<?xml version="1.0" encoding="utf-8"?>
<svg xmlns="http://www.w3.org/2000/svg" xmlns:xlink="http://www.w3.org/1999/xlink" width="600" height="400" viewBox="0 0 2400 1600">
<defs>
  <clipPath id="clip080">
    <rect x="0" y="0" width="2400" height="1600"/>
  </clipPath>
</defs>
<path clip-path="url(#clip080)" d="M0 1600 L2400 1600 L2400 0 L0 0  Z" fill="#ffffff" fill-rule="evenodd" fill-opacity="1"/>
<defs>
  <clipPath id="clip081">
    <rect x="480" y="0" width="1681" height="1600"/>
  </clipPath>
</defs>
<path clip-path="url(#clip080)" d="M175.445 1423.18 L2352.76 1423.18 L2352.76 47.2441 L175.445 47.2441  Z" fill="#ffffff" fill-rule="evenodd" fill-opacity="1"/>
<defs>
  <clipPath id="clip082">
    <rect x="175" y="47" width="2178" height="1377"/>
  </clipPath>
</defs>
<polyline clip-path="url(#clip082)" style="stroke:#000000; stroke-linecap:round; stroke-linejoin:round; stroke-width:2; stroke-opacity:0.1; fill:none" points="237.067,1423.18 237.067,47.2441 "/>
<polyline clip-path="url(#clip082)" style="stroke:#000000; stroke-linecap:round; stroke-linejoin:round; stroke-width:2; stroke-opacity:0.1; fill:none" points="579.412,1423.18 579.412,47.2441 "/>
<polyline clip-path="url(#clip082)" style="stroke:#000000; stroke-linecap:round; stroke-linejoin:round; stroke-width:2; stroke-opacity:0.1; fill:none" points="921.756,1423.18 921.756,47.2441 "/>
<polyline clip-path="url(#clip082)" style="stroke:#000000; stroke-linecap:round; stroke-linejoin:round; stroke-width:2; stroke-opacity:0.1; fill:none" points="1264.1,1423.18 1264.1,47.2441 "/>
<polyline clip-path="url(#clip082)" style="stroke:#000000; stroke-linecap:round; stroke-linejoin:round; stroke-width:2; stroke-opacity:0.1; fill:none" points="1606.45,1423.18 1606.45,47.2441 "/>
<polyline clip-path="url(#clip082)" style="stroke:#000000; stroke-linecap:round; stroke-linejoin:round; stroke-width:2; stroke-opacity:0.1; fill:none" points="1948.79,1423.18 1948.79,47.2441 "/>
<polyline clip-path="url(#clip082)" style="stroke:#000000; stroke-linecap:round; stroke-linejoin:round; stroke-width:2; stroke-opacity:0.1; fill:none" points="2291.13,1423.18 2291.13,47.2441 "/>
<polyline clip-path="url(#clip082)" style="stroke:#000000; stroke-linecap:round; stroke-linejoin:round; stroke-width:2; stroke-opacity:0.1; fill:none" points="175.445,1244 2352.76,1244 "/>
<polyline clip-path="url(#clip082)" style="stroke:#000000; stroke-linecap:round; stroke-linejoin:round; stroke-width:2; stroke-opacity:0.1; fill:none" points="175.445,1004.45 2352.76,1004.45 "/>
<polyline clip-path="url(#clip082)" style="stroke:#000000; stroke-linecap:round; stroke-linejoin:round; stroke-width:2; stroke-opacity:0.1; fill:none" points="175.445,764.899 2352.76,764.899 "/>
<polyline clip-path="url(#clip082)" style="stroke:#000000; stroke-linecap:round; stroke-linejoin:round; stroke-width:2; stroke-opacity:0.1; fill:none" points="175.445,525.349 2352.76,525.349 "/>
<polyline clip-path="url(#clip082)" style="stroke:#000000; stroke-linecap:round; stroke-linejoin:round; stroke-width:2; stroke-opacity:0.1; fill:none" points="175.445,285.798 2352.76,285.798 "/>
<polyline clip-path="url(#clip080)" style="stroke:#000000; stroke-linecap:round; stroke-linejoin:round; stroke-width:4; stroke-opacity:1; fill:none" points="175.445,1423.18 2352.76,1423.18 "/>
<polyline clip-path="url(#clip080)" style="stroke:#000000; stroke-linecap:round; stroke-linejoin:round; stroke-width:4; stroke-opacity:1; fill:none" points="237.067,1423.18 237.067,1404.28 "/>
<polyline clip-path="url(#clip080)" style="stroke:#000000; stroke-linecap:round; stroke-linejoin:round; stroke-width:4; stroke-opacity:1; fill:none" points="579.412,1423.18 579.412,1404.28 "/>
<polyline clip-path="url(#clip080)" style="stroke:#000000; stroke-linecap:round; stroke-linejoin:round; stroke-width:4; stroke-opacity:1; fill:none" points="921.756,1423.18 921.756,1404.28 "/>
<polyline clip-path="url(#clip080)" style="stroke:#000000; stroke-linecap:round; stroke-linejoin:round; stroke-width:4; stroke-opacity:1; fill:none" points="1264.1,1423.18 1264.1,1404.28 "/>
<polyline clip-path="url(#clip080)" style="stroke:#000000; stroke-linecap:round; stroke-linejoin:round; stroke-width:4; stroke-opacity:1; fill:none" points="1606.45,1423.18 1606.45,1404.28 "/>
<polyline clip-path="url(#clip080)" style="stroke:#000000; stroke-linecap:round; stroke-linejoin:round; stroke-width:4; stroke-opacity:1; fill:none" points="1948.79,1423.18 1948.79,1404.28 "/>
<polyline clip-path="url(#clip080)" style="stroke:#000000; stroke-linecap:round; stroke-linejoin:round; stroke-width:4; stroke-opacity:1; fill:none" points="2291.13,1423.18 2291.13,1404.28 "/>
<path clip-path="url(#clip080)" d="M206.709 1468.75 L236.384 1468.75 L236.384 1472.69 L206.709 1472.69 L206.709 1468.75 Z" fill="#000000" fill-rule="nonzero" fill-opacity="1" /><path clip-path="url(#clip080)" d="M246.523 1451.02 L264.88 1451.02 L264.88 1454.96 L250.806 1454.96 L250.806 1463.43 Q251.824 1463.08 252.843 1462.92 Q253.861 1462.73 254.88 1462.73 Q260.667 1462.73 264.046 1465.9 Q267.426 1469.08 267.426 1474.49 Q267.426 1480.07 263.954 1483.17 Q260.481 1486.25 254.162 1486.25 Q251.986 1486.25 249.718 1485.88 Q247.472 1485.51 245.065 1484.77 L245.065 1480.07 Q247.148 1481.2 249.37 1481.76 Q251.593 1482.32 254.069 1482.32 Q258.074 1482.32 260.412 1480.21 Q262.75 1478.1 262.75 1474.49 Q262.75 1470.88 260.412 1468.77 Q258.074 1466.67 254.069 1466.67 Q252.194 1466.67 250.319 1467.08 Q248.468 1467.5 246.523 1468.38 L246.523 1451.02 Z" fill="#000000" fill-rule="nonzero" fill-opacity="1" /><path clip-path="url(#clip080)" d="M548.312 1468.75 L577.988 1468.75 L577.988 1472.69 L548.312 1472.69 L548.312 1468.75 Z" fill="#000000" fill-rule="nonzero" fill-opacity="1" /><path clip-path="url(#clip080)" d="M600.928 1455.09 L589.122 1473.54 L600.928 1473.54 L600.928 1455.09 M599.701 1451.02 L605.58 1451.02 L605.58 1473.54 L610.511 1473.54 L610.511 1477.43 L605.58 1477.43 L605.58 1485.58 L600.928 1485.58 L600.928 1477.43 L585.326 1477.43 L585.326 1472.92 L599.701 1451.02 Z" fill="#000000" fill-rule="nonzero" fill-opacity="1" /><path clip-path="url(#clip080)" d="M891.224 1468.75 L920.9 1468.75 L920.9 1472.69 L891.224 1472.69 L891.224 1468.75 Z" fill="#000000" fill-rule="nonzero" fill-opacity="1" /><path clip-path="url(#clip080)" d="M945.159 1466.95 Q948.515 1467.66 950.39 1469.93 Q952.288 1472.2 952.288 1475.53 Q952.288 1480.65 948.77 1483.45 Q945.251 1486.25 938.77 1486.25 Q936.594 1486.25 934.279 1485.81 Q931.988 1485.39 929.534 1484.54 L929.534 1480.02 Q931.478 1481.16 933.793 1481.74 Q936.108 1482.32 938.631 1482.32 Q943.029 1482.32 945.321 1480.58 Q947.636 1478.84 947.636 1475.53 Q947.636 1472.48 945.483 1470.77 Q943.353 1469.03 939.534 1469.03 L935.506 1469.03 L935.506 1465.19 L939.719 1465.19 Q943.168 1465.19 944.997 1463.82 Q946.825 1462.43 946.825 1459.84 Q946.825 1457.18 944.927 1455.77 Q943.052 1454.33 939.534 1454.33 Q937.613 1454.33 935.413 1454.75 Q933.214 1455.16 930.576 1456.04 L930.576 1451.88 Q933.238 1451.14 935.552 1450.77 Q937.89 1450.39 939.95 1450.39 Q945.274 1450.39 948.376 1452.83 Q951.478 1455.23 951.478 1459.35 Q951.478 1462.22 949.835 1464.21 Q948.191 1466.18 945.159 1466.95 Z" fill="#000000" fill-rule="nonzero" fill-opacity="1" /><path clip-path="url(#clip080)" d="M1234.04 1468.75 L1263.72 1468.75 L1263.72 1472.69 L1234.04 1472.69 L1234.04 1468.75 Z" fill="#000000" fill-rule="nonzero" fill-opacity="1" /><path clip-path="url(#clip080)" d="M1277.84 1481.64 L1294.16 1481.64 L1294.16 1485.58 L1272.21 1485.58 L1272.21 1481.64 Q1274.88 1478.89 1279.46 1474.26 Q1284.07 1469.61 1285.25 1468.27 Q1287.49 1465.74 1288.37 1464.01 Q1289.27 1462.25 1289.27 1460.56 Q1289.27 1457.8 1287.33 1456.07 Q1285.41 1454.33 1282.31 1454.33 Q1280.11 1454.33 1277.65 1455.09 Q1275.22 1455.86 1272.45 1457.41 L1272.45 1452.69 Q1275.27 1451.55 1277.72 1450.97 Q1280.18 1450.39 1282.21 1450.39 Q1287.58 1450.39 1290.78 1453.08 Q1293.97 1455.77 1293.97 1460.26 Q1293.97 1462.39 1293.16 1464.31 Q1292.38 1466.2 1290.27 1468.8 Q1289.69 1469.47 1286.59 1472.69 Q1283.49 1475.88 1277.84 1481.64 Z" fill="#000000" fill-rule="nonzero" fill-opacity="1" /><path clip-path="url(#clip080)" d="M1576.2 1468.75 L1605.88 1468.75 L1605.88 1472.69 L1576.2 1472.69 L1576.2 1468.75 Z" fill="#000000" fill-rule="nonzero" fill-opacity="1" /><path clip-path="url(#clip080)" d="M1616.78 1481.64 L1624.42 1481.64 L1624.42 1455.28 L1616.11 1456.95 L1616.11 1452.69 L1624.37 1451.02 L1629.05 1451.02 L1629.05 1481.64 L1636.69 1481.64 L1636.69 1485.58 L1616.78 1485.58 L1616.78 1481.64 Z" fill="#000000" fill-rule="nonzero" fill-opacity="1" /><path clip-path="url(#clip080)" d="M1948.79 1454.1 Q1945.18 1454.1 1943.35 1457.66 Q1941.54 1461.2 1941.54 1468.33 Q1941.54 1475.44 1943.35 1479.01 Q1945.18 1482.55 1948.79 1482.55 Q1952.42 1482.55 1954.23 1479.01 Q1956.06 1475.44 1956.06 1468.33 Q1956.06 1461.2 1954.23 1457.66 Q1952.42 1454.1 1948.79 1454.1 M1948.79 1450.39 Q1954.6 1450.39 1957.66 1455 Q1960.73 1459.58 1960.73 1468.33 Q1960.73 1477.06 1957.66 1481.67 Q1954.6 1486.25 1948.79 1486.25 Q1942.98 1486.25 1939.9 1481.67 Q1936.85 1477.06 1936.85 1468.33 Q1936.85 1459.58 1939.9 1455 Q1942.98 1450.39 1948.79 1450.39 Z" fill="#000000" fill-rule="nonzero" fill-opacity="1" /><path clip-path="url(#clip080)" d="M2281.52 1481.64 L2289.15 1481.64 L2289.15 1455.28 L2280.84 1456.95 L2280.84 1452.69 L2289.11 1451.02 L2293.78 1451.02 L2293.78 1481.64 L2301.42 1481.64 L2301.42 1485.58 L2281.52 1485.58 L2281.52 1481.64 Z" fill="#000000" fill-rule="nonzero" fill-opacity="1" /><path clip-path="url(#clip080)" d="M1087.95 1518.52 L1093.8 1518.52 L1093.8 1568.04 L1087.95 1568.04 L1087.95 1518.52 Z" fill="#000000" fill-rule="nonzero" fill-opacity="1" /><path clip-path="url(#clip080)" d="M1129.51 1549.81 Q1129.51 1543.44 1126.87 1539.94 Q1124.26 1536.44 1119.52 1536.44 Q1114.81 1536.44 1112.17 1539.94 Q1109.56 1543.44 1109.56 1549.81 Q1109.56 1556.14 1112.17 1559.64 Q1114.81 1563.14 1119.52 1563.14 Q1124.26 1563.14 1126.87 1559.64 Q1129.51 1556.14 1129.51 1549.81 M1135.37 1563.62 Q1135.37 1572.72 1131.33 1577.15 Q1127.29 1581.6 1118.95 1581.6 Q1115.86 1581.6 1113.12 1581.13 Q1110.38 1580.68 1107.81 1579.72 L1107.81 1574.03 Q1110.38 1575.43 1112.9 1576.1 Q1115.41 1576.76 1118.02 1576.76 Q1123.78 1576.76 1126.65 1573.74 Q1129.51 1570.75 1129.51 1564.67 L1129.51 1561.77 Q1127.7 1564.92 1124.87 1566.48 Q1122.03 1568.04 1118.09 1568.04 Q1111.53 1568.04 1107.52 1563.05 Q1103.51 1558.05 1103.51 1549.81 Q1103.51 1541.53 1107.52 1536.53 Q1111.53 1531.54 1118.09 1531.54 Q1122.03 1531.54 1124.87 1533.1 Q1127.7 1534.66 1129.51 1537.81 L1129.51 1532.4 L1135.37 1532.4 L1135.37 1563.62 Z" fill="#000000" fill-rule="nonzero" fill-opacity="1" /><path clip-path="url(#clip080)" d="M1161.5 1518.58 Q1157.24 1525.9 1155.17 1533.06 Q1153.1 1540.23 1153.1 1547.58 Q1153.1 1554.93 1155.17 1562.16 Q1157.27 1569.35 1161.5 1576.64 L1156.41 1576.64 Q1151.63 1569.16 1149.25 1561.93 Q1146.89 1554.71 1146.89 1547.58 Q1146.89 1540.48 1149.25 1533.29 Q1151.6 1526.09 1156.41 1518.58 L1161.5 1518.58 Z" fill="#000000" fill-rule="nonzero" fill-opacity="1" /><path clip-path="url(#clip080)" d="M1172.64 1518.52 L1178.53 1518.52 L1178.53 1547.77 L1196 1532.4 L1203.48 1532.4 L1184.58 1549.07 L1204.28 1568.04 L1196.64 1568.04 L1178.53 1550.63 L1178.53 1568.04 L1172.64 1568.04 L1172.64 1518.52 Z" fill="#000000" fill-rule="nonzero" fill-opacity="1" /><path clip-path="url(#clip080)" d="M1221.02 1520.52 L1226.43 1520.52 L1209.88 1574.09 L1204.47 1574.09 L1221.02 1520.52 Z" fill="#000000" fill-rule="nonzero" fill-opacity="1" /><path clip-path="url(#clip080)" d="M1232.83 1520.52 L1242.41 1520.52 L1254.54 1552.86 L1266.73 1520.52 L1276.31 1520.52 L1276.31 1568.04 L1270.04 1568.04 L1270.04 1526.32 L1257.78 1558.91 L1251.32 1558.91 L1239.07 1526.32 L1239.07 1568.04 L1232.83 1568.04 L1232.83 1520.52 Z" fill="#000000" fill-rule="nonzero" fill-opacity="1" /><path clip-path="url(#clip080)" d="M1294.48 1562.7 L1294.48 1581.6 L1288.59 1581.6 L1288.59 1532.4 L1294.48 1532.4 L1294.48 1537.81 Q1296.33 1534.62 1299.13 1533.1 Q1301.96 1531.54 1305.88 1531.54 Q1312.37 1531.54 1316.41 1536.69 Q1320.48 1541.85 1320.48 1550.25 Q1320.48 1558.65 1316.41 1563.81 Q1312.37 1568.97 1305.88 1568.97 Q1301.96 1568.97 1299.13 1567.44 Q1296.33 1565.88 1294.48 1562.7 M1314.41 1550.25 Q1314.41 1543.79 1311.73 1540.13 Q1309.09 1536.44 1304.44 1536.44 Q1299.8 1536.44 1297.12 1540.13 Q1294.48 1543.79 1294.48 1550.25 Q1294.48 1556.71 1297.12 1560.4 Q1299.8 1564.07 1304.44 1564.07 Q1309.09 1564.07 1311.73 1560.4 Q1314.41 1556.71 1314.41 1550.25 Z" fill="#000000" fill-rule="nonzero" fill-opacity="1" /><path clip-path="url(#clip080)" d="M1355.85 1533.76 L1355.85 1539.24 Q1353.36 1537.87 1350.85 1537.2 Q1348.37 1536.5 1345.82 1536.5 Q1340.12 1536.5 1336.97 1540.13 Q1333.82 1543.73 1333.82 1550.25 Q1333.82 1556.78 1336.97 1560.4 Q1340.12 1564 1345.82 1564 Q1348.37 1564 1350.85 1563.33 Q1353.36 1562.63 1355.85 1561.26 L1355.85 1566.68 Q1353.4 1567.82 1350.75 1568.39 Q1348.14 1568.97 1345.18 1568.97 Q1337.13 1568.97 1332.39 1563.91 Q1327.65 1558.85 1327.65 1550.25 Q1327.65 1541.53 1332.42 1536.53 Q1337.23 1531.54 1345.57 1531.54 Q1348.27 1531.54 1350.85 1532.11 Q1353.43 1532.65 1355.85 1533.76 Z" fill="#000000" fill-rule="nonzero" fill-opacity="1" /><path clip-path="url(#clip080)" d="M1364.25 1533.83 L1389.93 1533.83 L1389.93 1536.85 L1364.25 1536.85 L1364.25 1533.83 Z" fill="#000000" fill-rule="nonzero" fill-opacity="1" /><path clip-path="url(#clip080)" d="M1399.26 1543.28 L1405.75 1543.28 L1405.75 1523.83 L1398.66 1525.14 L1398.66 1521.45 L1405.98 1520.21 L1410.34 1520.21 L1410.34 1543.28 L1416.86 1543.28 L1416.86 1546.78 L1399.26 1546.78 L1399.26 1543.28 Z" fill="#000000" fill-rule="nonzero" fill-opacity="1" /><path clip-path="url(#clip080)" d="M1425.65 1518.58 L1430.74 1518.58 Q1435.51 1526.09 1437.87 1533.29 Q1440.26 1540.48 1440.26 1547.58 Q1440.26 1554.71 1437.87 1561.93 Q1435.51 1569.16 1430.74 1576.64 L1425.65 1576.64 Q1429.88 1569.35 1431.95 1562.16 Q1434.05 1554.93 1434.05 1547.58 Q1434.05 1540.23 1431.95 1533.06 Q1429.88 1525.9 1425.65 1518.58 Z" fill="#000000" fill-rule="nonzero" fill-opacity="1" /><polyline clip-path="url(#clip080)" style="stroke:#000000; stroke-linecap:round; stroke-linejoin:round; stroke-width:4; stroke-opacity:1; fill:none" points="175.445,1423.18 175.445,47.2441 "/>
<polyline clip-path="url(#clip080)" style="stroke:#000000; stroke-linecap:round; stroke-linejoin:round; stroke-width:4; stroke-opacity:1; fill:none" points="175.445,1244 194.343,1244 "/>
<polyline clip-path="url(#clip080)" style="stroke:#000000; stroke-linecap:round; stroke-linejoin:round; stroke-width:4; stroke-opacity:1; fill:none" points="175.445,1004.45 194.343,1004.45 "/>
<polyline clip-path="url(#clip080)" style="stroke:#000000; stroke-linecap:round; stroke-linejoin:round; stroke-width:4; stroke-opacity:1; fill:none" points="175.445,764.899 194.343,764.899 "/>
<polyline clip-path="url(#clip080)" style="stroke:#000000; stroke-linecap:round; stroke-linejoin:round; stroke-width:4; stroke-opacity:1; fill:none" points="175.445,525.349 194.343,525.349 "/>
<polyline clip-path="url(#clip080)" style="stroke:#000000; stroke-linecap:round; stroke-linejoin:round; stroke-width:4; stroke-opacity:1; fill:none" points="175.445,285.798 194.343,285.798 "/>
<path clip-path="url(#clip080)" d="M127.501 1229.8 Q123.89 1229.8 122.061 1233.36 Q120.255 1236.91 120.255 1244.04 Q120.255 1251.14 122.061 1254.71 Q123.89 1258.25 127.501 1258.25 Q131.135 1258.25 132.941 1254.71 Q134.769 1251.14 134.769 1244.04 Q134.769 1236.91 132.941 1233.36 Q131.135 1229.8 127.501 1229.8 M127.501 1226.1 Q133.311 1226.1 136.367 1230.7 Q139.445 1235.29 139.445 1244.04 Q139.445 1252.76 136.367 1257.37 Q133.311 1261.95 127.501 1261.95 Q121.691 1261.95 118.612 1257.37 Q115.556 1252.76 115.556 1244.04 Q115.556 1235.29 118.612 1230.7 Q121.691 1226.1 127.501 1226.1 Z" fill="#000000" fill-rule="nonzero" fill-opacity="1" /><path clip-path="url(#clip080)" d="M119.538 1017.79 L127.177 1017.79 L127.177 991.429 L118.867 993.096 L118.867 988.837 L127.13 987.17 L131.806 987.17 L131.806 1017.79 L139.445 1017.79 L139.445 1021.73 L119.538 1021.73 L119.538 1017.79 Z" fill="#000000" fill-rule="nonzero" fill-opacity="1" /><path clip-path="url(#clip080)" d="M123.126 778.244 L139.445 778.244 L139.445 782.179 L117.501 782.179 L117.501 778.244 Q120.163 775.489 124.746 770.86 Q129.353 766.207 130.533 764.864 Q132.779 762.341 133.658 760.605 Q134.561 758.846 134.561 757.156 Q134.561 754.402 132.617 752.665 Q130.695 750.929 127.593 750.929 Q125.394 750.929 122.941 751.693 Q120.51 752.457 117.732 754.008 L117.732 749.286 Q120.556 748.152 123.01 747.573 Q125.464 746.994 127.501 746.994 Q132.871 746.994 136.066 749.679 Q139.26 752.365 139.26 756.855 Q139.26 758.985 138.45 760.906 Q137.663 762.804 135.556 765.397 Q134.978 766.068 131.876 769.286 Q128.774 772.48 123.126 778.244 Z" fill="#000000" fill-rule="nonzero" fill-opacity="1" /><path clip-path="url(#clip080)" d="M132.316 523.994 Q135.672 524.712 137.547 526.98 Q139.445 529.249 139.445 532.582 Q139.445 537.698 135.927 540.499 Q132.408 543.3 125.927 543.3 Q123.751 543.3 121.436 542.86 Q119.144 542.443 116.691 541.587 L116.691 537.073 Q118.635 538.207 120.95 538.786 Q123.265 539.365 125.788 539.365 Q130.186 539.365 132.478 537.629 Q134.792 535.892 134.792 532.582 Q134.792 529.527 132.64 527.814 Q130.51 526.078 126.691 526.078 L122.663 526.078 L122.663 522.235 L126.876 522.235 Q130.325 522.235 132.154 520.869 Q133.982 519.481 133.982 516.888 Q133.982 514.226 132.084 512.814 Q130.209 511.379 126.691 511.379 Q124.769 511.379 122.57 511.795 Q120.371 512.212 117.732 513.092 L117.732 508.925 Q120.394 508.184 122.709 507.814 Q125.047 507.444 127.107 507.444 Q132.431 507.444 135.533 509.874 Q138.635 512.282 138.635 516.402 Q138.635 519.272 136.992 521.263 Q135.348 523.231 132.316 523.994 Z" fill="#000000" fill-rule="nonzero" fill-opacity="1" /><path clip-path="url(#clip080)" d="M129.862 272.592 L118.056 291.041 L129.862 291.041 L129.862 272.592 M128.635 268.518 L134.515 268.518 L134.515 291.041 L139.445 291.041 L139.445 294.93 L134.515 294.93 L134.515 303.078 L129.862 303.078 L129.862 294.93 L114.26 294.93 L114.26 290.416 L128.635 268.518 Z" fill="#000000" fill-rule="nonzero" fill-opacity="1" /><path clip-path="url(#clip080)" d="M14.479 894.943 L14.479 889.087 L64.0042 889.087 L64.0042 894.943 L14.479 894.943 Z" fill="#000000" fill-rule="nonzero" fill-opacity="1" /><path clip-path="url(#clip080)" d="M45.7664 853.375 Q39.4007 853.375 35.8996 856.017 Q32.3984 858.627 32.3984 863.37 Q32.3984 868.08 35.8996 870.722 Q39.4007 873.332 45.7664 873.332 Q52.1003 873.332 55.6014 870.722 Q59.1026 868.08 59.1026 863.37 Q59.1026 858.627 55.6014 856.017 Q52.1003 853.375 45.7664 853.375 M59.58 847.519 Q68.683 847.519 73.1071 851.561 Q77.5631 855.603 77.5631 863.942 Q77.5631 867.03 77.0857 869.767 Q76.6401 872.504 75.6852 875.082 L69.9879 875.082 Q71.3884 872.504 72.0568 869.99 Q72.7252 867.475 72.7252 864.865 Q72.7252 859.105 69.7015 856.24 Q66.7096 853.375 60.6303 853.375 L57.7339 853.375 Q60.885 855.19 62.4446 858.022 Q64.0042 860.855 64.0042 864.802 Q64.0042 871.359 59.0071 875.369 Q54.01 879.379 45.7664 879.379 Q37.491 879.379 32.4939 875.369 Q27.4968 871.359 27.4968 864.802 Q27.4968 860.855 29.0564 858.022 Q30.616 855.19 33.7671 853.375 L28.3562 853.375 L28.3562 847.519 L59.58 847.519 Z" fill="#000000" fill-rule="nonzero" fill-opacity="1" /><path clip-path="url(#clip080)" d="M14.5426 821.388 Q21.8632 825.653 29.0246 827.722 Q36.186 829.79 43.5384 829.79 Q50.8908 829.79 58.1159 827.722 Q65.3091 825.621 72.5979 821.388 L72.5979 826.48 Q65.1182 831.255 57.8931 833.642 Q50.668 835.997 43.5384 835.997 Q36.4406 835.997 29.2474 833.642 Q22.0542 831.286 14.5426 826.48 L14.5426 821.388 Z" fill="#000000" fill-rule="nonzero" fill-opacity="1" /><path clip-path="url(#clip080)" d="M21.7677 803.341 L39.6235 803.341 L39.6235 795.256 Q39.6235 790.769 37.3 788.318 Q34.9765 785.867 30.6797 785.867 Q26.4147 785.867 24.0912 788.318 Q21.7677 790.769 21.7677 795.256 L21.7677 803.341 M16.4842 809.77 L16.4842 795.256 Q16.4842 787.268 20.1126 783.193 Q23.7092 779.088 30.6797 779.088 Q37.7138 779.088 41.3104 783.193 Q44.907 787.268 44.907 795.256 L44.907 803.341 L64.0042 803.341 L64.0042 809.77 L16.4842 809.77 Z" fill="#000000" fill-rule="nonzero" fill-opacity="1" /><path clip-path="url(#clip080)" d="M16.4842 760.309 L16.4842 754.898 L70.0516 771.449 L70.0516 776.86 L16.4842 760.309 Z" fill="#000000" fill-rule="nonzero" fill-opacity="1" /><path clip-path="url(#clip080)" d="M16.4842 748.5 L16.4842 738.92 L48.8219 726.793 L16.4842 714.603 L16.4842 705.023 L64.0042 705.023 L64.0042 711.293 L22.277 711.293 L54.8694 723.547 L54.8694 730.008 L22.277 742.262 L64.0042 742.262 L64.0042 748.5 L16.4842 748.5 Z" fill="#000000" fill-rule="nonzero" fill-opacity="1" /><path clip-path="url(#clip080)" d="M58.657 686.849 L77.5631 686.849 L77.5631 692.737 L28.3562 692.737 L28.3562 686.849 L33.7671 686.849 Q30.5842 685.002 29.0564 682.202 Q27.4968 679.369 27.4968 675.454 Q27.4968 668.961 32.6531 664.919 Q37.8093 660.845 46.212 660.845 Q54.6147 660.845 59.771 664.919 Q64.9272 668.961 64.9272 675.454 Q64.9272 679.369 63.3994 682.202 Q61.8398 685.002 58.657 686.849 M46.212 666.924 Q39.7508 666.924 36.0905 669.597 Q32.3984 672.239 32.3984 676.886 Q32.3984 681.533 36.0905 684.207 Q39.7508 686.849 46.212 686.849 Q52.6732 686.849 56.3653 684.207 Q60.0256 681.533 60.0256 676.886 Q60.0256 672.239 56.3653 669.597 Q52.6732 666.924 46.212 666.924 Z" fill="#000000" fill-rule="nonzero" fill-opacity="1" /><path clip-path="url(#clip080)" d="M29.7248 625.483 L35.1993 625.483 Q33.8307 627.966 33.1623 630.48 Q32.4621 632.963 32.4621 635.509 Q32.4621 641.206 36.0905 644.357 Q39.6872 647.508 46.212 647.508 Q52.7369 647.508 56.3653 644.357 Q59.9619 641.206 59.9619 635.509 Q59.9619 632.963 59.2935 630.48 Q58.5933 627.966 57.2247 625.483 L62.6355 625.483 Q63.7814 627.934 64.3543 630.576 Q64.9272 633.186 64.9272 636.146 Q64.9272 644.198 59.8664 648.941 Q54.8057 653.683 46.212 653.683 Q37.491 653.683 32.4939 648.909 Q27.4968 644.103 27.4968 635.764 Q27.4968 633.058 28.0697 630.48 Q28.6108 627.902 29.7248 625.483 Z" fill="#000000" fill-rule="nonzero" fill-opacity="1" /><path clip-path="url(#clip080)" d="M28.3562 604.763 Q28.9291 601.835 30.6797 600.243 Q32.3984 598.62 35.0084 598.62 Q38.9551 598.62 41.0876 601.644 Q43.2201 604.667 43.2201 610.301 Q43.2201 612.115 42.9018 614.12 Q42.5517 616.094 41.9152 618.322 L38.0639 618.322 Q38.9233 616.667 39.337 614.789 Q39.7508 612.879 39.7508 610.746 Q39.7508 607.277 38.5095 605.367 Q37.2364 603.458 35.0084 603.458 Q32.6531 603.458 31.4436 605.24 Q30.2341 606.991 30.2341 610.428 L30.2341 613.165 L26.7966 613.165 L26.7966 610.174 Q26.7966 607.182 25.8099 605.654 Q24.7914 604.094 22.8817 604.094 Q21.0356 604.094 20.0808 605.686 Q19.0941 607.277 19.0941 610.301 Q19.0941 611.574 19.3806 613.197 Q19.667 614.821 20.3991 617.399 L16.7388 617.399 Q16.1977 615.075 15.9112 613.038 Q15.6248 611.001 15.6248 609.251 Q15.6248 604.667 17.5027 601.994 Q19.3806 599.288 22.5316 599.288 Q24.7277 599.288 26.2555 600.721 Q27.7833 602.153 28.3562 604.763 Z" fill="#000000" fill-rule="nonzero" fill-opacity="1" /><path clip-path="url(#clip080)" d="M14.5426 590.09 L14.5426 584.997 Q22.0542 580.223 29.2474 577.868 Q36.4406 575.48 43.5384 575.48 Q50.668 575.48 57.8931 577.868 Q65.1182 580.223 72.5979 584.997 L72.5979 590.09 Q65.3091 585.857 58.1159 583.788 Q50.8908 581.687 43.5384 581.687 Q36.186 581.687 29.0246 583.788 Q21.8632 585.857 14.5426 590.09 Z" fill="#000000" fill-rule="nonzero" fill-opacity="1" /><polyline clip-path="url(#clip082)" style="stroke:#009af9; stroke-linecap:round; stroke-linejoin:round; stroke-width:4; stroke-opacity:1; fill:none" points="237.067,693.884 241.184,691.144 245.3,688.405 249.416,685.665 253.533,682.926 257.649,680.187 261.765,677.448 265.882,674.709 269.998,671.97 274.115,669.231 278.231,666.493 282.347,663.754 286.464,661.016 290.58,658.278 294.696,655.54 298.813,652.802 302.929,650.064 307.045,647.326 311.162,644.589 315.278,641.851 319.395,639.113 323.511,636.376 327.627,633.639 331.744,630.901 335.86,628.164 339.976,625.427 344.093,622.69 348.209,619.953 352.325,617.216 356.442,614.479 360.558,611.742 364.675,609.005 368.791,606.268 372.907,603.531 377.024,600.794 381.14,598.058 385.256,595.321 389.373,592.584 393.489,589.848 397.605,587.111 401.722,584.375 405.838,581.638 409.955,578.902 414.071,576.165 418.187,573.429 422.304,570.693 426.42,567.957 430.536,565.22 434.653,562.484 438.769,559.747 442.886,557.012 447.002,554.275 451.118,551.539 455.235,548.803 459.351,546.067 463.467,543.331 467.584,540.595 471.7,537.859 475.816,535.124 479.933,532.387 484.049,529.652 488.166,526.916 492.282,524.18 496.398,521.444 500.515,518.709 504.631,515.973 508.747,513.238 512.864,510.503 516.98,507.768 521.096,505.032 525.213,502.297 529.329,499.562 533.446,496.827 537.562,494.092 541.678,491.357 545.795,488.623 549.911,485.888 554.027,483.154 558.144,480.419 562.26,477.685 566.376,474.95 570.493,472.217 574.609,469.483 578.726,466.749 582.842,464.015 586.958,461.282 591.075,458.548 595.191,455.815 599.307,453.082 603.424,450.349 607.54,447.617 611.657,444.884 615.773,442.152 619.889,439.42 624.006,436.689 628.122,433.957 632.238,431.226 636.355,428.495 640.471,425.765 644.587,423.035 648.704,420.305 652.82,417.575 656.937,414.846 661.053,412.118 665.169,409.389 669.286,406.662 673.402,403.934 677.518,401.207 681.635,398.481 685.751,395.755 689.867,393.03 693.984,390.305 698.1,387.581 702.217,384.858 706.333,382.135 710.449,379.414 714.566,376.693 718.682,373.972 722.798,371.253 726.915,368.534 731.031,365.817 735.148,363.1 739.264,360.385 743.38,357.67 747.497,354.957 751.613,352.245 755.729,349.534 759.846,346.824 763.962,344.116 768.078,341.409 772.195,338.704 776.311,336.001 780.428,333.299 784.544,330.598 788.66,327.9 792.777,325.203 796.893,322.508 801.009,319.815 805.126,317.125 809.242,314.436 813.358,311.75 817.475,309.066 821.591,306.385 825.708,303.706 829.824,301.03 833.94,298.357 838.057,295.687 842.173,293.019 846.289,290.355 850.406,287.694 854.522,285.036 858.638,282.382 862.755,279.731 866.871,277.085 870.988,274.442 875.104,271.803 879.22,269.168 883.337,266.538 887.453,263.912 891.569,261.291 895.686,258.675 899.802,256.064 903.919,253.458 908.035,250.857 912.151,248.263 916.268,245.674 920.384,243.091 924.5,240.514 928.617,237.944 932.733,235.381 936.849,232.824 940.966,230.275 945.082,227.734 949.199,225.2 953.315,222.674 957.431,220.156 961.548,217.647 965.664,215.147 969.78,212.656 973.897,210.174 978.013,207.702 982.129,205.24 986.246,202.789 990.362,200.348 994.479,197.919 998.595,195.5 1002.71,193.094 1006.83,190.7 1010.94,188.318 1015.06,185.948 1019.18,183.592 1023.29,181.25 1027.41,178.922 1031.53,176.607 1035.64,174.308 1039.76,172.024 1043.87,169.755 1047.99,167.503 1052.11,165.267 1056.22,163.047 1060.34,160.845 1064.46,158.661 1068.57,156.495 1072.69,154.348 1076.81,152.221 1080.92,150.112 1085.04,148.025 1089.15,145.958 1093.27,143.912 1097.39,141.888 1101.5,139.887 1105.62,137.908 1109.74,135.953 1113.85,134.022 1117.97,132.117 1122.09,130.236 1126.2,128.382 1130.32,126.554 1134.44,124.754 1138.55,122.982 1142.67,121.238 1146.78,119.525 1150.9,117.842 1155.02,116.189 1159.13,114.569 1163.25,112.982 1167.37,111.428 1171.48,109.909 1175.6,108.425 1179.72,106.977 1183.83,105.567 1187.95,104.196 1192.06,102.863 1196.18,101.572 1200.3,100.322 1204.41,99.1142 1208.53,97.9507 1212.65,96.8324 1216.76,95.7607 1220.88,94.7368 1225,93.7621 1229.11,92.8382 1233.23,91.9665 1237.34,91.1486 1241.46,90.3862 1245.58,89.6808 1249.69,89.0344 1253.81,88.4485 1257.93,87.9252 1262.04,87.4664 1266.16,87.0741 1270.28,86.7504 1274.39,86.4974 1278.51,86.3174 1282.62,86.2127 1286.74,86.1857 1290.86,86.2385 1294.97,86.3738 1299.09,86.594 1303.21,86.9016 1307.32,87.2991 1311.44,87.789 1315.56,88.3738 1319.67,89.0561 1323.79,89.8382 1327.9,90.7224 1332.02,91.711 1336.14,92.806 1340.25,94.0092 1344.37,95.3223 1348.49,96.7467 1352.6,98.2832 1356.72,99.9325 1360.84,101.695 1364.95,103.569 1369.07,105.555 1373.18,107.65 1377.3,109.852 1381.42,112.157 1385.53,114.561 1389.65,117.058 1393.77,119.641 1397.88,122.303 1402,125.033 1406.12,127.822 1410.23,130.658 1414.35,133.528 1418.46,136.418 1422.58,139.313 1426.7,142.198 1430.81,145.057 1434.93,147.875 1439.05,150.636 1443.16,153.327 1447.28,155.936 1451.4,158.454 1455.51,160.876 1459.63,163.199 1463.74,165.427 1467.86,167.569 1471.98,169.638 1476.09,171.655 1480.21,173.645 1484.33,175.642 1488.44,177.681 1492.56,179.805 1496.68,182.058 1500.79,184.486 1504.91,187.134 1509.02,190.047 1513.14,193.262 1517.26,196.809 1521.37,200.708 1525.49,204.965 1529.61,209.57 1533.72,214.492 1537.84,219.679 1541.96,225.06 1546.07,230.54 1550.19,236.009 1554.3,241.345 1558.42,246.429 1562.54,251.152 1566.65,255.433 1570.77,259.232 1574.89,262.564 1579,265.499 1583.12,268.167 1587.24,270.742 1591.35,273.429 1595.47,276.438 1599.58,279.958 1603.7,284.134 1607.82,289.035 1611.93,294.64 1616.05,300.825 1620.17,307.363 1624.28,313.951 1628.4,320.254 1632.52,325.968 1636.63,330.901 1640.75,335.03 1644.86,338.527 1648.98,341.736 1653.1,345.086 1657.21,348.996 1661.33,353.753 1665.45,359.437 1669.56,365.872 1673.68,372.658 1677.8,379.277 1681.91,385.259 1686.03,390.372 1690.14,394.734 1694.26,398.773 1698.38,403.059 1702.49,408.054 1706.61,413.904 1710.73,420.366 1714.84,426.918 1718.96,433.021 1723.08,438.424 1727.19,443.315 1731.31,448.194 1735.42,453.548 1739.54,459.533 1743.66,465.877 1747.77,472.1 1751.89,477.882 1756.01,483.308 1760.12,488.77 1764.24,494.595 1768.36,500.764 1772.47,506.966 1776.59,512.934 1780.7,518.711 1784.82,524.56 1788.94,530.638 1793.05,536.835 1797.17,542.955 1801.29,548.973 1805.4,555.03 1809.52,561.209 1813.64,567.435 1817.75,573.619 1821.87,579.796 1825.98,586.034 1830.1,592.318 1834.22,598.598 1838.33,604.885 1842.45,611.209 1846.57,617.56 1850.68,623.919 1854.8,630.299 1858.92,636.704 1863.03,643.126 1867.15,649.566 1871.26,656.028 1875.38,662.508 1879.5,669.007 1883.61,675.525 1887.73,682.06 1891.85,688.612 1895.96,695.182 1900.08,701.77 1904.2,708.375 1908.31,714.998 1912.43,721.637 1916.54,728.294 1920.66,734.967 1924.78,741.655 1928.89,748.359 1933.01,755.08 1937.13,761.816 1941.24,768.568 1945.36,775.336 1949.48,782.118 1953.59,788.915 1957.71,795.726 1961.82,802.553 1965.94,809.394 1970.06,816.249 1974.17,823.118 1978.29,830.001 1982.41,836.898 1986.52,843.809 1990.64,850.733 1994.76,857.67 1998.87,864.62 2002.99,871.583 2007.1,878.559 2011.22,885.548 2015.34,892.549 2019.45,899.563 2023.57,906.589 2027.69,913.627 2031.8,920.677 2035.92,927.739 2040.04,934.813 2044.15,941.898 2048.27,948.994 2052.38,956.102 2056.5,963.222 2060.62,970.352 2064.73,977.493 2068.85,984.645 2072.97,991.808 2077.08,998.981 2081.2,1006.17 2085.32,1013.36 2089.43,1020.56 2093.55,1027.78 2097.66,1035 2101.78,1042.24 2105.9,1049.48 2110.01,1056.74 2114.13,1064 2118.25,1071.27 2122.36,1078.56 2126.48,1085.85 2130.6,1093.15 2134.71,1100.46 2138.83,1107.78 2142.94,1115.11 2147.06,1122.45 2151.18,1129.79 2155.29,1137.15 2159.41,1144.51 2163.53,1151.88 2167.64,1159.27 2171.76,1166.65 2175.88,1174.05 2179.99,1181.46 2184.11,1188.87 2188.22,1196.29 2192.34,1203.72 2196.46,1211.16 2200.57,1218.6 2204.69,1226.06 2208.81,1233.52 2212.92,1240.99 2217.04,1248.46 2221.16,1255.94 2225.27,1263.44 2229.39,1270.93 2233.5,1278.44 2237.62,1285.95 2241.74,1293.47 2245.85,1301 2249.97,1308.53 2254.09,1316.07 2258.2,1323.62 2262.32,1331.17 2266.44,1338.73 2270.55,1346.3 2274.67,1353.88 2278.78,1361.46 2282.9,1369.04 2287.02,1376.64 2291.13,1384.24 "/>
</svg>
