<?xml version="1.0" encoding="utf-8"?>
<svg xmlns="http://www.w3.org/2000/svg" xmlns:xlink="http://www.w3.org/1999/xlink" width="800" height="400" viewBox="0 0 3200 1600">
<defs>
  <clipPath id="clip650">
    <rect x="0" y="0" width="3200" height="1600"/>
  </clipPath>
</defs>
<path clip-path="url(#clip650)" d="M0 1600 L3200 1600 L3200 0 L0 0  Z" fill="#ffffff" fill-rule="evenodd" fill-opacity="1"/>
<defs>
  <clipPath id="clip651">
    <rect x="364" y="47" width="2789" height="1449"/>
  </clipPath>
</defs>
<path clip-path="url(#clip650)" d="M364.733 1495.09 L3152.76 1495.09 L3152.76 47.2441 L364.733 47.2441  Z" fill="#ffffff" fill-rule="evenodd" fill-opacity="1"/>
<polyline clip-path="url(#clip651)" style="stroke:#000000; stroke-linecap:round; stroke-linejoin:round; stroke-width:2; stroke-opacity:0.1; fill:none" points="735.885,1495.09 735.885,47.2441 "/>
<polyline clip-path="url(#clip651)" style="stroke:#000000; stroke-linecap:round; stroke-linejoin:round; stroke-width:2; stroke-opacity:0.1; fill:none" points="1758.74,1495.09 1758.74,47.2441 "/>
<polyline clip-path="url(#clip651)" style="stroke:#000000; stroke-linecap:round; stroke-linejoin:round; stroke-width:2; stroke-opacity:0.1; fill:none" points="2781.6,1495.09 2781.6,47.2441 "/>
<polyline clip-path="url(#clip651)" style="stroke:#000000; stroke-linecap:round; stroke-linejoin:round; stroke-width:2; stroke-opacity:0.1; fill:none" points="364.733,1381.62 3152.76,1381.62 "/>
<polyline clip-path="url(#clip651)" style="stroke:#000000; stroke-linecap:round; stroke-linejoin:round; stroke-width:2; stroke-opacity:0.1; fill:none" points="364.733,1127.24 3152.76,1127.24 "/>
<polyline clip-path="url(#clip651)" style="stroke:#000000; stroke-linecap:round; stroke-linejoin:round; stroke-width:2; stroke-opacity:0.1; fill:none" points="364.733,872.851 3152.76,872.851 "/>
<polyline clip-path="url(#clip651)" style="stroke:#000000; stroke-linecap:round; stroke-linejoin:round; stroke-width:2; stroke-opacity:0.1; fill:none" points="364.733,618.465 3152.76,618.465 "/>
<polyline clip-path="url(#clip651)" style="stroke:#000000; stroke-linecap:round; stroke-linejoin:round; stroke-width:2; stroke-opacity:0.1; fill:none" points="364.733,364.08 3152.76,364.08 "/>
<polyline clip-path="url(#clip651)" style="stroke:#000000; stroke-linecap:round; stroke-linejoin:round; stroke-width:2; stroke-opacity:0.1; fill:none" points="364.733,109.694 3152.76,109.694 "/>
<polyline clip-path="url(#clip650)" style="stroke:#000000; stroke-linecap:round; stroke-linejoin:round; stroke-width:4; stroke-opacity:1; fill:none" points="364.733,1495.09 3152.76,1495.09 "/>
<polyline clip-path="url(#clip650)" style="stroke:#000000; stroke-linecap:round; stroke-linejoin:round; stroke-width:4; stroke-opacity:1; fill:none" points="735.885,1495.09 735.885,1476.19 "/>
<polyline clip-path="url(#clip650)" style="stroke:#000000; stroke-linecap:round; stroke-linejoin:round; stroke-width:4; stroke-opacity:1; fill:none" points="1758.74,1495.09 1758.74,1476.19 "/>
<polyline clip-path="url(#clip650)" style="stroke:#000000; stroke-linecap:round; stroke-linejoin:round; stroke-width:4; stroke-opacity:1; fill:none" points="2781.6,1495.09 2781.6,1476.19 "/>
<path clip-path="url(#clip650)" d="M651.846 1538.73 L651.846 1542.75 Q650.04 1541.83 648.096 1541.36 Q646.151 1540.9 644.068 1540.9 Q640.897 1540.9 639.299 1541.87 Q637.725 1542.85 637.725 1544.79 Q637.725 1546.27 638.86 1547.13 Q639.994 1547.96 643.42 1548.73 L644.878 1549.05 Q649.415 1550.02 651.313 1551.8 Q653.235 1553.56 653.235 1556.74 Q653.235 1560.35 650.364 1562.45 Q647.517 1564.56 642.517 1564.56 Q640.434 1564.56 638.165 1564.14 Q635.92 1563.75 633.42 1562.94 L633.42 1558.54 Q635.781 1559.77 638.073 1560.39 Q640.364 1560.99 642.61 1560.99 Q645.619 1560.99 647.239 1559.98 Q648.86 1558.93 648.86 1557.06 Q648.86 1555.32 647.679 1554.4 Q646.522 1553.47 642.563 1552.61 L641.082 1552.27 Q637.123 1551.43 635.364 1549.72 Q633.605 1547.99 633.605 1544.98 Q633.605 1541.32 636.198 1539.33 Q638.79 1537.34 643.559 1537.34 Q645.92 1537.34 648.003 1537.68 Q650.086 1538.03 651.846 1538.73 Z" fill="#000000" fill-rule="nonzero" fill-opacity="1" /><path clip-path="url(#clip650)" d="M670.804 1566.3 Q668.998 1570.92 667.285 1572.34 Q665.572 1573.75 662.702 1573.75 L659.299 1573.75 L659.299 1570.18 L661.799 1570.18 Q663.559 1570.18 664.531 1569.35 Q665.503 1568.52 666.684 1565.42 L667.447 1563.47 L656.961 1537.96 L661.475 1537.96 L669.577 1558.24 L677.679 1537.96 L682.193 1537.96 L670.804 1566.3 Z" fill="#000000" fill-rule="nonzero" fill-opacity="1" /><path clip-path="url(#clip650)" d="M708.257 1542.94 Q709.855 1540.07 712.077 1538.7 Q714.299 1537.34 717.308 1537.34 Q721.359 1537.34 723.558 1540.18 Q725.757 1543.01 725.757 1548.24 L725.757 1563.89 L721.475 1563.89 L721.475 1548.38 Q721.475 1544.65 720.155 1542.85 Q718.836 1541.04 716.128 1541.04 Q712.818 1541.04 710.896 1543.24 Q708.975 1545.44 708.975 1549.24 L708.975 1563.89 L704.693 1563.89 L704.693 1548.38 Q704.693 1544.63 703.373 1542.85 Q702.054 1541.04 699.299 1541.04 Q696.035 1541.04 694.114 1543.26 Q692.193 1545.46 692.193 1549.24 L692.193 1563.89 L687.91 1563.89 L687.91 1537.96 L692.193 1537.96 L692.193 1541.99 Q693.651 1539.61 695.688 1538.47 Q697.725 1537.34 700.526 1537.34 Q703.35 1537.34 705.318 1538.77 Q707.308 1540.21 708.257 1542.94 Z" fill="#000000" fill-rule="nonzero" fill-opacity="1" /><path clip-path="url(#clip650)" d="M752.864 1550.95 Q752.864 1546.25 750.919 1543.59 Q748.998 1540.9 745.618 1540.9 Q742.239 1540.9 740.294 1543.59 Q738.373 1546.25 738.373 1550.95 Q738.373 1555.65 740.294 1558.33 Q742.239 1560.99 745.618 1560.99 Q748.998 1560.99 750.919 1558.33 Q752.864 1555.65 752.864 1550.95 M738.373 1541.9 Q739.716 1539.58 741.753 1538.47 Q743.813 1537.34 746.66 1537.34 Q751.382 1537.34 754.322 1541.09 Q757.285 1544.84 757.285 1550.95 Q757.285 1557.06 754.322 1560.81 Q751.382 1564.56 746.66 1564.56 Q743.813 1564.56 741.753 1563.45 Q739.716 1562.31 738.373 1560 L738.373 1563.89 L734.091 1563.89 L734.091 1527.87 L738.373 1527.87 L738.373 1541.9 Z" fill="#000000" fill-rule="nonzero" fill-opacity="1" /><path clip-path="url(#clip650)" d="M774.391 1540.95 Q770.965 1540.95 768.975 1543.63 Q766.984 1546.3 766.984 1550.95 Q766.984 1555.6 768.951 1558.29 Q770.942 1560.95 774.391 1560.95 Q777.794 1560.95 779.785 1558.26 Q781.775 1555.58 781.775 1550.95 Q781.775 1546.34 779.785 1543.66 Q777.794 1540.95 774.391 1540.95 M774.391 1537.34 Q779.947 1537.34 783.118 1540.95 Q786.289 1544.56 786.289 1550.95 Q786.289 1557.31 783.118 1560.95 Q779.947 1564.56 774.391 1564.56 Q768.813 1564.56 765.641 1560.95 Q762.493 1557.31 762.493 1550.95 Q762.493 1544.56 765.641 1540.95 Q768.813 1537.34 774.391 1537.34 Z" fill="#000000" fill-rule="nonzero" fill-opacity="1" /><path clip-path="url(#clip650)" d="M793.349 1527.87 L797.609 1527.87 L797.609 1563.89 L793.349 1563.89 L793.349 1527.87 Z" fill="#000000" fill-rule="nonzero" fill-opacity="1" /><path clip-path="url(#clip650)" d="M806.521 1537.96 L810.78 1537.96 L810.78 1563.89 L806.521 1563.89 L806.521 1537.96 M806.521 1527.87 L810.78 1527.87 L810.78 1533.26 L806.521 1533.26 L806.521 1527.87 Z" fill="#000000" fill-rule="nonzero" fill-opacity="1" /><path clip-path="url(#clip650)" d="M838.349 1538.96 L838.349 1542.94 Q836.544 1541.94 834.715 1541.46 Q832.909 1540.95 831.058 1540.95 Q826.914 1540.95 824.622 1543.59 Q822.331 1546.2 822.331 1550.95 Q822.331 1555.69 824.622 1558.33 Q826.914 1560.95 831.058 1560.95 Q832.909 1560.95 834.715 1560.46 Q836.544 1559.95 838.349 1558.96 L838.349 1562.89 Q836.567 1563.73 834.646 1564.14 Q832.747 1564.56 830.595 1564.56 Q824.738 1564.56 821.289 1560.88 Q817.84 1557.2 817.84 1550.95 Q817.84 1544.61 821.312 1540.97 Q824.808 1537.34 830.872 1537.34 Q832.84 1537.34 834.715 1537.75 Q836.59 1538.15 838.349 1538.96 Z" fill="#000000" fill-rule="nonzero" fill-opacity="1" /><path clip-path="url(#clip650)" d="M1669.07 1527.87 L1669.07 1531.41 L1664.99 1531.41 Q1662.7 1531.41 1661.8 1532.34 Q1660.92 1533.26 1660.92 1535.67 L1660.92 1537.96 L1667.93 1537.96 L1667.93 1541.27 L1660.92 1541.27 L1660.92 1563.89 L1656.64 1563.89 L1656.64 1541.27 L1652.56 1541.27 L1652.56 1537.96 L1656.64 1537.96 L1656.64 1536.16 Q1656.64 1531.83 1658.65 1529.86 Q1660.67 1527.87 1665.04 1527.87 L1669.07 1527.87 Z" fill="#000000" fill-rule="nonzero" fill-opacity="1" /><path clip-path="url(#clip650)" d="M1672.63 1537.96 L1676.89 1537.96 L1676.89 1563.89 L1672.63 1563.89 L1672.63 1537.96 M1672.63 1527.87 L1676.89 1527.87 L1676.89 1533.26 L1672.63 1533.26 L1672.63 1527.87 Z" fill="#000000" fill-rule="nonzero" fill-opacity="1" /><path clip-path="url(#clip650)" d="M1707.36 1548.24 L1707.36 1563.89 L1703.1 1563.89 L1703.1 1548.38 Q1703.1 1544.7 1701.66 1542.87 Q1700.23 1541.04 1697.36 1541.04 Q1693.91 1541.04 1691.92 1543.24 Q1689.93 1545.44 1689.93 1549.24 L1689.93 1563.89 L1685.64 1563.89 L1685.64 1537.96 L1689.93 1537.96 L1689.93 1541.99 Q1691.45 1539.65 1693.51 1538.49 Q1695.6 1537.34 1698.3 1537.34 Q1702.77 1537.34 1705.06 1540.11 Q1707.36 1542.87 1707.36 1548.24 Z" fill="#000000" fill-rule="nonzero" fill-opacity="1" /><path clip-path="url(#clip650)" d="M1715.85 1537.96 L1720.11 1537.96 L1720.11 1563.89 L1715.85 1563.89 L1715.85 1537.96 M1715.85 1527.87 L1720.11 1527.87 L1720.11 1533.26 L1715.85 1533.26 L1715.85 1527.87 Z" fill="#000000" fill-rule="nonzero" fill-opacity="1" /><path clip-path="url(#clip650)" d="M1733.24 1530.6 L1733.24 1537.96 L1742.01 1537.96 L1742.01 1541.27 L1733.24 1541.27 L1733.24 1555.35 Q1733.24 1558.52 1734.09 1559.42 Q1734.97 1560.32 1737.63 1560.32 L1742.01 1560.32 L1742.01 1563.89 L1737.63 1563.89 Q1732.7 1563.89 1730.83 1562.06 Q1728.95 1560.21 1728.95 1555.35 L1728.95 1541.27 L1725.83 1541.27 L1725.83 1537.96 L1728.95 1537.96 L1728.95 1530.6 L1733.24 1530.6 Z" fill="#000000" fill-rule="nonzero" fill-opacity="1" /><path clip-path="url(#clip650)" d="M1769.79 1549.86 L1769.79 1551.94 L1750.2 1551.94 Q1750.48 1556.34 1752.84 1558.66 Q1755.23 1560.95 1759.46 1560.95 Q1761.92 1560.95 1764.21 1560.35 Q1766.52 1559.74 1768.79 1558.54 L1768.79 1562.57 Q1766.5 1563.54 1764.09 1564.05 Q1761.68 1564.56 1759.21 1564.56 Q1753 1564.56 1749.37 1560.95 Q1745.76 1557.34 1745.76 1551.18 Q1745.76 1544.81 1749.18 1541.09 Q1752.63 1537.34 1758.47 1537.34 Q1763.7 1537.34 1766.73 1540.72 Q1769.79 1544.07 1769.79 1549.86 M1765.53 1548.61 Q1765.48 1545.11 1763.56 1543.03 Q1761.66 1540.95 1758.51 1540.95 Q1754.95 1540.95 1752.8 1542.96 Q1750.67 1544.98 1750.34 1548.63 L1765.53 1548.61 Z" fill="#000000" fill-rule="nonzero" fill-opacity="1" /><path clip-path="url(#clip650)" d="M1808.91 1541.9 L1808.91 1527.87 L1813.17 1527.87 L1813.17 1563.89 L1808.91 1563.89 L1808.91 1560 Q1807.56 1562.31 1805.5 1563.45 Q1803.47 1564.56 1800.6 1564.56 Q1795.9 1564.56 1792.93 1560.81 Q1789.99 1557.06 1789.99 1550.95 Q1789.99 1544.84 1792.93 1541.09 Q1795.9 1537.34 1800.6 1537.34 Q1803.47 1537.34 1805.5 1538.47 Q1807.56 1539.58 1808.91 1541.9 M1794.39 1550.95 Q1794.39 1555.65 1796.31 1558.33 Q1798.26 1560.99 1801.64 1560.99 Q1805.02 1560.99 1806.96 1558.33 Q1808.91 1555.65 1808.91 1550.95 Q1808.91 1546.25 1806.96 1543.59 Q1805.02 1540.9 1801.64 1540.9 Q1798.26 1540.9 1796.31 1543.59 Q1794.39 1546.25 1794.39 1550.95 Z" fill="#000000" fill-rule="nonzero" fill-opacity="1" /><path clip-path="url(#clip650)" d="M1821.94 1537.96 L1826.2 1537.96 L1826.2 1563.89 L1821.94 1563.89 L1821.94 1537.96 M1821.94 1527.87 L1826.2 1527.87 L1826.2 1533.26 L1821.94 1533.26 L1821.94 1527.87 Z" fill="#000000" fill-rule="nonzero" fill-opacity="1" /><path clip-path="url(#clip650)" d="M1848.23 1527.87 L1848.23 1531.41 L1844.16 1531.41 Q1841.87 1531.41 1840.97 1532.34 Q1840.09 1533.26 1840.09 1535.67 L1840.09 1537.96 L1847.1 1537.96 L1847.1 1541.27 L1840.09 1541.27 L1840.09 1563.89 L1835.8 1563.89 L1835.8 1541.27 L1831.73 1541.27 L1831.73 1537.96 L1835.8 1537.96 L1835.8 1536.16 Q1835.8 1531.83 1837.82 1529.86 Q1839.83 1527.87 1844.21 1527.87 L1848.23 1527.87 Z" fill="#000000" fill-rule="nonzero" fill-opacity="1" /><path clip-path="url(#clip650)" d="M1864.92 1527.87 L1864.92 1531.41 L1860.85 1531.41 Q1858.56 1531.41 1857.66 1532.34 Q1856.78 1533.26 1856.78 1535.67 L1856.78 1537.96 L1863.79 1537.96 L1863.79 1541.27 L1856.78 1541.27 L1856.78 1563.89 L1852.49 1563.89 L1852.49 1541.27 L1848.42 1541.27 L1848.42 1537.96 L1852.49 1537.96 L1852.49 1536.16 Q1852.49 1531.83 1854.51 1529.86 Q1856.52 1527.87 1860.9 1527.87 L1864.92 1527.87 Z" fill="#000000" fill-rule="nonzero" fill-opacity="1" /><path clip-path="url(#clip650)" d="M2661.47 1527.87 L2661.47 1531.41 L2657.39 1531.41 Q2655.1 1531.41 2654.2 1532.34 Q2653.32 1533.26 2653.32 1535.67 L2653.32 1537.96 L2660.33 1537.96 L2660.33 1541.27 L2653.32 1541.27 L2653.32 1563.89 L2649.04 1563.89 L2649.04 1541.27 L2644.96 1541.27 L2644.96 1537.96 L2649.04 1537.96 L2649.04 1536.16 Q2649.04 1531.83 2651.05 1529.86 Q2653.06 1527.87 2657.44 1527.87 L2661.47 1527.87 Z" fill="#000000" fill-rule="nonzero" fill-opacity="1" /><path clip-path="url(#clip650)" d="M2675.08 1540.95 Q2671.65 1540.95 2669.66 1543.63 Q2667.67 1546.3 2667.67 1550.95 Q2667.67 1555.6 2669.64 1558.29 Q2671.63 1560.95 2675.08 1560.95 Q2678.48 1560.95 2680.47 1558.26 Q2682.46 1555.58 2682.46 1550.95 Q2682.46 1546.34 2680.47 1543.66 Q2678.48 1540.95 2675.08 1540.95 M2675.08 1537.34 Q2680.63 1537.34 2683.8 1540.95 Q2686.97 1544.56 2686.97 1550.95 Q2686.97 1557.31 2683.8 1560.95 Q2680.63 1564.56 2675.08 1564.56 Q2669.5 1564.56 2666.33 1560.95 Q2663.18 1557.31 2663.18 1550.95 Q2663.18 1544.56 2666.33 1540.95 Q2669.5 1537.34 2675.08 1537.34 Z" fill="#000000" fill-rule="nonzero" fill-opacity="1" /><path clip-path="url(#clip650)" d="M2709.06 1541.94 Q2708.34 1541.53 2707.48 1541.34 Q2706.65 1541.13 2705.63 1541.13 Q2702.02 1541.13 2700.08 1543.49 Q2698.16 1545.83 2698.16 1550.23 L2698.16 1563.89 L2693.87 1563.89 L2693.87 1537.96 L2698.16 1537.96 L2698.16 1541.99 Q2699.5 1539.63 2701.65 1538.49 Q2703.8 1537.34 2706.88 1537.34 Q2707.32 1537.34 2707.85 1537.41 Q2708.39 1537.45 2709.03 1537.57 L2709.06 1541.94 Z" fill="#000000" fill-rule="nonzero" fill-opacity="1" /><path clip-path="url(#clip650)" d="M2711.05 1537.96 L2715.31 1537.96 L2720.63 1558.19 L2725.93 1537.96 L2730.96 1537.96 L2736.28 1558.19 L2741.58 1537.96 L2745.84 1537.96 L2739.06 1563.89 L2734.03 1563.89 L2728.46 1542.64 L2722.85 1563.89 L2717.83 1563.89 L2711.05 1537.96 Z" fill="#000000" fill-rule="nonzero" fill-opacity="1" /><path clip-path="url(#clip650)" d="M2764.08 1550.86 Q2758.92 1550.86 2756.93 1552.04 Q2754.94 1553.22 2754.94 1556.06 Q2754.94 1558.33 2756.42 1559.67 Q2757.92 1560.99 2760.49 1560.99 Q2764.03 1560.99 2766.16 1558.49 Q2768.32 1555.97 2768.32 1551.8 L2768.32 1550.86 L2764.08 1550.86 M2772.58 1549.1 L2772.58 1563.89 L2768.32 1563.89 L2768.32 1559.95 Q2766.86 1562.31 2764.68 1563.45 Q2762.51 1564.56 2759.36 1564.56 Q2755.38 1564.56 2753.02 1562.34 Q2750.68 1560.09 2750.68 1556.34 Q2750.68 1551.97 2753.59 1549.74 Q2756.53 1547.52 2762.34 1547.52 L2768.32 1547.52 L2768.32 1547.11 Q2768.32 1544.17 2766.37 1542.57 Q2764.45 1540.95 2760.96 1540.95 Q2758.73 1540.95 2756.63 1541.48 Q2754.52 1542.01 2752.58 1543.08 L2752.58 1539.14 Q2754.91 1538.24 2757.11 1537.8 Q2759.31 1537.34 2761.4 1537.34 Q2767.02 1537.34 2769.8 1540.25 Q2772.58 1543.17 2772.58 1549.1 Z" fill="#000000" fill-rule="nonzero" fill-opacity="1" /><path clip-path="url(#clip650)" d="M2796.37 1541.94 Q2795.65 1541.53 2794.8 1541.34 Q2793.96 1541.13 2792.95 1541.13 Q2789.34 1541.13 2787.39 1543.49 Q2785.47 1545.83 2785.47 1550.23 L2785.47 1563.89 L2781.19 1563.89 L2781.19 1537.96 L2785.47 1537.96 L2785.47 1541.99 Q2786.81 1539.63 2788.97 1538.49 Q2791.12 1537.34 2794.2 1537.34 Q2794.64 1537.34 2795.17 1537.41 Q2795.7 1537.45 2796.35 1537.57 L2796.37 1541.94 Z" fill="#000000" fill-rule="nonzero" fill-opacity="1" /><path clip-path="url(#clip650)" d="M2817.07 1541.9 L2817.07 1527.87 L2821.33 1527.87 L2821.33 1563.89 L2817.07 1563.89 L2817.07 1560 Q2815.72 1562.31 2813.66 1563.45 Q2811.63 1564.56 2808.76 1564.56 Q2804.06 1564.56 2801.09 1560.81 Q2798.15 1557.06 2798.15 1550.95 Q2798.15 1544.84 2801.09 1541.09 Q2804.06 1537.34 2808.76 1537.34 Q2811.63 1537.34 2813.66 1538.47 Q2815.72 1539.58 2817.07 1541.9 M2802.55 1550.95 Q2802.55 1555.65 2804.47 1558.33 Q2806.42 1560.99 2809.8 1560.99 Q2813.18 1560.99 2815.12 1558.33 Q2817.07 1555.65 2817.07 1550.95 Q2817.07 1546.25 2815.12 1543.59 Q2813.18 1540.9 2809.8 1540.9 Q2806.42 1540.9 2804.47 1543.59 Q2802.55 1546.25 2802.55 1550.95 Z" fill="#000000" fill-rule="nonzero" fill-opacity="1" /><path clip-path="url(#clip650)" d="M2862.23 1541.9 L2862.23 1527.87 L2866.49 1527.87 L2866.49 1563.89 L2862.23 1563.89 L2862.23 1560 Q2860.89 1562.31 2858.83 1563.45 Q2856.79 1564.56 2853.92 1564.56 Q2849.22 1564.56 2846.26 1560.81 Q2843.32 1557.06 2843.32 1550.95 Q2843.32 1544.84 2846.26 1541.09 Q2849.22 1537.34 2853.92 1537.34 Q2856.79 1537.34 2858.83 1538.47 Q2860.89 1539.58 2862.23 1541.9 M2847.71 1550.95 Q2847.71 1555.65 2849.64 1558.33 Q2851.58 1560.99 2854.96 1560.99 Q2858.34 1560.99 2860.28 1558.33 Q2862.23 1555.65 2862.23 1550.95 Q2862.23 1546.25 2860.28 1543.59 Q2858.34 1540.9 2854.96 1540.9 Q2851.58 1540.9 2849.64 1543.59 Q2847.71 1546.25 2847.71 1550.95 Z" fill="#000000" fill-rule="nonzero" fill-opacity="1" /><path clip-path="url(#clip650)" d="M2875.26 1537.96 L2879.52 1537.96 L2879.52 1563.89 L2875.26 1563.89 L2875.26 1537.96 M2875.26 1527.87 L2879.52 1527.87 L2879.52 1533.26 L2875.26 1533.26 L2875.26 1527.87 Z" fill="#000000" fill-rule="nonzero" fill-opacity="1" /><path clip-path="url(#clip650)" d="M2901.56 1527.87 L2901.56 1531.41 L2897.48 1531.41 Q2895.19 1531.41 2894.29 1532.34 Q2893.41 1533.26 2893.41 1535.67 L2893.41 1537.96 L2900.42 1537.96 L2900.42 1541.27 L2893.41 1541.27 L2893.41 1563.89 L2889.13 1563.89 L2889.13 1541.27 L2885.05 1541.27 L2885.05 1537.96 L2889.13 1537.96 L2889.13 1536.16 Q2889.13 1531.83 2891.14 1529.86 Q2893.15 1527.87 2897.53 1527.87 L2901.56 1527.87 Z" fill="#000000" fill-rule="nonzero" fill-opacity="1" /><path clip-path="url(#clip650)" d="M2918.25 1527.87 L2918.25 1531.41 L2914.17 1531.41 Q2911.88 1531.41 2910.98 1532.34 Q2910.1 1533.26 2910.1 1535.67 L2910.1 1537.96 L2917.11 1537.96 L2917.11 1541.27 L2910.1 1541.27 L2910.1 1563.89 L2905.82 1563.89 L2905.82 1541.27 L2901.74 1541.27 L2901.74 1537.96 L2905.82 1537.96 L2905.82 1536.16 Q2905.82 1531.83 2907.83 1529.86 Q2909.84 1527.87 2914.22 1527.87 L2918.25 1527.87 Z" fill="#000000" fill-rule="nonzero" fill-opacity="1" /><polyline clip-path="url(#clip650)" style="stroke:#000000; stroke-linecap:round; stroke-linejoin:round; stroke-width:4; stroke-opacity:1; fill:none" points="364.733,1495.09 364.733,47.2441 "/>
<polyline clip-path="url(#clip650)" style="stroke:#000000; stroke-linecap:round; stroke-linejoin:round; stroke-width:4; stroke-opacity:1; fill:none" points="364.733,1381.62 383.63,1381.62 "/>
<polyline clip-path="url(#clip650)" style="stroke:#000000; stroke-linecap:round; stroke-linejoin:round; stroke-width:4; stroke-opacity:1; fill:none" points="364.733,1127.24 383.63,1127.24 "/>
<polyline clip-path="url(#clip650)" style="stroke:#000000; stroke-linecap:round; stroke-linejoin:round; stroke-width:4; stroke-opacity:1; fill:none" points="364.733,872.851 383.63,872.851 "/>
<polyline clip-path="url(#clip650)" style="stroke:#000000; stroke-linecap:round; stroke-linejoin:round; stroke-width:4; stroke-opacity:1; fill:none" points="364.733,618.465 383.63,618.465 "/>
<polyline clip-path="url(#clip650)" style="stroke:#000000; stroke-linecap:round; stroke-linejoin:round; stroke-width:4; stroke-opacity:1; fill:none" points="364.733,364.08 383.63,364.08 "/>
<polyline clip-path="url(#clip650)" style="stroke:#000000; stroke-linecap:round; stroke-linejoin:round; stroke-width:4; stroke-opacity:1; fill:none" points="364.733,109.694 383.63,109.694 "/>
<path clip-path="url(#clip650)" d="M100.137 1370.79 L118.493 1370.79 L118.493 1374.72 L104.419 1374.72 L104.419 1383.2 Q105.437 1382.85 106.456 1382.69 Q107.474 1382.5 108.493 1382.5 Q114.28 1382.5 117.66 1385.67 Q121.039 1388.85 121.039 1394.26 Q121.039 1399.84 117.567 1402.94 Q114.095 1406.02 107.775 1406.02 Q105.599 1406.02 103.331 1405.65 Q101.086 1405.28 98.6782 1404.54 L98.6782 1399.84 Q100.762 1400.97 102.984 1401.53 Q105.206 1402.09 107.683 1402.09 Q111.687 1402.09 114.025 1399.98 Q116.363 1397.87 116.363 1394.26 Q116.363 1390.65 114.025 1388.54 Q111.687 1386.44 107.683 1386.44 Q105.808 1386.44 103.933 1386.85 Q102.081 1387.27 100.137 1388.15 L100.137 1370.79 Z" fill="#000000" fill-rule="nonzero" fill-opacity="1" /><path clip-path="url(#clip650)" d="M130.252 1399.47 L135.136 1399.47 L135.136 1405.35 L130.252 1405.35 L130.252 1399.47 Z" fill="#000000" fill-rule="nonzero" fill-opacity="1" /><path clip-path="url(#clip650)" d="M155.321 1373.87 Q151.71 1373.87 149.882 1377.43 Q148.076 1380.97 148.076 1388.1 Q148.076 1395.21 149.882 1398.78 Q151.71 1402.32 155.321 1402.32 Q158.956 1402.32 160.761 1398.78 Q162.59 1395.21 162.59 1388.1 Q162.59 1380.97 160.761 1377.43 Q158.956 1373.87 155.321 1373.87 M155.321 1370.16 Q161.132 1370.16 164.187 1374.77 Q167.266 1379.35 167.266 1388.1 Q167.266 1396.83 164.187 1401.44 Q161.132 1406.02 155.321 1406.02 Q149.511 1406.02 146.433 1401.44 Q143.377 1396.83 143.377 1388.1 Q143.377 1379.35 146.433 1374.77 Q149.511 1370.16 155.321 1370.16 Z" fill="#000000" fill-rule="nonzero" fill-opacity="1" /><path clip-path="url(#clip650)" d="M185.483 1373.87 Q181.872 1373.87 180.043 1377.43 Q178.238 1380.97 178.238 1388.1 Q178.238 1395.21 180.043 1398.78 Q181.872 1402.32 185.483 1402.32 Q189.118 1402.32 190.923 1398.78 Q192.752 1395.21 192.752 1388.1 Q192.752 1380.97 190.923 1377.43 Q189.118 1373.87 185.483 1373.87 M185.483 1370.16 Q191.293 1370.16 194.349 1374.77 Q197.428 1379.35 197.428 1388.1 Q197.428 1396.83 194.349 1401.44 Q191.293 1406.02 185.483 1406.02 Q179.673 1406.02 176.594 1401.44 Q173.539 1396.83 173.539 1388.1 Q173.539 1379.35 176.594 1374.77 Q179.673 1370.16 185.483 1370.16 Z" fill="#000000" fill-rule="nonzero" fill-opacity="1" /><path clip-path="url(#clip650)" d="M233.816 1379.89 L223.238 1390.51 L233.816 1401.09 L231.062 1403.89 L220.437 1393.27 L209.812 1403.89 L207.08 1401.09 L217.636 1390.51 L207.08 1379.89 L209.812 1377.09 L220.437 1387.71 L231.062 1377.09 L233.816 1379.89 Z" fill="#000000" fill-rule="nonzero" fill-opacity="1" /><path clip-path="url(#clip650)" d="M246.177 1401.41 L253.816 1401.41 L253.816 1375.05 L245.506 1376.72 L245.506 1372.46 L253.77 1370.79 L258.446 1370.79 L258.446 1401.41 L266.085 1401.41 L266.085 1405.35 L246.177 1405.35 L246.177 1401.41 Z" fill="#000000" fill-rule="nonzero" fill-opacity="1" /><path clip-path="url(#clip650)" d="M285.529 1373.87 Q281.918 1373.87 280.089 1377.43 Q278.284 1380.97 278.284 1388.1 Q278.284 1395.21 280.089 1398.78 Q281.918 1402.32 285.529 1402.32 Q289.163 1402.32 290.969 1398.78 Q292.798 1395.21 292.798 1388.1 Q292.798 1380.97 290.969 1377.43 Q289.163 1373.87 285.529 1373.87 M285.529 1370.16 Q291.339 1370.16 294.395 1374.77 Q297.473 1379.35 297.473 1388.1 Q297.473 1396.83 294.395 1401.44 Q291.339 1406.02 285.529 1406.02 Q279.719 1406.02 276.64 1401.44 Q273.585 1396.83 273.585 1388.1 Q273.585 1379.35 276.64 1374.77 Q279.719 1370.16 285.529 1370.16 Z" fill="#000000" fill-rule="nonzero" fill-opacity="1" /><path clip-path="url(#clip650)" d="M307.103 1364.6 Q304.395 1364.6 302.834 1366.05 Q301.291 1367.5 301.291 1370.04 Q301.291 1372.58 302.834 1374.03 Q304.395 1375.48 307.103 1375.48 Q309.811 1375.48 311.372 1374.03 Q312.933 1372.56 312.933 1370.04 Q312.933 1367.5 311.372 1366.05 Q309.83 1364.6 307.103 1364.6 M303.304 1362.99 Q300.859 1362.39 299.486 1360.71 Q298.132 1359.04 298.132 1356.63 Q298.132 1353.26 300.52 1351.31 Q302.928 1349.35 307.103 1349.35 Q311.297 1349.35 313.686 1351.31 Q316.074 1353.26 316.074 1356.63 Q316.074 1359.04 314.701 1360.71 Q313.347 1362.39 310.921 1362.99 Q313.667 1363.63 315.19 1365.49 Q316.733 1367.35 316.733 1370.04 Q316.733 1374.12 314.231 1376.3 Q311.749 1378.48 307.103 1378.48 Q302.457 1378.48 299.956 1376.3 Q297.473 1374.12 297.473 1370.04 Q297.473 1367.35 299.016 1365.49 Q300.558 1363.63 303.304 1362.99 M301.912 1356.99 Q301.912 1359.17 303.266 1360.39 Q304.639 1361.61 307.103 1361.61 Q309.548 1361.61 310.921 1360.39 Q312.313 1359.17 312.313 1356.99 Q312.313 1354.81 310.921 1353.58 Q309.548 1352.36 307.103 1352.36 Q304.639 1352.36 303.266 1353.58 Q301.912 1354.81 301.912 1356.99 Z" fill="#000000" fill-rule="nonzero" fill-opacity="1" /><path clip-path="url(#clip650)" d="M100.788 1147.03 L108.426 1147.03 L108.426 1120.66 L100.116 1122.33 L100.116 1118.07 L108.38 1116.4 L113.056 1116.4 L113.056 1147.03 L120.695 1147.03 L120.695 1150.96 L100.788 1150.96 L100.788 1147.03 Z" fill="#000000" fill-rule="nonzero" fill-opacity="1" /><path clip-path="url(#clip650)" d="M130.139 1145.08 L135.023 1145.08 L135.023 1150.96 L130.139 1150.96 L130.139 1145.08 Z" fill="#000000" fill-rule="nonzero" fill-opacity="1" /><path clip-path="url(#clip650)" d="M155.209 1119.48 Q151.597 1119.48 149.769 1123.05 Q147.963 1126.59 147.963 1133.72 Q147.963 1140.83 149.769 1144.39 Q151.597 1147.93 155.209 1147.93 Q158.843 1147.93 160.648 1144.39 Q162.477 1140.83 162.477 1133.72 Q162.477 1126.59 160.648 1123.05 Q158.843 1119.48 155.209 1119.48 M155.209 1115.78 Q161.019 1115.78 164.074 1120.39 Q167.153 1124.97 167.153 1133.72 Q167.153 1142.45 164.074 1147.05 Q161.019 1151.64 155.209 1151.64 Q149.398 1151.64 146.32 1147.05 Q143.264 1142.45 143.264 1133.72 Q143.264 1124.97 146.32 1120.39 Q149.398 1115.78 155.209 1115.78 Z" fill="#000000" fill-rule="nonzero" fill-opacity="1" /><path clip-path="url(#clip650)" d="M185.37 1119.48 Q181.759 1119.48 179.931 1123.05 Q178.125 1126.59 178.125 1133.72 Q178.125 1140.83 179.931 1144.39 Q181.759 1147.93 185.37 1147.93 Q189.005 1147.93 190.81 1144.39 Q192.639 1140.83 192.639 1133.72 Q192.639 1126.59 190.81 1123.05 Q189.005 1119.48 185.37 1119.48 M185.37 1115.78 Q191.181 1115.78 194.236 1120.39 Q197.315 1124.97 197.315 1133.72 Q197.315 1142.45 194.236 1147.05 Q191.181 1151.64 185.37 1151.64 Q179.56 1151.64 176.482 1147.05 Q173.426 1142.45 173.426 1133.72 Q173.426 1124.97 176.482 1120.39 Q179.56 1115.78 185.37 1115.78 Z" fill="#000000" fill-rule="nonzero" fill-opacity="1" /><path clip-path="url(#clip650)" d="M233.704 1125.5 L223.125 1136.13 L233.704 1146.7 L230.949 1149.51 L220.324 1138.88 L209.699 1149.51 L206.968 1146.7 L217.523 1136.13 L206.968 1125.5 L209.699 1122.7 L220.324 1133.33 L230.949 1122.7 L233.704 1125.5 Z" fill="#000000" fill-rule="nonzero" fill-opacity="1" /><path clip-path="url(#clip650)" d="M246.065 1147.03 L253.703 1147.03 L253.703 1120.66 L245.393 1122.33 L245.393 1118.07 L253.657 1116.4 L258.333 1116.4 L258.333 1147.03 L265.972 1147.03 L265.972 1150.96 L246.065 1150.96 L246.065 1147.03 Z" fill="#000000" fill-rule="nonzero" fill-opacity="1" /><path clip-path="url(#clip650)" d="M285.416 1119.48 Q281.805 1119.48 279.976 1123.05 Q278.171 1126.59 278.171 1133.72 Q278.171 1140.83 279.976 1144.39 Q281.805 1147.93 285.416 1147.93 Q289.05 1147.93 290.856 1144.39 Q292.685 1140.83 292.685 1133.72 Q292.685 1126.59 290.856 1123.05 Q289.05 1119.48 285.416 1119.48 M285.416 1115.78 Q291.226 1115.78 294.282 1120.39 Q297.361 1124.97 297.361 1133.72 Q297.361 1142.45 294.282 1147.05 Q291.226 1151.64 285.416 1151.64 Q279.606 1151.64 276.527 1147.05 Q273.472 1142.45 273.472 1133.72 Q273.472 1124.97 276.527 1120.39 Q279.606 1115.78 285.416 1115.78 Z" fill="#000000" fill-rule="nonzero" fill-opacity="1" /><path clip-path="url(#clip650)" d="M299.166 1122.97 L299.166 1119.51 Q300.596 1120.19 302.063 1120.54 Q303.53 1120.9 304.94 1120.9 Q308.702 1120.9 310.676 1118.38 Q312.67 1115.84 312.952 1110.69 Q311.861 1112.31 310.187 1113.17 Q308.514 1114.04 306.482 1114.04 Q302.269 1114.04 299.806 1111.5 Q297.361 1108.94 297.361 1104.52 Q297.361 1100.19 299.918 1097.58 Q302.476 1094.97 306.727 1094.97 Q311.598 1094.97 314.156 1098.71 Q316.733 1102.43 316.733 1109.54 Q316.733 1116.18 313.573 1120.15 Q310.432 1124.1 305.109 1124.1 Q303.68 1124.1 302.213 1123.82 Q300.746 1123.53 299.166 1122.97 M306.727 1111.07 Q309.285 1111.07 310.771 1109.32 Q312.275 1107.57 312.275 1104.52 Q312.275 1101.49 310.771 1099.74 Q309.285 1097.98 306.727 1097.98 Q304.169 1097.98 302.664 1099.74 Q301.179 1101.49 301.179 1104.52 Q301.179 1107.57 302.664 1109.32 Q304.169 1111.07 306.727 1111.07 Z" fill="#000000" fill-rule="nonzero" fill-opacity="1" /><path clip-path="url(#clip650)" d="M100.788 892.643 L108.426 892.643 L108.426 866.278 L100.116 867.944 L100.116 863.685 L108.38 862.019 L113.056 862.019 L113.056 892.643 L120.695 892.643 L120.695 896.579 L100.788 896.579 L100.788 892.643 Z" fill="#000000" fill-rule="nonzero" fill-opacity="1" /><path clip-path="url(#clip650)" d="M130.139 890.699 L135.023 890.699 L135.023 896.579 L130.139 896.579 L130.139 890.699 Z" fill="#000000" fill-rule="nonzero" fill-opacity="1" /><path clip-path="url(#clip650)" d="M145.255 862.019 L163.611 862.019 L163.611 865.954 L149.537 865.954 L149.537 874.426 Q150.556 874.079 151.574 873.917 Q152.593 873.731 153.611 873.731 Q159.398 873.731 162.778 876.903 Q166.158 880.074 166.158 885.491 Q166.158 891.069 162.685 894.171 Q159.213 897.25 152.894 897.25 Q150.718 897.25 148.449 896.88 Q146.204 896.509 143.797 895.768 L143.797 891.069 Q145.88 892.204 148.102 892.759 Q150.324 893.315 152.801 893.315 Q156.806 893.315 159.144 891.208 Q161.482 889.102 161.482 885.491 Q161.482 881.88 159.144 879.773 Q156.806 877.667 152.801 877.667 Q150.926 877.667 149.051 878.083 Q147.199 878.5 145.255 879.38 L145.255 862.019 Z" fill="#000000" fill-rule="nonzero" fill-opacity="1" /><path clip-path="url(#clip650)" d="M185.37 865.097 Q181.759 865.097 179.931 868.662 Q178.125 872.204 178.125 879.333 Q178.125 886.44 179.931 890.005 Q181.759 893.546 185.37 893.546 Q189.005 893.546 190.81 890.005 Q192.639 886.44 192.639 879.333 Q192.639 872.204 190.81 868.662 Q189.005 865.097 185.37 865.097 M185.37 861.394 Q191.181 861.394 194.236 866 Q197.315 870.583 197.315 879.333 Q197.315 888.06 194.236 892.667 Q191.181 897.25 185.37 897.25 Q179.56 897.25 176.482 892.667 Q173.426 888.06 173.426 879.333 Q173.426 870.583 176.482 866 Q179.56 861.394 185.37 861.394 Z" fill="#000000" fill-rule="nonzero" fill-opacity="1" /><path clip-path="url(#clip650)" d="M233.704 871.116 L223.125 881.741 L233.704 892.319 L230.949 895.12 L220.324 884.495 L209.699 895.12 L206.968 892.319 L217.523 881.741 L206.968 871.116 L209.699 868.315 L220.324 878.94 L230.949 868.315 L233.704 871.116 Z" fill="#000000" fill-rule="nonzero" fill-opacity="1" /><path clip-path="url(#clip650)" d="M246.065 892.643 L253.703 892.643 L253.703 866.278 L245.393 867.944 L245.393 863.685 L253.657 862.019 L258.333 862.019 L258.333 892.643 L265.972 892.643 L265.972 896.579 L246.065 896.579 L246.065 892.643 Z" fill="#000000" fill-rule="nonzero" fill-opacity="1" /><path clip-path="url(#clip650)" d="M285.416 865.097 Q281.805 865.097 279.976 868.662 Q278.171 872.204 278.171 879.333 Q278.171 886.44 279.976 890.005 Q281.805 893.546 285.416 893.546 Q289.05 893.546 290.856 890.005 Q292.685 886.44 292.685 879.333 Q292.685 872.204 290.856 868.662 Q289.05 865.097 285.416 865.097 M285.416 861.394 Q291.226 861.394 294.282 866 Q297.361 870.583 297.361 879.333 Q297.361 888.06 294.282 892.667 Q291.226 897.25 285.416 897.25 Q279.606 897.25 276.527 892.667 Q273.472 888.06 273.472 879.333 Q273.472 870.583 276.527 866 Q279.606 861.394 285.416 861.394 Z" fill="#000000" fill-rule="nonzero" fill-opacity="1" /><path clip-path="url(#clip650)" d="M299.166 868.585 L299.166 865.125 Q300.596 865.802 302.063 866.159 Q303.53 866.516 304.94 866.516 Q308.702 866.516 310.676 863.996 Q312.67 861.457 312.952 856.304 Q311.861 857.921 310.187 858.786 Q308.514 859.651 306.482 859.651 Q302.269 859.651 299.806 857.112 Q297.361 854.555 297.361 850.135 Q297.361 845.809 299.918 843.195 Q302.476 840.58 306.727 840.58 Q311.598 840.58 314.156 844.323 Q316.733 848.047 316.733 855.156 Q316.733 861.796 313.573 865.764 Q310.432 869.714 305.109 869.714 Q303.68 869.714 302.213 869.431 Q300.746 869.149 299.166 868.585 M306.727 856.68 Q309.285 856.68 310.771 854.931 Q312.275 853.182 312.275 850.135 Q312.275 847.107 310.771 845.358 Q309.285 843.59 306.727 843.59 Q304.169 843.59 302.664 845.358 Q301.179 847.107 301.179 850.135 Q301.179 853.182 302.664 854.931 Q304.169 856.68 306.727 856.68 Z" fill="#000000" fill-rule="nonzero" fill-opacity="1" /><path clip-path="url(#clip650)" d="M104.005 638.258 L120.324 638.258 L120.324 642.193 L98.3802 642.193 L98.3802 638.258 Q101.042 635.503 105.625 630.874 Q110.232 626.221 111.412 624.878 Q113.658 622.355 114.537 620.619 Q115.44 618.86 115.44 617.17 Q115.44 614.415 113.496 612.679 Q111.575 610.943 108.473 610.943 Q106.274 610.943 103.82 611.707 Q101.389 612.471 98.6116 614.022 L98.6116 609.3 Q101.436 608.165 103.889 607.587 Q106.343 607.008 108.38 607.008 Q113.75 607.008 116.945 609.693 Q120.139 612.378 120.139 616.869 Q120.139 618.999 119.329 620.92 Q118.542 622.818 116.436 625.411 Q115.857 626.082 112.755 629.3 Q109.653 632.494 104.005 638.258 Z" fill="#000000" fill-rule="nonzero" fill-opacity="1" /><path clip-path="url(#clip650)" d="M130.139 636.313 L135.023 636.313 L135.023 642.193 L130.139 642.193 L130.139 636.313 Z" fill="#000000" fill-rule="nonzero" fill-opacity="1" /><path clip-path="url(#clip650)" d="M155.209 610.712 Q151.597 610.712 149.769 614.276 Q147.963 617.818 147.963 624.948 Q147.963 632.054 149.769 635.619 Q151.597 639.161 155.209 639.161 Q158.843 639.161 160.648 635.619 Q162.477 632.054 162.477 624.948 Q162.477 617.818 160.648 614.276 Q158.843 610.712 155.209 610.712 M155.209 607.008 Q161.019 607.008 164.074 611.614 Q167.153 616.198 167.153 624.948 Q167.153 633.675 164.074 638.281 Q161.019 642.864 155.209 642.864 Q149.398 642.864 146.32 638.281 Q143.264 633.675 143.264 624.948 Q143.264 616.198 146.32 611.614 Q149.398 607.008 155.209 607.008 Z" fill="#000000" fill-rule="nonzero" fill-opacity="1" /><path clip-path="url(#clip650)" d="M185.37 610.712 Q181.759 610.712 179.931 614.276 Q178.125 617.818 178.125 624.948 Q178.125 632.054 179.931 635.619 Q181.759 639.161 185.37 639.161 Q189.005 639.161 190.81 635.619 Q192.639 632.054 192.639 624.948 Q192.639 617.818 190.81 614.276 Q189.005 610.712 185.37 610.712 M185.37 607.008 Q191.181 607.008 194.236 611.614 Q197.315 616.198 197.315 624.948 Q197.315 633.675 194.236 638.281 Q191.181 642.864 185.37 642.864 Q179.56 642.864 176.482 638.281 Q173.426 633.675 173.426 624.948 Q173.426 616.198 176.482 611.614 Q179.56 607.008 185.37 607.008 Z" fill="#000000" fill-rule="nonzero" fill-opacity="1" /><path clip-path="url(#clip650)" d="M233.704 616.73 L223.125 627.355 L233.704 637.934 L230.949 640.735 L220.324 630.11 L209.699 640.735 L206.968 637.934 L217.523 627.355 L206.968 616.73 L209.699 613.929 L220.324 624.554 L230.949 613.929 L233.704 616.73 Z" fill="#000000" fill-rule="nonzero" fill-opacity="1" /><path clip-path="url(#clip650)" d="M246.065 638.258 L253.703 638.258 L253.703 611.892 L245.393 613.559 L245.393 609.3 L253.657 607.633 L258.333 607.633 L258.333 638.258 L265.972 638.258 L265.972 642.193 L246.065 642.193 L246.065 638.258 Z" fill="#000000" fill-rule="nonzero" fill-opacity="1" /><path clip-path="url(#clip650)" d="M285.416 610.712 Q281.805 610.712 279.976 614.276 Q278.171 617.818 278.171 624.948 Q278.171 632.054 279.976 635.619 Q281.805 639.161 285.416 639.161 Q289.05 639.161 290.856 635.619 Q292.685 632.054 292.685 624.948 Q292.685 617.818 290.856 614.276 Q289.05 610.712 285.416 610.712 M285.416 607.008 Q291.226 607.008 294.282 611.614 Q297.361 616.198 297.361 624.948 Q297.361 633.675 294.282 638.281 Q291.226 642.864 285.416 642.864 Q279.606 642.864 276.527 638.281 Q273.472 633.675 273.472 624.948 Q273.472 616.198 276.527 611.614 Q279.606 607.008 285.416 607.008 Z" fill="#000000" fill-rule="nonzero" fill-opacity="1" /><path clip-path="url(#clip650)" d="M299.166 614.2 L299.166 610.739 Q300.596 611.416 302.063 611.773 Q303.53 612.131 304.94 612.131 Q308.702 612.131 310.676 609.61 Q312.67 607.071 312.952 601.918 Q311.861 603.536 310.187 604.401 Q308.514 605.266 306.482 605.266 Q302.269 605.266 299.806 602.727 Q297.361 600.169 297.361 595.749 Q297.361 591.423 299.918 588.809 Q302.476 586.195 306.727 586.195 Q311.598 586.195 314.156 589.938 Q316.733 593.661 316.733 600.771 Q316.733 607.41 313.573 611.378 Q310.432 615.328 305.109 615.328 Q303.68 615.328 302.213 615.046 Q300.746 614.764 299.166 614.2 M306.727 602.294 Q309.285 602.294 310.771 600.545 Q312.275 598.796 312.275 595.749 Q312.275 592.721 310.771 590.972 Q309.285 589.204 306.727 589.204 Q304.169 589.204 302.664 590.972 Q301.179 592.721 301.179 595.749 Q301.179 598.796 302.664 600.545 Q304.169 602.294 306.727 602.294 Z" fill="#000000" fill-rule="nonzero" fill-opacity="1" /><path clip-path="url(#clip650)" d="M104.005 383.872 L120.324 383.872 L120.324 387.807 L98.3802 387.807 L98.3802 383.872 Q101.042 381.118 105.625 376.488 Q110.232 371.835 111.412 370.493 Q113.658 367.97 114.537 366.233 Q115.44 364.474 115.44 362.784 Q115.44 360.03 113.496 358.294 Q111.575 356.558 108.473 356.558 Q106.274 356.558 103.82 357.321 Q101.389 358.085 98.6116 359.636 L98.6116 354.914 Q101.436 353.78 103.889 353.201 Q106.343 352.622 108.38 352.622 Q113.75 352.622 116.945 355.308 Q120.139 357.993 120.139 362.483 Q120.139 364.613 119.329 366.534 Q118.542 368.432 116.436 371.025 Q115.857 371.696 112.755 374.914 Q109.653 378.108 104.005 383.872 Z" fill="#000000" fill-rule="nonzero" fill-opacity="1" /><path clip-path="url(#clip650)" d="M130.139 381.928 L135.023 381.928 L135.023 387.807 L130.139 387.807 L130.139 381.928 Z" fill="#000000" fill-rule="nonzero" fill-opacity="1" /><path clip-path="url(#clip650)" d="M145.255 353.247 L163.611 353.247 L163.611 357.183 L149.537 357.183 L149.537 365.655 Q150.556 365.307 151.574 365.145 Q152.593 364.96 153.611 364.96 Q159.398 364.96 162.778 368.132 Q166.158 371.303 166.158 376.719 Q166.158 382.298 162.685 385.4 Q159.213 388.479 152.894 388.479 Q150.718 388.479 148.449 388.108 Q146.204 387.738 143.797 386.997 L143.797 382.298 Q145.88 383.432 148.102 383.988 Q150.324 384.543 152.801 384.543 Q156.806 384.543 159.144 382.437 Q161.482 380.331 161.482 376.719 Q161.482 373.108 159.144 371.002 Q156.806 368.895 152.801 368.895 Q150.926 368.895 149.051 369.312 Q147.199 369.729 145.255 370.608 L145.255 353.247 Z" fill="#000000" fill-rule="nonzero" fill-opacity="1" /><path clip-path="url(#clip650)" d="M185.37 356.326 Q181.759 356.326 179.931 359.891 Q178.125 363.432 178.125 370.562 Q178.125 377.669 179.931 381.233 Q181.759 384.775 185.37 384.775 Q189.005 384.775 190.81 381.233 Q192.639 377.669 192.639 370.562 Q192.639 363.432 190.81 359.891 Q189.005 356.326 185.37 356.326 M185.37 352.622 Q191.181 352.622 194.236 357.229 Q197.315 361.812 197.315 370.562 Q197.315 379.289 194.236 383.895 Q191.181 388.479 185.37 388.479 Q179.56 388.479 176.482 383.895 Q173.426 379.289 173.426 370.562 Q173.426 361.812 176.482 357.229 Q179.56 352.622 185.37 352.622 Z" fill="#000000" fill-rule="nonzero" fill-opacity="1" /><path clip-path="url(#clip650)" d="M233.704 362.345 L223.125 372.969 L233.704 383.548 L230.949 386.349 L220.324 375.724 L209.699 386.349 L206.968 383.548 L217.523 372.969 L206.968 362.345 L209.699 359.544 L220.324 370.169 L230.949 359.544 L233.704 362.345 Z" fill="#000000" fill-rule="nonzero" fill-opacity="1" /><path clip-path="url(#clip650)" d="M246.065 383.872 L253.703 383.872 L253.703 357.507 L245.393 359.173 L245.393 354.914 L253.657 353.247 L258.333 353.247 L258.333 383.872 L265.972 383.872 L265.972 387.807 L246.065 387.807 L246.065 383.872 Z" fill="#000000" fill-rule="nonzero" fill-opacity="1" /><path clip-path="url(#clip650)" d="M285.416 356.326 Q281.805 356.326 279.976 359.891 Q278.171 363.432 278.171 370.562 Q278.171 377.669 279.976 381.233 Q281.805 384.775 285.416 384.775 Q289.05 384.775 290.856 381.233 Q292.685 377.669 292.685 370.562 Q292.685 363.432 290.856 359.891 Q289.05 356.326 285.416 356.326 M285.416 352.622 Q291.226 352.622 294.282 357.229 Q297.361 361.812 297.361 370.562 Q297.361 379.289 294.282 383.895 Q291.226 388.479 285.416 388.479 Q279.606 388.479 276.527 383.895 Q273.472 379.289 273.472 370.562 Q273.472 361.812 276.527 357.229 Q279.606 352.622 285.416 352.622 Z" fill="#000000" fill-rule="nonzero" fill-opacity="1" /><path clip-path="url(#clip650)" d="M299.166 359.814 L299.166 356.353 Q300.596 357.03 302.063 357.388 Q303.53 357.745 304.94 357.745 Q308.702 357.745 310.676 355.225 Q312.67 352.686 312.952 347.532 Q311.861 349.15 310.187 350.015 Q308.514 350.88 306.482 350.88 Q302.269 350.88 299.806 348.341 Q297.361 345.783 297.361 341.364 Q297.361 337.038 299.918 334.423 Q302.476 331.809 306.727 331.809 Q311.598 331.809 314.156 335.552 Q316.733 339.276 316.733 346.385 Q316.733 353.024 313.573 356.993 Q310.432 360.942 305.109 360.942 Q303.68 360.942 302.213 360.66 Q300.746 360.378 299.166 359.814 M306.727 347.909 Q309.285 347.909 310.771 346.159 Q312.275 344.41 312.275 341.364 Q312.275 338.335 310.771 336.586 Q309.285 334.818 306.727 334.818 Q304.169 334.818 302.664 336.586 Q301.179 338.335 301.179 341.364 Q301.179 344.41 302.664 346.159 Q304.169 347.909 306.727 347.909 Z" fill="#000000" fill-rule="nonzero" fill-opacity="1" /><path clip-path="url(#clip650)" d="M114.144 114.788 Q117.5 115.505 119.375 117.774 Q121.274 120.042 121.274 123.376 Q121.274 128.491 117.755 131.292 Q114.237 134.093 107.755 134.093 Q105.579 134.093 103.264 133.653 Q100.973 133.237 98.519 132.38 L98.519 127.866 Q100.463 129 102.778 129.579 Q105.093 130.158 107.616 130.158 Q112.014 130.158 114.306 128.422 Q116.621 126.686 116.621 123.376 Q116.621 120.32 114.468 118.607 Q112.338 116.871 108.519 116.871 L104.491 116.871 L104.491 113.028 L108.704 113.028 Q112.153 113.028 113.982 111.663 Q115.811 110.274 115.811 107.681 Q115.811 105.019 113.912 103.607 Q112.037 102.172 108.519 102.172 Q106.598 102.172 104.399 102.589 Q102.2 103.005 99.5607 103.885 L99.5607 99.7182 Q102.223 98.9775 104.538 98.6071 Q106.875 98.2368 108.936 98.2368 Q114.26 98.2368 117.362 100.667 Q120.463 103.075 120.463 107.195 Q120.463 110.065 118.82 112.056 Q117.176 114.024 114.144 114.788 Z" fill="#000000" fill-rule="nonzero" fill-opacity="1" /><path clip-path="url(#clip650)" d="M130.139 127.542 L135.023 127.542 L135.023 133.422 L130.139 133.422 L130.139 127.542 Z" fill="#000000" fill-rule="nonzero" fill-opacity="1" /><path clip-path="url(#clip650)" d="M155.209 101.94 Q151.597 101.94 149.769 105.505 Q147.963 109.047 147.963 116.176 Q147.963 123.283 149.769 126.848 Q151.597 130.389 155.209 130.389 Q158.843 130.389 160.648 126.848 Q162.477 123.283 162.477 116.176 Q162.477 109.047 160.648 105.505 Q158.843 101.94 155.209 101.94 M155.209 98.2368 Q161.019 98.2368 164.074 102.843 Q167.153 107.427 167.153 116.176 Q167.153 124.903 164.074 129.51 Q161.019 134.093 155.209 134.093 Q149.398 134.093 146.32 129.51 Q143.264 124.903 143.264 116.176 Q143.264 107.427 146.32 102.843 Q149.398 98.2368 155.209 98.2368 Z" fill="#000000" fill-rule="nonzero" fill-opacity="1" /><path clip-path="url(#clip650)" d="M185.37 101.94 Q181.759 101.94 179.931 105.505 Q178.125 109.047 178.125 116.176 Q178.125 123.283 179.931 126.848 Q181.759 130.389 185.37 130.389 Q189.005 130.389 190.81 126.848 Q192.639 123.283 192.639 116.176 Q192.639 109.047 190.81 105.505 Q189.005 101.94 185.37 101.94 M185.37 98.2368 Q191.181 98.2368 194.236 102.843 Q197.315 107.427 197.315 116.176 Q197.315 124.903 194.236 129.51 Q191.181 134.093 185.37 134.093 Q179.56 134.093 176.482 129.51 Q173.426 124.903 173.426 116.176 Q173.426 107.427 176.482 102.843 Q179.56 98.2368 185.37 98.2368 Z" fill="#000000" fill-rule="nonzero" fill-opacity="1" /><path clip-path="url(#clip650)" d="M233.704 107.959 L223.125 118.584 L233.704 129.163 L230.949 131.963 L220.324 121.338 L209.699 131.963 L206.968 129.163 L217.523 118.584 L206.968 107.959 L209.699 105.158 L220.324 115.783 L230.949 105.158 L233.704 107.959 Z" fill="#000000" fill-rule="nonzero" fill-opacity="1" /><path clip-path="url(#clip650)" d="M246.065 129.487 L253.703 129.487 L253.703 103.121 L245.393 104.788 L245.393 100.528 L253.657 98.8618 L258.333 98.8618 L258.333 129.487 L265.972 129.487 L265.972 133.422 L246.065 133.422 L246.065 129.487 Z" fill="#000000" fill-rule="nonzero" fill-opacity="1" /><path clip-path="url(#clip650)" d="M285.416 101.94 Q281.805 101.94 279.976 105.505 Q278.171 109.047 278.171 116.176 Q278.171 123.283 279.976 126.848 Q281.805 130.389 285.416 130.389 Q289.05 130.389 290.856 126.848 Q292.685 123.283 292.685 116.176 Q292.685 109.047 290.856 105.505 Q289.05 101.94 285.416 101.94 M285.416 98.2368 Q291.226 98.2368 294.282 102.843 Q297.361 107.427 297.361 116.176 Q297.361 124.903 294.282 129.51 Q291.226 134.093 285.416 134.093 Q279.606 134.093 276.527 129.51 Q273.472 124.903 273.472 116.176 Q273.472 107.427 276.527 102.843 Q279.606 98.2368 285.416 98.2368 Z" fill="#000000" fill-rule="nonzero" fill-opacity="1" /><path clip-path="url(#clip650)" d="M299.166 105.428 L299.166 101.968 Q300.596 102.645 302.063 103.002 Q303.53 103.359 304.94 103.359 Q308.702 103.359 310.676 100.839 Q312.67 98.3002 312.952 93.1468 Q311.861 94.7643 310.187 95.6295 Q308.514 96.4946 306.482 96.4946 Q302.269 96.4946 299.806 93.9556 Q297.361 91.3977 297.361 86.9779 Q297.361 82.6521 299.918 80.0378 Q302.476 77.4235 306.727 77.4235 Q311.598 77.4235 314.156 81.1663 Q316.733 84.8902 316.733 91.9996 Q316.733 98.6387 313.573 102.607 Q310.432 106.557 305.109 106.557 Q303.68 106.557 302.213 106.275 Q300.746 105.993 299.166 105.428 M306.727 93.523 Q309.285 93.523 310.771 91.7739 Q312.275 90.0248 312.275 86.9779 Q312.275 83.9498 310.771 82.2007 Q309.285 80.4328 306.727 80.4328 Q304.169 80.4328 302.664 82.2007 Q301.179 83.9498 301.179 86.9779 Q301.179 90.0248 302.664 91.7739 Q304.169 93.523 306.727 93.523 Z" fill="#000000" fill-rule="nonzero" fill-opacity="1" /><path clip-path="url(#clip650)" d="M-9.64527 840.632 L0.4762 840.632 L0.4762 828.569 L5.02768 828.569 L5.02768 840.632 L24.3794 840.632 Q28.7399 840.632 29.9813 839.454 Q31.2226 838.245 31.2226 834.584 L31.2226 828.569 L36.1242 828.569 L36.1242 834.584 Q36.1242 841.364 33.6097 843.942 Q31.0634 846.52 24.3794 846.52 L5.02768 846.52 L5.02768 850.817 L0.4762 850.817 L0.4762 846.52 L-9.64527 846.52 L-9.64527 840.632 Z" fill="#000000" fill-rule="nonzero" fill-opacity="1" /><path clip-path="url(#clip650)" d="M-11.3958 789.738 L-11.3958 784.327 L42.1716 800.878 L42.1716 806.289 L-11.3958 789.738 Z" fill="#000000" fill-rule="nonzero" fill-opacity="1" /><path clip-path="url(#clip650)" d="M14.6081 727.831 L36.1242 727.831 L36.1242 733.688 L14.799 733.688 Q9.7383 733.688 7.22385 735.661 Q4.7094 737.635 4.7094 741.581 Q4.7094 746.324 7.73311 749.061 Q10.7568 751.798 15.9767 751.798 L36.1242 751.798 L36.1242 757.687 L0.4762 757.687 L0.4762 751.798 L6.01437 751.798 Q2.79968 749.698 1.20826 746.865 Q-0.38317 744 -0.38317 740.276 Q-0.38317 734.133 3.43625 730.982 Q7.22385 727.831 14.6081 727.831 Z" fill="#000000" fill-rule="nonzero" fill-opacity="1" /><path clip-path="url(#clip650)" d="M1.52654 693.425 L7.06471 693.425 Q5.79157 695.907 5.15499 698.581 Q4.51842 701.255 4.51842 704.119 Q4.51842 708.48 5.85522 710.676 Q7.19202 712.84 9.86562 712.84 Q11.9026 712.84 13.0803 711.281 Q14.2261 709.721 15.2765 705.01 L15.7221 703.005 Q17.0589 696.767 19.5097 694.157 Q21.9286 691.515 26.2891 691.515 Q31.2544 691.515 34.1508 695.462 Q37.0472 699.377 37.0472 706.252 Q37.0472 709.116 36.4743 712.235 Q35.9332 715.323 34.8192 718.76 L28.7718 718.76 Q30.4587 715.514 31.318 712.363 Q32.1456 709.212 32.1456 706.124 Q32.1456 701.987 30.7451 699.759 Q29.3129 697.531 26.7347 697.531 Q24.3476 697.531 23.0745 699.154 Q21.8013 700.745 20.6237 706.188 L20.1462 708.225 Q19.0004 713.668 16.6451 716.087 Q14.258 718.506 10.1202 718.506 Q5.09134 718.506 2.35408 714.941 Q-0.38317 711.376 -0.38317 704.819 Q-0.38317 701.573 0.0942579 698.708 Q0.571686 695.844 1.52654 693.425 Z" fill="#000000" fill-rule="nonzero" fill-opacity="1" /><path clip-path="url(#clip651)" d="M1007.77 1454.11 L1015.97 1453.99 L1022.14 1453.88 L1026.21 1453.76 L1028.13 1453.64 L1027.96 1453.53 L1025.78 1453.41 L1021.76 1453.29 L1016.09 1453.17 L1009.01 1453.06 L1000.77 1452.94 L991.637 1452.82 L981.884 1452.71 L971.761 1452.59 L961.496 1452.47 L951.284 1452.36 L941.281 1452.24 L931.599 1452.12 L922.309 1452 L913.442 1451.89 L904.992 1451.77 L896.924 1451.65 L889.181 1451.54 L881.694 1451.42 L874.387 1451.3 L867.189 1451.19 L860.036 1451.07 L852.88 1450.95 L845.69 1450.83 L838.455 1450.72 L831.182 1450.6 L823.898 1450.48 L816.645 1450.37 L809.474 1450.25 L802.447 1450.13 L795.626 1450.01 L789.074 1449.9 L782.848 1449.78 L776.997 1449.66 L771.562 1449.55 L766.571 1449.43 L762.041 1449.31 L757.976 1449.2 L754.371 1449.08 L751.21 1448.96 L748.471 1448.84 L746.124 1448.73 L744.136 1448.61 L742.471 1448.49 L741.092 1448.38 L739.962 1448.26 L739.047 1448.14 L738.313 1448.03 L737.732 1447.91 L737.276 1447.79 L736.923 1447.67 L736.652 1447.56 L736.446 1447.44 L736.291 1447.32 L736.177 1447.21 L736.092 1447.09 L736.031 1446.97 L735.986 1446.86 L735.955 1446.74 L735.933 1446.62 L735.917 1446.5 L735.907 1446.39 L735.899 1446.27 L735.895 1446.15 L735.892 1446.04 L735.89 1445.92 L735.89 1445.8 L735.89 1445.68 L735.892 1445.57 L735.895 1445.45 L735.9 1445.33 L735.907 1445.22 L735.918 1445.1 L735.933 1444.98 L735.956 1444.87 L735.987 1444.75 L736.032 1444.63 L736.094 1444.51 L736.179 1444.4 L736.294 1444.28 L736.45 1444.16 L736.657 1444.05 L736.929 1443.93 L737.284 1443.81 L737.741 1443.7 L738.324 1443.58 L739.058 1443.46 L739.973 1443.34 L741.102 1443.23 L742.476 1443.11 L744.133 1442.99 L746.106 1442.88 L748.428 1442.76 L751.128 1442.64 L754.23 1442.52 L757.749 1442.41 L761.691 1442.29 L766.048 1442.17 L770.799 1442.06 L775.906 1441.94 L781.317 1441.82 L786.958 1441.71 L792.744 1441.59 L798.571 1441.47 L804.326 1441.35 L809.885 1441.24 L815.12 1441.12 L819.903 1441 L824.112 1440.89 L827.633 1440.77 L830.37 1440.65 L832.245 1440.54 L833.206 1440.42 L638.563 1440.42 L639.524 1440.54 L641.399 1440.65 L644.136 1440.77 L647.657 1440.89 L651.866 1441 L656.649 1441.12 L661.884 1441.24 L667.443 1441.35 L673.198 1441.47 L679.025 1441.59 L684.811 1441.71 L690.453 1441.82 L695.863 1441.94 L700.97 1442.06 L705.721 1442.17 L710.078 1442.29 L714.02 1442.41 L717.539 1442.52 L720.641 1442.64 L723.341 1442.76 L725.663 1442.88 L727.636 1442.99 L729.293 1443.11 L730.668 1443.23 L731.796 1443.34 L732.711 1443.46 L733.445 1443.58 L734.028 1443.7 L734.485 1443.81 L734.84 1443.93 L735.112 1444.05 L735.319 1444.16 L735.475 1444.28 L735.59 1444.4 L735.675 1444.51 L735.737 1444.63 L735.782 1444.75 L735.814 1444.87 L735.836 1444.98 L735.852 1445.1 L735.862 1445.22 L735.87 1445.33 L735.874 1445.45 L735.877 1445.57 L735.879 1445.68 L735.879 1445.8 L735.879 1445.92 L735.877 1446.04 L735.874 1446.15 L735.87 1446.27 L735.862 1446.39 L735.852 1446.5 L735.836 1446.62 L735.814 1446.74 L735.783 1446.86 L735.738 1446.97 L735.677 1447.09 L735.592 1447.21 L735.478 1447.32 L735.323 1447.44 L735.117 1447.56 L734.846 1447.67 L734.493 1447.79 L734.037 1447.91 L733.456 1448.03 L732.723 1448.14 L731.807 1448.26 L730.677 1448.38 L729.298 1448.49 L727.633 1448.61 L725.645 1448.73 L723.298 1448.84 L720.559 1448.96 L717.398 1449.08 L713.793 1449.2 L709.729 1449.31 L705.198 1449.43 L700.207 1449.55 L694.772 1449.66 L688.921 1449.78 L682.695 1449.9 L676.143 1450.01 L669.322 1450.13 L662.295 1450.25 L655.124 1450.37 L647.871 1450.48 L640.587 1450.6 L633.314 1450.72 L626.079 1450.83 L618.889 1450.95 L611.733 1451.07 L604.58 1451.19 L597.382 1451.3 L590.075 1451.42 L582.588 1451.54 L574.845 1451.65 L566.777 1451.77 L558.327 1451.89 L549.46 1452 L540.17 1452.12 L530.488 1452.24 L520.485 1452.36 L510.273 1452.47 L500.008 1452.59 L489.885 1452.71 L480.132 1452.82 L471.002 1452.94 L462.76 1453.06 L455.675 1453.17 L450.006 1453.29 L445.985 1453.41 L443.812 1453.53 L443.639 1453.64 L445.563 1453.76 L449.625 1453.88 L455.799 1453.99 L464.002 1454.11 L1007.77 1454.11  Z" fill="#009af9" fill-rule="evenodd" fill-opacity="1"/>
<polyline clip-path="url(#clip651)" style="stroke:#000000; stroke-linecap:round; stroke-linejoin:round; stroke-width:4; stroke-opacity:1; fill:none" points="1007.77,1454.11 1015.97,1453.99 1022.14,1453.88 1026.21,1453.76 1028.13,1453.64 1027.96,1453.53 1025.78,1453.41 1021.76,1453.29 1016.09,1453.17 1009.01,1453.06 1000.77,1452.94 991.637,1452.82 981.884,1452.71 971.761,1452.59 961.496,1452.47 951.284,1452.36 941.281,1452.24 931.599,1452.12 922.309,1452 913.442,1451.89 904.992,1451.77 896.924,1451.65 889.181,1451.54 881.694,1451.42 874.387,1451.3 867.189,1451.19 860.036,1451.07 852.88,1450.95 845.69,1450.83 838.455,1450.72 831.182,1450.6 823.898,1450.48 816.645,1450.37 809.474,1450.25 802.447,1450.13 795.626,1450.01 789.074,1449.9 782.848,1449.78 776.997,1449.66 771.562,1449.55 766.571,1449.43 762.041,1449.31 757.976,1449.2 754.371,1449.08 751.21,1448.96 748.471,1448.84 746.124,1448.73 744.136,1448.61 742.471,1448.49 741.092,1448.38 739.962,1448.26 739.047,1448.14 738.313,1448.03 737.732,1447.91 737.276,1447.79 736.923,1447.67 736.652,1447.56 736.446,1447.44 736.291,1447.32 736.177,1447.21 736.092,1447.09 736.031,1446.97 735.986,1446.86 735.955,1446.74 735.933,1446.62 735.917,1446.5 735.907,1446.39 735.899,1446.27 735.895,1446.15 735.892,1446.04 735.89,1445.92 735.89,1445.8 735.89,1445.68 735.892,1445.57 735.895,1445.45 735.9,1445.33 735.907,1445.22 735.918,1445.1 735.933,1444.98 735.956,1444.87 735.987,1444.75 736.032,1444.63 736.094,1444.51 736.179,1444.4 736.294,1444.28 736.45,1444.16 736.657,1444.05 736.929,1443.93 737.284,1443.81 737.741,1443.7 738.324,1443.58 739.058,1443.46 739.973,1443.34 741.102,1443.23 742.476,1443.11 744.133,1442.99 746.106,1442.88 748.428,1442.76 751.128,1442.64 754.23,1442.52 757.749,1442.41 761.691,1442.29 766.048,1442.17 770.799,1442.06 775.906,1441.94 781.317,1441.82 786.958,1441.71 792.744,1441.59 798.571,1441.47 804.326,1441.35 809.885,1441.24 815.12,1441.12 819.903,1441 824.112,1440.89 827.633,1440.77 830.37,1440.65 832.245,1440.54 833.206,1440.42 638.563,1440.42 639.524,1440.54 641.399,1440.65 644.136,1440.77 647.657,1440.89 651.866,1441 656.649,1441.12 661.884,1441.24 667.443,1441.35 673.198,1441.47 679.025,1441.59 684.811,1441.71 690.453,1441.82 695.863,1441.94 700.97,1442.06 705.721,1442.17 710.078,1442.29 714.02,1442.41 717.539,1442.52 720.641,1442.64 723.341,1442.76 725.663,1442.88 727.636,1442.99 729.293,1443.11 730.668,1443.23 731.796,1443.34 732.711,1443.46 733.445,1443.58 734.028,1443.7 734.485,1443.81 734.84,1443.93 735.112,1444.05 735.319,1444.16 735.475,1444.28 735.59,1444.4 735.675,1444.51 735.737,1444.63 735.782,1444.75 735.814,1444.87 735.836,1444.98 735.852,1445.1 735.862,1445.22 735.87,1445.33 735.874,1445.45 735.877,1445.57 735.879,1445.68 735.879,1445.8 735.879,1445.92 735.877,1446.04 735.874,1446.15 735.87,1446.27 735.862,1446.39 735.852,1446.5 735.836,1446.62 735.814,1446.74 735.783,1446.86 735.738,1446.97 735.677,1447.09 735.592,1447.21 735.478,1447.32 735.323,1447.44 735.117,1447.56 734.846,1447.67 734.493,1447.79 734.037,1447.91 733.456,1448.03 732.723,1448.14 731.807,1448.26 730.677,1448.38 729.298,1448.49 727.633,1448.61 725.645,1448.73 723.298,1448.84 720.559,1448.96 717.398,1449.08 713.793,1449.2 709.729,1449.31 705.198,1449.43 700.207,1449.55 694.772,1449.66 688.921,1449.78 682.695,1449.9 676.143,1450.01 669.322,1450.13 662.295,1450.25 655.124,1450.37 647.871,1450.48 640.587,1450.6 633.314,1450.72 626.079,1450.83 618.889,1450.95 611.733,1451.07 604.58,1451.19 597.382,1451.3 590.075,1451.42 582.588,1451.54 574.845,1451.65 566.777,1451.77 558.327,1451.89 549.46,1452 540.17,1452.12 530.488,1452.24 520.485,1452.36 510.273,1452.47 500.008,1452.59 489.885,1452.71 480.132,1452.82 471.002,1452.94 462.76,1453.06 455.675,1453.17 450.006,1453.29 445.985,1453.41 443.812,1453.53 443.639,1453.64 445.563,1453.76 449.625,1453.88 455.799,1453.99 464.002,1454.11 1007.77,1454.11 "/>
<path clip-path="url(#clip651)" d="M1999.51 434.248 L2006.12 433.239 L2012.36 432.229 L2018.19 431.22 L2023.58 430.211 L2028.53 429.201 L2033 428.192 L2036.99 427.182 L2040.48 426.173 L2043.47 425.164 L2045.95 424.154 L2047.93 423.145 L2049.41 422.135 L2050.4 421.126 L2050.92 420.116 L2050.99 419.107 L2050.63 418.098 L2049.87 417.088 L2048.74 416.079 L2047.27 415.069 L2045.51 414.06 L2043.49 413.051 L2041.25 412.041 L2038.84 411.032 L2036.31 410.022 L2033.69 409.013 L2031.03 408.003 L2028.39 406.994 L2025.79 405.985 L2023.28 404.975 L2020.91 403.966 L2018.69 402.956 L2016.67 401.947 L2014.87 400.937 L2013.3 399.928 L2011.99 398.919 L2010.95 397.909 L2010.17 396.9 L2009.65 395.89 L2009.39 394.881 L2009.36 393.872 L2009.55 392.862 L2009.93 391.853 L2010.46 390.843 L2011.11 389.834 L2011.83 388.824 L2012.58 387.815 L2013.31 386.806 L2013.98 385.796 L2014.52 384.787 L2014.89 383.777 L2015.03 382.768 L2014.91 381.758 L2014.46 380.749 L2013.66 379.74 L2012.46 378.73 L2010.83 377.721 L2008.75 376.711 L2006.18 375.702 L2003.12 374.693 L1514.37 374.693 L1511.31 375.702 L1508.74 376.711 L1506.65 377.721 L1505.03 378.73 L1503.83 379.74 L1503.02 380.749 L1502.58 381.758 L1502.46 382.768 L1502.6 383.777 L1502.97 384.787 L1503.51 385.796 L1504.17 386.806 L1504.91 387.815 L1505.66 388.824 L1506.38 389.834 L1507.03 390.843 L1507.56 391.853 L1507.94 392.862 L1508.13 393.872 L1508.1 394.881 L1507.84 395.89 L1507.32 396.9 L1506.54 397.909 L1505.49 398.919 L1504.18 399.928 L1502.62 400.937 L1500.82 401.947 L1498.8 402.956 L1496.58 403.966 L1494.2 404.975 L1491.7 405.985 L1489.1 406.994 L1486.45 408.003 L1483.8 409.013 L1481.18 410.022 L1478.65 411.032 L1476.24 412.041 L1474 413.051 L1471.98 414.06 L1470.22 415.069 L1468.75 416.079 L1467.62 417.088 L1466.86 418.098 L1466.5 419.107 L1466.57 420.116 L1467.09 421.126 L1468.08 422.135 L1469.56 423.145 L1471.54 424.154 L1474.02 425.164 L1477 426.173 L1480.5 427.182 L1484.48 428.192 L1488.96 429.201 L1493.9 430.211 L1499.3 431.22 L1505.13 432.229 L1511.37 433.239 L1517.98 434.248 L1999.51 434.248  Z" fill="#e26f46" fill-rule="evenodd" fill-opacity="1"/>
<polyline clip-path="url(#clip651)" style="stroke:#000000; stroke-linecap:round; stroke-linejoin:round; stroke-width:4; stroke-opacity:1; fill:none" points="1999.51,434.248 2006.12,433.239 2012.36,432.229 2018.19,431.22 2023.58,430.211 2028.53,429.201 2033,428.192 2036.99,427.182 2040.48,426.173 2043.47,425.164 2045.95,424.154 2047.93,423.145 2049.41,422.135 2050.4,421.126 2050.92,420.116 2050.99,419.107 2050.63,418.098 2049.87,417.088 2048.74,416.079 2047.27,415.069 2045.51,414.06 2043.49,413.051 2041.25,412.041 2038.84,411.032 2036.31,410.022 2033.69,409.013 2031.03,408.003 2028.39,406.994 2025.79,405.985 2023.28,404.975 2020.91,403.966 2018.69,402.956 2016.67,401.947 2014.87,400.937 2013.3,399.928 2011.99,398.919 2010.95,397.909 2010.17,396.9 2009.65,395.89 2009.39,394.881 2009.36,393.872 2009.55,392.862 2009.93,391.853 2010.46,390.843 2011.11,389.834 2011.83,388.824 2012.58,387.815 2013.31,386.806 2013.98,385.796 2014.52,384.787 2014.89,383.777 2015.03,382.768 2014.91,381.758 2014.46,380.749 2013.66,379.74 2012.46,378.73 2010.83,377.721 2008.75,376.711 2006.18,375.702 2003.12,374.693 1514.37,374.693 1511.31,375.702 1508.74,376.711 1506.65,377.721 1505.03,378.73 1503.83,379.74 1503.02,380.749 1502.58,381.758 1502.46,382.768 1502.6,383.777 1502.97,384.787 1503.51,385.796 1504.17,386.806 1504.91,387.815 1505.66,388.824 1506.38,389.834 1507.03,390.843 1507.56,391.853 1507.94,392.862 1508.13,393.872 1508.1,394.881 1507.84,395.89 1507.32,396.9 1506.54,397.909 1505.49,398.919 1504.18,399.928 1502.62,400.937 1500.82,401.947 1498.8,402.956 1496.58,403.966 1494.2,404.975 1491.7,405.985 1489.1,406.994 1486.45,408.003 1483.8,409.013 1481.18,410.022 1478.65,411.032 1476.24,412.041 1474,413.051 1471.98,414.06 1470.22,415.069 1468.75,416.079 1467.62,417.088 1466.86,418.098 1466.5,419.107 1466.57,420.116 1467.09,421.126 1468.08,422.135 1469.56,423.145 1471.54,424.154 1474.02,425.164 1477,426.173 1480.5,427.182 1484.48,428.192 1488.96,429.201 1493.9,430.211 1499.3,431.22 1505.13,432.229 1511.37,433.239 1517.98,434.248 1999.51,434.248 "/>
<path clip-path="url(#clip651)" d="M2945.78 198.035 L2949.31 196.926 L2952.4 195.817 L2955.08 194.708 L2957.37 193.598 L2959.33 192.489 L2961.01 191.38 L2962.45 190.271 L2963.7 189.162 L2964.8 188.052 L2965.81 186.943 L2966.77 185.834 L2967.7 184.725 L2968.63 183.615 L2969.6 182.506 L2970.61 181.397 L2971.69 180.288 L2972.85 179.178 L2974.12 178.069 L2975.5 176.96 L2977.02 175.851 L2978.71 174.741 L2980.58 173.632 L2982.67 172.523 L2985.02 171.414 L2987.66 170.304 L2990.63 169.195 L2993.95 168.086 L2997.65 166.977 L3001.75 165.868 L3006.26 164.758 L3011.16 163.649 L3016.42 162.54 L3022 161.431 L3027.84 160.321 L3033.84 159.212 L3039.9 158.103 L3045.9 156.994 L3051.69 155.884 L3057.14 154.775 L3062.08 153.666 L3066.35 152.557 L3069.8 151.447 L3072.28 150.338 L3073.67 149.229 L3073.85 148.12 L3072.73 147.01 L3070.26 145.901 L3066.39 144.792 L3061.14 143.683 L3054.52 142.574 L3046.61 141.464 L3037.48 140.355 L3027.27 139.246 L3016.09 138.137 L3004.12 137.027 L2991.52 135.918 L2978.46 134.809 L2965.12 133.7 L2951.69 132.59 L2938.33 131.481 L2925.22 130.372 L2912.49 129.263 L2900.3 128.153 L2888.75 127.044 L2877.94 125.935 L2867.98 124.826 L2858.91 123.716 L2850.8 122.607 L2843.67 121.498 L2837.55 120.389 L2832.45 119.279 L2828.36 118.17 L2825.27 117.061 L2823.16 115.952 L2822.01 114.843 L2821.79 113.733 L2822.44 112.624 L2823.94 111.515 L2826.24 110.406 L2829.27 109.296 L2832.98 108.187 L2837.3 107.078 L2842.17 105.969 L2847.5 104.859 L2853.21 103.75 L2859.21 102.641 L2865.4 101.532 L2871.67 100.422 L2877.93 99.3132 L2884.06 98.204 L2889.95 97.0947 L2895.51 95.9855 L2900.61 94.8762 L2905.18 93.767 L2909.11 92.6578 L2912.33 91.5485 L2914.79 90.4393 L2916.41 89.33 L2917.19 88.2208 L2646.02 88.2208 L2646.79 89.33 L2648.42 90.4393 L2650.87 91.5485 L2654.1 92.6578 L2658.03 93.767 L2662.6 94.8762 L2667.7 95.9855 L2673.26 97.0947 L2679.15 98.204 L2685.28 99.3132 L2691.54 100.422 L2697.81 101.532 L2704 102.641 L2710 103.75 L2715.71 104.859 L2721.04 105.969 L2725.9 107.078 L2730.23 108.187 L2733.94 109.296 L2736.97 110.406 L2739.26 111.515 L2740.76 112.624 L2741.42 113.733 L2741.19 114.843 L2740.04 115.952 L2737.94 117.061 L2734.85 118.17 L2730.76 119.279 L2725.66 120.389 L2719.54 121.498 L2712.41 122.607 L2704.3 123.716 L2695.23 124.826 L2685.26 125.935 L2674.46 127.044 L2662.91 128.153 L2650.71 129.263 L2637.99 130.372 L2624.87 131.481 L2611.52 132.59 L2598.09 133.7 L2584.75 134.809 L2571.69 135.918 L2559.09 137.027 L2547.11 138.137 L2535.94 139.246 L2525.72 140.355 L2516.6 141.464 L2508.69 142.574 L2502.07 143.683 L2496.82 144.792 L2492.95 145.901 L2490.48 147.01 L2489.36 148.12 L2489.54 149.229 L2490.93 150.338 L2493.41 151.447 L2496.86 152.557 L2501.13 153.666 L2506.07 154.775 L2511.51 155.884 L2517.31 156.994 L2523.31 158.103 L2529.37 159.212 L2535.37 160.321 L2541.2 161.431 L2546.79 162.54 L2552.05 163.649 L2556.95 164.758 L2561.45 165.868 L2565.56 166.977 L2569.26 168.086 L2572.58 169.195 L2575.55 170.304 L2578.19 171.414 L2580.54 172.523 L2582.63 173.632 L2584.5 174.741 L2586.19 175.851 L2587.71 176.96 L2589.09 178.069 L2590.35 179.178 L2591.52 180.288 L2592.6 181.397 L2593.61 182.506 L2594.58 183.615 L2595.51 184.725 L2596.44 185.834 L2597.39 186.943 L2598.4 188.052 L2599.51 189.162 L2600.76 190.271 L2602.2 191.38 L2603.87 192.489 L2605.83 193.598 L2608.13 194.708 L2610.8 195.817 L2613.9 196.926 L2617.43 198.035 L2945.78 198.035  Z" fill="#3da44d" fill-rule="evenodd" fill-opacity="1"/>
<polyline clip-path="url(#clip651)" style="stroke:#000000; stroke-linecap:round; stroke-linejoin:round; stroke-width:4; stroke-opacity:1; fill:none" points="2945.78,198.035 2949.31,196.926 2952.4,195.817 2955.08,194.708 2957.37,193.598 2959.33,192.489 2961.01,191.38 2962.45,190.271 2963.7,189.162 2964.8,188.052 2965.81,186.943 2966.77,185.834 2967.7,184.725 2968.63,183.615 2969.6,182.506 2970.61,181.397 2971.69,180.288 2972.85,179.178 2974.12,178.069 2975.5,176.96 2977.02,175.851 2978.71,174.741 2980.58,173.632 2982.67,172.523 2985.02,171.414 2987.66,170.304 2990.63,169.195 2993.95,168.086 2997.65,166.977 3001.75,165.868 3006.26,164.758 3011.16,163.649 3016.42,162.54 3022,161.431 3027.84,160.321 3033.84,159.212 3039.9,158.103 3045.9,156.994 3051.69,155.884 3057.14,154.775 3062.08,153.666 3066.35,152.557 3069.8,151.447 3072.28,150.338 3073.67,149.229 3073.85,148.12 3072.73,147.01 3070.26,145.901 3066.39,144.792 3061.14,143.683 3054.52,142.574 3046.61,141.464 3037.48,140.355 3027.27,139.246 3016.09,138.137 3004.12,137.027 2991.52,135.918 2978.46,134.809 2965.12,133.7 2951.69,132.59 2938.33,131.481 2925.22,130.372 2912.49,129.263 2900.3,128.153 2888.75,127.044 2877.94,125.935 2867.98,124.826 2858.91,123.716 2850.8,122.607 2843.67,121.498 2837.55,120.389 2832.45,119.279 2828.36,118.17 2825.27,117.061 2823.16,115.952 2822.01,114.843 2821.79,113.733 2822.44,112.624 2823.94,111.515 2826.24,110.406 2829.27,109.296 2832.98,108.187 2837.3,107.078 2842.17,105.969 2847.5,104.859 2853.21,103.75 2859.21,102.641 2865.4,101.532 2871.67,100.422 2877.93,99.3132 2884.06,98.204 2889.95,97.0947 2895.51,95.9855 2900.61,94.8762 2905.18,93.767 2909.11,92.6578 2912.33,91.5485 2914.79,90.4393 2916.41,89.33 2917.19,88.2208 2646.02,88.2208 2646.79,89.33 2648.42,90.4393 2650.87,91.5485 2654.1,92.6578 2658.03,93.767 2662.6,94.8762 2667.7,95.9855 2673.26,97.0947 2679.15,98.204 2685.28,99.3132 2691.54,100.422 2697.81,101.532 2704,102.641 2710,103.75 2715.71,104.859 2721.04,105.969 2725.9,107.078 2730.23,108.187 2733.94,109.296 2736.97,110.406 2739.26,111.515 2740.76,112.624 2741.42,113.733 2741.19,114.843 2740.04,115.952 2737.94,117.061 2734.85,118.17 2730.76,119.279 2725.66,120.389 2719.54,121.498 2712.41,122.607 2704.3,123.716 2695.23,124.826 2685.26,125.935 2674.46,127.044 2662.91,128.153 2650.71,129.263 2637.99,130.372 2624.87,131.481 2611.52,132.59 2598.09,133.7 2584.75,134.809 2571.69,135.918 2559.09,137.027 2547.11,138.137 2535.94,139.246 2525.72,140.355 2516.6,141.464 2508.69,142.574 2502.07,143.683 2496.82,144.792 2492.95,145.901 2490.48,147.01 2489.36,148.12 2489.54,149.229 2490.93,150.338 2493.41,151.447 2496.86,152.557 2501.13,153.666 2506.07,154.775 2511.51,155.884 2517.31,156.994 2523.31,158.103 2529.37,159.212 2535.37,160.321 2541.2,161.431 2546.79,162.54 2552.05,163.649 2556.95,164.758 2561.45,165.868 2565.56,166.977 2569.26,168.086 2572.58,169.195 2575.55,170.304 2578.19,171.414 2580.54,172.523 2582.63,173.632 2584.5,174.741 2586.19,175.851 2587.71,176.96 2589.09,178.069 2590.35,179.178 2591.52,180.288 2592.6,181.397 2593.61,182.506 2594.58,183.615 2595.51,184.725 2596.44,185.834 2597.39,186.943 2598.4,188.052 2599.51,189.162 2600.76,190.271 2602.2,191.38 2603.87,192.489 2605.83,193.598 2608.13,194.708 2610.8,195.817 2613.9,196.926 2617.43,198.035 2945.78,198.035 "/>
</svg>
