<?xml version="1.0" encoding="utf-8"?>
<svg xmlns="http://www.w3.org/2000/svg" xmlns:xlink="http://www.w3.org/1999/xlink" width="600" height="400" viewBox="0 0 2400 1600">
<defs>
  <clipPath id="clip380">
    <rect x="0" y="0" width="2400" height="1600"/>
  </clipPath>
</defs>
<path clip-path="url(#clip380)" d="M0 1600 L2400 1600 L2400 0 L0 0  Z" fill="#ffffff" fill-rule="evenodd" fill-opacity="1"/>
<defs>
  <clipPath id="clip381">
    <rect x="249" y="47" width="2104" height="1377"/>
  </clipPath>
</defs>
<path clip-path="url(#clip380)" d="M249.542 1423.18 L2352.76 1423.18 L2352.76 47.2441 L249.542 47.2441  Z" fill="#ffffff" fill-rule="evenodd" fill-opacity="1"/>
<polyline clip-path="url(#clip381)" style="stroke:#000000; stroke-linecap:round; stroke-linejoin:round; stroke-width:2; stroke-opacity:0.1; fill:none" points="309.066,1423.18 309.066,47.2441 "/>
<polyline clip-path="url(#clip381)" style="stroke:#000000; stroke-linecap:round; stroke-linejoin:round; stroke-width:2; stroke-opacity:0.1; fill:none" points="935.035,1423.18 935.035,47.2441 "/>
<polyline clip-path="url(#clip381)" style="stroke:#000000; stroke-linecap:round; stroke-linejoin:round; stroke-width:2; stroke-opacity:0.1; fill:none" points="1561,1423.18 1561,47.2441 "/>
<polyline clip-path="url(#clip381)" style="stroke:#000000; stroke-linecap:round; stroke-linejoin:round; stroke-width:2; stroke-opacity:0.1; fill:none" points="2186.97,1423.18 2186.97,47.2441 "/>
<polyline clip-path="url(#clip381)" style="stroke:#000000; stroke-linecap:round; stroke-linejoin:round; stroke-width:2; stroke-opacity:0.1; fill:none" points="249.542,1384.24 2352.76,1384.24 "/>
<polyline clip-path="url(#clip381)" style="stroke:#000000; stroke-linecap:round; stroke-linejoin:round; stroke-width:2; stroke-opacity:0.1; fill:none" points="249.542,1144.07 2352.76,1144.07 "/>
<polyline clip-path="url(#clip381)" style="stroke:#000000; stroke-linecap:round; stroke-linejoin:round; stroke-width:2; stroke-opacity:0.1; fill:none" points="249.542,903.898 2352.76,903.898 "/>
<polyline clip-path="url(#clip381)" style="stroke:#000000; stroke-linecap:round; stroke-linejoin:round; stroke-width:2; stroke-opacity:0.1; fill:none" points="249.542,663.728 2352.76,663.728 "/>
<polyline clip-path="url(#clip381)" style="stroke:#000000; stroke-linecap:round; stroke-linejoin:round; stroke-width:2; stroke-opacity:0.1; fill:none" points="249.542,423.558 2352.76,423.558 "/>
<polyline clip-path="url(#clip381)" style="stroke:#000000; stroke-linecap:round; stroke-linejoin:round; stroke-width:2; stroke-opacity:0.1; fill:none" points="249.542,183.388 2352.76,183.388 "/>
<polyline clip-path="url(#clip380)" style="stroke:#000000; stroke-linecap:round; stroke-linejoin:round; stroke-width:4; stroke-opacity:1; fill:none" points="249.542,1423.18 2352.76,1423.18 "/>
<polyline clip-path="url(#clip380)" style="stroke:#000000; stroke-linecap:round; stroke-linejoin:round; stroke-width:4; stroke-opacity:1; fill:none" points="309.066,1423.18 309.066,1404.28 "/>
<polyline clip-path="url(#clip380)" style="stroke:#000000; stroke-linecap:round; stroke-linejoin:round; stroke-width:4; stroke-opacity:1; fill:none" points="935.035,1423.18 935.035,1404.28 "/>
<polyline clip-path="url(#clip380)" style="stroke:#000000; stroke-linecap:round; stroke-linejoin:round; stroke-width:4; stroke-opacity:1; fill:none" points="1561,1423.18 1561,1404.28 "/>
<polyline clip-path="url(#clip380)" style="stroke:#000000; stroke-linecap:round; stroke-linejoin:round; stroke-width:4; stroke-opacity:1; fill:none" points="2186.97,1423.18 2186.97,1404.28 "/>
<path clip-path="url(#clip380)" d="M309.066 1454.1 Q305.455 1454.1 303.627 1457.66 Q301.821 1461.2 301.821 1468.33 Q301.821 1475.44 303.627 1479.01 Q305.455 1482.55 309.066 1482.55 Q312.701 1482.55 314.506 1479.01 Q316.335 1475.44 316.335 1468.33 Q316.335 1461.2 314.506 1457.66 Q312.701 1454.1 309.066 1454.1 M309.066 1450.39 Q314.876 1450.39 317.932 1455 Q321.011 1459.58 321.011 1468.33 Q321.011 1477.06 317.932 1481.67 Q314.876 1486.25 309.066 1486.25 Q303.256 1486.25 300.177 1481.67 Q297.122 1477.06 297.122 1468.33 Q297.122 1459.58 300.177 1455 Q303.256 1450.39 309.066 1450.39 Z" fill="#000000" fill-rule="nonzero" fill-opacity="1" /><path clip-path="url(#clip380)" d="M925.417 1481.64 L933.056 1481.64 L933.056 1455.28 L924.746 1456.95 L924.746 1452.69 L933.01 1451.02 L937.686 1451.02 L937.686 1481.64 L945.325 1481.64 L945.325 1485.58 L925.417 1485.58 L925.417 1481.64 Z" fill="#000000" fill-rule="nonzero" fill-opacity="1" /><path clip-path="url(#clip380)" d="M1555.66 1481.64 L1571.98 1481.64 L1571.98 1485.58 L1550.03 1485.58 L1550.03 1481.64 Q1552.69 1478.89 1557.28 1474.26 Q1561.88 1469.61 1563.06 1468.27 Q1565.31 1465.74 1566.19 1464.01 Q1567.09 1462.25 1567.09 1460.56 Q1567.09 1457.8 1565.15 1456.07 Q1563.23 1454.33 1560.12 1454.33 Q1557.93 1454.33 1555.47 1455.09 Q1553.04 1455.86 1550.26 1457.41 L1550.26 1452.69 Q1553.09 1451.55 1555.54 1450.97 Q1558 1450.39 1560.03 1450.39 Q1565.4 1450.39 1568.6 1453.08 Q1571.79 1455.77 1571.79 1460.26 Q1571.79 1462.39 1570.98 1464.31 Q1570.19 1466.2 1568.09 1468.8 Q1567.51 1469.47 1564.41 1472.69 Q1561.31 1475.88 1555.66 1481.64 Z" fill="#000000" fill-rule="nonzero" fill-opacity="1" /><path clip-path="url(#clip380)" d="M2191.22 1466.95 Q2194.58 1467.66 2196.45 1469.93 Q2198.35 1472.2 2198.35 1475.53 Q2198.35 1480.65 2194.83 1483.45 Q2191.31 1486.25 2184.83 1486.25 Q2182.66 1486.25 2180.34 1485.81 Q2178.05 1485.39 2175.6 1484.54 L2175.6 1480.02 Q2177.54 1481.16 2179.86 1481.74 Q2182.17 1482.32 2184.69 1482.32 Q2189.09 1482.32 2191.38 1480.58 Q2193.7 1478.84 2193.7 1475.53 Q2193.7 1472.48 2191.54 1470.77 Q2189.42 1469.03 2185.6 1469.03 L2181.57 1469.03 L2181.57 1465.19 L2185.78 1465.19 Q2189.23 1465.19 2191.06 1463.82 Q2192.89 1462.43 2192.89 1459.84 Q2192.89 1457.18 2190.99 1455.77 Q2189.11 1454.33 2185.6 1454.33 Q2183.67 1454.33 2181.48 1454.75 Q2179.28 1455.16 2176.64 1456.04 L2176.64 1451.88 Q2179.3 1451.14 2181.61 1450.77 Q2183.95 1450.39 2186.01 1450.39 Q2191.34 1450.39 2194.44 1452.83 Q2197.54 1455.23 2197.54 1459.35 Q2197.54 1462.22 2195.9 1464.21 Q2194.25 1466.18 2191.22 1466.95 Z" fill="#000000" fill-rule="nonzero" fill-opacity="1" /><path clip-path="url(#clip380)" d="M1205.79 1561.55 Q1206.94 1563.08 1210.37 1563.08 L1213.21 1563.08 L1213.21 1568.04 L1209.67 1568.04 Q1203.94 1568.04 1201.33 1564.99 Q1198.72 1561.87 1198.72 1555.12 L1198.72 1538.25 L1185.36 1538.25 L1185.36 1532.4 L1218.24 1532.4 L1218.24 1538.25 L1204.71 1538.25 L1204.71 1555.47 Q1204.71 1560.09 1205.79 1561.55 Z" fill="#000000" fill-rule="nonzero" fill-opacity="1" /><path clip-path="url(#clip380)" d="M1258.69 1520.52 L1264.1 1520.52 L1247.55 1574.09 L1242.14 1574.09 L1258.69 1520.52 Z" fill="#000000" fill-rule="nonzero" fill-opacity="1" /><path clip-path="url(#clip380)" d="M1291.22 1520.52 L1297.65 1520.52 L1297.65 1540 L1321.01 1540 L1321.01 1520.52 L1327.44 1520.52 L1327.44 1568.04 L1321.01 1568.04 L1321.01 1545.41 L1297.65 1545.41 L1297.65 1568.04 L1291.22 1568.04 L1291.22 1520.52 Z" fill="#000000" fill-rule="nonzero" fill-opacity="1" /><path clip-path="url(#clip380)" d="M1351.98 1546.5 Q1350.39 1543.76 1347.17 1543.76 Q1343.96 1543.76 1342.37 1546.5 Q1340.74 1549.23 1340.74 1554.71 Q1340.74 1560.21 1342.37 1562.95 Q1343.96 1565.69 1347.17 1565.69 Q1350.39 1565.69 1351.98 1562.95 Q1353.6 1560.21 1353.6 1554.71 Q1353.6 1549.23 1351.98 1546.5 M1347.17 1540.93 Q1352.3 1540.93 1355 1544.46 Q1357.71 1547.99 1357.71 1554.71 Q1357.71 1561.46 1355 1564.99 Q1352.3 1568.52 1347.17 1568.52 Q1342.02 1568.52 1339.31 1564.99 Q1336.61 1561.46 1336.61 1554.71 Q1336.61 1547.99 1339.31 1544.46 Q1342.02 1540.93 1347.17 1540.93 Z" fill="#000000" fill-rule="nonzero" fill-opacity="1" /><path clip-path="url(#clip380)" d="M1364.33 1533.83 L1390.01 1533.83 L1390.01 1536.85 L1364.33 1536.85 L1364.33 1533.83 Z" fill="#000000" fill-rule="nonzero" fill-opacity="1" /><path clip-path="url(#clip380)" d="M1399.34 1543.28 L1405.83 1543.28 L1405.83 1523.83 L1398.74 1525.14 L1398.74 1521.45 L1406.06 1520.21 L1410.42 1520.21 L1410.42 1543.28 L1416.94 1543.28 L1416.94 1546.78 L1399.34 1546.78 L1399.34 1543.28 Z" fill="#000000" fill-rule="nonzero" fill-opacity="1" /><polyline clip-path="url(#clip380)" style="stroke:#000000; stroke-linecap:round; stroke-linejoin:round; stroke-width:4; stroke-opacity:1; fill:none" points="249.542,1423.18 249.542,47.2441 "/>
<polyline clip-path="url(#clip380)" style="stroke:#000000; stroke-linecap:round; stroke-linejoin:round; stroke-width:4; stroke-opacity:1; fill:none" points="249.542,1384.24 268.44,1384.24 "/>
<polyline clip-path="url(#clip380)" style="stroke:#000000; stroke-linecap:round; stroke-linejoin:round; stroke-width:4; stroke-opacity:1; fill:none" points="249.542,1144.07 268.44,1144.07 "/>
<polyline clip-path="url(#clip380)" style="stroke:#000000; stroke-linecap:round; stroke-linejoin:round; stroke-width:4; stroke-opacity:1; fill:none" points="249.542,903.898 268.44,903.898 "/>
<polyline clip-path="url(#clip380)" style="stroke:#000000; stroke-linecap:round; stroke-linejoin:round; stroke-width:4; stroke-opacity:1; fill:none" points="249.542,663.728 268.44,663.728 "/>
<polyline clip-path="url(#clip380)" style="stroke:#000000; stroke-linecap:round; stroke-linejoin:round; stroke-width:4; stroke-opacity:1; fill:none" points="249.542,423.558 268.44,423.558 "/>
<polyline clip-path="url(#clip380)" style="stroke:#000000; stroke-linecap:round; stroke-linejoin:round; stroke-width:4; stroke-opacity:1; fill:none" points="249.542,183.388 268.44,183.388 "/>
<path clip-path="url(#clip380)" d="M126.205 1370.04 Q122.593 1370.04 120.765 1373.6 Q118.959 1377.14 118.959 1384.27 Q118.959 1391.38 120.765 1394.94 Q122.593 1398.49 126.205 1398.49 Q129.839 1398.49 131.644 1394.94 Q133.473 1391.38 133.473 1384.27 Q133.473 1377.14 131.644 1373.6 Q129.839 1370.04 126.205 1370.04 M126.205 1366.33 Q132.015 1366.33 135.07 1370.94 Q138.149 1375.52 138.149 1384.27 Q138.149 1393 135.07 1397.61 Q132.015 1402.19 126.205 1402.19 Q120.394 1402.19 117.316 1397.61 Q114.26 1393 114.26 1384.27 Q114.26 1375.52 117.316 1370.94 Q120.394 1366.33 126.205 1366.33 Z" fill="#000000" fill-rule="nonzero" fill-opacity="1" /><path clip-path="url(#clip380)" d="M146.366 1395.64 L151.251 1395.64 L151.251 1401.52 L146.366 1401.52 L146.366 1395.64 Z" fill="#000000" fill-rule="nonzero" fill-opacity="1" /><path clip-path="url(#clip380)" d="M171.436 1370.04 Q167.825 1370.04 165.996 1373.6 Q164.19 1377.14 164.19 1384.27 Q164.19 1391.38 165.996 1394.94 Q167.825 1398.49 171.436 1398.49 Q175.07 1398.49 176.876 1394.94 Q178.704 1391.38 178.704 1384.27 Q178.704 1377.14 176.876 1373.6 Q175.07 1370.04 171.436 1370.04 M171.436 1366.33 Q177.246 1366.33 180.301 1370.94 Q183.38 1375.52 183.38 1384.27 Q183.38 1393 180.301 1397.61 Q177.246 1402.19 171.436 1402.19 Q165.626 1402.19 162.547 1397.61 Q159.491 1393 159.491 1384.27 Q159.491 1375.52 162.547 1370.94 Q165.626 1366.33 171.436 1366.33 Z" fill="#000000" fill-rule="nonzero" fill-opacity="1" /><path clip-path="url(#clip380)" d="M201.598 1370.04 Q197.987 1370.04 196.158 1373.6 Q194.352 1377.14 194.352 1384.27 Q194.352 1391.38 196.158 1394.94 Q197.987 1398.49 201.598 1398.49 Q205.232 1398.49 207.037 1394.94 Q208.866 1391.38 208.866 1384.27 Q208.866 1377.14 207.037 1373.6 Q205.232 1370.04 201.598 1370.04 M201.598 1366.33 Q207.408 1366.33 210.463 1370.94 Q213.542 1375.52 213.542 1384.27 Q213.542 1393 210.463 1397.61 Q207.408 1402.19 201.598 1402.19 Q195.787 1402.19 192.709 1397.61 Q189.653 1393 189.653 1384.27 Q189.653 1375.52 192.709 1370.94 Q195.787 1366.33 201.598 1366.33 Z" fill="#000000" fill-rule="nonzero" fill-opacity="1" /><path clip-path="url(#clip380)" d="M127.2 1129.87 Q123.589 1129.87 121.76 1133.43 Q119.955 1136.97 119.955 1144.1 Q119.955 1151.21 121.76 1154.77 Q123.589 1158.32 127.2 1158.32 Q130.834 1158.32 132.64 1154.77 Q134.468 1151.21 134.468 1144.1 Q134.468 1136.97 132.64 1133.43 Q130.834 1129.87 127.2 1129.87 M127.2 1126.16 Q133.01 1126.16 136.066 1130.77 Q139.144 1135.35 139.144 1144.1 Q139.144 1152.83 136.066 1157.44 Q133.01 1162.02 127.2 1162.02 Q121.39 1162.02 118.311 1157.44 Q115.256 1152.83 115.256 1144.1 Q115.256 1135.35 118.311 1130.77 Q121.39 1126.16 127.2 1126.16 Z" fill="#000000" fill-rule="nonzero" fill-opacity="1" /><path clip-path="url(#clip380)" d="M147.362 1155.47 L152.246 1155.47 L152.246 1161.35 L147.362 1161.35 L147.362 1155.47 Z" fill="#000000" fill-rule="nonzero" fill-opacity="1" /><path clip-path="url(#clip380)" d="M172.431 1129.87 Q168.82 1129.87 166.991 1133.43 Q165.186 1136.97 165.186 1144.1 Q165.186 1151.21 166.991 1154.77 Q168.82 1158.32 172.431 1158.32 Q176.065 1158.32 177.871 1154.77 Q179.7 1151.21 179.7 1144.1 Q179.7 1136.97 177.871 1133.43 Q176.065 1129.87 172.431 1129.87 M172.431 1126.16 Q178.241 1126.16 181.297 1130.77 Q184.376 1135.35 184.376 1144.1 Q184.376 1152.83 181.297 1157.44 Q178.241 1162.02 172.431 1162.02 Q166.621 1162.02 163.542 1157.44 Q160.487 1152.83 160.487 1144.1 Q160.487 1135.35 163.542 1130.77 Q166.621 1126.16 172.431 1126.16 Z" fill="#000000" fill-rule="nonzero" fill-opacity="1" /><path clip-path="url(#clip380)" d="M192.639 1126.79 L210.996 1126.79 L210.996 1130.72 L196.922 1130.72 L196.922 1139.2 Q197.94 1138.85 198.959 1138.69 Q199.977 1138.5 200.996 1138.5 Q206.783 1138.5 210.162 1141.67 Q213.542 1144.84 213.542 1150.26 Q213.542 1155.84 210.07 1158.94 Q206.598 1162.02 200.278 1162.02 Q198.102 1162.02 195.834 1161.65 Q193.588 1161.28 191.181 1160.54 L191.181 1155.84 Q193.264 1156.97 195.487 1157.53 Q197.709 1158.08 200.186 1158.08 Q204.19 1158.08 206.528 1155.98 Q208.866 1153.87 208.866 1150.26 Q208.866 1146.65 206.528 1144.54 Q204.19 1142.44 200.186 1142.44 Q198.311 1142.44 196.436 1142.85 Q194.584 1143.27 192.639 1144.15 L192.639 1126.79 Z" fill="#000000" fill-rule="nonzero" fill-opacity="1" /><path clip-path="url(#clip380)" d="M126.205 889.697 Q122.593 889.697 120.765 893.262 Q118.959 896.803 118.959 903.933 Q118.959 911.039 120.765 914.604 Q122.593 918.146 126.205 918.146 Q129.839 918.146 131.644 914.604 Q133.473 911.039 133.473 903.933 Q133.473 896.803 131.644 893.262 Q129.839 889.697 126.205 889.697 M126.205 885.993 Q132.015 885.993 135.07 890.6 Q138.149 895.183 138.149 903.933 Q138.149 912.66 135.07 917.266 Q132.015 921.85 126.205 921.85 Q120.394 921.85 117.316 917.266 Q114.26 912.66 114.26 903.933 Q114.26 895.183 117.316 890.6 Q120.394 885.993 126.205 885.993 Z" fill="#000000" fill-rule="nonzero" fill-opacity="1" /><path clip-path="url(#clip380)" d="M146.366 915.299 L151.251 915.299 L151.251 921.178 L146.366 921.178 L146.366 915.299 Z" fill="#000000" fill-rule="nonzero" fill-opacity="1" /><path clip-path="url(#clip380)" d="M162.246 917.243 L169.885 917.243 L169.885 890.878 L161.575 892.544 L161.575 888.285 L169.839 886.618 L174.514 886.618 L174.514 917.243 L182.153 917.243 L182.153 921.178 L162.246 921.178 L162.246 917.243 Z" fill="#000000" fill-rule="nonzero" fill-opacity="1" /><path clip-path="url(#clip380)" d="M201.598 889.697 Q197.987 889.697 196.158 893.262 Q194.352 896.803 194.352 903.933 Q194.352 911.039 196.158 914.604 Q197.987 918.146 201.598 918.146 Q205.232 918.146 207.037 914.604 Q208.866 911.039 208.866 903.933 Q208.866 896.803 207.037 893.262 Q205.232 889.697 201.598 889.697 M201.598 885.993 Q207.408 885.993 210.463 890.6 Q213.542 895.183 213.542 903.933 Q213.542 912.66 210.463 917.266 Q207.408 921.85 201.598 921.85 Q195.787 921.85 192.709 917.266 Q189.653 912.66 189.653 903.933 Q189.653 895.183 192.709 890.6 Q195.787 885.993 201.598 885.993 Z" fill="#000000" fill-rule="nonzero" fill-opacity="1" /><path clip-path="url(#clip380)" d="M127.2 649.527 Q123.589 649.527 121.76 653.092 Q119.955 656.633 119.955 663.763 Q119.955 670.87 121.76 674.434 Q123.589 677.976 127.2 677.976 Q130.834 677.976 132.64 674.434 Q134.468 670.87 134.468 663.763 Q134.468 656.633 132.64 653.092 Q130.834 649.527 127.2 649.527 M127.2 645.823 Q133.01 645.823 136.066 650.43 Q139.144 655.013 139.144 663.763 Q139.144 672.49 136.066 677.096 Q133.01 681.68 127.2 681.68 Q121.39 681.68 118.311 677.096 Q115.256 672.49 115.256 663.763 Q115.256 655.013 118.311 650.43 Q121.39 645.823 127.2 645.823 Z" fill="#000000" fill-rule="nonzero" fill-opacity="1" /><path clip-path="url(#clip380)" d="M147.362 675.129 L152.246 675.129 L152.246 681.008 L147.362 681.008 L147.362 675.129 Z" fill="#000000" fill-rule="nonzero" fill-opacity="1" /><path clip-path="url(#clip380)" d="M163.241 677.073 L170.88 677.073 L170.88 650.708 L162.57 652.374 L162.57 648.115 L170.834 646.448 L175.51 646.448 L175.51 677.073 L183.149 677.073 L183.149 681.008 L163.241 681.008 L163.241 677.073 Z" fill="#000000" fill-rule="nonzero" fill-opacity="1" /><path clip-path="url(#clip380)" d="M192.639 646.448 L210.996 646.448 L210.996 650.384 L196.922 650.384 L196.922 658.856 Q197.94 658.508 198.959 658.346 Q199.977 658.161 200.996 658.161 Q206.783 658.161 210.162 661.333 Q213.542 664.504 213.542 669.92 Q213.542 675.499 210.07 678.601 Q206.598 681.68 200.278 681.68 Q198.102 681.68 195.834 681.309 Q193.588 680.939 191.181 680.198 L191.181 675.499 Q193.264 676.633 195.487 677.189 Q197.709 677.744 200.186 677.744 Q204.19 677.744 206.528 675.638 Q208.866 673.532 208.866 669.92 Q208.866 666.309 206.528 664.203 Q204.19 662.096 200.186 662.096 Q198.311 662.096 196.436 662.513 Q194.584 662.93 192.639 663.809 L192.639 646.448 Z" fill="#000000" fill-rule="nonzero" fill-opacity="1" /><path clip-path="url(#clip380)" d="M126.205 409.357 Q122.593 409.357 120.765 412.922 Q118.959 416.464 118.959 423.593 Q118.959 430.7 120.765 434.264 Q122.593 437.806 126.205 437.806 Q129.839 437.806 131.644 434.264 Q133.473 430.7 133.473 423.593 Q133.473 416.464 131.644 412.922 Q129.839 409.357 126.205 409.357 M126.205 405.653 Q132.015 405.653 135.07 410.26 Q138.149 414.843 138.149 423.593 Q138.149 432.32 135.07 436.926 Q132.015 441.51 126.205 441.51 Q120.394 441.51 117.316 436.926 Q114.26 432.32 114.26 423.593 Q114.26 414.843 117.316 410.26 Q120.394 405.653 126.205 405.653 Z" fill="#000000" fill-rule="nonzero" fill-opacity="1" /><path clip-path="url(#clip380)" d="M146.366 434.959 L151.251 434.959 L151.251 440.838 L146.366 440.838 L146.366 434.959 Z" fill="#000000" fill-rule="nonzero" fill-opacity="1" /><path clip-path="url(#clip380)" d="M165.464 436.903 L181.783 436.903 L181.783 440.838 L159.839 440.838 L159.839 436.903 Q162.501 434.149 167.084 429.519 Q171.69 424.866 172.871 423.524 Q175.116 421.001 175.996 419.264 Q176.899 417.505 176.899 415.815 Q176.899 413.061 174.954 411.325 Q173.033 409.589 169.931 409.589 Q167.732 409.589 165.278 410.352 Q162.848 411.116 160.07 412.667 L160.07 407.945 Q162.894 406.811 165.348 406.232 Q167.802 405.653 169.839 405.653 Q175.209 405.653 178.403 408.339 Q181.598 411.024 181.598 415.514 Q181.598 417.644 180.788 419.565 Q180.001 421.463 177.894 424.056 Q177.315 424.727 174.214 427.945 Q171.112 431.139 165.464 436.903 Z" fill="#000000" fill-rule="nonzero" fill-opacity="1" /><path clip-path="url(#clip380)" d="M201.598 409.357 Q197.987 409.357 196.158 412.922 Q194.352 416.464 194.352 423.593 Q194.352 430.7 196.158 434.264 Q197.987 437.806 201.598 437.806 Q205.232 437.806 207.037 434.264 Q208.866 430.7 208.866 423.593 Q208.866 416.464 207.037 412.922 Q205.232 409.357 201.598 409.357 M201.598 405.653 Q207.408 405.653 210.463 410.26 Q213.542 414.843 213.542 423.593 Q213.542 432.32 210.463 436.926 Q207.408 441.51 201.598 441.51 Q195.787 441.51 192.709 436.926 Q189.653 432.32 189.653 423.593 Q189.653 414.843 192.709 410.26 Q195.787 405.653 201.598 405.653 Z" fill="#000000" fill-rule="nonzero" fill-opacity="1" /><path clip-path="url(#clip380)" d="M127.2 169.187 Q123.589 169.187 121.76 172.752 Q119.955 176.294 119.955 183.423 Q119.955 190.53 121.76 194.094 Q123.589 197.636 127.2 197.636 Q130.834 197.636 132.64 194.094 Q134.468 190.53 134.468 183.423 Q134.468 176.294 132.64 172.752 Q130.834 169.187 127.2 169.187 M127.2 165.483 Q133.01 165.483 136.066 170.09 Q139.144 174.673 139.144 183.423 Q139.144 192.15 136.066 196.756 Q133.01 201.34 127.2 201.34 Q121.39 201.34 118.311 196.756 Q115.256 192.15 115.256 183.423 Q115.256 174.673 118.311 170.09 Q121.39 165.483 127.2 165.483 Z" fill="#000000" fill-rule="nonzero" fill-opacity="1" /><path clip-path="url(#clip380)" d="M147.362 194.789 L152.246 194.789 L152.246 200.668 L147.362 200.668 L147.362 194.789 Z" fill="#000000" fill-rule="nonzero" fill-opacity="1" /><path clip-path="url(#clip380)" d="M166.459 196.733 L182.778 196.733 L182.778 200.668 L160.834 200.668 L160.834 196.733 Q163.496 193.979 168.079 189.349 Q172.686 184.696 173.866 183.354 Q176.112 180.831 176.991 179.094 Q177.894 177.335 177.894 175.645 Q177.894 172.891 175.95 171.155 Q174.028 169.419 170.927 169.419 Q168.727 169.419 166.274 170.182 Q163.843 170.946 161.065 172.497 L161.065 167.775 Q163.89 166.641 166.343 166.062 Q168.797 165.483 170.834 165.483 Q176.204 165.483 179.399 168.169 Q182.593 170.854 182.593 175.344 Q182.593 177.474 181.783 179.395 Q180.996 181.294 178.889 183.886 Q178.311 184.557 175.209 187.775 Q172.107 190.969 166.459 196.733 Z" fill="#000000" fill-rule="nonzero" fill-opacity="1" /><path clip-path="url(#clip380)" d="M192.639 166.108 L210.996 166.108 L210.996 170.044 L196.922 170.044 L196.922 178.516 Q197.94 178.169 198.959 178.007 Q199.977 177.821 200.996 177.821 Q206.783 177.821 210.162 180.993 Q213.542 184.164 213.542 189.581 Q213.542 195.159 210.07 198.261 Q206.598 201.34 200.278 201.34 Q198.102 201.34 195.834 200.969 Q193.588 200.599 191.181 199.858 L191.181 195.159 Q193.264 196.293 195.487 196.849 Q197.709 197.405 200.186 197.405 Q204.19 197.405 206.528 195.298 Q208.866 193.192 208.866 189.581 Q208.866 185.969 206.528 183.863 Q204.19 181.756 200.186 181.756 Q198.311 181.756 196.436 182.173 Q194.584 182.59 192.639 183.469 L192.639 166.108 Z" fill="#000000" fill-rule="nonzero" fill-opacity="1" /><path clip-path="url(#clip380)" d="M33.8307 857.736 Q33.2578 858.723 33.0032 859.9 Q32.7167 861.046 32.7167 862.447 Q32.7167 867.412 35.9632 870.085 Q39.1779 872.727 45.2253 872.727 L64.0042 872.727 L64.0042 878.615 L28.3562 878.615 L28.3562 872.727 L33.8944 872.727 Q30.6479 870.881 29.0883 867.921 Q27.4968 864.961 27.4968 860.728 Q27.4968 860.123 27.5923 859.391 Q27.656 858.659 27.8151 857.768 L33.8307 857.736 Z" fill="#000000" fill-rule="nonzero" fill-opacity="1" /><path clip-path="url(#clip380)" d="M44.1113 838.066 L47.1987 838.066 Q46.4985 839.625 46.1484 841.312 Q45.7982 842.967 45.7982 844.782 Q45.7982 847.551 46.5303 848.919 Q47.2942 850.288 48.7901 850.288 Q49.9359 850.288 50.5725 849.301 Q51.2409 848.315 51.8138 845.355 L52.0685 844.081 Q52.8323 840.103 54.1691 838.511 Q55.5378 836.856 57.9886 836.856 Q60.7576 836.856 62.3809 839.339 Q64.0042 841.79 64.0042 846.118 Q64.0042 847.933 63.6859 849.906 Q63.3676 851.848 62.7628 854.012 L59.3572 854.012 Q60.312 851.975 60.7895 849.97 Q61.2669 847.996 61.2669 846.055 Q61.2669 843.445 60.4712 842.044 Q59.6755 840.644 58.2432 840.644 Q56.9064 840.644 56.1743 841.662 Q55.5378 842.554 54.8057 846.087 L54.5511 847.36 Q53.8827 850.797 52.5777 852.325 Q51.2409 853.853 48.9174 853.853 Q46.1165 853.853 44.5888 851.593 Q43.0292 849.365 43.0292 845.227 Q43.0292 843.19 43.3156 841.376 Q43.5702 839.562 44.1113 838.066 Z" fill="#000000" fill-rule="nonzero" fill-opacity="1" /><path clip-path="url(#clip380)" d="M16.4842 796.148 L16.4842 790.737 L70.0516 807.288 L70.0516 812.699 L16.4842 796.148 Z" fill="#000000" fill-rule="nonzero" fill-opacity="1" /><path clip-path="url(#clip380)" d="M14.5426 749.805 Q21.8632 754.07 29.0246 756.139 Q36.186 758.208 43.5384 758.208 Q50.8908 758.208 58.1159 756.139 Q65.3091 754.039 72.5979 749.805 L72.5979 754.898 Q65.1182 759.672 57.8931 762.059 Q50.668 764.415 43.5384 764.415 Q36.4406 764.415 29.2474 762.059 Q22.0542 759.704 14.5426 754.898 L14.5426 749.805 Z" fill="#000000" fill-rule="nonzero" fill-opacity="1" /><path clip-path="url(#clip380)" d="M29.7248 712.789 L35.1993 712.789 Q33.8307 715.271 33.1623 717.786 Q32.4621 720.268 32.4621 722.815 Q32.4621 728.512 36.0905 731.663 Q39.6872 734.814 46.212 734.814 Q52.7369 734.814 56.3653 731.663 Q59.9619 728.512 59.9619 722.815 Q59.9619 720.268 59.2935 717.786 Q58.5933 715.271 57.2247 712.789 L62.6355 712.789 Q63.7814 715.24 64.3543 717.881 Q64.9272 720.491 64.9272 723.451 Q64.9272 731.504 59.8664 736.246 Q54.8057 740.989 46.212 740.989 Q37.491 740.989 32.4939 736.215 Q27.4968 731.408 27.4968 723.069 Q27.4968 720.364 28.0697 717.786 Q28.6108 715.208 29.7248 712.789 Z" fill="#000000" fill-rule="nonzero" fill-opacity="1" /><path clip-path="url(#clip380)" d="M16.4842 692.196 L16.4842 686.785 L70.0516 703.336 L70.0516 708.747 L16.4842 692.196 Z" fill="#000000" fill-rule="nonzero" fill-opacity="1" /><path clip-path="url(#clip380)" d="M16.4842 680.387 L16.4842 673.958 L35.9632 673.958 L35.9632 650.596 L16.4842 650.596 L16.4842 644.166 L64.0042 644.166 L64.0042 650.596 L41.3741 650.596 L41.3741 673.958 L64.0042 673.958 L64.0042 680.387 L16.4842 680.387 Z" fill="#000000" fill-rule="nonzero" fill-opacity="1" /><path clip-path="url(#clip380)" d="M42.4562 619.627 Q39.719 621.218 39.719 624.433 Q39.719 627.647 42.4562 629.239 Q45.1935 630.862 50.668 630.862 Q56.1743 630.862 58.9116 629.239 Q61.6488 627.647 61.6488 624.433 Q61.6488 621.218 58.9116 619.627 Q56.1743 618.003 50.668 618.003 Q45.1935 618.003 42.4562 619.627 M36.8862 624.433 Q36.8862 619.308 40.4192 616.603 Q43.9522 613.898 50.668 613.898 Q57.4157 613.898 60.9486 616.603 Q64.4816 619.308 64.4816 624.433 Q64.4816 629.589 60.9486 632.294 Q57.4157 635 50.668 635 Q43.9522 635 40.4192 632.294 Q36.8862 629.589 36.8862 624.433 Z" fill="#000000" fill-rule="nonzero" fill-opacity="1" /><path clip-path="url(#clip380)" d="M14.5426 606.418 L14.5426 601.325 Q22.0542 596.551 29.2474 594.196 Q36.4406 591.809 43.5384 591.809 Q50.668 591.809 57.8931 594.196 Q65.1182 596.551 72.5979 601.325 L72.5979 606.418 Q65.3091 602.185 58.1159 600.116 Q50.8908 598.015 43.5384 598.015 Q36.186 598.015 29.0246 600.116 Q21.8632 602.185 14.5426 606.418 Z" fill="#000000" fill-rule="nonzero" fill-opacity="1" /><polyline clip-path="url(#clip381)" style="stroke:#009af9; stroke-linecap:round; stroke-linejoin:round; stroke-width:4; stroke-opacity:1; fill:none" points="309.067,1384.24 309.067,1384.24 309.067,1384.24 309.067,1384.24 309.067,1384.24 309.067,1384.24 309.067,1384.24 309.067,1384.24 309.067,1384.24 309.067,1384.24 309.067,1384.24 309.067,1384.24 309.067,1384.24 309.067,1384.24 309.067,1384.24 309.067,1384.24 309.067,1384.24 309.067,1384.24 309.067,1384.24 309.067,1384.24 309.067,1384.24 309.067,1384.24 309.067,1384.24 309.067,1384.24 309.067,1384.24 309.067,1384.24 309.067,1384.24 309.067,1384.24 309.067,1384.24 309.067,1384.24 309.067,1384.24 309.067,1384.24 309.067,1384.24 309.067,1384.24 309.067,1384.24 309.067,1384.24 309.067,1384.24 309.067,1384.24 309.067,1384.24 309.067,1384.24 309.067,1384.24 309.067,1384.24 309.067,1384.24 309.067,1384.24 309.067,1384.24 309.067,1384.24 309.067,1384.24 309.067,1384.24 309.067,1384.24 309.067,1384.24 309.067,1384.24 309.067,1384.24 309.067,1384.24 309.067,1384.24 309.067,1384.24 309.067,1384.24 309.067,1384.24 309.067,1384.24 309.067,1384.24 309.067,1384.24 309.067,1384.24 309.067,1384.24 309.067,1384.24 309.067,1384.24 309.067,1384.24 309.067,1384.24 309.067,1384.24 309.067,1384.24 309.067,1384.24 309.067,1384.24 309.067,1384.24 309.067,1384.24 309.067,1384.24 309.067,1384.24 309.067,1384.24 309.067,1384.24 309.067,1384.24 309.067,1384.24 309.067,1384.24 309.067,1384.24 309.067,1384.24 309.067,1384.24 309.067,1384.24 309.067,1384.24 309.067,1384.24 309.067,1384.24 309.067,1384.24 309.067,1384.24 309.067,1384.24 309.067,1384.24 309.067,1384.24 309.067,1384.24 309.067,1384.24 309.067,1384.24 309.067,1384.24 309.067,1384.24 309.067,1384.24 309.067,1384.24 309.067,1384.24 309.067,1384.24 309.067,1384.24 309.067,1384.24 309.067,1384.24 309.067,1384.24 309.067,1384.24 309.067,1384.24 309.067,1384.24 309.067,1384.24 309.067,1384.24 309.067,1384.24 309.067,1384.24 309.068,1384.24 309.068,1384.24 309.068,1384.24 309.068,1384.24 309.068,1384.24 309.068,1384.24 309.068,1384.24 309.068,1384.24 309.068,1384.24 309.068,1384.24 309.068,1384.24 309.068,1384.24 309.068,1384.24 309.068,1384.24 309.068,1384.24 309.068,1384.24 309.068,1384.24 309.068,1384.24 309.068,1384.23 309.068,1384.23 309.068,1384.23 309.068,1384.23 309.068,1384.23 309.068,1384.23 309.068,1384.23 309.068,1384.23 309.068,1384.23 309.068,1384.23 309.068,1384.23 309.068,1384.23 309.068,1384.23 309.068,1384.23 309.068,1384.23 309.068,1384.23 309.068,1384.23 309.068,1384.23 309.068,1384.23 309.068,1384.23 309.068,1384.23 309.068,1384.23 309.068,1384.23 309.068,1384.23 309.068,1384.23 309.068,1384.23 309.068,1384.23 309.068,1384.23 309.068,1384.23 309.068,1384.23 309.068,1384.23 309.068,1384.23 309.068,1384.23 309.068,1384.23 309.068,1384.23 309.068,1384.23 309.068,1384.23 309.068,1384.23 309.068,1384.23 309.068,1384.23 309.068,1384.23 309.068,1384.23 309.068,1384.23 309.068,1384.23 309.068,1384.23 309.068,1384.23 309.068,1384.23 309.068,1384.23 309.068,1384.23 309.069,1384.23 309.069,1384.23 309.069,1384.23 309.069,1384.23 309.069,1384.23 309.069,1384.23 309.069,1384.23 309.069,1384.23 309.069,1384.23 309.069,1384.23 309.069,1384.23 309.069,1384.23 309.069,1384.23 309.069,1384.23 309.069,1384.23 309.069,1384.23 309.069,1384.23 309.069,1384.23 309.069,1384.23 309.069,1384.23 309.069,1384.23 309.069,1384.23 309.069,1384.23 309.069,1384.23 309.069,1384.23 309.069,1384.23 309.069,1384.23 309.069,1384.23 309.069,1384.23 309.069,1384.23 309.069,1384.23 309.069,1384.23 309.069,1384.23 309.069,1384.23 309.07,1384.23 309.07,1384.23 309.07,1384.23 309.07,1384.23 309.07,1384.23 309.07,1384.23 309.07,1384.23 309.07,1384.23 309.07,1384.23 309.07,1384.23 309.07,1384.23 309.07,1384.22 309.07,1384.22 309.07,1384.22 309.07,1384.22 309.07,1384.22 309.07,1384.22 309.07,1384.22 309.07,1384.22 309.07,1384.22 309.07,1384.22 309.07,1384.22 309.071,1384.22 309.071,1384.22 309.071,1384.22 309.071,1384.22 309.071,1384.22 309.071,1384.22 309.071,1384.22 309.071,1384.22 309.071,1384.22 309.071,1384.22 309.071,1384.22 309.071,1384.22 309.071,1384.22 309.071,1384.22 309.071,1384.22 309.071,1384.22 309.071,1384.22 309.072,1384.22 309.072,1384.22 309.072,1384.22 309.072,1384.22 309.072,1384.22 309.072,1384.22 309.072,1384.22 309.072,1384.22 309.072,1384.22 309.072,1384.21 309.072,1384.21 309.072,1384.21 309.072,1384.21 309.073,1384.21 309.073,1384.21 309.073,1384.21 309.073,1384.21 309.073,1384.21 309.073,1384.21 309.073,1384.21 309.073,1384.21 309.073,1384.21 309.073,1384.21 309.074,1384.21 309.074,1384.21 309.074,1384.21 309.074,1384.21 309.074,1384.21 309.074,1384.21 309.074,1384.21 309.074,1384.21 309.074,1384.2 309.075,1384.2 309.075,1384.2 309.075,1384.2 309.075,1384.2 309.075,1384.2 309.075,1384.2 309.075,1384.2 309.076,1384.2 309.076,1384.2 309.076,1384.2 309.076,1384.2 309.076,1384.2 309.076,1384.2 309.076,1384.2 309.077,1384.2 309.077,1384.19 309.077,1384.19 309.077,1384.19 309.077,1384.19 309.077,1384.19 309.078,1384.19 309.078,1384.19 309.078,1384.19 309.078,1384.19 309.078,1384.19 309.079,1384.19 309.079,1384.19 309.079,1384.18 309.079,1384.18 309.08,1384.18 309.08,1384.18 309.08,1384.18 309.08,1384.18 309.08,1384.18 309.081,1384.18 309.081,1384.18 309.081,1384.17 309.082,1384.17 309.082,1384.17 309.082,1384.17 309.082,1384.17 309.083,1384.17 309.083,1384.17 309.083,1384.17 309.084,1384.16 309.084,1384.16 309.084,1384.16 309.085,1384.16 309.085,1384.16 309.085,1384.16 309.086,1384.16 309.086,1384.15 309.086,1384.15 309.087,1384.15 309.087,1384.15 309.087,1384.15 309.088,1384.15 309.088,1384.14 309.089,1384.14 309.089,1384.14 309.09,1384.14 309.09,1384.14 309.091,1384.13 309.091,1384.13 309.092,1384.13 309.092,1384.13 309.093,1384.12 309.093,1384.12 309.094,1384.12 309.094,1384.12 309.095,1384.12 309.095,1384.11 309.096,1384.11 309.097,1384.11 309.097,1384.1 309.098,1384.1 309.099,1384.1 309.099,1384.1 309.1,1384.09 309.101,1384.09 309.101,1384.09 309.102,1384.08 309.103,1384.08 309.104,1384.08 309.105,1384.07 309.105,1384.07 309.106,1384.06 309.107,1384.06 309.108,1384.06 309.109,1384.05 309.11,1384.05 309.111,1384.04 309.112,1384.04 309.113,1384.03 309.114,1384.03 309.115,1384.02 309.117,1384.02 309.118,1384.01 309.119,1384.01 309.12,1384 309.122,1384 309.123,1383.99 309.124,1383.98 309.126,1383.98 309.127,1383.97 309.129,1383.96 309.13,1383.96 309.132,1383.95 309.133,1383.94 309.135,1383.94 309.137,1383.93 309.139,1383.92 309.141,1383.91 309.143,1383.9 309.145,1383.89 309.147,1383.89 309.149,1383.88 309.151,1383.87 309.153,1383.86 309.156,1383.85 309.158,1383.84 309.16,1383.82 309.163,1383.81 309.166,1383.8 309.168,1383.79 309.171,1383.78 309.174,1383.76 309.177,1383.75 309.18,1383.74 309.184,1383.72 309.187,1383.71 309.191,1383.69 309.194,1383.67 309.198,1383.66 309.202,1383.64 309.206,1383.62 309.21,1383.6 309.214,1383.59 309.219,1383.57 309.224,1383.54 309.228,1383.52 309.233,1383.5 309.239,1383.48 309.244,1383.45 309.25,1383.43 309.256,1383.4 309.262,1383.38 309.268,1383.35 309.274,1383.32 309.281,1383.29 309.288,1383.26 309.296,1383.23 309.303,1383.19 309.311,1383.16 309.32,1383.12 309.328,1383.08 309.337,1383.04 309.347,1383 309.357,1382.96 309.367,1382.91 309.378,1382.86 309.389,1382.81 309.4,1382.76 309.412,1382.71 309.425,1382.65 309.438,1382.59 309.452,1382.53 309.467,1382.47 309.482,1382.4 309.498,1382.33 309.514,1382.26 309.532,1382.18 309.55,1382.1 309.569,1382.02 309.589,1381.93 309.609,1381.84 309.631,1381.74 309.654,1381.64 309.678,1381.53 309.704,1381.42 309.73,1381.31 309.758,1381.18 309.788,1381.05 309.818,1380.92 309.851,1380.77 309.885,1380.62 309.921,1380.47 309.958,1380.3 309.998,1380.13 310.04,1379.94 310.083,1379.75 310.129,1379.55 310.178,1379.33 310.228,1379.11 310.282,1378.88 310.337,1378.63 310.395,1378.38 310.456,1378.11 310.519,1377.84 310.584,1377.55 310.652,1377.25 310.722,1376.94 310.795,1376.62 310.87,1376.29 310.947,1375.96 311.026,1375.61 311.107,1375.26 311.191,1374.89 311.276,1374.52 311.363,1374.14 311.452,1373.75 311.543,1373.35 311.636,1372.95 311.73,1372.54 311.827,1372.12 311.925,1371.69 312.025,1371.25 312.126,1370.81 312.23,1370.36 312.334,1369.91 312.441,1369.45 312.549,1368.98 312.659,1368.5 312.771,1368.02 312.884,1367.53 312.999,1367.03 313.116,1366.53 313.234,1366.02 313.353,1365.5 313.475,1364.98 313.598,1364.45 313.722,1363.91 313.848,1363.37 313.976,1362.82 314.105,1362.27 314.236,1361.71 314.368,1361.14 314.502,1360.56 314.637,1359.99 314.774,1359.4 314.913,1358.81 315.053,1358.21 315.194,1357.61 315.337,1357 315.482,1356.38 315.627,1355.76 315.775,1355.14 315.923,1354.51 316.073,1353.87 316.224,1353.23 316.375,1352.59 316.526,1351.95 316.677,1351.32 316.828,1350.68 316.979,1350.04 317.109,1349.5 317.224,1349.01 317.339,1348.53 317.439,1348.11 317.538,1347.69 317.638,1347.27 317.738,1346.86 317.844,1346.41 317.963,1345.91 318.054,1345.53 318.15,1345.13 318.246,1344.73 318.343,1344.33 318.443,1343.91 318.549,1343.46 318.664,1342.98 318.793,1342.45 318.946,1341.81 319.176,1340.85 319.332,1340.21 319.517,1339.44 319.702,1338.68 319.887,1337.91 320.072,1337.15 320.257,1336.38 320.442,1335.62 320.628,1334.86 320.813,1334.09 320.998,1333.33 321.184,1332.57 321.369,1331.81 321.524,1331.18 321.66,1330.63 321.78,1330.13 321.901,1329.64 322.005,1329.22 322.11,1328.79 322.2,1328.42 322.291,1328.06 322.37,1327.73 322.449,1327.41 322.52,1327.12 322.591,1326.84 322.662,1326.55 322.724,1326.3 322.786,1326.05 322.848,1325.79 322.902,1325.57 322.957,1325.35 323.012,1325.13 323.061,1324.93 323.109,1324.73 323.158,1324.54 323.207,1324.34 323.25,1324.16 323.294,1323.99 323.337,1323.81 323.38,1323.64 323.419,1323.48 323.457,1323.33 323.496,1323.17 323.534,1323.02 323.573,1322.86 323.607,1322.73 323.641,1322.59 323.675,1322.45 323.709,1322.31 323.743,1322.18 323.774,1322.05 323.804,1321.93 323.834,1321.81 323.865,1321.69 323.895,1321.56 323.926,1321.44 323.953,1321.33 323.98,1321.22 324.007,1321.11 324.034,1321 324.061,1320.9 324.088,1320.79 324.113,1320.69 324.137,1320.59 324.161,1320.49 324.186,1320.4 324.21,1320.3 324.234,1320.2 324.259,1320.1 324.281,1320.02 324.302,1319.93 324.324,1319.84 324.346,1319.75 324.368,1319.66 324.39,1319.58 324.412,1319.49 324.433,1319.4 324.453,1319.32 324.473,1319.25 324.492,1319.17 324.512,1319.09 324.531,1319.01 324.551,1318.93 324.57,1318.85 324.59,1318.78 324.609,1318.7 324.627,1318.63 324.644,1318.56 324.662,1318.49 324.679,1318.42 324.697,1318.35 324.714,1318.28 324.732,1318.21 324.749,1318.14 324.767,1318.07 324.784,1318 324.8,1317.93 324.816,1317.87 324.831,1317.81 324.847,1317.75 324.863,1317.68 324.878,1317.62 324.894,1317.56 324.91,1317.5 324.926,1317.43 324.941,1317.37 324.957,1317.31 324.971,1317.25 324.985,1317.19 324.999,1317.14 325.013,1317.08 325.027,1317.03 325.042,1316.97 325.056,1316.91 325.07,1316.86 325.084,1316.8 325.098,1316.74 325.112,1316.69 325.126,1316.63 325.14,1316.58 325.153,1316.52 325.166,1316.47 325.178,1316.42 325.191,1316.37 325.204,1316.32 325.216,1316.27 325.229,1316.22 325.242,1316.17 325.255,1316.12 325.267,1316.07 325.28,1316.02 325.293,1315.97 325.305,1315.92 325.318,1315.87 325.331,1315.82 325.343,1315.77 325.356,1315.72 325.367,1315.67 325.379,1315.62 325.39,1315.58 325.402,1315.53 325.413,1315.49 325.424,1315.44 325.436,1315.4 325.447,1315.35 325.459,1315.31 325.47,1315.26 325.481,1315.22 325.493,1315.17 325.504,1315.13 325.515,1315.08 325.527,1315.04 325.537,1314.99 325.547,1314.95 325.557,1314.91 325.566,1314.88 325.575,1314.84 325.583,1314.81 325.591,1314.78 325.597,1314.75 325.604,1314.73 325.61,1314.71 325.615,1314.68 325.62,1314.66 325.625,1314.64 325.63,1314.63 325.634,1314.61 325.638,1314.59 325.642,1314.58 325.646,1314.56 325.65,1314.54 325.654,1314.53 325.658,1314.51 325.662,1314.5 325.666,1314.48 325.67,1314.47 325.674,1314.45 325.678,1314.43 325.683,1314.42 325.687,1314.4 325.692,1314.38 325.696,1314.36 325.7,1314.35 325.704,1314.33 325.707,1314.32 325.711,1314.3 325.715,1314.29 325.718,1314.27 325.722,1314.26 325.725,1314.25 325.729,1314.23 325.733,1314.22 325.736,1314.2 325.74,1314.19 325.743,1314.17 325.747,1314.16 325.751,1314.15 325.754,1314.13 325.758,1314.11 325.763,1314.1 325.767,1314.08 325.772,1314.06 325.781,1314.03 325.785,1314.01 325.791,1313.98 325.797,1313.96 325.803,1313.94 325.809,1313.91 325.816,1313.89 325.822,1313.86 325.828,1313.84 325.834,1313.82 325.84,1313.79 325.846,1313.77 325.852,1313.74 325.859,1313.72 325.865,1313.69 325.872,1313.66 325.879,1313.63 325.887,1313.6 325.895,1313.57 325.903,1313.54 325.912,1313.5 325.921,1313.47 325.93,1313.43 325.94,1313.39 325.95,1313.35 325.96,1313.31 325.97,1313.27 325.981,1313.23 325.992,1313.19 326.003,1313.14 326.014,1313.1 326.025,1313.05 326.037,1313.01 326.048,1312.96 326.06,1312.92 326.072,1312.87 326.084,1312.82 326.096,1312.77 326.109,1312.73 326.121,1312.68 326.134,1312.63 326.146,1312.57 326.159,1312.52 326.172,1312.47 326.186,1312.42 326.199,1312.37 326.213,1312.31 326.227,1312.26 326.241,1312.2 326.255,1312.15 326.269,1312.09 326.284,1312.03 326.299,1311.97 326.314,1311.91 326.329,1311.85 326.345,1311.79 326.36,1311.73 326.376,1311.66 326.392,1311.6 326.409,1311.54 326.426,1311.47 326.443,1311.4 326.46,1311.33 326.478,1311.26 326.496,1311.19 326.514,1311.12 326.532,1311.05 326.551,1310.97 326.571,1310.9 326.59,1310.82 326.61,1310.74 326.631,1310.66 326.652,1310.58 326.673,1310.49 326.695,1310.41 326.717,1310.32 326.739,1310.23 326.763,1310.14 326.786,1310.05 326.81,1309.95 326.835,1309.85 326.861,1309.75 326.887,1309.65 326.913,1309.54 326.94,1309.44 326.968,1309.33 326.997,1309.21 327.026,1309.1 327.057,1308.98 327.088,1308.86 327.119,1308.73 327.152,1308.6 327.185,1308.47 327.219,1308.34 327.255,1308.2 327.29,1308.06 327.327,1307.92 327.364,1307.77 327.402,1307.62 327.441,1307.47 327.48,1307.31 327.52,1307.16 327.56,1307 327.6,1306.84 327.64,1306.69 327.681,1306.53 327.721,1306.37 327.761,1306.21 327.802,1306.05 327.842,1305.89 327.883,1305.74 327.923,1305.58 327.963,1305.42 328.004,1305.26 328.044,1305.1 328.085,1304.94 328.125,1304.79 328.165,1304.63 328.206,1304.47 328.246,1304.31 328.287,1304.16 328.327,1304 328.367,1303.84 328.408,1303.68 328.448,1303.52 328.489,1303.37 328.529,1303.21 328.569,1303.05 328.61,1302.89 328.65,1302.74 328.691,1302.58 328.731,1302.42 328.771,1302.26 328.812,1302.11 328.852,1301.95 328.893,1301.79 328.933,1301.64 328.969,1301.5 329.005,1301.36 329.041,1301.21 329.078,1301.07 329.114,1300.93 329.15,1300.79 329.186,1300.65 329.222,1300.51 329.258,1300.37 329.291,1300.25 329.323,1300.12 329.356,1299.99 329.388,1299.87 329.421,1299.74 329.453,1299.62 329.486,1299.49 329.518,1299.36 329.551,1299.24 329.583,1299.11 329.616,1298.99 329.645,1298.87 329.674,1298.76 329.703,1298.65 329.732,1298.54 329.761,1298.42 329.791,1298.31 329.82,1298.2 329.849,1298.09 329.878,1297.97 329.907,1297.86 329.936,1297.75 329.965,1297.64 329.991,1297.54 330.018,1297.43 330.044,1297.33 330.07,1297.23 330.096,1297.13 330.122,1297.03 330.148,1296.93 330.174,1296.83 330.2,1296.73 330.227,1296.63 330.253,1296.53 330.279,1296.43 330.305,1296.33 330.331,1296.23 330.355,1296.14 330.378,1296.05 330.401,1295.96 330.425,1295.87 330.448,1295.77 330.472,1295.68 330.495,1295.59 330.519,1295.5 330.542,1295.41 330.565,1295.32 330.589,1295.23 330.612,1295.14 330.636,1295.05 330.659,1294.96 330.683,1294.87 330.706,1294.78 330.73,1294.69 330.751,1294.61 330.772,1294.53 330.793,1294.45 330.814,1294.37 330.835,1294.29 330.856,1294.21 330.877,1294.13 330.898,1294.05 330.919,1293.97 330.94,1293.89 330.961,1293.81 330.982,1293.73 331.003,1293.65 331.024,1293.56 331.045,1293.48 331.066,1293.4 331.087,1293.32 331.108,1293.24 331.129,1293.16 331.15,1293.08 331.171,1293 331.19,1292.93 331.209,1292.86 331.227,1292.78 331.246,1292.71 331.265,1292.64 331.284,1292.57 331.303,1292.5 331.322,1292.42 331.341,1292.35 331.36,1292.28 331.379,1292.21 331.397,1292.13 331.416,1292.06 331.435,1291.99 331.454,1291.92 331.473,1291.85 331.492,1291.77 331.511,1291.7 331.53,1291.63 331.548,1291.56 331.567,1291.48 331.586,1291.41 331.605,1291.34 331.624,1291.27 331.643,1291.2 331.662,1291.12 331.681,1291.05 331.7,1290.98 331.718,1290.91 331.737,1290.84 331.756,1290.76 331.775,1290.69 331.794,1290.62 331.813,1290.55 331.832,1290.48 331.851,1290.4 331.87,1290.33 331.888,1290.26 331.907,1290.19 331.926,1290.12 331.945,1290.04 331.964,1289.97 331.983,1289.9 332.002,1289.83 332.021,1289.76 332.039,1289.68 332.058,1289.61 332.077,1289.54 332.096,1289.47 332.115,1289.4 332.134,1289.33 332.153,1289.25 332.172,1289.18 332.191,1289.11 332.209,1289.04 332.228,1288.97 332.247,1288.89 332.266,1288.82 332.285,1288.75 332.304,1288.68 332.323,1288.61 332.342,1288.54 332.361,1288.46 332.379,1288.39 332.398,1288.32 332.417,1288.25 332.436,1288.18 332.455,1288.11 332.474,1288.03 332.493,1287.96 332.512,1287.89 332.53,1287.82 332.549,1287.75 332.568,1287.68 332.587,1287.6 332.606,1287.53 332.625,1287.46 332.644,1287.39 332.663,1287.32 332.682,1287.24 332.702,1287.17 332.722,1287.09 332.744,1287.01 332.767,1286.92 332.794,1286.82 332.825,1286.7 332.849,1286.61 332.874,1286.52 332.899,1286.42 332.924,1286.33 332.948,1286.24 332.97,1286.15 332.992,1286.07 333.014,1285.99 333.036,1285.91 333.057,1285.82 333.077,1285.75 333.097,1285.68 333.116,1285.6 333.136,1285.53 333.155,1285.45 333.175,1285.38 333.194,1285.31 333.214,1285.23 333.233,1285.16 333.253,1285.08 333.273,1285.01 333.292,1284.94 333.312,1284.86 333.331,1284.79 333.351,1284.72 333.37,1284.64 333.39,1284.57 333.41,1284.49 333.429,1284.42 333.449,1284.35 333.469,1284.27 333.489,1284.19 333.513,1284.1 333.536,1284.02 333.56,1283.93 333.583,1283.84 333.604,1283.76 333.625,1283.68 333.646,1283.6 333.667,1283.52 333.686,1283.45 333.704,1283.38 333.723,1283.31 333.742,1283.24 333.76,1283.17 333.779,1283.1 333.798,1283.03 333.816,1282.96 333.835,1282.89 333.852,1282.83 333.869,1282.77 333.885,1282.7 333.902,1282.64 333.919,1282.58 333.936,1282.51 333.952,1282.45 333.969,1282.39 333.986,1282.32 334.003,1282.26 334.019,1282.2 334.036,1282.14 334.053,1282.07 334.07,1282.01 334.087,1281.95 334.103,1281.88 334.12,1281.82 334.137,1281.76 334.154,1281.7 334.17,1281.63 334.187,1281.57 334.204,1281.51 334.221,1281.44 334.237,1281.38 334.254,1281.32 334.271,1281.25 334.288,1281.19 334.306,1281.12 334.323,1281.06 334.341,1280.99 334.36,1280.92 334.378,1280.85 334.397,1280.78 334.416,1280.71 334.436,1280.64 334.456,1280.56 334.476,1280.49 334.496,1280.41 334.516,1280.34 334.536,1280.26 334.557,1280.18 334.577,1280.11 334.597,1280.03 334.618,1279.96 334.638,1279.88 334.658,1279.81 334.678,1279.73 334.699,1279.65 334.719,1279.58 334.739,1279.5 334.759,1279.43 334.78,1279.35 334.8,1279.28 334.82,1279.2 334.84,1279.12 334.861,1279.05 334.881,1278.97 334.901,1278.9 334.922,1278.82 334.942,1278.75 334.962,1278.67 334.982,1278.59 335.003,1278.52 335.023,1278.44 335.043,1278.37 335.063,1278.29 335.084,1278.22 335.104,1278.14 335.124,1278.07 335.145,1277.99 335.165,1277.91 335.185,1277.84 335.205,1277.76 335.226,1277.69 335.246,1277.61 335.266,1277.54 335.286,1277.46 335.307,1277.39 335.327,1277.31 335.347,1277.24 335.367,1277.16 335.388,1277.08 335.408,1277.01 335.428,1276.93 335.449,1276.86 335.467,1276.79 335.485,1276.72 335.503,1276.65 335.521,1276.59 335.54,1276.52 335.558,1276.45 335.576,1276.38 335.594,1276.32 335.613,1276.25 335.631,1276.18 335.649,1276.11 335.667,1276.05 335.686,1275.98 335.704,1275.91 335.722,1275.84 335.74,1275.77 335.757,1275.71 335.773,1275.65 335.789,1275.59 335.806,1275.53 335.822,1275.47 335.839,1275.41 335.855,1275.35 335.871,1275.29 335.888,1275.23 335.902,1275.17 335.917,1275.12 335.932,1275.06 335.945,1275.02 335.958,1274.97 335.969,1274.92 335.981,1274.88 335.991,1274.85 336.001,1274.81 336.009,1274.78 336.018,1274.75 336.025,1274.72 336.032,1274.69 336.038,1274.67 336.045,1274.65 336.05,1274.62 336.056,1274.6 336.062,1274.58 336.067,1274.56 336.072,1274.55 336.077,1274.53 336.082,1274.51 336.087,1274.49 336.092,1274.47 336.097,1274.45 336.102,1274.43 336.107,1274.41 336.112,1274.4 336.117,1274.38 336.123,1274.36 336.128,1274.34 336.133,1274.32 336.138,1274.3 336.143,1274.28 336.149,1274.26 336.155,1274.24 336.161,1274.22 336.169,1274.19 336.175,1274.17 336.187,1274.12 336.196,1274.09 336.206,1274.05 336.216,1274.01 336.223,1273.98 336.231,1273.96 336.238,1273.93 336.245,1273.91 336.252,1273.88 336.259,1273.85 336.266,1273.83 336.273,1273.8 336.28,1273.77 336.288,1273.75 336.295,1273.72 336.302,1273.69 336.309,1273.67 336.316,1273.64 336.323,1273.62 336.331,1273.59 336.338,1273.56 336.346,1273.53 336.354,1273.5 336.362,1273.47 336.37,1273.44 336.378,1273.41 336.387,1273.38 336.396,1273.35 336.404,1273.32 336.413,1273.28 336.422,1273.25 336.432,1273.22 336.441,1273.18 336.45,1273.15 336.459,1273.11 336.469,1273.08 336.478,1273.04 336.488,1273.01 336.497,1272.97 336.507,1272.94 336.517,1272.9 336.526,1272.87 336.536,1272.83 336.546,1272.79 336.556,1272.76 336.565,1272.72 336.575,1272.68 336.585,1272.65 336.595,1272.61 336.605,1272.57 336.615,1272.54 336.625,1272.5 336.636,1272.46 336.646,1272.43 336.656,1272.39 336.666,1272.35 336.676,1272.31 336.687,1272.27 336.697,1272.24 336.708,1272.2 336.718,1272.16 336.729,1272.12 336.739,1272.08 336.75,1272.04 336.76,1272 336.771,1271.96 336.782,1271.92 336.793,1271.88 336.804,1271.84 336.814,1271.8 336.825,1271.76 336.836,1271.72 336.848,1271.68 336.859,1271.64 336.87,1271.6 336.881,1271.56 336.892,1271.52 336.904,1271.47 336.915,1271.43 336.927,1271.39 336.938,1271.35 336.95,1271.3 336.962,1271.26 336.973,1271.22 336.985,1271.17 336.997,1271.13 337.009,1271.09 337.021,1271.04 337.033,1271 337.045,1270.95 337.058,1270.91 337.07,1270.86 337.082,1270.82 337.095,1270.77 337.107,1270.72 337.12,1270.68 337.133,1270.63 337.146,1270.58 337.158,1270.54 337.171,1270.49 337.184,1270.44 337.198,1270.39 337.211,1270.34 337.224,1270.3 337.238,1270.25 337.251,1270.2 337.265,1270.15 337.278,1270.1 337.292,1270.05 337.306,1269.99 337.32,1269.94 337.334,1269.89 337.348,1269.84 337.363,1269.79 337.377,1269.73 337.392,1269.68 337.406,1269.63 337.421,1269.57 337.436,1269.52 337.451,1269.46 337.466,1269.41 337.482,1269.35 337.497,1269.29 337.512,1269.24 337.528,1269.18 337.544,1269.12 337.56,1269.06 337.576,1269 337.592,1268.95 337.609,1268.89 337.625,1268.82 337.642,1268.76 337.659,1268.7 337.676,1268.64 337.693,1268.58 337.71,1268.51 337.728,1268.45 337.745,1268.38 337.763,1268.32 337.781,1268.25 337.799,1268.19 337.818,1268.12 337.836,1268.05 337.855,1267.98 337.874,1267.91 337.893,1267.84 337.913,1267.77 337.932,1267.7 337.952,1267.63 337.972,1267.56 337.992,1267.48 338.013,1267.41 338.034,1267.33 338.055,1267.25 338.076,1267.18 338.097,1267.1 338.119,1267.02 338.141,1266.94 338.163,1266.86 338.186,1266.77 338.209,1266.69 338.232,1266.61 338.256,1266.52 338.28,1266.43 338.304,1266.34 338.329,1266.25 338.354,1266.16 338.379,1266.07 338.405,1265.98 338.431,1265.88 338.457,1265.79 338.484,1265.69 338.512,1265.59 338.539,1265.49 338.568,1265.38 338.597,1265.28 338.626,1265.17 338.656,1265.06 338.687,1264.95 338.718,1264.84 338.749,1264.72 338.782,1264.6 338.815,1264.48 338.849,1264.36 338.884,1264.23 338.92,1264.1 338.956,1263.97 338.994,1263.83 339.033,1263.69 339.073,1263.55 339.115,1263.4 339.158,1263.24 339.202,1263.08 339.249,1262.91 339.299,1262.73 339.351,1262.54 339.406,1262.34 339.464,1262.13 339.524,1261.91 339.585,1261.69 339.645,1261.48 339.705,1261.26 339.766,1261.04 339.826,1260.82 339.887,1260.6 339.947,1260.39 340.007,1260.17 340.068,1259.95 340.128,1259.73 340.189,1259.52 340.249,1259.3 340.309,1259.08 340.37,1258.86 340.43,1258.65 340.49,1258.43 340.551,1258.21 340.611,1258 340.672,1257.78 340.732,1257.56 340.792,1257.35 340.853,1257.13 340.913,1256.91 340.973,1256.7 341.034,1256.48 341.094,1256.27 341.155,1256.05 341.215,1255.83 341.275,1255.62 341.336,1255.4 341.396,1255.19 341.457,1254.97 341.517,1254.76 341.577,1254.54 341.638,1254.33 341.698,1254.11 341.758,1253.9 341.819,1253.68 341.879,1253.47 341.94,1253.25 342,1253.04 342.06,1252.82 342.121,1252.61 342.175,1252.41 342.229,1252.22 342.283,1252.03 342.337,1251.84 342.392,1251.65 342.446,1251.45 342.5,1251.26 342.554,1251.07 342.608,1250.88 342.662,1250.69 342.717,1250.49 342.771,1250.3 342.825,1250.11 342.873,1249.94 342.922,1249.77 342.97,1249.6 343.019,1249.43 343.067,1249.26 343.116,1249.08 343.164,1248.91 343.213,1248.74 343.261,1248.57 343.31,1248.4 343.358,1248.23 343.407,1248.06 343.455,1247.89 343.504,1247.72 343.552,1247.55 343.596,1247.39 343.639,1247.24 343.683,1247.09 343.727,1246.93 343.77,1246.78 343.814,1246.63 343.857,1246.47 343.901,1246.32 343.945,1246.17 343.988,1246.02 344.032,1245.86 344.075,1245.71 344.119,1245.56 344.163,1245.4 344.206,1245.25 344.25,1245.1 344.294,1244.95 344.337,1244.79 344.381,1244.64 344.424,1244.49 344.468,1244.34 344.512,1244.18 344.551,1244.05 344.59,1243.91 344.629,1243.77 344.668,1243.64 344.708,1243.5 344.747,1243.36 344.786,1243.22 344.825,1243.09 344.865,1242.95 344.904,1242.81 344.943,1242.68 344.982,1242.54 345.021,1242.4 345.061,1242.27 345.1,1242.13 345.139,1241.99 345.178,1241.86 345.218,1241.72 345.257,1241.59 345.296,1241.45 345.335,1241.31 345.374,1241.18 345.414,1241.04 345.453,1240.9 345.492,1240.77 345.531,1240.63 345.571,1240.5 345.61,1240.36 345.649,1240.22 345.688,1240.09 345.727,1239.95 345.767,1239.82 345.806,1239.68 345.845,1239.54 345.884,1239.41 345.923,1239.27 345.963,1239.14 346.002,1239 346.041,1238.87 346.08,1238.73 346.12,1238.59 346.159,1238.46 346.198,1238.32 346.237,1238.19 346.276,1238.05 346.316,1237.92 346.356,1237.78 346.396,1237.64 346.436,1237.5 346.477,1237.36 346.518,1237.22 346.56,1237.08 346.601,1236.93 346.643,1236.79 346.686,1236.64 346.728,1236.49 346.771,1236.35 346.815,1236.2 346.859,1236.05 346.903,1235.89 346.948,1235.74 346.992,1235.59 347.038,1235.43 347.084,1235.27 347.13,1235.11 347.177,1234.95 347.189,1234.91 347.202,1234.87 347.214,1234.83 347.226,1234.78 347.239,1234.74 347.251,1234.7 347.263,1234.66 347.276,1234.61 347.288,1234.57 347.301,1234.53 347.313,1234.49 347.325,1234.44 347.338,1234.4 347.35,1234.36 347.362,1234.32 347.375,1234.27 347.387,1234.23 347.4,1234.19 347.412,1234.15 347.424,1234.1 347.437,1234.06 347.449,1234.02 347.462,1233.98 347.474,1233.93 347.486,1233.89 347.499,1233.85 347.511,1233.81 347.523,1233.77 347.536,1233.72 347.548,1233.68 347.561,1233.64 347.573,1233.6 347.585,1233.55 347.598,1233.51 347.61,1233.47 347.622,1233.43 347.635,1233.38 347.647,1233.34 347.66,1233.3 347.672,1233.26 347.684,1233.21 347.697,1233.17 347.709,1233.13 347.722,1233.09 347.734,1233.05 347.746,1233 347.759,1232.96 347.771,1232.92 347.783,1232.88 347.796,1232.83 347.808,1232.79 347.821,1232.75 347.833,1232.71 347.845,1232.66 347.858,1232.62 347.87,1232.58 347.882,1232.54 347.895,1232.5 347.907,1232.45 347.92,1232.41 347.932,1232.37 347.944,1232.33 347.957,1232.28 347.969,1232.24 347.981,1232.2 347.994,1232.16 348.006,1232.11 348.019,1232.07 348.031,1232.03 348.043,1231.99 348.056,1231.95 348.068,1231.9 348.081,1231.86 348.093,1231.82 348.105,1231.78 348.118,1231.73 348.13,1231.69 348.142,1231.65 348.155,1231.61 348.167,1231.57 348.18,1231.52 348.192,1231.48 348.204,1231.44 348.217,1231.4 348.229,1231.36 348.241,1231.31 348.254,1231.27 348.266,1231.23 348.279,1231.19 348.291,1231.14 348.303,1231.1 348.316,1231.06 348.328,1231.02 348.341,1230.98 348.353,1230.93 348.365,1230.89 348.378,1230.85 348.39,1230.81 348.402,1230.76 348.415,1230.72 348.427,1230.68 348.44,1230.64 348.452,1230.6 348.464,1230.55 348.477,1230.51 348.489,1230.47 348.501,1230.43 348.514,1230.39 348.526,1230.34 348.539,1230.3 348.551,1230.26 348.563,1230.22 348.576,1230.18 348.588,1230.13 348.6,1230.09 348.613,1230.05 348.625,1230.01 348.638,1229.97 348.65,1229.92 348.662,1229.88 348.675,1229.84 348.687,1229.8 348.7,1229.75 348.712,1229.71 348.724,1229.67 348.737,1229.63 348.749,1229.59 348.761,1229.54 348.774,1229.5 348.786,1229.46 348.799,1229.42 348.811,1229.38 348.823,1229.33 348.836,1229.29 348.848,1229.25 348.86,1229.21 348.873,1229.17 348.885,1229.12 348.896,1229.09 348.907,1229.05 348.919,1229.01 348.93,1228.97 348.941,1228.94 348.952,1228.9 348.963,1228.86 348.974,1228.82 348.985,1228.78 348.997,1228.75 349.008,1228.71 349.019,1228.67 349.03,1228.63 349.041,1228.6 349.052,1228.56 349.063,1228.52 349.074,1228.48 349.086,1228.45 349.097,1228.41 349.108,1228.37 349.119,1228.33 349.13,1228.29 349.141,1228.26 349.152,1228.22 349.164,1228.18 349.175,1228.14 349.186,1228.11 349.197,1228.07 349.208,1228.03 349.219,1227.99 349.23,1227.96 349.242,1227.92 349.253,1227.88 349.264,1227.84 349.275,1227.8 349.286,1227.77 349.297,1227.73 349.308,1227.69 349.319,1227.65 349.331,1227.62 349.342,1227.58 349.353,1227.54 349.364,1227.5 349.375,1227.47 349.386,1227.43 349.397,1227.39 349.409,1227.35 349.42,1227.31 349.431,1227.28 349.442,1227.24 349.453,1227.2 349.464,1227.16 349.475,1227.13 349.486,1227.09 349.498,1227.05 349.509,1227.01 349.52,1226.98 349.531,1226.94 349.542,1226.9 349.553,1226.86 349.564,1226.83 349.576,1226.79 349.587,1226.75 349.598,1226.71 349.609,1226.68 349.62,1226.64 349.631,1226.6 349.642,1226.56 349.653,1226.53 349.665,1226.49 349.676,1226.45 349.687,1226.41 349.698,1226.38 349.709,1226.34 349.72,1226.3 349.731,1226.26 349.743,1226.22 349.754,1226.19 349.765,1226.15 349.776,1226.11 349.787,1226.07 349.798,1226.04 349.809,1226 349.82,1225.96 349.832,1225.92 349.843,1225.89 349.854,1225.85 349.865,1225.81 349.876,1225.77 349.887,1225.74 349.898,1225.7 349.91,1225.66 349.921,1225.62 349.932,1225.59 349.943,1225.55 349.954,1225.51 349.965,1225.47 349.976,1225.44 349.987,1225.4 349.999,1225.36 350.01,1225.32 350.021,1225.29 350.032,1225.25 350.043,1225.21 350.054,1225.17 350.065,1225.14 350.077,1225.1 350.088,1225.06 350.099,1225.02 350.11,1224.99 350.121,1224.95 350.132,1224.91 350.143,1224.87 350.154,1224.84 350.166,1224.8 350.177,1224.76 350.188,1224.73 350.199,1224.69 350.21,1224.65 350.221,1224.61 350.232,1224.58 350.244,1224.54 350.255,1224.5 350.266,1224.46 350.277,1224.43 350.288,1224.39 350.299,1224.35 350.31,1224.31 350.322,1224.28 350.333,1224.24 350.344,1224.2 350.355,1224.16 350.366,1224.13 350.377,1224.09 350.388,1224.05 350.399,1224.01 350.411,1223.98 350.422,1223.94 350.433,1223.9 350.444,1223.86 350.455,1223.83 350.466,1223.79 350.477,1223.75 350.489,1223.72 350.5,1223.68 350.511,1223.64 350.522,1223.6 350.533,1223.57 350.544,1223.53 350.555,1223.49 350.566,1223.45 350.578,1223.42 350.589,1223.38 350.6,1223.34 350.611,1223.3 350.622,1223.27 350.633,1223.23 350.644,1223.19 350.656,1223.16 350.667,1223.12 350.678,1223.08 350.689,1223.04 350.7,1223.01 350.711,1222.97 350.722,1222.93 350.733,1222.89 350.745,1222.86 350.756,1222.82 350.767,1222.78 350.778,1222.75 350.789,1222.71 350.8,1222.67 350.811,1222.63 350.823,1222.6 350.834,1222.56 350.845,1222.52 350.856,1222.48 350.867,1222.45 350.878,1222.41 350.889,1222.37 350.9,1222.34 350.912,1222.3 350.923,1222.26 350.934,1222.22 350.945,1222.19 350.956,1222.15 350.967,1222.11 350.978,1222.07 350.99,1222.04 351.001,1222 351.012,1221.96 351.023,1221.93 351.034,1221.89 351.045,1221.85 351.056,1221.81 351.067,1221.78 351.079,1221.74 351.09,1221.7 351.101,1221.66 351.112,1221.63 351.123,1221.59 351.134,1221.55 351.145,1221.52 351.157,1221.48 351.168,1221.44 351.179,1221.4 351.19,1221.37 351.201,1221.33 351.212,1221.29 351.223,1221.26 351.234,1221.22 351.246,1221.18 351.257,1221.14 351.268,1221.11 351.279,1221.07 351.29,1221.03 351.301,1221 351.312,1220.96 351.324,1220.92 351.335,1220.88 351.346,1220.85 351.357,1220.81 351.368,1220.77 351.379,1220.74 351.39,1220.7 351.401,1220.66 351.413,1220.62 351.424,1220.59 351.435,1220.55 351.446,1220.51 351.457,1220.48 351.468,1220.44 351.479,1220.4 351.491,1220.36 351.502,1220.33 351.513,1220.29 351.524,1220.25 351.535,1220.22 351.546,1220.18 351.557,1220.14 351.569,1220.1 351.58,1220.07 351.591,1220.03 351.602,1219.99 351.613,1219.96 351.624,1219.92 351.635,1219.88 351.646,1219.85 351.658,1219.81 351.669,1219.77 351.68,1219.73 351.691,1219.7 351.702,1219.66 351.713,1219.62 351.724,1219.59 351.736,1219.55 351.747,1219.51 351.758,1219.47 351.769,1219.44 351.78,1219.4 351.791,1219.36 351.802,1219.33 351.813,1219.29 351.825,1219.25 351.836,1219.22 351.847,1219.18 351.858,1219.14 351.869,1219.1 351.88,1219.07 351.891,1219.03 351.903,1218.99 351.914,1218.96 351.925,1218.92 351.936,1218.88 351.947,1218.85 351.958,1218.81 351.969,1218.77 351.98,1218.73 351.992,1218.7 352.003,1218.66 352.014,1218.62 352.025,1218.59 352.036,1218.55 352.047,1218.51 352.058,1218.48 352.07,1218.44 352.081,1218.4 352.092,1218.36 352.103,1218.33 352.114,1218.29 352.125,1218.25 352.136,1218.22 352.147,1218.18 352.159,1218.14 352.17,1218.11 352.181,1218.07 352.192,1218.03 352.203,1218 352.214,1217.96 352.225,1217.92 352.237,1217.88 352.248,1217.85 352.259,1217.81 352.27,1217.77 352.281,1217.74 352.292,1217.7 352.303,1217.66 352.314,1217.63 352.326,1217.59 352.337,1217.55 352.348,1217.52 352.359,1217.48 352.37,1217.44 352.381,1217.4 352.392,1217.37 352.404,1217.33 352.415,1217.29 352.426,1217.26 352.437,1217.22 352.448,1217.18 352.459,1217.15 352.47,1217.11 352.481,1217.07 352.493,1217.04 352.504,1217 352.515,1216.96 352.526,1216.93 352.537,1216.89 352.548,1216.85 352.559,1216.81 352.571,1216.78 352.582,1216.74 352.593,1216.7 352.604,1216.67 352.615,1216.63 352.626,1216.59 352.637,1216.56 352.649,1216.52 352.66,1216.48 352.671,1216.45 352.682,1216.41 352.693,1216.37 352.704,1216.34 352.715,1216.3 352.726,1216.26 352.738,1216.23 352.749,1216.19 352.76,1216.15 352.771,1216.12 352.782,1216.08 352.794,1216.04 352.805,1216 352.816,1215.97 352.827,1215.93 352.839,1215.89 352.85,1215.85 352.861,1215.82 352.873,1215.78 352.884,1215.74 352.896,1215.7 352.907,1215.67 352.919,1215.63 352.93,1215.59 352.942,1215.55 352.953,1215.51 352.965,1215.47 352.977,1215.44 352.988,1215.4 353,1215.36 353.012,1215.32 353.024,1215.28 353.035,1215.24 353.047,1215.2 353.059,1215.16 353.071,1215.13 353.083,1215.09 353.095,1215.05 353.107,1215.01 353.119,1214.97 353.131,1214.93 353.143,1214.89 353.155,1214.85 353.167,1214.81 353.179,1214.77 353.192,1214.73 353.204,1214.69 353.216,1214.65 353.229,1214.61 353.241,1214.57 353.253,1214.52 353.266,1214.48 353.278,1214.44 353.291,1214.4 353.303,1214.36 353.316,1214.32 353.328,1214.28 353.341,1214.24 353.354,1214.19 353.366,1214.15 353.379,1214.11 353.392,1214.07 353.405,1214.03 353.418,1213.98 353.431,1213.94 353.444,1213.9 353.457,1213.86 353.47,1213.81 353.483,1213.77 353.496,1213.73 353.509,1213.68 353.522,1213.64 353.535,1213.6 353.549,1213.55 353.562,1213.51 353.575,1213.46 353.589,1213.42 353.602,1213.38 353.616,1213.33 353.629,1213.29 353.643,1213.24 353.657,1213.2 353.67,1213.15 353.684,1213.11 353.698,1213.06 353.712,1213.02 353.725,1212.97 353.739,1212.93 353.753,1212.88 353.767,1212.83 353.781,1212.79 353.795,1212.74 353.81,1212.7 353.824,1212.65 353.838,1212.6 353.852,1212.56 353.867,1212.51 353.881,1212.46 353.896,1212.41 353.91,1212.37 353.925,1212.32 353.939,1212.27 353.954,1212.22 353.969,1212.17 353.983,1212.13 353.998,1212.08 354.013,1212.03 354.028,1211.98 354.043,1211.93 354.058,1211.88 354.073,1211.83 354.088,1211.78 354.104,1211.73 354.119,1211.68 354.134,1211.63 354.15,1211.58 354.165,1211.53 354.181,1211.48 354.196,1211.43 354.212,1211.38 354.228,1211.33 354.244,1211.27 354.259,1211.22 354.275,1211.17 354.291,1211.12 354.307,1211.07 354.323,1211.01 354.34,1210.96 354.356,1210.91 354.372,1210.85 354.389,1210.8 354.405,1210.75 354.422,1210.69 354.438,1210.64 354.455,1210.58 354.472,1210.53 354.488,1210.47 354.505,1210.42 354.522,1210.36 354.539,1210.31 354.556,1210.25 354.574,1210.2 354.591,1210.14 354.608,1210.08 354.626,1210.03 354.643,1209.97 354.661,1209.91 354.678,1209.85 354.696,1209.8 354.714,1209.74 354.732,1209.68 354.75,1209.62 354.768,1209.56 354.786,1209.5 354.805,1209.44 354.823,1209.38 354.841,1209.32 354.86,1209.26 354.878,1209.2 354.897,1209.14 354.916,1209.08 354.935,1209.02 354.954,1208.96 354.973,1208.89 354.992,1208.83 355.011,1208.77 355.031,1208.71 355.05,1208.64 355.07,1208.58 355.089,1208.51 355.109,1208.45 355.129,1208.39 355.149,1208.32 355.169,1208.26 355.189,1208.19 355.21,1208.12 355.23,1208.06 355.25,1207.99 355.271,1207.92 355.292,1207.86 355.313,1207.79 355.334,1207.72 355.355,1207.65 355.376,1207.58 355.397,1207.51 355.418,1207.44 355.44,1207.38 355.462,1207.3 355.483,1207.23 355.505,1207.16 355.527,1207.09 355.549,1207.02 355.572,1206.95 355.594,1206.88 355.616,1206.8 355.639,1206.73 355.662,1206.66 355.685,1206.58 355.708,1206.51 355.731,1206.43 355.754,1206.36 355.777,1206.28 355.801,1206.2 355.825,1206.13 355.848,1206.05 355.872,1205.97 355.896,1205.9 355.921,1205.82 355.945,1205.74 355.97,1205.66 355.994,1205.58 356.019,1205.5 356.044,1205.42 356.069,1205.34 356.094,1205.26 356.12,1205.17 356.145,1205.09 356.171,1205.01 356.197,1204.93 356.223,1204.84 356.249,1204.76 356.275,1204.67 356.301,1204.59 356.328,1204.5 356.355,1204.42 356.382,1204.33 356.409,1204.24 356.436,1204.15 356.463,1204.06 356.491,1203.98 356.519,1203.89 356.547,1203.8 356.575,1203.71 356.603,1203.62 356.631,1203.52 356.66,1203.43 356.689,1203.34 356.718,1203.25 356.747,1203.15 356.776,1203.06 356.805,1202.96 356.835,1202.87 356.865,1202.77 356.895,1202.68 356.925,1202.58 356.955,1202.48 356.985,1202.39 357.016,1202.29 357.047,1202.19 357.078,1202.09 357.109,1201.99 357.14,1201.89 357.172,1201.79 357.204,1201.68 357.236,1201.58 357.268,1201.48 357.3,1201.38 357.332,1201.27 357.365,1201.17 357.398,1201.06 357.431,1200.96 357.464,1200.85 357.497,1200.74 357.531,1200.64 357.565,1200.53 357.599,1200.42 357.633,1200.31 357.667,1200.2 357.701,1200.09 357.736,1199.98 357.771,1199.87 357.806,1199.76 357.841,1199.64 357.876,1199.53 357.912,1199.42 357.948,1199.3 357.983,1199.19 358.02,1199.07 358.056,1198.96 358.092,1198.84 358.129,1198.73 358.166,1198.61 358.203,1198.49 358.24,1198.37 358.277,1198.25 358.315,1198.13 358.352,1198.01 358.39,1197.89 358.428,1197.77 358.467,1197.65 358.505,1197.53 358.544,1197.41 358.582,1197.28 358.621,1197.16 358.66,1197.04 358.7,1196.91 358.739,1196.79 358.779,1196.66 358.818,1196.53 358.858,1196.41 358.898,1196.28 358.939,1196.15 358.979,1196.02 359.02,1195.9 359.06,1195.77 359.101,1195.64 359.142,1195.51 359.184,1195.38 359.225,1195.24 359.267,1195.11 359.308,1194.98 359.35,1194.85 359.392,1194.72 359.434,1194.58 359.477,1194.45 359.519,1194.31 359.562,1194.18 359.605,1194.04 359.648,1193.91 359.691,1193.77 359.734,1193.64 359.778,1193.5 359.821,1193.36 359.865,1193.22 359.909,1193.09 359.953,1192.95 359.997,1192.81 360.041,1192.67 360.086,1192.53 360.13,1192.39 360.175,1192.25 360.22,1192.11 360.265,1191.96 360.31,1191.82 360.355,1191.68 360.401,1191.54 360.447,1191.39 360.492,1191.25 360.538,1191.11 360.584,1190.96 360.63,1190.82 360.677,1190.67 360.723,1190.53 360.77,1190.38 360.816,1190.23 360.863,1190.09 360.91,1189.94 360.958,1189.79 361.005,1189.64 361.052,1189.5 361.1,1189.35 361.147,1189.2 361.195,1189.05 361.243,1188.9 361.291,1188.75 361.34,1188.6 361.388,1188.45 361.437,1188.3 361.485,1188.14 361.534,1187.99 361.583,1187.84 361.632,1187.69 361.681,1187.53 361.731,1187.38 361.78,1187.23 361.83,1187.07 361.88,1186.92 361.93,1186.76 361.98,1186.61 362.03,1186.45 362.08,1186.29 362.131,1186.14 362.181,1185.98 362.232,1185.82 362.283,1185.66 362.334,1185.51 362.385,1185.35 362.437,1185.19 362.488,1185.03 362.54,1184.87 362.592,1184.71 362.644,1184.55 362.696,1184.39 362.748,1184.22 362.8,1184.06 362.853,1183.9 362.905,1183.74 362.958,1183.57 363.011,1183.41 363.064,1183.25 363.118,1183.08 363.171,1182.92 363.225,1182.75 363.278,1182.59 363.332,1182.42 363.386,1182.25 363.441,1182.09 363.495,1181.92 363.549,1181.75 363.604,1181.58 363.659,1181.42 363.714,1181.25 363.769,1181.08 363.825,1180.91 363.88,1180.74 363.936,1180.57 363.992,1180.39 364.047,1180.22 364.104,1180.05 364.16,1179.88 364.216,1179.7 364.273,1179.53 364.33,1179.36 364.387,1179.18 364.444,1179.01 364.502,1178.83 364.559,1178.66 364.617,1178.48 364.675,1178.3 364.733,1178.13 364.791,1177.95 364.849,1177.77 364.908,1177.59 364.967,1177.41 365.026,1177.23 365.085,1177.05 365.144,1176.87 365.204,1176.69 365.263,1176.51 365.323,1176.33 365.383,1176.14 365.444,1175.96 365.504,1175.78 365.565,1175.59 365.626,1175.41 365.687,1175.22 365.748,1175.04 365.809,1174.85 365.871,1174.66 365.933,1174.48 365.995,1174.29 366.057,1174.1 366.12,1173.91 366.182,1173.72 366.245,1173.53 366.308,1173.34 366.371,1173.15 366.435,1172.96 366.499,1172.77 366.563,1172.57 366.627,1172.38 366.691,1172.19 366.756,1171.99 366.82,1171.8 366.886,1171.6 366.951,1171.4 367.016,1171.21 367.082,1171.01 367.148,1170.81 367.214,1170.61 367.28,1170.41 367.347,1170.21 367.414,1170.01 367.481,1169.81 367.548,1169.61 367.616,1169.41 367.683,1169.21 367.751,1169 367.82,1168.8 367.888,1168.59 367.957,1168.39 368.026,1168.18 368.095,1167.97 368.165,1167.77 368.234,1167.56 368.304,1167.35 368.375,1167.14 368.445,1166.93 368.516,1166.72 368.587,1166.51 368.658,1166.3 368.73,1166.08 368.801,1165.87 368.874,1165.66 368.946,1165.44 369.018,1165.23 369.091,1165.01 369.165,1164.79 369.238,1164.57 369.312,1164.36 369.386,1164.14 369.46,1163.92 369.534,1163.7 369.609,1163.47 369.684,1163.25 369.76,1163.03 369.836,1162.81 369.912,1162.58 369.988,1162.36 370.064,1162.13 370.141,1161.9 370.219,1161.68 370.296,1161.45 370.374,1161.22 370.452,1160.99 370.53,1160.76 370.609,1160.53 370.688,1160.29 370.767,1160.06 370.847,1159.83 370.927,1159.59 371.007,1159.36 371.088,1159.12 371.169,1158.88 371.25,1158.65 371.332,1158.41 371.414,1158.17 371.496,1157.93 371.579,1157.69 371.662,1157.44 371.745,1157.2 371.829,1156.96 371.913,1156.71 371.997,1156.47 372.082,1156.22 372.167,1155.97 372.253,1155.72 372.339,1155.47 372.425,1155.22 372.511,1154.97 372.598,1154.72 372.686,1154.47 372.773,1154.21 372.861,1153.96 372.95,1153.7 373.039,1153.44 373.128,1153.18 373.217,1152.93 373.307,1152.67 373.398,1152.4 373.489,1152.14 373.58,1151.88 373.672,1151.61 373.764,1151.35 373.856,1151.08 373.949,1150.82 374.042,1150.55 374.136,1150.28 374.23,1150.01 374.325,1149.74 374.42,1149.46 374.515,1149.19 374.611,1148.91 374.708,1148.64 374.804,1148.36 374.902,1148.08 374.999,1147.8 375.098,1147.52 375.196,1147.24 375.295,1146.96 375.395,1146.67 375.495,1146.39 375.596,1146.1 375.697,1145.82 375.798,1145.53 375.9,1145.24 376.003,1144.95 376.106,1144.65 376.209,1144.36 376.313,1144.06 376.418,1143.77 376.523,1143.47 376.629,1143.17 376.735,1142.87 376.842,1142.57 376.949,1142.27 377.057,1141.96 377.165,1141.66 377.274,1141.35 377.384,1141.04 377.494,1140.73 377.604,1140.42 377.716,1140.11 377.828,1139.79 377.94,1139.48 378.053,1139.16 378.167,1138.84 378.281,1138.52 378.396,1138.2 378.511,1137.88 378.627,1137.55 378.744,1137.23 378.862,1136.9 378.98,1136.57 379.098,1136.24 379.218,1135.91 379.338,1135.57 379.459,1135.24 379.58,1134.9 379.702,1134.56 379.825,1134.22 379.949,1133.88 380.073,1133.53 380.198,1133.19 380.324,1132.84 380.45,1132.49 380.577,1132.14 380.706,1131.78 380.834,1131.43 380.964,1131.07 381.094,1130.71 381.226,1130.35 381.358,1129.99 381.49,1129.62 381.624,1129.26 381.759,1128.89 381.894,1128.52 382.03,1128.14 382.167,1127.77 382.305,1127.39 382.444,1127.01 382.584,1126.63 382.725,1126.25 382.867,1125.86 383.009,1125.47 383.153,1125.08 383.298,1124.69 383.443,1124.29 383.59,1123.9 383.738,1123.5 383.886,1123.09 384.036,1122.69 384.187,1122.28 384.339,1121.87 384.492,1121.46 384.646,1121.04 384.802,1120.63 384.958,1120.2 385.116,1119.78 385.275,1119.35 385.435,1118.92 385.597,1118.49 385.759,1118.06 385.923,1117.62 386.089,1117.18 386.255,1116.73 386.424,1116.28 386.593,1115.83 386.764,1115.38 386.936,1114.92 387.11,1114.46 387.286,1113.99 387.462,1113.53 387.641,1113.05 387.821,1112.58 388.003,1112.1 388.186,1111.61 388.372,1111.13 388.559,1110.63 388.747,1110.14 388.938,1109.64 389.131,1109.13 389.325,1108.62 389.522,1108.11 389.721,1107.59 389.921,1107.06 390.124,1106.54 390.33,1106 390.537,1105.46 390.747,1104.92 390.96,1104.36 391.175,1103.81 391.393,1103.24 391.613,1102.67 391.837,1102.1 392.063,1101.51 392.292,1100.92 392.525,1100.33 392.761,1099.72 393.001,1099.11 393.244,1098.48 393.491,1097.85 393.742,1097.21 393.998,1096.56 394.258,1095.9 394.523,1095.22 394.793,1094.54 395.069,1093.84 395.351,1093.13 395.639,1092.4 395.934,1091.65 396.238,1090.89 396.55,1090.11 396.871,1089.3 397.205,1088.47 397.551,1087.6 397.914,1086.7 398.297,1085.75 398.709,1084.73 399.165,1083.6 399.739,1082.18 400.313,1080.77 400.888,1079.36 401.462,1077.96 401.97,1076.72 402.479,1075.48 402.987,1074.25 403.496,1073.02 404.004,1071.8 404.458,1070.71 404.913,1069.62 405.367,1068.54 405.821,1067.45 406.276,1066.37 406.73,1065.3 407.184,1064.22 407.638,1063.15 408.093,1062.08 408.547,1061.01 409.001,1059.95 409.455,1058.89 409.91,1057.83 410.364,1056.78 410.818,1055.72 411.273,1054.67 411.727,1053.62 412.181,1052.58 412.635,1051.54 413.09,1050.5 413.544,1049.46 413.998,1048.42 414.452,1047.39 414.907,1046.36 415.361,1045.33 415.815,1044.31 416.27,1043.29 416.724,1042.26 417.178,1041.25 417.632,1040.23 418.087,1039.22 418.541,1038.21 418.995,1037.2 419.449,1036.2 419.904,1035.19 420.358,1034.19 420.812,1033.19 421.266,1032.2 421.721,1031.2 422.175,1030.21 422.629,1029.23 423.084,1028.24 423.538,1027.25 423.992,1026.27 424.446,1025.29 424.901,1024.32 425.355,1023.34 425.809,1022.37 426.263,1021.4 426.718,1020.43 427.172,1019.46 427.626,1018.5 428.081,1017.54 428.535,1016.58 428.989,1015.62 429.443,1014.67 429.898,1013.72 430.352,1012.76 430.806,1011.82 431.26,1010.87 431.715,1009.93 432.169,1008.99 432.623,1008.05 433.078,1007.11 433.532,1006.17 433.986,1005.24 434.44,1004.31 434.895,1003.38 435.349,1002.45 435.803,1001.53 436.257,1000.6 436.712,999.684 437.166,998.765 437.62,997.848 438.074,996.934 438.529,996.021 438.984,995.109 439.44,994.197 439.898,993.283 440.357,992.369 440.818,991.452 441.282,990.533 441.748,989.611 442.217,988.686 442.688,987.759 443.162,986.827 443.639,985.893 444.118,984.955 444.601,984.013 445.087,983.067 445.576,982.117 446.069,981.163 446.564,980.205 447.063,979.243 447.566,978.276 448.072,977.305 448.581,976.329 449.094,975.349 449.611,974.364 450.132,973.374 450.656,972.38 451.184,971.381 451.716,970.376 452.253,969.367 452.793,968.352 453.337,967.332 453.886,966.307 454.439,965.277 454.996,964.241 455.558,963.199 456.125,962.151 456.696,961.098 457.271,960.039 457.852,958.973 458.437,957.902 459.028,956.824 459.623,955.74 460.224,954.65 460.83,953.552 461.441,952.448 462.058,951.338 462.68,950.22 463.309,949.094 463.943,947.962 464.583,946.822 465.229,945.674 465.881,944.519 466.54,943.356 467.206,942.184 467.878,941.004 468.557,939.815 469.243,938.618 469.936,937.412 470.637,936.196 471.345,934.971 472.061,933.736 472.786,932.491 473.518,931.236 474.259,929.97 475.009,928.694 475.767,927.406 476.535,926.107 477.313,924.795 478.1,923.472 478.898,922.135 479.706,920.786 480.525,919.423 481.356,918.045 482.198,916.653 483.053,915.245 483.92,913.821 484.801,912.381 485.696,910.923 486.605,909.447 487.53,907.951 488.471,906.435 489.429,904.897 490.405,903.337 491.4,901.752 492.415,900.142 493.452,898.503 494.513,896.834 495.599,895.133 496.713,893.396 497.857,891.619 499.034,889.798 500.25,887.928 501.509,886 502.818,884.005 504.187,881.929 505.632,879.75 507.179,877.43 508.884,874.889 510.953,871.827 513.022,868.789 515.091,865.773 517.16,862.781 519.229,859.811 521.298,856.864 523.367,853.938 525.224,851.331 527.081,848.74 528.938,846.167 530.795,843.61 532.652,841.07 534.508,838.546 536.365,836.039 538.222,833.547 540.079,831.071 541.936,828.61 543.793,826.165 545.65,823.735 547.506,821.32 549.363,818.919 551.22,816.534 553.077,814.162 554.934,811.805 556.791,809.463 558.648,807.134 560.504,804.819 562.361,802.517 564.218,800.229 566.075,797.954 567.932,795.693 569.789,793.444 571.645,791.209 573.502,788.986 575.359,786.776 577.216,784.578 579.073,782.392 580.93,780.219 582.787,778.058 584.643,775.909 586.5,773.771 588.357,771.645 590.214,769.531 592.071,767.428 593.928,765.337 595.784,763.257 597.641,761.187 599.498,759.129 601.355,757.082 603.212,755.045 605.069,753.019 606.926,751.003 608.782,748.998 610.639,747.004 612.496,745.019 614.353,743.045 616.21,741.08 618.067,739.126 619.924,737.181 621.78,735.246 623.637,733.32 625.494,731.405 627.351,729.498 629.208,727.601 631.065,725.713 632.921,723.835 634.778,721.965 636.635,720.104 638.492,718.253 640.349,716.41 642.206,714.576 644.063,712.75 645.919,710.933 647.776,709.125 649.633,707.325 651.49,705.534 653.347,703.75 655.204,701.975 657.06,700.208 658.917,698.449 660.774,696.698 662.631,694.955 664.488,693.22 666.345,691.493 668.202,689.773 670.058,688.061 671.915,686.357 673.772,684.66 675.629,682.97 677.49,681.285 679.353,679.603 681.223,677.925 683.097,676.248 684.979,674.573 686.867,672.899 688.764,671.226 690.668,669.553 692.58,667.879 694.502,666.206 696.432,664.532 698.371,662.857 700.319,661.182 702.276,659.506 704.243,657.83 706.22,656.152 708.206,654.474 710.202,652.795 712.208,651.115 714.224,649.433 716.25,647.751 718.287,646.068 720.333,644.384 722.39,642.698 724.457,641.012 726.534,639.324 728.622,637.636 730.721,635.946 732.83,634.255 734.95,632.563 737.08,630.87 739.222,629.176 741.374,627.481 743.537,625.785 745.711,624.087 747.897,622.389 750.093,620.689 752.301,618.988 754.52,617.286 756.75,615.583 758.992,613.879 761.245,612.174 763.51,610.467 765.787,608.76 768.075,607.051 770.375,605.341 772.687,603.63 775.01,601.918 777.346,600.205 779.693,598.491 782.053,596.775 784.425,595.058 786.809,593.341 789.205,591.622 791.614,589.902 794.035,588.18 796.469,586.458 798.915,584.735 801.374,583.01 803.846,581.284 806.33,579.558 808.828,577.83 811.338,576.101 813.861,574.37 816.398,572.639 818.947,570.907 821.51,569.173 824.086,567.439 826.675,565.703 829.278,563.966 831.894,562.228 834.524,560.489 837.168,558.749 839.825,557.007 842.497,555.265 845.182,553.522 847.881,551.777 850.594,550.031 853.321,548.285 856.062,546.537 858.818,544.788 861.588,543.038 864.373,541.287 867.172,539.535 869.985,537.782 872.814,536.028 875.657,534.272 878.514,532.516 881.387,530.759 884.275,529 887.177,527.241 890.095,525.48 893.028,523.719 895.976,521.957 898.939,520.194 901.916,518.43 904.908,516.666 907.914,514.902 910.933,513.139 913.962,511.377 917,509.619 920.043,507.866 923.086,506.121 926.129,504.383 929.172,502.654 932.215,500.933 935.258,499.219 938.301,497.513 941.344,495.814 944.387,494.124 947.43,492.44 950.139,490.948 952.848,489.461 955.243,488.152 957.638,486.847 959.769,485.689 961.901,484.535 964.032,483.385 965.887,482.386 967.743,481.39 969.598,480.396 971.233,479.522 972.868,478.651 974.503,477.782 976.138,476.914 977.581,476.15 979.024,475.388 980.466,474.627 981.909,473.868 983.352,473.11 984.794,472.354 986.087,471.678 987.38,471.003 988.673,470.329 989.966,469.656 991.259,468.984 992.552,468.314 993.845,467.644 995.137,466.976 996.461,466.294 997.954,465.525 999.463,464.749 1000.67,464.132 1001.87,463.516 1002.95,462.964 1004.03,462.414 1005.11,461.864 1006.06,461.376 1007.02,460.889 1007.98,460.403 1008.94,459.917 1009.9,459.431 1010.86,458.947 1011.81,458.462 1012.77,457.979 1013.73,457.496 1014.69,457.014 1015.65,456.532 1016.61,456.051 1017.56,455.571 1018.52,455.091 1019.48,454.612 1020.45,454.128 1021.47,453.62 1022.62,453.045 1023.93,452.393 1024.94,451.894 1025.96,451.388 1026.98,450.883 1028,450.378 1029.02,449.874 1030.04,449.371 1031.06,448.868 1032.08,448.366 1033.1,447.865 1034.12,447.364 1035.14,446.864 1036.16,446.365 1037.18,445.866 1038.2,445.368 1039.22,444.871 1040.24,444.374 1041.26,443.878 1042.28,443.383 1043.3,442.888 1044.32,442.394 1045.34,441.9 1046.36,441.407 1047.38,440.915 1048.41,440.423 1049.43,439.932 1050.45,439.442 1051.47,438.952 1052.49,438.463 1053.51,437.975 1054.53,437.487 1055.55,437 1056.58,436.509 1057.61,436.015 1058.66,435.515 1059.73,435.009 1060.82,434.494 1061.92,433.971 1063.05,433.437 1064.2,432.893 1065.38,432.337 1066.59,431.767 1067.83,431.184 1069.1,430.586 1070.41,429.972 1071.76,429.34 1073.16,428.69 1074.59,428.02 1076.08,427.327 1077.62,426.611 1079.22,425.868 1080.89,425.095 1082.64,424.29 1084.46,423.447 1086.39,422.561 1088.44,421.621 1090.64,420.616 1093.04,419.52 1095.78,418.273 1099.88,416.413 1102.56,415.207 1105.71,413.787 1108.87,412.372 1112.03,410.963 1115.19,409.559 1118.34,408.16 1121.5,406.766 1124.66,405.377 1127.82,403.994 1130.97,402.615 1134.13,401.241 1137.29,399.873 1140.45,398.509 1143.6,397.15 1146.76,395.796 1149.92,394.447 1153.08,393.103 1156.23,391.763 1159.39,390.428 1162.55,389.098 1165.71,387.773 1168.86,386.452 1172.02,385.135 1175.18,383.824 1178.34,382.516 1181.49,381.214 1184.65,379.915 1187.81,378.622 1190.96,377.332 1194.12,376.047 1197.28,374.767 1200.44,373.49 1203.6,372.217 1206.77,370.944 1209.95,369.671 1213.15,368.395 1216.37,367.116 1219.6,365.834 1222.86,364.547 1226.15,363.254 1229.46,361.957 1232.79,360.653 1236.16,359.344 1239.54,358.029 1242.96,356.708 1246.41,355.38 1249.88,354.047 1253.38,352.709 1256.9,351.365 1260.45,350.017 1264.02,348.665 1267.61,347.309 1271.23,345.951 1274.86,344.59 1278.52,343.227 1282.19,341.862 1285.88,340.496 1289.58,339.127 1293.31,337.755 1297.07,336.379 1300.86,334.997 1304.68,333.606 1308.55,332.204 1312.47,330.788 1316.46,329.352 1320.53,327.894 1324.7,326.407 1328.98,324.885 1333.4,323.322 1337.97,321.711 1342.72,320.045 1347.66,318.318 1352.82,316.524 1358.2,314.661 1363.81,312.731 1369.62,310.741 1375.61,308.701 1381.74,306.625 1387.98,304.522 1394.31,302.4 1400.72,300.265 1407.2,298.119 1413.76,295.962 1420.38,293.792 1427.1,291.608 1433.91,289.404 1440.84,287.176 1447.9,284.917 1455.13,282.621 1462.55,280.277 1470.21,277.876 1478.15,275.4 1486.46,272.828 1495.26,270.126 1504.76,267.228 1515.52,263.974 1528.98,259.943 1539.49,256.827 1550.23,253.666 1560.98,250.533 1571.73,247.427 1582.48,244.347 1593.23,241.293 1603.97,238.265 1614.72,235.261 1625.47,232.283 1636.22,229.329 1646.97,226.399 1657.71,223.493 1668.46,220.611 1679.21,217.752 1689.96,214.915 1700.71,212.102 1711.45,209.31 1722.2,206.541 1732.95,203.793 1743.7,201.067 1754.45,198.363 1765.2,195.679 1775.94,193.016 1786.69,190.374 1797.44,187.752 1808.19,185.15 1818.94,182.568 1829.68,180.006 1840.43,177.463 1851.18,174.94 1861.93,172.435 1872.68,169.95 1883.42,167.483 1894.17,165.035 1904.92,162.606 1915.67,160.194 1926.42,157.801 1937.16,155.426 1947.91,153.068 1958.66,150.728 1969.41,148.406 1980.16,146.101 1990.9,143.813 2001.65,141.543 2012.4,139.29 2023.15,137.053 2033.9,134.834 2044.65,132.631 2055.39,130.445 2066.14,128.275 2075.79,126.341 2085.44,124.42 2095.1,122.512 2104.75,120.617 2114.4,118.735 2124.05,116.866 2133.7,115.011 2143.35,113.168 2153,111.338 2162.66,109.521 2172.31,107.716 2181.96,105.925 2191.61,104.146 2201.26,102.38 2210.91,100.627 2220.56,98.886 2229.21,97.3382 2237.85,95.8006 2246.49,94.2731 2255.13,92.7558 2263.77,91.2485 2272.41,89.7514 2281.05,88.2643 2289.69,86.7874 2293.23,86.1857 "/>
<path clip-path="url(#clip380)" d="M319.649 196.789 L582.401 196.789 L582.401 93.1086 L319.649 93.1086  Z" fill="#ffffff" fill-rule="evenodd" fill-opacity="1"/>
<polyline clip-path="url(#clip380)" style="stroke:#000000; stroke-linecap:round; stroke-linejoin:round; stroke-width:4; stroke-opacity:1; fill:none" points="319.649,196.789 582.401,196.789 582.401,93.1086 319.649,93.1086 319.649,196.789 "/>
<polyline clip-path="url(#clip380)" style="stroke:#009af9; stroke-linecap:round; stroke-linejoin:round; stroke-width:4; stroke-opacity:1; fill:none" points="343.018,144.949 483.232,144.949 "/>
<path clip-path="url(#clip380)" d="M520.444 164.636 Q518.638 169.266 516.926 170.678 Q515.213 172.09 512.342 172.09 L508.939 172.09 L508.939 168.525 L511.439 168.525 Q513.199 168.525 514.171 167.692 Q515.143 166.858 516.324 163.756 L517.088 161.812 L506.602 136.303 L511.115 136.303 L519.217 156.581 L527.319 136.303 L531.833 136.303 L520.444 164.636 Z" fill="#000000" fill-rule="nonzero" fill-opacity="1" /><path clip-path="url(#clip380)" d="M539.124 158.293 L546.763 158.293 L546.763 131.928 L538.453 133.595 L538.453 129.335 L546.717 127.669 L551.393 127.669 L551.393 158.293 L559.032 158.293 L559.032 162.229 L539.124 162.229 L539.124 158.293 Z" fill="#000000" fill-rule="nonzero" fill-opacity="1" /></svg>
