<?xml version="1.0" encoding="utf-8"?>
<svg xmlns="http://www.w3.org/2000/svg" xmlns:xlink="http://www.w3.org/1999/xlink" width="800" height="400" viewBox="0 0 3200 1600">
<defs>
  <clipPath id="clip480">
    <rect x="0" y="0" width="3200" height="1600"/>
  </clipPath>
</defs>
<path clip-path="url(#clip480)" d="M0 1600 L3200 1600 L3200 0 L0 0  Z" fill="#ffffff" fill-rule="evenodd" fill-opacity="1"/>
<defs>
  <clipPath id="clip481">
    <rect x="640" y="0" width="2241" height="1600"/>
  </clipPath>
</defs>
<path clip-path="url(#clip480)" d="M348.626 1371.5 L2528.15 1371.5 L2528.15 171.344 L348.626 171.344  Z" fill="#ffffff" fill-rule="evenodd" fill-opacity="1"/>
<defs>
  <clipPath id="clip482">
    <rect x="348" y="171" width="2181" height="1201"/>
  </clipPath>
</defs>
<polyline clip-path="url(#clip482)" style="stroke:#000000; stroke-linecap:round; stroke-linejoin:round; stroke-width:2; stroke-opacity:0.1; fill:none" points="484.057,1371.5 484.057,171.344 "/>
<polyline clip-path="url(#clip482)" style="stroke:#000000; stroke-linecap:round; stroke-linejoin:round; stroke-width:2; stroke-opacity:0.1; fill:none" points="939.202,1371.5 939.202,171.344 "/>
<polyline clip-path="url(#clip482)" style="stroke:#000000; stroke-linecap:round; stroke-linejoin:round; stroke-width:2; stroke-opacity:0.1; fill:none" points="1394.35,1371.5 1394.35,171.344 "/>
<polyline clip-path="url(#clip482)" style="stroke:#000000; stroke-linecap:round; stroke-linejoin:round; stroke-width:2; stroke-opacity:0.1; fill:none" points="1849.49,1371.5 1849.49,171.344 "/>
<polyline clip-path="url(#clip482)" style="stroke:#000000; stroke-linecap:round; stroke-linejoin:round; stroke-width:2; stroke-opacity:0.1; fill:none" points="2304.64,1371.5 2304.64,171.344 "/>
<polyline clip-path="url(#clip482)" style="stroke:#000000; stroke-linecap:round; stroke-linejoin:round; stroke-width:2; stroke-opacity:0.1; fill:none" points="348.626,1191.59 2528.15,1191.59 "/>
<polyline clip-path="url(#clip482)" style="stroke:#000000; stroke-linecap:round; stroke-linejoin:round; stroke-width:2; stroke-opacity:0.1; fill:none" points="348.626,929.266 2528.15,929.266 "/>
<polyline clip-path="url(#clip482)" style="stroke:#000000; stroke-linecap:round; stroke-linejoin:round; stroke-width:2; stroke-opacity:0.1; fill:none" points="348.626,666.944 2528.15,666.944 "/>
<polyline clip-path="url(#clip482)" style="stroke:#000000; stroke-linecap:round; stroke-linejoin:round; stroke-width:2; stroke-opacity:0.1; fill:none" points="348.626,404.622 2528.15,404.622 "/>
<polyline clip-path="url(#clip480)" style="stroke:#000000; stroke-linecap:round; stroke-linejoin:round; stroke-width:4; stroke-opacity:1; fill:none" points="348.626,1371.5 2528.15,1371.5 "/>
<polyline clip-path="url(#clip480)" style="stroke:#000000; stroke-linecap:round; stroke-linejoin:round; stroke-width:4; stroke-opacity:1; fill:none" points="484.057,1371.5 484.057,1352.6 "/>
<polyline clip-path="url(#clip480)" style="stroke:#000000; stroke-linecap:round; stroke-linejoin:round; stroke-width:4; stroke-opacity:1; fill:none" points="939.202,1371.5 939.202,1352.6 "/>
<polyline clip-path="url(#clip480)" style="stroke:#000000; stroke-linecap:round; stroke-linejoin:round; stroke-width:4; stroke-opacity:1; fill:none" points="1394.35,1371.5 1394.35,1352.6 "/>
<polyline clip-path="url(#clip480)" style="stroke:#000000; stroke-linecap:round; stroke-linejoin:round; stroke-width:4; stroke-opacity:1; fill:none" points="1849.49,1371.5 1849.49,1352.6 "/>
<polyline clip-path="url(#clip480)" style="stroke:#000000; stroke-linecap:round; stroke-linejoin:round; stroke-width:4; stroke-opacity:1; fill:none" points="2304.64,1371.5 2304.64,1352.6 "/>
<path clip-path="url(#clip480)" d="M433.476 1452.02 L441.115 1452.02 L441.115 1425.65 L432.805 1427.32 L432.805 1423.06 L441.068 1421.4 L445.744 1421.4 L445.744 1452.02 L453.383 1452.02 L453.383 1455.96 L433.476 1455.96 L433.476 1452.02 Z" fill="#000000" fill-rule="nonzero" fill-opacity="1" /><path clip-path="url(#clip480)" d="M472.828 1424.47 Q469.216 1424.47 467.388 1428.04 Q465.582 1431.58 465.582 1438.71 Q465.582 1445.82 467.388 1449.38 Q469.216 1452.92 472.828 1452.92 Q476.462 1452.92 478.267 1449.38 Q480.096 1445.82 480.096 1438.71 Q480.096 1431.58 478.267 1428.04 Q476.462 1424.47 472.828 1424.47 M472.828 1420.77 Q478.638 1420.77 481.693 1425.38 Q484.772 1429.96 484.772 1438.71 Q484.772 1447.44 481.693 1452.04 Q478.638 1456.63 472.828 1456.63 Q467.017 1456.63 463.939 1452.04 Q460.883 1447.44 460.883 1438.71 Q460.883 1429.96 463.939 1425.38 Q467.017 1420.77 472.828 1420.77 Z" fill="#000000" fill-rule="nonzero" fill-opacity="1" /><path clip-path="url(#clip480)" d="M484.772 1414.87 L508.883 1414.87 L508.883 1418.07 L484.772 1418.07 L484.772 1414.87 Z" fill="#000000" fill-rule="nonzero" fill-opacity="1" /><path clip-path="url(#clip480)" d="M527.522 1403.78 L517.93 1418.76 L527.522 1418.76 L527.522 1403.78 M526.525 1400.46 L531.302 1400.46 L531.302 1418.76 L535.308 1418.76 L535.308 1421.92 L531.302 1421.92 L531.302 1428.54 L527.522 1428.54 L527.522 1421.92 L514.846 1421.92 L514.846 1418.26 L526.525 1400.46 Z" fill="#000000" fill-rule="nonzero" fill-opacity="1" /><path clip-path="url(#clip480)" d="M889.468 1452.02 L897.107 1452.02 L897.107 1425.65 L888.797 1427.32 L888.797 1423.06 L897.061 1421.4 L901.737 1421.4 L901.737 1452.02 L909.375 1452.02 L909.375 1455.96 L889.468 1455.96 L889.468 1452.02 Z" fill="#000000" fill-rule="nonzero" fill-opacity="1" /><path clip-path="url(#clip480)" d="M928.82 1424.47 Q925.209 1424.47 923.38 1428.04 Q921.574 1431.58 921.574 1438.71 Q921.574 1445.82 923.38 1449.38 Q925.209 1452.92 928.82 1452.92 Q932.454 1452.92 934.26 1449.38 Q936.088 1445.82 936.088 1438.71 Q936.088 1431.58 934.26 1428.04 Q932.454 1424.47 928.82 1424.47 M928.82 1420.77 Q934.63 1420.77 937.685 1425.38 Q940.764 1429.96 940.764 1438.71 Q940.764 1447.44 937.685 1452.04 Q934.63 1456.63 928.82 1456.63 Q923.01 1456.63 919.931 1452.04 Q916.875 1447.44 916.875 1438.71 Q916.875 1429.96 919.931 1425.38 Q923.01 1420.77 928.82 1420.77 Z" fill="#000000" fill-rule="nonzero" fill-opacity="1" /><path clip-path="url(#clip480)" d="M940.764 1414.87 L964.876 1414.87 L964.876 1418.07 L940.764 1418.07 L940.764 1414.87 Z" fill="#000000" fill-rule="nonzero" fill-opacity="1" /><path clip-path="url(#clip480)" d="M976.348 1425.35 L989.608 1425.35 L989.608 1428.54 L971.778 1428.54 L971.778 1425.35 Q973.941 1423.11 977.665 1419.35 Q981.408 1415.57 982.367 1414.48 Q984.191 1412.43 984.906 1411.02 Q985.639 1409.59 985.639 1408.21 Q985.639 1405.98 984.06 1404.57 Q982.499 1403.15 979.978 1403.15 Q978.192 1403.15 976.198 1403.78 Q974.223 1404.4 971.966 1405.66 L971.966 1401.82 Q974.261 1400.9 976.254 1400.43 Q978.248 1399.96 979.903 1399.96 Q984.267 1399.96 986.862 1402.14 Q989.457 1404.32 989.457 1407.97 Q989.457 1409.7 988.799 1411.26 Q988.16 1412.8 986.448 1414.91 Q985.978 1415.45 983.458 1418.07 Q980.938 1420.66 976.348 1425.35 Z" fill="#000000" fill-rule="nonzero" fill-opacity="1" /><path clip-path="url(#clip480)" d="M1359.33 1452.02 L1366.97 1452.02 L1366.97 1425.65 L1358.66 1427.32 L1358.66 1423.06 L1366.92 1421.4 L1371.6 1421.4 L1371.6 1452.02 L1379.24 1452.02 L1379.24 1455.96 L1359.33 1455.96 L1359.33 1452.02 Z" fill="#000000" fill-rule="nonzero" fill-opacity="1" /><path clip-path="url(#clip480)" d="M1398.68 1424.47 Q1395.07 1424.47 1393.24 1428.04 Q1391.44 1431.58 1391.44 1438.71 Q1391.44 1445.82 1393.24 1449.38 Q1395.07 1452.92 1398.68 1452.92 Q1402.32 1452.92 1404.12 1449.38 Q1405.95 1445.82 1405.95 1438.71 Q1405.95 1431.58 1404.12 1428.04 Q1402.32 1424.47 1398.68 1424.47 M1398.68 1420.77 Q1404.49 1420.77 1407.55 1425.38 Q1410.63 1429.96 1410.63 1438.71 Q1410.63 1447.44 1407.55 1452.04 Q1404.49 1456.63 1398.68 1456.63 Q1392.87 1456.63 1389.79 1452.04 Q1386.74 1447.44 1386.74 1438.71 Q1386.74 1429.96 1389.79 1425.38 Q1392.87 1420.77 1398.68 1420.77 Z" fill="#000000" fill-rule="nonzero" fill-opacity="1" /><path clip-path="url(#clip480)" d="M1420.33 1402.97 Q1417.4 1402.97 1415.91 1405.86 Q1414.45 1408.74 1414.45 1414.53 Q1414.45 1420.31 1415.91 1423.2 Q1417.4 1426.08 1420.33 1426.08 Q1423.28 1426.08 1424.75 1423.2 Q1426.24 1420.31 1426.24 1414.53 Q1426.24 1408.74 1424.75 1405.86 Q1423.28 1402.97 1420.33 1402.97 M1420.33 1399.96 Q1425.05 1399.96 1427.54 1403.7 Q1430.04 1407.42 1430.04 1414.53 Q1430.04 1421.62 1427.54 1425.37 Q1425.05 1429.09 1420.33 1429.09 Q1415.61 1429.09 1413.11 1425.37 Q1410.63 1421.62 1410.63 1414.53 Q1410.63 1407.42 1413.11 1403.7 Q1415.61 1399.96 1420.33 1399.96 Z" fill="#000000" fill-rule="nonzero" fill-opacity="1" /><path clip-path="url(#clip480)" d="M1815.27 1452.02 L1822.91 1452.02 L1822.91 1425.65 L1814.6 1427.32 L1814.6 1423.06 L1822.86 1421.4 L1827.54 1421.4 L1827.54 1452.02 L1835.17 1452.02 L1835.17 1455.96 L1815.27 1455.96 L1815.27 1452.02 Z" fill="#000000" fill-rule="nonzero" fill-opacity="1" /><path clip-path="url(#clip480)" d="M1854.62 1424.47 Q1851.01 1424.47 1849.18 1428.04 Q1847.37 1431.58 1847.37 1438.71 Q1847.37 1445.82 1849.18 1449.38 Q1851.01 1452.92 1854.62 1452.92 Q1858.25 1452.92 1860.06 1449.38 Q1861.89 1445.82 1861.89 1438.71 Q1861.89 1431.58 1860.06 1428.04 Q1858.25 1424.47 1854.62 1424.47 M1854.62 1420.77 Q1860.43 1420.77 1863.48 1425.38 Q1866.56 1429.96 1866.56 1438.71 Q1866.56 1447.44 1863.48 1452.04 Q1860.43 1456.63 1854.62 1456.63 Q1848.81 1456.63 1845.73 1452.04 Q1842.67 1447.44 1842.67 1438.71 Q1842.67 1429.96 1845.73 1425.38 Q1848.81 1420.77 1854.62 1420.77 Z" fill="#000000" fill-rule="nonzero" fill-opacity="1" /><path clip-path="url(#clip480)" d="M1871.13 1425.35 L1884.39 1425.35 L1884.39 1428.54 L1866.56 1428.54 L1866.56 1425.35 Q1868.73 1423.11 1872.45 1419.35 Q1876.19 1415.57 1877.15 1414.48 Q1878.98 1412.43 1879.69 1411.02 Q1880.42 1409.59 1880.42 1408.21 Q1880.42 1405.98 1878.84 1404.57 Q1877.28 1403.15 1874.76 1403.15 Q1872.98 1403.15 1870.98 1403.78 Q1869.01 1404.4 1866.75 1405.66 L1866.75 1401.82 Q1869.05 1400.9 1871.04 1400.43 Q1873.03 1399.96 1874.69 1399.96 Q1879.05 1399.96 1881.65 1402.14 Q1884.24 1404.32 1884.24 1407.97 Q1884.24 1409.7 1883.58 1411.26 Q1882.94 1412.8 1881.23 1414.91 Q1880.76 1415.45 1878.24 1418.07 Q1875.72 1420.66 1871.13 1425.35 Z" fill="#000000" fill-rule="nonzero" fill-opacity="1" /><path clip-path="url(#clip480)" d="M2269.1 1452.02 L2276.74 1452.02 L2276.74 1425.65 L2268.42 1427.32 L2268.42 1423.06 L2276.69 1421.4 L2281.36 1421.4 L2281.36 1452.02 L2289 1452.02 L2289 1455.96 L2269.1 1455.96 L2269.1 1452.02 Z" fill="#000000" fill-rule="nonzero" fill-opacity="1" /><path clip-path="url(#clip480)" d="M2308.45 1424.47 Q2304.84 1424.47 2303.01 1428.04 Q2301.2 1431.58 2301.2 1438.71 Q2301.2 1445.82 2303.01 1449.38 Q2304.84 1452.92 2308.45 1452.92 Q2312.08 1452.92 2313.89 1449.38 Q2315.72 1445.82 2315.72 1438.71 Q2315.72 1431.58 2313.89 1428.04 Q2312.08 1424.47 2308.45 1424.47 M2308.45 1420.77 Q2314.26 1420.77 2317.31 1425.38 Q2320.39 1429.96 2320.39 1438.71 Q2320.39 1447.44 2317.31 1452.04 Q2314.26 1456.63 2308.45 1456.63 Q2302.64 1456.63 2299.56 1452.04 Q2296.5 1447.44 2296.5 1438.71 Q2296.5 1429.96 2299.56 1425.38 Q2302.64 1420.77 2308.45 1420.77 Z" fill="#000000" fill-rule="nonzero" fill-opacity="1" /><path clip-path="url(#clip480)" d="M2333.07 1403.78 L2323.48 1418.76 L2333.07 1418.76 L2333.07 1403.78 M2332.07 1400.46 L2336.85 1400.46 L2336.85 1418.76 L2340.86 1418.76 L2340.86 1421.92 L2336.85 1421.92 L2336.85 1428.54 L2333.07 1428.54 L2333.07 1421.92 L2320.39 1421.92 L2320.39 1418.26 L2332.07 1400.46 Z" fill="#000000" fill-rule="nonzero" fill-opacity="1" /><path clip-path="url(#clip480)" d="M1299.36 1499.26 L1329.41 1499.26 L1329.41 1504.67 L1305.79 1504.67 L1305.79 1518.74 L1328.42 1518.74 L1328.42 1524.15 L1305.79 1524.15 L1305.79 1541.37 L1329.98 1541.37 L1329.98 1546.78 L1299.36 1546.78 L1299.36 1499.26 Z" fill="#000000" fill-rule="nonzero" fill-opacity="1" /><path clip-path="url(#clip480)" d="M1360.95 1516.61 Q1359.96 1516.04 1358.78 1515.78 Q1357.64 1515.5 1356.24 1515.5 Q1351.27 1515.5 1348.6 1518.74 Q1345.96 1521.96 1345.96 1528.01 L1345.96 1546.78 L1340.07 1546.78 L1340.07 1511.14 L1345.96 1511.14 L1345.96 1516.67 Q1347.8 1513.43 1350.76 1511.87 Q1353.72 1510.28 1357.96 1510.28 Q1358.56 1510.28 1359.29 1510.37 Q1360.02 1510.44 1360.92 1510.6 L1360.95 1516.61 Z" fill="#000000" fill-rule="nonzero" fill-opacity="1" /><path clip-path="url(#clip480)" d="M1386.6 1516.61 Q1385.61 1516.04 1384.44 1515.78 Q1383.29 1515.5 1381.89 1515.5 Q1376.93 1515.5 1374.25 1518.74 Q1371.61 1521.96 1371.61 1528.01 L1371.61 1546.78 L1365.72 1546.78 L1365.72 1511.14 L1371.61 1511.14 L1371.61 1516.67 Q1373.46 1513.43 1376.42 1511.87 Q1379.38 1510.28 1383.61 1510.28 Q1384.21 1510.28 1384.95 1510.37 Q1385.68 1510.44 1386.57 1510.6 L1386.6 1516.61 Z" fill="#000000" fill-rule="nonzero" fill-opacity="1" /><path clip-path="url(#clip480)" d="M1405.13 1515.24 Q1400.41 1515.24 1397.68 1518.93 Q1394.94 1522.59 1394.94 1528.99 Q1394.94 1535.39 1397.65 1539.08 Q1400.38 1542.74 1405.13 1542.74 Q1409.8 1542.74 1412.54 1539.05 Q1415.28 1535.36 1415.28 1528.99 Q1415.28 1522.66 1412.54 1518.97 Q1409.8 1515.24 1405.13 1515.24 M1405.13 1510.28 Q1412.76 1510.28 1417.12 1515.24 Q1421.49 1520.21 1421.49 1528.99 Q1421.49 1537.74 1417.12 1542.74 Q1412.76 1547.71 1405.13 1547.71 Q1397.45 1547.71 1393.09 1542.74 Q1388.77 1537.74 1388.77 1528.99 Q1388.77 1520.21 1393.09 1515.24 Q1397.45 1510.28 1405.13 1510.28 Z" fill="#000000" fill-rule="nonzero" fill-opacity="1" /><path clip-path="url(#clip480)" d="M1451.85 1516.61 Q1450.86 1516.04 1449.69 1515.78 Q1448.54 1515.5 1447.14 1515.5 Q1442.17 1515.5 1439.5 1518.74 Q1436.86 1521.96 1436.86 1528.01 L1436.86 1546.78 L1430.97 1546.78 L1430.97 1511.14 L1436.86 1511.14 L1436.86 1516.67 Q1438.7 1513.43 1441.66 1511.87 Q1444.62 1510.28 1448.86 1510.28 Q1449.46 1510.28 1450.19 1510.37 Q1450.93 1510.44 1451.82 1510.6 L1451.85 1516.61 Z" fill="#000000" fill-rule="nonzero" fill-opacity="1" /><path clip-path="url(#clip480)" d="M1492.78 1497.32 Q1488.52 1504.64 1486.45 1511.8 Q1484.38 1518.97 1484.38 1526.32 Q1484.38 1533.67 1486.45 1540.9 Q1488.55 1548.09 1492.78 1555.38 L1487.69 1555.38 Q1482.91 1547.9 1480.53 1540.67 Q1478.17 1533.45 1478.17 1526.32 Q1478.17 1519.22 1480.53 1512.03 Q1482.88 1504.83 1487.69 1497.32 L1492.78 1497.32 Z" fill="#000000" fill-rule="nonzero" fill-opacity="1" /><path clip-path="url(#clip480)" d="M1504.14 1497.26 L1510 1497.26 L1510 1546.78 L1504.14 1546.78 L1504.14 1497.26 Z" fill="#000000" fill-rule="nonzero" fill-opacity="1" /><path clip-path="url(#clip480)" d="M1528.62 1541.37 L1551.06 1541.37 L1551.06 1546.78 L1520.89 1546.78 L1520.89 1541.37 Q1524.55 1537.59 1530.85 1531.22 Q1537.18 1524.82 1538.81 1522.98 Q1541.89 1519.51 1543.1 1517.12 Q1544.34 1514.7 1544.34 1512.38 Q1544.34 1508.59 1541.67 1506.2 Q1539.03 1503.82 1534.76 1503.82 Q1531.74 1503.82 1528.37 1504.87 Q1525.02 1505.92 1521.2 1508.05 L1521.2 1501.56 Q1525.09 1500 1528.46 1499.2 Q1531.83 1498.4 1534.64 1498.4 Q1542.02 1498.4 1546.41 1502.1 Q1550.8 1505.79 1550.8 1511.96 Q1550.8 1514.89 1549.69 1517.53 Q1548.61 1520.14 1545.71 1523.71 Q1544.92 1524.63 1540.65 1529.06 Q1536.39 1533.45 1528.62 1541.37 Z" fill="#000000" fill-rule="nonzero" fill-opacity="1" /><path clip-path="url(#clip480)" d="M1562.8 1497.32 L1567.9 1497.32 Q1572.67 1504.83 1575.03 1512.03 Q1577.41 1519.22 1577.41 1526.32 Q1577.41 1533.45 1575.03 1540.67 Q1572.67 1547.9 1567.9 1555.38 L1562.8 1555.38 Q1567.04 1548.09 1569.11 1540.9 Q1571.21 1533.67 1571.21 1526.32 Q1571.21 1518.97 1569.11 1511.8 Q1567.04 1504.64 1562.8 1497.32 Z" fill="#000000" fill-rule="nonzero" fill-opacity="1" /><polyline clip-path="url(#clip480)" style="stroke:#000000; stroke-linecap:round; stroke-linejoin:round; stroke-width:4; stroke-opacity:1; fill:none" points="348.626,1371.5 348.626,171.344 "/>
<polyline clip-path="url(#clip480)" style="stroke:#000000; stroke-linecap:round; stroke-linejoin:round; stroke-width:4; stroke-opacity:1; fill:none" points="348.626,1191.59 363.652,1191.59 "/>
<polyline clip-path="url(#clip480)" style="stroke:#000000; stroke-linecap:round; stroke-linejoin:round; stroke-width:4; stroke-opacity:1; fill:none" points="348.626,929.266 363.652,929.266 "/>
<polyline clip-path="url(#clip480)" style="stroke:#000000; stroke-linecap:round; stroke-linejoin:round; stroke-width:4; stroke-opacity:1; fill:none" points="348.626,666.944 363.652,666.944 "/>
<polyline clip-path="url(#clip480)" style="stroke:#000000; stroke-linecap:round; stroke-linejoin:round; stroke-width:4; stroke-opacity:1; fill:none" points="348.626,404.622 363.652,404.622 "/>
<path clip-path="url(#clip480)" d="M162.044 1211.38 L169.682 1211.38 L169.682 1185.02 L161.372 1186.68 L161.372 1182.42 L169.636 1180.76 L174.312 1180.76 L174.312 1211.38 L181.951 1211.38 L181.951 1215.32 L162.044 1215.32 L162.044 1211.38 Z" fill="#000000" fill-rule="nonzero" fill-opacity="1" /><path clip-path="url(#clip480)" d="M201.395 1183.83 Q197.784 1183.83 195.955 1187.4 Q194.15 1190.94 194.15 1198.07 Q194.15 1205.18 195.955 1208.74 Q197.784 1212.28 201.395 1212.28 Q205.029 1212.28 206.835 1208.74 Q208.664 1205.18 208.664 1198.07 Q208.664 1190.94 206.835 1187.4 Q205.029 1183.83 201.395 1183.83 M201.395 1180.13 Q207.205 1180.13 210.261 1184.74 Q213.34 1189.32 213.34 1198.07 Q213.34 1206.8 210.261 1211.4 Q207.205 1215.99 201.395 1215.99 Q195.585 1215.99 192.506 1211.4 Q189.451 1206.8 189.451 1198.07 Q189.451 1189.32 192.506 1184.74 Q195.585 1180.13 201.395 1180.13 Z" fill="#000000" fill-rule="nonzero" fill-opacity="1" /><path clip-path="url(#clip480)" d="M213.34 1174.23 L237.451 1174.23 L237.451 1177.43 L213.34 1177.43 L213.34 1174.23 Z" fill="#000000" fill-rule="nonzero" fill-opacity="1" /><path clip-path="url(#clip480)" d="M248.924 1184.71 L262.183 1184.71 L262.183 1187.91 L244.354 1187.91 L244.354 1184.71 Q246.517 1182.47 250.24 1178.71 Q253.983 1174.93 254.942 1173.84 Q256.767 1171.79 257.481 1170.38 Q258.215 1168.95 258.215 1167.57 Q258.215 1165.34 256.635 1163.93 Q255.074 1162.51 252.554 1162.51 Q250.767 1162.51 248.773 1163.14 Q246.799 1163.76 244.542 1165.02 L244.542 1161.18 Q246.836 1160.26 248.83 1159.79 Q250.823 1159.32 252.479 1159.32 Q256.842 1159.32 259.437 1161.5 Q262.033 1163.68 262.033 1167.33 Q262.033 1169.06 261.375 1170.62 Q260.735 1172.16 259.024 1174.27 Q258.553 1174.82 256.033 1177.43 Q253.513 1180.03 248.924 1184.71 Z" fill="#000000" fill-rule="nonzero" fill-opacity="1" /><path clip-path="url(#clip480)" d="M270.158 1183.13 L274.126 1183.13 L274.126 1187.91 L270.158 1187.91 L270.158 1183.13 Z" fill="#000000" fill-rule="nonzero" fill-opacity="1" /><path clip-path="url(#clip480)" d="M292.84 1163.14 L283.248 1178.13 L292.84 1178.13 L292.84 1163.14 M291.843 1159.83 L296.62 1159.83 L296.62 1178.13 L300.626 1178.13 L300.626 1181.29 L296.62 1181.29 L296.62 1187.91 L292.84 1187.91 L292.84 1181.29 L280.164 1181.29 L280.164 1177.62 L291.843 1159.83 Z" fill="#000000" fill-rule="nonzero" fill-opacity="1" /><path clip-path="url(#clip480)" d="M163.435 949.059 L171.074 949.059 L171.074 922.693 L162.764 924.36 L162.764 920.101 L171.028 918.434 L175.704 918.434 L175.704 949.059 L183.343 949.059 L183.343 952.994 L163.435 952.994 L163.435 949.059 Z" fill="#000000" fill-rule="nonzero" fill-opacity="1" /><path clip-path="url(#clip480)" d="M202.787 921.513 Q199.176 921.513 197.347 925.077 Q195.542 928.619 195.542 935.749 Q195.542 942.855 197.347 946.42 Q199.176 949.962 202.787 949.962 Q206.421 949.962 208.227 946.42 Q210.055 942.855 210.055 935.749 Q210.055 928.619 208.227 925.077 Q206.421 921.513 202.787 921.513 M202.787 917.809 Q208.597 917.809 211.653 922.415 Q214.731 926.999 214.731 935.749 Q214.731 944.475 211.653 949.082 Q208.597 953.665 202.787 953.665 Q196.977 953.665 193.898 949.082 Q190.843 944.475 190.843 935.749 Q190.843 926.999 193.898 922.415 Q196.977 917.809 202.787 917.809 Z" fill="#000000" fill-rule="nonzero" fill-opacity="1" /><path clip-path="url(#clip480)" d="M214.731 911.91 L238.843 911.91 L238.843 915.108 L214.731 915.108 L214.731 911.91 Z" fill="#000000" fill-rule="nonzero" fill-opacity="1" /><path clip-path="url(#clip480)" d="M250.316 922.386 L263.575 922.386 L263.575 925.584 L245.745 925.584 L245.745 922.386 Q247.908 920.148 251.632 916.387 Q255.375 912.606 256.334 911.515 Q258.159 909.465 258.873 908.055 Q259.607 906.625 259.607 905.252 Q259.607 903.014 258.027 901.604 Q256.466 900.193 253.946 900.193 Q252.159 900.193 250.165 900.814 Q248.19 901.434 245.933 902.694 L245.933 898.858 Q248.228 897.936 250.222 897.466 Q252.215 896.996 253.87 896.996 Q258.234 896.996 260.829 899.177 Q263.425 901.359 263.425 905.008 Q263.425 906.738 262.766 908.299 Q262.127 909.841 260.415 911.948 Q259.945 912.493 257.425 915.108 Q254.905 917.703 250.316 922.386 Z" fill="#000000" fill-rule="nonzero" fill-opacity="1" /><path clip-path="url(#clip480)" d="M271.55 920.806 L275.518 920.806 L275.518 925.584 L271.55 925.584 L271.55 920.806 Z" fill="#000000" fill-rule="nonzero" fill-opacity="1" /><path clip-path="url(#clip480)" d="M284.452 922.386 L290.658 922.386 L290.658 900.964 L283.906 902.318 L283.906 898.858 L290.621 897.504 L294.42 897.504 L294.42 922.386 L300.626 922.386 L300.626 925.584 L284.452 925.584 L284.452 922.386 Z" fill="#000000" fill-rule="nonzero" fill-opacity="1" /><path clip-path="url(#clip480)" d="M162.514 686.737 L170.153 686.737 L170.153 660.371 L161.842 662.038 L161.842 657.779 L170.106 656.112 L174.782 656.112 L174.782 686.737 L182.421 686.737 L182.421 690.672 L162.514 690.672 L162.514 686.737 Z" fill="#000000" fill-rule="nonzero" fill-opacity="1" /><path clip-path="url(#clip480)" d="M201.865 659.191 Q198.254 659.191 196.426 662.756 Q194.62 666.297 194.62 673.427 Q194.62 680.533 196.426 684.098 Q198.254 687.64 201.865 687.64 Q205.5 687.64 207.305 684.098 Q209.134 680.533 209.134 673.427 Q209.134 666.297 207.305 662.756 Q205.5 659.191 201.865 659.191 M201.865 655.487 Q207.676 655.487 210.731 660.093 Q213.81 664.677 213.81 673.427 Q213.81 682.154 210.731 686.76 Q207.676 691.343 201.865 691.343 Q196.055 691.343 192.977 686.76 Q189.921 682.154 189.921 673.427 Q189.921 664.677 192.977 660.093 Q196.055 655.487 201.865 655.487 Z" fill="#000000" fill-rule="nonzero" fill-opacity="1" /><path clip-path="url(#clip480)" d="M213.81 649.588 L237.921 649.588 L237.921 652.786 L213.81 652.786 L213.81 649.588 Z" fill="#000000" fill-rule="nonzero" fill-opacity="1" /><path clip-path="url(#clip480)" d="M246.78 660.064 L252.986 660.064 L252.986 638.642 L246.234 639.996 L246.234 636.536 L252.949 635.182 L256.748 635.182 L256.748 660.064 L262.954 660.064 L262.954 663.262 L246.78 663.262 L246.78 660.064 Z" fill="#000000" fill-rule="nonzero" fill-opacity="1" /><path clip-path="url(#clip480)" d="M270.628 658.484 L274.597 658.484 L274.597 663.262 L270.628 663.262 L270.628 658.484 Z" fill="#000000" fill-rule="nonzero" fill-opacity="1" /><path clip-path="url(#clip480)" d="M290.997 649.927 Q288.289 649.927 286.728 651.375 Q285.185 652.823 285.185 655.362 Q285.185 657.901 286.728 659.35 Q288.289 660.798 290.997 660.798 Q293.705 660.798 295.266 659.35 Q296.827 657.883 296.827 655.362 Q296.827 652.823 295.266 651.375 Q293.724 649.927 290.997 649.927 M287.198 648.309 Q284.753 647.708 283.38 646.034 Q282.026 644.36 282.026 641.952 Q282.026 638.586 284.414 636.63 Q286.822 634.674 290.997 634.674 Q295.191 634.674 297.58 636.63 Q299.968 638.586 299.968 641.952 Q299.968 644.36 298.595 646.034 Q297.241 647.708 294.815 648.309 Q297.561 648.949 299.084 650.811 Q300.626 652.673 300.626 655.362 Q300.626 659.444 298.125 661.625 Q295.642 663.807 290.997 663.807 Q286.351 663.807 283.85 661.625 Q281.367 659.444 281.367 655.362 Q281.367 652.673 282.91 650.811 Q284.452 648.949 287.198 648.309 M285.806 642.31 Q285.806 644.491 287.16 645.714 Q288.533 646.936 290.997 646.936 Q293.442 646.936 294.815 645.714 Q296.207 644.491 296.207 642.31 Q296.207 640.128 294.815 638.906 Q293.442 637.683 290.997 637.683 Q288.533 637.683 287.16 638.906 Q285.806 640.128 285.806 642.31 Z" fill="#000000" fill-rule="nonzero" fill-opacity="1" /><path clip-path="url(#clip480)" d="M163.247 424.415 L170.886 424.415 L170.886 398.049 L162.576 399.716 L162.576 395.457 L170.84 393.79 L175.516 393.79 L175.516 424.415 L183.155 424.415 L183.155 428.35 L163.247 428.35 L163.247 424.415 Z" fill="#000000" fill-rule="nonzero" fill-opacity="1" /><path clip-path="url(#clip480)" d="M202.599 396.869 Q198.988 396.869 197.159 400.434 Q195.354 403.975 195.354 411.105 Q195.354 418.211 197.159 421.776 Q198.988 425.318 202.599 425.318 Q206.233 425.318 208.039 421.776 Q209.867 418.211 209.867 411.105 Q209.867 403.975 208.039 400.434 Q206.233 396.869 202.599 396.869 M202.599 393.165 Q208.409 393.165 211.465 397.772 Q214.543 402.355 214.543 411.105 Q214.543 419.832 211.465 424.438 Q208.409 429.021 202.599 429.021 Q196.789 429.021 193.71 424.438 Q190.655 419.832 190.655 411.105 Q190.655 402.355 193.71 397.772 Q196.789 393.165 202.599 393.165 Z" fill="#000000" fill-rule="nonzero" fill-opacity="1" /><path clip-path="url(#clip480)" d="M214.543 387.266 L238.655 387.266 L238.655 390.464 L214.543 390.464 L214.543 387.266 Z" fill="#000000" fill-rule="nonzero" fill-opacity="1" /><path clip-path="url(#clip480)" d="M247.513 397.742 L253.72 397.742 L253.72 376.32 L246.968 377.674 L246.968 374.214 L253.682 372.86 L257.481 372.86 L257.481 397.742 L263.688 397.742 L263.688 400.94 L247.513 400.94 L247.513 397.742 Z" fill="#000000" fill-rule="nonzero" fill-opacity="1" /><path clip-path="url(#clip480)" d="M271.362 396.163 L275.33 396.163 L275.33 400.94 L271.362 400.94 L271.362 396.163 Z" fill="#000000" fill-rule="nonzero" fill-opacity="1" /><path clip-path="url(#clip480)" d="M283.643 372.86 L298.558 372.86 L298.558 376.057 L287.122 376.057 L287.122 382.941 Q287.95 382.659 288.778 382.527 Q289.605 382.376 290.433 382.376 Q295.135 382.376 297.881 384.953 Q300.626 387.53 300.626 391.931 Q300.626 396.463 297.805 398.984 Q294.984 401.485 289.85 401.485 Q288.082 401.485 286.239 401.184 Q284.414 400.883 282.458 400.281 L282.458 396.463 Q284.151 397.385 285.956 397.836 Q287.762 398.288 289.774 398.288 Q293.028 398.288 294.928 396.576 Q296.827 394.865 296.827 391.931 Q296.827 388.997 294.928 387.285 Q293.028 385.574 289.774 385.574 Q288.251 385.574 286.728 385.912 Q285.223 386.251 283.643 386.966 L283.643 372.86 Z" fill="#000000" fill-rule="nonzero" fill-opacity="1" /><path clip-path="url(#clip480)" d="M51.5963 901.248 L51.5963 861.049 L57.0071 861.049 L57.0071 877.918 L99.1163 877.918 L99.1163 884.379 L57.0071 884.379 L57.0071 901.248 L51.5963 901.248 Z" fill="#000000" fill-rule="nonzero" fill-opacity="1" /><path clip-path="url(#clip480)" d="M63.4683 857.102 L63.4683 851.246 L99.1163 851.246 L99.1163 857.102 L63.4683 857.102 M49.5911 857.102 L49.5911 851.246 L57.0071 851.246 L57.0071 857.102 L49.5911 857.102 Z" fill="#000000" fill-rule="nonzero" fill-opacity="1" /><path clip-path="url(#clip480)" d="M70.3115 811.237 Q66.3647 809.041 64.4868 805.986 Q62.609 802.93 62.609 798.792 Q62.609 793.222 66.5239 790.199 Q70.4069 787.175 77.6002 787.175 L99.1163 787.175 L99.1163 793.063 L77.7912 793.063 Q72.6668 793.063 70.1841 794.877 Q67.7015 796.692 67.7015 800.416 Q67.7015 804.967 70.7252 807.609 Q73.7489 810.251 78.9688 810.251 L99.1163 810.251 L99.1163 816.139 L77.7912 816.139 Q72.6349 816.139 70.1841 817.953 Q67.7015 819.767 67.7015 823.555 Q67.7015 828.043 70.7571 830.685 Q73.7808 833.326 78.9688 833.326 L99.1163 833.326 L99.1163 839.215 L63.4683 839.215 L63.4683 833.326 L69.0065 833.326 Q65.7282 831.321 64.1686 828.52 Q62.609 825.719 62.609 821.868 Q62.609 817.985 64.5823 815.28 Q66.5557 812.542 70.3115 811.237 Z" fill="#000000" fill-rule="nonzero" fill-opacity="1" /><path clip-path="url(#clip480)" d="M79.8282 745.002 L82.6928 745.002 L82.6928 771.929 Q88.7402 771.547 91.923 768.301 Q95.0741 765.022 95.0741 759.198 Q95.0741 755.824 94.2465 752.673 Q93.419 749.49 91.7639 746.371 L97.3021 746.371 Q98.6389 749.522 99.3391 752.832 Q100.039 756.142 100.039 759.548 Q100.039 768.078 95.0741 773.075 Q90.1088 778.04 81.6424 778.04 Q72.8896 778.04 67.7652 773.329 Q62.609 768.587 62.609 760.566 Q62.609 753.373 67.2559 749.203 Q71.8711 745.002 79.8282 745.002 M78.1095 750.859 Q73.3033 750.922 70.4388 753.564 Q67.5742 756.174 67.5742 760.503 Q67.5742 765.404 70.3433 768.364 Q73.1124 771.292 78.1413 771.738 L78.1095 750.859 Z" fill="#000000" fill-rule="nonzero" fill-opacity="1" /><path clip-path="url(#clip480)" d="M49.6547 700.601 Q56.9753 704.866 64.1367 706.935 Q71.2981 709.004 78.6505 709.004 Q86.0029 709.004 93.228 706.935 Q100.421 704.834 107.71 700.601 L107.71 705.694 Q100.23 710.468 93.0052 712.855 Q85.7801 715.211 78.6505 715.211 Q71.5528 715.211 64.3595 712.855 Q57.1663 710.5 49.6547 705.694 L49.6547 700.601 Z" fill="#000000" fill-rule="nonzero" fill-opacity="1" /><path clip-path="url(#clip480)" d="M64.5187 666.513 L70.0568 666.513 Q68.7837 668.996 68.1471 671.669 Q67.5106 674.343 67.5106 677.207 Q67.5106 681.568 68.8473 683.764 Q70.1841 685.928 72.8577 685.928 Q74.8948 685.928 76.0724 684.369 Q77.2183 682.809 78.2686 678.099 L78.7142 676.093 Q80.051 669.855 82.5018 667.245 Q84.9208 664.603 89.2813 664.603 Q94.2465 664.603 97.1429 668.55 Q100.039 672.465 100.039 679.34 Q100.039 682.204 99.4664 685.324 Q98.9253 688.411 97.8113 691.848 L91.7639 691.848 Q93.4508 688.602 94.3102 685.451 Q95.1377 682.3 95.1377 679.213 Q95.1377 675.075 93.7373 672.847 Q92.305 670.619 89.7269 670.619 Q87.3397 670.619 86.0666 672.242 Q84.7934 673.834 83.6158 679.276 L83.1384 681.313 Q81.9925 686.756 79.6372 689.175 Q77.2501 691.594 73.1124 691.594 Q68.0835 691.594 65.3462 688.029 Q62.609 684.464 62.609 677.908 Q62.609 674.661 63.0864 671.796 Q63.5638 668.932 64.5187 666.513 Z" fill="#000000" fill-rule="nonzero" fill-opacity="1" /><path clip-path="url(#clip480)" d="M49.6547 656.2 L49.6547 651.108 Q57.1663 646.334 64.3595 643.978 Q71.5528 641.591 78.6505 641.591 Q85.7801 641.591 93.0052 643.978 Q100.23 646.334 107.71 651.108 L107.71 656.2 Q100.421 651.967 93.228 649.898 Q86.0029 647.798 78.6505 647.798 Q71.2981 647.798 64.1367 649.898 Q56.9753 651.967 49.6547 656.2 Z" fill="#000000" fill-rule="nonzero" fill-opacity="1" /><path clip-path="url(#clip480)" d="M1059.4 44.2197 Q1062.04 45.1109 1064.51 48.0275 Q1067.02 50.9442 1069.53 56.0483 L1077.84 72.576 L1069.04 72.576 L1061.31 57.061 Q1058.31 50.9847 1055.47 48.9997 Q1052.68 47.0148 1047.82 47.0148 L1038.91 47.0148 L1038.91 72.576 L1030.72 72.576 L1030.72 12.096 L1049.2 12.096 Q1059.57 12.096 1064.67 16.4305 Q1069.77 20.7649 1069.77 29.5149 Q1069.77 35.2267 1067.1 38.994 Q1064.47 42.7613 1059.4 44.2197 M1038.91 18.8205 L1038.91 40.2903 L1049.2 40.2903 Q1055.11 40.2903 1058.11 37.5762 Q1061.15 34.8216 1061.15 29.5149 Q1061.15 24.2082 1058.11 21.5346 Q1055.11 18.8205 1049.2 18.8205 L1038.91 18.8205 Z" fill="#000000" fill-rule="nonzero" fill-opacity="1" /><path clip-path="url(#clip480)" d="M1123.12 48.0275 L1123.12 51.6733 L1088.85 51.6733 Q1089.34 59.3701 1093.47 63.421 Q1097.64 67.4314 1105.06 67.4314 Q1109.35 67.4314 1113.36 66.3781 Q1117.41 65.3249 1121.38 63.2184 L1121.38 70.267 Q1117.37 71.9684 1113.16 72.8596 Q1108.95 73.7508 1104.61 73.7508 Q1093.76 73.7508 1087.4 67.4314 Q1081.08 61.1119 1081.08 50.3365 Q1081.08 39.1965 1087.07 32.6746 Q1093.11 26.1121 1103.32 26.1121 Q1112.47 26.1121 1117.78 32.0264 Q1123.12 37.9003 1123.12 48.0275 M1115.67 45.84 Q1115.59 39.7232 1112.23 36.0774 Q1108.91 32.4315 1103.4 32.4315 Q1097.16 32.4315 1093.39 35.9558 Q1089.66 39.4801 1089.1 45.8805 L1115.67 45.84 Z" fill="#000000" fill-rule="nonzero" fill-opacity="1" /><path clip-path="url(#clip480)" d="M1158.33 9.54393 L1158.33 15.7418 L1151.2 15.7418 Q1147.19 15.7418 1145.61 17.3622 Q1144.07 18.9825 1144.07 23.1955 L1144.07 27.2059 L1156.34 27.2059 L1156.34 32.9987 L1144.07 32.9987 L1144.07 72.576 L1136.57 72.576 L1136.57 32.9987 L1129.44 32.9987 L1129.44 27.2059 L1136.57 27.2059 L1136.57 24.0462 Q1136.57 16.471 1140.1 13.0277 Q1143.62 9.54393 1151.28 9.54393 L1158.33 9.54393 Z" fill="#000000" fill-rule="nonzero" fill-opacity="1" /><path clip-path="url(#clip480)" d="M1203.37 48.0275 L1203.37 51.6733 L1169.1 51.6733 Q1169.59 59.3701 1173.72 63.421 Q1177.89 67.4314 1185.31 67.4314 Q1189.6 67.4314 1193.61 66.3781 Q1197.66 65.3249 1201.63 63.2184 L1201.63 70.267 Q1197.62 71.9684 1193.41 72.8596 Q1189.19 73.7508 1184.86 73.7508 Q1174 73.7508 1167.64 67.4314 Q1161.32 61.1119 1161.32 50.3365 Q1161.32 39.1965 1167.32 32.6746 Q1173.36 26.1121 1183.56 26.1121 Q1192.72 26.1121 1198.03 32.0264 Q1203.37 37.9003 1203.37 48.0275 M1195.92 45.84 Q1195.84 39.7232 1192.48 36.0774 Q1189.15 32.4315 1183.64 32.4315 Q1177.41 32.4315 1173.64 35.9558 Q1169.91 39.4801 1169.35 45.8805 L1195.92 45.84 Z" fill="#000000" fill-rule="nonzero" fill-opacity="1" /><path clip-path="url(#clip480)" d="M1241.9 34.1734 Q1240.64 33.4443 1239.14 33.1202 Q1237.68 32.7556 1235.9 32.7556 Q1229.58 32.7556 1226.18 36.8875 Q1222.82 40.9789 1222.82 48.6757 L1222.82 72.576 L1215.32 72.576 L1215.32 27.2059 L1222.82 27.2059 L1222.82 34.2544 Q1225.17 30.1225 1228.93 28.1376 Q1232.7 26.1121 1238.09 26.1121 Q1238.86 26.1121 1239.79 26.2337 Q1240.72 26.3147 1241.86 26.5172 L1241.9 34.1734 Z" fill="#000000" fill-rule="nonzero" fill-opacity="1" /><path clip-path="url(#clip480)" d="M1286.7 48.0275 L1286.7 51.6733 L1252.43 51.6733 Q1252.92 59.3701 1257.05 63.421 Q1261.22 67.4314 1268.63 67.4314 Q1272.93 67.4314 1276.94 66.3781 Q1280.99 65.3249 1284.96 63.2184 L1284.96 70.267 Q1280.95 71.9684 1276.73 72.8596 Q1272.52 73.7508 1268.19 73.7508 Q1257.33 73.7508 1250.97 67.4314 Q1244.65 61.1119 1244.65 50.3365 Q1244.65 39.1965 1250.65 32.6746 Q1256.68 26.1121 1266.89 26.1121 Q1276.05 26.1121 1281.35 32.0264 Q1286.7 37.9003 1286.7 48.0275 M1279.25 45.84 Q1279.17 39.7232 1275.8 36.0774 Q1272.48 32.4315 1266.97 32.4315 Q1260.73 32.4315 1256.97 35.9558 Q1253.24 39.4801 1252.67 45.8805 L1279.25 45.84 Z" fill="#000000" fill-rule="nonzero" fill-opacity="1" /><path clip-path="url(#clip480)" d="M1336.65 45.1919 L1336.65 72.576 L1329.19 72.576 L1329.19 45.4349 Q1329.19 38.994 1326.68 35.7938 Q1324.17 32.5936 1319.15 32.5936 Q1313.11 32.5936 1309.63 36.4419 Q1306.14 40.2903 1306.14 46.9338 L1306.14 72.576 L1298.65 72.576 L1298.65 27.2059 L1306.14 27.2059 L1306.14 34.2544 Q1308.82 30.163 1312.42 28.1376 Q1316.07 26.1121 1320.81 26.1121 Q1328.63 26.1121 1332.64 30.9732 Q1336.65 35.7938 1336.65 45.1919 Z" fill="#000000" fill-rule="nonzero" fill-opacity="1" /><path clip-path="url(#clip480)" d="M1384.16 28.9478 L1384.16 35.9153 Q1381 34.1734 1377.8 33.3227 Q1374.65 32.4315 1371.4 32.4315 Q1364.15 32.4315 1360.14 37.0496 Q1356.13 41.6271 1356.13 49.9314 Q1356.13 58.2358 1360.14 62.8538 Q1364.15 67.4314 1371.4 67.4314 Q1374.65 67.4314 1377.8 66.5807 Q1381 65.6895 1384.16 63.9476 L1384.16 70.8341 Q1381.05 72.2924 1377.68 73.0216 Q1374.36 73.7508 1370.59 73.7508 Q1360.35 73.7508 1354.31 67.3098 Q1348.27 60.8689 1348.27 49.9314 Q1348.27 38.832 1354.35 32.472 Q1360.47 26.1121 1371.08 26.1121 Q1374.52 26.1121 1377.8 26.8413 Q1381.09 27.5299 1384.16 28.9478 Z" fill="#000000" fill-rule="nonzero" fill-opacity="1" /><path clip-path="url(#clip480)" d="M1435.94 48.0275 L1435.94 51.6733 L1401.66 51.6733 Q1402.15 59.3701 1406.28 63.421 Q1410.46 67.4314 1417.87 67.4314 Q1422.16 67.4314 1426.17 66.3781 Q1430.22 65.3249 1434.19 63.2184 L1434.19 70.267 Q1430.18 71.9684 1425.97 72.8596 Q1421.76 73.7508 1417.42 73.7508 Q1406.57 73.7508 1400.21 67.4314 Q1393.89 61.1119 1393.89 50.3365 Q1393.89 39.1965 1399.88 32.6746 Q1405.92 26.1121 1416.13 26.1121 Q1425.28 26.1121 1430.59 32.0264 Q1435.94 37.9003 1435.94 48.0275 M1428.48 45.84 Q1428.4 39.7232 1425.04 36.0774 Q1421.72 32.4315 1416.21 32.4315 Q1409.97 32.4315 1406.2 35.9558 Q1402.47 39.4801 1401.91 45.8805 L1428.48 45.84 Z" fill="#000000" fill-rule="nonzero" fill-opacity="1" /><path clip-path="url(#clip480)" d="M1450.07 62.2867 L1458.62 62.2867 L1458.62 72.576 L1450.07 72.576 L1450.07 62.2867 M1450.07 29.6769 L1458.62 29.6769 L1458.62 39.9662 L1450.07 39.9662 L1450.07 29.6769 Z" fill="#000000" fill-rule="nonzero" fill-opacity="1" /><path clip-path="url(#clip480)" d="M1531.5 44.2197 Q1534.13 45.1109 1536.6 48.0275 Q1539.11 50.9442 1541.62 56.0483 L1549.93 72.576 L1541.14 72.576 L1533.4 57.061 Q1530.4 50.9847 1527.57 48.9997 Q1524.77 47.0148 1519.91 47.0148 L1511 47.0148 L1511 72.576 L1502.82 72.576 L1502.82 12.096 L1521.29 12.096 Q1531.66 12.096 1536.76 16.4305 Q1541.87 20.7649 1541.87 29.5149 Q1541.87 35.2267 1539.19 38.994 Q1536.56 42.7613 1531.5 44.2197 M1511 18.8205 L1511 40.2903 L1521.29 40.2903 Q1527.2 40.2903 1530.2 37.5762 Q1533.24 34.8216 1533.24 29.5149 Q1533.24 24.2082 1530.2 21.5346 Q1527.2 18.8205 1521.29 18.8205 L1511 18.8205 Z" fill="#000000" fill-rule="nonzero" fill-opacity="1" /><path clip-path="url(#clip480)" d="M1573.99 32.4315 Q1567.99 32.4315 1564.51 37.1306 Q1561.03 41.7891 1561.03 49.9314 Q1561.03 58.0738 1564.47 62.7728 Q1567.95 67.4314 1573.99 67.4314 Q1579.94 67.4314 1583.43 62.7323 Q1586.91 58.0333 1586.91 49.9314 Q1586.91 41.8701 1583.43 37.1711 Q1579.94 32.4315 1573.99 32.4315 M1573.99 26.1121 Q1583.71 26.1121 1589.26 32.4315 Q1594.81 38.7509 1594.81 49.9314 Q1594.81 61.0714 1589.26 67.4314 Q1583.71 73.7508 1573.99 73.7508 Q1564.23 73.7508 1558.68 67.4314 Q1553.17 61.0714 1553.17 49.9314 Q1553.17 38.7509 1558.68 32.4315 Q1564.23 26.1121 1573.99 26.1121 Z" fill="#000000" fill-rule="nonzero" fill-opacity="1" /><path clip-path="url(#clip480)" d="M1637.02 34.0924 L1637.02 9.54393 L1644.48 9.54393 L1644.48 72.576 L1637.02 72.576 L1637.02 65.7705 Q1634.67 69.8214 1631.07 71.8063 Q1627.5 73.7508 1622.48 73.7508 Q1614.26 73.7508 1609.07 67.1883 Q1603.93 60.6258 1603.93 49.9314 Q1603.93 39.2371 1609.07 32.6746 Q1614.26 26.1121 1622.48 26.1121 Q1627.5 26.1121 1631.07 28.0971 Q1634.67 30.0415 1637.02 34.0924 M1611.62 49.9314 Q1611.62 58.1548 1614.99 62.8538 Q1618.39 67.5124 1624.3 67.5124 Q1630.22 67.5124 1633.62 62.8538 Q1637.02 58.1548 1637.02 49.9314 Q1637.02 41.7081 1633.62 37.0496 Q1630.22 32.3505 1624.3 32.3505 Q1618.39 32.3505 1614.99 37.0496 Q1611.62 41.7081 1611.62 49.9314 Z" fill="#000000" fill-rule="nonzero" fill-opacity="1" /><path clip-path="url(#clip480)" d="M1680.45 49.7694 Q1671.41 49.7694 1667.93 51.8354 Q1664.45 53.9013 1664.45 58.8839 Q1664.45 62.8538 1667.04 65.2034 Q1669.67 67.5124 1674.17 67.5124 Q1680.37 67.5124 1684.09 63.1374 Q1687.86 58.7219 1687.86 51.4303 L1687.86 49.7694 L1680.45 49.7694 M1695.31 46.6907 L1695.31 72.576 L1687.86 72.576 L1687.86 65.6895 Q1685.31 69.8214 1681.5 71.8063 Q1677.69 73.7508 1672.18 73.7508 Q1665.22 73.7508 1661.08 69.8619 Q1656.99 65.9325 1656.99 59.3701 Q1656.99 51.7138 1662.1 47.825 Q1667.24 43.9361 1677.41 43.9361 L1687.86 43.9361 L1687.86 43.2069 Q1687.86 38.0623 1684.46 35.2672 Q1681.1 32.4315 1674.98 32.4315 Q1671.09 32.4315 1667.4 33.3632 Q1663.72 34.295 1660.31 36.1584 L1660.31 29.2718 Q1664.41 27.692 1668.25 26.9223 Q1672.1 26.1121 1675.75 26.1121 Q1685.59 26.1121 1690.45 31.2163 Q1695.31 36.3204 1695.31 46.6907 Z" fill="#000000" fill-rule="nonzero" fill-opacity="1" /><path clip-path="url(#clip480)" d="M1739.59 28.5427 L1739.59 35.5912 Q1736.43 33.9709 1733.03 33.1607 Q1729.63 32.3505 1725.98 32.3505 Q1720.43 32.3505 1717.64 34.0519 Q1714.88 35.7533 1714.88 39.156 Q1714.88 41.7486 1716.87 43.2475 Q1718.85 44.7058 1724.85 46.0426 L1727.4 46.6097 Q1735.34 48.3111 1738.66 51.4303 Q1742.02 54.509 1742.02 60.0587 Q1742.02 66.3781 1737 70.0644 Q1732.02 73.7508 1723.27 73.7508 Q1719.62 73.7508 1715.65 73.0216 Q1711.72 72.3329 1707.35 70.9151 L1707.35 63.2184 Q1711.48 65.3654 1715.49 66.4591 Q1719.5 67.5124 1723.43 67.5124 Q1728.69 67.5124 1731.53 65.73 Q1734.37 63.9071 1734.37 60.6258 Q1734.37 57.5877 1732.3 55.9673 Q1730.27 54.3469 1723.35 52.8481 L1720.75 52.2405 Q1713.83 50.7821 1710.75 47.7845 Q1707.67 44.7463 1707.67 39.4801 Q1707.67 33.0797 1712.21 29.5959 Q1716.74 26.1121 1725.09 26.1121 Q1729.22 26.1121 1732.87 26.7198 Q1736.51 27.3274 1739.59 28.5427 Z" fill="#000000" fill-rule="nonzero" fill-opacity="1" /><path clip-path="url(#clip480)" d="M1777.43 19.2256 L1756.77 51.5113 L1777.43 51.5113 L1777.43 19.2256 M1775.28 12.096 L1785.57 12.096 L1785.57 51.5113 L1794.2 51.5113 L1794.2 58.3168 L1785.57 58.3168 L1785.57 72.576 L1777.43 72.576 L1777.43 58.3168 L1750.12 58.3168 L1750.12 50.4176 L1775.28 12.096 Z" fill="#000000" fill-rule="nonzero" fill-opacity="1" /><path clip-path="url(#clip480)" d="M1815.18 18.8205 L1815.18 41.5461 L1825.47 41.5461 Q1831.18 41.5461 1834.3 38.5889 Q1837.42 35.6318 1837.42 30.163 Q1837.42 24.7348 1834.3 21.7777 Q1831.18 18.8205 1825.47 18.8205 L1815.18 18.8205 M1807 12.096 L1825.47 12.096 Q1835.64 12.096 1840.82 16.714 Q1846.05 21.2916 1846.05 30.163 Q1846.05 39.1155 1840.82 43.6931 Q1835.64 48.2706 1825.47 48.2706 L1815.18 48.2706 L1815.18 72.576 L1807 72.576 L1807 12.096 Z" fill="#000000" fill-rule="nonzero" fill-opacity="1" /><polyline clip-path="url(#clip482)" style="stroke:#009af9; stroke-linecap:round; stroke-linejoin:round; stroke-width:12; stroke-opacity:1; fill:none" points="1776.62,1202.85 1776.08,970.475 1775.95,723.836 636.363,471.597 410.311,205.311 "/>
<line clip-path="url(#clip482)" x1="1776.62" y1="1202.85" x2="1776.62" y2="1186.85" style="stroke:#009af9; stroke-width:12; stroke-opacity:1"/>
<line clip-path="url(#clip482)" x1="1776.62" y1="1202.85" x2="1760.62" y2="1202.85" style="stroke:#009af9; stroke-width:12; stroke-opacity:1"/>
<line clip-path="url(#clip482)" x1="1776.62" y1="1202.85" x2="1776.62" y2="1218.85" style="stroke:#009af9; stroke-width:12; stroke-opacity:1"/>
<line clip-path="url(#clip482)" x1="1776.62" y1="1202.85" x2="1792.62" y2="1202.85" style="stroke:#009af9; stroke-width:12; stroke-opacity:1"/>
<line clip-path="url(#clip482)" x1="1776.08" y1="970.475" x2="1776.08" y2="954.475" style="stroke:#009af9; stroke-width:12; stroke-opacity:1"/>
<line clip-path="url(#clip482)" x1="1776.08" y1="970.475" x2="1760.08" y2="970.475" style="stroke:#009af9; stroke-width:12; stroke-opacity:1"/>
<line clip-path="url(#clip482)" x1="1776.08" y1="970.475" x2="1776.08" y2="986.475" style="stroke:#009af9; stroke-width:12; stroke-opacity:1"/>
<line clip-path="url(#clip482)" x1="1776.08" y1="970.475" x2="1792.08" y2="970.475" style="stroke:#009af9; stroke-width:12; stroke-opacity:1"/>
<line clip-path="url(#clip482)" x1="1775.95" y1="723.836" x2="1775.95" y2="707.836" style="stroke:#009af9; stroke-width:12; stroke-opacity:1"/>
<line clip-path="url(#clip482)" x1="1775.95" y1="723.836" x2="1759.95" y2="723.836" style="stroke:#009af9; stroke-width:12; stroke-opacity:1"/>
<line clip-path="url(#clip482)" x1="1775.95" y1="723.836" x2="1775.95" y2="739.836" style="stroke:#009af9; stroke-width:12; stroke-opacity:1"/>
<line clip-path="url(#clip482)" x1="1775.95" y1="723.836" x2="1791.95" y2="723.836" style="stroke:#009af9; stroke-width:12; stroke-opacity:1"/>
<line clip-path="url(#clip482)" x1="636.363" y1="471.597" x2="636.363" y2="455.597" style="stroke:#009af9; stroke-width:12; stroke-opacity:1"/>
<line clip-path="url(#clip482)" x1="636.363" y1="471.597" x2="620.363" y2="471.597" style="stroke:#009af9; stroke-width:12; stroke-opacity:1"/>
<line clip-path="url(#clip482)" x1="636.363" y1="471.597" x2="636.363" y2="487.597" style="stroke:#009af9; stroke-width:12; stroke-opacity:1"/>
<line clip-path="url(#clip482)" x1="636.363" y1="471.597" x2="652.363" y2="471.597" style="stroke:#009af9; stroke-width:12; stroke-opacity:1"/>
<line clip-path="url(#clip482)" x1="410.311" y1="205.311" x2="410.311" y2="189.311" style="stroke:#009af9; stroke-width:12; stroke-opacity:1"/>
<line clip-path="url(#clip482)" x1="410.311" y1="205.311" x2="394.311" y2="205.311" style="stroke:#009af9; stroke-width:12; stroke-opacity:1"/>
<line clip-path="url(#clip482)" x1="410.311" y1="205.311" x2="410.311" y2="221.311" style="stroke:#009af9; stroke-width:12; stroke-opacity:1"/>
<line clip-path="url(#clip482)" x1="410.311" y1="205.311" x2="426.311" y2="205.311" style="stroke:#009af9; stroke-width:12; stroke-opacity:1"/>
<polyline clip-path="url(#clip482)" style="stroke:#e26f46; stroke-linecap:round; stroke-linejoin:round; stroke-width:12; stroke-opacity:1; fill:none" points="2466.46,1337.53 2455.53,1187.57 2449.73,1008 2454.61,783.518 2152.25,541.422 "/>
<circle clip-path="url(#clip482)" cx="2466.46" cy="1337.53" r="14.4" fill="#e26f46" fill-rule="evenodd" fill-opacity="1" stroke="#000000" stroke-opacity="1" stroke-width="3.2"/>
<circle clip-path="url(#clip482)" cx="2455.53" cy="1187.57" r="14.4" fill="#e26f46" fill-rule="evenodd" fill-opacity="1" stroke="#000000" stroke-opacity="1" stroke-width="3.2"/>
<circle clip-path="url(#clip482)" cx="2449.73" cy="1008" r="14.4" fill="#e26f46" fill-rule="evenodd" fill-opacity="1" stroke="#000000" stroke-opacity="1" stroke-width="3.2"/>
<circle clip-path="url(#clip482)" cx="2454.61" cy="783.518" r="14.4" fill="#e26f46" fill-rule="evenodd" fill-opacity="1" stroke="#000000" stroke-opacity="1" stroke-width="3.2"/>
<circle clip-path="url(#clip482)" cx="2152.25" cy="541.422" r="14.4" fill="#e26f46" fill-rule="evenodd" fill-opacity="1" stroke="#000000" stroke-opacity="1" stroke-width="3.2"/>
<polyline clip-path="url(#clip482)" style="stroke:#3da44d; stroke-linecap:round; stroke-linejoin:round; stroke-width:12; stroke-opacity:1; fill:none" points="1739.49,1211.28 1770,1024.1 1774.98,817.187 1125.87,602.167 923.382,398.553 "/>
<line clip-path="url(#clip482)" x1="1739.49" y1="1211.28" x2="1739.49" y2="1195.28" style="stroke:#3da44d; stroke-width:12; stroke-opacity:1"/>
<line clip-path="url(#clip482)" x1="1739.49" y1="1211.28" x2="1723.49" y2="1211.28" style="stroke:#3da44d; stroke-width:12; stroke-opacity:1"/>
<line clip-path="url(#clip482)" x1="1739.49" y1="1211.28" x2="1739.49" y2="1227.28" style="stroke:#3da44d; stroke-width:12; stroke-opacity:1"/>
<line clip-path="url(#clip482)" x1="1739.49" y1="1211.28" x2="1755.49" y2="1211.28" style="stroke:#3da44d; stroke-width:12; stroke-opacity:1"/>
<line clip-path="url(#clip482)" x1="1770" y1="1024.1" x2="1770" y2="1008.1" style="stroke:#3da44d; stroke-width:12; stroke-opacity:1"/>
<line clip-path="url(#clip482)" x1="1770" y1="1024.1" x2="1754" y2="1024.1" style="stroke:#3da44d; stroke-width:12; stroke-opacity:1"/>
<line clip-path="url(#clip482)" x1="1770" y1="1024.1" x2="1770" y2="1040.1" style="stroke:#3da44d; stroke-width:12; stroke-opacity:1"/>
<line clip-path="url(#clip482)" x1="1770" y1="1024.1" x2="1786" y2="1024.1" style="stroke:#3da44d; stroke-width:12; stroke-opacity:1"/>
<line clip-path="url(#clip482)" x1="1774.98" y1="817.187" x2="1774.98" y2="801.187" style="stroke:#3da44d; stroke-width:12; stroke-opacity:1"/>
<line clip-path="url(#clip482)" x1="1774.98" y1="817.187" x2="1758.98" y2="817.187" style="stroke:#3da44d; stroke-width:12; stroke-opacity:1"/>
<line clip-path="url(#clip482)" x1="1774.98" y1="817.187" x2="1774.98" y2="833.187" style="stroke:#3da44d; stroke-width:12; stroke-opacity:1"/>
<line clip-path="url(#clip482)" x1="1774.98" y1="817.187" x2="1790.98" y2="817.187" style="stroke:#3da44d; stroke-width:12; stroke-opacity:1"/>
<line clip-path="url(#clip482)" x1="1125.87" y1="602.167" x2="1125.87" y2="586.167" style="stroke:#3da44d; stroke-width:12; stroke-opacity:1"/>
<line clip-path="url(#clip482)" x1="1125.87" y1="602.167" x2="1109.87" y2="602.167" style="stroke:#3da44d; stroke-width:12; stroke-opacity:1"/>
<line clip-path="url(#clip482)" x1="1125.87" y1="602.167" x2="1125.87" y2="618.167" style="stroke:#3da44d; stroke-width:12; stroke-opacity:1"/>
<line clip-path="url(#clip482)" x1="1125.87" y1="602.167" x2="1141.87" y2="602.167" style="stroke:#3da44d; stroke-width:12; stroke-opacity:1"/>
<line clip-path="url(#clip482)" x1="923.382" y1="398.553" x2="923.382" y2="382.553" style="stroke:#3da44d; stroke-width:12; stroke-opacity:1"/>
<line clip-path="url(#clip482)" x1="923.382" y1="398.553" x2="907.382" y2="398.553" style="stroke:#3da44d; stroke-width:12; stroke-opacity:1"/>
<line clip-path="url(#clip482)" x1="923.382" y1="398.553" x2="923.382" y2="414.553" style="stroke:#3da44d; stroke-width:12; stroke-opacity:1"/>
<line clip-path="url(#clip482)" x1="923.382" y1="398.553" x2="939.382" y2="398.553" style="stroke:#3da44d; stroke-width:12; stroke-opacity:1"/>
<polyline clip-path="url(#clip482)" style="stroke:#c271d2; stroke-linecap:round; stroke-linejoin:round; stroke-width:12; stroke-opacity:1; fill:none" points="1759.78,1182.81 1773.33,1043.62 1775.47,870.26 1069.5,690.372 881.538,494.93 "/>
<path clip-path="url(#clip482)" d="M1759.78 1166.81 L1743.78 1182.81 L1759.78 1198.81 L1775.78 1182.81 L1759.78 1166.81 Z" fill="#c271d2" fill-rule="evenodd" fill-opacity="1" stroke="#000000" stroke-opacity="1" stroke-width="3.2"/>
<path clip-path="url(#clip482)" d="M1773.33 1027.62 L1757.33 1043.62 L1773.33 1059.62 L1789.33 1043.62 L1773.33 1027.62 Z" fill="#c271d2" fill-rule="evenodd" fill-opacity="1" stroke="#000000" stroke-opacity="1" stroke-width="3.2"/>
<path clip-path="url(#clip482)" d="M1775.47 854.26 L1759.47 870.26 L1775.47 886.26 L1791.47 870.26 L1775.47 854.26 Z" fill="#c271d2" fill-rule="evenodd" fill-opacity="1" stroke="#000000" stroke-opacity="1" stroke-width="3.2"/>
<path clip-path="url(#clip482)" d="M1069.5 674.372 L1053.5 690.372 L1069.5 706.372 L1085.5 690.372 L1069.5 674.372 Z" fill="#c271d2" fill-rule="evenodd" fill-opacity="1" stroke="#000000" stroke-opacity="1" stroke-width="3.2"/>
<path clip-path="url(#clip482)" d="M881.538 478.93 L865.538 494.93 L881.538 510.93 L897.538 494.93 L881.538 478.93 Z" fill="#c271d2" fill-rule="evenodd" fill-opacity="1" stroke="#000000" stroke-opacity="1" stroke-width="3.2"/>
<path clip-path="url(#clip480)" d="M2619.52 915.105 L3089.76 915.105 L3089.76 655.905 L2619.52 655.905  Z" fill="#ffffff" fill-rule="evenodd" fill-opacity="1"/>
<polyline clip-path="url(#clip480)" style="stroke:#000000; stroke-linecap:round; stroke-linejoin:round; stroke-width:4; stroke-opacity:1; fill:none" points="2619.52,915.105 3089.76,915.105 3089.76,655.905 2619.52,655.905 2619.52,915.105 "/>
<polyline clip-path="url(#clip480)" style="stroke:#009af9; stroke-linecap:round; stroke-linejoin:round; stroke-width:12; stroke-opacity:1; fill:none" points="2649.97,707.745 2832.72,707.745 "/>
<line clip-path="url(#clip480)" x1="2741.35" y1="707.745" x2="2741.35" y2="684.989" style="stroke:#009af9; stroke-width:12; stroke-opacity:1"/>
<line clip-path="url(#clip480)" x1="2741.35" y1="707.745" x2="2718.59" y2="707.745" style="stroke:#009af9; stroke-width:12; stroke-opacity:1"/>
<line clip-path="url(#clip480)" x1="2741.35" y1="707.745" x2="2741.35" y2="730.5" style="stroke:#009af9; stroke-width:12; stroke-opacity:1"/>
<line clip-path="url(#clip480)" x1="2741.35" y1="707.745" x2="2764.1" y2="707.745" style="stroke:#009af9; stroke-width:12; stroke-opacity:1"/>
<path clip-path="url(#clip480)" d="M2879.56 708.821 Q2881.07 709.33 2882.48 710.997 Q2883.91 712.664 2885.35 715.58 L2890.09 725.025 L2885.07 725.025 L2880.65 716.159 Q2878.94 712.687 2877.32 711.553 Q2875.72 710.418 2872.94 710.418 L2867.85 710.418 L2867.85 725.025 L2863.17 725.025 L2863.17 690.465 L2873.73 690.465 Q2879.65 690.465 2882.57 692.942 Q2885.49 695.418 2885.49 700.418 Q2885.49 703.682 2883.96 705.835 Q2882.46 707.988 2879.56 708.821 M2867.85 694.307 L2867.85 706.576 L2873.73 706.576 Q2877.11 706.576 2878.82 705.025 Q2880.56 703.451 2880.56 700.418 Q2880.56 697.386 2878.82 695.858 Q2877.11 694.307 2873.73 694.307 L2867.85 694.307 Z" fill="#000000" fill-rule="nonzero" fill-opacity="1" /><path clip-path="url(#clip480)" d="M2903.84 702.085 Q2900.42 702.085 2898.43 704.77 Q2896.44 707.432 2896.44 712.085 Q2896.44 716.738 2898.4 719.423 Q2900.4 722.085 2903.84 722.085 Q2907.25 722.085 2909.24 719.4 Q2911.23 716.715 2911.23 712.085 Q2911.23 707.479 2909.24 704.793 Q2907.25 702.085 2903.84 702.085 M2903.84 698.474 Q2909.4 698.474 2912.57 702.085 Q2915.74 705.696 2915.74 712.085 Q2915.74 718.451 2912.57 722.085 Q2909.4 725.696 2903.84 725.696 Q2898.27 725.696 2895.09 722.085 Q2891.95 718.451 2891.95 712.085 Q2891.95 705.696 2895.09 702.085 Q2898.27 698.474 2903.84 698.474 Z" fill="#000000" fill-rule="nonzero" fill-opacity="1" /><path clip-path="url(#clip480)" d="M2939.86 703.034 L2939.86 689.006 L2944.12 689.006 L2944.12 725.025 L2939.86 725.025 L2939.86 721.136 Q2938.52 723.451 2936.46 724.585 Q2934.42 725.696 2931.55 725.696 Q2926.85 725.696 2923.89 721.946 Q2920.95 718.196 2920.95 712.085 Q2920.95 705.974 2923.89 702.224 Q2926.85 698.474 2931.55 698.474 Q2934.42 698.474 2936.46 699.608 Q2938.52 700.719 2939.86 703.034 M2925.35 712.085 Q2925.35 716.784 2927.27 719.469 Q2929.21 722.131 2932.59 722.131 Q2935.97 722.131 2937.92 719.469 Q2939.86 716.784 2939.86 712.085 Q2939.86 707.386 2937.92 704.724 Q2935.97 702.039 2932.59 702.039 Q2929.21 702.039 2927.27 704.724 Q2925.35 707.386 2925.35 712.085 Z" fill="#000000" fill-rule="nonzero" fill-opacity="1" /><path clip-path="url(#clip480)" d="M2964.68 711.992 Q2959.52 711.992 2957.52 713.173 Q2955.53 714.354 2955.53 717.201 Q2955.53 719.469 2957.02 720.812 Q2958.52 722.131 2961.09 722.131 Q2964.63 722.131 2966.76 719.631 Q2968.91 717.108 2968.91 712.942 L2968.91 711.992 L2964.68 711.992 M2973.17 710.233 L2973.17 725.025 L2968.91 725.025 L2968.91 721.09 Q2967.46 723.451 2965.28 724.585 Q2963.1 725.696 2959.96 725.696 Q2955.97 725.696 2953.61 723.474 Q2951.27 721.229 2951.27 717.479 Q2951.27 713.104 2954.19 710.881 Q2957.13 708.659 2962.94 708.659 L2968.91 708.659 L2968.91 708.243 Q2968.91 705.303 2966.97 703.705 Q2965.05 702.085 2961.55 702.085 Q2959.33 702.085 2957.22 702.618 Q2955.12 703.15 2953.17 704.215 L2953.17 700.28 Q2955.51 699.377 2957.71 698.937 Q2959.91 698.474 2961.99 698.474 Q2967.62 698.474 2970.4 701.391 Q2973.17 704.307 2973.17 710.233 Z" fill="#000000" fill-rule="nonzero" fill-opacity="1" /><path clip-path="url(#clip480)" d="M2998.47 699.863 L2998.47 703.891 Q2996.67 702.965 2994.72 702.502 Q2992.78 702.039 2990.7 702.039 Q2987.52 702.039 2985.93 703.011 Q2984.35 703.983 2984.35 705.928 Q2984.35 707.409 2985.49 708.266 Q2986.62 709.099 2990.05 709.863 L2991.51 710.187 Q2996.04 711.159 2997.94 712.942 Q2999.86 714.701 2999.86 717.872 Q2999.86 721.483 2996.99 723.59 Q2994.15 725.696 2989.15 725.696 Q2987.06 725.696 2984.79 725.279 Q2982.55 724.886 2980.05 724.076 L2980.05 719.678 Q2982.41 720.904 2984.7 721.529 Q2986.99 722.131 2989.24 722.131 Q2992.25 722.131 2993.87 721.113 Q2995.49 720.071 2995.49 718.196 Q2995.49 716.46 2994.31 715.534 Q2993.15 714.608 2989.19 713.752 L2987.71 713.405 Q2983.75 712.571 2981.99 710.858 Q2980.23 709.122 2980.23 706.113 Q2980.23 702.455 2982.83 700.465 Q2985.42 698.474 2990.19 698.474 Q2992.55 698.474 2994.63 698.821 Q2996.71 699.168 2998.47 699.863 Z" fill="#000000" fill-rule="nonzero" fill-opacity="1" /><path clip-path="url(#clip480)" d="M3020.09 694.539 L3008.29 712.988 L3020.09 712.988 L3020.09 694.539 M3018.87 690.465 L3024.75 690.465 L3024.75 712.988 L3029.68 712.988 L3029.68 716.877 L3024.75 716.877 L3024.75 725.025 L3020.09 725.025 L3020.09 716.877 L3004.49 716.877 L3004.49 712.363 L3018.87 690.465 Z" fill="#000000" fill-rule="nonzero" fill-opacity="1" /><polyline clip-path="url(#clip480)" style="stroke:#e26f46; stroke-linecap:round; stroke-linejoin:round; stroke-width:12; stroke-opacity:1; fill:none" points="2649.97,759.585 2832.72,759.585 "/>
<circle clip-path="url(#clip480)" cx="2741.35" cy="759.585" r="20.48" fill="#e26f46" fill-rule="evenodd" fill-opacity="1" stroke="#000000" stroke-opacity="1" stroke-width="4.55111"/>
<path clip-path="url(#clip480)" d="M2879.56 760.661 Q2881.07 761.17 2882.48 762.837 Q2883.91 764.504 2885.35 767.42 L2890.09 776.865 L2885.07 776.865 L2880.65 767.999 Q2878.94 764.527 2877.32 763.393 Q2875.72 762.258 2872.94 762.258 L2867.85 762.258 L2867.85 776.865 L2863.17 776.865 L2863.17 742.305 L2873.73 742.305 Q2879.65 742.305 2882.57 744.782 Q2885.49 747.258 2885.49 752.258 Q2885.49 755.522 2883.96 757.675 Q2882.46 759.828 2879.56 760.661 M2867.85 746.147 L2867.85 758.416 L2873.73 758.416 Q2877.11 758.416 2878.82 756.865 Q2880.56 755.291 2880.56 752.258 Q2880.56 749.226 2878.82 747.698 Q2877.11 746.147 2873.73 746.147 L2867.85 746.147 Z" fill="#000000" fill-rule="nonzero" fill-opacity="1" /><path clip-path="url(#clip480)" d="M2903.84 753.925 Q2900.42 753.925 2898.43 756.61 Q2896.44 759.272 2896.44 763.925 Q2896.44 768.578 2898.4 771.263 Q2900.4 773.925 2903.84 773.925 Q2907.25 773.925 2909.24 771.24 Q2911.23 768.555 2911.23 763.925 Q2911.23 759.319 2909.24 756.633 Q2907.25 753.925 2903.84 753.925 M2903.84 750.314 Q2909.4 750.314 2912.57 753.925 Q2915.74 757.536 2915.74 763.925 Q2915.74 770.291 2912.57 773.925 Q2909.4 777.536 2903.84 777.536 Q2898.27 777.536 2895.09 773.925 Q2891.95 770.291 2891.95 763.925 Q2891.95 757.536 2895.09 753.925 Q2898.27 750.314 2903.84 750.314 Z" fill="#000000" fill-rule="nonzero" fill-opacity="1" /><path clip-path="url(#clip480)" d="M2939.86 754.874 L2939.86 740.846 L2944.12 740.846 L2944.12 776.865 L2939.86 776.865 L2939.86 772.976 Q2938.52 775.291 2936.46 776.425 Q2934.42 777.536 2931.55 777.536 Q2926.85 777.536 2923.89 773.786 Q2920.95 770.036 2920.95 763.925 Q2920.95 757.814 2923.89 754.064 Q2926.85 750.314 2931.55 750.314 Q2934.42 750.314 2936.46 751.448 Q2938.52 752.559 2939.86 754.874 M2925.35 763.925 Q2925.35 768.624 2927.27 771.309 Q2929.21 773.971 2932.59 773.971 Q2935.97 773.971 2937.92 771.309 Q2939.86 768.624 2939.86 763.925 Q2939.86 759.226 2937.92 756.564 Q2935.97 753.879 2932.59 753.879 Q2929.21 753.879 2927.27 756.564 Q2925.35 759.226 2925.35 763.925 Z" fill="#000000" fill-rule="nonzero" fill-opacity="1" /><path clip-path="url(#clip480)" d="M2964.68 763.832 Q2959.52 763.832 2957.52 765.013 Q2955.53 766.194 2955.53 769.041 Q2955.53 771.309 2957.02 772.652 Q2958.52 773.971 2961.09 773.971 Q2964.63 773.971 2966.76 771.471 Q2968.91 768.948 2968.91 764.782 L2968.91 763.832 L2964.68 763.832 M2973.17 762.073 L2973.17 776.865 L2968.91 776.865 L2968.91 772.93 Q2967.46 775.291 2965.28 776.425 Q2963.1 777.536 2959.96 777.536 Q2955.97 777.536 2953.61 775.314 Q2951.27 773.069 2951.27 769.319 Q2951.27 764.944 2954.19 762.721 Q2957.13 760.499 2962.94 760.499 L2968.91 760.499 L2968.91 760.083 Q2968.91 757.143 2966.97 755.545 Q2965.05 753.925 2961.55 753.925 Q2959.33 753.925 2957.22 754.458 Q2955.12 754.99 2953.17 756.055 L2953.17 752.12 Q2955.51 751.217 2957.71 750.777 Q2959.91 750.314 2961.99 750.314 Q2967.62 750.314 2970.4 753.231 Q2973.17 756.147 2973.17 762.073 Z" fill="#000000" fill-rule="nonzero" fill-opacity="1" /><path clip-path="url(#clip480)" d="M2998.47 751.703 L2998.47 755.731 Q2996.67 754.805 2994.72 754.342 Q2992.78 753.879 2990.7 753.879 Q2987.52 753.879 2985.93 754.851 Q2984.35 755.823 2984.35 757.768 Q2984.35 759.249 2985.49 760.106 Q2986.62 760.939 2990.05 761.703 L2991.51 762.027 Q2996.04 762.999 2997.94 764.782 Q2999.86 766.541 2999.86 769.712 Q2999.86 773.323 2996.99 775.43 Q2994.15 777.536 2989.15 777.536 Q2987.06 777.536 2984.79 777.119 Q2982.55 776.726 2980.05 775.916 L2980.05 771.518 Q2982.41 772.744 2984.7 773.369 Q2986.99 773.971 2989.24 773.971 Q2992.25 773.971 2993.87 772.953 Q2995.49 771.911 2995.49 770.036 Q2995.49 768.3 2994.31 767.374 Q2993.15 766.448 2989.19 765.592 L2987.71 765.245 Q2983.75 764.411 2981.99 762.698 Q2980.23 760.962 2980.23 757.953 Q2980.23 754.295 2982.83 752.305 Q2985.42 750.314 2990.19 750.314 Q2992.55 750.314 2994.63 750.661 Q2996.71 751.008 2998.47 751.703 Z" fill="#000000" fill-rule="nonzero" fill-opacity="1" /><path clip-path="url(#clip480)" d="M3007.29 742.305 L3025.65 742.305 L3025.65 746.24 L3011.58 746.24 L3011.58 754.712 Q3012.59 754.365 3013.61 754.203 Q3014.63 754.018 3015.65 754.018 Q3021.44 754.018 3024.82 757.189 Q3028.2 760.36 3028.2 765.777 Q3028.2 771.356 3024.72 774.457 Q3021.25 777.536 3014.93 777.536 Q3012.76 777.536 3010.49 777.166 Q3008.24 776.795 3005.83 776.055 L3005.83 771.356 Q3007.92 772.49 3010.14 773.045 Q3012.36 773.601 3014.84 773.601 Q3018.84 773.601 3021.18 771.494 Q3023.52 769.388 3023.52 765.777 Q3023.52 762.166 3021.18 760.059 Q3018.84 757.953 3014.84 757.953 Q3012.96 757.953 3011.09 758.37 Q3009.24 758.786 3007.29 759.666 L3007.29 742.305 Z" fill="#000000" fill-rule="nonzero" fill-opacity="1" /><polyline clip-path="url(#clip480)" style="stroke:#3da44d; stroke-linecap:round; stroke-linejoin:round; stroke-width:12; stroke-opacity:1; fill:none" points="2649.97,811.425 2832.72,811.425 "/>
<line clip-path="url(#clip480)" x1="2741.35" y1="811.425" x2="2741.35" y2="788.669" style="stroke:#3da44d; stroke-width:12; stroke-opacity:1"/>
<line clip-path="url(#clip480)" x1="2741.35" y1="811.425" x2="2718.59" y2="811.425" style="stroke:#3da44d; stroke-width:12; stroke-opacity:1"/>
<line clip-path="url(#clip480)" x1="2741.35" y1="811.425" x2="2741.35" y2="834.18" style="stroke:#3da44d; stroke-width:12; stroke-opacity:1"/>
<line clip-path="url(#clip480)" x1="2741.35" y1="811.425" x2="2764.1" y2="811.425" style="stroke:#3da44d; stroke-width:12; stroke-opacity:1"/>
<path clip-path="url(#clip480)" d="M2879.56 812.501 Q2881.07 813.01 2882.48 814.677 Q2883.91 816.344 2885.35 819.26 L2890.09 828.705 L2885.07 828.705 L2880.65 819.839 Q2878.94 816.367 2877.32 815.233 Q2875.72 814.098 2872.94 814.098 L2867.85 814.098 L2867.85 828.705 L2863.17 828.705 L2863.17 794.145 L2873.73 794.145 Q2879.65 794.145 2882.57 796.622 Q2885.49 799.098 2885.49 804.098 Q2885.49 807.362 2883.96 809.515 Q2882.46 811.668 2879.56 812.501 M2867.85 797.987 L2867.85 810.256 L2873.73 810.256 Q2877.11 810.256 2878.82 808.705 Q2880.56 807.131 2880.56 804.098 Q2880.56 801.066 2878.82 799.538 Q2877.11 797.987 2873.73 797.987 L2867.85 797.987 Z" fill="#000000" fill-rule="nonzero" fill-opacity="1" /><path clip-path="url(#clip480)" d="M2903.84 805.765 Q2900.42 805.765 2898.43 808.45 Q2896.44 811.112 2896.44 815.765 Q2896.44 820.418 2898.4 823.103 Q2900.4 825.765 2903.84 825.765 Q2907.25 825.765 2909.24 823.08 Q2911.23 820.395 2911.23 815.765 Q2911.23 811.159 2909.24 808.473 Q2907.25 805.765 2903.84 805.765 M2903.84 802.154 Q2909.4 802.154 2912.57 805.765 Q2915.74 809.376 2915.74 815.765 Q2915.74 822.131 2912.57 825.765 Q2909.4 829.376 2903.84 829.376 Q2898.27 829.376 2895.09 825.765 Q2891.95 822.131 2891.95 815.765 Q2891.95 809.376 2895.09 805.765 Q2898.27 802.154 2903.84 802.154 Z" fill="#000000" fill-rule="nonzero" fill-opacity="1" /><path clip-path="url(#clip480)" d="M2939.86 806.714 L2939.86 792.686 L2944.12 792.686 L2944.12 828.705 L2939.86 828.705 L2939.86 824.816 Q2938.52 827.131 2936.46 828.265 Q2934.42 829.376 2931.55 829.376 Q2926.85 829.376 2923.89 825.626 Q2920.95 821.876 2920.95 815.765 Q2920.95 809.654 2923.89 805.904 Q2926.85 802.154 2931.55 802.154 Q2934.42 802.154 2936.46 803.288 Q2938.52 804.399 2939.86 806.714 M2925.35 815.765 Q2925.35 820.464 2927.27 823.149 Q2929.21 825.811 2932.59 825.811 Q2935.97 825.811 2937.92 823.149 Q2939.86 820.464 2939.86 815.765 Q2939.86 811.066 2937.92 808.404 Q2935.97 805.719 2932.59 805.719 Q2929.21 805.719 2927.27 808.404 Q2925.35 811.066 2925.35 815.765 Z" fill="#000000" fill-rule="nonzero" fill-opacity="1" /><path clip-path="url(#clip480)" d="M2964.68 815.672 Q2959.52 815.672 2957.52 816.853 Q2955.53 818.034 2955.53 820.881 Q2955.53 823.149 2957.02 824.492 Q2958.52 825.811 2961.09 825.811 Q2964.63 825.811 2966.76 823.311 Q2968.91 820.788 2968.91 816.622 L2968.91 815.672 L2964.68 815.672 M2973.17 813.913 L2973.17 828.705 L2968.91 828.705 L2968.91 824.77 Q2967.46 827.131 2965.28 828.265 Q2963.1 829.376 2959.96 829.376 Q2955.97 829.376 2953.61 827.154 Q2951.27 824.909 2951.27 821.159 Q2951.27 816.784 2954.19 814.561 Q2957.13 812.339 2962.94 812.339 L2968.91 812.339 L2968.91 811.923 Q2968.91 808.983 2966.97 807.385 Q2965.05 805.765 2961.55 805.765 Q2959.33 805.765 2957.22 806.298 Q2955.12 806.83 2953.17 807.895 L2953.17 803.96 Q2955.51 803.057 2957.71 802.617 Q2959.91 802.154 2961.99 802.154 Q2967.62 802.154 2970.4 805.071 Q2973.17 807.987 2973.17 813.913 Z" fill="#000000" fill-rule="nonzero" fill-opacity="1" /><path clip-path="url(#clip480)" d="M2998.47 803.543 L2998.47 807.571 Q2996.67 806.645 2994.72 806.182 Q2992.78 805.719 2990.7 805.719 Q2987.52 805.719 2985.93 806.691 Q2984.35 807.663 2984.35 809.608 Q2984.35 811.089 2985.49 811.946 Q2986.62 812.779 2990.05 813.543 L2991.51 813.867 Q2996.04 814.839 2997.94 816.622 Q2999.86 818.381 2999.86 821.552 Q2999.86 825.163 2996.99 827.27 Q2994.15 829.376 2989.15 829.376 Q2987.06 829.376 2984.79 828.959 Q2982.55 828.566 2980.05 827.756 L2980.05 823.358 Q2982.41 824.584 2984.7 825.209 Q2986.99 825.811 2989.24 825.811 Q2992.25 825.811 2993.87 824.793 Q2995.49 823.751 2995.49 821.876 Q2995.49 820.14 2994.31 819.214 Q2993.15 818.288 2989.19 817.432 L2987.71 817.085 Q2983.75 816.251 2981.99 814.538 Q2980.23 812.802 2980.23 809.793 Q2980.23 806.135 2982.83 804.145 Q2985.42 802.154 2990.19 802.154 Q2992.55 802.154 2994.63 802.501 Q2996.71 802.848 2998.47 803.543 Z" fill="#000000" fill-rule="nonzero" fill-opacity="1" /><path clip-path="url(#clip480)" d="M3020.09 798.219 L3008.29 816.668 L3020.09 816.668 L3020.09 798.219 M3018.87 794.145 L3024.75 794.145 L3024.75 816.668 L3029.68 816.668 L3029.68 820.557 L3024.75 820.557 L3024.75 828.705 L3020.09 828.705 L3020.09 820.557 L3004.49 820.557 L3004.49 816.043 L3018.87 794.145 Z" fill="#000000" fill-rule="nonzero" fill-opacity="1" /><path clip-path="url(#clip480)" d="M3041.67 797.987 L3041.67 810.973 L3047.55 810.973 Q3050.81 810.973 3052.59 809.284 Q3054.38 807.594 3054.38 804.469 Q3054.38 801.367 3052.59 799.677 Q3050.81 797.987 3047.55 797.987 L3041.67 797.987 M3036.99 794.145 L3047.55 794.145 Q3053.36 794.145 3056.32 796.784 Q3059.31 799.399 3059.31 804.469 Q3059.31 809.585 3056.32 812.2 Q3053.36 814.816 3047.55 814.816 L3041.67 814.816 L3041.67 828.705 L3036.99 828.705 L3036.99 794.145 Z" fill="#000000" fill-rule="nonzero" fill-opacity="1" /><polyline clip-path="url(#clip480)" style="stroke:#c271d2; stroke-linecap:round; stroke-linejoin:round; stroke-width:12; stroke-opacity:1; fill:none" points="2649.97,863.265 2832.72,863.265 "/>
<path clip-path="url(#clip480)" d="M2741.35 840.509 L2718.59 863.265 L2741.35 886.02 L2764.1 863.265 L2741.35 840.509 Z" fill="#c271d2" fill-rule="evenodd" fill-opacity="1" stroke="#000000" stroke-opacity="1" stroke-width="4.55111"/>
<path clip-path="url(#clip480)" d="M2879.56 864.341 Q2881.07 864.85 2882.48 866.517 Q2883.91 868.184 2885.35 871.1 L2890.09 880.545 L2885.07 880.545 L2880.65 871.679 Q2878.94 868.207 2877.32 867.073 Q2875.72 865.938 2872.94 865.938 L2867.85 865.938 L2867.85 880.545 L2863.17 880.545 L2863.17 845.985 L2873.73 845.985 Q2879.65 845.985 2882.57 848.462 Q2885.49 850.938 2885.49 855.938 Q2885.49 859.202 2883.96 861.355 Q2882.46 863.508 2879.56 864.341 M2867.85 849.827 L2867.85 862.096 L2873.73 862.096 Q2877.11 862.096 2878.82 860.545 Q2880.56 858.971 2880.56 855.938 Q2880.56 852.906 2878.82 851.378 Q2877.11 849.827 2873.73 849.827 L2867.85 849.827 Z" fill="#000000" fill-rule="nonzero" fill-opacity="1" /><path clip-path="url(#clip480)" d="M2903.84 857.605 Q2900.42 857.605 2898.43 860.29 Q2896.44 862.952 2896.44 867.605 Q2896.44 872.258 2898.4 874.943 Q2900.4 877.605 2903.84 877.605 Q2907.25 877.605 2909.24 874.92 Q2911.23 872.235 2911.23 867.605 Q2911.23 862.999 2909.24 860.313 Q2907.25 857.605 2903.84 857.605 M2903.84 853.994 Q2909.4 853.994 2912.57 857.605 Q2915.74 861.216 2915.74 867.605 Q2915.74 873.971 2912.57 877.605 Q2909.4 881.216 2903.84 881.216 Q2898.27 881.216 2895.09 877.605 Q2891.95 873.971 2891.95 867.605 Q2891.95 861.216 2895.09 857.605 Q2898.27 853.994 2903.84 853.994 Z" fill="#000000" fill-rule="nonzero" fill-opacity="1" /><path clip-path="url(#clip480)" d="M2939.86 858.554 L2939.86 844.526 L2944.12 844.526 L2944.12 880.545 L2939.86 880.545 L2939.86 876.656 Q2938.52 878.971 2936.46 880.105 Q2934.42 881.216 2931.55 881.216 Q2926.85 881.216 2923.89 877.466 Q2920.95 873.716 2920.95 867.605 Q2920.95 861.494 2923.89 857.744 Q2926.85 853.994 2931.55 853.994 Q2934.42 853.994 2936.46 855.128 Q2938.52 856.239 2939.86 858.554 M2925.35 867.605 Q2925.35 872.304 2927.27 874.989 Q2929.21 877.651 2932.59 877.651 Q2935.97 877.651 2937.92 874.989 Q2939.86 872.304 2939.86 867.605 Q2939.86 862.906 2937.92 860.244 Q2935.97 857.559 2932.59 857.559 Q2929.21 857.559 2927.27 860.244 Q2925.35 862.906 2925.35 867.605 Z" fill="#000000" fill-rule="nonzero" fill-opacity="1" /><path clip-path="url(#clip480)" d="M2964.68 867.512 Q2959.52 867.512 2957.52 868.693 Q2955.53 869.874 2955.53 872.721 Q2955.53 874.989 2957.02 876.332 Q2958.52 877.651 2961.09 877.651 Q2964.63 877.651 2966.76 875.151 Q2968.91 872.628 2968.91 868.462 L2968.91 867.512 L2964.68 867.512 M2973.17 865.753 L2973.17 880.545 L2968.91 880.545 L2968.91 876.61 Q2967.46 878.971 2965.28 880.105 Q2963.1 881.216 2959.96 881.216 Q2955.97 881.216 2953.61 878.994 Q2951.27 876.749 2951.27 872.999 Q2951.27 868.624 2954.19 866.401 Q2957.13 864.179 2962.94 864.179 L2968.91 864.179 L2968.91 863.763 Q2968.91 860.823 2966.97 859.225 Q2965.05 857.605 2961.55 857.605 Q2959.33 857.605 2957.22 858.138 Q2955.12 858.67 2953.17 859.735 L2953.17 855.8 Q2955.51 854.897 2957.71 854.457 Q2959.91 853.994 2961.99 853.994 Q2967.62 853.994 2970.4 856.911 Q2973.17 859.827 2973.17 865.753 Z" fill="#000000" fill-rule="nonzero" fill-opacity="1" /><path clip-path="url(#clip480)" d="M2998.47 855.383 L2998.47 859.411 Q2996.67 858.485 2994.72 858.022 Q2992.78 857.559 2990.7 857.559 Q2987.52 857.559 2985.93 858.531 Q2984.35 859.503 2984.35 861.448 Q2984.35 862.929 2985.49 863.786 Q2986.62 864.619 2990.05 865.383 L2991.51 865.707 Q2996.04 866.679 2997.94 868.462 Q2999.86 870.221 2999.86 873.392 Q2999.86 877.003 2996.99 879.11 Q2994.15 881.216 2989.15 881.216 Q2987.06 881.216 2984.79 880.799 Q2982.55 880.406 2980.05 879.596 L2980.05 875.198 Q2982.41 876.424 2984.7 877.049 Q2986.99 877.651 2989.24 877.651 Q2992.25 877.651 2993.87 876.633 Q2995.49 875.591 2995.49 873.716 Q2995.49 871.98 2994.31 871.054 Q2993.15 870.128 2989.19 869.272 L2987.71 868.925 Q2983.75 868.091 2981.99 866.378 Q2980.23 864.642 2980.23 861.633 Q2980.23 857.975 2982.83 855.985 Q2985.42 853.994 2990.19 853.994 Q2992.55 853.994 2994.63 854.341 Q2996.71 854.688 2998.47 855.383 Z" fill="#000000" fill-rule="nonzero" fill-opacity="1" /><path clip-path="url(#clip480)" d="M3007.29 845.985 L3025.65 845.985 L3025.65 849.92 L3011.58 849.92 L3011.58 858.392 Q3012.59 858.045 3013.61 857.883 Q3014.63 857.698 3015.65 857.698 Q3021.44 857.698 3024.82 860.869 Q3028.2 864.04 3028.2 869.457 Q3028.2 875.036 3024.72 878.137 Q3021.25 881.216 3014.93 881.216 Q3012.76 881.216 3010.49 880.846 Q3008.24 880.475 3005.83 879.735 L3005.83 875.036 Q3007.92 876.17 3010.14 876.725 Q3012.36 877.281 3014.84 877.281 Q3018.84 877.281 3021.18 875.174 Q3023.52 873.068 3023.52 869.457 Q3023.52 865.846 3021.18 863.739 Q3018.84 861.633 3014.84 861.633 Q3012.96 861.633 3011.09 862.05 Q3009.24 862.466 3007.29 863.346 L3007.29 845.985 Z" fill="#000000" fill-rule="nonzero" fill-opacity="1" /><path clip-path="url(#clip480)" d="M3041.67 849.827 L3041.67 862.813 L3047.55 862.813 Q3050.81 862.813 3052.59 861.124 Q3054.38 859.434 3054.38 856.309 Q3054.38 853.207 3052.59 851.517 Q3050.81 849.827 3047.55 849.827 L3041.67 849.827 M3036.99 845.985 L3047.55 845.985 Q3053.36 845.985 3056.32 848.624 Q3059.31 851.239 3059.31 856.309 Q3059.31 861.425 3056.32 864.04 Q3053.36 866.656 3047.55 866.656 L3041.67 866.656 L3041.67 880.545 L3036.99 880.545 L3036.99 845.985 Z" fill="#000000" fill-rule="nonzero" fill-opacity="1" /></svg>
