<?xml version="1.0" encoding="utf-8"?>
<svg xmlns="http://www.w3.org/2000/svg" xmlns:xlink="http://www.w3.org/1999/xlink" width="800" height="400" viewBox="0 0 3200 1600">
<defs>
  <clipPath id="clip360">
    <rect x="0" y="0" width="3200" height="1600"/>
  </clipPath>
</defs>
<path clip-path="url(#clip360)" d="M0 1600 L3200 1600 L3200 0 L0 0  Z" fill="#ffffff" fill-rule="evenodd" fill-opacity="1"/>
<defs>
  <clipPath id="clip361">
    <rect x="365" y="47" width="2789" height="1449"/>
  </clipPath>
</defs>
<path clip-path="url(#clip360)" d="M365.106 1495.09 L3152.76 1495.09 L3152.76 47.2441 L365.106 47.2441  Z" fill="#ffffff" fill-rule="evenodd" fill-opacity="1"/>
<polyline clip-path="url(#clip361)" style="stroke:#000000; stroke-linecap:round; stroke-linejoin:round; stroke-width:2; stroke-opacity:0.1; fill:none" points="922.158,1495.09 922.158,47.2441 "/>
<polyline clip-path="url(#clip361)" style="stroke:#000000; stroke-linecap:round; stroke-linejoin:round; stroke-width:2; stroke-opacity:0.1; fill:none" points="2595.7,1495.09 2595.7,47.2441 "/>
<polyline clip-path="url(#clip361)" style="stroke:#000000; stroke-linecap:round; stroke-linejoin:round; stroke-width:2; stroke-opacity:0.1; fill:none" points="365.106,1373.73 3152.76,1373.73 "/>
<polyline clip-path="url(#clip361)" style="stroke:#000000; stroke-linecap:round; stroke-linejoin:round; stroke-width:2; stroke-opacity:0.1; fill:none" points="365.106,1096.39 3152.76,1096.39 "/>
<polyline clip-path="url(#clip361)" style="stroke:#000000; stroke-linecap:round; stroke-linejoin:round; stroke-width:2; stroke-opacity:0.1; fill:none" points="365.106,819.041 3152.76,819.041 "/>
<polyline clip-path="url(#clip361)" style="stroke:#000000; stroke-linecap:round; stroke-linejoin:round; stroke-width:2; stroke-opacity:0.1; fill:none" points="365.106,541.695 3152.76,541.695 "/>
<polyline clip-path="url(#clip361)" style="stroke:#000000; stroke-linecap:round; stroke-linejoin:round; stroke-width:2; stroke-opacity:0.1; fill:none" points="365.106,264.349 3152.76,264.349 "/>
<polyline clip-path="url(#clip360)" style="stroke:#000000; stroke-linecap:round; stroke-linejoin:round; stroke-width:4; stroke-opacity:1; fill:none" points="365.106,1495.09 3152.76,1495.09 "/>
<polyline clip-path="url(#clip360)" style="stroke:#000000; stroke-linecap:round; stroke-linejoin:round; stroke-width:4; stroke-opacity:1; fill:none" points="922.158,1495.09 922.158,1476.19 "/>
<polyline clip-path="url(#clip360)" style="stroke:#000000; stroke-linecap:round; stroke-linejoin:round; stroke-width:4; stroke-opacity:1; fill:none" points="2595.7,1495.09 2595.7,1476.19 "/>
<path clip-path="url(#clip360)" d="M827.413 1533.4 L815.607 1551.85 L827.413 1551.85 L827.413 1533.4 M826.186 1529.33 L832.066 1529.33 L832.066 1551.85 L836.996 1551.85 L836.996 1555.74 L832.066 1555.74 L832.066 1563.89 L827.413 1563.89 L827.413 1555.74 L811.811 1555.74 L811.811 1551.23 L826.186 1529.33 Z" fill="#000000" fill-rule="nonzero" fill-opacity="1" /><path clip-path="url(#clip360)" d="M863.408 1530.6 L863.408 1537.96 L872.181 1537.96 L872.181 1541.27 L863.408 1541.27 L863.408 1555.35 Q863.408 1558.52 864.264 1559.42 Q865.144 1560.32 867.806 1560.32 L872.181 1560.32 L872.181 1563.89 L867.806 1563.89 Q862.876 1563.89 861.001 1562.06 Q859.126 1560.21 859.126 1555.35 L859.126 1541.27 L856.001 1541.27 L856.001 1537.96 L859.126 1537.96 L859.126 1530.6 L863.408 1530.6 Z" fill="#000000" fill-rule="nonzero" fill-opacity="1" /><path clip-path="url(#clip360)" d="M899.334 1548.24 L899.334 1563.89 L895.075 1563.89 L895.075 1548.38 Q895.075 1544.7 893.639 1542.87 Q892.204 1541.04 889.334 1541.04 Q885.885 1541.04 883.894 1543.24 Q881.903 1545.44 881.903 1549.24 L881.903 1563.89 L877.621 1563.89 L877.621 1527.87 L881.903 1527.87 L881.903 1541.99 Q883.431 1539.65 885.491 1538.49 Q887.575 1537.34 890.283 1537.34 Q894.75 1537.34 897.042 1540.11 Q899.334 1542.87 899.334 1548.24 Z" fill="#000000" fill-rule="nonzero" fill-opacity="1" /><path clip-path="url(#clip360)" d="M922.852 1541.94 Q922.135 1541.53 921.278 1541.34 Q920.445 1541.13 919.426 1541.13 Q915.815 1541.13 913.871 1543.49 Q911.949 1545.83 911.949 1550.23 L911.949 1563.89 L907.667 1563.89 L907.667 1537.96 L911.949 1537.96 L911.949 1541.99 Q913.292 1539.63 915.445 1538.49 Q917.598 1537.34 920.676 1537.34 Q921.116 1537.34 921.648 1537.41 Q922.181 1537.45 922.829 1537.57 L922.852 1541.94 Z" fill="#000000" fill-rule="nonzero" fill-opacity="1" /><path clip-path="url(#clip360)" d="M948.454 1549.86 L948.454 1551.94 L928.871 1551.94 Q929.148 1556.34 931.509 1558.66 Q933.894 1560.95 938.13 1560.95 Q940.584 1560.95 942.875 1560.35 Q945.19 1559.74 947.458 1558.54 L947.458 1562.57 Q945.167 1563.54 942.759 1564.05 Q940.352 1564.56 937.875 1564.56 Q931.672 1564.56 928.037 1560.95 Q924.426 1557.34 924.426 1551.18 Q924.426 1544.81 927.852 1541.09 Q931.301 1537.34 937.134 1537.34 Q942.366 1537.34 945.398 1540.72 Q948.454 1544.07 948.454 1549.86 M944.195 1548.61 Q944.148 1545.11 942.227 1543.03 Q940.329 1540.95 937.181 1540.95 Q933.616 1540.95 931.463 1542.96 Q929.334 1544.98 929.01 1548.63 L944.195 1548.61 Z" fill="#000000" fill-rule="nonzero" fill-opacity="1" /><path clip-path="url(#clip360)" d="M967.227 1550.86 Q962.065 1550.86 960.074 1552.04 Q958.083 1553.22 958.083 1556.06 Q958.083 1558.33 959.565 1559.67 Q961.07 1560.99 963.639 1560.99 Q967.181 1560.99 969.31 1558.49 Q971.463 1555.97 971.463 1551.8 L971.463 1550.86 L967.227 1550.86 M975.722 1549.1 L975.722 1563.89 L971.463 1563.89 L971.463 1559.95 Q970.005 1562.31 967.829 1563.45 Q965.653 1564.56 962.505 1564.56 Q958.523 1564.56 956.162 1562.34 Q953.824 1560.09 953.824 1556.34 Q953.824 1551.97 956.741 1549.74 Q959.681 1547.52 965.491 1547.52 L971.463 1547.52 L971.463 1547.11 Q971.463 1544.17 969.519 1542.57 Q967.597 1540.95 964.102 1540.95 Q961.88 1540.95 959.773 1541.48 Q957.667 1542.01 955.722 1543.08 L955.722 1539.14 Q958.06 1538.24 960.259 1537.8 Q962.458 1537.34 964.542 1537.34 Q970.167 1537.34 972.944 1540.25 Q975.722 1543.17 975.722 1549.1 Z" fill="#000000" fill-rule="nonzero" fill-opacity="1" /><path clip-path="url(#clip360)" d="M1001.56 1541.9 L1001.56 1527.87 L1005.81 1527.87 L1005.81 1563.89 L1001.56 1563.89 L1001.56 1560 Q1000.21 1562.31 998.153 1563.45 Q996.116 1564.56 993.245 1564.56 Q988.546 1564.56 985.583 1560.81 Q982.643 1557.06 982.643 1550.95 Q982.643 1544.84 985.583 1541.09 Q988.546 1537.34 993.245 1537.34 Q996.116 1537.34 998.153 1538.47 Q1000.21 1539.58 1001.56 1541.9 M987.042 1550.95 Q987.042 1555.65 988.963 1558.33 Q990.907 1560.99 994.287 1560.99 Q997.667 1560.99 999.611 1558.33 Q1001.56 1555.65 1001.56 1550.95 Q1001.56 1546.25 999.611 1543.59 Q997.667 1540.9 994.287 1540.9 Q990.907 1540.9 988.963 1543.59 Q987.042 1546.25 987.042 1550.95 Z" fill="#000000" fill-rule="nonzero" fill-opacity="1" /><path clip-path="url(#clip360)" d="M1031.12 1538.73 L1031.12 1542.75 Q1029.31 1541.83 1027.37 1541.36 Q1025.42 1540.9 1023.34 1540.9 Q1020.17 1540.9 1018.57 1541.87 Q1017 1542.85 1017 1544.79 Q1017 1546.27 1018.13 1547.13 Q1019.26 1547.96 1022.69 1548.73 L1024.15 1549.05 Q1028.68 1550.02 1030.58 1551.8 Q1032.5 1553.56 1032.5 1556.74 Q1032.5 1560.35 1029.63 1562.45 Q1026.79 1564.56 1021.79 1564.56 Q1019.7 1564.56 1017.43 1564.14 Q1015.19 1563.75 1012.69 1562.94 L1012.69 1558.54 Q1015.05 1559.77 1017.34 1560.39 Q1019.63 1560.99 1021.88 1560.99 Q1024.89 1560.99 1026.51 1559.98 Q1028.13 1558.93 1028.13 1557.06 Q1028.13 1555.32 1026.95 1554.4 Q1025.79 1553.47 1021.83 1552.61 L1020.35 1552.27 Q1016.39 1551.43 1014.63 1549.72 Q1012.87 1547.99 1012.87 1544.98 Q1012.87 1541.32 1015.47 1539.33 Q1018.06 1537.34 1022.83 1537.34 Q1025.19 1537.34 1027.27 1537.68 Q1029.36 1538.03 1031.12 1538.73 Z" fill="#000000" fill-rule="nonzero" fill-opacity="1" /><path clip-path="url(#clip360)" d="M2500.82 1559.95 L2508.46 1559.95 L2508.46 1533.59 L2500.15 1535.25 L2500.15 1530.99 L2508.41 1529.33 L2513.09 1529.33 L2513.09 1559.95 L2520.73 1559.95 L2520.73 1563.89 L2500.82 1563.89 L2500.82 1559.95 Z" fill="#000000" fill-rule="nonzero" fill-opacity="1" /><path clip-path="url(#clip360)" d="M2548.85 1530.6 L2548.85 1537.96 L2557.63 1537.96 L2557.63 1541.27 L2548.85 1541.27 L2548.85 1555.35 Q2548.85 1558.52 2549.71 1559.42 Q2550.59 1560.32 2553.25 1560.32 L2557.63 1560.32 L2557.63 1563.89 L2553.25 1563.89 Q2548.32 1563.89 2546.45 1562.06 Q2544.57 1560.21 2544.57 1555.35 L2544.57 1541.27 L2541.45 1541.27 L2541.45 1537.96 L2544.57 1537.96 L2544.57 1530.6 L2548.85 1530.6 Z" fill="#000000" fill-rule="nonzero" fill-opacity="1" /><path clip-path="url(#clip360)" d="M2584.78 1548.24 L2584.78 1563.89 L2580.52 1563.89 L2580.52 1548.38 Q2580.52 1544.7 2579.08 1542.87 Q2577.65 1541.04 2574.78 1541.04 Q2571.33 1541.04 2569.34 1543.24 Q2567.35 1545.44 2567.35 1549.24 L2567.35 1563.89 L2563.07 1563.89 L2563.07 1527.87 L2567.35 1527.87 L2567.35 1541.99 Q2568.88 1539.65 2570.94 1538.49 Q2573.02 1537.34 2575.73 1537.34 Q2580.19 1537.34 2582.49 1540.11 Q2584.78 1542.87 2584.78 1548.24 Z" fill="#000000" fill-rule="nonzero" fill-opacity="1" /><path clip-path="url(#clip360)" d="M2608.3 1541.94 Q2607.58 1541.53 2606.72 1541.34 Q2605.89 1541.13 2604.87 1541.13 Q2601.26 1541.13 2599.32 1543.49 Q2597.39 1545.83 2597.39 1550.23 L2597.39 1563.89 L2593.11 1563.89 L2593.11 1537.96 L2597.39 1537.96 L2597.39 1541.99 Q2598.74 1539.63 2600.89 1538.49 Q2603.04 1537.34 2606.12 1537.34 Q2606.56 1537.34 2607.09 1537.41 Q2607.63 1537.45 2608.27 1537.57 L2608.3 1541.94 Z" fill="#000000" fill-rule="nonzero" fill-opacity="1" /><path clip-path="url(#clip360)" d="M2633.9 1549.86 L2633.9 1551.94 L2614.32 1551.94 Q2614.59 1556.34 2616.95 1558.66 Q2619.34 1560.95 2623.57 1560.95 Q2626.03 1560.95 2628.32 1560.35 Q2630.63 1559.74 2632.9 1558.54 L2632.9 1562.57 Q2630.61 1563.54 2628.2 1564.05 Q2625.8 1564.56 2623.32 1564.56 Q2617.12 1564.56 2613.48 1560.95 Q2609.87 1557.34 2609.87 1551.18 Q2609.87 1544.81 2613.3 1541.09 Q2616.75 1537.34 2622.58 1537.34 Q2627.81 1537.34 2630.84 1540.72 Q2633.9 1544.07 2633.9 1549.86 M2629.64 1548.61 Q2629.59 1545.11 2627.67 1543.03 Q2625.77 1540.95 2622.63 1540.95 Q2619.06 1540.95 2616.91 1542.96 Q2614.78 1544.98 2614.45 1548.63 L2629.64 1548.61 Z" fill="#000000" fill-rule="nonzero" fill-opacity="1" /><path clip-path="url(#clip360)" d="M2652.67 1550.86 Q2647.51 1550.86 2645.52 1552.04 Q2643.53 1553.22 2643.53 1556.06 Q2643.53 1558.33 2645.01 1559.67 Q2646.51 1560.99 2649.08 1560.99 Q2652.63 1560.99 2654.75 1558.49 Q2656.91 1555.97 2656.91 1551.8 L2656.91 1550.86 L2652.67 1550.86 M2661.17 1549.1 L2661.17 1563.89 L2656.91 1563.89 L2656.91 1559.95 Q2655.45 1562.31 2653.27 1563.45 Q2651.1 1564.56 2647.95 1564.56 Q2643.97 1564.56 2641.61 1562.34 Q2639.27 1560.09 2639.27 1556.34 Q2639.27 1551.97 2642.19 1549.74 Q2645.13 1547.52 2650.94 1547.52 L2656.91 1547.52 L2656.91 1547.11 Q2656.91 1544.17 2654.96 1542.57 Q2653.04 1540.95 2649.55 1540.95 Q2647.32 1540.95 2645.22 1541.48 Q2643.11 1542.01 2641.17 1543.08 L2641.17 1539.14 Q2643.5 1538.24 2645.7 1537.8 Q2647.9 1537.34 2649.99 1537.34 Q2655.61 1537.34 2658.39 1540.25 Q2661.17 1543.17 2661.17 1549.1 Z" fill="#000000" fill-rule="nonzero" fill-opacity="1" /><path clip-path="url(#clip360)" d="M2687 1541.9 L2687 1527.87 L2691.26 1527.87 L2691.26 1563.89 L2687 1563.89 L2687 1560 Q2685.66 1562.31 2683.6 1563.45 Q2681.56 1564.56 2678.69 1564.56 Q2673.99 1564.56 2671.03 1560.81 Q2668.09 1557.06 2668.09 1550.95 Q2668.09 1544.84 2671.03 1541.09 Q2673.99 1537.34 2678.69 1537.34 Q2681.56 1537.34 2683.6 1538.47 Q2685.66 1539.58 2687 1541.9 M2672.49 1550.95 Q2672.49 1555.65 2674.41 1558.33 Q2676.35 1560.99 2679.73 1560.99 Q2683.11 1560.99 2685.06 1558.33 Q2687 1555.65 2687 1550.95 Q2687 1546.25 2685.06 1543.59 Q2683.11 1540.9 2679.73 1540.9 Q2676.35 1540.9 2674.41 1543.59 Q2672.49 1546.25 2672.49 1550.95 Z" fill="#000000" fill-rule="nonzero" fill-opacity="1" /><polyline clip-path="url(#clip360)" style="stroke:#000000; stroke-linecap:round; stroke-linejoin:round; stroke-width:4; stroke-opacity:1; fill:none" points="365.106,1495.09 365.106,47.2441 "/>
<polyline clip-path="url(#clip360)" style="stroke:#000000; stroke-linecap:round; stroke-linejoin:round; stroke-width:4; stroke-opacity:1; fill:none" points="365.106,1373.73 384.003,1373.73 "/>
<polyline clip-path="url(#clip360)" style="stroke:#000000; stroke-linecap:round; stroke-linejoin:round; stroke-width:4; stroke-opacity:1; fill:none" points="365.106,1096.39 384.003,1096.39 "/>
<polyline clip-path="url(#clip360)" style="stroke:#000000; stroke-linecap:round; stroke-linejoin:round; stroke-width:4; stroke-opacity:1; fill:none" points="365.106,819.041 384.003,819.041 "/>
<polyline clip-path="url(#clip360)" style="stroke:#000000; stroke-linecap:round; stroke-linejoin:round; stroke-width:4; stroke-opacity:1; fill:none" points="365.106,541.695 384.003,541.695 "/>
<polyline clip-path="url(#clip360)" style="stroke:#000000; stroke-linecap:round; stroke-linejoin:round; stroke-width:4; stroke-opacity:1; fill:none" points="365.106,264.349 384.003,264.349 "/>
<path clip-path="url(#clip360)" d="M100.602 1396.74 L100.602 1392.48 Q102.362 1393.32 104.167 1393.76 Q105.973 1394.2 107.709 1394.2 Q112.338 1394.2 114.769 1391.09 Q117.223 1387.97 117.57 1381.63 Q116.227 1383.62 114.167 1384.68 Q112.107 1385.75 109.607 1385.75 Q104.422 1385.75 101.389 1382.62 Q98.3802 1379.47 98.3802 1374.03 Q98.3802 1368.71 101.528 1365.49 Q104.676 1362.28 109.908 1362.28 Q115.903 1362.28 119.051 1366.88 Q122.223 1371.46 122.223 1380.21 Q122.223 1388.39 118.334 1393.27 Q114.468 1398.13 107.917 1398.13 Q106.158 1398.13 104.352 1397.78 Q102.547 1397.44 100.602 1396.74 M109.908 1382.09 Q113.056 1382.09 114.885 1379.94 Q116.737 1377.78 116.737 1374.03 Q116.737 1370.31 114.885 1368.15 Q113.056 1365.98 109.908 1365.98 Q106.76 1365.98 104.908 1368.15 Q103.079 1370.31 103.079 1374.03 Q103.079 1377.78 104.908 1379.94 Q106.76 1382.09 109.908 1382.09 Z" fill="#000000" fill-rule="nonzero" fill-opacity="1" /><path clip-path="url(#clip360)" d="M130.625 1391.58 L135.51 1391.58 L135.51 1397.46 L130.625 1397.46 L130.625 1391.58 Z" fill="#000000" fill-rule="nonzero" fill-opacity="1" /><path clip-path="url(#clip360)" d="M155.695 1365.98 Q152.084 1365.98 150.255 1369.54 Q148.449 1373.09 148.449 1380.21 Q148.449 1387.32 150.255 1390.89 Q152.084 1394.43 155.695 1394.43 Q159.329 1394.43 161.134 1390.89 Q162.963 1387.32 162.963 1380.21 Q162.963 1373.09 161.134 1369.54 Q159.329 1365.98 155.695 1365.98 M155.695 1362.28 Q161.505 1362.28 164.56 1366.88 Q167.639 1371.46 167.639 1380.21 Q167.639 1388.94 164.56 1393.55 Q161.505 1398.13 155.695 1398.13 Q149.885 1398.13 146.806 1393.55 Q143.75 1388.94 143.75 1380.21 Q143.75 1371.46 146.806 1366.88 Q149.885 1362.28 155.695 1362.28 Z" fill="#000000" fill-rule="nonzero" fill-opacity="1" /><path clip-path="url(#clip360)" d="M185.857 1365.98 Q182.245 1365.98 180.417 1369.54 Q178.611 1373.09 178.611 1380.21 Q178.611 1387.32 180.417 1390.89 Q182.245 1394.43 185.857 1394.43 Q189.491 1394.43 191.296 1390.89 Q193.125 1387.32 193.125 1380.21 Q193.125 1373.09 191.296 1369.54 Q189.491 1365.98 185.857 1365.98 M185.857 1362.28 Q191.667 1362.28 194.722 1366.88 Q197.801 1371.46 197.801 1380.21 Q197.801 1388.94 194.722 1393.55 Q191.667 1398.13 185.857 1398.13 Q180.046 1398.13 176.968 1393.55 Q173.912 1388.94 173.912 1380.21 Q173.912 1371.46 176.968 1366.88 Q180.046 1362.28 185.857 1362.28 Z" fill="#000000" fill-rule="nonzero" fill-opacity="1" /><path clip-path="url(#clip360)" d="M234.19 1372 L223.611 1382.62 L234.19 1393.2 L231.435 1396 L220.81 1385.38 L210.185 1396 L207.454 1393.2 L218.009 1382.62 L207.454 1372 L210.185 1369.2 L220.81 1379.82 L231.435 1369.2 L234.19 1372 Z" fill="#000000" fill-rule="nonzero" fill-opacity="1" /><path clip-path="url(#clip360)" d="M246.551 1393.52 L254.19 1393.52 L254.19 1367.16 L245.879 1368.83 L245.879 1364.57 L254.143 1362.9 L258.819 1362.9 L258.819 1393.52 L266.458 1393.52 L266.458 1397.46 L246.551 1397.46 L246.551 1393.52 Z" fill="#000000" fill-rule="nonzero" fill-opacity="1" /><path clip-path="url(#clip360)" d="M285.902 1365.98 Q282.291 1365.98 280.463 1369.54 Q278.657 1373.09 278.657 1380.21 Q278.657 1387.32 280.463 1390.89 Q282.291 1394.43 285.902 1394.43 Q289.537 1394.43 291.342 1390.89 Q293.171 1387.32 293.171 1380.21 Q293.171 1373.09 291.342 1369.54 Q289.537 1365.98 285.902 1365.98 M285.902 1362.28 Q291.712 1362.28 294.768 1366.88 Q297.847 1371.46 297.847 1380.21 Q297.847 1388.94 294.768 1393.55 Q291.712 1398.13 285.902 1398.13 Q280.092 1398.13 277.013 1393.55 Q273.958 1388.94 273.958 1380.21 Q273.958 1371.46 277.013 1366.88 Q280.092 1362.28 285.902 1362.28 Z" fill="#000000" fill-rule="nonzero" fill-opacity="1" /><path clip-path="url(#clip360)" d="M307.476 1356.71 Q304.768 1356.71 303.207 1358.16 Q301.665 1359.61 301.665 1362.15 Q301.665 1364.69 303.207 1366.14 Q304.768 1367.59 307.476 1367.59 Q310.185 1367.59 311.746 1366.14 Q313.307 1364.67 313.307 1362.15 Q313.307 1359.61 311.746 1358.16 Q310.203 1356.71 307.476 1356.71 M303.677 1355.1 Q301.232 1354.5 299.859 1352.82 Q298.505 1351.15 298.505 1348.74 Q298.505 1345.37 300.894 1343.42 Q303.301 1341.46 307.476 1341.46 Q311.67 1341.46 314.059 1343.42 Q316.448 1345.37 316.448 1348.74 Q316.448 1351.15 315.075 1352.82 Q313.72 1354.5 311.294 1355.1 Q314.04 1355.74 315.564 1357.6 Q317.106 1359.46 317.106 1362.15 Q317.106 1366.23 314.604 1368.41 Q312.122 1370.6 307.476 1370.6 Q302.831 1370.6 300.329 1368.41 Q297.847 1366.23 297.847 1362.15 Q297.847 1359.46 299.389 1357.6 Q300.931 1355.74 303.677 1355.1 M302.285 1349.1 Q302.285 1351.28 303.639 1352.5 Q305.012 1353.72 307.476 1353.72 Q309.921 1353.72 311.294 1352.5 Q312.686 1351.28 312.686 1349.1 Q312.686 1346.92 311.294 1345.69 Q309.921 1344.47 307.476 1344.47 Q305.012 1344.47 303.639 1345.69 Q302.285 1346.92 302.285 1349.1 Z" fill="#000000" fill-rule="nonzero" fill-opacity="1" /><path clip-path="url(#clip360)" d="M101.161 1116.18 L108.8 1116.18 L108.8 1089.81 L100.49 1091.48 L100.49 1087.22 L108.753 1085.55 L113.429 1085.55 L113.429 1116.18 L121.068 1116.18 L121.068 1120.11 L101.161 1120.11 L101.161 1116.18 Z" fill="#000000" fill-rule="nonzero" fill-opacity="1" /><path clip-path="url(#clip360)" d="M130.513 1114.23 L135.397 1114.23 L135.397 1120.11 L130.513 1120.11 L130.513 1114.23 Z" fill="#000000" fill-rule="nonzero" fill-opacity="1" /><path clip-path="url(#clip360)" d="M149.61 1116.18 L165.929 1116.18 L165.929 1120.11 L143.985 1120.11 L143.985 1116.18 Q146.647 1113.42 151.23 1108.79 Q155.836 1104.14 157.017 1102.8 Q159.262 1100.28 160.142 1098.54 Q161.045 1096.78 161.045 1095.09 Q161.045 1092.34 159.1 1090.6 Q157.179 1088.86 154.077 1088.86 Q151.878 1088.86 149.424 1089.63 Q146.994 1090.39 144.216 1091.94 L144.216 1087.22 Q147.04 1086.09 149.494 1085.51 Q151.948 1084.93 153.985 1084.93 Q159.355 1084.93 162.549 1087.61 Q165.744 1090.3 165.744 1094.79 Q165.744 1096.92 164.934 1098.84 Q164.147 1100.74 162.04 1103.33 Q161.461 1104 158.36 1107.22 Q155.258 1110.42 149.61 1116.18 Z" fill="#000000" fill-rule="nonzero" fill-opacity="1" /><path clip-path="url(#clip360)" d="M185.744 1088.63 Q182.133 1088.63 180.304 1092.2 Q178.498 1095.74 178.498 1102.87 Q178.498 1109.98 180.304 1113.54 Q182.133 1117.08 185.744 1117.08 Q189.378 1117.08 191.183 1113.54 Q193.012 1109.98 193.012 1102.87 Q193.012 1095.74 191.183 1092.2 Q189.378 1088.63 185.744 1088.63 M185.744 1084.93 Q191.554 1084.93 194.609 1089.54 Q197.688 1094.12 197.688 1102.87 Q197.688 1111.6 194.609 1116.2 Q191.554 1120.79 185.744 1120.79 Q179.934 1120.79 176.855 1116.2 Q173.799 1111.6 173.799 1102.87 Q173.799 1094.12 176.855 1089.54 Q179.934 1084.93 185.744 1084.93 Z" fill="#000000" fill-rule="nonzero" fill-opacity="1" /><path clip-path="url(#clip360)" d="M234.077 1094.65 L223.498 1105.28 L234.077 1115.85 L231.322 1118.66 L220.697 1108.03 L210.072 1118.66 L207.341 1115.85 L217.896 1105.28 L207.341 1094.65 L210.072 1091.85 L220.697 1102.48 L231.322 1091.85 L234.077 1094.65 Z" fill="#000000" fill-rule="nonzero" fill-opacity="1" /><path clip-path="url(#clip360)" d="M246.438 1116.18 L254.077 1116.18 L254.077 1089.81 L245.767 1091.48 L245.767 1087.22 L254.03 1085.55 L258.706 1085.55 L258.706 1116.18 L266.345 1116.18 L266.345 1120.11 L246.438 1120.11 L246.438 1116.18 Z" fill="#000000" fill-rule="nonzero" fill-opacity="1" /><path clip-path="url(#clip360)" d="M285.789 1088.63 Q282.178 1088.63 280.35 1092.2 Q278.544 1095.74 278.544 1102.87 Q278.544 1109.98 280.35 1113.54 Q282.178 1117.08 285.789 1117.08 Q289.424 1117.08 291.229 1113.54 Q293.058 1109.98 293.058 1102.87 Q293.058 1095.74 291.229 1092.2 Q289.424 1088.63 285.789 1088.63 M285.789 1084.93 Q291.6 1084.93 294.655 1089.54 Q297.734 1094.12 297.734 1102.87 Q297.734 1111.6 294.655 1116.2 Q291.6 1120.79 285.789 1120.79 Q279.979 1120.79 276.901 1116.2 Q273.845 1111.6 273.845 1102.87 Q273.845 1094.12 276.901 1089.54 Q279.979 1084.93 285.789 1084.93 Z" fill="#000000" fill-rule="nonzero" fill-opacity="1" /><path clip-path="url(#clip360)" d="M299.539 1092.12 L299.539 1088.66 Q300.969 1089.34 302.436 1089.69 Q303.903 1090.05 305.313 1090.05 Q309.075 1090.05 311.05 1087.53 Q313.043 1084.99 313.325 1079.84 Q312.235 1081.46 310.561 1082.32 Q308.887 1083.19 306.856 1083.19 Q302.643 1083.19 300.179 1080.65 Q297.734 1078.09 297.734 1073.67 Q297.734 1069.34 300.292 1066.73 Q302.85 1064.12 307.1 1064.12 Q311.971 1064.12 314.529 1067.86 Q317.106 1071.58 317.106 1078.69 Q317.106 1085.33 313.946 1089.3 Q310.805 1093.25 305.483 1093.25 Q304.053 1093.25 302.586 1092.97 Q301.119 1092.68 299.539 1092.12 M307.1 1080.22 Q309.658 1080.22 311.144 1078.47 Q312.648 1076.72 312.648 1073.67 Q312.648 1070.64 311.144 1068.89 Q309.658 1067.13 307.1 1067.13 Q304.542 1067.13 303.038 1068.89 Q301.552 1070.64 301.552 1073.67 Q301.552 1076.72 303.038 1078.47 Q304.542 1080.22 307.1 1080.22 Z" fill="#000000" fill-rule="nonzero" fill-opacity="1" /><path clip-path="url(#clip360)" d="M101.161 838.833 L108.8 838.833 L108.8 812.467 L100.49 814.134 L100.49 809.875 L108.753 808.208 L113.429 808.208 L113.429 838.833 L121.068 838.833 L121.068 842.768 L101.161 842.768 L101.161 838.833 Z" fill="#000000" fill-rule="nonzero" fill-opacity="1" /><path clip-path="url(#clip360)" d="M130.513 836.889 L135.397 836.889 L135.397 842.768 L130.513 842.768 L130.513 836.889 Z" fill="#000000" fill-rule="nonzero" fill-opacity="1" /><path clip-path="url(#clip360)" d="M145.628 808.208 L163.985 808.208 L163.985 812.143 L149.911 812.143 L149.911 820.616 Q150.929 820.268 151.948 820.106 Q152.966 819.921 153.985 819.921 Q159.772 819.921 163.151 823.092 Q166.531 826.264 166.531 831.68 Q166.531 837.259 163.059 840.361 Q159.586 843.44 153.267 843.44 Q151.091 843.44 148.823 843.069 Q146.577 842.699 144.17 841.958 L144.17 837.259 Q146.253 838.393 148.475 838.949 Q150.698 839.504 153.174 839.504 Q157.179 839.504 159.517 837.398 Q161.855 835.291 161.855 831.68 Q161.855 828.069 159.517 825.963 Q157.179 823.856 153.174 823.856 Q151.299 823.856 149.424 824.273 Q147.573 824.69 145.628 825.569 L145.628 808.208 Z" fill="#000000" fill-rule="nonzero" fill-opacity="1" /><path clip-path="url(#clip360)" d="M185.744 811.287 Q182.133 811.287 180.304 814.852 Q178.498 818.393 178.498 825.523 Q178.498 832.629 180.304 836.194 Q182.133 839.736 185.744 839.736 Q189.378 839.736 191.183 836.194 Q193.012 832.629 193.012 825.523 Q193.012 818.393 191.183 814.852 Q189.378 811.287 185.744 811.287 M185.744 807.583 Q191.554 807.583 194.609 812.19 Q197.688 816.773 197.688 825.523 Q197.688 834.25 194.609 838.856 Q191.554 843.44 185.744 843.44 Q179.934 843.44 176.855 838.856 Q173.799 834.25 173.799 825.523 Q173.799 816.773 176.855 812.19 Q179.934 807.583 185.744 807.583 Z" fill="#000000" fill-rule="nonzero" fill-opacity="1" /><path clip-path="url(#clip360)" d="M234.077 817.305 L223.498 827.93 L234.077 838.509 L231.322 841.31 L220.697 830.685 L210.072 841.31 L207.341 838.509 L217.896 827.93 L207.341 817.305 L210.072 814.504 L220.697 825.129 L231.322 814.504 L234.077 817.305 Z" fill="#000000" fill-rule="nonzero" fill-opacity="1" /><path clip-path="url(#clip360)" d="M246.438 838.833 L254.077 838.833 L254.077 812.467 L245.767 814.134 L245.767 809.875 L254.03 808.208 L258.706 808.208 L258.706 838.833 L266.345 838.833 L266.345 842.768 L246.438 842.768 L246.438 838.833 Z" fill="#000000" fill-rule="nonzero" fill-opacity="1" /><path clip-path="url(#clip360)" d="M285.789 811.287 Q282.178 811.287 280.35 814.852 Q278.544 818.393 278.544 825.523 Q278.544 832.629 280.35 836.194 Q282.178 839.736 285.789 839.736 Q289.424 839.736 291.229 836.194 Q293.058 832.629 293.058 825.523 Q293.058 818.393 291.229 814.852 Q289.424 811.287 285.789 811.287 M285.789 807.583 Q291.6 807.583 294.655 812.19 Q297.734 816.773 297.734 825.523 Q297.734 834.25 294.655 838.856 Q291.6 843.44 285.789 843.44 Q279.979 843.44 276.901 838.856 Q273.845 834.25 273.845 825.523 Q273.845 816.773 276.901 812.19 Q279.979 807.583 285.789 807.583 Z" fill="#000000" fill-rule="nonzero" fill-opacity="1" /><path clip-path="url(#clip360)" d="M299.539 814.775 L299.539 811.314 Q300.969 811.991 302.436 812.349 Q303.903 812.706 305.313 812.706 Q309.075 812.706 311.05 810.186 Q313.043 807.647 313.325 802.493 Q312.235 804.111 310.561 804.976 Q308.887 805.841 306.856 805.841 Q302.643 805.841 300.179 803.302 Q297.734 800.744 297.734 796.324 Q297.734 791.999 300.292 789.384 Q302.85 786.77 307.1 786.77 Q311.971 786.77 314.529 790.513 Q317.106 794.237 317.106 801.346 Q317.106 807.985 313.946 811.954 Q310.805 815.903 305.483 815.903 Q304.053 815.903 302.586 815.621 Q301.119 815.339 299.539 814.775 M307.1 802.869 Q309.658 802.869 311.144 801.12 Q312.648 799.371 312.648 796.324 Q312.648 793.296 311.144 791.547 Q309.658 789.779 307.1 789.779 Q304.542 789.779 303.038 791.547 Q301.552 793.296 301.552 796.324 Q301.552 799.371 303.038 801.12 Q304.542 802.869 307.1 802.869 Z" fill="#000000" fill-rule="nonzero" fill-opacity="1" /><path clip-path="url(#clip360)" d="M101.161 561.487 L108.8 561.487 L108.8 535.122 L100.49 536.788 L100.49 532.529 L108.753 530.862 L113.429 530.862 L113.429 561.487 L121.068 561.487 L121.068 565.422 L101.161 565.422 L101.161 561.487 Z" fill="#000000" fill-rule="nonzero" fill-opacity="1" /><path clip-path="url(#clip360)" d="M130.513 559.543 L135.397 559.543 L135.397 565.422 L130.513 565.422 L130.513 559.543 Z" fill="#000000" fill-rule="nonzero" fill-opacity="1" /><path clip-path="url(#clip360)" d="M155.582 549.01 Q152.249 549.01 150.327 550.793 Q148.429 552.575 148.429 555.7 Q148.429 558.825 150.327 560.608 Q152.249 562.39 155.582 562.39 Q158.915 562.39 160.836 560.608 Q162.758 558.802 162.758 555.7 Q162.758 552.575 160.836 550.793 Q158.938 549.01 155.582 549.01 M150.906 547.02 Q147.897 546.279 146.207 544.219 Q144.54 542.159 144.54 539.196 Q144.54 535.052 147.48 532.645 Q150.443 530.237 155.582 530.237 Q160.744 530.237 163.684 532.645 Q166.623 535.052 166.623 539.196 Q166.623 542.159 164.934 544.219 Q163.267 546.279 160.281 547.02 Q163.66 547.807 165.535 550.098 Q167.434 552.39 167.434 555.7 Q167.434 560.723 164.355 563.408 Q161.299 566.094 155.582 566.094 Q149.864 566.094 146.786 563.408 Q143.73 560.723 143.73 555.7 Q143.73 552.39 145.628 550.098 Q147.526 547.807 150.906 547.02 M149.193 539.635 Q149.193 542.321 150.86 543.825 Q152.549 545.33 155.582 545.33 Q158.591 545.33 160.281 543.825 Q161.994 542.321 161.994 539.635 Q161.994 536.95 160.281 535.446 Q158.591 533.941 155.582 533.941 Q152.549 533.941 150.86 535.446 Q149.193 536.95 149.193 539.635 Z" fill="#000000" fill-rule="nonzero" fill-opacity="1" /><path clip-path="url(#clip360)" d="M185.744 533.941 Q182.133 533.941 180.304 537.506 Q178.498 541.047 178.498 548.177 Q178.498 555.284 180.304 558.848 Q182.133 562.39 185.744 562.39 Q189.378 562.39 191.183 558.848 Q193.012 555.284 193.012 548.177 Q193.012 541.047 191.183 537.506 Q189.378 533.941 185.744 533.941 M185.744 530.237 Q191.554 530.237 194.609 534.844 Q197.688 539.427 197.688 548.177 Q197.688 556.904 194.609 561.51 Q191.554 566.094 185.744 566.094 Q179.934 566.094 176.855 561.51 Q173.799 556.904 173.799 548.177 Q173.799 539.427 176.855 534.844 Q179.934 530.237 185.744 530.237 Z" fill="#000000" fill-rule="nonzero" fill-opacity="1" /><path clip-path="url(#clip360)" d="M234.077 539.96 L223.498 550.584 L234.077 561.163 L231.322 563.964 L220.697 553.339 L210.072 563.964 L207.341 561.163 L217.896 550.584 L207.341 539.96 L210.072 537.159 L220.697 547.784 L231.322 537.159 L234.077 539.96 Z" fill="#000000" fill-rule="nonzero" fill-opacity="1" /><path clip-path="url(#clip360)" d="M246.438 561.487 L254.077 561.487 L254.077 535.122 L245.767 536.788 L245.767 532.529 L254.03 530.862 L258.706 530.862 L258.706 561.487 L266.345 561.487 L266.345 565.422 L246.438 565.422 L246.438 561.487 Z" fill="#000000" fill-rule="nonzero" fill-opacity="1" /><path clip-path="url(#clip360)" d="M285.789 533.941 Q282.178 533.941 280.35 537.506 Q278.544 541.047 278.544 548.177 Q278.544 555.284 280.35 558.848 Q282.178 562.39 285.789 562.39 Q289.424 562.39 291.229 558.848 Q293.058 555.284 293.058 548.177 Q293.058 541.047 291.229 537.506 Q289.424 533.941 285.789 533.941 M285.789 530.237 Q291.6 530.237 294.655 534.844 Q297.734 539.427 297.734 548.177 Q297.734 556.904 294.655 561.51 Q291.6 566.094 285.789 566.094 Q279.979 566.094 276.901 561.51 Q273.845 556.904 273.845 548.177 Q273.845 539.427 276.901 534.844 Q279.979 530.237 285.789 530.237 Z" fill="#000000" fill-rule="nonzero" fill-opacity="1" /><path clip-path="url(#clip360)" d="M299.539 537.429 L299.539 533.968 Q300.969 534.645 302.436 535.003 Q303.903 535.36 305.313 535.36 Q309.075 535.36 311.05 532.84 Q313.043 530.301 313.325 525.147 Q312.235 526.765 310.561 527.63 Q308.887 528.495 306.856 528.495 Q302.643 528.495 300.179 525.956 Q297.734 523.398 297.734 518.978 Q297.734 514.653 300.292 512.038 Q302.85 509.424 307.1 509.424 Q311.971 509.424 314.529 513.167 Q317.106 516.891 317.106 524 Q317.106 530.639 313.946 534.608 Q310.805 538.557 305.483 538.557 Q304.053 538.557 302.586 538.275 Q301.119 537.993 299.539 537.429 M307.1 525.524 Q309.658 525.524 311.144 523.774 Q312.648 522.025 312.648 518.978 Q312.648 515.95 311.144 514.201 Q309.658 512.433 307.1 512.433 Q304.542 512.433 303.038 514.201 Q301.552 515.95 301.552 518.978 Q301.552 522.025 303.038 523.774 Q304.542 525.524 307.1 525.524 Z" fill="#000000" fill-rule="nonzero" fill-opacity="1" /><path clip-path="url(#clip360)" d="M104.378 284.141 L120.698 284.141 L120.698 288.076 L98.7534 288.076 L98.7534 284.141 Q101.415 281.387 105.999 276.757 Q110.605 272.104 111.786 270.762 Q114.031 268.239 114.911 266.502 Q115.814 264.743 115.814 263.053 Q115.814 260.299 113.869 258.563 Q111.948 256.827 108.846 256.827 Q106.647 256.827 104.193 257.59 Q101.763 258.354 98.9849 259.905 L98.9849 255.183 Q101.809 254.049 104.263 253.47 Q106.716 252.891 108.753 252.891 Q114.124 252.891 117.318 255.577 Q120.513 258.262 120.513 262.753 Q120.513 264.882 119.702 266.803 Q118.915 268.702 116.809 271.294 Q116.23 271.965 113.128 275.183 Q110.027 278.377 104.378 284.141 Z" fill="#000000" fill-rule="nonzero" fill-opacity="1" /><path clip-path="url(#clip360)" d="M130.513 282.197 L135.397 282.197 L135.397 288.076 L130.513 288.076 L130.513 282.197 Z" fill="#000000" fill-rule="nonzero" fill-opacity="1" /><path clip-path="url(#clip360)" d="M146.392 284.141 L154.031 284.141 L154.031 257.776 L145.721 259.442 L145.721 255.183 L153.985 253.516 L158.661 253.516 L158.661 284.141 L166.299 284.141 L166.299 288.076 L146.392 288.076 L146.392 284.141 Z" fill="#000000" fill-rule="nonzero" fill-opacity="1" /><path clip-path="url(#clip360)" d="M185.744 256.595 Q182.133 256.595 180.304 260.16 Q178.498 263.702 178.498 270.831 Q178.498 277.938 180.304 281.502 Q182.133 285.044 185.744 285.044 Q189.378 285.044 191.183 281.502 Q193.012 277.938 193.012 270.831 Q193.012 263.702 191.183 260.16 Q189.378 256.595 185.744 256.595 M185.744 252.891 Q191.554 252.891 194.609 257.498 Q197.688 262.081 197.688 270.831 Q197.688 279.558 194.609 284.164 Q191.554 288.748 185.744 288.748 Q179.934 288.748 176.855 284.164 Q173.799 279.558 173.799 270.831 Q173.799 262.081 176.855 257.498 Q179.934 252.891 185.744 252.891 Z" fill="#000000" fill-rule="nonzero" fill-opacity="1" /><path clip-path="url(#clip360)" d="M234.077 262.614 L223.498 273.239 L234.077 283.817 L231.322 286.618 L220.697 275.993 L210.072 286.618 L207.341 283.817 L217.896 273.239 L207.341 262.614 L210.072 259.813 L220.697 270.438 L231.322 259.813 L234.077 262.614 Z" fill="#000000" fill-rule="nonzero" fill-opacity="1" /><path clip-path="url(#clip360)" d="M246.438 284.141 L254.077 284.141 L254.077 257.776 L245.767 259.442 L245.767 255.183 L254.03 253.516 L258.706 253.516 L258.706 284.141 L266.345 284.141 L266.345 288.076 L246.438 288.076 L246.438 284.141 Z" fill="#000000" fill-rule="nonzero" fill-opacity="1" /><path clip-path="url(#clip360)" d="M285.789 256.595 Q282.178 256.595 280.35 260.16 Q278.544 263.702 278.544 270.831 Q278.544 277.938 280.35 281.502 Q282.178 285.044 285.789 285.044 Q289.424 285.044 291.229 281.502 Q293.058 277.938 293.058 270.831 Q293.058 263.702 291.229 260.16 Q289.424 256.595 285.789 256.595 M285.789 252.891 Q291.6 252.891 294.655 257.498 Q297.734 262.081 297.734 270.831 Q297.734 279.558 294.655 284.164 Q291.6 288.748 285.789 288.748 Q279.979 288.748 276.901 284.164 Q273.845 279.558 273.845 270.831 Q273.845 262.081 276.901 257.498 Q279.979 252.891 285.789 252.891 Z" fill="#000000" fill-rule="nonzero" fill-opacity="1" /><path clip-path="url(#clip360)" d="M299.539 260.083 L299.539 256.622 Q300.969 257.299 302.436 257.657 Q303.903 258.014 305.313 258.014 Q309.075 258.014 311.05 255.494 Q313.043 252.955 313.325 247.802 Q312.235 249.419 310.561 250.284 Q308.887 251.149 306.856 251.149 Q302.643 251.149 300.179 248.61 Q297.734 246.052 297.734 241.633 Q297.734 237.307 300.292 234.693 Q302.85 232.078 307.1 232.078 Q311.971 232.078 314.529 235.821 Q317.106 239.545 317.106 246.654 Q317.106 253.293 313.946 257.262 Q310.805 261.211 305.483 261.211 Q304.053 261.211 302.586 260.929 Q301.119 260.647 299.539 260.083 M307.1 248.178 Q309.658 248.178 311.144 246.429 Q312.648 244.679 312.648 241.633 Q312.648 238.605 311.144 236.855 Q309.658 235.087 307.1 235.087 Q304.542 235.087 303.038 236.855 Q301.552 238.605 301.552 241.633 Q301.552 244.679 303.038 246.429 Q304.542 248.178 307.1 248.178 Z" fill="#000000" fill-rule="nonzero" fill-opacity="1" /><path clip-path="url(#clip360)" d="M-9.64527 840.632 L0.4762 840.632 L0.4762 828.569 L5.02768 828.569 L5.02768 840.632 L24.3794 840.632 Q28.7399 840.632 29.9813 839.454 Q31.2226 838.245 31.2226 834.584 L31.2226 828.569 L36.1242 828.569 L36.1242 834.584 Q36.1242 841.364 33.6097 843.942 Q31.0634 846.52 24.3794 846.52 L5.02768 846.52 L5.02768 850.817 L0.4762 850.817 L0.4762 846.52 L-9.64527 846.52 L-9.64527 840.632 Z" fill="#000000" fill-rule="nonzero" fill-opacity="1" /><path clip-path="url(#clip360)" d="M-11.3958 789.738 L-11.3958 784.327 L42.1716 800.878 L42.1716 806.289 L-11.3958 789.738 Z" fill="#000000" fill-rule="nonzero" fill-opacity="1" /><path clip-path="url(#clip360)" d="M14.6081 727.831 L36.1242 727.831 L36.1242 733.688 L14.799 733.688 Q9.7383 733.688 7.22385 735.661 Q4.7094 737.635 4.7094 741.581 Q4.7094 746.324 7.73311 749.061 Q10.7568 751.798 15.9767 751.798 L36.1242 751.798 L36.1242 757.687 L0.4762 757.687 L0.4762 751.798 L6.01437 751.798 Q2.79968 749.698 1.20826 746.865 Q-0.38317 744 -0.38317 740.276 Q-0.38317 734.133 3.43625 730.982 Q7.22385 727.831 14.6081 727.831 Z" fill="#000000" fill-rule="nonzero" fill-opacity="1" /><path clip-path="url(#clip360)" d="M1.52654 693.425 L7.06471 693.425 Q5.79157 695.907 5.15499 698.581 Q4.51842 701.255 4.51842 704.119 Q4.51842 708.48 5.85522 710.676 Q7.19202 712.84 9.86562 712.84 Q11.9026 712.84 13.0803 711.281 Q14.2261 709.721 15.2765 705.01 L15.7221 703.005 Q17.0589 696.767 19.5097 694.157 Q21.9286 691.515 26.2891 691.515 Q31.2544 691.515 34.1508 695.462 Q37.0472 699.377 37.0472 706.252 Q37.0472 709.116 36.4743 712.235 Q35.9332 715.323 34.8192 718.76 L28.7718 718.76 Q30.4587 715.514 31.318 712.363 Q32.1456 709.212 32.1456 706.124 Q32.1456 701.987 30.7451 699.759 Q29.3129 697.531 26.7347 697.531 Q24.3476 697.531 23.0745 699.154 Q21.8013 700.745 20.6237 706.188 L20.1462 708.225 Q19.0004 713.668 16.6451 716.087 Q14.258 718.506 10.1202 718.506 Q5.09134 718.506 2.35408 714.941 Q-0.38317 711.376 -0.38317 704.819 Q-0.38317 701.573 0.0942579 698.708 Q0.571686 695.844 1.52654 693.425 Z" fill="#000000" fill-rule="nonzero" fill-opacity="1" /><path clip-path="url(#clip361)" d="M1321.8 1454.11 L1342.3 1448.92 L1360.15 1443.72 L1374.99 1438.53 L1386.56 1433.33 L1394.66 1428.14 L1399.24 1422.95 L1400.31 1417.75 L1398.02 1412.56 L1392.59 1407.36 L1384.34 1402.17 L1373.65 1396.98 L1360.97 1391.78 L1346.74 1386.59 L1331.41 1381.39 L1315.41 1376.2 L1299.12 1371.01 L1282.85 1365.81 L1266.83 1360.62 L1251.22 1355.42 L1236.08 1350.23 L1221.44 1345.04 L1207.21 1339.84 L1193.31 1334.65 L1179.6 1329.45 L1165.96 1324.26 L1152.27 1319.06 L1138.44 1313.87 L1124.4 1308.68 L1110.17 1303.48 L1095.77 1298.29 L1081.28 1293.09 L1066.83 1287.9 L1052.56 1282.71 L1038.61 1277.51 L1025.16 1272.32 L1012.35 1267.12 L1000.32 1261.93 L989.183 1256.74 L979.009 1251.54 L969.848 1246.35 L961.718 1241.15 L954.602 1235.96 L948.463 1230.77 L943.241 1225.57 L938.859 1220.38 L935.234 1215.18 L932.276 1209.99 L929.896 1204.79 L928.005 1199.6 L926.525 1194.41 L925.38 1189.21 L924.508 1184.02 L923.851 1178.82 L923.363 1173.63 L923.006 1168.44 L922.747 1163.24 L922.563 1158.05 L922.433 1152.85 L922.342 1147.66 L922.28 1142.47 L922.238 1137.27 L922.209 1132.08 L922.191 1126.88 L922.179 1121.69 L922.171 1116.5 L922.166 1111.3 L922.163 1106.11 L922.161 1100.91 L922.159 1095.72 L922.159 1090.52 L922.158 1085.33 L922.158 1080.14 L922.158 1074.94 L922.158 1069.75 L922.158 1064.55 L922.158 1059.36 L922.158 1054.17 L922.158 1048.97 L922.158 1043.78 L922.158 1038.58 L922.159 1033.39 L922.16 1028.2 L922.161 1023 L922.163 1017.81 L922.166 1012.61 L922.172 1007.42 L922.18 1002.23 L922.194 997.031 L922.214 991.837 L922.244 986.643 L922.289 981.449 L922.356 976.255 L922.452 971.061 L922.591 965.867 L922.787 960.673 L923.061 955.479 L923.438 950.285 L923.951 945.091 L924.64 939.896 L925.552 934.702 L926.745 929.508 L928.282 924.314 L930.237 919.12 L932.689 913.926 L935.721 908.732 L939.418 903.538 L943.859 898.344 L949.117 893.15 L955.25 887.956 L962.292 882.761 L970.252 877.567 L979.102 872.373 L988.776 867.179 L999.162 861.985 L1010.1 856.791 L1021.4 851.597 L1032.82 846.403 L1044.07 841.209 L1054.86 836.015 L1064.88 830.821 L1073.83 825.626 L1081.41 820.432 L1087.37 815.238 L1091.51 810.044 L1093.69 804.85 L750.629 804.85 L752.801 810.044 L756.942 815.238 L762.906 820.432 L770.488 825.626 L779.434 830.821 L789.456 836.015 L800.248 841.209 L811.499 846.403 L822.912 851.597 L834.21 856.791 L845.153 861.985 L855.54 867.179 L865.213 872.373 L874.064 877.567 L882.024 882.761 L889.066 887.956 L895.198 893.15 L900.457 898.344 L904.898 903.538 L908.594 908.732 L911.626 913.926 L914.078 919.12 L916.033 924.314 L917.57 929.508 L918.763 934.702 L919.675 939.896 L920.364 945.091 L920.878 950.285 L921.255 955.479 L921.528 960.673 L921.724 965.867 L921.863 971.061 L921.96 976.255 L922.026 981.449 L922.071 986.643 L922.102 991.837 L922.122 997.031 L922.135 1002.23 L922.143 1007.42 L922.149 1012.61 L922.152 1017.81 L922.154 1023 L922.156 1028.2 L922.157 1033.39 L922.157 1038.58 L922.157 1043.78 L922.157 1048.97 L922.158 1054.17 L922.158 1059.36 L922.158 1064.55 L922.158 1069.75 L922.157 1074.94 L922.157 1080.14 L922.157 1085.33 L922.157 1090.52 L922.156 1095.72 L922.155 1100.91 L922.153 1106.11 L922.15 1111.3 L922.145 1116.5 L922.137 1121.69 L922.125 1126.88 L922.106 1132.08 L922.078 1137.27 L922.036 1142.47 L921.973 1147.66 L921.883 1152.85 L921.753 1158.05 L921.568 1163.24 L921.309 1168.44 L920.952 1173.63 L920.464 1178.82 L919.808 1184.02 L918.935 1189.21 L917.791 1194.41 L916.31 1199.6 L914.42 1204.79 L912.039 1209.99 L909.081 1215.18 L905.456 1220.38 L901.075 1225.57 L895.852 1230.77 L889.713 1235.96 L882.598 1241.15 L874.467 1246.35 L865.307 1251.54 L855.133 1256.74 L843.992 1261.93 L831.963 1267.12 L819.156 1272.32 L805.704 1277.51 L791.76 1282.71 L777.483 1287.9 L763.031 1293.09 L748.547 1298.29 L734.147 1303.48 L719.912 1308.68 L705.88 1313.87 L692.044 1319.06 L678.352 1324.26 L664.712 1329.45 L651.006 1334.65 L637.104 1339.84 L622.879 1345.04 L608.231 1350.23 L593.099 1355.42 L577.486 1360.62 L561.466 1365.81 L545.192 1371.01 L528.9 1376.2 L512.903 1381.39 L497.576 1386.59 L483.344 1391.78 L470.66 1396.98 L459.978 1402.17 L451.728 1407.36 L446.297 1412.56 L444.002 1417.75 L445.075 1422.95 L449.651 1428.14 L457.759 1433.33 L469.324 1438.53 L484.166 1443.72 L502.015 1448.92 L522.518 1454.11 L1321.8 1454.11  Z" fill="#009af9" fill-rule="evenodd" fill-opacity="1"/>
<polyline clip-path="url(#clip361)" style="stroke:#000000; stroke-linecap:round; stroke-linejoin:round; stroke-width:4; stroke-opacity:1; fill:none" points="1321.8,1454.11 1342.3,1448.92 1360.15,1443.72 1374.99,1438.53 1386.56,1433.33 1394.66,1428.14 1399.24,1422.95 1400.31,1417.75 1398.02,1412.56 1392.59,1407.36 1384.34,1402.17 1373.65,1396.98 1360.97,1391.78 1346.74,1386.59 1331.41,1381.39 1315.41,1376.2 1299.12,1371.01 1282.85,1365.81 1266.83,1360.62 1251.22,1355.42 1236.08,1350.23 1221.44,1345.04 1207.21,1339.84 1193.31,1334.65 1179.6,1329.45 1165.96,1324.26 1152.27,1319.06 1138.44,1313.87 1124.4,1308.68 1110.17,1303.48 1095.77,1298.29 1081.28,1293.09 1066.83,1287.9 1052.56,1282.71 1038.61,1277.51 1025.16,1272.32 1012.35,1267.12 1000.32,1261.93 989.183,1256.74 979.009,1251.54 969.848,1246.35 961.718,1241.15 954.602,1235.96 948.463,1230.77 943.241,1225.57 938.859,1220.38 935.234,1215.18 932.276,1209.99 929.896,1204.79 928.005,1199.6 926.525,1194.41 925.38,1189.21 924.508,1184.02 923.851,1178.82 923.363,1173.63 923.006,1168.44 922.747,1163.24 922.563,1158.05 922.433,1152.85 922.342,1147.66 922.28,1142.47 922.238,1137.27 922.209,1132.08 922.191,1126.88 922.179,1121.69 922.171,1116.5 922.166,1111.3 922.163,1106.11 922.161,1100.91 922.159,1095.72 922.159,1090.52 922.158,1085.33 922.158,1080.14 922.158,1074.94 922.158,1069.75 922.158,1064.55 922.158,1059.36 922.158,1054.17 922.158,1048.97 922.158,1043.78 922.158,1038.58 922.159,1033.39 922.16,1028.2 922.161,1023 922.163,1017.81 922.166,1012.61 922.172,1007.42 922.18,1002.23 922.194,997.031 922.214,991.837 922.244,986.643 922.289,981.449 922.356,976.255 922.452,971.061 922.591,965.867 922.787,960.673 923.061,955.479 923.438,950.285 923.951,945.091 924.64,939.896 925.552,934.702 926.745,929.508 928.282,924.314 930.237,919.12 932.689,913.926 935.721,908.732 939.418,903.538 943.859,898.344 949.117,893.15 955.25,887.956 962.292,882.761 970.252,877.567 979.102,872.373 988.776,867.179 999.162,861.985 1010.1,856.791 1021.4,851.597 1032.82,846.403 1044.07,841.209 1054.86,836.015 1064.88,830.821 1073.83,825.626 1081.41,820.432 1087.37,815.238 1091.51,810.044 1093.69,804.85 750.629,804.85 752.801,810.044 756.942,815.238 762.906,820.432 770.488,825.626 779.434,830.821 789.456,836.015 800.248,841.209 811.499,846.403 822.912,851.597 834.21,856.791 845.153,861.985 855.54,867.179 865.213,872.373 874.064,877.567 882.024,882.761 889.066,887.956 895.198,893.15 900.457,898.344 904.898,903.538 908.594,908.732 911.626,913.926 914.078,919.12 916.033,924.314 917.57,929.508 918.763,934.702 919.675,939.896 920.364,945.091 920.878,950.285 921.255,955.479 921.528,960.673 921.724,965.867 921.863,971.061 921.96,976.255 922.026,981.449 922.071,986.643 922.102,991.837 922.122,997.031 922.135,1002.23 922.143,1007.42 922.149,1012.61 922.152,1017.81 922.154,1023 922.156,1028.2 922.157,1033.39 922.157,1038.58 922.157,1043.78 922.157,1048.97 922.158,1054.17 922.158,1059.36 922.158,1064.55 922.158,1069.75 922.157,1074.94 922.157,1080.14 922.157,1085.33 922.157,1090.52 922.156,1095.72 922.155,1100.91 922.153,1106.11 922.15,1111.3 922.145,1116.5 922.137,1121.69 922.125,1126.88 922.106,1132.08 922.078,1137.27 922.036,1142.47 921.973,1147.66 921.883,1152.85 921.753,1158.05 921.568,1163.24 921.309,1168.44 920.952,1173.63 920.464,1178.82 919.808,1184.02 918.935,1189.21 917.791,1194.41 916.31,1199.6 914.42,1204.79 912.039,1209.99 909.081,1215.18 905.456,1220.38 901.075,1225.57 895.852,1230.77 889.713,1235.96 882.598,1241.15 874.467,1246.35 865.307,1251.54 855.133,1256.74 843.992,1261.93 831.963,1267.12 819.156,1272.32 805.704,1277.51 791.76,1282.71 777.483,1287.9 763.031,1293.09 748.547,1298.29 734.147,1303.48 719.912,1308.68 705.88,1313.87 692.044,1319.06 678.352,1324.26 664.712,1329.45 651.006,1334.65 637.104,1339.84 622.879,1345.04 608.231,1350.23 593.099,1355.42 577.486,1360.62 561.466,1365.81 545.192,1371.01 528.9,1376.2 512.903,1381.39 497.576,1386.59 483.344,1391.78 470.66,1396.98 459.978,1402.17 451.728,1407.36 446.297,1412.56 444.002,1417.75 445.075,1422.95 449.651,1428.14 457.759,1433.33 469.324,1438.53 484.166,1443.72 502.015,1448.92 522.518,1454.11 1321.8,1454.11 "/>
<path clip-path="url(#clip361)" d="M3019.62 249.791 L3029.06 247.226 L3037.7 244.661 L3045.48 242.097 L3052.37 239.532 L3058.35 236.968 L3063.38 234.403 L3067.44 231.838 L3070.53 229.274 L3072.62 226.709 L3073.73 224.145 L3073.86 221.58 L3073.02 219.015 L3071.22 216.451 L3068.49 213.886 L3064.87 211.322 L3060.38 208.757 L3055.08 206.192 L3049.02 203.628 L3042.25 201.063 L3034.84 198.499 L3026.84 195.934 L3018.35 193.369 L3009.43 190.805 L3000.16 188.24 L2990.64 185.676 L2980.95 183.111 L2971.18 180.546 L2961.42 177.982 L2951.77 175.417 L2942.3 172.853 L2933.12 170.288 L2924.29 167.723 L2915.91 165.159 L2908.04 162.594 L2900.75 160.03 L2894.09 157.465 L2888.12 154.9 L2882.87 152.336 L2878.38 149.771 L2874.65 147.207 L2871.69 144.642 L2869.51 142.077 L2868.07 139.513 L2867.34 136.948 L2867.3 134.384 L2867.88 131.819 L2869.02 129.254 L2870.65 126.69 L2872.7 124.125 L2875.07 121.561 L2877.68 118.996 L2880.42 116.431 L2883.22 113.867 L2885.95 111.302 L2888.54 108.738 L2890.88 106.173 L2892.88 103.608 L2894.47 101.044 L2895.55 98.4792 L2896.07 95.9146 L2895.96 93.35 L2895.18 90.7854 L2893.67 88.2208 L2297.73 88.2208 L2296.23 90.7854 L2295.44 93.35 L2295.34 95.9146 L2295.86 98.4792 L2296.94 101.044 L2298.53 103.608 L2300.53 106.173 L2302.87 108.738 L2305.46 111.302 L2308.19 113.867 L2310.98 116.431 L2313.73 118.996 L2316.34 121.561 L2318.71 124.125 L2320.75 126.69 L2322.39 129.254 L2323.53 131.819 L2324.11 134.384 L2324.06 136.948 L2323.34 139.513 L2321.9 142.077 L2319.71 144.642 L2316.76 147.207 L2313.03 149.771 L2308.54 152.336 L2303.29 154.9 L2297.32 157.465 L2290.66 160.03 L2283.37 162.594 L2275.5 165.159 L2267.12 167.723 L2258.29 170.288 L2249.11 172.853 L2239.64 175.417 L2229.99 177.982 L2220.23 180.546 L2210.46 183.111 L2200.77 185.676 L2191.25 188.24 L2181.98 190.805 L2173.06 193.369 L2164.57 195.934 L2156.57 198.499 L2149.16 201.063 L2142.39 203.628 L2136.32 206.192 L2131.03 208.757 L2126.54 211.322 L2122.92 213.886 L2120.19 216.451 L2118.39 219.015 L2117.55 221.58 L2117.67 224.145 L2118.78 226.709 L2120.88 229.274 L2123.97 231.838 L2128.03 234.403 L2133.06 236.968 L2139.03 239.532 L2145.93 242.097 L2153.71 244.661 L2162.34 247.226 L2171.79 249.791 L3019.62 249.791  Z" fill="#e26f46" fill-rule="evenodd" fill-opacity="1"/>
<polyline clip-path="url(#clip361)" style="stroke:#000000; stroke-linecap:round; stroke-linejoin:round; stroke-width:4; stroke-opacity:1; fill:none" points="3019.62,249.791 3029.06,247.226 3037.7,244.661 3045.48,242.097 3052.37,239.532 3058.35,236.968 3063.38,234.403 3067.44,231.838 3070.53,229.274 3072.62,226.709 3073.73,224.145 3073.86,221.58 3073.02,219.015 3071.22,216.451 3068.49,213.886 3064.87,211.322 3060.38,208.757 3055.08,206.192 3049.02,203.628 3042.25,201.063 3034.84,198.499 3026.84,195.934 3018.35,193.369 3009.43,190.805 3000.16,188.24 2990.64,185.676 2980.95,183.111 2971.18,180.546 2961.42,177.982 2951.77,175.417 2942.3,172.853 2933.12,170.288 2924.29,167.723 2915.91,165.159 2908.04,162.594 2900.75,160.03 2894.09,157.465 2888.12,154.9 2882.87,152.336 2878.38,149.771 2874.65,147.207 2871.69,144.642 2869.51,142.077 2868.07,139.513 2867.34,136.948 2867.3,134.384 2867.88,131.819 2869.02,129.254 2870.65,126.69 2872.7,124.125 2875.07,121.561 2877.68,118.996 2880.42,116.431 2883.22,113.867 2885.95,111.302 2888.54,108.738 2890.88,106.173 2892.88,103.608 2894.47,101.044 2895.55,98.4792 2896.07,95.9146 2895.96,93.35 2895.18,90.7854 2893.67,88.2208 2297.73,88.2208 2296.23,90.7854 2295.44,93.35 2295.34,95.9146 2295.86,98.4792 2296.94,101.044 2298.53,103.608 2300.53,106.173 2302.87,108.738 2305.46,111.302 2308.19,113.867 2310.98,116.431 2313.73,118.996 2316.34,121.561 2318.71,124.125 2320.75,126.69 2322.39,129.254 2323.53,131.819 2324.11,134.384 2324.06,136.948 2323.34,139.513 2321.9,142.077 2319.71,144.642 2316.76,147.207 2313.03,149.771 2308.54,152.336 2303.29,154.9 2297.32,157.465 2290.66,160.03 2283.37,162.594 2275.5,165.159 2267.12,167.723 2258.29,170.288 2249.11,172.853 2239.64,175.417 2229.99,177.982 2220.23,180.546 2210.46,183.111 2200.77,185.676 2191.25,188.24 2181.98,190.805 2173.06,193.369 2164.57,195.934 2156.57,198.499 2149.16,201.063 2142.39,203.628 2136.32,206.192 2131.03,208.757 2126.54,211.322 2122.92,213.886 2120.19,216.451 2118.39,219.015 2117.55,221.58 2117.67,224.145 2118.78,226.709 2120.88,229.274 2123.97,231.838 2128.03,234.403 2133.06,236.968 2139.03,239.532 2145.93,242.097 2153.71,244.661 2162.34,247.226 2171.79,249.791 3019.62,249.791 "/>
</svg>
