<?xml version="1.0" encoding="utf-8"?>
<svg xmlns="http://www.w3.org/2000/svg" xmlns:xlink="http://www.w3.org/1999/xlink" width="600" height="400" viewBox="0 0 2400 1600">
<defs>
  <clipPath id="clip740">
    <rect x="0" y="0" width="2400" height="1600"/>
  </clipPath>
</defs>
<path clip-path="url(#clip740)" d="M0 1600 L2400 1600 L2400 0 L0 0  Z" fill="#ffffff" fill-rule="evenodd" fill-opacity="1"/>
<defs>
  <clipPath id="clip741">
    <rect x="210" y="47" width="2143" height="1377"/>
  </clipPath>
</defs>
<path clip-path="url(#clip740)" d="M210.376 1423.18 L2352.76 1423.18 L2352.76 47.2441 L210.376 47.2441  Z" fill="#ffffff" fill-rule="evenodd" fill-opacity="1"/>
<polyline clip-path="url(#clip741)" style="stroke:#000000; stroke-linecap:round; stroke-linejoin:round; stroke-width:2; stroke-opacity:0.1; fill:none" points="559.739,1423.18 559.739,47.2441 "/>
<polyline clip-path="url(#clip741)" style="stroke:#000000; stroke-linecap:round; stroke-linejoin:round; stroke-width:2; stroke-opacity:0.1; fill:none" points="1137.2,1423.18 1137.2,47.2441 "/>
<polyline clip-path="url(#clip741)" style="stroke:#000000; stroke-linecap:round; stroke-linejoin:round; stroke-width:2; stroke-opacity:0.1; fill:none" points="1714.66,1423.18 1714.66,47.2441 "/>
<polyline clip-path="url(#clip741)" style="stroke:#000000; stroke-linecap:round; stroke-linejoin:round; stroke-width:2; stroke-opacity:0.1; fill:none" points="2292.12,1423.18 2292.12,47.2441 "/>
<polyline clip-path="url(#clip741)" style="stroke:#000000; stroke-linecap:round; stroke-linejoin:round; stroke-width:2; stroke-opacity:0.1; fill:none" points="210.376,1152.76 2352.76,1152.76 "/>
<polyline clip-path="url(#clip741)" style="stroke:#000000; stroke-linecap:round; stroke-linejoin:round; stroke-width:2; stroke-opacity:0.1; fill:none" points="210.376,840.543 2352.76,840.543 "/>
<polyline clip-path="url(#clip741)" style="stroke:#000000; stroke-linecap:round; stroke-linejoin:round; stroke-width:2; stroke-opacity:0.1; fill:none" points="210.376,528.324 2352.76,528.324 "/>
<polyline clip-path="url(#clip741)" style="stroke:#000000; stroke-linecap:round; stroke-linejoin:round; stroke-width:2; stroke-opacity:0.1; fill:none" points="210.376,216.106 2352.76,216.106 "/>
<polyline clip-path="url(#clip740)" style="stroke:#000000; stroke-linecap:round; stroke-linejoin:round; stroke-width:4; stroke-opacity:1; fill:none" points="210.376,1423.18 2352.76,1423.18 "/>
<polyline clip-path="url(#clip740)" style="stroke:#000000; stroke-linecap:round; stroke-linejoin:round; stroke-width:4; stroke-opacity:1; fill:none" points="559.739,1423.18 559.739,1404.28 "/>
<polyline clip-path="url(#clip740)" style="stroke:#000000; stroke-linecap:round; stroke-linejoin:round; stroke-width:4; stroke-opacity:1; fill:none" points="1137.2,1423.18 1137.2,1404.28 "/>
<polyline clip-path="url(#clip740)" style="stroke:#000000; stroke-linecap:round; stroke-linejoin:round; stroke-width:4; stroke-opacity:1; fill:none" points="1714.66,1423.18 1714.66,1404.28 "/>
<polyline clip-path="url(#clip740)" style="stroke:#000000; stroke-linecap:round; stroke-linejoin:round; stroke-width:4; stroke-opacity:1; fill:none" points="2292.12,1423.18 2292.12,1404.28 "/>
<path clip-path="url(#clip740)" d="M528.64 1468.75 L558.316 1468.75 L558.316 1472.69 L528.64 1472.69 L528.64 1468.75 Z" fill="#000000" fill-rule="nonzero" fill-opacity="1" /><path clip-path="url(#clip740)" d="M581.256 1455.09 L569.45 1473.54 L581.256 1473.54 L581.256 1455.09 M580.029 1451.02 L585.908 1451.02 L585.908 1473.54 L590.839 1473.54 L590.839 1477.43 L585.908 1477.43 L585.908 1485.58 L581.256 1485.58 L581.256 1477.43 L565.654 1477.43 L565.654 1472.92 L580.029 1451.02 Z" fill="#000000" fill-rule="nonzero" fill-opacity="1" /><path clip-path="url(#clip740)" d="M1107.14 1468.75 L1136.82 1468.75 L1136.82 1472.69 L1107.14 1472.69 L1107.14 1468.75 Z" fill="#000000" fill-rule="nonzero" fill-opacity="1" /><path clip-path="url(#clip740)" d="M1150.94 1481.64 L1167.26 1481.64 L1167.26 1485.58 L1145.31 1485.58 L1145.31 1481.64 Q1147.98 1478.89 1152.56 1474.26 Q1157.17 1469.61 1158.35 1468.27 Q1160.59 1465.74 1161.47 1464.01 Q1162.37 1462.25 1162.37 1460.56 Q1162.37 1457.8 1160.43 1456.07 Q1158.51 1454.33 1155.41 1454.33 Q1153.21 1454.33 1150.75 1455.09 Q1148.32 1455.86 1145.55 1457.41 L1145.55 1452.69 Q1148.37 1451.55 1150.82 1450.97 Q1153.28 1450.39 1155.31 1450.39 Q1160.68 1450.39 1163.88 1453.08 Q1167.07 1455.77 1167.07 1460.26 Q1167.07 1462.39 1166.26 1464.31 Q1165.48 1466.2 1163.37 1468.8 Q1162.79 1469.47 1159.69 1472.69 Q1156.59 1475.88 1150.94 1481.64 Z" fill="#000000" fill-rule="nonzero" fill-opacity="1" /><path clip-path="url(#clip740)" d="M1714.66 1454.1 Q1711.05 1454.1 1709.22 1457.66 Q1707.42 1461.2 1707.42 1468.33 Q1707.42 1475.44 1709.22 1479.01 Q1711.05 1482.55 1714.66 1482.55 Q1718.3 1482.55 1720.1 1479.01 Q1721.93 1475.44 1721.93 1468.33 Q1721.93 1461.2 1720.1 1457.66 Q1718.3 1454.1 1714.66 1454.1 M1714.66 1450.39 Q1720.47 1450.39 1723.53 1455 Q1726.61 1459.58 1726.61 1468.33 Q1726.61 1477.06 1723.53 1481.67 Q1720.47 1486.25 1714.66 1486.25 Q1708.85 1486.25 1705.77 1481.67 Q1702.72 1477.06 1702.72 1468.33 Q1702.72 1459.58 1705.77 1455 Q1708.85 1450.39 1714.66 1450.39 Z" fill="#000000" fill-rule="nonzero" fill-opacity="1" /><path clip-path="url(#clip740)" d="M2286.78 1481.64 L2303.09 1481.64 L2303.09 1485.58 L2281.15 1485.58 L2281.15 1481.64 Q2283.81 1478.89 2288.4 1474.26 Q2293 1469.61 2294.18 1468.27 Q2296.43 1465.74 2297.31 1464.01 Q2298.21 1462.25 2298.21 1460.56 Q2298.21 1457.8 2296.27 1456.07 Q2294.34 1454.33 2291.24 1454.33 Q2289.04 1454.33 2286.59 1455.09 Q2284.16 1455.86 2281.38 1457.41 L2281.38 1452.69 Q2284.21 1451.55 2286.66 1450.97 Q2289.11 1450.39 2291.15 1450.39 Q2296.52 1450.39 2299.72 1453.08 Q2302.91 1455.77 2302.91 1460.26 Q2302.91 1462.39 2302.1 1464.31 Q2301.31 1466.2 2299.21 1468.8 Q2298.63 1469.47 2295.53 1472.69 Q2292.42 1475.88 2286.78 1481.64 Z" fill="#000000" fill-rule="nonzero" fill-opacity="1" /><path clip-path="url(#clip740)" d="M1044 1518.52 L1049.85 1518.52 L1049.85 1568.04 L1044 1568.04 L1044 1518.52 Z" fill="#000000" fill-rule="nonzero" fill-opacity="1" /><path clip-path="url(#clip740)" d="M1075.92 1536.5 Q1071.21 1536.5 1068.47 1540.19 Q1065.74 1543.85 1065.74 1550.25 Q1065.74 1556.65 1068.44 1560.34 Q1071.18 1564 1075.92 1564 Q1080.6 1564 1083.34 1560.31 Q1086.07 1556.62 1086.07 1550.25 Q1086.07 1543.92 1083.34 1540.23 Q1080.6 1536.5 1075.92 1536.5 M1075.92 1531.54 Q1083.56 1531.54 1087.92 1536.5 Q1092.28 1541.47 1092.28 1550.25 Q1092.28 1559 1087.92 1564 Q1083.56 1568.97 1075.92 1568.97 Q1068.25 1568.97 1063.89 1564 Q1059.56 1559 1059.56 1550.25 Q1059.56 1541.47 1063.89 1536.5 Q1068.25 1531.54 1075.92 1531.54 Z" fill="#000000" fill-rule="nonzero" fill-opacity="1" /><path clip-path="url(#clip740)" d="M1125.45 1549.81 Q1125.45 1543.44 1122.81 1539.94 Q1120.2 1536.44 1115.45 1536.44 Q1110.74 1536.44 1108.1 1539.94 Q1105.49 1543.44 1105.49 1549.81 Q1105.49 1556.14 1108.1 1559.64 Q1110.74 1563.14 1115.45 1563.14 Q1120.2 1563.14 1122.81 1559.64 Q1125.45 1556.14 1125.45 1549.81 M1131.3 1563.62 Q1131.3 1572.72 1127.26 1577.15 Q1123.22 1581.6 1114.88 1581.6 Q1111.79 1581.6 1109.06 1581.13 Q1106.32 1580.68 1103.74 1579.72 L1103.74 1574.03 Q1106.32 1575.43 1108.83 1576.1 Q1111.35 1576.76 1113.96 1576.76 Q1119.72 1576.76 1122.58 1573.74 Q1125.45 1570.75 1125.45 1564.67 L1125.45 1561.77 Q1123.63 1564.92 1120.8 1566.48 Q1117.97 1568.04 1114.02 1568.04 Q1107.46 1568.04 1103.45 1563.05 Q1099.44 1558.05 1099.44 1549.81 Q1099.44 1541.53 1103.45 1536.53 Q1107.46 1531.54 1114.02 1531.54 Q1117.97 1531.54 1120.8 1533.1 Q1123.63 1534.66 1125.45 1537.81 L1125.45 1532.4 L1131.3 1532.4 L1131.3 1563.62 Z" fill="#000000" fill-rule="nonzero" fill-opacity="1" /><path clip-path="url(#clip740)" d="M1145.31 1562.63 L1155.81 1562.63 L1155.81 1526.38 L1144.38 1528.67 L1144.38 1522.82 L1155.75 1520.52 L1162.18 1520.52 L1162.18 1562.63 L1172.68 1562.63 L1172.68 1568.04 L1145.31 1568.04 L1145.31 1562.63 Z" fill="#000000" fill-rule="nonzero" fill-opacity="1" /><path clip-path="url(#clip740)" d="M1199.42 1524.76 Q1194.45 1524.76 1191.94 1529.66 Q1189.45 1534.53 1189.45 1544.33 Q1189.45 1554.1 1191.94 1559 Q1194.45 1563.87 1199.42 1563.87 Q1204.41 1563.87 1206.9 1559 Q1209.41 1554.1 1209.41 1544.33 Q1209.41 1534.53 1206.9 1529.66 Q1204.41 1524.76 1199.42 1524.76 M1199.42 1519.66 Q1207.41 1519.66 1211.61 1526 Q1215.84 1532.3 1215.84 1544.33 Q1215.84 1556.33 1211.61 1562.66 Q1207.41 1568.97 1199.42 1568.97 Q1191.43 1568.97 1187.19 1562.66 Q1182.99 1556.33 1182.99 1544.33 Q1182.99 1532.3 1187.19 1526 Q1191.43 1519.66 1199.42 1519.66 Z" fill="#000000" fill-rule="nonzero" fill-opacity="1" /><path clip-path="url(#clip740)" d="M1240.38 1518.58 Q1236.11 1525.9 1234.05 1533.06 Q1231.98 1540.23 1231.98 1547.58 Q1231.98 1554.93 1234.05 1562.16 Q1236.15 1569.35 1240.38 1576.64 L1235.29 1576.64 Q1230.51 1569.16 1228.13 1561.93 Q1225.77 1554.71 1225.77 1547.58 Q1225.77 1540.48 1228.13 1533.29 Q1230.48 1526.09 1235.29 1518.58 L1240.38 1518.58 Z" fill="#000000" fill-rule="nonzero" fill-opacity="1" /><path clip-path="url(#clip740)" d="M1251.52 1518.52 L1257.41 1518.52 L1257.41 1547.77 L1274.88 1532.4 L1282.36 1532.4 L1263.46 1549.07 L1283.16 1568.04 L1275.52 1568.04 L1257.41 1550.63 L1257.41 1568.04 L1251.52 1568.04 L1251.52 1518.52 Z" fill="#000000" fill-rule="nonzero" fill-opacity="1" /><path clip-path="url(#clip740)" d="M1299.9 1520.52 L1305.31 1520.52 L1288.76 1574.09 L1283.35 1574.09 L1299.9 1520.52 Z" fill="#000000" fill-rule="nonzero" fill-opacity="1" /><path clip-path="url(#clip740)" d="M1311.71 1520.52 L1321.29 1520.52 L1333.41 1552.86 L1345.6 1520.52 L1355.19 1520.52 L1355.19 1568.04 L1348.91 1568.04 L1348.91 1526.32 L1336.66 1558.91 L1330.2 1558.91 L1317.95 1526.32 L1317.95 1568.04 L1311.71 1568.04 L1311.71 1520.52 Z" fill="#000000" fill-rule="nonzero" fill-opacity="1" /><path clip-path="url(#clip740)" d="M1373.36 1562.7 L1373.36 1581.6 L1367.47 1581.6 L1367.47 1532.4 L1373.36 1532.4 L1373.36 1537.81 Q1375.21 1534.62 1378.01 1533.1 Q1380.84 1531.54 1384.75 1531.54 Q1391.25 1531.54 1395.29 1536.69 Q1399.36 1541.85 1399.36 1550.25 Q1399.36 1558.65 1395.29 1563.81 Q1391.25 1568.97 1384.75 1568.97 Q1380.84 1568.97 1378.01 1567.44 Q1375.21 1565.88 1373.36 1562.7 M1393.28 1550.25 Q1393.28 1543.79 1390.61 1540.13 Q1387.97 1536.44 1383.32 1536.44 Q1378.67 1536.44 1376 1540.13 Q1373.36 1543.79 1373.36 1550.25 Q1373.36 1556.71 1376 1560.4 Q1378.67 1564.07 1383.32 1564.07 Q1387.97 1564.07 1390.61 1560.4 Q1393.28 1556.71 1393.28 1550.25 Z" fill="#000000" fill-rule="nonzero" fill-opacity="1" /><path clip-path="url(#clip740)" d="M1434.72 1533.76 L1434.72 1539.24 Q1432.24 1537.87 1429.73 1537.2 Q1427.24 1536.5 1424.7 1536.5 Q1419 1536.5 1415.85 1540.13 Q1412.7 1543.73 1412.7 1550.25 Q1412.7 1556.78 1415.85 1560.4 Q1419 1564 1424.7 1564 Q1427.24 1564 1429.73 1563.33 Q1432.24 1562.63 1434.72 1561.26 L1434.72 1566.68 Q1432.27 1567.82 1429.63 1568.39 Q1427.02 1568.97 1424.06 1568.97 Q1416.01 1568.97 1411.27 1563.91 Q1406.52 1558.85 1406.52 1550.25 Q1406.52 1541.53 1411.3 1536.53 Q1416.1 1531.54 1424.44 1531.54 Q1427.15 1531.54 1429.73 1532.11 Q1432.31 1532.65 1434.72 1533.76 Z" fill="#000000" fill-rule="nonzero" fill-opacity="1" /><path clip-path="url(#clip740)" d="M1443.13 1533.83 L1468.81 1533.83 L1468.81 1536.85 L1443.13 1536.85 L1443.13 1533.83 Z" fill="#000000" fill-rule="nonzero" fill-opacity="1" /><path clip-path="url(#clip740)" d="M1478.14 1543.28 L1484.63 1543.28 L1484.63 1523.83 L1477.53 1525.14 L1477.53 1521.45 L1484.85 1520.21 L1489.22 1520.21 L1489.22 1543.28 L1495.74 1543.28 L1495.74 1546.78 L1478.14 1546.78 L1478.14 1543.28 Z" fill="#000000" fill-rule="nonzero" fill-opacity="1" /><path clip-path="url(#clip740)" d="M1504.52 1518.58 L1509.62 1518.58 Q1514.39 1526.09 1516.75 1533.29 Q1519.13 1540.48 1519.13 1547.58 Q1519.13 1554.71 1516.75 1561.93 Q1514.39 1569.16 1509.62 1576.64 L1504.52 1576.64 Q1508.76 1569.35 1510.83 1562.16 Q1512.93 1554.93 1512.93 1547.58 Q1512.93 1540.23 1510.83 1533.06 Q1508.76 1525.9 1504.52 1518.58 Z" fill="#000000" fill-rule="nonzero" fill-opacity="1" /><polyline clip-path="url(#clip740)" style="stroke:#000000; stroke-linecap:round; stroke-linejoin:round; stroke-width:4; stroke-opacity:1; fill:none" points="210.376,1423.18 210.376,47.2441 "/>
<polyline clip-path="url(#clip740)" style="stroke:#000000; stroke-linecap:round; stroke-linejoin:round; stroke-width:4; stroke-opacity:1; fill:none" points="210.376,1152.76 229.273,1152.76 "/>
<polyline clip-path="url(#clip740)" style="stroke:#000000; stroke-linecap:round; stroke-linejoin:round; stroke-width:4; stroke-opacity:1; fill:none" points="210.376,840.543 229.273,840.543 "/>
<polyline clip-path="url(#clip740)" style="stroke:#000000; stroke-linecap:round; stroke-linejoin:round; stroke-width:4; stroke-opacity:1; fill:none" points="210.376,528.324 229.273,528.324 "/>
<polyline clip-path="url(#clip740)" style="stroke:#000000; stroke-linecap:round; stroke-linejoin:round; stroke-width:4; stroke-opacity:1; fill:none" points="210.376,216.106 229.273,216.106 "/>
<path clip-path="url(#clip740)" d="M114.26 1153.21 L143.936 1153.21 L143.936 1157.15 L114.26 1157.15 L114.26 1153.21 Z" fill="#000000" fill-rule="nonzero" fill-opacity="1" /><path clip-path="url(#clip740)" d="M158.056 1166.11 L174.376 1166.11 L174.376 1170.04 L152.431 1170.04 L152.431 1166.11 Q155.093 1163.35 159.677 1158.72 Q164.283 1154.07 165.464 1152.73 Q167.709 1150.2 168.589 1148.47 Q169.491 1146.71 169.491 1145.02 Q169.491 1142.26 167.547 1140.53 Q165.626 1138.79 162.524 1138.79 Q160.325 1138.79 157.871 1139.56 Q155.44 1140.32 152.663 1141.87 L152.663 1137.15 Q155.487 1136.01 157.94 1135.44 Q160.394 1134.86 162.431 1134.86 Q167.802 1134.86 170.996 1137.54 Q174.19 1140.23 174.19 1144.72 Q174.19 1146.85 173.38 1148.77 Q172.593 1150.67 170.487 1153.26 Q169.908 1153.93 166.806 1157.15 Q163.704 1160.34 158.056 1166.11 Z" fill="#000000" fill-rule="nonzero" fill-opacity="1" /><path clip-path="url(#clip740)" d="M162.431 826.342 Q158.82 826.342 156.991 829.906 Q155.186 833.448 155.186 840.578 Q155.186 847.684 156.991 851.249 Q158.82 854.79 162.431 854.79 Q166.065 854.79 167.871 851.249 Q169.7 847.684 169.7 840.578 Q169.7 833.448 167.871 829.906 Q166.065 826.342 162.431 826.342 M162.431 822.638 Q168.241 822.638 171.297 827.244 Q174.376 831.828 174.376 840.578 Q174.376 849.304 171.297 853.911 Q168.241 858.494 162.431 858.494 Q156.621 858.494 153.542 853.911 Q150.487 849.304 150.487 840.578 Q150.487 831.828 153.542 827.244 Q156.621 822.638 162.431 822.638 Z" fill="#000000" fill-rule="nonzero" fill-opacity="1" /><path clip-path="url(#clip740)" d="M158.056 541.669 L174.376 541.669 L174.376 545.604 L152.431 545.604 L152.431 541.669 Q155.093 538.915 159.677 534.285 Q164.283 529.632 165.464 528.29 Q167.709 525.766 168.589 524.03 Q169.491 522.271 169.491 520.581 Q169.491 517.827 167.547 516.091 Q165.626 514.355 162.524 514.355 Q160.325 514.355 157.871 515.118 Q155.44 515.882 152.663 517.433 L152.663 512.711 Q155.487 511.577 157.94 510.998 Q160.394 510.419 162.431 510.419 Q167.802 510.419 170.996 513.105 Q174.19 515.79 174.19 520.28 Q174.19 522.41 173.38 524.331 Q172.593 526.229 170.487 528.822 Q169.908 529.493 166.806 532.711 Q163.704 535.905 158.056 541.669 Z" fill="#000000" fill-rule="nonzero" fill-opacity="1" /><path clip-path="url(#clip740)" d="M164.792 202.9 L152.987 221.349 L164.792 221.349 L164.792 202.9 M163.565 198.826 L169.445 198.826 L169.445 221.349 L174.376 221.349 L174.376 225.238 L169.445 225.238 L169.445 233.386 L164.792 233.386 L164.792 225.238 L149.191 225.238 L149.191 220.724 L163.565 198.826 Z" fill="#000000" fill-rule="nonzero" fill-opacity="1" /><path clip-path="url(#clip740)" d="M14.479 956.357 L14.479 950.5 L64.0042 950.5 L64.0042 956.357 L14.479 956.357 Z" fill="#000000" fill-rule="nonzero" fill-opacity="1" /><path clip-path="url(#clip740)" d="M32.4621 924.433 Q32.4621 929.143 36.1542 931.88 Q39.8145 934.618 46.212 934.618 Q52.6095 934.618 56.3017 931.912 Q59.9619 929.175 59.9619 924.433 Q59.9619 919.754 56.2698 917.017 Q52.5777 914.279 46.212 914.279 Q39.8781 914.279 36.186 917.017 Q32.4621 919.754 32.4621 924.433 M27.4968 924.433 Q27.4968 916.794 32.4621 912.433 Q37.4273 908.073 46.212 908.073 Q54.9649 908.073 59.9619 912.433 Q64.9272 916.794 64.9272 924.433 Q64.9272 932.103 59.9619 936.464 Q54.9649 940.792 46.212 940.792 Q37.4273 940.792 32.4621 936.464 Q27.4968 932.103 27.4968 924.433 Z" fill="#000000" fill-rule="nonzero" fill-opacity="1" /><path clip-path="url(#clip740)" d="M45.7664 874.907 Q39.4007 874.907 35.8996 877.549 Q32.3984 880.159 32.3984 884.902 Q32.3984 889.612 35.8996 892.254 Q39.4007 894.864 45.7664 894.864 Q52.1003 894.864 55.6014 892.254 Q59.1026 889.612 59.1026 884.902 Q59.1026 880.159 55.6014 877.549 Q52.1003 874.907 45.7664 874.907 M59.58 869.051 Q68.683 869.051 73.1071 873.093 Q77.5631 877.135 77.5631 885.474 Q77.5631 888.562 77.0857 891.299 Q76.6401 894.036 75.6852 896.614 L69.9879 896.614 Q71.3884 894.036 72.0568 891.522 Q72.7252 889.007 72.7252 886.398 Q72.7252 880.637 69.7015 877.772 Q66.7096 874.907 60.6303 874.907 L57.7339 874.907 Q60.885 876.722 62.4446 879.554 Q64.0042 882.387 64.0042 886.334 Q64.0042 892.891 59.0071 896.901 Q54.01 900.911 45.7664 900.911 Q37.491 900.911 32.4939 896.901 Q27.4968 892.891 27.4968 886.334 Q27.4968 882.387 29.0564 879.554 Q30.616 876.722 33.7671 874.907 L28.3562 874.907 L28.3562 869.051 L59.58 869.051 Z" fill="#000000" fill-rule="nonzero" fill-opacity="1" /><path clip-path="url(#clip740)" d="M58.5933 855.046 L58.5933 844.543 L22.3406 844.543 L24.6323 855.969 L18.7758 855.969 L16.4842 844.607 L16.4842 838.177 L58.5933 838.177 L58.5933 827.674 L64.0042 827.674 L64.0042 855.046 L58.5933 855.046 Z" fill="#000000" fill-rule="nonzero" fill-opacity="1" /><path clip-path="url(#clip740)" d="M20.7174 800.938 Q20.7174 805.903 25.6189 808.418 Q30.4887 810.9 40.2919 810.9 Q50.0633 810.9 54.9649 808.418 Q59.8346 805.903 59.8346 800.938 Q59.8346 795.941 54.9649 793.458 Q50.0633 790.944 40.2919 790.944 Q30.4887 790.944 25.6189 793.458 Q20.7174 795.941 20.7174 800.938 M15.6248 800.938 Q15.6248 792.949 21.9587 788.748 Q28.2607 784.514 40.2919 784.514 Q52.2913 784.514 58.6251 788.748 Q64.9272 792.949 64.9272 800.938 Q64.9272 808.927 58.6251 813.16 Q52.2913 817.361 40.2919 817.361 Q28.2607 817.361 21.9587 813.16 Q15.6248 808.927 15.6248 800.938 Z" fill="#000000" fill-rule="nonzero" fill-opacity="1" /><path clip-path="url(#clip740)" d="M14.5426 759.975 Q21.8632 764.24 29.0246 766.308 Q36.186 768.377 43.5384 768.377 Q50.8908 768.377 58.1159 766.308 Q65.3091 764.208 72.5979 759.975 L72.5979 765.067 Q65.1182 769.841 57.8931 772.229 Q50.668 774.584 43.5384 774.584 Q36.4406 774.584 29.2474 772.229 Q22.0542 769.873 14.5426 765.067 L14.5426 759.975 Z" fill="#000000" fill-rule="nonzero" fill-opacity="1" /><path clip-path="url(#clip740)" d="M21.7677 741.928 L39.6235 741.928 L39.6235 733.843 Q39.6235 729.356 37.3 726.905 Q34.9765 724.454 30.6797 724.454 Q26.4147 724.454 24.0912 726.905 Q21.7677 729.356 21.7677 733.843 L21.7677 741.928 M16.4842 748.357 L16.4842 733.843 Q16.4842 725.854 20.1126 721.78 Q23.7092 717.674 30.6797 717.674 Q37.7138 717.674 41.3104 721.78 Q44.907 725.854 44.907 733.843 L44.907 741.928 L64.0042 741.928 L64.0042 748.357 L16.4842 748.357 Z" fill="#000000" fill-rule="nonzero" fill-opacity="1" /><path clip-path="url(#clip740)" d="M16.4842 698.896 L16.4842 693.485 L70.0516 710.036 L70.0516 715.446 L16.4842 698.896 Z" fill="#000000" fill-rule="nonzero" fill-opacity="1" /><path clip-path="url(#clip740)" d="M16.4842 687.087 L16.4842 677.507 L48.8219 665.38 L16.4842 653.19 L16.4842 643.609 L64.0042 643.609 L64.0042 649.88 L22.277 649.88 L54.8694 662.134 L54.8694 668.595 L22.277 680.849 L64.0042 680.849 L64.0042 687.087 L16.4842 687.087 Z" fill="#000000" fill-rule="nonzero" fill-opacity="1" /><path clip-path="url(#clip740)" d="M58.657 625.435 L77.5631 625.435 L77.5631 631.324 L28.3562 631.324 L28.3562 625.435 L33.7671 625.435 Q30.5842 623.589 29.0564 620.788 Q27.4968 617.956 27.4968 614.041 Q27.4968 607.548 32.6531 603.505 Q37.8093 599.431 46.212 599.431 Q54.6147 599.431 59.771 603.505 Q64.9272 607.548 64.9272 614.041 Q64.9272 617.956 63.3994 620.788 Q61.8398 623.589 58.657 625.435 M46.212 605.511 Q39.7508 605.511 36.0905 608.184 Q32.3984 610.826 32.3984 615.473 Q32.3984 620.12 36.0905 622.794 Q39.7508 625.435 46.212 625.435 Q52.6732 625.435 56.3653 622.794 Q60.0256 620.12 60.0256 615.473 Q60.0256 610.826 56.3653 608.184 Q52.6732 605.511 46.212 605.511 Z" fill="#000000" fill-rule="nonzero" fill-opacity="1" /><path clip-path="url(#clip740)" d="M29.7248 564.07 L35.1993 564.07 Q33.8307 566.553 33.1623 569.067 Q32.4621 571.55 32.4621 574.096 Q32.4621 579.793 36.0905 582.944 Q39.6872 586.095 46.212 586.095 Q52.7369 586.095 56.3653 582.944 Q59.9619 579.793 59.9619 574.096 Q59.9619 571.55 59.2935 569.067 Q58.5933 566.553 57.2247 564.07 L62.6355 564.07 Q63.7814 566.521 64.3543 569.163 Q64.9272 571.772 64.9272 574.733 Q64.9272 582.785 59.8664 587.528 Q54.8057 592.27 46.212 592.27 Q37.491 592.27 32.4939 587.496 Q27.4968 582.69 27.4968 574.351 Q27.4968 571.645 28.0697 569.067 Q28.6108 566.489 29.7248 564.07 Z" fill="#000000" fill-rule="nonzero" fill-opacity="1" /><path clip-path="url(#clip740)" d="M28.3562 543.35 Q28.9291 540.421 30.6797 538.83 Q32.3984 537.207 35.0084 537.207 Q38.9551 537.207 41.0876 540.23 Q43.2201 543.254 43.2201 548.888 Q43.2201 550.702 42.9018 552.707 Q42.5517 554.681 41.9152 556.909 L38.0639 556.909 Q38.9233 555.253 39.337 553.376 Q39.7508 551.466 39.7508 549.333 Q39.7508 545.864 38.5095 543.954 Q37.2364 542.045 35.0084 542.045 Q32.6531 542.045 31.4436 543.827 Q30.2341 545.578 30.2341 549.015 L30.2341 551.752 L26.7966 551.752 L26.7966 548.76 Q26.7966 545.769 25.8099 544.241 Q24.7914 542.681 22.8817 542.681 Q21.0356 542.681 20.0808 544.273 Q19.0941 545.864 19.0941 548.888 Q19.0941 550.161 19.3806 551.784 Q19.667 553.407 20.3991 555.985 L16.7388 555.985 Q16.1977 553.662 15.9112 551.625 Q15.6248 549.588 15.6248 547.837 Q15.6248 543.254 17.5027 540.58 Q19.3806 537.875 22.5316 537.875 Q24.7277 537.875 26.2555 539.307 Q27.7833 540.74 28.3562 543.35 Z" fill="#000000" fill-rule="nonzero" fill-opacity="1" /><path clip-path="url(#clip740)" d="M14.5426 528.677 L14.5426 523.584 Q22.0542 518.81 29.2474 516.454 Q36.4406 514.067 43.5384 514.067 Q50.668 514.067 57.8931 516.454 Q65.1182 518.81 72.5979 523.584 L72.5979 528.677 Q65.3091 524.443 58.1159 522.375 Q50.8908 520.274 43.5384 520.274 Q36.186 520.274 29.0246 522.375 Q21.8632 524.443 14.5426 528.677 Z" fill="#000000" fill-rule="nonzero" fill-opacity="1" /><polyline clip-path="url(#clip741)" style="stroke:#009af9; stroke-linecap:round; stroke-linejoin:round; stroke-width:4; stroke-opacity:1; fill:none" points="271.009,475.153 291.424,464.537 311.84,453.914 332.255,443.28 352.67,432.642 373.085,422.002 393.501,411.356 413.916,400.711 434.331,390.064 454.747,379.417 475.162,368.771 495.577,358.125 515.992,347.481 536.408,336.839 556.823,326.2 577.238,315.565 597.654,304.937 618.069,294.317 638.484,283.71 658.899,273.118 679.315,262.548 699.73,252.007 720.145,241.505 740.561,231.053 760.976,220.665 781.391,210.358 801.806,200.154 822.222,190.076 842.637,180.153 863.052,170.417 883.468,160.907 903.883,151.664 924.298,142.734 944.713,134.171 965.129,126.035 985.544,118.391 1005.96,111.314 1026.37,104.882 1046.79,99.189 1067.21,94.3368 1087.62,90.4486 1108.04,87.6712 1128.45,86.1857 1148.87,86.2175 1169.28,88.0426 1189.7,91.9798 1210.11,98.3456 1230.53,107.328 1250.94,118.724 1271.36,131.557 1291.77,143.906 1312.19,153.908 1332.6,162.415 1353.02,174.448 1373.43,194.38 1393.85,215.663 1414.27,227.737 1434.68,245.23 1455.1,269.32 1475.51,284.526 1495.93,308.827 1516.34,328.666 1536.76,350.526 1557.17,373.586 1577.59,396.884 1598,420.649 1618.42,444.884 1638.83,469.522 1659.25,494.569 1679.66,519.994 1700.08,545.771 1720.49,571.874 1740.91,598.284 1761.33,624.98 1781.74,651.943 1802.16,679.158 1822.57,706.608 1842.99,734.28 1863.4,762.16 1883.82,790.236 1904.23,818.497 1924.65,846.932 1945.06,875.533 1965.48,904.292 1985.89,933.2 2006.31,962.25 2026.72,991.438 2047.14,1020.76 2067.55,1050.21 2087.97,1079.78 2108.38,1109.48 2128.8,1139.31 2149.22,1169.27 2169.63,1199.37 2190.05,1229.63 2210.46,1260.06 2230.88,1290.69 2251.29,1321.56 2271.71,1352.72 2292.12,1384.24 "/>
<circle clip-path="url(#clip741)" cx="271.009" cy="475.153" r="7.2" fill="#009af9" fill-rule="evenodd" fill-opacity="1" stroke="#000000" stroke-opacity="1" stroke-width="3.2"/>
<circle clip-path="url(#clip741)" cx="291.424" cy="464.537" r="7.2" fill="#009af9" fill-rule="evenodd" fill-opacity="1" stroke="#000000" stroke-opacity="1" stroke-width="3.2"/>
<circle clip-path="url(#clip741)" cx="311.84" cy="453.914" r="7.2" fill="#009af9" fill-rule="evenodd" fill-opacity="1" stroke="#000000" stroke-opacity="1" stroke-width="3.2"/>
<circle clip-path="url(#clip741)" cx="332.255" cy="443.28" r="7.2" fill="#009af9" fill-rule="evenodd" fill-opacity="1" stroke="#000000" stroke-opacity="1" stroke-width="3.2"/>
<circle clip-path="url(#clip741)" cx="352.67" cy="432.642" r="7.2" fill="#009af9" fill-rule="evenodd" fill-opacity="1" stroke="#000000" stroke-opacity="1" stroke-width="3.2"/>
<circle clip-path="url(#clip741)" cx="373.085" cy="422.002" r="7.2" fill="#009af9" fill-rule="evenodd" fill-opacity="1" stroke="#000000" stroke-opacity="1" stroke-width="3.2"/>
<circle clip-path="url(#clip741)" cx="393.501" cy="411.356" r="7.2" fill="#009af9" fill-rule="evenodd" fill-opacity="1" stroke="#000000" stroke-opacity="1" stroke-width="3.2"/>
<circle clip-path="url(#clip741)" cx="413.916" cy="400.711" r="7.2" fill="#009af9" fill-rule="evenodd" fill-opacity="1" stroke="#000000" stroke-opacity="1" stroke-width="3.2"/>
<circle clip-path="url(#clip741)" cx="434.331" cy="390.064" r="7.2" fill="#009af9" fill-rule="evenodd" fill-opacity="1" stroke="#000000" stroke-opacity="1" stroke-width="3.2"/>
<circle clip-path="url(#clip741)" cx="454.747" cy="379.417" r="7.2" fill="#009af9" fill-rule="evenodd" fill-opacity="1" stroke="#000000" stroke-opacity="1" stroke-width="3.2"/>
<circle clip-path="url(#clip741)" cx="475.162" cy="368.771" r="7.2" fill="#009af9" fill-rule="evenodd" fill-opacity="1" stroke="#000000" stroke-opacity="1" stroke-width="3.2"/>
<circle clip-path="url(#clip741)" cx="495.577" cy="358.125" r="7.2" fill="#009af9" fill-rule="evenodd" fill-opacity="1" stroke="#000000" stroke-opacity="1" stroke-width="3.2"/>
<circle clip-path="url(#clip741)" cx="515.992" cy="347.481" r="7.2" fill="#009af9" fill-rule="evenodd" fill-opacity="1" stroke="#000000" stroke-opacity="1" stroke-width="3.2"/>
<circle clip-path="url(#clip741)" cx="536.408" cy="336.839" r="7.2" fill="#009af9" fill-rule="evenodd" fill-opacity="1" stroke="#000000" stroke-opacity="1" stroke-width="3.2"/>
<circle clip-path="url(#clip741)" cx="556.823" cy="326.2" r="7.2" fill="#009af9" fill-rule="evenodd" fill-opacity="1" stroke="#000000" stroke-opacity="1" stroke-width="3.2"/>
<circle clip-path="url(#clip741)" cx="577.238" cy="315.565" r="7.2" fill="#009af9" fill-rule="evenodd" fill-opacity="1" stroke="#000000" stroke-opacity="1" stroke-width="3.2"/>
<circle clip-path="url(#clip741)" cx="597.654" cy="304.937" r="7.2" fill="#009af9" fill-rule="evenodd" fill-opacity="1" stroke="#000000" stroke-opacity="1" stroke-width="3.2"/>
<circle clip-path="url(#clip741)" cx="618.069" cy="294.317" r="7.2" fill="#009af9" fill-rule="evenodd" fill-opacity="1" stroke="#000000" stroke-opacity="1" stroke-width="3.2"/>
<circle clip-path="url(#clip741)" cx="638.484" cy="283.71" r="7.2" fill="#009af9" fill-rule="evenodd" fill-opacity="1" stroke="#000000" stroke-opacity="1" stroke-width="3.2"/>
<circle clip-path="url(#clip741)" cx="658.899" cy="273.118" r="7.2" fill="#009af9" fill-rule="evenodd" fill-opacity="1" stroke="#000000" stroke-opacity="1" stroke-width="3.2"/>
<circle clip-path="url(#clip741)" cx="679.315" cy="262.548" r="7.2" fill="#009af9" fill-rule="evenodd" fill-opacity="1" stroke="#000000" stroke-opacity="1" stroke-width="3.2"/>
<circle clip-path="url(#clip741)" cx="699.73" cy="252.007" r="7.2" fill="#009af9" fill-rule="evenodd" fill-opacity="1" stroke="#000000" stroke-opacity="1" stroke-width="3.2"/>
<circle clip-path="url(#clip741)" cx="720.145" cy="241.505" r="7.2" fill="#009af9" fill-rule="evenodd" fill-opacity="1" stroke="#000000" stroke-opacity="1" stroke-width="3.2"/>
<circle clip-path="url(#clip741)" cx="740.561" cy="231.053" r="7.2" fill="#009af9" fill-rule="evenodd" fill-opacity="1" stroke="#000000" stroke-opacity="1" stroke-width="3.2"/>
<circle clip-path="url(#clip741)" cx="760.976" cy="220.665" r="7.2" fill="#009af9" fill-rule="evenodd" fill-opacity="1" stroke="#000000" stroke-opacity="1" stroke-width="3.2"/>
<circle clip-path="url(#clip741)" cx="781.391" cy="210.358" r="7.2" fill="#009af9" fill-rule="evenodd" fill-opacity="1" stroke="#000000" stroke-opacity="1" stroke-width="3.2"/>
<circle clip-path="url(#clip741)" cx="801.806" cy="200.154" r="7.2" fill="#009af9" fill-rule="evenodd" fill-opacity="1" stroke="#000000" stroke-opacity="1" stroke-width="3.2"/>
<circle clip-path="url(#clip741)" cx="822.222" cy="190.076" r="7.2" fill="#009af9" fill-rule="evenodd" fill-opacity="1" stroke="#000000" stroke-opacity="1" stroke-width="3.2"/>
<circle clip-path="url(#clip741)" cx="842.637" cy="180.153" r="7.2" fill="#009af9" fill-rule="evenodd" fill-opacity="1" stroke="#000000" stroke-opacity="1" stroke-width="3.2"/>
<circle clip-path="url(#clip741)" cx="863.052" cy="170.417" r="7.2" fill="#009af9" fill-rule="evenodd" fill-opacity="1" stroke="#000000" stroke-opacity="1" stroke-width="3.2"/>
<circle clip-path="url(#clip741)" cx="883.468" cy="160.907" r="7.2" fill="#009af9" fill-rule="evenodd" fill-opacity="1" stroke="#000000" stroke-opacity="1" stroke-width="3.2"/>
<circle clip-path="url(#clip741)" cx="903.883" cy="151.664" r="7.2" fill="#009af9" fill-rule="evenodd" fill-opacity="1" stroke="#000000" stroke-opacity="1" stroke-width="3.2"/>
<circle clip-path="url(#clip741)" cx="924.298" cy="142.734" r="7.2" fill="#009af9" fill-rule="evenodd" fill-opacity="1" stroke="#000000" stroke-opacity="1" stroke-width="3.2"/>
<circle clip-path="url(#clip741)" cx="944.713" cy="134.171" r="7.2" fill="#009af9" fill-rule="evenodd" fill-opacity="1" stroke="#000000" stroke-opacity="1" stroke-width="3.2"/>
<circle clip-path="url(#clip741)" cx="965.129" cy="126.035" r="7.2" fill="#009af9" fill-rule="evenodd" fill-opacity="1" stroke="#000000" stroke-opacity="1" stroke-width="3.2"/>
<circle clip-path="url(#clip741)" cx="985.544" cy="118.391" r="7.2" fill="#009af9" fill-rule="evenodd" fill-opacity="1" stroke="#000000" stroke-opacity="1" stroke-width="3.2"/>
<circle clip-path="url(#clip741)" cx="1005.96" cy="111.314" r="7.2" fill="#009af9" fill-rule="evenodd" fill-opacity="1" stroke="#000000" stroke-opacity="1" stroke-width="3.2"/>
<circle clip-path="url(#clip741)" cx="1026.37" cy="104.882" r="7.2" fill="#009af9" fill-rule="evenodd" fill-opacity="1" stroke="#000000" stroke-opacity="1" stroke-width="3.2"/>
<circle clip-path="url(#clip741)" cx="1046.79" cy="99.189" r="7.2" fill="#009af9" fill-rule="evenodd" fill-opacity="1" stroke="#000000" stroke-opacity="1" stroke-width="3.2"/>
<circle clip-path="url(#clip741)" cx="1067.21" cy="94.3368" r="7.2" fill="#009af9" fill-rule="evenodd" fill-opacity="1" stroke="#000000" stroke-opacity="1" stroke-width="3.2"/>
<circle clip-path="url(#clip741)" cx="1087.62" cy="90.4486" r="7.2" fill="#009af9" fill-rule="evenodd" fill-opacity="1" stroke="#000000" stroke-opacity="1" stroke-width="3.2"/>
<circle clip-path="url(#clip741)" cx="1108.04" cy="87.6712" r="7.2" fill="#009af9" fill-rule="evenodd" fill-opacity="1" stroke="#000000" stroke-opacity="1" stroke-width="3.2"/>
<circle clip-path="url(#clip741)" cx="1128.45" cy="86.1857" r="7.2" fill="#009af9" fill-rule="evenodd" fill-opacity="1" stroke="#000000" stroke-opacity="1" stroke-width="3.2"/>
<circle clip-path="url(#clip741)" cx="1148.87" cy="86.2175" r="7.2" fill="#009af9" fill-rule="evenodd" fill-opacity="1" stroke="#000000" stroke-opacity="1" stroke-width="3.2"/>
<circle clip-path="url(#clip741)" cx="1169.28" cy="88.0426" r="7.2" fill="#009af9" fill-rule="evenodd" fill-opacity="1" stroke="#000000" stroke-opacity="1" stroke-width="3.2"/>
<circle clip-path="url(#clip741)" cx="1189.7" cy="91.9798" r="7.2" fill="#009af9" fill-rule="evenodd" fill-opacity="1" stroke="#000000" stroke-opacity="1" stroke-width="3.2"/>
<circle clip-path="url(#clip741)" cx="1210.11" cy="98.3456" r="7.2" fill="#009af9" fill-rule="evenodd" fill-opacity="1" stroke="#000000" stroke-opacity="1" stroke-width="3.2"/>
<circle clip-path="url(#clip741)" cx="1230.53" cy="107.328" r="7.2" fill="#009af9" fill-rule="evenodd" fill-opacity="1" stroke="#000000" stroke-opacity="1" stroke-width="3.2"/>
<circle clip-path="url(#clip741)" cx="1250.94" cy="118.724" r="7.2" fill="#009af9" fill-rule="evenodd" fill-opacity="1" stroke="#000000" stroke-opacity="1" stroke-width="3.2"/>
<circle clip-path="url(#clip741)" cx="1271.36" cy="131.557" r="7.2" fill="#009af9" fill-rule="evenodd" fill-opacity="1" stroke="#000000" stroke-opacity="1" stroke-width="3.2"/>
<circle clip-path="url(#clip741)" cx="1291.77" cy="143.906" r="7.2" fill="#009af9" fill-rule="evenodd" fill-opacity="1" stroke="#000000" stroke-opacity="1" stroke-width="3.2"/>
<circle clip-path="url(#clip741)" cx="1312.19" cy="153.908" r="7.2" fill="#009af9" fill-rule="evenodd" fill-opacity="1" stroke="#000000" stroke-opacity="1" stroke-width="3.2"/>
<circle clip-path="url(#clip741)" cx="1332.6" cy="162.415" r="7.2" fill="#009af9" fill-rule="evenodd" fill-opacity="1" stroke="#000000" stroke-opacity="1" stroke-width="3.2"/>
<circle clip-path="url(#clip741)" cx="1353.02" cy="174.448" r="7.2" fill="#009af9" fill-rule="evenodd" fill-opacity="1" stroke="#000000" stroke-opacity="1" stroke-width="3.2"/>
<circle clip-path="url(#clip741)" cx="1373.43" cy="194.38" r="7.2" fill="#009af9" fill-rule="evenodd" fill-opacity="1" stroke="#000000" stroke-opacity="1" stroke-width="3.2"/>
<circle clip-path="url(#clip741)" cx="1393.85" cy="215.663" r="7.2" fill="#009af9" fill-rule="evenodd" fill-opacity="1" stroke="#000000" stroke-opacity="1" stroke-width="3.2"/>
<circle clip-path="url(#clip741)" cx="1414.27" cy="227.737" r="7.2" fill="#009af9" fill-rule="evenodd" fill-opacity="1" stroke="#000000" stroke-opacity="1" stroke-width="3.2"/>
<circle clip-path="url(#clip741)" cx="1434.68" cy="245.23" r="7.2" fill="#009af9" fill-rule="evenodd" fill-opacity="1" stroke="#000000" stroke-opacity="1" stroke-width="3.2"/>
<circle clip-path="url(#clip741)" cx="1455.1" cy="269.32" r="7.2" fill="#009af9" fill-rule="evenodd" fill-opacity="1" stroke="#000000" stroke-opacity="1" stroke-width="3.2"/>
<circle clip-path="url(#clip741)" cx="1475.51" cy="284.526" r="7.2" fill="#009af9" fill-rule="evenodd" fill-opacity="1" stroke="#000000" stroke-opacity="1" stroke-width="3.2"/>
<circle clip-path="url(#clip741)" cx="1495.93" cy="308.827" r="7.2" fill="#009af9" fill-rule="evenodd" fill-opacity="1" stroke="#000000" stroke-opacity="1" stroke-width="3.2"/>
<circle clip-path="url(#clip741)" cx="1516.34" cy="328.666" r="7.2" fill="#009af9" fill-rule="evenodd" fill-opacity="1" stroke="#000000" stroke-opacity="1" stroke-width="3.2"/>
<circle clip-path="url(#clip741)" cx="1536.76" cy="350.526" r="7.2" fill="#009af9" fill-rule="evenodd" fill-opacity="1" stroke="#000000" stroke-opacity="1" stroke-width="3.2"/>
<circle clip-path="url(#clip741)" cx="1557.17" cy="373.586" r="7.2" fill="#009af9" fill-rule="evenodd" fill-opacity="1" stroke="#000000" stroke-opacity="1" stroke-width="3.2"/>
<circle clip-path="url(#clip741)" cx="1577.59" cy="396.884" r="7.2" fill="#009af9" fill-rule="evenodd" fill-opacity="1" stroke="#000000" stroke-opacity="1" stroke-width="3.2"/>
<circle clip-path="url(#clip741)" cx="1598" cy="420.649" r="7.2" fill="#009af9" fill-rule="evenodd" fill-opacity="1" stroke="#000000" stroke-opacity="1" stroke-width="3.2"/>
<circle clip-path="url(#clip741)" cx="1618.42" cy="444.884" r="7.2" fill="#009af9" fill-rule="evenodd" fill-opacity="1" stroke="#000000" stroke-opacity="1" stroke-width="3.2"/>
<circle clip-path="url(#clip741)" cx="1638.83" cy="469.522" r="7.2" fill="#009af9" fill-rule="evenodd" fill-opacity="1" stroke="#000000" stroke-opacity="1" stroke-width="3.2"/>
<circle clip-path="url(#clip741)" cx="1659.25" cy="494.569" r="7.2" fill="#009af9" fill-rule="evenodd" fill-opacity="1" stroke="#000000" stroke-opacity="1" stroke-width="3.2"/>
<circle clip-path="url(#clip741)" cx="1679.66" cy="519.994" r="7.2" fill="#009af9" fill-rule="evenodd" fill-opacity="1" stroke="#000000" stroke-opacity="1" stroke-width="3.2"/>
<circle clip-path="url(#clip741)" cx="1700.08" cy="545.771" r="7.2" fill="#009af9" fill-rule="evenodd" fill-opacity="1" stroke="#000000" stroke-opacity="1" stroke-width="3.2"/>
<circle clip-path="url(#clip741)" cx="1720.49" cy="571.874" r="7.2" fill="#009af9" fill-rule="evenodd" fill-opacity="1" stroke="#000000" stroke-opacity="1" stroke-width="3.2"/>
<circle clip-path="url(#clip741)" cx="1740.91" cy="598.284" r="7.2" fill="#009af9" fill-rule="evenodd" fill-opacity="1" stroke="#000000" stroke-opacity="1" stroke-width="3.2"/>
<circle clip-path="url(#clip741)" cx="1761.33" cy="624.98" r="7.2" fill="#009af9" fill-rule="evenodd" fill-opacity="1" stroke="#000000" stroke-opacity="1" stroke-width="3.2"/>
<circle clip-path="url(#clip741)" cx="1781.74" cy="651.943" r="7.2" fill="#009af9" fill-rule="evenodd" fill-opacity="1" stroke="#000000" stroke-opacity="1" stroke-width="3.2"/>
<circle clip-path="url(#clip741)" cx="1802.16" cy="679.158" r="7.2" fill="#009af9" fill-rule="evenodd" fill-opacity="1" stroke="#000000" stroke-opacity="1" stroke-width="3.2"/>
<circle clip-path="url(#clip741)" cx="1822.57" cy="706.608" r="7.2" fill="#009af9" fill-rule="evenodd" fill-opacity="1" stroke="#000000" stroke-opacity="1" stroke-width="3.2"/>
<circle clip-path="url(#clip741)" cx="1842.99" cy="734.28" r="7.2" fill="#009af9" fill-rule="evenodd" fill-opacity="1" stroke="#000000" stroke-opacity="1" stroke-width="3.2"/>
<circle clip-path="url(#clip741)" cx="1863.4" cy="762.16" r="7.2" fill="#009af9" fill-rule="evenodd" fill-opacity="1" stroke="#000000" stroke-opacity="1" stroke-width="3.2"/>
<circle clip-path="url(#clip741)" cx="1883.82" cy="790.236" r="7.2" fill="#009af9" fill-rule="evenodd" fill-opacity="1" stroke="#000000" stroke-opacity="1" stroke-width="3.2"/>
<circle clip-path="url(#clip741)" cx="1904.23" cy="818.497" r="7.2" fill="#009af9" fill-rule="evenodd" fill-opacity="1" stroke="#000000" stroke-opacity="1" stroke-width="3.2"/>
<circle clip-path="url(#clip741)" cx="1924.65" cy="846.932" r="7.2" fill="#009af9" fill-rule="evenodd" fill-opacity="1" stroke="#000000" stroke-opacity="1" stroke-width="3.2"/>
<circle clip-path="url(#clip741)" cx="1945.06" cy="875.533" r="7.2" fill="#009af9" fill-rule="evenodd" fill-opacity="1" stroke="#000000" stroke-opacity="1" stroke-width="3.2"/>
<circle clip-path="url(#clip741)" cx="1965.48" cy="904.292" r="7.2" fill="#009af9" fill-rule="evenodd" fill-opacity="1" stroke="#000000" stroke-opacity="1" stroke-width="3.2"/>
<circle clip-path="url(#clip741)" cx="1985.89" cy="933.2" r="7.2" fill="#009af9" fill-rule="evenodd" fill-opacity="1" stroke="#000000" stroke-opacity="1" stroke-width="3.2"/>
<circle clip-path="url(#clip741)" cx="2006.31" cy="962.25" r="7.2" fill="#009af9" fill-rule="evenodd" fill-opacity="1" stroke="#000000" stroke-opacity="1" stroke-width="3.2"/>
<circle clip-path="url(#clip741)" cx="2026.72" cy="991.438" r="7.2" fill="#009af9" fill-rule="evenodd" fill-opacity="1" stroke="#000000" stroke-opacity="1" stroke-width="3.2"/>
<circle clip-path="url(#clip741)" cx="2047.14" cy="1020.76" r="7.2" fill="#009af9" fill-rule="evenodd" fill-opacity="1" stroke="#000000" stroke-opacity="1" stroke-width="3.2"/>
<circle clip-path="url(#clip741)" cx="2067.55" cy="1050.21" r="7.2" fill="#009af9" fill-rule="evenodd" fill-opacity="1" stroke="#000000" stroke-opacity="1" stroke-width="3.2"/>
<circle clip-path="url(#clip741)" cx="2087.97" cy="1079.78" r="7.2" fill="#009af9" fill-rule="evenodd" fill-opacity="1" stroke="#000000" stroke-opacity="1" stroke-width="3.2"/>
<circle clip-path="url(#clip741)" cx="2108.38" cy="1109.48" r="7.2" fill="#009af9" fill-rule="evenodd" fill-opacity="1" stroke="#000000" stroke-opacity="1" stroke-width="3.2"/>
<circle clip-path="url(#clip741)" cx="2128.8" cy="1139.31" r="7.2" fill="#009af9" fill-rule="evenodd" fill-opacity="1" stroke="#000000" stroke-opacity="1" stroke-width="3.2"/>
<circle clip-path="url(#clip741)" cx="2149.22" cy="1169.27" r="7.2" fill="#009af9" fill-rule="evenodd" fill-opacity="1" stroke="#000000" stroke-opacity="1" stroke-width="3.2"/>
<circle clip-path="url(#clip741)" cx="2169.63" cy="1199.37" r="7.2" fill="#009af9" fill-rule="evenodd" fill-opacity="1" stroke="#000000" stroke-opacity="1" stroke-width="3.2"/>
<circle clip-path="url(#clip741)" cx="2190.05" cy="1229.63" r="7.2" fill="#009af9" fill-rule="evenodd" fill-opacity="1" stroke="#000000" stroke-opacity="1" stroke-width="3.2"/>
<circle clip-path="url(#clip741)" cx="2210.46" cy="1260.06" r="7.2" fill="#009af9" fill-rule="evenodd" fill-opacity="1" stroke="#000000" stroke-opacity="1" stroke-width="3.2"/>
<circle clip-path="url(#clip741)" cx="2230.88" cy="1290.69" r="7.2" fill="#009af9" fill-rule="evenodd" fill-opacity="1" stroke="#000000" stroke-opacity="1" stroke-width="3.2"/>
<circle clip-path="url(#clip741)" cx="2251.29" cy="1321.56" r="7.2" fill="#009af9" fill-rule="evenodd" fill-opacity="1" stroke="#000000" stroke-opacity="1" stroke-width="3.2"/>
<circle clip-path="url(#clip741)" cx="2271.71" cy="1352.72" r="7.2" fill="#009af9" fill-rule="evenodd" fill-opacity="1" stroke="#000000" stroke-opacity="1" stroke-width="3.2"/>
<circle clip-path="url(#clip741)" cx="2292.12" cy="1384.24" r="7.2" fill="#009af9" fill-rule="evenodd" fill-opacity="1" stroke="#000000" stroke-opacity="1" stroke-width="3.2"/>
<polyline clip-path="url(#clip741)" style="stroke:#e26f46; stroke-linecap:round; stroke-linejoin:round; stroke-width:4; stroke-opacity:1; fill:none" points="271.009,475.154 291.424,464.538 311.84,453.914 332.255,443.28 352.67,432.642 373.085,422.003 393.501,411.357 413.916,400.713 434.331,390.066 454.747,379.42 475.162,368.774 495.577,358.128 515.992,347.484 536.408,336.843 556.823,326.205 577.238,315.571 597.654,304.944 618.069,294.325 638.484,283.719 658.899,273.129 679.315,262.561 699.73,252.022 720.145,241.523 740.561,231.074 760.976,220.689 781.391,210.387 801.806,200.188 822.222,190.115 842.637,180.199 863.052,170.472 883.468,160.972 903.883,151.74 924.298,142.823 944.713,134.276 965.129,126.158 985.544,118.536 1005.96,111.484 1026.37,105.083 1046.79,99.4253 1067.21,94.6153 1087.62,90.7772 1108.04,88.0595 1128.45,86.6455 1148.87,86.7626 1169.28,88.6886 1189.7,92.7427 1210.11,99.2374 1230.53,108.35 1250.94,119.86 1271.36,132.767 1291.77,145.147 1312.19,155.185 1332.6,163.753 1353.02,175.647 1373.43,194.75 1393.85,214.565 1414.27,225.755 1434.68,241.29 1455.1,261.383 1475.51,273.777 1495.93,291.752 1516.34,305.6 1536.76,319.573 1557.17,332.97 1577.59,345.374 1598,357.053 1618.42,368.215 1638.83,379.089 1659.25,389.93 1679.66,400.978 1700.08,412.451 1720.49,424.547 1740.91,437.438 1761.33,451.27 1781.74,466.158 1802.16,482.169 1822.57,499.313 1842.99,517.548 1863.4,536.795 1883.82,556.961 1904.23,577.944 1924.65,599.643 1945.06,621.958 1965.48,644.798 1985.89,668.081 2006.31,691.734 2026.72,715.694 2047.14,739.906 2067.55,764.325 2087.97,788.914 2108.38,813.641 2128.8,838.479 2149.22,863.408 2169.63,888.411 2190.05,913.472 2210.46,938.582 2230.88,963.731 2251.29,988.91 2271.71,1014.12 2292.12,1039.34 "/>
<circle clip-path="url(#clip741)" cx="271.009" cy="475.154" r="7.2" fill="#e26f46" fill-rule="evenodd" fill-opacity="1" stroke="#000000" stroke-opacity="1" stroke-width="3.2"/>
<circle clip-path="url(#clip741)" cx="291.424" cy="464.538" r="7.2" fill="#e26f46" fill-rule="evenodd" fill-opacity="1" stroke="#000000" stroke-opacity="1" stroke-width="3.2"/>
<circle clip-path="url(#clip741)" cx="311.84" cy="453.914" r="7.2" fill="#e26f46" fill-rule="evenodd" fill-opacity="1" stroke="#000000" stroke-opacity="1" stroke-width="3.2"/>
<circle clip-path="url(#clip741)" cx="332.255" cy="443.28" r="7.2" fill="#e26f46" fill-rule="evenodd" fill-opacity="1" stroke="#000000" stroke-opacity="1" stroke-width="3.2"/>
<circle clip-path="url(#clip741)" cx="352.67" cy="432.642" r="7.2" fill="#e26f46" fill-rule="evenodd" fill-opacity="1" stroke="#000000" stroke-opacity="1" stroke-width="3.2"/>
<circle clip-path="url(#clip741)" cx="373.085" cy="422.003" r="7.2" fill="#e26f46" fill-rule="evenodd" fill-opacity="1" stroke="#000000" stroke-opacity="1" stroke-width="3.2"/>
<circle clip-path="url(#clip741)" cx="393.501" cy="411.357" r="7.2" fill="#e26f46" fill-rule="evenodd" fill-opacity="1" stroke="#000000" stroke-opacity="1" stroke-width="3.2"/>
<circle clip-path="url(#clip741)" cx="413.916" cy="400.713" r="7.2" fill="#e26f46" fill-rule="evenodd" fill-opacity="1" stroke="#000000" stroke-opacity="1" stroke-width="3.2"/>
<circle clip-path="url(#clip741)" cx="434.331" cy="390.066" r="7.2" fill="#e26f46" fill-rule="evenodd" fill-opacity="1" stroke="#000000" stroke-opacity="1" stroke-width="3.2"/>
<circle clip-path="url(#clip741)" cx="454.747" cy="379.42" r="7.2" fill="#e26f46" fill-rule="evenodd" fill-opacity="1" stroke="#000000" stroke-opacity="1" stroke-width="3.2"/>
<circle clip-path="url(#clip741)" cx="475.162" cy="368.774" r="7.2" fill="#e26f46" fill-rule="evenodd" fill-opacity="1" stroke="#000000" stroke-opacity="1" stroke-width="3.2"/>
<circle clip-path="url(#clip741)" cx="495.577" cy="358.128" r="7.2" fill="#e26f46" fill-rule="evenodd" fill-opacity="1" stroke="#000000" stroke-opacity="1" stroke-width="3.2"/>
<circle clip-path="url(#clip741)" cx="515.992" cy="347.484" r="7.2" fill="#e26f46" fill-rule="evenodd" fill-opacity="1" stroke="#000000" stroke-opacity="1" stroke-width="3.2"/>
<circle clip-path="url(#clip741)" cx="536.408" cy="336.843" r="7.2" fill="#e26f46" fill-rule="evenodd" fill-opacity="1" stroke="#000000" stroke-opacity="1" stroke-width="3.2"/>
<circle clip-path="url(#clip741)" cx="556.823" cy="326.205" r="7.2" fill="#e26f46" fill-rule="evenodd" fill-opacity="1" stroke="#000000" stroke-opacity="1" stroke-width="3.2"/>
<circle clip-path="url(#clip741)" cx="577.238" cy="315.571" r="7.2" fill="#e26f46" fill-rule="evenodd" fill-opacity="1" stroke="#000000" stroke-opacity="1" stroke-width="3.2"/>
<circle clip-path="url(#clip741)" cx="597.654" cy="304.944" r="7.2" fill="#e26f46" fill-rule="evenodd" fill-opacity="1" stroke="#000000" stroke-opacity="1" stroke-width="3.2"/>
<circle clip-path="url(#clip741)" cx="618.069" cy="294.325" r="7.2" fill="#e26f46" fill-rule="evenodd" fill-opacity="1" stroke="#000000" stroke-opacity="1" stroke-width="3.2"/>
<circle clip-path="url(#clip741)" cx="638.484" cy="283.719" r="7.2" fill="#e26f46" fill-rule="evenodd" fill-opacity="1" stroke="#000000" stroke-opacity="1" stroke-width="3.2"/>
<circle clip-path="url(#clip741)" cx="658.899" cy="273.129" r="7.2" fill="#e26f46" fill-rule="evenodd" fill-opacity="1" stroke="#000000" stroke-opacity="1" stroke-width="3.2"/>
<circle clip-path="url(#clip741)" cx="679.315" cy="262.561" r="7.2" fill="#e26f46" fill-rule="evenodd" fill-opacity="1" stroke="#000000" stroke-opacity="1" stroke-width="3.2"/>
<circle clip-path="url(#clip741)" cx="699.73" cy="252.022" r="7.2" fill="#e26f46" fill-rule="evenodd" fill-opacity="1" stroke="#000000" stroke-opacity="1" stroke-width="3.2"/>
<circle clip-path="url(#clip741)" cx="720.145" cy="241.523" r="7.2" fill="#e26f46" fill-rule="evenodd" fill-opacity="1" stroke="#000000" stroke-opacity="1" stroke-width="3.2"/>
<circle clip-path="url(#clip741)" cx="740.561" cy="231.074" r="7.2" fill="#e26f46" fill-rule="evenodd" fill-opacity="1" stroke="#000000" stroke-opacity="1" stroke-width="3.2"/>
<circle clip-path="url(#clip741)" cx="760.976" cy="220.689" r="7.2" fill="#e26f46" fill-rule="evenodd" fill-opacity="1" stroke="#000000" stroke-opacity="1" stroke-width="3.2"/>
<circle clip-path="url(#clip741)" cx="781.391" cy="210.387" r="7.2" fill="#e26f46" fill-rule="evenodd" fill-opacity="1" stroke="#000000" stroke-opacity="1" stroke-width="3.2"/>
<circle clip-path="url(#clip741)" cx="801.806" cy="200.188" r="7.2" fill="#e26f46" fill-rule="evenodd" fill-opacity="1" stroke="#000000" stroke-opacity="1" stroke-width="3.2"/>
<circle clip-path="url(#clip741)" cx="822.222" cy="190.115" r="7.2" fill="#e26f46" fill-rule="evenodd" fill-opacity="1" stroke="#000000" stroke-opacity="1" stroke-width="3.2"/>
<circle clip-path="url(#clip741)" cx="842.637" cy="180.199" r="7.2" fill="#e26f46" fill-rule="evenodd" fill-opacity="1" stroke="#000000" stroke-opacity="1" stroke-width="3.2"/>
<circle clip-path="url(#clip741)" cx="863.052" cy="170.472" r="7.2" fill="#e26f46" fill-rule="evenodd" fill-opacity="1" stroke="#000000" stroke-opacity="1" stroke-width="3.2"/>
<circle clip-path="url(#clip741)" cx="883.468" cy="160.972" r="7.2" fill="#e26f46" fill-rule="evenodd" fill-opacity="1" stroke="#000000" stroke-opacity="1" stroke-width="3.2"/>
<circle clip-path="url(#clip741)" cx="903.883" cy="151.74" r="7.2" fill="#e26f46" fill-rule="evenodd" fill-opacity="1" stroke="#000000" stroke-opacity="1" stroke-width="3.2"/>
<circle clip-path="url(#clip741)" cx="924.298" cy="142.823" r="7.2" fill="#e26f46" fill-rule="evenodd" fill-opacity="1" stroke="#000000" stroke-opacity="1" stroke-width="3.2"/>
<circle clip-path="url(#clip741)" cx="944.713" cy="134.276" r="7.2" fill="#e26f46" fill-rule="evenodd" fill-opacity="1" stroke="#000000" stroke-opacity="1" stroke-width="3.2"/>
<circle clip-path="url(#clip741)" cx="965.129" cy="126.158" r="7.2" fill="#e26f46" fill-rule="evenodd" fill-opacity="1" stroke="#000000" stroke-opacity="1" stroke-width="3.2"/>
<circle clip-path="url(#clip741)" cx="985.544" cy="118.536" r="7.2" fill="#e26f46" fill-rule="evenodd" fill-opacity="1" stroke="#000000" stroke-opacity="1" stroke-width="3.2"/>
<circle clip-path="url(#clip741)" cx="1005.96" cy="111.484" r="7.2" fill="#e26f46" fill-rule="evenodd" fill-opacity="1" stroke="#000000" stroke-opacity="1" stroke-width="3.2"/>
<circle clip-path="url(#clip741)" cx="1026.37" cy="105.083" r="7.2" fill="#e26f46" fill-rule="evenodd" fill-opacity="1" stroke="#000000" stroke-opacity="1" stroke-width="3.2"/>
<circle clip-path="url(#clip741)" cx="1046.79" cy="99.4253" r="7.2" fill="#e26f46" fill-rule="evenodd" fill-opacity="1" stroke="#000000" stroke-opacity="1" stroke-width="3.2"/>
<circle clip-path="url(#clip741)" cx="1067.21" cy="94.6153" r="7.2" fill="#e26f46" fill-rule="evenodd" fill-opacity="1" stroke="#000000" stroke-opacity="1" stroke-width="3.2"/>
<circle clip-path="url(#clip741)" cx="1087.62" cy="90.7772" r="7.2" fill="#e26f46" fill-rule="evenodd" fill-opacity="1" stroke="#000000" stroke-opacity="1" stroke-width="3.2"/>
<circle clip-path="url(#clip741)" cx="1108.04" cy="88.0595" r="7.2" fill="#e26f46" fill-rule="evenodd" fill-opacity="1" stroke="#000000" stroke-opacity="1" stroke-width="3.2"/>
<circle clip-path="url(#clip741)" cx="1128.45" cy="86.6455" r="7.2" fill="#e26f46" fill-rule="evenodd" fill-opacity="1" stroke="#000000" stroke-opacity="1" stroke-width="3.2"/>
<circle clip-path="url(#clip741)" cx="1148.87" cy="86.7626" r="7.2" fill="#e26f46" fill-rule="evenodd" fill-opacity="1" stroke="#000000" stroke-opacity="1" stroke-width="3.2"/>
<circle clip-path="url(#clip741)" cx="1169.28" cy="88.6886" r="7.2" fill="#e26f46" fill-rule="evenodd" fill-opacity="1" stroke="#000000" stroke-opacity="1" stroke-width="3.2"/>
<circle clip-path="url(#clip741)" cx="1189.7" cy="92.7427" r="7.2" fill="#e26f46" fill-rule="evenodd" fill-opacity="1" stroke="#000000" stroke-opacity="1" stroke-width="3.2"/>
<circle clip-path="url(#clip741)" cx="1210.11" cy="99.2374" r="7.2" fill="#e26f46" fill-rule="evenodd" fill-opacity="1" stroke="#000000" stroke-opacity="1" stroke-width="3.2"/>
<circle clip-path="url(#clip741)" cx="1230.53" cy="108.35" r="7.2" fill="#e26f46" fill-rule="evenodd" fill-opacity="1" stroke="#000000" stroke-opacity="1" stroke-width="3.2"/>
<circle clip-path="url(#clip741)" cx="1250.94" cy="119.86" r="7.2" fill="#e26f46" fill-rule="evenodd" fill-opacity="1" stroke="#000000" stroke-opacity="1" stroke-width="3.2"/>
<circle clip-path="url(#clip741)" cx="1271.36" cy="132.767" r="7.2" fill="#e26f46" fill-rule="evenodd" fill-opacity="1" stroke="#000000" stroke-opacity="1" stroke-width="3.2"/>
<circle clip-path="url(#clip741)" cx="1291.77" cy="145.147" r="7.2" fill="#e26f46" fill-rule="evenodd" fill-opacity="1" stroke="#000000" stroke-opacity="1" stroke-width="3.2"/>
<circle clip-path="url(#clip741)" cx="1312.19" cy="155.185" r="7.2" fill="#e26f46" fill-rule="evenodd" fill-opacity="1" stroke="#000000" stroke-opacity="1" stroke-width="3.2"/>
<circle clip-path="url(#clip741)" cx="1332.6" cy="163.753" r="7.2" fill="#e26f46" fill-rule="evenodd" fill-opacity="1" stroke="#000000" stroke-opacity="1" stroke-width="3.2"/>
<circle clip-path="url(#clip741)" cx="1353.02" cy="175.647" r="7.2" fill="#e26f46" fill-rule="evenodd" fill-opacity="1" stroke="#000000" stroke-opacity="1" stroke-width="3.2"/>
<circle clip-path="url(#clip741)" cx="1373.43" cy="194.75" r="7.2" fill="#e26f46" fill-rule="evenodd" fill-opacity="1" stroke="#000000" stroke-opacity="1" stroke-width="3.2"/>
<circle clip-path="url(#clip741)" cx="1393.85" cy="214.565" r="7.2" fill="#e26f46" fill-rule="evenodd" fill-opacity="1" stroke="#000000" stroke-opacity="1" stroke-width="3.2"/>
<circle clip-path="url(#clip741)" cx="1414.27" cy="225.755" r="7.2" fill="#e26f46" fill-rule="evenodd" fill-opacity="1" stroke="#000000" stroke-opacity="1" stroke-width="3.2"/>
<circle clip-path="url(#clip741)" cx="1434.68" cy="241.29" r="7.2" fill="#e26f46" fill-rule="evenodd" fill-opacity="1" stroke="#000000" stroke-opacity="1" stroke-width="3.2"/>
<circle clip-path="url(#clip741)" cx="1455.1" cy="261.383" r="7.2" fill="#e26f46" fill-rule="evenodd" fill-opacity="1" stroke="#000000" stroke-opacity="1" stroke-width="3.2"/>
<circle clip-path="url(#clip741)" cx="1475.51" cy="273.777" r="7.2" fill="#e26f46" fill-rule="evenodd" fill-opacity="1" stroke="#000000" stroke-opacity="1" stroke-width="3.2"/>
<circle clip-path="url(#clip741)" cx="1495.93" cy="291.752" r="7.2" fill="#e26f46" fill-rule="evenodd" fill-opacity="1" stroke="#000000" stroke-opacity="1" stroke-width="3.2"/>
<circle clip-path="url(#clip741)" cx="1516.34" cy="305.6" r="7.2" fill="#e26f46" fill-rule="evenodd" fill-opacity="1" stroke="#000000" stroke-opacity="1" stroke-width="3.2"/>
<circle clip-path="url(#clip741)" cx="1536.76" cy="319.573" r="7.2" fill="#e26f46" fill-rule="evenodd" fill-opacity="1" stroke="#000000" stroke-opacity="1" stroke-width="3.2"/>
<circle clip-path="url(#clip741)" cx="1557.17" cy="332.97" r="7.2" fill="#e26f46" fill-rule="evenodd" fill-opacity="1" stroke="#000000" stroke-opacity="1" stroke-width="3.2"/>
<circle clip-path="url(#clip741)" cx="1577.59" cy="345.374" r="7.2" fill="#e26f46" fill-rule="evenodd" fill-opacity="1" stroke="#000000" stroke-opacity="1" stroke-width="3.2"/>
<circle clip-path="url(#clip741)" cx="1598" cy="357.053" r="7.2" fill="#e26f46" fill-rule="evenodd" fill-opacity="1" stroke="#000000" stroke-opacity="1" stroke-width="3.2"/>
<circle clip-path="url(#clip741)" cx="1618.42" cy="368.215" r="7.2" fill="#e26f46" fill-rule="evenodd" fill-opacity="1" stroke="#000000" stroke-opacity="1" stroke-width="3.2"/>
<circle clip-path="url(#clip741)" cx="1638.83" cy="379.089" r="7.2" fill="#e26f46" fill-rule="evenodd" fill-opacity="1" stroke="#000000" stroke-opacity="1" stroke-width="3.2"/>
<circle clip-path="url(#clip741)" cx="1659.25" cy="389.93" r="7.2" fill="#e26f46" fill-rule="evenodd" fill-opacity="1" stroke="#000000" stroke-opacity="1" stroke-width="3.2"/>
<circle clip-path="url(#clip741)" cx="1679.66" cy="400.978" r="7.2" fill="#e26f46" fill-rule="evenodd" fill-opacity="1" stroke="#000000" stroke-opacity="1" stroke-width="3.2"/>
<circle clip-path="url(#clip741)" cx="1700.08" cy="412.451" r="7.2" fill="#e26f46" fill-rule="evenodd" fill-opacity="1" stroke="#000000" stroke-opacity="1" stroke-width="3.2"/>
<circle clip-path="url(#clip741)" cx="1720.49" cy="424.547" r="7.2" fill="#e26f46" fill-rule="evenodd" fill-opacity="1" stroke="#000000" stroke-opacity="1" stroke-width="3.2"/>
<circle clip-path="url(#clip741)" cx="1740.91" cy="437.438" r="7.2" fill="#e26f46" fill-rule="evenodd" fill-opacity="1" stroke="#000000" stroke-opacity="1" stroke-width="3.2"/>
<circle clip-path="url(#clip741)" cx="1761.33" cy="451.27" r="7.2" fill="#e26f46" fill-rule="evenodd" fill-opacity="1" stroke="#000000" stroke-opacity="1" stroke-width="3.2"/>
<circle clip-path="url(#clip741)" cx="1781.74" cy="466.158" r="7.2" fill="#e26f46" fill-rule="evenodd" fill-opacity="1" stroke="#000000" stroke-opacity="1" stroke-width="3.2"/>
<circle clip-path="url(#clip741)" cx="1802.16" cy="482.169" r="7.2" fill="#e26f46" fill-rule="evenodd" fill-opacity="1" stroke="#000000" stroke-opacity="1" stroke-width="3.2"/>
<circle clip-path="url(#clip741)" cx="1822.57" cy="499.313" r="7.2" fill="#e26f46" fill-rule="evenodd" fill-opacity="1" stroke="#000000" stroke-opacity="1" stroke-width="3.2"/>
<circle clip-path="url(#clip741)" cx="1842.99" cy="517.548" r="7.2" fill="#e26f46" fill-rule="evenodd" fill-opacity="1" stroke="#000000" stroke-opacity="1" stroke-width="3.2"/>
<circle clip-path="url(#clip741)" cx="1863.4" cy="536.795" r="7.2" fill="#e26f46" fill-rule="evenodd" fill-opacity="1" stroke="#000000" stroke-opacity="1" stroke-width="3.2"/>
<circle clip-path="url(#clip741)" cx="1883.82" cy="556.961" r="7.2" fill="#e26f46" fill-rule="evenodd" fill-opacity="1" stroke="#000000" stroke-opacity="1" stroke-width="3.2"/>
<circle clip-path="url(#clip741)" cx="1904.23" cy="577.944" r="7.2" fill="#e26f46" fill-rule="evenodd" fill-opacity="1" stroke="#000000" stroke-opacity="1" stroke-width="3.2"/>
<circle clip-path="url(#clip741)" cx="1924.65" cy="599.643" r="7.2" fill="#e26f46" fill-rule="evenodd" fill-opacity="1" stroke="#000000" stroke-opacity="1" stroke-width="3.2"/>
<circle clip-path="url(#clip741)" cx="1945.06" cy="621.958" r="7.2" fill="#e26f46" fill-rule="evenodd" fill-opacity="1" stroke="#000000" stroke-opacity="1" stroke-width="3.2"/>
<circle clip-path="url(#clip741)" cx="1965.48" cy="644.798" r="7.2" fill="#e26f46" fill-rule="evenodd" fill-opacity="1" stroke="#000000" stroke-opacity="1" stroke-width="3.2"/>
<circle clip-path="url(#clip741)" cx="1985.89" cy="668.081" r="7.2" fill="#e26f46" fill-rule="evenodd" fill-opacity="1" stroke="#000000" stroke-opacity="1" stroke-width="3.2"/>
<circle clip-path="url(#clip741)" cx="2006.31" cy="691.734" r="7.2" fill="#e26f46" fill-rule="evenodd" fill-opacity="1" stroke="#000000" stroke-opacity="1" stroke-width="3.2"/>
<circle clip-path="url(#clip741)" cx="2026.72" cy="715.694" r="7.2" fill="#e26f46" fill-rule="evenodd" fill-opacity="1" stroke="#000000" stroke-opacity="1" stroke-width="3.2"/>
<circle clip-path="url(#clip741)" cx="2047.14" cy="739.906" r="7.2" fill="#e26f46" fill-rule="evenodd" fill-opacity="1" stroke="#000000" stroke-opacity="1" stroke-width="3.2"/>
<circle clip-path="url(#clip741)" cx="2067.55" cy="764.325" r="7.2" fill="#e26f46" fill-rule="evenodd" fill-opacity="1" stroke="#000000" stroke-opacity="1" stroke-width="3.2"/>
<circle clip-path="url(#clip741)" cx="2087.97" cy="788.914" r="7.2" fill="#e26f46" fill-rule="evenodd" fill-opacity="1" stroke="#000000" stroke-opacity="1" stroke-width="3.2"/>
<circle clip-path="url(#clip741)" cx="2108.38" cy="813.641" r="7.2" fill="#e26f46" fill-rule="evenodd" fill-opacity="1" stroke="#000000" stroke-opacity="1" stroke-width="3.2"/>
<circle clip-path="url(#clip741)" cx="2128.8" cy="838.479" r="7.2" fill="#e26f46" fill-rule="evenodd" fill-opacity="1" stroke="#000000" stroke-opacity="1" stroke-width="3.2"/>
<circle clip-path="url(#clip741)" cx="2149.22" cy="863.408" r="7.2" fill="#e26f46" fill-rule="evenodd" fill-opacity="1" stroke="#000000" stroke-opacity="1" stroke-width="3.2"/>
<circle clip-path="url(#clip741)" cx="2169.63" cy="888.411" r="7.2" fill="#e26f46" fill-rule="evenodd" fill-opacity="1" stroke="#000000" stroke-opacity="1" stroke-width="3.2"/>
<circle clip-path="url(#clip741)" cx="2190.05" cy="913.472" r="7.2" fill="#e26f46" fill-rule="evenodd" fill-opacity="1" stroke="#000000" stroke-opacity="1" stroke-width="3.2"/>
<circle clip-path="url(#clip741)" cx="2210.46" cy="938.582" r="7.2" fill="#e26f46" fill-rule="evenodd" fill-opacity="1" stroke="#000000" stroke-opacity="1" stroke-width="3.2"/>
<circle clip-path="url(#clip741)" cx="2230.88" cy="963.731" r="7.2" fill="#e26f46" fill-rule="evenodd" fill-opacity="1" stroke="#000000" stroke-opacity="1" stroke-width="3.2"/>
<circle clip-path="url(#clip741)" cx="2251.29" cy="988.91" r="7.2" fill="#e26f46" fill-rule="evenodd" fill-opacity="1" stroke="#000000" stroke-opacity="1" stroke-width="3.2"/>
<circle clip-path="url(#clip741)" cx="2271.71" cy="1014.12" r="7.2" fill="#e26f46" fill-rule="evenodd" fill-opacity="1" stroke="#000000" stroke-opacity="1" stroke-width="3.2"/>
<circle clip-path="url(#clip741)" cx="2292.12" cy="1039.34" r="7.2" fill="#e26f46" fill-rule="evenodd" fill-opacity="1" stroke="#000000" stroke-opacity="1" stroke-width="3.2"/>
<path clip-path="url(#clip740)" d="M281.788 1377.32 L929.728 1377.32 L929.728 1221.8 L281.788 1221.8  Z" fill="#ffffff" fill-rule="evenodd" fill-opacity="1"/>
<polyline clip-path="url(#clip740)" style="stroke:#000000; stroke-linecap:round; stroke-linejoin:round; stroke-width:4; stroke-opacity:1; fill:none" points="281.788,1377.32 929.728,1377.32 929.728,1221.8 281.788,1221.8 281.788,1377.32 "/>
<polyline clip-path="url(#clip740)" style="stroke:#009af9; stroke-linecap:round; stroke-linejoin:round; stroke-width:4; stroke-opacity:1; fill:none" points="305.592,1273.64 448.418,1273.64 "/>
<circle clip-path="url(#clip740)" cx="377.005" cy="1273.64" r="18.432" fill="#009af9" fill-rule="evenodd" fill-opacity="1" stroke="#000000" stroke-opacity="1" stroke-width="8.192"/>
<path clip-path="url(#clip740)" d="M472.222 1254.9 L476.481 1254.9 L476.481 1290.92 L472.222 1290.92 L472.222 1254.9 Z" fill="#000000" fill-rule="nonzero" fill-opacity="1" /><path clip-path="url(#clip740)" d="M485.393 1264.99 L489.653 1264.99 L489.653 1290.92 L485.393 1290.92 L485.393 1264.99 M485.393 1254.9 L489.653 1254.9 L489.653 1260.29 L485.393 1260.29 L485.393 1254.9 Z" fill="#000000" fill-rule="nonzero" fill-opacity="1" /><path clip-path="url(#clip740)" d="M520.115 1275.27 L520.115 1290.92 L515.856 1290.92 L515.856 1275.41 Q515.856 1271.73 514.421 1269.9 Q512.986 1268.07 510.115 1268.07 Q506.666 1268.07 504.676 1270.27 Q502.685 1272.47 502.685 1276.26 L502.685 1290.92 L498.402 1290.92 L498.402 1264.99 L502.685 1264.99 L502.685 1269.02 Q504.213 1266.68 506.273 1265.52 Q508.356 1264.36 511.064 1264.36 Q515.532 1264.36 517.824 1267.14 Q520.115 1269.9 520.115 1275.27 Z" fill="#000000" fill-rule="nonzero" fill-opacity="1" /><path clip-path="url(#clip740)" d="M550.786 1276.89 L550.786 1278.97 L531.203 1278.97 Q531.481 1283.37 533.842 1285.68 Q536.226 1287.98 540.462 1287.98 Q542.916 1287.98 545.208 1287.37 Q547.523 1286.77 549.791 1285.57 L549.791 1289.6 Q547.499 1290.57 545.092 1291.08 Q542.685 1291.59 540.208 1291.59 Q534.004 1291.59 530.37 1287.98 Q526.759 1284.36 526.759 1278.21 Q526.759 1271.84 530.185 1268.11 Q533.634 1264.36 539.467 1264.36 Q544.699 1264.36 547.731 1267.74 Q550.786 1271.1 550.786 1276.89 M546.527 1275.64 Q546.481 1272.14 544.56 1270.06 Q542.661 1267.98 539.513 1267.98 Q535.949 1267.98 533.796 1269.99 Q531.666 1272 531.342 1275.66 L546.527 1275.64 Z" fill="#000000" fill-rule="nonzero" fill-opacity="1" /><path clip-path="url(#clip740)" d="M569.56 1277.88 Q564.397 1277.88 562.407 1279.06 Q560.416 1280.24 560.416 1283.09 Q560.416 1285.36 561.898 1286.7 Q563.402 1288.02 565.972 1288.02 Q569.513 1288.02 571.643 1285.52 Q573.796 1283 573.796 1278.83 L573.796 1277.88 L569.56 1277.88 M578.055 1276.12 L578.055 1290.92 L573.796 1290.92 L573.796 1286.98 Q572.337 1289.34 570.161 1290.48 Q567.985 1291.59 564.837 1291.59 Q560.856 1291.59 558.495 1289.36 Q556.157 1287.12 556.157 1283.37 Q556.157 1278.99 559.073 1276.77 Q562.013 1274.55 567.823 1274.55 L573.796 1274.55 L573.796 1274.13 Q573.796 1271.19 571.851 1269.6 Q569.93 1267.98 566.435 1267.98 Q564.212 1267.98 562.106 1268.51 Q559.999 1269.04 558.055 1270.11 L558.055 1266.17 Q560.393 1265.27 562.592 1264.83 Q564.791 1264.36 566.874 1264.36 Q572.499 1264.36 575.277 1267.28 Q578.055 1270.2 578.055 1276.12 Z" fill="#000000" fill-rule="nonzero" fill-opacity="1" /><path clip-path="url(#clip740)" d="M601.851 1268.97 Q601.133 1268.55 600.277 1268.37 Q599.444 1268.16 598.425 1268.16 Q594.814 1268.16 592.87 1270.52 Q590.948 1272.86 590.948 1277.26 L590.948 1290.92 L586.666 1290.92 L586.666 1264.99 L590.948 1264.99 L590.948 1269.02 Q592.291 1266.66 594.444 1265.52 Q596.596 1264.36 599.675 1264.36 Q600.115 1264.36 600.647 1264.43 Q601.18 1264.48 601.828 1264.6 L601.851 1268.97 Z" fill="#000000" fill-rule="nonzero" fill-opacity="1" /><path clip-path="url(#clip740)" d="M631.619 1254.94 Q628.518 1260.27 627.013 1265.48 Q625.508 1270.68 625.508 1276.03 Q625.508 1281.38 627.013 1286.63 Q628.541 1291.86 631.619 1297.17 L627.916 1297.17 Q624.443 1291.73 622.707 1286.47 Q620.994 1281.22 620.994 1276.03 Q620.994 1270.87 622.707 1265.64 Q624.42 1260.41 627.916 1254.94 L631.619 1254.94 Z" fill="#000000" fill-rule="nonzero" fill-opacity="1" /><path clip-path="url(#clip740)" d="M660.786 1257.49 L660.786 1262.05 Q658.124 1260.78 655.763 1260.15 Q653.402 1259.53 651.203 1259.53 Q647.383 1259.53 645.3 1261.01 Q643.24 1262.49 643.24 1265.22 Q643.24 1267.51 644.605 1268.69 Q645.994 1269.85 649.837 1270.57 L652.661 1271.15 Q657.892 1272.14 660.369 1274.67 Q662.869 1277.17 662.869 1281.38 Q662.869 1286.4 659.49 1288.99 Q656.133 1291.59 649.629 1291.59 Q647.175 1291.59 644.397 1291.03 Q641.642 1290.48 638.68 1289.39 L638.68 1284.57 Q641.527 1286.17 644.258 1286.98 Q646.99 1287.79 649.629 1287.79 Q653.633 1287.79 655.809 1286.22 Q657.985 1284.64 657.985 1281.73 Q657.985 1279.18 656.411 1277.74 Q654.86 1276.31 651.295 1275.59 L648.448 1275.04 Q643.217 1273.99 640.879 1271.77 Q638.541 1269.55 638.541 1265.59 Q638.541 1261.01 641.758 1258.37 Q644.999 1255.73 650.67 1255.73 Q653.101 1255.73 655.624 1256.17 Q658.147 1256.61 660.786 1257.49 Z" fill="#000000" fill-rule="nonzero" fill-opacity="1" /><path clip-path="url(#clip740)" d="M680.763 1293.32 Q678.957 1297.95 677.244 1299.36 Q675.531 1300.78 672.661 1300.78 L669.258 1300.78 L669.258 1297.21 L671.758 1297.21 Q673.517 1297.21 674.489 1296.38 Q675.462 1295.54 676.642 1292.44 L677.406 1290.5 L666.92 1264.99 L671.434 1264.99 L679.536 1285.27 L687.638 1264.99 L692.151 1264.99 L680.763 1293.32 Z" fill="#000000" fill-rule="nonzero" fill-opacity="1" /><path clip-path="url(#clip740)" d="M718.216 1269.97 Q719.813 1267.1 722.036 1265.73 Q724.258 1264.36 727.267 1264.36 Q731.318 1264.36 733.517 1267.21 Q735.716 1270.04 735.716 1275.27 L735.716 1290.92 L731.434 1290.92 L731.434 1275.41 Q731.434 1271.68 730.114 1269.87 Q728.795 1268.07 726.086 1268.07 Q722.776 1268.07 720.855 1270.27 Q718.934 1272.47 718.934 1276.26 L718.934 1290.92 L714.651 1290.92 L714.651 1275.41 Q714.651 1271.66 713.332 1269.87 Q712.012 1268.07 709.258 1268.07 Q705.994 1268.07 704.073 1270.29 Q702.151 1272.49 702.151 1276.26 L702.151 1290.92 L697.869 1290.92 L697.869 1264.99 L702.151 1264.99 L702.151 1269.02 Q703.61 1266.63 705.647 1265.5 Q707.684 1264.36 710.485 1264.36 Q713.309 1264.36 715.276 1265.8 Q717.267 1267.23 718.216 1269.97 Z" fill="#000000" fill-rule="nonzero" fill-opacity="1" /><path clip-path="url(#clip740)" d="M749.072 1274.41 L749.072 1287.07 L756.572 1287.07 Q760.346 1287.07 762.151 1285.52 Q763.98 1283.95 763.98 1280.73 Q763.98 1277.49 762.151 1275.96 Q760.346 1274.41 756.572 1274.41 L749.072 1274.41 M749.072 1260.2 L749.072 1270.61 L755.994 1270.61 Q759.42 1270.61 761.086 1269.34 Q762.776 1268.05 762.776 1265.41 Q762.776 1262.79 761.086 1261.49 Q759.42 1260.2 755.994 1260.2 L749.072 1260.2 M744.397 1256.36 L756.341 1256.36 Q761.688 1256.36 764.582 1258.58 Q767.475 1260.8 767.475 1264.9 Q767.475 1268.07 765.994 1269.94 Q764.512 1271.82 761.642 1272.28 Q765.091 1273.02 766.989 1275.38 Q768.91 1277.72 768.91 1281.24 Q768.91 1285.87 765.762 1288.39 Q762.614 1290.92 756.804 1290.92 L744.397 1290.92 L744.397 1256.36 Z" fill="#000000" fill-rule="nonzero" fill-opacity="1" /><path clip-path="url(#clip740)" d="M786.781 1267.98 Q783.355 1267.98 781.364 1270.66 Q779.373 1273.32 779.373 1277.98 Q779.373 1282.63 781.341 1285.31 Q783.332 1287.98 786.781 1287.98 Q790.183 1287.98 792.174 1285.29 Q794.165 1282.61 794.165 1277.98 Q794.165 1273.37 792.174 1270.68 Q790.183 1267.98 786.781 1267.98 M786.781 1264.36 Q792.336 1264.36 795.507 1267.98 Q798.679 1271.59 798.679 1277.98 Q798.679 1284.34 795.507 1287.98 Q792.336 1291.59 786.781 1291.59 Q781.202 1291.59 778.031 1287.98 Q774.882 1284.34 774.882 1277.98 Q774.882 1271.59 778.031 1267.98 Q781.202 1264.36 786.781 1264.36 Z" fill="#000000" fill-rule="nonzero" fill-opacity="1" /><path clip-path="url(#clip740)" d="M805.739 1254.9 L809.998 1254.9 L809.998 1290.92 L805.739 1290.92 L805.739 1254.9 Z" fill="#000000" fill-rule="nonzero" fill-opacity="1" /><path clip-path="url(#clip740)" d="M823.123 1257.63 L823.123 1264.99 L831.896 1264.99 L831.896 1268.3 L823.123 1268.3 L823.123 1282.37 Q823.123 1285.54 823.979 1286.45 Q824.859 1287.35 827.521 1287.35 L831.896 1287.35 L831.896 1290.92 L827.521 1290.92 Q822.591 1290.92 820.716 1289.09 Q818.841 1287.23 818.841 1282.37 L818.841 1268.3 L815.716 1268.3 L815.716 1264.99 L818.841 1264.99 L818.841 1257.63 L823.123 1257.63 Z" fill="#000000" fill-rule="nonzero" fill-opacity="1" /><path clip-path="url(#clip740)" d="M835.646 1264.99 L855.877 1264.99 L855.877 1268.88 L839.859 1287.51 L855.877 1287.51 L855.877 1290.92 L835.067 1290.92 L835.067 1287.03 L851.086 1268.39 L835.646 1268.39 L835.646 1264.99 Z" fill="#000000" fill-rule="nonzero" fill-opacity="1" /><path clip-path="url(#clip740)" d="M861.711 1254.94 L865.414 1254.94 Q868.887 1260.41 870.6 1265.64 Q872.336 1270.87 872.336 1276.03 Q872.336 1281.22 870.6 1286.47 Q868.887 1291.73 865.414 1297.17 L861.711 1297.17 Q864.789 1291.86 866.294 1286.63 Q867.822 1281.38 867.822 1276.03 Q867.822 1270.68 866.294 1265.48 Q864.789 1260.27 861.711 1254.94 Z" fill="#000000" fill-rule="nonzero" fill-opacity="1" /><polyline clip-path="url(#clip740)" style="stroke:#e26f46; stroke-linecap:round; stroke-linejoin:round; stroke-width:4; stroke-opacity:1; fill:none" points="305.592,1325.48 448.418,1325.48 "/>
<circle clip-path="url(#clip740)" cx="377.005" cy="1325.48" r="18.432" fill="#e26f46" fill-rule="evenodd" fill-opacity="1" stroke="#000000" stroke-opacity="1" stroke-width="8.192"/>
<path clip-path="url(#clip740)" d="M493.935 1327.11 L493.935 1342.76 L489.676 1342.76 L489.676 1327.25 Q489.676 1323.57 488.24 1321.74 Q486.805 1319.91 483.935 1319.91 Q480.486 1319.91 478.495 1322.11 Q476.504 1324.31 476.504 1328.1 L476.504 1342.76 L472.222 1342.76 L472.222 1316.83 L476.504 1316.83 L476.504 1320.86 Q478.032 1318.52 480.092 1317.36 Q482.176 1316.2 484.884 1316.2 Q489.352 1316.2 491.643 1318.98 Q493.935 1321.74 493.935 1327.11 Z" fill="#000000" fill-rule="nonzero" fill-opacity="1" /><path clip-path="url(#clip740)" d="M512.476 1319.82 Q509.051 1319.82 507.06 1322.5 Q505.069 1325.16 505.069 1329.82 Q505.069 1334.47 507.037 1337.15 Q509.027 1339.82 512.476 1339.82 Q515.879 1339.82 517.87 1337.13 Q519.861 1334.45 519.861 1329.82 Q519.861 1325.21 517.87 1322.52 Q515.879 1319.82 512.476 1319.82 M512.476 1316.2 Q518.032 1316.2 521.203 1319.82 Q524.375 1323.43 524.375 1329.82 Q524.375 1336.18 521.203 1339.82 Q518.032 1343.43 512.476 1343.43 Q506.898 1343.43 503.727 1339.82 Q500.578 1336.18 500.578 1329.82 Q500.578 1323.43 503.727 1319.82 Q506.898 1316.2 512.476 1316.2 Z" fill="#000000" fill-rule="nonzero" fill-opacity="1" /><path clip-path="url(#clip740)" d="M552.986 1327.11 L552.986 1342.76 L548.726 1342.76 L548.726 1327.25 Q548.726 1323.57 547.291 1321.74 Q545.856 1319.91 542.986 1319.91 Q539.537 1319.91 537.546 1322.11 Q535.555 1324.31 535.555 1328.1 L535.555 1342.76 L531.273 1342.76 L531.273 1316.83 L535.555 1316.83 L535.555 1320.86 Q537.083 1318.52 539.143 1317.36 Q541.226 1316.2 543.935 1316.2 Q548.402 1316.2 550.694 1318.98 Q552.986 1321.74 552.986 1327.11 Z" fill="#000000" fill-rule="nonzero" fill-opacity="1" /><path clip-path="url(#clip740)" d="M559.328 1327.87 L571.805 1327.87 L571.805 1331.67 L559.328 1331.67 L559.328 1327.87 Z" fill="#000000" fill-rule="nonzero" fill-opacity="1" /><path clip-path="url(#clip740)" d="M578.587 1306.74 L582.846 1306.74 L582.846 1342.76 L578.587 1342.76 L578.587 1306.74 Z" fill="#000000" fill-rule="nonzero" fill-opacity="1" /><path clip-path="url(#clip740)" d="M591.758 1316.83 L596.018 1316.83 L596.018 1342.76 L591.758 1342.76 L591.758 1316.83 M591.758 1306.74 L596.018 1306.74 L596.018 1312.13 L591.758 1312.13 L591.758 1306.74 Z" fill="#000000" fill-rule="nonzero" fill-opacity="1" /><path clip-path="url(#clip740)" d="M626.48 1327.11 L626.48 1342.76 L622.221 1342.76 L622.221 1327.25 Q622.221 1323.57 620.786 1321.74 Q619.351 1319.91 616.481 1319.91 Q613.031 1319.91 611.041 1322.11 Q609.05 1324.31 609.05 1328.1 L609.05 1342.76 L604.768 1342.76 L604.768 1316.83 L609.05 1316.83 L609.05 1320.86 Q610.578 1318.52 612.638 1317.36 Q614.721 1316.2 617.43 1316.2 Q621.897 1316.2 624.189 1318.98 Q626.48 1321.74 626.48 1327.11 Z" fill="#000000" fill-rule="nonzero" fill-opacity="1" /><path clip-path="url(#clip740)" d="M657.152 1328.73 L657.152 1330.81 L637.568 1330.81 Q637.846 1335.21 640.207 1337.52 Q642.592 1339.82 646.828 1339.82 Q649.281 1339.82 651.573 1339.21 Q653.888 1338.61 656.156 1337.41 L656.156 1341.44 Q653.865 1342.41 651.457 1342.92 Q649.05 1343.43 646.573 1343.43 Q640.369 1343.43 636.735 1339.82 Q633.124 1336.2 633.124 1330.05 Q633.124 1323.68 636.55 1319.95 Q639.999 1316.2 645.832 1316.2 Q651.064 1316.2 654.096 1319.58 Q657.152 1322.94 657.152 1328.73 M652.892 1327.48 Q652.846 1323.98 650.925 1321.9 Q649.027 1319.82 645.879 1319.82 Q642.314 1319.82 640.161 1321.83 Q638.031 1323.84 637.707 1327.5 L652.892 1327.48 Z" fill="#000000" fill-rule="nonzero" fill-opacity="1" /><path clip-path="url(#clip740)" d="M675.925 1329.72 Q670.763 1329.72 668.772 1330.9 Q666.781 1332.08 666.781 1334.93 Q666.781 1337.2 668.263 1338.54 Q669.767 1339.86 672.337 1339.86 Q675.878 1339.86 678.008 1337.36 Q680.161 1334.84 680.161 1330.67 L680.161 1329.72 L675.925 1329.72 M684.42 1327.96 L684.42 1342.76 L680.161 1342.76 L680.161 1338.82 Q678.702 1341.18 676.527 1342.32 Q674.351 1343.43 671.202 1343.43 Q667.221 1343.43 664.86 1341.2 Q662.522 1338.96 662.522 1335.21 Q662.522 1330.83 665.439 1328.61 Q668.378 1326.39 674.189 1326.39 L680.161 1326.39 L680.161 1325.97 Q680.161 1323.03 678.216 1321.44 Q676.295 1319.82 672.8 1319.82 Q670.577 1319.82 668.471 1320.35 Q666.365 1320.88 664.42 1321.95 L664.42 1318.01 Q666.758 1317.11 668.957 1316.67 Q671.156 1316.2 673.24 1316.2 Q678.864 1316.2 681.642 1319.12 Q684.42 1322.04 684.42 1327.96 Z" fill="#000000" fill-rule="nonzero" fill-opacity="1" /><path clip-path="url(#clip740)" d="M708.216 1320.81 Q707.499 1320.39 706.642 1320.21 Q705.809 1320 704.79 1320 Q701.179 1320 699.235 1322.36 Q697.313 1324.7 697.313 1329.1 L697.313 1342.76 L693.031 1342.76 L693.031 1316.83 L697.313 1316.83 L697.313 1320.86 Q698.656 1318.5 700.809 1317.36 Q702.962 1316.2 706.04 1316.2 Q706.48 1316.2 707.012 1316.27 Q707.545 1316.32 708.193 1316.44 L708.216 1320.81 Z" fill="#000000" fill-rule="nonzero" fill-opacity="1" /><path clip-path="url(#clip740)" d="M737.985 1306.78 Q734.883 1312.11 733.378 1317.32 Q731.873 1322.52 731.873 1327.87 Q731.873 1333.22 733.378 1338.47 Q734.906 1343.7 737.985 1349.01 L734.281 1349.01 Q730.809 1343.57 729.073 1338.31 Q727.36 1333.06 727.36 1327.87 Q727.36 1322.71 729.073 1317.48 Q730.785 1312.25 734.281 1306.78 L737.985 1306.78 Z" fill="#000000" fill-rule="nonzero" fill-opacity="1" /><path clip-path="url(#clip740)" d="M767.799 1327.11 L767.799 1342.76 L763.54 1342.76 L763.54 1327.25 Q763.54 1323.57 762.105 1321.74 Q760.67 1319.91 757.799 1319.91 Q754.35 1319.91 752.359 1322.11 Q750.369 1324.31 750.369 1328.1 L750.369 1342.76 L746.086 1342.76 L746.086 1306.74 L750.369 1306.74 L750.369 1320.86 Q751.896 1318.52 753.957 1317.36 Q756.04 1316.2 758.748 1316.2 Q763.216 1316.2 765.508 1318.98 Q767.799 1321.74 767.799 1327.11 Z" fill="#000000" fill-rule="nonzero" fill-opacity="1" /><path clip-path="url(#clip740)" d="M788.077 1329.72 Q782.915 1329.72 780.924 1330.9 Q778.933 1332.08 778.933 1334.93 Q778.933 1337.2 780.415 1338.54 Q781.919 1339.86 784.489 1339.86 Q788.031 1339.86 790.16 1337.36 Q792.313 1334.84 792.313 1330.67 L792.313 1329.72 L788.077 1329.72 M796.572 1327.96 L796.572 1342.76 L792.313 1342.76 L792.313 1338.82 Q790.855 1341.18 788.679 1342.32 Q786.503 1343.43 783.355 1343.43 Q779.373 1343.43 777.012 1341.2 Q774.674 1338.96 774.674 1335.21 Q774.674 1330.83 777.591 1328.61 Q780.531 1326.39 786.341 1326.39 L792.313 1326.39 L792.313 1325.97 Q792.313 1323.03 790.369 1321.44 Q788.447 1319.82 784.952 1319.82 Q782.73 1319.82 780.623 1320.35 Q778.517 1320.88 776.572 1321.95 L776.572 1318.01 Q778.91 1317.11 781.109 1316.67 Q783.308 1316.2 785.392 1316.2 Q791.017 1316.2 793.794 1319.12 Q796.572 1322.04 796.572 1327.96 Z" fill="#000000" fill-rule="nonzero" fill-opacity="1" /><path clip-path="url(#clip740)" d="M805.345 1306.74 L809.605 1306.74 L809.605 1342.76 L805.345 1342.76 L805.345 1306.74 Z" fill="#000000" fill-rule="nonzero" fill-opacity="1" /><path clip-path="url(#clip740)" d="M828.563 1319.82 Q825.137 1319.82 823.146 1322.5 Q821.155 1325.16 821.155 1329.82 Q821.155 1334.47 823.123 1337.15 Q825.114 1339.82 828.563 1339.82 Q831.966 1339.82 833.956 1337.13 Q835.947 1334.45 835.947 1329.82 Q835.947 1325.21 833.956 1322.52 Q831.966 1319.82 828.563 1319.82 M828.563 1316.2 Q834.118 1316.2 837.29 1319.82 Q840.461 1323.43 840.461 1329.82 Q840.461 1336.18 837.29 1339.82 Q834.118 1343.43 828.563 1343.43 Q822.984 1343.43 819.813 1339.82 Q816.665 1336.18 816.665 1329.82 Q816.665 1323.43 819.813 1319.82 Q822.984 1316.2 828.563 1316.2 Z" fill="#000000" fill-rule="nonzero" fill-opacity="1" /><path clip-path="url(#clip740)" d="M860.646 1306.74 L860.646 1310.28 L856.572 1310.28 Q854.28 1310.28 853.377 1311.2 Q852.498 1312.13 852.498 1314.54 L852.498 1316.83 L859.512 1316.83 L859.512 1320.14 L852.498 1320.14 L852.498 1342.76 L848.215 1342.76 L848.215 1320.14 L844.141 1320.14 L844.141 1316.83 L848.215 1316.83 L848.215 1315.02 Q848.215 1310.7 850.229 1308.73 Q852.243 1306.74 856.618 1306.74 L860.646 1306.74 Z" fill="#000000" fill-rule="nonzero" fill-opacity="1" /><path clip-path="url(#clip740)" d="M864.211 1316.83 L868.47 1316.83 L868.47 1342.76 L864.211 1342.76 L864.211 1316.83 M864.211 1306.74 L868.47 1306.74 L868.47 1312.13 L864.211 1312.13 L864.211 1306.74 Z" fill="#000000" fill-rule="nonzero" fill-opacity="1" /><path clip-path="url(#clip740)" d="M881.595 1309.47 L881.595 1316.83 L890.368 1316.83 L890.368 1320.14 L881.595 1320.14 L881.595 1334.21 Q881.595 1337.38 882.451 1338.29 Q883.331 1339.19 885.993 1339.19 L890.368 1339.19 L890.368 1342.76 L885.993 1342.76 Q881.062 1342.76 879.187 1340.93 Q877.312 1339.07 877.312 1334.21 L877.312 1320.14 L874.187 1320.14 L874.187 1316.83 L877.312 1316.83 L877.312 1309.47 L881.595 1309.47 Z" fill="#000000" fill-rule="nonzero" fill-opacity="1" /><path clip-path="url(#clip740)" d="M895.298 1306.78 L899.002 1306.78 Q902.474 1312.25 904.187 1317.48 Q905.923 1322.71 905.923 1327.87 Q905.923 1333.06 904.187 1338.31 Q902.474 1343.57 899.002 1349.01 L895.298 1349.01 Q898.377 1343.7 899.882 1338.47 Q901.41 1333.22 901.41 1327.87 Q901.41 1322.52 899.882 1317.32 Q898.377 1312.11 895.298 1306.78 Z" fill="#000000" fill-rule="nonzero" fill-opacity="1" /></svg>
