<?xml version="1.0" encoding="utf-8"?>
<svg xmlns="http://www.w3.org/2000/svg" xmlns:xlink="http://www.w3.org/1999/xlink" width="800" height="400" viewBox="0 0 3200 1600">
<defs>
  <clipPath id="clip750">
    <rect x="0" y="0" width="3200" height="1600"/>
  </clipPath>
</defs>
<path clip-path="url(#clip750)" d="M0 1600 L3200 1600 L3200 0 L0 0  Z" fill="#ffffff" fill-rule="evenodd" fill-opacity="1"/>
<defs>
  <clipPath id="clip751">
    <rect x="364" y="47" width="2789" height="1449"/>
  </clipPath>
</defs>
<path clip-path="url(#clip750)" d="M364.874 1495.09 L3152.76 1495.09 L3152.76 47.2441 L364.874 47.2441  Z" fill="#ffffff" fill-rule="evenodd" fill-opacity="1"/>
<polyline clip-path="url(#clip751)" style="stroke:#000000; stroke-linecap:round; stroke-linejoin:round; stroke-width:2; stroke-opacity:0.1; fill:none" points="921.972,1495.09 921.972,47.2441 "/>
<polyline clip-path="url(#clip751)" style="stroke:#000000; stroke-linecap:round; stroke-linejoin:round; stroke-width:2; stroke-opacity:0.1; fill:none" points="2595.66,1495.09 2595.66,47.2441 "/>
<polyline clip-path="url(#clip751)" style="stroke:#000000; stroke-linecap:round; stroke-linejoin:round; stroke-width:2; stroke-opacity:0.1; fill:none" points="364.874,1150.83 3152.76,1150.83 "/>
<polyline clip-path="url(#clip751)" style="stroke:#000000; stroke-linecap:round; stroke-linejoin:round; stroke-width:2; stroke-opacity:0.1; fill:none" points="364.874,786.979 3152.76,786.979 "/>
<polyline clip-path="url(#clip751)" style="stroke:#000000; stroke-linecap:round; stroke-linejoin:round; stroke-width:2; stroke-opacity:0.1; fill:none" points="364.874,423.124 3152.76,423.124 "/>
<polyline clip-path="url(#clip751)" style="stroke:#000000; stroke-linecap:round; stroke-linejoin:round; stroke-width:2; stroke-opacity:0.1; fill:none" points="364.874,59.2684 3152.76,59.2684 "/>
<polyline clip-path="url(#clip750)" style="stroke:#000000; stroke-linecap:round; stroke-linejoin:round; stroke-width:4; stroke-opacity:1; fill:none" points="364.874,1495.09 3152.76,1495.09 "/>
<polyline clip-path="url(#clip750)" style="stroke:#000000; stroke-linecap:round; stroke-linejoin:round; stroke-width:4; stroke-opacity:1; fill:none" points="921.972,1495.09 921.972,1476.19 "/>
<polyline clip-path="url(#clip750)" style="stroke:#000000; stroke-linecap:round; stroke-linejoin:round; stroke-width:4; stroke-opacity:1; fill:none" points="2595.66,1495.09 2595.66,1476.19 "/>
<path clip-path="url(#clip750)" d="M827.228 1533.4 L815.422 1551.85 L827.228 1551.85 L827.228 1533.4 M826.001 1529.33 L831.88 1529.33 L831.88 1551.85 L836.811 1551.85 L836.811 1555.74 L831.88 1555.74 L831.88 1563.89 L827.228 1563.89 L827.228 1555.74 L811.626 1555.74 L811.626 1551.23 L826.001 1529.33 Z" fill="#000000" fill-rule="nonzero" fill-opacity="1" /><path clip-path="url(#clip750)" d="M863.223 1530.6 L863.223 1537.96 L871.996 1537.96 L871.996 1541.27 L863.223 1541.27 L863.223 1555.35 Q863.223 1558.52 864.079 1559.42 Q864.959 1560.32 867.621 1560.32 L871.996 1560.32 L871.996 1563.89 L867.621 1563.89 Q862.69 1563.89 860.815 1562.06 Q858.94 1560.21 858.94 1555.35 L858.94 1541.27 L855.815 1541.27 L855.815 1537.96 L858.94 1537.96 L858.94 1530.6 L863.223 1530.6 Z" fill="#000000" fill-rule="nonzero" fill-opacity="1" /><path clip-path="url(#clip750)" d="M899.149 1548.24 L899.149 1563.89 L894.889 1563.89 L894.889 1548.38 Q894.889 1544.7 893.454 1542.87 Q892.019 1541.04 889.149 1541.04 Q885.7 1541.04 883.709 1543.24 Q881.718 1545.44 881.718 1549.24 L881.718 1563.89 L877.436 1563.89 L877.436 1527.87 L881.718 1527.87 L881.718 1541.99 Q883.246 1539.65 885.306 1538.49 Q887.389 1537.34 890.098 1537.34 Q894.565 1537.34 896.857 1540.11 Q899.149 1542.87 899.149 1548.24 Z" fill="#000000" fill-rule="nonzero" fill-opacity="1" /><path clip-path="url(#clip750)" d="M922.667 1541.94 Q921.949 1541.53 921.093 1541.34 Q920.26 1541.13 919.241 1541.13 Q915.63 1541.13 913.685 1543.49 Q911.764 1545.83 911.764 1550.23 L911.764 1563.89 L907.482 1563.89 L907.482 1537.96 L911.764 1537.96 L911.764 1541.99 Q913.107 1539.63 915.26 1538.49 Q917.412 1537.34 920.491 1537.34 Q920.931 1537.34 921.463 1537.41 Q921.996 1537.45 922.644 1537.57 L922.667 1541.94 Z" fill="#000000" fill-rule="nonzero" fill-opacity="1" /><path clip-path="url(#clip750)" d="M948.269 1549.86 L948.269 1551.94 L928.685 1551.94 Q928.963 1556.34 931.324 1558.66 Q933.709 1560.95 937.945 1560.95 Q940.398 1560.95 942.69 1560.35 Q945.005 1559.74 947.273 1558.54 L947.273 1562.57 Q944.982 1563.54 942.574 1564.05 Q940.167 1564.56 937.69 1564.56 Q931.486 1564.56 927.852 1560.95 Q924.241 1557.34 924.241 1551.18 Q924.241 1544.81 927.667 1541.09 Q931.116 1537.34 936.949 1537.34 Q942.181 1537.34 945.213 1540.72 Q948.269 1544.07 948.269 1549.86 M944.009 1548.61 Q943.963 1545.11 942.042 1543.03 Q940.144 1540.95 936.996 1540.95 Q933.431 1540.95 931.278 1542.96 Q929.148 1544.98 928.824 1548.63 L944.009 1548.61 Z" fill="#000000" fill-rule="nonzero" fill-opacity="1" /><path clip-path="url(#clip750)" d="M967.042 1550.86 Q961.88 1550.86 959.889 1552.04 Q957.898 1553.22 957.898 1556.06 Q957.898 1558.33 959.38 1559.67 Q960.884 1560.99 963.454 1560.99 Q966.995 1560.99 969.125 1558.49 Q971.278 1555.97 971.278 1551.8 L971.278 1550.86 L967.042 1550.86 M975.537 1549.1 L975.537 1563.89 L971.278 1563.89 L971.278 1559.95 Q969.819 1562.31 967.644 1563.45 Q965.468 1564.56 962.319 1564.56 Q958.338 1564.56 955.977 1562.34 Q953.639 1560.09 953.639 1556.34 Q953.639 1551.97 956.556 1549.74 Q959.495 1547.52 965.306 1547.52 L971.278 1547.52 L971.278 1547.11 Q971.278 1544.17 969.333 1542.57 Q967.412 1540.95 963.917 1540.95 Q961.694 1540.95 959.588 1541.48 Q957.482 1542.01 955.537 1543.08 L955.537 1539.14 Q957.875 1538.24 960.074 1537.8 Q962.273 1537.34 964.357 1537.34 Q969.981 1537.34 972.759 1540.25 Q975.537 1543.17 975.537 1549.1 Z" fill="#000000" fill-rule="nonzero" fill-opacity="1" /><path clip-path="url(#clip750)" d="M1001.37 1541.9 L1001.37 1527.87 L1005.63 1527.87 L1005.63 1563.89 L1001.37 1563.89 L1001.37 1560 Q1000.03 1562.31 997.967 1563.45 Q995.93 1564.56 993.06 1564.56 Q988.361 1564.56 985.398 1560.81 Q982.458 1557.06 982.458 1550.95 Q982.458 1544.84 985.398 1541.09 Q988.361 1537.34 993.06 1537.34 Q995.93 1537.34 997.967 1538.47 Q1000.03 1539.58 1001.37 1541.9 M986.856 1550.95 Q986.856 1555.65 988.778 1558.33 Q990.722 1560.99 994.102 1560.99 Q997.481 1560.99 999.426 1558.33 Q1001.37 1555.65 1001.37 1550.95 Q1001.37 1546.25 999.426 1543.59 Q997.481 1540.9 994.102 1540.9 Q990.722 1540.9 988.778 1543.59 Q986.856 1546.25 986.856 1550.95 Z" fill="#000000" fill-rule="nonzero" fill-opacity="1" /><path clip-path="url(#clip750)" d="M1030.93 1538.73 L1030.93 1542.75 Q1029.12 1541.83 1027.18 1541.36 Q1025.24 1540.9 1023.15 1540.9 Q1019.98 1540.9 1018.38 1541.87 Q1016.81 1542.85 1016.81 1544.79 Q1016.81 1546.27 1017.94 1547.13 Q1019.08 1547.96 1022.5 1548.73 L1023.96 1549.05 Q1028.5 1550.02 1030.4 1551.8 Q1032.32 1553.56 1032.32 1556.74 Q1032.32 1560.35 1029.45 1562.45 Q1026.6 1564.56 1021.6 1564.56 Q1019.52 1564.56 1017.25 1564.14 Q1015 1563.75 1012.5 1562.94 L1012.5 1558.54 Q1014.87 1559.77 1017.16 1560.39 Q1019.45 1560.99 1021.69 1560.99 Q1024.7 1560.99 1026.32 1559.98 Q1027.94 1558.93 1027.94 1557.06 Q1027.94 1555.32 1026.76 1554.4 Q1025.61 1553.47 1021.65 1552.61 L1020.17 1552.27 Q1016.21 1551.43 1014.45 1549.72 Q1012.69 1547.99 1012.69 1544.98 Q1012.69 1541.32 1015.28 1539.33 Q1017.87 1537.34 1022.64 1537.34 Q1025 1537.34 1027.09 1537.68 Q1029.17 1538.03 1030.93 1538.73 Z" fill="#000000" fill-rule="nonzero" fill-opacity="1" /><path clip-path="url(#clip750)" d="M2500.77 1559.95 L2508.41 1559.95 L2508.41 1533.59 L2500.1 1535.25 L2500.1 1530.99 L2508.37 1529.33 L2513.04 1529.33 L2513.04 1559.95 L2520.68 1559.95 L2520.68 1563.89 L2500.77 1563.89 L2500.77 1559.95 Z" fill="#000000" fill-rule="nonzero" fill-opacity="1" /><path clip-path="url(#clip750)" d="M2548.81 1530.6 L2548.81 1537.96 L2557.58 1537.96 L2557.58 1541.27 L2548.81 1541.27 L2548.81 1555.35 Q2548.81 1558.52 2549.66 1559.42 Q2550.54 1560.32 2553.2 1560.32 L2557.58 1560.32 L2557.58 1563.89 L2553.2 1563.89 Q2548.27 1563.89 2546.4 1562.06 Q2544.52 1560.21 2544.52 1555.35 L2544.52 1541.27 L2541.4 1541.27 L2541.4 1537.96 L2544.52 1537.96 L2544.52 1530.6 L2548.81 1530.6 Z" fill="#000000" fill-rule="nonzero" fill-opacity="1" /><path clip-path="url(#clip750)" d="M2584.73 1548.24 L2584.73 1563.89 L2580.47 1563.89 L2580.47 1548.38 Q2580.47 1544.7 2579.04 1542.87 Q2577.6 1541.04 2574.73 1541.04 Q2571.28 1541.04 2569.29 1543.24 Q2567.3 1545.44 2567.3 1549.24 L2567.3 1563.89 L2563.02 1563.89 L2563.02 1527.87 L2567.3 1527.87 L2567.3 1541.99 Q2568.83 1539.65 2570.89 1538.49 Q2572.97 1537.34 2575.68 1537.34 Q2580.15 1537.34 2582.44 1540.11 Q2584.73 1542.87 2584.73 1548.24 Z" fill="#000000" fill-rule="nonzero" fill-opacity="1" /><path clip-path="url(#clip750)" d="M2608.25 1541.94 Q2607.53 1541.53 2606.68 1541.34 Q2605.84 1541.13 2604.82 1541.13 Q2601.21 1541.13 2599.27 1543.49 Q2597.35 1545.83 2597.35 1550.23 L2597.35 1563.89 L2593.07 1563.89 L2593.07 1537.96 L2597.35 1537.96 L2597.35 1541.99 Q2598.69 1539.63 2600.84 1538.49 Q2603 1537.34 2606.07 1537.34 Q2606.51 1537.34 2607.05 1537.41 Q2607.58 1537.45 2608.23 1537.57 L2608.25 1541.94 Z" fill="#000000" fill-rule="nonzero" fill-opacity="1" /><path clip-path="url(#clip750)" d="M2633.85 1549.86 L2633.85 1551.94 L2614.27 1551.94 Q2614.55 1556.34 2616.91 1558.66 Q2619.29 1560.95 2623.53 1560.95 Q2625.98 1560.95 2628.27 1560.35 Q2630.59 1559.74 2632.86 1558.54 L2632.86 1562.57 Q2630.57 1563.54 2628.16 1564.05 Q2625.75 1564.56 2623.27 1564.56 Q2617.07 1564.56 2613.44 1560.95 Q2609.82 1557.34 2609.82 1551.18 Q2609.82 1544.81 2613.25 1541.09 Q2616.7 1537.34 2622.53 1537.34 Q2627.76 1537.34 2630.8 1540.72 Q2633.85 1544.07 2633.85 1549.86 M2629.59 1548.61 Q2629.55 1545.11 2627.63 1543.03 Q2625.73 1540.95 2622.58 1540.95 Q2619.01 1540.95 2616.86 1542.96 Q2614.73 1544.98 2614.41 1548.63 L2629.59 1548.61 Z" fill="#000000" fill-rule="nonzero" fill-opacity="1" /><path clip-path="url(#clip750)" d="M2652.63 1550.86 Q2647.46 1550.86 2645.47 1552.04 Q2643.48 1553.22 2643.48 1556.06 Q2643.48 1558.33 2644.96 1559.67 Q2646.47 1560.99 2649.04 1560.99 Q2652.58 1560.99 2654.71 1558.49 Q2656.86 1555.97 2656.86 1551.8 L2656.86 1550.86 L2652.63 1550.86 M2661.12 1549.1 L2661.12 1563.89 L2656.86 1563.89 L2656.86 1559.95 Q2655.4 1562.31 2653.23 1563.45 Q2651.05 1564.56 2647.9 1564.56 Q2643.92 1564.56 2641.56 1562.34 Q2639.22 1560.09 2639.22 1556.34 Q2639.22 1551.97 2642.14 1549.74 Q2645.08 1547.52 2650.89 1547.52 L2656.86 1547.52 L2656.86 1547.11 Q2656.86 1544.17 2654.92 1542.57 Q2653 1540.95 2649.5 1540.95 Q2647.28 1540.95 2645.17 1541.48 Q2643.06 1542.01 2641.12 1543.08 L2641.12 1539.14 Q2643.46 1538.24 2645.66 1537.8 Q2647.86 1537.34 2649.94 1537.34 Q2655.56 1537.34 2658.34 1540.25 Q2661.12 1543.17 2661.12 1549.1 Z" fill="#000000" fill-rule="nonzero" fill-opacity="1" /><path clip-path="url(#clip750)" d="M2686.95 1541.9 L2686.95 1527.87 L2691.21 1527.87 L2691.21 1563.89 L2686.95 1563.89 L2686.95 1560 Q2685.61 1562.31 2683.55 1563.45 Q2681.51 1564.56 2678.64 1564.56 Q2673.94 1564.56 2670.98 1560.81 Q2668.04 1557.06 2668.04 1550.95 Q2668.04 1544.84 2670.98 1541.09 Q2673.94 1537.34 2678.64 1537.34 Q2681.51 1537.34 2683.55 1538.47 Q2685.61 1539.58 2686.95 1541.9 M2672.44 1550.95 Q2672.44 1555.65 2674.36 1558.33 Q2676.31 1560.99 2679.69 1560.99 Q2683.06 1560.99 2685.01 1558.33 Q2686.95 1555.65 2686.95 1550.95 Q2686.95 1546.25 2685.01 1543.59 Q2683.06 1540.9 2679.69 1540.9 Q2676.31 1540.9 2674.36 1543.59 Q2672.44 1546.25 2672.44 1550.95 Z" fill="#000000" fill-rule="nonzero" fill-opacity="1" /><polyline clip-path="url(#clip750)" style="stroke:#000000; stroke-linecap:round; stroke-linejoin:round; stroke-width:4; stroke-opacity:1; fill:none" points="364.874,1495.09 364.874,47.2441 "/>
<polyline clip-path="url(#clip750)" style="stroke:#000000; stroke-linecap:round; stroke-linejoin:round; stroke-width:4; stroke-opacity:1; fill:none" points="364.874,1150.83 383.772,1150.83 "/>
<polyline clip-path="url(#clip750)" style="stroke:#000000; stroke-linecap:round; stroke-linejoin:round; stroke-width:4; stroke-opacity:1; fill:none" points="364.874,786.979 383.772,786.979 "/>
<polyline clip-path="url(#clip750)" style="stroke:#000000; stroke-linecap:round; stroke-linejoin:round; stroke-width:4; stroke-opacity:1; fill:none" points="364.874,423.124 383.772,423.124 "/>
<polyline clip-path="url(#clip750)" style="stroke:#000000; stroke-linecap:round; stroke-linejoin:round; stroke-width:4; stroke-opacity:1; fill:none" points="364.874,59.2684 383.772,59.2684 "/>
<path clip-path="url(#clip750)" d="M110.811 1155.42 Q107.663 1155.42 105.811 1157.57 Q103.982 1159.72 103.982 1163.47 Q103.982 1167.2 105.811 1169.38 Q107.663 1171.53 110.811 1171.53 Q113.959 1171.53 115.787 1169.38 Q117.639 1167.2 117.639 1163.47 Q117.639 1159.72 115.787 1157.57 Q113.959 1155.42 110.811 1155.42 M120.093 1140.77 L120.093 1145.03 Q118.334 1144.19 116.528 1143.75 Q114.746 1143.31 112.987 1143.31 Q108.357 1143.31 105.903 1146.44 Q103.473 1149.56 103.126 1155.88 Q104.491 1153.87 106.551 1152.8 Q108.612 1151.72 111.088 1151.72 Q116.297 1151.72 119.306 1154.89 Q122.338 1158.03 122.338 1163.47 Q122.338 1168.8 119.19 1172.02 Q116.042 1175.23 110.811 1175.23 Q104.815 1175.23 101.644 1170.65 Q98.4727 1166.04 98.4727 1157.32 Q98.4727 1149.12 102.362 1144.26 Q106.25 1139.38 112.801 1139.38 Q114.561 1139.38 116.343 1139.72 Q118.149 1140.07 120.093 1140.77 Z" fill="#000000" fill-rule="nonzero" fill-opacity="1" /><path clip-path="url(#clip750)" d="M130.394 1168.68 L135.278 1168.68 L135.278 1174.56 L130.394 1174.56 L130.394 1168.68 Z" fill="#000000" fill-rule="nonzero" fill-opacity="1" /><path clip-path="url(#clip750)" d="M155.463 1143.08 Q151.852 1143.08 150.023 1146.65 Q148.218 1150.19 148.218 1157.32 Q148.218 1164.42 150.023 1167.99 Q151.852 1171.53 155.463 1171.53 Q159.097 1171.53 160.903 1167.99 Q162.732 1164.42 162.732 1157.32 Q162.732 1150.19 160.903 1146.65 Q159.097 1143.08 155.463 1143.08 M155.463 1139.38 Q161.273 1139.38 164.329 1143.98 Q167.408 1148.57 167.408 1157.32 Q167.408 1166.04 164.329 1170.65 Q161.273 1175.23 155.463 1175.23 Q149.653 1175.23 146.574 1170.65 Q143.519 1166.04 143.519 1157.32 Q143.519 1148.57 146.574 1143.98 Q149.653 1139.38 155.463 1139.38 Z" fill="#000000" fill-rule="nonzero" fill-opacity="1" /><path clip-path="url(#clip750)" d="M185.625 1143.08 Q182.014 1143.08 180.185 1146.65 Q178.38 1150.19 178.38 1157.32 Q178.38 1164.42 180.185 1167.99 Q182.014 1171.53 185.625 1171.53 Q189.259 1171.53 191.065 1167.99 Q192.894 1164.42 192.894 1157.32 Q192.894 1150.19 191.065 1146.65 Q189.259 1143.08 185.625 1143.08 M185.625 1139.38 Q191.435 1139.38 194.491 1143.98 Q197.569 1148.57 197.569 1157.32 Q197.569 1166.04 194.491 1170.65 Q191.435 1175.23 185.625 1175.23 Q179.815 1175.23 176.736 1170.65 Q173.681 1166.04 173.681 1157.32 Q173.681 1148.57 176.736 1143.98 Q179.815 1139.38 185.625 1139.38 Z" fill="#000000" fill-rule="nonzero" fill-opacity="1" /><path clip-path="url(#clip750)" d="M233.958 1149.1 L223.379 1159.72 L233.958 1170.3 L231.204 1173.1 L220.579 1162.48 L209.954 1173.1 L207.222 1170.3 L217.778 1159.72 L207.222 1149.1 L209.954 1146.3 L220.579 1156.92 L231.204 1146.3 L233.958 1149.1 Z" fill="#000000" fill-rule="nonzero" fill-opacity="1" /><path clip-path="url(#clip750)" d="M246.319 1170.63 L253.958 1170.63 L253.958 1144.26 L245.648 1145.93 L245.648 1141.67 L253.912 1140 L258.588 1140 L258.588 1170.63 L266.226 1170.63 L266.226 1174.56 L246.319 1174.56 L246.319 1170.63 Z" fill="#000000" fill-rule="nonzero" fill-opacity="1" /><path clip-path="url(#clip750)" d="M285.671 1143.08 Q282.06 1143.08 280.231 1146.65 Q278.425 1150.19 278.425 1157.32 Q278.425 1164.42 280.231 1167.99 Q282.06 1171.53 285.671 1171.53 Q289.305 1171.53 291.111 1167.99 Q292.939 1164.42 292.939 1157.32 Q292.939 1150.19 291.111 1146.65 Q289.305 1143.08 285.671 1143.08 M285.671 1139.38 Q291.481 1139.38 294.537 1143.98 Q297.615 1148.57 297.615 1157.32 Q297.615 1166.04 294.537 1170.65 Q291.481 1175.23 285.671 1175.23 Q279.861 1175.23 276.782 1170.65 Q273.726 1166.04 273.726 1157.32 Q273.726 1148.57 276.782 1143.98 Q279.861 1139.38 285.671 1139.38 Z" fill="#000000" fill-rule="nonzero" fill-opacity="1" /><path clip-path="url(#clip750)" d="M307.245 1133.82 Q304.536 1133.82 302.975 1135.27 Q301.433 1136.71 301.433 1139.25 Q301.433 1141.79 302.975 1143.24 Q304.536 1144.69 307.245 1144.69 Q309.953 1144.69 311.514 1143.24 Q313.075 1141.77 313.075 1139.25 Q313.075 1136.71 311.514 1135.27 Q309.972 1133.82 307.245 1133.82 M303.446 1132.2 Q301.001 1131.6 299.628 1129.92 Q298.273 1128.25 298.273 1125.84 Q298.273 1122.48 300.662 1120.52 Q303.069 1118.56 307.245 1118.56 Q311.439 1118.56 313.827 1120.52 Q316.216 1122.48 316.216 1125.84 Q316.216 1128.25 314.843 1129.92 Q313.489 1131.6 311.063 1132.2 Q313.809 1132.84 315.332 1134.7 Q316.874 1136.56 316.874 1139.25 Q316.874 1143.33 314.373 1145.52 Q311.89 1147.7 307.245 1147.7 Q302.599 1147.7 300.098 1145.52 Q297.615 1143.33 297.615 1139.25 Q297.615 1136.56 299.157 1134.7 Q300.7 1132.84 303.446 1132.2 M302.054 1126.2 Q302.054 1128.38 303.408 1129.6 Q304.781 1130.83 307.245 1130.83 Q309.69 1130.83 311.063 1129.6 Q312.455 1128.38 312.455 1126.2 Q312.455 1124.02 311.063 1122.8 Q309.69 1121.57 307.245 1121.57 Q304.781 1121.57 303.408 1122.8 Q302.054 1124.02 302.054 1126.2 Z" fill="#000000" fill-rule="nonzero" fill-opacity="1" /><path clip-path="url(#clip750)" d="M110.232 794.295 Q106.899 794.295 104.977 796.077 Q103.079 797.86 103.079 800.985 Q103.079 804.11 104.977 805.892 Q106.899 807.674 110.232 807.674 Q113.565 807.674 115.487 805.892 Q117.408 804.087 117.408 800.985 Q117.408 797.86 115.487 796.077 Q113.588 794.295 110.232 794.295 M105.556 792.304 Q102.547 791.563 100.857 789.503 Q99.1903 787.443 99.1903 784.48 Q99.1903 780.337 102.13 777.929 Q105.093 775.522 110.232 775.522 Q115.394 775.522 118.334 777.929 Q121.274 780.337 121.274 784.48 Q121.274 787.443 119.584 789.503 Q117.917 791.563 114.931 792.304 Q118.311 793.091 120.186 795.383 Q122.084 797.675 122.084 800.985 Q122.084 806.008 119.005 808.693 Q115.95 811.378 110.232 811.378 Q104.514 811.378 101.436 808.693 Q98.3802 806.008 98.3802 800.985 Q98.3802 797.675 100.278 795.383 Q102.176 793.091 105.556 792.304 M103.843 784.92 Q103.843 787.605 105.51 789.11 Q107.2 790.614 110.232 790.614 Q113.241 790.614 114.931 789.11 Q116.644 787.605 116.644 784.92 Q116.644 782.235 114.931 780.73 Q113.241 779.226 110.232 779.226 Q107.2 779.226 105.51 780.73 Q103.843 782.235 103.843 784.92 Z" fill="#000000" fill-rule="nonzero" fill-opacity="1" /><path clip-path="url(#clip750)" d="M130.394 804.827 L135.278 804.827 L135.278 810.707 L130.394 810.707 L130.394 804.827 Z" fill="#000000" fill-rule="nonzero" fill-opacity="1" /><path clip-path="url(#clip750)" d="M155.463 779.226 Q151.852 779.226 150.023 782.79 Q148.218 786.332 148.218 793.462 Q148.218 800.568 150.023 804.133 Q151.852 807.674 155.463 807.674 Q159.097 807.674 160.903 804.133 Q162.732 800.568 162.732 793.462 Q162.732 786.332 160.903 782.79 Q159.097 779.226 155.463 779.226 M155.463 775.522 Q161.273 775.522 164.329 780.128 Q167.408 784.712 167.408 793.462 Q167.408 802.188 164.329 806.795 Q161.273 811.378 155.463 811.378 Q149.653 811.378 146.574 806.795 Q143.519 802.188 143.519 793.462 Q143.519 784.712 146.574 780.128 Q149.653 775.522 155.463 775.522 Z" fill="#000000" fill-rule="nonzero" fill-opacity="1" /><path clip-path="url(#clip750)" d="M185.625 779.226 Q182.014 779.226 180.185 782.79 Q178.38 786.332 178.38 793.462 Q178.38 800.568 180.185 804.133 Q182.014 807.674 185.625 807.674 Q189.259 807.674 191.065 804.133 Q192.894 800.568 192.894 793.462 Q192.894 786.332 191.065 782.79 Q189.259 779.226 185.625 779.226 M185.625 775.522 Q191.435 775.522 194.491 780.128 Q197.569 784.712 197.569 793.462 Q197.569 802.188 194.491 806.795 Q191.435 811.378 185.625 811.378 Q179.815 811.378 176.736 806.795 Q173.681 802.188 173.681 793.462 Q173.681 784.712 176.736 780.128 Q179.815 775.522 185.625 775.522 Z" fill="#000000" fill-rule="nonzero" fill-opacity="1" /><path clip-path="url(#clip750)" d="M233.958 785.244 L223.379 795.869 L233.958 806.448 L231.204 809.249 L220.579 798.624 L209.954 809.249 L207.222 806.448 L217.778 795.869 L207.222 785.244 L209.954 782.443 L220.579 793.068 L231.204 782.443 L233.958 785.244 Z" fill="#000000" fill-rule="nonzero" fill-opacity="1" /><path clip-path="url(#clip750)" d="M246.319 806.772 L253.958 806.772 L253.958 780.406 L245.648 782.073 L245.648 777.814 L253.912 776.147 L258.588 776.147 L258.588 806.772 L266.226 806.772 L266.226 810.707 L246.319 810.707 L246.319 806.772 Z" fill="#000000" fill-rule="nonzero" fill-opacity="1" /><path clip-path="url(#clip750)" d="M285.671 779.226 Q282.06 779.226 280.231 782.79 Q278.425 786.332 278.425 793.462 Q278.425 800.568 280.231 804.133 Q282.06 807.674 285.671 807.674 Q289.305 807.674 291.111 804.133 Q292.939 800.568 292.939 793.462 Q292.939 786.332 291.111 782.79 Q289.305 779.226 285.671 779.226 M285.671 775.522 Q291.481 775.522 294.537 780.128 Q297.615 784.712 297.615 793.462 Q297.615 802.188 294.537 806.795 Q291.481 811.378 285.671 811.378 Q279.861 811.378 276.782 806.795 Q273.726 802.188 273.726 793.462 Q273.726 784.712 276.782 780.128 Q279.861 775.522 285.671 775.522 Z" fill="#000000" fill-rule="nonzero" fill-opacity="1" /><path clip-path="url(#clip750)" d="M307.245 769.962 Q304.536 769.962 302.975 771.41 Q301.433 772.858 301.433 775.397 Q301.433 777.936 302.975 779.384 Q304.536 780.833 307.245 780.833 Q309.953 780.833 311.514 779.384 Q313.075 777.917 313.075 775.397 Q313.075 772.858 311.514 771.41 Q309.972 769.962 307.245 769.962 M303.446 768.344 Q301.001 767.742 299.628 766.069 Q298.273 764.395 298.273 761.987 Q298.273 758.621 300.662 756.665 Q303.069 754.709 307.245 754.709 Q311.439 754.709 313.827 756.665 Q316.216 758.621 316.216 761.987 Q316.216 764.395 314.843 766.069 Q313.489 767.742 311.063 768.344 Q313.809 768.984 315.332 770.846 Q316.874 772.708 316.874 775.397 Q316.874 779.478 314.373 781.66 Q311.89 783.842 307.245 783.842 Q302.599 783.842 300.098 781.66 Q297.615 779.478 297.615 775.397 Q297.615 772.708 299.157 770.846 Q300.7 768.984 303.446 768.344 M302.054 762.345 Q302.054 764.526 303.408 765.749 Q304.781 766.971 307.245 766.971 Q309.69 766.971 311.063 765.749 Q312.455 764.526 312.455 762.345 Q312.455 760.163 311.063 758.94 Q309.69 757.718 307.245 757.718 Q304.781 757.718 303.408 758.94 Q302.054 760.163 302.054 762.345 Z" fill="#000000" fill-rule="nonzero" fill-opacity="1" /><path clip-path="url(#clip750)" d="M100.929 442.916 L108.568 442.916 L108.568 416.551 L100.258 418.217 L100.258 413.958 L108.522 412.291 L113.198 412.291 L113.198 442.916 L120.837 442.916 L120.837 446.851 L100.929 446.851 L100.929 442.916 Z" fill="#000000" fill-rule="nonzero" fill-opacity="1" /><path clip-path="url(#clip750)" d="M130.281 440.972 L135.165 440.972 L135.165 446.851 L130.281 446.851 L130.281 440.972 Z" fill="#000000" fill-rule="nonzero" fill-opacity="1" /><path clip-path="url(#clip750)" d="M155.35 415.37 Q151.739 415.37 149.911 418.935 Q148.105 422.477 148.105 429.606 Q148.105 436.713 149.911 440.277 Q151.739 443.819 155.35 443.819 Q158.985 443.819 160.79 440.277 Q162.619 436.713 162.619 429.606 Q162.619 422.477 160.79 418.935 Q158.985 415.37 155.35 415.37 M155.35 411.666 Q161.16 411.666 164.216 416.273 Q167.295 420.856 167.295 429.606 Q167.295 438.333 164.216 442.939 Q161.16 447.523 155.35 447.523 Q149.54 447.523 146.461 442.939 Q143.406 438.333 143.406 429.606 Q143.406 420.856 146.461 416.273 Q149.54 411.666 155.35 411.666 Z" fill="#000000" fill-rule="nonzero" fill-opacity="1" /><path clip-path="url(#clip750)" d="M185.512 415.37 Q181.901 415.37 180.072 418.935 Q178.267 422.477 178.267 429.606 Q178.267 436.713 180.072 440.277 Q181.901 443.819 185.512 443.819 Q189.146 443.819 190.952 440.277 Q192.781 436.713 192.781 429.606 Q192.781 422.477 190.952 418.935 Q189.146 415.37 185.512 415.37 M185.512 411.666 Q191.322 411.666 194.378 416.273 Q197.457 420.856 197.457 429.606 Q197.457 438.333 194.378 442.939 Q191.322 447.523 185.512 447.523 Q179.702 447.523 176.623 442.939 Q173.568 438.333 173.568 429.606 Q173.568 420.856 176.623 416.273 Q179.702 411.666 185.512 411.666 Z" fill="#000000" fill-rule="nonzero" fill-opacity="1" /><path clip-path="url(#clip750)" d="M233.845 421.389 L223.267 432.014 L233.845 442.592 L231.091 445.393 L220.466 434.768 L209.841 445.393 L207.109 442.592 L217.665 432.014 L207.109 421.389 L209.841 418.588 L220.466 429.213 L231.091 418.588 L233.845 421.389 Z" fill="#000000" fill-rule="nonzero" fill-opacity="1" /><path clip-path="url(#clip750)" d="M246.206 442.916 L253.845 442.916 L253.845 416.551 L245.535 418.217 L245.535 413.958 L253.799 412.291 L258.475 412.291 L258.475 442.916 L266.114 442.916 L266.114 446.851 L246.206 446.851 L246.206 442.916 Z" fill="#000000" fill-rule="nonzero" fill-opacity="1" /><path clip-path="url(#clip750)" d="M285.558 415.37 Q281.947 415.37 280.118 418.935 Q278.313 422.477 278.313 429.606 Q278.313 436.713 280.118 440.277 Q281.947 443.819 285.558 443.819 Q289.192 443.819 290.998 440.277 Q292.826 436.713 292.826 429.606 Q292.826 422.477 290.998 418.935 Q289.192 415.37 285.558 415.37 M285.558 411.666 Q291.368 411.666 294.424 416.273 Q297.502 420.856 297.502 429.606 Q297.502 438.333 294.424 442.939 Q291.368 447.523 285.558 447.523 Q279.748 447.523 276.669 442.939 Q273.614 438.333 273.614 429.606 Q273.614 420.856 276.669 416.273 Q279.748 411.666 285.558 411.666 Z" fill="#000000" fill-rule="nonzero" fill-opacity="1" /><path clip-path="url(#clip750)" d="M299.308 418.858 L299.308 415.397 Q300.737 416.074 302.204 416.432 Q303.671 416.789 305.082 416.789 Q308.843 416.789 310.818 414.269 Q312.812 411.73 313.094 406.577 Q312.003 408.194 310.329 409.059 Q308.655 409.924 306.624 409.924 Q302.411 409.924 299.947 407.385 Q297.502 404.827 297.502 400.408 Q297.502 396.082 300.06 393.468 Q302.618 390.853 306.869 390.853 Q311.74 390.853 314.298 394.596 Q316.874 398.32 316.874 405.429 Q316.874 412.068 313.715 416.037 Q310.574 419.986 305.251 419.986 Q303.822 419.986 302.355 419.704 Q300.888 419.422 299.308 418.858 M306.869 406.953 Q309.426 406.953 310.912 405.204 Q312.417 403.454 312.417 400.408 Q312.417 397.38 310.912 395.63 Q309.426 393.862 306.869 393.862 Q304.311 393.862 302.806 395.63 Q301.32 397.38 301.32 400.408 Q301.32 403.454 302.806 405.204 Q304.311 406.953 306.869 406.953 Z" fill="#000000" fill-rule="nonzero" fill-opacity="1" /><path clip-path="url(#clip750)" d="M100.929 79.0609 L108.568 79.0609 L108.568 52.6953 L100.258 54.3619 L100.258 50.1027 L108.522 48.436 L113.198 48.436 L113.198 79.0609 L120.837 79.0609 L120.837 82.996 L100.929 82.996 L100.929 79.0609 Z" fill="#000000" fill-rule="nonzero" fill-opacity="1" /><path clip-path="url(#clip750)" d="M130.281 77.1164 L135.165 77.1164 L135.165 82.996 L130.281 82.996 L130.281 77.1164 Z" fill="#000000" fill-rule="nonzero" fill-opacity="1" /><path clip-path="url(#clip750)" d="M149.378 79.0609 L165.698 79.0609 L165.698 82.996 L143.753 82.996 L143.753 79.0609 Q146.415 76.3063 150.999 71.6767 Q155.605 67.0239 156.786 65.6813 Q159.031 63.1582 159.91 61.4221 Q160.813 59.6628 160.813 57.973 Q160.813 55.2184 158.869 53.4823 Q156.948 51.7462 153.846 51.7462 Q151.647 51.7462 149.193 52.5101 Q146.762 53.274 143.985 54.8249 L143.985 50.1027 Q146.809 48.9684 149.262 48.3897 Q151.716 47.811 153.753 47.811 Q159.123 47.811 162.318 50.4962 Q165.512 53.1814 165.512 57.6721 Q165.512 59.8017 164.702 61.723 Q163.915 63.6211 161.809 66.2137 Q161.23 66.885 158.128 70.1026 Q155.026 73.297 149.378 79.0609 Z" fill="#000000" fill-rule="nonzero" fill-opacity="1" /><path clip-path="url(#clip750)" d="M185.512 51.5147 Q181.901 51.5147 180.072 55.0795 Q178.267 58.6212 178.267 65.7508 Q178.267 72.8572 180.072 76.422 Q181.901 79.9636 185.512 79.9636 Q189.146 79.9636 190.952 76.422 Q192.781 72.8572 192.781 65.7508 Q192.781 58.6212 190.952 55.0795 Q189.146 51.5147 185.512 51.5147 M185.512 47.811 Q191.322 47.811 194.378 52.4175 Q197.457 57.0008 197.457 65.7508 Q197.457 74.4776 194.378 79.084 Q191.322 83.6673 185.512 83.6673 Q179.702 83.6673 176.623 79.084 Q173.568 74.4776 173.568 65.7508 Q173.568 57.0008 176.623 52.4175 Q179.702 47.811 185.512 47.811 Z" fill="#000000" fill-rule="nonzero" fill-opacity="1" /><path clip-path="url(#clip750)" d="M233.845 57.5332 L223.267 68.1582 L233.845 78.7368 L231.091 81.5377 L220.466 70.9128 L209.841 81.5377 L207.109 78.7368 L217.665 68.1582 L207.109 57.5332 L209.841 54.7323 L220.466 65.3572 L231.091 54.7323 L233.845 57.5332 Z" fill="#000000" fill-rule="nonzero" fill-opacity="1" /><path clip-path="url(#clip750)" d="M246.206 79.0609 L253.845 79.0609 L253.845 52.6953 L245.535 54.3619 L245.535 50.1027 L253.799 48.436 L258.475 48.436 L258.475 79.0609 L266.114 79.0609 L266.114 82.996 L246.206 82.996 L246.206 79.0609 Z" fill="#000000" fill-rule="nonzero" fill-opacity="1" /><path clip-path="url(#clip750)" d="M285.558 51.5147 Q281.947 51.5147 280.118 55.0795 Q278.313 58.6212 278.313 65.7508 Q278.313 72.8572 280.118 76.422 Q281.947 79.9636 285.558 79.9636 Q289.192 79.9636 290.998 76.422 Q292.826 72.8572 292.826 65.7508 Q292.826 58.6212 290.998 55.0795 Q289.192 51.5147 285.558 51.5147 M285.558 47.811 Q291.368 47.811 294.424 52.4175 Q297.502 57.0008 297.502 65.7508 Q297.502 74.4776 294.424 79.084 Q291.368 83.6673 285.558 83.6673 Q279.748 83.6673 276.669 79.084 Q273.614 74.4776 273.614 65.7508 Q273.614 57.0008 276.669 52.4175 Q279.748 47.811 285.558 47.811 Z" fill="#000000" fill-rule="nonzero" fill-opacity="1" /><path clip-path="url(#clip750)" d="M299.308 55.0026 L299.308 51.542 Q300.737 52.219 302.204 52.5764 Q303.671 52.9337 305.082 52.9337 Q308.843 52.9337 310.818 50.4135 Q312.812 47.8744 313.094 42.7211 Q312.003 44.3386 310.329 45.2037 Q308.655 46.0689 306.624 46.0689 Q302.411 46.0689 299.947 43.5299 Q297.502 40.972 297.502 36.5522 Q297.502 32.2264 300.06 29.6121 Q302.618 26.9978 306.869 26.9978 Q311.74 26.9978 314.298 30.7406 Q316.874 34.4645 316.874 41.5738 Q316.874 48.213 313.715 52.1814 Q310.574 56.1311 305.251 56.1311 Q303.822 56.1311 302.355 55.8489 Q300.888 55.5668 299.308 55.0026 M306.869 43.0973 Q309.426 43.0973 310.912 41.3482 Q312.417 39.599 312.417 36.5522 Q312.417 33.5241 310.912 31.775 Q309.426 30.0071 306.869 30.0071 Q304.311 30.0071 302.806 31.775 Q301.32 33.5241 301.32 36.5522 Q301.32 39.599 302.806 41.3482 Q304.311 43.0973 306.869 43.0973 Z" fill="#000000" fill-rule="nonzero" fill-opacity="1" /><path clip-path="url(#clip750)" d="M-9.64527 840.632 L0.4762 840.632 L0.4762 828.569 L5.02768 828.569 L5.02768 840.632 L24.3794 840.632 Q28.7399 840.632 29.9813 839.454 Q31.2226 838.245 31.2226 834.584 L31.2226 828.569 L36.1242 828.569 L36.1242 834.584 Q36.1242 841.364 33.6097 843.942 Q31.0634 846.52 24.3794 846.52 L5.02768 846.52 L5.02768 850.817 L0.4762 850.817 L0.4762 846.52 L-9.64527 846.52 L-9.64527 840.632 Z" fill="#000000" fill-rule="nonzero" fill-opacity="1" /><path clip-path="url(#clip750)" d="M-11.3958 789.738 L-11.3958 784.327 L42.1716 800.878 L42.1716 806.289 L-11.3958 789.738 Z" fill="#000000" fill-rule="nonzero" fill-opacity="1" /><path clip-path="url(#clip750)" d="M14.6081 727.831 L36.1242 727.831 L36.1242 733.688 L14.799 733.688 Q9.7383 733.688 7.22385 735.661 Q4.7094 737.635 4.7094 741.581 Q4.7094 746.324 7.73311 749.061 Q10.7568 751.798 15.9767 751.798 L36.1242 751.798 L36.1242 757.687 L0.4762 757.687 L0.4762 751.798 L6.01437 751.798 Q2.79968 749.698 1.20826 746.865 Q-0.38317 744 -0.38317 740.276 Q-0.38317 734.133 3.43625 730.982 Q7.22385 727.831 14.6081 727.831 Z" fill="#000000" fill-rule="nonzero" fill-opacity="1" /><path clip-path="url(#clip750)" d="M1.52654 693.425 L7.06471 693.425 Q5.79157 695.907 5.15499 698.581 Q4.51842 701.255 4.51842 704.119 Q4.51842 708.48 5.85522 710.676 Q7.19202 712.84 9.86562 712.84 Q11.9026 712.84 13.0803 711.281 Q14.2261 709.721 15.2765 705.01 L15.7221 703.005 Q17.0589 696.767 19.5097 694.157 Q21.9286 691.515 26.2891 691.515 Q31.2544 691.515 34.1508 695.462 Q37.0472 699.377 37.0472 706.252 Q37.0472 709.116 36.4743 712.235 Q35.9332 715.323 34.8192 718.76 L28.7718 718.76 Q30.4587 715.514 31.318 712.363 Q32.1456 709.212 32.1456 706.124 Q32.1456 701.987 30.7451 699.759 Q29.3129 697.531 26.7347 697.531 Q24.3476 697.531 23.0745 699.154 Q21.8013 700.745 20.6237 706.188 L20.1462 708.225 Q19.0004 713.668 16.6451 716.087 Q14.258 718.506 10.1202 718.506 Q5.09134 718.506 2.35408 714.941 Q-0.38317 711.376 -0.38317 704.819 Q-0.38317 701.573 0.0942579 698.708 Q0.571686 695.844 1.52654 693.425 Z" fill="#000000" fill-rule="nonzero" fill-opacity="1" /><path clip-path="url(#clip751)" d="M1331.66 1454.11 L1347.21 1451.86 L1358.8 1449.62 L1366.57 1447.37 L1370.88 1445.12 L1372.33 1442.87 L1371.69 1440.63 L1369.81 1438.38 L1367.58 1436.13 L1365.83 1433.88 L1365.24 1431.64 L1366.26 1429.39 L1369.09 1427.14 L1373.63 1424.9 L1379.48 1422.65 L1385.98 1420.4 L1392.26 1418.15 L1397.33 1415.91 L1400.17 1413.66 L1399.81 1411.41 L1395.44 1409.16 L1386.5 1406.92 L1372.68 1404.67 L1353.99 1402.42 L1330.75 1400.17 L1303.53 1397.93 L1273.14 1395.68 L1240.51 1393.43 L1206.66 1391.18 L1172.6 1388.94 L1139.28 1386.69 L1107.51 1384.44 L1077.94 1382.2 L1051.06 1379.95 L1027.16 1377.7 L1006.34 1375.45 L988.588 1373.21 L973.747 1370.96 L961.582 1368.71 L951.8 1366.46 L944.08 1364.22 L938.101 1361.97 L933.554 1359.72 L930.158 1357.47 L927.667 1355.23 L925.872 1352.98 L924.6 1350.73 L923.716 1348.48 L923.111 1346.24 L922.704 1343.99 L922.435 1341.74 L922.26 1339.5 L922.149 1337.25 L922.079 1335 L922.036 1332.75 L922.009 1330.51 L921.994 1328.26 L921.984 1326.01 L921.979 1323.76 L921.976 1321.52 L921.974 1319.27 L921.974 1317.02 L921.973 1314.77 L921.973 1312.53 L921.973 1310.28 L921.973 1308.03 L921.973 1305.78 L921.972 1303.54 L921.972 1301.29 L921.972 1299.04 L921.972 1296.8 L921.972 1294.55 L921.972 1292.3 L921.972 1290.05 L921.972 1287.81 L921.972 1285.56 L921.972 1283.31 L921.972 1281.06 L921.972 1278.82 L921.972 1276.57 L921.972 1274.32 L921.972 1272.07 L921.972 1269.83 L921.972 1267.58 L921.972 1265.33 L921.972 1263.09 L921.972 1260.84 L921.972 1258.59 L921.972 1256.34 L921.972 1254.1 L921.972 1251.85 L921.973 1249.6 L921.973 1247.35 L921.973 1245.11 L921.973 1242.86 L921.973 1240.61 L921.973 1238.36 L921.974 1236.12 L921.976 1233.87 L921.978 1231.62 L921.983 1229.37 L921.991 1227.13 L922.003 1224.88 L922.025 1222.63 L922.059 1220.39 L922.114 1218.14 L922.2 1215.89 L922.333 1213.64 L922.535 1211.4 L922.835 1209.15 L923.273 1206.9 L923.904 1204.65 L924.796 1202.41 L926.035 1200.16 L927.724 1197.91 L929.988 1195.66 L932.966 1193.42 L936.812 1191.17 L941.687 1188.92 L947.75 1186.67 L955.145 1184.43 L963.988 1182.18 L974.348 1179.93 L986.232 1177.69 L999.567 1175.44 L1014.19 1173.19 L1029.84 1170.94 L1046.15 1168.7 L1062.67 1166.45 L1078.87 1164.2 L1094.17 1161.95 L1107.98 1159.71 L1119.73 1157.46 L1128.9 1155.21 L1135.08 1152.96 L1137.97 1150.72 L705.972 1150.72 L708.868 1152.96 L715.045 1155.21 L724.215 1157.46 L735.962 1159.71 L749.774 1161.95 L765.077 1164.2 L781.277 1166.45 L797.797 1168.7 L814.108 1170.94 L829.755 1173.19 L844.378 1175.44 L857.713 1177.69 L869.596 1179.93 L879.957 1182.18 L888.8 1184.43 L896.195 1186.67 L902.258 1188.92 L907.133 1191.17 L910.979 1193.42 L913.957 1195.66 L916.221 1197.91 L917.91 1200.16 L919.149 1202.41 L920.041 1204.65 L920.672 1206.9 L921.11 1209.15 L921.41 1211.4 L921.612 1213.64 L921.744 1215.89 L921.831 1218.14 L921.886 1220.39 L921.92 1222.63 L921.941 1224.88 L921.954 1227.13 L921.962 1229.37 L921.967 1231.62 L921.969 1233.87 L921.971 1236.12 L921.972 1238.36 L921.972 1240.61 L921.972 1242.86 L921.972 1245.11 L921.972 1247.35 L921.972 1249.6 L921.972 1251.85 L921.972 1254.1 L921.972 1256.34 L921.972 1258.59 L921.972 1260.84 L921.972 1263.09 L921.972 1265.33 L921.972 1267.58 L921.972 1269.83 L921.972 1272.07 L921.972 1274.32 L921.972 1276.57 L921.972 1278.82 L921.972 1281.06 L921.972 1283.31 L921.972 1285.56 L921.972 1287.81 L921.972 1290.05 L921.972 1292.3 L921.972 1294.55 L921.972 1296.8 L921.972 1299.04 L921.972 1301.29 L921.972 1303.54 L921.972 1305.78 L921.972 1308.03 L921.972 1310.28 L921.972 1312.53 L921.972 1314.77 L921.971 1317.02 L921.97 1319.27 L921.969 1321.52 L921.966 1323.76 L921.96 1326.01 L921.951 1328.26 L921.936 1330.51 L921.909 1332.75 L921.866 1335 L921.796 1337.25 L921.685 1339.5 L921.51 1341.74 L921.241 1343.99 L920.834 1346.24 L920.229 1348.48 L919.345 1350.73 L918.073 1352.98 L916.278 1355.23 L913.787 1357.47 L910.391 1359.72 L905.844 1361.97 L899.865 1364.22 L892.145 1366.46 L882.363 1368.71 L870.198 1370.96 L855.357 1373.21 L837.604 1375.45 L816.788 1377.7 L792.881 1379.95 L766 1382.2 L736.438 1384.44 L704.669 1386.69 L671.347 1388.94 L637.29 1391.18 L603.439 1393.43 L570.808 1395.68 L540.412 1397.93 L513.194 1400.17 L489.952 1402.42 L471.266 1404.67 L457.446 1406.92 L448.502 1409.16 L444.138 1411.41 L443.777 1413.66 L446.612 1415.91 L451.682 1418.15 L457.963 1420.4 L464.462 1422.65 L470.313 1424.9 L474.854 1427.14 L477.686 1429.39 L478.708 1431.64 L478.112 1433.88 L476.362 1436.13 L474.134 1438.38 L472.255 1440.63 L471.61 1442.87 L473.063 1445.12 L477.376 1447.37 L485.14 1449.62 L496.732 1451.86 L512.283 1454.11 L1331.66 1454.11  Z" fill="#009af9" fill-rule="evenodd" fill-opacity="1"/>
<polyline clip-path="url(#clip751)" style="stroke:#000000; stroke-linecap:round; stroke-linejoin:round; stroke-width:4; stroke-opacity:1; fill:none" points="1331.66,1454.11 1347.21,1451.86 1358.8,1449.62 1366.57,1447.37 1370.88,1445.12 1372.33,1442.87 1371.69,1440.63 1369.81,1438.38 1367.58,1436.13 1365.83,1433.88 1365.24,1431.64 1366.26,1429.39 1369.09,1427.14 1373.63,1424.9 1379.48,1422.65 1385.98,1420.4 1392.26,1418.15 1397.33,1415.91 1400.17,1413.66 1399.81,1411.41 1395.44,1409.16 1386.5,1406.92 1372.68,1404.67 1353.99,1402.42 1330.75,1400.17 1303.53,1397.93 1273.14,1395.68 1240.51,1393.43 1206.66,1391.18 1172.6,1388.94 1139.28,1386.69 1107.51,1384.44 1077.94,1382.2 1051.06,1379.95 1027.16,1377.7 1006.34,1375.45 988.588,1373.21 973.747,1370.96 961.582,1368.71 951.8,1366.46 944.08,1364.22 938.101,1361.97 933.554,1359.72 930.158,1357.47 927.667,1355.23 925.872,1352.98 924.6,1350.73 923.716,1348.48 923.111,1346.24 922.704,1343.99 922.435,1341.74 922.26,1339.5 922.149,1337.25 922.079,1335 922.036,1332.75 922.009,1330.51 921.994,1328.26 921.984,1326.01 921.979,1323.76 921.976,1321.52 921.974,1319.27 921.974,1317.02 921.973,1314.77 921.973,1312.53 921.973,1310.28 921.973,1308.03 921.973,1305.78 921.972,1303.54 921.972,1301.29 921.972,1299.04 921.972,1296.8 921.972,1294.55 921.972,1292.3 921.972,1290.05 921.972,1287.81 921.972,1285.56 921.972,1283.31 921.972,1281.06 921.972,1278.82 921.972,1276.57 921.972,1274.32 921.972,1272.07 921.972,1269.83 921.972,1267.58 921.972,1265.33 921.972,1263.09 921.972,1260.84 921.972,1258.59 921.972,1256.34 921.972,1254.1 921.972,1251.85 921.973,1249.6 921.973,1247.35 921.973,1245.11 921.973,1242.86 921.973,1240.61 921.973,1238.36 921.974,1236.12 921.976,1233.87 921.978,1231.62 921.983,1229.37 921.991,1227.13 922.003,1224.88 922.025,1222.63 922.059,1220.39 922.114,1218.14 922.2,1215.89 922.333,1213.64 922.535,1211.4 922.835,1209.15 923.273,1206.9 923.904,1204.65 924.796,1202.41 926.035,1200.16 927.724,1197.91 929.988,1195.66 932.966,1193.42 936.812,1191.17 941.687,1188.92 947.75,1186.67 955.145,1184.43 963.988,1182.18 974.348,1179.93 986.232,1177.69 999.567,1175.44 1014.19,1173.19 1029.84,1170.94 1046.15,1168.7 1062.67,1166.45 1078.87,1164.2 1094.17,1161.95 1107.98,1159.71 1119.73,1157.46 1128.9,1155.21 1135.08,1152.96 1137.97,1150.72 705.972,1150.72 708.868,1152.96 715.045,1155.21 724.215,1157.46 735.962,1159.71 749.774,1161.95 765.077,1164.2 781.277,1166.45 797.797,1168.7 814.108,1170.94 829.755,1173.19 844.378,1175.44 857.713,1177.69 869.596,1179.93 879.957,1182.18 888.8,1184.43 896.195,1186.67 902.258,1188.92 907.133,1191.17 910.979,1193.42 913.957,1195.66 916.221,1197.91 917.91,1200.16 919.149,1202.41 920.041,1204.65 920.672,1206.9 921.11,1209.15 921.41,1211.4 921.612,1213.64 921.744,1215.89 921.831,1218.14 921.886,1220.39 921.92,1222.63 921.941,1224.88 921.954,1227.13 921.962,1229.37 921.967,1231.62 921.969,1233.87 921.971,1236.12 921.972,1238.36 921.972,1240.61 921.972,1242.86 921.972,1245.11 921.972,1247.35 921.972,1249.6 921.972,1251.85 921.972,1254.1 921.972,1256.34 921.972,1258.59 921.972,1260.84 921.972,1263.09 921.972,1265.33 921.972,1267.58 921.972,1269.83 921.972,1272.07 921.972,1274.32 921.972,1276.57 921.972,1278.82 921.972,1281.06 921.972,1283.31 921.972,1285.56 921.972,1287.81 921.972,1290.05 921.972,1292.3 921.972,1294.55 921.972,1296.8 921.972,1299.04 921.972,1301.29 921.972,1303.54 921.972,1305.78 921.972,1308.03 921.972,1310.28 921.972,1312.53 921.972,1314.77 921.971,1317.02 921.97,1319.27 921.969,1321.52 921.966,1323.76 921.96,1326.01 921.951,1328.26 921.936,1330.51 921.909,1332.75 921.866,1335 921.796,1337.25 921.685,1339.5 921.51,1341.74 921.241,1343.99 920.834,1346.24 920.229,1348.48 919.345,1350.73 918.073,1352.98 916.278,1355.23 913.787,1357.47 910.391,1359.72 905.844,1361.97 899.865,1364.22 892.145,1366.46 882.363,1368.71 870.198,1370.96 855.357,1373.21 837.604,1375.45 816.788,1377.7 792.881,1379.95 766,1382.2 736.438,1384.44 704.669,1386.69 671.347,1388.94 637.29,1391.18 603.439,1393.43 570.808,1395.68 540.412,1397.93 513.194,1400.17 489.952,1402.42 471.266,1404.67 457.446,1406.92 448.502,1409.16 444.138,1411.41 443.777,1413.66 446.612,1415.91 451.682,1418.15 457.963,1420.4 464.462,1422.65 470.313,1424.9 474.854,1427.14 477.686,1429.39 478.708,1431.64 478.112,1433.88 476.362,1436.13 474.134,1438.38 472.255,1440.63 471.61,1442.87 473.063,1445.12 477.376,1447.37 485.14,1449.62 496.732,1451.86 512.283,1454.11 1331.66,1454.11 "/>
<path clip-path="url(#clip751)" d="M2872.73 281.886 L2879.96 279.303 L2886.95 276.721 L2893.72 274.139 L2900.3 271.557 L2906.72 268.975 L2913.02 266.392 L2919.23 263.81 L2925.4 261.228 L2931.55 258.646 L2937.72 256.064 L2943.92 253.481 L2950.19 250.899 L2956.53 248.317 L2962.95 245.735 L2969.46 243.153 L2976.04 240.57 L2982.69 237.988 L2989.37 235.406 L2996.06 232.824 L3002.73 230.242 L3009.34 227.659 L3015.84 225.077 L3022.19 222.495 L3028.35 219.913 L3034.26 217.331 L3039.87 214.749 L3045.16 212.166 L3050.07 209.584 L3054.57 207.002 L3058.64 204.42 L3062.24 201.838 L3065.36 199.255 L3067.99 196.673 L3070.12 194.091 L3071.76 191.509 L3072.92 188.927 L3073.61 186.344 L3073.85 183.762 L3073.67 181.18 L3073.09 178.598 L3072.15 176.016 L3070.88 173.433 L3069.31 170.851 L3067.48 168.269 L3065.41 165.687 L3063.15 163.105 L3060.72 160.522 L3058.14 157.94 L3055.43 155.358 L3052.62 152.776 L3049.71 150.194 L3046.72 147.611 L3043.64 145.029 L3040.48 142.447 L3037.23 139.865 L3033.88 137.283 L3030.41 134.7 L3026.8 132.118 L3023.04 129.536 L3019.09 126.954 L3014.93 124.372 L3010.54 121.789 L3005.88 119.207 L3000.93 116.625 L2995.65 114.043 L2990.02 111.461 L2984.02 108.878 L2977.61 106.296 L2970.79 103.714 L2963.53 101.132 L2955.82 98.5496 L2947.67 95.9674 L2939.06 93.3852 L2930.01 90.803 L2920.52 88.2208 L2270.8 88.2208 L2261.31 90.803 L2252.26 93.3852 L2243.65 95.9674 L2235.49 98.5496 L2227.79 101.132 L2220.53 103.714 L2213.7 106.296 L2207.3 108.878 L2201.29 111.461 L2195.66 114.043 L2190.38 116.625 L2185.43 119.207 L2180.77 121.789 L2176.38 124.372 L2172.23 126.954 L2168.28 129.536 L2164.52 132.118 L2160.91 134.7 L2157.44 137.283 L2154.08 139.865 L2150.83 142.447 L2147.67 145.029 L2144.6 147.611 L2141.6 150.194 L2138.7 152.776 L2135.88 155.358 L2133.18 157.94 L2130.6 160.522 L2128.16 163.105 L2125.9 165.687 L2123.84 168.269 L2122 170.851 L2120.44 173.433 L2119.16 176.016 L2118.22 178.598 L2117.64 181.18 L2117.46 183.762 L2117.7 186.344 L2118.39 188.927 L2119.55 191.509 L2121.19 194.091 L2123.33 196.673 L2125.96 199.255 L2129.08 201.838 L2132.68 204.42 L2136.74 207.002 L2141.25 209.584 L2146.16 212.166 L2151.44 214.749 L2157.06 217.331 L2162.97 219.913 L2169.12 222.495 L2175.47 225.077 L2181.97 227.659 L2188.58 230.242 L2195.25 232.824 L2201.94 235.406 L2208.63 237.988 L2215.27 240.57 L2221.85 243.153 L2228.36 245.735 L2234.79 248.317 L2241.13 250.899 L2247.39 253.481 L2253.6 256.064 L2259.77 258.646 L2265.92 261.228 L2272.08 263.81 L2278.3 266.392 L2284.6 268.975 L2291.02 271.557 L2297.6 274.139 L2304.37 276.721 L2311.35 279.303 L2318.59 281.886 L2872.73 281.886  Z" fill="#e26f46" fill-rule="evenodd" fill-opacity="1"/>
<polyline clip-path="url(#clip751)" style="stroke:#000000; stroke-linecap:round; stroke-linejoin:round; stroke-width:4; stroke-opacity:1; fill:none" points="2872.73,281.886 2879.96,279.303 2886.95,276.721 2893.72,274.139 2900.3,271.557 2906.72,268.975 2913.02,266.392 2919.23,263.81 2925.4,261.228 2931.55,258.646 2937.72,256.064 2943.92,253.481 2950.19,250.899 2956.53,248.317 2962.95,245.735 2969.46,243.153 2976.04,240.57 2982.69,237.988 2989.37,235.406 2996.06,232.824 3002.73,230.242 3009.34,227.659 3015.84,225.077 3022.19,222.495 3028.35,219.913 3034.26,217.331 3039.87,214.749 3045.16,212.166 3050.07,209.584 3054.57,207.002 3058.64,204.42 3062.24,201.838 3065.36,199.255 3067.99,196.673 3070.12,194.091 3071.76,191.509 3072.92,188.927 3073.61,186.344 3073.85,183.762 3073.67,181.18 3073.09,178.598 3072.15,176.016 3070.88,173.433 3069.31,170.851 3067.48,168.269 3065.41,165.687 3063.15,163.105 3060.72,160.522 3058.14,157.94 3055.43,155.358 3052.62,152.776 3049.71,150.194 3046.72,147.611 3043.64,145.029 3040.48,142.447 3037.23,139.865 3033.88,137.283 3030.41,134.7 3026.8,132.118 3023.04,129.536 3019.09,126.954 3014.93,124.372 3010.54,121.789 3005.88,119.207 3000.93,116.625 2995.65,114.043 2990.02,111.461 2984.02,108.878 2977.61,106.296 2970.79,103.714 2963.53,101.132 2955.82,98.5496 2947.67,95.9674 2939.06,93.3852 2930.01,90.803 2920.52,88.2208 2270.8,88.2208 2261.31,90.803 2252.26,93.3852 2243.65,95.9674 2235.49,98.5496 2227.79,101.132 2220.53,103.714 2213.7,106.296 2207.3,108.878 2201.29,111.461 2195.66,114.043 2190.38,116.625 2185.43,119.207 2180.77,121.789 2176.38,124.372 2172.23,126.954 2168.28,129.536 2164.52,132.118 2160.91,134.7 2157.44,137.283 2154.08,139.865 2150.83,142.447 2147.67,145.029 2144.6,147.611 2141.6,150.194 2138.7,152.776 2135.88,155.358 2133.18,157.94 2130.6,160.522 2128.16,163.105 2125.9,165.687 2123.84,168.269 2122,170.851 2120.44,173.433 2119.16,176.016 2118.22,178.598 2117.64,181.18 2117.46,183.762 2117.7,186.344 2118.39,188.927 2119.55,191.509 2121.19,194.091 2123.33,196.673 2125.96,199.255 2129.08,201.838 2132.68,204.42 2136.74,207.002 2141.25,209.584 2146.16,212.166 2151.44,214.749 2157.06,217.331 2162.97,219.913 2169.12,222.495 2175.47,225.077 2181.97,227.659 2188.58,230.242 2195.25,232.824 2201.94,235.406 2208.63,237.988 2215.27,240.57 2221.85,243.153 2228.36,245.735 2234.79,248.317 2241.13,250.899 2247.39,253.481 2253.6,256.064 2259.77,258.646 2265.92,261.228 2272.08,263.81 2278.3,266.392 2284.6,268.975 2291.02,271.557 2297.6,274.139 2304.37,276.721 2311.35,279.303 2318.59,281.886 2872.73,281.886 "/>
</svg>
