<?xml version="1.0" encoding="utf-8"?>
<svg xmlns="http://www.w3.org/2000/svg" xmlns:xlink="http://www.w3.org/1999/xlink" width="800" height="400" viewBox="0 0 3200 1600">
<defs>
  <clipPath id="clip840">
    <rect x="0" y="0" width="3200" height="1600"/>
  </clipPath>
</defs>
<path clip-path="url(#clip840)" d="M0 1600 L3200 1600 L3200 0 L0 0  Z" fill="#ffffff" fill-rule="evenodd" fill-opacity="1"/>
<defs>
  <clipPath id="clip841">
    <rect x="335" y="171" width="2755" height="1201"/>
  </clipPath>
</defs>
<path clip-path="url(#clip840)" d="M335.988 1371.5 L3089.76 1371.5 L3089.76 171.344 L335.988 171.344  Z" fill="#ffffff" fill-rule="evenodd" fill-opacity="1"/>
<polyline clip-path="url(#clip841)" style="stroke:#000000; stroke-linecap:round; stroke-linejoin:round; stroke-width:2; stroke-opacity:0.1; fill:none" points="885.755,1371.5 885.755,171.344 "/>
<polyline clip-path="url(#clip841)" style="stroke:#000000; stroke-linecap:round; stroke-linejoin:round; stroke-width:2; stroke-opacity:0.1; fill:none" points="2112.25,1371.5 2112.25,171.344 "/>
<polyline clip-path="url(#clip841)" style="stroke:#000000; stroke-linecap:round; stroke-linejoin:round; stroke-width:2; stroke-opacity:0.1; fill:none" points="335.988,1363.46 3089.76,1363.46 "/>
<polyline clip-path="url(#clip841)" style="stroke:#000000; stroke-linecap:round; stroke-linejoin:round; stroke-width:2; stroke-opacity:0.1; fill:none" points="335.988,624.118 3089.76,624.118 "/>
<polyline clip-path="url(#clip840)" style="stroke:#000000; stroke-linecap:round; stroke-linejoin:round; stroke-width:4; stroke-opacity:1; fill:none" points="335.988,1371.5 3089.76,1371.5 "/>
<polyline clip-path="url(#clip840)" style="stroke:#000000; stroke-linecap:round; stroke-linejoin:round; stroke-width:4; stroke-opacity:1; fill:none" points="885.755,1371.5 885.755,1352.6 "/>
<polyline clip-path="url(#clip840)" style="stroke:#000000; stroke-linecap:round; stroke-linejoin:round; stroke-width:4; stroke-opacity:1; fill:none" points="2112.25,1371.5 2112.25,1352.6 "/>
<path clip-path="url(#clip840)" d="M836.021 1452.02 L843.66 1452.02 L843.66 1425.65 L835.35 1427.32 L835.35 1423.06 L843.613 1421.4 L848.289 1421.4 L848.289 1452.02 L855.928 1452.02 L855.928 1455.96 L836.021 1455.96 L836.021 1452.02 Z" fill="#000000" fill-rule="nonzero" fill-opacity="1" /><path clip-path="url(#clip840)" d="M875.372 1424.47 Q871.761 1424.47 869.933 1428.04 Q868.127 1431.58 868.127 1438.71 Q868.127 1445.82 869.933 1449.38 Q871.761 1452.92 875.372 1452.92 Q879.007 1452.92 880.812 1449.38 Q882.641 1445.82 882.641 1438.71 Q882.641 1431.58 880.812 1428.04 Q879.007 1424.47 875.372 1424.47 M875.372 1420.77 Q881.183 1420.77 884.238 1425.38 Q887.317 1429.96 887.317 1438.71 Q887.317 1447.44 884.238 1452.04 Q881.183 1456.63 875.372 1456.63 Q869.562 1456.63 866.484 1452.04 Q863.428 1447.44 863.428 1438.71 Q863.428 1429.96 866.484 1425.38 Q869.562 1420.77 875.372 1420.77 Z" fill="#000000" fill-rule="nonzero" fill-opacity="1" /><path clip-path="url(#clip840)" d="M887.317 1414.87 L911.428 1414.87 L911.428 1418.07 L887.317 1418.07 L887.317 1414.87 Z" fill="#000000" fill-rule="nonzero" fill-opacity="1" /><path clip-path="url(#clip840)" d="M922.901 1425.35 L936.161 1425.35 L936.161 1428.54 L918.331 1428.54 L918.331 1425.35 Q920.494 1423.11 924.218 1419.35 Q927.96 1415.57 928.92 1414.48 Q930.744 1412.43 931.459 1411.02 Q932.192 1409.59 932.192 1408.21 Q932.192 1405.98 930.612 1404.57 Q929.051 1403.15 926.531 1403.15 Q924.744 1403.15 922.751 1403.78 Q920.776 1404.4 918.519 1405.66 L918.519 1401.82 Q920.813 1400.9 922.807 1400.43 Q924.801 1399.96 926.456 1399.96 Q930.819 1399.96 933.415 1402.14 Q936.01 1404.32 936.01 1407.97 Q936.01 1409.7 935.352 1411.26 Q934.712 1412.8 933.001 1414.91 Q932.531 1415.45 930.01 1418.07 Q927.49 1420.66 922.901 1425.35 Z" fill="#000000" fill-rule="nonzero" fill-opacity="1" /><path clip-path="url(#clip840)" d="M2062.36 1452.02 L2070 1452.02 L2070 1425.65 L2061.69 1427.32 L2061.69 1423.06 L2069.95 1421.4 L2074.63 1421.4 L2074.63 1452.02 L2082.27 1452.02 L2082.27 1455.96 L2062.36 1455.96 L2062.36 1452.02 Z" fill="#000000" fill-rule="nonzero" fill-opacity="1" /><path clip-path="url(#clip840)" d="M2101.71 1424.47 Q2098.1 1424.47 2096.27 1428.04 Q2094.47 1431.58 2094.47 1438.71 Q2094.47 1445.82 2096.27 1449.38 Q2098.1 1452.92 2101.71 1452.92 Q2105.35 1452.92 2107.15 1449.38 Q2108.98 1445.82 2108.98 1438.71 Q2108.98 1431.58 2107.15 1428.04 Q2105.35 1424.47 2101.71 1424.47 M2101.71 1420.77 Q2107.52 1420.77 2110.58 1425.38 Q2113.66 1429.96 2113.66 1438.71 Q2113.66 1447.44 2110.58 1452.04 Q2107.52 1456.63 2101.71 1456.63 Q2095.9 1456.63 2092.82 1452.04 Q2089.77 1447.44 2089.77 1438.71 Q2089.77 1429.96 2092.82 1425.38 Q2095.9 1420.77 2101.71 1420.77 Z" fill="#000000" fill-rule="nonzero" fill-opacity="1" /><path clip-path="url(#clip840)" d="M2113.66 1414.87 L2137.77 1414.87 L2137.77 1418.07 L2113.66 1418.07 L2113.66 1414.87 Z" fill="#000000" fill-rule="nonzero" fill-opacity="1" /><path clip-path="url(#clip840)" d="M2146.63 1425.35 L2152.83 1425.35 L2152.83 1403.93 L2146.08 1405.28 L2146.08 1401.82 L2152.8 1400.46 L2156.6 1400.46 L2156.6 1425.35 L2162.8 1425.35 L2162.8 1428.54 L2146.63 1428.54 L2146.63 1425.35 Z" fill="#000000" fill-rule="nonzero" fill-opacity="1" /><path clip-path="url(#clip840)" d="M1603.21 1501.01 L1603.21 1511.14 L1615.27 1511.14 L1615.27 1515.69 L1603.21 1515.69 L1603.21 1535.04 Q1603.21 1539.4 1604.39 1540.64 Q1605.6 1541.88 1609.26 1541.88 L1615.27 1541.88 L1615.27 1546.78 L1609.26 1546.78 Q1602.48 1546.78 1599.9 1544.27 Q1597.32 1541.72 1597.32 1535.04 L1597.32 1515.69 L1593.03 1515.69 L1593.03 1511.14 L1597.32 1511.14 L1597.32 1501.01 L1603.21 1501.01 Z" fill="#000000" fill-rule="nonzero" fill-opacity="1" /><path clip-path="url(#clip840)" d="M1622.98 1511.14 L1628.83 1511.14 L1628.83 1546.78 L1622.98 1546.78 L1622.98 1511.14 M1622.98 1497.26 L1628.83 1497.26 L1628.83 1504.67 L1622.98 1504.67 L1622.98 1497.26 Z" fill="#000000" fill-rule="nonzero" fill-opacity="1" /><path clip-path="url(#clip840)" d="M1668.84 1517.98 Q1671.04 1514.03 1674.09 1512.15 Q1677.15 1510.28 1681.29 1510.28 Q1686.86 1510.28 1689.88 1514.19 Q1692.9 1518.07 1692.9 1525.27 L1692.9 1546.78 L1687.02 1546.78 L1687.02 1525.46 Q1687.02 1520.33 1685.2 1517.85 Q1683.39 1515.37 1679.66 1515.37 Q1675.11 1515.37 1672.47 1518.39 Q1669.83 1521.42 1669.83 1526.64 L1669.83 1546.78 L1663.94 1546.78 L1663.94 1525.46 Q1663.94 1520.3 1662.13 1517.85 Q1660.31 1515.37 1656.52 1515.37 Q1652.04 1515.37 1649.39 1518.42 Q1646.75 1521.45 1646.75 1526.64 L1646.75 1546.78 L1640.86 1546.78 L1640.86 1511.14 L1646.75 1511.14 L1646.75 1516.67 Q1648.76 1513.4 1651.56 1511.84 Q1654.36 1510.28 1658.21 1510.28 Q1662.09 1510.28 1664.8 1512.25 Q1667.54 1514.22 1668.84 1517.98 Z" fill="#000000" fill-rule="nonzero" fill-opacity="1" /><path clip-path="url(#clip840)" d="M1735.08 1527.5 L1735.08 1530.36 L1708.15 1530.36 Q1708.53 1536.41 1711.78 1539.59 Q1715.06 1542.74 1720.88 1542.74 Q1724.25 1542.74 1727.41 1541.91 Q1730.59 1541.09 1733.71 1539.43 L1733.71 1544.97 Q1730.56 1546.31 1727.25 1547.01 Q1723.94 1547.71 1720.53 1547.71 Q1712 1547.71 1707 1542.74 Q1702.04 1537.78 1702.04 1529.31 Q1702.04 1520.56 1706.75 1515.43 Q1711.49 1510.28 1719.51 1510.28 Q1726.71 1510.28 1730.87 1514.92 Q1735.08 1519.54 1735.08 1527.5 M1729.22 1525.78 Q1729.16 1520.97 1726.51 1518.11 Q1723.9 1515.24 1719.58 1515.24 Q1714.67 1515.24 1711.71 1518.01 Q1708.79 1520.78 1708.34 1525.81 L1729.22 1525.78 Z" fill="#000000" fill-rule="nonzero" fill-opacity="1" /><path clip-path="url(#clip840)" d="M1775.82 1499.26 L1781.23 1499.26 L1764.68 1552.83 L1759.27 1552.83 L1775.82 1499.26 Z" fill="#000000" fill-rule="nonzero" fill-opacity="1" /><path clip-path="url(#clip840)" d="M1830.82 1512.19 L1830.82 1517.72 Q1828.33 1516.45 1825.66 1515.81 Q1822.99 1515.18 1820.12 1515.18 Q1815.76 1515.18 1813.57 1516.52 Q1811.4 1517.85 1811.4 1520.53 Q1811.4 1522.56 1812.96 1523.74 Q1814.52 1524.89 1819.23 1525.94 L1821.24 1526.38 Q1827.47 1527.72 1830.08 1530.17 Q1832.73 1532.59 1832.73 1536.95 Q1832.73 1541.91 1828.78 1544.81 Q1824.86 1547.71 1817.99 1547.71 Q1815.12 1547.71 1812.01 1547.13 Q1808.92 1546.59 1805.48 1545.48 L1805.48 1539.43 Q1808.73 1541.12 1811.88 1541.98 Q1815.03 1542.81 1818.12 1542.81 Q1822.25 1542.81 1824.48 1541.41 Q1826.71 1539.97 1826.71 1537.39 Q1826.71 1535.01 1825.09 1533.73 Q1823.5 1532.46 1818.05 1531.28 L1816.02 1530.81 Q1810.57 1529.66 1808.15 1527.31 Q1805.74 1524.92 1805.74 1520.78 Q1805.74 1515.75 1809.3 1513.01 Q1812.87 1510.28 1819.42 1510.28 Q1822.67 1510.28 1825.53 1510.75 Q1828.4 1511.23 1830.82 1512.19 Z" fill="#000000" fill-rule="nonzero" fill-opacity="1" /><polyline clip-path="url(#clip840)" style="stroke:#000000; stroke-linecap:round; stroke-linejoin:round; stroke-width:4; stroke-opacity:1; fill:none" points="335.988,1371.5 335.988,171.344 "/>
<polyline clip-path="url(#clip840)" style="stroke:#000000; stroke-linecap:round; stroke-linejoin:round; stroke-width:4; stroke-opacity:1; fill:none" points="335.988,1363.46 354.885,1363.46 "/>
<polyline clip-path="url(#clip840)" style="stroke:#000000; stroke-linecap:round; stroke-linejoin:round; stroke-width:4; stroke-opacity:1; fill:none" points="335.988,624.118 354.885,624.118 "/>
<path clip-path="url(#clip840)" d="M162.044 1383.25 L169.682 1383.25 L169.682 1356.89 L161.372 1358.55 L161.372 1354.29 L169.636 1352.63 L174.312 1352.63 L174.312 1383.25 L181.951 1383.25 L181.951 1387.19 L162.044 1387.19 L162.044 1383.25 Z" fill="#000000" fill-rule="nonzero" fill-opacity="1" /><path clip-path="url(#clip840)" d="M201.395 1355.71 Q197.784 1355.71 195.955 1359.27 Q194.15 1362.81 194.15 1369.94 Q194.15 1377.05 195.955 1380.61 Q197.784 1384.16 201.395 1384.16 Q205.029 1384.16 206.835 1380.61 Q208.664 1377.05 208.664 1369.94 Q208.664 1362.81 206.835 1359.27 Q205.029 1355.71 201.395 1355.71 M201.395 1352 Q207.205 1352 210.261 1356.61 Q213.34 1361.19 213.34 1369.94 Q213.34 1378.67 210.261 1383.28 Q207.205 1387.86 201.395 1387.86 Q195.585 1387.86 192.506 1383.28 Q189.451 1378.67 189.451 1369.94 Q189.451 1361.19 192.506 1356.61 Q195.585 1352 201.395 1352 Z" fill="#000000" fill-rule="nonzero" fill-opacity="1" /><path clip-path="url(#clip840)" d="M213.34 1346.1 L237.451 1346.1 L237.451 1349.3 L213.34 1349.3 L213.34 1346.1 Z" fill="#000000" fill-rule="nonzero" fill-opacity="1" /><path clip-path="url(#clip840)" d="M246.31 1356.58 L252.516 1356.58 L252.516 1335.16 L245.764 1336.51 L245.764 1333.05 L252.479 1331.7 L256.278 1331.7 L256.278 1356.58 L262.484 1356.58 L262.484 1359.78 L246.31 1359.78 L246.31 1356.58 Z" fill="#000000" fill-rule="nonzero" fill-opacity="1" /><path clip-path="url(#clip840)" d="M278.283 1334.2 Q275.349 1334.2 273.863 1337.1 Q272.396 1339.97 272.396 1345.77 Q272.396 1351.54 273.863 1354.44 Q275.349 1357.31 278.283 1357.31 Q281.236 1357.31 282.703 1354.44 Q284.188 1351.54 284.188 1345.77 Q284.188 1339.97 282.703 1337.1 Q281.236 1334.2 278.283 1334.2 M278.283 1331.19 Q283.004 1331.19 285.486 1334.93 Q287.988 1338.66 287.988 1345.77 Q287.988 1352.86 285.486 1356.6 Q283.004 1360.32 278.283 1360.32 Q273.562 1360.32 271.061 1356.6 Q268.578 1352.86 268.578 1345.77 Q268.578 1338.66 271.061 1334.93 Q273.562 1331.19 278.283 1331.19 Z" fill="#000000" fill-rule="nonzero" fill-opacity="1" /><path clip-path="url(#clip840)" d="M187.359 643.911 L194.998 643.911 L194.998 617.545 L186.688 619.212 L186.688 614.952 L194.951 613.286 L199.627 613.286 L199.627 643.911 L207.266 643.911 L207.266 647.846 L187.359 647.846 L187.359 643.911 Z" fill="#000000" fill-rule="nonzero" fill-opacity="1" /><path clip-path="url(#clip840)" d="M226.71 616.364 Q223.099 616.364 221.271 619.929 Q219.465 623.471 219.465 630.601 Q219.465 637.707 221.271 641.272 Q223.099 644.813 226.71 644.813 Q230.345 644.813 232.15 641.272 Q233.979 637.707 233.979 630.601 Q233.979 623.471 232.15 619.929 Q230.345 616.364 226.71 616.364 M226.71 612.661 Q232.521 612.661 235.576 617.267 Q238.655 621.851 238.655 630.601 Q238.655 639.327 235.576 643.934 Q232.521 648.517 226.71 648.517 Q220.9 648.517 217.822 643.934 Q214.766 639.327 214.766 630.601 Q214.766 621.851 217.822 617.267 Q220.9 612.661 226.71 612.661 Z" fill="#000000" fill-rule="nonzero" fill-opacity="1" /><path clip-path="url(#clip840)" d="M238.655 606.762 L262.766 606.762 L262.766 609.959 L238.655 609.959 L238.655 606.762 Z" fill="#000000" fill-rule="nonzero" fill-opacity="1" /><path clip-path="url(#clip840)" d="M271.004 592.355 L285.919 592.355 L285.919 595.553 L274.484 595.553 L274.484 602.436 Q275.311 602.154 276.139 602.023 Q276.966 601.872 277.794 601.872 Q282.496 601.872 285.242 604.449 Q287.988 607.025 287.988 611.426 Q287.988 615.959 285.166 618.479 Q282.345 620.981 277.211 620.981 Q275.443 620.981 273.6 620.68 Q271.775 620.379 269.819 619.777 L269.819 615.959 Q271.512 616.881 273.318 617.332 Q275.123 617.783 277.136 617.783 Q280.389 617.783 282.289 616.072 Q284.188 614.36 284.188 611.426 Q284.188 608.492 282.289 606.781 Q280.389 605.069 277.136 605.069 Q275.612 605.069 274.089 605.408 Q272.584 605.747 271.004 606.461 L271.004 592.355 Z" fill="#000000" fill-rule="nonzero" fill-opacity="1" /><path clip-path="url(#clip840)" d="M51.5963 888.708 L51.5963 882.279 L93.7054 882.279 L93.7054 859.139 L99.1163 859.139 L99.1163 888.708 L51.5963 888.708 Z" fill="#000000" fill-rule="nonzero" fill-opacity="1" /><path clip-path="url(#clip840)" d="M95.4878 850.259 L95.4878 836.764 L99.1163 836.764 L99.1163 855.797 L95.6151 855.797 Q94.6285 854.715 92.8461 852.71 Q83.1384 841.761 80.1465 841.761 Q78.0458 841.761 76.7727 843.416 Q75.4677 845.071 75.4677 847.776 Q75.4677 849.432 76.0406 851.373 Q76.5817 853.315 77.6957 855.606 L73.7808 855.606 Q72.8896 853.155 72.444 851.055 Q71.9984 848.922 71.9984 847.108 Q71.9984 842.493 74.0991 839.724 Q76.1997 836.955 79.6372 836.955 Q84.0614 836.955 93.1007 847.49 Q94.6285 849.272 95.4878 850.259 Z" fill="#000000" fill-rule="nonzero" fill-opacity="1" /><path clip-path="url(#clip840)" d="M79.8282 775.303 L82.6928 775.303 L82.6928 802.23 Q88.7402 801.848 91.923 798.601 Q95.0741 795.323 95.0741 789.498 Q95.0741 786.125 94.2465 782.974 Q93.419 779.791 91.7639 776.671 L97.3021 776.671 Q98.6389 779.823 99.3391 783.133 Q100.039 786.443 100.039 789.849 Q100.039 798.379 95.0741 803.376 Q90.1088 808.341 81.6424 808.341 Q72.8896 808.341 67.7652 803.63 Q62.609 798.888 62.609 790.867 Q62.609 783.674 67.2559 779.504 Q71.8711 775.303 79.8282 775.303 M78.1095 781.159 Q73.3033 781.223 70.4388 783.865 Q67.5742 786.475 67.5742 790.803 Q67.5742 795.705 70.3433 798.665 Q73.1124 801.593 78.1413 802.039 L78.1095 781.159 Z" fill="#000000" fill-rule="nonzero" fill-opacity="1" /><path clip-path="url(#clip840)" d="M68.9428 745.034 Q68.3699 746.021 68.1153 747.198 Q67.8288 748.344 67.8288 749.745 Q67.8288 754.71 71.0753 757.383 Q74.29 760.025 80.3374 760.025 L99.1163 760.025 L99.1163 765.913 L63.4683 765.913 L63.4683 760.025 L69.0065 760.025 Q65.76 758.179 64.2004 755.219 Q62.609 752.259 62.609 748.026 Q62.609 747.421 62.7044 746.689 Q62.7681 745.957 62.9272 745.066 L68.9428 745.034 Z" fill="#000000" fill-rule="nonzero" fill-opacity="1" /><path clip-path="url(#clip840)" d="M68.9428 719.38 Q68.3699 720.367 68.1153 721.544 Q67.8288 722.69 67.8288 724.091 Q67.8288 729.056 71.0753 731.73 Q74.29 734.371 80.3374 734.371 L99.1163 734.371 L99.1163 740.26 L63.4683 740.26 L63.4683 734.371 L69.0065 734.371 Q65.76 732.525 64.2004 729.565 Q62.609 726.605 62.609 722.372 Q62.609 721.767 62.7044 721.035 Q62.7681 720.303 62.9272 719.412 L68.9428 719.38 Z" fill="#000000" fill-rule="nonzero" fill-opacity="1" /><path clip-path="url(#clip840)" d="M67.5742 700.856 Q67.5742 705.567 71.2663 708.304 Q74.9266 711.041 81.3241 711.041 Q87.7217 711.041 91.4138 708.336 Q95.0741 705.598 95.0741 700.856 Q95.0741 696.177 91.3819 693.44 Q87.6898 690.703 81.3241 690.703 Q74.9903 690.703 71.2981 693.44 Q67.5742 696.177 67.5742 700.856 M62.609 700.856 Q62.609 693.217 67.5742 688.857 Q72.5395 684.496 81.3241 684.496 Q90.077 684.496 95.0741 688.857 Q100.039 693.217 100.039 700.856 Q100.039 708.527 95.0741 712.887 Q90.077 717.216 81.3241 717.216 Q72.5395 717.216 67.5742 712.887 Q62.609 708.527 62.609 700.856 Z" fill="#000000" fill-rule="nonzero" fill-opacity="1" /><path clip-path="url(#clip840)" d="M68.9428 654.132 Q68.3699 655.118 68.1153 656.296 Q67.8288 657.442 67.8288 658.842 Q67.8288 663.808 71.0753 666.481 Q74.29 669.123 80.3374 669.123 L99.1163 669.123 L99.1163 675.011 L63.4683 675.011 L63.4683 669.123 L69.0065 669.123 Q65.76 667.277 64.2004 664.317 Q62.609 661.357 62.609 657.124 Q62.609 656.519 62.7044 655.787 Q62.7681 655.055 62.9272 654.163 L68.9428 654.132 Z" fill="#000000" fill-rule="nonzero" fill-opacity="1" /><path clip-path="url(#clip840)" d="M980.594 44.2197 Q983.227 45.1109 985.698 48.0275 Q988.209 50.9442 990.721 56.0483 L999.025 72.576 L990.235 72.576 L982.498 57.061 Q979.5 50.9847 976.664 48.9997 Q973.869 47.0148 969.008 47.0148 L960.096 47.0148 L960.096 72.576 L951.913 72.576 L951.913 12.096 L970.385 12.096 Q980.756 12.096 985.86 16.4305 Q990.964 20.7649 990.964 29.5149 Q990.964 35.2267 988.29 38.994 Q985.657 42.7613 980.594 44.2197 M960.096 18.8205 L960.096 40.2903 L970.385 40.2903 Q976.3 40.2903 979.297 37.5762 Q982.336 34.8216 982.336 29.5149 Q982.336 24.2082 979.297 21.5346 Q976.3 18.8205 970.385 18.8205 L960.096 18.8205 Z" fill="#000000" fill-rule="nonzero" fill-opacity="1" /><path clip-path="url(#clip840)" d="M1044.31 48.0275 L1044.31 51.6733 L1010.04 51.6733 Q1010.53 59.3701 1014.66 63.421 Q1018.83 67.4314 1026.25 67.4314 Q1030.54 67.4314 1034.55 66.3781 Q1038.6 65.3249 1042.57 63.2184 L1042.57 70.267 Q1038.56 71.9684 1034.35 72.8596 Q1030.14 73.7508 1025.8 73.7508 Q1014.95 73.7508 1008.59 67.4314 Q1002.27 61.1119 1002.27 50.3365 Q1002.27 39.1965 1008.26 32.6746 Q1014.3 26.1121 1024.51 26.1121 Q1033.66 26.1121 1038.97 32.0264 Q1044.31 37.9003 1044.31 48.0275 M1036.86 45.84 Q1036.78 39.7232 1033.42 36.0774 Q1030.1 32.4315 1024.59 32.4315 Q1018.35 32.4315 1014.58 35.9558 Q1010.85 39.4801 1010.29 45.8805 L1036.86 45.84 Z" fill="#000000" fill-rule="nonzero" fill-opacity="1" /><path clip-path="url(#clip840)" d="M1079.52 9.54393 L1079.52 15.7418 L1072.39 15.7418 Q1068.38 15.7418 1066.8 17.3622 Q1065.26 18.9825 1065.26 23.1955 L1065.26 27.2059 L1077.53 27.2059 L1077.53 32.9987 L1065.26 32.9987 L1065.26 72.576 L1057.76 72.576 L1057.76 32.9987 L1050.63 32.9987 L1050.63 27.2059 L1057.76 27.2059 L1057.76 24.0462 Q1057.76 16.471 1061.29 13.0277 Q1064.81 9.54393 1072.47 9.54393 L1079.52 9.54393 Z" fill="#000000" fill-rule="nonzero" fill-opacity="1" /><path clip-path="url(#clip840)" d="M1124.56 48.0275 L1124.56 51.6733 L1090.29 51.6733 Q1090.78 59.3701 1094.91 63.421 Q1099.08 67.4314 1106.5 67.4314 Q1110.79 67.4314 1114.8 66.3781 Q1118.85 65.3249 1122.82 63.2184 L1122.82 70.267 Q1118.81 71.9684 1114.6 72.8596 Q1110.38 73.7508 1106.05 73.7508 Q1095.19 73.7508 1088.83 67.4314 Q1082.51 61.1119 1082.51 50.3365 Q1082.51 39.1965 1088.51 32.6746 Q1094.55 26.1121 1104.75 26.1121 Q1113.91 26.1121 1119.22 32.0264 Q1124.56 37.9003 1124.56 48.0275 M1117.11 45.84 Q1117.03 39.7232 1113.67 36.0774 Q1110.34 32.4315 1104.83 32.4315 Q1098.6 32.4315 1094.83 35.9558 Q1091.1 39.4801 1090.54 45.8805 L1117.11 45.84 Z" fill="#000000" fill-rule="nonzero" fill-opacity="1" /><path clip-path="url(#clip840)" d="M1163.09 34.1734 Q1161.83 33.4443 1160.33 33.1202 Q1158.87 32.7556 1157.09 32.7556 Q1150.77 32.7556 1147.37 36.8875 Q1144.01 40.9789 1144.01 48.6757 L1144.01 72.576 L1136.51 72.576 L1136.51 27.2059 L1144.01 27.2059 L1144.01 34.2544 Q1146.36 30.1225 1150.12 28.1376 Q1153.89 26.1121 1159.28 26.1121 Q1160.05 26.1121 1160.98 26.2337 Q1161.91 26.3147 1163.05 26.5172 L1163.09 34.1734 Z" fill="#000000" fill-rule="nonzero" fill-opacity="1" /><path clip-path="url(#clip840)" d="M1207.89 48.0275 L1207.89 51.6733 L1173.62 51.6733 Q1174.11 59.3701 1178.24 63.421 Q1182.41 67.4314 1189.82 67.4314 Q1194.12 67.4314 1198.13 66.3781 Q1202.18 65.3249 1206.15 63.2184 L1206.15 70.267 Q1202.14 71.9684 1197.92 72.8596 Q1193.71 73.7508 1189.38 73.7508 Q1178.52 73.7508 1172.16 67.4314 Q1165.84 61.1119 1165.84 50.3365 Q1165.84 39.1965 1171.84 32.6746 Q1177.87 26.1121 1188.08 26.1121 Q1197.24 26.1121 1202.54 32.0264 Q1207.89 37.9003 1207.89 48.0275 M1200.44 45.84 Q1200.36 39.7232 1196.99 36.0774 Q1193.67 32.4315 1188.16 32.4315 Q1181.92 32.4315 1178.16 35.9558 Q1174.43 39.4801 1173.86 45.8805 L1200.44 45.84 Z" fill="#000000" fill-rule="nonzero" fill-opacity="1" /><path clip-path="url(#clip840)" d="M1257.84 45.1919 L1257.84 72.576 L1250.38 72.576 L1250.38 45.4349 Q1250.38 38.994 1247.87 35.7938 Q1245.36 32.5936 1240.34 32.5936 Q1234.3 32.5936 1230.82 36.4419 Q1227.33 40.2903 1227.33 46.9338 L1227.33 72.576 L1219.84 72.576 L1219.84 27.2059 L1227.33 27.2059 L1227.33 34.2544 Q1230.01 30.163 1233.61 28.1376 Q1237.26 26.1121 1242 26.1121 Q1249.82 26.1121 1253.83 30.9732 Q1257.84 35.7938 1257.84 45.1919 Z" fill="#000000" fill-rule="nonzero" fill-opacity="1" /><path clip-path="url(#clip840)" d="M1305.35 28.9478 L1305.35 35.9153 Q1302.2 34.1734 1298.99 33.3227 Q1295.84 32.4315 1292.59 32.4315 Q1285.34 32.4315 1281.33 37.0496 Q1277.32 41.6271 1277.32 49.9314 Q1277.32 58.2358 1281.33 62.8538 Q1285.34 67.4314 1292.59 67.4314 Q1295.84 67.4314 1298.99 66.5807 Q1302.2 65.6895 1305.35 63.9476 L1305.35 70.8341 Q1302.24 72.2924 1298.87 73.0216 Q1295.55 73.7508 1291.78 73.7508 Q1281.54 73.7508 1275.5 67.3098 Q1269.46 60.8689 1269.46 49.9314 Q1269.46 38.832 1275.54 32.472 Q1281.66 26.1121 1292.27 26.1121 Q1295.71 26.1121 1298.99 26.8413 Q1302.28 27.5299 1305.35 28.9478 Z" fill="#000000" fill-rule="nonzero" fill-opacity="1" /><path clip-path="url(#clip840)" d="M1357.13 48.0275 L1357.13 51.6733 L1322.85 51.6733 Q1323.34 59.3701 1327.47 63.421 Q1331.65 67.4314 1339.06 67.4314 Q1343.35 67.4314 1347.36 66.3781 Q1351.41 65.3249 1355.38 63.2184 L1355.38 70.267 Q1351.37 71.9684 1347.16 72.8596 Q1342.95 73.7508 1338.61 73.7508 Q1327.76 73.7508 1321.4 67.4314 Q1315.08 61.1119 1315.08 50.3365 Q1315.08 39.1965 1321.07 32.6746 Q1327.11 26.1121 1337.32 26.1121 Q1346.47 26.1121 1351.78 32.0264 Q1357.13 37.9003 1357.13 48.0275 M1349.67 45.84 Q1349.59 39.7232 1346.23 36.0774 Q1342.91 32.4315 1337.4 32.4315 Q1331.16 32.4315 1327.39 35.9558 Q1323.66 39.4801 1323.1 45.8805 L1349.67 45.84 Z" fill="#000000" fill-rule="nonzero" fill-opacity="1" /><path clip-path="url(#clip840)" d="M1371.26 62.2867 L1379.81 62.2867 L1379.81 72.576 L1371.26 72.576 L1371.26 62.2867 M1371.26 29.6769 L1379.81 29.6769 L1379.81 39.9662 L1371.26 39.9662 L1371.26 29.6769 Z" fill="#000000" fill-rule="nonzero" fill-opacity="1" /><path clip-path="url(#clip840)" d="M1452.69 44.2197 Q1455.32 45.1109 1457.79 48.0275 Q1460.3 50.9442 1462.81 56.0483 L1471.12 72.576 L1462.33 72.576 L1454.59 57.061 Q1451.59 50.9847 1448.76 48.9997 Q1445.96 47.0148 1441.1 47.0148 L1432.19 47.0148 L1432.19 72.576 L1424.01 72.576 L1424.01 12.096 L1442.48 12.096 Q1452.85 12.096 1457.95 16.4305 Q1463.06 20.7649 1463.06 29.5149 Q1463.06 35.2267 1460.38 38.994 Q1457.75 42.7613 1452.69 44.2197 M1432.19 18.8205 L1432.19 40.2903 L1442.48 40.2903 Q1448.39 40.2903 1451.39 37.5762 Q1454.43 34.8216 1454.43 29.5149 Q1454.43 24.2082 1451.39 21.5346 Q1448.39 18.8205 1442.48 18.8205 L1432.19 18.8205 Z" fill="#000000" fill-rule="nonzero" fill-opacity="1" /><path clip-path="url(#clip840)" d="M1495.18 32.4315 Q1489.18 32.4315 1485.7 37.1306 Q1482.22 41.7891 1482.22 49.9314 Q1482.22 58.0738 1485.66 62.7728 Q1489.14 67.4314 1495.18 67.4314 Q1501.13 67.4314 1504.62 62.7323 Q1508.1 58.0333 1508.1 49.9314 Q1508.1 41.8701 1504.62 37.1711 Q1501.13 32.4315 1495.18 32.4315 M1495.18 26.1121 Q1504.9 26.1121 1510.45 32.4315 Q1516 38.7509 1516 49.9314 Q1516 61.0714 1510.45 67.4314 Q1504.9 73.7508 1495.18 73.7508 Q1485.42 73.7508 1479.87 67.4314 Q1474.36 61.0714 1474.36 49.9314 Q1474.36 38.7509 1479.87 32.4315 Q1485.42 26.1121 1495.18 26.1121 Z" fill="#000000" fill-rule="nonzero" fill-opacity="1" /><path clip-path="url(#clip840)" d="M1558.21 34.0924 L1558.21 9.54393 L1565.67 9.54393 L1565.67 72.576 L1558.21 72.576 L1558.21 65.7705 Q1555.86 69.8214 1552.26 71.8063 Q1548.69 73.7508 1543.67 73.7508 Q1535.45 73.7508 1530.26 67.1883 Q1525.12 60.6258 1525.12 49.9314 Q1525.12 39.2371 1530.26 32.6746 Q1535.45 26.1121 1543.67 26.1121 Q1548.69 26.1121 1552.26 28.0971 Q1555.86 30.0415 1558.21 34.0924 M1532.81 49.9314 Q1532.81 58.1548 1536.18 62.8538 Q1539.58 67.5124 1545.49 67.5124 Q1551.41 67.5124 1554.81 62.8538 Q1558.21 58.1548 1558.21 49.9314 Q1558.21 41.7081 1554.81 37.0496 Q1551.41 32.3505 1545.49 32.3505 Q1539.58 32.3505 1536.18 37.0496 Q1532.81 41.7081 1532.81 49.9314 Z" fill="#000000" fill-rule="nonzero" fill-opacity="1" /><path clip-path="url(#clip840)" d="M1601.64 49.7694 Q1592.6 49.7694 1589.12 51.8354 Q1585.64 53.9013 1585.64 58.8839 Q1585.64 62.8538 1588.23 65.2034 Q1590.86 67.5124 1595.36 67.5124 Q1601.56 67.5124 1605.28 63.1374 Q1609.05 58.7219 1609.05 51.4303 L1609.05 49.7694 L1601.64 49.7694 M1616.5 46.6907 L1616.5 72.576 L1609.05 72.576 L1609.05 65.6895 Q1606.5 69.8214 1602.69 71.8063 Q1598.88 73.7508 1593.37 73.7508 Q1586.41 73.7508 1582.27 69.8619 Q1578.18 65.9325 1578.18 59.3701 Q1578.18 51.7138 1583.29 47.825 Q1588.43 43.9361 1598.6 43.9361 L1609.05 43.9361 L1609.05 43.2069 Q1609.05 38.0623 1605.65 35.2672 Q1602.29 32.4315 1596.17 32.4315 Q1592.28 32.4315 1588.59 33.3632 Q1584.91 34.295 1581.5 36.1584 L1581.5 29.2718 Q1585.6 27.692 1589.44 26.9223 Q1593.29 26.1121 1596.94 26.1121 Q1606.78 26.1121 1611.64 31.2163 Q1616.5 36.3204 1616.5 46.6907 Z" fill="#000000" fill-rule="nonzero" fill-opacity="1" /><path clip-path="url(#clip840)" d="M1660.78 28.5427 L1660.78 35.5912 Q1657.62 33.9709 1654.22 33.1607 Q1650.82 32.3505 1647.17 32.3505 Q1641.62 32.3505 1638.83 34.0519 Q1636.07 35.7533 1636.07 39.156 Q1636.07 41.7486 1638.06 43.2475 Q1640.04 44.7058 1646.04 46.0426 L1648.59 46.6097 Q1656.53 48.3111 1659.85 51.4303 Q1663.21 54.509 1663.21 60.0587 Q1663.21 66.3781 1658.19 70.0644 Q1653.21 73.7508 1644.46 73.7508 Q1640.81 73.7508 1636.84 73.0216 Q1632.91 72.3329 1628.54 70.9151 L1628.54 63.2184 Q1632.67 65.3654 1636.68 66.4591 Q1640.69 67.5124 1644.62 67.5124 Q1649.88 67.5124 1652.72 65.73 Q1655.56 63.9071 1655.56 60.6258 Q1655.56 57.5877 1653.49 55.9673 Q1651.46 54.3469 1644.54 52.8481 L1641.94 52.2405 Q1635.02 50.7821 1631.94 47.7845 Q1628.86 44.7463 1628.86 39.4801 Q1628.86 33.0797 1633.4 29.5959 Q1637.93 26.1121 1646.28 26.1121 Q1650.41 26.1121 1654.06 26.7198 Q1657.7 27.3274 1660.78 28.5427 Z" fill="#000000" fill-rule="nonzero" fill-opacity="1" /><path clip-path="url(#clip840)" d="M1676.22 12.096 L1708.34 12.096 L1708.34 18.9825 L1683.71 18.9825 L1683.71 33.8088 Q1685.49 33.2012 1687.27 32.9176 Q1689.06 32.5936 1690.84 32.5936 Q1700.97 32.5936 1706.88 38.1433 Q1712.79 43.6931 1712.79 53.1722 Q1712.79 62.9348 1706.72 68.3631 Q1700.64 73.7508 1689.58 73.7508 Q1685.78 73.7508 1681.81 73.1026 Q1677.88 72.4545 1673.66 71.1582 L1673.66 62.9348 Q1677.31 64.9198 1681.2 65.892 Q1685.09 66.8642 1689.42 66.8642 Q1696.43 66.8642 1700.52 63.1779 Q1704.61 59.4916 1704.61 53.1722 Q1704.61 46.8528 1700.52 43.1664 Q1696.43 39.4801 1689.42 39.4801 Q1686.14 39.4801 1682.86 40.2093 Q1679.62 40.9384 1676.22 42.4778 L1676.22 12.096 Z" fill="#000000" fill-rule="nonzero" fill-opacity="1" /><path clip-path="url(#clip840)" d="M1736.37 18.8205 L1736.37 41.5461 L1746.66 41.5461 Q1752.37 41.5461 1755.49 38.5889 Q1758.61 35.6318 1758.61 30.163 Q1758.61 24.7348 1755.49 21.7777 Q1752.37 18.8205 1746.66 18.8205 L1736.37 18.8205 M1728.19 12.096 L1746.66 12.096 Q1756.83 12.096 1762.01 16.714 Q1767.24 21.2916 1767.24 30.163 Q1767.24 39.1155 1762.01 43.6931 Q1756.83 48.2706 1746.66 48.2706 L1736.37 48.2706 L1736.37 72.576 L1728.19 72.576 L1728.19 12.096 Z" fill="#000000" fill-rule="nonzero" fill-opacity="1" /><path clip-path="url(#clip840)" d="M1779.8 62.2867 L1788.34 62.2867 L1788.34 69.2543 L1781.7 82.2172 L1776.47 82.2172 L1779.8 69.2543 L1779.8 62.2867 Z" fill="#000000" fill-rule="nonzero" fill-opacity="1" /><path clip-path="url(#clip840)" d="M1830.35 9.54393 L1837.85 9.54393 L1837.85 46.7717 L1860.09 27.2059 L1869.61 27.2059 L1845.54 48.4326 L1870.62 72.576 L1860.9 72.576 L1837.85 50.4176 L1837.85 72.576 L1830.35 72.576 L1830.35 9.54393 Z" fill="#000000" fill-rule="nonzero" fill-opacity="1" /><path clip-path="url(#clip840)" d="M1906.02 34.9026 L1957.96 34.9026 L1957.96 41.7081 L1906.02 41.7081 L1906.02 34.9026 M1906.02 51.4303 L1957.96 51.4303 L1957.96 58.3168 L1906.02 58.3168 L1906.02 51.4303 Z" fill="#000000" fill-rule="nonzero" fill-opacity="1" /><path clip-path="url(#clip840)" d="M2003.41 65.6895 L2016.77 65.6895 L2016.77 19.5497 L2002.23 22.4663 L2002.23 15.0127 L2016.69 12.096 L2024.88 12.096 L2024.88 65.6895 L2038.24 65.6895 L2038.24 72.576 L2003.41 72.576 L2003.41 65.6895 Z" fill="#000000" fill-rule="nonzero" fill-opacity="1" /><path clip-path="url(#clip840)" d="M2072.27 17.4837 Q2065.95 17.4837 2062.75 23.7221 Q2059.59 29.92 2059.59 42.3968 Q2059.59 54.833 2062.75 61.0714 Q2065.95 67.2693 2072.27 67.2693 Q2078.63 67.2693 2081.79 61.0714 Q2084.99 54.833 2084.99 42.3968 Q2084.99 29.92 2081.79 23.7221 Q2078.63 17.4837 2072.27 17.4837 M2072.27 11.0023 Q2082.44 11.0023 2087.79 19.0636 Q2093.17 27.0843 2093.17 42.3968 Q2093.17 57.6687 2087.79 65.73 Q2082.44 73.7508 2072.27 73.7508 Q2062.1 73.7508 2056.72 65.73 Q2051.37 57.6687 2051.37 42.3968 Q2051.37 27.0843 2056.72 19.0636 Q2062.1 11.0023 2072.27 11.0023 Z" fill="#000000" fill-rule="nonzero" fill-opacity="1" /><path clip-path="url(#clip840)" d="M2125.06 17.4837 Q2118.74 17.4837 2115.54 23.7221 Q2112.38 29.92 2112.38 42.3968 Q2112.38 54.833 2115.54 61.0714 Q2118.74 67.2693 2125.06 67.2693 Q2131.42 67.2693 2134.57 61.0714 Q2137.78 54.833 2137.78 42.3968 Q2137.78 29.92 2134.57 23.7221 Q2131.42 17.4837 2125.06 17.4837 M2125.06 11.0023 Q2135.22 11.0023 2140.57 19.0636 Q2145.96 27.0843 2145.96 42.3968 Q2145.96 57.6687 2140.57 65.73 Q2135.22 73.7508 2125.06 73.7508 Q2114.89 73.7508 2109.5 65.73 Q2104.15 57.6687 2104.15 42.3968 Q2104.15 27.0843 2109.5 19.0636 Q2114.89 11.0023 2125.06 11.0023 Z" fill="#000000" fill-rule="nonzero" fill-opacity="1" /><path clip-path="url(#clip840)" d="M2177.84 17.4837 Q2171.52 17.4837 2168.32 23.7221 Q2165.16 29.92 2165.16 42.3968 Q2165.16 54.833 2168.32 61.0714 Q2171.52 67.2693 2177.84 67.2693 Q2184.2 67.2693 2187.36 61.0714 Q2190.56 54.833 2190.56 42.3968 Q2190.56 29.92 2187.36 23.7221 Q2184.2 17.4837 2177.84 17.4837 M2177.84 11.0023 Q2188.01 11.0023 2193.35 19.0636 Q2198.74 27.0843 2198.74 42.3968 Q2198.74 57.6687 2193.35 65.73 Q2188.01 73.7508 2177.84 73.7508 Q2167.67 73.7508 2162.28 65.73 Q2156.94 57.6687 2156.94 42.3968 Q2156.94 27.0843 2162.28 19.0636 Q2167.67 11.0023 2177.84 11.0023 Z" fill="#000000" fill-rule="nonzero" fill-opacity="1" /><path clip-path="url(#clip840)" d="M2213.12 62.2867 L2221.67 62.2867 L2221.67 72.576 L2213.12 72.576 L2213.12 62.2867 Z" fill="#000000" fill-rule="nonzero" fill-opacity="1" /><path clip-path="url(#clip840)" d="M2256.99 17.4837 Q2250.67 17.4837 2247.47 23.7221 Q2244.31 29.92 2244.31 42.3968 Q2244.31 54.833 2247.47 61.0714 Q2250.67 67.2693 2256.99 67.2693 Q2263.35 67.2693 2266.51 61.0714 Q2269.71 54.833 2269.71 42.3968 Q2269.71 29.92 2266.51 23.7221 Q2263.35 17.4837 2256.99 17.4837 M2256.99 11.0023 Q2267.16 11.0023 2272.51 19.0636 Q2277.9 27.0843 2277.9 42.3968 Q2277.9 57.6687 2272.51 65.73 Q2267.16 73.7508 2256.99 73.7508 Q2246.83 73.7508 2241.44 65.73 Q2236.09 57.6687 2236.09 42.3968 Q2236.09 27.0843 2241.44 19.0636 Q2246.83 11.0023 2256.99 11.0023 Z" fill="#000000" fill-rule="nonzero" fill-opacity="1" /><path clip-path="url(#clip840)" d="M2317.92 12.096 L2326.1 12.096 L2326.1 36.8875 L2355.84 36.8875 L2355.84 12.096 L2364.02 12.096 L2364.02 72.576 L2355.84 72.576 L2355.84 43.7741 L2326.1 43.7741 L2326.1 72.576 L2317.92 72.576 L2317.92 12.096 Z" fill="#000000" fill-rule="nonzero" fill-opacity="1" /><path clip-path="url(#clip840)" d="M2395.25 45.1514 Q2393.23 41.6676 2389.13 41.6676 Q2385.04 41.6676 2383.02 45.1514 Q2380.95 48.6352 2380.95 55.6027 Q2380.95 62.6108 2383.02 66.0946 Q2385.04 69.5783 2389.13 69.5783 Q2393.23 69.5783 2395.25 66.0946 Q2397.32 62.6108 2397.32 55.6027 Q2397.32 48.6352 2395.25 45.1514 M2389.13 38.0623 Q2395.66 38.0623 2399.1 42.5588 Q2402.54 47.0553 2402.54 55.6027 Q2402.54 64.1906 2399.1 68.6871 Q2395.66 73.1836 2389.13 73.1836 Q2382.57 73.1836 2379.13 68.6871 Q2375.68 64.1906 2375.68 55.6027 Q2375.68 47.0553 2379.13 42.5588 Q2382.57 38.0623 2389.13 38.0623 Z" fill="#000000" fill-rule="nonzero" fill-opacity="1" /><path clip-path="url(#clip840)" d="M2426.48 12.096 L2433.37 12.096 L2412.3 80.2727 L2405.42 80.2727 L2426.48 12.096 Z" fill="#000000" fill-rule="nonzero" fill-opacity="1" /><path clip-path="url(#clip840)" d="M2473.84 28.9478 L2473.84 35.9153 Q2470.68 34.1734 2467.48 33.3227 Q2464.32 32.4315 2461.08 32.4315 Q2453.83 32.4315 2449.82 37.0496 Q2445.81 41.6271 2445.81 49.9314 Q2445.81 58.2358 2449.82 62.8538 Q2453.83 67.4314 2461.08 67.4314 Q2464.32 67.4314 2467.48 66.5807 Q2470.68 65.6895 2473.84 63.9476 L2473.84 70.8341 Q2470.72 72.2924 2467.36 73.0216 Q2464.03 73.7508 2460.27 73.7508 Q2450.02 73.7508 2443.98 67.3098 Q2437.95 60.8689 2437.95 49.9314 Q2437.95 38.832 2444.02 32.472 Q2450.14 26.1121 2460.75 26.1121 Q2464.2 26.1121 2467.48 26.8413 Q2470.76 27.5299 2473.84 28.9478 Z" fill="#000000" fill-rule="nonzero" fill-opacity="1" /><polyline clip-path="url(#clip841)" style="stroke:#009af9; stroke-linecap:round; stroke-linejoin:round; stroke-width:8; stroke-opacity:1; fill:none" points="413.925,205.311 816.236,276.957 1273.14,349.659 1749.45,426.184 2187.95,498.253 "/>
<circle clip-path="url(#clip841)" cx="413.925" cy="205.311" r="14.4" fill="#009af9" fill-rule="evenodd" fill-opacity="1" stroke="#000000" stroke-opacity="1" stroke-width="3.2"/>
<circle clip-path="url(#clip841)" cx="816.236" cy="276.957" r="14.4" fill="#009af9" fill-rule="evenodd" fill-opacity="1" stroke="#000000" stroke-opacity="1" stroke-width="3.2"/>
<circle clip-path="url(#clip841)" cx="1273.14" cy="349.659" r="14.4" fill="#009af9" fill-rule="evenodd" fill-opacity="1" stroke="#000000" stroke-opacity="1" stroke-width="3.2"/>
<circle clip-path="url(#clip841)" cx="1749.45" cy="426.184" r="14.4" fill="#009af9" fill-rule="evenodd" fill-opacity="1" stroke="#000000" stroke-opacity="1" stroke-width="3.2"/>
<circle clip-path="url(#clip841)" cx="2187.95" cy="498.253" r="14.4" fill="#009af9" fill-rule="evenodd" fill-opacity="1" stroke="#000000" stroke-opacity="1" stroke-width="3.2"/>
<polyline clip-path="url(#clip841)" style="stroke:#e26f46; stroke-linecap:round; stroke-linejoin:round; stroke-width:8; stroke-opacity:1; fill:none" points="711.102,310.997 1001.12,396.821 1443.5,492.31 1811.71,598.351 2120.6,704.592 "/>
<path clip-path="url(#clip841)" d="M695.102 294.997 L695.102 326.997 L727.102 326.997 L727.102 294.997 L695.102 294.997 Z" fill="#e26f46" fill-rule="evenodd" fill-opacity="1" stroke="#000000" stroke-opacity="1" stroke-width="3.2"/>
<path clip-path="url(#clip841)" d="M985.118 380.821 L985.118 412.821 L1017.12 412.821 L1017.12 380.821 L985.118 380.821 Z" fill="#e26f46" fill-rule="evenodd" fill-opacity="1" stroke="#000000" stroke-opacity="1" stroke-width="3.2"/>
<path clip-path="url(#clip841)" d="M1427.5 476.31 L1427.5 508.31 L1459.5 508.31 L1459.5 476.31 L1427.5 476.31 Z" fill="#e26f46" fill-rule="evenodd" fill-opacity="1" stroke="#000000" stroke-opacity="1" stroke-width="3.2"/>
<path clip-path="url(#clip841)" d="M1795.71 582.351 L1795.71 614.351 L1827.71 614.351 L1827.71 582.351 L1795.71 582.351 Z" fill="#e26f46" fill-rule="evenodd" fill-opacity="1" stroke="#000000" stroke-opacity="1" stroke-width="3.2"/>
<path clip-path="url(#clip841)" d="M2104.6 688.592 L2104.6 720.592 L2136.6 720.592 L2136.6 688.592 L2104.6 688.592 Z" fill="#e26f46" fill-rule="evenodd" fill-opacity="1" stroke="#000000" stroke-opacity="1" stroke-width="3.2"/>
<polyline clip-path="url(#clip841)" style="stroke:#3da44d; stroke-linecap:round; stroke-linejoin:round; stroke-width:8; stroke-opacity:1; fill:none" points="824.114,370.611 980.697,432.682 1328.56,503.714 1687.41,599.595 2014.61,706.925 "/>
<path clip-path="url(#clip841)" d="M824.114 354.611 L820.354 365.427 L808.898 365.667 L818.034 372.595 L814.706 383.555 L824.114 377.011 L833.522 383.555 L830.194 372.595 L839.33 365.667 L827.874 365.427 L824.114 354.611 Z" fill="#3da44d" fill-rule="evenodd" fill-opacity="1" stroke="#000000" stroke-opacity="1" stroke-width="3.2"/>
<path clip-path="url(#clip841)" d="M980.697 416.682 L976.937 427.498 L965.481 427.738 L974.617 434.666 L971.289 445.626 L980.697 439.082 L990.105 445.626 L986.777 434.666 L995.913 427.738 L984.457 427.498 L980.697 416.682 Z" fill="#3da44d" fill-rule="evenodd" fill-opacity="1" stroke="#000000" stroke-opacity="1" stroke-width="3.2"/>
<path clip-path="url(#clip841)" d="M1328.56 487.714 L1324.8 498.53 L1313.34 498.77 L1322.48 505.698 L1319.15 516.658 L1328.56 510.114 L1337.96 516.658 L1334.64 505.698 L1343.77 498.77 L1332.32 498.53 L1328.56 487.714 Z" fill="#3da44d" fill-rule="evenodd" fill-opacity="1" stroke="#000000" stroke-opacity="1" stroke-width="3.2"/>
<path clip-path="url(#clip841)" d="M1687.41 583.595 L1683.65 594.411 L1672.2 594.651 L1681.33 601.579 L1678 612.539 L1687.41 605.995 L1696.82 612.539 L1693.49 601.579 L1702.63 594.651 L1691.17 594.411 L1687.41 583.595 Z" fill="#3da44d" fill-rule="evenodd" fill-opacity="1" stroke="#000000" stroke-opacity="1" stroke-width="3.2"/>
<path clip-path="url(#clip841)" d="M2014.61 690.925 L2010.85 701.741 L1999.39 701.981 L2008.53 708.909 L2005.2 719.869 L2014.61 713.325 L2024.01 719.869 L2020.69 708.909 L2029.82 701.981 L2018.37 701.741 L2014.61 690.925 Z" fill="#3da44d" fill-rule="evenodd" fill-opacity="1" stroke="#000000" stroke-opacity="1" stroke-width="3.2"/>
<polyline clip-path="url(#clip841)" style="stroke:#c271d2; stroke-linecap:round; stroke-linejoin:round; stroke-width:8; stroke-opacity:1; fill:none" points="852.841,410.48 1052,453.381 1320.31,533.184 1657.69,616.185 2017.35,699.826 "/>
<path clip-path="url(#clip841)" d="M852.841 394.48 L836.841 410.48 L852.841 426.48 L868.841 410.48 L852.841 394.48 Z" fill="#c271d2" fill-rule="evenodd" fill-opacity="1" stroke="#000000" stroke-opacity="1" stroke-width="3.2"/>
<path clip-path="url(#clip841)" d="M1052 437.381 L1036 453.381 L1052 469.381 L1068 453.381 L1052 437.381 Z" fill="#c271d2" fill-rule="evenodd" fill-opacity="1" stroke="#000000" stroke-opacity="1" stroke-width="3.2"/>
<path clip-path="url(#clip841)" d="M1320.31 517.184 L1304.31 533.184 L1320.31 549.184 L1336.31 533.184 L1320.31 517.184 Z" fill="#c271d2" fill-rule="evenodd" fill-opacity="1" stroke="#000000" stroke-opacity="1" stroke-width="3.2"/>
<path clip-path="url(#clip841)" d="M1657.69 600.185 L1641.69 616.185 L1657.69 632.185 L1673.69 616.185 L1657.69 600.185 Z" fill="#c271d2" fill-rule="evenodd" fill-opacity="1" stroke="#000000" stroke-opacity="1" stroke-width="3.2"/>
<path clip-path="url(#clip841)" d="M2017.35 683.826 L2001.35 699.826 L2017.35 715.826 L2033.35 699.826 L2017.35 683.826 Z" fill="#c271d2" fill-rule="evenodd" fill-opacity="1" stroke="#000000" stroke-opacity="1" stroke-width="3.2"/>
<polyline clip-path="url(#clip841)" style="stroke:#ac8d18; stroke-linecap:round; stroke-linejoin:round; stroke-width:8; stroke-opacity:1; fill:none" points="986.529,416.172 1307.84,483.191 1632.07,528.766 2011.41,620.108 2343.28,755.149 "/>
<path clip-path="url(#clip841)" d="M986.529 432.172 L972.673 424.172 L972.673 408.172 L986.529 400.172 L1000.39 408.172 L1000.39 424.172 Z" fill="#ac8d18" fill-rule="evenodd" fill-opacity="1" stroke="#000000" stroke-opacity="1" stroke-width="3.2"/>
<path clip-path="url(#clip841)" d="M1307.84 499.191 L1293.98 491.191 L1293.98 475.191 L1307.84 467.191 L1321.7 475.191 L1321.7 491.191 Z" fill="#ac8d18" fill-rule="evenodd" fill-opacity="1" stroke="#000000" stroke-opacity="1" stroke-width="3.2"/>
<path clip-path="url(#clip841)" d="M1632.07 544.766 L1618.21 536.766 L1618.21 520.766 L1632.07 512.766 L1645.93 520.766 L1645.93 536.766 Z" fill="#ac8d18" fill-rule="evenodd" fill-opacity="1" stroke="#000000" stroke-opacity="1" stroke-width="3.2"/>
<path clip-path="url(#clip841)" d="M2011.41 636.108 L1997.55 628.108 L1997.55 612.108 L2011.41 604.108 L2025.26 612.108 L2025.26 628.108 Z" fill="#ac8d18" fill-rule="evenodd" fill-opacity="1" stroke="#000000" stroke-opacity="1" stroke-width="3.2"/>
<path clip-path="url(#clip841)" d="M2343.28 771.149 L2329.42 763.149 L2329.42 747.149 L2343.28 739.149 L2357.14 747.149 L2357.14 763.149 Z" fill="#ac8d18" fill-rule="evenodd" fill-opacity="1" stroke="#000000" stroke-opacity="1" stroke-width="3.2"/>
<polyline clip-path="url(#clip841)" style="stroke:#00a9ad; stroke-linecap:round; stroke-linejoin:round; stroke-width:8; stroke-opacity:1; fill:none" points="1763.36,828.287 2087.02,973.242 2396.97,1129.78 2705.11,1274.37 3011.83,1337.53 "/>
<line clip-path="url(#clip841)" x1="1763.36" y1="828.287" x2="1763.36" y2="812.287" style="stroke:#00a9ad; stroke-width:8; stroke-opacity:1"/>
<line clip-path="url(#clip841)" x1="1763.36" y1="828.287" x2="1747.36" y2="828.287" style="stroke:#00a9ad; stroke-width:8; stroke-opacity:1"/>
<line clip-path="url(#clip841)" x1="1763.36" y1="828.287" x2="1763.36" y2="844.287" style="stroke:#00a9ad; stroke-width:8; stroke-opacity:1"/>
<line clip-path="url(#clip841)" x1="1763.36" y1="828.287" x2="1779.36" y2="828.287" style="stroke:#00a9ad; stroke-width:8; stroke-opacity:1"/>
<line clip-path="url(#clip841)" x1="2087.02" y1="973.242" x2="2087.02" y2="957.242" style="stroke:#00a9ad; stroke-width:8; stroke-opacity:1"/>
<line clip-path="url(#clip841)" x1="2087.02" y1="973.242" x2="2071.02" y2="973.242" style="stroke:#00a9ad; stroke-width:8; stroke-opacity:1"/>
<line clip-path="url(#clip841)" x1="2087.02" y1="973.242" x2="2087.02" y2="989.242" style="stroke:#00a9ad; stroke-width:8; stroke-opacity:1"/>
<line clip-path="url(#clip841)" x1="2087.02" y1="973.242" x2="2103.02" y2="973.242" style="stroke:#00a9ad; stroke-width:8; stroke-opacity:1"/>
<line clip-path="url(#clip841)" x1="2396.97" y1="1129.78" x2="2396.97" y2="1113.78" style="stroke:#00a9ad; stroke-width:8; stroke-opacity:1"/>
<line clip-path="url(#clip841)" x1="2396.97" y1="1129.78" x2="2380.97" y2="1129.78" style="stroke:#00a9ad; stroke-width:8; stroke-opacity:1"/>
<line clip-path="url(#clip841)" x1="2396.97" y1="1129.78" x2="2396.97" y2="1145.78" style="stroke:#00a9ad; stroke-width:8; stroke-opacity:1"/>
<line clip-path="url(#clip841)" x1="2396.97" y1="1129.78" x2="2412.97" y2="1129.78" style="stroke:#00a9ad; stroke-width:8; stroke-opacity:1"/>
<line clip-path="url(#clip841)" x1="2705.11" y1="1274.37" x2="2705.11" y2="1258.37" style="stroke:#00a9ad; stroke-width:8; stroke-opacity:1"/>
<line clip-path="url(#clip841)" x1="2705.11" y1="1274.37" x2="2689.11" y2="1274.37" style="stroke:#00a9ad; stroke-width:8; stroke-opacity:1"/>
<line clip-path="url(#clip841)" x1="2705.11" y1="1274.37" x2="2705.11" y2="1290.37" style="stroke:#00a9ad; stroke-width:8; stroke-opacity:1"/>
<line clip-path="url(#clip841)" x1="2705.11" y1="1274.37" x2="2721.11" y2="1274.37" style="stroke:#00a9ad; stroke-width:8; stroke-opacity:1"/>
<line clip-path="url(#clip841)" x1="3011.83" y1="1337.53" x2="3011.83" y2="1321.53" style="stroke:#00a9ad; stroke-width:8; stroke-opacity:1"/>
<line clip-path="url(#clip841)" x1="3011.83" y1="1337.53" x2="2995.83" y2="1337.53" style="stroke:#00a9ad; stroke-width:8; stroke-opacity:1"/>
<line clip-path="url(#clip841)" x1="3011.83" y1="1337.53" x2="3011.83" y2="1353.53" style="stroke:#00a9ad; stroke-width:8; stroke-opacity:1"/>
<line clip-path="url(#clip841)" x1="3011.83" y1="1337.53" x2="3027.83" y2="1337.53" style="stroke:#00a9ad; stroke-width:8; stroke-opacity:1"/>
<polyline clip-path="url(#clip841)" style="stroke:#ed5d92; stroke-linecap:round; stroke-linejoin:round; stroke-width:8; stroke-opacity:1; fill:none" points="1595.23,829.745 1855.31,955.41 2089.44,1158.02 2318.81,1203.21 2557.3,1290.23 "/>
<line clip-path="url(#clip841)" x1="1595.23" y1="829.745" x2="1579.23" y2="813.745" style="stroke:#ed5d92; stroke-width:8; stroke-opacity:1"/>
<line clip-path="url(#clip841)" x1="1595.23" y1="829.745" x2="1579.23" y2="845.745" style="stroke:#ed5d92; stroke-width:8; stroke-opacity:1"/>
<line clip-path="url(#clip841)" x1="1595.23" y1="829.745" x2="1611.23" y2="845.745" style="stroke:#ed5d92; stroke-width:8; stroke-opacity:1"/>
<line clip-path="url(#clip841)" x1="1595.23" y1="829.745" x2="1611.23" y2="813.745" style="stroke:#ed5d92; stroke-width:8; stroke-opacity:1"/>
<line clip-path="url(#clip841)" x1="1855.31" y1="955.41" x2="1839.31" y2="939.41" style="stroke:#ed5d92; stroke-width:8; stroke-opacity:1"/>
<line clip-path="url(#clip841)" x1="1855.31" y1="955.41" x2="1839.31" y2="971.41" style="stroke:#ed5d92; stroke-width:8; stroke-opacity:1"/>
<line clip-path="url(#clip841)" x1="1855.31" y1="955.41" x2="1871.31" y2="971.41" style="stroke:#ed5d92; stroke-width:8; stroke-opacity:1"/>
<line clip-path="url(#clip841)" x1="1855.31" y1="955.41" x2="1871.31" y2="939.41" style="stroke:#ed5d92; stroke-width:8; stroke-opacity:1"/>
<line clip-path="url(#clip841)" x1="2089.44" y1="1158.02" x2="2073.44" y2="1142.02" style="stroke:#ed5d92; stroke-width:8; stroke-opacity:1"/>
<line clip-path="url(#clip841)" x1="2089.44" y1="1158.02" x2="2073.44" y2="1174.02" style="stroke:#ed5d92; stroke-width:8; stroke-opacity:1"/>
<line clip-path="url(#clip841)" x1="2089.44" y1="1158.02" x2="2105.44" y2="1174.02" style="stroke:#ed5d92; stroke-width:8; stroke-opacity:1"/>
<line clip-path="url(#clip841)" x1="2089.44" y1="1158.02" x2="2105.44" y2="1142.02" style="stroke:#ed5d92; stroke-width:8; stroke-opacity:1"/>
<line clip-path="url(#clip841)" x1="2318.81" y1="1203.21" x2="2302.81" y2="1187.21" style="stroke:#ed5d92; stroke-width:8; stroke-opacity:1"/>
<line clip-path="url(#clip841)" x1="2318.81" y1="1203.21" x2="2302.81" y2="1219.21" style="stroke:#ed5d92; stroke-width:8; stroke-opacity:1"/>
<line clip-path="url(#clip841)" x1="2318.81" y1="1203.21" x2="2334.81" y2="1219.21" style="stroke:#ed5d92; stroke-width:8; stroke-opacity:1"/>
<line clip-path="url(#clip841)" x1="2318.81" y1="1203.21" x2="2334.81" y2="1187.21" style="stroke:#ed5d92; stroke-width:8; stroke-opacity:1"/>
<line clip-path="url(#clip841)" x1="2557.3" y1="1290.23" x2="2541.3" y2="1274.23" style="stroke:#ed5d92; stroke-width:8; stroke-opacity:1"/>
<line clip-path="url(#clip841)" x1="2557.3" y1="1290.23" x2="2541.3" y2="1306.23" style="stroke:#ed5d92; stroke-width:8; stroke-opacity:1"/>
<line clip-path="url(#clip841)" x1="2557.3" y1="1290.23" x2="2573.3" y2="1306.23" style="stroke:#ed5d92; stroke-width:8; stroke-opacity:1"/>
<line clip-path="url(#clip841)" x1="2557.3" y1="1290.23" x2="2573.3" y2="1274.23" style="stroke:#ed5d92; stroke-width:8; stroke-opacity:1"/>
<polyline clip-path="url(#clip841)" style="stroke:#c68125; stroke-linecap:round; stroke-linejoin:round; stroke-width:8; stroke-opacity:1; fill:none" points="1824.33,868.083 2127.01,990.152 2361.02,1102.89 2571.13,1171.5 2784.49,1172.68 "/>
<path clip-path="url(#clip841)" d="M1824.33 852.083 L1808.33 884.083 L1840.33 884.083 L1824.33 852.083 Z" fill="#c68125" fill-rule="evenodd" fill-opacity="1" stroke="#000000" stroke-opacity="1" stroke-width="3.2"/>
<path clip-path="url(#clip841)" d="M2127.01 974.152 L2111.01 1006.15 L2143.01 1006.15 L2127.01 974.152 Z" fill="#c68125" fill-rule="evenodd" fill-opacity="1" stroke="#000000" stroke-opacity="1" stroke-width="3.2"/>
<path clip-path="url(#clip841)" d="M2361.02 1086.89 L2345.02 1118.89 L2377.02 1118.89 L2361.02 1086.89 Z" fill="#c68125" fill-rule="evenodd" fill-opacity="1" stroke="#000000" stroke-opacity="1" stroke-width="3.2"/>
<path clip-path="url(#clip841)" d="M2571.13 1155.5 L2555.13 1187.5 L2587.13 1187.5 L2571.13 1155.5 Z" fill="#c68125" fill-rule="evenodd" fill-opacity="1" stroke="#000000" stroke-opacity="1" stroke-width="3.2"/>
<path clip-path="url(#clip841)" d="M2784.49 1156.68 L2768.49 1188.68 L2800.49 1188.68 L2784.49 1156.68 Z" fill="#c68125" fill-rule="evenodd" fill-opacity="1" stroke="#000000" stroke-opacity="1" stroke-width="3.2"/>
<polyline clip-path="url(#clip841)" style="stroke:#00a98d; stroke-linecap:round; stroke-linejoin:round; stroke-width:8; stroke-opacity:1; fill:none" points="1620.21,545.507 1740.43,769.269 1892.94,869.593 2147.28,1046.3 2366.29,1170.77 "/>
<path clip-path="url(#clip841)" d="M1636.21 529.507 L1604.21 529.507 L1620.21 561.507 L1636.21 529.507 Z" fill="#00a98d" fill-rule="evenodd" fill-opacity="1" stroke="#000000" stroke-opacity="1" stroke-width="3.2"/>
<path clip-path="url(#clip841)" d="M1756.43 753.269 L1724.43 753.269 L1740.43 785.269 L1756.43 753.269 Z" fill="#00a98d" fill-rule="evenodd" fill-opacity="1" stroke="#000000" stroke-opacity="1" stroke-width="3.2"/>
<path clip-path="url(#clip841)" d="M1908.94 853.593 L1876.94 853.593 L1892.94 885.593 L1908.94 853.593 Z" fill="#00a98d" fill-rule="evenodd" fill-opacity="1" stroke="#000000" stroke-opacity="1" stroke-width="3.2"/>
<path clip-path="url(#clip841)" d="M2163.28 1030.3 L2131.28 1030.3 L2147.28 1062.3 L2163.28 1030.3 Z" fill="#00a98d" fill-rule="evenodd" fill-opacity="1" stroke="#000000" stroke-opacity="1" stroke-width="3.2"/>
<path clip-path="url(#clip841)" d="M2382.29 1154.77 L2350.29 1154.77 L2366.29 1186.77 L2382.29 1154.77 Z" fill="#00a98d" fill-rule="evenodd" fill-opacity="1" stroke="#000000" stroke-opacity="1" stroke-width="3.2"/>
<polyline clip-path="url(#clip841)" style="stroke:#8e971d; stroke-linecap:round; stroke-linejoin:round; stroke-width:8; stroke-opacity:1; fill:none" points="1663.74,690.029 1893.6,899.113 2185.48,918.709 2354.67,1003.88 2614.79,1310.99 "/>
<path clip-path="url(#clip841)" d="M1676.54 690.029 L1657.34 678.829 L1657.34 701.229 L1676.54 690.029 Z" fill="#8e971d" fill-rule="evenodd" fill-opacity="1" stroke="#000000" stroke-opacity="1" stroke-width="3.2"/>
<path clip-path="url(#clip841)" d="M1906.4 899.113 L1887.2 887.913 L1887.2 910.313 L1906.4 899.113 Z" fill="#8e971d" fill-rule="evenodd" fill-opacity="1" stroke="#000000" stroke-opacity="1" stroke-width="3.2"/>
<path clip-path="url(#clip841)" d="M2198.28 918.709 L2179.08 907.509 L2179.08 929.909 L2198.28 918.709 Z" fill="#8e971d" fill-rule="evenodd" fill-opacity="1" stroke="#000000" stroke-opacity="1" stroke-width="3.2"/>
<path clip-path="url(#clip841)" d="M2367.47 1003.88 L2348.27 992.683 L2348.27 1015.08 L2367.47 1003.88 Z" fill="#8e971d" fill-rule="evenodd" fill-opacity="1" stroke="#000000" stroke-opacity="1" stroke-width="3.2"/>
<path clip-path="url(#clip841)" d="M2627.59 1310.99 L2608.39 1299.79 L2608.39 1322.19 L2627.59 1310.99 Z" fill="#8e971d" fill-rule="evenodd" fill-opacity="1" stroke="#000000" stroke-opacity="1" stroke-width="3.2"/>
<path clip-path="url(#clip840)" d="M2471.3 781.589 L2997.97 781.589 L2997.97 211.349 L2471.3 211.349  Z" fill="#ffffff" fill-rule="evenodd" fill-opacity="1"/>
<polyline clip-path="url(#clip840)" style="stroke:#000000; stroke-linecap:round; stroke-linejoin:round; stroke-width:4; stroke-opacity:1; fill:none" points="2471.3,781.589 2997.97,781.589 2997.97,211.349 2471.3,211.349 2471.3,781.589 "/>
<polyline clip-path="url(#clip840)" style="stroke:#009af9; stroke-linecap:round; stroke-linejoin:round; stroke-width:8; stroke-opacity:1; fill:none" points="2501.9,263.189 2685.48,263.189 "/>
<circle clip-path="url(#clip840)" cx="2593.69" cy="263.189" r="20.48" fill="#009af9" fill-rule="evenodd" fill-opacity="1" stroke="#000000" stroke-opacity="1" stroke-width="4.55111"/>
<path clip-path="url(#clip840)" d="M2716.08 245.909 L2745.31 245.909 L2745.31 249.844 L2733.05 249.844 L2733.05 280.469 L2728.35 280.469 L2728.35 249.844 L2716.08 249.844 L2716.08 245.909 Z" fill="#000000" fill-rule="nonzero" fill-opacity="1" /><path clip-path="url(#clip840)" d="M2766.22 264.266 Q2767.72 264.775 2769.13 266.442 Q2770.57 268.108 2772 271.025 L2776.75 280.469 L2771.73 280.469 L2767.31 271.604 Q2765.59 268.131 2763.97 266.997 Q2762.37 265.863 2759.6 265.863 L2754.5 265.863 L2754.5 280.469 L2749.83 280.469 L2749.83 245.909 L2760.38 245.909 Q2766.31 245.909 2769.23 248.386 Q2772.14 250.863 2772.14 255.863 Q2772.14 259.127 2770.62 261.28 Q2769.11 263.432 2766.22 264.266 M2754.5 249.752 L2754.5 262.02 L2760.38 262.02 Q2763.76 262.02 2765.48 260.469 Q2767.21 258.895 2767.21 255.863 Q2767.21 252.831 2765.48 251.303 Q2763.76 249.752 2760.38 249.752 L2754.5 249.752 Z" fill="#000000" fill-rule="nonzero" fill-opacity="1" /><path clip-path="url(#clip840)" d="M2787.44 263.965 L2787.44 276.627 L2794.94 276.627 Q2798.72 276.627 2800.52 275.076 Q2802.35 273.502 2802.35 270.284 Q2802.35 267.043 2800.52 265.516 Q2798.72 263.965 2794.94 263.965 L2787.44 263.965 M2787.44 249.752 L2787.44 260.168 L2794.37 260.168 Q2797.79 260.168 2799.46 258.895 Q2801.15 257.599 2801.15 254.96 Q2801.15 252.344 2799.46 251.048 Q2797.79 249.752 2794.37 249.752 L2787.44 249.752 M2782.77 245.909 L2794.71 245.909 Q2800.06 245.909 2802.95 248.131 Q2805.85 250.354 2805.85 254.451 Q2805.85 257.622 2804.37 259.497 Q2802.88 261.372 2800.01 261.835 Q2803.46 262.576 2805.36 264.937 Q2807.28 267.275 2807.28 270.793 Q2807.28 275.423 2804.13 277.946 Q2800.99 280.469 2795.18 280.469 L2782.77 280.469 L2782.77 245.909 Z" fill="#000000" fill-rule="nonzero" fill-opacity="1" /><path clip-path="url(#clip840)" d="M2819.97 249.752 L2819.97 276.627 L2825.62 276.627 Q2832.77 276.627 2836.08 273.386 Q2839.41 270.145 2839.41 263.155 Q2839.41 256.21 2836.08 252.993 Q2832.77 249.752 2825.62 249.752 L2819.97 249.752 M2815.29 245.909 L2824.9 245.909 Q2834.94 245.909 2839.64 250.099 Q2844.34 254.266 2844.34 263.155 Q2844.34 272.09 2839.62 276.279 Q2834.9 280.469 2824.9 280.469 L2815.29 280.469 L2815.29 245.909 Z" fill="#000000" fill-rule="nonzero" fill-opacity="1" /><path clip-path="url(#clip840)" d="M2851.8 245.909 L2871.66 245.909 L2871.66 249.844 L2856.47 249.844 L2856.47 260.03 L2870.18 260.03 L2870.18 263.965 L2856.47 263.965 L2856.47 280.469 L2851.8 280.469 L2851.8 245.909 Z" fill="#000000" fill-rule="nonzero" fill-opacity="1" /><path clip-path="url(#clip840)" d="M2883.51 276.534 L2899.83 276.534 L2899.83 280.469 L2877.88 280.469 L2877.88 276.534 Q2880.55 273.78 2885.13 269.15 Q2889.74 264.497 2890.92 263.155 Q2893.16 260.631 2894.04 258.895 Q2894.94 257.136 2894.94 255.446 Q2894.94 252.692 2893 250.956 Q2891.08 249.219 2887.98 249.219 Q2885.78 249.219 2883.32 249.983 Q2880.89 250.747 2878.11 252.298 L2878.11 247.576 Q2880.94 246.442 2883.39 245.863 Q2885.85 245.284 2887.88 245.284 Q2893.25 245.284 2896.45 247.969 Q2899.64 250.655 2899.64 255.145 Q2899.64 257.275 2898.83 259.196 Q2898.05 261.094 2895.94 263.687 Q2895.36 264.358 2892.26 267.576 Q2889.16 270.77 2883.51 276.534 Z" fill="#000000" fill-rule="nonzero" fill-opacity="1" /><polyline clip-path="url(#clip840)" style="stroke:#e26f46; stroke-linecap:round; stroke-linejoin:round; stroke-width:8; stroke-opacity:1; fill:none" points="2501.9,315.029 2685.48,315.029 "/>
<path clip-path="url(#clip840)" d="M2570.93 292.274 L2570.93 337.785 L2616.44 337.785 L2616.44 292.274 L2570.93 292.274 Z" fill="#e26f46" fill-rule="evenodd" fill-opacity="1" stroke="#000000" stroke-opacity="1" stroke-width="4.55111"/>
<path clip-path="url(#clip840)" d="M2716.08 297.749 L2720.75 297.749 L2720.75 312.356 L2736.26 297.749 L2742.28 297.749 L2725.13 313.86 L2743.51 332.309 L2737.35 332.309 L2720.75 315.666 L2720.75 332.309 L2716.08 332.309 L2716.08 297.749 Z" fill="#000000" fill-rule="nonzero" fill-opacity="1" /><path clip-path="url(#clip840)" d="M2766.8 318.282 L2766.8 320.365 L2747.21 320.365 Q2747.49 324.763 2749.85 327.078 Q2752.24 329.369 2756.47 329.369 Q2758.93 329.369 2761.22 328.768 Q2763.53 328.166 2765.8 326.962 L2765.8 330.99 Q2763.51 331.962 2761.1 332.471 Q2758.69 332.981 2756.22 332.981 Q2750.01 332.981 2746.38 329.369 Q2742.77 325.758 2742.77 319.601 Q2742.77 313.235 2746.19 309.508 Q2749.64 305.759 2755.48 305.759 Q2760.71 305.759 2763.74 309.138 Q2766.8 312.495 2766.8 318.282 M2762.54 317.032 Q2762.49 313.536 2760.57 311.453 Q2758.67 309.37 2755.52 309.37 Q2751.96 309.37 2749.81 311.383 Q2747.68 313.397 2747.35 317.055 L2762.54 317.032 Z" fill="#000000" fill-rule="nonzero" fill-opacity="1" /><path clip-path="url(#clip840)" d="M2795.34 316.661 L2795.34 332.309 L2791.08 332.309 L2791.08 316.8 Q2791.08 313.12 2789.64 311.291 Q2788.21 309.462 2785.34 309.462 Q2781.89 309.462 2779.9 311.661 Q2777.91 313.86 2777.91 317.657 L2777.91 332.309 L2773.62 332.309 L2773.62 306.384 L2777.91 306.384 L2777.91 310.411 Q2779.43 308.073 2781.5 306.916 Q2783.58 305.759 2786.29 305.759 Q2790.75 305.759 2793.05 308.536 Q2795.34 311.291 2795.34 316.661 Z" fill="#000000" fill-rule="nonzero" fill-opacity="1" /><path clip-path="url(#clip840)" d="M2829.9 300.411 L2829.9 305.342 Q2827.54 303.143 2824.85 302.055 Q2822.19 300.967 2819.18 300.967 Q2813.25 300.967 2810.11 304.601 Q2806.96 308.212 2806.96 315.064 Q2806.96 321.893 2810.11 325.527 Q2813.25 329.138 2819.18 329.138 Q2822.19 329.138 2824.85 328.05 Q2827.54 326.962 2829.9 324.763 L2829.9 329.647 Q2827.44 331.314 2824.69 332.147 Q2821.96 332.981 2818.9 332.981 Q2811.06 332.981 2806.54 328.189 Q2802.03 323.374 2802.03 315.064 Q2802.03 306.731 2806.54 301.939 Q2811.06 297.124 2818.9 297.124 Q2822 297.124 2824.74 297.958 Q2827.49 298.768 2829.9 300.411 Z" fill="#000000" fill-rule="nonzero" fill-opacity="1" /><path clip-path="url(#clip840)" d="M2848.72 319.277 Q2843.55 319.277 2841.56 320.457 Q2839.57 321.638 2839.57 324.485 Q2839.57 326.754 2841.05 328.096 Q2842.56 329.416 2845.13 329.416 Q2848.67 329.416 2850.8 326.916 Q2852.95 324.393 2852.95 320.226 L2852.95 319.277 L2848.72 319.277 M2857.21 317.518 L2857.21 332.309 L2852.95 332.309 L2852.95 328.374 Q2851.49 330.735 2849.32 331.869 Q2847.14 332.981 2843.99 332.981 Q2840.01 332.981 2837.65 330.758 Q2835.31 328.513 2835.31 324.763 Q2835.31 320.388 2838.23 318.166 Q2841.17 315.944 2846.98 315.944 L2852.95 315.944 L2852.95 315.527 Q2852.95 312.587 2851.01 310.99 Q2849.09 309.37 2845.59 309.37 Q2843.37 309.37 2841.26 309.902 Q2839.16 310.434 2837.21 311.499 L2837.21 307.564 Q2839.55 306.661 2841.75 306.221 Q2843.95 305.759 2846.03 305.759 Q2851.66 305.759 2854.43 308.675 Q2857.21 311.592 2857.21 317.518 Z" fill="#000000" fill-rule="nonzero" fill-opacity="1" /><path clip-path="url(#clip840)" d="M2881.01 310.365 Q2880.29 309.948 2879.43 309.763 Q2878.6 309.555 2877.58 309.555 Q2873.97 309.555 2872.03 311.916 Q2870.11 314.254 2870.11 318.652 L2870.11 332.309 L2865.82 332.309 L2865.82 306.384 L2870.11 306.384 L2870.11 310.411 Q2871.45 308.05 2873.6 306.916 Q2875.75 305.759 2878.83 305.759 Q2879.27 305.759 2879.8 305.828 Q2880.34 305.874 2880.99 305.99 L2881.01 310.365 Z" fill="#000000" fill-rule="nonzero" fill-opacity="1" /><path clip-path="url(#clip840)" d="M2889.6 328.42 L2889.6 342.17 L2885.31 342.17 L2885.31 306.384 L2889.6 306.384 L2889.6 310.319 Q2890.94 308.004 2892.98 306.893 Q2895.04 305.759 2897.88 305.759 Q2902.61 305.759 2905.55 309.508 Q2908.51 313.258 2908.51 319.37 Q2908.51 325.481 2905.55 329.231 Q2902.61 332.981 2897.88 332.981 Q2895.04 332.981 2892.98 331.869 Q2890.94 330.735 2889.6 328.42 M2904.09 319.37 Q2904.09 314.67 2902.14 312.008 Q2900.22 309.323 2896.84 309.323 Q2893.46 309.323 2891.52 312.008 Q2889.6 314.67 2889.6 319.37 Q2889.6 324.069 2891.52 326.754 Q2893.46 329.416 2896.84 329.416 Q2900.22 329.416 2902.14 326.754 Q2904.09 324.069 2904.09 319.37 Z" fill="#000000" fill-rule="nonzero" fill-opacity="1" /><path clip-path="url(#clip840)" d="M2929.02 301.823 L2917.21 320.272 L2929.02 320.272 L2929.02 301.823 M2927.79 297.749 L2933.67 297.749 L2933.67 320.272 L2938.6 320.272 L2938.6 324.161 L2933.67 324.161 L2933.67 332.309 L2929.02 332.309 L2929.02 324.161 L2913.42 324.161 L2913.42 319.647 L2927.79 297.749 Z" fill="#000000" fill-rule="nonzero" fill-opacity="1" /><polyline clip-path="url(#clip840)" style="stroke:#3da44d; stroke-linecap:round; stroke-linejoin:round; stroke-width:8; stroke-opacity:1; fill:none" points="2501.9,366.869 2685.48,366.869 "/>
<path clip-path="url(#clip840)" d="M2593.69 344.114 L2588.34 359.496 L2572.05 359.838 L2585.04 369.691 L2580.31 385.279 L2593.69 375.972 L2607.07 385.279 L2602.34 369.691 L2615.33 359.838 L2599.04 359.496 L2593.69 344.114 Z" fill="#3da44d" fill-rule="evenodd" fill-opacity="1" stroke="#000000" stroke-opacity="1" stroke-width="4.55111"/>
<path clip-path="url(#clip840)" d="M2716.08 349.589 L2720.75 349.589 L2720.75 364.196 L2736.26 349.589 L2742.28 349.589 L2725.13 365.7 L2743.51 384.149 L2737.35 384.149 L2720.75 367.506 L2720.75 384.149 L2716.08 384.149 L2716.08 349.589 Z" fill="#000000" fill-rule="nonzero" fill-opacity="1" /><path clip-path="url(#clip840)" d="M2766.8 370.122 L2766.8 372.205 L2747.21 372.205 Q2747.49 376.603 2749.85 378.918 Q2752.24 381.209 2756.47 381.209 Q2758.93 381.209 2761.22 380.608 Q2763.53 380.006 2765.8 378.802 L2765.8 382.83 Q2763.51 383.802 2761.1 384.311 Q2758.69 384.821 2756.22 384.821 Q2750.01 384.821 2746.38 381.209 Q2742.77 377.598 2742.77 371.441 Q2742.77 365.075 2746.19 361.348 Q2749.64 357.599 2755.48 357.599 Q2760.71 357.599 2763.74 360.978 Q2766.8 364.335 2766.8 370.122 M2762.54 368.872 Q2762.49 365.376 2760.57 363.293 Q2758.67 361.21 2755.52 361.21 Q2751.96 361.21 2749.81 363.223 Q2747.68 365.237 2747.35 368.895 L2762.54 368.872 Z" fill="#000000" fill-rule="nonzero" fill-opacity="1" /><path clip-path="url(#clip840)" d="M2795.34 368.501 L2795.34 384.149 L2791.08 384.149 L2791.08 368.64 Q2791.08 364.96 2789.64 363.131 Q2788.21 361.302 2785.34 361.302 Q2781.89 361.302 2779.9 363.501 Q2777.91 365.7 2777.91 369.497 L2777.91 384.149 L2773.62 384.149 L2773.62 358.224 L2777.91 358.224 L2777.91 362.251 Q2779.43 359.913 2781.5 358.756 Q2783.58 357.599 2786.29 357.599 Q2790.75 357.599 2793.05 360.376 Q2795.34 363.131 2795.34 368.501 Z" fill="#000000" fill-rule="nonzero" fill-opacity="1" /><path clip-path="url(#clip840)" d="M2829.9 352.251 L2829.9 357.182 Q2827.54 354.983 2824.85 353.895 Q2822.19 352.807 2819.18 352.807 Q2813.25 352.807 2810.11 356.441 Q2806.96 360.052 2806.96 366.904 Q2806.96 373.733 2810.11 377.367 Q2813.25 380.978 2819.18 380.978 Q2822.19 380.978 2824.85 379.89 Q2827.54 378.802 2829.9 376.603 L2829.9 381.487 Q2827.44 383.154 2824.69 383.987 Q2821.96 384.821 2818.9 384.821 Q2811.06 384.821 2806.54 380.029 Q2802.03 375.214 2802.03 366.904 Q2802.03 358.571 2806.54 353.779 Q2811.06 348.964 2818.9 348.964 Q2822 348.964 2824.74 349.798 Q2827.49 350.608 2829.9 352.251 Z" fill="#000000" fill-rule="nonzero" fill-opacity="1" /><path clip-path="url(#clip840)" d="M2848.72 371.117 Q2843.55 371.117 2841.56 372.297 Q2839.57 373.478 2839.57 376.325 Q2839.57 378.594 2841.05 379.936 Q2842.56 381.256 2845.13 381.256 Q2848.67 381.256 2850.8 378.756 Q2852.95 376.233 2852.95 372.066 L2852.95 371.117 L2848.72 371.117 M2857.21 369.358 L2857.21 384.149 L2852.95 384.149 L2852.95 380.214 Q2851.49 382.575 2849.32 383.709 Q2847.14 384.821 2843.99 384.821 Q2840.01 384.821 2837.65 382.598 Q2835.31 380.353 2835.31 376.603 Q2835.31 372.228 2838.23 370.006 Q2841.17 367.784 2846.98 367.784 L2852.95 367.784 L2852.95 367.367 Q2852.95 364.427 2851.01 362.83 Q2849.09 361.21 2845.59 361.21 Q2843.37 361.21 2841.26 361.742 Q2839.16 362.274 2837.21 363.339 L2837.21 359.404 Q2839.55 358.501 2841.75 358.061 Q2843.95 357.599 2846.03 357.599 Q2851.66 357.599 2854.43 360.515 Q2857.21 363.432 2857.21 369.358 Z" fill="#000000" fill-rule="nonzero" fill-opacity="1" /><path clip-path="url(#clip840)" d="M2881.01 362.205 Q2880.29 361.788 2879.43 361.603 Q2878.6 361.395 2877.58 361.395 Q2873.97 361.395 2872.03 363.756 Q2870.11 366.094 2870.11 370.492 L2870.11 384.149 L2865.82 384.149 L2865.82 358.224 L2870.11 358.224 L2870.11 362.251 Q2871.45 359.89 2873.6 358.756 Q2875.75 357.599 2878.83 357.599 Q2879.27 357.599 2879.8 357.668 Q2880.34 357.714 2880.99 357.83 L2881.01 362.205 Z" fill="#000000" fill-rule="nonzero" fill-opacity="1" /><path clip-path="url(#clip840)" d="M2889.6 380.26 L2889.6 394.01 L2885.31 394.01 L2885.31 358.224 L2889.6 358.224 L2889.6 362.159 Q2890.94 359.844 2892.98 358.733 Q2895.04 357.599 2897.88 357.599 Q2902.61 357.599 2905.55 361.348 Q2908.51 365.098 2908.51 371.21 Q2908.51 377.321 2905.55 381.071 Q2902.61 384.821 2897.88 384.821 Q2895.04 384.821 2892.98 383.709 Q2890.94 382.575 2889.6 380.26 M2904.09 371.21 Q2904.09 366.51 2902.14 363.848 Q2900.22 361.163 2896.84 361.163 Q2893.46 361.163 2891.52 363.848 Q2889.6 366.51 2889.6 371.21 Q2889.6 375.909 2891.52 378.594 Q2893.46 381.256 2896.84 381.256 Q2900.22 381.256 2902.14 378.594 Q2904.09 375.909 2904.09 371.21 Z" fill="#000000" fill-rule="nonzero" fill-opacity="1" /><path clip-path="url(#clip840)" d="M2929.02 353.663 L2917.21 372.112 L2929.02 372.112 L2929.02 353.663 M2927.79 349.589 L2933.67 349.589 L2933.67 372.112 L2938.6 372.112 L2938.6 376.001 L2933.67 376.001 L2933.67 384.149 L2929.02 384.149 L2929.02 376.001 L2913.42 376.001 L2913.42 371.487 L2927.79 349.589 Z" fill="#000000" fill-rule="nonzero" fill-opacity="1" /><path clip-path="url(#clip840)" d="M2945.15 349.589 L2967.37 349.589 L2967.37 351.58 L2954.83 384.149 L2949.94 384.149 L2961.75 353.524 L2945.15 353.524 L2945.15 349.589 Z" fill="#000000" fill-rule="nonzero" fill-opacity="1" /><polyline clip-path="url(#clip840)" style="stroke:#c271d2; stroke-linecap:round; stroke-linejoin:round; stroke-width:8; stroke-opacity:1; fill:none" points="2501.9,418.709 2685.48,418.709 "/>
<path clip-path="url(#clip840)" d="M2593.69 395.954 L2570.93 418.709 L2593.69 441.465 L2616.44 418.709 L2593.69 395.954 Z" fill="#c271d2" fill-rule="evenodd" fill-opacity="1" stroke="#000000" stroke-opacity="1" stroke-width="4.55111"/>
<path clip-path="url(#clip840)" d="M2716.08 401.429 L2720.75 401.429 L2720.75 416.036 L2736.26 401.429 L2742.28 401.429 L2725.13 417.54 L2743.51 435.989 L2737.35 435.989 L2720.75 419.346 L2720.75 435.989 L2716.08 435.989 L2716.08 401.429 Z" fill="#000000" fill-rule="nonzero" fill-opacity="1" /><path clip-path="url(#clip840)" d="M2766.8 421.962 L2766.8 424.045 L2747.21 424.045 Q2747.49 428.443 2749.85 430.758 Q2752.24 433.049 2756.47 433.049 Q2758.93 433.049 2761.22 432.448 Q2763.53 431.846 2765.8 430.642 L2765.8 434.67 Q2763.51 435.642 2761.1 436.151 Q2758.69 436.661 2756.22 436.661 Q2750.01 436.661 2746.38 433.049 Q2742.77 429.438 2742.77 423.281 Q2742.77 416.915 2746.19 413.188 Q2749.64 409.439 2755.48 409.439 Q2760.71 409.439 2763.74 412.818 Q2766.8 416.175 2766.8 421.962 M2762.54 420.712 Q2762.49 417.216 2760.57 415.133 Q2758.67 413.05 2755.52 413.05 Q2751.96 413.05 2749.81 415.063 Q2747.68 417.077 2747.35 420.735 L2762.54 420.712 Z" fill="#000000" fill-rule="nonzero" fill-opacity="1" /><path clip-path="url(#clip840)" d="M2795.34 420.341 L2795.34 435.989 L2791.08 435.989 L2791.08 420.48 Q2791.08 416.8 2789.64 414.971 Q2788.21 413.142 2785.34 413.142 Q2781.89 413.142 2779.9 415.341 Q2777.91 417.54 2777.91 421.337 L2777.91 435.989 L2773.62 435.989 L2773.62 410.064 L2777.91 410.064 L2777.91 414.091 Q2779.43 411.753 2781.5 410.596 Q2783.58 409.439 2786.29 409.439 Q2790.75 409.439 2793.05 412.216 Q2795.34 414.971 2795.34 420.341 Z" fill="#000000" fill-rule="nonzero" fill-opacity="1" /><path clip-path="url(#clip840)" d="M2829.9 404.091 L2829.9 409.022 Q2827.54 406.823 2824.85 405.735 Q2822.19 404.647 2819.18 404.647 Q2813.25 404.647 2810.11 408.281 Q2806.96 411.892 2806.96 418.744 Q2806.96 425.573 2810.11 429.207 Q2813.25 432.818 2819.18 432.818 Q2822.19 432.818 2824.85 431.73 Q2827.54 430.642 2829.9 428.443 L2829.9 433.327 Q2827.44 434.994 2824.69 435.827 Q2821.96 436.661 2818.9 436.661 Q2811.06 436.661 2806.54 431.869 Q2802.03 427.054 2802.03 418.744 Q2802.03 410.411 2806.54 405.619 Q2811.06 400.804 2818.9 400.804 Q2822 400.804 2824.74 401.638 Q2827.49 402.448 2829.9 404.091 Z" fill="#000000" fill-rule="nonzero" fill-opacity="1" /><path clip-path="url(#clip840)" d="M2848.72 422.957 Q2843.55 422.957 2841.56 424.137 Q2839.57 425.318 2839.57 428.165 Q2839.57 430.434 2841.05 431.776 Q2842.56 433.096 2845.13 433.096 Q2848.67 433.096 2850.8 430.596 Q2852.95 428.073 2852.95 423.906 L2852.95 422.957 L2848.72 422.957 M2857.21 421.198 L2857.21 435.989 L2852.95 435.989 L2852.95 432.054 Q2851.49 434.415 2849.32 435.549 Q2847.14 436.661 2843.99 436.661 Q2840.01 436.661 2837.65 434.438 Q2835.31 432.193 2835.31 428.443 Q2835.31 424.068 2838.23 421.846 Q2841.17 419.624 2846.98 419.624 L2852.95 419.624 L2852.95 419.207 Q2852.95 416.267 2851.01 414.67 Q2849.09 413.05 2845.59 413.05 Q2843.37 413.05 2841.26 413.582 Q2839.16 414.114 2837.21 415.179 L2837.21 411.244 Q2839.55 410.341 2841.75 409.901 Q2843.95 409.439 2846.03 409.439 Q2851.66 409.439 2854.43 412.355 Q2857.21 415.272 2857.21 421.198 Z" fill="#000000" fill-rule="nonzero" fill-opacity="1" /><path clip-path="url(#clip840)" d="M2881.01 414.045 Q2880.29 413.628 2879.43 413.443 Q2878.6 413.235 2877.58 413.235 Q2873.97 413.235 2872.03 415.596 Q2870.11 417.934 2870.11 422.332 L2870.11 435.989 L2865.82 435.989 L2865.82 410.064 L2870.11 410.064 L2870.11 414.091 Q2871.45 411.73 2873.6 410.596 Q2875.75 409.439 2878.83 409.439 Q2879.27 409.439 2879.8 409.508 Q2880.34 409.554 2880.99 409.67 L2881.01 414.045 Z" fill="#000000" fill-rule="nonzero" fill-opacity="1" /><path clip-path="url(#clip840)" d="M2889.6 432.1 L2889.6 445.85 L2885.31 445.85 L2885.31 410.064 L2889.6 410.064 L2889.6 413.999 Q2890.94 411.684 2892.98 410.573 Q2895.04 409.439 2897.88 409.439 Q2902.61 409.439 2905.55 413.188 Q2908.51 416.938 2908.51 423.05 Q2908.51 429.161 2905.55 432.911 Q2902.61 436.661 2897.88 436.661 Q2895.04 436.661 2892.98 435.549 Q2890.94 434.415 2889.6 432.1 M2904.09 423.05 Q2904.09 418.35 2902.14 415.688 Q2900.22 413.003 2896.84 413.003 Q2893.46 413.003 2891.52 415.688 Q2889.6 418.35 2889.6 423.05 Q2889.6 427.749 2891.52 430.434 Q2893.46 433.096 2896.84 433.096 Q2900.22 433.096 2902.14 430.434 Q2904.09 427.749 2904.09 423.05 Z" fill="#000000" fill-rule="nonzero" fill-opacity="1" /><path clip-path="url(#clip840)" d="M2916.22 401.429 L2934.57 401.429 L2934.57 405.364 L2920.5 405.364 L2920.5 413.837 Q2921.52 413.489 2922.54 413.327 Q2923.55 413.142 2924.57 413.142 Q2930.36 413.142 2933.74 416.313 Q2937.12 419.485 2937.12 424.901 Q2937.12 430.48 2933.65 433.582 Q2930.17 436.661 2923.86 436.661 Q2921.68 436.661 2919.41 436.29 Q2917.17 435.92 2914.76 435.179 L2914.76 430.48 Q2916.84 431.614 2919.06 432.17 Q2921.29 432.725 2923.76 432.725 Q2927.77 432.725 2930.11 430.619 Q2932.44 428.512 2932.44 424.901 Q2932.44 421.29 2930.11 419.184 Q2927.77 417.077 2923.76 417.077 Q2921.89 417.077 2920.01 417.494 Q2918.16 417.911 2916.22 418.79 L2916.22 401.429 Z" fill="#000000" fill-rule="nonzero" fill-opacity="1" /><polyline clip-path="url(#clip840)" style="stroke:#ac8d18; stroke-linecap:round; stroke-linejoin:round; stroke-width:8; stroke-opacity:1; fill:none" points="2501.9,470.549 2685.48,470.549 "/>
<path clip-path="url(#clip840)" d="M2593.69 493.305 L2573.98 481.927 L2573.98 459.172 L2593.69 447.794 L2613.4 459.172 L2613.4 481.927 Z" fill="#ac8d18" fill-rule="evenodd" fill-opacity="1" stroke="#000000" stroke-opacity="1" stroke-width="4.55111"/>
<path clip-path="url(#clip840)" d="M2716.08 453.269 L2720.75 453.269 L2720.75 467.876 L2736.26 453.269 L2742.28 453.269 L2725.13 469.38 L2743.51 487.829 L2737.35 487.829 L2720.75 471.186 L2720.75 487.829 L2716.08 487.829 L2716.08 453.269 Z" fill="#000000" fill-rule="nonzero" fill-opacity="1" /><path clip-path="url(#clip840)" d="M2743.93 461.904 L2748.44 461.904 L2756.54 483.663 L2764.64 461.904 L2769.16 461.904 L2759.44 487.829 L2753.65 487.829 L2743.93 461.904 Z" fill="#000000" fill-rule="nonzero" fill-opacity="1" /><path clip-path="url(#clip840)" d="M2786.82 474.797 Q2781.66 474.797 2779.67 475.977 Q2777.68 477.158 2777.68 480.005 Q2777.68 482.274 2779.16 483.616 Q2780.66 484.936 2783.23 484.936 Q2786.77 484.936 2788.9 482.436 Q2791.06 479.913 2791.06 475.746 L2791.06 474.797 L2786.82 474.797 M2795.31 473.038 L2795.31 487.829 L2791.06 487.829 L2791.06 483.894 Q2789.6 486.255 2787.42 487.389 Q2785.25 488.501 2782.1 488.501 Q2778.12 488.501 2775.75 486.278 Q2773.42 484.033 2773.42 480.283 Q2773.42 475.908 2776.33 473.686 Q2779.27 471.464 2785.08 471.464 L2791.06 471.464 L2791.06 471.047 Q2791.06 468.107 2789.11 466.51 Q2787.19 464.89 2783.69 464.89 Q2781.47 464.89 2779.37 465.422 Q2777.26 465.954 2775.31 467.019 L2775.31 463.084 Q2777.65 462.181 2779.85 461.741 Q2782.05 461.279 2784.13 461.279 Q2789.76 461.279 2792.54 464.195 Q2795.31 467.112 2795.31 473.038 Z" fill="#000000" fill-rule="nonzero" fill-opacity="1" /><path clip-path="url(#clip840)" d="M2826.26 473.802 L2826.26 475.885 L2806.68 475.885 Q2806.96 480.283 2809.32 482.598 Q2811.7 484.889 2815.94 484.889 Q2818.39 484.889 2820.68 484.288 Q2823 483.686 2825.27 482.482 L2825.27 486.51 Q2822.98 487.482 2820.57 487.991 Q2818.16 488.501 2815.68 488.501 Q2809.48 488.501 2805.85 484.889 Q2802.24 481.278 2802.24 475.121 Q2802.24 468.755 2805.66 465.028 Q2809.11 461.279 2814.94 461.279 Q2820.18 461.279 2823.21 464.658 Q2826.26 468.015 2826.26 473.802 M2822 472.552 Q2821.96 469.056 2820.04 466.973 Q2818.14 464.89 2814.99 464.89 Q2811.43 464.89 2809.27 466.903 Q2807.14 468.917 2806.82 472.575 L2822 472.552 Z" fill="#000000" fill-rule="nonzero" fill-opacity="1" /><path clip-path="url(#clip840)" d="M2848.28 465.885 Q2847.56 465.468 2846.7 465.283 Q2845.87 465.075 2844.85 465.075 Q2841.24 465.075 2839.3 467.436 Q2837.37 469.774 2837.37 474.172 L2837.37 487.829 L2833.09 487.829 L2833.09 461.904 L2837.37 461.904 L2837.37 465.931 Q2838.72 463.57 2840.87 462.436 Q2843.02 461.279 2846.1 461.279 Q2846.54 461.279 2847.07 461.348 Q2847.61 461.394 2848.25 461.51 L2848.28 465.885 Z" fill="#000000" fill-rule="nonzero" fill-opacity="1" /><path clip-path="url(#clip840)" d="M2873.46 472.181 L2873.46 487.829 L2869.2 487.829 L2869.2 472.32 Q2869.2 468.64 2867.77 466.811 Q2866.33 464.982 2863.46 464.982 Q2860.01 464.982 2858.02 467.181 Q2856.03 469.38 2856.03 473.177 L2856.03 487.829 L2851.75 487.829 L2851.75 461.904 L2856.03 461.904 L2856.03 465.931 Q2857.56 463.593 2859.62 462.436 Q2861.7 461.279 2864.41 461.279 Q2868.88 461.279 2871.17 464.056 Q2873.46 466.811 2873.46 472.181 Z" fill="#000000" fill-rule="nonzero" fill-opacity="1" /><path clip-path="url(#clip840)" d="M2892 464.89 Q2888.58 464.89 2886.59 467.575 Q2884.6 470.237 2884.6 474.89 Q2884.6 479.542 2886.56 482.227 Q2888.55 484.889 2892 484.889 Q2895.41 484.889 2897.4 482.204 Q2899.39 479.519 2899.39 474.89 Q2899.39 470.283 2897.4 467.598 Q2895.41 464.89 2892 464.89 M2892 461.279 Q2897.56 461.279 2900.73 464.89 Q2903.9 468.501 2903.9 474.89 Q2903.9 481.255 2900.73 484.889 Q2897.56 488.501 2892 488.501 Q2886.43 488.501 2883.25 484.889 Q2880.11 481.255 2880.11 474.89 Q2880.11 468.501 2883.25 464.89 Q2886.43 461.279 2892 461.279 Z" fill="#000000" fill-rule="nonzero" fill-opacity="1" /><path clip-path="url(#clip840)" d="M2911.61 453.269 L2929.97 453.269 L2929.97 457.204 L2915.89 457.204 L2915.89 465.677 Q2916.91 465.329 2917.93 465.167 Q2918.95 464.982 2919.97 464.982 Q2925.75 464.982 2929.13 468.153 Q2932.51 471.325 2932.51 476.741 Q2932.51 482.32 2929.04 485.422 Q2925.57 488.501 2919.25 488.501 Q2917.07 488.501 2914.8 488.13 Q2912.56 487.76 2910.15 487.019 L2910.15 482.32 Q2912.24 483.454 2914.46 484.01 Q2916.68 484.565 2919.16 484.565 Q2923.16 484.565 2925.5 482.459 Q2927.84 480.352 2927.84 476.741 Q2927.84 473.13 2925.5 471.024 Q2923.16 468.917 2919.16 468.917 Q2917.28 468.917 2915.41 469.334 Q2913.55 469.751 2911.61 470.63 L2911.61 453.269 Z" fill="#000000" fill-rule="nonzero" fill-opacity="1" /><polyline clip-path="url(#clip840)" style="stroke:#00a9ad; stroke-linecap:round; stroke-linejoin:round; stroke-width:8; stroke-opacity:1; fill:none" points="2501.9,522.389 2685.48,522.389 "/>
<line clip-path="url(#clip840)" x1="2593.69" y1="522.389" x2="2593.69" y2="499.634" style="stroke:#00a9ad; stroke-width:8; stroke-opacity:1"/>
<line clip-path="url(#clip840)" x1="2593.69" y1="522.389" x2="2570.93" y2="522.389" style="stroke:#00a9ad; stroke-width:8; stroke-opacity:1"/>
<line clip-path="url(#clip840)" x1="2593.69" y1="522.389" x2="2593.69" y2="545.145" style="stroke:#00a9ad; stroke-width:8; stroke-opacity:1"/>
<line clip-path="url(#clip840)" x1="2593.69" y1="522.389" x2="2616.44" y2="522.389" style="stroke:#00a9ad; stroke-width:8; stroke-opacity:1"/>
<path clip-path="url(#clip840)" d="M2732.47 523.466 Q2733.97 523.975 2735.38 525.642 Q2736.82 527.308 2738.25 530.225 L2743 539.669 L2737.98 539.669 L2733.56 530.804 Q2731.84 527.331 2730.22 526.197 Q2728.63 525.063 2725.85 525.063 L2720.75 525.063 L2720.75 539.669 L2716.08 539.669 L2716.08 505.109 L2726.63 505.109 Q2732.56 505.109 2735.48 507.586 Q2738.39 510.063 2738.39 515.063 Q2738.39 518.327 2736.87 520.48 Q2735.36 522.632 2732.47 523.466 M2720.75 508.952 L2720.75 521.22 L2726.63 521.22 Q2730.01 521.22 2731.73 519.669 Q2733.46 518.095 2733.46 515.063 Q2733.46 512.031 2731.73 510.503 Q2730.01 508.952 2726.63 508.952 L2720.75 508.952 Z" fill="#000000" fill-rule="nonzero" fill-opacity="1" /><path clip-path="url(#clip840)" d="M2756.75 516.73 Q2753.32 516.73 2751.33 519.415 Q2749.34 522.077 2749.34 526.73 Q2749.34 531.382 2751.31 534.067 Q2753.3 536.729 2756.75 536.729 Q2760.15 536.729 2762.14 534.044 Q2764.13 531.359 2764.13 526.73 Q2764.13 522.123 2762.14 519.438 Q2760.15 516.73 2756.75 516.73 M2756.75 513.119 Q2762.31 513.119 2765.48 516.73 Q2768.65 520.341 2768.65 526.73 Q2768.65 533.095 2765.48 536.729 Q2762.31 540.341 2756.75 540.341 Q2751.17 540.341 2748 536.729 Q2744.85 533.095 2744.85 526.73 Q2744.85 520.341 2748 516.73 Q2751.17 513.119 2756.75 513.119 Z" fill="#000000" fill-rule="nonzero" fill-opacity="1" /><path clip-path="url(#clip840)" d="M2792.77 517.679 L2792.77 503.651 L2797.03 503.651 L2797.03 539.669 L2792.77 539.669 L2792.77 535.78 Q2791.43 538.095 2789.37 539.229 Q2787.33 540.341 2784.46 540.341 Q2779.76 540.341 2776.8 536.591 Q2773.86 532.841 2773.86 526.73 Q2773.86 520.618 2776.8 516.868 Q2779.76 513.119 2784.46 513.119 Q2787.33 513.119 2789.37 514.253 Q2791.43 515.364 2792.77 517.679 M2778.25 526.73 Q2778.25 531.429 2780.18 534.114 Q2782.12 536.776 2785.5 536.776 Q2788.88 536.776 2790.82 534.114 Q2792.77 531.429 2792.77 526.73 Q2792.77 522.03 2790.82 519.368 Q2788.88 516.683 2785.5 516.683 Q2782.12 516.683 2780.18 519.368 Q2778.25 522.03 2778.25 526.73 Z" fill="#000000" fill-rule="nonzero" fill-opacity="1" /><path clip-path="url(#clip840)" d="M2817.58 526.637 Q2812.42 526.637 2810.43 527.817 Q2808.44 528.998 2808.44 531.845 Q2808.44 534.114 2809.92 535.456 Q2811.43 536.776 2813.99 536.776 Q2817.54 536.776 2819.67 534.276 Q2821.82 531.753 2821.82 527.586 L2821.82 526.637 L2817.58 526.637 M2826.08 524.878 L2826.08 539.669 L2821.82 539.669 L2821.82 535.734 Q2820.36 538.095 2818.18 539.229 Q2816.01 540.341 2812.86 540.341 Q2808.88 540.341 2806.52 538.118 Q2804.18 535.873 2804.18 532.123 Q2804.18 527.748 2807.1 525.526 Q2810.04 523.304 2815.85 523.304 L2821.82 523.304 L2821.82 522.887 Q2821.82 519.947 2819.87 518.35 Q2817.95 516.73 2814.46 516.73 Q2812.24 516.73 2810.13 517.262 Q2808.02 517.794 2806.08 518.859 L2806.08 514.924 Q2808.42 514.021 2810.62 513.581 Q2812.81 513.119 2814.9 513.119 Q2820.52 513.119 2823.3 516.035 Q2826.08 518.952 2826.08 524.878 Z" fill="#000000" fill-rule="nonzero" fill-opacity="1" /><path clip-path="url(#clip840)" d="M2851.38 514.507 L2851.38 518.535 Q2849.57 517.609 2847.63 517.146 Q2845.68 516.683 2843.6 516.683 Q2840.43 516.683 2838.83 517.656 Q2837.26 518.628 2837.26 520.572 Q2837.26 522.054 2838.39 522.91 Q2839.53 523.743 2842.95 524.507 L2844.41 524.831 Q2848.95 525.804 2850.85 527.586 Q2852.77 529.345 2852.77 532.517 Q2852.77 536.128 2849.9 538.234 Q2847.05 540.341 2842.05 540.341 Q2839.97 540.341 2837.7 539.924 Q2835.45 539.53 2832.95 538.72 L2832.95 534.322 Q2835.31 535.549 2837.61 536.174 Q2839.9 536.776 2842.14 536.776 Q2845.15 536.776 2846.77 535.757 Q2848.39 534.716 2848.39 532.841 Q2848.39 531.105 2847.21 530.179 Q2846.05 529.253 2842.1 528.396 L2840.62 528.049 Q2836.66 527.216 2834.9 525.503 Q2833.14 523.767 2833.14 520.757 Q2833.14 517.1 2835.73 515.109 Q2838.32 513.119 2843.09 513.119 Q2845.45 513.119 2847.54 513.466 Q2849.62 513.813 2851.38 514.507 Z" fill="#000000" fill-rule="nonzero" fill-opacity="1" /><path clip-path="url(#clip840)" d="M2873 509.183 L2861.19 527.632 L2873 527.632 L2873 509.183 M2871.77 505.109 L2877.65 505.109 L2877.65 527.632 L2882.58 527.632 L2882.58 531.521 L2877.65 531.521 L2877.65 539.669 L2873 539.669 L2873 531.521 L2857.4 531.521 L2857.4 527.007 L2871.77 505.109 Z" fill="#000000" fill-rule="nonzero" fill-opacity="1" /><path clip-path="url(#clip840)" d="M2894.57 508.952 L2894.57 521.938 L2900.45 521.938 Q2903.72 521.938 2905.5 520.248 Q2907.28 518.558 2907.28 515.433 Q2907.28 512.331 2905.5 510.642 Q2903.72 508.952 2900.45 508.952 L2894.57 508.952 M2889.9 505.109 L2900.45 505.109 Q2906.26 505.109 2909.23 507.748 Q2912.21 510.364 2912.21 515.433 Q2912.21 520.549 2909.23 523.165 Q2906.26 525.78 2900.45 525.78 L2894.57 525.78 L2894.57 539.669 L2889.9 539.669 L2889.9 505.109 Z" fill="#000000" fill-rule="nonzero" fill-opacity="1" /><polyline clip-path="url(#clip840)" style="stroke:#ed5d92; stroke-linecap:round; stroke-linejoin:round; stroke-width:8; stroke-opacity:1; fill:none" points="2501.9,574.229 2685.48,574.229 "/>
<line clip-path="url(#clip840)" x1="2593.69" y1="574.229" x2="2570.93" y2="551.474" style="stroke:#ed5d92; stroke-width:8; stroke-opacity:1"/>
<line clip-path="url(#clip840)" x1="2593.69" y1="574.229" x2="2570.93" y2="596.985" style="stroke:#ed5d92; stroke-width:8; stroke-opacity:1"/>
<line clip-path="url(#clip840)" x1="2593.69" y1="574.229" x2="2616.44" y2="596.985" style="stroke:#ed5d92; stroke-width:8; stroke-opacity:1"/>
<line clip-path="url(#clip840)" x1="2593.69" y1="574.229" x2="2616.44" y2="551.474" style="stroke:#ed5d92; stroke-width:8; stroke-opacity:1"/>
<path clip-path="url(#clip840)" d="M2732.47 575.306 Q2733.97 575.815 2735.38 577.482 Q2736.82 579.148 2738.25 582.065 L2743 591.509 L2737.98 591.509 L2733.56 582.644 Q2731.84 579.171 2730.22 578.037 Q2728.63 576.903 2725.85 576.903 L2720.75 576.903 L2720.75 591.509 L2716.08 591.509 L2716.08 556.949 L2726.63 556.949 Q2732.56 556.949 2735.48 559.426 Q2738.39 561.903 2738.39 566.903 Q2738.39 570.167 2736.87 572.32 Q2735.36 574.472 2732.47 575.306 M2720.75 560.792 L2720.75 573.06 L2726.63 573.06 Q2730.01 573.06 2731.73 571.509 Q2733.46 569.935 2733.46 566.903 Q2733.46 563.871 2731.73 562.343 Q2730.01 560.792 2726.63 560.792 L2720.75 560.792 Z" fill="#000000" fill-rule="nonzero" fill-opacity="1" /><path clip-path="url(#clip840)" d="M2756.75 568.57 Q2753.32 568.57 2751.33 571.255 Q2749.34 573.917 2749.34 578.57 Q2749.34 583.222 2751.31 585.907 Q2753.3 588.569 2756.75 588.569 Q2760.15 588.569 2762.14 585.884 Q2764.13 583.199 2764.13 578.57 Q2764.13 573.963 2762.14 571.278 Q2760.15 568.57 2756.75 568.57 M2756.75 564.959 Q2762.31 564.959 2765.48 568.57 Q2768.65 572.181 2768.65 578.57 Q2768.65 584.935 2765.48 588.569 Q2762.31 592.181 2756.75 592.181 Q2751.17 592.181 2748 588.569 Q2744.85 584.935 2744.85 578.57 Q2744.85 572.181 2748 568.57 Q2751.17 564.959 2756.75 564.959 Z" fill="#000000" fill-rule="nonzero" fill-opacity="1" /><path clip-path="url(#clip840)" d="M2792.77 569.519 L2792.77 555.491 L2797.03 555.491 L2797.03 591.509 L2792.77 591.509 L2792.77 587.62 Q2791.43 589.935 2789.37 591.069 Q2787.33 592.181 2784.46 592.181 Q2779.76 592.181 2776.8 588.431 Q2773.86 584.681 2773.86 578.57 Q2773.86 572.458 2776.8 568.708 Q2779.76 564.959 2784.46 564.959 Q2787.33 564.959 2789.37 566.093 Q2791.43 567.204 2792.77 569.519 M2778.25 578.57 Q2778.25 583.269 2780.18 585.954 Q2782.12 588.616 2785.5 588.616 Q2788.88 588.616 2790.82 585.954 Q2792.77 583.269 2792.77 578.57 Q2792.77 573.87 2790.82 571.208 Q2788.88 568.523 2785.5 568.523 Q2782.12 568.523 2780.18 571.208 Q2778.25 573.87 2778.25 578.57 Z" fill="#000000" fill-rule="nonzero" fill-opacity="1" /><path clip-path="url(#clip840)" d="M2817.58 578.477 Q2812.42 578.477 2810.43 579.657 Q2808.44 580.838 2808.44 583.685 Q2808.44 585.954 2809.92 587.296 Q2811.43 588.616 2813.99 588.616 Q2817.54 588.616 2819.67 586.116 Q2821.82 583.593 2821.82 579.426 L2821.82 578.477 L2817.58 578.477 M2826.08 576.718 L2826.08 591.509 L2821.82 591.509 L2821.82 587.574 Q2820.36 589.935 2818.18 591.069 Q2816.01 592.181 2812.86 592.181 Q2808.88 592.181 2806.52 589.958 Q2804.18 587.713 2804.18 583.963 Q2804.18 579.588 2807.1 577.366 Q2810.04 575.144 2815.85 575.144 L2821.82 575.144 L2821.82 574.727 Q2821.82 571.787 2819.87 570.19 Q2817.95 568.57 2814.46 568.57 Q2812.24 568.57 2810.13 569.102 Q2808.02 569.634 2806.08 570.699 L2806.08 566.764 Q2808.42 565.861 2810.62 565.421 Q2812.81 564.959 2814.9 564.959 Q2820.52 564.959 2823.3 567.875 Q2826.08 570.792 2826.08 576.718 Z" fill="#000000" fill-rule="nonzero" fill-opacity="1" /><path clip-path="url(#clip840)" d="M2851.38 566.347 L2851.38 570.375 Q2849.57 569.449 2847.63 568.986 Q2845.68 568.523 2843.6 568.523 Q2840.43 568.523 2838.83 569.496 Q2837.26 570.468 2837.26 572.412 Q2837.26 573.894 2838.39 574.75 Q2839.53 575.583 2842.95 576.347 L2844.41 576.671 Q2848.95 577.644 2850.85 579.426 Q2852.77 581.185 2852.77 584.357 Q2852.77 587.968 2849.9 590.074 Q2847.05 592.181 2842.05 592.181 Q2839.97 592.181 2837.7 591.764 Q2835.45 591.37 2832.95 590.56 L2832.95 586.162 Q2835.31 587.389 2837.61 588.014 Q2839.9 588.616 2842.14 588.616 Q2845.15 588.616 2846.77 587.597 Q2848.39 586.556 2848.39 584.681 Q2848.39 582.945 2847.21 582.019 Q2846.05 581.093 2842.1 580.236 L2840.62 579.889 Q2836.66 579.056 2834.9 577.343 Q2833.14 575.607 2833.14 572.597 Q2833.14 568.94 2835.73 566.949 Q2838.32 564.959 2843.09 564.959 Q2845.45 564.959 2847.54 565.306 Q2849.62 565.653 2851.38 566.347 Z" fill="#000000" fill-rule="nonzero" fill-opacity="1" /><path clip-path="url(#clip840)" d="M2860.2 556.949 L2878.55 556.949 L2878.55 560.884 L2864.48 560.884 L2864.48 569.357 Q2865.5 569.009 2866.52 568.847 Q2867.54 568.662 2868.55 568.662 Q2874.34 568.662 2877.72 571.833 Q2881.1 575.005 2881.1 580.421 Q2881.1 586 2877.63 589.102 Q2874.16 592.181 2867.84 592.181 Q2865.66 592.181 2863.39 591.81 Q2861.15 591.44 2858.74 590.699 L2858.74 586 Q2860.82 587.134 2863.05 587.69 Q2865.27 588.245 2867.74 588.245 Q2871.75 588.245 2874.09 586.139 Q2876.43 584.032 2876.43 580.421 Q2876.43 576.81 2874.09 574.704 Q2871.75 572.597 2867.74 572.597 Q2865.87 572.597 2863.99 573.014 Q2862.14 573.431 2860.2 574.31 L2860.2 556.949 Z" fill="#000000" fill-rule="nonzero" fill-opacity="1" /><path clip-path="url(#clip840)" d="M2894.57 560.792 L2894.57 573.778 L2900.45 573.778 Q2903.72 573.778 2905.5 572.088 Q2907.28 570.398 2907.28 567.273 Q2907.28 564.171 2905.5 562.482 Q2903.72 560.792 2900.45 560.792 L2894.57 560.792 M2889.9 556.949 L2900.45 556.949 Q2906.26 556.949 2909.23 559.588 Q2912.21 562.204 2912.21 567.273 Q2912.21 572.389 2909.23 575.005 Q2906.26 577.62 2900.45 577.62 L2894.57 577.62 L2894.57 591.509 L2889.9 591.509 L2889.9 556.949 Z" fill="#000000" fill-rule="nonzero" fill-opacity="1" /><polyline clip-path="url(#clip840)" style="stroke:#c68125; stroke-linecap:round; stroke-linejoin:round; stroke-width:8; stroke-opacity:1; fill:none" points="2501.9,626.069 2685.48,626.069 "/>
<path clip-path="url(#clip840)" d="M2593.69 603.314 L2570.93 648.825 L2616.44 648.825 L2593.69 603.314 Z" fill="#c68125" fill-rule="evenodd" fill-opacity="1" stroke="#000000" stroke-opacity="1" stroke-width="4.55111"/>
<path clip-path="url(#clip840)" d="M2732.47 627.146 Q2733.97 627.655 2735.38 629.322 Q2736.82 630.988 2738.25 633.905 L2743 643.349 L2737.98 643.349 L2733.56 634.484 Q2731.84 631.011 2730.22 629.877 Q2728.63 628.743 2725.85 628.743 L2720.75 628.743 L2720.75 643.349 L2716.08 643.349 L2716.08 608.789 L2726.63 608.789 Q2732.56 608.789 2735.48 611.266 Q2738.39 613.743 2738.39 618.743 Q2738.39 622.007 2736.87 624.16 Q2735.36 626.312 2732.47 627.146 M2720.75 612.632 L2720.75 624.9 L2726.63 624.9 Q2730.01 624.9 2731.73 623.349 Q2733.46 621.775 2733.46 618.743 Q2733.46 615.711 2731.73 614.183 Q2730.01 612.632 2726.63 612.632 L2720.75 612.632 Z" fill="#000000" fill-rule="nonzero" fill-opacity="1" /><path clip-path="url(#clip840)" d="M2756.75 620.41 Q2753.32 620.41 2751.33 623.095 Q2749.34 625.757 2749.34 630.41 Q2749.34 635.062 2751.31 637.747 Q2753.3 640.409 2756.75 640.409 Q2760.15 640.409 2762.14 637.724 Q2764.13 635.039 2764.13 630.41 Q2764.13 625.803 2762.14 623.118 Q2760.15 620.41 2756.75 620.41 M2756.75 616.799 Q2762.31 616.799 2765.48 620.41 Q2768.65 624.021 2768.65 630.41 Q2768.65 636.775 2765.48 640.409 Q2762.31 644.021 2756.75 644.021 Q2751.17 644.021 2748 640.409 Q2744.85 636.775 2744.85 630.41 Q2744.85 624.021 2748 620.41 Q2751.17 616.799 2756.75 616.799 Z" fill="#000000" fill-rule="nonzero" fill-opacity="1" /><path clip-path="url(#clip840)" d="M2792.77 621.359 L2792.77 607.331 L2797.03 607.331 L2797.03 643.349 L2792.77 643.349 L2792.77 639.46 Q2791.43 641.775 2789.37 642.909 Q2787.33 644.021 2784.46 644.021 Q2779.76 644.021 2776.8 640.271 Q2773.86 636.521 2773.86 630.41 Q2773.86 624.298 2776.8 620.548 Q2779.76 616.799 2784.46 616.799 Q2787.33 616.799 2789.37 617.933 Q2791.43 619.044 2792.77 621.359 M2778.25 630.41 Q2778.25 635.109 2780.18 637.794 Q2782.12 640.456 2785.5 640.456 Q2788.88 640.456 2790.82 637.794 Q2792.77 635.109 2792.77 630.41 Q2792.77 625.71 2790.82 623.048 Q2788.88 620.363 2785.5 620.363 Q2782.12 620.363 2780.18 623.048 Q2778.25 625.71 2778.25 630.41 Z" fill="#000000" fill-rule="nonzero" fill-opacity="1" /><path clip-path="url(#clip840)" d="M2817.58 630.317 Q2812.42 630.317 2810.43 631.497 Q2808.44 632.678 2808.44 635.525 Q2808.44 637.794 2809.92 639.136 Q2811.43 640.456 2813.99 640.456 Q2817.54 640.456 2819.67 637.956 Q2821.82 635.433 2821.82 631.266 L2821.82 630.317 L2817.58 630.317 M2826.08 628.558 L2826.08 643.349 L2821.82 643.349 L2821.82 639.414 Q2820.36 641.775 2818.18 642.909 Q2816.01 644.021 2812.86 644.021 Q2808.88 644.021 2806.52 641.798 Q2804.18 639.553 2804.18 635.803 Q2804.18 631.428 2807.1 629.206 Q2810.04 626.984 2815.85 626.984 L2821.82 626.984 L2821.82 626.567 Q2821.82 623.627 2819.87 622.03 Q2817.95 620.41 2814.46 620.41 Q2812.24 620.41 2810.13 620.942 Q2808.02 621.474 2806.08 622.539 L2806.08 618.604 Q2808.42 617.701 2810.62 617.261 Q2812.81 616.799 2814.9 616.799 Q2820.52 616.799 2823.3 619.715 Q2826.08 622.632 2826.08 628.558 Z" fill="#000000" fill-rule="nonzero" fill-opacity="1" /><path clip-path="url(#clip840)" d="M2851.38 618.187 L2851.38 622.215 Q2849.57 621.289 2847.63 620.826 Q2845.68 620.363 2843.6 620.363 Q2840.43 620.363 2838.83 621.336 Q2837.26 622.308 2837.26 624.252 Q2837.26 625.734 2838.39 626.59 Q2839.53 627.423 2842.95 628.187 L2844.41 628.511 Q2848.95 629.484 2850.85 631.266 Q2852.77 633.025 2852.77 636.197 Q2852.77 639.808 2849.9 641.914 Q2847.05 644.021 2842.05 644.021 Q2839.97 644.021 2837.7 643.604 Q2835.45 643.21 2832.95 642.4 L2832.95 638.002 Q2835.31 639.229 2837.61 639.854 Q2839.9 640.456 2842.14 640.456 Q2845.15 640.456 2846.77 639.437 Q2848.39 638.396 2848.39 636.521 Q2848.39 634.785 2847.21 633.859 Q2846.05 632.933 2842.1 632.076 L2840.62 631.729 Q2836.66 630.896 2834.9 629.183 Q2833.14 627.447 2833.14 624.437 Q2833.14 620.78 2835.73 618.789 Q2838.32 616.799 2843.09 616.799 Q2845.45 616.799 2847.54 617.146 Q2849.62 617.493 2851.38 618.187 Z" fill="#000000" fill-rule="nonzero" fill-opacity="1" /><path clip-path="url(#clip840)" d="M2870.73 624.206 Q2867.58 624.206 2865.73 626.359 Q2863.9 628.511 2863.9 632.261 Q2863.9 635.988 2865.73 638.164 Q2867.58 640.317 2870.73 640.317 Q2873.88 640.317 2875.71 638.164 Q2877.56 635.988 2877.56 632.261 Q2877.56 628.511 2875.71 626.359 Q2873.88 624.206 2870.73 624.206 M2880.01 609.553 L2880.01 613.812 Q2878.25 612.979 2876.45 612.539 Q2874.67 612.099 2872.91 612.099 Q2868.28 612.099 2865.82 615.224 Q2863.39 618.349 2863.05 624.669 Q2864.41 622.655 2866.47 621.59 Q2868.53 620.502 2871.01 620.502 Q2876.22 620.502 2879.23 623.673 Q2882.26 626.822 2882.26 632.261 Q2882.26 637.585 2879.11 640.803 Q2875.96 644.021 2870.73 644.021 Q2864.74 644.021 2861.56 639.437 Q2858.39 634.831 2858.39 626.104 Q2858.39 617.91 2862.28 613.049 Q2866.17 608.164 2872.72 608.164 Q2874.48 608.164 2876.26 608.512 Q2878.07 608.859 2880.01 609.553 Z" fill="#000000" fill-rule="nonzero" fill-opacity="1" /><path clip-path="url(#clip840)" d="M2894.57 612.632 L2894.57 625.618 L2900.45 625.618 Q2903.72 625.618 2905.5 623.928 Q2907.28 622.238 2907.28 619.113 Q2907.28 616.011 2905.5 614.322 Q2903.72 612.632 2900.45 612.632 L2894.57 612.632 M2889.9 608.789 L2900.45 608.789 Q2906.26 608.789 2909.23 611.428 Q2912.21 614.044 2912.21 619.113 Q2912.21 624.229 2909.23 626.845 Q2906.26 629.46 2900.45 629.46 L2894.57 629.46 L2894.57 643.349 L2889.9 643.349 L2889.9 608.789 Z" fill="#000000" fill-rule="nonzero" fill-opacity="1" /><polyline clip-path="url(#clip840)" style="stroke:#00a98d; stroke-linecap:round; stroke-linejoin:round; stroke-width:8; stroke-opacity:1; fill:none" points="2501.9,677.909 2685.48,677.909 "/>
<path clip-path="url(#clip840)" d="M2616.44 655.154 L2570.93 655.154 L2593.69 700.665 L2616.44 655.154 Z" fill="#00a98d" fill-rule="evenodd" fill-opacity="1" stroke="#000000" stroke-opacity="1" stroke-width="4.55111"/>
<path clip-path="url(#clip840)" d="M2732.1 663.801 Q2727 663.801 2724 667.597 Q2721.01 671.393 2721.01 677.944 Q2721.01 684.472 2724 688.268 Q2727 692.064 2732.1 692.064 Q2737.19 692.064 2740.15 688.268 Q2743.14 684.472 2743.14 677.944 Q2743.14 671.393 2740.15 667.597 Q2737.19 663.801 2732.1 663.801 M2738.65 694.564 L2744.81 701.3 L2739.16 701.3 L2734.04 695.768 Q2733.28 695.814 2732.86 695.837 Q2732.47 695.861 2732.1 695.861 Q2724.81 695.861 2720.43 690.999 Q2716.08 686.115 2716.08 677.944 Q2716.08 669.75 2720.43 664.889 Q2724.81 660.004 2732.1 660.004 Q2739.37 660.004 2743.72 664.889 Q2748.07 669.75 2748.07 677.944 Q2748.07 683.962 2745.64 688.245 Q2743.23 692.527 2738.65 694.564 Z" fill="#000000" fill-rule="nonzero" fill-opacity="1" /><path clip-path="url(#clip840)" d="M2755.38 660.629 L2761.68 660.629 L2777 689.541 L2777 660.629 L2781.54 660.629 L2781.54 695.189 L2775.25 695.189 L2759.92 666.277 L2759.92 695.189 L2755.38 695.189 L2755.38 660.629 Z" fill="#000000" fill-rule="nonzero" fill-opacity="1" /><path clip-path="url(#clip840)" d="M2795.52 664.472 L2795.52 691.347 L2801.17 691.347 Q2808.32 691.347 2811.63 688.106 Q2814.97 684.865 2814.97 677.875 Q2814.97 670.93 2811.63 667.713 Q2808.32 664.472 2801.17 664.472 L2795.52 664.472 M2790.85 660.629 L2800.45 660.629 Q2810.5 660.629 2815.2 664.819 Q2819.9 668.986 2819.9 677.875 Q2819.9 686.81 2815.18 690.999 Q2810.45 695.189 2800.45 695.189 L2790.85 695.189 L2790.85 660.629 Z" fill="#000000" fill-rule="nonzero" fill-opacity="1" /><path clip-path="url(#clip840)" d="M2827.35 660.629 L2847.21 660.629 L2847.21 664.564 L2832.03 664.564 L2832.03 674.75 L2845.73 674.75 L2845.73 678.685 L2832.03 678.685 L2832.03 695.189 L2827.35 695.189 L2827.35 660.629 Z" fill="#000000" fill-rule="nonzero" fill-opacity="1" /><polyline clip-path="url(#clip840)" style="stroke:#8e971d; stroke-linecap:round; stroke-linejoin:round; stroke-width:8; stroke-opacity:1; fill:none" points="2501.9,729.749 2685.48,729.749 "/>
<path clip-path="url(#clip840)" d="M2611.89 729.749 L2584.59 713.82 L2584.59 745.678 L2611.89 729.749 Z" fill="#8e971d" fill-rule="evenodd" fill-opacity="1" stroke="#000000" stroke-opacity="1" stroke-width="4.55111"/>
<path clip-path="url(#clip840)" d="M2716.08 712.469 L2735.94 712.469 L2735.94 716.404 L2720.75 716.404 L2720.75 726.59 L2734.46 726.59 L2734.46 730.525 L2720.75 730.525 L2720.75 747.029 L2716.08 747.029 L2716.08 712.469 Z" fill="#000000" fill-rule="nonzero" fill-opacity="1" /><path clip-path="url(#clip840)" d="M2748.02 730.525 L2748.02 743.187 L2755.52 743.187 Q2759.3 743.187 2761.1 741.636 Q2762.93 740.062 2762.93 736.844 Q2762.93 733.603 2761.1 732.076 Q2759.3 730.525 2755.52 730.525 L2748.02 730.525 M2748.02 716.312 L2748.02 726.728 L2754.94 726.728 Q2758.37 726.728 2760.04 725.455 Q2761.73 724.159 2761.73 721.52 Q2761.73 718.904 2760.04 717.608 Q2758.37 716.312 2754.94 716.312 L2748.02 716.312 M2743.35 712.469 L2755.29 712.469 Q2760.64 712.469 2763.53 714.691 Q2766.43 716.914 2766.43 721.011 Q2766.43 724.182 2764.94 726.057 Q2763.46 727.932 2760.59 728.395 Q2764.04 729.136 2765.94 731.497 Q2767.86 733.835 2767.86 737.353 Q2767.86 741.983 2764.71 744.506 Q2761.56 747.029 2755.75 747.029 L2743.35 747.029 L2743.35 712.469 Z" fill="#000000" fill-rule="nonzero" fill-opacity="1" /><path clip-path="url(#clip840)" d="M2780.55 716.312 L2780.55 743.187 L2786.19 743.187 Q2793.35 743.187 2796.66 739.946 Q2799.99 736.705 2799.99 729.715 Q2799.99 722.77 2796.66 719.553 Q2793.35 716.312 2786.19 716.312 L2780.55 716.312 M2775.87 712.469 L2785.48 712.469 Q2795.52 712.469 2800.22 716.659 Q2804.92 720.826 2804.92 729.715 Q2804.92 738.65 2800.2 742.839 Q2795.48 747.029 2785.48 747.029 L2775.87 747.029 L2775.87 712.469 Z" fill="#000000" fill-rule="nonzero" fill-opacity="1" /><path clip-path="url(#clip840)" d="M2812.37 712.469 L2832.24 712.469 L2832.24 716.404 L2817.05 716.404 L2817.05 726.59 L2830.75 726.59 L2830.75 730.525 L2817.05 730.525 L2817.05 747.029 L2812.37 747.029 L2812.37 712.469 Z" fill="#000000" fill-rule="nonzero" fill-opacity="1" /></svg>
