<?xml version="1.0" encoding="utf-8"?>
<svg xmlns="http://www.w3.org/2000/svg" xmlns:xlink="http://www.w3.org/1999/xlink" width="600" height="400" viewBox="0 0 2400 1600">
<defs>
  <clipPath id="clip890">
    <rect x="0" y="0" width="2400" height="1600"/>
  </clipPath>
</defs>
<path clip-path="url(#clip890)" d="M0 1600 L2400 1600 L2400 0 L0 0  Z" fill="#ffffff" fill-rule="evenodd" fill-opacity="1"/>
<defs>
  <clipPath id="clip891">
    <rect x="480" y="0" width="1681" height="1600"/>
  </clipPath>
</defs>
<path clip-path="url(#clip890)" d="M219.866 1423.18 L2352.76 1423.18 L2352.76 47.2441 L219.866 47.2441  Z" fill="#ffffff" fill-rule="evenodd" fill-opacity="1"/>
<defs>
  <clipPath id="clip892">
    <rect x="219" y="47" width="2134" height="1377"/>
  </clipPath>
</defs>
<polyline clip-path="url(#clip892)" style="stroke:#000000; stroke-linecap:round; stroke-linejoin:round; stroke-width:2; stroke-opacity:0.1; fill:none" points="280.231,1423.18 280.231,47.2441 "/>
<polyline clip-path="url(#clip892)" style="stroke:#000000; stroke-linecap:round; stroke-linejoin:round; stroke-width:2; stroke-opacity:0.1; fill:none" points="783.271,1423.18 783.271,47.2441 "/>
<polyline clip-path="url(#clip892)" style="stroke:#000000; stroke-linecap:round; stroke-linejoin:round; stroke-width:2; stroke-opacity:0.1; fill:none" points="1286.31,1423.18 1286.31,47.2441 "/>
<polyline clip-path="url(#clip892)" style="stroke:#000000; stroke-linecap:round; stroke-linejoin:round; stroke-width:2; stroke-opacity:0.1; fill:none" points="1789.35,1423.18 1789.35,47.2441 "/>
<polyline clip-path="url(#clip892)" style="stroke:#000000; stroke-linecap:round; stroke-linejoin:round; stroke-width:2; stroke-opacity:0.1; fill:none" points="2292.39,1423.18 2292.39,47.2441 "/>
<polyline clip-path="url(#clip892)" style="stroke:#000000; stroke-linecap:round; stroke-linejoin:round; stroke-width:2; stroke-opacity:0.1; fill:none" points="219.866,1357.32 2352.76,1357.32 "/>
<polyline clip-path="url(#clip892)" style="stroke:#000000; stroke-linecap:round; stroke-linejoin:round; stroke-width:2; stroke-opacity:0.1; fill:none" points="219.866,996.312 2352.76,996.312 "/>
<polyline clip-path="url(#clip892)" style="stroke:#000000; stroke-linecap:round; stroke-linejoin:round; stroke-width:2; stroke-opacity:0.1; fill:none" points="219.866,635.305 2352.76,635.305 "/>
<polyline clip-path="url(#clip892)" style="stroke:#000000; stroke-linecap:round; stroke-linejoin:round; stroke-width:2; stroke-opacity:0.1; fill:none" points="219.866,274.298 2352.76,274.298 "/>
<polyline clip-path="url(#clip890)" style="stroke:#000000; stroke-linecap:round; stroke-linejoin:round; stroke-width:4; stroke-opacity:1; fill:none" points="219.866,1423.18 2352.76,1423.18 "/>
<polyline clip-path="url(#clip890)" style="stroke:#000000; stroke-linecap:round; stroke-linejoin:round; stroke-width:4; stroke-opacity:1; fill:none" points="280.231,1423.18 280.231,1404.28 "/>
<polyline clip-path="url(#clip890)" style="stroke:#000000; stroke-linecap:round; stroke-linejoin:round; stroke-width:4; stroke-opacity:1; fill:none" points="783.271,1423.18 783.271,1404.28 "/>
<polyline clip-path="url(#clip890)" style="stroke:#000000; stroke-linecap:round; stroke-linejoin:round; stroke-width:4; stroke-opacity:1; fill:none" points="1286.31,1423.18 1286.31,1404.28 "/>
<polyline clip-path="url(#clip890)" style="stroke:#000000; stroke-linecap:round; stroke-linejoin:round; stroke-width:4; stroke-opacity:1; fill:none" points="1789.35,1423.18 1789.35,1404.28 "/>
<polyline clip-path="url(#clip890)" style="stroke:#000000; stroke-linecap:round; stroke-linejoin:round; stroke-width:4; stroke-opacity:1; fill:none" points="2292.39,1423.18 2292.39,1404.28 "/>
<path clip-path="url(#clip890)" d="M249.421 1468.75 L279.097 1468.75 L279.097 1472.69 L249.421 1472.69 L249.421 1468.75 Z" fill="#000000" fill-rule="nonzero" fill-opacity="1" /><path clip-path="url(#clip890)" d="M299.189 1469.17 Q295.856 1469.17 293.935 1470.95 Q292.037 1472.73 292.037 1475.86 Q292.037 1478.98 293.935 1480.77 Q295.856 1482.55 299.189 1482.55 Q302.523 1482.55 304.444 1480.77 Q306.365 1478.96 306.365 1475.86 Q306.365 1472.73 304.444 1470.95 Q302.546 1469.17 299.189 1469.17 M294.513 1467.18 Q291.504 1466.44 289.814 1464.38 Q288.148 1462.32 288.148 1459.35 Q288.148 1455.21 291.087 1452.8 Q294.05 1450.39 299.189 1450.39 Q304.351 1450.39 307.291 1452.8 Q310.231 1455.21 310.231 1459.35 Q310.231 1462.32 308.541 1464.38 Q306.874 1466.44 303.888 1467.18 Q307.268 1467.96 309.143 1470.26 Q311.041 1472.55 311.041 1475.86 Q311.041 1480.88 307.962 1483.57 Q304.907 1486.25 299.189 1486.25 Q293.472 1486.25 290.393 1483.57 Q287.338 1480.88 287.338 1475.86 Q287.338 1472.55 289.236 1470.26 Q291.134 1467.96 294.513 1467.18 M292.8 1459.79 Q292.8 1462.48 294.467 1463.98 Q296.157 1465.49 299.189 1465.49 Q302.199 1465.49 303.888 1463.98 Q305.601 1462.48 305.601 1459.79 Q305.601 1457.11 303.888 1455.6 Q302.199 1454.1 299.189 1454.1 Q296.157 1454.1 294.467 1455.6 Q292.8 1457.11 292.8 1459.79 Z" fill="#000000" fill-rule="nonzero" fill-opacity="1" /><path clip-path="url(#clip890)" d="M752.334 1468.75 L782.01 1468.75 L782.01 1472.69 L752.334 1472.69 L752.334 1468.75 Z" fill="#000000" fill-rule="nonzero" fill-opacity="1" /><path clip-path="url(#clip890)" d="M802.681 1466.44 Q799.533 1466.44 797.681 1468.59 Q795.852 1470.74 795.852 1474.49 Q795.852 1478.22 797.681 1480.39 Q799.533 1482.55 802.681 1482.55 Q805.829 1482.55 807.658 1480.39 Q809.509 1478.22 809.509 1474.49 Q809.509 1470.74 807.658 1468.59 Q805.829 1466.44 802.681 1466.44 M811.963 1451.78 L811.963 1456.04 Q810.204 1455.21 808.398 1454.77 Q806.616 1454.33 804.857 1454.33 Q800.227 1454.33 797.773 1457.45 Q795.343 1460.58 794.996 1466.9 Q796.361 1464.89 798.421 1463.82 Q800.482 1462.73 802.958 1462.73 Q808.167 1462.73 811.176 1465.9 Q814.208 1469.05 814.208 1474.49 Q814.208 1479.82 811.06 1483.03 Q807.912 1486.25 802.681 1486.25 Q796.685 1486.25 793.514 1481.67 Q790.343 1477.06 790.343 1468.33 Q790.343 1460.14 794.232 1455.28 Q798.121 1450.39 804.671 1450.39 Q806.431 1450.39 808.213 1450.74 Q810.019 1451.09 811.963 1451.78 Z" fill="#000000" fill-rule="nonzero" fill-opacity="1" /><path clip-path="url(#clip890)" d="M1255.21 1468.75 L1284.89 1468.75 L1284.89 1472.69 L1255.21 1472.69 L1255.21 1468.75 Z" fill="#000000" fill-rule="nonzero" fill-opacity="1" /><path clip-path="url(#clip890)" d="M1307.83 1455.09 L1296.02 1473.54 L1307.83 1473.54 L1307.83 1455.09 M1306.6 1451.02 L1312.48 1451.02 L1312.48 1473.54 L1317.41 1473.54 L1317.41 1477.43 L1312.48 1477.43 L1312.48 1485.58 L1307.83 1485.58 L1307.83 1477.43 L1292.23 1477.43 L1292.23 1472.92 L1306.6 1451.02 Z" fill="#000000" fill-rule="nonzero" fill-opacity="1" /><path clip-path="url(#clip890)" d="M1759.29 1468.75 L1788.97 1468.75 L1788.97 1472.69 L1759.29 1472.69 L1759.29 1468.75 Z" fill="#000000" fill-rule="nonzero" fill-opacity="1" /><path clip-path="url(#clip890)" d="M1803.09 1481.64 L1819.41 1481.64 L1819.41 1485.58 L1797.46 1485.58 L1797.46 1481.64 Q1800.13 1478.89 1804.71 1474.26 Q1809.32 1469.61 1810.5 1468.27 Q1812.74 1465.74 1813.62 1464.01 Q1814.52 1462.25 1814.52 1460.56 Q1814.52 1457.8 1812.58 1456.07 Q1810.66 1454.33 1807.56 1454.33 Q1805.36 1454.33 1802.9 1455.09 Q1800.47 1455.86 1797.7 1457.41 L1797.7 1452.69 Q1800.52 1451.55 1802.97 1450.97 Q1805.43 1450.39 1807.46 1450.39 Q1812.83 1450.39 1816.03 1453.08 Q1819.22 1455.77 1819.22 1460.26 Q1819.22 1462.39 1818.41 1464.31 Q1817.63 1466.2 1815.52 1468.8 Q1814.94 1469.47 1811.84 1472.69 Q1808.74 1475.88 1803.09 1481.64 Z" fill="#000000" fill-rule="nonzero" fill-opacity="1" /><path clip-path="url(#clip890)" d="M2292.39 1454.1 Q2288.78 1454.1 2286.95 1457.66 Q2285.15 1461.2 2285.15 1468.33 Q2285.15 1475.44 2286.95 1479.01 Q2288.78 1482.55 2292.39 1482.55 Q2296.03 1482.55 2297.83 1479.01 Q2299.66 1475.44 2299.66 1468.33 Q2299.66 1461.2 2297.83 1457.66 Q2296.03 1454.1 2292.39 1454.1 M2292.39 1450.39 Q2298.2 1450.39 2301.26 1455 Q2304.34 1459.58 2304.34 1468.33 Q2304.34 1477.06 2301.26 1481.67 Q2298.2 1486.25 2292.39 1486.25 Q2286.58 1486.25 2283.5 1481.67 Q2280.45 1477.06 2280.45 1468.33 Q2280.45 1459.58 2283.5 1455 Q2286.58 1450.39 2292.39 1450.39 Z" fill="#000000" fill-rule="nonzero" fill-opacity="1" /><path clip-path="url(#clip890)" d="M1117.41 1518.52 L1123.27 1518.52 L1123.27 1568.04 L1117.41 1568.04 L1117.41 1518.52 Z" fill="#000000" fill-rule="nonzero" fill-opacity="1" /><path clip-path="url(#clip890)" d="M1149.34 1536.5 Q1144.63 1536.5 1141.89 1540.19 Q1139.15 1543.85 1139.15 1550.25 Q1139.15 1556.65 1141.86 1560.34 Q1144.59 1564 1149.34 1564 Q1154.02 1564 1156.75 1560.31 Q1159.49 1556.62 1159.49 1550.25 Q1159.49 1543.92 1156.75 1540.23 Q1154.02 1536.5 1149.34 1536.5 M1149.34 1531.54 Q1156.98 1531.54 1161.34 1536.5 Q1165.7 1541.47 1165.7 1550.25 Q1165.7 1559 1161.34 1564 Q1156.98 1568.97 1149.34 1568.97 Q1141.67 1568.97 1137.31 1564 Q1132.98 1559 1132.98 1550.25 Q1132.98 1541.47 1137.31 1536.5 Q1141.67 1531.54 1149.34 1531.54 Z" fill="#000000" fill-rule="nonzero" fill-opacity="1" /><path clip-path="url(#clip890)" d="M1198.86 1549.81 Q1198.86 1543.44 1196.22 1539.94 Q1193.61 1536.44 1188.87 1536.44 Q1184.16 1536.44 1181.52 1539.94 Q1178.91 1543.44 1178.91 1549.81 Q1178.91 1556.14 1181.52 1559.64 Q1184.16 1563.14 1188.87 1563.14 Q1193.61 1563.14 1196.22 1559.64 Q1198.86 1556.14 1198.86 1549.81 M1204.72 1563.62 Q1204.72 1572.72 1200.68 1577.15 Q1196.63 1581.6 1188.3 1581.6 Q1185.21 1581.6 1182.47 1581.13 Q1179.73 1580.68 1177.16 1579.72 L1177.16 1574.03 Q1179.73 1575.43 1182.25 1576.1 Q1184.76 1576.76 1187.37 1576.76 Q1193.13 1576.76 1196 1573.74 Q1198.86 1570.75 1198.86 1564.67 L1198.86 1561.77 Q1197.05 1564.92 1194.22 1566.48 Q1191.38 1568.04 1187.44 1568.04 Q1180.88 1568.04 1176.87 1563.05 Q1172.86 1558.05 1172.86 1549.81 Q1172.86 1541.53 1176.87 1536.53 Q1180.88 1531.54 1187.44 1531.54 Q1191.38 1531.54 1194.22 1533.1 Q1197.05 1534.66 1198.86 1537.81 L1198.86 1532.4 L1204.72 1532.4 L1204.72 1563.62 Z" fill="#000000" fill-rule="nonzero" fill-opacity="1" /><path clip-path="url(#clip890)" d="M1218.72 1562.63 L1229.23 1562.63 L1229.23 1526.38 L1217.8 1528.67 L1217.8 1522.82 L1229.16 1520.52 L1235.59 1520.52 L1235.59 1562.63 L1246.1 1562.63 L1246.1 1568.04 L1218.72 1568.04 L1218.72 1562.63 Z" fill="#000000" fill-rule="nonzero" fill-opacity="1" /><path clip-path="url(#clip890)" d="M1272.83 1524.76 Q1267.87 1524.76 1265.35 1529.66 Q1262.87 1534.53 1262.87 1544.33 Q1262.87 1554.1 1265.35 1559 Q1267.87 1563.87 1272.83 1563.87 Q1277.83 1563.87 1280.31 1559 Q1282.83 1554.1 1282.83 1544.33 Q1282.83 1534.53 1280.31 1529.66 Q1277.83 1524.76 1272.83 1524.76 M1272.83 1519.66 Q1280.82 1519.66 1285.02 1526 Q1289.26 1532.3 1289.26 1544.33 Q1289.26 1556.33 1285.02 1562.66 Q1280.82 1568.97 1272.83 1568.97 Q1264.84 1568.97 1260.61 1562.66 Q1256.41 1556.33 1256.41 1544.33 Q1256.41 1532.3 1260.61 1526 Q1264.84 1519.66 1272.83 1519.66 Z" fill="#000000" fill-rule="nonzero" fill-opacity="1" /><path clip-path="url(#clip890)" d="M1313.8 1518.58 Q1309.53 1525.9 1307.46 1533.06 Q1305.39 1540.23 1305.39 1547.58 Q1305.39 1554.93 1307.46 1562.16 Q1309.56 1569.35 1313.8 1576.64 L1308.7 1576.64 Q1303.93 1569.16 1301.54 1561.93 Q1299.19 1554.71 1299.19 1547.58 Q1299.19 1540.48 1301.54 1533.29 Q1303.9 1526.09 1308.7 1518.58 L1313.8 1518.58 Z" fill="#000000" fill-rule="nonzero" fill-opacity="1" /><path clip-path="url(#clip890)" d="M1341.36 1550.12 Q1334.26 1550.12 1331.52 1551.75 Q1328.79 1553.37 1328.79 1557.29 Q1328.79 1560.4 1330.82 1562.25 Q1332.89 1564.07 1336.43 1564.07 Q1341.29 1564.07 1344.22 1560.63 Q1347.18 1557.16 1347.18 1551.43 L1347.18 1550.12 L1341.36 1550.12 M1353.04 1547.71 L1353.04 1568.04 L1347.18 1568.04 L1347.18 1562.63 Q1345.18 1565.88 1342.19 1567.44 Q1339.19 1568.97 1334.87 1568.97 Q1329.39 1568.97 1326.14 1565.91 Q1322.93 1562.82 1322.93 1557.67 Q1322.93 1551.65 1326.94 1548.6 Q1330.98 1545.54 1338.97 1545.54 L1347.18 1545.54 L1347.18 1544.97 Q1347.18 1540.93 1344.51 1538.73 Q1341.87 1536.5 1337.06 1536.5 Q1334.01 1536.5 1331.11 1537.23 Q1328.21 1537.97 1325.54 1539.43 L1325.54 1534.02 Q1328.75 1532.78 1331.78 1532.17 Q1334.8 1531.54 1337.67 1531.54 Q1345.4 1531.54 1349.22 1535.55 Q1353.04 1539.56 1353.04 1547.71 Z" fill="#000000" fill-rule="nonzero" fill-opacity="1" /><path clip-path="url(#clip890)" d="M1379.17 1518.58 Q1374.91 1525.9 1372.84 1533.06 Q1370.77 1540.23 1370.77 1547.58 Q1370.77 1554.93 1372.84 1562.16 Q1374.94 1569.35 1379.17 1576.64 L1374.08 1576.64 Q1369.3 1569.16 1366.92 1561.93 Q1364.56 1554.71 1364.56 1547.58 Q1364.56 1540.48 1366.92 1533.29 Q1369.27 1526.09 1374.08 1518.58 L1379.17 1518.58 Z" fill="#000000" fill-rule="nonzero" fill-opacity="1" /><path clip-path="url(#clip890)" d="M1396.33 1522.27 L1396.33 1532.4 L1408.39 1532.4 L1408.39 1536.95 L1396.33 1536.95 L1396.33 1556.3 Q1396.33 1560.66 1397.5 1561.9 Q1398.71 1563.14 1402.37 1563.14 L1408.39 1563.14 L1408.39 1568.04 L1402.37 1568.04 Q1395.59 1568.04 1393.02 1565.53 Q1390.44 1562.98 1390.44 1556.3 L1390.44 1536.95 L1386.14 1536.95 L1386.14 1532.4 L1390.44 1532.4 L1390.44 1522.27 L1396.33 1522.27 Z" fill="#000000" fill-rule="nonzero" fill-opacity="1" /><path clip-path="url(#clip890)" d="M1415.17 1518.58 L1420.26 1518.58 Q1425.04 1526.09 1427.39 1533.29 Q1429.78 1540.48 1429.78 1547.58 Q1429.78 1554.71 1427.39 1561.93 Q1425.04 1569.16 1420.26 1576.64 L1415.17 1576.64 Q1419.4 1569.35 1421.47 1562.16 Q1423.57 1554.93 1423.57 1547.58 Q1423.57 1540.23 1421.47 1533.06 Q1419.4 1525.9 1415.17 1518.58 Z" fill="#000000" fill-rule="nonzero" fill-opacity="1" /><path clip-path="url(#clip890)" d="M1440.6 1518.58 L1445.69 1518.58 Q1450.47 1526.09 1452.82 1533.29 Q1455.21 1540.48 1455.21 1547.58 Q1455.21 1554.71 1452.82 1561.93 Q1450.47 1569.16 1445.69 1576.64 L1440.6 1576.64 Q1444.83 1569.35 1446.9 1562.16 Q1449 1554.93 1449 1547.58 Q1449 1540.23 1446.9 1533.06 Q1444.83 1525.9 1440.6 1518.58 Z" fill="#000000" fill-rule="nonzero" fill-opacity="1" /><polyline clip-path="url(#clip890)" style="stroke:#000000; stroke-linecap:round; stroke-linejoin:round; stroke-width:4; stroke-opacity:1; fill:none" points="219.866,1423.18 219.866,47.2441 "/>
<polyline clip-path="url(#clip890)" style="stroke:#000000; stroke-linecap:round; stroke-linejoin:round; stroke-width:4; stroke-opacity:1; fill:none" points="219.866,1357.32 238.764,1357.32 "/>
<polyline clip-path="url(#clip890)" style="stroke:#000000; stroke-linecap:round; stroke-linejoin:round; stroke-width:4; stroke-opacity:1; fill:none" points="219.866,996.312 238.764,996.312 "/>
<polyline clip-path="url(#clip890)" style="stroke:#000000; stroke-linecap:round; stroke-linejoin:round; stroke-width:4; stroke-opacity:1; fill:none" points="219.866,635.305 238.764,635.305 "/>
<polyline clip-path="url(#clip890)" style="stroke:#000000; stroke-linecap:round; stroke-linejoin:round; stroke-width:4; stroke-opacity:1; fill:none" points="219.866,274.298 238.764,274.298 "/>
<path clip-path="url(#clip890)" d="M126.691 1343.12 Q123.08 1343.12 121.251 1346.68 Q119.445 1350.22 119.445 1357.35 Q119.445 1364.46 121.251 1368.03 Q123.08 1371.57 126.691 1371.57 Q130.325 1371.57 132.13 1368.03 Q133.959 1364.46 133.959 1357.35 Q133.959 1350.22 132.13 1346.68 Q130.325 1343.12 126.691 1343.12 M126.691 1339.41 Q132.501 1339.41 135.556 1344.02 Q138.635 1348.6 138.635 1357.35 Q138.635 1366.08 135.556 1370.69 Q132.501 1375.27 126.691 1375.27 Q120.88 1375.27 117.802 1370.69 Q114.746 1366.08 114.746 1357.35 Q114.746 1348.6 117.802 1344.02 Q120.88 1339.41 126.691 1339.41 Z" fill="#000000" fill-rule="nonzero" fill-opacity="1" /><path clip-path="url(#clip890)" d="M146.853 1368.72 L151.737 1368.72 L151.737 1374.6 L146.853 1374.6 L146.853 1368.72 Z" fill="#000000" fill-rule="nonzero" fill-opacity="1" /><path clip-path="url(#clip890)" d="M171.922 1343.12 Q168.311 1343.12 166.482 1346.68 Q164.677 1350.22 164.677 1357.35 Q164.677 1364.46 166.482 1368.03 Q168.311 1371.57 171.922 1371.57 Q175.556 1371.57 177.362 1368.03 Q179.19 1364.46 179.19 1357.35 Q179.19 1350.22 177.362 1346.68 Q175.556 1343.12 171.922 1343.12 M171.922 1339.41 Q177.732 1339.41 180.788 1344.02 Q183.866 1348.6 183.866 1357.35 Q183.866 1366.08 180.788 1370.69 Q177.732 1375.27 171.922 1375.27 Q166.112 1375.27 163.033 1370.69 Q159.978 1366.08 159.978 1357.35 Q159.978 1348.6 163.033 1344.02 Q166.112 1339.41 171.922 1339.41 Z" fill="#000000" fill-rule="nonzero" fill-opacity="1" /><path clip-path="url(#clip890)" d="M128.288 982.111 Q124.677 982.111 122.848 985.676 Q121.043 989.217 121.043 996.347 Q121.043 1003.45 122.848 1007.02 Q124.677 1010.56 128.288 1010.56 Q131.922 1010.56 133.728 1007.02 Q135.556 1003.45 135.556 996.347 Q135.556 989.217 133.728 985.676 Q131.922 982.111 128.288 982.111 M128.288 978.407 Q134.098 978.407 137.154 983.014 Q140.232 987.597 140.232 996.347 Q140.232 1005.07 137.154 1009.68 Q134.098 1014.26 128.288 1014.26 Q122.478 1014.26 119.399 1009.68 Q116.343 1005.07 116.343 996.347 Q116.343 987.597 119.399 983.014 Q122.478 978.407 128.288 978.407 Z" fill="#000000" fill-rule="nonzero" fill-opacity="1" /><path clip-path="url(#clip890)" d="M148.45 1007.71 L153.334 1007.71 L153.334 1013.59 L148.45 1013.59 L148.45 1007.71 Z" fill="#000000" fill-rule="nonzero" fill-opacity="1" /><path clip-path="url(#clip890)" d="M167.547 1009.66 L183.866 1009.66 L183.866 1013.59 L161.922 1013.59 L161.922 1009.66 Q164.584 1006.9 169.167 1002.27 Q173.774 997.62 174.954 996.278 Q177.2 993.754 178.079 992.018 Q178.982 990.259 178.982 988.569 Q178.982 985.815 177.038 984.079 Q175.116 982.342 172.014 982.342 Q169.815 982.342 167.362 983.106 Q164.931 983.87 162.153 985.421 L162.153 980.699 Q164.977 979.565 167.431 978.986 Q169.885 978.407 171.922 978.407 Q177.292 978.407 180.487 981.092 Q183.681 983.778 183.681 988.268 Q183.681 990.398 182.871 992.319 Q182.084 994.217 179.977 996.81 Q179.399 997.481 176.297 1000.7 Q173.195 1003.89 167.547 1009.66 Z" fill="#000000" fill-rule="nonzero" fill-opacity="1" /><path clip-path="url(#clip890)" d="M126.205 621.104 Q122.593 621.104 120.765 624.668 Q118.959 628.21 118.959 635.34 Q118.959 642.446 120.765 646.011 Q122.593 649.553 126.205 649.553 Q129.839 649.553 131.644 646.011 Q133.473 642.446 133.473 635.34 Q133.473 628.21 131.644 624.668 Q129.839 621.104 126.205 621.104 M126.205 617.4 Q132.015 617.4 135.07 622.006 Q138.149 626.59 138.149 635.34 Q138.149 644.067 135.07 648.673 Q132.015 653.256 126.205 653.256 Q120.394 653.256 117.316 648.673 Q114.26 644.067 114.26 635.34 Q114.26 626.59 117.316 622.006 Q120.394 617.4 126.205 617.4 Z" fill="#000000" fill-rule="nonzero" fill-opacity="1" /><path clip-path="url(#clip890)" d="M146.366 646.705 L151.251 646.705 L151.251 652.585 L146.366 652.585 L146.366 646.705 Z" fill="#000000" fill-rule="nonzero" fill-opacity="1" /><path clip-path="url(#clip890)" d="M174.283 622.099 L162.477 640.548 L174.283 640.548 L174.283 622.099 M173.056 618.025 L178.936 618.025 L178.936 640.548 L183.866 640.548 L183.866 644.437 L178.936 644.437 L178.936 652.585 L174.283 652.585 L174.283 644.437 L158.681 644.437 L158.681 639.923 L173.056 618.025 Z" fill="#000000" fill-rule="nonzero" fill-opacity="1" /><path clip-path="url(#clip890)" d="M126.529 260.096 Q122.918 260.096 121.089 263.661 Q119.283 267.203 119.283 274.332 Q119.283 281.439 121.089 285.004 Q122.918 288.545 126.529 288.545 Q130.163 288.545 131.968 285.004 Q133.797 281.439 133.797 274.332 Q133.797 267.203 131.968 263.661 Q130.163 260.096 126.529 260.096 M126.529 256.393 Q132.339 256.393 135.394 260.999 Q138.473 265.583 138.473 274.332 Q138.473 283.059 135.394 287.666 Q132.339 292.249 126.529 292.249 Q120.718 292.249 117.64 287.666 Q114.584 283.059 114.584 274.332 Q114.584 265.583 117.64 260.999 Q120.718 256.393 126.529 256.393 Z" fill="#000000" fill-rule="nonzero" fill-opacity="1" /><path clip-path="url(#clip890)" d="M146.691 285.698 L151.575 285.698 L151.575 291.578 L146.691 291.578 L146.691 285.698 Z" fill="#000000" fill-rule="nonzero" fill-opacity="1" /><path clip-path="url(#clip890)" d="M172.339 272.434 Q169.19 272.434 167.339 274.587 Q165.51 276.74 165.51 280.49 Q165.51 284.217 167.339 286.393 Q169.19 288.545 172.339 288.545 Q175.487 288.545 177.315 286.393 Q179.167 284.217 179.167 280.49 Q179.167 276.74 177.315 274.587 Q175.487 272.434 172.339 272.434 M181.621 257.782 L181.621 262.041 Q179.862 261.208 178.056 260.768 Q176.274 260.328 174.514 260.328 Q169.885 260.328 167.431 263.453 Q165.001 266.578 164.653 272.897 Q166.019 270.883 168.079 269.819 Q170.139 268.731 172.616 268.731 Q177.825 268.731 180.834 271.902 Q183.866 275.05 183.866 280.49 Q183.866 285.814 180.718 289.031 Q177.57 292.249 172.339 292.249 Q166.343 292.249 163.172 287.666 Q160.001 283.059 160.001 274.332 Q160.001 266.138 163.89 261.277 Q167.778 256.393 174.329 256.393 Q176.089 256.393 177.871 256.74 Q179.676 257.087 181.621 257.782 Z" fill="#000000" fill-rule="nonzero" fill-opacity="1" /><path clip-path="url(#clip890)" d="M26.8921 775.634 Q27.5605 780.408 30.3296 783.528 Q33.9899 787.665 40.2919 787.665 Q46.5621 787.665 50.2224 783.528 Q52.9915 780.408 53.6599 775.634 L26.8921 775.634 M53.6599 769.205 Q52.9915 764.431 50.2224 761.311 Q46.5621 757.237 40.2919 757.237 Q33.9899 757.237 30.3296 761.311 Q27.5605 764.431 26.8921 769.205 L53.6599 769.205 M58.9752 775.634 Q58.275 783.4 54.01 788.429 Q48.9174 794.445 40.2919 794.445 Q31.6664 794.445 26.542 788.429 Q22.2451 783.432 21.5449 775.634 L16.4842 775.634 L16.4842 769.205 L21.5449 769.205 Q22.277 761.439 26.542 756.442 Q31.6664 750.458 40.2919 750.458 Q48.8856 750.458 54.01 756.442 Q58.275 761.439 59.0071 769.205 L64.0042 769.205 L64.0042 775.634 L58.9752 775.634 Z" fill="#000000" fill-rule="nonzero" fill-opacity="1" /><path clip-path="url(#clip890)" d="M14.5426 726.586 Q21.8632 730.851 29.0246 732.92 Q36.186 734.989 43.5384 734.989 Q50.8908 734.989 58.1159 732.92 Q65.3091 730.82 72.5979 726.586 L72.5979 731.679 Q65.1182 736.453 57.8931 738.84 Q50.668 741.196 43.5384 741.196 Q36.4406 741.196 29.2474 738.84 Q22.0542 736.485 14.5426 731.679 L14.5426 726.586 Z" fill="#000000" fill-rule="nonzero" fill-opacity="1" /><path clip-path="url(#clip890)" d="M18.2347 709.431 L28.3562 709.431 L28.3562 697.368 L32.9077 697.368 L32.9077 709.431 L52.2594 709.431 Q56.6199 709.431 57.8613 708.253 Q59.1026 707.044 59.1026 703.383 L59.1026 697.368 L64.0042 697.368 L64.0042 703.383 Q64.0042 710.163 61.4897 712.741 Q58.9434 715.319 52.2594 715.319 L32.9077 715.319 L32.9077 719.616 L28.3562 719.616 L28.3562 715.319 L18.2347 715.319 L18.2347 709.431 Z" fill="#000000" fill-rule="nonzero" fill-opacity="1" /><path clip-path="url(#clip890)" d="M14.5426 690.588 L14.5426 685.496 Q22.0542 680.722 29.2474 678.366 Q36.4406 675.979 43.5384 675.979 Q50.668 675.979 57.8931 678.366 Q65.1182 680.722 72.5979 685.496 L72.5979 690.588 Q65.3091 686.355 58.1159 684.286 Q50.8908 682.186 43.5384 682.186 Q36.186 682.186 29.0246 684.286 Q21.8632 686.355 14.5426 690.588 Z" fill="#000000" fill-rule="nonzero" fill-opacity="1" /><polyline clip-path="url(#clip892)" style="stroke:#009af9; stroke-linecap:round; stroke-linejoin:round; stroke-width:4; stroke-opacity:1; fill:none" points="280.231,86.1882 304.832,86.1862 305.131,86.1862 349.424,86.1859 350.118,86.186 415.908,86.1897 416.959,86.1898 465.174,86.1957 466.38,86.1958 535.723,86.2113 537.056,86.2117 621.333,86.2511 622.744,86.2521 653.014,86.2759 675.214,86.2981 749.491,86.4158 787.396,86.5146 809.473,86.59 817.796,86.6226 875.188,86.9291 880.505,86.9664 889.525,87.034 895.018,87.0779 905.156,87.165 910.817,87.2172 927.823,87.391 987.246,88.2573 997.946,88.4684 1042.61,89.6 1051.02,89.8674 1067.63,90.4568 1068.29,90.482 1081.85,91.0334 1082.57,91.0643 1094.54,91.6105 1095.24,91.6442 1106.59,92.22 1107.27,92.2561 1118.18,92.8676 1118.84,92.9061 1129.36,93.5545 1129.99,93.5954 1196.12,99.2562 1196.66,99.3147 1236.2,104.389 1236.68,104.459 1271.32,110.258 1271.75,110.339 1304.04,117.067 1304.43,117.156 1320.76,121.085 1321.13,121.178 1336.62,125.241 1350.15,129.058 1361.06,132.31 1378.32,137.768 1390.98,142.008 1420.07,152.416 1447.34,162.863 1449.81,163.836 1470.99,172.284 1475.44,174.077 1491.01,180.387 1497.89,183.177 1505.99,186.434 1507.69,187.114 1514.47,189.787 1517.54,190.979 1526.39,194.299 1529,195.237 1545.54,200.635 1547.47,201.201 1568.71,206.767 1575.29,208.352 1595.22,213.152 1599.79,214.278 1629.01,221.856 1636.41,223.87 1667.37,232.537 1674.41,234.527 1718.66,246.688 1731.83,250.098 1761.88,257.358 1776.8,260.669 1809.44,267.201 1826.41,270.213 1852.15,274.306 1868.87,276.671 1893.47,279.764 1909.57,281.554 1929.58,283.547 1944.58,284.881 1963.03,286.354 1977.72,287.404 1994.04,288.457 2008.2,289.286 2022.61,290.063 2036.41,290.761 2050.15,291.431 2063.61,292.092 2074.62,292.661 2081.57,293.046 2096.66,293.999 2108.61,294.932 2122.38,296.314 2132.78,297.675 2145.53,299.873 2156.03,302.281 2167.83,305.858 2177.92,309.883 2189.06,315.662 2199.16,322.438 2209.63,331.393 2219.31,341.784 2229.55,355.387 2239.16,370.974 2249.15,390.39 2258.99,412.962 2269.07,439.745 2279.52,471.356 2290.12,507.101 2292.39,515.216 "/>
<polyline clip-path="url(#clip892)" style="stroke:#e26f46; stroke-linecap:round; stroke-linejoin:round; stroke-width:4; stroke-opacity:1; fill:none" points="280.231,86.1882 290.456,86.1871 292.205,86.187 317.411,86.1858 330.801,86.1857 362.801,86.1863 393.297,86.188 401.489,86.1885 440.789,86.1923 462.347,86.1952 509.833,86.2043 541.711,86.2131 560.192,86.2196 596.122,86.236 631.648,86.2585 670.795,86.2935 683.008,86.3072 697.505,86.3257 755.295,86.4294 822.065,86.6424 823.575,86.6489 838.991,86.7205 858.585,86.8276 875.876,86.9394 898.141,87.1123 935.959,87.501 975.157,88.076 1006.19,88.7048 1040.44,89.6454 1065.53,90.5525 1070.47,90.7575 1114.79,93.092 1116.06,93.1746 1156.25,96.3644 1157.19,96.4541 1191.7,100.389 1192.71,100.524 1222.53,105.184 1223.6,105.377 1249.61,110.731 1250.87,111.025 1273.7,117.015 1275.12,117.433 1295.36,124.02 1296.93,124.582 1315.05,131.723 1316.75,132.457 1333.1,140.103 1334.94,141.037 1349.68,149.075 1351.59,150.196 1366.48,159.559 1368.19,160.714 1381.05,169.918 1382.91,171.328 1394.73,180.8 1396.74,182.496 1407.72,192.242 1409.86,194.229 1420.11,204.204 1422.37,206.499 1431.97,216.647 1434.34,219.251 1443.37,229.555 1445.87,232.505 1454.38,242.889 1456.98,246.165 1467.7,260.161 1474.98,270.105 1478.22,274.645 1486.47,286.513 1487.97,288.712 1492.51,295.467 1497.54,303.089 1498.48,304.518 1503.9,312.913 1505.11,314.795 1508.51,320.145 1510.83,323.834 1512.34,326.232 1515.25,330.901 1518.89,336.78 1518.9,336.79 1525.16,346.983 1525.99,348.345 1531.97,358.161 1534.6,362.492 1541.38,373.716 1546.06,381.485 1551.93,391.257 1556.9,399.535 1565.58,414.065 1572.96,426.437 1578.92,436.407 1587.75,451.111 1598.2,468.204 1610.69,487.919 1619.5,501.114 1631.19,517.407 1641.06,529.86 1652.94,543.03 1662.65,552.199 1673.25,560.52 1682.77,566.543 1693.23,571.701 1702.6,575.203 1712.49,577.961 1721.76,579.903 1730.91,581.412 1740.06,582.697 1748.75,583.842 1757.65,585.025 1765.55,586.118 1774.26,587.369 1781.75,588.461 1790.32,589.69 1796.91,590.593 1805.35,591.664 1811.54,592.382 1819.83,593.253 1825.49,593.796 1833.69,594.528 1838.95,594.976 1847.03,595.643 1851.83,596.031 1859.83,596.665 1864.32,597.01 1872.27,597.592 1876.37,597.875 1884.23,598.38 1887.78,598.592 1895.56,599.03 1898.96,599.212 1906.73,599.616 1909.75,599.771 1917.44,600.16 1920.14,600.295 1927.82,600.667 1930.37,600.785 1938.03,601.124 1940.28,601.219 1947.89,601.523 1949.94,601.601 1957.57,601.887 1959.44,601.955 1967.02,602.23 1968.54,602.285 1976.07,602.548 1977.54,602.598 1985.02,602.843 1986.18,602.88 1993.62,603.11 1994.73,603.144 2002.15,603.366 2003.04,603.393 2010.38,603.61 2011.21,603.634 2018.54,603.847 2019.24,603.867 2026.49,604.074 2027.1,604.091 2034.34,604.296 2034.87,604.311 2042.05,604.519 2042.5,604.532 2049.65,604.744 2049.88,604.75 2057.01,604.969 2057.21,604.975 2064.32,605.204 2064.33,605.205 2071.46,605.45 2071.55,605.453 2078.5,605.713 2078.54,605.714 2085.45,605.996 2085.58,606.002 2092.32,606.307 2092.46,606.313 2099.13,606.651 2099.28,606.659 2105.79,607.031 2106.05,607.046 2112.46,607.464 2112.62,607.475 2118.95,607.946 2119.11,607.959 2125.36,608.493 2125.42,608.499 2131.56,609.103 2131.61,609.108 2137.66,609.794 2137.71,609.799 2143.61,610.57 2143.78,610.594 2149.51,611.456 2149.71,611.488 2155.29,612.458 2155.57,612.509 2160.97,613.588 2161.35,613.67 2166.65,614.887 2167.01,614.977 2172.24,616.358 2172.68,616.481 2177.82,618.04 2178.26,618.18 2183.41,619.968 2183.8,620.114 2189.02,622.189 2189.36,622.334 2194.61,624.717 2194.93,624.87 2200.12,627.554 2200.48,627.755 2205.69,630.824 2205.95,630.987 2211.23,634.513 2211.51,634.705 2216.73,638.645 2217.02,638.881 2222.2,643.28 2222.52,643.573 2227.71,648.525 2228.06,648.874 2233.21,654.37 2233.65,654.861 2238.7,660.853 2239.22,661.512 2244.23,668.094 2244.8,668.891 2249.86,676.233 2250.49,677.188 2255.55,685.258 2256.28,686.473 2261.33,695.277 2262.12,696.711 2267.29,706.503 2268.08,708.053 2273.46,719.073 2274.26,720.77 2279.9,733.189 2280.68,734.971 2286.51,748.719 2287.38,750.817 2292.39,763.305 "/>
<polyline clip-path="url(#clip892)" style="stroke:#3da44d; stroke-linecap:round; stroke-linejoin:round; stroke-width:4; stroke-opacity:1; fill:none" points="280.231,86.1882 286.239,86.1875 287.14,86.1874 312.138,86.1859 316.342,86.1858 358.429,86.1862 366.753,86.1866 426.428,86.1909 438.246,86.1922 476.344,86.1979 524.413,86.2089 547.432,86.2164 580.415,86.2307 633.365,86.2665 656.292,86.2892 713.64,86.3784 729.912,86.4162 774.17,86.5649 786.703,86.624 820.279,86.8388 830.556,86.9262 856.589,87.2116 865.388,87.3342 886.168,87.6938 893.947,87.8592 910.98,88.2961 918.026,88.5124 932.305,89.0295 938.803,89.3054 966.954,90.8873 972.722,91.3084 997.507,93.6377 1002.76,94.2632 1023.31,97.3012 1028.19,98.1871 1045.51,101.973 1050.12,103.177 1065,107.756 1069.41,109.341 1082.4,114.754 1086.64,116.786 1098.13,123.068 1102.23,125.612 1112.51,132.789 1116.49,135.915 1125.75,144.004 1129.65,147.782 1138.05,156.788 1141.86,161.286 1149.53,171.206 1153.27,176.493 1160.3,187.309 1163.98,193.449 1170.46,205.132 1174.08,212.188 1180.06,224.693 1183.64,232.719 1197.62,268.379 1201.12,278.457 1206.69,295.531 1210.15,306.809 1216.82,330.02 1220.25,342.751 1231.73,389.509 1235.12,404.54 1247.16,462.774 1250.51,480.295 1256.35,512.233 1259.69,531.218 1264.89,561.911 1268.21,582.203 1277.72,642.809 1281.05,664.829 1290.83,731.499 1294.15,754.672 1300.04,796.052 1303.36,819.466 1309.05,859.57 1312.35,882.637 1321.97,948.288 1325.26,969.963 1334.24,1026.21 1337.52,1045.46 1341.39,1067.09 1344.66,1084.43 1354.11,1129.18 1357.5,1143.11 1365.75,1172.18 1369.23,1182.39 1378.73,1204.03 1382.29,1209.96 1391.33,1220.15 1394.96,1222.49 1398.27,1223.87 1401.92,1224.62 1404.94,1224.71 1408.59,1224.24 1413.15,1222.92 1416.86,1221.36 1421.26,1219.09 1424.98,1216.93 1430.22,1213.75 1433.97,1211.52 1439.07,1208.79 1442.84,1207.14 1448.28,1205.54 1452.08,1205.1 1457.7,1205.62 1461.52,1206.78 1463,1207.41 1466.81,1209.44 1472.21,1213.21 1476.34,1216.58 1478.4,1218.36 1482.45,1221.93 1486.64,1225.54 1490.86,1228.94 1494.48,1231.55 1494.91,1231.83 1498.66,1234.12 1498.91,1234.25 1502.62,1236.07 1504.5,1236.83 1505.45,1237.17 1507.42,1237.81 1509.99,1238.47 1510.36,1238.55 1514.12,1239.18 1514.44,1239.22 1517.85,1239.52 1519.43,1239.59 1522.12,1239.65 1524.51,1239.66 1526.55,1239.65 1529.85,1239.66 1531.36,1239.68 1536.85,1240.01 1537.15,1240.04 1541.68,1240.65 1542.76,1240.84 1547.46,1241.81 1548.2,1241.98 1553.6,1243.18 1554.72,1243.42 1560.23,1244.42 1561.93,1244.68 1567.05,1245.38 1568.86,1245.61 1574.36,1246.36 1576.58,1246.68 1581.61,1247.42 1583.99,1247.75 1588.89,1248.32 1591.51,1248.57 1596.13,1248.98 1598.83,1249.21 1603.4,1249.65 1606.27,1249.95 1610.66,1250.43 1613.57,1250.73 1617.75,1251.13 1620.89,1251.41 1624.79,1251.73 1627.95,1251.98 1631.85,1252.28 1635.06,1252.51 1638.74,1252.78 1641.93,1252.99 1645.59,1253.23 1648.85,1253.44 1652.44,1253.67 1655.68,1253.87 1659.12,1254.09 1662.32,1254.29 1665.59,1254.48 1668.84,1254.65 1671.9,1254.81 1675.27,1254.97 1678.15,1255.12 1681.58,1255.29 1684.26,1255.41 1687.75,1255.57 1690.19,1255.68 1693.81,1255.84 1696,1255.93 1699.69,1256.09 1701.79,1256.17 1705.52,1256.31 1707.47,1256.38 1711.2,1256.52 1713.07,1256.59 1716.81,1256.72 1718.64,1256.78 1722.39,1256.91 1724.16,1256.97 1727.93,1257.09 1729.67,1257.14 1733.44,1257.26 1735.18,1257.31 1738.9,1257.41 1740.54,1257.46 1744.33,1257.56 1745.83,1257.6 1749.65,1257.7 1750.99,1257.74 1754.88,1257.83 1756.07,1257.86 1760.07,1257.96 1761.09,1257.98 1765.21,1258.08 1766.01,1258.09 1770.24,1258.19 1770.82,1258.2 1775.14,1258.29 1775.61,1258.3 1779.98,1258.39 1780.38,1258.4 1784.77,1258.48 1785.14,1258.49 1789.52,1258.57 1789.86,1258.58 1794.22,1258.65 1794.54,1258.66 1798.86,1258.73 1799.21,1258.74 1803.49,1258.81 1803.9,1258.82 1808.14,1258.88 1808.58,1258.89 1812.76,1258.95 1813.16,1258.96 1817.34,1259.02 1817.72,1259.03 1821.89,1259.09 1822.19,1259.09 1826.39,1259.15 1826.58,1259.15 1830.79,1259.21 1830.89,1259.21 1835.14,1259.26 1835.18,1259.26 1839.44,1259.31 1839.47,1259.31 1843.66,1259.36 1843.77,1259.37 1847.86,1259.41 1848,1259.41 1852.09,1259.46 1852.18,1259.46 1856.36,1259.51 1856.38,1259.51 1860.61,1259.55 1860.62,1259.55 1864.85,1259.59 1864.89,1259.59 1869.1,1259.63 1869.13,1259.63 1873.29,1259.67 1873.36,1259.68 1877.4,1259.71 1877.57,1259.71 1881.47,1259.75 1881.74,1259.75 1885.48,1259.78 1885.88,1259.79 1889.42,1259.82 1889.97,1259.82 1893.36,1259.85 1893.99,1259.85 1897.33,1259.88 1897.98,1259.89 1901.31,1259.91 1902.01,1259.92 1905.27,1259.94 1905.97,1259.95 1909.28,1259.97 1909.97,1259.98 1913.34,1260 1913.98,1260.01 1917.44,1260.03 1918.04,1260.03 1921.47,1260.06 1922.11,1260.06 1925.42,1260.08 1926.14,1260.09 1929.33,1260.11 1930.12,1260.11 1933.26,1260.13 1934.08,1260.14 1937.13,1260.16 1938.1,1260.16 1940.95,1260.18 1942.13,1260.19 1944.81,1260.2 1946.08,1260.21 1948.78,1260.23 1950,1260.23 1952.76,1260.25 1953.98,1260.26 1956.75,1260.27 1957.97,1260.28 1960.81,1260.29 1961.96,1260.3 1964.84,1260.31 1966.04,1260.32 1968.98,1260.34 1970.21,1260.34 1973.12,1260.36 1974.41,1260.36 1977.18,1260.38 1978.56,1260.38 1981.3,1260.4 1982.64,1260.4 1985.54,1260.42 1986.78,1260.42 1989.8,1260.44 1991.05,1260.44 1993.98,1260.46 1995.28,1260.46 1998.26,1260.48 1999.42,1260.48 2002.63,1260.5 2003.65,1260.5 2006.99,1260.52 2008.08,1260.52 2011.32,1260.54 2012.43,1260.54 2015.9,1260.56 2016.71,1260.56 2020.41,1260.58 2021.2,1260.58 2025.02,1260.6 2025.79,1260.6 2029.57,1260.62 2030.45,1260.62 2034.17,1260.64 2035.12,1260.64 2038.96,1260.66 2039.77,1260.67 2043.79,1260.68 2044.56,1260.69 2048.52,1260.71 2049.38,1260.71 2053.39,1260.73 2054.13,1260.73 2058.23,1260.75 2059,1260.76 2063.21,1260.78 2063.92,1260.78 2068.31,1260.8 2068.93,1260.81 2073.34,1260.83 2074.03,1260.84 2078.53,1260.86 2079.05,1260.87 2083.75,1260.89 2084.33,1260.9 2089.17,1260.93 2089.55,1260.93 2094.71,1260.97 2095.06,1260.97 2100.17,1261.01 2100.51,1261.01 2105.86,1261.06 2106.08,1261.06 2111.64,1261.11 2111.94,1261.12 2117.55,1261.17 2117.86,1261.18 2123.59,1261.24 2123.8,1261.25 2129.87,1261.33 2129.92,1261.33 2136.26,1261.42 2136.33,1261.42 2142.63,1261.53 2142.82,1261.54 2149.34,1261.67 2149.49,1261.67 2156.11,1261.83 2156.56,1261.84 2163.34,1262.03 2163.55,1262.03 2170.55,1262.26 2170.84,1262.28 2177.98,1262.56 2178.36,1262.57 2185.39,1262.9 2185.7,1262.92 2192.78,1263.31 2193.4,1263.35 2200.43,1263.82 2200.93,1263.85 2207.93,1264.4 2208.79,1264.48 2215.66,1265.12 2216.51,1265.21 2223.29,1265.96 2224.26,1266.08 2230.84,1266.93 2231.95,1267.08 2238.35,1268.05 2239.59,1268.25 2245.86,1269.33 2247.24,1269.58 2253.39,1270.79 2254.92,1271.11 2261,1272.45 2262.68,1272.85 2268.71,1274.33 2270.57,1274.81 2276.58,1276.45 2278.64,1277.03 2284.67,1278.82 2286.94,1279.52 2292.39,1281.26 "/>
<polyline clip-path="url(#clip892)" style="stroke:#c271d2; stroke-linecap:round; stroke-linejoin:round; stroke-width:4; stroke-opacity:1; fill:none" points="280.231,86.1882 285.15,86.188 285.804,86.188 306.888,86.1879 310.063,86.1879 347.561,86.1902 354.2,86.1909 410.376,86.2016 420.271,86.2048 491.074,86.2512 500.356,86.2624 551.946,86.3699 558.046,86.39 597.332,86.5868 601.444,86.6164 633.117,86.9325 635.978,86.9708 662.625,87.4388 664.639,87.484 687.747,88.1388 689.156,88.1882 709.643,89.0671 710.602,89.1167 745.551,91.6557 745.911,91.6911 777.689,95.917 777.754,95.9284 805,102.076 805.366,102.181 828.798,110.545 829.387,110.804 849.872,121.719 850.632,122.206 868.777,135.985 869.674,136.786 885.916,153.705 886.923,154.92 901.579,175.195 902.68,176.934 915.986,200.704 917.169,203.084 929.301,230.383 930.556,233.527 941.646,264.253 942.969,268.29 953.111,302.174 954.499,307.231 963.794,343.952 965.239,350.124 973.762,389.224 975.265,396.612 991.622,487.249 993.235,497.239 1009.15,606.114 1010.88,619.03 1028.44,761.77 1030.35,778.447 1040.69,871.004 1042.37,886.437 1053.55,989.491 1055.29,1005.45 1069.4,1130.69 1071.32,1146.72 1084.85,1249.19 1086.8,1262.03 1095.22,1310.7 1101,1337.22 1110.14,1366.94 1116.49,1378.8 1123.32,1384.04 1124.86,1384.24 1131.4,1381.51 1133.04,1380.02 1138.86,1372.66 1142.1,1367.44 1147.46,1357.72 1151.73,1349.56 1156.6,1340.51 1161.6,1332.26 1166.13,1326.39 1171.66,1322 1175.97,1321.11 1182.69,1324.2 1187.03,1328.72 1192.76,1336.52 1197.13,1342.7 1202.23,1348.83 1206.57,1352.14 1211.5,1353.29 1216,1351.92 1217.43,1351.09 1223.95,1346.01 1225.65,1344.61 1230.2,1341.38 1233.01,1340.12 1236.94,1339.57 1241.11,1340.68 1246.23,1343.84 1249.52,1346.31 1251.35,1347.63 1255.3,1349.79 1258.41,1350.55 1262.17,1350.13 1266.19,1348.47 1269.43,1346.79 1271.18,1345.97 1274.06,1345.05 1277.32,1344.83 1279.92,1345.34 1283.66,1346.88 1286.41,1348.25 1287.77,1348.88 1290.86,1349.98 1292.96,1350.33 1296.09,1350.16 1298.94,1349.41 1302.08,1348.32 1302.85,1348.07 1306.11,1347.38 1307.66,1347.33 1310.91,1347.87 1312.71,1348.45 1315.92,1349.63 1316.05,1349.67 1319.35,1350.51 1320.24,1350.61 1323.53,1350.46 1325,1350.18 1328.23,1349.41 1328.28,1349.39 1331.54,1348.9 1332.19,1348.88 1335.42,1349.22 1336.35,1349.43 1339.34,1350.23 1339.86,1350.36 1342.86,1350.9 1342.96,1350.9 1346.6,1350.79 1346.86,1350.76 1349.72,1350.29 1350.45,1350.18 1353.07,1349.93 1353.22,1349.93 1356.5,1350.17 1356.9,1350.24 1359.6,1350.76 1360.19,1350.87 1362.78,1351.21 1362.87,1351.21 1366,1351.16 1366.16,1351.15 1368.58,1350.89 1369.49,1350.8 1371.48,1350.68 1372.05,1350.68 1374.78,1350.84 1375.02,1350.87 1377.14,1351.15 1378.37,1351.31 1379.94,1351.46 1380.78,1351.5 1383.16,1351.48 1383.61,1351.45 1385.41,1351.34 1386.59,1351.27 1388.11,1351.23 1388.8,1351.23 1390.97,1351.34 1391.41,1351.37 1393,1351.52 1394.3,1351.63 1395.49,1351.71 1396.45,1351.75 1398.31,1351.76 1398.97,1351.74 1400.32,1351.7 1401.72,1351.66 1402.75,1351.64 1403.8,1351.65 1405.52,1351.71 1406.21,1351.75 1407.46,1351.83 1408.83,1351.91 1409.83,1351.95 1410.83,1351.98 1412.31,1351.99 1413.14,1351.99 1414.09,1351.98 1415.63,1351.96 1416.28,1351.96 1417.58,1351.98 1418.75,1352.01 1419.78,1352.05 1420.52,1352.08 1422.17,1352.15 1422.68,1352.16 1424.01,1352.19 1425.11,1352.21 1426.14,1352.21 1426.84,1352.21 1428.4,1352.21 1428.95,1352.22 1430.22,1352.24 1431.15,1352.26 1432.25,1352.29 1432.75,1352.3 1434.44,1352.35 1434.73,1352.36 1436.22,1352.38 1436.95,1352.39 1438.17,1352.4 1438.54,1352.41 1440.28,1352.42 1440.51,1352.43 1442.36,1352.46 1442.76,1352.46 1444.32,1352.5 1444.42,1352.5 1446.28,1352.54 1446.53,1352.54 1447.67,1352.56 1448.1,1352.56 1449.05,1352.57 1450,1352.58 1450.55,1352.59 1452.02,1352.61 1452.2,1352.61 1453.51,1352.63 1454.04,1352.64 1455.35,1352.67 1455.49,1352.67 1457.29,1352.7 1457.5,1352.7 1458.98,1352.72 1459.26,1352.72 1460.76,1352.74 1460.88,1352.74 1462.67,1352.77 1463.1,1352.77 1464.31,1352.79 1464.56,1352.79 1466.21,1352.82 1466.43,1352.82 1468.19,1352.84 1468.48,1352.85 1469.69,1352.86 1470.06,1352.87 1471.61,1352.89 1471.96,1352.89 1473.5,1352.91 1474.09,1352.92 1475.38,1352.94 1475.71,1352.94 1477.61,1352.96 1478.05,1352.97 1479.2,1352.98 1479.67,1352.99 1481.3,1353.01 1481.88,1353.02 1483.38,1353.03 1484.06,1353.04 1485.43,1353.06 1486.25,1353.07 1487.84,1353.09 1488.5,1353.09 1490.22,1353.11 1490.86,1353.12 1492.79,1353.14 1493.19,1353.15 1495.37,1353.17 1495.99,1353.18 1497.91,1353.2 1498.75,1353.21 1501.37,1353.24 1501.89,1353.24 1504.77,1353.27 1505.53,1353.28 1508.29,1353.31 1509.19,1353.32 1512.04,1353.35 1513.11,1353.36 1516.06,1353.38 1516.98,1353.39 1520.28,1353.42 1521.02,1353.43 1524.4,1353.46 1525.38,1353.47 1528.67,1353.5 1529.66,1353.51 1533.28,1353.54 1534.05,1353.54 1537.77,1353.57 1538.74,1353.58 1542.43,1353.61 1543.56,1353.62 1547.39,1353.64 1548.25,1353.65 1552.35,1353.68 1552.96,1353.68 1557.17,1353.71 1558.01,1353.72 1562.22,1353.74 1562.93,1353.75 1567.28,1353.77 1567.77,1353.77 1572.21,1353.8 1573,1353.8 1577.49,1353.82 1578.09,1353.83 1582.63,1353.85 1583.46,1353.85 1587.93,1353.87 1588.67,1353.88 1593.09,1353.89 1594.26,1353.9 1598.48,1353.92 1599.7,1353.92 1603.72,1353.94 1605.6,1353.94 1609.4,1353.96 1611.35,1353.96 1614.93,1353.97 1617.1,1353.98 1620.75,1353.99 1623.37,1354 1626.97,1354.01 1630,1354.02 1633.14,1354.03 1636.81,1354.04 1639.53,1354.04 1643.99,1354.05 1646.44,1354.06 1651.77,1354.07 1654.04,1354.08 1660.4,1354.09 1662.63,1354.09 1670.33,1354.11 1672.38,1354.11 1682.39,1354.13 1683.73,1354.13 1697.57,1354.15 1698.33,1354.15 1715.95,1354.17 1719.01,1354.18 1738.73,1354.2 1741.74,1354.2 1762.64,1354.22 1766.9,1354.22 1789.46,1354.23 1793.9,1354.24 1817.73,1354.25 1822.94,1354.25 1848.28,1354.26 1853.77,1354.26 1880.47,1354.27 1886.52,1354.27 1914.7,1354.28 1921.07,1354.28 1950.27,1354.29 1956.95,1354.29 1984.95,1354.29 1991.41,1354.29 2015.99,1354.3 2022.11,1354.3 2043.4,1354.3 2049.17,1354.3 2067.76,1354.3 2073.26,1354.3 2089.7,1354.31 2094.98,1354.31 2110,1354.31 2114.78,1354.31 2128.65,1354.32 2133.01,1354.32 2145.92,1354.33 2149.93,1354.33 2162.05,1354.34 2165.78,1354.34 2177.25,1354.36 2180.74,1354.36 2191.69,1354.38 2194.99,1354.39 2205.54,1354.41 2208.68,1354.42 2218.95,1354.45 2221.98,1354.46 2232.09,1354.5 2235.05,1354.51 2245.12,1354.57 2246.64,1354.57 2256.36,1354.64 2258.32,1354.65 2267.77,1354.72 2270.23,1354.74 2279.54,1354.82 2280.83,1354.83 2290,1354.92 2291.86,1354.94 2292.39,1354.94 "/>
<path clip-path="url(#clip890)" d="M290.963 1377.32 L927.722 1377.32 L927.722 1066.28 L290.963 1066.28  Z" fill="#ffffff" fill-rule="evenodd" fill-opacity="1"/>
<polyline clip-path="url(#clip890)" style="stroke:#000000; stroke-linecap:round; stroke-linejoin:round; stroke-width:4; stroke-opacity:1; fill:none" points="290.963,1377.32 927.722,1377.32 927.722,1066.28 290.963,1066.28 290.963,1377.32 "/>
<polyline clip-path="url(#clip890)" style="stroke:#009af9; stroke-linecap:round; stroke-linejoin:round; stroke-width:4; stroke-opacity:1; fill:none" points="314.661,1118.12 456.854,1118.12 "/>
<path clip-path="url(#clip890)" d="M480.553 1099.38 L484.835 1099.38 L484.835 1120.65 L497.543 1109.47 L502.983 1109.47 L489.233 1121.6 L503.562 1135.4 L498.006 1135.4 L484.835 1122.73 L484.835 1135.4 L480.553 1135.4 L480.553 1099.38 Z" fill="#000000" fill-rule="nonzero" fill-opacity="1" /><path clip-path="url(#clip890)" d="M523.793 1113.87 L553.469 1113.87 L553.469 1117.76 L523.793 1117.76 L523.793 1113.87 M523.793 1123.31 L553.469 1123.31 L553.469 1127.25 L523.793 1127.25 L523.793 1123.31 Z" fill="#000000" fill-rule="nonzero" fill-opacity="1" /><path clip-path="url(#clip890)" d="M588.631 1103.91 Q585.02 1103.91 583.191 1107.48 Q581.386 1111.02 581.386 1118.15 Q581.386 1125.26 583.191 1128.82 Q585.02 1132.36 588.631 1132.36 Q592.265 1132.36 594.071 1128.82 Q595.899 1125.26 595.899 1118.15 Q595.899 1111.02 594.071 1107.48 Q592.265 1103.91 588.631 1103.91 M588.631 1100.21 Q594.441 1100.21 597.497 1104.82 Q600.575 1109.4 600.575 1118.15 Q600.575 1126.88 597.497 1131.48 Q594.441 1136.07 588.631 1136.07 Q582.821 1136.07 579.742 1131.48 Q576.687 1126.88 576.687 1118.15 Q576.687 1109.4 579.742 1104.82 Q582.821 1100.21 588.631 1100.21 Z" fill="#000000" fill-rule="nonzero" fill-opacity="1" /><path clip-path="url(#clip890)" d="M608.793 1129.52 L613.677 1129.52 L613.677 1135.4 L608.793 1135.4 L608.793 1129.52 Z" fill="#000000" fill-rule="nonzero" fill-opacity="1" /><path clip-path="url(#clip890)" d="M633.862 1103.91 Q630.251 1103.91 628.422 1107.48 Q626.617 1111.02 626.617 1118.15 Q626.617 1125.26 628.422 1128.82 Q630.251 1132.36 633.862 1132.36 Q637.496 1132.36 639.302 1128.82 Q641.131 1125.26 641.131 1118.15 Q641.131 1111.02 639.302 1107.48 Q637.496 1103.91 633.862 1103.91 M633.862 1100.21 Q639.672 1100.21 642.728 1104.82 Q645.807 1109.4 645.807 1118.15 Q645.807 1126.88 642.728 1131.48 Q639.672 1136.07 633.862 1136.07 Q628.052 1136.07 624.973 1131.48 Q621.918 1126.88 621.918 1118.15 Q621.918 1109.4 624.973 1104.82 Q628.052 1100.21 633.862 1100.21 Z" fill="#000000" fill-rule="nonzero" fill-opacity="1" /><path clip-path="url(#clip890)" d="M664.024 1103.91 Q660.413 1103.91 658.584 1107.48 Q656.779 1111.02 656.779 1118.15 Q656.779 1125.26 658.584 1128.82 Q660.413 1132.36 664.024 1132.36 Q667.658 1132.36 669.464 1128.82 Q671.292 1125.26 671.292 1118.15 Q671.292 1111.02 669.464 1107.48 Q667.658 1103.91 664.024 1103.91 M664.024 1100.21 Q669.834 1100.21 672.89 1104.82 Q675.968 1109.4 675.968 1118.15 Q675.968 1126.88 672.89 1131.48 Q669.834 1136.07 664.024 1136.07 Q658.214 1136.07 655.135 1131.48 Q652.08 1126.88 652.08 1118.15 Q652.08 1109.4 655.135 1104.82 Q658.214 1100.21 664.024 1100.21 Z" fill="#000000" fill-rule="nonzero" fill-opacity="1" /><path clip-path="url(#clip890)" d="M684.996 1131.46 L692.635 1131.46 L692.635 1105.09 L684.325 1106.76 L684.325 1102.5 L692.589 1100.84 L697.265 1100.84 L697.265 1131.46 L704.903 1131.46 L704.903 1135.4 L684.996 1135.4 L684.996 1131.46 Z" fill="#000000" fill-rule="nonzero" fill-opacity="1" /><path clip-path="url(#clip890)" d="M729.001 1100.84 L735.968 1100.84 L744.787 1124.35 L753.653 1100.84 L760.621 1100.84 L760.621 1135.4 L756.061 1135.4 L756.061 1105.05 L747.149 1128.75 L742.45 1128.75 L733.538 1105.05 L733.538 1135.4 L729.001 1135.4 L729.001 1100.84 Z" fill="#000000" fill-rule="nonzero" fill-opacity="1" /><path clip-path="url(#clip890)" d="M773.838 1131.51 L773.838 1145.26 L769.556 1145.26 L769.556 1109.47 L773.838 1109.47 L773.838 1113.4 Q775.181 1111.09 777.218 1109.98 Q779.278 1108.84 782.125 1108.84 Q786.847 1108.84 789.787 1112.59 Q792.75 1116.34 792.75 1122.46 Q792.75 1128.57 789.787 1132.32 Q786.847 1136.07 782.125 1136.07 Q779.278 1136.07 777.218 1134.96 Q775.181 1133.82 773.838 1131.51 M788.329 1122.46 Q788.329 1117.76 786.384 1115.09 Q784.463 1112.41 781.084 1112.41 Q777.704 1112.41 775.76 1115.09 Q773.838 1117.76 773.838 1122.46 Q773.838 1127.15 775.76 1129.84 Q777.704 1132.5 781.084 1132.5 Q784.463 1132.5 786.384 1129.84 Q788.329 1127.15 788.329 1122.46 Z" fill="#000000" fill-rule="nonzero" fill-opacity="1" /><path clip-path="url(#clip890)" d="M818.468 1110.46 L818.468 1114.45 Q816.662 1113.45 814.833 1112.96 Q813.028 1112.46 811.176 1112.46 Q807.033 1112.46 804.741 1115.09 Q802.449 1117.71 802.449 1122.46 Q802.449 1127.2 804.741 1129.84 Q807.033 1132.46 811.176 1132.46 Q813.028 1132.46 814.833 1131.97 Q816.662 1131.46 818.468 1130.46 L818.468 1134.4 Q816.685 1135.23 814.764 1135.65 Q812.866 1136.07 810.713 1136.07 Q804.857 1136.07 801.408 1132.39 Q797.958 1128.71 797.958 1122.46 Q797.958 1116.11 801.431 1112.48 Q804.926 1108.84 810.991 1108.84 Q812.958 1108.84 814.833 1109.26 Q816.708 1109.65 818.468 1110.46 Z" fill="#000000" fill-rule="nonzero" fill-opacity="1" /><path clip-path="url(#clip890)" d="M843.537 1100.84 L856.106 1113.73 L851.454 1113.73 L841.268 1104.59 L831.083 1113.73 L826.431 1113.73 L839 1100.84 L843.537 1100.84 Z" fill="#000000" fill-rule="nonzero" fill-opacity="1" /><path clip-path="url(#clip890)" d="M863.444 1120.51 L875.921 1120.51 L875.921 1124.31 L863.444 1124.31 L863.444 1120.51 Z" fill="#000000" fill-rule="nonzero" fill-opacity="1" /><path clip-path="url(#clip890)" d="M884.115 1131.46 L891.754 1131.46 L891.754 1105.09 L883.444 1106.76 L883.444 1102.5 L891.708 1100.84 L896.384 1100.84 L896.384 1131.46 L904.023 1131.46 L904.023 1135.4 L884.115 1135.4 L884.115 1131.46 Z" fill="#000000" fill-rule="nonzero" fill-opacity="1" /><polyline clip-path="url(#clip890)" style="stroke:#e26f46; stroke-linecap:round; stroke-linejoin:round; stroke-width:4; stroke-opacity:1; fill:none" points="314.661,1169.96 456.854,1169.96 "/>
<path clip-path="url(#clip890)" d="M480.553 1151.22 L484.835 1151.22 L484.835 1172.49 L497.543 1161.31 L502.983 1161.31 L489.233 1173.44 L503.562 1187.24 L498.006 1187.24 L484.835 1174.57 L484.835 1187.24 L480.553 1187.24 L480.553 1151.22 Z" fill="#000000" fill-rule="nonzero" fill-opacity="1" /><path clip-path="url(#clip890)" d="M523.793 1165.71 L553.469 1165.71 L553.469 1169.6 L523.793 1169.6 L523.793 1165.71 M523.793 1175.15 L553.469 1175.15 L553.469 1179.09 L523.793 1179.09 L523.793 1175.15 Z" fill="#000000" fill-rule="nonzero" fill-opacity="1" /><path clip-path="url(#clip890)" d="M588.631 1155.75 Q585.02 1155.75 583.191 1159.32 Q581.386 1162.86 581.386 1169.99 Q581.386 1177.1 583.191 1180.66 Q585.02 1184.2 588.631 1184.2 Q592.265 1184.2 594.071 1180.66 Q595.899 1177.1 595.899 1169.99 Q595.899 1162.86 594.071 1159.32 Q592.265 1155.75 588.631 1155.75 M588.631 1152.05 Q594.441 1152.05 597.497 1156.66 Q600.575 1161.24 600.575 1169.99 Q600.575 1178.72 597.497 1183.32 Q594.441 1187.91 588.631 1187.91 Q582.821 1187.91 579.742 1183.32 Q576.687 1178.72 576.687 1169.99 Q576.687 1161.24 579.742 1156.66 Q582.821 1152.05 588.631 1152.05 Z" fill="#000000" fill-rule="nonzero" fill-opacity="1" /><path clip-path="url(#clip890)" d="M608.793 1181.36 L613.677 1181.36 L613.677 1187.24 L608.793 1187.24 L608.793 1181.36 Z" fill="#000000" fill-rule="nonzero" fill-opacity="1" /><path clip-path="url(#clip890)" d="M633.862 1155.75 Q630.251 1155.75 628.422 1159.32 Q626.617 1162.86 626.617 1169.99 Q626.617 1177.1 628.422 1180.66 Q630.251 1184.2 633.862 1184.2 Q637.496 1184.2 639.302 1180.66 Q641.131 1177.1 641.131 1169.99 Q641.131 1162.86 639.302 1159.32 Q637.496 1155.75 633.862 1155.75 M633.862 1152.05 Q639.672 1152.05 642.728 1156.66 Q645.807 1161.24 645.807 1169.99 Q645.807 1178.72 642.728 1183.32 Q639.672 1187.91 633.862 1187.91 Q628.052 1187.91 624.973 1183.32 Q621.918 1178.72 621.918 1169.99 Q621.918 1161.24 624.973 1156.66 Q628.052 1152.05 633.862 1152.05 Z" fill="#000000" fill-rule="nonzero" fill-opacity="1" /><path clip-path="url(#clip890)" d="M654.834 1183.3 L662.473 1183.3 L662.473 1156.93 L654.163 1158.6 L654.163 1154.34 L662.427 1152.68 L667.103 1152.68 L667.103 1183.3 L674.742 1183.3 L674.742 1187.24 L654.834 1187.24 L654.834 1183.3 Z" fill="#000000" fill-rule="nonzero" fill-opacity="1" /><path clip-path="url(#clip890)" d="M698.839 1152.68 L705.806 1152.68 L714.626 1176.19 L723.491 1152.68 L730.459 1152.68 L730.459 1187.24 L725.899 1187.24 L725.899 1156.89 L716.987 1180.59 L712.288 1180.59 L703.376 1156.89 L703.376 1187.24 L698.839 1187.24 L698.839 1152.68 Z" fill="#000000" fill-rule="nonzero" fill-opacity="1" /><path clip-path="url(#clip890)" d="M743.676 1183.35 L743.676 1197.1 L739.394 1197.1 L739.394 1161.31 L743.676 1161.31 L743.676 1165.24 Q745.019 1162.93 747.056 1161.82 Q749.116 1160.68 751.963 1160.68 Q756.686 1160.68 759.625 1164.43 Q762.588 1168.18 762.588 1174.3 Q762.588 1180.41 759.625 1184.16 Q756.686 1187.91 751.963 1187.91 Q749.116 1187.91 747.056 1186.8 Q745.019 1185.66 743.676 1183.35 M758.167 1174.3 Q758.167 1169.6 756.223 1166.93 Q754.301 1164.25 750.922 1164.25 Q747.542 1164.25 745.598 1166.93 Q743.676 1169.6 743.676 1174.3 Q743.676 1178.99 745.598 1181.68 Q747.542 1184.34 750.922 1184.34 Q754.301 1184.34 756.223 1181.68 Q758.167 1178.99 758.167 1174.3 Z" fill="#000000" fill-rule="nonzero" fill-opacity="1" /><path clip-path="url(#clip890)" d="M788.306 1162.3 L788.306 1166.29 Q786.5 1165.29 784.672 1164.8 Q782.866 1164.3 781.014 1164.3 Q776.871 1164.3 774.579 1166.93 Q772.287 1169.55 772.287 1174.3 Q772.287 1179.04 774.579 1181.68 Q776.871 1184.3 781.014 1184.3 Q782.866 1184.3 784.672 1183.81 Q786.5 1183.3 788.306 1182.3 L788.306 1186.24 Q786.523 1187.07 784.602 1187.49 Q782.704 1187.91 780.551 1187.91 Q774.695 1187.91 771.246 1184.23 Q767.797 1180.55 767.797 1174.3 Q767.797 1167.95 771.269 1164.32 Q774.764 1160.68 780.829 1160.68 Q782.797 1160.68 784.672 1161.1 Q786.547 1161.49 788.306 1162.3 Z" fill="#000000" fill-rule="nonzero" fill-opacity="1" /><path clip-path="url(#clip890)" d="M813.375 1152.68 L825.944 1165.57 L821.292 1165.57 L811.107 1156.43 L800.921 1165.57 L796.269 1165.57 L808.838 1152.68 L813.375 1152.68 Z" fill="#000000" fill-rule="nonzero" fill-opacity="1" /><path clip-path="url(#clip890)" d="M833.282 1172.35 L845.759 1172.35 L845.759 1176.15 L833.282 1176.15 L833.282 1172.35 Z" fill="#000000" fill-rule="nonzero" fill-opacity="1" /><path clip-path="url(#clip890)" d="M853.954 1183.3 L861.592 1183.3 L861.592 1156.93 L853.282 1158.6 L853.282 1154.34 L861.546 1152.68 L866.222 1152.68 L866.222 1183.3 L873.861 1183.3 L873.861 1187.24 L853.954 1187.24 L853.954 1183.3 Z" fill="#000000" fill-rule="nonzero" fill-opacity="1" /><polyline clip-path="url(#clip890)" style="stroke:#3da44d; stroke-linecap:round; stroke-linejoin:round; stroke-width:4; stroke-opacity:1; fill:none" points="314.661,1221.8 456.854,1221.8 "/>
<path clip-path="url(#clip890)" d="M480.553 1203.06 L484.835 1203.06 L484.835 1224.33 L497.543 1213.15 L502.983 1213.15 L489.233 1225.28 L503.562 1239.08 L498.006 1239.08 L484.835 1226.41 L484.835 1239.08 L480.553 1239.08 L480.553 1203.06 Z" fill="#000000" fill-rule="nonzero" fill-opacity="1" /><path clip-path="url(#clip890)" d="M523.793 1217.55 L553.469 1217.55 L553.469 1221.44 L523.793 1221.44 L523.793 1217.55 M523.793 1226.99 L553.469 1226.99 L553.469 1230.93 L523.793 1230.93 L523.793 1226.99 Z" fill="#000000" fill-rule="nonzero" fill-opacity="1" /><path clip-path="url(#clip890)" d="M588.631 1207.59 Q585.02 1207.59 583.191 1211.16 Q581.386 1214.7 581.386 1221.83 Q581.386 1228.94 583.191 1232.5 Q585.02 1236.04 588.631 1236.04 Q592.265 1236.04 594.071 1232.5 Q595.899 1228.94 595.899 1221.83 Q595.899 1214.7 594.071 1211.16 Q592.265 1207.59 588.631 1207.59 M588.631 1203.89 Q594.441 1203.89 597.497 1208.5 Q600.575 1213.08 600.575 1221.83 Q600.575 1230.56 597.497 1235.16 Q594.441 1239.75 588.631 1239.75 Q582.821 1239.75 579.742 1235.16 Q576.687 1230.56 576.687 1221.83 Q576.687 1213.08 579.742 1208.5 Q582.821 1203.89 588.631 1203.89 Z" fill="#000000" fill-rule="nonzero" fill-opacity="1" /><path clip-path="url(#clip890)" d="M608.793 1233.2 L613.677 1233.2 L613.677 1239.08 L608.793 1239.08 L608.793 1233.2 Z" fill="#000000" fill-rule="nonzero" fill-opacity="1" /><path clip-path="url(#clip890)" d="M624.672 1235.14 L632.311 1235.14 L632.311 1208.77 L624.001 1210.44 L624.001 1206.18 L632.265 1204.52 L636.941 1204.52 L636.941 1235.14 L644.58 1235.14 L644.58 1239.08 L624.672 1239.08 L624.672 1235.14 Z" fill="#000000" fill-rule="nonzero" fill-opacity="1" /><path clip-path="url(#clip890)" d="M668.677 1204.52 L675.644 1204.52 L684.464 1228.03 L693.329 1204.52 L700.297 1204.52 L700.297 1239.08 L695.737 1239.08 L695.737 1208.73 L686.825 1232.43 L682.126 1232.43 L673.214 1208.73 L673.214 1239.08 L668.677 1239.08 L668.677 1204.52 Z" fill="#000000" fill-rule="nonzero" fill-opacity="1" /><path clip-path="url(#clip890)" d="M713.514 1235.19 L713.514 1248.94 L709.232 1248.94 L709.232 1213.15 L713.514 1213.15 L713.514 1217.08 Q714.857 1214.77 716.894 1213.66 Q718.954 1212.52 721.801 1212.52 Q726.524 1212.52 729.463 1216.27 Q732.426 1220.02 732.426 1226.14 Q732.426 1232.25 729.463 1236 Q726.524 1239.75 721.801 1239.75 Q718.954 1239.75 716.894 1238.64 Q714.857 1237.5 713.514 1235.19 M728.005 1226.14 Q728.005 1221.44 726.061 1218.77 Q724.139 1216.09 720.76 1216.09 Q717.38 1216.09 715.436 1218.77 Q713.514 1221.44 713.514 1226.14 Q713.514 1230.83 715.436 1233.52 Q717.38 1236.18 720.76 1236.18 Q724.139 1236.18 726.061 1233.52 Q728.005 1230.83 728.005 1226.14 Z" fill="#000000" fill-rule="nonzero" fill-opacity="1" /><path clip-path="url(#clip890)" d="M758.144 1214.14 L758.144 1218.13 Q756.338 1217.13 754.51 1216.64 Q752.704 1216.14 750.852 1216.14 Q746.709 1216.14 744.417 1218.77 Q742.125 1221.39 742.125 1226.14 Q742.125 1230.88 744.417 1233.52 Q746.709 1236.14 750.852 1236.14 Q752.704 1236.14 754.51 1235.65 Q756.338 1235.14 758.144 1234.14 L758.144 1238.08 Q756.361 1238.91 754.44 1239.33 Q752.542 1239.75 750.389 1239.75 Q744.533 1239.75 741.084 1236.07 Q737.635 1232.39 737.635 1226.14 Q737.635 1219.79 741.107 1216.16 Q744.602 1212.52 750.667 1212.52 Q752.635 1212.52 754.51 1212.94 Q756.385 1213.33 758.144 1214.14 Z" fill="#000000" fill-rule="nonzero" fill-opacity="1" /><path clip-path="url(#clip890)" d="M783.213 1204.52 L795.783 1217.41 L791.13 1217.41 L780.945 1208.27 L770.76 1217.41 L766.107 1217.41 L778.676 1204.52 L783.213 1204.52 Z" fill="#000000" fill-rule="nonzero" fill-opacity="1" /><path clip-path="url(#clip890)" d="M803.12 1224.19 L815.597 1224.19 L815.597 1227.99 L803.12 1227.99 L803.12 1224.19 Z" fill="#000000" fill-rule="nonzero" fill-opacity="1" /><path clip-path="url(#clip890)" d="M823.792 1235.14 L831.431 1235.14 L831.431 1208.77 L823.12 1210.44 L823.12 1206.18 L831.384 1204.52 L836.06 1204.52 L836.06 1235.14 L843.699 1235.14 L843.699 1239.08 L823.792 1239.08 L823.792 1235.14 Z" fill="#000000" fill-rule="nonzero" fill-opacity="1" /><polyline clip-path="url(#clip890)" style="stroke:#c271d2; stroke-linecap:round; stroke-linejoin:round; stroke-width:4; stroke-opacity:1; fill:none" points="314.661,1273.64 456.854,1273.64 "/>
<path clip-path="url(#clip890)" d="M480.553 1254.9 L484.835 1254.9 L484.835 1276.17 L497.543 1264.99 L502.983 1264.99 L489.233 1277.12 L503.562 1290.92 L498.006 1290.92 L484.835 1278.25 L484.835 1290.92 L480.553 1290.92 L480.553 1254.9 Z" fill="#000000" fill-rule="nonzero" fill-opacity="1" /><path clip-path="url(#clip890)" d="M523.793 1269.39 L553.469 1269.39 L553.469 1273.28 L523.793 1273.28 L523.793 1269.39 M523.793 1278.83 L553.469 1278.83 L553.469 1282.77 L523.793 1282.77 L523.793 1278.83 Z" fill="#000000" fill-rule="nonzero" fill-opacity="1" /><path clip-path="url(#clip890)" d="M579.441 1286.98 L587.08 1286.98 L587.08 1260.61 L578.77 1262.28 L578.77 1258.02 L587.034 1256.36 L591.71 1256.36 L591.71 1286.98 L599.348 1286.98 L599.348 1290.92 L579.441 1290.92 L579.441 1286.98 Z" fill="#000000" fill-rule="nonzero" fill-opacity="1" /><path clip-path="url(#clip890)" d="M608.793 1285.04 L613.677 1285.04 L613.677 1290.92 L608.793 1290.92 L608.793 1285.04 Z" fill="#000000" fill-rule="nonzero" fill-opacity="1" /><path clip-path="url(#clip890)" d="M633.862 1259.43 Q630.251 1259.43 628.422 1263 Q626.617 1266.54 626.617 1273.67 Q626.617 1280.78 628.422 1284.34 Q630.251 1287.88 633.862 1287.88 Q637.496 1287.88 639.302 1284.34 Q641.131 1280.78 641.131 1273.67 Q641.131 1266.54 639.302 1263 Q637.496 1259.43 633.862 1259.43 M633.862 1255.73 Q639.672 1255.73 642.728 1260.34 Q645.807 1264.92 645.807 1273.67 Q645.807 1282.4 642.728 1287 Q639.672 1291.59 633.862 1291.59 Q628.052 1291.59 624.973 1287 Q621.918 1282.4 621.918 1273.67 Q621.918 1264.92 624.973 1260.34 Q628.052 1255.73 633.862 1255.73 Z" fill="#000000" fill-rule="nonzero" fill-opacity="1" /><path clip-path="url(#clip890)" d="M668.677 1256.36 L675.644 1256.36 L684.464 1279.87 L693.329 1256.36 L700.297 1256.36 L700.297 1290.92 L695.737 1290.92 L695.737 1260.57 L686.825 1284.27 L682.126 1284.27 L673.214 1260.57 L673.214 1290.92 L668.677 1290.92 L668.677 1256.36 Z" fill="#000000" fill-rule="nonzero" fill-opacity="1" /><path clip-path="url(#clip890)" d="M713.514 1287.03 L713.514 1300.78 L709.232 1300.78 L709.232 1264.99 L713.514 1264.99 L713.514 1268.92 Q714.857 1266.61 716.894 1265.5 Q718.954 1264.36 721.801 1264.36 Q726.524 1264.36 729.463 1268.11 Q732.426 1271.86 732.426 1277.98 Q732.426 1284.09 729.463 1287.84 Q726.524 1291.59 721.801 1291.59 Q718.954 1291.59 716.894 1290.48 Q714.857 1289.34 713.514 1287.03 M728.005 1277.98 Q728.005 1273.28 726.061 1270.61 Q724.139 1267.93 720.76 1267.93 Q717.38 1267.93 715.436 1270.61 Q713.514 1273.28 713.514 1277.98 Q713.514 1282.67 715.436 1285.36 Q717.38 1288.02 720.76 1288.02 Q724.139 1288.02 726.061 1285.36 Q728.005 1282.67 728.005 1277.98 Z" fill="#000000" fill-rule="nonzero" fill-opacity="1" /><path clip-path="url(#clip890)" d="M758.144 1265.98 L758.144 1269.97 Q756.338 1268.97 754.51 1268.48 Q752.704 1267.98 750.852 1267.98 Q746.709 1267.98 744.417 1270.61 Q742.125 1273.23 742.125 1277.98 Q742.125 1282.72 744.417 1285.36 Q746.709 1287.98 750.852 1287.98 Q752.704 1287.98 754.51 1287.49 Q756.338 1286.98 758.144 1285.98 L758.144 1289.92 Q756.361 1290.75 754.44 1291.17 Q752.542 1291.59 750.389 1291.59 Q744.533 1291.59 741.084 1287.91 Q737.635 1284.23 737.635 1277.98 Q737.635 1271.63 741.107 1268 Q744.602 1264.36 750.667 1264.36 Q752.635 1264.36 754.51 1264.78 Q756.385 1265.17 758.144 1265.98 Z" fill="#000000" fill-rule="nonzero" fill-opacity="1" /><path clip-path="url(#clip890)" d="M783.213 1256.36 L795.783 1269.25 L791.13 1269.25 L780.945 1260.11 L770.76 1269.25 L766.107 1269.25 L778.676 1256.36 L783.213 1256.36 Z" fill="#000000" fill-rule="nonzero" fill-opacity="1" /><path clip-path="url(#clip890)" d="M803.12 1276.03 L815.597 1276.03 L815.597 1279.83 L803.12 1279.83 L803.12 1276.03 Z" fill="#000000" fill-rule="nonzero" fill-opacity="1" /><path clip-path="url(#clip890)" d="M823.792 1286.98 L831.431 1286.98 L831.431 1260.61 L823.12 1262.28 L823.12 1258.02 L831.384 1256.36 L836.06 1256.36 L836.06 1286.98 L843.699 1286.98 L843.699 1290.92 L823.792 1290.92 L823.792 1286.98 Z" fill="#000000" fill-rule="nonzero" fill-opacity="1" /><polyline clip-path="url(#clip890)" style="stroke:#000000; stroke-linecap:round; stroke-linejoin:round; stroke-width:4; stroke-opacity:1; fill:none" points="314.661,1325.48 456.854,1325.48 "/>
<path clip-path="url(#clip890)" d="M494.233 1315.76 Q490.761 1316.25 488.493 1318.26 Q485.483 1320.93 485.483 1325.51 Q485.483 1330.07 488.493 1332.73 Q490.761 1334.75 494.233 1335.23 L494.233 1315.76 M498.909 1335.23 Q502.381 1334.75 504.65 1332.73 Q507.613 1330.07 507.613 1325.51 Q507.613 1320.93 504.65 1318.26 Q502.381 1316.25 498.909 1315.76 L498.909 1335.23 M494.233 1339.1 Q488.585 1338.59 484.928 1335.49 Q480.553 1331.78 480.553 1325.51 Q480.553 1319.24 484.928 1315.51 Q488.562 1312.39 494.233 1311.88 L494.233 1308.2 L498.909 1308.2 L498.909 1311.88 Q504.557 1312.41 508.192 1315.51 Q512.543 1319.24 512.543 1325.51 Q512.543 1331.76 508.192 1335.49 Q504.557 1338.59 498.909 1339.12 L498.909 1342.76 L494.233 1342.76 L494.233 1339.1 Z" fill="#000000" fill-rule="nonzero" fill-opacity="1" /><path clip-path="url(#clip890)" d="M529.904 1306.78 Q526.803 1312.11 525.298 1317.32 Q523.793 1322.52 523.793 1327.87 Q523.793 1333.22 525.298 1338.47 Q526.826 1343.7 529.904 1349.01 L526.201 1349.01 Q522.728 1343.57 520.992 1338.31 Q519.279 1333.06 519.279 1327.87 Q519.279 1322.71 520.992 1317.48 Q522.705 1312.25 526.201 1306.78 L529.904 1306.78 Z" fill="#000000" fill-rule="nonzero" fill-opacity="1" /><path clip-path="url(#clip890)" d="M542.381 1309.47 L542.381 1316.83 L551.154 1316.83 L551.154 1320.14 L542.381 1320.14 L542.381 1334.21 Q542.381 1337.38 543.238 1338.29 Q544.117 1339.19 546.779 1339.19 L551.154 1339.19 L551.154 1342.76 L546.779 1342.76 Q541.849 1342.76 539.974 1340.93 Q538.099 1339.07 538.099 1334.21 L538.099 1320.14 L534.974 1320.14 L534.974 1316.83 L538.099 1316.83 L538.099 1309.47 L542.381 1309.47 Z" fill="#000000" fill-rule="nonzero" fill-opacity="1" /><path clip-path="url(#clip890)" d="M556.085 1306.78 L559.788 1306.78 Q563.261 1312.25 564.974 1317.48 Q566.71 1322.71 566.71 1327.87 Q566.71 1333.06 564.974 1338.31 Q563.261 1343.57 559.788 1349.01 L556.085 1349.01 Q559.163 1343.7 560.668 1338.47 Q562.196 1333.22 562.196 1327.87 Q562.196 1322.52 560.668 1317.32 Q559.163 1312.11 556.085 1306.78 Z" fill="#000000" fill-rule="nonzero" fill-opacity="1" /></svg>
