<?xml version="1.0" encoding="utf-8"?>
<svg xmlns="http://www.w3.org/2000/svg" xmlns:xlink="http://www.w3.org/1999/xlink" width="600" height="400" viewBox="0 0 2400 1600">
<defs>
  <clipPath id="clip570">
    <rect x="0" y="0" width="2400" height="1600"/>
  </clipPath>
</defs>
<path clip-path="url(#clip570)" d="M0 1600 L2400 1600 L2400 0 L0 0  Z" fill="#ffffff" fill-rule="evenodd" fill-opacity="1"/>
<defs>
  <clipPath id="clip571">
    <rect x="480" y="0" width="1681" height="1600"/>
  </clipPath>
</defs>
<path clip-path="url(#clip570)" d="M242.135 1423.18 L2352.76 1423.18 L2352.76 47.2441 L242.135 47.2441  Z" fill="#ffffff" fill-rule="evenodd" fill-opacity="1"/>
<defs>
  <clipPath id="clip572">
    <rect x="242" y="47" width="2112" height="1377"/>
  </clipPath>
</defs>
<polyline clip-path="url(#clip572)" style="stroke:#000000; stroke-linecap:round; stroke-linejoin:round; stroke-width:2; stroke-opacity:0.1; fill:none" points="301.869,1423.18 301.869,47.2441 "/>
<polyline clip-path="url(#clip572)" style="stroke:#000000; stroke-linecap:round; stroke-linejoin:round; stroke-width:2; stroke-opacity:0.1; fill:none" points="799.657,1423.18 799.657,47.2441 "/>
<polyline clip-path="url(#clip572)" style="stroke:#000000; stroke-linecap:round; stroke-linejoin:round; stroke-width:2; stroke-opacity:0.1; fill:none" points="1297.45,1423.18 1297.45,47.2441 "/>
<polyline clip-path="url(#clip572)" style="stroke:#000000; stroke-linecap:round; stroke-linejoin:round; stroke-width:2; stroke-opacity:0.1; fill:none" points="1795.23,1423.18 1795.23,47.2441 "/>
<polyline clip-path="url(#clip572)" style="stroke:#000000; stroke-linecap:round; stroke-linejoin:round; stroke-width:2; stroke-opacity:0.1; fill:none" points="2293.02,1423.18 2293.02,47.2441 "/>
<polyline clip-path="url(#clip572)" style="stroke:#000000; stroke-linecap:round; stroke-linejoin:round; stroke-width:2; stroke-opacity:0.1; fill:none" points="242.135,1375.38 2352.76,1375.38 "/>
<polyline clip-path="url(#clip572)" style="stroke:#000000; stroke-linecap:round; stroke-linejoin:round; stroke-width:2; stroke-opacity:0.1; fill:none" points="242.135,1117.54 2352.76,1117.54 "/>
<polyline clip-path="url(#clip572)" style="stroke:#000000; stroke-linecap:round; stroke-linejoin:round; stroke-width:2; stroke-opacity:0.1; fill:none" points="242.135,859.702 2352.76,859.702 "/>
<polyline clip-path="url(#clip572)" style="stroke:#000000; stroke-linecap:round; stroke-linejoin:round; stroke-width:2; stroke-opacity:0.1; fill:none" points="242.135,601.863 2352.76,601.863 "/>
<polyline clip-path="url(#clip572)" style="stroke:#000000; stroke-linecap:round; stroke-linejoin:round; stroke-width:2; stroke-opacity:0.1; fill:none" points="242.135,344.024 2352.76,344.024 "/>
<polyline clip-path="url(#clip572)" style="stroke:#000000; stroke-linecap:round; stroke-linejoin:round; stroke-width:2; stroke-opacity:0.1; fill:none" points="242.135,86.1857 2352.76,86.1857 "/>
<polyline clip-path="url(#clip570)" style="stroke:#000000; stroke-linecap:round; stroke-linejoin:round; stroke-width:4; stroke-opacity:1; fill:none" points="242.135,1423.18 2352.76,1423.18 "/>
<polyline clip-path="url(#clip570)" style="stroke:#000000; stroke-linecap:round; stroke-linejoin:round; stroke-width:4; stroke-opacity:1; fill:none" points="301.869,1423.18 301.869,1404.28 "/>
<polyline clip-path="url(#clip570)" style="stroke:#000000; stroke-linecap:round; stroke-linejoin:round; stroke-width:4; stroke-opacity:1; fill:none" points="799.657,1423.18 799.657,1404.28 "/>
<polyline clip-path="url(#clip570)" style="stroke:#000000; stroke-linecap:round; stroke-linejoin:round; stroke-width:4; stroke-opacity:1; fill:none" points="1297.45,1423.18 1297.45,1404.28 "/>
<polyline clip-path="url(#clip570)" style="stroke:#000000; stroke-linecap:round; stroke-linejoin:round; stroke-width:4; stroke-opacity:1; fill:none" points="1795.23,1423.18 1795.23,1404.28 "/>
<polyline clip-path="url(#clip570)" style="stroke:#000000; stroke-linecap:round; stroke-linejoin:round; stroke-width:4; stroke-opacity:1; fill:none" points="2293.02,1423.18 2293.02,1404.28 "/>
<path clip-path="url(#clip570)" d="M279.254 1454.1 Q275.643 1454.1 273.814 1457.66 Q272.008 1461.2 272.008 1468.33 Q272.008 1475.44 273.814 1479.01 Q275.643 1482.55 279.254 1482.55 Q282.888 1482.55 284.693 1479.01 Q286.522 1475.44 286.522 1468.33 Q286.522 1461.2 284.693 1457.66 Q282.888 1454.1 279.254 1454.1 M279.254 1450.39 Q285.064 1450.39 288.119 1455 Q291.198 1459.58 291.198 1468.33 Q291.198 1477.06 288.119 1481.67 Q285.064 1486.25 279.254 1486.25 Q273.443 1486.25 270.365 1481.67 Q267.309 1477.06 267.309 1468.33 Q267.309 1459.58 270.365 1455 Q273.443 1450.39 279.254 1450.39 Z" fill="#000000" fill-rule="nonzero" fill-opacity="1" /><path clip-path="url(#clip570)" d="M299.416 1479.7 L304.3 1479.7 L304.3 1485.58 L299.416 1485.58 L299.416 1479.7 Z" fill="#000000" fill-rule="nonzero" fill-opacity="1" /><path clip-path="url(#clip570)" d="M324.485 1454.1 Q320.874 1454.1 319.045 1457.66 Q317.24 1461.2 317.24 1468.33 Q317.24 1475.44 319.045 1479.01 Q320.874 1482.55 324.485 1482.55 Q328.119 1482.55 329.925 1479.01 Q331.753 1475.44 331.753 1468.33 Q331.753 1461.2 329.925 1457.66 Q328.119 1454.1 324.485 1454.1 M324.485 1450.39 Q330.295 1450.39 333.351 1455 Q336.429 1459.58 336.429 1468.33 Q336.429 1477.06 333.351 1481.67 Q330.295 1486.25 324.485 1486.25 Q318.675 1486.25 315.596 1481.67 Q312.54 1477.06 312.54 1468.33 Q312.54 1459.58 315.596 1455 Q318.675 1450.39 324.485 1450.39 Z" fill="#000000" fill-rule="nonzero" fill-opacity="1" /><path clip-path="url(#clip570)" d="M771.394 1481.64 L787.713 1481.64 L787.713 1485.58 L765.769 1485.58 L765.769 1481.64 Q768.431 1478.89 773.014 1474.26 Q777.62 1469.61 778.801 1468.27 Q781.046 1465.74 781.926 1464.01 Q782.829 1462.25 782.829 1460.56 Q782.829 1457.8 780.884 1456.07 Q778.963 1454.33 775.861 1454.33 Q773.662 1454.33 771.208 1455.09 Q768.778 1455.86 766 1457.41 L766 1452.69 Q768.824 1451.55 771.278 1450.97 Q773.731 1450.39 775.768 1450.39 Q781.139 1450.39 784.333 1453.08 Q787.528 1455.77 787.528 1460.26 Q787.528 1462.39 786.718 1464.31 Q785.93 1466.2 783.824 1468.8 Q783.245 1469.47 780.143 1472.69 Q777.042 1475.88 771.394 1481.64 Z" fill="#000000" fill-rule="nonzero" fill-opacity="1" /><path clip-path="url(#clip570)" d="M797.528 1479.7 L802.412 1479.7 L802.412 1485.58 L797.528 1485.58 L797.528 1479.7 Z" fill="#000000" fill-rule="nonzero" fill-opacity="1" /><path clip-path="url(#clip570)" d="M812.643 1451.02 L831 1451.02 L831 1454.96 L816.926 1454.96 L816.926 1463.43 Q817.944 1463.08 818.963 1462.92 Q819.981 1462.73 821 1462.73 Q826.787 1462.73 830.166 1465.9 Q833.546 1469.08 833.546 1474.49 Q833.546 1480.07 830.074 1483.17 Q826.602 1486.25 820.282 1486.25 Q818.106 1486.25 815.838 1485.88 Q813.592 1485.51 811.185 1484.77 L811.185 1480.07 Q813.268 1481.2 815.491 1481.76 Q817.713 1482.32 820.19 1482.32 Q824.194 1482.32 826.532 1480.21 Q828.87 1478.1 828.87 1474.49 Q828.87 1470.88 826.532 1468.77 Q824.194 1466.67 820.19 1466.67 Q818.315 1466.67 816.44 1467.08 Q814.588 1467.5 812.643 1468.38 L812.643 1451.02 Z" fill="#000000" fill-rule="nonzero" fill-opacity="1" /><path clip-path="url(#clip570)" d="M1264.61 1451.02 L1282.97 1451.02 L1282.97 1454.96 L1268.89 1454.96 L1268.89 1463.43 Q1269.91 1463.08 1270.93 1462.92 Q1271.95 1462.73 1272.97 1462.73 Q1278.75 1462.73 1282.13 1465.9 Q1285.51 1469.08 1285.51 1474.49 Q1285.51 1480.07 1282.04 1483.17 Q1278.57 1486.25 1272.25 1486.25 Q1270.07 1486.25 1267.8 1485.88 Q1265.56 1485.51 1263.15 1484.77 L1263.15 1480.07 Q1265.23 1481.2 1267.46 1481.76 Q1269.68 1482.32 1272.16 1482.32 Q1276.16 1482.32 1278.5 1480.21 Q1280.84 1478.1 1280.84 1474.49 Q1280.84 1470.88 1278.5 1468.77 Q1276.16 1466.67 1272.16 1466.67 Q1270.28 1466.67 1268.41 1467.08 Q1266.55 1467.5 1264.61 1468.38 L1264.61 1451.02 Z" fill="#000000" fill-rule="nonzero" fill-opacity="1" /><path clip-path="url(#clip570)" d="M1294.73 1479.7 L1299.61 1479.7 L1299.61 1485.58 L1294.73 1485.58 L1294.73 1479.7 Z" fill="#000000" fill-rule="nonzero" fill-opacity="1" /><path clip-path="url(#clip570)" d="M1319.79 1454.1 Q1316.18 1454.1 1314.35 1457.66 Q1312.55 1461.2 1312.55 1468.33 Q1312.55 1475.44 1314.35 1479.01 Q1316.18 1482.55 1319.79 1482.55 Q1323.43 1482.55 1325.23 1479.01 Q1327.06 1475.44 1327.06 1468.33 Q1327.06 1461.2 1325.23 1457.66 Q1323.43 1454.1 1319.79 1454.1 M1319.79 1450.39 Q1325.6 1450.39 1328.66 1455 Q1331.74 1459.58 1331.74 1468.33 Q1331.74 1477.06 1328.66 1481.67 Q1325.6 1486.25 1319.79 1486.25 Q1313.98 1486.25 1310.91 1481.67 Q1307.85 1477.06 1307.85 1468.33 Q1307.85 1459.58 1310.91 1455 Q1313.98 1450.39 1319.79 1450.39 Z" fill="#000000" fill-rule="nonzero" fill-opacity="1" /><path clip-path="url(#clip570)" d="M1761.55 1451.02 L1783.78 1451.02 L1783.78 1453.01 L1771.23 1485.58 L1766.34 1485.58 L1778.15 1454.96 L1761.55 1454.96 L1761.55 1451.02 Z" fill="#000000" fill-rule="nonzero" fill-opacity="1" /><path clip-path="url(#clip570)" d="M1792.9 1479.7 L1797.78 1479.7 L1797.78 1485.58 L1792.9 1485.58 L1792.9 1479.7 Z" fill="#000000" fill-rule="nonzero" fill-opacity="1" /><path clip-path="url(#clip570)" d="M1808.01 1451.02 L1826.37 1451.02 L1826.37 1454.96 L1812.29 1454.96 L1812.29 1463.43 Q1813.31 1463.08 1814.33 1462.92 Q1815.35 1462.73 1816.37 1462.73 Q1822.15 1462.73 1825.53 1465.9 Q1828.91 1469.08 1828.91 1474.49 Q1828.91 1480.07 1825.44 1483.17 Q1821.97 1486.25 1815.65 1486.25 Q1813.47 1486.25 1811.21 1485.88 Q1808.96 1485.51 1806.55 1484.77 L1806.55 1480.07 Q1808.64 1481.2 1810.86 1481.76 Q1813.08 1482.32 1815.56 1482.32 Q1819.56 1482.32 1821.9 1480.21 Q1824.24 1478.1 1824.24 1474.49 Q1824.24 1470.88 1821.9 1468.77 Q1819.56 1466.67 1815.56 1466.67 Q1813.68 1466.67 1811.81 1467.08 Q1809.96 1467.5 1808.01 1468.38 L1808.01 1451.02 Z" fill="#000000" fill-rule="nonzero" fill-opacity="1" /><path clip-path="url(#clip570)" d="M2245.09 1481.64 L2252.73 1481.64 L2252.73 1455.28 L2244.42 1456.95 L2244.42 1452.69 L2252.69 1451.02 L2257.36 1451.02 L2257.36 1481.64 L2265 1481.64 L2265 1485.58 L2245.09 1485.58 L2245.09 1481.64 Z" fill="#000000" fill-rule="nonzero" fill-opacity="1" /><path clip-path="url(#clip570)" d="M2284.44 1454.1 Q2280.83 1454.1 2279.01 1457.66 Q2277.2 1461.2 2277.2 1468.33 Q2277.2 1475.44 2279.01 1479.01 Q2280.83 1482.55 2284.44 1482.55 Q2288.08 1482.55 2289.88 1479.01 Q2291.71 1475.44 2291.71 1468.33 Q2291.71 1461.2 2289.88 1457.66 Q2288.08 1454.1 2284.44 1454.1 M2284.44 1450.39 Q2290.26 1450.39 2293.31 1455 Q2296.39 1459.58 2296.39 1468.33 Q2296.39 1477.06 2293.31 1481.67 Q2290.26 1486.25 2284.44 1486.25 Q2278.63 1486.25 2275.56 1481.67 Q2272.5 1477.06 2272.5 1468.33 Q2272.5 1459.58 2275.56 1455 Q2278.63 1450.39 2284.44 1450.39 Z" fill="#000000" fill-rule="nonzero" fill-opacity="1" /><path clip-path="url(#clip570)" d="M2304.61 1479.7 L2309.49 1479.7 L2309.49 1485.58 L2304.61 1485.58 L2304.61 1479.7 Z" fill="#000000" fill-rule="nonzero" fill-opacity="1" /><path clip-path="url(#clip570)" d="M2329.68 1454.1 Q2326.07 1454.1 2324.24 1457.66 Q2322.43 1461.2 2322.43 1468.33 Q2322.43 1475.44 2324.24 1479.01 Q2326.07 1482.55 2329.68 1482.55 Q2333.31 1482.55 2335.12 1479.01 Q2336.94 1475.44 2336.94 1468.33 Q2336.94 1461.2 2335.12 1457.66 Q2333.31 1454.1 2329.68 1454.1 M2329.68 1450.39 Q2335.49 1450.39 2338.54 1455 Q2341.62 1459.58 2341.62 1468.33 Q2341.62 1477.06 2338.54 1481.67 Q2335.49 1486.25 2329.68 1486.25 Q2323.87 1486.25 2320.79 1481.67 Q2317.73 1477.06 2317.73 1468.33 Q2317.73 1459.58 2320.79 1455 Q2323.87 1450.39 2329.68 1450.39 Z" fill="#000000" fill-rule="nonzero" fill-opacity="1" /><path clip-path="url(#clip570)" d="M1283.93 1532.4 L1311.75 1532.4 L1311.75 1537.74 L1289.73 1563.37 L1311.75 1563.37 L1311.75 1568.04 L1283.14 1568.04 L1283.14 1562.7 L1305.16 1537.07 L1283.93 1537.07 L1283.93 1532.4 Z" fill="#000000" fill-rule="nonzero" fill-opacity="1" /><polyline clip-path="url(#clip570)" style="stroke:#000000; stroke-linecap:round; stroke-linejoin:round; stroke-width:4; stroke-opacity:1; fill:none" points="242.135,1423.18 242.135,47.2441 "/>
<polyline clip-path="url(#clip570)" style="stroke:#000000; stroke-linecap:round; stroke-linejoin:round; stroke-width:4; stroke-opacity:1; fill:none" points="242.135,1375.38 261.032,1375.38 "/>
<polyline clip-path="url(#clip570)" style="stroke:#000000; stroke-linecap:round; stroke-linejoin:round; stroke-width:4; stroke-opacity:1; fill:none" points="242.135,1117.54 261.032,1117.54 "/>
<polyline clip-path="url(#clip570)" style="stroke:#000000; stroke-linecap:round; stroke-linejoin:round; stroke-width:4; stroke-opacity:1; fill:none" points="242.135,859.702 261.032,859.702 "/>
<polyline clip-path="url(#clip570)" style="stroke:#000000; stroke-linecap:round; stroke-linejoin:round; stroke-width:4; stroke-opacity:1; fill:none" points="242.135,601.863 261.032,601.863 "/>
<polyline clip-path="url(#clip570)" style="stroke:#000000; stroke-linecap:round; stroke-linejoin:round; stroke-width:4; stroke-opacity:1; fill:none" points="242.135,344.024 261.032,344.024 "/>
<polyline clip-path="url(#clip570)" style="stroke:#000000; stroke-linecap:round; stroke-linejoin:round; stroke-width:4; stroke-opacity:1; fill:none" points="242.135,86.1857 261.032,86.1857 "/>
<path clip-path="url(#clip570)" d="M114.26 1375.83 L143.936 1375.83 L143.936 1379.77 L114.26 1379.77 L114.26 1375.83 Z" fill="#000000" fill-rule="nonzero" fill-opacity="1" /><path clip-path="url(#clip570)" d="M154.075 1358.1 L172.431 1358.1 L172.431 1362.03 L158.357 1362.03 L158.357 1370.51 Q159.376 1370.16 160.394 1370 Q161.413 1369.81 162.431 1369.81 Q168.218 1369.81 171.598 1372.98 Q174.977 1376.16 174.977 1381.57 Q174.977 1387.15 171.505 1390.25 Q168.033 1393.33 161.714 1393.33 Q159.538 1393.33 157.269 1392.96 Q155.024 1392.59 152.616 1391.85 L152.616 1387.15 Q154.7 1388.28 156.922 1388.84 Q159.144 1389.4 161.621 1389.4 Q165.626 1389.4 167.964 1387.29 Q170.302 1385.18 170.302 1381.57 Q170.302 1377.96 167.964 1375.85 Q165.626 1373.75 161.621 1373.75 Q159.746 1373.75 157.871 1374.16 Q156.019 1374.58 154.075 1375.46 L154.075 1358.1 Z" fill="#000000" fill-rule="nonzero" fill-opacity="1" /><path clip-path="url(#clip570)" d="M194.19 1361.18 Q190.579 1361.18 188.75 1364.74 Q186.945 1368.28 186.945 1375.41 Q186.945 1382.52 188.75 1386.09 Q190.579 1389.63 194.19 1389.63 Q197.825 1389.63 199.63 1386.09 Q201.459 1382.52 201.459 1375.41 Q201.459 1368.28 199.63 1364.74 Q197.825 1361.18 194.19 1361.18 M194.19 1357.47 Q200 1357.47 203.056 1362.08 Q206.135 1366.66 206.135 1375.41 Q206.135 1384.14 203.056 1388.75 Q200 1393.33 194.19 1393.33 Q188.38 1393.33 185.301 1388.75 Q182.246 1384.14 182.246 1375.41 Q182.246 1366.66 185.301 1362.08 Q188.38 1357.47 194.19 1357.47 Z" fill="#000000" fill-rule="nonzero" fill-opacity="1" /><path clip-path="url(#clip570)" d="M114.26 1117.99 L143.936 1117.99 L143.936 1121.93 L114.26 1121.93 L114.26 1117.99 Z" fill="#000000" fill-rule="nonzero" fill-opacity="1" /><path clip-path="url(#clip570)" d="M166.876 1104.33 L155.07 1122.78 L166.876 1122.78 L166.876 1104.33 M165.649 1100.26 L171.528 1100.26 L171.528 1122.78 L176.459 1122.78 L176.459 1126.67 L171.528 1126.67 L171.528 1134.82 L166.876 1134.82 L166.876 1126.67 L151.274 1126.67 L151.274 1122.16 L165.649 1100.26 Z" fill="#000000" fill-rule="nonzero" fill-opacity="1" /><path clip-path="url(#clip570)" d="M194.19 1103.34 Q190.579 1103.34 188.75 1106.9 Q186.945 1110.45 186.945 1117.58 Q186.945 1124.68 188.75 1128.25 Q190.579 1131.79 194.19 1131.79 Q197.825 1131.79 199.63 1128.25 Q201.459 1124.68 201.459 1117.58 Q201.459 1110.45 199.63 1106.9 Q197.825 1103.34 194.19 1103.34 M194.19 1099.64 Q200 1099.64 203.056 1104.24 Q206.135 1108.83 206.135 1117.58 Q206.135 1126.3 203.056 1130.91 Q200 1135.49 194.19 1135.49 Q188.38 1135.49 185.301 1130.91 Q182.246 1126.3 182.246 1117.58 Q182.246 1108.83 185.301 1104.24 Q188.38 1099.64 194.19 1099.64 Z" fill="#000000" fill-rule="nonzero" fill-opacity="1" /><path clip-path="url(#clip570)" d="M114.26 860.153 L143.936 860.153 L143.936 864.089 L114.26 864.089 L114.26 860.153 Z" fill="#000000" fill-rule="nonzero" fill-opacity="1" /><path clip-path="url(#clip570)" d="M168.195 858.348 Q171.552 859.065 173.427 861.334 Q175.325 863.603 175.325 866.936 Q175.325 872.052 171.806 874.852 Q168.288 877.653 161.806 877.653 Q159.63 877.653 157.315 877.214 Q155.024 876.797 152.57 875.94 L152.57 871.427 Q154.515 872.561 156.829 873.139 Q159.144 873.718 161.667 873.718 Q166.065 873.718 168.357 871.982 Q170.672 870.246 170.672 866.936 Q170.672 863.88 168.519 862.167 Q166.39 860.431 162.57 860.431 L158.542 860.431 L158.542 856.589 L162.755 856.589 Q166.204 856.589 168.033 855.223 Q169.862 853.834 169.862 851.241 Q169.862 848.579 167.964 847.167 Q166.089 845.732 162.57 845.732 Q160.649 845.732 158.45 846.149 Q156.251 846.566 153.612 847.445 L153.612 843.279 Q156.274 842.538 158.589 842.167 Q160.927 841.797 162.987 841.797 Q168.311 841.797 171.413 844.228 Q174.514 846.635 174.514 850.755 Q174.514 853.626 172.871 855.616 Q171.227 857.584 168.195 858.348 Z" fill="#000000" fill-rule="nonzero" fill-opacity="1" /><path clip-path="url(#clip570)" d="M194.19 845.501 Q190.579 845.501 188.75 849.066 Q186.945 852.607 186.945 859.737 Q186.945 866.843 188.75 870.408 Q190.579 873.95 194.19 873.95 Q197.825 873.95 199.63 870.408 Q201.459 866.843 201.459 859.737 Q201.459 852.607 199.63 849.066 Q197.825 845.501 194.19 845.501 M194.19 841.797 Q200 841.797 203.056 846.404 Q206.135 850.987 206.135 859.737 Q206.135 868.464 203.056 873.07 Q200 877.653 194.19 877.653 Q188.38 877.653 185.301 873.07 Q182.246 868.464 182.246 859.737 Q182.246 850.987 185.301 846.404 Q188.38 841.797 194.19 841.797 Z" fill="#000000" fill-rule="nonzero" fill-opacity="1" /><path clip-path="url(#clip570)" d="M114.26 602.315 L143.936 602.315 L143.936 606.25 L114.26 606.25 L114.26 602.315 Z" fill="#000000" fill-rule="nonzero" fill-opacity="1" /><path clip-path="url(#clip570)" d="M158.056 615.208 L174.376 615.208 L174.376 619.143 L152.431 619.143 L152.431 615.208 Q155.093 612.453 159.677 607.824 Q164.283 603.171 165.464 601.829 Q167.709 599.305 168.589 597.569 Q169.491 595.81 169.491 594.12 Q169.491 591.366 167.547 589.63 Q165.626 587.893 162.524 587.893 Q160.325 587.893 157.871 588.657 Q155.44 589.421 152.663 590.972 L152.663 586.25 Q155.487 585.116 157.94 584.537 Q160.394 583.958 162.431 583.958 Q167.802 583.958 170.996 586.643 Q174.19 589.329 174.19 593.819 Q174.19 595.949 173.38 597.87 Q172.593 599.768 170.487 602.361 Q169.908 603.032 166.806 606.25 Q163.704 609.444 158.056 615.208 Z" fill="#000000" fill-rule="nonzero" fill-opacity="1" /><path clip-path="url(#clip570)" d="M194.19 587.662 Q190.579 587.662 188.75 591.227 Q186.945 594.768 186.945 601.898 Q186.945 609.004 188.75 612.569 Q190.579 616.111 194.19 616.111 Q197.825 616.111 199.63 612.569 Q201.459 609.004 201.459 601.898 Q201.459 594.768 199.63 591.227 Q197.825 587.662 194.19 587.662 M194.19 583.958 Q200 583.958 203.056 588.565 Q206.135 593.148 206.135 601.898 Q206.135 610.625 203.056 615.231 Q200 619.815 194.19 619.815 Q188.38 619.815 185.301 615.231 Q182.246 610.625 182.246 601.898 Q182.246 593.148 185.301 588.565 Q188.38 583.958 194.19 583.958 Z" fill="#000000" fill-rule="nonzero" fill-opacity="1" /><path clip-path="url(#clip570)" d="M114.26 344.476 L143.936 344.476 L143.936 348.411 L114.26 348.411 L114.26 344.476 Z" fill="#000000" fill-rule="nonzero" fill-opacity="1" /><path clip-path="url(#clip570)" d="M154.839 357.369 L162.477 357.369 L162.477 331.004 L154.167 332.67 L154.167 328.411 L162.431 326.744 L167.107 326.744 L167.107 357.369 L174.746 357.369 L174.746 361.304 L154.839 361.304 L154.839 357.369 Z" fill="#000000" fill-rule="nonzero" fill-opacity="1" /><path clip-path="url(#clip570)" d="M194.19 329.823 Q190.579 329.823 188.75 333.388 Q186.945 336.93 186.945 344.059 Q186.945 351.166 188.75 354.73 Q190.579 358.272 194.19 358.272 Q197.825 358.272 199.63 354.73 Q201.459 351.166 201.459 344.059 Q201.459 336.93 199.63 333.388 Q197.825 329.823 194.19 329.823 M194.19 326.119 Q200 326.119 203.056 330.726 Q206.135 335.309 206.135 344.059 Q206.135 352.786 203.056 357.392 Q200 361.976 194.19 361.976 Q188.38 361.976 185.301 357.392 Q182.246 352.786 182.246 344.059 Q182.246 335.309 185.301 330.726 Q188.38 326.119 194.19 326.119 Z" fill="#000000" fill-rule="nonzero" fill-opacity="1" /><path clip-path="url(#clip570)" d="M194.19 71.9844 Q190.579 71.9844 188.75 75.5492 Q186.945 79.0908 186.945 86.2204 Q186.945 93.3268 188.75 96.8916 Q190.579 100.433 194.19 100.433 Q197.825 100.433 199.63 96.8916 Q201.459 93.3268 201.459 86.2204 Q201.459 79.0908 199.63 75.5492 Q197.825 71.9844 194.19 71.9844 M194.19 68.2807 Q200 68.2807 203.056 72.8871 Q206.135 77.4704 206.135 86.2204 Q206.135 94.9472 203.056 99.5537 Q200 104.137 194.19 104.137 Q188.38 104.137 185.301 99.5537 Q182.246 94.9472 182.246 86.2204 Q182.246 77.4704 185.301 72.8871 Q188.38 68.2807 194.19 68.2807 Z" fill="#000000" fill-rule="nonzero" fill-opacity="1" /><path clip-path="url(#clip570)" d="M33.7671 839.801 L14.479 839.801 L14.479 833.944 L64.0042 833.944 L64.0042 839.801 L58.657 839.801 Q61.8398 841.647 63.3994 844.479 Q64.9272 847.28 64.9272 851.227 Q64.9272 857.688 59.771 861.762 Q54.6147 865.804 46.212 865.804 Q37.8093 865.804 32.6531 861.762 Q27.4968 857.688 27.4968 851.227 Q27.4968 847.28 29.0564 844.479 Q30.5842 841.647 33.7671 839.801 M46.212 859.757 Q52.6732 859.757 56.3653 857.115 Q60.0256 854.442 60.0256 849.795 Q60.0256 845.148 56.3653 842.474 Q52.6732 839.801 46.212 839.801 Q39.7508 839.801 36.0905 842.474 Q32.3984 845.148 32.3984 849.795 Q32.3984 854.442 36.0905 857.115 Q39.7508 859.757 46.212 859.757 Z" fill="#000000" fill-rule="nonzero" fill-opacity="1" /><path clip-path="url(#clip570)" d="M16.4842 821.626 L16.4842 815.197 L58.5933 815.197 L58.5933 792.058 L64.0042 792.058 L64.0042 821.626 L16.4842 821.626 Z" fill="#000000" fill-rule="nonzero" fill-opacity="1" /><path clip-path="url(#clip570)" d="M16.4842 754.436 L16.4842 749.026 L70.0516 765.576 L70.0516 770.987 L16.4842 754.436 Z" fill="#000000" fill-rule="nonzero" fill-opacity="1" /><path clip-path="url(#clip570)" d="M57.2247 689.506 L44.4614 689.506 L44.4614 700.01 L39.1779 700.01 L39.1779 683.14 L59.58 683.14 Q62.2218 686.864 63.5904 691.352 Q64.9272 695.84 64.9272 700.933 Q64.9272 712.073 58.4342 718.375 Q51.9093 724.645 40.2919 724.645 Q28.6427 724.645 22.1496 718.375 Q15.6248 712.073 15.6248 700.933 Q15.6248 696.286 16.7706 692.116 Q17.9164 687.915 20.1444 684.382 L26.9876 684.382 Q23.9639 687.947 22.4361 691.957 Q20.9083 695.967 20.9083 700.392 Q20.9083 709.113 25.7781 713.505 Q30.6479 717.865 40.2919 717.865 Q49.9041 717.865 54.7739 713.505 Q59.6436 709.113 59.6436 700.392 Q59.6436 696.986 59.0707 694.312 Q58.466 691.639 57.2247 689.506 Z" fill="#000000" fill-rule="nonzero" fill-opacity="1" /><path clip-path="url(#clip570)" d="M58.657 665.985 L77.5631 665.985 L77.5631 671.873 L28.3562 671.873 L28.3562 665.985 L33.7671 665.985 Q30.5842 664.139 29.0564 661.338 Q27.4968 658.505 27.4968 654.59 Q27.4968 648.097 32.6531 644.055 Q37.8093 639.981 46.212 639.981 Q54.6147 639.981 59.771 644.055 Q64.9272 648.097 64.9272 654.59 Q64.9272 658.505 63.3994 661.338 Q61.8398 664.139 58.657 665.985 M46.212 646.06 Q39.7508 646.06 36.0905 648.734 Q32.3984 651.376 32.3984 656.023 Q32.3984 660.67 36.0905 663.343 Q39.7508 665.985 46.212 665.985 Q52.6732 665.985 56.3653 663.343 Q60.0256 660.67 60.0256 656.023 Q60.0256 651.376 56.3653 648.734 Q52.6732 646.06 46.212 646.06 Z" fill="#000000" fill-rule="nonzero" fill-opacity="1" /><path clip-path="url(#clip570)" d="M29.7248 604.619 L35.1993 604.619 Q33.8307 607.102 33.1623 609.617 Q32.4621 612.099 32.4621 614.645 Q32.4621 620.343 36.0905 623.494 Q39.6872 626.645 46.212 626.645 Q52.7369 626.645 56.3653 623.494 Q59.9619 620.343 59.9619 614.645 Q59.9619 612.099 59.2935 609.617 Q58.5933 607.102 57.2247 604.619 L62.6355 604.619 Q63.7814 607.07 64.3543 609.712 Q64.9272 612.322 64.9272 615.282 Q64.9272 623.335 59.8664 628.077 Q54.8057 632.82 46.212 632.82 Q37.491 632.82 32.4939 628.045 Q27.4968 623.239 27.4968 614.9 Q27.4968 612.195 28.0697 609.617 Q28.6108 607.038 29.7248 604.619 Z" fill="#000000" fill-rule="nonzero" fill-opacity="1" /><polyline clip-path="url(#clip572)" style="stroke:#009af9; stroke-linecap:round; stroke-linejoin:round; stroke-width:4; stroke-opacity:1; fill:none" points="301.869,86.1857 500.984,678.149 700.1,799.748 899.215,899.825 1098.33,987.377 1297.45,1066.25 1496.56,1138.58 1695.68,1205.73 1894.79,1268.63 2093.91,1327.96 2293.02,1384.24 "/>
<circle clip-path="url(#clip572)" cx="301.869" cy="86.1857" r="14.4" fill="#009af9" fill-rule="evenodd" fill-opacity="1" stroke="#000000" stroke-opacity="1" stroke-width="3.2"/>
<circle clip-path="url(#clip572)" cx="500.984" cy="678.149" r="14.4" fill="#009af9" fill-rule="evenodd" fill-opacity="1" stroke="#000000" stroke-opacity="1" stroke-width="3.2"/>
<circle clip-path="url(#clip572)" cx="700.1" cy="799.748" r="14.4" fill="#009af9" fill-rule="evenodd" fill-opacity="1" stroke="#000000" stroke-opacity="1" stroke-width="3.2"/>
<circle clip-path="url(#clip572)" cx="899.215" cy="899.825" r="14.4" fill="#009af9" fill-rule="evenodd" fill-opacity="1" stroke="#000000" stroke-opacity="1" stroke-width="3.2"/>
<circle clip-path="url(#clip572)" cx="1098.33" cy="987.377" r="14.4" fill="#009af9" fill-rule="evenodd" fill-opacity="1" stroke="#000000" stroke-opacity="1" stroke-width="3.2"/>
<circle clip-path="url(#clip572)" cx="1297.45" cy="1066.25" r="14.4" fill="#009af9" fill-rule="evenodd" fill-opacity="1" stroke="#000000" stroke-opacity="1" stroke-width="3.2"/>
<circle clip-path="url(#clip572)" cx="1496.56" cy="1138.58" r="14.4" fill="#009af9" fill-rule="evenodd" fill-opacity="1" stroke="#000000" stroke-opacity="1" stroke-width="3.2"/>
<circle clip-path="url(#clip572)" cx="1695.68" cy="1205.73" r="14.4" fill="#009af9" fill-rule="evenodd" fill-opacity="1" stroke="#000000" stroke-opacity="1" stroke-width="3.2"/>
<circle clip-path="url(#clip572)" cx="1894.79" cy="1268.63" r="14.4" fill="#009af9" fill-rule="evenodd" fill-opacity="1" stroke="#000000" stroke-opacity="1" stroke-width="3.2"/>
<circle clip-path="url(#clip572)" cx="2093.91" cy="1327.96" r="14.4" fill="#009af9" fill-rule="evenodd" fill-opacity="1" stroke="#000000" stroke-opacity="1" stroke-width="3.2"/>
<circle clip-path="url(#clip572)" cx="2293.02" cy="1384.24" r="14.4" fill="#009af9" fill-rule="evenodd" fill-opacity="1" stroke="#000000" stroke-opacity="1" stroke-width="3.2"/>
</svg>
