<?xml version="1.0" encoding="utf-8"?>
<svg xmlns="http://www.w3.org/2000/svg" xmlns:xlink="http://www.w3.org/1999/xlink" width="600" height="400" viewBox="0 0 2400 1600">
<defs>
  <clipPath id="clip120">
    <rect x="0" y="0" width="2400" height="1600"/>
  </clipPath>
</defs>
<path clip-path="url(#clip120)" d="M0 1600 L2400 1600 L2400 0 L0 0  Z" fill="#ffffff" fill-rule="evenodd" fill-opacity="1"/>
<defs>
  <clipPath id="clip121">
    <rect x="480" y="0" width="1681" height="1600"/>
  </clipPath>
</defs>
<path clip-path="url(#clip120)" d="M394.884 1423.18 L2352.76 1423.18 L2352.76 47.2441 L394.884 47.2441  Z" fill="#ffffff" fill-rule="evenodd" fill-opacity="1"/>
<defs>
  <clipPath id="clip122">
    <rect x="394" y="47" width="1959" height="1377"/>
  </clipPath>
</defs>
<polyline clip-path="url(#clip122)" style="stroke:#000000; stroke-linecap:round; stroke-linejoin:round; stroke-width:2; stroke-opacity:0.1; fill:none" points="758.137,1423.18 758.137,47.2441 "/>
<polyline clip-path="url(#clip122)" style="stroke:#000000; stroke-linecap:round; stroke-linejoin:round; stroke-width:2; stroke-opacity:0.1; fill:none" points="1142.94,1423.18 1142.94,47.2441 "/>
<polyline clip-path="url(#clip122)" style="stroke:#000000; stroke-linecap:round; stroke-linejoin:round; stroke-width:2; stroke-opacity:0.1; fill:none" points="1527.74,1423.18 1527.74,47.2441 "/>
<polyline clip-path="url(#clip122)" style="stroke:#000000; stroke-linecap:round; stroke-linejoin:round; stroke-width:2; stroke-opacity:0.1; fill:none" points="1912.54,1423.18 1912.54,47.2441 "/>
<polyline clip-path="url(#clip122)" style="stroke:#000000; stroke-linecap:round; stroke-linejoin:round; stroke-width:2; stroke-opacity:0.1; fill:none" points="2297.34,1423.18 2297.34,47.2441 "/>
<polyline clip-path="url(#clip122)" style="stroke:#000000; stroke-linecap:round; stroke-linejoin:round; stroke-width:2; stroke-opacity:0.1; fill:none" points="394.884,1273.36 2352.76,1273.36 "/>
<polyline clip-path="url(#clip122)" style="stroke:#000000; stroke-linecap:round; stroke-linejoin:round; stroke-width:2; stroke-opacity:0.1; fill:none" points="394.884,1096.24 2352.76,1096.24 "/>
<polyline clip-path="url(#clip122)" style="stroke:#000000; stroke-linecap:round; stroke-linejoin:round; stroke-width:2; stroke-opacity:0.1; fill:none" points="394.884,919.119 2352.76,919.119 "/>
<polyline clip-path="url(#clip122)" style="stroke:#000000; stroke-linecap:round; stroke-linejoin:round; stroke-width:2; stroke-opacity:0.1; fill:none" points="394.884,742 2352.76,742 "/>
<polyline clip-path="url(#clip122)" style="stroke:#000000; stroke-linecap:round; stroke-linejoin:round; stroke-width:2; stroke-opacity:0.1; fill:none" points="394.884,564.881 2352.76,564.881 "/>
<polyline clip-path="url(#clip122)" style="stroke:#000000; stroke-linecap:round; stroke-linejoin:round; stroke-width:2; stroke-opacity:0.1; fill:none" points="394.884,387.762 2352.76,387.762 "/>
<polyline clip-path="url(#clip122)" style="stroke:#000000; stroke-linecap:round; stroke-linejoin:round; stroke-width:2; stroke-opacity:0.1; fill:none" points="394.884,210.642 2352.76,210.642 "/>
<polyline clip-path="url(#clip120)" style="stroke:#000000; stroke-linecap:round; stroke-linejoin:round; stroke-width:4; stroke-opacity:1; fill:none" points="394.884,1423.18 2352.76,1423.18 "/>
<polyline clip-path="url(#clip120)" style="stroke:#000000; stroke-linecap:round; stroke-linejoin:round; stroke-width:4; stroke-opacity:1; fill:none" points="758.137,1423.18 758.137,1404.28 "/>
<polyline clip-path="url(#clip120)" style="stroke:#000000; stroke-linecap:round; stroke-linejoin:round; stroke-width:4; stroke-opacity:1; fill:none" points="1142.94,1423.18 1142.94,1404.28 "/>
<polyline clip-path="url(#clip120)" style="stroke:#000000; stroke-linecap:round; stroke-linejoin:round; stroke-width:4; stroke-opacity:1; fill:none" points="1527.74,1423.18 1527.74,1404.28 "/>
<polyline clip-path="url(#clip120)" style="stroke:#000000; stroke-linecap:round; stroke-linejoin:round; stroke-width:4; stroke-opacity:1; fill:none" points="1912.54,1423.18 1912.54,1404.28 "/>
<polyline clip-path="url(#clip120)" style="stroke:#000000; stroke-linecap:round; stroke-linejoin:round; stroke-width:4; stroke-opacity:1; fill:none" points="2297.34,1423.18 2297.34,1404.28 "/>
<path clip-path="url(#clip120)" d="M721.829 1481.64 L738.149 1481.64 L738.149 1485.58 L716.204 1485.58 L716.204 1481.64 Q718.866 1478.89 723.45 1474.26 Q728.056 1469.61 729.237 1468.27 Q731.482 1465.74 732.362 1464.01 Q733.265 1462.25 733.265 1460.56 Q733.265 1457.8 731.32 1456.07 Q729.399 1454.33 726.297 1454.33 Q724.098 1454.33 721.644 1455.09 Q719.214 1455.86 716.436 1457.41 L716.436 1452.69 Q719.26 1451.55 721.714 1450.97 Q724.167 1450.39 726.204 1450.39 Q731.575 1450.39 734.769 1453.08 Q737.964 1455.77 737.964 1460.26 Q737.964 1462.39 737.153 1464.31 Q736.366 1466.2 734.26 1468.8 Q733.681 1469.47 730.579 1472.69 Q727.478 1475.88 721.829 1481.64 Z" fill="#000000" fill-rule="nonzero" fill-opacity="1" /><path clip-path="url(#clip120)" d="M757.963 1454.1 Q754.352 1454.1 752.524 1457.66 Q750.718 1461.2 750.718 1468.33 Q750.718 1475.44 752.524 1479.01 Q754.352 1482.55 757.963 1482.55 Q761.598 1482.55 763.403 1479.01 Q765.232 1475.44 765.232 1468.33 Q765.232 1461.2 763.403 1457.66 Q761.598 1454.1 757.963 1454.1 M757.963 1450.39 Q763.774 1450.39 766.829 1455 Q769.908 1459.58 769.908 1468.33 Q769.908 1477.06 766.829 1481.67 Q763.774 1486.25 757.963 1486.25 Q752.153 1486.25 749.075 1481.67 Q746.019 1477.06 746.019 1468.33 Q746.019 1459.58 749.075 1455 Q752.153 1450.39 757.963 1450.39 Z" fill="#000000" fill-rule="nonzero" fill-opacity="1" /><path clip-path="url(#clip120)" d="M788.125 1454.1 Q784.514 1454.1 782.686 1457.66 Q780.88 1461.2 780.88 1468.33 Q780.88 1475.44 782.686 1479.01 Q784.514 1482.55 788.125 1482.55 Q791.76 1482.55 793.565 1479.01 Q795.394 1475.44 795.394 1468.33 Q795.394 1461.2 793.565 1457.66 Q791.76 1454.1 788.125 1454.1 M788.125 1450.39 Q793.935 1450.39 796.991 1455 Q800.07 1459.58 800.07 1468.33 Q800.07 1477.06 796.991 1481.67 Q793.935 1486.25 788.125 1486.25 Q782.315 1486.25 779.236 1481.67 Q776.181 1477.06 776.181 1468.33 Q776.181 1459.58 779.236 1455 Q782.315 1450.39 788.125 1450.39 Z" fill="#000000" fill-rule="nonzero" fill-opacity="1" /><path clip-path="url(#clip120)" d="M1116.03 1455.09 L1104.22 1473.54 L1116.03 1473.54 L1116.03 1455.09 M1114.8 1451.02 L1120.68 1451.02 L1120.68 1473.54 L1125.61 1473.54 L1125.61 1477.43 L1120.68 1477.43 L1120.68 1485.58 L1116.03 1485.58 L1116.03 1477.43 L1100.43 1477.43 L1100.43 1472.92 L1114.8 1451.02 Z" fill="#000000" fill-rule="nonzero" fill-opacity="1" /><path clip-path="url(#clip120)" d="M1143.34 1454.1 Q1139.73 1454.1 1137.9 1457.66 Q1136.1 1461.2 1136.1 1468.33 Q1136.1 1475.44 1137.9 1479.01 Q1139.73 1482.55 1143.34 1482.55 Q1146.98 1482.55 1148.78 1479.01 Q1150.61 1475.44 1150.61 1468.33 Q1150.61 1461.2 1148.78 1457.66 Q1146.98 1454.1 1143.34 1454.1 M1143.34 1450.39 Q1149.15 1450.39 1152.21 1455 Q1155.29 1459.58 1155.29 1468.33 Q1155.29 1477.06 1152.21 1481.67 Q1149.15 1486.25 1143.34 1486.25 Q1137.53 1486.25 1134.46 1481.67 Q1131.4 1477.06 1131.4 1468.33 Q1131.4 1459.58 1134.46 1455 Q1137.53 1450.39 1143.34 1450.39 Z" fill="#000000" fill-rule="nonzero" fill-opacity="1" /><path clip-path="url(#clip120)" d="M1173.51 1454.1 Q1169.89 1454.1 1168.07 1457.66 Q1166.26 1461.2 1166.26 1468.33 Q1166.26 1475.44 1168.07 1479.01 Q1169.89 1482.55 1173.51 1482.55 Q1177.14 1482.55 1178.95 1479.01 Q1180.77 1475.44 1180.77 1468.33 Q1180.77 1461.2 1178.95 1457.66 Q1177.14 1454.1 1173.51 1454.1 M1173.51 1450.39 Q1179.32 1450.39 1182.37 1455 Q1185.45 1459.58 1185.45 1468.33 Q1185.45 1477.06 1182.37 1481.67 Q1179.32 1486.25 1173.51 1486.25 Q1167.7 1486.25 1164.62 1481.67 Q1161.56 1477.06 1161.56 1468.33 Q1161.56 1459.58 1164.62 1455 Q1167.7 1450.39 1173.51 1450.39 Z" fill="#000000" fill-rule="nonzero" fill-opacity="1" /><path clip-path="url(#clip120)" d="M1498.06 1466.44 Q1494.92 1466.44 1493.07 1468.59 Q1491.24 1470.74 1491.24 1474.49 Q1491.24 1478.22 1493.07 1480.39 Q1494.92 1482.55 1498.06 1482.55 Q1501.21 1482.55 1503.04 1480.39 Q1504.89 1478.22 1504.89 1474.49 Q1504.89 1470.74 1503.04 1468.59 Q1501.21 1466.44 1498.06 1466.44 M1507.35 1451.78 L1507.35 1456.04 Q1505.59 1455.21 1503.78 1454.77 Q1502 1454.33 1500.24 1454.33 Q1495.61 1454.33 1493.16 1457.45 Q1490.73 1460.58 1490.38 1466.9 Q1491.75 1464.89 1493.81 1463.82 Q1495.87 1462.73 1498.34 1462.73 Q1503.55 1462.73 1506.56 1465.9 Q1509.59 1469.05 1509.59 1474.49 Q1509.59 1479.82 1506.44 1483.03 Q1503.3 1486.25 1498.06 1486.25 Q1492.07 1486.25 1488.9 1481.67 Q1485.73 1477.06 1485.73 1468.33 Q1485.73 1460.14 1489.62 1455.28 Q1493.5 1450.39 1500.06 1450.39 Q1501.81 1450.39 1503.6 1450.74 Q1505.4 1451.09 1507.35 1451.78 Z" fill="#000000" fill-rule="nonzero" fill-opacity="1" /><path clip-path="url(#clip120)" d="M1527.65 1454.1 Q1524.04 1454.1 1522.21 1457.66 Q1520.4 1461.2 1520.4 1468.33 Q1520.4 1475.44 1522.21 1479.01 Q1524.04 1482.55 1527.65 1482.55 Q1531.28 1482.55 1533.09 1479.01 Q1534.92 1475.44 1534.92 1468.33 Q1534.92 1461.2 1533.09 1457.66 Q1531.28 1454.1 1527.65 1454.1 M1527.65 1450.39 Q1533.46 1450.39 1536.51 1455 Q1539.59 1459.58 1539.59 1468.33 Q1539.59 1477.06 1536.51 1481.67 Q1533.46 1486.25 1527.65 1486.25 Q1521.84 1486.25 1518.76 1481.67 Q1515.7 1477.06 1515.7 1468.33 Q1515.7 1459.58 1518.76 1455 Q1521.84 1450.39 1527.65 1450.39 Z" fill="#000000" fill-rule="nonzero" fill-opacity="1" /><path clip-path="url(#clip120)" d="M1557.81 1454.1 Q1554.2 1454.1 1552.37 1457.66 Q1550.56 1461.2 1550.56 1468.33 Q1550.56 1475.44 1552.37 1479.01 Q1554.2 1482.55 1557.81 1482.55 Q1561.44 1482.55 1563.25 1479.01 Q1565.08 1475.44 1565.08 1468.33 Q1565.08 1461.2 1563.25 1457.66 Q1561.44 1454.1 1557.81 1454.1 M1557.81 1450.39 Q1563.62 1450.39 1566.68 1455 Q1569.75 1459.58 1569.75 1468.33 Q1569.75 1477.06 1566.68 1481.67 Q1563.62 1486.25 1557.81 1486.25 Q1552 1486.25 1548.92 1481.67 Q1545.87 1477.06 1545.87 1468.33 Q1545.87 1459.58 1548.92 1455 Q1552 1450.39 1557.81 1450.39 Z" fill="#000000" fill-rule="nonzero" fill-opacity="1" /><path clip-path="url(#clip120)" d="M1882.33 1469.17 Q1879 1469.17 1877.08 1470.95 Q1875.18 1472.73 1875.18 1475.86 Q1875.18 1478.98 1877.08 1480.77 Q1879 1482.55 1882.33 1482.55 Q1885.67 1482.55 1887.59 1480.77 Q1889.51 1478.96 1889.51 1475.86 Q1889.51 1472.73 1887.59 1470.95 Q1885.69 1469.17 1882.33 1469.17 M1877.66 1467.18 Q1874.65 1466.44 1872.96 1464.38 Q1871.29 1462.32 1871.29 1459.35 Q1871.29 1455.21 1874.23 1452.8 Q1877.2 1450.39 1882.33 1450.39 Q1887.5 1450.39 1890.44 1452.8 Q1893.38 1455.21 1893.38 1459.35 Q1893.38 1462.32 1891.69 1464.38 Q1890.02 1466.44 1887.03 1467.18 Q1890.41 1467.96 1892.29 1470.26 Q1894.19 1472.55 1894.19 1475.86 Q1894.19 1480.88 1891.11 1483.57 Q1888.05 1486.25 1882.33 1486.25 Q1876.62 1486.25 1873.54 1483.57 Q1870.48 1480.88 1870.48 1475.86 Q1870.48 1472.55 1872.38 1470.26 Q1874.28 1467.96 1877.66 1467.18 M1875.95 1459.79 Q1875.95 1462.48 1877.61 1463.98 Q1879.3 1465.49 1882.33 1465.49 Q1885.34 1465.49 1887.03 1463.98 Q1888.75 1462.48 1888.75 1459.79 Q1888.75 1457.11 1887.03 1455.6 Q1885.34 1454.1 1882.33 1454.1 Q1879.3 1454.1 1877.61 1455.6 Q1875.95 1457.11 1875.95 1459.79 Z" fill="#000000" fill-rule="nonzero" fill-opacity="1" /><path clip-path="url(#clip120)" d="M1912.5 1454.1 Q1908.89 1454.1 1907.06 1457.66 Q1905.25 1461.2 1905.25 1468.33 Q1905.25 1475.44 1907.06 1479.01 Q1908.89 1482.55 1912.5 1482.55 Q1916.13 1482.55 1917.94 1479.01 Q1919.76 1475.44 1919.76 1468.33 Q1919.76 1461.2 1917.94 1457.66 Q1916.13 1454.1 1912.5 1454.1 M1912.5 1450.39 Q1918.31 1450.39 1921.36 1455 Q1924.44 1459.58 1924.44 1468.33 Q1924.44 1477.06 1921.36 1481.67 Q1918.31 1486.25 1912.5 1486.25 Q1906.69 1486.25 1903.61 1481.67 Q1900.55 1477.06 1900.55 1468.33 Q1900.55 1459.58 1903.61 1455 Q1906.69 1450.39 1912.5 1450.39 Z" fill="#000000" fill-rule="nonzero" fill-opacity="1" /><path clip-path="url(#clip120)" d="M1942.66 1454.1 Q1939.05 1454.1 1937.22 1457.66 Q1935.41 1461.2 1935.41 1468.33 Q1935.41 1475.44 1937.22 1479.01 Q1939.05 1482.55 1942.66 1482.55 Q1946.29 1482.55 1948.1 1479.01 Q1949.93 1475.44 1949.93 1468.33 Q1949.93 1461.2 1948.1 1457.66 Q1946.29 1454.1 1942.66 1454.1 M1942.66 1450.39 Q1948.47 1450.39 1951.52 1455 Q1954.6 1459.58 1954.6 1468.33 Q1954.6 1477.06 1951.52 1481.67 Q1948.47 1486.25 1942.66 1486.25 Q1936.85 1486.25 1933.77 1481.67 Q1930.71 1477.06 1930.71 1468.33 Q1930.71 1459.58 1933.77 1455 Q1936.85 1450.39 1942.66 1450.39 Z" fill="#000000" fill-rule="nonzero" fill-opacity="1" /><path clip-path="url(#clip120)" d="M2241.87 1481.64 L2249.51 1481.64 L2249.51 1455.28 L2241.2 1456.95 L2241.2 1452.69 L2249.46 1451.02 L2254.14 1451.02 L2254.14 1481.64 L2261.78 1481.64 L2261.78 1485.58 L2241.87 1485.58 L2241.87 1481.64 Z" fill="#000000" fill-rule="nonzero" fill-opacity="1" /><path clip-path="url(#clip120)" d="M2281.22 1454.1 Q2277.61 1454.1 2275.78 1457.66 Q2273.98 1461.2 2273.98 1468.33 Q2273.98 1475.44 2275.78 1479.01 Q2277.61 1482.55 2281.22 1482.55 Q2284.86 1482.55 2286.66 1479.01 Q2288.49 1475.44 2288.49 1468.33 Q2288.49 1461.2 2286.66 1457.66 Q2284.86 1454.1 2281.22 1454.1 M2281.22 1450.39 Q2287.03 1450.39 2290.09 1455 Q2293.17 1459.58 2293.17 1468.33 Q2293.17 1477.06 2290.09 1481.67 Q2287.03 1486.25 2281.22 1486.25 Q2275.41 1486.25 2272.33 1481.67 Q2269.28 1477.06 2269.28 1468.33 Q2269.28 1459.58 2272.33 1455 Q2275.41 1450.39 2281.22 1450.39 Z" fill="#000000" fill-rule="nonzero" fill-opacity="1" /><path clip-path="url(#clip120)" d="M2311.38 1454.1 Q2307.77 1454.1 2305.94 1457.66 Q2304.14 1461.2 2304.14 1468.33 Q2304.14 1475.44 2305.94 1479.01 Q2307.77 1482.55 2311.38 1482.55 Q2315.02 1482.55 2316.82 1479.01 Q2318.65 1475.44 2318.65 1468.33 Q2318.65 1461.2 2316.82 1457.66 Q2315.02 1454.1 2311.38 1454.1 M2311.38 1450.39 Q2317.19 1450.39 2320.25 1455 Q2323.33 1459.58 2323.33 1468.33 Q2323.33 1477.06 2320.25 1481.67 Q2317.19 1486.25 2311.38 1486.25 Q2305.57 1486.25 2302.49 1481.67 Q2299.44 1477.06 2299.44 1468.33 Q2299.44 1459.58 2302.49 1455 Q2305.57 1450.39 2311.38 1450.39 Z" fill="#000000" fill-rule="nonzero" fill-opacity="1" /><path clip-path="url(#clip120)" d="M2341.55 1454.1 Q2337.93 1454.1 2336.11 1457.66 Q2334.3 1461.2 2334.3 1468.33 Q2334.3 1475.44 2336.11 1479.01 Q2337.93 1482.55 2341.55 1482.55 Q2345.18 1482.55 2346.99 1479.01 Q2348.81 1475.44 2348.81 1468.33 Q2348.81 1461.2 2346.99 1457.66 Q2345.18 1454.1 2341.55 1454.1 M2341.55 1450.39 Q2347.36 1450.39 2350.41 1455 Q2353.49 1459.58 2353.49 1468.33 Q2353.49 1477.06 2350.41 1481.67 Q2347.36 1486.25 2341.55 1486.25 Q2335.74 1486.25 2332.66 1481.67 Q2329.6 1477.06 2329.6 1468.33 Q2329.6 1459.58 2332.66 1455 Q2335.74 1450.39 2341.55 1450.39 Z" fill="#000000" fill-rule="nonzero" fill-opacity="1" /><path clip-path="url(#clip120)" d="M1370.89 1518.52 L1376.75 1518.52 L1376.75 1568.04 L1370.89 1568.04 L1370.89 1518.52 Z" fill="#000000" fill-rule="nonzero" fill-opacity="1" /><polyline clip-path="url(#clip120)" style="stroke:#000000; stroke-linecap:round; stroke-linejoin:round; stroke-width:4; stroke-opacity:1; fill:none" points="394.884,1423.18 394.884,47.2441 "/>
<polyline clip-path="url(#clip120)" style="stroke:#000000; stroke-linecap:round; stroke-linejoin:round; stroke-width:4; stroke-opacity:1; fill:none" points="394.884,1273.36 413.782,1273.36 "/>
<polyline clip-path="url(#clip120)" style="stroke:#000000; stroke-linecap:round; stroke-linejoin:round; stroke-width:4; stroke-opacity:1; fill:none" points="394.884,1096.24 413.782,1096.24 "/>
<polyline clip-path="url(#clip120)" style="stroke:#000000; stroke-linecap:round; stroke-linejoin:round; stroke-width:4; stroke-opacity:1; fill:none" points="394.884,919.119 413.782,919.119 "/>
<polyline clip-path="url(#clip120)" style="stroke:#000000; stroke-linecap:round; stroke-linejoin:round; stroke-width:4; stroke-opacity:1; fill:none" points="394.884,742 413.782,742 "/>
<polyline clip-path="url(#clip120)" style="stroke:#000000; stroke-linecap:round; stroke-linejoin:round; stroke-width:4; stroke-opacity:1; fill:none" points="394.884,564.881 413.782,564.881 "/>
<polyline clip-path="url(#clip120)" style="stroke:#000000; stroke-linecap:round; stroke-linejoin:round; stroke-width:4; stroke-opacity:1; fill:none" points="394.884,387.762 413.782,387.762 "/>
<polyline clip-path="url(#clip120)" style="stroke:#000000; stroke-linecap:round; stroke-linejoin:round; stroke-width:4; stroke-opacity:1; fill:none" points="394.884,210.642 413.782,210.642 "/>
<path clip-path="url(#clip120)" d="M121.043 1293.15 L137.362 1293.15 L137.362 1297.09 L115.418 1297.09 L115.418 1293.15 Q118.08 1290.4 122.663 1285.77 Q127.269 1281.11 128.45 1279.77 Q130.695 1277.25 131.575 1275.51 Q132.478 1273.75 132.478 1272.06 Q132.478 1269.31 130.533 1267.57 Q128.612 1265.84 125.51 1265.84 Q123.311 1265.84 120.857 1266.6 Q118.427 1267.36 115.649 1268.91 L115.649 1264.19 Q118.473 1263.06 120.927 1262.48 Q123.38 1261.9 125.418 1261.9 Q130.788 1261.9 133.982 1264.59 Q137.177 1267.27 137.177 1271.76 Q137.177 1273.89 136.367 1275.81 Q135.579 1277.71 133.473 1280.3 Q132.894 1280.97 129.792 1284.19 Q126.691 1287.39 121.043 1293.15 Z" fill="#000000" fill-rule="nonzero" fill-opacity="1" /><path clip-path="url(#clip120)" d="M147.177 1291.21 L152.061 1291.21 L152.061 1297.09 L147.177 1297.09 L147.177 1291.21 Z" fill="#000000" fill-rule="nonzero" fill-opacity="1" /><path clip-path="url(#clip120)" d="M172.246 1265.6 Q168.635 1265.6 166.806 1269.17 Q165.001 1272.71 165.001 1279.84 Q165.001 1286.95 166.806 1290.51 Q168.635 1294.05 172.246 1294.05 Q175.88 1294.05 177.686 1290.51 Q179.514 1286.95 179.514 1279.84 Q179.514 1272.71 177.686 1269.17 Q175.88 1265.6 172.246 1265.6 M172.246 1261.9 Q178.056 1261.9 181.112 1266.51 Q184.19 1271.09 184.19 1279.84 Q184.19 1288.57 181.112 1293.17 Q178.056 1297.76 172.246 1297.76 Q166.436 1297.76 163.357 1293.17 Q160.302 1288.57 160.302 1279.84 Q160.302 1271.09 163.357 1266.51 Q166.436 1261.9 172.246 1261.9 Z" fill="#000000" fill-rule="nonzero" fill-opacity="1" /><path clip-path="url(#clip120)" d="M220.579 1271.62 L210 1282.25 L220.579 1292.83 L217.824 1295.63 L207.199 1285 L196.575 1295.63 L193.843 1292.83 L204.399 1282.25 L193.843 1271.62 L196.575 1268.82 L207.199 1279.45 L217.824 1268.82 L220.579 1271.62 Z" fill="#000000" fill-rule="nonzero" fill-opacity="1" /><path clip-path="url(#clip120)" d="M232.94 1293.15 L240.579 1293.15 L240.579 1266.78 L232.269 1268.45 L232.269 1264.19 L240.533 1262.53 L245.209 1262.53 L245.209 1293.15 L252.847 1293.15 L252.847 1297.09 L232.94 1297.09 L232.94 1293.15 Z" fill="#000000" fill-rule="nonzero" fill-opacity="1" /><path clip-path="url(#clip120)" d="M272.292 1265.6 Q268.681 1265.6 266.852 1269.17 Q265.046 1272.71 265.046 1279.84 Q265.046 1286.95 266.852 1290.51 Q268.681 1294.05 272.292 1294.05 Q275.926 1294.05 277.732 1290.51 Q279.56 1286.95 279.56 1279.84 Q279.56 1272.71 277.732 1269.17 Q275.926 1265.6 272.292 1265.6 M272.292 1261.9 Q278.102 1261.9 281.157 1266.51 Q284.236 1271.09 284.236 1279.84 Q284.236 1288.57 281.157 1293.17 Q278.102 1297.76 272.292 1297.76 Q266.482 1297.76 263.403 1293.17 Q260.347 1288.57 260.347 1279.84 Q260.347 1271.09 263.403 1266.51 Q266.482 1261.9 272.292 1261.9 Z" fill="#000000" fill-rule="nonzero" fill-opacity="1" /><path clip-path="url(#clip120)" d="M284.236 1256 L308.348 1256 L308.348 1259.2 L284.236 1259.2 L284.236 1256 Z" fill="#000000" fill-rule="nonzero" fill-opacity="1" /><path clip-path="url(#clip120)" d="M317.206 1266.48 L323.413 1266.48 L323.413 1245.06 L316.661 1246.41 L316.661 1242.95 L323.375 1241.59 L327.174 1241.59 L327.174 1266.48 L333.381 1266.48 L333.381 1269.67 L317.206 1269.67 L317.206 1266.48 Z" fill="#000000" fill-rule="nonzero" fill-opacity="1" /><path clip-path="url(#clip120)" d="M349.179 1244.1 Q346.245 1244.1 344.76 1246.99 Q343.292 1249.87 343.292 1255.66 Q343.292 1261.44 344.76 1264.33 Q346.245 1267.21 349.179 1267.21 Q352.132 1267.21 353.599 1264.33 Q355.085 1261.44 355.085 1255.66 Q355.085 1249.87 353.599 1246.99 Q352.132 1244.1 349.179 1244.1 M349.179 1241.09 Q353.9 1241.09 356.383 1244.83 Q358.884 1248.55 358.884 1255.66 Q358.884 1262.75 356.383 1266.5 Q353.9 1270.22 349.179 1270.22 Q344.459 1270.22 341.957 1266.5 Q339.475 1262.75 339.475 1255.66 Q339.475 1248.55 341.957 1244.83 Q344.459 1241.09 349.179 1241.09 Z" fill="#000000" fill-rule="nonzero" fill-opacity="1" /><path clip-path="url(#clip120)" d="M131.181 1101.33 Q134.538 1102.05 136.413 1104.32 Q138.311 1106.59 138.311 1109.92 Q138.311 1115.04 134.792 1117.84 Q131.274 1120.64 124.793 1120.64 Q122.617 1120.64 120.302 1120.2 Q118.01 1119.78 115.556 1118.92 L115.556 1114.41 Q117.501 1115.54 119.816 1116.12 Q122.13 1116.7 124.654 1116.7 Q129.052 1116.7 131.343 1114.97 Q133.658 1113.23 133.658 1109.92 Q133.658 1106.86 131.505 1105.15 Q129.376 1103.42 125.556 1103.42 L121.529 1103.42 L121.529 1099.57 L125.742 1099.57 Q129.191 1099.57 131.019 1098.21 Q132.848 1096.82 132.848 1094.23 Q132.848 1091.56 130.95 1090.15 Q129.075 1088.72 125.556 1088.72 Q123.635 1088.72 121.436 1089.13 Q119.237 1089.55 116.598 1090.43 L116.598 1086.26 Q119.26 1085.52 121.575 1085.15 Q123.913 1084.78 125.973 1084.78 Q131.297 1084.78 134.399 1087.21 Q137.501 1089.62 137.501 1093.74 Q137.501 1096.61 135.857 1098.6 Q134.214 1100.57 131.181 1101.33 Z" fill="#000000" fill-rule="nonzero" fill-opacity="1" /><path clip-path="url(#clip120)" d="M147.177 1114.09 L152.061 1114.09 L152.061 1119.97 L147.177 1119.97 L147.177 1114.09 Z" fill="#000000" fill-rule="nonzero" fill-opacity="1" /><path clip-path="url(#clip120)" d="M172.246 1088.48 Q168.635 1088.48 166.806 1092.05 Q165.001 1095.59 165.001 1102.72 Q165.001 1109.83 166.806 1113.39 Q168.635 1116.93 172.246 1116.93 Q175.88 1116.93 177.686 1113.39 Q179.514 1109.83 179.514 1102.72 Q179.514 1095.59 177.686 1092.05 Q175.88 1088.48 172.246 1088.48 M172.246 1084.78 Q178.056 1084.78 181.112 1089.39 Q184.19 1093.97 184.19 1102.72 Q184.19 1111.45 181.112 1116.05 Q178.056 1120.64 172.246 1120.64 Q166.436 1120.64 163.357 1116.05 Q160.302 1111.45 160.302 1102.72 Q160.302 1093.97 163.357 1089.39 Q166.436 1084.78 172.246 1084.78 Z" fill="#000000" fill-rule="nonzero" fill-opacity="1" /><path clip-path="url(#clip120)" d="M220.579 1094.5 L210 1105.13 L220.579 1115.71 L217.824 1118.51 L207.199 1107.88 L196.575 1118.51 L193.843 1115.71 L204.399 1105.13 L193.843 1094.5 L196.575 1091.7 L207.199 1102.33 L217.824 1091.7 L220.579 1094.5 Z" fill="#000000" fill-rule="nonzero" fill-opacity="1" /><path clip-path="url(#clip120)" d="M232.94 1116.03 L240.579 1116.03 L240.579 1089.67 L232.269 1091.33 L232.269 1087.07 L240.533 1085.41 L245.209 1085.41 L245.209 1116.03 L252.847 1116.03 L252.847 1119.97 L232.94 1119.97 L232.94 1116.03 Z" fill="#000000" fill-rule="nonzero" fill-opacity="1" /><path clip-path="url(#clip120)" d="M272.292 1088.48 Q268.681 1088.48 266.852 1092.05 Q265.046 1095.59 265.046 1102.72 Q265.046 1109.83 266.852 1113.39 Q268.681 1116.93 272.292 1116.93 Q275.926 1116.93 277.732 1113.39 Q279.56 1109.83 279.56 1102.72 Q279.56 1095.59 277.732 1092.05 Q275.926 1088.48 272.292 1088.48 M272.292 1084.78 Q278.102 1084.78 281.157 1089.39 Q284.236 1093.97 284.236 1102.72 Q284.236 1111.45 281.157 1116.05 Q278.102 1120.64 272.292 1120.64 Q266.482 1120.64 263.403 1116.05 Q260.347 1111.45 260.347 1102.72 Q260.347 1093.97 263.403 1089.39 Q266.482 1084.78 272.292 1084.78 Z" fill="#000000" fill-rule="nonzero" fill-opacity="1" /><path clip-path="url(#clip120)" d="M284.236 1078.88 L308.348 1078.88 L308.348 1082.08 L284.236 1082.08 L284.236 1078.88 Z" fill="#000000" fill-rule="nonzero" fill-opacity="1" /><path clip-path="url(#clip120)" d="M317.206 1089.36 L323.413 1089.36 L323.413 1067.94 L316.661 1069.29 L316.661 1065.83 L323.375 1064.48 L327.174 1064.48 L327.174 1089.36 L333.381 1089.36 L333.381 1092.56 L317.206 1092.56 L317.206 1089.36 Z" fill="#000000" fill-rule="nonzero" fill-opacity="1" /><path clip-path="url(#clip120)" d="M349.179 1066.98 Q346.245 1066.98 344.76 1069.87 Q343.292 1072.75 343.292 1078.54 Q343.292 1084.32 344.76 1087.21 Q346.245 1090.09 349.179 1090.09 Q352.132 1090.09 353.599 1087.21 Q355.085 1084.32 355.085 1078.54 Q355.085 1072.75 353.599 1069.87 Q352.132 1066.98 349.179 1066.98 M349.179 1063.97 Q353.9 1063.97 356.383 1067.71 Q358.884 1071.43 358.884 1078.54 Q358.884 1085.63 356.383 1089.38 Q353.9 1093.1 349.179 1093.1 Q344.459 1093.1 341.957 1089.38 Q339.475 1085.63 339.475 1078.54 Q339.475 1071.43 341.957 1067.71 Q344.459 1063.97 349.179 1063.97 Z" fill="#000000" fill-rule="nonzero" fill-opacity="1" /><path clip-path="url(#clip120)" d="M129.862 912.361 L118.056 930.81 L129.862 930.81 L129.862 912.361 M128.635 908.287 L134.515 908.287 L134.515 930.81 L139.445 930.81 L139.445 934.699 L134.515 934.699 L134.515 942.847 L129.862 942.847 L129.862 934.699 L114.26 934.699 L114.26 930.185 L128.635 908.287 Z" fill="#000000" fill-rule="nonzero" fill-opacity="1" /><path clip-path="url(#clip120)" d="M147.177 936.967 L152.061 936.967 L152.061 942.847 L147.177 942.847 L147.177 936.967 Z" fill="#000000" fill-rule="nonzero" fill-opacity="1" /><path clip-path="url(#clip120)" d="M172.246 911.365 Q168.635 911.365 166.806 914.93 Q165.001 918.472 165.001 925.601 Q165.001 932.708 166.806 936.273 Q168.635 939.814 172.246 939.814 Q175.88 939.814 177.686 936.273 Q179.514 932.708 179.514 925.601 Q179.514 918.472 177.686 914.93 Q175.88 911.365 172.246 911.365 M172.246 907.662 Q178.056 907.662 181.112 912.268 Q184.19 916.852 184.19 925.601 Q184.19 934.328 181.112 938.935 Q178.056 943.518 172.246 943.518 Q166.436 943.518 163.357 938.935 Q160.302 934.328 160.302 925.601 Q160.302 916.852 163.357 912.268 Q166.436 907.662 172.246 907.662 Z" fill="#000000" fill-rule="nonzero" fill-opacity="1" /><path clip-path="url(#clip120)" d="M220.579 917.384 L210 928.009 L220.579 938.588 L217.824 941.388 L207.199 930.763 L196.575 941.388 L193.843 938.588 L204.399 928.009 L193.843 917.384 L196.575 914.583 L207.199 925.208 L217.824 914.583 L220.579 917.384 Z" fill="#000000" fill-rule="nonzero" fill-opacity="1" /><path clip-path="url(#clip120)" d="M232.94 938.912 L240.579 938.912 L240.579 912.546 L232.269 914.213 L232.269 909.953 L240.533 908.287 L245.209 908.287 L245.209 938.912 L252.847 938.912 L252.847 942.847 L232.94 942.847 L232.94 938.912 Z" fill="#000000" fill-rule="nonzero" fill-opacity="1" /><path clip-path="url(#clip120)" d="M272.292 911.365 Q268.681 911.365 266.852 914.93 Q265.046 918.472 265.046 925.601 Q265.046 932.708 266.852 936.273 Q268.681 939.814 272.292 939.814 Q275.926 939.814 277.732 936.273 Q279.56 932.708 279.56 925.601 Q279.56 918.472 277.732 914.93 Q275.926 911.365 272.292 911.365 M272.292 907.662 Q278.102 907.662 281.157 912.268 Q284.236 916.852 284.236 925.601 Q284.236 934.328 281.157 938.935 Q278.102 943.518 272.292 943.518 Q266.482 943.518 263.403 938.935 Q260.347 934.328 260.347 925.601 Q260.347 916.852 263.403 912.268 Q266.482 907.662 272.292 907.662 Z" fill="#000000" fill-rule="nonzero" fill-opacity="1" /><path clip-path="url(#clip120)" d="M284.236 901.763 L308.348 901.763 L308.348 904.96 L284.236 904.96 L284.236 901.763 Z" fill="#000000" fill-rule="nonzero" fill-opacity="1" /><path clip-path="url(#clip120)" d="M317.206 912.239 L323.413 912.239 L323.413 890.817 L316.661 892.171 L316.661 888.711 L323.375 887.356 L327.174 887.356 L327.174 912.239 L333.381 912.239 L333.381 915.436 L317.206 915.436 L317.206 912.239 Z" fill="#000000" fill-rule="nonzero" fill-opacity="1" /><path clip-path="url(#clip120)" d="M349.179 889.858 Q346.245 889.858 344.76 892.754 Q343.292 895.632 343.292 901.425 Q343.292 907.199 344.76 910.095 Q346.245 912.973 349.179 912.973 Q352.132 912.973 353.599 910.095 Q355.085 907.199 355.085 901.425 Q355.085 895.632 353.599 892.754 Q352.132 889.858 349.179 889.858 M349.179 886.849 Q353.9 886.849 356.383 890.591 Q358.884 894.315 358.884 901.425 Q358.884 908.515 356.383 912.258 Q353.9 915.982 349.179 915.982 Q344.459 915.982 341.957 912.258 Q339.475 908.515 339.475 901.425 Q339.475 894.315 341.957 890.591 Q344.459 886.849 349.179 886.849 Z" fill="#000000" fill-rule="nonzero" fill-opacity="1" /><path clip-path="url(#clip120)" d="M117.061 731.168 L135.417 731.168 L135.417 735.103 L121.343 735.103 L121.343 743.575 Q122.362 743.228 123.38 743.066 Q124.399 742.88 125.418 742.88 Q131.205 742.88 134.584 746.052 Q137.964 749.223 137.964 754.64 Q137.964 760.218 134.492 763.32 Q131.019 766.399 124.7 766.399 Q122.524 766.399 120.255 766.028 Q118.01 765.658 115.603 764.917 L115.603 760.218 Q117.686 761.353 119.908 761.908 Q122.13 762.464 124.607 762.464 Q128.612 762.464 130.95 760.357 Q133.288 758.251 133.288 754.64 Q133.288 751.029 130.95 748.922 Q128.612 746.816 124.607 746.816 Q122.732 746.816 120.857 747.232 Q119.006 747.649 117.061 748.529 L117.061 731.168 Z" fill="#000000" fill-rule="nonzero" fill-opacity="1" /><path clip-path="url(#clip120)" d="M147.177 759.848 L152.061 759.848 L152.061 765.728 L147.177 765.728 L147.177 759.848 Z" fill="#000000" fill-rule="nonzero" fill-opacity="1" /><path clip-path="url(#clip120)" d="M172.246 734.246 Q168.635 734.246 166.806 737.811 Q165.001 741.353 165.001 748.482 Q165.001 755.589 166.806 759.154 Q168.635 762.695 172.246 762.695 Q175.88 762.695 177.686 759.154 Q179.514 755.589 179.514 748.482 Q179.514 741.353 177.686 737.811 Q175.88 734.246 172.246 734.246 M172.246 730.543 Q178.056 730.543 181.112 735.149 Q184.19 739.732 184.19 748.482 Q184.19 757.209 181.112 761.816 Q178.056 766.399 172.246 766.399 Q166.436 766.399 163.357 761.816 Q160.302 757.209 160.302 748.482 Q160.302 739.732 163.357 735.149 Q166.436 730.543 172.246 730.543 Z" fill="#000000" fill-rule="nonzero" fill-opacity="1" /><path clip-path="url(#clip120)" d="M220.579 740.265 L210 750.89 L220.579 761.468 L217.824 764.269 L207.199 753.644 L196.575 764.269 L193.843 761.468 L204.399 750.89 L193.843 740.265 L196.575 737.464 L207.199 748.089 L217.824 737.464 L220.579 740.265 Z" fill="#000000" fill-rule="nonzero" fill-opacity="1" /><path clip-path="url(#clip120)" d="M232.94 761.792 L240.579 761.792 L240.579 735.427 L232.269 737.093 L232.269 732.834 L240.533 731.168 L245.209 731.168 L245.209 761.792 L252.847 761.792 L252.847 765.728 L232.94 765.728 L232.94 761.792 Z" fill="#000000" fill-rule="nonzero" fill-opacity="1" /><path clip-path="url(#clip120)" d="M272.292 734.246 Q268.681 734.246 266.852 737.811 Q265.046 741.353 265.046 748.482 Q265.046 755.589 266.852 759.154 Q268.681 762.695 272.292 762.695 Q275.926 762.695 277.732 759.154 Q279.56 755.589 279.56 748.482 Q279.56 741.353 277.732 737.811 Q275.926 734.246 272.292 734.246 M272.292 730.543 Q278.102 730.543 281.157 735.149 Q284.236 739.732 284.236 748.482 Q284.236 757.209 281.157 761.816 Q278.102 766.399 272.292 766.399 Q266.482 766.399 263.403 761.816 Q260.347 757.209 260.347 748.482 Q260.347 739.732 263.403 735.149 Q266.482 730.543 272.292 730.543 Z" fill="#000000" fill-rule="nonzero" fill-opacity="1" /><path clip-path="url(#clip120)" d="M284.236 724.644 L308.348 724.644 L308.348 727.841 L284.236 727.841 L284.236 724.644 Z" fill="#000000" fill-rule="nonzero" fill-opacity="1" /><path clip-path="url(#clip120)" d="M317.206 735.12 L323.413 735.12 L323.413 713.698 L316.661 715.052 L316.661 711.591 L323.375 710.237 L327.174 710.237 L327.174 735.12 L333.381 735.12 L333.381 738.317 L317.206 738.317 L317.206 735.12 Z" fill="#000000" fill-rule="nonzero" fill-opacity="1" /><path clip-path="url(#clip120)" d="M349.179 712.739 Q346.245 712.739 344.76 715.635 Q343.292 718.513 343.292 724.305 Q343.292 730.079 344.76 732.976 Q346.245 735.853 349.179 735.853 Q352.132 735.853 353.599 732.976 Q355.085 730.079 355.085 724.305 Q355.085 718.513 353.599 715.635 Q352.132 712.739 349.179 712.739 M349.179 709.729 Q353.9 709.729 356.383 713.472 Q358.884 717.196 358.884 724.305 Q358.884 731.396 356.383 735.139 Q353.9 738.863 349.179 738.863 Q344.459 738.863 341.957 735.139 Q339.475 731.396 339.475 724.305 Q339.475 717.196 341.957 713.472 Q344.459 709.729 349.179 709.729 Z" fill="#000000" fill-rule="nonzero" fill-opacity="1" /><path clip-path="url(#clip120)" d="M127.593 569.465 Q124.445 569.465 122.593 571.618 Q120.765 573.77 120.765 577.52 Q120.765 581.247 122.593 583.423 Q124.445 585.576 127.593 585.576 Q130.742 585.576 132.57 583.423 Q134.422 581.247 134.422 577.52 Q134.422 573.77 132.57 571.618 Q130.742 569.465 127.593 569.465 M136.876 554.812 L136.876 559.071 Q135.117 558.238 133.311 557.798 Q131.529 557.359 129.769 557.359 Q125.14 557.359 122.686 560.484 Q120.255 563.609 119.908 569.928 Q121.274 567.914 123.334 566.849 Q125.394 565.761 127.871 565.761 Q133.08 565.761 136.089 568.933 Q139.121 572.081 139.121 577.52 Q139.121 582.845 135.973 586.062 Q132.825 589.28 127.593 589.28 Q121.598 589.28 118.427 584.696 Q115.256 580.09 115.256 571.363 Q115.256 563.169 119.144 558.308 Q123.033 553.423 129.584 553.423 Q131.343 553.423 133.126 553.771 Q134.931 554.118 136.876 554.812 Z" fill="#000000" fill-rule="nonzero" fill-opacity="1" /><path clip-path="url(#clip120)" d="M147.177 582.729 L152.061 582.729 L152.061 588.608 L147.177 588.608 L147.177 582.729 Z" fill="#000000" fill-rule="nonzero" fill-opacity="1" /><path clip-path="url(#clip120)" d="M172.246 557.127 Q168.635 557.127 166.806 560.692 Q165.001 564.234 165.001 571.363 Q165.001 578.47 166.806 582.034 Q168.635 585.576 172.246 585.576 Q175.88 585.576 177.686 582.034 Q179.514 578.47 179.514 571.363 Q179.514 564.234 177.686 560.692 Q175.88 557.127 172.246 557.127 M172.246 553.423 Q178.056 553.423 181.112 558.03 Q184.19 562.613 184.19 571.363 Q184.19 580.09 181.112 584.696 Q178.056 589.28 172.246 589.28 Q166.436 589.28 163.357 584.696 Q160.302 580.09 160.302 571.363 Q160.302 562.613 163.357 558.03 Q166.436 553.423 172.246 553.423 Z" fill="#000000" fill-rule="nonzero" fill-opacity="1" /><path clip-path="url(#clip120)" d="M220.579 563.146 L210 573.77 L220.579 584.349 L217.824 587.15 L207.199 576.525 L196.575 587.15 L193.843 584.349 L204.399 573.77 L193.843 563.146 L196.575 560.345 L207.199 570.97 L217.824 560.345 L220.579 563.146 Z" fill="#000000" fill-rule="nonzero" fill-opacity="1" /><path clip-path="url(#clip120)" d="M232.94 584.673 L240.579 584.673 L240.579 558.308 L232.269 559.974 L232.269 555.715 L240.533 554.048 L245.209 554.048 L245.209 584.673 L252.847 584.673 L252.847 588.608 L232.94 588.608 L232.94 584.673 Z" fill="#000000" fill-rule="nonzero" fill-opacity="1" /><path clip-path="url(#clip120)" d="M272.292 557.127 Q268.681 557.127 266.852 560.692 Q265.046 564.234 265.046 571.363 Q265.046 578.47 266.852 582.034 Q268.681 585.576 272.292 585.576 Q275.926 585.576 277.732 582.034 Q279.56 578.47 279.56 571.363 Q279.56 564.234 277.732 560.692 Q275.926 557.127 272.292 557.127 M272.292 553.423 Q278.102 553.423 281.157 558.03 Q284.236 562.613 284.236 571.363 Q284.236 580.09 281.157 584.696 Q278.102 589.28 272.292 589.28 Q266.482 589.28 263.403 584.696 Q260.347 580.09 260.347 571.363 Q260.347 562.613 263.403 558.03 Q266.482 553.423 272.292 553.423 Z" fill="#000000" fill-rule="nonzero" fill-opacity="1" /><path clip-path="url(#clip120)" d="M284.236 547.525 L308.348 547.525 L308.348 550.722 L284.236 550.722 L284.236 547.525 Z" fill="#000000" fill-rule="nonzero" fill-opacity="1" /><path clip-path="url(#clip120)" d="M317.206 558.001 L323.413 558.001 L323.413 536.579 L316.661 537.933 L316.661 534.472 L323.375 533.118 L327.174 533.118 L327.174 558.001 L333.381 558.001 L333.381 561.198 L317.206 561.198 L317.206 558.001 Z" fill="#000000" fill-rule="nonzero" fill-opacity="1" /><path clip-path="url(#clip120)" d="M349.179 535.619 Q346.245 535.619 344.76 538.516 Q343.292 541.393 343.292 547.186 Q343.292 552.96 344.76 555.857 Q346.245 558.734 349.179 558.734 Q352.132 558.734 353.599 555.857 Q355.085 552.96 355.085 547.186 Q355.085 541.393 353.599 538.516 Q352.132 535.619 349.179 535.619 M349.179 532.61 Q353.9 532.61 356.383 536.353 Q358.884 540.077 358.884 547.186 Q358.884 554.277 356.383 558.019 Q353.9 561.743 349.179 561.743 Q344.459 561.743 341.957 558.019 Q339.475 554.277 339.475 547.186 Q339.475 540.077 341.957 536.353 Q344.459 532.61 349.179 532.61 Z" fill="#000000" fill-rule="nonzero" fill-opacity="1" /><path clip-path="url(#clip120)" d="M115.834 376.929 L138.056 376.929 L138.056 378.92 L125.51 411.489 L120.626 411.489 L132.431 380.864 L115.834 380.864 L115.834 376.929 Z" fill="#000000" fill-rule="nonzero" fill-opacity="1" /><path clip-path="url(#clip120)" d="M147.177 405.61 L152.061 405.61 L152.061 411.489 L147.177 411.489 L147.177 405.61 Z" fill="#000000" fill-rule="nonzero" fill-opacity="1" /><path clip-path="url(#clip120)" d="M172.246 380.008 Q168.635 380.008 166.806 383.573 Q165.001 387.114 165.001 394.244 Q165.001 401.35 166.806 404.915 Q168.635 408.457 172.246 408.457 Q175.88 408.457 177.686 404.915 Q179.514 401.35 179.514 394.244 Q179.514 387.114 177.686 383.573 Q175.88 380.008 172.246 380.008 M172.246 376.304 Q178.056 376.304 181.112 380.911 Q184.19 385.494 184.19 394.244 Q184.19 402.971 181.112 407.577 Q178.056 412.16 172.246 412.16 Q166.436 412.16 163.357 407.577 Q160.302 402.971 160.302 394.244 Q160.302 385.494 163.357 380.911 Q166.436 376.304 172.246 376.304 Z" fill="#000000" fill-rule="nonzero" fill-opacity="1" /><path clip-path="url(#clip120)" d="M220.579 386.026 L210 396.651 L220.579 407.23 L217.824 410.031 L207.199 399.406 L196.575 410.031 L193.843 407.23 L204.399 396.651 L193.843 386.026 L196.575 383.225 L207.199 393.85 L217.824 383.225 L220.579 386.026 Z" fill="#000000" fill-rule="nonzero" fill-opacity="1" /><path clip-path="url(#clip120)" d="M232.94 407.554 L240.579 407.554 L240.579 381.188 L232.269 382.855 L232.269 378.596 L240.533 376.929 L245.209 376.929 L245.209 407.554 L252.847 407.554 L252.847 411.489 L232.94 411.489 L232.94 407.554 Z" fill="#000000" fill-rule="nonzero" fill-opacity="1" /><path clip-path="url(#clip120)" d="M272.292 380.008 Q268.681 380.008 266.852 383.573 Q265.046 387.114 265.046 394.244 Q265.046 401.35 266.852 404.915 Q268.681 408.457 272.292 408.457 Q275.926 408.457 277.732 404.915 Q279.56 401.35 279.56 394.244 Q279.56 387.114 277.732 383.573 Q275.926 380.008 272.292 380.008 M272.292 376.304 Q278.102 376.304 281.157 380.911 Q284.236 385.494 284.236 394.244 Q284.236 402.971 281.157 407.577 Q278.102 412.16 272.292 412.16 Q266.482 412.16 263.403 407.577 Q260.347 402.971 260.347 394.244 Q260.347 385.494 263.403 380.911 Q266.482 376.304 272.292 376.304 Z" fill="#000000" fill-rule="nonzero" fill-opacity="1" /><path clip-path="url(#clip120)" d="M284.236 370.406 L308.348 370.406 L308.348 373.603 L284.236 373.603 L284.236 370.406 Z" fill="#000000" fill-rule="nonzero" fill-opacity="1" /><path clip-path="url(#clip120)" d="M317.206 380.881 L323.413 380.881 L323.413 359.459 L316.661 360.814 L316.661 357.353 L323.375 355.999 L327.174 355.999 L327.174 380.881 L333.381 380.881 L333.381 384.079 L317.206 384.079 L317.206 380.881 Z" fill="#000000" fill-rule="nonzero" fill-opacity="1" /><path clip-path="url(#clip120)" d="M349.179 358.5 Q346.245 358.5 344.76 361.397 Q343.292 364.274 343.292 370.067 Q343.292 375.841 344.76 378.737 Q346.245 381.615 349.179 381.615 Q352.132 381.615 353.599 378.737 Q355.085 375.841 355.085 370.067 Q355.085 364.274 353.599 361.397 Q352.132 358.5 349.179 358.5 M349.179 355.491 Q353.9 355.491 356.383 359.234 Q358.884 362.958 358.884 370.067 Q358.884 377.158 356.383 380.9 Q353.9 384.624 349.179 384.624 Q344.459 384.624 341.957 380.9 Q339.475 377.158 339.475 370.067 Q339.475 362.958 341.957 359.234 Q344.459 355.491 349.179 355.491 Z" fill="#000000" fill-rule="nonzero" fill-opacity="1" /><path clip-path="url(#clip120)" d="M127.015 217.958 Q123.681 217.958 121.76 219.74 Q119.862 221.523 119.862 224.648 Q119.862 227.773 121.76 229.555 Q123.681 231.338 127.015 231.338 Q130.348 231.338 132.269 229.555 Q134.191 227.75 134.191 224.648 Q134.191 221.523 132.269 219.74 Q130.371 217.958 127.015 217.958 M122.339 215.967 Q119.33 215.227 117.64 213.166 Q115.973 211.106 115.973 208.143 Q115.973 204 118.913 201.592 Q121.876 199.185 127.015 199.185 Q132.177 199.185 135.117 201.592 Q138.056 204 138.056 208.143 Q138.056 211.106 136.367 213.166 Q134.7 215.227 131.714 215.967 Q135.093 216.754 136.968 219.046 Q138.867 221.338 138.867 224.648 Q138.867 229.671 135.788 232.356 Q132.732 235.041 127.015 235.041 Q121.297 235.041 118.218 232.356 Q115.163 229.671 115.163 224.648 Q115.163 221.338 117.061 219.046 Q118.959 216.754 122.339 215.967 M120.626 208.583 Q120.626 211.268 122.293 212.773 Q123.982 214.277 127.015 214.277 Q130.024 214.277 131.714 212.773 Q133.427 211.268 133.427 208.583 Q133.427 205.898 131.714 204.393 Q130.024 202.889 127.015 202.889 Q123.982 202.889 122.293 204.393 Q120.626 205.898 120.626 208.583 Z" fill="#000000" fill-rule="nonzero" fill-opacity="1" /><path clip-path="url(#clip120)" d="M147.177 228.49 L152.061 228.49 L152.061 234.37 L147.177 234.37 L147.177 228.49 Z" fill="#000000" fill-rule="nonzero" fill-opacity="1" /><path clip-path="url(#clip120)" d="M172.246 202.889 Q168.635 202.889 166.806 206.453 Q165.001 209.995 165.001 217.125 Q165.001 224.231 166.806 227.796 Q168.635 231.338 172.246 231.338 Q175.88 231.338 177.686 227.796 Q179.514 224.231 179.514 217.125 Q179.514 209.995 177.686 206.453 Q175.88 202.889 172.246 202.889 M172.246 199.185 Q178.056 199.185 181.112 203.791 Q184.19 208.375 184.19 217.125 Q184.19 225.852 181.112 230.458 Q178.056 235.041 172.246 235.041 Q166.436 235.041 163.357 230.458 Q160.302 225.852 160.302 217.125 Q160.302 208.375 163.357 203.791 Q166.436 199.185 172.246 199.185 Z" fill="#000000" fill-rule="nonzero" fill-opacity="1" /><path clip-path="url(#clip120)" d="M220.579 208.907 L210 219.532 L220.579 230.111 L217.824 232.912 L207.199 222.287 L196.575 232.912 L193.843 230.111 L204.399 219.532 L193.843 208.907 L196.575 206.106 L207.199 216.731 L217.824 206.106 L220.579 208.907 Z" fill="#000000" fill-rule="nonzero" fill-opacity="1" /><path clip-path="url(#clip120)" d="M232.94 230.435 L240.579 230.435 L240.579 204.069 L232.269 205.736 L232.269 201.477 L240.533 199.81 L245.209 199.81 L245.209 230.435 L252.847 230.435 L252.847 234.37 L232.94 234.37 L232.94 230.435 Z" fill="#000000" fill-rule="nonzero" fill-opacity="1" /><path clip-path="url(#clip120)" d="M272.292 202.889 Q268.681 202.889 266.852 206.453 Q265.046 209.995 265.046 217.125 Q265.046 224.231 266.852 227.796 Q268.681 231.338 272.292 231.338 Q275.926 231.338 277.732 227.796 Q279.56 224.231 279.56 217.125 Q279.56 209.995 277.732 206.453 Q275.926 202.889 272.292 202.889 M272.292 199.185 Q278.102 199.185 281.157 203.791 Q284.236 208.375 284.236 217.125 Q284.236 225.852 281.157 230.458 Q278.102 235.041 272.292 235.041 Q266.482 235.041 263.403 230.458 Q260.347 225.852 260.347 217.125 Q260.347 208.375 263.403 203.791 Q266.482 199.185 272.292 199.185 Z" fill="#000000" fill-rule="nonzero" fill-opacity="1" /><path clip-path="url(#clip120)" d="M284.236 193.286 L308.348 193.286 L308.348 196.484 L284.236 196.484 L284.236 193.286 Z" fill="#000000" fill-rule="nonzero" fill-opacity="1" /><path clip-path="url(#clip120)" d="M317.206 203.762 L323.413 203.762 L323.413 182.34 L316.661 183.694 L316.661 180.234 L323.375 178.88 L327.174 178.88 L327.174 203.762 L333.381 203.762 L333.381 206.96 L317.206 206.96 L317.206 203.762 Z" fill="#000000" fill-rule="nonzero" fill-opacity="1" /><path clip-path="url(#clip120)" d="M349.179 181.381 Q346.245 181.381 344.76 184.277 Q343.292 187.155 343.292 192.948 Q343.292 198.722 344.76 201.618 Q346.245 204.496 349.179 204.496 Q352.132 204.496 353.599 201.618 Q355.085 198.722 355.085 192.948 Q355.085 187.155 353.599 184.277 Q352.132 181.381 349.179 181.381 M349.179 178.372 Q353.9 178.372 356.383 182.115 Q358.884 185.838 358.884 192.948 Q358.884 200.038 356.383 203.781 Q353.9 207.505 349.179 207.505 Q344.459 207.505 341.957 203.781 Q339.475 200.038 339.475 192.948 Q339.475 185.838 341.957 182.115 Q344.459 178.372 349.179 178.372 Z" fill="#000000" fill-rule="nonzero" fill-opacity="1" /><path clip-path="url(#clip120)" d="M14.479 902.328 L14.479 896.471 L64.0042 896.471 L64.0042 902.328 L14.479 902.328 Z" fill="#000000" fill-rule="nonzero" fill-opacity="1" /><path clip-path="url(#clip120)" d="M14.5426 870.149 Q21.8632 874.414 29.0246 876.483 Q36.186 878.552 43.5384 878.552 Q50.8908 878.552 58.1159 876.483 Q65.3091 874.382 72.5979 870.149 L72.5979 875.242 Q65.1182 880.016 57.8931 882.403 Q50.668 884.758 43.5384 884.758 Q36.4406 884.758 29.2474 882.403 Q22.0542 880.048 14.5426 875.242 L14.5426 870.149 Z" fill="#000000" fill-rule="nonzero" fill-opacity="1" /><path clip-path="url(#clip120)" d="M14.479 858.786 L14.479 852.93 L64.0042 852.93 L64.0042 858.786 L14.479 858.786 Z" fill="#000000" fill-rule="nonzero" fill-opacity="1" /><path clip-path="url(#clip120)" d="M23.1363 816.836 L40.8648 816.836 L40.8648 799.108 L46.2757 799.108 L46.2757 816.836 L64.0042 816.836 L64.0042 822.183 L46.2757 822.183 L46.2757 839.912 L40.8648 839.912 L40.8648 822.183 L23.1363 822.183 L23.1363 816.836 Z" fill="#000000" fill-rule="nonzero" fill-opacity="1" /><path clip-path="url(#clip120)" d="M58.5933 784.117 L58.5933 773.613 L22.3406 773.613 L24.6323 785.04 L18.7758 785.04 L16.4842 773.677 L16.4842 767.247 L58.5933 767.247 L58.5933 756.744 L64.0042 756.744 L64.0042 784.117 L58.5933 784.117 Z" fill="#000000" fill-rule="nonzero" fill-opacity="1" /><path clip-path="url(#clip120)" d="M14.5426 745.508 L14.5426 740.416 Q22.0542 735.642 29.2474 733.286 Q36.4406 730.899 43.5384 730.899 Q50.668 730.899 57.8931 733.286 Q65.1182 735.642 72.5979 740.416 L72.5979 745.508 Q65.3091 741.275 58.1159 739.206 Q50.8908 737.106 43.5384 737.106 Q36.186 737.106 29.0246 739.206 Q21.8632 741.275 14.5426 745.508 Z" fill="#000000" fill-rule="nonzero" fill-opacity="1" /><path clip-path="url(#clip120)" d="M20.1444 683.316 L26.9239 683.316 Q23.9002 686.562 22.4043 690.254 Q20.9083 693.914 20.9083 698.052 Q20.9083 706.2 25.9054 710.529 Q30.8707 714.858 40.2919 714.858 Q49.6813 714.858 54.6784 710.529 Q59.6436 706.2 59.6436 698.052 Q59.6436 693.914 58.1477 690.254 Q56.6518 686.562 53.6281 683.316 L60.3439 683.316 Q62.6355 686.689 63.7814 690.477 Q64.9272 694.233 64.9272 698.434 Q64.9272 709.224 58.3387 715.431 Q51.7183 721.637 40.2919 721.637 Q28.8336 721.637 22.2451 715.431 Q15.6248 709.224 15.6248 698.434 Q15.6248 694.169 16.7706 690.413 Q17.8846 686.626 20.1444 683.316 Z" fill="#000000" fill-rule="nonzero" fill-opacity="1" /><path clip-path="url(#clip120)" d="M36.2815 675.899 L36.2815 672.207 L64.0042 672.207 L64.0042 675.899 L36.2815 675.899 Z" fill="#000000" fill-rule="nonzero" fill-opacity="1" /><path clip-path="url(#clip120)" d="M16.4842 652.41 L16.4842 646.999 L70.0516 663.55 L70.0516 668.961 L16.4842 652.41 Z" fill="#000000" fill-rule="nonzero" fill-opacity="1" /><path clip-path="url(#clip120)" d="M58.5933 634.491 L58.5933 612.051 L64.0042 612.051 L64.0042 642.225 L58.5933 642.225 Q54.8057 638.565 48.44 632.263 Q42.0425 625.929 40.1964 624.305 Q36.7271 621.218 34.34 620.009 Q31.921 618.767 29.5975 618.767 Q25.8099 618.767 23.4228 621.441 Q21.0356 624.083 21.0356 628.348 Q21.0356 631.371 22.086 634.745 Q23.1363 638.087 25.2688 641.907 L18.7758 641.907 Q17.2162 638.024 16.4205 634.65 Q15.6248 631.276 15.6248 628.475 Q15.6248 621.091 19.3169 616.698 Q23.009 612.306 29.1837 612.306 Q32.112 612.306 34.7537 613.42 Q37.3637 614.502 40.9285 617.399 Q41.8515 618.194 46.2757 622.459 Q50.668 626.724 58.5933 634.491 Z" fill="#000000" fill-rule="nonzero" fill-opacity="1" /><path clip-path="url(#clip120)" d="M28.3562 603.171 L28.3562 569.019 L34.2127 569.019 L34.2127 573.507 L56.1107 573.507 Q58.4023 573.507 59.4208 572.743 Q60.4075 571.948 60.4075 570.197 Q60.4075 569.72 60.3439 569.019 Q60.2484 568.319 60.2166 568.096 L64.4498 568.096 Q64.8635 569.21 65.0545 570.388 Q65.2455 571.566 65.2455 572.743 Q65.2455 576.563 63.1766 578.027 Q61.0759 579.491 55.4741 579.491 L34.2127 579.491 L34.2127 592.636 L64.0042 592.636 L64.0042 598.62 L34.2127 598.62 L34.2127 603.171 L28.3562 603.171 Z" fill="#000000" fill-rule="nonzero" fill-opacity="1" /><path clip-path="url(#clip122)" d="M450.296 1384.24 L452.22 1378.73 L454.144 1373.38 L456.068 1368.18 L457.992 1363.13 L459.916 1358.22 L461.84 1353.42 L463.764 1348.72 L465.688 1344.11 L467.612 1339.56 L469.536 1335.06 L471.46 1330.57 L473.384 1326.09 L475.308 1321.58 L477.232 1317.01 L479.156 1312.35 L481.08 1307.57 L483.004 1302.64 L484.928 1297.52 L486.852 1292.17 L488.776 1286.56 L490.7 1280.83 L492.624 1275.14 L494.548 1269.5 L496.472 1263.89 L498.396 1258.3 L500.32 1252.73 L502.244 1247.17 L504.168 1241.62 L506.092 1236.06 L508.016 1230.48 L509.94 1224.87 L511.864 1219.23 L513.788 1213.53 L515.712 1207.78 L517.636 1201.95 L519.56 1196.04 L521.484 1190.03 L523.408 1183.9 L525.332 1177.65 L527.256 1171.25 L529.18 1164.78 L531.104 1158.31 L533.028 1151.83 L534.952 1145.36 L536.876 1138.87 L538.8 1132.38 L540.724 1125.86 L542.648 1119.32 L544.572 1112.76 L546.496 1106.16 L548.42 1099.53 L550.344 1092.86 L552.268 1086.13 L554.192 1079.35 L556.116 1072.51 L558.04 1065.6 L559.964 1058.62 L561.888 1051.56 L563.812 1044.41 L565.736 1037.17 L567.66 1029.87 L569.584 1022.57 L571.508 1015.25 L573.432 1007.93 L575.356 1000.6 L577.28 993.244 L579.204 985.877 L581.128 978.49 L583.052 971.082 L584.976 963.65 L586.9 956.191 L588.824 948.703 L590.748 941.184 L592.672 933.63 L594.596 926.038 L596.52 918.405 L598.444 910.729 L600.368 903.005 L602.292 895.232 L604.216 887.404 L606.14 879.55 L608.064 871.698 L609.988 863.848 L611.912 855.999 L613.836 848.15 L615.76 840.302 L617.684 832.452 L619.608 824.6 L621.532 816.745 L623.456 808.888 L625.38 801.026 L627.304 793.158 L629.228 785.284 L631.152 777.403 L633.076 769.514 L635 761.614 L636.924 753.705 L638.849 745.783 L640.773 737.848 L642.697 729.898 L644.621 721.955 L646.545 714.041 L648.469 706.156 L650.393 698.3 L652.317 690.475 L654.241 682.681 L656.165 674.917 L658.089 667.185 L660.013 659.486 L661.937 651.818 L663.861 644.184 L665.785 636.583 L667.709 629.015 L669.633 621.482 L671.557 613.983 L673.481 606.518 L675.405 599.089 L677.329 591.694 L679.253 584.336 L681.177 577.013 L683.101 569.736 L685.025 562.515 L686.949 555.352 L688.873 548.247 L690.797 541.201 L692.721 534.215 L694.645 527.29 L696.569 520.427 L698.493 513.628 L700.417 506.892 L702.341 500.221 L704.265 493.615 L706.189 487.076 L708.113 480.605 L710.037 474.202 L711.961 467.868 L713.885 461.605 L715.809 455.412 L717.733 449.292 L719.657 443.244 L721.581 437.277 L723.505 431.399 L725.429 425.612 L727.353 419.917 L729.277 414.316 L731.201 408.808 L733.125 403.397 L735.049 398.083 L736.973 392.868 L738.897 387.752 L740.821 382.738 L742.745 377.826 L744.669 373.019 L746.593 368.316 L748.517 363.72 L750.441 359.233 L752.365 354.854 L754.289 350.586 L756.213 346.429 L758.137 342.386 L760.061 338.455 L761.985 334.635 L763.909 330.927 L765.833 327.331 L767.757 323.85 L769.681 320.485 L771.605 317.236 L773.529 314.104 L775.453 311.092 L777.377 308.199 L779.301 305.428 L781.225 302.779 L783.149 300.253 L785.073 297.852 L786.997 295.577 L788.921 293.429 L790.845 291.408 L792.769 289.517 L794.693 287.756 L796.617 286.127 L798.541 284.624 L800.465 283.244 L802.389 281.987 L804.313 280.855 L806.237 279.847 L808.161 278.965 L810.085 278.209 L812.009 277.581 L813.933 277.081 L815.857 276.71 L817.781 276.468 L819.705 276.357 L821.629 276.377 L823.553 276.529 L825.477 276.814 L827.401 277.232 L829.325 277.784 L831.249 278.471 L833.173 279.294 L835.097 280.253 L837.021 281.342 L838.945 282.554 L840.869 283.889 L842.793 285.348 L844.717 286.931 L846.641 288.638 L848.566 290.47 L850.49 292.426 L852.414 294.508 L854.338 296.716 L856.262 299.049 L858.186 301.508 L860.11 304.093 L862.034 306.805 L863.958 309.644 L865.882 312.61 L867.806 315.703 L869.73 318.923 L871.654 322.271 L873.578 325.747 L875.502 329.34 L877.426 333.037 L879.35 336.839 L881.274 340.744 L883.198 344.754 L885.122 348.867 L887.046 353.082 L888.97 357.4 L890.894 361.82 L892.818 366.342 L894.742 370.965 L896.666 375.688 L898.59 380.511 L900.514 385.434 L902.438 390.456 L904.362 395.577 L906.286 400.795 L908.21 406.111 L910.134 411.524 L912.058 417.033 L913.982 422.631 L915.906 428.311 L917.83 434.072 L919.754 439.913 L921.678 445.833 L923.602 451.831 L925.526 457.906 L927.45 464.057 L929.374 470.283 L931.298 476.583 L933.222 482.956 L935.146 489.402 L937.07 495.918 L938.994 502.504 L940.918 509.16 L942.842 515.882 L944.766 522.672 L946.69 529.527 L948.614 536.446 L950.538 543.429 L952.462 550.466 L954.386 557.549 L956.31 564.677 L958.234 571.847 L960.158 579.059 L962.082 586.311 L964.006 593.602 L965.93 600.928 L967.854 608.29 L969.778 615.686 L971.702 623.113 L973.626 630.571 L975.55 638.057 L977.474 645.57 L979.398 653.108 L981.322 660.67 L983.246 668.253 L985.17 675.857 L987.094 683.478 L989.018 691.116 L990.942 698.768 L992.866 706.43 L994.79 714.1 L996.714 721.776 L998.638 729.457 L1000.56 737.141 L1002.49 744.825 L1004.41 752.508 L1006.33 760.188 L1008.26 767.862 L1010.18 775.529 L1012.11 783.187 L1014.03 790.833 L1015.95 798.466 L1017.88 806.084 L1019.8 813.683 L1021.73 821.263 L1023.65 828.821 L1025.57 836.355 L1027.5 843.863 L1029.42 851.346 L1031.35 858.806 L1033.27 866.24 L1035.19 873.647 L1037.12 881.024 L1039.04 888.369 L1040.97 895.68 L1042.89 902.955 L1044.81 910.192 L1046.74 917.388 L1048.66 924.542 L1050.59 931.65 L1052.51 938.712 L1054.43 945.723 L1056.36 952.683 L1058.28 959.589 L1060.21 966.438 L1062.13 973.229 L1064.05 979.958 L1065.98 986.624 L1067.9 993.232 L1069.83 999.788 L1071.75 1006.29 L1073.67 1012.74 L1075.6 1019.12 L1077.52 1025.45 L1079.45 1031.71 L1081.37 1037.91 L1083.29 1044.04 L1085.22 1050.11 L1087.14 1056.1 L1089.07 1062.01 L1090.99 1067.85 L1092.91 1073.61 L1094.84 1079.29 L1096.76 1084.89 L1098.69 1090.4 L1100.61 1095.82 L1102.53 1101.15 L1104.46 1106.39 L1106.38 1111.55 L1108.31 1116.64 L1110.23 1121.66 L1112.15 1126.61 L1114.08 1131.49 L1116 1136.29 L1117.93 1141.01 L1119.85 1145.66 L1121.77 1150.22 L1123.7 1154.69 L1125.62 1159.08 L1127.55 1163.39 L1129.47 1167.6 L1131.39 1171.72 L1133.32 1175.75 L1135.24 1179.68 L1137.17 1183.51 L1139.09 1187.24 L1141.01 1190.87 L1142.94 1194.39 L1144.86 1197.82 L1146.79 1201.18 L1148.71 1204.45 L1150.63 1207.65 L1152.56 1210.77 L1154.48 1213.8 L1156.41 1216.75 L1158.33 1219.62 L1160.25 1222.39 L1162.18 1225.07 L1164.1 1227.67 L1166.03 1230.16 L1167.95 1232.57 L1169.88 1234.87 L1171.8 1237.08 L1173.72 1239.18 L1175.65 1241.19 L1177.57 1243.08 L1179.5 1244.87 L1181.42 1246.56 L1183.34 1248.15 L1185.27 1249.68 L1187.19 1251.13 L1189.12 1252.51 L1191.04 1253.83 L1192.96 1255.06 L1194.89 1256.23 L1196.81 1257.31 L1198.74 1258.32 L1200.66 1259.25 L1202.58 1260.1 L1204.51 1260.86 L1206.43 1261.55 L1208.36 1262.15 L1210.28 1262.66 L1212.2 1263.08 L1214.13 1263.42 L1216.05 1263.67 L1217.98 1263.82 L1219.9 1263.89 L1221.82 1263.88 L1223.75 1263.81 L1225.67 1263.68 L1227.6 1263.49 L1229.52 1263.24 L1231.44 1262.93 L1233.37 1262.56 L1235.29 1262.13 L1237.22 1261.63 L1239.14 1261.07 L1241.06 1260.44 L1242.99 1259.74 L1244.91 1258.98 L1246.84 1258.15 L1248.76 1257.25 L1250.68 1256.28 L1252.61 1255.24 L1254.53 1254.12 L1256.46 1252.93 L1258.38 1251.67 L1260.3 1250.35 L1262.23 1249 L1264.15 1247.62 L1266.08 1246.2 L1268 1244.75 L1269.92 1243.26 L1271.85 1241.73 L1273.77 1240.17 L1275.7 1238.58 L1277.62 1236.94 L1279.54 1235.27 L1281.47 1233.57 L1283.39 1231.82 L1285.32 1230.03 L1287.24 1228.21 L1289.16 1226.35 L1291.09 1224.44 L1293.01 1222.5 L1294.94 1220.51 L1296.86 1218.49 L1298.78 1216.43 L1300.71 1214.37 L1302.63 1212.28 L1304.56 1210.19 L1306.48 1208.08 L1308.4 1205.95 L1310.33 1203.81 L1312.25 1201.65 L1314.18 1199.48 L1316.1 1197.3 L1318.02 1195.1 L1319.95 1192.88 L1321.87 1190.65 L1323.8 1188.4 L1325.72 1186.14 L1327.64 1183.86 L1329.57 1181.57 L1331.49 1179.26 L1333.42 1176.93 L1335.34 1174.59 L1337.26 1172.24 L1339.19 1169.91 L1341.11 1167.59 L1343.04 1165.29 L1344.96 1162.99 L1346.88 1160.72 L1348.81 1158.45 L1350.73 1156.2 L1352.66 1153.96 L1354.58 1151.74 L1356.5 1149.53 L1358.43 1147.33 L1360.35 1145.15 L1362.28 1142.99 L1364.2 1140.84 L1366.12 1138.71 L1368.05 1136.59 L1369.97 1134.49 L1371.9 1132.41 L1373.82 1130.34 L1375.74 1128.3 L1377.67 1126.28 L1379.59 1124.29 L1381.52 1122.32 L1383.44 1120.38 L1385.36 1118.47 L1387.29 1116.58 L1389.21 1114.73 L1391.14 1112.9 L1393.06 1111.1 L1394.98 1109.33 L1396.91 1107.59 L1398.83 1105.88 L1400.76 1104.19 L1402.68 1102.54 L1404.6 1100.92 L1406.53 1099.33 L1408.45 1097.78 L1410.38 1096.25 L1412.3 1094.76 L1414.22 1093.31 L1416.15 1091.89 L1418.07 1090.52 L1420 1089.19 L1421.92 1087.9 L1423.84 1086.66 L1425.77 1085.46 L1427.69 1084.31 L1429.62 1083.2 L1431.54 1082.13 L1433.46 1081.11 L1435.39 1080.14 L1437.31 1079.21 L1439.24 1078.34 L1441.16 1077.51 L1443.08 1076.72 L1445.01 1075.99 L1446.93 1075.31 L1448.86 1074.67 L1450.78 1074.09 L1452.7 1073.55 L1454.63 1073.05 L1456.55 1072.59 L1458.48 1072.18 L1460.4 1071.81 L1462.32 1071.48 L1464.25 1071.19 L1466.17 1070.94 L1468.1 1070.74 L1470.02 1070.58 L1471.94 1070.47 L1473.87 1070.4 L1475.79 1070.38 L1477.72 1070.4 L1479.64 1070.47 L1481.56 1070.59 L1483.49 1070.75 L1485.41 1070.96 L1487.34 1071.21 L1489.26 1071.52 L1491.18 1071.87 L1493.11 1072.26 L1495.03 1072.69 L1496.96 1073.16 L1498.88 1073.67 L1500.8 1074.22 L1502.73 1074.82 L1504.65 1075.45 L1506.58 1076.14 L1508.5 1076.86 L1510.42 1077.63 L1512.35 1078.44 L1514.27 1079.29 L1516.2 1080.19 L1518.12 1081.13 L1520.04 1082.12 L1521.97 1083.16 L1523.89 1084.23 L1525.82 1085.36 L1527.74 1086.53 L1529.66 1087.74 L1531.59 1088.98 L1533.51 1090.24 L1535.44 1091.53 L1537.36 1092.84 L1539.28 1094.18 L1541.21 1095.55 L1543.13 1096.95 L1545.06 1098.37 L1546.98 1099.82 L1548.9 1101.3 L1550.83 1102.81 L1552.75 1104.34 L1554.68 1105.9 L1556.6 1107.5 L1558.52 1109.12 L1560.45 1110.76 L1562.37 1112.44 L1564.3 1114.15 L1566.22 1115.88 L1568.14 1117.64 L1570.07 1119.41 L1571.99 1121.19 L1573.92 1122.99 L1575.84 1124.81 L1577.76 1126.64 L1579.69 1128.49 L1581.61 1130.35 L1583.54 1132.22 L1585.46 1134.11 L1587.39 1136.02 L1589.31 1137.94 L1591.23 1139.88 L1593.16 1141.83 L1595.08 1143.79 L1597.01 1145.77 L1598.93 1147.77 L1600.85 1149.78 L1602.78 1151.8 L1604.7 1153.85 L1606.63 1155.89 L1608.55 1157.93 L1610.47 1159.97 L1612.4 1162 L1614.32 1164.03 L1616.25 1166.06 L1618.17 1168.07 L1620.09 1170.09 L1622.02 1172.1 L1623.94 1174.1 L1625.87 1176.09 L1627.79 1178.08 L1629.71 1180.07 L1631.64 1182.05 L1633.56 1184.02 L1635.49 1185.98 L1637.41 1187.94 L1639.33 1189.89 L1641.26 1191.84 L1643.18 1193.77 L1645.11 1195.7 L1647.03 1197.61 L1648.95 1199.5 L1650.88 1201.38 L1652.8 1203.24 L1654.73 1205.08 L1656.65 1206.9 L1658.57 1208.71 L1660.5 1210.5 L1662.42 1212.28 L1664.35 1214.03 L1666.27 1215.77 L1668.19 1217.48 L1670.12 1219.18 L1672.04 1220.86 L1673.97 1222.52 L1675.89 1224.15 L1677.81 1225.77 L1679.74 1227.37 L1681.66 1228.95 L1683.59 1230.5 L1685.51 1232.02 L1687.43 1233.51 L1689.36 1234.97 L1691.28 1236.4 L1693.21 1237.79 L1695.13 1239.15 L1697.05 1240.48 L1698.98 1241.78 L1700.9 1243.04 L1702.83 1244.27 L1704.75 1245.47 L1706.67 1246.63 L1708.6 1247.75 L1710.52 1248.84 L1712.45 1249.9 L1714.37 1250.91 L1716.29 1251.89 L1718.22 1252.84 L1720.14 1253.74 L1722.07 1254.62 L1723.99 1255.46 L1725.91 1256.26 L1727.84 1257.03 L1729.76 1257.77 L1731.69 1258.48 L1733.61 1259.15 L1735.53 1259.78 L1737.46 1260.38 L1739.38 1260.95 L1741.31 1261.48 L1743.23 1261.97 L1745.15 1262.43 L1747.08 1262.84 L1749 1263.23 L1750.93 1263.57 L1752.85 1263.88 L1754.77 1264.15 L1756.7 1264.38 L1758.62 1264.57 L1760.55 1264.72 L1762.47 1264.83 L1764.39 1264.91 L1766.32 1264.95 L1768.24 1264.95 L1770.17 1264.92 L1772.09 1264.84 L1774.01 1264.73 L1775.94 1264.57 L1777.86 1264.38 L1779.79 1264.15 L1781.71 1263.87 L1783.63 1263.56 L1785.56 1263.2 L1787.48 1262.8 L1789.41 1262.36 L1791.33 1261.88 L1793.25 1261.35 L1795.18 1260.78 L1797.1 1260.17 L1799.03 1259.53 L1800.95 1258.85 L1802.87 1258.15 L1804.8 1257.42 L1806.72 1256.67 L1808.65 1255.89 L1810.57 1255.08 L1812.49 1254.24 L1814.42 1253.37 L1816.34 1252.48 L1818.27 1251.56 L1820.19 1250.6 L1822.11 1249.62 L1824.04 1248.61 L1825.96 1247.57 L1827.89 1246.5 L1829.81 1245.4 L1831.73 1244.28 L1833.66 1243.12 L1835.58 1241.92 L1837.51 1240.71 L1839.43 1239.47 L1841.35 1238.21 L1843.28 1236.93 L1845.2 1235.62 L1847.13 1234.29 L1849.05 1232.94 L1850.97 1231.57 L1852.9 1230.17 L1854.82 1228.75 L1856.75 1227.31 L1858.67 1225.85 L1860.59 1224.36 L1862.52 1222.85 L1864.44 1221.31 L1866.37 1219.75 L1868.29 1218.16 L1870.21 1216.55 L1872.14 1214.92 L1874.06 1213.26 L1875.99 1211.59 L1877.91 1209.91 L1879.83 1208.24 L1881.76 1206.56 L1883.68 1204.88 L1885.61 1203.19 L1887.53 1201.51 L1889.45 1199.82 L1891.38 1198.13 L1893.3 1196.43 L1895.23 1194.74 L1897.15 1193.04 L1899.07 1191.34 L1901 1189.64 L1902.92 1187.93 L1904.85 1186.22 L1906.77 1184.52 L1908.69 1182.8 L1910.62 1181.09 L1912.54 1179.37 L1914.47 1177.66 L1916.39 1175.95 L1918.31 1174.24 L1920.24 1172.54 L1922.16 1170.84 L1924.09 1169.15 L1926.01 1167.46 L1927.93 1165.78 L1929.86 1164.1 L1931.78 1162.42 L1933.71 1160.75 L1935.63 1159.09 L1937.55 1157.43 L1939.48 1155.77 L1941.4 1154.12 L1943.33 1152.48 L1945.25 1150.84 L1947.17 1149.2 L1949.1 1147.58 L1951.02 1145.95 L1952.95 1144.34 L1954.87 1142.76 L1956.79 1141.2 L1958.72 1139.67 L1960.64 1138.16 L1962.57 1136.68 L1964.49 1135.22 L1966.41 1133.79 L1968.34 1132.39 L1970.26 1131.01 L1972.19 1129.66 L1974.11 1128.34 L1976.03 1127.05 L1977.96 1125.78 L1979.88 1124.54 L1981.81 1123.33 L1983.73 1122.15 L1985.65 1120.99 L1987.58 1119.86 L1989.5 1118.77 L1991.43 1117.7 L1993.35 1116.65 L1995.27 1115.64 L1997.2 1114.64 L1999.12 1113.68 L2001.05 1112.74 L2002.97 1111.83 L2004.9 1110.95 L2006.82 1110.09 L2008.74 1109.26 L2010.67 1108.46 L2012.59 1107.69 L2014.52 1106.94 L2016.44 1106.23 L2018.36 1105.54 L2020.29 1104.88 L2022.21 1104.25 L2024.14 1103.65 L2026.06 1103.08 L2027.98 1102.54 L2029.91 1102.03 L2031.83 1101.56 L2033.76 1101.14 L2035.68 1100.75 L2037.6 1100.41 L2039.53 1100.11 L2041.45 1099.84 L2043.38 1099.62 L2045.3 1099.45 L2047.22 1099.31 L2049.15 1099.22 L2051.07 1099.17 L2053 1099.16 L2054.92 1099.2 L2056.84 1099.28 L2058.77 1099.41 L2060.69 1099.58 L2062.62 1099.79 L2064.54 1100.05 L2066.46 1100.35 L2068.39 1100.7 L2070.31 1101.07 L2072.24 1101.48 L2074.16 1101.92 L2076.08 1102.39 L2078.01 1102.89 L2079.93 1103.43 L2081.86 1104 L2083.78 1104.6 L2085.7 1105.24 L2087.63 1105.91 L2089.55 1106.62 L2091.48 1107.35 L2093.4 1108.13 L2095.32 1108.93 L2097.25 1109.77 L2099.17 1110.65 L2101.1 1111.56 L2103.02 1112.51 L2104.94 1113.49 L2106.87 1114.51 L2108.79 1115.56 L2110.72 1116.66 L2112.64 1117.78 L2114.56 1118.95 L2116.49 1120.15 L2118.41 1121.39 L2120.34 1122.67 L2122.26 1123.98 L2124.18 1125.33 L2126.11 1126.72 L2128.03 1128.15 L2129.96 1129.62 L2131.88 1131.13 L2133.8 1132.67 L2135.73 1134.26 L2137.65 1135.88 L2139.58 1137.55 L2141.5 1139.25 L2143.42 1140.99 L2145.35 1142.77 L2147.27 1144.56 L2149.2 1146.37 L2151.12 1148.2 L2153.04 1150.06 L2154.97 1151.93 L2156.89 1153.82 L2158.82 1155.73 L2160.74 1157.66 L2162.66 1159.61 L2164.59 1161.58 L2166.51 1163.58 L2168.44 1165.59 L2170.36 1167.62 L2172.28 1169.67 L2174.21 1171.74 L2176.13 1173.84 L2178.06 1175.95 L2179.98 1178.09 L2181.9 1180.24 L2183.83 1182.42 L2185.75 1184.61 L2187.68 1186.82 L2189.6 1189.05 L2191.52 1191.29 L2193.45 1193.56 L2195.37 1195.84 L2197.3 1198.14 L2199.22 1200.45 L2201.14 1202.79 L2203.07 1205.14 L2204.99 1207.52 L2206.92 1209.91 L2208.84 1212.31 L2210.76 1214.74 L2212.69 1217.19 L2214.61 1219.65 L2216.54 1222.13 L2218.46 1224.63 L2220.38 1227.15 L2222.31 1229.68 L2224.23 1232.2 L2226.16 1234.72 L2228.08 1237.24 L2230 1239.75 L2231.93 1242.26 L2233.85 1244.77 L2235.78 1247.27 L2237.7 1249.77 L2239.62 1252.27 L2241.55 1254.76 L2243.47 1257.24 L2245.4 1259.73 L2247.32 1262.21 L2249.24 1264.68 L2251.17 1267.15 L2253.09 1269.62 L2255.02 1272.08 L2256.94 1274.53 L2258.86 1276.99 L2260.79 1279.43 L2262.71 1281.88 L2264.64 1284.31 L2266.56 1286.74 L2268.48 1289.17 L2270.41 1291.59 L2272.33 1294.01 L2274.26 1296.42 L2276.18 1298.83 L2278.1 1301.23 L2280.03 1303.62 L2281.95 1306.01 L2283.88 1308.39 L2285.8 1310.77 L2287.72 1313.14 L2289.65 1315.5 L2291.57 1317.86 L2293.5 1320.21 L2295.42 1322.56 L2297.34 1324.9 L2297.34 1305.13 L2295.42 1302.63 L2293.5 1300.12 L2291.57 1297.61 L2289.65 1295.08 L2287.72 1292.55 L2285.8 1290.02 L2283.88 1287.47 L2281.95 1284.92 L2280.03 1282.37 L2278.1 1279.8 L2276.18 1277.24 L2274.26 1274.66 L2272.33 1272.08 L2270.41 1269.49 L2268.48 1266.9 L2266.56 1264.3 L2264.64 1261.7 L2262.71 1259.09 L2260.79 1256.47 L2258.86 1253.85 L2256.94 1251.23 L2255.02 1248.6 L2253.09 1245.96 L2251.17 1243.32 L2249.24 1240.67 L2247.32 1238.02 L2245.4 1235.37 L2243.47 1232.71 L2241.55 1230.04 L2239.62 1227.37 L2237.7 1224.7 L2235.78 1222.02 L2233.85 1219.34 L2231.93 1216.65 L2230 1213.96 L2228.08 1211.26 L2226.16 1208.57 L2224.23 1205.86 L2222.31 1203.16 L2220.38 1200.45 L2218.46 1197.75 L2216.54 1195.06 L2214.61 1192.4 L2212.69 1189.76 L2210.76 1187.14 L2208.84 1184.53 L2206.92 1181.95 L2204.99 1179.38 L2203.07 1176.84 L2201.14 1174.31 L2199.22 1171.8 L2197.3 1169.31 L2195.37 1166.84 L2193.45 1164.39 L2191.52 1161.96 L2189.6 1159.55 L2187.68 1157.15 L2185.75 1154.78 L2183.83 1152.42 L2181.9 1150.08 L2179.98 1147.77 L2178.06 1145.47 L2176.13 1143.2 L2174.21 1140.95 L2172.28 1138.72 L2170.36 1136.51 L2168.44 1134.32 L2166.51 1132.16 L2164.59 1130.01 L2162.66 1127.89 L2160.74 1125.79 L2158.82 1123.71 L2156.89 1121.65 L2154.97 1119.61 L2153.04 1117.59 L2151.12 1115.6 L2149.2 1113.62 L2147.27 1111.67 L2145.35 1109.74 L2143.42 1107.82 L2141.5 1105.94 L2139.58 1104.1 L2137.65 1102.31 L2135.73 1100.55 L2133.8 1098.84 L2131.88 1097.17 L2129.96 1095.54 L2128.03 1093.95 L2126.11 1092.41 L2124.18 1090.9 L2122.26 1089.44 L2120.34 1088.01 L2118.41 1086.63 L2116.49 1085.28 L2114.56 1083.98 L2112.64 1082.71 L2110.72 1081.49 L2108.79 1080.3 L2106.87 1079.16 L2104.94 1078.05 L2103.02 1076.98 L2101.1 1075.94 L2099.17 1074.95 L2097.25 1073.99 L2095.32 1073.07 L2093.4 1072.19 L2091.48 1071.34 L2089.55 1070.53 L2087.63 1069.76 L2085.7 1069.02 L2083.78 1068.32 L2081.86 1067.65 L2079.93 1067.02 L2078.01 1066.42 L2076.08 1065.86 L2074.16 1065.34 L2072.24 1064.84 L2070.31 1064.39 L2068.39 1063.97 L2066.46 1063.58 L2064.54 1063.23 L2062.62 1062.93 L2060.69 1062.68 L2058.77 1062.48 L2056.84 1062.32 L2054.92 1062.21 L2053 1062.15 L2051.07 1062.14 L2049.15 1062.17 L2047.22 1062.24 L2045.3 1062.37 L2043.38 1062.53 L2041.45 1062.75 L2039.53 1063.01 L2037.6 1063.31 L2035.68 1063.65 L2033.76 1064.04 L2031.83 1064.48 L2029.91 1064.96 L2027.98 1065.48 L2026.06 1066.03 L2024.14 1066.62 L2022.21 1067.24 L2020.29 1067.9 L2018.36 1068.58 L2016.44 1069.29 L2014.52 1070.04 L2012.59 1070.81 L2010.67 1071.62 L2008.74 1072.45 L2006.82 1073.32 L2004.9 1074.21 L2002.97 1075.14 L2001.05 1076.09 L1999.12 1077.07 L1997.2 1078.08 L1995.27 1079.12 L1993.35 1080.19 L1991.43 1081.29 L1989.5 1082.41 L1987.58 1083.56 L1985.65 1084.75 L1983.73 1085.96 L1981.81 1087.21 L1979.88 1088.49 L1977.96 1089.79 L1976.03 1091.13 L1974.11 1092.49 L1972.19 1093.89 L1970.26 1095.31 L1968.34 1096.76 L1966.41 1098.25 L1964.49 1099.76 L1962.57 1101.29 L1960.64 1102.86 L1958.72 1104.45 L1956.79 1106.08 L1954.87 1107.73 L1952.95 1109.4 L1951.02 1111.11 L1949.1 1112.82 L1947.17 1114.55 L1945.25 1116.28 L1943.33 1118.02 L1941.4 1119.76 L1939.48 1121.51 L1937.55 1123.26 L1935.63 1125.02 L1933.71 1126.79 L1931.78 1128.56 L1929.86 1130.33 L1927.93 1132.11 L1926.01 1133.9 L1924.09 1135.69 L1922.16 1137.48 L1920.24 1139.28 L1918.31 1141.09 L1916.39 1142.9 L1914.47 1144.71 L1912.54 1146.53 L1910.62 1148.35 L1908.69 1150.17 L1906.77 1151.98 L1904.85 1153.8 L1902.92 1155.61 L1901 1157.42 L1899.07 1159.22 L1897.15 1161.03 L1895.23 1162.83 L1893.3 1164.63 L1891.38 1166.43 L1889.45 1168.22 L1887.53 1170.02 L1885.61 1171.81 L1883.68 1173.59 L1881.76 1175.38 L1879.83 1177.16 L1877.91 1178.94 L1875.99 1180.72 L1874.06 1182.5 L1872.14 1184.26 L1870.21 1185.99 L1868.29 1187.7 L1866.37 1189.39 L1864.44 1191.04 L1862.52 1192.67 L1860.59 1194.28 L1858.67 1195.86 L1856.75 1197.41 L1854.82 1198.94 L1852.9 1200.45 L1850.97 1201.93 L1849.05 1203.38 L1847.13 1204.82 L1845.2 1206.22 L1843.28 1207.61 L1841.35 1208.97 L1839.43 1210.3 L1837.51 1211.61 L1835.58 1212.9 L1833.66 1214.16 L1831.73 1215.39 L1829.81 1216.58 L1827.89 1217.75 L1825.96 1218.88 L1824.04 1219.98 L1822.11 1221.04 L1820.19 1222.08 L1818.27 1223.08 L1816.34 1224.06 L1814.42 1225 L1812.49 1225.91 L1810.57 1226.79 L1808.65 1227.64 L1806.72 1228.47 L1804.8 1229.26 L1802.87 1230.02 L1800.95 1230.76 L1799.03 1231.46 L1797.1 1232.14 L1795.18 1232.78 L1793.25 1233.37 L1791.33 1233.91 L1789.41 1234.41 L1787.48 1234.87 L1785.56 1235.28 L1783.63 1235.64 L1781.71 1235.96 L1779.79 1236.24 L1777.86 1236.47 L1775.94 1236.66 L1774.01 1236.8 L1772.09 1236.91 L1770.17 1236.97 L1768.24 1236.99 L1766.32 1236.97 L1764.39 1236.9 L1762.47 1236.8 L1760.55 1236.65 L1758.62 1236.47 L1756.7 1236.24 L1754.77 1235.98 L1752.85 1235.67 L1750.93 1235.32 L1749 1234.92 L1747.08 1234.49 L1745.15 1234.02 L1743.23 1233.51 L1741.31 1232.96 L1739.38 1232.36 L1737.46 1231.73 L1735.53 1231.07 L1733.61 1230.36 L1731.69 1229.62 L1729.76 1228.84 L1727.84 1228.02 L1725.91 1227.16 L1723.99 1226.27 L1722.07 1225.35 L1720.14 1224.39 L1718.22 1223.39 L1716.29 1222.35 L1714.37 1221.27 L1712.45 1220.15 L1710.52 1218.99 L1708.6 1217.79 L1706.67 1216.55 L1704.75 1215.28 L1702.83 1213.97 L1700.9 1212.62 L1698.98 1211.23 L1697.05 1209.81 L1695.13 1208.35 L1693.21 1206.86 L1691.28 1205.33 L1689.36 1203.76 L1687.43 1202.16 L1685.51 1200.53 L1683.59 1198.87 L1681.66 1197.17 L1679.74 1195.44 L1677.81 1193.69 L1675.89 1191.92 L1673.97 1190.12 L1672.04 1188.31 L1670.12 1186.47 L1668.19 1184.61 L1666.27 1182.73 L1664.35 1180.83 L1662.42 1178.91 L1660.5 1176.97 L1658.57 1175.01 L1656.65 1173.03 L1654.73 1171.03 L1652.8 1169.01 L1650.88 1166.97 L1648.95 1164.92 L1647.03 1162.85 L1645.11 1160.75 L1643.18 1158.65 L1641.26 1156.53 L1639.33 1154.4 L1637.41 1152.26 L1635.49 1150.11 L1633.56 1147.96 L1631.64 1145.8 L1629.71 1143.63 L1627.79 1141.46 L1625.87 1139.27 L1623.94 1137.08 L1622.02 1134.89 L1620.09 1132.69 L1618.17 1130.48 L1616.25 1128.27 L1614.32 1126.05 L1612.4 1123.82 L1610.47 1121.59 L1608.55 1119.35 L1606.63 1117.11 L1604.7 1114.87 L1602.78 1112.63 L1600.85 1110.4 L1598.93 1108.19 L1597.01 1106 L1595.08 1103.82 L1593.16 1101.66 L1591.23 1099.52 L1589.31 1097.39 L1587.39 1095.28 L1585.46 1093.18 L1583.54 1091.1 L1581.61 1089.03 L1579.69 1086.98 L1577.76 1084.95 L1575.84 1082.93 L1573.92 1080.93 L1571.99 1078.94 L1570.07 1076.97 L1568.14 1075.02 L1566.22 1073.08 L1564.3 1071.16 L1562.37 1069.28 L1560.45 1067.42 L1558.52 1065.6 L1556.6 1063.81 L1554.68 1062.05 L1552.75 1060.31 L1550.83 1058.61 L1548.9 1056.94 L1546.98 1055.3 L1545.06 1053.69 L1543.13 1052.11 L1541.21 1050.55 L1539.28 1049.03 L1537.36 1047.54 L1535.44 1046.07 L1533.51 1044.63 L1531.59 1043.23 L1529.66 1041.85 L1527.74 1040.49 L1525.82 1039.18 L1523.89 1037.92 L1521.97 1036.71 L1520.04 1035.55 L1518.12 1034.43 L1516.2 1033.37 L1514.27 1032.35 L1512.35 1031.38 L1510.42 1030.46 L1508.5 1029.59 L1506.58 1028.76 L1504.65 1027.98 L1502.73 1027.24 L1500.8 1026.55 L1498.88 1025.91 L1496.96 1025.31 L1495.03 1024.76 L1493.11 1024.25 L1491.18 1023.78 L1489.26 1023.36 L1487.34 1022.98 L1485.41 1022.66 L1483.49 1022.39 L1481.56 1022.17 L1479.64 1022 L1477.72 1021.88 L1475.79 1021.82 L1473.87 1021.8 L1471.94 1021.83 L1470.02 1021.91 L1468.1 1022.03 L1466.17 1022.21 L1464.25 1022.43 L1462.32 1022.7 L1460.4 1023.01 L1458.48 1023.37 L1456.55 1023.78 L1454.63 1024.23 L1452.7 1024.73 L1450.78 1025.27 L1448.86 1025.86 L1446.93 1026.5 L1445.01 1027.2 L1443.08 1027.95 L1441.16 1028.76 L1439.24 1029.62 L1437.31 1030.53 L1435.39 1031.49 L1433.46 1032.5 L1431.54 1033.56 L1429.62 1034.68 L1427.69 1035.84 L1425.77 1037.05 L1423.84 1038.31 L1421.92 1039.62 L1420 1040.98 L1418.07 1042.38 L1416.15 1043.83 L1414.22 1045.32 L1412.3 1046.86 L1410.38 1048.44 L1408.45 1050.06 L1406.53 1051.71 L1404.6 1053.39 L1402.68 1055.11 L1400.76 1056.87 L1398.83 1058.66 L1396.91 1060.48 L1394.98 1062.33 L1393.06 1064.21 L1391.14 1066.13 L1389.21 1068.08 L1387.29 1070.06 L1385.36 1072.07 L1383.44 1074.11 L1381.52 1076.18 L1379.59 1078.28 L1377.67 1080.41 L1375.74 1082.57 L1373.82 1084.76 L1371.9 1086.97 L1369.97 1089.19 L1368.05 1091.44 L1366.12 1093.71 L1364.2 1095.99 L1362.28 1098.29 L1360.35 1100.61 L1358.43 1102.94 L1356.5 1105.29 L1354.58 1107.66 L1352.66 1110.05 L1350.73 1112.45 L1348.81 1114.86 L1346.88 1117.3 L1344.96 1119.74 L1343.04 1122.2 L1341.11 1124.68 L1339.19 1127.17 L1337.26 1129.68 L1335.34 1132.2 L1333.42 1134.71 L1331.49 1137.21 L1329.57 1139.7 L1327.64 1142.16 L1325.72 1144.61 L1323.8 1147.04 L1321.87 1149.46 L1319.95 1151.85 L1318.02 1154.24 L1316.1 1156.6 L1314.18 1158.95 L1312.25 1161.28 L1310.33 1163.6 L1308.4 1165.9 L1306.48 1168.19 L1304.56 1170.46 L1302.63 1172.71 L1300.71 1174.95 L1298.78 1177.17 L1296.86 1179.38 L1294.94 1181.55 L1293.01 1183.69 L1291.09 1185.77 L1289.16 1187.82 L1287.24 1189.82 L1285.32 1191.78 L1283.39 1193.69 L1281.47 1195.56 L1279.54 1197.39 L1277.62 1199.18 L1275.7 1200.93 L1273.77 1202.64 L1271.85 1204.31 L1269.92 1205.94 L1268 1207.53 L1266.08 1209.08 L1264.15 1210.6 L1262.23 1212.08 L1260.3 1213.52 L1258.38 1214.92 L1256.46 1216.26 L1254.53 1217.53 L1252.61 1218.71 L1250.68 1219.81 L1248.76 1220.84 L1246.84 1221.79 L1244.91 1222.66 L1242.99 1223.45 L1241.06 1224.17 L1239.14 1224.82 L1237.22 1225.4 L1235.29 1225.9 L1233.37 1226.34 L1231.44 1226.7 L1229.52 1227 L1227.6 1227.23 L1225.67 1227.39 L1223.75 1227.49 L1221.82 1227.53 L1219.9 1227.5 L1217.98 1227.38 L1216.05 1227.17 L1214.13 1226.85 L1212.2 1226.44 L1210.28 1225.92 L1208.36 1225.31 L1206.43 1224.61 L1204.51 1223.81 L1202.58 1222.92 L1200.66 1221.94 L1198.74 1220.88 L1196.81 1219.72 L1194.89 1218.48 L1192.96 1217.15 L1191.04 1215.74 L1189.12 1214.25 L1187.19 1212.67 L1185.27 1211.02 L1183.34 1209.29 L1181.42 1207.49 L1179.5 1205.58 L1177.57 1203.56 L1175.65 1201.42 L1173.72 1199.16 L1171.8 1196.78 L1169.88 1194.3 L1167.95 1191.7 L1166.03 1189 L1164.1 1186.19 L1162.18 1183.28 L1160.25 1180.26 L1158.33 1177.14 L1156.41 1173.93 L1154.48 1170.61 L1152.56 1167.21 L1150.63 1163.71 L1148.71 1160.12 L1146.79 1156.44 L1144.86 1152.67 L1142.94 1148.82 L1141.01 1144.86 L1139.09 1140.79 L1137.17 1136.61 L1135.24 1132.31 L1133.32 1127.9 L1131.39 1123.38 L1129.47 1118.76 L1127.55 1114.03 L1125.62 1109.21 L1123.7 1104.28 L1121.77 1099.26 L1119.85 1094.14 L1117.93 1088.93 L1116 1083.63 L1114.08 1078.24 L1112.15 1072.77 L1110.23 1067.21 L1108.31 1061.58 L1106.38 1055.86 L1104.46 1050.07 L1102.53 1044.18 L1100.61 1038.19 L1098.69 1032.1 L1096.76 1025.91 L1094.84 1019.62 L1092.91 1013.24 L1090.99 1006.76 L1089.07 1000.2 L1087.14 993.549 L1085.22 986.813 L1083.29 979.996 L1081.37 973.099 L1079.45 966.125 L1077.52 959.077 L1075.6 951.956 L1073.67 944.765 L1071.75 937.507 L1069.83 930.185 L1067.9 922.799 L1065.98 915.353 L1064.05 907.84 L1062.13 900.254 L1060.21 892.598 L1058.28 884.873 L1056.36 877.083 L1054.43 869.23 L1052.51 861.316 L1050.59 853.344 L1048.66 845.317 L1046.74 837.237 L1044.81 829.106 L1042.89 820.928 L1040.97 812.703 L1039.04 804.435 L1037.12 796.126 L1035.19 787.779 L1033.27 779.396 L1031.35 770.978 L1029.42 762.529 L1027.5 754.051 L1025.57 745.541 L1023.65 737 L1021.73 728.428 L1019.8 719.828 L1017.88 711.202 L1015.95 702.554 L1014.03 693.885 L1012.11 685.197 L1010.18 676.493 L1008.26 667.775 L1006.33 659.045 L1004.41 650.305 L1002.49 641.558 L1000.56 632.807 L998.638 624.052 L996.714 615.296 L994.79 606.541 L992.866 597.79 L990.942 589.045 L989.018 580.307 L987.094 571.58 L985.17 562.868 L983.246 554.172 L981.322 545.494 L979.398 536.837 L977.474 528.202 L975.55 519.592 L973.626 511.007 L971.702 502.45 L969.778 493.923 L967.854 485.428 L965.93 476.966 L964.006 468.539 L962.082 460.15 L960.158 451.799 L958.234 443.488 L956.31 435.22 L954.386 426.996 L952.462 418.818 L950.538 410.687 L948.614 402.613 L946.69 394.605 L944.766 386.666 L942.842 378.796 L940.918 370.997 L938.994 363.269 L937.07 355.615 L935.146 348.034 L933.222 340.53 L931.298 333.102 L929.374 325.752 L927.45 318.481 L925.526 311.29 L923.602 304.18 L921.678 297.153 L919.754 290.21 L917.83 283.351 L915.906 276.578 L913.982 269.891 L912.058 263.293 L910.134 256.79 L908.21 250.392 L906.286 244.099 L904.362 237.911 L902.438 231.83 L900.514 225.856 L898.59 219.989 L896.666 214.23 L894.742 208.58 L892.818 203.04 L890.894 197.609 L888.97 192.289 L887.046 187.08 L885.122 181.983 L883.198 176.998 L881.274 172.126 L879.35 167.366 L877.426 162.721 L875.502 158.189 L873.578 153.773 L871.654 149.484 L869.73 145.335 L867.806 141.328 L865.882 137.461 L863.958 133.734 L862.034 130.147 L860.11 126.7 L858.186 123.393 L856.262 120.225 L854.338 117.197 L852.414 114.307 L850.49 111.557 L848.566 108.944 L846.641 106.471 L844.717 104.135 L842.793 101.937 L840.869 99.8759 L838.945 97.9524 L837.021 96.1657 L835.097 94.5156 L833.173 93.0099 L831.249 91.6561 L829.325 90.4535 L827.401 89.4013 L825.477 88.4989 L823.553 87.7454 L821.629 87.1402 L819.705 86.6823 L817.781 86.3711 L815.857 86.2059 L813.933 86.1857 L812.009 86.3098 L810.085 86.5775 L808.161 86.9879 L806.237 87.5402 L804.313 88.2336 L802.389 89.0673 L800.465 90.0405 L798.541 91.1523 L796.617 92.402 L794.693 93.7948 L792.769 95.3358 L790.845 97.0238 L788.921 98.8577 L786.997 100.836 L785.073 102.958 L783.149 105.223 L781.225 107.628 L779.301 110.174 L777.377 112.858 L775.453 115.679 L773.529 118.637 L771.605 121.73 L769.681 124.957 L767.757 128.317 L765.833 131.808 L763.909 135.43 L761.985 139.18 L760.061 143.058 L758.137 147.063 L756.213 151.196 L754.289 155.459 L752.365 159.849 L750.441 164.367 L748.517 169.01 L746.593 173.778 L744.669 178.668 L742.745 183.679 L740.821 188.81 L738.897 194.059 L736.973 199.426 L735.049 204.908 L733.125 210.504 L731.201 216.214 L729.277 222.034 L727.353 227.965 L725.429 234.004 L723.505 240.15 L721.581 246.402 L719.657 252.758 L717.733 259.208 L715.809 265.745 L713.885 272.365 L711.961 279.07 L710.037 285.857 L708.113 292.725 L706.189 299.675 L704.265 306.704 L702.341 313.813 L700.417 320.999 L698.493 328.263 L696.569 335.603 L694.645 343.018 L692.721 350.507 L690.797 358.07 L688.873 365.705 L686.949 373.411 L685.025 381.187 L683.101 389.033 L681.177 396.947 L679.253 404.917 L677.329 412.932 L675.405 420.991 L673.481 429.094 L671.557 437.24 L669.633 445.431 L667.709 453.664 L665.785 461.941 L663.861 470.26 L661.937 478.621 L660.013 487.025 L658.089 495.47 L656.165 503.956 L654.241 512.483 L652.317 521.05 L650.393 529.657 L648.469 538.303 L646.545 546.988 L644.621 555.712 L642.697 564.474 L640.773 573.248 L638.849 582.008 L636.924 590.757 L635 599.496 L633.076 608.227 L631.152 616.95 L629.228 625.668 L627.304 634.382 L625.38 643.092 L623.456 651.801 L621.532 660.509 L619.608 669.218 L617.684 677.928 L615.76 686.641 L613.836 695.358 L611.912 704.079 L609.988 712.806 L608.064 721.54 L606.14 730.28 L604.216 739.029 L602.292 747.75 L600.368 756.413 L598.444 765.02 L596.52 773.577 L594.596 782.085 L592.672 790.551 L590.748 798.976 L588.824 807.365 L586.9 815.72 L584.976 824.046 L583.052 832.346 L581.128 840.622 L579.204 848.878 L577.28 857.116 L575.356 865.339 L573.432 873.55 L571.508 881.752 L569.584 889.947 L567.66 898.137 L565.736 906.325 L563.812 914.455 L561.888 922.474 L559.964 930.393 L558.04 938.218 L556.116 945.959 L554.192 953.623 L552.268 961.219 L550.344 968.752 L548.42 976.232 L546.496 983.665 L544.572 991.057 L542.648 998.415 L540.724 1005.75 L538.8 1013.05 L536.876 1020.35 L534.952 1027.63 L533.028 1034.91 L531.104 1042.19 L529.18 1049.47 L527.256 1056.76 L525.332 1063.97 L523.408 1071 L521.484 1077.88 L519.56 1084.62 L517.636 1091.24 L515.712 1097.76 L513.788 1104.19 L511.864 1110.54 L509.94 1116.84 L508.016 1123.09 L506.092 1129.32 L504.168 1135.53 L502.244 1141.73 L500.32 1147.94 L498.396 1154.17 L496.472 1160.43 L494.548 1166.73 L492.624 1173.07 L490.7 1179.47 L488.776 1185.94 L486.852 1192.25 L484.928 1198.23 L483.004 1203.91 L481.08 1209.35 L479.156 1214.6 L477.232 1219.68 L475.308 1224.65 L473.384 1229.54 L471.46 1234.39 L469.536 1239.24 L467.612 1244.11 L465.688 1249.04 L463.764 1254.06 L461.84 1259.18 L459.916 1264.44 L457.992 1269.86 L456.068 1275.46 L454.144 1281.26 L452.22 1287.26 L450.296 1293.5  Z" fill="#009af9" fill-rule="evenodd" fill-opacity="0.5"/>
<polyline clip-path="url(#clip122)" style="stroke:#009af9; stroke-linecap:round; stroke-linejoin:round; stroke-width:4; stroke-opacity:1; fill:none" points="450.296,1338.87 452.22,1333 454.144,1327.32 456.068,1321.82 457.992,1316.5 459.916,1311.33 461.84,1306.3 463.764,1301.39 465.688,1296.57 467.612,1291.84 469.536,1287.15 471.46,1282.48 473.384,1277.82 475.308,1273.11 477.232,1268.34 479.156,1263.47 481.08,1258.46 483.004,1253.28 484.928,1247.87 486.852,1242.21 488.776,1236.25 490.7,1230.15 492.624,1224.11 494.548,1218.11 496.472,1212.16 498.396,1206.23 500.32,1200.34 502.244,1194.45 504.168,1188.57 506.092,1182.69 508.016,1176.79 509.94,1170.86 511.864,1164.88 513.788,1158.86 515.712,1152.77 517.636,1146.6 519.56,1140.33 521.484,1133.95 523.408,1127.45 525.332,1120.81 527.256,1114.01 529.18,1107.12 531.104,1100.25 533.028,1093.37 534.952,1086.49 536.876,1079.61 538.8,1072.72 540.724,1065.8 542.648,1058.87 544.572,1051.91 546.496,1044.91 548.42,1037.88 550.344,1030.8 552.268,1023.67 554.192,1016.49 556.116,1009.24 558.04,1001.91 559.964,994.508 561.888,987.018 563.812,979.434 565.736,971.747 567.66,964.004 569.584,956.257 571.508,948.503 573.432,940.741 575.356,932.967 577.28,925.18 579.204,917.377 581.128,909.556 583.052,901.714 584.976,893.848 586.9,885.956 588.824,878.034 590.748,870.08 592.672,862.09 594.596,854.062 596.52,845.991 598.444,837.875 600.368,829.709 602.292,821.491 604.216,813.217 606.14,804.915 608.064,796.619 609.988,788.327 611.912,780.039 613.836,771.754 615.76,763.471 617.684,755.19 619.608,746.909 621.532,738.627 623.456,730.344 625.38,722.059 627.304,713.77 629.228,705.476 631.152,697.177 633.076,688.87 635,680.555 636.924,672.231 638.849,663.895 640.773,655.548 642.697,647.186 644.621,638.834 646.545,630.515 648.469,622.229 650.393,613.979 652.317,605.762 654.241,597.582 656.165,589.436 658.089,581.327 660.013,573.255 661.937,565.22 663.861,557.222 665.785,549.262 667.709,541.34 669.633,533.456 671.557,525.612 673.481,517.806 675.405,510.04 677.329,502.313 679.253,494.626 681.177,486.98 683.101,479.385 685.025,471.851 686.949,464.381 688.873,456.976 690.797,449.635 692.721,442.361 694.645,435.154 696.569,428.015 698.493,420.945 700.417,413.946 702.341,407.017 704.265,400.16 706.189,393.376 708.113,386.665 710.037,380.029 711.961,373.469 713.885,366.985 715.809,360.579 717.733,354.25 719.657,348.001 721.581,341.839 723.505,335.775 725.429,329.808 727.353,323.941 729.277,318.175 731.201,312.511 733.125,306.951 735.049,301.496 736.973,296.147 738.897,290.906 740.821,285.774 742.745,280.753 744.669,275.843 746.593,271.047 748.517,266.365 750.441,261.8 752.365,257.352 754.289,253.022 756.213,248.813 758.137,244.725 760.061,240.757 761.985,236.908 763.909,233.178 765.833,229.57 767.757,226.084 769.681,222.721 771.605,219.483 773.529,216.371 775.453,213.386 777.377,210.529 779.301,207.801 781.225,205.204 783.149,202.738 785.073,200.405 786.997,198.207 788.921,196.143 790.845,194.216 792.769,192.426 794.693,190.775 796.617,189.264 798.541,187.888 800.465,186.642 802.389,185.527 804.313,184.544 806.237,183.694 808.161,182.976 810.085,182.393 812.009,181.946 813.933,181.633 815.857,181.458 817.781,181.42 819.705,181.52 821.629,181.759 823.553,182.137 825.477,182.656 827.401,183.316 829.325,184.119 831.249,185.063 833.173,186.152 835.097,187.384 837.021,188.754 838.945,190.253 840.869,191.882 842.793,193.642 844.717,195.533 846.641,197.554 848.566,199.707 850.49,201.992 852.414,204.408 854.338,206.956 856.262,209.637 858.186,212.451 860.11,215.397 862.034,218.476 863.958,221.689 865.882,225.035 867.806,228.515 869.73,232.129 871.654,235.877 873.578,239.76 875.502,243.765 877.426,247.879 879.35,252.102 881.274,256.435 883.198,260.876 885.122,265.425 887.046,270.081 888.97,274.845 890.894,279.715 892.818,284.691 894.742,289.772 896.666,294.959 898.59,300.25 900.514,305.645 902.438,311.143 904.362,316.744 906.286,322.447 908.21,328.252 910.134,334.157 912.058,340.163 913.982,346.261 915.906,352.445 917.83,358.712 919.754,365.061 921.678,371.493 923.602,378.005 925.526,384.598 927.45,391.269 929.374,398.017 931.298,404.842 933.222,411.743 935.146,418.718 937.07,425.766 938.994,432.887 940.918,440.078 942.842,447.339 944.766,454.669 946.69,462.066 948.614,469.529 950.538,477.058 952.462,484.642 954.386,492.273 956.31,499.949 958.234,507.668 960.158,515.429 962.082,523.231 964.006,531.07 965.93,538.947 967.854,546.859 969.778,554.805 971.702,562.782 973.626,570.789 975.55,578.824 977.474,586.886 979.398,594.973 981.322,603.082 983.246,611.213 985.17,619.362 987.094,627.529 989.018,635.712 990.942,643.906 992.866,652.11 994.79,660.32 996.714,668.536 998.638,676.754 1000.56,684.974 1002.49,693.192 1004.41,701.407 1006.33,709.616 1008.26,717.818 1010.18,726.011 1012.11,734.192 1014.03,742.359 1015.95,750.51 1017.88,758.643 1019.8,766.756 1021.73,774.845 1023.65,782.911 1025.57,790.948 1027.5,798.957 1029.42,806.938 1031.35,814.892 1033.27,822.818 1035.19,830.713 1037.12,838.575 1039.04,846.402 1040.97,854.192 1042.89,861.941 1044.81,869.649 1046.74,877.313 1048.66,884.93 1050.59,892.497 1052.51,900.014 1054.43,907.476 1056.36,914.883 1058.28,922.231 1060.21,929.518 1062.13,936.742 1064.05,943.899 1065.98,950.989 1067.9,958.016 1069.83,964.986 1071.75,971.899 1073.67,978.751 1075.6,985.54 1077.52,992.263 1079.45,998.919 1081.37,1005.51 1083.29,1012.02 1085.22,1018.46 1087.14,1024.82 1089.07,1031.11 1090.99,1037.31 1092.91,1043.43 1094.84,1049.46 1096.76,1055.4 1098.69,1061.25 1100.61,1067.01 1102.53,1072.67 1104.46,1078.23 1106.38,1083.71 1108.31,1089.11 1110.23,1094.44 1112.15,1099.69 1114.08,1104.87 1116,1109.96 1117.93,1114.97 1119.85,1119.9 1121.77,1124.74 1123.7,1129.49 1125.62,1134.14 1127.55,1138.71 1129.47,1143.18 1131.39,1147.55 1133.32,1151.82 1135.24,1155.99 1137.17,1160.06 1139.09,1164.02 1141.01,1167.87 1142.94,1171.6 1144.86,1175.25 1146.79,1178.81 1148.71,1182.29 1150.63,1185.68 1152.56,1188.99 1154.48,1192.21 1156.41,1195.34 1158.33,1198.38 1160.25,1201.32 1162.18,1204.17 1164.1,1206.93 1166.03,1209.58 1167.95,1212.14 1169.88,1214.59 1171.8,1216.93 1173.72,1219.17 1175.65,1221.3 1177.57,1223.32 1179.5,1225.23 1181.42,1227.02 1183.34,1228.72 1185.27,1230.35 1187.19,1231.9 1189.12,1233.38 1191.04,1234.78 1192.96,1236.11 1194.89,1237.35 1196.81,1238.52 1198.74,1239.6 1200.66,1240.6 1202.58,1241.51 1204.51,1242.34 1206.43,1243.08 1208.36,1243.73 1210.28,1244.29 1212.2,1244.76 1214.13,1245.14 1216.05,1245.42 1217.98,1245.6 1219.9,1245.69 1221.82,1245.7 1223.75,1245.65 1225.67,1245.54 1227.6,1245.36 1229.52,1245.12 1231.44,1244.82 1233.37,1244.45 1235.29,1244.02 1237.22,1243.52 1239.14,1242.95 1241.06,1242.31 1242.99,1241.6 1244.91,1240.82 1246.84,1239.97 1248.76,1239.04 1250.68,1238.05 1252.61,1236.97 1254.53,1235.82 1256.46,1234.6 1258.38,1233.29 1260.3,1231.93 1262.23,1230.54 1264.15,1229.11 1266.08,1227.64 1268,1226.14 1269.92,1224.6 1271.85,1223.02 1273.77,1221.41 1275.7,1219.76 1277.62,1218.06 1279.54,1216.33 1281.47,1214.56 1283.39,1212.76 1285.32,1210.91 1287.24,1209.01 1289.16,1207.08 1291.09,1205.11 1293.01,1203.09 1294.94,1201.03 1296.86,1198.93 1298.78,1196.8 1300.71,1194.66 1302.63,1192.5 1304.56,1190.32 1306.48,1188.13 1308.4,1185.93 1310.33,1183.7 1312.25,1181.47 1314.18,1179.22 1316.1,1176.95 1318.02,1174.67 1319.95,1172.37 1321.87,1170.05 1323.8,1167.72 1325.72,1165.37 1327.64,1163.01 1329.57,1160.63 1331.49,1158.24 1333.42,1155.82 1335.34,1153.39 1337.26,1150.96 1339.19,1148.54 1341.11,1146.14 1343.04,1143.75 1344.96,1141.37 1346.88,1139.01 1348.81,1136.66 1350.73,1134.32 1352.66,1132 1354.58,1129.7 1356.5,1127.41 1358.43,1125.14 1360.35,1122.88 1362.28,1120.64 1364.2,1118.42 1366.12,1116.21 1368.05,1114.02 1369.97,1111.84 1371.9,1109.69 1373.82,1107.55 1375.74,1105.43 1377.67,1103.34 1379.59,1101.28 1381.52,1099.25 1383.44,1097.24 1385.36,1095.27 1387.29,1093.32 1389.21,1091.4 1391.14,1089.51 1393.06,1087.66 1394.98,1085.83 1396.91,1084.03 1398.83,1082.27 1400.76,1080.53 1402.68,1078.83 1404.6,1077.16 1406.53,1075.52 1408.45,1073.92 1410.38,1072.35 1412.3,1070.81 1414.22,1069.31 1416.15,1067.86 1418.07,1066.45 1420,1065.08 1421.92,1063.76 1423.84,1062.49 1425.77,1061.26 1427.69,1060.07 1429.62,1058.94 1431.54,1057.85 1433.46,1056.81 1435.39,1055.81 1437.31,1054.87 1439.24,1053.98 1441.16,1053.13 1443.08,1052.34 1445.01,1051.59 1446.93,1050.9 1448.86,1050.26 1450.78,1049.68 1452.7,1049.14 1454.63,1048.64 1456.55,1048.19 1458.48,1047.78 1460.4,1047.41 1462.32,1047.09 1464.25,1046.81 1466.17,1046.57 1468.1,1046.39 1470.02,1046.24 1471.94,1046.15 1473.87,1046.1 1475.79,1046.1 1477.72,1046.14 1479.64,1046.24 1481.56,1046.38 1483.49,1046.57 1485.41,1046.81 1487.34,1047.1 1489.26,1047.44 1491.18,1047.82 1493.11,1048.25 1495.03,1048.72 1496.96,1049.23 1498.88,1049.79 1500.8,1050.39 1502.73,1051.03 1504.65,1051.72 1506.58,1052.45 1508.5,1053.22 1510.42,1054.04 1512.35,1054.91 1514.27,1055.82 1516.2,1056.78 1518.12,1057.78 1520.04,1058.83 1521.97,1059.93 1523.89,1061.08 1525.82,1062.27 1527.74,1063.51 1529.66,1064.79 1531.59,1066.1 1533.51,1067.44 1535.44,1068.8 1537.36,1070.19 1539.28,1071.61 1541.21,1073.05 1543.13,1074.53 1545.06,1076.03 1546.98,1077.56 1548.9,1079.12 1550.83,1080.71 1552.75,1082.33 1554.68,1083.98 1556.6,1085.65 1558.52,1087.36 1560.45,1089.09 1562.37,1090.86 1564.3,1092.65 1566.22,1094.48 1568.14,1096.33 1570.07,1098.19 1571.99,1100.07 1573.92,1101.96 1575.84,1103.87 1577.76,1105.79 1579.69,1107.73 1581.61,1109.69 1583.54,1111.66 1585.46,1113.65 1587.39,1115.65 1589.31,1117.67 1591.23,1119.7 1593.16,1121.75 1595.08,1123.81 1597.01,1125.89 1598.93,1127.98 1600.85,1130.09 1602.78,1132.22 1604.7,1134.36 1606.63,1136.5 1608.55,1138.64 1610.47,1140.78 1612.4,1142.91 1614.32,1145.04 1616.25,1147.16 1618.17,1149.28 1620.09,1151.39 1622.02,1153.49 1623.94,1155.59 1625.87,1157.68 1627.79,1159.77 1629.71,1161.85 1631.64,1163.92 1633.56,1165.99 1635.49,1168.05 1637.41,1170.1 1639.33,1172.14 1641.26,1174.18 1643.18,1176.21 1645.11,1178.23 1647.03,1180.23 1648.95,1182.21 1650.88,1184.17 1652.8,1186.12 1654.73,1188.05 1656.65,1189.97 1658.57,1191.86 1660.5,1193.74 1662.42,1195.59 1664.35,1197.43 1666.27,1199.25 1668.19,1201.05 1670.12,1202.82 1672.04,1204.58 1673.97,1206.32 1675.89,1208.04 1677.81,1209.73 1679.74,1211.41 1681.66,1213.06 1683.59,1214.68 1685.51,1216.28 1687.43,1217.84 1689.36,1219.37 1691.28,1220.86 1693.21,1222.32 1695.13,1223.75 1697.05,1225.15 1698.98,1226.51 1700.9,1227.83 1702.83,1229.12 1704.75,1230.37 1706.67,1231.59 1708.6,1232.77 1710.52,1233.91 1712.45,1235.02 1714.37,1236.09 1716.29,1237.12 1718.22,1238.11 1720.14,1239.07 1722.07,1239.98 1723.99,1240.86 1725.91,1241.71 1727.84,1242.53 1729.76,1243.3 1731.69,1244.05 1733.61,1244.75 1735.53,1245.42 1737.46,1246.06 1739.38,1246.66 1741.31,1247.22 1743.23,1247.74 1745.15,1248.22 1747.08,1248.67 1749,1249.08 1750.93,1249.44 1752.85,1249.77 1754.77,1250.06 1756.7,1250.31 1758.62,1250.52 1760.55,1250.69 1762.47,1250.82 1764.39,1250.91 1766.32,1250.96 1768.24,1250.97 1770.17,1250.94 1772.09,1250.87 1774.01,1250.77 1775.94,1250.62 1777.86,1250.42 1779.79,1250.19 1781.71,1249.92 1783.63,1249.6 1785.56,1249.24 1787.48,1248.83 1789.41,1248.39 1791.33,1247.9 1793.25,1247.36 1795.18,1246.78 1797.1,1246.15 1799.03,1245.49 1800.95,1244.8 1802.87,1244.09 1804.8,1243.34 1806.72,1242.57 1808.65,1241.77 1810.57,1240.93 1812.49,1240.08 1814.42,1239.19 1816.34,1238.27 1818.27,1237.32 1820.19,1236.34 1822.11,1235.33 1824.04,1234.29 1825.96,1233.23 1827.89,1232.13 1829.81,1230.99 1831.73,1229.83 1833.66,1228.64 1835.58,1227.41 1837.51,1226.16 1839.43,1224.89 1841.35,1223.59 1843.28,1222.27 1845.2,1220.92 1847.13,1219.55 1849.05,1218.16 1850.97,1216.75 1852.9,1215.31 1854.82,1213.85 1856.75,1212.36 1858.67,1210.85 1860.59,1209.32 1862.52,1207.76 1864.44,1206.18 1866.37,1204.57 1868.29,1202.93 1870.21,1201.27 1872.14,1199.59 1874.06,1197.88 1875.99,1196.16 1877.91,1194.43 1879.83,1192.7 1881.76,1190.97 1883.68,1189.24 1885.61,1187.5 1887.53,1185.76 1889.45,1184.02 1891.38,1182.28 1893.3,1180.53 1895.23,1178.78 1897.15,1177.03 1899.07,1175.28 1901,1173.53 1902.92,1171.77 1904.85,1170.01 1906.77,1168.25 1908.69,1166.49 1910.62,1164.72 1912.54,1162.95 1914.47,1161.19 1916.39,1159.42 1918.31,1157.66 1920.24,1155.91 1922.16,1154.16 1924.09,1152.42 1926.01,1150.68 1927.93,1148.94 1929.86,1147.21 1931.78,1145.49 1933.71,1143.77 1935.63,1142.06 1937.55,1140.35 1939.48,1138.64 1941.4,1136.94 1943.33,1135.25 1945.25,1133.56 1947.17,1131.88 1949.1,1130.2 1951.02,1128.53 1952.95,1126.87 1954.87,1125.24 1956.79,1123.64 1958.72,1122.06 1960.64,1120.51 1962.57,1118.99 1964.49,1117.49 1966.41,1116.02 1968.34,1114.58 1970.26,1113.16 1972.19,1111.78 1974.11,1110.42 1976.03,1109.09 1977.96,1107.79 1979.88,1106.51 1981.81,1105.27 1983.73,1104.06 1985.65,1102.87 1987.58,1101.71 1989.5,1100.59 1991.43,1099.49 1993.35,1098.42 1995.27,1097.38 1997.2,1096.36 1999.12,1095.38 2001.05,1094.42 2002.97,1093.48 2004.9,1092.58 2006.82,1091.71 2008.74,1090.86 2010.67,1090.04 2012.59,1089.25 2014.52,1088.49 2016.44,1087.76 2018.36,1087.06 2020.29,1086.39 2022.21,1085.75 2024.14,1085.14 2026.06,1084.56 2027.98,1084.01 2029.91,1083.49 2031.83,1083.02 2033.76,1082.59 2035.68,1082.2 2037.6,1081.86 2039.53,1081.56 2041.45,1081.3 2043.38,1081.08 2045.3,1080.91 2047.22,1080.78 2049.15,1080.69 2051.07,1080.65 2053,1080.66 2054.92,1080.71 2056.84,1080.8 2058.77,1080.94 2060.69,1081.13 2062.62,1081.36 2064.54,1081.64 2066.46,1081.96 2068.39,1082.33 2070.31,1082.73 2072.24,1083.16 2074.16,1083.63 2076.08,1084.12 2078.01,1084.66 2079.93,1085.22 2081.86,1085.82 2083.78,1086.46 2085.7,1087.13 2087.63,1087.83 2089.55,1088.57 2091.48,1089.35 2093.4,1090.16 2095.32,1091 2097.25,1091.88 2099.17,1092.8 2101.1,1093.75 2103.02,1094.74 2104.94,1095.77 2106.87,1096.83 2108.79,1097.93 2110.72,1099.07 2112.64,1100.25 2114.56,1101.46 2116.49,1102.72 2118.41,1104.01 2120.34,1105.34 2122.26,1106.71 2124.18,1108.12 2126.11,1109.56 2128.03,1111.05 2129.96,1112.58 2131.88,1114.15 2133.8,1115.76 2135.73,1117.4 2137.65,1119.09 2139.58,1120.82 2141.5,1122.59 2143.42,1124.41 2145.35,1126.25 2147.27,1128.11 2149.2,1130 2151.12,1131.9 2153.04,1133.83 2154.97,1135.77 2156.89,1137.73 2158.82,1139.72 2160.74,1141.72 2162.66,1143.75 2164.59,1145.8 2166.51,1147.87 2168.44,1149.95 2170.36,1152.06 2172.28,1154.19 2174.21,1156.35 2176.13,1158.52 2178.06,1160.71 2179.98,1162.93 2181.9,1165.16 2183.83,1167.42 2185.75,1169.69 2187.68,1171.99 2189.6,1174.3 2191.52,1176.63 2193.45,1178.97 2195.37,1181.34 2197.3,1183.73 2199.22,1186.13 2201.14,1188.55 2203.07,1190.99 2204.99,1193.45 2206.92,1195.93 2208.84,1198.42 2210.76,1200.94 2212.69,1203.47 2214.61,1206.03 2216.54,1208.6 2218.46,1211.19 2220.38,1213.8 2222.31,1216.42 2224.23,1219.03 2226.16,1221.64 2228.08,1224.25 2230,1226.86 2231.93,1229.46 2233.85,1232.05 2235.78,1234.65 2237.7,1237.23 2239.62,1239.82 2241.55,1242.4 2243.47,1244.98 2245.4,1247.55 2247.32,1250.11 2249.24,1252.68 2251.17,1255.24 2253.09,1257.79 2255.02,1260.34 2256.94,1262.88 2258.86,1265.42 2260.79,1267.95 2262.71,1270.48 2264.64,1273.01 2266.56,1275.52 2268.48,1278.04 2270.41,1280.54 2272.33,1283.04 2274.26,1285.54 2276.18,1288.03 2278.1,1290.52 2280.03,1292.99 2281.95,1295.47 2283.88,1297.93 2285.8,1300.39 2287.72,1302.85 2289.65,1305.29 2291.57,1307.73 2293.5,1310.17 2295.42,1312.6 2297.34,1315.02 "/>
<path clip-path="url(#clip120)" d="M1907.68 196.789 L2287.49 196.789 L2287.49 93.1086 L1907.68 93.1086  Z" fill="#ffffff" fill-rule="evenodd" fill-opacity="1"/>
<polyline clip-path="url(#clip120)" style="stroke:#000000; stroke-linecap:round; stroke-linejoin:round; stroke-width:4; stroke-opacity:1; fill:none" points="1907.68,196.789 2287.49,196.789 2287.49,93.1086 1907.68,93.1086 1907.68,196.789 "/>
<polyline clip-path="url(#clip120)" style="stroke:#009af9; stroke-linecap:round; stroke-linejoin:round; stroke-width:4; stroke-opacity:1; fill:none" points="1929.43,144.949 2059.96,144.949 "/>
<path clip-path="url(#clip120)" d="M2086.39 131.511 L2086.39 158.386 L2092.04 158.386 Q2099.19 158.386 2102.5 155.145 Q2105.83 151.905 2105.83 144.914 Q2105.83 137.969 2102.5 134.752 Q2099.19 131.511 2092.04 131.511 L2086.39 131.511 M2081.71 127.669 L2091.32 127.669 Q2101.37 127.669 2106.06 131.858 Q2110.76 136.025 2110.76 144.914 Q2110.76 153.849 2106.04 158.039 Q2101.32 162.229 2091.32 162.229 L2081.71 162.229 L2081.71 127.669 Z" fill="#000000" fill-rule="nonzero" fill-opacity="1" /><path clip-path="url(#clip120)" d="M2116.39 142.067 L2119.07 142.067 L2119.07 162.229 L2116.39 162.229 L2116.39 142.067 Z" fill="#000000" fill-rule="nonzero" fill-opacity="1" /><path clip-path="url(#clip120)" d="M2158.31 132.507 L2158.31 141.465 L2171.2 141.465 L2171.2 145.4 L2158.31 145.4 L2158.31 154.358 L2154.42 154.358 L2154.42 145.4 L2141.53 145.4 L2141.53 141.465 L2154.42 141.465 L2154.42 132.507 L2158.31 132.507 M2141.53 158.293 L2171.2 158.293 L2171.2 162.229 L2141.53 162.229 L2141.53 158.293 Z" fill="#000000" fill-rule="nonzero" fill-opacity="1" /><path clip-path="url(#clip120)" d="M2207.5 132.275 L2198.01 158.34 L2217.01 158.34 L2207.5 132.275 M2191.67 162.229 L2204.86 127.669 L2210.16 127.669 L2223.33 162.229 L2191.67 162.229 Z" fill="#000000" fill-rule="nonzero" fill-opacity="1" /><path clip-path="url(#clip120)" d="M2233.05 131.511 L2233.05 158.386 L2238.7 158.386 Q2245.86 158.386 2249.17 155.145 Q2252.5 151.905 2252.5 144.914 Q2252.5 137.969 2249.17 134.752 Q2245.86 131.511 2238.7 131.511 L2233.05 131.511 M2228.38 127.669 L2237.98 127.669 Q2248.03 127.669 2252.73 131.858 Q2257.43 136.025 2257.43 144.914 Q2257.43 153.849 2252.71 158.039 Q2247.98 162.229 2237.98 162.229 L2228.38 162.229 L2228.38 127.669 Z" fill="#000000" fill-rule="nonzero" fill-opacity="1" /><path clip-path="url(#clip120)" d="M2263.05 142.067 L2265.74 142.067 L2265.74 162.229 L2263.05 162.229 L2263.05 142.067 Z" fill="#000000" fill-rule="nonzero" fill-opacity="1" /></svg>
