<?xml version="1.0" encoding="utf-8"?>
<svg xmlns="http://www.w3.org/2000/svg" xmlns:xlink="http://www.w3.org/1999/xlink" width="800" height="400" viewBox="0 0 3200 1600">
<defs>
  <clipPath id="clip660">
    <rect x="0" y="0" width="3200" height="1600"/>
  </clipPath>
</defs>
<path clip-path="url(#clip660)" d="M0 1600 L3200 1600 L3200 0 L0 0  Z" fill="#ffffff" fill-rule="evenodd" fill-opacity="1"/>
<defs>
  <clipPath id="clip661">
    <rect x="365" y="47" width="2789" height="1449"/>
  </clipPath>
</defs>
<path clip-path="url(#clip660)" d="M365.106 1495.09 L3152.76 1495.09 L3152.76 47.2441 L365.106 47.2441  Z" fill="#ffffff" fill-rule="evenodd" fill-opacity="1"/>
<polyline clip-path="url(#clip661)" style="stroke:#000000; stroke-linecap:round; stroke-linejoin:round; stroke-width:2; stroke-opacity:0.1; fill:none" points="736.208,1495.09 736.208,47.2441 "/>
<polyline clip-path="url(#clip661)" style="stroke:#000000; stroke-linecap:round; stroke-linejoin:round; stroke-width:2; stroke-opacity:0.1; fill:none" points="1758.93,1495.09 1758.93,47.2441 "/>
<polyline clip-path="url(#clip661)" style="stroke:#000000; stroke-linecap:round; stroke-linejoin:round; stroke-width:2; stroke-opacity:0.1; fill:none" points="2781.65,1495.09 2781.65,47.2441 "/>
<polyline clip-path="url(#clip661)" style="stroke:#000000; stroke-linecap:round; stroke-linejoin:round; stroke-width:2; stroke-opacity:0.1; fill:none" points="365.106,1245.91 3152.76,1245.91 "/>
<polyline clip-path="url(#clip661)" style="stroke:#000000; stroke-linecap:round; stroke-linejoin:round; stroke-width:2; stroke-opacity:0.1; fill:none" points="365.106,969.487 3152.76,969.487 "/>
<polyline clip-path="url(#clip661)" style="stroke:#000000; stroke-linecap:round; stroke-linejoin:round; stroke-width:2; stroke-opacity:0.1; fill:none" points="365.106,693.068 3152.76,693.068 "/>
<polyline clip-path="url(#clip661)" style="stroke:#000000; stroke-linecap:round; stroke-linejoin:round; stroke-width:2; stroke-opacity:0.1; fill:none" points="365.106,416.65 3152.76,416.65 "/>
<polyline clip-path="url(#clip661)" style="stroke:#000000; stroke-linecap:round; stroke-linejoin:round; stroke-width:2; stroke-opacity:0.1; fill:none" points="365.106,140.231 3152.76,140.231 "/>
<polyline clip-path="url(#clip660)" style="stroke:#000000; stroke-linecap:round; stroke-linejoin:round; stroke-width:4; stroke-opacity:1; fill:none" points="365.106,1495.09 3152.76,1495.09 "/>
<polyline clip-path="url(#clip660)" style="stroke:#000000; stroke-linecap:round; stroke-linejoin:round; stroke-width:4; stroke-opacity:1; fill:none" points="736.208,1495.09 736.208,1476.19 "/>
<polyline clip-path="url(#clip660)" style="stroke:#000000; stroke-linecap:round; stroke-linejoin:round; stroke-width:4; stroke-opacity:1; fill:none" points="1758.93,1495.09 1758.93,1476.19 "/>
<polyline clip-path="url(#clip660)" style="stroke:#000000; stroke-linecap:round; stroke-linejoin:round; stroke-width:4; stroke-opacity:1; fill:none" points="2781.65,1495.09 2781.65,1476.19 "/>
<path clip-path="url(#clip660)" d="M652.169 1538.73 L652.169 1542.75 Q650.364 1541.83 648.419 1541.36 Q646.475 1540.9 644.391 1540.9 Q641.22 1540.9 639.623 1541.87 Q638.049 1542.85 638.049 1544.79 Q638.049 1546.27 639.183 1547.13 Q640.317 1547.96 643.743 1548.73 L645.202 1549.05 Q649.739 1550.02 651.637 1551.8 Q653.558 1553.56 653.558 1556.74 Q653.558 1560.35 650.688 1562.45 Q647.841 1564.56 642.841 1564.56 Q640.757 1564.56 638.489 1564.14 Q636.243 1563.75 633.743 1562.94 L633.743 1558.54 Q636.104 1559.77 638.396 1560.39 Q640.688 1560.99 642.933 1560.99 Q645.942 1560.99 647.563 1559.98 Q649.183 1558.93 649.183 1557.06 Q649.183 1555.32 648.003 1554.4 Q646.845 1553.47 642.887 1552.61 L641.405 1552.27 Q637.447 1551.43 635.688 1549.72 Q633.929 1547.99 633.929 1544.98 Q633.929 1541.32 636.521 1539.33 Q639.114 1537.34 643.882 1537.34 Q646.243 1537.34 648.327 1537.68 Q650.41 1538.03 652.169 1538.73 Z" fill="#000000" fill-rule="nonzero" fill-opacity="1" /><path clip-path="url(#clip660)" d="M671.127 1566.3 Q669.322 1570.92 667.609 1572.34 Q665.896 1573.75 663.026 1573.75 L659.623 1573.75 L659.623 1570.18 L662.123 1570.18 Q663.882 1570.18 664.854 1569.35 Q665.827 1568.52 667.007 1565.42 L667.771 1563.47 L657.285 1537.96 L661.799 1537.96 L669.901 1558.24 L678.002 1537.96 L682.516 1537.96 L671.127 1566.3 Z" fill="#000000" fill-rule="nonzero" fill-opacity="1" /><path clip-path="url(#clip660)" d="M708.581 1542.94 Q710.178 1540.07 712.4 1538.7 Q714.623 1537.34 717.632 1537.34 Q721.683 1537.34 723.882 1540.18 Q726.081 1543.01 726.081 1548.24 L726.081 1563.89 L721.798 1563.89 L721.798 1548.38 Q721.798 1544.65 720.479 1542.85 Q719.16 1541.04 716.451 1541.04 Q713.141 1541.04 711.22 1543.24 Q709.299 1545.44 709.299 1549.24 L709.299 1563.89 L705.016 1563.89 L705.016 1548.38 Q705.016 1544.63 703.697 1542.85 Q702.377 1541.04 699.623 1541.04 Q696.359 1541.04 694.437 1543.26 Q692.516 1545.46 692.516 1549.24 L692.516 1563.89 L688.234 1563.89 L688.234 1537.96 L692.516 1537.96 L692.516 1541.99 Q693.975 1539.61 696.012 1538.47 Q698.049 1537.34 700.849 1537.34 Q703.674 1537.34 705.641 1538.77 Q707.632 1540.21 708.581 1542.94 Z" fill="#000000" fill-rule="nonzero" fill-opacity="1" /><path clip-path="url(#clip660)" d="M753.187 1550.95 Q753.187 1546.25 751.243 1543.59 Q749.321 1540.9 745.942 1540.9 Q742.562 1540.9 740.618 1543.59 Q738.697 1546.25 738.697 1550.95 Q738.697 1555.65 740.618 1558.33 Q742.562 1560.99 745.942 1560.99 Q749.321 1560.99 751.243 1558.33 Q753.187 1555.65 753.187 1550.95 M738.697 1541.9 Q740.039 1539.58 742.076 1538.47 Q744.136 1537.34 746.984 1537.34 Q751.706 1537.34 754.646 1541.09 Q757.608 1544.84 757.608 1550.95 Q757.608 1557.06 754.646 1560.81 Q751.706 1564.56 746.984 1564.56 Q744.136 1564.56 742.076 1563.45 Q740.039 1562.31 738.697 1560 L738.697 1563.89 L734.414 1563.89 L734.414 1527.87 L738.697 1527.87 L738.697 1541.9 Z" fill="#000000" fill-rule="nonzero" fill-opacity="1" /><path clip-path="url(#clip660)" d="M774.715 1540.95 Q771.289 1540.95 769.298 1543.63 Q767.307 1546.3 767.307 1550.95 Q767.307 1555.6 769.275 1558.29 Q771.266 1560.95 774.715 1560.95 Q778.118 1560.95 780.108 1558.26 Q782.099 1555.58 782.099 1550.95 Q782.099 1546.34 780.108 1543.66 Q778.118 1540.95 774.715 1540.95 M774.715 1537.34 Q780.27 1537.34 783.442 1540.95 Q786.613 1544.56 786.613 1550.95 Q786.613 1557.31 783.442 1560.95 Q780.27 1564.56 774.715 1564.56 Q769.136 1564.56 765.965 1560.95 Q762.817 1557.31 762.817 1550.95 Q762.817 1544.56 765.965 1540.95 Q769.136 1537.34 774.715 1537.34 Z" fill="#000000" fill-rule="nonzero" fill-opacity="1" /><path clip-path="url(#clip660)" d="M793.673 1527.87 L797.932 1527.87 L797.932 1563.89 L793.673 1563.89 L793.673 1527.87 Z" fill="#000000" fill-rule="nonzero" fill-opacity="1" /><path clip-path="url(#clip660)" d="M806.844 1537.96 L811.104 1537.96 L811.104 1563.89 L806.844 1563.89 L806.844 1537.96 M806.844 1527.87 L811.104 1527.87 L811.104 1533.26 L806.844 1533.26 L806.844 1527.87 Z" fill="#000000" fill-rule="nonzero" fill-opacity="1" /><path clip-path="url(#clip660)" d="M838.673 1538.96 L838.673 1542.94 Q836.867 1541.94 835.039 1541.46 Q833.233 1540.95 831.381 1540.95 Q827.238 1540.95 824.946 1543.59 Q822.654 1546.2 822.654 1550.95 Q822.654 1555.69 824.946 1558.33 Q827.238 1560.95 831.381 1560.95 Q833.233 1560.95 835.039 1560.46 Q836.867 1559.95 838.673 1558.96 L838.673 1562.89 Q836.89 1563.73 834.969 1564.14 Q833.071 1564.56 830.918 1564.56 Q825.062 1564.56 821.613 1560.88 Q818.164 1557.2 818.164 1550.95 Q818.164 1544.61 821.636 1540.97 Q825.131 1537.34 831.196 1537.34 Q833.164 1537.34 835.039 1537.75 Q836.914 1538.15 838.673 1538.96 Z" fill="#000000" fill-rule="nonzero" fill-opacity="1" /><path clip-path="url(#clip660)" d="M1669.26 1527.87 L1669.26 1531.41 L1665.18 1531.41 Q1662.89 1531.41 1661.99 1532.34 Q1661.11 1533.26 1661.11 1535.67 L1661.11 1537.96 L1668.12 1537.96 L1668.12 1541.27 L1661.11 1541.27 L1661.11 1563.89 L1656.82 1563.89 L1656.82 1541.27 L1652.75 1541.27 L1652.75 1537.96 L1656.82 1537.96 L1656.82 1536.16 Q1656.82 1531.83 1658.84 1529.86 Q1660.85 1527.87 1665.23 1527.87 L1669.26 1527.87 Z" fill="#000000" fill-rule="nonzero" fill-opacity="1" /><path clip-path="url(#clip660)" d="M1672.82 1537.96 L1677.08 1537.96 L1677.08 1563.89 L1672.82 1563.89 L1672.82 1537.96 M1672.82 1527.87 L1677.08 1527.87 L1677.08 1533.26 L1672.82 1533.26 L1672.82 1527.87 Z" fill="#000000" fill-rule="nonzero" fill-opacity="1" /><path clip-path="url(#clip660)" d="M1707.54 1548.24 L1707.54 1563.89 L1703.28 1563.89 L1703.28 1548.38 Q1703.28 1544.7 1701.85 1542.87 Q1700.41 1541.04 1697.54 1541.04 Q1694.09 1541.04 1692.1 1543.24 Q1690.11 1545.44 1690.11 1549.24 L1690.11 1563.89 L1685.83 1563.89 L1685.83 1537.96 L1690.11 1537.96 L1690.11 1541.99 Q1691.64 1539.65 1693.7 1538.49 Q1695.78 1537.34 1698.49 1537.34 Q1702.96 1537.34 1705.25 1540.11 Q1707.54 1542.87 1707.54 1548.24 Z" fill="#000000" fill-rule="nonzero" fill-opacity="1" /><path clip-path="url(#clip660)" d="M1716.04 1537.96 L1720.3 1537.96 L1720.3 1563.89 L1716.04 1563.89 L1716.04 1537.96 M1716.04 1527.87 L1720.3 1527.87 L1720.3 1533.26 L1716.04 1533.26 L1716.04 1527.87 Z" fill="#000000" fill-rule="nonzero" fill-opacity="1" /><path clip-path="url(#clip660)" d="M1733.42 1530.6 L1733.42 1537.96 L1742.19 1537.96 L1742.19 1541.27 L1733.42 1541.27 L1733.42 1555.35 Q1733.42 1558.52 1734.28 1559.42 Q1735.16 1560.32 1737.82 1560.32 L1742.19 1560.32 L1742.19 1563.89 L1737.82 1563.89 Q1732.89 1563.89 1731.01 1562.06 Q1729.14 1560.21 1729.14 1555.35 L1729.14 1541.27 L1726.01 1541.27 L1726.01 1537.96 L1729.14 1537.96 L1729.14 1530.6 L1733.42 1530.6 Z" fill="#000000" fill-rule="nonzero" fill-opacity="1" /><path clip-path="url(#clip660)" d="M1769.97 1549.86 L1769.97 1551.94 L1750.39 1551.94 Q1750.67 1556.34 1753.03 1558.66 Q1755.41 1560.95 1759.65 1560.95 Q1762.1 1560.95 1764.39 1560.35 Q1766.71 1559.74 1768.98 1558.54 L1768.98 1562.57 Q1766.69 1563.54 1764.28 1564.05 Q1761.87 1564.56 1759.39 1564.56 Q1753.19 1564.56 1749.56 1560.95 Q1745.94 1557.34 1745.94 1551.18 Q1745.94 1544.81 1749.37 1541.09 Q1752.82 1537.34 1758.65 1537.34 Q1763.88 1537.34 1766.92 1540.72 Q1769.97 1544.07 1769.97 1549.86 M1765.71 1548.61 Q1765.67 1545.11 1763.75 1543.03 Q1761.85 1540.95 1758.7 1540.95 Q1755.13 1540.95 1752.98 1542.96 Q1750.85 1544.98 1750.53 1548.63 L1765.71 1548.61 Z" fill="#000000" fill-rule="nonzero" fill-opacity="1" /><path clip-path="url(#clip660)" d="M1809.09 1541.9 L1809.09 1527.87 L1813.35 1527.87 L1813.35 1563.89 L1809.09 1563.89 L1809.09 1560 Q1807.75 1562.31 1805.69 1563.45 Q1803.65 1564.56 1800.78 1564.56 Q1796.08 1564.56 1793.12 1560.81 Q1790.18 1557.06 1790.18 1550.95 Q1790.18 1544.84 1793.12 1541.09 Q1796.08 1537.34 1800.78 1537.34 Q1803.65 1537.34 1805.69 1538.47 Q1807.75 1539.58 1809.09 1541.9 M1794.58 1550.95 Q1794.58 1555.65 1796.5 1558.33 Q1798.44 1560.99 1801.82 1560.99 Q1805.2 1560.99 1807.15 1558.33 Q1809.09 1555.65 1809.09 1550.95 Q1809.09 1546.25 1807.15 1543.59 Q1805.2 1540.9 1801.82 1540.9 Q1798.44 1540.9 1796.5 1543.59 Q1794.58 1546.25 1794.58 1550.95 Z" fill="#000000" fill-rule="nonzero" fill-opacity="1" /><path clip-path="url(#clip660)" d="M1822.12 1537.96 L1826.38 1537.96 L1826.38 1563.89 L1822.12 1563.89 L1822.12 1537.96 M1822.12 1527.87 L1826.38 1527.87 L1826.38 1533.26 L1822.12 1533.26 L1822.12 1527.87 Z" fill="#000000" fill-rule="nonzero" fill-opacity="1" /><path clip-path="url(#clip660)" d="M1848.42 1527.87 L1848.42 1531.41 L1844.35 1531.41 Q1842.06 1531.41 1841.15 1532.34 Q1840.27 1533.26 1840.27 1535.67 L1840.27 1537.96 L1847.29 1537.96 L1847.29 1541.27 L1840.27 1541.27 L1840.27 1563.89 L1835.99 1563.89 L1835.99 1541.27 L1831.92 1541.27 L1831.92 1537.96 L1835.99 1537.96 L1835.99 1536.16 Q1835.99 1531.83 1838 1529.86 Q1840.02 1527.87 1844.39 1527.87 L1848.42 1527.87 Z" fill="#000000" fill-rule="nonzero" fill-opacity="1" /><path clip-path="url(#clip660)" d="M1865.11 1527.87 L1865.11 1531.41 L1861.04 1531.41 Q1858.75 1531.41 1857.84 1532.34 Q1856.96 1533.26 1856.96 1535.67 L1856.96 1537.96 L1863.98 1537.96 L1863.98 1541.27 L1856.96 1541.27 L1856.96 1563.89 L1852.68 1563.89 L1852.68 1541.27 L1848.61 1541.27 L1848.61 1537.96 L1852.68 1537.96 L1852.68 1536.16 Q1852.68 1531.83 1854.69 1529.86 Q1856.71 1527.87 1861.08 1527.87 L1865.11 1527.87 Z" fill="#000000" fill-rule="nonzero" fill-opacity="1" /><path clip-path="url(#clip660)" d="M2661.52 1527.87 L2661.52 1531.41 L2657.44 1531.41 Q2655.15 1531.41 2654.25 1532.34 Q2653.37 1533.26 2653.37 1535.67 L2653.37 1537.96 L2660.38 1537.96 L2660.38 1541.27 L2653.37 1541.27 L2653.37 1563.89 L2649.08 1563.89 L2649.08 1541.27 L2645.01 1541.27 L2645.01 1537.96 L2649.08 1537.96 L2649.08 1536.16 Q2649.08 1531.83 2651.1 1529.86 Q2653.11 1527.87 2657.49 1527.87 L2661.52 1527.87 Z" fill="#000000" fill-rule="nonzero" fill-opacity="1" /><path clip-path="url(#clip660)" d="M2675.13 1540.95 Q2671.7 1540.95 2669.71 1543.63 Q2667.72 1546.3 2667.72 1550.95 Q2667.72 1555.6 2669.69 1558.29 Q2671.68 1560.95 2675.13 1560.95 Q2678.53 1560.95 2680.52 1558.26 Q2682.51 1555.58 2682.51 1550.95 Q2682.51 1546.34 2680.52 1543.66 Q2678.53 1540.95 2675.13 1540.95 M2675.13 1537.34 Q2680.68 1537.34 2683.85 1540.95 Q2687.02 1544.56 2687.02 1550.95 Q2687.02 1557.31 2683.85 1560.95 Q2680.68 1564.56 2675.13 1564.56 Q2669.55 1564.56 2666.38 1560.95 Q2663.23 1557.31 2663.23 1550.95 Q2663.23 1544.56 2666.38 1540.95 Q2669.55 1537.34 2675.13 1537.34 Z" fill="#000000" fill-rule="nonzero" fill-opacity="1" /><path clip-path="url(#clip660)" d="M2709.11 1541.94 Q2708.39 1541.53 2707.53 1541.34 Q2706.7 1541.13 2705.68 1541.13 Q2702.07 1541.13 2700.13 1543.49 Q2698.21 1545.83 2698.21 1550.23 L2698.21 1563.89 L2693.92 1563.89 L2693.92 1537.96 L2698.21 1537.96 L2698.21 1541.99 Q2699.55 1539.63 2701.7 1538.49 Q2703.85 1537.34 2706.93 1537.34 Q2707.37 1537.34 2707.9 1537.41 Q2708.44 1537.45 2709.08 1537.57 L2709.11 1541.94 Z" fill="#000000" fill-rule="nonzero" fill-opacity="1" /><path clip-path="url(#clip660)" d="M2711.1 1537.96 L2715.36 1537.96 L2720.68 1558.19 L2725.98 1537.96 L2731.01 1537.96 L2736.33 1558.19 L2741.63 1537.96 L2745.89 1537.96 L2739.11 1563.89 L2734.08 1563.89 L2728.51 1542.64 L2722.9 1563.89 L2717.88 1563.89 L2711.1 1537.96 Z" fill="#000000" fill-rule="nonzero" fill-opacity="1" /><path clip-path="url(#clip660)" d="M2764.13 1550.86 Q2758.97 1550.86 2756.98 1552.04 Q2754.99 1553.22 2754.99 1556.06 Q2754.99 1558.33 2756.47 1559.67 Q2757.97 1560.99 2760.54 1560.99 Q2764.08 1560.99 2766.21 1558.49 Q2768.37 1555.97 2768.37 1551.8 L2768.37 1550.86 L2764.13 1550.86 M2772.63 1549.1 L2772.63 1563.89 L2768.37 1563.89 L2768.37 1559.95 Q2766.91 1562.31 2764.73 1563.45 Q2762.56 1564.56 2759.41 1564.56 Q2755.43 1564.56 2753.07 1562.34 Q2750.73 1560.09 2750.73 1556.34 Q2750.73 1551.97 2753.64 1549.74 Q2756.58 1547.52 2762.39 1547.52 L2768.37 1547.52 L2768.37 1547.11 Q2768.37 1544.17 2766.42 1542.57 Q2764.5 1540.95 2761.01 1540.95 Q2758.78 1540.95 2756.68 1541.48 Q2754.57 1542.01 2752.63 1543.08 L2752.63 1539.14 Q2754.96 1538.24 2757.16 1537.8 Q2759.36 1537.34 2761.45 1537.34 Q2767.07 1537.34 2769.85 1540.25 Q2772.63 1543.17 2772.63 1549.1 Z" fill="#000000" fill-rule="nonzero" fill-opacity="1" /><path clip-path="url(#clip660)" d="M2796.42 1541.94 Q2795.7 1541.53 2794.85 1541.34 Q2794.01 1541.13 2793 1541.13 Q2789.39 1541.13 2787.44 1543.49 Q2785.52 1545.83 2785.52 1550.23 L2785.52 1563.89 L2781.24 1563.89 L2781.24 1537.96 L2785.52 1537.96 L2785.52 1541.99 Q2786.86 1539.63 2789.01 1538.49 Q2791.17 1537.34 2794.25 1537.34 Q2794.69 1537.34 2795.22 1537.41 Q2795.75 1537.45 2796.4 1537.57 L2796.42 1541.94 Z" fill="#000000" fill-rule="nonzero" fill-opacity="1" /><path clip-path="url(#clip660)" d="M2817.12 1541.9 L2817.12 1527.87 L2821.38 1527.87 L2821.38 1563.89 L2817.12 1563.89 L2817.12 1560 Q2815.77 1562.31 2813.71 1563.45 Q2811.68 1564.56 2808.81 1564.56 Q2804.11 1564.56 2801.14 1560.81 Q2798.2 1557.06 2798.2 1550.95 Q2798.2 1544.84 2801.14 1541.09 Q2804.11 1537.34 2808.81 1537.34 Q2811.68 1537.34 2813.71 1538.47 Q2815.77 1539.58 2817.12 1541.9 M2802.6 1550.95 Q2802.6 1555.65 2804.52 1558.33 Q2806.47 1560.99 2809.85 1560.99 Q2813.23 1560.99 2815.17 1558.33 Q2817.12 1555.65 2817.12 1550.95 Q2817.12 1546.25 2815.17 1543.59 Q2813.23 1540.9 2809.85 1540.9 Q2806.47 1540.9 2804.52 1543.59 Q2802.6 1546.25 2802.6 1550.95 Z" fill="#000000" fill-rule="nonzero" fill-opacity="1" /><path clip-path="url(#clip660)" d="M2862.28 1541.9 L2862.28 1527.87 L2866.54 1527.87 L2866.54 1563.89 L2862.28 1563.89 L2862.28 1560 Q2860.94 1562.31 2858.88 1563.45 Q2856.84 1564.56 2853.97 1564.56 Q2849.27 1564.56 2846.31 1560.81 Q2843.37 1557.06 2843.37 1550.95 Q2843.37 1544.84 2846.31 1541.09 Q2849.27 1537.34 2853.97 1537.34 Q2856.84 1537.34 2858.88 1538.47 Q2860.94 1539.58 2862.28 1541.9 M2847.76 1550.95 Q2847.76 1555.65 2849.69 1558.33 Q2851.63 1560.99 2855.01 1560.99 Q2858.39 1560.99 2860.33 1558.33 Q2862.28 1555.65 2862.28 1550.95 Q2862.28 1546.25 2860.33 1543.59 Q2858.39 1540.9 2855.01 1540.9 Q2851.63 1540.9 2849.69 1543.59 Q2847.76 1546.25 2847.76 1550.95 Z" fill="#000000" fill-rule="nonzero" fill-opacity="1" /><path clip-path="url(#clip660)" d="M2875.31 1537.96 L2879.57 1537.96 L2879.57 1563.89 L2875.31 1563.89 L2875.31 1537.96 M2875.31 1527.87 L2879.57 1527.87 L2879.57 1533.26 L2875.31 1533.26 L2875.31 1527.87 Z" fill="#000000" fill-rule="nonzero" fill-opacity="1" /><path clip-path="url(#clip660)" d="M2901.61 1527.87 L2901.61 1531.41 L2897.53 1531.41 Q2895.24 1531.41 2894.34 1532.34 Q2893.46 1533.26 2893.46 1535.67 L2893.46 1537.96 L2900.47 1537.96 L2900.47 1541.27 L2893.46 1541.27 L2893.46 1563.89 L2889.18 1563.89 L2889.18 1541.27 L2885.1 1541.27 L2885.1 1537.96 L2889.18 1537.96 L2889.18 1536.16 Q2889.18 1531.83 2891.19 1529.86 Q2893.2 1527.87 2897.58 1527.87 L2901.61 1527.87 Z" fill="#000000" fill-rule="nonzero" fill-opacity="1" /><path clip-path="url(#clip660)" d="M2918.3 1527.87 L2918.3 1531.41 L2914.22 1531.41 Q2911.93 1531.41 2911.03 1532.34 Q2910.15 1533.26 2910.15 1535.67 L2910.15 1537.96 L2917.16 1537.96 L2917.16 1541.27 L2910.15 1541.27 L2910.15 1563.89 L2905.87 1563.89 L2905.87 1541.27 L2901.79 1541.27 L2901.79 1537.96 L2905.87 1537.96 L2905.87 1536.16 Q2905.87 1531.83 2907.88 1529.86 Q2909.89 1527.87 2914.27 1527.87 L2918.3 1527.87 Z" fill="#000000" fill-rule="nonzero" fill-opacity="1" /><polyline clip-path="url(#clip660)" style="stroke:#000000; stroke-linecap:round; stroke-linejoin:round; stroke-width:4; stroke-opacity:1; fill:none" points="365.106,1495.09 365.106,47.2441 "/>
<polyline clip-path="url(#clip660)" style="stroke:#000000; stroke-linecap:round; stroke-linejoin:round; stroke-width:4; stroke-opacity:1; fill:none" points="365.106,1245.91 384.003,1245.91 "/>
<polyline clip-path="url(#clip660)" style="stroke:#000000; stroke-linecap:round; stroke-linejoin:round; stroke-width:4; stroke-opacity:1; fill:none" points="365.106,969.487 384.003,969.487 "/>
<polyline clip-path="url(#clip660)" style="stroke:#000000; stroke-linecap:round; stroke-linejoin:round; stroke-width:4; stroke-opacity:1; fill:none" points="365.106,693.068 384.003,693.068 "/>
<polyline clip-path="url(#clip660)" style="stroke:#000000; stroke-linecap:round; stroke-linejoin:round; stroke-width:4; stroke-opacity:1; fill:none" points="365.106,416.65 384.003,416.65 "/>
<polyline clip-path="url(#clip660)" style="stroke:#000000; stroke-linecap:round; stroke-linejoin:round; stroke-width:4; stroke-opacity:1; fill:none" points="365.106,140.231 384.003,140.231 "/>
<path clip-path="url(#clip660)" d="M99.2829 1235.07 L121.505 1235.07 L121.505 1237.06 L108.959 1269.63 L104.075 1269.63 L115.88 1239.01 L99.2829 1239.01 L99.2829 1235.07 Z" fill="#000000" fill-rule="nonzero" fill-opacity="1" /><path clip-path="url(#clip660)" d="M130.625 1263.75 L135.51 1263.75 L135.51 1269.63 L130.625 1269.63 L130.625 1263.75 Z" fill="#000000" fill-rule="nonzero" fill-opacity="1" /><path clip-path="url(#clip660)" d="M145.741 1235.07 L164.097 1235.07 L164.097 1239.01 L150.023 1239.01 L150.023 1247.48 Q151.042 1247.13 152.06 1246.97 Q153.079 1246.79 154.097 1246.79 Q159.884 1246.79 163.264 1249.96 Q166.644 1253.13 166.644 1258.55 Q166.644 1264.12 163.171 1267.23 Q159.699 1270.3 153.38 1270.3 Q151.204 1270.3 148.935 1269.93 Q146.69 1269.56 144.283 1268.82 L144.283 1264.12 Q146.366 1265.26 148.588 1265.81 Q150.81 1266.37 153.287 1266.37 Q157.292 1266.37 159.63 1264.26 Q161.968 1262.16 161.968 1258.55 Q161.968 1254.93 159.63 1252.83 Q157.292 1250.72 153.287 1250.72 Q151.412 1250.72 149.537 1251.14 Q147.685 1251.55 145.741 1252.43 L145.741 1235.07 Z" fill="#000000" fill-rule="nonzero" fill-opacity="1" /><path clip-path="url(#clip660)" d="M185.857 1238.15 Q182.245 1238.15 180.417 1241.72 Q178.611 1245.26 178.611 1252.39 Q178.611 1259.49 180.417 1263.06 Q182.245 1266.6 185.857 1266.6 Q189.491 1266.6 191.296 1263.06 Q193.125 1259.49 193.125 1252.39 Q193.125 1245.26 191.296 1241.72 Q189.491 1238.15 185.857 1238.15 M185.857 1234.45 Q191.667 1234.45 194.722 1239.05 Q197.801 1243.64 197.801 1252.39 Q197.801 1261.11 194.722 1265.72 Q191.667 1270.3 185.857 1270.3 Q180.046 1270.3 176.968 1265.72 Q173.912 1261.11 173.912 1252.39 Q173.912 1243.64 176.968 1239.05 Q180.046 1234.45 185.857 1234.45 Z" fill="#000000" fill-rule="nonzero" fill-opacity="1" /><path clip-path="url(#clip660)" d="M234.19 1244.17 L223.611 1254.8 L234.19 1265.37 L231.435 1268.18 L220.81 1257.55 L210.185 1268.18 L207.454 1265.37 L218.009 1254.8 L207.454 1244.17 L210.185 1241.37 L220.81 1251.99 L231.435 1241.37 L234.19 1244.17 Z" fill="#000000" fill-rule="nonzero" fill-opacity="1" /><path clip-path="url(#clip660)" d="M246.551 1265.7 L254.19 1265.7 L254.19 1239.33 L245.879 1241 L245.879 1236.74 L254.143 1235.07 L258.819 1235.07 L258.819 1265.7 L266.458 1265.7 L266.458 1269.63 L246.551 1269.63 L246.551 1265.7 Z" fill="#000000" fill-rule="nonzero" fill-opacity="1" /><path clip-path="url(#clip660)" d="M285.902 1238.15 Q282.291 1238.15 280.463 1241.72 Q278.657 1245.26 278.657 1252.39 Q278.657 1259.49 280.463 1263.06 Q282.291 1266.6 285.902 1266.6 Q289.537 1266.6 291.342 1263.06 Q293.171 1259.49 293.171 1252.39 Q293.171 1245.26 291.342 1241.72 Q289.537 1238.15 285.902 1238.15 M285.902 1234.45 Q291.712 1234.45 294.768 1239.05 Q297.847 1243.64 297.847 1252.39 Q297.847 1261.11 294.768 1265.72 Q291.712 1270.3 285.902 1270.3 Q280.092 1270.3 277.013 1265.72 Q273.958 1261.11 273.958 1252.39 Q273.958 1243.64 277.013 1239.05 Q280.092 1234.45 285.902 1234.45 Z" fill="#000000" fill-rule="nonzero" fill-opacity="1" /><path clip-path="url(#clip660)" d="M307.476 1228.89 Q304.768 1228.89 303.207 1230.34 Q301.665 1231.78 301.665 1234.32 Q301.665 1236.86 303.207 1238.31 Q304.768 1239.76 307.476 1239.76 Q310.185 1239.76 311.746 1238.31 Q313.307 1236.84 313.307 1234.32 Q313.307 1231.78 311.746 1230.34 Q310.203 1228.89 307.476 1228.89 M303.677 1227.27 Q301.232 1226.67 299.859 1225 Q298.505 1223.32 298.505 1220.91 Q298.505 1217.55 300.894 1215.59 Q303.301 1213.64 307.476 1213.64 Q311.67 1213.64 314.059 1215.59 Q316.448 1217.55 316.448 1220.91 Q316.448 1223.32 315.075 1225 Q313.72 1226.67 311.294 1227.27 Q314.04 1227.91 315.564 1229.77 Q317.106 1231.63 317.106 1234.32 Q317.106 1238.41 314.604 1240.59 Q312.122 1242.77 307.476 1242.77 Q302.831 1242.77 300.329 1240.59 Q297.847 1238.41 297.847 1234.32 Q297.847 1231.63 299.389 1229.77 Q300.931 1227.91 303.677 1227.27 M302.285 1221.27 Q302.285 1223.45 303.639 1224.68 Q305.012 1225.9 307.476 1225.9 Q309.921 1225.9 311.294 1224.68 Q312.686 1223.45 312.686 1221.27 Q312.686 1219.09 311.294 1217.87 Q309.921 1216.64 307.476 1216.64 Q305.012 1216.64 303.639 1217.87 Q302.285 1219.09 302.285 1221.27 Z" fill="#000000" fill-rule="nonzero" fill-opacity="1" /><path clip-path="url(#clip660)" d="M110.463 976.803 Q107.13 976.803 105.209 978.585 Q103.311 980.368 103.311 983.493 Q103.311 986.618 105.209 988.4 Q107.13 990.182 110.463 990.182 Q113.797 990.182 115.718 988.4 Q117.639 986.594 117.639 983.493 Q117.639 980.368 115.718 978.585 Q113.82 976.803 110.463 976.803 M105.788 974.812 Q102.778 974.071 101.088 972.011 Q99.4218 969.951 99.4218 966.988 Q99.4218 962.845 102.362 960.437 Q105.325 958.03 110.463 958.03 Q115.625 958.03 118.565 960.437 Q121.505 962.845 121.505 966.988 Q121.505 969.951 119.815 972.011 Q118.149 974.071 115.162 974.812 Q118.542 975.599 120.417 977.891 Q122.315 980.182 122.315 983.493 Q122.315 988.516 119.237 991.201 Q116.181 993.886 110.463 993.886 Q104.746 993.886 101.667 991.201 Q98.6116 988.516 98.6116 983.493 Q98.6116 980.182 100.51 977.891 Q102.408 975.599 105.788 974.812 M104.075 967.428 Q104.075 970.113 105.741 971.618 Q107.431 973.122 110.463 973.122 Q113.473 973.122 115.162 971.618 Q116.875 970.113 116.875 967.428 Q116.875 964.743 115.162 963.238 Q113.473 961.733 110.463 961.733 Q107.431 961.733 105.741 963.238 Q104.075 964.743 104.075 967.428 Z" fill="#000000" fill-rule="nonzero" fill-opacity="1" /><path clip-path="url(#clip660)" d="M130.625 987.335 L135.51 987.335 L135.51 993.215 L130.625 993.215 L130.625 987.335 Z" fill="#000000" fill-rule="nonzero" fill-opacity="1" /><path clip-path="url(#clip660)" d="M155.695 961.733 Q152.084 961.733 150.255 965.298 Q148.449 968.84 148.449 975.969 Q148.449 983.076 150.255 986.641 Q152.084 990.182 155.695 990.182 Q159.329 990.182 161.134 986.641 Q162.963 983.076 162.963 975.969 Q162.963 968.84 161.134 965.298 Q159.329 961.733 155.695 961.733 M155.695 958.03 Q161.505 958.03 164.56 962.636 Q167.639 967.219 167.639 975.969 Q167.639 984.696 164.56 989.303 Q161.505 993.886 155.695 993.886 Q149.885 993.886 146.806 989.303 Q143.75 984.696 143.75 975.969 Q143.75 967.219 146.806 962.636 Q149.885 958.03 155.695 958.03 Z" fill="#000000" fill-rule="nonzero" fill-opacity="1" /><path clip-path="url(#clip660)" d="M185.857 961.733 Q182.245 961.733 180.417 965.298 Q178.611 968.84 178.611 975.969 Q178.611 983.076 180.417 986.641 Q182.245 990.182 185.857 990.182 Q189.491 990.182 191.296 986.641 Q193.125 983.076 193.125 975.969 Q193.125 968.84 191.296 965.298 Q189.491 961.733 185.857 961.733 M185.857 958.03 Q191.667 958.03 194.722 962.636 Q197.801 967.219 197.801 975.969 Q197.801 984.696 194.722 989.303 Q191.667 993.886 185.857 993.886 Q180.046 993.886 176.968 989.303 Q173.912 984.696 173.912 975.969 Q173.912 967.219 176.968 962.636 Q180.046 958.03 185.857 958.03 Z" fill="#000000" fill-rule="nonzero" fill-opacity="1" /><path clip-path="url(#clip660)" d="M234.19 967.752 L223.611 978.377 L234.19 988.955 L231.435 991.756 L220.81 981.131 L210.185 991.756 L207.454 988.955 L218.009 978.377 L207.454 967.752 L210.185 964.951 L220.81 975.576 L231.435 964.951 L234.19 967.752 Z" fill="#000000" fill-rule="nonzero" fill-opacity="1" /><path clip-path="url(#clip660)" d="M246.551 989.28 L254.19 989.28 L254.19 962.914 L245.879 964.581 L245.879 960.321 L254.143 958.655 L258.819 958.655 L258.819 989.28 L266.458 989.28 L266.458 993.215 L246.551 993.215 L246.551 989.28 Z" fill="#000000" fill-rule="nonzero" fill-opacity="1" /><path clip-path="url(#clip660)" d="M285.902 961.733 Q282.291 961.733 280.463 965.298 Q278.657 968.84 278.657 975.969 Q278.657 983.076 280.463 986.641 Q282.291 990.182 285.902 990.182 Q289.537 990.182 291.342 986.641 Q293.171 983.076 293.171 975.969 Q293.171 968.84 291.342 965.298 Q289.537 961.733 285.902 961.733 M285.902 958.03 Q291.712 958.03 294.768 962.636 Q297.847 967.219 297.847 975.969 Q297.847 984.696 294.768 989.303 Q291.712 993.886 285.902 993.886 Q280.092 993.886 277.013 989.303 Q273.958 984.696 273.958 975.969 Q273.958 967.219 277.013 962.636 Q280.092 958.03 285.902 958.03 Z" fill="#000000" fill-rule="nonzero" fill-opacity="1" /><path clip-path="url(#clip660)" d="M307.476 952.47 Q304.768 952.47 303.207 953.918 Q301.665 955.366 301.665 957.905 Q301.665 960.444 303.207 961.892 Q304.768 963.341 307.476 963.341 Q310.185 963.341 311.746 961.892 Q313.307 960.425 313.307 957.905 Q313.307 955.366 311.746 953.918 Q310.203 952.47 307.476 952.47 M303.677 950.852 Q301.232 950.25 299.859 948.576 Q298.505 946.903 298.505 944.495 Q298.505 941.129 300.894 939.173 Q303.301 937.217 307.476 937.217 Q311.67 937.217 314.059 939.173 Q316.448 941.129 316.448 944.495 Q316.448 946.903 315.075 948.576 Q313.72 950.25 311.294 950.852 Q314.04 951.492 315.564 953.354 Q317.106 955.216 317.106 957.905 Q317.106 961.986 314.604 964.168 Q312.122 966.35 307.476 966.35 Q302.831 966.35 300.329 964.168 Q297.847 961.986 297.847 957.905 Q297.847 955.216 299.389 953.354 Q300.931 951.492 303.677 950.852 M302.285 944.852 Q302.285 947.034 303.639 948.257 Q305.012 949.479 307.476 949.479 Q309.921 949.479 311.294 948.257 Q312.686 947.034 312.686 944.852 Q312.686 942.671 311.294 941.448 Q309.921 940.226 307.476 940.226 Q305.012 940.226 303.639 941.448 Q302.285 942.671 302.285 944.852 Z" fill="#000000" fill-rule="nonzero" fill-opacity="1" /><path clip-path="url(#clip660)" d="M110.463 700.384 Q107.13 700.384 105.209 702.167 Q103.311 703.949 103.311 707.074 Q103.311 710.199 105.209 711.981 Q107.13 713.764 110.463 713.764 Q113.797 713.764 115.718 711.981 Q117.639 710.176 117.639 707.074 Q117.639 703.949 115.718 702.167 Q113.82 700.384 110.463 700.384 M105.788 698.393 Q102.778 697.653 101.088 695.592 Q99.4218 693.532 99.4218 690.569 Q99.4218 686.426 102.362 684.018 Q105.325 681.611 110.463 681.611 Q115.625 681.611 118.565 684.018 Q121.505 686.426 121.505 690.569 Q121.505 693.532 119.815 695.592 Q118.149 697.653 115.162 698.393 Q118.542 699.18 120.417 701.472 Q122.315 703.764 122.315 707.074 Q122.315 712.097 119.237 714.782 Q116.181 717.467 110.463 717.467 Q104.746 717.467 101.667 714.782 Q98.6116 712.097 98.6116 707.074 Q98.6116 703.764 100.51 701.472 Q102.408 699.18 105.788 698.393 M104.075 691.009 Q104.075 693.694 105.741 695.199 Q107.431 696.704 110.463 696.704 Q113.473 696.704 115.162 695.199 Q116.875 693.694 116.875 691.009 Q116.875 688.324 115.162 686.819 Q113.473 685.315 110.463 685.315 Q107.431 685.315 105.741 686.819 Q104.075 688.324 104.075 691.009 Z" fill="#000000" fill-rule="nonzero" fill-opacity="1" /><path clip-path="url(#clip660)" d="M130.625 710.916 L135.51 710.916 L135.51 716.796 L130.625 716.796 L130.625 710.916 Z" fill="#000000" fill-rule="nonzero" fill-opacity="1" /><path clip-path="url(#clip660)" d="M145.741 682.236 L164.097 682.236 L164.097 686.171 L150.023 686.171 L150.023 694.643 Q151.042 694.296 152.06 694.134 Q153.079 693.949 154.097 693.949 Q159.884 693.949 163.264 697.12 Q166.644 700.292 166.644 705.708 Q166.644 711.287 163.171 714.389 Q159.699 717.467 153.38 717.467 Q151.204 717.467 148.935 717.097 Q146.69 716.727 144.283 715.986 L144.283 711.287 Q146.366 712.421 148.588 712.977 Q150.81 713.532 153.287 713.532 Q157.292 713.532 159.63 711.426 Q161.968 709.319 161.968 705.708 Q161.968 702.097 159.63 699.991 Q157.292 697.884 153.287 697.884 Q151.412 697.884 149.537 698.301 Q147.685 698.717 145.741 699.597 L145.741 682.236 Z" fill="#000000" fill-rule="nonzero" fill-opacity="1" /><path clip-path="url(#clip660)" d="M185.857 685.315 Q182.245 685.315 180.417 688.88 Q178.611 692.421 178.611 699.551 Q178.611 706.657 180.417 710.222 Q182.245 713.764 185.857 713.764 Q189.491 713.764 191.296 710.222 Q193.125 706.657 193.125 699.551 Q193.125 692.421 191.296 688.88 Q189.491 685.315 185.857 685.315 M185.857 681.611 Q191.667 681.611 194.722 686.218 Q197.801 690.801 197.801 699.551 Q197.801 708.278 194.722 712.884 Q191.667 717.467 185.857 717.467 Q180.046 717.467 176.968 712.884 Q173.912 708.278 173.912 699.551 Q173.912 690.801 176.968 686.218 Q180.046 681.611 185.857 681.611 Z" fill="#000000" fill-rule="nonzero" fill-opacity="1" /><path clip-path="url(#clip660)" d="M234.19 691.333 L223.611 701.958 L234.19 712.537 L231.435 715.338 L220.81 704.713 L210.185 715.338 L207.454 712.537 L218.009 701.958 L207.454 691.333 L210.185 688.532 L220.81 699.157 L231.435 688.532 L234.19 691.333 Z" fill="#000000" fill-rule="nonzero" fill-opacity="1" /><path clip-path="url(#clip660)" d="M246.551 712.861 L254.19 712.861 L254.19 686.495 L245.879 688.162 L245.879 683.903 L254.143 682.236 L258.819 682.236 L258.819 712.861 L266.458 712.861 L266.458 716.796 L246.551 716.796 L246.551 712.861 Z" fill="#000000" fill-rule="nonzero" fill-opacity="1" /><path clip-path="url(#clip660)" d="M285.902 685.315 Q282.291 685.315 280.463 688.88 Q278.657 692.421 278.657 699.551 Q278.657 706.657 280.463 710.222 Q282.291 713.764 285.902 713.764 Q289.537 713.764 291.342 710.222 Q293.171 706.657 293.171 699.551 Q293.171 692.421 291.342 688.88 Q289.537 685.315 285.902 685.315 M285.902 681.611 Q291.712 681.611 294.768 686.218 Q297.847 690.801 297.847 699.551 Q297.847 708.278 294.768 712.884 Q291.712 717.467 285.902 717.467 Q280.092 717.467 277.013 712.884 Q273.958 708.278 273.958 699.551 Q273.958 690.801 277.013 686.218 Q280.092 681.611 285.902 681.611 Z" fill="#000000" fill-rule="nonzero" fill-opacity="1" /><path clip-path="url(#clip660)" d="M307.476 676.051 Q304.768 676.051 303.207 677.499 Q301.665 678.947 301.665 681.486 Q301.665 684.025 303.207 685.474 Q304.768 686.922 307.476 686.922 Q310.185 686.922 311.746 685.474 Q313.307 684.007 313.307 681.486 Q313.307 678.947 311.746 677.499 Q310.203 676.051 307.476 676.051 M303.677 674.434 Q301.232 673.832 299.859 672.158 Q298.505 670.484 298.505 668.076 Q298.505 664.71 300.894 662.754 Q303.301 660.798 307.476 660.798 Q311.67 660.798 314.059 662.754 Q316.448 664.71 316.448 668.076 Q316.448 670.484 315.075 672.158 Q313.72 673.832 311.294 674.434 Q314.04 675.073 315.564 676.935 Q317.106 678.797 317.106 681.486 Q317.106 685.568 314.604 687.749 Q312.122 689.931 307.476 689.931 Q302.831 689.931 300.329 687.749 Q297.847 685.568 297.847 681.486 Q297.847 678.797 299.389 676.935 Q300.931 675.073 303.677 674.434 M302.285 668.434 Q302.285 670.616 303.639 671.838 Q305.012 673.061 307.476 673.061 Q309.921 673.061 311.294 671.838 Q312.686 670.616 312.686 668.434 Q312.686 666.252 311.294 665.03 Q309.921 663.807 307.476 663.807 Q305.012 663.807 303.639 665.03 Q302.285 666.252 302.285 668.434 Z" fill="#000000" fill-rule="nonzero" fill-opacity="1" /><path clip-path="url(#clip660)" d="M100.602 439.66 L100.602 435.401 Q102.362 436.234 104.167 436.674 Q105.973 437.114 107.709 437.114 Q112.338 437.114 114.769 434.012 Q117.223 430.887 117.57 424.544 Q116.227 426.535 114.167 427.6 Q112.107 428.665 109.607 428.665 Q104.422 428.665 101.389 425.54 Q98.3802 422.391 98.3802 416.952 Q98.3802 411.628 101.528 408.41 Q104.676 405.192 109.908 405.192 Q115.903 405.192 119.051 409.799 Q122.223 414.382 122.223 423.132 Q122.223 431.303 118.334 436.188 Q114.468 441.049 107.917 441.049 Q106.158 441.049 104.352 440.702 Q102.547 440.354 100.602 439.66 M109.908 425.007 Q113.056 425.007 114.885 422.854 Q116.737 420.702 116.737 416.952 Q116.737 413.225 114.885 411.072 Q113.056 408.896 109.908 408.896 Q106.76 408.896 104.908 411.072 Q103.079 413.225 103.079 416.952 Q103.079 420.702 104.908 422.854 Q106.76 425.007 109.908 425.007 Z" fill="#000000" fill-rule="nonzero" fill-opacity="1" /><path clip-path="url(#clip660)" d="M130.625 434.498 L135.51 434.498 L135.51 440.377 L130.625 440.377 L130.625 434.498 Z" fill="#000000" fill-rule="nonzero" fill-opacity="1" /><path clip-path="url(#clip660)" d="M155.695 408.896 Q152.084 408.896 150.255 412.461 Q148.449 416.003 148.449 423.132 Q148.449 430.239 150.255 433.803 Q152.084 437.345 155.695 437.345 Q159.329 437.345 161.134 433.803 Q162.963 430.239 162.963 423.132 Q162.963 416.003 161.134 412.461 Q159.329 408.896 155.695 408.896 M155.695 405.192 Q161.505 405.192 164.56 409.799 Q167.639 414.382 167.639 423.132 Q167.639 431.859 164.56 436.465 Q161.505 441.049 155.695 441.049 Q149.885 441.049 146.806 436.465 Q143.75 431.859 143.75 423.132 Q143.75 414.382 146.806 409.799 Q149.885 405.192 155.695 405.192 Z" fill="#000000" fill-rule="nonzero" fill-opacity="1" /><path clip-path="url(#clip660)" d="M185.857 408.896 Q182.245 408.896 180.417 412.461 Q178.611 416.003 178.611 423.132 Q178.611 430.239 180.417 433.803 Q182.245 437.345 185.857 437.345 Q189.491 437.345 191.296 433.803 Q193.125 430.239 193.125 423.132 Q193.125 416.003 191.296 412.461 Q189.491 408.896 185.857 408.896 M185.857 405.192 Q191.667 405.192 194.722 409.799 Q197.801 414.382 197.801 423.132 Q197.801 431.859 194.722 436.465 Q191.667 441.049 185.857 441.049 Q180.046 441.049 176.968 436.465 Q173.912 431.859 173.912 423.132 Q173.912 414.382 176.968 409.799 Q180.046 405.192 185.857 405.192 Z" fill="#000000" fill-rule="nonzero" fill-opacity="1" /><path clip-path="url(#clip660)" d="M234.19 414.915 L223.611 425.54 L234.19 436.118 L231.435 438.919 L220.81 428.294 L210.185 438.919 L207.454 436.118 L218.009 425.54 L207.454 414.915 L210.185 412.114 L220.81 422.739 L231.435 412.114 L234.19 414.915 Z" fill="#000000" fill-rule="nonzero" fill-opacity="1" /><path clip-path="url(#clip660)" d="M246.551 436.442 L254.19 436.442 L254.19 410.077 L245.879 411.743 L245.879 407.484 L254.143 405.817 L258.819 405.817 L258.819 436.442 L266.458 436.442 L266.458 440.377 L246.551 440.377 L246.551 436.442 Z" fill="#000000" fill-rule="nonzero" fill-opacity="1" /><path clip-path="url(#clip660)" d="M285.902 408.896 Q282.291 408.896 280.463 412.461 Q278.657 416.003 278.657 423.132 Q278.657 430.239 280.463 433.803 Q282.291 437.345 285.902 437.345 Q289.537 437.345 291.342 433.803 Q293.171 430.239 293.171 423.132 Q293.171 416.003 291.342 412.461 Q289.537 408.896 285.902 408.896 M285.902 405.192 Q291.712 405.192 294.768 409.799 Q297.847 414.382 297.847 423.132 Q297.847 431.859 294.768 436.465 Q291.712 441.049 285.902 441.049 Q280.092 441.049 277.013 436.465 Q273.958 431.859 273.958 423.132 Q273.958 414.382 277.013 409.799 Q280.092 405.192 285.902 405.192 Z" fill="#000000" fill-rule="nonzero" fill-opacity="1" /><path clip-path="url(#clip660)" d="M307.476 399.632 Q304.768 399.632 303.207 401.081 Q301.665 402.529 301.665 405.068 Q301.665 407.607 303.207 409.055 Q304.768 410.503 307.476 410.503 Q310.185 410.503 311.746 409.055 Q313.307 407.588 313.307 405.068 Q313.307 402.529 311.746 401.081 Q310.203 399.632 307.476 399.632 M303.677 398.015 Q301.232 397.413 299.859 395.739 Q298.505 394.065 298.505 391.658 Q298.505 388.291 300.894 386.335 Q303.301 384.379 307.476 384.379 Q311.67 384.379 314.059 386.335 Q316.448 388.291 316.448 391.658 Q316.448 394.065 315.075 395.739 Q313.72 397.413 311.294 398.015 Q314.04 398.654 315.564 400.516 Q317.106 402.378 317.106 405.068 Q317.106 409.149 314.604 411.331 Q312.122 413.512 307.476 413.512 Q302.831 413.512 300.329 411.331 Q297.847 409.149 297.847 405.068 Q297.847 402.378 299.389 400.516 Q300.931 398.654 303.677 398.015 M302.285 392.015 Q302.285 394.197 303.639 395.419 Q305.012 396.642 307.476 396.642 Q309.921 396.642 311.294 395.419 Q312.686 394.197 312.686 392.015 Q312.686 389.833 311.294 388.611 Q309.921 387.388 307.476 387.388 Q305.012 387.388 303.639 388.611 Q302.285 389.833 302.285 392.015 Z" fill="#000000" fill-rule="nonzero" fill-opacity="1" /><path clip-path="url(#clip660)" d="M100.602 163.241 L100.602 158.982 Q102.362 159.815 104.167 160.255 Q105.973 160.695 107.709 160.695 Q112.338 160.695 114.769 157.593 Q117.223 154.468 117.57 148.126 Q116.227 150.116 114.167 151.181 Q112.107 152.246 109.607 152.246 Q104.422 152.246 101.389 149.121 Q98.3802 145.973 98.3802 140.533 Q98.3802 135.209 101.528 131.991 Q104.676 128.774 109.908 128.774 Q115.903 128.774 119.051 133.38 Q122.223 137.964 122.223 146.714 Q122.223 154.885 118.334 159.769 Q114.468 164.63 107.917 164.63 Q106.158 164.63 104.352 164.283 Q102.547 163.936 100.602 163.241 M109.908 148.588 Q113.056 148.588 114.885 146.436 Q116.737 144.283 116.737 140.533 Q116.737 136.806 114.885 134.653 Q113.056 132.477 109.908 132.477 Q106.76 132.477 104.908 134.653 Q103.079 136.806 103.079 140.533 Q103.079 144.283 104.908 146.436 Q106.76 148.588 109.908 148.588 Z" fill="#000000" fill-rule="nonzero" fill-opacity="1" /><path clip-path="url(#clip660)" d="M130.625 158.079 L135.51 158.079 L135.51 163.959 L130.625 163.959 L130.625 158.079 Z" fill="#000000" fill-rule="nonzero" fill-opacity="1" /><path clip-path="url(#clip660)" d="M145.741 129.399 L164.097 129.399 L164.097 133.334 L150.023 133.334 L150.023 141.806 Q151.042 141.459 152.06 141.297 Q153.079 141.112 154.097 141.112 Q159.884 141.112 163.264 144.283 Q166.644 147.454 166.644 152.871 Q166.644 158.45 163.171 161.551 Q159.699 164.63 153.38 164.63 Q151.204 164.63 148.935 164.26 Q146.69 163.889 144.283 163.149 L144.283 158.45 Q146.366 159.584 148.588 160.139 Q150.81 160.695 153.287 160.695 Q157.292 160.695 159.63 158.588 Q161.968 156.482 161.968 152.871 Q161.968 149.26 159.63 147.153 Q157.292 145.047 153.287 145.047 Q151.412 145.047 149.537 145.464 Q147.685 145.88 145.741 146.76 L145.741 129.399 Z" fill="#000000" fill-rule="nonzero" fill-opacity="1" /><path clip-path="url(#clip660)" d="M185.857 132.477 Q182.245 132.477 180.417 136.042 Q178.611 139.584 178.611 146.714 Q178.611 153.82 180.417 157.385 Q182.245 160.926 185.857 160.926 Q189.491 160.926 191.296 157.385 Q193.125 153.82 193.125 146.714 Q193.125 139.584 191.296 136.042 Q189.491 132.477 185.857 132.477 M185.857 128.774 Q191.667 128.774 194.722 133.38 Q197.801 137.964 197.801 146.714 Q197.801 155.44 194.722 160.047 Q191.667 164.63 185.857 164.63 Q180.046 164.63 176.968 160.047 Q173.912 155.44 173.912 146.714 Q173.912 137.964 176.968 133.38 Q180.046 128.774 185.857 128.774 Z" fill="#000000" fill-rule="nonzero" fill-opacity="1" /><path clip-path="url(#clip660)" d="M234.19 138.496 L223.611 149.121 L234.19 159.7 L231.435 162.5 L220.81 151.876 L210.185 162.5 L207.454 159.7 L218.009 149.121 L207.454 138.496 L210.185 135.695 L220.81 146.32 L231.435 135.695 L234.19 138.496 Z" fill="#000000" fill-rule="nonzero" fill-opacity="1" /><path clip-path="url(#clip660)" d="M246.551 160.024 L254.19 160.024 L254.19 133.658 L245.879 135.325 L245.879 131.065 L254.143 129.399 L258.819 129.399 L258.819 160.024 L266.458 160.024 L266.458 163.959 L246.551 163.959 L246.551 160.024 Z" fill="#000000" fill-rule="nonzero" fill-opacity="1" /><path clip-path="url(#clip660)" d="M285.902 132.477 Q282.291 132.477 280.463 136.042 Q278.657 139.584 278.657 146.714 Q278.657 153.82 280.463 157.385 Q282.291 160.926 285.902 160.926 Q289.537 160.926 291.342 157.385 Q293.171 153.82 293.171 146.714 Q293.171 139.584 291.342 136.042 Q289.537 132.477 285.902 132.477 M285.902 128.774 Q291.712 128.774 294.768 133.38 Q297.847 137.964 297.847 146.714 Q297.847 155.44 294.768 160.047 Q291.712 164.63 285.902 164.63 Q280.092 164.63 277.013 160.047 Q273.958 155.44 273.958 146.714 Q273.958 137.964 277.013 133.38 Q280.092 128.774 285.902 128.774 Z" fill="#000000" fill-rule="nonzero" fill-opacity="1" /><path clip-path="url(#clip660)" d="M307.476 123.214 Q304.768 123.214 303.207 124.662 Q301.665 126.11 301.665 128.649 Q301.665 131.188 303.207 132.636 Q304.768 134.085 307.476 134.085 Q310.185 134.085 311.746 132.636 Q313.307 131.169 313.307 128.649 Q313.307 126.11 311.746 124.662 Q310.203 123.214 307.476 123.214 M303.677 121.596 Q301.232 120.994 299.859 119.32 Q298.505 117.647 298.505 115.239 Q298.505 111.873 300.894 109.917 Q303.301 107.961 307.476 107.961 Q311.67 107.961 314.059 109.917 Q316.448 111.873 316.448 115.239 Q316.448 117.647 315.075 119.32 Q313.72 120.994 311.294 121.596 Q314.04 122.236 315.564 124.098 Q317.106 125.96 317.106 128.649 Q317.106 132.73 314.604 134.912 Q312.122 137.094 307.476 137.094 Q302.831 137.094 300.329 134.912 Q297.847 132.73 297.847 128.649 Q297.847 125.96 299.389 124.098 Q300.931 122.236 303.677 121.596 M302.285 115.597 Q302.285 117.778 303.639 119.001 Q305.012 120.223 307.476 120.223 Q309.921 120.223 311.294 119.001 Q312.686 117.778 312.686 115.597 Q312.686 113.415 311.294 112.192 Q309.921 110.97 307.476 110.97 Q305.012 110.97 303.639 112.192 Q302.285 113.415 302.285 115.597 Z" fill="#000000" fill-rule="nonzero" fill-opacity="1" /><path clip-path="url(#clip660)" d="M-9.64527 840.632 L0.4762 840.632 L0.4762 828.569 L5.02768 828.569 L5.02768 840.632 L24.3794 840.632 Q28.7399 840.632 29.9813 839.454 Q31.2226 838.245 31.2226 834.584 L31.2226 828.569 L36.1242 828.569 L36.1242 834.584 Q36.1242 841.364 33.6097 843.942 Q31.0634 846.52 24.3794 846.52 L5.02768 846.52 L5.02768 850.817 L0.4762 850.817 L0.4762 846.52 L-9.64527 846.52 L-9.64527 840.632 Z" fill="#000000" fill-rule="nonzero" fill-opacity="1" /><path clip-path="url(#clip660)" d="M-11.3958 789.738 L-11.3958 784.327 L42.1716 800.878 L42.1716 806.289 L-11.3958 789.738 Z" fill="#000000" fill-rule="nonzero" fill-opacity="1" /><path clip-path="url(#clip660)" d="M14.6081 727.831 L36.1242 727.831 L36.1242 733.688 L14.799 733.688 Q9.7383 733.688 7.22385 735.661 Q4.7094 737.635 4.7094 741.581 Q4.7094 746.324 7.73311 749.061 Q10.7568 751.798 15.9767 751.798 L36.1242 751.798 L36.1242 757.687 L0.4762 757.687 L0.4762 751.798 L6.01437 751.798 Q2.79968 749.698 1.20826 746.865 Q-0.38317 744 -0.38317 740.276 Q-0.38317 734.133 3.43625 730.982 Q7.22385 727.831 14.6081 727.831 Z" fill="#000000" fill-rule="nonzero" fill-opacity="1" /><path clip-path="url(#clip660)" d="M1.52654 693.425 L7.06471 693.425 Q5.79157 695.907 5.15499 698.581 Q4.51842 701.255 4.51842 704.119 Q4.51842 708.48 5.85522 710.676 Q7.19202 712.84 9.86562 712.84 Q11.9026 712.84 13.0803 711.281 Q14.2261 709.721 15.2765 705.01 L15.7221 703.005 Q17.0589 696.767 19.5097 694.157 Q21.9286 691.515 26.2891 691.515 Q31.2544 691.515 34.1508 695.462 Q37.0472 699.377 37.0472 706.252 Q37.0472 709.116 36.4743 712.235 Q35.9332 715.323 34.8192 718.76 L28.7718 718.76 Q30.4587 715.514 31.318 712.363 Q32.1456 709.212 32.1456 706.124 Q32.1456 701.987 30.7451 699.759 Q29.3129 697.531 26.7347 697.531 Q24.3476 697.531 23.0745 699.154 Q21.8013 700.745 20.6237 706.188 L20.1462 708.225 Q19.0004 713.668 16.6451 716.087 Q14.258 718.506 10.1202 718.506 Q5.09134 718.506 2.35408 714.941 Q-0.38317 711.376 -0.38317 704.819 Q-0.38317 701.573 0.0942579 698.708 Q0.571686 695.844 1.52654 693.425 Z" fill="#000000" fill-rule="nonzero" fill-opacity="1" /><path clip-path="url(#clip661)" d="M825.279 1454.11 L824.812 1453.75 L823.715 1453.39 L822.024 1453.04 L819.791 1452.68 L817.083 1452.32 L813.979 1451.96 L810.567 1451.6 L806.944 1451.24 L803.211 1450.88 L799.471 1450.53 L795.828 1450.17 L792.381 1449.81 L789.226 1449.45 L786.451 1449.09 L784.133 1448.73 L782.343 1448.37 L781.137 1448.02 L780.561 1447.66 L780.648 1447.3 L781.418 1446.94 L782.88 1446.58 L785.03 1446.22 L787.852 1445.86 L791.323 1445.51 L795.408 1445.15 L800.065 1444.79 L805.247 1444.43 L810.902 1444.07 L816.976 1443.71 L823.411 1443.35 L830.154 1443 L837.153 1442.64 L844.359 1442.28 L851.728 1441.92 L859.224 1441.56 L866.816 1441.2 L874.479 1440.84 L882.195 1440.49 L889.95 1440.13 L897.736 1439.77 L905.546 1439.41 L913.376 1439.05 L921.219 1438.69 L929.067 1438.34 L936.909 1437.98 L944.726 1437.62 L952.495 1437.26 L960.184 1436.9 L967.757 1436.54 L975.165 1436.18 L982.357 1435.83 L989.273 1435.47 L995.851 1435.11 L1002.02 1434.75 L1007.71 1434.39 L1012.86 1434.03 L1017.38 1433.67 L1021.21 1433.32 L1024.29 1432.96 L1026.56 1432.6 L1027.95 1432.24 L1028.41 1431.88 L1027.92 1431.52 L1026.43 1431.16 L1023.93 1430.81 L1020.4 1430.45 L1015.85 1430.09 L1010.28 1429.73 L1003.74 1429.37 L996.257 1429.01 L987.898 1428.65 L978.736 1428.3 L968.86 1427.94 L958.372 1427.58 L947.386 1427.22 L936.03 1426.86 L924.438 1426.5 L912.749 1426.14 L901.109 1425.79 L889.66 1425.43 L878.543 1425.07 L867.892 1424.71 L857.833 1424.35 L848.476 1423.99 L839.921 1423.63 L832.248 1423.28 L825.518 1422.92 L819.773 1422.56 L815.033 1422.2 L811.3 1421.84 L808.551 1421.48 L806.745 1421.12 L805.821 1420.77 L805.702 1420.41 L806.294 1420.05 L807.492 1419.69 L809.179 1419.33 L811.232 1418.97 L813.523 1418.62 L815.923 1418.26 L818.308 1417.9 L820.556 1417.54 L822.556 1417.18 L824.209 1416.82 L825.429 1416.46 L826.147 1416.11 L826.31 1415.75 L646.106 1415.75 L646.269 1416.11 L646.987 1416.46 L648.207 1416.82 L649.86 1417.18 L651.861 1417.54 L654.109 1417.9 L656.493 1418.26 L658.893 1418.62 L661.184 1418.97 L663.237 1419.33 L664.924 1419.69 L666.122 1420.05 L666.714 1420.41 L666.595 1420.77 L665.672 1421.12 L663.865 1421.48 L661.116 1421.84 L657.383 1422.2 L652.644 1422.56 L646.899 1422.92 L640.169 1423.28 L632.495 1423.63 L623.94 1423.99 L614.584 1424.35 L604.524 1424.71 L593.873 1425.07 L582.756 1425.43 L571.307 1425.79 L559.667 1426.14 L547.978 1426.5 L536.386 1426.86 L525.03 1427.22 L514.045 1427.58 L503.556 1427.94 L493.68 1428.3 L484.518 1428.65 L476.16 1429.01 L468.679 1429.37 L462.134 1429.73 L456.57 1430.09 L452.015 1430.45 L448.485 1430.81 L445.982 1431.16 L444.495 1431.52 L444.002 1431.88 L444.471 1432.24 L445.861 1432.6 L448.124 1432.96 L451.203 1433.32 L455.037 1433.67 L459.56 1434.03 L464.704 1434.39 L470.396 1434.75 L476.566 1435.11 L483.143 1435.47 L490.059 1435.83 L497.251 1436.18 L504.66 1436.54 L512.232 1436.9 L519.921 1437.26 L527.69 1437.62 L535.508 1437.98 L543.349 1438.34 L551.197 1438.69 L559.04 1439.05 L566.87 1439.41 L574.68 1439.77 L582.466 1440.13 L590.221 1440.49 L597.937 1440.84 L605.6 1441.2 L613.192 1441.56 L620.688 1441.92 L628.057 1442.28 L635.263 1442.64 L642.262 1443 L649.005 1443.35 L655.441 1443.71 L661.514 1444.07 L667.169 1444.43 L672.351 1444.79 L677.008 1445.15 L681.093 1445.51 L684.564 1445.86 L687.387 1446.22 L689.536 1446.58 L690.998 1446.94 L691.768 1447.3 L691.855 1447.66 L691.279 1448.02 L690.073 1448.37 L688.283 1448.73 L685.966 1449.09 L683.19 1449.45 L680.035 1449.81 L676.588 1450.17 L672.945 1450.53 L669.205 1450.88 L665.472 1451.24 L661.849 1451.6 L658.437 1451.96 L655.333 1452.32 L652.625 1452.68 L650.392 1453.04 L648.701 1453.39 L647.604 1453.75 L647.137 1454.11 L825.279 1454.11  Z" fill="#009af9" fill-rule="evenodd" fill-opacity="1"/>
<polyline clip-path="url(#clip661)" style="stroke:#000000; stroke-linecap:round; stroke-linejoin:round; stroke-width:4; stroke-opacity:1; fill:none" points="825.279,1454.11 824.812,1453.75 823.715,1453.39 822.024,1453.04 819.791,1452.68 817.083,1452.32 813.979,1451.96 810.567,1451.6 806.944,1451.24 803.211,1450.88 799.471,1450.53 795.828,1450.17 792.381,1449.81 789.226,1449.45 786.451,1449.09 784.133,1448.73 782.343,1448.37 781.137,1448.02 780.561,1447.66 780.648,1447.3 781.418,1446.94 782.88,1446.58 785.03,1446.22 787.852,1445.86 791.323,1445.51 795.408,1445.15 800.065,1444.79 805.247,1444.43 810.902,1444.07 816.976,1443.71 823.411,1443.35 830.154,1443 837.153,1442.64 844.359,1442.28 851.728,1441.92 859.224,1441.56 866.816,1441.2 874.479,1440.84 882.195,1440.49 889.95,1440.13 897.736,1439.77 905.546,1439.41 913.376,1439.05 921.219,1438.69 929.067,1438.34 936.909,1437.98 944.726,1437.62 952.495,1437.26 960.184,1436.9 967.757,1436.54 975.165,1436.18 982.357,1435.83 989.273,1435.47 995.851,1435.11 1002.02,1434.75 1007.71,1434.39 1012.86,1434.03 1017.38,1433.67 1021.21,1433.32 1024.29,1432.96 1026.56,1432.6 1027.95,1432.24 1028.41,1431.88 1027.92,1431.52 1026.43,1431.16 1023.93,1430.81 1020.4,1430.45 1015.85,1430.09 1010.28,1429.73 1003.74,1429.37 996.257,1429.01 987.898,1428.65 978.736,1428.3 968.86,1427.94 958.372,1427.58 947.386,1427.22 936.03,1426.86 924.438,1426.5 912.749,1426.14 901.109,1425.79 889.66,1425.43 878.543,1425.07 867.892,1424.71 857.833,1424.35 848.476,1423.99 839.921,1423.63 832.248,1423.28 825.518,1422.92 819.773,1422.56 815.033,1422.2 811.3,1421.84 808.551,1421.48 806.745,1421.12 805.821,1420.77 805.702,1420.41 806.294,1420.05 807.492,1419.69 809.179,1419.33 811.232,1418.97 813.523,1418.62 815.923,1418.26 818.308,1417.9 820.556,1417.54 822.556,1417.18 824.209,1416.82 825.429,1416.46 826.147,1416.11 826.31,1415.75 646.106,1415.75 646.269,1416.11 646.987,1416.46 648.207,1416.82 649.86,1417.18 651.861,1417.54 654.109,1417.9 656.493,1418.26 658.893,1418.62 661.184,1418.97 663.237,1419.33 664.924,1419.69 666.122,1420.05 666.714,1420.41 666.595,1420.77 665.672,1421.12 663.865,1421.48 661.116,1421.84 657.383,1422.2 652.644,1422.56 646.899,1422.92 640.169,1423.28 632.495,1423.63 623.94,1423.99 614.584,1424.35 604.524,1424.71 593.873,1425.07 582.756,1425.43 571.307,1425.79 559.667,1426.14 547.978,1426.5 536.386,1426.86 525.03,1427.22 514.045,1427.58 503.556,1427.94 493.68,1428.3 484.518,1428.65 476.16,1429.01 468.679,1429.37 462.134,1429.73 456.57,1430.09 452.015,1430.45 448.485,1430.81 445.982,1431.16 444.495,1431.52 444.002,1431.88 444.471,1432.24 445.861,1432.6 448.124,1432.96 451.203,1433.32 455.037,1433.67 459.56,1434.03 464.704,1434.39 470.396,1434.75 476.566,1435.11 483.143,1435.47 490.059,1435.83 497.251,1436.18 504.66,1436.54 512.232,1436.9 519.921,1437.26 527.69,1437.62 535.508,1437.98 543.349,1438.34 551.197,1438.69 559.04,1439.05 566.87,1439.41 574.68,1439.77 582.466,1440.13 590.221,1440.49 597.937,1440.84 605.6,1441.2 613.192,1441.56 620.688,1441.92 628.057,1442.28 635.263,1442.64 642.262,1443 649.005,1443.35 655.441,1443.71 661.514,1444.07 667.169,1444.43 672.351,1444.79 677.008,1445.15 681.093,1445.51 684.564,1445.86 687.387,1446.22 689.536,1446.58 690.998,1446.94 691.768,1447.3 691.855,1447.66 691.279,1448.02 690.073,1448.37 688.283,1448.73 685.966,1449.09 683.19,1449.45 680.035,1449.81 676.588,1450.17 672.945,1450.53 669.205,1450.88 665.472,1451.24 661.849,1451.6 658.437,1451.96 655.333,1452.32 652.625,1452.68 650.392,1453.04 648.701,1453.39 647.604,1453.75 647.137,1454.11 825.279,1454.11 "/>
<path clip-path="url(#clip661)" d="M1861.31 460.644 L1860.28 460.302 L1858.27 459.961 L1855.37 459.619 L1851.68 459.278 L1847.33 458.937 L1842.48 458.595 L1837.29 458.254 L1831.95 457.912 L1826.64 457.571 L1821.55 457.229 L1816.85 456.888 L1812.73 456.546 L1809.34 456.205 L1806.83 455.863 L1805.33 455.522 L1804.95 455.18 L1805.8 454.839 L1807.96 454.497 L1811.47 454.156 L1816.39 453.814 L1822.72 453.473 L1830.47 453.131 L1839.59 452.79 L1850.03 452.448 L1861.69 452.107 L1874.46 451.765 L1888.19 451.424 L1902.68 451.082 L1917.74 450.741 L1933.12 450.399 L1948.58 450.058 L1963.83 449.716 L1978.6 449.375 L1992.62 449.033 L2005.61 448.692 L2017.32 448.35 L2027.53 448.009 L2036.05 447.667 L2042.74 447.326 L2047.5 446.985 L2050.3 446.643 L2051.14 446.302 L2050.09 445.96 L2047.27 445.619 L2042.83 445.277 L2036.98 444.936 L2029.93 444.594 L2021.92 444.253 L2013.19 443.911 L2003.98 443.57 L1994.48 443.228 L1984.9 442.887 L1975.37 442.545 L1966.03 442.204 L1956.94 441.862 L1948.14 441.521 L1939.63 441.179 L1931.39 440.838 L1923.38 440.496 L1915.53 440.155 L1907.78 439.813 L1900.07 439.472 L1892.33 439.13 L1884.54 438.789 L1876.67 438.447 L1868.73 438.106 L1860.73 437.764 L1852.72 437.423 L1844.73 437.081 L1836.86 436.74 L1829.15 436.398 L1821.69 436.057 L1814.55 435.716 L1807.8 435.374 L1801.48 435.033 L1795.64 434.691 L1790.31 434.35 L1785.5 434.008 L1781.21 433.667 L1777.45 433.325 L1774.18 432.984 L1771.38 432.642 L1769.01 432.301 L1767.04 431.959 L1765.44 431.618 L1764.16 431.276 L1763.18 430.935 L1762.46 430.593 L1761.99 430.252 L1761.74 429.91 L1761.71 429.569 L1761.91 429.227 L1762.32 428.886 L1762.97 428.544 L1763.88 428.203 L1765.07 427.861 L1766.58 427.52 L1768.43 427.178 L1770.66 426.837 L1773.3 426.495 L1776.38 426.154 L1779.92 425.812 L1783.93 425.471 L1788.4 425.129 L1793.33 424.788 L1798.68 424.447 L1804.39 424.105 L1810.38 423.764 L1816.58 423.422 L1822.86 423.081 L1829.1 422.739 L1835.17 422.398 L1840.91 422.056 L1846.18 421.715 L1850.85 421.373 L1854.77 421.032 L1857.85 420.69 L1859.98 420.349 L1861.1 420.007 L1656.76 420.007 L1657.88 420.349 L1660.01 420.69 L1663.09 421.032 L1667.01 421.373 L1671.68 421.715 L1676.95 422.056 L1682.7 422.398 L1688.76 422.739 L1695 423.081 L1701.28 423.422 L1707.48 423.764 L1713.48 424.105 L1719.18 424.447 L1724.53 424.788 L1729.46 425.129 L1733.93 425.471 L1737.94 425.812 L1741.48 426.154 L1744.56 426.495 L1747.2 426.837 L1749.43 427.178 L1751.28 427.52 L1752.79 427.861 L1753.98 428.203 L1754.89 428.544 L1755.54 428.886 L1755.96 429.227 L1756.15 429.569 L1756.12 429.91 L1755.87 430.252 L1755.4 430.593 L1754.68 430.935 L1753.7 431.276 L1752.42 431.618 L1750.82 431.959 L1748.85 432.301 L1746.49 432.642 L1743.68 432.984 L1740.41 433.325 L1736.65 433.667 L1732.36 434.008 L1727.56 434.35 L1722.22 434.691 L1716.38 435.033 L1710.06 435.374 L1703.31 435.716 L1696.17 436.057 L1688.71 436.398 L1681.01 436.74 L1673.13 437.081 L1665.15 437.423 L1657.13 437.764 L1649.13 438.106 L1641.19 438.447 L1633.32 438.789 L1625.53 439.13 L1617.8 439.472 L1610.08 439.813 L1602.33 440.155 L1594.48 440.496 L1586.47 440.838 L1578.23 441.179 L1569.73 441.521 L1560.93 441.862 L1551.83 442.204 L1542.49 442.545 L1532.97 442.887 L1523.38 443.228 L1513.89 443.57 L1504.67 443.911 L1495.94 444.253 L1487.93 444.594 L1480.88 444.936 L1475.03 445.277 L1470.6 445.619 L1467.77 445.96 L1466.72 446.302 L1467.56 446.643 L1470.36 446.985 L1475.12 447.326 L1481.81 447.667 L1490.33 448.009 L1500.54 448.35 L1512.25 448.692 L1525.24 449.033 L1539.26 449.375 L1554.03 449.716 L1569.29 450.058 L1584.74 450.399 L1600.12 450.741 L1615.18 451.082 L1629.68 451.424 L1643.4 451.765 L1656.17 452.107 L1667.83 452.448 L1678.27 452.79 L1687.39 453.131 L1695.14 453.473 L1701.47 453.814 L1706.39 454.156 L1709.91 454.497 L1712.06 454.839 L1712.91 455.18 L1712.53 455.522 L1711.03 455.863 L1708.52 456.205 L1705.13 456.546 L1701.01 456.888 L1696.31 457.229 L1691.22 457.571 L1685.91 457.912 L1680.57 458.254 L1675.38 458.595 L1670.53 458.937 L1666.18 459.278 L1662.49 459.619 L1659.59 459.961 L1657.58 460.302 L1656.55 460.644 L1861.31 460.644  Z" fill="#e26f46" fill-rule="evenodd" fill-opacity="1"/>
<polyline clip-path="url(#clip661)" style="stroke:#000000; stroke-linecap:round; stroke-linejoin:round; stroke-width:4; stroke-opacity:1; fill:none" points="1861.31,460.644 1860.28,460.302 1858.27,459.961 1855.37,459.619 1851.68,459.278 1847.33,458.937 1842.48,458.595 1837.29,458.254 1831.95,457.912 1826.64,457.571 1821.55,457.229 1816.85,456.888 1812.73,456.546 1809.34,456.205 1806.83,455.863 1805.33,455.522 1804.95,455.18 1805.8,454.839 1807.96,454.497 1811.47,454.156 1816.39,453.814 1822.72,453.473 1830.47,453.131 1839.59,452.79 1850.03,452.448 1861.69,452.107 1874.46,451.765 1888.19,451.424 1902.68,451.082 1917.74,450.741 1933.12,450.399 1948.58,450.058 1963.83,449.716 1978.6,449.375 1992.62,449.033 2005.61,448.692 2017.32,448.35 2027.53,448.009 2036.05,447.667 2042.74,447.326 2047.5,446.985 2050.3,446.643 2051.14,446.302 2050.09,445.96 2047.27,445.619 2042.83,445.277 2036.98,444.936 2029.93,444.594 2021.92,444.253 2013.19,443.911 2003.98,443.57 1994.48,443.228 1984.9,442.887 1975.37,442.545 1966.03,442.204 1956.94,441.862 1948.14,441.521 1939.63,441.179 1931.39,440.838 1923.38,440.496 1915.53,440.155 1907.78,439.813 1900.07,439.472 1892.33,439.13 1884.54,438.789 1876.67,438.447 1868.73,438.106 1860.73,437.764 1852.72,437.423 1844.73,437.081 1836.86,436.74 1829.15,436.398 1821.69,436.057 1814.55,435.716 1807.8,435.374 1801.48,435.033 1795.64,434.691 1790.31,434.35 1785.5,434.008 1781.21,433.667 1777.45,433.325 1774.18,432.984 1771.38,432.642 1769.01,432.301 1767.04,431.959 1765.44,431.618 1764.16,431.276 1763.18,430.935 1762.46,430.593 1761.99,430.252 1761.74,429.91 1761.71,429.569 1761.91,429.227 1762.32,428.886 1762.97,428.544 1763.88,428.203 1765.07,427.861 1766.58,427.52 1768.43,427.178 1770.66,426.837 1773.3,426.495 1776.38,426.154 1779.92,425.812 1783.93,425.471 1788.4,425.129 1793.33,424.788 1798.68,424.447 1804.39,424.105 1810.38,423.764 1816.58,423.422 1822.86,423.081 1829.1,422.739 1835.17,422.398 1840.91,422.056 1846.18,421.715 1850.85,421.373 1854.77,421.032 1857.85,420.69 1859.98,420.349 1861.1,420.007 1656.76,420.007 1657.88,420.349 1660.01,420.69 1663.09,421.032 1667.01,421.373 1671.68,421.715 1676.95,422.056 1682.7,422.398 1688.76,422.739 1695,423.081 1701.28,423.422 1707.48,423.764 1713.48,424.105 1719.18,424.447 1724.53,424.788 1729.46,425.129 1733.93,425.471 1737.94,425.812 1741.48,426.154 1744.56,426.495 1747.2,426.837 1749.43,427.178 1751.28,427.52 1752.79,427.861 1753.98,428.203 1754.89,428.544 1755.54,428.886 1755.96,429.227 1756.15,429.569 1756.12,429.91 1755.87,430.252 1755.4,430.593 1754.68,430.935 1753.7,431.276 1752.42,431.618 1750.82,431.959 1748.85,432.301 1746.49,432.642 1743.68,432.984 1740.41,433.325 1736.65,433.667 1732.36,434.008 1727.56,434.35 1722.22,434.691 1716.38,435.033 1710.06,435.374 1703.31,435.716 1696.17,436.057 1688.71,436.398 1681.01,436.74 1673.13,437.081 1665.15,437.423 1657.13,437.764 1649.13,438.106 1641.19,438.447 1633.32,438.789 1625.53,439.13 1617.8,439.472 1610.08,439.813 1602.33,440.155 1594.48,440.496 1586.47,440.838 1578.23,441.179 1569.73,441.521 1560.93,441.862 1551.83,442.204 1542.49,442.545 1532.97,442.887 1523.38,443.228 1513.89,443.57 1504.67,443.911 1495.94,444.253 1487.93,444.594 1480.88,444.936 1475.03,445.277 1470.6,445.619 1467.77,445.96 1466.72,446.302 1467.56,446.643 1470.36,446.985 1475.12,447.326 1481.81,447.667 1490.33,448.009 1500.54,448.35 1512.25,448.692 1525.24,449.033 1539.26,449.375 1554.03,449.716 1569.29,450.058 1584.74,450.399 1600.12,450.741 1615.18,451.082 1629.68,451.424 1643.4,451.765 1656.17,452.107 1667.83,452.448 1678.27,452.79 1687.39,453.131 1695.14,453.473 1701.47,453.814 1706.39,454.156 1709.91,454.497 1712.06,454.839 1712.91,455.18 1712.53,455.522 1711.03,455.863 1708.52,456.205 1705.13,456.546 1701.01,456.888 1696.31,457.229 1691.22,457.571 1685.91,457.912 1680.57,458.254 1675.38,458.595 1670.53,458.937 1666.18,459.278 1662.49,459.619 1659.59,459.961 1657.58,460.302 1656.55,460.644 1861.31,460.644 "/>
<path clip-path="url(#clip661)" d="M2921.74 105.817 L2924.67 105.569 L2927.25 105.321 L2929.48 105.074 L2931.34 104.826 L2932.83 104.578 L2933.95 104.33 L2934.72 104.082 L2935.15 103.834 L2935.25 103.587 L2935.05 103.339 L2934.58 103.091 L2933.87 102.843 L2932.96 102.595 L2931.89 102.347 L2930.71 102.1 L2929.47 101.852 L2928.21 101.604 L2927 101.356 L2925.88 101.108 L2924.91 100.86 L2924.16 100.613 L2923.66 100.365 L2923.47 100.117 L2923.64 99.8691 L2924.21 99.6213 L2925.23 99.3734 L2926.72 99.1256 L2928.71 98.8777 L2931.23 98.6299 L2934.28 98.3821 L2937.87 98.1342 L2942 97.8864 L2946.65 97.6386 L2951.8 97.3907 L2957.42 97.1429 L2963.47 96.8951 L2969.91 96.6472 L2976.69 96.3994 L2983.73 96.1516 L2990.98 95.9037 L2998.36 95.6559 L3005.8 95.408 L3013.22 95.1602 L3020.53 94.9124 L3027.67 94.6645 L3034.54 94.4167 L3041.06 94.1689 L3047.18 93.921 L3052.8 93.6732 L3057.87 93.4254 L3062.33 93.1775 L3066.13 92.9297 L3069.21 92.6818 L3071.54 92.434 L3073.1 92.1862 L3073.86 91.9383 L3073.81 91.6905 L3072.95 91.4427 L3071.28 91.1948 L3068.82 90.947 L3065.58 90.6992 L3061.61 90.4513 L3056.92 90.2035 L3051.56 89.9557 L3045.58 89.7078 L3039.03 89.46 L3031.95 89.2121 L3024.4 88.9643 L3016.44 88.7165 L3008.13 88.4686 L2999.52 88.2208 L2563.78 88.2208 L2555.18 88.4686 L2546.86 88.7165 L2538.91 88.9643 L2531.36 89.2121 L2524.28 89.46 L2517.72 89.7078 L2511.74 89.9557 L2506.39 90.2035 L2501.7 90.4513 L2497.72 90.6992 L2494.49 90.947 L2492.03 91.1948 L2490.36 91.4427 L2489.5 91.6905 L2489.45 91.9383 L2490.21 92.1862 L2491.76 92.434 L2494.1 92.6818 L2497.18 92.9297 L2500.97 93.1775 L2505.43 93.4254 L2510.5 93.6732 L2516.13 93.921 L2522.24 94.1689 L2528.77 94.4167 L2535.64 94.6645 L2542.77 94.9124 L2550.09 95.1602 L2557.51 95.408 L2564.95 95.6559 L2572.33 95.9037 L2579.58 96.1516 L2586.62 96.3994 L2593.39 96.6472 L2599.83 96.8951 L2605.89 97.1429 L2611.51 97.3907 L2616.66 97.6386 L2621.31 97.8864 L2625.44 98.1342 L2629.03 98.3821 L2632.08 98.6299 L2634.6 98.8777 L2636.59 99.1256 L2638.08 99.3734 L2639.1 99.6213 L2639.67 99.8691 L2639.84 100.117 L2639.65 100.365 L2639.15 100.613 L2638.39 100.86 L2637.43 101.108 L2636.31 101.356 L2635.1 101.604 L2633.84 101.852 L2632.59 102.1 L2631.41 102.347 L2630.34 102.595 L2629.43 102.843 L2628.72 103.091 L2628.25 103.339 L2628.05 103.587 L2628.16 103.834 L2628.58 104.082 L2629.35 104.33 L2630.48 104.578 L2631.97 104.826 L2633.83 105.074 L2636.05 105.321 L2638.64 105.569 L2641.57 105.817 L2921.74 105.817  Z" fill="#3da44d" fill-rule="evenodd" fill-opacity="1"/>
<polyline clip-path="url(#clip661)" style="stroke:#000000; stroke-linecap:round; stroke-linejoin:round; stroke-width:4; stroke-opacity:1; fill:none" points="2921.74,105.817 2924.67,105.569 2927.25,105.321 2929.48,105.074 2931.34,104.826 2932.83,104.578 2933.95,104.33 2934.72,104.082 2935.15,103.834 2935.25,103.587 2935.05,103.339 2934.58,103.091 2933.87,102.843 2932.96,102.595 2931.89,102.347 2930.71,102.1 2929.47,101.852 2928.21,101.604 2927,101.356 2925.88,101.108 2924.91,100.86 2924.16,100.613 2923.66,100.365 2923.47,100.117 2923.64,99.8691 2924.21,99.6213 2925.23,99.3734 2926.72,99.1256 2928.71,98.8777 2931.23,98.6299 2934.28,98.3821 2937.87,98.1342 2942,97.8864 2946.65,97.6386 2951.8,97.3907 2957.42,97.1429 2963.47,96.8951 2969.91,96.6472 2976.69,96.3994 2983.73,96.1516 2990.98,95.9037 2998.36,95.6559 3005.8,95.408 3013.22,95.1602 3020.53,94.9124 3027.67,94.6645 3034.54,94.4167 3041.06,94.1689 3047.18,93.921 3052.8,93.6732 3057.87,93.4254 3062.33,93.1775 3066.13,92.9297 3069.21,92.6818 3071.54,92.434 3073.1,92.1862 3073.86,91.9383 3073.81,91.6905 3072.95,91.4427 3071.28,91.1948 3068.82,90.947 3065.58,90.6992 3061.61,90.4513 3056.92,90.2035 3051.56,89.9557 3045.58,89.7078 3039.03,89.46 3031.95,89.2121 3024.4,88.9643 3016.44,88.7165 3008.13,88.4686 2999.52,88.2208 2563.78,88.2208 2555.18,88.4686 2546.86,88.7165 2538.91,88.9643 2531.36,89.2121 2524.28,89.46 2517.72,89.7078 2511.74,89.9557 2506.39,90.2035 2501.7,90.4513 2497.72,90.6992 2494.49,90.947 2492.03,91.1948 2490.36,91.4427 2489.5,91.6905 2489.45,91.9383 2490.21,92.1862 2491.76,92.434 2494.1,92.6818 2497.18,92.9297 2500.97,93.1775 2505.43,93.4254 2510.5,93.6732 2516.13,93.921 2522.24,94.1689 2528.77,94.4167 2535.64,94.6645 2542.77,94.9124 2550.09,95.1602 2557.51,95.408 2564.95,95.6559 2572.33,95.9037 2579.58,96.1516 2586.62,96.3994 2593.39,96.6472 2599.83,96.8951 2605.89,97.1429 2611.51,97.3907 2616.66,97.6386 2621.31,97.8864 2625.44,98.1342 2629.03,98.3821 2632.08,98.6299 2634.6,98.8777 2636.59,99.1256 2638.08,99.3734 2639.1,99.6213 2639.67,99.8691 2639.84,100.117 2639.65,100.365 2639.15,100.613 2638.39,100.86 2637.43,101.108 2636.31,101.356 2635.1,101.604 2633.84,101.852 2632.59,102.1 2631.41,102.347 2630.34,102.595 2629.43,102.843 2628.72,103.091 2628.25,103.339 2628.05,103.587 2628.16,103.834 2628.58,104.082 2629.35,104.33 2630.48,104.578 2631.97,104.826 2633.83,105.074 2636.05,105.321 2638.64,105.569 2641.57,105.817 2921.74,105.817 "/>
</svg>
