<?xml version="1.0" encoding="utf-8"?>
<svg xmlns="http://www.w3.org/2000/svg" xmlns:xlink="http://www.w3.org/1999/xlink" width="800" height="400" viewBox="0 0 3200 1600">
<defs>
  <clipPath id="clip390">
    <rect x="0" y="0" width="3200" height="1600"/>
  </clipPath>
</defs>
<path clip-path="url(#clip390)" d="M0 1600 L3200 1600 L3200 0 L0 0  Z" fill="#ffffff" fill-rule="evenodd" fill-opacity="1"/>
<defs>
  <clipPath id="clip391">
    <rect x="334" y="47" width="2819" height="1449"/>
  </clipPath>
</defs>
<path clip-path="url(#clip390)" d="M334.412 1495.09 L3152.76 1495.09 L3152.76 47.2441 L334.412 47.2441  Z" fill="#ffffff" fill-rule="evenodd" fill-opacity="1"/>
<polyline clip-path="url(#clip391)" style="stroke:#000000; stroke-linecap:round; stroke-linejoin:round; stroke-width:2; stroke-opacity:0.1; fill:none" points="626.881,1495.09 626.881,47.2441 "/>
<polyline clip-path="url(#clip391)" style="stroke:#000000; stroke-linecap:round; stroke-linejoin:round; stroke-width:2; stroke-opacity:0.1; fill:none" points="1371.35,1495.09 1371.35,47.2441 "/>
<polyline clip-path="url(#clip391)" style="stroke:#000000; stroke-linecap:round; stroke-linejoin:round; stroke-width:2; stroke-opacity:0.1; fill:none" points="2115.82,1495.09 2115.82,47.2441 "/>
<polyline clip-path="url(#clip391)" style="stroke:#000000; stroke-linecap:round; stroke-linejoin:round; stroke-width:2; stroke-opacity:0.1; fill:none" points="2860.29,1495.09 2860.29,47.2441 "/>
<polyline clip-path="url(#clip391)" style="stroke:#000000; stroke-linecap:round; stroke-linejoin:round; stroke-width:2; stroke-opacity:0.1; fill:none" points="334.412,1329.94 3152.76,1329.94 "/>
<polyline clip-path="url(#clip391)" style="stroke:#000000; stroke-linecap:round; stroke-linejoin:round; stroke-width:2; stroke-opacity:0.1; fill:none" points="334.412,995.814 3152.76,995.814 "/>
<polyline clip-path="url(#clip391)" style="stroke:#000000; stroke-linecap:round; stroke-linejoin:round; stroke-width:2; stroke-opacity:0.1; fill:none" points="334.412,661.683 3152.76,661.683 "/>
<polyline clip-path="url(#clip391)" style="stroke:#000000; stroke-linecap:round; stroke-linejoin:round; stroke-width:2; stroke-opacity:0.1; fill:none" points="334.412,327.553 3152.76,327.553 "/>
<polyline clip-path="url(#clip390)" style="stroke:#000000; stroke-linecap:round; stroke-linejoin:round; stroke-width:4; stroke-opacity:1; fill:none" points="334.412,1495.09 3152.76,1495.09 "/>
<polyline clip-path="url(#clip390)" style="stroke:#000000; stroke-linecap:round; stroke-linejoin:round; stroke-width:4; stroke-opacity:1; fill:none" points="626.881,1495.09 626.881,1476.19 "/>
<polyline clip-path="url(#clip390)" style="stroke:#000000; stroke-linecap:round; stroke-linejoin:round; stroke-width:4; stroke-opacity:1; fill:none" points="1371.35,1495.09 1371.35,1476.19 "/>
<polyline clip-path="url(#clip390)" style="stroke:#000000; stroke-linecap:round; stroke-linejoin:round; stroke-width:4; stroke-opacity:1; fill:none" points="2115.82,1495.09 2115.82,1476.19 "/>
<polyline clip-path="url(#clip390)" style="stroke:#000000; stroke-linecap:round; stroke-linejoin:round; stroke-width:4; stroke-opacity:1; fill:none" points="2860.29,1495.09 2860.29,1476.19 "/>
<path clip-path="url(#clip390)" d="M560.759 1547.68 Q562.264 1548.19 563.676 1549.86 Q565.111 1551.53 566.546 1554.44 L571.291 1563.89 L566.268 1563.89 L561.847 1555.02 Q560.134 1551.55 558.514 1550.42 Q556.916 1549.28 554.139 1549.28 L549.046 1549.28 L549.046 1563.89 L544.37 1563.89 L544.37 1529.33 L554.926 1529.33 Q560.852 1529.33 563.768 1531.8 Q566.685 1534.28 566.685 1539.28 Q566.685 1542.55 565.157 1544.7 Q563.652 1546.85 560.759 1547.68 M549.046 1533.17 L549.046 1545.44 L554.926 1545.44 Q558.305 1545.44 560.018 1543.89 Q561.754 1542.31 561.754 1539.28 Q561.754 1536.25 560.018 1534.72 Q558.305 1533.17 554.926 1533.17 L549.046 1533.17 Z" fill="#000000" fill-rule="nonzero" fill-opacity="1" /><path clip-path="url(#clip390)" d="M585.041 1540.95 Q581.615 1540.95 579.625 1543.63 Q577.634 1546.3 577.634 1550.95 Q577.634 1555.6 579.601 1558.29 Q581.592 1560.95 585.041 1560.95 Q588.444 1560.95 590.435 1558.26 Q592.425 1555.58 592.425 1550.95 Q592.425 1546.34 590.435 1543.66 Q588.444 1540.95 585.041 1540.95 M585.041 1537.34 Q590.597 1537.34 593.768 1540.95 Q596.939 1544.56 596.939 1550.95 Q596.939 1557.31 593.768 1560.95 Q590.597 1564.56 585.041 1564.56 Q579.463 1564.56 576.291 1560.95 Q573.143 1557.31 573.143 1550.95 Q573.143 1544.56 576.291 1540.95 Q579.463 1537.34 585.041 1537.34 Z" fill="#000000" fill-rule="nonzero" fill-opacity="1" /><path clip-path="url(#clip390)" d="M621.06 1541.9 L621.06 1527.87 L625.319 1527.87 L625.319 1563.89 L621.06 1563.89 L621.06 1560 Q619.717 1562.31 617.657 1563.45 Q615.62 1564.56 612.749 1564.56 Q608.05 1564.56 605.087 1560.81 Q602.148 1557.06 602.148 1550.95 Q602.148 1544.84 605.087 1541.09 Q608.05 1537.34 612.749 1537.34 Q615.62 1537.34 617.657 1538.47 Q619.717 1539.58 621.06 1541.9 M606.546 1550.95 Q606.546 1555.65 608.467 1558.33 Q610.411 1560.99 613.791 1560.99 Q617.171 1560.99 619.115 1558.33 Q621.06 1555.65 621.06 1550.95 Q621.06 1546.25 619.115 1543.59 Q617.171 1540.9 613.791 1540.9 Q610.411 1540.9 608.467 1543.59 Q606.546 1546.25 606.546 1550.95 Z" fill="#000000" fill-rule="nonzero" fill-opacity="1" /><path clip-path="url(#clip390)" d="M645.874 1550.86 Q640.712 1550.86 638.721 1552.04 Q636.731 1553.22 636.731 1556.06 Q636.731 1558.33 638.212 1559.67 Q639.717 1560.99 642.286 1560.99 Q645.828 1560.99 647.958 1558.49 Q650.11 1555.97 650.11 1551.8 L650.11 1550.86 L645.874 1550.86 M654.37 1549.1 L654.37 1563.89 L650.11 1563.89 L650.11 1559.95 Q648.652 1562.31 646.476 1563.45 Q644.3 1564.56 641.152 1564.56 Q637.171 1564.56 634.809 1562.34 Q632.472 1560.09 632.472 1556.34 Q632.472 1551.97 635.388 1549.74 Q638.328 1547.52 644.138 1547.52 L650.11 1547.52 L650.11 1547.11 Q650.11 1544.17 648.166 1542.57 Q646.245 1540.95 642.749 1540.95 Q640.527 1540.95 638.421 1541.48 Q636.314 1542.01 634.37 1543.08 L634.37 1539.14 Q636.708 1538.24 638.907 1537.8 Q641.106 1537.34 643.189 1537.34 Q648.814 1537.34 651.592 1540.25 Q654.37 1543.17 654.37 1549.1 Z" fill="#000000" fill-rule="nonzero" fill-opacity="1" /><path clip-path="url(#clip390)" d="M679.67 1538.73 L679.67 1542.75 Q677.865 1541.83 675.92 1541.36 Q673.976 1540.9 671.893 1540.9 Q668.721 1540.9 667.124 1541.87 Q665.55 1542.85 665.55 1544.79 Q665.55 1546.27 666.684 1547.13 Q667.819 1547.96 671.244 1548.73 L672.703 1549.05 Q677.24 1550.02 679.138 1551.8 Q681.059 1553.56 681.059 1556.74 Q681.059 1560.35 678.189 1562.45 Q675.342 1564.56 670.342 1564.56 Q668.258 1564.56 665.99 1564.14 Q663.744 1563.75 661.244 1562.94 L661.244 1558.54 Q663.606 1559.77 665.897 1560.39 Q668.189 1560.99 670.434 1560.99 Q673.444 1560.99 675.064 1559.98 Q676.684 1558.93 676.684 1557.06 Q676.684 1555.32 675.504 1554.4 Q674.346 1553.47 670.388 1552.61 L668.906 1552.27 Q664.948 1551.43 663.189 1549.72 Q661.43 1547.99 661.43 1544.98 Q661.43 1541.32 664.022 1539.33 Q666.615 1537.34 671.383 1537.34 Q673.744 1537.34 675.828 1537.68 Q677.911 1538.03 679.67 1538.73 Z" fill="#000000" fill-rule="nonzero" fill-opacity="1" /><path clip-path="url(#clip390)" d="M688.49 1529.33 L706.846 1529.33 L706.846 1533.26 L692.772 1533.26 L692.772 1541.74 Q693.791 1541.39 694.809 1541.23 Q695.828 1541.04 696.846 1541.04 Q702.633 1541.04 706.013 1544.21 Q709.392 1547.38 709.392 1552.8 Q709.392 1558.38 705.92 1561.48 Q702.448 1564.56 696.129 1564.56 Q693.953 1564.56 691.684 1564.19 Q689.439 1563.82 687.031 1563.08 L687.031 1558.38 Q689.115 1559.51 691.337 1560.07 Q693.559 1560.62 696.036 1560.62 Q700.041 1560.62 702.379 1558.52 Q704.716 1556.41 704.716 1552.8 Q704.716 1549.19 702.379 1547.08 Q700.041 1544.98 696.036 1544.98 Q694.161 1544.98 692.286 1545.39 Q690.434 1545.81 688.49 1546.69 L688.49 1529.33 Z" fill="#000000" fill-rule="nonzero" fill-opacity="1" /><path clip-path="url(#clip390)" d="M1304.49 1547.68 Q1305.99 1548.19 1307.4 1549.86 Q1308.84 1551.53 1310.27 1554.44 L1315.02 1563.89 L1310 1563.89 L1305.57 1555.02 Q1303.86 1551.55 1302.24 1550.42 Q1300.64 1549.28 1297.87 1549.28 L1292.77 1549.28 L1292.77 1563.89 L1288.1 1563.89 L1288.1 1529.33 L1298.65 1529.33 Q1304.58 1529.33 1307.5 1531.8 Q1310.41 1534.28 1310.41 1539.28 Q1310.41 1542.55 1308.88 1544.7 Q1307.38 1546.85 1304.49 1547.68 M1292.77 1533.17 L1292.77 1545.44 L1298.65 1545.44 Q1302.03 1545.44 1303.75 1543.89 Q1305.48 1542.31 1305.48 1539.28 Q1305.48 1536.25 1303.75 1534.72 Q1302.03 1533.17 1298.65 1533.17 L1292.77 1533.17 Z" fill="#000000" fill-rule="nonzero" fill-opacity="1" /><path clip-path="url(#clip390)" d="M1328.77 1540.95 Q1325.34 1540.95 1323.35 1543.63 Q1321.36 1546.3 1321.36 1550.95 Q1321.36 1555.6 1323.33 1558.29 Q1325.32 1560.95 1328.77 1560.95 Q1332.17 1560.95 1334.16 1558.26 Q1336.15 1555.58 1336.15 1550.95 Q1336.15 1546.34 1334.16 1543.66 Q1332.17 1540.95 1328.77 1540.95 M1328.77 1537.34 Q1334.32 1537.34 1337.5 1540.95 Q1340.67 1544.56 1340.67 1550.95 Q1340.67 1557.31 1337.5 1560.95 Q1334.32 1564.56 1328.77 1564.56 Q1323.19 1564.56 1320.02 1560.95 Q1316.87 1557.31 1316.87 1550.95 Q1316.87 1544.56 1320.02 1540.95 Q1323.19 1537.34 1328.77 1537.34 Z" fill="#000000" fill-rule="nonzero" fill-opacity="1" /><path clip-path="url(#clip390)" d="M1364.79 1541.9 L1364.79 1527.87 L1369.05 1527.87 L1369.05 1563.89 L1364.79 1563.89 L1364.79 1560 Q1363.44 1562.31 1361.38 1563.45 Q1359.35 1564.56 1356.48 1564.56 Q1351.78 1564.56 1348.81 1560.81 Q1345.88 1557.06 1345.88 1550.95 Q1345.88 1544.84 1348.81 1541.09 Q1351.78 1537.34 1356.48 1537.34 Q1359.35 1537.34 1361.38 1538.47 Q1363.44 1539.58 1364.79 1541.9 M1350.27 1550.95 Q1350.27 1555.65 1352.19 1558.33 Q1354.14 1560.99 1357.52 1560.99 Q1360.9 1560.99 1362.84 1558.33 Q1364.79 1555.65 1364.79 1550.95 Q1364.79 1546.25 1362.84 1543.59 Q1360.9 1540.9 1357.52 1540.9 Q1354.14 1540.9 1352.19 1543.59 Q1350.27 1546.25 1350.27 1550.95 Z" fill="#000000" fill-rule="nonzero" fill-opacity="1" /><path clip-path="url(#clip390)" d="M1389.6 1550.86 Q1384.44 1550.86 1382.45 1552.04 Q1380.46 1553.22 1380.46 1556.06 Q1380.46 1558.33 1381.94 1559.67 Q1383.44 1560.99 1386.01 1560.99 Q1389.56 1560.99 1391.69 1558.49 Q1393.84 1555.97 1393.84 1551.8 L1393.84 1550.86 L1389.6 1550.86 M1398.1 1549.1 L1398.1 1563.89 L1393.84 1563.89 L1393.84 1559.95 Q1392.38 1562.31 1390.2 1563.45 Q1388.03 1564.56 1384.88 1564.56 Q1380.9 1564.56 1378.54 1562.34 Q1376.2 1560.09 1376.2 1556.34 Q1376.2 1551.97 1379.12 1549.74 Q1382.06 1547.52 1387.87 1547.52 L1393.84 1547.52 L1393.84 1547.11 Q1393.84 1544.17 1391.89 1542.57 Q1389.97 1540.95 1386.48 1540.95 Q1384.25 1540.95 1382.15 1541.48 Q1380.04 1542.01 1378.1 1543.08 L1378.1 1539.14 Q1380.44 1538.24 1382.63 1537.8 Q1384.83 1537.34 1386.92 1537.34 Q1392.54 1537.34 1395.32 1540.25 Q1398.1 1543.17 1398.1 1549.1 Z" fill="#000000" fill-rule="nonzero" fill-opacity="1" /><path clip-path="url(#clip390)" d="M1423.4 1538.73 L1423.4 1542.75 Q1421.59 1541.83 1419.65 1541.36 Q1417.7 1540.9 1415.62 1540.9 Q1412.45 1540.9 1410.85 1541.87 Q1409.28 1542.85 1409.28 1544.79 Q1409.28 1546.27 1410.41 1547.13 Q1411.55 1547.96 1414.97 1548.73 L1416.43 1549.05 Q1420.97 1550.02 1422.87 1551.8 Q1424.79 1553.56 1424.79 1556.74 Q1424.79 1560.35 1421.92 1562.45 Q1419.07 1564.56 1414.07 1564.56 Q1411.99 1564.56 1409.72 1564.14 Q1407.47 1563.75 1404.97 1562.94 L1404.97 1558.54 Q1407.33 1559.77 1409.62 1560.39 Q1411.92 1560.99 1414.16 1560.99 Q1417.17 1560.99 1418.79 1559.98 Q1420.41 1558.93 1420.41 1557.06 Q1420.41 1555.32 1419.23 1554.4 Q1418.07 1553.47 1414.12 1552.61 L1412.63 1552.27 Q1408.68 1551.43 1406.92 1549.72 Q1405.16 1547.99 1405.16 1544.98 Q1405.16 1541.32 1407.75 1539.33 Q1410.34 1537.34 1415.11 1537.34 Q1417.47 1537.34 1419.56 1537.68 Q1421.64 1538.03 1423.4 1538.73 Z" fill="#000000" fill-rule="nonzero" fill-opacity="1" /><path clip-path="url(#clip390)" d="M1445.02 1533.4 L1433.21 1551.85 L1445.02 1551.85 L1445.02 1533.4 M1443.79 1529.33 L1449.67 1529.33 L1449.67 1551.85 L1454.6 1551.85 L1454.6 1555.74 L1449.67 1555.74 L1449.67 1563.89 L1445.02 1563.89 L1445.02 1555.74 L1429.42 1555.74 L1429.42 1551.23 L1443.79 1529.33 Z" fill="#000000" fill-rule="nonzero" fill-opacity="1" /><path clip-path="url(#clip390)" d="M2034.14 1547.68 Q2035.64 1548.19 2037.06 1549.86 Q2038.49 1551.53 2039.93 1554.44 L2044.67 1563.89 L2039.65 1563.89 L2035.23 1555.02 Q2033.52 1551.55 2031.89 1550.42 Q2030.3 1549.28 2027.52 1549.28 L2022.43 1549.28 L2022.43 1563.89 L2017.75 1563.89 L2017.75 1529.33 L2028.31 1529.33 Q2034.23 1529.33 2037.15 1531.8 Q2040.07 1534.28 2040.07 1539.28 Q2040.07 1542.55 2038.54 1544.7 Q2037.03 1546.85 2034.14 1547.68 M2022.43 1533.17 L2022.43 1545.44 L2028.31 1545.44 Q2031.69 1545.44 2033.4 1543.89 Q2035.14 1542.31 2035.14 1539.28 Q2035.14 1536.25 2033.4 1534.72 Q2031.69 1533.17 2028.31 1533.17 L2022.43 1533.17 Z" fill="#000000" fill-rule="nonzero" fill-opacity="1" /><path clip-path="url(#clip390)" d="M2058.42 1540.95 Q2055 1540.95 2053.01 1543.63 Q2051.01 1546.3 2051.01 1550.95 Q2051.01 1555.6 2052.98 1558.29 Q2054.97 1560.95 2058.42 1560.95 Q2061.83 1560.95 2063.82 1558.26 Q2065.81 1555.58 2065.81 1550.95 Q2065.81 1546.34 2063.82 1543.66 Q2061.83 1540.95 2058.42 1540.95 M2058.42 1537.34 Q2063.98 1537.34 2067.15 1540.95 Q2070.32 1544.56 2070.32 1550.95 Q2070.32 1557.31 2067.15 1560.95 Q2063.98 1564.56 2058.42 1564.56 Q2052.84 1564.56 2049.67 1560.95 Q2046.52 1557.31 2046.52 1550.95 Q2046.52 1544.56 2049.67 1540.95 Q2052.84 1537.34 2058.42 1537.34 Z" fill="#000000" fill-rule="nonzero" fill-opacity="1" /><path clip-path="url(#clip390)" d="M2094.44 1541.9 L2094.44 1527.87 L2098.7 1527.87 L2098.7 1563.89 L2094.44 1563.89 L2094.44 1560 Q2093.1 1562.31 2091.04 1563.45 Q2089 1564.56 2086.13 1564.56 Q2081.43 1564.56 2078.47 1560.81 Q2075.53 1557.06 2075.53 1550.95 Q2075.53 1544.84 2078.47 1541.09 Q2081.43 1537.34 2086.13 1537.34 Q2089 1537.34 2091.04 1538.47 Q2093.1 1539.58 2094.44 1541.9 M2079.93 1550.95 Q2079.93 1555.65 2081.85 1558.33 Q2083.79 1560.99 2087.17 1560.99 Q2090.55 1560.99 2092.5 1558.33 Q2094.44 1555.65 2094.44 1550.95 Q2094.44 1546.25 2092.5 1543.59 Q2090.55 1540.9 2087.17 1540.9 Q2083.79 1540.9 2081.85 1543.59 Q2079.93 1546.25 2079.93 1550.95 Z" fill="#000000" fill-rule="nonzero" fill-opacity="1" /><path clip-path="url(#clip390)" d="M2119.26 1550.86 Q2114.09 1550.86 2112.1 1552.04 Q2110.11 1553.22 2110.11 1556.06 Q2110.11 1558.33 2111.59 1559.67 Q2113.1 1560.99 2115.67 1560.99 Q2119.21 1560.99 2121.34 1558.49 Q2123.49 1555.97 2123.49 1551.8 L2123.49 1550.86 L2119.26 1550.86 M2127.75 1549.1 L2127.75 1563.89 L2123.49 1563.89 L2123.49 1559.95 Q2122.03 1562.31 2119.86 1563.45 Q2117.68 1564.56 2114.53 1564.56 Q2110.55 1564.56 2108.19 1562.34 Q2105.85 1560.09 2105.85 1556.34 Q2105.85 1551.97 2108.77 1549.74 Q2111.71 1547.52 2117.52 1547.52 L2123.49 1547.52 L2123.49 1547.11 Q2123.49 1544.17 2121.55 1542.57 Q2119.63 1540.95 2116.13 1540.95 Q2113.91 1540.95 2111.8 1541.48 Q2109.7 1542.01 2107.75 1543.08 L2107.75 1539.14 Q2110.09 1538.24 2112.29 1537.8 Q2114.49 1537.34 2116.57 1537.34 Q2122.2 1537.34 2124.97 1540.25 Q2127.75 1543.17 2127.75 1549.1 Z" fill="#000000" fill-rule="nonzero" fill-opacity="1" /><path clip-path="url(#clip390)" d="M2153.05 1538.73 L2153.05 1542.75 Q2151.25 1541.83 2149.3 1541.36 Q2147.36 1540.9 2145.27 1540.9 Q2142.1 1540.9 2140.51 1541.87 Q2138.93 1542.85 2138.93 1544.79 Q2138.93 1546.27 2140.07 1547.13 Q2141.2 1547.96 2144.63 1548.73 L2146.08 1549.05 Q2150.62 1550.02 2152.52 1551.8 Q2154.44 1553.56 2154.44 1556.74 Q2154.44 1560.35 2151.57 1562.45 Q2148.72 1564.56 2143.72 1564.56 Q2141.64 1564.56 2139.37 1564.14 Q2137.13 1563.75 2134.63 1562.94 L2134.63 1558.54 Q2136.99 1559.77 2139.28 1560.39 Q2141.57 1560.99 2143.82 1560.99 Q2146.82 1560.99 2148.45 1559.98 Q2150.07 1558.93 2150.07 1557.06 Q2150.07 1555.32 2148.88 1554.4 Q2147.73 1553.47 2143.77 1552.61 L2142.29 1552.27 Q2138.33 1551.43 2136.57 1549.72 Q2134.81 1547.99 2134.81 1544.98 Q2134.81 1541.32 2137.4 1539.33 Q2140 1537.34 2144.76 1537.34 Q2147.13 1537.34 2149.21 1537.68 Q2151.29 1538.03 2153.05 1538.73 Z" fill="#000000" fill-rule="nonzero" fill-opacity="1" /><path clip-path="url(#clip390)" d="M2161.87 1529.33 L2180.23 1529.33 L2180.23 1533.26 L2166.15 1533.26 L2166.15 1541.74 Q2167.17 1541.39 2168.19 1541.23 Q2169.21 1541.04 2170.23 1541.04 Q2176.01 1541.04 2179.39 1544.21 Q2182.77 1547.38 2182.77 1552.8 Q2182.77 1558.38 2179.3 1561.48 Q2175.83 1564.56 2169.51 1564.56 Q2167.33 1564.56 2165.07 1564.19 Q2162.82 1563.82 2160.41 1563.08 L2160.41 1558.38 Q2162.5 1559.51 2164.72 1560.07 Q2166.94 1560.62 2169.42 1560.62 Q2173.42 1560.62 2175.76 1558.52 Q2178.1 1556.41 2178.1 1552.8 Q2178.1 1549.19 2175.76 1547.08 Q2173.42 1544.98 2169.42 1544.98 Q2167.54 1544.98 2165.67 1545.39 Q2163.82 1545.81 2161.87 1546.69 L2161.87 1529.33 Z" fill="#000000" fill-rule="nonzero" fill-opacity="1" /><path clip-path="url(#clip390)" d="M2196.25 1533.17 L2196.25 1546.16 L2202.13 1546.16 Q2205.39 1546.16 2207.17 1544.47 Q2208.95 1542.78 2208.95 1539.65 Q2208.95 1536.55 2207.17 1534.86 Q2205.39 1533.17 2202.13 1533.17 L2196.25 1533.17 M2191.57 1529.33 L2202.13 1529.33 Q2207.94 1529.33 2210.9 1531.97 Q2213.88 1534.58 2213.88 1539.65 Q2213.88 1544.77 2210.9 1547.38 Q2207.94 1550 2202.13 1550 L2196.25 1550 L2196.25 1563.89 L2191.57 1563.89 L2191.57 1529.33 Z" fill="#000000" fill-rule="nonzero" fill-opacity="1" /><path clip-path="url(#clip390)" d="M2778.61 1547.68 Q2780.11 1548.19 2781.53 1549.86 Q2782.96 1551.53 2784.4 1554.44 L2789.14 1563.89 L2784.12 1563.89 L2779.7 1555.02 Q2777.98 1551.55 2776.36 1550.42 Q2774.77 1549.28 2771.99 1549.28 L2766.9 1549.28 L2766.9 1563.89 L2762.22 1563.89 L2762.22 1529.33 L2772.78 1529.33 Q2778.7 1529.33 2781.62 1531.8 Q2784.53 1534.28 2784.53 1539.28 Q2784.53 1542.55 2783.01 1544.7 Q2781.5 1546.85 2778.61 1547.68 M2766.9 1533.17 L2766.9 1545.44 L2772.78 1545.44 Q2776.15 1545.44 2777.87 1543.89 Q2779.6 1542.31 2779.6 1539.28 Q2779.6 1536.25 2777.87 1534.72 Q2776.15 1533.17 2772.78 1533.17 L2766.9 1533.17 Z" fill="#000000" fill-rule="nonzero" fill-opacity="1" /><path clip-path="url(#clip390)" d="M2802.89 1540.95 Q2799.46 1540.95 2797.47 1543.63 Q2795.48 1546.3 2795.48 1550.95 Q2795.48 1555.6 2797.45 1558.29 Q2799.44 1560.95 2802.89 1560.95 Q2806.29 1560.95 2808.28 1558.26 Q2810.27 1555.58 2810.27 1550.95 Q2810.27 1546.34 2808.28 1543.66 Q2806.29 1540.95 2802.89 1540.95 M2802.89 1537.34 Q2808.45 1537.34 2811.62 1540.95 Q2814.79 1544.56 2814.79 1550.95 Q2814.79 1557.31 2811.62 1560.95 Q2808.45 1564.56 2802.89 1564.56 Q2797.31 1564.56 2794.14 1560.95 Q2790.99 1557.31 2790.99 1550.95 Q2790.99 1544.56 2794.14 1540.95 Q2797.31 1537.34 2802.89 1537.34 Z" fill="#000000" fill-rule="nonzero" fill-opacity="1" /><path clip-path="url(#clip390)" d="M2838.91 1541.9 L2838.91 1527.87 L2843.17 1527.87 L2843.17 1563.89 L2838.91 1563.89 L2838.91 1560 Q2837.57 1562.31 2835.51 1563.45 Q2833.47 1564.56 2830.6 1564.56 Q2825.9 1564.56 2822.94 1560.81 Q2820 1557.06 2820 1550.95 Q2820 1544.84 2822.94 1541.09 Q2825.9 1537.34 2830.6 1537.34 Q2833.47 1537.34 2835.51 1538.47 Q2837.57 1539.58 2838.91 1541.9 M2824.4 1550.95 Q2824.4 1555.65 2826.32 1558.33 Q2828.26 1560.99 2831.64 1560.99 Q2835.02 1560.99 2836.96 1558.33 Q2838.91 1555.65 2838.91 1550.95 Q2838.91 1546.25 2836.96 1543.59 Q2835.02 1540.9 2831.64 1540.9 Q2828.26 1540.9 2826.32 1543.59 Q2824.4 1546.25 2824.4 1550.95 Z" fill="#000000" fill-rule="nonzero" fill-opacity="1" /><path clip-path="url(#clip390)" d="M2863.72 1550.86 Q2858.56 1550.86 2856.57 1552.04 Q2854.58 1553.22 2854.58 1556.06 Q2854.58 1558.33 2856.06 1559.67 Q2857.57 1560.99 2860.14 1560.99 Q2863.68 1560.99 2865.81 1558.49 Q2867.96 1555.97 2867.96 1551.8 L2867.96 1550.86 L2863.72 1550.86 M2872.22 1549.1 L2872.22 1563.89 L2867.96 1563.89 L2867.96 1559.95 Q2866.5 1562.31 2864.33 1563.45 Q2862.15 1564.56 2859 1564.56 Q2855.02 1564.56 2852.66 1562.34 Q2850.32 1560.09 2850.32 1556.34 Q2850.32 1551.97 2853.24 1549.74 Q2856.18 1547.52 2861.99 1547.52 L2867.96 1547.52 L2867.96 1547.11 Q2867.96 1544.17 2866.02 1542.57 Q2864.09 1540.95 2860.6 1540.95 Q2858.38 1540.95 2856.27 1541.48 Q2854.16 1542.01 2852.22 1543.08 L2852.22 1539.14 Q2854.56 1538.24 2856.76 1537.8 Q2858.96 1537.34 2861.04 1537.34 Q2866.66 1537.34 2869.44 1540.25 Q2872.22 1543.17 2872.22 1549.1 Z" fill="#000000" fill-rule="nonzero" fill-opacity="1" /><path clip-path="url(#clip390)" d="M2897.52 1538.73 L2897.52 1542.75 Q2895.71 1541.83 2893.77 1541.36 Q2891.83 1540.9 2889.74 1540.9 Q2886.57 1540.9 2884.97 1541.87 Q2883.4 1542.85 2883.4 1544.79 Q2883.4 1546.27 2884.53 1547.13 Q2885.67 1547.96 2889.09 1548.73 L2890.55 1549.05 Q2895.09 1550.02 2896.99 1551.8 Q2898.91 1553.56 2898.91 1556.74 Q2898.91 1560.35 2896.04 1562.45 Q2893.19 1564.56 2888.19 1564.56 Q2886.11 1564.56 2883.84 1564.14 Q2881.59 1563.75 2879.09 1562.94 L2879.09 1558.54 Q2881.46 1559.77 2883.75 1560.39 Q2886.04 1560.99 2888.28 1560.99 Q2891.29 1560.99 2892.91 1559.98 Q2894.53 1558.93 2894.53 1557.06 Q2894.53 1555.32 2893.35 1554.4 Q2892.2 1553.47 2888.24 1552.61 L2886.76 1552.27 Q2882.8 1551.43 2881.04 1549.72 Q2879.28 1547.99 2879.28 1544.98 Q2879.28 1541.32 2881.87 1539.33 Q2884.46 1537.34 2889.23 1537.34 Q2891.59 1537.34 2893.68 1537.68 Q2895.76 1538.03 2897.52 1538.73 Z" fill="#000000" fill-rule="nonzero" fill-opacity="1" /><path clip-path="url(#clip390)" d="M2919.14 1533.4 L2907.33 1551.85 L2919.14 1551.85 L2919.14 1533.4 M2917.91 1529.33 L2923.79 1529.33 L2923.79 1551.85 L2928.72 1551.85 L2928.72 1555.74 L2923.79 1555.74 L2923.79 1563.89 L2919.14 1563.89 L2919.14 1555.74 L2903.54 1555.74 L2903.54 1551.23 L2917.91 1529.33 Z" fill="#000000" fill-rule="nonzero" fill-opacity="1" /><path clip-path="url(#clip390)" d="M2940.71 1533.17 L2940.71 1546.16 L2946.59 1546.16 Q2949.86 1546.16 2951.64 1544.47 Q2953.42 1542.78 2953.42 1539.65 Q2953.42 1536.55 2951.64 1534.86 Q2949.86 1533.17 2946.59 1533.17 L2940.71 1533.17 M2936.04 1529.33 L2946.59 1529.33 Q2952.4 1529.33 2955.37 1531.97 Q2958.35 1534.58 2958.35 1539.65 Q2958.35 1544.77 2955.37 1547.38 Q2952.4 1550 2946.59 1550 L2940.71 1550 L2940.71 1563.89 L2936.04 1563.89 L2936.04 1529.33 Z" fill="#000000" fill-rule="nonzero" fill-opacity="1" /><polyline clip-path="url(#clip390)" style="stroke:#000000; stroke-linecap:round; stroke-linejoin:round; stroke-width:4; stroke-opacity:1; fill:none" points="334.412,1495.09 334.412,47.2441 "/>
<polyline clip-path="url(#clip390)" style="stroke:#000000; stroke-linecap:round; stroke-linejoin:round; stroke-width:4; stroke-opacity:1; fill:none" points="334.412,1329.94 353.309,1329.94 "/>
<polyline clip-path="url(#clip390)" style="stroke:#000000; stroke-linecap:round; stroke-linejoin:round; stroke-width:4; stroke-opacity:1; fill:none" points="334.412,995.814 353.309,995.814 "/>
<polyline clip-path="url(#clip390)" style="stroke:#000000; stroke-linecap:round; stroke-linejoin:round; stroke-width:4; stroke-opacity:1; fill:none" points="334.412,661.683 353.309,661.683 "/>
<polyline clip-path="url(#clip390)" style="stroke:#000000; stroke-linecap:round; stroke-linejoin:round; stroke-width:4; stroke-opacity:1; fill:none" points="334.412,327.553 353.309,327.553 "/>
<path clip-path="url(#clip390)" d="M115.301 1335.04 Q118.658 1335.76 120.533 1338.02 Q122.431 1340.29 122.431 1343.63 Q122.431 1348.74 118.912 1351.54 Q115.394 1354.34 108.913 1354.34 Q106.737 1354.34 104.422 1353.9 Q102.13 1353.49 99.6764 1352.63 L99.6764 1348.12 Q101.621 1349.25 103.936 1349.83 Q106.25 1350.41 108.774 1350.41 Q113.172 1350.41 115.463 1348.67 Q117.778 1346.94 117.778 1343.63 Q117.778 1340.57 115.625 1338.86 Q113.496 1337.12 109.676 1337.12 L105.649 1337.12 L105.649 1333.28 L109.862 1333.28 Q113.311 1333.28 115.139 1331.91 Q116.968 1330.52 116.968 1327.93 Q116.968 1325.27 115.07 1323.86 Q113.195 1322.42 109.676 1322.42 Q107.755 1322.42 105.556 1322.84 Q103.357 1323.26 100.718 1324.14 L100.718 1319.97 Q103.38 1319.23 105.695 1318.86 Q108.033 1318.49 110.093 1318.49 Q115.417 1318.49 118.519 1320.92 Q121.621 1323.33 121.621 1327.45 Q121.621 1330.32 119.977 1332.31 Q118.334 1334.27 115.301 1335.04 Z" fill="#000000" fill-rule="nonzero" fill-opacity="1" /><path clip-path="url(#clip390)" d="M131.297 1347.79 L136.181 1347.79 L136.181 1353.67 L131.297 1353.67 L131.297 1347.79 Z" fill="#000000" fill-rule="nonzero" fill-opacity="1" /><path clip-path="url(#clip390)" d="M156.366 1322.19 Q152.755 1322.19 150.926 1325.76 Q149.121 1329.3 149.121 1336.43 Q149.121 1343.53 150.926 1347.1 Q152.755 1350.64 156.366 1350.64 Q160 1350.64 161.806 1347.1 Q163.634 1343.53 163.634 1336.43 Q163.634 1329.3 161.806 1325.76 Q160 1322.19 156.366 1322.19 M156.366 1318.49 Q162.176 1318.49 165.232 1323.09 Q168.31 1327.68 168.31 1336.43 Q168.31 1345.15 165.232 1349.76 Q162.176 1354.34 156.366 1354.34 Q150.556 1354.34 147.477 1349.76 Q144.422 1345.15 144.422 1336.43 Q144.422 1327.68 147.477 1323.09 Q150.556 1318.49 156.366 1318.49 Z" fill="#000000" fill-rule="nonzero" fill-opacity="1" /><path clip-path="url(#clip390)" d="M204.699 1328.21 L194.12 1338.83 L204.699 1349.41 L201.944 1352.21 L191.319 1341.59 L180.695 1352.21 L177.963 1349.41 L188.519 1338.83 L177.963 1328.21 L180.695 1325.41 L191.319 1336.03 L201.944 1325.41 L204.699 1328.21 Z" fill="#000000" fill-rule="nonzero" fill-opacity="1" /><path clip-path="url(#clip390)" d="M217.06 1349.74 L224.699 1349.74 L224.699 1323.37 L216.389 1325.04 L216.389 1320.78 L224.653 1319.11 L229.329 1319.11 L229.329 1349.74 L236.967 1349.74 L236.967 1353.67 L217.06 1353.67 L217.06 1349.74 Z" fill="#000000" fill-rule="nonzero" fill-opacity="1" /><path clip-path="url(#clip390)" d="M256.412 1322.19 Q252.801 1322.19 250.972 1325.76 Q249.166 1329.3 249.166 1336.43 Q249.166 1343.53 250.972 1347.1 Q252.801 1350.64 256.412 1350.64 Q260.046 1350.64 261.852 1347.1 Q263.68 1343.53 263.68 1336.43 Q263.68 1329.3 261.852 1325.76 Q260.046 1322.19 256.412 1322.19 M256.412 1318.49 Q262.222 1318.49 265.277 1323.09 Q268.356 1327.68 268.356 1336.43 Q268.356 1345.15 265.277 1349.76 Q262.222 1354.34 256.412 1354.34 Q250.602 1354.34 247.523 1349.76 Q244.467 1345.15 244.467 1336.43 Q244.467 1327.68 247.523 1323.09 Q250.602 1318.49 256.412 1318.49 Z" fill="#000000" fill-rule="nonzero" fill-opacity="1" /><path clip-path="url(#clip390)" d="M268.356 1298.18 L286.412 1298.18 L286.412 1299.8 L276.218 1326.26 L272.249 1326.26 L281.841 1301.38 L268.356 1301.38 L268.356 1298.18 Z" fill="#000000" fill-rule="nonzero" fill-opacity="1" /><path clip-path="url(#clip390)" d="M113.982 989.056 L102.176 1007.5 L113.982 1007.5 L113.982 989.056 M112.755 984.982 L118.635 984.982 L118.635 1007.5 L123.565 1007.5 L123.565 1011.39 L118.635 1011.39 L118.635 1019.54 L113.982 1019.54 L113.982 1011.39 L98.3802 1011.39 L98.3802 1006.88 L112.755 984.982 Z" fill="#000000" fill-rule="nonzero" fill-opacity="1" /><path clip-path="url(#clip390)" d="M131.297 1013.66 L136.181 1013.66 L136.181 1019.54 L131.297 1019.54 L131.297 1013.66 Z" fill="#000000" fill-rule="nonzero" fill-opacity="1" /><path clip-path="url(#clip390)" d="M156.366 988.06 Q152.755 988.06 150.926 991.625 Q149.121 995.167 149.121 1002.3 Q149.121 1009.4 150.926 1012.97 Q152.755 1016.51 156.366 1016.51 Q160 1016.51 161.806 1012.97 Q163.634 1009.4 163.634 1002.3 Q163.634 995.167 161.806 991.625 Q160 988.06 156.366 988.06 M156.366 984.357 Q162.176 984.357 165.232 988.963 Q168.31 993.547 168.31 1002.3 Q168.31 1011.02 165.232 1015.63 Q162.176 1020.21 156.366 1020.21 Q150.556 1020.21 147.477 1015.63 Q144.422 1011.02 144.422 1002.3 Q144.422 993.547 147.477 988.963 Q150.556 984.357 156.366 984.357 Z" fill="#000000" fill-rule="nonzero" fill-opacity="1" /><path clip-path="url(#clip390)" d="M204.699 994.079 L194.12 1004.7 L204.699 1015.28 L201.944 1018.08 L191.319 1007.46 L180.695 1018.08 L177.963 1015.28 L188.519 1004.7 L177.963 994.079 L180.695 991.278 L191.319 1001.9 L201.944 991.278 L204.699 994.079 Z" fill="#000000" fill-rule="nonzero" fill-opacity="1" /><path clip-path="url(#clip390)" d="M217.06 1015.61 L224.699 1015.61 L224.699 989.241 L216.389 990.908 L216.389 986.648 L224.653 984.982 L229.329 984.982 L229.329 1015.61 L236.967 1015.61 L236.967 1019.54 L217.06 1019.54 L217.06 1015.61 Z" fill="#000000" fill-rule="nonzero" fill-opacity="1" /><path clip-path="url(#clip390)" d="M256.412 988.06 Q252.801 988.06 250.972 991.625 Q249.166 995.167 249.166 1002.3 Q249.166 1009.4 250.972 1012.97 Q252.801 1016.51 256.412 1016.51 Q260.046 1016.51 261.852 1012.97 Q263.68 1009.4 263.68 1002.3 Q263.68 995.167 261.852 991.625 Q260.046 988.06 256.412 988.06 M256.412 984.357 Q262.222 984.357 265.277 988.963 Q268.356 993.547 268.356 1002.3 Q268.356 1011.02 265.277 1015.63 Q262.222 1020.21 256.412 1020.21 Q250.602 1020.21 247.523 1015.63 Q244.467 1011.02 244.467 1002.3 Q244.467 993.547 247.523 988.963 Q250.602 984.357 256.412 984.357 Z" fill="#000000" fill-rule="nonzero" fill-opacity="1" /><path clip-path="url(#clip390)" d="M268.356 964.051 L286.412 964.051 L286.412 965.669 L276.218 992.131 L272.249 992.131 L281.841 967.249 L268.356 967.249 L268.356 964.051 Z" fill="#000000" fill-rule="nonzero" fill-opacity="1" /><path clip-path="url(#clip390)" d="M101.181 650.851 L119.537 650.851 L119.537 654.786 L105.463 654.786 L105.463 663.258 Q106.482 662.911 107.5 662.749 Q108.519 662.564 109.538 662.564 Q115.325 662.564 118.704 665.735 Q122.084 668.907 122.084 674.323 Q122.084 679.902 118.612 683.004 Q115.139 686.082 108.82 686.082 Q106.644 686.082 104.375 685.712 Q102.13 685.342 99.7227 684.601 L99.7227 679.902 Q101.806 681.036 104.028 681.592 Q106.25 682.147 108.727 682.147 Q112.732 682.147 115.07 680.041 Q117.408 677.934 117.408 674.323 Q117.408 670.712 115.07 668.606 Q112.732 666.499 108.727 666.499 Q106.852 666.499 104.977 666.916 Q103.126 667.332 101.181 668.212 L101.181 650.851 Z" fill="#000000" fill-rule="nonzero" fill-opacity="1" /><path clip-path="url(#clip390)" d="M131.297 679.531 L136.181 679.531 L136.181 685.411 L131.297 685.411 L131.297 679.531 Z" fill="#000000" fill-rule="nonzero" fill-opacity="1" /><path clip-path="url(#clip390)" d="M156.366 653.93 Q152.755 653.93 150.926 657.495 Q149.121 661.036 149.121 668.166 Q149.121 675.272 150.926 678.837 Q152.755 682.379 156.366 682.379 Q160 682.379 161.806 678.837 Q163.634 675.272 163.634 668.166 Q163.634 661.036 161.806 657.495 Q160 653.93 156.366 653.93 M156.366 650.226 Q162.176 650.226 165.232 654.833 Q168.31 659.416 168.31 668.166 Q168.31 676.893 165.232 681.499 Q162.176 686.082 156.366 686.082 Q150.556 686.082 147.477 681.499 Q144.422 676.893 144.422 668.166 Q144.422 659.416 147.477 654.833 Q150.556 650.226 156.366 650.226 Z" fill="#000000" fill-rule="nonzero" fill-opacity="1" /><path clip-path="url(#clip390)" d="M204.699 659.948 L194.12 670.573 L204.699 681.152 L201.944 683.953 L191.319 673.328 L180.695 683.953 L177.963 681.152 L188.519 670.573 L177.963 659.948 L180.695 657.147 L191.319 667.772 L201.944 657.147 L204.699 659.948 Z" fill="#000000" fill-rule="nonzero" fill-opacity="1" /><path clip-path="url(#clip390)" d="M217.06 681.476 L224.699 681.476 L224.699 655.11 L216.389 656.777 L216.389 652.518 L224.653 650.851 L229.329 650.851 L229.329 681.476 L236.967 681.476 L236.967 685.411 L217.06 685.411 L217.06 681.476 Z" fill="#000000" fill-rule="nonzero" fill-opacity="1" /><path clip-path="url(#clip390)" d="M256.412 653.93 Q252.801 653.93 250.972 657.495 Q249.166 661.036 249.166 668.166 Q249.166 675.272 250.972 678.837 Q252.801 682.379 256.412 682.379 Q260.046 682.379 261.852 678.837 Q263.68 675.272 263.68 668.166 Q263.68 661.036 261.852 657.495 Q260.046 653.93 256.412 653.93 M256.412 650.226 Q262.222 650.226 265.277 654.833 Q268.356 659.416 268.356 668.166 Q268.356 676.893 265.277 681.499 Q262.222 686.082 256.412 686.082 Q250.602 686.082 247.523 681.499 Q244.467 676.893 244.467 668.166 Q244.467 659.416 247.523 654.833 Q250.602 650.226 256.412 650.226 Z" fill="#000000" fill-rule="nonzero" fill-opacity="1" /><path clip-path="url(#clip390)" d="M268.356 629.921 L286.412 629.921 L286.412 631.538 L276.218 658.001 L272.249 658.001 L281.841 633.118 L268.356 633.118 L268.356 629.921 Z" fill="#000000" fill-rule="nonzero" fill-opacity="1" /><path clip-path="url(#clip390)" d="M111.713 332.137 Q108.565 332.137 106.713 334.29 Q104.885 336.442 104.885 340.192 Q104.885 343.919 106.713 346.095 Q108.565 348.248 111.713 348.248 Q114.862 348.248 116.69 346.095 Q118.542 343.919 118.542 340.192 Q118.542 336.442 116.69 334.29 Q114.862 332.137 111.713 332.137 M120.996 317.484 L120.996 321.743 Q119.237 320.91 117.431 320.47 Q115.649 320.031 113.889 320.031 Q109.26 320.031 106.806 323.156 Q104.375 326.28 104.028 332.6 Q105.394 330.586 107.454 329.521 Q109.514 328.433 111.991 328.433 Q117.2 328.433 120.209 331.605 Q123.241 334.753 123.241 340.192 Q123.241 345.517 120.093 348.734 Q116.945 351.952 111.713 351.952 Q105.718 351.952 102.547 347.368 Q99.3755 342.762 99.3755 334.035 Q99.3755 325.841 103.264 320.98 Q107.153 316.095 113.704 316.095 Q115.463 316.095 117.246 316.443 Q119.051 316.79 120.996 317.484 Z" fill="#000000" fill-rule="nonzero" fill-opacity="1" /><path clip-path="url(#clip390)" d="M131.297 345.401 L136.181 345.401 L136.181 351.28 L131.297 351.28 L131.297 345.401 Z" fill="#000000" fill-rule="nonzero" fill-opacity="1" /><path clip-path="url(#clip390)" d="M156.366 319.799 Q152.755 319.799 150.926 323.364 Q149.121 326.905 149.121 334.035 Q149.121 341.142 150.926 344.706 Q152.755 348.248 156.366 348.248 Q160 348.248 161.806 344.706 Q163.634 341.142 163.634 334.035 Q163.634 326.905 161.806 323.364 Q160 319.799 156.366 319.799 M156.366 316.095 Q162.176 316.095 165.232 320.702 Q168.31 325.285 168.31 334.035 Q168.31 342.762 165.232 347.368 Q162.176 351.952 156.366 351.952 Q150.556 351.952 147.477 347.368 Q144.422 342.762 144.422 334.035 Q144.422 325.285 147.477 320.702 Q150.556 316.095 156.366 316.095 Z" fill="#000000" fill-rule="nonzero" fill-opacity="1" /><path clip-path="url(#clip390)" d="M204.699 325.818 L194.12 336.442 L204.699 347.021 L201.944 349.822 L191.319 339.197 L180.695 349.822 L177.963 347.021 L188.519 336.442 L177.963 325.818 L180.695 323.017 L191.319 333.642 L201.944 323.017 L204.699 325.818 Z" fill="#000000" fill-rule="nonzero" fill-opacity="1" /><path clip-path="url(#clip390)" d="M217.06 347.345 L224.699 347.345 L224.699 320.98 L216.389 322.646 L216.389 318.387 L224.653 316.72 L229.329 316.72 L229.329 347.345 L236.967 347.345 L236.967 351.28 L217.06 351.28 L217.06 347.345 Z" fill="#000000" fill-rule="nonzero" fill-opacity="1" /><path clip-path="url(#clip390)" d="M256.412 319.799 Q252.801 319.799 250.972 323.364 Q249.166 326.905 249.166 334.035 Q249.166 341.142 250.972 344.706 Q252.801 348.248 256.412 348.248 Q260.046 348.248 261.852 344.706 Q263.68 341.142 263.68 334.035 Q263.68 326.905 261.852 323.364 Q260.046 319.799 256.412 319.799 M256.412 316.095 Q262.222 316.095 265.277 320.702 Q268.356 325.285 268.356 334.035 Q268.356 342.762 265.277 347.368 Q262.222 351.952 256.412 351.952 Q250.602 351.952 247.523 347.368 Q244.467 342.762 244.467 334.035 Q244.467 325.285 247.523 320.702 Q250.602 316.095 256.412 316.095 Z" fill="#000000" fill-rule="nonzero" fill-opacity="1" /><path clip-path="url(#clip390)" d="M268.356 295.79 L286.412 295.79 L286.412 297.407 L276.218 323.87 L272.249 323.87 L281.841 298.987 L268.356 298.987 L268.356 295.79 Z" fill="#000000" fill-rule="nonzero" fill-opacity="1" /><path clip-path="url(#clip390)" d="M-9.64527 840.632 L0.4762 840.632 L0.4762 828.569 L5.02768 828.569 L5.02768 840.632 L24.3794 840.632 Q28.7399 840.632 29.9813 839.454 Q31.2226 838.245 31.2226 834.584 L31.2226 828.569 L36.1242 828.569 L36.1242 834.584 Q36.1242 841.364 33.6097 843.942 Q31.0634 846.52 24.3794 846.52 L5.02768 846.52 L5.02768 850.817 L0.4762 850.817 L0.4762 846.52 L-9.64527 846.52 L-9.64527 840.632 Z" fill="#000000" fill-rule="nonzero" fill-opacity="1" /><path clip-path="url(#clip390)" d="M-11.3958 789.738 L-11.3958 784.327 L42.1716 800.878 L42.1716 806.289 L-11.3958 789.738 Z" fill="#000000" fill-rule="nonzero" fill-opacity="1" /><path clip-path="url(#clip390)" d="M14.6081 727.831 L36.1242 727.831 L36.1242 733.688 L14.799 733.688 Q9.7383 733.688 7.22385 735.661 Q4.7094 737.635 4.7094 741.581 Q4.7094 746.324 7.73311 749.061 Q10.7568 751.798 15.9767 751.798 L36.1242 751.798 L36.1242 757.687 L0.4762 757.687 L0.4762 751.798 L6.01437 751.798 Q2.79968 749.698 1.20826 746.865 Q-0.38317 744 -0.38317 740.276 Q-0.38317 734.133 3.43625 730.982 Q7.22385 727.831 14.6081 727.831 Z" fill="#000000" fill-rule="nonzero" fill-opacity="1" /><path clip-path="url(#clip390)" d="M1.52654 693.425 L7.06471 693.425 Q5.79157 695.907 5.15499 698.581 Q4.51842 701.255 4.51842 704.119 Q4.51842 708.48 5.85522 710.676 Q7.19202 712.84 9.86562 712.84 Q11.9026 712.84 13.0803 711.281 Q14.2261 709.721 15.2765 705.01 L15.7221 703.005 Q17.0589 696.767 19.5097 694.157 Q21.9286 691.515 26.2891 691.515 Q31.2544 691.515 34.1508 695.462 Q37.0472 699.377 37.0472 706.252 Q37.0472 709.116 36.4743 712.235 Q35.9332 715.323 34.8192 718.76 L28.7718 718.76 Q30.4587 715.514 31.318 712.363 Q32.1456 709.212 32.1456 706.124 Q32.1456 701.987 30.7451 699.759 Q29.3129 697.531 26.7347 697.531 Q24.3476 697.531 23.0745 699.154 Q21.8013 700.745 20.6237 706.188 L20.1462 708.225 Q19.0004 713.668 16.6451 716.087 Q14.258 718.506 10.1202 718.506 Q5.09134 718.506 2.35408 714.941 Q-0.38317 711.376 -0.38317 704.819 Q-0.38317 701.573 0.0942579 698.708 Q0.571686 695.844 1.52654 693.425 Z" fill="#000000" fill-rule="nonzero" fill-opacity="1" /><path clip-path="url(#clip391)" d="M756.763 1454.11 L790.395 1453.26 L817.631 1452.4 L834.512 1451.54 L839.586 1450.69 L834.295 1449.83 L822.289 1448.97 L808.035 1448.12 L795.29 1447.26 L786.045 1446.41 L780.295 1445.55 L776.662 1444.69 L773.529 1443.84 L769.995 1442.98 L766.02 1442.13 L761.759 1441.27 L756.784 1440.41 L749.983 1439.56 L740.285 1438.7 L727.557 1437.85 L712.863 1436.99 L697.892 1436.13 L684.09 1435.28 L672.178 1434.42 L662.269 1433.56 L654.245 1432.71 L647.99 1431.85 L643.354 1431 L640.05 1430.14 L637.685 1429.28 L635.912 1428.43 L634.569 1427.57 L633.662 1426.72 L633.227 1425.86 L633.175 1425 L633.246 1424.15 L633.114 1423.29 L632.555 1422.44 L631.568 1421.58 L630.35 1420.72 L629.165 1419.87 L628.214 1419.01 L627.57 1418.16 L627.196 1417.3 L627.008 1416.44 L626.926 1415.59 L626.895 1414.73 L626.885 1413.87 L626.882 1413.02 L626.881 1412.16 L626.881 1411.31 L626.881 1410.45 L626.881 1409.59 L626.881 1408.74 L626.881 1407.88 L626.881 1407.03 L626.881 1406.17 L626.881 1405.31 L626.881 1404.46 L626.881 1403.6 L626.881 1402.75 L626.881 1401.89 L626.881 1401.03 L626.881 1400.18 L626.881 1399.32 L626.881 1398.47 L626.881 1397.61 L626.881 1396.75 L626.881 1395.9 L626.881 1395.04 L626.881 1394.18 L626.881 1393.33 L626.881 1392.47 L626.881 1391.62 L626.881 1390.76 L626.881 1389.9 L626.881 1389.05 L626.881 1388.19 L626.881 1387.34 L626.881 1386.48 L626.881 1385.62 L626.881 1384.77 L626.881 1383.91 L626.881 1383.06 L626.881 1382.2 L626.881 1381.34 L626.881 1380.49 L626.881 1379.63 L626.881 1378.78 L626.881 1377.92 L626.881 1377.06 L626.881 1376.21 L626.881 1375.35 L626.881 1374.49 L626.881 1373.64 L626.881 1372.78 L626.881 1371.93 L626.881 1371.07 L626.881 1370.21 L626.881 1369.36 L626.881 1368.5 L626.881 1367.65 L626.881 1366.79 L626.881 1365.93 L626.881 1365.08 L626.881 1364.22 L626.881 1363.37 L626.881 1362.51 L626.881 1361.65 L626.881 1360.8 L626.881 1359.94 L626.881 1359.09 L626.881 1358.23 L626.881 1357.37 L626.881 1356.52 L626.881 1355.66 L626.881 1354.8 L626.881 1353.95 L626.881 1353.09 L626.881 1352.24 L626.881 1351.38 L626.881 1350.52 L626.881 1349.67 L626.881 1348.81 L626.881 1347.96 L626.881 1347.1 L626.881 1346.24 L626.881 1345.39 L626.881 1344.53 L626.881 1343.68 L626.881 1342.82 L626.881 1341.96 L626.881 1341.11 L626.881 1340.25 L626.881 1339.4 L626.881 1338.54 L626.881 1337.68 L626.881 1336.83 L626.881 1335.97 L626.881 1335.11 L626.881 1334.26 L626.881 1333.4 L626.881 1332.55 L626.881 1331.69 L626.881 1330.83 L626.881 1329.98 L626.881 1329.12 L626.881 1328.27 L626.881 1327.41 L626.881 1326.55 L626.881 1325.7 L626.881 1324.84 L626.881 1323.99 L626.881 1323.13 L626.881 1322.27 L626.881 1321.42 L626.881 1320.56 L626.881 1319.7 L626.881 1318.85 L626.881 1317.99 L626.881 1317.14 L626.881 1316.28 L626.881 1315.42 L626.881 1314.57 L626.881 1313.71 L626.882 1312.86 L626.886 1312 L626.896 1311.14 L626.927 1310.29 L627.002 1309.43 L627.164 1308.58 L627.463 1307.72 L627.929 1306.86 L628.537 1306.01 L629.175 1305.15 L629.668 1304.3 L624.094 1304.3 L624.587 1305.15 L625.226 1306.01 L625.834 1306.86 L626.3 1307.72 L626.598 1308.58 L626.76 1309.43 L626.836 1310.29 L626.866 1311.14 L626.877 1312 L626.88 1312.86 L626.881 1313.71 L626.881 1314.57 L626.881 1315.42 L626.881 1316.28 L626.881 1317.14 L626.881 1317.99 L626.881 1318.85 L626.881 1319.7 L626.881 1320.56 L626.881 1321.42 L626.881 1322.27 L626.881 1323.13 L626.881 1323.99 L626.881 1324.84 L626.881 1325.7 L626.881 1326.55 L626.881 1327.41 L626.881 1328.27 L626.881 1329.12 L626.881 1329.98 L626.881 1330.83 L626.881 1331.69 L626.881 1332.55 L626.881 1333.4 L626.881 1334.26 L626.881 1335.11 L626.881 1335.97 L626.881 1336.83 L626.881 1337.68 L626.881 1338.54 L626.881 1339.4 L626.881 1340.25 L626.881 1341.11 L626.881 1341.96 L626.881 1342.82 L626.881 1343.68 L626.881 1344.53 L626.881 1345.39 L626.881 1346.24 L626.881 1347.1 L626.881 1347.96 L626.881 1348.81 L626.881 1349.67 L626.881 1350.52 L626.881 1351.38 L626.881 1352.24 L626.881 1353.09 L626.881 1353.95 L626.881 1354.8 L626.881 1355.66 L626.881 1356.52 L626.881 1357.37 L626.881 1358.23 L626.881 1359.09 L626.881 1359.94 L626.881 1360.8 L626.881 1361.65 L626.881 1362.51 L626.881 1363.37 L626.881 1364.22 L626.881 1365.08 L626.881 1365.93 L626.881 1366.79 L626.881 1367.65 L626.881 1368.5 L626.881 1369.36 L626.881 1370.21 L626.881 1371.07 L626.881 1371.93 L626.881 1372.78 L626.881 1373.64 L626.881 1374.49 L626.881 1375.35 L626.881 1376.21 L626.881 1377.06 L626.881 1377.92 L626.881 1378.78 L626.881 1379.63 L626.881 1380.49 L626.881 1381.34 L626.881 1382.2 L626.881 1383.06 L626.881 1383.91 L626.881 1384.77 L626.881 1385.62 L626.881 1386.48 L626.881 1387.34 L626.881 1388.19 L626.881 1389.05 L626.881 1389.9 L626.881 1390.76 L626.881 1391.62 L626.881 1392.47 L626.881 1393.33 L626.881 1394.18 L626.881 1395.04 L626.881 1395.9 L626.881 1396.75 L626.881 1397.61 L626.881 1398.47 L626.881 1399.32 L626.881 1400.18 L626.881 1401.03 L626.881 1401.89 L626.881 1402.75 L626.881 1403.6 L626.881 1404.46 L626.881 1405.31 L626.881 1406.17 L626.881 1407.03 L626.881 1407.88 L626.881 1408.74 L626.881 1409.59 L626.881 1410.45 L626.881 1411.31 L626.881 1412.16 L626.88 1413.02 L626.877 1413.87 L626.867 1414.73 L626.836 1415.59 L626.755 1416.44 L626.567 1417.3 L626.193 1418.16 L625.548 1419.01 L624.598 1419.87 L623.413 1420.72 L622.194 1421.58 L621.207 1422.44 L620.649 1423.29 L620.516 1424.15 L620.588 1425 L620.535 1425.86 L620.101 1426.72 L619.194 1427.57 L617.85 1428.43 L616.078 1429.28 L613.712 1430.14 L610.408 1431 L605.772 1431.85 L599.518 1432.71 L591.494 1433.56 L581.584 1434.42 L569.673 1435.28 L555.871 1436.13 L540.9 1436.99 L526.205 1437.85 L513.477 1438.7 L503.779 1439.56 L496.978 1440.41 L492.003 1441.27 L487.742 1442.13 L483.767 1442.98 L480.234 1443.84 L477.101 1444.69 L473.467 1445.55 L467.717 1446.41 L458.473 1447.26 L445.727 1448.12 L431.473 1448.97 L419.468 1449.83 L414.176 1450.69 L419.251 1451.54 L436.132 1452.4 L463.368 1453.26 L497 1454.11 L756.763 1454.11  Z" fill="#009af9" fill-rule="evenodd" fill-opacity="1"/>
<polyline clip-path="url(#clip391)" style="stroke:#000000; stroke-linecap:round; stroke-linejoin:round; stroke-width:4; stroke-opacity:1; fill:none" points="756.763,1454.11 790.395,1453.26 817.631,1452.4 834.512,1451.54 839.586,1450.69 834.295,1449.83 822.289,1448.97 808.035,1448.12 795.29,1447.26 786.045,1446.41 780.295,1445.55 776.662,1444.69 773.529,1443.84 769.995,1442.98 766.02,1442.13 761.759,1441.27 756.784,1440.41 749.983,1439.56 740.285,1438.7 727.557,1437.85 712.863,1436.99 697.892,1436.13 684.09,1435.28 672.178,1434.42 662.269,1433.56 654.245,1432.71 647.99,1431.85 643.354,1431 640.05,1430.14 637.685,1429.28 635.912,1428.43 634.569,1427.57 633.662,1426.72 633.227,1425.86 633.175,1425 633.246,1424.15 633.114,1423.29 632.555,1422.44 631.568,1421.58 630.35,1420.72 629.165,1419.87 628.214,1419.01 627.57,1418.16 627.196,1417.3 627.008,1416.44 626.926,1415.59 626.895,1414.73 626.885,1413.87 626.882,1413.02 626.881,1412.16 626.881,1411.31 626.881,1410.45 626.881,1409.59 626.881,1408.74 626.881,1407.88 626.881,1407.03 626.881,1406.17 626.881,1405.31 626.881,1404.46 626.881,1403.6 626.881,1402.75 626.881,1401.89 626.881,1401.03 626.881,1400.18 626.881,1399.32 626.881,1398.47 626.881,1397.61 626.881,1396.75 626.881,1395.9 626.881,1395.04 626.881,1394.18 626.881,1393.33 626.881,1392.47 626.881,1391.62 626.881,1390.76 626.881,1389.9 626.881,1389.05 626.881,1388.19 626.881,1387.34 626.881,1386.48 626.881,1385.62 626.881,1384.77 626.881,1383.91 626.881,1383.06 626.881,1382.2 626.881,1381.34 626.881,1380.49 626.881,1379.63 626.881,1378.78 626.881,1377.92 626.881,1377.06 626.881,1376.21 626.881,1375.35 626.881,1374.49 626.881,1373.64 626.881,1372.78 626.881,1371.93 626.881,1371.07 626.881,1370.21 626.881,1369.36 626.881,1368.5 626.881,1367.65 626.881,1366.79 626.881,1365.93 626.881,1365.08 626.881,1364.22 626.881,1363.37 626.881,1362.51 626.881,1361.65 626.881,1360.8 626.881,1359.94 626.881,1359.09 626.881,1358.23 626.881,1357.37 626.881,1356.52 626.881,1355.66 626.881,1354.8 626.881,1353.95 626.881,1353.09 626.881,1352.24 626.881,1351.38 626.881,1350.52 626.881,1349.67 626.881,1348.81 626.881,1347.96 626.881,1347.1 626.881,1346.24 626.881,1345.39 626.881,1344.53 626.881,1343.68 626.881,1342.82 626.881,1341.96 626.881,1341.11 626.881,1340.25 626.881,1339.4 626.881,1338.54 626.881,1337.68 626.881,1336.83 626.881,1335.97 626.881,1335.11 626.881,1334.26 626.881,1333.4 626.881,1332.55 626.881,1331.69 626.881,1330.83 626.881,1329.98 626.881,1329.12 626.881,1328.27 626.881,1327.41 626.881,1326.55 626.881,1325.7 626.881,1324.84 626.881,1323.99 626.881,1323.13 626.881,1322.27 626.881,1321.42 626.881,1320.56 626.881,1319.7 626.881,1318.85 626.881,1317.99 626.881,1317.14 626.881,1316.28 626.881,1315.42 626.881,1314.57 626.881,1313.71 626.882,1312.86 626.886,1312 626.896,1311.14 626.927,1310.29 627.002,1309.43 627.164,1308.58 627.463,1307.72 627.929,1306.86 628.537,1306.01 629.175,1305.15 629.668,1304.3 624.094,1304.3 624.587,1305.15 625.226,1306.01 625.834,1306.86 626.3,1307.72 626.598,1308.58 626.76,1309.43 626.836,1310.29 626.866,1311.14 626.877,1312 626.88,1312.86 626.881,1313.71 626.881,1314.57 626.881,1315.42 626.881,1316.28 626.881,1317.14 626.881,1317.99 626.881,1318.85 626.881,1319.7 626.881,1320.56 626.881,1321.42 626.881,1322.27 626.881,1323.13 626.881,1323.99 626.881,1324.84 626.881,1325.7 626.881,1326.55 626.881,1327.41 626.881,1328.27 626.881,1329.12 626.881,1329.98 626.881,1330.83 626.881,1331.69 626.881,1332.55 626.881,1333.4 626.881,1334.26 626.881,1335.11 626.881,1335.97 626.881,1336.83 626.881,1337.68 626.881,1338.54 626.881,1339.4 626.881,1340.25 626.881,1341.11 626.881,1341.96 626.881,1342.82 626.881,1343.68 626.881,1344.53 626.881,1345.39 626.881,1346.24 626.881,1347.1 626.881,1347.96 626.881,1348.81 626.881,1349.67 626.881,1350.52 626.881,1351.38 626.881,1352.24 626.881,1353.09 626.881,1353.95 626.881,1354.8 626.881,1355.66 626.881,1356.52 626.881,1357.37 626.881,1358.23 626.881,1359.09 626.881,1359.94 626.881,1360.8 626.881,1361.65 626.881,1362.51 626.881,1363.37 626.881,1364.22 626.881,1365.08 626.881,1365.93 626.881,1366.79 626.881,1367.65 626.881,1368.5 626.881,1369.36 626.881,1370.21 626.881,1371.07 626.881,1371.93 626.881,1372.78 626.881,1373.64 626.881,1374.49 626.881,1375.35 626.881,1376.21 626.881,1377.06 626.881,1377.92 626.881,1378.78 626.881,1379.63 626.881,1380.49 626.881,1381.34 626.881,1382.2 626.881,1383.06 626.881,1383.91 626.881,1384.77 626.881,1385.62 626.881,1386.48 626.881,1387.34 626.881,1388.19 626.881,1389.05 626.881,1389.9 626.881,1390.76 626.881,1391.62 626.881,1392.47 626.881,1393.33 626.881,1394.18 626.881,1395.04 626.881,1395.9 626.881,1396.75 626.881,1397.61 626.881,1398.47 626.881,1399.32 626.881,1400.18 626.881,1401.03 626.881,1401.89 626.881,1402.75 626.881,1403.6 626.881,1404.46 626.881,1405.31 626.881,1406.17 626.881,1407.03 626.881,1407.88 626.881,1408.74 626.881,1409.59 626.881,1410.45 626.881,1411.31 626.881,1412.16 626.88,1413.02 626.877,1413.87 626.867,1414.73 626.836,1415.59 626.755,1416.44 626.567,1417.3 626.193,1418.16 625.548,1419.01 624.598,1419.87 623.413,1420.72 622.194,1421.58 621.207,1422.44 620.649,1423.29 620.516,1424.15 620.588,1425 620.535,1425.86 620.101,1426.72 619.194,1427.57 617.85,1428.43 616.078,1429.28 613.712,1430.14 610.408,1431 605.772,1431.85 599.518,1432.71 591.494,1433.56 581.584,1434.42 569.673,1435.28 555.871,1436.13 540.9,1436.99 526.205,1437.85 513.477,1438.7 503.779,1439.56 496.978,1440.41 492.003,1441.27 487.742,1442.13 483.767,1442.98 480.234,1443.84 477.101,1444.69 473.467,1445.55 467.717,1446.41 458.473,1447.26 445.727,1448.12 431.473,1448.97 419.468,1449.83 414.176,1450.69 419.251,1451.54 436.132,1452.4 463.368,1453.26 497,1454.11 756.763,1454.11 "/>
<path clip-path="url(#clip391)" d="M1411.76 247.845 L1428.92 246.922 L1450.22 246 L1475.07 245.077 L1502.06 244.154 L1528.91 243.232 L1552.83 242.309 L1571.08 241.386 L1581.72 240.464 L1584.05 239.541 L1578.77 238.618 L1567.56 237.696 L1552.53 236.773 L1535.67 235.85 L1518.49 234.927 L1501.93 234.005 L1486.4 233.082 L1472.02 232.159 L1458.76 231.237 L1446.65 230.314 L1435.84 229.391 L1426.56 228.469 L1419.08 227.546 L1413.56 226.623 L1410.04 225.701 L1408.36 224.778 L1408.13 223.855 L1408.74 222.933 L1409.48 222.01 L1409.78 221.087 L1409.36 220.165 L1408.31 219.242 L1406.87 218.319 L1405.27 217.396 L1403.51 216.474 L1401.4 215.551 L1398.75 214.628 L1395.52 213.706 L1391.93 212.783 L1388.4 211.86 L1385.34 210.938 L1382.96 210.015 L1381.25 209.092 L1379.97 208.17 L1378.83 207.247 L1377.62 206.324 L1376.31 205.402 L1374.99 204.479 L1373.83 203.556 L1372.98 202.634 L1372.54 201.711 L1372.58 200.788 L1373.17 199.865 L1374.36 198.943 L1376.14 198.02 L1378.34 197.097 L1380.61 196.175 L1382.43 195.252 L1383.34 194.329 L1383.07 193.407 L1381.71 192.484 L1379.63 191.561 L1377.33 190.639 L1375.25 189.716 L1373.66 188.793 L1372.58 187.871 L1371.94 186.948 L1371.61 186.025 L1371.45 185.103 L1371.39 184.18 L1371.36 183.257 L1371.35 182.335 L1371.35 181.412 L1371.35 180.489 L1371.35 179.566 L1371.35 178.644 L1371.35 177.721 L1371.35 176.798 L1371.35 175.876 L1371.35 174.953 L1371.35 174.03 L1371.35 173.108 L1371.35 172.185 L1371.35 171.262 L1371.35 170.34 L1371.35 169.417 L1371.35 168.494 L1371.35 167.572 L1371.35 166.649 L1371.35 165.726 L1371.35 164.804 L1371.35 163.881 L1371.35 162.958 L1371.35 162.035 L1371.35 161.113 L1371.35 160.19 L1371.35 159.267 L1371.35 158.345 L1371.35 157.422 L1371.35 156.499 L1371.35 155.577 L1371.35 154.654 L1371.35 153.731 L1371.35 152.809 L1371.35 151.886 L1371.35 150.963 L1371.35 150.041 L1371.35 149.118 L1371.35 148.195 L1371.35 147.273 L1371.35 146.35 L1371.35 145.427 L1371.35 144.504 L1371.35 143.582 L1371.35 142.659 L1371.35 141.736 L1371.35 140.814 L1371.35 139.891 L1371.35 138.968 L1371.35 138.046 L1371.35 137.123 L1371.35 136.2 L1371.35 135.278 L1371.35 134.355 L1371.35 133.432 L1371.35 132.51 L1371.35 131.587 L1371.35 130.664 L1371.35 129.742 L1371.35 128.819 L1371.35 127.896 L1371.35 126.974 L1371.35 126.051 L1371.35 125.128 L1371.35 124.205 L1371.35 123.283 L1371.35 122.36 L1371.35 121.437 L1371.35 120.515 L1371.35 119.592 L1371.35 118.669 L1371.35 117.747 L1371.35 116.824 L1371.35 115.901 L1371.35 114.979 L1371.35 114.056 L1371.35 113.133 L1371.35 112.211 L1371.35 111.288 L1371.35 110.365 L1371.35 109.443 L1371.35 108.52 L1371.35 107.597 L1371.35 106.674 L1371.35 105.752 L1371.35 104.829 L1371.35 103.906 L1371.35 102.984 L1371.35 102.061 L1371.35 101.138 L1371.35 100.216 L1371.35 99.293 L1371.36 98.3703 L1371.37 97.4476 L1371.41 96.525 L1371.5 95.6023 L1371.68 94.6796 L1372.03 93.7569 L1372.61 92.8342 L1373.45 91.9115 L1374.51 90.9889 L1375.66 90.0662 L1376.66 89.1435 L1377.26 88.2208 L1365.44 88.2208 L1366.04 89.1435 L1367.04 90.0662 L1368.18 90.9889 L1369.25 91.9115 L1370.09 92.8342 L1370.67 93.7569 L1371.01 94.6796 L1371.2 95.6023 L1371.29 96.525 L1371.33 97.4476 L1371.34 98.3703 L1371.35 99.293 L1371.35 100.216 L1371.35 101.138 L1371.35 102.061 L1371.35 102.984 L1371.35 103.906 L1371.35 104.829 L1371.35 105.752 L1371.35 106.674 L1371.35 107.597 L1371.35 108.52 L1371.35 109.443 L1371.35 110.365 L1371.35 111.288 L1371.35 112.211 L1371.35 113.133 L1371.35 114.056 L1371.35 114.979 L1371.35 115.901 L1371.35 116.824 L1371.35 117.747 L1371.35 118.669 L1371.35 119.592 L1371.35 120.515 L1371.35 121.437 L1371.35 122.36 L1371.35 123.283 L1371.35 124.205 L1371.35 125.128 L1371.35 126.051 L1371.35 126.974 L1371.35 127.896 L1371.35 128.819 L1371.35 129.742 L1371.35 130.664 L1371.35 131.587 L1371.35 132.51 L1371.35 133.432 L1371.35 134.355 L1371.35 135.278 L1371.35 136.2 L1371.35 137.123 L1371.35 138.046 L1371.35 138.968 L1371.35 139.891 L1371.35 140.814 L1371.35 141.736 L1371.35 142.659 L1371.35 143.582 L1371.35 144.504 L1371.35 145.427 L1371.35 146.35 L1371.35 147.273 L1371.35 148.195 L1371.35 149.118 L1371.35 150.041 L1371.35 150.963 L1371.35 151.886 L1371.35 152.809 L1371.35 153.731 L1371.35 154.654 L1371.35 155.577 L1371.35 156.499 L1371.35 157.422 L1371.35 158.345 L1371.35 159.267 L1371.35 160.19 L1371.35 161.113 L1371.35 162.035 L1371.35 162.958 L1371.35 163.881 L1371.35 164.804 L1371.35 165.726 L1371.35 166.649 L1371.35 167.572 L1371.35 168.494 L1371.35 169.417 L1371.35 170.34 L1371.35 171.262 L1371.35 172.185 L1371.35 173.108 L1371.35 174.03 L1371.35 174.953 L1371.35 175.876 L1371.35 176.798 L1371.35 177.721 L1371.35 178.644 L1371.35 179.566 L1371.35 180.489 L1371.35 181.412 L1371.35 182.335 L1371.34 183.257 L1371.31 184.18 L1371.25 185.103 L1371.09 186.025 L1370.76 186.948 L1370.12 187.871 L1369.04 188.793 L1367.44 189.716 L1365.37 190.639 L1363.07 191.561 L1360.99 192.484 L1359.63 193.407 L1359.36 194.329 L1360.27 195.252 L1362.09 196.175 L1364.35 197.097 L1366.56 198.02 L1368.34 198.943 L1369.53 199.865 L1370.12 200.788 L1370.16 201.711 L1369.72 202.634 L1368.87 203.556 L1367.71 204.479 L1366.39 205.402 L1365.08 206.324 L1363.87 207.247 L1362.73 208.17 L1361.45 209.092 L1359.74 210.015 L1357.36 210.938 L1354.3 211.86 L1350.77 212.783 L1347.18 213.706 L1343.95 214.628 L1341.3 215.551 L1339.19 216.474 L1337.43 217.396 L1335.83 218.319 L1334.39 219.242 L1333.34 220.165 L1332.92 221.087 L1333.22 222.01 L1333.96 222.933 L1334.57 223.855 L1334.34 224.778 L1332.66 225.701 L1329.14 226.623 L1323.62 227.546 L1316.13 228.469 L1306.86 229.391 L1296.05 230.314 L1283.94 231.237 L1270.68 232.159 L1256.29 233.082 L1240.77 234.005 L1224.21 234.927 L1207.03 235.85 L1190.17 236.773 L1175.14 237.696 L1163.93 238.618 L1158.64 239.541 L1160.98 240.464 L1171.62 241.386 L1189.87 242.309 L1213.79 243.232 L1240.64 244.154 L1267.63 245.077 L1292.48 246 L1313.78 246.922 L1330.94 247.845 L1411.76 247.845  Z" fill="#e26f46" fill-rule="evenodd" fill-opacity="1"/>
<polyline clip-path="url(#clip391)" style="stroke:#000000; stroke-linecap:round; stroke-linejoin:round; stroke-width:4; stroke-opacity:1; fill:none" points="1411.76,247.845 1428.92,246.922 1450.22,246 1475.07,245.077 1502.06,244.154 1528.91,243.232 1552.83,242.309 1571.08,241.386 1581.72,240.464 1584.05,239.541 1578.77,238.618 1567.56,237.696 1552.53,236.773 1535.67,235.85 1518.49,234.927 1501.93,234.005 1486.4,233.082 1472.02,232.159 1458.76,231.237 1446.65,230.314 1435.84,229.391 1426.56,228.469 1419.08,227.546 1413.56,226.623 1410.04,225.701 1408.36,224.778 1408.13,223.855 1408.74,222.933 1409.48,222.01 1409.78,221.087 1409.36,220.165 1408.31,219.242 1406.87,218.319 1405.27,217.396 1403.51,216.474 1401.4,215.551 1398.75,214.628 1395.52,213.706 1391.93,212.783 1388.4,211.86 1385.34,210.938 1382.96,210.015 1381.25,209.092 1379.97,208.17 1378.83,207.247 1377.62,206.324 1376.31,205.402 1374.99,204.479 1373.83,203.556 1372.98,202.634 1372.54,201.711 1372.58,200.788 1373.17,199.865 1374.36,198.943 1376.14,198.02 1378.34,197.097 1380.61,196.175 1382.43,195.252 1383.34,194.329 1383.07,193.407 1381.71,192.484 1379.63,191.561 1377.33,190.639 1375.25,189.716 1373.66,188.793 1372.58,187.871 1371.94,186.948 1371.61,186.025 1371.45,185.103 1371.39,184.18 1371.36,183.257 1371.35,182.335 1371.35,181.412 1371.35,180.489 1371.35,179.566 1371.35,178.644 1371.35,177.721 1371.35,176.798 1371.35,175.876 1371.35,174.953 1371.35,174.03 1371.35,173.108 1371.35,172.185 1371.35,171.262 1371.35,170.34 1371.35,169.417 1371.35,168.494 1371.35,167.572 1371.35,166.649 1371.35,165.726 1371.35,164.804 1371.35,163.881 1371.35,162.958 1371.35,162.035 1371.35,161.113 1371.35,160.19 1371.35,159.267 1371.35,158.345 1371.35,157.422 1371.35,156.499 1371.35,155.577 1371.35,154.654 1371.35,153.731 1371.35,152.809 1371.35,151.886 1371.35,150.963 1371.35,150.041 1371.35,149.118 1371.35,148.195 1371.35,147.273 1371.35,146.35 1371.35,145.427 1371.35,144.504 1371.35,143.582 1371.35,142.659 1371.35,141.736 1371.35,140.814 1371.35,139.891 1371.35,138.968 1371.35,138.046 1371.35,137.123 1371.35,136.2 1371.35,135.278 1371.35,134.355 1371.35,133.432 1371.35,132.51 1371.35,131.587 1371.35,130.664 1371.35,129.742 1371.35,128.819 1371.35,127.896 1371.35,126.974 1371.35,126.051 1371.35,125.128 1371.35,124.205 1371.35,123.283 1371.35,122.36 1371.35,121.437 1371.35,120.515 1371.35,119.592 1371.35,118.669 1371.35,117.747 1371.35,116.824 1371.35,115.901 1371.35,114.979 1371.35,114.056 1371.35,113.133 1371.35,112.211 1371.35,111.288 1371.35,110.365 1371.35,109.443 1371.35,108.52 1371.35,107.597 1371.35,106.674 1371.35,105.752 1371.35,104.829 1371.35,103.906 1371.35,102.984 1371.35,102.061 1371.35,101.138 1371.35,100.216 1371.35,99.293 1371.36,98.3703 1371.37,97.4476 1371.41,96.525 1371.5,95.6023 1371.68,94.6796 1372.03,93.7569 1372.61,92.8342 1373.45,91.9115 1374.51,90.9889 1375.66,90.0662 1376.66,89.1435 1377.26,88.2208 1365.44,88.2208 1366.04,89.1435 1367.04,90.0662 1368.18,90.9889 1369.25,91.9115 1370.09,92.8342 1370.67,93.7569 1371.01,94.6796 1371.2,95.6023 1371.29,96.525 1371.33,97.4476 1371.34,98.3703 1371.35,99.293 1371.35,100.216 1371.35,101.138 1371.35,102.061 1371.35,102.984 1371.35,103.906 1371.35,104.829 1371.35,105.752 1371.35,106.674 1371.35,107.597 1371.35,108.52 1371.35,109.443 1371.35,110.365 1371.35,111.288 1371.35,112.211 1371.35,113.133 1371.35,114.056 1371.35,114.979 1371.35,115.901 1371.35,116.824 1371.35,117.747 1371.35,118.669 1371.35,119.592 1371.35,120.515 1371.35,121.437 1371.35,122.36 1371.35,123.283 1371.35,124.205 1371.35,125.128 1371.35,126.051 1371.35,126.974 1371.35,127.896 1371.35,128.819 1371.35,129.742 1371.35,130.664 1371.35,131.587 1371.35,132.51 1371.35,133.432 1371.35,134.355 1371.35,135.278 1371.35,136.2 1371.35,137.123 1371.35,138.046 1371.35,138.968 1371.35,139.891 1371.35,140.814 1371.35,141.736 1371.35,142.659 1371.35,143.582 1371.35,144.504 1371.35,145.427 1371.35,146.35 1371.35,147.273 1371.35,148.195 1371.35,149.118 1371.35,150.041 1371.35,150.963 1371.35,151.886 1371.35,152.809 1371.35,153.731 1371.35,154.654 1371.35,155.577 1371.35,156.499 1371.35,157.422 1371.35,158.345 1371.35,159.267 1371.35,160.19 1371.35,161.113 1371.35,162.035 1371.35,162.958 1371.35,163.881 1371.35,164.804 1371.35,165.726 1371.35,166.649 1371.35,167.572 1371.35,168.494 1371.35,169.417 1371.35,170.34 1371.35,171.262 1371.35,172.185 1371.35,173.108 1371.35,174.03 1371.35,174.953 1371.35,175.876 1371.35,176.798 1371.35,177.721 1371.35,178.644 1371.35,179.566 1371.35,180.489 1371.35,181.412 1371.35,182.335 1371.34,183.257 1371.31,184.18 1371.25,185.103 1371.09,186.025 1370.76,186.948 1370.12,187.871 1369.04,188.793 1367.44,189.716 1365.37,190.639 1363.07,191.561 1360.99,192.484 1359.63,193.407 1359.36,194.329 1360.27,195.252 1362.09,196.175 1364.35,197.097 1366.56,198.02 1368.34,198.943 1369.53,199.865 1370.12,200.788 1370.16,201.711 1369.72,202.634 1368.87,203.556 1367.71,204.479 1366.39,205.402 1365.08,206.324 1363.87,207.247 1362.73,208.17 1361.45,209.092 1359.74,210.015 1357.36,210.938 1354.3,211.86 1350.77,212.783 1347.18,213.706 1343.95,214.628 1341.3,215.551 1339.19,216.474 1337.43,217.396 1335.83,218.319 1334.39,219.242 1333.34,220.165 1332.92,221.087 1333.22,222.01 1333.96,222.933 1334.57,223.855 1334.34,224.778 1332.66,225.701 1329.14,226.623 1323.62,227.546 1316.13,228.469 1306.86,229.391 1296.05,230.314 1283.94,231.237 1270.68,232.159 1256.29,233.082 1240.77,234.005 1224.21,234.927 1207.03,235.85 1190.17,236.773 1175.14,237.696 1163.93,238.618 1158.64,239.541 1160.98,240.464 1171.62,241.386 1189.87,242.309 1213.79,243.232 1240.64,244.154 1267.63,245.077 1292.48,246 1313.78,246.922 1330.94,247.845 1411.76,247.845 "/>
<path clip-path="url(#clip391)" d="M2214.73 1357.33 L2226.24 1356.98 L2237.46 1356.63 L2248.19 1356.28 L2258.29 1355.94 L2267.68 1355.59 L2276.31 1355.24 L2284.18 1354.89 L2291.31 1354.55 L2297.72 1354.2 L2303.46 1353.85 L2308.55 1353.5 L2312.99 1353.15 L2316.82 1352.81 L2320.02 1352.46 L2322.63 1352.11 L2324.68 1351.76 L2326.21 1351.42 L2327.28 1351.07 L2327.97 1350.72 L2328.36 1350.37 L2328.52 1350.03 L2328.51 1349.68 L2328.36 1349.33 L2328.07 1348.98 L2327.63 1348.64 L2326.98 1348.29 L2326.09 1347.94 L2324.88 1347.59 L2323.29 1347.25 L2321.29 1346.9 L2318.86 1346.55 L2315.99 1346.2 L2312.71 1345.86 L2309.05 1345.51 L2305.05 1345.16 L2300.76 1344.81 L2296.21 1344.46 L2291.41 1344.12 L2286.35 1343.77 L2281.03 1343.42 L2275.41 1343.07 L2269.45 1342.73 L2263.13 1342.38 L2256.43 1342.03 L2249.38 1341.68 L2242 1341.34 L2234.36 1340.99 L2226.57 1340.64 L2218.72 1340.29 L2210.97 1339.95 L2203.43 1339.6 L2196.25 1339.25 L2189.55 1338.9 L2183.41 1338.56 L2177.92 1338.21 L2173.08 1337.86 L2168.9 1337.51 L2165.32 1337.16 L2162.25 1336.82 L2159.6 1336.47 L2157.25 1336.12 L2155.07 1335.77 L2152.97 1335.43 L2150.87 1335.08 L2148.72 1334.73 L2146.5 1334.38 L2144.23 1334.04 L2141.95 1333.69 L2139.71 1333.34 L2137.58 1332.99 L2135.61 1332.65 L2133.84 1332.3 L2132.3 1331.95 L2130.98 1331.6 L2129.87 1331.26 L2128.95 1330.91 L2128.16 1330.56 L2127.47 1330.21 L2126.83 1329.87 L2126.21 1329.52 L2125.59 1329.17 L2124.96 1328.82 L2124.31 1328.47 L2123.69 1328.13 L2123.1 1327.78 L2122.59 1327.43 L2122.19 1327.08 L2121.93 1326.74 L2121.82 1326.39 L2121.89 1326.04 L2122.13 1325.69 L2122.51 1325.35 L2123.02 1325 L2123.62 1324.65 L2124.26 1324.3 L2124.89 1323.96 L2125.47 1323.61 L2125.95 1323.26 L2126.3 1322.91 L2126.49 1322.57 L2126.49 1322.22 L2126.3 1321.87 L2125.94 1321.52 L2125.4 1321.17 L2124.73 1320.83 L2123.95 1320.48 L2123.11 1320.13 L2122.24 1319.78 L2121.39 1319.44 L2120.59 1319.09 L2119.87 1318.74 L2119.27 1318.39 L2118.79 1318.05 L2118.44 1317.7 L2118.24 1317.35 L2118.17 1317 L2118.21 1316.66 L2118.36 1316.31 L2118.58 1315.96 L2118.85 1315.61 L2119.14 1315.27 L2119.41 1314.92 L2119.64 1314.57 L2119.8 1314.22 L2119.88 1313.87 L2119.87 1313.53 L2119.77 1313.18 L2119.58 1312.83 L2119.32 1312.48 L2119.01 1312.14 L2118.68 1311.79 L2118.35 1311.44 L2118.05 1311.09 L2117.8 1310.75 L2117.61 1310.4 L2117.51 1310.05 L2117.5 1309.7 L2117.58 1309.36 L2117.74 1309.01 L2117.97 1308.66 L2118.26 1308.31 L2118.59 1307.97 L2118.92 1307.62 L2119.24 1307.27 L2119.51 1306.92 L2119.72 1306.58 L2119.85 1306.23 L2111.79 1306.23 L2111.91 1306.58 L2112.12 1306.92 L2112.4 1307.27 L2112.71 1307.62 L2113.05 1307.97 L2113.37 1308.31 L2113.66 1308.66 L2113.9 1309.01 L2114.06 1309.36 L2114.14 1309.7 L2114.12 1310.05 L2114.02 1310.4 L2113.84 1310.75 L2113.59 1311.09 L2113.29 1311.44 L2112.96 1311.79 L2112.62 1312.14 L2112.32 1312.48 L2112.06 1312.83 L2111.87 1313.18 L2111.76 1313.53 L2111.75 1313.87 L2111.83 1314.22 L2112 1314.57 L2112.23 1314.92 L2112.5 1315.27 L2112.79 1315.61 L2113.06 1315.96 L2113.28 1316.31 L2113.42 1316.66 L2113.47 1317 L2113.4 1317.35 L2113.19 1317.7 L2112.85 1318.05 L2112.37 1318.39 L2111.76 1318.74 L2111.05 1319.09 L2110.24 1319.44 L2109.39 1319.78 L2108.52 1320.13 L2107.68 1320.48 L2106.91 1320.83 L2106.23 1321.17 L2105.7 1321.52 L2105.33 1321.87 L2105.15 1322.22 L2105.15 1322.57 L2105.33 1322.91 L2105.68 1323.26 L2106.16 1323.61 L2106.75 1323.96 L2107.38 1324.3 L2108.02 1324.65 L2108.61 1325 L2109.12 1325.35 L2109.51 1325.69 L2109.75 1326.04 L2109.81 1326.39 L2109.71 1326.74 L2109.45 1327.08 L2109.05 1327.43 L2108.54 1327.78 L2107.95 1328.13 L2107.32 1328.47 L2106.68 1328.82 L2106.04 1329.17 L2105.42 1329.52 L2104.8 1329.87 L2104.17 1330.21 L2103.48 1330.56 L2102.69 1330.91 L2101.77 1331.26 L2100.66 1331.6 L2099.34 1331.95 L2097.79 1332.3 L2096.02 1332.65 L2094.05 1332.99 L2091.92 1333.34 L2089.69 1333.69 L2087.41 1334.04 L2085.14 1334.38 L2082.92 1334.73 L2080.77 1335.08 L2078.66 1335.43 L2076.56 1335.77 L2074.39 1336.12 L2072.03 1336.47 L2069.38 1336.82 L2066.32 1337.16 L2062.74 1337.51 L2058.55 1337.86 L2053.72 1338.21 L2048.22 1338.56 L2042.09 1338.9 L2035.38 1339.25 L2028.2 1339.6 L2020.67 1339.95 L2012.91 1340.29 L2005.07 1340.64 L1997.27 1340.99 L1989.64 1341.34 L1982.26 1341.68 L1975.2 1342.03 L1968.51 1342.38 L1962.19 1342.73 L1956.23 1343.07 L1950.61 1343.42 L1945.28 1343.77 L1940.23 1344.12 L1935.43 1344.46 L1930.87 1344.81 L1926.58 1345.16 L1922.59 1345.51 L1918.93 1345.86 L1915.65 1346.2 L1912.78 1346.55 L1910.34 1346.9 L1908.35 1347.25 L1906.76 1347.59 L1905.55 1347.94 L1904.65 1348.29 L1904.01 1348.64 L1903.57 1348.98 L1903.28 1349.33 L1903.13 1349.68 L1903.11 1350.03 L1903.27 1350.37 L1903.66 1350.72 L1904.36 1351.07 L1905.43 1351.42 L1906.96 1351.76 L1909 1352.11 L1911.61 1352.46 L1914.82 1352.81 L1918.64 1353.15 L1923.09 1353.5 L1928.17 1353.85 L1933.91 1354.2 L1940.33 1354.55 L1947.45 1354.89 L1955.32 1355.24 L1963.95 1355.59 L1973.34 1355.94 L1983.45 1356.28 L1994.18 1356.63 L2005.39 1356.98 L2016.91 1357.33 L2214.73 1357.33  Z" fill="#3da44d" fill-rule="evenodd" fill-opacity="1"/>
<polyline clip-path="url(#clip391)" style="stroke:#000000; stroke-linecap:round; stroke-linejoin:round; stroke-width:4; stroke-opacity:1; fill:none" points="2214.73,1357.33 2226.24,1356.98 2237.46,1356.63 2248.19,1356.28 2258.29,1355.94 2267.68,1355.59 2276.31,1355.24 2284.18,1354.89 2291.31,1354.55 2297.72,1354.2 2303.46,1353.85 2308.55,1353.5 2312.99,1353.15 2316.82,1352.81 2320.02,1352.46 2322.63,1352.11 2324.68,1351.76 2326.21,1351.42 2327.28,1351.07 2327.97,1350.72 2328.36,1350.37 2328.52,1350.03 2328.51,1349.68 2328.36,1349.33 2328.07,1348.98 2327.63,1348.64 2326.98,1348.29 2326.09,1347.94 2324.88,1347.59 2323.29,1347.25 2321.29,1346.9 2318.86,1346.55 2315.99,1346.2 2312.71,1345.86 2309.05,1345.51 2305.05,1345.16 2300.76,1344.81 2296.21,1344.46 2291.41,1344.12 2286.35,1343.77 2281.03,1343.42 2275.41,1343.07 2269.45,1342.73 2263.13,1342.38 2256.43,1342.03 2249.38,1341.68 2242,1341.34 2234.36,1340.99 2226.57,1340.64 2218.72,1340.29 2210.97,1339.95 2203.43,1339.6 2196.25,1339.25 2189.55,1338.9 2183.41,1338.56 2177.92,1338.21 2173.08,1337.86 2168.9,1337.51 2165.32,1337.16 2162.25,1336.82 2159.6,1336.47 2157.25,1336.12 2155.07,1335.77 2152.97,1335.43 2150.87,1335.08 2148.72,1334.73 2146.5,1334.38 2144.23,1334.04 2141.95,1333.69 2139.71,1333.34 2137.58,1332.99 2135.61,1332.65 2133.84,1332.3 2132.3,1331.95 2130.98,1331.6 2129.87,1331.26 2128.95,1330.91 2128.16,1330.56 2127.47,1330.21 2126.83,1329.87 2126.21,1329.52 2125.59,1329.17 2124.96,1328.82 2124.31,1328.47 2123.69,1328.13 2123.1,1327.78 2122.59,1327.43 2122.19,1327.08 2121.93,1326.74 2121.82,1326.39 2121.89,1326.04 2122.13,1325.69 2122.51,1325.35 2123.02,1325 2123.62,1324.65 2124.26,1324.3 2124.89,1323.96 2125.47,1323.61 2125.95,1323.26 2126.3,1322.91 2126.49,1322.57 2126.49,1322.22 2126.3,1321.87 2125.94,1321.52 2125.4,1321.17 2124.73,1320.83 2123.95,1320.48 2123.11,1320.13 2122.24,1319.78 2121.39,1319.44 2120.59,1319.09 2119.87,1318.74 2119.27,1318.39 2118.79,1318.05 2118.44,1317.7 2118.24,1317.35 2118.17,1317 2118.21,1316.66 2118.36,1316.31 2118.58,1315.96 2118.85,1315.61 2119.14,1315.27 2119.41,1314.92 2119.64,1314.57 2119.8,1314.22 2119.88,1313.87 2119.87,1313.53 2119.77,1313.18 2119.58,1312.83 2119.32,1312.48 2119.01,1312.14 2118.68,1311.79 2118.35,1311.44 2118.05,1311.09 2117.8,1310.75 2117.61,1310.4 2117.51,1310.05 2117.5,1309.7 2117.58,1309.36 2117.74,1309.01 2117.97,1308.66 2118.26,1308.31 2118.59,1307.97 2118.92,1307.62 2119.24,1307.27 2119.51,1306.92 2119.72,1306.58 2119.85,1306.23 2111.79,1306.23 2111.91,1306.58 2112.12,1306.92 2112.4,1307.27 2112.71,1307.62 2113.05,1307.97 2113.37,1308.31 2113.66,1308.66 2113.9,1309.01 2114.06,1309.36 2114.14,1309.7 2114.12,1310.05 2114.02,1310.4 2113.84,1310.75 2113.59,1311.09 2113.29,1311.44 2112.96,1311.79 2112.62,1312.14 2112.32,1312.48 2112.06,1312.83 2111.87,1313.18 2111.76,1313.53 2111.75,1313.87 2111.83,1314.22 2112,1314.57 2112.23,1314.92 2112.5,1315.27 2112.79,1315.61 2113.06,1315.96 2113.28,1316.31 2113.42,1316.66 2113.47,1317 2113.4,1317.35 2113.19,1317.7 2112.85,1318.05 2112.37,1318.39 2111.76,1318.74 2111.05,1319.09 2110.24,1319.44 2109.39,1319.78 2108.52,1320.13 2107.68,1320.48 2106.91,1320.83 2106.23,1321.17 2105.7,1321.52 2105.33,1321.87 2105.15,1322.22 2105.15,1322.57 2105.33,1322.91 2105.68,1323.26 2106.16,1323.61 2106.75,1323.96 2107.38,1324.3 2108.02,1324.65 2108.61,1325 2109.12,1325.35 2109.51,1325.69 2109.75,1326.04 2109.81,1326.39 2109.71,1326.74 2109.45,1327.08 2109.05,1327.43 2108.54,1327.78 2107.95,1328.13 2107.32,1328.47 2106.68,1328.82 2106.04,1329.17 2105.42,1329.52 2104.8,1329.87 2104.17,1330.21 2103.48,1330.56 2102.69,1330.91 2101.77,1331.26 2100.66,1331.6 2099.34,1331.95 2097.79,1332.3 2096.02,1332.65 2094.05,1332.99 2091.92,1333.34 2089.69,1333.69 2087.41,1334.04 2085.14,1334.38 2082.92,1334.73 2080.77,1335.08 2078.66,1335.43 2076.56,1335.77 2074.39,1336.12 2072.03,1336.47 2069.38,1336.82 2066.32,1337.16 2062.74,1337.51 2058.55,1337.86 2053.72,1338.21 2048.22,1338.56 2042.09,1338.9 2035.38,1339.25 2028.2,1339.6 2020.67,1339.95 2012.91,1340.29 2005.07,1340.64 1997.27,1340.99 1989.64,1341.34 1982.26,1341.68 1975.2,1342.03 1968.51,1342.38 1962.19,1342.73 1956.23,1343.07 1950.61,1343.42 1945.28,1343.77 1940.23,1344.12 1935.43,1344.46 1930.87,1344.81 1926.58,1345.16 1922.59,1345.51 1918.93,1345.86 1915.65,1346.2 1912.78,1346.55 1910.34,1346.9 1908.35,1347.25 1906.76,1347.59 1905.55,1347.94 1904.65,1348.29 1904.01,1348.64 1903.57,1348.98 1903.28,1349.33 1903.13,1349.68 1903.11,1350.03 1903.27,1350.37 1903.66,1350.72 1904.36,1351.07 1905.43,1351.42 1906.96,1351.76 1909,1352.11 1911.61,1352.46 1914.82,1352.81 1918.64,1353.15 1923.09,1353.5 1928.17,1353.85 1933.91,1354.2 1940.33,1354.55 1947.45,1354.89 1955.32,1355.24 1963.95,1355.59 1973.34,1355.94 1983.45,1356.28 1994.18,1356.63 2005.39,1356.98 2016.91,1357.33 2214.73,1357.33 "/>
<path clip-path="url(#clip391)" d="M2906.34 1053.12 L2920.43 1052.26 L2935.91 1051.4 L2952.32 1050.54 L2969.34 1049.68 L2986.89 1048.82 L3004.89 1047.96 L3023.02 1047.1 L3040.42 1046.24 L3055.7 1045.38 L3067.12 1044.52 L3072.99 1043.67 L3072 1042.81 L3063.66 1041.95 L3048.55 1041.09 L3028.36 1040.23 L3005.58 1039.37 L2982.89 1038.51 L2962.58 1037.65 L2946.19 1036.79 L2934.43 1035.93 L2927.3 1035.07 L2924.32 1034.21 L2924.55 1033.35 L2926.73 1032.49 L2929.39 1031.63 L2931.11 1030.78 L2930.76 1029.92 L2927.75 1029.06 L2922.08 1028.2 L2914.27 1027.34 L2905.21 1026.48 L2895.89 1025.62 L2887.21 1024.76 L2879.81 1023.9 L2874.13 1023.04 L2870.34 1022.18 L2868.46 1021.32 L2868.33 1020.46 L2869.62 1019.6 L2871.81 1018.74 L2874.28 1017.89 L2876.35 1017.03 L2877.49 1016.17 L2877.4 1015.31 L2876.08 1014.45 L2873.82 1013.59 L2871.04 1012.73 L2868.21 1011.87 L2865.69 1011.01 L2863.69 1010.15 L2862.26 1009.29 L2861.34 1008.43 L2860.8 1007.57 L2860.53 1006.71 L2860.41 1005.85 L2860.39 1005 L2860.46 1004.14 L2860.65 1003.28 L2860.98 1002.42 L2861.49 1001.56 L2862.17 1000.7 L2862.95 999.839 L2863.67 998.98 L2864.17 998.12 L2864.29 997.261 L2864.01 996.402 L2863.4 995.542 L2862.63 994.683 L2861.88 993.824 L2861.26 992.964 L2860.82 992.105 L2860.55 991.246 L2860.4 990.386 L2860.33 989.527 L2860.3 988.668 L2860.29 987.808 L2860.29 986.949 L2860.29 986.09 L2860.29 985.23 L2860.29 984.371 L2860.29 983.512 L2860.29 982.652 L2860.29 981.793 L2860.29 980.934 L2860.29 980.074 L2860.29 979.215 L2860.29 978.356 L2860.29 977.496 L2860.29 976.637 L2860.29 975.778 L2860.29 974.918 L2860.29 974.059 L2860.29 973.2 L2860.29 972.34 L2860.29 971.481 L2860.29 970.622 L2860.29 969.762 L2860.29 968.903 L2860.29 968.044 L2860.29 967.184 L2860.29 966.325 L2860.29 965.466 L2860.29 964.606 L2860.29 963.747 L2860.29 962.888 L2860.29 962.028 L2860.29 961.169 L2860.29 960.31 L2860.29 959.45 L2860.29 958.591 L2860.29 957.732 L2860.29 956.872 L2860.29 956.013 L2860.29 955.154 L2860.29 954.294 L2860.29 953.435 L2860.29 952.576 L2860.29 951.716 L2860.29 950.857 L2860.29 949.998 L2860.29 949.138 L2860.29 948.279 L2860.29 947.42 L2860.29 946.56 L2860.29 945.701 L2860.29 944.842 L2860.29 943.982 L2860.29 943.123 L2860.29 942.264 L2860.29 941.404 L2860.29 940.545 L2860.29 939.685 L2860.29 938.826 L2860.29 937.967 L2860.29 937.107 L2860.29 936.248 L2860.29 935.389 L2860.29 934.529 L2860.29 933.67 L2860.29 932.811 L2860.29 931.951 L2860.29 931.092 L2860.29 930.233 L2860.29 929.373 L2860.29 928.514 L2860.29 927.655 L2860.29 926.795 L2860.29 925.936 L2860.29 925.077 L2860.29 924.217 L2860.29 923.358 L2860.29 922.499 L2860.29 921.639 L2860.29 920.78 L2860.29 919.921 L2860.29 919.061 L2860.29 918.202 L2860.29 917.343 L2860.29 916.483 L2860.29 915.624 L2860.29 914.765 L2860.29 913.905 L2860.3 913.046 L2860.31 912.187 L2860.36 911.327 L2860.46 910.468 L2860.65 909.609 L2860.99 908.749 L2861.51 907.89 L2862.2 907.031 L2862.98 906.171 L2863.7 905.312 L2864.18 904.453 L2856.4 904.453 L2856.88 905.312 L2857.59 906.171 L2858.37 907.031 L2859.06 907.89 L2859.58 908.749 L2859.92 909.609 L2860.11 910.468 L2860.21 911.327 L2860.26 912.187 L2860.28 913.046 L2860.28 913.905 L2860.29 914.765 L2860.29 915.624 L2860.29 916.483 L2860.29 917.343 L2860.29 918.202 L2860.29 919.061 L2860.29 919.921 L2860.29 920.78 L2860.29 921.639 L2860.29 922.499 L2860.29 923.358 L2860.29 924.217 L2860.29 925.077 L2860.29 925.936 L2860.29 926.795 L2860.29 927.655 L2860.29 928.514 L2860.29 929.373 L2860.29 930.233 L2860.29 931.092 L2860.29 931.951 L2860.29 932.811 L2860.29 933.67 L2860.29 934.529 L2860.29 935.389 L2860.29 936.248 L2860.29 937.107 L2860.29 937.967 L2860.29 938.826 L2860.29 939.685 L2860.29 940.545 L2860.29 941.404 L2860.29 942.264 L2860.29 943.123 L2860.29 943.982 L2860.29 944.842 L2860.29 945.701 L2860.29 946.56 L2860.29 947.42 L2860.29 948.279 L2860.29 949.138 L2860.29 949.998 L2860.29 950.857 L2860.29 951.716 L2860.29 952.576 L2860.29 953.435 L2860.29 954.294 L2860.29 955.154 L2860.29 956.013 L2860.29 956.872 L2860.29 957.732 L2860.29 958.591 L2860.29 959.45 L2860.29 960.31 L2860.29 961.169 L2860.29 962.028 L2860.29 962.888 L2860.29 963.747 L2860.29 964.606 L2860.29 965.466 L2860.29 966.325 L2860.29 967.184 L2860.29 968.044 L2860.29 968.903 L2860.29 969.762 L2860.29 970.622 L2860.29 971.481 L2860.29 972.34 L2860.29 973.2 L2860.29 974.059 L2860.29 974.918 L2860.29 975.778 L2860.29 976.637 L2860.29 977.496 L2860.29 978.356 L2860.29 979.215 L2860.29 980.074 L2860.29 980.934 L2860.29 981.793 L2860.29 982.652 L2860.29 983.512 L2860.29 984.371 L2860.29 985.23 L2860.29 986.09 L2860.28 986.949 L2860.28 987.808 L2860.27 988.668 L2860.24 989.527 L2860.17 990.386 L2860.02 991.246 L2859.75 992.105 L2859.32 992.964 L2858.7 993.824 L2857.94 994.683 L2857.17 995.542 L2856.56 996.402 L2856.28 997.261 L2856.4 998.12 L2856.9 998.98 L2857.63 999.839 L2858.4 1000.7 L2859.09 1001.56 L2859.6 1002.42 L2859.93 1003.28 L2860.11 1004.14 L2860.18 1005 L2860.17 1005.85 L2860.05 1006.71 L2859.77 1007.57 L2859.23 1008.43 L2858.31 1009.29 L2856.88 1010.15 L2854.88 1011.01 L2852.37 1011.87 L2849.54 1012.73 L2846.76 1013.59 L2844.49 1014.45 L2843.17 1015.31 L2843.08 1016.17 L2844.22 1017.03 L2846.29 1017.89 L2848.76 1018.74 L2850.95 1019.6 L2852.24 1020.46 L2852.11 1021.32 L2850.23 1022.18 L2846.44 1023.04 L2840.76 1023.9 L2833.37 1024.76 L2824.68 1025.62 L2815.36 1026.48 L2806.3 1027.34 L2798.5 1028.2 L2792.82 1029.06 L2789.81 1029.92 L2789.47 1030.78 L2791.18 1031.63 L2793.84 1032.49 L2796.02 1033.35 L2796.25 1034.21 L2793.27 1035.07 L2786.15 1035.93 L2774.38 1036.79 L2757.99 1037.65 L2737.68 1038.51 L2715 1039.37 L2692.21 1040.23 L2672.02 1041.09 L2656.91 1041.95 L2648.57 1042.81 L2647.58 1043.67 L2653.45 1044.52 L2664.87 1045.38 L2680.15 1046.24 L2697.55 1047.1 L2715.68 1047.96 L2733.69 1048.82 L2751.23 1049.68 L2768.25 1050.54 L2784.66 1051.4 L2800.14 1052.26 L2814.23 1053.12 L2906.34 1053.12  Z" fill="#c271d2" fill-rule="evenodd" fill-opacity="1"/>
<polyline clip-path="url(#clip391)" style="stroke:#000000; stroke-linecap:round; stroke-linejoin:round; stroke-width:4; stroke-opacity:1; fill:none" points="2906.34,1053.12 2920.43,1052.26 2935.91,1051.4 2952.32,1050.54 2969.34,1049.68 2986.89,1048.82 3004.89,1047.96 3023.02,1047.1 3040.42,1046.24 3055.7,1045.38 3067.12,1044.52 3072.99,1043.67 3072,1042.81 3063.66,1041.95 3048.55,1041.09 3028.36,1040.23 3005.58,1039.37 2982.89,1038.51 2962.58,1037.65 2946.19,1036.79 2934.43,1035.93 2927.3,1035.07 2924.32,1034.21 2924.55,1033.35 2926.73,1032.49 2929.39,1031.63 2931.11,1030.78 2930.76,1029.92 2927.75,1029.06 2922.08,1028.2 2914.27,1027.34 2905.21,1026.48 2895.89,1025.62 2887.21,1024.76 2879.81,1023.9 2874.13,1023.04 2870.34,1022.18 2868.46,1021.32 2868.33,1020.46 2869.62,1019.6 2871.81,1018.74 2874.28,1017.89 2876.35,1017.03 2877.49,1016.17 2877.4,1015.31 2876.08,1014.45 2873.82,1013.59 2871.04,1012.73 2868.21,1011.87 2865.69,1011.01 2863.69,1010.15 2862.26,1009.29 2861.34,1008.43 2860.8,1007.57 2860.53,1006.71 2860.41,1005.85 2860.39,1005 2860.46,1004.14 2860.65,1003.28 2860.98,1002.42 2861.49,1001.56 2862.17,1000.7 2862.95,999.839 2863.67,998.98 2864.17,998.12 2864.29,997.261 2864.01,996.402 2863.4,995.542 2862.63,994.683 2861.88,993.824 2861.26,992.964 2860.82,992.105 2860.55,991.246 2860.4,990.386 2860.33,989.527 2860.3,988.668 2860.29,987.808 2860.29,986.949 2860.29,986.09 2860.29,985.23 2860.29,984.371 2860.29,983.512 2860.29,982.652 2860.29,981.793 2860.29,980.934 2860.29,980.074 2860.29,979.215 2860.29,978.356 2860.29,977.496 2860.29,976.637 2860.29,975.778 2860.29,974.918 2860.29,974.059 2860.29,973.2 2860.29,972.34 2860.29,971.481 2860.29,970.622 2860.29,969.762 2860.29,968.903 2860.29,968.044 2860.29,967.184 2860.29,966.325 2860.29,965.466 2860.29,964.606 2860.29,963.747 2860.29,962.888 2860.29,962.028 2860.29,961.169 2860.29,960.31 2860.29,959.45 2860.29,958.591 2860.29,957.732 2860.29,956.872 2860.29,956.013 2860.29,955.154 2860.29,954.294 2860.29,953.435 2860.29,952.576 2860.29,951.716 2860.29,950.857 2860.29,949.998 2860.29,949.138 2860.29,948.279 2860.29,947.42 2860.29,946.56 2860.29,945.701 2860.29,944.842 2860.29,943.982 2860.29,943.123 2860.29,942.264 2860.29,941.404 2860.29,940.545 2860.29,939.685 2860.29,938.826 2860.29,937.967 2860.29,937.107 2860.29,936.248 2860.29,935.389 2860.29,934.529 2860.29,933.67 2860.29,932.811 2860.29,931.951 2860.29,931.092 2860.29,930.233 2860.29,929.373 2860.29,928.514 2860.29,927.655 2860.29,926.795 2860.29,925.936 2860.29,925.077 2860.29,924.217 2860.29,923.358 2860.29,922.499 2860.29,921.639 2860.29,920.78 2860.29,919.921 2860.29,919.061 2860.29,918.202 2860.29,917.343 2860.29,916.483 2860.29,915.624 2860.29,914.765 2860.29,913.905 2860.3,913.046 2860.31,912.187 2860.36,911.327 2860.46,910.468 2860.65,909.609 2860.99,908.749 2861.51,907.89 2862.2,907.031 2862.98,906.171 2863.7,905.312 2864.18,904.453 2856.4,904.453 2856.88,905.312 2857.59,906.171 2858.37,907.031 2859.06,907.89 2859.58,908.749 2859.92,909.609 2860.11,910.468 2860.21,911.327 2860.26,912.187 2860.28,913.046 2860.28,913.905 2860.29,914.765 2860.29,915.624 2860.29,916.483 2860.29,917.343 2860.29,918.202 2860.29,919.061 2860.29,919.921 2860.29,920.78 2860.29,921.639 2860.29,922.499 2860.29,923.358 2860.29,924.217 2860.29,925.077 2860.29,925.936 2860.29,926.795 2860.29,927.655 2860.29,928.514 2860.29,929.373 2860.29,930.233 2860.29,931.092 2860.29,931.951 2860.29,932.811 2860.29,933.67 2860.29,934.529 2860.29,935.389 2860.29,936.248 2860.29,937.107 2860.29,937.967 2860.29,938.826 2860.29,939.685 2860.29,940.545 2860.29,941.404 2860.29,942.264 2860.29,943.123 2860.29,943.982 2860.29,944.842 2860.29,945.701 2860.29,946.56 2860.29,947.42 2860.29,948.279 2860.29,949.138 2860.29,949.998 2860.29,950.857 2860.29,951.716 2860.29,952.576 2860.29,953.435 2860.29,954.294 2860.29,955.154 2860.29,956.013 2860.29,956.872 2860.29,957.732 2860.29,958.591 2860.29,959.45 2860.29,960.31 2860.29,961.169 2860.29,962.028 2860.29,962.888 2860.29,963.747 2860.29,964.606 2860.29,965.466 2860.29,966.325 2860.29,967.184 2860.29,968.044 2860.29,968.903 2860.29,969.762 2860.29,970.622 2860.29,971.481 2860.29,972.34 2860.29,973.2 2860.29,974.059 2860.29,974.918 2860.29,975.778 2860.29,976.637 2860.29,977.496 2860.29,978.356 2860.29,979.215 2860.29,980.074 2860.29,980.934 2860.29,981.793 2860.29,982.652 2860.29,983.512 2860.29,984.371 2860.29,985.23 2860.29,986.09 2860.28,986.949 2860.28,987.808 2860.27,988.668 2860.24,989.527 2860.17,990.386 2860.02,991.246 2859.75,992.105 2859.32,992.964 2858.7,993.824 2857.94,994.683 2857.17,995.542 2856.56,996.402 2856.28,997.261 2856.4,998.12 2856.9,998.98 2857.63,999.839 2858.4,1000.7 2859.09,1001.56 2859.6,1002.42 2859.93,1003.28 2860.11,1004.14 2860.18,1005 2860.17,1005.85 2860.05,1006.71 2859.77,1007.57 2859.23,1008.43 2858.31,1009.29 2856.88,1010.15 2854.88,1011.01 2852.37,1011.87 2849.54,1012.73 2846.76,1013.59 2844.49,1014.45 2843.17,1015.31 2843.08,1016.17 2844.22,1017.03 2846.29,1017.89 2848.76,1018.74 2850.95,1019.6 2852.24,1020.46 2852.11,1021.32 2850.23,1022.18 2846.44,1023.04 2840.76,1023.9 2833.37,1024.76 2824.68,1025.62 2815.36,1026.48 2806.3,1027.34 2798.5,1028.2 2792.82,1029.06 2789.81,1029.92 2789.47,1030.78 2791.18,1031.63 2793.84,1032.49 2796.02,1033.35 2796.25,1034.21 2793.27,1035.07 2786.15,1035.93 2774.38,1036.79 2757.99,1037.65 2737.68,1038.51 2715,1039.37 2692.21,1040.23 2672.02,1041.09 2656.91,1041.95 2648.57,1042.81 2647.58,1043.67 2653.45,1044.52 2664.87,1045.38 2680.15,1046.24 2697.55,1047.1 2715.68,1047.96 2733.69,1048.82 2751.23,1049.68 2768.25,1050.54 2784.66,1051.4 2800.14,1052.26 2814.23,1053.12 2906.34,1053.12 "/>
</svg>
