<?xml version="1.0" encoding="utf-8"?>
<svg xmlns="http://www.w3.org/2000/svg" xmlns:xlink="http://www.w3.org/1999/xlink" width="800" height="400" viewBox="0 0 3200 1600">
<defs>
  <clipPath id="clip790">
    <rect x="0" y="0" width="3200" height="1600"/>
  </clipPath>
</defs>
<path clip-path="url(#clip790)" d="M0 1600 L3200 1600 L3200 0 L0 0  Z" fill="#ffffff" fill-rule="evenodd" fill-opacity="1"/>
<defs>
  <clipPath id="clip791">
    <rect x="310" y="171" width="2214" height="1201"/>
  </clipPath>
</defs>
<path clip-path="url(#clip790)" d="M310.484 1371.5 L2523.06 1371.5 L2523.06 171.344 L310.484 171.344  Z" fill="#ffffff" fill-rule="evenodd" fill-opacity="1"/>
<polyline clip-path="url(#clip791)" style="stroke:#000000; stroke-linecap:round; stroke-linejoin:round; stroke-width:2; stroke-opacity:0.1; fill:none" points="454.95,1371.5 454.95,171.344 "/>
<polyline clip-path="url(#clip791)" style="stroke:#000000; stroke-linecap:round; stroke-linejoin:round; stroke-width:2; stroke-opacity:0.1; fill:none" points="1537.39,1371.5 1537.39,171.344 "/>
<polyline clip-path="url(#clip791)" style="stroke:#000000; stroke-linecap:round; stroke-linejoin:round; stroke-width:2; stroke-opacity:0.1; fill:none" points="310.484,1191.11 2523.06,1191.11 "/>
<polyline clip-path="url(#clip791)" style="stroke:#000000; stroke-linecap:round; stroke-linejoin:round; stroke-width:2; stroke-opacity:0.1; fill:none" points="310.484,456.678 2523.06,456.678 "/>
<polyline clip-path="url(#clip790)" style="stroke:#000000; stroke-linecap:round; stroke-linejoin:round; stroke-width:4; stroke-opacity:1; fill:none" points="310.484,1371.5 2523.06,1371.5 "/>
<polyline clip-path="url(#clip790)" style="stroke:#000000; stroke-linecap:round; stroke-linejoin:round; stroke-width:4; stroke-opacity:1; fill:none" points="454.95,1371.5 454.95,1352.6 "/>
<polyline clip-path="url(#clip790)" style="stroke:#000000; stroke-linecap:round; stroke-linejoin:round; stroke-width:4; stroke-opacity:1; fill:none" points="1537.39,1371.5 1537.39,1352.6 "/>
<path clip-path="url(#clip790)" d="M404.972 1452.02 L412.61 1452.02 L412.61 1425.65 L404.3 1427.32 L404.3 1423.06 L412.564 1421.4 L417.24 1421.4 L417.24 1452.02 L424.879 1452.02 L424.879 1455.96 L404.972 1455.96 L404.972 1452.02 Z" fill="#000000" fill-rule="nonzero" fill-opacity="1" /><path clip-path="url(#clip790)" d="M444.323 1424.47 Q440.712 1424.47 438.883 1428.04 Q437.078 1431.58 437.078 1438.71 Q437.078 1445.82 438.883 1449.38 Q440.712 1452.92 444.323 1452.92 Q447.957 1452.92 449.763 1449.38 Q451.592 1445.82 451.592 1438.71 Q451.592 1431.58 449.763 1428.04 Q447.957 1424.47 444.323 1424.47 M444.323 1420.77 Q450.133 1420.77 453.189 1425.38 Q456.268 1429.96 456.268 1438.71 Q456.268 1447.44 453.189 1452.04 Q450.133 1456.63 444.323 1456.63 Q438.513 1456.63 435.434 1452.04 Q432.379 1447.44 432.379 1438.71 Q432.379 1429.96 435.434 1425.38 Q438.513 1420.77 444.323 1420.77 Z" fill="#000000" fill-rule="nonzero" fill-opacity="1" /><path clip-path="url(#clip790)" d="M456.268 1414.87 L480.379 1414.87 L480.379 1418.07 L456.268 1418.07 L456.268 1414.87 Z" fill="#000000" fill-rule="nonzero" fill-opacity="1" /><path clip-path="url(#clip790)" d="M488.617 1400.46 L503.532 1400.46 L503.532 1403.66 L492.096 1403.66 L492.096 1410.55 Q492.924 1410.26 493.751 1410.13 Q494.579 1409.98 495.407 1409.98 Q500.108 1409.98 502.854 1412.56 Q505.6 1415.13 505.6 1419.54 Q505.6 1424.07 502.779 1426.59 Q499.958 1429.09 494.824 1429.09 Q493.056 1429.09 491.212 1428.79 Q489.388 1428.49 487.432 1427.89 L487.432 1424.07 Q489.125 1424.99 490.93 1425.44 Q492.736 1425.89 494.748 1425.89 Q498.002 1425.89 499.902 1424.18 Q501.801 1422.47 501.801 1419.54 Q501.801 1416.6 499.902 1414.89 Q498.002 1413.18 494.748 1413.18 Q493.225 1413.18 491.701 1413.52 Q490.197 1413.86 488.617 1414.57 L488.617 1400.46 Z" fill="#000000" fill-rule="nonzero" fill-opacity="1" /><path clip-path="url(#clip790)" d="M1502.38 1452.02 L1510.01 1452.02 L1510.01 1425.65 L1501.7 1427.32 L1501.7 1423.06 L1509.97 1421.4 L1514.64 1421.4 L1514.64 1452.02 L1522.28 1452.02 L1522.28 1455.96 L1502.38 1455.96 L1502.38 1452.02 Z" fill="#000000" fill-rule="nonzero" fill-opacity="1" /><path clip-path="url(#clip790)" d="M1541.73 1424.47 Q1538.12 1424.47 1536.29 1428.04 Q1534.48 1431.58 1534.48 1438.71 Q1534.48 1445.82 1536.29 1449.38 Q1538.12 1452.92 1541.73 1452.92 Q1545.36 1452.92 1547.17 1449.38 Q1549 1445.82 1549 1438.71 Q1549 1431.58 1547.17 1428.04 Q1545.36 1424.47 1541.73 1424.47 M1541.73 1420.77 Q1547.54 1420.77 1550.59 1425.38 Q1553.67 1429.96 1553.67 1438.71 Q1553.67 1447.44 1550.59 1452.04 Q1547.54 1456.63 1541.73 1456.63 Q1535.92 1456.63 1532.84 1452.04 Q1529.78 1447.44 1529.78 1438.71 Q1529.78 1429.96 1532.84 1425.38 Q1535.92 1420.77 1541.73 1420.77 Z" fill="#000000" fill-rule="nonzero" fill-opacity="1" /><path clip-path="url(#clip790)" d="M1563.38 1402.97 Q1560.44 1402.97 1558.96 1405.86 Q1557.49 1408.74 1557.49 1414.53 Q1557.49 1420.31 1558.96 1423.2 Q1560.44 1426.08 1563.38 1426.08 Q1566.33 1426.08 1567.8 1423.2 Q1569.28 1420.31 1569.28 1414.53 Q1569.28 1408.74 1567.8 1405.86 Q1566.33 1402.97 1563.38 1402.97 M1563.38 1399.96 Q1568.1 1399.96 1570.58 1403.7 Q1573.08 1407.42 1573.08 1414.53 Q1573.08 1421.62 1570.58 1425.37 Q1568.1 1429.09 1563.38 1429.09 Q1558.66 1429.09 1556.15 1425.37 Q1553.67 1421.62 1553.67 1414.53 Q1553.67 1407.42 1556.15 1403.7 Q1558.66 1399.96 1563.38 1399.96 Z" fill="#000000" fill-rule="nonzero" fill-opacity="1" /><path clip-path="url(#clip790)" d="M1277.75 1499.26 L1307.79 1499.26 L1307.79 1504.67 L1284.17 1504.67 L1284.17 1518.74 L1306.8 1518.74 L1306.8 1524.15 L1284.17 1524.15 L1284.17 1541.37 L1308.36 1541.37 L1308.36 1546.78 L1277.75 1546.78 L1277.75 1499.26 Z" fill="#000000" fill-rule="nonzero" fill-opacity="1" /><path clip-path="url(#clip790)" d="M1339.33 1516.61 Q1338.35 1516.04 1337.17 1515.78 Q1336.02 1515.5 1334.62 1515.5 Q1329.66 1515.5 1326.98 1518.74 Q1324.34 1521.96 1324.34 1528.01 L1324.34 1546.78 L1318.45 1546.78 L1318.45 1511.14 L1324.34 1511.14 L1324.34 1516.67 Q1326.19 1513.43 1329.15 1511.87 Q1332.11 1510.28 1336.34 1510.28 Q1336.95 1510.28 1337.68 1510.37 Q1338.41 1510.44 1339.3 1510.6 L1339.33 1516.61 Z" fill="#000000" fill-rule="nonzero" fill-opacity="1" /><path clip-path="url(#clip790)" d="M1364.99 1516.61 Q1364 1516.04 1362.82 1515.78 Q1361.68 1515.5 1360.28 1515.5 Q1355.31 1515.5 1352.64 1518.74 Q1350 1521.96 1350 1528.01 L1350 1546.78 L1344.11 1546.78 L1344.11 1511.14 L1350 1511.14 L1350 1516.67 Q1351.84 1513.43 1354.8 1511.87 Q1357.76 1510.28 1362 1510.28 Q1362.6 1510.28 1363.33 1510.37 Q1364.06 1510.44 1364.96 1510.6 L1364.99 1516.61 Z" fill="#000000" fill-rule="nonzero" fill-opacity="1" /><path clip-path="url(#clip790)" d="M1383.51 1515.24 Q1378.8 1515.24 1376.06 1518.93 Q1373.33 1522.59 1373.33 1528.99 Q1373.33 1535.39 1376.03 1539.08 Q1378.77 1542.74 1383.51 1542.74 Q1388.19 1542.74 1390.93 1539.05 Q1393.66 1535.36 1393.66 1528.99 Q1393.66 1522.66 1390.93 1518.97 Q1388.19 1515.24 1383.51 1515.24 M1383.51 1510.28 Q1391.15 1510.28 1395.51 1515.24 Q1399.87 1520.21 1399.87 1528.99 Q1399.87 1537.74 1395.51 1542.74 Q1391.15 1547.71 1383.51 1547.71 Q1375.84 1547.71 1371.48 1542.74 Q1367.15 1537.74 1367.15 1528.99 Q1367.15 1520.21 1371.48 1515.24 Q1375.84 1510.28 1383.51 1510.28 Z" fill="#000000" fill-rule="nonzero" fill-opacity="1" /><path clip-path="url(#clip790)" d="M1430.24 1516.61 Q1429.25 1516.04 1428.07 1515.78 Q1426.93 1515.5 1425.52 1515.5 Q1420.56 1515.5 1417.89 1518.74 Q1415.24 1521.96 1415.24 1528.01 L1415.24 1546.78 L1409.36 1546.78 L1409.36 1511.14 L1415.24 1511.14 L1415.24 1516.67 Q1417.09 1513.43 1420.05 1511.87 Q1423.01 1510.28 1427.24 1510.28 Q1427.85 1510.28 1428.58 1510.37 Q1429.31 1510.44 1430.2 1510.6 L1430.24 1516.61 Z" fill="#000000" fill-rule="nonzero" fill-opacity="1" /><path clip-path="url(#clip790)" d="M1471.17 1497.32 Q1466.9 1504.64 1464.83 1511.8 Q1462.76 1518.97 1462.76 1526.32 Q1462.76 1533.67 1464.83 1540.9 Q1466.93 1548.09 1471.17 1555.38 L1466.07 1555.38 Q1461.3 1547.9 1458.91 1540.67 Q1456.56 1533.45 1456.56 1526.32 Q1456.56 1519.22 1458.91 1512.03 Q1461.27 1504.83 1466.07 1497.32 L1471.17 1497.32 Z" fill="#000000" fill-rule="nonzero" fill-opacity="1" /><path clip-path="url(#clip790)" d="M1482.53 1497.26 L1488.39 1497.26 L1488.39 1546.78 L1482.53 1546.78 L1482.53 1497.26 Z" fill="#000000" fill-rule="nonzero" fill-opacity="1" /><path clip-path="url(#clip790)" d="M1507.01 1541.37 L1529.45 1541.37 L1529.45 1546.78 L1499.27 1546.78 L1499.27 1541.37 Q1502.93 1537.59 1509.23 1531.22 Q1515.57 1524.82 1517.19 1522.98 Q1520.28 1519.51 1521.49 1517.12 Q1522.73 1514.7 1522.73 1512.38 Q1522.73 1508.59 1520.06 1506.2 Q1517.41 1503.82 1513.15 1503.82 Q1510.13 1503.82 1506.75 1504.87 Q1503.41 1505.92 1499.59 1508.05 L1499.59 1501.56 Q1503.47 1500 1506.85 1499.2 Q1510.22 1498.4 1513.02 1498.4 Q1520.41 1498.4 1524.8 1502.1 Q1529.19 1505.79 1529.19 1511.96 Q1529.19 1514.89 1528.08 1517.53 Q1526.99 1520.14 1524.1 1523.71 Q1523.3 1524.63 1519.04 1529.06 Q1514.77 1533.45 1507.01 1541.37 Z" fill="#000000" fill-rule="nonzero" fill-opacity="1" /><path clip-path="url(#clip790)" d="M1541.19 1497.32 L1546.28 1497.32 Q1551.06 1504.83 1553.41 1512.03 Q1555.8 1519.22 1555.8 1526.32 Q1555.8 1533.45 1553.41 1540.67 Q1551.06 1547.9 1546.28 1555.38 L1541.19 1555.38 Q1545.42 1548.09 1547.49 1540.9 Q1549.59 1533.67 1549.59 1526.32 Q1549.59 1518.97 1547.49 1511.8 Q1545.42 1504.64 1541.19 1497.32 Z" fill="#000000" fill-rule="nonzero" fill-opacity="1" /><polyline clip-path="url(#clip790)" style="stroke:#000000; stroke-linecap:round; stroke-linejoin:round; stroke-width:4; stroke-opacity:1; fill:none" points="310.484,1371.5 310.484,171.344 "/>
<polyline clip-path="url(#clip790)" style="stroke:#000000; stroke-linecap:round; stroke-linejoin:round; stroke-width:4; stroke-opacity:1; fill:none" points="310.484,1191.11 325.529,1191.11 "/>
<polyline clip-path="url(#clip790)" style="stroke:#000000; stroke-linecap:round; stroke-linejoin:round; stroke-width:4; stroke-opacity:1; fill:none" points="310.484,456.678 325.529,456.678 "/>
<path clip-path="url(#clip790)" d="M162.345 1210.91 L169.983 1210.91 L169.983 1184.54 L161.673 1186.21 L161.673 1181.95 L169.937 1180.28 L174.613 1180.28 L174.613 1210.91 L182.252 1210.91 L182.252 1214.84 L162.345 1214.84 L162.345 1210.91 Z" fill="#000000" fill-rule="nonzero" fill-opacity="1" /><path clip-path="url(#clip790)" d="M201.696 1183.36 Q198.085 1183.36 196.256 1186.92 Q194.451 1190.47 194.451 1197.6 Q194.451 1204.7 196.256 1208.27 Q198.085 1211.81 201.696 1211.81 Q205.33 1211.81 207.136 1208.27 Q208.965 1204.7 208.965 1197.6 Q208.965 1190.47 207.136 1186.92 Q205.33 1183.36 201.696 1183.36 M201.696 1179.66 Q207.506 1179.66 210.562 1184.26 Q213.641 1188.85 213.641 1197.6 Q213.641 1206.32 210.562 1210.93 Q207.506 1215.51 201.696 1215.51 Q195.886 1215.51 192.807 1210.93 Q189.752 1206.32 189.752 1197.6 Q189.752 1188.85 192.807 1184.26 Q195.886 1179.66 201.696 1179.66 Z" fill="#000000" fill-rule="nonzero" fill-opacity="1" /><path clip-path="url(#clip790)" d="M213.641 1173.76 L237.752 1173.76 L237.752 1176.95 L213.641 1176.95 L213.641 1173.76 Z" fill="#000000" fill-rule="nonzero" fill-opacity="1" /><path clip-path="url(#clip790)" d="M249.225 1184.23 L262.484 1184.23 L262.484 1187.43 L244.655 1187.43 L244.655 1184.23 Q246.817 1182 250.541 1178.23 Q254.284 1174.45 255.243 1173.36 Q257.068 1171.31 257.782 1169.9 Q258.516 1168.47 258.516 1167.1 Q258.516 1164.86 256.936 1163.45 Q255.375 1162.04 252.855 1162.04 Q251.068 1162.04 249.074 1162.66 Q247.1 1163.28 244.843 1164.54 L244.843 1160.7 Q247.137 1159.78 249.131 1159.31 Q251.124 1158.84 252.779 1158.84 Q257.143 1158.84 259.738 1161.02 Q262.334 1163.21 262.334 1166.86 Q262.334 1168.59 261.676 1170.15 Q261.036 1171.69 259.325 1173.8 Q258.854 1174.34 256.334 1176.95 Q253.814 1179.55 249.225 1184.23 Z" fill="#000000" fill-rule="nonzero" fill-opacity="1" /><path clip-path="url(#clip790)" d="M162.044 476.471 L169.682 476.471 L169.682 450.105 L161.372 451.772 L161.372 447.513 L169.636 445.846 L174.312 445.846 L174.312 476.471 L181.951 476.471 L181.951 480.406 L162.044 480.406 L162.044 476.471 Z" fill="#000000" fill-rule="nonzero" fill-opacity="1" /><path clip-path="url(#clip790)" d="M201.395 448.925 Q197.784 448.925 195.955 452.489 Q194.15 456.031 194.15 463.161 Q194.15 470.267 195.955 473.832 Q197.784 477.374 201.395 477.374 Q205.029 477.374 206.835 473.832 Q208.664 470.267 208.664 463.161 Q208.664 456.031 206.835 452.489 Q205.029 448.925 201.395 448.925 M201.395 445.221 Q207.205 445.221 210.261 449.827 Q213.34 454.411 213.34 463.161 Q213.34 471.887 210.261 476.494 Q207.205 481.077 201.395 481.077 Q195.585 481.077 192.506 476.494 Q189.451 471.887 189.451 463.161 Q189.451 454.411 192.506 449.827 Q195.585 445.221 201.395 445.221 Z" fill="#000000" fill-rule="nonzero" fill-opacity="1" /><path clip-path="url(#clip790)" d="M213.34 439.322 L237.451 439.322 L237.451 442.52 L213.34 442.52 L213.34 439.322 Z" fill="#000000" fill-rule="nonzero" fill-opacity="1" /><path clip-path="url(#clip790)" d="M246.31 449.798 L252.516 449.798 L252.516 428.376 L245.764 429.73 L245.764 426.27 L252.479 424.916 L256.278 424.916 L256.278 449.798 L262.484 449.798 L262.484 452.996 L246.31 452.996 L246.31 449.798 Z" fill="#000000" fill-rule="nonzero" fill-opacity="1" /><path clip-path="url(#clip790)" d="M51.5963 901.248 L51.5963 861.049 L57.0071 861.049 L57.0071 877.918 L99.1163 877.918 L99.1163 884.379 L57.0071 884.379 L57.0071 901.248 L51.5963 901.248 Z" fill="#000000" fill-rule="nonzero" fill-opacity="1" /><path clip-path="url(#clip790)" d="M63.4683 857.102 L63.4683 851.246 L99.1163 851.246 L99.1163 857.102 L63.4683 857.102 M49.5911 857.102 L49.5911 851.246 L57.0071 851.246 L57.0071 857.102 L49.5911 857.102 Z" fill="#000000" fill-rule="nonzero" fill-opacity="1" /><path clip-path="url(#clip790)" d="M70.3115 811.237 Q66.3647 809.041 64.4868 805.986 Q62.609 802.93 62.609 798.792 Q62.609 793.222 66.5239 790.199 Q70.4069 787.175 77.6002 787.175 L99.1163 787.175 L99.1163 793.063 L77.7912 793.063 Q72.6668 793.063 70.1841 794.877 Q67.7015 796.692 67.7015 800.416 Q67.7015 804.967 70.7252 807.609 Q73.7489 810.251 78.9688 810.251 L99.1163 810.251 L99.1163 816.139 L77.7912 816.139 Q72.6349 816.139 70.1841 817.953 Q67.7015 819.767 67.7015 823.555 Q67.7015 828.043 70.7571 830.685 Q73.7808 833.326 78.9688 833.326 L99.1163 833.326 L99.1163 839.215 L63.4683 839.215 L63.4683 833.326 L69.0065 833.326 Q65.7282 831.321 64.1686 828.52 Q62.609 825.719 62.609 821.868 Q62.609 817.985 64.5823 815.28 Q66.5557 812.542 70.3115 811.237 Z" fill="#000000" fill-rule="nonzero" fill-opacity="1" /><path clip-path="url(#clip790)" d="M79.8282 745.002 L82.6928 745.002 L82.6928 771.929 Q88.7402 771.547 91.923 768.301 Q95.0741 765.022 95.0741 759.198 Q95.0741 755.824 94.2465 752.673 Q93.419 749.49 91.7639 746.371 L97.3021 746.371 Q98.6389 749.522 99.3391 752.832 Q100.039 756.142 100.039 759.548 Q100.039 768.078 95.0741 773.075 Q90.1088 778.04 81.6424 778.04 Q72.8896 778.04 67.7652 773.329 Q62.609 768.587 62.609 760.566 Q62.609 753.373 67.2559 749.203 Q71.8711 745.002 79.8282 745.002 M78.1095 750.859 Q73.3033 750.922 70.4388 753.564 Q67.5742 756.174 67.5742 760.503 Q67.5742 765.404 70.3433 768.364 Q73.1124 771.292 78.1413 771.738 L78.1095 750.859 Z" fill="#000000" fill-rule="nonzero" fill-opacity="1" /><path clip-path="url(#clip790)" d="M49.6547 700.601 Q56.9753 704.866 64.1367 706.935 Q71.2981 709.004 78.6505 709.004 Q86.0029 709.004 93.228 706.935 Q100.421 704.834 107.71 700.601 L107.71 705.694 Q100.23 710.468 93.0052 712.855 Q85.7801 715.211 78.6505 715.211 Q71.5528 715.211 64.3595 712.855 Q57.1663 710.5 49.6547 705.694 L49.6547 700.601 Z" fill="#000000" fill-rule="nonzero" fill-opacity="1" /><path clip-path="url(#clip790)" d="M64.5187 666.513 L70.0568 666.513 Q68.7837 668.996 68.1471 671.669 Q67.5106 674.343 67.5106 677.207 Q67.5106 681.568 68.8473 683.764 Q70.1841 685.928 72.8577 685.928 Q74.8948 685.928 76.0724 684.369 Q77.2183 682.809 78.2686 678.099 L78.7142 676.093 Q80.051 669.855 82.5018 667.245 Q84.9208 664.603 89.2813 664.603 Q94.2465 664.603 97.1429 668.55 Q100.039 672.465 100.039 679.34 Q100.039 682.204 99.4664 685.324 Q98.9253 688.411 97.8113 691.848 L91.7639 691.848 Q93.4508 688.602 94.3102 685.451 Q95.1377 682.3 95.1377 679.213 Q95.1377 675.075 93.7373 672.847 Q92.305 670.619 89.7269 670.619 Q87.3397 670.619 86.0666 672.242 Q84.7934 673.834 83.6158 679.276 L83.1384 681.313 Q81.9925 686.756 79.6372 689.175 Q77.2501 691.594 73.1124 691.594 Q68.0835 691.594 65.3462 688.029 Q62.609 684.464 62.609 677.908 Q62.609 674.661 63.0864 671.796 Q63.5638 668.932 64.5187 666.513 Z" fill="#000000" fill-rule="nonzero" fill-opacity="1" /><path clip-path="url(#clip790)" d="M49.6547 656.2 L49.6547 651.108 Q57.1663 646.334 64.3595 643.978 Q71.5528 641.591 78.6505 641.591 Q85.7801 641.591 93.0052 643.978 Q100.23 646.334 107.71 651.108 L107.71 656.2 Q100.421 651.967 93.228 649.898 Q86.0029 647.798 78.6505 647.798 Q71.2981 647.798 64.1367 649.898 Q56.9753 651.967 49.6547 656.2 Z" fill="#000000" fill-rule="nonzero" fill-opacity="1" /><path clip-path="url(#clip790)" d="M1037.79 44.2197 Q1040.42 45.1109 1042.89 48.0275 Q1045.41 50.9442 1047.92 56.0483 L1056.22 72.576 L1047.43 72.576 L1039.69 57.061 Q1036.7 50.9847 1033.86 48.9997 Q1031.07 47.0148 1026.2 47.0148 L1017.29 47.0148 L1017.29 72.576 L1009.11 72.576 L1009.11 12.096 L1027.58 12.096 Q1037.95 12.096 1043.06 16.4305 Q1048.16 20.7649 1048.16 29.5149 Q1048.16 35.2267 1045.49 38.994 Q1042.85 42.7613 1037.79 44.2197 M1017.29 18.8205 L1017.29 40.2903 L1027.58 40.2903 Q1033.5 40.2903 1036.49 37.5762 Q1039.53 34.8216 1039.53 29.5149 Q1039.53 24.2082 1036.49 21.5346 Q1033.5 18.8205 1027.58 18.8205 L1017.29 18.8205 Z" fill="#000000" fill-rule="nonzero" fill-opacity="1" /><path clip-path="url(#clip790)" d="M1101.51 48.0275 L1101.51 51.6733 L1067.24 51.6733 Q1067.73 59.3701 1071.86 63.421 Q1076.03 67.4314 1083.44 67.4314 Q1087.74 67.4314 1091.75 66.3781 Q1095.8 65.3249 1099.77 63.2184 L1099.77 70.267 Q1095.76 71.9684 1091.55 72.8596 Q1087.33 73.7508 1083 73.7508 Q1072.14 73.7508 1065.78 67.4314 Q1059.46 61.1119 1059.46 50.3365 Q1059.46 39.1965 1065.46 32.6746 Q1071.49 26.1121 1081.7 26.1121 Q1090.86 26.1121 1096.16 32.0264 Q1101.51 37.9003 1101.51 48.0275 M1094.06 45.84 Q1093.98 39.7232 1090.61 36.0774 Q1087.29 32.4315 1081.78 32.4315 Q1075.54 32.4315 1071.78 35.9558 Q1068.05 39.4801 1067.48 45.8805 L1094.06 45.84 Z" fill="#000000" fill-rule="nonzero" fill-opacity="1" /><path clip-path="url(#clip790)" d="M1136.71 9.54393 L1136.71 15.7418 L1129.58 15.7418 Q1125.57 15.7418 1123.99 17.3622 Q1122.45 18.9825 1122.45 23.1955 L1122.45 27.2059 L1134.73 27.2059 L1134.73 32.9987 L1122.45 32.9987 L1122.45 72.576 L1114.96 72.576 L1114.96 32.9987 L1107.83 32.9987 L1107.83 27.2059 L1114.96 27.2059 L1114.96 24.0462 Q1114.96 16.471 1118.48 13.0277 Q1122.01 9.54393 1129.66 9.54393 L1136.71 9.54393 Z" fill="#000000" fill-rule="nonzero" fill-opacity="1" /><path clip-path="url(#clip790)" d="M1181.76 48.0275 L1181.76 51.6733 L1147.49 51.6733 Q1147.97 59.3701 1152.11 63.421 Q1156.28 67.4314 1163.69 67.4314 Q1167.99 67.4314 1172 66.3781 Q1176.05 65.3249 1180.02 63.2184 L1180.02 70.267 Q1176.01 71.9684 1171.79 72.8596 Q1167.58 73.7508 1163.25 73.7508 Q1152.39 73.7508 1146.03 67.4314 Q1139.71 61.1119 1139.71 50.3365 Q1139.71 39.1965 1145.71 32.6746 Q1151.74 26.1121 1161.95 26.1121 Q1171.11 26.1121 1176.41 32.0264 Q1181.76 37.9003 1181.76 48.0275 M1174.31 45.84 Q1174.22 39.7232 1170.86 36.0774 Q1167.54 32.4315 1162.03 32.4315 Q1155.79 32.4315 1152.03 35.9558 Q1148.3 39.4801 1147.73 45.8805 L1174.31 45.84 Z" fill="#000000" fill-rule="nonzero" fill-opacity="1" /><path clip-path="url(#clip790)" d="M1220.28 34.1734 Q1219.03 33.4443 1217.53 33.1202 Q1216.07 32.7556 1214.29 32.7556 Q1207.97 32.7556 1204.57 36.8875 Q1201.2 40.9789 1201.2 48.6757 L1201.2 72.576 L1193.71 72.576 L1193.71 27.2059 L1201.2 27.2059 L1201.2 34.2544 Q1203.55 30.1225 1207.32 28.1376 Q1211.09 26.1121 1216.48 26.1121 Q1217.24 26.1121 1218.18 26.2337 Q1219.11 26.3147 1220.24 26.5172 L1220.28 34.1734 Z" fill="#000000" fill-rule="nonzero" fill-opacity="1" /><path clip-path="url(#clip790)" d="M1265.09 48.0275 L1265.09 51.6733 L1230.82 51.6733 Q1231.3 59.3701 1235.43 63.421 Q1239.61 67.4314 1247.02 67.4314 Q1251.31 67.4314 1255.32 66.3781 Q1259.37 65.3249 1263.34 63.2184 L1263.34 70.267 Q1259.33 71.9684 1255.12 72.8596 Q1250.91 73.7508 1246.57 73.7508 Q1235.72 73.7508 1229.36 67.4314 Q1223.04 61.1119 1223.04 50.3365 Q1223.04 39.1965 1229.03 32.6746 Q1235.07 26.1121 1245.28 26.1121 Q1254.43 26.1121 1259.74 32.0264 Q1265.09 37.9003 1265.09 48.0275 M1257.63 45.84 Q1257.55 39.7232 1254.19 36.0774 Q1250.87 32.4315 1245.36 32.4315 Q1239.12 32.4315 1235.35 35.9558 Q1231.63 39.4801 1231.06 45.8805 L1257.63 45.84 Z" fill="#000000" fill-rule="nonzero" fill-opacity="1" /><path clip-path="url(#clip790)" d="M1315.03 45.1919 L1315.03 72.576 L1307.58 72.576 L1307.58 45.4349 Q1307.58 38.994 1305.07 35.7938 Q1302.56 32.5936 1297.53 32.5936 Q1291.5 32.5936 1288.01 36.4419 Q1284.53 40.2903 1284.53 46.9338 L1284.53 72.576 L1277.04 72.576 L1277.04 27.2059 L1284.53 27.2059 L1284.53 34.2544 Q1287.2 30.163 1290.81 28.1376 Q1294.46 26.1121 1299.19 26.1121 Q1307.01 26.1121 1311.02 30.9732 Q1315.03 35.7938 1315.03 45.1919 Z" fill="#000000" fill-rule="nonzero" fill-opacity="1" /><path clip-path="url(#clip790)" d="M1362.55 28.9478 L1362.55 35.9153 Q1359.39 34.1734 1356.19 33.3227 Q1353.03 32.4315 1349.79 32.4315 Q1342.54 32.4315 1338.53 37.0496 Q1334.52 41.6271 1334.52 49.9314 Q1334.52 58.2358 1338.53 62.8538 Q1342.54 67.4314 1349.79 67.4314 Q1353.03 67.4314 1356.19 66.5807 Q1359.39 65.6895 1362.55 63.9476 L1362.55 70.8341 Q1359.43 72.2924 1356.07 73.0216 Q1352.75 73.7508 1348.98 73.7508 Q1338.73 73.7508 1332.7 67.3098 Q1326.66 60.8689 1326.66 49.9314 Q1326.66 38.832 1332.74 32.472 Q1338.85 26.1121 1349.47 26.1121 Q1352.91 26.1121 1356.19 26.8413 Q1359.47 27.5299 1362.55 28.9478 Z" fill="#000000" fill-rule="nonzero" fill-opacity="1" /><path clip-path="url(#clip790)" d="M1414.32 48.0275 L1414.32 51.6733 L1380.05 51.6733 Q1380.54 59.3701 1384.67 63.421 Q1388.84 67.4314 1396.25 67.4314 Q1400.55 67.4314 1404.56 66.3781 Q1408.61 65.3249 1412.58 63.2184 L1412.58 70.267 Q1408.57 71.9684 1404.36 72.8596 Q1400.14 73.7508 1395.81 73.7508 Q1384.95 73.7508 1378.59 67.4314 Q1372.27 61.1119 1372.27 50.3365 Q1372.27 39.1965 1378.27 32.6746 Q1384.3 26.1121 1394.51 26.1121 Q1403.67 26.1121 1408.97 32.0264 Q1414.32 37.9003 1414.32 48.0275 M1406.87 45.84 Q1406.79 39.7232 1403.42 36.0774 Q1400.1 32.4315 1394.59 32.4315 Q1388.36 32.4315 1384.59 35.9558 Q1380.86 39.4801 1380.29 45.8805 L1406.87 45.84 Z" fill="#000000" fill-rule="nonzero" fill-opacity="1" /><path clip-path="url(#clip790)" d="M1428.46 62.2867 L1437.01 62.2867 L1437.01 72.576 L1428.46 72.576 L1428.46 62.2867 M1428.46 29.6769 L1437.01 29.6769 L1437.01 39.9662 L1428.46 39.9662 L1428.46 29.6769 Z" fill="#000000" fill-rule="nonzero" fill-opacity="1" /><path clip-path="url(#clip790)" d="M1509.88 44.2197 Q1512.52 45.1109 1514.99 48.0275 Q1517.5 50.9442 1520.01 56.0483 L1528.31 72.576 L1519.52 72.576 L1511.79 57.061 Q1508.79 50.9847 1505.95 48.9997 Q1503.16 47.0148 1498.3 47.0148 L1489.38 47.0148 L1489.38 72.576 L1481.2 72.576 L1481.2 12.096 L1499.67 12.096 Q1510.04 12.096 1515.15 16.4305 Q1520.25 20.7649 1520.25 29.5149 Q1520.25 35.2267 1517.58 38.994 Q1514.95 42.7613 1509.88 44.2197 M1489.38 18.8205 L1489.38 40.2903 L1499.67 40.2903 Q1505.59 40.2903 1508.59 37.5762 Q1511.62 34.8216 1511.62 29.5149 Q1511.62 24.2082 1508.59 21.5346 Q1505.59 18.8205 1499.67 18.8205 L1489.38 18.8205 Z" fill="#000000" fill-rule="nonzero" fill-opacity="1" /><path clip-path="url(#clip790)" d="M1552.38 32.4315 Q1546.38 32.4315 1542.9 37.1306 Q1539.41 41.7891 1539.41 49.9314 Q1539.41 58.0738 1542.86 62.7728 Q1546.34 67.4314 1552.38 67.4314 Q1558.33 67.4314 1561.81 62.7323 Q1565.3 58.0333 1565.3 49.9314 Q1565.3 41.8701 1561.81 37.1711 Q1558.33 32.4315 1552.38 32.4315 M1552.38 26.1121 Q1562.1 26.1121 1567.65 32.4315 Q1573.2 38.7509 1573.2 49.9314 Q1573.2 61.0714 1567.65 67.4314 Q1562.1 73.7508 1552.38 73.7508 Q1542.61 73.7508 1537.06 67.4314 Q1531.55 61.0714 1531.55 49.9314 Q1531.55 38.7509 1537.06 32.4315 Q1542.61 26.1121 1552.38 26.1121 Z" fill="#000000" fill-rule="nonzero" fill-opacity="1" /><path clip-path="url(#clip790)" d="M1615.41 34.0924 L1615.41 9.54393 L1622.86 9.54393 L1622.86 72.576 L1615.41 72.576 L1615.41 65.7705 Q1613.06 69.8214 1609.45 71.8063 Q1605.89 73.7508 1600.87 73.7508 Q1592.64 73.7508 1587.46 67.1883 Q1582.31 60.6258 1582.31 49.9314 Q1582.31 39.2371 1587.46 32.6746 Q1592.64 26.1121 1600.87 26.1121 Q1605.89 26.1121 1609.45 28.0971 Q1613.06 30.0415 1615.41 34.0924 M1590.01 49.9314 Q1590.01 58.1548 1593.37 62.8538 Q1596.77 67.5124 1602.69 67.5124 Q1608.6 67.5124 1612.01 62.8538 Q1615.41 58.1548 1615.41 49.9314 Q1615.41 41.7081 1612.01 37.0496 Q1608.6 32.3505 1602.69 32.3505 Q1596.77 32.3505 1593.37 37.0496 Q1590.01 41.7081 1590.01 49.9314 Z" fill="#000000" fill-rule="nonzero" fill-opacity="1" /><path clip-path="url(#clip790)" d="M1658.83 49.7694 Q1649.8 49.7694 1646.32 51.8354 Q1642.83 53.9013 1642.83 58.8839 Q1642.83 62.8538 1645.43 65.2034 Q1648.06 67.5124 1652.56 67.5124 Q1658.75 67.5124 1662.48 63.1374 Q1666.25 58.7219 1666.25 51.4303 L1666.25 49.7694 L1658.83 49.7694 M1673.7 46.6907 L1673.7 72.576 L1666.25 72.576 L1666.25 65.6895 Q1663.7 69.8214 1659.89 71.8063 Q1656.08 73.7508 1650.57 73.7508 Q1643.6 73.7508 1639.47 69.8619 Q1635.38 65.9325 1635.38 59.3701 Q1635.38 51.7138 1640.48 47.825 Q1645.63 43.9361 1655.8 43.9361 L1666.25 43.9361 L1666.25 43.2069 Q1666.25 38.0623 1662.84 35.2672 Q1659.48 32.4315 1653.37 32.4315 Q1649.48 32.4315 1645.79 33.3632 Q1642.1 34.295 1638.7 36.1584 L1638.7 29.2718 Q1642.79 27.692 1646.64 26.9223 Q1650.49 26.1121 1654.13 26.1121 Q1663.98 26.1121 1668.84 31.2163 Q1673.7 36.3204 1673.7 46.6907 Z" fill="#000000" fill-rule="nonzero" fill-opacity="1" /><path clip-path="url(#clip790)" d="M1717.98 28.5427 L1717.98 35.5912 Q1714.82 33.9709 1711.41 33.1607 Q1708.01 32.3505 1704.37 32.3505 Q1698.82 32.3505 1696.02 34.0519 Q1693.27 35.7533 1693.27 39.156 Q1693.27 41.7486 1695.25 43.2475 Q1697.24 44.7058 1703.23 46.0426 L1705.78 46.6097 Q1713.72 48.3111 1717.05 51.4303 Q1720.41 54.509 1720.41 60.0587 Q1720.41 66.3781 1715.38 70.0644 Q1710.4 73.7508 1701.65 73.7508 Q1698.01 73.7508 1694.04 73.0216 Q1690.11 72.3329 1685.73 70.9151 L1685.73 63.2184 Q1689.86 65.3654 1693.87 66.4591 Q1697.88 67.5124 1701.81 67.5124 Q1707.08 67.5124 1709.92 65.73 Q1712.75 63.9071 1712.75 60.6258 Q1712.75 57.5877 1710.69 55.9673 Q1708.66 54.3469 1701.73 52.8481 L1699.14 52.2405 Q1692.21 50.7821 1689.13 47.7845 Q1686.06 44.7463 1686.06 39.4801 Q1686.06 33.0797 1690.59 29.5959 Q1695.13 26.1121 1703.47 26.1121 Q1707.61 26.1121 1711.25 26.7198 Q1714.9 27.3274 1717.98 28.5427 Z" fill="#000000" fill-rule="nonzero" fill-opacity="1" /><path clip-path="url(#clip790)" d="M1733.41 12.096 L1765.53 12.096 L1765.53 18.9825 L1740.91 18.9825 L1740.91 33.8088 Q1742.69 33.2012 1744.47 32.9176 Q1746.25 32.5936 1748.03 32.5936 Q1758.16 32.5936 1764.08 38.1433 Q1769.99 43.6931 1769.99 53.1722 Q1769.99 62.9348 1763.91 68.3631 Q1757.84 73.7508 1746.78 73.7508 Q1742.97 73.7508 1739 73.1026 Q1735.07 72.4545 1730.86 71.1582 L1730.86 62.9348 Q1734.5 64.9198 1738.39 65.892 Q1742.28 66.8642 1746.62 66.8642 Q1753.63 66.8642 1757.72 63.1779 Q1761.81 59.4916 1761.81 53.1722 Q1761.81 46.8528 1757.72 43.1664 Q1753.63 39.4801 1746.62 39.4801 Q1743.34 39.4801 1740.05 40.2093 Q1736.81 40.9384 1733.41 42.4778 L1733.41 12.096 Z" fill="#000000" fill-rule="nonzero" fill-opacity="1" /><path clip-path="url(#clip790)" d="M1793.57 18.8205 L1793.57 41.5461 L1803.86 41.5461 Q1809.57 41.5461 1812.69 38.5889 Q1815.81 35.6318 1815.81 30.163 Q1815.81 24.7348 1812.69 21.7777 Q1809.57 18.8205 1803.86 18.8205 L1793.57 18.8205 M1785.38 12.096 L1803.86 12.096 Q1814.02 12.096 1819.21 16.714 Q1824.43 21.2916 1824.43 30.163 Q1824.43 39.1155 1819.21 43.6931 Q1814.02 48.2706 1803.86 48.2706 L1793.57 48.2706 L1793.57 72.576 L1785.38 72.576 L1785.38 12.096 Z" fill="#000000" fill-rule="nonzero" fill-opacity="1" /><polyline clip-path="url(#clip791)" style="stroke:#009af9; stroke-linecap:round; stroke-linejoin:round; stroke-width:12; stroke-opacity:1; fill:none" points="1418.79,1100.74 1418.14,893.598 1418.09,678.266 393.944,444.845 373.104,205.311 "/>
<line clip-path="url(#clip791)" x1="1418.79" y1="1100.74" x2="1418.79" y2="1084.74" style="stroke:#009af9; stroke-width:12; stroke-opacity:1"/>
<line clip-path="url(#clip791)" x1="1418.79" y1="1100.74" x2="1402.79" y2="1100.74" style="stroke:#009af9; stroke-width:12; stroke-opacity:1"/>
<line clip-path="url(#clip791)" x1="1418.79" y1="1100.74" x2="1418.79" y2="1116.74" style="stroke:#009af9; stroke-width:12; stroke-opacity:1"/>
<line clip-path="url(#clip791)" x1="1418.79" y1="1100.74" x2="1434.79" y2="1100.74" style="stroke:#009af9; stroke-width:12; stroke-opacity:1"/>
<line clip-path="url(#clip791)" x1="1418.14" y1="893.598" x2="1418.14" y2="877.598" style="stroke:#009af9; stroke-width:12; stroke-opacity:1"/>
<line clip-path="url(#clip791)" x1="1418.14" y1="893.598" x2="1402.14" y2="893.598" style="stroke:#009af9; stroke-width:12; stroke-opacity:1"/>
<line clip-path="url(#clip791)" x1="1418.14" y1="893.598" x2="1418.14" y2="909.598" style="stroke:#009af9; stroke-width:12; stroke-opacity:1"/>
<line clip-path="url(#clip791)" x1="1418.14" y1="893.598" x2="1434.14" y2="893.598" style="stroke:#009af9; stroke-width:12; stroke-opacity:1"/>
<line clip-path="url(#clip791)" x1="1418.09" y1="678.266" x2="1418.09" y2="662.266" style="stroke:#009af9; stroke-width:12; stroke-opacity:1"/>
<line clip-path="url(#clip791)" x1="1418.09" y1="678.266" x2="1402.09" y2="678.266" style="stroke:#009af9; stroke-width:12; stroke-opacity:1"/>
<line clip-path="url(#clip791)" x1="1418.09" y1="678.266" x2="1418.09" y2="694.266" style="stroke:#009af9; stroke-width:12; stroke-opacity:1"/>
<line clip-path="url(#clip791)" x1="1418.09" y1="678.266" x2="1434.09" y2="678.266" style="stroke:#009af9; stroke-width:12; stroke-opacity:1"/>
<line clip-path="url(#clip791)" x1="393.944" y1="444.845" x2="393.944" y2="428.845" style="stroke:#009af9; stroke-width:12; stroke-opacity:1"/>
<line clip-path="url(#clip791)" x1="393.944" y1="444.845" x2="377.944" y2="444.845" style="stroke:#009af9; stroke-width:12; stroke-opacity:1"/>
<line clip-path="url(#clip791)" x1="393.944" y1="444.845" x2="393.944" y2="460.845" style="stroke:#009af9; stroke-width:12; stroke-opacity:1"/>
<line clip-path="url(#clip791)" x1="393.944" y1="444.845" x2="409.944" y2="444.845" style="stroke:#009af9; stroke-width:12; stroke-opacity:1"/>
<line clip-path="url(#clip791)" x1="373.104" y1="205.311" x2="373.104" y2="189.311" style="stroke:#009af9; stroke-width:12; stroke-opacity:1"/>
<line clip-path="url(#clip791)" x1="373.104" y1="205.311" x2="357.104" y2="205.311" style="stroke:#009af9; stroke-width:12; stroke-opacity:1"/>
<line clip-path="url(#clip791)" x1="373.104" y1="205.311" x2="373.104" y2="221.311" style="stroke:#009af9; stroke-width:12; stroke-opacity:1"/>
<line clip-path="url(#clip791)" x1="373.104" y1="205.311" x2="389.104" y2="205.311" style="stroke:#009af9; stroke-width:12; stroke-opacity:1"/>
<polyline clip-path="url(#clip791)" style="stroke:#e26f46; stroke-linecap:round; stroke-linejoin:round; stroke-width:12; stroke-opacity:1; fill:none" points="2460.44,1337.53 2278.8,1144.46 2224.23,949.727 2105.95,739.757 1966.13,511.023 "/>
<circle clip-path="url(#clip791)" cx="2460.44" cy="1337.53" r="14.4" fill="#e26f46" fill-rule="evenodd" fill-opacity="1" stroke="#000000" stroke-opacity="1" stroke-width="3.2"/>
<circle clip-path="url(#clip791)" cx="2278.8" cy="1144.46" r="14.4" fill="#e26f46" fill-rule="evenodd" fill-opacity="1" stroke="#000000" stroke-opacity="1" stroke-width="3.2"/>
<circle clip-path="url(#clip791)" cx="2224.23" cy="949.727" r="14.4" fill="#e26f46" fill-rule="evenodd" fill-opacity="1" stroke="#000000" stroke-opacity="1" stroke-width="3.2"/>
<circle clip-path="url(#clip791)" cx="2105.95" cy="739.757" r="14.4" fill="#e26f46" fill-rule="evenodd" fill-opacity="1" stroke="#000000" stroke-opacity="1" stroke-width="3.2"/>
<circle clip-path="url(#clip791)" cx="1966.13" cy="511.023" r="14.4" fill="#e26f46" fill-rule="evenodd" fill-opacity="1" stroke="#000000" stroke-opacity="1" stroke-width="3.2"/>
<polyline clip-path="url(#clip791)" style="stroke:#3da44d; stroke-linecap:round; stroke-linejoin:round; stroke-width:12; stroke-opacity:1; fill:none" points="1309.1,1187.85 1408.28,1016.48 1416.87,836.548 805.98,655.682 591.432,476.238 "/>
<line clip-path="url(#clip791)" x1="1309.1" y1="1187.85" x2="1309.1" y2="1171.85" style="stroke:#3da44d; stroke-width:12; stroke-opacity:1"/>
<line clip-path="url(#clip791)" x1="1309.1" y1="1187.85" x2="1293.1" y2="1187.85" style="stroke:#3da44d; stroke-width:12; stroke-opacity:1"/>
<line clip-path="url(#clip791)" x1="1309.1" y1="1187.85" x2="1309.1" y2="1203.85" style="stroke:#3da44d; stroke-width:12; stroke-opacity:1"/>
<line clip-path="url(#clip791)" x1="1309.1" y1="1187.85" x2="1325.1" y2="1187.85" style="stroke:#3da44d; stroke-width:12; stroke-opacity:1"/>
<line clip-path="url(#clip791)" x1="1408.28" y1="1016.48" x2="1408.28" y2="1000.48" style="stroke:#3da44d; stroke-width:12; stroke-opacity:1"/>
<line clip-path="url(#clip791)" x1="1408.28" y1="1016.48" x2="1392.28" y2="1016.48" style="stroke:#3da44d; stroke-width:12; stroke-opacity:1"/>
<line clip-path="url(#clip791)" x1="1408.28" y1="1016.48" x2="1408.28" y2="1032.48" style="stroke:#3da44d; stroke-width:12; stroke-opacity:1"/>
<line clip-path="url(#clip791)" x1="1408.28" y1="1016.48" x2="1424.28" y2="1016.48" style="stroke:#3da44d; stroke-width:12; stroke-opacity:1"/>
<line clip-path="url(#clip791)" x1="1416.87" y1="836.548" x2="1416.87" y2="820.548" style="stroke:#3da44d; stroke-width:12; stroke-opacity:1"/>
<line clip-path="url(#clip791)" x1="1416.87" y1="836.548" x2="1400.87" y2="836.548" style="stroke:#3da44d; stroke-width:12; stroke-opacity:1"/>
<line clip-path="url(#clip791)" x1="1416.87" y1="836.548" x2="1416.87" y2="852.548" style="stroke:#3da44d; stroke-width:12; stroke-opacity:1"/>
<line clip-path="url(#clip791)" x1="1416.87" y1="836.548" x2="1432.87" y2="836.548" style="stroke:#3da44d; stroke-width:12; stroke-opacity:1"/>
<line clip-path="url(#clip791)" x1="805.98" y1="655.682" x2="805.98" y2="639.682" style="stroke:#3da44d; stroke-width:12; stroke-opacity:1"/>
<line clip-path="url(#clip791)" x1="805.98" y1="655.682" x2="789.98" y2="655.682" style="stroke:#3da44d; stroke-width:12; stroke-opacity:1"/>
<line clip-path="url(#clip791)" x1="805.98" y1="655.682" x2="805.98" y2="671.682" style="stroke:#3da44d; stroke-width:12; stroke-opacity:1"/>
<line clip-path="url(#clip791)" x1="805.98" y1="655.682" x2="821.98" y2="655.682" style="stroke:#3da44d; stroke-width:12; stroke-opacity:1"/>
<line clip-path="url(#clip791)" x1="591.432" y1="476.238" x2="591.432" y2="460.238" style="stroke:#3da44d; stroke-width:12; stroke-opacity:1"/>
<line clip-path="url(#clip791)" x1="591.432" y1="476.238" x2="575.432" y2="476.238" style="stroke:#3da44d; stroke-width:12; stroke-opacity:1"/>
<line clip-path="url(#clip791)" x1="591.432" y1="476.238" x2="591.432" y2="492.238" style="stroke:#3da44d; stroke-width:12; stroke-opacity:1"/>
<line clip-path="url(#clip791)" x1="591.432" y1="476.238" x2="607.432" y2="476.238" style="stroke:#3da44d; stroke-width:12; stroke-opacity:1"/>
<polyline clip-path="url(#clip791)" style="stroke:#c271d2; stroke-linecap:round; stroke-linejoin:round; stroke-width:12; stroke-opacity:1; fill:none" points="1378.51,1224.42 1412.61,1078.59 1417.28,918.746 780.167,750.194 579.494,580.139 "/>
<path clip-path="url(#clip791)" d="M1378.51 1208.42 L1362.51 1224.42 L1378.51 1240.42 L1394.51 1224.42 L1378.51 1208.42 Z" fill="#c271d2" fill-rule="evenodd" fill-opacity="1" stroke="#000000" stroke-opacity="1" stroke-width="3.2"/>
<path clip-path="url(#clip791)" d="M1412.61 1062.59 L1396.61 1078.59 L1412.61 1094.59 L1428.61 1078.59 L1412.61 1062.59 Z" fill="#c271d2" fill-rule="evenodd" fill-opacity="1" stroke="#000000" stroke-opacity="1" stroke-width="3.2"/>
<path clip-path="url(#clip791)" d="M1417.28 902.746 L1401.28 918.746 L1417.28 934.746 L1433.28 918.746 L1417.28 902.746 Z" fill="#c271d2" fill-rule="evenodd" fill-opacity="1" stroke="#000000" stroke-opacity="1" stroke-width="3.2"/>
<path clip-path="url(#clip791)" d="M780.167 734.194 L764.167 750.194 L780.167 766.194 L796.167 750.194 L780.167 734.194 Z" fill="#c271d2" fill-rule="evenodd" fill-opacity="1" stroke="#000000" stroke-opacity="1" stroke-width="3.2"/>
<path clip-path="url(#clip791)" d="M579.494 564.139 L563.494 580.139 L579.494 596.139 L595.494 580.139 L579.494 564.139 Z" fill="#c271d2" fill-rule="evenodd" fill-opacity="1" stroke="#000000" stroke-opacity="1" stroke-width="3.2"/>
<polyline clip-path="url(#clip791)" style="stroke:#ac8d18; stroke-linecap:round; stroke-linejoin:round; stroke-width:12; stroke-opacity:1; fill:none" points="1406.94,1080.26 1416.31,950.646 1417.79,806.194 695.325,655.552 489.918,502.25 "/>
<path clip-path="url(#clip791)" d="M1422.94 1064.26 L1390.94 1064.26 L1406.94 1096.26 L1422.94 1064.26 Z" fill="#ac8d18" fill-rule="evenodd" fill-opacity="1" stroke="#000000" stroke-opacity="1" stroke-width="3.2"/>
<path clip-path="url(#clip791)" d="M1432.31 934.646 L1400.31 934.646 L1416.31 966.646 L1432.31 934.646 Z" fill="#ac8d18" fill-rule="evenodd" fill-opacity="1" stroke="#000000" stroke-opacity="1" stroke-width="3.2"/>
<path clip-path="url(#clip791)" d="M1433.79 790.194 L1401.79 790.194 L1417.79 822.194 L1433.79 790.194 Z" fill="#ac8d18" fill-rule="evenodd" fill-opacity="1" stroke="#000000" stroke-opacity="1" stroke-width="3.2"/>
<path clip-path="url(#clip791)" d="M711.325 639.552 L679.325 639.552 L695.325 671.552 L711.325 639.552 Z" fill="#ac8d18" fill-rule="evenodd" fill-opacity="1" stroke="#000000" stroke-opacity="1" stroke-width="3.2"/>
<path clip-path="url(#clip791)" d="M505.918 486.25 L473.918 486.25 L489.918 518.25 L505.918 486.25 Z" fill="#ac8d18" fill-rule="evenodd" fill-opacity="1" stroke="#000000" stroke-opacity="1" stroke-width="3.2"/>
<polyline clip-path="url(#clip791)" style="stroke:#00a9ad; stroke-linecap:round; stroke-linejoin:round; stroke-width:12; stroke-opacity:1; fill:none" points="1776.89,1244.89 1577.9,1144.87 1452.13,1012.07 "/>
<path clip-path="url(#clip791)" d="M1776.89 1228.89 L1764.38 1234.92 L1761.29 1248.45 L1769.95 1259.3 L1783.83 1259.3 L1792.49 1248.45 L1789.4 1234.92 Z" fill="#00a9ad" fill-rule="evenodd" fill-opacity="1" stroke="#000000" stroke-opacity="1" stroke-width="3.2"/>
<path clip-path="url(#clip791)" d="M1577.9 1128.87 L1565.39 1134.9 L1562.3 1148.43 L1570.96 1159.28 L1584.84 1159.28 L1593.5 1148.43 L1590.41 1134.9 Z" fill="#00a9ad" fill-rule="evenodd" fill-opacity="1" stroke="#000000" stroke-opacity="1" stroke-width="3.2"/>
<path clip-path="url(#clip791)" d="M1452.13 996.067 L1439.62 1002.1 L1436.53 1015.63 L1445.19 1026.48 L1459.08 1026.48 L1467.73 1015.63 L1464.64 1002.1 Z" fill="#00a9ad" fill-rule="evenodd" fill-opacity="1" stroke="#000000" stroke-opacity="1" stroke-width="3.2"/>
<path clip-path="url(#clip791)" d="M1690.71 1218.3 L1676.85 1210.3 L1676.85 1194.3 L1690.71 1186.3 L1704.56 1194.3 L1704.56 1210.3 Z" fill="#ed5d92" fill-rule="evenodd" fill-opacity="1" stroke="#000000" stroke-opacity="1" stroke-width="3.2"/>
<path clip-path="url(#clip790)" d="M2615.7 992.865 L3089.76 992.865 L3089.76 578.145 L2615.7 578.145  Z" fill="#ffffff" fill-rule="evenodd" fill-opacity="1"/>
<polyline clip-path="url(#clip790)" style="stroke:#000000; stroke-linecap:round; stroke-linejoin:round; stroke-width:4; stroke-opacity:1; fill:none" points="2615.7,992.865 3089.76,992.865 3089.76,578.145 2615.7,578.145 2615.7,992.865 "/>
<polyline clip-path="url(#clip790)" style="stroke:#009af9; stroke-linecap:round; stroke-linejoin:round; stroke-width:12; stroke-opacity:1; fill:none" points="2646.58,629.985 2831.87,629.985 "/>
<line clip-path="url(#clip790)" x1="2739.23" y1="629.985" x2="2739.23" y2="607.229" style="stroke:#009af9; stroke-width:12; stroke-opacity:1"/>
<line clip-path="url(#clip790)" x1="2739.23" y1="629.985" x2="2716.47" y2="629.985" style="stroke:#009af9; stroke-width:12; stroke-opacity:1"/>
<line clip-path="url(#clip790)" x1="2739.23" y1="629.985" x2="2739.23" y2="652.74" style="stroke:#009af9; stroke-width:12; stroke-opacity:1"/>
<line clip-path="url(#clip790)" x1="2739.23" y1="629.985" x2="2761.98" y2="629.985" style="stroke:#009af9; stroke-width:12; stroke-opacity:1"/>
<path clip-path="url(#clip790)" d="M2879.14 631.061 Q2880.64 631.57 2882.06 633.237 Q2883.49 634.904 2884.93 637.82 L2889.67 647.265 L2884.65 647.265 L2880.23 638.399 Q2878.51 634.927 2876.89 633.793 Q2875.3 632.658 2872.52 632.658 L2867.43 632.658 L2867.43 647.265 L2862.75 647.265 L2862.75 612.705 L2873.31 612.705 Q2879.23 612.705 2882.15 615.182 Q2885.06 617.658 2885.06 622.658 Q2885.06 625.922 2883.54 628.075 Q2882.03 630.228 2879.14 631.061 M2867.43 616.547 L2867.43 628.816 L2873.31 628.816 Q2876.68 628.816 2878.4 627.265 Q2880.13 625.691 2880.13 622.658 Q2880.13 619.626 2878.4 618.098 Q2876.68 616.547 2873.31 616.547 L2867.43 616.547 Z" fill="#000000" fill-rule="nonzero" fill-opacity="1" /><path clip-path="url(#clip790)" d="M2903.42 624.325 Q2899.99 624.325 2898 627.01 Q2896.01 629.672 2896.01 634.325 Q2896.01 638.978 2897.98 641.663 Q2899.97 644.325 2903.42 644.325 Q2906.82 644.325 2908.81 641.64 Q2910.8 638.955 2910.8 634.325 Q2910.8 629.719 2908.81 627.033 Q2906.82 624.325 2903.42 624.325 M2903.42 620.714 Q2908.98 620.714 2912.15 624.325 Q2915.32 627.936 2915.32 634.325 Q2915.32 640.691 2912.15 644.325 Q2908.98 647.936 2903.42 647.936 Q2897.84 647.936 2894.67 644.325 Q2891.52 640.691 2891.52 634.325 Q2891.52 627.936 2894.67 624.325 Q2897.84 620.714 2903.42 620.714 Z" fill="#000000" fill-rule="nonzero" fill-opacity="1" /><path clip-path="url(#clip790)" d="M2939.44 625.274 L2939.44 611.246 L2943.7 611.246 L2943.7 647.265 L2939.44 647.265 L2939.44 643.376 Q2938.1 645.691 2936.04 646.825 Q2934 647.936 2931.13 647.936 Q2926.43 647.936 2923.47 644.186 Q2920.53 640.436 2920.53 634.325 Q2920.53 628.214 2923.47 624.464 Q2926.43 620.714 2931.13 620.714 Q2934 620.714 2936.04 621.848 Q2938.1 622.959 2939.44 625.274 M2924.93 634.325 Q2924.93 639.024 2926.85 641.709 Q2928.79 644.371 2932.17 644.371 Q2935.55 644.371 2937.49 641.709 Q2939.44 639.024 2939.44 634.325 Q2939.44 629.626 2937.49 626.964 Q2935.55 624.279 2932.17 624.279 Q2928.79 624.279 2926.85 626.964 Q2924.93 629.626 2924.93 634.325 Z" fill="#000000" fill-rule="nonzero" fill-opacity="1" /><path clip-path="url(#clip790)" d="M2964.25 634.232 Q2959.09 634.232 2957.1 635.413 Q2955.11 636.594 2955.11 639.441 Q2955.11 641.709 2956.59 643.052 Q2958.1 644.371 2960.67 644.371 Q2964.21 644.371 2966.34 641.871 Q2968.49 639.348 2968.49 635.182 L2968.49 634.232 L2964.25 634.232 M2972.75 632.473 L2972.75 647.265 L2968.49 647.265 L2968.49 643.33 Q2967.03 645.691 2964.86 646.825 Q2962.68 647.936 2959.53 647.936 Q2955.55 647.936 2953.19 645.714 Q2950.85 643.469 2950.85 639.719 Q2950.85 635.344 2953.77 633.121 Q2956.71 630.899 2962.52 630.899 L2968.49 630.899 L2968.49 630.483 Q2968.49 627.543 2966.55 625.945 Q2964.62 624.325 2961.13 624.325 Q2958.91 624.325 2956.8 624.858 Q2954.69 625.39 2952.75 626.455 L2952.75 622.52 Q2955.09 621.617 2957.29 621.177 Q2959.49 620.714 2961.57 620.714 Q2967.19 620.714 2969.97 623.631 Q2972.75 626.547 2972.75 632.473 Z" fill="#000000" fill-rule="nonzero" fill-opacity="1" /><path clip-path="url(#clip790)" d="M2998.05 622.103 L2998.05 626.131 Q2996.24 625.205 2994.3 624.742 Q2992.36 624.279 2990.27 624.279 Q2987.1 624.279 2985.5 625.251 Q2983.93 626.223 2983.93 628.168 Q2983.93 629.649 2985.06 630.506 Q2986.2 631.339 2989.62 632.103 L2991.08 632.427 Q2995.62 633.399 2997.52 635.182 Q2999.44 636.941 2999.44 640.112 Q2999.44 643.723 2996.57 645.83 Q2993.72 647.936 2988.72 647.936 Q2986.64 647.936 2984.37 647.519 Q2982.12 647.126 2979.62 646.316 L2979.62 641.918 Q2981.99 643.144 2984.28 643.769 Q2986.57 644.371 2988.81 644.371 Q2991.82 644.371 2993.44 643.353 Q2995.06 642.311 2995.06 640.436 Q2995.06 638.7 2993.88 637.774 Q2992.73 636.848 2988.77 635.992 L2987.29 635.645 Q2983.33 634.811 2981.57 633.098 Q2979.81 631.362 2979.81 628.353 Q2979.81 624.695 2982.4 622.705 Q2984.99 620.714 2989.76 620.714 Q2992.12 620.714 2994.21 621.061 Q2996.29 621.408 2998.05 622.103 Z" fill="#000000" fill-rule="nonzero" fill-opacity="1" /><path clip-path="url(#clip790)" d="M3019.67 616.779 L3007.86 635.228 L3019.67 635.228 L3019.67 616.779 M3018.44 612.705 L3024.32 612.705 L3024.32 635.228 L3029.25 635.228 L3029.25 639.117 L3024.32 639.117 L3024.32 647.265 L3019.67 647.265 L3019.67 639.117 L3004.07 639.117 L3004.07 634.603 L3018.44 612.705 Z" fill="#000000" fill-rule="nonzero" fill-opacity="1" /><polyline clip-path="url(#clip790)" style="stroke:#e26f46; stroke-linecap:round; stroke-linejoin:round; stroke-width:12; stroke-opacity:1; fill:none" points="2646.58,681.825 2831.87,681.825 "/>
<circle clip-path="url(#clip790)" cx="2739.23" cy="681.825" r="20.48" fill="#e26f46" fill-rule="evenodd" fill-opacity="1" stroke="#000000" stroke-opacity="1" stroke-width="4.55111"/>
<path clip-path="url(#clip790)" d="M2879.14 682.901 Q2880.64 683.41 2882.06 685.077 Q2883.49 686.744 2884.93 689.66 L2889.67 699.105 L2884.65 699.105 L2880.23 690.239 Q2878.51 686.767 2876.89 685.633 Q2875.3 684.498 2872.52 684.498 L2867.43 684.498 L2867.43 699.105 L2862.75 699.105 L2862.75 664.545 L2873.31 664.545 Q2879.23 664.545 2882.15 667.022 Q2885.06 669.498 2885.06 674.498 Q2885.06 677.762 2883.54 679.915 Q2882.03 682.068 2879.14 682.901 M2867.43 668.387 L2867.43 680.656 L2873.31 680.656 Q2876.68 680.656 2878.4 679.105 Q2880.13 677.531 2880.13 674.498 Q2880.13 671.466 2878.4 669.938 Q2876.68 668.387 2873.31 668.387 L2867.43 668.387 Z" fill="#000000" fill-rule="nonzero" fill-opacity="1" /><path clip-path="url(#clip790)" d="M2903.42 676.165 Q2899.99 676.165 2898 678.85 Q2896.01 681.512 2896.01 686.165 Q2896.01 690.818 2897.98 693.503 Q2899.97 696.165 2903.42 696.165 Q2906.82 696.165 2908.81 693.48 Q2910.8 690.795 2910.8 686.165 Q2910.8 681.559 2908.81 678.873 Q2906.82 676.165 2903.42 676.165 M2903.42 672.554 Q2908.98 672.554 2912.15 676.165 Q2915.32 679.776 2915.32 686.165 Q2915.32 692.531 2912.15 696.165 Q2908.98 699.776 2903.42 699.776 Q2897.84 699.776 2894.67 696.165 Q2891.52 692.531 2891.52 686.165 Q2891.52 679.776 2894.67 676.165 Q2897.84 672.554 2903.42 672.554 Z" fill="#000000" fill-rule="nonzero" fill-opacity="1" /><path clip-path="url(#clip790)" d="M2939.44 677.114 L2939.44 663.086 L2943.7 663.086 L2943.7 699.105 L2939.44 699.105 L2939.44 695.216 Q2938.1 697.531 2936.04 698.665 Q2934 699.776 2931.13 699.776 Q2926.43 699.776 2923.47 696.026 Q2920.53 692.276 2920.53 686.165 Q2920.53 680.054 2923.47 676.304 Q2926.43 672.554 2931.13 672.554 Q2934 672.554 2936.04 673.688 Q2938.1 674.799 2939.44 677.114 M2924.93 686.165 Q2924.93 690.864 2926.85 693.549 Q2928.79 696.211 2932.17 696.211 Q2935.55 696.211 2937.49 693.549 Q2939.44 690.864 2939.44 686.165 Q2939.44 681.466 2937.49 678.804 Q2935.55 676.119 2932.17 676.119 Q2928.79 676.119 2926.85 678.804 Q2924.93 681.466 2924.93 686.165 Z" fill="#000000" fill-rule="nonzero" fill-opacity="1" /><path clip-path="url(#clip790)" d="M2964.25 686.072 Q2959.09 686.072 2957.1 687.253 Q2955.11 688.434 2955.11 691.281 Q2955.11 693.549 2956.59 694.892 Q2958.1 696.211 2960.67 696.211 Q2964.21 696.211 2966.34 693.711 Q2968.49 691.188 2968.49 687.022 L2968.49 686.072 L2964.25 686.072 M2972.75 684.313 L2972.75 699.105 L2968.49 699.105 L2968.49 695.17 Q2967.03 697.531 2964.86 698.665 Q2962.68 699.776 2959.53 699.776 Q2955.55 699.776 2953.19 697.554 Q2950.85 695.309 2950.85 691.559 Q2950.85 687.184 2953.77 684.961 Q2956.71 682.739 2962.52 682.739 L2968.49 682.739 L2968.49 682.323 Q2968.49 679.383 2966.55 677.785 Q2964.62 676.165 2961.13 676.165 Q2958.91 676.165 2956.8 676.698 Q2954.69 677.23 2952.75 678.295 L2952.75 674.36 Q2955.09 673.457 2957.29 673.017 Q2959.49 672.554 2961.57 672.554 Q2967.19 672.554 2969.97 675.471 Q2972.75 678.387 2972.75 684.313 Z" fill="#000000" fill-rule="nonzero" fill-opacity="1" /><path clip-path="url(#clip790)" d="M2998.05 673.943 L2998.05 677.971 Q2996.24 677.045 2994.3 676.582 Q2992.36 676.119 2990.27 676.119 Q2987.1 676.119 2985.5 677.091 Q2983.93 678.063 2983.93 680.008 Q2983.93 681.489 2985.06 682.346 Q2986.2 683.179 2989.62 683.943 L2991.08 684.267 Q2995.62 685.239 2997.52 687.022 Q2999.44 688.781 2999.44 691.952 Q2999.44 695.563 2996.57 697.67 Q2993.72 699.776 2988.72 699.776 Q2986.64 699.776 2984.37 699.359 Q2982.12 698.966 2979.62 698.156 L2979.62 693.758 Q2981.99 694.984 2984.28 695.609 Q2986.57 696.211 2988.81 696.211 Q2991.82 696.211 2993.44 695.193 Q2995.06 694.151 2995.06 692.276 Q2995.06 690.54 2993.88 689.614 Q2992.73 688.688 2988.77 687.832 L2987.29 687.485 Q2983.33 686.651 2981.57 684.938 Q2979.81 683.202 2979.81 680.193 Q2979.81 676.535 2982.4 674.545 Q2984.99 672.554 2989.76 672.554 Q2992.12 672.554 2994.21 672.901 Q2996.29 673.248 2998.05 673.943 Z" fill="#000000" fill-rule="nonzero" fill-opacity="1" /><path clip-path="url(#clip790)" d="M3006.87 664.545 L3025.23 664.545 L3025.23 668.48 L3011.15 668.48 L3011.15 676.952 Q3012.17 676.605 3013.19 676.443 Q3014.21 676.258 3015.23 676.258 Q3021.01 676.258 3024.39 679.429 Q3027.77 682.6 3027.77 688.017 Q3027.77 693.596 3024.3 696.697 Q3020.83 699.776 3014.51 699.776 Q3012.33 699.776 3010.06 699.406 Q3007.82 699.035 3005.41 698.295 L3005.41 693.596 Q3007.49 694.73 3009.72 695.285 Q3011.94 695.841 3014.42 695.841 Q3018.42 695.841 3020.76 693.734 Q3023.1 691.628 3023.1 688.017 Q3023.1 684.406 3020.76 682.299 Q3018.42 680.193 3014.42 680.193 Q3012.54 680.193 3010.67 680.61 Q3008.81 681.026 3006.87 681.906 L3006.87 664.545 Z" fill="#000000" fill-rule="nonzero" fill-opacity="1" /><polyline clip-path="url(#clip790)" style="stroke:#3da44d; stroke-linecap:round; stroke-linejoin:round; stroke-width:12; stroke-opacity:1; fill:none" points="2646.58,733.665 2831.87,733.665 "/>
<line clip-path="url(#clip790)" x1="2739.23" y1="733.665" x2="2739.23" y2="710.909" style="stroke:#3da44d; stroke-width:12; stroke-opacity:1"/>
<line clip-path="url(#clip790)" x1="2739.23" y1="733.665" x2="2716.47" y2="733.665" style="stroke:#3da44d; stroke-width:12; stroke-opacity:1"/>
<line clip-path="url(#clip790)" x1="2739.23" y1="733.665" x2="2739.23" y2="756.42" style="stroke:#3da44d; stroke-width:12; stroke-opacity:1"/>
<line clip-path="url(#clip790)" x1="2739.23" y1="733.665" x2="2761.98" y2="733.665" style="stroke:#3da44d; stroke-width:12; stroke-opacity:1"/>
<path clip-path="url(#clip790)" d="M2879.14 734.741 Q2880.64 735.25 2882.06 736.917 Q2883.49 738.584 2884.93 741.5 L2889.67 750.945 L2884.65 750.945 L2880.23 742.079 Q2878.51 738.607 2876.89 737.473 Q2875.3 736.338 2872.52 736.338 L2867.43 736.338 L2867.43 750.945 L2862.75 750.945 L2862.75 716.385 L2873.31 716.385 Q2879.23 716.385 2882.15 718.862 Q2885.06 721.338 2885.06 726.338 Q2885.06 729.602 2883.54 731.755 Q2882.03 733.908 2879.14 734.741 M2867.43 720.227 L2867.43 732.496 L2873.31 732.496 Q2876.68 732.496 2878.4 730.945 Q2880.13 729.371 2880.13 726.338 Q2880.13 723.306 2878.4 721.778 Q2876.68 720.227 2873.31 720.227 L2867.43 720.227 Z" fill="#000000" fill-rule="nonzero" fill-opacity="1" /><path clip-path="url(#clip790)" d="M2903.42 728.005 Q2899.99 728.005 2898 730.69 Q2896.01 733.352 2896.01 738.005 Q2896.01 742.658 2897.98 745.343 Q2899.97 748.005 2903.42 748.005 Q2906.82 748.005 2908.81 745.32 Q2910.8 742.635 2910.8 738.005 Q2910.8 733.399 2908.81 730.713 Q2906.82 728.005 2903.42 728.005 M2903.42 724.394 Q2908.98 724.394 2912.15 728.005 Q2915.32 731.616 2915.32 738.005 Q2915.32 744.371 2912.15 748.005 Q2908.98 751.616 2903.42 751.616 Q2897.84 751.616 2894.67 748.005 Q2891.52 744.371 2891.52 738.005 Q2891.52 731.616 2894.67 728.005 Q2897.84 724.394 2903.42 724.394 Z" fill="#000000" fill-rule="nonzero" fill-opacity="1" /><path clip-path="url(#clip790)" d="M2939.44 728.954 L2939.44 714.926 L2943.7 714.926 L2943.7 750.945 L2939.44 750.945 L2939.44 747.056 Q2938.1 749.371 2936.04 750.505 Q2934 751.616 2931.13 751.616 Q2926.43 751.616 2923.47 747.866 Q2920.53 744.116 2920.53 738.005 Q2920.53 731.894 2923.47 728.144 Q2926.43 724.394 2931.13 724.394 Q2934 724.394 2936.04 725.528 Q2938.1 726.639 2939.44 728.954 M2924.93 738.005 Q2924.93 742.704 2926.85 745.389 Q2928.79 748.051 2932.17 748.051 Q2935.55 748.051 2937.49 745.389 Q2939.44 742.704 2939.44 738.005 Q2939.44 733.306 2937.49 730.644 Q2935.55 727.959 2932.17 727.959 Q2928.79 727.959 2926.85 730.644 Q2924.93 733.306 2924.93 738.005 Z" fill="#000000" fill-rule="nonzero" fill-opacity="1" /><path clip-path="url(#clip790)" d="M2964.25 737.912 Q2959.09 737.912 2957.1 739.093 Q2955.11 740.274 2955.11 743.121 Q2955.11 745.389 2956.59 746.732 Q2958.1 748.051 2960.67 748.051 Q2964.21 748.051 2966.34 745.551 Q2968.49 743.028 2968.49 738.862 L2968.49 737.912 L2964.25 737.912 M2972.75 736.153 L2972.75 750.945 L2968.49 750.945 L2968.49 747.01 Q2967.03 749.371 2964.86 750.505 Q2962.68 751.616 2959.53 751.616 Q2955.55 751.616 2953.19 749.394 Q2950.85 747.149 2950.85 743.399 Q2950.85 739.024 2953.77 736.801 Q2956.71 734.579 2962.52 734.579 L2968.49 734.579 L2968.49 734.163 Q2968.49 731.223 2966.55 729.625 Q2964.62 728.005 2961.13 728.005 Q2958.91 728.005 2956.8 728.538 Q2954.69 729.07 2952.75 730.135 L2952.75 726.2 Q2955.09 725.297 2957.29 724.857 Q2959.49 724.394 2961.57 724.394 Q2967.19 724.394 2969.97 727.311 Q2972.75 730.227 2972.75 736.153 Z" fill="#000000" fill-rule="nonzero" fill-opacity="1" /><path clip-path="url(#clip790)" d="M2998.05 725.783 L2998.05 729.811 Q2996.24 728.885 2994.3 728.422 Q2992.36 727.959 2990.27 727.959 Q2987.1 727.959 2985.5 728.931 Q2983.93 729.903 2983.93 731.848 Q2983.93 733.329 2985.06 734.186 Q2986.2 735.019 2989.62 735.783 L2991.08 736.107 Q2995.62 737.079 2997.52 738.862 Q2999.44 740.621 2999.44 743.792 Q2999.44 747.403 2996.57 749.51 Q2993.72 751.616 2988.72 751.616 Q2986.64 751.616 2984.37 751.199 Q2982.12 750.806 2979.62 749.996 L2979.62 745.598 Q2981.99 746.824 2984.28 747.449 Q2986.57 748.051 2988.81 748.051 Q2991.82 748.051 2993.44 747.033 Q2995.06 745.991 2995.06 744.116 Q2995.06 742.38 2993.88 741.454 Q2992.73 740.528 2988.77 739.672 L2987.29 739.325 Q2983.33 738.491 2981.57 736.778 Q2979.81 735.042 2979.81 732.033 Q2979.81 728.375 2982.4 726.385 Q2984.99 724.394 2989.76 724.394 Q2992.12 724.394 2994.21 724.741 Q2996.29 725.088 2998.05 725.783 Z" fill="#000000" fill-rule="nonzero" fill-opacity="1" /><path clip-path="url(#clip790)" d="M3019.67 720.459 L3007.86 738.908 L3019.67 738.908 L3019.67 720.459 M3018.44 716.385 L3024.32 716.385 L3024.32 738.908 L3029.25 738.908 L3029.25 742.797 L3024.32 742.797 L3024.32 750.945 L3019.67 750.945 L3019.67 742.797 L3004.07 742.797 L3004.07 738.283 L3018.44 716.385 Z" fill="#000000" fill-rule="nonzero" fill-opacity="1" /><path clip-path="url(#clip790)" d="M3041.24 720.227 L3041.24 733.213 L3047.12 733.213 Q3050.39 733.213 3052.17 731.524 Q3053.95 729.834 3053.95 726.709 Q3053.95 723.607 3052.17 721.917 Q3050.39 720.227 3047.12 720.227 L3041.24 720.227 M3036.57 716.385 L3047.12 716.385 Q3052.93 716.385 3055.9 719.024 Q3058.88 721.639 3058.88 726.709 Q3058.88 731.825 3055.9 734.44 Q3052.93 737.056 3047.12 737.056 L3041.24 737.056 L3041.24 750.945 L3036.57 750.945 L3036.57 716.385 Z" fill="#000000" fill-rule="nonzero" fill-opacity="1" /><polyline clip-path="url(#clip790)" style="stroke:#c271d2; stroke-linecap:round; stroke-linejoin:round; stroke-width:12; stroke-opacity:1; fill:none" points="2646.58,785.505 2831.87,785.505 "/>
<path clip-path="url(#clip790)" d="M2739.23 762.749 L2716.47 785.505 L2739.23 808.26 L2761.98 785.505 L2739.23 762.749 Z" fill="#c271d2" fill-rule="evenodd" fill-opacity="1" stroke="#000000" stroke-opacity="1" stroke-width="4.55111"/>
<path clip-path="url(#clip790)" d="M2879.14 786.581 Q2880.64 787.09 2882.06 788.757 Q2883.49 790.424 2884.93 793.34 L2889.67 802.785 L2884.65 802.785 L2880.23 793.919 Q2878.51 790.447 2876.89 789.313 Q2875.3 788.178 2872.52 788.178 L2867.43 788.178 L2867.43 802.785 L2862.75 802.785 L2862.75 768.225 L2873.31 768.225 Q2879.23 768.225 2882.15 770.702 Q2885.06 773.178 2885.06 778.178 Q2885.06 781.442 2883.54 783.595 Q2882.03 785.748 2879.14 786.581 M2867.43 772.067 L2867.43 784.336 L2873.31 784.336 Q2876.68 784.336 2878.4 782.785 Q2880.13 781.211 2880.13 778.178 Q2880.13 775.146 2878.4 773.618 Q2876.68 772.067 2873.31 772.067 L2867.43 772.067 Z" fill="#000000" fill-rule="nonzero" fill-opacity="1" /><path clip-path="url(#clip790)" d="M2903.42 779.845 Q2899.99 779.845 2898 782.53 Q2896.01 785.192 2896.01 789.845 Q2896.01 794.498 2897.98 797.183 Q2899.97 799.845 2903.42 799.845 Q2906.82 799.845 2908.81 797.16 Q2910.8 794.475 2910.8 789.845 Q2910.8 785.239 2908.81 782.553 Q2906.82 779.845 2903.42 779.845 M2903.42 776.234 Q2908.98 776.234 2912.15 779.845 Q2915.32 783.456 2915.32 789.845 Q2915.32 796.211 2912.15 799.845 Q2908.98 803.456 2903.42 803.456 Q2897.84 803.456 2894.67 799.845 Q2891.52 796.211 2891.52 789.845 Q2891.52 783.456 2894.67 779.845 Q2897.84 776.234 2903.42 776.234 Z" fill="#000000" fill-rule="nonzero" fill-opacity="1" /><path clip-path="url(#clip790)" d="M2939.44 780.794 L2939.44 766.766 L2943.7 766.766 L2943.7 802.785 L2939.44 802.785 L2939.44 798.896 Q2938.1 801.211 2936.04 802.345 Q2934 803.456 2931.13 803.456 Q2926.43 803.456 2923.47 799.706 Q2920.53 795.956 2920.53 789.845 Q2920.53 783.734 2923.47 779.984 Q2926.43 776.234 2931.13 776.234 Q2934 776.234 2936.04 777.368 Q2938.1 778.479 2939.44 780.794 M2924.93 789.845 Q2924.93 794.544 2926.85 797.229 Q2928.79 799.891 2932.17 799.891 Q2935.55 799.891 2937.49 797.229 Q2939.44 794.544 2939.44 789.845 Q2939.44 785.146 2937.49 782.484 Q2935.55 779.799 2932.17 779.799 Q2928.79 779.799 2926.85 782.484 Q2924.93 785.146 2924.93 789.845 Z" fill="#000000" fill-rule="nonzero" fill-opacity="1" /><path clip-path="url(#clip790)" d="M2964.25 789.752 Q2959.09 789.752 2957.1 790.933 Q2955.11 792.114 2955.11 794.961 Q2955.11 797.229 2956.59 798.572 Q2958.1 799.891 2960.67 799.891 Q2964.21 799.891 2966.34 797.391 Q2968.49 794.868 2968.49 790.702 L2968.49 789.752 L2964.25 789.752 M2972.75 787.993 L2972.75 802.785 L2968.49 802.785 L2968.49 798.85 Q2967.03 801.211 2964.86 802.345 Q2962.68 803.456 2959.53 803.456 Q2955.55 803.456 2953.19 801.234 Q2950.85 798.989 2950.85 795.239 Q2950.85 790.864 2953.77 788.641 Q2956.71 786.419 2962.52 786.419 L2968.49 786.419 L2968.49 786.003 Q2968.49 783.063 2966.55 781.465 Q2964.62 779.845 2961.13 779.845 Q2958.91 779.845 2956.8 780.378 Q2954.69 780.91 2952.75 781.975 L2952.75 778.04 Q2955.09 777.137 2957.29 776.697 Q2959.49 776.234 2961.57 776.234 Q2967.19 776.234 2969.97 779.151 Q2972.75 782.067 2972.75 787.993 Z" fill="#000000" fill-rule="nonzero" fill-opacity="1" /><path clip-path="url(#clip790)" d="M2998.05 777.623 L2998.05 781.651 Q2996.24 780.725 2994.3 780.262 Q2992.36 779.799 2990.27 779.799 Q2987.1 779.799 2985.5 780.771 Q2983.93 781.743 2983.93 783.688 Q2983.93 785.169 2985.06 786.026 Q2986.2 786.859 2989.62 787.623 L2991.08 787.947 Q2995.62 788.919 2997.52 790.702 Q2999.44 792.461 2999.44 795.632 Q2999.44 799.243 2996.57 801.35 Q2993.72 803.456 2988.72 803.456 Q2986.64 803.456 2984.37 803.039 Q2982.12 802.646 2979.62 801.836 L2979.62 797.438 Q2981.99 798.664 2984.28 799.289 Q2986.57 799.891 2988.81 799.891 Q2991.82 799.891 2993.44 798.873 Q2995.06 797.831 2995.06 795.956 Q2995.06 794.22 2993.88 793.294 Q2992.73 792.368 2988.77 791.512 L2987.29 791.165 Q2983.33 790.331 2981.57 788.618 Q2979.81 786.882 2979.81 783.873 Q2979.81 780.215 2982.4 778.225 Q2984.99 776.234 2989.76 776.234 Q2992.12 776.234 2994.21 776.581 Q2996.29 776.928 2998.05 777.623 Z" fill="#000000" fill-rule="nonzero" fill-opacity="1" /><path clip-path="url(#clip790)" d="M3006.87 768.225 L3025.23 768.225 L3025.23 772.16 L3011.15 772.16 L3011.15 780.632 Q3012.17 780.285 3013.19 780.123 Q3014.21 779.938 3015.23 779.938 Q3021.01 779.938 3024.39 783.109 Q3027.77 786.28 3027.77 791.697 Q3027.77 797.276 3024.3 800.377 Q3020.83 803.456 3014.51 803.456 Q3012.33 803.456 3010.06 803.086 Q3007.82 802.715 3005.41 801.975 L3005.41 797.276 Q3007.49 798.41 3009.72 798.965 Q3011.94 799.521 3014.42 799.521 Q3018.42 799.521 3020.76 797.414 Q3023.1 795.308 3023.1 791.697 Q3023.1 788.086 3020.76 785.979 Q3018.42 783.873 3014.42 783.873 Q3012.54 783.873 3010.67 784.29 Q3008.81 784.706 3006.87 785.586 L3006.87 768.225 Z" fill="#000000" fill-rule="nonzero" fill-opacity="1" /><path clip-path="url(#clip790)" d="M3041.24 772.067 L3041.24 785.053 L3047.12 785.053 Q3050.39 785.053 3052.17 783.364 Q3053.95 781.674 3053.95 778.549 Q3053.95 775.447 3052.17 773.757 Q3050.39 772.067 3047.12 772.067 L3041.24 772.067 M3036.57 768.225 L3047.12 768.225 Q3052.93 768.225 3055.9 770.864 Q3058.88 773.479 3058.88 778.549 Q3058.88 783.665 3055.9 786.28 Q3052.93 788.896 3047.12 788.896 L3041.24 788.896 L3041.24 802.785 L3036.57 802.785 L3036.57 768.225 Z" fill="#000000" fill-rule="nonzero" fill-opacity="1" /><polyline clip-path="url(#clip790)" style="stroke:#ac8d18; stroke-linecap:round; stroke-linejoin:round; stroke-width:12; stroke-opacity:1; fill:none" points="2646.58,837.345 2831.87,837.345 "/>
<path clip-path="url(#clip790)" d="M2761.98 814.589 L2716.47 814.589 L2739.23 860.1 L2761.98 814.589 Z" fill="#ac8d18" fill-rule="evenodd" fill-opacity="1" stroke="#000000" stroke-opacity="1" stroke-width="4.55111"/>
<path clip-path="url(#clip790)" d="M2879.14 838.421 Q2880.64 838.93 2882.06 840.597 Q2883.49 842.264 2884.93 845.18 L2889.67 854.625 L2884.65 854.625 L2880.23 845.759 Q2878.51 842.287 2876.89 841.153 Q2875.3 840.018 2872.52 840.018 L2867.43 840.018 L2867.43 854.625 L2862.75 854.625 L2862.75 820.065 L2873.31 820.065 Q2879.23 820.065 2882.15 822.542 Q2885.06 825.018 2885.06 830.018 Q2885.06 833.282 2883.54 835.435 Q2882.03 837.588 2879.14 838.421 M2867.43 823.907 L2867.43 836.176 L2873.31 836.176 Q2876.68 836.176 2878.4 834.625 Q2880.13 833.051 2880.13 830.018 Q2880.13 826.986 2878.4 825.458 Q2876.68 823.907 2873.31 823.907 L2867.43 823.907 Z" fill="#000000" fill-rule="nonzero" fill-opacity="1" /><path clip-path="url(#clip790)" d="M2903.42 831.685 Q2899.99 831.685 2898 834.37 Q2896.01 837.032 2896.01 841.685 Q2896.01 846.338 2897.98 849.023 Q2899.97 851.685 2903.42 851.685 Q2906.82 851.685 2908.81 849 Q2910.8 846.315 2910.8 841.685 Q2910.8 837.079 2908.81 834.393 Q2906.82 831.685 2903.42 831.685 M2903.42 828.074 Q2908.98 828.074 2912.15 831.685 Q2915.32 835.296 2915.32 841.685 Q2915.32 848.051 2912.15 851.685 Q2908.98 855.296 2903.42 855.296 Q2897.84 855.296 2894.67 851.685 Q2891.52 848.051 2891.52 841.685 Q2891.52 835.296 2894.67 831.685 Q2897.84 828.074 2903.42 828.074 Z" fill="#000000" fill-rule="nonzero" fill-opacity="1" /><path clip-path="url(#clip790)" d="M2939.44 832.634 L2939.44 818.606 L2943.7 818.606 L2943.7 854.625 L2939.44 854.625 L2939.44 850.736 Q2938.1 853.051 2936.04 854.185 Q2934 855.296 2931.13 855.296 Q2926.43 855.296 2923.47 851.546 Q2920.53 847.796 2920.53 841.685 Q2920.53 835.574 2923.47 831.824 Q2926.43 828.074 2931.13 828.074 Q2934 828.074 2936.04 829.208 Q2938.1 830.319 2939.44 832.634 M2924.93 841.685 Q2924.93 846.384 2926.85 849.069 Q2928.79 851.731 2932.17 851.731 Q2935.55 851.731 2937.49 849.069 Q2939.44 846.384 2939.44 841.685 Q2939.44 836.986 2937.49 834.324 Q2935.55 831.639 2932.17 831.639 Q2928.79 831.639 2926.85 834.324 Q2924.93 836.986 2924.93 841.685 Z" fill="#000000" fill-rule="nonzero" fill-opacity="1" /><path clip-path="url(#clip790)" d="M2964.25 841.592 Q2959.09 841.592 2957.1 842.773 Q2955.11 843.954 2955.11 846.801 Q2955.11 849.069 2956.59 850.412 Q2958.1 851.731 2960.67 851.731 Q2964.21 851.731 2966.34 849.231 Q2968.49 846.708 2968.49 842.542 L2968.49 841.592 L2964.25 841.592 M2972.75 839.833 L2972.75 854.625 L2968.49 854.625 L2968.49 850.69 Q2967.03 853.051 2964.86 854.185 Q2962.68 855.296 2959.53 855.296 Q2955.55 855.296 2953.19 853.074 Q2950.85 850.829 2950.85 847.079 Q2950.85 842.704 2953.77 840.481 Q2956.71 838.259 2962.52 838.259 L2968.49 838.259 L2968.49 837.843 Q2968.49 834.903 2966.55 833.305 Q2964.62 831.685 2961.13 831.685 Q2958.91 831.685 2956.8 832.218 Q2954.69 832.75 2952.75 833.815 L2952.75 829.88 Q2955.09 828.977 2957.29 828.537 Q2959.49 828.074 2961.57 828.074 Q2967.19 828.074 2969.97 830.991 Q2972.75 833.907 2972.75 839.833 Z" fill="#000000" fill-rule="nonzero" fill-opacity="1" /><path clip-path="url(#clip790)" d="M2998.05 829.463 L2998.05 833.491 Q2996.24 832.565 2994.3 832.102 Q2992.36 831.639 2990.27 831.639 Q2987.1 831.639 2985.5 832.611 Q2983.93 833.583 2983.93 835.528 Q2983.93 837.009 2985.06 837.866 Q2986.2 838.699 2989.62 839.463 L2991.08 839.787 Q2995.62 840.759 2997.52 842.542 Q2999.44 844.301 2999.44 847.472 Q2999.44 851.083 2996.57 853.19 Q2993.72 855.296 2988.72 855.296 Q2986.64 855.296 2984.37 854.879 Q2982.12 854.486 2979.62 853.676 L2979.62 849.278 Q2981.99 850.504 2984.28 851.129 Q2986.57 851.731 2988.81 851.731 Q2991.82 851.731 2993.44 850.713 Q2995.06 849.671 2995.06 847.796 Q2995.06 846.06 2993.88 845.134 Q2992.73 844.208 2988.77 843.352 L2987.29 843.005 Q2983.33 842.171 2981.57 840.458 Q2979.81 838.722 2979.81 835.713 Q2979.81 832.055 2982.4 830.065 Q2984.99 828.074 2989.76 828.074 Q2992.12 828.074 2994.21 828.421 Q2996.29 828.768 2998.05 829.463 Z" fill="#000000" fill-rule="nonzero" fill-opacity="1" /><path clip-path="url(#clip790)" d="M3017.4 835.481 Q3014.25 835.481 3012.4 837.634 Q3010.57 839.787 3010.57 843.537 Q3010.57 847.264 3012.4 849.44 Q3014.25 851.592 3017.4 851.592 Q3020.55 851.592 3022.38 849.44 Q3024.23 847.264 3024.23 843.537 Q3024.23 839.787 3022.38 837.634 Q3020.55 835.481 3017.4 835.481 M3026.68 820.829 L3026.68 825.088 Q3024.92 824.255 3023.12 823.815 Q3021.34 823.375 3019.58 823.375 Q3014.95 823.375 3012.49 826.5 Q3010.06 829.625 3009.72 835.944 Q3011.08 833.93 3013.14 832.866 Q3015.2 831.778 3017.68 831.778 Q3022.89 831.778 3025.9 834.949 Q3028.93 838.097 3028.93 843.537 Q3028.93 848.861 3025.78 852.079 Q3022.63 855.296 3017.4 855.296 Q3011.41 855.296 3008.24 850.713 Q3005.06 846.106 3005.06 837.38 Q3005.06 829.185 3008.95 824.324 Q3012.84 819.44 3019.39 819.44 Q3021.15 819.44 3022.93 819.787 Q3024.74 820.134 3026.68 820.829 Z" fill="#000000" fill-rule="nonzero" fill-opacity="1" /><path clip-path="url(#clip790)" d="M3041.24 823.907 L3041.24 836.893 L3047.12 836.893 Q3050.39 836.893 3052.17 835.204 Q3053.95 833.514 3053.95 830.389 Q3053.95 827.287 3052.17 825.597 Q3050.39 823.907 3047.12 823.907 L3041.24 823.907 M3036.57 820.065 L3047.12 820.065 Q3052.93 820.065 3055.9 822.704 Q3058.88 825.319 3058.88 830.389 Q3058.88 835.505 3055.9 838.12 Q3052.93 840.736 3047.12 840.736 L3041.24 840.736 L3041.24 854.625 L3036.57 854.625 L3036.57 820.065 Z" fill="#000000" fill-rule="nonzero" fill-opacity="1" /><polyline clip-path="url(#clip790)" style="stroke:#00a9ad; stroke-linecap:round; stroke-linejoin:round; stroke-width:12; stroke-opacity:1; fill:none" points="2646.58,889.185 2831.87,889.185 "/>
<path clip-path="url(#clip790)" d="M2739.23 866.429 L2721.43 875.008 L2717.04 894.259 L2729.35 909.688 L2749.1 909.688 L2761.41 894.259 L2757.02 875.008 Z" fill="#00a9ad" fill-rule="evenodd" fill-opacity="1" stroke="#000000" stroke-opacity="1" stroke-width="4.55111"/>
<path clip-path="url(#clip790)" d="M2862.75 871.905 L2882.61 871.905 L2882.61 875.84 L2867.43 875.84 L2867.43 886.025 L2881.13 886.025 L2881.13 889.96 L2867.43 889.96 L2867.43 906.465 L2862.75 906.465 L2862.75 871.905 Z" fill="#000000" fill-rule="nonzero" fill-opacity="1" /><path clip-path="url(#clip790)" d="M2894.69 889.96 L2894.69 902.622 L2902.19 902.622 Q2905.97 902.622 2907.77 901.071 Q2909.6 899.497 2909.6 896.28 Q2909.6 893.039 2907.77 891.511 Q2905.97 889.96 2902.19 889.96 L2894.69 889.96 M2894.69 875.747 L2894.69 886.164 L2901.62 886.164 Q2905.04 886.164 2906.71 884.891 Q2908.4 883.595 2908.4 880.956 Q2908.4 878.34 2906.71 877.044 Q2905.04 875.747 2901.62 875.747 L2894.69 875.747 M2890.02 871.905 L2901.96 871.905 Q2907.31 871.905 2910.2 874.127 Q2913.1 876.349 2913.1 880.446 Q2913.1 883.618 2911.62 885.493 Q2910.13 887.368 2907.26 887.831 Q2910.71 888.571 2912.61 890.932 Q2914.53 893.27 2914.53 896.789 Q2914.53 901.419 2911.38 903.942 Q2908.24 906.465 2902.43 906.465 L2890.02 906.465 L2890.02 871.905 Z" fill="#000000" fill-rule="nonzero" fill-opacity="1" /><path clip-path="url(#clip790)" d="M2927.22 875.747 L2927.22 902.622 L2932.87 902.622 Q2940.02 902.622 2943.33 899.382 Q2946.66 896.141 2946.66 889.15 Q2946.66 882.206 2943.33 878.988 Q2940.02 875.747 2932.87 875.747 L2927.22 875.747 M2922.54 871.905 L2932.15 871.905 Q2942.19 871.905 2946.89 876.095 Q2951.59 880.261 2951.59 889.15 Q2951.59 898.085 2946.87 902.275 Q2942.15 906.465 2932.15 906.465 L2922.54 906.465 L2922.54 871.905 Z" fill="#000000" fill-rule="nonzero" fill-opacity="1" /><path clip-path="url(#clip790)" d="M2959.05 871.905 L2978.91 871.905 L2978.91 875.84 L2963.72 875.84 L2963.72 886.025 L2977.42 886.025 L2977.42 889.96 L2963.72 889.96 L2963.72 906.465 L2959.05 906.465 L2959.05 871.905 Z" fill="#000000" fill-rule="nonzero" fill-opacity="1" /><polyline clip-path="url(#clip790)" style="stroke:#ed5d92; stroke-linecap:round; stroke-linejoin:round; stroke-width:12; stroke-opacity:1; fill:none" points="2646.58,941.025 2831.87,941.025 "/>
<path clip-path="url(#clip790)" d="M2739.23 963.78 L2719.52 952.403 L2719.52 929.647 L2739.23 918.269 L2758.93 929.647 L2758.93 952.403 Z" fill="#ed5d92" fill-rule="evenodd" fill-opacity="1" stroke="#000000" stroke-opacity="1" stroke-width="4.55111"/>
<path clip-path="url(#clip790)" d="M2878.77 926.916 Q2873.68 926.916 2870.67 930.712 Q2867.68 934.509 2867.68 941.06 Q2867.68 947.587 2870.67 951.384 Q2873.68 955.18 2878.77 955.18 Q2883.86 955.18 2886.82 951.384 Q2889.81 947.587 2889.81 941.06 Q2889.81 934.509 2886.82 930.712 Q2883.86 926.916 2878.77 926.916 M2885.32 957.68 L2891.48 964.416 L2885.83 964.416 L2880.71 958.884 Q2879.95 958.93 2879.53 958.953 Q2879.14 958.976 2878.77 958.976 Q2871.48 958.976 2867.1 954.115 Q2862.75 949.231 2862.75 941.06 Q2862.75 932.865 2867.1 928.004 Q2871.48 923.12 2878.77 923.12 Q2886.04 923.12 2890.39 928.004 Q2894.74 932.865 2894.74 941.06 Q2894.74 947.078 2892.31 951.36 Q2889.9 955.643 2885.32 957.68 Z" fill="#000000" fill-rule="nonzero" fill-opacity="1" /><path clip-path="url(#clip790)" d="M2902.06 923.745 L2908.35 923.745 L2923.68 952.657 L2923.68 923.745 L2928.21 923.745 L2928.21 958.305 L2921.92 958.305 L2906.59 929.393 L2906.59 958.305 L2902.06 958.305 L2902.06 923.745 Z" fill="#000000" fill-rule="nonzero" fill-opacity="1" /><path clip-path="url(#clip790)" d="M2942.19 927.587 L2942.19 954.462 L2947.84 954.462 Q2954.99 954.462 2958.3 951.222 Q2961.64 947.981 2961.64 940.99 Q2961.64 934.046 2958.3 930.828 Q2954.99 927.587 2947.84 927.587 L2942.19 927.587 M2937.52 923.745 L2947.12 923.745 Q2957.17 923.745 2961.87 927.935 Q2966.57 932.101 2966.57 940.99 Q2966.57 949.925 2961.85 954.115 Q2957.12 958.305 2947.12 958.305 L2937.52 958.305 L2937.52 923.745 Z" fill="#000000" fill-rule="nonzero" fill-opacity="1" /><path clip-path="url(#clip790)" d="M2974.02 923.745 L2993.88 923.745 L2993.88 927.68 L2978.7 927.68 L2978.7 937.865 L2992.4 937.865 L2992.4 941.8 L2978.7 941.8 L2978.7 958.305 L2974.02 958.305 L2974.02 923.745 Z" fill="#000000" fill-rule="nonzero" fill-opacity="1" /></svg>
