<?xml version="1.0" encoding="utf-8"?>
<svg xmlns="http://www.w3.org/2000/svg" xmlns:xlink="http://www.w3.org/1999/xlink" width="800" height="400" viewBox="0 0 3200 1600">
<defs>
  <clipPath id="clip030">
    <rect x="0" y="0" width="3200" height="1600"/>
  </clipPath>
</defs>
<path clip-path="url(#clip030)" d="M0 1600 L3200 1600 L3200 0 L0 0  Z" fill="#ffffff" fill-rule="evenodd" fill-opacity="1"/>
<defs>
  <clipPath id="clip031">
    <rect x="364" y="47" width="2789" height="1449"/>
  </clipPath>
</defs>
<path clip-path="url(#clip030)" d="M364.733 1495.09 L3152.76 1495.09 L3152.76 47.2441 L364.733 47.2441  Z" fill="#ffffff" fill-rule="evenodd" fill-opacity="1"/>
<polyline clip-path="url(#clip031)" style="stroke:#000000; stroke-linecap:round; stroke-linejoin:round; stroke-width:2; stroke-opacity:0.1; fill:none" points="735.885,1495.09 735.885,47.2441 "/>
<polyline clip-path="url(#clip031)" style="stroke:#000000; stroke-linecap:round; stroke-linejoin:round; stroke-width:2; stroke-opacity:0.1; fill:none" points="1758.74,1495.09 1758.74,47.2441 "/>
<polyline clip-path="url(#clip031)" style="stroke:#000000; stroke-linecap:round; stroke-linejoin:round; stroke-width:2; stroke-opacity:0.1; fill:none" points="2781.6,1495.09 2781.6,47.2441 "/>
<polyline clip-path="url(#clip031)" style="stroke:#000000; stroke-linecap:round; stroke-linejoin:round; stroke-width:2; stroke-opacity:0.1; fill:none" points="364.733,1305.35 3152.76,1305.35 "/>
<polyline clip-path="url(#clip031)" style="stroke:#000000; stroke-linecap:round; stroke-linejoin:round; stroke-width:2; stroke-opacity:0.1; fill:none" points="364.733,958.241 3152.76,958.241 "/>
<polyline clip-path="url(#clip031)" style="stroke:#000000; stroke-linecap:round; stroke-linejoin:round; stroke-width:2; stroke-opacity:0.1; fill:none" points="364.733,611.128 3152.76,611.128 "/>
<polyline clip-path="url(#clip031)" style="stroke:#000000; stroke-linecap:round; stroke-linejoin:round; stroke-width:2; stroke-opacity:0.1; fill:none" points="364.733,264.015 3152.76,264.015 "/>
<polyline clip-path="url(#clip030)" style="stroke:#000000; stroke-linecap:round; stroke-linejoin:round; stroke-width:4; stroke-opacity:1; fill:none" points="364.733,1495.09 3152.76,1495.09 "/>
<polyline clip-path="url(#clip030)" style="stroke:#000000; stroke-linecap:round; stroke-linejoin:round; stroke-width:4; stroke-opacity:1; fill:none" points="735.885,1495.09 735.885,1476.19 "/>
<polyline clip-path="url(#clip030)" style="stroke:#000000; stroke-linecap:round; stroke-linejoin:round; stroke-width:4; stroke-opacity:1; fill:none" points="1758.74,1495.09 1758.74,1476.19 "/>
<polyline clip-path="url(#clip030)" style="stroke:#000000; stroke-linecap:round; stroke-linejoin:round; stroke-width:4; stroke-opacity:1; fill:none" points="2781.6,1495.09 2781.6,1476.19 "/>
<path clip-path="url(#clip030)" d="M651.846 1538.73 L651.846 1542.75 Q650.04 1541.83 648.096 1541.36 Q646.151 1540.9 644.068 1540.9 Q640.897 1540.9 639.299 1541.87 Q637.725 1542.85 637.725 1544.79 Q637.725 1546.27 638.86 1547.13 Q639.994 1547.96 643.42 1548.73 L644.878 1549.05 Q649.415 1550.02 651.313 1551.8 Q653.235 1553.56 653.235 1556.74 Q653.235 1560.35 650.364 1562.45 Q647.517 1564.56 642.517 1564.56 Q640.434 1564.56 638.165 1564.14 Q635.92 1563.75 633.42 1562.94 L633.42 1558.54 Q635.781 1559.77 638.073 1560.39 Q640.364 1560.99 642.61 1560.99 Q645.619 1560.99 647.239 1559.98 Q648.86 1558.93 648.86 1557.06 Q648.86 1555.32 647.679 1554.4 Q646.522 1553.47 642.563 1552.61 L641.082 1552.27 Q637.123 1551.43 635.364 1549.72 Q633.605 1547.99 633.605 1544.98 Q633.605 1541.32 636.198 1539.33 Q638.79 1537.34 643.559 1537.34 Q645.92 1537.34 648.003 1537.68 Q650.086 1538.03 651.846 1538.73 Z" fill="#000000" fill-rule="nonzero" fill-opacity="1" /><path clip-path="url(#clip030)" d="M670.804 1566.3 Q668.998 1570.92 667.285 1572.34 Q665.572 1573.75 662.702 1573.75 L659.299 1573.75 L659.299 1570.18 L661.799 1570.18 Q663.559 1570.18 664.531 1569.35 Q665.503 1568.52 666.684 1565.42 L667.447 1563.47 L656.961 1537.96 L661.475 1537.96 L669.577 1558.24 L677.679 1537.96 L682.193 1537.96 L670.804 1566.3 Z" fill="#000000" fill-rule="nonzero" fill-opacity="1" /><path clip-path="url(#clip030)" d="M708.257 1542.94 Q709.855 1540.07 712.077 1538.7 Q714.299 1537.34 717.308 1537.34 Q721.359 1537.34 723.558 1540.18 Q725.757 1543.01 725.757 1548.24 L725.757 1563.89 L721.475 1563.89 L721.475 1548.38 Q721.475 1544.65 720.155 1542.85 Q718.836 1541.04 716.128 1541.04 Q712.818 1541.04 710.896 1543.24 Q708.975 1545.44 708.975 1549.24 L708.975 1563.89 L704.693 1563.89 L704.693 1548.38 Q704.693 1544.63 703.373 1542.85 Q702.054 1541.04 699.299 1541.04 Q696.035 1541.04 694.114 1543.26 Q692.193 1545.46 692.193 1549.24 L692.193 1563.89 L687.91 1563.89 L687.91 1537.96 L692.193 1537.96 L692.193 1541.99 Q693.651 1539.61 695.688 1538.47 Q697.725 1537.34 700.526 1537.34 Q703.35 1537.34 705.318 1538.77 Q707.308 1540.21 708.257 1542.94 Z" fill="#000000" fill-rule="nonzero" fill-opacity="1" /><path clip-path="url(#clip030)" d="M752.864 1550.95 Q752.864 1546.25 750.919 1543.59 Q748.998 1540.9 745.618 1540.9 Q742.239 1540.9 740.294 1543.59 Q738.373 1546.25 738.373 1550.95 Q738.373 1555.65 740.294 1558.33 Q742.239 1560.99 745.618 1560.99 Q748.998 1560.99 750.919 1558.33 Q752.864 1555.65 752.864 1550.95 M738.373 1541.9 Q739.716 1539.58 741.753 1538.47 Q743.813 1537.34 746.66 1537.34 Q751.382 1537.34 754.322 1541.09 Q757.285 1544.84 757.285 1550.95 Q757.285 1557.06 754.322 1560.81 Q751.382 1564.56 746.66 1564.56 Q743.813 1564.56 741.753 1563.45 Q739.716 1562.31 738.373 1560 L738.373 1563.89 L734.091 1563.89 L734.091 1527.87 L738.373 1527.87 L738.373 1541.9 Z" fill="#000000" fill-rule="nonzero" fill-opacity="1" /><path clip-path="url(#clip030)" d="M774.391 1540.95 Q770.965 1540.95 768.975 1543.63 Q766.984 1546.3 766.984 1550.95 Q766.984 1555.6 768.951 1558.29 Q770.942 1560.95 774.391 1560.95 Q777.794 1560.95 779.785 1558.26 Q781.775 1555.58 781.775 1550.95 Q781.775 1546.34 779.785 1543.66 Q777.794 1540.95 774.391 1540.95 M774.391 1537.34 Q779.947 1537.34 783.118 1540.95 Q786.289 1544.56 786.289 1550.95 Q786.289 1557.31 783.118 1560.95 Q779.947 1564.56 774.391 1564.56 Q768.813 1564.56 765.641 1560.95 Q762.493 1557.31 762.493 1550.95 Q762.493 1544.56 765.641 1540.95 Q768.813 1537.34 774.391 1537.34 Z" fill="#000000" fill-rule="nonzero" fill-opacity="1" /><path clip-path="url(#clip030)" d="M793.349 1527.87 L797.609 1527.87 L797.609 1563.89 L793.349 1563.89 L793.349 1527.87 Z" fill="#000000" fill-rule="nonzero" fill-opacity="1" /><path clip-path="url(#clip030)" d="M806.521 1537.96 L810.78 1537.96 L810.78 1563.89 L806.521 1563.89 L806.521 1537.96 M806.521 1527.87 L810.78 1527.87 L810.78 1533.26 L806.521 1533.26 L806.521 1527.87 Z" fill="#000000" fill-rule="nonzero" fill-opacity="1" /><path clip-path="url(#clip030)" d="M838.349 1538.96 L838.349 1542.94 Q836.544 1541.94 834.715 1541.46 Q832.909 1540.95 831.058 1540.95 Q826.914 1540.95 824.622 1543.59 Q822.331 1546.2 822.331 1550.95 Q822.331 1555.69 824.622 1558.33 Q826.914 1560.95 831.058 1560.95 Q832.909 1560.95 834.715 1560.46 Q836.544 1559.95 838.349 1558.96 L838.349 1562.89 Q836.567 1563.73 834.646 1564.14 Q832.747 1564.56 830.595 1564.56 Q824.738 1564.56 821.289 1560.88 Q817.84 1557.2 817.84 1550.95 Q817.84 1544.61 821.312 1540.97 Q824.808 1537.34 830.872 1537.34 Q832.84 1537.34 834.715 1537.75 Q836.59 1538.15 838.349 1538.96 Z" fill="#000000" fill-rule="nonzero" fill-opacity="1" /><path clip-path="url(#clip030)" d="M1669.07 1527.87 L1669.07 1531.41 L1664.99 1531.41 Q1662.7 1531.41 1661.8 1532.34 Q1660.92 1533.26 1660.92 1535.67 L1660.92 1537.96 L1667.93 1537.96 L1667.93 1541.27 L1660.92 1541.27 L1660.92 1563.89 L1656.64 1563.89 L1656.64 1541.27 L1652.56 1541.27 L1652.56 1537.96 L1656.64 1537.96 L1656.64 1536.16 Q1656.64 1531.83 1658.65 1529.86 Q1660.67 1527.87 1665.04 1527.87 L1669.07 1527.87 Z" fill="#000000" fill-rule="nonzero" fill-opacity="1" /><path clip-path="url(#clip030)" d="M1672.63 1537.96 L1676.89 1537.96 L1676.89 1563.89 L1672.63 1563.89 L1672.63 1537.96 M1672.63 1527.87 L1676.89 1527.87 L1676.89 1533.26 L1672.63 1533.26 L1672.63 1527.87 Z" fill="#000000" fill-rule="nonzero" fill-opacity="1" /><path clip-path="url(#clip030)" d="M1707.36 1548.24 L1707.36 1563.89 L1703.1 1563.89 L1703.1 1548.38 Q1703.1 1544.7 1701.66 1542.87 Q1700.23 1541.04 1697.36 1541.04 Q1693.91 1541.04 1691.92 1543.24 Q1689.93 1545.44 1689.93 1549.24 L1689.93 1563.89 L1685.64 1563.89 L1685.64 1537.96 L1689.93 1537.96 L1689.93 1541.99 Q1691.45 1539.65 1693.51 1538.49 Q1695.6 1537.34 1698.3 1537.34 Q1702.77 1537.34 1705.06 1540.11 Q1707.36 1542.87 1707.36 1548.24 Z" fill="#000000" fill-rule="nonzero" fill-opacity="1" /><path clip-path="url(#clip030)" d="M1715.85 1537.96 L1720.11 1537.96 L1720.11 1563.89 L1715.85 1563.89 L1715.85 1537.96 M1715.85 1527.87 L1720.11 1527.87 L1720.11 1533.26 L1715.85 1533.26 L1715.85 1527.87 Z" fill="#000000" fill-rule="nonzero" fill-opacity="1" /><path clip-path="url(#clip030)" d="M1733.24 1530.6 L1733.24 1537.96 L1742.01 1537.96 L1742.01 1541.27 L1733.24 1541.27 L1733.24 1555.35 Q1733.24 1558.52 1734.09 1559.42 Q1734.97 1560.32 1737.63 1560.32 L1742.01 1560.32 L1742.01 1563.89 L1737.63 1563.89 Q1732.7 1563.89 1730.83 1562.06 Q1728.95 1560.21 1728.95 1555.35 L1728.95 1541.27 L1725.83 1541.27 L1725.83 1537.96 L1728.95 1537.96 L1728.95 1530.6 L1733.24 1530.6 Z" fill="#000000" fill-rule="nonzero" fill-opacity="1" /><path clip-path="url(#clip030)" d="M1769.79 1549.86 L1769.79 1551.94 L1750.2 1551.94 Q1750.48 1556.34 1752.84 1558.66 Q1755.23 1560.95 1759.46 1560.95 Q1761.92 1560.95 1764.21 1560.35 Q1766.52 1559.74 1768.79 1558.54 L1768.79 1562.57 Q1766.5 1563.54 1764.09 1564.05 Q1761.68 1564.56 1759.21 1564.56 Q1753 1564.56 1749.37 1560.95 Q1745.76 1557.34 1745.76 1551.18 Q1745.76 1544.81 1749.18 1541.09 Q1752.63 1537.34 1758.47 1537.34 Q1763.7 1537.34 1766.73 1540.72 Q1769.79 1544.07 1769.79 1549.86 M1765.53 1548.61 Q1765.48 1545.11 1763.56 1543.03 Q1761.66 1540.95 1758.51 1540.95 Q1754.95 1540.95 1752.8 1542.96 Q1750.67 1544.98 1750.34 1548.63 L1765.53 1548.61 Z" fill="#000000" fill-rule="nonzero" fill-opacity="1" /><path clip-path="url(#clip030)" d="M1808.91 1541.9 L1808.91 1527.87 L1813.17 1527.87 L1813.17 1563.89 L1808.91 1563.89 L1808.91 1560 Q1807.56 1562.31 1805.5 1563.45 Q1803.47 1564.56 1800.6 1564.56 Q1795.9 1564.56 1792.93 1560.81 Q1789.99 1557.06 1789.99 1550.95 Q1789.99 1544.84 1792.93 1541.09 Q1795.9 1537.34 1800.6 1537.34 Q1803.47 1537.34 1805.5 1538.47 Q1807.56 1539.58 1808.91 1541.9 M1794.39 1550.95 Q1794.39 1555.65 1796.31 1558.33 Q1798.26 1560.99 1801.64 1560.99 Q1805.02 1560.99 1806.96 1558.33 Q1808.91 1555.65 1808.91 1550.95 Q1808.91 1546.25 1806.96 1543.59 Q1805.02 1540.9 1801.64 1540.9 Q1798.26 1540.9 1796.31 1543.59 Q1794.39 1546.25 1794.39 1550.95 Z" fill="#000000" fill-rule="nonzero" fill-opacity="1" /><path clip-path="url(#clip030)" d="M1821.94 1537.96 L1826.2 1537.96 L1826.2 1563.89 L1821.94 1563.89 L1821.94 1537.96 M1821.94 1527.87 L1826.2 1527.87 L1826.2 1533.26 L1821.94 1533.26 L1821.94 1527.87 Z" fill="#000000" fill-rule="nonzero" fill-opacity="1" /><path clip-path="url(#clip030)" d="M1848.23 1527.87 L1848.23 1531.41 L1844.16 1531.41 Q1841.87 1531.41 1840.97 1532.34 Q1840.09 1533.26 1840.09 1535.67 L1840.09 1537.96 L1847.1 1537.96 L1847.1 1541.27 L1840.09 1541.27 L1840.09 1563.89 L1835.8 1563.89 L1835.8 1541.27 L1831.73 1541.27 L1831.73 1537.96 L1835.8 1537.96 L1835.8 1536.16 Q1835.8 1531.83 1837.82 1529.86 Q1839.83 1527.87 1844.21 1527.87 L1848.23 1527.87 Z" fill="#000000" fill-rule="nonzero" fill-opacity="1" /><path clip-path="url(#clip030)" d="M1864.92 1527.87 L1864.92 1531.41 L1860.85 1531.41 Q1858.56 1531.41 1857.66 1532.34 Q1856.78 1533.26 1856.78 1535.67 L1856.78 1537.96 L1863.79 1537.96 L1863.79 1541.27 L1856.78 1541.27 L1856.78 1563.89 L1852.49 1563.89 L1852.49 1541.27 L1848.42 1541.27 L1848.42 1537.96 L1852.49 1537.96 L1852.49 1536.16 Q1852.49 1531.83 1854.51 1529.86 Q1856.52 1527.87 1860.9 1527.87 L1864.92 1527.87 Z" fill="#000000" fill-rule="nonzero" fill-opacity="1" /><path clip-path="url(#clip030)" d="M2661.47 1527.87 L2661.47 1531.41 L2657.39 1531.41 Q2655.1 1531.41 2654.2 1532.34 Q2653.32 1533.26 2653.32 1535.67 L2653.32 1537.96 L2660.33 1537.96 L2660.33 1541.27 L2653.32 1541.27 L2653.32 1563.89 L2649.04 1563.89 L2649.04 1541.27 L2644.96 1541.27 L2644.96 1537.96 L2649.04 1537.96 L2649.04 1536.16 Q2649.04 1531.83 2651.05 1529.86 Q2653.06 1527.87 2657.44 1527.87 L2661.47 1527.87 Z" fill="#000000" fill-rule="nonzero" fill-opacity="1" /><path clip-path="url(#clip030)" d="M2675.08 1540.95 Q2671.65 1540.95 2669.66 1543.63 Q2667.67 1546.3 2667.67 1550.95 Q2667.67 1555.6 2669.64 1558.29 Q2671.63 1560.95 2675.08 1560.95 Q2678.48 1560.95 2680.47 1558.26 Q2682.46 1555.58 2682.46 1550.95 Q2682.46 1546.34 2680.47 1543.66 Q2678.48 1540.95 2675.08 1540.95 M2675.08 1537.34 Q2680.63 1537.34 2683.8 1540.95 Q2686.97 1544.56 2686.97 1550.95 Q2686.97 1557.31 2683.8 1560.95 Q2680.63 1564.56 2675.08 1564.56 Q2669.5 1564.56 2666.33 1560.95 Q2663.18 1557.31 2663.18 1550.95 Q2663.18 1544.56 2666.33 1540.95 Q2669.5 1537.34 2675.08 1537.34 Z" fill="#000000" fill-rule="nonzero" fill-opacity="1" /><path clip-path="url(#clip030)" d="M2709.06 1541.94 Q2708.34 1541.53 2707.48 1541.34 Q2706.65 1541.13 2705.63 1541.13 Q2702.02 1541.13 2700.08 1543.49 Q2698.16 1545.83 2698.16 1550.23 L2698.16 1563.89 L2693.87 1563.89 L2693.87 1537.96 L2698.16 1537.96 L2698.16 1541.99 Q2699.5 1539.63 2701.65 1538.49 Q2703.8 1537.34 2706.88 1537.34 Q2707.32 1537.34 2707.85 1537.41 Q2708.39 1537.45 2709.03 1537.57 L2709.06 1541.94 Z" fill="#000000" fill-rule="nonzero" fill-opacity="1" /><path clip-path="url(#clip030)" d="M2711.05 1537.96 L2715.31 1537.96 L2720.63 1558.19 L2725.93 1537.96 L2730.96 1537.96 L2736.28 1558.19 L2741.58 1537.96 L2745.84 1537.96 L2739.06 1563.89 L2734.03 1563.89 L2728.46 1542.64 L2722.85 1563.89 L2717.83 1563.89 L2711.05 1537.96 Z" fill="#000000" fill-rule="nonzero" fill-opacity="1" /><path clip-path="url(#clip030)" d="M2764.08 1550.86 Q2758.92 1550.86 2756.93 1552.04 Q2754.94 1553.22 2754.94 1556.06 Q2754.94 1558.33 2756.42 1559.67 Q2757.92 1560.99 2760.49 1560.99 Q2764.03 1560.99 2766.16 1558.49 Q2768.32 1555.97 2768.32 1551.8 L2768.32 1550.86 L2764.08 1550.86 M2772.58 1549.1 L2772.58 1563.89 L2768.32 1563.89 L2768.32 1559.95 Q2766.86 1562.31 2764.68 1563.45 Q2762.51 1564.56 2759.36 1564.56 Q2755.38 1564.56 2753.02 1562.34 Q2750.68 1560.09 2750.68 1556.34 Q2750.68 1551.97 2753.59 1549.74 Q2756.53 1547.52 2762.34 1547.52 L2768.32 1547.52 L2768.32 1547.11 Q2768.32 1544.17 2766.37 1542.57 Q2764.45 1540.95 2760.96 1540.95 Q2758.73 1540.95 2756.63 1541.48 Q2754.52 1542.01 2752.58 1543.08 L2752.58 1539.14 Q2754.91 1538.24 2757.11 1537.8 Q2759.31 1537.34 2761.4 1537.34 Q2767.02 1537.34 2769.8 1540.25 Q2772.58 1543.17 2772.58 1549.1 Z" fill="#000000" fill-rule="nonzero" fill-opacity="1" /><path clip-path="url(#clip030)" d="M2796.37 1541.94 Q2795.65 1541.53 2794.8 1541.34 Q2793.96 1541.13 2792.95 1541.13 Q2789.34 1541.13 2787.39 1543.49 Q2785.47 1545.83 2785.47 1550.23 L2785.47 1563.89 L2781.19 1563.89 L2781.19 1537.96 L2785.47 1537.96 L2785.47 1541.99 Q2786.81 1539.63 2788.97 1538.49 Q2791.12 1537.34 2794.2 1537.34 Q2794.64 1537.34 2795.17 1537.41 Q2795.7 1537.45 2796.35 1537.57 L2796.37 1541.94 Z" fill="#000000" fill-rule="nonzero" fill-opacity="1" /><path clip-path="url(#clip030)" d="M2817.07 1541.9 L2817.07 1527.87 L2821.33 1527.87 L2821.33 1563.89 L2817.07 1563.89 L2817.07 1560 Q2815.72 1562.31 2813.66 1563.45 Q2811.63 1564.56 2808.76 1564.56 Q2804.06 1564.56 2801.09 1560.81 Q2798.15 1557.06 2798.15 1550.95 Q2798.15 1544.84 2801.09 1541.09 Q2804.06 1537.34 2808.76 1537.34 Q2811.63 1537.34 2813.66 1538.47 Q2815.72 1539.58 2817.07 1541.9 M2802.55 1550.95 Q2802.55 1555.65 2804.47 1558.33 Q2806.42 1560.99 2809.8 1560.99 Q2813.18 1560.99 2815.12 1558.33 Q2817.07 1555.65 2817.07 1550.95 Q2817.07 1546.25 2815.12 1543.59 Q2813.18 1540.9 2809.8 1540.9 Q2806.42 1540.9 2804.47 1543.59 Q2802.55 1546.25 2802.55 1550.95 Z" fill="#000000" fill-rule="nonzero" fill-opacity="1" /><path clip-path="url(#clip030)" d="M2862.23 1541.9 L2862.23 1527.87 L2866.49 1527.87 L2866.49 1563.89 L2862.23 1563.89 L2862.23 1560 Q2860.89 1562.31 2858.83 1563.45 Q2856.79 1564.56 2853.92 1564.56 Q2849.22 1564.56 2846.26 1560.81 Q2843.32 1557.06 2843.32 1550.95 Q2843.32 1544.84 2846.26 1541.09 Q2849.22 1537.34 2853.92 1537.34 Q2856.79 1537.34 2858.83 1538.47 Q2860.89 1539.58 2862.23 1541.9 M2847.71 1550.95 Q2847.71 1555.65 2849.64 1558.33 Q2851.58 1560.99 2854.96 1560.99 Q2858.34 1560.99 2860.28 1558.33 Q2862.23 1555.65 2862.23 1550.95 Q2862.23 1546.25 2860.28 1543.59 Q2858.34 1540.9 2854.96 1540.9 Q2851.58 1540.9 2849.64 1543.59 Q2847.71 1546.25 2847.71 1550.95 Z" fill="#000000" fill-rule="nonzero" fill-opacity="1" /><path clip-path="url(#clip030)" d="M2875.26 1537.96 L2879.52 1537.96 L2879.52 1563.89 L2875.26 1563.89 L2875.26 1537.96 M2875.26 1527.87 L2879.52 1527.87 L2879.52 1533.26 L2875.26 1533.26 L2875.26 1527.87 Z" fill="#000000" fill-rule="nonzero" fill-opacity="1" /><path clip-path="url(#clip030)" d="M2901.56 1527.87 L2901.56 1531.41 L2897.48 1531.41 Q2895.19 1531.41 2894.29 1532.34 Q2893.41 1533.26 2893.41 1535.67 L2893.41 1537.96 L2900.42 1537.96 L2900.42 1541.27 L2893.41 1541.27 L2893.41 1563.89 L2889.13 1563.89 L2889.13 1541.27 L2885.05 1541.27 L2885.05 1537.96 L2889.13 1537.96 L2889.13 1536.16 Q2889.13 1531.83 2891.14 1529.86 Q2893.15 1527.87 2897.53 1527.87 L2901.56 1527.87 Z" fill="#000000" fill-rule="nonzero" fill-opacity="1" /><path clip-path="url(#clip030)" d="M2918.25 1527.87 L2918.25 1531.41 L2914.17 1531.41 Q2911.88 1531.41 2910.98 1532.34 Q2910.1 1533.26 2910.1 1535.67 L2910.1 1537.96 L2917.11 1537.96 L2917.11 1541.27 L2910.1 1541.27 L2910.1 1563.89 L2905.82 1563.89 L2905.82 1541.27 L2901.74 1541.27 L2901.74 1537.96 L2905.82 1537.96 L2905.82 1536.16 Q2905.82 1531.83 2907.83 1529.86 Q2909.84 1527.87 2914.22 1527.87 L2918.25 1527.87 Z" fill="#000000" fill-rule="nonzero" fill-opacity="1" /><polyline clip-path="url(#clip030)" style="stroke:#000000; stroke-linecap:round; stroke-linejoin:round; stroke-width:4; stroke-opacity:1; fill:none" points="364.733,1495.09 364.733,47.2441 "/>
<polyline clip-path="url(#clip030)" style="stroke:#000000; stroke-linecap:round; stroke-linejoin:round; stroke-width:4; stroke-opacity:1; fill:none" points="364.733,1305.35 383.63,1305.35 "/>
<polyline clip-path="url(#clip030)" style="stroke:#000000; stroke-linecap:round; stroke-linejoin:round; stroke-width:4; stroke-opacity:1; fill:none" points="364.733,958.241 383.63,958.241 "/>
<polyline clip-path="url(#clip030)" style="stroke:#000000; stroke-linecap:round; stroke-linejoin:round; stroke-width:4; stroke-opacity:1; fill:none" points="364.733,611.128 383.63,611.128 "/>
<polyline clip-path="url(#clip030)" style="stroke:#000000; stroke-linecap:round; stroke-linejoin:round; stroke-width:4; stroke-opacity:1; fill:none" points="364.733,264.015 383.63,264.015 "/>
<path clip-path="url(#clip030)" d="M100.137 1294.52 L118.493 1294.52 L118.493 1298.46 L104.419 1298.46 L104.419 1306.93 Q105.437 1306.58 106.456 1306.42 Q107.474 1306.23 108.493 1306.23 Q114.28 1306.23 117.66 1309.41 Q121.039 1312.58 121.039 1317.99 Q121.039 1323.57 117.567 1326.67 Q114.095 1329.75 107.775 1329.75 Q105.599 1329.75 103.331 1329.38 Q101.086 1329.01 98.6782 1328.27 L98.6782 1323.57 Q100.762 1324.71 102.984 1325.26 Q105.206 1325.82 107.683 1325.82 Q111.687 1325.82 114.025 1323.71 Q116.363 1321.6 116.363 1317.99 Q116.363 1314.38 114.025 1312.28 Q111.687 1310.17 107.683 1310.17 Q105.808 1310.17 103.933 1310.59 Q102.081 1311 100.137 1311.88 L100.137 1294.52 Z" fill="#000000" fill-rule="nonzero" fill-opacity="1" /><path clip-path="url(#clip030)" d="M130.252 1323.2 L135.136 1323.2 L135.136 1329.08 L130.252 1329.08 L130.252 1323.2 Z" fill="#000000" fill-rule="nonzero" fill-opacity="1" /><path clip-path="url(#clip030)" d="M155.321 1297.6 Q151.71 1297.6 149.882 1301.16 Q148.076 1304.71 148.076 1311.84 Q148.076 1318.94 149.882 1322.51 Q151.71 1326.05 155.321 1326.05 Q158.956 1326.05 160.761 1322.51 Q162.59 1318.94 162.59 1311.84 Q162.59 1304.71 160.761 1301.16 Q158.956 1297.6 155.321 1297.6 M155.321 1293.9 Q161.132 1293.9 164.187 1298.5 Q167.266 1303.09 167.266 1311.84 Q167.266 1320.56 164.187 1325.17 Q161.132 1329.75 155.321 1329.75 Q149.511 1329.75 146.433 1325.17 Q143.377 1320.56 143.377 1311.84 Q143.377 1303.09 146.433 1298.5 Q149.511 1293.9 155.321 1293.9 Z" fill="#000000" fill-rule="nonzero" fill-opacity="1" /><path clip-path="url(#clip030)" d="M185.483 1297.6 Q181.872 1297.6 180.043 1301.16 Q178.238 1304.71 178.238 1311.84 Q178.238 1318.94 180.043 1322.51 Q181.872 1326.05 185.483 1326.05 Q189.118 1326.05 190.923 1322.51 Q192.752 1318.94 192.752 1311.84 Q192.752 1304.71 190.923 1301.16 Q189.118 1297.6 185.483 1297.6 M185.483 1293.9 Q191.293 1293.9 194.349 1298.5 Q197.428 1303.09 197.428 1311.84 Q197.428 1320.56 194.349 1325.17 Q191.293 1329.75 185.483 1329.75 Q179.673 1329.75 176.594 1325.17 Q173.539 1320.56 173.539 1311.84 Q173.539 1303.09 176.594 1298.5 Q179.673 1293.9 185.483 1293.9 Z" fill="#000000" fill-rule="nonzero" fill-opacity="1" /><path clip-path="url(#clip030)" d="M233.816 1303.62 L223.238 1314.24 L233.816 1324.82 L231.062 1327.62 L220.437 1317 L209.812 1327.62 L207.08 1324.82 L217.636 1314.24 L207.08 1303.62 L209.812 1300.82 L220.437 1311.44 L231.062 1300.82 L233.816 1303.62 Z" fill="#000000" fill-rule="nonzero" fill-opacity="1" /><path clip-path="url(#clip030)" d="M246.177 1325.15 L253.816 1325.15 L253.816 1298.78 L245.506 1300.45 L245.506 1296.19 L253.77 1294.52 L258.446 1294.52 L258.446 1325.15 L266.085 1325.15 L266.085 1329.08 L246.177 1329.08 L246.177 1325.15 Z" fill="#000000" fill-rule="nonzero" fill-opacity="1" /><path clip-path="url(#clip030)" d="M285.529 1297.6 Q281.918 1297.6 280.089 1301.16 Q278.284 1304.71 278.284 1311.84 Q278.284 1318.94 280.089 1322.51 Q281.918 1326.05 285.529 1326.05 Q289.163 1326.05 290.969 1322.51 Q292.798 1318.94 292.798 1311.84 Q292.798 1304.71 290.969 1301.16 Q289.163 1297.6 285.529 1297.6 M285.529 1293.9 Q291.339 1293.9 294.395 1298.5 Q297.473 1303.09 297.473 1311.84 Q297.473 1320.56 294.395 1325.17 Q291.339 1329.75 285.529 1329.75 Q279.719 1329.75 276.64 1325.17 Q273.585 1320.56 273.585 1311.84 Q273.585 1303.09 276.64 1298.5 Q279.719 1293.9 285.529 1293.9 Z" fill="#000000" fill-rule="nonzero" fill-opacity="1" /><path clip-path="url(#clip030)" d="M307.103 1288.34 Q304.395 1288.34 302.834 1289.78 Q301.291 1291.23 301.291 1293.77 Q301.291 1296.31 302.834 1297.76 Q304.395 1299.21 307.103 1299.21 Q309.811 1299.21 311.372 1297.76 Q312.933 1296.29 312.933 1293.77 Q312.933 1291.23 311.372 1289.78 Q309.83 1288.34 307.103 1288.34 M303.304 1286.72 Q300.859 1286.12 299.486 1284.44 Q298.132 1282.77 298.132 1280.36 Q298.132 1276.99 300.52 1275.04 Q302.928 1273.08 307.103 1273.08 Q311.297 1273.08 313.686 1275.04 Q316.074 1276.99 316.074 1280.36 Q316.074 1282.77 314.701 1284.44 Q313.347 1286.12 310.921 1286.72 Q313.667 1287.36 315.19 1289.22 Q316.733 1291.08 316.733 1293.77 Q316.733 1297.85 314.231 1300.03 Q311.749 1302.22 307.103 1302.22 Q302.457 1302.22 299.956 1300.03 Q297.473 1297.85 297.473 1293.77 Q297.473 1291.08 299.016 1289.22 Q300.558 1287.36 303.304 1286.72 M301.912 1280.72 Q301.912 1282.9 303.266 1284.12 Q304.639 1285.35 307.103 1285.35 Q309.548 1285.35 310.921 1284.12 Q312.313 1282.9 312.313 1280.72 Q312.313 1278.54 310.921 1277.31 Q309.548 1276.09 307.103 1276.09 Q304.639 1276.09 303.266 1277.31 Q301.912 1278.54 301.912 1280.72 Z" fill="#000000" fill-rule="nonzero" fill-opacity="1" /><path clip-path="url(#clip030)" d="M100.788 978.033 L108.426 978.033 L108.426 951.668 L100.116 953.334 L100.116 949.075 L108.38 947.408 L113.056 947.408 L113.056 978.033 L120.695 978.033 L120.695 981.968 L100.788 981.968 L100.788 978.033 Z" fill="#000000" fill-rule="nonzero" fill-opacity="1" /><path clip-path="url(#clip030)" d="M130.139 976.089 L135.023 976.089 L135.023 981.968 L130.139 981.968 L130.139 976.089 Z" fill="#000000" fill-rule="nonzero" fill-opacity="1" /><path clip-path="url(#clip030)" d="M155.209 950.487 Q151.597 950.487 149.769 954.052 Q147.963 957.594 147.963 964.723 Q147.963 971.83 149.769 975.394 Q151.597 978.936 155.209 978.936 Q158.843 978.936 160.648 975.394 Q162.477 971.83 162.477 964.723 Q162.477 957.594 160.648 954.052 Q158.843 950.487 155.209 950.487 M155.209 946.783 Q161.019 946.783 164.074 951.39 Q167.153 955.973 167.153 964.723 Q167.153 973.45 164.074 978.056 Q161.019 982.64 155.209 982.64 Q149.398 982.64 146.32 978.056 Q143.264 973.45 143.264 964.723 Q143.264 955.973 146.32 951.39 Q149.398 946.783 155.209 946.783 Z" fill="#000000" fill-rule="nonzero" fill-opacity="1" /><path clip-path="url(#clip030)" d="M185.37 950.487 Q181.759 950.487 179.931 954.052 Q178.125 957.594 178.125 964.723 Q178.125 971.83 179.931 975.394 Q181.759 978.936 185.37 978.936 Q189.005 978.936 190.81 975.394 Q192.639 971.83 192.639 964.723 Q192.639 957.594 190.81 954.052 Q189.005 950.487 185.37 950.487 M185.37 946.783 Q191.181 946.783 194.236 951.39 Q197.315 955.973 197.315 964.723 Q197.315 973.45 194.236 978.056 Q191.181 982.64 185.37 982.64 Q179.56 982.64 176.482 978.056 Q173.426 973.45 173.426 964.723 Q173.426 955.973 176.482 951.39 Q179.56 946.783 185.37 946.783 Z" fill="#000000" fill-rule="nonzero" fill-opacity="1" /><path clip-path="url(#clip030)" d="M233.704 956.506 L223.125 967.131 L233.704 977.709 L230.949 980.51 L220.324 969.885 L209.699 980.51 L206.968 977.709 L217.523 967.131 L206.968 956.506 L209.699 953.705 L220.324 964.33 L230.949 953.705 L233.704 956.506 Z" fill="#000000" fill-rule="nonzero" fill-opacity="1" /><path clip-path="url(#clip030)" d="M246.065 978.033 L253.703 978.033 L253.703 951.668 L245.393 953.334 L245.393 949.075 L253.657 947.408 L258.333 947.408 L258.333 978.033 L265.972 978.033 L265.972 981.968 L246.065 981.968 L246.065 978.033 Z" fill="#000000" fill-rule="nonzero" fill-opacity="1" /><path clip-path="url(#clip030)" d="M285.416 950.487 Q281.805 950.487 279.976 954.052 Q278.171 957.594 278.171 964.723 Q278.171 971.83 279.976 975.394 Q281.805 978.936 285.416 978.936 Q289.05 978.936 290.856 975.394 Q292.685 971.83 292.685 964.723 Q292.685 957.594 290.856 954.052 Q289.05 950.487 285.416 950.487 M285.416 946.783 Q291.226 946.783 294.282 951.39 Q297.361 955.973 297.361 964.723 Q297.361 973.45 294.282 978.056 Q291.226 982.64 285.416 982.64 Q279.606 982.64 276.527 978.056 Q273.472 973.45 273.472 964.723 Q273.472 955.973 276.527 951.39 Q279.606 946.783 285.416 946.783 Z" fill="#000000" fill-rule="nonzero" fill-opacity="1" /><path clip-path="url(#clip030)" d="M299.166 953.975 L299.166 950.514 Q300.596 951.191 302.063 951.549 Q303.53 951.906 304.94 951.906 Q308.702 951.906 310.676 949.386 Q312.67 946.847 312.952 941.693 Q311.861 943.311 310.187 944.176 Q308.514 945.041 306.482 945.041 Q302.269 945.041 299.806 942.502 Q297.361 939.944 297.361 935.525 Q297.361 931.199 299.918 928.584 Q302.476 925.97 306.727 925.97 Q311.598 925.97 314.156 929.713 Q316.733 933.437 316.733 940.546 Q316.733 947.185 313.573 951.154 Q310.432 955.103 305.109 955.103 Q303.68 955.103 302.213 954.821 Q300.746 954.539 299.166 953.975 M306.727 942.07 Q309.285 942.07 310.771 940.321 Q312.275 938.571 312.275 935.525 Q312.275 932.496 310.771 930.747 Q309.285 928.979 306.727 928.979 Q304.169 928.979 302.664 930.747 Q301.179 932.496 301.179 935.525 Q301.179 938.571 302.664 940.321 Q304.169 942.07 306.727 942.07 Z" fill="#000000" fill-rule="nonzero" fill-opacity="1" /><path clip-path="url(#clip030)" d="M100.788 630.921 L108.426 630.921 L108.426 604.555 L100.116 606.222 L100.116 601.962 L108.38 600.296 L113.056 600.296 L113.056 630.921 L120.695 630.921 L120.695 634.856 L100.788 634.856 L100.788 630.921 Z" fill="#000000" fill-rule="nonzero" fill-opacity="1" /><path clip-path="url(#clip030)" d="M130.139 628.976 L135.023 628.976 L135.023 634.856 L130.139 634.856 L130.139 628.976 Z" fill="#000000" fill-rule="nonzero" fill-opacity="1" /><path clip-path="url(#clip030)" d="M145.255 600.296 L163.611 600.296 L163.611 604.231 L149.537 604.231 L149.537 612.703 Q150.556 612.356 151.574 612.194 Q152.593 612.009 153.611 612.009 Q159.398 612.009 162.778 615.18 Q166.158 618.351 166.158 623.768 Q166.158 629.346 162.685 632.448 Q159.213 635.527 152.894 635.527 Q150.718 635.527 148.449 635.157 Q146.204 634.786 143.797 634.046 L143.797 629.346 Q145.88 630.481 148.102 631.036 Q150.324 631.592 152.801 631.592 Q156.806 631.592 159.144 629.485 Q161.482 627.379 161.482 623.768 Q161.482 620.157 159.144 618.05 Q156.806 615.944 152.801 615.944 Q150.926 615.944 149.051 616.36 Q147.199 616.777 145.255 617.657 L145.255 600.296 Z" fill="#000000" fill-rule="nonzero" fill-opacity="1" /><path clip-path="url(#clip030)" d="M185.37 603.374 Q181.759 603.374 179.931 606.939 Q178.125 610.481 178.125 617.61 Q178.125 624.717 179.931 628.282 Q181.759 631.823 185.37 631.823 Q189.005 631.823 190.81 628.282 Q192.639 624.717 192.639 617.61 Q192.639 610.481 190.81 606.939 Q189.005 603.374 185.37 603.374 M185.37 599.671 Q191.181 599.671 194.236 604.277 Q197.315 608.86 197.315 617.61 Q197.315 626.337 194.236 630.944 Q191.181 635.527 185.37 635.527 Q179.56 635.527 176.482 630.944 Q173.426 626.337 173.426 617.61 Q173.426 608.86 176.482 604.277 Q179.56 599.671 185.37 599.671 Z" fill="#000000" fill-rule="nonzero" fill-opacity="1" /><path clip-path="url(#clip030)" d="M233.704 609.393 L223.125 620.018 L233.704 630.596 L230.949 633.397 L220.324 622.772 L209.699 633.397 L206.968 630.596 L217.523 620.018 L206.968 609.393 L209.699 606.592 L220.324 617.217 L230.949 606.592 L233.704 609.393 Z" fill="#000000" fill-rule="nonzero" fill-opacity="1" /><path clip-path="url(#clip030)" d="M246.065 630.921 L253.703 630.921 L253.703 604.555 L245.393 606.222 L245.393 601.962 L253.657 600.296 L258.333 600.296 L258.333 630.921 L265.972 630.921 L265.972 634.856 L246.065 634.856 L246.065 630.921 Z" fill="#000000" fill-rule="nonzero" fill-opacity="1" /><path clip-path="url(#clip030)" d="M285.416 603.374 Q281.805 603.374 279.976 606.939 Q278.171 610.481 278.171 617.61 Q278.171 624.717 279.976 628.282 Q281.805 631.823 285.416 631.823 Q289.05 631.823 290.856 628.282 Q292.685 624.717 292.685 617.61 Q292.685 610.481 290.856 606.939 Q289.05 603.374 285.416 603.374 M285.416 599.671 Q291.226 599.671 294.282 604.277 Q297.361 608.86 297.361 617.61 Q297.361 626.337 294.282 630.944 Q291.226 635.527 285.416 635.527 Q279.606 635.527 276.527 630.944 Q273.472 626.337 273.472 617.61 Q273.472 608.86 276.527 604.277 Q279.606 599.671 285.416 599.671 Z" fill="#000000" fill-rule="nonzero" fill-opacity="1" /><path clip-path="url(#clip030)" d="M299.166 606.862 L299.166 603.402 Q300.596 604.079 302.063 604.436 Q303.53 604.793 304.94 604.793 Q308.702 604.793 310.676 602.273 Q312.67 599.734 312.952 594.581 Q311.861 596.198 310.187 597.063 Q308.514 597.929 306.482 597.929 Q302.269 597.929 299.806 595.39 Q297.361 592.832 297.361 588.412 Q297.361 584.086 299.918 581.472 Q302.476 578.857 306.727 578.857 Q311.598 578.857 314.156 582.6 Q316.733 586.324 316.733 593.433 Q316.733 600.073 313.573 604.041 Q310.432 607.991 305.109 607.991 Q303.68 607.991 302.213 607.709 Q300.746 607.426 299.166 606.862 M306.727 594.957 Q309.285 594.957 310.771 593.208 Q312.275 591.459 312.275 588.412 Q312.275 585.384 310.771 583.635 Q309.285 581.867 306.727 581.867 Q304.169 581.867 302.664 583.635 Q301.179 585.384 301.179 588.412 Q301.179 591.459 302.664 593.208 Q304.169 594.957 306.727 594.957 Z" fill="#000000" fill-rule="nonzero" fill-opacity="1" /><path clip-path="url(#clip030)" d="M104.005 283.808 L120.324 283.808 L120.324 287.743 L98.3802 287.743 L98.3802 283.808 Q101.042 281.053 105.625 276.424 Q110.232 271.771 111.412 270.428 Q113.658 267.905 114.537 266.169 Q115.44 264.41 115.44 262.72 Q115.44 259.965 113.496 258.229 Q111.575 256.493 108.473 256.493 Q106.274 256.493 103.82 257.257 Q101.389 258.021 98.6116 259.572 L98.6116 254.85 Q101.436 253.715 103.889 253.137 Q106.343 252.558 108.38 252.558 Q113.75 252.558 116.945 255.243 Q120.139 257.928 120.139 262.419 Q120.139 264.549 119.329 266.47 Q118.542 268.368 116.436 270.961 Q115.857 271.632 112.755 274.85 Q109.653 278.044 104.005 283.808 Z" fill="#000000" fill-rule="nonzero" fill-opacity="1" /><path clip-path="url(#clip030)" d="M130.139 281.863 L135.023 281.863 L135.023 287.743 L130.139 287.743 L130.139 281.863 Z" fill="#000000" fill-rule="nonzero" fill-opacity="1" /><path clip-path="url(#clip030)" d="M155.209 256.262 Q151.597 256.262 149.769 259.826 Q147.963 263.368 147.963 270.498 Q147.963 277.604 149.769 281.169 Q151.597 284.711 155.209 284.711 Q158.843 284.711 160.648 281.169 Q162.477 277.604 162.477 270.498 Q162.477 263.368 160.648 259.826 Q158.843 256.262 155.209 256.262 M155.209 252.558 Q161.019 252.558 164.074 257.164 Q167.153 261.748 167.153 270.498 Q167.153 279.224 164.074 283.831 Q161.019 288.414 155.209 288.414 Q149.398 288.414 146.32 283.831 Q143.264 279.224 143.264 270.498 Q143.264 261.748 146.32 257.164 Q149.398 252.558 155.209 252.558 Z" fill="#000000" fill-rule="nonzero" fill-opacity="1" /><path clip-path="url(#clip030)" d="M185.37 256.262 Q181.759 256.262 179.931 259.826 Q178.125 263.368 178.125 270.498 Q178.125 277.604 179.931 281.169 Q181.759 284.711 185.37 284.711 Q189.005 284.711 190.81 281.169 Q192.639 277.604 192.639 270.498 Q192.639 263.368 190.81 259.826 Q189.005 256.262 185.37 256.262 M185.37 252.558 Q191.181 252.558 194.236 257.164 Q197.315 261.748 197.315 270.498 Q197.315 279.224 194.236 283.831 Q191.181 288.414 185.37 288.414 Q179.56 288.414 176.482 283.831 Q173.426 279.224 173.426 270.498 Q173.426 261.748 176.482 257.164 Q179.56 252.558 185.37 252.558 Z" fill="#000000" fill-rule="nonzero" fill-opacity="1" /><path clip-path="url(#clip030)" d="M233.704 262.28 L223.125 272.905 L233.704 283.484 L230.949 286.285 L220.324 275.66 L209.699 286.285 L206.968 283.484 L217.523 272.905 L206.968 262.28 L209.699 259.479 L220.324 270.104 L230.949 259.479 L233.704 262.28 Z" fill="#000000" fill-rule="nonzero" fill-opacity="1" /><path clip-path="url(#clip030)" d="M246.065 283.808 L253.703 283.808 L253.703 257.442 L245.393 259.109 L245.393 254.85 L253.657 253.183 L258.333 253.183 L258.333 283.808 L265.972 283.808 L265.972 287.743 L246.065 287.743 L246.065 283.808 Z" fill="#000000" fill-rule="nonzero" fill-opacity="1" /><path clip-path="url(#clip030)" d="M285.416 256.262 Q281.805 256.262 279.976 259.826 Q278.171 263.368 278.171 270.498 Q278.171 277.604 279.976 281.169 Q281.805 284.711 285.416 284.711 Q289.05 284.711 290.856 281.169 Q292.685 277.604 292.685 270.498 Q292.685 263.368 290.856 259.826 Q289.05 256.262 285.416 256.262 M285.416 252.558 Q291.226 252.558 294.282 257.164 Q297.361 261.748 297.361 270.498 Q297.361 279.224 294.282 283.831 Q291.226 288.414 285.416 288.414 Q279.606 288.414 276.527 283.831 Q273.472 279.224 273.472 270.498 Q273.472 261.748 276.527 257.164 Q279.606 252.558 285.416 252.558 Z" fill="#000000" fill-rule="nonzero" fill-opacity="1" /><path clip-path="url(#clip030)" d="M299.166 259.75 L299.166 256.289 Q300.596 256.966 302.063 257.323 Q303.53 257.681 304.94 257.681 Q308.702 257.681 310.676 255.16 Q312.67 252.621 312.952 247.468 Q311.861 249.086 310.187 249.951 Q308.514 250.816 306.482 250.816 Q302.269 250.816 299.806 248.277 Q297.361 245.719 297.361 241.299 Q297.361 236.973 299.918 234.359 Q302.476 231.745 306.727 231.745 Q311.598 231.745 314.156 235.488 Q316.733 239.211 316.733 246.321 Q316.733 252.96 313.573 256.928 Q310.432 260.878 305.109 260.878 Q303.68 260.878 302.213 260.596 Q300.746 260.314 299.166 259.75 M306.727 247.844 Q309.285 247.844 310.771 246.095 Q312.275 244.346 312.275 241.299 Q312.275 238.271 310.771 236.522 Q309.285 234.754 306.727 234.754 Q304.169 234.754 302.664 236.522 Q301.179 238.271 301.179 241.299 Q301.179 244.346 302.664 246.095 Q304.169 247.844 306.727 247.844 Z" fill="#000000" fill-rule="nonzero" fill-opacity="1" /><path clip-path="url(#clip030)" d="M-9.64527 840.632 L0.4762 840.632 L0.4762 828.569 L5.02768 828.569 L5.02768 840.632 L24.3794 840.632 Q28.7399 840.632 29.9813 839.454 Q31.2226 838.245 31.2226 834.584 L31.2226 828.569 L36.1242 828.569 L36.1242 834.584 Q36.1242 841.364 33.6097 843.942 Q31.0634 846.52 24.3794 846.52 L5.02768 846.52 L5.02768 850.817 L0.4762 850.817 L0.4762 846.52 L-9.64527 846.52 L-9.64527 840.632 Z" fill="#000000" fill-rule="nonzero" fill-opacity="1" /><path clip-path="url(#clip030)" d="M-11.3958 789.738 L-11.3958 784.327 L42.1716 800.878 L42.1716 806.289 L-11.3958 789.738 Z" fill="#000000" fill-rule="nonzero" fill-opacity="1" /><path clip-path="url(#clip030)" d="M14.6081 727.831 L36.1242 727.831 L36.1242 733.688 L14.799 733.688 Q9.7383 733.688 7.22385 735.661 Q4.7094 737.635 4.7094 741.581 Q4.7094 746.324 7.73311 749.061 Q10.7568 751.798 15.9767 751.798 L36.1242 751.798 L36.1242 757.687 L0.4762 757.687 L0.4762 751.798 L6.01437 751.798 Q2.79968 749.698 1.20826 746.865 Q-0.38317 744 -0.38317 740.276 Q-0.38317 734.133 3.43625 730.982 Q7.22385 727.831 14.6081 727.831 Z" fill="#000000" fill-rule="nonzero" fill-opacity="1" /><path clip-path="url(#clip030)" d="M1.52654 693.425 L7.06471 693.425 Q5.79157 695.907 5.15499 698.581 Q4.51842 701.255 4.51842 704.119 Q4.51842 708.48 5.85522 710.676 Q7.19202 712.84 9.86562 712.84 Q11.9026 712.84 13.0803 711.281 Q14.2261 709.721 15.2765 705.01 L15.7221 703.005 Q17.0589 696.767 19.5097 694.157 Q21.9286 691.515 26.2891 691.515 Q31.2544 691.515 34.1508 695.462 Q37.0472 699.377 37.0472 706.252 Q37.0472 709.116 36.4743 712.235 Q35.9332 715.323 34.8192 718.76 L28.7718 718.76 Q30.4587 715.514 31.318 712.363 Q32.1456 709.212 32.1456 706.124 Q32.1456 701.987 30.7451 699.759 Q29.3129 697.531 26.7347 697.531 Q24.3476 697.531 23.0745 699.154 Q21.8013 700.745 20.6237 706.188 L20.1462 708.225 Q19.0004 713.668 16.6451 716.087 Q14.258 718.506 10.1202 718.506 Q5.09134 718.506 2.35408 714.941 Q-0.38317 711.376 -0.38317 704.819 Q-0.38317 701.573 0.0942579 698.708 Q0.571686 695.844 1.52654 693.425 Z" fill="#000000" fill-rule="nonzero" fill-opacity="1" /><path clip-path="url(#clip031)" d="M1007.92 1454.11 L1016.55 1454.04 L1022.85 1453.97 L1026.72 1453.89 L1028.13 1453.82 L1027.13 1453.75 L1023.85 1453.68 L1018.5 1453.61 L1011.34 1453.53 L1002.68 1453.46 L992.857 1453.39 L982.218 1453.32 L971.104 1453.24 L959.829 1453.17 L948.671 1453.1 L937.856 1453.03 L927.553 1452.96 L917.869 1452.88 L908.855 1452.81 L900.502 1452.74 L892.759 1452.67 L885.536 1452.59 L878.719 1452.52 L872.183 1452.45 L865.804 1452.38 L859.466 1452.3 L853.076 1452.23 L846.564 1452.16 L839.89 1452.09 L833.045 1452.02 L826.048 1451.94 L818.943 1451.87 L811.793 1451.8 L804.676 1451.73 L797.676 1451.65 L790.88 1451.58 L784.367 1451.51 L778.21 1451.44 L772.47 1451.37 L767.189 1451.29 L762.397 1451.22 L758.108 1451.15 L754.318 1451.08 L751.015 1451 L748.172 1450.93 L745.759 1450.86 L743.735 1450.79 L742.059 1450.72 L740.689 1450.64 L739.584 1450.57 L738.702 1450.5 L738.007 1450.43 L737.467 1450.35 L737.051 1450.28 L736.735 1450.21 L736.498 1450.14 L736.323 1450.06 L736.194 1449.99 L736.101 1449.92 L736.034 1449.85 L735.987 1449.78 L735.954 1449.7 L735.931 1449.63 L735.915 1449.56 L735.905 1449.49 L735.897 1449.41 L735.893 1449.34 L735.89 1449.27 L735.888 1449.2 L735.887 1449.13 L735.886 1449.05 L735.885 1448.98 L735.885 1448.91 L735.885 1448.84 L735.885 1448.76 L735.885 1448.69 L735.886 1448.62 L735.887 1448.55 L735.888 1448.48 L735.89 1448.4 L735.893 1448.33 L735.897 1448.26 L735.904 1448.19 L735.915 1448.11 L735.93 1448.04 L735.953 1447.97 L735.985 1447.9 L736.032 1447.82 L736.098 1447.75 L736.19 1447.68 L736.317 1447.61 L736.491 1447.54 L736.726 1447.46 L737.038 1447.39 L737.449 1447.32 L737.984 1447.25 L738.671 1447.17 L739.544 1447.1 L740.638 1447.03 L741.992 1446.96 L743.648 1446.89 L745.647 1446.81 L748.027 1446.74 L750.826 1446.67 L754.071 1446.6 L757.782 1446.52 L761.966 1446.45 L766.614 1446.38 L771.701 1446.31 L777.18 1446.23 L782.984 1446.16 L789.024 1446.09 L795.192 1446.02 L801.363 1445.95 L807.396 1445.87 L813.144 1445.8 L818.453 1445.73 L823.175 1445.66 L827.173 1445.58 L830.325 1445.51 L832.532 1445.44 L833.724 1445.37 L638.045 1445.37 L639.237 1445.44 L641.444 1445.51 L644.596 1445.58 L648.594 1445.66 L653.316 1445.73 L658.626 1445.8 L664.373 1445.87 L670.406 1445.95 L676.577 1446.02 L682.745 1446.09 L688.785 1446.16 L694.589 1446.23 L700.068 1446.31 L705.155 1446.38 L709.803 1446.45 L713.987 1446.52 L717.698 1446.6 L720.943 1446.67 L723.742 1446.74 L726.122 1446.81 L728.121 1446.89 L729.777 1446.96 L731.131 1447.03 L732.225 1447.1 L733.098 1447.17 L733.785 1447.25 L734.32 1447.32 L734.731 1447.39 L735.044 1447.46 L735.278 1447.54 L735.452 1447.61 L735.579 1447.68 L735.671 1447.75 L735.737 1447.82 L735.784 1447.9 L735.816 1447.97 L735.839 1448.04 L735.854 1448.11 L735.865 1448.19 L735.872 1448.26 L735.876 1448.33 L735.879 1448.4 L735.881 1448.48 L735.882 1448.55 L735.883 1448.62 L735.884 1448.69 L735.884 1448.76 L735.884 1448.84 L735.884 1448.91 L735.884 1448.98 L735.883 1449.05 L735.882 1449.13 L735.881 1449.2 L735.879 1449.27 L735.876 1449.34 L735.872 1449.41 L735.865 1449.49 L735.854 1449.56 L735.838 1449.63 L735.815 1449.7 L735.782 1449.78 L735.735 1449.85 L735.668 1449.92 L735.575 1449.99 L735.446 1450.06 L735.271 1450.14 L735.034 1450.21 L734.718 1450.28 L734.302 1450.35 L733.762 1450.43 L733.067 1450.5 L732.186 1450.57 L731.08 1450.64 L729.71 1450.72 L728.034 1450.79 L726.01 1450.86 L723.597 1450.93 L720.754 1451 L717.451 1451.08 L713.661 1451.15 L709.372 1451.22 L704.58 1451.29 L699.299 1451.37 L693.559 1451.44 L687.402 1451.51 L680.89 1451.58 L674.093 1451.65 L667.093 1451.73 L659.976 1451.8 L652.826 1451.87 L645.721 1451.94 L638.724 1452.02 L631.879 1452.09 L625.206 1452.16 L618.693 1452.23 L612.303 1452.3 L605.965 1452.38 L599.586 1452.45 L593.05 1452.52 L586.233 1452.59 L579.01 1452.67 L571.267 1452.74 L562.914 1452.81 L553.9 1452.88 L544.216 1452.96 L533.913 1453.03 L523.098 1453.1 L511.94 1453.17 L500.665 1453.24 L489.551 1453.32 L478.912 1453.39 L469.088 1453.46 L460.428 1453.53 L453.269 1453.61 L447.918 1453.68 L444.641 1453.75 L443.639 1453.82 L445.046 1453.89 L448.915 1453.97 L455.22 1454.04 L463.852 1454.11 L1007.92 1454.11  Z" fill="#009af9" fill-rule="evenodd" fill-opacity="1"/>
<polyline clip-path="url(#clip031)" style="stroke:#000000; stroke-linecap:round; stroke-linejoin:round; stroke-width:4; stroke-opacity:1; fill:none" points="1007.92,1454.11 1016.55,1454.04 1022.85,1453.97 1026.72,1453.89 1028.13,1453.82 1027.13,1453.75 1023.85,1453.68 1018.5,1453.61 1011.34,1453.53 1002.68,1453.46 992.857,1453.39 982.218,1453.32 971.104,1453.24 959.829,1453.17 948.671,1453.1 937.856,1453.03 927.553,1452.96 917.869,1452.88 908.855,1452.81 900.502,1452.74 892.759,1452.67 885.536,1452.59 878.719,1452.52 872.183,1452.45 865.804,1452.38 859.466,1452.3 853.076,1452.23 846.564,1452.16 839.89,1452.09 833.045,1452.02 826.048,1451.94 818.943,1451.87 811.793,1451.8 804.676,1451.73 797.676,1451.65 790.88,1451.58 784.367,1451.51 778.21,1451.44 772.47,1451.37 767.189,1451.29 762.397,1451.22 758.108,1451.15 754.318,1451.08 751.015,1451 748.172,1450.93 745.759,1450.86 743.735,1450.79 742.059,1450.72 740.689,1450.64 739.584,1450.57 738.702,1450.5 738.007,1450.43 737.467,1450.35 737.051,1450.28 736.735,1450.21 736.498,1450.14 736.323,1450.06 736.194,1449.99 736.101,1449.92 736.034,1449.85 735.987,1449.78 735.954,1449.7 735.931,1449.63 735.915,1449.56 735.905,1449.49 735.897,1449.41 735.893,1449.34 735.89,1449.27 735.888,1449.2 735.887,1449.13 735.886,1449.05 735.885,1448.98 735.885,1448.91 735.885,1448.84 735.885,1448.76 735.885,1448.69 735.886,1448.62 735.887,1448.55 735.888,1448.48 735.89,1448.4 735.893,1448.33 735.897,1448.26 735.904,1448.19 735.915,1448.11 735.93,1448.04 735.953,1447.97 735.985,1447.9 736.032,1447.82 736.098,1447.75 736.19,1447.68 736.317,1447.61 736.491,1447.54 736.726,1447.46 737.038,1447.39 737.449,1447.32 737.984,1447.25 738.671,1447.17 739.544,1447.1 740.638,1447.03 741.992,1446.96 743.648,1446.89 745.647,1446.81 748.027,1446.74 750.826,1446.67 754.071,1446.6 757.782,1446.52 761.966,1446.45 766.614,1446.38 771.701,1446.31 777.18,1446.23 782.984,1446.16 789.024,1446.09 795.192,1446.02 801.363,1445.95 807.396,1445.87 813.144,1445.8 818.453,1445.73 823.175,1445.66 827.173,1445.58 830.325,1445.51 832.532,1445.44 833.724,1445.37 638.045,1445.37 639.237,1445.44 641.444,1445.51 644.596,1445.58 648.594,1445.66 653.316,1445.73 658.626,1445.8 664.373,1445.87 670.406,1445.95 676.577,1446.02 682.745,1446.09 688.785,1446.16 694.589,1446.23 700.068,1446.31 705.155,1446.38 709.803,1446.45 713.987,1446.52 717.698,1446.6 720.943,1446.67 723.742,1446.74 726.122,1446.81 728.121,1446.89 729.777,1446.96 731.131,1447.03 732.225,1447.1 733.098,1447.17 733.785,1447.25 734.32,1447.32 734.731,1447.39 735.044,1447.46 735.278,1447.54 735.452,1447.61 735.579,1447.68 735.671,1447.75 735.737,1447.82 735.784,1447.9 735.816,1447.97 735.839,1448.04 735.854,1448.11 735.865,1448.19 735.872,1448.26 735.876,1448.33 735.879,1448.4 735.881,1448.48 735.882,1448.55 735.883,1448.62 735.884,1448.69 735.884,1448.76 735.884,1448.84 735.884,1448.91 735.884,1448.98 735.883,1449.05 735.882,1449.13 735.881,1449.2 735.879,1449.27 735.876,1449.34 735.872,1449.41 735.865,1449.49 735.854,1449.56 735.838,1449.63 735.815,1449.7 735.782,1449.78 735.735,1449.85 735.668,1449.92 735.575,1449.99 735.446,1450.06 735.271,1450.14 735.034,1450.21 734.718,1450.28 734.302,1450.35 733.762,1450.43 733.067,1450.5 732.186,1450.57 731.08,1450.64 729.71,1450.72 728.034,1450.79 726.01,1450.86 723.597,1450.93 720.754,1451 717.451,1451.08 713.661,1451.15 709.372,1451.22 704.58,1451.29 699.299,1451.37 693.559,1451.44 687.402,1451.51 680.89,1451.58 674.093,1451.65 667.093,1451.73 659.976,1451.8 652.826,1451.87 645.721,1451.94 638.724,1452.02 631.879,1452.09 625.206,1452.16 618.693,1452.23 612.303,1452.3 605.965,1452.38 599.586,1452.45 593.05,1452.52 586.233,1452.59 579.01,1452.67 571.267,1452.74 562.914,1452.81 553.9,1452.88 544.216,1452.96 533.913,1453.03 523.098,1453.1 511.94,1453.17 500.665,1453.24 489.551,1453.32 478.912,1453.39 469.088,1453.46 460.428,1453.53 453.269,1453.61 447.918,1453.68 444.641,1453.75 443.639,1453.82 445.046,1453.89 448.915,1453.97 455.22,1454.04 463.852,1454.11 1007.92,1454.11 "/>
<path clip-path="url(#clip031)" d="M1874.01 382.418 L1874.72 382.159 L1875.11 381.901 L1875.23 381.642 L1875.09 381.384 L1874.73 381.126 L1874.2 380.867 L1873.54 380.609 L1872.8 380.35 L1872.02 380.092 L1871.27 379.834 L1870.6 379.575 L1870.05 379.317 L1869.68 379.058 L1869.55 378.8 L1869.68 378.542 L1870.14 378.283 L1870.95 378.025 L1872.14 377.766 L1873.74 377.508 L1875.76 377.25 L1878.22 376.991 L1881.12 376.733 L1884.46 376.474 L1888.22 376.216 L1892.39 375.958 L1896.94 375.699 L1901.85 375.441 L1907.09 375.182 L1912.61 374.924 L1918.38 374.665 L1924.35 374.407 L1930.48 374.149 L1936.72 373.89 L1943.03 373.632 L1949.36 373.373 L1955.68 373.115 L1961.94 372.857 L1968.11 372.598 L1974.15 372.34 L1980.04 372.081 L1985.74 371.823 L1991.25 371.565 L1996.55 371.306 L2001.62 371.048 L2006.45 370.789 L2011.05 370.531 L2015.4 370.273 L2019.51 370.014 L2023.38 369.756 L2027.01 369.497 L2030.41 369.239 L2033.57 368.981 L2036.49 368.722 L2039.18 368.464 L2041.63 368.205 L2043.82 367.947 L2045.76 367.689 L2047.43 367.43 L2048.81 367.172 L2049.88 366.913 L2050.61 366.655 L2050.99 366.396 L2050.98 366.138 L2050.56 365.88 L2049.7 365.621 L2048.38 365.363 L2046.55 365.104 L2044.21 364.846 L2041.34 364.588 L2037.9 364.329 L2033.9 364.071 L2029.33 363.812 L2024.19 363.554 L2018.49 363.296 L2012.24 363.037 L1505.25 363.037 L1499 363.296 L1493.29 363.554 L1488.15 363.812 L1483.59 364.071 L1479.59 364.329 L1476.15 364.588 L1473.27 364.846 L1470.93 365.104 L1469.11 365.363 L1467.78 365.621 L1466.92 365.88 L1466.5 366.138 L1466.5 366.396 L1466.88 366.655 L1467.61 366.913 L1468.68 367.172 L1470.06 367.43 L1471.72 367.689 L1473.66 367.947 L1475.86 368.205 L1478.31 368.464 L1481 368.722 L1483.92 368.981 L1487.08 369.239 L1490.48 369.497 L1494.11 369.756 L1497.98 370.014 L1502.09 370.273 L1506.44 370.531 L1511.04 370.789 L1515.87 371.048 L1520.94 371.306 L1526.23 371.565 L1531.74 371.823 L1537.45 372.081 L1543.34 372.34 L1549.38 372.598 L1555.55 372.857 L1561.81 373.115 L1568.12 373.373 L1574.46 373.632 L1580.77 373.89 L1587.01 374.149 L1593.14 374.407 L1599.11 374.665 L1604.88 374.924 L1610.4 375.182 L1615.63 375.441 L1620.55 375.699 L1625.1 375.958 L1629.27 376.216 L1633.03 376.474 L1636.37 376.733 L1639.27 376.991 L1641.73 377.25 L1643.75 377.508 L1645.35 377.766 L1646.54 378.025 L1647.35 378.283 L1647.8 378.542 L1647.94 378.8 L1647.81 379.058 L1647.44 379.317 L1646.89 379.575 L1646.22 379.834 L1645.47 380.092 L1644.69 380.35 L1643.95 380.609 L1643.29 380.867 L1642.75 381.126 L1642.4 381.384 L1642.26 381.642 L1642.37 381.901 L1642.77 382.159 L1643.48 382.418 L1874.01 382.418  Z" fill="#e26f46" fill-rule="evenodd" fill-opacity="1"/>
<polyline clip-path="url(#clip031)" style="stroke:#000000; stroke-linecap:round; stroke-linejoin:round; stroke-width:4; stroke-opacity:1; fill:none" points="1874.01,382.418 1874.72,382.159 1875.11,381.901 1875.23,381.642 1875.09,381.384 1874.73,381.126 1874.2,380.867 1873.54,380.609 1872.8,380.35 1872.02,380.092 1871.27,379.834 1870.6,379.575 1870.05,379.317 1869.68,379.058 1869.55,378.8 1869.68,378.542 1870.14,378.283 1870.95,378.025 1872.14,377.766 1873.74,377.508 1875.76,377.25 1878.22,376.991 1881.12,376.733 1884.46,376.474 1888.22,376.216 1892.39,375.958 1896.94,375.699 1901.85,375.441 1907.09,375.182 1912.61,374.924 1918.38,374.665 1924.35,374.407 1930.48,374.149 1936.72,373.89 1943.03,373.632 1949.36,373.373 1955.68,373.115 1961.94,372.857 1968.11,372.598 1974.15,372.34 1980.04,372.081 1985.74,371.823 1991.25,371.565 1996.55,371.306 2001.62,371.048 2006.45,370.789 2011.05,370.531 2015.4,370.273 2019.51,370.014 2023.38,369.756 2027.01,369.497 2030.41,369.239 2033.57,368.981 2036.49,368.722 2039.18,368.464 2041.63,368.205 2043.82,367.947 2045.76,367.689 2047.43,367.43 2048.81,367.172 2049.88,366.913 2050.61,366.655 2050.99,366.396 2050.98,366.138 2050.56,365.88 2049.7,365.621 2048.38,365.363 2046.55,365.104 2044.21,364.846 2041.34,364.588 2037.9,364.329 2033.9,364.071 2029.33,363.812 2024.19,363.554 2018.49,363.296 2012.24,363.037 1505.25,363.037 1499,363.296 1493.29,363.554 1488.15,363.812 1483.59,364.071 1479.59,364.329 1476.15,364.588 1473.27,364.846 1470.93,365.104 1469.11,365.363 1467.78,365.621 1466.92,365.88 1466.5,366.138 1466.5,366.396 1466.88,366.655 1467.61,366.913 1468.68,367.172 1470.06,367.43 1471.72,367.689 1473.66,367.947 1475.86,368.205 1478.31,368.464 1481,368.722 1483.92,368.981 1487.08,369.239 1490.48,369.497 1494.11,369.756 1497.98,370.014 1502.09,370.273 1506.44,370.531 1511.04,370.789 1515.87,371.048 1520.94,371.306 1526.23,371.565 1531.74,371.823 1537.45,372.081 1543.34,372.34 1549.38,372.598 1555.55,372.857 1561.81,373.115 1568.12,373.373 1574.46,373.632 1580.77,373.89 1587.01,374.149 1593.14,374.407 1599.11,374.665 1604.88,374.924 1610.4,375.182 1615.63,375.441 1620.55,375.699 1625.1,375.958 1629.27,376.216 1633.03,376.474 1636.37,376.733 1639.27,376.991 1641.73,377.25 1643.75,377.508 1645.35,377.766 1646.54,378.025 1647.35,378.283 1647.8,378.542 1647.94,378.8 1647.81,379.058 1647.44,379.317 1646.89,379.575 1646.22,379.834 1645.47,380.092 1644.69,380.35 1643.95,380.609 1643.29,380.867 1642.75,381.126 1642.4,381.384 1642.26,381.642 1642.37,381.901 1642.77,382.159 1643.48,382.418 1874.01,382.418 "/>
<path clip-path="url(#clip031)" d="M2929.06 133.129 L2930.95 132.561 L2932.57 131.993 L2933.97 131.424 L2935.18 130.856 L2936.26 130.287 L2937.27 129.719 L2938.25 129.15 L2939.26 128.582 L2940.37 128.013 L2941.62 127.445 L2943.08 126.876 L2944.77 126.308 L2946.76 125.739 L2949.06 125.171 L2951.72 124.603 L2954.73 124.034 L2958.13 123.466 L2961.9 122.897 L2966.04 122.329 L2970.53 121.76 L2975.35 121.192 L2980.46 120.623 L2985.82 120.055 L2991.39 119.486 L2997.12 118.918 L3002.95 118.349 L3008.83 117.781 L3014.7 117.212 L3020.51 116.644 L3026.21 116.076 L3031.73 115.507 L3037.03 114.939 L3042.08 114.37 L3046.82 113.802 L3051.23 113.233 L3055.27 112.665 L3058.93 112.096 L3062.19 111.528 L3065.05 110.959 L3067.49 110.391 L3069.51 109.822 L3071.14 109.254 L3072.36 108.686 L3073.21 108.117 L3073.7 107.549 L3073.85 106.98 L3073.68 106.412 L3073.21 105.843 L3072.47 105.275 L3071.49 104.706 L3070.28 104.138 L3068.87 103.569 L3067.28 103.001 L3065.53 102.432 L3063.64 101.864 L3061.63 101.295 L3059.49 100.727 L3057.26 100.159 L3054.93 99.5901 L3052.5 99.0216 L3049.99 98.4532 L3047.38 97.8847 L3044.68 97.3162 L3041.88 96.7478 L3038.97 96.1793 L3035.94 95.6108 L3032.79 95.0424 L3029.48 94.4739 L3026.02 93.9054 L3022.38 93.337 L3018.55 92.7685 L3014.52 92.2001 L3010.27 91.6316 L3005.79 91.0631 L3001.06 90.4947 L2996.09 89.9262 L2990.85 89.3577 L2985.36 88.7893 L2979.61 88.2208 L2583.6 88.2208 L2577.85 88.7893 L2572.35 89.3577 L2567.12 89.9262 L2562.14 90.4947 L2557.42 91.0631 L2552.94 91.6316 L2548.69 92.2001 L2544.65 92.7685 L2540.83 93.337 L2537.19 93.9054 L2533.73 94.4739 L2530.42 95.0424 L2527.26 95.6108 L2524.23 96.1793 L2521.33 96.7478 L2518.53 97.3162 L2515.83 97.8847 L2513.22 98.4532 L2510.71 99.0216 L2508.28 99.5901 L2505.95 100.159 L2503.71 100.727 L2501.58 101.295 L2499.57 101.864 L2497.68 102.432 L2495.93 103.001 L2494.34 103.569 L2492.93 104.138 L2491.72 104.706 L2490.74 105.275 L2490 105.843 L2489.53 106.412 L2489.36 106.98 L2489.51 107.549 L2489.99 108.117 L2490.84 108.686 L2492.07 109.254 L2493.69 109.822 L2495.72 110.391 L2498.16 110.959 L2501.01 111.528 L2504.28 112.096 L2507.94 112.665 L2511.98 113.233 L2516.39 113.802 L2521.13 114.37 L2526.17 114.939 L2531.48 115.507 L2537 116.076 L2542.69 116.644 L2548.5 117.212 L2554.38 117.781 L2560.26 118.349 L2566.09 118.918 L2571.82 119.486 L2577.39 120.055 L2582.75 120.623 L2587.86 121.192 L2592.67 121.76 L2597.17 122.329 L2601.31 122.897 L2605.08 123.466 L2608.47 124.034 L2611.49 124.603 L2614.15 125.171 L2616.45 125.739 L2618.44 126.308 L2620.13 126.876 L2621.58 127.445 L2622.84 128.013 L2623.95 128.582 L2624.96 129.15 L2625.94 129.719 L2626.95 130.287 L2628.03 130.856 L2629.24 131.424 L2630.64 131.993 L2632.26 132.561 L2634.15 133.129 L2929.06 133.129  Z" fill="#3da44d" fill-rule="evenodd" fill-opacity="1"/>
<polyline clip-path="url(#clip031)" style="stroke:#000000; stroke-linecap:round; stroke-linejoin:round; stroke-width:4; stroke-opacity:1; fill:none" points="2929.06,133.129 2930.95,132.561 2932.57,131.993 2933.97,131.424 2935.18,130.856 2936.26,130.287 2937.27,129.719 2938.25,129.15 2939.26,128.582 2940.37,128.013 2941.62,127.445 2943.08,126.876 2944.77,126.308 2946.76,125.739 2949.06,125.171 2951.72,124.603 2954.73,124.034 2958.13,123.466 2961.9,122.897 2966.04,122.329 2970.53,121.76 2975.35,121.192 2980.46,120.623 2985.82,120.055 2991.39,119.486 2997.12,118.918 3002.95,118.349 3008.83,117.781 3014.7,117.212 3020.51,116.644 3026.21,116.076 3031.73,115.507 3037.03,114.939 3042.08,114.37 3046.82,113.802 3051.23,113.233 3055.27,112.665 3058.93,112.096 3062.19,111.528 3065.05,110.959 3067.49,110.391 3069.51,109.822 3071.14,109.254 3072.36,108.686 3073.21,108.117 3073.7,107.549 3073.85,106.98 3073.68,106.412 3073.21,105.843 3072.47,105.275 3071.49,104.706 3070.28,104.138 3068.87,103.569 3067.28,103.001 3065.53,102.432 3063.64,101.864 3061.63,101.295 3059.49,100.727 3057.26,100.159 3054.93,99.5901 3052.5,99.0216 3049.99,98.4532 3047.38,97.8847 3044.68,97.3162 3041.88,96.7478 3038.97,96.1793 3035.94,95.6108 3032.79,95.0424 3029.48,94.4739 3026.02,93.9054 3022.38,93.337 3018.55,92.7685 3014.52,92.2001 3010.27,91.6316 3005.79,91.0631 3001.06,90.4947 2996.09,89.9262 2990.85,89.3577 2985.36,88.7893 2979.61,88.2208 2583.6,88.2208 2577.85,88.7893 2572.35,89.3577 2567.12,89.9262 2562.14,90.4947 2557.42,91.0631 2552.94,91.6316 2548.69,92.2001 2544.65,92.7685 2540.83,93.337 2537.19,93.9054 2533.73,94.4739 2530.42,95.0424 2527.26,95.6108 2524.23,96.1793 2521.33,96.7478 2518.53,97.3162 2515.83,97.8847 2513.22,98.4532 2510.71,99.0216 2508.28,99.5901 2505.95,100.159 2503.71,100.727 2501.58,101.295 2499.57,101.864 2497.68,102.432 2495.93,103.001 2494.34,103.569 2492.93,104.138 2491.72,104.706 2490.74,105.275 2490,105.843 2489.53,106.412 2489.36,106.98 2489.51,107.549 2489.99,108.117 2490.84,108.686 2492.07,109.254 2493.69,109.822 2495.72,110.391 2498.16,110.959 2501.01,111.528 2504.28,112.096 2507.94,112.665 2511.98,113.233 2516.39,113.802 2521.13,114.37 2526.17,114.939 2531.48,115.507 2537,116.076 2542.69,116.644 2548.5,117.212 2554.38,117.781 2560.26,118.349 2566.09,118.918 2571.82,119.486 2577.39,120.055 2582.75,120.623 2587.86,121.192 2592.67,121.76 2597.17,122.329 2601.31,122.897 2605.08,123.466 2608.47,124.034 2611.49,124.603 2614.15,125.171 2616.45,125.739 2618.44,126.308 2620.13,126.876 2621.58,127.445 2622.84,128.013 2623.95,128.582 2624.96,129.15 2625.94,129.719 2626.95,130.287 2628.03,130.856 2629.24,131.424 2630.64,131.993 2632.26,132.561 2634.15,133.129 2929.06,133.129 "/>
</svg>
