<?xml version="1.0" encoding="utf-8"?>
<svg xmlns="http://www.w3.org/2000/svg" xmlns:xlink="http://www.w3.org/1999/xlink" width="800" height="400" viewBox="0 0 3200 1600">
<defs>
  <clipPath id="clip840">
    <rect x="0" y="0" width="3200" height="1600"/>
  </clipPath>
</defs>
<path clip-path="url(#clip840)" d="M0 1600 L3200 1600 L3200 0 L0 0  Z" fill="#ffffff" fill-rule="evenodd" fill-opacity="1"/>
<defs>
  <clipPath id="clip841">
    <rect x="364" y="47" width="2789" height="1449"/>
  </clipPath>
</defs>
<path clip-path="url(#clip840)" d="M364.733 1495.09 L3152.76 1495.09 L3152.76 47.2441 L364.733 47.2441  Z" fill="#ffffff" fill-rule="evenodd" fill-opacity="1"/>
<polyline clip-path="url(#clip841)" style="stroke:#000000; stroke-linecap:round; stroke-linejoin:round; stroke-width:2; stroke-opacity:0.1; fill:none" points="735.885,1495.09 735.885,47.2441 "/>
<polyline clip-path="url(#clip841)" style="stroke:#000000; stroke-linecap:round; stroke-linejoin:round; stroke-width:2; stroke-opacity:0.1; fill:none" points="1758.74,1495.09 1758.74,47.2441 "/>
<polyline clip-path="url(#clip841)" style="stroke:#000000; stroke-linecap:round; stroke-linejoin:round; stroke-width:2; stroke-opacity:0.1; fill:none" points="2781.6,1495.09 2781.6,47.2441 "/>
<polyline clip-path="url(#clip841)" style="stroke:#000000; stroke-linecap:round; stroke-linejoin:round; stroke-width:2; stroke-opacity:0.1; fill:none" points="364.733,1386.82 3152.76,1386.82 "/>
<polyline clip-path="url(#clip841)" style="stroke:#000000; stroke-linecap:round; stroke-linejoin:round; stroke-width:2; stroke-opacity:0.1; fill:none" points="364.733,1138.5 3152.76,1138.5 "/>
<polyline clip-path="url(#clip841)" style="stroke:#000000; stroke-linecap:round; stroke-linejoin:round; stroke-width:2; stroke-opacity:0.1; fill:none" points="364.733,890.184 3152.76,890.184 "/>
<polyline clip-path="url(#clip841)" style="stroke:#000000; stroke-linecap:round; stroke-linejoin:round; stroke-width:2; stroke-opacity:0.1; fill:none" points="364.733,641.865 3152.76,641.865 "/>
<polyline clip-path="url(#clip841)" style="stroke:#000000; stroke-linecap:round; stroke-linejoin:round; stroke-width:2; stroke-opacity:0.1; fill:none" points="364.733,393.546 3152.76,393.546 "/>
<polyline clip-path="url(#clip841)" style="stroke:#000000; stroke-linecap:round; stroke-linejoin:round; stroke-width:2; stroke-opacity:0.1; fill:none" points="364.733,145.227 3152.76,145.227 "/>
<polyline clip-path="url(#clip840)" style="stroke:#000000; stroke-linecap:round; stroke-linejoin:round; stroke-width:4; stroke-opacity:1; fill:none" points="364.733,1495.09 3152.76,1495.09 "/>
<polyline clip-path="url(#clip840)" style="stroke:#000000; stroke-linecap:round; stroke-linejoin:round; stroke-width:4; stroke-opacity:1; fill:none" points="735.885,1495.09 735.885,1476.19 "/>
<polyline clip-path="url(#clip840)" style="stroke:#000000; stroke-linecap:round; stroke-linejoin:round; stroke-width:4; stroke-opacity:1; fill:none" points="1758.74,1495.09 1758.74,1476.19 "/>
<polyline clip-path="url(#clip840)" style="stroke:#000000; stroke-linecap:round; stroke-linejoin:round; stroke-width:4; stroke-opacity:1; fill:none" points="2781.6,1495.09 2781.6,1476.19 "/>
<path clip-path="url(#clip840)" d="M651.846 1538.73 L651.846 1542.75 Q650.04 1541.83 648.096 1541.36 Q646.151 1540.9 644.068 1540.9 Q640.897 1540.9 639.299 1541.87 Q637.725 1542.85 637.725 1544.79 Q637.725 1546.27 638.86 1547.13 Q639.994 1547.96 643.42 1548.73 L644.878 1549.05 Q649.415 1550.02 651.313 1551.8 Q653.235 1553.56 653.235 1556.74 Q653.235 1560.35 650.364 1562.45 Q647.517 1564.56 642.517 1564.56 Q640.434 1564.56 638.165 1564.14 Q635.92 1563.75 633.42 1562.94 L633.42 1558.54 Q635.781 1559.77 638.073 1560.39 Q640.364 1560.99 642.61 1560.99 Q645.619 1560.99 647.239 1559.98 Q648.86 1558.93 648.86 1557.06 Q648.86 1555.32 647.679 1554.4 Q646.522 1553.47 642.563 1552.61 L641.082 1552.27 Q637.123 1551.43 635.364 1549.72 Q633.605 1547.99 633.605 1544.98 Q633.605 1541.32 636.198 1539.33 Q638.79 1537.34 643.559 1537.34 Q645.92 1537.34 648.003 1537.68 Q650.086 1538.03 651.846 1538.73 Z" fill="#000000" fill-rule="nonzero" fill-opacity="1" /><path clip-path="url(#clip840)" d="M670.804 1566.3 Q668.998 1570.92 667.285 1572.34 Q665.572 1573.75 662.702 1573.75 L659.299 1573.75 L659.299 1570.18 L661.799 1570.18 Q663.559 1570.18 664.531 1569.35 Q665.503 1568.52 666.684 1565.42 L667.447 1563.47 L656.961 1537.96 L661.475 1537.96 L669.577 1558.24 L677.679 1537.96 L682.193 1537.96 L670.804 1566.3 Z" fill="#000000" fill-rule="nonzero" fill-opacity="1" /><path clip-path="url(#clip840)" d="M708.257 1542.94 Q709.855 1540.07 712.077 1538.7 Q714.299 1537.34 717.308 1537.34 Q721.359 1537.34 723.558 1540.18 Q725.757 1543.01 725.757 1548.24 L725.757 1563.89 L721.475 1563.89 L721.475 1548.38 Q721.475 1544.65 720.155 1542.85 Q718.836 1541.04 716.128 1541.04 Q712.818 1541.04 710.896 1543.24 Q708.975 1545.44 708.975 1549.24 L708.975 1563.89 L704.693 1563.89 L704.693 1548.38 Q704.693 1544.63 703.373 1542.85 Q702.054 1541.04 699.299 1541.04 Q696.035 1541.04 694.114 1543.26 Q692.193 1545.46 692.193 1549.24 L692.193 1563.89 L687.91 1563.89 L687.91 1537.96 L692.193 1537.96 L692.193 1541.99 Q693.651 1539.61 695.688 1538.47 Q697.725 1537.34 700.526 1537.34 Q703.35 1537.34 705.318 1538.77 Q707.308 1540.21 708.257 1542.94 Z" fill="#000000" fill-rule="nonzero" fill-opacity="1" /><path clip-path="url(#clip840)" d="M752.864 1550.95 Q752.864 1546.25 750.919 1543.59 Q748.998 1540.9 745.618 1540.9 Q742.239 1540.9 740.294 1543.59 Q738.373 1546.25 738.373 1550.95 Q738.373 1555.65 740.294 1558.33 Q742.239 1560.99 745.618 1560.99 Q748.998 1560.99 750.919 1558.33 Q752.864 1555.65 752.864 1550.95 M738.373 1541.9 Q739.716 1539.58 741.753 1538.47 Q743.813 1537.34 746.66 1537.34 Q751.382 1537.34 754.322 1541.09 Q757.285 1544.84 757.285 1550.95 Q757.285 1557.06 754.322 1560.81 Q751.382 1564.56 746.66 1564.56 Q743.813 1564.56 741.753 1563.45 Q739.716 1562.31 738.373 1560 L738.373 1563.89 L734.091 1563.89 L734.091 1527.87 L738.373 1527.87 L738.373 1541.9 Z" fill="#000000" fill-rule="nonzero" fill-opacity="1" /><path clip-path="url(#clip840)" d="M774.391 1540.95 Q770.965 1540.95 768.975 1543.63 Q766.984 1546.3 766.984 1550.95 Q766.984 1555.6 768.951 1558.29 Q770.942 1560.95 774.391 1560.95 Q777.794 1560.95 779.785 1558.26 Q781.775 1555.58 781.775 1550.95 Q781.775 1546.34 779.785 1543.66 Q777.794 1540.95 774.391 1540.95 M774.391 1537.34 Q779.947 1537.34 783.118 1540.95 Q786.289 1544.56 786.289 1550.95 Q786.289 1557.31 783.118 1560.95 Q779.947 1564.56 774.391 1564.56 Q768.813 1564.56 765.641 1560.95 Q762.493 1557.31 762.493 1550.95 Q762.493 1544.56 765.641 1540.95 Q768.813 1537.34 774.391 1537.34 Z" fill="#000000" fill-rule="nonzero" fill-opacity="1" /><path clip-path="url(#clip840)" d="M793.349 1527.87 L797.609 1527.87 L797.609 1563.89 L793.349 1563.89 L793.349 1527.87 Z" fill="#000000" fill-rule="nonzero" fill-opacity="1" /><path clip-path="url(#clip840)" d="M806.521 1537.96 L810.78 1537.96 L810.78 1563.89 L806.521 1563.89 L806.521 1537.96 M806.521 1527.87 L810.78 1527.87 L810.78 1533.26 L806.521 1533.26 L806.521 1527.87 Z" fill="#000000" fill-rule="nonzero" fill-opacity="1" /><path clip-path="url(#clip840)" d="M838.349 1538.96 L838.349 1542.94 Q836.544 1541.94 834.715 1541.46 Q832.909 1540.95 831.058 1540.95 Q826.914 1540.95 824.622 1543.59 Q822.331 1546.2 822.331 1550.95 Q822.331 1555.69 824.622 1558.33 Q826.914 1560.95 831.058 1560.95 Q832.909 1560.95 834.715 1560.46 Q836.544 1559.95 838.349 1558.96 L838.349 1562.89 Q836.567 1563.73 834.646 1564.14 Q832.747 1564.56 830.595 1564.56 Q824.738 1564.56 821.289 1560.88 Q817.84 1557.2 817.84 1550.95 Q817.84 1544.61 821.312 1540.97 Q824.808 1537.34 830.872 1537.34 Q832.84 1537.34 834.715 1537.75 Q836.59 1538.15 838.349 1538.96 Z" fill="#000000" fill-rule="nonzero" fill-opacity="1" /><path clip-path="url(#clip840)" d="M1669.07 1527.87 L1669.07 1531.41 L1664.99 1531.41 Q1662.7 1531.41 1661.8 1532.34 Q1660.92 1533.26 1660.92 1535.67 L1660.92 1537.96 L1667.93 1537.96 L1667.93 1541.27 L1660.92 1541.27 L1660.92 1563.89 L1656.64 1563.89 L1656.64 1541.27 L1652.56 1541.27 L1652.56 1537.96 L1656.64 1537.96 L1656.64 1536.16 Q1656.64 1531.83 1658.65 1529.86 Q1660.67 1527.87 1665.04 1527.87 L1669.07 1527.87 Z" fill="#000000" fill-rule="nonzero" fill-opacity="1" /><path clip-path="url(#clip840)" d="M1672.63 1537.96 L1676.89 1537.96 L1676.89 1563.89 L1672.63 1563.89 L1672.63 1537.96 M1672.63 1527.87 L1676.89 1527.87 L1676.89 1533.26 L1672.63 1533.26 L1672.63 1527.87 Z" fill="#000000" fill-rule="nonzero" fill-opacity="1" /><path clip-path="url(#clip840)" d="M1707.36 1548.24 L1707.36 1563.89 L1703.1 1563.89 L1703.1 1548.38 Q1703.1 1544.7 1701.66 1542.87 Q1700.23 1541.04 1697.36 1541.04 Q1693.91 1541.04 1691.92 1543.24 Q1689.93 1545.44 1689.93 1549.24 L1689.93 1563.89 L1685.64 1563.89 L1685.64 1537.96 L1689.93 1537.96 L1689.93 1541.99 Q1691.45 1539.65 1693.51 1538.49 Q1695.6 1537.34 1698.3 1537.34 Q1702.77 1537.34 1705.06 1540.11 Q1707.36 1542.87 1707.36 1548.24 Z" fill="#000000" fill-rule="nonzero" fill-opacity="1" /><path clip-path="url(#clip840)" d="M1715.85 1537.96 L1720.11 1537.96 L1720.11 1563.89 L1715.85 1563.89 L1715.85 1537.96 M1715.85 1527.87 L1720.11 1527.87 L1720.11 1533.26 L1715.85 1533.26 L1715.85 1527.87 Z" fill="#000000" fill-rule="nonzero" fill-opacity="1" /><path clip-path="url(#clip840)" d="M1733.24 1530.6 L1733.24 1537.96 L1742.01 1537.96 L1742.01 1541.27 L1733.24 1541.27 L1733.24 1555.35 Q1733.24 1558.52 1734.09 1559.42 Q1734.97 1560.32 1737.63 1560.32 L1742.01 1560.32 L1742.01 1563.89 L1737.63 1563.89 Q1732.7 1563.89 1730.83 1562.06 Q1728.95 1560.21 1728.95 1555.35 L1728.95 1541.27 L1725.83 1541.27 L1725.83 1537.96 L1728.95 1537.96 L1728.95 1530.6 L1733.24 1530.6 Z" fill="#000000" fill-rule="nonzero" fill-opacity="1" /><path clip-path="url(#clip840)" d="M1769.79 1549.86 L1769.79 1551.94 L1750.2 1551.94 Q1750.48 1556.34 1752.84 1558.66 Q1755.23 1560.95 1759.46 1560.95 Q1761.92 1560.95 1764.21 1560.35 Q1766.52 1559.74 1768.79 1558.54 L1768.79 1562.57 Q1766.5 1563.54 1764.09 1564.05 Q1761.68 1564.56 1759.21 1564.56 Q1753 1564.56 1749.37 1560.95 Q1745.76 1557.34 1745.76 1551.18 Q1745.76 1544.81 1749.18 1541.09 Q1752.63 1537.34 1758.47 1537.34 Q1763.7 1537.34 1766.73 1540.72 Q1769.79 1544.07 1769.79 1549.86 M1765.53 1548.61 Q1765.48 1545.11 1763.56 1543.03 Q1761.66 1540.95 1758.51 1540.95 Q1754.95 1540.95 1752.8 1542.96 Q1750.67 1544.98 1750.34 1548.63 L1765.53 1548.61 Z" fill="#000000" fill-rule="nonzero" fill-opacity="1" /><path clip-path="url(#clip840)" d="M1808.91 1541.9 L1808.91 1527.87 L1813.17 1527.87 L1813.17 1563.89 L1808.91 1563.89 L1808.91 1560 Q1807.56 1562.31 1805.5 1563.45 Q1803.47 1564.56 1800.6 1564.56 Q1795.9 1564.56 1792.93 1560.81 Q1789.99 1557.06 1789.99 1550.95 Q1789.99 1544.84 1792.93 1541.09 Q1795.9 1537.34 1800.6 1537.34 Q1803.47 1537.34 1805.5 1538.47 Q1807.56 1539.58 1808.91 1541.9 M1794.39 1550.95 Q1794.39 1555.65 1796.31 1558.33 Q1798.26 1560.99 1801.64 1560.99 Q1805.02 1560.99 1806.96 1558.33 Q1808.91 1555.65 1808.91 1550.95 Q1808.91 1546.25 1806.96 1543.59 Q1805.02 1540.9 1801.64 1540.9 Q1798.26 1540.9 1796.31 1543.59 Q1794.39 1546.25 1794.39 1550.95 Z" fill="#000000" fill-rule="nonzero" fill-opacity="1" /><path clip-path="url(#clip840)" d="M1821.94 1537.96 L1826.2 1537.96 L1826.2 1563.89 L1821.94 1563.89 L1821.94 1537.96 M1821.94 1527.87 L1826.2 1527.87 L1826.2 1533.26 L1821.94 1533.26 L1821.94 1527.87 Z" fill="#000000" fill-rule="nonzero" fill-opacity="1" /><path clip-path="url(#clip840)" d="M1848.23 1527.87 L1848.23 1531.41 L1844.16 1531.41 Q1841.87 1531.41 1840.97 1532.34 Q1840.09 1533.26 1840.09 1535.67 L1840.09 1537.96 L1847.1 1537.96 L1847.1 1541.27 L1840.09 1541.27 L1840.09 1563.89 L1835.8 1563.89 L1835.8 1541.27 L1831.73 1541.27 L1831.73 1537.96 L1835.8 1537.96 L1835.8 1536.16 Q1835.8 1531.83 1837.82 1529.86 Q1839.83 1527.87 1844.21 1527.87 L1848.23 1527.87 Z" fill="#000000" fill-rule="nonzero" fill-opacity="1" /><path clip-path="url(#clip840)" d="M1864.92 1527.87 L1864.92 1531.41 L1860.85 1531.41 Q1858.56 1531.41 1857.66 1532.34 Q1856.78 1533.26 1856.78 1535.67 L1856.78 1537.96 L1863.79 1537.96 L1863.79 1541.27 L1856.78 1541.27 L1856.78 1563.89 L1852.49 1563.89 L1852.49 1541.27 L1848.42 1541.27 L1848.42 1537.96 L1852.49 1537.96 L1852.49 1536.16 Q1852.49 1531.83 1854.51 1529.86 Q1856.52 1527.87 1860.9 1527.87 L1864.92 1527.87 Z" fill="#000000" fill-rule="nonzero" fill-opacity="1" /><path clip-path="url(#clip840)" d="M2661.47 1527.87 L2661.47 1531.41 L2657.39 1531.41 Q2655.1 1531.41 2654.2 1532.34 Q2653.32 1533.26 2653.32 1535.67 L2653.32 1537.96 L2660.33 1537.96 L2660.33 1541.27 L2653.32 1541.27 L2653.32 1563.89 L2649.04 1563.89 L2649.04 1541.27 L2644.96 1541.27 L2644.96 1537.96 L2649.04 1537.96 L2649.04 1536.16 Q2649.04 1531.83 2651.05 1529.86 Q2653.06 1527.87 2657.44 1527.87 L2661.47 1527.87 Z" fill="#000000" fill-rule="nonzero" fill-opacity="1" /><path clip-path="url(#clip840)" d="M2675.08 1540.95 Q2671.65 1540.95 2669.66 1543.63 Q2667.67 1546.3 2667.67 1550.95 Q2667.67 1555.6 2669.64 1558.29 Q2671.63 1560.95 2675.08 1560.95 Q2678.48 1560.95 2680.47 1558.26 Q2682.46 1555.58 2682.46 1550.95 Q2682.46 1546.34 2680.47 1543.66 Q2678.48 1540.95 2675.08 1540.95 M2675.08 1537.34 Q2680.63 1537.34 2683.8 1540.95 Q2686.97 1544.56 2686.97 1550.95 Q2686.97 1557.31 2683.8 1560.95 Q2680.63 1564.56 2675.08 1564.56 Q2669.5 1564.56 2666.33 1560.95 Q2663.18 1557.31 2663.18 1550.95 Q2663.18 1544.56 2666.33 1540.95 Q2669.5 1537.34 2675.08 1537.34 Z" fill="#000000" fill-rule="nonzero" fill-opacity="1" /><path clip-path="url(#clip840)" d="M2709.06 1541.94 Q2708.34 1541.53 2707.48 1541.34 Q2706.65 1541.13 2705.63 1541.13 Q2702.02 1541.13 2700.08 1543.49 Q2698.16 1545.83 2698.16 1550.23 L2698.16 1563.89 L2693.87 1563.89 L2693.87 1537.96 L2698.16 1537.96 L2698.16 1541.99 Q2699.5 1539.63 2701.65 1538.49 Q2703.8 1537.34 2706.88 1537.34 Q2707.32 1537.34 2707.85 1537.41 Q2708.39 1537.45 2709.03 1537.57 L2709.06 1541.94 Z" fill="#000000" fill-rule="nonzero" fill-opacity="1" /><path clip-path="url(#clip840)" d="M2711.05 1537.96 L2715.31 1537.96 L2720.63 1558.19 L2725.93 1537.96 L2730.96 1537.96 L2736.28 1558.19 L2741.58 1537.96 L2745.84 1537.96 L2739.06 1563.89 L2734.03 1563.89 L2728.46 1542.64 L2722.85 1563.89 L2717.83 1563.89 L2711.05 1537.96 Z" fill="#000000" fill-rule="nonzero" fill-opacity="1" /><path clip-path="url(#clip840)" d="M2764.08 1550.86 Q2758.92 1550.86 2756.93 1552.04 Q2754.94 1553.22 2754.94 1556.06 Q2754.94 1558.33 2756.42 1559.67 Q2757.92 1560.99 2760.49 1560.99 Q2764.03 1560.99 2766.16 1558.49 Q2768.32 1555.97 2768.32 1551.8 L2768.32 1550.86 L2764.08 1550.86 M2772.58 1549.1 L2772.58 1563.89 L2768.32 1563.89 L2768.32 1559.95 Q2766.86 1562.31 2764.68 1563.45 Q2762.51 1564.56 2759.36 1564.56 Q2755.38 1564.56 2753.02 1562.34 Q2750.68 1560.09 2750.68 1556.34 Q2750.68 1551.97 2753.59 1549.74 Q2756.53 1547.52 2762.34 1547.52 L2768.32 1547.52 L2768.32 1547.11 Q2768.32 1544.17 2766.37 1542.57 Q2764.45 1540.95 2760.96 1540.95 Q2758.73 1540.95 2756.63 1541.48 Q2754.52 1542.01 2752.58 1543.08 L2752.58 1539.14 Q2754.91 1538.24 2757.11 1537.8 Q2759.31 1537.34 2761.4 1537.34 Q2767.02 1537.34 2769.8 1540.25 Q2772.58 1543.17 2772.58 1549.1 Z" fill="#000000" fill-rule="nonzero" fill-opacity="1" /><path clip-path="url(#clip840)" d="M2796.37 1541.94 Q2795.65 1541.53 2794.8 1541.34 Q2793.96 1541.13 2792.95 1541.13 Q2789.34 1541.13 2787.39 1543.49 Q2785.47 1545.83 2785.47 1550.23 L2785.47 1563.89 L2781.19 1563.89 L2781.19 1537.96 L2785.47 1537.96 L2785.47 1541.99 Q2786.81 1539.63 2788.97 1538.49 Q2791.12 1537.34 2794.2 1537.34 Q2794.64 1537.34 2795.17 1537.41 Q2795.7 1537.45 2796.35 1537.57 L2796.37 1541.94 Z" fill="#000000" fill-rule="nonzero" fill-opacity="1" /><path clip-path="url(#clip840)" d="M2817.07 1541.9 L2817.07 1527.87 L2821.33 1527.87 L2821.33 1563.89 L2817.07 1563.89 L2817.07 1560 Q2815.72 1562.31 2813.66 1563.45 Q2811.63 1564.56 2808.76 1564.56 Q2804.06 1564.56 2801.09 1560.81 Q2798.15 1557.06 2798.15 1550.95 Q2798.15 1544.84 2801.09 1541.09 Q2804.06 1537.34 2808.76 1537.34 Q2811.63 1537.34 2813.66 1538.47 Q2815.72 1539.58 2817.07 1541.9 M2802.55 1550.95 Q2802.55 1555.65 2804.47 1558.33 Q2806.42 1560.99 2809.8 1560.99 Q2813.18 1560.99 2815.12 1558.33 Q2817.07 1555.65 2817.07 1550.95 Q2817.07 1546.25 2815.12 1543.59 Q2813.18 1540.9 2809.8 1540.9 Q2806.42 1540.9 2804.47 1543.59 Q2802.55 1546.25 2802.55 1550.95 Z" fill="#000000" fill-rule="nonzero" fill-opacity="1" /><path clip-path="url(#clip840)" d="M2862.23 1541.9 L2862.23 1527.87 L2866.49 1527.87 L2866.49 1563.89 L2862.23 1563.89 L2862.23 1560 Q2860.89 1562.31 2858.83 1563.45 Q2856.79 1564.56 2853.92 1564.56 Q2849.22 1564.56 2846.26 1560.81 Q2843.32 1557.06 2843.32 1550.95 Q2843.32 1544.84 2846.26 1541.09 Q2849.22 1537.34 2853.92 1537.34 Q2856.79 1537.34 2858.83 1538.47 Q2860.89 1539.58 2862.23 1541.9 M2847.71 1550.95 Q2847.71 1555.65 2849.64 1558.33 Q2851.58 1560.99 2854.96 1560.99 Q2858.34 1560.99 2860.28 1558.33 Q2862.23 1555.65 2862.23 1550.95 Q2862.23 1546.25 2860.28 1543.59 Q2858.34 1540.9 2854.96 1540.9 Q2851.58 1540.9 2849.64 1543.59 Q2847.71 1546.25 2847.71 1550.95 Z" fill="#000000" fill-rule="nonzero" fill-opacity="1" /><path clip-path="url(#clip840)" d="M2875.26 1537.96 L2879.52 1537.96 L2879.52 1563.89 L2875.26 1563.89 L2875.26 1537.96 M2875.26 1527.87 L2879.52 1527.87 L2879.52 1533.26 L2875.26 1533.26 L2875.26 1527.87 Z" fill="#000000" fill-rule="nonzero" fill-opacity="1" /><path clip-path="url(#clip840)" d="M2901.56 1527.87 L2901.56 1531.41 L2897.48 1531.41 Q2895.19 1531.41 2894.29 1532.34 Q2893.41 1533.26 2893.41 1535.67 L2893.41 1537.96 L2900.42 1537.96 L2900.42 1541.27 L2893.41 1541.27 L2893.41 1563.89 L2889.13 1563.89 L2889.13 1541.27 L2885.05 1541.27 L2885.05 1537.96 L2889.13 1537.96 L2889.13 1536.16 Q2889.13 1531.83 2891.14 1529.86 Q2893.15 1527.87 2897.53 1527.87 L2901.56 1527.87 Z" fill="#000000" fill-rule="nonzero" fill-opacity="1" /><path clip-path="url(#clip840)" d="M2918.25 1527.87 L2918.25 1531.41 L2914.17 1531.41 Q2911.88 1531.41 2910.98 1532.34 Q2910.1 1533.26 2910.1 1535.67 L2910.1 1537.96 L2917.11 1537.96 L2917.11 1541.27 L2910.1 1541.27 L2910.1 1563.89 L2905.82 1563.89 L2905.82 1541.27 L2901.74 1541.27 L2901.74 1537.96 L2905.82 1537.96 L2905.82 1536.16 Q2905.82 1531.83 2907.83 1529.86 Q2909.84 1527.87 2914.22 1527.87 L2918.25 1527.87 Z" fill="#000000" fill-rule="nonzero" fill-opacity="1" /><polyline clip-path="url(#clip840)" style="stroke:#000000; stroke-linecap:round; stroke-linejoin:round; stroke-width:4; stroke-opacity:1; fill:none" points="364.733,1495.09 364.733,47.2441 "/>
<polyline clip-path="url(#clip840)" style="stroke:#000000; stroke-linecap:round; stroke-linejoin:round; stroke-width:4; stroke-opacity:1; fill:none" points="364.733,1386.82 383.63,1386.82 "/>
<polyline clip-path="url(#clip840)" style="stroke:#000000; stroke-linecap:round; stroke-linejoin:round; stroke-width:4; stroke-opacity:1; fill:none" points="364.733,1138.5 383.63,1138.5 "/>
<polyline clip-path="url(#clip840)" style="stroke:#000000; stroke-linecap:round; stroke-linejoin:round; stroke-width:4; stroke-opacity:1; fill:none" points="364.733,890.184 383.63,890.184 "/>
<polyline clip-path="url(#clip840)" style="stroke:#000000; stroke-linecap:round; stroke-linejoin:round; stroke-width:4; stroke-opacity:1; fill:none" points="364.733,641.865 383.63,641.865 "/>
<polyline clip-path="url(#clip840)" style="stroke:#000000; stroke-linecap:round; stroke-linejoin:round; stroke-width:4; stroke-opacity:1; fill:none" points="364.733,393.546 383.63,393.546 "/>
<polyline clip-path="url(#clip840)" style="stroke:#000000; stroke-linecap:round; stroke-linejoin:round; stroke-width:4; stroke-opacity:1; fill:none" points="364.733,145.227 383.63,145.227 "/>
<path clip-path="url(#clip840)" d="M100.137 1375.99 L118.493 1375.99 L118.493 1379.92 L104.419 1379.92 L104.419 1388.4 Q105.437 1388.05 106.456 1387.89 Q107.474 1387.7 108.493 1387.7 Q114.28 1387.7 117.66 1390.87 Q121.039 1394.04 121.039 1399.46 Q121.039 1405.04 117.567 1408.14 Q114.095 1411.22 107.775 1411.22 Q105.599 1411.22 103.331 1410.85 Q101.086 1410.48 98.6782 1409.74 L98.6782 1405.04 Q100.762 1406.17 102.984 1406.73 Q105.206 1407.29 107.683 1407.29 Q111.687 1407.29 114.025 1405.18 Q116.363 1403.07 116.363 1399.46 Q116.363 1395.85 114.025 1393.74 Q111.687 1391.64 107.683 1391.64 Q105.808 1391.64 103.933 1392.05 Q102.081 1392.47 100.137 1393.35 L100.137 1375.99 Z" fill="#000000" fill-rule="nonzero" fill-opacity="1" /><path clip-path="url(#clip840)" d="M130.252 1404.67 L135.136 1404.67 L135.136 1410.55 L130.252 1410.55 L130.252 1404.67 Z" fill="#000000" fill-rule="nonzero" fill-opacity="1" /><path clip-path="url(#clip840)" d="M155.321 1379.07 Q151.71 1379.07 149.882 1382.63 Q148.076 1386.17 148.076 1393.3 Q148.076 1400.41 149.882 1403.98 Q151.71 1407.52 155.321 1407.52 Q158.956 1407.52 160.761 1403.98 Q162.59 1400.41 162.59 1393.3 Q162.59 1386.17 160.761 1382.63 Q158.956 1379.07 155.321 1379.07 M155.321 1375.36 Q161.132 1375.36 164.187 1379.97 Q167.266 1384.55 167.266 1393.3 Q167.266 1402.03 164.187 1406.64 Q161.132 1411.22 155.321 1411.22 Q149.511 1411.22 146.433 1406.64 Q143.377 1402.03 143.377 1393.3 Q143.377 1384.55 146.433 1379.97 Q149.511 1375.36 155.321 1375.36 Z" fill="#000000" fill-rule="nonzero" fill-opacity="1" /><path clip-path="url(#clip840)" d="M185.483 1379.07 Q181.872 1379.07 180.043 1382.63 Q178.238 1386.17 178.238 1393.3 Q178.238 1400.41 180.043 1403.98 Q181.872 1407.52 185.483 1407.52 Q189.118 1407.52 190.923 1403.98 Q192.752 1400.41 192.752 1393.3 Q192.752 1386.17 190.923 1382.63 Q189.118 1379.07 185.483 1379.07 M185.483 1375.36 Q191.293 1375.36 194.349 1379.97 Q197.428 1384.55 197.428 1393.3 Q197.428 1402.03 194.349 1406.64 Q191.293 1411.22 185.483 1411.22 Q179.673 1411.22 176.594 1406.64 Q173.539 1402.03 173.539 1393.3 Q173.539 1384.55 176.594 1379.97 Q179.673 1375.36 185.483 1375.36 Z" fill="#000000" fill-rule="nonzero" fill-opacity="1" /><path clip-path="url(#clip840)" d="M233.816 1385.09 L223.238 1395.71 L233.816 1406.29 L231.062 1409.09 L220.437 1398.47 L209.812 1409.09 L207.08 1406.29 L217.636 1395.71 L207.08 1385.09 L209.812 1382.29 L220.437 1392.91 L231.062 1382.29 L233.816 1385.09 Z" fill="#000000" fill-rule="nonzero" fill-opacity="1" /><path clip-path="url(#clip840)" d="M246.177 1406.61 L253.816 1406.61 L253.816 1380.25 L245.506 1381.92 L245.506 1377.66 L253.77 1375.99 L258.446 1375.99 L258.446 1406.61 L266.085 1406.61 L266.085 1410.55 L246.177 1410.55 L246.177 1406.61 Z" fill="#000000" fill-rule="nonzero" fill-opacity="1" /><path clip-path="url(#clip840)" d="M285.529 1379.07 Q281.918 1379.07 280.089 1382.63 Q278.284 1386.17 278.284 1393.3 Q278.284 1400.41 280.089 1403.98 Q281.918 1407.52 285.529 1407.52 Q289.163 1407.52 290.969 1403.98 Q292.798 1400.41 292.798 1393.3 Q292.798 1386.17 290.969 1382.63 Q289.163 1379.07 285.529 1379.07 M285.529 1375.36 Q291.339 1375.36 294.395 1379.97 Q297.473 1384.55 297.473 1393.3 Q297.473 1402.03 294.395 1406.64 Q291.339 1411.22 285.529 1411.22 Q279.719 1411.22 276.64 1406.64 Q273.585 1402.03 273.585 1393.3 Q273.585 1384.55 276.64 1379.97 Q279.719 1375.36 285.529 1375.36 Z" fill="#000000" fill-rule="nonzero" fill-opacity="1" /><path clip-path="url(#clip840)" d="M307.103 1369.8 Q304.395 1369.8 302.834 1371.25 Q301.291 1372.7 301.291 1375.24 Q301.291 1377.78 302.834 1379.23 Q304.395 1380.68 307.103 1380.68 Q309.811 1380.68 311.372 1379.23 Q312.933 1377.76 312.933 1375.24 Q312.933 1372.7 311.372 1371.25 Q309.83 1369.8 307.103 1369.8 M303.304 1368.19 Q300.859 1367.58 299.486 1365.91 Q298.132 1364.24 298.132 1361.83 Q298.132 1358.46 300.52 1356.51 Q302.928 1354.55 307.103 1354.55 Q311.297 1354.55 313.686 1356.51 Q316.074 1358.46 316.074 1361.83 Q316.074 1364.24 314.701 1365.91 Q313.347 1367.58 310.921 1368.19 Q313.667 1368.83 315.19 1370.69 Q316.733 1372.55 316.733 1375.24 Q316.733 1379.32 314.231 1381.5 Q311.749 1383.68 307.103 1383.68 Q302.457 1383.68 299.956 1381.5 Q297.473 1379.32 297.473 1375.24 Q297.473 1372.55 299.016 1370.69 Q300.558 1368.83 303.304 1368.19 M301.912 1362.19 Q301.912 1364.37 303.266 1365.59 Q304.639 1366.81 307.103 1366.81 Q309.548 1366.81 310.921 1365.59 Q312.313 1364.37 312.313 1362.19 Q312.313 1360.01 310.921 1358.78 Q309.548 1357.56 307.103 1357.56 Q304.639 1357.56 303.266 1358.78 Q301.912 1360.01 301.912 1362.19 Z" fill="#000000" fill-rule="nonzero" fill-opacity="1" /><path clip-path="url(#clip840)" d="M100.788 1158.3 L108.426 1158.3 L108.426 1131.93 L100.116 1133.6 L100.116 1129.34 L108.38 1127.67 L113.056 1127.67 L113.056 1158.3 L120.695 1158.3 L120.695 1162.23 L100.788 1162.23 L100.788 1158.3 Z" fill="#000000" fill-rule="nonzero" fill-opacity="1" /><path clip-path="url(#clip840)" d="M130.139 1156.35 L135.023 1156.35 L135.023 1162.23 L130.139 1162.23 L130.139 1156.35 Z" fill="#000000" fill-rule="nonzero" fill-opacity="1" /><path clip-path="url(#clip840)" d="M155.209 1130.75 Q151.597 1130.75 149.769 1134.31 Q147.963 1137.86 147.963 1144.99 Q147.963 1152.09 149.769 1155.66 Q151.597 1159.2 155.209 1159.2 Q158.843 1159.2 160.648 1155.66 Q162.477 1152.09 162.477 1144.99 Q162.477 1137.86 160.648 1134.31 Q158.843 1130.75 155.209 1130.75 M155.209 1127.05 Q161.019 1127.05 164.074 1131.65 Q167.153 1136.24 167.153 1144.99 Q167.153 1153.71 164.074 1158.32 Q161.019 1162.9 155.209 1162.9 Q149.398 1162.9 146.32 1158.32 Q143.264 1153.71 143.264 1144.99 Q143.264 1136.24 146.32 1131.65 Q149.398 1127.05 155.209 1127.05 Z" fill="#000000" fill-rule="nonzero" fill-opacity="1" /><path clip-path="url(#clip840)" d="M185.37 1130.75 Q181.759 1130.75 179.931 1134.31 Q178.125 1137.86 178.125 1144.99 Q178.125 1152.09 179.931 1155.66 Q181.759 1159.2 185.37 1159.2 Q189.005 1159.2 190.81 1155.66 Q192.639 1152.09 192.639 1144.99 Q192.639 1137.86 190.81 1134.31 Q189.005 1130.75 185.37 1130.75 M185.37 1127.05 Q191.181 1127.05 194.236 1131.65 Q197.315 1136.24 197.315 1144.99 Q197.315 1153.71 194.236 1158.32 Q191.181 1162.9 185.37 1162.9 Q179.56 1162.9 176.482 1158.32 Q173.426 1153.71 173.426 1144.99 Q173.426 1136.24 176.482 1131.65 Q179.56 1127.05 185.37 1127.05 Z" fill="#000000" fill-rule="nonzero" fill-opacity="1" /><path clip-path="url(#clip840)" d="M233.704 1136.77 L223.125 1147.39 L233.704 1157.97 L230.949 1160.77 L220.324 1150.15 L209.699 1160.77 L206.968 1157.97 L217.523 1147.39 L206.968 1136.77 L209.699 1133.97 L220.324 1144.59 L230.949 1133.97 L233.704 1136.77 Z" fill="#000000" fill-rule="nonzero" fill-opacity="1" /><path clip-path="url(#clip840)" d="M246.065 1158.3 L253.703 1158.3 L253.703 1131.93 L245.393 1133.6 L245.393 1129.34 L253.657 1127.67 L258.333 1127.67 L258.333 1158.3 L265.972 1158.3 L265.972 1162.23 L246.065 1162.23 L246.065 1158.3 Z" fill="#000000" fill-rule="nonzero" fill-opacity="1" /><path clip-path="url(#clip840)" d="M285.416 1130.75 Q281.805 1130.75 279.976 1134.31 Q278.171 1137.86 278.171 1144.99 Q278.171 1152.09 279.976 1155.66 Q281.805 1159.2 285.416 1159.2 Q289.05 1159.2 290.856 1155.66 Q292.685 1152.09 292.685 1144.99 Q292.685 1137.86 290.856 1134.31 Q289.05 1130.75 285.416 1130.75 M285.416 1127.05 Q291.226 1127.05 294.282 1131.65 Q297.361 1136.24 297.361 1144.99 Q297.361 1153.71 294.282 1158.32 Q291.226 1162.9 285.416 1162.9 Q279.606 1162.9 276.527 1158.32 Q273.472 1153.71 273.472 1144.99 Q273.472 1136.24 276.527 1131.65 Q279.606 1127.05 285.416 1127.05 Z" fill="#000000" fill-rule="nonzero" fill-opacity="1" /><path clip-path="url(#clip840)" d="M299.166 1134.24 L299.166 1130.78 Q300.596 1131.45 302.063 1131.81 Q303.53 1132.17 304.94 1132.17 Q308.702 1132.17 310.676 1129.65 Q312.67 1127.11 312.952 1121.96 Q311.861 1123.57 310.187 1124.44 Q308.514 1125.3 306.482 1125.3 Q302.269 1125.3 299.806 1122.76 Q297.361 1120.21 297.361 1115.79 Q297.361 1111.46 299.918 1108.85 Q302.476 1106.23 306.727 1106.23 Q311.598 1106.23 314.156 1109.97 Q316.733 1113.7 316.733 1120.81 Q316.733 1127.45 313.573 1131.42 Q310.432 1135.37 305.109 1135.37 Q303.68 1135.37 302.213 1135.08 Q300.746 1134.8 299.166 1134.24 M306.727 1122.33 Q309.285 1122.33 310.771 1120.58 Q312.275 1118.83 312.275 1115.79 Q312.275 1112.76 310.771 1111.01 Q309.285 1109.24 306.727 1109.24 Q304.169 1109.24 302.664 1111.01 Q301.179 1112.76 301.179 1115.79 Q301.179 1118.83 302.664 1120.58 Q304.169 1122.33 306.727 1122.33 Z" fill="#000000" fill-rule="nonzero" fill-opacity="1" /><path clip-path="url(#clip840)" d="M100.788 909.976 L108.426 909.976 L108.426 883.611 L100.116 885.277 L100.116 881.018 L108.38 879.351 L113.056 879.351 L113.056 909.976 L120.695 909.976 L120.695 913.911 L100.788 913.911 L100.788 909.976 Z" fill="#000000" fill-rule="nonzero" fill-opacity="1" /><path clip-path="url(#clip840)" d="M130.139 908.032 L135.023 908.032 L135.023 913.911 L130.139 913.911 L130.139 908.032 Z" fill="#000000" fill-rule="nonzero" fill-opacity="1" /><path clip-path="url(#clip840)" d="M145.255 879.351 L163.611 879.351 L163.611 883.287 L149.537 883.287 L149.537 891.759 Q150.556 891.412 151.574 891.25 Q152.593 891.064 153.611 891.064 Q159.398 891.064 162.778 894.236 Q166.158 897.407 166.158 902.824 Q166.158 908.402 162.685 911.504 Q159.213 914.583 152.894 914.583 Q150.718 914.583 148.449 914.212 Q146.204 913.842 143.797 913.101 L143.797 908.402 Q145.88 909.536 148.102 910.092 Q150.324 910.648 152.801 910.648 Q156.806 910.648 159.144 908.541 Q161.482 906.435 161.482 902.824 Q161.482 899.212 159.144 897.106 Q156.806 895 152.801 895 Q150.926 895 149.051 895.416 Q147.199 895.833 145.255 896.712 L145.255 879.351 Z" fill="#000000" fill-rule="nonzero" fill-opacity="1" /><path clip-path="url(#clip840)" d="M185.37 882.43 Q181.759 882.43 179.931 885.995 Q178.125 889.537 178.125 896.666 Q178.125 903.773 179.931 907.337 Q181.759 910.879 185.37 910.879 Q189.005 910.879 190.81 907.337 Q192.639 903.773 192.639 896.666 Q192.639 889.537 190.81 885.995 Q189.005 882.43 185.37 882.43 M185.37 878.726 Q191.181 878.726 194.236 883.333 Q197.315 887.916 197.315 896.666 Q197.315 905.393 194.236 909.999 Q191.181 914.583 185.37 914.583 Q179.56 914.583 176.482 909.999 Q173.426 905.393 173.426 896.666 Q173.426 887.916 176.482 883.333 Q179.56 878.726 185.37 878.726 Z" fill="#000000" fill-rule="nonzero" fill-opacity="1" /><path clip-path="url(#clip840)" d="M233.704 888.449 L223.125 899.074 L233.704 909.652 L230.949 912.453 L220.324 901.828 L209.699 912.453 L206.968 909.652 L217.523 899.074 L206.968 888.449 L209.699 885.648 L220.324 896.273 L230.949 885.648 L233.704 888.449 Z" fill="#000000" fill-rule="nonzero" fill-opacity="1" /><path clip-path="url(#clip840)" d="M246.065 909.976 L253.703 909.976 L253.703 883.611 L245.393 885.277 L245.393 881.018 L253.657 879.351 L258.333 879.351 L258.333 909.976 L265.972 909.976 L265.972 913.911 L246.065 913.911 L246.065 909.976 Z" fill="#000000" fill-rule="nonzero" fill-opacity="1" /><path clip-path="url(#clip840)" d="M285.416 882.43 Q281.805 882.43 279.976 885.995 Q278.171 889.537 278.171 896.666 Q278.171 903.773 279.976 907.337 Q281.805 910.879 285.416 910.879 Q289.05 910.879 290.856 907.337 Q292.685 903.773 292.685 896.666 Q292.685 889.537 290.856 885.995 Q289.05 882.43 285.416 882.43 M285.416 878.726 Q291.226 878.726 294.282 883.333 Q297.361 887.916 297.361 896.666 Q297.361 905.393 294.282 909.999 Q291.226 914.583 285.416 914.583 Q279.606 914.583 276.527 909.999 Q273.472 905.393 273.472 896.666 Q273.472 887.916 276.527 883.333 Q279.606 878.726 285.416 878.726 Z" fill="#000000" fill-rule="nonzero" fill-opacity="1" /><path clip-path="url(#clip840)" d="M299.166 885.918 L299.166 882.457 Q300.596 883.134 302.063 883.492 Q303.53 883.849 304.94 883.849 Q308.702 883.849 310.676 881.329 Q312.67 878.79 312.952 873.637 Q311.861 875.254 310.187 876.119 Q308.514 876.984 306.482 876.984 Q302.269 876.984 299.806 874.445 Q297.361 871.887 297.361 867.468 Q297.361 863.142 299.918 860.528 Q302.476 857.913 306.727 857.913 Q311.598 857.913 314.156 861.656 Q316.733 865.38 316.733 872.489 Q316.733 879.128 313.573 883.097 Q310.432 887.046 305.109 887.046 Q303.68 887.046 302.213 886.764 Q300.746 886.482 299.166 885.918 M306.727 874.013 Q309.285 874.013 310.771 872.264 Q312.275 870.514 312.275 867.468 Q312.275 864.44 310.771 862.69 Q309.285 860.922 306.727 860.922 Q304.169 860.922 302.664 862.69 Q301.179 864.44 301.179 867.468 Q301.179 870.514 302.664 872.264 Q304.169 874.013 306.727 874.013 Z" fill="#000000" fill-rule="nonzero" fill-opacity="1" /><path clip-path="url(#clip840)" d="M104.005 661.657 L120.324 661.657 L120.324 665.593 L98.3802 665.593 L98.3802 661.657 Q101.042 658.903 105.625 654.273 Q110.232 649.62 111.412 648.278 Q113.658 645.755 114.537 644.019 Q115.44 642.259 115.44 640.569 Q115.44 637.815 113.496 636.079 Q111.575 634.343 108.473 634.343 Q106.274 634.343 103.82 635.107 Q101.389 635.87 98.6116 637.421 L98.6116 632.699 Q101.436 631.565 103.889 630.986 Q106.343 630.408 108.38 630.408 Q113.75 630.408 116.945 633.093 Q120.139 635.778 120.139 640.269 Q120.139 642.398 119.329 644.319 Q118.542 646.218 116.436 648.81 Q115.857 649.481 112.755 652.699 Q109.653 655.893 104.005 661.657 Z" fill="#000000" fill-rule="nonzero" fill-opacity="1" /><path clip-path="url(#clip840)" d="M130.139 659.713 L135.023 659.713 L135.023 665.593 L130.139 665.593 L130.139 659.713 Z" fill="#000000" fill-rule="nonzero" fill-opacity="1" /><path clip-path="url(#clip840)" d="M155.209 634.111 Q151.597 634.111 149.769 637.676 Q147.963 641.218 147.963 648.347 Q147.963 655.454 149.769 659.018 Q151.597 662.56 155.209 662.56 Q158.843 662.56 160.648 659.018 Q162.477 655.454 162.477 648.347 Q162.477 641.218 160.648 637.676 Q158.843 634.111 155.209 634.111 M155.209 630.408 Q161.019 630.408 164.074 635.014 Q167.153 639.597 167.153 648.347 Q167.153 657.074 164.074 661.68 Q161.019 666.264 155.209 666.264 Q149.398 666.264 146.32 661.68 Q143.264 657.074 143.264 648.347 Q143.264 639.597 146.32 635.014 Q149.398 630.408 155.209 630.408 Z" fill="#000000" fill-rule="nonzero" fill-opacity="1" /><path clip-path="url(#clip840)" d="M185.37 634.111 Q181.759 634.111 179.931 637.676 Q178.125 641.218 178.125 648.347 Q178.125 655.454 179.931 659.018 Q181.759 662.56 185.37 662.56 Q189.005 662.56 190.81 659.018 Q192.639 655.454 192.639 648.347 Q192.639 641.218 190.81 637.676 Q189.005 634.111 185.37 634.111 M185.37 630.408 Q191.181 630.408 194.236 635.014 Q197.315 639.597 197.315 648.347 Q197.315 657.074 194.236 661.68 Q191.181 666.264 185.37 666.264 Q179.56 666.264 176.482 661.68 Q173.426 657.074 173.426 648.347 Q173.426 639.597 176.482 635.014 Q179.56 630.408 185.37 630.408 Z" fill="#000000" fill-rule="nonzero" fill-opacity="1" /><path clip-path="url(#clip840)" d="M233.704 640.13 L223.125 650.755 L233.704 661.333 L230.949 664.134 L220.324 653.509 L209.699 664.134 L206.968 661.333 L217.523 650.755 L206.968 640.13 L209.699 637.329 L220.324 647.954 L230.949 637.329 L233.704 640.13 Z" fill="#000000" fill-rule="nonzero" fill-opacity="1" /><path clip-path="url(#clip840)" d="M246.065 661.657 L253.703 661.657 L253.703 635.292 L245.393 636.958 L245.393 632.699 L253.657 631.033 L258.333 631.033 L258.333 661.657 L265.972 661.657 L265.972 665.593 L246.065 665.593 L246.065 661.657 Z" fill="#000000" fill-rule="nonzero" fill-opacity="1" /><path clip-path="url(#clip840)" d="M285.416 634.111 Q281.805 634.111 279.976 637.676 Q278.171 641.218 278.171 648.347 Q278.171 655.454 279.976 659.018 Q281.805 662.56 285.416 662.56 Q289.05 662.56 290.856 659.018 Q292.685 655.454 292.685 648.347 Q292.685 641.218 290.856 637.676 Q289.05 634.111 285.416 634.111 M285.416 630.408 Q291.226 630.408 294.282 635.014 Q297.361 639.597 297.361 648.347 Q297.361 657.074 294.282 661.68 Q291.226 666.264 285.416 666.264 Q279.606 666.264 276.527 661.68 Q273.472 657.074 273.472 648.347 Q273.472 639.597 276.527 635.014 Q279.606 630.408 285.416 630.408 Z" fill="#000000" fill-rule="nonzero" fill-opacity="1" /><path clip-path="url(#clip840)" d="M299.166 637.599 L299.166 634.138 Q300.596 634.816 302.063 635.173 Q303.53 635.53 304.94 635.53 Q308.702 635.53 310.676 633.01 Q312.67 630.471 312.952 625.318 Q311.861 626.935 310.187 627.8 Q308.514 628.665 306.482 628.665 Q302.269 628.665 299.806 626.126 Q297.361 623.568 297.361 619.149 Q297.361 614.823 299.918 612.209 Q302.476 609.594 306.727 609.594 Q311.598 609.594 314.156 613.337 Q316.733 617.061 316.733 624.17 Q316.733 630.809 313.573 634.778 Q310.432 638.728 305.109 638.728 Q303.68 638.728 302.213 638.445 Q300.746 638.163 299.166 637.599 M306.727 625.694 Q309.285 625.694 310.771 623.945 Q312.275 622.195 312.275 619.149 Q312.275 616.121 310.771 614.371 Q309.285 612.604 306.727 612.604 Q304.169 612.604 302.664 614.371 Q301.179 616.121 301.179 619.149 Q301.179 622.195 302.664 623.945 Q304.169 625.694 306.727 625.694 Z" fill="#000000" fill-rule="nonzero" fill-opacity="1" /><path clip-path="url(#clip840)" d="M104.005 413.338 L120.324 413.338 L120.324 417.274 L98.3802 417.274 L98.3802 413.338 Q101.042 410.584 105.625 405.954 Q110.232 401.301 111.412 399.959 Q113.658 397.436 114.537 395.7 Q115.44 393.94 115.44 392.251 Q115.44 389.496 113.496 387.76 Q111.575 386.024 108.473 386.024 Q106.274 386.024 103.82 386.788 Q101.389 387.551 98.6116 389.102 L98.6116 384.38 Q101.436 383.246 103.889 382.667 Q106.343 382.089 108.38 382.089 Q113.75 382.089 116.945 384.774 Q120.139 387.459 120.139 391.95 Q120.139 394.079 119.329 396.001 Q118.542 397.899 116.436 400.491 Q115.857 401.163 112.755 404.38 Q109.653 407.575 104.005 413.338 Z" fill="#000000" fill-rule="nonzero" fill-opacity="1" /><path clip-path="url(#clip840)" d="M130.139 411.394 L135.023 411.394 L135.023 417.274 L130.139 417.274 L130.139 411.394 Z" fill="#000000" fill-rule="nonzero" fill-opacity="1" /><path clip-path="url(#clip840)" d="M145.255 382.714 L163.611 382.714 L163.611 386.649 L149.537 386.649 L149.537 395.121 Q150.556 394.774 151.574 394.612 Q152.593 394.426 153.611 394.426 Q159.398 394.426 162.778 397.598 Q166.158 400.769 166.158 406.186 Q166.158 411.764 162.685 414.866 Q159.213 417.945 152.894 417.945 Q150.718 417.945 148.449 417.574 Q146.204 417.204 143.797 416.463 L143.797 411.764 Q145.88 412.899 148.102 413.454 Q150.324 414.01 152.801 414.01 Q156.806 414.01 159.144 411.903 Q161.482 409.797 161.482 406.186 Q161.482 402.575 159.144 400.468 Q156.806 398.362 152.801 398.362 Q150.926 398.362 149.051 398.778 Q147.199 399.195 145.255 400.075 L145.255 382.714 Z" fill="#000000" fill-rule="nonzero" fill-opacity="1" /><path clip-path="url(#clip840)" d="M185.37 385.792 Q181.759 385.792 179.931 389.357 Q178.125 392.899 178.125 400.028 Q178.125 407.135 179.931 410.7 Q181.759 414.241 185.37 414.241 Q189.005 414.241 190.81 410.7 Q192.639 407.135 192.639 400.028 Q192.639 392.899 190.81 389.357 Q189.005 385.792 185.37 385.792 M185.37 382.089 Q191.181 382.089 194.236 386.695 Q197.315 391.278 197.315 400.028 Q197.315 408.755 194.236 413.362 Q191.181 417.945 185.37 417.945 Q179.56 417.945 176.482 413.362 Q173.426 408.755 173.426 400.028 Q173.426 391.278 176.482 386.695 Q179.56 382.089 185.37 382.089 Z" fill="#000000" fill-rule="nonzero" fill-opacity="1" /><path clip-path="url(#clip840)" d="M233.704 391.811 L223.125 402.436 L233.704 413.014 L230.949 415.815 L220.324 405.19 L209.699 415.815 L206.968 413.014 L217.523 402.436 L206.968 391.811 L209.699 389.01 L220.324 399.635 L230.949 389.01 L233.704 391.811 Z" fill="#000000" fill-rule="nonzero" fill-opacity="1" /><path clip-path="url(#clip840)" d="M246.065 413.338 L253.703 413.338 L253.703 386.973 L245.393 388.639 L245.393 384.38 L253.657 382.714 L258.333 382.714 L258.333 413.338 L265.972 413.338 L265.972 417.274 L246.065 417.274 L246.065 413.338 Z" fill="#000000" fill-rule="nonzero" fill-opacity="1" /><path clip-path="url(#clip840)" d="M285.416 385.792 Q281.805 385.792 279.976 389.357 Q278.171 392.899 278.171 400.028 Q278.171 407.135 279.976 410.7 Q281.805 414.241 285.416 414.241 Q289.05 414.241 290.856 410.7 Q292.685 407.135 292.685 400.028 Q292.685 392.899 290.856 389.357 Q289.05 385.792 285.416 385.792 M285.416 382.089 Q291.226 382.089 294.282 386.695 Q297.361 391.278 297.361 400.028 Q297.361 408.755 294.282 413.362 Q291.226 417.945 285.416 417.945 Q279.606 417.945 276.527 413.362 Q273.472 408.755 273.472 400.028 Q273.472 391.278 276.527 386.695 Q279.606 382.089 285.416 382.089 Z" fill="#000000" fill-rule="nonzero" fill-opacity="1" /><path clip-path="url(#clip840)" d="M299.166 389.28 L299.166 385.819 Q300.596 386.497 302.063 386.854 Q303.53 387.211 304.94 387.211 Q308.702 387.211 310.676 384.691 Q312.67 382.152 312.952 376.999 Q311.861 378.616 310.187 379.481 Q308.514 380.346 306.482 380.346 Q302.269 380.346 299.806 377.807 Q297.361 375.25 297.361 370.83 Q297.361 366.504 299.918 363.89 Q302.476 361.275 306.727 361.275 Q311.598 361.275 314.156 365.018 Q316.733 368.742 316.733 375.851 Q316.733 382.491 313.573 386.459 Q310.432 390.409 305.109 390.409 Q303.68 390.409 302.213 390.126 Q300.746 389.844 299.166 389.28 M306.727 377.375 Q309.285 377.375 310.771 375.626 Q312.275 373.877 312.275 370.83 Q312.275 367.802 310.771 366.053 Q309.285 364.285 306.727 364.285 Q304.169 364.285 302.664 366.053 Q301.179 367.802 301.179 370.83 Q301.179 373.877 302.664 375.626 Q304.169 377.375 306.727 377.375 Z" fill="#000000" fill-rule="nonzero" fill-opacity="1" /><path clip-path="url(#clip840)" d="M114.144 150.32 Q117.5 151.038 119.375 153.307 Q121.274 155.575 121.274 158.908 Q121.274 164.024 117.755 166.825 Q114.237 169.626 107.755 169.626 Q105.579 169.626 103.264 169.186 Q100.973 168.769 98.519 167.913 L98.519 163.399 Q100.463 164.533 102.778 165.112 Q105.093 165.691 107.616 165.691 Q112.014 165.691 114.306 163.955 Q116.621 162.219 116.621 158.908 Q116.621 155.853 114.468 154.14 Q112.338 152.404 108.519 152.404 L104.491 152.404 L104.491 148.561 L108.704 148.561 Q112.153 148.561 113.982 147.195 Q115.811 145.807 115.811 143.214 Q115.811 140.552 113.912 139.14 Q112.037 137.705 108.519 137.705 Q106.598 137.705 104.399 138.121 Q102.2 138.538 99.5607 139.418 L99.5607 135.251 Q102.223 134.51 104.538 134.14 Q106.875 133.77 108.936 133.77 Q114.26 133.77 117.362 136.2 Q120.463 138.608 120.463 142.728 Q120.463 145.598 118.82 147.589 Q117.176 149.557 114.144 150.32 Z" fill="#000000" fill-rule="nonzero" fill-opacity="1" /><path clip-path="url(#clip840)" d="M130.139 163.075 L135.023 163.075 L135.023 168.955 L130.139 168.955 L130.139 163.075 Z" fill="#000000" fill-rule="nonzero" fill-opacity="1" /><path clip-path="url(#clip840)" d="M155.209 137.473 Q151.597 137.473 149.769 141.038 Q147.963 144.58 147.963 151.709 Q147.963 158.816 149.769 162.381 Q151.597 165.922 155.209 165.922 Q158.843 165.922 160.648 162.381 Q162.477 158.816 162.477 151.709 Q162.477 144.58 160.648 141.038 Q158.843 137.473 155.209 137.473 M155.209 133.77 Q161.019 133.77 164.074 138.376 Q167.153 142.959 167.153 151.709 Q167.153 160.436 164.074 165.043 Q161.019 169.626 155.209 169.626 Q149.398 169.626 146.32 165.043 Q143.264 160.436 143.264 151.709 Q143.264 142.959 146.32 138.376 Q149.398 133.77 155.209 133.77 Z" fill="#000000" fill-rule="nonzero" fill-opacity="1" /><path clip-path="url(#clip840)" d="M185.37 137.473 Q181.759 137.473 179.931 141.038 Q178.125 144.58 178.125 151.709 Q178.125 158.816 179.931 162.381 Q181.759 165.922 185.37 165.922 Q189.005 165.922 190.81 162.381 Q192.639 158.816 192.639 151.709 Q192.639 144.58 190.81 141.038 Q189.005 137.473 185.37 137.473 M185.37 133.77 Q191.181 133.77 194.236 138.376 Q197.315 142.959 197.315 151.709 Q197.315 160.436 194.236 165.043 Q191.181 169.626 185.37 169.626 Q179.56 169.626 176.482 165.043 Q173.426 160.436 173.426 151.709 Q173.426 142.959 176.482 138.376 Q179.56 133.77 185.37 133.77 Z" fill="#000000" fill-rule="nonzero" fill-opacity="1" /><path clip-path="url(#clip840)" d="M233.704 143.492 L223.125 154.117 L233.704 164.695 L230.949 167.496 L220.324 156.871 L209.699 167.496 L206.968 164.695 L217.523 154.117 L206.968 143.492 L209.699 140.691 L220.324 151.316 L230.949 140.691 L233.704 143.492 Z" fill="#000000" fill-rule="nonzero" fill-opacity="1" /><path clip-path="url(#clip840)" d="M246.065 165.019 L253.703 165.019 L253.703 138.654 L245.393 140.321 L245.393 136.061 L253.657 134.395 L258.333 134.395 L258.333 165.019 L265.972 165.019 L265.972 168.955 L246.065 168.955 L246.065 165.019 Z" fill="#000000" fill-rule="nonzero" fill-opacity="1" /><path clip-path="url(#clip840)" d="M285.416 137.473 Q281.805 137.473 279.976 141.038 Q278.171 144.58 278.171 151.709 Q278.171 158.816 279.976 162.381 Q281.805 165.922 285.416 165.922 Q289.05 165.922 290.856 162.381 Q292.685 158.816 292.685 151.709 Q292.685 144.58 290.856 141.038 Q289.05 137.473 285.416 137.473 M285.416 133.77 Q291.226 133.77 294.282 138.376 Q297.361 142.959 297.361 151.709 Q297.361 160.436 294.282 165.043 Q291.226 169.626 285.416 169.626 Q279.606 169.626 276.527 165.043 Q273.472 160.436 273.472 151.709 Q273.472 142.959 276.527 138.376 Q279.606 133.77 285.416 133.77 Z" fill="#000000" fill-rule="nonzero" fill-opacity="1" /><path clip-path="url(#clip840)" d="M299.166 140.961 L299.166 137.501 Q300.596 138.178 302.063 138.535 Q303.53 138.892 304.94 138.892 Q308.702 138.892 310.676 136.372 Q312.67 133.833 312.952 128.68 Q311.861 130.297 310.187 131.162 Q308.514 132.027 306.482 132.027 Q302.269 132.027 299.806 129.488 Q297.361 126.931 297.361 122.511 Q297.361 118.185 299.918 115.571 Q302.476 112.956 306.727 112.956 Q311.598 112.956 314.156 116.699 Q316.733 120.423 316.733 127.532 Q316.733 134.172 313.573 138.14 Q310.432 142.09 305.109 142.09 Q303.68 142.09 302.213 141.808 Q300.746 141.525 299.166 140.961 M306.727 129.056 Q309.285 129.056 310.771 127.307 Q312.275 125.558 312.275 122.511 Q312.275 119.483 310.771 117.734 Q309.285 115.966 306.727 115.966 Q304.169 115.966 302.664 117.734 Q301.179 119.483 301.179 122.511 Q301.179 125.558 302.664 127.307 Q304.169 129.056 306.727 129.056 Z" fill="#000000" fill-rule="nonzero" fill-opacity="1" /><path clip-path="url(#clip840)" d="M-9.64527 840.632 L0.4762 840.632 L0.4762 828.569 L5.02768 828.569 L5.02768 840.632 L24.3794 840.632 Q28.7399 840.632 29.9813 839.454 Q31.2226 838.245 31.2226 834.584 L31.2226 828.569 L36.1242 828.569 L36.1242 834.584 Q36.1242 841.364 33.6097 843.942 Q31.0634 846.52 24.3794 846.52 L5.02768 846.52 L5.02768 850.817 L0.4762 850.817 L0.4762 846.52 L-9.64527 846.52 L-9.64527 840.632 Z" fill="#000000" fill-rule="nonzero" fill-opacity="1" /><path clip-path="url(#clip840)" d="M-11.3958 789.738 L-11.3958 784.327 L42.1716 800.878 L42.1716 806.289 L-11.3958 789.738 Z" fill="#000000" fill-rule="nonzero" fill-opacity="1" /><path clip-path="url(#clip840)" d="M14.6081 727.831 L36.1242 727.831 L36.1242 733.688 L14.799 733.688 Q9.7383 733.688 7.22385 735.661 Q4.7094 737.635 4.7094 741.581 Q4.7094 746.324 7.73311 749.061 Q10.7568 751.798 15.9767 751.798 L36.1242 751.798 L36.1242 757.687 L0.4762 757.687 L0.4762 751.798 L6.01437 751.798 Q2.79968 749.698 1.20826 746.865 Q-0.38317 744 -0.38317 740.276 Q-0.38317 734.133 3.43625 730.982 Q7.22385 727.831 14.6081 727.831 Z" fill="#000000" fill-rule="nonzero" fill-opacity="1" /><path clip-path="url(#clip840)" d="M1.52654 693.425 L7.06471 693.425 Q5.79157 695.907 5.15499 698.581 Q4.51842 701.255 4.51842 704.119 Q4.51842 708.48 5.85522 710.676 Q7.19202 712.84 9.86562 712.84 Q11.9026 712.84 13.0803 711.281 Q14.2261 709.721 15.2765 705.01 L15.7221 703.005 Q17.0589 696.767 19.5097 694.157 Q21.9286 691.515 26.2891 691.515 Q31.2544 691.515 34.1508 695.462 Q37.0472 699.377 37.0472 706.252 Q37.0472 709.116 36.4743 712.235 Q35.9332 715.323 34.8192 718.76 L28.7718 718.76 Q30.4587 715.514 31.318 712.363 Q32.1456 709.212 32.1456 706.124 Q32.1456 701.987 30.7451 699.759 Q29.3129 697.531 26.7347 697.531 Q24.3476 697.531 23.0745 699.154 Q21.8013 700.745 20.6237 706.188 L20.1462 708.225 Q19.0004 713.668 16.6451 716.087 Q14.258 718.506 10.1202 718.506 Q5.09134 718.506 2.35408 714.941 Q-0.38317 711.376 -0.38317 704.819 Q-0.38317 701.573 0.0942579 698.708 Q0.571686 695.844 1.52654 693.425 Z" fill="#000000" fill-rule="nonzero" fill-opacity="1" /><path clip-path="url(#clip841)" d="M1012.6 1454.11 L1016.79 1454.04 L1020.34 1453.97 L1023.22 1453.9 L1025.44 1453.83 L1026.99 1453.76 L1027.89 1453.68 L1028.13 1453.61 L1027.75 1453.54 L1026.77 1453.47 L1025.21 1453.4 L1023.13 1453.33 L1020.56 1453.26 L1017.55 1453.19 L1014.15 1453.12 L1010.42 1453.05 L1006.41 1452.97 L1002.19 1452.9 L997.8 1452.83 L993.318 1452.76 L988.798 1452.69 L984.299 1452.62 L979.877 1452.55 L975.585 1452.48 L971.474 1452.41 L967.588 1452.33 L963.969 1452.26 L960.651 1452.19 L957.663 1452.12 L955.028 1452.05 L952.763 1451.98 L950.877 1451.91 L949.373 1451.84 L948.247 1451.77 L947.487 1451.69 L947.076 1451.62 L946.991 1451.55 L947.201 1451.48 L947.673 1451.41 L948.366 1451.34 L949.238 1451.27 L950.24 1451.2 L951.323 1451.13 L952.437 1451.05 L953.528 1450.98 L954.544 1450.91 L955.433 1450.84 L956.145 1450.77 L956.632 1450.7 L956.85 1450.63 L956.756 1450.56 L956.315 1450.49 L955.493 1450.42 L954.266 1450.34 L952.61 1450.27 L950.512 1450.2 L947.962 1450.13 L944.958 1450.06 L526.812 1450.06 L523.807 1450.13 L521.257 1450.2 L519.159 1450.27 L517.503 1450.34 L516.276 1450.42 L515.454 1450.49 L515.013 1450.56 L514.919 1450.63 L515.137 1450.7 L515.624 1450.77 L516.336 1450.84 L517.225 1450.91 L518.241 1450.98 L519.332 1451.05 L520.446 1451.13 L521.529 1451.2 L522.531 1451.27 L523.403 1451.34 L524.096 1451.41 L524.568 1451.48 L524.778 1451.55 L524.693 1451.62 L524.282 1451.69 L523.522 1451.77 L522.396 1451.84 L520.892 1451.91 L519.006 1451.98 L516.741 1452.05 L514.106 1452.12 L511.118 1452.19 L507.8 1452.26 L504.181 1452.33 L500.295 1452.41 L496.184 1452.48 L491.892 1452.55 L487.471 1452.62 L482.971 1452.69 L478.452 1452.76 L473.969 1452.83 L469.584 1452.9 L465.357 1452.97 L461.347 1453.05 L457.614 1453.12 L454.216 1453.19 L451.206 1453.26 L448.636 1453.33 L446.555 1453.4 L445.004 1453.47 L444.021 1453.54 L443.639 1453.61 L443.884 1453.68 L444.775 1453.76 L446.327 1453.83 L448.545 1453.9 L451.43 1453.97 L454.976 1454.04 L459.169 1454.11 L1012.6 1454.11  Z" fill="#009af9" fill-rule="evenodd" fill-opacity="1"/>
<polyline clip-path="url(#clip841)" style="stroke:#000000; stroke-linecap:round; stroke-linejoin:round; stroke-width:4; stroke-opacity:1; fill:none" points="1012.6,1454.11 1016.79,1454.04 1020.34,1453.97 1023.22,1453.9 1025.44,1453.83 1026.99,1453.76 1027.89,1453.68 1028.13,1453.61 1027.75,1453.54 1026.77,1453.47 1025.21,1453.4 1023.13,1453.33 1020.56,1453.26 1017.55,1453.19 1014.15,1453.12 1010.42,1453.05 1006.41,1452.97 1002.19,1452.9 997.8,1452.83 993.318,1452.76 988.798,1452.69 984.299,1452.62 979.877,1452.55 975.585,1452.48 971.474,1452.41 967.588,1452.33 963.969,1452.26 960.651,1452.19 957.663,1452.12 955.028,1452.05 952.763,1451.98 950.877,1451.91 949.373,1451.84 948.247,1451.77 947.487,1451.69 947.076,1451.62 946.991,1451.55 947.201,1451.48 947.673,1451.41 948.366,1451.34 949.238,1451.27 950.24,1451.2 951.323,1451.13 952.437,1451.05 953.528,1450.98 954.544,1450.91 955.433,1450.84 956.145,1450.77 956.632,1450.7 956.85,1450.63 956.756,1450.56 956.315,1450.49 955.493,1450.42 954.266,1450.34 952.61,1450.27 950.512,1450.2 947.962,1450.13 944.958,1450.06 526.812,1450.06 523.807,1450.13 521.257,1450.2 519.159,1450.27 517.503,1450.34 516.276,1450.42 515.454,1450.49 515.013,1450.56 514.919,1450.63 515.137,1450.7 515.624,1450.77 516.336,1450.84 517.225,1450.91 518.241,1450.98 519.332,1451.05 520.446,1451.13 521.529,1451.2 522.531,1451.27 523.403,1451.34 524.096,1451.41 524.568,1451.48 524.778,1451.55 524.693,1451.62 524.282,1451.69 523.522,1451.77 522.396,1451.84 520.892,1451.91 519.006,1451.98 516.741,1452.05 514.106,1452.12 511.118,1452.19 507.8,1452.26 504.181,1452.33 500.295,1452.41 496.184,1452.48 491.892,1452.55 487.471,1452.62 482.971,1452.69 478.452,1452.76 473.969,1452.83 469.584,1452.9 465.357,1452.97 461.347,1453.05 457.614,1453.12 454.216,1453.19 451.206,1453.26 448.636,1453.33 446.555,1453.4 445.004,1453.47 444.021,1453.54 443.639,1453.61 443.884,1453.68 444.775,1453.76 446.327,1453.83 448.545,1453.9 451.43,1453.97 454.976,1454.04 459.169,1454.11 1012.6,1454.11 "/>
<path clip-path="url(#clip841)" d="M2015.6 419.892 L2021.09 419.445 L2026.12 418.998 L2030.69 418.551 L2034.78 418.104 L2038.38 417.657 L2041.51 417.209 L2044.16 416.762 L2046.35 416.315 L2048.09 415.868 L2049.4 415.421 L2050.3 414.974 L2050.82 414.527 L2050.99 414.079 L2050.84 413.632 L2050.4 413.185 L2049.72 412.738 L2048.82 412.291 L2047.75 411.844 L2046.55 411.397 L2045.25 410.949 L2043.89 410.502 L2042.52 410.055 L2041.15 409.608 L2039.84 409.161 L2038.6 408.714 L2037.48 408.267 L2036.48 407.819 L2035.65 407.372 L2034.99 406.925 L2034.52 406.478 L2034.26 406.031 L2034.2 405.584 L2034.36 405.137 L2034.72 404.689 L2035.28 404.242 L2036.04 403.795 L2036.96 403.348 L2038.04 402.901 L2039.25 402.454 L2040.55 402.007 L2041.92 401.559 L2043.32 401.112 L2044.7 400.665 L2046.03 400.218 L2047.27 399.771 L2048.36 399.324 L2049.26 398.877 L2049.93 398.429 L2050.31 397.982 L2050.38 397.535 L2050.08 397.088 L2049.37 396.641 L2048.23 396.194 L2046.62 395.747 L2044.51 395.299 L2041.89 394.852 L2038.74 394.405 L1478.75 394.405 L1475.6 394.852 L1472.98 395.299 L1470.87 395.747 L1469.26 396.194 L1468.12 396.641 L1467.41 397.088 L1467.11 397.535 L1467.18 397.982 L1467.56 398.429 L1468.23 398.877 L1469.13 399.324 L1470.22 399.771 L1471.45 400.218 L1472.79 400.665 L1474.17 401.112 L1475.57 401.559 L1476.94 402.007 L1478.24 402.454 L1479.45 402.901 L1480.53 403.348 L1481.45 403.795 L1482.21 404.242 L1482.77 404.689 L1483.13 405.137 L1483.29 405.584 L1483.23 406.031 L1482.97 406.478 L1482.5 406.925 L1481.84 407.372 L1481.01 407.819 L1480.01 408.267 L1478.89 408.714 L1477.65 409.161 L1476.34 409.608 L1474.97 410.055 L1473.59 410.502 L1472.24 410.949 L1470.94 411.397 L1469.73 411.844 L1468.66 412.291 L1467.77 412.738 L1467.08 413.185 L1466.65 413.632 L1466.5 414.079 L1466.67 414.527 L1467.19 414.974 L1468.09 415.421 L1469.4 415.868 L1471.14 416.315 L1473.33 416.762 L1475.98 417.209 L1479.1 417.657 L1482.71 418.104 L1486.8 418.551 L1491.37 418.998 L1496.4 419.445 L1501.89 419.892 L2015.6 419.892  Z" fill="#e26f46" fill-rule="evenodd" fill-opacity="1"/>
<polyline clip-path="url(#clip841)" style="stroke:#000000; stroke-linecap:round; stroke-linejoin:round; stroke-width:4; stroke-opacity:1; fill:none" points="2015.6,419.892 2021.09,419.445 2026.12,418.998 2030.69,418.551 2034.78,418.104 2038.38,417.657 2041.51,417.209 2044.16,416.762 2046.35,416.315 2048.09,415.868 2049.4,415.421 2050.3,414.974 2050.82,414.527 2050.99,414.079 2050.84,413.632 2050.4,413.185 2049.72,412.738 2048.82,412.291 2047.75,411.844 2046.55,411.397 2045.25,410.949 2043.89,410.502 2042.52,410.055 2041.15,409.608 2039.84,409.161 2038.6,408.714 2037.48,408.267 2036.48,407.819 2035.65,407.372 2034.99,406.925 2034.52,406.478 2034.26,406.031 2034.2,405.584 2034.36,405.137 2034.72,404.689 2035.28,404.242 2036.04,403.795 2036.96,403.348 2038.04,402.901 2039.25,402.454 2040.55,402.007 2041.92,401.559 2043.32,401.112 2044.7,400.665 2046.03,400.218 2047.27,399.771 2048.36,399.324 2049.26,398.877 2049.93,398.429 2050.31,397.982 2050.38,397.535 2050.08,397.088 2049.37,396.641 2048.23,396.194 2046.62,395.747 2044.51,395.299 2041.89,394.852 2038.74,394.405 1478.75,394.405 1475.6,394.852 1472.98,395.299 1470.87,395.747 1469.26,396.194 1468.12,396.641 1467.41,397.088 1467.11,397.535 1467.18,397.982 1467.56,398.429 1468.23,398.877 1469.13,399.324 1470.22,399.771 1471.45,400.218 1472.79,400.665 1474.17,401.112 1475.57,401.559 1476.94,402.007 1478.24,402.454 1479.45,402.901 1480.53,403.348 1481.45,403.795 1482.21,404.242 1482.77,404.689 1483.13,405.137 1483.29,405.584 1483.23,406.031 1482.97,406.478 1482.5,406.925 1481.84,407.372 1481.01,407.819 1480.01,408.267 1478.89,408.714 1477.65,409.161 1476.34,409.608 1474.97,410.055 1473.59,410.502 1472.24,410.949 1470.94,411.397 1469.73,411.844 1468.66,412.291 1467.77,412.738 1467.08,413.185 1466.65,413.632 1466.5,414.079 1466.67,414.527 1467.19,414.974 1468.09,415.421 1469.4,415.868 1471.14,416.315 1473.33,416.762 1475.98,417.209 1479.1,417.657 1482.71,418.104 1486.8,418.551 1491.37,418.998 1496.4,419.445 1501.89,419.892 2015.6,419.892 "/>
<path clip-path="url(#clip841)" d="M3008.67 123.176 L3019.35 122.882 L3029.12 122.589 L3037.92 122.295 L3045.7 122.001 L3052.46 121.707 L3058.2 121.414 L3062.95 121.12 L3066.76 120.826 L3069.69 120.533 L3071.8 120.239 L3073.16 119.945 L3073.82 119.651 L3073.85 119.358 L3073.28 119.064 L3072.14 118.77 L3070.45 118.476 L3068.2 118.183 L3065.38 117.889 L3061.96 117.595 L3057.9 117.301 L3053.17 117.008 L3047.73 116.714 L3041.52 116.42 L3034.54 116.126 L3026.76 115.833 L3018.18 115.539 L3008.82 115.245 L2998.72 114.951 L2987.94 114.658 L2976.57 114.364 L2964.71 114.07 L2952.47 113.776 L2939.99 113.483 L2927.4 113.189 L2914.85 112.895 L2902.47 112.601 L2890.41 112.308 L2878.78 112.014 L2867.7 111.72 L2857.26 111.426 L2847.53 111.133 L2838.56 110.839 L2830.39 110.545 L2823.02 110.252 L2816.45 109.958 L2810.66 109.664 L2805.61 109.37 L2801.26 109.077 L2797.55 108.783 L2794.42 108.489 L2791.8 108.195 L2789.65 107.902 L2787.89 107.608 L2786.46 107.314 L2785.33 107.02 L2784.43 106.727 L2783.73 106.433 L2783.18 106.139 L2782.77 105.845 L2782.45 105.552 L2782.22 105.258 L2782.04 104.964 L2781.91 104.67 L2781.82 104.377 L2781.76 104.083 L2781.71 103.789 L2781.67 103.495 L2781.65 103.202 L2781.64 102.908 L2781.63 102.614 L2781.62 102.32 L2781.61 102.027 L2781.61 101.733 L2781.61 101.439 L2781.61 101.145 L2781.61 100.852 L2781.62 100.558 L2781.63 100.264 L2781.64 99.9705 L2781.65 99.6768 L2781.68 99.383 L2781.71 99.0893 L2781.76 98.7955 L2781.82 98.5018 L2781.92 98.2081 L2782.04 97.9143 L2782.22 97.6206 L2782.45 97.3268 L2782.76 97.0331 L2783.16 96.7393 L2783.69 96.4456 L2784.37 96.1519 L2785.23 95.8581 L2786.31 95.5644 L2787.66 95.2706 L2789.31 94.9769 L2791.31 94.6831 L2793.7 94.3894 L2796.54 94.0957 L2799.85 93.8019 L2803.68 93.5082 L2808.04 93.2144 L2812.94 92.9207 L2818.37 92.6269 L2824.31 92.3332 L2830.71 92.0395 L2837.5 91.7457 L2844.6 91.452 L2851.87 91.1582 L2859.19 90.8645 L2866.42 90.5707 L2873.38 90.277 L2879.92 89.9833 L2885.86 89.6895 L2891.04 89.3958 L2895.33 89.102 L2898.59 88.8083 L2900.73 88.5145 L2901.69 88.2208 L2661.52 88.2208 L2662.48 88.5145 L2664.62 88.8083 L2667.88 89.102 L2672.17 89.3958 L2677.35 89.6895 L2683.29 89.9833 L2689.82 90.277 L2696.79 90.5707 L2704.01 90.8645 L2711.34 91.1582 L2718.61 91.452 L2725.7 91.7457 L2732.5 92.0395 L2738.9 92.3332 L2744.84 92.6269 L2750.27 92.9207 L2755.17 93.2144 L2759.53 93.5082 L2763.36 93.8019 L2766.67 94.0957 L2769.51 94.3894 L2771.9 94.6831 L2773.9 94.9769 L2775.55 95.2706 L2776.89 95.5644 L2777.98 95.8581 L2778.84 96.1519 L2779.52 96.4456 L2780.05 96.7393 L2780.45 97.0331 L2780.76 97.3268 L2780.99 97.6206 L2781.17 97.9143 L2781.29 98.2081 L2781.38 98.5018 L2781.45 98.7955 L2781.5 99.0893 L2781.53 99.383 L2781.56 99.6768 L2781.57 99.9705 L2781.58 100.264 L2781.59 100.558 L2781.59 100.852 L2781.6 101.145 L2781.6 101.439 L2781.6 101.733 L2781.59 102.027 L2781.59 102.32 L2781.58 102.614 L2781.57 102.908 L2781.56 103.202 L2781.53 103.495 L2781.5 103.789 L2781.45 104.083 L2781.39 104.377 L2781.29 104.67 L2781.17 104.964 L2780.99 105.258 L2780.76 105.552 L2780.44 105.845 L2780.03 106.139 L2779.48 106.433 L2778.78 106.727 L2777.88 107.02 L2776.75 107.314 L2775.32 107.608 L2773.56 107.902 L2771.4 108.195 L2768.79 108.489 L2765.66 108.783 L2761.95 109.077 L2757.59 109.37 L2752.55 109.664 L2746.76 109.958 L2740.19 110.252 L2732.82 110.545 L2724.65 110.839 L2715.68 111.133 L2705.95 111.426 L2695.5 111.72 L2684.42 112.014 L2672.8 112.308 L2660.73 112.601 L2648.36 112.895 L2635.81 113.189 L2623.22 113.483 L2610.73 113.776 L2598.5 114.07 L2586.63 114.364 L2575.26 114.658 L2564.49 114.951 L2554.39 115.245 L2545.03 115.539 L2536.45 115.833 L2528.67 116.126 L2521.68 116.42 L2515.48 116.714 L2510.03 117.008 L2505.3 117.301 L2501.25 117.595 L2497.83 117.889 L2495.01 118.183 L2492.76 118.476 L2491.07 118.77 L2489.93 119.064 L2489.36 119.358 L2489.38 119.651 L2490.05 119.945 L2491.41 120.239 L2493.52 120.533 L2496.45 120.826 L2500.26 121.12 L2505.01 121.414 L2510.75 121.707 L2517.51 122.001 L2525.29 122.295 L2534.09 122.589 L2543.86 122.882 L2554.54 123.176 L3008.67 123.176  Z" fill="#3da44d" fill-rule="evenodd" fill-opacity="1"/>
<polyline clip-path="url(#clip841)" style="stroke:#000000; stroke-linecap:round; stroke-linejoin:round; stroke-width:4; stroke-opacity:1; fill:none" points="3008.67,123.176 3019.35,122.882 3029.12,122.589 3037.92,122.295 3045.7,122.001 3052.46,121.707 3058.2,121.414 3062.95,121.12 3066.76,120.826 3069.69,120.533 3071.8,120.239 3073.16,119.945 3073.82,119.651 3073.85,119.358 3073.28,119.064 3072.14,118.77 3070.45,118.476 3068.2,118.183 3065.38,117.889 3061.96,117.595 3057.9,117.301 3053.17,117.008 3047.73,116.714 3041.52,116.42 3034.54,116.126 3026.76,115.833 3018.18,115.539 3008.82,115.245 2998.72,114.951 2987.94,114.658 2976.57,114.364 2964.71,114.07 2952.47,113.776 2939.99,113.483 2927.4,113.189 2914.85,112.895 2902.47,112.601 2890.41,112.308 2878.78,112.014 2867.7,111.72 2857.26,111.426 2847.53,111.133 2838.56,110.839 2830.39,110.545 2823.02,110.252 2816.45,109.958 2810.66,109.664 2805.61,109.37 2801.26,109.077 2797.55,108.783 2794.42,108.489 2791.8,108.195 2789.65,107.902 2787.89,107.608 2786.46,107.314 2785.33,107.02 2784.43,106.727 2783.73,106.433 2783.18,106.139 2782.77,105.845 2782.45,105.552 2782.22,105.258 2782.04,104.964 2781.91,104.67 2781.82,104.377 2781.76,104.083 2781.71,103.789 2781.67,103.495 2781.65,103.202 2781.64,102.908 2781.63,102.614 2781.62,102.32 2781.61,102.027 2781.61,101.733 2781.61,101.439 2781.61,101.145 2781.61,100.852 2781.62,100.558 2781.63,100.264 2781.64,99.9705 2781.65,99.6768 2781.68,99.383 2781.71,99.0893 2781.76,98.7955 2781.82,98.5018 2781.92,98.2081 2782.04,97.9143 2782.22,97.6206 2782.45,97.3268 2782.76,97.0331 2783.16,96.7393 2783.69,96.4456 2784.37,96.1519 2785.23,95.8581 2786.31,95.5644 2787.66,95.2706 2789.31,94.9769 2791.31,94.6831 2793.7,94.3894 2796.54,94.0957 2799.85,93.8019 2803.68,93.5082 2808.04,93.2144 2812.94,92.9207 2818.37,92.6269 2824.31,92.3332 2830.71,92.0395 2837.5,91.7457 2844.6,91.452 2851.87,91.1582 2859.19,90.8645 2866.42,90.5707 2873.38,90.277 2879.92,89.9833 2885.86,89.6895 2891.04,89.3958 2895.33,89.102 2898.59,88.8083 2900.73,88.5145 2901.69,88.2208 2661.52,88.2208 2662.48,88.5145 2664.62,88.8083 2667.88,89.102 2672.17,89.3958 2677.35,89.6895 2683.29,89.9833 2689.82,90.277 2696.79,90.5707 2704.01,90.8645 2711.34,91.1582 2718.61,91.452 2725.7,91.7457 2732.5,92.0395 2738.9,92.3332 2744.84,92.6269 2750.27,92.9207 2755.17,93.2144 2759.53,93.5082 2763.36,93.8019 2766.67,94.0957 2769.51,94.3894 2771.9,94.6831 2773.9,94.9769 2775.55,95.2706 2776.89,95.5644 2777.98,95.8581 2778.84,96.1519 2779.52,96.4456 2780.05,96.7393 2780.45,97.0331 2780.76,97.3268 2780.99,97.6206 2781.17,97.9143 2781.29,98.2081 2781.38,98.5018 2781.45,98.7955 2781.5,99.0893 2781.53,99.383 2781.56,99.6768 2781.57,99.9705 2781.58,100.264 2781.59,100.558 2781.59,100.852 2781.6,101.145 2781.6,101.439 2781.6,101.733 2781.59,102.027 2781.59,102.32 2781.58,102.614 2781.57,102.908 2781.56,103.202 2781.53,103.495 2781.5,103.789 2781.45,104.083 2781.39,104.377 2781.29,104.67 2781.17,104.964 2780.99,105.258 2780.76,105.552 2780.44,105.845 2780.03,106.139 2779.48,106.433 2778.78,106.727 2777.88,107.02 2776.75,107.314 2775.32,107.608 2773.56,107.902 2771.4,108.195 2768.79,108.489 2765.66,108.783 2761.95,109.077 2757.59,109.37 2752.55,109.664 2746.76,109.958 2740.19,110.252 2732.82,110.545 2724.65,110.839 2715.68,111.133 2705.95,111.426 2695.5,111.72 2684.42,112.014 2672.8,112.308 2660.73,112.601 2648.36,112.895 2635.81,113.189 2623.22,113.483 2610.73,113.776 2598.5,114.07 2586.63,114.364 2575.26,114.658 2564.49,114.951 2554.39,115.245 2545.03,115.539 2536.45,115.833 2528.67,116.126 2521.68,116.42 2515.48,116.714 2510.03,117.008 2505.3,117.301 2501.25,117.595 2497.83,117.889 2495.01,118.183 2492.76,118.476 2491.07,118.77 2489.93,119.064 2489.36,119.358 2489.38,119.651 2490.05,119.945 2491.41,120.239 2493.52,120.533 2496.45,120.826 2500.26,121.12 2505.01,121.414 2510.75,121.707 2517.51,122.001 2525.29,122.295 2534.09,122.589 2543.86,122.882 2554.54,123.176 3008.67,123.176 "/>
</svg>
