<?xml version="1.0" encoding="utf-8"?>
<svg xmlns="http://www.w3.org/2000/svg" xmlns:xlink="http://www.w3.org/1999/xlink" width="800" height="400" viewBox="0 0 3200 1600">
<defs>
  <clipPath id="clip590">
    <rect x="0" y="0" width="3200" height="1600"/>
  </clipPath>
</defs>
<path clip-path="url(#clip590)" d="M0 1600 L3200 1600 L3200 0 L0 0  Z" fill="#ffffff" fill-rule="evenodd" fill-opacity="1"/>
<defs>
  <clipPath id="clip591">
    <rect x="640" y="0" width="2241" height="1600"/>
  </clipPath>
</defs>
<path clip-path="url(#clip590)" d="M364.733 1495.09 L3152.76 1495.09 L3152.76 47.2441 L364.733 47.2441  Z" fill="#ffffff" fill-rule="evenodd" fill-opacity="1"/>
<defs>
  <clipPath id="clip592">
    <rect x="364" y="47" width="2789" height="1449"/>
  </clipPath>
</defs>
<polyline clip-path="url(#clip592)" style="stroke:#000000; stroke-linecap:round; stroke-linejoin:round; stroke-width:2; stroke-opacity:0.1; fill:none" points="654.056,1495.09 654.056,47.2441 "/>
<polyline clip-path="url(#clip592)" style="stroke:#000000; stroke-linecap:round; stroke-linejoin:round; stroke-width:2; stroke-opacity:0.1; fill:none" points="1390.51,1495.09 1390.51,47.2441 "/>
<polyline clip-path="url(#clip592)" style="stroke:#000000; stroke-linecap:round; stroke-linejoin:round; stroke-width:2; stroke-opacity:0.1; fill:none" points="2126.97,1495.09 2126.97,47.2441 "/>
<polyline clip-path="url(#clip592)" style="stroke:#000000; stroke-linecap:round; stroke-linejoin:round; stroke-width:2; stroke-opacity:0.1; fill:none" points="2863.43,1495.09 2863.43,47.2441 "/>
<polyline clip-path="url(#clip592)" style="stroke:#000000; stroke-linecap:round; stroke-linejoin:round; stroke-width:2; stroke-opacity:0.1; fill:none" points="364.733,1218.4 3152.76,1218.4 "/>
<polyline clip-path="url(#clip592)" style="stroke:#000000; stroke-linecap:round; stroke-linejoin:round; stroke-width:2; stroke-opacity:0.1; fill:none" points="364.733,892.953 3152.76,892.953 "/>
<polyline clip-path="url(#clip592)" style="stroke:#000000; stroke-linecap:round; stroke-linejoin:round; stroke-width:2; stroke-opacity:0.1; fill:none" points="364.733,567.505 3152.76,567.505 "/>
<polyline clip-path="url(#clip592)" style="stroke:#000000; stroke-linecap:round; stroke-linejoin:round; stroke-width:2; stroke-opacity:0.1; fill:none" points="364.733,242.057 3152.76,242.057 "/>
<polyline clip-path="url(#clip590)" style="stroke:#000000; stroke-linecap:round; stroke-linejoin:round; stroke-width:4; stroke-opacity:1; fill:none" points="364.733,1495.09 3152.76,1495.09 "/>
<polyline clip-path="url(#clip590)" style="stroke:#000000; stroke-linecap:round; stroke-linejoin:round; stroke-width:4; stroke-opacity:1; fill:none" points="654.056,1495.09 654.056,1476.19 "/>
<polyline clip-path="url(#clip590)" style="stroke:#000000; stroke-linecap:round; stroke-linejoin:round; stroke-width:4; stroke-opacity:1; fill:none" points="1390.51,1495.09 1390.51,1476.19 "/>
<polyline clip-path="url(#clip590)" style="stroke:#000000; stroke-linecap:round; stroke-linejoin:round; stroke-width:4; stroke-opacity:1; fill:none" points="2126.97,1495.09 2126.97,1476.19 "/>
<polyline clip-path="url(#clip590)" style="stroke:#000000; stroke-linecap:round; stroke-linejoin:round; stroke-width:4; stroke-opacity:1; fill:none" points="2863.43,1495.09 2863.43,1476.19 "/>
<path clip-path="url(#clip590)" d="M463.791 1547.68 Q465.295 1548.19 466.707 1549.86 Q468.142 1551.53 469.578 1554.44 L474.323 1563.89 L469.3 1563.89 L464.879 1555.02 Q463.166 1551.55 461.545 1550.42 Q459.948 1549.28 457.17 1549.28 L452.078 1549.28 L452.078 1563.89 L447.402 1563.89 L447.402 1529.33 L457.957 1529.33 Q463.883 1529.33 466.8 1531.8 Q469.716 1534.28 469.716 1539.28 Q469.716 1542.55 468.189 1544.7 Q466.684 1546.85 463.791 1547.68 M452.078 1533.17 L452.078 1545.44 L457.957 1545.44 Q461.337 1545.44 463.05 1543.89 Q464.786 1542.31 464.786 1539.28 Q464.786 1536.25 463.05 1534.72 Q461.337 1533.17 457.957 1533.17 L452.078 1533.17 Z" fill="#000000" fill-rule="nonzero" fill-opacity="1" /><path clip-path="url(#clip590)" d="M480.341 1529.33 L500.202 1529.33 L500.202 1533.26 L485.017 1533.26 L485.017 1543.45 L498.721 1543.45 L498.721 1547.38 L485.017 1547.38 L485.017 1563.89 L480.341 1563.89 L480.341 1529.33 Z" fill="#000000" fill-rule="nonzero" fill-opacity="1" /><path clip-path="url(#clip590)" d="M507.61 1529.33 L512.286 1529.33 L512.286 1559.95 L529.114 1559.95 L529.114 1563.89 L507.61 1563.89 L507.61 1529.33 Z" fill="#000000" fill-rule="nonzero" fill-opacity="1" /><path clip-path="url(#clip590)" d="M531.128 1529.33 L535.827 1529.33 L535.827 1550.32 Q535.827 1555.88 537.841 1558.33 Q539.855 1560.76 544.369 1560.76 Q548.86 1560.76 550.873 1558.33 Q552.887 1555.88 552.887 1550.32 L552.887 1529.33 L557.586 1529.33 L557.586 1550.9 Q557.586 1557.66 554.23 1561.11 Q550.897 1564.56 544.369 1564.56 Q537.818 1564.56 534.461 1561.11 Q531.128 1557.66 531.128 1550.9 L531.128 1529.33 Z" fill="#000000" fill-rule="nonzero" fill-opacity="1" /><path clip-path="url(#clip590)" d="M566.359 1529.33 L586.22 1529.33 L586.22 1533.26 L571.035 1533.26 L571.035 1543.45 L584.739 1543.45 L584.739 1547.38 L571.035 1547.38 L571.035 1563.89 L566.359 1563.89 L566.359 1529.33 Z" fill="#000000" fill-rule="nonzero" fill-opacity="1" /><path clip-path="url(#clip590)" d="M600.873 1550.86 Q595.711 1550.86 593.72 1552.04 Q591.73 1553.22 591.73 1556.06 Q591.73 1558.33 593.211 1559.67 Q594.716 1560.99 597.285 1560.99 Q600.827 1560.99 602.956 1558.49 Q605.109 1555.97 605.109 1551.8 L605.109 1550.86 L600.873 1550.86 M609.368 1549.1 L609.368 1563.89 L605.109 1563.89 L605.109 1559.95 Q603.651 1562.31 601.475 1563.45 Q599.299 1564.56 596.151 1564.56 Q592.17 1564.56 589.808 1562.34 Q587.47 1560.09 587.47 1556.34 Q587.47 1551.97 590.387 1549.74 Q593.327 1547.52 599.137 1547.52 L605.109 1547.52 L605.109 1547.11 Q605.109 1544.17 603.165 1542.57 Q601.244 1540.95 597.748 1540.95 Q595.526 1540.95 593.42 1541.48 Q591.313 1542.01 589.369 1543.08 L589.369 1539.14 Q591.707 1538.24 593.906 1537.8 Q596.105 1537.34 598.188 1537.34 Q603.813 1537.34 606.591 1540.25 Q609.368 1543.17 609.368 1549.1 Z" fill="#000000" fill-rule="nonzero" fill-opacity="1" /><path clip-path="url(#clip590)" d="M636.799 1538.96 L636.799 1542.94 Q634.993 1541.94 633.165 1541.46 Q631.359 1540.95 629.507 1540.95 Q625.364 1540.95 623.072 1543.59 Q620.78 1546.2 620.78 1550.95 Q620.78 1555.69 623.072 1558.33 Q625.364 1560.95 629.507 1560.95 Q631.359 1560.95 633.165 1560.46 Q634.993 1559.95 636.799 1558.96 L636.799 1562.89 Q635.017 1563.73 633.095 1564.14 Q631.197 1564.56 629.044 1564.56 Q623.188 1564.56 619.739 1560.88 Q616.29 1557.2 616.29 1550.95 Q616.29 1544.61 619.762 1540.97 Q623.257 1537.34 629.322 1537.34 Q631.29 1537.34 633.165 1537.75 Q635.04 1538.15 636.799 1538.96 Z" fill="#000000" fill-rule="nonzero" fill-opacity="1" /><path clip-path="url(#clip590)" d="M648.419 1530.6 L648.419 1537.96 L657.192 1537.96 L657.192 1541.27 L648.419 1541.27 L648.419 1555.35 Q648.419 1558.52 649.276 1559.42 Q650.155 1560.32 652.817 1560.32 L657.192 1560.32 L657.192 1563.89 L652.817 1563.89 Q647.887 1563.89 646.012 1562.06 Q644.137 1560.21 644.137 1555.35 L644.137 1541.27 L641.012 1541.27 L641.012 1537.96 L644.137 1537.96 L644.137 1530.6 L648.419 1530.6 Z" fill="#000000" fill-rule="nonzero" fill-opacity="1" /><path clip-path="url(#clip590)" d="M672.84 1540.95 Q669.414 1540.95 667.424 1543.63 Q665.433 1546.3 665.433 1550.95 Q665.433 1555.6 667.401 1558.29 Q669.391 1560.95 672.84 1560.95 Q676.243 1560.95 678.234 1558.26 Q680.225 1555.58 680.225 1550.95 Q680.225 1546.34 678.234 1543.66 Q676.243 1540.95 672.84 1540.95 M672.84 1537.34 Q678.396 1537.34 681.567 1540.95 Q684.738 1544.56 684.738 1550.95 Q684.738 1557.31 681.567 1560.95 Q678.396 1564.56 672.84 1564.56 Q667.262 1564.56 664.09 1560.95 Q660.942 1557.31 660.942 1550.95 Q660.942 1544.56 664.09 1540.95 Q667.262 1537.34 672.84 1537.34 Z" fill="#000000" fill-rule="nonzero" fill-opacity="1" /><path clip-path="url(#clip590)" d="M706.822 1541.94 Q706.104 1541.53 705.248 1541.34 Q704.414 1541.13 703.396 1541.13 Q699.785 1541.13 697.84 1543.49 Q695.919 1545.83 695.919 1550.23 L695.919 1563.89 L691.637 1563.89 L691.637 1537.96 L695.919 1537.96 L695.919 1541.99 Q697.262 1539.63 699.414 1538.49 Q701.567 1537.34 704.646 1537.34 Q705.086 1537.34 705.618 1537.41 Q706.15 1537.45 706.799 1537.57 L706.822 1541.94 Z" fill="#000000" fill-rule="nonzero" fill-opacity="1" /><path clip-path="url(#clip590)" d="M711.289 1537.96 L715.548 1537.96 L715.548 1563.89 L711.289 1563.89 L711.289 1537.96 M711.289 1527.87 L715.548 1527.87 L715.548 1533.26 L711.289 1533.26 L711.289 1527.87 Z" fill="#000000" fill-rule="nonzero" fill-opacity="1" /><path clip-path="url(#clip590)" d="M722.609 1537.96 L742.84 1537.96 L742.84 1541.85 L726.822 1560.49 L742.84 1560.49 L742.84 1563.89 L722.03 1563.89 L722.03 1560 L738.048 1541.36 L722.609 1541.36 L722.609 1537.96 Z" fill="#000000" fill-rule="nonzero" fill-opacity="1" /><path clip-path="url(#clip590)" d="M761.127 1550.86 Q755.965 1550.86 753.974 1552.04 Q751.983 1553.22 751.983 1556.06 Q751.983 1558.33 753.465 1559.67 Q754.97 1560.99 757.539 1560.99 Q761.081 1560.99 763.21 1558.49 Q765.363 1555.97 765.363 1551.8 L765.363 1550.86 L761.127 1550.86 M769.622 1549.1 L769.622 1563.89 L765.363 1563.89 L765.363 1559.95 Q763.905 1562.31 761.729 1563.45 Q759.553 1564.56 756.405 1564.56 Q752.423 1564.56 750.062 1562.34 Q747.724 1560.09 747.724 1556.34 Q747.724 1551.97 750.641 1549.74 Q753.581 1547.52 759.391 1547.52 L765.363 1547.52 L765.363 1547.11 Q765.363 1544.17 763.419 1542.57 Q761.497 1540.95 758.002 1540.95 Q755.78 1540.95 753.673 1541.48 Q751.567 1542.01 749.622 1543.08 L749.622 1539.14 Q751.96 1538.24 754.159 1537.8 Q756.358 1537.34 758.442 1537.34 Q764.067 1537.34 766.844 1540.25 Q769.622 1543.17 769.622 1549.1 Z" fill="#000000" fill-rule="nonzero" fill-opacity="1" /><path clip-path="url(#clip590)" d="M782.608 1530.6 L782.608 1537.96 L791.381 1537.96 L791.381 1541.27 L782.608 1541.27 L782.608 1555.35 Q782.608 1558.52 783.465 1559.42 Q784.344 1560.32 787.006 1560.32 L791.381 1560.32 L791.381 1563.89 L787.006 1563.89 Q782.076 1563.89 780.201 1562.06 Q778.326 1560.21 778.326 1555.35 L778.326 1541.27 L775.201 1541.27 L775.201 1537.96 L778.326 1537.96 L778.326 1530.6 L782.608 1530.6 Z" fill="#000000" fill-rule="nonzero" fill-opacity="1" /><path clip-path="url(#clip590)" d="M796.983 1537.96 L801.242 1537.96 L801.242 1563.89 L796.983 1563.89 L796.983 1537.96 M796.983 1527.87 L801.242 1527.87 L801.242 1533.26 L796.983 1533.26 L796.983 1527.87 Z" fill="#000000" fill-rule="nonzero" fill-opacity="1" /><path clip-path="url(#clip590)" d="M820.201 1540.95 Q816.775 1540.95 814.784 1543.63 Q812.793 1546.3 812.793 1550.95 Q812.793 1555.6 814.761 1558.29 Q816.752 1560.95 820.201 1560.95 Q823.603 1560.95 825.594 1558.26 Q827.585 1555.58 827.585 1550.95 Q827.585 1546.34 825.594 1543.66 Q823.603 1540.95 820.201 1540.95 M820.201 1537.34 Q825.756 1537.34 828.927 1540.95 Q832.099 1544.56 832.099 1550.95 Q832.099 1557.31 828.927 1560.95 Q825.756 1564.56 820.201 1564.56 Q814.622 1564.56 811.451 1560.95 Q808.303 1557.31 808.303 1550.95 Q808.303 1544.56 811.451 1540.95 Q814.622 1537.34 820.201 1537.34 Z" fill="#000000" fill-rule="nonzero" fill-opacity="1" /><path clip-path="url(#clip590)" d="M860.71 1548.24 L860.71 1563.89 L856.451 1563.89 L856.451 1548.38 Q856.451 1544.7 855.015 1542.87 Q853.58 1541.04 850.71 1541.04 Q847.261 1541.04 845.27 1543.24 Q843.279 1545.44 843.279 1549.24 L843.279 1563.89 L838.997 1563.89 L838.997 1537.96 L843.279 1537.96 L843.279 1541.99 Q844.807 1539.65 846.867 1538.49 Q848.951 1537.34 851.659 1537.34 Q856.126 1537.34 858.418 1540.11 Q860.71 1542.87 860.71 1548.24 Z" fill="#000000" fill-rule="nonzero" fill-opacity="1" /><path clip-path="url(#clip590)" d="M1164.76 1529.33 L1171.73 1529.33 L1180.55 1552.85 L1189.42 1529.33 L1196.38 1529.33 L1196.38 1563.89 L1191.82 1563.89 L1191.82 1533.54 L1182.91 1557.24 L1178.21 1557.24 L1169.3 1533.54 L1169.3 1563.89 L1164.76 1563.89 L1164.76 1529.33 Z" fill="#000000" fill-rule="nonzero" fill-opacity="1" /><path clip-path="url(#clip590)" d="M1205.67 1529.33 L1210.34 1529.33 L1210.34 1543.93 L1225.85 1529.33 L1231.87 1529.33 L1214.72 1545.44 L1233.1 1563.89 L1226.94 1563.89 L1210.34 1547.24 L1210.34 1563.89 L1205.67 1563.89 L1205.67 1529.33 Z" fill="#000000" fill-rule="nonzero" fill-opacity="1" /><path clip-path="url(#clip590)" d="M1236.75 1529.33 L1241.43 1529.33 L1241.43 1559.95 L1258.26 1559.95 L1258.26 1563.89 L1236.75 1563.89 L1236.75 1529.33 Z" fill="#000000" fill-rule="nonzero" fill-opacity="1" /><path clip-path="url(#clip590)" d="M1263.17 1529.33 L1267.84 1529.33 L1267.84 1559.95 L1284.67 1559.95 L1284.67 1563.89 L1263.17 1563.89 L1263.17 1529.33 Z" fill="#000000" fill-rule="nonzero" fill-opacity="1" /><path clip-path="url(#clip590)" d="M1286.68 1529.33 L1291.38 1529.33 L1291.38 1550.32 Q1291.38 1555.88 1293.4 1558.33 Q1295.41 1560.76 1299.92 1560.76 Q1304.42 1560.76 1306.43 1558.33 Q1308.44 1555.88 1308.44 1550.32 L1308.44 1529.33 L1313.14 1529.33 L1313.14 1550.9 Q1313.14 1557.66 1309.79 1561.11 Q1306.45 1564.56 1299.92 1564.56 Q1293.37 1564.56 1290.02 1561.11 Q1286.68 1557.66 1286.68 1550.9 L1286.68 1529.33 Z" fill="#000000" fill-rule="nonzero" fill-opacity="1" /><path clip-path="url(#clip590)" d="M1321.92 1529.33 L1341.78 1529.33 L1341.78 1533.26 L1326.59 1533.26 L1326.59 1543.45 L1340.3 1543.45 L1340.3 1547.38 L1326.59 1547.38 L1326.59 1563.89 L1321.92 1563.89 L1321.92 1529.33 Z" fill="#000000" fill-rule="nonzero" fill-opacity="1" /><path clip-path="url(#clip590)" d="M1356.43 1550.86 Q1351.27 1550.86 1349.28 1552.04 Q1347.29 1553.22 1347.29 1556.06 Q1347.29 1558.33 1348.77 1559.67 Q1350.27 1560.99 1352.84 1560.99 Q1356.38 1560.99 1358.51 1558.49 Q1360.67 1555.97 1360.67 1551.8 L1360.67 1550.86 L1356.43 1550.86 M1364.92 1549.1 L1364.92 1563.89 L1360.67 1563.89 L1360.67 1559.95 Q1359.21 1562.31 1357.03 1563.45 Q1354.86 1564.56 1351.71 1564.56 Q1347.73 1564.56 1345.36 1562.34 Q1343.03 1560.09 1343.03 1556.34 Q1343.03 1551.97 1345.94 1549.74 Q1348.88 1547.52 1354.69 1547.52 L1360.67 1547.52 L1360.67 1547.11 Q1360.67 1544.17 1358.72 1542.57 Q1356.8 1540.95 1353.3 1540.95 Q1351.08 1540.95 1348.98 1541.48 Q1346.87 1542.01 1344.92 1543.08 L1344.92 1539.14 Q1347.26 1538.24 1349.46 1537.8 Q1351.66 1537.34 1353.74 1537.34 Q1359.37 1537.34 1362.15 1540.25 Q1364.92 1543.17 1364.92 1549.1 Z" fill="#000000" fill-rule="nonzero" fill-opacity="1" /><path clip-path="url(#clip590)" d="M1392.36 1538.96 L1392.36 1542.94 Q1390.55 1541.94 1388.72 1541.46 Q1386.92 1540.95 1385.06 1540.95 Q1380.92 1540.95 1378.63 1543.59 Q1376.34 1546.2 1376.34 1550.95 Q1376.34 1555.69 1378.63 1558.33 Q1380.92 1560.95 1385.06 1560.95 Q1386.92 1560.95 1388.72 1560.46 Q1390.55 1559.95 1392.36 1558.96 L1392.36 1562.89 Q1390.57 1563.73 1388.65 1564.14 Q1386.75 1564.56 1384.6 1564.56 Q1378.74 1564.56 1375.29 1560.88 Q1371.85 1557.2 1371.85 1550.95 Q1371.85 1544.61 1375.32 1540.97 Q1378.81 1537.34 1384.88 1537.34 Q1386.85 1537.34 1388.72 1537.75 Q1390.6 1538.15 1392.36 1538.96 Z" fill="#000000" fill-rule="nonzero" fill-opacity="1" /><path clip-path="url(#clip590)" d="M1403.98 1530.6 L1403.98 1537.96 L1412.75 1537.96 L1412.75 1541.27 L1403.98 1541.27 L1403.98 1555.35 Q1403.98 1558.52 1404.83 1559.42 Q1405.71 1560.32 1408.37 1560.32 L1412.75 1560.32 L1412.75 1563.89 L1408.37 1563.89 Q1403.44 1563.89 1401.57 1562.06 Q1399.69 1560.21 1399.69 1555.35 L1399.69 1541.27 L1396.57 1541.27 L1396.57 1537.96 L1399.69 1537.96 L1399.69 1530.6 L1403.98 1530.6 Z" fill="#000000" fill-rule="nonzero" fill-opacity="1" /><path clip-path="url(#clip590)" d="M1428.4 1540.95 Q1424.97 1540.95 1422.98 1543.63 Q1420.99 1546.3 1420.99 1550.95 Q1420.99 1555.6 1422.96 1558.29 Q1424.95 1560.95 1428.4 1560.95 Q1431.8 1560.95 1433.79 1558.26 Q1435.78 1555.58 1435.78 1550.95 Q1435.78 1546.34 1433.79 1543.66 Q1431.8 1540.95 1428.4 1540.95 M1428.4 1537.34 Q1433.95 1537.34 1437.12 1540.95 Q1440.29 1544.56 1440.29 1550.95 Q1440.29 1557.31 1437.12 1560.95 Q1433.95 1564.56 1428.4 1564.56 Q1422.82 1564.56 1419.65 1560.95 Q1416.5 1557.31 1416.5 1550.95 Q1416.5 1544.56 1419.65 1540.95 Q1422.82 1537.34 1428.4 1537.34 Z" fill="#000000" fill-rule="nonzero" fill-opacity="1" /><path clip-path="url(#clip590)" d="M1462.38 1541.94 Q1461.66 1541.53 1460.8 1541.34 Q1459.97 1541.13 1458.95 1541.13 Q1455.34 1541.13 1453.4 1543.49 Q1451.48 1545.83 1451.48 1550.23 L1451.48 1563.89 L1447.19 1563.89 L1447.19 1537.96 L1451.48 1537.96 L1451.48 1541.99 Q1452.82 1539.63 1454.97 1538.49 Q1457.12 1537.34 1460.2 1537.34 Q1460.64 1537.34 1461.17 1537.41 Q1461.71 1537.45 1462.35 1537.57 L1462.38 1541.94 Z" fill="#000000" fill-rule="nonzero" fill-opacity="1" /><path clip-path="url(#clip590)" d="M1466.85 1537.96 L1471.1 1537.96 L1471.1 1563.89 L1466.85 1563.89 L1466.85 1537.96 M1466.85 1527.87 L1471.1 1527.87 L1471.1 1533.26 L1466.85 1533.26 L1466.85 1527.87 Z" fill="#000000" fill-rule="nonzero" fill-opacity="1" /><path clip-path="url(#clip590)" d="M1478.16 1537.96 L1498.4 1537.96 L1498.4 1541.85 L1482.38 1560.49 L1498.4 1560.49 L1498.4 1563.89 L1477.59 1563.89 L1477.59 1560 L1493.6 1541.36 L1478.16 1541.36 L1478.16 1537.96 Z" fill="#000000" fill-rule="nonzero" fill-opacity="1" /><path clip-path="url(#clip590)" d="M1516.68 1550.86 Q1511.52 1550.86 1509.53 1552.04 Q1507.54 1553.22 1507.54 1556.06 Q1507.54 1558.33 1509.02 1559.67 Q1510.53 1560.99 1513.1 1560.99 Q1516.64 1560.99 1518.77 1558.49 Q1520.92 1555.97 1520.92 1551.8 L1520.92 1550.86 L1516.68 1550.86 M1525.18 1549.1 L1525.18 1563.89 L1520.92 1563.89 L1520.92 1559.95 Q1519.46 1562.31 1517.28 1563.45 Q1515.11 1564.56 1511.96 1564.56 Q1507.98 1564.56 1505.62 1562.34 Q1503.28 1560.09 1503.28 1556.34 Q1503.28 1551.97 1506.2 1549.74 Q1509.14 1547.52 1514.95 1547.52 L1520.92 1547.52 L1520.92 1547.11 Q1520.92 1544.17 1518.97 1542.57 Q1517.05 1540.95 1513.56 1540.95 Q1511.34 1540.95 1509.23 1541.48 Q1507.12 1542.01 1505.18 1543.08 L1505.18 1539.14 Q1507.52 1538.24 1509.72 1537.8 Q1511.91 1537.34 1514 1537.34 Q1519.62 1537.34 1522.4 1540.25 Q1525.18 1543.17 1525.18 1549.1 Z" fill="#000000" fill-rule="nonzero" fill-opacity="1" /><path clip-path="url(#clip590)" d="M1538.16 1530.6 L1538.16 1537.96 L1546.94 1537.96 L1546.94 1541.27 L1538.16 1541.27 L1538.16 1555.35 Q1538.16 1558.52 1539.02 1559.42 Q1539.9 1560.32 1542.56 1560.32 L1546.94 1560.32 L1546.94 1563.89 L1542.56 1563.89 Q1537.63 1563.89 1535.76 1562.06 Q1533.88 1560.21 1533.88 1555.35 L1533.88 1541.27 L1530.76 1541.27 L1530.76 1537.96 L1533.88 1537.96 L1533.88 1530.6 L1538.16 1530.6 Z" fill="#000000" fill-rule="nonzero" fill-opacity="1" /><path clip-path="url(#clip590)" d="M1552.54 1537.96 L1556.8 1537.96 L1556.8 1563.89 L1552.54 1563.89 L1552.54 1537.96 M1552.54 1527.87 L1556.8 1527.87 L1556.8 1533.26 L1552.54 1533.26 L1552.54 1527.87 Z" fill="#000000" fill-rule="nonzero" fill-opacity="1" /><path clip-path="url(#clip590)" d="M1575.76 1540.95 Q1572.33 1540.95 1570.34 1543.63 Q1568.35 1546.3 1568.35 1550.95 Q1568.35 1555.6 1570.32 1558.29 Q1572.31 1560.95 1575.76 1560.95 Q1579.16 1560.95 1581.15 1558.26 Q1583.14 1555.58 1583.14 1550.95 Q1583.14 1546.34 1581.15 1543.66 Q1579.16 1540.95 1575.76 1540.95 M1575.76 1537.34 Q1581.31 1537.34 1584.48 1540.95 Q1587.65 1544.56 1587.65 1550.95 Q1587.65 1557.31 1584.48 1560.95 Q1581.31 1564.56 1575.76 1564.56 Q1570.18 1564.56 1567.01 1560.95 Q1563.86 1557.31 1563.86 1550.95 Q1563.86 1544.56 1567.01 1540.95 Q1570.18 1537.34 1575.76 1537.34 Z" fill="#000000" fill-rule="nonzero" fill-opacity="1" /><path clip-path="url(#clip590)" d="M1616.27 1548.24 L1616.27 1563.89 L1612.01 1563.89 L1612.01 1548.38 Q1612.01 1544.7 1610.57 1542.87 Q1609.14 1541.04 1606.27 1541.04 Q1602.82 1541.04 1600.83 1543.24 Q1598.84 1545.44 1598.84 1549.24 L1598.84 1563.89 L1594.55 1563.89 L1594.55 1537.96 L1598.84 1537.96 L1598.84 1541.99 Q1600.36 1539.65 1602.42 1538.49 Q1604.51 1537.34 1607.21 1537.34 Q1611.68 1537.34 1613.97 1540.11 Q1616.27 1542.87 1616.27 1548.24 Z" fill="#000000" fill-rule="nonzero" fill-opacity="1" /><path clip-path="url(#clip590)" d="M1950.42 1529.33 L1955.1 1529.33 L1955.1 1559.95 L1971.93 1559.95 L1971.93 1563.89 L1950.42 1563.89 L1950.42 1529.33 Z" fill="#000000" fill-rule="nonzero" fill-opacity="1" /><path clip-path="url(#clip590)" d="M1973.94 1529.33 L1978.64 1529.33 L1978.64 1550.32 Q1978.64 1555.88 1980.66 1558.33 Q1982.67 1560.76 1987.18 1560.76 Q1991.67 1560.76 1993.69 1558.33 Q1995.7 1555.88 1995.7 1550.32 L1995.7 1529.33 L2000.4 1529.33 L2000.4 1550.9 Q2000.4 1557.66 1997.04 1561.11 Q1993.71 1564.56 1987.18 1564.56 Q1980.63 1564.56 1977.28 1561.11 Q1973.94 1557.66 1973.94 1550.9 L1973.94 1529.33 Z" fill="#000000" fill-rule="nonzero" fill-opacity="1" /><path clip-path="url(#clip590)" d="M2009.17 1529.33 L2029.03 1529.33 L2029.03 1533.26 L2013.85 1533.26 L2013.85 1543.45 L2027.55 1543.45 L2027.55 1547.38 L2013.85 1547.38 L2013.85 1563.89 L2009.17 1563.89 L2009.17 1529.33 Z" fill="#000000" fill-rule="nonzero" fill-opacity="1" /><path clip-path="url(#clip590)" d="M2043.69 1550.86 Q2038.53 1550.86 2036.53 1552.04 Q2034.54 1553.22 2034.54 1556.06 Q2034.54 1558.33 2036.03 1559.67 Q2037.53 1560.99 2040.1 1560.99 Q2043.64 1560.99 2045.77 1558.49 Q2047.92 1555.97 2047.92 1551.8 L2047.92 1550.86 L2043.69 1550.86 M2052.18 1549.1 L2052.18 1563.89 L2047.92 1563.89 L2047.92 1559.95 Q2046.46 1562.31 2044.29 1563.45 Q2042.11 1564.56 2038.96 1564.56 Q2034.98 1564.56 2032.62 1562.34 Q2030.28 1560.09 2030.28 1556.34 Q2030.28 1551.97 2033.2 1549.74 Q2036.14 1547.52 2041.95 1547.52 L2047.92 1547.52 L2047.92 1547.11 Q2047.92 1544.17 2045.98 1542.57 Q2044.06 1540.95 2040.56 1540.95 Q2038.34 1540.95 2036.23 1541.48 Q2034.13 1542.01 2032.18 1543.08 L2032.18 1539.14 Q2034.52 1538.24 2036.72 1537.8 Q2038.92 1537.34 2041 1537.34 Q2046.63 1537.34 2049.4 1540.25 Q2052.18 1543.17 2052.18 1549.1 Z" fill="#000000" fill-rule="nonzero" fill-opacity="1" /><path clip-path="url(#clip590)" d="M2079.61 1538.96 L2079.61 1542.94 Q2077.81 1541.94 2075.98 1541.46 Q2074.17 1540.95 2072.32 1540.95 Q2068.18 1540.95 2065.89 1543.59 Q2063.59 1546.2 2063.59 1550.95 Q2063.59 1555.69 2065.89 1558.33 Q2068.18 1560.95 2072.32 1560.95 Q2074.17 1560.95 2075.98 1560.46 Q2077.81 1559.95 2079.61 1558.96 L2079.61 1562.89 Q2077.83 1563.73 2075.91 1564.14 Q2074.01 1564.56 2071.86 1564.56 Q2066 1564.56 2062.55 1560.88 Q2059.1 1557.2 2059.1 1550.95 Q2059.1 1544.61 2062.58 1540.97 Q2066.07 1537.34 2072.14 1537.34 Q2074.1 1537.34 2075.98 1537.75 Q2077.85 1538.15 2079.61 1538.96 Z" fill="#000000" fill-rule="nonzero" fill-opacity="1" /><path clip-path="url(#clip590)" d="M2091.23 1530.6 L2091.23 1537.96 L2100.01 1537.96 L2100.01 1541.27 L2091.23 1541.27 L2091.23 1555.35 Q2091.23 1558.52 2092.09 1559.42 Q2092.97 1560.32 2095.63 1560.32 L2100.01 1560.32 L2100.01 1563.89 L2095.63 1563.89 Q2090.7 1563.89 2088.83 1562.06 Q2086.95 1560.21 2086.95 1555.35 L2086.95 1541.27 L2083.83 1541.27 L2083.83 1537.96 L2086.95 1537.96 L2086.95 1530.6 L2091.23 1530.6 Z" fill="#000000" fill-rule="nonzero" fill-opacity="1" /><path clip-path="url(#clip590)" d="M2115.65 1540.95 Q2112.23 1540.95 2110.24 1543.63 Q2108.25 1546.3 2108.25 1550.95 Q2108.25 1555.6 2110.21 1558.29 Q2112.21 1560.95 2115.65 1560.95 Q2119.06 1560.95 2121.05 1558.26 Q2123.04 1555.58 2123.04 1550.95 Q2123.04 1546.34 2121.05 1543.66 Q2119.06 1540.95 2115.65 1540.95 M2115.65 1537.34 Q2121.21 1537.34 2124.38 1540.95 Q2127.55 1544.56 2127.55 1550.95 Q2127.55 1557.31 2124.38 1560.95 Q2121.21 1564.56 2115.65 1564.56 Q2110.08 1564.56 2106.9 1560.95 Q2103.76 1557.31 2103.76 1550.95 Q2103.76 1544.56 2106.9 1540.95 Q2110.08 1537.34 2115.65 1537.34 Z" fill="#000000" fill-rule="nonzero" fill-opacity="1" /><path clip-path="url(#clip590)" d="M2149.64 1541.94 Q2148.92 1541.53 2148.06 1541.34 Q2147.23 1541.13 2146.21 1541.13 Q2142.6 1541.13 2140.65 1543.49 Q2138.73 1545.83 2138.73 1550.23 L2138.73 1563.89 L2134.45 1563.89 L2134.45 1537.96 L2138.73 1537.96 L2138.73 1541.99 Q2140.08 1539.63 2142.23 1538.49 Q2144.38 1537.34 2147.46 1537.34 Q2147.9 1537.34 2148.43 1537.41 Q2148.96 1537.45 2149.61 1537.57 L2149.64 1541.94 Z" fill="#000000" fill-rule="nonzero" fill-opacity="1" /><path clip-path="url(#clip590)" d="M2154.1 1537.96 L2158.36 1537.96 L2158.36 1563.89 L2154.1 1563.89 L2154.1 1537.96 M2154.1 1527.87 L2158.36 1527.87 L2158.36 1533.26 L2154.1 1533.26 L2154.1 1527.87 Z" fill="#000000" fill-rule="nonzero" fill-opacity="1" /><path clip-path="url(#clip590)" d="M2165.42 1537.96 L2185.65 1537.96 L2185.65 1541.85 L2169.64 1560.49 L2185.65 1560.49 L2185.65 1563.89 L2164.84 1563.89 L2164.84 1560 L2180.86 1541.36 L2165.42 1541.36 L2165.42 1537.96 Z" fill="#000000" fill-rule="nonzero" fill-opacity="1" /><path clip-path="url(#clip590)" d="M2203.94 1550.86 Q2198.78 1550.86 2196.79 1552.04 Q2194.8 1553.22 2194.8 1556.06 Q2194.8 1558.33 2196.28 1559.67 Q2197.78 1560.99 2200.35 1560.99 Q2203.89 1560.99 2206.02 1558.49 Q2208.18 1555.97 2208.18 1551.8 L2208.18 1550.86 L2203.94 1550.86 M2212.44 1549.1 L2212.44 1563.89 L2208.18 1563.89 L2208.18 1559.95 Q2206.72 1562.31 2204.54 1563.45 Q2202.37 1564.56 2199.22 1564.56 Q2195.24 1564.56 2192.88 1562.34 Q2190.54 1560.09 2190.54 1556.34 Q2190.54 1551.97 2193.45 1549.74 Q2196.39 1547.52 2202.2 1547.52 L2208.18 1547.52 L2208.18 1547.11 Q2208.18 1544.17 2206.23 1542.57 Q2204.31 1540.95 2200.82 1540.95 Q2198.59 1540.95 2196.49 1541.48 Q2194.38 1542.01 2192.44 1543.08 L2192.44 1539.14 Q2194.77 1538.24 2196.97 1537.8 Q2199.17 1537.34 2201.26 1537.34 Q2206.88 1537.34 2209.66 1540.25 Q2212.44 1543.17 2212.44 1549.1 Z" fill="#000000" fill-rule="nonzero" fill-opacity="1" /><path clip-path="url(#clip590)" d="M2225.42 1530.6 L2225.42 1537.96 L2234.2 1537.96 L2234.2 1541.27 L2225.42 1541.27 L2225.42 1555.35 Q2225.42 1558.52 2226.28 1559.42 Q2227.16 1560.32 2229.82 1560.32 L2234.2 1560.32 L2234.2 1563.89 L2229.82 1563.89 Q2224.89 1563.89 2223.01 1562.06 Q2221.14 1560.21 2221.14 1555.35 L2221.14 1541.27 L2218.01 1541.27 L2218.01 1537.96 L2221.14 1537.96 L2221.14 1530.6 L2225.42 1530.6 Z" fill="#000000" fill-rule="nonzero" fill-opacity="1" /><path clip-path="url(#clip590)" d="M2239.8 1537.96 L2244.06 1537.96 L2244.06 1563.89 L2239.8 1563.89 L2239.8 1537.96 M2239.8 1527.87 L2244.06 1527.87 L2244.06 1533.26 L2239.8 1533.26 L2239.8 1527.87 Z" fill="#000000" fill-rule="nonzero" fill-opacity="1" /><path clip-path="url(#clip590)" d="M2263.01 1540.95 Q2259.59 1540.95 2257.6 1543.63 Q2255.61 1546.3 2255.61 1550.95 Q2255.61 1555.6 2257.57 1558.29 Q2259.57 1560.95 2263.01 1560.95 Q2266.42 1560.95 2268.41 1558.26 Q2270.4 1555.58 2270.4 1550.95 Q2270.4 1546.34 2268.41 1543.66 Q2266.42 1540.95 2263.01 1540.95 M2263.01 1537.34 Q2268.57 1537.34 2271.74 1540.95 Q2274.91 1544.56 2274.91 1550.95 Q2274.91 1557.31 2271.74 1560.95 Q2268.57 1564.56 2263.01 1564.56 Q2257.44 1564.56 2254.26 1560.95 Q2251.12 1557.31 2251.12 1550.95 Q2251.12 1544.56 2254.26 1540.95 Q2257.44 1537.34 2263.01 1537.34 Z" fill="#000000" fill-rule="nonzero" fill-opacity="1" /><path clip-path="url(#clip590)" d="M2303.52 1548.24 L2303.52 1563.89 L2299.26 1563.89 L2299.26 1548.38 Q2299.26 1544.7 2297.83 1542.87 Q2296.39 1541.04 2293.52 1541.04 Q2290.07 1541.04 2288.08 1543.24 Q2286.09 1545.44 2286.09 1549.24 L2286.09 1563.89 L2281.81 1563.89 L2281.81 1537.96 L2286.09 1537.96 L2286.09 1541.99 Q2287.62 1539.65 2289.68 1538.49 Q2291.76 1537.34 2294.47 1537.34 Q2298.94 1537.34 2301.23 1540.11 Q2303.52 1542.87 2303.52 1548.24 Z" fill="#000000" fill-rule="nonzero" fill-opacity="1" /><path clip-path="url(#clip590)" d="M2771.26 1529.33 L2775.93 1529.33 L2775.93 1543.93 L2791.44 1529.33 L2797.46 1529.33 L2780.31 1545.44 L2798.69 1563.89 L2792.53 1563.89 L2775.93 1547.24 L2775.93 1563.89 L2771.26 1563.89 L2771.26 1529.33 Z" fill="#000000" fill-rule="nonzero" fill-opacity="1" /><path clip-path="url(#clip590)" d="M2817.18 1541.94 Q2816.47 1541.53 2815.61 1541.34 Q2814.78 1541.13 2813.76 1541.13 Q2810.15 1541.13 2808.2 1543.49 Q2806.28 1545.83 2806.28 1550.23 L2806.28 1563.89 L2802 1563.89 L2802 1537.96 L2806.28 1537.96 L2806.28 1541.99 Q2807.62 1539.63 2809.78 1538.49 Q2811.93 1537.34 2815.01 1537.34 Q2815.45 1537.34 2815.98 1537.41 Q2816.51 1537.45 2817.16 1537.57 L2817.18 1541.94 Z" fill="#000000" fill-rule="nonzero" fill-opacity="1" /><path clip-path="url(#clip590)" d="M2832.44 1566.3 Q2830.63 1570.92 2828.92 1572.34 Q2827.21 1573.75 2824.34 1573.75 L2820.93 1573.75 L2820.93 1570.18 L2823.43 1570.18 Q2825.19 1570.18 2826.16 1569.35 Q2827.14 1568.52 2828.32 1565.42 L2829.08 1563.47 L2818.6 1537.96 L2823.11 1537.96 L2831.21 1558.24 L2839.31 1537.96 L2843.83 1537.96 L2832.44 1566.3 Z" fill="#000000" fill-rule="nonzero" fill-opacity="1" /><path clip-path="url(#clip590)" d="M2849.71 1527.87 L2853.97 1527.87 L2853.97 1563.89 L2849.71 1563.89 L2849.71 1527.87 Z" fill="#000000" fill-rule="nonzero" fill-opacity="1" /><path clip-path="url(#clip590)" d="M2872.92 1540.95 Q2869.5 1540.95 2867.51 1543.63 Q2865.52 1546.3 2865.52 1550.95 Q2865.52 1555.6 2867.48 1558.29 Q2869.47 1560.95 2872.92 1560.95 Q2876.33 1560.95 2878.32 1558.26 Q2880.31 1555.58 2880.31 1550.95 Q2880.31 1546.34 2878.32 1543.66 Q2876.33 1540.95 2872.92 1540.95 M2872.92 1537.34 Q2878.48 1537.34 2881.65 1540.95 Q2884.82 1544.56 2884.82 1550.95 Q2884.82 1557.31 2881.65 1560.95 Q2878.48 1564.56 2872.92 1564.56 Q2867.34 1564.56 2864.17 1560.95 Q2861.03 1557.31 2861.03 1550.95 Q2861.03 1544.56 2864.17 1540.95 Q2867.34 1537.34 2872.92 1537.34 Z" fill="#000000" fill-rule="nonzero" fill-opacity="1" /><path clip-path="url(#clip590)" d="M2888.83 1537.96 L2893.34 1537.96 L2901.44 1559.72 L2909.54 1537.96 L2914.06 1537.96 L2904.34 1563.89 L2898.55 1563.89 L2888.83 1537.96 Z" fill="#000000" fill-rule="nonzero" fill-opacity="1" /><path clip-path="url(#clip590)" d="M2920.12 1529.33 L2924.8 1529.33 L2924.8 1561.48 Q2924.8 1567.73 2922.41 1570.55 Q2920.05 1573.38 2914.8 1573.38 L2913.02 1573.38 L2913.02 1569.44 L2914.47 1569.44 Q2917.58 1569.44 2918.85 1567.71 Q2920.12 1565.97 2920.12 1561.48 L2920.12 1529.33 Z" fill="#000000" fill-rule="nonzero" fill-opacity="1" /><path clip-path="url(#clip590)" d="M2934.1 1529.33 L2938.78 1529.33 L2938.78 1559.95 L2955.61 1559.95 L2955.61 1563.89 L2934.1 1563.89 L2934.1 1529.33 Z" fill="#000000" fill-rule="nonzero" fill-opacity="1" /><polyline clip-path="url(#clip590)" style="stroke:#000000; stroke-linecap:round; stroke-linejoin:round; stroke-width:4; stroke-opacity:1; fill:none" points="364.733,1495.09 364.733,47.2441 "/>
<polyline clip-path="url(#clip590)" style="stroke:#000000; stroke-linecap:round; stroke-linejoin:round; stroke-width:4; stroke-opacity:1; fill:none" points="364.733,1218.4 383.63,1218.4 "/>
<polyline clip-path="url(#clip590)" style="stroke:#000000; stroke-linecap:round; stroke-linejoin:round; stroke-width:4; stroke-opacity:1; fill:none" points="364.733,892.953 383.63,892.953 "/>
<polyline clip-path="url(#clip590)" style="stroke:#000000; stroke-linecap:round; stroke-linejoin:round; stroke-width:4; stroke-opacity:1; fill:none" points="364.733,567.505 383.63,567.505 "/>
<polyline clip-path="url(#clip590)" style="stroke:#000000; stroke-linecap:round; stroke-linejoin:round; stroke-width:4; stroke-opacity:1; fill:none" points="364.733,242.057 383.63,242.057 "/>
<path clip-path="url(#clip590)" d="M100.788 1238.19 L108.426 1238.19 L108.426 1211.83 L100.116 1213.49 L100.116 1209.24 L108.38 1207.57 L113.056 1207.57 L113.056 1238.19 L120.695 1238.19 L120.695 1242.13 L100.788 1242.13 L100.788 1238.19 Z" fill="#000000" fill-rule="nonzero" fill-opacity="1" /><path clip-path="url(#clip590)" d="M130.139 1236.25 L135.023 1236.25 L135.023 1242.13 L130.139 1242.13 L130.139 1236.25 Z" fill="#000000" fill-rule="nonzero" fill-opacity="1" /><path clip-path="url(#clip590)" d="M155.209 1210.65 Q151.597 1210.65 149.769 1214.21 Q147.963 1217.75 147.963 1224.88 Q147.963 1231.99 149.769 1235.55 Q151.597 1239.1 155.209 1239.1 Q158.843 1239.1 160.648 1235.55 Q162.477 1231.99 162.477 1224.88 Q162.477 1217.75 160.648 1214.21 Q158.843 1210.65 155.209 1210.65 M155.209 1206.94 Q161.019 1206.94 164.074 1211.55 Q167.153 1216.13 167.153 1224.88 Q167.153 1233.61 164.074 1238.22 Q161.019 1242.8 155.209 1242.8 Q149.398 1242.8 146.32 1238.22 Q143.264 1233.61 143.264 1224.88 Q143.264 1216.13 146.32 1211.55 Q149.398 1206.94 155.209 1206.94 Z" fill="#000000" fill-rule="nonzero" fill-opacity="1" /><path clip-path="url(#clip590)" d="M185.37 1210.65 Q181.759 1210.65 179.931 1214.21 Q178.125 1217.75 178.125 1224.88 Q178.125 1231.99 179.931 1235.55 Q181.759 1239.1 185.37 1239.1 Q189.005 1239.1 190.81 1235.55 Q192.639 1231.99 192.639 1224.88 Q192.639 1217.75 190.81 1214.21 Q189.005 1210.65 185.37 1210.65 M185.37 1206.94 Q191.181 1206.94 194.236 1211.55 Q197.315 1216.13 197.315 1224.88 Q197.315 1233.61 194.236 1238.22 Q191.181 1242.8 185.37 1242.8 Q179.56 1242.8 176.482 1238.22 Q173.426 1233.61 173.426 1224.88 Q173.426 1216.13 176.482 1211.55 Q179.56 1206.94 185.37 1206.94 Z" fill="#000000" fill-rule="nonzero" fill-opacity="1" /><path clip-path="url(#clip590)" d="M233.704 1216.67 L223.125 1227.29 L233.704 1237.87 L230.949 1240.67 L220.324 1230.05 L209.699 1240.67 L206.968 1237.87 L217.523 1227.29 L206.968 1216.67 L209.699 1213.87 L220.324 1224.49 L230.949 1213.87 L233.704 1216.67 Z" fill="#000000" fill-rule="nonzero" fill-opacity="1" /><path clip-path="url(#clip590)" d="M246.065 1238.19 L253.703 1238.19 L253.703 1211.83 L245.393 1213.49 L245.393 1209.24 L253.657 1207.57 L258.333 1207.57 L258.333 1238.19 L265.972 1238.19 L265.972 1242.13 L246.065 1242.13 L246.065 1238.19 Z" fill="#000000" fill-rule="nonzero" fill-opacity="1" /><path clip-path="url(#clip590)" d="M285.416 1210.65 Q281.805 1210.65 279.976 1214.21 Q278.171 1217.75 278.171 1224.88 Q278.171 1231.99 279.976 1235.55 Q281.805 1239.1 285.416 1239.1 Q289.05 1239.1 290.856 1235.55 Q292.685 1231.99 292.685 1224.88 Q292.685 1217.75 290.856 1214.21 Q289.05 1210.65 285.416 1210.65 M285.416 1206.94 Q291.226 1206.94 294.282 1211.55 Q297.361 1216.13 297.361 1224.88 Q297.361 1233.61 294.282 1238.22 Q291.226 1242.8 285.416 1242.8 Q279.606 1242.8 276.527 1238.22 Q273.472 1233.61 273.472 1224.88 Q273.472 1216.13 276.527 1211.55 Q279.606 1206.94 285.416 1206.94 Z" fill="#000000" fill-rule="nonzero" fill-opacity="1" /><path clip-path="url(#clip590)" d="M299.166 1214.14 L299.166 1210.67 Q300.596 1211.35 302.063 1211.71 Q303.53 1212.07 304.94 1212.07 Q308.702 1212.07 310.676 1209.55 Q312.67 1207.01 312.952 1201.85 Q311.861 1203.47 310.187 1204.34 Q308.514 1205.2 306.482 1205.2 Q302.269 1205.2 299.806 1202.66 Q297.361 1200.1 297.361 1195.69 Q297.361 1191.36 299.918 1188.75 Q302.476 1186.13 306.727 1186.13 Q311.598 1186.13 314.156 1189.87 Q316.733 1193.6 316.733 1200.71 Q316.733 1207.35 313.573 1211.31 Q310.432 1215.26 305.109 1215.26 Q303.68 1215.26 302.213 1214.98 Q300.746 1214.7 299.166 1214.14 M306.727 1202.23 Q309.285 1202.23 310.771 1200.48 Q312.275 1198.73 312.275 1195.69 Q312.275 1192.66 310.771 1190.91 Q309.285 1189.14 306.727 1189.14 Q304.169 1189.14 302.664 1190.91 Q301.179 1192.66 301.179 1195.69 Q301.179 1198.73 302.664 1200.48 Q304.169 1202.23 306.727 1202.23 Z" fill="#000000" fill-rule="nonzero" fill-opacity="1" /><path clip-path="url(#clip590)" d="M100.788 912.746 L108.426 912.746 L108.426 886.38 L100.116 888.047 L100.116 883.788 L108.38 882.121 L113.056 882.121 L113.056 912.746 L120.695 912.746 L120.695 916.681 L100.788 916.681 L100.788 912.746 Z" fill="#000000" fill-rule="nonzero" fill-opacity="1" /><path clip-path="url(#clip590)" d="M130.139 910.801 L135.023 910.801 L135.023 916.681 L130.139 916.681 L130.139 910.801 Z" fill="#000000" fill-rule="nonzero" fill-opacity="1" /><path clip-path="url(#clip590)" d="M145.255 882.121 L163.611 882.121 L163.611 886.056 L149.537 886.056 L149.537 894.528 Q150.556 894.181 151.574 894.019 Q152.593 893.834 153.611 893.834 Q159.398 893.834 162.778 897.005 Q166.158 900.176 166.158 905.593 Q166.158 911.172 162.685 914.273 Q159.213 917.352 152.894 917.352 Q150.718 917.352 148.449 916.982 Q146.204 916.611 143.797 915.871 L143.797 911.172 Q145.88 912.306 148.102 912.861 Q150.324 913.417 152.801 913.417 Q156.806 913.417 159.144 911.311 Q161.482 909.204 161.482 905.593 Q161.482 901.982 159.144 899.875 Q156.806 897.769 152.801 897.769 Q150.926 897.769 149.051 898.186 Q147.199 898.602 145.255 899.482 L145.255 882.121 Z" fill="#000000" fill-rule="nonzero" fill-opacity="1" /><path clip-path="url(#clip590)" d="M185.37 885.2 Q181.759 885.2 179.931 888.764 Q178.125 892.306 178.125 899.436 Q178.125 906.542 179.931 910.107 Q181.759 913.648 185.37 913.648 Q189.005 913.648 190.81 910.107 Q192.639 906.542 192.639 899.436 Q192.639 892.306 190.81 888.764 Q189.005 885.2 185.37 885.2 M185.37 881.496 Q191.181 881.496 194.236 886.102 Q197.315 890.686 197.315 899.436 Q197.315 908.162 194.236 912.769 Q191.181 917.352 185.37 917.352 Q179.56 917.352 176.482 912.769 Q173.426 908.162 173.426 899.436 Q173.426 890.686 176.482 886.102 Q179.56 881.496 185.37 881.496 Z" fill="#000000" fill-rule="nonzero" fill-opacity="1" /><path clip-path="url(#clip590)" d="M233.704 891.218 L223.125 901.843 L233.704 912.422 L230.949 915.223 L220.324 904.598 L209.699 915.223 L206.968 912.422 L217.523 901.843 L206.968 891.218 L209.699 888.417 L220.324 899.042 L230.949 888.417 L233.704 891.218 Z" fill="#000000" fill-rule="nonzero" fill-opacity="1" /><path clip-path="url(#clip590)" d="M246.065 912.746 L253.703 912.746 L253.703 886.38 L245.393 888.047 L245.393 883.788 L253.657 882.121 L258.333 882.121 L258.333 912.746 L265.972 912.746 L265.972 916.681 L246.065 916.681 L246.065 912.746 Z" fill="#000000" fill-rule="nonzero" fill-opacity="1" /><path clip-path="url(#clip590)" d="M285.416 885.2 Q281.805 885.2 279.976 888.764 Q278.171 892.306 278.171 899.436 Q278.171 906.542 279.976 910.107 Q281.805 913.648 285.416 913.648 Q289.05 913.648 290.856 910.107 Q292.685 906.542 292.685 899.436 Q292.685 892.306 290.856 888.764 Q289.05 885.2 285.416 885.2 M285.416 881.496 Q291.226 881.496 294.282 886.102 Q297.361 890.686 297.361 899.436 Q297.361 908.162 294.282 912.769 Q291.226 917.352 285.416 917.352 Q279.606 917.352 276.527 912.769 Q273.472 908.162 273.472 899.436 Q273.472 890.686 276.527 886.102 Q279.606 881.496 285.416 881.496 Z" fill="#000000" fill-rule="nonzero" fill-opacity="1" /><path clip-path="url(#clip590)" d="M299.166 888.687 L299.166 885.227 Q300.596 885.904 302.063 886.261 Q303.53 886.619 304.94 886.619 Q308.702 886.619 310.676 884.098 Q312.67 881.559 312.952 876.406 Q311.861 878.023 310.187 878.889 Q308.514 879.754 306.482 879.754 Q302.269 879.754 299.806 877.215 Q297.361 874.657 297.361 870.237 Q297.361 865.911 299.918 863.297 Q302.476 860.683 306.727 860.683 Q311.598 860.683 314.156 864.425 Q316.733 868.149 316.733 875.259 Q316.733 881.898 313.573 885.866 Q310.432 889.816 305.109 889.816 Q303.68 889.816 302.213 889.534 Q300.746 889.252 299.166 888.687 M306.727 876.782 Q309.285 876.782 310.771 875.033 Q312.275 873.284 312.275 870.237 Q312.275 867.209 310.771 865.46 Q309.285 863.692 306.727 863.692 Q304.169 863.692 302.664 865.46 Q301.179 867.209 301.179 870.237 Q301.179 873.284 302.664 875.033 Q304.169 876.782 306.727 876.782 Z" fill="#000000" fill-rule="nonzero" fill-opacity="1" /><path clip-path="url(#clip590)" d="M104.005 587.298 L120.324 587.298 L120.324 591.233 L98.3802 591.233 L98.3802 587.298 Q101.042 584.543 105.625 579.913 Q110.232 575.261 111.412 573.918 Q113.658 571.395 114.537 569.659 Q115.44 567.9 115.44 566.21 Q115.44 563.455 113.496 561.719 Q111.575 559.983 108.473 559.983 Q106.274 559.983 103.82 560.747 Q101.389 561.511 98.6116 563.062 L98.6116 558.339 Q101.436 557.205 103.889 556.626 Q106.343 556.048 108.38 556.048 Q113.75 556.048 116.945 558.733 Q120.139 561.418 120.139 565.909 Q120.139 568.038 119.329 569.96 Q118.542 571.858 116.436 574.45 Q115.857 575.122 112.755 578.339 Q109.653 581.534 104.005 587.298 Z" fill="#000000" fill-rule="nonzero" fill-opacity="1" /><path clip-path="url(#clip590)" d="M130.139 585.353 L135.023 585.353 L135.023 591.233 L130.139 591.233 L130.139 585.353 Z" fill="#000000" fill-rule="nonzero" fill-opacity="1" /><path clip-path="url(#clip590)" d="M155.209 559.751 Q151.597 559.751 149.769 563.316 Q147.963 566.858 147.963 573.987 Q147.963 581.094 149.769 584.659 Q151.597 588.2 155.209 588.2 Q158.843 588.2 160.648 584.659 Q162.477 581.094 162.477 573.987 Q162.477 566.858 160.648 563.316 Q158.843 559.751 155.209 559.751 M155.209 556.048 Q161.019 556.048 164.074 560.654 Q167.153 565.238 167.153 573.987 Q167.153 582.714 164.074 587.321 Q161.019 591.904 155.209 591.904 Q149.398 591.904 146.32 587.321 Q143.264 582.714 143.264 573.987 Q143.264 565.238 146.32 560.654 Q149.398 556.048 155.209 556.048 Z" fill="#000000" fill-rule="nonzero" fill-opacity="1" /><path clip-path="url(#clip590)" d="M185.37 559.751 Q181.759 559.751 179.931 563.316 Q178.125 566.858 178.125 573.987 Q178.125 581.094 179.931 584.659 Q181.759 588.2 185.37 588.2 Q189.005 588.2 190.81 584.659 Q192.639 581.094 192.639 573.987 Q192.639 566.858 190.81 563.316 Q189.005 559.751 185.37 559.751 M185.37 556.048 Q191.181 556.048 194.236 560.654 Q197.315 565.238 197.315 573.987 Q197.315 582.714 194.236 587.321 Q191.181 591.904 185.37 591.904 Q179.56 591.904 176.482 587.321 Q173.426 582.714 173.426 573.987 Q173.426 565.238 176.482 560.654 Q179.56 556.048 185.37 556.048 Z" fill="#000000" fill-rule="nonzero" fill-opacity="1" /><path clip-path="url(#clip590)" d="M233.704 565.77 L223.125 576.395 L233.704 586.974 L230.949 589.774 L220.324 579.149 L209.699 589.774 L206.968 586.974 L217.523 576.395 L206.968 565.77 L209.699 562.969 L220.324 573.594 L230.949 562.969 L233.704 565.77 Z" fill="#000000" fill-rule="nonzero" fill-opacity="1" /><path clip-path="url(#clip590)" d="M246.065 587.298 L253.703 587.298 L253.703 560.932 L245.393 562.599 L245.393 558.339 L253.657 556.673 L258.333 556.673 L258.333 587.298 L265.972 587.298 L265.972 591.233 L246.065 591.233 L246.065 587.298 Z" fill="#000000" fill-rule="nonzero" fill-opacity="1" /><path clip-path="url(#clip590)" d="M285.416 559.751 Q281.805 559.751 279.976 563.316 Q278.171 566.858 278.171 573.987 Q278.171 581.094 279.976 584.659 Q281.805 588.2 285.416 588.2 Q289.05 588.2 290.856 584.659 Q292.685 581.094 292.685 573.987 Q292.685 566.858 290.856 563.316 Q289.05 559.751 285.416 559.751 M285.416 556.048 Q291.226 556.048 294.282 560.654 Q297.361 565.238 297.361 573.987 Q297.361 582.714 294.282 587.321 Q291.226 591.904 285.416 591.904 Q279.606 591.904 276.527 587.321 Q273.472 582.714 273.472 573.987 Q273.472 565.238 276.527 560.654 Q279.606 556.048 285.416 556.048 Z" fill="#000000" fill-rule="nonzero" fill-opacity="1" /><path clip-path="url(#clip590)" d="M299.166 563.239 L299.166 559.779 Q300.596 560.456 302.063 560.813 Q303.53 561.17 304.94 561.17 Q308.702 561.17 310.676 558.65 Q312.67 556.111 312.952 550.958 Q311.861 552.575 310.187 553.44 Q308.514 554.306 306.482 554.306 Q302.269 554.306 299.806 551.767 Q297.361 549.209 297.361 544.789 Q297.361 540.463 299.918 537.849 Q302.476 535.235 306.727 535.235 Q311.598 535.235 314.156 538.977 Q316.733 542.701 316.733 549.811 Q316.733 556.45 313.573 560.418 Q310.432 564.368 305.109 564.368 Q303.68 564.368 302.213 564.086 Q300.746 563.804 299.166 563.239 M306.727 551.334 Q309.285 551.334 310.771 549.585 Q312.275 547.836 312.275 544.789 Q312.275 541.761 310.771 540.012 Q309.285 538.244 306.727 538.244 Q304.169 538.244 302.664 540.012 Q301.179 541.761 301.179 544.789 Q301.179 547.836 302.664 549.585 Q304.169 551.334 306.727 551.334 Z" fill="#000000" fill-rule="nonzero" fill-opacity="1" /><path clip-path="url(#clip590)" d="M104.005 261.849 L120.324 261.849 L120.324 265.785 L98.3802 265.785 L98.3802 261.849 Q101.042 259.095 105.625 254.465 Q110.232 249.812 111.412 248.47 Q113.658 245.947 114.537 244.211 Q115.44 242.451 115.44 240.762 Q115.44 238.007 113.496 236.271 Q111.575 234.535 108.473 234.535 Q106.274 234.535 103.82 235.299 Q101.389 236.063 98.6116 237.613 L98.6116 232.891 Q101.436 231.757 103.889 231.178 Q106.343 230.6 108.38 230.6 Q113.75 230.6 116.945 233.285 Q120.139 235.97 120.139 240.461 Q120.139 242.59 119.329 244.512 Q118.542 246.41 116.436 249.002 Q115.857 249.674 112.755 252.891 Q109.653 256.086 104.005 261.849 Z" fill="#000000" fill-rule="nonzero" fill-opacity="1" /><path clip-path="url(#clip590)" d="M130.139 259.905 L135.023 259.905 L135.023 265.785 L130.139 265.785 L130.139 259.905 Z" fill="#000000" fill-rule="nonzero" fill-opacity="1" /><path clip-path="url(#clip590)" d="M145.255 231.225 L163.611 231.225 L163.611 235.16 L149.537 235.16 L149.537 243.632 Q150.556 243.285 151.574 243.123 Q152.593 242.938 153.611 242.938 Q159.398 242.938 162.778 246.109 Q166.158 249.28 166.158 254.697 Q166.158 260.275 162.685 263.377 Q159.213 266.456 152.894 266.456 Q150.718 266.456 148.449 266.086 Q146.204 265.715 143.797 264.974 L143.797 260.275 Q145.88 261.41 148.102 261.965 Q150.324 262.521 152.801 262.521 Q156.806 262.521 159.144 260.414 Q161.482 258.308 161.482 254.697 Q161.482 251.086 159.144 248.979 Q156.806 246.873 152.801 246.873 Q150.926 246.873 149.051 247.289 Q147.199 247.706 145.255 248.586 L145.255 231.225 Z" fill="#000000" fill-rule="nonzero" fill-opacity="1" /><path clip-path="url(#clip590)" d="M185.37 234.303 Q181.759 234.303 179.931 237.868 Q178.125 241.41 178.125 248.539 Q178.125 255.646 179.931 259.211 Q181.759 262.752 185.37 262.752 Q189.005 262.752 190.81 259.211 Q192.639 255.646 192.639 248.539 Q192.639 241.41 190.81 237.868 Q189.005 234.303 185.37 234.303 M185.37 230.6 Q191.181 230.6 194.236 235.206 Q197.315 239.789 197.315 248.539 Q197.315 257.266 194.236 261.873 Q191.181 266.456 185.37 266.456 Q179.56 266.456 176.482 261.873 Q173.426 257.266 173.426 248.539 Q173.426 239.789 176.482 235.206 Q179.56 230.6 185.37 230.6 Z" fill="#000000" fill-rule="nonzero" fill-opacity="1" /><path clip-path="url(#clip590)" d="M233.704 240.322 L223.125 250.947 L233.704 261.525 L230.949 264.326 L220.324 253.701 L209.699 264.326 L206.968 261.525 L217.523 250.947 L206.968 240.322 L209.699 237.521 L220.324 248.146 L230.949 237.521 L233.704 240.322 Z" fill="#000000" fill-rule="nonzero" fill-opacity="1" /><path clip-path="url(#clip590)" d="M246.065 261.849 L253.703 261.849 L253.703 235.484 L245.393 237.151 L245.393 232.891 L253.657 231.225 L258.333 231.225 L258.333 261.849 L265.972 261.849 L265.972 265.785 L246.065 265.785 L246.065 261.849 Z" fill="#000000" fill-rule="nonzero" fill-opacity="1" /><path clip-path="url(#clip590)" d="M285.416 234.303 Q281.805 234.303 279.976 237.868 Q278.171 241.41 278.171 248.539 Q278.171 255.646 279.976 259.211 Q281.805 262.752 285.416 262.752 Q289.05 262.752 290.856 259.211 Q292.685 255.646 292.685 248.539 Q292.685 241.41 290.856 237.868 Q289.05 234.303 285.416 234.303 M285.416 230.6 Q291.226 230.6 294.282 235.206 Q297.361 239.789 297.361 248.539 Q297.361 257.266 294.282 261.873 Q291.226 266.456 285.416 266.456 Q279.606 266.456 276.527 261.873 Q273.472 257.266 273.472 248.539 Q273.472 239.789 276.527 235.206 Q279.606 230.6 285.416 230.6 Z" fill="#000000" fill-rule="nonzero" fill-opacity="1" /><path clip-path="url(#clip590)" d="M299.166 237.791 L299.166 234.331 Q300.596 235.008 302.063 235.365 Q303.53 235.722 304.94 235.722 Q308.702 235.722 310.676 233.202 Q312.67 230.663 312.952 225.51 Q311.861 227.127 310.187 227.992 Q308.514 228.857 306.482 228.857 Q302.269 228.857 299.806 226.318 Q297.361 223.761 297.361 219.341 Q297.361 215.015 299.918 212.401 Q302.476 209.786 306.727 209.786 Q311.598 209.786 314.156 213.529 Q316.733 217.253 316.733 224.362 Q316.733 231.002 313.573 234.97 Q310.432 238.92 305.109 238.92 Q303.68 238.92 302.213 238.638 Q300.746 238.355 299.166 237.791 M306.727 225.886 Q309.285 225.886 310.771 224.137 Q312.275 222.388 312.275 219.341 Q312.275 216.313 310.771 214.564 Q309.285 212.796 306.727 212.796 Q304.169 212.796 302.664 214.564 Q301.179 216.313 301.179 219.341 Q301.179 222.388 302.664 224.137 Q304.169 225.886 306.727 225.886 Z" fill="#000000" fill-rule="nonzero" fill-opacity="1" /><path clip-path="url(#clip590)" d="M-9.64527 840.632 L0.4762 840.632 L0.4762 828.569 L5.02768 828.569 L5.02768 840.632 L24.3794 840.632 Q28.7399 840.632 29.9813 839.454 Q31.2226 838.245 31.2226 834.584 L31.2226 828.569 L36.1242 828.569 L36.1242 834.584 Q36.1242 841.364 33.6097 843.942 Q31.0634 846.52 24.3794 846.52 L5.02768 846.52 L5.02768 850.817 L0.4762 850.817 L0.4762 846.52 L-9.64527 846.52 L-9.64527 840.632 Z" fill="#000000" fill-rule="nonzero" fill-opacity="1" /><path clip-path="url(#clip590)" d="M-11.3958 789.738 L-11.3958 784.327 L42.1716 800.878 L42.1716 806.289 L-11.3958 789.738 Z" fill="#000000" fill-rule="nonzero" fill-opacity="1" /><path clip-path="url(#clip590)" d="M14.6081 727.831 L36.1242 727.831 L36.1242 733.688 L14.799 733.688 Q9.7383 733.688 7.22385 735.661 Q4.7094 737.635 4.7094 741.581 Q4.7094 746.324 7.73311 749.061 Q10.7568 751.798 15.9767 751.798 L36.1242 751.798 L36.1242 757.687 L0.4762 757.687 L0.4762 751.798 L6.01437 751.798 Q2.79968 749.698 1.20826 746.865 Q-0.38317 744 -0.38317 740.276 Q-0.38317 734.133 3.43625 730.982 Q7.22385 727.831 14.6081 727.831 Z" fill="#000000" fill-rule="nonzero" fill-opacity="1" /><path clip-path="url(#clip590)" d="M1.52654 693.425 L7.06471 693.425 Q5.79157 695.907 5.15499 698.581 Q4.51842 701.255 4.51842 704.119 Q4.51842 708.48 5.85522 710.676 Q7.19202 712.84 9.86562 712.84 Q11.9026 712.84 13.0803 711.281 Q14.2261 709.721 15.2765 705.01 L15.7221 703.005 Q17.0589 696.767 19.5097 694.157 Q21.9286 691.515 26.2891 691.515 Q31.2544 691.515 34.1508 695.462 Q37.0472 699.377 37.0472 706.252 Q37.0472 709.116 36.4743 712.235 Q35.9332 715.323 34.8192 718.76 L28.7718 718.76 Q30.4587 715.514 31.318 712.363 Q32.1456 709.212 32.1456 706.124 Q32.1456 701.987 30.7451 699.759 Q29.3129 697.531 26.7347 697.531 Q24.3476 697.531 23.0745 699.154 Q21.8013 700.745 20.6237 706.188 L20.1462 708.225 Q19.0004 713.668 16.6451 716.087 Q14.258 718.506 10.1202 718.506 Q5.09134 718.506 2.35408 714.941 Q-0.38317 711.376 -0.38317 704.819 Q-0.38317 701.573 0.0942579 698.708 Q0.571686 695.844 1.52654 693.425 Z" fill="#000000" fill-rule="nonzero" fill-opacity="1" /><path clip-path="url(#clip592)" d="M847.958 1454.11 L851.978 1453.82 L855.456 1453.53 L858.375 1453.24 L860.725 1452.95 L862.503 1452.66 L863.713 1452.37 L864.363 1452.08 L864.473 1451.79 L864.063 1451.5 L863.163 1451.21 L861.806 1450.93 L860.03 1450.64 L857.875 1450.35 L855.387 1450.06 L852.61 1449.77 L849.59 1449.48 L846.375 1449.19 L843.009 1448.9 L839.536 1448.61 L835.998 1448.32 L832.433 1448.03 L828.876 1447.74 L825.357 1447.45 L821.901 1447.16 L818.531 1446.87 L815.263 1446.58 L812.108 1446.29 L809.073 1446 L806.161 1445.71 L803.37 1445.42 L800.694 1445.13 L798.125 1444.84 L795.652 1444.55 L793.261 1444.26 L790.937 1443.97 L788.666 1443.68 L786.431 1443.39 L784.218 1443.11 L782.011 1442.82 L779.799 1442.53 L777.569 1442.24 L775.314 1441.95 L773.027 1441.66 L770.704 1441.37 L768.343 1441.08 L765.947 1440.79 L763.519 1440.5 L761.064 1440.21 L758.591 1439.92 L756.109 1439.63 L753.628 1439.34 L751.16 1439.05 L748.715 1438.76 L746.306 1438.47 L743.944 1438.18 L741.636 1437.89 L739.393 1437.6 L737.221 1437.31 L735.124 1437.02 L733.106 1436.73 L731.167 1436.44 L729.305 1436.15 L727.517 1435.86 L725.799 1435.57 L724.141 1435.29 L722.537 1435 L720.976 1434.71 L719.447 1434.42 L717.94 1434.13 L716.443 1433.84 L714.945 1433.55 L713.435 1433.26 L711.905 1432.97 L596.207 1432.97 L594.676 1433.26 L593.166 1433.55 L591.668 1433.84 L590.171 1434.13 L588.664 1434.42 L587.135 1434.71 L585.574 1435 L583.97 1435.29 L582.313 1435.57 L580.594 1435.86 L578.807 1436.15 L576.945 1436.44 L575.006 1436.73 L572.987 1437.02 L570.89 1437.31 L568.718 1437.6 L566.475 1437.89 L564.168 1438.18 L561.805 1438.47 L559.396 1438.76 L556.952 1439.05 L554.484 1439.34 L552.003 1439.63 L549.521 1439.92 L547.048 1440.21 L544.593 1440.5 L542.165 1440.79 L539.768 1441.08 L537.408 1441.37 L535.085 1441.66 L532.797 1441.95 L530.542 1442.24 L528.313 1442.53 L526.1 1442.82 L523.894 1443.11 L521.68 1443.39 L519.445 1443.68 L517.174 1443.97 L514.851 1444.26 L512.46 1444.55 L509.987 1444.84 L507.418 1445.13 L504.742 1445.42 L501.95 1445.71 L499.038 1446 L496.003 1446.29 L492.848 1446.58 L489.58 1446.87 L486.21 1447.16 L482.755 1447.45 L479.235 1447.74 L475.678 1448.03 L472.113 1448.32 L468.575 1448.61 L465.103 1448.9 L461.737 1449.19 L458.521 1449.48 L455.502 1449.77 L452.724 1450.06 L450.236 1450.35 L448.082 1450.64 L446.306 1450.93 L444.949 1451.21 L444.049 1451.5 L443.639 1451.79 L443.748 1452.08 L444.399 1452.37 L445.608 1452.66 L447.386 1452.95 L449.737 1453.24 L452.656 1453.53 L456.134 1453.82 L460.153 1454.11 L847.958 1454.11  Z" fill="#009af9" fill-rule="evenodd" fill-opacity="1"/>
<polyline clip-path="url(#clip592)" style="stroke:#000000; stroke-linecap:round; stroke-linejoin:round; stroke-width:4; stroke-opacity:1; fill:none" points="847.958,1454.11 851.978,1453.82 855.456,1453.53 858.375,1453.24 860.725,1452.95 862.503,1452.66 863.713,1452.37 864.363,1452.08 864.473,1451.79 864.063,1451.5 863.163,1451.21 861.806,1450.93 860.03,1450.64 857.875,1450.35 855.387,1450.06 852.61,1449.77 849.59,1449.48 846.375,1449.19 843.009,1448.9 839.536,1448.61 835.998,1448.32 832.433,1448.03 828.876,1447.74 825.357,1447.45 821.901,1447.16 818.531,1446.87 815.263,1446.58 812.108,1446.29 809.073,1446 806.161,1445.71 803.37,1445.42 800.694,1445.13 798.125,1444.84 795.652,1444.55 793.261,1444.26 790.937,1443.97 788.666,1443.68 786.431,1443.39 784.218,1443.11 782.011,1442.82 779.799,1442.53 777.569,1442.24 775.314,1441.95 773.027,1441.66 770.704,1441.37 768.343,1441.08 765.947,1440.79 763.519,1440.5 761.064,1440.21 758.591,1439.92 756.109,1439.63 753.628,1439.34 751.16,1439.05 748.715,1438.76 746.306,1438.47 743.944,1438.18 741.636,1437.89 739.393,1437.6 737.221,1437.31 735.124,1437.02 733.106,1436.73 731.167,1436.44 729.305,1436.15 727.517,1435.86 725.799,1435.57 724.141,1435.29 722.537,1435 720.976,1434.71 719.447,1434.42 717.94,1434.13 716.443,1433.84 714.945,1433.55 713.435,1433.26 711.905,1432.97 596.207,1432.97 594.676,1433.26 593.166,1433.55 591.668,1433.84 590.171,1434.13 588.664,1434.42 587.135,1434.71 585.574,1435 583.97,1435.29 582.313,1435.57 580.594,1435.86 578.807,1436.15 576.945,1436.44 575.006,1436.73 572.987,1437.02 570.89,1437.31 568.718,1437.6 566.475,1437.89 564.168,1438.18 561.805,1438.47 559.396,1438.76 556.952,1439.05 554.484,1439.34 552.003,1439.63 549.521,1439.92 547.048,1440.21 544.593,1440.5 542.165,1440.79 539.768,1441.08 537.408,1441.37 535.085,1441.66 532.797,1441.95 530.542,1442.24 528.313,1442.53 526.1,1442.82 523.894,1443.11 521.68,1443.39 519.445,1443.68 517.174,1443.97 514.851,1444.26 512.46,1444.55 509.987,1444.84 507.418,1445.13 504.742,1445.42 501.95,1445.71 499.038,1446 496.003,1446.29 492.848,1446.58 489.58,1446.87 486.21,1447.16 482.755,1447.45 479.235,1447.74 475.678,1448.03 472.113,1448.32 468.575,1448.61 465.103,1448.9 461.737,1449.19 458.521,1449.48 455.502,1449.77 452.724,1450.06 450.236,1450.35 448.082,1450.64 446.306,1450.93 444.949,1451.21 444.049,1451.5 443.639,1451.79 443.748,1452.08 444.399,1452.37 445.608,1452.66 447.386,1452.95 449.737,1453.24 452.656,1453.53 456.134,1453.82 460.153,1454.11 847.958,1454.11 "/>
<path clip-path="url(#clip592)" d="M1545.58 1448.49 L1551.27 1448.27 L1556.73 1448.05 L1561.93 1447.82 L1566.84 1447.6 L1571.47 1447.38 L1575.78 1447.15 L1579.78 1446.93 L1583.44 1446.71 L1586.76 1446.49 L1589.74 1446.26 L1592.37 1446.04 L1594.64 1445.82 L1596.56 1445.59 L1598.13 1445.37 L1599.34 1445.15 L1600.21 1444.92 L1600.74 1444.7 L1600.93 1444.48 L1600.8 1444.25 L1600.37 1444.03 L1599.64 1443.81 L1598.63 1443.58 L1597.36 1443.36 L1595.85 1443.14 L1594.12 1442.91 L1592.2 1442.69 L1590.09 1442.47 L1587.82 1442.24 L1585.42 1442.02 L1582.9 1441.8 L1580.26 1441.57 L1577.54 1441.35 L1574.73 1441.13 L1571.85 1440.91 L1568.9 1440.68 L1565.87 1440.46 L1562.77 1440.24 L1559.59 1440.01 L1556.33 1439.79 L1552.98 1439.57 L1549.52 1439.34 L1545.95 1439.12 L1542.26 1438.9 L1538.45 1438.67 L1534.5 1438.45 L1530.43 1438.23 L1526.22 1438 L1521.88 1437.78 L1517.43 1437.56 L1512.87 1437.33 L1508.24 1437.11 L1503.54 1436.89 L1498.8 1436.66 L1494.06 1436.44 L1489.35 1436.22 L1484.71 1435.99 L1480.16 1435.77 L1475.74 1435.55 L1471.5 1435.33 L1467.46 1435.1 L1463.65 1434.88 L1460.11 1434.66 L1456.86 1434.43 L1453.92 1434.21 L1451.3 1433.99 L1449.01 1433.76 L1447.05 1433.54 L1445.43 1433.32 L1444.13 1433.09 L1443.14 1432.87 L1442.44 1432.65 L1442 1432.42 L1441.8 1432.2 L1441.8 1431.98 L1441.98 1431.75 L1442.28 1431.53 L1442.67 1431.31 L1443.12 1431.08 L1443.57 1430.86 L1444.01 1430.64 L1444.39 1430.41 L1444.67 1430.19 L1444.83 1429.97 L1444.85 1429.75 L1444.7 1429.52 L1336.33 1429.52 L1336.18 1429.75 L1336.2 1429.97 L1336.36 1430.19 L1336.64 1430.41 L1337.02 1430.64 L1337.45 1430.86 L1337.91 1431.08 L1338.36 1431.31 L1338.75 1431.53 L1339.05 1431.75 L1339.22 1431.98 L1339.23 1432.2 L1339.03 1432.42 L1338.59 1432.65 L1337.89 1432.87 L1336.9 1433.09 L1335.6 1433.32 L1333.98 1433.54 L1332.02 1433.76 L1329.73 1433.99 L1327.11 1434.21 L1324.17 1434.43 L1320.92 1434.66 L1317.38 1434.88 L1313.57 1435.1 L1309.53 1435.33 L1305.29 1435.55 L1300.87 1435.77 L1296.32 1435.99 L1291.68 1436.22 L1286.97 1436.44 L1282.23 1436.66 L1277.49 1436.89 L1272.79 1437.11 L1268.16 1437.33 L1263.6 1437.56 L1259.15 1437.78 L1254.81 1438 L1250.6 1438.23 L1246.52 1438.45 L1242.58 1438.67 L1238.77 1438.9 L1235.08 1439.12 L1231.51 1439.34 L1228.05 1439.57 L1224.7 1439.79 L1221.44 1440.01 L1218.26 1440.24 L1215.16 1440.46 L1212.13 1440.68 L1209.18 1440.91 L1206.3 1441.13 L1203.49 1441.35 L1200.76 1441.57 L1198.13 1441.8 L1195.61 1442.02 L1193.2 1442.24 L1190.94 1442.47 L1188.83 1442.69 L1186.91 1442.91 L1185.18 1443.14 L1183.67 1443.36 L1182.4 1443.58 L1181.39 1443.81 L1180.66 1444.03 L1180.22 1444.25 L1180.1 1444.48 L1180.29 1444.7 L1180.82 1444.92 L1181.69 1445.15 L1182.9 1445.37 L1184.47 1445.59 L1186.39 1445.82 L1188.66 1446.04 L1191.29 1446.26 L1194.27 1446.49 L1197.59 1446.71 L1201.25 1446.93 L1205.25 1447.15 L1209.56 1447.38 L1214.19 1447.6 L1219.1 1447.82 L1224.3 1448.05 L1229.76 1448.27 L1235.45 1448.49 L1545.58 1448.49  Z" fill="#e26f46" fill-rule="evenodd" fill-opacity="1"/>
<polyline clip-path="url(#clip592)" style="stroke:#000000; stroke-linecap:round; stroke-linejoin:round; stroke-width:4; stroke-opacity:1; fill:none" points="1545.58,1448.49 1551.27,1448.27 1556.73,1448.05 1561.93,1447.82 1566.84,1447.6 1571.47,1447.38 1575.78,1447.15 1579.78,1446.93 1583.44,1446.71 1586.76,1446.49 1589.74,1446.26 1592.37,1446.04 1594.64,1445.82 1596.56,1445.59 1598.13,1445.37 1599.34,1445.15 1600.21,1444.92 1600.74,1444.7 1600.93,1444.48 1600.8,1444.25 1600.37,1444.03 1599.64,1443.81 1598.63,1443.58 1597.36,1443.36 1595.85,1443.14 1594.12,1442.91 1592.2,1442.69 1590.09,1442.47 1587.82,1442.24 1585.42,1442.02 1582.9,1441.8 1580.26,1441.57 1577.54,1441.35 1574.73,1441.13 1571.85,1440.91 1568.9,1440.68 1565.87,1440.46 1562.77,1440.24 1559.59,1440.01 1556.33,1439.79 1552.98,1439.57 1549.52,1439.34 1545.95,1439.12 1542.26,1438.9 1538.45,1438.67 1534.5,1438.45 1530.43,1438.23 1526.22,1438 1521.88,1437.78 1517.43,1437.56 1512.87,1437.33 1508.24,1437.11 1503.54,1436.89 1498.8,1436.66 1494.06,1436.44 1489.35,1436.22 1484.71,1435.99 1480.16,1435.77 1475.74,1435.55 1471.5,1435.33 1467.46,1435.1 1463.65,1434.88 1460.11,1434.66 1456.86,1434.43 1453.92,1434.21 1451.3,1433.99 1449.01,1433.76 1447.05,1433.54 1445.43,1433.32 1444.13,1433.09 1443.14,1432.87 1442.44,1432.65 1442,1432.42 1441.8,1432.2 1441.8,1431.98 1441.98,1431.75 1442.28,1431.53 1442.67,1431.31 1443.12,1431.08 1443.57,1430.86 1444.01,1430.64 1444.39,1430.41 1444.67,1430.19 1444.83,1429.97 1444.85,1429.75 1444.7,1429.52 1336.33,1429.52 1336.18,1429.75 1336.2,1429.97 1336.36,1430.19 1336.64,1430.41 1337.02,1430.64 1337.45,1430.86 1337.91,1431.08 1338.36,1431.31 1338.75,1431.53 1339.05,1431.75 1339.22,1431.98 1339.23,1432.2 1339.03,1432.42 1338.59,1432.65 1337.89,1432.87 1336.9,1433.09 1335.6,1433.32 1333.98,1433.54 1332.02,1433.76 1329.73,1433.99 1327.11,1434.21 1324.17,1434.43 1320.92,1434.66 1317.38,1434.88 1313.57,1435.1 1309.53,1435.33 1305.29,1435.55 1300.87,1435.77 1296.32,1435.99 1291.68,1436.22 1286.97,1436.44 1282.23,1436.66 1277.49,1436.89 1272.79,1437.11 1268.16,1437.33 1263.6,1437.56 1259.15,1437.78 1254.81,1438 1250.6,1438.23 1246.52,1438.45 1242.58,1438.67 1238.77,1438.9 1235.08,1439.12 1231.51,1439.34 1228.05,1439.57 1224.7,1439.79 1221.44,1440.01 1218.26,1440.24 1215.16,1440.46 1212.13,1440.68 1209.18,1440.91 1206.3,1441.13 1203.49,1441.35 1200.76,1441.57 1198.13,1441.8 1195.61,1442.02 1193.2,1442.24 1190.94,1442.47 1188.83,1442.69 1186.91,1442.91 1185.18,1443.14 1183.67,1443.36 1182.4,1443.58 1181.39,1443.81 1180.66,1444.03 1180.22,1444.25 1180.1,1444.48 1180.29,1444.7 1180.82,1444.92 1181.69,1445.15 1182.9,1445.37 1184.47,1445.59 1186.39,1445.82 1188.66,1446.04 1191.29,1446.26 1194.27,1446.49 1197.59,1446.71 1201.25,1446.93 1205.25,1447.15 1209.56,1447.38 1214.19,1447.6 1219.1,1447.82 1224.3,1448.05 1229.76,1448.27 1235.45,1448.49 1545.58,1448.49 "/>
<path clip-path="url(#clip592)" d="M2177.01 1442.82 L2176.86 1442.43 L2176.45 1442.05 L2175.79 1441.67 L2174.9 1441.28 L2173.79 1440.9 L2172.5 1440.51 L2171.04 1440.13 L2169.45 1439.74 L2167.77 1439.36 L2166.03 1438.97 L2164.26 1438.59 L2162.51 1438.2 L2160.81 1437.82 L2159.21 1437.43 L2157.73 1437.05 L2156.43 1436.66 L2155.32 1436.28 L2154.45 1435.89 L2153.85 1435.51 L2153.54 1435.12 L2153.55 1434.74 L2153.9 1434.36 L2154.6 1433.97 L2155.67 1433.59 L2157.13 1433.2 L2158.97 1432.82 L2161.2 1432.43 L2163.81 1432.05 L2166.8 1431.66 L2170.15 1431.28 L2173.86 1430.89 L2177.89 1430.51 L2182.22 1430.12 L2186.82 1429.74 L2191.67 1429.35 L2196.72 1428.97 L2201.94 1428.58 L2207.29 1428.2 L2212.73 1427.81 L2218.22 1427.43 L2223.72 1427.05 L2229.19 1426.66 L2234.59 1426.28 L2239.91 1425.89 L2245.1 1425.51 L2250.14 1425.12 L2255.02 1424.74 L2259.72 1424.35 L2264.24 1423.97 L2268.57 1423.58 L2272.71 1423.2 L2276.67 1422.81 L2280.46 1422.43 L2284.09 1422.04 L2287.58 1421.66 L2290.95 1421.27 L2294.21 1420.89 L2297.38 1420.5 L2300.47 1420.12 L2303.5 1419.74 L2306.47 1419.35 L2309.39 1418.97 L2312.26 1418.58 L2315.08 1418.2 L2317.83 1417.81 L2320.51 1417.43 L2323.09 1417.04 L2325.55 1416.66 L2327.87 1416.27 L2330.02 1415.89 L2331.96 1415.5 L2333.66 1415.12 L2335.09 1414.73 L2336.21 1414.35 L2336.99 1413.96 L2337.39 1413.58 L2337.38 1413.19 L2336.94 1412.81 L2336.04 1412.42 L2334.66 1412.04 L2332.78 1411.66 L2330.4 1411.27 L2327.51 1410.89 L2324.11 1410.5 L2320.21 1410.12 L2315.82 1409.73 L2310.96 1409.35 L2305.65 1408.96 L2299.93 1408.58 L2293.82 1408.19 L2287.38 1407.81 L1966.57 1407.81 L1960.12 1408.19 L1954.02 1408.58 L1948.3 1408.96 L1942.99 1409.35 L1938.13 1409.73 L1933.74 1410.12 L1929.84 1410.5 L1926.44 1410.89 L1923.54 1411.27 L1921.16 1411.66 L1919.29 1412.04 L1917.91 1412.42 L1917.01 1412.81 L1916.56 1413.19 L1916.56 1413.58 L1916.96 1413.96 L1917.73 1414.35 L1918.85 1414.73 L1920.28 1415.12 L1921.99 1415.5 L1923.93 1415.89 L1926.08 1416.27 L1928.4 1416.66 L1930.86 1417.04 L1933.44 1417.43 L1936.12 1417.81 L1938.87 1418.2 L1941.69 1418.58 L1944.56 1418.97 L1947.48 1419.35 L1950.45 1419.74 L1953.48 1420.12 L1956.57 1420.5 L1959.74 1420.89 L1963 1421.27 L1966.36 1421.66 L1969.86 1422.04 L1973.49 1422.43 L1977.28 1422.81 L1981.24 1423.2 L1985.38 1423.58 L1989.71 1423.97 L1994.23 1424.35 L1998.93 1424.74 L2003.81 1425.12 L2008.85 1425.51 L2014.04 1425.89 L2019.35 1426.28 L2024.76 1426.66 L2030.23 1427.05 L2035.73 1427.43 L2041.22 1427.81 L2046.65 1428.2 L2052 1428.58 L2057.22 1428.97 L2062.28 1429.35 L2067.12 1429.74 L2071.73 1430.12 L2076.06 1430.51 L2080.09 1430.89 L2083.79 1431.28 L2087.15 1431.66 L2090.14 1432.05 L2092.75 1432.43 L2094.98 1432.82 L2096.82 1433.2 L2098.27 1433.59 L2099.35 1433.97 L2100.05 1434.36 L2100.4 1434.74 L2100.41 1435.12 L2100.1 1435.51 L2099.49 1435.89 L2098.62 1436.28 L2097.52 1436.66 L2096.21 1437.05 L2094.74 1437.43 L2093.14 1437.82 L2091.44 1438.2 L2089.69 1438.59 L2087.92 1438.97 L2086.18 1439.36 L2084.49 1439.74 L2082.91 1440.13 L2081.45 1440.51 L2080.15 1440.9 L2079.05 1441.28 L2078.16 1441.67 L2077.5 1442.05 L2077.09 1442.43 L2076.94 1442.82 L2177.01 1442.82  Z" fill="#3da44d" fill-rule="evenodd" fill-opacity="1"/>
<polyline clip-path="url(#clip592)" style="stroke:#000000; stroke-linecap:round; stroke-linejoin:round; stroke-width:4; stroke-opacity:1; fill:none" points="2177.01,1442.82 2176.86,1442.43 2176.45,1442.05 2175.79,1441.67 2174.9,1441.28 2173.79,1440.9 2172.5,1440.51 2171.04,1440.13 2169.45,1439.74 2167.77,1439.36 2166.03,1438.97 2164.26,1438.59 2162.51,1438.2 2160.81,1437.82 2159.21,1437.43 2157.73,1437.05 2156.43,1436.66 2155.32,1436.28 2154.45,1435.89 2153.85,1435.51 2153.54,1435.12 2153.55,1434.74 2153.9,1434.36 2154.6,1433.97 2155.67,1433.59 2157.13,1433.2 2158.97,1432.82 2161.2,1432.43 2163.81,1432.05 2166.8,1431.66 2170.15,1431.28 2173.86,1430.89 2177.89,1430.51 2182.22,1430.12 2186.82,1429.74 2191.67,1429.35 2196.72,1428.97 2201.94,1428.58 2207.29,1428.2 2212.73,1427.81 2218.22,1427.43 2223.72,1427.05 2229.19,1426.66 2234.59,1426.28 2239.91,1425.89 2245.1,1425.51 2250.14,1425.12 2255.02,1424.74 2259.72,1424.35 2264.24,1423.97 2268.57,1423.58 2272.71,1423.2 2276.67,1422.81 2280.46,1422.43 2284.09,1422.04 2287.58,1421.66 2290.95,1421.27 2294.21,1420.89 2297.38,1420.5 2300.47,1420.12 2303.5,1419.74 2306.47,1419.35 2309.39,1418.97 2312.26,1418.58 2315.08,1418.2 2317.83,1417.81 2320.51,1417.43 2323.09,1417.04 2325.55,1416.66 2327.87,1416.27 2330.02,1415.89 2331.96,1415.5 2333.66,1415.12 2335.09,1414.73 2336.21,1414.35 2336.99,1413.96 2337.39,1413.58 2337.38,1413.19 2336.94,1412.81 2336.04,1412.42 2334.66,1412.04 2332.78,1411.66 2330.4,1411.27 2327.51,1410.89 2324.11,1410.5 2320.21,1410.12 2315.82,1409.73 2310.96,1409.35 2305.65,1408.96 2299.93,1408.58 2293.82,1408.19 2287.38,1407.81 1966.57,1407.81 1960.12,1408.19 1954.02,1408.58 1948.3,1408.96 1942.99,1409.35 1938.13,1409.73 1933.74,1410.12 1929.84,1410.5 1926.44,1410.89 1923.54,1411.27 1921.16,1411.66 1919.29,1412.04 1917.91,1412.42 1917.01,1412.81 1916.56,1413.19 1916.56,1413.58 1916.96,1413.96 1917.73,1414.35 1918.85,1414.73 1920.28,1415.12 1921.99,1415.5 1923.93,1415.89 1926.08,1416.27 1928.4,1416.66 1930.86,1417.04 1933.44,1417.43 1936.12,1417.81 1938.87,1418.2 1941.69,1418.58 1944.56,1418.97 1947.48,1419.35 1950.45,1419.74 1953.48,1420.12 1956.57,1420.5 1959.74,1420.89 1963,1421.27 1966.36,1421.66 1969.86,1422.04 1973.49,1422.43 1977.28,1422.81 1981.24,1423.2 1985.38,1423.58 1989.71,1423.97 1994.23,1424.35 1998.93,1424.74 2003.81,1425.12 2008.85,1425.51 2014.04,1425.89 2019.35,1426.28 2024.76,1426.66 2030.23,1427.05 2035.73,1427.43 2041.22,1427.81 2046.65,1428.2 2052,1428.58 2057.22,1428.97 2062.28,1429.35 2067.12,1429.74 2071.73,1430.12 2076.06,1430.51 2080.09,1430.89 2083.79,1431.28 2087.15,1431.66 2090.14,1432.05 2092.75,1432.43 2094.98,1432.82 2096.82,1433.2 2098.27,1433.59 2099.35,1433.97 2100.05,1434.36 2100.4,1434.74 2100.41,1435.12 2100.1,1435.51 2099.49,1435.89 2098.62,1436.28 2097.52,1436.66 2096.21,1437.05 2094.74,1437.43 2093.14,1437.82 2091.44,1438.2 2089.69,1438.59 2087.92,1438.97 2086.18,1439.36 2084.49,1439.74 2082.91,1440.13 2081.45,1440.51 2080.15,1440.9 2079.05,1441.28 2078.16,1441.67 2077.5,1442.05 2077.09,1442.43 2076.94,1442.82 2177.01,1442.82 "/>
<path clip-path="url(#clip592)" d="M3073.85 93.9243 L3073.43 93.8277 L3072.36 93.731 L3070.65 93.6343 L3068.31 93.5376 L3065.39 93.441 L3061.92 93.3443 L3057.94 93.2476 L3053.51 93.151 L3048.66 93.0543 L3043.46 92.9576 L3037.98 92.861 L3032.27 92.7643 L3026.4 92.6676 L3020.44 92.5709 L3014.45 92.4743 L3008.51 92.3776 L3002.67 92.2809 L2997 92.1843 L2991.57 92.0876 L2986.43 91.9909 L2981.63 91.8943 L2977.23 91.7976 L2973.28 91.7009 L2969.81 91.6042 L2966.86 91.5076 L2964.47 91.4109 L2962.65 91.3142 L2961.42 91.2176 L2960.81 91.1209 L2960.81 91.0242 L2961.42 90.9276 L2962.65 90.8309 L2964.47 90.7342 L2966.86 90.6376 L2969.81 90.5409 L2973.28 90.4442 L2977.23 90.3475 L2981.63 90.2509 L2986.43 90.1542 L2991.57 90.0575 L2997 89.9609 L3002.67 89.8642 L3008.51 89.7675 L3014.45 89.6709 L3020.44 89.5742 L3026.4 89.4775 L3032.27 89.3808 L3037.98 89.2842 L3043.46 89.1875 L3048.66 89.0908 L3053.51 88.9942 L3057.94 88.8975 L3061.92 88.8008 L3065.39 88.7042 L3068.31 88.6075 L3070.65 88.5108 L3072.36 88.4141 L3073.43 88.3175 L3073.85 88.2208 L2653.02 88.2208 L2653.43 88.3175 L2654.5 88.4141 L2656.22 88.5108 L2658.55 88.6075 L2661.47 88.7042 L2664.94 88.8008 L2668.92 88.8975 L2673.36 88.9942 L2678.21 89.0908 L2683.4 89.1875 L2688.89 89.2842 L2694.59 89.3808 L2700.46 89.4775 L2706.42 89.5742 L2712.41 89.6709 L2718.36 89.7675 L2724.19 89.8642 L2729.86 89.9609 L2735.3 90.0575 L2740.44 90.1542 L2745.23 90.2509 L2749.63 90.3475 L2753.59 90.4442 L2757.06 90.5409 L2760 90.6376 L2762.4 90.7342 L2764.22 90.8309 L2765.44 90.9276 L2766.06 91.0242 L2766.06 91.1209 L2765.44 91.2176 L2764.22 91.3142 L2762.4 91.4109 L2760 91.5076 L2757.06 91.6042 L2753.59 91.7009 L2749.63 91.7976 L2745.23 91.8943 L2740.44 91.9909 L2735.3 92.0876 L2729.86 92.1843 L2724.19 92.2809 L2718.36 92.3776 L2712.41 92.4743 L2706.42 92.5709 L2700.46 92.6676 L2694.59 92.7643 L2688.89 92.861 L2683.4 92.9576 L2678.21 93.0543 L2673.36 93.151 L2668.92 93.2476 L2664.94 93.3443 L2661.47 93.441 L2658.55 93.5376 L2656.22 93.6343 L2654.5 93.731 L2653.43 93.8277 L2653.02 93.9243 L3073.85 93.9243  Z" fill="#c271d2" fill-rule="evenodd" fill-opacity="1"/>
<polyline clip-path="url(#clip592)" style="stroke:#000000; stroke-linecap:round; stroke-linejoin:round; stroke-width:4; stroke-opacity:1; fill:none" points="3073.85,93.9243 3073.43,93.8277 3072.36,93.731 3070.65,93.6343 3068.31,93.5376 3065.39,93.441 3061.92,93.3443 3057.94,93.2476 3053.51,93.151 3048.66,93.0543 3043.46,92.9576 3037.98,92.861 3032.27,92.7643 3026.4,92.6676 3020.44,92.5709 3014.45,92.4743 3008.51,92.3776 3002.67,92.2809 2997,92.1843 2991.57,92.0876 2986.43,91.9909 2981.63,91.8943 2977.23,91.7976 2973.28,91.7009 2969.81,91.6042 2966.86,91.5076 2964.47,91.4109 2962.65,91.3142 2961.42,91.2176 2960.81,91.1209 2960.81,91.0242 2961.42,90.9276 2962.65,90.8309 2964.47,90.7342 2966.86,90.6376 2969.81,90.5409 2973.28,90.4442 2977.23,90.3475 2981.63,90.2509 2986.43,90.1542 2991.57,90.0575 2997,89.9609 3002.67,89.8642 3008.51,89.7675 3014.45,89.6709 3020.44,89.5742 3026.4,89.4775 3032.27,89.3808 3037.98,89.2842 3043.46,89.1875 3048.66,89.0908 3053.51,88.9942 3057.94,88.8975 3061.92,88.8008 3065.39,88.7042 3068.31,88.6075 3070.65,88.5108 3072.36,88.4141 3073.43,88.3175 3073.85,88.2208 2653.02,88.2208 2653.43,88.3175 2654.5,88.4141 2656.22,88.5108 2658.55,88.6075 2661.47,88.7042 2664.94,88.8008 2668.92,88.8975 2673.36,88.9942 2678.21,89.0908 2683.4,89.1875 2688.89,89.2842 2694.59,89.3808 2700.46,89.4775 2706.42,89.5742 2712.41,89.6709 2718.36,89.7675 2724.19,89.8642 2729.86,89.9609 2735.3,90.0575 2740.44,90.1542 2745.23,90.2509 2749.63,90.3475 2753.59,90.4442 2757.06,90.5409 2760,90.6376 2762.4,90.7342 2764.22,90.8309 2765.44,90.9276 2766.06,91.0242 2766.06,91.1209 2765.44,91.2176 2764.22,91.3142 2762.4,91.4109 2760,91.5076 2757.06,91.6042 2753.59,91.7009 2749.63,91.7976 2745.23,91.8943 2740.44,91.9909 2735.3,92.0876 2729.86,92.1843 2724.19,92.2809 2718.36,92.3776 2712.41,92.4743 2706.42,92.5709 2700.46,92.6676 2694.59,92.7643 2688.89,92.861 2683.4,92.9576 2678.21,93.0543 2673.36,93.151 2668.92,93.2476 2664.94,93.3443 2661.47,93.441 2658.55,93.5376 2656.22,93.6343 2654.5,93.731 2653.43,93.8277 2653.02,93.9243 3073.85,93.9243 "/>
</svg>
