<?xml version="1.0" encoding="utf-8"?>
<svg xmlns="http://www.w3.org/2000/svg" xmlns:xlink="http://www.w3.org/1999/xlink" width="800" height="400" viewBox="0 0 3200 1600">
<defs>
  <clipPath id="clip530">
    <rect x="0" y="0" width="3200" height="1600"/>
  </clipPath>
</defs>
<path clip-path="url(#clip530)" d="M0 1600 L3200 1600 L3200 0 L0 0  Z" fill="#ffffff" fill-rule="evenodd" fill-opacity="1"/>
<defs>
  <clipPath id="clip531">
    <rect x="640" y="0" width="2241" height="1600"/>
  </clipPath>
</defs>
<path clip-path="url(#clip530)" d="M365.106 1495.09 L3152.76 1495.09 L3152.76 47.2441 L365.106 47.2441  Z" fill="#ffffff" fill-rule="evenodd" fill-opacity="1"/>
<defs>
  <clipPath id="clip532">
    <rect x="365" y="47" width="2789" height="1449"/>
  </clipPath>
</defs>
<polyline clip-path="url(#clip532)" style="stroke:#000000; stroke-linecap:round; stroke-linejoin:round; stroke-width:2; stroke-opacity:0.1; fill:none" points="922.158,1495.09 922.158,47.2441 "/>
<polyline clip-path="url(#clip532)" style="stroke:#000000; stroke-linecap:round; stroke-linejoin:round; stroke-width:2; stroke-opacity:0.1; fill:none" points="2595.7,1495.09 2595.7,47.2441 "/>
<polyline clip-path="url(#clip532)" style="stroke:#000000; stroke-linecap:round; stroke-linejoin:round; stroke-width:2; stroke-opacity:0.1; fill:none" points="365.106,1328.85 3152.76,1328.85 "/>
<polyline clip-path="url(#clip532)" style="stroke:#000000; stroke-linecap:round; stroke-linejoin:round; stroke-width:2; stroke-opacity:0.1; fill:none" points="365.106,1110.16 3152.76,1110.16 "/>
<polyline clip-path="url(#clip532)" style="stroke:#000000; stroke-linecap:round; stroke-linejoin:round; stroke-width:2; stroke-opacity:0.1; fill:none" points="365.106,891.468 3152.76,891.468 "/>
<polyline clip-path="url(#clip532)" style="stroke:#000000; stroke-linecap:round; stroke-linejoin:round; stroke-width:2; stroke-opacity:0.1; fill:none" points="365.106,672.778 3152.76,672.778 "/>
<polyline clip-path="url(#clip532)" style="stroke:#000000; stroke-linecap:round; stroke-linejoin:round; stroke-width:2; stroke-opacity:0.1; fill:none" points="365.106,454.088 3152.76,454.088 "/>
<polyline clip-path="url(#clip532)" style="stroke:#000000; stroke-linecap:round; stroke-linejoin:round; stroke-width:2; stroke-opacity:0.1; fill:none" points="365.106,235.398 3152.76,235.398 "/>
<polyline clip-path="url(#clip530)" style="stroke:#000000; stroke-linecap:round; stroke-linejoin:round; stroke-width:4; stroke-opacity:1; fill:none" points="365.106,1495.09 3152.76,1495.09 "/>
<polyline clip-path="url(#clip530)" style="stroke:#000000; stroke-linecap:round; stroke-linejoin:round; stroke-width:4; stroke-opacity:1; fill:none" points="922.158,1495.09 922.158,1476.19 "/>
<polyline clip-path="url(#clip530)" style="stroke:#000000; stroke-linecap:round; stroke-linejoin:round; stroke-width:4; stroke-opacity:1; fill:none" points="2595.7,1495.09 2595.7,1476.19 "/>
<path clip-path="url(#clip530)" d="M827.413 1533.4 L815.607 1551.85 L827.413 1551.85 L827.413 1533.4 M826.186 1529.33 L832.066 1529.33 L832.066 1551.85 L836.996 1551.85 L836.996 1555.74 L832.066 1555.74 L832.066 1563.89 L827.413 1563.89 L827.413 1555.74 L811.811 1555.74 L811.811 1551.23 L826.186 1529.33 Z" fill="#000000" fill-rule="nonzero" fill-opacity="1" /><path clip-path="url(#clip530)" d="M863.408 1530.6 L863.408 1537.96 L872.181 1537.96 L872.181 1541.27 L863.408 1541.27 L863.408 1555.35 Q863.408 1558.52 864.264 1559.42 Q865.144 1560.32 867.806 1560.32 L872.181 1560.32 L872.181 1563.89 L867.806 1563.89 Q862.876 1563.89 861.001 1562.06 Q859.126 1560.21 859.126 1555.35 L859.126 1541.27 L856.001 1541.27 L856.001 1537.96 L859.126 1537.96 L859.126 1530.6 L863.408 1530.6 Z" fill="#000000" fill-rule="nonzero" fill-opacity="1" /><path clip-path="url(#clip530)" d="M899.334 1548.24 L899.334 1563.89 L895.075 1563.89 L895.075 1548.38 Q895.075 1544.7 893.639 1542.87 Q892.204 1541.04 889.334 1541.04 Q885.885 1541.04 883.894 1543.24 Q881.903 1545.44 881.903 1549.24 L881.903 1563.89 L877.621 1563.89 L877.621 1527.87 L881.903 1527.87 L881.903 1541.99 Q883.431 1539.65 885.491 1538.49 Q887.575 1537.34 890.283 1537.34 Q894.75 1537.34 897.042 1540.11 Q899.334 1542.87 899.334 1548.24 Z" fill="#000000" fill-rule="nonzero" fill-opacity="1" /><path clip-path="url(#clip530)" d="M922.852 1541.94 Q922.135 1541.53 921.278 1541.34 Q920.445 1541.13 919.426 1541.13 Q915.815 1541.13 913.871 1543.49 Q911.949 1545.83 911.949 1550.23 L911.949 1563.89 L907.667 1563.89 L907.667 1537.96 L911.949 1537.96 L911.949 1541.99 Q913.292 1539.63 915.445 1538.49 Q917.598 1537.34 920.676 1537.34 Q921.116 1537.34 921.648 1537.41 Q922.181 1537.45 922.829 1537.57 L922.852 1541.94 Z" fill="#000000" fill-rule="nonzero" fill-opacity="1" /><path clip-path="url(#clip530)" d="M948.454 1549.86 L948.454 1551.94 L928.871 1551.94 Q929.148 1556.34 931.509 1558.66 Q933.894 1560.95 938.13 1560.95 Q940.584 1560.95 942.875 1560.35 Q945.19 1559.74 947.458 1558.54 L947.458 1562.57 Q945.167 1563.54 942.759 1564.05 Q940.352 1564.56 937.875 1564.56 Q931.672 1564.56 928.037 1560.95 Q924.426 1557.34 924.426 1551.18 Q924.426 1544.81 927.852 1541.09 Q931.301 1537.34 937.134 1537.34 Q942.366 1537.34 945.398 1540.72 Q948.454 1544.07 948.454 1549.86 M944.195 1548.61 Q944.148 1545.11 942.227 1543.03 Q940.329 1540.95 937.181 1540.95 Q933.616 1540.95 931.463 1542.96 Q929.334 1544.98 929.01 1548.63 L944.195 1548.61 Z" fill="#000000" fill-rule="nonzero" fill-opacity="1" /><path clip-path="url(#clip530)" d="M967.227 1550.86 Q962.065 1550.86 960.074 1552.04 Q958.083 1553.22 958.083 1556.06 Q958.083 1558.33 959.565 1559.67 Q961.07 1560.99 963.639 1560.99 Q967.181 1560.99 969.31 1558.49 Q971.463 1555.97 971.463 1551.8 L971.463 1550.86 L967.227 1550.86 M975.722 1549.1 L975.722 1563.89 L971.463 1563.89 L971.463 1559.95 Q970.005 1562.31 967.829 1563.45 Q965.653 1564.56 962.505 1564.56 Q958.523 1564.56 956.162 1562.34 Q953.824 1560.09 953.824 1556.34 Q953.824 1551.97 956.741 1549.74 Q959.681 1547.52 965.491 1547.52 L971.463 1547.52 L971.463 1547.11 Q971.463 1544.17 969.519 1542.57 Q967.597 1540.95 964.102 1540.95 Q961.88 1540.95 959.773 1541.48 Q957.667 1542.01 955.722 1543.08 L955.722 1539.14 Q958.06 1538.24 960.259 1537.8 Q962.458 1537.34 964.542 1537.34 Q970.167 1537.34 972.944 1540.25 Q975.722 1543.17 975.722 1549.1 Z" fill="#000000" fill-rule="nonzero" fill-opacity="1" /><path clip-path="url(#clip530)" d="M1001.56 1541.9 L1001.56 1527.87 L1005.81 1527.87 L1005.81 1563.89 L1001.56 1563.89 L1001.56 1560 Q1000.21 1562.31 998.153 1563.45 Q996.116 1564.56 993.245 1564.56 Q988.546 1564.56 985.583 1560.81 Q982.643 1557.06 982.643 1550.95 Q982.643 1544.84 985.583 1541.09 Q988.546 1537.34 993.245 1537.34 Q996.116 1537.34 998.153 1538.47 Q1000.21 1539.58 1001.56 1541.9 M987.042 1550.95 Q987.042 1555.65 988.963 1558.33 Q990.907 1560.99 994.287 1560.99 Q997.667 1560.99 999.611 1558.33 Q1001.56 1555.65 1001.56 1550.95 Q1001.56 1546.25 999.611 1543.59 Q997.667 1540.9 994.287 1540.9 Q990.907 1540.9 988.963 1543.59 Q987.042 1546.25 987.042 1550.95 Z" fill="#000000" fill-rule="nonzero" fill-opacity="1" /><path clip-path="url(#clip530)" d="M1031.12 1538.73 L1031.12 1542.75 Q1029.31 1541.83 1027.37 1541.36 Q1025.42 1540.9 1023.34 1540.9 Q1020.17 1540.9 1018.57 1541.87 Q1017 1542.85 1017 1544.79 Q1017 1546.27 1018.13 1547.13 Q1019.26 1547.96 1022.69 1548.73 L1024.15 1549.05 Q1028.68 1550.02 1030.58 1551.8 Q1032.5 1553.56 1032.5 1556.74 Q1032.5 1560.35 1029.63 1562.45 Q1026.79 1564.56 1021.79 1564.56 Q1019.7 1564.56 1017.43 1564.14 Q1015.19 1563.75 1012.69 1562.94 L1012.69 1558.54 Q1015.05 1559.77 1017.34 1560.39 Q1019.63 1560.99 1021.88 1560.99 Q1024.89 1560.99 1026.51 1559.98 Q1028.13 1558.93 1028.13 1557.06 Q1028.13 1555.32 1026.95 1554.4 Q1025.79 1553.47 1021.83 1552.61 L1020.35 1552.27 Q1016.39 1551.43 1014.63 1549.72 Q1012.87 1547.99 1012.87 1544.98 Q1012.87 1541.32 1015.47 1539.33 Q1018.06 1537.34 1022.83 1537.34 Q1025.19 1537.34 1027.27 1537.68 Q1029.36 1538.03 1031.12 1538.73 Z" fill="#000000" fill-rule="nonzero" fill-opacity="1" /><path clip-path="url(#clip530)" d="M2500.82 1559.95 L2508.46 1559.95 L2508.46 1533.59 L2500.15 1535.25 L2500.15 1530.99 L2508.41 1529.33 L2513.09 1529.33 L2513.09 1559.95 L2520.73 1559.95 L2520.73 1563.89 L2500.82 1563.89 L2500.82 1559.95 Z" fill="#000000" fill-rule="nonzero" fill-opacity="1" /><path clip-path="url(#clip530)" d="M2548.85 1530.6 L2548.85 1537.96 L2557.63 1537.96 L2557.63 1541.27 L2548.85 1541.27 L2548.85 1555.35 Q2548.85 1558.52 2549.71 1559.42 Q2550.59 1560.32 2553.25 1560.32 L2557.63 1560.32 L2557.63 1563.89 L2553.25 1563.89 Q2548.32 1563.89 2546.45 1562.06 Q2544.57 1560.21 2544.57 1555.35 L2544.57 1541.27 L2541.45 1541.27 L2541.45 1537.96 L2544.57 1537.96 L2544.57 1530.6 L2548.85 1530.6 Z" fill="#000000" fill-rule="nonzero" fill-opacity="1" /><path clip-path="url(#clip530)" d="M2584.78 1548.24 L2584.78 1563.89 L2580.52 1563.89 L2580.52 1548.38 Q2580.52 1544.7 2579.08 1542.87 Q2577.65 1541.04 2574.78 1541.04 Q2571.33 1541.04 2569.34 1543.24 Q2567.35 1545.44 2567.35 1549.24 L2567.35 1563.89 L2563.07 1563.89 L2563.07 1527.87 L2567.35 1527.87 L2567.35 1541.99 Q2568.88 1539.65 2570.94 1538.49 Q2573.02 1537.34 2575.73 1537.34 Q2580.19 1537.34 2582.49 1540.11 Q2584.78 1542.87 2584.78 1548.24 Z" fill="#000000" fill-rule="nonzero" fill-opacity="1" /><path clip-path="url(#clip530)" d="M2608.3 1541.94 Q2607.58 1541.53 2606.72 1541.34 Q2605.89 1541.13 2604.87 1541.13 Q2601.26 1541.13 2599.32 1543.49 Q2597.39 1545.83 2597.39 1550.23 L2597.39 1563.89 L2593.11 1563.89 L2593.11 1537.96 L2597.39 1537.96 L2597.39 1541.99 Q2598.74 1539.63 2600.89 1538.49 Q2603.04 1537.34 2606.12 1537.34 Q2606.56 1537.34 2607.09 1537.41 Q2607.63 1537.45 2608.27 1537.57 L2608.3 1541.94 Z" fill="#000000" fill-rule="nonzero" fill-opacity="1" /><path clip-path="url(#clip530)" d="M2633.9 1549.86 L2633.9 1551.94 L2614.32 1551.94 Q2614.59 1556.34 2616.95 1558.66 Q2619.34 1560.95 2623.57 1560.95 Q2626.03 1560.95 2628.32 1560.35 Q2630.63 1559.74 2632.9 1558.54 L2632.9 1562.57 Q2630.61 1563.54 2628.2 1564.05 Q2625.8 1564.56 2623.32 1564.56 Q2617.12 1564.56 2613.48 1560.95 Q2609.87 1557.34 2609.87 1551.18 Q2609.87 1544.81 2613.3 1541.09 Q2616.75 1537.34 2622.58 1537.34 Q2627.81 1537.34 2630.84 1540.72 Q2633.9 1544.07 2633.9 1549.86 M2629.64 1548.61 Q2629.59 1545.11 2627.67 1543.03 Q2625.77 1540.95 2622.63 1540.95 Q2619.06 1540.95 2616.91 1542.96 Q2614.78 1544.98 2614.45 1548.63 L2629.64 1548.61 Z" fill="#000000" fill-rule="nonzero" fill-opacity="1" /><path clip-path="url(#clip530)" d="M2652.67 1550.86 Q2647.51 1550.86 2645.52 1552.04 Q2643.53 1553.22 2643.53 1556.06 Q2643.53 1558.33 2645.01 1559.67 Q2646.51 1560.99 2649.08 1560.99 Q2652.63 1560.99 2654.75 1558.49 Q2656.91 1555.97 2656.91 1551.8 L2656.91 1550.86 L2652.67 1550.86 M2661.17 1549.1 L2661.17 1563.89 L2656.91 1563.89 L2656.91 1559.95 Q2655.45 1562.31 2653.27 1563.45 Q2651.1 1564.56 2647.95 1564.56 Q2643.97 1564.56 2641.61 1562.34 Q2639.27 1560.09 2639.27 1556.34 Q2639.27 1551.97 2642.19 1549.74 Q2645.13 1547.52 2650.94 1547.52 L2656.91 1547.52 L2656.91 1547.11 Q2656.91 1544.17 2654.96 1542.57 Q2653.04 1540.95 2649.55 1540.95 Q2647.32 1540.95 2645.22 1541.48 Q2643.11 1542.01 2641.17 1543.08 L2641.17 1539.14 Q2643.5 1538.24 2645.7 1537.8 Q2647.9 1537.34 2649.99 1537.34 Q2655.61 1537.34 2658.39 1540.25 Q2661.17 1543.17 2661.17 1549.1 Z" fill="#000000" fill-rule="nonzero" fill-opacity="1" /><path clip-path="url(#clip530)" d="M2687 1541.9 L2687 1527.87 L2691.26 1527.87 L2691.26 1563.89 L2687 1563.89 L2687 1560 Q2685.66 1562.31 2683.6 1563.45 Q2681.56 1564.56 2678.69 1564.56 Q2673.99 1564.56 2671.03 1560.81 Q2668.09 1557.06 2668.09 1550.95 Q2668.09 1544.84 2671.03 1541.09 Q2673.99 1537.34 2678.69 1537.34 Q2681.56 1537.34 2683.6 1538.47 Q2685.66 1539.58 2687 1541.9 M2672.49 1550.95 Q2672.49 1555.65 2674.41 1558.33 Q2676.35 1560.99 2679.73 1560.99 Q2683.11 1560.99 2685.06 1558.33 Q2687 1555.65 2687 1550.95 Q2687 1546.25 2685.06 1543.59 Q2683.11 1540.9 2679.73 1540.9 Q2676.35 1540.9 2674.41 1543.59 Q2672.49 1546.25 2672.49 1550.95 Z" fill="#000000" fill-rule="nonzero" fill-opacity="1" /><polyline clip-path="url(#clip530)" style="stroke:#000000; stroke-linecap:round; stroke-linejoin:round; stroke-width:4; stroke-opacity:1; fill:none" points="365.106,1495.09 365.106,47.2441 "/>
<polyline clip-path="url(#clip530)" style="stroke:#000000; stroke-linecap:round; stroke-linejoin:round; stroke-width:4; stroke-opacity:1; fill:none" points="365.106,1328.85 384.003,1328.85 "/>
<polyline clip-path="url(#clip530)" style="stroke:#000000; stroke-linecap:round; stroke-linejoin:round; stroke-width:4; stroke-opacity:1; fill:none" points="365.106,1110.16 384.003,1110.16 "/>
<polyline clip-path="url(#clip530)" style="stroke:#000000; stroke-linecap:round; stroke-linejoin:round; stroke-width:4; stroke-opacity:1; fill:none" points="365.106,891.468 384.003,891.468 "/>
<polyline clip-path="url(#clip530)" style="stroke:#000000; stroke-linecap:round; stroke-linejoin:round; stroke-width:4; stroke-opacity:1; fill:none" points="365.106,672.778 384.003,672.778 "/>
<polyline clip-path="url(#clip530)" style="stroke:#000000; stroke-linecap:round; stroke-linejoin:round; stroke-width:4; stroke-opacity:1; fill:none" points="365.106,454.088 384.003,454.088 "/>
<polyline clip-path="url(#clip530)" style="stroke:#000000; stroke-linecap:round; stroke-linejoin:round; stroke-width:4; stroke-opacity:1; fill:none" points="365.106,235.398 384.003,235.398 "/>
<path clip-path="url(#clip530)" d="M99.2829 1318.02 L121.505 1318.02 L121.505 1320.01 L108.959 1352.58 L104.075 1352.58 L115.88 1321.95 L99.2829 1321.95 L99.2829 1318.02 Z" fill="#000000" fill-rule="nonzero" fill-opacity="1" /><path clip-path="url(#clip530)" d="M130.625 1346.7 L135.51 1346.7 L135.51 1352.58 L130.625 1352.58 L130.625 1346.7 Z" fill="#000000" fill-rule="nonzero" fill-opacity="1" /><path clip-path="url(#clip530)" d="M155.695 1321.09 Q152.084 1321.09 150.255 1324.66 Q148.449 1328.2 148.449 1335.33 Q148.449 1342.44 150.255 1346 Q152.084 1349.54 155.695 1349.54 Q159.329 1349.54 161.134 1346 Q162.963 1342.44 162.963 1335.33 Q162.963 1328.2 161.134 1324.66 Q159.329 1321.09 155.695 1321.09 M155.695 1317.39 Q161.505 1317.39 164.56 1322 Q167.639 1326.58 167.639 1335.33 Q167.639 1344.06 164.56 1348.66 Q161.505 1353.25 155.695 1353.25 Q149.885 1353.25 146.806 1348.66 Q143.75 1344.06 143.75 1335.33 Q143.75 1326.58 146.806 1322 Q149.885 1317.39 155.695 1317.39 Z" fill="#000000" fill-rule="nonzero" fill-opacity="1" /><path clip-path="url(#clip530)" d="M185.857 1321.09 Q182.245 1321.09 180.417 1324.66 Q178.611 1328.2 178.611 1335.33 Q178.611 1342.44 180.417 1346 Q182.245 1349.54 185.857 1349.54 Q189.491 1349.54 191.296 1346 Q193.125 1342.44 193.125 1335.33 Q193.125 1328.2 191.296 1324.66 Q189.491 1321.09 185.857 1321.09 M185.857 1317.39 Q191.667 1317.39 194.722 1322 Q197.801 1326.58 197.801 1335.33 Q197.801 1344.06 194.722 1348.66 Q191.667 1353.25 185.857 1353.25 Q180.046 1353.25 176.968 1348.66 Q173.912 1344.06 173.912 1335.33 Q173.912 1326.58 176.968 1322 Q180.046 1317.39 185.857 1317.39 Z" fill="#000000" fill-rule="nonzero" fill-opacity="1" /><path clip-path="url(#clip530)" d="M234.19 1327.11 L223.611 1337.74 L234.19 1348.32 L231.435 1351.12 L220.81 1340.49 L210.185 1351.12 L207.454 1348.32 L218.009 1337.74 L207.454 1327.11 L210.185 1324.31 L220.81 1334.94 L231.435 1324.31 L234.19 1327.11 Z" fill="#000000" fill-rule="nonzero" fill-opacity="1" /><path clip-path="url(#clip530)" d="M246.551 1348.64 L254.19 1348.64 L254.19 1322.27 L245.879 1323.94 L245.879 1319.68 L254.143 1318.02 L258.819 1318.02 L258.819 1348.64 L266.458 1348.64 L266.458 1352.58 L246.551 1352.58 L246.551 1348.64 Z" fill="#000000" fill-rule="nonzero" fill-opacity="1" /><path clip-path="url(#clip530)" d="M285.902 1321.09 Q282.291 1321.09 280.463 1324.66 Q278.657 1328.2 278.657 1335.33 Q278.657 1342.44 280.463 1346 Q282.291 1349.54 285.902 1349.54 Q289.537 1349.54 291.342 1346 Q293.171 1342.44 293.171 1335.33 Q293.171 1328.2 291.342 1324.66 Q289.537 1321.09 285.902 1321.09 M285.902 1317.39 Q291.712 1317.39 294.768 1322 Q297.847 1326.58 297.847 1335.33 Q297.847 1344.06 294.768 1348.66 Q291.712 1353.25 285.902 1353.25 Q280.092 1353.25 277.013 1348.66 Q273.958 1344.06 273.958 1335.33 Q273.958 1326.58 277.013 1322 Q280.092 1317.39 285.902 1317.39 Z" fill="#000000" fill-rule="nonzero" fill-opacity="1" /><path clip-path="url(#clip530)" d="M307.476 1311.83 Q304.768 1311.83 303.207 1313.28 Q301.665 1314.73 301.665 1317.27 Q301.665 1319.8 303.207 1321.25 Q304.768 1322.7 307.476 1322.7 Q310.185 1322.7 311.746 1321.25 Q313.307 1319.79 313.307 1317.27 Q313.307 1314.73 311.746 1313.28 Q310.203 1311.83 307.476 1311.83 M303.677 1310.21 Q301.232 1309.61 299.859 1307.94 Q298.505 1306.26 298.505 1303.86 Q298.505 1300.49 300.894 1298.53 Q303.301 1296.58 307.476 1296.58 Q311.67 1296.58 314.059 1298.53 Q316.448 1300.49 316.448 1303.86 Q316.448 1306.26 315.075 1307.94 Q313.72 1309.61 311.294 1310.21 Q314.04 1310.85 315.564 1312.71 Q317.106 1314.58 317.106 1317.27 Q317.106 1321.35 314.604 1323.53 Q312.122 1325.71 307.476 1325.71 Q302.831 1325.71 300.329 1323.53 Q297.847 1321.35 297.847 1317.27 Q297.847 1314.58 299.389 1312.71 Q300.931 1310.85 303.677 1310.21 M302.285 1304.21 Q302.285 1306.39 303.639 1307.62 Q305.012 1308.84 307.476 1308.84 Q309.921 1308.84 311.294 1307.62 Q312.686 1306.39 312.686 1304.21 Q312.686 1302.03 311.294 1300.81 Q309.921 1299.59 307.476 1299.59 Q305.012 1299.59 303.639 1300.81 Q302.285 1302.03 302.285 1304.21 Z" fill="#000000" fill-rule="nonzero" fill-opacity="1" /><path clip-path="url(#clip530)" d="M110.463 1117.47 Q107.13 1117.47 105.209 1119.26 Q103.311 1121.04 103.311 1124.16 Q103.311 1127.29 105.209 1129.07 Q107.13 1130.85 110.463 1130.85 Q113.797 1130.85 115.718 1129.07 Q117.639 1127.26 117.639 1124.16 Q117.639 1121.04 115.718 1119.26 Q113.82 1117.47 110.463 1117.47 M105.788 1115.48 Q102.778 1114.74 101.088 1112.68 Q99.4218 1110.62 99.4218 1107.66 Q99.4218 1103.52 102.362 1101.11 Q105.325 1098.7 110.463 1098.7 Q115.625 1098.7 118.565 1101.11 Q121.505 1103.52 121.505 1107.66 Q121.505 1110.62 119.815 1112.68 Q118.149 1114.74 115.162 1115.48 Q118.542 1116.27 120.417 1118.56 Q122.315 1120.85 122.315 1124.16 Q122.315 1129.19 119.237 1131.87 Q116.181 1134.56 110.463 1134.56 Q104.746 1134.56 101.667 1131.87 Q98.6116 1129.19 98.6116 1124.16 Q98.6116 1120.85 100.51 1118.56 Q102.408 1116.27 105.788 1115.48 M104.075 1108.1 Q104.075 1110.78 105.741 1112.29 Q107.431 1113.79 110.463 1113.79 Q113.473 1113.79 115.162 1112.29 Q116.875 1110.78 116.875 1108.1 Q116.875 1105.41 115.162 1103.91 Q113.473 1102.4 110.463 1102.4 Q107.431 1102.4 105.741 1103.91 Q104.075 1105.41 104.075 1108.1 Z" fill="#000000" fill-rule="nonzero" fill-opacity="1" /><path clip-path="url(#clip530)" d="M130.625 1128.01 L135.51 1128.01 L135.51 1133.89 L130.625 1133.89 L130.625 1128.01 Z" fill="#000000" fill-rule="nonzero" fill-opacity="1" /><path clip-path="url(#clip530)" d="M155.695 1102.4 Q152.084 1102.4 150.255 1105.97 Q148.449 1109.51 148.449 1116.64 Q148.449 1123.75 150.255 1127.31 Q152.084 1130.85 155.695 1130.85 Q159.329 1130.85 161.134 1127.31 Q162.963 1123.75 162.963 1116.64 Q162.963 1109.51 161.134 1105.97 Q159.329 1102.4 155.695 1102.4 M155.695 1098.7 Q161.505 1098.7 164.56 1103.31 Q167.639 1107.89 167.639 1116.64 Q167.639 1125.37 164.56 1129.97 Q161.505 1134.56 155.695 1134.56 Q149.885 1134.56 146.806 1129.97 Q143.75 1125.37 143.75 1116.64 Q143.75 1107.89 146.806 1103.31 Q149.885 1098.7 155.695 1098.7 Z" fill="#000000" fill-rule="nonzero" fill-opacity="1" /><path clip-path="url(#clip530)" d="M185.857 1102.4 Q182.245 1102.4 180.417 1105.97 Q178.611 1109.51 178.611 1116.64 Q178.611 1123.75 180.417 1127.31 Q182.245 1130.85 185.857 1130.85 Q189.491 1130.85 191.296 1127.31 Q193.125 1123.75 193.125 1116.64 Q193.125 1109.51 191.296 1105.97 Q189.491 1102.4 185.857 1102.4 M185.857 1098.7 Q191.667 1098.7 194.722 1103.31 Q197.801 1107.89 197.801 1116.64 Q197.801 1125.37 194.722 1129.97 Q191.667 1134.56 185.857 1134.56 Q180.046 1134.56 176.968 1129.97 Q173.912 1125.37 173.912 1116.64 Q173.912 1107.89 176.968 1103.31 Q180.046 1098.7 185.857 1098.7 Z" fill="#000000" fill-rule="nonzero" fill-opacity="1" /><path clip-path="url(#clip530)" d="M234.19 1108.42 L223.611 1119.05 L234.19 1129.63 L231.435 1132.43 L220.81 1121.8 L210.185 1132.43 L207.454 1129.63 L218.009 1119.05 L207.454 1108.42 L210.185 1105.62 L220.81 1116.25 L231.435 1105.62 L234.19 1108.42 Z" fill="#000000" fill-rule="nonzero" fill-opacity="1" /><path clip-path="url(#clip530)" d="M246.551 1129.95 L254.19 1129.95 L254.19 1103.58 L245.879 1105.25 L245.879 1100.99 L254.143 1099.33 L258.819 1099.33 L258.819 1129.95 L266.458 1129.95 L266.458 1133.89 L246.551 1133.89 L246.551 1129.95 Z" fill="#000000" fill-rule="nonzero" fill-opacity="1" /><path clip-path="url(#clip530)" d="M285.902 1102.4 Q282.291 1102.4 280.463 1105.97 Q278.657 1109.51 278.657 1116.64 Q278.657 1123.75 280.463 1127.31 Q282.291 1130.85 285.902 1130.85 Q289.537 1130.85 291.342 1127.31 Q293.171 1123.75 293.171 1116.64 Q293.171 1109.51 291.342 1105.97 Q289.537 1102.4 285.902 1102.4 M285.902 1098.7 Q291.712 1098.7 294.768 1103.31 Q297.847 1107.89 297.847 1116.64 Q297.847 1125.37 294.768 1129.97 Q291.712 1134.56 285.902 1134.56 Q280.092 1134.56 277.013 1129.97 Q273.958 1125.37 273.958 1116.64 Q273.958 1107.89 277.013 1103.31 Q280.092 1098.7 285.902 1098.7 Z" fill="#000000" fill-rule="nonzero" fill-opacity="1" /><path clip-path="url(#clip530)" d="M307.476 1093.14 Q304.768 1093.14 303.207 1094.59 Q301.665 1096.04 301.665 1098.58 Q301.665 1101.11 303.207 1102.56 Q304.768 1104.01 307.476 1104.01 Q310.185 1104.01 311.746 1102.56 Q313.307 1101.1 313.307 1098.58 Q313.307 1096.04 311.746 1094.59 Q310.203 1093.14 307.476 1093.14 M303.677 1091.52 Q301.232 1090.92 299.859 1089.25 Q298.505 1087.57 298.505 1085.17 Q298.505 1081.8 300.894 1079.84 Q303.301 1077.89 307.476 1077.89 Q311.67 1077.89 314.059 1079.84 Q316.448 1081.8 316.448 1085.17 Q316.448 1087.57 315.075 1089.25 Q313.72 1090.92 311.294 1091.52 Q314.04 1092.16 315.564 1094.02 Q317.106 1095.89 317.106 1098.58 Q317.106 1102.66 314.604 1104.84 Q312.122 1107.02 307.476 1107.02 Q302.831 1107.02 300.329 1104.84 Q297.847 1102.66 297.847 1098.58 Q297.847 1095.89 299.389 1094.02 Q300.931 1092.16 303.677 1091.52 M302.285 1085.52 Q302.285 1087.7 303.639 1088.93 Q305.012 1090.15 307.476 1090.15 Q309.921 1090.15 311.294 1088.93 Q312.686 1087.7 312.686 1085.52 Q312.686 1083.34 311.294 1082.12 Q309.921 1080.9 307.476 1080.9 Q305.012 1080.9 303.639 1082.12 Q302.285 1083.34 302.285 1085.52 Z" fill="#000000" fill-rule="nonzero" fill-opacity="1" /><path clip-path="url(#clip530)" d="M100.602 914.478 L100.602 910.219 Q102.362 911.052 104.167 911.492 Q105.973 911.932 107.709 911.932 Q112.338 911.932 114.769 908.83 Q117.223 905.705 117.57 899.362 Q116.227 901.353 114.167 902.418 Q112.107 903.483 109.607 903.483 Q104.422 903.483 101.389 900.358 Q98.3802 897.209 98.3802 891.77 Q98.3802 886.446 101.528 883.228 Q104.676 880.01 109.908 880.01 Q115.903 880.01 119.051 884.617 Q122.223 889.2 122.223 897.95 Q122.223 906.121 118.334 911.006 Q114.468 915.867 107.917 915.867 Q106.158 915.867 104.352 915.519 Q102.547 915.172 100.602 914.478 M109.908 899.825 Q113.056 899.825 114.885 897.672 Q116.737 895.52 116.737 891.77 Q116.737 888.043 114.885 885.89 Q113.056 883.714 109.908 883.714 Q106.76 883.714 104.908 885.89 Q103.079 888.043 103.079 891.77 Q103.079 895.52 104.908 897.672 Q106.76 899.825 109.908 899.825 Z" fill="#000000" fill-rule="nonzero" fill-opacity="1" /><path clip-path="url(#clip530)" d="M130.625 909.316 L135.51 909.316 L135.51 915.195 L130.625 915.195 L130.625 909.316 Z" fill="#000000" fill-rule="nonzero" fill-opacity="1" /><path clip-path="url(#clip530)" d="M155.695 883.714 Q152.084 883.714 150.255 887.279 Q148.449 890.821 148.449 897.95 Q148.449 905.057 150.255 908.621 Q152.084 912.163 155.695 912.163 Q159.329 912.163 161.134 908.621 Q162.963 905.057 162.963 897.95 Q162.963 890.821 161.134 887.279 Q159.329 883.714 155.695 883.714 M155.695 880.01 Q161.505 880.01 164.56 884.617 Q167.639 889.2 167.639 897.95 Q167.639 906.677 164.56 911.283 Q161.505 915.867 155.695 915.867 Q149.885 915.867 146.806 911.283 Q143.75 906.677 143.75 897.95 Q143.75 889.2 146.806 884.617 Q149.885 880.01 155.695 880.01 Z" fill="#000000" fill-rule="nonzero" fill-opacity="1" /><path clip-path="url(#clip530)" d="M185.857 883.714 Q182.245 883.714 180.417 887.279 Q178.611 890.821 178.611 897.95 Q178.611 905.057 180.417 908.621 Q182.245 912.163 185.857 912.163 Q189.491 912.163 191.296 908.621 Q193.125 905.057 193.125 897.95 Q193.125 890.821 191.296 887.279 Q189.491 883.714 185.857 883.714 M185.857 880.01 Q191.667 880.01 194.722 884.617 Q197.801 889.2 197.801 897.95 Q197.801 906.677 194.722 911.283 Q191.667 915.867 185.857 915.867 Q180.046 915.867 176.968 911.283 Q173.912 906.677 173.912 897.95 Q173.912 889.2 176.968 884.617 Q180.046 880.01 185.857 880.01 Z" fill="#000000" fill-rule="nonzero" fill-opacity="1" /><path clip-path="url(#clip530)" d="M234.19 889.733 L223.611 900.358 L234.19 910.936 L231.435 913.737 L220.81 903.112 L210.185 913.737 L207.454 910.936 L218.009 900.358 L207.454 889.733 L210.185 886.932 L220.81 897.557 L231.435 886.932 L234.19 889.733 Z" fill="#000000" fill-rule="nonzero" fill-opacity="1" /><path clip-path="url(#clip530)" d="M246.551 911.26 L254.19 911.26 L254.19 884.895 L245.879 886.561 L245.879 882.302 L254.143 880.635 L258.819 880.635 L258.819 911.26 L266.458 911.26 L266.458 915.195 L246.551 915.195 L246.551 911.26 Z" fill="#000000" fill-rule="nonzero" fill-opacity="1" /><path clip-path="url(#clip530)" d="M285.902 883.714 Q282.291 883.714 280.463 887.279 Q278.657 890.821 278.657 897.95 Q278.657 905.057 280.463 908.621 Q282.291 912.163 285.902 912.163 Q289.537 912.163 291.342 908.621 Q293.171 905.057 293.171 897.95 Q293.171 890.821 291.342 887.279 Q289.537 883.714 285.902 883.714 M285.902 880.01 Q291.712 880.01 294.768 884.617 Q297.847 889.2 297.847 897.95 Q297.847 906.677 294.768 911.283 Q291.712 915.867 285.902 915.867 Q280.092 915.867 277.013 911.283 Q273.958 906.677 273.958 897.95 Q273.958 889.2 277.013 884.617 Q280.092 880.01 285.902 880.01 Z" fill="#000000" fill-rule="nonzero" fill-opacity="1" /><path clip-path="url(#clip530)" d="M307.476 874.45 Q304.768 874.45 303.207 875.899 Q301.665 877.347 301.665 879.886 Q301.665 882.425 303.207 883.873 Q304.768 885.321 307.476 885.321 Q310.185 885.321 311.746 883.873 Q313.307 882.406 313.307 879.886 Q313.307 877.347 311.746 875.899 Q310.203 874.45 307.476 874.45 M303.677 872.833 Q301.232 872.231 299.859 870.557 Q298.505 868.883 298.505 866.476 Q298.505 863.109 300.894 861.153 Q303.301 859.197 307.476 859.197 Q311.67 859.197 314.059 861.153 Q316.448 863.109 316.448 866.476 Q316.448 868.883 315.075 870.557 Q313.72 872.231 311.294 872.833 Q314.04 873.472 315.564 875.334 Q317.106 877.196 317.106 879.886 Q317.106 883.967 314.604 886.149 Q312.122 888.33 307.476 888.33 Q302.831 888.33 300.329 886.149 Q297.847 883.967 297.847 879.886 Q297.847 877.196 299.389 875.334 Q300.931 873.472 303.677 872.833 M302.285 866.833 Q302.285 869.015 303.639 870.237 Q305.012 871.46 307.476 871.46 Q309.921 871.46 311.294 870.237 Q312.686 869.015 312.686 866.833 Q312.686 864.651 311.294 863.429 Q309.921 862.206 307.476 862.206 Q305.012 862.206 303.639 863.429 Q302.285 864.651 302.285 866.833 Z" fill="#000000" fill-rule="nonzero" fill-opacity="1" /><path clip-path="url(#clip530)" d="M101.161 692.57 L108.8 692.57 L108.8 666.205 L100.49 667.871 L100.49 663.612 L108.753 661.946 L113.429 661.946 L113.429 692.57 L121.068 692.57 L121.068 696.506 L101.161 696.506 L101.161 692.57 Z" fill="#000000" fill-rule="nonzero" fill-opacity="1" /><path clip-path="url(#clip530)" d="M130.513 690.626 L135.397 690.626 L135.397 696.506 L130.513 696.506 L130.513 690.626 Z" fill="#000000" fill-rule="nonzero" fill-opacity="1" /><path clip-path="url(#clip530)" d="M155.582 665.024 Q151.971 665.024 150.142 668.589 Q148.336 672.131 148.336 679.26 Q148.336 686.367 150.142 689.931 Q151.971 693.473 155.582 693.473 Q159.216 693.473 161.022 689.931 Q162.85 686.367 162.85 679.26 Q162.85 672.131 161.022 668.589 Q159.216 665.024 155.582 665.024 M155.582 661.321 Q161.392 661.321 164.448 665.927 Q167.526 670.51 167.526 679.26 Q167.526 687.987 164.448 692.593 Q161.392 697.177 155.582 697.177 Q149.772 697.177 146.693 692.593 Q143.637 687.987 143.637 679.26 Q143.637 670.51 146.693 665.927 Q149.772 661.321 155.582 661.321 Z" fill="#000000" fill-rule="nonzero" fill-opacity="1" /><path clip-path="url(#clip530)" d="M185.744 665.024 Q182.133 665.024 180.304 668.589 Q178.498 672.131 178.498 679.26 Q178.498 686.367 180.304 689.931 Q182.133 693.473 185.744 693.473 Q189.378 693.473 191.183 689.931 Q193.012 686.367 193.012 679.26 Q193.012 672.131 191.183 668.589 Q189.378 665.024 185.744 665.024 M185.744 661.321 Q191.554 661.321 194.609 665.927 Q197.688 670.51 197.688 679.26 Q197.688 687.987 194.609 692.593 Q191.554 697.177 185.744 697.177 Q179.934 697.177 176.855 692.593 Q173.799 687.987 173.799 679.26 Q173.799 670.51 176.855 665.927 Q179.934 661.321 185.744 661.321 Z" fill="#000000" fill-rule="nonzero" fill-opacity="1" /><path clip-path="url(#clip530)" d="M234.077 671.043 L223.498 681.668 L234.077 692.246 L231.322 695.047 L220.697 684.422 L210.072 695.047 L207.341 692.246 L217.896 681.668 L207.341 671.043 L210.072 668.242 L220.697 678.867 L231.322 668.242 L234.077 671.043 Z" fill="#000000" fill-rule="nonzero" fill-opacity="1" /><path clip-path="url(#clip530)" d="M246.438 692.57 L254.077 692.57 L254.077 666.205 L245.767 667.871 L245.767 663.612 L254.03 661.946 L258.706 661.946 L258.706 692.57 L266.345 692.57 L266.345 696.506 L246.438 696.506 L246.438 692.57 Z" fill="#000000" fill-rule="nonzero" fill-opacity="1" /><path clip-path="url(#clip530)" d="M285.789 665.024 Q282.178 665.024 280.35 668.589 Q278.544 672.131 278.544 679.26 Q278.544 686.367 280.35 689.931 Q282.178 693.473 285.789 693.473 Q289.424 693.473 291.229 689.931 Q293.058 686.367 293.058 679.26 Q293.058 672.131 291.229 668.589 Q289.424 665.024 285.789 665.024 M285.789 661.321 Q291.6 661.321 294.655 665.927 Q297.734 670.51 297.734 679.26 Q297.734 687.987 294.655 692.593 Q291.6 697.177 285.789 697.177 Q279.979 697.177 276.901 692.593 Q273.845 687.987 273.845 679.26 Q273.845 670.51 276.901 665.927 Q279.979 661.321 285.789 661.321 Z" fill="#000000" fill-rule="nonzero" fill-opacity="1" /><path clip-path="url(#clip530)" d="M299.539 668.512 L299.539 665.051 Q300.969 665.729 302.436 666.086 Q303.903 666.443 305.313 666.443 Q309.075 666.443 311.05 663.923 Q313.043 661.384 313.325 656.231 Q312.235 657.848 310.561 658.713 Q308.887 659.578 306.856 659.578 Q302.643 659.578 300.179 657.039 Q297.734 654.481 297.734 650.062 Q297.734 645.736 300.292 643.122 Q302.85 640.507 307.1 640.507 Q311.971 640.507 314.529 644.25 Q317.106 647.974 317.106 655.083 Q317.106 661.722 313.946 665.691 Q310.805 669.641 305.483 669.641 Q304.053 669.641 302.586 669.358 Q301.119 669.076 299.539 668.512 M307.1 656.607 Q309.658 656.607 311.144 654.858 Q312.648 653.109 312.648 650.062 Q312.648 647.034 311.144 645.284 Q309.658 643.517 307.1 643.517 Q304.542 643.517 303.038 645.284 Q301.552 647.034 301.552 650.062 Q301.552 653.109 303.038 654.858 Q304.542 656.607 307.1 656.607 Z" fill="#000000" fill-rule="nonzero" fill-opacity="1" /><path clip-path="url(#clip530)" d="M101.161 473.88 L108.8 473.88 L108.8 447.515 L100.49 449.182 L100.49 444.922 L108.753 443.256 L113.429 443.256 L113.429 473.88 L121.068 473.88 L121.068 477.816 L101.161 477.816 L101.161 473.88 Z" fill="#000000" fill-rule="nonzero" fill-opacity="1" /><path clip-path="url(#clip530)" d="M130.513 471.936 L135.397 471.936 L135.397 477.816 L130.513 477.816 L130.513 471.936 Z" fill="#000000" fill-rule="nonzero" fill-opacity="1" /><path clip-path="url(#clip530)" d="M146.392 473.88 L154.031 473.88 L154.031 447.515 L145.721 449.182 L145.721 444.922 L153.985 443.256 L158.661 443.256 L158.661 473.88 L166.299 473.88 L166.299 477.816 L146.392 477.816 L146.392 473.88 Z" fill="#000000" fill-rule="nonzero" fill-opacity="1" /><path clip-path="url(#clip530)" d="M185.744 446.334 Q182.133 446.334 180.304 449.899 Q178.498 453.441 178.498 460.57 Q178.498 467.677 180.304 471.242 Q182.133 474.783 185.744 474.783 Q189.378 474.783 191.183 471.242 Q193.012 467.677 193.012 460.57 Q193.012 453.441 191.183 449.899 Q189.378 446.334 185.744 446.334 M185.744 442.631 Q191.554 442.631 194.609 447.237 Q197.688 451.82 197.688 460.57 Q197.688 469.297 194.609 473.904 Q191.554 478.487 185.744 478.487 Q179.934 478.487 176.855 473.904 Q173.799 469.297 173.799 460.57 Q173.799 451.82 176.855 447.237 Q179.934 442.631 185.744 442.631 Z" fill="#000000" fill-rule="nonzero" fill-opacity="1" /><path clip-path="url(#clip530)" d="M234.077 452.353 L223.498 462.978 L234.077 473.556 L231.322 476.357 L220.697 465.732 L210.072 476.357 L207.341 473.556 L217.896 462.978 L207.341 452.353 L210.072 449.552 L220.697 460.177 L231.322 449.552 L234.077 452.353 Z" fill="#000000" fill-rule="nonzero" fill-opacity="1" /><path clip-path="url(#clip530)" d="M246.438 473.88 L254.077 473.88 L254.077 447.515 L245.767 449.182 L245.767 444.922 L254.03 443.256 L258.706 443.256 L258.706 473.88 L266.345 473.88 L266.345 477.816 L246.438 477.816 L246.438 473.88 Z" fill="#000000" fill-rule="nonzero" fill-opacity="1" /><path clip-path="url(#clip530)" d="M285.789 446.334 Q282.178 446.334 280.35 449.899 Q278.544 453.441 278.544 460.57 Q278.544 467.677 280.35 471.242 Q282.178 474.783 285.789 474.783 Q289.424 474.783 291.229 471.242 Q293.058 467.677 293.058 460.57 Q293.058 453.441 291.229 449.899 Q289.424 446.334 285.789 446.334 M285.789 442.631 Q291.6 442.631 294.655 447.237 Q297.734 451.82 297.734 460.57 Q297.734 469.297 294.655 473.904 Q291.6 478.487 285.789 478.487 Q279.979 478.487 276.901 473.904 Q273.845 469.297 273.845 460.57 Q273.845 451.82 276.901 447.237 Q279.979 442.631 285.789 442.631 Z" fill="#000000" fill-rule="nonzero" fill-opacity="1" /><path clip-path="url(#clip530)" d="M299.539 449.822 L299.539 446.362 Q300.969 447.039 302.436 447.396 Q303.903 447.753 305.313 447.753 Q309.075 447.753 311.05 445.233 Q313.043 442.694 313.325 437.541 Q312.235 439.158 310.561 440.023 Q308.887 440.888 306.856 440.888 Q302.643 440.888 300.179 438.349 Q297.734 435.792 297.734 431.372 Q297.734 427.046 300.292 424.432 Q302.85 421.817 307.1 421.817 Q311.971 421.817 314.529 425.56 Q317.106 429.284 317.106 436.393 Q317.106 443.033 313.946 447.001 Q310.805 450.951 305.483 450.951 Q304.053 450.951 302.586 450.669 Q301.119 450.386 299.539 449.822 M307.1 437.917 Q309.658 437.917 311.144 436.168 Q312.648 434.419 312.648 431.372 Q312.648 428.344 311.144 426.595 Q309.658 424.827 307.1 424.827 Q304.542 424.827 303.038 426.595 Q301.552 428.344 301.552 431.372 Q301.552 434.419 303.038 436.168 Q304.542 437.917 307.1 437.917 Z" fill="#000000" fill-rule="nonzero" fill-opacity="1" /><path clip-path="url(#clip530)" d="M101.161 255.191 L108.8 255.191 L108.8 228.825 L100.49 230.492 L100.49 226.232 L108.753 224.566 L113.429 224.566 L113.429 255.191 L121.068 255.191 L121.068 259.126 L101.161 259.126 L101.161 255.191 Z" fill="#000000" fill-rule="nonzero" fill-opacity="1" /><path clip-path="url(#clip530)" d="M130.513 253.246 L135.397 253.246 L135.397 259.126 L130.513 259.126 L130.513 253.246 Z" fill="#000000" fill-rule="nonzero" fill-opacity="1" /><path clip-path="url(#clip530)" d="M149.61 255.191 L165.929 255.191 L165.929 259.126 L143.985 259.126 L143.985 255.191 Q146.647 252.436 151.23 247.806 Q155.836 243.154 157.017 241.811 Q159.262 239.288 160.142 237.552 Q161.045 235.793 161.045 234.103 Q161.045 231.348 159.1 229.612 Q157.179 227.876 154.077 227.876 Q151.878 227.876 149.424 228.64 Q146.994 229.404 144.216 230.955 L144.216 226.232 Q147.04 225.098 149.494 224.519 Q151.948 223.941 153.985 223.941 Q159.355 223.941 162.549 226.626 Q165.744 229.311 165.744 233.802 Q165.744 235.931 164.934 237.853 Q164.147 239.751 162.04 242.343 Q161.461 243.015 158.36 246.232 Q155.258 249.427 149.61 255.191 Z" fill="#000000" fill-rule="nonzero" fill-opacity="1" /><path clip-path="url(#clip530)" d="M185.744 227.644 Q182.133 227.644 180.304 231.209 Q178.498 234.751 178.498 241.88 Q178.498 248.987 180.304 252.552 Q182.133 256.093 185.744 256.093 Q189.378 256.093 191.183 252.552 Q193.012 248.987 193.012 241.88 Q193.012 234.751 191.183 231.209 Q189.378 227.644 185.744 227.644 M185.744 223.941 Q191.554 223.941 194.609 228.547 Q197.688 233.13 197.688 241.88 Q197.688 250.607 194.609 255.214 Q191.554 259.797 185.744 259.797 Q179.934 259.797 176.855 255.214 Q173.799 250.607 173.799 241.88 Q173.799 233.13 176.855 228.547 Q179.934 223.941 185.744 223.941 Z" fill="#000000" fill-rule="nonzero" fill-opacity="1" /><path clip-path="url(#clip530)" d="M234.077 233.663 L223.498 244.288 L234.077 254.866 L231.322 257.667 L220.697 247.042 L210.072 257.667 L207.341 254.866 L217.896 244.288 L207.341 233.663 L210.072 230.862 L220.697 241.487 L231.322 230.862 L234.077 233.663 Z" fill="#000000" fill-rule="nonzero" fill-opacity="1" /><path clip-path="url(#clip530)" d="M246.438 255.191 L254.077 255.191 L254.077 228.825 L245.767 230.492 L245.767 226.232 L254.03 224.566 L258.706 224.566 L258.706 255.191 L266.345 255.191 L266.345 259.126 L246.438 259.126 L246.438 255.191 Z" fill="#000000" fill-rule="nonzero" fill-opacity="1" /><path clip-path="url(#clip530)" d="M285.789 227.644 Q282.178 227.644 280.35 231.209 Q278.544 234.751 278.544 241.88 Q278.544 248.987 280.35 252.552 Q282.178 256.093 285.789 256.093 Q289.424 256.093 291.229 252.552 Q293.058 248.987 293.058 241.88 Q293.058 234.751 291.229 231.209 Q289.424 227.644 285.789 227.644 M285.789 223.941 Q291.6 223.941 294.655 228.547 Q297.734 233.13 297.734 241.88 Q297.734 250.607 294.655 255.214 Q291.6 259.797 285.789 259.797 Q279.979 259.797 276.901 255.214 Q273.845 250.607 273.845 241.88 Q273.845 233.13 276.901 228.547 Q279.979 223.941 285.789 223.941 Z" fill="#000000" fill-rule="nonzero" fill-opacity="1" /><path clip-path="url(#clip530)" d="M299.539 231.132 L299.539 227.672 Q300.969 228.349 302.436 228.706 Q303.903 229.063 305.313 229.063 Q309.075 229.063 311.05 226.543 Q313.043 224.004 313.325 218.851 Q312.235 220.468 310.561 221.333 Q308.887 222.199 306.856 222.199 Q302.643 222.199 300.179 219.66 Q297.734 217.102 297.734 212.682 Q297.734 208.356 300.292 205.742 Q302.85 203.127 307.1 203.127 Q311.971 203.127 314.529 206.87 Q317.106 210.594 317.106 217.704 Q317.106 224.343 313.946 228.311 Q310.805 232.261 305.483 232.261 Q304.053 232.261 302.586 231.979 Q301.119 231.697 299.539 231.132 M307.1 219.227 Q309.658 219.227 311.144 217.478 Q312.648 215.729 312.648 212.682 Q312.648 209.654 311.144 207.905 Q309.658 206.137 307.1 206.137 Q304.542 206.137 303.038 207.905 Q301.552 209.654 301.552 212.682 Q301.552 215.729 303.038 217.478 Q304.542 219.227 307.1 219.227 Z" fill="#000000" fill-rule="nonzero" fill-opacity="1" /><path clip-path="url(#clip530)" d="M-9.64527 840.632 L0.4762 840.632 L0.4762 828.569 L5.02768 828.569 L5.02768 840.632 L24.3794 840.632 Q28.7399 840.632 29.9813 839.454 Q31.2226 838.245 31.2226 834.584 L31.2226 828.569 L36.1242 828.569 L36.1242 834.584 Q36.1242 841.364 33.6097 843.942 Q31.0634 846.52 24.3794 846.52 L5.02768 846.52 L5.02768 850.817 L0.4762 850.817 L0.4762 846.52 L-9.64527 846.52 L-9.64527 840.632 Z" fill="#000000" fill-rule="nonzero" fill-opacity="1" /><path clip-path="url(#clip530)" d="M-11.3958 789.738 L-11.3958 784.327 L42.1716 800.878 L42.1716 806.289 L-11.3958 789.738 Z" fill="#000000" fill-rule="nonzero" fill-opacity="1" /><path clip-path="url(#clip530)" d="M14.6081 727.831 L36.1242 727.831 L36.1242 733.688 L14.799 733.688 Q9.7383 733.688 7.22385 735.661 Q4.7094 737.635 4.7094 741.581 Q4.7094 746.324 7.73311 749.061 Q10.7568 751.798 15.9767 751.798 L36.1242 751.798 L36.1242 757.687 L0.4762 757.687 L0.4762 751.798 L6.01437 751.798 Q2.79968 749.698 1.20826 746.865 Q-0.38317 744 -0.38317 740.276 Q-0.38317 734.133 3.43625 730.982 Q7.22385 727.831 14.6081 727.831 Z" fill="#000000" fill-rule="nonzero" fill-opacity="1" /><path clip-path="url(#clip530)" d="M1.52654 693.425 L7.06471 693.425 Q5.79157 695.907 5.15499 698.581 Q4.51842 701.255 4.51842 704.119 Q4.51842 708.48 5.85522 710.676 Q7.19202 712.84 9.86562 712.84 Q11.9026 712.84 13.0803 711.281 Q14.2261 709.721 15.2765 705.01 L15.7221 703.005 Q17.0589 696.767 19.5097 694.157 Q21.9286 691.515 26.2891 691.515 Q31.2544 691.515 34.1508 695.462 Q37.0472 699.377 37.0472 706.252 Q37.0472 709.116 36.4743 712.235 Q35.9332 715.323 34.8192 718.76 L28.7718 718.76 Q30.4587 715.514 31.318 712.363 Q32.1456 709.212 32.1456 706.124 Q32.1456 701.987 30.7451 699.759 Q29.3129 697.531 26.7347 697.531 Q24.3476 697.531 23.0745 699.154 Q21.8013 700.745 20.6237 706.188 L20.1462 708.225 Q19.0004 713.668 16.6451 716.087 Q14.258 718.506 10.1202 718.506 Q5.09134 718.506 2.35408 714.941 Q-0.38317 711.376 -0.38317 704.819 Q-0.38317 701.573 0.0942579 698.708 Q0.571686 695.844 1.52654 693.425 Z" fill="#000000" fill-rule="nonzero" fill-opacity="1" /><path clip-path="url(#clip532)" d="M1188.52 1454.11 L1191.22 1453.08 L1193.23 1452.04 L1194.61 1451.01 L1195.44 1449.97 L1195.81 1448.94 L1195.83 1447.9 L1195.59 1446.87 L1195.22 1445.83 L1194.84 1444.8 L1194.56 1443.76 L1194.51 1442.73 L1194.8 1441.69 L1195.53 1440.66 L1196.79 1439.62 L1198.67 1438.59 L1201.23 1437.55 L1204.53 1436.52 L1208.6 1435.48 L1213.45 1434.45 L1219.09 1433.41 L1225.5 1432.38 L1232.65 1431.34 L1240.47 1430.31 L1248.91 1429.27 L1257.89 1428.24 L1267.33 1427.2 L1277.11 1426.17 L1287.15 1425.13 L1297.32 1424.1 L1307.53 1423.06 L1317.65 1422.03 L1327.58 1420.99 L1337.2 1419.96 L1346.43 1418.92 L1355.16 1417.89 L1363.3 1416.85 L1370.78 1415.82 L1377.53 1414.78 L1383.48 1413.75 L1388.58 1412.71 L1392.8 1411.68 L1396.09 1410.65 L1398.45 1409.61 L1399.86 1408.58 L1400.31 1407.54 L1399.82 1406.51 L1398.39 1405.47 L1396.05 1404.44 L1392.82 1403.4 L1388.75 1402.37 L1383.86 1401.33 L1378.21 1400.3 L1371.84 1399.26 L1364.81 1398.23 L1357.19 1397.19 L1349.02 1396.16 L1340.37 1395.12 L1331.3 1394.09 L1321.89 1393.05 L1312.19 1392.02 L1302.27 1390.98 L1292.19 1389.95 L1282.01 1388.91 L1271.77 1387.88 L1261.55 1386.84 L1251.37 1385.81 L1241.28 1384.77 L1231.32 1383.74 L1221.51 1382.7 L1211.87 1381.67 L1202.42 1380.63 L1193.17 1379.6 L1184.11 1378.56 L1175.25 1377.53 L1166.57 1376.49 L1158.07 1375.46 L1149.73 1374.42 L1141.53 1373.39 L1133.46 1372.35 L1125.49 1371.32 L1117.6 1370.28 L726.711 1370.28 L718.827 1371.32 L710.856 1372.35 L702.781 1373.39 L694.583 1374.42 L686.243 1375.46 L677.743 1376.49 L669.068 1377.53 L660.207 1378.56 L651.15 1379.6 L641.895 1380.63 L632.445 1381.67 L622.806 1382.7 L612.995 1383.74 L603.032 1384.77 L592.945 1385.81 L582.768 1386.84 L572.541 1387.88 L562.31 1388.91 L552.126 1389.95 L542.045 1390.98 L532.124 1392.02 L522.425 1393.05 L513.012 1394.09 L503.949 1395.12 L495.3 1396.16 L487.13 1397.19 L479.502 1398.23 L472.476 1399.26 L466.109 1400.3 L460.457 1401.33 L455.57 1402.37 L451.493 1403.4 L448.266 1404.44 L445.924 1405.47 L444.496 1406.51 L444.002 1407.54 L444.456 1408.58 L445.863 1409.61 L448.222 1410.65 L451.52 1411.68 L455.736 1412.71 L460.839 1413.75 L466.788 1414.78 L473.532 1415.82 L481.012 1416.85 L489.155 1417.89 L497.884 1418.92 L507.11 1419.96 L516.738 1420.99 L526.666 1422.03 L536.787 1423.06 L546.991 1424.1 L557.167 1425.13 L567.202 1426.17 L576.988 1427.2 L586.421 1428.24 L595.403 1429.27 L603.845 1430.31 L611.67 1431.34 L618.813 1432.38 L625.222 1433.41 L630.863 1434.45 L635.718 1435.48 L639.786 1436.52 L643.085 1437.55 L645.648 1438.59 L647.527 1439.62 L648.79 1440.66 L649.517 1441.69 L649.803 1442.73 L649.752 1443.76 L649.477 1444.8 L649.095 1445.83 L648.726 1446.87 L648.49 1447.9 L648.502 1448.94 L648.873 1449.97 L649.703 1451.01 L651.084 1452.04 L653.093 1453.08 L655.792 1454.11 L1188.52 1454.11  Z" fill="#009af9" fill-rule="evenodd" fill-opacity="1"/>
<polyline clip-path="url(#clip532)" style="stroke:#000000; stroke-linecap:round; stroke-linejoin:round; stroke-width:4; stroke-opacity:1; fill:none" points="1188.52,1454.11 1191.22,1453.08 1193.23,1452.04 1194.61,1451.01 1195.44,1449.97 1195.81,1448.94 1195.83,1447.9 1195.59,1446.87 1195.22,1445.83 1194.84,1444.8 1194.56,1443.76 1194.51,1442.73 1194.8,1441.69 1195.53,1440.66 1196.79,1439.62 1198.67,1438.59 1201.23,1437.55 1204.53,1436.52 1208.6,1435.48 1213.45,1434.45 1219.09,1433.41 1225.5,1432.38 1232.65,1431.34 1240.47,1430.31 1248.91,1429.27 1257.89,1428.24 1267.33,1427.2 1277.11,1426.17 1287.15,1425.13 1297.32,1424.1 1307.53,1423.06 1317.65,1422.03 1327.58,1420.99 1337.2,1419.96 1346.43,1418.92 1355.16,1417.89 1363.3,1416.85 1370.78,1415.82 1377.53,1414.78 1383.48,1413.75 1388.58,1412.71 1392.8,1411.68 1396.09,1410.65 1398.45,1409.61 1399.86,1408.58 1400.31,1407.54 1399.82,1406.51 1398.39,1405.47 1396.05,1404.44 1392.82,1403.4 1388.75,1402.37 1383.86,1401.33 1378.21,1400.3 1371.84,1399.26 1364.81,1398.23 1357.19,1397.19 1349.02,1396.16 1340.37,1395.12 1331.3,1394.09 1321.89,1393.05 1312.19,1392.02 1302.27,1390.98 1292.19,1389.95 1282.01,1388.91 1271.77,1387.88 1261.55,1386.84 1251.37,1385.81 1241.28,1384.77 1231.32,1383.74 1221.51,1382.7 1211.87,1381.67 1202.42,1380.63 1193.17,1379.6 1184.11,1378.56 1175.25,1377.53 1166.57,1376.49 1158.07,1375.46 1149.73,1374.42 1141.53,1373.39 1133.46,1372.35 1125.49,1371.32 1117.6,1370.28 726.711,1370.28 718.827,1371.32 710.856,1372.35 702.781,1373.39 694.583,1374.42 686.243,1375.46 677.743,1376.49 669.068,1377.53 660.207,1378.56 651.15,1379.6 641.895,1380.63 632.445,1381.67 622.806,1382.7 612.995,1383.74 603.032,1384.77 592.945,1385.81 582.768,1386.84 572.541,1387.88 562.31,1388.91 552.126,1389.95 542.045,1390.98 532.124,1392.02 522.425,1393.05 513.012,1394.09 503.949,1395.12 495.3,1396.16 487.13,1397.19 479.502,1398.23 472.476,1399.26 466.109,1400.3 460.457,1401.33 455.57,1402.37 451.493,1403.4 448.266,1404.44 445.924,1405.47 444.496,1406.51 444.002,1407.54 444.456,1408.58 445.863,1409.61 448.222,1410.65 451.52,1411.68 455.736,1412.71 460.839,1413.75 466.788,1414.78 473.532,1415.82 481.012,1416.85 489.155,1417.89 497.884,1418.92 507.11,1419.96 516.738,1420.99 526.666,1422.03 536.787,1423.06 546.991,1424.1 557.167,1425.13 567.202,1426.17 576.988,1427.2 586.421,1428.24 595.403,1429.27 603.845,1430.31 611.67,1431.34 618.813,1432.38 625.222,1433.41 630.863,1434.45 635.718,1435.48 639.786,1436.52 643.085,1437.55 645.648,1438.59 647.527,1439.62 648.79,1440.66 649.517,1441.69 649.803,1442.73 649.752,1443.76 649.477,1444.8 649.095,1445.83 648.726,1446.87 648.49,1447.9 648.502,1448.94 648.873,1449.97 649.703,1451.01 651.084,1452.04 653.093,1453.08 655.792,1454.11 1188.52,1454.11 "/>
<path clip-path="url(#clip532)" d="M2848.57 119.381 L2852.51 118.901 L2856.08 118.422 L2859.31 117.943 L2862.22 117.463 L2864.86 116.984 L2867.26 116.504 L2869.48 116.025 L2871.56 115.546 L2873.55 115.066 L2875.51 114.587 L2877.47 114.108 L2879.49 113.628 L2881.61 113.149 L2883.87 112.669 L2886.31 112.19 L2888.97 111.711 L2891.87 111.231 L2895.04 110.752 L2898.48 110.272 L2902.23 109.793 L2906.27 109.314 L2910.62 108.834 L2915.28 108.355 L2920.22 107.876 L2925.45 107.396 L2930.95 106.917 L2936.7 106.437 L2942.67 105.958 L2948.85 105.479 L2955.21 104.999 L2961.73 104.52 L2968.37 104.04 L2975.11 103.561 L2981.92 103.082 L2988.76 102.602 L2995.6 102.123 L3002.42 101.644 L3009.16 101.164 L3015.8 100.685 L3022.31 100.205 L3028.63 99.726 L3034.73 99.2467 L3040.57 98.7673 L3046.09 98.2879 L3051.26 97.8085 L3056.03 97.3291 L3060.34 96.8497 L3064.14 96.3703 L3067.39 95.891 L3070.04 95.4116 L3072.03 94.9322 L3073.32 94.4528 L3073.86 93.9734 L3073.61 93.494 L3072.54 93.0147 L3070.61 92.5353 L3067.8 92.0559 L3064.08 91.5765 L3059.44 91.0971 L3053.88 90.6177 L3047.4 90.1383 L3040 89.659 L3031.72 89.1796 L3022.58 88.7002 L3012.61 88.2208 L2178.8 88.2208 L2168.83 88.7002 L2159.69 89.1796 L2151.4 89.659 L2144.01 90.1383 L2137.53 90.6177 L2131.97 91.0971 L2127.33 91.5765 L2123.61 92.0559 L2120.8 92.5353 L2118.87 93.0147 L2117.79 93.494 L2117.55 93.9734 L2118.09 94.4528 L2119.38 94.9322 L2121.37 95.4116 L2124.01 95.891 L2127.26 96.3703 L2131.07 96.8497 L2135.38 97.3291 L2140.14 97.8085 L2145.31 98.2879 L2150.84 98.7673 L2156.68 99.2467 L2162.78 99.726 L2169.1 100.205 L2175.6 100.685 L2182.25 101.164 L2188.99 101.644 L2195.81 102.123 L2202.65 102.602 L2209.49 103.082 L2216.3 103.561 L2223.03 104.04 L2229.68 104.52 L2236.19 104.999 L2242.56 105.479 L2248.74 105.958 L2254.71 106.437 L2260.46 106.917 L2265.96 107.396 L2271.19 107.876 L2276.13 108.355 L2280.78 108.834 L2285.13 109.314 L2289.18 109.793 L2292.92 110.272 L2296.37 110.752 L2299.54 111.231 L2302.44 111.711 L2305.09 112.19 L2307.54 112.669 L2309.8 113.149 L2311.92 113.628 L2313.94 114.108 L2315.9 114.587 L2317.85 115.066 L2319.85 115.546 L2321.93 116.025 L2324.15 116.504 L2326.55 116.984 L2329.19 117.463 L2332.1 117.943 L2335.32 118.422 L2338.89 118.901 L2342.84 119.381 L2848.57 119.381  Z" fill="#e26f46" fill-rule="evenodd" fill-opacity="1"/>
<polyline clip-path="url(#clip532)" style="stroke:#000000; stroke-linecap:round; stroke-linejoin:round; stroke-width:4; stroke-opacity:1; fill:none" points="2848.57,119.381 2852.51,118.901 2856.08,118.422 2859.31,117.943 2862.22,117.463 2864.86,116.984 2867.26,116.504 2869.48,116.025 2871.56,115.546 2873.55,115.066 2875.51,114.587 2877.47,114.108 2879.49,113.628 2881.61,113.149 2883.87,112.669 2886.31,112.19 2888.97,111.711 2891.87,111.231 2895.04,110.752 2898.48,110.272 2902.23,109.793 2906.27,109.314 2910.62,108.834 2915.28,108.355 2920.22,107.876 2925.45,107.396 2930.95,106.917 2936.7,106.437 2942.67,105.958 2948.85,105.479 2955.21,104.999 2961.73,104.52 2968.37,104.04 2975.11,103.561 2981.92,103.082 2988.76,102.602 2995.6,102.123 3002.42,101.644 3009.16,101.164 3015.8,100.685 3022.31,100.205 3028.63,99.726 3034.73,99.2467 3040.57,98.7673 3046.09,98.2879 3051.26,97.8085 3056.03,97.3291 3060.34,96.8497 3064.14,96.3703 3067.39,95.891 3070.04,95.4116 3072.03,94.9322 3073.32,94.4528 3073.86,93.9734 3073.61,93.494 3072.54,93.0147 3070.61,92.5353 3067.8,92.0559 3064.08,91.5765 3059.44,91.0971 3053.88,90.6177 3047.4,90.1383 3040,89.659 3031.72,89.1796 3022.58,88.7002 3012.61,88.2208 2178.8,88.2208 2168.83,88.7002 2159.69,89.1796 2151.4,89.659 2144.01,90.1383 2137.53,90.6177 2131.97,91.0971 2127.33,91.5765 2123.61,92.0559 2120.8,92.5353 2118.87,93.0147 2117.79,93.494 2117.55,93.9734 2118.09,94.4528 2119.38,94.9322 2121.37,95.4116 2124.01,95.891 2127.26,96.3703 2131.07,96.8497 2135.38,97.3291 2140.14,97.8085 2145.31,98.2879 2150.84,98.7673 2156.68,99.2467 2162.78,99.726 2169.1,100.205 2175.6,100.685 2182.25,101.164 2188.99,101.644 2195.81,102.123 2202.65,102.602 2209.49,103.082 2216.3,103.561 2223.03,104.04 2229.68,104.52 2236.19,104.999 2242.56,105.479 2248.74,105.958 2254.71,106.437 2260.46,106.917 2265.96,107.396 2271.19,107.876 2276.13,108.355 2280.78,108.834 2285.13,109.314 2289.18,109.793 2292.92,110.272 2296.37,110.752 2299.54,111.231 2302.44,111.711 2305.09,112.19 2307.54,112.669 2309.8,113.149 2311.92,113.628 2313.94,114.108 2315.9,114.587 2317.85,115.066 2319.85,115.546 2321.93,116.025 2324.15,116.504 2326.55,116.984 2329.19,117.463 2332.1,117.943 2335.32,118.422 2338.89,118.901 2342.84,119.381 2848.57,119.381 "/>
</svg>
