<?xml version="1.0" encoding="utf-8"?>
<svg xmlns="http://www.w3.org/2000/svg" xmlns:xlink="http://www.w3.org/1999/xlink" width="800" height="400" viewBox="0 0 3200 1600">
<defs>
  <clipPath id="clip740">
    <rect x="0" y="0" width="3200" height="1600"/>
  </clipPath>
</defs>
<path clip-path="url(#clip740)" d="M0 1600 L3200 1600 L3200 0 L0 0  Z" fill="#ffffff" fill-rule="evenodd" fill-opacity="1"/>
<defs>
  <clipPath id="clip741">
    <rect x="640" y="0" width="2241" height="1600"/>
  </clipPath>
</defs>
<path clip-path="url(#clip740)" d="M364.733 1495.09 L3152.76 1495.09 L3152.76 47.2441 L364.733 47.2441  Z" fill="#ffffff" fill-rule="evenodd" fill-opacity="1"/>
<defs>
  <clipPath id="clip742">
    <rect x="364" y="47" width="2789" height="1449"/>
  </clipPath>
</defs>
<polyline clip-path="url(#clip742)" style="stroke:#000000; stroke-linecap:round; stroke-linejoin:round; stroke-width:2; stroke-opacity:0.1; fill:none" points="735.885,1495.09 735.885,47.2441 "/>
<polyline clip-path="url(#clip742)" style="stroke:#000000; stroke-linecap:round; stroke-linejoin:round; stroke-width:2; stroke-opacity:0.1; fill:none" points="1758.74,1495.09 1758.74,47.2441 "/>
<polyline clip-path="url(#clip742)" style="stroke:#000000; stroke-linecap:round; stroke-linejoin:round; stroke-width:2; stroke-opacity:0.1; fill:none" points="2781.6,1495.09 2781.6,47.2441 "/>
<polyline clip-path="url(#clip742)" style="stroke:#000000; stroke-linecap:round; stroke-linejoin:round; stroke-width:2; stroke-opacity:0.1; fill:none" points="364.733,1335 3152.76,1335 "/>
<polyline clip-path="url(#clip742)" style="stroke:#000000; stroke-linecap:round; stroke-linejoin:round; stroke-width:2; stroke-opacity:0.1; fill:none" points="364.733,1104.75 3152.76,1104.75 "/>
<polyline clip-path="url(#clip742)" style="stroke:#000000; stroke-linecap:round; stroke-linejoin:round; stroke-width:2; stroke-opacity:0.1; fill:none" points="364.733,874.491 3152.76,874.491 "/>
<polyline clip-path="url(#clip742)" style="stroke:#000000; stroke-linecap:round; stroke-linejoin:round; stroke-width:2; stroke-opacity:0.1; fill:none" points="364.733,644.234 3152.76,644.234 "/>
<polyline clip-path="url(#clip742)" style="stroke:#000000; stroke-linecap:round; stroke-linejoin:round; stroke-width:2; stroke-opacity:0.1; fill:none" points="364.733,413.978 3152.76,413.978 "/>
<polyline clip-path="url(#clip742)" style="stroke:#000000; stroke-linecap:round; stroke-linejoin:round; stroke-width:2; stroke-opacity:0.1; fill:none" points="364.733,183.722 3152.76,183.722 "/>
<polyline clip-path="url(#clip740)" style="stroke:#000000; stroke-linecap:round; stroke-linejoin:round; stroke-width:4; stroke-opacity:1; fill:none" points="364.733,1495.09 3152.76,1495.09 "/>
<polyline clip-path="url(#clip740)" style="stroke:#000000; stroke-linecap:round; stroke-linejoin:round; stroke-width:4; stroke-opacity:1; fill:none" points="735.885,1495.09 735.885,1476.19 "/>
<polyline clip-path="url(#clip740)" style="stroke:#000000; stroke-linecap:round; stroke-linejoin:round; stroke-width:4; stroke-opacity:1; fill:none" points="1758.74,1495.09 1758.74,1476.19 "/>
<polyline clip-path="url(#clip740)" style="stroke:#000000; stroke-linecap:round; stroke-linejoin:round; stroke-width:4; stroke-opacity:1; fill:none" points="2781.6,1495.09 2781.6,1476.19 "/>
<path clip-path="url(#clip740)" d="M545.619 1547.68 Q547.124 1548.19 548.536 1549.86 Q549.971 1551.53 551.406 1554.44 L556.152 1563.89 L551.129 1563.89 L546.707 1555.02 Q544.994 1551.55 543.374 1550.42 Q541.777 1549.28 538.999 1549.28 L533.906 1549.28 L533.906 1563.89 L529.231 1563.89 L529.231 1529.33 L539.786 1529.33 Q545.712 1529.33 548.629 1531.8 Q551.545 1534.28 551.545 1539.28 Q551.545 1542.55 550.017 1544.7 Q548.513 1546.85 545.619 1547.68 M533.906 1533.17 L533.906 1545.44 L539.786 1545.44 Q543.166 1545.44 544.879 1543.89 Q546.615 1542.31 546.615 1539.28 Q546.615 1536.25 544.879 1534.72 Q543.166 1533.17 539.786 1533.17 L533.906 1533.17 Z" fill="#000000" fill-rule="nonzero" fill-opacity="1" /><path clip-path="url(#clip740)" d="M562.17 1529.33 L582.031 1529.33 L582.031 1533.26 L566.846 1533.26 L566.846 1543.45 L580.55 1543.45 L580.55 1547.38 L566.846 1547.38 L566.846 1563.89 L562.17 1563.89 L562.17 1529.33 Z" fill="#000000" fill-rule="nonzero" fill-opacity="1" /><path clip-path="url(#clip740)" d="M589.439 1529.33 L594.114 1529.33 L594.114 1559.95 L610.943 1559.95 L610.943 1563.89 L589.439 1563.89 L589.439 1529.33 Z" fill="#000000" fill-rule="nonzero" fill-opacity="1" /><path clip-path="url(#clip740)" d="M612.957 1529.33 L617.656 1529.33 L617.656 1550.32 Q617.656 1555.88 619.67 1558.33 Q621.684 1560.76 626.198 1560.76 Q630.688 1560.76 632.702 1558.33 Q634.716 1555.88 634.716 1550.32 L634.716 1529.33 L639.415 1529.33 L639.415 1550.9 Q639.415 1557.66 636.059 1561.11 Q632.725 1564.56 626.198 1564.56 Q619.647 1564.56 616.29 1561.11 Q612.957 1557.66 612.957 1550.9 L612.957 1529.33 Z" fill="#000000" fill-rule="nonzero" fill-opacity="1" /><path clip-path="url(#clip740)" d="M648.188 1529.33 L668.049 1529.33 L668.049 1533.26 L652.864 1533.26 L652.864 1543.45 L666.568 1543.45 L666.568 1547.38 L652.864 1547.38 L652.864 1563.89 L648.188 1563.89 L648.188 1529.33 Z" fill="#000000" fill-rule="nonzero" fill-opacity="1" /><path clip-path="url(#clip740)" d="M682.702 1550.86 Q677.54 1550.86 675.549 1552.04 Q673.558 1553.22 673.558 1556.06 Q673.558 1558.33 675.04 1559.67 Q676.545 1560.99 679.114 1560.99 Q682.656 1560.99 684.785 1558.49 Q686.938 1555.97 686.938 1551.8 L686.938 1550.86 L682.702 1550.86 M691.197 1549.1 L691.197 1563.89 L686.938 1563.89 L686.938 1559.95 Q685.48 1562.31 683.304 1563.45 Q681.128 1564.56 677.98 1564.56 Q673.998 1564.56 671.637 1562.34 Q669.299 1560.09 669.299 1556.34 Q669.299 1551.97 672.216 1549.74 Q675.156 1547.52 680.966 1547.52 L686.938 1547.52 L686.938 1547.11 Q686.938 1544.17 684.994 1542.57 Q683.072 1540.95 679.577 1540.95 Q677.355 1540.95 675.248 1541.48 Q673.142 1542.01 671.197 1543.08 L671.197 1539.14 Q673.535 1538.24 675.734 1537.8 Q677.933 1537.34 680.017 1537.34 Q685.642 1537.34 688.42 1540.25 Q691.197 1543.17 691.197 1549.1 Z" fill="#000000" fill-rule="nonzero" fill-opacity="1" /><path clip-path="url(#clip740)" d="M718.628 1538.96 L718.628 1542.94 Q716.822 1541.94 714.993 1541.46 Q713.188 1540.95 711.336 1540.95 Q707.193 1540.95 704.901 1543.59 Q702.609 1546.2 702.609 1550.95 Q702.609 1555.69 704.901 1558.33 Q707.193 1560.95 711.336 1560.95 Q713.188 1560.95 714.993 1560.46 Q716.822 1559.95 718.628 1558.96 L718.628 1562.89 Q716.845 1563.73 714.924 1564.14 Q713.026 1564.56 710.873 1564.56 Q705.017 1564.56 701.568 1560.88 Q698.119 1557.2 698.119 1550.95 Q698.119 1544.61 701.591 1540.97 Q705.086 1537.34 711.151 1537.34 Q713.118 1537.34 714.993 1537.75 Q716.868 1538.15 718.628 1538.96 Z" fill="#000000" fill-rule="nonzero" fill-opacity="1" /><path clip-path="url(#clip740)" d="M730.248 1530.6 L730.248 1537.96 L739.021 1537.96 L739.021 1541.27 L730.248 1541.27 L730.248 1555.35 Q730.248 1558.52 731.104 1559.42 Q731.984 1560.32 734.646 1560.32 L739.021 1560.32 L739.021 1563.89 L734.646 1563.89 Q729.716 1563.89 727.841 1562.06 Q725.966 1560.21 725.966 1555.35 L725.966 1541.27 L722.841 1541.27 L722.841 1537.96 L725.966 1537.96 L725.966 1530.6 L730.248 1530.6 Z" fill="#000000" fill-rule="nonzero" fill-opacity="1" /><path clip-path="url(#clip740)" d="M754.669 1540.95 Q751.243 1540.95 749.253 1543.63 Q747.262 1546.3 747.262 1550.95 Q747.262 1555.6 749.229 1558.29 Q751.22 1560.95 754.669 1560.95 Q758.072 1560.95 760.063 1558.26 Q762.053 1555.58 762.053 1550.95 Q762.053 1546.34 760.063 1543.66 Q758.072 1540.95 754.669 1540.95 M754.669 1537.34 Q760.225 1537.34 763.396 1540.95 Q766.567 1544.56 766.567 1550.95 Q766.567 1557.31 763.396 1560.95 Q760.225 1564.56 754.669 1564.56 Q749.09 1564.56 745.919 1560.95 Q742.771 1557.31 742.771 1550.95 Q742.771 1544.56 745.919 1540.95 Q749.09 1537.34 754.669 1537.34 Z" fill="#000000" fill-rule="nonzero" fill-opacity="1" /><path clip-path="url(#clip740)" d="M788.65 1541.94 Q787.933 1541.53 787.076 1541.34 Q786.243 1541.13 785.225 1541.13 Q781.613 1541.13 779.669 1543.49 Q777.748 1545.83 777.748 1550.23 L777.748 1563.89 L773.465 1563.89 L773.465 1537.96 L777.748 1537.96 L777.748 1541.99 Q779.09 1539.63 781.243 1538.49 Q783.396 1537.34 786.475 1537.34 Q786.914 1537.34 787.447 1537.41 Q787.979 1537.45 788.627 1537.57 L788.65 1541.94 Z" fill="#000000" fill-rule="nonzero" fill-opacity="1" /><path clip-path="url(#clip740)" d="M793.118 1537.96 L797.377 1537.96 L797.377 1563.89 L793.118 1563.89 L793.118 1537.96 M793.118 1527.87 L797.377 1527.87 L797.377 1533.26 L793.118 1533.26 L793.118 1527.87 Z" fill="#000000" fill-rule="nonzero" fill-opacity="1" /><path clip-path="url(#clip740)" d="M804.437 1537.96 L824.669 1537.96 L824.669 1541.85 L808.65 1560.49 L824.669 1560.49 L824.669 1563.89 L803.859 1563.89 L803.859 1560 L819.877 1541.36 L804.437 1541.36 L804.437 1537.96 Z" fill="#000000" fill-rule="nonzero" fill-opacity="1" /><path clip-path="url(#clip740)" d="M842.956 1550.86 Q837.794 1550.86 835.803 1552.04 Q833.812 1553.22 833.812 1556.06 Q833.812 1558.33 835.294 1559.67 Q836.798 1560.99 839.368 1560.99 Q842.909 1560.99 845.039 1558.49 Q847.192 1555.97 847.192 1551.8 L847.192 1550.86 L842.956 1550.86 M851.451 1549.1 L851.451 1563.89 L847.192 1563.89 L847.192 1559.95 Q845.733 1562.31 843.558 1563.45 Q841.382 1564.56 838.234 1564.56 Q834.252 1564.56 831.891 1562.34 Q829.553 1560.09 829.553 1556.34 Q829.553 1551.97 832.47 1549.74 Q835.409 1547.52 841.22 1547.52 L847.192 1547.52 L847.192 1547.11 Q847.192 1544.17 845.247 1542.57 Q843.326 1540.95 839.831 1540.95 Q837.609 1540.95 835.502 1541.48 Q833.396 1542.01 831.451 1543.08 L831.451 1539.14 Q833.789 1538.24 835.988 1537.8 Q838.187 1537.34 840.271 1537.34 Q845.896 1537.34 848.673 1540.25 Q851.451 1543.17 851.451 1549.1 Z" fill="#000000" fill-rule="nonzero" fill-opacity="1" /><path clip-path="url(#clip740)" d="M864.437 1530.6 L864.437 1537.96 L873.21 1537.96 L873.21 1541.27 L864.437 1541.27 L864.437 1555.35 Q864.437 1558.52 865.294 1559.42 Q866.173 1560.32 868.835 1560.32 L873.21 1560.32 L873.21 1563.89 L868.835 1563.89 Q863.905 1563.89 862.03 1562.06 Q860.155 1560.21 860.155 1555.35 L860.155 1541.27 L857.03 1541.27 L857.03 1537.96 L860.155 1537.96 L860.155 1530.6 L864.437 1530.6 Z" fill="#000000" fill-rule="nonzero" fill-opacity="1" /><path clip-path="url(#clip740)" d="M878.812 1537.96 L883.071 1537.96 L883.071 1563.89 L878.812 1563.89 L878.812 1537.96 M878.812 1527.87 L883.071 1527.87 L883.071 1533.26 L878.812 1533.26 L878.812 1527.87 Z" fill="#000000" fill-rule="nonzero" fill-opacity="1" /><path clip-path="url(#clip740)" d="M902.029 1540.95 Q898.604 1540.95 896.613 1543.63 Q894.622 1546.3 894.622 1550.95 Q894.622 1555.6 896.59 1558.29 Q898.58 1560.95 902.029 1560.95 Q905.432 1560.95 907.423 1558.26 Q909.414 1555.58 909.414 1550.95 Q909.414 1546.34 907.423 1543.66 Q905.432 1540.95 902.029 1540.95 M902.029 1537.34 Q907.585 1537.34 910.756 1540.95 Q913.928 1544.56 913.928 1550.95 Q913.928 1557.31 910.756 1560.95 Q907.585 1564.56 902.029 1564.56 Q896.451 1564.56 893.28 1560.95 Q890.131 1557.31 890.131 1550.95 Q890.131 1544.56 893.28 1540.95 Q896.451 1537.34 902.029 1537.34 Z" fill="#000000" fill-rule="nonzero" fill-opacity="1" /><path clip-path="url(#clip740)" d="M942.539 1548.24 L942.539 1563.89 L938.279 1563.89 L938.279 1548.38 Q938.279 1544.7 936.844 1542.87 Q935.409 1541.04 932.539 1541.04 Q929.09 1541.04 927.099 1543.24 Q925.108 1545.44 925.108 1549.24 L925.108 1563.89 L920.826 1563.89 L920.826 1537.96 L925.108 1537.96 L925.108 1541.99 Q926.636 1539.65 928.696 1538.49 Q930.779 1537.34 933.488 1537.34 Q937.955 1537.34 940.247 1540.11 Q942.539 1542.87 942.539 1548.24 Z" fill="#000000" fill-rule="nonzero" fill-opacity="1" /><path clip-path="url(#clip740)" d="M1582.19 1529.33 L1586.87 1529.33 L1586.87 1559.95 L1603.7 1559.95 L1603.7 1563.89 L1582.19 1563.89 L1582.19 1529.33 Z" fill="#000000" fill-rule="nonzero" fill-opacity="1" /><path clip-path="url(#clip740)" d="M1605.71 1529.33 L1610.41 1529.33 L1610.41 1550.32 Q1610.41 1555.88 1612.43 1558.33 Q1614.44 1560.76 1618.95 1560.76 Q1623.44 1560.76 1625.46 1558.33 Q1627.47 1555.88 1627.47 1550.32 L1627.47 1529.33 L1632.17 1529.33 L1632.17 1550.9 Q1632.17 1557.66 1628.81 1561.11 Q1625.48 1564.56 1618.95 1564.56 Q1612.4 1564.56 1609.05 1561.11 Q1605.71 1557.66 1605.71 1550.9 L1605.71 1529.33 Z" fill="#000000" fill-rule="nonzero" fill-opacity="1" /><path clip-path="url(#clip740)" d="M1640.94 1529.33 L1660.8 1529.33 L1660.8 1533.26 L1645.62 1533.26 L1645.62 1543.45 L1659.32 1543.45 L1659.32 1547.38 L1645.62 1547.38 L1645.62 1563.89 L1640.94 1563.89 L1640.94 1529.33 Z" fill="#000000" fill-rule="nonzero" fill-opacity="1" /><path clip-path="url(#clip740)" d="M1675.46 1550.86 Q1670.3 1550.86 1668.3 1552.04 Q1666.31 1553.22 1666.31 1556.06 Q1666.31 1558.33 1667.8 1559.67 Q1669.3 1560.99 1671.87 1560.99 Q1675.41 1560.99 1677.54 1558.49 Q1679.69 1555.97 1679.69 1551.8 L1679.69 1550.86 L1675.46 1550.86 M1683.95 1549.1 L1683.95 1563.89 L1679.69 1563.89 L1679.69 1559.95 Q1678.24 1562.31 1676.06 1563.45 Q1673.88 1564.56 1670.74 1564.56 Q1666.75 1564.56 1664.39 1562.34 Q1662.05 1560.09 1662.05 1556.34 Q1662.05 1551.97 1664.97 1549.74 Q1667.91 1547.52 1673.72 1547.52 L1679.69 1547.52 L1679.69 1547.11 Q1679.69 1544.17 1677.75 1542.57 Q1675.83 1540.95 1672.33 1540.95 Q1670.11 1540.95 1668 1541.48 Q1665.9 1542.01 1663.95 1543.08 L1663.95 1539.14 Q1666.29 1538.24 1668.49 1537.8 Q1670.69 1537.34 1672.77 1537.34 Q1678.4 1537.34 1681.18 1540.25 Q1683.95 1543.17 1683.95 1549.1 Z" fill="#000000" fill-rule="nonzero" fill-opacity="1" /><path clip-path="url(#clip740)" d="M1711.38 1538.96 L1711.38 1542.94 Q1709.58 1541.94 1707.75 1541.46 Q1705.94 1540.95 1704.09 1540.95 Q1699.95 1540.95 1697.66 1543.59 Q1695.36 1546.2 1695.36 1550.95 Q1695.36 1555.69 1697.66 1558.33 Q1699.95 1560.95 1704.09 1560.95 Q1705.94 1560.95 1707.75 1560.46 Q1709.58 1559.95 1711.38 1558.96 L1711.38 1562.89 Q1709.6 1563.73 1707.68 1564.14 Q1705.78 1564.56 1703.63 1564.56 Q1697.77 1564.56 1694.32 1560.88 Q1690.87 1557.2 1690.87 1550.95 Q1690.87 1544.61 1694.35 1540.97 Q1697.84 1537.34 1703.91 1537.34 Q1705.87 1537.34 1707.75 1537.75 Q1709.62 1538.15 1711.38 1538.96 Z" fill="#000000" fill-rule="nonzero" fill-opacity="1" /><path clip-path="url(#clip740)" d="M1723 1530.6 L1723 1537.96 L1731.78 1537.96 L1731.78 1541.27 L1723 1541.27 L1723 1555.35 Q1723 1558.52 1723.86 1559.42 Q1724.74 1560.32 1727.4 1560.32 L1731.78 1560.32 L1731.78 1563.89 L1727.4 1563.89 Q1722.47 1563.89 1720.6 1562.06 Q1718.72 1560.21 1718.72 1555.35 L1718.72 1541.27 L1715.6 1541.27 L1715.6 1537.96 L1718.72 1537.96 L1718.72 1530.6 L1723 1530.6 Z" fill="#000000" fill-rule="nonzero" fill-opacity="1" /><path clip-path="url(#clip740)" d="M1747.42 1540.95 Q1744 1540.95 1742.01 1543.63 Q1740.02 1546.3 1740.02 1550.95 Q1740.02 1555.6 1741.99 1558.29 Q1743.98 1560.95 1747.42 1560.95 Q1750.83 1560.95 1752.82 1558.26 Q1754.81 1555.58 1754.81 1550.95 Q1754.81 1546.34 1752.82 1543.66 Q1750.83 1540.95 1747.42 1540.95 M1747.42 1537.34 Q1752.98 1537.34 1756.15 1540.95 Q1759.32 1544.56 1759.32 1550.95 Q1759.32 1557.31 1756.15 1560.95 Q1752.98 1564.56 1747.42 1564.56 Q1741.85 1564.56 1738.67 1560.95 Q1735.53 1557.31 1735.53 1550.95 Q1735.53 1544.56 1738.67 1540.95 Q1741.85 1537.34 1747.42 1537.34 Z" fill="#000000" fill-rule="nonzero" fill-opacity="1" /><path clip-path="url(#clip740)" d="M1781.41 1541.94 Q1780.69 1541.53 1779.83 1541.34 Q1779 1541.13 1777.98 1541.13 Q1774.37 1541.13 1772.42 1543.49 Q1770.5 1545.83 1770.5 1550.23 L1770.5 1563.89 L1766.22 1563.89 L1766.22 1537.96 L1770.5 1537.96 L1770.5 1541.99 Q1771.85 1539.63 1774 1538.49 Q1776.15 1537.34 1779.23 1537.34 Q1779.67 1537.34 1780.2 1537.41 Q1780.73 1537.45 1781.38 1537.57 L1781.41 1541.94 Z" fill="#000000" fill-rule="nonzero" fill-opacity="1" /><path clip-path="url(#clip740)" d="M1785.87 1537.96 L1790.13 1537.96 L1790.13 1563.89 L1785.87 1563.89 L1785.87 1537.96 M1785.87 1527.87 L1790.13 1527.87 L1790.13 1533.26 L1785.87 1533.26 L1785.87 1527.87 Z" fill="#000000" fill-rule="nonzero" fill-opacity="1" /><path clip-path="url(#clip740)" d="M1797.19 1537.96 L1817.42 1537.96 L1817.42 1541.85 L1801.41 1560.49 L1817.42 1560.49 L1817.42 1563.89 L1796.61 1563.89 L1796.61 1560 L1812.63 1541.36 L1797.19 1541.36 L1797.19 1537.96 Z" fill="#000000" fill-rule="nonzero" fill-opacity="1" /><path clip-path="url(#clip740)" d="M1835.71 1550.86 Q1830.55 1550.86 1828.56 1552.04 Q1826.57 1553.22 1826.57 1556.06 Q1826.57 1558.33 1828.05 1559.67 Q1829.55 1560.99 1832.12 1560.99 Q1835.67 1560.99 1837.79 1558.49 Q1839.95 1555.97 1839.95 1551.8 L1839.95 1550.86 L1835.71 1550.86 M1844.21 1549.1 L1844.21 1563.89 L1839.95 1563.89 L1839.95 1559.95 Q1838.49 1562.31 1836.31 1563.45 Q1834.14 1564.56 1830.99 1564.56 Q1827.01 1564.56 1824.65 1562.34 Q1822.31 1560.09 1822.31 1556.34 Q1822.31 1551.97 1825.23 1549.74 Q1828.17 1547.52 1833.98 1547.52 L1839.95 1547.52 L1839.95 1547.11 Q1839.95 1544.17 1838 1542.57 Q1836.08 1540.95 1832.59 1540.95 Q1830.36 1540.95 1828.26 1541.48 Q1826.15 1542.01 1824.21 1543.08 L1824.21 1539.14 Q1826.54 1538.24 1828.74 1537.8 Q1830.94 1537.34 1833.03 1537.34 Q1838.65 1537.34 1841.43 1540.25 Q1844.21 1543.17 1844.21 1549.1 Z" fill="#000000" fill-rule="nonzero" fill-opacity="1" /><path clip-path="url(#clip740)" d="M1857.19 1530.6 L1857.19 1537.96 L1865.97 1537.96 L1865.97 1541.27 L1857.19 1541.27 L1857.19 1555.35 Q1857.19 1558.52 1858.05 1559.42 Q1858.93 1560.32 1861.59 1560.32 L1865.97 1560.32 L1865.97 1563.89 L1861.59 1563.89 Q1856.66 1563.89 1854.79 1562.06 Q1852.91 1560.21 1852.91 1555.35 L1852.91 1541.27 L1849.79 1541.27 L1849.79 1537.96 L1852.91 1537.96 L1852.91 1530.6 L1857.19 1530.6 Z" fill="#000000" fill-rule="nonzero" fill-opacity="1" /><path clip-path="url(#clip740)" d="M1871.57 1537.96 L1875.83 1537.96 L1875.83 1563.89 L1871.57 1563.89 L1871.57 1537.96 M1871.57 1527.87 L1875.83 1527.87 L1875.83 1533.26 L1871.57 1533.26 L1871.57 1527.87 Z" fill="#000000" fill-rule="nonzero" fill-opacity="1" /><path clip-path="url(#clip740)" d="M1894.79 1540.95 Q1891.36 1540.95 1889.37 1543.63 Q1887.38 1546.3 1887.38 1550.95 Q1887.38 1555.6 1889.35 1558.29 Q1891.34 1560.95 1894.79 1560.95 Q1898.19 1560.95 1900.18 1558.26 Q1902.17 1555.58 1902.17 1550.95 Q1902.17 1546.34 1900.18 1543.66 Q1898.19 1540.95 1894.79 1540.95 M1894.79 1537.34 Q1900.34 1537.34 1903.51 1540.95 Q1906.68 1544.56 1906.68 1550.95 Q1906.68 1557.31 1903.51 1560.95 Q1900.34 1564.56 1894.79 1564.56 Q1889.21 1564.56 1886.04 1560.95 Q1882.89 1557.31 1882.89 1550.95 Q1882.89 1544.56 1886.04 1540.95 Q1889.21 1537.34 1894.79 1537.34 Z" fill="#000000" fill-rule="nonzero" fill-opacity="1" /><path clip-path="url(#clip740)" d="M1935.29 1548.24 L1935.29 1563.89 L1931.03 1563.89 L1931.03 1548.38 Q1931.03 1544.7 1929.6 1542.87 Q1928.16 1541.04 1925.29 1541.04 Q1921.85 1541.04 1919.85 1543.24 Q1917.86 1545.44 1917.86 1549.24 L1917.86 1563.89 L1913.58 1563.89 L1913.58 1537.96 L1917.86 1537.96 L1917.86 1541.99 Q1919.39 1539.65 1921.45 1538.49 Q1923.54 1537.34 1926.24 1537.34 Q1930.71 1537.34 1933 1540.11 Q1935.29 1542.87 1935.29 1548.24 Z" fill="#000000" fill-rule="nonzero" fill-opacity="1" /><path clip-path="url(#clip740)" d="M2689.43 1529.33 L2694.1 1529.33 L2694.1 1543.93 L2709.61 1529.33 L2715.63 1529.33 L2698.48 1545.44 L2716.86 1563.89 L2710.7 1563.89 L2694.1 1547.24 L2694.1 1563.89 L2689.43 1563.89 L2689.43 1529.33 Z" fill="#000000" fill-rule="nonzero" fill-opacity="1" /><path clip-path="url(#clip740)" d="M2735.35 1541.94 Q2734.64 1541.53 2733.78 1541.34 Q2732.95 1541.13 2731.93 1541.13 Q2728.32 1541.13 2726.37 1543.49 Q2724.45 1545.83 2724.45 1550.23 L2724.45 1563.89 L2720.17 1563.89 L2720.17 1537.96 L2724.45 1537.96 L2724.45 1541.99 Q2725.79 1539.63 2727.95 1538.49 Q2730.1 1537.34 2733.18 1537.34 Q2733.62 1537.34 2734.15 1537.41 Q2734.68 1537.45 2735.33 1537.57 L2735.35 1541.94 Z" fill="#000000" fill-rule="nonzero" fill-opacity="1" /><path clip-path="url(#clip740)" d="M2750.61 1566.3 Q2748.8 1570.92 2747.09 1572.34 Q2745.38 1573.75 2742.51 1573.75 L2739.1 1573.75 L2739.1 1570.18 L2741.6 1570.18 Q2743.36 1570.18 2744.34 1569.35 Q2745.31 1568.52 2746.49 1565.42 L2747.25 1563.47 L2736.77 1537.96 L2741.28 1537.96 L2749.38 1558.24 L2757.48 1537.96 L2762 1537.96 L2750.61 1566.3 Z" fill="#000000" fill-rule="nonzero" fill-opacity="1" /><path clip-path="url(#clip740)" d="M2767.88 1527.87 L2772.14 1527.87 L2772.14 1563.89 L2767.88 1563.89 L2767.88 1527.87 Z" fill="#000000" fill-rule="nonzero" fill-opacity="1" /><path clip-path="url(#clip740)" d="M2791.09 1540.95 Q2787.67 1540.95 2785.68 1543.63 Q2783.69 1546.3 2783.69 1550.95 Q2783.69 1555.6 2785.65 1558.29 Q2787.65 1560.95 2791.09 1560.95 Q2794.5 1560.95 2796.49 1558.26 Q2798.48 1555.58 2798.48 1550.95 Q2798.48 1546.34 2796.49 1543.66 Q2794.5 1540.95 2791.09 1540.95 M2791.09 1537.34 Q2796.65 1537.34 2799.82 1540.95 Q2802.99 1544.56 2802.99 1550.95 Q2802.99 1557.31 2799.82 1560.95 Q2796.65 1564.56 2791.09 1564.56 Q2785.52 1564.56 2782.34 1560.95 Q2779.2 1557.31 2779.2 1550.95 Q2779.2 1544.56 2782.34 1540.95 Q2785.52 1537.34 2791.09 1537.34 Z" fill="#000000" fill-rule="nonzero" fill-opacity="1" /><path clip-path="url(#clip740)" d="M2807 1537.96 L2811.51 1537.96 L2819.61 1559.72 L2827.71 1537.96 L2832.23 1537.96 L2822.51 1563.89 L2816.72 1563.89 L2807 1537.96 Z" fill="#000000" fill-rule="nonzero" fill-opacity="1" /><path clip-path="url(#clip740)" d="M2838.29 1529.33 L2842.97 1529.33 L2842.97 1561.48 Q2842.97 1567.73 2840.59 1570.55 Q2838.22 1573.38 2832.97 1573.38 L2831.19 1573.38 L2831.19 1569.44 L2832.65 1569.44 Q2835.75 1569.44 2837.02 1567.71 Q2838.29 1565.97 2838.29 1561.48 L2838.29 1529.33 Z" fill="#000000" fill-rule="nonzero" fill-opacity="1" /><path clip-path="url(#clip740)" d="M2852.27 1529.33 L2856.95 1529.33 L2856.95 1559.95 L2873.78 1559.95 L2873.78 1563.89 L2852.27 1563.89 L2852.27 1529.33 Z" fill="#000000" fill-rule="nonzero" fill-opacity="1" /><polyline clip-path="url(#clip740)" style="stroke:#000000; stroke-linecap:round; stroke-linejoin:round; stroke-width:4; stroke-opacity:1; fill:none" points="364.733,1495.09 364.733,47.2441 "/>
<polyline clip-path="url(#clip740)" style="stroke:#000000; stroke-linecap:round; stroke-linejoin:round; stroke-width:4; stroke-opacity:1; fill:none" points="364.733,1335 383.63,1335 "/>
<polyline clip-path="url(#clip740)" style="stroke:#000000; stroke-linecap:round; stroke-linejoin:round; stroke-width:4; stroke-opacity:1; fill:none" points="364.733,1104.75 383.63,1104.75 "/>
<polyline clip-path="url(#clip740)" style="stroke:#000000; stroke-linecap:round; stroke-linejoin:round; stroke-width:4; stroke-opacity:1; fill:none" points="364.733,874.491 383.63,874.491 "/>
<polyline clip-path="url(#clip740)" style="stroke:#000000; stroke-linecap:round; stroke-linejoin:round; stroke-width:4; stroke-opacity:1; fill:none" points="364.733,644.234 383.63,644.234 "/>
<polyline clip-path="url(#clip740)" style="stroke:#000000; stroke-linecap:round; stroke-linejoin:round; stroke-width:4; stroke-opacity:1; fill:none" points="364.733,413.978 383.63,413.978 "/>
<polyline clip-path="url(#clip740)" style="stroke:#000000; stroke-linecap:round; stroke-linejoin:round; stroke-width:4; stroke-opacity:1; fill:none" points="364.733,183.722 383.63,183.722 "/>
<path clip-path="url(#clip740)" d="M100.788 1354.8 L108.426 1354.8 L108.426 1328.43 L100.116 1330.1 L100.116 1325.84 L108.38 1324.17 L113.056 1324.17 L113.056 1354.8 L120.695 1354.8 L120.695 1358.73 L100.788 1358.73 L100.788 1354.8 Z" fill="#000000" fill-rule="nonzero" fill-opacity="1" /><path clip-path="url(#clip740)" d="M130.139 1352.85 L135.023 1352.85 L135.023 1358.73 L130.139 1358.73 L130.139 1352.85 Z" fill="#000000" fill-rule="nonzero" fill-opacity="1" /><path clip-path="url(#clip740)" d="M155.209 1327.25 Q151.597 1327.25 149.769 1330.81 Q147.963 1334.36 147.963 1341.49 Q147.963 1348.59 149.769 1352.16 Q151.597 1355.7 155.209 1355.7 Q158.843 1355.7 160.648 1352.16 Q162.477 1348.59 162.477 1341.49 Q162.477 1334.36 160.648 1330.81 Q158.843 1327.25 155.209 1327.25 M155.209 1323.55 Q161.019 1323.55 164.074 1328.15 Q167.153 1332.74 167.153 1341.49 Q167.153 1350.21 164.074 1354.82 Q161.019 1359.4 155.209 1359.4 Q149.398 1359.4 146.32 1354.82 Q143.264 1350.21 143.264 1341.49 Q143.264 1332.74 146.32 1328.15 Q149.398 1323.55 155.209 1323.55 Z" fill="#000000" fill-rule="nonzero" fill-opacity="1" /><path clip-path="url(#clip740)" d="M185.37 1327.25 Q181.759 1327.25 179.931 1330.81 Q178.125 1334.36 178.125 1341.49 Q178.125 1348.59 179.931 1352.16 Q181.759 1355.7 185.37 1355.7 Q189.005 1355.7 190.81 1352.16 Q192.639 1348.59 192.639 1341.49 Q192.639 1334.36 190.81 1330.81 Q189.005 1327.25 185.37 1327.25 M185.37 1323.55 Q191.181 1323.55 194.236 1328.15 Q197.315 1332.74 197.315 1341.49 Q197.315 1350.21 194.236 1354.82 Q191.181 1359.4 185.37 1359.4 Q179.56 1359.4 176.482 1354.82 Q173.426 1350.21 173.426 1341.49 Q173.426 1332.74 176.482 1328.15 Q179.56 1323.55 185.37 1323.55 Z" fill="#000000" fill-rule="nonzero" fill-opacity="1" /><path clip-path="url(#clip740)" d="M233.704 1333.27 L223.125 1343.89 L233.704 1354.47 L230.949 1357.27 L220.324 1346.65 L209.699 1357.27 L206.968 1354.47 L217.523 1343.89 L206.968 1333.27 L209.699 1330.47 L220.324 1341.09 L230.949 1330.47 L233.704 1333.27 Z" fill="#000000" fill-rule="nonzero" fill-opacity="1" /><path clip-path="url(#clip740)" d="M246.065 1354.8 L253.703 1354.8 L253.703 1328.43 L245.393 1330.1 L245.393 1325.84 L253.657 1324.17 L258.333 1324.17 L258.333 1354.8 L265.972 1354.8 L265.972 1358.73 L246.065 1358.73 L246.065 1354.8 Z" fill="#000000" fill-rule="nonzero" fill-opacity="1" /><path clip-path="url(#clip740)" d="M285.416 1327.25 Q281.805 1327.25 279.976 1330.81 Q278.171 1334.36 278.171 1341.49 Q278.171 1348.59 279.976 1352.16 Q281.805 1355.7 285.416 1355.7 Q289.05 1355.7 290.856 1352.16 Q292.685 1348.59 292.685 1341.49 Q292.685 1334.36 290.856 1330.81 Q289.05 1327.25 285.416 1327.25 M285.416 1323.55 Q291.226 1323.55 294.282 1328.15 Q297.361 1332.74 297.361 1341.49 Q297.361 1350.21 294.282 1354.82 Q291.226 1359.4 285.416 1359.4 Q279.606 1359.4 276.527 1354.82 Q273.472 1350.21 273.472 1341.49 Q273.472 1332.74 276.527 1328.15 Q279.606 1323.55 285.416 1323.55 Z" fill="#000000" fill-rule="nonzero" fill-opacity="1" /><path clip-path="url(#clip740)" d="M299.166 1330.74 L299.166 1327.28 Q300.596 1327.95 302.063 1328.31 Q303.53 1328.67 304.94 1328.67 Q308.702 1328.67 310.676 1326.15 Q312.67 1323.61 312.952 1318.46 Q311.861 1320.07 310.187 1320.94 Q308.514 1321.8 306.482 1321.8 Q302.269 1321.8 299.806 1319.26 Q297.361 1316.71 297.361 1312.29 Q297.361 1307.96 299.918 1305.35 Q302.476 1302.73 306.727 1302.73 Q311.598 1302.73 314.156 1306.48 Q316.733 1310.2 316.733 1317.31 Q316.733 1323.95 313.573 1327.92 Q310.432 1331.87 305.109 1331.87 Q303.68 1331.87 302.213 1331.58 Q300.746 1331.3 299.166 1330.74 M306.727 1318.83 Q309.285 1318.83 310.771 1317.08 Q312.275 1315.33 312.275 1312.29 Q312.275 1309.26 310.771 1307.51 Q309.285 1305.74 306.727 1305.74 Q304.169 1305.74 302.664 1307.51 Q301.179 1309.26 301.179 1312.29 Q301.179 1315.33 302.664 1317.08 Q304.169 1318.83 306.727 1318.83 Z" fill="#000000" fill-rule="nonzero" fill-opacity="1" /><path clip-path="url(#clip740)" d="M100.788 1124.54 L108.426 1124.54 L108.426 1098.17 L100.116 1099.84 L100.116 1095.58 L108.38 1093.91 L113.056 1093.91 L113.056 1124.54 L120.695 1124.54 L120.695 1128.47 L100.788 1128.47 L100.788 1124.54 Z" fill="#000000" fill-rule="nonzero" fill-opacity="1" /><path clip-path="url(#clip740)" d="M130.139 1122.6 L135.023 1122.6 L135.023 1128.47 L130.139 1128.47 L130.139 1122.6 Z" fill="#000000" fill-rule="nonzero" fill-opacity="1" /><path clip-path="url(#clip740)" d="M145.255 1093.91 L163.611 1093.91 L163.611 1097.85 L149.537 1097.85 L149.537 1106.32 Q150.556 1105.97 151.574 1105.81 Q152.593 1105.63 153.611 1105.63 Q159.398 1105.63 162.778 1108.8 Q166.158 1111.97 166.158 1117.39 Q166.158 1122.97 162.685 1126.07 Q159.213 1129.15 152.894 1129.15 Q150.718 1129.15 148.449 1128.78 Q146.204 1128.41 143.797 1127.66 L143.797 1122.97 Q145.88 1124.1 148.102 1124.66 Q150.324 1125.21 152.801 1125.21 Q156.806 1125.21 159.144 1123.1 Q161.482 1121 161.482 1117.39 Q161.482 1113.78 159.144 1111.67 Q156.806 1109.56 152.801 1109.56 Q150.926 1109.56 149.051 1109.98 Q147.199 1110.4 145.255 1111.28 L145.255 1093.91 Z" fill="#000000" fill-rule="nonzero" fill-opacity="1" /><path clip-path="url(#clip740)" d="M185.37 1096.99 Q181.759 1096.99 179.931 1100.56 Q178.125 1104.1 178.125 1111.23 Q178.125 1118.34 179.931 1121.9 Q181.759 1125.44 185.37 1125.44 Q189.005 1125.44 190.81 1121.9 Q192.639 1118.34 192.639 1111.23 Q192.639 1104.1 190.81 1100.56 Q189.005 1096.99 185.37 1096.99 M185.37 1093.29 Q191.181 1093.29 194.236 1097.9 Q197.315 1102.48 197.315 1111.23 Q197.315 1119.96 194.236 1124.56 Q191.181 1129.15 185.37 1129.15 Q179.56 1129.15 176.482 1124.56 Q173.426 1119.96 173.426 1111.23 Q173.426 1102.48 176.482 1097.9 Q179.56 1093.29 185.37 1093.29 Z" fill="#000000" fill-rule="nonzero" fill-opacity="1" /><path clip-path="url(#clip740)" d="M233.704 1103.01 L223.125 1113.64 L233.704 1124.22 L230.949 1127.02 L220.324 1116.39 L209.699 1127.02 L206.968 1124.22 L217.523 1113.64 L206.968 1103.01 L209.699 1100.21 L220.324 1110.84 L230.949 1100.21 L233.704 1103.01 Z" fill="#000000" fill-rule="nonzero" fill-opacity="1" /><path clip-path="url(#clip740)" d="M246.065 1124.54 L253.703 1124.54 L253.703 1098.17 L245.393 1099.84 L245.393 1095.58 L253.657 1093.91 L258.333 1093.91 L258.333 1124.54 L265.972 1124.54 L265.972 1128.47 L246.065 1128.47 L246.065 1124.54 Z" fill="#000000" fill-rule="nonzero" fill-opacity="1" /><path clip-path="url(#clip740)" d="M285.416 1096.99 Q281.805 1096.99 279.976 1100.56 Q278.171 1104.1 278.171 1111.23 Q278.171 1118.34 279.976 1121.9 Q281.805 1125.44 285.416 1125.44 Q289.05 1125.44 290.856 1121.9 Q292.685 1118.34 292.685 1111.23 Q292.685 1104.1 290.856 1100.56 Q289.05 1096.99 285.416 1096.99 M285.416 1093.29 Q291.226 1093.29 294.282 1097.9 Q297.361 1102.48 297.361 1111.23 Q297.361 1119.96 294.282 1124.56 Q291.226 1129.15 285.416 1129.15 Q279.606 1129.15 276.527 1124.56 Q273.472 1119.96 273.472 1111.23 Q273.472 1102.48 276.527 1097.9 Q279.606 1093.29 285.416 1093.29 Z" fill="#000000" fill-rule="nonzero" fill-opacity="1" /><path clip-path="url(#clip740)" d="M299.166 1100.48 L299.166 1097.02 Q300.596 1097.7 302.063 1098.05 Q303.53 1098.41 304.94 1098.41 Q308.702 1098.41 310.676 1095.89 Q312.67 1093.35 312.952 1088.2 Q311.861 1089.82 310.187 1090.68 Q308.514 1091.55 306.482 1091.55 Q302.269 1091.55 299.806 1089.01 Q297.361 1086.45 297.361 1082.03 Q297.361 1077.7 299.918 1075.09 Q302.476 1072.48 306.727 1072.48 Q311.598 1072.48 314.156 1076.22 Q316.733 1079.94 316.733 1087.05 Q316.733 1093.69 313.573 1097.66 Q310.432 1101.61 305.109 1101.61 Q303.68 1101.61 302.213 1101.33 Q300.746 1101.05 299.166 1100.48 M306.727 1088.58 Q309.285 1088.58 310.771 1086.83 Q312.275 1085.08 312.275 1082.03 Q312.275 1079 310.771 1077.25 Q309.285 1075.49 306.727 1075.49 Q304.169 1075.49 302.664 1077.25 Q301.179 1079 301.179 1082.03 Q301.179 1085.08 302.664 1086.83 Q304.169 1088.58 306.727 1088.58 Z" fill="#000000" fill-rule="nonzero" fill-opacity="1" /><path clip-path="url(#clip740)" d="M104.005 894.283 L120.324 894.283 L120.324 898.218 L98.3802 898.218 L98.3802 894.283 Q101.042 891.529 105.625 886.899 Q110.232 882.246 111.412 880.904 Q113.658 878.38 114.537 876.644 Q115.44 874.885 115.44 873.195 Q115.44 870.441 113.496 868.705 Q111.575 866.968 108.473 866.968 Q106.274 866.968 103.82 867.732 Q101.389 868.496 98.6116 870.047 L98.6116 865.325 Q101.436 864.191 103.889 863.612 Q106.343 863.033 108.38 863.033 Q113.75 863.033 116.945 865.718 Q120.139 868.404 120.139 872.894 Q120.139 875.024 119.329 876.945 Q118.542 878.843 116.436 881.436 Q115.857 882.107 112.755 885.325 Q109.653 888.519 104.005 894.283 Z" fill="#000000" fill-rule="nonzero" fill-opacity="1" /><path clip-path="url(#clip740)" d="M130.139 892.339 L135.023 892.339 L135.023 898.218 L130.139 898.218 L130.139 892.339 Z" fill="#000000" fill-rule="nonzero" fill-opacity="1" /><path clip-path="url(#clip740)" d="M155.209 866.737 Q151.597 866.737 149.769 870.302 Q147.963 873.843 147.963 880.973 Q147.963 888.079 149.769 891.644 Q151.597 895.186 155.209 895.186 Q158.843 895.186 160.648 891.644 Q162.477 888.079 162.477 880.973 Q162.477 873.843 160.648 870.302 Q158.843 866.737 155.209 866.737 M155.209 863.033 Q161.019 863.033 164.074 867.64 Q167.153 872.223 167.153 880.973 Q167.153 889.7 164.074 894.306 Q161.019 898.89 155.209 898.89 Q149.398 898.89 146.32 894.306 Q143.264 889.7 143.264 880.973 Q143.264 872.223 146.32 867.64 Q149.398 863.033 155.209 863.033 Z" fill="#000000" fill-rule="nonzero" fill-opacity="1" /><path clip-path="url(#clip740)" d="M185.37 866.737 Q181.759 866.737 179.931 870.302 Q178.125 873.843 178.125 880.973 Q178.125 888.079 179.931 891.644 Q181.759 895.186 185.37 895.186 Q189.005 895.186 190.81 891.644 Q192.639 888.079 192.639 880.973 Q192.639 873.843 190.81 870.302 Q189.005 866.737 185.37 866.737 M185.37 863.033 Q191.181 863.033 194.236 867.64 Q197.315 872.223 197.315 880.973 Q197.315 889.7 194.236 894.306 Q191.181 898.89 185.37 898.89 Q179.56 898.89 176.482 894.306 Q173.426 889.7 173.426 880.973 Q173.426 872.223 176.482 867.64 Q179.56 863.033 185.37 863.033 Z" fill="#000000" fill-rule="nonzero" fill-opacity="1" /><path clip-path="url(#clip740)" d="M233.704 872.755 L223.125 883.38 L233.704 893.959 L230.949 896.76 L220.324 886.135 L209.699 896.76 L206.968 893.959 L217.523 883.38 L206.968 872.755 L209.699 869.955 L220.324 880.58 L230.949 869.955 L233.704 872.755 Z" fill="#000000" fill-rule="nonzero" fill-opacity="1" /><path clip-path="url(#clip740)" d="M246.065 894.283 L253.703 894.283 L253.703 867.918 L245.393 869.584 L245.393 865.325 L253.657 863.658 L258.333 863.658 L258.333 894.283 L265.972 894.283 L265.972 898.218 L246.065 898.218 L246.065 894.283 Z" fill="#000000" fill-rule="nonzero" fill-opacity="1" /><path clip-path="url(#clip740)" d="M285.416 866.737 Q281.805 866.737 279.976 870.302 Q278.171 873.843 278.171 880.973 Q278.171 888.079 279.976 891.644 Q281.805 895.186 285.416 895.186 Q289.05 895.186 290.856 891.644 Q292.685 888.079 292.685 880.973 Q292.685 873.843 290.856 870.302 Q289.05 866.737 285.416 866.737 M285.416 863.033 Q291.226 863.033 294.282 867.64 Q297.361 872.223 297.361 880.973 Q297.361 889.7 294.282 894.306 Q291.226 898.89 285.416 898.89 Q279.606 898.89 276.527 894.306 Q273.472 889.7 273.472 880.973 Q273.472 872.223 276.527 867.64 Q279.606 863.033 285.416 863.033 Z" fill="#000000" fill-rule="nonzero" fill-opacity="1" /><path clip-path="url(#clip740)" d="M299.166 870.225 L299.166 866.764 Q300.596 867.441 302.063 867.799 Q303.53 868.156 304.94 868.156 Q308.702 868.156 310.676 865.636 Q312.67 863.097 312.952 857.943 Q311.861 859.561 310.187 860.426 Q308.514 861.291 306.482 861.291 Q302.269 861.291 299.806 858.752 Q297.361 856.194 297.361 851.774 Q297.361 847.449 299.918 844.834 Q302.476 842.22 306.727 842.22 Q311.598 842.22 314.156 845.963 Q316.733 849.687 316.733 856.796 Q316.733 863.435 313.573 867.404 Q310.432 871.353 305.109 871.353 Q303.68 871.353 302.213 871.071 Q300.746 870.789 299.166 870.225 M306.727 858.32 Q309.285 858.32 310.771 856.57 Q312.275 854.821 312.275 851.774 Q312.275 848.746 310.771 846.997 Q309.285 845.229 306.727 845.229 Q304.169 845.229 302.664 846.997 Q301.179 848.746 301.179 851.774 Q301.179 854.821 302.664 856.57 Q304.169 858.32 306.727 858.32 Z" fill="#000000" fill-rule="nonzero" fill-opacity="1" /><path clip-path="url(#clip740)" d="M104.005 664.027 L120.324 664.027 L120.324 667.962 L98.3802 667.962 L98.3802 664.027 Q101.042 661.272 105.625 656.643 Q110.232 651.99 111.412 650.647 Q113.658 648.124 114.537 646.388 Q115.44 644.629 115.44 642.939 Q115.44 640.184 113.496 638.448 Q111.575 636.712 108.473 636.712 Q106.274 636.712 103.82 637.476 Q101.389 638.24 98.6116 639.791 L98.6116 635.069 Q101.436 633.934 103.889 633.356 Q106.343 632.777 108.38 632.777 Q113.75 632.777 116.945 635.462 Q120.139 638.147 120.139 642.638 Q120.139 644.768 119.329 646.689 Q118.542 648.587 116.436 651.18 Q115.857 651.851 112.755 655.069 Q109.653 658.263 104.005 664.027 Z" fill="#000000" fill-rule="nonzero" fill-opacity="1" /><path clip-path="url(#clip740)" d="M130.139 662.082 L135.023 662.082 L135.023 667.962 L130.139 667.962 L130.139 662.082 Z" fill="#000000" fill-rule="nonzero" fill-opacity="1" /><path clip-path="url(#clip740)" d="M145.255 633.402 L163.611 633.402 L163.611 637.337 L149.537 637.337 L149.537 645.809 Q150.556 645.462 151.574 645.3 Q152.593 645.115 153.611 645.115 Q159.398 645.115 162.778 648.286 Q166.158 651.457 166.158 656.874 Q166.158 662.453 162.685 665.555 Q159.213 668.633 152.894 668.633 Q150.718 668.633 148.449 668.263 Q146.204 667.893 143.797 667.152 L143.797 662.453 Q145.88 663.587 148.102 664.143 Q150.324 664.698 152.801 664.698 Q156.806 664.698 159.144 662.592 Q161.482 660.485 161.482 656.874 Q161.482 653.263 159.144 651.157 Q156.806 649.05 152.801 649.05 Q150.926 649.05 149.051 649.467 Q147.199 649.883 145.255 650.763 L145.255 633.402 Z" fill="#000000" fill-rule="nonzero" fill-opacity="1" /><path clip-path="url(#clip740)" d="M185.37 636.481 Q181.759 636.481 179.931 640.045 Q178.125 643.587 178.125 650.717 Q178.125 657.823 179.931 661.388 Q181.759 664.93 185.37 664.93 Q189.005 664.93 190.81 661.388 Q192.639 657.823 192.639 650.717 Q192.639 643.587 190.81 640.045 Q189.005 636.481 185.37 636.481 M185.37 632.777 Q191.181 632.777 194.236 637.383 Q197.315 641.967 197.315 650.717 Q197.315 659.444 194.236 664.05 Q191.181 668.633 185.37 668.633 Q179.56 668.633 176.482 664.05 Q173.426 659.444 173.426 650.717 Q173.426 641.967 176.482 637.383 Q179.56 632.777 185.37 632.777 Z" fill="#000000" fill-rule="nonzero" fill-opacity="1" /><path clip-path="url(#clip740)" d="M233.704 642.499 L223.125 653.124 L233.704 663.703 L230.949 666.504 L220.324 655.879 L209.699 666.504 L206.968 663.703 L217.523 653.124 L206.968 642.499 L209.699 639.698 L220.324 650.323 L230.949 639.698 L233.704 642.499 Z" fill="#000000" fill-rule="nonzero" fill-opacity="1" /><path clip-path="url(#clip740)" d="M246.065 664.027 L253.703 664.027 L253.703 637.661 L245.393 639.328 L245.393 635.069 L253.657 633.402 L258.333 633.402 L258.333 664.027 L265.972 664.027 L265.972 667.962 L246.065 667.962 L246.065 664.027 Z" fill="#000000" fill-rule="nonzero" fill-opacity="1" /><path clip-path="url(#clip740)" d="M285.416 636.481 Q281.805 636.481 279.976 640.045 Q278.171 643.587 278.171 650.717 Q278.171 657.823 279.976 661.388 Q281.805 664.93 285.416 664.93 Q289.05 664.93 290.856 661.388 Q292.685 657.823 292.685 650.717 Q292.685 643.587 290.856 640.045 Q289.05 636.481 285.416 636.481 M285.416 632.777 Q291.226 632.777 294.282 637.383 Q297.361 641.967 297.361 650.717 Q297.361 659.444 294.282 664.05 Q291.226 668.633 285.416 668.633 Q279.606 668.633 276.527 664.05 Q273.472 659.444 273.472 650.717 Q273.472 641.967 276.527 637.383 Q279.606 632.777 285.416 632.777 Z" fill="#000000" fill-rule="nonzero" fill-opacity="1" /><path clip-path="url(#clip740)" d="M299.166 639.969 L299.166 636.508 Q300.596 637.185 302.063 637.542 Q303.53 637.9 304.94 637.9 Q308.702 637.9 310.676 635.379 Q312.67 632.84 312.952 627.687 Q311.861 629.305 310.187 630.17 Q308.514 631.035 306.482 631.035 Q302.269 631.035 299.806 628.496 Q297.361 625.938 297.361 621.518 Q297.361 617.192 299.918 614.578 Q302.476 611.964 306.727 611.964 Q311.598 611.964 314.156 615.707 Q316.733 619.43 316.733 626.54 Q316.733 633.179 313.573 637.147 Q310.432 641.097 305.109 641.097 Q303.68 641.097 302.213 640.815 Q300.746 640.533 299.166 639.969 M306.727 628.063 Q309.285 628.063 310.771 626.314 Q312.275 624.565 312.275 621.518 Q312.275 618.49 310.771 616.741 Q309.285 614.973 306.727 614.973 Q304.169 614.973 302.664 616.741 Q301.179 618.49 301.179 621.518 Q301.179 624.565 302.664 626.314 Q304.169 628.063 306.727 628.063 Z" fill="#000000" fill-rule="nonzero" fill-opacity="1" /><path clip-path="url(#clip740)" d="M114.144 419.072 Q117.5 419.789 119.375 422.058 Q121.274 424.326 121.274 427.659 Q121.274 432.775 117.755 435.576 Q114.237 438.377 107.755 438.377 Q105.579 438.377 103.264 437.937 Q100.973 437.52 98.519 436.664 L98.519 432.15 Q100.463 433.284 102.778 433.863 Q105.093 434.442 107.616 434.442 Q112.014 434.442 114.306 432.706 Q116.621 430.97 116.621 427.659 Q116.621 424.604 114.468 422.891 Q112.338 421.155 108.519 421.155 L104.491 421.155 L104.491 417.312 L108.704 417.312 Q112.153 417.312 113.982 415.947 Q115.811 414.558 115.811 411.965 Q115.811 409.303 113.912 407.891 Q112.037 406.456 108.519 406.456 Q106.598 406.456 104.399 406.872 Q102.2 407.289 99.5607 408.169 L99.5607 404.002 Q102.223 403.261 104.538 402.891 Q106.875 402.521 108.936 402.521 Q114.26 402.521 117.362 404.951 Q120.463 407.359 120.463 411.479 Q120.463 414.349 118.82 416.34 Q117.176 418.308 114.144 419.072 Z" fill="#000000" fill-rule="nonzero" fill-opacity="1" /><path clip-path="url(#clip740)" d="M130.139 431.826 L135.023 431.826 L135.023 437.706 L130.139 437.706 L130.139 431.826 Z" fill="#000000" fill-rule="nonzero" fill-opacity="1" /><path clip-path="url(#clip740)" d="M155.209 406.224 Q151.597 406.224 149.769 409.789 Q147.963 413.331 147.963 420.46 Q147.963 427.567 149.769 431.132 Q151.597 434.673 155.209 434.673 Q158.843 434.673 160.648 431.132 Q162.477 427.567 162.477 420.46 Q162.477 413.331 160.648 409.789 Q158.843 406.224 155.209 406.224 M155.209 402.521 Q161.019 402.521 164.074 407.127 Q167.153 411.71 167.153 420.46 Q167.153 429.187 164.074 433.794 Q161.019 438.377 155.209 438.377 Q149.398 438.377 146.32 433.794 Q143.264 429.187 143.264 420.46 Q143.264 411.71 146.32 407.127 Q149.398 402.521 155.209 402.521 Z" fill="#000000" fill-rule="nonzero" fill-opacity="1" /><path clip-path="url(#clip740)" d="M185.37 406.224 Q181.759 406.224 179.931 409.789 Q178.125 413.331 178.125 420.46 Q178.125 427.567 179.931 431.132 Q181.759 434.673 185.37 434.673 Q189.005 434.673 190.81 431.132 Q192.639 427.567 192.639 420.46 Q192.639 413.331 190.81 409.789 Q189.005 406.224 185.37 406.224 M185.37 402.521 Q191.181 402.521 194.236 407.127 Q197.315 411.71 197.315 420.46 Q197.315 429.187 194.236 433.794 Q191.181 438.377 185.37 438.377 Q179.56 438.377 176.482 433.794 Q173.426 429.187 173.426 420.46 Q173.426 411.71 176.482 407.127 Q179.56 402.521 185.37 402.521 Z" fill="#000000" fill-rule="nonzero" fill-opacity="1" /><path clip-path="url(#clip740)" d="M233.704 412.243 L223.125 422.868 L233.704 433.446 L230.949 436.247 L220.324 425.622 L209.699 436.247 L206.968 433.446 L217.523 422.868 L206.968 412.243 L209.699 409.442 L220.324 420.067 L230.949 409.442 L233.704 412.243 Z" fill="#000000" fill-rule="nonzero" fill-opacity="1" /><path clip-path="url(#clip740)" d="M246.065 433.77 L253.703 433.77 L253.703 407.405 L245.393 409.072 L245.393 404.812 L253.657 403.146 L258.333 403.146 L258.333 433.77 L265.972 433.77 L265.972 437.706 L246.065 437.706 L246.065 433.77 Z" fill="#000000" fill-rule="nonzero" fill-opacity="1" /><path clip-path="url(#clip740)" d="M285.416 406.224 Q281.805 406.224 279.976 409.789 Q278.171 413.331 278.171 420.46 Q278.171 427.567 279.976 431.132 Q281.805 434.673 285.416 434.673 Q289.05 434.673 290.856 431.132 Q292.685 427.567 292.685 420.46 Q292.685 413.331 290.856 409.789 Q289.05 406.224 285.416 406.224 M285.416 402.521 Q291.226 402.521 294.282 407.127 Q297.361 411.71 297.361 420.46 Q297.361 429.187 294.282 433.794 Q291.226 438.377 285.416 438.377 Q279.606 438.377 276.527 433.794 Q273.472 429.187 273.472 420.46 Q273.472 411.71 276.527 407.127 Q279.606 402.521 285.416 402.521 Z" fill="#000000" fill-rule="nonzero" fill-opacity="1" /><path clip-path="url(#clip740)" d="M299.166 409.712 L299.166 406.252 Q300.596 406.929 302.063 407.286 Q303.53 407.643 304.94 407.643 Q308.702 407.643 310.676 405.123 Q312.67 402.584 312.952 397.431 Q311.861 399.048 310.187 399.913 Q308.514 400.779 306.482 400.779 Q302.269 400.779 299.806 398.239 Q297.361 395.682 297.361 391.262 Q297.361 386.936 299.918 384.322 Q302.476 381.707 306.727 381.707 Q311.598 381.707 314.156 385.45 Q316.733 389.174 316.733 396.283 Q316.733 402.923 313.573 406.891 Q310.432 410.841 305.109 410.841 Q303.68 410.841 302.213 410.559 Q300.746 410.276 299.166 409.712 M306.727 397.807 Q309.285 397.807 310.771 396.058 Q312.275 394.309 312.275 391.262 Q312.275 388.234 310.771 386.485 Q309.285 384.717 306.727 384.717 Q304.169 384.717 302.664 386.485 Q301.179 388.234 301.179 391.262 Q301.179 394.309 302.664 396.058 Q304.169 397.807 306.727 397.807 Z" fill="#000000" fill-rule="nonzero" fill-opacity="1" /><path clip-path="url(#clip740)" d="M114.144 188.815 Q117.5 189.533 119.375 191.801 Q121.274 194.07 121.274 197.403 Q121.274 202.519 117.755 205.32 Q114.237 208.121 107.755 208.121 Q105.579 208.121 103.264 207.681 Q100.973 207.264 98.519 206.408 L98.519 201.894 Q100.463 203.028 102.778 203.607 Q105.093 204.185 107.616 204.185 Q112.014 204.185 114.306 202.449 Q116.621 200.713 116.621 197.403 Q116.621 194.348 114.468 192.635 Q112.338 190.898 108.519 190.898 L104.491 190.898 L104.491 187.056 L108.704 187.056 Q112.153 187.056 113.982 185.69 Q115.811 184.301 115.811 181.709 Q115.811 179.047 113.912 177.635 Q112.037 176.2 108.519 176.2 Q106.598 176.2 104.399 176.616 Q102.2 177.033 99.5607 177.912 L99.5607 173.746 Q102.223 173.005 104.538 172.635 Q106.875 172.264 108.936 172.264 Q114.26 172.264 117.362 174.695 Q120.463 177.102 120.463 181.223 Q120.463 184.093 118.82 186.084 Q117.176 188.051 114.144 188.815 Z" fill="#000000" fill-rule="nonzero" fill-opacity="1" /><path clip-path="url(#clip740)" d="M130.139 201.57 L135.023 201.57 L135.023 207.449 L130.139 207.449 L130.139 201.57 Z" fill="#000000" fill-rule="nonzero" fill-opacity="1" /><path clip-path="url(#clip740)" d="M145.255 172.889 L163.611 172.889 L163.611 176.824 L149.537 176.824 L149.537 185.297 Q150.556 184.949 151.574 184.787 Q152.593 184.602 153.611 184.602 Q159.398 184.602 162.778 187.774 Q166.158 190.945 166.158 196.361 Q166.158 201.94 162.685 205.042 Q159.213 208.121 152.894 208.121 Q150.718 208.121 148.449 207.75 Q146.204 207.38 143.797 206.639 L143.797 201.94 Q145.88 203.074 148.102 203.63 Q150.324 204.185 152.801 204.185 Q156.806 204.185 159.144 202.079 Q161.482 199.973 161.482 196.361 Q161.482 192.75 159.144 190.644 Q156.806 188.537 152.801 188.537 Q150.926 188.537 149.051 188.954 Q147.199 189.371 145.255 190.25 L145.255 172.889 Z" fill="#000000" fill-rule="nonzero" fill-opacity="1" /><path clip-path="url(#clip740)" d="M185.37 175.968 Q181.759 175.968 179.931 179.533 Q178.125 183.074 178.125 190.204 Q178.125 197.311 179.931 200.875 Q181.759 204.417 185.37 204.417 Q189.005 204.417 190.81 200.875 Q192.639 197.311 192.639 190.204 Q192.639 183.074 190.81 179.533 Q189.005 175.968 185.37 175.968 M185.37 172.264 Q191.181 172.264 194.236 176.871 Q197.315 181.454 197.315 190.204 Q197.315 198.931 194.236 203.537 Q191.181 208.121 185.37 208.121 Q179.56 208.121 176.482 203.537 Q173.426 198.931 173.426 190.204 Q173.426 181.454 176.482 176.871 Q179.56 172.264 185.37 172.264 Z" fill="#000000" fill-rule="nonzero" fill-opacity="1" /><path clip-path="url(#clip740)" d="M233.704 181.987 L223.125 192.611 L233.704 203.19 L230.949 205.991 L220.324 195.366 L209.699 205.991 L206.968 203.19 L217.523 192.611 L206.968 181.987 L209.699 179.186 L220.324 189.811 L230.949 179.186 L233.704 181.987 Z" fill="#000000" fill-rule="nonzero" fill-opacity="1" /><path clip-path="url(#clip740)" d="M246.065 203.514 L253.703 203.514 L253.703 177.149 L245.393 178.815 L245.393 174.556 L253.657 172.889 L258.333 172.889 L258.333 203.514 L265.972 203.514 L265.972 207.449 L246.065 207.449 L246.065 203.514 Z" fill="#000000" fill-rule="nonzero" fill-opacity="1" /><path clip-path="url(#clip740)" d="M285.416 175.968 Q281.805 175.968 279.976 179.533 Q278.171 183.074 278.171 190.204 Q278.171 197.311 279.976 200.875 Q281.805 204.417 285.416 204.417 Q289.05 204.417 290.856 200.875 Q292.685 197.311 292.685 190.204 Q292.685 183.074 290.856 179.533 Q289.05 175.968 285.416 175.968 M285.416 172.264 Q291.226 172.264 294.282 176.871 Q297.361 181.454 297.361 190.204 Q297.361 198.931 294.282 203.537 Q291.226 208.121 285.416 208.121 Q279.606 208.121 276.527 203.537 Q273.472 198.931 273.472 190.204 Q273.472 181.454 276.527 176.871 Q279.606 172.264 285.416 172.264 Z" fill="#000000" fill-rule="nonzero" fill-opacity="1" /><path clip-path="url(#clip740)" d="M299.166 179.456 L299.166 175.995 Q300.596 176.672 302.063 177.03 Q303.53 177.387 304.94 177.387 Q308.702 177.387 310.676 174.867 Q312.67 172.328 312.952 167.174 Q311.861 168.792 310.187 169.657 Q308.514 170.522 306.482 170.522 Q302.269 170.522 299.806 167.983 Q297.361 165.425 297.361 161.005 Q297.361 156.68 299.918 154.065 Q302.476 151.451 306.727 151.451 Q311.598 151.451 314.156 155.194 Q316.733 158.918 316.733 166.027 Q316.733 172.666 313.573 176.635 Q310.432 180.584 305.109 180.584 Q303.68 180.584 302.213 180.302 Q300.746 180.02 299.166 179.456 M306.727 167.551 Q309.285 167.551 310.771 165.801 Q312.275 164.052 312.275 161.005 Q312.275 157.977 310.771 156.228 Q309.285 154.46 306.727 154.46 Q304.169 154.46 302.664 156.228 Q301.179 157.977 301.179 161.005 Q301.179 164.052 302.664 165.801 Q304.169 167.551 306.727 167.551 Z" fill="#000000" fill-rule="nonzero" fill-opacity="1" /><path clip-path="url(#clip740)" d="M-9.64527 840.632 L0.4762 840.632 L0.4762 828.569 L5.02768 828.569 L5.02768 840.632 L24.3794 840.632 Q28.7399 840.632 29.9813 839.454 Q31.2226 838.245 31.2226 834.584 L31.2226 828.569 L36.1242 828.569 L36.1242 834.584 Q36.1242 841.364 33.6097 843.942 Q31.0634 846.52 24.3794 846.52 L5.02768 846.52 L5.02768 850.817 L0.4762 850.817 L0.4762 846.52 L-9.64527 846.52 L-9.64527 840.632 Z" fill="#000000" fill-rule="nonzero" fill-opacity="1" /><path clip-path="url(#clip740)" d="M-11.3958 789.738 L-11.3958 784.327 L42.1716 800.878 L42.1716 806.289 L-11.3958 789.738 Z" fill="#000000" fill-rule="nonzero" fill-opacity="1" /><path clip-path="url(#clip740)" d="M14.6081 727.831 L36.1242 727.831 L36.1242 733.688 L14.799 733.688 Q9.7383 733.688 7.22385 735.661 Q4.7094 737.635 4.7094 741.581 Q4.7094 746.324 7.73311 749.061 Q10.7568 751.798 15.9767 751.798 L36.1242 751.798 L36.1242 757.687 L0.4762 757.687 L0.4762 751.798 L6.01437 751.798 Q2.79968 749.698 1.20826 746.865 Q-0.38317 744 -0.38317 740.276 Q-0.38317 734.133 3.43625 730.982 Q7.22385 727.831 14.6081 727.831 Z" fill="#000000" fill-rule="nonzero" fill-opacity="1" /><path clip-path="url(#clip740)" d="M1.52654 693.425 L7.06471 693.425 Q5.79157 695.907 5.15499 698.581 Q4.51842 701.255 4.51842 704.119 Q4.51842 708.48 5.85522 710.676 Q7.19202 712.84 9.86562 712.84 Q11.9026 712.84 13.0803 711.281 Q14.2261 709.721 15.2765 705.01 L15.7221 703.005 Q17.0589 696.767 19.5097 694.157 Q21.9286 691.515 26.2891 691.515 Q31.2544 691.515 34.1508 695.462 Q37.0472 699.377 37.0472 706.252 Q37.0472 709.116 36.4743 712.235 Q35.9332 715.323 34.8192 718.76 L28.7718 718.76 Q30.4587 715.514 31.318 712.363 Q32.1456 709.212 32.1456 706.124 Q32.1456 701.987 30.7451 699.759 Q29.3129 697.531 26.7347 697.531 Q24.3476 697.531 23.0745 699.154 Q21.8013 700.745 20.6237 706.188 L20.1462 708.225 Q19.0004 713.668 16.6451 716.087 Q14.258 718.506 10.1202 718.506 Q5.09134 718.506 2.35408 714.941 Q-0.38317 711.376 -0.38317 704.819 Q-0.38317 701.573 0.0942579 698.708 Q0.571686 695.844 1.52654 693.425 Z" fill="#000000" fill-rule="nonzero" fill-opacity="1" /><path clip-path="url(#clip742)" d="M984.126 1454.11 L990.963 1454.07 L997.237 1454.03 L1002.92 1453.99 L1007.97 1453.95 L1012.38 1453.92 L1016.14 1453.88 L1019.24 1453.84 L1021.68 1453.8 L1023.49 1453.76 L1024.67 1453.72 L1025.27 1453.68 L1025.32 1453.64 L1024.86 1453.6 L1023.94 1453.56 L1022.62 1453.53 L1020.95 1453.49 L1019 1453.45 L1016.83 1453.41 L1014.51 1453.37 L1012.09 1453.33 L1009.65 1453.29 L1007.24 1453.25 L1004.93 1453.21 L1002.76 1453.17 L1000.79 1453.13 L999.055 1453.1 L997.597 1453.06 L996.445 1453.02 L995.624 1452.98 L995.148 1452.94 L995.027 1452.9 L995.262 1452.86 L995.848 1452.82 L996.771 1452.78 L998.013 1452.74 L999.546 1452.71 L1001.34 1452.67 L1003.36 1452.63 L1005.56 1452.59 L1007.9 1452.55 L1010.32 1452.51 L1012.79 1452.47 L1015.24 1452.43 L1017.62 1452.39 L1019.89 1452.35 L1021.98 1452.31 L1023.84 1452.28 L1025.43 1452.24 L1026.69 1452.2 L1027.59 1452.16 L1028.08 1452.12 L1028.13 1452.08 L1027.71 1452.04 L1026.78 1452 L1025.34 1451.96 L1023.36 1451.92 L1020.83 1451.88 L1017.75 1451.85 L1014.13 1451.81 L1009.96 1451.77 L1005.26 1451.73 L1000.05 1451.69 L994.351 1451.65 L988.185 1451.61 L981.585 1451.57 L974.585 1451.53 L967.222 1451.49 L959.535 1451.46 L951.566 1451.42 L520.203 1451.42 L512.234 1451.46 L504.547 1451.49 L497.184 1451.53 L490.184 1451.57 L483.584 1451.61 L477.419 1451.65 L471.717 1451.69 L466.507 1451.73 L461.809 1451.77 L457.641 1451.81 L454.016 1451.85 L450.939 1451.88 L448.412 1451.92 L446.431 1451.96 L444.987 1452 L444.063 1452.04 L443.639 1452.08 L443.688 1452.12 L444.18 1452.16 L445.078 1452.2 L446.343 1452.24 L447.93 1452.28 L449.793 1452.31 L451.882 1452.35 L454.144 1452.39 L456.528 1452.43 L458.979 1452.47 L461.445 1452.51 L463.872 1452.55 L466.21 1452.59 L468.411 1452.63 L470.429 1452.67 L472.223 1452.71 L473.756 1452.74 L474.998 1452.78 L475.921 1452.82 L476.507 1452.86 L476.742 1452.9 L476.621 1452.94 L476.145 1452.98 L475.324 1453.02 L474.172 1453.06 L472.714 1453.1 L470.981 1453.13 L469.008 1453.17 L466.84 1453.21 L464.525 1453.25 L462.118 1453.29 L459.676 1453.33 L457.261 1453.37 L454.936 1453.41 L452.766 1453.45 L450.815 1453.49 L449.148 1453.53 L447.825 1453.56 L446.907 1453.6 L446.447 1453.64 L446.495 1453.68 L447.095 1453.72 L448.283 1453.76 L450.088 1453.8 L452.533 1453.84 L455.632 1453.88 L459.388 1453.92 L463.799 1453.95 L468.854 1453.99 L474.532 1454.03 L480.806 1454.07 L487.643 1454.11 L984.126 1454.11  Z" fill="#009af9" fill-rule="evenodd" fill-opacity="1"/>
<polyline clip-path="url(#clip742)" style="stroke:#000000; stroke-linecap:round; stroke-linejoin:round; stroke-width:4; stroke-opacity:1; fill:none" points="984.126,1454.11 990.963,1454.07 997.237,1454.03 1002.92,1453.99 1007.97,1453.95 1012.38,1453.92 1016.14,1453.88 1019.24,1453.84 1021.68,1453.8 1023.49,1453.76 1024.67,1453.72 1025.27,1453.68 1025.32,1453.64 1024.86,1453.6 1023.94,1453.56 1022.62,1453.53 1020.95,1453.49 1019,1453.45 1016.83,1453.41 1014.51,1453.37 1012.09,1453.33 1009.65,1453.29 1007.24,1453.25 1004.93,1453.21 1002.76,1453.17 1000.79,1453.13 999.055,1453.1 997.597,1453.06 996.445,1453.02 995.624,1452.98 995.148,1452.94 995.027,1452.9 995.262,1452.86 995.848,1452.82 996.771,1452.78 998.013,1452.74 999.546,1452.71 1001.34,1452.67 1003.36,1452.63 1005.56,1452.59 1007.9,1452.55 1010.32,1452.51 1012.79,1452.47 1015.24,1452.43 1017.62,1452.39 1019.89,1452.35 1021.98,1452.31 1023.84,1452.28 1025.43,1452.24 1026.69,1452.2 1027.59,1452.16 1028.08,1452.12 1028.13,1452.08 1027.71,1452.04 1026.78,1452 1025.34,1451.96 1023.36,1451.92 1020.83,1451.88 1017.75,1451.85 1014.13,1451.81 1009.96,1451.77 1005.26,1451.73 1000.05,1451.69 994.351,1451.65 988.185,1451.61 981.585,1451.57 974.585,1451.53 967.222,1451.49 959.535,1451.46 951.566,1451.42 520.203,1451.42 512.234,1451.46 504.547,1451.49 497.184,1451.53 490.184,1451.57 483.584,1451.61 477.419,1451.65 471.717,1451.69 466.507,1451.73 461.809,1451.77 457.641,1451.81 454.016,1451.85 450.939,1451.88 448.412,1451.92 446.431,1451.96 444.987,1452 444.063,1452.04 443.639,1452.08 443.688,1452.12 444.18,1452.16 445.078,1452.2 446.343,1452.24 447.93,1452.28 449.793,1452.31 451.882,1452.35 454.144,1452.39 456.528,1452.43 458.979,1452.47 461.445,1452.51 463.872,1452.55 466.21,1452.59 468.411,1452.63 470.429,1452.67 472.223,1452.71 473.756,1452.74 474.998,1452.78 475.921,1452.82 476.507,1452.86 476.742,1452.9 476.621,1452.94 476.145,1452.98 475.324,1453.02 474.172,1453.06 472.714,1453.1 470.981,1453.13 469.008,1453.17 466.84,1453.21 464.525,1453.25 462.118,1453.29 459.676,1453.33 457.261,1453.37 454.936,1453.41 452.766,1453.45 450.815,1453.49 449.148,1453.53 447.825,1453.56 446.907,1453.6 446.447,1453.64 446.495,1453.68 447.095,1453.72 448.283,1453.76 450.088,1453.8 452.533,1453.84 455.632,1453.88 459.388,1453.92 463.799,1453.95 468.854,1453.99 474.532,1454.03 480.806,1454.07 487.643,1454.11 984.126,1454.11 "/>
<path clip-path="url(#clip742)" d="M1976.75 1443.47 L1985.66 1443.3 L1994.24 1443.13 L2002.45 1442.97 L2010.2 1442.8 L2017.44 1442.64 L2024.12 1442.47 L2030.16 1442.3 L2035.53 1442.14 L2040.16 1441.97 L2044.02 1441.8 L2047.06 1441.64 L2049.25 1441.47 L2050.57 1441.31 L2050.99 1441.14 L2050.51 1440.97 L2049.12 1440.81 L2046.83 1440.64 L2043.66 1440.47 L2039.62 1440.31 L2034.76 1440.14 L2029.1 1439.98 L2022.71 1439.81 L2015.64 1439.64 L2007.95 1439.48 L1999.71 1439.31 L1990.99 1439.14 L1981.89 1438.98 L1972.47 1438.81 L1962.83 1438.65 L1953.04 1438.48 L1943.21 1438.31 L1933.41 1438.15 L1923.72 1437.98 L1914.23 1437.82 L1905.02 1437.65 L1896.15 1437.48 L1887.7 1437.32 L1879.72 1437.15 L1872.27 1436.98 L1865.4 1436.82 L1859.15 1436.65 L1853.55 1436.49 L1848.62 1436.32 L1844.4 1436.15 L1840.87 1435.99 L1838.06 1435.82 L1835.95 1435.65 L1834.54 1435.49 L1833.79 1435.32 L1833.7 1435.16 L1834.23 1434.99 L1835.33 1434.82 L1836.98 1434.66 L1839.11 1434.49 L1841.68 1434.32 L1844.62 1434.16 L1847.89 1433.99 L1851.41 1433.83 L1855.13 1433.66 L1858.97 1433.49 L1862.86 1433.33 L1866.75 1433.16 L1870.56 1433 L1874.23 1432.83 L1877.69 1432.66 L1880.9 1432.5 L1883.79 1432.33 L1886.32 1432.16 L1888.44 1432 L1890.12 1431.83 L1891.32 1431.67 L1892.02 1431.5 L1892.21 1431.33 L1891.87 1431.17 L1891.01 1431 L1626.48 1431 L1625.62 1431.17 L1625.28 1431.33 L1625.47 1431.5 L1626.17 1431.67 L1627.37 1431.83 L1629.05 1432 L1631.17 1432.16 L1633.7 1432.33 L1636.59 1432.5 L1639.8 1432.66 L1643.26 1432.83 L1646.93 1433 L1650.74 1433.16 L1654.63 1433.33 L1658.52 1433.49 L1662.36 1433.66 L1666.08 1433.83 L1669.6 1433.99 L1672.87 1434.16 L1675.81 1434.32 L1678.38 1434.49 L1680.51 1434.66 L1682.16 1434.82 L1683.26 1434.99 L1683.79 1435.16 L1683.69 1435.32 L1682.95 1435.49 L1681.54 1435.65 L1679.43 1435.82 L1676.61 1435.99 L1673.09 1436.15 L1668.86 1436.32 L1663.94 1436.49 L1658.34 1436.65 L1652.09 1436.82 L1645.22 1436.98 L1637.77 1437.15 L1629.79 1437.32 L1621.34 1437.48 L1612.47 1437.65 L1603.26 1437.82 L1593.77 1437.98 L1584.08 1438.15 L1574.28 1438.31 L1564.44 1438.48 L1554.66 1438.65 L1545.02 1438.81 L1535.6 1438.98 L1526.49 1439.14 L1517.78 1439.31 L1509.54 1439.48 L1501.85 1439.64 L1494.78 1439.81 L1488.38 1439.98 L1482.73 1440.14 L1477.87 1440.31 L1473.83 1440.47 L1470.66 1440.64 L1468.37 1440.81 L1466.98 1440.97 L1466.5 1441.14 L1466.92 1441.31 L1468.24 1441.47 L1470.43 1441.64 L1473.47 1441.8 L1477.33 1441.97 L1481.96 1442.14 L1487.33 1442.3 L1493.37 1442.47 L1500.04 1442.64 L1507.29 1442.8 L1515.04 1442.97 L1523.24 1443.13 L1531.83 1443.3 L1540.74 1443.47 L1976.75 1443.47  Z" fill="#e26f46" fill-rule="evenodd" fill-opacity="1"/>
<polyline clip-path="url(#clip742)" style="stroke:#000000; stroke-linecap:round; stroke-linejoin:round; stroke-width:4; stroke-opacity:1; fill:none" points="1976.75,1443.47 1985.66,1443.3 1994.24,1443.13 2002.45,1442.97 2010.2,1442.8 2017.44,1442.64 2024.12,1442.47 2030.16,1442.3 2035.53,1442.14 2040.16,1441.97 2044.02,1441.8 2047.06,1441.64 2049.25,1441.47 2050.57,1441.31 2050.99,1441.14 2050.51,1440.97 2049.12,1440.81 2046.83,1440.64 2043.66,1440.47 2039.62,1440.31 2034.76,1440.14 2029.1,1439.98 2022.71,1439.81 2015.64,1439.64 2007.95,1439.48 1999.71,1439.31 1990.99,1439.14 1981.89,1438.98 1972.47,1438.81 1962.83,1438.65 1953.04,1438.48 1943.21,1438.31 1933.41,1438.15 1923.72,1437.98 1914.23,1437.82 1905.02,1437.65 1896.15,1437.48 1887.7,1437.32 1879.72,1437.15 1872.27,1436.98 1865.4,1436.82 1859.15,1436.65 1853.55,1436.49 1848.62,1436.32 1844.4,1436.15 1840.87,1435.99 1838.06,1435.82 1835.95,1435.65 1834.54,1435.49 1833.79,1435.32 1833.7,1435.16 1834.23,1434.99 1835.33,1434.82 1836.98,1434.66 1839.11,1434.49 1841.68,1434.32 1844.62,1434.16 1847.89,1433.99 1851.41,1433.83 1855.13,1433.66 1858.97,1433.49 1862.86,1433.33 1866.75,1433.16 1870.56,1433 1874.23,1432.83 1877.69,1432.66 1880.9,1432.5 1883.79,1432.33 1886.32,1432.16 1888.44,1432 1890.12,1431.83 1891.32,1431.67 1892.02,1431.5 1892.21,1431.33 1891.87,1431.17 1891.01,1431 1626.48,1431 1625.62,1431.17 1625.28,1431.33 1625.47,1431.5 1626.17,1431.67 1627.37,1431.83 1629.05,1432 1631.17,1432.16 1633.7,1432.33 1636.59,1432.5 1639.8,1432.66 1643.26,1432.83 1646.93,1433 1650.74,1433.16 1654.63,1433.33 1658.52,1433.49 1662.36,1433.66 1666.08,1433.83 1669.6,1433.99 1672.87,1434.16 1675.81,1434.32 1678.38,1434.49 1680.51,1434.66 1682.16,1434.82 1683.26,1434.99 1683.79,1435.16 1683.69,1435.32 1682.95,1435.49 1681.54,1435.65 1679.43,1435.82 1676.61,1435.99 1673.09,1436.15 1668.86,1436.32 1663.94,1436.49 1658.34,1436.65 1652.09,1436.82 1645.22,1436.98 1637.77,1437.15 1629.79,1437.32 1621.34,1437.48 1612.47,1437.65 1603.26,1437.82 1593.77,1437.98 1584.08,1438.15 1574.28,1438.31 1564.44,1438.48 1554.66,1438.65 1545.02,1438.81 1535.6,1438.98 1526.49,1439.14 1517.78,1439.31 1509.54,1439.48 1501.85,1439.64 1494.78,1439.81 1488.38,1439.98 1482.73,1440.14 1477.87,1440.31 1473.83,1440.47 1470.66,1440.64 1468.37,1440.81 1466.98,1440.97 1466.5,1441.14 1466.92,1441.31 1468.24,1441.47 1470.43,1441.64 1473.47,1441.8 1477.33,1441.97 1481.96,1442.14 1487.33,1442.3 1493.37,1442.47 1500.04,1442.64 1507.29,1442.8 1515.04,1442.97 1523.24,1443.13 1531.83,1443.3 1540.74,1443.47 1976.75,1443.47 "/>
<path clip-path="url(#clip742)" d="M3073.85 105.313 L3073.27 105.023 L3071.78 104.733 L3069.4 104.444 L3066.16 104.154 L3062.11 103.864 L3057.29 103.575 L3051.76 103.285 L3045.59 102.995 L3038.86 102.706 L3031.65 102.416 L3024.03 102.126 L3016.1 101.837 L3007.95 101.547 L2999.67 101.257 L2991.36 100.967 L2983.1 100.678 L2974.99 100.388 L2967.12 100.098 L2959.57 99.8086 L2952.43 99.5189 L2945.77 99.2292 L2939.66 98.9396 L2934.17 98.6499 L2929.35 98.3602 L2925.25 98.0705 L2921.93 97.7808 L2919.4 97.4911 L2917.7 97.2014 L2916.85 96.9117 L2916.85 96.622 L2917.7 96.3323 L2919.4 96.0426 L2921.93 95.7529 L2925.25 95.4632 L2929.35 95.1735 L2934.17 94.8838 L2939.66 94.5941 L2945.77 94.3044 L2952.43 94.0147 L2959.57 93.725 L2967.12 93.4353 L2974.99 93.1456 L2983.1 92.8559 L2991.36 92.5662 L2999.67 92.2765 L3007.95 91.9869 L3016.1 91.6972 L3024.03 91.4075 L3031.65 91.1178 L3038.86 90.8281 L3045.59 90.5384 L3051.76 90.2487 L3057.29 89.959 L3062.11 89.6693 L3066.16 89.3796 L3069.4 89.0899 L3071.78 88.8002 L3073.27 88.5105 L3073.85 88.2208 L2489.36 88.2208 L2489.93 88.5105 L2491.42 88.8002 L2493.81 89.0899 L2497.05 89.3796 L2501.1 89.6693 L2505.92 89.959 L2511.45 90.2487 L2517.61 90.5384 L2524.34 90.8281 L2531.56 91.1178 L2539.18 91.4075 L2547.11 91.6972 L2555.26 91.9869 L2563.54 92.2765 L2571.85 92.5662 L2580.11 92.8559 L2588.22 93.1456 L2596.09 93.4353 L2603.64 93.725 L2610.78 94.0147 L2617.44 94.3044 L2623.55 94.5941 L2629.04 94.8838 L2633.86 95.1735 L2637.95 95.4632 L2641.28 95.7529 L2643.81 96.0426 L2645.5 96.3323 L2646.36 96.622 L2646.36 96.9117 L2645.5 97.2014 L2643.81 97.4911 L2641.28 97.7808 L2637.95 98.0705 L2633.86 98.3602 L2629.04 98.6499 L2623.55 98.9396 L2617.44 99.2292 L2610.78 99.5189 L2603.64 99.8086 L2596.09 100.098 L2588.22 100.388 L2580.11 100.678 L2571.85 100.967 L2563.54 101.257 L2555.26 101.547 L2547.11 101.837 L2539.18 102.126 L2531.56 102.416 L2524.34 102.706 L2517.61 102.995 L2511.45 103.285 L2505.92 103.575 L2501.1 103.864 L2497.05 104.154 L2493.81 104.444 L2491.42 104.733 L2489.93 105.023 L2489.36 105.313 L3073.85 105.313  Z" fill="#3da44d" fill-rule="evenodd" fill-opacity="1"/>
<polyline clip-path="url(#clip742)" style="stroke:#000000; stroke-linecap:round; stroke-linejoin:round; stroke-width:4; stroke-opacity:1; fill:none" points="3073.85,105.313 3073.27,105.023 3071.78,104.733 3069.4,104.444 3066.16,104.154 3062.11,103.864 3057.29,103.575 3051.76,103.285 3045.59,102.995 3038.86,102.706 3031.65,102.416 3024.03,102.126 3016.1,101.837 3007.95,101.547 2999.67,101.257 2991.36,100.967 2983.1,100.678 2974.99,100.388 2967.12,100.098 2959.57,99.8086 2952.43,99.5189 2945.77,99.2292 2939.66,98.9396 2934.17,98.6499 2929.35,98.3602 2925.25,98.0705 2921.93,97.7808 2919.4,97.4911 2917.7,97.2014 2916.85,96.9117 2916.85,96.622 2917.7,96.3323 2919.4,96.0426 2921.93,95.7529 2925.25,95.4632 2929.35,95.1735 2934.17,94.8838 2939.66,94.5941 2945.77,94.3044 2952.43,94.0147 2959.57,93.725 2967.12,93.4353 2974.99,93.1456 2983.1,92.8559 2991.36,92.5662 2999.67,92.2765 3007.95,91.9869 3016.1,91.6972 3024.03,91.4075 3031.65,91.1178 3038.86,90.8281 3045.59,90.5384 3051.76,90.2487 3057.29,89.959 3062.11,89.6693 3066.16,89.3796 3069.4,89.0899 3071.78,88.8002 3073.27,88.5105 3073.85,88.2208 2489.36,88.2208 2489.93,88.5105 2491.42,88.8002 2493.81,89.0899 2497.05,89.3796 2501.1,89.6693 2505.92,89.959 2511.45,90.2487 2517.61,90.5384 2524.34,90.8281 2531.56,91.1178 2539.18,91.4075 2547.11,91.6972 2555.26,91.9869 2563.54,92.2765 2571.85,92.5662 2580.11,92.8559 2588.22,93.1456 2596.09,93.4353 2603.64,93.725 2610.78,94.0147 2617.44,94.3044 2623.55,94.5941 2629.04,94.8838 2633.86,95.1735 2637.95,95.4632 2641.28,95.7529 2643.81,96.0426 2645.5,96.3323 2646.36,96.622 2646.36,96.9117 2645.5,97.2014 2643.81,97.4911 2641.28,97.7808 2637.95,98.0705 2633.86,98.3602 2629.04,98.6499 2623.55,98.9396 2617.44,99.2292 2610.78,99.5189 2603.64,99.8086 2596.09,100.098 2588.22,100.388 2580.11,100.678 2571.85,100.967 2563.54,101.257 2555.26,101.547 2547.11,101.837 2539.18,102.126 2531.56,102.416 2524.34,102.706 2517.61,102.995 2511.45,103.285 2505.92,103.575 2501.1,103.864 2497.05,104.154 2493.81,104.444 2491.42,104.733 2489.93,105.023 2489.36,105.313 3073.85,105.313 "/>
</svg>
