<?xml version="1.0" encoding="utf-8"?>
<svg xmlns="http://www.w3.org/2000/svg" xmlns:xlink="http://www.w3.org/1999/xlink" width="800" height="400" viewBox="0 0 3200 1600">
<defs>
  <clipPath id="clip710">
    <rect x="0" y="0" width="3200" height="1600"/>
  </clipPath>
</defs>
<path clip-path="url(#clip710)" d="M0 1600 L3200 1600 L3200 0 L0 0  Z" fill="#ffffff" fill-rule="evenodd" fill-opacity="1"/>
<defs>
  <clipPath id="clip711">
    <rect x="640" y="0" width="2241" height="1600"/>
  </clipPath>
</defs>
<path clip-path="url(#clip710)" d="M365.106 1495.09 L3152.76 1495.09 L3152.76 47.2441 L365.106 47.2441  Z" fill="#ffffff" fill-rule="evenodd" fill-opacity="1"/>
<defs>
  <clipPath id="clip712">
    <rect x="365" y="47" width="2789" height="1449"/>
  </clipPath>
</defs>
<polyline clip-path="url(#clip712)" style="stroke:#000000; stroke-linecap:round; stroke-linejoin:round; stroke-width:2; stroke-opacity:0.1; fill:none" points="922.158,1495.09 922.158,47.2441 "/>
<polyline clip-path="url(#clip712)" style="stroke:#000000; stroke-linecap:round; stroke-linejoin:round; stroke-width:2; stroke-opacity:0.1; fill:none" points="2595.7,1495.09 2595.7,47.2441 "/>
<polyline clip-path="url(#clip712)" style="stroke:#000000; stroke-linecap:round; stroke-linejoin:round; stroke-width:2; stroke-opacity:0.1; fill:none" points="365.106,1366.13 3152.76,1366.13 "/>
<polyline clip-path="url(#clip712)" style="stroke:#000000; stroke-linecap:round; stroke-linejoin:round; stroke-width:2; stroke-opacity:0.1; fill:none" points="365.106,1163.3 3152.76,1163.3 "/>
<polyline clip-path="url(#clip712)" style="stroke:#000000; stroke-linecap:round; stroke-linejoin:round; stroke-width:2; stroke-opacity:0.1; fill:none" points="365.106,960.475 3152.76,960.475 "/>
<polyline clip-path="url(#clip712)" style="stroke:#000000; stroke-linecap:round; stroke-linejoin:round; stroke-width:2; stroke-opacity:0.1; fill:none" points="365.106,757.648 3152.76,757.648 "/>
<polyline clip-path="url(#clip712)" style="stroke:#000000; stroke-linecap:round; stroke-linejoin:round; stroke-width:2; stroke-opacity:0.1; fill:none" points="365.106,554.82 3152.76,554.82 "/>
<polyline clip-path="url(#clip712)" style="stroke:#000000; stroke-linecap:round; stroke-linejoin:round; stroke-width:2; stroke-opacity:0.1; fill:none" points="365.106,351.992 3152.76,351.992 "/>
<polyline clip-path="url(#clip712)" style="stroke:#000000; stroke-linecap:round; stroke-linejoin:round; stroke-width:2; stroke-opacity:0.1; fill:none" points="365.106,149.165 3152.76,149.165 "/>
<polyline clip-path="url(#clip710)" style="stroke:#000000; stroke-linecap:round; stroke-linejoin:round; stroke-width:4; stroke-opacity:1; fill:none" points="365.106,1495.09 3152.76,1495.09 "/>
<polyline clip-path="url(#clip710)" style="stroke:#000000; stroke-linecap:round; stroke-linejoin:round; stroke-width:4; stroke-opacity:1; fill:none" points="922.158,1495.09 922.158,1476.19 "/>
<polyline clip-path="url(#clip710)" style="stroke:#000000; stroke-linecap:round; stroke-linejoin:round; stroke-width:4; stroke-opacity:1; fill:none" points="2595.7,1495.09 2595.7,1476.19 "/>
<path clip-path="url(#clip710)" d="M827.413 1533.4 L815.607 1551.85 L827.413 1551.85 L827.413 1533.4 M826.186 1529.33 L832.066 1529.33 L832.066 1551.85 L836.996 1551.85 L836.996 1555.74 L832.066 1555.74 L832.066 1563.89 L827.413 1563.89 L827.413 1555.74 L811.811 1555.74 L811.811 1551.23 L826.186 1529.33 Z" fill="#000000" fill-rule="nonzero" fill-opacity="1" /><path clip-path="url(#clip710)" d="M863.408 1530.6 L863.408 1537.96 L872.181 1537.96 L872.181 1541.27 L863.408 1541.27 L863.408 1555.35 Q863.408 1558.52 864.264 1559.42 Q865.144 1560.32 867.806 1560.32 L872.181 1560.32 L872.181 1563.89 L867.806 1563.89 Q862.876 1563.89 861.001 1562.06 Q859.126 1560.21 859.126 1555.35 L859.126 1541.27 L856.001 1541.27 L856.001 1537.96 L859.126 1537.96 L859.126 1530.6 L863.408 1530.6 Z" fill="#000000" fill-rule="nonzero" fill-opacity="1" /><path clip-path="url(#clip710)" d="M899.334 1548.24 L899.334 1563.89 L895.075 1563.89 L895.075 1548.38 Q895.075 1544.7 893.639 1542.87 Q892.204 1541.04 889.334 1541.04 Q885.885 1541.04 883.894 1543.24 Q881.903 1545.44 881.903 1549.24 L881.903 1563.89 L877.621 1563.89 L877.621 1527.87 L881.903 1527.87 L881.903 1541.99 Q883.431 1539.65 885.491 1538.49 Q887.575 1537.34 890.283 1537.34 Q894.75 1537.34 897.042 1540.11 Q899.334 1542.87 899.334 1548.24 Z" fill="#000000" fill-rule="nonzero" fill-opacity="1" /><path clip-path="url(#clip710)" d="M922.852 1541.94 Q922.135 1541.53 921.278 1541.34 Q920.445 1541.13 919.426 1541.13 Q915.815 1541.13 913.871 1543.49 Q911.949 1545.83 911.949 1550.23 L911.949 1563.89 L907.667 1563.89 L907.667 1537.96 L911.949 1537.96 L911.949 1541.99 Q913.292 1539.63 915.445 1538.49 Q917.598 1537.34 920.676 1537.34 Q921.116 1537.34 921.648 1537.41 Q922.181 1537.45 922.829 1537.57 L922.852 1541.94 Z" fill="#000000" fill-rule="nonzero" fill-opacity="1" /><path clip-path="url(#clip710)" d="M948.454 1549.86 L948.454 1551.94 L928.871 1551.94 Q929.148 1556.34 931.509 1558.66 Q933.894 1560.95 938.13 1560.95 Q940.584 1560.95 942.875 1560.35 Q945.19 1559.74 947.458 1558.54 L947.458 1562.57 Q945.167 1563.54 942.759 1564.05 Q940.352 1564.56 937.875 1564.56 Q931.672 1564.56 928.037 1560.95 Q924.426 1557.34 924.426 1551.18 Q924.426 1544.81 927.852 1541.09 Q931.301 1537.34 937.134 1537.34 Q942.366 1537.34 945.398 1540.72 Q948.454 1544.07 948.454 1549.86 M944.195 1548.61 Q944.148 1545.11 942.227 1543.03 Q940.329 1540.95 937.181 1540.95 Q933.616 1540.95 931.463 1542.96 Q929.334 1544.98 929.01 1548.63 L944.195 1548.61 Z" fill="#000000" fill-rule="nonzero" fill-opacity="1" /><path clip-path="url(#clip710)" d="M967.227 1550.86 Q962.065 1550.86 960.074 1552.04 Q958.083 1553.22 958.083 1556.06 Q958.083 1558.33 959.565 1559.67 Q961.07 1560.99 963.639 1560.99 Q967.181 1560.99 969.31 1558.49 Q971.463 1555.97 971.463 1551.8 L971.463 1550.86 L967.227 1550.86 M975.722 1549.1 L975.722 1563.89 L971.463 1563.89 L971.463 1559.95 Q970.005 1562.31 967.829 1563.45 Q965.653 1564.56 962.505 1564.56 Q958.523 1564.56 956.162 1562.34 Q953.824 1560.09 953.824 1556.34 Q953.824 1551.97 956.741 1549.74 Q959.681 1547.52 965.491 1547.52 L971.463 1547.52 L971.463 1547.11 Q971.463 1544.17 969.519 1542.57 Q967.597 1540.95 964.102 1540.95 Q961.88 1540.95 959.773 1541.48 Q957.667 1542.01 955.722 1543.08 L955.722 1539.14 Q958.06 1538.24 960.259 1537.8 Q962.458 1537.34 964.542 1537.34 Q970.167 1537.34 972.944 1540.25 Q975.722 1543.17 975.722 1549.1 Z" fill="#000000" fill-rule="nonzero" fill-opacity="1" /><path clip-path="url(#clip710)" d="M1001.56 1541.9 L1001.56 1527.87 L1005.81 1527.87 L1005.81 1563.89 L1001.56 1563.89 L1001.56 1560 Q1000.21 1562.31 998.153 1563.45 Q996.116 1564.56 993.245 1564.56 Q988.546 1564.56 985.583 1560.81 Q982.643 1557.06 982.643 1550.95 Q982.643 1544.84 985.583 1541.09 Q988.546 1537.34 993.245 1537.34 Q996.116 1537.34 998.153 1538.47 Q1000.21 1539.58 1001.56 1541.9 M987.042 1550.95 Q987.042 1555.65 988.963 1558.33 Q990.907 1560.99 994.287 1560.99 Q997.667 1560.99 999.611 1558.33 Q1001.56 1555.65 1001.56 1550.95 Q1001.56 1546.25 999.611 1543.59 Q997.667 1540.9 994.287 1540.9 Q990.907 1540.9 988.963 1543.59 Q987.042 1546.25 987.042 1550.95 Z" fill="#000000" fill-rule="nonzero" fill-opacity="1" /><path clip-path="url(#clip710)" d="M1031.12 1538.73 L1031.12 1542.75 Q1029.31 1541.83 1027.37 1541.36 Q1025.42 1540.9 1023.34 1540.9 Q1020.17 1540.9 1018.57 1541.87 Q1017 1542.85 1017 1544.79 Q1017 1546.27 1018.13 1547.13 Q1019.26 1547.96 1022.69 1548.73 L1024.15 1549.05 Q1028.68 1550.02 1030.58 1551.8 Q1032.5 1553.56 1032.5 1556.74 Q1032.5 1560.35 1029.63 1562.45 Q1026.79 1564.56 1021.79 1564.56 Q1019.7 1564.56 1017.43 1564.14 Q1015.19 1563.75 1012.69 1562.94 L1012.69 1558.54 Q1015.05 1559.77 1017.34 1560.39 Q1019.63 1560.99 1021.88 1560.99 Q1024.89 1560.99 1026.51 1559.98 Q1028.13 1558.93 1028.13 1557.06 Q1028.13 1555.32 1026.95 1554.4 Q1025.79 1553.47 1021.83 1552.61 L1020.35 1552.27 Q1016.39 1551.43 1014.63 1549.72 Q1012.87 1547.99 1012.87 1544.98 Q1012.87 1541.32 1015.47 1539.33 Q1018.06 1537.34 1022.83 1537.34 Q1025.19 1537.34 1027.27 1537.68 Q1029.36 1538.03 1031.12 1538.73 Z" fill="#000000" fill-rule="nonzero" fill-opacity="1" /><path clip-path="url(#clip710)" d="M2500.82 1559.95 L2508.46 1559.95 L2508.46 1533.59 L2500.15 1535.25 L2500.15 1530.99 L2508.41 1529.33 L2513.09 1529.33 L2513.09 1559.95 L2520.73 1559.95 L2520.73 1563.89 L2500.82 1563.89 L2500.82 1559.95 Z" fill="#000000" fill-rule="nonzero" fill-opacity="1" /><path clip-path="url(#clip710)" d="M2548.85 1530.6 L2548.85 1537.96 L2557.63 1537.96 L2557.63 1541.27 L2548.85 1541.27 L2548.85 1555.35 Q2548.85 1558.52 2549.71 1559.42 Q2550.59 1560.32 2553.25 1560.32 L2557.63 1560.32 L2557.63 1563.89 L2553.25 1563.89 Q2548.32 1563.89 2546.45 1562.06 Q2544.57 1560.21 2544.57 1555.35 L2544.57 1541.27 L2541.45 1541.27 L2541.45 1537.96 L2544.57 1537.96 L2544.57 1530.6 L2548.85 1530.6 Z" fill="#000000" fill-rule="nonzero" fill-opacity="1" /><path clip-path="url(#clip710)" d="M2584.78 1548.24 L2584.78 1563.89 L2580.52 1563.89 L2580.52 1548.38 Q2580.52 1544.7 2579.08 1542.87 Q2577.65 1541.04 2574.78 1541.04 Q2571.33 1541.04 2569.34 1543.24 Q2567.35 1545.44 2567.35 1549.24 L2567.35 1563.89 L2563.07 1563.89 L2563.07 1527.87 L2567.35 1527.87 L2567.35 1541.99 Q2568.88 1539.65 2570.94 1538.49 Q2573.02 1537.34 2575.73 1537.34 Q2580.19 1537.34 2582.49 1540.11 Q2584.78 1542.87 2584.78 1548.24 Z" fill="#000000" fill-rule="nonzero" fill-opacity="1" /><path clip-path="url(#clip710)" d="M2608.3 1541.94 Q2607.58 1541.53 2606.72 1541.34 Q2605.89 1541.13 2604.87 1541.13 Q2601.26 1541.13 2599.32 1543.49 Q2597.39 1545.83 2597.39 1550.23 L2597.39 1563.89 L2593.11 1563.89 L2593.11 1537.96 L2597.39 1537.96 L2597.39 1541.99 Q2598.74 1539.63 2600.89 1538.49 Q2603.04 1537.34 2606.12 1537.34 Q2606.56 1537.34 2607.09 1537.41 Q2607.63 1537.45 2608.27 1537.57 L2608.3 1541.94 Z" fill="#000000" fill-rule="nonzero" fill-opacity="1" /><path clip-path="url(#clip710)" d="M2633.9 1549.86 L2633.9 1551.94 L2614.32 1551.94 Q2614.59 1556.34 2616.95 1558.66 Q2619.34 1560.95 2623.57 1560.95 Q2626.03 1560.95 2628.32 1560.35 Q2630.63 1559.74 2632.9 1558.54 L2632.9 1562.57 Q2630.61 1563.54 2628.2 1564.05 Q2625.8 1564.56 2623.32 1564.56 Q2617.12 1564.56 2613.48 1560.95 Q2609.87 1557.34 2609.87 1551.18 Q2609.87 1544.81 2613.3 1541.09 Q2616.75 1537.34 2622.58 1537.34 Q2627.81 1537.34 2630.84 1540.72 Q2633.9 1544.07 2633.9 1549.86 M2629.64 1548.61 Q2629.59 1545.11 2627.67 1543.03 Q2625.77 1540.95 2622.63 1540.95 Q2619.06 1540.95 2616.91 1542.96 Q2614.78 1544.98 2614.45 1548.63 L2629.64 1548.61 Z" fill="#000000" fill-rule="nonzero" fill-opacity="1" /><path clip-path="url(#clip710)" d="M2652.67 1550.86 Q2647.51 1550.86 2645.52 1552.04 Q2643.53 1553.22 2643.53 1556.06 Q2643.53 1558.33 2645.01 1559.67 Q2646.51 1560.99 2649.08 1560.99 Q2652.63 1560.99 2654.75 1558.49 Q2656.91 1555.97 2656.91 1551.8 L2656.91 1550.86 L2652.67 1550.86 M2661.17 1549.1 L2661.17 1563.89 L2656.91 1563.89 L2656.91 1559.95 Q2655.45 1562.31 2653.27 1563.45 Q2651.1 1564.56 2647.95 1564.56 Q2643.97 1564.56 2641.61 1562.34 Q2639.27 1560.09 2639.27 1556.34 Q2639.27 1551.97 2642.19 1549.74 Q2645.13 1547.52 2650.94 1547.52 L2656.91 1547.52 L2656.91 1547.11 Q2656.91 1544.17 2654.96 1542.57 Q2653.04 1540.95 2649.55 1540.95 Q2647.32 1540.95 2645.22 1541.48 Q2643.11 1542.01 2641.17 1543.08 L2641.17 1539.14 Q2643.5 1538.24 2645.7 1537.8 Q2647.9 1537.34 2649.99 1537.34 Q2655.61 1537.34 2658.39 1540.25 Q2661.17 1543.17 2661.17 1549.1 Z" fill="#000000" fill-rule="nonzero" fill-opacity="1" /><path clip-path="url(#clip710)" d="M2687 1541.9 L2687 1527.87 L2691.26 1527.87 L2691.26 1563.89 L2687 1563.89 L2687 1560 Q2685.66 1562.31 2683.6 1563.45 Q2681.56 1564.56 2678.69 1564.56 Q2673.99 1564.56 2671.03 1560.81 Q2668.09 1557.06 2668.09 1550.95 Q2668.09 1544.84 2671.03 1541.09 Q2673.99 1537.34 2678.69 1537.34 Q2681.56 1537.34 2683.6 1538.47 Q2685.66 1539.58 2687 1541.9 M2672.49 1550.95 Q2672.49 1555.65 2674.41 1558.33 Q2676.35 1560.99 2679.73 1560.99 Q2683.11 1560.99 2685.06 1558.33 Q2687 1555.65 2687 1550.95 Q2687 1546.25 2685.06 1543.59 Q2683.11 1540.9 2679.73 1540.9 Q2676.35 1540.9 2674.41 1543.59 Q2672.49 1546.25 2672.49 1550.95 Z" fill="#000000" fill-rule="nonzero" fill-opacity="1" /><polyline clip-path="url(#clip710)" style="stroke:#000000; stroke-linecap:round; stroke-linejoin:round; stroke-width:4; stroke-opacity:1; fill:none" points="365.106,1495.09 365.106,47.2441 "/>
<polyline clip-path="url(#clip710)" style="stroke:#000000; stroke-linecap:round; stroke-linejoin:round; stroke-width:4; stroke-opacity:1; fill:none" points="365.106,1366.13 384.003,1366.13 "/>
<polyline clip-path="url(#clip710)" style="stroke:#000000; stroke-linecap:round; stroke-linejoin:round; stroke-width:4; stroke-opacity:1; fill:none" points="365.106,1163.3 384.003,1163.3 "/>
<polyline clip-path="url(#clip710)" style="stroke:#000000; stroke-linecap:round; stroke-linejoin:round; stroke-width:4; stroke-opacity:1; fill:none" points="365.106,960.475 384.003,960.475 "/>
<polyline clip-path="url(#clip710)" style="stroke:#000000; stroke-linecap:round; stroke-linejoin:round; stroke-width:4; stroke-opacity:1; fill:none" points="365.106,757.648 384.003,757.648 "/>
<polyline clip-path="url(#clip710)" style="stroke:#000000; stroke-linecap:round; stroke-linejoin:round; stroke-width:4; stroke-opacity:1; fill:none" points="365.106,554.82 384.003,554.82 "/>
<polyline clip-path="url(#clip710)" style="stroke:#000000; stroke-linecap:round; stroke-linejoin:round; stroke-width:4; stroke-opacity:1; fill:none" points="365.106,351.992 384.003,351.992 "/>
<polyline clip-path="url(#clip710)" style="stroke:#000000; stroke-linecap:round; stroke-linejoin:round; stroke-width:4; stroke-opacity:1; fill:none" points="365.106,149.165 384.003,149.165 "/>
<path clip-path="url(#clip710)" d="M110.463 1373.45 Q107.13 1373.45 105.209 1375.23 Q103.311 1377.01 103.311 1380.14 Q103.311 1383.26 105.209 1385.04 Q107.13 1386.83 110.463 1386.83 Q113.797 1386.83 115.718 1385.04 Q117.639 1383.24 117.639 1380.14 Q117.639 1377.01 115.718 1375.23 Q113.82 1373.45 110.463 1373.45 M105.788 1371.46 Q102.778 1370.72 101.088 1368.65 Q99.4218 1366.59 99.4218 1363.63 Q99.4218 1359.49 102.362 1357.08 Q105.325 1354.67 110.463 1354.67 Q115.625 1354.67 118.565 1357.08 Q121.505 1359.49 121.505 1363.63 Q121.505 1366.59 119.815 1368.65 Q118.149 1370.72 115.162 1371.46 Q118.542 1372.24 120.417 1374.53 Q122.315 1376.83 122.315 1380.14 Q122.315 1385.16 119.237 1387.84 Q116.181 1390.53 110.463 1390.53 Q104.746 1390.53 101.667 1387.84 Q98.6116 1385.16 98.6116 1380.14 Q98.6116 1376.83 100.51 1374.53 Q102.408 1372.24 105.788 1371.46 M104.075 1364.07 Q104.075 1366.76 105.741 1368.26 Q107.431 1369.77 110.463 1369.77 Q113.473 1369.77 115.162 1368.26 Q116.875 1366.76 116.875 1364.07 Q116.875 1361.39 115.162 1359.88 Q113.473 1358.38 110.463 1358.38 Q107.431 1358.38 105.741 1359.88 Q104.075 1361.39 104.075 1364.07 Z" fill="#000000" fill-rule="nonzero" fill-opacity="1" /><path clip-path="url(#clip710)" d="M130.625 1383.98 L135.51 1383.98 L135.51 1389.86 L130.625 1389.86 L130.625 1383.98 Z" fill="#000000" fill-rule="nonzero" fill-opacity="1" /><path clip-path="url(#clip710)" d="M155.695 1358.38 Q152.084 1358.38 150.255 1361.94 Q148.449 1365.48 148.449 1372.61 Q148.449 1379.72 150.255 1383.28 Q152.084 1386.83 155.695 1386.83 Q159.329 1386.83 161.134 1383.28 Q162.963 1379.72 162.963 1372.61 Q162.963 1365.48 161.134 1361.94 Q159.329 1358.38 155.695 1358.38 M155.695 1354.67 Q161.505 1354.67 164.56 1359.28 Q167.639 1363.86 167.639 1372.61 Q167.639 1381.34 164.56 1385.95 Q161.505 1390.53 155.695 1390.53 Q149.885 1390.53 146.806 1385.95 Q143.75 1381.34 143.75 1372.61 Q143.75 1363.86 146.806 1359.28 Q149.885 1354.67 155.695 1354.67 Z" fill="#000000" fill-rule="nonzero" fill-opacity="1" /><path clip-path="url(#clip710)" d="M185.857 1358.38 Q182.245 1358.38 180.417 1361.94 Q178.611 1365.48 178.611 1372.61 Q178.611 1379.72 180.417 1383.28 Q182.245 1386.83 185.857 1386.83 Q189.491 1386.83 191.296 1383.28 Q193.125 1379.72 193.125 1372.61 Q193.125 1365.48 191.296 1361.94 Q189.491 1358.38 185.857 1358.38 M185.857 1354.67 Q191.667 1354.67 194.722 1359.28 Q197.801 1363.86 197.801 1372.61 Q197.801 1381.34 194.722 1385.95 Q191.667 1390.53 185.857 1390.53 Q180.046 1390.53 176.968 1385.95 Q173.912 1381.34 173.912 1372.61 Q173.912 1363.86 176.968 1359.28 Q180.046 1354.67 185.857 1354.67 Z" fill="#000000" fill-rule="nonzero" fill-opacity="1" /><path clip-path="url(#clip710)" d="M234.19 1364.4 L223.611 1375.02 L234.19 1385.6 L231.435 1388.4 L220.81 1377.78 L210.185 1388.4 L207.454 1385.6 L218.009 1375.02 L207.454 1364.4 L210.185 1361.59 L220.81 1372.22 L231.435 1361.59 L234.19 1364.4 Z" fill="#000000" fill-rule="nonzero" fill-opacity="1" /><path clip-path="url(#clip710)" d="M246.551 1385.92 L254.19 1385.92 L254.19 1359.56 L245.879 1361.22 L245.879 1356.97 L254.143 1355.3 L258.819 1355.3 L258.819 1385.92 L266.458 1385.92 L266.458 1389.86 L246.551 1389.86 L246.551 1385.92 Z" fill="#000000" fill-rule="nonzero" fill-opacity="1" /><path clip-path="url(#clip710)" d="M285.902 1358.38 Q282.291 1358.38 280.463 1361.94 Q278.657 1365.48 278.657 1372.61 Q278.657 1379.72 280.463 1383.28 Q282.291 1386.83 285.902 1386.83 Q289.537 1386.83 291.342 1383.28 Q293.171 1379.72 293.171 1372.61 Q293.171 1365.48 291.342 1361.94 Q289.537 1358.38 285.902 1358.38 M285.902 1354.67 Q291.712 1354.67 294.768 1359.28 Q297.847 1363.86 297.847 1372.61 Q297.847 1381.34 294.768 1385.95 Q291.712 1390.53 285.902 1390.53 Q280.092 1390.53 277.013 1385.95 Q273.958 1381.34 273.958 1372.61 Q273.958 1363.86 277.013 1359.28 Q280.092 1354.67 285.902 1354.67 Z" fill="#000000" fill-rule="nonzero" fill-opacity="1" /><path clip-path="url(#clip710)" d="M307.476 1349.11 Q304.768 1349.11 303.207 1350.56 Q301.665 1352.01 301.665 1354.55 Q301.665 1357.09 303.207 1358.54 Q304.768 1359.98 307.476 1359.98 Q310.185 1359.98 311.746 1358.54 Q313.307 1357.07 313.307 1354.55 Q313.307 1352.01 311.746 1350.56 Q310.203 1349.11 307.476 1349.11 M303.677 1347.5 Q301.232 1346.89 299.859 1345.22 Q298.505 1343.55 298.505 1341.14 Q298.505 1337.77 300.894 1335.82 Q303.301 1333.86 307.476 1333.86 Q311.67 1333.86 314.059 1335.82 Q316.448 1337.77 316.448 1341.14 Q316.448 1343.55 315.075 1345.22 Q313.72 1346.89 311.294 1347.5 Q314.04 1348.14 315.564 1350 Q317.106 1351.86 317.106 1354.55 Q317.106 1358.63 314.604 1360.81 Q312.122 1362.99 307.476 1362.99 Q302.831 1362.99 300.329 1360.81 Q297.847 1358.63 297.847 1354.55 Q297.847 1351.86 299.389 1350 Q300.931 1348.14 303.677 1347.5 M302.285 1341.5 Q302.285 1343.68 303.639 1344.9 Q305.012 1346.12 307.476 1346.12 Q309.921 1346.12 311.294 1344.9 Q312.686 1343.68 312.686 1341.5 Q312.686 1339.31 311.294 1338.09 Q309.921 1336.87 307.476 1336.87 Q305.012 1336.87 303.639 1338.09 Q302.285 1339.31 302.285 1341.5 Z" fill="#000000" fill-rule="nonzero" fill-opacity="1" /><path clip-path="url(#clip710)" d="M100.602 1186.31 L100.602 1182.05 Q102.362 1182.89 104.167 1183.33 Q105.973 1183.77 107.709 1183.77 Q112.338 1183.77 114.769 1180.67 Q117.223 1177.54 117.57 1171.2 Q116.227 1173.19 114.167 1174.25 Q112.107 1175.32 109.607 1175.32 Q104.422 1175.32 101.389 1172.19 Q98.3802 1169.04 98.3802 1163.6 Q98.3802 1158.28 101.528 1155.06 Q104.676 1151.85 109.908 1151.85 Q115.903 1151.85 119.051 1156.45 Q122.223 1161.04 122.223 1169.79 Q122.223 1177.96 118.334 1182.84 Q114.468 1187.7 107.917 1187.7 Q106.158 1187.7 104.352 1187.35 Q102.547 1187.01 100.602 1186.31 M109.908 1171.66 Q113.056 1171.66 114.885 1169.51 Q116.737 1167.35 116.737 1163.6 Q116.737 1159.88 114.885 1157.73 Q113.056 1155.55 109.908 1155.55 Q106.76 1155.55 104.908 1157.73 Q103.079 1159.88 103.079 1163.6 Q103.079 1167.35 104.908 1169.51 Q106.76 1171.66 109.908 1171.66 Z" fill="#000000" fill-rule="nonzero" fill-opacity="1" /><path clip-path="url(#clip710)" d="M130.625 1181.15 L135.51 1181.15 L135.51 1187.03 L130.625 1187.03 L130.625 1181.15 Z" fill="#000000" fill-rule="nonzero" fill-opacity="1" /><path clip-path="url(#clip710)" d="M155.695 1155.55 Q152.084 1155.55 150.255 1159.11 Q148.449 1162.66 148.449 1169.79 Q148.449 1176.89 150.255 1180.46 Q152.084 1184 155.695 1184 Q159.329 1184 161.134 1180.46 Q162.963 1176.89 162.963 1169.79 Q162.963 1162.66 161.134 1159.11 Q159.329 1155.55 155.695 1155.55 M155.695 1151.85 Q161.505 1151.85 164.56 1156.45 Q167.639 1161.04 167.639 1169.79 Q167.639 1178.51 164.56 1183.12 Q161.505 1187.7 155.695 1187.7 Q149.885 1187.7 146.806 1183.12 Q143.75 1178.51 143.75 1169.79 Q143.75 1161.04 146.806 1156.45 Q149.885 1151.85 155.695 1151.85 Z" fill="#000000" fill-rule="nonzero" fill-opacity="1" /><path clip-path="url(#clip710)" d="M185.857 1155.55 Q182.245 1155.55 180.417 1159.11 Q178.611 1162.66 178.611 1169.79 Q178.611 1176.89 180.417 1180.46 Q182.245 1184 185.857 1184 Q189.491 1184 191.296 1180.46 Q193.125 1176.89 193.125 1169.79 Q193.125 1162.66 191.296 1159.11 Q189.491 1155.55 185.857 1155.55 M185.857 1151.85 Q191.667 1151.85 194.722 1156.45 Q197.801 1161.04 197.801 1169.79 Q197.801 1178.51 194.722 1183.12 Q191.667 1187.7 185.857 1187.7 Q180.046 1187.7 176.968 1183.12 Q173.912 1178.51 173.912 1169.79 Q173.912 1161.04 176.968 1156.45 Q180.046 1151.85 185.857 1151.85 Z" fill="#000000" fill-rule="nonzero" fill-opacity="1" /><path clip-path="url(#clip710)" d="M234.19 1161.57 L223.611 1172.19 L234.19 1182.77 L231.435 1185.57 L220.81 1174.95 L210.185 1185.57 L207.454 1182.77 L218.009 1172.19 L207.454 1161.57 L210.185 1158.77 L220.81 1169.39 L231.435 1158.77 L234.19 1161.57 Z" fill="#000000" fill-rule="nonzero" fill-opacity="1" /><path clip-path="url(#clip710)" d="M246.551 1183.1 L254.19 1183.1 L254.19 1156.73 L245.879 1158.4 L245.879 1154.14 L254.143 1152.47 L258.819 1152.47 L258.819 1183.1 L266.458 1183.1 L266.458 1187.03 L246.551 1187.03 L246.551 1183.1 Z" fill="#000000" fill-rule="nonzero" fill-opacity="1" /><path clip-path="url(#clip710)" d="M285.902 1155.55 Q282.291 1155.55 280.463 1159.11 Q278.657 1162.66 278.657 1169.79 Q278.657 1176.89 280.463 1180.46 Q282.291 1184 285.902 1184 Q289.537 1184 291.342 1180.46 Q293.171 1176.89 293.171 1169.79 Q293.171 1162.66 291.342 1159.11 Q289.537 1155.55 285.902 1155.55 M285.902 1151.85 Q291.712 1151.85 294.768 1156.45 Q297.847 1161.04 297.847 1169.79 Q297.847 1178.51 294.768 1183.12 Q291.712 1187.7 285.902 1187.7 Q280.092 1187.7 277.013 1183.12 Q273.958 1178.51 273.958 1169.79 Q273.958 1161.04 277.013 1156.45 Q280.092 1151.85 285.902 1151.85 Z" fill="#000000" fill-rule="nonzero" fill-opacity="1" /><path clip-path="url(#clip710)" d="M307.476 1146.29 Q304.768 1146.29 303.207 1147.73 Q301.665 1149.18 301.665 1151.72 Q301.665 1154.26 303.207 1155.71 Q304.768 1157.16 307.476 1157.16 Q310.185 1157.16 311.746 1155.71 Q313.307 1154.24 313.307 1151.72 Q313.307 1149.18 311.746 1147.73 Q310.203 1146.29 307.476 1146.29 M303.677 1144.67 Q301.232 1144.07 299.859 1142.39 Q298.505 1140.72 298.505 1138.31 Q298.505 1134.94 300.894 1132.99 Q303.301 1131.03 307.476 1131.03 Q311.67 1131.03 314.059 1132.99 Q316.448 1134.94 316.448 1138.31 Q316.448 1140.72 315.075 1142.39 Q313.72 1144.07 311.294 1144.67 Q314.04 1145.31 315.564 1147.17 Q317.106 1149.03 317.106 1151.72 Q317.106 1155.8 314.604 1157.98 Q312.122 1160.17 307.476 1160.17 Q302.831 1160.17 300.329 1157.98 Q297.847 1155.8 297.847 1151.72 Q297.847 1149.03 299.389 1147.17 Q300.931 1145.31 303.677 1144.67 M302.285 1138.67 Q302.285 1140.85 303.639 1142.07 Q305.012 1143.3 307.476 1143.3 Q309.921 1143.3 311.294 1142.07 Q312.686 1140.85 312.686 1138.67 Q312.686 1136.49 311.294 1135.26 Q309.921 1134.04 307.476 1134.04 Q305.012 1134.04 303.639 1135.26 Q302.285 1136.49 302.285 1138.67 Z" fill="#000000" fill-rule="nonzero" fill-opacity="1" /><path clip-path="url(#clip710)" d="M101.161 980.268 L108.8 980.268 L108.8 953.902 L100.49 955.569 L100.49 951.31 L108.753 949.643 L113.429 949.643 L113.429 980.268 L121.068 980.268 L121.068 984.203 L101.161 984.203 L101.161 980.268 Z" fill="#000000" fill-rule="nonzero" fill-opacity="1" /><path clip-path="url(#clip710)" d="M130.513 978.323 L135.397 978.323 L135.397 984.203 L130.513 984.203 L130.513 978.323 Z" fill="#000000" fill-rule="nonzero" fill-opacity="1" /><path clip-path="url(#clip710)" d="M155.582 952.722 Q151.971 952.722 150.142 956.287 Q148.336 959.828 148.336 966.958 Q148.336 974.064 150.142 977.629 Q151.971 981.171 155.582 981.171 Q159.216 981.171 161.022 977.629 Q162.85 974.064 162.85 966.958 Q162.85 959.828 161.022 956.287 Q159.216 952.722 155.582 952.722 M155.582 949.018 Q161.392 949.018 164.448 953.625 Q167.526 958.208 167.526 966.958 Q167.526 975.685 164.448 980.291 Q161.392 984.874 155.582 984.874 Q149.772 984.874 146.693 980.291 Q143.637 975.685 143.637 966.958 Q143.637 958.208 146.693 953.625 Q149.772 949.018 155.582 949.018 Z" fill="#000000" fill-rule="nonzero" fill-opacity="1" /><path clip-path="url(#clip710)" d="M185.744 952.722 Q182.133 952.722 180.304 956.287 Q178.498 959.828 178.498 966.958 Q178.498 974.064 180.304 977.629 Q182.133 981.171 185.744 981.171 Q189.378 981.171 191.183 977.629 Q193.012 974.064 193.012 966.958 Q193.012 959.828 191.183 956.287 Q189.378 952.722 185.744 952.722 M185.744 949.018 Q191.554 949.018 194.609 953.625 Q197.688 958.208 197.688 966.958 Q197.688 975.685 194.609 980.291 Q191.554 984.874 185.744 984.874 Q179.934 984.874 176.855 980.291 Q173.799 975.685 173.799 966.958 Q173.799 958.208 176.855 953.625 Q179.934 949.018 185.744 949.018 Z" fill="#000000" fill-rule="nonzero" fill-opacity="1" /><path clip-path="url(#clip710)" d="M234.077 958.74 L223.498 969.365 L234.077 979.944 L231.322 982.745 L220.697 972.12 L210.072 982.745 L207.341 979.944 L217.896 969.365 L207.341 958.74 L210.072 955.939 L220.697 966.564 L231.322 955.939 L234.077 958.74 Z" fill="#000000" fill-rule="nonzero" fill-opacity="1" /><path clip-path="url(#clip710)" d="M246.438 980.268 L254.077 980.268 L254.077 953.902 L245.767 955.569 L245.767 951.31 L254.03 949.643 L258.706 949.643 L258.706 980.268 L266.345 980.268 L266.345 984.203 L246.438 984.203 L246.438 980.268 Z" fill="#000000" fill-rule="nonzero" fill-opacity="1" /><path clip-path="url(#clip710)" d="M285.789 952.722 Q282.178 952.722 280.35 956.287 Q278.544 959.828 278.544 966.958 Q278.544 974.064 280.35 977.629 Q282.178 981.171 285.789 981.171 Q289.424 981.171 291.229 977.629 Q293.058 974.064 293.058 966.958 Q293.058 959.828 291.229 956.287 Q289.424 952.722 285.789 952.722 M285.789 949.018 Q291.6 949.018 294.655 953.625 Q297.734 958.208 297.734 966.958 Q297.734 975.685 294.655 980.291 Q291.6 984.874 285.789 984.874 Q279.979 984.874 276.901 980.291 Q273.845 975.685 273.845 966.958 Q273.845 958.208 276.901 953.625 Q279.979 949.018 285.789 949.018 Z" fill="#000000" fill-rule="nonzero" fill-opacity="1" /><path clip-path="url(#clip710)" d="M299.539 956.21 L299.539 952.749 Q300.969 953.426 302.436 953.783 Q303.903 954.141 305.313 954.141 Q309.075 954.141 311.05 951.621 Q313.043 949.081 313.325 943.928 Q312.235 945.546 310.561 946.411 Q308.887 947.276 306.856 947.276 Q302.643 947.276 300.179 944.737 Q297.734 942.179 297.734 937.759 Q297.734 933.433 300.292 930.819 Q302.85 928.205 307.1 928.205 Q311.971 928.205 314.529 931.948 Q317.106 935.672 317.106 942.781 Q317.106 949.42 313.946 953.388 Q310.805 957.338 305.483 957.338 Q304.053 957.338 302.586 957.056 Q301.119 956.774 299.539 956.21 M307.1 944.304 Q309.658 944.304 311.144 942.555 Q312.648 940.806 312.648 937.759 Q312.648 934.731 311.144 932.982 Q309.658 931.214 307.1 931.214 Q304.542 931.214 303.038 932.982 Q301.552 934.731 301.552 937.759 Q301.552 940.806 303.038 942.555 Q304.542 944.304 307.1 944.304 Z" fill="#000000" fill-rule="nonzero" fill-opacity="1" /><path clip-path="url(#clip710)" d="M101.161 777.44 L108.8 777.44 L108.8 751.075 L100.49 752.741 L100.49 748.482 L108.753 746.815 L113.429 746.815 L113.429 777.44 L121.068 777.44 L121.068 781.375 L101.161 781.375 L101.161 777.44 Z" fill="#000000" fill-rule="nonzero" fill-opacity="1" /><path clip-path="url(#clip710)" d="M130.513 775.496 L135.397 775.496 L135.397 781.375 L130.513 781.375 L130.513 775.496 Z" fill="#000000" fill-rule="nonzero" fill-opacity="1" /><path clip-path="url(#clip710)" d="M146.392 777.44 L154.031 777.44 L154.031 751.075 L145.721 752.741 L145.721 748.482 L153.985 746.815 L158.661 746.815 L158.661 777.44 L166.299 777.44 L166.299 781.375 L146.392 781.375 L146.392 777.44 Z" fill="#000000" fill-rule="nonzero" fill-opacity="1" /><path clip-path="url(#clip710)" d="M185.744 749.894 Q182.133 749.894 180.304 753.459 Q178.498 757 178.498 764.13 Q178.498 771.237 180.304 774.801 Q182.133 778.343 185.744 778.343 Q189.378 778.343 191.183 774.801 Q193.012 771.237 193.012 764.13 Q193.012 757 191.183 753.459 Q189.378 749.894 185.744 749.894 M185.744 746.19 Q191.554 746.19 194.609 750.797 Q197.688 755.38 197.688 764.13 Q197.688 772.857 194.609 777.463 Q191.554 782.047 185.744 782.047 Q179.934 782.047 176.855 777.463 Q173.799 772.857 173.799 764.13 Q173.799 755.38 176.855 750.797 Q179.934 746.19 185.744 746.19 Z" fill="#000000" fill-rule="nonzero" fill-opacity="1" /><path clip-path="url(#clip710)" d="M234.077 755.913 L223.498 766.537 L234.077 777.116 L231.322 779.917 L220.697 769.292 L210.072 779.917 L207.341 777.116 L217.896 766.537 L207.341 755.913 L210.072 753.112 L220.697 763.737 L231.322 753.112 L234.077 755.913 Z" fill="#000000" fill-rule="nonzero" fill-opacity="1" /><path clip-path="url(#clip710)" d="M246.438 777.44 L254.077 777.44 L254.077 751.075 L245.767 752.741 L245.767 748.482 L254.03 746.815 L258.706 746.815 L258.706 777.44 L266.345 777.44 L266.345 781.375 L246.438 781.375 L246.438 777.44 Z" fill="#000000" fill-rule="nonzero" fill-opacity="1" /><path clip-path="url(#clip710)" d="M285.789 749.894 Q282.178 749.894 280.35 753.459 Q278.544 757 278.544 764.13 Q278.544 771.237 280.35 774.801 Q282.178 778.343 285.789 778.343 Q289.424 778.343 291.229 774.801 Q293.058 771.237 293.058 764.13 Q293.058 757 291.229 753.459 Q289.424 749.894 285.789 749.894 M285.789 746.19 Q291.6 746.19 294.655 750.797 Q297.734 755.38 297.734 764.13 Q297.734 772.857 294.655 777.463 Q291.6 782.047 285.789 782.047 Q279.979 782.047 276.901 777.463 Q273.845 772.857 273.845 764.13 Q273.845 755.38 276.901 750.797 Q279.979 746.19 285.789 746.19 Z" fill="#000000" fill-rule="nonzero" fill-opacity="1" /><path clip-path="url(#clip710)" d="M299.539 753.382 L299.539 749.921 Q300.969 750.598 302.436 750.956 Q303.903 751.313 305.313 751.313 Q309.075 751.313 311.05 748.793 Q313.043 746.254 313.325 741.1 Q312.235 742.718 310.561 743.583 Q308.887 744.448 306.856 744.448 Q302.643 744.448 300.179 741.909 Q297.734 739.351 297.734 734.931 Q297.734 730.606 300.292 727.991 Q302.85 725.377 307.1 725.377 Q311.971 725.377 314.529 729.12 Q317.106 732.844 317.106 739.953 Q317.106 746.592 313.946 750.561 Q310.805 754.51 305.483 754.51 Q304.053 754.51 302.586 754.228 Q301.119 753.946 299.539 753.382 M307.1 741.477 Q309.658 741.477 311.144 739.727 Q312.648 737.978 312.648 734.931 Q312.648 731.903 311.144 730.154 Q309.658 728.386 307.1 728.386 Q304.542 728.386 303.038 730.154 Q301.552 731.903 301.552 734.931 Q301.552 737.978 303.038 739.727 Q304.542 741.477 307.1 741.477 Z" fill="#000000" fill-rule="nonzero" fill-opacity="1" /><path clip-path="url(#clip710)" d="M101.161 574.612 L108.8 574.612 L108.8 548.247 L100.49 549.914 L100.49 545.654 L108.753 543.988 L113.429 543.988 L113.429 574.612 L121.068 574.612 L121.068 578.548 L101.161 578.548 L101.161 574.612 Z" fill="#000000" fill-rule="nonzero" fill-opacity="1" /><path clip-path="url(#clip710)" d="M130.513 572.668 L135.397 572.668 L135.397 578.548 L130.513 578.548 L130.513 572.668 Z" fill="#000000" fill-rule="nonzero" fill-opacity="1" /><path clip-path="url(#clip710)" d="M149.61 574.612 L165.929 574.612 L165.929 578.548 L143.985 578.548 L143.985 574.612 Q146.647 571.858 151.23 567.228 Q155.836 562.576 157.017 561.233 Q159.262 558.71 160.142 556.974 Q161.045 555.214 161.045 553.525 Q161.045 550.77 159.1 549.034 Q157.179 547.298 154.077 547.298 Q151.878 547.298 149.424 548.062 Q146.994 548.826 144.216 550.377 L144.216 545.654 Q147.04 544.52 149.494 543.941 Q151.948 543.363 153.985 543.363 Q159.355 543.363 162.549 546.048 Q165.744 548.733 165.744 553.224 Q165.744 555.353 164.934 557.275 Q164.147 559.173 162.04 561.765 Q161.461 562.437 158.36 565.654 Q155.258 568.849 149.61 574.612 Z" fill="#000000" fill-rule="nonzero" fill-opacity="1" /><path clip-path="url(#clip710)" d="M185.744 547.066 Q182.133 547.066 180.304 550.631 Q178.498 554.173 178.498 561.302 Q178.498 568.409 180.304 571.974 Q182.133 575.515 185.744 575.515 Q189.378 575.515 191.183 571.974 Q193.012 568.409 193.012 561.302 Q193.012 554.173 191.183 550.631 Q189.378 547.066 185.744 547.066 M185.744 543.363 Q191.554 543.363 194.609 547.969 Q197.688 552.552 197.688 561.302 Q197.688 570.029 194.609 574.636 Q191.554 579.219 185.744 579.219 Q179.934 579.219 176.855 574.636 Q173.799 570.029 173.799 561.302 Q173.799 552.552 176.855 547.969 Q179.934 543.363 185.744 543.363 Z" fill="#000000" fill-rule="nonzero" fill-opacity="1" /><path clip-path="url(#clip710)" d="M234.077 553.085 L223.498 563.71 L234.077 574.288 L231.322 577.089 L220.697 566.464 L210.072 577.089 L207.341 574.288 L217.896 563.71 L207.341 553.085 L210.072 550.284 L220.697 560.909 L231.322 550.284 L234.077 553.085 Z" fill="#000000" fill-rule="nonzero" fill-opacity="1" /><path clip-path="url(#clip710)" d="M246.438 574.612 L254.077 574.612 L254.077 548.247 L245.767 549.914 L245.767 545.654 L254.03 543.988 L258.706 543.988 L258.706 574.612 L266.345 574.612 L266.345 578.548 L246.438 578.548 L246.438 574.612 Z" fill="#000000" fill-rule="nonzero" fill-opacity="1" /><path clip-path="url(#clip710)" d="M285.789 547.066 Q282.178 547.066 280.35 550.631 Q278.544 554.173 278.544 561.302 Q278.544 568.409 280.35 571.974 Q282.178 575.515 285.789 575.515 Q289.424 575.515 291.229 571.974 Q293.058 568.409 293.058 561.302 Q293.058 554.173 291.229 550.631 Q289.424 547.066 285.789 547.066 M285.789 543.363 Q291.6 543.363 294.655 547.969 Q297.734 552.552 297.734 561.302 Q297.734 570.029 294.655 574.636 Q291.6 579.219 285.789 579.219 Q279.979 579.219 276.901 574.636 Q273.845 570.029 273.845 561.302 Q273.845 552.552 276.901 547.969 Q279.979 543.363 285.789 543.363 Z" fill="#000000" fill-rule="nonzero" fill-opacity="1" /><path clip-path="url(#clip710)" d="M299.539 550.554 L299.539 547.094 Q300.969 547.771 302.436 548.128 Q303.903 548.485 305.313 548.485 Q309.075 548.485 311.05 545.965 Q313.043 543.426 313.325 538.273 Q312.235 539.89 310.561 540.755 Q308.887 541.621 306.856 541.621 Q302.643 541.621 300.179 539.081 Q297.734 536.524 297.734 532.104 Q297.734 527.778 300.292 525.164 Q302.85 522.549 307.1 522.549 Q311.971 522.549 314.529 526.292 Q317.106 530.016 317.106 537.125 Q317.106 543.765 313.946 547.733 Q310.805 551.683 305.483 551.683 Q304.053 551.683 302.586 551.401 Q301.119 551.118 299.539 550.554 M307.1 538.649 Q309.658 538.649 311.144 536.9 Q312.648 535.151 312.648 532.104 Q312.648 529.076 311.144 527.327 Q309.658 525.559 307.1 525.559 Q304.542 525.559 303.038 527.327 Q301.552 529.076 301.552 532.104 Q301.552 535.151 303.038 536.9 Q304.542 538.649 307.1 538.649 Z" fill="#000000" fill-rule="nonzero" fill-opacity="1" /><path clip-path="url(#clip710)" d="M101.161 371.785 L108.8 371.785 L108.8 345.419 L100.49 347.086 L100.49 342.827 L108.753 341.16 L113.429 341.16 L113.429 371.785 L121.068 371.785 L121.068 375.72 L101.161 375.72 L101.161 371.785 Z" fill="#000000" fill-rule="nonzero" fill-opacity="1" /><path clip-path="url(#clip710)" d="M130.513 369.84 L135.397 369.84 L135.397 375.72 L130.513 375.72 L130.513 369.84 Z" fill="#000000" fill-rule="nonzero" fill-opacity="1" /><path clip-path="url(#clip710)" d="M159.748 357.086 Q163.105 357.803 164.98 360.072 Q166.878 362.34 166.878 365.674 Q166.878 370.789 163.36 373.59 Q159.841 376.391 153.36 376.391 Q151.184 376.391 148.869 375.951 Q146.577 375.535 144.124 374.678 L144.124 370.164 Q146.068 371.299 148.383 371.877 Q150.698 372.456 153.221 372.456 Q157.619 372.456 159.91 370.72 Q162.225 368.984 162.225 365.674 Q162.225 362.618 160.073 360.905 Q157.943 359.169 154.123 359.169 L150.096 359.169 L150.096 355.327 L154.309 355.327 Q157.758 355.327 159.586 353.961 Q161.415 352.572 161.415 349.979 Q161.415 347.317 159.517 345.905 Q157.642 344.47 154.123 344.47 Q152.202 344.47 150.003 344.887 Q147.804 345.303 145.165 346.183 L145.165 342.016 Q147.827 341.276 150.142 340.905 Q152.48 340.535 154.54 340.535 Q159.864 340.535 162.966 342.965 Q166.068 345.373 166.068 349.493 Q166.068 352.364 164.424 354.354 Q162.781 356.322 159.748 357.086 Z" fill="#000000" fill-rule="nonzero" fill-opacity="1" /><path clip-path="url(#clip710)" d="M185.744 344.239 Q182.133 344.239 180.304 347.803 Q178.498 351.345 178.498 358.475 Q178.498 365.581 180.304 369.146 Q182.133 372.688 185.744 372.688 Q189.378 372.688 191.183 369.146 Q193.012 365.581 193.012 358.475 Q193.012 351.345 191.183 347.803 Q189.378 344.239 185.744 344.239 M185.744 340.535 Q191.554 340.535 194.609 345.141 Q197.688 349.725 197.688 358.475 Q197.688 367.201 194.609 371.808 Q191.554 376.391 185.744 376.391 Q179.934 376.391 176.855 371.808 Q173.799 367.201 173.799 358.475 Q173.799 349.725 176.855 345.141 Q179.934 340.535 185.744 340.535 Z" fill="#000000" fill-rule="nonzero" fill-opacity="1" /><path clip-path="url(#clip710)" d="M234.077 350.257 L223.498 360.882 L234.077 371.461 L231.322 374.262 L220.697 363.637 L210.072 374.262 L207.341 371.461 L217.896 360.882 L207.341 350.257 L210.072 347.456 L220.697 358.081 L231.322 347.456 L234.077 350.257 Z" fill="#000000" fill-rule="nonzero" fill-opacity="1" /><path clip-path="url(#clip710)" d="M246.438 371.785 L254.077 371.785 L254.077 345.419 L245.767 347.086 L245.767 342.827 L254.03 341.16 L258.706 341.16 L258.706 371.785 L266.345 371.785 L266.345 375.72 L246.438 375.72 L246.438 371.785 Z" fill="#000000" fill-rule="nonzero" fill-opacity="1" /><path clip-path="url(#clip710)" d="M285.789 344.239 Q282.178 344.239 280.35 347.803 Q278.544 351.345 278.544 358.475 Q278.544 365.581 280.35 369.146 Q282.178 372.688 285.789 372.688 Q289.424 372.688 291.229 369.146 Q293.058 365.581 293.058 358.475 Q293.058 351.345 291.229 347.803 Q289.424 344.239 285.789 344.239 M285.789 340.535 Q291.6 340.535 294.655 345.141 Q297.734 349.725 297.734 358.475 Q297.734 367.201 294.655 371.808 Q291.6 376.391 285.789 376.391 Q279.979 376.391 276.901 371.808 Q273.845 367.201 273.845 358.475 Q273.845 349.725 276.901 345.141 Q279.979 340.535 285.789 340.535 Z" fill="#000000" fill-rule="nonzero" fill-opacity="1" /><path clip-path="url(#clip710)" d="M299.539 347.727 L299.539 344.266 Q300.969 344.943 302.436 345.3 Q303.903 345.658 305.313 345.658 Q309.075 345.658 311.05 343.137 Q313.043 340.598 313.325 335.445 Q312.235 337.063 310.561 337.928 Q308.887 338.793 306.856 338.793 Q302.643 338.793 300.179 336.254 Q297.734 333.696 297.734 329.276 Q297.734 324.95 300.292 322.336 Q302.85 319.722 307.1 319.722 Q311.971 319.722 314.529 323.464 Q317.106 327.188 317.106 334.298 Q317.106 340.937 313.946 344.905 Q310.805 348.855 305.483 348.855 Q304.053 348.855 302.586 348.573 Q301.119 348.291 299.539 347.727 M307.1 335.821 Q309.658 335.821 311.144 334.072 Q312.648 332.323 312.648 329.276 Q312.648 326.248 311.144 324.499 Q309.658 322.731 307.1 322.731 Q304.542 322.731 303.038 324.499 Q301.552 326.248 301.552 329.276 Q301.552 332.323 303.038 334.072 Q304.542 335.821 307.1 335.821 Z" fill="#000000" fill-rule="nonzero" fill-opacity="1" /><path clip-path="url(#clip710)" d="M101.161 168.957 L108.8 168.957 L108.8 142.591 L100.49 144.258 L100.49 139.999 L108.753 138.332 L113.429 138.332 L113.429 168.957 L121.068 168.957 L121.068 172.892 L101.161 172.892 L101.161 168.957 Z" fill="#000000" fill-rule="nonzero" fill-opacity="1" /><path clip-path="url(#clip710)" d="M130.513 167.013 L135.397 167.013 L135.397 172.892 L130.513 172.892 L130.513 167.013 Z" fill="#000000" fill-rule="nonzero" fill-opacity="1" /><path clip-path="url(#clip710)" d="M158.429 142.406 L146.624 160.855 L158.429 160.855 L158.429 142.406 M157.202 138.332 L163.082 138.332 L163.082 160.855 L168.012 160.855 L168.012 164.744 L163.082 164.744 L163.082 172.892 L158.429 172.892 L158.429 164.744 L142.827 164.744 L142.827 160.23 L157.202 138.332 Z" fill="#000000" fill-rule="nonzero" fill-opacity="1" /><path clip-path="url(#clip710)" d="M185.744 141.411 Q182.133 141.411 180.304 144.976 Q178.498 148.517 178.498 155.647 Q178.498 162.753 180.304 166.318 Q182.133 169.86 185.744 169.86 Q189.378 169.86 191.183 166.318 Q193.012 162.753 193.012 155.647 Q193.012 148.517 191.183 144.976 Q189.378 141.411 185.744 141.411 M185.744 137.707 Q191.554 137.707 194.609 142.314 Q197.688 146.897 197.688 155.647 Q197.688 164.374 194.609 168.98 Q191.554 173.564 185.744 173.564 Q179.934 173.564 176.855 168.98 Q173.799 164.374 173.799 155.647 Q173.799 146.897 176.855 142.314 Q179.934 137.707 185.744 137.707 Z" fill="#000000" fill-rule="nonzero" fill-opacity="1" /><path clip-path="url(#clip710)" d="M234.077 147.429 L223.498 158.054 L234.077 168.633 L231.322 171.434 L220.697 160.809 L210.072 171.434 L207.341 168.633 L217.896 158.054 L207.341 147.429 L210.072 144.629 L220.697 155.253 L231.322 144.629 L234.077 147.429 Z" fill="#000000" fill-rule="nonzero" fill-opacity="1" /><path clip-path="url(#clip710)" d="M246.438 168.957 L254.077 168.957 L254.077 142.591 L245.767 144.258 L245.767 139.999 L254.03 138.332 L258.706 138.332 L258.706 168.957 L266.345 168.957 L266.345 172.892 L246.438 172.892 L246.438 168.957 Z" fill="#000000" fill-rule="nonzero" fill-opacity="1" /><path clip-path="url(#clip710)" d="M285.789 141.411 Q282.178 141.411 280.35 144.976 Q278.544 148.517 278.544 155.647 Q278.544 162.753 280.35 166.318 Q282.178 169.86 285.789 169.86 Q289.424 169.86 291.229 166.318 Q293.058 162.753 293.058 155.647 Q293.058 148.517 291.229 144.976 Q289.424 141.411 285.789 141.411 M285.789 137.707 Q291.6 137.707 294.655 142.314 Q297.734 146.897 297.734 155.647 Q297.734 164.374 294.655 168.98 Q291.6 173.564 285.789 173.564 Q279.979 173.564 276.901 168.98 Q273.845 164.374 273.845 155.647 Q273.845 146.897 276.901 142.314 Q279.979 137.707 285.789 137.707 Z" fill="#000000" fill-rule="nonzero" fill-opacity="1" /><path clip-path="url(#clip710)" d="M299.539 144.899 L299.539 141.438 Q300.969 142.115 302.436 142.473 Q303.903 142.83 305.313 142.83 Q309.075 142.83 311.05 140.31 Q313.043 137.771 313.325 132.617 Q312.235 134.235 310.561 135.1 Q308.887 135.965 306.856 135.965 Q302.643 135.965 300.179 133.426 Q297.734 130.868 297.734 126.448 Q297.734 122.123 300.292 119.508 Q302.85 116.894 307.1 116.894 Q311.971 116.894 314.529 120.637 Q317.106 124.361 317.106 131.47 Q317.106 138.109 313.946 142.078 Q310.805 146.027 305.483 146.027 Q304.053 146.027 302.586 145.745 Q301.119 145.463 299.539 144.899 M307.1 132.993 Q309.658 132.993 311.144 131.244 Q312.648 129.495 312.648 126.448 Q312.648 123.42 311.144 121.671 Q309.658 119.903 307.1 119.903 Q304.542 119.903 303.038 121.671 Q301.552 123.42 301.552 126.448 Q301.552 129.495 303.038 131.244 Q304.542 132.993 307.1 132.993 Z" fill="#000000" fill-rule="nonzero" fill-opacity="1" /><path clip-path="url(#clip710)" d="M-9.64527 840.632 L0.4762 840.632 L0.4762 828.569 L5.02768 828.569 L5.02768 840.632 L24.3794 840.632 Q28.7399 840.632 29.9813 839.454 Q31.2226 838.245 31.2226 834.584 L31.2226 828.569 L36.1242 828.569 L36.1242 834.584 Q36.1242 841.364 33.6097 843.942 Q31.0634 846.52 24.3794 846.52 L5.02768 846.52 L5.02768 850.817 L0.4762 850.817 L0.4762 846.52 L-9.64527 846.52 L-9.64527 840.632 Z" fill="#000000" fill-rule="nonzero" fill-opacity="1" /><path clip-path="url(#clip710)" d="M-11.3958 789.738 L-11.3958 784.327 L42.1716 800.878 L42.1716 806.289 L-11.3958 789.738 Z" fill="#000000" fill-rule="nonzero" fill-opacity="1" /><path clip-path="url(#clip710)" d="M14.6081 727.831 L36.1242 727.831 L36.1242 733.688 L14.799 733.688 Q9.7383 733.688 7.22385 735.661 Q4.7094 737.635 4.7094 741.581 Q4.7094 746.324 7.73311 749.061 Q10.7568 751.798 15.9767 751.798 L36.1242 751.798 L36.1242 757.687 L0.4762 757.687 L0.4762 751.798 L6.01437 751.798 Q2.79968 749.698 1.20826 746.865 Q-0.38317 744 -0.38317 740.276 Q-0.38317 734.133 3.43625 730.982 Q7.22385 727.831 14.6081 727.831 Z" fill="#000000" fill-rule="nonzero" fill-opacity="1" /><path clip-path="url(#clip710)" d="M1.52654 693.425 L7.06471 693.425 Q5.79157 695.907 5.15499 698.581 Q4.51842 701.255 4.51842 704.119 Q4.51842 708.48 5.85522 710.676 Q7.19202 712.84 9.86562 712.84 Q11.9026 712.84 13.0803 711.281 Q14.2261 709.721 15.2765 705.01 L15.7221 703.005 Q17.0589 696.767 19.5097 694.157 Q21.9286 691.515 26.2891 691.515 Q31.2544 691.515 34.1508 695.462 Q37.0472 699.377 37.0472 706.252 Q37.0472 709.116 36.4743 712.235 Q35.9332 715.323 34.8192 718.76 L28.7718 718.76 Q30.4587 715.514 31.318 712.363 Q32.1456 709.212 32.1456 706.124 Q32.1456 701.987 30.7451 699.759 Q29.3129 697.531 26.7347 697.531 Q24.3476 697.531 23.0745 699.154 Q21.8013 700.745 20.6237 706.188 L20.1462 708.225 Q19.0004 713.668 16.6451 716.087 Q14.258 718.506 10.1202 718.506 Q5.09134 718.506 2.35408 714.941 Q-0.38317 711.376 -0.38317 704.819 Q-0.38317 701.573 0.0942579 698.708 Q0.571686 695.844 1.52654 693.425 Z" fill="#000000" fill-rule="nonzero" fill-opacity="1" /><path clip-path="url(#clip712)" d="M1324.29 1454.11 L1328.48 1453.92 L1331.62 1453.74 L1333.72 1453.55 L1334.81 1453.36 L1334.91 1453.17 L1334.08 1452.98 L1332.36 1452.8 L1329.83 1452.61 L1326.56 1452.42 L1322.65 1452.23 L1318.18 1452.04 L1313.25 1451.86 L1307.98 1451.67 L1302.47 1451.48 L1296.83 1451.29 L1291.17 1451.11 L1285.6 1450.92 L1280.23 1450.73 L1275.15 1450.54 L1270.47 1450.35 L1266.27 1450.17 L1262.63 1449.98 L1259.63 1449.79 L1257.33 1449.6 L1255.77 1449.41 L1255 1449.23 L1255.05 1449.04 L1255.92 1448.85 L1257.64 1448.66 L1260.18 1448.48 L1263.54 1448.29 L1267.68 1448.1 L1272.56 1447.91 L1278.13 1447.72 L1284.33 1447.54 L1291.08 1447.35 L1298.32 1447.16 L1305.95 1446.97 L1313.89 1446.78 L1322.03 1446.6 L1330.28 1446.41 L1338.53 1446.22 L1346.67 1446.03 L1354.6 1445.85 L1362.21 1445.66 L1369.39 1445.47 L1376.04 1445.28 L1382.07 1445.09 L1387.37 1444.91 L1391.87 1444.72 L1395.48 1444.53 L1398.13 1444.34 L1399.76 1444.15 L1400.31 1443.97 L1399.75 1443.78 L1398.05 1443.59 L1395.17 1443.4 L1391.13 1443.21 L1385.92 1443.03 L1379.56 1442.84 L1372.08 1442.65 L472.238 1442.65 L464.756 1442.84 L458.396 1443.03 L453.186 1443.21 L449.142 1443.4 L446.27 1443.59 L444.563 1443.78 L444.002 1443.97 L444.556 1444.15 L446.184 1444.34 L448.834 1444.53 L452.444 1444.72 L456.941 1444.91 L462.247 1445.09 L468.273 1445.28 L474.927 1445.47 L482.109 1445.66 L489.717 1445.85 L497.646 1446.03 L505.788 1446.22 L514.036 1446.41 L522.284 1446.6 L530.427 1446.78 L538.363 1446.97 L545.996 1447.16 L553.234 1447.35 L559.99 1447.54 L566.188 1447.72 L571.757 1447.91 L576.637 1448.1 L580.775 1448.29 L584.132 1448.48 L586.677 1448.66 L588.392 1448.85 L589.27 1449.04 L589.316 1449.23 L588.545 1449.41 L586.987 1449.6 L584.682 1449.79 L581.681 1449.98 L578.044 1450.17 L573.845 1450.35 L569.163 1450.54 L564.088 1450.73 L558.715 1450.92 L553.146 1451.11 L547.487 1451.29 L541.847 1451.48 L536.335 1451.67 L531.063 1451.86 L526.139 1452.04 L521.669 1452.23 L517.753 1452.42 L514.486 1452.61 L511.955 1452.8 L510.237 1452.98 L509.401 1453.17 L509.504 1453.36 L510.591 1453.55 L512.696 1453.74 L515.838 1453.92 L520.027 1454.11 L1324.29 1454.11  Z" fill="#009af9" fill-rule="evenodd" fill-opacity="1"/>
<polyline clip-path="url(#clip712)" style="stroke:#000000; stroke-linecap:round; stroke-linejoin:round; stroke-width:4; stroke-opacity:1; fill:none" points="1324.29,1454.11 1328.48,1453.92 1331.62,1453.74 1333.72,1453.55 1334.81,1453.36 1334.91,1453.17 1334.08,1452.98 1332.36,1452.8 1329.83,1452.61 1326.56,1452.42 1322.65,1452.23 1318.18,1452.04 1313.25,1451.86 1307.98,1451.67 1302.47,1451.48 1296.83,1451.29 1291.17,1451.11 1285.6,1450.92 1280.23,1450.73 1275.15,1450.54 1270.47,1450.35 1266.27,1450.17 1262.63,1449.98 1259.63,1449.79 1257.33,1449.6 1255.77,1449.41 1255,1449.23 1255.05,1449.04 1255.92,1448.85 1257.64,1448.66 1260.18,1448.48 1263.54,1448.29 1267.68,1448.1 1272.56,1447.91 1278.13,1447.72 1284.33,1447.54 1291.08,1447.35 1298.32,1447.16 1305.95,1446.97 1313.89,1446.78 1322.03,1446.6 1330.28,1446.41 1338.53,1446.22 1346.67,1446.03 1354.6,1445.85 1362.21,1445.66 1369.39,1445.47 1376.04,1445.28 1382.07,1445.09 1387.37,1444.91 1391.87,1444.72 1395.48,1444.53 1398.13,1444.34 1399.76,1444.15 1400.31,1443.97 1399.75,1443.78 1398.05,1443.59 1395.17,1443.4 1391.13,1443.21 1385.92,1443.03 1379.56,1442.84 1372.08,1442.65 472.238,1442.65 464.756,1442.84 458.396,1443.03 453.186,1443.21 449.142,1443.4 446.27,1443.59 444.563,1443.78 444.002,1443.97 444.556,1444.15 446.184,1444.34 448.834,1444.53 452.444,1444.72 456.941,1444.91 462.247,1445.09 468.273,1445.28 474.927,1445.47 482.109,1445.66 489.717,1445.85 497.646,1446.03 505.788,1446.22 514.036,1446.41 522.284,1446.6 530.427,1446.78 538.363,1446.97 545.996,1447.16 553.234,1447.35 559.99,1447.54 566.188,1447.72 571.757,1447.91 576.637,1448.1 580.775,1448.29 584.132,1448.48 586.677,1448.66 588.392,1448.85 589.27,1449.04 589.316,1449.23 588.545,1449.41 586.987,1449.6 584.682,1449.79 581.681,1449.98 578.044,1450.17 573.845,1450.35 569.163,1450.54 564.088,1450.73 558.715,1450.92 553.146,1451.11 547.487,1451.29 541.847,1451.48 536.335,1451.67 531.063,1451.86 526.139,1452.04 521.669,1452.23 517.753,1452.42 514.486,1452.61 511.955,1452.8 510.237,1452.98 509.401,1453.17 509.504,1453.36 510.591,1453.55 512.696,1453.74 515.838,1453.92 520.027,1454.11 1324.29,1454.11 "/>
<path clip-path="url(#clip712)" d="M2838.98 100.578 L2838.33 100.426 L2836.69 100.273 L2834.11 100.121 L2830.66 99.9682 L2826.43 99.8156 L2821.52 99.663 L2816.03 99.5105 L2810.1 99.3579 L2803.87 99.2053 L2797.46 99.0528 L2791.03 98.9002 L2784.72 98.7477 L2778.7 98.5951 L2773.09 98.4425 L2768.05 98.29 L2763.7 98.1374 L2760.18 97.9848 L2757.6 97.8323 L2756.06 97.6797 L2755.65 97.5272 L2756.44 97.3746 L2758.5 97.222 L2761.85 97.0695 L2766.53 96.9169 L2772.54 96.7643 L2779.85 96.6118 L2788.44 96.4592 L2798.25 96.3067 L2809.21 96.1541 L2821.23 96.0015 L2834.22 95.849 L2848.04 95.6964 L2862.57 95.5438 L2877.67 95.3913 L2893.18 95.2387 L2908.94 95.0861 L2924.78 94.9336 L2940.54 94.781 L2956.04 94.6285 L2971.13 94.4759 L2985.63 94.3233 L2999.4 94.1708 L3012.3 94.0182 L3024.19 93.8656 L3034.97 93.7131 L3044.54 93.5605 L3052.83 93.408 L3059.77 93.2554 L3065.33 93.1028 L3069.5 92.9503 L3072.29 92.7977 L3073.73 92.6451 L3073.86 92.4926 L3072.76 92.34 L3070.5 92.1874 L3067.19 92.0349 L3062.93 91.8823 L3057.84 91.7298 L3052.04 91.5772 L3045.67 91.4246 L3038.83 91.2721 L3031.65 91.1195 L3024.25 90.9669 L3016.72 90.8144 L3009.16 90.6618 L3001.63 90.5093 L2994.22 90.3567 L2986.94 90.2041 L2979.85 90.0516 L2972.94 89.899 L2966.21 89.7464 L2959.65 89.5939 L2953.23 89.4413 L2946.89 89.2887 L2940.59 89.1362 L2934.27 88.9836 L2927.87 88.8311 L2921.33 88.6785 L2914.58 88.5259 L2907.57 88.3734 L2900.24 88.2208 L2291.17 88.2208 L2283.84 88.3734 L2276.83 88.5259 L2270.08 88.6785 L2263.54 88.8311 L2257.14 88.9836 L2250.82 89.1362 L2244.52 89.2887 L2238.18 89.4413 L2231.75 89.5939 L2225.19 89.7464 L2218.47 89.899 L2211.56 90.0516 L2204.46 90.2041 L2197.19 90.3567 L2189.77 90.5093 L2182.25 90.6618 L2174.69 90.8144 L2167.16 90.9669 L2159.76 91.1195 L2152.58 91.2721 L2145.74 91.4246 L2139.36 91.5772 L2133.57 91.7298 L2128.48 91.8823 L2124.22 92.0349 L2120.91 92.1874 L2118.65 92.34 L2117.55 92.4926 L2117.68 92.6451 L2119.12 92.7977 L2121.91 92.9503 L2126.08 93.1028 L2131.64 93.2554 L2138.58 93.408 L2146.86 93.5605 L2156.43 93.7131 L2167.21 93.8656 L2179.11 94.0182 L2192.01 94.1708 L2205.78 94.3233 L2220.28 94.4759 L2235.36 94.6285 L2250.87 94.781 L2266.63 94.9336 L2282.47 95.0861 L2298.23 95.2387 L2313.74 95.3913 L2328.83 95.5438 L2343.37 95.6964 L2357.19 95.849 L2370.18 96.0015 L2382.2 96.1541 L2393.16 96.3067 L2402.97 96.4592 L2411.56 96.6118 L2418.87 96.7643 L2424.88 96.9169 L2429.55 97.0695 L2432.91 97.222 L2434.97 97.3746 L2435.76 97.5272 L2435.35 97.6797 L2433.81 97.8323 L2431.23 97.9848 L2427.71 98.1374 L2423.36 98.29 L2418.32 98.4425 L2412.71 98.5951 L2406.68 98.7477 L2400.38 98.9002 L2393.95 99.0528 L2387.54 99.2053 L2381.3 99.3579 L2375.38 99.5105 L2369.89 99.663 L2364.98 99.8156 L2360.75 99.9682 L2357.3 100.121 L2354.72 100.273 L2353.08 100.426 L2352.43 100.578 L2838.98 100.578  Z" fill="#e26f46" fill-rule="evenodd" fill-opacity="1"/>
<polyline clip-path="url(#clip712)" style="stroke:#000000; stroke-linecap:round; stroke-linejoin:round; stroke-width:4; stroke-opacity:1; fill:none" points="2838.98,100.578 2838.33,100.426 2836.69,100.273 2834.11,100.121 2830.66,99.9682 2826.43,99.8156 2821.52,99.663 2816.03,99.5105 2810.1,99.3579 2803.87,99.2053 2797.46,99.0528 2791.03,98.9002 2784.72,98.7477 2778.7,98.5951 2773.09,98.4425 2768.05,98.29 2763.7,98.1374 2760.18,97.9848 2757.6,97.8323 2756.06,97.6797 2755.65,97.5272 2756.44,97.3746 2758.5,97.222 2761.85,97.0695 2766.53,96.9169 2772.54,96.7643 2779.85,96.6118 2788.44,96.4592 2798.25,96.3067 2809.21,96.1541 2821.23,96.0015 2834.22,95.849 2848.04,95.6964 2862.57,95.5438 2877.67,95.3913 2893.18,95.2387 2908.94,95.0861 2924.78,94.9336 2940.54,94.781 2956.04,94.6285 2971.13,94.4759 2985.63,94.3233 2999.4,94.1708 3012.3,94.0182 3024.19,93.8656 3034.97,93.7131 3044.54,93.5605 3052.83,93.408 3059.77,93.2554 3065.33,93.1028 3069.5,92.9503 3072.29,92.7977 3073.73,92.6451 3073.86,92.4926 3072.76,92.34 3070.5,92.1874 3067.19,92.0349 3062.93,91.8823 3057.84,91.7298 3052.04,91.5772 3045.67,91.4246 3038.83,91.2721 3031.65,91.1195 3024.25,90.9669 3016.72,90.8144 3009.16,90.6618 3001.63,90.5093 2994.22,90.3567 2986.94,90.2041 2979.85,90.0516 2972.94,89.899 2966.21,89.7464 2959.65,89.5939 2953.23,89.4413 2946.89,89.2887 2940.59,89.1362 2934.27,88.9836 2927.87,88.8311 2921.33,88.6785 2914.58,88.5259 2907.57,88.3734 2900.24,88.2208 2291.17,88.2208 2283.84,88.3734 2276.83,88.5259 2270.08,88.6785 2263.54,88.8311 2257.14,88.9836 2250.82,89.1362 2244.52,89.2887 2238.18,89.4413 2231.75,89.5939 2225.19,89.7464 2218.47,89.899 2211.56,90.0516 2204.46,90.2041 2197.19,90.3567 2189.77,90.5093 2182.25,90.6618 2174.69,90.8144 2167.16,90.9669 2159.76,91.1195 2152.58,91.2721 2145.74,91.4246 2139.36,91.5772 2133.57,91.7298 2128.48,91.8823 2124.22,92.0349 2120.91,92.1874 2118.65,92.34 2117.55,92.4926 2117.68,92.6451 2119.12,92.7977 2121.91,92.9503 2126.08,93.1028 2131.64,93.2554 2138.58,93.408 2146.86,93.5605 2156.43,93.7131 2167.21,93.8656 2179.11,94.0182 2192.01,94.1708 2205.78,94.3233 2220.28,94.4759 2235.36,94.6285 2250.87,94.781 2266.63,94.9336 2282.47,95.0861 2298.23,95.2387 2313.74,95.3913 2328.83,95.5438 2343.37,95.6964 2357.19,95.849 2370.18,96.0015 2382.2,96.1541 2393.16,96.3067 2402.97,96.4592 2411.56,96.6118 2418.87,96.7643 2424.88,96.9169 2429.55,97.0695 2432.91,97.222 2434.97,97.3746 2435.76,97.5272 2435.35,97.6797 2433.81,97.8323 2431.23,97.9848 2427.71,98.1374 2423.36,98.29 2418.32,98.4425 2412.71,98.5951 2406.68,98.7477 2400.38,98.9002 2393.95,99.0528 2387.54,99.2053 2381.3,99.3579 2375.38,99.5105 2369.89,99.663 2364.98,99.8156 2360.75,99.9682 2357.3,100.121 2354.72,100.273 2353.08,100.426 2352.43,100.578 2838.98,100.578 "/>
</svg>
