<?xml version="1.0" encoding="utf-8"?>
<svg xmlns="http://www.w3.org/2000/svg" xmlns:xlink="http://www.w3.org/1999/xlink" width="600" height="400" viewBox="0 0 2400 1600">
<defs>
  <clipPath id="clip800">
    <rect x="0" y="0" width="2400" height="1600"/>
  </clipPath>
</defs>
<path clip-path="url(#clip800)" d="M0 1600 L2400 1600 L2400 0 L0 0  Z" fill="#ffffff" fill-rule="evenodd" fill-opacity="1"/>
<defs>
  <clipPath id="clip801">
    <rect x="212" y="47" width="2141" height="1377"/>
  </clipPath>
</defs>
<path clip-path="url(#clip800)" d="M212.459 1423.18 L2352.76 1423.18 L2352.76 47.2441 L212.459 47.2441  Z" fill="#ffffff" fill-rule="evenodd" fill-opacity="1"/>
<polyline clip-path="url(#clip801)" style="stroke:#000000; stroke-linecap:round; stroke-linejoin:round; stroke-width:2; stroke-opacity:0.1; fill:none" points="273.033,1423.18 273.033,47.2441 "/>
<polyline clip-path="url(#clip801)" style="stroke:#000000; stroke-linecap:round; stroke-linejoin:round; stroke-width:2; stroke-opacity:0.1; fill:none" points="609.558,1423.18 609.558,47.2441 "/>
<polyline clip-path="url(#clip801)" style="stroke:#000000; stroke-linecap:round; stroke-linejoin:round; stroke-width:2; stroke-opacity:0.1; fill:none" points="946.083,1423.18 946.083,47.2441 "/>
<polyline clip-path="url(#clip801)" style="stroke:#000000; stroke-linecap:round; stroke-linejoin:round; stroke-width:2; stroke-opacity:0.1; fill:none" points="1282.61,1423.18 1282.61,47.2441 "/>
<polyline clip-path="url(#clip801)" style="stroke:#000000; stroke-linecap:round; stroke-linejoin:round; stroke-width:2; stroke-opacity:0.1; fill:none" points="1619.13,1423.18 1619.13,47.2441 "/>
<polyline clip-path="url(#clip801)" style="stroke:#000000; stroke-linecap:round; stroke-linejoin:round; stroke-width:2; stroke-opacity:0.1; fill:none" points="1955.66,1423.18 1955.66,47.2441 "/>
<polyline clip-path="url(#clip801)" style="stroke:#000000; stroke-linecap:round; stroke-linejoin:round; stroke-width:2; stroke-opacity:0.1; fill:none" points="2292.18,1423.18 2292.18,47.2441 "/>
<polyline clip-path="url(#clip801)" style="stroke:#000000; stroke-linecap:round; stroke-linejoin:round; stroke-width:2; stroke-opacity:0.1; fill:none" points="212.459,1366.18 2352.76,1366.18 "/>
<polyline clip-path="url(#clip801)" style="stroke:#000000; stroke-linecap:round; stroke-linejoin:round; stroke-width:2; stroke-opacity:0.1; fill:none" points="212.459,1081.74 2352.76,1081.74 "/>
<polyline clip-path="url(#clip801)" style="stroke:#000000; stroke-linecap:round; stroke-linejoin:round; stroke-width:2; stroke-opacity:0.1; fill:none" points="212.459,797.296 2352.76,797.296 "/>
<polyline clip-path="url(#clip801)" style="stroke:#000000; stroke-linecap:round; stroke-linejoin:round; stroke-width:2; stroke-opacity:0.1; fill:none" points="212.459,512.852 2352.76,512.852 "/>
<polyline clip-path="url(#clip801)" style="stroke:#000000; stroke-linecap:round; stroke-linejoin:round; stroke-width:2; stroke-opacity:0.1; fill:none" points="212.459,228.408 2352.76,228.408 "/>
<polyline clip-path="url(#clip800)" style="stroke:#000000; stroke-linecap:round; stroke-linejoin:round; stroke-width:4; stroke-opacity:1; fill:none" points="212.459,1423.18 2352.76,1423.18 "/>
<polyline clip-path="url(#clip800)" style="stroke:#000000; stroke-linecap:round; stroke-linejoin:round; stroke-width:4; stroke-opacity:1; fill:none" points="273.033,1423.18 273.033,1404.28 "/>
<polyline clip-path="url(#clip800)" style="stroke:#000000; stroke-linecap:round; stroke-linejoin:round; stroke-width:4; stroke-opacity:1; fill:none" points="609.558,1423.18 609.558,1404.28 "/>
<polyline clip-path="url(#clip800)" style="stroke:#000000; stroke-linecap:round; stroke-linejoin:round; stroke-width:4; stroke-opacity:1; fill:none" points="946.083,1423.18 946.083,1404.28 "/>
<polyline clip-path="url(#clip800)" style="stroke:#000000; stroke-linecap:round; stroke-linejoin:round; stroke-width:4; stroke-opacity:1; fill:none" points="1282.61,1423.18 1282.61,1404.28 "/>
<polyline clip-path="url(#clip800)" style="stroke:#000000; stroke-linecap:round; stroke-linejoin:round; stroke-width:4; stroke-opacity:1; fill:none" points="1619.13,1423.18 1619.13,1404.28 "/>
<polyline clip-path="url(#clip800)" style="stroke:#000000; stroke-linecap:round; stroke-linejoin:round; stroke-width:4; stroke-opacity:1; fill:none" points="1955.66,1423.18 1955.66,1404.28 "/>
<polyline clip-path="url(#clip800)" style="stroke:#000000; stroke-linecap:round; stroke-linejoin:round; stroke-width:4; stroke-opacity:1; fill:none" points="2292.18,1423.18 2292.18,1404.28 "/>
<path clip-path="url(#clip800)" d="M250.915 1454.1 Q247.304 1454.1 245.476 1457.66 Q243.67 1461.2 243.67 1468.33 Q243.67 1475.44 245.476 1479.01 Q247.304 1482.55 250.915 1482.55 Q254.55 1482.55 256.355 1479.01 Q258.184 1475.44 258.184 1468.33 Q258.184 1461.2 256.355 1457.66 Q254.55 1454.1 250.915 1454.1 M250.915 1450.39 Q256.726 1450.39 259.781 1455 Q262.86 1459.58 262.86 1468.33 Q262.86 1477.06 259.781 1481.67 Q256.726 1486.25 250.915 1486.25 Q245.105 1486.25 242.027 1481.67 Q238.971 1477.06 238.971 1468.33 Q238.971 1459.58 242.027 1455 Q245.105 1450.39 250.915 1450.39 Z" fill="#000000" fill-rule="nonzero" fill-opacity="1" /><path clip-path="url(#clip800)" d="M271.077 1479.7 L275.962 1479.7 L275.962 1485.58 L271.077 1485.58 L271.077 1479.7 Z" fill="#000000" fill-rule="nonzero" fill-opacity="1" /><path clip-path="url(#clip800)" d="M286.193 1451.02 L304.549 1451.02 L304.549 1454.96 L290.475 1454.96 L290.475 1463.43 Q291.494 1463.08 292.512 1462.92 Q293.531 1462.73 294.549 1462.73 Q300.336 1462.73 303.716 1465.9 Q307.096 1469.08 307.096 1474.49 Q307.096 1480.07 303.623 1483.17 Q300.151 1486.25 293.832 1486.25 Q291.656 1486.25 289.387 1485.88 Q287.142 1485.51 284.735 1484.77 L284.735 1480.07 Q286.818 1481.2 289.04 1481.76 Q291.262 1482.32 293.739 1482.32 Q297.744 1482.32 300.082 1480.21 Q302.42 1478.1 302.42 1474.49 Q302.42 1470.88 300.082 1468.77 Q297.744 1466.67 293.739 1466.67 Q291.864 1466.67 289.989 1467.08 Q288.137 1467.5 286.193 1468.38 L286.193 1451.02 Z" fill="#000000" fill-rule="nonzero" fill-opacity="1" /><path clip-path="url(#clip800)" d="M576.711 1481.64 L584.35 1481.64 L584.35 1455.28 L576.04 1456.95 L576.04 1452.69 L584.304 1451.02 L588.979 1451.02 L588.979 1481.64 L596.618 1481.64 L596.618 1485.58 L576.711 1485.58 L576.711 1481.64 Z" fill="#000000" fill-rule="nonzero" fill-opacity="1" /><path clip-path="url(#clip800)" d="M606.063 1479.7 L610.947 1479.7 L610.947 1485.58 L606.063 1485.58 L606.063 1479.7 Z" fill="#000000" fill-rule="nonzero" fill-opacity="1" /><path clip-path="url(#clip800)" d="M631.132 1454.1 Q627.521 1454.1 625.692 1457.66 Q623.887 1461.2 623.887 1468.33 Q623.887 1475.44 625.692 1479.01 Q627.521 1482.55 631.132 1482.55 Q634.766 1482.55 636.572 1479.01 Q638.4 1475.44 638.4 1468.33 Q638.4 1461.2 636.572 1457.66 Q634.766 1454.1 631.132 1454.1 M631.132 1450.39 Q636.942 1450.39 639.998 1455 Q643.076 1459.58 643.076 1468.33 Q643.076 1477.06 639.998 1481.67 Q636.942 1486.25 631.132 1486.25 Q625.322 1486.25 622.243 1481.67 Q619.188 1477.06 619.188 1468.33 Q619.188 1459.58 622.243 1455 Q625.322 1450.39 631.132 1450.39 Z" fill="#000000" fill-rule="nonzero" fill-opacity="1" /><path clip-path="url(#clip800)" d="M913.733 1481.64 L921.372 1481.64 L921.372 1455.28 L913.062 1456.95 L913.062 1452.69 L921.326 1451.02 L926.002 1451.02 L926.002 1481.64 L933.641 1481.64 L933.641 1485.58 L913.733 1485.58 L913.733 1481.64 Z" fill="#000000" fill-rule="nonzero" fill-opacity="1" /><path clip-path="url(#clip800)" d="M943.085 1479.7 L947.969 1479.7 L947.969 1485.58 L943.085 1485.58 L943.085 1479.7 Z" fill="#000000" fill-rule="nonzero" fill-opacity="1" /><path clip-path="url(#clip800)" d="M958.201 1451.02 L976.557 1451.02 L976.557 1454.96 L962.483 1454.96 L962.483 1463.43 Q963.502 1463.08 964.52 1462.92 Q965.539 1462.73 966.557 1462.73 Q972.344 1462.73 975.724 1465.9 Q979.103 1469.08 979.103 1474.49 Q979.103 1480.07 975.631 1483.17 Q972.159 1486.25 965.84 1486.25 Q963.664 1486.25 961.395 1485.88 Q959.15 1485.51 956.742 1484.77 L956.742 1480.07 Q958.826 1481.2 961.048 1481.76 Q963.27 1482.32 965.747 1482.32 Q969.752 1482.32 972.09 1480.21 Q974.427 1478.1 974.427 1474.49 Q974.427 1470.88 972.09 1468.77 Q969.752 1466.67 965.747 1466.67 Q963.872 1466.67 961.997 1467.08 Q960.145 1467.5 958.201 1468.38 L958.201 1451.02 Z" fill="#000000" fill-rule="nonzero" fill-opacity="1" /><path clip-path="url(#clip800)" d="M1253.85 1481.64 L1270.17 1481.64 L1270.17 1485.58 L1248.22 1485.58 L1248.22 1481.64 Q1250.88 1478.89 1255.47 1474.26 Q1260.07 1469.61 1261.25 1468.27 Q1263.5 1465.74 1264.38 1464.01 Q1265.28 1462.25 1265.28 1460.56 Q1265.28 1457.8 1263.34 1456.07 Q1261.42 1454.33 1258.31 1454.33 Q1256.11 1454.33 1253.66 1455.09 Q1251.23 1455.86 1248.45 1457.41 L1248.45 1452.69 Q1251.28 1451.55 1253.73 1450.97 Q1256.18 1450.39 1258.22 1450.39 Q1263.59 1450.39 1266.79 1453.08 Q1269.98 1455.77 1269.98 1460.26 Q1269.98 1462.39 1269.17 1464.31 Q1268.38 1466.2 1266.28 1468.8 Q1265.7 1469.47 1262.6 1472.69 Q1259.49 1475.88 1253.85 1481.64 Z" fill="#000000" fill-rule="nonzero" fill-opacity="1" /><path clip-path="url(#clip800)" d="M1279.98 1479.7 L1284.86 1479.7 L1284.86 1485.58 L1279.98 1485.58 L1279.98 1479.7 Z" fill="#000000" fill-rule="nonzero" fill-opacity="1" /><path clip-path="url(#clip800)" d="M1305.05 1454.1 Q1301.44 1454.1 1299.61 1457.66 Q1297.8 1461.2 1297.8 1468.33 Q1297.8 1475.44 1299.61 1479.01 Q1301.44 1482.55 1305.05 1482.55 Q1308.68 1482.55 1310.49 1479.01 Q1312.32 1475.44 1312.32 1468.33 Q1312.32 1461.2 1310.49 1457.66 Q1308.68 1454.1 1305.05 1454.1 M1305.05 1450.39 Q1310.86 1450.39 1313.92 1455 Q1316.99 1459.58 1316.99 1468.33 Q1316.99 1477.06 1313.92 1481.67 Q1310.86 1486.25 1305.05 1486.25 Q1299.24 1486.25 1296.16 1481.67 Q1293.11 1477.06 1293.11 1468.33 Q1293.11 1459.58 1296.16 1455 Q1299.24 1450.39 1305.05 1450.39 Z" fill="#000000" fill-rule="nonzero" fill-opacity="1" /><path clip-path="url(#clip800)" d="M1590.87 1481.64 L1607.19 1481.64 L1607.19 1485.58 L1585.24 1485.58 L1585.24 1481.64 Q1587.91 1478.89 1592.49 1474.26 Q1597.1 1469.61 1598.28 1468.27 Q1600.52 1465.74 1601.4 1464.01 Q1602.3 1462.25 1602.3 1460.56 Q1602.3 1457.8 1600.36 1456.07 Q1598.44 1454.33 1595.34 1454.33 Q1593.14 1454.33 1590.68 1455.09 Q1588.25 1455.86 1585.47 1457.41 L1585.47 1452.69 Q1588.3 1451.55 1590.75 1450.97 Q1593.21 1450.39 1595.24 1450.39 Q1600.61 1450.39 1603.81 1453.08 Q1607 1455.77 1607 1460.26 Q1607 1462.39 1606.19 1464.31 Q1605.41 1466.2 1603.3 1468.8 Q1602.72 1469.47 1599.62 1472.69 Q1596.52 1475.88 1590.87 1481.64 Z" fill="#000000" fill-rule="nonzero" fill-opacity="1" /><path clip-path="url(#clip800)" d="M1617 1479.7 L1621.89 1479.7 L1621.89 1485.58 L1617 1485.58 L1617 1479.7 Z" fill="#000000" fill-rule="nonzero" fill-opacity="1" /><path clip-path="url(#clip800)" d="M1632.12 1451.02 L1650.47 1451.02 L1650.47 1454.96 L1636.4 1454.96 L1636.4 1463.43 Q1637.42 1463.08 1638.44 1462.92 Q1639.46 1462.73 1640.47 1462.73 Q1646.26 1462.73 1649.64 1465.9 Q1653.02 1469.08 1653.02 1474.49 Q1653.02 1480.07 1649.55 1483.17 Q1646.08 1486.25 1639.76 1486.25 Q1637.58 1486.25 1635.31 1485.88 Q1633.07 1485.51 1630.66 1484.77 L1630.66 1480.07 Q1632.74 1481.2 1634.97 1481.76 Q1637.19 1482.32 1639.66 1482.32 Q1643.67 1482.32 1646.01 1480.21 Q1648.34 1478.1 1648.34 1474.49 Q1648.34 1470.88 1646.01 1468.77 Q1643.67 1466.67 1639.66 1466.67 Q1637.79 1466.67 1635.91 1467.08 Q1634.06 1467.5 1632.12 1468.38 L1632.12 1451.02 Z" fill="#000000" fill-rule="nonzero" fill-opacity="1" /><path clip-path="url(#clip800)" d="M1936.96 1466.95 Q1940.32 1467.66 1942.2 1469.93 Q1944.09 1472.2 1944.09 1475.53 Q1944.09 1480.65 1940.58 1483.45 Q1937.06 1486.25 1930.58 1486.25 Q1928.4 1486.25 1926.09 1485.81 Q1923.79 1485.39 1921.34 1484.54 L1921.34 1480.02 Q1923.28 1481.16 1925.6 1481.74 Q1927.91 1482.32 1930.44 1482.32 Q1934.84 1482.32 1937.13 1480.58 Q1939.44 1478.84 1939.44 1475.53 Q1939.44 1472.48 1937.29 1470.77 Q1935.16 1469.03 1931.34 1469.03 L1927.31 1469.03 L1927.31 1465.19 L1931.52 1465.19 Q1934.97 1465.19 1936.8 1463.82 Q1938.63 1462.43 1938.63 1459.84 Q1938.63 1457.18 1936.73 1455.77 Q1934.86 1454.33 1931.34 1454.33 Q1929.42 1454.33 1927.22 1454.75 Q1925.02 1455.16 1922.38 1456.04 L1922.38 1451.88 Q1925.04 1451.14 1927.36 1450.77 Q1929.7 1450.39 1931.76 1450.39 Q1937.08 1450.39 1940.18 1452.83 Q1943.28 1455.23 1943.28 1459.35 Q1943.28 1462.22 1941.64 1464.21 Q1940 1466.18 1936.96 1466.95 Z" fill="#000000" fill-rule="nonzero" fill-opacity="1" /><path clip-path="url(#clip800)" d="M1952.96 1479.7 L1957.84 1479.7 L1957.84 1485.58 L1952.96 1485.58 L1952.96 1479.7 Z" fill="#000000" fill-rule="nonzero" fill-opacity="1" /><path clip-path="url(#clip800)" d="M1978.03 1454.1 Q1974.42 1454.1 1972.59 1457.66 Q1970.78 1461.2 1970.78 1468.33 Q1970.78 1475.44 1972.59 1479.01 Q1974.42 1482.55 1978.03 1482.55 Q1981.66 1482.55 1983.47 1479.01 Q1985.3 1475.44 1985.3 1468.33 Q1985.3 1461.2 1983.47 1457.66 Q1981.66 1454.1 1978.03 1454.1 M1978.03 1450.39 Q1983.84 1450.39 1986.9 1455 Q1989.97 1459.58 1989.97 1468.33 Q1989.97 1477.06 1986.9 1481.67 Q1983.84 1486.25 1978.03 1486.25 Q1972.22 1486.25 1969.14 1481.67 Q1966.08 1477.06 1966.08 1468.33 Q1966.08 1459.58 1969.14 1455 Q1972.22 1450.39 1978.03 1450.39 Z" fill="#000000" fill-rule="nonzero" fill-opacity="1" /><path clip-path="url(#clip800)" d="M2273.99 1466.95 Q2277.34 1467.66 2279.22 1469.93 Q2281.12 1472.2 2281.12 1475.53 Q2281.12 1480.65 2277.6 1483.45 Q2274.08 1486.25 2267.6 1486.25 Q2265.42 1486.25 2263.11 1485.81 Q2260.82 1485.39 2258.36 1484.54 L2258.36 1480.02 Q2260.31 1481.16 2262.62 1481.74 Q2264.94 1482.32 2267.46 1482.32 Q2271.86 1482.32 2274.15 1480.58 Q2276.46 1478.84 2276.46 1475.53 Q2276.46 1472.48 2274.31 1470.77 Q2272.18 1469.03 2268.36 1469.03 L2264.33 1469.03 L2264.33 1465.19 L2268.55 1465.19 Q2272 1465.19 2273.83 1463.82 Q2275.65 1462.43 2275.65 1459.84 Q2275.65 1457.18 2273.76 1455.77 Q2271.88 1454.33 2268.36 1454.33 Q2266.44 1454.33 2264.24 1454.75 Q2262.04 1455.16 2259.4 1456.04 L2259.4 1451.88 Q2262.07 1451.14 2264.38 1450.77 Q2266.72 1450.39 2268.78 1450.39 Q2274.1 1450.39 2277.2 1452.83 Q2280.31 1455.23 2280.31 1459.35 Q2280.31 1462.22 2278.66 1464.21 Q2277.02 1466.18 2273.99 1466.95 Z" fill="#000000" fill-rule="nonzero" fill-opacity="1" /><path clip-path="url(#clip800)" d="M2289.98 1479.7 L2294.87 1479.7 L2294.87 1485.58 L2289.98 1485.58 L2289.98 1479.7 Z" fill="#000000" fill-rule="nonzero" fill-opacity="1" /><path clip-path="url(#clip800)" d="M2305.1 1451.02 L2323.45 1451.02 L2323.45 1454.96 L2309.38 1454.96 L2309.38 1463.43 Q2310.4 1463.08 2311.42 1462.92 Q2312.44 1462.73 2313.45 1462.73 Q2319.24 1462.73 2322.62 1465.9 Q2326 1469.08 2326 1474.49 Q2326 1480.07 2322.53 1483.17 Q2319.06 1486.25 2312.74 1486.25 Q2310.56 1486.25 2308.29 1485.88 Q2306.05 1485.51 2303.64 1484.77 L2303.64 1480.07 Q2305.72 1481.2 2307.95 1481.76 Q2310.17 1482.32 2312.64 1482.32 Q2316.65 1482.32 2318.99 1480.21 Q2321.32 1478.1 2321.32 1474.49 Q2321.32 1470.88 2318.99 1468.77 Q2316.65 1466.67 2312.64 1466.67 Q2310.77 1466.67 2308.89 1467.08 Q2307.04 1467.5 2305.1 1468.38 L2305.1 1451.02 Z" fill="#000000" fill-rule="nonzero" fill-opacity="1" /><path clip-path="url(#clip800)" d="M1090.82 1518.52 L1096.68 1518.52 L1096.68 1568.04 L1090.82 1568.04 L1090.82 1518.52 Z" fill="#000000" fill-rule="nonzero" fill-opacity="1" /><path clip-path="url(#clip800)" d="M1132.39 1549.81 Q1132.39 1543.44 1129.75 1539.94 Q1127.14 1536.44 1122.4 1536.44 Q1117.69 1536.44 1115.05 1539.94 Q1112.44 1543.44 1112.44 1549.81 Q1112.44 1556.14 1115.05 1559.64 Q1117.69 1563.14 1122.4 1563.14 Q1127.14 1563.14 1129.75 1559.64 Q1132.39 1556.14 1132.39 1549.81 M1138.25 1563.62 Q1138.25 1572.72 1134.21 1577.15 Q1130.16 1581.6 1121.83 1581.6 Q1118.74 1581.6 1116 1581.13 Q1113.26 1580.68 1110.69 1579.72 L1110.69 1574.03 Q1113.26 1575.43 1115.78 1576.1 Q1118.29 1576.76 1120.9 1576.76 Q1126.66 1576.76 1129.53 1573.74 Q1132.39 1570.75 1132.39 1564.67 L1132.39 1561.77 Q1130.58 1564.92 1127.75 1566.48 Q1124.91 1568.04 1120.97 1568.04 Q1114.41 1568.04 1110.4 1563.05 Q1106.39 1558.05 1106.39 1549.81 Q1106.39 1541.53 1110.4 1536.53 Q1114.41 1531.54 1120.97 1531.54 Q1124.91 1531.54 1127.75 1533.1 Q1130.58 1534.66 1132.39 1537.81 L1132.39 1532.4 L1138.25 1532.4 L1138.25 1563.62 Z" fill="#000000" fill-rule="nonzero" fill-opacity="1" /><path clip-path="url(#clip800)" d="M1164.38 1518.58 Q1160.12 1525.9 1158.05 1533.06 Q1155.98 1540.23 1155.98 1547.58 Q1155.98 1554.93 1158.05 1562.16 Q1160.15 1569.35 1164.38 1576.64 L1159.29 1576.64 Q1154.51 1569.16 1152.13 1561.93 Q1149.77 1554.71 1149.77 1547.58 Q1149.77 1540.48 1152.13 1533.29 Q1154.48 1526.09 1159.29 1518.58 L1164.38 1518.58 Z" fill="#000000" fill-rule="nonzero" fill-opacity="1" /><path clip-path="url(#clip800)" d="M1175.52 1518.52 L1181.41 1518.52 L1181.41 1547.77 L1198.88 1532.4 L1206.36 1532.4 L1187.46 1549.07 L1207.16 1568.04 L1199.52 1568.04 L1181.41 1550.63 L1181.41 1568.04 L1175.52 1568.04 L1175.52 1518.52 Z" fill="#000000" fill-rule="nonzero" fill-opacity="1" /><path clip-path="url(#clip800)" d="M1244.62 1520.52 L1250.03 1520.52 L1233.48 1574.09 L1228.07 1574.09 L1244.62 1520.52 Z" fill="#000000" fill-rule="nonzero" fill-opacity="1" /><path clip-path="url(#clip800)" d="M1290.96 1518.58 Q1286.7 1525.9 1284.63 1533.06 Q1282.56 1540.23 1282.56 1547.58 Q1282.56 1554.93 1284.63 1562.16 Q1286.73 1569.35 1290.96 1576.64 L1285.87 1576.64 Q1281.1 1569.16 1278.71 1561.93 Q1276.35 1554.71 1276.35 1547.58 Q1276.35 1540.48 1278.71 1533.29 Q1281.06 1526.09 1285.87 1518.58 L1290.96 1518.58 Z" fill="#000000" fill-rule="nonzero" fill-opacity="1" /><path clip-path="url(#clip800)" d="M1302.58 1520.52 L1309.01 1520.52 L1309.01 1540 L1332.37 1540 L1332.37 1520.52 L1338.8 1520.52 L1338.8 1568.04 L1332.37 1568.04 L1332.37 1545.41 L1309.01 1545.41 L1309.01 1568.04 L1302.58 1568.04 L1302.58 1520.52 Z" fill="#000000" fill-rule="nonzero" fill-opacity="1" /><path clip-path="url(#clip800)" d="M1363.34 1546.5 Q1361.75 1543.76 1358.53 1543.76 Q1355.32 1543.76 1353.73 1546.5 Q1352.11 1549.23 1352.11 1554.71 Q1352.11 1560.21 1353.73 1562.95 Q1355.32 1565.69 1358.53 1565.69 Q1361.75 1565.69 1363.34 1562.95 Q1364.96 1560.21 1364.96 1554.71 Q1364.96 1549.23 1363.34 1546.5 M1358.53 1540.93 Q1363.66 1540.93 1366.36 1544.46 Q1369.07 1547.99 1369.07 1554.71 Q1369.07 1561.46 1366.36 1564.99 Q1363.66 1568.52 1358.53 1568.52 Q1353.38 1568.52 1350.67 1564.99 Q1347.97 1561.46 1347.97 1554.71 Q1347.97 1547.99 1350.67 1544.46 Q1353.38 1540.93 1358.53 1540.93 Z" fill="#000000" fill-rule="nonzero" fill-opacity="1" /><path clip-path="url(#clip800)" d="M1387.88 1520.52 L1393.29 1520.52 L1376.74 1574.09 L1371.33 1574.09 L1387.88 1520.52 Z" fill="#000000" fill-rule="nonzero" fill-opacity="1" /><path clip-path="url(#clip800)" d="M1425.09 1533.76 L1425.09 1539.24 Q1422.61 1537.87 1420.09 1537.2 Q1417.61 1536.5 1415.06 1536.5 Q1409.36 1536.5 1406.21 1540.13 Q1403.06 1543.73 1403.06 1550.25 Q1403.06 1556.78 1406.21 1560.4 Q1409.36 1564 1415.06 1564 Q1417.61 1564 1420.09 1563.33 Q1422.61 1562.63 1425.09 1561.26 L1425.09 1566.68 Q1422.64 1567.82 1420 1568.39 Q1417.39 1568.97 1414.43 1568.97 Q1406.37 1568.97 1401.63 1563.91 Q1396.89 1558.85 1396.89 1550.25 Q1396.89 1541.53 1401.66 1536.53 Q1406.47 1531.54 1414.81 1531.54 Q1417.51 1531.54 1420.09 1532.11 Q1422.67 1532.65 1425.09 1533.76 Z" fill="#000000" fill-rule="nonzero" fill-opacity="1" /><path clip-path="url(#clip800)" d="M1434.35 1518.58 L1439.44 1518.58 Q1444.22 1526.09 1446.57 1533.29 Q1448.96 1540.48 1448.96 1547.58 Q1448.96 1554.71 1446.57 1561.93 Q1444.22 1569.16 1439.44 1576.64 L1434.35 1576.64 Q1438.58 1569.35 1440.65 1562.16 Q1442.75 1554.93 1442.75 1547.58 Q1442.75 1540.23 1440.65 1533.06 Q1438.58 1525.9 1434.35 1518.58 Z" fill="#000000" fill-rule="nonzero" fill-opacity="1" /><path clip-path="url(#clip800)" d="M1459.78 1518.58 L1464.87 1518.58 Q1469.65 1526.09 1472 1533.29 Q1474.39 1540.48 1474.39 1547.58 Q1474.39 1554.71 1472 1561.93 Q1469.65 1569.16 1464.87 1576.64 L1459.78 1576.64 Q1464.01 1569.35 1466.08 1562.16 Q1468.18 1554.93 1468.18 1547.58 Q1468.18 1540.23 1466.08 1533.06 Q1464.01 1525.9 1459.78 1518.58 Z" fill="#000000" fill-rule="nonzero" fill-opacity="1" /><polyline clip-path="url(#clip800)" style="stroke:#000000; stroke-linecap:round; stroke-linejoin:round; stroke-width:4; stroke-opacity:1; fill:none" points="212.459,1423.18 212.459,47.2441 "/>
<polyline clip-path="url(#clip800)" style="stroke:#000000; stroke-linecap:round; stroke-linejoin:round; stroke-width:4; stroke-opacity:1; fill:none" points="212.459,1366.18 231.357,1366.18 "/>
<polyline clip-path="url(#clip800)" style="stroke:#000000; stroke-linecap:round; stroke-linejoin:round; stroke-width:4; stroke-opacity:1; fill:none" points="212.459,1081.74 231.357,1081.74 "/>
<polyline clip-path="url(#clip800)" style="stroke:#000000; stroke-linecap:round; stroke-linejoin:round; stroke-width:4; stroke-opacity:1; fill:none" points="212.459,797.296 231.357,797.296 "/>
<polyline clip-path="url(#clip800)" style="stroke:#000000; stroke-linecap:round; stroke-linejoin:round; stroke-width:4; stroke-opacity:1; fill:none" points="212.459,512.852 231.357,512.852 "/>
<polyline clip-path="url(#clip800)" style="stroke:#000000; stroke-linecap:round; stroke-linejoin:round; stroke-width:4; stroke-opacity:1; fill:none" points="212.459,228.408 231.357,228.408 "/>
<path clip-path="url(#clip800)" d="M114.584 1366.63 L144.26 1366.63 L144.26 1370.57 L114.584 1370.57 L114.584 1366.63 Z" fill="#000000" fill-rule="nonzero" fill-opacity="1" /><path clip-path="url(#clip800)" d="M164.931 1364.32 Q161.783 1364.32 159.931 1366.47 Q158.103 1368.63 158.103 1372.38 Q158.103 1376.1 159.931 1378.28 Q161.783 1380.43 164.931 1380.43 Q168.079 1380.43 169.908 1378.28 Q171.76 1376.1 171.76 1372.38 Q171.76 1368.63 169.908 1366.47 Q168.079 1364.32 164.931 1364.32 M174.214 1349.67 L174.214 1353.93 Q172.454 1353.09 170.649 1352.65 Q168.866 1352.21 167.107 1352.21 Q162.477 1352.21 160.024 1355.34 Q157.593 1358.46 157.246 1364.78 Q158.612 1362.77 160.672 1361.7 Q162.732 1360.62 165.209 1360.62 Q170.417 1360.62 173.427 1363.79 Q176.459 1366.94 176.459 1372.38 Q176.459 1377.7 173.311 1380.92 Q170.163 1384.13 164.931 1384.13 Q158.936 1384.13 155.765 1379.55 Q152.593 1374.95 152.593 1366.22 Q152.593 1358.02 156.482 1353.16 Q160.371 1348.28 166.922 1348.28 Q168.681 1348.28 170.464 1348.63 Q172.269 1348.97 174.214 1349.67 Z" fill="#000000" fill-rule="nonzero" fill-opacity="1" /><path clip-path="url(#clip800)" d="M114.26 1082.19 L143.936 1082.19 L143.936 1086.13 L114.26 1086.13 L114.26 1082.19 Z" fill="#000000" fill-rule="nonzero" fill-opacity="1" /><path clip-path="url(#clip800)" d="M166.876 1068.53 L155.07 1086.98 L166.876 1086.98 L166.876 1068.53 M165.649 1064.46 L171.528 1064.46 L171.528 1086.98 L176.459 1086.98 L176.459 1090.87 L171.528 1090.87 L171.528 1099.02 L166.876 1099.02 L166.876 1090.87 L151.274 1090.87 L151.274 1086.36 L165.649 1064.46 Z" fill="#000000" fill-rule="nonzero" fill-opacity="1" /><path clip-path="url(#clip800)" d="M116.343 797.747 L146.019 797.747 L146.019 801.682 L116.343 801.682 L116.343 797.747 Z" fill="#000000" fill-rule="nonzero" fill-opacity="1" /><path clip-path="url(#clip800)" d="M160.14 810.64 L176.459 810.64 L176.459 814.576 L154.515 814.576 L154.515 810.64 Q157.177 807.886 161.76 803.256 Q166.366 798.603 167.547 797.261 Q169.792 794.738 170.672 793.002 Q171.575 791.242 171.575 789.553 Q171.575 786.798 169.63 785.062 Q167.709 783.326 164.607 783.326 Q162.408 783.326 159.954 784.09 Q157.524 784.854 154.746 786.404 L154.746 781.682 Q157.57 780.548 160.024 779.969 Q162.477 779.391 164.515 779.391 Q169.885 779.391 173.079 782.076 Q176.274 784.761 176.274 789.252 Q176.274 791.381 175.464 793.303 Q174.677 795.201 172.57 797.793 Q171.991 798.465 168.889 801.682 Q165.788 804.877 160.14 810.64 Z" fill="#000000" fill-rule="nonzero" fill-opacity="1" /><path clip-path="url(#clip800)" d="M164.515 498.65 Q160.903 498.65 159.075 502.215 Q157.269 505.757 157.269 512.886 Q157.269 519.993 159.075 523.558 Q160.903 527.099 164.515 527.099 Q168.149 527.099 169.954 523.558 Q171.783 519.993 171.783 512.886 Q171.783 505.757 169.954 502.215 Q168.149 498.65 164.515 498.65 M164.515 494.947 Q170.325 494.947 173.38 499.553 Q176.459 504.136 176.459 512.886 Q176.459 521.613 173.38 526.22 Q170.325 530.803 164.515 530.803 Q158.704 530.803 155.626 526.22 Q152.57 521.613 152.57 512.886 Q152.57 504.136 155.626 499.553 Q158.704 494.947 164.515 494.947 Z" fill="#000000" fill-rule="nonzero" fill-opacity="1" /><path clip-path="url(#clip800)" d="M160.14 241.752 L176.459 241.752 L176.459 245.688 L154.515 245.688 L154.515 241.752 Q157.177 238.998 161.76 234.368 Q166.366 229.716 167.547 228.373 Q169.792 225.85 170.672 224.114 Q171.575 222.354 171.575 220.665 Q171.575 217.91 169.63 216.174 Q167.709 214.438 164.607 214.438 Q162.408 214.438 159.954 215.202 Q157.524 215.966 154.746 217.517 L154.746 212.794 Q157.57 211.66 160.024 211.081 Q162.477 210.503 164.515 210.503 Q169.885 210.503 173.079 213.188 Q176.274 215.873 176.274 220.364 Q176.274 222.493 175.464 224.415 Q174.677 226.313 172.57 228.905 Q171.991 229.577 168.889 232.794 Q165.788 235.989 160.14 241.752 Z" fill="#000000" fill-rule="nonzero" fill-opacity="1" /><path clip-path="url(#clip800)" d="M64.9272 1077.86 Q64.9272 1082.35 62.2218 1085.28 Q59.0071 1088.75 53.1825 1088.75 Q47.135 1088.75 42.4244 1085.69 Q37.5865 1082.54 37.5865 1076.88 Q37.5865 1073.15 39.91 1070.22 Q41.2786 1068.5 43.5702 1067.33 Q40.9921 1066.91 38.0639 1066.91 Q33.7671 1066.91 31.2844 1067.93 Q25.7781 1070.19 25.7781 1076.18 Q25.7781 1078.43 27.1785 1081.94 L21.8314 1081.94 Q20.8447 1078.24 20.8447 1074.93 Q20.8447 1066.4 28.6745 1062.78 Q32.3666 1061.09 37.8729 1061.09 Q41.4696 1061.09 45.6391 1061.88 Q56.0789 1063.89 61.0441 1069.08 Q64.9272 1073.15 64.9272 1077.86 M54.1373 1083.3 Q57.3202 1083.3 59.0389 1081.9 Q60.8531 1080.41 60.8531 1078.12 Q60.8531 1076.08 59.4208 1074.46 Q57.4475 1072.16 54.2328 1070.48 Q51.591 1069.08 48.7583 1068.38 Q41.9152 1071.21 41.9152 1076.11 Q41.9152 1080.31 47.4533 1082.16 Q50.8908 1083.3 54.1373 1083.3 Z" fill="#000000" fill-rule="nonzero" fill-opacity="1" /><path clip-path="url(#clip800)" d="M14.479 1031.2 L14.479 1025.34 L64.0042 1025.34 L64.0042 1031.2 L14.479 1031.2 Z" fill="#000000" fill-rule="nonzero" fill-opacity="1" /><path clip-path="url(#clip800)" d="M45.7664 989.633 Q39.4007 989.633 35.8996 992.275 Q32.3984 994.885 32.3984 999.628 Q32.3984 1004.34 35.8996 1006.98 Q39.4007 1009.59 45.7664 1009.59 Q52.1003 1009.59 55.6014 1006.98 Q59.1026 1004.34 59.1026 999.628 Q59.1026 994.885 55.6014 992.275 Q52.1003 989.633 45.7664 989.633 M59.58 983.777 Q68.683 983.777 73.1071 987.819 Q77.5631 991.861 77.5631 1000.2 Q77.5631 1003.29 77.0857 1006.03 Q76.6401 1008.76 75.6852 1011.34 L69.9879 1011.34 Q71.3884 1008.76 72.0568 1006.25 Q72.7252 1003.73 72.7252 1001.12 Q72.7252 995.362 69.7015 992.498 Q66.7096 989.633 60.6303 989.633 L57.7339 989.633 Q60.885 991.448 62.4446 994.28 Q64.0042 997.113 64.0042 1001.06 Q64.0042 1007.62 59.0071 1011.63 Q54.01 1015.64 45.7664 1015.64 Q37.491 1015.64 32.4939 1011.63 Q27.4968 1007.62 27.4968 1001.06 Q27.4968 997.113 29.0564 994.28 Q30.616 991.448 33.7671 989.633 L28.3562 989.633 L28.3562 983.777 L59.58 983.777 Z" fill="#000000" fill-rule="nonzero" fill-opacity="1" /><path clip-path="url(#clip800)" d="M14.5426 957.646 Q21.8632 961.911 29.0246 963.98 Q36.186 966.048 43.5384 966.048 Q50.8908 966.048 58.1159 963.98 Q65.3091 961.879 72.5979 957.646 L72.5979 962.738 Q65.1182 967.513 57.8931 969.9 Q50.668 972.255 43.5384 972.255 Q36.4406 972.255 29.2474 969.9 Q22.0542 967.544 14.5426 962.738 L14.5426 957.646 Z" fill="#000000" fill-rule="nonzero" fill-opacity="1" /><path clip-path="url(#clip800)" d="M21.7677 939.599 L39.6235 939.599 L39.6235 931.514 Q39.6235 927.027 37.3 924.576 Q34.9765 922.125 30.6797 922.125 Q26.4147 922.125 24.0912 924.576 Q21.7677 927.027 21.7677 931.514 L21.7677 939.599 M16.4842 946.028 L16.4842 931.514 Q16.4842 923.525 20.1126 919.451 Q23.7092 915.346 30.6797 915.346 Q37.7138 915.346 41.3104 919.451 Q44.907 923.525 44.907 931.514 L44.907 939.599 L64.0042 939.599 L64.0042 946.028 L16.4842 946.028 Z" fill="#000000" fill-rule="nonzero" fill-opacity="1" /><path clip-path="url(#clip800)" d="M16.4842 896.567 L16.4842 891.156 L70.0516 907.707 L70.0516 913.118 L16.4842 896.567 Z" fill="#000000" fill-rule="nonzero" fill-opacity="1" /><path clip-path="url(#clip800)" d="M14.5426 870.945 Q21.8632 875.21 29.0246 877.279 Q36.186 879.347 43.5384 879.347 Q50.8908 879.347 58.1159 877.279 Q65.3091 875.178 72.5979 870.945 L72.5979 876.037 Q65.1182 880.812 57.8931 883.199 Q50.668 885.554 43.5384 885.554 Q36.4406 885.554 29.2474 883.199 Q22.0542 880.843 14.5426 876.037 L14.5426 870.945 Z" fill="#000000" fill-rule="nonzero" fill-opacity="1" /><path clip-path="url(#clip800)" d="M29.7248 833.928 L35.1993 833.928 Q33.8307 836.411 33.1623 838.925 Q32.4621 841.408 32.4621 843.954 Q32.4621 849.651 36.0905 852.802 Q39.6872 855.954 46.212 855.954 Q52.7369 855.954 56.3653 852.802 Q59.9619 849.651 59.9619 843.954 Q59.9619 841.408 59.2935 838.925 Q58.5933 836.411 57.2247 833.928 L62.6355 833.928 Q63.7814 836.379 64.3543 839.021 Q64.9272 841.631 64.9272 844.591 Q64.9272 852.643 59.8664 857.386 Q54.8057 862.128 46.212 862.128 Q37.491 862.128 32.4939 857.354 Q27.4968 852.548 27.4968 844.209 Q27.4968 841.503 28.0697 838.925 Q28.6108 836.347 29.7248 833.928 Z" fill="#000000" fill-rule="nonzero" fill-opacity="1" /><path clip-path="url(#clip800)" d="M16.4842 813.335 L16.4842 807.924 L70.0516 824.475 L70.0516 829.886 L16.4842 813.335 Z" fill="#000000" fill-rule="nonzero" fill-opacity="1" /><path clip-path="url(#clip800)" d="M16.4842 801.527 L16.4842 795.097 L35.9632 795.097 L35.9632 771.735 L16.4842 771.735 L16.4842 765.306 L64.0042 765.306 L64.0042 771.735 L41.3741 771.735 L41.3741 795.097 L64.0042 795.097 L64.0042 801.527 L16.4842 801.527 Z" fill="#000000" fill-rule="nonzero" fill-opacity="1" /><path clip-path="url(#clip800)" d="M42.4562 740.766 Q39.719 742.357 39.719 745.572 Q39.719 748.787 42.4562 750.378 Q45.1935 752.002 50.668 752.002 Q56.1743 752.002 58.9116 750.378 Q61.6488 748.787 61.6488 745.572 Q61.6488 742.357 58.9116 740.766 Q56.1743 739.143 50.668 739.143 Q45.1935 739.143 42.4562 740.766 M36.8862 745.572 Q36.8862 740.448 40.4192 737.742 Q43.9522 735.037 50.668 735.037 Q57.4157 735.037 60.9486 737.742 Q64.4816 740.448 64.4816 745.572 Q64.4816 750.728 60.9486 753.434 Q57.4157 756.139 50.668 756.139 Q43.9522 756.139 40.4192 753.434 Q36.8862 750.728 36.8862 745.572 Z" fill="#000000" fill-rule="nonzero" fill-opacity="1" /><path clip-path="url(#clip800)" d="M14.5426 727.557 L14.5426 722.465 Q22.0542 717.69 29.2474 715.335 Q36.4406 712.948 43.5384 712.948 Q50.668 712.948 57.8931 715.335 Q65.1182 717.69 72.5979 722.465 L72.5979 727.557 Q65.3091 723.324 58.1159 721.255 Q50.8908 719.154 43.5384 719.154 Q36.186 719.154 29.0246 721.255 Q21.8632 723.324 14.5426 727.557 Z" fill="#000000" fill-rule="nonzero" fill-opacity="1" /><path clip-path="url(#clip800)" d="M28.3562 690.668 Q28.9291 687.74 30.6797 686.148 Q32.3984 684.525 35.0084 684.525 Q38.9551 684.525 41.0876 687.549 Q43.2201 690.572 43.2201 696.206 Q43.2201 698.02 42.9018 700.026 Q42.5517 701.999 41.9152 704.227 L38.0639 704.227 Q38.9233 702.572 39.337 700.694 Q39.7508 698.784 39.7508 696.652 Q39.7508 693.182 38.5095 691.273 Q37.2364 689.363 35.0084 689.363 Q32.6531 689.363 31.4436 691.145 Q30.2341 692.896 30.2341 696.333 L30.2341 699.071 L26.7966 699.071 L26.7966 696.079 Q26.7966 693.087 25.8099 691.559 Q24.7914 690 22.8817 690 Q21.0356 690 20.0808 691.591 Q19.0941 693.182 19.0941 696.206 Q19.0941 697.479 19.3806 699.102 Q19.667 700.726 20.3991 703.304 L16.7388 703.304 Q16.1977 700.98 15.9112 698.943 Q15.6248 696.906 15.6248 695.156 Q15.6248 690.572 17.5027 687.899 Q19.3806 685.193 22.5316 685.193 Q24.7277 685.193 26.2555 686.626 Q27.7833 688.058 28.3562 690.668 Z" fill="#000000" fill-rule="nonzero" fill-opacity="1" /><path clip-path="url(#clip800)" d="M14.5426 675.995 L14.5426 670.902 Q22.0542 666.128 29.2474 663.773 Q36.4406 661.386 43.5384 661.386 Q50.668 661.386 57.8931 663.773 Q65.1182 666.128 72.5979 670.902 L72.5979 675.995 Q65.3091 671.762 58.1159 669.693 Q50.8908 667.592 43.5384 667.592 Q36.186 667.592 29.0246 669.693 Q21.8632 671.762 14.5426 675.995 Z" fill="#000000" fill-rule="nonzero" fill-opacity="1" /><path clip-path="url(#clip800)" d="M16.4842 618.513 L16.4842 613.102 L70.0516 629.653 L70.0516 635.063 L16.4842 618.513 Z" fill="#000000" fill-rule="nonzero" fill-opacity="1" /><path clip-path="url(#clip800)" d="M64.9272 578.472 Q64.9272 582.96 62.2218 585.888 Q59.0071 589.358 53.1825 589.358 Q47.135 589.358 42.4244 586.302 Q37.5865 583.151 37.5865 577.486 Q37.5865 573.762 39.91 570.834 Q41.2786 569.115 43.5702 567.937 Q40.9921 567.523 38.0639 567.523 Q33.7671 567.523 31.2844 568.542 Q25.7781 570.802 25.7781 576.785 Q25.7781 579.045 27.1785 582.546 L21.8314 582.546 Q20.8447 578.854 20.8447 575.544 Q20.8447 567.014 28.6745 563.386 Q32.3666 561.699 37.8729 561.699 Q41.4696 561.699 45.6391 562.494 Q56.0789 564.5 61.0441 569.688 Q64.9272 573.762 64.9272 578.472 M54.1373 583.915 Q57.3202 583.915 59.0389 582.515 Q60.8531 581.019 60.8531 578.727 Q60.8531 576.69 59.4208 575.067 Q57.4475 572.775 54.2328 571.088 Q51.591 569.688 48.7583 568.987 Q41.9152 571.82 41.9152 576.722 Q41.9152 580.923 47.4533 582.769 Q50.8908 583.915 54.1373 583.915 Z" fill="#000000" fill-rule="nonzero" fill-opacity="1" /><path clip-path="url(#clip800)" d="M14.479 531.812 L14.479 525.955 L64.0042 525.955 L64.0042 531.812 L14.479 531.812 Z" fill="#000000" fill-rule="nonzero" fill-opacity="1" /><path clip-path="url(#clip800)" d="M45.7664 490.244 Q39.4007 490.244 35.8996 492.885 Q32.3984 495.495 32.3984 500.238 Q32.3984 504.948 35.8996 507.59 Q39.4007 510.2 45.7664 510.2 Q52.1003 510.2 55.6014 507.59 Q59.1026 504.948 59.1026 500.238 Q59.1026 495.495 55.6014 492.885 Q52.1003 490.244 45.7664 490.244 M59.58 484.387 Q68.683 484.387 73.1071 488.429 Q77.5631 492.472 77.5631 500.811 Q77.5631 503.898 77.0857 506.635 Q76.6401 509.373 75.6852 511.951 L69.9879 511.951 Q71.3884 509.373 72.0568 506.858 Q72.7252 504.344 72.7252 501.734 Q72.7252 495.973 69.7015 493.108 Q66.7096 490.244 60.6303 490.244 L57.7339 490.244 Q60.885 492.058 62.4446 494.891 Q64.0042 497.723 64.0042 501.67 Q64.0042 508.227 59.0071 512.237 Q54.01 516.248 45.7664 516.248 Q37.491 516.248 32.4939 512.237 Q27.4968 508.227 27.4968 501.67 Q27.4968 497.723 29.0564 494.891 Q30.616 492.058 33.7671 490.244 L28.3562 490.244 L28.3562 484.387 L59.58 484.387 Z" fill="#000000" fill-rule="nonzero" fill-opacity="1" /><path clip-path="url(#clip800)" d="M14.5426 458.256 Q21.8632 462.521 29.0246 464.59 Q36.186 466.659 43.5384 466.659 Q50.8908 466.659 58.1159 464.59 Q65.3091 462.489 72.5979 458.256 L72.5979 463.349 Q65.1182 468.123 57.8931 470.51 Q50.668 472.865 43.5384 472.865 Q36.4406 472.865 29.2474 470.51 Q22.0542 468.155 14.5426 463.349 L14.5426 458.256 Z" fill="#000000" fill-rule="nonzero" fill-opacity="1" /><path clip-path="url(#clip800)" d="M41.4059 422.958 L41.4059 443.233 Q50.9226 442.755 54.9649 440.559 Q59.9301 437.822 59.9301 433.08 Q59.9301 428.305 54.933 425.664 Q50.5407 423.34 41.4059 422.958 M35.995 423.054 Q26.9557 423.945 23.7729 425.664 Q18.744 428.401 18.744 433.08 Q18.744 437.949 23.7092 440.527 Q27.7196 442.565 35.995 443.169 L35.995 423.054 M13.9697 433.08 Q13.9697 425.441 20.7174 421.08 Q27.4332 416.72 39.337 416.72 Q51.2091 416.72 57.9567 421.08 Q64.7362 425.441 64.7362 433.08 Q64.7362 440.75 57.9567 445.079 Q51.2091 449.439 39.337 449.439 Q27.4332 449.439 20.7174 445.079 Q13.9697 440.75 13.9697 433.08 Z" fill="#000000" fill-rule="nonzero" fill-opacity="1" /><path clip-path="url(#clip800)" d="M44.0477 409.272 L44.0477 405.58 L64.0042 405.58 L64.0042 409.272 L44.0477 409.272 M36.2815 409.272 L36.2815 405.58 L40.4192 405.58 L40.4192 409.272 L36.2815 409.272 Z" fill="#000000" fill-rule="nonzero" fill-opacity="1" /><path clip-path="url(#clip800)" d="M14.5426 396.286 L14.5426 391.193 Q22.0542 386.419 29.2474 384.064 Q36.4406 381.677 43.5384 381.677 Q50.668 381.677 57.8931 384.064 Q65.1182 386.419 72.5979 391.193 L72.5979 396.286 Q65.3091 392.053 58.1159 389.984 Q50.8908 387.883 43.5384 387.883 Q36.186 387.883 29.0246 389.984 Q21.8632 392.053 14.5426 396.286 Z" fill="#000000" fill-rule="nonzero" fill-opacity="1" /><polyline clip-path="url(#clip801)" style="stroke:#009af9; stroke-linecap:round; stroke-linejoin:round; stroke-width:4; stroke-opacity:1; fill:none" points="273.033,526.963 293.429,528.295 313.824,529.764 334.22,531.378 354.615,533.147 375.011,535.083 395.406,537.195 415.801,539.493 436.197,541.988 456.592,544.692 476.988,547.612 497.383,550.77 517.779,554.172 538.174,557.827 558.569,561.751 578.965,565.984 599.36,570.47 619.756,575.259 640.151,580.361 660.547,585.788 680.942,591.549 701.337,597.657 721.733,604.117 742.128,610.936 762.524,618.122 782.919,625.691 803.315,633.646 823.71,641.944 844.106,650.661 864.501,659.777 884.896,669.3 905.292,679.261 925.687,689.591 946.083,700.338 966.478,711.511 986.874,723.157 1007.27,735.211 1027.66,747.724 1048.06,760.71 1068.46,774.171 1088.85,788.127 1109.25,802.581 1129.64,817.605 1150.04,833.192 1170.43,849.364 1190.83,866.086 1211.22,883.325 1231.62,901.11 1252.01,919.307 1272.41,937.733 1292.81,956.163 1313.2,974.236 1333.6,991.565 1353.99,1007.47 1374.39,1021.48 1394.78,1033.05 1415.18,1041.93 1435.57,1048.32 1455.97,1053.12 1476.36,1057.72 1496.76,1063.91 1517.15,1073.52 1537.55,1087.71 1557.95,1106.6 1578.34,1128.53 1598.74,1149.88 1619.13,1165.54 1639.53,1171.62 1659.92,1169.4 1680.32,1166.9 1700.71,1173.71 1721.11,1193.17 1741.5,1217.74 1761.9,1232.76 1782.3,1230.68 1802.69,1225.82 1823.09,1237.9 1843.48,1260.69 1863.88,1269.02 1884.27,1263.16 1904.67,1272.91 1925.06,1291.53 1945.46,1291.11 1965.85,1294.41 1986.25,1309.91 2006.65,1310.06 2027.04,1318.1 2047.44,1325.57 2067.83,1329.14 2088.23,1337.02 2108.62,1341.07 2129.02,1347.19 2149.41,1352.21 2169.81,1357.03 2190.2,1362.15 2210.6,1366.82 2231,1371.35 2251.39,1375.76 2271.79,1380.05 2292.18,1384.24 "/>
<polyline clip-path="url(#clip801)" style="stroke:#e26f46; stroke-linecap:round; stroke-linejoin:round; stroke-width:4; stroke-opacity:1; fill:none" points="273.033,692.131 293.429,691.558 313.824,690.944 334.22,690.257 354.615,689.509 375.011,688.696 395.406,687.816 415.801,686.845 436.197,685.802 456.592,684.678 476.988,683.445 497.383,682.136 517.779,680.719 538.174,679.193 558.569,677.561 578.965,675.839 599.36,673.968 619.756,671.973 640.151,669.848 660.547,667.585 680.942,665.177 701.337,662.627 721.733,659.924 742.128,657.066 762.524,654.045 782.919,650.859 803.315,647.496 823.71,643.921 844.106,640.174 864.501,636.226 884.896,632.068 905.292,627.704 925.687,623.077 946.083,618.197 966.478,613.043 986.874,607.626 1007.27,601.857 1027.66,595.74 1048.06,589.248 1068.46,582.327 1088.85,574.942 1109.25,567.044 1129.64,558.611 1150.04,549.581 1170.43,539.918 1190.83,529.576 1211.22,518.559 1231.62,506.925 1252.01,494.728 1272.41,482.104 1292.81,469.343 1313.2,456.776 1333.6,444.946 1353.99,434.383 1374.39,425.78 1394.78,419.672 1415.18,416.317 1435.57,415.487 1455.97,416.279 1476.36,417.144 1496.76,416.077 1517.15,411.124 1537.55,400.909 1557.95,385.393 1578.34,366.472 1598.74,348.488 1619.13,337.401 1639.53,337.895 1659.92,348.399 1680.32,359.042 1700.71,357.553 1721.11,339.307 1741.5,313.32 1761.9,299.317 1782.3,309.683 1802.69,327.051 1823.09,321.074 1843.48,294.009 1863.88,282.755 1884.27,299.437 1904.67,300.813 1925.06,278.057 1945.46,277.575 1965.85,286.402 1986.25,271.049 2006.65,270.552 2027.04,271.077 2047.44,262.252 2067.83,264.029 2088.23,257.658 2108.62,257.08 2129.02,252.9 2149.41,250.962 2169.81,248.201 2190.2,245.603 2210.6,243.301 2231,240.966 2251.39,238.694 2271.79,236.504 2292.18,234.397 "/>
<polyline clip-path="url(#clip801)" style="stroke:#3da44d; stroke-linecap:round; stroke-linejoin:round; stroke-width:4; stroke-opacity:1; fill:none" points="273.033,546.053 293.429,545.947 313.824,545.833 334.22,545.706 354.615,545.567 375.011,545.416 395.406,545.253 415.801,545.072 436.197,544.879 456.592,544.671 476.988,544.442 497.383,544.2 517.779,543.938 538.174,543.656 558.569,543.355 578.965,543.034 599.36,542.69 619.756,542.324 640.151,541.936 660.547,541.523 680.942,541.086 701.337,540.625 721.733,540.138 742.128,539.627 762.524,539.091 782.919,538.53 803.315,537.945 823.71,537.335 844.106,536.704 864.501,536.052 884.896,535.38 905.292,534.69 925.687,533.985 946.083,533.273 966.478,532.555 986.874,531.845 1007.27,531.129 1027.66,530.436 1048.06,529.776 1068.46,529.16 1088.85,528.605 1109.25,528.136 1129.64,527.793 1150.04,527.601 1170.43,527.615 1190.83,527.855 1211.22,528.41 1231.62,529.358 1252.01,530.787 1272.41,532.742 1292.81,535.342 1313.2,538.645 1333.6,542.66 1353.99,547.291 1374.39,552.348 1394.78,557.415 1415.18,561.967 1435.57,565.261 1455.97,566.607 1476.36,565.454 1496.76,561.637 1517.15,555.65 1537.55,548.592 1557.95,542.41 1578.34,539.617 1598.74,542.713 1619.13,552.664 1639.53,566.844 1659.92,578.294 1680.32,579.225 1700.71,567.509 1721.11,550.251 1741.5,541.084 1761.9,550.842 1782.3,572.705 1802.69,581.24 1823.09,564.647 1843.48,546.598 1863.88,556.028 1884.27,576.349 1904.67,568.035 1925.06,552.285 1945.46,565.31 1965.85,570.498 1986.25,557.665 2006.65,566.174 2027.04,565.238 2047.44,562.232 2067.83,566.266 2088.23,563.123 2108.62,565.398 2129.02,564.225 2149.41,564.763 2169.81,564.864 2190.2,564.709 2210.6,564.862 2231,564.924 2251.39,564.95 2271.79,564.978 2292.18,565.012 "/>
<polyline clip-path="url(#clip801)" style="stroke:#c271d2; stroke-linecap:round; stroke-linejoin:round; stroke-width:4; stroke-opacity:1; fill:none" points="273.033,513.753 293.429,513.851 313.824,513.958 334.22,514.076 354.615,514.205 375.011,514.347 395.406,514.502 415.801,514.67 436.197,514.853 456.592,515.051 476.988,515.265 497.383,515.499 517.779,515.752 538.174,516.024 558.569,516.318 578.965,516.641 599.36,516.979 619.756,517.341 640.151,517.729 660.547,518.142 680.942,518.583 701.337,519.053 721.733,519.551 742.128,520.078 762.524,520.636 782.919,521.225 803.315,521.845 823.71,522.482 844.106,523.155 864.501,523.858 884.896,524.588 905.292,525.351 925.687,526.126 946.083,526.922 966.478,527.737 986.874,528.578 1007.27,529.418 1027.66,530.266 1048.06,531.12 1068.46,531.968 1088.85,532.808 1109.25,533.633 1129.64,534.453 1150.04,535.258 1170.43,536.051 1190.83,536.823 1211.22,537.587 1231.62,538.374 1252.01,539.196 1272.41,540.07 1292.81,541.054 1313.2,542.186 1333.6,543.534 1353.99,545.106 1374.39,546.943 1394.78,548.994 1415.18,551.155 1435.57,553.222 1455.97,554.939 1476.36,556.007 1496.76,556.168 1517.15,555.34 1537.55,553.641 1557.95,551.56 1578.34,549.952 1598.74,549.97 1619.13,552.569 1639.53,557.648 1659.92,563.226 1680.32,566.053 1700.71,563.974 1721.11,558.164 1741.5,553.288 1761.9,554.906 1782.3,563.222 1802.69,569.351 1823.09,565.522 1843.48,557.612 1863.88,558.8 1884.27,567.759 1904.67,567.522 1925.06,560.567 1945.46,564.119 1965.85,568.393 1986.25,563.533 2006.65,565.944 2027.04,567.15 2047.44,565.384 2067.83,567.614 2088.23,566.45 2108.62,567.673 2129.02,567.328 2149.41,567.854 2169.81,568.018 2190.2,568.186 2210.6,568.445 2231,568.645 2251.39,568.828 2271.79,569.01 2292.18,569.193 "/>
<polyline clip-path="url(#clip801)" style="stroke:#ac8d18; stroke-linecap:round; stroke-linejoin:round; stroke-width:4; stroke-opacity:1; fill:none" points="273.033,512.529 293.429,511.866 313.824,511.132 334.22,510.325 354.615,509.438 375.011,508.464 395.406,507.4 415.801,506.239 436.197,504.978 456.592,503.612 476.988,502.135 497.383,500.532 517.779,498.799 538.174,496.938 558.569,494.94 578.965,492.751 599.36,490.47 619.756,488.034 640.151,485.439 660.547,482.68 680.942,479.751 701.337,476.647 721.733,473.367 742.128,469.908 762.524,466.268 782.919,462.435 803.315,458.417 823.71,454.293 844.106,449.944 864.501,445.416 884.896,440.711 905.292,435.792 925.687,430.782 946.083,425.618 966.478,420.308 986.874,414.779 1007.27,409.201 1027.66,403.491 1048.06,397.653 1068.46,391.725 1088.85,385.709 1109.25,379.625 1129.64,373.379 1150.04,367.021 1170.43,360.508 1190.83,353.901 1211.22,347.141 1231.62,340.059 1252.01,332.647 1272.41,324.914 1292.81,316.66 1313.2,307.859 1333.6,298.347 1353.99,288.356 1374.39,277.859 1394.78,267.27 1415.18,257.116 1435.57,248.166 1455.97,241.136 1476.36,236.752 1496.76,235.414 1517.15,236.771 1537.55,239.948 1557.95,242.931 1578.34,242.919 1598.74,236.618 1619.13,222.121 1639.53,201.182 1659.92,181.103 1680.32,171.728 1700.71,178.089 1721.11,194.474 1741.5,205.554 1761.9,194.972 1782.3,164.368 1802.69,142.707 1823.09,153.26 1843.48,176.303 1863.88,170.044 1884.27,138.182 1904.67,135.125 1925.06,155.716 1945.46,143.533 1965.85,125.686 1986.25,138.818 2006.65,130.596 2027.04,122.77 2047.44,127.386 2067.83,117.797 2088.23,119.578 2108.62,113.724 2129.02,113.024 2149.41,109.376 2169.81,107.221 2190.2,104.86 2210.6,102.334 2231,100.078 2251.39,97.9133 2271.79,95.783 2292.18,93.6694 "/>
<polyline clip-path="url(#clip801)" style="stroke:#00a9ad; stroke-linecap:round; stroke-linejoin:round; stroke-width:4; stroke-opacity:1; fill:none" points="273.033,512.852 293.429,512.852 313.824,512.852 334.22,512.852 354.615,512.852 375.011,512.852 395.406,512.853 415.801,512.853 436.197,512.853 456.592,512.854 476.988,512.854 497.383,512.854 517.779,512.855 538.174,512.855 558.569,512.856 578.965,512.858 599.36,512.858 619.756,512.859 640.151,512.859 660.547,512.86 680.942,512.86 701.337,512.861 721.733,512.862 742.128,512.863 762.524,512.864 782.919,512.865 803.315,512.867 823.71,512.865 844.106,512.864 864.501,512.864 884.896,512.864 905.292,512.865 925.687,512.863 946.083,512.86 966.478,512.857 986.874,512.852 1007.27,512.849 1027.66,512.842 1048.06,512.834 1068.46,512.823 1088.85,512.81 1109.25,512.793 1129.64,512.773 1150.04,512.75 1170.43,512.721 1190.83,512.691 1211.22,512.655 1231.62,512.619 1252.01,512.578 1272.41,512.538 1292.81,512.501 1313.2,512.469 1333.6,512.446 1353.99,512.44 1374.39,512.454 1394.78,512.498 1415.18,512.571 1435.57,512.667 1455.97,512.778 1476.36,512.881 1496.76,512.956 1517.15,512.964 1537.55,512.893 1557.95,512.732 1578.34,512.499 1598.74,512.262 1619.13,512.135 1639.53,512.231 1659.92,512.578 1680.32,513.014 1700.71,513.241 1721.11,513.027 1741.5,512.423 1761.9,511.915 1782.3,512.137 1802.69,512.988 1823.09,513.401 1843.48,512.713 1863.88,511.904 1884.27,512.434 1904.67,513.28 1925.06,512.663 1945.46,512.116 1965.85,512.928 1986.25,512.746 2006.65,512.351 2027.04,512.875 2047.44,512.499 2067.83,512.713 2088.23,512.602 2108.62,512.67 2129.02,512.607 2149.41,512.661 2169.81,512.628 2190.2,512.64 2210.6,512.645 2231,512.639 2251.39,512.637 2271.79,512.641 2292.18,512.641 "/>
<polyline clip-path="url(#clip801)" style="stroke:#ed5d92; stroke-linecap:round; stroke-linejoin:round; stroke-width:4; stroke-opacity:1; fill:none" points="273.033,513.547 293.429,513.534 313.824,513.522 334.22,513.511 354.615,513.503 375.011,513.497 395.406,513.496 415.801,513.498 436.197,513.505 456.592,513.518 476.988,513.536 497.383,513.559 517.779,513.588 538.174,513.622 558.569,513.661 578.965,513.704 599.36,513.752 619.756,513.804 640.151,513.86 660.547,513.919 680.942,513.981 701.337,514.046 721.733,514.117 742.128,514.192 762.524,514.27 782.919,514.349 803.315,514.428 823.71,514.509 844.106,514.593 864.501,514.677 884.896,514.76 905.292,514.843 925.687,514.926 946.083,515.008 966.478,515.088 986.874,515.167 1007.27,515.244 1027.66,515.319 1048.06,515.391 1068.46,515.461 1088.85,515.529 1109.25,515.593 1129.64,515.655 1150.04,515.713 1170.43,515.769 1190.83,515.822 1211.22,515.871 1231.62,515.918 1252.01,515.962 1272.41,516.003 1292.81,516.041 1313.2,516.077 1333.6,516.111 1353.99,516.142 1374.39,516.171 1394.78,516.198 1415.18,516.223 1435.57,516.246 1455.97,516.267 1476.36,516.286 1496.76,516.303 1517.15,516.318 1537.55,516.331 1557.95,516.343 1578.34,516.354 1598.74,516.364 1619.13,516.374 1639.53,516.385 1659.92,516.394 1680.32,516.401 1700.71,516.407 1721.11,516.41 1741.5,516.413 1761.9,516.418 1782.3,516.425 1802.69,516.43 1823.09,516.431 1843.48,516.432 1863.88,516.435 1884.27,516.439 1904.67,516.441 1925.06,516.44 1945.46,516.443 1965.85,516.445 1986.25,516.445 2006.65,516.447 2027.04,516.448 2047.44,516.448 2067.83,516.449 2088.23,516.449 2108.62,516.45 2129.02,516.45 2149.41,516.451 2169.81,516.451 2190.2,516.452 2210.6,516.452 2231,516.452 2251.39,516.452 2271.79,516.452 2292.18,516.453 "/>
<polyline clip-path="url(#clip801)" style="stroke:#c68125; stroke-linecap:round; stroke-linejoin:round; stroke-width:4; stroke-opacity:1; fill:none" points="273.033,86.1857 293.429,86.1857 313.824,86.1857 334.22,86.1857 354.615,86.1857 375.011,86.1857 395.406,86.1857 415.801,86.1857 436.197,86.1857 456.592,86.1857 476.988,86.1857 497.383,86.1857 517.779,86.1857 538.174,86.1857 558.569,86.1857 578.965,86.1857 599.36,86.1857 619.756,86.1857 640.151,86.1857 660.547,86.1857 680.942,86.1857 701.337,86.1857 721.733,86.1857 742.128,86.1857 762.524,86.1857 782.919,86.1857 803.315,86.1857 823.71,86.1857 844.106,86.1857 864.501,86.1857 884.896,86.1857 905.292,86.1857 925.687,86.1857 946.083,86.1857 966.478,86.1857 986.874,86.1857 1007.27,86.1857 1027.66,86.1857 1048.06,86.1857 1068.46,86.1857 1088.85,86.1857 1109.25,86.1857 1129.64,86.1857 1150.04,86.1857 1170.43,86.1857 1190.83,86.1857 1211.22,86.1857 1231.62,86.1857 1252.01,86.1857 1272.41,86.1857 1292.81,86.1857 1313.2,86.1857 1333.6,86.1857 1353.99,86.1857 1374.39,86.1857 1394.78,86.1857 1415.18,86.1857 1435.57,86.1857 1455.97,86.1857 1476.36,86.1857 1496.76,86.1857 1517.15,86.1857 1537.55,86.1857 1557.95,86.1857 1578.34,86.1857 1598.74,86.1857 1619.13,86.1857 1639.53,86.1857 1659.92,86.1857 1680.32,86.1857 1700.71,86.1857 1721.11,86.1857 1741.5,86.1857 1761.9,86.1857 1782.3,86.1857 1802.69,86.1857 1823.09,86.1857 1843.48,86.1857 1863.88,86.1857 1884.27,86.1857 1904.67,86.1857 1925.06,86.1857 1945.46,86.1857 1965.85,86.1857 1986.25,86.1857 2006.65,86.1857 2027.04,86.1857 2047.44,86.1857 2067.83,86.1857 2088.23,86.1857 2108.62,86.1857 2129.02,86.1857 2149.41,86.1857 2169.81,86.1857 2190.2,86.1857 2210.6,86.1857 2231,86.1857 2251.39,86.1857 2271.79,86.1857 2292.18,86.1857 "/>
<polyline clip-path="url(#clip801)" style="stroke:#00a98d; stroke-linecap:round; stroke-linejoin:round; stroke-width:4; stroke-opacity:1; fill:none" points="273.033,1082.39 293.429,1072.96 313.824,1063.53 334.22,1054.11 354.615,1044.68 375.011,1035.25 395.406,1025.82 415.801,1016.4 436.197,1006.97 456.592,997.541 476.988,988.114 497.383,978.687 517.779,969.259 538.174,959.832 558.569,950.404 578.965,940.977 599.36,931.55 619.756,922.122 640.151,912.695 660.547,903.267 680.942,893.84 701.337,884.413 721.733,874.985 742.128,865.558 762.524,856.13 782.919,846.703 803.315,837.276 823.71,827.848 844.106,818.421 864.501,808.993 884.896,799.566 905.292,790.139 925.687,780.711 946.083,771.284 966.478,761.856 986.874,752.429 1007.27,743.002 1027.66,733.574 1048.06,724.147 1068.46,714.719 1088.85,705.292 1109.25,695.864 1129.64,686.437 1150.04,677.01 1170.43,667.582 1190.83,658.155 1211.22,648.727 1231.62,639.3 1252.01,629.873 1272.41,620.445 1292.81,611.018 1313.2,601.59 1333.6,592.163 1353.99,582.736 1374.39,573.308 1394.78,563.881 1415.18,554.453 1435.57,545.026 1455.97,535.599 1476.36,526.171 1496.76,516.744 1517.15,507.316 1537.55,497.889 1557.95,488.462 1578.34,479.034 1598.74,469.607 1619.13,460.179 1639.53,450.752 1659.92,441.325 1680.32,431.897 1700.71,422.47 1721.11,413.042 1741.5,403.615 1761.9,394.188 1782.3,384.76 1802.69,375.333 1823.09,365.905 1843.48,356.478 1863.88,347.051 1884.27,337.623 1904.67,328.196 1925.06,318.768 1945.46,309.341 1965.85,299.914 1986.25,290.486 2006.65,281.059 2027.04,271.631 2047.44,262.204 2067.83,252.777 2088.23,243.349 2108.62,233.922 2129.02,224.494 2149.41,215.067 2169.81,205.639 2190.2,196.212 2210.6,186.785 2231,177.357 2251.39,167.93 2271.79,158.502 2292.18,149.075 "/>
<path clip-path="url(#clip800)" d="M283.802 1377.32 L804.011 1377.32 L804.011 858.915 L283.802 858.915  Z" fill="#ffffff" fill-rule="evenodd" fill-opacity="1"/>
<polyline clip-path="url(#clip800)" style="stroke:#000000; stroke-linecap:round; stroke-linejoin:round; stroke-width:4; stroke-opacity:1; fill:none" points="283.802,1377.32 804.011,1377.32 804.011,858.915 283.802,858.915 283.802,1377.32 "/>
<polyline clip-path="url(#clip800)" style="stroke:#009af9; stroke-linecap:round; stroke-linejoin:round; stroke-width:4; stroke-opacity:1; fill:none" points="307.583,910.755 450.27,910.755 "/>
<path clip-path="url(#clip800)" d="M493.31 911.6 L478.565 911.6 Q478.912 918.521 480.509 921.461 Q482.5 925.072 485.949 925.072 Q489.421 925.072 491.342 921.438 Q493.032 918.244 493.31 911.6 M493.24 907.665 Q492.592 901.091 491.342 898.776 Q489.352 895.119 485.949 895.119 Q482.407 895.119 480.532 898.73 Q479.051 901.647 478.611 907.665 L493.24 907.665 M485.949 891.647 Q491.504 891.647 494.676 896.554 Q497.847 901.438 497.847 910.096 Q497.847 918.73 494.676 923.637 Q491.504 928.568 485.949 928.568 Q480.37 928.568 477.222 923.637 Q474.051 918.73 474.051 910.096 Q474.051 901.438 477.222 896.554 Q480.37 891.647 485.949 891.647 Z" fill="#000000" fill-rule="nonzero" fill-opacity="1" /><path clip-path="url(#clip800)" d="M503.264 913.522 L505.949 913.522 L505.949 928.035 L503.264 928.035 L503.264 913.522 M503.264 907.873 L505.949 907.873 L505.949 910.883 L503.264 910.883 L503.264 907.873 Z" fill="#000000" fill-rule="nonzero" fill-opacity="1" /><path clip-path="url(#clip800)" d="M513.935 906.508 L543.611 906.508 L543.611 910.397 L513.935 910.397 L513.935 906.508 M513.935 915.952 L543.611 915.952 L543.611 919.887 L513.935 919.887 L513.935 915.952 Z" fill="#000000" fill-rule="nonzero" fill-opacity="1" /><path clip-path="url(#clip800)" d="M548.495 893.475 L577.731 893.475 L577.731 897.41 L565.462 897.41 L565.462 928.035 L560.763 928.035 L560.763 897.41 L548.495 897.41 L548.495 893.475 Z" fill="#000000" fill-rule="nonzero" fill-opacity="1" /><path clip-path="url(#clip800)" d="M585.948 906.184 L591.62 922.202 L599.721 902.11 L604.235 902.11 L593.749 928.035 L593.749 937.896 L589.49 937.896 L589.49 928.035 L582.684 908.684 Q581.666 905.767 579.467 905.767 L578.333 905.767 L578.333 902.11 L579.953 902.11 Q584.513 902.11 585.948 906.184 Z" fill="#000000" fill-rule="nonzero" fill-opacity="1" /><path clip-path="url(#clip800)" d="M620.717 896.554 Q617.106 896.554 615.277 900.119 Q613.471 903.66 613.471 910.79 Q613.471 917.896 615.277 921.461 Q617.106 925.003 620.717 925.003 Q624.351 925.003 626.156 921.461 Q627.985 917.896 627.985 910.79 Q627.985 903.66 626.156 900.119 Q624.351 896.554 620.717 896.554 M620.717 892.85 Q626.527 892.85 629.582 897.457 Q632.661 902.04 632.661 910.79 Q632.661 919.517 629.582 924.123 Q626.527 928.707 620.717 928.707 Q614.906 928.707 611.828 924.123 Q608.772 919.517 608.772 910.79 Q608.772 902.04 611.828 897.457 Q614.906 892.85 620.717 892.85 Z" fill="#000000" fill-rule="nonzero" fill-opacity="1" /><polyline clip-path="url(#clip800)" style="stroke:#e26f46; stroke-linecap:round; stroke-linejoin:round; stroke-width:4; stroke-opacity:1; fill:none" points="307.583,962.595 450.27,962.595 "/>
<path clip-path="url(#clip800)" d="M493.31 963.44 L478.565 963.44 Q478.912 970.361 480.509 973.301 Q482.5 976.912 485.949 976.912 Q489.421 976.912 491.342 973.278 Q493.032 970.084 493.31 963.44 M493.24 959.505 Q492.592 952.931 491.342 950.616 Q489.352 946.959 485.949 946.959 Q482.407 946.959 480.532 950.57 Q479.051 953.487 478.611 959.505 L493.24 959.505 M485.949 943.487 Q491.504 943.487 494.676 948.394 Q497.847 953.278 497.847 961.936 Q497.847 970.57 494.676 975.477 Q491.504 980.408 485.949 980.408 Q480.37 980.408 477.222 975.477 Q474.051 970.57 474.051 961.936 Q474.051 953.278 477.222 948.394 Q480.37 943.487 485.949 943.487 Z" fill="#000000" fill-rule="nonzero" fill-opacity="1" /><path clip-path="url(#clip800)" d="M503.264 965.362 L505.949 965.362 L505.949 979.875 L503.264 979.875 L503.264 965.362 M503.264 959.713 L505.949 959.713 L505.949 962.723 L503.264 962.723 L503.264 959.713 Z" fill="#000000" fill-rule="nonzero" fill-opacity="1" /><path clip-path="url(#clip800)" d="M513.935 958.348 L543.611 958.348 L543.611 962.237 L513.935 962.237 L513.935 958.348 M513.935 967.792 L543.611 967.792 L543.611 971.727 L513.935 971.727 L513.935 967.792 Z" fill="#000000" fill-rule="nonzero" fill-opacity="1" /><path clip-path="url(#clip800)" d="M583.055 975.755 L583.055 979.875 L569.166 979.875 L569.166 975.755 Q573.263 973.51 575.555 969.667 Q577.846 965.824 577.846 961.149 Q577.846 955.593 574.791 952.237 Q571.735 948.88 566.735 948.88 Q561.735 948.88 558.657 952.26 Q555.601 955.616 555.601 961.149 Q555.601 965.824 557.893 969.667 Q560.208 973.51 564.328 975.755 L564.328 979.875 L550.439 979.875 L550.439 975.755 L557.823 975.755 Q554.166 972.537 552.476 969.088 Q550.81 965.639 550.81 961.38 Q550.81 954.019 555.254 949.459 Q559.675 944.899 566.735 944.899 Q573.749 944.899 578.217 949.459 Q582.661 953.996 582.661 961.149 Q582.661 965.639 581.018 969.065 Q579.374 972.491 575.647 975.755 L583.055 975.755 Z" fill="#000000" fill-rule="nonzero" fill-opacity="1" /><path clip-path="url(#clip800)" d="M607.985 954.945 L607.985 958.926 Q606.18 957.931 604.351 957.445 Q602.545 956.936 600.694 956.936 Q596.55 956.936 594.258 959.575 Q591.967 962.19 591.967 966.936 Q591.967 971.681 594.258 974.32 Q596.55 976.936 600.694 976.936 Q602.545 976.936 604.351 976.449 Q606.18 975.94 607.985 974.945 L607.985 978.88 Q606.203 979.713 604.282 980.13 Q602.383 980.547 600.231 980.547 Q594.374 980.547 590.925 976.866 Q587.476 973.186 587.476 966.936 Q587.476 960.593 590.948 956.959 Q594.444 953.325 600.508 953.325 Q602.476 953.325 604.351 953.741 Q606.226 954.135 607.985 954.945 Z" fill="#000000" fill-rule="nonzero" fill-opacity="1" /><path clip-path="url(#clip800)" d="M625.994 948.394 Q622.383 948.394 620.555 951.959 Q618.749 955.5 618.749 962.63 Q618.749 969.736 620.555 973.301 Q622.383 976.843 625.994 976.843 Q629.629 976.843 631.434 973.301 Q633.263 969.736 633.263 962.63 Q633.263 955.5 631.434 951.959 Q629.629 948.394 625.994 948.394 M625.994 944.69 Q631.805 944.69 634.86 949.297 Q637.939 953.88 637.939 962.63 Q637.939 971.357 634.86 975.963 Q631.805 980.547 625.994 980.547 Q620.184 980.547 617.106 975.963 Q614.05 971.357 614.05 962.63 Q614.05 953.88 617.106 949.297 Q620.184 944.69 625.994 944.69 Z" fill="#000000" fill-rule="nonzero" fill-opacity="1" /><polyline clip-path="url(#clip800)" style="stroke:#3da44d; stroke-linecap:round; stroke-linejoin:round; stroke-width:4; stroke-opacity:1; fill:none" points="307.583,1014.44 450.27,1014.44 "/>
<path clip-path="url(#clip800)" d="M493.31 1015.28 L478.565 1015.28 Q478.912 1022.2 480.509 1025.14 Q482.5 1028.75 485.949 1028.75 Q489.421 1028.75 491.342 1025.12 Q493.032 1021.92 493.31 1015.28 M493.24 1011.35 Q492.592 1004.77 491.342 1002.46 Q489.352 998.799 485.949 998.799 Q482.407 998.799 480.532 1002.41 Q479.051 1005.33 478.611 1011.35 L493.24 1011.35 M485.949 995.327 Q491.504 995.327 494.676 1000.23 Q497.847 1005.12 497.847 1013.78 Q497.847 1022.41 494.676 1027.32 Q491.504 1032.25 485.949 1032.25 Q480.37 1032.25 477.222 1027.32 Q474.051 1022.41 474.051 1013.78 Q474.051 1005.12 477.222 1000.23 Q480.37 995.327 485.949 995.327 Z" fill="#000000" fill-rule="nonzero" fill-opacity="1" /><path clip-path="url(#clip800)" d="M503.264 1017.2 L505.949 1017.2 L505.949 1031.72 L503.264 1031.72 L503.264 1017.2 M503.264 1011.55 L505.949 1011.55 L505.949 1014.56 L503.264 1014.56 L503.264 1011.55 Z" fill="#000000" fill-rule="nonzero" fill-opacity="1" /><path clip-path="url(#clip800)" d="M513.935 1010.19 L543.611 1010.19 L543.611 1014.08 L513.935 1014.08 L513.935 1010.19 M513.935 1019.63 L543.611 1019.63 L543.611 1023.57 L513.935 1023.57 L513.935 1019.63 Z" fill="#000000" fill-rule="nonzero" fill-opacity="1" /><path clip-path="url(#clip800)" d="M583.055 1027.59 L583.055 1031.72 L569.166 1031.72 L569.166 1027.59 Q573.263 1025.35 575.555 1021.51 Q577.846 1017.66 577.846 1012.99 Q577.846 1007.43 574.791 1004.08 Q571.735 1000.72 566.735 1000.72 Q561.735 1000.72 558.657 1004.1 Q555.601 1007.46 555.601 1012.99 Q555.601 1017.66 557.893 1021.51 Q560.208 1025.35 564.328 1027.59 L564.328 1031.72 L550.439 1031.72 L550.439 1027.59 L557.823 1027.59 Q554.166 1024.38 552.476 1020.93 Q550.81 1017.48 550.81 1013.22 Q550.81 1005.86 555.254 1001.3 Q559.675 996.739 566.735 996.739 Q573.749 996.739 578.217 1001.3 Q582.661 1005.84 582.661 1012.99 Q582.661 1017.48 581.018 1020.91 Q579.374 1024.33 575.647 1027.59 L583.055 1027.59 Z" fill="#000000" fill-rule="nonzero" fill-opacity="1" /><path clip-path="url(#clip800)" d="M607.939 1018.78 Q607.939 1014.08 605.994 1011.41 Q604.073 1008.73 600.694 1008.73 Q597.314 1008.73 595.37 1011.41 Q593.448 1014.08 593.448 1018.78 Q593.448 1023.47 595.37 1026.16 Q597.314 1028.82 600.694 1028.82 Q604.073 1028.82 605.994 1026.16 Q607.939 1023.47 607.939 1018.78 M593.448 1009.72 Q594.791 1007.41 596.828 1006.3 Q598.888 1005.16 601.735 1005.16 Q606.457 1005.16 609.397 1008.91 Q612.36 1012.66 612.36 1018.78 Q612.36 1024.89 609.397 1028.64 Q606.457 1032.39 601.735 1032.39 Q598.888 1032.39 596.828 1031.28 Q594.791 1030.14 593.448 1027.83 L593.448 1031.72 L589.166 1031.72 L589.166 995.697 L593.448 995.697 L593.448 1009.72 Z" fill="#000000" fill-rule="nonzero" fill-opacity="1" /><path clip-path="url(#clip800)" d="M630.022 1000.23 Q626.411 1000.23 624.582 1003.8 Q622.777 1007.34 622.777 1014.47 Q622.777 1021.58 624.582 1025.14 Q626.411 1028.68 630.022 1028.68 Q633.656 1028.68 635.462 1025.14 Q637.291 1021.58 637.291 1014.47 Q637.291 1007.34 635.462 1003.8 Q633.656 1000.23 630.022 1000.23 M630.022 996.53 Q635.832 996.53 638.888 1001.14 Q641.967 1005.72 641.967 1014.47 Q641.967 1023.2 638.888 1027.8 Q635.832 1032.39 630.022 1032.39 Q624.212 1032.39 621.133 1027.8 Q618.078 1023.2 618.078 1014.47 Q618.078 1005.72 621.133 1001.14 Q624.212 996.53 630.022 996.53 Z" fill="#000000" fill-rule="nonzero" fill-opacity="1" /><polyline clip-path="url(#clip800)" style="stroke:#c271d2; stroke-linecap:round; stroke-linejoin:round; stroke-width:4; stroke-opacity:1; fill:none" points="307.583,1066.28 450.27,1066.28 "/>
<path clip-path="url(#clip800)" d="M493.31 1067.12 L478.565 1067.12 Q478.912 1074.04 480.509 1076.98 Q482.5 1080.59 485.949 1080.59 Q489.421 1080.59 491.342 1076.96 Q493.032 1073.76 493.31 1067.12 M493.24 1063.19 Q492.592 1056.61 491.342 1054.3 Q489.352 1050.64 485.949 1050.64 Q482.407 1050.64 480.532 1054.25 Q479.051 1057.17 478.611 1063.19 L493.24 1063.19 M485.949 1047.17 Q491.504 1047.17 494.676 1052.07 Q497.847 1056.96 497.847 1065.62 Q497.847 1074.25 494.676 1079.16 Q491.504 1084.09 485.949 1084.09 Q480.37 1084.09 477.222 1079.16 Q474.051 1074.25 474.051 1065.62 Q474.051 1056.96 477.222 1052.07 Q480.37 1047.17 485.949 1047.17 Z" fill="#000000" fill-rule="nonzero" fill-opacity="1" /><path clip-path="url(#clip800)" d="M503.264 1069.04 L505.949 1069.04 L505.949 1083.56 L503.264 1083.56 L503.264 1069.04 M503.264 1063.39 L505.949 1063.39 L505.949 1066.4 L503.264 1066.4 L503.264 1063.39 Z" fill="#000000" fill-rule="nonzero" fill-opacity="1" /><path clip-path="url(#clip800)" d="M513.935 1062.03 L543.611 1062.03 L543.611 1065.92 L513.935 1065.92 L513.935 1062.03 M513.935 1071.47 L543.611 1071.47 L543.611 1075.41 L513.935 1075.41 L513.935 1071.47 Z" fill="#000000" fill-rule="nonzero" fill-opacity="1" /><path clip-path="url(#clip800)" d="M553.286 1049 L559.583 1049 L574.907 1077.91 L574.907 1049 L579.444 1049 L579.444 1083.56 L573.147 1083.56 L557.823 1054.64 L557.823 1083.56 L553.286 1083.56 L553.286 1049 Z" fill="#000000" fill-rule="nonzero" fill-opacity="1" /><path clip-path="url(#clip800)" d="M610.74 1069.53 L610.74 1071.61 L591.157 1071.61 Q591.434 1076.01 593.795 1078.32 Q596.18 1080.62 600.416 1080.62 Q602.87 1080.62 605.161 1080.01 Q607.476 1079.41 609.744 1078.21 L609.744 1082.24 Q607.453 1083.21 605.045 1083.72 Q602.638 1084.23 600.161 1084.23 Q593.958 1084.23 590.323 1080.62 Q586.712 1077 586.712 1070.85 Q586.712 1064.48 590.138 1060.75 Q593.587 1057 599.42 1057 Q604.652 1057 607.684 1060.38 Q610.74 1063.74 610.74 1069.53 M606.481 1068.28 Q606.434 1064.78 604.513 1062.7 Q602.615 1060.62 599.467 1060.62 Q595.902 1060.62 593.749 1062.63 Q591.62 1064.64 591.295 1068.3 L606.481 1068.28 Z" fill="#000000" fill-rule="nonzero" fill-opacity="1" /><path clip-path="url(#clip800)" d="M630.855 1047.54 L630.855 1051.08 L626.781 1051.08 Q624.49 1051.08 623.587 1052 Q622.707 1052.93 622.707 1055.34 L622.707 1057.63 L629.721 1057.63 L629.721 1060.94 L622.707 1060.94 L622.707 1083.56 L618.425 1083.56 L618.425 1060.94 L614.351 1060.94 L614.351 1057.63 L618.425 1057.63 L618.425 1055.82 Q618.425 1051.5 620.439 1049.53 Q622.453 1047.54 626.828 1047.54 L630.855 1047.54 Z" fill="#000000" fill-rule="nonzero" fill-opacity="1" /><path clip-path="url(#clip800)" d="M647.545 1047.54 L647.545 1051.08 L643.471 1051.08 Q641.179 1051.08 640.277 1052 Q639.397 1052.93 639.397 1055.34 L639.397 1057.63 L646.411 1057.63 L646.411 1060.94 L639.397 1060.94 L639.397 1083.56 L635.115 1083.56 L635.115 1060.94 L631.041 1060.94 L631.041 1057.63 L635.115 1057.63 L635.115 1055.82 Q635.115 1051.5 637.129 1049.53 Q639.142 1047.54 643.517 1047.54 L647.545 1047.54 Z" fill="#000000" fill-rule="nonzero" fill-opacity="1" /><polyline clip-path="url(#clip800)" style="stroke:#ac8d18; stroke-linecap:round; stroke-linejoin:round; stroke-width:4; stroke-opacity:1; fill:none" points="307.583,1118.12 450.27,1118.12 "/>
<path clip-path="url(#clip800)" d="M493.31 1118.96 L478.565 1118.96 Q478.912 1125.88 480.509 1128.82 Q482.5 1132.43 485.949 1132.43 Q489.421 1132.43 491.342 1128.8 Q493.032 1125.6 493.31 1118.96 M493.24 1115.03 Q492.592 1108.45 491.342 1106.14 Q489.352 1102.48 485.949 1102.48 Q482.407 1102.48 480.532 1106.09 Q479.051 1109.01 478.611 1115.03 L493.24 1115.03 M485.949 1099.01 Q491.504 1099.01 494.676 1103.91 Q497.847 1108.8 497.847 1117.46 Q497.847 1126.09 494.676 1131 Q491.504 1135.93 485.949 1135.93 Q480.37 1135.93 477.222 1131 Q474.051 1126.09 474.051 1117.46 Q474.051 1108.8 477.222 1103.91 Q480.37 1099.01 485.949 1099.01 Z" fill="#000000" fill-rule="nonzero" fill-opacity="1" /><path clip-path="url(#clip800)" d="M503.264 1120.88 L505.949 1120.88 L505.949 1135.4 L503.264 1135.4 L503.264 1120.88 M503.264 1115.23 L505.949 1115.23 L505.949 1118.24 L503.264 1118.24 L503.264 1115.23 Z" fill="#000000" fill-rule="nonzero" fill-opacity="1" /><path clip-path="url(#clip800)" d="M513.935 1113.87 L543.611 1113.87 L543.611 1117.76 L513.935 1117.76 L513.935 1113.87 M513.935 1123.31 L543.611 1123.31 L543.611 1127.25 L513.935 1127.25 L513.935 1123.31 Z" fill="#000000" fill-rule="nonzero" fill-opacity="1" /><path clip-path="url(#clip800)" d="M574.652 1119.75 L574.652 1135.4 L570.393 1135.4 L570.393 1119.89 Q570.393 1116.21 568.958 1114.38 Q567.522 1112.55 564.652 1112.55 Q561.203 1112.55 559.212 1114.75 Q557.222 1116.95 557.222 1120.74 L557.222 1135.4 L552.939 1135.4 L552.939 1099.38 L557.222 1099.38 L557.222 1113.5 Q558.749 1111.16 560.81 1110 Q562.893 1108.84 565.601 1108.84 Q570.069 1108.84 572.36 1111.62 Q574.652 1114.38 574.652 1119.75 Z" fill="#000000" fill-rule="nonzero" fill-opacity="1" /><polyline clip-path="url(#clip800)" style="stroke:#00a9ad; stroke-linecap:round; stroke-linejoin:round; stroke-width:4; stroke-opacity:1; fill:none" points="307.583,1169.96 450.27,1169.96 "/>
<path clip-path="url(#clip800)" d="M493.31 1170.8 L478.565 1170.8 Q478.912 1177.72 480.509 1180.66 Q482.5 1184.27 485.949 1184.27 Q489.421 1184.27 491.342 1180.64 Q493.032 1177.44 493.31 1170.8 M493.24 1166.87 Q492.592 1160.29 491.342 1157.98 Q489.352 1154.32 485.949 1154.32 Q482.407 1154.32 480.532 1157.93 Q479.051 1160.85 478.611 1166.87 L493.24 1166.87 M485.949 1150.85 Q491.504 1150.85 494.676 1155.75 Q497.847 1160.64 497.847 1169.3 Q497.847 1177.93 494.676 1182.84 Q491.504 1187.77 485.949 1187.77 Q480.37 1187.77 477.222 1182.84 Q474.051 1177.93 474.051 1169.3 Q474.051 1160.64 477.222 1155.75 Q480.37 1150.85 485.949 1150.85 Z" fill="#000000" fill-rule="nonzero" fill-opacity="1" /><path clip-path="url(#clip800)" d="M503.264 1172.72 L505.949 1172.72 L505.949 1187.24 L503.264 1187.24 L503.264 1172.72 M503.264 1167.07 L505.949 1167.07 L505.949 1170.08 L503.264 1170.08 L503.264 1167.07 Z" fill="#000000" fill-rule="nonzero" fill-opacity="1" /><path clip-path="url(#clip800)" d="M513.935 1165.71 L543.611 1165.71 L543.611 1169.6 L513.935 1169.6 L513.935 1165.71 M513.935 1175.15 L543.611 1175.15 L543.611 1179.09 L513.935 1179.09 L513.935 1175.15 Z" fill="#000000" fill-rule="nonzero" fill-opacity="1" /><path clip-path="url(#clip800)" d="M548.541 1152.68 L553.564 1152.68 L563.147 1166.89 L572.661 1152.68 L577.684 1152.68 L565.462 1170.78 L565.462 1187.24 L560.763 1187.24 L560.763 1170.78 L548.541 1152.68 Z" fill="#000000" fill-rule="nonzero" fill-opacity="1" /><path clip-path="url(#clip800)" d="M582.245 1152.68 L586.921 1152.68 L586.921 1166.84 L603.911 1166.84 L603.911 1152.68 L608.587 1152.68 L608.587 1187.24 L603.911 1187.24 L603.911 1170.78 L586.921 1170.78 L586.921 1187.24 L582.245 1187.24 L582.245 1152.68 Z" fill="#000000" fill-rule="nonzero" fill-opacity="1" /><path clip-path="url(#clip800)" d="M639.883 1173.21 L639.883 1175.29 L620.3 1175.29 Q620.578 1179.69 622.939 1182 Q625.323 1184.3 629.559 1184.3 Q632.013 1184.3 634.305 1183.69 Q636.619 1183.09 638.888 1181.89 L638.888 1185.92 Q636.596 1186.89 634.189 1187.4 Q631.781 1187.91 629.305 1187.91 Q623.101 1187.91 619.467 1184.3 Q615.856 1180.68 615.856 1174.53 Q615.856 1168.16 619.281 1164.43 Q622.731 1160.68 628.564 1160.68 Q633.795 1160.68 636.828 1164.06 Q639.883 1167.42 639.883 1173.21 M635.624 1171.96 Q635.578 1168.46 633.656 1166.38 Q631.758 1164.3 628.61 1164.3 Q625.045 1164.3 622.893 1166.31 Q620.763 1168.32 620.439 1171.98 L635.624 1171.96 Z" fill="#000000" fill-rule="nonzero" fill-opacity="1" /><polyline clip-path="url(#clip800)" style="stroke:#ed5d92; stroke-linecap:round; stroke-linejoin:round; stroke-width:4; stroke-opacity:1; fill:none" points="307.583,1221.8 450.27,1221.8 "/>
<path clip-path="url(#clip800)" d="M493.31 1222.64 L478.565 1222.64 Q478.912 1229.56 480.509 1232.5 Q482.5 1236.11 485.949 1236.11 Q489.421 1236.11 491.342 1232.48 Q493.032 1229.28 493.31 1222.64 M493.24 1218.71 Q492.592 1212.13 491.342 1209.82 Q489.352 1206.16 485.949 1206.16 Q482.407 1206.16 480.532 1209.77 Q479.051 1212.69 478.611 1218.71 L493.24 1218.71 M485.949 1202.69 Q491.504 1202.69 494.676 1207.59 Q497.847 1212.48 497.847 1221.14 Q497.847 1229.77 494.676 1234.68 Q491.504 1239.61 485.949 1239.61 Q480.37 1239.61 477.222 1234.68 Q474.051 1229.77 474.051 1221.14 Q474.051 1212.48 477.222 1207.59 Q480.37 1202.69 485.949 1202.69 Z" fill="#000000" fill-rule="nonzero" fill-opacity="1" /><path clip-path="url(#clip800)" d="M503.264 1224.56 L505.949 1224.56 L505.949 1239.08 L503.264 1239.08 L503.264 1224.56 M503.264 1218.91 L505.949 1218.91 L505.949 1221.92 L503.264 1221.92 L503.264 1218.91 Z" fill="#000000" fill-rule="nonzero" fill-opacity="1" /><path clip-path="url(#clip800)" d="M513.935 1217.55 L543.611 1217.55 L543.611 1221.44 L513.935 1221.44 L513.935 1217.55 M513.935 1226.99 L543.611 1226.99 L543.611 1230.93 L513.935 1230.93 L513.935 1226.99 Z" fill="#000000" fill-rule="nonzero" fill-opacity="1" /><path clip-path="url(#clip800)" d="M573.286 1218.13 Q574.884 1215.26 577.106 1213.89 Q579.328 1212.52 582.337 1212.52 Q586.388 1212.52 588.587 1215.37 Q590.786 1218.2 590.786 1223.43 L590.786 1239.08 L586.504 1239.08 L586.504 1223.57 Q586.504 1219.84 585.184 1218.03 Q583.865 1216.23 581.157 1216.23 Q577.846 1216.23 575.925 1218.43 Q574.004 1220.63 574.004 1224.42 L574.004 1239.08 L569.722 1239.08 L569.722 1223.57 Q569.722 1219.82 568.402 1218.03 Q567.083 1216.23 564.328 1216.23 Q561.064 1216.23 559.143 1218.45 Q557.222 1220.65 557.222 1224.42 L557.222 1239.08 L552.939 1239.08 L552.939 1213.15 L557.222 1213.15 L557.222 1217.18 Q558.68 1214.79 560.717 1213.66 Q562.754 1212.52 565.555 1212.52 Q568.379 1212.52 570.347 1213.96 Q572.337 1215.39 573.286 1218.13 Z" fill="#000000" fill-rule="nonzero" fill-opacity="1" /><path clip-path="url(#clip800)" d="M620.832 1223.43 L620.832 1239.08 L616.573 1239.08 L616.573 1223.57 Q616.573 1219.89 615.138 1218.06 Q613.703 1216.23 610.832 1216.23 Q607.383 1216.23 605.393 1218.43 Q603.402 1220.63 603.402 1224.42 L603.402 1239.08 L599.12 1239.08 L599.12 1203.06 L603.402 1203.06 L603.402 1217.18 Q604.93 1214.84 606.99 1213.68 Q609.073 1212.52 611.781 1212.52 Q616.249 1212.52 618.541 1215.3 Q620.832 1218.06 620.832 1223.43 Z" fill="#000000" fill-rule="nonzero" fill-opacity="1" /><polyline clip-path="url(#clip800)" style="stroke:#c68125; stroke-linecap:round; stroke-linejoin:round; stroke-width:4; stroke-opacity:1; fill:none" points="307.583,1273.64 450.27,1273.64 "/>
<path clip-path="url(#clip800)" d="M493.31 1274.48 L478.565 1274.48 Q478.912 1281.4 480.509 1284.34 Q482.5 1287.95 485.949 1287.95 Q489.421 1287.95 491.342 1284.32 Q493.032 1281.12 493.31 1274.48 M493.24 1270.55 Q492.592 1263.97 491.342 1261.66 Q489.352 1258 485.949 1258 Q482.407 1258 480.532 1261.61 Q479.051 1264.53 478.611 1270.55 L493.24 1270.55 M485.949 1254.53 Q491.504 1254.53 494.676 1259.43 Q497.847 1264.32 497.847 1272.98 Q497.847 1281.61 494.676 1286.52 Q491.504 1291.45 485.949 1291.45 Q480.37 1291.45 477.222 1286.52 Q474.051 1281.61 474.051 1272.98 Q474.051 1264.32 477.222 1259.43 Q480.37 1254.53 485.949 1254.53 Z" fill="#000000" fill-rule="nonzero" fill-opacity="1" /><path clip-path="url(#clip800)" d="M503.264 1276.4 L505.949 1276.4 L505.949 1290.92 L503.264 1290.92 L503.264 1276.4 M503.264 1270.75 L505.949 1270.75 L505.949 1273.76 L503.264 1273.76 L503.264 1270.75 Z" fill="#000000" fill-rule="nonzero" fill-opacity="1" /><path clip-path="url(#clip800)" d="M513.935 1269.39 L543.611 1269.39 L543.611 1273.28 L513.935 1273.28 L513.935 1269.39 M513.935 1278.83 L543.611 1278.83 L543.611 1282.77 L513.935 1282.77 L513.935 1278.83 Z" fill="#000000" fill-rule="nonzero" fill-opacity="1" /><path clip-path="url(#clip800)" d="M553.101 1254.9 L557.36 1254.9 L557.36 1290.92 L553.101 1290.92 L553.101 1254.9 Z" fill="#000000" fill-rule="nonzero" fill-opacity="1" /><path clip-path="url(#clip800)" d="M587.823 1275.27 L587.823 1290.92 L583.564 1290.92 L583.564 1275.41 Q583.564 1271.73 582.129 1269.9 Q580.694 1268.07 577.823 1268.07 Q574.374 1268.07 572.384 1270.27 Q570.393 1272.47 570.393 1276.26 L570.393 1290.92 L566.11 1290.92 L566.11 1264.99 L570.393 1264.99 L570.393 1269.02 Q571.921 1266.68 573.981 1265.52 Q576.064 1264.36 578.772 1264.36 Q583.24 1264.36 585.532 1267.14 Q587.823 1269.9 587.823 1275.27 Z" fill="#000000" fill-rule="nonzero" fill-opacity="1" /><path clip-path="url(#clip800)" d="M606.55 1254.94 Q603.448 1260.27 601.944 1265.48 Q600.439 1270.68 600.439 1276.03 Q600.439 1281.38 601.944 1286.63 Q603.471 1291.86 606.55 1297.17 L602.846 1297.17 Q599.374 1291.73 597.638 1286.47 Q595.925 1281.22 595.925 1276.03 Q595.925 1270.87 597.638 1265.64 Q599.351 1260.41 602.846 1254.94 L606.55 1254.94 Z" fill="#000000" fill-rule="nonzero" fill-opacity="1" /><path clip-path="url(#clip800)" d="M616.226 1286.98 L623.865 1286.98 L623.865 1260.61 L615.555 1262.28 L615.555 1258.02 L623.818 1256.36 L628.494 1256.36 L628.494 1286.98 L636.133 1286.98 L636.133 1290.92 L616.226 1290.92 L616.226 1286.98 Z" fill="#000000" fill-rule="nonzero" fill-opacity="1" /><path clip-path="url(#clip800)" d="M655.578 1259.43 Q651.966 1259.43 650.138 1263 Q648.332 1266.54 648.332 1273.67 Q648.332 1280.78 650.138 1284.34 Q651.966 1287.88 655.578 1287.88 Q659.212 1287.88 661.017 1284.34 Q662.846 1280.78 662.846 1273.67 Q662.846 1266.54 661.017 1263 Q659.212 1259.43 655.578 1259.43 M655.578 1255.73 Q661.388 1255.73 664.443 1260.34 Q667.522 1264.92 667.522 1273.67 Q667.522 1282.4 664.443 1287 Q661.388 1291.59 655.578 1291.59 Q649.767 1291.59 646.689 1287 Q643.633 1282.4 643.633 1273.67 Q643.633 1264.92 646.689 1260.34 Q649.767 1255.73 655.578 1255.73 Z" fill="#000000" fill-rule="nonzero" fill-opacity="1" /><path clip-path="url(#clip800)" d="M674.281 1272.91 L679.003 1272.91 L679.003 1258.76 L673.841 1259.71 L673.841 1257.03 L679.165 1256.12 L682.337 1256.12 L682.337 1272.91 L687.082 1272.91 L687.082 1275.45 L674.281 1275.45 L674.281 1272.91 Z" fill="#000000" fill-rule="nonzero" fill-opacity="1" /><path clip-path="url(#clip800)" d="M702.869 1259.78 Q701.712 1257.79 699.374 1257.79 Q697.036 1257.79 695.878 1259.78 Q694.698 1261.77 694.698 1265.75 Q694.698 1269.76 695.878 1271.75 Q697.036 1273.74 699.374 1273.74 Q701.712 1273.74 702.869 1271.75 Q704.05 1269.76 704.05 1265.75 Q704.05 1261.77 702.869 1259.78 M699.374 1255.73 Q703.1 1255.73 705.068 1258.3 Q707.036 1260.87 707.036 1265.75 Q707.036 1270.66 705.068 1273.23 Q703.1 1275.8 699.374 1275.8 Q695.624 1275.8 693.656 1273.23 Q691.688 1270.66 691.688 1265.75 Q691.688 1260.87 693.656 1258.3 Q695.624 1255.73 699.374 1255.73 Z" fill="#000000" fill-rule="nonzero" fill-opacity="1" /><path clip-path="url(#clip800)" d="M724.883 1260.96 L718.54 1278.16 L731.248 1278.16 L724.883 1260.96 M722.244 1256.36 L727.545 1256.36 L740.716 1290.92 L735.855 1290.92 L732.707 1282.05 L717.128 1282.05 L713.98 1290.92 L709.049 1290.92 L722.244 1256.36 Z" fill="#000000" fill-rule="nonzero" fill-opacity="1" /><path clip-path="url(#clip800)" d="M762.105 1265.75 L762.105 1269.78 Q760.299 1268.86 758.355 1268.39 Q756.41 1267.93 754.327 1267.93 Q751.156 1267.93 749.559 1268.9 Q747.984 1269.87 747.984 1271.82 Q747.984 1273.3 749.119 1274.16 Q750.253 1274.99 753.679 1275.75 L755.137 1276.08 Q759.674 1277.05 761.572 1278.83 Q763.494 1280.59 763.494 1283.76 Q763.494 1287.37 760.623 1289.48 Q757.776 1291.59 752.776 1291.59 Q750.693 1291.59 748.424 1291.17 Q746.179 1290.78 743.679 1289.97 L743.679 1285.57 Q746.04 1286.79 748.332 1287.42 Q750.623 1288.02 752.869 1288.02 Q755.878 1288.02 757.498 1287 Q759.119 1285.96 759.119 1284.09 Q759.119 1282.35 757.938 1281.42 Q756.781 1280.5 752.822 1279.64 L751.341 1279.3 Q747.383 1278.46 745.623 1276.75 Q743.864 1275.01 743.864 1272 Q743.864 1268.35 746.457 1266.36 Q749.049 1264.36 753.818 1264.36 Q756.179 1264.36 758.262 1264.71 Q760.346 1265.06 762.105 1265.75 Z" fill="#000000" fill-rule="nonzero" fill-opacity="1" /><path clip-path="url(#clip800)" d="M769.605 1254.94 L773.308 1254.94 Q776.781 1260.41 778.494 1265.64 Q780.23 1270.87 780.23 1276.03 Q780.23 1281.22 778.494 1286.47 Q776.781 1291.73 773.308 1297.17 L769.605 1297.17 Q772.683 1291.86 774.188 1286.63 Q775.716 1281.38 775.716 1276.03 Q775.716 1270.68 774.188 1265.48 Q772.683 1260.27 769.605 1254.94 Z" fill="#000000" fill-rule="nonzero" fill-opacity="1" /><polyline clip-path="url(#clip800)" style="stroke:#00a98d; stroke-linecap:round; stroke-linejoin:round; stroke-width:4; stroke-opacity:1; fill:none" points="307.583,1325.48 450.27,1325.48 "/>
<path clip-path="url(#clip800)" d="M493.31 1326.32 L478.565 1326.32 Q478.912 1333.24 480.509 1336.18 Q482.5 1339.79 485.949 1339.79 Q489.421 1339.79 491.342 1336.16 Q493.032 1332.96 493.31 1326.32 M493.24 1322.39 Q492.592 1315.81 491.342 1313.5 Q489.352 1309.84 485.949 1309.84 Q482.407 1309.84 480.532 1313.45 Q479.051 1316.37 478.611 1322.39 L493.24 1322.39 M485.949 1306.37 Q491.504 1306.37 494.676 1311.27 Q497.847 1316.16 497.847 1324.82 Q497.847 1333.45 494.676 1338.36 Q491.504 1343.29 485.949 1343.29 Q480.37 1343.29 477.222 1338.36 Q474.051 1333.45 474.051 1324.82 Q474.051 1316.16 477.222 1311.27 Q480.37 1306.37 485.949 1306.37 Z" fill="#000000" fill-rule="nonzero" fill-opacity="1" /><path clip-path="url(#clip800)" d="M503.264 1328.24 L505.949 1328.24 L505.949 1342.76 L503.264 1342.76 L503.264 1328.24 M503.264 1322.59 L505.949 1322.59 L505.949 1325.6 L503.264 1325.6 L503.264 1322.59 Z" fill="#000000" fill-rule="nonzero" fill-opacity="1" /><path clip-path="url(#clip800)" d="M513.935 1321.23 L543.611 1321.23 L543.611 1325.12 L513.935 1325.12 L513.935 1321.23 M513.935 1330.67 L543.611 1330.67 L543.611 1334.61 L513.935 1334.61 L513.935 1330.67 Z" fill="#000000" fill-rule="nonzero" fill-opacity="1" /><path clip-path="url(#clip800)" d="M574.652 1327.11 L574.652 1342.76 L570.393 1342.76 L570.393 1327.25 Q570.393 1323.57 568.958 1321.74 Q567.522 1319.91 564.652 1319.91 Q561.203 1319.91 559.212 1322.11 Q557.222 1324.31 557.222 1328.1 L557.222 1342.76 L552.939 1342.76 L552.939 1316.83 L557.222 1316.83 L557.222 1320.86 Q558.749 1318.52 560.81 1317.36 Q562.893 1316.2 565.601 1316.2 Q570.069 1316.2 572.36 1318.98 Q574.652 1321.74 574.652 1327.11 Z" fill="#000000" fill-rule="nonzero" fill-opacity="1" /><path clip-path="url(#clip800)" d="M599.675 1317.59 L599.675 1321.62 Q597.87 1320.7 595.925 1320.23 Q593.981 1319.77 591.897 1319.77 Q588.726 1319.77 587.129 1320.74 Q585.555 1321.71 585.555 1323.66 Q585.555 1325.14 586.689 1326 Q587.823 1326.83 591.249 1327.59 L592.708 1327.92 Q597.245 1328.89 599.143 1330.67 Q601.064 1332.43 601.064 1335.6 Q601.064 1339.21 598.194 1341.32 Q595.346 1343.43 590.346 1343.43 Q588.263 1343.43 585.995 1343.01 Q583.749 1342.62 581.249 1341.81 L581.249 1337.41 Q583.61 1338.63 585.902 1339.26 Q588.194 1339.86 590.439 1339.86 Q593.448 1339.86 595.069 1338.84 Q596.689 1337.8 596.689 1335.93 Q596.689 1334.19 595.508 1333.26 Q594.351 1332.34 590.393 1331.48 L588.911 1331.14 Q584.953 1330.3 583.194 1328.59 Q581.434 1326.85 581.434 1323.84 Q581.434 1320.19 584.027 1318.2 Q586.62 1316.2 591.388 1316.2 Q593.749 1316.2 595.833 1316.55 Q597.916 1316.9 599.675 1317.59 Z" fill="#000000" fill-rule="nonzero" fill-opacity="1" /></svg>
