<?xml version="1.0" encoding="utf-8"?>
<svg xmlns="http://www.w3.org/2000/svg" xmlns:xlink="http://www.w3.org/1999/xlink" width="800" height="400" viewBox="0 0 3200 1600">
<defs>
  <clipPath id="clip890">
    <rect x="0" y="0" width="3200" height="1600"/>
  </clipPath>
</defs>
<path clip-path="url(#clip890)" d="M0 1600 L3200 1600 L3200 0 L0 0  Z" fill="#ffffff" fill-rule="evenodd" fill-opacity="1"/>
<defs>
  <clipPath id="clip891">
    <rect x="640" y="0" width="2241" height="1600"/>
  </clipPath>
</defs>
<path clip-path="url(#clip890)" d="M394.894 1495.09 L3152.76 1495.09 L3152.76 47.2441 L394.894 47.2441  Z" fill="#ffffff" fill-rule="evenodd" fill-opacity="1"/>
<defs>
  <clipPath id="clip892">
    <rect x="394" y="47" width="2759" height="1449"/>
  </clipPath>
</defs>
<polyline clip-path="url(#clip892)" style="stroke:#000000; stroke-linecap:round; stroke-linejoin:round; stroke-width:2; stroke-opacity:0.1; fill:none" points="945.994,1495.09 945.994,47.2441 "/>
<polyline clip-path="url(#clip892)" style="stroke:#000000; stroke-linecap:round; stroke-linejoin:round; stroke-width:2; stroke-opacity:0.1; fill:none" points="2601.66,1495.09 2601.66,47.2441 "/>
<polyline clip-path="url(#clip892)" style="stroke:#000000; stroke-linecap:round; stroke-linejoin:round; stroke-width:2; stroke-opacity:0.1; fill:none" points="394.894,1451.63 3152.76,1451.63 "/>
<polyline clip-path="url(#clip892)" style="stroke:#000000; stroke-linecap:round; stroke-linejoin:round; stroke-width:2; stroke-opacity:0.1; fill:none" points="394.894,1242.54 3152.76,1242.54 "/>
<polyline clip-path="url(#clip892)" style="stroke:#000000; stroke-linecap:round; stroke-linejoin:round; stroke-width:2; stroke-opacity:0.1; fill:none" points="394.894,1033.44 3152.76,1033.44 "/>
<polyline clip-path="url(#clip892)" style="stroke:#000000; stroke-linecap:round; stroke-linejoin:round; stroke-width:2; stroke-opacity:0.1; fill:none" points="394.894,824.341 3152.76,824.341 "/>
<polyline clip-path="url(#clip892)" style="stroke:#000000; stroke-linecap:round; stroke-linejoin:round; stroke-width:2; stroke-opacity:0.1; fill:none" points="394.894,615.244 3152.76,615.244 "/>
<polyline clip-path="url(#clip892)" style="stroke:#000000; stroke-linecap:round; stroke-linejoin:round; stroke-width:2; stroke-opacity:0.1; fill:none" points="394.894,406.147 3152.76,406.147 "/>
<polyline clip-path="url(#clip892)" style="stroke:#000000; stroke-linecap:round; stroke-linejoin:round; stroke-width:2; stroke-opacity:0.1; fill:none" points="394.894,197.05 3152.76,197.05 "/>
<polyline clip-path="url(#clip890)" style="stroke:#000000; stroke-linecap:round; stroke-linejoin:round; stroke-width:4; stroke-opacity:1; fill:none" points="394.894,1495.09 3152.76,1495.09 "/>
<polyline clip-path="url(#clip890)" style="stroke:#000000; stroke-linecap:round; stroke-linejoin:round; stroke-width:4; stroke-opacity:1; fill:none" points="945.994,1495.09 945.994,1476.19 "/>
<polyline clip-path="url(#clip890)" style="stroke:#000000; stroke-linecap:round; stroke-linejoin:round; stroke-width:4; stroke-opacity:1; fill:none" points="2601.66,1495.09 2601.66,1476.19 "/>
<path clip-path="url(#clip890)" d="M851.249 1533.4 L839.443 1551.85 L851.249 1551.85 L851.249 1533.4 M850.022 1529.33 L855.902 1529.33 L855.902 1551.85 L860.832 1551.85 L860.832 1555.74 L855.902 1555.74 L855.902 1563.89 L851.249 1563.89 L851.249 1555.74 L835.647 1555.74 L835.647 1551.23 L850.022 1529.33 Z" fill="#000000" fill-rule="nonzero" fill-opacity="1" /><path clip-path="url(#clip890)" d="M887.244 1530.6 L887.244 1537.96 L896.017 1537.96 L896.017 1541.27 L887.244 1541.27 L887.244 1555.35 Q887.244 1558.52 888.1 1559.42 Q888.98 1560.32 891.642 1560.32 L896.017 1560.32 L896.017 1563.89 L891.642 1563.89 Q886.712 1563.89 884.837 1562.06 Q882.962 1560.21 882.962 1555.35 L882.962 1541.27 L879.837 1541.27 L879.837 1537.96 L882.962 1537.96 L882.962 1530.6 L887.244 1530.6 Z" fill="#000000" fill-rule="nonzero" fill-opacity="1" /><path clip-path="url(#clip890)" d="M923.17 1548.24 L923.17 1563.89 L918.911 1563.89 L918.911 1548.38 Q918.911 1544.7 917.475 1542.87 Q916.04 1541.04 913.17 1541.04 Q909.721 1541.04 907.73 1543.24 Q905.739 1545.44 905.739 1549.24 L905.739 1563.89 L901.457 1563.89 L901.457 1527.87 L905.739 1527.87 L905.739 1541.99 Q907.267 1539.65 909.327 1538.49 Q911.411 1537.34 914.119 1537.34 Q918.586 1537.34 920.878 1540.11 Q923.17 1542.87 923.17 1548.24 Z" fill="#000000" fill-rule="nonzero" fill-opacity="1" /><path clip-path="url(#clip890)" d="M946.688 1541.94 Q945.971 1541.53 945.114 1541.34 Q944.281 1541.13 943.262 1541.13 Q939.651 1541.13 937.707 1543.49 Q935.785 1545.83 935.785 1550.23 L935.785 1563.89 L931.503 1563.89 L931.503 1537.96 L935.785 1537.96 L935.785 1541.99 Q937.128 1539.63 939.281 1538.49 Q941.434 1537.34 944.512 1537.34 Q944.952 1537.34 945.484 1537.41 Q946.017 1537.45 946.665 1537.57 L946.688 1541.94 Z" fill="#000000" fill-rule="nonzero" fill-opacity="1" /><path clip-path="url(#clip890)" d="M972.29 1549.86 L972.29 1551.94 L952.707 1551.94 Q952.984 1556.34 955.345 1558.66 Q957.73 1560.95 961.966 1560.95 Q964.42 1560.95 966.711 1560.35 Q969.026 1559.74 971.294 1558.54 L971.294 1562.57 Q969.003 1563.54 966.595 1564.05 Q964.188 1564.56 961.711 1564.56 Q955.508 1564.56 951.873 1560.95 Q948.262 1557.34 948.262 1551.18 Q948.262 1544.81 951.688 1541.09 Q955.137 1537.34 960.97 1537.34 Q966.202 1537.34 969.234 1540.72 Q972.29 1544.07 972.29 1549.86 M968.031 1548.61 Q967.984 1545.11 966.063 1543.03 Q964.165 1540.95 961.017 1540.95 Q957.452 1540.95 955.299 1542.96 Q953.17 1544.98 952.846 1548.63 L968.031 1548.61 Z" fill="#000000" fill-rule="nonzero" fill-opacity="1" /><path clip-path="url(#clip890)" d="M991.063 1550.86 Q985.901 1550.86 983.91 1552.04 Q981.919 1553.22 981.919 1556.06 Q981.919 1558.33 983.401 1559.67 Q984.906 1560.99 987.475 1560.99 Q991.017 1560.99 993.146 1558.49 Q995.299 1555.97 995.299 1551.8 L995.299 1550.86 L991.063 1550.86 M999.558 1549.1 L999.558 1563.89 L995.299 1563.89 L995.299 1559.95 Q993.841 1562.31 991.665 1563.45 Q989.489 1564.56 986.341 1564.56 Q982.359 1564.56 979.998 1562.34 Q977.66 1560.09 977.66 1556.34 Q977.66 1551.97 980.577 1549.74 Q983.517 1547.52 989.327 1547.52 L995.299 1547.52 L995.299 1547.11 Q995.299 1544.17 993.355 1542.57 Q991.433 1540.95 987.938 1540.95 Q985.716 1540.95 983.609 1541.48 Q981.503 1542.01 979.558 1543.08 L979.558 1539.14 Q981.896 1538.24 984.095 1537.8 Q986.294 1537.34 988.378 1537.34 Q994.003 1537.34 996.78 1540.25 Q999.558 1543.17 999.558 1549.1 Z" fill="#000000" fill-rule="nonzero" fill-opacity="1" /><path clip-path="url(#clip890)" d="M1025.39 1541.9 L1025.39 1527.87 L1029.65 1527.87 L1029.65 1563.89 L1025.39 1563.89 L1025.39 1560 Q1024.05 1562.31 1021.99 1563.45 Q1019.95 1564.56 1017.08 1564.56 Q1012.38 1564.56 1009.42 1560.81 Q1006.48 1557.06 1006.48 1550.95 Q1006.48 1544.84 1009.42 1541.09 Q1012.38 1537.34 1017.08 1537.34 Q1019.95 1537.34 1021.99 1538.47 Q1024.05 1539.58 1025.39 1541.9 M1010.88 1550.95 Q1010.88 1555.65 1012.8 1558.33 Q1014.74 1560.99 1018.12 1560.99 Q1021.5 1560.99 1023.45 1558.33 Q1025.39 1555.65 1025.39 1550.95 Q1025.39 1546.25 1023.45 1543.59 Q1021.5 1540.9 1018.12 1540.9 Q1014.74 1540.9 1012.8 1543.59 Q1010.88 1546.25 1010.88 1550.95 Z" fill="#000000" fill-rule="nonzero" fill-opacity="1" /><path clip-path="url(#clip890)" d="M1054.95 1538.73 L1054.95 1542.75 Q1053.15 1541.83 1051.2 1541.36 Q1049.26 1540.9 1047.17 1540.9 Q1044 1540.9 1042.41 1541.87 Q1040.83 1542.85 1040.83 1544.79 Q1040.83 1546.27 1041.97 1547.13 Q1043.1 1547.96 1046.53 1548.73 L1047.98 1549.05 Q1052.52 1550.02 1054.42 1551.8 Q1056.34 1553.56 1056.34 1556.74 Q1056.34 1560.35 1053.47 1562.45 Q1050.62 1564.56 1045.62 1564.56 Q1043.54 1564.56 1041.27 1564.14 Q1039.03 1563.75 1036.53 1562.94 L1036.53 1558.54 Q1038.89 1559.77 1041.18 1560.39 Q1043.47 1560.99 1045.72 1560.99 Q1048.72 1560.99 1050.34 1559.98 Q1051.97 1558.93 1051.97 1557.06 Q1051.97 1555.32 1050.78 1554.4 Q1049.63 1553.47 1045.67 1552.61 L1044.19 1552.27 Q1040.23 1551.43 1038.47 1549.72 Q1036.71 1547.99 1036.71 1544.98 Q1036.71 1541.32 1039.3 1539.33 Q1041.9 1537.34 1046.66 1537.34 Q1049.03 1537.34 1051.11 1537.68 Q1053.19 1538.03 1054.95 1538.73 Z" fill="#000000" fill-rule="nonzero" fill-opacity="1" /><path clip-path="url(#clip890)" d="M2506.77 1559.95 L2514.41 1559.95 L2514.41 1533.59 L2506.1 1535.25 L2506.1 1530.99 L2514.37 1529.33 L2519.04 1529.33 L2519.04 1559.95 L2526.68 1559.95 L2526.68 1563.89 L2506.77 1563.89 L2506.77 1559.95 Z" fill="#000000" fill-rule="nonzero" fill-opacity="1" /><path clip-path="url(#clip890)" d="M2554.81 1530.6 L2554.81 1537.96 L2563.58 1537.96 L2563.58 1541.27 L2554.81 1541.27 L2554.81 1555.35 Q2554.81 1558.52 2555.66 1559.42 Q2556.54 1560.32 2559.2 1560.32 L2563.58 1560.32 L2563.58 1563.89 L2559.2 1563.89 Q2554.27 1563.89 2552.4 1562.06 Q2550.52 1560.21 2550.52 1555.35 L2550.52 1541.27 L2547.4 1541.27 L2547.4 1537.96 L2550.52 1537.96 L2550.52 1530.6 L2554.81 1530.6 Z" fill="#000000" fill-rule="nonzero" fill-opacity="1" /><path clip-path="url(#clip890)" d="M2590.73 1548.24 L2590.73 1563.89 L2586.47 1563.89 L2586.47 1548.38 Q2586.47 1544.7 2585.04 1542.87 Q2583.6 1541.04 2580.73 1541.04 Q2577.28 1541.04 2575.29 1543.24 Q2573.3 1545.44 2573.3 1549.24 L2573.3 1563.89 L2569.02 1563.89 L2569.02 1527.87 L2573.3 1527.87 L2573.3 1541.99 Q2574.83 1539.65 2576.89 1538.49 Q2578.97 1537.34 2581.68 1537.34 Q2586.15 1537.34 2588.44 1540.11 Q2590.73 1542.87 2590.73 1548.24 Z" fill="#000000" fill-rule="nonzero" fill-opacity="1" /><path clip-path="url(#clip890)" d="M2614.25 1541.94 Q2613.53 1541.53 2612.68 1541.34 Q2611.84 1541.13 2610.82 1541.13 Q2607.21 1541.13 2605.27 1543.49 Q2603.35 1545.83 2603.35 1550.23 L2603.35 1563.89 L2599.06 1563.89 L2599.06 1537.96 L2603.35 1537.96 L2603.35 1541.99 Q2604.69 1539.63 2606.84 1538.49 Q2608.99 1537.34 2612.07 1537.34 Q2612.51 1537.34 2613.05 1537.41 Q2613.58 1537.45 2614.23 1537.57 L2614.25 1541.94 Z" fill="#000000" fill-rule="nonzero" fill-opacity="1" /><path clip-path="url(#clip890)" d="M2639.85 1549.86 L2639.85 1551.94 L2620.27 1551.94 Q2620.55 1556.34 2622.91 1558.66 Q2625.29 1560.95 2629.53 1560.95 Q2631.98 1560.95 2634.27 1560.35 Q2636.59 1559.74 2638.86 1558.54 L2638.86 1562.57 Q2636.56 1563.54 2634.16 1564.05 Q2631.75 1564.56 2629.27 1564.56 Q2623.07 1564.56 2619.43 1560.95 Q2615.82 1557.34 2615.82 1551.18 Q2615.82 1544.81 2619.25 1541.09 Q2622.7 1537.34 2628.53 1537.34 Q2633.76 1537.34 2636.8 1540.72 Q2639.85 1544.07 2639.85 1549.86 M2635.59 1548.61 Q2635.55 1545.11 2633.62 1543.03 Q2631.73 1540.95 2628.58 1540.95 Q2625.01 1540.95 2622.86 1542.96 Q2620.73 1544.98 2620.41 1548.63 L2635.59 1548.61 Z" fill="#000000" fill-rule="nonzero" fill-opacity="1" /><path clip-path="url(#clip890)" d="M2658.62 1550.86 Q2653.46 1550.86 2651.47 1552.04 Q2649.48 1553.22 2649.48 1556.06 Q2649.48 1558.33 2650.96 1559.67 Q2652.47 1560.99 2655.04 1560.99 Q2658.58 1560.99 2660.71 1558.49 Q2662.86 1555.97 2662.86 1551.8 L2662.86 1550.86 L2658.62 1550.86 M2667.12 1549.1 L2667.12 1563.89 L2662.86 1563.89 L2662.86 1559.95 Q2661.4 1562.31 2659.23 1563.45 Q2657.05 1564.56 2653.9 1564.56 Q2649.92 1564.56 2647.56 1562.34 Q2645.22 1560.09 2645.22 1556.34 Q2645.22 1551.97 2648.14 1549.74 Q2651.08 1547.52 2656.89 1547.52 L2662.86 1547.52 L2662.86 1547.11 Q2662.86 1544.17 2660.92 1542.57 Q2658.99 1540.95 2655.5 1540.95 Q2653.28 1540.95 2651.17 1541.48 Q2649.06 1542.01 2647.12 1543.08 L2647.12 1539.14 Q2649.46 1538.24 2651.66 1537.8 Q2653.86 1537.34 2655.94 1537.34 Q2661.56 1537.34 2664.34 1540.25 Q2667.12 1543.17 2667.12 1549.1 Z" fill="#000000" fill-rule="nonzero" fill-opacity="1" /><path clip-path="url(#clip890)" d="M2692.95 1541.9 L2692.95 1527.87 L2697.21 1527.87 L2697.21 1563.89 L2692.95 1563.89 L2692.95 1560 Q2691.61 1562.31 2689.55 1563.45 Q2687.51 1564.56 2684.64 1564.56 Q2679.94 1564.56 2676.98 1560.81 Q2674.04 1557.06 2674.04 1550.95 Q2674.04 1544.84 2676.98 1541.09 Q2679.94 1537.34 2684.64 1537.34 Q2687.51 1537.34 2689.55 1538.47 Q2691.61 1539.58 2692.95 1541.9 M2678.44 1550.95 Q2678.44 1555.65 2680.36 1558.33 Q2682.3 1560.99 2685.68 1560.99 Q2689.06 1560.99 2691.01 1558.33 Q2692.95 1555.65 2692.95 1550.95 Q2692.95 1546.25 2691.01 1543.59 Q2689.06 1540.9 2685.68 1540.9 Q2682.3 1540.9 2680.36 1543.59 Q2678.44 1546.25 2678.44 1550.95 Z" fill="#000000" fill-rule="nonzero" fill-opacity="1" /><polyline clip-path="url(#clip890)" style="stroke:#000000; stroke-linecap:round; stroke-linejoin:round; stroke-width:4; stroke-opacity:1; fill:none" points="394.894,1495.09 394.894,47.2441 "/>
<polyline clip-path="url(#clip890)" style="stroke:#000000; stroke-linecap:round; stroke-linejoin:round; stroke-width:4; stroke-opacity:1; fill:none" points="394.894,1451.63 413.792,1451.63 "/>
<polyline clip-path="url(#clip890)" style="stroke:#000000; stroke-linecap:round; stroke-linejoin:round; stroke-width:4; stroke-opacity:1; fill:none" points="394.894,1242.54 413.792,1242.54 "/>
<polyline clip-path="url(#clip890)" style="stroke:#000000; stroke-linecap:round; stroke-linejoin:round; stroke-width:4; stroke-opacity:1; fill:none" points="394.894,1033.44 413.792,1033.44 "/>
<polyline clip-path="url(#clip890)" style="stroke:#000000; stroke-linecap:round; stroke-linejoin:round; stroke-width:4; stroke-opacity:1; fill:none" points="394.894,824.341 413.792,824.341 "/>
<polyline clip-path="url(#clip890)" style="stroke:#000000; stroke-linecap:round; stroke-linejoin:round; stroke-width:4; stroke-opacity:1; fill:none" points="394.894,615.244 413.792,615.244 "/>
<polyline clip-path="url(#clip890)" style="stroke:#000000; stroke-linecap:round; stroke-linejoin:round; stroke-width:4; stroke-opacity:1; fill:none" points="394.894,406.147 413.792,406.147 "/>
<polyline clip-path="url(#clip890)" style="stroke:#000000; stroke-linecap:round; stroke-linejoin:round; stroke-width:4; stroke-opacity:1; fill:none" points="394.894,197.05 413.792,197.05 "/>
<path clip-path="url(#clip890)" d="M100.788 1471.43 L108.426 1471.43 L108.426 1445.06 L100.116 1446.73 L100.116 1442.47 L108.38 1440.8 L113.056 1440.8 L113.056 1471.43 L120.695 1471.43 L120.695 1475.36 L100.788 1475.36 L100.788 1471.43 Z" fill="#000000" fill-rule="nonzero" fill-opacity="1" /><path clip-path="url(#clip890)" d="M130.139 1469.48 L135.023 1469.48 L135.023 1475.36 L130.139 1475.36 L130.139 1469.48 Z" fill="#000000" fill-rule="nonzero" fill-opacity="1" /><path clip-path="url(#clip890)" d="M144.028 1440.8 L166.25 1440.8 L166.25 1442.79 L153.704 1475.36 L148.82 1475.36 L160.625 1444.74 L144.028 1444.74 L144.028 1440.8 Z" fill="#000000" fill-rule="nonzero" fill-opacity="1" /><path clip-path="url(#clip890)" d="M175.417 1440.8 L193.773 1440.8 L193.773 1444.74 L179.699 1444.74 L179.699 1453.21 Q180.718 1452.86 181.736 1452.7 Q182.755 1452.51 183.773 1452.51 Q189.56 1452.51 192.94 1455.68 Q196.319 1458.86 196.319 1464.27 Q196.319 1469.85 192.847 1472.95 Q189.375 1476.03 183.056 1476.03 Q180.88 1476.03 178.611 1475.66 Q176.366 1475.29 173.958 1474.55 L173.958 1469.85 Q176.042 1470.99 178.264 1471.54 Q180.486 1472.1 182.963 1472.1 Q186.968 1472.1 189.306 1469.99 Q191.644 1467.88 191.644 1464.27 Q191.644 1460.66 189.306 1458.55 Q186.968 1456.45 182.963 1456.45 Q181.088 1456.45 179.213 1456.87 Q177.361 1457.28 175.417 1458.16 L175.417 1440.8 Z" fill="#000000" fill-rule="nonzero" fill-opacity="1" /><path clip-path="url(#clip890)" d="M215.532 1443.88 Q211.921 1443.88 210.093 1447.44 Q208.287 1450.99 208.287 1458.12 Q208.287 1465.22 210.093 1468.79 Q211.921 1472.33 215.532 1472.33 Q219.167 1472.33 220.972 1468.79 Q222.801 1465.22 222.801 1458.12 Q222.801 1450.99 220.972 1447.44 Q219.167 1443.88 215.532 1443.88 M215.532 1440.18 Q221.342 1440.18 224.398 1444.78 Q227.477 1449.37 227.477 1458.12 Q227.477 1466.84 224.398 1471.45 Q221.342 1476.03 215.532 1476.03 Q209.722 1476.03 206.643 1471.45 Q203.588 1466.84 203.588 1458.12 Q203.588 1449.37 206.643 1444.78 Q209.722 1440.18 215.532 1440.18 Z" fill="#000000" fill-rule="nonzero" fill-opacity="1" /><path clip-path="url(#clip890)" d="M263.865 1449.9 L253.287 1460.52 L263.865 1471.1 L261.111 1473.9 L250.486 1463.28 L239.861 1473.9 L237.129 1471.1 L247.685 1460.52 L237.129 1449.9 L239.861 1447.1 L250.486 1457.72 L261.111 1447.1 L263.865 1449.9 Z" fill="#000000" fill-rule="nonzero" fill-opacity="1" /><path clip-path="url(#clip890)" d="M276.226 1471.43 L283.865 1471.43 L283.865 1445.06 L275.555 1446.73 L275.555 1442.47 L283.819 1440.8 L288.495 1440.8 L288.495 1471.43 L296.134 1471.43 L296.134 1475.36 L276.226 1475.36 L276.226 1471.43 Z" fill="#000000" fill-rule="nonzero" fill-opacity="1" /><path clip-path="url(#clip890)" d="M315.578 1443.88 Q311.967 1443.88 310.138 1447.44 Q308.333 1450.99 308.333 1458.12 Q308.333 1465.22 310.138 1468.79 Q311.967 1472.33 315.578 1472.33 Q319.212 1472.33 321.018 1468.79 Q322.847 1465.22 322.847 1458.12 Q322.847 1450.99 321.018 1447.44 Q319.212 1443.88 315.578 1443.88 M315.578 1440.18 Q321.388 1440.18 324.444 1444.78 Q327.522 1449.37 327.522 1458.12 Q327.522 1466.84 324.444 1471.45 Q321.388 1476.03 315.578 1476.03 Q309.768 1476.03 306.689 1471.45 Q303.634 1466.84 303.634 1458.12 Q303.634 1449.37 306.689 1444.78 Q309.768 1440.18 315.578 1440.18 Z" fill="#000000" fill-rule="nonzero" fill-opacity="1" /><path clip-path="url(#clip890)" d="M329.328 1447.37 L329.328 1443.91 Q330.757 1444.58 332.224 1444.94 Q333.691 1445.3 335.102 1445.3 Q338.864 1445.3 340.838 1442.78 Q342.832 1440.24 343.114 1435.09 Q342.023 1436.7 340.349 1437.57 Q338.675 1438.43 336.644 1438.43 Q332.431 1438.43 329.967 1435.89 Q327.522 1433.34 327.522 1428.92 Q327.522 1424.59 330.08 1421.98 Q332.638 1419.36 336.889 1419.36 Q341.76 1419.36 344.318 1423.1 Q346.894 1426.83 346.894 1433.94 Q346.894 1440.58 343.735 1444.55 Q340.594 1448.5 335.271 1448.5 Q333.842 1448.5 332.375 1448.21 Q330.908 1447.93 329.328 1447.37 M336.889 1435.46 Q339.447 1435.46 340.932 1433.71 Q342.437 1431.96 342.437 1428.92 Q342.437 1425.89 340.932 1424.14 Q339.447 1422.37 336.889 1422.37 Q334.331 1422.37 332.826 1424.14 Q331.34 1425.89 331.34 1428.92 Q331.34 1431.96 332.826 1433.71 Q334.331 1435.46 336.889 1435.46 Z" fill="#000000" fill-rule="nonzero" fill-opacity="1" /><path clip-path="url(#clip890)" d="M104.005 1262.33 L120.324 1262.33 L120.324 1266.26 L98.3802 1266.26 L98.3802 1262.33 Q101.042 1259.57 105.625 1254.94 Q110.232 1250.29 111.412 1248.95 Q113.658 1246.43 114.537 1244.69 Q115.44 1242.93 115.44 1241.24 Q115.44 1238.49 113.496 1236.75 Q111.575 1235.01 108.473 1235.01 Q106.274 1235.01 103.82 1235.78 Q101.389 1236.54 98.6116 1238.09 L98.6116 1233.37 Q101.436 1232.24 103.889 1231.66 Q106.343 1231.08 108.38 1231.08 Q113.75 1231.08 116.945 1233.76 Q120.139 1236.45 120.139 1240.94 Q120.139 1243.07 119.329 1244.99 Q118.542 1246.89 116.436 1249.48 Q115.857 1250.15 112.755 1253.37 Q109.653 1256.56 104.005 1262.33 Z" fill="#000000" fill-rule="nonzero" fill-opacity="1" /><path clip-path="url(#clip890)" d="M130.139 1260.38 L135.023 1260.38 L135.023 1266.26 L130.139 1266.26 L130.139 1260.38 Z" fill="#000000" fill-rule="nonzero" fill-opacity="1" /><path clip-path="url(#clip890)" d="M155.209 1234.78 Q151.597 1234.78 149.769 1238.35 Q147.963 1241.89 147.963 1249.02 Q147.963 1256.12 149.769 1259.69 Q151.597 1263.23 155.209 1263.23 Q158.843 1263.23 160.648 1259.69 Q162.477 1256.12 162.477 1249.02 Q162.477 1241.89 160.648 1238.35 Q158.843 1234.78 155.209 1234.78 M155.209 1231.08 Q161.019 1231.08 164.074 1235.68 Q167.153 1240.27 167.153 1249.02 Q167.153 1257.74 164.074 1262.35 Q161.019 1266.93 155.209 1266.93 Q149.398 1266.93 146.32 1262.35 Q143.264 1257.74 143.264 1249.02 Q143.264 1240.27 146.32 1235.68 Q149.398 1231.08 155.209 1231.08 Z" fill="#000000" fill-rule="nonzero" fill-opacity="1" /><path clip-path="url(#clip890)" d="M185.37 1234.78 Q181.759 1234.78 179.931 1238.35 Q178.125 1241.89 178.125 1249.02 Q178.125 1256.12 179.931 1259.69 Q181.759 1263.23 185.37 1263.23 Q189.005 1263.23 190.81 1259.69 Q192.639 1256.12 192.639 1249.02 Q192.639 1241.89 190.81 1238.35 Q189.005 1234.78 185.37 1234.78 M185.37 1231.08 Q191.181 1231.08 194.236 1235.68 Q197.315 1240.27 197.315 1249.02 Q197.315 1257.74 194.236 1262.35 Q191.181 1266.93 185.37 1266.93 Q179.56 1266.93 176.482 1262.35 Q173.426 1257.74 173.426 1249.02 Q173.426 1240.27 176.482 1235.68 Q179.56 1231.08 185.37 1231.08 Z" fill="#000000" fill-rule="nonzero" fill-opacity="1" /><path clip-path="url(#clip890)" d="M215.532 1234.78 Q211.921 1234.78 210.093 1238.35 Q208.287 1241.89 208.287 1249.02 Q208.287 1256.12 210.093 1259.69 Q211.921 1263.23 215.532 1263.23 Q219.167 1263.23 220.972 1259.69 Q222.801 1256.12 222.801 1249.02 Q222.801 1241.89 220.972 1238.35 Q219.167 1234.78 215.532 1234.78 M215.532 1231.08 Q221.342 1231.08 224.398 1235.68 Q227.477 1240.27 227.477 1249.02 Q227.477 1257.74 224.398 1262.35 Q221.342 1266.93 215.532 1266.93 Q209.722 1266.93 206.643 1262.35 Q203.588 1257.74 203.588 1249.02 Q203.588 1240.27 206.643 1235.68 Q209.722 1231.08 215.532 1231.08 Z" fill="#000000" fill-rule="nonzero" fill-opacity="1" /><path clip-path="url(#clip890)" d="M263.865 1240.8 L253.287 1251.43 L263.865 1262 L261.111 1264.8 L250.486 1254.18 L239.861 1264.8 L237.129 1262 L247.685 1251.43 L237.129 1240.8 L239.861 1238 L250.486 1248.62 L261.111 1238 L263.865 1240.8 Z" fill="#000000" fill-rule="nonzero" fill-opacity="1" /><path clip-path="url(#clip890)" d="M276.226 1262.33 L283.865 1262.33 L283.865 1235.96 L275.555 1237.63 L275.555 1233.37 L283.819 1231.7 L288.495 1231.7 L288.495 1262.33 L296.134 1262.33 L296.134 1266.26 L276.226 1266.26 L276.226 1262.33 Z" fill="#000000" fill-rule="nonzero" fill-opacity="1" /><path clip-path="url(#clip890)" d="M315.578 1234.78 Q311.967 1234.78 310.138 1238.35 Q308.333 1241.89 308.333 1249.02 Q308.333 1256.12 310.138 1259.69 Q311.967 1263.23 315.578 1263.23 Q319.212 1263.23 321.018 1259.69 Q322.847 1256.12 322.847 1249.02 Q322.847 1241.89 321.018 1238.35 Q319.212 1234.78 315.578 1234.78 M315.578 1231.08 Q321.388 1231.08 324.444 1235.68 Q327.522 1240.27 327.522 1249.02 Q327.522 1257.74 324.444 1262.35 Q321.388 1266.93 315.578 1266.93 Q309.768 1266.93 306.689 1262.35 Q303.634 1257.74 303.634 1249.02 Q303.634 1240.27 306.689 1235.68 Q309.768 1231.08 315.578 1231.08 Z" fill="#000000" fill-rule="nonzero" fill-opacity="1" /><path clip-path="url(#clip890)" d="M329.328 1238.27 L329.328 1234.81 Q330.757 1235.49 332.224 1235.84 Q333.691 1236.2 335.102 1236.2 Q338.864 1236.2 340.838 1233.68 Q342.832 1231.14 343.114 1225.99 Q342.023 1227.61 340.349 1228.47 Q338.675 1229.34 336.644 1229.34 Q332.431 1229.34 329.967 1226.8 Q327.522 1224.24 327.522 1219.82 Q327.522 1215.49 330.08 1212.88 Q332.638 1210.26 336.889 1210.26 Q341.76 1210.26 344.318 1214.01 Q346.894 1217.73 346.894 1224.84 Q346.894 1231.48 343.735 1235.45 Q340.594 1239.4 335.271 1239.4 Q333.842 1239.4 332.375 1239.12 Q330.908 1238.83 329.328 1238.27 M336.889 1226.36 Q339.447 1226.36 340.932 1224.62 Q342.437 1222.87 342.437 1219.82 Q342.437 1216.79 340.932 1215.04 Q339.447 1213.27 336.889 1213.27 Q334.331 1213.27 332.826 1215.04 Q331.34 1216.79 331.34 1219.82 Q331.34 1222.87 332.826 1224.62 Q334.331 1226.36 336.889 1226.36 Z" fill="#000000" fill-rule="nonzero" fill-opacity="1" /><path clip-path="url(#clip890)" d="M104.005 1053.23 L120.324 1053.23 L120.324 1057.17 L98.3802 1057.17 L98.3802 1053.23 Q101.042 1050.48 105.625 1045.85 Q110.232 1041.19 111.412 1039.85 Q113.658 1037.33 114.537 1035.59 Q115.44 1033.83 115.44 1032.14 Q115.44 1029.39 113.496 1027.65 Q111.575 1025.92 108.473 1025.92 Q106.274 1025.92 103.82 1026.68 Q101.389 1027.44 98.6116 1028.99 L98.6116 1024.27 Q101.436 1023.14 103.889 1022.56 Q106.343 1021.98 108.38 1021.98 Q113.75 1021.98 116.945 1024.67 Q120.139 1027.35 120.139 1031.84 Q120.139 1033.97 119.329 1035.89 Q118.542 1037.79 116.436 1040.38 Q115.857 1041.05 112.755 1044.27 Q109.653 1047.47 104.005 1053.23 Z" fill="#000000" fill-rule="nonzero" fill-opacity="1" /><path clip-path="url(#clip890)" d="M130.139 1051.29 L135.023 1051.29 L135.023 1057.17 L130.139 1057.17 L130.139 1051.29 Z" fill="#000000" fill-rule="nonzero" fill-opacity="1" /><path clip-path="url(#clip890)" d="M149.236 1053.23 L165.556 1053.23 L165.556 1057.17 L143.611 1057.17 L143.611 1053.23 Q146.273 1050.48 150.857 1045.85 Q155.463 1041.19 156.644 1039.85 Q158.889 1037.33 159.769 1035.59 Q160.671 1033.83 160.671 1032.14 Q160.671 1029.39 158.727 1027.65 Q156.806 1025.92 153.704 1025.92 Q151.505 1025.92 149.051 1026.68 Q146.621 1027.44 143.843 1028.99 L143.843 1024.27 Q146.667 1023.14 149.121 1022.56 Q151.574 1021.98 153.611 1021.98 Q158.982 1021.98 162.176 1024.67 Q165.371 1027.35 165.371 1031.84 Q165.371 1033.97 164.56 1035.89 Q163.773 1037.79 161.667 1040.38 Q161.088 1041.05 157.986 1044.27 Q154.884 1047.47 149.236 1053.23 Z" fill="#000000" fill-rule="nonzero" fill-opacity="1" /><path clip-path="url(#clip890)" d="M175.417 1022.61 L193.773 1022.61 L193.773 1026.54 L179.699 1026.54 L179.699 1035.01 Q180.718 1034.67 181.736 1034.5 Q182.755 1034.32 183.773 1034.32 Q189.56 1034.32 192.94 1037.49 Q196.319 1040.66 196.319 1046.08 Q196.319 1051.66 192.847 1054.76 Q189.375 1057.84 183.056 1057.84 Q180.88 1057.84 178.611 1057.47 Q176.366 1057.1 173.958 1056.36 L173.958 1051.66 Q176.042 1052.79 178.264 1053.35 Q180.486 1053.9 182.963 1053.9 Q186.968 1053.9 189.306 1051.8 Q191.644 1049.69 191.644 1046.08 Q191.644 1042.47 189.306 1040.36 Q186.968 1038.25 182.963 1038.25 Q181.088 1038.25 179.213 1038.67 Q177.361 1039.09 175.417 1039.97 L175.417 1022.61 Z" fill="#000000" fill-rule="nonzero" fill-opacity="1" /><path clip-path="url(#clip890)" d="M215.532 1025.68 Q211.921 1025.68 210.093 1029.25 Q208.287 1032.79 208.287 1039.92 Q208.287 1047.03 210.093 1050.59 Q211.921 1054.13 215.532 1054.13 Q219.167 1054.13 220.972 1050.59 Q222.801 1047.03 222.801 1039.92 Q222.801 1032.79 220.972 1029.25 Q219.167 1025.68 215.532 1025.68 M215.532 1021.98 Q221.342 1021.98 224.398 1026.59 Q227.477 1031.17 227.477 1039.92 Q227.477 1048.65 224.398 1053.25 Q221.342 1057.84 215.532 1057.84 Q209.722 1057.84 206.643 1053.25 Q203.588 1048.65 203.588 1039.92 Q203.588 1031.17 206.643 1026.59 Q209.722 1021.98 215.532 1021.98 Z" fill="#000000" fill-rule="nonzero" fill-opacity="1" /><path clip-path="url(#clip890)" d="M263.865 1031.7 L253.287 1042.33 L263.865 1052.91 L261.111 1055.71 L250.486 1045.08 L239.861 1055.71 L237.129 1052.91 L247.685 1042.33 L237.129 1031.7 L239.861 1028.9 L250.486 1039.53 L261.111 1028.9 L263.865 1031.7 Z" fill="#000000" fill-rule="nonzero" fill-opacity="1" /><path clip-path="url(#clip890)" d="M276.226 1053.23 L283.865 1053.23 L283.865 1026.87 L275.555 1028.53 L275.555 1024.27 L283.819 1022.61 L288.495 1022.61 L288.495 1053.23 L296.134 1053.23 L296.134 1057.17 L276.226 1057.17 L276.226 1053.23 Z" fill="#000000" fill-rule="nonzero" fill-opacity="1" /><path clip-path="url(#clip890)" d="M315.578 1025.68 Q311.967 1025.68 310.138 1029.25 Q308.333 1032.79 308.333 1039.92 Q308.333 1047.03 310.138 1050.59 Q311.967 1054.13 315.578 1054.13 Q319.212 1054.13 321.018 1050.59 Q322.847 1047.03 322.847 1039.92 Q322.847 1032.79 321.018 1029.25 Q319.212 1025.68 315.578 1025.68 M315.578 1021.98 Q321.388 1021.98 324.444 1026.59 Q327.522 1031.17 327.522 1039.92 Q327.522 1048.65 324.444 1053.25 Q321.388 1057.84 315.578 1057.84 Q309.768 1057.84 306.689 1053.25 Q303.634 1048.65 303.634 1039.92 Q303.634 1031.17 306.689 1026.59 Q309.768 1021.98 315.578 1021.98 Z" fill="#000000" fill-rule="nonzero" fill-opacity="1" /><path clip-path="url(#clip890)" d="M329.328 1029.17 L329.328 1025.71 Q330.757 1026.39 332.224 1026.75 Q333.691 1027.1 335.102 1027.1 Q338.864 1027.1 340.838 1024.58 Q342.832 1022.04 343.114 1016.89 Q342.023 1018.51 340.349 1019.37 Q338.675 1020.24 336.644 1020.24 Q332.431 1020.24 329.967 1017.7 Q327.522 1015.14 327.522 1010.72 Q327.522 1006.4 330.08 1003.78 Q332.638 1001.17 336.889 1001.17 Q341.76 1001.17 344.318 1004.91 Q346.894 1008.63 346.894 1015.74 Q346.894 1022.38 343.735 1026.35 Q340.594 1030.3 335.271 1030.3 Q333.842 1030.3 332.375 1030.02 Q330.908 1029.74 329.328 1029.17 M336.889 1017.27 Q339.447 1017.27 340.932 1015.52 Q342.437 1013.77 342.437 1010.72 Q342.437 1007.69 340.932 1005.94 Q339.447 1004.18 336.889 1004.18 Q334.331 1004.18 332.826 1005.94 Q331.34 1007.69 331.34 1010.72 Q331.34 1013.77 332.826 1015.52 Q334.331 1017.27 336.889 1017.27 Z" fill="#000000" fill-rule="nonzero" fill-opacity="1" /><path clip-path="url(#clip890)" d="M104.005 844.134 L120.324 844.134 L120.324 848.069 L98.3802 848.069 L98.3802 844.134 Q101.042 841.379 105.625 836.749 Q110.232 832.097 111.412 830.754 Q113.658 828.231 114.537 826.495 Q115.44 824.736 115.44 823.046 Q115.44 820.291 113.496 818.555 Q111.575 816.819 108.473 816.819 Q106.274 816.819 103.82 817.583 Q101.389 818.347 98.6116 819.898 L98.6116 815.175 Q101.436 814.041 103.889 813.463 Q106.343 812.884 108.38 812.884 Q113.75 812.884 116.945 815.569 Q120.139 818.254 120.139 822.745 Q120.139 824.874 119.329 826.796 Q118.542 828.694 116.436 831.286 Q115.857 831.958 112.755 835.175 Q109.653 838.37 104.005 844.134 Z" fill="#000000" fill-rule="nonzero" fill-opacity="1" /><path clip-path="url(#clip890)" d="M130.139 842.189 L135.023 842.189 L135.023 848.069 L130.139 848.069 L130.139 842.189 Z" fill="#000000" fill-rule="nonzero" fill-opacity="1" /><path clip-path="url(#clip890)" d="M145.255 813.509 L163.611 813.509 L163.611 817.444 L149.537 817.444 L149.537 825.916 Q150.556 825.569 151.574 825.407 Q152.593 825.222 153.611 825.222 Q159.398 825.222 162.778 828.393 Q166.158 831.564 166.158 836.981 Q166.158 842.56 162.685 845.661 Q159.213 848.74 152.894 848.74 Q150.718 848.74 148.449 848.37 Q146.204 847.999 143.797 847.259 L143.797 842.56 Q145.88 843.694 148.102 844.249 Q150.324 844.805 152.801 844.805 Q156.806 844.805 159.144 842.698 Q161.482 840.592 161.482 836.981 Q161.482 833.37 159.144 831.263 Q156.806 829.157 152.801 829.157 Q150.926 829.157 149.051 829.574 Q147.199 829.99 145.255 830.87 L145.255 813.509 Z" fill="#000000" fill-rule="nonzero" fill-opacity="1" /><path clip-path="url(#clip890)" d="M185.37 816.587 Q181.759 816.587 179.931 820.152 Q178.125 823.694 178.125 830.824 Q178.125 837.93 179.931 841.495 Q181.759 845.036 185.37 845.036 Q189.005 845.036 190.81 841.495 Q192.639 837.93 192.639 830.824 Q192.639 823.694 190.81 820.152 Q189.005 816.587 185.37 816.587 M185.37 812.884 Q191.181 812.884 194.236 817.49 Q197.315 822.074 197.315 830.824 Q197.315 839.55 194.236 844.157 Q191.181 848.74 185.37 848.74 Q179.56 848.74 176.482 844.157 Q173.426 839.55 173.426 830.824 Q173.426 822.074 176.482 817.49 Q179.56 812.884 185.37 812.884 Z" fill="#000000" fill-rule="nonzero" fill-opacity="1" /><path clip-path="url(#clip890)" d="M215.532 816.587 Q211.921 816.587 210.093 820.152 Q208.287 823.694 208.287 830.824 Q208.287 837.93 210.093 841.495 Q211.921 845.036 215.532 845.036 Q219.167 845.036 220.972 841.495 Q222.801 837.93 222.801 830.824 Q222.801 823.694 220.972 820.152 Q219.167 816.587 215.532 816.587 M215.532 812.884 Q221.342 812.884 224.398 817.49 Q227.477 822.074 227.477 830.824 Q227.477 839.55 224.398 844.157 Q221.342 848.74 215.532 848.74 Q209.722 848.74 206.643 844.157 Q203.588 839.55 203.588 830.824 Q203.588 822.074 206.643 817.49 Q209.722 812.884 215.532 812.884 Z" fill="#000000" fill-rule="nonzero" fill-opacity="1" /><path clip-path="url(#clip890)" d="M263.865 822.606 L253.287 833.231 L263.865 843.81 L261.111 846.61 L250.486 835.986 L239.861 846.61 L237.129 843.81 L247.685 833.231 L237.129 822.606 L239.861 819.805 L250.486 830.43 L261.111 819.805 L263.865 822.606 Z" fill="#000000" fill-rule="nonzero" fill-opacity="1" /><path clip-path="url(#clip890)" d="M276.226 844.134 L283.865 844.134 L283.865 817.768 L275.555 819.435 L275.555 815.175 L283.819 813.509 L288.495 813.509 L288.495 844.134 L296.134 844.134 L296.134 848.069 L276.226 848.069 L276.226 844.134 Z" fill="#000000" fill-rule="nonzero" fill-opacity="1" /><path clip-path="url(#clip890)" d="M315.578 816.587 Q311.967 816.587 310.138 820.152 Q308.333 823.694 308.333 830.824 Q308.333 837.93 310.138 841.495 Q311.967 845.036 315.578 845.036 Q319.212 845.036 321.018 841.495 Q322.847 837.93 322.847 830.824 Q322.847 823.694 321.018 820.152 Q319.212 816.587 315.578 816.587 M315.578 812.884 Q321.388 812.884 324.444 817.49 Q327.522 822.074 327.522 830.824 Q327.522 839.55 324.444 844.157 Q321.388 848.74 315.578 848.74 Q309.768 848.74 306.689 844.157 Q303.634 839.55 303.634 830.824 Q303.634 822.074 306.689 817.49 Q309.768 812.884 315.578 812.884 Z" fill="#000000" fill-rule="nonzero" fill-opacity="1" /><path clip-path="url(#clip890)" d="M329.328 820.075 L329.328 816.615 Q330.757 817.292 332.224 817.649 Q333.691 818.007 335.102 818.007 Q338.864 818.007 340.838 815.486 Q342.832 812.947 343.114 807.794 Q342.023 809.411 340.349 810.277 Q338.675 811.142 336.644 811.142 Q332.431 811.142 329.967 808.603 Q327.522 806.045 327.522 801.625 Q327.522 797.299 330.08 794.685 Q332.638 792.071 336.889 792.071 Q341.76 792.071 344.318 795.813 Q346.894 799.537 346.894 806.647 Q346.894 813.286 343.735 817.254 Q340.594 821.204 335.271 821.204 Q333.842 821.204 332.375 820.922 Q330.908 820.64 329.328 820.075 M336.889 808.17 Q339.447 808.17 340.932 806.421 Q342.437 804.672 342.437 801.625 Q342.437 798.597 340.932 796.848 Q339.447 795.08 336.889 795.08 Q334.331 795.08 332.826 796.848 Q331.34 798.597 331.34 801.625 Q331.34 804.672 332.826 806.421 Q334.331 808.17 336.889 808.17 Z" fill="#000000" fill-rule="nonzero" fill-opacity="1" /><path clip-path="url(#clip890)" d="M104.005 635.036 L120.324 635.036 L120.324 638.972 L98.3802 638.972 L98.3802 635.036 Q101.042 632.282 105.625 627.652 Q110.232 622.999 111.412 621.657 Q113.658 619.134 114.537 617.398 Q115.44 615.638 115.44 613.949 Q115.44 611.194 113.496 609.458 Q111.575 607.722 108.473 607.722 Q106.274 607.722 103.82 608.486 Q101.389 609.25 98.6116 610.8 L98.6116 606.078 Q101.436 604.944 103.889 604.365 Q106.343 603.787 108.38 603.787 Q113.75 603.787 116.945 606.472 Q120.139 609.157 120.139 613.648 Q120.139 615.777 119.329 617.699 Q118.542 619.597 116.436 622.189 Q115.857 622.861 112.755 626.078 Q109.653 629.273 104.005 635.036 Z" fill="#000000" fill-rule="nonzero" fill-opacity="1" /><path clip-path="url(#clip890)" d="M130.139 633.092 L135.023 633.092 L135.023 638.972 L130.139 638.972 L130.139 633.092 Z" fill="#000000" fill-rule="nonzero" fill-opacity="1" /><path clip-path="url(#clip890)" d="M144.028 604.412 L166.25 604.412 L166.25 606.402 L153.704 638.972 L148.82 638.972 L160.625 608.347 L144.028 608.347 L144.028 604.412 Z" fill="#000000" fill-rule="nonzero" fill-opacity="1" /><path clip-path="url(#clip890)" d="M175.417 604.412 L193.773 604.412 L193.773 608.347 L179.699 608.347 L179.699 616.819 Q180.718 616.472 181.736 616.31 Q182.755 616.125 183.773 616.125 Q189.56 616.125 192.94 619.296 Q196.319 622.467 196.319 627.884 Q196.319 633.462 192.847 636.564 Q189.375 639.643 183.056 639.643 Q180.88 639.643 178.611 639.273 Q176.366 638.902 173.958 638.161 L173.958 633.462 Q176.042 634.597 178.264 635.152 Q180.486 635.708 182.963 635.708 Q186.968 635.708 189.306 633.601 Q191.644 631.495 191.644 627.884 Q191.644 624.273 189.306 622.166 Q186.968 620.06 182.963 620.06 Q181.088 620.06 179.213 620.476 Q177.361 620.893 175.417 621.773 L175.417 604.412 Z" fill="#000000" fill-rule="nonzero" fill-opacity="1" /><path clip-path="url(#clip890)" d="M215.532 607.49 Q211.921 607.49 210.093 611.055 Q208.287 614.597 208.287 621.726 Q208.287 628.833 210.093 632.398 Q211.921 635.939 215.532 635.939 Q219.167 635.939 220.972 632.398 Q222.801 628.833 222.801 621.726 Q222.801 614.597 220.972 611.055 Q219.167 607.49 215.532 607.49 M215.532 603.787 Q221.342 603.787 224.398 608.393 Q227.477 612.976 227.477 621.726 Q227.477 630.453 224.398 635.06 Q221.342 639.643 215.532 639.643 Q209.722 639.643 206.643 635.06 Q203.588 630.453 203.588 621.726 Q203.588 612.976 206.643 608.393 Q209.722 603.787 215.532 603.787 Z" fill="#000000" fill-rule="nonzero" fill-opacity="1" /><path clip-path="url(#clip890)" d="M263.865 613.509 L253.287 624.134 L263.865 634.712 L261.111 637.513 L250.486 626.888 L239.861 637.513 L237.129 634.712 L247.685 624.134 L237.129 613.509 L239.861 610.708 L250.486 621.333 L261.111 610.708 L263.865 613.509 Z" fill="#000000" fill-rule="nonzero" fill-opacity="1" /><path clip-path="url(#clip890)" d="M276.226 635.036 L283.865 635.036 L283.865 608.671 L275.555 610.338 L275.555 606.078 L283.819 604.412 L288.495 604.412 L288.495 635.036 L296.134 635.036 L296.134 638.972 L276.226 638.972 L276.226 635.036 Z" fill="#000000" fill-rule="nonzero" fill-opacity="1" /><path clip-path="url(#clip890)" d="M315.578 607.49 Q311.967 607.49 310.138 611.055 Q308.333 614.597 308.333 621.726 Q308.333 628.833 310.138 632.398 Q311.967 635.939 315.578 635.939 Q319.212 635.939 321.018 632.398 Q322.847 628.833 322.847 621.726 Q322.847 614.597 321.018 611.055 Q319.212 607.49 315.578 607.49 M315.578 603.787 Q321.388 603.787 324.444 608.393 Q327.522 612.976 327.522 621.726 Q327.522 630.453 324.444 635.06 Q321.388 639.643 315.578 639.643 Q309.768 639.643 306.689 635.06 Q303.634 630.453 303.634 621.726 Q303.634 612.976 306.689 608.393 Q309.768 603.787 315.578 603.787 Z" fill="#000000" fill-rule="nonzero" fill-opacity="1" /><path clip-path="url(#clip890)" d="M329.328 610.978 L329.328 607.518 Q330.757 608.195 332.224 608.552 Q333.691 608.909 335.102 608.909 Q338.864 608.909 340.838 606.389 Q342.832 603.85 343.114 598.697 Q342.023 600.314 340.349 601.179 Q338.675 602.044 336.644 602.044 Q332.431 602.044 329.967 599.505 Q327.522 596.948 327.522 592.528 Q327.522 588.202 330.08 585.588 Q332.638 582.973 336.889 582.973 Q341.76 582.973 344.318 586.716 Q346.894 590.44 346.894 597.549 Q346.894 604.189 343.735 608.157 Q340.594 612.107 335.271 612.107 Q333.842 612.107 332.375 611.825 Q330.908 611.542 329.328 610.978 M336.889 599.073 Q339.447 599.073 340.932 597.324 Q342.437 595.575 342.437 592.528 Q342.437 589.5 340.932 587.751 Q339.447 585.983 336.889 585.983 Q334.331 585.983 332.826 587.751 Q331.34 589.5 331.34 592.528 Q331.34 595.575 332.826 597.324 Q334.331 599.073 336.889 599.073 Z" fill="#000000" fill-rule="nonzero" fill-opacity="1" /><path clip-path="url(#clip890)" d="M114.144 411.24 Q117.5 411.958 119.375 414.226 Q121.274 416.495 121.274 419.828 Q121.274 424.944 117.755 427.745 Q114.237 430.546 107.755 430.546 Q105.579 430.546 103.264 430.106 Q100.973 429.689 98.519 428.833 L98.519 424.319 Q100.463 425.453 102.778 426.032 Q105.093 426.611 107.616 426.611 Q112.014 426.611 114.306 424.874 Q116.621 423.138 116.621 419.828 Q116.621 416.773 114.468 415.06 Q112.338 413.324 108.519 413.324 L104.491 413.324 L104.491 409.481 L108.704 409.481 Q112.153 409.481 113.982 408.115 Q115.811 406.726 115.811 404.134 Q115.811 401.472 113.912 400.06 Q112.037 398.625 108.519 398.625 Q106.598 398.625 104.399 399.041 Q102.2 399.458 99.5607 400.338 L99.5607 396.171 Q102.223 395.43 104.538 395.06 Q106.875 394.689 108.936 394.689 Q114.26 394.689 117.362 397.12 Q120.463 399.527 120.463 403.648 Q120.463 406.518 118.82 408.509 Q117.176 410.476 114.144 411.24 Z" fill="#000000" fill-rule="nonzero" fill-opacity="1" /><path clip-path="url(#clip890)" d="M130.139 423.995 L135.023 423.995 L135.023 429.874 L130.139 429.874 L130.139 423.995 Z" fill="#000000" fill-rule="nonzero" fill-opacity="1" /><path clip-path="url(#clip890)" d="M155.209 398.393 Q151.597 398.393 149.769 401.958 Q147.963 405.5 147.963 412.629 Q147.963 419.736 149.769 423.3 Q151.597 426.842 155.209 426.842 Q158.843 426.842 160.648 423.3 Q162.477 419.736 162.477 412.629 Q162.477 405.5 160.648 401.958 Q158.843 398.393 155.209 398.393 M155.209 394.689 Q161.019 394.689 164.074 399.296 Q167.153 403.879 167.153 412.629 Q167.153 421.356 164.074 425.962 Q161.019 430.546 155.209 430.546 Q149.398 430.546 146.32 425.962 Q143.264 421.356 143.264 412.629 Q143.264 403.879 146.32 399.296 Q149.398 394.689 155.209 394.689 Z" fill="#000000" fill-rule="nonzero" fill-opacity="1" /><path clip-path="url(#clip890)" d="M185.37 398.393 Q181.759 398.393 179.931 401.958 Q178.125 405.5 178.125 412.629 Q178.125 419.736 179.931 423.3 Q181.759 426.842 185.37 426.842 Q189.005 426.842 190.81 423.3 Q192.639 419.736 192.639 412.629 Q192.639 405.5 190.81 401.958 Q189.005 398.393 185.37 398.393 M185.37 394.689 Q191.181 394.689 194.236 399.296 Q197.315 403.879 197.315 412.629 Q197.315 421.356 194.236 425.962 Q191.181 430.546 185.37 430.546 Q179.56 430.546 176.482 425.962 Q173.426 421.356 173.426 412.629 Q173.426 403.879 176.482 399.296 Q179.56 394.689 185.37 394.689 Z" fill="#000000" fill-rule="nonzero" fill-opacity="1" /><path clip-path="url(#clip890)" d="M215.532 398.393 Q211.921 398.393 210.093 401.958 Q208.287 405.5 208.287 412.629 Q208.287 419.736 210.093 423.3 Q211.921 426.842 215.532 426.842 Q219.167 426.842 220.972 423.3 Q222.801 419.736 222.801 412.629 Q222.801 405.5 220.972 401.958 Q219.167 398.393 215.532 398.393 M215.532 394.689 Q221.342 394.689 224.398 399.296 Q227.477 403.879 227.477 412.629 Q227.477 421.356 224.398 425.962 Q221.342 430.546 215.532 430.546 Q209.722 430.546 206.643 425.962 Q203.588 421.356 203.588 412.629 Q203.588 403.879 206.643 399.296 Q209.722 394.689 215.532 394.689 Z" fill="#000000" fill-rule="nonzero" fill-opacity="1" /><path clip-path="url(#clip890)" d="M263.865 404.412 L253.287 415.037 L263.865 425.615 L261.111 428.416 L250.486 417.791 L239.861 428.416 L237.129 425.615 L247.685 415.037 L237.129 404.412 L239.861 401.611 L250.486 412.236 L261.111 401.611 L263.865 404.412 Z" fill="#000000" fill-rule="nonzero" fill-opacity="1" /><path clip-path="url(#clip890)" d="M276.226 425.939 L283.865 425.939 L283.865 399.574 L275.555 401.24 L275.555 396.981 L283.819 395.314 L288.495 395.314 L288.495 425.939 L296.134 425.939 L296.134 429.874 L276.226 429.874 L276.226 425.939 Z" fill="#000000" fill-rule="nonzero" fill-opacity="1" /><path clip-path="url(#clip890)" d="M315.578 398.393 Q311.967 398.393 310.138 401.958 Q308.333 405.5 308.333 412.629 Q308.333 419.736 310.138 423.3 Q311.967 426.842 315.578 426.842 Q319.212 426.842 321.018 423.3 Q322.847 419.736 322.847 412.629 Q322.847 405.5 321.018 401.958 Q319.212 398.393 315.578 398.393 M315.578 394.689 Q321.388 394.689 324.444 399.296 Q327.522 403.879 327.522 412.629 Q327.522 421.356 324.444 425.962 Q321.388 430.546 315.578 430.546 Q309.768 430.546 306.689 425.962 Q303.634 421.356 303.634 412.629 Q303.634 403.879 306.689 399.296 Q309.768 394.689 315.578 394.689 Z" fill="#000000" fill-rule="nonzero" fill-opacity="1" /><path clip-path="url(#clip890)" d="M329.328 401.881 L329.328 398.42 Q330.757 399.097 332.224 399.455 Q333.691 399.812 335.102 399.812 Q338.864 399.812 340.838 397.292 Q342.832 394.753 343.114 389.6 Q342.023 391.217 340.349 392.082 Q338.675 392.947 336.644 392.947 Q332.431 392.947 329.967 390.408 Q327.522 387.85 327.522 383.431 Q327.522 379.105 330.08 376.491 Q332.638 373.876 336.889 373.876 Q341.76 373.876 344.318 377.619 Q346.894 381.343 346.894 388.452 Q346.894 395.091 343.735 399.06 Q340.594 403.009 335.271 403.009 Q333.842 403.009 332.375 402.727 Q330.908 402.445 329.328 401.881 M336.889 389.976 Q339.447 389.976 340.932 388.227 Q342.437 386.477 342.437 383.431 Q342.437 380.403 340.932 378.653 Q339.447 376.885 336.889 376.885 Q334.331 376.885 332.826 378.653 Q331.34 380.403 331.34 383.431 Q331.34 386.477 332.826 388.227 Q334.331 389.976 336.889 389.976 Z" fill="#000000" fill-rule="nonzero" fill-opacity="1" /><path clip-path="url(#clip890)" d="M114.144 202.143 Q117.5 202.861 119.375 205.129 Q121.274 207.398 121.274 210.731 Q121.274 215.847 117.755 218.648 Q114.237 221.449 107.755 221.449 Q105.579 221.449 103.264 221.009 Q100.973 220.592 98.519 219.736 L98.519 215.222 Q100.463 216.356 102.778 216.935 Q105.093 217.513 107.616 217.513 Q112.014 217.513 114.306 215.777 Q116.621 214.041 116.621 210.731 Q116.621 207.675 114.468 205.963 Q112.338 204.226 108.519 204.226 L104.491 204.226 L104.491 200.384 L108.704 200.384 Q112.153 200.384 113.982 199.018 Q115.811 197.629 115.811 195.037 Q115.811 192.375 113.912 190.963 Q112.037 189.527 108.519 189.527 Q106.598 189.527 104.399 189.944 Q102.2 190.361 99.5607 191.24 L99.5607 187.074 Q102.223 186.333 104.538 185.963 Q106.875 185.592 108.936 185.592 Q114.26 185.592 117.362 188.023 Q120.463 190.43 120.463 194.551 Q120.463 197.421 118.82 199.412 Q117.176 201.379 114.144 202.143 Z" fill="#000000" fill-rule="nonzero" fill-opacity="1" /><path clip-path="url(#clip890)" d="M130.139 214.898 L135.023 214.898 L135.023 220.777 L130.139 220.777 L130.139 214.898 Z" fill="#000000" fill-rule="nonzero" fill-opacity="1" /><path clip-path="url(#clip890)" d="M149.236 216.842 L165.556 216.842 L165.556 220.777 L143.611 220.777 L143.611 216.842 Q146.273 214.087 150.857 209.458 Q155.463 204.805 156.644 203.463 Q158.889 200.939 159.769 199.203 Q160.671 197.444 160.671 195.754 Q160.671 193 158.727 191.264 Q156.806 189.527 153.704 189.527 Q151.505 189.527 149.051 190.291 Q146.621 191.055 143.843 192.606 L143.843 187.884 Q146.667 186.75 149.121 186.171 Q151.574 185.592 153.611 185.592 Q158.982 185.592 162.176 188.277 Q165.371 190.963 165.371 195.453 Q165.371 197.583 164.56 199.504 Q163.773 201.402 161.667 203.995 Q161.088 204.666 157.986 207.884 Q154.884 211.078 149.236 216.842 Z" fill="#000000" fill-rule="nonzero" fill-opacity="1" /><path clip-path="url(#clip890)" d="M175.417 186.217 L193.773 186.217 L193.773 190.152 L179.699 190.152 L179.699 198.625 Q180.718 198.277 181.736 198.115 Q182.755 197.93 183.773 197.93 Q189.56 197.93 192.94 201.101 Q196.319 204.273 196.319 209.689 Q196.319 215.268 192.847 218.37 Q189.375 221.449 183.056 221.449 Q180.88 221.449 178.611 221.078 Q176.366 220.708 173.958 219.967 L173.958 215.268 Q176.042 216.402 178.264 216.958 Q180.486 217.513 182.963 217.513 Q186.968 217.513 189.306 215.407 Q191.644 213.3 191.644 209.689 Q191.644 206.078 189.306 203.972 Q186.968 201.865 182.963 201.865 Q181.088 201.865 179.213 202.282 Q177.361 202.699 175.417 203.578 L175.417 186.217 Z" fill="#000000" fill-rule="nonzero" fill-opacity="1" /><path clip-path="url(#clip890)" d="M215.532 189.296 Q211.921 189.296 210.093 192.861 Q208.287 196.402 208.287 203.532 Q208.287 210.638 210.093 214.203 Q211.921 217.745 215.532 217.745 Q219.167 217.745 220.972 214.203 Q222.801 210.638 222.801 203.532 Q222.801 196.402 220.972 192.861 Q219.167 189.296 215.532 189.296 M215.532 185.592 Q221.342 185.592 224.398 190.199 Q227.477 194.782 227.477 203.532 Q227.477 212.259 224.398 216.865 Q221.342 221.449 215.532 221.449 Q209.722 221.449 206.643 216.865 Q203.588 212.259 203.588 203.532 Q203.588 194.782 206.643 190.199 Q209.722 185.592 215.532 185.592 Z" fill="#000000" fill-rule="nonzero" fill-opacity="1" /><path clip-path="url(#clip890)" d="M263.865 195.314 L253.287 205.939 L263.865 216.518 L261.111 219.319 L250.486 208.694 L239.861 219.319 L237.129 216.518 L247.685 205.939 L237.129 195.314 L239.861 192.514 L250.486 203.138 L261.111 192.514 L263.865 195.314 Z" fill="#000000" fill-rule="nonzero" fill-opacity="1" /><path clip-path="url(#clip890)" d="M276.226 216.842 L283.865 216.842 L283.865 190.476 L275.555 192.143 L275.555 187.884 L283.819 186.217 L288.495 186.217 L288.495 216.842 L296.134 216.842 L296.134 220.777 L276.226 220.777 L276.226 216.842 Z" fill="#000000" fill-rule="nonzero" fill-opacity="1" /><path clip-path="url(#clip890)" d="M315.578 189.296 Q311.967 189.296 310.138 192.861 Q308.333 196.402 308.333 203.532 Q308.333 210.638 310.138 214.203 Q311.967 217.745 315.578 217.745 Q319.212 217.745 321.018 214.203 Q322.847 210.638 322.847 203.532 Q322.847 196.402 321.018 192.861 Q319.212 189.296 315.578 189.296 M315.578 185.592 Q321.388 185.592 324.444 190.199 Q327.522 194.782 327.522 203.532 Q327.522 212.259 324.444 216.865 Q321.388 221.449 315.578 221.449 Q309.768 221.449 306.689 216.865 Q303.634 212.259 303.634 203.532 Q303.634 194.782 306.689 190.199 Q309.768 185.592 315.578 185.592 Z" fill="#000000" fill-rule="nonzero" fill-opacity="1" /><path clip-path="url(#clip890)" d="M329.328 192.784 L329.328 189.323 Q330.757 190 332.224 190.358 Q333.691 190.715 335.102 190.715 Q338.864 190.715 340.838 188.195 Q342.832 185.656 343.114 180.502 Q342.023 182.12 340.349 182.985 Q338.675 183.85 336.644 183.85 Q332.431 183.85 329.967 181.311 Q327.522 178.753 327.522 174.333 Q327.522 170.008 330.08 167.393 Q332.638 164.779 336.889 164.779 Q341.76 164.779 344.318 168.522 Q346.894 172.246 346.894 179.355 Q346.894 185.994 343.735 189.963 Q340.594 193.912 335.271 193.912 Q333.842 193.912 332.375 193.63 Q330.908 193.348 329.328 192.784 M336.889 180.878 Q339.447 180.878 340.932 179.129 Q342.437 177.38 342.437 174.333 Q342.437 171.305 340.932 169.556 Q339.447 167.788 336.889 167.788 Q334.331 167.788 332.826 169.556 Q331.34 171.305 331.34 174.333 Q331.34 177.38 332.826 179.129 Q334.331 180.878 336.889 180.878 Z" fill="#000000" fill-rule="nonzero" fill-opacity="1" /><path clip-path="url(#clip890)" d="M-9.64527 840.632 L0.4762 840.632 L0.4762 828.569 L5.02768 828.569 L5.02768 840.632 L24.3794 840.632 Q28.7399 840.632 29.9813 839.454 Q31.2226 838.245 31.2226 834.584 L31.2226 828.569 L36.1242 828.569 L36.1242 834.584 Q36.1242 841.364 33.6097 843.942 Q31.0634 846.52 24.3794 846.52 L5.02768 846.52 L5.02768 850.817 L0.4762 850.817 L0.4762 846.52 L-9.64527 846.52 L-9.64527 840.632 Z" fill="#000000" fill-rule="nonzero" fill-opacity="1" /><path clip-path="url(#clip890)" d="M-11.3958 789.738 L-11.3958 784.327 L42.1716 800.878 L42.1716 806.289 L-11.3958 789.738 Z" fill="#000000" fill-rule="nonzero" fill-opacity="1" /><path clip-path="url(#clip890)" d="M14.6081 727.831 L36.1242 727.831 L36.1242 733.688 L14.799 733.688 Q9.7383 733.688 7.22385 735.661 Q4.7094 737.635 4.7094 741.581 Q4.7094 746.324 7.73311 749.061 Q10.7568 751.798 15.9767 751.798 L36.1242 751.798 L36.1242 757.687 L0.4762 757.687 L0.4762 751.798 L6.01437 751.798 Q2.79968 749.698 1.20826 746.865 Q-0.38317 744 -0.38317 740.276 Q-0.38317 734.133 3.43625 730.982 Q7.22385 727.831 14.6081 727.831 Z" fill="#000000" fill-rule="nonzero" fill-opacity="1" /><path clip-path="url(#clip890)" d="M1.52654 693.425 L7.06471 693.425 Q5.79157 695.907 5.15499 698.581 Q4.51842 701.255 4.51842 704.119 Q4.51842 708.48 5.85522 710.676 Q7.19202 712.84 9.86562 712.84 Q11.9026 712.84 13.0803 711.281 Q14.2261 709.721 15.2765 705.01 L15.7221 703.005 Q17.0589 696.767 19.5097 694.157 Q21.9286 691.515 26.2891 691.515 Q31.2544 691.515 34.1508 695.462 Q37.0472 699.377 37.0472 706.252 Q37.0472 709.116 36.4743 712.235 Q35.9332 715.323 34.8192 718.76 L28.7718 718.76 Q30.4587 715.514 31.318 712.363 Q32.1456 709.212 32.1456 706.124 Q32.1456 701.987 30.7451 699.759 Q29.3129 697.531 26.7347 697.531 Q24.3476 697.531 23.0745 699.154 Q21.8013 700.745 20.6237 706.188 L20.1462 708.225 Q19.0004 713.668 16.6451 716.087 Q14.258 718.506 10.1202 718.506 Q5.09134 718.506 2.35408 714.941 Q-0.38317 711.376 -0.38317 704.819 Q-0.38317 701.573 0.0942579 698.708 Q0.571686 695.844 1.52654 693.425 Z" fill="#000000" fill-rule="nonzero" fill-opacity="1" /><path clip-path="url(#clip892)" d="M1383.51 1454.11 L1392.1 1453 L1399.6 1451.88 L1405.94 1450.77 L1411.08 1449.66 L1414.98 1448.54 L1417.62 1447.43 L1418.97 1446.31 L1419.04 1445.2 L1417.83 1444.09 L1415.37 1442.97 L1411.68 1441.86 L1406.81 1440.74 L1400.81 1439.63 L1393.74 1438.52 L1385.67 1437.4 L1376.69 1436.29 L1366.89 1435.17 L1356.36 1434.06 L1345.2 1432.95 L1333.53 1431.83 L1321.46 1430.72 L1309.09 1429.6 L1296.56 1428.49 L1283.96 1427.38 L1271.43 1426.26 L1259.07 1425.15 L1246.99 1424.03 L1235.29 1422.92 L1224.07 1421.81 L1213.43 1420.69 L1203.45 1419.58 L1194.2 1418.46 L1185.75 1417.35 L1178.15 1416.24 L1171.45 1415.12 L1165.68 1414.01 L1160.85 1412.89 L1156.98 1411.78 L1154.07 1410.67 L1152.1 1409.55 L1151.03 1408.44 L1150.85 1407.32 L1151.49 1406.21 L1152.89 1405.1 L1155 1403.98 L1157.73 1402.87 L1161 1401.75 L1164.73 1400.64 L1168.81 1399.53 L1173.15 1398.41 L1177.65 1397.3 L1182.21 1396.18 L1186.72 1395.07 L1191.09 1393.96 L1195.23 1392.84 L1199.04 1391.73 L1202.44 1390.61 L1205.34 1389.5 L1207.68 1388.39 L1209.4 1387.27 L1210.44 1386.16 L1210.76 1385.04 L1210.33 1383.93 L681.657 1383.93 L681.228 1385.04 L681.549 1386.16 L682.589 1387.27 L684.307 1388.39 L686.648 1389.5 L689.552 1390.61 L692.948 1391.73 L696.757 1392.84 L700.894 1393.96 L705.267 1395.07 L709.782 1396.18 L714.34 1397.3 L718.839 1398.41 L723.179 1399.53 L727.26 1400.64 L730.984 1401.75 L734.256 1402.87 L736.987 1403.98 L739.094 1405.1 L740.501 1406.21 L741.14 1407.32 L740.953 1408.44 L739.891 1409.55 L737.917 1410.67 L735.003 1411.78 L731.135 1412.89 L726.31 1414.01 L720.535 1415.12 L713.833 1416.24 L706.234 1417.35 L697.783 1418.46 L688.535 1419.58 L678.553 1420.69 L667.914 1421.81 L656.7 1422.92 L645.002 1424.03 L632.92 1425.15 L620.557 1426.26 L608.023 1427.38 L595.431 1428.49 L582.895 1429.6 L570.532 1430.72 L558.457 1431.83 L546.787 1432.95 L535.632 1434.06 L525.101 1435.17 L515.296 1436.29 L506.316 1437.4 L498.249 1438.52 L491.178 1439.63 L485.174 1440.74 L480.302 1441.86 L476.615 1442.97 L474.153 1444.09 L472.947 1445.2 L473.018 1446.31 L474.372 1447.43 L477.006 1448.54 L480.906 1449.66 L486.044 1450.77 L492.386 1451.88 L499.884 1453 L508.482 1454.11 L1383.51 1454.11  Z" fill="#009af9" fill-rule="evenodd" fill-opacity="1"/>
<polyline clip-path="url(#clip892)" style="stroke:#000000; stroke-linecap:round; stroke-linejoin:round; stroke-width:4; stroke-opacity:1; fill:none" points="1383.51,1454.11 1392.1,1453 1399.6,1451.88 1405.94,1450.77 1411.08,1449.66 1414.98,1448.54 1417.62,1447.43 1418.97,1446.31 1419.04,1445.2 1417.83,1444.09 1415.37,1442.97 1411.68,1441.86 1406.81,1440.74 1400.81,1439.63 1393.74,1438.52 1385.67,1437.4 1376.69,1436.29 1366.89,1435.17 1356.36,1434.06 1345.2,1432.95 1333.53,1431.83 1321.46,1430.72 1309.09,1429.6 1296.56,1428.49 1283.96,1427.38 1271.43,1426.26 1259.07,1425.15 1246.99,1424.03 1235.29,1422.92 1224.07,1421.81 1213.43,1420.69 1203.45,1419.58 1194.2,1418.46 1185.75,1417.35 1178.15,1416.24 1171.45,1415.12 1165.68,1414.01 1160.85,1412.89 1156.98,1411.78 1154.07,1410.67 1152.1,1409.55 1151.03,1408.44 1150.85,1407.32 1151.49,1406.21 1152.89,1405.1 1155,1403.98 1157.73,1402.87 1161,1401.75 1164.73,1400.64 1168.81,1399.53 1173.15,1398.41 1177.65,1397.3 1182.21,1396.18 1186.72,1395.07 1191.09,1393.96 1195.23,1392.84 1199.04,1391.73 1202.44,1390.61 1205.34,1389.5 1207.68,1388.39 1209.4,1387.27 1210.44,1386.16 1210.76,1385.04 1210.33,1383.93 681.657,1383.93 681.228,1385.04 681.549,1386.16 682.589,1387.27 684.307,1388.39 686.648,1389.5 689.552,1390.61 692.948,1391.73 696.757,1392.84 700.894,1393.96 705.267,1395.07 709.782,1396.18 714.34,1397.3 718.839,1398.41 723.179,1399.53 727.26,1400.64 730.984,1401.75 734.256,1402.87 736.987,1403.98 739.094,1405.1 740.501,1406.21 741.14,1407.32 740.953,1408.44 739.891,1409.55 737.917,1410.67 735.003,1411.78 731.135,1412.89 726.31,1414.01 720.535,1415.12 713.833,1416.24 706.234,1417.35 697.783,1418.46 688.535,1419.58 678.553,1420.69 667.914,1421.81 656.7,1422.92 645.002,1424.03 632.92,1425.15 620.557,1426.26 608.023,1427.38 595.431,1428.49 582.895,1429.6 570.532,1430.72 558.457,1431.83 546.787,1432.95 535.632,1434.06 525.101,1435.17 515.296,1436.29 506.316,1437.4 498.249,1438.52 491.178,1439.63 485.174,1440.74 480.302,1441.86 476.615,1442.97 474.153,1444.09 472.947,1445.2 473.018,1446.31 474.372,1447.43 477.006,1448.54 480.906,1449.66 486.044,1450.77 492.386,1451.88 499.884,1453 508.482,1454.11 1383.51,1454.11 "/>
<path clip-path="url(#clip892)" d="M3074.7 554.609 L3073.77 546.705 L3071.36 538.8 L3067.5 530.895 L3062.26 522.99 L3055.69 515.085 L3047.89 507.18 L3038.95 499.275 L3028.97 491.37 L3018.07 483.465 L3006.39 475.56 L2994.06 467.656 L2981.23 459.751 L2968.04 451.846 L2954.63 443.941 L2941.18 436.036 L2927.81 428.131 L2914.68 420.226 L2901.94 412.321 L2889.73 404.416 L2878.17 396.512 L2867.38 388.607 L2857.49 380.702 L2848.6 372.797 L2840.8 364.892 L2834.18 356.987 L2828.79 349.082 L2824.7 341.177 L2821.96 333.272 L2820.57 325.368 L2820.57 317.463 L2821.96 309.558 L2824.7 301.653 L2828.79 293.748 L2834.18 285.843 L2840.8 277.938 L2848.6 270.033 L2857.49 262.128 L2867.38 254.224 L2878.17 246.319 L2889.73 238.414 L2901.94 230.509 L2914.68 222.604 L2927.81 214.699 L2941.18 206.794 L2954.63 198.889 L2968.04 190.984 L2981.23 183.08 L2994.06 175.175 L3006.39 167.27 L3018.07 159.365 L3028.97 151.46 L3038.95 143.555 L3047.89 135.65 L3055.69 127.745 L3062.26 119.84 L3067.5 111.935 L3071.36 104.031 L3073.77 96.1257 L3074.7 88.2208 L2128.61 88.2208 L2129.54 96.1257 L2131.96 104.031 L2135.81 111.935 L2141.05 119.84 L2147.62 127.745 L2155.42 135.65 L2164.37 143.555 L2174.35 151.46 L2185.24 159.365 L2196.92 167.27 L2209.25 175.175 L2222.08 183.08 L2235.28 190.984 L2248.68 198.889 L2262.14 206.794 L2275.5 214.699 L2288.63 222.604 L2301.37 230.509 L2313.59 238.414 L2325.15 246.319 L2335.93 254.224 L2345.82 262.128 L2354.71 270.033 L2362.51 277.938 L2369.14 285.843 L2374.52 293.748 L2378.61 301.653 L2381.36 309.558 L2382.74 317.463 L2382.74 325.368 L2381.36 333.272 L2378.61 341.177 L2374.52 349.082 L2369.14 356.987 L2362.51 364.892 L2354.71 372.797 L2345.82 380.702 L2335.93 388.607 L2325.15 396.512 L2313.59 404.416 L2301.37 412.321 L2288.63 420.226 L2275.5 428.131 L2262.14 436.036 L2248.68 443.941 L2235.28 451.846 L2222.08 459.751 L2209.25 467.656 L2196.92 475.56 L2185.24 483.465 L2174.35 491.37 L2164.37 499.275 L2155.42 507.18 L2147.62 515.085 L2141.05 522.99 L2135.81 530.895 L2131.96 538.8 L2129.54 546.705 L2128.61 554.609 L3074.7 554.609  Z" fill="#e26f46" fill-rule="evenodd" fill-opacity="1"/>
<polyline clip-path="url(#clip892)" style="stroke:#000000; stroke-linecap:round; stroke-linejoin:round; stroke-width:4; stroke-opacity:1; fill:none" points="3074.7,554.609 3073.77,546.705 3071.36,538.8 3067.5,530.895 3062.26,522.99 3055.69,515.085 3047.89,507.18 3038.95,499.275 3028.97,491.37 3018.07,483.465 3006.39,475.56 2994.06,467.656 2981.23,459.751 2968.04,451.846 2954.63,443.941 2941.18,436.036 2927.81,428.131 2914.68,420.226 2901.94,412.321 2889.73,404.416 2878.17,396.512 2867.38,388.607 2857.49,380.702 2848.6,372.797 2840.8,364.892 2834.18,356.987 2828.79,349.082 2824.7,341.177 2821.96,333.272 2820.57,325.368 2820.57,317.463 2821.96,309.558 2824.7,301.653 2828.79,293.748 2834.18,285.843 2840.8,277.938 2848.6,270.033 2857.49,262.128 2867.38,254.224 2878.17,246.319 2889.73,238.414 2901.94,230.509 2914.68,222.604 2927.81,214.699 2941.18,206.794 2954.63,198.889 2968.04,190.984 2981.23,183.08 2994.06,175.175 3006.39,167.27 3018.07,159.365 3028.97,151.46 3038.95,143.555 3047.89,135.65 3055.69,127.745 3062.26,119.84 3067.5,111.935 3071.36,104.031 3073.77,96.1257 3074.7,88.2208 2128.61,88.2208 2129.54,96.1257 2131.96,104.031 2135.81,111.935 2141.05,119.84 2147.62,127.745 2155.42,135.65 2164.37,143.555 2174.35,151.46 2185.24,159.365 2196.92,167.27 2209.25,175.175 2222.08,183.08 2235.28,190.984 2248.68,198.889 2262.14,206.794 2275.5,214.699 2288.63,222.604 2301.37,230.509 2313.59,238.414 2325.15,246.319 2335.93,254.224 2345.82,262.128 2354.71,270.033 2362.51,277.938 2369.14,285.843 2374.52,293.748 2378.61,301.653 2381.36,309.558 2382.74,317.463 2382.74,325.368 2381.36,333.272 2378.61,341.177 2374.52,349.082 2369.14,356.987 2362.51,364.892 2354.71,372.797 2345.82,380.702 2335.93,388.607 2325.15,396.512 2313.59,404.416 2301.37,412.321 2288.63,420.226 2275.5,428.131 2262.14,436.036 2248.68,443.941 2235.28,451.846 2222.08,459.751 2209.25,467.656 2196.92,475.56 2185.24,483.465 2174.35,491.37 2164.37,499.275 2155.42,507.18 2147.62,515.085 2141.05,522.99 2135.81,530.895 2131.96,538.8 2129.54,546.705 2128.61,554.609 3074.7,554.609 "/>
</svg>
