<?xml version="1.0" encoding="utf-8"?>
<svg xmlns="http://www.w3.org/2000/svg" xmlns:xlink="http://www.w3.org/1999/xlink" width="800" height="400" viewBox="0 0 3200 1600">
<defs>
  <clipPath id="clip010">
    <rect x="0" y="0" width="3200" height="1600"/>
  </clipPath>
</defs>
<path clip-path="url(#clip010)" d="M0 1600 L3200 1600 L3200 0 L0 0  Z" fill="#ffffff" fill-rule="evenodd" fill-opacity="1"/>
<defs>
  <clipPath id="clip011">
    <rect x="640" y="0" width="2241" height="1600"/>
  </clipPath>
</defs>
<path clip-path="url(#clip010)" d="M396.052 1495.09 L3152.76 1495.09 L3152.76 47.2441 L396.052 47.2441  Z" fill="#ffffff" fill-rule="evenodd" fill-opacity="1"/>
<defs>
  <clipPath id="clip012">
    <rect x="396" y="47" width="2758" height="1449"/>
  </clipPath>
</defs>
<polyline clip-path="url(#clip012)" style="stroke:#000000; stroke-linecap:round; stroke-linejoin:round; stroke-width:2; stroke-opacity:0.1; fill:none" points="946.92,1495.09 946.92,47.2441 "/>
<polyline clip-path="url(#clip012)" style="stroke:#000000; stroke-linecap:round; stroke-linejoin:round; stroke-width:2; stroke-opacity:0.1; fill:none" points="2601.89,1495.09 2601.89,47.2441 "/>
<polyline clip-path="url(#clip012)" style="stroke:#000000; stroke-linecap:round; stroke-linejoin:round; stroke-width:2; stroke-opacity:0.1; fill:none" points="396.052,1246.29 3152.76,1246.29 "/>
<polyline clip-path="url(#clip012)" style="stroke:#000000; stroke-linecap:round; stroke-linejoin:round; stroke-width:2; stroke-opacity:0.1; fill:none" points="396.052,971.698 3152.76,971.698 "/>
<polyline clip-path="url(#clip012)" style="stroke:#000000; stroke-linecap:round; stroke-linejoin:round; stroke-width:2; stroke-opacity:0.1; fill:none" points="396.052,697.108 3152.76,697.108 "/>
<polyline clip-path="url(#clip012)" style="stroke:#000000; stroke-linecap:round; stroke-linejoin:round; stroke-width:2; stroke-opacity:0.1; fill:none" points="396.052,422.518 3152.76,422.518 "/>
<polyline clip-path="url(#clip012)" style="stroke:#000000; stroke-linecap:round; stroke-linejoin:round; stroke-width:2; stroke-opacity:0.1; fill:none" points="396.052,147.929 3152.76,147.929 "/>
<polyline clip-path="url(#clip010)" style="stroke:#000000; stroke-linecap:round; stroke-linejoin:round; stroke-width:4; stroke-opacity:1; fill:none" points="396.052,1495.09 3152.76,1495.09 "/>
<polyline clip-path="url(#clip010)" style="stroke:#000000; stroke-linecap:round; stroke-linejoin:round; stroke-width:4; stroke-opacity:1; fill:none" points="946.92,1495.09 946.92,1476.19 "/>
<polyline clip-path="url(#clip010)" style="stroke:#000000; stroke-linecap:round; stroke-linejoin:round; stroke-width:4; stroke-opacity:1; fill:none" points="2601.89,1495.09 2601.89,1476.19 "/>
<path clip-path="url(#clip010)" d="M726.69 1530.46 L726.69 1535.02 Q724.027 1533.75 721.666 1533.12 Q719.305 1532.5 717.106 1532.5 Q713.287 1532.5 711.203 1533.98 Q709.143 1535.46 709.143 1538.19 Q709.143 1540.49 710.509 1541.67 Q711.898 1542.82 715.74 1543.54 L718.565 1544.12 Q723.796 1545.11 726.273 1547.64 Q728.773 1550.14 728.773 1554.35 Q728.773 1559.37 725.393 1561.97 Q722.037 1564.56 715.532 1564.56 Q713.078 1564.56 710.301 1564 Q707.546 1563.45 704.583 1562.36 L704.583 1557.55 Q707.43 1559.14 710.162 1559.95 Q712.893 1560.76 715.532 1560.76 Q719.537 1560.76 721.713 1559.19 Q723.889 1557.61 723.889 1554.7 Q723.889 1552.15 722.315 1550.72 Q720.764 1549.28 717.199 1548.56 L714.352 1548.01 Q709.12 1546.97 706.782 1544.74 Q704.444 1542.52 704.444 1538.56 Q704.444 1533.98 707.662 1531.34 Q710.903 1528.7 716.574 1528.7 Q719.004 1528.7 721.528 1529.14 Q724.051 1529.58 726.69 1530.46 Z" fill="#000000" fill-rule="nonzero" fill-opacity="1" /><path clip-path="url(#clip010)" d="M746.666 1566.3 Q744.861 1570.92 743.148 1572.34 Q741.435 1573.75 738.564 1573.75 L735.162 1573.75 L735.162 1570.18 L737.662 1570.18 Q739.421 1570.18 740.393 1569.35 Q741.365 1568.52 742.546 1565.42 L743.31 1563.47 L732.824 1537.96 L737.338 1537.96 L745.439 1558.24 L753.541 1537.96 L758.055 1537.96 L746.666 1566.3 Z" fill="#000000" fill-rule="nonzero" fill-opacity="1" /><path clip-path="url(#clip010)" d="M784.12 1542.94 Q785.717 1540.07 787.939 1538.7 Q790.161 1537.34 793.171 1537.34 Q797.222 1537.34 799.421 1540.18 Q801.62 1543.01 801.62 1548.24 L801.62 1563.89 L797.337 1563.89 L797.337 1548.38 Q797.337 1544.65 796.018 1542.85 Q794.698 1541.04 791.99 1541.04 Q788.68 1541.04 786.759 1543.24 Q784.837 1545.44 784.837 1549.24 L784.837 1563.89 L780.555 1563.89 L780.555 1548.38 Q780.555 1544.63 779.236 1542.85 Q777.916 1541.04 775.161 1541.04 Q771.898 1541.04 769.976 1543.26 Q768.055 1545.46 768.055 1549.24 L768.055 1563.89 L763.773 1563.89 L763.773 1537.96 L768.055 1537.96 L768.055 1541.99 Q769.513 1539.61 771.55 1538.47 Q773.587 1537.34 776.388 1537.34 Q779.212 1537.34 781.18 1538.77 Q783.171 1540.21 784.12 1542.94 Z" fill="#000000" fill-rule="nonzero" fill-opacity="1" /><path clip-path="url(#clip010)" d="M828.726 1550.95 Q828.726 1546.25 826.782 1543.59 Q824.86 1540.9 821.481 1540.9 Q818.101 1540.9 816.157 1543.59 Q814.235 1546.25 814.235 1550.95 Q814.235 1555.65 816.157 1558.33 Q818.101 1560.99 821.481 1560.99 Q824.86 1560.99 826.782 1558.33 Q828.726 1555.65 828.726 1550.95 M814.235 1541.9 Q815.578 1539.58 817.615 1538.47 Q819.675 1537.34 822.522 1537.34 Q827.245 1537.34 830.184 1541.09 Q833.147 1544.84 833.147 1550.95 Q833.147 1557.06 830.184 1560.81 Q827.245 1564.56 822.522 1564.56 Q819.675 1564.56 817.615 1563.45 Q815.578 1562.31 814.235 1560 L814.235 1563.89 L809.953 1563.89 L809.953 1527.87 L814.235 1527.87 L814.235 1541.9 Z" fill="#000000" fill-rule="nonzero" fill-opacity="1" /><path clip-path="url(#clip010)" d="M850.254 1540.95 Q846.828 1540.95 844.837 1543.63 Q842.846 1546.3 842.846 1550.95 Q842.846 1555.6 844.814 1558.29 Q846.805 1560.95 850.254 1560.95 Q853.656 1560.95 855.647 1558.26 Q857.638 1555.58 857.638 1550.95 Q857.638 1546.34 855.647 1543.66 Q853.656 1540.95 850.254 1540.95 M850.254 1537.34 Q855.809 1537.34 858.98 1540.95 Q862.152 1544.56 862.152 1550.95 Q862.152 1557.31 858.98 1560.95 Q855.809 1564.56 850.254 1564.56 Q844.675 1564.56 841.504 1560.95 Q838.356 1557.31 838.356 1550.95 Q838.356 1544.56 841.504 1540.95 Q844.675 1537.34 850.254 1537.34 Z" fill="#000000" fill-rule="nonzero" fill-opacity="1" /><path clip-path="url(#clip010)" d="M869.212 1527.87 L873.471 1527.87 L873.471 1563.89 L869.212 1563.89 L869.212 1527.87 Z" fill="#000000" fill-rule="nonzero" fill-opacity="1" /><path clip-path="url(#clip010)" d="M882.383 1537.96 L886.642 1537.96 L886.642 1563.89 L882.383 1563.89 L882.383 1537.96 M882.383 1527.87 L886.642 1527.87 L886.642 1533.26 L882.383 1533.26 L882.383 1527.87 Z" fill="#000000" fill-rule="nonzero" fill-opacity="1" /><path clip-path="url(#clip010)" d="M914.212 1538.96 L914.212 1542.94 Q912.406 1541.94 910.577 1541.46 Q908.772 1540.95 906.92 1540.95 Q902.777 1540.95 900.485 1543.59 Q898.193 1546.2 898.193 1550.95 Q898.193 1555.69 900.485 1558.33 Q902.777 1560.95 906.92 1560.95 Q908.772 1560.95 910.577 1560.46 Q912.406 1559.95 914.212 1558.96 L914.212 1562.89 Q912.429 1563.73 910.508 1564.14 Q908.61 1564.56 906.457 1564.56 Q900.601 1564.56 897.152 1560.88 Q893.703 1557.2 893.703 1550.95 Q893.703 1544.61 897.175 1540.97 Q900.67 1537.34 906.735 1537.34 Q908.702 1537.34 910.577 1537.75 Q912.452 1538.15 914.212 1538.96 Z" fill="#000000" fill-rule="nonzero" fill-opacity="1" /><path clip-path="url(#clip010)" d="M946.92 1527.92 Q943.818 1533.24 942.313 1538.45 Q940.809 1543.66 940.809 1549 Q940.809 1554.35 942.313 1559.61 Q943.841 1564.84 946.92 1570.14 L943.216 1570.14 Q939.744 1564.7 938.008 1559.44 Q936.295 1554.19 936.295 1549 Q936.295 1543.84 938.008 1538.61 Q939.721 1533.38 943.216 1527.92 L946.92 1527.92 Z" fill="#000000" fill-rule="nonzero" fill-opacity="1" /><path clip-path="url(#clip010)" d="M966.966 1550.86 Q961.804 1550.86 959.813 1552.04 Q957.823 1553.22 957.823 1556.06 Q957.823 1558.33 959.304 1559.67 Q960.809 1560.99 963.378 1560.99 Q966.92 1560.99 969.049 1558.49 Q971.202 1555.97 971.202 1551.8 L971.202 1550.86 L966.966 1550.86 M975.461 1549.1 L975.461 1563.89 L971.202 1563.89 L971.202 1559.95 Q969.744 1562.31 967.568 1563.45 Q965.392 1564.56 962.244 1564.56 Q958.262 1564.56 955.901 1562.34 Q953.563 1560.09 953.563 1556.34 Q953.563 1551.97 956.48 1549.74 Q959.42 1547.52 965.23 1547.52 L971.202 1547.52 L971.202 1547.11 Q971.202 1544.17 969.258 1542.57 Q967.336 1540.95 963.841 1540.95 Q961.619 1540.95 959.512 1541.48 Q957.406 1542.01 955.461 1543.08 L955.461 1539.14 Q957.799 1538.24 959.998 1537.8 Q962.198 1537.34 964.281 1537.34 Q969.906 1537.34 972.684 1540.25 Q975.461 1543.17 975.461 1549.1 Z" fill="#000000" fill-rule="nonzero" fill-opacity="1" /><path clip-path="url(#clip010)" d="M983.795 1553.66 L983.795 1537.96 L988.054 1537.96 L988.054 1553.49 Q988.054 1557.17 989.489 1559.03 Q990.924 1560.86 993.795 1560.86 Q997.244 1560.86 999.234 1558.66 Q1001.25 1556.46 1001.25 1552.66 L1001.25 1537.96 L1005.51 1537.96 L1005.51 1563.89 L1001.25 1563.89 L1001.25 1559.91 Q999.697 1562.27 997.637 1563.42 Q995.6 1564.56 992.892 1564.56 Q988.424 1564.56 986.109 1561.78 Q983.795 1559 983.795 1553.66 M994.512 1537.34 L994.512 1537.34 Z" fill="#000000" fill-rule="nonzero" fill-opacity="1" /><path clip-path="url(#clip010)" d="M1018.49 1530.6 L1018.49 1537.96 L1027.27 1537.96 L1027.27 1541.27 L1018.49 1541.27 L1018.49 1555.35 Q1018.49 1558.52 1019.35 1559.42 Q1020.23 1560.32 1022.89 1560.32 L1027.27 1560.32 L1027.27 1563.89 L1022.89 1563.89 Q1017.96 1563.89 1016.09 1562.06 Q1014.21 1560.21 1014.21 1555.35 L1014.21 1541.27 L1011.09 1541.27 L1011.09 1537.96 L1014.21 1537.96 L1014.21 1530.6 L1018.49 1530.6 Z" fill="#000000" fill-rule="nonzero" fill-opacity="1" /><path clip-path="url(#clip010)" d="M1042.91 1540.95 Q1039.49 1540.95 1037.5 1543.63 Q1035.51 1546.3 1035.51 1550.95 Q1035.51 1555.6 1037.47 1558.29 Q1039.47 1560.95 1042.91 1560.95 Q1046.32 1560.95 1048.31 1558.26 Q1050.3 1555.58 1050.3 1550.95 Q1050.3 1546.34 1048.31 1543.66 Q1046.32 1540.95 1042.91 1540.95 M1042.91 1537.34 Q1048.47 1537.34 1051.64 1540.95 Q1054.81 1544.56 1054.81 1550.95 Q1054.81 1557.31 1051.64 1560.95 Q1048.47 1564.56 1042.91 1564.56 Q1037.34 1564.56 1034.16 1560.95 Q1031.02 1557.31 1031.02 1550.95 Q1031.02 1544.56 1034.16 1540.95 Q1037.34 1537.34 1042.91 1537.34 Z" fill="#000000" fill-rule="nonzero" fill-opacity="1" /><path clip-path="url(#clip010)" d="M1061.64 1558.01 L1066.53 1558.01 L1066.53 1563.89 L1061.64 1563.89 L1061.64 1558.01 Z" fill="#000000" fill-rule="nonzero" fill-opacity="1" /><path clip-path="url(#clip010)" d="M1108.24 1541.9 L1108.24 1527.87 L1112.5 1527.87 L1112.5 1563.89 L1108.24 1563.89 L1108.24 1560 Q1106.9 1562.31 1104.84 1563.45 Q1102.8 1564.56 1099.93 1564.56 Q1095.23 1564.56 1092.27 1560.81 Q1089.33 1557.06 1089.33 1550.95 Q1089.33 1544.84 1092.27 1541.09 Q1095.23 1537.34 1099.93 1537.34 Q1102.8 1537.34 1104.84 1538.47 Q1106.9 1539.58 1108.24 1541.9 M1093.72 1550.95 Q1093.72 1555.65 1095.65 1558.33 Q1097.59 1560.99 1100.97 1560.99 Q1104.35 1560.99 1106.29 1558.33 Q1108.24 1555.65 1108.24 1550.95 Q1108.24 1546.25 1106.29 1543.59 Q1104.35 1540.9 1100.97 1540.9 Q1097.59 1540.9 1095.65 1543.59 Q1093.72 1546.25 1093.72 1550.95 Z" fill="#000000" fill-rule="nonzero" fill-opacity="1" /><path clip-path="url(#clip010)" d="M1121.27 1537.96 L1125.53 1537.96 L1125.53 1563.89 L1121.27 1563.89 L1121.27 1537.96 M1121.27 1527.87 L1125.53 1527.87 L1125.53 1533.26 L1121.27 1533.26 L1121.27 1527.87 Z" fill="#000000" fill-rule="nonzero" fill-opacity="1" /><path clip-path="url(#clip010)" d="M1147.57 1527.87 L1147.57 1531.41 L1143.49 1531.41 Q1141.2 1531.41 1140.3 1532.34 Q1139.42 1533.26 1139.42 1535.67 L1139.42 1537.96 L1146.43 1537.96 L1146.43 1541.27 L1139.42 1541.27 L1139.42 1563.89 L1135.14 1563.89 L1135.14 1541.27 L1131.06 1541.27 L1131.06 1537.96 L1135.14 1537.96 L1135.14 1536.16 Q1135.14 1531.83 1137.15 1529.86 Q1139.16 1527.87 1143.54 1527.87 L1147.57 1527.87 Z" fill="#000000" fill-rule="nonzero" fill-opacity="1" /><path clip-path="url(#clip010)" d="M1164.26 1527.87 L1164.26 1531.41 L1160.18 1531.41 Q1157.89 1531.41 1156.99 1532.34 Q1156.11 1533.26 1156.11 1535.67 L1156.11 1537.96 L1163.12 1537.96 L1163.12 1541.27 L1156.11 1541.27 L1156.11 1563.89 L1151.83 1563.89 L1151.83 1541.27 L1147.75 1541.27 L1147.75 1537.96 L1151.83 1537.96 L1151.83 1536.16 Q1151.83 1531.83 1153.84 1529.86 Q1155.85 1527.87 1160.23 1527.87 L1164.26 1527.87 Z" fill="#000000" fill-rule="nonzero" fill-opacity="1" /><path clip-path="url(#clip010)" d="M1164.97 1558.01 L1169.86 1558.01 L1169.86 1563.89 L1164.97 1563.89 L1164.97 1558.01 Z" fill="#000000" fill-rule="nonzero" fill-opacity="1" /><path clip-path="url(#clip010)" d="M1178.77 1527.92 L1182.47 1527.92 Q1185.95 1533.38 1187.66 1538.61 Q1189.4 1543.84 1189.4 1549 Q1189.4 1554.19 1187.66 1559.44 Q1185.95 1564.7 1182.47 1570.14 L1178.77 1570.14 Q1181.85 1564.84 1183.35 1559.61 Q1184.88 1554.35 1184.88 1549 Q1184.88 1543.66 1183.35 1538.45 Q1181.85 1533.24 1178.77 1527.92 Z" fill="#000000" fill-rule="nonzero" fill-opacity="1" /><path clip-path="url(#clip010)" d="M2404.63 1530.46 L2404.63 1535.02 Q2401.97 1533.75 2399.61 1533.12 Q2397.25 1532.5 2395.05 1532.5 Q2391.23 1532.5 2389.15 1533.98 Q2387.09 1535.46 2387.09 1538.19 Q2387.09 1540.49 2388.45 1541.67 Q2389.84 1542.82 2393.68 1543.54 L2396.51 1544.12 Q2401.74 1545.11 2404.22 1547.64 Q2406.72 1550.14 2406.72 1554.35 Q2406.72 1559.37 2403.34 1561.97 Q2399.98 1564.56 2393.47 1564.56 Q2391.02 1564.56 2388.24 1564 Q2385.49 1563.45 2382.53 1562.36 L2382.53 1557.55 Q2385.37 1559.14 2388.1 1559.95 Q2390.84 1560.76 2393.47 1560.76 Q2397.48 1560.76 2399.66 1559.19 Q2401.83 1557.61 2401.83 1554.7 Q2401.83 1552.15 2400.26 1550.72 Q2398.71 1549.28 2395.14 1548.56 L2392.29 1548.01 Q2387.06 1546.97 2384.72 1544.74 Q2382.39 1542.52 2382.39 1538.56 Q2382.39 1533.98 2385.6 1531.34 Q2388.85 1528.7 2394.52 1528.7 Q2396.95 1528.7 2399.47 1529.14 Q2401.99 1529.58 2404.63 1530.46 Z" fill="#000000" fill-rule="nonzero" fill-opacity="1" /><path clip-path="url(#clip010)" d="M2424.61 1566.3 Q2422.8 1570.92 2421.09 1572.34 Q2419.38 1573.75 2416.51 1573.75 L2413.1 1573.75 L2413.1 1570.18 L2415.6 1570.18 Q2417.36 1570.18 2418.34 1569.35 Q2419.31 1568.52 2420.49 1565.42 L2421.25 1563.47 L2410.77 1537.96 L2415.28 1537.96 L2423.38 1558.24 L2431.48 1537.96 L2436 1537.96 L2424.61 1566.3 Z" fill="#000000" fill-rule="nonzero" fill-opacity="1" /><path clip-path="url(#clip010)" d="M2462.06 1542.94 Q2463.66 1540.07 2465.88 1538.7 Q2468.1 1537.34 2471.11 1537.34 Q2475.16 1537.34 2477.36 1540.18 Q2479.56 1543.01 2479.56 1548.24 L2479.56 1563.89 L2475.28 1563.89 L2475.28 1548.38 Q2475.28 1544.65 2473.96 1542.85 Q2472.64 1541.04 2469.93 1541.04 Q2466.62 1541.04 2464.7 1543.24 Q2462.78 1545.44 2462.78 1549.24 L2462.78 1563.89 L2458.5 1563.89 L2458.5 1548.38 Q2458.5 1544.63 2457.18 1542.85 Q2455.86 1541.04 2453.1 1541.04 Q2449.84 1541.04 2447.92 1543.26 Q2446 1545.46 2446 1549.24 L2446 1563.89 L2441.72 1563.89 L2441.72 1537.96 L2446 1537.96 L2446 1541.99 Q2447.46 1539.61 2449.49 1538.47 Q2451.53 1537.34 2454.33 1537.34 Q2457.15 1537.34 2459.12 1538.77 Q2461.11 1540.21 2462.06 1542.94 Z" fill="#000000" fill-rule="nonzero" fill-opacity="1" /><path clip-path="url(#clip010)" d="M2506.67 1550.95 Q2506.67 1546.25 2504.72 1543.59 Q2502.8 1540.9 2499.42 1540.9 Q2496.04 1540.9 2494.1 1543.59 Q2492.18 1546.25 2492.18 1550.95 Q2492.18 1555.65 2494.1 1558.33 Q2496.04 1560.99 2499.42 1560.99 Q2502.8 1560.99 2504.72 1558.33 Q2506.67 1555.65 2506.67 1550.95 M2492.18 1541.9 Q2493.52 1539.58 2495.56 1538.47 Q2497.62 1537.34 2500.46 1537.34 Q2505.19 1537.34 2508.13 1541.09 Q2511.09 1544.84 2511.09 1550.95 Q2511.09 1557.06 2508.13 1560.81 Q2505.19 1564.56 2500.46 1564.56 Q2497.62 1564.56 2495.56 1563.45 Q2493.52 1562.31 2492.18 1560 L2492.18 1563.89 L2487.9 1563.89 L2487.9 1527.87 L2492.18 1527.87 L2492.18 1541.9 Z" fill="#000000" fill-rule="nonzero" fill-opacity="1" /><path clip-path="url(#clip010)" d="M2528.2 1540.95 Q2524.77 1540.95 2522.78 1543.63 Q2520.79 1546.3 2520.79 1550.95 Q2520.79 1555.6 2522.76 1558.29 Q2524.75 1560.95 2528.2 1560.95 Q2531.6 1560.95 2533.59 1558.26 Q2535.58 1555.58 2535.58 1550.95 Q2535.58 1546.34 2533.59 1543.66 Q2531.6 1540.95 2528.2 1540.95 M2528.2 1537.34 Q2533.75 1537.34 2536.92 1540.95 Q2540.09 1544.56 2540.09 1550.95 Q2540.09 1557.31 2536.92 1560.95 Q2533.75 1564.56 2528.2 1564.56 Q2522.62 1564.56 2519.45 1560.95 Q2516.3 1557.31 2516.3 1550.95 Q2516.3 1544.56 2519.45 1540.95 Q2522.62 1537.34 2528.2 1537.34 Z" fill="#000000" fill-rule="nonzero" fill-opacity="1" /><path clip-path="url(#clip010)" d="M2547.15 1527.87 L2551.41 1527.87 L2551.41 1563.89 L2547.15 1563.89 L2547.15 1527.87 Z" fill="#000000" fill-rule="nonzero" fill-opacity="1" /><path clip-path="url(#clip010)" d="M2560.33 1537.96 L2564.58 1537.96 L2564.58 1563.89 L2560.33 1563.89 L2560.33 1537.96 M2560.33 1527.87 L2564.58 1527.87 L2564.58 1533.26 L2560.33 1533.26 L2560.33 1527.87 Z" fill="#000000" fill-rule="nonzero" fill-opacity="1" /><path clip-path="url(#clip010)" d="M2592.15 1538.96 L2592.15 1542.94 Q2590.35 1541.94 2588.52 1541.46 Q2586.71 1540.95 2584.86 1540.95 Q2580.72 1540.95 2578.43 1543.59 Q2576.14 1546.2 2576.14 1550.95 Q2576.14 1555.69 2578.43 1558.33 Q2580.72 1560.95 2584.86 1560.95 Q2586.71 1560.95 2588.52 1560.46 Q2590.35 1559.95 2592.15 1558.96 L2592.15 1562.89 Q2590.37 1563.73 2588.45 1564.14 Q2586.55 1564.56 2584.4 1564.56 Q2578.54 1564.56 2575.09 1560.88 Q2571.65 1557.2 2571.65 1550.95 Q2571.65 1544.61 2575.12 1540.97 Q2578.61 1537.34 2584.68 1537.34 Q2586.64 1537.34 2588.52 1537.75 Q2590.39 1538.15 2592.15 1538.96 Z" fill="#000000" fill-rule="nonzero" fill-opacity="1" /><path clip-path="url(#clip010)" d="M2624.86 1527.92 Q2621.76 1533.24 2620.26 1538.45 Q2618.75 1543.66 2618.75 1549 Q2618.75 1554.35 2620.26 1559.61 Q2621.78 1564.84 2624.86 1570.14 L2621.16 1570.14 Q2617.69 1564.7 2615.95 1559.44 Q2614.24 1554.19 2614.24 1549 Q2614.24 1543.84 2615.95 1538.61 Q2617.66 1533.38 2621.16 1527.92 L2624.86 1527.92 Z" fill="#000000" fill-rule="nonzero" fill-opacity="1" /><path clip-path="url(#clip010)" d="M2646.25 1527.87 L2646.25 1531.41 L2642.18 1531.41 Q2639.89 1531.41 2638.98 1532.34 Q2638.1 1533.26 2638.1 1535.67 L2638.1 1537.96 L2645.12 1537.96 L2645.12 1541.27 L2638.1 1541.27 L2638.1 1563.89 L2633.82 1563.89 L2633.82 1541.27 L2629.75 1541.27 L2629.75 1537.96 L2633.82 1537.96 L2633.82 1536.16 Q2633.82 1531.83 2635.83 1529.86 Q2637.85 1527.87 2642.22 1527.87 L2646.25 1527.87 Z" fill="#000000" fill-rule="nonzero" fill-opacity="1" /><path clip-path="url(#clip010)" d="M2649.82 1537.96 L2654.08 1537.96 L2654.08 1563.89 L2649.82 1563.89 L2649.82 1537.96 M2649.82 1527.87 L2654.08 1527.87 L2654.08 1533.26 L2649.82 1533.26 L2649.82 1527.87 Z" fill="#000000" fill-rule="nonzero" fill-opacity="1" /><path clip-path="url(#clip010)" d="M2684.54 1548.24 L2684.54 1563.89 L2680.28 1563.89 L2680.28 1548.38 Q2680.28 1544.7 2678.84 1542.87 Q2677.41 1541.04 2674.54 1541.04 Q2671.09 1541.04 2669.1 1543.24 Q2667.11 1545.44 2667.11 1549.24 L2667.11 1563.89 L2662.83 1563.89 L2662.83 1537.96 L2667.11 1537.96 L2667.11 1541.99 Q2668.64 1539.65 2670.7 1538.49 Q2672.78 1537.34 2675.49 1537.34 Q2679.95 1537.34 2682.25 1540.11 Q2684.54 1542.87 2684.54 1548.24 Z" fill="#000000" fill-rule="nonzero" fill-opacity="1" /><path clip-path="url(#clip010)" d="M2693.64 1558.01 L2698.52 1558.01 L2698.52 1563.89 L2693.64 1563.89 L2693.64 1558.01 Z" fill="#000000" fill-rule="nonzero" fill-opacity="1" /><path clip-path="url(#clip010)" d="M2740.23 1541.9 L2740.23 1527.87 L2744.49 1527.87 L2744.49 1563.89 L2740.23 1563.89 L2740.23 1560 Q2738.89 1562.31 2736.83 1563.45 Q2734.79 1564.56 2731.92 1564.56 Q2727.22 1564.56 2724.26 1560.81 Q2721.32 1557.06 2721.32 1550.95 Q2721.32 1544.84 2724.26 1541.09 Q2727.22 1537.34 2731.92 1537.34 Q2734.79 1537.34 2736.83 1538.47 Q2738.89 1539.58 2740.23 1541.9 M2725.72 1550.95 Q2725.72 1555.65 2727.64 1558.33 Q2729.58 1560.99 2732.96 1560.99 Q2736.34 1560.99 2738.29 1558.33 Q2740.23 1555.65 2740.23 1550.95 Q2740.23 1546.25 2738.29 1543.59 Q2736.34 1540.9 2732.96 1540.9 Q2729.58 1540.9 2727.64 1543.59 Q2725.72 1546.25 2725.72 1550.95 Z" fill="#000000" fill-rule="nonzero" fill-opacity="1" /><path clip-path="url(#clip010)" d="M2753.26 1537.96 L2757.52 1537.96 L2757.52 1563.89 L2753.26 1563.89 L2753.26 1537.96 M2753.26 1527.87 L2757.52 1527.87 L2757.52 1533.26 L2753.26 1533.26 L2753.26 1527.87 Z" fill="#000000" fill-rule="nonzero" fill-opacity="1" /><path clip-path="url(#clip010)" d="M2779.56 1527.87 L2779.56 1531.41 L2775.49 1531.41 Q2773.19 1531.41 2772.29 1532.34 Q2771.41 1533.26 2771.41 1535.67 L2771.41 1537.96 L2778.43 1537.96 L2778.43 1541.27 L2771.41 1541.27 L2771.41 1563.89 L2767.13 1563.89 L2767.13 1541.27 L2763.06 1541.27 L2763.06 1537.96 L2767.13 1537.96 L2767.13 1536.16 Q2767.13 1531.83 2769.14 1529.86 Q2771.16 1527.87 2775.53 1527.87 L2779.56 1527.87 Z" fill="#000000" fill-rule="nonzero" fill-opacity="1" /><path clip-path="url(#clip010)" d="M2796.25 1527.87 L2796.25 1531.41 L2792.18 1531.41 Q2789.88 1531.41 2788.98 1532.34 Q2788.1 1533.26 2788.1 1535.67 L2788.1 1537.96 L2795.12 1537.96 L2795.12 1541.27 L2788.1 1541.27 L2788.1 1563.89 L2783.82 1563.89 L2783.82 1541.27 L2779.75 1541.27 L2779.75 1537.96 L2783.82 1537.96 L2783.82 1536.16 Q2783.82 1531.83 2785.83 1529.86 Q2787.85 1527.87 2792.22 1527.87 L2796.25 1527.87 Z" fill="#000000" fill-rule="nonzero" fill-opacity="1" /><path clip-path="url(#clip010)" d="M2796.97 1558.01 L2801.85 1558.01 L2801.85 1563.89 L2796.97 1563.89 L2796.97 1558.01 Z" fill="#000000" fill-rule="nonzero" fill-opacity="1" /><path clip-path="url(#clip010)" d="M2810.76 1527.92 L2814.47 1527.92 Q2817.94 1533.38 2819.65 1538.61 Q2821.39 1543.84 2821.39 1549 Q2821.39 1554.19 2819.65 1559.44 Q2817.94 1564.7 2814.47 1570.14 L2810.76 1570.14 Q2813.84 1564.84 2815.35 1559.61 Q2816.88 1554.35 2816.88 1549 Q2816.88 1543.66 2815.35 1538.45 Q2813.84 1533.24 2810.76 1527.92 Z" fill="#000000" fill-rule="nonzero" fill-opacity="1" /><polyline clip-path="url(#clip010)" style="stroke:#000000; stroke-linecap:round; stroke-linejoin:round; stroke-width:4; stroke-opacity:1; fill:none" points="396.052,1495.09 396.052,47.2441 "/>
<polyline clip-path="url(#clip010)" style="stroke:#000000; stroke-linecap:round; stroke-linejoin:round; stroke-width:4; stroke-opacity:1; fill:none" points="396.052,1246.29 414.949,1246.29 "/>
<polyline clip-path="url(#clip010)" style="stroke:#000000; stroke-linecap:round; stroke-linejoin:round; stroke-width:4; stroke-opacity:1; fill:none" points="396.052,971.698 414.949,971.698 "/>
<polyline clip-path="url(#clip010)" style="stroke:#000000; stroke-linecap:round; stroke-linejoin:round; stroke-width:4; stroke-opacity:1; fill:none" points="396.052,697.108 414.949,697.108 "/>
<polyline clip-path="url(#clip010)" style="stroke:#000000; stroke-linecap:round; stroke-linejoin:round; stroke-width:4; stroke-opacity:1; fill:none" points="396.052,422.518 414.949,422.518 "/>
<polyline clip-path="url(#clip010)" style="stroke:#000000; stroke-linecap:round; stroke-linejoin:round; stroke-width:4; stroke-opacity:1; fill:none" points="396.052,147.929 414.949,147.929 "/>
<path clip-path="url(#clip010)" d="M113.982 1239.53 L102.176 1257.98 L113.982 1257.98 L113.982 1239.53 M112.755 1235.46 L118.635 1235.46 L118.635 1257.98 L123.565 1257.98 L123.565 1261.87 L118.635 1261.87 L118.635 1270.02 L113.982 1270.02 L113.982 1261.87 L98.3802 1261.87 L98.3802 1257.35 L112.755 1235.46 Z" fill="#000000" fill-rule="nonzero" fill-opacity="1" /><path clip-path="url(#clip010)" d="M131.297 1264.14 L136.181 1264.14 L136.181 1270.02 L131.297 1270.02 L131.297 1264.14 Z" fill="#000000" fill-rule="nonzero" fill-opacity="1" /><path clip-path="url(#clip010)" d="M145.185 1235.46 L167.408 1235.46 L167.408 1237.45 L154.861 1270.02 L149.977 1270.02 L161.783 1239.39 L145.185 1239.39 L145.185 1235.46 Z" fill="#000000" fill-rule="nonzero" fill-opacity="1" /><path clip-path="url(#clip010)" d="M186.528 1238.53 Q182.917 1238.53 181.088 1242.1 Q179.283 1245.64 179.283 1252.77 Q179.283 1259.88 181.088 1263.44 Q182.917 1266.98 186.528 1266.98 Q190.162 1266.98 191.968 1263.44 Q193.796 1259.88 193.796 1252.77 Q193.796 1245.64 191.968 1242.1 Q190.162 1238.53 186.528 1238.53 M186.528 1234.83 Q192.338 1234.83 195.394 1239.44 Q198.472 1244.02 198.472 1252.77 Q198.472 1261.5 195.394 1266.1 Q192.338 1270.69 186.528 1270.69 Q180.718 1270.69 177.639 1266.1 Q174.583 1261.5 174.583 1252.77 Q174.583 1244.02 177.639 1239.44 Q180.718 1234.83 186.528 1234.83 Z" fill="#000000" fill-rule="nonzero" fill-opacity="1" /><path clip-path="url(#clip010)" d="M216.69 1238.53 Q213.079 1238.53 211.25 1242.1 Q209.444 1245.64 209.444 1252.77 Q209.444 1259.88 211.25 1263.44 Q213.079 1266.98 216.69 1266.98 Q220.324 1266.98 222.129 1263.44 Q223.958 1259.88 223.958 1252.77 Q223.958 1245.64 222.129 1242.1 Q220.324 1238.53 216.69 1238.53 M216.69 1234.83 Q222.5 1234.83 225.555 1239.44 Q228.634 1244.02 228.634 1252.77 Q228.634 1261.5 225.555 1266.1 Q222.5 1270.69 216.69 1270.69 Q210.88 1270.69 207.801 1266.1 Q204.745 1261.5 204.745 1252.77 Q204.745 1244.02 207.801 1239.44 Q210.88 1234.83 216.69 1234.83 Z" fill="#000000" fill-rule="nonzero" fill-opacity="1" /><path clip-path="url(#clip010)" d="M265.023 1244.55 L254.444 1255.18 L265.023 1265.76 L262.268 1268.56 L251.643 1257.93 L241.018 1268.56 L238.287 1265.76 L248.842 1255.18 L238.287 1244.55 L241.018 1241.75 L251.643 1252.38 L262.268 1241.75 L265.023 1244.55 Z" fill="#000000" fill-rule="nonzero" fill-opacity="1" /><path clip-path="url(#clip010)" d="M277.384 1266.08 L285.023 1266.08 L285.023 1239.71 L276.713 1241.38 L276.713 1237.12 L284.976 1235.46 L289.652 1235.46 L289.652 1266.08 L297.291 1266.08 L297.291 1270.02 L277.384 1270.02 L277.384 1266.08 Z" fill="#000000" fill-rule="nonzero" fill-opacity="1" /><path clip-path="url(#clip010)" d="M316.735 1238.53 Q313.124 1238.53 311.296 1242.1 Q309.49 1245.64 309.49 1252.77 Q309.49 1259.88 311.296 1263.44 Q313.124 1266.98 316.735 1266.98 Q320.37 1266.98 322.175 1263.44 Q324.004 1259.88 324.004 1252.77 Q324.004 1245.64 322.175 1242.1 Q320.37 1238.53 316.735 1238.53 M316.735 1234.83 Q322.546 1234.83 325.601 1239.44 Q328.68 1244.02 328.68 1252.77 Q328.68 1261.5 325.601 1266.1 Q322.546 1270.69 316.735 1270.69 Q310.925 1270.69 307.847 1266.1 Q304.791 1261.5 304.791 1252.77 Q304.791 1244.02 307.847 1239.44 Q310.925 1234.83 316.735 1234.83 Z" fill="#000000" fill-rule="nonzero" fill-opacity="1" /><path clip-path="url(#clip010)" d="M330.485 1242.02 L330.485 1238.56 Q331.915 1239.24 333.382 1239.6 Q334.849 1239.95 336.259 1239.95 Q340.021 1239.95 341.996 1237.43 Q343.989 1234.89 344.271 1229.74 Q343.181 1231.36 341.507 1232.22 Q339.833 1233.09 337.802 1233.09 Q333.589 1233.09 331.125 1230.55 Q328.68 1227.99 328.68 1223.57 Q328.68 1219.25 331.238 1216.63 Q333.796 1214.02 338.046 1214.02 Q342.917 1214.02 345.475 1217.76 Q348.052 1221.48 348.052 1228.59 Q348.052 1235.23 344.892 1239.2 Q341.751 1243.15 336.429 1243.15 Q334.999 1243.15 333.532 1242.87 Q332.065 1242.59 330.485 1242.02 M338.046 1230.12 Q340.604 1230.12 342.09 1228.37 Q343.594 1226.62 343.594 1223.57 Q343.594 1220.54 342.09 1218.79 Q340.604 1217.03 338.046 1217.03 Q335.488 1217.03 333.984 1218.79 Q332.498 1220.54 332.498 1223.57 Q332.498 1226.62 333.984 1228.37 Q335.488 1230.12 338.046 1230.12 Z" fill="#000000" fill-rule="nonzero" fill-opacity="1" /><path clip-path="url(#clip010)" d="M113.982 964.939 L102.176 983.388 L113.982 983.388 L113.982 964.939 M112.755 960.865 L118.635 960.865 L118.635 983.388 L123.565 983.388 L123.565 987.277 L118.635 987.277 L118.635 995.425 L113.982 995.425 L113.982 987.277 L98.3802 987.277 L98.3802 982.763 L112.755 960.865 Z" fill="#000000" fill-rule="nonzero" fill-opacity="1" /><path clip-path="url(#clip010)" d="M131.297 989.546 L136.181 989.546 L136.181 995.425 L131.297 995.425 L131.297 989.546 Z" fill="#000000" fill-rule="nonzero" fill-opacity="1" /><path clip-path="url(#clip010)" d="M145.185 960.865 L167.408 960.865 L167.408 962.856 L154.861 995.425 L149.977 995.425 L161.783 964.801 L145.185 964.801 L145.185 960.865 Z" fill="#000000" fill-rule="nonzero" fill-opacity="1" /><path clip-path="url(#clip010)" d="M176.574 960.865 L194.931 960.865 L194.931 964.801 L180.857 964.801 L180.857 973.273 Q181.875 972.926 182.894 972.764 Q183.912 972.578 184.931 972.578 Q190.718 972.578 194.097 975.75 Q197.477 978.921 197.477 984.338 Q197.477 989.916 194.005 993.018 Q190.532 996.097 184.213 996.097 Q182.037 996.097 179.769 995.726 Q177.523 995.356 175.116 994.615 L175.116 989.916 Q177.199 991.05 179.421 991.606 Q181.644 992.162 184.12 992.162 Q188.125 992.162 190.463 990.055 Q192.801 987.949 192.801 984.338 Q192.801 980.726 190.463 978.62 Q188.125 976.513 184.12 976.513 Q182.245 976.513 180.37 976.93 Q178.519 977.347 176.574 978.226 L176.574 960.865 Z" fill="#000000" fill-rule="nonzero" fill-opacity="1" /><path clip-path="url(#clip010)" d="M216.69 963.944 Q213.079 963.944 211.25 967.509 Q209.444 971.051 209.444 978.18 Q209.444 985.287 211.25 988.851 Q213.079 992.393 216.69 992.393 Q220.324 992.393 222.129 988.851 Q223.958 985.287 223.958 978.18 Q223.958 971.051 222.129 967.509 Q220.324 963.944 216.69 963.944 M216.69 960.24 Q222.5 960.24 225.555 964.847 Q228.634 969.43 228.634 978.18 Q228.634 986.907 225.555 991.513 Q222.5 996.097 216.69 996.097 Q210.88 996.097 207.801 991.513 Q204.745 986.907 204.745 978.18 Q204.745 969.43 207.801 964.847 Q210.88 960.24 216.69 960.24 Z" fill="#000000" fill-rule="nonzero" fill-opacity="1" /><path clip-path="url(#clip010)" d="M265.023 969.963 L254.444 980.588 L265.023 991.166 L262.268 993.967 L251.643 983.342 L241.018 993.967 L238.287 991.166 L248.842 980.588 L238.287 969.963 L241.018 967.162 L251.643 977.787 L262.268 967.162 L265.023 969.963 Z" fill="#000000" fill-rule="nonzero" fill-opacity="1" /><path clip-path="url(#clip010)" d="M277.384 991.49 L285.023 991.49 L285.023 965.125 L276.713 966.791 L276.713 962.532 L284.976 960.865 L289.652 960.865 L289.652 991.49 L297.291 991.49 L297.291 995.425 L277.384 995.425 L277.384 991.49 Z" fill="#000000" fill-rule="nonzero" fill-opacity="1" /><path clip-path="url(#clip010)" d="M316.735 963.944 Q313.124 963.944 311.296 967.509 Q309.49 971.051 309.49 978.18 Q309.49 985.287 311.296 988.851 Q313.124 992.393 316.735 992.393 Q320.37 992.393 322.175 988.851 Q324.004 985.287 324.004 978.18 Q324.004 971.051 322.175 967.509 Q320.37 963.944 316.735 963.944 M316.735 960.24 Q322.546 960.24 325.601 964.847 Q328.68 969.43 328.68 978.18 Q328.68 986.907 325.601 991.513 Q322.546 996.097 316.735 996.097 Q310.925 996.097 307.847 991.513 Q304.791 986.907 304.791 978.18 Q304.791 969.43 307.847 964.847 Q310.925 960.24 316.735 960.24 Z" fill="#000000" fill-rule="nonzero" fill-opacity="1" /><path clip-path="url(#clip010)" d="M330.485 967.432 L330.485 963.971 Q331.915 964.648 333.382 965.006 Q334.849 965.363 336.259 965.363 Q340.021 965.363 341.996 962.843 Q343.989 960.304 344.271 955.151 Q343.181 956.768 341.507 957.633 Q339.833 958.498 337.802 958.498 Q333.589 958.498 331.125 955.959 Q328.68 953.401 328.68 948.982 Q328.68 944.656 331.238 942.041 Q333.796 939.427 338.046 939.427 Q342.917 939.427 345.475 943.17 Q348.052 946.894 348.052 954.003 Q348.052 960.642 344.892 964.611 Q341.751 968.56 336.429 968.56 Q334.999 968.56 333.532 968.278 Q332.065 967.996 330.485 967.432 M338.046 955.527 Q340.604 955.527 342.09 953.778 Q343.594 952.028 343.594 948.982 Q343.594 945.954 342.09 944.204 Q340.604 942.436 338.046 942.436 Q335.488 942.436 333.984 944.204 Q332.498 945.954 332.498 948.982 Q332.498 952.028 333.984 953.778 Q335.488 955.527 338.046 955.527 Z" fill="#000000" fill-rule="nonzero" fill-opacity="1" /><path clip-path="url(#clip010)" d="M113.982 690.35 L102.176 708.799 L113.982 708.799 L113.982 690.35 M112.755 686.276 L118.635 686.276 L118.635 708.799 L123.565 708.799 L123.565 712.688 L118.635 712.688 L118.635 720.836 L113.982 720.836 L113.982 712.688 L98.3802 712.688 L98.3802 708.174 L112.755 686.276 Z" fill="#000000" fill-rule="nonzero" fill-opacity="1" /><path clip-path="url(#clip010)" d="M131.297 714.956 L136.181 714.956 L136.181 720.836 L131.297 720.836 L131.297 714.956 Z" fill="#000000" fill-rule="nonzero" fill-opacity="1" /><path clip-path="url(#clip010)" d="M156.366 704.424 Q153.033 704.424 151.111 706.206 Q149.213 707.989 149.213 711.114 Q149.213 714.238 151.111 716.021 Q153.033 717.803 156.366 717.803 Q159.699 717.803 161.621 716.021 Q163.542 714.215 163.542 711.114 Q163.542 707.989 161.621 706.206 Q159.722 704.424 156.366 704.424 M151.69 702.433 Q148.681 701.692 146.991 699.632 Q145.324 697.572 145.324 694.609 Q145.324 690.465 148.264 688.058 Q151.227 685.651 156.366 685.651 Q161.528 685.651 164.468 688.058 Q167.408 690.465 167.408 694.609 Q167.408 697.572 165.718 699.632 Q164.051 701.692 161.065 702.433 Q164.445 703.22 166.32 705.512 Q168.218 707.803 168.218 711.114 Q168.218 716.137 165.139 718.822 Q162.084 721.507 156.366 721.507 Q150.648 721.507 147.57 718.822 Q144.514 716.137 144.514 711.114 Q144.514 707.803 146.412 705.512 Q148.31 703.22 151.69 702.433 M149.977 695.049 Q149.977 697.734 151.644 699.239 Q153.334 700.743 156.366 700.743 Q159.375 700.743 161.065 699.239 Q162.778 697.734 162.778 695.049 Q162.778 692.364 161.065 690.859 Q159.375 689.354 156.366 689.354 Q153.334 689.354 151.644 690.859 Q149.977 692.364 149.977 695.049 Z" fill="#000000" fill-rule="nonzero" fill-opacity="1" /><path clip-path="url(#clip010)" d="M186.528 689.354 Q182.917 689.354 181.088 692.919 Q179.283 696.461 179.283 703.59 Q179.283 710.697 181.088 714.262 Q182.917 717.803 186.528 717.803 Q190.162 717.803 191.968 714.262 Q193.796 710.697 193.796 703.59 Q193.796 696.461 191.968 692.919 Q190.162 689.354 186.528 689.354 M186.528 685.651 Q192.338 685.651 195.394 690.257 Q198.472 694.84 198.472 703.59 Q198.472 712.317 195.394 716.924 Q192.338 721.507 186.528 721.507 Q180.718 721.507 177.639 716.924 Q174.583 712.317 174.583 703.59 Q174.583 694.84 177.639 690.257 Q180.718 685.651 186.528 685.651 Z" fill="#000000" fill-rule="nonzero" fill-opacity="1" /><path clip-path="url(#clip010)" d="M216.69 689.354 Q213.079 689.354 211.25 692.919 Q209.444 696.461 209.444 703.59 Q209.444 710.697 211.25 714.262 Q213.079 717.803 216.69 717.803 Q220.324 717.803 222.129 714.262 Q223.958 710.697 223.958 703.59 Q223.958 696.461 222.129 692.919 Q220.324 689.354 216.69 689.354 M216.69 685.651 Q222.5 685.651 225.555 690.257 Q228.634 694.84 228.634 703.59 Q228.634 712.317 225.555 716.924 Q222.5 721.507 216.69 721.507 Q210.88 721.507 207.801 716.924 Q204.745 712.317 204.745 703.59 Q204.745 694.84 207.801 690.257 Q210.88 685.651 216.69 685.651 Z" fill="#000000" fill-rule="nonzero" fill-opacity="1" /><path clip-path="url(#clip010)" d="M265.023 695.373 L254.444 705.998 L265.023 716.576 L262.268 719.377 L251.643 708.752 L241.018 719.377 L238.287 716.576 L248.842 705.998 L238.287 695.373 L241.018 692.572 L251.643 703.197 L262.268 692.572 L265.023 695.373 Z" fill="#000000" fill-rule="nonzero" fill-opacity="1" /><path clip-path="url(#clip010)" d="M277.384 716.901 L285.023 716.901 L285.023 690.535 L276.713 692.202 L276.713 687.942 L284.976 686.276 L289.652 686.276 L289.652 716.901 L297.291 716.901 L297.291 720.836 L277.384 720.836 L277.384 716.901 Z" fill="#000000" fill-rule="nonzero" fill-opacity="1" /><path clip-path="url(#clip010)" d="M316.735 689.354 Q313.124 689.354 311.296 692.919 Q309.49 696.461 309.49 703.59 Q309.49 710.697 311.296 714.262 Q313.124 717.803 316.735 717.803 Q320.37 717.803 322.175 714.262 Q324.004 710.697 324.004 703.59 Q324.004 696.461 322.175 692.919 Q320.37 689.354 316.735 689.354 M316.735 685.651 Q322.546 685.651 325.601 690.257 Q328.68 694.84 328.68 703.59 Q328.68 712.317 325.601 716.924 Q322.546 721.507 316.735 721.507 Q310.925 721.507 307.847 716.924 Q304.791 712.317 304.791 703.59 Q304.791 694.84 307.847 690.257 Q310.925 685.651 316.735 685.651 Z" fill="#000000" fill-rule="nonzero" fill-opacity="1" /><path clip-path="url(#clip010)" d="M330.485 692.842 L330.485 689.382 Q331.915 690.059 333.382 690.416 Q334.849 690.773 336.259 690.773 Q340.021 690.773 341.996 688.253 Q343.989 685.714 344.271 680.561 Q343.181 682.178 341.507 683.043 Q339.833 683.909 337.802 683.909 Q333.589 683.909 331.125 681.37 Q328.68 678.812 328.68 674.392 Q328.68 670.066 331.238 667.452 Q333.796 664.837 338.046 664.837 Q342.917 664.837 345.475 668.58 Q348.052 672.304 348.052 679.413 Q348.052 686.053 344.892 690.021 Q341.751 693.971 336.429 693.971 Q334.999 693.971 333.532 693.689 Q332.065 693.406 330.485 692.842 M338.046 680.937 Q340.604 680.937 342.09 679.188 Q343.594 677.439 343.594 674.392 Q343.594 671.364 342.09 669.615 Q340.604 667.847 338.046 667.847 Q335.488 667.847 333.984 669.615 Q332.498 671.364 332.498 674.392 Q332.498 677.439 333.984 679.188 Q335.488 680.937 338.046 680.937 Z" fill="#000000" fill-rule="nonzero" fill-opacity="1" /><path clip-path="url(#clip010)" d="M113.982 415.76 L102.176 434.209 L113.982 434.209 L113.982 415.76 M112.755 411.686 L118.635 411.686 L118.635 434.209 L123.565 434.209 L123.565 438.098 L118.635 438.098 L118.635 446.246 L113.982 446.246 L113.982 438.098 L98.3802 438.098 L98.3802 433.584 L112.755 411.686 Z" fill="#000000" fill-rule="nonzero" fill-opacity="1" /><path clip-path="url(#clip010)" d="M131.297 440.366 L136.181 440.366 L136.181 446.246 L131.297 446.246 L131.297 440.366 Z" fill="#000000" fill-rule="nonzero" fill-opacity="1" /><path clip-path="url(#clip010)" d="M156.366 429.834 Q153.033 429.834 151.111 431.616 Q149.213 433.399 149.213 436.524 Q149.213 439.649 151.111 441.431 Q153.033 443.214 156.366 443.214 Q159.699 443.214 161.621 441.431 Q163.542 439.626 163.542 436.524 Q163.542 433.399 161.621 431.616 Q159.722 429.834 156.366 429.834 M151.69 427.843 Q148.681 427.103 146.991 425.042 Q145.324 422.982 145.324 420.019 Q145.324 415.876 148.264 413.468 Q151.227 411.061 156.366 411.061 Q161.528 411.061 164.468 413.468 Q167.408 415.876 167.408 420.019 Q167.408 422.982 165.718 425.042 Q164.051 427.103 161.065 427.843 Q164.445 428.63 166.32 430.922 Q168.218 433.214 168.218 436.524 Q168.218 441.547 165.139 444.232 Q162.084 446.917 156.366 446.917 Q150.648 446.917 147.57 444.232 Q144.514 441.547 144.514 436.524 Q144.514 433.214 146.412 430.922 Q148.31 428.63 151.69 427.843 M149.977 420.459 Q149.977 423.144 151.644 424.649 Q153.334 426.153 156.366 426.153 Q159.375 426.153 161.065 424.649 Q162.778 423.144 162.778 420.459 Q162.778 417.774 161.065 416.269 Q159.375 414.765 156.366 414.765 Q153.334 414.765 151.644 416.269 Q149.977 417.774 149.977 420.459 Z" fill="#000000" fill-rule="nonzero" fill-opacity="1" /><path clip-path="url(#clip010)" d="M176.574 411.686 L194.931 411.686 L194.931 415.621 L180.857 415.621 L180.857 424.093 Q181.875 423.746 182.894 423.584 Q183.912 423.399 184.931 423.399 Q190.718 423.399 194.097 426.57 Q197.477 429.741 197.477 435.158 Q197.477 440.737 194.005 443.839 Q190.532 446.917 184.213 446.917 Q182.037 446.917 179.769 446.547 Q177.523 446.176 175.116 445.436 L175.116 440.737 Q177.199 441.871 179.421 442.427 Q181.644 442.982 184.12 442.982 Q188.125 442.982 190.463 440.876 Q192.801 438.769 192.801 435.158 Q192.801 431.547 190.463 429.44 Q188.125 427.334 184.12 427.334 Q182.245 427.334 180.37 427.751 Q178.519 428.167 176.574 429.047 L176.574 411.686 Z" fill="#000000" fill-rule="nonzero" fill-opacity="1" /><path clip-path="url(#clip010)" d="M216.69 414.765 Q213.079 414.765 211.25 418.329 Q209.444 421.871 209.444 429.001 Q209.444 436.107 211.25 439.672 Q213.079 443.214 216.69 443.214 Q220.324 443.214 222.129 439.672 Q223.958 436.107 223.958 429.001 Q223.958 421.871 222.129 418.329 Q220.324 414.765 216.69 414.765 M216.69 411.061 Q222.5 411.061 225.555 415.667 Q228.634 420.251 228.634 429.001 Q228.634 437.727 225.555 442.334 Q222.5 446.917 216.69 446.917 Q210.88 446.917 207.801 442.334 Q204.745 437.727 204.745 429.001 Q204.745 420.251 207.801 415.667 Q210.88 411.061 216.69 411.061 Z" fill="#000000" fill-rule="nonzero" fill-opacity="1" /><path clip-path="url(#clip010)" d="M265.023 420.783 L254.444 431.408 L265.023 441.987 L262.268 444.788 L251.643 434.163 L241.018 444.788 L238.287 441.987 L248.842 431.408 L238.287 420.783 L241.018 417.982 L251.643 428.607 L262.268 417.982 L265.023 420.783 Z" fill="#000000" fill-rule="nonzero" fill-opacity="1" /><path clip-path="url(#clip010)" d="M277.384 442.311 L285.023 442.311 L285.023 415.945 L276.713 417.612 L276.713 413.353 L284.976 411.686 L289.652 411.686 L289.652 442.311 L297.291 442.311 L297.291 446.246 L277.384 446.246 L277.384 442.311 Z" fill="#000000" fill-rule="nonzero" fill-opacity="1" /><path clip-path="url(#clip010)" d="M316.735 414.765 Q313.124 414.765 311.296 418.329 Q309.49 421.871 309.49 429.001 Q309.49 436.107 311.296 439.672 Q313.124 443.214 316.735 443.214 Q320.37 443.214 322.175 439.672 Q324.004 436.107 324.004 429.001 Q324.004 421.871 322.175 418.329 Q320.37 414.765 316.735 414.765 M316.735 411.061 Q322.546 411.061 325.601 415.667 Q328.68 420.251 328.68 429.001 Q328.68 437.727 325.601 442.334 Q322.546 446.917 316.735 446.917 Q310.925 446.917 307.847 442.334 Q304.791 437.727 304.791 429.001 Q304.791 420.251 307.847 415.667 Q310.925 411.061 316.735 411.061 Z" fill="#000000" fill-rule="nonzero" fill-opacity="1" /><path clip-path="url(#clip010)" d="M330.485 418.252 L330.485 414.792 Q331.915 415.469 333.382 415.826 Q334.849 416.184 336.259 416.184 Q340.021 416.184 341.996 413.663 Q343.989 411.124 344.271 405.971 Q343.181 407.588 341.507 408.454 Q339.833 409.319 337.802 409.319 Q333.589 409.319 331.125 406.78 Q328.68 404.222 328.68 399.802 Q328.68 395.476 331.238 392.862 Q333.796 390.248 338.046 390.248 Q342.917 390.248 345.475 393.99 Q348.052 397.714 348.052 404.824 Q348.052 411.463 344.892 415.431 Q341.751 419.381 336.429 419.381 Q334.999 419.381 333.532 419.099 Q332.065 418.817 330.485 418.252 M338.046 406.347 Q340.604 406.347 342.09 404.598 Q343.594 402.849 343.594 399.802 Q343.594 396.774 342.09 395.025 Q340.604 393.257 338.046 393.257 Q335.488 393.257 333.984 395.025 Q332.498 396.774 332.498 399.802 Q332.498 402.849 333.984 404.598 Q335.488 406.347 338.046 406.347 Z" fill="#000000" fill-rule="nonzero" fill-opacity="1" /><path clip-path="url(#clip010)" d="M113.982 141.17 L102.176 159.619 L113.982 159.619 L113.982 141.17 M112.755 137.096 L118.635 137.096 L118.635 159.619 L123.565 159.619 L123.565 163.508 L118.635 163.508 L118.635 171.656 L113.982 171.656 L113.982 163.508 L98.3802 163.508 L98.3802 158.994 L112.755 137.096 Z" fill="#000000" fill-rule="nonzero" fill-opacity="1" /><path clip-path="url(#clip010)" d="M131.297 165.777 L136.181 165.777 L136.181 171.656 L131.297 171.656 L131.297 165.777 Z" fill="#000000" fill-rule="nonzero" fill-opacity="1" /><path clip-path="url(#clip010)" d="M146.505 170.939 L146.505 166.679 Q148.264 167.513 150.07 167.953 Q151.875 168.392 153.611 168.392 Q158.241 168.392 160.671 165.29 Q163.125 162.166 163.472 155.823 Q162.13 157.814 160.07 158.878 Q158.009 159.943 155.509 159.943 Q150.324 159.943 147.292 156.818 Q144.283 153.67 144.283 148.23 Q144.283 142.906 147.431 139.689 Q150.579 136.471 155.81 136.471 Q161.806 136.471 164.954 141.078 Q168.125 145.661 168.125 154.411 Q168.125 162.582 164.236 167.466 Q160.371 172.327 153.82 172.327 Q152.06 172.327 150.255 171.98 Q148.449 171.633 146.505 170.939 M155.81 156.286 Q158.959 156.286 160.787 154.133 Q162.639 151.98 162.639 148.23 Q162.639 144.504 160.787 142.351 Q158.959 140.175 155.81 140.175 Q152.662 140.175 150.81 142.351 Q148.982 144.504 148.982 148.23 Q148.982 151.98 150.81 154.133 Q152.662 156.286 155.81 156.286 Z" fill="#000000" fill-rule="nonzero" fill-opacity="1" /><path clip-path="url(#clip010)" d="M186.528 140.175 Q182.917 140.175 181.088 143.74 Q179.283 147.281 179.283 154.411 Q179.283 161.517 181.088 165.082 Q182.917 168.624 186.528 168.624 Q190.162 168.624 191.968 165.082 Q193.796 161.517 193.796 154.411 Q193.796 147.281 191.968 143.74 Q190.162 140.175 186.528 140.175 M186.528 136.471 Q192.338 136.471 195.394 141.078 Q198.472 145.661 198.472 154.411 Q198.472 163.138 195.394 167.744 Q192.338 172.327 186.528 172.327 Q180.718 172.327 177.639 167.744 Q174.583 163.138 174.583 154.411 Q174.583 145.661 177.639 141.078 Q180.718 136.471 186.528 136.471 Z" fill="#000000" fill-rule="nonzero" fill-opacity="1" /><path clip-path="url(#clip010)" d="M216.69 140.175 Q213.079 140.175 211.25 143.74 Q209.444 147.281 209.444 154.411 Q209.444 161.517 211.25 165.082 Q213.079 168.624 216.69 168.624 Q220.324 168.624 222.129 165.082 Q223.958 161.517 223.958 154.411 Q223.958 147.281 222.129 143.74 Q220.324 140.175 216.69 140.175 M216.69 136.471 Q222.5 136.471 225.555 141.078 Q228.634 145.661 228.634 154.411 Q228.634 163.138 225.555 167.744 Q222.5 172.327 216.69 172.327 Q210.88 172.327 207.801 167.744 Q204.745 163.138 204.745 154.411 Q204.745 145.661 207.801 141.078 Q210.88 136.471 216.69 136.471 Z" fill="#000000" fill-rule="nonzero" fill-opacity="1" /><path clip-path="url(#clip010)" d="M265.023 146.193 L254.444 156.818 L265.023 167.397 L262.268 170.198 L251.643 159.573 L241.018 170.198 L238.287 167.397 L248.842 156.818 L238.287 146.193 L241.018 143.392 L251.643 154.017 L262.268 143.392 L265.023 146.193 Z" fill="#000000" fill-rule="nonzero" fill-opacity="1" /><path clip-path="url(#clip010)" d="M277.384 167.721 L285.023 167.721 L285.023 141.355 L276.713 143.022 L276.713 138.763 L284.976 137.096 L289.652 137.096 L289.652 167.721 L297.291 167.721 L297.291 171.656 L277.384 171.656 L277.384 167.721 Z" fill="#000000" fill-rule="nonzero" fill-opacity="1" /><path clip-path="url(#clip010)" d="M316.735 140.175 Q313.124 140.175 311.296 143.74 Q309.49 147.281 309.49 154.411 Q309.49 161.517 311.296 165.082 Q313.124 168.624 316.735 168.624 Q320.37 168.624 322.175 165.082 Q324.004 161.517 324.004 154.411 Q324.004 147.281 322.175 143.74 Q320.37 140.175 316.735 140.175 M316.735 136.471 Q322.546 136.471 325.601 141.078 Q328.68 145.661 328.68 154.411 Q328.68 163.138 325.601 167.744 Q322.546 172.327 316.735 172.327 Q310.925 172.327 307.847 167.744 Q304.791 163.138 304.791 154.411 Q304.791 145.661 307.847 141.078 Q310.925 136.471 316.735 136.471 Z" fill="#000000" fill-rule="nonzero" fill-opacity="1" /><path clip-path="url(#clip010)" d="M330.485 143.663 L330.485 140.202 Q331.915 140.879 333.382 141.237 Q334.849 141.594 336.259 141.594 Q340.021 141.594 341.996 139.074 Q343.989 136.535 344.271 131.381 Q343.181 132.999 341.507 133.864 Q339.833 134.729 337.802 134.729 Q333.589 134.729 331.125 132.19 Q328.68 129.632 328.68 125.212 Q328.68 120.887 331.238 118.272 Q333.796 115.658 338.046 115.658 Q342.917 115.658 345.475 119.401 Q348.052 123.125 348.052 130.234 Q348.052 136.873 344.892 140.842 Q341.751 144.791 336.429 144.791 Q334.999 144.791 333.532 144.509 Q332.065 144.227 330.485 143.663 M338.046 131.757 Q340.604 131.757 342.09 130.008 Q343.594 128.259 343.594 125.212 Q343.594 122.184 342.09 120.435 Q340.604 118.667 338.046 118.667 Q335.488 118.667 333.984 120.435 Q332.498 122.184 332.498 125.212 Q332.498 128.259 333.984 130.008 Q335.488 131.757 338.046 131.757 Z" fill="#000000" fill-rule="nonzero" fill-opacity="1" /><path clip-path="url(#clip010)" d="M-9.64527 840.632 L0.4762 840.632 L0.4762 828.569 L5.02768 828.569 L5.02768 840.632 L24.3794 840.632 Q28.7399 840.632 29.9813 839.454 Q31.2226 838.245 31.2226 834.584 L31.2226 828.569 L36.1242 828.569 L36.1242 834.584 Q36.1242 841.364 33.6097 843.942 Q31.0634 846.52 24.3794 846.52 L5.02768 846.52 L5.02768 850.817 L0.4762 850.817 L0.4762 846.52 L-9.64527 846.52 L-9.64527 840.632 Z" fill="#000000" fill-rule="nonzero" fill-opacity="1" /><path clip-path="url(#clip010)" d="M-11.3958 789.738 L-11.3958 784.327 L42.1716 800.878 L42.1716 806.289 L-11.3958 789.738 Z" fill="#000000" fill-rule="nonzero" fill-opacity="1" /><path clip-path="url(#clip010)" d="M14.6081 727.831 L36.1242 727.831 L36.1242 733.688 L14.799 733.688 Q9.7383 733.688 7.22385 735.661 Q4.7094 737.635 4.7094 741.581 Q4.7094 746.324 7.73311 749.061 Q10.7568 751.798 15.9767 751.798 L36.1242 751.798 L36.1242 757.687 L0.4762 757.687 L0.4762 751.798 L6.01437 751.798 Q2.79968 749.698 1.20826 746.865 Q-0.38317 744 -0.38317 740.276 Q-0.38317 734.133 3.43625 730.982 Q7.22385 727.831 14.6081 727.831 Z" fill="#000000" fill-rule="nonzero" fill-opacity="1" /><path clip-path="url(#clip010)" d="M1.52654 693.425 L7.06471 693.425 Q5.79157 695.907 5.15499 698.581 Q4.51842 701.255 4.51842 704.119 Q4.51842 708.48 5.85522 710.676 Q7.19202 712.84 9.86562 712.84 Q11.9026 712.84 13.0803 711.281 Q14.2261 709.721 15.2765 705.01 L15.7221 703.005 Q17.0589 696.767 19.5097 694.157 Q21.9286 691.515 26.2891 691.515 Q31.2544 691.515 34.1508 695.462 Q37.0472 699.377 37.0472 706.252 Q37.0472 709.116 36.4743 712.235 Q35.9332 715.323 34.8192 718.76 L28.7718 718.76 Q30.4587 715.514 31.318 712.363 Q32.1456 709.212 32.1456 706.124 Q32.1456 701.987 30.7451 699.759 Q29.3129 697.531 26.7347 697.531 Q24.3476 697.531 23.0745 699.154 Q21.8013 700.745 20.6237 706.188 L20.1462 708.225 Q19.0004 713.668 16.6451 716.087 Q14.258 718.506 10.1202 718.506 Q5.09134 718.506 2.35408 714.941 Q-0.38317 711.376 -0.38317 704.819 Q-0.38317 701.573 0.0942579 698.708 Q0.571686 695.844 1.52654 693.425 Z" fill="#000000" fill-rule="nonzero" fill-opacity="1" /><path clip-path="url(#clip012)" d="M1419.77 1454.11 L1418.84 1441.39 L1416.42 1428.66 L1412.57 1415.93 L1407.33 1403.21 L1400.77 1390.48 L1392.97 1377.75 L1384.03 1365.03 L1374.05 1352.3 L1363.16 1339.58 L1351.49 1326.85 L1339.16 1314.12 L1326.33 1301.4 L1313.15 1288.67 L1299.75 1275.95 L1286.3 1263.22 L1272.94 1250.49 L1259.82 1237.77 L1247.08 1225.04 L1234.87 1212.32 L1223.31 1199.59 L1212.53 1186.86 L1202.65 1174.14 L1193.76 1161.41 L1185.97 1148.69 L1179.34 1135.96 L1173.96 1123.23 L1169.87 1110.51 L1167.13 1097.78 L1165.75 1085.06 L1165.75 1072.33 L1167.13 1059.6 L1169.87 1046.88 L1173.96 1034.15 L1179.34 1021.42 L1185.97 1008.7 L1193.76 995.973 L1202.65 983.247 L1212.53 970.521 L1223.31 957.795 L1234.87 945.068 L1247.08 932.342 L1259.82 919.616 L1272.94 906.89 L1286.3 894.164 L1299.75 881.438 L1313.15 868.712 L1326.33 855.986 L1339.16 843.26 L1351.49 830.534 L1363.16 817.808 L1374.05 805.082 L1384.03 792.356 L1392.97 779.63 L1400.77 766.904 L1407.33 754.177 L1412.57 741.451 L1416.42 728.725 L1418.84 715.999 L1419.77 703.273 L474.072 703.273 L475.004 715.999 L477.415 728.725 L481.268 741.451 L486.51 754.177 L493.072 766.904 L500.872 779.63 L509.815 792.356 L519.79 805.082 L530.68 817.808 L542.354 830.534 L554.678 843.26 L567.507 855.986 L580.694 868.712 L594.09 881.438 L607.543 894.164 L620.904 906.89 L634.023 919.616 L646.758 932.342 L658.97 945.068 L670.527 957.795 L681.305 970.521 L691.189 983.247 L700.076 995.973 L707.872 1008.7 L714.496 1021.42 L719.879 1034.15 L723.965 1046.88 L726.713 1059.6 L728.094 1072.33 L728.094 1085.06 L726.713 1097.78 L723.965 1110.51 L719.879 1123.23 L714.496 1135.96 L707.872 1148.69 L700.076 1161.41 L691.189 1174.14 L681.305 1186.86 L670.527 1199.59 L658.97 1212.32 L646.758 1225.04 L634.023 1237.77 L620.904 1250.49 L607.543 1263.22 L594.09 1275.95 L580.694 1288.67 L567.507 1301.4 L554.678 1314.12 L542.354 1326.85 L530.68 1339.58 L519.79 1352.3 L509.815 1365.03 L500.872 1377.75 L493.072 1390.48 L486.51 1403.21 L481.268 1415.93 L477.415 1428.66 L475.004 1441.39 L474.072 1454.11 L1419.77 1454.11  Z" fill="#009af9" fill-rule="evenodd" fill-opacity="1"/>
<polyline clip-path="url(#clip012)" style="stroke:#000000; stroke-linecap:round; stroke-linejoin:round; stroke-width:4; stroke-opacity:1; fill:none" points="1419.77,1454.11 1418.84,1441.39 1416.42,1428.66 1412.57,1415.93 1407.33,1403.21 1400.77,1390.48 1392.97,1377.75 1384.03,1365.03 1374.05,1352.3 1363.16,1339.58 1351.49,1326.85 1339.16,1314.12 1326.33,1301.4 1313.15,1288.67 1299.75,1275.95 1286.3,1263.22 1272.94,1250.49 1259.82,1237.77 1247.08,1225.04 1234.87,1212.32 1223.31,1199.59 1212.53,1186.86 1202.65,1174.14 1193.76,1161.41 1185.97,1148.69 1179.34,1135.96 1173.96,1123.23 1169.87,1110.51 1167.13,1097.78 1165.75,1085.06 1165.75,1072.33 1167.13,1059.6 1169.87,1046.88 1173.96,1034.15 1179.34,1021.42 1185.97,1008.7 1193.76,995.973 1202.65,983.247 1212.53,970.521 1223.31,957.795 1234.87,945.068 1247.08,932.342 1259.82,919.616 1272.94,906.89 1286.3,894.164 1299.75,881.438 1313.15,868.712 1326.33,855.986 1339.16,843.26 1351.49,830.534 1363.16,817.808 1374.05,805.082 1384.03,792.356 1392.97,779.63 1400.77,766.904 1407.33,754.177 1412.57,741.451 1416.42,728.725 1418.84,715.999 1419.77,703.273 474.072,703.273 475.004,715.999 477.415,728.725 481.268,741.451 486.51,754.177 493.072,766.904 500.872,779.63 509.815,792.356 519.79,805.082 530.68,817.808 542.354,830.534 554.678,843.26 567.507,855.986 580.694,868.712 594.09,881.438 607.543,894.164 620.904,906.89 634.023,919.616 646.758,932.342 658.97,945.068 670.527,957.795 681.305,970.521 691.189,983.247 700.076,995.973 707.872,1008.7 714.496,1021.42 719.879,1034.15 723.965,1046.88 726.713,1059.6 728.094,1072.33 728.094,1085.06 726.713,1097.78 723.965,1110.51 719.879,1123.23 714.496,1135.96 707.872,1148.69 700.076,1161.41 691.189,1174.14 681.305,1186.86 670.527,1199.59 658.97,1212.32 646.758,1225.04 634.023,1237.77 620.904,1250.49 607.543,1263.22 594.09,1275.95 580.694,1288.67 567.507,1301.4 554.678,1314.12 542.354,1326.85 530.68,1339.58 519.79,1352.3 509.815,1365.03 500.872,1377.75 493.072,1390.48 486.51,1403.21 481.268,1415.93 477.415,1428.66 475.004,1441.39 474.072,1454.11 1419.77,1454.11 "/>
<path clip-path="url(#clip012)" d="M3074.74 1430.29 L3073.8 1407.54 L3071.39 1384.79 L3067.54 1362.05 L3062.3 1339.3 L3055.74 1316.55 L3047.94 1293.81 L3038.99 1271.06 L3029.02 1248.31 L3018.13 1225.57 L3006.45 1202.82 L2994.13 1180.07 L2981.3 1157.33 L2968.11 1134.58 L2954.72 1111.83 L2941.26 1089.08 L2927.9 1066.34 L2914.78 1043.59 L2902.05 1020.84 L2889.84 998.097 L2878.28 975.35 L2867.5 952.603 L2857.62 929.856 L2848.73 907.109 L2840.94 884.362 L2834.31 861.616 L2828.93 838.869 L2824.84 816.122 L2822.09 793.375 L2820.71 770.628 L2820.71 747.881 L2822.09 725.134 L2824.84 702.387 L2828.93 679.64 L2834.31 656.893 L2840.94 634.147 L2848.73 611.4 L2857.62 588.653 L2867.5 565.906 L2878.28 543.159 L2889.84 520.412 L2902.05 497.665 L2914.78 474.918 L2927.9 452.171 L2941.26 429.424 L2954.72 406.677 L2968.11 383.931 L2981.3 361.184 L2994.13 338.437 L3006.45 315.69 L3018.13 292.943 L3029.02 270.196 L3038.99 247.449 L3047.94 224.702 L3055.74 201.955 L3062.3 179.208 L3067.54 156.462 L3071.39 133.715 L3073.8 110.968 L3074.74 88.2208 L2129.04 88.2208 L2129.97 110.968 L2132.38 133.715 L2136.24 156.462 L2141.48 179.208 L2148.04 201.955 L2155.84 224.702 L2164.78 247.449 L2174.76 270.196 L2185.65 292.943 L2197.32 315.69 L2209.65 338.437 L2222.47 361.184 L2235.66 383.931 L2249.06 406.677 L2262.51 429.424 L2275.87 452.171 L2288.99 474.918 L2301.73 497.665 L2313.94 520.412 L2325.49 543.159 L2336.27 565.906 L2346.16 588.653 L2355.04 611.4 L2362.84 634.147 L2369.46 656.893 L2374.85 679.64 L2378.93 702.387 L2381.68 725.134 L2383.06 747.881 L2383.06 770.628 L2381.68 793.375 L2378.93 816.122 L2374.85 838.869 L2369.46 861.616 L2362.84 884.362 L2355.04 907.109 L2346.16 929.856 L2336.27 952.603 L2325.49 975.35 L2313.94 998.097 L2301.73 1020.84 L2288.99 1043.59 L2275.87 1066.34 L2262.51 1089.08 L2249.06 1111.83 L2235.66 1134.58 L2222.47 1157.33 L2209.65 1180.07 L2197.32 1202.82 L2185.65 1225.57 L2174.76 1248.31 L2164.78 1271.06 L2155.84 1293.81 L2148.04 1316.55 L2141.48 1339.3 L2136.24 1362.05 L2132.38 1384.79 L2129.97 1407.54 L2129.04 1430.29 L3074.74 1430.29  Z" fill="#e26f46" fill-rule="evenodd" fill-opacity="1"/>
<polyline clip-path="url(#clip012)" style="stroke:#000000; stroke-linecap:round; stroke-linejoin:round; stroke-width:4; stroke-opacity:1; fill:none" points="3074.74,1430.29 3073.8,1407.54 3071.39,1384.79 3067.54,1362.05 3062.3,1339.3 3055.74,1316.55 3047.94,1293.81 3038.99,1271.06 3029.02,1248.31 3018.13,1225.57 3006.45,1202.82 2994.13,1180.07 2981.3,1157.33 2968.11,1134.58 2954.72,1111.83 2941.26,1089.08 2927.9,1066.34 2914.78,1043.59 2902.05,1020.84 2889.84,998.097 2878.28,975.35 2867.5,952.603 2857.62,929.856 2848.73,907.109 2840.94,884.362 2834.31,861.616 2828.93,838.869 2824.84,816.122 2822.09,793.375 2820.71,770.628 2820.71,747.881 2822.09,725.134 2824.84,702.387 2828.93,679.64 2834.31,656.893 2840.94,634.147 2848.73,611.4 2857.62,588.653 2867.5,565.906 2878.28,543.159 2889.84,520.412 2902.05,497.665 2914.78,474.918 2927.9,452.171 2941.26,429.424 2954.72,406.677 2968.11,383.931 2981.3,361.184 2994.13,338.437 3006.45,315.69 3018.13,292.943 3029.02,270.196 3038.99,247.449 3047.94,224.702 3055.74,201.955 3062.3,179.208 3067.54,156.462 3071.39,133.715 3073.8,110.968 3074.74,88.2208 2129.04,88.2208 2129.97,110.968 2132.38,133.715 2136.24,156.462 2141.48,179.208 2148.04,201.955 2155.84,224.702 2164.78,247.449 2174.76,270.196 2185.65,292.943 2197.32,315.69 2209.65,338.437 2222.47,361.184 2235.66,383.931 2249.06,406.677 2262.51,429.424 2275.87,452.171 2288.99,474.918 2301.73,497.665 2313.94,520.412 2325.49,543.159 2336.27,565.906 2346.16,588.653 2355.04,611.4 2362.84,634.147 2369.46,656.893 2374.85,679.64 2378.93,702.387 2381.68,725.134 2383.06,747.881 2383.06,770.628 2381.68,793.375 2378.93,816.122 2374.85,838.869 2369.46,861.616 2362.84,884.362 2355.04,907.109 2346.16,929.856 2336.27,952.603 2325.49,975.35 2313.94,998.097 2301.73,1020.84 2288.99,1043.59 2275.87,1066.34 2262.51,1089.08 2249.06,1111.83 2235.66,1134.58 2222.47,1157.33 2209.65,1180.07 2197.32,1202.82 2185.65,1225.57 2174.76,1248.31 2164.78,1271.06 2155.84,1293.81 2148.04,1316.55 2141.48,1339.3 2136.24,1362.05 2132.38,1384.79 2129.97,1407.54 2129.04,1430.29 3074.74,1430.29 "/>
</svg>
