<?xml version="1.0" encoding="utf-8"?>
<svg xmlns="http://www.w3.org/2000/svg" xmlns:xlink="http://www.w3.org/1999/xlink" width="800" height="400" viewBox="0 0 3200 1600">
<defs>
  <clipPath id="clip980">
    <rect x="0" y="0" width="3200" height="1600"/>
  </clipPath>
</defs>
<path clip-path="url(#clip980)" d="M0 1600 L3200 1600 L3200 0 L0 0  Z" fill="#ffffff" fill-rule="evenodd" fill-opacity="1"/>
<defs>
  <clipPath id="clip981">
    <rect x="640" y="0" width="2241" height="1600"/>
  </clipPath>
</defs>
<path clip-path="url(#clip980)" d="M364.733 1495.09 L3152.76 1495.09 L3152.76 47.2441 L364.733 47.2441  Z" fill="#ffffff" fill-rule="evenodd" fill-opacity="1"/>
<defs>
  <clipPath id="clip982">
    <rect x="364" y="47" width="2789" height="1449"/>
  </clipPath>
</defs>
<polyline clip-path="url(#clip982)" style="stroke:#000000; stroke-linecap:round; stroke-linejoin:round; stroke-width:2; stroke-opacity:0.1; fill:none" points="735.885,1495.09 735.885,47.2441 "/>
<polyline clip-path="url(#clip982)" style="stroke:#000000; stroke-linecap:round; stroke-linejoin:round; stroke-width:2; stroke-opacity:0.1; fill:none" points="1758.74,1495.09 1758.74,47.2441 "/>
<polyline clip-path="url(#clip982)" style="stroke:#000000; stroke-linecap:round; stroke-linejoin:round; stroke-width:2; stroke-opacity:0.1; fill:none" points="2781.6,1495.09 2781.6,47.2441 "/>
<polyline clip-path="url(#clip982)" style="stroke:#000000; stroke-linecap:round; stroke-linejoin:round; stroke-width:2; stroke-opacity:0.1; fill:none" points="364.733,1408.8 3152.76,1408.8 "/>
<polyline clip-path="url(#clip982)" style="stroke:#000000; stroke-linecap:round; stroke-linejoin:round; stroke-width:2; stroke-opacity:0.1; fill:none" points="364.733,1182.34 3152.76,1182.34 "/>
<polyline clip-path="url(#clip982)" style="stroke:#000000; stroke-linecap:round; stroke-linejoin:round; stroke-width:2; stroke-opacity:0.1; fill:none" points="364.733,955.881 3152.76,955.881 "/>
<polyline clip-path="url(#clip982)" style="stroke:#000000; stroke-linecap:round; stroke-linejoin:round; stroke-width:2; stroke-opacity:0.1; fill:none" points="364.733,729.419 3152.76,729.419 "/>
<polyline clip-path="url(#clip982)" style="stroke:#000000; stroke-linecap:round; stroke-linejoin:round; stroke-width:2; stroke-opacity:0.1; fill:none" points="364.733,502.957 3152.76,502.957 "/>
<polyline clip-path="url(#clip982)" style="stroke:#000000; stroke-linecap:round; stroke-linejoin:round; stroke-width:2; stroke-opacity:0.1; fill:none" points="364.733,276.495 3152.76,276.495 "/>
<polyline clip-path="url(#clip982)" style="stroke:#000000; stroke-linecap:round; stroke-linejoin:round; stroke-width:2; stroke-opacity:0.1; fill:none" points="364.733,50.0327 3152.76,50.0327 "/>
<polyline clip-path="url(#clip980)" style="stroke:#000000; stroke-linecap:round; stroke-linejoin:round; stroke-width:4; stroke-opacity:1; fill:none" points="364.733,1495.09 3152.76,1495.09 "/>
<polyline clip-path="url(#clip980)" style="stroke:#000000; stroke-linecap:round; stroke-linejoin:round; stroke-width:4; stroke-opacity:1; fill:none" points="735.885,1495.09 735.885,1476.19 "/>
<polyline clip-path="url(#clip980)" style="stroke:#000000; stroke-linecap:round; stroke-linejoin:round; stroke-width:4; stroke-opacity:1; fill:none" points="1758.74,1495.09 1758.74,1476.19 "/>
<polyline clip-path="url(#clip980)" style="stroke:#000000; stroke-linecap:round; stroke-linejoin:round; stroke-width:4; stroke-opacity:1; fill:none" points="2781.6,1495.09 2781.6,1476.19 "/>
<path clip-path="url(#clip980)" d="M644.01 1529.33 L673.246 1529.33 L673.246 1533.26 L660.978 1533.26 L660.978 1563.89 L656.278 1563.89 L656.278 1533.26 L644.01 1533.26 L644.01 1529.33 Z" fill="#000000" fill-rule="nonzero" fill-opacity="1" /><path clip-path="url(#clip980)" d="M694.149 1547.68 Q695.653 1548.19 697.065 1549.86 Q698.5 1551.53 699.936 1554.44 L704.681 1563.89 L699.658 1563.89 L695.237 1555.02 Q693.524 1551.55 691.903 1550.42 Q690.306 1549.28 687.528 1549.28 L682.436 1549.28 L682.436 1563.89 L677.76 1563.89 L677.76 1529.33 L688.315 1529.33 Q694.241 1529.33 697.158 1531.8 Q700.075 1534.28 700.075 1539.28 Q700.075 1542.55 698.547 1544.7 Q697.042 1546.85 694.149 1547.68 M682.436 1533.17 L682.436 1545.44 L688.315 1545.44 Q691.695 1545.44 693.408 1543.89 Q695.144 1542.31 695.144 1539.28 Q695.144 1536.25 693.408 1534.72 Q691.695 1533.17 688.315 1533.17 L682.436 1533.17 Z" fill="#000000" fill-rule="nonzero" fill-opacity="1" /><path clip-path="url(#clip980)" d="M715.375 1547.38 L715.375 1560.05 L722.875 1560.05 Q726.648 1560.05 728.454 1558.49 Q730.283 1556.92 730.283 1553.7 Q730.283 1550.46 728.454 1548.93 Q726.648 1547.38 722.875 1547.38 L715.375 1547.38 M715.375 1533.17 L715.375 1543.59 L722.297 1543.59 Q725.723 1543.59 727.389 1542.31 Q729.079 1541.02 729.079 1538.38 Q729.079 1535.76 727.389 1534.47 Q725.723 1533.17 722.297 1533.17 L715.375 1533.17 M710.699 1529.33 L722.644 1529.33 Q727.991 1529.33 730.885 1531.55 Q733.778 1533.77 733.778 1537.87 Q733.778 1541.04 732.297 1542.92 Q730.815 1544.79 727.945 1545.25 Q731.394 1545.99 733.292 1548.36 Q735.213 1550.69 735.213 1554.21 Q735.213 1558.84 732.065 1561.36 Q728.917 1563.89 723.107 1563.89 L710.699 1563.89 L710.699 1529.33 Z" fill="#000000" fill-rule="nonzero" fill-opacity="1" /><path clip-path="url(#clip980)" d="M747.898 1533.17 L747.898 1560.05 L753.546 1560.05 Q760.699 1560.05 764.009 1556.8 Q767.343 1553.56 767.343 1546.57 Q767.343 1539.63 764.009 1536.41 Q760.699 1533.17 753.546 1533.17 L747.898 1533.17 M743.222 1529.33 L752.829 1529.33 Q762.875 1529.33 767.574 1533.52 Q772.273 1537.68 772.273 1546.57 Q772.273 1555.51 767.551 1559.7 Q762.829 1563.89 752.829 1563.89 L743.222 1563.89 L743.222 1529.33 Z" fill="#000000" fill-rule="nonzero" fill-opacity="1" /><path clip-path="url(#clip980)" d="M779.727 1529.33 L799.588 1529.33 L799.588 1533.26 L784.403 1533.26 L784.403 1543.45 L798.106 1543.45 L798.106 1547.38 L784.403 1547.38 L784.403 1563.89 L779.727 1563.89 L779.727 1529.33 Z" fill="#000000" fill-rule="nonzero" fill-opacity="1" /><path clip-path="url(#clip980)" d="M811.44 1559.95 L827.759 1559.95 L827.759 1563.89 L805.815 1563.89 L805.815 1559.95 Q808.477 1557.2 813.06 1552.57 Q817.666 1547.92 818.847 1546.57 Q821.092 1544.05 821.972 1542.31 Q822.875 1540.55 822.875 1538.86 Q822.875 1536.11 820.93 1534.37 Q819.009 1532.64 815.907 1532.64 Q813.708 1532.64 811.254 1533.4 Q808.824 1534.17 806.046 1535.72 L806.046 1530.99 Q808.87 1529.86 811.324 1529.28 Q813.778 1528.7 815.815 1528.7 Q821.185 1528.7 824.379 1531.39 Q827.574 1534.07 827.574 1538.56 Q827.574 1540.69 826.764 1542.61 Q825.977 1544.51 823.87 1547.11 Q823.291 1547.78 820.19 1550.99 Q817.088 1554.19 811.44 1559.95 Z" fill="#000000" fill-rule="nonzero" fill-opacity="1" /><path clip-path="url(#clip980)" d="M1647.48 1529.33 L1652.16 1529.33 L1652.16 1543.93 L1667.67 1529.33 L1673.69 1529.33 L1656.53 1545.44 L1674.91 1563.89 L1668.76 1563.89 L1652.16 1547.24 L1652.16 1563.89 L1647.48 1563.89 L1647.48 1529.33 Z" fill="#000000" fill-rule="nonzero" fill-opacity="1" /><path clip-path="url(#clip980)" d="M1698.2 1549.86 L1698.2 1551.94 L1678.62 1551.94 Q1678.9 1556.34 1681.26 1558.66 Q1683.64 1560.95 1687.88 1560.95 Q1690.33 1560.95 1692.62 1560.35 Q1694.94 1559.74 1697.21 1558.54 L1697.21 1562.57 Q1694.91 1563.54 1692.51 1564.05 Q1690.1 1564.56 1687.62 1564.56 Q1681.42 1564.56 1677.78 1560.95 Q1674.17 1557.34 1674.17 1551.18 Q1674.17 1544.81 1677.6 1541.09 Q1681.05 1537.34 1686.88 1537.34 Q1692.11 1537.34 1695.15 1540.72 Q1698.2 1544.07 1698.2 1549.86 M1693.94 1548.61 Q1693.9 1545.11 1691.97 1543.03 Q1690.08 1540.95 1686.93 1540.95 Q1683.36 1540.95 1681.21 1542.96 Q1679.08 1544.98 1678.76 1548.63 L1693.94 1548.61 Z" fill="#000000" fill-rule="nonzero" fill-opacity="1" /><path clip-path="url(#clip980)" d="M1726.74 1548.24 L1726.74 1563.89 L1722.48 1563.89 L1722.48 1548.38 Q1722.48 1544.7 1721.05 1542.87 Q1719.61 1541.04 1716.74 1541.04 Q1713.29 1541.04 1711.3 1543.24 Q1709.31 1545.44 1709.31 1549.24 L1709.31 1563.89 L1705.03 1563.89 L1705.03 1537.96 L1709.31 1537.96 L1709.31 1541.99 Q1710.84 1539.65 1712.9 1538.49 Q1714.98 1537.34 1717.69 1537.34 Q1722.16 1537.34 1724.45 1540.11 Q1726.74 1542.87 1726.74 1548.24 Z" fill="#000000" fill-rule="nonzero" fill-opacity="1" /><path clip-path="url(#clip980)" d="M1761.3 1531.99 L1761.3 1536.92 Q1758.94 1534.72 1756.26 1533.63 Q1753.59 1532.55 1750.58 1532.55 Q1744.66 1532.55 1741.51 1536.18 Q1738.36 1539.79 1738.36 1546.64 Q1738.36 1553.47 1741.51 1557.11 Q1744.66 1560.72 1750.58 1560.72 Q1753.59 1560.72 1756.26 1559.63 Q1758.94 1558.54 1761.3 1556.34 L1761.3 1561.23 Q1758.85 1562.89 1756.09 1563.73 Q1753.36 1564.56 1750.31 1564.56 Q1742.46 1564.56 1737.95 1559.77 Q1733.43 1554.95 1733.43 1546.64 Q1733.43 1538.31 1737.95 1533.52 Q1742.46 1528.7 1750.31 1528.7 Q1753.41 1528.7 1756.14 1529.54 Q1758.89 1530.35 1761.3 1531.99 Z" fill="#000000" fill-rule="nonzero" fill-opacity="1" /><path clip-path="url(#clip980)" d="M1780.12 1550.86 Q1774.96 1550.86 1772.97 1552.04 Q1770.98 1553.22 1770.98 1556.06 Q1770.98 1558.33 1772.46 1559.67 Q1773.96 1560.99 1776.53 1560.99 Q1780.08 1560.99 1782.2 1558.49 Q1784.36 1555.97 1784.36 1551.8 L1784.36 1550.86 L1780.12 1550.86 M1788.62 1549.1 L1788.62 1563.89 L1784.36 1563.89 L1784.36 1559.95 Q1782.9 1562.31 1780.72 1563.45 Q1778.55 1564.56 1775.4 1564.56 Q1771.42 1564.56 1769.06 1562.34 Q1766.72 1560.09 1766.72 1556.34 Q1766.72 1551.97 1769.64 1549.74 Q1772.58 1547.52 1778.39 1547.52 L1784.36 1547.52 L1784.36 1547.11 Q1784.36 1544.17 1782.41 1542.57 Q1780.49 1540.95 1777 1540.95 Q1774.77 1540.95 1772.67 1541.48 Q1770.56 1542.01 1768.62 1543.08 L1768.62 1539.14 Q1770.95 1538.24 1773.15 1537.8 Q1775.35 1537.34 1777.44 1537.34 Q1783.06 1537.34 1785.84 1540.25 Q1788.62 1543.17 1788.62 1549.1 Z" fill="#000000" fill-rule="nonzero" fill-opacity="1" /><path clip-path="url(#clip980)" d="M1812.41 1541.94 Q1811.7 1541.53 1810.84 1541.34 Q1810.01 1541.13 1808.99 1541.13 Q1805.38 1541.13 1803.43 1543.49 Q1801.51 1545.83 1801.51 1550.23 L1801.51 1563.89 L1797.23 1563.89 L1797.23 1537.96 L1801.51 1537.96 L1801.51 1541.99 Q1802.85 1539.63 1805.01 1538.49 Q1807.16 1537.34 1810.24 1537.34 Q1810.68 1537.34 1811.21 1537.41 Q1811.74 1537.45 1812.39 1537.57 L1812.41 1541.94 Z" fill="#000000" fill-rule="nonzero" fill-opacity="1" /><path clip-path="url(#clip980)" d="M1821 1560 L1821 1573.75 L1816.72 1573.75 L1816.72 1537.96 L1821 1537.96 L1821 1541.9 Q1822.34 1539.58 1824.38 1538.47 Q1826.44 1537.34 1829.29 1537.34 Q1834.01 1537.34 1836.95 1541.09 Q1839.91 1544.84 1839.91 1550.95 Q1839.91 1557.06 1836.95 1560.81 Q1834.01 1564.56 1829.29 1564.56 Q1826.44 1564.56 1824.38 1563.45 Q1822.34 1562.31 1821 1560 M1835.49 1550.95 Q1835.49 1546.25 1833.55 1543.59 Q1831.63 1540.9 1828.25 1540.9 Q1824.87 1540.9 1822.92 1543.59 Q1821 1546.25 1821 1550.95 Q1821 1555.65 1822.92 1558.33 Q1824.87 1560.99 1828.25 1560.99 Q1831.63 1560.99 1833.55 1558.33 Q1835.49 1555.65 1835.49 1550.95 Z" fill="#000000" fill-rule="nonzero" fill-opacity="1" /><path clip-path="url(#clip980)" d="M1860.42 1533.4 L1848.62 1551.85 L1860.42 1551.85 L1860.42 1533.4 M1859.2 1529.33 L1865.07 1529.33 L1865.07 1551.85 L1870.01 1551.85 L1870.01 1555.74 L1865.07 1555.74 L1865.07 1563.89 L1860.42 1563.89 L1860.42 1555.74 L1844.82 1555.74 L1844.82 1551.23 L1859.2 1529.33 Z" fill="#000000" fill-rule="nonzero" fill-opacity="1" /><path clip-path="url(#clip980)" d="M2655.96 1529.33 L2660.63 1529.33 L2660.63 1543.93 L2676.14 1529.33 L2682.16 1529.33 L2665.01 1545.44 L2683.39 1563.89 L2677.23 1563.89 L2660.63 1547.24 L2660.63 1563.89 L2655.96 1563.89 L2655.96 1529.33 Z" fill="#000000" fill-rule="nonzero" fill-opacity="1" /><path clip-path="url(#clip980)" d="M2706.67 1549.86 L2706.67 1551.94 L2687.09 1551.94 Q2687.37 1556.34 2689.73 1558.66 Q2692.11 1560.95 2696.35 1560.95 Q2698.8 1560.95 2701.1 1560.35 Q2703.41 1559.74 2705.68 1558.54 L2705.68 1562.57 Q2703.39 1563.54 2700.98 1564.05 Q2698.57 1564.56 2696.1 1564.56 Q2689.89 1564.56 2686.26 1560.95 Q2682.65 1557.34 2682.65 1551.18 Q2682.65 1544.81 2686.07 1541.09 Q2689.52 1537.34 2695.35 1537.34 Q2700.59 1537.34 2703.62 1540.72 Q2706.67 1544.07 2706.67 1549.86 M2702.41 1548.61 Q2702.37 1545.11 2700.45 1543.03 Q2698.55 1540.95 2695.4 1540.95 Q2691.84 1540.95 2689.68 1542.96 Q2687.55 1544.98 2687.23 1548.63 L2702.41 1548.61 Z" fill="#000000" fill-rule="nonzero" fill-opacity="1" /><path clip-path="url(#clip980)" d="M2735.22 1548.24 L2735.22 1563.89 L2730.96 1563.89 L2730.96 1548.38 Q2730.96 1544.7 2729.52 1542.87 Q2728.09 1541.04 2725.22 1541.04 Q2721.77 1541.04 2719.78 1543.24 Q2717.78 1545.44 2717.78 1549.24 L2717.78 1563.89 L2713.5 1563.89 L2713.5 1537.96 L2717.78 1537.96 L2717.78 1541.99 Q2719.31 1539.65 2721.37 1538.49 Q2723.46 1537.34 2726.16 1537.34 Q2730.63 1537.34 2732.92 1540.11 Q2735.22 1542.87 2735.22 1548.24 Z" fill="#000000" fill-rule="nonzero" fill-opacity="1" /><path clip-path="url(#clip980)" d="M2769.78 1531.99 L2769.78 1536.92 Q2767.41 1534.72 2764.73 1533.63 Q2762.07 1532.55 2759.06 1532.55 Q2753.13 1532.55 2749.98 1536.18 Q2746.84 1539.79 2746.84 1546.64 Q2746.84 1553.47 2749.98 1557.11 Q2753.13 1560.72 2759.06 1560.72 Q2762.07 1560.72 2764.73 1559.63 Q2767.41 1558.54 2769.78 1556.34 L2769.78 1561.23 Q2767.32 1562.89 2764.57 1563.73 Q2761.84 1564.56 2758.78 1564.56 Q2750.93 1564.56 2746.42 1559.77 Q2741.91 1554.95 2741.91 1546.64 Q2741.91 1538.31 2746.42 1533.52 Q2750.93 1528.7 2758.78 1528.7 Q2761.88 1528.7 2764.61 1529.54 Q2767.37 1530.35 2769.78 1531.99 Z" fill="#000000" fill-rule="nonzero" fill-opacity="1" /><path clip-path="url(#clip980)" d="M2788.59 1550.86 Q2783.43 1550.86 2781.44 1552.04 Q2779.45 1553.22 2779.45 1556.06 Q2779.45 1558.33 2780.93 1559.67 Q2782.44 1560.99 2785.01 1560.99 Q2788.55 1560.99 2790.68 1558.49 Q2792.83 1555.97 2792.83 1551.8 L2792.83 1550.86 L2788.59 1550.86 M2797.09 1549.1 L2797.09 1563.89 L2792.83 1563.89 L2792.83 1559.95 Q2791.37 1562.31 2789.2 1563.45 Q2787.02 1564.56 2783.87 1564.56 Q2779.89 1564.56 2777.53 1562.34 Q2775.19 1560.09 2775.19 1556.34 Q2775.19 1551.97 2778.11 1549.74 Q2781.05 1547.52 2786.86 1547.52 L2792.83 1547.52 L2792.83 1547.11 Q2792.83 1544.17 2790.89 1542.57 Q2788.97 1540.95 2785.47 1540.95 Q2783.25 1540.95 2781.14 1541.48 Q2779.03 1542.01 2777.09 1543.08 L2777.09 1539.14 Q2779.43 1538.24 2781.63 1537.8 Q2783.83 1537.34 2785.91 1537.34 Q2791.53 1537.34 2794.31 1540.25 Q2797.09 1543.17 2797.09 1549.1 Z" fill="#000000" fill-rule="nonzero" fill-opacity="1" /><path clip-path="url(#clip980)" d="M2820.89 1541.94 Q2820.17 1541.53 2819.31 1541.34 Q2818.48 1541.13 2817.46 1541.13 Q2813.85 1541.13 2811.9 1543.49 Q2809.98 1545.83 2809.98 1550.23 L2809.98 1563.89 L2805.7 1563.89 L2805.7 1537.96 L2809.98 1537.96 L2809.98 1541.99 Q2811.33 1539.63 2813.48 1538.49 Q2815.63 1537.34 2818.71 1537.34 Q2819.15 1537.34 2819.68 1537.41 Q2820.21 1537.45 2820.86 1537.57 L2820.89 1541.94 Z" fill="#000000" fill-rule="nonzero" fill-opacity="1" /><path clip-path="url(#clip980)" d="M2829.47 1560 L2829.47 1573.75 L2825.19 1573.75 L2825.19 1537.96 L2829.47 1537.96 L2829.47 1541.9 Q2830.82 1539.58 2832.85 1538.47 Q2834.91 1537.34 2837.76 1537.34 Q2842.48 1537.34 2845.42 1541.09 Q2848.39 1544.84 2848.39 1550.95 Q2848.39 1557.06 2845.42 1560.81 Q2842.48 1564.56 2837.76 1564.56 Q2834.91 1564.56 2832.85 1563.45 Q2830.82 1562.31 2829.47 1560 M2843.96 1550.95 Q2843.96 1546.25 2842.02 1543.59 Q2840.1 1540.9 2836.72 1540.9 Q2833.34 1540.9 2831.4 1543.59 Q2829.47 1546.25 2829.47 1550.95 Q2829.47 1555.65 2831.4 1558.33 Q2833.34 1560.99 2836.72 1560.99 Q2840.1 1560.99 2842.02 1558.33 Q2843.96 1555.65 2843.96 1550.95 Z" fill="#000000" fill-rule="nonzero" fill-opacity="1" /><path clip-path="url(#clip980)" d="M2868.9 1533.4 L2857.09 1551.85 L2868.9 1551.85 L2868.9 1533.4 M2867.67 1529.33 L2873.55 1529.33 L2873.55 1551.85 L2878.48 1551.85 L2878.48 1555.74 L2873.55 1555.74 L2873.55 1563.89 L2868.9 1563.89 L2868.9 1555.74 L2853.29 1555.74 L2853.29 1551.23 L2867.67 1529.33 Z" fill="#000000" fill-rule="nonzero" fill-opacity="1" /><path clip-path="url(#clip980)" d="M2885.03 1529.33 L2907.25 1529.33 L2907.25 1531.32 L2894.71 1563.89 L2889.82 1563.89 L2901.63 1533.26 L2885.03 1533.26 L2885.03 1529.33 Z" fill="#000000" fill-rule="nonzero" fill-opacity="1" /><polyline clip-path="url(#clip980)" style="stroke:#000000; stroke-linecap:round; stroke-linejoin:round; stroke-width:4; stroke-opacity:1; fill:none" points="364.733,1495.09 364.733,47.2441 "/>
<polyline clip-path="url(#clip980)" style="stroke:#000000; stroke-linecap:round; stroke-linejoin:round; stroke-width:4; stroke-opacity:1; fill:none" points="364.733,1408.8 383.63,1408.8 "/>
<polyline clip-path="url(#clip980)" style="stroke:#000000; stroke-linecap:round; stroke-linejoin:round; stroke-width:4; stroke-opacity:1; fill:none" points="364.733,1182.34 383.63,1182.34 "/>
<polyline clip-path="url(#clip980)" style="stroke:#000000; stroke-linecap:round; stroke-linejoin:round; stroke-width:4; stroke-opacity:1; fill:none" points="364.733,955.881 383.63,955.881 "/>
<polyline clip-path="url(#clip980)" style="stroke:#000000; stroke-linecap:round; stroke-linejoin:round; stroke-width:4; stroke-opacity:1; fill:none" points="364.733,729.419 383.63,729.419 "/>
<polyline clip-path="url(#clip980)" style="stroke:#000000; stroke-linecap:round; stroke-linejoin:round; stroke-width:4; stroke-opacity:1; fill:none" points="364.733,502.957 383.63,502.957 "/>
<polyline clip-path="url(#clip980)" style="stroke:#000000; stroke-linecap:round; stroke-linejoin:round; stroke-width:4; stroke-opacity:1; fill:none" points="364.733,276.495 383.63,276.495 "/>
<polyline clip-path="url(#clip980)" style="stroke:#000000; stroke-linecap:round; stroke-linejoin:round; stroke-width:4; stroke-opacity:1; fill:none" points="364.733,50.0327 383.63,50.0327 "/>
<path clip-path="url(#clip980)" d="M104.005 1428.6 L120.324 1428.6 L120.324 1432.53 L98.3802 1432.53 L98.3802 1428.6 Q101.042 1425.84 105.625 1421.21 Q110.232 1416.56 111.412 1415.22 Q113.658 1412.69 114.537 1410.96 Q115.44 1409.2 115.44 1407.51 Q115.44 1404.75 113.496 1403.02 Q111.575 1401.28 108.473 1401.28 Q106.274 1401.28 103.82 1402.05 Q101.389 1402.81 98.6116 1404.36 L98.6116 1399.64 Q101.436 1398.5 103.889 1397.93 Q106.343 1397.35 108.38 1397.35 Q113.75 1397.35 116.945 1400.03 Q120.139 1402.72 120.139 1407.21 Q120.139 1409.34 119.329 1411.26 Q118.542 1413.16 116.436 1415.75 Q115.857 1416.42 112.755 1419.64 Q109.653 1422.83 104.005 1428.6 Z" fill="#000000" fill-rule="nonzero" fill-opacity="1" /><path clip-path="url(#clip980)" d="M130.139 1426.65 L135.023 1426.65 L135.023 1432.53 L130.139 1432.53 L130.139 1426.65 Z" fill="#000000" fill-rule="nonzero" fill-opacity="1" /><path clip-path="url(#clip980)" d="M149.236 1428.6 L165.556 1428.6 L165.556 1432.53 L143.611 1432.53 L143.611 1428.6 Q146.273 1425.84 150.857 1421.21 Q155.463 1416.56 156.644 1415.22 Q158.889 1412.69 159.769 1410.96 Q160.671 1409.2 160.671 1407.51 Q160.671 1404.75 158.727 1403.02 Q156.806 1401.28 153.704 1401.28 Q151.505 1401.28 149.051 1402.05 Q146.621 1402.81 143.843 1404.36 L143.843 1399.64 Q146.667 1398.5 149.121 1397.93 Q151.574 1397.35 153.611 1397.35 Q158.982 1397.35 162.176 1400.03 Q165.371 1402.72 165.371 1407.21 Q165.371 1409.34 164.56 1411.26 Q163.773 1413.16 161.667 1415.75 Q161.088 1416.42 157.986 1419.64 Q154.884 1422.83 149.236 1428.6 Z" fill="#000000" fill-rule="nonzero" fill-opacity="1" /><path clip-path="url(#clip980)" d="M185.37 1401.05 Q181.759 1401.05 179.931 1404.62 Q178.125 1408.16 178.125 1415.29 Q178.125 1422.39 179.931 1425.96 Q181.759 1429.5 185.37 1429.5 Q189.005 1429.5 190.81 1425.96 Q192.639 1422.39 192.639 1415.29 Q192.639 1408.16 190.81 1404.62 Q189.005 1401.05 185.37 1401.05 M185.37 1397.35 Q191.181 1397.35 194.236 1401.95 Q197.315 1406.54 197.315 1415.29 Q197.315 1424.01 194.236 1428.62 Q191.181 1433.2 185.37 1433.2 Q179.56 1433.2 176.482 1428.62 Q173.426 1424.01 173.426 1415.29 Q173.426 1406.54 176.482 1401.95 Q179.56 1397.35 185.37 1397.35 Z" fill="#000000" fill-rule="nonzero" fill-opacity="1" /><path clip-path="url(#clip980)" d="M233.704 1407.07 L223.125 1417.69 L233.704 1428.27 L230.949 1431.07 L220.324 1420.45 L209.699 1431.07 L206.968 1428.27 L217.523 1417.69 L206.968 1407.07 L209.699 1404.27 L220.324 1414.89 L230.949 1404.27 L233.704 1407.07 Z" fill="#000000" fill-rule="nonzero" fill-opacity="1" /><path clip-path="url(#clip980)" d="M246.065 1428.6 L253.703 1428.6 L253.703 1402.23 L245.393 1403.9 L245.393 1399.64 L253.657 1397.97 L258.333 1397.97 L258.333 1428.6 L265.972 1428.6 L265.972 1432.53 L246.065 1432.53 L246.065 1428.6 Z" fill="#000000" fill-rule="nonzero" fill-opacity="1" /><path clip-path="url(#clip980)" d="M285.416 1401.05 Q281.805 1401.05 279.976 1404.62 Q278.171 1408.16 278.171 1415.29 Q278.171 1422.39 279.976 1425.96 Q281.805 1429.5 285.416 1429.5 Q289.05 1429.5 290.856 1425.96 Q292.685 1422.39 292.685 1415.29 Q292.685 1408.16 290.856 1404.62 Q289.05 1401.05 285.416 1401.05 M285.416 1397.35 Q291.226 1397.35 294.282 1401.95 Q297.361 1406.54 297.361 1415.29 Q297.361 1424.01 294.282 1428.62 Q291.226 1433.2 285.416 1433.2 Q279.606 1433.2 276.527 1428.62 Q273.472 1424.01 273.472 1415.29 Q273.472 1406.54 276.527 1401.95 Q279.606 1397.35 285.416 1397.35 Z" fill="#000000" fill-rule="nonzero" fill-opacity="1" /><path clip-path="url(#clip980)" d="M299.166 1404.54 L299.166 1401.08 Q300.596 1401.76 302.063 1402.11 Q303.53 1402.47 304.94 1402.47 Q308.702 1402.47 310.676 1399.95 Q312.67 1397.41 312.952 1392.26 Q311.861 1393.88 310.187 1394.74 Q308.514 1395.61 306.482 1395.61 Q302.269 1395.61 299.806 1393.07 Q297.361 1390.51 297.361 1386.09 Q297.361 1381.76 299.918 1379.15 Q302.476 1376.53 306.727 1376.53 Q311.598 1376.53 314.156 1380.28 Q316.733 1384 316.733 1391.11 Q316.733 1397.75 313.573 1401.72 Q310.432 1405.67 305.109 1405.67 Q303.68 1405.67 302.213 1405.39 Q300.746 1405.1 299.166 1404.54 M306.727 1392.63 Q309.285 1392.63 310.771 1390.88 Q312.275 1389.14 312.275 1386.09 Q312.275 1383.06 310.771 1381.31 Q309.285 1379.54 306.727 1379.54 Q304.169 1379.54 302.664 1381.31 Q301.179 1383.06 301.179 1386.09 Q301.179 1389.14 302.664 1390.88 Q304.169 1392.63 306.727 1392.63 Z" fill="#000000" fill-rule="nonzero" fill-opacity="1" /><path clip-path="url(#clip980)" d="M104.005 1202.14 L120.324 1202.14 L120.324 1206.07 L98.3802 1206.07 L98.3802 1202.14 Q101.042 1199.38 105.625 1194.75 Q110.232 1190.1 111.412 1188.76 Q113.658 1186.23 114.537 1184.5 Q115.44 1182.74 115.44 1181.05 Q115.44 1178.29 113.496 1176.56 Q111.575 1174.82 108.473 1174.82 Q106.274 1174.82 103.82 1175.58 Q101.389 1176.35 98.6116 1177.9 L98.6116 1173.18 Q101.436 1172.04 103.889 1171.46 Q106.343 1170.89 108.38 1170.89 Q113.75 1170.89 116.945 1173.57 Q120.139 1176.26 120.139 1180.75 Q120.139 1182.88 119.329 1184.8 Q118.542 1186.7 116.436 1189.29 Q115.857 1189.96 112.755 1193.18 Q109.653 1196.37 104.005 1202.14 Z" fill="#000000" fill-rule="nonzero" fill-opacity="1" /><path clip-path="url(#clip980)" d="M130.139 1200.19 L135.023 1200.19 L135.023 1206.07 L130.139 1206.07 L130.139 1200.19 Z" fill="#000000" fill-rule="nonzero" fill-opacity="1" /><path clip-path="url(#clip980)" d="M159.375 1187.44 Q162.732 1188.15 164.607 1190.42 Q166.505 1192.69 166.505 1196.02 Q166.505 1201.14 162.986 1203.94 Q159.468 1206.74 152.986 1206.74 Q150.81 1206.74 148.496 1206.3 Q146.204 1205.89 143.75 1205.03 L143.75 1200.51 Q145.695 1201.65 148.01 1202.23 Q150.324 1202.81 152.847 1202.81 Q157.246 1202.81 159.537 1201.07 Q161.852 1199.33 161.852 1196.02 Q161.852 1192.97 159.699 1191.26 Q157.57 1189.52 153.75 1189.52 L149.722 1189.52 L149.722 1185.68 L153.935 1185.68 Q157.384 1185.68 159.213 1184.31 Q161.042 1182.92 161.042 1180.33 Q161.042 1177.67 159.144 1176.26 Q157.269 1174.82 153.75 1174.82 Q151.829 1174.82 149.63 1175.24 Q147.431 1175.65 144.792 1176.53 L144.792 1172.37 Q147.454 1171.63 149.769 1171.26 Q152.107 1170.89 154.167 1170.89 Q159.491 1170.89 162.593 1173.32 Q165.695 1175.72 165.695 1179.84 Q165.695 1182.71 164.051 1184.7 Q162.408 1186.67 159.375 1187.44 Z" fill="#000000" fill-rule="nonzero" fill-opacity="1" /><path clip-path="url(#clip980)" d="M185.37 1174.59 Q181.759 1174.59 179.931 1178.15 Q178.125 1181.7 178.125 1188.83 Q178.125 1195.93 179.931 1199.5 Q181.759 1203.04 185.37 1203.04 Q189.005 1203.04 190.81 1199.5 Q192.639 1195.93 192.639 1188.83 Q192.639 1181.7 190.81 1178.15 Q189.005 1174.59 185.37 1174.59 M185.37 1170.89 Q191.181 1170.89 194.236 1175.49 Q197.315 1180.08 197.315 1188.83 Q197.315 1197.55 194.236 1202.16 Q191.181 1206.74 185.37 1206.74 Q179.56 1206.74 176.482 1202.16 Q173.426 1197.55 173.426 1188.83 Q173.426 1180.08 176.482 1175.49 Q179.56 1170.89 185.37 1170.89 Z" fill="#000000" fill-rule="nonzero" fill-opacity="1" /><path clip-path="url(#clip980)" d="M233.704 1180.61 L223.125 1191.23 L233.704 1201.81 L230.949 1204.61 L220.324 1193.99 L209.699 1204.61 L206.968 1201.81 L217.523 1191.23 L206.968 1180.61 L209.699 1177.81 L220.324 1188.43 L230.949 1177.81 L233.704 1180.61 Z" fill="#000000" fill-rule="nonzero" fill-opacity="1" /><path clip-path="url(#clip980)" d="M246.065 1202.14 L253.703 1202.14 L253.703 1175.77 L245.393 1177.44 L245.393 1173.18 L253.657 1171.51 L258.333 1171.51 L258.333 1202.14 L265.972 1202.14 L265.972 1206.07 L246.065 1206.07 L246.065 1202.14 Z" fill="#000000" fill-rule="nonzero" fill-opacity="1" /><path clip-path="url(#clip980)" d="M285.416 1174.59 Q281.805 1174.59 279.976 1178.15 Q278.171 1181.7 278.171 1188.83 Q278.171 1195.93 279.976 1199.5 Q281.805 1203.04 285.416 1203.04 Q289.05 1203.04 290.856 1199.5 Q292.685 1195.93 292.685 1188.83 Q292.685 1181.7 290.856 1178.15 Q289.05 1174.59 285.416 1174.59 M285.416 1170.89 Q291.226 1170.89 294.282 1175.49 Q297.361 1180.08 297.361 1188.83 Q297.361 1197.55 294.282 1202.16 Q291.226 1206.74 285.416 1206.74 Q279.606 1206.74 276.527 1202.16 Q273.472 1197.55 273.472 1188.83 Q273.472 1180.08 276.527 1175.49 Q279.606 1170.89 285.416 1170.89 Z" fill="#000000" fill-rule="nonzero" fill-opacity="1" /><path clip-path="url(#clip980)" d="M299.166 1178.08 L299.166 1174.62 Q300.596 1175.29 302.063 1175.65 Q303.53 1176.01 304.94 1176.01 Q308.702 1176.01 310.676 1173.49 Q312.67 1170.95 312.952 1165.8 Q311.861 1167.41 310.187 1168.28 Q308.514 1169.14 306.482 1169.14 Q302.269 1169.14 299.806 1166.6 Q297.361 1164.05 297.361 1159.63 Q297.361 1155.3 299.918 1152.69 Q302.476 1150.07 306.727 1150.07 Q311.598 1150.07 314.156 1153.82 Q316.733 1157.54 316.733 1164.65 Q316.733 1171.29 313.573 1175.26 Q310.432 1179.21 305.109 1179.21 Q303.68 1179.21 302.213 1178.92 Q300.746 1178.64 299.166 1178.08 M306.727 1166.17 Q309.285 1166.17 310.771 1164.42 Q312.275 1162.67 312.275 1159.63 Q312.275 1156.6 310.771 1154.85 Q309.285 1153.08 306.727 1153.08 Q304.169 1153.08 302.664 1154.85 Q301.179 1156.6 301.179 1159.63 Q301.179 1162.67 302.664 1164.42 Q304.169 1166.17 306.727 1166.17 Z" fill="#000000" fill-rule="nonzero" fill-opacity="1" /><path clip-path="url(#clip980)" d="M104.005 975.673 L120.324 975.673 L120.324 979.608 L98.3802 979.608 L98.3802 975.673 Q101.042 972.919 105.625 968.289 Q110.232 963.636 111.412 962.294 Q113.658 959.771 114.537 958.034 Q115.44 956.275 115.44 954.585 Q115.44 951.831 113.496 950.095 Q111.575 948.359 108.473 948.359 Q106.274 948.359 103.82 949.123 Q101.389 949.886 98.6116 951.437 L98.6116 946.715 Q101.436 945.581 103.889 945.002 Q106.343 944.423 108.38 944.423 Q113.75 944.423 116.945 947.109 Q120.139 949.794 120.139 954.285 Q120.139 956.414 119.329 958.335 Q118.542 960.234 116.436 962.826 Q115.857 963.497 112.755 966.715 Q109.653 969.909 104.005 975.673 Z" fill="#000000" fill-rule="nonzero" fill-opacity="1" /><path clip-path="url(#clip980)" d="M130.139 973.729 L135.023 973.729 L135.023 979.608 L130.139 979.608 L130.139 973.729 Z" fill="#000000" fill-rule="nonzero" fill-opacity="1" /><path clip-path="url(#clip980)" d="M158.056 949.123 L146.25 967.571 L158.056 967.571 L158.056 949.123 M156.829 945.048 L162.709 945.048 L162.709 967.571 L167.639 967.571 L167.639 971.46 L162.709 971.46 L162.709 979.608 L158.056 979.608 L158.056 971.46 L142.454 971.46 L142.454 966.946 L156.829 945.048 Z" fill="#000000" fill-rule="nonzero" fill-opacity="1" /><path clip-path="url(#clip980)" d="M185.37 948.127 Q181.759 948.127 179.931 951.692 Q178.125 955.234 178.125 962.363 Q178.125 969.47 179.931 973.034 Q181.759 976.576 185.37 976.576 Q189.005 976.576 190.81 973.034 Q192.639 969.47 192.639 962.363 Q192.639 955.234 190.81 951.692 Q189.005 948.127 185.37 948.127 M185.37 944.423 Q191.181 944.423 194.236 949.03 Q197.315 953.613 197.315 962.363 Q197.315 971.09 194.236 975.696 Q191.181 980.28 185.37 980.28 Q179.56 980.28 176.482 975.696 Q173.426 971.09 173.426 962.363 Q173.426 953.613 176.482 949.03 Q179.56 944.423 185.37 944.423 Z" fill="#000000" fill-rule="nonzero" fill-opacity="1" /><path clip-path="url(#clip980)" d="M233.704 954.146 L223.125 964.771 L233.704 975.349 L230.949 978.15 L220.324 967.525 L209.699 978.15 L206.968 975.349 L217.523 964.771 L206.968 954.146 L209.699 951.345 L220.324 961.97 L230.949 951.345 L233.704 954.146 Z" fill="#000000" fill-rule="nonzero" fill-opacity="1" /><path clip-path="url(#clip980)" d="M246.065 975.673 L253.703 975.673 L253.703 949.308 L245.393 950.974 L245.393 946.715 L253.657 945.048 L258.333 945.048 L258.333 975.673 L265.972 975.673 L265.972 979.608 L246.065 979.608 L246.065 975.673 Z" fill="#000000" fill-rule="nonzero" fill-opacity="1" /><path clip-path="url(#clip980)" d="M285.416 948.127 Q281.805 948.127 279.976 951.692 Q278.171 955.234 278.171 962.363 Q278.171 969.47 279.976 973.034 Q281.805 976.576 285.416 976.576 Q289.05 976.576 290.856 973.034 Q292.685 969.47 292.685 962.363 Q292.685 955.234 290.856 951.692 Q289.05 948.127 285.416 948.127 M285.416 944.423 Q291.226 944.423 294.282 949.03 Q297.361 953.613 297.361 962.363 Q297.361 971.09 294.282 975.696 Q291.226 980.28 285.416 980.28 Q279.606 980.28 276.527 975.696 Q273.472 971.09 273.472 962.363 Q273.472 953.613 276.527 949.03 Q279.606 944.423 285.416 944.423 Z" fill="#000000" fill-rule="nonzero" fill-opacity="1" /><path clip-path="url(#clip980)" d="M299.166 951.615 L299.166 948.154 Q300.596 948.831 302.063 949.189 Q303.53 949.546 304.94 949.546 Q308.702 949.546 310.676 947.026 Q312.67 944.487 312.952 939.334 Q311.861 940.951 310.187 941.816 Q308.514 942.681 306.482 942.681 Q302.269 942.681 299.806 940.142 Q297.361 937.584 297.361 933.165 Q297.361 928.839 299.918 926.225 Q302.476 923.61 306.727 923.61 Q311.598 923.61 314.156 927.353 Q316.733 931.077 316.733 938.186 Q316.733 944.825 313.573 948.794 Q310.432 952.743 305.109 952.743 Q303.68 952.743 302.213 952.461 Q300.746 952.179 299.166 951.615 M306.727 939.71 Q309.285 939.71 310.771 937.961 Q312.275 936.211 312.275 933.165 Q312.275 930.137 310.771 928.387 Q309.285 926.619 306.727 926.619 Q304.169 926.619 302.664 928.387 Q301.179 930.137 301.179 933.165 Q301.179 936.211 302.664 937.961 Q304.169 939.71 306.727 939.71 Z" fill="#000000" fill-rule="nonzero" fill-opacity="1" /><path clip-path="url(#clip980)" d="M104.005 749.211 L120.324 749.211 L120.324 753.146 L98.3802 753.146 L98.3802 749.211 Q101.042 746.457 105.625 741.827 Q110.232 737.174 111.412 735.832 Q113.658 733.309 114.537 731.572 Q115.44 729.813 115.44 728.123 Q115.44 725.369 113.496 723.633 Q111.575 721.897 108.473 721.897 Q106.274 721.897 103.82 722.66 Q101.389 723.424 98.6116 724.975 L98.6116 720.253 Q101.436 719.119 103.889 718.54 Q106.343 717.961 108.38 717.961 Q113.75 717.961 116.945 720.647 Q120.139 723.332 120.139 727.822 Q120.139 729.952 119.329 731.873 Q118.542 733.772 116.436 736.364 Q115.857 737.035 112.755 740.253 Q109.653 743.447 104.005 749.211 Z" fill="#000000" fill-rule="nonzero" fill-opacity="1" /><path clip-path="url(#clip980)" d="M130.139 747.267 L135.023 747.267 L135.023 753.146 L130.139 753.146 L130.139 747.267 Z" fill="#000000" fill-rule="nonzero" fill-opacity="1" /><path clip-path="url(#clip980)" d="M145.255 718.586 L163.611 718.586 L163.611 722.522 L149.537 722.522 L149.537 730.994 Q150.556 730.647 151.574 730.484 Q152.593 730.299 153.611 730.299 Q159.398 730.299 162.778 733.471 Q166.158 736.642 166.158 742.059 Q166.158 747.637 162.685 750.739 Q159.213 753.818 152.894 753.818 Q150.718 753.818 148.449 753.447 Q146.204 753.077 143.797 752.336 L143.797 747.637 Q145.88 748.771 148.102 749.327 Q150.324 749.883 152.801 749.883 Q156.806 749.883 159.144 747.776 Q161.482 745.67 161.482 742.059 Q161.482 738.447 159.144 736.341 Q156.806 734.234 152.801 734.234 Q150.926 734.234 149.051 734.651 Q147.199 735.068 145.255 735.947 L145.255 718.586 Z" fill="#000000" fill-rule="nonzero" fill-opacity="1" /><path clip-path="url(#clip980)" d="M185.37 721.665 Q181.759 721.665 179.931 725.23 Q178.125 728.772 178.125 735.901 Q178.125 743.008 179.931 746.572 Q181.759 750.114 185.37 750.114 Q189.005 750.114 190.81 746.572 Q192.639 743.008 192.639 735.901 Q192.639 728.772 190.81 725.23 Q189.005 721.665 185.37 721.665 M185.37 717.961 Q191.181 717.961 194.236 722.568 Q197.315 727.151 197.315 735.901 Q197.315 744.628 194.236 749.234 Q191.181 753.818 185.37 753.818 Q179.56 753.818 176.482 749.234 Q173.426 744.628 173.426 735.901 Q173.426 727.151 176.482 722.568 Q179.56 717.961 185.37 717.961 Z" fill="#000000" fill-rule="nonzero" fill-opacity="1" /><path clip-path="url(#clip980)" d="M233.704 727.684 L223.125 738.309 L233.704 748.887 L230.949 751.688 L220.324 741.063 L209.699 751.688 L206.968 748.887 L217.523 738.309 L206.968 727.684 L209.699 724.883 L220.324 735.508 L230.949 724.883 L233.704 727.684 Z" fill="#000000" fill-rule="nonzero" fill-opacity="1" /><path clip-path="url(#clip980)" d="M246.065 749.211 L253.703 749.211 L253.703 722.846 L245.393 724.512 L245.393 720.253 L253.657 718.586 L258.333 718.586 L258.333 749.211 L265.972 749.211 L265.972 753.146 L246.065 753.146 L246.065 749.211 Z" fill="#000000" fill-rule="nonzero" fill-opacity="1" /><path clip-path="url(#clip980)" d="M285.416 721.665 Q281.805 721.665 279.976 725.23 Q278.171 728.772 278.171 735.901 Q278.171 743.008 279.976 746.572 Q281.805 750.114 285.416 750.114 Q289.05 750.114 290.856 746.572 Q292.685 743.008 292.685 735.901 Q292.685 728.772 290.856 725.23 Q289.05 721.665 285.416 721.665 M285.416 717.961 Q291.226 717.961 294.282 722.568 Q297.361 727.151 297.361 735.901 Q297.361 744.628 294.282 749.234 Q291.226 753.818 285.416 753.818 Q279.606 753.818 276.527 749.234 Q273.472 744.628 273.472 735.901 Q273.472 727.151 276.527 722.568 Q279.606 717.961 285.416 717.961 Z" fill="#000000" fill-rule="nonzero" fill-opacity="1" /><path clip-path="url(#clip980)" d="M299.166 725.153 L299.166 721.692 Q300.596 722.369 302.063 722.727 Q303.53 723.084 304.94 723.084 Q308.702 723.084 310.676 720.564 Q312.67 718.025 312.952 712.871 Q311.861 714.489 310.187 715.354 Q308.514 716.219 306.482 716.219 Q302.269 716.219 299.806 713.68 Q297.361 711.122 297.361 706.703 Q297.361 702.377 299.918 699.762 Q302.476 697.148 306.727 697.148 Q311.598 697.148 314.156 700.891 Q316.733 704.615 316.733 711.724 Q316.733 718.363 313.573 722.332 Q310.432 726.281 305.109 726.281 Q303.68 726.281 302.213 725.999 Q300.746 725.717 299.166 725.153 M306.727 713.248 Q309.285 713.248 310.771 711.499 Q312.275 709.749 312.275 706.703 Q312.275 703.674 310.771 701.925 Q309.285 700.157 306.727 700.157 Q304.169 700.157 302.664 701.925 Q301.179 703.674 301.179 706.703 Q301.179 709.749 302.664 711.499 Q304.169 713.248 306.727 713.248 Z" fill="#000000" fill-rule="nonzero" fill-opacity="1" /><path clip-path="url(#clip980)" d="M104.005 522.749 L120.324 522.749 L120.324 526.684 L98.3802 526.684 L98.3802 522.749 Q101.042 519.995 105.625 515.365 Q110.232 510.712 111.412 509.37 Q113.658 506.847 114.537 505.11 Q115.44 503.351 115.44 501.661 Q115.44 498.907 113.496 497.171 Q111.575 495.435 108.473 495.435 Q106.274 495.435 103.82 496.198 Q101.389 496.962 98.6116 498.513 L98.6116 493.791 Q101.436 492.657 103.889 492.078 Q106.343 491.499 108.38 491.499 Q113.75 491.499 116.945 494.185 Q120.139 496.87 120.139 501.36 Q120.139 503.49 119.329 505.411 Q118.542 507.309 116.436 509.902 Q115.857 510.573 112.755 513.791 Q109.653 516.985 104.005 522.749 Z" fill="#000000" fill-rule="nonzero" fill-opacity="1" /><path clip-path="url(#clip980)" d="M130.139 520.805 L135.023 520.805 L135.023 526.684 L130.139 526.684 L130.139 520.805 Z" fill="#000000" fill-rule="nonzero" fill-opacity="1" /><path clip-path="url(#clip980)" d="M155.787 507.541 Q152.639 507.541 150.787 509.694 Q148.959 511.846 148.959 515.596 Q148.959 519.323 150.787 521.499 Q152.639 523.652 155.787 523.652 Q158.935 523.652 160.764 521.499 Q162.616 519.323 162.616 515.596 Q162.616 511.846 160.764 509.694 Q158.935 507.541 155.787 507.541 M165.07 492.888 L165.07 497.147 Q163.31 496.314 161.505 495.874 Q159.722 495.435 157.963 495.435 Q153.334 495.435 150.88 498.56 Q148.449 501.685 148.102 508.004 Q149.468 505.99 151.528 504.925 Q153.588 503.837 156.065 503.837 Q161.273 503.837 164.283 507.009 Q167.315 510.157 167.315 515.596 Q167.315 520.921 164.167 524.138 Q161.019 527.356 155.787 527.356 Q149.792 527.356 146.621 522.772 Q143.449 518.166 143.449 509.439 Q143.449 501.245 147.338 496.384 Q151.227 491.499 157.778 491.499 Q159.537 491.499 161.32 491.847 Q163.125 492.194 165.07 492.888 Z" fill="#000000" fill-rule="nonzero" fill-opacity="1" /><path clip-path="url(#clip980)" d="M185.37 495.203 Q181.759 495.203 179.931 498.768 Q178.125 502.309 178.125 509.439 Q178.125 516.546 179.931 520.11 Q181.759 523.652 185.37 523.652 Q189.005 523.652 190.81 520.11 Q192.639 516.546 192.639 509.439 Q192.639 502.309 190.81 498.768 Q189.005 495.203 185.37 495.203 M185.37 491.499 Q191.181 491.499 194.236 496.106 Q197.315 500.689 197.315 509.439 Q197.315 518.166 194.236 522.772 Q191.181 527.356 185.37 527.356 Q179.56 527.356 176.482 522.772 Q173.426 518.166 173.426 509.439 Q173.426 500.689 176.482 496.106 Q179.56 491.499 185.37 491.499 Z" fill="#000000" fill-rule="nonzero" fill-opacity="1" /><path clip-path="url(#clip980)" d="M233.704 501.222 L223.125 511.846 L233.704 522.425 L230.949 525.226 L220.324 514.601 L209.699 525.226 L206.968 522.425 L217.523 511.846 L206.968 501.222 L209.699 498.421 L220.324 509.046 L230.949 498.421 L233.704 501.222 Z" fill="#000000" fill-rule="nonzero" fill-opacity="1" /><path clip-path="url(#clip980)" d="M246.065 522.749 L253.703 522.749 L253.703 496.384 L245.393 498.05 L245.393 493.791 L253.657 492.124 L258.333 492.124 L258.333 522.749 L265.972 522.749 L265.972 526.684 L246.065 526.684 L246.065 522.749 Z" fill="#000000" fill-rule="nonzero" fill-opacity="1" /><path clip-path="url(#clip980)" d="M285.416 495.203 Q281.805 495.203 279.976 498.768 Q278.171 502.309 278.171 509.439 Q278.171 516.546 279.976 520.11 Q281.805 523.652 285.416 523.652 Q289.05 523.652 290.856 520.11 Q292.685 516.546 292.685 509.439 Q292.685 502.309 290.856 498.768 Q289.05 495.203 285.416 495.203 M285.416 491.499 Q291.226 491.499 294.282 496.106 Q297.361 500.689 297.361 509.439 Q297.361 518.166 294.282 522.772 Q291.226 527.356 285.416 527.356 Q279.606 527.356 276.527 522.772 Q273.472 518.166 273.472 509.439 Q273.472 500.689 276.527 496.106 Q279.606 491.499 285.416 491.499 Z" fill="#000000" fill-rule="nonzero" fill-opacity="1" /><path clip-path="url(#clip980)" d="M299.166 498.691 L299.166 495.23 Q300.596 495.907 302.063 496.265 Q303.53 496.622 304.94 496.622 Q308.702 496.622 310.676 494.102 Q312.67 491.563 312.952 486.409 Q311.861 488.027 310.187 488.892 Q308.514 489.757 306.482 489.757 Q302.269 489.757 299.806 487.218 Q297.361 484.66 297.361 480.241 Q297.361 475.915 299.918 473.3 Q302.476 470.686 306.727 470.686 Q311.598 470.686 314.156 474.429 Q316.733 478.153 316.733 485.262 Q316.733 491.901 313.573 495.87 Q310.432 499.819 305.109 499.819 Q303.68 499.819 302.213 499.537 Q300.746 499.255 299.166 498.691 M306.727 486.786 Q309.285 486.786 310.771 485.036 Q312.275 483.287 312.275 480.241 Q312.275 477.212 310.771 475.463 Q309.285 473.695 306.727 473.695 Q304.169 473.695 302.664 475.463 Q301.179 477.212 301.179 480.241 Q301.179 483.287 302.664 485.036 Q304.169 486.786 306.727 486.786 Z" fill="#000000" fill-rule="nonzero" fill-opacity="1" /><path clip-path="url(#clip980)" d="M104.005 296.287 L120.324 296.287 L120.324 300.222 L98.3802 300.222 L98.3802 296.287 Q101.042 293.533 105.625 288.903 Q110.232 284.25 111.412 282.908 Q113.658 280.384 114.537 278.648 Q115.44 276.889 115.44 275.199 Q115.44 272.445 113.496 270.709 Q111.575 268.972 108.473 268.972 Q106.274 268.972 103.82 269.736 Q101.389 270.5 98.6116 272.051 L98.6116 267.329 Q101.436 266.195 103.889 265.616 Q106.343 265.037 108.38 265.037 Q113.75 265.037 116.945 267.722 Q120.139 270.408 120.139 274.898 Q120.139 277.028 119.329 278.949 Q118.542 280.847 116.436 283.44 Q115.857 284.111 112.755 287.329 Q109.653 290.523 104.005 296.287 Z" fill="#000000" fill-rule="nonzero" fill-opacity="1" /><path clip-path="url(#clip980)" d="M130.139 294.343 L135.023 294.343 L135.023 300.222 L130.139 300.222 L130.139 294.343 Z" fill="#000000" fill-rule="nonzero" fill-opacity="1" /><path clip-path="url(#clip980)" d="M144.028 265.662 L166.25 265.662 L166.25 267.653 L153.704 300.222 L148.82 300.222 L160.625 269.597 L144.028 269.597 L144.028 265.662 Z" fill="#000000" fill-rule="nonzero" fill-opacity="1" /><path clip-path="url(#clip980)" d="M185.37 268.741 Q181.759 268.741 179.931 272.306 Q178.125 275.847 178.125 282.977 Q178.125 290.083 179.931 293.648 Q181.759 297.19 185.37 297.19 Q189.005 297.19 190.81 293.648 Q192.639 290.083 192.639 282.977 Q192.639 275.847 190.81 272.306 Q189.005 268.741 185.37 268.741 M185.37 265.037 Q191.181 265.037 194.236 269.644 Q197.315 274.227 197.315 282.977 Q197.315 291.704 194.236 296.31 Q191.181 300.894 185.37 300.894 Q179.56 300.894 176.482 296.31 Q173.426 291.704 173.426 282.977 Q173.426 274.227 176.482 269.644 Q179.56 265.037 185.37 265.037 Z" fill="#000000" fill-rule="nonzero" fill-opacity="1" /><path clip-path="url(#clip980)" d="M233.704 274.759 L223.125 285.384 L233.704 295.963 L230.949 298.764 L220.324 288.139 L209.699 298.764 L206.968 295.963 L217.523 285.384 L206.968 274.759 L209.699 271.959 L220.324 282.584 L230.949 271.959 L233.704 274.759 Z" fill="#000000" fill-rule="nonzero" fill-opacity="1" /><path clip-path="url(#clip980)" d="M246.065 296.287 L253.703 296.287 L253.703 269.922 L245.393 271.588 L245.393 267.329 L253.657 265.662 L258.333 265.662 L258.333 296.287 L265.972 296.287 L265.972 300.222 L246.065 300.222 L246.065 296.287 Z" fill="#000000" fill-rule="nonzero" fill-opacity="1" /><path clip-path="url(#clip980)" d="M285.416 268.741 Q281.805 268.741 279.976 272.306 Q278.171 275.847 278.171 282.977 Q278.171 290.083 279.976 293.648 Q281.805 297.19 285.416 297.19 Q289.05 297.19 290.856 293.648 Q292.685 290.083 292.685 282.977 Q292.685 275.847 290.856 272.306 Q289.05 268.741 285.416 268.741 M285.416 265.037 Q291.226 265.037 294.282 269.644 Q297.361 274.227 297.361 282.977 Q297.361 291.704 294.282 296.31 Q291.226 300.894 285.416 300.894 Q279.606 300.894 276.527 296.31 Q273.472 291.704 273.472 282.977 Q273.472 274.227 276.527 269.644 Q279.606 265.037 285.416 265.037 Z" fill="#000000" fill-rule="nonzero" fill-opacity="1" /><path clip-path="url(#clip980)" d="M299.166 272.229 L299.166 268.768 Q300.596 269.445 302.063 269.803 Q303.53 270.16 304.94 270.16 Q308.702 270.16 310.676 267.64 Q312.67 265.101 312.952 259.947 Q311.861 261.565 310.187 262.43 Q308.514 263.295 306.482 263.295 Q302.269 263.295 299.806 260.756 Q297.361 258.198 297.361 253.778 Q297.361 249.453 299.918 246.838 Q302.476 244.224 306.727 244.224 Q311.598 244.224 314.156 247.967 Q316.733 251.691 316.733 258.8 Q316.733 265.439 313.573 269.408 Q310.432 273.357 305.109 273.357 Q303.68 273.357 302.213 273.075 Q300.746 272.793 299.166 272.229 M306.727 260.324 Q309.285 260.324 310.771 258.574 Q312.275 256.825 312.275 253.778 Q312.275 250.75 310.771 249.001 Q309.285 247.233 306.727 247.233 Q304.169 247.233 302.664 249.001 Q301.179 250.75 301.179 253.778 Q301.179 256.825 302.664 258.574 Q304.169 260.324 306.727 260.324 Z" fill="#000000" fill-rule="nonzero" fill-opacity="1" /><path clip-path="url(#clip980)" d="M104.005 69.8251 L120.324 69.8251 L120.324 73.7603 L98.3802 73.7603 L98.3802 69.8251 Q101.042 67.0705 105.625 62.4409 Q110.232 57.7881 111.412 56.4456 Q113.658 53.9224 114.537 52.1863 Q115.44 50.4271 115.44 48.7373 Q115.44 45.9826 113.496 44.2465 Q111.575 42.5104 108.473 42.5104 Q106.274 42.5104 103.82 43.2743 Q101.389 44.0382 98.6116 45.5891 L98.6116 40.8669 Q101.436 39.7327 103.889 39.154 Q106.343 38.5753 108.38 38.5753 Q113.75 38.5753 116.945 41.2605 Q120.139 43.9456 120.139 48.4363 Q120.139 50.566 119.329 52.4872 Q118.542 54.3854 116.436 56.978 Q115.857 57.6493 112.755 60.8668 Q109.653 64.0613 104.005 69.8251 Z" fill="#000000" fill-rule="nonzero" fill-opacity="1" /><path clip-path="url(#clip980)" d="M130.139 67.8807 L135.023 67.8807 L135.023 73.7603 L130.139 73.7603 L130.139 67.8807 Z" fill="#000000" fill-rule="nonzero" fill-opacity="1" /><path clip-path="url(#clip980)" d="M155.209 57.3483 Q151.875 57.3483 149.954 59.1307 Q148.056 60.9131 148.056 64.0381 Q148.056 67.1631 149.954 68.9455 Q151.875 70.7279 155.209 70.7279 Q158.542 70.7279 160.463 68.9455 Q162.384 67.1399 162.384 64.0381 Q162.384 60.9131 160.463 59.1307 Q158.565 57.3483 155.209 57.3483 M150.533 55.3576 Q147.523 54.6169 145.834 52.5567 Q144.167 50.4965 144.167 47.5336 Q144.167 43.3901 147.107 40.9827 Q150.07 38.5753 155.209 38.5753 Q160.371 38.5753 163.31 40.9827 Q166.25 43.3901 166.25 47.5336 Q166.25 50.4965 164.56 52.5567 Q162.894 54.6169 159.908 55.3576 Q163.287 56.1446 165.162 58.4363 Q167.06 60.7279 167.06 64.0381 Q167.06 69.0612 163.982 71.7464 Q160.926 74.4316 155.209 74.4316 Q149.491 74.4316 146.412 71.7464 Q143.357 69.0612 143.357 64.0381 Q143.357 60.7279 145.255 58.4363 Q147.153 56.1446 150.533 55.3576 M148.82 47.9734 Q148.82 50.6585 150.486 52.1632 Q152.176 53.6678 155.209 53.6678 Q158.218 53.6678 159.908 52.1632 Q161.621 50.6585 161.621 47.9734 Q161.621 45.2882 159.908 43.7836 Q158.218 42.279 155.209 42.279 Q152.176 42.279 150.486 43.7836 Q148.82 45.2882 148.82 47.9734 Z" fill="#000000" fill-rule="nonzero" fill-opacity="1" /><path clip-path="url(#clip980)" d="M185.37 42.279 Q181.759 42.279 179.931 45.8438 Q178.125 49.3854 178.125 56.515 Q178.125 63.6214 179.931 67.1862 Q181.759 70.7279 185.37 70.7279 Q189.005 70.7279 190.81 67.1862 Q192.639 63.6214 192.639 56.515 Q192.639 49.3854 190.81 45.8438 Q189.005 42.279 185.37 42.279 M185.37 38.5753 Q191.181 38.5753 194.236 43.1817 Q197.315 47.765 197.315 56.515 Q197.315 65.2418 194.236 69.8483 Q191.181 74.4316 185.37 74.4316 Q179.56 74.4316 176.482 69.8483 Q173.426 65.2418 173.426 56.515 Q173.426 47.765 176.482 43.1817 Q179.56 38.5753 185.37 38.5753 Z" fill="#000000" fill-rule="nonzero" fill-opacity="1" /><path clip-path="url(#clip980)" d="M233.704 48.2975 L223.125 58.9224 L233.704 69.501 L230.949 72.302 L220.324 61.677 L209.699 72.302 L206.968 69.501 L217.523 58.9224 L206.968 48.2975 L209.699 45.4965 L220.324 56.1215 L230.949 45.4965 L233.704 48.2975 Z" fill="#000000" fill-rule="nonzero" fill-opacity="1" /><path clip-path="url(#clip980)" d="M246.065 69.8251 L253.703 69.8251 L253.703 43.4595 L245.393 45.1262 L245.393 40.8669 L253.657 39.2003 L258.333 39.2003 L258.333 69.8251 L265.972 69.8251 L265.972 73.7603 L246.065 73.7603 L246.065 69.8251 Z" fill="#000000" fill-rule="nonzero" fill-opacity="1" /><path clip-path="url(#clip980)" d="M285.416 42.279 Q281.805 42.279 279.976 45.8438 Q278.171 49.3854 278.171 56.515 Q278.171 63.6214 279.976 67.1862 Q281.805 70.7279 285.416 70.7279 Q289.05 70.7279 290.856 67.1862 Q292.685 63.6214 292.685 56.515 Q292.685 49.3854 290.856 45.8438 Q289.05 42.279 285.416 42.279 M285.416 38.5753 Q291.226 38.5753 294.282 43.1817 Q297.361 47.765 297.361 56.515 Q297.361 65.2418 294.282 69.8483 Q291.226 74.4316 285.416 74.4316 Q279.606 74.4316 276.527 69.8483 Q273.472 65.2418 273.472 56.515 Q273.472 47.765 276.527 43.1817 Q279.606 38.5753 285.416 38.5753 Z" fill="#000000" fill-rule="nonzero" fill-opacity="1" /><path clip-path="url(#clip980)" d="M299.166 45.7668 L299.166 42.3062 Q300.596 42.9833 302.063 43.3406 Q303.53 43.698 304.94 43.698 Q308.702 43.698 310.676 41.1777 Q312.67 38.6387 312.952 33.4854 Q311.861 35.1028 310.187 35.968 Q308.514 36.8331 306.482 36.8331 Q302.269 36.8331 299.806 34.2941 Q297.361 31.7362 297.361 27.3164 Q297.361 22.9906 299.918 20.3763 Q302.476 17.7621 306.727 17.7621 Q311.598 17.7621 314.156 21.5048 Q316.733 25.2288 316.733 32.3381 Q316.733 38.9772 313.573 42.9457 Q310.432 46.8953 305.109 46.8953 Q303.68 46.8953 302.213 46.6132 Q300.746 46.3311 299.166 45.7668 M306.727 33.8615 Q309.285 33.8615 310.771 32.1124 Q312.275 30.3633 312.275 27.3164 Q312.275 24.2884 310.771 22.5392 Q309.285 20.7713 306.727 20.7713 Q304.169 20.7713 302.664 22.5392 Q301.179 24.2884 301.179 27.3164 Q301.179 30.3633 302.664 32.1124 Q304.169 33.8615 306.727 33.8615 Z" fill="#000000" fill-rule="nonzero" fill-opacity="1" /><path clip-path="url(#clip980)" d="M-9.64527 840.632 L0.4762 840.632 L0.4762 828.569 L5.02768 828.569 L5.02768 840.632 L24.3794 840.632 Q28.7399 840.632 29.9813 839.454 Q31.2226 838.245 31.2226 834.584 L31.2226 828.569 L36.1242 828.569 L36.1242 834.584 Q36.1242 841.364 33.6097 843.942 Q31.0634 846.52 24.3794 846.52 L5.02768 846.52 L5.02768 850.817 L0.4762 850.817 L0.4762 846.52 L-9.64527 846.52 L-9.64527 840.632 Z" fill="#000000" fill-rule="nonzero" fill-opacity="1" /><path clip-path="url(#clip980)" d="M-11.3958 789.738 L-11.3958 784.327 L42.1716 800.878 L42.1716 806.289 L-11.3958 789.738 Z" fill="#000000" fill-rule="nonzero" fill-opacity="1" /><path clip-path="url(#clip980)" d="M14.6081 727.831 L36.1242 727.831 L36.1242 733.688 L14.799 733.688 Q9.7383 733.688 7.22385 735.661 Q4.7094 737.635 4.7094 741.581 Q4.7094 746.324 7.73311 749.061 Q10.7568 751.798 15.9767 751.798 L36.1242 751.798 L36.1242 757.687 L0.4762 757.687 L0.4762 751.798 L6.01437 751.798 Q2.79968 749.698 1.20826 746.865 Q-0.38317 744 -0.38317 740.276 Q-0.38317 734.133 3.43625 730.982 Q7.22385 727.831 14.6081 727.831 Z" fill="#000000" fill-rule="nonzero" fill-opacity="1" /><path clip-path="url(#clip980)" d="M1.52654 693.425 L7.06471 693.425 Q5.79157 695.907 5.15499 698.581 Q4.51842 701.255 4.51842 704.119 Q4.51842 708.48 5.85522 710.676 Q7.19202 712.84 9.86562 712.84 Q11.9026 712.84 13.0803 711.281 Q14.2261 709.721 15.2765 705.01 L15.7221 703.005 Q17.0589 696.767 19.5097 694.157 Q21.9286 691.515 26.2891 691.515 Q31.2544 691.515 34.1508 695.462 Q37.0472 699.377 37.0472 706.252 Q37.0472 709.116 36.4743 712.235 Q35.9332 715.323 34.8192 718.76 L28.7718 718.76 Q30.4587 715.514 31.318 712.363 Q32.1456 709.212 32.1456 706.124 Q32.1456 701.987 30.7451 699.759 Q29.3129 697.531 26.7347 697.531 Q24.3476 697.531 23.0745 699.154 Q21.8013 700.745 20.6237 706.188 L20.1462 708.225 Q19.0004 713.668 16.6451 716.087 Q14.258 718.506 10.1202 718.506 Q5.09134 718.506 2.35408 714.941 Q-0.38317 711.376 -0.38317 704.819 Q-0.38317 701.573 0.0942579 698.708 Q0.571686 695.844 1.52654 693.425 Z" fill="#000000" fill-rule="nonzero" fill-opacity="1" /><path clip-path="url(#clip982)" d="M1017.03 1454.11 L1021 1442.17 L1024.12 1430.22 L1026.35 1418.28 L1027.7 1406.33 L1028.13 1394.38 L1027.66 1382.44 L1026.28 1370.49 L1024.02 1358.55 L1020.91 1346.6 L1016.97 1334.66 L1012.26 1322.71 L1006.81 1310.77 L1000.7 1298.82 L993.976 1286.88 L986.717 1274.93 L978.993 1262.99 L970.881 1251.04 L962.461 1239.1 L953.815 1227.15 L945.024 1215.2 L936.17 1203.26 L927.334 1191.31 L918.593 1179.37 L910.022 1167.42 L901.695 1155.48 L893.678 1143.53 L886.034 1131.59 L878.819 1119.64 L872.084 1107.7 L865.874 1095.75 L860.228 1083.81 L855.175 1071.86 L850.739 1059.91 L846.939 1047.97 L843.782 1036.02 L841.272 1024.08 L839.404 1012.13 L838.168 1000.19 L837.544 988.243 L837.51 976.298 L838.034 964.352 L839.082 952.407 L840.612 940.462 L842.579 928.516 L844.934 916.571 L847.624 904.626 L850.592 892.68 L853.781 880.735 L857.13 868.79 L860.578 856.844 L864.065 844.899 L867.529 832.953 L870.911 821.008 L874.154 809.063 L877.202 797.117 L880.004 785.172 L882.511 773.227 L884.68 761.281 L886.473 749.336 L887.855 737.391 L888.8 725.445 L889.284 713.5 L889.294 701.555 L582.475 701.555 L582.485 713.5 L582.97 725.445 L583.914 737.391 L585.296 749.336 L587.089 761.281 L589.258 773.227 L591.765 785.172 L594.567 797.117 L597.615 809.063 L600.858 821.008 L604.24 832.953 L607.704 844.899 L611.191 856.844 L614.639 868.79 L617.988 880.735 L621.177 892.68 L624.145 904.626 L626.835 916.571 L629.19 928.516 L631.157 940.462 L632.687 952.407 L633.735 964.352 L634.26 976.298 L634.225 988.243 L633.601 1000.19 L632.365 1012.13 L630.497 1024.08 L627.987 1036.02 L624.83 1047.97 L621.03 1059.91 L616.594 1071.86 L611.541 1083.81 L605.895 1095.75 L599.685 1107.7 L592.95 1119.64 L585.735 1131.59 L578.091 1143.53 L570.074 1155.48 L561.747 1167.42 L553.177 1179.37 L544.435 1191.31 L535.599 1203.26 L526.745 1215.2 L517.954 1227.15 L509.308 1239.1 L500.888 1251.04 L492.776 1262.99 L485.052 1274.93 L477.793 1286.88 L471.071 1298.82 L464.957 1310.77 L459.514 1322.71 L454.798 1334.66 L450.862 1346.6 L447.747 1358.55 L445.489 1370.49 L444.114 1382.44 L443.639 1394.38 L444.073 1406.33 L445.414 1418.28 L447.654 1430.22 L450.773 1442.17 L454.744 1454.11 L1017.03 1454.11  Z" fill="#009af9" fill-rule="evenodd" fill-opacity="1"/>
<polyline clip-path="url(#clip982)" style="stroke:#000000; stroke-linecap:round; stroke-linejoin:round; stroke-width:4; stroke-opacity:1; fill:none" points="1017.03,1454.11 1021,1442.17 1024.12,1430.22 1026.35,1418.28 1027.7,1406.33 1028.13,1394.38 1027.66,1382.44 1026.28,1370.49 1024.02,1358.55 1020.91,1346.6 1016.97,1334.66 1012.26,1322.71 1006.81,1310.77 1000.7,1298.82 993.976,1286.88 986.717,1274.93 978.993,1262.99 970.881,1251.04 962.461,1239.1 953.815,1227.15 945.024,1215.2 936.17,1203.26 927.334,1191.31 918.593,1179.37 910.022,1167.42 901.695,1155.48 893.678,1143.53 886.034,1131.59 878.819,1119.64 872.084,1107.7 865.874,1095.75 860.228,1083.81 855.175,1071.86 850.739,1059.91 846.939,1047.97 843.782,1036.02 841.272,1024.08 839.404,1012.13 838.168,1000.19 837.544,988.243 837.51,976.298 838.034,964.352 839.082,952.407 840.612,940.462 842.579,928.516 844.934,916.571 847.624,904.626 850.592,892.68 853.781,880.735 857.13,868.79 860.578,856.844 864.065,844.899 867.529,832.953 870.911,821.008 874.154,809.063 877.202,797.117 880.004,785.172 882.511,773.227 884.68,761.281 886.473,749.336 887.855,737.391 888.8,725.445 889.284,713.5 889.294,701.555 582.475,701.555 582.485,713.5 582.97,725.445 583.914,737.391 585.296,749.336 587.089,761.281 589.258,773.227 591.765,785.172 594.567,797.117 597.615,809.063 600.858,821.008 604.24,832.953 607.704,844.899 611.191,856.844 614.639,868.79 617.988,880.735 621.177,892.68 624.145,904.626 626.835,916.571 629.19,928.516 631.157,940.462 632.687,952.407 633.735,964.352 634.26,976.298 634.225,988.243 633.601,1000.19 632.365,1012.13 630.497,1024.08 627.987,1036.02 624.83,1047.97 621.03,1059.91 616.594,1071.86 611.541,1083.81 605.895,1095.75 599.685,1107.7 592.95,1119.64 585.735,1131.59 578.091,1143.53 570.074,1155.48 561.747,1167.42 553.177,1179.37 544.435,1191.31 535.599,1203.26 526.745,1215.2 517.954,1227.15 509.308,1239.1 500.888,1251.04 492.776,1262.99 485.052,1274.93 477.793,1286.88 471.071,1298.82 464.957,1310.77 459.514,1322.71 454.798,1334.66 450.862,1346.6 447.747,1358.55 445.489,1370.49 444.114,1382.44 443.639,1394.38 444.073,1406.33 445.414,1418.28 447.654,1430.22 450.773,1442.17 454.744,1454.11 1017.03,1454.11 "/>
<path clip-path="url(#clip982)" d="M2050.99 847.68 L2050.41 834.808 L2048.92 821.936 L2046.54 809.063 L2043.3 796.191 L2039.25 783.319 L2034.43 770.447 L2028.9 757.575 L2022.73 744.703 L2016 731.83 L2008.79 718.958 L2001.17 706.086 L1993.24 693.214 L1985.09 680.342 L1976.81 667.469 L1968.5 654.597 L1960.24 641.725 L1952.13 628.853 L1944.26 615.981 L1936.71 603.108 L1929.57 590.236 L1922.91 577.364 L1916.8 564.492 L1911.31 551.62 L1906.49 538.747 L1902.39 525.875 L1899.07 513.003 L1896.54 500.131 L1894.84 487.259 L1893.99 474.387 L1893.99 461.514 L1894.84 448.642 L1896.54 435.77 L1899.07 422.898 L1902.39 410.026 L1906.49 397.153 L1911.31 384.281 L1916.8 371.409 L1922.91 358.537 L1929.57 345.665 L1936.71 332.792 L1944.26 319.92 L1952.13 307.048 L1960.24 294.176 L1968.5 281.304 L1976.81 268.431 L1985.09 255.559 L1993.24 242.687 L2001.17 229.815 L2008.79 216.943 L2016 204.071 L2022.73 191.198 L2028.9 178.326 L2034.43 165.454 L2039.25 152.582 L2043.3 139.71 L2046.54 126.837 L2048.92 113.965 L2050.41 101.093 L2050.99 88.2208 L1466.5 88.2208 L1467.07 101.093 L1468.57 113.965 L1470.95 126.837 L1474.19 139.71 L1478.24 152.582 L1483.06 165.454 L1488.59 178.326 L1494.75 191.198 L1501.49 204.071 L1508.7 216.943 L1516.32 229.815 L1524.25 242.687 L1532.4 255.559 L1540.68 268.431 L1548.99 281.304 L1557.25 294.176 L1565.36 307.048 L1573.23 319.92 L1580.78 332.792 L1587.92 345.665 L1594.58 358.537 L1600.69 371.409 L1606.18 384.281 L1611 397.153 L1615.09 410.026 L1618.42 422.898 L1620.95 435.77 L1622.64 448.642 L1623.5 461.514 L1623.5 474.387 L1622.64 487.259 L1620.95 500.131 L1618.42 513.003 L1615.09 525.875 L1611 538.747 L1606.18 551.62 L1600.69 564.492 L1594.58 577.364 L1587.92 590.236 L1580.78 603.108 L1573.23 615.981 L1565.36 628.853 L1557.25 641.725 L1548.99 654.597 L1540.68 667.469 L1532.4 680.342 L1524.25 693.214 L1516.32 706.086 L1508.7 718.958 L1501.49 731.83 L1494.75 744.703 L1488.59 757.575 L1483.06 770.447 L1478.24 783.319 L1474.19 796.191 L1470.95 809.063 L1468.57 821.936 L1467.07 834.808 L1466.5 847.68 L2050.99 847.68  Z" fill="#3da44d" fill-rule="evenodd" fill-opacity="1"/>
<polyline clip-path="url(#clip982)" style="stroke:#000000; stroke-linecap:round; stroke-linejoin:round; stroke-width:4; stroke-opacity:1; fill:none" points="2050.99,847.68 2050.41,834.808 2048.92,821.936 2046.54,809.063 2043.3,796.191 2039.25,783.319 2034.43,770.447 2028.9,757.575 2022.73,744.703 2016,731.83 2008.79,718.958 2001.17,706.086 1993.24,693.214 1985.09,680.342 1976.81,667.469 1968.5,654.597 1960.24,641.725 1952.13,628.853 1944.26,615.981 1936.71,603.108 1929.57,590.236 1922.91,577.364 1916.8,564.492 1911.31,551.62 1906.49,538.747 1902.39,525.875 1899.07,513.003 1896.54,500.131 1894.84,487.259 1893.99,474.387 1893.99,461.514 1894.84,448.642 1896.54,435.77 1899.07,422.898 1902.39,410.026 1906.49,397.153 1911.31,384.281 1916.8,371.409 1922.91,358.537 1929.57,345.665 1936.71,332.792 1944.26,319.92 1952.13,307.048 1960.24,294.176 1968.5,281.304 1976.81,268.431 1985.09,255.559 1993.24,242.687 2001.17,229.815 2008.79,216.943 2016,204.071 2022.73,191.198 2028.9,178.326 2034.43,165.454 2039.25,152.582 2043.3,139.71 2046.54,126.837 2048.92,113.965 2050.41,101.093 2050.99,88.2208 1466.5,88.2208 1467.07,101.093 1468.57,113.965 1470.95,126.837 1474.19,139.71 1478.24,152.582 1483.06,165.454 1488.59,178.326 1494.75,191.198 1501.49,204.071 1508.7,216.943 1516.32,229.815 1524.25,242.687 1532.4,255.559 1540.68,268.431 1548.99,281.304 1557.25,294.176 1565.36,307.048 1573.23,319.92 1580.78,332.792 1587.92,345.665 1594.58,358.537 1600.69,371.409 1606.18,384.281 1611,397.153 1615.09,410.026 1618.42,422.898 1620.95,435.77 1622.64,448.642 1623.5,461.514 1623.5,474.387 1622.64,487.259 1620.95,500.131 1618.42,513.003 1615.09,525.875 1611,538.747 1606.18,551.62 1600.69,564.492 1594.58,577.364 1587.92,590.236 1580.78,603.108 1573.23,615.981 1565.36,628.853 1557.25,641.725 1548.99,654.597 1540.68,667.469 1532.4,680.342 1524.25,693.214 1516.32,706.086 1508.7,718.958 1501.49,731.83 1494.75,744.703 1488.59,757.575 1483.06,770.447 1478.24,783.319 1474.19,796.191 1470.95,809.063 1468.57,821.936 1467.07,834.808 1466.5,847.68 2050.99,847.68 "/>
<path clip-path="url(#clip982)" d="M3073.85 734.406 L3073.27 724.648 L3071.78 714.889 L3069.4 705.13 L3066.16 695.371 L3062.11 685.612 L3057.29 675.853 L3051.76 666.095 L3045.59 656.336 L3038.86 646.577 L3031.65 636.818 L3024.03 627.059 L3016.1 617.3 L3007.95 607.542 L2999.67 597.783 L2991.36 588.024 L2983.1 578.265 L2974.99 568.506 L2967.12 558.747 L2959.57 548.989 L2952.43 539.23 L2945.77 529.471 L2939.66 519.712 L2934.17 509.953 L2929.35 500.195 L2925.25 490.436 L2921.93 480.677 L2919.4 470.918 L2917.7 461.159 L2916.85 451.4 L2916.85 441.642 L2917.7 431.883 L2919.4 422.124 L2921.93 412.365 L2925.25 402.606 L2929.35 392.847 L2934.17 383.089 L2939.66 373.33 L2945.77 363.571 L2952.43 353.812 L2959.57 344.053 L2967.12 334.294 L2974.99 324.536 L2983.1 314.777 L2991.36 305.018 L2999.67 295.259 L3007.95 285.5 L3016.1 275.741 L3024.03 265.983 L3031.65 256.224 L3038.86 246.465 L3045.59 236.706 L3051.76 226.947 L3057.29 217.189 L3062.11 207.43 L3066.16 197.671 L3069.4 187.912 L3071.78 178.153 L3073.27 168.394 L3073.85 158.636 L2489.36 158.636 L2489.93 168.394 L2491.42 178.153 L2493.81 187.912 L2497.05 197.671 L2501.1 207.43 L2505.92 217.189 L2511.45 226.947 L2517.61 236.706 L2524.34 246.465 L2531.56 256.224 L2539.18 265.983 L2547.11 275.741 L2555.26 285.5 L2563.54 295.259 L2571.85 305.018 L2580.11 314.777 L2588.22 324.536 L2596.09 334.294 L2603.64 344.053 L2610.78 353.812 L2617.44 363.571 L2623.55 373.33 L2629.04 383.089 L2633.86 392.847 L2637.95 402.606 L2641.28 412.365 L2643.81 422.124 L2645.5 431.883 L2646.36 441.642 L2646.36 451.4 L2645.5 461.159 L2643.81 470.918 L2641.28 480.677 L2637.95 490.436 L2633.86 500.195 L2629.04 509.953 L2623.55 519.712 L2617.44 529.471 L2610.78 539.23 L2603.64 548.989 L2596.09 558.747 L2588.22 568.506 L2580.11 578.265 L2571.85 588.024 L2563.54 597.783 L2555.26 607.542 L2547.11 617.3 L2539.18 627.059 L2531.56 636.818 L2524.34 646.577 L2517.61 656.336 L2511.45 666.095 L2505.92 675.853 L2501.1 685.612 L2497.05 695.371 L2493.81 705.13 L2491.42 714.889 L2489.93 724.648 L2489.36 734.406 L3073.85 734.406  Z" fill="#00a9ad" fill-rule="evenodd" fill-opacity="1"/>
<polyline clip-path="url(#clip982)" style="stroke:#000000; stroke-linecap:round; stroke-linejoin:round; stroke-width:4; stroke-opacity:1; fill:none" points="3073.85,734.406 3073.27,724.648 3071.78,714.889 3069.4,705.13 3066.16,695.371 3062.11,685.612 3057.29,675.853 3051.76,666.095 3045.59,656.336 3038.86,646.577 3031.65,636.818 3024.03,627.059 3016.1,617.3 3007.95,607.542 2999.67,597.783 2991.36,588.024 2983.1,578.265 2974.99,568.506 2967.12,558.747 2959.57,548.989 2952.43,539.23 2945.77,529.471 2939.66,519.712 2934.17,509.953 2929.35,500.195 2925.25,490.436 2921.93,480.677 2919.4,470.918 2917.7,461.159 2916.85,451.4 2916.85,441.642 2917.7,431.883 2919.4,422.124 2921.93,412.365 2925.25,402.606 2929.35,392.847 2934.17,383.089 2939.66,373.33 2945.77,363.571 2952.43,353.812 2959.57,344.053 2967.12,334.294 2974.99,324.536 2983.1,314.777 2991.36,305.018 2999.67,295.259 3007.95,285.5 3016.1,275.741 3024.03,265.983 3031.65,256.224 3038.86,246.465 3045.59,236.706 3051.76,226.947 3057.29,217.189 3062.11,207.43 3066.16,197.671 3069.4,187.912 3071.78,178.153 3073.27,168.394 3073.85,158.636 2489.36,158.636 2489.93,168.394 2491.42,178.153 2493.81,187.912 2497.05,197.671 2501.1,207.43 2505.92,217.189 2511.45,226.947 2517.61,236.706 2524.34,246.465 2531.56,256.224 2539.18,265.983 2547.11,275.741 2555.26,285.5 2563.54,295.259 2571.85,305.018 2580.11,314.777 2588.22,324.536 2596.09,334.294 2603.64,344.053 2610.78,353.812 2617.44,363.571 2623.55,373.33 2629.04,383.089 2633.86,392.847 2637.95,402.606 2641.28,412.365 2643.81,422.124 2645.5,431.883 2646.36,441.642 2646.36,451.4 2645.5,461.159 2643.81,470.918 2641.28,480.677 2637.95,490.436 2633.86,500.195 2629.04,509.953 2623.55,519.712 2617.44,529.471 2610.78,539.23 2603.64,548.989 2596.09,558.747 2588.22,568.506 2580.11,578.265 2571.85,588.024 2563.54,597.783 2555.26,607.542 2547.11,617.3 2539.18,627.059 2531.56,636.818 2524.34,646.577 2517.61,656.336 2511.45,666.095 2505.92,675.853 2501.1,685.612 2497.05,695.371 2493.81,705.13 2491.42,714.889 2489.93,724.648 2489.36,734.406 3073.85,734.406 "/>
</svg>
