<?xml version="1.0" encoding="utf-8"?>
<svg xmlns="http://www.w3.org/2000/svg" xmlns:xlink="http://www.w3.org/1999/xlink" width="800" height="400" viewBox="0 0 3200 1600">
<defs>
  <clipPath id="clip030">
    <rect x="0" y="0" width="3200" height="1600"/>
  </clipPath>
</defs>
<path clip-path="url(#clip030)" d="M0 1600 L3200 1600 L3200 0 L0 0  Z" fill="#ffffff" fill-rule="evenodd" fill-opacity="1"/>
<defs>
  <clipPath id="clip031">
    <rect x="364" y="47" width="2789" height="1449"/>
  </clipPath>
</defs>
<path clip-path="url(#clip030)" d="M364.733 1495.09 L3152.76 1495.09 L3152.76 47.2441 L364.733 47.2441  Z" fill="#ffffff" fill-rule="evenodd" fill-opacity="1"/>
<polyline clip-path="url(#clip031)" style="stroke:#000000; stroke-linecap:round; stroke-linejoin:round; stroke-width:2; stroke-opacity:0.1; fill:none" points="735.885,1495.09 735.885,47.2441 "/>
<polyline clip-path="url(#clip031)" style="stroke:#000000; stroke-linecap:round; stroke-linejoin:round; stroke-width:2; stroke-opacity:0.1; fill:none" points="1758.74,1495.09 1758.74,47.2441 "/>
<polyline clip-path="url(#clip031)" style="stroke:#000000; stroke-linecap:round; stroke-linejoin:round; stroke-width:2; stroke-opacity:0.1; fill:none" points="2781.6,1495.09 2781.6,47.2441 "/>
<polyline clip-path="url(#clip031)" style="stroke:#000000; stroke-linecap:round; stroke-linejoin:round; stroke-width:2; stroke-opacity:0.1; fill:none" points="364.733,1387.19 3152.76,1387.19 "/>
<polyline clip-path="url(#clip031)" style="stroke:#000000; stroke-linecap:round; stroke-linejoin:round; stroke-width:2; stroke-opacity:0.1; fill:none" points="364.733,1141.15 3152.76,1141.15 "/>
<polyline clip-path="url(#clip031)" style="stroke:#000000; stroke-linecap:round; stroke-linejoin:round; stroke-width:2; stroke-opacity:0.1; fill:none" points="364.733,895.122 3152.76,895.122 "/>
<polyline clip-path="url(#clip031)" style="stroke:#000000; stroke-linecap:round; stroke-linejoin:round; stroke-width:2; stroke-opacity:0.1; fill:none" points="364.733,649.09 3152.76,649.09 "/>
<polyline clip-path="url(#clip031)" style="stroke:#000000; stroke-linecap:round; stroke-linejoin:round; stroke-width:2; stroke-opacity:0.1; fill:none" points="364.733,403.057 3152.76,403.057 "/>
<polyline clip-path="url(#clip031)" style="stroke:#000000; stroke-linecap:round; stroke-linejoin:round; stroke-width:2; stroke-opacity:0.1; fill:none" points="364.733,157.025 3152.76,157.025 "/>
<polyline clip-path="url(#clip030)" style="stroke:#000000; stroke-linecap:round; stroke-linejoin:round; stroke-width:4; stroke-opacity:1; fill:none" points="364.733,1495.09 3152.76,1495.09 "/>
<polyline clip-path="url(#clip030)" style="stroke:#000000; stroke-linecap:round; stroke-linejoin:round; stroke-width:4; stroke-opacity:1; fill:none" points="735.885,1495.09 735.885,1476.19 "/>
<polyline clip-path="url(#clip030)" style="stroke:#000000; stroke-linecap:round; stroke-linejoin:round; stroke-width:4; stroke-opacity:1; fill:none" points="1758.74,1495.09 1758.74,1476.19 "/>
<polyline clip-path="url(#clip030)" style="stroke:#000000; stroke-linecap:round; stroke-linejoin:round; stroke-width:4; stroke-opacity:1; fill:none" points="2781.6,1495.09 2781.6,1476.19 "/>
<path clip-path="url(#clip030)" d="M651.846 1538.73 L651.846 1542.75 Q650.04 1541.83 648.096 1541.36 Q646.151 1540.9 644.068 1540.9 Q640.897 1540.9 639.299 1541.87 Q637.725 1542.85 637.725 1544.79 Q637.725 1546.27 638.86 1547.13 Q639.994 1547.96 643.42 1548.73 L644.878 1549.05 Q649.415 1550.02 651.313 1551.8 Q653.235 1553.56 653.235 1556.74 Q653.235 1560.35 650.364 1562.45 Q647.517 1564.56 642.517 1564.56 Q640.434 1564.56 638.165 1564.14 Q635.92 1563.75 633.42 1562.94 L633.42 1558.54 Q635.781 1559.77 638.073 1560.39 Q640.364 1560.99 642.61 1560.99 Q645.619 1560.99 647.239 1559.98 Q648.86 1558.93 648.86 1557.06 Q648.86 1555.32 647.679 1554.4 Q646.522 1553.47 642.563 1552.61 L641.082 1552.27 Q637.123 1551.43 635.364 1549.72 Q633.605 1547.99 633.605 1544.98 Q633.605 1541.32 636.198 1539.33 Q638.79 1537.34 643.559 1537.34 Q645.92 1537.34 648.003 1537.68 Q650.086 1538.03 651.846 1538.73 Z" fill="#000000" fill-rule="nonzero" fill-opacity="1" /><path clip-path="url(#clip030)" d="M670.804 1566.3 Q668.998 1570.92 667.285 1572.34 Q665.572 1573.75 662.702 1573.75 L659.299 1573.75 L659.299 1570.18 L661.799 1570.18 Q663.559 1570.18 664.531 1569.35 Q665.503 1568.52 666.684 1565.42 L667.447 1563.47 L656.961 1537.96 L661.475 1537.96 L669.577 1558.24 L677.679 1537.96 L682.193 1537.96 L670.804 1566.3 Z" fill="#000000" fill-rule="nonzero" fill-opacity="1" /><path clip-path="url(#clip030)" d="M708.257 1542.94 Q709.855 1540.07 712.077 1538.7 Q714.299 1537.34 717.308 1537.34 Q721.359 1537.34 723.558 1540.18 Q725.757 1543.01 725.757 1548.24 L725.757 1563.89 L721.475 1563.89 L721.475 1548.38 Q721.475 1544.65 720.155 1542.85 Q718.836 1541.04 716.128 1541.04 Q712.818 1541.04 710.896 1543.24 Q708.975 1545.44 708.975 1549.24 L708.975 1563.89 L704.693 1563.89 L704.693 1548.38 Q704.693 1544.63 703.373 1542.85 Q702.054 1541.04 699.299 1541.04 Q696.035 1541.04 694.114 1543.26 Q692.193 1545.46 692.193 1549.24 L692.193 1563.89 L687.91 1563.89 L687.91 1537.96 L692.193 1537.96 L692.193 1541.99 Q693.651 1539.61 695.688 1538.47 Q697.725 1537.34 700.526 1537.34 Q703.35 1537.34 705.318 1538.77 Q707.308 1540.21 708.257 1542.94 Z" fill="#000000" fill-rule="nonzero" fill-opacity="1" /><path clip-path="url(#clip030)" d="M752.864 1550.95 Q752.864 1546.25 750.919 1543.59 Q748.998 1540.9 745.618 1540.9 Q742.239 1540.9 740.294 1543.59 Q738.373 1546.25 738.373 1550.95 Q738.373 1555.65 740.294 1558.33 Q742.239 1560.99 745.618 1560.99 Q748.998 1560.99 750.919 1558.33 Q752.864 1555.65 752.864 1550.95 M738.373 1541.9 Q739.716 1539.58 741.753 1538.47 Q743.813 1537.34 746.66 1537.34 Q751.382 1537.34 754.322 1541.09 Q757.285 1544.84 757.285 1550.95 Q757.285 1557.06 754.322 1560.81 Q751.382 1564.56 746.66 1564.56 Q743.813 1564.56 741.753 1563.45 Q739.716 1562.31 738.373 1560 L738.373 1563.89 L734.091 1563.89 L734.091 1527.87 L738.373 1527.87 L738.373 1541.9 Z" fill="#000000" fill-rule="nonzero" fill-opacity="1" /><path clip-path="url(#clip030)" d="M774.391 1540.95 Q770.965 1540.95 768.975 1543.63 Q766.984 1546.3 766.984 1550.95 Q766.984 1555.6 768.951 1558.29 Q770.942 1560.95 774.391 1560.95 Q777.794 1560.95 779.785 1558.26 Q781.775 1555.58 781.775 1550.95 Q781.775 1546.34 779.785 1543.66 Q777.794 1540.95 774.391 1540.95 M774.391 1537.34 Q779.947 1537.34 783.118 1540.95 Q786.289 1544.56 786.289 1550.95 Q786.289 1557.31 783.118 1560.95 Q779.947 1564.56 774.391 1564.56 Q768.813 1564.56 765.641 1560.95 Q762.493 1557.31 762.493 1550.95 Q762.493 1544.56 765.641 1540.95 Q768.813 1537.34 774.391 1537.34 Z" fill="#000000" fill-rule="nonzero" fill-opacity="1" /><path clip-path="url(#clip030)" d="M793.349 1527.87 L797.609 1527.87 L797.609 1563.89 L793.349 1563.89 L793.349 1527.87 Z" fill="#000000" fill-rule="nonzero" fill-opacity="1" /><path clip-path="url(#clip030)" d="M806.521 1537.96 L810.78 1537.96 L810.78 1563.89 L806.521 1563.89 L806.521 1537.96 M806.521 1527.87 L810.78 1527.87 L810.78 1533.26 L806.521 1533.26 L806.521 1527.87 Z" fill="#000000" fill-rule="nonzero" fill-opacity="1" /><path clip-path="url(#clip030)" d="M838.349 1538.96 L838.349 1542.94 Q836.544 1541.94 834.715 1541.46 Q832.909 1540.95 831.058 1540.95 Q826.914 1540.95 824.622 1543.59 Q822.331 1546.2 822.331 1550.95 Q822.331 1555.69 824.622 1558.33 Q826.914 1560.95 831.058 1560.95 Q832.909 1560.95 834.715 1560.46 Q836.544 1559.95 838.349 1558.96 L838.349 1562.89 Q836.567 1563.73 834.646 1564.14 Q832.747 1564.56 830.595 1564.56 Q824.738 1564.56 821.289 1560.88 Q817.84 1557.2 817.84 1550.95 Q817.84 1544.61 821.312 1540.97 Q824.808 1537.34 830.872 1537.34 Q832.84 1537.34 834.715 1537.75 Q836.59 1538.15 838.349 1538.96 Z" fill="#000000" fill-rule="nonzero" fill-opacity="1" /><path clip-path="url(#clip030)" d="M1669.07 1527.87 L1669.07 1531.41 L1664.99 1531.41 Q1662.7 1531.41 1661.8 1532.34 Q1660.92 1533.26 1660.92 1535.67 L1660.92 1537.96 L1667.93 1537.96 L1667.93 1541.27 L1660.92 1541.27 L1660.92 1563.89 L1656.64 1563.89 L1656.64 1541.27 L1652.56 1541.27 L1652.56 1537.96 L1656.64 1537.96 L1656.64 1536.16 Q1656.64 1531.83 1658.65 1529.86 Q1660.67 1527.87 1665.04 1527.87 L1669.07 1527.87 Z" fill="#000000" fill-rule="nonzero" fill-opacity="1" /><path clip-path="url(#clip030)" d="M1672.63 1537.96 L1676.89 1537.96 L1676.89 1563.89 L1672.63 1563.89 L1672.63 1537.96 M1672.63 1527.87 L1676.89 1527.87 L1676.89 1533.26 L1672.63 1533.26 L1672.63 1527.87 Z" fill="#000000" fill-rule="nonzero" fill-opacity="1" /><path clip-path="url(#clip030)" d="M1707.36 1548.24 L1707.36 1563.89 L1703.1 1563.89 L1703.1 1548.38 Q1703.1 1544.7 1701.66 1542.87 Q1700.23 1541.04 1697.36 1541.04 Q1693.91 1541.04 1691.92 1543.24 Q1689.93 1545.44 1689.93 1549.24 L1689.93 1563.89 L1685.64 1563.89 L1685.64 1537.96 L1689.93 1537.96 L1689.93 1541.99 Q1691.45 1539.65 1693.51 1538.49 Q1695.6 1537.34 1698.3 1537.34 Q1702.77 1537.34 1705.06 1540.11 Q1707.36 1542.87 1707.36 1548.24 Z" fill="#000000" fill-rule="nonzero" fill-opacity="1" /><path clip-path="url(#clip030)" d="M1715.85 1537.96 L1720.11 1537.96 L1720.11 1563.89 L1715.85 1563.89 L1715.85 1537.96 M1715.85 1527.87 L1720.11 1527.87 L1720.11 1533.26 L1715.85 1533.26 L1715.85 1527.87 Z" fill="#000000" fill-rule="nonzero" fill-opacity="1" /><path clip-path="url(#clip030)" d="M1733.24 1530.6 L1733.24 1537.96 L1742.01 1537.96 L1742.01 1541.27 L1733.24 1541.27 L1733.24 1555.35 Q1733.24 1558.52 1734.09 1559.42 Q1734.97 1560.32 1737.63 1560.32 L1742.01 1560.32 L1742.01 1563.89 L1737.63 1563.89 Q1732.7 1563.89 1730.83 1562.06 Q1728.95 1560.21 1728.95 1555.35 L1728.95 1541.27 L1725.83 1541.27 L1725.83 1537.96 L1728.95 1537.96 L1728.95 1530.6 L1733.24 1530.6 Z" fill="#000000" fill-rule="nonzero" fill-opacity="1" /><path clip-path="url(#clip030)" d="M1769.79 1549.86 L1769.79 1551.94 L1750.2 1551.94 Q1750.48 1556.34 1752.84 1558.66 Q1755.23 1560.95 1759.46 1560.95 Q1761.92 1560.95 1764.21 1560.35 Q1766.52 1559.74 1768.79 1558.54 L1768.79 1562.57 Q1766.5 1563.54 1764.09 1564.05 Q1761.68 1564.56 1759.21 1564.56 Q1753 1564.56 1749.37 1560.95 Q1745.76 1557.34 1745.76 1551.18 Q1745.76 1544.81 1749.18 1541.09 Q1752.63 1537.34 1758.47 1537.34 Q1763.7 1537.34 1766.73 1540.72 Q1769.79 1544.07 1769.79 1549.86 M1765.53 1548.61 Q1765.48 1545.11 1763.56 1543.03 Q1761.66 1540.95 1758.51 1540.95 Q1754.95 1540.95 1752.8 1542.96 Q1750.67 1544.98 1750.34 1548.63 L1765.53 1548.61 Z" fill="#000000" fill-rule="nonzero" fill-opacity="1" /><path clip-path="url(#clip030)" d="M1808.91 1541.9 L1808.91 1527.87 L1813.17 1527.87 L1813.17 1563.89 L1808.91 1563.89 L1808.91 1560 Q1807.56 1562.31 1805.5 1563.45 Q1803.47 1564.56 1800.6 1564.56 Q1795.9 1564.56 1792.93 1560.81 Q1789.99 1557.06 1789.99 1550.95 Q1789.99 1544.84 1792.93 1541.09 Q1795.9 1537.34 1800.6 1537.34 Q1803.47 1537.34 1805.5 1538.47 Q1807.56 1539.58 1808.91 1541.9 M1794.39 1550.95 Q1794.39 1555.65 1796.31 1558.33 Q1798.26 1560.99 1801.64 1560.99 Q1805.02 1560.99 1806.96 1558.33 Q1808.91 1555.65 1808.91 1550.95 Q1808.91 1546.25 1806.96 1543.59 Q1805.02 1540.9 1801.64 1540.9 Q1798.26 1540.9 1796.31 1543.59 Q1794.39 1546.25 1794.39 1550.95 Z" fill="#000000" fill-rule="nonzero" fill-opacity="1" /><path clip-path="url(#clip030)" d="M1821.94 1537.96 L1826.2 1537.96 L1826.2 1563.89 L1821.94 1563.89 L1821.94 1537.96 M1821.94 1527.87 L1826.2 1527.87 L1826.2 1533.26 L1821.94 1533.26 L1821.94 1527.87 Z" fill="#000000" fill-rule="nonzero" fill-opacity="1" /><path clip-path="url(#clip030)" d="M1848.23 1527.87 L1848.23 1531.41 L1844.16 1531.41 Q1841.87 1531.41 1840.97 1532.34 Q1840.09 1533.26 1840.09 1535.67 L1840.09 1537.96 L1847.1 1537.96 L1847.1 1541.27 L1840.09 1541.27 L1840.09 1563.89 L1835.8 1563.89 L1835.8 1541.27 L1831.73 1541.27 L1831.73 1537.96 L1835.8 1537.96 L1835.8 1536.16 Q1835.8 1531.83 1837.82 1529.86 Q1839.83 1527.87 1844.21 1527.87 L1848.23 1527.87 Z" fill="#000000" fill-rule="nonzero" fill-opacity="1" /><path clip-path="url(#clip030)" d="M1864.92 1527.87 L1864.92 1531.41 L1860.85 1531.41 Q1858.56 1531.41 1857.66 1532.34 Q1856.78 1533.26 1856.78 1535.67 L1856.78 1537.96 L1863.79 1537.96 L1863.79 1541.27 L1856.78 1541.27 L1856.78 1563.89 L1852.49 1563.89 L1852.49 1541.27 L1848.42 1541.27 L1848.42 1537.96 L1852.49 1537.96 L1852.49 1536.16 Q1852.49 1531.83 1854.51 1529.86 Q1856.52 1527.87 1860.9 1527.87 L1864.92 1527.87 Z" fill="#000000" fill-rule="nonzero" fill-opacity="1" /><path clip-path="url(#clip030)" d="M2661.47 1527.87 L2661.47 1531.41 L2657.39 1531.41 Q2655.1 1531.41 2654.2 1532.34 Q2653.32 1533.26 2653.32 1535.67 L2653.32 1537.96 L2660.33 1537.96 L2660.33 1541.27 L2653.32 1541.27 L2653.32 1563.89 L2649.04 1563.89 L2649.04 1541.27 L2644.96 1541.27 L2644.96 1537.96 L2649.04 1537.96 L2649.04 1536.16 Q2649.04 1531.83 2651.05 1529.86 Q2653.06 1527.87 2657.44 1527.87 L2661.47 1527.87 Z" fill="#000000" fill-rule="nonzero" fill-opacity="1" /><path clip-path="url(#clip030)" d="M2675.08 1540.95 Q2671.65 1540.95 2669.66 1543.63 Q2667.67 1546.3 2667.67 1550.95 Q2667.67 1555.6 2669.64 1558.29 Q2671.63 1560.95 2675.08 1560.95 Q2678.48 1560.95 2680.47 1558.26 Q2682.46 1555.58 2682.46 1550.95 Q2682.46 1546.34 2680.47 1543.66 Q2678.48 1540.95 2675.08 1540.95 M2675.08 1537.34 Q2680.63 1537.34 2683.8 1540.95 Q2686.97 1544.56 2686.97 1550.95 Q2686.97 1557.31 2683.8 1560.95 Q2680.63 1564.56 2675.08 1564.56 Q2669.5 1564.56 2666.33 1560.95 Q2663.18 1557.31 2663.18 1550.95 Q2663.18 1544.56 2666.33 1540.95 Q2669.5 1537.34 2675.08 1537.34 Z" fill="#000000" fill-rule="nonzero" fill-opacity="1" /><path clip-path="url(#clip030)" d="M2709.06 1541.94 Q2708.34 1541.53 2707.48 1541.34 Q2706.65 1541.13 2705.63 1541.13 Q2702.02 1541.13 2700.08 1543.49 Q2698.16 1545.83 2698.16 1550.23 L2698.16 1563.89 L2693.87 1563.89 L2693.87 1537.96 L2698.16 1537.96 L2698.16 1541.99 Q2699.5 1539.63 2701.65 1538.49 Q2703.8 1537.34 2706.88 1537.34 Q2707.32 1537.34 2707.85 1537.41 Q2708.39 1537.45 2709.03 1537.57 L2709.06 1541.94 Z" fill="#000000" fill-rule="nonzero" fill-opacity="1" /><path clip-path="url(#clip030)" d="M2711.05 1537.96 L2715.31 1537.96 L2720.63 1558.19 L2725.93 1537.96 L2730.96 1537.96 L2736.28 1558.19 L2741.58 1537.96 L2745.84 1537.96 L2739.06 1563.89 L2734.03 1563.89 L2728.46 1542.64 L2722.85 1563.89 L2717.83 1563.89 L2711.05 1537.96 Z" fill="#000000" fill-rule="nonzero" fill-opacity="1" /><path clip-path="url(#clip030)" d="M2764.08 1550.86 Q2758.92 1550.86 2756.93 1552.04 Q2754.94 1553.22 2754.94 1556.06 Q2754.94 1558.33 2756.42 1559.67 Q2757.92 1560.99 2760.49 1560.99 Q2764.03 1560.99 2766.16 1558.49 Q2768.32 1555.97 2768.32 1551.8 L2768.32 1550.86 L2764.08 1550.86 M2772.58 1549.1 L2772.58 1563.89 L2768.32 1563.89 L2768.32 1559.95 Q2766.86 1562.31 2764.68 1563.45 Q2762.51 1564.56 2759.36 1564.56 Q2755.38 1564.56 2753.02 1562.34 Q2750.68 1560.09 2750.68 1556.34 Q2750.68 1551.97 2753.59 1549.74 Q2756.53 1547.52 2762.34 1547.52 L2768.32 1547.52 L2768.32 1547.11 Q2768.32 1544.17 2766.37 1542.57 Q2764.45 1540.95 2760.96 1540.95 Q2758.73 1540.95 2756.63 1541.48 Q2754.52 1542.01 2752.58 1543.08 L2752.58 1539.14 Q2754.91 1538.24 2757.11 1537.8 Q2759.31 1537.34 2761.4 1537.34 Q2767.02 1537.34 2769.8 1540.25 Q2772.58 1543.17 2772.58 1549.1 Z" fill="#000000" fill-rule="nonzero" fill-opacity="1" /><path clip-path="url(#clip030)" d="M2796.37 1541.94 Q2795.65 1541.53 2794.8 1541.34 Q2793.96 1541.13 2792.95 1541.13 Q2789.34 1541.13 2787.39 1543.49 Q2785.47 1545.83 2785.47 1550.23 L2785.47 1563.89 L2781.19 1563.89 L2781.19 1537.96 L2785.47 1537.96 L2785.47 1541.99 Q2786.81 1539.63 2788.97 1538.49 Q2791.12 1537.34 2794.2 1537.34 Q2794.64 1537.34 2795.17 1537.41 Q2795.7 1537.45 2796.35 1537.57 L2796.37 1541.94 Z" fill="#000000" fill-rule="nonzero" fill-opacity="1" /><path clip-path="url(#clip030)" d="M2817.07 1541.9 L2817.07 1527.87 L2821.33 1527.87 L2821.33 1563.89 L2817.07 1563.89 L2817.07 1560 Q2815.72 1562.31 2813.66 1563.45 Q2811.63 1564.56 2808.76 1564.56 Q2804.06 1564.56 2801.09 1560.81 Q2798.15 1557.06 2798.15 1550.95 Q2798.15 1544.84 2801.09 1541.09 Q2804.06 1537.34 2808.76 1537.34 Q2811.63 1537.34 2813.66 1538.47 Q2815.72 1539.58 2817.07 1541.9 M2802.55 1550.95 Q2802.55 1555.65 2804.47 1558.33 Q2806.42 1560.99 2809.8 1560.99 Q2813.18 1560.99 2815.12 1558.33 Q2817.07 1555.65 2817.07 1550.95 Q2817.07 1546.25 2815.12 1543.59 Q2813.18 1540.9 2809.8 1540.9 Q2806.42 1540.9 2804.47 1543.59 Q2802.55 1546.25 2802.55 1550.95 Z" fill="#000000" fill-rule="nonzero" fill-opacity="1" /><path clip-path="url(#clip030)" d="M2862.23 1541.9 L2862.23 1527.87 L2866.49 1527.87 L2866.49 1563.89 L2862.23 1563.89 L2862.23 1560 Q2860.89 1562.31 2858.83 1563.45 Q2856.79 1564.56 2853.92 1564.56 Q2849.22 1564.56 2846.26 1560.81 Q2843.32 1557.06 2843.32 1550.95 Q2843.32 1544.84 2846.26 1541.09 Q2849.22 1537.34 2853.92 1537.34 Q2856.79 1537.34 2858.83 1538.47 Q2860.89 1539.58 2862.23 1541.9 M2847.71 1550.95 Q2847.71 1555.65 2849.64 1558.33 Q2851.58 1560.99 2854.96 1560.99 Q2858.34 1560.99 2860.28 1558.33 Q2862.23 1555.65 2862.23 1550.95 Q2862.23 1546.25 2860.28 1543.59 Q2858.34 1540.9 2854.96 1540.9 Q2851.58 1540.9 2849.64 1543.59 Q2847.71 1546.25 2847.71 1550.95 Z" fill="#000000" fill-rule="nonzero" fill-opacity="1" /><path clip-path="url(#clip030)" d="M2875.26 1537.96 L2879.52 1537.96 L2879.52 1563.89 L2875.26 1563.89 L2875.26 1537.96 M2875.26 1527.87 L2879.52 1527.87 L2879.52 1533.26 L2875.26 1533.26 L2875.26 1527.87 Z" fill="#000000" fill-rule="nonzero" fill-opacity="1" /><path clip-path="url(#clip030)" d="M2901.56 1527.87 L2901.56 1531.41 L2897.48 1531.41 Q2895.19 1531.41 2894.29 1532.34 Q2893.41 1533.26 2893.41 1535.67 L2893.41 1537.96 L2900.42 1537.96 L2900.42 1541.27 L2893.41 1541.27 L2893.41 1563.89 L2889.13 1563.89 L2889.13 1541.27 L2885.05 1541.27 L2885.05 1537.96 L2889.13 1537.96 L2889.13 1536.16 Q2889.13 1531.83 2891.14 1529.86 Q2893.15 1527.87 2897.53 1527.87 L2901.56 1527.87 Z" fill="#000000" fill-rule="nonzero" fill-opacity="1" /><path clip-path="url(#clip030)" d="M2918.25 1527.87 L2918.25 1531.41 L2914.17 1531.41 Q2911.88 1531.41 2910.98 1532.34 Q2910.1 1533.26 2910.1 1535.67 L2910.1 1537.96 L2917.11 1537.96 L2917.11 1541.27 L2910.1 1541.27 L2910.1 1563.89 L2905.82 1563.89 L2905.82 1541.27 L2901.74 1541.27 L2901.74 1537.96 L2905.82 1537.96 L2905.82 1536.16 Q2905.82 1531.83 2907.83 1529.86 Q2909.84 1527.87 2914.22 1527.87 L2918.25 1527.87 Z" fill="#000000" fill-rule="nonzero" fill-opacity="1" /><polyline clip-path="url(#clip030)" style="stroke:#000000; stroke-linecap:round; stroke-linejoin:round; stroke-width:4; stroke-opacity:1; fill:none" points="364.733,1495.09 364.733,47.2441 "/>
<polyline clip-path="url(#clip030)" style="stroke:#000000; stroke-linecap:round; stroke-linejoin:round; stroke-width:4; stroke-opacity:1; fill:none" points="364.733,1387.19 383.63,1387.19 "/>
<polyline clip-path="url(#clip030)" style="stroke:#000000; stroke-linecap:round; stroke-linejoin:round; stroke-width:4; stroke-opacity:1; fill:none" points="364.733,1141.15 383.63,1141.15 "/>
<polyline clip-path="url(#clip030)" style="stroke:#000000; stroke-linecap:round; stroke-linejoin:round; stroke-width:4; stroke-opacity:1; fill:none" points="364.733,895.122 383.63,895.122 "/>
<polyline clip-path="url(#clip030)" style="stroke:#000000; stroke-linecap:round; stroke-linejoin:round; stroke-width:4; stroke-opacity:1; fill:none" points="364.733,649.09 383.63,649.09 "/>
<polyline clip-path="url(#clip030)" style="stroke:#000000; stroke-linecap:round; stroke-linejoin:round; stroke-width:4; stroke-opacity:1; fill:none" points="364.733,403.057 383.63,403.057 "/>
<polyline clip-path="url(#clip030)" style="stroke:#000000; stroke-linecap:round; stroke-linejoin:round; stroke-width:4; stroke-opacity:1; fill:none" points="364.733,157.025 383.63,157.025 "/>
<path clip-path="url(#clip030)" d="M100.137 1376.35 L118.493 1376.35 L118.493 1380.29 L104.419 1380.29 L104.419 1388.76 Q105.437 1388.41 106.456 1388.25 Q107.474 1388.07 108.493 1388.07 Q114.28 1388.07 117.66 1391.24 Q121.039 1394.41 121.039 1399.83 Q121.039 1405.41 117.567 1408.51 Q114.095 1411.59 107.775 1411.59 Q105.599 1411.59 103.331 1411.22 Q101.086 1410.85 98.6782 1410.1 L98.6782 1405.41 Q100.762 1406.54 102.984 1407.1 Q105.206 1407.65 107.683 1407.65 Q111.687 1407.65 114.025 1405.54 Q116.363 1403.44 116.363 1399.83 Q116.363 1396.22 114.025 1394.11 Q111.687 1392 107.683 1392 Q105.808 1392 103.933 1392.42 Q102.081 1392.84 100.137 1393.72 L100.137 1376.35 Z" fill="#000000" fill-rule="nonzero" fill-opacity="1" /><path clip-path="url(#clip030)" d="M130.252 1405.03 L135.136 1405.03 L135.136 1410.91 L130.252 1410.91 L130.252 1405.03 Z" fill="#000000" fill-rule="nonzero" fill-opacity="1" /><path clip-path="url(#clip030)" d="M155.321 1379.43 Q151.71 1379.43 149.882 1383 Q148.076 1386.54 148.076 1393.67 Q148.076 1400.78 149.882 1404.34 Q151.71 1407.88 155.321 1407.88 Q158.956 1407.88 160.761 1404.34 Q162.59 1400.78 162.59 1393.67 Q162.59 1386.54 160.761 1383 Q158.956 1379.43 155.321 1379.43 M155.321 1375.73 Q161.132 1375.73 164.187 1380.34 Q167.266 1384.92 167.266 1393.67 Q167.266 1402.4 164.187 1407 Q161.132 1411.59 155.321 1411.59 Q149.511 1411.59 146.433 1407 Q143.377 1402.4 143.377 1393.67 Q143.377 1384.92 146.433 1380.34 Q149.511 1375.73 155.321 1375.73 Z" fill="#000000" fill-rule="nonzero" fill-opacity="1" /><path clip-path="url(#clip030)" d="M185.483 1379.43 Q181.872 1379.43 180.043 1383 Q178.238 1386.54 178.238 1393.67 Q178.238 1400.78 180.043 1404.34 Q181.872 1407.88 185.483 1407.88 Q189.118 1407.88 190.923 1404.34 Q192.752 1400.78 192.752 1393.67 Q192.752 1386.54 190.923 1383 Q189.118 1379.43 185.483 1379.43 M185.483 1375.73 Q191.293 1375.73 194.349 1380.34 Q197.428 1384.92 197.428 1393.67 Q197.428 1402.4 194.349 1407 Q191.293 1411.59 185.483 1411.59 Q179.673 1411.59 176.594 1407 Q173.539 1402.4 173.539 1393.67 Q173.539 1384.92 176.594 1380.34 Q179.673 1375.73 185.483 1375.73 Z" fill="#000000" fill-rule="nonzero" fill-opacity="1" /><path clip-path="url(#clip030)" d="M233.816 1385.45 L223.238 1396.08 L233.816 1406.66 L231.062 1409.46 L220.437 1398.83 L209.812 1409.46 L207.08 1406.66 L217.636 1396.08 L207.08 1385.45 L209.812 1382.65 L220.437 1393.28 L231.062 1382.65 L233.816 1385.45 Z" fill="#000000" fill-rule="nonzero" fill-opacity="1" /><path clip-path="url(#clip030)" d="M246.177 1406.98 L253.816 1406.98 L253.816 1380.61 L245.506 1382.28 L245.506 1378.02 L253.77 1376.35 L258.446 1376.35 L258.446 1406.98 L266.085 1406.98 L266.085 1410.91 L246.177 1410.91 L246.177 1406.98 Z" fill="#000000" fill-rule="nonzero" fill-opacity="1" /><path clip-path="url(#clip030)" d="M285.529 1379.43 Q281.918 1379.43 280.089 1383 Q278.284 1386.54 278.284 1393.67 Q278.284 1400.78 280.089 1404.34 Q281.918 1407.88 285.529 1407.88 Q289.163 1407.88 290.969 1404.34 Q292.798 1400.78 292.798 1393.67 Q292.798 1386.54 290.969 1383 Q289.163 1379.43 285.529 1379.43 M285.529 1375.73 Q291.339 1375.73 294.395 1380.34 Q297.473 1384.92 297.473 1393.67 Q297.473 1402.4 294.395 1407 Q291.339 1411.59 285.529 1411.59 Q279.719 1411.59 276.64 1407 Q273.585 1402.4 273.585 1393.67 Q273.585 1384.92 276.64 1380.34 Q279.719 1375.73 285.529 1375.73 Z" fill="#000000" fill-rule="nonzero" fill-opacity="1" /><path clip-path="url(#clip030)" d="M307.103 1370.17 Q304.395 1370.17 302.834 1371.62 Q301.291 1373.07 301.291 1375.6 Q301.291 1378.14 302.834 1379.59 Q304.395 1381.04 307.103 1381.04 Q309.811 1381.04 311.372 1379.59 Q312.933 1378.13 312.933 1375.6 Q312.933 1373.07 311.372 1371.62 Q309.83 1370.17 307.103 1370.17 M303.304 1368.55 Q300.859 1367.95 299.486 1366.28 Q298.132 1364.6 298.132 1362.19 Q298.132 1358.83 300.52 1356.87 Q302.928 1354.92 307.103 1354.92 Q311.297 1354.92 313.686 1356.87 Q316.074 1358.83 316.074 1362.19 Q316.074 1364.6 314.701 1366.28 Q313.347 1367.95 310.921 1368.55 Q313.667 1369.19 315.19 1371.05 Q316.733 1372.92 316.733 1375.6 Q316.733 1379.69 314.231 1381.87 Q311.749 1384.05 307.103 1384.05 Q302.457 1384.05 299.956 1381.87 Q297.473 1379.69 297.473 1375.6 Q297.473 1372.92 299.016 1371.05 Q300.558 1369.19 303.304 1368.55 M301.912 1362.55 Q301.912 1364.73 303.266 1365.96 Q304.639 1367.18 307.103 1367.18 Q309.548 1367.18 310.921 1365.96 Q312.313 1364.73 312.313 1362.55 Q312.313 1360.37 310.921 1359.15 Q309.548 1357.93 307.103 1357.93 Q304.639 1357.93 303.266 1359.15 Q301.912 1360.37 301.912 1362.55 Z" fill="#000000" fill-rule="nonzero" fill-opacity="1" /><path clip-path="url(#clip030)" d="M100.788 1160.95 L108.426 1160.95 L108.426 1134.58 L100.116 1136.25 L100.116 1131.99 L108.38 1130.32 L113.056 1130.32 L113.056 1160.95 L120.695 1160.95 L120.695 1164.88 L100.788 1164.88 L100.788 1160.95 Z" fill="#000000" fill-rule="nonzero" fill-opacity="1" /><path clip-path="url(#clip030)" d="M130.139 1159 L135.023 1159 L135.023 1164.88 L130.139 1164.88 L130.139 1159 Z" fill="#000000" fill-rule="nonzero" fill-opacity="1" /><path clip-path="url(#clip030)" d="M155.209 1133.4 Q151.597 1133.4 149.769 1136.97 Q147.963 1140.51 147.963 1147.64 Q147.963 1154.74 149.769 1158.31 Q151.597 1161.85 155.209 1161.85 Q158.843 1161.85 160.648 1158.31 Q162.477 1154.74 162.477 1147.64 Q162.477 1140.51 160.648 1136.97 Q158.843 1133.4 155.209 1133.4 M155.209 1129.7 Q161.019 1129.7 164.074 1134.3 Q167.153 1138.89 167.153 1147.64 Q167.153 1156.36 164.074 1160.97 Q161.019 1165.55 155.209 1165.55 Q149.398 1165.55 146.32 1160.97 Q143.264 1156.36 143.264 1147.64 Q143.264 1138.89 146.32 1134.3 Q149.398 1129.7 155.209 1129.7 Z" fill="#000000" fill-rule="nonzero" fill-opacity="1" /><path clip-path="url(#clip030)" d="M185.37 1133.4 Q181.759 1133.4 179.931 1136.97 Q178.125 1140.51 178.125 1147.64 Q178.125 1154.74 179.931 1158.31 Q181.759 1161.85 185.37 1161.85 Q189.005 1161.85 190.81 1158.31 Q192.639 1154.74 192.639 1147.64 Q192.639 1140.51 190.81 1136.97 Q189.005 1133.4 185.37 1133.4 M185.37 1129.7 Q191.181 1129.7 194.236 1134.3 Q197.315 1138.89 197.315 1147.64 Q197.315 1156.36 194.236 1160.97 Q191.181 1165.55 185.37 1165.55 Q179.56 1165.55 176.482 1160.97 Q173.426 1156.36 173.426 1147.64 Q173.426 1138.89 176.482 1134.3 Q179.56 1129.7 185.37 1129.7 Z" fill="#000000" fill-rule="nonzero" fill-opacity="1" /><path clip-path="url(#clip030)" d="M233.704 1139.42 L223.125 1150.04 L233.704 1160.62 L230.949 1163.42 L220.324 1152.8 L209.699 1163.42 L206.968 1160.62 L217.523 1150.04 L206.968 1139.42 L209.699 1136.62 L220.324 1147.24 L230.949 1136.62 L233.704 1139.42 Z" fill="#000000" fill-rule="nonzero" fill-opacity="1" /><path clip-path="url(#clip030)" d="M246.065 1160.95 L253.703 1160.95 L253.703 1134.58 L245.393 1136.25 L245.393 1131.99 L253.657 1130.32 L258.333 1130.32 L258.333 1160.95 L265.972 1160.95 L265.972 1164.88 L246.065 1164.88 L246.065 1160.95 Z" fill="#000000" fill-rule="nonzero" fill-opacity="1" /><path clip-path="url(#clip030)" d="M285.416 1133.4 Q281.805 1133.4 279.976 1136.97 Q278.171 1140.51 278.171 1147.64 Q278.171 1154.74 279.976 1158.31 Q281.805 1161.85 285.416 1161.85 Q289.05 1161.85 290.856 1158.31 Q292.685 1154.74 292.685 1147.64 Q292.685 1140.51 290.856 1136.97 Q289.05 1133.4 285.416 1133.4 M285.416 1129.7 Q291.226 1129.7 294.282 1134.3 Q297.361 1138.89 297.361 1147.64 Q297.361 1156.36 294.282 1160.97 Q291.226 1165.55 285.416 1165.55 Q279.606 1165.55 276.527 1160.97 Q273.472 1156.36 273.472 1147.64 Q273.472 1138.89 276.527 1134.3 Q279.606 1129.7 285.416 1129.7 Z" fill="#000000" fill-rule="nonzero" fill-opacity="1" /><path clip-path="url(#clip030)" d="M299.166 1136.89 L299.166 1133.43 Q300.596 1134.11 302.063 1134.46 Q303.53 1134.82 304.94 1134.82 Q308.702 1134.82 310.676 1132.3 Q312.67 1129.76 312.952 1124.61 Q311.861 1126.22 310.187 1127.09 Q308.514 1127.95 306.482 1127.95 Q302.269 1127.95 299.806 1125.42 Q297.361 1122.86 297.361 1118.44 Q297.361 1114.11 299.918 1111.5 Q302.476 1108.88 306.727 1108.88 Q311.598 1108.88 314.156 1112.63 Q316.733 1116.35 316.733 1123.46 Q316.733 1130.1 313.573 1134.07 Q310.432 1138.02 305.109 1138.02 Q303.68 1138.02 302.213 1137.73 Q300.746 1137.45 299.166 1136.89 M306.727 1124.98 Q309.285 1124.98 310.771 1123.23 Q312.275 1121.49 312.275 1118.44 Q312.275 1115.41 310.771 1113.66 Q309.285 1111.89 306.727 1111.89 Q304.169 1111.89 302.664 1113.66 Q301.179 1115.41 301.179 1118.44 Q301.179 1121.49 302.664 1123.23 Q304.169 1124.98 306.727 1124.98 Z" fill="#000000" fill-rule="nonzero" fill-opacity="1" /><path clip-path="url(#clip030)" d="M100.788 914.914 L108.426 914.914 L108.426 888.549 L100.116 890.216 L100.116 885.956 L108.38 884.29 L113.056 884.29 L113.056 914.914 L120.695 914.914 L120.695 918.85 L100.788 918.85 L100.788 914.914 Z" fill="#000000" fill-rule="nonzero" fill-opacity="1" /><path clip-path="url(#clip030)" d="M130.139 912.97 L135.023 912.97 L135.023 918.85 L130.139 918.85 L130.139 912.97 Z" fill="#000000" fill-rule="nonzero" fill-opacity="1" /><path clip-path="url(#clip030)" d="M145.255 884.29 L163.611 884.29 L163.611 888.225 L149.537 888.225 L149.537 896.697 Q150.556 896.35 151.574 896.188 Q152.593 896.003 153.611 896.003 Q159.398 896.003 162.778 899.174 Q166.158 902.345 166.158 907.762 Q166.158 913.34 162.685 916.442 Q159.213 919.521 152.894 919.521 Q150.718 919.521 148.449 919.151 Q146.204 918.78 143.797 918.039 L143.797 913.34 Q145.88 914.475 148.102 915.03 Q150.324 915.586 152.801 915.586 Q156.806 915.586 159.144 913.479 Q161.482 911.373 161.482 907.762 Q161.482 904.151 159.144 902.044 Q156.806 899.938 152.801 899.938 Q150.926 899.938 149.051 900.354 Q147.199 900.771 145.255 901.651 L145.255 884.29 Z" fill="#000000" fill-rule="nonzero" fill-opacity="1" /><path clip-path="url(#clip030)" d="M185.37 887.368 Q181.759 887.368 179.931 890.933 Q178.125 894.475 178.125 901.604 Q178.125 908.711 179.931 912.276 Q181.759 915.817 185.37 915.817 Q189.005 915.817 190.81 912.276 Q192.639 908.711 192.639 901.604 Q192.639 894.475 190.81 890.933 Q189.005 887.368 185.37 887.368 M185.37 883.665 Q191.181 883.665 194.236 888.271 Q197.315 892.854 197.315 901.604 Q197.315 910.331 194.236 914.938 Q191.181 919.521 185.37 919.521 Q179.56 919.521 176.482 914.938 Q173.426 910.331 173.426 901.604 Q173.426 892.854 176.482 888.271 Q179.56 883.665 185.37 883.665 Z" fill="#000000" fill-rule="nonzero" fill-opacity="1" /><path clip-path="url(#clip030)" d="M233.704 893.387 L223.125 904.012 L233.704 914.59 L230.949 917.391 L220.324 906.766 L209.699 917.391 L206.968 914.59 L217.523 904.012 L206.968 893.387 L209.699 890.586 L220.324 901.211 L230.949 890.586 L233.704 893.387 Z" fill="#000000" fill-rule="nonzero" fill-opacity="1" /><path clip-path="url(#clip030)" d="M246.065 914.914 L253.703 914.914 L253.703 888.549 L245.393 890.216 L245.393 885.956 L253.657 884.29 L258.333 884.29 L258.333 914.914 L265.972 914.914 L265.972 918.85 L246.065 918.85 L246.065 914.914 Z" fill="#000000" fill-rule="nonzero" fill-opacity="1" /><path clip-path="url(#clip030)" d="M285.416 887.368 Q281.805 887.368 279.976 890.933 Q278.171 894.475 278.171 901.604 Q278.171 908.711 279.976 912.276 Q281.805 915.817 285.416 915.817 Q289.05 915.817 290.856 912.276 Q292.685 908.711 292.685 901.604 Q292.685 894.475 290.856 890.933 Q289.05 887.368 285.416 887.368 M285.416 883.665 Q291.226 883.665 294.282 888.271 Q297.361 892.854 297.361 901.604 Q297.361 910.331 294.282 914.938 Q291.226 919.521 285.416 919.521 Q279.606 919.521 276.527 914.938 Q273.472 910.331 273.472 901.604 Q273.472 892.854 276.527 888.271 Q279.606 883.665 285.416 883.665 Z" fill="#000000" fill-rule="nonzero" fill-opacity="1" /><path clip-path="url(#clip030)" d="M299.166 890.856 L299.166 887.396 Q300.596 888.073 302.063 888.43 Q303.53 888.787 304.94 888.787 Q308.702 888.787 310.676 886.267 Q312.67 883.728 312.952 878.575 Q311.861 880.192 310.187 881.057 Q308.514 881.922 306.482 881.922 Q302.269 881.922 299.806 879.383 Q297.361 876.826 297.361 872.406 Q297.361 868.08 299.918 865.466 Q302.476 862.851 306.727 862.851 Q311.598 862.851 314.156 866.594 Q316.733 870.318 316.733 877.427 Q316.733 884.067 313.573 888.035 Q310.432 891.985 305.109 891.985 Q303.68 891.985 302.213 891.703 Q300.746 891.42 299.166 890.856 M306.727 878.951 Q309.285 878.951 310.771 877.202 Q312.275 875.453 312.275 872.406 Q312.275 869.378 310.771 867.629 Q309.285 865.861 306.727 865.861 Q304.169 865.861 302.664 867.629 Q301.179 869.378 301.179 872.406 Q301.179 875.453 302.664 877.202 Q304.169 878.951 306.727 878.951 Z" fill="#000000" fill-rule="nonzero" fill-opacity="1" /><path clip-path="url(#clip030)" d="M104.005 668.882 L120.324 668.882 L120.324 672.817 L98.3802 672.817 L98.3802 668.882 Q101.042 666.127 105.625 661.498 Q110.232 656.845 111.412 655.502 Q113.658 652.979 114.537 651.243 Q115.44 649.484 115.44 647.794 Q115.44 645.04 113.496 643.303 Q111.575 641.567 108.473 641.567 Q106.274 641.567 103.82 642.331 Q101.389 643.095 98.6116 644.646 L98.6116 639.924 Q101.436 638.79 103.889 638.211 Q106.343 637.632 108.38 637.632 Q113.75 637.632 116.945 640.317 Q120.139 643.002 120.139 647.493 Q120.139 649.623 119.329 651.544 Q118.542 653.442 116.436 656.035 Q115.857 656.706 112.755 659.924 Q109.653 663.118 104.005 668.882 Z" fill="#000000" fill-rule="nonzero" fill-opacity="1" /><path clip-path="url(#clip030)" d="M130.139 666.938 L135.023 666.938 L135.023 672.817 L130.139 672.817 L130.139 666.938 Z" fill="#000000" fill-rule="nonzero" fill-opacity="1" /><path clip-path="url(#clip030)" d="M155.209 641.336 Q151.597 641.336 149.769 644.901 Q147.963 648.442 147.963 655.572 Q147.963 662.678 149.769 666.243 Q151.597 669.785 155.209 669.785 Q158.843 669.785 160.648 666.243 Q162.477 662.678 162.477 655.572 Q162.477 648.442 160.648 644.901 Q158.843 641.336 155.209 641.336 M155.209 637.632 Q161.019 637.632 164.074 642.239 Q167.153 646.822 167.153 655.572 Q167.153 664.299 164.074 668.905 Q161.019 673.488 155.209 673.488 Q149.398 673.488 146.32 668.905 Q143.264 664.299 143.264 655.572 Q143.264 646.822 146.32 642.239 Q149.398 637.632 155.209 637.632 Z" fill="#000000" fill-rule="nonzero" fill-opacity="1" /><path clip-path="url(#clip030)" d="M185.37 641.336 Q181.759 641.336 179.931 644.901 Q178.125 648.442 178.125 655.572 Q178.125 662.678 179.931 666.243 Q181.759 669.785 185.37 669.785 Q189.005 669.785 190.81 666.243 Q192.639 662.678 192.639 655.572 Q192.639 648.442 190.81 644.901 Q189.005 641.336 185.37 641.336 M185.37 637.632 Q191.181 637.632 194.236 642.239 Q197.315 646.822 197.315 655.572 Q197.315 664.299 194.236 668.905 Q191.181 673.488 185.37 673.488 Q179.56 673.488 176.482 668.905 Q173.426 664.299 173.426 655.572 Q173.426 646.822 176.482 642.239 Q179.56 637.632 185.37 637.632 Z" fill="#000000" fill-rule="nonzero" fill-opacity="1" /><path clip-path="url(#clip030)" d="M233.704 647.354 L223.125 657.979 L233.704 668.558 L230.949 671.359 L220.324 660.734 L209.699 671.359 L206.968 668.558 L217.523 657.979 L206.968 647.354 L209.699 644.553 L220.324 655.178 L230.949 644.553 L233.704 647.354 Z" fill="#000000" fill-rule="nonzero" fill-opacity="1" /><path clip-path="url(#clip030)" d="M246.065 668.882 L253.703 668.882 L253.703 642.516 L245.393 644.183 L245.393 639.924 L253.657 638.257 L258.333 638.257 L258.333 668.882 L265.972 668.882 L265.972 672.817 L246.065 672.817 L246.065 668.882 Z" fill="#000000" fill-rule="nonzero" fill-opacity="1" /><path clip-path="url(#clip030)" d="M285.416 641.336 Q281.805 641.336 279.976 644.901 Q278.171 648.442 278.171 655.572 Q278.171 662.678 279.976 666.243 Q281.805 669.785 285.416 669.785 Q289.05 669.785 290.856 666.243 Q292.685 662.678 292.685 655.572 Q292.685 648.442 290.856 644.901 Q289.05 641.336 285.416 641.336 M285.416 637.632 Q291.226 637.632 294.282 642.239 Q297.361 646.822 297.361 655.572 Q297.361 664.299 294.282 668.905 Q291.226 673.488 285.416 673.488 Q279.606 673.488 276.527 668.905 Q273.472 664.299 273.472 655.572 Q273.472 646.822 276.527 642.239 Q279.606 637.632 285.416 637.632 Z" fill="#000000" fill-rule="nonzero" fill-opacity="1" /><path clip-path="url(#clip030)" d="M299.166 644.824 L299.166 641.363 Q300.596 642.04 302.063 642.397 Q303.53 642.755 304.94 642.755 Q308.702 642.755 310.676 640.235 Q312.67 637.696 312.952 632.542 Q311.861 634.16 310.187 635.025 Q308.514 635.89 306.482 635.89 Q302.269 635.89 299.806 633.351 Q297.361 630.793 297.361 626.373 Q297.361 622.047 299.918 619.433 Q302.476 616.819 306.727 616.819 Q311.598 616.819 314.156 620.562 Q316.733 624.286 316.733 631.395 Q316.733 638.034 313.573 642.003 Q310.432 645.952 305.109 645.952 Q303.68 645.952 302.213 645.67 Q300.746 645.388 299.166 644.824 M306.727 632.918 Q309.285 632.918 310.771 631.169 Q312.275 629.42 312.275 626.373 Q312.275 623.345 310.771 621.596 Q309.285 619.828 306.727 619.828 Q304.169 619.828 302.664 621.596 Q301.179 623.345 301.179 626.373 Q301.179 629.42 302.664 631.169 Q304.169 632.918 306.727 632.918 Z" fill="#000000" fill-rule="nonzero" fill-opacity="1" /><path clip-path="url(#clip030)" d="M104.005 422.85 L120.324 422.85 L120.324 426.785 L98.3802 426.785 L98.3802 422.85 Q101.042 420.095 105.625 415.465 Q110.232 410.813 111.412 409.47 Q113.658 406.947 114.537 405.211 Q115.44 403.451 115.44 401.762 Q115.44 399.007 113.496 397.271 Q111.575 395.535 108.473 395.535 Q106.274 395.535 103.82 396.299 Q101.389 397.063 98.6116 398.614 L98.6116 393.891 Q101.436 392.757 103.889 392.178 Q106.343 391.6 108.38 391.6 Q113.75 391.6 116.945 394.285 Q120.139 396.97 120.139 401.461 Q120.139 403.59 119.329 405.512 Q118.542 407.41 116.436 410.002 Q115.857 410.674 112.755 413.891 Q109.653 417.086 104.005 422.85 Z" fill="#000000" fill-rule="nonzero" fill-opacity="1" /><path clip-path="url(#clip030)" d="M130.139 420.905 L135.023 420.905 L135.023 426.785 L130.139 426.785 L130.139 420.905 Z" fill="#000000" fill-rule="nonzero" fill-opacity="1" /><path clip-path="url(#clip030)" d="M145.255 392.225 L163.611 392.225 L163.611 396.16 L149.537 396.16 L149.537 404.632 Q150.556 404.285 151.574 404.123 Q152.593 403.938 153.611 403.938 Q159.398 403.938 162.778 407.109 Q166.158 410.28 166.158 415.697 Q166.158 421.275 162.685 424.377 Q159.213 427.456 152.894 427.456 Q150.718 427.456 148.449 427.086 Q146.204 426.715 143.797 425.974 L143.797 421.275 Q145.88 422.41 148.102 422.965 Q150.324 423.521 152.801 423.521 Q156.806 423.521 159.144 421.414 Q161.482 419.308 161.482 415.697 Q161.482 412.086 159.144 409.979 Q156.806 407.873 152.801 407.873 Q150.926 407.873 149.051 408.289 Q147.199 408.706 145.255 409.586 L145.255 392.225 Z" fill="#000000" fill-rule="nonzero" fill-opacity="1" /><path clip-path="url(#clip030)" d="M185.37 395.303 Q181.759 395.303 179.931 398.868 Q178.125 402.41 178.125 409.539 Q178.125 416.646 179.931 420.211 Q181.759 423.752 185.37 423.752 Q189.005 423.752 190.81 420.211 Q192.639 416.646 192.639 409.539 Q192.639 402.41 190.81 398.868 Q189.005 395.303 185.37 395.303 M185.37 391.6 Q191.181 391.6 194.236 396.206 Q197.315 400.789 197.315 409.539 Q197.315 418.266 194.236 422.873 Q191.181 427.456 185.37 427.456 Q179.56 427.456 176.482 422.873 Q173.426 418.266 173.426 409.539 Q173.426 400.789 176.482 396.206 Q179.56 391.6 185.37 391.6 Z" fill="#000000" fill-rule="nonzero" fill-opacity="1" /><path clip-path="url(#clip030)" d="M233.704 401.322 L223.125 411.947 L233.704 422.525 L230.949 425.326 L220.324 414.701 L209.699 425.326 L206.968 422.525 L217.523 411.947 L206.968 401.322 L209.699 398.521 L220.324 409.146 L230.949 398.521 L233.704 401.322 Z" fill="#000000" fill-rule="nonzero" fill-opacity="1" /><path clip-path="url(#clip030)" d="M246.065 422.85 L253.703 422.85 L253.703 396.484 L245.393 398.151 L245.393 393.891 L253.657 392.225 L258.333 392.225 L258.333 422.85 L265.972 422.85 L265.972 426.785 L246.065 426.785 L246.065 422.85 Z" fill="#000000" fill-rule="nonzero" fill-opacity="1" /><path clip-path="url(#clip030)" d="M285.416 395.303 Q281.805 395.303 279.976 398.868 Q278.171 402.41 278.171 409.539 Q278.171 416.646 279.976 420.211 Q281.805 423.752 285.416 423.752 Q289.05 423.752 290.856 420.211 Q292.685 416.646 292.685 409.539 Q292.685 402.41 290.856 398.868 Q289.05 395.303 285.416 395.303 M285.416 391.6 Q291.226 391.6 294.282 396.206 Q297.361 400.789 297.361 409.539 Q297.361 418.266 294.282 422.873 Q291.226 427.456 285.416 427.456 Q279.606 427.456 276.527 422.873 Q273.472 418.266 273.472 409.539 Q273.472 400.789 276.527 396.206 Q279.606 391.6 285.416 391.6 Z" fill="#000000" fill-rule="nonzero" fill-opacity="1" /><path clip-path="url(#clip030)" d="M299.166 398.791 L299.166 395.331 Q300.596 396.008 302.063 396.365 Q303.53 396.722 304.94 396.722 Q308.702 396.722 310.676 394.202 Q312.67 391.663 312.952 386.51 Q311.861 388.127 310.187 388.992 Q308.514 389.858 306.482 389.858 Q302.269 389.858 299.806 387.318 Q297.361 384.761 297.361 380.341 Q297.361 376.015 299.918 373.401 Q302.476 370.786 306.727 370.786 Q311.598 370.786 314.156 374.529 Q316.733 378.253 316.733 385.362 Q316.733 392.002 313.573 395.97 Q310.432 399.92 305.109 399.92 Q303.68 399.92 302.213 399.638 Q300.746 399.355 299.166 398.791 M306.727 386.886 Q309.285 386.886 310.771 385.137 Q312.275 383.388 312.275 380.341 Q312.275 377.313 310.771 375.564 Q309.285 373.796 306.727 373.796 Q304.169 373.796 302.664 375.564 Q301.179 377.313 301.179 380.341 Q301.179 383.388 302.664 385.137 Q304.169 386.886 306.727 386.886 Z" fill="#000000" fill-rule="nonzero" fill-opacity="1" /><path clip-path="url(#clip030)" d="M114.144 162.118 Q117.5 162.836 119.375 165.104 Q121.274 167.373 121.274 170.706 Q121.274 175.822 117.755 178.623 Q114.237 181.423 107.755 181.423 Q105.579 181.423 103.264 180.984 Q100.973 180.567 98.519 179.711 L98.519 175.197 Q100.463 176.331 102.778 176.91 Q105.093 177.488 107.616 177.488 Q112.014 177.488 114.306 175.752 Q116.621 174.016 116.621 170.706 Q116.621 167.65 114.468 165.937 Q112.338 164.201 108.519 164.201 L104.491 164.201 L104.491 160.359 L108.704 160.359 Q112.153 160.359 113.982 158.993 Q115.811 157.604 115.811 155.012 Q115.811 152.35 113.912 150.938 Q112.037 149.502 108.519 149.502 Q106.598 149.502 104.399 149.919 Q102.2 150.336 99.5607 151.215 L99.5607 147.049 Q102.223 146.308 104.538 145.938 Q106.875 145.567 108.936 145.567 Q114.26 145.567 117.362 147.998 Q120.463 150.405 120.463 154.525 Q120.463 157.396 118.82 159.387 Q117.176 161.354 114.144 162.118 Z" fill="#000000" fill-rule="nonzero" fill-opacity="1" /><path clip-path="url(#clip030)" d="M130.139 174.873 L135.023 174.873 L135.023 180.752 L130.139 180.752 L130.139 174.873 Z" fill="#000000" fill-rule="nonzero" fill-opacity="1" /><path clip-path="url(#clip030)" d="M155.209 149.271 Q151.597 149.271 149.769 152.836 Q147.963 156.377 147.963 163.507 Q147.963 170.613 149.769 174.178 Q151.597 177.72 155.209 177.72 Q158.843 177.72 160.648 174.178 Q162.477 170.613 162.477 163.507 Q162.477 156.377 160.648 152.836 Q158.843 149.271 155.209 149.271 M155.209 145.567 Q161.019 145.567 164.074 150.174 Q167.153 154.757 167.153 163.507 Q167.153 172.234 164.074 176.84 Q161.019 181.423 155.209 181.423 Q149.398 181.423 146.32 176.84 Q143.264 172.234 143.264 163.507 Q143.264 154.757 146.32 150.174 Q149.398 145.567 155.209 145.567 Z" fill="#000000" fill-rule="nonzero" fill-opacity="1" /><path clip-path="url(#clip030)" d="M185.37 149.271 Q181.759 149.271 179.931 152.836 Q178.125 156.377 178.125 163.507 Q178.125 170.613 179.931 174.178 Q181.759 177.72 185.37 177.72 Q189.005 177.72 190.81 174.178 Q192.639 170.613 192.639 163.507 Q192.639 156.377 190.81 152.836 Q189.005 149.271 185.37 149.271 M185.37 145.567 Q191.181 145.567 194.236 150.174 Q197.315 154.757 197.315 163.507 Q197.315 172.234 194.236 176.84 Q191.181 181.423 185.37 181.423 Q179.56 181.423 176.482 176.84 Q173.426 172.234 173.426 163.507 Q173.426 154.757 176.482 150.174 Q179.56 145.567 185.37 145.567 Z" fill="#000000" fill-rule="nonzero" fill-opacity="1" /><path clip-path="url(#clip030)" d="M233.704 155.289 L223.125 165.914 L233.704 176.493 L230.949 179.294 L220.324 168.669 L209.699 179.294 L206.968 176.493 L217.523 165.914 L206.968 155.289 L209.699 152.488 L220.324 163.113 L230.949 152.488 L233.704 155.289 Z" fill="#000000" fill-rule="nonzero" fill-opacity="1" /><path clip-path="url(#clip030)" d="M246.065 176.817 L253.703 176.817 L253.703 150.451 L245.393 152.118 L245.393 147.859 L253.657 146.192 L258.333 146.192 L258.333 176.817 L265.972 176.817 L265.972 180.752 L246.065 180.752 L246.065 176.817 Z" fill="#000000" fill-rule="nonzero" fill-opacity="1" /><path clip-path="url(#clip030)" d="M285.416 149.271 Q281.805 149.271 279.976 152.836 Q278.171 156.377 278.171 163.507 Q278.171 170.613 279.976 174.178 Q281.805 177.72 285.416 177.72 Q289.05 177.72 290.856 174.178 Q292.685 170.613 292.685 163.507 Q292.685 156.377 290.856 152.836 Q289.05 149.271 285.416 149.271 M285.416 145.567 Q291.226 145.567 294.282 150.174 Q297.361 154.757 297.361 163.507 Q297.361 172.234 294.282 176.84 Q291.226 181.423 285.416 181.423 Q279.606 181.423 276.527 176.84 Q273.472 172.234 273.472 163.507 Q273.472 154.757 276.527 150.174 Q279.606 145.567 285.416 145.567 Z" fill="#000000" fill-rule="nonzero" fill-opacity="1" /><path clip-path="url(#clip030)" d="M299.166 152.759 L299.166 149.298 Q300.596 149.975 302.063 150.333 Q303.53 150.69 304.94 150.69 Q308.702 150.69 310.676 148.17 Q312.67 145.631 312.952 140.477 Q311.861 142.095 310.187 142.96 Q308.514 143.825 306.482 143.825 Q302.269 143.825 299.806 141.286 Q297.361 138.728 297.361 134.308 Q297.361 129.983 299.918 127.368 Q302.476 124.754 306.727 124.754 Q311.598 124.754 314.156 128.497 Q316.733 132.221 316.733 139.33 Q316.733 145.969 313.573 149.938 Q310.432 153.887 305.109 153.887 Q303.68 153.887 302.213 153.605 Q300.746 153.323 299.166 152.759 M306.727 140.853 Q309.285 140.853 310.771 139.104 Q312.275 137.355 312.275 134.308 Q312.275 131.28 310.771 129.531 Q309.285 127.763 306.727 127.763 Q304.169 127.763 302.664 129.531 Q301.179 131.28 301.179 134.308 Q301.179 137.355 302.664 139.104 Q304.169 140.853 306.727 140.853 Z" fill="#000000" fill-rule="nonzero" fill-opacity="1" /><path clip-path="url(#clip030)" d="M-9.64527 840.632 L0.4762 840.632 L0.4762 828.569 L5.02768 828.569 L5.02768 840.632 L24.3794 840.632 Q28.7399 840.632 29.9813 839.454 Q31.2226 838.245 31.2226 834.584 L31.2226 828.569 L36.1242 828.569 L36.1242 834.584 Q36.1242 841.364 33.6097 843.942 Q31.0634 846.52 24.3794 846.52 L5.02768 846.52 L5.02768 850.817 L0.4762 850.817 L0.4762 846.52 L-9.64527 846.52 L-9.64527 840.632 Z" fill="#000000" fill-rule="nonzero" fill-opacity="1" /><path clip-path="url(#clip030)" d="M-11.3958 789.738 L-11.3958 784.327 L42.1716 800.878 L42.1716 806.289 L-11.3958 789.738 Z" fill="#000000" fill-rule="nonzero" fill-opacity="1" /><path clip-path="url(#clip030)" d="M14.6081 727.831 L36.1242 727.831 L36.1242 733.688 L14.799 733.688 Q9.7383 733.688 7.22385 735.661 Q4.7094 737.635 4.7094 741.581 Q4.7094 746.324 7.73311 749.061 Q10.7568 751.798 15.9767 751.798 L36.1242 751.798 L36.1242 757.687 L0.4762 757.687 L0.4762 751.798 L6.01437 751.798 Q2.79968 749.698 1.20826 746.865 Q-0.38317 744 -0.38317 740.276 Q-0.38317 734.133 3.43625 730.982 Q7.22385 727.831 14.6081 727.831 Z" fill="#000000" fill-rule="nonzero" fill-opacity="1" /><path clip-path="url(#clip030)" d="M1.52654 693.425 L7.06471 693.425 Q5.79157 695.907 5.15499 698.581 Q4.51842 701.255 4.51842 704.119 Q4.51842 708.48 5.85522 710.676 Q7.19202 712.84 9.86562 712.84 Q11.9026 712.84 13.0803 711.281 Q14.2261 709.721 15.2765 705.01 L15.7221 703.005 Q17.0589 696.767 19.5097 694.157 Q21.9286 691.515 26.2891 691.515 Q31.2544 691.515 34.1508 695.462 Q37.0472 699.377 37.0472 706.252 Q37.0472 709.116 36.4743 712.235 Q35.9332 715.323 34.8192 718.76 L28.7718 718.76 Q30.4587 715.514 31.318 712.363 Q32.1456 709.212 32.1456 706.124 Q32.1456 701.987 30.7451 699.759 Q29.3129 697.531 26.7347 697.531 Q24.3476 697.531 23.0745 699.154 Q21.8013 700.745 20.6237 706.188 L20.1462 708.225 Q19.0004 713.668 16.6451 716.087 Q14.258 718.506 10.1202 718.506 Q5.09134 718.506 2.35408 714.941 Q-0.38317 711.376 -0.38317 704.819 Q-0.38317 701.573 0.0942579 698.708 Q0.571686 695.844 1.52654 693.425 Z" fill="#000000" fill-rule="nonzero" fill-opacity="1" /><path clip-path="url(#clip031)" d="M1002.71 1454.11 L1007.21 1451.93 L1011.19 1449.76 L1014.68 1447.58 L1017.7 1445.4 L1020.26 1443.23 L1022.4 1441.05 L1024.15 1438.88 L1025.53 1436.7 L1026.59 1434.52 L1027.35 1432.35 L1027.85 1430.17 L1028.1 1427.99 L1028.13 1425.82 L1027.96 1423.64 L1027.61 1421.46 L1027.08 1419.29 L1026.38 1417.11 L1025.5 1414.93 L1024.44 1412.76 L1023.18 1410.58 L1021.72 1408.4 L1020.03 1406.23 L1018.09 1404.05 L1015.89 1401.87 L1013.4 1399.7 L1010.61 1397.52 L1007.49 1395.34 L1004.04 1393.17 L1000.25 1390.99 L996.102 1388.81 L991.611 1386.64 L986.782 1384.46 L981.629 1382.28 L976.174 1380.11 L970.443 1377.93 L964.471 1375.75 L958.297 1373.58 L951.966 1371.4 L945.525 1369.22 L939.028 1367.05 L932.527 1364.87 L926.078 1362.69 L919.735 1360.52 L913.553 1358.34 L907.583 1356.17 L901.872 1353.99 L896.462 1351.81 L891.393 1349.64 L886.695 1347.46 L882.393 1345.28 L878.504 1343.11 L875.038 1340.93 L871.995 1338.75 L869.371 1336.58 L867.151 1334.4 L865.314 1332.22 L863.833 1330.05 L862.674 1327.87 L861.799 1325.69 L861.164 1323.52 L860.722 1321.34 L860.425 1319.16 L860.222 1316.99 L860.062 1314.81 L859.896 1312.63 L859.676 1310.46 L859.356 1308.28 L858.894 1306.1 L858.252 1303.93 L857.397 1301.75 L856.301 1299.57 L615.468 1299.57 L614.372 1301.75 L613.517 1303.93 L612.875 1306.1 L612.413 1308.28 L612.093 1310.46 L611.873 1312.63 L611.707 1314.81 L611.548 1316.99 L611.345 1319.16 L611.047 1321.34 L610.606 1323.52 L609.97 1325.69 L609.095 1327.87 L607.936 1330.05 L606.455 1332.22 L604.618 1334.4 L602.398 1336.58 L599.774 1338.75 L596.731 1340.93 L593.265 1343.11 L589.376 1345.28 L585.074 1347.46 L580.376 1349.64 L575.307 1351.81 L569.897 1353.99 L564.186 1356.17 L558.216 1358.34 L552.034 1360.52 L545.691 1362.69 L539.242 1364.87 L532.741 1367.05 L526.244 1369.22 L519.803 1371.4 L513.472 1373.58 L507.298 1375.75 L501.326 1377.93 L495.595 1380.11 L490.14 1382.28 L484.987 1384.46 L480.158 1386.64 L475.667 1388.81 L471.523 1390.99 L467.727 1393.17 L464.275 1395.34 L461.159 1397.52 L458.365 1399.7 L455.877 1401.87 L453.675 1404.05 L451.74 1406.23 L450.05 1408.4 L448.586 1410.58 L447.331 1412.76 L446.269 1414.93 L445.39 1417.11 L444.687 1419.29 L444.157 1421.46 L443.805 1423.64 L443.639 1425.82 L443.672 1427.99 L443.924 1430.17 L444.416 1432.35 L445.177 1434.52 L446.235 1436.7 L447.621 1438.88 L449.369 1441.05 L451.51 1443.23 L454.073 1445.4 L457.088 1447.58 L460.578 1449.76 L464.562 1451.93 L469.055 1454.11 L1002.71 1454.11  Z" fill="#009af9" fill-rule="evenodd" fill-opacity="1"/>
<polyline clip-path="url(#clip031)" style="stroke:#000000; stroke-linecap:round; stroke-linejoin:round; stroke-width:4; stroke-opacity:1; fill:none" points="1002.71,1454.11 1007.21,1451.93 1011.19,1449.76 1014.68,1447.58 1017.7,1445.4 1020.26,1443.23 1022.4,1441.05 1024.15,1438.88 1025.53,1436.7 1026.59,1434.52 1027.35,1432.35 1027.85,1430.17 1028.1,1427.99 1028.13,1425.82 1027.96,1423.64 1027.61,1421.46 1027.08,1419.29 1026.38,1417.11 1025.5,1414.93 1024.44,1412.76 1023.18,1410.58 1021.72,1408.4 1020.03,1406.23 1018.09,1404.05 1015.89,1401.87 1013.4,1399.7 1010.61,1397.52 1007.49,1395.34 1004.04,1393.17 1000.25,1390.99 996.102,1388.81 991.611,1386.64 986.782,1384.46 981.629,1382.28 976.174,1380.11 970.443,1377.93 964.471,1375.75 958.297,1373.58 951.966,1371.4 945.525,1369.22 939.028,1367.05 932.527,1364.87 926.078,1362.69 919.735,1360.52 913.553,1358.34 907.583,1356.17 901.872,1353.99 896.462,1351.81 891.393,1349.64 886.695,1347.46 882.393,1345.28 878.504,1343.11 875.038,1340.93 871.995,1338.75 869.371,1336.58 867.151,1334.4 865.314,1332.22 863.833,1330.05 862.674,1327.87 861.799,1325.69 861.164,1323.52 860.722,1321.34 860.425,1319.16 860.222,1316.99 860.062,1314.81 859.896,1312.63 859.676,1310.46 859.356,1308.28 858.894,1306.1 858.252,1303.93 857.397,1301.75 856.301,1299.57 615.468,1299.57 614.372,1301.75 613.517,1303.93 612.875,1306.1 612.413,1308.28 612.093,1310.46 611.873,1312.63 611.707,1314.81 611.548,1316.99 611.345,1319.16 611.047,1321.34 610.606,1323.52 609.97,1325.69 609.095,1327.87 607.936,1330.05 606.455,1332.22 604.618,1334.4 602.398,1336.58 599.774,1338.75 596.731,1340.93 593.265,1343.11 589.376,1345.28 585.074,1347.46 580.376,1349.64 575.307,1351.81 569.897,1353.99 564.186,1356.17 558.216,1358.34 552.034,1360.52 545.691,1362.69 539.242,1364.87 532.741,1367.05 526.244,1369.22 519.803,1371.4 513.472,1373.58 507.298,1375.75 501.326,1377.93 495.595,1380.11 490.14,1382.28 484.987,1384.46 480.158,1386.64 475.667,1388.81 471.523,1390.99 467.727,1393.17 464.275,1395.34 461.159,1397.52 458.365,1399.7 455.877,1401.87 453.675,1404.05 451.74,1406.23 450.05,1408.4 448.586,1410.58 447.331,1412.76 446.269,1414.93 445.39,1417.11 444.687,1419.29 444.157,1421.46 443.805,1423.64 443.639,1425.82 443.672,1427.99 443.924,1430.17 444.416,1432.35 445.177,1434.52 446.235,1436.7 447.621,1438.88 449.369,1441.05 451.51,1443.23 454.073,1445.4 457.088,1447.58 460.578,1449.76 464.562,1451.93 469.055,1454.11 1002.71,1454.11 "/>
<path clip-path="url(#clip031)" d="M1962.45 486.18 L1969.52 485.489 L1975.67 484.797 L1980.87 484.106 L1985.14 483.414 L1988.5 482.723 L1991.03 482.032 L1992.81 481.34 L1993.95 480.649 L1994.58 479.957 L1994.84 479.266 L1994.91 478.574 L1994.94 477.883 L1995.11 477.192 L1995.58 476.5 L1996.5 475.809 L1997.99 475.117 L2000.15 474.426 L2003.05 473.734 L2006.67 473.043 L2010.99 472.352 L2015.91 471.66 L2021.28 470.969 L2026.91 470.277 L2032.55 469.586 L2037.93 468.894 L2042.76 468.203 L2046.74 467.512 L2049.57 466.82 L2050.99 466.129 L2050.76 465.437 L2048.71 464.746 L2044.71 464.054 L2038.72 463.363 L2030.74 462.672 L2020.87 461.98 L2009.26 461.289 L1996.12 460.597 L1981.69 459.906 L1966.28 459.214 L1950.18 458.523 L1933.7 457.832 L1917.17 457.14 L1900.85 456.449 L1885.01 455.757 L1869.88 455.066 L1855.63 454.374 L1842.4 453.683 L1830.29 452.992 L1819.34 452.3 L1809.57 451.609 L1800.97 450.917 L1793.48 450.226 L1787.05 449.534 L1781.58 448.843 L1776.99 448.152 L1773.18 447.46 L1770.06 446.769 L1767.52 446.077 L1765.49 445.386 L1763.88 444.694 L1762.61 444.003 L1761.63 443.312 L1760.88 442.62 L1760.31 441.929 L1759.88 441.237 L1759.56 440.546 L1759.32 439.854 L1759.15 439.163 L1759.03 438.472 L1758.94 437.78 L1758.88 437.089 L1758.84 436.397 L1758.81 435.706 L1758.8 435.014 L1758.79 434.323 L1758.79 433.632 L1758.79 432.94 L1758.81 432.249 L1758.83 431.557 L1758.87 430.866 L1758.92 430.175 L1758.99 429.483 L1759.1 428.792 L1759.24 428.1 L1759.43 427.409 L1759.68 426.717 L1760.02 426.026 L1760.46 425.335 L1761.04 424.643 L1761.77 423.952 L1762.71 423.26 L1763.88 422.569 L1765.32 421.877 L1767.1 421.186 L1769.25 420.495 L1771.83 419.803 L1774.87 419.112 L1778.43 418.42 L1782.54 417.729 L1787.23 417.037 L1792.51 416.346 L1798.37 415.655 L1804.79 414.963 L1811.73 414.272 L1819.11 413.58 L1826.86 412.889 L1834.84 412.197 L1842.92 411.506 L1850.95 410.815 L1858.75 410.123 L1866.15 409.432 L1872.97 408.74 L1879.02 408.049 L1884.16 407.357 L1888.24 406.666 L1891.13 405.975 L1892.76 405.283 L1624.72 405.283 L1626.36 405.975 L1629.25 406.666 L1633.33 407.357 L1638.46 408.049 L1644.52 408.74 L1651.34 409.432 L1658.74 410.123 L1666.54 410.815 L1674.57 411.506 L1682.65 412.197 L1690.63 412.889 L1698.37 413.58 L1705.76 414.272 L1712.7 414.963 L1719.12 415.655 L1724.98 416.346 L1730.26 417.037 L1734.95 417.729 L1739.06 418.42 L1742.62 419.112 L1745.66 419.803 L1748.24 420.495 L1750.39 421.186 L1752.16 421.877 L1753.61 422.569 L1754.78 423.26 L1755.71 423.952 L1756.45 424.643 L1757.02 425.335 L1757.47 426.026 L1757.81 426.717 L1758.06 427.409 L1758.25 428.1 L1758.39 428.792 L1758.5 429.483 L1758.57 430.175 L1758.62 430.866 L1758.66 431.557 L1758.68 432.249 L1758.7 432.94 L1758.7 433.632 L1758.7 434.323 L1758.69 435.014 L1758.68 435.706 L1758.65 436.397 L1758.61 437.089 L1758.55 437.78 L1758.46 438.472 L1758.34 439.163 L1758.17 439.854 L1757.93 440.546 L1757.61 441.237 L1757.18 441.929 L1756.61 442.62 L1755.86 443.312 L1754.87 444.003 L1753.61 444.694 L1752 445.386 L1749.96 446.077 L1747.43 446.769 L1744.31 447.46 L1740.5 448.152 L1735.91 448.843 L1730.44 449.534 L1724.01 450.226 L1716.52 450.917 L1707.92 451.609 L1698.15 452.3 L1687.2 452.992 L1675.09 453.683 L1661.86 454.374 L1647.61 455.066 L1632.47 455.757 L1616.64 456.449 L1600.32 457.14 L1583.79 457.832 L1567.31 458.523 L1551.21 459.214 L1535.8 459.906 L1521.37 460.597 L1508.23 461.289 L1496.61 461.98 L1486.75 462.672 L1478.77 463.363 L1472.77 464.054 L1468.78 464.746 L1466.72 465.437 L1466.5 466.129 L1467.92 466.82 L1470.75 467.512 L1474.73 468.203 L1479.56 468.894 L1484.94 469.586 L1490.58 470.277 L1496.21 470.969 L1501.58 471.66 L1506.5 472.352 L1510.82 473.043 L1514.44 473.734 L1517.33 474.426 L1519.5 475.117 L1520.99 475.809 L1521.91 476.5 L1522.38 477.192 L1522.55 477.883 L1522.58 478.574 L1522.65 479.266 L1522.91 479.957 L1523.54 480.649 L1524.68 481.34 L1526.46 482.032 L1528.98 482.723 L1532.35 483.414 L1536.62 484.106 L1541.82 484.797 L1547.96 485.489 L1555.04 486.18 L1962.45 486.18  Z" fill="#e26f46" fill-rule="evenodd" fill-opacity="1"/>
<polyline clip-path="url(#clip031)" style="stroke:#000000; stroke-linecap:round; stroke-linejoin:round; stroke-width:4; stroke-opacity:1; fill:none" points="1962.45,486.18 1969.52,485.489 1975.67,484.797 1980.87,484.106 1985.14,483.414 1988.5,482.723 1991.03,482.032 1992.81,481.34 1993.95,480.649 1994.58,479.957 1994.84,479.266 1994.91,478.574 1994.94,477.883 1995.11,477.192 1995.58,476.5 1996.5,475.809 1997.99,475.117 2000.15,474.426 2003.05,473.734 2006.67,473.043 2010.99,472.352 2015.91,471.66 2021.28,470.969 2026.91,470.277 2032.55,469.586 2037.93,468.894 2042.76,468.203 2046.74,467.512 2049.57,466.82 2050.99,466.129 2050.76,465.437 2048.71,464.746 2044.71,464.054 2038.72,463.363 2030.74,462.672 2020.87,461.98 2009.26,461.289 1996.12,460.597 1981.69,459.906 1966.28,459.214 1950.18,458.523 1933.7,457.832 1917.17,457.14 1900.85,456.449 1885.01,455.757 1869.88,455.066 1855.63,454.374 1842.4,453.683 1830.29,452.992 1819.34,452.3 1809.57,451.609 1800.97,450.917 1793.48,450.226 1787.05,449.534 1781.58,448.843 1776.99,448.152 1773.18,447.46 1770.06,446.769 1767.52,446.077 1765.49,445.386 1763.88,444.694 1762.61,444.003 1761.63,443.312 1760.88,442.62 1760.31,441.929 1759.88,441.237 1759.56,440.546 1759.32,439.854 1759.15,439.163 1759.03,438.472 1758.94,437.78 1758.88,437.089 1758.84,436.397 1758.81,435.706 1758.8,435.014 1758.79,434.323 1758.79,433.632 1758.79,432.94 1758.81,432.249 1758.83,431.557 1758.87,430.866 1758.92,430.175 1758.99,429.483 1759.1,428.792 1759.24,428.1 1759.43,427.409 1759.68,426.717 1760.02,426.026 1760.46,425.335 1761.04,424.643 1761.77,423.952 1762.71,423.26 1763.88,422.569 1765.32,421.877 1767.1,421.186 1769.25,420.495 1771.83,419.803 1774.87,419.112 1778.43,418.42 1782.54,417.729 1787.23,417.037 1792.51,416.346 1798.37,415.655 1804.79,414.963 1811.73,414.272 1819.11,413.58 1826.86,412.889 1834.84,412.197 1842.92,411.506 1850.95,410.815 1858.75,410.123 1866.15,409.432 1872.97,408.74 1879.02,408.049 1884.16,407.357 1888.24,406.666 1891.13,405.975 1892.76,405.283 1624.72,405.283 1626.36,405.975 1629.25,406.666 1633.33,407.357 1638.46,408.049 1644.52,408.74 1651.34,409.432 1658.74,410.123 1666.54,410.815 1674.57,411.506 1682.65,412.197 1690.63,412.889 1698.37,413.58 1705.76,414.272 1712.7,414.963 1719.12,415.655 1724.98,416.346 1730.26,417.037 1734.95,417.729 1739.06,418.42 1742.62,419.112 1745.66,419.803 1748.24,420.495 1750.39,421.186 1752.16,421.877 1753.61,422.569 1754.78,423.26 1755.71,423.952 1756.45,424.643 1757.02,425.335 1757.47,426.026 1757.81,426.717 1758.06,427.409 1758.25,428.1 1758.39,428.792 1758.5,429.483 1758.57,430.175 1758.62,430.866 1758.66,431.557 1758.68,432.249 1758.7,432.94 1758.7,433.632 1758.7,434.323 1758.69,435.014 1758.68,435.706 1758.65,436.397 1758.61,437.089 1758.55,437.78 1758.46,438.472 1758.34,439.163 1758.17,439.854 1757.93,440.546 1757.61,441.237 1757.18,441.929 1756.61,442.62 1755.86,443.312 1754.87,444.003 1753.61,444.694 1752,445.386 1749.96,446.077 1747.43,446.769 1744.31,447.46 1740.5,448.152 1735.91,448.843 1730.44,449.534 1724.01,450.226 1716.52,450.917 1707.92,451.609 1698.15,452.3 1687.2,452.992 1675.09,453.683 1661.86,454.374 1647.61,455.066 1632.47,455.757 1616.64,456.449 1600.32,457.14 1583.79,457.832 1567.31,458.523 1551.21,459.214 1535.8,459.906 1521.37,460.597 1508.23,461.289 1496.61,461.98 1486.75,462.672 1478.77,463.363 1472.77,464.054 1468.78,464.746 1466.72,465.437 1466.5,466.129 1467.92,466.82 1470.75,467.512 1474.73,468.203 1479.56,468.894 1484.94,469.586 1490.58,470.277 1496.21,470.969 1501.58,471.66 1506.5,472.352 1510.82,473.043 1514.44,473.734 1517.33,474.426 1519.5,475.117 1520.99,475.809 1521.91,476.5 1522.38,477.192 1522.55,477.883 1522.58,478.574 1522.65,479.266 1522.91,479.957 1523.54,480.649 1524.68,481.34 1526.46,482.032 1528.98,482.723 1532.35,483.414 1536.62,484.106 1541.82,484.797 1547.96,485.489 1555.04,486.18 1962.45,486.18 "/>
<path clip-path="url(#clip031)" d="M3015.66 219.15 L3024.45 217.711 L3032.67 216.272 L3040.24 214.833 L3047.13 213.395 L3053.28 211.956 L3058.66 210.517 L3063.24 209.078 L3067 207.64 L3069.94 206.201 L3072.05 204.762 L3073.35 203.323 L3073.85 201.884 L3073.59 200.446 L3072.6 199.007 L3070.92 197.568 L3068.6 196.129 L3065.69 194.691 L3062.25 193.252 L3058.32 191.813 L3053.97 190.374 L3049.26 188.935 L3044.22 187.497 L3038.92 186.058 L3033.4 184.619 L3027.68 183.18 L3021.82 181.742 L3015.84 180.303 L3009.75 178.864 L3003.58 177.425 L2997.34 175.986 L2991.03 174.548 L2984.65 173.109 L2978.21 171.67 L2971.69 170.231 L2965.11 168.792 L2958.45 167.354 L2951.71 165.915 L2944.9 164.476 L2938.01 163.037 L2931.05 161.599 L2924.03 160.16 L2916.97 158.721 L2909.89 157.282 L2902.81 155.843 L2895.76 154.405 L2888.77 152.966 L2881.87 151.527 L2875.1 150.088 L2868.49 148.65 L2862.09 147.211 L2855.94 145.772 L2850.06 144.333 L2844.5 142.894 L2839.28 141.456 L2834.45 140.017 L2830.03 138.578 L2826.04 137.139 L2822.5 135.701 L2819.45 134.262 L2816.88 132.823 L2814.81 131.384 L2813.25 129.945 L2812.21 128.507 L2811.69 127.068 L2811.68 125.629 L2812.17 124.19 L2813.17 122.752 L2814.65 121.313 L2816.6 119.874 L2818.99 118.435 L2821.81 116.996 L2825.01 115.558 L2828.57 114.119 L2832.43 112.68 L2836.56 111.241 L2840.91 109.803 L2845.42 108.364 L2850.02 106.925 L2854.67 105.486 L2859.29 104.047 L2863.81 102.609 L2868.17 101.17 L2872.3 99.731 L2876.14 98.2923 L2879.63 96.8535 L2882.7 95.4147 L2885.31 93.9759 L2887.42 92.5371 L2888.98 91.0984 L2889.96 89.6596 L2890.37 88.2208 L2672.84 88.2208 L2673.24 89.6596 L2674.23 91.0984 L2675.79 92.5371 L2677.9 93.9759 L2680.51 95.4147 L2683.58 96.8535 L2687.06 98.2923 L2690.9 99.731 L2695.04 101.17 L2699.4 102.609 L2703.92 104.047 L2708.54 105.486 L2713.18 106.925 L2717.79 108.364 L2722.3 109.803 L2726.64 111.241 L2730.78 112.68 L2734.64 114.119 L2738.2 115.558 L2741.4 116.996 L2744.21 118.435 L2746.61 119.874 L2748.56 121.313 L2750.04 122.752 L2751.03 124.19 L2751.53 125.629 L2751.52 127.068 L2750.99 128.507 L2749.95 129.945 L2748.4 131.384 L2746.33 132.823 L2743.76 134.262 L2740.7 135.701 L2737.17 137.139 L2733.18 138.578 L2728.76 140.017 L2723.93 141.456 L2718.71 142.894 L2713.15 144.333 L2707.27 145.772 L2701.11 147.211 L2694.71 148.65 L2688.11 150.088 L2681.34 151.527 L2674.44 152.966 L2667.45 154.405 L2660.39 155.843 L2653.31 157.282 L2646.23 158.721 L2639.18 160.16 L2632.16 161.599 L2625.2 163.037 L2618.31 164.476 L2611.5 165.915 L2604.76 167.354 L2598.1 168.792 L2591.51 170.231 L2585 171.67 L2578.56 173.109 L2572.18 174.548 L2565.87 175.986 L2559.63 177.425 L2553.46 178.864 L2547.37 180.303 L2541.38 181.742 L2535.52 183.18 L2529.81 184.619 L2524.29 186.058 L2518.98 187.497 L2513.95 188.935 L2509.23 190.374 L2504.89 191.813 L2500.96 193.252 L2497.52 194.691 L2494.61 196.129 L2492.29 197.568 L2490.61 199.007 L2489.62 200.446 L2489.36 201.884 L2489.86 203.323 L2491.16 204.762 L2493.27 206.201 L2496.21 207.64 L2499.97 209.078 L2504.55 210.517 L2509.93 211.956 L2516.08 213.395 L2522.96 214.833 L2530.54 216.272 L2538.75 217.711 L2547.54 219.15 L3015.66 219.15  Z" fill="#3da44d" fill-rule="evenodd" fill-opacity="1"/>
<polyline clip-path="url(#clip031)" style="stroke:#000000; stroke-linecap:round; stroke-linejoin:round; stroke-width:4; stroke-opacity:1; fill:none" points="3015.66,219.15 3024.45,217.711 3032.67,216.272 3040.24,214.833 3047.13,213.395 3053.28,211.956 3058.66,210.517 3063.24,209.078 3067,207.64 3069.94,206.201 3072.05,204.762 3073.35,203.323 3073.85,201.884 3073.59,200.446 3072.6,199.007 3070.92,197.568 3068.6,196.129 3065.69,194.691 3062.25,193.252 3058.32,191.813 3053.97,190.374 3049.26,188.935 3044.22,187.497 3038.92,186.058 3033.4,184.619 3027.68,183.18 3021.82,181.742 3015.84,180.303 3009.75,178.864 3003.58,177.425 2997.34,175.986 2991.03,174.548 2984.65,173.109 2978.21,171.67 2971.69,170.231 2965.11,168.792 2958.45,167.354 2951.71,165.915 2944.9,164.476 2938.01,163.037 2931.05,161.599 2924.03,160.16 2916.97,158.721 2909.89,157.282 2902.81,155.843 2895.76,154.405 2888.77,152.966 2881.87,151.527 2875.1,150.088 2868.49,148.65 2862.09,147.211 2855.94,145.772 2850.06,144.333 2844.5,142.894 2839.28,141.456 2834.45,140.017 2830.03,138.578 2826.04,137.139 2822.5,135.701 2819.45,134.262 2816.88,132.823 2814.81,131.384 2813.25,129.945 2812.21,128.507 2811.69,127.068 2811.68,125.629 2812.17,124.19 2813.17,122.752 2814.65,121.313 2816.6,119.874 2818.99,118.435 2821.81,116.996 2825.01,115.558 2828.57,114.119 2832.43,112.68 2836.56,111.241 2840.91,109.803 2845.42,108.364 2850.02,106.925 2854.67,105.486 2859.29,104.047 2863.81,102.609 2868.17,101.17 2872.3,99.731 2876.14,98.2923 2879.63,96.8535 2882.7,95.4147 2885.31,93.9759 2887.42,92.5371 2888.98,91.0984 2889.96,89.6596 2890.37,88.2208 2672.84,88.2208 2673.24,89.6596 2674.23,91.0984 2675.79,92.5371 2677.9,93.9759 2680.51,95.4147 2683.58,96.8535 2687.06,98.2923 2690.9,99.731 2695.04,101.17 2699.4,102.609 2703.92,104.047 2708.54,105.486 2713.18,106.925 2717.79,108.364 2722.3,109.803 2726.64,111.241 2730.78,112.68 2734.64,114.119 2738.2,115.558 2741.4,116.996 2744.21,118.435 2746.61,119.874 2748.56,121.313 2750.04,122.752 2751.03,124.19 2751.53,125.629 2751.52,127.068 2750.99,128.507 2749.95,129.945 2748.4,131.384 2746.33,132.823 2743.76,134.262 2740.7,135.701 2737.17,137.139 2733.18,138.578 2728.76,140.017 2723.93,141.456 2718.71,142.894 2713.15,144.333 2707.27,145.772 2701.11,147.211 2694.71,148.65 2688.11,150.088 2681.34,151.527 2674.44,152.966 2667.45,154.405 2660.39,155.843 2653.31,157.282 2646.23,158.721 2639.18,160.16 2632.16,161.599 2625.2,163.037 2618.31,164.476 2611.5,165.915 2604.76,167.354 2598.1,168.792 2591.51,170.231 2585,171.67 2578.56,173.109 2572.18,174.548 2565.87,175.986 2559.63,177.425 2553.46,178.864 2547.37,180.303 2541.38,181.742 2535.52,183.18 2529.81,184.619 2524.29,186.058 2518.98,187.497 2513.95,188.935 2509.23,190.374 2504.89,191.813 2500.96,193.252 2497.52,194.691 2494.61,196.129 2492.29,197.568 2490.61,199.007 2489.62,200.446 2489.36,201.884 2489.86,203.323 2491.16,204.762 2493.27,206.201 2496.21,207.64 2499.97,209.078 2504.55,210.517 2509.93,211.956 2516.08,213.395 2522.96,214.833 2530.54,216.272 2538.75,217.711 2547.54,219.15 3015.66,219.15 "/>
</svg>
