<?xml version="1.0" encoding="utf-8"?>
<svg xmlns="http://www.w3.org/2000/svg" xmlns:xlink="http://www.w3.org/1999/xlink" width="600" height="400" viewBox="0 0 2400 1600">
<defs>
  <clipPath id="clip730">
    <rect x="0" y="0" width="2400" height="1600"/>
  </clipPath>
</defs>
<path clip-path="url(#clip730)" d="M0 1600 L2400 1600 L2400 0 L0 0  Z" fill="#ffffff" fill-rule="evenodd" fill-opacity="1"/>
<defs>
  <clipPath id="clip731">
    <rect x="394" y="47" width="1959" height="1377"/>
  </clipPath>
</defs>
<path clip-path="url(#clip730)" d="M394.884 1423.18 L2352.76 1423.18 L2352.76 47.2441 L394.884 47.2441  Z" fill="#ffffff" fill-rule="evenodd" fill-opacity="1"/>
<polyline clip-path="url(#clip731)" style="stroke:#000000; stroke-linecap:round; stroke-linejoin:round; stroke-width:2; stroke-opacity:0.1; fill:none" points="758.137,1423.18 758.137,47.2441 "/>
<polyline clip-path="url(#clip731)" style="stroke:#000000; stroke-linecap:round; stroke-linejoin:round; stroke-width:2; stroke-opacity:0.1; fill:none" points="1142.94,1423.18 1142.94,47.2441 "/>
<polyline clip-path="url(#clip731)" style="stroke:#000000; stroke-linecap:round; stroke-linejoin:round; stroke-width:2; stroke-opacity:0.1; fill:none" points="1527.74,1423.18 1527.74,47.2441 "/>
<polyline clip-path="url(#clip731)" style="stroke:#000000; stroke-linecap:round; stroke-linejoin:round; stroke-width:2; stroke-opacity:0.1; fill:none" points="1912.54,1423.18 1912.54,47.2441 "/>
<polyline clip-path="url(#clip731)" style="stroke:#000000; stroke-linecap:round; stroke-linejoin:round; stroke-width:2; stroke-opacity:0.1; fill:none" points="2297.34,1423.18 2297.34,47.2441 "/>
<polyline clip-path="url(#clip731)" style="stroke:#000000; stroke-linecap:round; stroke-linejoin:round; stroke-width:2; stroke-opacity:0.1; fill:none" points="394.884,1273.85 2352.76,1273.85 "/>
<polyline clip-path="url(#clip731)" style="stroke:#000000; stroke-linecap:round; stroke-linejoin:round; stroke-width:2; stroke-opacity:0.1; fill:none" points="394.884,1096.84 2352.76,1096.84 "/>
<polyline clip-path="url(#clip731)" style="stroke:#000000; stroke-linecap:round; stroke-linejoin:round; stroke-width:2; stroke-opacity:0.1; fill:none" points="394.884,919.837 2352.76,919.837 "/>
<polyline clip-path="url(#clip731)" style="stroke:#000000; stroke-linecap:round; stroke-linejoin:round; stroke-width:2; stroke-opacity:0.1; fill:none" points="394.884,742.831 2352.76,742.831 "/>
<polyline clip-path="url(#clip731)" style="stroke:#000000; stroke-linecap:round; stroke-linejoin:round; stroke-width:2; stroke-opacity:0.1; fill:none" points="394.884,565.824 2352.76,565.824 "/>
<polyline clip-path="url(#clip731)" style="stroke:#000000; stroke-linecap:round; stroke-linejoin:round; stroke-width:2; stroke-opacity:0.1; fill:none" points="394.884,388.818 2352.76,388.818 "/>
<polyline clip-path="url(#clip731)" style="stroke:#000000; stroke-linecap:round; stroke-linejoin:round; stroke-width:2; stroke-opacity:0.1; fill:none" points="394.884,211.812 2352.76,211.812 "/>
<polyline clip-path="url(#clip730)" style="stroke:#000000; stroke-linecap:round; stroke-linejoin:round; stroke-width:4; stroke-opacity:1; fill:none" points="394.884,1423.18 2352.76,1423.18 "/>
<polyline clip-path="url(#clip730)" style="stroke:#000000; stroke-linecap:round; stroke-linejoin:round; stroke-width:4; stroke-opacity:1; fill:none" points="758.137,1423.18 758.137,1404.28 "/>
<polyline clip-path="url(#clip730)" style="stroke:#000000; stroke-linecap:round; stroke-linejoin:round; stroke-width:4; stroke-opacity:1; fill:none" points="1142.94,1423.18 1142.94,1404.28 "/>
<polyline clip-path="url(#clip730)" style="stroke:#000000; stroke-linecap:round; stroke-linejoin:round; stroke-width:4; stroke-opacity:1; fill:none" points="1527.74,1423.18 1527.74,1404.28 "/>
<polyline clip-path="url(#clip730)" style="stroke:#000000; stroke-linecap:round; stroke-linejoin:round; stroke-width:4; stroke-opacity:1; fill:none" points="1912.54,1423.18 1912.54,1404.28 "/>
<polyline clip-path="url(#clip730)" style="stroke:#000000; stroke-linecap:round; stroke-linejoin:round; stroke-width:4; stroke-opacity:1; fill:none" points="2297.34,1423.18 2297.34,1404.28 "/>
<path clip-path="url(#clip730)" d="M721.829 1481.64 L738.149 1481.64 L738.149 1485.58 L716.204 1485.58 L716.204 1481.64 Q718.866 1478.89 723.45 1474.26 Q728.056 1469.61 729.237 1468.27 Q731.482 1465.74 732.362 1464.01 Q733.265 1462.25 733.265 1460.56 Q733.265 1457.8 731.32 1456.07 Q729.399 1454.33 726.297 1454.33 Q724.098 1454.33 721.644 1455.09 Q719.214 1455.86 716.436 1457.41 L716.436 1452.69 Q719.26 1451.55 721.714 1450.97 Q724.167 1450.39 726.204 1450.39 Q731.575 1450.39 734.769 1453.08 Q737.964 1455.77 737.964 1460.26 Q737.964 1462.39 737.153 1464.31 Q736.366 1466.2 734.26 1468.8 Q733.681 1469.47 730.579 1472.69 Q727.478 1475.88 721.829 1481.64 Z" fill="#000000" fill-rule="nonzero" fill-opacity="1" /><path clip-path="url(#clip730)" d="M757.963 1454.1 Q754.352 1454.1 752.524 1457.66 Q750.718 1461.2 750.718 1468.33 Q750.718 1475.44 752.524 1479.01 Q754.352 1482.55 757.963 1482.55 Q761.598 1482.55 763.403 1479.01 Q765.232 1475.44 765.232 1468.33 Q765.232 1461.2 763.403 1457.66 Q761.598 1454.1 757.963 1454.1 M757.963 1450.39 Q763.774 1450.39 766.829 1455 Q769.908 1459.58 769.908 1468.33 Q769.908 1477.06 766.829 1481.67 Q763.774 1486.25 757.963 1486.25 Q752.153 1486.25 749.075 1481.67 Q746.019 1477.06 746.019 1468.33 Q746.019 1459.58 749.075 1455 Q752.153 1450.39 757.963 1450.39 Z" fill="#000000" fill-rule="nonzero" fill-opacity="1" /><path clip-path="url(#clip730)" d="M788.125 1454.1 Q784.514 1454.1 782.686 1457.66 Q780.88 1461.2 780.88 1468.33 Q780.88 1475.44 782.686 1479.01 Q784.514 1482.55 788.125 1482.55 Q791.76 1482.55 793.565 1479.01 Q795.394 1475.44 795.394 1468.33 Q795.394 1461.2 793.565 1457.66 Q791.76 1454.1 788.125 1454.1 M788.125 1450.39 Q793.935 1450.39 796.991 1455 Q800.07 1459.58 800.07 1468.33 Q800.07 1477.06 796.991 1481.67 Q793.935 1486.25 788.125 1486.25 Q782.315 1486.25 779.236 1481.67 Q776.181 1477.06 776.181 1468.33 Q776.181 1459.58 779.236 1455 Q782.315 1450.39 788.125 1450.39 Z" fill="#000000" fill-rule="nonzero" fill-opacity="1" /><path clip-path="url(#clip730)" d="M1116.03 1455.09 L1104.22 1473.54 L1116.03 1473.54 L1116.03 1455.09 M1114.8 1451.02 L1120.68 1451.02 L1120.68 1473.54 L1125.61 1473.54 L1125.61 1477.43 L1120.68 1477.43 L1120.68 1485.58 L1116.03 1485.58 L1116.03 1477.43 L1100.43 1477.43 L1100.43 1472.92 L1114.8 1451.02 Z" fill="#000000" fill-rule="nonzero" fill-opacity="1" /><path clip-path="url(#clip730)" d="M1143.34 1454.1 Q1139.73 1454.1 1137.9 1457.66 Q1136.1 1461.2 1136.1 1468.33 Q1136.1 1475.44 1137.9 1479.01 Q1139.73 1482.55 1143.34 1482.55 Q1146.98 1482.55 1148.78 1479.01 Q1150.61 1475.44 1150.61 1468.33 Q1150.61 1461.2 1148.78 1457.66 Q1146.98 1454.1 1143.34 1454.1 M1143.34 1450.39 Q1149.15 1450.39 1152.21 1455 Q1155.29 1459.58 1155.29 1468.33 Q1155.29 1477.06 1152.21 1481.67 Q1149.15 1486.25 1143.34 1486.25 Q1137.53 1486.25 1134.46 1481.67 Q1131.4 1477.06 1131.4 1468.33 Q1131.4 1459.58 1134.46 1455 Q1137.53 1450.39 1143.34 1450.39 Z" fill="#000000" fill-rule="nonzero" fill-opacity="1" /><path clip-path="url(#clip730)" d="M1173.51 1454.1 Q1169.89 1454.1 1168.07 1457.66 Q1166.26 1461.2 1166.26 1468.33 Q1166.26 1475.44 1168.07 1479.01 Q1169.89 1482.55 1173.51 1482.55 Q1177.14 1482.55 1178.95 1479.01 Q1180.77 1475.44 1180.77 1468.33 Q1180.77 1461.2 1178.95 1457.66 Q1177.14 1454.1 1173.51 1454.1 M1173.51 1450.39 Q1179.32 1450.39 1182.37 1455 Q1185.45 1459.58 1185.45 1468.33 Q1185.45 1477.06 1182.37 1481.67 Q1179.32 1486.25 1173.51 1486.25 Q1167.7 1486.25 1164.62 1481.67 Q1161.56 1477.06 1161.56 1468.33 Q1161.56 1459.58 1164.62 1455 Q1167.7 1450.39 1173.51 1450.39 Z" fill="#000000" fill-rule="nonzero" fill-opacity="1" /><path clip-path="url(#clip730)" d="M1498.06 1466.44 Q1494.92 1466.44 1493.07 1468.59 Q1491.24 1470.74 1491.24 1474.49 Q1491.24 1478.22 1493.07 1480.39 Q1494.92 1482.55 1498.06 1482.55 Q1501.21 1482.55 1503.04 1480.39 Q1504.89 1478.22 1504.89 1474.49 Q1504.89 1470.74 1503.04 1468.59 Q1501.21 1466.44 1498.06 1466.44 M1507.35 1451.78 L1507.35 1456.04 Q1505.59 1455.21 1503.78 1454.77 Q1502 1454.33 1500.24 1454.33 Q1495.61 1454.33 1493.16 1457.45 Q1490.73 1460.58 1490.38 1466.9 Q1491.75 1464.89 1493.81 1463.82 Q1495.87 1462.73 1498.34 1462.73 Q1503.55 1462.73 1506.56 1465.9 Q1509.59 1469.05 1509.59 1474.49 Q1509.59 1479.82 1506.44 1483.03 Q1503.3 1486.25 1498.06 1486.25 Q1492.07 1486.25 1488.9 1481.67 Q1485.73 1477.06 1485.73 1468.33 Q1485.73 1460.14 1489.62 1455.28 Q1493.5 1450.39 1500.06 1450.39 Q1501.81 1450.39 1503.6 1450.74 Q1505.4 1451.09 1507.35 1451.78 Z" fill="#000000" fill-rule="nonzero" fill-opacity="1" /><path clip-path="url(#clip730)" d="M1527.65 1454.1 Q1524.04 1454.1 1522.21 1457.66 Q1520.4 1461.2 1520.4 1468.33 Q1520.4 1475.44 1522.21 1479.01 Q1524.04 1482.55 1527.65 1482.55 Q1531.28 1482.55 1533.09 1479.01 Q1534.92 1475.44 1534.92 1468.33 Q1534.92 1461.2 1533.09 1457.66 Q1531.28 1454.1 1527.65 1454.1 M1527.65 1450.39 Q1533.46 1450.39 1536.51 1455 Q1539.59 1459.58 1539.59 1468.33 Q1539.59 1477.06 1536.51 1481.67 Q1533.46 1486.25 1527.65 1486.25 Q1521.84 1486.25 1518.76 1481.67 Q1515.7 1477.06 1515.7 1468.33 Q1515.7 1459.58 1518.76 1455 Q1521.84 1450.39 1527.65 1450.39 Z" fill="#000000" fill-rule="nonzero" fill-opacity="1" /><path clip-path="url(#clip730)" d="M1557.81 1454.1 Q1554.2 1454.1 1552.37 1457.66 Q1550.56 1461.2 1550.56 1468.33 Q1550.56 1475.44 1552.37 1479.01 Q1554.2 1482.55 1557.81 1482.55 Q1561.44 1482.55 1563.25 1479.01 Q1565.08 1475.44 1565.08 1468.33 Q1565.08 1461.2 1563.25 1457.66 Q1561.44 1454.1 1557.81 1454.1 M1557.81 1450.39 Q1563.62 1450.39 1566.68 1455 Q1569.75 1459.58 1569.75 1468.33 Q1569.75 1477.06 1566.68 1481.67 Q1563.62 1486.25 1557.81 1486.25 Q1552 1486.25 1548.92 1481.67 Q1545.87 1477.06 1545.87 1468.33 Q1545.87 1459.58 1548.92 1455 Q1552 1450.39 1557.81 1450.39 Z" fill="#000000" fill-rule="nonzero" fill-opacity="1" /><path clip-path="url(#clip730)" d="M1882.33 1469.17 Q1879 1469.17 1877.08 1470.95 Q1875.18 1472.73 1875.18 1475.86 Q1875.18 1478.98 1877.08 1480.77 Q1879 1482.55 1882.33 1482.55 Q1885.67 1482.55 1887.59 1480.77 Q1889.51 1478.96 1889.51 1475.86 Q1889.51 1472.73 1887.59 1470.95 Q1885.69 1469.17 1882.33 1469.17 M1877.66 1467.18 Q1874.65 1466.44 1872.96 1464.38 Q1871.29 1462.32 1871.29 1459.35 Q1871.29 1455.21 1874.23 1452.8 Q1877.2 1450.39 1882.33 1450.39 Q1887.5 1450.39 1890.44 1452.8 Q1893.38 1455.21 1893.38 1459.35 Q1893.38 1462.32 1891.69 1464.38 Q1890.02 1466.44 1887.03 1467.18 Q1890.41 1467.96 1892.29 1470.26 Q1894.19 1472.55 1894.19 1475.86 Q1894.19 1480.88 1891.11 1483.57 Q1888.05 1486.25 1882.33 1486.25 Q1876.62 1486.25 1873.54 1483.57 Q1870.48 1480.88 1870.48 1475.86 Q1870.48 1472.55 1872.38 1470.26 Q1874.28 1467.96 1877.66 1467.18 M1875.95 1459.79 Q1875.95 1462.48 1877.61 1463.98 Q1879.3 1465.49 1882.33 1465.49 Q1885.34 1465.49 1887.03 1463.98 Q1888.75 1462.48 1888.75 1459.79 Q1888.75 1457.11 1887.03 1455.6 Q1885.34 1454.1 1882.33 1454.1 Q1879.3 1454.1 1877.61 1455.6 Q1875.95 1457.11 1875.95 1459.79 Z" fill="#000000" fill-rule="nonzero" fill-opacity="1" /><path clip-path="url(#clip730)" d="M1912.5 1454.1 Q1908.89 1454.1 1907.06 1457.66 Q1905.25 1461.2 1905.25 1468.33 Q1905.25 1475.44 1907.06 1479.01 Q1908.89 1482.55 1912.5 1482.55 Q1916.13 1482.55 1917.94 1479.01 Q1919.76 1475.44 1919.76 1468.33 Q1919.76 1461.2 1917.94 1457.66 Q1916.13 1454.1 1912.5 1454.1 M1912.5 1450.39 Q1918.31 1450.39 1921.36 1455 Q1924.44 1459.58 1924.44 1468.33 Q1924.44 1477.06 1921.36 1481.67 Q1918.31 1486.25 1912.5 1486.25 Q1906.69 1486.25 1903.61 1481.67 Q1900.55 1477.06 1900.55 1468.33 Q1900.55 1459.58 1903.61 1455 Q1906.69 1450.39 1912.5 1450.39 Z" fill="#000000" fill-rule="nonzero" fill-opacity="1" /><path clip-path="url(#clip730)" d="M1942.66 1454.1 Q1939.05 1454.1 1937.22 1457.66 Q1935.41 1461.2 1935.41 1468.33 Q1935.41 1475.44 1937.22 1479.01 Q1939.05 1482.55 1942.66 1482.55 Q1946.29 1482.55 1948.1 1479.01 Q1949.93 1475.44 1949.93 1468.33 Q1949.93 1461.2 1948.1 1457.66 Q1946.29 1454.1 1942.66 1454.1 M1942.66 1450.39 Q1948.47 1450.39 1951.52 1455 Q1954.6 1459.58 1954.6 1468.33 Q1954.6 1477.06 1951.52 1481.67 Q1948.47 1486.25 1942.66 1486.25 Q1936.85 1486.25 1933.77 1481.67 Q1930.71 1477.06 1930.71 1468.33 Q1930.71 1459.58 1933.77 1455 Q1936.85 1450.39 1942.66 1450.39 Z" fill="#000000" fill-rule="nonzero" fill-opacity="1" /><path clip-path="url(#clip730)" d="M2241.87 1481.64 L2249.51 1481.64 L2249.51 1455.28 L2241.2 1456.95 L2241.2 1452.69 L2249.46 1451.02 L2254.14 1451.02 L2254.14 1481.64 L2261.78 1481.64 L2261.78 1485.58 L2241.87 1485.58 L2241.87 1481.64 Z" fill="#000000" fill-rule="nonzero" fill-opacity="1" /><path clip-path="url(#clip730)" d="M2281.22 1454.1 Q2277.61 1454.1 2275.78 1457.66 Q2273.98 1461.2 2273.98 1468.33 Q2273.98 1475.44 2275.78 1479.01 Q2277.61 1482.55 2281.22 1482.55 Q2284.86 1482.55 2286.66 1479.01 Q2288.49 1475.44 2288.49 1468.33 Q2288.49 1461.2 2286.66 1457.66 Q2284.86 1454.1 2281.22 1454.1 M2281.22 1450.39 Q2287.03 1450.39 2290.09 1455 Q2293.17 1459.58 2293.17 1468.33 Q2293.17 1477.06 2290.09 1481.67 Q2287.03 1486.25 2281.22 1486.25 Q2275.41 1486.25 2272.33 1481.67 Q2269.28 1477.06 2269.28 1468.33 Q2269.28 1459.58 2272.33 1455 Q2275.41 1450.39 2281.22 1450.39 Z" fill="#000000" fill-rule="nonzero" fill-opacity="1" /><path clip-path="url(#clip730)" d="M2311.38 1454.1 Q2307.77 1454.1 2305.94 1457.66 Q2304.14 1461.2 2304.14 1468.33 Q2304.14 1475.44 2305.94 1479.01 Q2307.77 1482.55 2311.38 1482.55 Q2315.02 1482.55 2316.82 1479.01 Q2318.65 1475.44 2318.65 1468.33 Q2318.65 1461.2 2316.82 1457.66 Q2315.02 1454.1 2311.38 1454.1 M2311.38 1450.39 Q2317.19 1450.39 2320.25 1455 Q2323.33 1459.58 2323.33 1468.33 Q2323.33 1477.06 2320.25 1481.67 Q2317.19 1486.25 2311.38 1486.25 Q2305.57 1486.25 2302.49 1481.67 Q2299.44 1477.06 2299.44 1468.33 Q2299.44 1459.58 2302.49 1455 Q2305.57 1450.39 2311.38 1450.39 Z" fill="#000000" fill-rule="nonzero" fill-opacity="1" /><path clip-path="url(#clip730)" d="M2341.55 1454.1 Q2337.93 1454.1 2336.11 1457.66 Q2334.3 1461.2 2334.3 1468.33 Q2334.3 1475.44 2336.11 1479.01 Q2337.93 1482.55 2341.55 1482.55 Q2345.18 1482.55 2346.99 1479.01 Q2348.81 1475.44 2348.81 1468.33 Q2348.81 1461.2 2346.99 1457.66 Q2345.18 1454.1 2341.55 1454.1 M2341.55 1450.39 Q2347.36 1450.39 2350.41 1455 Q2353.49 1459.58 2353.49 1468.33 Q2353.49 1477.06 2350.41 1481.67 Q2347.36 1486.25 2341.55 1486.25 Q2335.74 1486.25 2332.66 1481.67 Q2329.6 1477.06 2329.6 1468.33 Q2329.6 1459.58 2332.66 1455 Q2335.74 1450.39 2341.55 1450.39 Z" fill="#000000" fill-rule="nonzero" fill-opacity="1" /><path clip-path="url(#clip730)" d="M1370.89 1518.52 L1376.75 1518.52 L1376.75 1568.04 L1370.89 1568.04 L1370.89 1518.52 Z" fill="#000000" fill-rule="nonzero" fill-opacity="1" /><polyline clip-path="url(#clip730)" style="stroke:#000000; stroke-linecap:round; stroke-linejoin:round; stroke-width:4; stroke-opacity:1; fill:none" points="394.884,1423.18 394.884,47.2441 "/>
<polyline clip-path="url(#clip730)" style="stroke:#000000; stroke-linecap:round; stroke-linejoin:round; stroke-width:4; stroke-opacity:1; fill:none" points="394.884,1273.85 413.782,1273.85 "/>
<polyline clip-path="url(#clip730)" style="stroke:#000000; stroke-linecap:round; stroke-linejoin:round; stroke-width:4; stroke-opacity:1; fill:none" points="394.884,1096.84 413.782,1096.84 "/>
<polyline clip-path="url(#clip730)" style="stroke:#000000; stroke-linecap:round; stroke-linejoin:round; stroke-width:4; stroke-opacity:1; fill:none" points="394.884,919.837 413.782,919.837 "/>
<polyline clip-path="url(#clip730)" style="stroke:#000000; stroke-linecap:round; stroke-linejoin:round; stroke-width:4; stroke-opacity:1; fill:none" points="394.884,742.831 413.782,742.831 "/>
<polyline clip-path="url(#clip730)" style="stroke:#000000; stroke-linecap:round; stroke-linejoin:round; stroke-width:4; stroke-opacity:1; fill:none" points="394.884,565.824 413.782,565.824 "/>
<polyline clip-path="url(#clip730)" style="stroke:#000000; stroke-linecap:round; stroke-linejoin:round; stroke-width:4; stroke-opacity:1; fill:none" points="394.884,388.818 413.782,388.818 "/>
<polyline clip-path="url(#clip730)" style="stroke:#000000; stroke-linecap:round; stroke-linejoin:round; stroke-width:4; stroke-opacity:1; fill:none" points="394.884,211.812 413.782,211.812 "/>
<path clip-path="url(#clip730)" d="M121.043 1293.64 L137.362 1293.64 L137.362 1297.58 L115.418 1297.58 L115.418 1293.64 Q118.08 1290.89 122.663 1286.26 Q127.269 1281.6 128.45 1280.26 Q130.695 1277.74 131.575 1276 Q132.478 1274.24 132.478 1272.55 Q132.478 1269.8 130.533 1268.06 Q128.612 1266.33 125.51 1266.33 Q123.311 1266.33 120.857 1267.09 Q118.427 1267.85 115.649 1269.41 L115.649 1264.68 Q118.473 1263.55 120.927 1262.97 Q123.38 1262.39 125.418 1262.39 Q130.788 1262.39 133.982 1265.08 Q137.177 1267.76 137.177 1272.25 Q137.177 1274.38 136.367 1276.3 Q135.579 1278.2 133.473 1280.79 Q132.894 1281.47 129.792 1284.68 Q126.691 1287.88 121.043 1293.64 Z" fill="#000000" fill-rule="nonzero" fill-opacity="1" /><path clip-path="url(#clip730)" d="M147.177 1291.7 L152.061 1291.7 L152.061 1297.58 L147.177 1297.58 L147.177 1291.7 Z" fill="#000000" fill-rule="nonzero" fill-opacity="1" /><path clip-path="url(#clip730)" d="M172.246 1266.1 Q168.635 1266.1 166.806 1269.66 Q165.001 1273.2 165.001 1280.33 Q165.001 1287.44 166.806 1291 Q168.635 1294.54 172.246 1294.54 Q175.88 1294.54 177.686 1291 Q179.514 1287.44 179.514 1280.33 Q179.514 1273.2 177.686 1269.66 Q175.88 1266.1 172.246 1266.1 M172.246 1262.39 Q178.056 1262.39 181.112 1267 Q184.19 1271.58 184.19 1280.33 Q184.19 1289.06 181.112 1293.66 Q178.056 1298.25 172.246 1298.25 Q166.436 1298.25 163.357 1293.66 Q160.302 1289.06 160.302 1280.33 Q160.302 1271.58 163.357 1267 Q166.436 1262.39 172.246 1262.39 Z" fill="#000000" fill-rule="nonzero" fill-opacity="1" /><path clip-path="url(#clip730)" d="M220.579 1272.11 L210 1282.74 L220.579 1293.32 L217.824 1296.12 L207.199 1285.49 L196.575 1296.12 L193.843 1293.32 L204.399 1282.74 L193.843 1272.11 L196.575 1269.31 L207.199 1279.94 L217.824 1269.31 L220.579 1272.11 Z" fill="#000000" fill-rule="nonzero" fill-opacity="1" /><path clip-path="url(#clip730)" d="M232.94 1293.64 L240.579 1293.64 L240.579 1267.28 L232.269 1268.94 L232.269 1264.68 L240.533 1263.02 L245.209 1263.02 L245.209 1293.64 L252.847 1293.64 L252.847 1297.58 L232.94 1297.58 L232.94 1293.64 Z" fill="#000000" fill-rule="nonzero" fill-opacity="1" /><path clip-path="url(#clip730)" d="M272.292 1266.1 Q268.681 1266.1 266.852 1269.66 Q265.046 1273.2 265.046 1280.33 Q265.046 1287.44 266.852 1291 Q268.681 1294.54 272.292 1294.54 Q275.926 1294.54 277.732 1291 Q279.56 1287.44 279.56 1280.33 Q279.56 1273.2 277.732 1269.66 Q275.926 1266.1 272.292 1266.1 M272.292 1262.39 Q278.102 1262.39 281.157 1267 Q284.236 1271.58 284.236 1280.33 Q284.236 1289.06 281.157 1293.66 Q278.102 1298.25 272.292 1298.25 Q266.482 1298.25 263.403 1293.66 Q260.347 1289.06 260.347 1280.33 Q260.347 1271.58 263.403 1267 Q266.482 1262.39 272.292 1262.39 Z" fill="#000000" fill-rule="nonzero" fill-opacity="1" /><path clip-path="url(#clip730)" d="M284.236 1256.49 L308.348 1256.49 L308.348 1259.69 L284.236 1259.69 L284.236 1256.49 Z" fill="#000000" fill-rule="nonzero" fill-opacity="1" /><path clip-path="url(#clip730)" d="M317.206 1266.97 L323.413 1266.97 L323.413 1245.55 L316.661 1246.9 L316.661 1243.44 L323.375 1242.09 L327.174 1242.09 L327.174 1266.97 L333.381 1266.97 L333.381 1270.17 L317.206 1270.17 L317.206 1266.97 Z" fill="#000000" fill-rule="nonzero" fill-opacity="1" /><path clip-path="url(#clip730)" d="M349.179 1244.59 Q346.245 1244.59 344.76 1247.48 Q343.292 1250.36 343.292 1256.15 Q343.292 1261.93 344.76 1264.83 Q346.245 1267.7 349.179 1267.7 Q352.132 1267.7 353.599 1264.83 Q355.085 1261.93 355.085 1256.15 Q355.085 1250.36 353.599 1247.48 Q352.132 1244.59 349.179 1244.59 M349.179 1241.58 Q353.9 1241.58 356.383 1245.32 Q358.884 1249.05 358.884 1256.15 Q358.884 1263.25 356.383 1266.99 Q353.9 1270.71 349.179 1270.71 Q344.459 1270.71 341.957 1266.99 Q339.475 1263.25 339.475 1256.15 Q339.475 1249.05 341.957 1245.32 Q344.459 1241.58 349.179 1241.58 Z" fill="#000000" fill-rule="nonzero" fill-opacity="1" /><path clip-path="url(#clip730)" d="M131.181 1101.94 Q134.538 1102.65 136.413 1104.92 Q138.311 1107.19 138.311 1110.52 Q138.311 1115.64 134.792 1118.44 Q131.274 1121.24 124.793 1121.24 Q122.617 1121.24 120.302 1120.8 Q118.01 1120.39 115.556 1119.53 L115.556 1115.02 Q117.501 1116.15 119.816 1116.73 Q122.13 1117.31 124.654 1117.31 Q129.052 1117.31 131.343 1115.57 Q133.658 1113.83 133.658 1110.52 Q133.658 1107.47 131.505 1105.76 Q129.376 1104.02 125.556 1104.02 L121.529 1104.02 L121.529 1100.18 L125.742 1100.18 Q129.191 1100.18 131.019 1098.81 Q132.848 1097.42 132.848 1094.83 Q132.848 1092.17 130.95 1090.76 Q129.075 1089.32 125.556 1089.32 Q123.635 1089.32 121.436 1089.74 Q119.237 1090.15 116.598 1091.03 L116.598 1086.87 Q119.26 1086.13 121.575 1085.76 Q123.913 1085.39 125.973 1085.39 Q131.297 1085.39 134.399 1087.82 Q137.501 1090.22 137.501 1094.34 Q137.501 1097.21 135.857 1099.21 Q134.214 1101.17 131.181 1101.94 Z" fill="#000000" fill-rule="nonzero" fill-opacity="1" /><path clip-path="url(#clip730)" d="M147.177 1114.69 L152.061 1114.69 L152.061 1120.57 L147.177 1120.57 L147.177 1114.69 Z" fill="#000000" fill-rule="nonzero" fill-opacity="1" /><path clip-path="url(#clip730)" d="M172.246 1089.09 Q168.635 1089.09 166.806 1092.65 Q165.001 1096.2 165.001 1103.33 Q165.001 1110.43 166.806 1114 Q168.635 1117.54 172.246 1117.54 Q175.88 1117.54 177.686 1114 Q179.514 1110.43 179.514 1103.33 Q179.514 1096.2 177.686 1092.65 Q175.88 1089.09 172.246 1089.09 M172.246 1085.39 Q178.056 1085.39 181.112 1089.99 Q184.19 1094.58 184.19 1103.33 Q184.19 1112.05 181.112 1116.66 Q178.056 1121.24 172.246 1121.24 Q166.436 1121.24 163.357 1116.66 Q160.302 1112.05 160.302 1103.33 Q160.302 1094.58 163.357 1089.99 Q166.436 1085.39 172.246 1085.39 Z" fill="#000000" fill-rule="nonzero" fill-opacity="1" /><path clip-path="url(#clip730)" d="M220.579 1095.11 L210 1105.73 L220.579 1116.31 L217.824 1119.11 L207.199 1108.49 L196.575 1119.11 L193.843 1116.31 L204.399 1105.73 L193.843 1095.11 L196.575 1092.31 L207.199 1102.93 L217.824 1092.31 L220.579 1095.11 Z" fill="#000000" fill-rule="nonzero" fill-opacity="1" /><path clip-path="url(#clip730)" d="M232.94 1116.64 L240.579 1116.64 L240.579 1090.27 L232.269 1091.94 L232.269 1087.68 L240.533 1086.01 L245.209 1086.01 L245.209 1116.64 L252.847 1116.64 L252.847 1120.57 L232.94 1120.57 L232.94 1116.64 Z" fill="#000000" fill-rule="nonzero" fill-opacity="1" /><path clip-path="url(#clip730)" d="M272.292 1089.09 Q268.681 1089.09 266.852 1092.65 Q265.046 1096.2 265.046 1103.33 Q265.046 1110.43 266.852 1114 Q268.681 1117.54 272.292 1117.54 Q275.926 1117.54 277.732 1114 Q279.56 1110.43 279.56 1103.33 Q279.56 1096.2 277.732 1092.65 Q275.926 1089.09 272.292 1089.09 M272.292 1085.39 Q278.102 1085.39 281.157 1089.99 Q284.236 1094.58 284.236 1103.33 Q284.236 1112.05 281.157 1116.66 Q278.102 1121.24 272.292 1121.24 Q266.482 1121.24 263.403 1116.66 Q260.347 1112.05 260.347 1103.33 Q260.347 1094.58 263.403 1089.99 Q266.482 1085.39 272.292 1085.39 Z" fill="#000000" fill-rule="nonzero" fill-opacity="1" /><path clip-path="url(#clip730)" d="M284.236 1079.49 L308.348 1079.49 L308.348 1082.68 L284.236 1082.68 L284.236 1079.49 Z" fill="#000000" fill-rule="nonzero" fill-opacity="1" /><path clip-path="url(#clip730)" d="M317.206 1089.96 L323.413 1089.96 L323.413 1068.54 L316.661 1069.9 L316.661 1066.43 L323.375 1065.08 L327.174 1065.08 L327.174 1089.96 L333.381 1089.96 L333.381 1093.16 L317.206 1093.16 L317.206 1089.96 Z" fill="#000000" fill-rule="nonzero" fill-opacity="1" /><path clip-path="url(#clip730)" d="M349.179 1067.58 Q346.245 1067.58 344.76 1070.48 Q343.292 1073.36 343.292 1079.15 Q343.292 1084.92 344.76 1087.82 Q346.245 1090.7 349.179 1090.7 Q352.132 1090.7 353.599 1087.82 Q355.085 1084.92 355.085 1079.15 Q355.085 1073.36 353.599 1070.48 Q352.132 1067.58 349.179 1067.58 M349.179 1064.57 Q353.9 1064.57 356.383 1068.32 Q358.884 1072.04 358.884 1079.15 Q358.884 1086.24 356.383 1089.98 Q353.9 1093.71 349.179 1093.71 Q344.459 1093.71 341.957 1089.98 Q339.475 1086.24 339.475 1079.15 Q339.475 1072.04 341.957 1068.32 Q344.459 1064.57 349.179 1064.57 Z" fill="#000000" fill-rule="nonzero" fill-opacity="1" /><path clip-path="url(#clip730)" d="M129.862 913.078 L118.056 931.527 L129.862 931.527 L129.862 913.078 M128.635 909.004 L134.515 909.004 L134.515 931.527 L139.445 931.527 L139.445 935.416 L134.515 935.416 L134.515 943.564 L129.862 943.564 L129.862 935.416 L114.26 935.416 L114.26 930.902 L128.635 909.004 Z" fill="#000000" fill-rule="nonzero" fill-opacity="1" /><path clip-path="url(#clip730)" d="M147.177 937.685 L152.061 937.685 L152.061 943.564 L147.177 943.564 L147.177 937.685 Z" fill="#000000" fill-rule="nonzero" fill-opacity="1" /><path clip-path="url(#clip730)" d="M172.246 912.083 Q168.635 912.083 166.806 915.648 Q165.001 919.19 165.001 926.319 Q165.001 933.426 166.806 936.99 Q168.635 940.532 172.246 940.532 Q175.88 940.532 177.686 936.99 Q179.514 933.426 179.514 926.319 Q179.514 919.19 177.686 915.648 Q175.88 912.083 172.246 912.083 M172.246 908.379 Q178.056 908.379 181.112 912.986 Q184.19 917.569 184.19 926.319 Q184.19 935.046 181.112 939.652 Q178.056 944.236 172.246 944.236 Q166.436 944.236 163.357 939.652 Q160.302 935.046 160.302 926.319 Q160.302 917.569 163.357 912.986 Q166.436 908.379 172.246 908.379 Z" fill="#000000" fill-rule="nonzero" fill-opacity="1" /><path clip-path="url(#clip730)" d="M220.579 918.102 L210 928.727 L220.579 939.305 L217.824 942.106 L207.199 931.481 L196.575 942.106 L193.843 939.305 L204.399 928.727 L193.843 918.102 L196.575 915.301 L207.199 925.926 L217.824 915.301 L220.579 918.102 Z" fill="#000000" fill-rule="nonzero" fill-opacity="1" /><path clip-path="url(#clip730)" d="M232.94 939.629 L240.579 939.629 L240.579 913.264 L232.269 914.93 L232.269 910.671 L240.533 909.004 L245.209 909.004 L245.209 939.629 L252.847 939.629 L252.847 943.564 L232.94 943.564 L232.94 939.629 Z" fill="#000000" fill-rule="nonzero" fill-opacity="1" /><path clip-path="url(#clip730)" d="M272.292 912.083 Q268.681 912.083 266.852 915.648 Q265.046 919.19 265.046 926.319 Q265.046 933.426 266.852 936.99 Q268.681 940.532 272.292 940.532 Q275.926 940.532 277.732 936.99 Q279.56 933.426 279.56 926.319 Q279.56 919.19 277.732 915.648 Q275.926 912.083 272.292 912.083 M272.292 908.379 Q278.102 908.379 281.157 912.986 Q284.236 917.569 284.236 926.319 Q284.236 935.046 281.157 939.652 Q278.102 944.236 272.292 944.236 Q266.482 944.236 263.403 939.652 Q260.347 935.046 260.347 926.319 Q260.347 917.569 263.403 912.986 Q266.482 908.379 272.292 908.379 Z" fill="#000000" fill-rule="nonzero" fill-opacity="1" /><path clip-path="url(#clip730)" d="M284.236 902.481 L308.348 902.481 L308.348 905.678 L284.236 905.678 L284.236 902.481 Z" fill="#000000" fill-rule="nonzero" fill-opacity="1" /><path clip-path="url(#clip730)" d="M317.206 912.957 L323.413 912.957 L323.413 891.535 L316.661 892.889 L316.661 889.428 L323.375 888.074 L327.174 888.074 L327.174 912.957 L333.381 912.957 L333.381 916.154 L317.206 916.154 L317.206 912.957 Z" fill="#000000" fill-rule="nonzero" fill-opacity="1" /><path clip-path="url(#clip730)" d="M349.179 890.575 Q346.245 890.575 344.76 893.472 Q343.292 896.349 343.292 902.142 Q343.292 907.916 344.76 910.813 Q346.245 913.69 349.179 913.69 Q352.132 913.69 353.599 910.813 Q355.085 907.916 355.085 902.142 Q355.085 896.349 353.599 893.472 Q352.132 890.575 349.179 890.575 M349.179 887.566 Q353.9 887.566 356.383 891.309 Q358.884 895.033 358.884 902.142 Q358.884 909.233 356.383 912.976 Q353.9 916.699 349.179 916.699 Q344.459 916.699 341.957 912.976 Q339.475 909.233 339.475 902.142 Q339.475 895.033 341.957 891.309 Q344.459 887.566 349.179 887.566 Z" fill="#000000" fill-rule="nonzero" fill-opacity="1" /><path clip-path="url(#clip730)" d="M117.061 731.998 L135.417 731.998 L135.417 735.933 L121.343 735.933 L121.343 744.405 Q122.362 744.058 123.38 743.896 Q124.399 743.711 125.418 743.711 Q131.205 743.711 134.584 746.882 Q137.964 750.054 137.964 755.47 Q137.964 761.049 134.492 764.151 Q131.019 767.229 124.7 767.229 Q122.524 767.229 120.255 766.859 Q118.01 766.489 115.603 765.748 L115.603 761.049 Q117.686 762.183 119.908 762.739 Q122.13 763.294 124.607 763.294 Q128.612 763.294 130.95 761.188 Q133.288 759.081 133.288 755.47 Q133.288 751.859 130.95 749.753 Q128.612 747.646 124.607 747.646 Q122.732 747.646 120.857 748.063 Q119.006 748.48 117.061 749.359 L117.061 731.998 Z" fill="#000000" fill-rule="nonzero" fill-opacity="1" /><path clip-path="url(#clip730)" d="M147.177 760.679 L152.061 760.679 L152.061 766.558 L147.177 766.558 L147.177 760.679 Z" fill="#000000" fill-rule="nonzero" fill-opacity="1" /><path clip-path="url(#clip730)" d="M172.246 735.077 Q168.635 735.077 166.806 738.642 Q165.001 742.183 165.001 749.313 Q165.001 756.419 166.806 759.984 Q168.635 763.526 172.246 763.526 Q175.88 763.526 177.686 759.984 Q179.514 756.419 179.514 749.313 Q179.514 742.183 177.686 738.642 Q175.88 735.077 172.246 735.077 M172.246 731.373 Q178.056 731.373 181.112 735.98 Q184.19 740.563 184.19 749.313 Q184.19 758.04 181.112 762.646 Q178.056 767.229 172.246 767.229 Q166.436 767.229 163.357 762.646 Q160.302 758.04 160.302 749.313 Q160.302 740.563 163.357 735.98 Q166.436 731.373 172.246 731.373 Z" fill="#000000" fill-rule="nonzero" fill-opacity="1" /><path clip-path="url(#clip730)" d="M220.579 741.095 L210 751.72 L220.579 762.299 L217.824 765.1 L207.199 754.475 L196.575 765.1 L193.843 762.299 L204.399 751.72 L193.843 741.095 L196.575 738.294 L207.199 748.919 L217.824 738.294 L220.579 741.095 Z" fill="#000000" fill-rule="nonzero" fill-opacity="1" /><path clip-path="url(#clip730)" d="M232.94 762.623 L240.579 762.623 L240.579 736.257 L232.269 737.924 L232.269 733.665 L240.533 731.998 L245.209 731.998 L245.209 762.623 L252.847 762.623 L252.847 766.558 L232.94 766.558 L232.94 762.623 Z" fill="#000000" fill-rule="nonzero" fill-opacity="1" /><path clip-path="url(#clip730)" d="M272.292 735.077 Q268.681 735.077 266.852 738.642 Q265.046 742.183 265.046 749.313 Q265.046 756.419 266.852 759.984 Q268.681 763.526 272.292 763.526 Q275.926 763.526 277.732 759.984 Q279.56 756.419 279.56 749.313 Q279.56 742.183 277.732 738.642 Q275.926 735.077 272.292 735.077 M272.292 731.373 Q278.102 731.373 281.157 735.98 Q284.236 740.563 284.236 749.313 Q284.236 758.04 281.157 762.646 Q278.102 767.229 272.292 767.229 Q266.482 767.229 263.403 762.646 Q260.347 758.04 260.347 749.313 Q260.347 740.563 263.403 735.98 Q266.482 731.373 272.292 731.373 Z" fill="#000000" fill-rule="nonzero" fill-opacity="1" /><path clip-path="url(#clip730)" d="M284.236 725.475 L308.348 725.475 L308.348 728.672 L284.236 728.672 L284.236 725.475 Z" fill="#000000" fill-rule="nonzero" fill-opacity="1" /><path clip-path="url(#clip730)" d="M317.206 735.95 L323.413 735.95 L323.413 714.528 L316.661 715.883 L316.661 712.422 L323.375 711.068 L327.174 711.068 L327.174 735.95 L333.381 735.95 L333.381 739.148 L317.206 739.148 L317.206 735.95 Z" fill="#000000" fill-rule="nonzero" fill-opacity="1" /><path clip-path="url(#clip730)" d="M349.179 713.569 Q346.245 713.569 344.76 716.466 Q343.292 719.343 343.292 725.136 Q343.292 730.91 344.76 733.806 Q346.245 736.684 349.179 736.684 Q352.132 736.684 353.599 733.806 Q355.085 730.91 355.085 725.136 Q355.085 719.343 353.599 716.466 Q352.132 713.569 349.179 713.569 M349.179 710.56 Q353.9 710.56 356.383 714.303 Q358.884 718.027 358.884 725.136 Q358.884 732.226 356.383 735.969 Q353.9 739.693 349.179 739.693 Q344.459 739.693 341.957 735.969 Q339.475 732.226 339.475 725.136 Q339.475 718.027 341.957 714.303 Q344.459 710.56 349.179 710.56 Z" fill="#000000" fill-rule="nonzero" fill-opacity="1" /><path clip-path="url(#clip730)" d="M127.593 570.408 Q124.445 570.408 122.593 572.561 Q120.765 574.714 120.765 578.464 Q120.765 582.191 122.593 584.367 Q124.445 586.519 127.593 586.519 Q130.742 586.519 132.57 584.367 Q134.422 582.191 134.422 578.464 Q134.422 574.714 132.57 572.561 Q130.742 570.408 127.593 570.408 M136.876 555.756 L136.876 560.015 Q135.117 559.182 133.311 558.742 Q131.529 558.302 129.769 558.302 Q125.14 558.302 122.686 561.427 Q120.255 564.552 119.908 570.871 Q121.274 568.858 123.334 567.793 Q125.394 566.705 127.871 566.705 Q133.08 566.705 136.089 569.876 Q139.121 573.024 139.121 578.464 Q139.121 583.788 135.973 587.006 Q132.825 590.223 127.593 590.223 Q121.598 590.223 118.427 585.64 Q115.256 581.033 115.256 572.307 Q115.256 564.112 119.144 559.251 Q123.033 554.367 129.584 554.367 Q131.343 554.367 133.126 554.714 Q134.931 555.061 136.876 555.756 Z" fill="#000000" fill-rule="nonzero" fill-opacity="1" /><path clip-path="url(#clip730)" d="M147.177 583.672 L152.061 583.672 L152.061 589.552 L147.177 589.552 L147.177 583.672 Z" fill="#000000" fill-rule="nonzero" fill-opacity="1" /><path clip-path="url(#clip730)" d="M172.246 558.071 Q168.635 558.071 166.806 561.635 Q165.001 565.177 165.001 572.307 Q165.001 579.413 166.806 582.978 Q168.635 586.519 172.246 586.519 Q175.88 586.519 177.686 582.978 Q179.514 579.413 179.514 572.307 Q179.514 565.177 177.686 561.635 Q175.88 558.071 172.246 558.071 M172.246 554.367 Q178.056 554.367 181.112 558.973 Q184.19 563.557 184.19 572.307 Q184.19 581.033 181.112 585.64 Q178.056 590.223 172.246 590.223 Q166.436 590.223 163.357 585.64 Q160.302 581.033 160.302 572.307 Q160.302 563.557 163.357 558.973 Q166.436 554.367 172.246 554.367 Z" fill="#000000" fill-rule="nonzero" fill-opacity="1" /><path clip-path="url(#clip730)" d="M220.579 564.089 L210 574.714 L220.579 585.293 L217.824 588.094 L207.199 577.469 L196.575 588.094 L193.843 585.293 L204.399 574.714 L193.843 564.089 L196.575 561.288 L207.199 571.913 L217.824 561.288 L220.579 564.089 Z" fill="#000000" fill-rule="nonzero" fill-opacity="1" /><path clip-path="url(#clip730)" d="M232.94 585.617 L240.579 585.617 L240.579 559.251 L232.269 560.918 L232.269 556.659 L240.533 554.992 L245.209 554.992 L245.209 585.617 L252.847 585.617 L252.847 589.552 L232.94 589.552 L232.94 585.617 Z" fill="#000000" fill-rule="nonzero" fill-opacity="1" /><path clip-path="url(#clip730)" d="M272.292 558.071 Q268.681 558.071 266.852 561.635 Q265.046 565.177 265.046 572.307 Q265.046 579.413 266.852 582.978 Q268.681 586.519 272.292 586.519 Q275.926 586.519 277.732 582.978 Q279.56 579.413 279.56 572.307 Q279.56 565.177 277.732 561.635 Q275.926 558.071 272.292 558.071 M272.292 554.367 Q278.102 554.367 281.157 558.973 Q284.236 563.557 284.236 572.307 Q284.236 581.033 281.157 585.64 Q278.102 590.223 272.292 590.223 Q266.482 590.223 263.403 585.64 Q260.347 581.033 260.347 572.307 Q260.347 563.557 263.403 558.973 Q266.482 554.367 272.292 554.367 Z" fill="#000000" fill-rule="nonzero" fill-opacity="1" /><path clip-path="url(#clip730)" d="M284.236 548.468 L308.348 548.468 L308.348 551.666 L284.236 551.666 L284.236 548.468 Z" fill="#000000" fill-rule="nonzero" fill-opacity="1" /><path clip-path="url(#clip730)" d="M317.206 558.944 L323.413 558.944 L323.413 537.522 L316.661 538.876 L316.661 535.416 L323.375 534.061 L327.174 534.061 L327.174 558.944 L333.381 558.944 L333.381 562.141 L317.206 562.141 L317.206 558.944 Z" fill="#000000" fill-rule="nonzero" fill-opacity="1" /><path clip-path="url(#clip730)" d="M349.179 536.563 Q346.245 536.563 344.76 539.459 Q343.292 542.337 343.292 548.13 Q343.292 553.904 344.76 556.8 Q346.245 559.678 349.179 559.678 Q352.132 559.678 353.599 556.8 Q355.085 553.904 355.085 548.13 Q355.085 542.337 353.599 539.459 Q352.132 536.563 349.179 536.563 M349.179 533.554 Q353.9 533.554 356.383 537.296 Q358.884 541.02 358.884 548.13 Q358.884 555.22 356.383 558.963 Q353.9 562.687 349.179 562.687 Q344.459 562.687 341.957 558.963 Q339.475 555.22 339.475 548.13 Q339.475 541.02 341.957 537.296 Q344.459 533.554 349.179 533.554 Z" fill="#000000" fill-rule="nonzero" fill-opacity="1" /><path clip-path="url(#clip730)" d="M115.834 377.986 L138.056 377.986 L138.056 379.976 L125.51 412.546 L120.626 412.546 L132.431 381.921 L115.834 381.921 L115.834 377.986 Z" fill="#000000" fill-rule="nonzero" fill-opacity="1" /><path clip-path="url(#clip730)" d="M147.177 406.666 L152.061 406.666 L152.061 412.546 L147.177 412.546 L147.177 406.666 Z" fill="#000000" fill-rule="nonzero" fill-opacity="1" /><path clip-path="url(#clip730)" d="M172.246 381.064 Q168.635 381.064 166.806 384.629 Q165.001 388.171 165.001 395.3 Q165.001 402.407 166.806 405.972 Q168.635 409.513 172.246 409.513 Q175.88 409.513 177.686 405.972 Q179.514 402.407 179.514 395.3 Q179.514 388.171 177.686 384.629 Q175.88 381.064 172.246 381.064 M172.246 377.361 Q178.056 377.361 181.112 381.967 Q184.19 386.55 184.19 395.3 Q184.19 404.027 181.112 408.634 Q178.056 413.217 172.246 413.217 Q166.436 413.217 163.357 408.634 Q160.302 404.027 160.302 395.3 Q160.302 386.55 163.357 381.967 Q166.436 377.361 172.246 377.361 Z" fill="#000000" fill-rule="nonzero" fill-opacity="1" /><path clip-path="url(#clip730)" d="M220.579 387.083 L210 397.708 L220.579 408.286 L217.824 411.087 L207.199 400.462 L196.575 411.087 L193.843 408.286 L204.399 397.708 L193.843 387.083 L196.575 384.282 L207.199 394.907 L217.824 384.282 L220.579 387.083 Z" fill="#000000" fill-rule="nonzero" fill-opacity="1" /><path clip-path="url(#clip730)" d="M232.94 408.61 L240.579 408.61 L240.579 382.245 L232.269 383.912 L232.269 379.652 L240.533 377.986 L245.209 377.986 L245.209 408.61 L252.847 408.61 L252.847 412.546 L232.94 412.546 L232.94 408.61 Z" fill="#000000" fill-rule="nonzero" fill-opacity="1" /><path clip-path="url(#clip730)" d="M272.292 381.064 Q268.681 381.064 266.852 384.629 Q265.046 388.171 265.046 395.3 Q265.046 402.407 266.852 405.972 Q268.681 409.513 272.292 409.513 Q275.926 409.513 277.732 405.972 Q279.56 402.407 279.56 395.3 Q279.56 388.171 277.732 384.629 Q275.926 381.064 272.292 381.064 M272.292 377.361 Q278.102 377.361 281.157 381.967 Q284.236 386.55 284.236 395.3 Q284.236 404.027 281.157 408.634 Q278.102 413.217 272.292 413.217 Q266.482 413.217 263.403 408.634 Q260.347 404.027 260.347 395.3 Q260.347 386.55 263.403 381.967 Q266.482 377.361 272.292 377.361 Z" fill="#000000" fill-rule="nonzero" fill-opacity="1" /><path clip-path="url(#clip730)" d="M284.236 371.462 L308.348 371.462 L308.348 374.659 L284.236 374.659 L284.236 371.462 Z" fill="#000000" fill-rule="nonzero" fill-opacity="1" /><path clip-path="url(#clip730)" d="M317.206 381.938 L323.413 381.938 L323.413 360.516 L316.661 361.87 L316.661 358.409 L323.375 357.055 L327.174 357.055 L327.174 381.938 L333.381 381.938 L333.381 385.135 L317.206 385.135 L317.206 381.938 Z" fill="#000000" fill-rule="nonzero" fill-opacity="1" /><path clip-path="url(#clip730)" d="M349.179 359.557 Q346.245 359.557 344.76 362.453 Q343.292 365.331 343.292 371.123 Q343.292 376.897 344.76 379.794 Q346.245 382.671 349.179 382.671 Q352.132 382.671 353.599 379.794 Q355.085 376.897 355.085 371.123 Q355.085 365.331 353.599 362.453 Q352.132 359.557 349.179 359.557 M349.179 356.547 Q353.9 356.547 356.383 360.29 Q358.884 364.014 358.884 371.123 Q358.884 378.214 356.383 381.957 Q353.9 385.681 349.179 385.681 Q344.459 385.681 341.957 381.957 Q339.475 378.214 339.475 371.123 Q339.475 364.014 341.957 360.29 Q344.459 356.547 349.179 356.547 Z" fill="#000000" fill-rule="nonzero" fill-opacity="1" /><path clip-path="url(#clip730)" d="M127.015 219.127 Q123.681 219.127 121.76 220.91 Q119.862 222.692 119.862 225.817 Q119.862 228.942 121.76 230.725 Q123.681 232.507 127.015 232.507 Q130.348 232.507 132.269 230.725 Q134.191 228.919 134.191 225.817 Q134.191 222.692 132.269 220.91 Q130.371 219.127 127.015 219.127 M122.339 217.137 Q119.33 216.396 117.64 214.336 Q115.973 212.276 115.973 209.313 Q115.973 205.169 118.913 202.762 Q121.876 200.354 127.015 200.354 Q132.177 200.354 135.117 202.762 Q138.056 205.169 138.056 209.313 Q138.056 212.276 136.367 214.336 Q134.7 216.396 131.714 217.137 Q135.093 217.924 136.968 220.215 Q138.867 222.507 138.867 225.817 Q138.867 230.84 135.788 233.525 Q132.732 236.211 127.015 236.211 Q121.297 236.211 118.218 233.525 Q115.163 230.84 115.163 225.817 Q115.163 222.507 117.061 220.215 Q118.959 217.924 122.339 217.137 M120.626 209.752 Q120.626 212.438 122.293 213.942 Q123.982 215.447 127.015 215.447 Q130.024 215.447 131.714 213.942 Q133.427 212.438 133.427 209.752 Q133.427 207.067 131.714 205.563 Q130.024 204.058 127.015 204.058 Q123.982 204.058 122.293 205.563 Q120.626 207.067 120.626 209.752 Z" fill="#000000" fill-rule="nonzero" fill-opacity="1" /><path clip-path="url(#clip730)" d="M147.177 229.66 L152.061 229.66 L152.061 235.539 L147.177 235.539 L147.177 229.66 Z" fill="#000000" fill-rule="nonzero" fill-opacity="1" /><path clip-path="url(#clip730)" d="M172.246 204.058 Q168.635 204.058 166.806 207.623 Q165.001 211.164 165.001 218.294 Q165.001 225.401 166.806 228.965 Q168.635 232.507 172.246 232.507 Q175.88 232.507 177.686 228.965 Q179.514 225.401 179.514 218.294 Q179.514 211.164 177.686 207.623 Q175.88 204.058 172.246 204.058 M172.246 200.354 Q178.056 200.354 181.112 204.961 Q184.19 209.544 184.19 218.294 Q184.19 227.021 181.112 231.627 Q178.056 236.211 172.246 236.211 Q166.436 236.211 163.357 231.627 Q160.302 227.021 160.302 218.294 Q160.302 209.544 163.357 204.961 Q166.436 200.354 172.246 200.354 Z" fill="#000000" fill-rule="nonzero" fill-opacity="1" /><path clip-path="url(#clip730)" d="M220.579 210.077 L210 220.701 L220.579 231.28 L217.824 234.081 L207.199 223.456 L196.575 234.081 L193.843 231.28 L204.399 220.701 L193.843 210.077 L196.575 207.276 L207.199 217.901 L217.824 207.276 L220.579 210.077 Z" fill="#000000" fill-rule="nonzero" fill-opacity="1" /><path clip-path="url(#clip730)" d="M232.94 231.604 L240.579 231.604 L240.579 205.239 L232.269 206.905 L232.269 202.646 L240.533 200.979 L245.209 200.979 L245.209 231.604 L252.847 231.604 L252.847 235.539 L232.94 235.539 L232.94 231.604 Z" fill="#000000" fill-rule="nonzero" fill-opacity="1" /><path clip-path="url(#clip730)" d="M272.292 204.058 Q268.681 204.058 266.852 207.623 Q265.046 211.164 265.046 218.294 Q265.046 225.401 266.852 228.965 Q268.681 232.507 272.292 232.507 Q275.926 232.507 277.732 228.965 Q279.56 225.401 279.56 218.294 Q279.56 211.164 277.732 207.623 Q275.926 204.058 272.292 204.058 M272.292 200.354 Q278.102 200.354 281.157 204.961 Q284.236 209.544 284.236 218.294 Q284.236 227.021 281.157 231.627 Q278.102 236.211 272.292 236.211 Q266.482 236.211 263.403 231.627 Q260.347 227.021 260.347 218.294 Q260.347 209.544 263.403 204.961 Q266.482 200.354 272.292 200.354 Z" fill="#000000" fill-rule="nonzero" fill-opacity="1" /><path clip-path="url(#clip730)" d="M284.236 194.456 L308.348 194.456 L308.348 197.653 L284.236 197.653 L284.236 194.456 Z" fill="#000000" fill-rule="nonzero" fill-opacity="1" /><path clip-path="url(#clip730)" d="M317.206 204.932 L323.413 204.932 L323.413 183.51 L316.661 184.864 L316.661 181.403 L323.375 180.049 L327.174 180.049 L327.174 204.932 L333.381 204.932 L333.381 208.129 L317.206 208.129 L317.206 204.932 Z" fill="#000000" fill-rule="nonzero" fill-opacity="1" /><path clip-path="url(#clip730)" d="M349.179 182.55 Q346.245 182.55 344.76 185.447 Q343.292 188.324 343.292 194.117 Q343.292 199.891 344.76 202.788 Q346.245 205.665 349.179 205.665 Q352.132 205.665 353.599 202.788 Q355.085 199.891 355.085 194.117 Q355.085 188.324 353.599 185.447 Q352.132 182.55 349.179 182.55 M349.179 179.541 Q353.9 179.541 356.383 183.284 Q358.884 187.008 358.884 194.117 Q358.884 201.208 356.383 204.95 Q353.9 208.674 349.179 208.674 Q344.459 208.674 341.957 204.95 Q339.475 201.208 339.475 194.117 Q339.475 187.008 341.957 183.284 Q344.459 179.541 349.179 179.541 Z" fill="#000000" fill-rule="nonzero" fill-opacity="1" /><path clip-path="url(#clip730)" d="M14.479 902.328 L14.479 896.471 L64.0042 896.471 L64.0042 902.328 L14.479 902.328 Z" fill="#000000" fill-rule="nonzero" fill-opacity="1" /><path clip-path="url(#clip730)" d="M14.5426 870.149 Q21.8632 874.414 29.0246 876.483 Q36.186 878.552 43.5384 878.552 Q50.8908 878.552 58.1159 876.483 Q65.3091 874.382 72.5979 870.149 L72.5979 875.242 Q65.1182 880.016 57.8931 882.403 Q50.668 884.758 43.5384 884.758 Q36.4406 884.758 29.2474 882.403 Q22.0542 880.048 14.5426 875.242 L14.5426 870.149 Z" fill="#000000" fill-rule="nonzero" fill-opacity="1" /><path clip-path="url(#clip730)" d="M14.479 858.786 L14.479 852.93 L64.0042 852.93 L64.0042 858.786 L14.479 858.786 Z" fill="#000000" fill-rule="nonzero" fill-opacity="1" /><path clip-path="url(#clip730)" d="M23.1363 816.836 L40.8648 816.836 L40.8648 799.108 L46.2757 799.108 L46.2757 816.836 L64.0042 816.836 L64.0042 822.183 L46.2757 822.183 L46.2757 839.912 L40.8648 839.912 L40.8648 822.183 L23.1363 822.183 L23.1363 816.836 Z" fill="#000000" fill-rule="nonzero" fill-opacity="1" /><path clip-path="url(#clip730)" d="M58.5933 784.117 L58.5933 773.613 L22.3406 773.613 L24.6323 785.04 L18.7758 785.04 L16.4842 773.677 L16.4842 767.247 L58.5933 767.247 L58.5933 756.744 L64.0042 756.744 L64.0042 784.117 L58.5933 784.117 Z" fill="#000000" fill-rule="nonzero" fill-opacity="1" /><path clip-path="url(#clip730)" d="M14.5426 745.508 L14.5426 740.416 Q22.0542 735.642 29.2474 733.286 Q36.4406 730.899 43.5384 730.899 Q50.668 730.899 57.8931 733.286 Q65.1182 735.642 72.5979 740.416 L72.5979 745.508 Q65.3091 741.275 58.1159 739.206 Q50.8908 737.106 43.5384 737.106 Q36.186 737.106 29.0246 739.206 Q21.8632 741.275 14.5426 745.508 Z" fill="#000000" fill-rule="nonzero" fill-opacity="1" /><path clip-path="url(#clip730)" d="M20.1444 683.316 L26.9239 683.316 Q23.9002 686.562 22.4043 690.254 Q20.9083 693.914 20.9083 698.052 Q20.9083 706.2 25.9054 710.529 Q30.8707 714.858 40.2919 714.858 Q49.6813 714.858 54.6784 710.529 Q59.6436 706.2 59.6436 698.052 Q59.6436 693.914 58.1477 690.254 Q56.6518 686.562 53.6281 683.316 L60.3439 683.316 Q62.6355 686.689 63.7814 690.477 Q64.9272 694.233 64.9272 698.434 Q64.9272 709.224 58.3387 715.431 Q51.7183 721.637 40.2919 721.637 Q28.8336 721.637 22.2451 715.431 Q15.6248 709.224 15.6248 698.434 Q15.6248 694.169 16.7706 690.413 Q17.8846 686.626 20.1444 683.316 Z" fill="#000000" fill-rule="nonzero" fill-opacity="1" /><path clip-path="url(#clip730)" d="M36.2815 675.899 L36.2815 672.207 L64.0042 672.207 L64.0042 675.899 L36.2815 675.899 Z" fill="#000000" fill-rule="nonzero" fill-opacity="1" /><path clip-path="url(#clip730)" d="M16.4842 652.41 L16.4842 646.999 L70.0516 663.55 L70.0516 668.961 L16.4842 652.41 Z" fill="#000000" fill-rule="nonzero" fill-opacity="1" /><path clip-path="url(#clip730)" d="M58.5933 634.491 L58.5933 612.051 L64.0042 612.051 L64.0042 642.225 L58.5933 642.225 Q54.8057 638.565 48.44 632.263 Q42.0425 625.929 40.1964 624.305 Q36.7271 621.218 34.34 620.009 Q31.921 618.767 29.5975 618.767 Q25.8099 618.767 23.4228 621.441 Q21.0356 624.083 21.0356 628.348 Q21.0356 631.371 22.086 634.745 Q23.1363 638.087 25.2688 641.907 L18.7758 641.907 Q17.2162 638.024 16.4205 634.65 Q15.6248 631.276 15.6248 628.475 Q15.6248 621.091 19.3169 616.698 Q23.009 612.306 29.1837 612.306 Q32.112 612.306 34.7537 613.42 Q37.3637 614.502 40.9285 617.399 Q41.8515 618.194 46.2757 622.459 Q50.668 626.724 58.5933 634.491 Z" fill="#000000" fill-rule="nonzero" fill-opacity="1" /><path clip-path="url(#clip730)" d="M28.3562 603.171 L28.3562 569.019 L34.2127 569.019 L34.2127 573.507 L56.1107 573.507 Q58.4023 573.507 59.4208 572.743 Q60.4075 571.948 60.4075 570.197 Q60.4075 569.72 60.3439 569.019 Q60.2484 568.319 60.2166 568.096 L64.4498 568.096 Q64.8635 569.21 65.0545 570.388 Q65.2455 571.566 65.2455 572.743 Q65.2455 576.563 63.1766 578.027 Q61.0759 579.491 55.4741 579.491 L34.2127 579.491 L34.2127 592.636 L64.0042 592.636 L64.0042 598.62 L34.2127 598.62 L34.2127 603.171 L28.3562 603.171 Z" fill="#000000" fill-rule="nonzero" fill-opacity="1" /><path clip-path="url(#clip731)" d="M450.296 1384.24 L452.22 1377.27 L454.144 1370.55 L456.068 1364.08 L457.992 1357.88 L459.916 1351.94 L461.84 1346.26 L463.764 1340.85 L465.688 1335.69 L467.612 1330.79 L469.536 1326.11 L471.46 1321.66 L473.384 1317.4 L475.308 1313.32 L477.232 1309.4 L479.156 1305.59 L481.08 1301.86 L483.004 1298.18 L484.928 1294.49 L486.852 1290.76 L488.776 1286.92 L490.7 1282.92 L492.624 1278.75 L494.548 1274.4 L496.472 1269.84 L498.396 1265.09 L500.32 1260.13 L502.244 1254.96 L504.168 1249.57 L506.092 1243.98 L508.016 1238.17 L509.94 1232.17 L511.864 1225.98 L513.788 1219.62 L515.712 1213.09 L517.636 1206.42 L519.56 1199.63 L521.484 1192.75 L523.408 1185.8 L525.332 1178.82 L527.256 1171.86 L529.18 1164.93 L531.104 1158.05 L533.028 1151.22 L534.952 1144.43 L536.876 1137.68 L538.8 1130.97 L540.724 1124.29 L542.648 1117.64 L544.572 1111.01 L546.496 1104.4 L548.42 1097.81 L550.344 1091.22 L552.268 1084.63 L554.192 1078.04 L556.116 1071.43 L558.04 1064.8 L559.964 1058.13 L561.888 1051.43 L563.812 1044.67 L565.736 1037.85 L567.66 1030.96 L569.584 1024 L571.508 1016.97 L573.432 1009.87 L575.356 1002.69 L577.28 995.445 L579.204 988.13 L581.128 980.749 L583.052 973.303 L584.976 965.795 L586.9 958.229 L588.824 950.608 L590.748 942.936 L592.672 935.216 L594.596 927.455 L596.52 919.658 L598.444 911.83 L600.368 903.978 L602.292 896.109 L604.216 888.23 L606.14 880.348 L608.064 872.464 L609.988 864.58 L611.912 856.694 L613.836 848.808 L615.76 840.921 L617.684 833.034 L619.608 825.147 L621.532 817.261 L623.456 809.376 L625.38 801.492 L627.304 793.609 L629.228 785.729 L631.152 777.852 L633.076 769.978 L635 762.108 L636.924 754.242 L638.849 746.381 L640.773 738.525 L642.697 730.676 L644.621 722.834 L646.545 715.001 L648.469 707.178 L650.393 699.366 L652.317 691.567 L654.241 683.784 L656.165 676.017 L658.089 668.268 L660.013 660.541 L661.937 652.836 L663.861 645.156 L665.785 637.503 L667.709 629.88 L669.633 622.289 L671.557 614.733 L673.481 607.214 L675.405 599.735 L677.329 592.3 L679.253 584.91 L681.177 577.57 L683.101 570.281 L685.025 563.047 L686.949 555.867 L688.873 548.744 L690.797 541.68 L692.721 534.674 L694.645 527.73 L696.569 520.848 L698.493 514.03 L700.417 507.277 L702.341 500.592 L704.265 493.975 L706.189 487.428 L708.113 480.953 L710.037 474.551 L711.961 468.224 L713.885 461.974 L715.809 455.803 L717.733 449.711 L719.657 443.702 L721.581 437.776 L723.505 431.935 L725.429 426.181 L727.353 420.514 L729.277 414.937 L731.201 409.45 L733.125 404.055 L735.049 398.754 L736.973 393.547 L738.897 388.436 L740.821 383.423 L742.745 378.508 L744.669 373.694 L746.593 368.982 L748.517 364.373 L750.441 359.869 L752.365 355.471 L754.289 351.18 L756.213 346.999 L758.137 342.928 L760.061 338.968 L761.985 335.122 L763.909 331.39 L765.833 327.773 L767.757 324.271 L769.681 320.887 L771.605 317.62 L773.529 314.471 L775.453 311.442 L777.377 308.533 L779.301 305.745 L781.225 303.08 L783.149 300.537 L785.073 298.117 L786.997 295.822 L788.921 293.653 L790.845 291.609 L792.769 289.692 L794.693 287.902 L796.617 286.24 L798.541 284.707 L800.465 283.303 L802.389 282.029 L804.313 280.885 L806.237 279.87 L808.161 278.985 L810.085 278.231 L812.009 277.607 L813.933 277.114 L815.857 276.752 L817.781 276.52 L819.705 276.418 L821.629 276.448 L823.553 276.608 L825.477 276.899 L827.401 277.32 L829.325 277.871 L831.249 278.552 L833.173 279.364 L835.097 280.304 L837.021 281.375 L838.945 282.574 L840.869 283.902 L842.793 285.358 L844.717 286.942 L846.641 288.653 L848.566 290.491 L850.49 292.455 L852.414 294.544 L854.338 296.759 L856.262 299.098 L858.186 301.561 L860.11 304.146 L862.034 306.854 L863.958 309.683 L865.882 312.632 L867.806 315.7 L869.73 318.887 L871.654 322.192 L873.578 325.613 L875.502 329.15 L877.426 332.801 L879.35 336.566 L881.274 340.443 L883.198 344.431 L885.122 348.529 L887.046 352.737 L888.97 357.052 L890.894 361.474 L892.818 366.001 L894.742 370.632 L896.666 375.366 L898.59 380.201 L900.514 385.136 L902.438 390.169 L904.362 395.299 L906.286 400.523 L908.21 405.842 L910.134 411.252 L912.058 416.753 L913.982 422.342 L915.906 428.018 L917.83 433.78 L919.754 439.626 L921.678 445.554 L923.602 451.563 L925.526 457.651 L927.45 463.817 L929.374 470.058 L931.298 476.373 L933.222 482.761 L935.146 489.219 L937.07 495.745 L938.994 502.339 L940.918 508.996 L942.842 515.717 L944.766 522.499 L946.69 529.339 L948.614 536.236 L950.538 543.187 L952.462 550.191 L954.386 557.245 L956.31 564.349 L958.234 571.499 L960.158 578.695 L962.082 585.934 L964.006 593.214 L965.93 600.534 L967.854 607.891 L969.778 615.285 L971.702 622.711 L973.626 630.17 L975.55 637.658 L977.474 645.173 L979.398 652.714 L981.322 660.279 L983.246 667.864 L985.17 675.468 L987.094 683.089 L989.018 690.725 L990.942 698.372 L992.866 706.031 L994.79 713.697 L996.714 721.371 L998.638 729.049 L1000.56 736.731 L1002.49 744.414 L1004.41 752.096 L1006.33 759.776 L1008.26 767.451 L1010.18 775.12 L1012.11 782.781 L1014.03 790.431 L1015.95 798.069 L1017.88 805.693 L1019.8 813.3 L1021.73 820.89 L1023.65 828.459 L1025.57 836.006 L1027.5 843.528 L1029.42 851.024 L1031.35 858.492 L1033.27 865.93 L1035.19 873.337 L1037.12 880.711 L1039.04 888.051 L1040.97 895.355 L1042.89 902.621 L1044.81 909.848 L1046.74 917.034 L1048.66 924.178 L1050.59 931.277 L1052.51 938.331 L1054.43 945.338 L1056.36 952.295 L1058.28 959.202 L1060.21 966.057 L1062.13 972.859 L1064.05 979.604 L1065.98 986.293 L1067.9 992.923 L1069.83 999.494 L1071.75 1006 L1073.67 1012.45 L1075.6 1018.83 L1077.52 1025.15 L1079.45 1031.41 L1081.37 1037.59 L1083.29 1043.71 L1085.22 1049.76 L1087.14 1055.74 L1089.07 1061.65 L1090.99 1067.48 L1092.91 1073.24 L1094.84 1078.93 L1096.76 1084.54 L1098.69 1090.07 L1100.61 1095.53 L1102.53 1100.9 L1104.46 1106.2 L1106.38 1111.42 L1108.31 1116.55 L1110.23 1121.6 L1112.15 1126.57 L1114.08 1131.46 L1116 1136.26 L1117.93 1140.97 L1119.85 1145.61 L1121.77 1150.15 L1123.7 1154.61 L1125.62 1158.98 L1127.55 1163.26 L1129.47 1167.46 L1131.39 1171.57 L1133.32 1175.59 L1135.24 1179.52 L1137.17 1183.36 L1139.09 1187.11 L1141.01 1190.77 L1142.94 1194.34 L1144.86 1197.82 L1146.79 1201.21 L1148.71 1204.51 L1150.63 1207.72 L1152.56 1210.83 L1154.48 1213.86 L1156.41 1216.79 L1158.33 1219.64 L1160.25 1222.39 L1162.18 1225.05 L1164.1 1227.62 L1166.03 1230.1 L1167.95 1232.49 L1169.88 1234.79 L1171.8 1237 L1173.72 1239.12 L1175.65 1241.15 L1177.57 1243.09 L1179.5 1244.95 L1181.42 1246.71 L1183.34 1248.39 L1185.27 1249.98 L1187.19 1251.48 L1189.12 1252.89 L1191.04 1254.22 L1192.96 1255.47 L1194.89 1256.63 L1196.81 1257.7 L1198.74 1258.69 L1200.66 1259.6 L1202.58 1260.42 L1204.51 1261.16 L1206.43 1261.82 L1208.36 1262.4 L1210.28 1262.9 L1212.2 1263.33 L1214.13 1263.67 L1216.05 1263.94 L1217.98 1264.13 L1219.9 1264.25 L1221.82 1264.29 L1223.75 1264.26 L1225.67 1264.15 L1227.6 1263.98 L1229.52 1263.73 L1231.44 1263.41 L1233.37 1263.03 L1235.29 1262.58 L1237.22 1262.06 L1239.14 1261.47 L1241.06 1260.82 L1242.99 1260.11 L1244.91 1259.33 L1246.84 1258.49 L1248.76 1257.59 L1250.68 1256.64 L1252.61 1255.62 L1254.53 1254.55 L1256.46 1253.43 L1258.38 1252.25 L1260.3 1251.02 L1262.23 1249.73 L1264.15 1248.4 L1266.08 1247.02 L1268 1245.59 L1269.92 1244.11 L1271.85 1242.59 L1273.77 1241.03 L1275.7 1239.42 L1277.62 1237.77 L1279.54 1236.08 L1281.47 1234.35 L1283.39 1232.58 L1285.32 1230.77 L1287.24 1228.94 L1289.16 1227.06 L1291.09 1225.16 L1293.01 1223.22 L1294.94 1221.26 L1296.86 1219.26 L1298.78 1217.25 L1300.71 1215.2 L1302.63 1213.14 L1304.56 1211.05 L1306.48 1208.93 L1308.4 1206.8 L1310.33 1204.65 L1312.25 1202.48 L1314.18 1200.3 L1316.1 1198.1 L1318.02 1195.89 L1319.95 1193.66 L1321.87 1191.42 L1323.8 1189.17 L1325.72 1186.92 L1327.64 1184.66 L1329.57 1182.39 L1331.49 1180.11 L1333.42 1177.84 L1335.34 1175.56 L1337.26 1173.28 L1339.19 1171.01 L1341.11 1168.73 L1343.04 1166.46 L1344.96 1164.2 L1346.88 1161.94 L1348.81 1159.68 L1350.73 1157.44 L1352.66 1155.2 L1354.58 1152.97 L1356.5 1150.76 L1358.43 1148.55 L1360.35 1146.36 L1362.28 1144.18 L1364.2 1142.02 L1366.12 1139.87 L1368.05 1137.75 L1369.97 1135.64 L1371.9 1133.55 L1373.82 1131.48 L1375.74 1129.44 L1377.67 1127.42 L1379.59 1125.42 L1381.52 1123.45 L1383.44 1121.51 L1385.36 1119.59 L1387.29 1117.7 L1389.21 1115.83 L1391.14 1114 L1393.06 1112.2 L1394.98 1110.42 L1396.91 1108.68 L1398.83 1106.97 L1400.76 1105.29 L1402.68 1103.65 L1404.6 1102.04 L1406.53 1100.46 L1408.45 1098.92 L1410.38 1097.42 L1412.3 1095.96 L1414.22 1094.54 L1416.15 1093.15 L1418.07 1091.8 L1420 1090.5 L1421.92 1089.23 L1423.84 1088.01 L1425.77 1086.82 L1427.69 1085.68 L1429.62 1084.58 L1431.54 1083.52 L1433.46 1082.5 L1435.39 1081.53 L1437.31 1080.6 L1439.24 1079.71 L1441.16 1078.87 L1443.08 1078.07 L1445.01 1077.31 L1446.93 1076.6 L1448.86 1075.94 L1450.78 1075.32 L1452.7 1074.75 L1454.63 1074.23 L1456.55 1073.75 L1458.48 1073.31 L1460.4 1072.93 L1462.32 1072.59 L1464.25 1072.29 L1466.17 1072.04 L1468.1 1071.84 L1470.02 1071.68 L1471.94 1071.57 L1473.87 1071.51 L1475.79 1071.49 L1477.72 1071.52 L1479.64 1071.59 L1481.56 1071.71 L1483.49 1071.87 L1485.41 1072.08 L1487.34 1072.34 L1489.26 1072.64 L1491.18 1072.98 L1493.11 1073.37 L1495.03 1073.81 L1496.96 1074.28 L1498.88 1074.81 L1500.8 1075.37 L1502.73 1075.98 L1504.65 1076.63 L1506.58 1077.32 L1508.5 1078.06 L1510.42 1078.83 L1512.35 1079.65 L1514.27 1080.5 L1516.2 1081.4 L1518.12 1082.33 L1520.04 1083.31 L1521.97 1084.32 L1523.89 1085.37 L1525.82 1086.46 L1527.74 1087.58 L1529.66 1088.74 L1531.59 1089.93 L1533.51 1091.16 L1535.44 1092.43 L1537.36 1093.73 L1539.28 1095.06 L1541.21 1096.42 L1543.13 1097.82 L1545.06 1099.24 L1546.98 1100.7 L1548.9 1102.18 L1550.83 1103.7 L1552.75 1105.24 L1554.68 1106.81 L1556.6 1108.41 L1558.52 1110.03 L1560.45 1111.68 L1562.37 1113.35 L1564.3 1115.04 L1566.22 1116.76 L1568.14 1118.5 L1570.07 1120.26 L1571.99 1122.04 L1573.92 1123.84 L1575.84 1125.66 L1577.76 1127.5 L1579.69 1129.35 L1581.61 1131.22 L1583.54 1133.1 L1585.46 1135 L1587.39 1136.92 L1589.31 1138.84 L1591.23 1140.78 L1593.16 1142.73 L1595.08 1144.69 L1597.01 1146.66 L1598.93 1148.63 L1600.85 1150.62 L1602.78 1152.61 L1604.7 1154.6 L1606.63 1156.6 L1608.55 1158.61 L1610.47 1160.62 L1612.4 1162.62 L1614.32 1164.63 L1616.25 1166.65 L1618.17 1168.66 L1620.09 1170.67 L1622.02 1172.67 L1623.94 1174.68 L1625.87 1176.68 L1627.79 1178.68 L1629.71 1180.67 L1631.64 1182.66 L1633.56 1184.63 L1635.49 1186.61 L1637.41 1188.57 L1639.33 1190.52 L1641.26 1192.46 L1643.18 1194.39 L1645.11 1196.31 L1647.03 1198.21 L1648.95 1200.1 L1650.88 1201.97 L1652.8 1203.83 L1654.73 1205.68 L1656.65 1207.51 L1658.57 1209.32 L1660.5 1211.11 L1662.42 1212.88 L1664.35 1214.64 L1666.27 1216.37 L1668.19 1218.08 L1670.12 1219.78 L1672.04 1221.45 L1673.97 1223.09 L1675.89 1224.72 L1677.81 1226.32 L1679.74 1227.89 L1681.66 1229.44 L1683.59 1230.96 L1685.51 1232.45 L1687.43 1233.92 L1689.36 1235.36 L1691.28 1236.77 L1693.21 1238.15 L1695.13 1239.5 L1697.05 1240.82 L1698.98 1242.11 L1700.9 1243.37 L1702.83 1244.6 L1704.75 1245.8 L1706.67 1246.96 L1708.6 1248.1 L1710.52 1249.2 L1712.45 1250.27 L1714.37 1251.3 L1716.29 1252.3 L1718.22 1253.26 L1720.14 1254.19 L1722.07 1255.08 L1723.99 1255.94 L1725.91 1256.76 L1727.84 1257.54 L1729.76 1258.29 L1731.69 1259 L1733.61 1259.67 L1735.53 1260.31 L1737.46 1260.91 L1739.38 1261.47 L1741.31 1262 L1743.23 1262.49 L1745.15 1262.94 L1747.08 1263.35 L1749 1263.72 L1750.93 1264.06 L1752.85 1264.36 L1754.77 1264.62 L1756.7 1264.84 L1758.62 1265.02 L1760.55 1265.16 L1762.47 1265.27 L1764.39 1265.34 L1766.32 1265.37 L1768.24 1265.36 L1770.17 1265.31 L1772.09 1265.22 L1774.01 1265.1 L1775.94 1264.94 L1777.86 1264.74 L1779.79 1264.51 L1781.71 1264.23 L1783.63 1263.92 L1785.56 1263.58 L1787.48 1263.2 L1789.41 1262.78 L1791.33 1262.32 L1793.25 1261.83 L1795.18 1261.3 L1797.1 1260.74 L1799.03 1260.15 L1800.95 1259.51 L1802.87 1258.85 L1804.8 1258.15 L1806.72 1257.41 L1808.65 1256.64 L1810.57 1255.84 L1812.49 1255.01 L1814.42 1254.15 L1816.34 1253.25 L1818.27 1252.32 L1820.19 1251.36 L1822.11 1250.38 L1824.04 1249.36 L1825.96 1248.31 L1827.89 1247.23 L1829.81 1246.13 L1831.73 1245 L1833.66 1243.84 L1835.58 1242.65 L1837.51 1241.44 L1839.43 1240.2 L1841.35 1238.94 L1843.28 1237.65 L1845.2 1236.34 L1847.13 1235.01 L1849.05 1233.65 L1850.97 1232.27 L1852.9 1230.87 L1854.82 1229.45 L1856.75 1228.01 L1858.67 1226.55 L1860.59 1225.07 L1862.52 1223.57 L1864.44 1222.05 L1866.37 1220.52 L1868.29 1218.97 L1870.21 1217.41 L1872.14 1215.83 L1874.06 1214.24 L1875.99 1212.63 L1877.91 1211.02 L1879.83 1209.39 L1881.76 1207.75 L1883.68 1206.09 L1885.61 1204.43 L1887.53 1202.76 L1889.45 1201.08 L1891.38 1199.4 L1893.3 1197.71 L1895.23 1196.01 L1897.15 1194.3 L1899.07 1192.59 L1901 1190.88 L1902.92 1189.16 L1904.85 1187.44 L1906.77 1185.72 L1908.69 1184 L1910.62 1182.28 L1912.54 1180.56 L1914.47 1178.84 L1916.39 1177.12 L1918.31 1175.41 L1920.24 1173.7 L1922.16 1172 L1924.09 1170.29 L1926.01 1168.6 L1927.93 1166.91 L1929.86 1165.23 L1931.78 1163.56 L1933.71 1161.89 L1935.63 1160.24 L1937.55 1158.59 L1939.48 1156.95 L1941.4 1155.33 L1943.33 1153.72 L1945.25 1152.12 L1947.17 1150.54 L1949.1 1148.97 L1951.02 1147.41 L1952.95 1145.87 L1954.87 1144.35 L1956.79 1142.85 L1958.72 1141.36 L1960.64 1139.89 L1962.57 1138.44 L1964.49 1137.01 L1966.41 1135.6 L1968.34 1134.21 L1970.26 1132.84 L1972.19 1131.5 L1974.11 1130.17 L1976.03 1128.87 L1977.96 1127.59 L1979.88 1126.34 L1981.81 1125.11 L1983.73 1123.91 L1985.65 1122.73 L1987.58 1121.58 L1989.5 1120.46 L1991.43 1119.37 L1993.35 1118.3 L1995.27 1117.27 L1997.2 1116.26 L1999.12 1115.28 L2001.05 1114.33 L2002.97 1113.41 L2004.9 1112.52 L2006.82 1111.67 L2008.74 1110.84 L2010.67 1110.05 L2012.59 1109.29 L2014.52 1108.56 L2016.44 1107.87 L2018.36 1107.2 L2020.29 1106.58 L2022.21 1105.98 L2024.14 1105.42 L2026.06 1104.9 L2027.98 1104.41 L2029.91 1103.96 L2031.83 1103.54 L2033.76 1103.16 L2035.68 1102.82 L2037.6 1102.51 L2039.53 1102.24 L2041.45 1102 L2043.38 1101.81 L2045.3 1101.65 L2047.22 1101.52 L2049.15 1101.44 L2051.07 1101.39 L2053 1101.38 L2054.92 1101.4 L2056.84 1101.47 L2058.77 1101.57 L2060.69 1101.71 L2062.62 1101.89 L2064.54 1102.11 L2066.46 1102.37 L2068.39 1102.66 L2070.31 1103 L2072.24 1103.37 L2074.16 1103.78 L2076.08 1104.23 L2078.01 1104.72 L2079.93 1105.25 L2081.86 1105.81 L2083.78 1106.41 L2085.7 1107.05 L2087.63 1107.73 L2089.55 1108.45 L2091.48 1109.2 L2093.4 1109.99 L2095.32 1110.82 L2097.25 1111.68 L2099.17 1112.58 L2101.1 1113.52 L2103.02 1114.5 L2104.94 1115.51 L2106.87 1116.55 L2108.79 1117.64 L2110.72 1118.76 L2112.64 1119.91 L2114.56 1121.1 L2116.49 1122.33 L2118.41 1123.58 L2120.34 1124.88 L2122.26 1126.2 L2124.18 1127.56 L2126.11 1128.96 L2128.03 1130.38 L2129.96 1131.84 L2131.88 1133.33 L2133.8 1134.86 L2135.73 1136.41 L2137.65 1138 L2139.58 1139.61 L2141.5 1141.26 L2143.42 1142.94 L2145.35 1144.64 L2147.27 1146.38 L2149.2 1148.14 L2151.12 1149.93 L2153.04 1151.75 L2154.97 1153.6 L2156.89 1155.47 L2158.82 1157.37 L2160.74 1159.3 L2162.66 1161.25 L2164.59 1163.22 L2166.51 1165.22 L2168.44 1167.24 L2170.36 1169.28 L2172.28 1171.35 L2174.21 1173.44 L2176.13 1175.54 L2178.06 1177.67 L2179.98 1179.82 L2181.9 1181.99 L2183.83 1184.18 L2185.75 1186.38 L2187.68 1188.6 L2189.6 1190.84 L2191.52 1193.1 L2193.45 1195.37 L2195.37 1197.66 L2197.3 1199.96 L2199.22 1202.28 L2201.14 1204.61 L2203.07 1206.96 L2204.99 1209.32 L2206.92 1211.69 L2208.84 1214.08 L2210.76 1216.47 L2212.69 1218.88 L2214.61 1221.3 L2216.54 1223.73 L2218.46 1226.17 L2220.38 1228.62 L2222.31 1231.08 L2224.23 1233.54 L2226.16 1236.02 L2228.08 1238.49 L2230 1240.98 L2231.93 1243.46 L2233.85 1245.95 L2235.78 1248.45 L2237.7 1250.94 L2239.62 1253.43 L2241.55 1255.92 L2243.47 1258.41 L2245.4 1260.89 L2247.32 1263.37 L2249.24 1265.84 L2251.17 1268.31 L2253.09 1270.77 L2255.02 1273.22 L2256.94 1275.66 L2258.86 1278.09 L2260.79 1280.51 L2262.71 1282.91 L2264.64 1285.3 L2266.56 1287.69 L2268.48 1290.07 L2270.41 1292.44 L2272.33 1294.8 L2274.26 1297.16 L2276.18 1299.52 L2278.1 1301.88 L2280.03 1304.23 L2281.95 1306.58 L2283.88 1308.94 L2285.8 1311.3 L2287.72 1313.66 L2289.65 1316.03 L2291.57 1318.4 L2293.5 1320.78 L2295.42 1323.17 L2297.34 1325.57 L2297.34 1305.84 L2295.42 1303.27 L2293.5 1300.71 L2291.57 1298.16 L2289.65 1295.62 L2287.72 1293.09 L2285.8 1290.56 L2283.88 1288.04 L2281.95 1285.52 L2280.03 1283 L2278.1 1280.48 L2276.18 1277.96 L2274.26 1275.44 L2272.33 1272.91 L2270.41 1270.38 L2268.48 1267.84 L2266.56 1265.29 L2264.64 1262.74 L2262.71 1260.17 L2260.79 1257.6 L2258.86 1255.01 L2256.94 1252.41 L2255.02 1249.8 L2253.09 1247.17 L2251.17 1244.54 L2249.24 1241.9 L2247.32 1239.25 L2245.4 1236.59 L2243.47 1233.93 L2241.55 1231.26 L2239.62 1228.59 L2237.7 1225.92 L2235.78 1223.25 L2233.85 1220.58 L2231.93 1217.91 L2230 1215.25 L2228.08 1212.59 L2226.16 1209.93 L2224.23 1207.28 L2222.31 1204.63 L2220.38 1202 L2218.46 1199.37 L2216.54 1196.75 L2214.61 1194.15 L2212.69 1191.55 L2210.76 1188.97 L2208.84 1186.39 L2206.92 1183.83 L2204.99 1181.29 L2203.07 1178.75 L2201.14 1176.23 L2199.22 1173.73 L2197.3 1171.24 L2195.37 1168.77 L2193.45 1166.31 L2191.52 1163.87 L2189.6 1161.45 L2187.68 1159.04 L2185.75 1156.65 L2183.83 1154.28 L2181.9 1151.93 L2179.98 1149.6 L2178.06 1147.29 L2176.13 1145 L2174.21 1142.73 L2172.28 1140.49 L2170.36 1138.27 L2168.44 1136.07 L2166.51 1133.89 L2164.59 1131.74 L2162.66 1129.62 L2160.74 1127.52 L2158.82 1125.44 L2156.89 1123.4 L2154.97 1121.38 L2153.04 1119.39 L2151.12 1117.43 L2149.2 1115.49 L2147.27 1113.59 L2145.35 1111.72 L2143.42 1109.88 L2141.5 1108.07 L2139.58 1106.29 L2137.65 1104.55 L2135.73 1102.83 L2133.8 1101.15 L2131.88 1099.51 L2129.96 1097.9 L2128.03 1096.32 L2126.11 1094.78 L2124.18 1093.27 L2122.26 1091.79 L2120.34 1090.36 L2118.41 1088.96 L2116.49 1087.59 L2114.56 1086.26 L2112.64 1084.97 L2110.72 1083.72 L2108.79 1082.5 L2106.87 1081.32 L2104.94 1080.18 L2103.02 1079.08 L2101.1 1078.02 L2099.17 1077 L2097.25 1076.01 L2095.32 1075.07 L2093.4 1074.16 L2091.48 1073.3 L2089.55 1072.47 L2087.63 1071.69 L2085.7 1070.94 L2083.78 1070.23 L2081.86 1069.57 L2079.93 1068.94 L2078.01 1068.36 L2076.08 1067.82 L2074.16 1067.31 L2072.24 1066.85 L2070.31 1066.43 L2068.39 1066.05 L2066.46 1065.71 L2064.54 1065.42 L2062.62 1065.16 L2060.69 1064.95 L2058.77 1064.78 L2056.84 1064.64 L2054.92 1064.55 L2053 1064.5 L2051.07 1064.49 L2049.15 1064.52 L2047.22 1064.59 L2045.3 1064.7 L2043.38 1064.85 L2041.45 1065.04 L2039.53 1065.27 L2037.6 1065.54 L2035.68 1065.84 L2033.76 1066.19 L2031.83 1066.58 L2029.91 1067 L2027.98 1067.46 L2026.06 1067.96 L2024.14 1068.5 L2022.21 1069.08 L2020.29 1069.69 L2018.36 1070.34 L2016.44 1071.03 L2014.52 1071.75 L2012.59 1072.51 L2010.67 1073.3 L2008.74 1074.13 L2006.82 1074.99 L2004.9 1075.88 L2002.97 1076.81 L2001.05 1077.77 L1999.12 1078.77 L1997.2 1079.79 L1995.27 1080.85 L1993.35 1081.94 L1991.43 1083.06 L1989.5 1084.21 L1987.58 1085.39 L1985.65 1086.6 L1983.73 1087.84 L1981.81 1089.1 L1979.88 1090.4 L1977.96 1091.72 L1976.03 1093.06 L1974.11 1094.44 L1972.19 1095.83 L1970.26 1097.25 L1968.34 1098.7 L1966.41 1100.17 L1964.49 1101.66 L1962.57 1103.17 L1960.64 1104.7 L1958.72 1106.25 L1956.79 1107.82 L1954.87 1109.42 L1952.95 1111.03 L1951.02 1112.65 L1949.1 1114.3 L1947.17 1115.96 L1945.25 1117.64 L1943.33 1119.33 L1941.4 1121.04 L1939.48 1122.76 L1937.55 1124.49 L1935.63 1126.23 L1933.71 1127.99 L1931.78 1129.75 L1929.86 1131.52 L1927.93 1133.31 L1926.01 1135.1 L1924.09 1136.89 L1922.16 1138.7 L1920.24 1140.51 L1918.31 1142.32 L1916.39 1144.14 L1914.47 1145.96 L1912.54 1147.78 L1910.62 1149.61 L1908.69 1151.43 L1906.77 1153.26 L1904.85 1155.09 L1902.92 1156.91 L1901 1158.73 L1899.07 1160.55 L1897.15 1162.36 L1895.23 1164.17 L1893.3 1165.98 L1891.38 1167.78 L1889.45 1169.57 L1887.53 1171.35 L1885.61 1173.12 L1883.68 1174.88 L1881.76 1176.64 L1879.83 1178.38 L1877.91 1180.11 L1875.99 1181.83 L1874.06 1183.53 L1872.14 1185.22 L1870.21 1186.9 L1868.29 1188.55 L1866.37 1190.2 L1864.44 1191.82 L1862.52 1193.43 L1860.59 1195.02 L1858.67 1196.59 L1856.75 1198.14 L1854.82 1199.67 L1852.9 1201.18 L1850.97 1202.66 L1849.05 1204.13 L1847.13 1205.56 L1845.2 1206.98 L1843.28 1208.37 L1841.35 1209.73 L1839.43 1211.07 L1837.51 1212.38 L1835.58 1213.66 L1833.66 1214.92 L1831.73 1216.15 L1829.81 1217.34 L1827.89 1218.51 L1825.96 1219.65 L1824.04 1220.76 L1822.11 1221.83 L1820.19 1222.88 L1818.27 1223.89 L1816.34 1224.86 L1814.42 1225.81 L1812.49 1226.72 L1810.57 1227.6 L1808.65 1228.44 L1806.72 1229.24 L1804.8 1230.01 L1802.87 1230.75 L1800.95 1231.45 L1799.03 1232.11 L1797.1 1232.73 L1795.18 1233.32 L1793.25 1233.86 L1791.33 1234.37 L1789.41 1234.84 L1787.48 1235.27 L1785.56 1235.67 L1783.63 1236.02 L1781.71 1236.33 L1779.79 1236.6 L1777.86 1236.84 L1775.94 1237.03 L1774.01 1237.19 L1772.09 1237.3 L1770.17 1237.37 L1768.24 1237.4 L1766.32 1237.39 L1764.39 1237.34 L1762.47 1237.25 L1760.55 1237.11 L1758.62 1236.94 L1756.7 1236.72 L1754.77 1236.46 L1752.85 1236.16 L1750.93 1235.82 L1749 1235.44 L1747.08 1235.01 L1745.15 1234.55 L1743.23 1234.04 L1741.31 1233.5 L1739.38 1232.91 L1737.46 1232.28 L1735.53 1231.61 L1733.61 1230.91 L1731.69 1230.16 L1729.76 1229.37 L1727.84 1228.54 L1725.91 1227.68 L1723.99 1226.77 L1722.07 1225.83 L1720.14 1224.84 L1718.22 1223.82 L1716.29 1222.76 L1714.37 1221.66 L1712.45 1220.52 L1710.52 1219.35 L1708.6 1218.14 L1706.67 1216.9 L1704.75 1215.61 L1702.83 1214.3 L1700.9 1212.95 L1698.98 1211.57 L1697.05 1210.15 L1695.13 1208.7 L1693.21 1207.22 L1691.28 1205.7 L1689.36 1204.16 L1687.43 1202.58 L1685.51 1200.98 L1683.59 1199.34 L1681.66 1197.67 L1679.74 1195.98 L1677.81 1194.25 L1675.89 1192.5 L1673.97 1190.72 L1672.04 1188.92 L1670.12 1187.09 L1668.19 1185.24 L1666.27 1183.36 L1664.35 1181.46 L1662.42 1179.54 L1660.5 1177.6 L1658.57 1175.64 L1656.65 1173.66 L1654.73 1171.65 L1652.8 1169.64 L1650.88 1167.6 L1648.95 1165.54 L1647.03 1163.48 L1645.11 1161.39 L1643.18 1159.29 L1641.26 1157.18 L1639.33 1155.05 L1637.41 1152.91 L1635.49 1150.76 L1633.56 1148.6 L1631.64 1146.44 L1629.71 1144.26 L1627.79 1142.08 L1625.87 1139.89 L1623.94 1137.69 L1622.02 1135.49 L1620.09 1133.29 L1618.17 1131.09 L1616.25 1128.88 L1614.32 1126.68 L1612.4 1124.47 L1610.47 1122.26 L1608.55 1120.06 L1606.63 1117.86 L1604.7 1115.67 L1602.78 1113.47 L1600.85 1111.29 L1598.93 1109.11 L1597.01 1106.94 L1595.08 1104.77 L1593.16 1102.62 L1591.23 1100.47 L1589.31 1098.34 L1587.39 1096.22 L1585.46 1094.12 L1583.54 1092.03 L1581.61 1089.95 L1579.69 1087.89 L1577.76 1085.85 L1575.84 1083.83 L1573.92 1081.82 L1571.99 1079.84 L1570.07 1077.87 L1568.14 1075.93 L1566.22 1074.01 L1564.3 1072.11 L1562.37 1070.24 L1560.45 1068.39 L1558.52 1066.57 L1556.6 1064.77 L1554.68 1063.01 L1552.75 1061.27 L1550.83 1059.56 L1548.9 1057.88 L1546.98 1056.23 L1545.06 1054.61 L1543.13 1053.03 L1541.21 1051.48 L1539.28 1049.96 L1537.36 1048.47 L1535.44 1047.03 L1533.51 1045.62 L1531.59 1044.24 L1529.66 1042.91 L1527.74 1041.61 L1525.82 1040.35 L1523.89 1039.13 L1521.97 1037.95 L1520.04 1036.81 L1518.12 1035.71 L1516.2 1034.66 L1514.27 1033.64 L1512.35 1032.67 L1510.42 1031.75 L1508.5 1030.86 L1506.58 1030.02 L1504.65 1029.23 L1502.73 1028.48 L1500.8 1027.78 L1498.88 1027.12 L1496.96 1026.51 L1495.03 1025.95 L1493.11 1025.44 L1491.18 1024.97 L1489.26 1024.55 L1487.34 1024.18 L1485.41 1023.86 L1483.49 1023.59 L1481.56 1023.37 L1479.64 1023.2 L1477.72 1023.07 L1475.79 1023 L1473.87 1022.98 L1471.94 1023 L1470.02 1023.08 L1468.1 1023.2 L1466.17 1023.38 L1464.25 1023.61 L1462.32 1023.88 L1460.4 1024.21 L1458.48 1024.58 L1456.55 1025.01 L1454.63 1025.48 L1452.7 1026.01 L1450.78 1026.59 L1448.86 1027.21 L1446.93 1027.89 L1445.01 1028.62 L1443.08 1029.39 L1441.16 1030.22 L1439.24 1031.09 L1437.31 1032.01 L1435.39 1032.98 L1433.46 1033.99 L1431.54 1035.05 L1429.62 1036.16 L1427.69 1037.31 L1425.77 1038.51 L1423.84 1039.76 L1421.92 1041.05 L1420 1042.38 L1418.07 1043.76 L1416.15 1045.18 L1414.22 1046.64 L1412.3 1048.15 L1410.38 1049.69 L1408.45 1051.28 L1406.53 1052.92 L1404.6 1054.59 L1402.68 1056.29 L1400.76 1058.04 L1398.83 1059.82 L1396.91 1061.64 L1394.98 1063.5 L1393.06 1065.39 L1391.14 1067.31 L1389.21 1069.26 L1387.29 1071.25 L1385.36 1073.27 L1383.44 1075.31 L1381.52 1077.39 L1379.59 1079.5 L1377.67 1081.63 L1375.74 1083.79 L1373.82 1085.97 L1371.9 1088.18 L1369.97 1090.42 L1368.05 1092.67 L1366.12 1094.95 L1364.2 1097.25 L1362.28 1099.57 L1360.35 1101.9 L1358.43 1104.25 L1356.5 1106.61 L1354.58 1108.99 L1352.66 1111.38 L1350.73 1113.78 L1348.81 1116.19 L1346.88 1118.61 L1344.96 1121.03 L1343.04 1123.47 L1341.11 1125.9 L1339.19 1128.34 L1337.26 1130.79 L1335.34 1133.23 L1333.42 1135.68 L1331.49 1138.12 L1329.57 1140.57 L1327.64 1143 L1325.72 1145.44 L1323.8 1147.86 L1321.87 1150.28 L1319.95 1152.68 L1318.02 1155.08 L1316.1 1157.46 L1314.18 1159.82 L1312.25 1162.17 L1310.33 1164.5 L1308.4 1166.81 L1306.48 1169.1 L1304.56 1171.37 L1302.63 1173.62 L1300.71 1175.84 L1298.78 1178.03 L1296.86 1180.2 L1294.94 1182.34 L1293.01 1184.45 L1291.09 1186.53 L1289.16 1188.58 L1287.24 1190.59 L1285.32 1192.56 L1283.39 1194.5 L1281.47 1196.39 L1279.54 1198.25 L1277.62 1200.06 L1275.7 1201.83 L1273.77 1203.55 L1271.85 1205.23 L1269.92 1206.86 L1268 1208.43 L1266.08 1209.96 L1264.15 1211.43 L1262.23 1212.85 L1260.3 1214.22 L1258.38 1215.53 L1256.46 1216.78 L1254.53 1217.98 L1252.61 1219.11 L1250.68 1220.18 L1248.76 1221.19 L1246.84 1222.13 L1244.91 1223.01 L1242.99 1223.82 L1241.06 1224.57 L1239.14 1225.24 L1237.22 1225.84 L1235.29 1226.37 L1233.37 1226.82 L1231.44 1227.21 L1229.52 1227.51 L1227.6 1227.74 L1225.67 1227.89 L1223.75 1227.96 L1221.82 1227.95 L1219.9 1227.86 L1217.98 1227.69 L1216.05 1227.44 L1214.13 1227.1 L1212.2 1226.68 L1210.28 1226.17 L1208.36 1225.57 L1206.43 1224.89 L1204.51 1224.12 L1202.58 1223.25 L1200.66 1222.3 L1198.74 1221.26 L1196.81 1220.12 L1194.89 1218.89 L1192.96 1217.57 L1191.04 1216.15 L1189.12 1214.64 L1187.19 1213.03 L1185.27 1211.33 L1183.34 1209.53 L1181.42 1207.63 L1179.5 1205.64 L1177.57 1203.54 L1175.65 1201.35 L1173.72 1199.06 L1171.8 1196.67 L1169.88 1194.18 L1167.95 1191.59 L1166.03 1188.9 L1164.1 1186.11 L1162.18 1183.22 L1160.25 1180.23 L1158.33 1177.14 L1156.41 1173.94 L1154.48 1170.65 L1152.56 1167.25 L1150.63 1163.75 L1148.71 1160.15 L1146.79 1156.45 L1144.86 1152.64 L1142.94 1148.74 L1141.01 1144.73 L1139.09 1140.62 L1137.17 1136.42 L1135.24 1132.11 L1133.32 1127.7 L1131.39 1123.19 L1129.47 1118.58 L1127.55 1113.87 L1125.62 1109.06 L1123.7 1104.16 L1121.77 1099.16 L1119.85 1094.06 L1117.93 1088.86 L1116 1083.57 L1114.08 1078.18 L1112.15 1072.7 L1110.23 1067.12 L1108.31 1061.45 L1106.38 1055.68 L1104.46 1049.83 L1102.53 1043.88 L1100.61 1037.84 L1098.69 1031.71 L1096.76 1025.49 L1094.84 1019.19 L1092.91 1012.8 L1090.99 1006.32 L1089.07 999.765 L1087.14 993.124 L1085.22 986.401 L1083.29 979.597 L1081.37 972.715 L1079.45 965.754 L1077.52 958.717 L1075.6 951.605 L1073.67 944.418 L1071.75 937.159 L1069.83 929.828 L1067.9 922.426 L1065.98 914.956 L1064.05 907.417 L1062.13 899.813 L1060.21 892.145 L1058.28 884.413 L1056.36 876.622 L1054.43 868.771 L1052.51 860.863 L1050.59 852.899 L1048.66 844.882 L1046.74 836.813 L1044.81 828.693 L1042.89 820.525 L1040.97 812.311 L1039.04 804.051 L1037.12 795.748 L1035.19 787.404 L1033.27 779.02 L1031.35 770.598 L1029.42 762.14 L1027.5 753.647 L1025.57 745.121 L1023.65 736.565 L1021.73 727.98 L1019.8 719.37 L1017.88 710.736 L1015.95 702.08 L1014.03 693.405 L1012.11 684.713 L1010.18 676.005 L1008.26 667.285 L1006.33 658.554 L1004.41 649.814 L1002.49 641.068 L1000.56 632.318 L998.638 623.565 L996.714 614.812 L994.79 606.061 L992.866 597.313 L990.942 588.571 L989.018 579.837 L987.094 571.113 L985.17 562.401 L983.246 553.704 L981.322 545.025 L979.398 536.364 L977.474 527.726 L975.55 519.113 L973.626 510.526 L971.702 501.968 L969.778 493.442 L967.854 484.949 L965.93 476.492 L964.006 468.073 L962.082 459.694 L960.158 451.357 L958.234 443.065 L956.31 434.82 L954.386 426.623 L952.462 418.477 L950.538 410.383 L948.614 402.344 L946.69 394.362 L944.766 386.439 L942.842 378.578 L940.918 370.781 L938.994 363.05 L937.07 355.387 L935.146 347.796 L933.222 340.277 L931.298 332.832 L929.374 325.465 L927.45 318.177 L925.526 310.97 L923.602 303.845 L921.678 296.806 L919.754 289.853 L917.83 282.988 L915.906 276.214 L913.982 269.532 L912.058 262.943 L910.134 256.45 L908.21 250.055 L906.286 243.759 L904.362 237.564 L902.438 231.472 L900.514 225.485 L898.59 219.605 L896.666 213.833 L894.742 208.171 L892.818 202.621 L890.894 197.184 L888.97 191.861 L887.046 186.655 L885.122 181.567 L883.198 176.598 L881.274 171.75 L879.35 167.023 L877.426 162.419 L875.502 157.94 L873.578 153.586 L871.654 149.359 L869.73 145.26 L867.806 141.29 L865.882 137.45 L863.958 133.742 L862.034 130.166 L860.11 126.724 L858.186 123.417 L856.262 120.245 L854.338 117.21 L852.414 114.312 L850.49 111.553 L848.566 108.932 L846.641 106.451 L844.717 104.111 L842.793 101.912 L840.869 99.8542 L838.945 97.939 L837.021 96.1667 L835.097 94.5378 L833.173 93.0527 L831.249 91.7119 L829.325 90.5157 L827.401 89.4645 L825.477 88.5586 L823.553 87.7982 L821.629 87.1835 L819.705 86.7148 L817.781 86.3922 L815.857 86.2158 L813.933 86.1857 L812.009 86.3019 L810.085 86.5644 L808.161 86.9733 L806.237 87.5284 L804.313 88.2297 L802.389 89.0771 L800.465 90.0703 L798.541 91.2092 L796.617 92.4935 L794.693 93.923 L792.769 95.4969 L790.845 97.2147 L788.921 99.0755 L786.997 101.079 L785.073 103.223 L783.149 105.509 L781.225 107.934 L779.301 110.499 L777.377 113.202 L775.453 116.042 L773.529 119.019 L771.605 122.132 L769.681 125.38 L767.757 128.761 L765.833 132.276 L763.909 135.923 L761.985 139.701 L760.061 143.609 L758.137 147.646 L756.213 151.811 L754.289 156.103 L752.365 160.52 L750.441 165.06 L748.517 169.723 L746.593 174.505 L744.669 179.407 L742.745 184.425 L740.821 189.56 L738.897 194.808 L736.973 200.17 L735.049 205.642 L733.125 211.224 L731.201 216.915 L729.277 222.712 L727.353 228.614 L725.429 234.62 L723.505 240.729 L721.581 246.938 L719.657 253.246 L717.733 259.653 L715.809 266.155 L713.885 272.751 L711.961 279.44 L710.037 286.219 L708.113 293.086 L706.189 300.04 L704.265 307.079 L702.341 314.201 L700.417 321.405 L698.493 328.688 L696.569 336.049 L694.645 343.487 L692.721 350.999 L690.797 358.585 L688.873 366.241 L686.949 373.968 L685.025 381.764 L683.101 389.626 L681.177 397.553 L679.253 405.544 L677.329 413.595 L675.405 421.703 L673.481 429.864 L671.557 438.075 L669.633 446.333 L667.709 454.634 L665.785 462.977 L663.861 471.357 L661.937 479.772 L660.013 488.22 L658.089 496.699 L656.165 505.205 L654.241 513.736 L652.317 522.291 L650.393 530.867 L648.469 539.463 L646.545 548.076 L644.621 556.704 L642.697 565.346 L640.773 574.001 L638.849 582.667 L636.924 591.345 L635 600.032 L633.076 608.728 L631.152 617.434 L629.228 626.147 L627.304 634.868 L625.38 643.597 L623.456 652.332 L621.532 661.073 L619.608 669.82 L617.684 678.572 L615.76 687.33 L613.836 696.092 L611.912 704.859 L609.988 713.63 L608.064 722.405 L606.14 731.184 L604.216 739.966 L602.292 748.75 L600.368 757.528 L598.444 766.291 L596.52 775.031 L594.596 783.739 L592.672 792.41 L590.748 801.035 L588.824 809.61 L586.9 818.129 L584.976 826.587 L583.052 834.98 L581.128 843.304 L579.204 851.555 L577.28 859.731 L575.356 867.829 L573.432 875.848 L571.508 883.785 L569.584 891.64 L567.66 899.412 L565.736 907.102 L563.812 914.71 L561.888 922.248 L559.964 929.729 L558.04 937.165 L556.116 944.568 L554.192 951.947 L552.268 959.313 L550.344 966.677 L548.42 974.045 L546.496 981.428 L544.572 988.833 L542.648 996.266 L540.724 1003.73 L538.8 1011.25 L536.876 1018.8 L534.952 1026.41 L533.028 1034.08 L531.104 1041.81 L529.18 1049.6 L527.256 1057.46 L525.332 1065.38 L523.408 1073.32 L521.484 1081.23 L519.56 1089.07 L517.636 1096.8 L515.712 1104.39 L513.788 1111.8 L511.864 1119.03 L509.94 1126.03 L508.016 1132.8 L506.092 1139.33 L504.168 1145.6 L502.244 1151.6 L500.32 1157.34 L498.396 1162.8 L496.472 1168.01 L494.548 1172.95 L492.624 1177.64 L490.7 1182.09 L488.776 1186.31 L486.852 1190.33 L484.928 1194.21 L483.004 1198.01 L481.08 1201.81 L479.156 1205.65 L477.232 1209.6 L475.308 1213.7 L473.384 1217.99 L471.46 1222.5 L469.536 1227.28 L467.612 1232.34 L465.688 1237.72 L463.764 1243.43 L461.84 1249.48 L459.916 1255.89 L457.992 1262.66 L456.068 1269.8 L454.144 1277.31 L452.22 1285.17 L450.296 1293.4  Z" fill="#009af9" fill-rule="evenodd" fill-opacity="0.5"/>
<polyline clip-path="url(#clip731)" style="stroke:#009af9; stroke-linecap:round; stroke-linejoin:round; stroke-width:4; stroke-opacity:1; fill:none" points="450.296,1338.82 452.22,1331.22 454.144,1323.93 456.068,1316.94 457.992,1310.27 459.916,1303.91 461.84,1297.87 463.764,1292.14 465.688,1286.71 467.612,1281.57 469.536,1276.7 471.46,1272.08 473.384,1267.69 475.308,1263.51 477.232,1259.5 479.156,1255.62 481.08,1251.83 483.004,1248.09 484.928,1244.35 486.852,1240.54 488.776,1236.61 490.7,1232.51 492.624,1228.2 494.548,1223.67 496.472,1218.93 498.396,1213.95 500.32,1208.73 502.244,1203.28 504.168,1197.58 506.092,1191.65 508.016,1185.49 509.94,1179.1 511.864,1172.5 513.788,1165.71 515.712,1158.74 517.636,1151.61 519.56,1144.35 521.484,1136.99 523.408,1129.56 525.332,1122.1 527.256,1114.66 529.18,1107.27 531.104,1099.93 533.028,1092.65 534.952,1085.42 536.876,1078.24 538.8,1071.11 540.724,1064.01 542.648,1056.95 544.572,1049.92 546.496,1042.92 548.42,1035.93 550.344,1028.95 552.268,1021.97 554.192,1014.99 556.116,1008 558.04,1000.98 559.964,993.93 561.888,986.837 563.812,979.69 565.736,972.477 567.66,965.188 569.584,957.822 571.508,950.378 573.432,942.857 575.356,935.26 577.28,927.588 579.204,919.843 581.128,912.026 583.052,904.142 584.976,896.191 586.9,888.179 588.824,880.109 590.748,871.985 592.672,863.813 594.596,855.597 596.52,847.344 598.444,839.061 600.368,830.753 602.292,822.429 604.216,814.098 606.14,805.766 608.064,797.435 609.988,789.105 611.912,780.776 613.836,772.45 615.76,764.125 617.684,755.803 619.608,747.483 621.532,739.167 623.456,730.854 625.38,722.544 627.304,714.239 629.228,705.938 631.152,697.643 633.076,689.353 635,681.07 636.924,672.793 638.849,664.524 640.773,656.263 642.697,648.011 644.621,639.769 646.545,631.538 648.469,623.32 650.393,615.117 652.317,606.929 654.241,598.76 656.165,590.611 658.089,582.484 660.013,574.381 661.937,566.304 663.861,558.256 665.785,550.24 667.709,542.257 669.633,534.311 671.557,526.404 673.481,518.539 675.405,510.719 677.329,502.947 679.253,495.227 681.177,487.561 683.101,479.953 685.025,472.405 686.949,464.918 688.873,457.493 690.797,450.132 692.721,442.837 694.645,435.608 696.569,428.449 698.493,421.359 700.417,414.341 702.341,407.396 704.265,400.527 706.189,393.734 708.113,387.019 710.037,380.385 711.961,373.832 713.885,367.363 715.809,360.979 717.733,354.682 719.657,348.474 721.581,342.357 723.505,336.332 725.429,330.401 727.353,324.564 729.277,318.824 731.201,313.182 733.125,307.64 735.049,302.198 736.973,296.858 738.897,291.622 740.821,286.491 742.745,281.467 744.669,276.55 746.593,271.744 748.517,267.048 750.441,262.465 752.365,257.995 754.289,253.642 756.213,249.405 758.137,245.287 760.061,241.289 761.985,237.411 763.909,233.656 765.833,230.024 767.757,226.516 769.681,223.133 771.605,219.876 773.529,216.745 775.453,213.742 777.377,210.867 779.301,208.122 781.225,205.507 783.149,203.023 785.073,200.67 786.997,198.451 788.921,196.364 790.845,194.412 792.769,192.594 794.693,190.912 796.617,189.367 798.541,187.958 800.465,186.687 802.389,185.553 804.313,184.557 806.237,183.699 808.161,182.979 810.085,182.398 812.009,181.955 813.933,181.65 815.857,181.484 817.781,181.456 819.705,181.567 821.629,181.816 823.553,182.203 825.477,182.729 827.401,183.392 829.325,184.193 831.249,185.132 833.173,186.208 835.097,187.421 837.021,188.771 838.945,190.256 840.869,191.878 842.793,193.635 844.717,195.526 846.641,197.552 848.566,199.711 850.49,202.004 852.414,204.428 854.338,206.985 856.262,209.672 858.186,212.489 860.11,215.435 862.034,218.51 863.958,221.712 865.882,225.041 867.806,228.495 869.73,232.074 871.654,235.775 873.578,239.6 875.502,243.545 877.426,247.61 879.35,251.794 881.274,256.096 883.198,260.515 885.122,265.048 887.046,269.696 888.97,274.457 890.894,279.329 892.818,284.311 894.742,289.402 896.666,294.599 898.59,299.903 900.514,305.31 902.438,310.82 904.362,316.431 906.286,322.141 908.21,327.948 910.134,333.851 912.058,339.848 913.982,345.937 915.906,352.116 917.83,358.384 919.754,364.739 921.678,371.18 923.602,377.704 925.526,384.31 927.45,390.997 929.374,397.762 931.298,404.603 933.222,411.519 935.146,418.507 937.07,425.566 938.994,432.694 940.918,439.889 942.842,447.147 944.766,454.469 946.69,461.85 948.614,469.29 950.538,476.785 952.462,484.334 954.386,491.934 956.31,499.584 958.234,507.282 960.158,515.026 962.082,522.814 964.006,530.643 965.93,538.513 967.854,546.42 969.778,554.363 971.702,562.34 973.626,570.348 975.55,578.385 977.474,586.45 979.398,594.539 981.322,602.652 983.246,610.784 985.17,618.935 987.094,627.101 989.018,635.281 990.942,643.472 992.866,651.672 994.79,659.879 996.714,668.091 998.638,676.307 1000.56,684.524 1002.49,692.741 1004.41,700.955 1006.33,709.165 1008.26,717.368 1010.18,725.563 1012.11,733.747 1014.03,741.918 1015.95,750.075 1017.88,758.214 1019.8,766.335 1021.73,774.435 1023.65,782.512 1025.57,790.563 1027.5,798.587 1029.42,806.582 1031.35,814.545 1033.27,822.475 1035.19,830.371 1037.12,838.23 1039.04,846.051 1040.97,853.833 1042.89,861.573 1044.81,869.271 1046.74,876.923 1048.66,884.53 1050.59,892.088 1052.51,899.597 1054.43,907.054 1056.36,914.458 1058.28,921.808 1060.21,929.101 1062.13,936.336 1064.05,943.511 1065.98,950.624 1067.9,957.675 1069.83,964.661 1071.75,971.581 1073.67,978.434 1075.6,985.219 1077.52,991.935 1079.45,998.58 1081.37,1005.15 1083.29,1011.65 1085.22,1018.08 1087.14,1024.43 1089.07,1030.71 1090.99,1036.9 1092.91,1043.02 1094.84,1049.06 1096.76,1055.02 1098.69,1060.89 1100.61,1066.68 1102.53,1072.39 1104.46,1078.01 1106.38,1083.55 1108.31,1089 1110.23,1094.36 1112.15,1099.63 1114.08,1104.82 1116,1109.91 1117.93,1114.92 1119.85,1119.83 1121.77,1124.65 1123.7,1129.38 1125.62,1134.02 1127.55,1138.57 1129.47,1143.02 1131.39,1147.38 1133.32,1151.64 1135.24,1155.81 1137.17,1159.89 1139.09,1163.87 1141.01,1167.75 1142.94,1171.54 1144.86,1175.23 1146.79,1178.83 1148.71,1182.33 1150.63,1185.73 1152.56,1189.04 1154.48,1192.25 1156.41,1195.37 1158.33,1198.39 1160.25,1201.31 1162.18,1204.14 1164.1,1206.87 1166.03,1209.5 1167.95,1212.04 1169.88,1214.49 1171.8,1216.84 1173.72,1219.09 1175.65,1221.25 1177.57,1223.32 1179.5,1225.29 1181.42,1227.17 1183.34,1228.96 1185.27,1230.65 1187.19,1232.26 1189.12,1233.77 1191.04,1235.19 1192.96,1236.52 1194.89,1237.76 1196.81,1238.91 1198.74,1239.97 1200.66,1240.95 1202.58,1241.84 1204.51,1242.64 1206.43,1243.36 1208.36,1243.99 1210.28,1244.54 1212.2,1245 1214.13,1245.39 1216.05,1245.69 1217.98,1245.91 1219.9,1246.05 1221.82,1246.12 1223.75,1246.11 1225.67,1246.02 1227.6,1245.86 1229.52,1245.62 1231.44,1245.31 1233.37,1244.93 1235.29,1244.47 1237.22,1243.95 1239.14,1243.35 1241.06,1242.69 1242.99,1241.97 1244.91,1241.17 1246.84,1240.31 1248.76,1239.39 1250.68,1238.41 1252.61,1237.37 1254.53,1236.26 1256.46,1235.1 1258.38,1233.89 1260.3,1232.62 1262.23,1231.29 1264.15,1229.92 1266.08,1228.49 1268,1227.01 1269.92,1225.49 1271.85,1223.91 1273.77,1222.29 1275.7,1220.62 1277.62,1218.92 1279.54,1217.16 1281.47,1215.37 1283.39,1213.54 1285.32,1211.67 1287.24,1209.76 1289.16,1207.82 1291.09,1205.84 1293.01,1203.84 1294.94,1201.8 1296.86,1199.73 1298.78,1197.64 1300.71,1195.52 1302.63,1193.38 1304.56,1191.21 1306.48,1189.02 1308.4,1186.81 1310.33,1184.58 1312.25,1182.33 1314.18,1180.06 1316.1,1177.78 1318.02,1175.48 1319.95,1173.17 1321.87,1170.85 1323.8,1168.52 1325.72,1166.18 1327.64,1163.83 1329.57,1161.48 1331.49,1159.12 1333.42,1156.76 1335.34,1154.4 1337.26,1152.04 1339.19,1149.68 1341.11,1147.32 1343.04,1144.96 1344.96,1142.62 1346.88,1140.27 1348.81,1137.94 1350.73,1135.61 1352.66,1133.29 1354.58,1130.98 1356.5,1128.68 1358.43,1126.4 1360.35,1124.13 1362.28,1121.87 1364.2,1119.63 1366.12,1117.41 1368.05,1115.21 1369.97,1113.03 1371.9,1110.87 1373.82,1108.73 1375.74,1106.61 1377.67,1104.52 1379.59,1102.46 1381.52,1100.42 1383.44,1098.41 1385.36,1096.43 1387.29,1094.47 1389.21,1092.55 1391.14,1090.65 1393.06,1088.79 1394.98,1086.96 1396.91,1085.16 1398.83,1083.4 1400.76,1081.67 1402.68,1079.97 1404.6,1078.31 1406.53,1076.69 1408.45,1075.1 1410.38,1073.56 1412.3,1072.05 1414.22,1070.59 1416.15,1069.16 1418.07,1067.78 1420,1066.44 1421.92,1065.14 1423.84,1063.88 1425.77,1062.67 1427.69,1061.5 1429.62,1060.37 1431.54,1059.29 1433.46,1058.25 1435.39,1057.25 1437.31,1056.3 1439.24,1055.4 1441.16,1054.54 1443.08,1053.73 1445.01,1052.97 1446.93,1052.25 1448.86,1051.58 1450.78,1050.96 1452.7,1050.38 1454.63,1049.86 1456.55,1049.38 1458.48,1048.95 1460.4,1048.57 1462.32,1048.23 1464.25,1047.95 1466.17,1047.71 1468.1,1047.52 1470.02,1047.38 1471.94,1047.29 1473.87,1047.24 1475.79,1047.25 1477.72,1047.3 1479.64,1047.39 1481.56,1047.54 1483.49,1047.73 1485.41,1047.97 1487.34,1048.26 1489.26,1048.6 1491.18,1048.98 1493.11,1049.4 1495.03,1049.88 1496.96,1050.4 1498.88,1050.97 1500.8,1051.58 1502.73,1052.23 1504.65,1052.93 1506.58,1053.67 1508.5,1054.46 1510.42,1055.29 1512.35,1056.16 1514.27,1057.07 1516.2,1058.03 1518.12,1059.02 1520.04,1060.06 1521.97,1061.13 1523.89,1062.25 1525.82,1063.4 1527.74,1064.59 1529.66,1065.82 1531.59,1067.09 1533.51,1068.39 1535.44,1069.73 1537.36,1071.1 1539.28,1072.51 1541.21,1073.95 1543.13,1075.42 1545.06,1076.93 1546.98,1078.46 1548.9,1080.03 1550.83,1081.63 1552.75,1083.25 1554.68,1084.91 1556.6,1086.59 1558.52,1088.3 1560.45,1090.03 1562.37,1091.79 1564.3,1093.58 1566.22,1095.39 1568.14,1097.22 1570.07,1099.07 1571.99,1100.94 1573.92,1102.83 1575.84,1104.74 1577.76,1106.67 1579.69,1108.62 1581.61,1110.59 1583.54,1112.57 1585.46,1114.56 1587.39,1116.57 1589.31,1118.59 1591.23,1120.63 1593.16,1122.67 1595.08,1124.73 1597.01,1126.8 1598.93,1128.87 1600.85,1130.95 1602.78,1133.04 1604.7,1135.13 1606.63,1137.23 1608.55,1139.34 1610.47,1141.44 1612.4,1143.55 1614.32,1145.66 1616.25,1147.76 1618.17,1149.87 1620.09,1151.98 1622.02,1154.08 1623.94,1156.19 1625.87,1158.28 1627.79,1160.38 1629.71,1162.47 1631.64,1164.55 1633.56,1166.62 1635.49,1168.68 1637.41,1170.74 1639.33,1172.78 1641.26,1174.82 1643.18,1176.84 1645.11,1178.85 1647.03,1180.84 1648.95,1182.82 1650.88,1184.79 1652.8,1186.74 1654.73,1188.67 1656.65,1190.58 1658.57,1192.48 1660.5,1194.36 1662.42,1196.21 1664.35,1198.05 1666.27,1199.87 1668.19,1201.66 1670.12,1203.43 1672.04,1205.18 1673.97,1206.91 1675.89,1208.61 1677.81,1210.28 1679.74,1211.93 1681.66,1213.55 1683.59,1215.15 1685.51,1216.71 1687.43,1218.25 1689.36,1219.76 1691.28,1221.23 1693.21,1222.68 1695.13,1224.1 1697.05,1225.48 1698.98,1226.84 1700.9,1228.16 1702.83,1229.45 1704.75,1230.71 1706.67,1231.93 1708.6,1233.12 1710.52,1234.27 1712.45,1235.39 1714.37,1236.48 1716.29,1237.53 1718.22,1238.54 1720.14,1239.52 1722.07,1240.45 1723.99,1241.35 1725.91,1242.22 1727.84,1243.04 1729.76,1243.83 1731.69,1244.58 1733.61,1245.29 1735.53,1245.96 1737.46,1246.6 1739.38,1247.19 1741.31,1247.75 1743.23,1248.26 1745.15,1248.74 1747.08,1249.18 1749,1249.58 1750.93,1249.94 1752.85,1250.26 1754.77,1250.54 1756.7,1250.78 1758.62,1250.98 1760.55,1251.14 1762.47,1251.26 1764.39,1251.34 1766.32,1251.38 1768.24,1251.38 1770.17,1251.34 1772.09,1251.26 1774.01,1251.14 1775.94,1250.99 1777.86,1250.79 1779.79,1250.56 1781.71,1250.28 1783.63,1249.97 1785.56,1249.62 1787.48,1249.23 1789.41,1248.81 1791.33,1248.35 1793.25,1247.85 1795.18,1247.31 1797.1,1246.74 1799.03,1246.13 1800.95,1245.48 1802.87,1244.8 1804.8,1244.08 1806.72,1243.33 1808.65,1242.54 1810.57,1241.72 1812.49,1240.87 1814.42,1239.98 1816.34,1239.06 1818.27,1238.1 1820.19,1237.12 1822.11,1236.1 1824.04,1235.06 1825.96,1233.98 1827.89,1232.87 1829.81,1231.74 1831.73,1230.57 1833.66,1229.38 1835.58,1228.16 1837.51,1226.91 1839.43,1225.64 1841.35,1224.34 1843.28,1223.01 1845.2,1221.66 1847.13,1220.29 1849.05,1218.89 1850.97,1217.47 1852.9,1216.02 1854.82,1214.56 1856.75,1213.07 1858.67,1211.57 1860.59,1210.04 1862.52,1208.5 1864.44,1206.94 1866.37,1205.36 1868.29,1203.76 1870.21,1202.15 1872.14,1200.53 1874.06,1198.89 1875.99,1197.23 1877.91,1195.56 1879.83,1193.88 1881.76,1192.19 1883.68,1190.49 1885.61,1188.78 1887.53,1187.06 1889.45,1185.33 1891.38,1183.59 1893.3,1181.84 1895.23,1180.09 1897.15,1178.33 1899.07,1176.57 1901,1174.8 1902.92,1173.04 1904.85,1171.26 1906.77,1169.49 1908.69,1167.72 1910.62,1165.94 1912.54,1164.17 1914.47,1162.4 1916.39,1160.63 1918.31,1158.87 1920.24,1157.1 1922.16,1155.35 1924.09,1153.59 1926.01,1151.85 1927.93,1150.11 1929.86,1148.38 1931.78,1146.65 1933.71,1144.94 1935.63,1143.23 1937.55,1141.54 1939.48,1139.86 1941.4,1138.18 1943.33,1136.53 1945.25,1134.88 1947.17,1133.25 1949.1,1131.63 1951.02,1130.03 1952.95,1128.45 1954.87,1126.88 1956.79,1125.34 1958.72,1123.81 1960.64,1122.3 1962.57,1120.8 1964.49,1119.33 1966.41,1117.88 1968.34,1116.46 1970.26,1115.05 1972.19,1113.67 1974.11,1112.3 1976.03,1110.97 1977.96,1109.66 1979.88,1108.37 1981.81,1107.11 1983.73,1105.87 1985.65,1104.67 1987.58,1103.49 1989.5,1102.34 1991.43,1101.21 1993.35,1100.12 1995.27,1099.06 1997.2,1098.02 1999.12,1097.02 2001.05,1096.05 2002.97,1095.11 2004.9,1094.2 2006.82,1093.33 2008.74,1092.49 2010.67,1091.68 2012.59,1090.9 2014.52,1090.16 2016.44,1089.45 2018.36,1088.77 2020.29,1088.13 2022.21,1087.53 2024.14,1086.96 2026.06,1086.43 2027.98,1085.94 2029.91,1085.48 2031.83,1085.06 2033.76,1084.68 2035.68,1084.33 2037.6,1084.02 2039.53,1083.75 2041.45,1083.52 2043.38,1083.33 2045.3,1083.17 2047.22,1083.06 2049.15,1082.98 2051.07,1082.94 2053,1082.94 2054.92,1082.98 2056.84,1083.06 2058.77,1083.17 2060.69,1083.33 2062.62,1083.53 2064.54,1083.77 2066.46,1084.04 2068.39,1084.36 2070.31,1084.72 2072.24,1085.11 2074.16,1085.55 2076.08,1086.02 2078.01,1086.54 2079.93,1087.1 2081.86,1087.69 2083.78,1088.32 2085.7,1089 2087.63,1089.71 2089.55,1090.46 2091.48,1091.25 2093.4,1092.08 2095.32,1092.94 2097.25,1093.85 2099.17,1094.79 2101.1,1095.77 2103.02,1096.79 2104.94,1097.85 2106.87,1098.94 2108.79,1100.07 2110.72,1101.24 2112.64,1102.44 2114.56,1103.68 2116.49,1104.96 2118.41,1106.27 2120.34,1107.62 2122.26,1109 2124.18,1110.42 2126.11,1111.87 2128.03,1113.35 2129.96,1114.87 2131.88,1116.42 2133.8,1118.01 2135.73,1119.62 2137.65,1121.27 2139.58,1122.95 2141.5,1124.66 2143.42,1126.41 2145.35,1128.18 2147.27,1129.98 2149.2,1131.82 2151.12,1133.68 2153.04,1135.57 2154.97,1137.49 2156.89,1139.43 2158.82,1141.41 2160.74,1143.41 2162.66,1145.43 2164.59,1147.48 2166.51,1149.55 2168.44,1151.65 2170.36,1153.77 2172.28,1155.92 2174.21,1158.09 2176.13,1160.27 2178.06,1162.48 2179.98,1164.71 2181.9,1166.96 2183.83,1169.23 2185.75,1171.52 2187.68,1173.82 2189.6,1176.14 2191.52,1178.48 2193.45,1180.84 2195.37,1183.21 2197.3,1185.6 2199.22,1188 2201.14,1190.42 2203.07,1192.86 2204.99,1195.3 2206.92,1197.76 2208.84,1200.24 2210.76,1202.72 2212.69,1205.22 2214.61,1207.72 2216.54,1210.24 2218.46,1212.77 2220.38,1215.31 2222.31,1217.86 2224.23,1220.41 2226.16,1222.97 2228.08,1225.54 2230,1228.11 2231.93,1230.69 2233.85,1233.27 2235.78,1235.85 2237.7,1238.43 2239.62,1241.01 2241.55,1243.59 2243.47,1246.17 2245.4,1248.74 2247.32,1251.31 2249.24,1253.87 2251.17,1256.43 2253.09,1258.97 2255.02,1261.51 2256.94,1264.04 2258.86,1266.55 2260.79,1269.05 2262.71,1271.54 2264.64,1274.02 2266.56,1276.49 2268.48,1278.95 2270.41,1281.41 2272.33,1283.86 2274.26,1286.3 2276.18,1288.74 2278.1,1291.18 2280.03,1293.61 2281.95,1296.05 2283.88,1298.49 2285.8,1300.93 2287.72,1303.38 2289.65,1305.83 2291.57,1308.28 2293.5,1310.75 2295.42,1313.22 2297.34,1315.7 "/>
<path clip-path="url(#clip730)" d="M1907.68 196.789 L2287.49 196.789 L2287.49 93.1086 L1907.68 93.1086  Z" fill="#ffffff" fill-rule="evenodd" fill-opacity="1"/>
<polyline clip-path="url(#clip730)" style="stroke:#000000; stroke-linecap:round; stroke-linejoin:round; stroke-width:4; stroke-opacity:1; fill:none" points="1907.68,196.789 2287.49,196.789 2287.49,93.1086 1907.68,93.1086 1907.68,196.789 "/>
<polyline clip-path="url(#clip730)" style="stroke:#009af9; stroke-linecap:round; stroke-linejoin:round; stroke-width:4; stroke-opacity:1; fill:none" points="1929.43,144.949 2059.96,144.949 "/>
<path clip-path="url(#clip730)" d="M2086.39 131.511 L2086.39 158.386 L2092.04 158.386 Q2099.19 158.386 2102.5 155.145 Q2105.83 151.905 2105.83 144.914 Q2105.83 137.969 2102.5 134.752 Q2099.19 131.511 2092.04 131.511 L2086.39 131.511 M2081.71 127.669 L2091.32 127.669 Q2101.37 127.669 2106.06 131.858 Q2110.76 136.025 2110.76 144.914 Q2110.76 153.849 2106.04 158.039 Q2101.32 162.229 2091.32 162.229 L2081.71 162.229 L2081.71 127.669 Z" fill="#000000" fill-rule="nonzero" fill-opacity="1" /><path clip-path="url(#clip730)" d="M2116.39 142.067 L2119.07 142.067 L2119.07 162.229 L2116.39 162.229 L2116.39 142.067 Z" fill="#000000" fill-rule="nonzero" fill-opacity="1" /><path clip-path="url(#clip730)" d="M2158.31 132.507 L2158.31 141.465 L2171.2 141.465 L2171.2 145.4 L2158.31 145.4 L2158.31 154.358 L2154.42 154.358 L2154.42 145.4 L2141.53 145.4 L2141.53 141.465 L2154.42 141.465 L2154.42 132.507 L2158.31 132.507 M2141.53 158.293 L2171.2 158.293 L2171.2 162.229 L2141.53 162.229 L2141.53 158.293 Z" fill="#000000" fill-rule="nonzero" fill-opacity="1" /><path clip-path="url(#clip730)" d="M2207.5 132.275 L2198.01 158.34 L2217.01 158.34 L2207.5 132.275 M2191.67 162.229 L2204.86 127.669 L2210.16 127.669 L2223.33 162.229 L2191.67 162.229 Z" fill="#000000" fill-rule="nonzero" fill-opacity="1" /><path clip-path="url(#clip730)" d="M2233.05 131.511 L2233.05 158.386 L2238.7 158.386 Q2245.86 158.386 2249.17 155.145 Q2252.5 151.905 2252.5 144.914 Q2252.5 137.969 2249.17 134.752 Q2245.86 131.511 2238.7 131.511 L2233.05 131.511 M2228.38 127.669 L2237.98 127.669 Q2248.03 127.669 2252.73 131.858 Q2257.43 136.025 2257.43 144.914 Q2257.43 153.849 2252.71 158.039 Q2247.98 162.229 2237.98 162.229 L2228.38 162.229 L2228.38 127.669 Z" fill="#000000" fill-rule="nonzero" fill-opacity="1" /><path clip-path="url(#clip730)" d="M2263.05 142.067 L2265.74 142.067 L2265.74 162.229 L2263.05 162.229 L2263.05 142.067 Z" fill="#000000" fill-rule="nonzero" fill-opacity="1" /></svg>
