<?xml version="1.0" encoding="utf-8"?>
<svg xmlns="http://www.w3.org/2000/svg" xmlns:xlink="http://www.w3.org/1999/xlink" width="600" height="700" viewBox="0 0 2400 2800">
<defs>
  <clipPath id="clip800">
    <rect x="0" y="0" width="2400" height="2800"/>
  </clipPath>
</defs>
<path clip-path="url(#clip800)" d="M0 2800 L2400 2800 L2400 0 L0 0  Z" fill="#ffffff" fill-rule="evenodd" fill-opacity="1"/>
<defs>
  <clipPath id="clip801">
    <rect x="560" y="280" width="1961" height="1961"/>
  </clipPath>
</defs>
<path clip-path="url(#clip800)" d="M252.77 761.492 L2352.76 761.492 L2352.76 47.2441 L252.77 47.2441  Z" fill="#ffffff" fill-rule="evenodd" fill-opacity="1"/>
<defs>
  <clipPath id="clip802">
    <rect x="252" y="47" width="2101" height="715"/>
  </clipPath>
</defs>
<polyline clip-path="url(#clip802)" style="stroke:#000000; stroke-linecap:round; stroke-linejoin:round; stroke-width:2; stroke-opacity:0.1; fill:none" points="298.907,761.492 298.907,47.2441 "/>
<polyline clip-path="url(#clip802)" style="stroke:#000000; stroke-linecap:round; stroke-linejoin:round; stroke-width:2; stroke-opacity:0.1; fill:none" points="963.712,761.492 963.712,47.2441 "/>
<polyline clip-path="url(#clip802)" style="stroke:#000000; stroke-linecap:round; stroke-linejoin:round; stroke-width:2; stroke-opacity:0.1; fill:none" points="1628.52,761.492 1628.52,47.2441 "/>
<polyline clip-path="url(#clip802)" style="stroke:#000000; stroke-linecap:round; stroke-linejoin:round; stroke-width:2; stroke-opacity:0.1; fill:none" points="2293.32,761.492 2293.32,47.2441 "/>
<polyline clip-path="url(#clip802)" style="stroke:#000000; stroke-linecap:round; stroke-linejoin:round; stroke-width:2; stroke-opacity:0.1; fill:none" points="252.77,636.627 2352.76,636.627 "/>
<polyline clip-path="url(#clip802)" style="stroke:#000000; stroke-linecap:round; stroke-linejoin:round; stroke-width:2; stroke-opacity:0.1; fill:none" points="252.77,448.383 2352.76,448.383 "/>
<polyline clip-path="url(#clip802)" style="stroke:#000000; stroke-linecap:round; stroke-linejoin:round; stroke-width:2; stroke-opacity:0.1; fill:none" points="252.77,260.139 2352.76,260.139 "/>
<polyline clip-path="url(#clip802)" style="stroke:#000000; stroke-linecap:round; stroke-linejoin:round; stroke-width:2; stroke-opacity:0.1; fill:none" points="252.77,71.8954 2352.76,71.8954 "/>
<polyline clip-path="url(#clip800)" style="stroke:#000000; stroke-linecap:round; stroke-linejoin:round; stroke-width:4; stroke-opacity:1; fill:none" points="252.77,761.492 2352.76,761.492 "/>
<polyline clip-path="url(#clip800)" style="stroke:#000000; stroke-linecap:round; stroke-linejoin:round; stroke-width:4; stroke-opacity:1; fill:none" points="298.907,761.492 298.907,742.594 "/>
<polyline clip-path="url(#clip800)" style="stroke:#000000; stroke-linecap:round; stroke-linejoin:round; stroke-width:4; stroke-opacity:1; fill:none" points="963.712,761.492 963.712,742.594 "/>
<polyline clip-path="url(#clip800)" style="stroke:#000000; stroke-linecap:round; stroke-linejoin:round; stroke-width:4; stroke-opacity:1; fill:none" points="1628.52,761.492 1628.52,742.594 "/>
<polyline clip-path="url(#clip800)" style="stroke:#000000; stroke-linecap:round; stroke-linejoin:round; stroke-width:4; stroke-opacity:1; fill:none" points="2293.32,761.492 2293.32,742.594 "/>
<path clip-path="url(#clip800)" d="M298.907 795.611 Q295.296 795.611 293.467 799.175 Q291.662 802.717 291.662 809.847 Q291.662 816.953 293.467 820.518 Q295.296 824.059 298.907 824.059 Q302.541 824.059 304.347 820.518 Q306.176 816.953 306.176 809.847 Q306.176 802.717 304.347 799.175 Q302.541 795.611 298.907 795.611 M298.907 791.907 Q304.717 791.907 307.773 796.513 Q310.852 801.097 310.852 809.847 Q310.852 818.573 307.773 823.18 Q304.717 827.763 298.907 827.763 Q293.097 827.763 290.018 823.18 Q286.963 818.573 286.963 809.847 Q286.963 801.097 290.018 796.513 Q293.097 791.907 298.907 791.907 Z" fill="#000000" fill-rule="nonzero" fill-opacity="1" /><path clip-path="url(#clip800)" d="M923.331 792.532 L941.687 792.532 L941.687 796.467 L927.613 796.467 L927.613 804.939 Q928.631 804.592 929.65 804.43 Q930.668 804.245 931.687 804.245 Q937.474 804.245 940.854 807.416 Q944.233 810.587 944.233 816.004 Q944.233 821.583 940.761 824.684 Q937.289 827.763 930.969 827.763 Q928.793 827.763 926.525 827.393 Q924.28 827.022 921.872 826.282 L921.872 821.583 Q923.956 822.717 926.178 823.272 Q928.4 823.828 930.877 823.828 Q934.881 823.828 937.219 821.722 Q939.557 819.615 939.557 816.004 Q939.557 812.393 937.219 810.286 Q934.881 808.18 930.877 808.18 Q929.002 808.18 927.127 808.597 Q925.275 809.013 923.331 809.893 L923.331 792.532 Z" fill="#000000" fill-rule="nonzero" fill-opacity="1" /><path clip-path="url(#clip800)" d="M963.446 795.611 Q959.835 795.611 958.006 799.175 Q956.201 802.717 956.201 809.847 Q956.201 816.953 958.006 820.518 Q959.835 824.059 963.446 824.059 Q967.08 824.059 968.886 820.518 Q970.715 816.953 970.715 809.847 Q970.715 802.717 968.886 799.175 Q967.08 795.611 963.446 795.611 M963.446 791.907 Q969.256 791.907 972.312 796.513 Q975.39 801.097 975.39 809.847 Q975.39 818.573 972.312 823.18 Q969.256 827.763 963.446 827.763 Q957.636 827.763 954.557 823.18 Q951.502 818.573 951.502 809.847 Q951.502 801.097 954.557 796.513 Q957.636 791.907 963.446 791.907 Z" fill="#000000" fill-rule="nonzero" fill-opacity="1" /><path clip-path="url(#clip800)" d="M993.608 795.611 Q989.997 795.611 988.168 799.175 Q986.363 802.717 986.363 809.847 Q986.363 816.953 988.168 820.518 Q989.997 824.059 993.608 824.059 Q997.242 824.059 999.048 820.518 Q1000.88 816.953 1000.88 809.847 Q1000.88 802.717 999.048 799.175 Q997.242 795.611 993.608 795.611 M993.608 791.907 Q999.418 791.907 1002.47 796.513 Q1005.55 801.097 1005.55 809.847 Q1005.55 818.573 1002.47 823.18 Q999.418 827.763 993.608 827.763 Q987.798 827.763 984.719 823.18 Q981.664 818.573 981.664 809.847 Q981.664 801.097 984.719 796.513 Q987.798 791.907 993.608 791.907 Z" fill="#000000" fill-rule="nonzero" fill-opacity="1" /><path clip-path="url(#clip800)" d="M1573.04 823.157 L1580.68 823.157 L1580.68 796.791 L1572.37 798.458 L1572.37 794.199 L1580.64 792.532 L1585.31 792.532 L1585.31 823.157 L1592.95 823.157 L1592.95 827.092 L1573.04 827.092 L1573.04 823.157 Z" fill="#000000" fill-rule="nonzero" fill-opacity="1" /><path clip-path="url(#clip800)" d="M1612.39 795.611 Q1608.78 795.611 1606.95 799.175 Q1605.15 802.717 1605.15 809.847 Q1605.15 816.953 1606.95 820.518 Q1608.78 824.059 1612.39 824.059 Q1616.03 824.059 1617.83 820.518 Q1619.66 816.953 1619.66 809.847 Q1619.66 802.717 1617.83 799.175 Q1616.03 795.611 1612.39 795.611 M1612.39 791.907 Q1618.2 791.907 1621.26 796.513 Q1624.34 801.097 1624.34 809.847 Q1624.34 818.573 1621.26 823.18 Q1618.2 827.763 1612.39 827.763 Q1606.58 827.763 1603.51 823.18 Q1600.45 818.573 1600.45 809.847 Q1600.45 801.097 1603.51 796.513 Q1606.58 791.907 1612.39 791.907 Z" fill="#000000" fill-rule="nonzero" fill-opacity="1" /><path clip-path="url(#clip800)" d="M1642.56 795.611 Q1638.95 795.611 1637.12 799.175 Q1635.31 802.717 1635.31 809.847 Q1635.31 816.953 1637.12 820.518 Q1638.95 824.059 1642.56 824.059 Q1646.19 824.059 1648 820.518 Q1649.83 816.953 1649.83 809.847 Q1649.83 802.717 1648 799.175 Q1646.19 795.611 1642.56 795.611 M1642.56 791.907 Q1648.37 791.907 1651.42 796.513 Q1654.5 801.097 1654.5 809.847 Q1654.5 818.573 1651.42 823.18 Q1648.37 827.763 1642.56 827.763 Q1636.75 827.763 1633.67 823.18 Q1630.61 818.573 1630.61 809.847 Q1630.61 801.097 1633.67 796.513 Q1636.75 791.907 1642.56 791.907 Z" fill="#000000" fill-rule="nonzero" fill-opacity="1" /><path clip-path="url(#clip800)" d="M1672.72 795.611 Q1669.11 795.611 1667.28 799.175 Q1665.47 802.717 1665.47 809.847 Q1665.47 816.953 1667.28 820.518 Q1669.11 824.059 1672.72 824.059 Q1676.35 824.059 1678.16 820.518 Q1679.99 816.953 1679.99 809.847 Q1679.99 802.717 1678.16 799.175 Q1676.35 795.611 1672.72 795.611 M1672.72 791.907 Q1678.53 791.907 1681.58 796.513 Q1684.66 801.097 1684.66 809.847 Q1684.66 818.573 1681.58 823.18 Q1678.53 827.763 1672.72 827.763 Q1666.91 827.763 1663.83 823.18 Q1660.77 818.573 1660.77 809.847 Q1660.77 801.097 1663.83 796.513 Q1666.91 791.907 1672.72 791.907 Z" fill="#000000" fill-rule="nonzero" fill-opacity="1" /><path clip-path="url(#clip800)" d="M2237.85 823.157 L2245.49 823.157 L2245.49 796.791 L2237.18 798.458 L2237.18 794.199 L2245.44 792.532 L2250.12 792.532 L2250.12 823.157 L2257.76 823.157 L2257.76 827.092 L2237.85 827.092 L2237.85 823.157 Z" fill="#000000" fill-rule="nonzero" fill-opacity="1" /><path clip-path="url(#clip800)" d="M2267.25 792.532 L2285.6 792.532 L2285.6 796.467 L2271.53 796.467 L2271.53 804.939 Q2272.55 804.592 2273.57 804.43 Q2274.58 804.245 2275.6 804.245 Q2281.39 804.245 2284.77 807.416 Q2288.15 810.587 2288.15 816.004 Q2288.15 821.583 2284.68 824.684 Q2281.2 827.763 2274.88 827.763 Q2272.71 827.763 2270.44 827.393 Q2268.2 827.022 2265.79 826.282 L2265.79 821.583 Q2267.87 822.717 2270.09 823.272 Q2272.32 823.828 2274.79 823.828 Q2278.8 823.828 2281.13 821.722 Q2283.47 819.615 2283.47 816.004 Q2283.47 812.393 2281.13 810.286 Q2278.8 808.18 2274.79 808.18 Q2272.92 808.18 2271.04 808.597 Q2269.19 809.013 2267.25 809.893 L2267.25 792.532 Z" fill="#000000" fill-rule="nonzero" fill-opacity="1" /><path clip-path="url(#clip800)" d="M2307.36 795.611 Q2303.75 795.611 2301.92 799.175 Q2300.12 802.717 2300.12 809.847 Q2300.12 816.953 2301.92 820.518 Q2303.75 824.059 2307.36 824.059 Q2311 824.059 2312.8 820.518 Q2314.63 816.953 2314.63 809.847 Q2314.63 802.717 2312.8 799.175 Q2311 795.611 2307.36 795.611 M2307.36 791.907 Q2313.17 791.907 2316.23 796.513 Q2319.31 801.097 2319.31 809.847 Q2319.31 818.573 2316.23 823.18 Q2313.17 827.763 2307.36 827.763 Q2301.55 827.763 2298.47 823.18 Q2295.42 818.573 2295.42 809.847 Q2295.42 801.097 2298.47 796.513 Q2301.55 791.907 2307.36 791.907 Z" fill="#000000" fill-rule="nonzero" fill-opacity="1" /><path clip-path="url(#clip800)" d="M2337.52 795.611 Q2333.91 795.611 2332.08 799.175 Q2330.28 802.717 2330.28 809.847 Q2330.28 816.953 2332.08 820.518 Q2333.91 824.059 2337.52 824.059 Q2341.16 824.059 2342.96 820.518 Q2344.79 816.953 2344.79 809.847 Q2344.79 802.717 2342.96 799.175 Q2341.16 795.611 2337.52 795.611 M2337.52 791.907 Q2343.33 791.907 2346.39 796.513 Q2349.47 801.097 2349.47 809.847 Q2349.47 818.573 2346.39 823.18 Q2343.33 827.763 2337.52 827.763 Q2331.71 827.763 2328.63 823.18 Q2325.58 818.573 2325.58 809.847 Q2325.58 801.097 2328.63 796.513 Q2331.71 791.907 2337.52 791.907 Z" fill="#000000" fill-rule="nonzero" fill-opacity="1" /><polyline clip-path="url(#clip800)" style="stroke:#000000; stroke-linecap:round; stroke-linejoin:round; stroke-width:4; stroke-opacity:1; fill:none" points="252.77,761.492 252.77,47.2441 "/>
<polyline clip-path="url(#clip800)" style="stroke:#000000; stroke-linecap:round; stroke-linejoin:round; stroke-width:4; stroke-opacity:1; fill:none" points="252.77,636.627 271.667,636.627 "/>
<polyline clip-path="url(#clip800)" style="stroke:#000000; stroke-linecap:round; stroke-linejoin:round; stroke-width:4; stroke-opacity:1; fill:none" points="252.77,448.383 271.667,448.383 "/>
<polyline clip-path="url(#clip800)" style="stroke:#000000; stroke-linecap:round; stroke-linejoin:round; stroke-width:4; stroke-opacity:1; fill:none" points="252.77,260.139 271.667,260.139 "/>
<polyline clip-path="url(#clip800)" style="stroke:#000000; stroke-linecap:round; stroke-linejoin:round; stroke-width:4; stroke-opacity:1; fill:none" points="252.77,71.8954 271.667,71.8954 "/>
<path clip-path="url(#clip800)" d="M132.529 649.972 L148.849 649.972 L148.849 653.907 L126.904 653.907 L126.904 649.972 Q129.566 647.217 134.15 642.587 Q138.756 637.935 139.937 636.592 Q142.182 634.069 143.062 632.333 Q143.965 630.573 143.965 628.884 Q143.965 626.129 142.02 624.393 Q140.099 622.657 136.997 622.657 Q134.798 622.657 132.344 623.421 Q129.914 624.185 127.136 625.736 L127.136 621.013 Q129.96 619.879 132.414 619.3 Q134.867 618.722 136.904 618.722 Q142.275 618.722 145.469 621.407 Q148.664 624.092 148.664 628.583 Q148.664 630.712 147.853 632.634 Q147.066 634.532 144.96 637.124 Q144.381 637.796 141.279 641.013 Q138.178 644.208 132.529 649.972 Z" fill="#000000" fill-rule="nonzero" fill-opacity="1" /><path clip-path="url(#clip800)" d="M168.663 622.425 Q165.052 622.425 163.224 625.99 Q161.418 629.532 161.418 636.661 Q161.418 643.768 163.224 647.333 Q165.052 650.874 168.663 650.874 Q172.298 650.874 174.103 647.333 Q175.932 643.768 175.932 636.661 Q175.932 629.532 174.103 625.99 Q172.298 622.425 168.663 622.425 M168.663 618.722 Q174.474 618.722 177.529 623.328 Q180.608 627.911 180.608 636.661 Q180.608 645.388 177.529 649.995 Q174.474 654.578 168.663 654.578 Q162.853 654.578 159.775 649.995 Q156.719 645.388 156.719 636.661 Q156.719 627.911 159.775 623.328 Q162.853 618.722 168.663 618.722 Z" fill="#000000" fill-rule="nonzero" fill-opacity="1" /><path clip-path="url(#clip800)" d="M198.825 622.425 Q195.214 622.425 193.386 625.99 Q191.58 629.532 191.58 636.661 Q191.58 643.768 193.386 647.333 Q195.214 650.874 198.825 650.874 Q202.46 650.874 204.265 647.333 Q206.094 643.768 206.094 636.661 Q206.094 629.532 204.265 625.99 Q202.46 622.425 198.825 622.425 M198.825 618.722 Q204.636 618.722 207.691 623.328 Q210.77 627.911 210.77 636.661 Q210.77 645.388 207.691 649.995 Q204.636 654.578 198.825 654.578 Q193.015 654.578 189.937 649.995 Q186.881 645.388 186.881 636.661 Q186.881 627.911 189.937 623.328 Q193.015 618.722 198.825 618.722 Z" fill="#000000" fill-rule="nonzero" fill-opacity="1" /><path clip-path="url(#clip800)" d="M141.349 435.177 L129.543 453.626 L141.349 453.626 L141.349 435.177 M140.122 431.103 L146.002 431.103 L146.002 453.626 L150.932 453.626 L150.932 457.515 L146.002 457.515 L146.002 465.663 L141.349 465.663 L141.349 457.515 L125.747 457.515 L125.747 453.001 L140.122 431.103 Z" fill="#000000" fill-rule="nonzero" fill-opacity="1" /><path clip-path="url(#clip800)" d="M168.663 434.182 Q165.052 434.182 163.224 437.746 Q161.418 441.288 161.418 448.418 Q161.418 455.524 163.224 459.089 Q165.052 462.631 168.663 462.631 Q172.298 462.631 174.103 459.089 Q175.932 455.524 175.932 448.418 Q175.932 441.288 174.103 437.746 Q172.298 434.182 168.663 434.182 M168.663 430.478 Q174.474 430.478 177.529 435.084 Q180.608 439.668 180.608 448.418 Q180.608 457.144 177.529 461.751 Q174.474 466.334 168.663 466.334 Q162.853 466.334 159.775 461.751 Q156.719 457.144 156.719 448.418 Q156.719 439.668 159.775 435.084 Q162.853 430.478 168.663 430.478 Z" fill="#000000" fill-rule="nonzero" fill-opacity="1" /><path clip-path="url(#clip800)" d="M198.825 434.182 Q195.214 434.182 193.386 437.746 Q191.58 441.288 191.58 448.418 Q191.58 455.524 193.386 459.089 Q195.214 462.631 198.825 462.631 Q202.46 462.631 204.265 459.089 Q206.094 455.524 206.094 448.418 Q206.094 441.288 204.265 437.746 Q202.46 434.182 198.825 434.182 M198.825 430.478 Q204.636 430.478 207.691 435.084 Q210.77 439.668 210.77 448.418 Q210.77 457.144 207.691 461.751 Q204.636 466.334 198.825 466.334 Q193.015 466.334 189.937 461.751 Q186.881 457.144 186.881 448.418 Q186.881 439.668 189.937 435.084 Q193.015 430.478 198.825 430.478 Z" fill="#000000" fill-rule="nonzero" fill-opacity="1" /><path clip-path="url(#clip800)" d="M139.08 258.276 Q135.932 258.276 134.08 260.428 Q132.252 262.581 132.252 266.331 Q132.252 270.058 134.08 272.234 Q135.932 274.387 139.08 274.387 Q142.228 274.387 144.057 272.234 Q145.909 270.058 145.909 266.331 Q145.909 262.581 144.057 260.428 Q142.228 258.276 139.08 258.276 M148.363 243.623 L148.363 247.882 Q146.603 247.049 144.798 246.609 Q143.015 246.169 141.256 246.169 Q136.627 246.169 134.173 249.294 Q131.742 252.419 131.395 258.739 Q132.761 256.725 134.821 255.66 Q136.881 254.572 139.358 254.572 Q144.566 254.572 147.576 257.743 Q150.608 260.891 150.608 266.331 Q150.608 271.655 147.46 274.873 Q144.312 278.09 139.08 278.09 Q133.085 278.09 129.914 273.507 Q126.742 268.901 126.742 260.174 Q126.742 251.979 130.631 247.118 Q134.52 242.234 141.071 242.234 Q142.83 242.234 144.613 242.581 Q146.418 242.929 148.363 243.623 Z" fill="#000000" fill-rule="nonzero" fill-opacity="1" /><path clip-path="url(#clip800)" d="M168.663 245.938 Q165.052 245.938 163.224 249.503 Q161.418 253.044 161.418 260.174 Q161.418 267.28 163.224 270.845 Q165.052 274.387 168.663 274.387 Q172.298 274.387 174.103 270.845 Q175.932 267.28 175.932 260.174 Q175.932 253.044 174.103 249.503 Q172.298 245.938 168.663 245.938 M168.663 242.234 Q174.474 242.234 177.529 246.841 Q180.608 251.424 180.608 260.174 Q180.608 268.901 177.529 273.507 Q174.474 278.09 168.663 278.09 Q162.853 278.09 159.775 273.507 Q156.719 268.901 156.719 260.174 Q156.719 251.424 159.775 246.841 Q162.853 242.234 168.663 242.234 Z" fill="#000000" fill-rule="nonzero" fill-opacity="1" /><path clip-path="url(#clip800)" d="M198.825 245.938 Q195.214 245.938 193.386 249.503 Q191.58 253.044 191.58 260.174 Q191.58 267.28 193.386 270.845 Q195.214 274.387 198.825 274.387 Q202.46 274.387 204.265 270.845 Q206.094 267.28 206.094 260.174 Q206.094 253.044 204.265 249.503 Q202.46 245.938 198.825 245.938 M198.825 242.234 Q204.636 242.234 207.691 246.841 Q210.77 251.424 210.77 260.174 Q210.77 268.901 207.691 273.507 Q204.636 278.09 198.825 278.09 Q193.015 278.09 189.937 273.507 Q186.881 268.901 186.881 260.174 Q186.881 251.424 189.937 246.841 Q193.015 242.234 198.825 242.234 Z" fill="#000000" fill-rule="nonzero" fill-opacity="1" /><path clip-path="url(#clip800)" d="M138.502 72.7634 Q135.168 72.7634 133.247 74.5458 Q131.349 76.3282 131.349 79.4532 Q131.349 82.5782 133.247 84.3606 Q135.168 86.143 138.502 86.143 Q141.835 86.143 143.756 84.3606 Q145.677 82.555 145.677 79.4532 Q145.677 76.3282 143.756 74.5458 Q141.858 72.7634 138.502 72.7634 M133.826 70.7727 Q130.816 70.0319 129.127 67.9718 Q127.46 65.9116 127.46 62.9486 Q127.46 58.8052 130.4 56.3978 Q133.363 53.9904 138.502 53.9904 Q143.664 53.9904 146.603 56.3978 Q149.543 58.8052 149.543 62.9486 Q149.543 65.9116 147.853 67.9718 Q146.187 70.0319 143.201 70.7727 Q146.58 71.5597 148.455 73.8514 Q150.353 76.143 150.353 79.4532 Q150.353 84.4763 147.275 87.1615 Q144.219 89.8467 138.502 89.8467 Q132.784 89.8467 129.705 87.1615 Q126.65 84.4763 126.65 79.4532 Q126.65 76.143 128.548 73.8514 Q130.446 71.5597 133.826 70.7727 M132.113 63.3885 Q132.113 66.0736 133.779 67.5783 Q135.469 69.0829 138.502 69.0829 Q141.511 69.0829 143.201 67.5783 Q144.914 66.0736 144.914 63.3885 Q144.914 60.7033 143.201 59.1987 Q141.511 57.694 138.502 57.694 Q135.469 57.694 133.779 59.1987 Q132.113 60.7033 132.113 63.3885 Z" fill="#000000" fill-rule="nonzero" fill-opacity="1" /><path clip-path="url(#clip800)" d="M168.663 57.694 Q165.052 57.694 163.224 61.2588 Q161.418 64.8005 161.418 71.9301 Q161.418 79.0365 163.224 82.6013 Q165.052 86.143 168.663 86.143 Q172.298 86.143 174.103 82.6013 Q175.932 79.0365 175.932 71.9301 Q175.932 64.8005 174.103 61.2588 Q172.298 57.694 168.663 57.694 M168.663 53.9904 Q174.474 53.9904 177.529 58.5968 Q180.608 63.1801 180.608 71.9301 Q180.608 80.6569 177.529 85.2633 Q174.474 89.8467 168.663 89.8467 Q162.853 89.8467 159.775 85.2633 Q156.719 80.6569 156.719 71.9301 Q156.719 63.1801 159.775 58.5968 Q162.853 53.9904 168.663 53.9904 Z" fill="#000000" fill-rule="nonzero" fill-opacity="1" /><path clip-path="url(#clip800)" d="M198.825 57.694 Q195.214 57.694 193.386 61.2588 Q191.58 64.8005 191.58 71.9301 Q191.58 79.0365 193.386 82.6013 Q195.214 86.143 198.825 86.143 Q202.46 86.143 204.265 82.6013 Q206.094 79.0365 206.094 71.9301 Q206.094 64.8005 204.265 61.2588 Q202.46 57.694 198.825 57.694 M198.825 53.9904 Q204.636 53.9904 207.691 58.5968 Q210.77 63.1801 210.77 71.9301 Q210.77 80.6569 207.691 85.2633 Q204.636 89.8467 198.825 89.8467 Q193.015 89.8467 189.937 85.2633 Q186.881 80.6569 186.881 71.9301 Q186.881 63.1801 189.937 58.5968 Q193.015 53.9904 198.825 53.9904 Z" fill="#000000" fill-rule="nonzero" fill-opacity="1" /><path clip-path="url(#clip800)" d="M27.2546 564.784 L64.2075 564.784 L64.2075 557.018 Q64.2075 547.183 59.7515 542.631 Q55.2955 538.048 45.6833 538.048 Q36.1347 538.048 31.7106 542.631 Q27.2546 547.183 27.2546 557.018 L27.2546 564.784 M21.971 571.213 L21.971 558.004 Q21.971 544.191 27.732 537.73 Q33.4611 531.268 45.6833 531.268 Q57.9691 531.268 63.7301 537.761 Q69.491 544.254 69.491 558.004 L69.491 571.213 L21.971 571.213 Z" fill="#000000" fill-rule="nonzero" fill-opacity="1" /><path clip-path="url(#clip800)" d="M41.7684 523.534 L41.7684 519.842 L69.491 519.842 L69.491 523.534 L41.7684 523.534 Z" fill="#000000" fill-rule="nonzero" fill-opacity="1" /><path clip-path="url(#clip800)" d="M21.6209 516.723 L21.6209 491.387 L24.6446 491.387 L24.6446 502.018 L48.2296 502.018 L48.2296 506.092 L24.6446 506.092 L24.6446 516.723 L21.6209 516.723 Z" fill="#000000" fill-rule="nonzero" fill-opacity="1" /><path clip-path="url(#clip800)" d="M21.6209 491.642 L21.6209 466.306 L24.6446 466.306 L24.6446 476.937 L48.2296 476.937 L48.2296 481.011 L24.6446 481.011 L24.6446 491.642 L21.6209 491.642 Z" fill="#000000" fill-rule="nonzero" fill-opacity="1" /><path clip-path="url(#clip800)" d="M21.971 429.162 L21.971 423.752 L75.5385 440.302 L75.5385 445.713 L21.971 429.162 Z" fill="#000000" fill-rule="nonzero" fill-opacity="1" /><path clip-path="url(#clip800)" d="M64.0802 394.947 L64.0802 384.443 L27.8275 384.443 L30.1191 395.87 L24.2627 395.87 L21.971 384.507 L21.971 378.078 L64.0802 378.078 L64.0802 367.574 L69.491 367.574 L69.491 394.947 L64.0802 394.947 Z" fill="#000000" fill-rule="nonzero" fill-opacity="1" /><path clip-path="url(#clip800)" d="M26.2042 340.838 Q26.2042 345.803 31.1058 348.318 Q35.9756 350.801 45.7788 350.801 Q55.5501 350.801 60.4517 348.318 Q65.3215 345.803 65.3215 340.838 Q65.3215 335.841 60.4517 333.359 Q55.5501 330.844 45.7788 330.844 Q35.9756 330.844 31.1058 333.359 Q26.2042 335.841 26.2042 340.838 M21.1117 340.838 Q21.1117 332.849 27.4456 328.648 Q33.7476 324.415 45.7788 324.415 Q57.7781 324.415 64.112 328.648 Q70.4141 332.849 70.4141 340.838 Q70.4141 348.827 64.112 353.06 Q57.7781 357.262 45.7788 357.262 Q33.7476 357.262 27.4456 353.06 Q21.1117 348.827 21.1117 340.838 Z" fill="#000000" fill-rule="nonzero" fill-opacity="1" /><path clip-path="url(#clip800)" d="M35.2754 315.726 L35.2754 290.04 L38.2991 290.04 L38.2991 315.726 L35.2754 315.726 Z" fill="#000000" fill-rule="nonzero" fill-opacity="1" /><path clip-path="url(#clip800)" d="M44.7284 280.714 L44.7284 274.221 L25.2812 274.221 L26.5862 281.319 L22.8941 281.319 L21.6528 273.998 L21.6528 269.638 L44.7284 269.638 L44.7284 263.113 L48.2296 263.113 L48.2296 280.714 L44.7284 280.714 Z" fill="#000000" fill-rule="nonzero" fill-opacity="1" /><path clip-path="url(#clip800)" d="M44.6011 251.018 L44.6011 237.523 L48.2296 237.523 L48.2296 256.556 L44.7284 256.556 Q43.7418 255.474 41.9594 253.469 Q32.2517 242.52 29.2598 242.52 Q27.1591 242.52 25.886 244.175 Q24.581 245.83 24.581 248.535 Q24.581 250.191 25.1539 252.132 Q25.695 254.074 26.809 256.365 L22.8941 256.365 Q22.0029 253.915 21.5573 251.814 Q21.1117 249.681 21.1117 247.867 Q21.1117 243.252 23.2124 240.483 Q25.313 237.714 28.7505 237.714 Q33.1747 237.714 42.214 248.249 Q43.7418 250.031 44.6011 251.018 Z" fill="#000000" fill-rule="nonzero" fill-opacity="1" /><polyline clip-path="url(#clip802)" style="stroke:#009af9; stroke-linecap:round; stroke-linejoin:round; stroke-width:4; stroke-opacity:1; fill:none" points="312.203,725.539 318.851,717.735 325.499,711.608 332.147,702.3 338.796,691.212 345.444,680.065 352.092,668.264 358.74,655.53 365.388,642.177 372.036,628.406 378.684,614.187 385.332,598.819 391.98,583.016 398.628,566.836 405.276,549.407 411.924,531.398 418.572,513.078 425.22,493.645 431.868,473.535 438.516,453.188 445.164,432.067 451.812,410.331 458.46,388.465 465.108,366.357 471.757,343.858 478.405,321.448 485.053,299.285 491.701,277.167 498.349,255.391 504.997,234.375 511.645,213.923 518.293,194.102 524.941,175.485 531.589,158.011 538.237,141.509 544.885,126.48 551.533,113.156 558.181,101.134 564.829,90.7503 571.477,82.4907 578.125,75.8753 584.773,70.854 591.421,68.2134 598.069,67.4587 604.718,68.1702 611.366,71.3349 618.014,76.5206 624.662,82.9397 631.31,91.6301 637.958,102.368 644.606,114.018 651.254,127.622 657.902,143.098 664.55,159.165 671.198,176.68 677.846,195.81 684.494,215.173 691.142,235.39 697.79,256.788 704.438,278.122 711.086,299.706 717.734,321.926 724.382,343.776 731.03,365.29 737.679,386.937 744.327,407.947 750.975,428.103 757.623,447.884 764.271,466.747 770.919,484.482 777.567,501.271 784.215,517.069 790.863,531.384 797.511,544.505 804.159,556.49 810.807,566.894 817.455,575.956 824.103,583.73 830.751,590.039 837.399,594.987 844.047,598.671 850.695,600.996 857.343,602.051 863.991,601.983 870.64,600.794 877.288,598.629 883.936,595.44 890.584,591.426 897.232,586.718 903.88,581.299 910.528,575.347 917.176,568.987 923.824,562.345 930.472,555.343 937.12,548.374 943.768,541.354 950.416,534.35 957.064,527.623 963.712,521.236 970.36,515.139 977.008,509.367 983.656,504.35 990.304,499.714 996.953,495.634 1003.6,492.374 1010.25,489.871 1016.9,487.781 1023.54,486.736 1030.19,486.405 1036.84,486.5 1043.49,487.608 1050.14,489.443 1056.78,491.654 1063.43,494.675 1070.08,498.433 1076.73,502.509 1083.38,507.111 1090.03,512.265 1096.67,517.62 1103.32,523.255 1109.97,529.377 1116.62,535.487 1123.27,541.573 1129.91,547.838 1136.56,553.94 1143.21,559.825 1149.86,565.699 1156.51,571.179 1163.15,576.347 1169.8,581.17 1176.45,585.654 1183.1,589.622 1189.75,593.047 1196.39,595.982 1203.04,598.266 1209.69,599.914 1216.34,600.997 1222.99,601.444 1229.63,601.272 1236.28,600.506 1242.93,599.154 1249.58,597.229 1256.23,594.742 1262.87,591.765 1269.52,588.344 1276.17,584.447 1282.82,580.186 1289.47,575.663 1296.11,570.794 1302.76,565.707 1309.41,560.562 1316.06,555.264 1322.71,549.904 1329.36,544.657 1336,539.483 1342.65,534.406 1349.3,529.593 1355.95,525.117 1362.6,520.853 1369.24,516.993 1375.89,513.665 1382.54,510.688 1389.19,508.157 1395.84,506.362 1402.48,505.023 1409.13,504.153 1415.78,504.108 1422.43,504.591 1429.08,505.531 1435.72,507.328 1442.37,509.703 1449.02,512.475 1455.67,516.031 1462.32,520.161 1468.96,524.64 1475.61,529.761 1482.26,535.395 1488.91,541.295 1495.56,547.671 1502.2,554.465 1508.85,561.426 1515.5,568.639 1522.15,576.171 1528.8,583.748 1535.44,591.339 1542.09,599.127 1548.74,606.851 1555.39,614.415 1562.04,621.974 1568.68,629.381 1575.33,636.487 1581.98,643.408 1588.63,650.066 1595.28,656.319 1601.93,662.286 1608.57,667.867 1615.22,673.021 1621.87,677.737 1628.52,682.056 1635.17,685.897 1641.81,689.271 1648.46,692.195 1655.11,694.653 1661.76,696.66 1668.41,698.214 1675.05,699.334 1681.7,700.06 1688.35,700.354 1695,700.327 1701.65,699.941 1708.29,699.213 1714.94,698.213 1721.59,696.981 1728.24,695.521 1734.89,693.853 1741.53,692.046 1748.18,690.157 1754.83,688.155 1761.48,686.134 1768.13,684.118 1774.77,682.105 1781.42,680.141 1788.07,678.319 1794.72,676.576 1801.37,674.96 1808.01,673.602 1814.66,672.378 1821.31,671.328 1827.96,670.6 1834.61,670.072 1841.25,669.736 1847.9,669.76 1854.55,670.012 1861.2,670.471 1867.85,671.275 1874.5,672.341 1881.14,673.589 1887.79,675.124 1894.44,676.928 1901.09,678.887 1907.74,681.058 1914.38,683.474 1921.03,685.996 1927.68,688.642 1934.33,691.485 1940.98,694.398 1947.62,697.334 1954.27,700.391 1960.92,703.466 1967.57,706.488 1974.22,709.541 1980.86,712.563 1987.51,715.467 1994.16,718.314 2000.81,721.071 2007.46,723.67 2014.1,726.141 2020.75,728.474 2027.4,730.615 2034.05,732.576 2040.7,734.354 2047.34,735.943 2053.99,737.314 2060.64,738.472 2067.29,739.452 2073.94,740.204 2080.58,740.738 2087.23,741.119 2093.88,741.277 2100.53,741.244 2107.18,741.064 2113.82,740.703 2120.47,740.201 2127.12,739.576 2133.77,738.84 2140.42,737.986 2147.07,737.038 2153.71,736.046 2160.36,735.005 2167.01,733.892 2173.66,732.802 2180.31,731.734 2186.95,730.63 2193.6,729.589 2200.25,728.644 2206.9,727.711 2213.55,726.873 2220.19,726.188 2226.84,725.55 2233.49,725.031 2240.14,724.699 2246.79,724.467 2253.43,724.35 2260.08,724.45 2266.73,724.673 2273.38,725.03 2280.03,725.576 2286.67,726.287 2293.32,727.105 "/>
<path clip-path="url(#clip800)" d="M252.77 1665.82 L2352.76 1665.82 L2352.76 951.568 L252.77 951.568  Z" fill="#ffffff" fill-rule="evenodd" fill-opacity="1"/>
<defs>
  <clipPath id="clip803">
    <rect x="252" y="951" width="2101" height="715"/>
  </clipPath>
</defs>
<polyline clip-path="url(#clip803)" style="stroke:#000000; stroke-linecap:round; stroke-linejoin:round; stroke-width:2; stroke-opacity:0.1; fill:none" points="298.907,1665.82 298.907,951.568 "/>
<polyline clip-path="url(#clip803)" style="stroke:#000000; stroke-linecap:round; stroke-linejoin:round; stroke-width:2; stroke-opacity:0.1; fill:none" points="963.712,1665.82 963.712,951.568 "/>
<polyline clip-path="url(#clip803)" style="stroke:#000000; stroke-linecap:round; stroke-linejoin:round; stroke-width:2; stroke-opacity:0.1; fill:none" points="1628.52,1665.82 1628.52,951.568 "/>
<polyline clip-path="url(#clip803)" style="stroke:#000000; stroke-linecap:round; stroke-linejoin:round; stroke-width:2; stroke-opacity:0.1; fill:none" points="2293.32,1665.82 2293.32,951.568 "/>
<polyline clip-path="url(#clip803)" style="stroke:#000000; stroke-linecap:round; stroke-linejoin:round; stroke-width:2; stroke-opacity:0.1; fill:none" points="252.77,1645.66 2352.76,1645.66 "/>
<polyline clip-path="url(#clip803)" style="stroke:#000000; stroke-linecap:round; stroke-linejoin:round; stroke-width:2; stroke-opacity:0.1; fill:none" points="252.77,1504.06 2352.76,1504.06 "/>
<polyline clip-path="url(#clip803)" style="stroke:#000000; stroke-linecap:round; stroke-linejoin:round; stroke-width:2; stroke-opacity:0.1; fill:none" points="252.77,1362.45 2352.76,1362.45 "/>
<polyline clip-path="url(#clip803)" style="stroke:#000000; stroke-linecap:round; stroke-linejoin:round; stroke-width:2; stroke-opacity:0.1; fill:none" points="252.77,1220.85 2352.76,1220.85 "/>
<polyline clip-path="url(#clip803)" style="stroke:#000000; stroke-linecap:round; stroke-linejoin:round; stroke-width:2; stroke-opacity:0.1; fill:none" points="252.77,1079.24 2352.76,1079.24 "/>
<polyline clip-path="url(#clip800)" style="stroke:#000000; stroke-linecap:round; stroke-linejoin:round; stroke-width:4; stroke-opacity:1; fill:none" points="252.77,1665.82 2352.76,1665.82 "/>
<polyline clip-path="url(#clip800)" style="stroke:#000000; stroke-linecap:round; stroke-linejoin:round; stroke-width:4; stroke-opacity:1; fill:none" points="298.907,1665.82 298.907,1646.92 "/>
<polyline clip-path="url(#clip800)" style="stroke:#000000; stroke-linecap:round; stroke-linejoin:round; stroke-width:4; stroke-opacity:1; fill:none" points="963.712,1665.82 963.712,1646.92 "/>
<polyline clip-path="url(#clip800)" style="stroke:#000000; stroke-linecap:round; stroke-linejoin:round; stroke-width:4; stroke-opacity:1; fill:none" points="1628.52,1665.82 1628.52,1646.92 "/>
<polyline clip-path="url(#clip800)" style="stroke:#000000; stroke-linecap:round; stroke-linejoin:round; stroke-width:4; stroke-opacity:1; fill:none" points="2293.32,1665.82 2293.32,1646.92 "/>
<path clip-path="url(#clip800)" d="M298.907 1699.93 Q295.296 1699.93 293.467 1703.5 Q291.662 1707.04 291.662 1714.17 Q291.662 1721.28 293.467 1724.84 Q295.296 1728.38 298.907 1728.38 Q302.541 1728.38 304.347 1724.84 Q306.176 1721.28 306.176 1714.17 Q306.176 1707.04 304.347 1703.5 Q302.541 1699.93 298.907 1699.93 M298.907 1696.23 Q304.717 1696.23 307.773 1700.84 Q310.852 1705.42 310.852 1714.17 Q310.852 1722.9 307.773 1727.5 Q304.717 1732.09 298.907 1732.09 Q293.097 1732.09 290.018 1727.5 Q286.963 1722.9 286.963 1714.17 Q286.963 1705.42 290.018 1700.84 Q293.097 1696.23 298.907 1696.23 Z" fill="#000000" fill-rule="nonzero" fill-opacity="1" /><path clip-path="url(#clip800)" d="M923.331 1696.86 L941.687 1696.86 L941.687 1700.79 L927.613 1700.79 L927.613 1709.26 Q928.631 1708.92 929.65 1708.75 Q930.668 1708.57 931.687 1708.57 Q937.474 1708.57 940.854 1711.74 Q944.233 1714.91 944.233 1720.33 Q944.233 1725.91 940.761 1729.01 Q937.289 1732.09 930.969 1732.09 Q928.793 1732.09 926.525 1731.72 Q924.28 1731.35 921.872 1730.61 L921.872 1725.91 Q923.956 1727.04 926.178 1727.6 Q928.4 1728.15 930.877 1728.15 Q934.881 1728.15 937.219 1726.05 Q939.557 1723.94 939.557 1720.33 Q939.557 1716.72 937.219 1714.61 Q934.881 1712.5 930.877 1712.5 Q929.002 1712.5 927.127 1712.92 Q925.275 1713.34 923.331 1714.22 L923.331 1696.86 Z" fill="#000000" fill-rule="nonzero" fill-opacity="1" /><path clip-path="url(#clip800)" d="M963.446 1699.93 Q959.835 1699.93 958.006 1703.5 Q956.201 1707.04 956.201 1714.17 Q956.201 1721.28 958.006 1724.84 Q959.835 1728.38 963.446 1728.38 Q967.08 1728.38 968.886 1724.84 Q970.715 1721.28 970.715 1714.17 Q970.715 1707.04 968.886 1703.5 Q967.08 1699.93 963.446 1699.93 M963.446 1696.23 Q969.256 1696.23 972.312 1700.84 Q975.39 1705.42 975.39 1714.17 Q975.39 1722.9 972.312 1727.5 Q969.256 1732.09 963.446 1732.09 Q957.636 1732.09 954.557 1727.5 Q951.502 1722.9 951.502 1714.17 Q951.502 1705.42 954.557 1700.84 Q957.636 1696.23 963.446 1696.23 Z" fill="#000000" fill-rule="nonzero" fill-opacity="1" /><path clip-path="url(#clip800)" d="M993.608 1699.93 Q989.997 1699.93 988.168 1703.5 Q986.363 1707.04 986.363 1714.17 Q986.363 1721.28 988.168 1724.84 Q989.997 1728.38 993.608 1728.38 Q997.242 1728.38 999.048 1724.84 Q1000.88 1721.28 1000.88 1714.17 Q1000.88 1707.04 999.048 1703.5 Q997.242 1699.93 993.608 1699.93 M993.608 1696.23 Q999.418 1696.23 1002.47 1700.84 Q1005.55 1705.42 1005.55 1714.17 Q1005.55 1722.9 1002.47 1727.5 Q999.418 1732.09 993.608 1732.09 Q987.798 1732.09 984.719 1727.5 Q981.664 1722.9 981.664 1714.17 Q981.664 1705.42 984.719 1700.84 Q987.798 1696.23 993.608 1696.23 Z" fill="#000000" fill-rule="nonzero" fill-opacity="1" /><path clip-path="url(#clip800)" d="M1573.04 1727.48 L1580.68 1727.48 L1580.68 1701.12 L1572.37 1702.78 L1572.37 1698.52 L1580.64 1696.86 L1585.31 1696.86 L1585.31 1727.48 L1592.95 1727.48 L1592.95 1731.42 L1573.04 1731.42 L1573.04 1727.48 Z" fill="#000000" fill-rule="nonzero" fill-opacity="1" /><path clip-path="url(#clip800)" d="M1612.39 1699.93 Q1608.78 1699.93 1606.95 1703.5 Q1605.15 1707.04 1605.15 1714.17 Q1605.15 1721.28 1606.95 1724.84 Q1608.78 1728.38 1612.39 1728.38 Q1616.03 1728.38 1617.83 1724.84 Q1619.66 1721.28 1619.66 1714.17 Q1619.66 1707.04 1617.83 1703.5 Q1616.03 1699.93 1612.39 1699.93 M1612.39 1696.23 Q1618.2 1696.23 1621.26 1700.84 Q1624.34 1705.42 1624.34 1714.17 Q1624.34 1722.9 1621.26 1727.5 Q1618.2 1732.09 1612.39 1732.09 Q1606.58 1732.09 1603.51 1727.5 Q1600.45 1722.9 1600.45 1714.17 Q1600.45 1705.42 1603.51 1700.84 Q1606.58 1696.23 1612.39 1696.23 Z" fill="#000000" fill-rule="nonzero" fill-opacity="1" /><path clip-path="url(#clip800)" d="M1642.56 1699.93 Q1638.95 1699.93 1637.12 1703.5 Q1635.31 1707.04 1635.31 1714.17 Q1635.31 1721.28 1637.12 1724.84 Q1638.95 1728.38 1642.56 1728.38 Q1646.19 1728.38 1648 1724.84 Q1649.83 1721.28 1649.83 1714.17 Q1649.83 1707.04 1648 1703.5 Q1646.19 1699.93 1642.56 1699.93 M1642.56 1696.23 Q1648.37 1696.23 1651.42 1700.84 Q1654.5 1705.42 1654.5 1714.17 Q1654.5 1722.9 1651.42 1727.5 Q1648.37 1732.09 1642.56 1732.09 Q1636.75 1732.09 1633.67 1727.5 Q1630.61 1722.9 1630.61 1714.17 Q1630.61 1705.42 1633.67 1700.84 Q1636.75 1696.23 1642.56 1696.23 Z" fill="#000000" fill-rule="nonzero" fill-opacity="1" /><path clip-path="url(#clip800)" d="M1672.72 1699.93 Q1669.11 1699.93 1667.28 1703.5 Q1665.47 1707.04 1665.47 1714.17 Q1665.47 1721.28 1667.28 1724.84 Q1669.11 1728.38 1672.72 1728.38 Q1676.35 1728.38 1678.16 1724.84 Q1679.99 1721.28 1679.99 1714.17 Q1679.99 1707.04 1678.16 1703.5 Q1676.35 1699.93 1672.72 1699.93 M1672.72 1696.23 Q1678.53 1696.23 1681.58 1700.84 Q1684.66 1705.42 1684.66 1714.17 Q1684.66 1722.9 1681.58 1727.5 Q1678.53 1732.09 1672.72 1732.09 Q1666.91 1732.09 1663.83 1727.5 Q1660.77 1722.9 1660.77 1714.17 Q1660.77 1705.42 1663.83 1700.84 Q1666.91 1696.23 1672.72 1696.23 Z" fill="#000000" fill-rule="nonzero" fill-opacity="1" /><path clip-path="url(#clip800)" d="M2237.85 1727.48 L2245.49 1727.48 L2245.49 1701.12 L2237.18 1702.78 L2237.18 1698.52 L2245.44 1696.86 L2250.12 1696.86 L2250.12 1727.48 L2257.76 1727.48 L2257.76 1731.42 L2237.85 1731.42 L2237.85 1727.48 Z" fill="#000000" fill-rule="nonzero" fill-opacity="1" /><path clip-path="url(#clip800)" d="M2267.25 1696.86 L2285.6 1696.86 L2285.6 1700.79 L2271.53 1700.79 L2271.53 1709.26 Q2272.55 1708.92 2273.57 1708.75 Q2274.58 1708.57 2275.6 1708.57 Q2281.39 1708.57 2284.77 1711.74 Q2288.15 1714.91 2288.15 1720.33 Q2288.15 1725.91 2284.68 1729.01 Q2281.2 1732.09 2274.88 1732.09 Q2272.71 1732.09 2270.44 1731.72 Q2268.2 1731.35 2265.79 1730.61 L2265.79 1725.91 Q2267.87 1727.04 2270.09 1727.6 Q2272.32 1728.15 2274.79 1728.15 Q2278.8 1728.15 2281.13 1726.05 Q2283.47 1723.94 2283.47 1720.33 Q2283.47 1716.72 2281.13 1714.61 Q2278.8 1712.5 2274.79 1712.5 Q2272.92 1712.5 2271.04 1712.92 Q2269.19 1713.34 2267.25 1714.22 L2267.25 1696.86 Z" fill="#000000" fill-rule="nonzero" fill-opacity="1" /><path clip-path="url(#clip800)" d="M2307.36 1699.93 Q2303.75 1699.93 2301.92 1703.5 Q2300.12 1707.04 2300.12 1714.17 Q2300.12 1721.28 2301.92 1724.84 Q2303.75 1728.38 2307.36 1728.38 Q2311 1728.38 2312.8 1724.84 Q2314.63 1721.28 2314.63 1714.17 Q2314.63 1707.04 2312.8 1703.5 Q2311 1699.93 2307.36 1699.93 M2307.36 1696.23 Q2313.17 1696.23 2316.23 1700.84 Q2319.31 1705.42 2319.31 1714.17 Q2319.31 1722.9 2316.23 1727.5 Q2313.17 1732.09 2307.36 1732.09 Q2301.55 1732.09 2298.47 1727.5 Q2295.42 1722.9 2295.42 1714.17 Q2295.42 1705.42 2298.47 1700.84 Q2301.55 1696.23 2307.36 1696.23 Z" fill="#000000" fill-rule="nonzero" fill-opacity="1" /><path clip-path="url(#clip800)" d="M2337.52 1699.93 Q2333.91 1699.93 2332.08 1703.5 Q2330.28 1707.04 2330.28 1714.17 Q2330.28 1721.28 2332.08 1724.84 Q2333.91 1728.38 2337.52 1728.38 Q2341.16 1728.38 2342.96 1724.84 Q2344.79 1721.28 2344.79 1714.17 Q2344.79 1707.04 2342.96 1703.5 Q2341.16 1699.93 2337.52 1699.93 M2337.52 1696.23 Q2343.33 1696.23 2346.39 1700.84 Q2349.47 1705.42 2349.47 1714.17 Q2349.47 1722.9 2346.39 1727.5 Q2343.33 1732.09 2337.52 1732.09 Q2331.71 1732.09 2328.63 1727.5 Q2325.58 1722.9 2325.58 1714.17 Q2325.58 1705.42 2328.63 1700.84 Q2331.71 1696.23 2337.52 1696.23 Z" fill="#000000" fill-rule="nonzero" fill-opacity="1" /><polyline clip-path="url(#clip800)" style="stroke:#000000; stroke-linecap:round; stroke-linejoin:round; stroke-width:4; stroke-opacity:1; fill:none" points="252.77,1665.82 252.77,951.568 "/>
<polyline clip-path="url(#clip800)" style="stroke:#000000; stroke-linecap:round; stroke-linejoin:round; stroke-width:4; stroke-opacity:1; fill:none" points="252.77,1645.66 271.667,1645.66 "/>
<polyline clip-path="url(#clip800)" style="stroke:#000000; stroke-linecap:round; stroke-linejoin:round; stroke-width:4; stroke-opacity:1; fill:none" points="252.77,1504.06 271.667,1504.06 "/>
<polyline clip-path="url(#clip800)" style="stroke:#000000; stroke-linecap:round; stroke-linejoin:round; stroke-width:4; stroke-opacity:1; fill:none" points="252.77,1362.45 271.667,1362.45 "/>
<polyline clip-path="url(#clip800)" style="stroke:#000000; stroke-linecap:round; stroke-linejoin:round; stroke-width:4; stroke-opacity:1; fill:none" points="252.77,1220.85 271.667,1220.85 "/>
<polyline clip-path="url(#clip800)" style="stroke:#000000; stroke-linecap:round; stroke-linejoin:round; stroke-width:4; stroke-opacity:1; fill:none" points="252.77,1079.24 271.667,1079.24 "/>
<path clip-path="url(#clip800)" d="M198.825 1631.46 Q195.214 1631.46 193.386 1635.02 Q191.58 1638.57 191.58 1645.7 Q191.58 1652.8 193.386 1656.37 Q195.214 1659.91 198.825 1659.91 Q202.46 1659.91 204.265 1656.37 Q206.094 1652.8 206.094 1645.7 Q206.094 1638.57 204.265 1635.02 Q202.46 1631.46 198.825 1631.46 M198.825 1627.76 Q204.636 1627.76 207.691 1632.36 Q210.77 1636.95 210.77 1645.7 Q210.77 1654.42 207.691 1659.03 Q204.636 1663.61 198.825 1663.61 Q193.015 1663.61 189.937 1659.03 Q186.881 1654.42 186.881 1645.7 Q186.881 1636.95 189.937 1632.36 Q193.015 1627.76 198.825 1627.76 Z" fill="#000000" fill-rule="nonzero" fill-opacity="1" /><path clip-path="url(#clip800)" d="M162.691 1517.4 L179.011 1517.4 L179.011 1521.34 L157.066 1521.34 L157.066 1517.4 Q159.728 1514.65 164.312 1510.02 Q168.918 1505.36 170.099 1504.02 Q172.344 1501.5 173.224 1499.76 Q174.126 1498 174.126 1496.31 Q174.126 1493.56 172.182 1491.82 Q170.261 1490.09 167.159 1490.09 Q164.96 1490.09 162.506 1490.85 Q160.076 1491.61 157.298 1493.16 L157.298 1488.44 Q160.122 1487.31 162.576 1486.73 Q165.029 1486.15 167.066 1486.15 Q172.437 1486.15 175.631 1488.84 Q178.825 1491.52 178.825 1496.01 Q178.825 1498.14 178.015 1500.06 Q177.228 1501.96 175.122 1504.55 Q174.543 1505.22 171.441 1508.44 Q168.339 1511.64 162.691 1517.4 Z" fill="#000000" fill-rule="nonzero" fill-opacity="1" /><path clip-path="url(#clip800)" d="M198.825 1489.85 Q195.214 1489.85 193.386 1493.42 Q191.58 1496.96 191.58 1504.09 Q191.58 1511.2 193.386 1514.76 Q195.214 1518.3 198.825 1518.3 Q202.46 1518.3 204.265 1514.76 Q206.094 1511.2 206.094 1504.09 Q206.094 1496.96 204.265 1493.42 Q202.46 1489.85 198.825 1489.85 M198.825 1486.15 Q204.636 1486.15 207.691 1490.76 Q210.77 1495.34 210.77 1504.09 Q210.77 1512.82 207.691 1517.42 Q204.636 1522.01 198.825 1522.01 Q193.015 1522.01 189.937 1517.42 Q186.881 1512.82 186.881 1504.09 Q186.881 1495.34 189.937 1490.76 Q193.015 1486.15 198.825 1486.15 Z" fill="#000000" fill-rule="nonzero" fill-opacity="1" /><path clip-path="url(#clip800)" d="M171.511 1349.24 L159.705 1367.69 L171.511 1367.69 L171.511 1349.24 M170.284 1345.17 L176.163 1345.17 L176.163 1367.69 L181.094 1367.69 L181.094 1371.58 L176.163 1371.58 L176.163 1379.73 L171.511 1379.73 L171.511 1371.58 L155.909 1371.58 L155.909 1367.07 L170.284 1345.17 Z" fill="#000000" fill-rule="nonzero" fill-opacity="1" /><path clip-path="url(#clip800)" d="M198.825 1348.25 Q195.214 1348.25 193.386 1351.81 Q191.58 1355.36 191.58 1362.49 Q191.58 1369.59 193.386 1373.16 Q195.214 1376.7 198.825 1376.7 Q202.46 1376.7 204.265 1373.16 Q206.094 1369.59 206.094 1362.49 Q206.094 1355.36 204.265 1351.81 Q202.46 1348.25 198.825 1348.25 M198.825 1344.55 Q204.636 1344.55 207.691 1349.15 Q210.77 1353.74 210.77 1362.49 Q210.77 1371.21 207.691 1375.82 Q204.636 1380.4 198.825 1380.4 Q193.015 1380.4 189.937 1375.82 Q186.881 1371.21 186.881 1362.49 Q186.881 1353.74 189.937 1349.15 Q193.015 1344.55 198.825 1344.55 Z" fill="#000000" fill-rule="nonzero" fill-opacity="1" /><path clip-path="url(#clip800)" d="M169.242 1218.98 Q166.094 1218.98 164.242 1221.14 Q162.414 1223.29 162.414 1227.04 Q162.414 1230.76 164.242 1232.94 Q166.094 1235.09 169.242 1235.09 Q172.39 1235.09 174.219 1232.94 Q176.071 1230.76 176.071 1227.04 Q176.071 1223.29 174.219 1221.14 Q172.39 1218.98 169.242 1218.98 M178.525 1204.33 L178.525 1208.59 Q176.765 1207.76 174.96 1207.32 Q173.177 1206.88 171.418 1206.88 Q166.788 1206.88 164.335 1210 Q161.904 1213.13 161.557 1219.45 Q162.923 1217.43 164.983 1216.37 Q167.043 1215.28 169.52 1215.28 Q174.728 1215.28 177.738 1218.45 Q180.77 1221.6 180.77 1227.04 Q180.77 1232.36 177.622 1235.58 Q174.474 1238.8 169.242 1238.8 Q163.247 1238.8 160.076 1234.21 Q156.904 1229.61 156.904 1220.88 Q156.904 1212.69 160.793 1207.83 Q164.682 1202.94 171.233 1202.94 Q172.992 1202.94 174.775 1203.29 Q176.58 1203.64 178.525 1204.33 Z" fill="#000000" fill-rule="nonzero" fill-opacity="1" /><path clip-path="url(#clip800)" d="M198.825 1206.64 Q195.214 1206.64 193.386 1210.21 Q191.58 1213.75 191.58 1220.88 Q191.58 1227.99 193.386 1231.55 Q195.214 1235.09 198.825 1235.09 Q202.46 1235.09 204.265 1231.55 Q206.094 1227.99 206.094 1220.88 Q206.094 1213.75 204.265 1210.21 Q202.46 1206.64 198.825 1206.64 M198.825 1202.94 Q204.636 1202.94 207.691 1207.55 Q210.77 1212.13 210.77 1220.88 Q210.77 1229.61 207.691 1234.21 Q204.636 1238.8 198.825 1238.8 Q193.015 1238.8 189.937 1234.21 Q186.881 1229.61 186.881 1220.88 Q186.881 1212.13 189.937 1207.55 Q193.015 1202.94 198.825 1202.94 Z" fill="#000000" fill-rule="nonzero" fill-opacity="1" /><path clip-path="url(#clip800)" d="M168.663 1080.11 Q165.33 1080.11 163.409 1081.89 Q161.511 1083.67 161.511 1086.8 Q161.511 1089.92 163.409 1091.71 Q165.33 1093.49 168.663 1093.49 Q171.997 1093.49 173.918 1091.71 Q175.839 1089.9 175.839 1086.8 Q175.839 1083.67 173.918 1081.89 Q172.02 1080.11 168.663 1080.11 M163.988 1078.12 Q160.978 1077.38 159.289 1075.32 Q157.622 1073.26 157.622 1070.29 Q157.622 1066.15 160.562 1063.74 Q163.525 1061.34 168.663 1061.34 Q173.825 1061.34 176.765 1063.74 Q179.705 1066.15 179.705 1070.29 Q179.705 1073.26 178.015 1075.32 Q176.349 1077.38 173.363 1078.12 Q176.742 1078.91 178.617 1081.2 Q180.515 1083.49 180.515 1086.8 Q180.515 1091.82 177.437 1094.51 Q174.381 1097.19 168.663 1097.19 Q162.946 1097.19 159.867 1094.51 Q156.812 1091.82 156.812 1086.8 Q156.812 1083.49 158.71 1081.2 Q160.608 1078.91 163.988 1078.12 M162.275 1070.73 Q162.275 1073.42 163.941 1074.92 Q165.631 1076.43 168.663 1076.43 Q171.673 1076.43 173.363 1074.92 Q175.075 1073.42 175.075 1070.73 Q175.075 1068.05 173.363 1066.54 Q171.673 1065.04 168.663 1065.04 Q165.631 1065.04 163.941 1066.54 Q162.275 1068.05 162.275 1070.73 Z" fill="#000000" fill-rule="nonzero" fill-opacity="1" /><path clip-path="url(#clip800)" d="M198.825 1065.04 Q195.214 1065.04 193.386 1068.6 Q191.58 1072.15 191.58 1079.28 Q191.58 1086.38 193.386 1089.95 Q195.214 1093.49 198.825 1093.49 Q202.46 1093.49 204.265 1089.95 Q206.094 1086.38 206.094 1079.28 Q206.094 1072.15 204.265 1068.6 Q202.46 1065.04 198.825 1065.04 M198.825 1061.34 Q204.636 1061.34 207.691 1065.94 Q210.77 1070.53 210.77 1079.28 Q210.77 1088 207.691 1092.61 Q204.636 1097.19 198.825 1097.19 Q193.015 1097.19 189.937 1092.61 Q186.881 1088 186.881 1079.28 Q186.881 1070.53 189.937 1065.94 Q193.015 1061.34 198.825 1061.34 Z" fill="#000000" fill-rule="nonzero" fill-opacity="1" /><path clip-path="url(#clip800)" d="M57.4165 1469.97 L94.3694 1469.97 L94.3694 1462.2 Q94.3694 1452.37 89.9134 1447.81 Q85.4574 1443.23 75.8452 1443.23 Q66.2966 1443.23 61.8724 1447.81 Q57.4165 1452.37 57.4165 1462.2 L57.4165 1469.97 M52.1329 1476.4 L52.1329 1463.19 Q52.1329 1449.37 57.8939 1442.91 Q63.623 1436.45 75.8452 1436.45 Q88.131 1436.45 93.892 1442.94 Q99.6529 1449.44 99.6529 1463.19 L99.6529 1476.4 L52.1329 1476.4 Z" fill="#000000" fill-rule="nonzero" fill-opacity="1" /><path clip-path="url(#clip800)" d="M71.9303 1428.72 L71.9303 1425.03 L99.6529 1425.03 L99.6529 1428.72 L71.9303 1428.72 Z" fill="#000000" fill-rule="nonzero" fill-opacity="1" /><path clip-path="url(#clip800)" d="M51.7828 1417.74 L51.7828 1398.83 L54.8065 1398.83 L54.8065 1413.69 L62.7 1413.69 L62.7 1399.44 L65.7237 1399.44 L65.7237 1413.69 L75.3677 1413.69 L75.3677 1398.45 L78.3915 1398.45 L78.3915 1417.74 L51.7828 1417.74 Z" fill="#000000" fill-rule="nonzero" fill-opacity="1" /><path clip-path="url(#clip800)" d="M51.7828 1391.8 L51.7828 1372.89 L54.8065 1372.89 L54.8065 1387.75 L62.7 1387.75 L62.7 1373.49 L65.7237 1373.49 L65.7237 1387.75 L75.3677 1387.75 L75.3677 1372.51 L78.3915 1372.51 L78.3915 1391.8 L51.7828 1391.8 Z" fill="#000000" fill-rule="nonzero" fill-opacity="1" /><path clip-path="url(#clip800)" d="M52.1329 1332.63 L52.1329 1327.22 L105.7 1343.77 L105.7 1349.18 L52.1329 1332.63 Z" fill="#000000" fill-rule="nonzero" fill-opacity="1" /><path clip-path="url(#clip800)" d="M94.2421 1298.41 L94.2421 1287.91 L57.9894 1287.91 L60.281 1299.33 L54.4246 1299.33 L52.1329 1287.97 L52.1329 1281.54 L94.2421 1281.54 L94.2421 1271.04 L99.6529 1271.04 L99.6529 1298.41 L94.2421 1298.41 Z" fill="#000000" fill-rule="nonzero" fill-opacity="1" /><path clip-path="url(#clip800)" d="M56.3661 1244.3 Q56.3661 1249.27 61.2677 1251.78 Q66.1375 1254.27 75.9407 1254.27 Q85.712 1254.27 90.6136 1251.78 Q95.4834 1249.27 95.4834 1244.3 Q95.4834 1239.31 90.6136 1236.82 Q85.712 1234.31 75.9407 1234.31 Q66.1375 1234.31 61.2677 1236.82 Q56.3661 1239.31 56.3661 1244.3 M51.2735 1244.3 Q51.2735 1236.31 57.6074 1232.11 Q63.9095 1227.88 75.9407 1227.88 Q87.94 1227.88 94.2739 1232.11 Q100.576 1236.31 100.576 1244.3 Q100.576 1252.29 94.2739 1256.53 Q87.94 1260.73 75.9407 1260.73 Q63.9095 1260.73 57.6074 1256.53 Q51.2735 1252.29 51.2735 1244.3 Z" fill="#000000" fill-rule="nonzero" fill-opacity="1" /><path clip-path="url(#clip800)" d="M65.4372 1219.19 L65.4372 1193.5 L68.461 1193.5 L68.461 1219.19 L65.4372 1219.19 Z" fill="#000000" fill-rule="nonzero" fill-opacity="1" /><path clip-path="url(#clip800)" d="M74.8903 1184.18 L74.8903 1177.69 L55.4431 1177.69 L56.7481 1184.78 L53.0559 1184.78 L51.8146 1177.46 L51.8146 1173.1 L74.8903 1173.1 L74.8903 1166.58 L78.3915 1166.58 L78.3915 1184.18 L74.8903 1184.18 Z" fill="#000000" fill-rule="nonzero" fill-opacity="1" /><path clip-path="url(#clip800)" d="M74.763 1154.48 L74.763 1140.99 L78.3915 1140.99 L78.3915 1160.02 L74.8903 1160.02 Q73.9036 1158.94 72.1212 1156.93 Q62.4135 1145.98 59.4217 1145.98 Q57.321 1145.98 56.0478 1147.64 Q54.7429 1149.29 54.7429 1152 Q54.7429 1153.66 55.3158 1155.6 Q55.8569 1157.54 56.9709 1159.83 L53.0559 1159.83 Q52.1647 1157.38 51.7191 1155.28 Q51.2735 1153.15 51.2735 1151.33 Q51.2735 1146.72 53.3742 1143.95 Q55.4749 1141.18 58.9124 1141.18 Q63.3366 1141.18 72.3759 1151.71 Q73.9036 1153.5 74.763 1154.48 Z" fill="#000000" fill-rule="nonzero" fill-opacity="1" /><polyline clip-path="url(#clip803)" style="stroke:#009af9; stroke-linecap:round; stroke-linejoin:round; stroke-width:4; stroke-opacity:1; fill:none" points="312.203,1645.6 318.851,1645.6 325.499,1645.55 332.147,1645.47 338.796,1645.34 345.444,1645.11 352.092,1644.8 358.74,1644.44 365.388,1643.93 372.036,1643.33 378.684,1642.65 385.332,1641.84 391.98,1640.94 398.628,1639.98 405.276,1638.93 411.924,1637.82 418.572,1636.7 425.22,1635.58 431.868,1634.46 438.516,1633.38 445.164,1632.38 451.812,1631.48 458.46,1630.66 465.108,1630 471.757,1629.51 478.405,1629.14 485.053,1628.96 491.701,1629 498.349,1629.15 504.997,1629.47 511.645,1630 518.293,1630.61 524.941,1631.29 531.589,1632.1 538.237,1632.91 544.885,1633.63 551.533,1634.36 558.181,1634.93 564.829,1635.25 571.477,1635.37 578.125,1635.16 584.773,1634.51 591.421,1633.43 598.069,1631.83 604.718,1629.62 611.366,1626.77 618.014,1623.21 624.662,1618.92 631.31,1613.83 637.958,1607.88 644.606,1601.15 651.254,1593.52 657.902,1584.99 664.55,1575.68 671.198,1565.51 677.846,1554.47 684.494,1542.75 691.142,1530.33 697.79,1517.2 704.438,1503.57 711.086,1489.49 717.734,1475 724.382,1460.24 731.03,1445.37 737.679,1430.49 744.327,1415.66 750.975,1401.07 757.623,1386.95 764.271,1373.22 770.919,1360.08 777.567,1347.91 784.215,1336.48 790.863,1325.94 797.511,1316.8 804.159,1308.75 810.807,1301.79 817.455,1296.56 824.103,1292.7 830.751,1290.02 837.399,1289.22 844.047,1289.98 850.695,1291.89 857.343,1295.64 863.991,1301.01 870.64,1307.36 877.288,1315.31 883.936,1324.77 890.584,1334.96 897.232,1346.3 903.88,1358.9 910.528,1371.85 917.176,1385.4 923.824,1399.79 930.472,1414.11 937.12,1428.38 943.768,1442.95 950.416,1456.98 957.064,1470.34 963.712,1483.39 970.36,1495.45 977.008,1506.29 983.656,1516.19 990.304,1524.7 996.953,1531.55 1003.6,1536.93 1010.25,1540.59 1016.9,1542.33 1023.54,1542.22 1030.19,1540.18 1036.84,1536.11 1043.49,1530.04 1050.14,1522 1056.78,1512.01 1063.43,1500.08 1070.08,1486.32 1076.73,1470.85 1083.38,1453.74 1090.03,1435.14 1096.67,1415.19 1103.32,1394.09 1109.97,1372.04 1116.62,1349.1 1123.27,1325.63 1129.91,1301.88 1136.56,1277.79 1143.21,1253.84 1149.86,1230.37 1156.51,1207.15 1163.15,1184.69 1169.8,1163.5 1176.45,1143.14 1183.1,1124.09 1189.75,1106.99 1196.39,1091.27 1203.04,1077.24 1209.69,1065.7 1216.34,1056 1222.99,1048.19 1229.63,1043.19 1236.28,1040.36 1242.93,1039.42 1249.58,1041.33 1256.23,1045.56 1262.87,1051.51 1269.52,1060.08 1276.17,1070.95 1282.82,1083.21 1289.47,1097.61 1296.11,1114.03 1302.76,1131.38 1309.41,1150.21 1316.06,1170.59 1322.71,1191.37 1329.36,1212.83 1336,1235.22 1342.65,1257.43 1349.3,1279.5 1355.95,1301.75 1362.6,1323.23 1369.24,1343.82 1375.89,1363.8 1382.54,1382.5 1389.19,1399.64 1395.84,1415.45 1402.48,1429.51 1409.13,1441.54 1415.78,1451.67 1422.43,1459.71 1429.08,1465.45 1435.72,1468.91 1442.37,1470.1 1449.02,1468.9 1455.67,1465.32 1462.32,1459.47 1468.96,1451.34 1475.61,1440.98 1482.26,1428.55 1488.91,1414.1 1495.56,1397.82 1502.2,1379.87 1508.85,1360.31 1515.5,1339.51 1522.15,1317.61 1528.8,1294.6 1535.44,1271.04 1542.09,1247.1 1548.74,1222.63 1555.39,1198.32 1562.04,1174.41 1568.68,1150.59 1575.33,1127.59 1581.98,1105.78 1588.63,1084.67 1595.28,1064.91 1601.93,1047.04 1608.57,1030.46 1615.22,1015.57 1621.87,1003.13 1628.52,992.466 1635.17,983.683 1641.81,977.664 1648.46,973.783 1655.11,971.783 1661.76,972.623 1668.41,975.8 1675.05,980.7 1681.7,988.258 1688.35,998.152 1695,1009.48 1701.65,1023.06 1708.29,1038.75 1714.94,1055.5 1721.59,1073.9 1728.24,1094.03 1734.89,1114.76 1741.53,1136.46 1748.18,1159.31 1754.83,1182.28 1761.48,1205.49 1768.13,1229.16 1774.77,1252.47 1781.42,1275.31 1788.07,1297.92 1794.72,1319.71 1801.37,1340.42 1808.01,1360.25 1814.66,1378.85 1821.31,1395.91 1827.96,1411.55 1834.61,1425.63 1841.25,1437.86 1847.9,1448.3 1854.55,1456.94 1861.2,1463.59 1867.85,1468.28 1874.5,1471.09 1881.14,1471.93 1887.79,1470.86 1894.44,1467.95 1901.09,1463.25 1907.74,1456.88 1914.38,1448.89 1921.03,1439.37 1927.68,1428.58 1934.33,1416.55 1940.98,1403.35 1947.62,1389.36 1954.27,1374.62 1960.92,1359.14 1967.57,1343.39 1974.22,1327.45 1980.86,1311.25 1987.51,1295.28 1994.16,1279.71 2000.81,1264.34 2007.46,1249.63 2014.1,1235.87 2020.75,1222.78 2027.4,1210.66 2034.05,1199.96 2040.7,1190.33 2047.34,1181.85 2053.99,1175.13 2060.64,1169.79 2067.29,1165.68 2073.94,1163.46 2080.58,1162.83 2087.23,1163.38 2093.88,1165.79 2100.53,1169.87 2107.18,1175 2113.82,1181.79 2120.47,1190.16 2127.12,1199.38 2133.77,1209.92 2140.42,1221.83 2147.07,1234.35 2153.71,1247.75 2160.36,1262.18 2167.01,1276.93 2173.66,1292.09 2180.31,1307.82 2186.95,1323.59 2193.6,1339.27 2200.25,1355.07 2206.9,1370.58 2213.55,1385.59 2220.19,1400.26 2226.84,1414.35 2233.49,1427.6 2240.14,1440.1 2246.79,1451.76 2253.43,1462.32 2260.08,1471.84 2266.73,1480.3 2273.38,1487.53 2280.03,1493.54 2286.67,1498.34 2293.32,1501.88 "/>
<path clip-path="url(#clip800)" d="M252.77 2570.14 L2352.76 2570.14 L2352.76 1855.89 L252.77 1855.89  Z" fill="#ffffff" fill-rule="evenodd" fill-opacity="1"/>
<defs>
  <clipPath id="clip804">
    <rect x="252" y="1855" width="2101" height="715"/>
  </clipPath>
</defs>
<polyline clip-path="url(#clip804)" style="stroke:#000000; stroke-linecap:round; stroke-linejoin:round; stroke-width:2; stroke-opacity:0.1; fill:none" points="298.907,2570.14 298.907,1855.89 "/>
<polyline clip-path="url(#clip804)" style="stroke:#000000; stroke-linecap:round; stroke-linejoin:round; stroke-width:2; stroke-opacity:0.1; fill:none" points="963.712,2570.14 963.712,1855.89 "/>
<polyline clip-path="url(#clip804)" style="stroke:#000000; stroke-linecap:round; stroke-linejoin:round; stroke-width:2; stroke-opacity:0.1; fill:none" points="1628.52,2570.14 1628.52,1855.89 "/>
<polyline clip-path="url(#clip804)" style="stroke:#000000; stroke-linecap:round; stroke-linejoin:round; stroke-width:2; stroke-opacity:0.1; fill:none" points="2293.32,2570.14 2293.32,1855.89 "/>
<polyline clip-path="url(#clip804)" style="stroke:#000000; stroke-linecap:round; stroke-linejoin:round; stroke-width:2; stroke-opacity:0.1; fill:none" points="252.77,2476.96 2352.76,2476.96 "/>
<polyline clip-path="url(#clip804)" style="stroke:#000000; stroke-linecap:round; stroke-linejoin:round; stroke-width:2; stroke-opacity:0.1; fill:none" points="252.77,2383.52 2352.76,2383.52 "/>
<polyline clip-path="url(#clip804)" style="stroke:#000000; stroke-linecap:round; stroke-linejoin:round; stroke-width:2; stroke-opacity:0.1; fill:none" points="252.77,2290.07 2352.76,2290.07 "/>
<polyline clip-path="url(#clip804)" style="stroke:#000000; stroke-linecap:round; stroke-linejoin:round; stroke-width:2; stroke-opacity:0.1; fill:none" points="252.77,2196.62 2352.76,2196.62 "/>
<polyline clip-path="url(#clip804)" style="stroke:#000000; stroke-linecap:round; stroke-linejoin:round; stroke-width:2; stroke-opacity:0.1; fill:none" points="252.77,2103.18 2352.76,2103.18 "/>
<polyline clip-path="url(#clip804)" style="stroke:#000000; stroke-linecap:round; stroke-linejoin:round; stroke-width:2; stroke-opacity:0.1; fill:none" points="252.77,2009.73 2352.76,2009.73 "/>
<polyline clip-path="url(#clip804)" style="stroke:#000000; stroke-linecap:round; stroke-linejoin:round; stroke-width:2; stroke-opacity:0.1; fill:none" points="252.77,1916.28 2352.76,1916.28 "/>
<polyline clip-path="url(#clip800)" style="stroke:#000000; stroke-linecap:round; stroke-linejoin:round; stroke-width:4; stroke-opacity:1; fill:none" points="252.77,2570.14 2352.76,2570.14 "/>
<polyline clip-path="url(#clip800)" style="stroke:#000000; stroke-linecap:round; stroke-linejoin:round; stroke-width:4; stroke-opacity:1; fill:none" points="298.907,2570.14 298.907,2551.24 "/>
<polyline clip-path="url(#clip800)" style="stroke:#000000; stroke-linecap:round; stroke-linejoin:round; stroke-width:4; stroke-opacity:1; fill:none" points="963.712,2570.14 963.712,2551.24 "/>
<polyline clip-path="url(#clip800)" style="stroke:#000000; stroke-linecap:round; stroke-linejoin:round; stroke-width:4; stroke-opacity:1; fill:none" points="1628.52,2570.14 1628.52,2551.24 "/>
<polyline clip-path="url(#clip800)" style="stroke:#000000; stroke-linecap:round; stroke-linejoin:round; stroke-width:4; stroke-opacity:1; fill:none" points="2293.32,2570.14 2293.32,2551.24 "/>
<path clip-path="url(#clip800)" d="M298.907 2604.26 Q295.296 2604.26 293.467 2607.82 Q291.662 2611.36 291.662 2618.49 Q291.662 2625.6 293.467 2629.17 Q295.296 2632.71 298.907 2632.71 Q302.541 2632.71 304.347 2629.17 Q306.176 2625.6 306.176 2618.49 Q306.176 2611.36 304.347 2607.82 Q302.541 2604.26 298.907 2604.26 M298.907 2600.55 Q304.717 2600.55 307.773 2605.16 Q310.852 2609.74 310.852 2618.49 Q310.852 2627.22 307.773 2631.83 Q304.717 2636.41 298.907 2636.41 Q293.097 2636.41 290.018 2631.83 Q286.963 2627.22 286.963 2618.49 Q286.963 2609.74 290.018 2605.16 Q293.097 2600.55 298.907 2600.55 Z" fill="#000000" fill-rule="nonzero" fill-opacity="1" /><path clip-path="url(#clip800)" d="M923.331 2601.18 L941.687 2601.18 L941.687 2605.12 L927.613 2605.12 L927.613 2613.59 Q928.631 2613.24 929.65 2613.08 Q930.668 2612.89 931.687 2612.89 Q937.474 2612.89 940.854 2616.06 Q944.233 2619.24 944.233 2624.65 Q944.233 2630.23 940.761 2633.33 Q937.289 2636.41 930.969 2636.41 Q928.793 2636.41 926.525 2636.04 Q924.28 2635.67 921.872 2634.93 L921.872 2630.23 Q923.956 2631.36 926.178 2631.92 Q928.4 2632.48 930.877 2632.48 Q934.881 2632.48 937.219 2630.37 Q939.557 2628.26 939.557 2624.65 Q939.557 2621.04 937.219 2618.93 Q934.881 2616.83 930.877 2616.83 Q929.002 2616.83 927.127 2617.24 Q925.275 2617.66 923.331 2618.54 L923.331 2601.18 Z" fill="#000000" fill-rule="nonzero" fill-opacity="1" /><path clip-path="url(#clip800)" d="M963.446 2604.26 Q959.835 2604.26 958.006 2607.82 Q956.201 2611.36 956.201 2618.49 Q956.201 2625.6 958.006 2629.17 Q959.835 2632.71 963.446 2632.71 Q967.08 2632.71 968.886 2629.17 Q970.715 2625.6 970.715 2618.49 Q970.715 2611.36 968.886 2607.82 Q967.08 2604.26 963.446 2604.26 M963.446 2600.55 Q969.256 2600.55 972.312 2605.16 Q975.39 2609.74 975.39 2618.49 Q975.39 2627.22 972.312 2631.83 Q969.256 2636.41 963.446 2636.41 Q957.636 2636.41 954.557 2631.83 Q951.502 2627.22 951.502 2618.49 Q951.502 2609.74 954.557 2605.16 Q957.636 2600.55 963.446 2600.55 Z" fill="#000000" fill-rule="nonzero" fill-opacity="1" /><path clip-path="url(#clip800)" d="M993.608 2604.26 Q989.997 2604.26 988.168 2607.82 Q986.363 2611.36 986.363 2618.49 Q986.363 2625.6 988.168 2629.17 Q989.997 2632.71 993.608 2632.71 Q997.242 2632.71 999.048 2629.17 Q1000.88 2625.6 1000.88 2618.49 Q1000.88 2611.36 999.048 2607.82 Q997.242 2604.26 993.608 2604.26 M993.608 2600.55 Q999.418 2600.55 1002.47 2605.16 Q1005.55 2609.74 1005.55 2618.49 Q1005.55 2627.22 1002.47 2631.83 Q999.418 2636.41 993.608 2636.41 Q987.798 2636.41 984.719 2631.83 Q981.664 2627.22 981.664 2618.49 Q981.664 2609.74 984.719 2605.16 Q987.798 2600.55 993.608 2600.55 Z" fill="#000000" fill-rule="nonzero" fill-opacity="1" /><path clip-path="url(#clip800)" d="M1573.04 2631.8 L1580.68 2631.8 L1580.68 2605.44 L1572.37 2607.11 L1572.37 2602.85 L1580.64 2601.18 L1585.31 2601.18 L1585.31 2631.8 L1592.95 2631.8 L1592.95 2635.74 L1573.04 2635.74 L1573.04 2631.8 Z" fill="#000000" fill-rule="nonzero" fill-opacity="1" /><path clip-path="url(#clip800)" d="M1612.39 2604.26 Q1608.78 2604.26 1606.95 2607.82 Q1605.15 2611.36 1605.15 2618.49 Q1605.15 2625.6 1606.95 2629.17 Q1608.78 2632.71 1612.39 2632.71 Q1616.03 2632.71 1617.83 2629.17 Q1619.66 2625.6 1619.66 2618.49 Q1619.66 2611.36 1617.83 2607.82 Q1616.03 2604.26 1612.39 2604.26 M1612.39 2600.55 Q1618.2 2600.55 1621.26 2605.16 Q1624.34 2609.74 1624.34 2618.49 Q1624.34 2627.22 1621.26 2631.83 Q1618.2 2636.41 1612.39 2636.41 Q1606.58 2636.41 1603.51 2631.83 Q1600.45 2627.22 1600.45 2618.49 Q1600.45 2609.74 1603.51 2605.16 Q1606.58 2600.55 1612.39 2600.55 Z" fill="#000000" fill-rule="nonzero" fill-opacity="1" /><path clip-path="url(#clip800)" d="M1642.56 2604.26 Q1638.95 2604.26 1637.12 2607.82 Q1635.31 2611.36 1635.31 2618.49 Q1635.31 2625.6 1637.12 2629.17 Q1638.95 2632.71 1642.56 2632.71 Q1646.19 2632.71 1648 2629.17 Q1649.83 2625.6 1649.83 2618.49 Q1649.83 2611.36 1648 2607.82 Q1646.19 2604.26 1642.56 2604.26 M1642.56 2600.55 Q1648.37 2600.55 1651.42 2605.16 Q1654.5 2609.74 1654.5 2618.49 Q1654.5 2627.22 1651.42 2631.83 Q1648.37 2636.41 1642.56 2636.41 Q1636.75 2636.41 1633.67 2631.83 Q1630.61 2627.22 1630.61 2618.49 Q1630.61 2609.74 1633.67 2605.16 Q1636.75 2600.55 1642.56 2600.55 Z" fill="#000000" fill-rule="nonzero" fill-opacity="1" /><path clip-path="url(#clip800)" d="M1672.72 2604.26 Q1669.11 2604.26 1667.28 2607.82 Q1665.47 2611.36 1665.47 2618.49 Q1665.47 2625.6 1667.28 2629.17 Q1669.11 2632.71 1672.72 2632.71 Q1676.35 2632.71 1678.16 2629.17 Q1679.99 2625.6 1679.99 2618.49 Q1679.99 2611.36 1678.16 2607.82 Q1676.35 2604.26 1672.72 2604.26 M1672.72 2600.55 Q1678.53 2600.55 1681.58 2605.16 Q1684.66 2609.74 1684.66 2618.49 Q1684.66 2627.22 1681.58 2631.83 Q1678.53 2636.41 1672.72 2636.41 Q1666.91 2636.41 1663.83 2631.83 Q1660.77 2627.22 1660.77 2618.49 Q1660.77 2609.74 1663.83 2605.16 Q1666.91 2600.55 1672.72 2600.55 Z" fill="#000000" fill-rule="nonzero" fill-opacity="1" /><path clip-path="url(#clip800)" d="M2237.85 2631.8 L2245.49 2631.8 L2245.49 2605.44 L2237.18 2607.11 L2237.18 2602.85 L2245.44 2601.18 L2250.12 2601.18 L2250.12 2631.8 L2257.76 2631.8 L2257.76 2635.74 L2237.85 2635.74 L2237.85 2631.8 Z" fill="#000000" fill-rule="nonzero" fill-opacity="1" /><path clip-path="url(#clip800)" d="M2267.25 2601.18 L2285.6 2601.18 L2285.6 2605.12 L2271.53 2605.12 L2271.53 2613.59 Q2272.55 2613.24 2273.57 2613.08 Q2274.58 2612.89 2275.6 2612.89 Q2281.39 2612.89 2284.77 2616.06 Q2288.15 2619.24 2288.15 2624.65 Q2288.15 2630.23 2284.68 2633.33 Q2281.2 2636.41 2274.88 2636.41 Q2272.71 2636.41 2270.44 2636.04 Q2268.2 2635.67 2265.79 2634.93 L2265.79 2630.23 Q2267.87 2631.36 2270.09 2631.92 Q2272.32 2632.48 2274.79 2632.48 Q2278.8 2632.48 2281.13 2630.37 Q2283.47 2628.26 2283.47 2624.65 Q2283.47 2621.04 2281.13 2618.93 Q2278.8 2616.83 2274.79 2616.83 Q2272.92 2616.83 2271.04 2617.24 Q2269.19 2617.66 2267.25 2618.54 L2267.25 2601.18 Z" fill="#000000" fill-rule="nonzero" fill-opacity="1" /><path clip-path="url(#clip800)" d="M2307.36 2604.26 Q2303.75 2604.26 2301.92 2607.82 Q2300.12 2611.36 2300.12 2618.49 Q2300.12 2625.6 2301.92 2629.17 Q2303.75 2632.71 2307.36 2632.71 Q2311 2632.71 2312.8 2629.17 Q2314.63 2625.6 2314.63 2618.49 Q2314.63 2611.36 2312.8 2607.82 Q2311 2604.26 2307.36 2604.26 M2307.36 2600.55 Q2313.17 2600.55 2316.23 2605.16 Q2319.31 2609.74 2319.31 2618.49 Q2319.31 2627.22 2316.23 2631.83 Q2313.17 2636.41 2307.36 2636.41 Q2301.55 2636.41 2298.47 2631.83 Q2295.42 2627.22 2295.42 2618.49 Q2295.42 2609.74 2298.47 2605.16 Q2301.55 2600.55 2307.36 2600.55 Z" fill="#000000" fill-rule="nonzero" fill-opacity="1" /><path clip-path="url(#clip800)" d="M2337.52 2604.26 Q2333.91 2604.26 2332.08 2607.82 Q2330.28 2611.36 2330.28 2618.49 Q2330.28 2625.6 2332.08 2629.17 Q2333.91 2632.71 2337.52 2632.71 Q2341.16 2632.71 2342.96 2629.17 Q2344.79 2625.6 2344.79 2618.49 Q2344.79 2611.36 2342.96 2607.82 Q2341.16 2604.26 2337.52 2604.26 M2337.52 2600.55 Q2343.33 2600.55 2346.39 2605.16 Q2349.47 2609.74 2349.47 2618.49 Q2349.47 2627.22 2346.39 2631.83 Q2343.33 2636.41 2337.52 2636.41 Q2331.71 2636.41 2328.63 2631.83 Q2325.58 2627.22 2325.58 2618.49 Q2325.58 2609.74 2328.63 2605.16 Q2331.71 2600.55 2337.52 2600.55 Z" fill="#000000" fill-rule="nonzero" fill-opacity="1" /><path clip-path="url(#clip800)" d="M1299.83 2671.48 L1305.69 2671.48 L1305.69 2721 L1299.83 2721 L1299.83 2671.48 Z" fill="#000000" fill-rule="nonzero" fill-opacity="1" /><polyline clip-path="url(#clip800)" style="stroke:#000000; stroke-linecap:round; stroke-linejoin:round; stroke-width:4; stroke-opacity:1; fill:none" points="252.77,2570.14 252.77,1855.89 "/>
<polyline clip-path="url(#clip800)" style="stroke:#000000; stroke-linecap:round; stroke-linejoin:round; stroke-width:4; stroke-opacity:1; fill:none" points="252.77,2476.96 271.667,2476.96 "/>
<polyline clip-path="url(#clip800)" style="stroke:#000000; stroke-linecap:round; stroke-linejoin:round; stroke-width:4; stroke-opacity:1; fill:none" points="252.77,2383.52 271.667,2383.52 "/>
<polyline clip-path="url(#clip800)" style="stroke:#000000; stroke-linecap:round; stroke-linejoin:round; stroke-width:4; stroke-opacity:1; fill:none" points="252.77,2290.07 271.667,2290.07 "/>
<polyline clip-path="url(#clip800)" style="stroke:#000000; stroke-linecap:round; stroke-linejoin:round; stroke-width:4; stroke-opacity:1; fill:none" points="252.77,2196.62 271.667,2196.62 "/>
<polyline clip-path="url(#clip800)" style="stroke:#000000; stroke-linecap:round; stroke-linejoin:round; stroke-width:4; stroke-opacity:1; fill:none" points="252.77,2103.18 271.667,2103.18 "/>
<polyline clip-path="url(#clip800)" style="stroke:#000000; stroke-linecap:round; stroke-linejoin:round; stroke-width:4; stroke-opacity:1; fill:none" points="252.77,2009.73 271.667,2009.73 "/>
<polyline clip-path="url(#clip800)" style="stroke:#000000; stroke-linecap:round; stroke-linejoin:round; stroke-width:4; stroke-opacity:1; fill:none" points="252.77,1916.28 271.667,1916.28 "/>
<path clip-path="url(#clip800)" d="M118.895 2477.41 L148.571 2477.41 L148.571 2481.35 L118.895 2481.35 L118.895 2477.41 Z" fill="#000000" fill-rule="nonzero" fill-opacity="1" /><path clip-path="url(#clip800)" d="M169.242 2475.1 Q166.094 2475.1 164.242 2477.25 Q162.414 2479.41 162.414 2483.15 Q162.414 2486.88 164.242 2489.06 Q166.094 2491.21 169.242 2491.21 Q172.39 2491.21 174.219 2489.06 Q176.071 2486.88 176.071 2483.15 Q176.071 2479.41 174.219 2477.25 Q172.39 2475.1 169.242 2475.1 M178.525 2460.45 L178.525 2464.71 Q176.765 2463.87 174.96 2463.43 Q173.177 2462.99 171.418 2462.99 Q166.788 2462.99 164.335 2466.12 Q161.904 2469.24 161.557 2475.56 Q162.923 2473.55 164.983 2472.48 Q167.043 2471.4 169.52 2471.4 Q174.728 2471.4 177.738 2474.57 Q180.77 2477.72 180.77 2483.15 Q180.77 2488.48 177.622 2491.7 Q174.474 2494.91 169.242 2494.91 Q163.247 2494.91 160.076 2490.33 Q156.904 2485.72 156.904 2477 Q156.904 2468.8 160.793 2463.94 Q164.682 2459.06 171.233 2459.06 Q172.992 2459.06 174.775 2459.41 Q176.58 2459.75 178.525 2460.45 Z" fill="#000000" fill-rule="nonzero" fill-opacity="1" /><path clip-path="url(#clip800)" d="M198.825 2462.76 Q195.214 2462.76 193.386 2466.33 Q191.58 2469.87 191.58 2477 Q191.58 2484.1 193.386 2487.67 Q195.214 2491.21 198.825 2491.21 Q202.46 2491.21 204.265 2487.67 Q206.094 2484.1 206.094 2477 Q206.094 2469.87 204.265 2466.33 Q202.46 2462.76 198.825 2462.76 M198.825 2459.06 Q204.636 2459.06 207.691 2463.66 Q210.77 2468.25 210.77 2477 Q210.77 2485.72 207.691 2490.33 Q204.636 2494.91 198.825 2494.91 Q193.015 2494.91 189.937 2490.33 Q186.881 2485.72 186.881 2477 Q186.881 2468.25 189.937 2463.66 Q193.015 2459.06 198.825 2459.06 Z" fill="#000000" fill-rule="nonzero" fill-opacity="1" /><path clip-path="url(#clip800)" d="M118.895 2383.97 L148.571 2383.97 L148.571 2387.9 L118.895 2387.9 L118.895 2383.97 Z" fill="#000000" fill-rule="nonzero" fill-opacity="1" /><path clip-path="url(#clip800)" d="M171.511 2370.31 L159.705 2388.76 L171.511 2388.76 L171.511 2370.31 M170.284 2366.24 L176.163 2366.24 L176.163 2388.76 L181.094 2388.76 L181.094 2392.65 L176.163 2392.65 L176.163 2400.8 L171.511 2400.8 L171.511 2392.65 L155.909 2392.65 L155.909 2388.13 L170.284 2366.24 Z" fill="#000000" fill-rule="nonzero" fill-opacity="1" /><path clip-path="url(#clip800)" d="M198.825 2369.31 Q195.214 2369.31 193.386 2372.88 Q191.58 2376.42 191.58 2383.55 Q191.58 2390.66 193.386 2394.22 Q195.214 2397.76 198.825 2397.76 Q202.46 2397.76 204.265 2394.22 Q206.094 2390.66 206.094 2383.55 Q206.094 2376.42 204.265 2372.88 Q202.46 2369.31 198.825 2369.31 M198.825 2365.61 Q204.636 2365.61 207.691 2370.22 Q210.77 2374.8 210.77 2383.55 Q210.77 2392.28 207.691 2396.88 Q204.636 2401.47 198.825 2401.47 Q193.015 2401.47 189.937 2396.88 Q186.881 2392.28 186.881 2383.55 Q186.881 2374.8 189.937 2370.22 Q193.015 2365.61 198.825 2365.61 Z" fill="#000000" fill-rule="nonzero" fill-opacity="1" /><path clip-path="url(#clip800)" d="M118.895 2290.52 L148.571 2290.52 L148.571 2294.46 L118.895 2294.46 L118.895 2290.52 Z" fill="#000000" fill-rule="nonzero" fill-opacity="1" /><path clip-path="url(#clip800)" d="M162.691 2303.41 L179.011 2303.41 L179.011 2307.35 L157.066 2307.35 L157.066 2303.41 Q159.728 2300.66 164.312 2296.03 Q168.918 2291.38 170.099 2290.03 Q172.344 2287.51 173.224 2285.78 Q174.126 2284.02 174.126 2282.33 Q174.126 2279.57 172.182 2277.84 Q170.261 2276.1 167.159 2276.1 Q164.96 2276.1 162.506 2276.86 Q160.076 2277.63 157.298 2279.18 L157.298 2274.46 Q160.122 2273.32 162.576 2272.74 Q165.029 2272.16 167.066 2272.16 Q172.437 2272.16 175.631 2274.85 Q178.825 2277.53 178.825 2282.03 Q178.825 2284.15 178.015 2286.08 Q177.228 2287.97 175.122 2290.57 Q174.543 2291.24 171.441 2294.46 Q168.339 2297.65 162.691 2303.41 Z" fill="#000000" fill-rule="nonzero" fill-opacity="1" /><path clip-path="url(#clip800)" d="M198.825 2275.87 Q195.214 2275.87 193.386 2279.43 Q191.58 2282.97 191.58 2290.1 Q191.58 2297.21 193.386 2300.77 Q195.214 2304.32 198.825 2304.32 Q202.46 2304.32 204.265 2300.77 Q206.094 2297.21 206.094 2290.1 Q206.094 2282.97 204.265 2279.43 Q202.46 2275.87 198.825 2275.87 M198.825 2272.16 Q204.636 2272.16 207.691 2276.77 Q210.77 2281.35 210.77 2290.1 Q210.77 2298.83 207.691 2303.44 Q204.636 2308.02 198.825 2308.02 Q193.015 2308.02 189.937 2303.44 Q186.881 2298.83 186.881 2290.1 Q186.881 2281.35 189.937 2276.77 Q193.015 2272.16 198.825 2272.16 Z" fill="#000000" fill-rule="nonzero" fill-opacity="1" /><path clip-path="url(#clip800)" d="M198.825 2182.42 Q195.214 2182.42 193.386 2185.99 Q191.58 2189.53 191.58 2196.66 Q191.58 2203.76 193.386 2207.33 Q195.214 2210.87 198.825 2210.87 Q202.46 2210.87 204.265 2207.33 Q206.094 2203.76 206.094 2196.66 Q206.094 2189.53 204.265 2185.99 Q202.46 2182.42 198.825 2182.42 M198.825 2178.72 Q204.636 2178.72 207.691 2183.32 Q210.77 2187.91 210.77 2196.66 Q210.77 2205.38 207.691 2209.99 Q204.636 2214.57 198.825 2214.57 Q193.015 2214.57 189.937 2209.99 Q186.881 2205.38 186.881 2196.66 Q186.881 2187.91 189.937 2183.32 Q193.015 2178.72 198.825 2178.72 Z" fill="#000000" fill-rule="nonzero" fill-opacity="1" /><path clip-path="url(#clip800)" d="M162.691 2116.52 L179.011 2116.52 L179.011 2120.46 L157.066 2120.46 L157.066 2116.52 Q159.728 2113.77 164.312 2109.14 Q168.918 2104.48 170.099 2103.14 Q172.344 2100.62 173.224 2098.88 Q174.126 2097.12 174.126 2095.43 Q174.126 2092.68 172.182 2090.94 Q170.261 2089.21 167.159 2089.21 Q164.96 2089.21 162.506 2089.97 Q160.076 2090.73 157.298 2092.28 L157.298 2087.56 Q160.122 2086.43 162.576 2085.85 Q165.029 2085.27 167.066 2085.27 Q172.437 2085.27 175.631 2087.96 Q178.825 2090.64 178.825 2095.13 Q178.825 2097.26 178.015 2099.18 Q177.228 2101.08 175.122 2103.67 Q174.543 2104.34 171.441 2107.56 Q168.339 2110.76 162.691 2116.52 Z" fill="#000000" fill-rule="nonzero" fill-opacity="1" /><path clip-path="url(#clip800)" d="M198.825 2088.97 Q195.214 2088.97 193.386 2092.54 Q191.58 2096.08 191.58 2103.21 Q191.58 2110.32 193.386 2113.88 Q195.214 2117.42 198.825 2117.42 Q202.46 2117.42 204.265 2113.88 Q206.094 2110.32 206.094 2103.21 Q206.094 2096.08 204.265 2092.54 Q202.46 2088.97 198.825 2088.97 M198.825 2085.27 Q204.636 2085.27 207.691 2089.88 Q210.77 2094.46 210.77 2103.21 Q210.77 2111.94 207.691 2116.54 Q204.636 2121.13 198.825 2121.13 Q193.015 2121.13 189.937 2116.54 Q186.881 2111.94 186.881 2103.21 Q186.881 2094.46 189.937 2089.88 Q193.015 2085.27 198.825 2085.27 Z" fill="#000000" fill-rule="nonzero" fill-opacity="1" /><path clip-path="url(#clip800)" d="M171.511 1996.52 L159.705 2014.97 L171.511 2014.97 L171.511 1996.52 M170.284 1992.45 L176.163 1992.45 L176.163 2014.97 L181.094 2014.97 L181.094 2018.86 L176.163 2018.86 L176.163 2027.01 L171.511 2027.01 L171.511 2018.86 L155.909 2018.86 L155.909 2014.35 L170.284 1992.45 Z" fill="#000000" fill-rule="nonzero" fill-opacity="1" /><path clip-path="url(#clip800)" d="M198.825 1995.53 Q195.214 1995.53 193.386 1999.09 Q191.58 2002.63 191.58 2009.76 Q191.58 2016.87 193.386 2020.43 Q195.214 2023.98 198.825 2023.98 Q202.46 2023.98 204.265 2020.43 Q206.094 2016.87 206.094 2009.76 Q206.094 2002.63 204.265 1999.09 Q202.46 1995.53 198.825 1995.53 M198.825 1991.82 Q204.636 1991.82 207.691 1996.43 Q210.77 2001.01 210.77 2009.76 Q210.77 2018.49 207.691 2023.1 Q204.636 2027.68 198.825 2027.68 Q193.015 2027.68 189.937 2023.1 Q186.881 2018.49 186.881 2009.76 Q186.881 2001.01 189.937 1996.43 Q193.015 1991.82 198.825 1991.82 Z" fill="#000000" fill-rule="nonzero" fill-opacity="1" /><path clip-path="url(#clip800)" d="M169.242 1914.42 Q166.094 1914.42 164.242 1916.57 Q162.414 1918.72 162.414 1922.47 Q162.414 1926.2 164.242 1928.38 Q166.094 1930.53 169.242 1930.53 Q172.39 1930.53 174.219 1928.38 Q176.071 1926.2 176.071 1922.47 Q176.071 1918.72 174.219 1916.57 Q172.39 1914.42 169.242 1914.42 M178.525 1899.77 L178.525 1904.02 Q176.765 1903.19 174.96 1902.75 Q173.177 1902.31 171.418 1902.31 Q166.788 1902.31 164.335 1905.44 Q161.904 1908.56 161.557 1914.88 Q162.923 1912.87 164.983 1911.8 Q167.043 1910.71 169.52 1910.71 Q174.728 1910.71 177.738 1913.89 Q180.77 1917.03 180.77 1922.47 Q180.77 1927.8 177.622 1931.01 Q174.474 1934.23 169.242 1934.23 Q163.247 1934.23 160.076 1929.65 Q156.904 1925.04 156.904 1916.32 Q156.904 1908.12 160.793 1903.26 Q164.682 1898.38 171.233 1898.38 Q172.992 1898.38 174.775 1898.72 Q176.58 1899.07 178.525 1899.77 Z" fill="#000000" fill-rule="nonzero" fill-opacity="1" /><path clip-path="url(#clip800)" d="M198.825 1902.08 Q195.214 1902.08 193.386 1905.64 Q191.58 1909.19 191.58 1916.32 Q191.58 1923.42 193.386 1926.99 Q195.214 1930.53 198.825 1930.53 Q202.46 1930.53 204.265 1926.99 Q206.094 1923.42 206.094 1916.32 Q206.094 1909.19 204.265 1905.64 Q202.46 1902.08 198.825 1902.08 M198.825 1898.38 Q204.636 1898.38 207.691 1902.98 Q210.77 1907.57 210.77 1916.32 Q210.77 1925.04 207.691 1929.65 Q204.636 1934.23 198.825 1934.23 Q193.015 1934.23 189.937 1929.65 Q186.881 1925.04 186.881 1916.32 Q186.881 1907.57 189.937 1902.98 Q193.015 1898.38 198.825 1898.38 Z" fill="#000000" fill-rule="nonzero" fill-opacity="1" /><path clip-path="url(#clip800)" d="M20.4028 2373.86 L57.3557 2373.86 L57.3557 2366.1 Q57.3557 2356.26 52.8997 2351.71 Q48.4437 2347.13 38.8315 2347.13 Q29.2829 2347.13 24.8588 2351.71 Q20.4028 2356.26 20.4028 2366.1 L20.4028 2373.86 M15.1192 2380.29 L15.1192 2367.08 Q15.1192 2353.27 20.8802 2346.81 Q26.6093 2340.35 38.8315 2340.35 Q51.1173 2340.35 56.8783 2346.84 Q62.6392 2353.33 62.6392 2367.08 L62.6392 2380.29 L15.1192 2380.29 Z" fill="#000000" fill-rule="nonzero" fill-opacity="1" /><path clip-path="url(#clip800)" d="M34.9166 2332.61 L34.9166 2328.92 L62.6392 2328.92 L62.6392 2332.61 L34.9166 2332.61 Z" fill="#000000" fill-rule="nonzero" fill-opacity="1" /><path clip-path="url(#clip800)" d="M14.7691 2325.8 L14.7691 2300.46 L17.7928 2300.46 L17.7928 2311.1 L41.3778 2311.1 L41.3778 2315.17 L17.7928 2315.17 L17.7928 2325.8 L14.7691 2325.8 Z" fill="#000000" fill-rule="nonzero" fill-opacity="1" /><path clip-path="url(#clip800)" d="M14.7691 2296.55 L14.7691 2277.64 L17.7928 2277.64 L17.7928 2292.51 L25.6863 2292.51 L25.6863 2278.25 L28.71 2278.25 L28.71 2292.51 L38.3541 2292.51 L38.3541 2277.26 L41.3778 2277.26 L41.3778 2296.55 L14.7691 2296.55 Z" fill="#000000" fill-rule="nonzero" fill-opacity="1" /><path clip-path="url(#clip800)" d="M15.1192 2237.38 L15.1192 2231.97 L68.6866 2248.52 L68.6866 2253.93 L15.1192 2237.38 Z" fill="#000000" fill-rule="nonzero" fill-opacity="1" /><path clip-path="url(#clip800)" d="M57.2284 2203.17 L57.2284 2192.66 L20.9757 2192.66 L23.2673 2204.09 L17.4109 2204.09 L15.1192 2192.73 L15.1192 2186.3 L57.2284 2186.3 L57.2284 2175.79 L62.6392 2175.79 L62.6392 2203.17 L57.2284 2203.17 Z" fill="#000000" fill-rule="nonzero" fill-opacity="1" /><path clip-path="url(#clip800)" d="M19.3524 2149.06 Q19.3524 2154.02 24.254 2156.54 Q29.1238 2159.02 38.927 2159.02 Q48.6983 2159.02 53.5999 2156.54 Q58.4697 2154.02 58.4697 2149.06 Q58.4697 2144.06 53.5999 2141.58 Q48.6983 2139.06 38.927 2139.06 Q29.1238 2139.06 24.254 2141.58 Q19.3524 2144.06 19.3524 2149.06 M14.2599 2149.06 Q14.2599 2141.07 20.5937 2136.87 Q26.8958 2132.63 38.927 2132.63 Q50.9263 2132.63 57.2602 2136.87 Q63.5623 2141.07 63.5623 2149.06 Q63.5623 2157.05 57.2602 2161.28 Q50.9263 2165.48 38.927 2165.48 Q26.8958 2165.48 20.5937 2161.28 Q14.2599 2157.05 14.2599 2149.06 Z" fill="#000000" fill-rule="nonzero" fill-opacity="1" /><path clip-path="url(#clip800)" d="M28.4236 2123.94 L28.4236 2098.26 L31.4473 2098.26 L31.4473 2123.94 L28.4236 2123.94 Z" fill="#000000" fill-rule="nonzero" fill-opacity="1" /><path clip-path="url(#clip800)" d="M37.8766 2088.93 L37.8766 2082.44 L18.4294 2082.44 L19.7344 2089.54 L16.0423 2089.54 L14.8009 2082.22 L14.8009 2077.86 L37.8766 2077.86 L37.8766 2071.33 L41.3778 2071.33 L41.3778 2088.93 L37.8766 2088.93 Z" fill="#000000" fill-rule="nonzero" fill-opacity="1" /><path clip-path="url(#clip800)" d="M37.7493 2059.24 L37.7493 2045.74 L41.3778 2045.74 L41.3778 2064.77 L37.8766 2064.77 Q36.8899 2063.69 35.1075 2061.69 Q25.3998 2050.74 22.408 2050.74 Q20.3073 2050.74 19.0341 2052.39 Q17.7292 2054.05 17.7292 2056.75 Q17.7292 2058.41 18.3021 2060.35 Q18.8432 2062.29 19.9572 2064.58 L16.0423 2064.58 Q15.1511 2062.13 14.7055 2060.03 Q14.2599 2057.9 14.2599 2056.09 Q14.2599 2051.47 16.3605 2048.7 Q18.4612 2045.93 21.8987 2045.93 Q26.3229 2045.93 35.3622 2056.47 Q36.8899 2058.25 37.7493 2059.24 Z" fill="#000000" fill-rule="nonzero" fill-opacity="1" /><polyline clip-path="url(#clip804)" style="stroke:#009af9; stroke-linecap:round; stroke-linejoin:round; stroke-width:4; stroke-opacity:1; fill:none" points="312.203,2194.88 318.851,2194.38 325.499,2193.28 332.147,2192.44 338.796,2191.99 345.444,2191.95 352.092,2192.4 358.74,2193.51 365.388,2195.48 372.036,2198.16 378.684,2201.52 385.332,2205.88 391.98,2210.99 398.628,2216.66 405.276,2223.17 411.924,2230.3 418.572,2237.77 425.22,2245.66 431.868,2253.87 438.516,2262.1 445.164,2270.18 451.812,2278.14 458.46,2285.75 465.108,2292.64 471.757,2298.85 478.405,2304.37 485.053,2308.64 491.701,2311.7 498.349,2313.74 504.997,2314.2 511.645,2312.98 518.293,2310.5 524.941,2306.32 531.589,2300.12 538.237,2292.55 544.885,2283.4 551.533,2272.13 558.181,2259.5 564.829,2245.61 571.477,2229.76 578.125,2212.73 584.773,2194.89 591.421,2175.53 598.069,2155.31 604.718,2134.86 611.366,2113.51 618.014,2091.78 624.662,2070.42 631.31,2048.92 637.958,2027.62 644.606,2007.28 651.254,1987.58 657.902,1968.75 664.55,1951.36 671.198,1935.34 677.846,1920.86 684.494,1908.17 691.142,1897.44 697.79,1888.8 704.438,1882.22 711.086,1877.9 717.734,1876.11 724.382,1876.46 731.03,1879.16 737.679,1884.56 744.327,1892.06 750.975,1901.74 757.623,1914 764.271,1928.17 770.919,1944.12 777.567,1962.26 784.215,1981.99 790.863,2002.92 797.511,2025.42 804.159,2049.05 810.807,2073.24 817.455,2098.17 824.103,2123.67 830.751,2149.04 837.399,2174.29 844.047,2199.45 850.695,2223.87 857.343,2247.3 863.991,2269.97 870.64,2291.37 877.288,2311.09 883.936,2329.38 890.584,2346.02 897.232,2360.49 903.88,2372.99 910.528,2383.59 917.176,2391.82 923.824,2397.71 930.472,2401.61 937.12,2403.21 943.768,2402.33 950.416,2399.55 957.064,2394.78 963.712,2387.66 970.36,2378.87 977.008,2368.6 983.656,2356.37 990.304,2342.88 996.953,2328.49 1003.6,2312.78 1010.25,2296.32 1016.9,2279.6 1023.54,2262.33 1030.19,2244.93 1036.84,2227.88 1043.49,2211.09 1050.14,2194.84 1056.78,2179.47 1063.43,2165.14 1070.08,2151.97 1076.73,2140.12 1083.38,2129.92 1090.03,2121.44 1096.67,2114.59 1103.32,2109.77 1109.97,2107.08 1116.62,2106.2 1123.27,2107.48 1129.91,2111.08 1136.56,2116.52 1143.21,2124 1149.86,2133.74 1156.51,2145.22 1163.15,2158.39 1169.8,2173.51 1176.45,2190.13 1183.1,2207.93 1189.75,2227.12 1196.39,2247.46 1203.04,2268.34 1209.69,2289.93 1216.34,2312.15 1222.99,2334.29 1229.63,2356.33 1236.28,2378.43 1242.93,2399.85 1249.58,2420.36 1256.23,2440.29 1262.87,2459.03 1269.52,2476.18 1276.17,2492.1 1282.82,2506.45 1289.47,2518.69 1296.11,2529.12 1302.76,2537.73 1309.41,2543.93 1316.06,2547.89 1322.71,2549.93 1329.36,2549.5 1336,2546.59 1342.65,2541.79 1349.3,2534.71 1355.95,2525.14 1362.6,2513.84 1369.24,2500.64 1375.89,2485.19 1382.54,2468.31 1389.19,2450.05 1395.84,2430 1402.48,2408.92 1409.13,2387.04 1415.78,2364.03 1422.43,2340.48 1429.08,2316.73 1435.72,2292.62 1442.37,2268.5 1449.02,2244.77 1455.67,2221.44 1462.32,2198.69 1468.96,2176.8 1475.61,2156.04 1482.26,2136.41 1488.91,2118.04 1495.56,2101.35 1502.2,2086.28 1508.85,2072.76 1515.5,2061.28 1522.15,2051.78 1528.8,2044.01 1535.44,2038.4 1542.09,2034.98 1548.74,2033.36 1555.39,2033.8 1562.04,2036.43 1568.68,2040.84 1575.33,2046.99 1581.98,2055.17 1588.63,2064.96 1595.28,2076.07 1601.93,2088.82 1608.57,2102.93 1615.22,2117.86 1621.87,2133.91 1628.52,2150.94 1635.17,2168.29 1641.81,2186.16 1648.46,2204.54 1655.11,2222.78 1661.76,2240.9 1668.41,2259.02 1675.05,2276.6 1681.7,2293.49 1688.35,2309.84 1695,2325.35 1701.65,2339.69 1708.29,2353.01 1714.94,2365.26 1721.59,2376.03 1728.24,2385.4 1734.89,2393.56 1741.53,2400.09 1748.18,2404.96 1754.83,2408.58 1761.48,2410.59 1768.13,2410.86 1774.77,2409.9 1781.42,2407.5 1788.07,2403.46 1794.72,2398.3 1801.37,2391.97 1808.01,2384.27 1814.66,2375.63 1821.31,2366.17 1827.96,2355.72 1834.61,2344.59 1841.25,2333.01 1847.9,2320.91 1854.55,2308.46 1861.2,2295.93 1867.85,2283.37 1874.5,2270.82 1881.14,2258.52 1887.79,2246.65 1894.44,2235.14 1901.09,2224.18 1907.74,2214.01 1914.38,2204.55 1921.03,2195.86 1927.68,2188.2 1934.33,2181.54 1940.98,2175.83 1947.62,2171.25 1954.27,2167.86 1960.92,2165.49 1967.57,2164.25 1974.22,2164.26 1980.86,2165.33 1987.51,2167.39 1994.16,2170.65 2000.81,2174.9 2007.46,2179.93 2014.1,2185.98 2020.75,2192.9 2027.4,2200.34 2034.05,2208.52 2040.7,2217.36 2047.34,2226.45 2053.99,2235.94 2060.64,2245.82 2067.29,2255.69 2073.94,2265.59 2080.58,2275.57 2087.23,2285.33 2093.88,2294.75 2100.53,2303.93 2107.18,2312.7 2113.82,2320.83 2120.47,2328.42 2127.12,2335.46 2133.77,2341.63 2140.42,2347 2147.07,2351.72 2153.71,2355.46 2160.36,2358.21 2167.01,2360.27 2173.66,2361.33 2180.31,2361.32 2186.95,2360.6 2193.6,2358.94 2200.25,2356.25 2206.9,2352.86 2213.55,2348.7 2220.19,2343.62 2226.84,2337.91 2233.49,2331.62 2240.14,2324.64 2246.79,2317.14 2253.43,2309.28 2260.08,2301 2266.73,2292.36 2273.38,2283.59 2280.03,2274.69 2286.67,2265.64 2293.32,2256.67 "/>
</svg>
