<?xml version="1.0" encoding="utf-8"?>
<svg xmlns="http://www.w3.org/2000/svg" xmlns:xlink="http://www.w3.org/1999/xlink" width="800" height="400" viewBox="0 0 3200 1600">
<defs>
  <clipPath id="clip210">
    <rect x="0" y="0" width="3200" height="1600"/>
  </clipPath>
</defs>
<path clip-path="url(#clip210)" d="M0 1600 L3200 1600 L3200 0 L0 0  Z" fill="#ffffff" fill-rule="evenodd" fill-opacity="1"/>
<defs>
  <clipPath id="clip211">
    <rect x="365" y="47" width="2789" height="1449"/>
  </clipPath>
</defs>
<path clip-path="url(#clip210)" d="M365.106 1495.09 L3152.76 1495.09 L3152.76 47.2441 L365.106 47.2441  Z" fill="#ffffff" fill-rule="evenodd" fill-opacity="1"/>
<polyline clip-path="url(#clip211)" style="stroke:#000000; stroke-linecap:round; stroke-linejoin:round; stroke-width:2; stroke-opacity:0.1; fill:none" points="922.158,1495.09 922.158,47.2441 "/>
<polyline clip-path="url(#clip211)" style="stroke:#000000; stroke-linecap:round; stroke-linejoin:round; stroke-width:2; stroke-opacity:0.1; fill:none" points="2595.7,1495.09 2595.7,47.2441 "/>
<polyline clip-path="url(#clip211)" style="stroke:#000000; stroke-linecap:round; stroke-linejoin:round; stroke-width:2; stroke-opacity:0.1; fill:none" points="365.106,1338.95 3152.76,1338.95 "/>
<polyline clip-path="url(#clip211)" style="stroke:#000000; stroke-linecap:round; stroke-linejoin:round; stroke-width:2; stroke-opacity:0.1; fill:none" points="365.106,1128.2 3152.76,1128.2 "/>
<polyline clip-path="url(#clip211)" style="stroke:#000000; stroke-linecap:round; stroke-linejoin:round; stroke-width:2; stroke-opacity:0.1; fill:none" points="365.106,917.444 3152.76,917.444 "/>
<polyline clip-path="url(#clip211)" style="stroke:#000000; stroke-linecap:round; stroke-linejoin:round; stroke-width:2; stroke-opacity:0.1; fill:none" points="365.106,706.689 3152.76,706.689 "/>
<polyline clip-path="url(#clip211)" style="stroke:#000000; stroke-linecap:round; stroke-linejoin:round; stroke-width:2; stroke-opacity:0.1; fill:none" points="365.106,495.934 3152.76,495.934 "/>
<polyline clip-path="url(#clip211)" style="stroke:#000000; stroke-linecap:round; stroke-linejoin:round; stroke-width:2; stroke-opacity:0.1; fill:none" points="365.106,285.178 3152.76,285.178 "/>
<polyline clip-path="url(#clip211)" style="stroke:#000000; stroke-linecap:round; stroke-linejoin:round; stroke-width:2; stroke-opacity:0.1; fill:none" points="365.106,74.423 3152.76,74.423 "/>
<polyline clip-path="url(#clip210)" style="stroke:#000000; stroke-linecap:round; stroke-linejoin:round; stroke-width:4; stroke-opacity:1; fill:none" points="365.106,1495.09 3152.76,1495.09 "/>
<polyline clip-path="url(#clip210)" style="stroke:#000000; stroke-linecap:round; stroke-linejoin:round; stroke-width:4; stroke-opacity:1; fill:none" points="922.158,1495.09 922.158,1476.19 "/>
<polyline clip-path="url(#clip210)" style="stroke:#000000; stroke-linecap:round; stroke-linejoin:round; stroke-width:4; stroke-opacity:1; fill:none" points="2595.7,1495.09 2595.7,1476.19 "/>
<path clip-path="url(#clip210)" d="M827.413 1533.4 L815.607 1551.85 L827.413 1551.85 L827.413 1533.4 M826.186 1529.33 L832.066 1529.33 L832.066 1551.85 L836.996 1551.85 L836.996 1555.74 L832.066 1555.74 L832.066 1563.89 L827.413 1563.89 L827.413 1555.74 L811.811 1555.74 L811.811 1551.23 L826.186 1529.33 Z" fill="#000000" fill-rule="nonzero" fill-opacity="1" /><path clip-path="url(#clip210)" d="M863.408 1530.6 L863.408 1537.96 L872.181 1537.96 L872.181 1541.27 L863.408 1541.27 L863.408 1555.35 Q863.408 1558.52 864.264 1559.42 Q865.144 1560.32 867.806 1560.32 L872.181 1560.32 L872.181 1563.89 L867.806 1563.89 Q862.876 1563.89 861.001 1562.06 Q859.126 1560.21 859.126 1555.35 L859.126 1541.27 L856.001 1541.27 L856.001 1537.96 L859.126 1537.96 L859.126 1530.6 L863.408 1530.6 Z" fill="#000000" fill-rule="nonzero" fill-opacity="1" /><path clip-path="url(#clip210)" d="M899.334 1548.24 L899.334 1563.89 L895.075 1563.89 L895.075 1548.38 Q895.075 1544.7 893.639 1542.87 Q892.204 1541.04 889.334 1541.04 Q885.885 1541.04 883.894 1543.24 Q881.903 1545.44 881.903 1549.24 L881.903 1563.89 L877.621 1563.89 L877.621 1527.87 L881.903 1527.87 L881.903 1541.99 Q883.431 1539.65 885.491 1538.49 Q887.575 1537.34 890.283 1537.34 Q894.75 1537.34 897.042 1540.11 Q899.334 1542.87 899.334 1548.24 Z" fill="#000000" fill-rule="nonzero" fill-opacity="1" /><path clip-path="url(#clip210)" d="M922.852 1541.94 Q922.135 1541.53 921.278 1541.34 Q920.445 1541.13 919.426 1541.13 Q915.815 1541.13 913.871 1543.49 Q911.949 1545.83 911.949 1550.23 L911.949 1563.89 L907.667 1563.89 L907.667 1537.96 L911.949 1537.96 L911.949 1541.99 Q913.292 1539.63 915.445 1538.49 Q917.598 1537.34 920.676 1537.34 Q921.116 1537.34 921.648 1537.41 Q922.181 1537.45 922.829 1537.57 L922.852 1541.94 Z" fill="#000000" fill-rule="nonzero" fill-opacity="1" /><path clip-path="url(#clip210)" d="M948.454 1549.86 L948.454 1551.94 L928.871 1551.94 Q929.148 1556.34 931.509 1558.66 Q933.894 1560.95 938.13 1560.95 Q940.584 1560.95 942.875 1560.35 Q945.19 1559.74 947.458 1558.54 L947.458 1562.57 Q945.167 1563.54 942.759 1564.05 Q940.352 1564.56 937.875 1564.56 Q931.672 1564.56 928.037 1560.95 Q924.426 1557.34 924.426 1551.18 Q924.426 1544.81 927.852 1541.09 Q931.301 1537.34 937.134 1537.34 Q942.366 1537.34 945.398 1540.72 Q948.454 1544.07 948.454 1549.86 M944.195 1548.61 Q944.148 1545.11 942.227 1543.03 Q940.329 1540.95 937.181 1540.95 Q933.616 1540.95 931.463 1542.96 Q929.334 1544.98 929.01 1548.63 L944.195 1548.61 Z" fill="#000000" fill-rule="nonzero" fill-opacity="1" /><path clip-path="url(#clip210)" d="M967.227 1550.86 Q962.065 1550.86 960.074 1552.04 Q958.083 1553.22 958.083 1556.06 Q958.083 1558.33 959.565 1559.67 Q961.07 1560.99 963.639 1560.99 Q967.181 1560.99 969.31 1558.49 Q971.463 1555.97 971.463 1551.8 L971.463 1550.86 L967.227 1550.86 M975.722 1549.1 L975.722 1563.89 L971.463 1563.89 L971.463 1559.95 Q970.005 1562.31 967.829 1563.45 Q965.653 1564.56 962.505 1564.56 Q958.523 1564.56 956.162 1562.34 Q953.824 1560.09 953.824 1556.34 Q953.824 1551.97 956.741 1549.74 Q959.681 1547.52 965.491 1547.52 L971.463 1547.52 L971.463 1547.11 Q971.463 1544.17 969.519 1542.57 Q967.597 1540.95 964.102 1540.95 Q961.88 1540.95 959.773 1541.48 Q957.667 1542.01 955.722 1543.08 L955.722 1539.14 Q958.06 1538.24 960.259 1537.8 Q962.458 1537.34 964.542 1537.34 Q970.167 1537.34 972.944 1540.25 Q975.722 1543.17 975.722 1549.1 Z" fill="#000000" fill-rule="nonzero" fill-opacity="1" /><path clip-path="url(#clip210)" d="M1001.56 1541.9 L1001.56 1527.87 L1005.81 1527.87 L1005.81 1563.89 L1001.56 1563.89 L1001.56 1560 Q1000.21 1562.31 998.153 1563.45 Q996.116 1564.56 993.245 1564.56 Q988.546 1564.56 985.583 1560.81 Q982.643 1557.06 982.643 1550.95 Q982.643 1544.84 985.583 1541.09 Q988.546 1537.34 993.245 1537.34 Q996.116 1537.34 998.153 1538.47 Q1000.21 1539.58 1001.56 1541.9 M987.042 1550.95 Q987.042 1555.65 988.963 1558.33 Q990.907 1560.99 994.287 1560.99 Q997.667 1560.99 999.611 1558.33 Q1001.56 1555.65 1001.56 1550.95 Q1001.56 1546.25 999.611 1543.59 Q997.667 1540.9 994.287 1540.9 Q990.907 1540.9 988.963 1543.59 Q987.042 1546.25 987.042 1550.95 Z" fill="#000000" fill-rule="nonzero" fill-opacity="1" /><path clip-path="url(#clip210)" d="M1031.12 1538.73 L1031.12 1542.75 Q1029.31 1541.83 1027.37 1541.36 Q1025.42 1540.9 1023.34 1540.9 Q1020.17 1540.9 1018.57 1541.87 Q1017 1542.85 1017 1544.79 Q1017 1546.27 1018.13 1547.13 Q1019.26 1547.96 1022.69 1548.73 L1024.15 1549.05 Q1028.68 1550.02 1030.58 1551.8 Q1032.5 1553.56 1032.5 1556.74 Q1032.5 1560.35 1029.63 1562.45 Q1026.79 1564.56 1021.79 1564.56 Q1019.7 1564.56 1017.43 1564.14 Q1015.19 1563.75 1012.69 1562.94 L1012.69 1558.54 Q1015.05 1559.77 1017.34 1560.39 Q1019.63 1560.99 1021.88 1560.99 Q1024.89 1560.99 1026.51 1559.98 Q1028.13 1558.93 1028.13 1557.06 Q1028.13 1555.32 1026.95 1554.4 Q1025.79 1553.47 1021.83 1552.61 L1020.35 1552.27 Q1016.39 1551.43 1014.63 1549.72 Q1012.87 1547.99 1012.87 1544.98 Q1012.87 1541.32 1015.47 1539.33 Q1018.06 1537.34 1022.83 1537.34 Q1025.19 1537.34 1027.27 1537.68 Q1029.36 1538.03 1031.12 1538.73 Z" fill="#000000" fill-rule="nonzero" fill-opacity="1" /><path clip-path="url(#clip210)" d="M2500.82 1559.95 L2508.46 1559.95 L2508.46 1533.59 L2500.15 1535.25 L2500.15 1530.99 L2508.41 1529.33 L2513.09 1529.33 L2513.09 1559.95 L2520.73 1559.95 L2520.73 1563.89 L2500.82 1563.89 L2500.82 1559.95 Z" fill="#000000" fill-rule="nonzero" fill-opacity="1" /><path clip-path="url(#clip210)" d="M2548.85 1530.6 L2548.85 1537.96 L2557.63 1537.96 L2557.63 1541.27 L2548.85 1541.27 L2548.85 1555.35 Q2548.85 1558.52 2549.71 1559.42 Q2550.59 1560.32 2553.25 1560.32 L2557.63 1560.32 L2557.63 1563.89 L2553.25 1563.89 Q2548.32 1563.89 2546.45 1562.06 Q2544.57 1560.21 2544.57 1555.35 L2544.57 1541.27 L2541.45 1541.27 L2541.45 1537.96 L2544.57 1537.96 L2544.57 1530.6 L2548.85 1530.6 Z" fill="#000000" fill-rule="nonzero" fill-opacity="1" /><path clip-path="url(#clip210)" d="M2584.78 1548.24 L2584.78 1563.89 L2580.52 1563.89 L2580.52 1548.38 Q2580.52 1544.7 2579.08 1542.87 Q2577.65 1541.04 2574.78 1541.04 Q2571.33 1541.04 2569.34 1543.24 Q2567.35 1545.44 2567.35 1549.24 L2567.35 1563.89 L2563.07 1563.89 L2563.07 1527.87 L2567.35 1527.87 L2567.35 1541.99 Q2568.88 1539.65 2570.94 1538.49 Q2573.02 1537.34 2575.73 1537.34 Q2580.19 1537.34 2582.49 1540.11 Q2584.78 1542.87 2584.78 1548.24 Z" fill="#000000" fill-rule="nonzero" fill-opacity="1" /><path clip-path="url(#clip210)" d="M2608.3 1541.94 Q2607.58 1541.53 2606.72 1541.34 Q2605.89 1541.13 2604.87 1541.13 Q2601.26 1541.13 2599.32 1543.49 Q2597.39 1545.83 2597.39 1550.23 L2597.39 1563.89 L2593.11 1563.89 L2593.11 1537.96 L2597.39 1537.96 L2597.39 1541.99 Q2598.74 1539.63 2600.89 1538.49 Q2603.04 1537.34 2606.12 1537.34 Q2606.56 1537.34 2607.09 1537.41 Q2607.63 1537.45 2608.27 1537.57 L2608.3 1541.94 Z" fill="#000000" fill-rule="nonzero" fill-opacity="1" /><path clip-path="url(#clip210)" d="M2633.9 1549.86 L2633.9 1551.94 L2614.32 1551.94 Q2614.59 1556.34 2616.95 1558.66 Q2619.34 1560.95 2623.57 1560.95 Q2626.03 1560.95 2628.32 1560.35 Q2630.63 1559.74 2632.9 1558.54 L2632.9 1562.57 Q2630.61 1563.54 2628.2 1564.05 Q2625.8 1564.56 2623.32 1564.56 Q2617.12 1564.56 2613.48 1560.95 Q2609.87 1557.34 2609.87 1551.18 Q2609.87 1544.81 2613.3 1541.09 Q2616.75 1537.34 2622.58 1537.34 Q2627.81 1537.34 2630.84 1540.72 Q2633.9 1544.07 2633.9 1549.86 M2629.64 1548.61 Q2629.59 1545.11 2627.67 1543.03 Q2625.77 1540.95 2622.63 1540.95 Q2619.06 1540.95 2616.91 1542.96 Q2614.78 1544.98 2614.45 1548.63 L2629.64 1548.61 Z" fill="#000000" fill-rule="nonzero" fill-opacity="1" /><path clip-path="url(#clip210)" d="M2652.67 1550.86 Q2647.51 1550.86 2645.52 1552.04 Q2643.53 1553.22 2643.53 1556.06 Q2643.53 1558.33 2645.01 1559.67 Q2646.51 1560.99 2649.08 1560.99 Q2652.63 1560.99 2654.75 1558.49 Q2656.91 1555.97 2656.91 1551.8 L2656.91 1550.86 L2652.67 1550.86 M2661.17 1549.1 L2661.17 1563.89 L2656.91 1563.89 L2656.91 1559.95 Q2655.45 1562.31 2653.27 1563.45 Q2651.1 1564.56 2647.95 1564.56 Q2643.97 1564.56 2641.61 1562.34 Q2639.27 1560.09 2639.27 1556.34 Q2639.27 1551.97 2642.19 1549.74 Q2645.13 1547.52 2650.94 1547.52 L2656.91 1547.52 L2656.91 1547.11 Q2656.91 1544.17 2654.96 1542.57 Q2653.04 1540.95 2649.55 1540.95 Q2647.32 1540.95 2645.22 1541.48 Q2643.11 1542.01 2641.17 1543.08 L2641.17 1539.14 Q2643.5 1538.24 2645.7 1537.8 Q2647.9 1537.34 2649.99 1537.34 Q2655.61 1537.34 2658.39 1540.25 Q2661.17 1543.17 2661.17 1549.1 Z" fill="#000000" fill-rule="nonzero" fill-opacity="1" /><path clip-path="url(#clip210)" d="M2687 1541.9 L2687 1527.87 L2691.26 1527.87 L2691.26 1563.89 L2687 1563.89 L2687 1560 Q2685.66 1562.31 2683.6 1563.45 Q2681.56 1564.56 2678.69 1564.56 Q2673.99 1564.56 2671.03 1560.81 Q2668.09 1557.06 2668.09 1550.95 Q2668.09 1544.84 2671.03 1541.09 Q2673.99 1537.34 2678.69 1537.34 Q2681.56 1537.34 2683.6 1538.47 Q2685.66 1539.58 2687 1541.9 M2672.49 1550.95 Q2672.49 1555.65 2674.41 1558.33 Q2676.35 1560.99 2679.73 1560.99 Q2683.11 1560.99 2685.06 1558.33 Q2687 1555.65 2687 1550.95 Q2687 1546.25 2685.06 1543.59 Q2683.11 1540.9 2679.73 1540.9 Q2676.35 1540.9 2674.41 1543.59 Q2672.49 1546.25 2672.49 1550.95 Z" fill="#000000" fill-rule="nonzero" fill-opacity="1" /><polyline clip-path="url(#clip210)" style="stroke:#000000; stroke-linecap:round; stroke-linejoin:round; stroke-width:4; stroke-opacity:1; fill:none" points="365.106,1495.09 365.106,47.2441 "/>
<polyline clip-path="url(#clip210)" style="stroke:#000000; stroke-linecap:round; stroke-linejoin:round; stroke-width:4; stroke-opacity:1; fill:none" points="365.106,1338.95 384.003,1338.95 "/>
<polyline clip-path="url(#clip210)" style="stroke:#000000; stroke-linecap:round; stroke-linejoin:round; stroke-width:4; stroke-opacity:1; fill:none" points="365.106,1128.2 384.003,1128.2 "/>
<polyline clip-path="url(#clip210)" style="stroke:#000000; stroke-linecap:round; stroke-linejoin:round; stroke-width:4; stroke-opacity:1; fill:none" points="365.106,917.444 384.003,917.444 "/>
<polyline clip-path="url(#clip210)" style="stroke:#000000; stroke-linecap:round; stroke-linejoin:round; stroke-width:4; stroke-opacity:1; fill:none" points="365.106,706.689 384.003,706.689 "/>
<polyline clip-path="url(#clip210)" style="stroke:#000000; stroke-linecap:round; stroke-linejoin:round; stroke-width:4; stroke-opacity:1; fill:none" points="365.106,495.934 384.003,495.934 "/>
<polyline clip-path="url(#clip210)" style="stroke:#000000; stroke-linecap:round; stroke-linejoin:round; stroke-width:4; stroke-opacity:1; fill:none" points="365.106,285.178 384.003,285.178 "/>
<polyline clip-path="url(#clip210)" style="stroke:#000000; stroke-linecap:round; stroke-linejoin:round; stroke-width:4; stroke-opacity:1; fill:none" points="365.106,74.423 384.003,74.423 "/>
<path clip-path="url(#clip210)" d="M100.51 1328.12 L118.866 1328.12 L118.866 1332.06 L104.792 1332.06 L104.792 1340.53 Q105.811 1340.18 106.829 1340.02 Q107.848 1339.84 108.866 1339.84 Q114.653 1339.84 118.033 1343.01 Q121.412 1346.18 121.412 1351.59 Q121.412 1357.17 117.94 1360.28 Q114.468 1363.35 108.149 1363.35 Q105.973 1363.35 103.704 1362.98 Q101.459 1362.61 99.0515 1361.87 L99.0515 1357.17 Q101.135 1358.31 103.357 1358.86 Q105.579 1359.42 108.056 1359.42 Q112.061 1359.42 114.399 1357.31 Q116.737 1355.21 116.737 1351.59 Q116.737 1347.98 114.399 1345.88 Q112.061 1343.77 108.056 1343.77 Q106.181 1343.77 104.306 1344.19 Q102.454 1344.6 100.51 1345.48 L100.51 1328.12 Z" fill="#000000" fill-rule="nonzero" fill-opacity="1" /><path clip-path="url(#clip210)" d="M130.625 1356.8 L135.51 1356.8 L135.51 1362.68 L130.625 1362.68 L130.625 1356.8 Z" fill="#000000" fill-rule="nonzero" fill-opacity="1" /><path clip-path="url(#clip210)" d="M155.695 1331.2 Q152.084 1331.2 150.255 1334.77 Q148.449 1338.31 148.449 1345.44 Q148.449 1352.54 150.255 1356.11 Q152.084 1359.65 155.695 1359.65 Q159.329 1359.65 161.134 1356.11 Q162.963 1352.54 162.963 1345.44 Q162.963 1338.31 161.134 1334.77 Q159.329 1331.2 155.695 1331.2 M155.695 1327.5 Q161.505 1327.5 164.56 1332.1 Q167.639 1336.69 167.639 1345.44 Q167.639 1354.16 164.56 1358.77 Q161.505 1363.35 155.695 1363.35 Q149.885 1363.35 146.806 1358.77 Q143.75 1354.16 143.75 1345.44 Q143.75 1336.69 146.806 1332.1 Q149.885 1327.5 155.695 1327.5 Z" fill="#000000" fill-rule="nonzero" fill-opacity="1" /><path clip-path="url(#clip210)" d="M185.857 1331.2 Q182.245 1331.2 180.417 1334.77 Q178.611 1338.31 178.611 1345.44 Q178.611 1352.54 180.417 1356.11 Q182.245 1359.65 185.857 1359.65 Q189.491 1359.65 191.296 1356.11 Q193.125 1352.54 193.125 1345.44 Q193.125 1338.31 191.296 1334.77 Q189.491 1331.2 185.857 1331.2 M185.857 1327.5 Q191.667 1327.5 194.722 1332.1 Q197.801 1336.69 197.801 1345.44 Q197.801 1354.16 194.722 1358.77 Q191.667 1363.35 185.857 1363.35 Q180.046 1363.35 176.968 1358.77 Q173.912 1354.16 173.912 1345.44 Q173.912 1336.69 176.968 1332.1 Q180.046 1327.5 185.857 1327.5 Z" fill="#000000" fill-rule="nonzero" fill-opacity="1" /><path clip-path="url(#clip210)" d="M234.19 1337.22 L223.611 1347.84 L234.19 1358.42 L231.435 1361.22 L220.81 1350.6 L210.185 1361.22 L207.454 1358.42 L218.009 1347.84 L207.454 1337.22 L210.185 1334.42 L220.81 1345.04 L231.435 1334.42 L234.19 1337.22 Z" fill="#000000" fill-rule="nonzero" fill-opacity="1" /><path clip-path="url(#clip210)" d="M246.551 1358.75 L254.19 1358.75 L254.19 1332.38 L245.879 1334.05 L245.879 1329.79 L254.143 1328.12 L258.819 1328.12 L258.819 1358.75 L266.458 1358.75 L266.458 1362.68 L246.551 1362.68 L246.551 1358.75 Z" fill="#000000" fill-rule="nonzero" fill-opacity="1" /><path clip-path="url(#clip210)" d="M285.902 1331.2 Q282.291 1331.2 280.463 1334.77 Q278.657 1338.31 278.657 1345.44 Q278.657 1352.54 280.463 1356.11 Q282.291 1359.65 285.902 1359.65 Q289.537 1359.65 291.342 1356.11 Q293.171 1352.54 293.171 1345.44 Q293.171 1338.31 291.342 1334.77 Q289.537 1331.2 285.902 1331.2 M285.902 1327.5 Q291.712 1327.5 294.768 1332.1 Q297.847 1336.69 297.847 1345.44 Q297.847 1354.16 294.768 1358.77 Q291.712 1363.35 285.902 1363.35 Q280.092 1363.35 277.013 1358.77 Q273.958 1354.16 273.958 1345.44 Q273.958 1336.69 277.013 1332.1 Q280.092 1327.5 285.902 1327.5 Z" fill="#000000" fill-rule="nonzero" fill-opacity="1" /><path clip-path="url(#clip210)" d="M307.476 1321.94 Q304.768 1321.94 303.207 1323.39 Q301.665 1324.83 301.665 1327.37 Q301.665 1329.91 303.207 1331.36 Q304.768 1332.81 307.476 1332.81 Q310.185 1332.81 311.746 1331.36 Q313.307 1329.89 313.307 1327.37 Q313.307 1324.83 311.746 1323.39 Q310.203 1321.94 307.476 1321.94 M303.677 1320.32 Q301.232 1319.72 299.859 1318.04 Q298.505 1316.37 298.505 1313.96 Q298.505 1310.6 300.894 1308.64 Q303.301 1306.68 307.476 1306.68 Q311.67 1306.68 314.059 1308.64 Q316.448 1310.6 316.448 1313.96 Q316.448 1316.37 315.075 1318.04 Q313.72 1319.72 311.294 1320.32 Q314.04 1320.96 315.564 1322.82 Q317.106 1324.68 317.106 1327.37 Q317.106 1331.45 314.604 1333.64 Q312.122 1335.82 307.476 1335.82 Q302.831 1335.82 300.329 1333.64 Q297.847 1331.45 297.847 1327.37 Q297.847 1324.68 299.389 1322.82 Q300.931 1320.96 303.677 1320.32 M302.285 1314.32 Q302.285 1316.5 303.639 1317.72 Q305.012 1318.95 307.476 1318.95 Q309.921 1318.95 311.294 1317.72 Q312.686 1316.5 312.686 1314.32 Q312.686 1312.14 311.294 1310.92 Q309.921 1309.69 307.476 1309.69 Q305.012 1309.69 303.639 1310.92 Q302.285 1312.14 302.285 1314.32 Z" fill="#000000" fill-rule="nonzero" fill-opacity="1" /><path clip-path="url(#clip210)" d="M111.042 1132.78 Q107.894 1132.78 106.042 1134.94 Q104.213 1137.09 104.213 1140.84 Q104.213 1144.57 106.042 1146.74 Q107.894 1148.89 111.042 1148.89 Q114.19 1148.89 116.019 1146.74 Q117.871 1144.57 117.871 1140.84 Q117.871 1137.09 116.019 1134.94 Q114.19 1132.78 111.042 1132.78 M120.324 1118.13 L120.324 1122.39 Q118.565 1121.56 116.76 1121.12 Q114.977 1120.68 113.218 1120.68 Q108.588 1120.68 106.135 1123.8 Q103.704 1126.93 103.357 1133.25 Q104.723 1131.23 106.783 1130.17 Q108.843 1129.08 111.32 1129.08 Q116.528 1129.08 119.537 1132.25 Q122.57 1135.4 122.57 1140.84 Q122.57 1146.16 119.422 1149.38 Q116.274 1152.6 111.042 1152.6 Q105.047 1152.6 101.876 1148.02 Q98.7042 1143.41 98.7042 1134.68 Q98.7042 1126.49 102.593 1121.63 Q106.482 1116.74 113.033 1116.74 Q114.792 1116.74 116.575 1117.09 Q118.38 1117.44 120.324 1118.13 Z" fill="#000000" fill-rule="nonzero" fill-opacity="1" /><path clip-path="url(#clip210)" d="M130.625 1146.05 L135.51 1146.05 L135.51 1151.93 L130.625 1151.93 L130.625 1146.05 Z" fill="#000000" fill-rule="nonzero" fill-opacity="1" /><path clip-path="url(#clip210)" d="M155.695 1120.45 Q152.084 1120.45 150.255 1124.01 Q148.449 1127.55 148.449 1134.68 Q148.449 1141.79 150.255 1145.35 Q152.084 1148.89 155.695 1148.89 Q159.329 1148.89 161.134 1145.35 Q162.963 1141.79 162.963 1134.68 Q162.963 1127.55 161.134 1124.01 Q159.329 1120.45 155.695 1120.45 M155.695 1116.74 Q161.505 1116.74 164.56 1121.35 Q167.639 1125.93 167.639 1134.68 Q167.639 1143.41 164.56 1148.02 Q161.505 1152.6 155.695 1152.6 Q149.885 1152.6 146.806 1148.02 Q143.75 1143.41 143.75 1134.68 Q143.75 1125.93 146.806 1121.35 Q149.885 1116.74 155.695 1116.74 Z" fill="#000000" fill-rule="nonzero" fill-opacity="1" /><path clip-path="url(#clip210)" d="M185.857 1120.45 Q182.245 1120.45 180.417 1124.01 Q178.611 1127.55 178.611 1134.68 Q178.611 1141.79 180.417 1145.35 Q182.245 1148.89 185.857 1148.89 Q189.491 1148.89 191.296 1145.35 Q193.125 1141.79 193.125 1134.68 Q193.125 1127.55 191.296 1124.01 Q189.491 1120.45 185.857 1120.45 M185.857 1116.74 Q191.667 1116.74 194.722 1121.35 Q197.801 1125.93 197.801 1134.68 Q197.801 1143.41 194.722 1148.02 Q191.667 1152.6 185.857 1152.6 Q180.046 1152.6 176.968 1148.02 Q173.912 1143.41 173.912 1134.68 Q173.912 1125.93 176.968 1121.35 Q180.046 1116.74 185.857 1116.74 Z" fill="#000000" fill-rule="nonzero" fill-opacity="1" /><path clip-path="url(#clip210)" d="M234.19 1126.46 L223.611 1137.09 L234.19 1147.67 L231.435 1150.47 L220.81 1139.84 L210.185 1150.47 L207.454 1147.67 L218.009 1137.09 L207.454 1126.46 L210.185 1123.66 L220.81 1134.29 L231.435 1123.66 L234.19 1126.46 Z" fill="#000000" fill-rule="nonzero" fill-opacity="1" /><path clip-path="url(#clip210)" d="M246.551 1147.99 L254.19 1147.99 L254.19 1121.63 L245.879 1123.29 L245.879 1119.03 L254.143 1117.37 L258.819 1117.37 L258.819 1147.99 L266.458 1147.99 L266.458 1151.93 L246.551 1151.93 L246.551 1147.99 Z" fill="#000000" fill-rule="nonzero" fill-opacity="1" /><path clip-path="url(#clip210)" d="M285.902 1120.45 Q282.291 1120.45 280.463 1124.01 Q278.657 1127.55 278.657 1134.68 Q278.657 1141.79 280.463 1145.35 Q282.291 1148.89 285.902 1148.89 Q289.537 1148.89 291.342 1145.35 Q293.171 1141.79 293.171 1134.68 Q293.171 1127.55 291.342 1124.01 Q289.537 1120.45 285.902 1120.45 M285.902 1116.74 Q291.712 1116.74 294.768 1121.35 Q297.847 1125.93 297.847 1134.68 Q297.847 1143.41 294.768 1148.02 Q291.712 1152.6 285.902 1152.6 Q280.092 1152.6 277.013 1148.02 Q273.958 1143.41 273.958 1134.68 Q273.958 1125.93 277.013 1121.35 Q280.092 1116.74 285.902 1116.74 Z" fill="#000000" fill-rule="nonzero" fill-opacity="1" /><path clip-path="url(#clip210)" d="M307.476 1111.18 Q304.768 1111.18 303.207 1112.63 Q301.665 1114.08 301.665 1116.62 Q301.665 1119.16 303.207 1120.6 Q304.768 1122.05 307.476 1122.05 Q310.185 1122.05 311.746 1120.6 Q313.307 1119.14 313.307 1116.62 Q313.307 1114.08 311.746 1112.63 Q310.203 1111.18 307.476 1111.18 M303.677 1109.56 Q301.232 1108.96 299.859 1107.29 Q298.505 1105.62 298.505 1103.21 Q298.505 1099.84 300.894 1097.89 Q303.301 1095.93 307.476 1095.93 Q311.67 1095.93 314.059 1097.89 Q316.448 1099.84 316.448 1103.21 Q316.448 1105.62 315.075 1107.29 Q313.72 1108.96 311.294 1109.56 Q314.04 1110.2 315.564 1112.07 Q317.106 1113.93 317.106 1116.62 Q317.106 1120.7 314.604 1122.88 Q312.122 1125.06 307.476 1125.06 Q302.831 1125.06 300.329 1122.88 Q297.847 1120.7 297.847 1116.62 Q297.847 1113.93 299.389 1112.07 Q300.931 1110.2 303.677 1109.56 M302.285 1103.56 Q302.285 1105.75 303.639 1106.97 Q305.012 1108.19 307.476 1108.19 Q309.921 1108.19 311.294 1106.97 Q312.686 1105.75 312.686 1103.56 Q312.686 1101.38 311.294 1100.16 Q309.921 1098.94 307.476 1098.94 Q305.012 1098.94 303.639 1100.16 Q302.285 1101.38 302.285 1103.56 Z" fill="#000000" fill-rule="nonzero" fill-opacity="1" /><path clip-path="url(#clip210)" d="M99.2829 906.612 L121.505 906.612 L121.505 908.603 L108.959 941.172 L104.075 941.172 L115.88 910.547 L99.2829 910.547 L99.2829 906.612 Z" fill="#000000" fill-rule="nonzero" fill-opacity="1" /><path clip-path="url(#clip210)" d="M130.625 935.292 L135.51 935.292 L135.51 941.172 L130.625 941.172 L130.625 935.292 Z" fill="#000000" fill-rule="nonzero" fill-opacity="1" /><path clip-path="url(#clip210)" d="M155.695 909.691 Q152.084 909.691 150.255 913.255 Q148.449 916.797 148.449 923.927 Q148.449 931.033 150.255 934.598 Q152.084 938.14 155.695 938.14 Q159.329 938.14 161.134 934.598 Q162.963 931.033 162.963 923.927 Q162.963 916.797 161.134 913.255 Q159.329 909.691 155.695 909.691 M155.695 905.987 Q161.505 905.987 164.56 910.593 Q167.639 915.177 167.639 923.927 Q167.639 932.653 164.56 937.26 Q161.505 941.843 155.695 941.843 Q149.885 941.843 146.806 937.26 Q143.75 932.653 143.75 923.927 Q143.75 915.177 146.806 910.593 Q149.885 905.987 155.695 905.987 Z" fill="#000000" fill-rule="nonzero" fill-opacity="1" /><path clip-path="url(#clip210)" d="M185.857 909.691 Q182.245 909.691 180.417 913.255 Q178.611 916.797 178.611 923.927 Q178.611 931.033 180.417 934.598 Q182.245 938.14 185.857 938.14 Q189.491 938.14 191.296 934.598 Q193.125 931.033 193.125 923.927 Q193.125 916.797 191.296 913.255 Q189.491 909.691 185.857 909.691 M185.857 905.987 Q191.667 905.987 194.722 910.593 Q197.801 915.177 197.801 923.927 Q197.801 932.653 194.722 937.26 Q191.667 941.843 185.857 941.843 Q180.046 941.843 176.968 937.26 Q173.912 932.653 173.912 923.927 Q173.912 915.177 176.968 910.593 Q180.046 905.987 185.857 905.987 Z" fill="#000000" fill-rule="nonzero" fill-opacity="1" /><path clip-path="url(#clip210)" d="M234.19 915.709 L223.611 926.334 L234.19 936.913 L231.435 939.714 L220.81 929.089 L210.185 939.714 L207.454 936.913 L218.009 926.334 L207.454 915.709 L210.185 912.908 L220.81 923.533 L231.435 912.908 L234.19 915.709 Z" fill="#000000" fill-rule="nonzero" fill-opacity="1" /><path clip-path="url(#clip210)" d="M246.551 937.237 L254.19 937.237 L254.19 910.871 L245.879 912.538 L245.879 908.279 L254.143 906.612 L258.819 906.612 L258.819 937.237 L266.458 937.237 L266.458 941.172 L246.551 941.172 L246.551 937.237 Z" fill="#000000" fill-rule="nonzero" fill-opacity="1" /><path clip-path="url(#clip210)" d="M285.902 909.691 Q282.291 909.691 280.463 913.255 Q278.657 916.797 278.657 923.927 Q278.657 931.033 280.463 934.598 Q282.291 938.14 285.902 938.14 Q289.537 938.14 291.342 934.598 Q293.171 931.033 293.171 923.927 Q293.171 916.797 291.342 913.255 Q289.537 909.691 285.902 909.691 M285.902 905.987 Q291.712 905.987 294.768 910.593 Q297.847 915.177 297.847 923.927 Q297.847 932.653 294.768 937.26 Q291.712 941.843 285.902 941.843 Q280.092 941.843 277.013 937.26 Q273.958 932.653 273.958 923.927 Q273.958 915.177 277.013 910.593 Q280.092 905.987 285.902 905.987 Z" fill="#000000" fill-rule="nonzero" fill-opacity="1" /><path clip-path="url(#clip210)" d="M307.476 900.427 Q304.768 900.427 303.207 901.875 Q301.665 903.323 301.665 905.862 Q301.665 908.401 303.207 909.85 Q304.768 911.298 307.476 911.298 Q310.185 911.298 311.746 909.85 Q313.307 908.382 313.307 905.862 Q313.307 903.323 311.746 901.875 Q310.203 900.427 307.476 900.427 M303.677 898.809 Q301.232 898.207 299.859 896.534 Q298.505 894.86 298.505 892.452 Q298.505 889.086 300.894 887.13 Q303.301 885.174 307.476 885.174 Q311.67 885.174 314.059 887.13 Q316.448 889.086 316.448 892.452 Q316.448 894.86 315.075 896.534 Q313.72 898.207 311.294 898.809 Q314.04 899.449 315.564 901.311 Q317.106 903.173 317.106 905.862 Q317.106 909.944 314.604 912.125 Q312.122 914.307 307.476 914.307 Q302.831 914.307 300.329 912.125 Q297.847 909.944 297.847 905.862 Q297.847 903.173 299.389 901.311 Q300.931 899.449 303.677 898.809 M302.285 892.81 Q302.285 894.991 303.639 896.214 Q305.012 897.436 307.476 897.436 Q309.921 897.436 311.294 896.214 Q312.686 894.991 312.686 892.81 Q312.686 890.628 311.294 889.405 Q309.921 888.183 307.476 888.183 Q305.012 888.183 303.639 889.405 Q302.285 890.628 302.285 892.81 Z" fill="#000000" fill-rule="nonzero" fill-opacity="1" /><path clip-path="url(#clip210)" d="M110.463 714.005 Q107.13 714.005 105.209 715.787 Q103.311 717.569 103.311 720.694 Q103.311 723.819 105.209 725.602 Q107.13 727.384 110.463 727.384 Q113.797 727.384 115.718 725.602 Q117.639 723.796 117.639 720.694 Q117.639 717.569 115.718 715.787 Q113.82 714.005 110.463 714.005 M105.788 712.014 Q102.778 711.273 101.088 709.213 Q99.4218 707.153 99.4218 704.19 Q99.4218 700.046 102.362 697.639 Q105.325 695.232 110.463 695.232 Q115.625 695.232 118.565 697.639 Q121.505 700.046 121.505 704.19 Q121.505 707.153 119.815 709.213 Q118.149 711.273 115.162 712.014 Q118.542 712.801 120.417 715.093 Q122.315 717.384 122.315 720.694 Q122.315 725.718 119.237 728.403 Q116.181 731.088 110.463 731.088 Q104.746 731.088 101.667 728.403 Q98.6116 725.718 98.6116 720.694 Q98.6116 717.384 100.51 715.093 Q102.408 712.801 105.788 712.014 M104.075 704.63 Q104.075 707.315 105.741 708.819 Q107.431 710.324 110.463 710.324 Q113.473 710.324 115.162 708.819 Q116.875 707.315 116.875 704.63 Q116.875 701.945 115.162 700.44 Q113.473 698.935 110.463 698.935 Q107.431 698.935 105.741 700.44 Q104.075 701.945 104.075 704.63 Z" fill="#000000" fill-rule="nonzero" fill-opacity="1" /><path clip-path="url(#clip210)" d="M130.625 724.537 L135.51 724.537 L135.51 730.417 L130.625 730.417 L130.625 724.537 Z" fill="#000000" fill-rule="nonzero" fill-opacity="1" /><path clip-path="url(#clip210)" d="M155.695 698.935 Q152.084 698.935 150.255 702.5 Q148.449 706.042 148.449 713.171 Q148.449 720.278 150.255 723.843 Q152.084 727.384 155.695 727.384 Q159.329 727.384 161.134 723.843 Q162.963 720.278 162.963 713.171 Q162.963 706.042 161.134 702.5 Q159.329 698.935 155.695 698.935 M155.695 695.232 Q161.505 695.232 164.56 699.838 Q167.639 704.421 167.639 713.171 Q167.639 721.898 164.56 726.505 Q161.505 731.088 155.695 731.088 Q149.885 731.088 146.806 726.505 Q143.75 721.898 143.75 713.171 Q143.75 704.421 146.806 699.838 Q149.885 695.232 155.695 695.232 Z" fill="#000000" fill-rule="nonzero" fill-opacity="1" /><path clip-path="url(#clip210)" d="M185.857 698.935 Q182.245 698.935 180.417 702.5 Q178.611 706.042 178.611 713.171 Q178.611 720.278 180.417 723.843 Q182.245 727.384 185.857 727.384 Q189.491 727.384 191.296 723.843 Q193.125 720.278 193.125 713.171 Q193.125 706.042 191.296 702.5 Q189.491 698.935 185.857 698.935 M185.857 695.232 Q191.667 695.232 194.722 699.838 Q197.801 704.421 197.801 713.171 Q197.801 721.898 194.722 726.505 Q191.667 731.088 185.857 731.088 Q180.046 731.088 176.968 726.505 Q173.912 721.898 173.912 713.171 Q173.912 704.421 176.968 699.838 Q180.046 695.232 185.857 695.232 Z" fill="#000000" fill-rule="nonzero" fill-opacity="1" /><path clip-path="url(#clip210)" d="M234.19 704.954 L223.611 715.579 L234.19 726.157 L231.435 728.958 L220.81 718.333 L210.185 728.958 L207.454 726.157 L218.009 715.579 L207.454 704.954 L210.185 702.153 L220.81 712.778 L231.435 702.153 L234.19 704.954 Z" fill="#000000" fill-rule="nonzero" fill-opacity="1" /><path clip-path="url(#clip210)" d="M246.551 726.481 L254.19 726.481 L254.19 700.116 L245.879 701.782 L245.879 697.523 L254.143 695.857 L258.819 695.857 L258.819 726.481 L266.458 726.481 L266.458 730.417 L246.551 730.417 L246.551 726.481 Z" fill="#000000" fill-rule="nonzero" fill-opacity="1" /><path clip-path="url(#clip210)" d="M285.902 698.935 Q282.291 698.935 280.463 702.5 Q278.657 706.042 278.657 713.171 Q278.657 720.278 280.463 723.843 Q282.291 727.384 285.902 727.384 Q289.537 727.384 291.342 723.843 Q293.171 720.278 293.171 713.171 Q293.171 706.042 291.342 702.5 Q289.537 698.935 285.902 698.935 M285.902 695.232 Q291.712 695.232 294.768 699.838 Q297.847 704.421 297.847 713.171 Q297.847 721.898 294.768 726.505 Q291.712 731.088 285.902 731.088 Q280.092 731.088 277.013 726.505 Q273.958 721.898 273.958 713.171 Q273.958 704.421 277.013 699.838 Q280.092 695.232 285.902 695.232 Z" fill="#000000" fill-rule="nonzero" fill-opacity="1" /><path clip-path="url(#clip210)" d="M307.476 689.671 Q304.768 689.671 303.207 691.12 Q301.665 692.568 301.665 695.107 Q301.665 697.646 303.207 699.094 Q304.768 700.542 307.476 700.542 Q310.185 700.542 311.746 699.094 Q313.307 697.627 313.307 695.107 Q313.307 692.568 311.746 691.12 Q310.203 689.671 307.476 689.671 M303.677 688.054 Q301.232 687.452 299.859 685.778 Q298.505 684.104 298.505 681.697 Q298.505 678.33 300.894 676.374 Q303.301 674.418 307.476 674.418 Q311.67 674.418 314.059 676.374 Q316.448 678.33 316.448 681.697 Q316.448 684.104 315.075 685.778 Q313.72 687.452 311.294 688.054 Q314.04 688.693 315.564 690.555 Q317.106 692.417 317.106 695.107 Q317.106 699.188 314.604 701.37 Q312.122 703.552 307.476 703.552 Q302.831 703.552 300.329 701.37 Q297.847 699.188 297.847 695.107 Q297.847 692.417 299.389 690.555 Q300.931 688.693 303.677 688.054 M302.285 682.054 Q302.285 684.236 303.639 685.459 Q305.012 686.681 307.476 686.681 Q309.921 686.681 311.294 685.459 Q312.686 684.236 312.686 682.054 Q312.686 679.873 311.294 678.65 Q309.921 677.428 307.476 677.428 Q305.012 677.428 303.639 678.65 Q302.285 679.873 302.285 682.054 Z" fill="#000000" fill-rule="nonzero" fill-opacity="1" /><path clip-path="url(#clip210)" d="M100.602 518.944 L100.602 514.684 Q102.362 515.518 104.167 515.958 Q105.973 516.397 107.709 516.397 Q112.338 516.397 114.769 513.296 Q117.223 510.171 117.57 503.828 Q116.227 505.819 114.167 506.884 Q112.107 507.948 109.607 507.948 Q104.422 507.948 101.389 504.823 Q98.3802 501.675 98.3802 496.235 Q98.3802 490.911 101.528 487.694 Q104.676 484.476 109.908 484.476 Q115.903 484.476 119.051 489.083 Q122.223 493.666 122.223 502.416 Q122.223 510.587 118.334 515.471 Q114.468 520.333 107.917 520.333 Q106.158 520.333 104.352 519.985 Q102.547 519.638 100.602 518.944 M109.908 504.291 Q113.056 504.291 114.885 502.138 Q116.737 499.985 116.737 496.235 Q116.737 492.509 114.885 490.356 Q113.056 488.18 109.908 488.18 Q106.76 488.18 104.908 490.356 Q103.079 492.509 103.079 496.235 Q103.079 499.985 104.908 502.138 Q106.76 504.291 109.908 504.291 Z" fill="#000000" fill-rule="nonzero" fill-opacity="1" /><path clip-path="url(#clip210)" d="M130.625 513.782 L135.51 513.782 L135.51 519.661 L130.625 519.661 L130.625 513.782 Z" fill="#000000" fill-rule="nonzero" fill-opacity="1" /><path clip-path="url(#clip210)" d="M155.695 488.18 Q152.084 488.18 150.255 491.745 Q148.449 495.286 148.449 502.416 Q148.449 509.522 150.255 513.087 Q152.084 516.629 155.695 516.629 Q159.329 516.629 161.134 513.087 Q162.963 509.522 162.963 502.416 Q162.963 495.286 161.134 491.745 Q159.329 488.18 155.695 488.18 M155.695 484.476 Q161.505 484.476 164.56 489.083 Q167.639 493.666 167.639 502.416 Q167.639 511.143 164.56 515.749 Q161.505 520.333 155.695 520.333 Q149.885 520.333 146.806 515.749 Q143.75 511.143 143.75 502.416 Q143.75 493.666 146.806 489.083 Q149.885 484.476 155.695 484.476 Z" fill="#000000" fill-rule="nonzero" fill-opacity="1" /><path clip-path="url(#clip210)" d="M185.857 488.18 Q182.245 488.18 180.417 491.745 Q178.611 495.286 178.611 502.416 Q178.611 509.522 180.417 513.087 Q182.245 516.629 185.857 516.629 Q189.491 516.629 191.296 513.087 Q193.125 509.522 193.125 502.416 Q193.125 495.286 191.296 491.745 Q189.491 488.18 185.857 488.18 M185.857 484.476 Q191.667 484.476 194.722 489.083 Q197.801 493.666 197.801 502.416 Q197.801 511.143 194.722 515.749 Q191.667 520.333 185.857 520.333 Q180.046 520.333 176.968 515.749 Q173.912 511.143 173.912 502.416 Q173.912 493.666 176.968 489.083 Q180.046 484.476 185.857 484.476 Z" fill="#000000" fill-rule="nonzero" fill-opacity="1" /><path clip-path="url(#clip210)" d="M234.19 494.198 L223.611 504.823 L234.19 515.402 L231.435 518.203 L220.81 507.578 L210.185 518.203 L207.454 515.402 L218.009 504.823 L207.454 494.198 L210.185 491.398 L220.81 502.022 L231.435 491.398 L234.19 494.198 Z" fill="#000000" fill-rule="nonzero" fill-opacity="1" /><path clip-path="url(#clip210)" d="M246.551 515.726 L254.19 515.726 L254.19 489.361 L245.879 491.027 L245.879 486.768 L254.143 485.101 L258.819 485.101 L258.819 515.726 L266.458 515.726 L266.458 519.661 L246.551 519.661 L246.551 515.726 Z" fill="#000000" fill-rule="nonzero" fill-opacity="1" /><path clip-path="url(#clip210)" d="M285.902 488.18 Q282.291 488.18 280.463 491.745 Q278.657 495.286 278.657 502.416 Q278.657 509.522 280.463 513.087 Q282.291 516.629 285.902 516.629 Q289.537 516.629 291.342 513.087 Q293.171 509.522 293.171 502.416 Q293.171 495.286 291.342 491.745 Q289.537 488.18 285.902 488.18 M285.902 484.476 Q291.712 484.476 294.768 489.083 Q297.847 493.666 297.847 502.416 Q297.847 511.143 294.768 515.749 Q291.712 520.333 285.902 520.333 Q280.092 520.333 277.013 515.749 Q273.958 511.143 273.958 502.416 Q273.958 493.666 277.013 489.083 Q280.092 484.476 285.902 484.476 Z" fill="#000000" fill-rule="nonzero" fill-opacity="1" /><path clip-path="url(#clip210)" d="M307.476 478.916 Q304.768 478.916 303.207 480.364 Q301.665 481.813 301.665 484.352 Q301.665 486.891 303.207 488.339 Q304.768 489.787 307.476 489.787 Q310.185 489.787 311.746 488.339 Q313.307 486.872 313.307 484.352 Q313.307 481.813 311.746 480.364 Q310.203 478.916 307.476 478.916 M303.677 477.299 Q301.232 476.697 299.859 475.023 Q298.505 473.349 298.505 470.942 Q298.505 467.575 300.894 465.619 Q303.301 463.663 307.476 463.663 Q311.67 463.663 314.059 465.619 Q316.448 467.575 316.448 470.942 Q316.448 473.349 315.075 475.023 Q313.72 476.697 311.294 477.299 Q314.04 477.938 315.564 479.8 Q317.106 481.662 317.106 484.352 Q317.106 488.433 314.604 490.615 Q312.122 492.796 307.476 492.796 Q302.831 492.796 300.329 490.615 Q297.847 488.433 297.847 484.352 Q297.847 481.662 299.389 479.8 Q300.931 477.938 303.677 477.299 M302.285 471.299 Q302.285 473.481 303.639 474.703 Q305.012 475.926 307.476 475.926 Q309.921 475.926 311.294 474.703 Q312.686 473.481 312.686 471.299 Q312.686 469.117 311.294 467.895 Q309.921 466.672 307.476 466.672 Q305.012 466.672 303.639 467.895 Q302.285 469.117 302.285 471.299 Z" fill="#000000" fill-rule="nonzero" fill-opacity="1" /><path clip-path="url(#clip210)" d="M101.161 304.971 L108.8 304.971 L108.8 278.605 L100.49 280.272 L100.49 276.013 L108.753 274.346 L113.429 274.346 L113.429 304.971 L121.068 304.971 L121.068 308.906 L101.161 308.906 L101.161 304.971 Z" fill="#000000" fill-rule="nonzero" fill-opacity="1" /><path clip-path="url(#clip210)" d="M130.513 303.026 L135.397 303.026 L135.397 308.906 L130.513 308.906 L130.513 303.026 Z" fill="#000000" fill-rule="nonzero" fill-opacity="1" /><path clip-path="url(#clip210)" d="M155.582 277.425 Q151.971 277.425 150.142 280.989 Q148.336 284.531 148.336 291.661 Q148.336 298.767 150.142 302.332 Q151.971 305.874 155.582 305.874 Q159.216 305.874 161.022 302.332 Q162.85 298.767 162.85 291.661 Q162.85 284.531 161.022 280.989 Q159.216 277.425 155.582 277.425 M155.582 273.721 Q161.392 273.721 164.448 278.327 Q167.526 282.911 167.526 291.661 Q167.526 300.387 164.448 304.994 Q161.392 309.577 155.582 309.577 Q149.772 309.577 146.693 304.994 Q143.637 300.387 143.637 291.661 Q143.637 282.911 146.693 278.327 Q149.772 273.721 155.582 273.721 Z" fill="#000000" fill-rule="nonzero" fill-opacity="1" /><path clip-path="url(#clip210)" d="M185.744 277.425 Q182.133 277.425 180.304 280.989 Q178.498 284.531 178.498 291.661 Q178.498 298.767 180.304 302.332 Q182.133 305.874 185.744 305.874 Q189.378 305.874 191.183 302.332 Q193.012 298.767 193.012 291.661 Q193.012 284.531 191.183 280.989 Q189.378 277.425 185.744 277.425 M185.744 273.721 Q191.554 273.721 194.609 278.327 Q197.688 282.911 197.688 291.661 Q197.688 300.387 194.609 304.994 Q191.554 309.577 185.744 309.577 Q179.934 309.577 176.855 304.994 Q173.799 300.387 173.799 291.661 Q173.799 282.911 176.855 278.327 Q179.934 273.721 185.744 273.721 Z" fill="#000000" fill-rule="nonzero" fill-opacity="1" /><path clip-path="url(#clip210)" d="M234.077 283.443 L223.498 294.068 L234.077 304.647 L231.322 307.448 L220.697 296.823 L210.072 307.448 L207.341 304.647 L217.896 294.068 L207.341 283.443 L210.072 280.642 L220.697 291.267 L231.322 280.642 L234.077 283.443 Z" fill="#000000" fill-rule="nonzero" fill-opacity="1" /><path clip-path="url(#clip210)" d="M246.438 304.971 L254.077 304.971 L254.077 278.605 L245.767 280.272 L245.767 276.013 L254.03 274.346 L258.706 274.346 L258.706 304.971 L266.345 304.971 L266.345 308.906 L246.438 308.906 L246.438 304.971 Z" fill="#000000" fill-rule="nonzero" fill-opacity="1" /><path clip-path="url(#clip210)" d="M285.789 277.425 Q282.178 277.425 280.35 280.989 Q278.544 284.531 278.544 291.661 Q278.544 298.767 280.35 302.332 Q282.178 305.874 285.789 305.874 Q289.424 305.874 291.229 302.332 Q293.058 298.767 293.058 291.661 Q293.058 284.531 291.229 280.989 Q289.424 277.425 285.789 277.425 M285.789 273.721 Q291.6 273.721 294.655 278.327 Q297.734 282.911 297.734 291.661 Q297.734 300.387 294.655 304.994 Q291.6 309.577 285.789 309.577 Q279.979 309.577 276.901 304.994 Q273.845 300.387 273.845 291.661 Q273.845 282.911 276.901 278.327 Q279.979 273.721 285.789 273.721 Z" fill="#000000" fill-rule="nonzero" fill-opacity="1" /><path clip-path="url(#clip210)" d="M299.539 280.913 L299.539 277.452 Q300.969 278.129 302.436 278.486 Q303.903 278.844 305.313 278.844 Q309.075 278.844 311.05 276.323 Q313.043 273.784 313.325 268.631 Q312.235 270.248 310.561 271.114 Q308.887 271.979 306.856 271.979 Q302.643 271.979 300.179 269.44 Q297.734 266.882 297.734 262.462 Q297.734 258.136 300.292 255.522 Q302.85 252.908 307.1 252.908 Q311.971 252.908 314.529 256.65 Q317.106 260.374 317.106 267.484 Q317.106 274.123 313.946 278.091 Q310.805 282.041 305.483 282.041 Q304.053 282.041 302.586 281.759 Q301.119 281.477 299.539 280.913 M307.1 269.007 Q309.658 269.007 311.144 267.258 Q312.648 265.509 312.648 262.462 Q312.648 259.434 311.144 257.685 Q309.658 255.917 307.1 255.917 Q304.542 255.917 303.038 257.685 Q301.552 259.434 301.552 262.462 Q301.552 265.509 303.038 267.258 Q304.542 269.007 307.1 269.007 Z" fill="#000000" fill-rule="nonzero" fill-opacity="1" /><path clip-path="url(#clip210)" d="M101.161 94.2155 L108.8 94.2155 L108.8 67.8499 L100.49 69.5165 L100.49 65.2573 L108.753 63.5906 L113.429 63.5906 L113.429 94.2155 L121.068 94.2155 L121.068 98.1506 L101.161 98.1506 L101.161 94.2155 Z" fill="#000000" fill-rule="nonzero" fill-opacity="1" /><path clip-path="url(#clip210)" d="M130.513 92.271 L135.397 92.271 L135.397 98.1506 L130.513 98.1506 L130.513 92.271 Z" fill="#000000" fill-rule="nonzero" fill-opacity="1" /><path clip-path="url(#clip210)" d="M146.392 94.2155 L154.031 94.2155 L154.031 67.8499 L145.721 69.5165 L145.721 65.2573 L153.985 63.5906 L158.661 63.5906 L158.661 94.2155 L166.299 94.2155 L166.299 98.1506 L146.392 98.1506 L146.392 94.2155 Z" fill="#000000" fill-rule="nonzero" fill-opacity="1" /><path clip-path="url(#clip210)" d="M185.744 66.6693 Q182.133 66.6693 180.304 70.2341 Q178.498 73.7758 178.498 80.9053 Q178.498 88.0118 180.304 91.5766 Q182.133 95.1182 185.744 95.1182 Q189.378 95.1182 191.183 91.5766 Q193.012 88.0118 193.012 80.9053 Q193.012 73.7758 191.183 70.2341 Q189.378 66.6693 185.744 66.6693 M185.744 62.9656 Q191.554 62.9656 194.609 67.5721 Q197.688 72.1554 197.688 80.9053 Q197.688 89.6321 194.609 94.2386 Q191.554 98.8219 185.744 98.8219 Q179.934 98.8219 176.855 94.2386 Q173.799 89.6321 173.799 80.9053 Q173.799 72.1554 176.855 67.5721 Q179.934 62.9656 185.744 62.9656 Z" fill="#000000" fill-rule="nonzero" fill-opacity="1" /><path clip-path="url(#clip210)" d="M234.077 72.6878 L223.498 83.3127 L234.077 93.8914 L231.322 96.6923 L220.697 86.0674 L210.072 96.6923 L207.341 93.8914 L217.896 83.3127 L207.341 72.6878 L210.072 69.8869 L220.697 80.5118 L231.322 69.8869 L234.077 72.6878 Z" fill="#000000" fill-rule="nonzero" fill-opacity="1" /><path clip-path="url(#clip210)" d="M246.438 94.2155 L254.077 94.2155 L254.077 67.8499 L245.767 69.5165 L245.767 65.2573 L254.03 63.5906 L258.706 63.5906 L258.706 94.2155 L266.345 94.2155 L266.345 98.1506 L246.438 98.1506 L246.438 94.2155 Z" fill="#000000" fill-rule="nonzero" fill-opacity="1" /><path clip-path="url(#clip210)" d="M285.789 66.6693 Q282.178 66.6693 280.35 70.2341 Q278.544 73.7758 278.544 80.9053 Q278.544 88.0118 280.35 91.5766 Q282.178 95.1182 285.789 95.1182 Q289.424 95.1182 291.229 91.5766 Q293.058 88.0118 293.058 80.9053 Q293.058 73.7758 291.229 70.2341 Q289.424 66.6693 285.789 66.6693 M285.789 62.9656 Q291.6 62.9656 294.655 67.5721 Q297.734 72.1554 297.734 80.9053 Q297.734 89.6321 294.655 94.2386 Q291.6 98.8219 285.789 98.8219 Q279.979 98.8219 276.901 94.2386 Q273.845 89.6321 273.845 80.9053 Q273.845 72.1554 276.901 67.5721 Q279.979 62.9656 285.789 62.9656 Z" fill="#000000" fill-rule="nonzero" fill-opacity="1" /><path clip-path="url(#clip210)" d="M299.539 70.1572 L299.539 66.6966 Q300.969 67.3736 302.436 67.731 Q303.903 68.0883 305.313 68.0883 Q309.075 68.0883 311.05 65.5681 Q313.043 63.029 313.325 57.8757 Q312.235 59.4932 310.561 60.3583 Q308.887 61.2235 306.856 61.2235 Q302.643 61.2235 300.179 58.6844 Q297.734 56.1266 297.734 51.7068 Q297.734 47.381 300.292 44.7667 Q302.85 42.1524 307.1 42.1524 Q311.971 42.1524 314.529 45.8952 Q317.106 49.6191 317.106 56.7284 Q317.106 63.3676 313.946 67.336 Q310.805 71.2856 305.483 71.2856 Q304.053 71.2856 302.586 71.0035 Q301.119 70.7214 299.539 70.1572 M307.1 58.2519 Q309.658 58.2519 311.144 56.5027 Q312.648 54.7536 312.648 51.7068 Q312.648 48.6787 311.144 46.9296 Q309.658 45.1617 307.1 45.1617 Q304.542 45.1617 303.038 46.9296 Q301.552 48.6787 301.552 51.7068 Q301.552 54.7536 303.038 56.5027 Q304.542 58.2519 307.1 58.2519 Z" fill="#000000" fill-rule="nonzero" fill-opacity="1" /><path clip-path="url(#clip210)" d="M-9.64527 840.632 L0.4762 840.632 L0.4762 828.569 L5.02768 828.569 L5.02768 840.632 L24.3794 840.632 Q28.7399 840.632 29.9813 839.454 Q31.2226 838.245 31.2226 834.584 L31.2226 828.569 L36.1242 828.569 L36.1242 834.584 Q36.1242 841.364 33.6097 843.942 Q31.0634 846.52 24.3794 846.52 L5.02768 846.52 L5.02768 850.817 L0.4762 850.817 L0.4762 846.52 L-9.64527 846.52 L-9.64527 840.632 Z" fill="#000000" fill-rule="nonzero" fill-opacity="1" /><path clip-path="url(#clip210)" d="M-11.3958 789.738 L-11.3958 784.327 L42.1716 800.878 L42.1716 806.289 L-11.3958 789.738 Z" fill="#000000" fill-rule="nonzero" fill-opacity="1" /><path clip-path="url(#clip210)" d="M14.6081 727.831 L36.1242 727.831 L36.1242 733.688 L14.799 733.688 Q9.7383 733.688 7.22385 735.661 Q4.7094 737.635 4.7094 741.581 Q4.7094 746.324 7.73311 749.061 Q10.7568 751.798 15.9767 751.798 L36.1242 751.798 L36.1242 757.687 L0.4762 757.687 L0.4762 751.798 L6.01437 751.798 Q2.79968 749.698 1.20826 746.865 Q-0.38317 744 -0.38317 740.276 Q-0.38317 734.133 3.43625 730.982 Q7.22385 727.831 14.6081 727.831 Z" fill="#000000" fill-rule="nonzero" fill-opacity="1" /><path clip-path="url(#clip210)" d="M1.52654 693.425 L7.06471 693.425 Q5.79157 695.907 5.15499 698.581 Q4.51842 701.255 4.51842 704.119 Q4.51842 708.48 5.85522 710.676 Q7.19202 712.84 9.86562 712.84 Q11.9026 712.84 13.0803 711.281 Q14.2261 709.721 15.2765 705.01 L15.7221 703.005 Q17.0589 696.767 19.5097 694.157 Q21.9286 691.515 26.2891 691.515 Q31.2544 691.515 34.1508 695.462 Q37.0472 699.377 37.0472 706.252 Q37.0472 709.116 36.4743 712.235 Q35.9332 715.323 34.8192 718.76 L28.7718 718.76 Q30.4587 715.514 31.318 712.363 Q32.1456 709.212 32.1456 706.124 Q32.1456 701.987 30.7451 699.759 Q29.3129 697.531 26.7347 697.531 Q24.3476 697.531 23.0745 699.154 Q21.8013 700.745 20.6237 706.188 L20.1462 708.225 Q19.0004 713.668 16.6451 716.087 Q14.258 718.506 10.1202 718.506 Q5.09134 718.506 2.35408 714.941 Q-0.38317 711.376 -0.38317 704.819 Q-0.38317 701.573 0.0942579 698.708 Q0.571686 695.844 1.52654 693.425 Z" fill="#000000" fill-rule="nonzero" fill-opacity="1" /><path clip-path="url(#clip211)" d="M1367.02 1454.11 L1391.09 1452.68 L1400.31 1451.26 L1395.44 1449.83 L1378.67 1448.41 L1352.98 1446.98 L1321.4 1445.55 L1286.42 1444.13 L1249.77 1442.7 L1212.42 1441.27 L1174.92 1439.85 L1137.73 1438.42 L1101.45 1437 L1066.95 1435.57 L1035.25 1434.14 L1007.28 1432.72 L983.74 1431.29 L964.874 1429.86 L950.518 1428.44 L940.156 1427.01 L933.065 1425.58 L928.464 1424.16 L925.635 1422.73 L923.985 1421.31 L923.073 1419.88 L922.594 1418.45 L922.356 1417.03 L922.244 1415.6 L922.193 1414.17 L922.172 1412.75 L922.163 1411.32 L922.16 1409.9 L922.158 1408.47 L922.158 1407.04 L922.158 1405.62 L922.158 1404.19 L922.158 1402.76 L922.158 1401.34 L922.158 1399.91 L922.158 1398.48 L922.158 1397.06 L922.158 1395.63 L922.158 1394.21 L922.158 1392.78 L922.158 1391.35 L922.158 1389.93 L922.158 1388.5 L922.158 1387.07 L922.158 1385.65 L922.158 1384.22 L922.158 1382.8 L922.158 1381.37 L922.158 1379.94 L922.158 1378.52 L922.158 1377.09 L922.158 1375.66 L922.158 1374.24 L922.158 1372.81 L922.158 1371.38 L922.158 1369.96 L922.158 1368.53 L922.158 1367.11 L922.158 1365.68 L922.158 1364.25 L922.158 1362.83 L922.158 1361.4 L922.158 1359.97 L922.158 1358.55 L922.158 1357.12 L922.158 1355.7 L922.158 1354.27 L922.158 1352.84 L922.158 1351.42 L922.158 1349.99 L922.158 1348.56 L922.158 1347.14 L922.158 1345.71 L922.158 1344.28 L922.158 1342.86 L922.158 1341.43 L922.158 1340.01 L922.158 1338.58 L922.158 1337.15 L922.158 1335.73 L922.158 1334.3 L922.158 1332.87 L922.158 1331.45 L922.158 1330.02 L922.158 1328.6 L922.158 1327.17 L922.158 1325.74 L922.158 1324.32 L922.158 1322.89 L922.158 1321.46 L922.158 1320.04 L922.158 1318.61 L922.158 1317.18 L922.158 1315.76 L922.158 1314.33 L922.158 1312.91 L922.158 1311.48 L922.158 1310.05 L922.158 1308.63 L922.158 1307.2 L922.158 1305.77 L922.158 1304.35 L922.158 1302.92 L922.158 1301.5 L922.158 1300.07 L922.158 1298.64 L922.158 1297.22 L922.158 1295.79 L922.158 1294.36 L922.158 1292.94 L922.158 1291.51 L922.158 1290.08 L922.158 1288.66 L922.158 1287.23 L922.158 1285.81 L922.158 1284.38 L922.158 1282.95 L922.158 1281.53 L922.158 1280.1 L922.158 1278.67 L922.158 1277.25 L922.158 1275.82 L922.158 1274.4 L922.158 1272.97 L922.158 1271.54 L922.158 1270.12 L922.158 1268.69 L922.158 1267.26 L922.158 1265.84 L922.158 1264.41 L922.158 1262.98 L922.158 1261.56 L922.158 1260.13 L922.158 1258.71 L922.158 1257.28 L922.158 1255.85 L922.158 1254.43 L922.159 1253 L922.16 1251.57 L922.165 1250.15 L922.177 1248.72 L922.206 1247.3 L922.273 1245.87 L922.42 1244.44 L922.727 1243.02 L923.331 1241.59 L924.461 1240.16 L926.458 1238.74 L929.798 1237.31 L935.074 1235.88 L942.934 1234.46 L953.958 1233.03 L968.473 1231.61 L986.345 1230.18 L1006.8 1228.75 L1028.37 1227.33 L1048.98 1225.9 L1066.26 1224.47 L1077.96 1223.05 L1082.45 1221.62 L761.867 1221.62 L766.359 1223.05 L778.058 1224.47 L795.333 1225.9 L815.944 1227.33 L837.513 1228.75 L857.971 1230.18 L875.842 1231.61 L890.357 1233.03 L901.381 1234.46 L909.242 1235.88 L914.517 1237.31 L917.857 1238.74 L919.854 1240.16 L920.984 1241.59 L921.589 1243.02 L921.895 1244.44 L922.042 1245.87 L922.11 1247.3 L922.139 1248.72 L922.15 1250.15 L922.155 1251.57 L922.157 1253 L922.157 1254.43 L922.158 1255.85 L922.158 1257.28 L922.158 1258.71 L922.158 1260.13 L922.158 1261.56 L922.158 1262.98 L922.158 1264.41 L922.158 1265.84 L922.158 1267.26 L922.158 1268.69 L922.158 1270.12 L922.158 1271.54 L922.158 1272.97 L922.158 1274.4 L922.158 1275.82 L922.158 1277.25 L922.158 1278.67 L922.158 1280.1 L922.158 1281.53 L922.158 1282.95 L922.158 1284.38 L922.158 1285.81 L922.158 1287.23 L922.158 1288.66 L922.158 1290.08 L922.158 1291.51 L922.158 1292.94 L922.158 1294.36 L922.158 1295.79 L922.158 1297.22 L922.158 1298.64 L922.158 1300.07 L922.158 1301.5 L922.158 1302.92 L922.158 1304.35 L922.158 1305.77 L922.158 1307.2 L922.158 1308.63 L922.158 1310.05 L922.158 1311.48 L922.158 1312.91 L922.158 1314.33 L922.158 1315.76 L922.158 1317.18 L922.158 1318.61 L922.158 1320.04 L922.158 1321.46 L922.158 1322.89 L922.158 1324.32 L922.158 1325.74 L922.158 1327.17 L922.158 1328.6 L922.158 1330.02 L922.158 1331.45 L922.158 1332.87 L922.158 1334.3 L922.158 1335.73 L922.158 1337.15 L922.158 1338.58 L922.158 1340.01 L922.158 1341.43 L922.158 1342.86 L922.158 1344.28 L922.158 1345.71 L922.158 1347.14 L922.158 1348.56 L922.158 1349.99 L922.158 1351.42 L922.158 1352.84 L922.158 1354.27 L922.158 1355.7 L922.158 1357.12 L922.158 1358.55 L922.158 1359.97 L922.158 1361.4 L922.158 1362.83 L922.158 1364.25 L922.158 1365.68 L922.158 1367.11 L922.158 1368.53 L922.158 1369.96 L922.158 1371.38 L922.158 1372.81 L922.158 1374.24 L922.158 1375.66 L922.158 1377.09 L922.158 1378.52 L922.158 1379.94 L922.158 1381.37 L922.158 1382.8 L922.158 1384.22 L922.158 1385.65 L922.158 1387.07 L922.158 1388.5 L922.158 1389.93 L922.158 1391.35 L922.158 1392.78 L922.158 1394.21 L922.158 1395.63 L922.158 1397.06 L922.158 1398.48 L922.158 1399.91 L922.158 1401.34 L922.158 1402.76 L922.158 1404.19 L922.158 1405.62 L922.157 1407.04 L922.157 1408.47 L922.156 1409.9 L922.153 1411.32 L922.144 1412.75 L922.122 1414.17 L922.072 1415.6 L921.959 1417.03 L921.721 1418.45 L921.242 1419.88 L920.33 1421.31 L918.68 1422.73 L915.851 1424.16 L911.25 1425.58 L904.159 1427.01 L893.797 1428.44 L879.441 1429.86 L860.576 1431.29 L837.031 1432.72 L809.069 1434.14 L777.365 1435.57 L742.868 1437 L706.589 1438.42 L669.391 1439.85 L631.894 1441.27 L594.546 1442.7 L557.893 1444.13 L522.918 1445.55 L491.337 1446.98 L465.649 1448.41 L448.878 1449.83 L444.002 1451.26 L453.222 1452.68 L477.295 1454.11 L1367.02 1454.11  Z" fill="#009af9" fill-rule="evenodd" fill-opacity="1"/>
<polyline clip-path="url(#clip211)" style="stroke:#000000; stroke-linecap:round; stroke-linejoin:round; stroke-width:4; stroke-opacity:1; fill:none" points="1367.02,1454.11 1391.09,1452.68 1400.31,1451.26 1395.44,1449.83 1378.67,1448.41 1352.98,1446.98 1321.4,1445.55 1286.42,1444.13 1249.77,1442.7 1212.42,1441.27 1174.92,1439.85 1137.73,1438.42 1101.45,1437 1066.95,1435.57 1035.25,1434.14 1007.28,1432.72 983.74,1431.29 964.874,1429.86 950.518,1428.44 940.156,1427.01 933.065,1425.58 928.464,1424.16 925.635,1422.73 923.985,1421.31 923.073,1419.88 922.594,1418.45 922.356,1417.03 922.244,1415.6 922.193,1414.17 922.172,1412.75 922.163,1411.32 922.16,1409.9 922.158,1408.47 922.158,1407.04 922.158,1405.62 922.158,1404.19 922.158,1402.76 922.158,1401.34 922.158,1399.91 922.158,1398.48 922.158,1397.06 922.158,1395.63 922.158,1394.21 922.158,1392.78 922.158,1391.35 922.158,1389.93 922.158,1388.5 922.158,1387.07 922.158,1385.65 922.158,1384.22 922.158,1382.8 922.158,1381.37 922.158,1379.94 922.158,1378.52 922.158,1377.09 922.158,1375.66 922.158,1374.24 922.158,1372.81 922.158,1371.38 922.158,1369.96 922.158,1368.53 922.158,1367.11 922.158,1365.68 922.158,1364.25 922.158,1362.83 922.158,1361.4 922.158,1359.97 922.158,1358.55 922.158,1357.12 922.158,1355.7 922.158,1354.27 922.158,1352.84 922.158,1351.42 922.158,1349.99 922.158,1348.56 922.158,1347.14 922.158,1345.71 922.158,1344.28 922.158,1342.86 922.158,1341.43 922.158,1340.01 922.158,1338.58 922.158,1337.15 922.158,1335.73 922.158,1334.3 922.158,1332.87 922.158,1331.45 922.158,1330.02 922.158,1328.6 922.158,1327.17 922.158,1325.74 922.158,1324.32 922.158,1322.89 922.158,1321.46 922.158,1320.04 922.158,1318.61 922.158,1317.18 922.158,1315.76 922.158,1314.33 922.158,1312.91 922.158,1311.48 922.158,1310.05 922.158,1308.63 922.158,1307.2 922.158,1305.77 922.158,1304.35 922.158,1302.92 922.158,1301.5 922.158,1300.07 922.158,1298.64 922.158,1297.22 922.158,1295.79 922.158,1294.36 922.158,1292.94 922.158,1291.51 922.158,1290.08 922.158,1288.66 922.158,1287.23 922.158,1285.81 922.158,1284.38 922.158,1282.95 922.158,1281.53 922.158,1280.1 922.158,1278.67 922.158,1277.25 922.158,1275.82 922.158,1274.4 922.158,1272.97 922.158,1271.54 922.158,1270.12 922.158,1268.69 922.158,1267.26 922.158,1265.84 922.158,1264.41 922.158,1262.98 922.158,1261.56 922.158,1260.13 922.158,1258.71 922.158,1257.28 922.158,1255.85 922.158,1254.43 922.159,1253 922.16,1251.57 922.165,1250.15 922.177,1248.72 922.206,1247.3 922.273,1245.87 922.42,1244.44 922.727,1243.02 923.331,1241.59 924.461,1240.16 926.458,1238.74 929.798,1237.31 935.074,1235.88 942.934,1234.46 953.958,1233.03 968.473,1231.61 986.345,1230.18 1006.8,1228.75 1028.37,1227.33 1048.98,1225.9 1066.26,1224.47 1077.96,1223.05 1082.45,1221.62 761.867,1221.62 766.359,1223.05 778.058,1224.47 795.333,1225.9 815.944,1227.33 837.513,1228.75 857.971,1230.18 875.842,1231.61 890.357,1233.03 901.381,1234.46 909.242,1235.88 914.517,1237.31 917.857,1238.74 919.854,1240.16 920.984,1241.59 921.589,1243.02 921.895,1244.44 922.042,1245.87 922.11,1247.3 922.139,1248.72 922.15,1250.15 922.155,1251.57 922.157,1253 922.157,1254.43 922.158,1255.85 922.158,1257.28 922.158,1258.71 922.158,1260.13 922.158,1261.56 922.158,1262.98 922.158,1264.41 922.158,1265.84 922.158,1267.26 922.158,1268.69 922.158,1270.12 922.158,1271.54 922.158,1272.97 922.158,1274.4 922.158,1275.82 922.158,1277.25 922.158,1278.67 922.158,1280.1 922.158,1281.53 922.158,1282.95 922.158,1284.38 922.158,1285.81 922.158,1287.23 922.158,1288.66 922.158,1290.08 922.158,1291.51 922.158,1292.94 922.158,1294.36 922.158,1295.79 922.158,1297.22 922.158,1298.64 922.158,1300.07 922.158,1301.5 922.158,1302.92 922.158,1304.35 922.158,1305.77 922.158,1307.2 922.158,1308.63 922.158,1310.05 922.158,1311.48 922.158,1312.91 922.158,1314.33 922.158,1315.76 922.158,1317.18 922.158,1318.61 922.158,1320.04 922.158,1321.46 922.158,1322.89 922.158,1324.32 922.158,1325.74 922.158,1327.17 922.158,1328.6 922.158,1330.02 922.158,1331.45 922.158,1332.87 922.158,1334.3 922.158,1335.73 922.158,1337.15 922.158,1338.58 922.158,1340.01 922.158,1341.43 922.158,1342.86 922.158,1344.28 922.158,1345.71 922.158,1347.14 922.158,1348.56 922.158,1349.99 922.158,1351.42 922.158,1352.84 922.158,1354.27 922.158,1355.7 922.158,1357.12 922.158,1358.55 922.158,1359.97 922.158,1361.4 922.158,1362.83 922.158,1364.25 922.158,1365.68 922.158,1367.11 922.158,1368.53 922.158,1369.96 922.158,1371.38 922.158,1372.81 922.158,1374.24 922.158,1375.66 922.158,1377.09 922.158,1378.52 922.158,1379.94 922.158,1381.37 922.158,1382.8 922.158,1384.22 922.158,1385.65 922.158,1387.07 922.158,1388.5 922.158,1389.93 922.158,1391.35 922.158,1392.78 922.158,1394.21 922.158,1395.63 922.158,1397.06 922.158,1398.48 922.158,1399.91 922.158,1401.34 922.158,1402.76 922.158,1404.19 922.158,1405.62 922.157,1407.04 922.157,1408.47 922.156,1409.9 922.153,1411.32 922.144,1412.75 922.122,1414.17 922.072,1415.6 921.959,1417.03 921.721,1418.45 921.242,1419.88 920.33,1421.31 918.68,1422.73 915.851,1424.16 911.25,1425.58 904.159,1427.01 893.797,1428.44 879.441,1429.86 860.576,1431.29 837.031,1432.72 809.069,1434.14 777.365,1435.57 742.868,1437 706.589,1438.42 669.391,1439.85 631.894,1441.27 594.546,1442.7 557.893,1444.13 522.918,1445.55 491.337,1446.98 465.649,1448.41 448.878,1449.83 444.002,1451.26 453.222,1452.68 477.295,1454.11 1367.02,1454.11 "/>
<path clip-path="url(#clip211)" d="M2819.99 248.709 L2820.44 247.02 L2819.84 245.33 L2818.27 243.641 L2815.85 241.952 L2812.69 240.262 L2808.96 238.573 L2804.82 236.883 L2800.47 235.194 L2796.1 233.505 L2791.92 231.815 L2788.15 230.126 L2784.99 228.437 L2782.65 226.747 L2781.31 225.058 L2781.14 223.369 L2782.3 221.679 L2784.9 219.99 L2789.05 218.301 L2794.8 216.611 L2802.19 214.922 L2811.19 213.233 L2821.78 211.543 L2833.85 209.854 L2847.29 208.165 L2861.95 206.475 L2877.63 204.786 L2894.12 203.097 L2911.19 201.407 L2928.58 199.718 L2946.02 198.028 L2963.23 196.339 L2979.95 194.65 L2995.91 192.96 L3010.87 191.271 L3024.59 189.582 L3036.89 187.892 L3047.58 186.203 L3056.54 184.514 L3063.68 182.824 L3068.94 181.135 L3072.33 179.446 L3073.86 177.756 L3073.61 176.067 L3071.67 174.378 L3068.19 172.688 L3063.31 170.999 L3057.2 169.31 L3050.05 167.62 L3042.05 165.931 L3033.37 164.241 L3024.21 162.552 L3014.71 160.863 L3005.04 159.173 L2995.31 157.484 L2985.63 155.795 L2976.08 154.105 L2966.72 152.416 L2957.59 150.727 L2948.7 149.037 L2940.07 147.348 L2931.67 145.659 L2923.51 143.969 L2915.55 142.28 L2907.79 140.591 L2900.2 138.901 L2892.79 137.212 L2885.55 135.523 L2878.5 133.833 L2871.68 132.144 L2865.1 130.455 L2858.84 128.765 L2852.93 127.076 L2847.44 125.386 L2842.43 123.697 L2837.95 122.008 L2834.07 120.318 L2830.81 118.629 L2828.22 116.94 L2826.31 115.25 L2825.06 113.561 L2824.46 111.872 L2824.45 110.182 L2824.98 108.493 L2825.95 106.804 L2827.27 105.114 L2828.81 103.425 L2830.44 101.736 L2832.04 100.046 L2833.45 98.3569 L2834.54 96.6675 L2835.18 94.9782 L2835.24 93.2889 L2834.61 91.5995 L2833.2 89.9102 L2830.94 88.2208 L2360.47 88.2208 L2358.21 89.9102 L2356.8 91.5995 L2356.17 93.2889 L2356.23 94.9782 L2356.87 96.6675 L2357.96 98.3569 L2359.37 100.046 L2360.96 101.736 L2362.6 103.425 L2364.14 105.114 L2365.46 106.804 L2366.43 108.493 L2366.96 110.182 L2366.95 111.872 L2366.35 113.561 L2365.1 115.25 L2363.19 116.94 L2360.6 118.629 L2357.34 120.318 L2353.46 122.008 L2348.98 123.697 L2343.97 125.386 L2338.48 127.076 L2332.57 128.765 L2326.3 130.455 L2319.73 132.144 L2312.91 133.833 L2305.86 135.523 L2298.62 137.212 L2291.21 138.901 L2283.62 140.591 L2275.86 142.28 L2267.9 143.969 L2259.73 145.659 L2251.34 147.348 L2242.7 149.037 L2233.82 150.727 L2224.69 152.416 L2215.33 154.105 L2205.78 155.795 L2196.1 157.484 L2186.37 159.173 L2176.69 160.863 L2167.2 162.552 L2158.03 164.241 L2149.36 165.931 L2141.36 167.62 L2134.21 169.31 L2128.1 170.999 L2123.22 172.688 L2119.73 174.378 L2117.8 176.067 L2117.55 177.756 L2119.08 179.446 L2122.46 181.135 L2127.73 182.824 L2134.87 184.514 L2143.83 186.203 L2154.52 187.892 L2166.81 189.582 L2180.54 191.271 L2195.49 192.96 L2211.46 194.65 L2228.18 196.339 L2245.39 198.028 L2262.83 199.718 L2280.22 201.407 L2297.28 203.097 L2313.78 204.786 L2329.46 206.475 L2344.12 208.165 L2357.56 209.854 L2369.63 211.543 L2380.21 213.233 L2389.22 214.922 L2396.61 216.611 L2402.36 218.301 L2406.51 219.99 L2409.11 221.679 L2410.27 223.369 L2410.1 225.058 L2408.76 226.747 L2406.41 228.437 L2403.26 230.126 L2399.48 231.815 L2395.31 233.505 L2390.94 235.194 L2386.59 236.883 L2382.45 238.573 L2378.72 240.262 L2375.56 241.952 L2373.14 243.641 L2371.57 245.33 L2370.97 247.02 L2371.42 248.709 L2819.99 248.709  Z" fill="#e26f46" fill-rule="evenodd" fill-opacity="1"/>
<polyline clip-path="url(#clip211)" style="stroke:#000000; stroke-linecap:round; stroke-linejoin:round; stroke-width:4; stroke-opacity:1; fill:none" points="2819.99,248.709 2820.44,247.02 2819.84,245.33 2818.27,243.641 2815.85,241.952 2812.69,240.262 2808.96,238.573 2804.82,236.883 2800.47,235.194 2796.1,233.505 2791.92,231.815 2788.15,230.126 2784.99,228.437 2782.65,226.747 2781.31,225.058 2781.14,223.369 2782.3,221.679 2784.9,219.99 2789.05,218.301 2794.8,216.611 2802.19,214.922 2811.19,213.233 2821.78,211.543 2833.85,209.854 2847.29,208.165 2861.95,206.475 2877.63,204.786 2894.12,203.097 2911.19,201.407 2928.58,199.718 2946.02,198.028 2963.23,196.339 2979.95,194.65 2995.91,192.96 3010.87,191.271 3024.59,189.582 3036.89,187.892 3047.58,186.203 3056.54,184.514 3063.68,182.824 3068.94,181.135 3072.33,179.446 3073.86,177.756 3073.61,176.067 3071.67,174.378 3068.19,172.688 3063.31,170.999 3057.2,169.31 3050.05,167.62 3042.05,165.931 3033.37,164.241 3024.21,162.552 3014.71,160.863 3005.04,159.173 2995.31,157.484 2985.63,155.795 2976.08,154.105 2966.72,152.416 2957.59,150.727 2948.7,149.037 2940.07,147.348 2931.67,145.659 2923.51,143.969 2915.55,142.28 2907.79,140.591 2900.2,138.901 2892.79,137.212 2885.55,135.523 2878.5,133.833 2871.68,132.144 2865.1,130.455 2858.84,128.765 2852.93,127.076 2847.44,125.386 2842.43,123.697 2837.95,122.008 2834.07,120.318 2830.81,118.629 2828.22,116.94 2826.31,115.25 2825.06,113.561 2824.46,111.872 2824.45,110.182 2824.98,108.493 2825.95,106.804 2827.27,105.114 2828.81,103.425 2830.44,101.736 2832.04,100.046 2833.45,98.3569 2834.54,96.6675 2835.18,94.9782 2835.24,93.2889 2834.61,91.5995 2833.2,89.9102 2830.94,88.2208 2360.47,88.2208 2358.21,89.9102 2356.8,91.5995 2356.17,93.2889 2356.23,94.9782 2356.87,96.6675 2357.96,98.3569 2359.37,100.046 2360.96,101.736 2362.6,103.425 2364.14,105.114 2365.46,106.804 2366.43,108.493 2366.96,110.182 2366.95,111.872 2366.35,113.561 2365.1,115.25 2363.19,116.94 2360.6,118.629 2357.34,120.318 2353.46,122.008 2348.98,123.697 2343.97,125.386 2338.48,127.076 2332.57,128.765 2326.3,130.455 2319.73,132.144 2312.91,133.833 2305.86,135.523 2298.62,137.212 2291.21,138.901 2283.62,140.591 2275.86,142.28 2267.9,143.969 2259.73,145.659 2251.34,147.348 2242.7,149.037 2233.82,150.727 2224.69,152.416 2215.33,154.105 2205.78,155.795 2196.1,157.484 2186.37,159.173 2176.69,160.863 2167.2,162.552 2158.03,164.241 2149.36,165.931 2141.36,167.62 2134.21,169.31 2128.1,170.999 2123.22,172.688 2119.73,174.378 2117.8,176.067 2117.55,177.756 2119.08,179.446 2122.46,181.135 2127.73,182.824 2134.87,184.514 2143.83,186.203 2154.52,187.892 2166.81,189.582 2180.54,191.271 2195.49,192.96 2211.46,194.65 2228.18,196.339 2245.39,198.028 2262.83,199.718 2280.22,201.407 2297.28,203.097 2313.78,204.786 2329.46,206.475 2344.12,208.165 2357.56,209.854 2369.63,211.543 2380.21,213.233 2389.22,214.922 2396.61,216.611 2402.36,218.301 2406.51,219.99 2409.11,221.679 2410.27,223.369 2410.1,225.058 2408.76,226.747 2406.41,228.437 2403.26,230.126 2399.48,231.815 2395.31,233.505 2390.94,235.194 2386.59,236.883 2382.45,238.573 2378.72,240.262 2375.56,241.952 2373.14,243.641 2371.57,245.33 2370.97,247.02 2371.42,248.709 2819.99,248.709 "/>
</svg>
