<?xml version="1.0" encoding="utf-8"?>
<svg xmlns="http://www.w3.org/2000/svg" xmlns:xlink="http://www.w3.org/1999/xlink" width="600" height="400" viewBox="0 0 2400 1600">
<defs>
  <clipPath id="clip350">
    <rect x="0" y="0" width="2400" height="1600"/>
  </clipPath>
</defs>
<path clip-path="url(#clip350)" d="M0 1600 L2400 1600 L2400 0 L0 0  Z" fill="#ffffff" fill-rule="evenodd" fill-opacity="1"/>
<defs>
  <clipPath id="clip351">
    <rect x="394" y="47" width="1959" height="1377"/>
  </clipPath>
</defs>
<path clip-path="url(#clip350)" d="M394.884 1423.18 L2352.76 1423.18 L2352.76 47.2441 L394.884 47.2441  Z" fill="#ffffff" fill-rule="evenodd" fill-opacity="1"/>
<polyline clip-path="url(#clip351)" style="stroke:#000000; stroke-linecap:round; stroke-linejoin:round; stroke-width:2; stroke-opacity:0.1; fill:none" points="758.137,1423.18 758.137,47.2441 "/>
<polyline clip-path="url(#clip351)" style="stroke:#000000; stroke-linecap:round; stroke-linejoin:round; stroke-width:2; stroke-opacity:0.1; fill:none" points="1142.94,1423.18 1142.94,47.2441 "/>
<polyline clip-path="url(#clip351)" style="stroke:#000000; stroke-linecap:round; stroke-linejoin:round; stroke-width:2; stroke-opacity:0.1; fill:none" points="1527.74,1423.18 1527.74,47.2441 "/>
<polyline clip-path="url(#clip351)" style="stroke:#000000; stroke-linecap:round; stroke-linejoin:round; stroke-width:2; stroke-opacity:0.1; fill:none" points="1912.54,1423.18 1912.54,47.2441 "/>
<polyline clip-path="url(#clip351)" style="stroke:#000000; stroke-linecap:round; stroke-linejoin:round; stroke-width:2; stroke-opacity:0.1; fill:none" points="2297.34,1423.18 2297.34,47.2441 "/>
<polyline clip-path="url(#clip351)" style="stroke:#000000; stroke-linecap:round; stroke-linejoin:round; stroke-width:2; stroke-opacity:0.1; fill:none" points="394.884,1273.79 2352.76,1273.79 "/>
<polyline clip-path="url(#clip351)" style="stroke:#000000; stroke-linecap:round; stroke-linejoin:round; stroke-width:2; stroke-opacity:0.1; fill:none" points="394.884,1096.79 2352.76,1096.79 "/>
<polyline clip-path="url(#clip351)" style="stroke:#000000; stroke-linecap:round; stroke-linejoin:round; stroke-width:2; stroke-opacity:0.1; fill:none" points="394.884,919.792 2352.76,919.792 "/>
<polyline clip-path="url(#clip351)" style="stroke:#000000; stroke-linecap:round; stroke-linejoin:round; stroke-width:2; stroke-opacity:0.1; fill:none" points="394.884,742.796 2352.76,742.796 "/>
<polyline clip-path="url(#clip351)" style="stroke:#000000; stroke-linecap:round; stroke-linejoin:round; stroke-width:2; stroke-opacity:0.1; fill:none" points="394.884,565.799 2352.76,565.799 "/>
<polyline clip-path="url(#clip351)" style="stroke:#000000; stroke-linecap:round; stroke-linejoin:round; stroke-width:2; stroke-opacity:0.1; fill:none" points="394.884,388.803 2352.76,388.803 "/>
<polyline clip-path="url(#clip351)" style="stroke:#000000; stroke-linecap:round; stroke-linejoin:round; stroke-width:2; stroke-opacity:0.1; fill:none" points="394.884,211.806 2352.76,211.806 "/>
<polyline clip-path="url(#clip350)" style="stroke:#000000; stroke-linecap:round; stroke-linejoin:round; stroke-width:4; stroke-opacity:1; fill:none" points="394.884,1423.18 2352.76,1423.18 "/>
<polyline clip-path="url(#clip350)" style="stroke:#000000; stroke-linecap:round; stroke-linejoin:round; stroke-width:4; stroke-opacity:1; fill:none" points="758.137,1423.18 758.137,1404.28 "/>
<polyline clip-path="url(#clip350)" style="stroke:#000000; stroke-linecap:round; stroke-linejoin:round; stroke-width:4; stroke-opacity:1; fill:none" points="1142.94,1423.18 1142.94,1404.28 "/>
<polyline clip-path="url(#clip350)" style="stroke:#000000; stroke-linecap:round; stroke-linejoin:round; stroke-width:4; stroke-opacity:1; fill:none" points="1527.74,1423.18 1527.74,1404.28 "/>
<polyline clip-path="url(#clip350)" style="stroke:#000000; stroke-linecap:round; stroke-linejoin:round; stroke-width:4; stroke-opacity:1; fill:none" points="1912.54,1423.18 1912.54,1404.28 "/>
<polyline clip-path="url(#clip350)" style="stroke:#000000; stroke-linecap:round; stroke-linejoin:round; stroke-width:4; stroke-opacity:1; fill:none" points="2297.34,1423.18 2297.34,1404.28 "/>
<path clip-path="url(#clip350)" d="M721.829 1481.64 L738.149 1481.64 L738.149 1485.58 L716.204 1485.58 L716.204 1481.64 Q718.866 1478.89 723.45 1474.26 Q728.056 1469.61 729.237 1468.27 Q731.482 1465.74 732.362 1464.01 Q733.265 1462.25 733.265 1460.56 Q733.265 1457.8 731.32 1456.07 Q729.399 1454.33 726.297 1454.33 Q724.098 1454.33 721.644 1455.09 Q719.214 1455.86 716.436 1457.41 L716.436 1452.69 Q719.26 1451.55 721.714 1450.97 Q724.167 1450.39 726.204 1450.39 Q731.575 1450.39 734.769 1453.08 Q737.964 1455.77 737.964 1460.26 Q737.964 1462.39 737.153 1464.31 Q736.366 1466.2 734.26 1468.8 Q733.681 1469.47 730.579 1472.69 Q727.478 1475.88 721.829 1481.64 Z" fill="#000000" fill-rule="nonzero" fill-opacity="1" /><path clip-path="url(#clip350)" d="M757.963 1454.1 Q754.352 1454.1 752.524 1457.66 Q750.718 1461.2 750.718 1468.33 Q750.718 1475.44 752.524 1479.01 Q754.352 1482.55 757.963 1482.55 Q761.598 1482.55 763.403 1479.01 Q765.232 1475.44 765.232 1468.33 Q765.232 1461.2 763.403 1457.66 Q761.598 1454.1 757.963 1454.1 M757.963 1450.39 Q763.774 1450.39 766.829 1455 Q769.908 1459.58 769.908 1468.33 Q769.908 1477.06 766.829 1481.67 Q763.774 1486.25 757.963 1486.25 Q752.153 1486.25 749.075 1481.67 Q746.019 1477.06 746.019 1468.33 Q746.019 1459.58 749.075 1455 Q752.153 1450.39 757.963 1450.39 Z" fill="#000000" fill-rule="nonzero" fill-opacity="1" /><path clip-path="url(#clip350)" d="M788.125 1454.1 Q784.514 1454.1 782.686 1457.66 Q780.88 1461.2 780.88 1468.33 Q780.88 1475.44 782.686 1479.01 Q784.514 1482.55 788.125 1482.55 Q791.76 1482.55 793.565 1479.01 Q795.394 1475.44 795.394 1468.33 Q795.394 1461.2 793.565 1457.66 Q791.76 1454.1 788.125 1454.1 M788.125 1450.39 Q793.935 1450.39 796.991 1455 Q800.07 1459.58 800.07 1468.33 Q800.07 1477.06 796.991 1481.67 Q793.935 1486.25 788.125 1486.25 Q782.315 1486.25 779.236 1481.67 Q776.181 1477.06 776.181 1468.33 Q776.181 1459.58 779.236 1455 Q782.315 1450.39 788.125 1450.39 Z" fill="#000000" fill-rule="nonzero" fill-opacity="1" /><path clip-path="url(#clip350)" d="M1116.03 1455.09 L1104.22 1473.54 L1116.03 1473.54 L1116.03 1455.09 M1114.8 1451.02 L1120.68 1451.02 L1120.68 1473.54 L1125.61 1473.54 L1125.61 1477.43 L1120.68 1477.43 L1120.68 1485.58 L1116.03 1485.58 L1116.03 1477.43 L1100.43 1477.43 L1100.43 1472.92 L1114.8 1451.02 Z" fill="#000000" fill-rule="nonzero" fill-opacity="1" /><path clip-path="url(#clip350)" d="M1143.34 1454.1 Q1139.73 1454.1 1137.9 1457.66 Q1136.1 1461.2 1136.1 1468.33 Q1136.1 1475.44 1137.9 1479.01 Q1139.73 1482.55 1143.34 1482.55 Q1146.98 1482.55 1148.78 1479.01 Q1150.61 1475.44 1150.61 1468.33 Q1150.61 1461.2 1148.78 1457.66 Q1146.98 1454.1 1143.34 1454.1 M1143.34 1450.39 Q1149.15 1450.39 1152.21 1455 Q1155.29 1459.58 1155.29 1468.33 Q1155.29 1477.06 1152.21 1481.67 Q1149.15 1486.25 1143.34 1486.25 Q1137.53 1486.25 1134.46 1481.67 Q1131.4 1477.06 1131.4 1468.33 Q1131.4 1459.58 1134.46 1455 Q1137.53 1450.39 1143.34 1450.39 Z" fill="#000000" fill-rule="nonzero" fill-opacity="1" /><path clip-path="url(#clip350)" d="M1173.51 1454.1 Q1169.89 1454.1 1168.07 1457.66 Q1166.26 1461.2 1166.26 1468.33 Q1166.26 1475.44 1168.07 1479.01 Q1169.89 1482.55 1173.51 1482.55 Q1177.14 1482.55 1178.95 1479.01 Q1180.77 1475.44 1180.77 1468.33 Q1180.77 1461.2 1178.95 1457.66 Q1177.14 1454.1 1173.51 1454.1 M1173.51 1450.39 Q1179.32 1450.39 1182.37 1455 Q1185.45 1459.58 1185.45 1468.33 Q1185.45 1477.06 1182.37 1481.67 Q1179.32 1486.25 1173.51 1486.25 Q1167.7 1486.25 1164.62 1481.67 Q1161.56 1477.06 1161.56 1468.33 Q1161.56 1459.58 1164.62 1455 Q1167.7 1450.39 1173.51 1450.39 Z" fill="#000000" fill-rule="nonzero" fill-opacity="1" /><path clip-path="url(#clip350)" d="M1498.06 1466.44 Q1494.92 1466.44 1493.07 1468.59 Q1491.24 1470.74 1491.24 1474.49 Q1491.24 1478.22 1493.07 1480.39 Q1494.92 1482.55 1498.06 1482.55 Q1501.21 1482.55 1503.04 1480.39 Q1504.89 1478.22 1504.89 1474.49 Q1504.89 1470.74 1503.04 1468.59 Q1501.21 1466.44 1498.06 1466.44 M1507.35 1451.78 L1507.35 1456.04 Q1505.59 1455.21 1503.78 1454.77 Q1502 1454.33 1500.24 1454.33 Q1495.61 1454.33 1493.16 1457.45 Q1490.73 1460.58 1490.38 1466.9 Q1491.75 1464.89 1493.81 1463.82 Q1495.87 1462.73 1498.34 1462.73 Q1503.55 1462.73 1506.56 1465.9 Q1509.59 1469.05 1509.59 1474.49 Q1509.59 1479.82 1506.44 1483.03 Q1503.3 1486.25 1498.06 1486.25 Q1492.07 1486.25 1488.9 1481.67 Q1485.73 1477.06 1485.73 1468.33 Q1485.73 1460.14 1489.62 1455.28 Q1493.5 1450.39 1500.06 1450.39 Q1501.81 1450.39 1503.6 1450.74 Q1505.4 1451.09 1507.35 1451.78 Z" fill="#000000" fill-rule="nonzero" fill-opacity="1" /><path clip-path="url(#clip350)" d="M1527.65 1454.1 Q1524.04 1454.1 1522.21 1457.66 Q1520.4 1461.2 1520.4 1468.33 Q1520.4 1475.44 1522.21 1479.01 Q1524.04 1482.55 1527.65 1482.55 Q1531.28 1482.55 1533.09 1479.01 Q1534.92 1475.44 1534.92 1468.33 Q1534.92 1461.2 1533.09 1457.66 Q1531.28 1454.1 1527.65 1454.1 M1527.65 1450.39 Q1533.46 1450.39 1536.51 1455 Q1539.59 1459.58 1539.59 1468.33 Q1539.59 1477.06 1536.51 1481.67 Q1533.46 1486.25 1527.65 1486.25 Q1521.84 1486.25 1518.76 1481.67 Q1515.7 1477.06 1515.7 1468.33 Q1515.7 1459.58 1518.76 1455 Q1521.84 1450.39 1527.65 1450.39 Z" fill="#000000" fill-rule="nonzero" fill-opacity="1" /><path clip-path="url(#clip350)" d="M1557.81 1454.1 Q1554.2 1454.1 1552.37 1457.66 Q1550.56 1461.2 1550.56 1468.33 Q1550.56 1475.44 1552.37 1479.01 Q1554.2 1482.55 1557.81 1482.55 Q1561.44 1482.55 1563.25 1479.01 Q1565.08 1475.44 1565.08 1468.33 Q1565.08 1461.2 1563.25 1457.66 Q1561.44 1454.1 1557.81 1454.1 M1557.81 1450.39 Q1563.62 1450.39 1566.68 1455 Q1569.75 1459.58 1569.75 1468.33 Q1569.75 1477.06 1566.68 1481.67 Q1563.62 1486.25 1557.81 1486.25 Q1552 1486.25 1548.92 1481.67 Q1545.87 1477.06 1545.87 1468.33 Q1545.87 1459.58 1548.92 1455 Q1552 1450.39 1557.81 1450.39 Z" fill="#000000" fill-rule="nonzero" fill-opacity="1" /><path clip-path="url(#clip350)" d="M1882.33 1469.17 Q1879 1469.17 1877.08 1470.95 Q1875.18 1472.73 1875.18 1475.86 Q1875.18 1478.98 1877.08 1480.77 Q1879 1482.55 1882.33 1482.55 Q1885.67 1482.55 1887.59 1480.77 Q1889.51 1478.96 1889.51 1475.86 Q1889.51 1472.73 1887.59 1470.95 Q1885.69 1469.17 1882.33 1469.17 M1877.66 1467.18 Q1874.65 1466.44 1872.96 1464.38 Q1871.29 1462.32 1871.29 1459.35 Q1871.29 1455.21 1874.23 1452.8 Q1877.2 1450.39 1882.33 1450.39 Q1887.5 1450.39 1890.44 1452.8 Q1893.38 1455.21 1893.38 1459.35 Q1893.38 1462.32 1891.69 1464.38 Q1890.02 1466.44 1887.03 1467.18 Q1890.41 1467.96 1892.29 1470.26 Q1894.19 1472.55 1894.19 1475.86 Q1894.19 1480.88 1891.11 1483.57 Q1888.05 1486.25 1882.33 1486.25 Q1876.62 1486.25 1873.54 1483.57 Q1870.48 1480.88 1870.48 1475.86 Q1870.48 1472.55 1872.38 1470.26 Q1874.28 1467.96 1877.66 1467.18 M1875.95 1459.79 Q1875.95 1462.48 1877.61 1463.98 Q1879.3 1465.49 1882.33 1465.49 Q1885.34 1465.49 1887.03 1463.98 Q1888.75 1462.48 1888.75 1459.79 Q1888.75 1457.11 1887.03 1455.6 Q1885.34 1454.1 1882.33 1454.1 Q1879.3 1454.1 1877.61 1455.6 Q1875.95 1457.11 1875.95 1459.79 Z" fill="#000000" fill-rule="nonzero" fill-opacity="1" /><path clip-path="url(#clip350)" d="M1912.5 1454.1 Q1908.89 1454.1 1907.06 1457.66 Q1905.25 1461.2 1905.25 1468.33 Q1905.25 1475.44 1907.06 1479.01 Q1908.89 1482.55 1912.5 1482.55 Q1916.13 1482.55 1917.94 1479.01 Q1919.76 1475.44 1919.76 1468.33 Q1919.76 1461.2 1917.94 1457.66 Q1916.13 1454.1 1912.5 1454.1 M1912.5 1450.39 Q1918.31 1450.39 1921.36 1455 Q1924.44 1459.58 1924.44 1468.33 Q1924.44 1477.06 1921.36 1481.67 Q1918.31 1486.25 1912.5 1486.25 Q1906.69 1486.25 1903.61 1481.67 Q1900.55 1477.06 1900.55 1468.33 Q1900.55 1459.58 1903.61 1455 Q1906.69 1450.39 1912.5 1450.39 Z" fill="#000000" fill-rule="nonzero" fill-opacity="1" /><path clip-path="url(#clip350)" d="M1942.66 1454.1 Q1939.05 1454.1 1937.22 1457.66 Q1935.41 1461.2 1935.41 1468.33 Q1935.41 1475.44 1937.22 1479.01 Q1939.05 1482.55 1942.66 1482.55 Q1946.29 1482.55 1948.1 1479.01 Q1949.93 1475.44 1949.93 1468.33 Q1949.93 1461.2 1948.1 1457.66 Q1946.29 1454.1 1942.66 1454.1 M1942.66 1450.39 Q1948.47 1450.39 1951.52 1455 Q1954.6 1459.58 1954.6 1468.33 Q1954.6 1477.06 1951.52 1481.67 Q1948.47 1486.25 1942.66 1486.25 Q1936.85 1486.25 1933.77 1481.67 Q1930.71 1477.06 1930.71 1468.33 Q1930.71 1459.58 1933.77 1455 Q1936.85 1450.39 1942.66 1450.39 Z" fill="#000000" fill-rule="nonzero" fill-opacity="1" /><path clip-path="url(#clip350)" d="M2241.87 1481.64 L2249.51 1481.64 L2249.51 1455.28 L2241.2 1456.95 L2241.2 1452.69 L2249.46 1451.02 L2254.14 1451.02 L2254.14 1481.64 L2261.78 1481.64 L2261.78 1485.58 L2241.87 1485.58 L2241.87 1481.64 Z" fill="#000000" fill-rule="nonzero" fill-opacity="1" /><path clip-path="url(#clip350)" d="M2281.22 1454.1 Q2277.61 1454.1 2275.78 1457.66 Q2273.98 1461.2 2273.98 1468.33 Q2273.98 1475.44 2275.78 1479.01 Q2277.61 1482.55 2281.22 1482.55 Q2284.86 1482.55 2286.66 1479.01 Q2288.49 1475.44 2288.49 1468.33 Q2288.49 1461.2 2286.66 1457.66 Q2284.86 1454.1 2281.22 1454.1 M2281.22 1450.39 Q2287.03 1450.39 2290.09 1455 Q2293.17 1459.58 2293.17 1468.33 Q2293.17 1477.06 2290.09 1481.67 Q2287.03 1486.25 2281.22 1486.25 Q2275.41 1486.25 2272.33 1481.67 Q2269.28 1477.06 2269.28 1468.33 Q2269.28 1459.58 2272.33 1455 Q2275.41 1450.39 2281.22 1450.39 Z" fill="#000000" fill-rule="nonzero" fill-opacity="1" /><path clip-path="url(#clip350)" d="M2311.38 1454.1 Q2307.77 1454.1 2305.94 1457.66 Q2304.14 1461.2 2304.14 1468.33 Q2304.14 1475.44 2305.94 1479.01 Q2307.77 1482.55 2311.38 1482.55 Q2315.02 1482.55 2316.82 1479.01 Q2318.65 1475.44 2318.65 1468.33 Q2318.65 1461.2 2316.82 1457.66 Q2315.02 1454.1 2311.38 1454.1 M2311.38 1450.39 Q2317.19 1450.39 2320.25 1455 Q2323.33 1459.58 2323.33 1468.33 Q2323.33 1477.06 2320.25 1481.67 Q2317.19 1486.25 2311.38 1486.25 Q2305.57 1486.25 2302.49 1481.67 Q2299.44 1477.06 2299.44 1468.33 Q2299.44 1459.58 2302.49 1455 Q2305.57 1450.39 2311.38 1450.39 Z" fill="#000000" fill-rule="nonzero" fill-opacity="1" /><path clip-path="url(#clip350)" d="M2341.55 1454.1 Q2337.93 1454.1 2336.11 1457.66 Q2334.3 1461.2 2334.3 1468.33 Q2334.3 1475.44 2336.11 1479.01 Q2337.93 1482.55 2341.55 1482.55 Q2345.18 1482.55 2346.99 1479.01 Q2348.81 1475.44 2348.81 1468.33 Q2348.81 1461.2 2346.99 1457.66 Q2345.18 1454.1 2341.55 1454.1 M2341.55 1450.39 Q2347.36 1450.39 2350.41 1455 Q2353.49 1459.58 2353.49 1468.33 Q2353.49 1477.06 2350.41 1481.67 Q2347.36 1486.25 2341.55 1486.25 Q2335.74 1486.25 2332.66 1481.67 Q2329.6 1477.06 2329.6 1468.33 Q2329.6 1459.58 2332.66 1455 Q2335.74 1450.39 2341.55 1450.39 Z" fill="#000000" fill-rule="nonzero" fill-opacity="1" /><path clip-path="url(#clip350)" d="M1370.89 1518.52 L1376.75 1518.52 L1376.75 1568.04 L1370.89 1568.04 L1370.89 1518.52 Z" fill="#000000" fill-rule="nonzero" fill-opacity="1" /><polyline clip-path="url(#clip350)" style="stroke:#000000; stroke-linecap:round; stroke-linejoin:round; stroke-width:4; stroke-opacity:1; fill:none" points="394.884,1423.18 394.884,47.2441 "/>
<polyline clip-path="url(#clip350)" style="stroke:#000000; stroke-linecap:round; stroke-linejoin:round; stroke-width:4; stroke-opacity:1; fill:none" points="394.884,1273.79 413.782,1273.79 "/>
<polyline clip-path="url(#clip350)" style="stroke:#000000; stroke-linecap:round; stroke-linejoin:round; stroke-width:4; stroke-opacity:1; fill:none" points="394.884,1096.79 413.782,1096.79 "/>
<polyline clip-path="url(#clip350)" style="stroke:#000000; stroke-linecap:round; stroke-linejoin:round; stroke-width:4; stroke-opacity:1; fill:none" points="394.884,919.792 413.782,919.792 "/>
<polyline clip-path="url(#clip350)" style="stroke:#000000; stroke-linecap:round; stroke-linejoin:round; stroke-width:4; stroke-opacity:1; fill:none" points="394.884,742.796 413.782,742.796 "/>
<polyline clip-path="url(#clip350)" style="stroke:#000000; stroke-linecap:round; stroke-linejoin:round; stroke-width:4; stroke-opacity:1; fill:none" points="394.884,565.799 413.782,565.799 "/>
<polyline clip-path="url(#clip350)" style="stroke:#000000; stroke-linecap:round; stroke-linejoin:round; stroke-width:4; stroke-opacity:1; fill:none" points="394.884,388.803 413.782,388.803 "/>
<polyline clip-path="url(#clip350)" style="stroke:#000000; stroke-linecap:round; stroke-linejoin:round; stroke-width:4; stroke-opacity:1; fill:none" points="394.884,211.806 413.782,211.806 "/>
<path clip-path="url(#clip350)" d="M121.043 1293.58 L137.362 1293.58 L137.362 1297.51 L115.418 1297.51 L115.418 1293.58 Q118.08 1290.82 122.663 1286.19 Q127.269 1281.54 128.45 1280.2 Q130.695 1277.68 131.575 1275.94 Q132.478 1274.18 132.478 1272.49 Q132.478 1269.74 130.533 1268 Q128.612 1266.26 125.51 1266.26 Q123.311 1266.26 120.857 1267.03 Q118.427 1267.79 115.649 1269.34 L115.649 1264.62 Q118.473 1263.49 120.927 1262.91 Q123.38 1262.33 125.418 1262.33 Q130.788 1262.33 133.982 1265.01 Q137.177 1267.7 137.177 1272.19 Q137.177 1274.32 136.367 1276.24 Q135.579 1278.14 133.473 1280.73 Q132.894 1281.4 129.792 1284.62 Q126.691 1287.81 121.043 1293.58 Z" fill="#000000" fill-rule="nonzero" fill-opacity="1" /><path clip-path="url(#clip350)" d="M147.177 1291.63 L152.061 1291.63 L152.061 1297.51 L147.177 1297.51 L147.177 1291.63 Z" fill="#000000" fill-rule="nonzero" fill-opacity="1" /><path clip-path="url(#clip350)" d="M172.246 1266.03 Q168.635 1266.03 166.806 1269.6 Q165.001 1273.14 165.001 1280.27 Q165.001 1287.37 166.806 1290.94 Q168.635 1294.48 172.246 1294.48 Q175.88 1294.48 177.686 1290.94 Q179.514 1287.37 179.514 1280.27 Q179.514 1273.14 177.686 1269.6 Q175.88 1266.03 172.246 1266.03 M172.246 1262.33 Q178.056 1262.33 181.112 1266.93 Q184.19 1271.52 184.19 1280.27 Q184.19 1288.99 181.112 1293.6 Q178.056 1298.18 172.246 1298.18 Q166.436 1298.18 163.357 1293.6 Q160.302 1288.99 160.302 1280.27 Q160.302 1271.52 163.357 1266.93 Q166.436 1262.33 172.246 1262.33 Z" fill="#000000" fill-rule="nonzero" fill-opacity="1" /><path clip-path="url(#clip350)" d="M220.579 1272.05 L210 1282.68 L220.579 1293.25 L217.824 1296.05 L207.199 1285.43 L196.575 1296.05 L193.843 1293.25 L204.399 1282.68 L193.843 1272.05 L196.575 1269.25 L207.199 1279.87 L217.824 1269.25 L220.579 1272.05 Z" fill="#000000" fill-rule="nonzero" fill-opacity="1" /><path clip-path="url(#clip350)" d="M232.94 1293.58 L240.579 1293.58 L240.579 1267.21 L232.269 1268.88 L232.269 1264.62 L240.533 1262.95 L245.209 1262.95 L245.209 1293.58 L252.847 1293.58 L252.847 1297.51 L232.94 1297.51 L232.94 1293.58 Z" fill="#000000" fill-rule="nonzero" fill-opacity="1" /><path clip-path="url(#clip350)" d="M272.292 1266.03 Q268.681 1266.03 266.852 1269.6 Q265.046 1273.14 265.046 1280.27 Q265.046 1287.37 266.852 1290.94 Q268.681 1294.48 272.292 1294.48 Q275.926 1294.48 277.732 1290.94 Q279.56 1287.37 279.56 1280.27 Q279.56 1273.14 277.732 1269.6 Q275.926 1266.03 272.292 1266.03 M272.292 1262.33 Q278.102 1262.33 281.157 1266.93 Q284.236 1271.52 284.236 1280.27 Q284.236 1288.99 281.157 1293.6 Q278.102 1298.18 272.292 1298.18 Q266.482 1298.18 263.403 1293.6 Q260.347 1288.99 260.347 1280.27 Q260.347 1271.52 263.403 1266.93 Q266.482 1262.33 272.292 1262.33 Z" fill="#000000" fill-rule="nonzero" fill-opacity="1" /><path clip-path="url(#clip350)" d="M284.236 1256.43 L308.348 1256.43 L308.348 1259.63 L284.236 1259.63 L284.236 1256.43 Z" fill="#000000" fill-rule="nonzero" fill-opacity="1" /><path clip-path="url(#clip350)" d="M317.206 1266.91 L323.413 1266.91 L323.413 1245.48 L316.661 1246.84 L316.661 1243.38 L323.375 1242.02 L327.174 1242.02 L327.174 1266.91 L333.381 1266.91 L333.381 1270.1 L317.206 1270.1 L317.206 1266.91 Z" fill="#000000" fill-rule="nonzero" fill-opacity="1" /><path clip-path="url(#clip350)" d="M349.179 1244.52 Q346.245 1244.52 344.76 1247.42 Q343.292 1250.3 343.292 1256.09 Q343.292 1261.86 344.76 1264.76 Q346.245 1267.64 349.179 1267.64 Q352.132 1267.64 353.599 1264.76 Q355.085 1261.86 355.085 1256.09 Q355.085 1250.3 353.599 1247.42 Q352.132 1244.52 349.179 1244.52 M349.179 1241.51 Q353.9 1241.51 356.383 1245.26 Q358.884 1248.98 358.884 1256.09 Q358.884 1263.18 356.383 1266.92 Q353.9 1270.65 349.179 1270.65 Q344.459 1270.65 341.957 1266.92 Q339.475 1263.18 339.475 1256.09 Q339.475 1248.98 341.957 1245.26 Q344.459 1241.51 349.179 1241.51 Z" fill="#000000" fill-rule="nonzero" fill-opacity="1" /><path clip-path="url(#clip350)" d="M131.181 1101.88 Q134.538 1102.6 136.413 1104.87 Q138.311 1107.14 138.311 1110.47 Q138.311 1115.59 134.792 1118.39 Q131.274 1121.19 124.793 1121.19 Q122.617 1121.19 120.302 1120.75 Q118.01 1120.33 115.556 1119.47 L115.556 1114.96 Q117.501 1116.1 119.816 1116.67 Q122.13 1117.25 124.654 1117.25 Q129.052 1117.25 131.343 1115.52 Q133.658 1113.78 133.658 1110.47 Q133.658 1107.41 131.505 1105.7 Q129.376 1103.97 125.556 1103.97 L121.529 1103.97 L121.529 1100.12 L125.742 1100.12 Q129.191 1100.12 131.019 1098.76 Q132.848 1097.37 132.848 1094.78 Q132.848 1092.11 130.95 1090.7 Q129.075 1089.27 125.556 1089.27 Q123.635 1089.27 121.436 1089.68 Q119.237 1090.1 116.598 1090.98 L116.598 1086.81 Q119.26 1086.07 121.575 1085.7 Q123.913 1085.33 125.973 1085.33 Q131.297 1085.33 134.399 1087.76 Q137.501 1090.17 137.501 1094.29 Q137.501 1097.16 135.857 1099.15 Q134.214 1101.12 131.181 1101.88 Z" fill="#000000" fill-rule="nonzero" fill-opacity="1" /><path clip-path="url(#clip350)" d="M147.177 1114.64 L152.061 1114.64 L152.061 1120.52 L147.177 1120.52 L147.177 1114.64 Z" fill="#000000" fill-rule="nonzero" fill-opacity="1" /><path clip-path="url(#clip350)" d="M172.246 1089.04 Q168.635 1089.04 166.806 1092.6 Q165.001 1096.14 165.001 1103.27 Q165.001 1110.38 166.806 1113.94 Q168.635 1117.48 172.246 1117.48 Q175.88 1117.48 177.686 1113.94 Q179.514 1110.38 179.514 1103.27 Q179.514 1096.14 177.686 1092.6 Q175.88 1089.04 172.246 1089.04 M172.246 1085.33 Q178.056 1085.33 181.112 1089.94 Q184.19 1094.52 184.19 1103.27 Q184.19 1112 181.112 1116.6 Q178.056 1121.19 172.246 1121.19 Q166.436 1121.19 163.357 1116.6 Q160.302 1112 160.302 1103.27 Q160.302 1094.52 163.357 1089.94 Q166.436 1085.33 172.246 1085.33 Z" fill="#000000" fill-rule="nonzero" fill-opacity="1" /><path clip-path="url(#clip350)" d="M220.579 1095.05 L210 1105.68 L220.579 1116.26 L217.824 1119.06 L207.199 1108.43 L196.575 1119.06 L193.843 1116.26 L204.399 1105.68 L193.843 1095.05 L196.575 1092.25 L207.199 1102.88 L217.824 1092.25 L220.579 1095.05 Z" fill="#000000" fill-rule="nonzero" fill-opacity="1" /><path clip-path="url(#clip350)" d="M232.94 1116.58 L240.579 1116.58 L240.579 1090.22 L232.269 1091.88 L232.269 1087.62 L240.533 1085.96 L245.209 1085.96 L245.209 1116.58 L252.847 1116.58 L252.847 1120.52 L232.94 1120.52 L232.94 1116.58 Z" fill="#000000" fill-rule="nonzero" fill-opacity="1" /><path clip-path="url(#clip350)" d="M272.292 1089.04 Q268.681 1089.04 266.852 1092.6 Q265.046 1096.14 265.046 1103.27 Q265.046 1110.38 266.852 1113.94 Q268.681 1117.48 272.292 1117.48 Q275.926 1117.48 277.732 1113.94 Q279.56 1110.38 279.56 1103.27 Q279.56 1096.14 277.732 1092.6 Q275.926 1089.04 272.292 1089.04 M272.292 1085.33 Q278.102 1085.33 281.157 1089.94 Q284.236 1094.52 284.236 1103.27 Q284.236 1112 281.157 1116.6 Q278.102 1121.19 272.292 1121.19 Q266.482 1121.19 263.403 1116.6 Q260.347 1112 260.347 1103.27 Q260.347 1094.52 263.403 1089.94 Q266.482 1085.33 272.292 1085.33 Z" fill="#000000" fill-rule="nonzero" fill-opacity="1" /><path clip-path="url(#clip350)" d="M284.236 1079.43 L308.348 1079.43 L308.348 1082.63 L284.236 1082.63 L284.236 1079.43 Z" fill="#000000" fill-rule="nonzero" fill-opacity="1" /><path clip-path="url(#clip350)" d="M317.206 1089.91 L323.413 1089.91 L323.413 1068.49 L316.661 1069.84 L316.661 1066.38 L323.375 1065.03 L327.174 1065.03 L327.174 1089.91 L333.381 1089.91 L333.381 1093.11 L317.206 1093.11 L317.206 1089.91 Z" fill="#000000" fill-rule="nonzero" fill-opacity="1" /><path clip-path="url(#clip350)" d="M349.179 1067.53 Q346.245 1067.53 344.76 1070.42 Q343.292 1073.3 343.292 1079.09 Q343.292 1084.87 344.76 1087.76 Q346.245 1090.64 349.179 1090.64 Q352.132 1090.64 353.599 1087.76 Q355.085 1084.87 355.085 1079.09 Q355.085 1073.3 353.599 1070.42 Q352.132 1067.53 349.179 1067.53 M349.179 1064.52 Q353.9 1064.52 356.383 1068.26 Q358.884 1071.98 358.884 1079.09 Q358.884 1086.18 356.383 1089.93 Q353.9 1093.65 349.179 1093.65 Q344.459 1093.65 341.957 1089.93 Q339.475 1086.18 339.475 1079.09 Q339.475 1071.98 341.957 1068.26 Q344.459 1064.52 349.179 1064.52 Z" fill="#000000" fill-rule="nonzero" fill-opacity="1" /><path clip-path="url(#clip350)" d="M129.862 913.034 L118.056 931.483 L129.862 931.483 L129.862 913.034 M128.635 908.96 L134.515 908.96 L134.515 931.483 L139.445 931.483 L139.445 935.372 L134.515 935.372 L134.515 943.52 L129.862 943.52 L129.862 935.372 L114.26 935.372 L114.26 930.858 L128.635 908.96 Z" fill="#000000" fill-rule="nonzero" fill-opacity="1" /><path clip-path="url(#clip350)" d="M147.177 937.64 L152.061 937.64 L152.061 943.52 L147.177 943.52 L147.177 937.64 Z" fill="#000000" fill-rule="nonzero" fill-opacity="1" /><path clip-path="url(#clip350)" d="M172.246 912.039 Q168.635 912.039 166.806 915.603 Q165.001 919.145 165.001 926.275 Q165.001 933.381 166.806 936.946 Q168.635 940.487 172.246 940.487 Q175.88 940.487 177.686 936.946 Q179.514 933.381 179.514 926.275 Q179.514 919.145 177.686 915.603 Q175.88 912.039 172.246 912.039 M172.246 908.335 Q178.056 908.335 181.112 912.941 Q184.19 917.525 184.19 926.275 Q184.19 935.001 181.112 939.608 Q178.056 944.191 172.246 944.191 Q166.436 944.191 163.357 939.608 Q160.302 935.001 160.302 926.275 Q160.302 917.525 163.357 912.941 Q166.436 908.335 172.246 908.335 Z" fill="#000000" fill-rule="nonzero" fill-opacity="1" /><path clip-path="url(#clip350)" d="M220.579 918.057 L210 928.682 L220.579 939.261 L217.824 942.062 L207.199 931.437 L196.575 942.062 L193.843 939.261 L204.399 928.682 L193.843 918.057 L196.575 915.256 L207.199 925.881 L217.824 915.256 L220.579 918.057 Z" fill="#000000" fill-rule="nonzero" fill-opacity="1" /><path clip-path="url(#clip350)" d="M232.94 939.585 L240.579 939.585 L240.579 913.219 L232.269 914.886 L232.269 910.627 L240.533 908.96 L245.209 908.96 L245.209 939.585 L252.847 939.585 L252.847 943.52 L232.94 943.52 L232.94 939.585 Z" fill="#000000" fill-rule="nonzero" fill-opacity="1" /><path clip-path="url(#clip350)" d="M272.292 912.039 Q268.681 912.039 266.852 915.603 Q265.046 919.145 265.046 926.275 Q265.046 933.381 266.852 936.946 Q268.681 940.487 272.292 940.487 Q275.926 940.487 277.732 936.946 Q279.56 933.381 279.56 926.275 Q279.56 919.145 277.732 915.603 Q275.926 912.039 272.292 912.039 M272.292 908.335 Q278.102 908.335 281.157 912.941 Q284.236 917.525 284.236 926.275 Q284.236 935.001 281.157 939.608 Q278.102 944.191 272.292 944.191 Q266.482 944.191 263.403 939.608 Q260.347 935.001 260.347 926.275 Q260.347 917.525 263.403 912.941 Q266.482 908.335 272.292 908.335 Z" fill="#000000" fill-rule="nonzero" fill-opacity="1" /><path clip-path="url(#clip350)" d="M284.236 902.436 L308.348 902.436 L308.348 905.634 L284.236 905.634 L284.236 902.436 Z" fill="#000000" fill-rule="nonzero" fill-opacity="1" /><path clip-path="url(#clip350)" d="M317.206 912.912 L323.413 912.912 L323.413 891.49 L316.661 892.844 L316.661 889.384 L323.375 888.029 L327.174 888.029 L327.174 912.912 L333.381 912.912 L333.381 916.109 L317.206 916.109 L317.206 912.912 Z" fill="#000000" fill-rule="nonzero" fill-opacity="1" /><path clip-path="url(#clip350)" d="M349.179 890.531 Q346.245 890.531 344.76 893.427 Q343.292 896.305 343.292 902.098 Q343.292 907.872 344.76 910.768 Q346.245 913.646 349.179 913.646 Q352.132 913.646 353.599 910.768 Q355.085 907.872 355.085 902.098 Q355.085 896.305 353.599 893.427 Q352.132 890.531 349.179 890.531 M349.179 887.522 Q353.9 887.522 356.383 891.264 Q358.884 894.988 358.884 902.098 Q358.884 909.188 356.383 912.931 Q353.9 916.655 349.179 916.655 Q344.459 916.655 341.957 912.931 Q339.475 909.188 339.475 902.098 Q339.475 894.988 341.957 891.264 Q344.459 887.522 349.179 887.522 Z" fill="#000000" fill-rule="nonzero" fill-opacity="1" /><path clip-path="url(#clip350)" d="M117.061 731.963 L135.417 731.963 L135.417 735.898 L121.343 735.898 L121.343 744.371 Q122.362 744.023 123.38 743.861 Q124.399 743.676 125.418 743.676 Q131.205 743.676 134.584 746.848 Q137.964 750.019 137.964 755.435 Q137.964 761.014 134.492 764.116 Q131.019 767.195 124.7 767.195 Q122.524 767.195 120.255 766.824 Q118.01 766.454 115.603 765.713 L115.603 761.014 Q117.686 762.148 119.908 762.704 Q122.13 763.259 124.607 763.259 Q128.612 763.259 130.95 761.153 Q133.288 759.047 133.288 755.435 Q133.288 751.824 130.95 749.718 Q128.612 747.611 124.607 747.611 Q122.732 747.611 120.857 748.028 Q119.006 748.445 117.061 749.324 L117.061 731.963 Z" fill="#000000" fill-rule="nonzero" fill-opacity="1" /><path clip-path="url(#clip350)" d="M147.177 760.644 L152.061 760.644 L152.061 766.523 L147.177 766.523 L147.177 760.644 Z" fill="#000000" fill-rule="nonzero" fill-opacity="1" /><path clip-path="url(#clip350)" d="M172.246 735.042 Q168.635 735.042 166.806 738.607 Q165.001 742.148 165.001 749.278 Q165.001 756.384 166.806 759.949 Q168.635 763.491 172.246 763.491 Q175.88 763.491 177.686 759.949 Q179.514 756.384 179.514 749.278 Q179.514 742.148 177.686 738.607 Q175.88 735.042 172.246 735.042 M172.246 731.338 Q178.056 731.338 181.112 735.945 Q184.19 740.528 184.19 749.278 Q184.19 758.005 181.112 762.611 Q178.056 767.195 172.246 767.195 Q166.436 767.195 163.357 762.611 Q160.302 758.005 160.302 749.278 Q160.302 740.528 163.357 735.945 Q166.436 731.338 172.246 731.338 Z" fill="#000000" fill-rule="nonzero" fill-opacity="1" /><path clip-path="url(#clip350)" d="M220.579 741.061 L210 751.685 L220.579 762.264 L217.824 765.065 L207.199 754.44 L196.575 765.065 L193.843 762.264 L204.399 751.685 L193.843 741.061 L196.575 738.26 L207.199 748.885 L217.824 738.26 L220.579 741.061 Z" fill="#000000" fill-rule="nonzero" fill-opacity="1" /><path clip-path="url(#clip350)" d="M232.94 762.588 L240.579 762.588 L240.579 736.223 L232.269 737.889 L232.269 733.63 L240.533 731.963 L245.209 731.963 L245.209 762.588 L252.847 762.588 L252.847 766.523 L232.94 766.523 L232.94 762.588 Z" fill="#000000" fill-rule="nonzero" fill-opacity="1" /><path clip-path="url(#clip350)" d="M272.292 735.042 Q268.681 735.042 266.852 738.607 Q265.046 742.148 265.046 749.278 Q265.046 756.384 266.852 759.949 Q268.681 763.491 272.292 763.491 Q275.926 763.491 277.732 759.949 Q279.56 756.384 279.56 749.278 Q279.56 742.148 277.732 738.607 Q275.926 735.042 272.292 735.042 M272.292 731.338 Q278.102 731.338 281.157 735.945 Q284.236 740.528 284.236 749.278 Q284.236 758.005 281.157 762.611 Q278.102 767.195 272.292 767.195 Q266.482 767.195 263.403 762.611 Q260.347 758.005 260.347 749.278 Q260.347 740.528 263.403 735.945 Q266.482 731.338 272.292 731.338 Z" fill="#000000" fill-rule="nonzero" fill-opacity="1" /><path clip-path="url(#clip350)" d="M284.236 725.44 L308.348 725.44 L308.348 728.637 L284.236 728.637 L284.236 725.44 Z" fill="#000000" fill-rule="nonzero" fill-opacity="1" /><path clip-path="url(#clip350)" d="M317.206 735.916 L323.413 735.916 L323.413 714.494 L316.661 715.848 L316.661 712.387 L323.375 711.033 L327.174 711.033 L327.174 735.916 L333.381 735.916 L333.381 739.113 L317.206 739.113 L317.206 735.916 Z" fill="#000000" fill-rule="nonzero" fill-opacity="1" /><path clip-path="url(#clip350)" d="M349.179 713.534 Q346.245 713.534 344.76 716.431 Q343.292 719.308 343.292 725.101 Q343.292 730.875 344.76 733.772 Q346.245 736.649 349.179 736.649 Q352.132 736.649 353.599 733.772 Q355.085 730.875 355.085 725.101 Q355.085 719.308 353.599 716.431 Q352.132 713.534 349.179 713.534 M349.179 710.525 Q353.9 710.525 356.383 714.268 Q358.884 717.992 358.884 725.101 Q358.884 732.192 356.383 735.934 Q353.9 739.658 349.179 739.658 Q344.459 739.658 341.957 735.934 Q339.475 732.192 339.475 725.101 Q339.475 717.992 341.957 714.268 Q344.459 710.525 349.179 710.525 Z" fill="#000000" fill-rule="nonzero" fill-opacity="1" /><path clip-path="url(#clip350)" d="M127.593 570.383 Q124.445 570.383 122.593 572.536 Q120.765 574.689 120.765 578.439 Q120.765 582.166 122.593 584.342 Q124.445 586.494 127.593 586.494 Q130.742 586.494 132.57 584.342 Q134.422 582.166 134.422 578.439 Q134.422 574.689 132.57 572.536 Q130.742 570.383 127.593 570.383 M136.876 555.731 L136.876 559.99 Q135.117 559.157 133.311 558.717 Q131.529 558.277 129.769 558.277 Q125.14 558.277 122.686 561.402 Q120.255 564.527 119.908 570.846 Q121.274 568.832 123.334 567.768 Q125.394 566.68 127.871 566.68 Q133.08 566.68 136.089 569.851 Q139.121 572.999 139.121 578.439 Q139.121 583.763 135.973 586.981 Q132.825 590.198 127.593 590.198 Q121.598 590.198 118.427 585.615 Q115.256 581.008 115.256 572.282 Q115.256 564.087 119.144 559.226 Q123.033 554.342 129.584 554.342 Q131.343 554.342 133.126 554.689 Q134.931 555.036 136.876 555.731 Z" fill="#000000" fill-rule="nonzero" fill-opacity="1" /><path clip-path="url(#clip350)" d="M147.177 583.647 L152.061 583.647 L152.061 589.527 L147.177 589.527 L147.177 583.647 Z" fill="#000000" fill-rule="nonzero" fill-opacity="1" /><path clip-path="url(#clip350)" d="M172.246 558.045 Q168.635 558.045 166.806 561.61 Q165.001 565.152 165.001 572.282 Q165.001 579.388 166.806 582.953 Q168.635 586.494 172.246 586.494 Q175.88 586.494 177.686 582.953 Q179.514 579.388 179.514 572.282 Q179.514 565.152 177.686 561.61 Q175.88 558.045 172.246 558.045 M172.246 554.342 Q178.056 554.342 181.112 558.948 Q184.19 563.532 184.19 572.282 Q184.19 581.008 181.112 585.615 Q178.056 590.198 172.246 590.198 Q166.436 590.198 163.357 585.615 Q160.302 581.008 160.302 572.282 Q160.302 563.532 163.357 558.948 Q166.436 554.342 172.246 554.342 Z" fill="#000000" fill-rule="nonzero" fill-opacity="1" /><path clip-path="url(#clip350)" d="M220.579 564.064 L210 574.689 L220.579 585.268 L217.824 588.068 L207.199 577.444 L196.575 588.068 L193.843 585.268 L204.399 574.689 L193.843 564.064 L196.575 561.263 L207.199 571.888 L217.824 561.263 L220.579 564.064 Z" fill="#000000" fill-rule="nonzero" fill-opacity="1" /><path clip-path="url(#clip350)" d="M232.94 585.592 L240.579 585.592 L240.579 559.226 L232.269 560.893 L232.269 556.633 L240.533 554.967 L245.209 554.967 L245.209 585.592 L252.847 585.592 L252.847 589.527 L232.94 589.527 L232.94 585.592 Z" fill="#000000" fill-rule="nonzero" fill-opacity="1" /><path clip-path="url(#clip350)" d="M272.292 558.045 Q268.681 558.045 266.852 561.61 Q265.046 565.152 265.046 572.282 Q265.046 579.388 266.852 582.953 Q268.681 586.494 272.292 586.494 Q275.926 586.494 277.732 582.953 Q279.56 579.388 279.56 572.282 Q279.56 565.152 277.732 561.61 Q275.926 558.045 272.292 558.045 M272.292 554.342 Q278.102 554.342 281.157 558.948 Q284.236 563.532 284.236 572.282 Q284.236 581.008 281.157 585.615 Q278.102 590.198 272.292 590.198 Q266.482 590.198 263.403 585.615 Q260.347 581.008 260.347 572.282 Q260.347 563.532 263.403 558.948 Q266.482 554.342 272.292 554.342 Z" fill="#000000" fill-rule="nonzero" fill-opacity="1" /><path clip-path="url(#clip350)" d="M284.236 548.443 L308.348 548.443 L308.348 551.64 L284.236 551.64 L284.236 548.443 Z" fill="#000000" fill-rule="nonzero" fill-opacity="1" /><path clip-path="url(#clip350)" d="M317.206 558.919 L323.413 558.919 L323.413 537.497 L316.661 538.851 L316.661 535.391 L323.375 534.036 L327.174 534.036 L327.174 558.919 L333.381 558.919 L333.381 562.116 L317.206 562.116 L317.206 558.919 Z" fill="#000000" fill-rule="nonzero" fill-opacity="1" /><path clip-path="url(#clip350)" d="M349.179 536.538 Q346.245 536.538 344.76 539.434 Q343.292 542.312 343.292 548.105 Q343.292 553.879 344.76 556.775 Q346.245 559.653 349.179 559.653 Q352.132 559.653 353.599 556.775 Q355.085 553.879 355.085 548.105 Q355.085 542.312 353.599 539.434 Q352.132 536.538 349.179 536.538 M349.179 533.529 Q353.9 533.529 356.383 537.271 Q358.884 540.995 358.884 548.105 Q358.884 555.195 356.383 558.938 Q353.9 562.662 349.179 562.662 Q344.459 562.662 341.957 558.938 Q339.475 555.195 339.475 548.105 Q339.475 540.995 341.957 537.271 Q344.459 533.529 349.179 533.529 Z" fill="#000000" fill-rule="nonzero" fill-opacity="1" /><path clip-path="url(#clip350)" d="M115.834 377.97 L138.056 377.97 L138.056 379.961 L125.51 412.53 L120.626 412.53 L132.431 381.905 L115.834 381.905 L115.834 377.97 Z" fill="#000000" fill-rule="nonzero" fill-opacity="1" /><path clip-path="url(#clip350)" d="M147.177 406.651 L152.061 406.651 L152.061 412.53 L147.177 412.53 L147.177 406.651 Z" fill="#000000" fill-rule="nonzero" fill-opacity="1" /><path clip-path="url(#clip350)" d="M172.246 381.049 Q168.635 381.049 166.806 384.614 Q165.001 388.155 165.001 395.285 Q165.001 402.391 166.806 405.956 Q168.635 409.498 172.246 409.498 Q175.88 409.498 177.686 405.956 Q179.514 402.391 179.514 395.285 Q179.514 388.155 177.686 384.614 Q175.88 381.049 172.246 381.049 M172.246 377.345 Q178.056 377.345 181.112 381.952 Q184.19 386.535 184.19 395.285 Q184.19 404.012 181.112 408.618 Q178.056 413.202 172.246 413.202 Q166.436 413.202 163.357 408.618 Q160.302 404.012 160.302 395.285 Q160.302 386.535 163.357 381.952 Q166.436 377.345 172.246 377.345 Z" fill="#000000" fill-rule="nonzero" fill-opacity="1" /><path clip-path="url(#clip350)" d="M220.579 387.067 L210 397.692 L220.579 408.271 L217.824 411.072 L207.199 400.447 L196.575 411.072 L193.843 408.271 L204.399 397.692 L193.843 387.067 L196.575 384.266 L207.199 394.891 L217.824 384.266 L220.579 387.067 Z" fill="#000000" fill-rule="nonzero" fill-opacity="1" /><path clip-path="url(#clip350)" d="M232.94 408.595 L240.579 408.595 L240.579 382.229 L232.269 383.896 L232.269 379.637 L240.533 377.97 L245.209 377.97 L245.209 408.595 L252.847 408.595 L252.847 412.53 L232.94 412.53 L232.94 408.595 Z" fill="#000000" fill-rule="nonzero" fill-opacity="1" /><path clip-path="url(#clip350)" d="M272.292 381.049 Q268.681 381.049 266.852 384.614 Q265.046 388.155 265.046 395.285 Q265.046 402.391 266.852 405.956 Q268.681 409.498 272.292 409.498 Q275.926 409.498 277.732 405.956 Q279.56 402.391 279.56 395.285 Q279.56 388.155 277.732 384.614 Q275.926 381.049 272.292 381.049 M272.292 377.345 Q278.102 377.345 281.157 381.952 Q284.236 386.535 284.236 395.285 Q284.236 404.012 281.157 408.618 Q278.102 413.202 272.292 413.202 Q266.482 413.202 263.403 408.618 Q260.347 404.012 260.347 395.285 Q260.347 386.535 263.403 381.952 Q266.482 377.345 272.292 377.345 Z" fill="#000000" fill-rule="nonzero" fill-opacity="1" /><path clip-path="url(#clip350)" d="M284.236 371.447 L308.348 371.447 L308.348 374.644 L284.236 374.644 L284.236 371.447 Z" fill="#000000" fill-rule="nonzero" fill-opacity="1" /><path clip-path="url(#clip350)" d="M317.206 381.923 L323.413 381.923 L323.413 360.5 L316.661 361.855 L316.661 358.394 L323.375 357.04 L327.174 357.04 L327.174 381.923 L333.381 381.923 L333.381 385.12 L317.206 385.12 L317.206 381.923 Z" fill="#000000" fill-rule="nonzero" fill-opacity="1" /><path clip-path="url(#clip350)" d="M349.179 359.541 Q346.245 359.541 344.76 362.438 Q343.292 365.315 343.292 371.108 Q343.292 376.882 344.76 379.778 Q346.245 382.656 349.179 382.656 Q352.132 382.656 353.599 379.778 Q355.085 376.882 355.085 371.108 Q355.085 365.315 353.599 362.438 Q352.132 359.541 349.179 359.541 M349.179 356.532 Q353.9 356.532 356.383 360.275 Q358.884 363.999 358.884 371.108 Q358.884 378.199 356.383 381.941 Q353.9 385.665 349.179 385.665 Q344.459 385.665 341.957 381.941 Q339.475 378.199 339.475 371.108 Q339.475 363.999 341.957 360.275 Q344.459 356.532 349.179 356.532 Z" fill="#000000" fill-rule="nonzero" fill-opacity="1" /><path clip-path="url(#clip350)" d="M127.015 219.122 Q123.681 219.122 121.76 220.904 Q119.862 222.687 119.862 225.812 Q119.862 228.937 121.76 230.719 Q123.681 232.501 127.015 232.501 Q130.348 232.501 132.269 230.719 Q134.191 228.913 134.191 225.812 Q134.191 222.687 132.269 220.904 Q130.371 219.122 127.015 219.122 M122.339 217.131 Q119.33 216.39 117.64 214.33 Q115.973 212.27 115.973 209.307 Q115.973 205.163 118.913 202.756 Q121.876 200.349 127.015 200.349 Q132.177 200.349 135.117 202.756 Q138.056 205.163 138.056 209.307 Q138.056 212.27 136.367 214.33 Q134.7 216.39 131.714 217.131 Q135.093 217.918 136.968 220.21 Q138.867 222.501 138.867 225.812 Q138.867 230.835 135.788 233.52 Q132.732 236.205 127.015 236.205 Q121.297 236.205 118.218 233.52 Q115.163 230.835 115.163 225.812 Q115.163 222.501 117.061 220.21 Q118.959 217.918 122.339 217.131 M120.626 209.747 Q120.626 212.432 122.293 213.937 Q123.982 215.441 127.015 215.441 Q130.024 215.441 131.714 213.937 Q133.427 212.432 133.427 209.747 Q133.427 207.062 131.714 205.557 Q130.024 204.052 127.015 204.052 Q123.982 204.052 122.293 205.557 Q120.626 207.062 120.626 209.747 Z" fill="#000000" fill-rule="nonzero" fill-opacity="1" /><path clip-path="url(#clip350)" d="M147.177 229.654 L152.061 229.654 L152.061 235.534 L147.177 235.534 L147.177 229.654 Z" fill="#000000" fill-rule="nonzero" fill-opacity="1" /><path clip-path="url(#clip350)" d="M172.246 204.052 Q168.635 204.052 166.806 207.617 Q165.001 211.159 165.001 218.288 Q165.001 225.395 166.806 228.96 Q168.635 232.501 172.246 232.501 Q175.88 232.501 177.686 228.96 Q179.514 225.395 179.514 218.288 Q179.514 211.159 177.686 207.617 Q175.88 204.052 172.246 204.052 M172.246 200.349 Q178.056 200.349 181.112 204.955 Q184.19 209.538 184.19 218.288 Q184.19 227.015 181.112 231.622 Q178.056 236.205 172.246 236.205 Q166.436 236.205 163.357 231.622 Q160.302 227.015 160.302 218.288 Q160.302 209.538 163.357 204.955 Q166.436 200.349 172.246 200.349 Z" fill="#000000" fill-rule="nonzero" fill-opacity="1" /><path clip-path="url(#clip350)" d="M220.579 210.071 L210 220.696 L220.579 231.274 L217.824 234.075 L207.199 223.45 L196.575 234.075 L193.843 231.274 L204.399 220.696 L193.843 210.071 L196.575 207.27 L207.199 217.895 L217.824 207.27 L220.579 210.071 Z" fill="#000000" fill-rule="nonzero" fill-opacity="1" /><path clip-path="url(#clip350)" d="M232.94 231.599 L240.579 231.599 L240.579 205.233 L232.269 206.9 L232.269 202.64 L240.533 200.974 L245.209 200.974 L245.209 231.599 L252.847 231.599 L252.847 235.534 L232.94 235.534 L232.94 231.599 Z" fill="#000000" fill-rule="nonzero" fill-opacity="1" /><path clip-path="url(#clip350)" d="M272.292 204.052 Q268.681 204.052 266.852 207.617 Q265.046 211.159 265.046 218.288 Q265.046 225.395 266.852 228.96 Q268.681 232.501 272.292 232.501 Q275.926 232.501 277.732 228.96 Q279.56 225.395 279.56 218.288 Q279.56 211.159 277.732 207.617 Q275.926 204.052 272.292 204.052 M272.292 200.349 Q278.102 200.349 281.157 204.955 Q284.236 209.538 284.236 218.288 Q284.236 227.015 281.157 231.622 Q278.102 236.205 272.292 236.205 Q266.482 236.205 263.403 231.622 Q260.347 227.015 260.347 218.288 Q260.347 209.538 263.403 204.955 Q266.482 200.349 272.292 200.349 Z" fill="#000000" fill-rule="nonzero" fill-opacity="1" /><path clip-path="url(#clip350)" d="M284.236 194.45 L308.348 194.45 L308.348 197.647 L284.236 197.647 L284.236 194.45 Z" fill="#000000" fill-rule="nonzero" fill-opacity="1" /><path clip-path="url(#clip350)" d="M317.206 204.926 L323.413 204.926 L323.413 183.504 L316.661 184.858 L316.661 181.397 L323.375 180.043 L327.174 180.043 L327.174 204.926 L333.381 204.926 L333.381 208.123 L317.206 208.123 L317.206 204.926 Z" fill="#000000" fill-rule="nonzero" fill-opacity="1" /><path clip-path="url(#clip350)" d="M349.179 182.545 Q346.245 182.545 344.76 185.441 Q343.292 188.319 343.292 194.112 Q343.292 199.885 344.76 202.782 Q346.245 205.659 349.179 205.659 Q352.132 205.659 353.599 202.782 Q355.085 199.885 355.085 194.112 Q355.085 188.319 353.599 185.441 Q352.132 182.545 349.179 182.545 M349.179 179.535 Q353.9 179.535 356.383 183.278 Q358.884 187.002 358.884 194.112 Q358.884 201.202 356.383 204.945 Q353.9 208.669 349.179 208.669 Q344.459 208.669 341.957 204.945 Q339.475 201.202 339.475 194.112 Q339.475 187.002 341.957 183.278 Q344.459 179.535 349.179 179.535 Z" fill="#000000" fill-rule="nonzero" fill-opacity="1" /><path clip-path="url(#clip350)" d="M14.479 902.328 L14.479 896.471 L64.0042 896.471 L64.0042 902.328 L14.479 902.328 Z" fill="#000000" fill-rule="nonzero" fill-opacity="1" /><path clip-path="url(#clip350)" d="M14.5426 870.149 Q21.8632 874.414 29.0246 876.483 Q36.186 878.552 43.5384 878.552 Q50.8908 878.552 58.1159 876.483 Q65.3091 874.382 72.5979 870.149 L72.5979 875.242 Q65.1182 880.016 57.8931 882.403 Q50.668 884.758 43.5384 884.758 Q36.4406 884.758 29.2474 882.403 Q22.0542 880.048 14.5426 875.242 L14.5426 870.149 Z" fill="#000000" fill-rule="nonzero" fill-opacity="1" /><path clip-path="url(#clip350)" d="M14.479 858.786 L14.479 852.93 L64.0042 852.93 L64.0042 858.786 L14.479 858.786 Z" fill="#000000" fill-rule="nonzero" fill-opacity="1" /><path clip-path="url(#clip350)" d="M23.1363 816.836 L40.8648 816.836 L40.8648 799.108 L46.2757 799.108 L46.2757 816.836 L64.0042 816.836 L64.0042 822.183 L46.2757 822.183 L46.2757 839.912 L40.8648 839.912 L40.8648 822.183 L23.1363 822.183 L23.1363 816.836 Z" fill="#000000" fill-rule="nonzero" fill-opacity="1" /><path clip-path="url(#clip350)" d="M58.5933 784.117 L58.5933 773.613 L22.3406 773.613 L24.6323 785.04 L18.7758 785.04 L16.4842 773.677 L16.4842 767.247 L58.5933 767.247 L58.5933 756.744 L64.0042 756.744 L64.0042 784.117 L58.5933 784.117 Z" fill="#000000" fill-rule="nonzero" fill-opacity="1" /><path clip-path="url(#clip350)" d="M14.5426 745.508 L14.5426 740.416 Q22.0542 735.642 29.2474 733.286 Q36.4406 730.899 43.5384 730.899 Q50.668 730.899 57.8931 733.286 Q65.1182 735.642 72.5979 740.416 L72.5979 745.508 Q65.3091 741.275 58.1159 739.206 Q50.8908 737.106 43.5384 737.106 Q36.186 737.106 29.0246 739.206 Q21.8632 741.275 14.5426 745.508 Z" fill="#000000" fill-rule="nonzero" fill-opacity="1" /><path clip-path="url(#clip350)" d="M20.1444 683.316 L26.9239 683.316 Q23.9002 686.562 22.4043 690.254 Q20.9083 693.914 20.9083 698.052 Q20.9083 706.2 25.9054 710.529 Q30.8707 714.858 40.2919 714.858 Q49.6813 714.858 54.6784 710.529 Q59.6436 706.2 59.6436 698.052 Q59.6436 693.914 58.1477 690.254 Q56.6518 686.562 53.6281 683.316 L60.3439 683.316 Q62.6355 686.689 63.7814 690.477 Q64.9272 694.233 64.9272 698.434 Q64.9272 709.224 58.3387 715.431 Q51.7183 721.637 40.2919 721.637 Q28.8336 721.637 22.2451 715.431 Q15.6248 709.224 15.6248 698.434 Q15.6248 694.169 16.7706 690.413 Q17.8846 686.626 20.1444 683.316 Z" fill="#000000" fill-rule="nonzero" fill-opacity="1" /><path clip-path="url(#clip350)" d="M36.2815 675.899 L36.2815 672.207 L64.0042 672.207 L64.0042 675.899 L36.2815 675.899 Z" fill="#000000" fill-rule="nonzero" fill-opacity="1" /><path clip-path="url(#clip350)" d="M16.4842 652.41 L16.4842 646.999 L70.0516 663.55 L70.0516 668.961 L16.4842 652.41 Z" fill="#000000" fill-rule="nonzero" fill-opacity="1" /><path clip-path="url(#clip350)" d="M58.5933 634.491 L58.5933 612.051 L64.0042 612.051 L64.0042 642.225 L58.5933 642.225 Q54.8057 638.565 48.44 632.263 Q42.0425 625.929 40.1964 624.305 Q36.7271 621.218 34.34 620.009 Q31.921 618.767 29.5975 618.767 Q25.8099 618.767 23.4228 621.441 Q21.0356 624.083 21.0356 628.348 Q21.0356 631.371 22.086 634.745 Q23.1363 638.087 25.2688 641.907 L18.7758 641.907 Q17.2162 638.024 16.4205 634.65 Q15.6248 631.276 15.6248 628.475 Q15.6248 621.091 19.3169 616.698 Q23.009 612.306 29.1837 612.306 Q32.112 612.306 34.7537 613.42 Q37.3637 614.502 40.9285 617.399 Q41.8515 618.194 46.2757 622.459 Q50.668 626.724 58.5933 634.491 Z" fill="#000000" fill-rule="nonzero" fill-opacity="1" /><path clip-path="url(#clip350)" d="M28.3562 603.171 L28.3562 569.019 L34.2127 569.019 L34.2127 573.507 L56.1107 573.507 Q58.4023 573.507 59.4208 572.743 Q60.4075 571.948 60.4075 570.197 Q60.4075 569.72 60.3439 569.019 Q60.2484 568.319 60.2166 568.096 L64.4498 568.096 Q64.8635 569.21 65.0545 570.388 Q65.2455 571.566 65.2455 572.743 Q65.2455 576.563 63.1766 578.027 Q61.0759 579.491 55.4741 579.491 L34.2127 579.491 L34.2127 592.636 L64.0042 592.636 L64.0042 598.62 L34.2127 598.62 L34.2127 603.171 L28.3562 603.171 Z" fill="#000000" fill-rule="nonzero" fill-opacity="1" /><path clip-path="url(#clip351)" d="M450.296 1384.24 L452.22 1377.27 L454.144 1370.55 L456.068 1364.08 L457.992 1357.88 L459.916 1351.94 L461.84 1346.26 L463.764 1340.85 L465.688 1335.69 L467.612 1330.78 L469.536 1326.1 L471.46 1321.65 L473.384 1317.39 L475.308 1313.31 L477.232 1309.38 L479.156 1305.56 L481.08 1301.83 L483.004 1298.14 L484.928 1294.45 L486.852 1290.71 L488.776 1286.87 L490.7 1282.87 L492.624 1278.69 L494.548 1274.33 L496.472 1269.78 L498.396 1265.02 L500.32 1260.05 L502.244 1254.87 L504.168 1249.48 L506.092 1243.88 L508.016 1238.07 L509.94 1232.06 L511.864 1225.87 L513.788 1219.49 L515.712 1212.96 L517.636 1206.29 L519.56 1199.49 L521.484 1192.61 L523.408 1185.66 L525.332 1178.68 L527.256 1171.72 L529.18 1164.79 L531.104 1157.91 L533.028 1151.09 L534.952 1144.3 L536.876 1137.56 L538.8 1130.85 L540.724 1124.18 L542.648 1117.53 L544.572 1110.92 L546.496 1104.32 L548.42 1097.73 L550.344 1091.15 L552.268 1084.57 L554.192 1077.99 L556.116 1071.39 L558.04 1064.77 L559.964 1058.11 L561.888 1051.42 L563.812 1044.67 L565.736 1037.86 L567.66 1030.98 L569.584 1024.03 L571.508 1017 L573.432 1009.89 L575.356 1002.72 L577.28 995.475 L579.204 988.16 L581.128 980.777 L583.052 973.329 L584.976 965.819 L586.9 958.248 L588.824 950.622 L590.748 942.944 L592.672 935.219 L594.596 927.452 L596.52 919.647 L598.444 911.813 L600.368 903.953 L602.292 896.077 L604.216 888.192 L606.14 880.303 L608.064 872.414 L609.988 864.524 L611.912 856.633 L613.836 848.742 L615.76 840.851 L617.684 832.96 L619.608 825.07 L621.532 817.182 L623.456 809.295 L625.38 801.409 L627.304 793.527 L629.228 785.647 L631.152 777.77 L633.076 769.898 L635 762.03 L636.924 754.167 L638.849 746.311 L640.773 738.46 L642.697 730.617 L644.621 722.782 L646.545 714.957 L648.469 707.142 L650.393 699.339 L652.317 691.551 L654.241 683.777 L656.165 676.021 L658.089 668.285 L660.013 660.569 L661.937 652.876 L663.861 645.208 L665.785 637.567 L667.709 629.956 L669.633 622.376 L671.557 614.831 L673.481 607.323 L675.405 599.854 L677.329 592.427 L679.253 585.045 L681.177 577.711 L683.101 570.428 L685.025 563.198 L686.949 556.021 L688.873 548.899 L690.797 541.835 L692.721 534.829 L694.645 527.882 L696.569 520.997 L698.493 514.175 L700.417 507.418 L702.341 500.727 L704.265 494.103 L706.189 487.55 L708.113 481.067 L710.037 474.657 L711.961 468.323 L713.885 462.064 L715.809 455.885 L717.733 449.785 L719.657 443.767 L721.581 437.834 L723.505 431.985 L725.429 426.224 L727.353 420.551 L729.277 414.967 L731.201 409.474 L733.125 404.073 L735.049 398.766 L736.973 393.554 L738.897 388.438 L740.821 383.42 L742.745 378.502 L744.669 373.684 L746.593 368.969 L748.517 364.357 L750.441 359.85 L752.365 355.449 L754.289 351.157 L756.213 346.974 L758.137 342.902 L760.061 338.942 L761.985 335.096 L763.909 331.364 L765.833 327.747 L767.757 324.246 L769.681 320.862 L771.605 317.596 L773.529 314.449 L775.453 311.421 L777.377 308.514 L779.301 305.727 L781.225 303.063 L783.149 300.522 L785.073 298.105 L786.997 295.811 L788.921 293.643 L790.845 291.601 L792.769 289.685 L794.693 287.896 L796.617 286.235 L798.541 284.703 L800.465 283.299 L802.389 282.025 L804.313 280.88 L806.237 279.864 L808.161 278.979 L810.085 278.224 L812.009 277.599 L813.933 277.104 L815.857 276.739 L817.781 276.506 L819.705 276.402 L821.629 276.43 L823.553 276.588 L825.477 276.876 L827.401 277.295 L829.325 277.844 L831.249 278.523 L833.173 279.332 L835.097 280.271 L837.021 281.339 L838.945 282.536 L840.869 283.862 L842.793 285.316 L844.717 286.899 L846.641 288.608 L848.566 290.444 L850.49 292.407 L852.414 294.496 L854.338 296.709 L856.262 299.047 L858.186 301.509 L860.11 304.093 L862.034 306.8 L863.958 309.628 L865.882 312.576 L867.806 315.644 L869.73 318.831 L871.654 322.135 L873.578 325.556 L875.502 329.093 L877.426 332.744 L879.35 336.508 L881.274 340.385 L883.198 344.373 L885.122 348.472 L887.046 352.68 L888.97 356.995 L890.894 361.417 L892.818 365.945 L894.742 370.577 L896.666 375.311 L898.59 380.146 L900.514 385.082 L902.438 390.115 L904.362 395.246 L906.286 400.471 L908.21 405.791 L910.134 411.202 L912.058 416.704 L913.982 422.294 L915.906 427.971 L917.83 433.733 L919.754 439.58 L921.678 445.509 L923.602 451.519 L925.526 457.608 L927.45 463.775 L929.374 470.017 L931.298 476.334 L933.222 482.722 L935.146 489.181 L937.07 495.709 L938.994 502.303 L940.918 508.963 L942.842 515.684 L944.766 522.467 L946.69 529.308 L948.614 536.206 L950.538 543.159 L952.462 550.164 L954.386 557.219 L956.31 564.324 L958.234 571.475 L960.158 578.672 L962.082 585.912 L964.006 593.194 L965.93 600.515 L967.854 607.873 L969.778 615.268 L971.702 622.696 L973.626 630.155 L975.55 637.645 L977.474 645.161 L979.398 652.704 L981.322 660.269 L983.246 667.856 L985.17 675.461 L987.094 683.084 L989.018 690.721 L990.942 698.37 L992.866 706.029 L994.79 713.698 L996.714 721.373 L998.638 729.053 L1000.56 736.736 L1002.49 744.421 L1004.41 752.105 L1006.33 759.786 L1008.26 767.463 L1010.18 775.134 L1012.11 782.797 L1014.03 790.449 L1015.95 798.089 L1017.88 805.715 L1019.8 813.324 L1021.73 820.916 L1023.65 828.487 L1025.57 836.036 L1027.5 843.56 L1029.42 851.058 L1031.35 858.529 L1033.27 865.969 L1035.19 873.378 L1037.12 880.755 L1039.04 888.097 L1040.97 895.402 L1042.89 902.67 L1044.81 909.899 L1046.74 917.087 L1048.66 924.232 L1050.59 931.333 L1052.51 938.389 L1054.43 945.397 L1056.36 952.355 L1058.28 959.263 L1060.21 966.119 L1062.13 972.92 L1064.05 979.666 L1065.98 986.355 L1067.9 992.985 L1069.83 999.554 L1071.75 1006.06 L1073.67 1012.51 L1075.6 1018.89 L1077.52 1025.21 L1079.45 1031.46 L1081.37 1037.64 L1083.29 1043.76 L1085.22 1049.81 L1087.14 1055.78 L1089.07 1061.69 L1090.99 1067.52 L1092.91 1073.28 L1094.84 1078.96 L1096.76 1084.57 L1098.69 1090.1 L1100.61 1095.55 L1102.53 1100.93 L1104.46 1106.22 L1106.38 1111.43 L1108.31 1116.56 L1110.23 1121.61 L1112.15 1126.58 L1114.08 1131.46 L1116 1136.26 L1117.93 1140.97 L1119.85 1145.6 L1121.77 1150.15 L1123.7 1154.6 L1125.62 1158.97 L1127.55 1163.25 L1129.47 1167.45 L1131.39 1171.55 L1133.32 1175.57 L1135.24 1179.5 L1137.17 1183.33 L1139.09 1187.08 L1141.01 1190.74 L1142.94 1194.31 L1144.86 1197.78 L1146.79 1201.17 L1148.71 1204.46 L1150.63 1207.66 L1152.56 1210.77 L1154.48 1213.8 L1156.41 1216.72 L1158.33 1219.56 L1160.25 1222.31 L1162.18 1224.96 L1164.1 1227.53 L1166.03 1230 L1167.95 1232.39 L1169.88 1234.68 L1171.8 1236.88 L1173.72 1239 L1175.65 1241.02 L1177.57 1242.96 L1179.5 1244.8 L1181.42 1246.56 L1183.34 1248.23 L1185.27 1249.81 L1187.19 1251.3 L1189.12 1252.71 L1191.04 1254.03 L1192.96 1255.27 L1194.89 1256.42 L1196.81 1257.49 L1198.74 1258.47 L1200.66 1259.37 L1202.58 1260.18 L1204.51 1260.92 L1206.43 1261.57 L1208.36 1262.14 L1210.28 1262.64 L1212.2 1263.05 L1214.13 1263.38 L1216.05 1263.64 L1217.98 1263.83 L1219.9 1263.93 L1221.82 1263.97 L1223.75 1263.92 L1225.67 1263.81 L1227.6 1263.63 L1229.52 1263.37 L1231.44 1263.04 L1233.37 1262.65 L1235.29 1262.19 L1237.22 1261.66 L1239.14 1261.06 L1241.06 1260.4 L1242.99 1259.68 L1244.91 1258.89 L1246.84 1258.04 L1248.76 1257.13 L1250.68 1256.17 L1252.61 1255.14 L1254.53 1254.06 L1256.46 1252.92 L1258.38 1251.74 L1260.3 1250.49 L1262.23 1249.2 L1264.15 1247.86 L1266.08 1246.46 L1268 1245.02 L1269.92 1243.54 L1271.85 1242.01 L1273.77 1240.43 L1275.7 1238.81 L1277.62 1237.15 L1279.54 1235.45 L1281.47 1233.71 L1283.39 1231.93 L1285.32 1230.11 L1287.24 1228.26 L1289.16 1226.38 L1291.09 1224.46 L1293.01 1222.51 L1294.94 1220.54 L1296.86 1218.53 L1298.78 1216.5 L1300.71 1214.45 L1302.63 1212.37 L1304.56 1210.27 L1306.48 1208.15 L1308.4 1206.01 L1310.33 1203.85 L1312.25 1201.67 L1314.18 1199.47 L1316.1 1197.26 L1318.02 1195.04 L1319.95 1192.8 L1321.87 1190.55 L1323.8 1188.29 L1325.72 1186.03 L1327.64 1183.75 L1329.57 1181.47 L1331.49 1179.19 L1333.42 1176.91 L1335.34 1174.62 L1337.26 1172.33 L1339.19 1170.05 L1341.11 1167.76 L1343.04 1165.48 L1344.96 1163.21 L1346.88 1160.94 L1348.81 1158.68 L1350.73 1156.42 L1352.66 1154.17 L1354.58 1151.94 L1356.5 1149.71 L1358.43 1147.5 L1360.35 1145.3 L1362.28 1143.11 L1364.2 1140.94 L1366.12 1138.79 L1368.05 1136.65 L1369.97 1134.53 L1371.9 1132.44 L1373.82 1130.36 L1375.74 1128.31 L1377.67 1126.29 L1379.59 1124.28 L1381.52 1122.3 L1383.44 1120.35 L1385.36 1118.43 L1387.29 1116.53 L1389.21 1114.66 L1391.14 1112.82 L1393.06 1111.01 L1394.98 1109.23 L1396.91 1107.48 L1398.83 1105.76 L1400.76 1104.08 L1402.68 1102.43 L1404.6 1100.81 L1406.53 1099.24 L1408.45 1097.69 L1410.38 1096.19 L1412.3 1094.72 L1414.22 1093.29 L1416.15 1091.9 L1418.07 1090.55 L1420 1089.24 L1421.92 1087.97 L1423.84 1086.74 L1425.77 1085.55 L1427.69 1084.41 L1429.62 1083.3 L1431.54 1082.24 L1433.46 1081.22 L1435.39 1080.25 L1437.31 1079.31 L1439.24 1078.43 L1441.16 1077.58 L1443.08 1076.78 L1445.01 1076.03 L1446.93 1075.32 L1448.86 1074.65 L1450.78 1074.03 L1452.7 1073.46 L1454.63 1072.94 L1456.55 1072.46 L1458.48 1072.03 L1460.4 1071.64 L1462.32 1071.3 L1464.25 1071.01 L1466.17 1070.76 L1468.1 1070.56 L1470.02 1070.41 L1471.94 1070.3 L1473.87 1070.24 L1475.79 1070.22 L1477.72 1070.25 L1479.64 1070.33 L1481.56 1070.45 L1483.49 1070.61 L1485.41 1070.83 L1487.34 1071.08 L1489.26 1071.39 L1491.18 1071.74 L1493.11 1072.13 L1495.03 1072.57 L1496.96 1073.05 L1498.88 1073.57 L1500.8 1074.14 L1502.73 1074.75 L1504.65 1075.41 L1506.58 1076.1 L1508.5 1076.84 L1510.42 1077.62 L1512.35 1078.44 L1514.27 1079.3 L1516.2 1080.2 L1518.12 1081.14 L1520.04 1082.12 L1521.97 1083.14 L1523.89 1084.19 L1525.82 1085.28 L1527.74 1086.41 L1529.66 1087.58 L1531.59 1088.78 L1533.51 1090.02 L1535.44 1091.29 L1537.36 1092.59 L1539.28 1093.93 L1541.21 1095.3 L1543.13 1096.7 L1545.06 1098.13 L1546.98 1099.6 L1548.9 1101.09 L1550.83 1102.61 L1552.75 1104.16 L1554.68 1105.74 L1556.6 1107.35 L1558.52 1108.98 L1560.45 1110.63 L1562.37 1112.31 L1564.3 1114.01 L1566.22 1115.74 L1568.14 1117.49 L1570.07 1119.25 L1571.99 1121.04 L1573.92 1122.85 L1575.84 1124.68 L1577.76 1126.52 L1579.69 1128.38 L1581.61 1130.26 L1583.54 1132.16 L1585.46 1134.06 L1587.39 1135.99 L1589.31 1137.92 L1591.23 1139.87 L1593.16 1141.82 L1595.08 1143.79 L1597.01 1145.77 L1598.93 1147.75 L1600.85 1149.75 L1602.78 1151.75 L1604.7 1153.75 L1606.63 1155.76 L1608.55 1157.77 L1610.47 1159.79 L1612.4 1161.81 L1614.32 1163.82 L1616.25 1165.84 L1618.17 1167.86 L1620.09 1169.88 L1622.02 1171.9 L1623.94 1173.91 L1625.87 1175.92 L1627.79 1177.93 L1629.71 1179.93 L1631.64 1181.92 L1633.56 1183.91 L1635.49 1185.89 L1637.41 1187.86 L1639.33 1189.82 L1641.26 1191.77 L1643.18 1193.7 L1645.11 1195.63 L1647.03 1197.54 L1648.95 1199.44 L1650.88 1201.32 L1652.8 1203.19 L1654.73 1205.04 L1656.65 1206.87 L1658.57 1208.69 L1660.5 1210.49 L1662.42 1212.27 L1664.35 1214.03 L1666.27 1215.77 L1668.19 1217.5 L1670.12 1219.19 L1672.04 1220.87 L1673.97 1222.52 L1675.89 1224.15 L1677.81 1225.76 L1679.74 1227.34 L1681.66 1228.89 L1683.59 1230.42 L1685.51 1231.92 L1687.43 1233.39 L1689.36 1234.83 L1691.28 1236.25 L1693.21 1237.63 L1695.13 1238.99 L1697.05 1240.31 L1698.98 1241.61 L1700.9 1242.87 L1702.83 1244.11 L1704.75 1245.31 L1706.67 1246.48 L1708.6 1247.62 L1710.52 1248.72 L1712.45 1249.79 L1714.37 1250.82 L1716.29 1251.83 L1718.22 1252.79 L1720.14 1253.72 L1722.07 1254.62 L1723.99 1255.48 L1725.91 1256.3 L1727.84 1257.08 L1729.76 1257.83 L1731.69 1258.54 L1733.61 1259.22 L1735.53 1259.86 L1737.46 1260.46 L1739.38 1261.02 L1741.31 1261.55 L1743.23 1262.04 L1745.15 1262.49 L1747.08 1262.9 L1749 1263.27 L1750.93 1263.61 L1752.85 1263.91 L1754.77 1264.16 L1756.7 1264.38 L1758.62 1264.57 L1760.55 1264.71 L1762.47 1264.81 L1764.39 1264.88 L1766.32 1264.9 L1768.24 1264.89 L1770.17 1264.84 L1772.09 1264.75 L1774.01 1264.63 L1775.94 1264.46 L1777.86 1264.26 L1779.79 1264.02 L1781.71 1263.75 L1783.63 1263.43 L1785.56 1263.08 L1787.48 1262.7 L1789.41 1262.27 L1791.33 1261.81 L1793.25 1261.32 L1795.18 1260.79 L1797.1 1260.22 L1799.03 1259.62 L1800.95 1258.98 L1802.87 1258.31 L1804.8 1257.6 L1806.72 1256.86 L1808.65 1256.08 L1810.57 1255.28 L1812.49 1254.44 L1814.42 1253.56 L1816.34 1252.66 L1818.27 1251.73 L1820.19 1250.76 L1822.11 1249.76 L1824.04 1248.74 L1825.96 1247.68 L1827.89 1246.6 L1829.81 1245.49 L1831.73 1244.34 L1833.66 1243.18 L1835.58 1241.98 L1837.51 1240.76 L1839.43 1239.51 L1841.35 1238.24 L1843.28 1236.94 L1845.2 1235.62 L1847.13 1234.28 L1849.05 1232.91 L1850.97 1231.52 L1852.9 1230.11 L1854.82 1228.68 L1856.75 1227.23 L1858.67 1225.76 L1860.59 1224.27 L1862.52 1222.76 L1864.44 1221.23 L1866.37 1219.69 L1868.29 1218.13 L1870.21 1216.55 L1872.14 1214.96 L1874.06 1213.36 L1875.99 1211.74 L1877.91 1210.11 L1879.83 1208.47 L1881.76 1206.82 L1883.68 1205.15 L1885.61 1203.48 L1887.53 1201.8 L1889.45 1200.11 L1891.38 1198.41 L1893.3 1196.7 L1895.23 1194.99 L1897.15 1193.27 L1899.07 1191.55 L1901 1189.82 L1902.92 1188.09 L1904.85 1186.36 L1906.77 1184.63 L1908.69 1182.89 L1910.62 1181.16 L1912.54 1179.43 L1914.47 1177.69 L1916.39 1175.96 L1918.31 1174.24 L1920.24 1172.51 L1922.16 1170.79 L1924.09 1169.08 L1926.01 1167.37 L1927.93 1165.67 L1929.86 1163.98 L1931.78 1162.29 L1933.71 1160.61 L1935.63 1158.94 L1937.55 1157.28 L1939.48 1155.63 L1941.4 1154 L1943.33 1152.37 L1945.25 1150.76 L1947.17 1149.16 L1949.1 1147.58 L1951.02 1146.01 L1952.95 1144.46 L1954.87 1142.92 L1956.79 1141.4 L1958.72 1139.9 L1960.64 1138.42 L1962.57 1136.96 L1964.49 1135.51 L1966.41 1134.09 L1968.34 1132.69 L1970.26 1131.31 L1972.19 1129.95 L1974.11 1128.61 L1976.03 1127.3 L1977.96 1126.01 L1979.88 1124.74 L1981.81 1123.5 L1983.73 1122.29 L1985.65 1121.1 L1987.58 1119.93 L1989.5 1118.8 L1991.43 1117.69 L1993.35 1116.62 L1995.27 1115.57 L1997.2 1114.55 L1999.12 1113.56 L2001.05 1112.6 L2002.97 1111.67 L2004.9 1110.77 L2006.82 1109.9 L2008.74 1109.07 L2010.67 1108.26 L2012.59 1107.49 L2014.52 1106.75 L2016.44 1106.05 L2018.36 1105.38 L2020.29 1104.74 L2022.21 1104.14 L2024.14 1103.57 L2026.06 1103.04 L2027.98 1102.54 L2029.91 1102.08 L2031.83 1101.65 L2033.76 1101.26 L2035.68 1100.91 L2037.6 1100.59 L2039.53 1100.31 L2041.45 1100.07 L2043.38 1099.87 L2045.3 1099.7 L2047.22 1099.57 L2049.15 1099.48 L2051.07 1099.42 L2053 1099.4 L2054.92 1099.42 L2056.84 1099.48 L2058.77 1099.58 L2060.69 1099.72 L2062.62 1099.89 L2064.54 1100.1 L2066.46 1100.35 L2068.39 1100.65 L2070.31 1100.97 L2072.24 1101.34 L2074.16 1101.75 L2076.08 1102.2 L2078.01 1102.68 L2079.93 1103.2 L2081.86 1103.76 L2083.78 1104.36 L2085.7 1105 L2087.63 1105.68 L2089.55 1106.39 L2091.48 1107.14 L2093.4 1107.93 L2095.32 1108.75 L2097.25 1109.62 L2099.17 1110.52 L2101.1 1111.45 L2103.02 1112.43 L2104.94 1113.44 L2106.87 1114.49 L2108.79 1115.57 L2110.72 1116.69 L2112.64 1117.84 L2114.56 1119.04 L2116.49 1120.26 L2118.41 1121.52 L2120.34 1122.82 L2122.26 1124.15 L2124.18 1125.51 L2126.11 1126.91 L2128.03 1128.34 L2129.96 1129.8 L2131.88 1131.29 L2133.8 1132.82 L2135.73 1134.38 L2137.65 1135.97 L2139.58 1137.59 L2141.5 1139.24 L2143.42 1140.92 L2145.35 1142.63 L2147.27 1144.37 L2149.2 1146.14 L2151.12 1147.94 L2153.04 1149.77 L2154.97 1151.62 L2156.89 1153.5 L2158.82 1155.41 L2160.74 1157.34 L2162.66 1159.3 L2164.59 1161.28 L2166.51 1163.28 L2168.44 1165.31 L2170.36 1167.36 L2172.28 1169.44 L2174.21 1171.54 L2176.13 1173.65 L2178.06 1175.79 L2179.98 1177.95 L2181.9 1180.13 L2183.83 1182.33 L2185.75 1184.54 L2187.68 1186.78 L2189.6 1189.03 L2191.52 1191.29 L2193.45 1193.58 L2195.37 1195.88 L2197.3 1198.2 L2199.22 1200.53 L2201.14 1202.87 L2203.07 1205.23 L2204.99 1207.61 L2206.92 1210 L2208.84 1212.4 L2210.76 1214.81 L2212.69 1217.23 L2214.61 1219.67 L2216.54 1222.11 L2218.46 1224.57 L2220.38 1227.03 L2222.31 1229.51 L2224.23 1231.99 L2226.16 1234.48 L2228.08 1236.97 L2230 1239.47 L2231.93 1241.97 L2233.85 1244.48 L2235.78 1246.99 L2237.7 1249.5 L2239.62 1252.01 L2241.55 1254.52 L2243.47 1257.02 L2245.4 1259.52 L2247.32 1262.02 L2249.24 1264.51 L2251.17 1267 L2253.09 1269.48 L2255.02 1271.95 L2256.94 1274.41 L2258.86 1276.85 L2260.79 1279.29 L2262.71 1281.72 L2264.64 1284.13 L2266.56 1286.54 L2268.48 1288.93 L2270.41 1291.33 L2272.33 1293.71 L2274.26 1296.09 L2276.18 1298.47 L2278.1 1300.85 L2280.03 1303.22 L2281.95 1305.6 L2283.88 1307.98 L2285.8 1310.36 L2287.72 1312.74 L2289.65 1315.13 L2291.57 1317.53 L2293.5 1319.93 L2295.42 1322.35 L2297.34 1324.77 L2297.34 1304.98 L2295.42 1302.39 L2293.5 1299.81 L2291.57 1297.24 L2289.65 1294.68 L2287.72 1292.12 L2285.8 1289.57 L2283.88 1287.02 L2281.95 1284.48 L2280.03 1281.93 L2278.1 1279.39 L2276.18 1276.85 L2274.26 1274.3 L2272.33 1271.75 L2270.41 1269.2 L2268.48 1266.64 L2266.56 1264.07 L2264.64 1261.49 L2262.71 1258.91 L2260.79 1256.31 L2258.86 1253.7 L2256.94 1251.08 L2255.02 1248.44 L2253.09 1245.8 L2251.17 1243.15 L2249.24 1240.48 L2247.32 1237.81 L2245.4 1235.14 L2243.47 1232.46 L2241.55 1229.77 L2239.62 1227.08 L2237.7 1224.39 L2235.78 1221.7 L2233.85 1219.02 L2231.93 1216.33 L2230 1213.65 L2228.08 1210.97 L2226.16 1208.29 L2224.23 1205.62 L2222.31 1202.96 L2220.38 1200.31 L2218.46 1197.66 L2216.54 1195.03 L2214.61 1192.41 L2212.69 1189.79 L2210.76 1187.19 L2208.84 1184.61 L2206.92 1182.03 L2204.99 1179.47 L2203.07 1176.92 L2201.14 1174.39 L2199.22 1171.87 L2197.3 1169.36 L2195.37 1166.88 L2193.45 1164.4 L2191.52 1161.95 L2189.6 1159.51 L2187.68 1157.09 L2185.75 1154.69 L2183.83 1152.31 L2181.9 1149.95 L2179.98 1147.61 L2178.06 1145.29 L2176.13 1142.99 L2174.21 1140.71 L2172.28 1138.46 L2170.36 1136.22 L2168.44 1134.02 L2166.51 1131.83 L2164.59 1129.67 L2162.66 1127.54 L2160.74 1125.43 L2158.82 1123.35 L2156.89 1121.3 L2154.97 1119.27 L2153.04 1117.27 L2151.12 1115.31 L2149.2 1113.37 L2147.27 1111.46 L2145.35 1109.58 L2143.42 1107.73 L2141.5 1105.92 L2139.58 1104.14 L2137.65 1102.39 L2135.73 1100.67 L2133.8 1098.98 L2131.88 1097.33 L2129.96 1095.72 L2128.03 1094.14 L2126.11 1092.59 L2124.18 1091.08 L2122.26 1089.6 L2120.34 1088.16 L2118.41 1086.76 L2116.49 1085.39 L2114.56 1084.06 L2112.64 1082.77 L2110.72 1081.51 L2108.79 1080.3 L2106.87 1079.12 L2104.94 1077.98 L2103.02 1076.88 L2101.1 1075.81 L2099.17 1074.79 L2097.25 1073.81 L2095.32 1072.86 L2093.4 1071.96 L2091.48 1071.1 L2089.55 1070.27 L2087.63 1069.49 L2085.7 1068.75 L2083.78 1068.05 L2081.86 1067.38 L2079.93 1066.76 L2078.01 1066.18 L2076.08 1065.64 L2074.16 1065.14 L2072.24 1064.69 L2070.31 1064.27 L2068.39 1063.9 L2066.46 1063.57 L2064.54 1063.27 L2062.62 1063.03 L2060.69 1062.82 L2058.77 1062.65 L2056.84 1062.53 L2054.92 1062.44 L2053 1062.4 L2051.07 1062.39 L2049.15 1062.43 L2047.22 1062.51 L2045.3 1062.62 L2043.38 1062.78 L2041.45 1062.98 L2039.53 1063.22 L2037.6 1063.49 L2035.68 1063.81 L2033.76 1064.16 L2031.83 1064.56 L2029.91 1064.99 L2027.98 1065.46 L2026.06 1065.97 L2024.14 1066.52 L2022.21 1067.11 L2020.29 1067.73 L2018.36 1068.39 L2016.44 1069.09 L2014.52 1069.82 L2012.59 1070.59 L2010.67 1071.39 L2008.74 1072.23 L2006.82 1073.1 L2004.9 1074.01 L2002.97 1074.95 L2001.05 1075.92 L1999.12 1076.93 L1997.2 1077.97 L1995.27 1079.04 L1993.35 1080.14 L1991.43 1081.27 L1989.5 1082.43 L1987.58 1083.63 L1985.65 1084.85 L1983.73 1086.1 L1981.81 1087.38 L1979.88 1088.69 L1977.96 1090.02 L1976.03 1091.38 L1974.11 1092.77 L1972.19 1094.18 L1970.26 1095.61 L1968.34 1097.07 L1966.41 1098.55 L1964.49 1100.06 L1962.57 1101.58 L1960.64 1103.13 L1958.72 1104.7 L1956.79 1106.28 L1954.87 1107.89 L1952.95 1109.51 L1951.02 1111.15 L1949.1 1112.81 L1947.17 1114.49 L1945.25 1116.18 L1943.33 1117.89 L1941.4 1119.61 L1939.48 1121.34 L1937.55 1123.09 L1935.63 1124.85 L1933.71 1126.62 L1931.78 1128.4 L1929.86 1130.18 L1927.93 1131.98 L1926.01 1133.79 L1924.09 1135.6 L1922.16 1137.42 L1920.24 1139.24 L1918.31 1141.07 L1916.39 1142.9 L1914.47 1144.73 L1912.54 1146.57 L1910.62 1148.41 L1908.69 1150.25 L1906.77 1152.09 L1904.85 1153.93 L1902.92 1155.77 L1901 1157.61 L1899.07 1159.44 L1897.15 1161.27 L1895.23 1163.09 L1893.3 1164.91 L1891.38 1166.72 L1889.45 1168.52 L1887.53 1170.32 L1885.61 1172.1 L1883.68 1173.88 L1881.76 1175.65 L1879.83 1177.4 L1877.91 1179.14 L1875.99 1180.87 L1874.06 1182.59 L1872.14 1184.29 L1870.21 1185.98 L1868.29 1187.65 L1866.37 1189.31 L1864.44 1190.94 L1862.52 1192.56 L1860.59 1194.17 L1858.67 1195.75 L1856.75 1197.31 L1854.82 1198.85 L1852.9 1200.37 L1850.97 1201.86 L1849.05 1203.34 L1847.13 1204.79 L1845.2 1206.21 L1843.28 1207.61 L1841.35 1208.99 L1839.43 1210.34 L1837.51 1211.66 L1835.58 1212.95 L1833.66 1214.21 L1831.73 1215.45 L1829.81 1216.66 L1827.89 1217.83 L1825.96 1218.98 L1824.04 1220.1 L1822.11 1221.18 L1820.19 1222.23 L1818.27 1223.25 L1816.34 1224.24 L1814.42 1225.19 L1812.49 1226.11 L1810.57 1226.99 L1808.65 1227.84 L1806.72 1228.65 L1804.8 1229.43 L1802.87 1230.17 L1800.95 1230.88 L1799.03 1231.54 L1797.1 1232.17 L1795.18 1232.76 L1793.25 1233.32 L1791.33 1233.83 L1789.41 1234.31 L1787.48 1234.74 L1785.56 1235.14 L1783.63 1235.5 L1781.71 1235.81 L1779.79 1236.09 L1777.86 1236.33 L1775.94 1236.53 L1774.01 1236.68 L1772.09 1236.8 L1770.17 1236.87 L1768.24 1236.91 L1766.32 1236.9 L1764.39 1236.85 L1762.47 1236.76 L1760.55 1236.63 L1758.62 1236.46 L1756.7 1236.24 L1754.77 1235.98 L1752.85 1235.68 L1750.93 1235.34 L1749 1234.96 L1747.08 1234.54 L1745.15 1234.07 L1743.23 1233.57 L1741.31 1233.02 L1739.38 1232.43 L1737.46 1231.8 L1735.53 1231.13 L1733.61 1230.42 L1731.69 1229.68 L1729.76 1228.89 L1727.84 1228.06 L1725.91 1227.19 L1723.99 1226.28 L1722.07 1225.33 L1720.14 1224.35 L1718.22 1223.32 L1716.29 1222.26 L1714.37 1221.16 L1712.45 1220.02 L1710.52 1218.84 L1708.6 1217.63 L1706.67 1216.38 L1704.75 1215.09 L1702.83 1213.77 L1700.9 1212.42 L1698.98 1211.03 L1697.05 1209.61 L1695.13 1208.16 L1693.21 1206.67 L1691.28 1205.15 L1689.36 1203.6 L1687.43 1202.02 L1685.51 1200.4 L1683.59 1198.76 L1681.66 1197.09 L1679.74 1195.39 L1677.81 1193.66 L1675.89 1191.9 L1673.97 1190.12 L1672.04 1188.3 L1670.12 1186.47 L1668.19 1184.61 L1666.27 1182.73 L1664.35 1180.82 L1662.42 1178.89 L1660.5 1176.94 L1658.57 1174.97 L1656.65 1172.98 L1654.73 1170.97 L1652.8 1168.94 L1650.88 1166.9 L1648.95 1164.84 L1647.03 1162.76 L1645.11 1160.66 L1643.18 1158.56 L1641.26 1156.43 L1639.33 1154.3 L1637.41 1152.15 L1635.49 1149.99 L1633.56 1147.83 L1631.64 1145.65 L1629.71 1143.46 L1627.79 1141.27 L1625.87 1139.07 L1623.94 1136.87 L1622.02 1134.66 L1620.09 1132.45 L1618.17 1130.24 L1616.25 1128.02 L1614.32 1125.81 L1612.4 1123.59 L1610.47 1121.38 L1608.55 1119.16 L1606.63 1116.95 L1604.7 1114.75 L1602.78 1112.55 L1600.85 1110.35 L1598.93 1108.16 L1597.01 1105.98 L1595.08 1103.81 L1593.16 1101.65 L1591.23 1099.49 L1589.31 1097.35 L1587.39 1095.22 L1585.46 1093.11 L1583.54 1091.01 L1581.61 1088.92 L1579.69 1086.86 L1577.76 1084.8 L1575.84 1082.77 L1573.92 1080.76 L1571.99 1078.76 L1570.07 1076.79 L1568.14 1074.84 L1566.22 1072.91 L1564.3 1071 L1562.37 1069.12 L1560.45 1067.26 L1558.52 1065.43 L1556.6 1063.63 L1554.68 1061.85 L1552.75 1060.1 L1550.83 1058.39 L1548.9 1056.7 L1546.98 1055.04 L1545.06 1053.42 L1543.13 1051.82 L1541.21 1050.27 L1539.28 1048.74 L1537.36 1047.25 L1535.44 1045.8 L1533.51 1044.38 L1531.59 1043 L1529.66 1041.65 L1527.74 1040.35 L1525.82 1039.08 L1523.89 1037.86 L1521.97 1036.67 L1520.04 1035.53 L1518.12 1034.43 L1516.2 1033.37 L1514.27 1032.35 L1512.35 1031.37 L1510.42 1030.44 L1508.5 1029.55 L1506.58 1028.71 L1504.65 1027.91 L1502.73 1027.16 L1500.8 1026.45 L1498.88 1025.79 L1496.96 1025.18 L1495.03 1024.61 L1493.11 1024.09 L1491.18 1023.62 L1489.26 1023.2 L1487.34 1022.83 L1485.41 1022.51 L1483.49 1022.23 L1481.56 1022.01 L1479.64 1021.83 L1477.72 1021.7 L1475.79 1021.63 L1473.87 1021.6 L1471.94 1021.62 L1470.02 1021.7 L1468.1 1021.82 L1466.17 1021.99 L1464.25 1022.22 L1462.32 1022.49 L1460.4 1022.82 L1458.48 1023.19 L1456.55 1023.62 L1454.63 1024.09 L1452.7 1024.62 L1450.78 1025.19 L1448.86 1025.82 L1446.93 1026.5 L1445.01 1027.22 L1443.08 1028 L1441.16 1028.82 L1439.24 1029.7 L1437.31 1030.62 L1435.39 1031.59 L1433.46 1032.61 L1431.54 1033.67 L1429.62 1034.78 L1427.69 1035.94 L1425.77 1037.14 L1423.84 1038.39 L1421.92 1039.68 L1420 1041.01 L1418.07 1042.4 L1416.15 1043.82 L1414.22 1045.29 L1412.3 1046.8 L1410.38 1048.35 L1408.45 1049.95 L1406.53 1051.58 L1404.6 1053.26 L1402.68 1054.97 L1400.76 1056.73 L1398.83 1058.52 L1396.91 1060.34 L1394.98 1062.2 L1393.06 1064.1 L1391.14 1066.03 L1389.21 1067.99 L1387.29 1069.98 L1385.36 1072.01 L1383.44 1074.06 L1381.52 1076.15 L1379.59 1078.26 L1377.67 1080.4 L1375.74 1082.57 L1373.82 1084.76 L1371.9 1086.98 L1369.97 1089.22 L1368.05 1091.49 L1366.12 1093.77 L1364.2 1096.08 L1362.28 1098.41 L1360.35 1100.75 L1358.43 1103.11 L1356.5 1105.48 L1354.58 1107.87 L1352.66 1110.27 L1350.73 1112.68 L1348.81 1115.1 L1346.88 1117.52 L1344.96 1119.96 L1343.04 1122.4 L1341.11 1124.85 L1339.19 1127.3 L1337.26 1129.75 L1335.34 1132.21 L1333.42 1134.67 L1331.49 1137.12 L1329.57 1139.58 L1327.64 1142.03 L1325.72 1144.47 L1323.8 1146.91 L1321.87 1149.33 L1319.95 1151.75 L1318.02 1154.15 L1316.1 1156.55 L1314.18 1158.92 L1312.25 1161.28 L1310.33 1163.62 L1308.4 1165.95 L1306.48 1168.25 L1304.56 1170.53 L1302.63 1172.79 L1300.71 1175.02 L1298.78 1177.23 L1296.86 1179.41 L1294.94 1181.56 L1293.01 1183.68 L1291.09 1185.78 L1289.16 1187.83 L1287.24 1189.86 L1285.32 1191.84 L1283.39 1193.79 L1281.47 1195.7 L1279.54 1197.57 L1277.62 1199.39 L1275.7 1201.17 L1273.77 1202.9 L1271.85 1204.59 L1269.92 1206.23 L1268 1207.82 L1266.08 1209.36 L1264.15 1210.84 L1262.23 1212.28 L1260.3 1213.65 L1258.38 1214.98 L1256.46 1216.24 L1254.53 1217.44 L1252.61 1218.59 L1250.68 1219.67 L1248.76 1220.69 L1246.84 1221.65 L1244.91 1222.54 L1242.99 1223.36 L1241.06 1224.11 L1239.14 1224.8 L1237.22 1225.41 L1235.29 1225.95 L1233.37 1226.42 L1231.44 1226.81 L1229.52 1227.12 L1227.6 1227.36 L1225.67 1227.52 L1223.75 1227.6 L1221.82 1227.61 L1219.9 1227.53 L1217.98 1227.37 L1216.05 1227.12 L1214.13 1226.79 L1212.2 1226.38 L1210.28 1225.88 L1208.36 1225.29 L1206.43 1224.62 L1204.51 1223.86 L1202.58 1223 L1200.66 1222.06 L1198.74 1221.02 L1196.81 1219.89 L1194.89 1218.67 L1192.96 1217.36 L1191.04 1215.95 L1189.12 1214.45 L1187.19 1212.85 L1185.27 1211.15 L1183.34 1209.36 L1181.42 1207.47 L1179.5 1205.48 L1177.57 1203.4 L1175.65 1201.22 L1173.72 1198.93 L1171.8 1196.55 L1169.88 1194.07 L1167.95 1191.49 L1166.03 1188.8 L1164.1 1186.02 L1162.18 1183.14 L1160.25 1180.15 L1158.33 1177.06 L1156.41 1173.88 L1154.48 1170.59 L1152.56 1167.19 L1150.63 1163.7 L1148.71 1160.1 L1146.79 1156.41 L1144.86 1152.61 L1142.94 1148.71 L1141.01 1144.7 L1139.09 1140.6 L1137.17 1136.4 L1135.24 1132.09 L1133.32 1127.68 L1131.39 1123.18 L1129.47 1118.57 L1127.55 1113.87 L1125.62 1109.06 L1123.7 1104.16 L1121.77 1099.16 L1119.85 1094.06 L1117.93 1088.87 L1116 1083.58 L1114.08 1078.19 L1112.15 1072.71 L1110.23 1067.14 L1108.31 1061.47 L1106.38 1055.71 L1104.46 1049.85 L1102.53 1043.91 L1100.61 1037.87 L1098.69 1031.75 L1096.76 1025.53 L1094.84 1019.23 L1092.91 1012.85 L1090.99 1006.38 L1089.07 999.819 L1087.14 993.181 L1085.22 986.46 L1083.29 979.66 L1081.37 972.78 L1079.45 965.822 L1077.52 958.787 L1075.6 951.677 L1073.67 944.492 L1071.75 937.234 L1069.83 929.904 L1067.9 922.503 L1065.98 915.033 L1064.05 907.495 L1062.13 899.891 L1060.21 892.222 L1058.28 884.49 L1056.36 876.697 L1054.43 868.846 L1052.51 860.936 L1050.59 852.971 L1048.66 844.952 L1046.74 836.881 L1044.81 828.76 L1042.89 820.59 L1040.97 812.373 L1039.04 804.111 L1037.12 795.806 L1035.19 787.459 L1033.27 779.073 L1031.35 770.648 L1029.42 762.187 L1027.5 753.692 L1025.57 745.164 L1023.65 736.606 L1021.73 728.019 L1019.8 719.406 L1017.88 710.77 L1015.95 702.112 L1014.03 693.435 L1012.11 684.74 L1010.18 676.031 L1008.26 667.308 L1006.33 658.575 L1004.41 649.834 L1002.49 641.086 L1000.56 632.334 L998.638 623.579 L996.714 614.824 L994.79 606.071 L992.866 597.322 L990.942 588.578 L989.018 579.843 L987.094 571.117 L985.17 562.404 L983.246 553.705 L981.322 545.024 L979.398 536.362 L977.474 527.723 L975.55 519.108 L973.626 510.52 L971.702 501.96 L969.778 493.433 L967.854 484.939 L965.93 476.48 L964.006 468.06 L962.082 459.68 L960.158 451.342 L958.234 443.049 L956.31 434.802 L954.386 426.604 L952.462 418.456 L950.538 410.361 L948.614 402.321 L946.69 394.338 L944.766 386.414 L942.842 378.551 L940.918 370.753 L938.994 363.021 L937.07 355.357 L935.146 347.764 L933.222 340.244 L931.298 332.798 L929.374 325.43 L927.45 318.141 L925.526 310.932 L923.602 303.806 L921.678 296.766 L919.754 289.812 L917.83 282.946 L915.906 276.171 L913.982 269.487 L912.058 262.898 L910.134 256.404 L908.21 250.008 L906.286 243.711 L904.362 237.515 L902.438 231.422 L900.514 225.435 L898.59 219.554 L896.666 213.781 L894.742 208.119 L892.818 202.568 L890.894 197.13 L888.97 191.808 L887.046 186.602 L885.122 181.513 L883.198 176.544 L881.274 171.695 L879.35 166.969 L877.426 162.365 L875.502 157.886 L873.578 153.532 L871.654 149.306 L869.73 145.207 L867.806 141.237 L865.882 137.398 L863.958 133.691 L862.034 130.116 L860.11 126.675 L858.186 123.369 L856.262 120.199 L854.338 117.165 L852.414 114.268 L850.49 111.51 L848.566 108.891 L846.641 106.412 L844.717 104.073 L842.793 101.876 L840.869 99.8205 L838.945 97.9075 L837.021 96.1374 L835.097 94.5109 L833.173 93.0283 L831.249 91.6901 L829.325 90.4965 L827.401 89.4479 L825.477 88.5446 L823.553 87.7868 L821.629 87.1747 L819.705 86.7084 L817.781 86.3881 L815.857 86.2138 L813.933 86.1857 L812.009 86.3037 L810.085 86.5678 L808.161 86.978 L806.237 87.5342 L804.313 88.2363 L802.389 89.0841 L800.465 90.0775 L798.541 91.2162 L796.617 92.5 L794.693 93.9286 L792.769 95.5014 L790.845 97.2177 L788.921 99.0768 L786.997 101.078 L785.073 103.221 L783.149 105.504 L781.225 107.928 L779.301 110.491 L777.377 113.192 L775.453 116.03 L773.529 119.006 L771.605 122.117 L769.681 125.364 L767.757 128.744 L765.833 132.258 L763.909 135.905 L761.985 139.683 L760.061 143.591 L758.137 147.629 L756.213 151.796 L754.289 156.089 L752.365 160.508 L750.441 165.051 L748.517 169.717 L746.593 174.503 L744.669 179.408 L742.745 184.431 L740.821 189.57 L738.897 194.824 L736.973 200.191 L735.049 205.669 L733.125 211.258 L731.201 216.955 L729.277 222.759 L727.353 228.669 L725.429 234.683 L723.505 240.8 L721.581 247.018 L719.657 253.336 L717.733 259.752 L715.809 266.264 L713.885 272.87 L711.961 279.568 L710.037 286.357 L708.113 293.233 L706.189 300.196 L704.265 307.243 L702.341 314.372 L700.417 321.583 L698.493 328.871 L696.569 336.237 L694.645 343.679 L692.721 351.193 L690.797 358.78 L688.873 366.437 L686.949 374.162 L685.025 381.954 L683.101 389.812 L681.177 397.733 L679.253 405.717 L677.329 413.759 L675.405 421.856 L673.481 430.006 L671.557 438.205 L669.633 446.45 L667.709 454.738 L665.785 463.066 L663.861 471.433 L661.937 479.834 L660.013 488.268 L658.089 496.733 L656.165 505.225 L654.241 513.744 L652.317 522.287 L650.393 530.851 L648.469 539.435 L646.545 548.038 L644.621 556.657 L642.697 565.292 L640.773 573.94 L638.849 582.6 L636.924 591.272 L635 599.955 L633.076 608.649 L631.152 617.352 L629.228 626.065 L627.304 634.786 L625.38 643.515 L623.456 652.251 L621.532 660.994 L619.608 669.744 L617.684 678.501 L615.76 687.262 L613.836 696.03 L611.912 704.802 L609.988 713.579 L608.064 722.361 L606.14 731.147 L604.216 739.937 L602.292 748.729 L600.368 757.516 L598.444 766.287 L596.52 775.035 L594.596 783.752 L592.672 792.43 L590.748 801.063 L588.824 809.645 L586.9 818.17 L584.976 826.633 L583.052 835.03 L581.128 843.356 L579.204 851.61 L577.28 859.786 L575.356 867.884 L573.432 875.9 L571.508 883.834 L569.584 891.684 L567.66 899.45 L565.736 907.131 L563.812 914.73 L561.888 922.258 L559.964 929.728 L558.04 937.152 L556.116 944.542 L554.192 951.908 L552.268 959.262 L550.344 966.612 L548.42 973.968 L546.496 981.339 L544.572 988.732 L542.648 996.155 L540.724 1003.61 L538.8 1011.12 L536.876 1018.67 L534.952 1026.27 L533.028 1033.93 L531.104 1041.65 L529.18 1049.44 L527.256 1057.3 L525.332 1065.22 L523.408 1073.16 L521.484 1081.07 L519.56 1088.92 L517.636 1096.65 L515.712 1104.25 L513.788 1111.67 L511.864 1118.9 L509.94 1125.91 L508.016 1132.69 L506.092 1139.22 L504.168 1145.5 L502.244 1151.51 L500.32 1157.25 L498.396 1162.73 L496.472 1167.94 L494.548 1172.89 L492.624 1177.59 L490.7 1182.05 L488.776 1186.28 L486.852 1190.3 L484.928 1194.18 L483.004 1198 L481.08 1201.8 L479.156 1205.65 L477.232 1209.6 L475.308 1213.7 L473.384 1218 L471.46 1222.52 L469.536 1227.3 L467.612 1232.37 L465.688 1237.74 L463.764 1243.45 L461.84 1249.51 L459.916 1255.92 L457.992 1262.69 L456.068 1269.83 L454.144 1277.34 L452.22 1285.21 L450.296 1293.43  Z" fill="#009af9" fill-rule="evenodd" fill-opacity="0.5"/>
<polyline clip-path="url(#clip351)" style="stroke:#009af9; stroke-linecap:round; stroke-linejoin:round; stroke-width:4; stroke-opacity:1; fill:none" points="450.296,1338.84 452.22,1331.24 454.144,1323.94 456.068,1316.96 457.992,1310.29 459.916,1303.93 461.84,1297.89 463.764,1292.15 465.688,1286.72 467.612,1281.57 469.536,1276.7 471.46,1272.08 473.384,1267.69 475.308,1263.51 477.232,1259.49 479.156,1255.61 481.08,1251.81 483.004,1248.07 484.928,1244.32 486.852,1240.51 488.776,1236.57 490.7,1232.46 492.624,1228.14 494.548,1223.61 496.472,1218.86 498.396,1213.87 500.32,1208.65 502.244,1203.19 504.168,1197.49 506.092,1191.55 508.016,1185.38 509.94,1178.99 511.864,1172.38 513.788,1165.58 515.712,1158.6 517.636,1151.47 519.56,1144.21 521.484,1136.84 523.408,1129.41 525.332,1121.95 527.256,1114.51 529.18,1107.12 531.104,1099.78 533.028,1092.51 534.952,1085.28 536.876,1078.11 538.8,1070.98 540.724,1063.9 542.648,1056.84 544.572,1049.82 546.496,1042.83 548.42,1035.85 550.344,1028.88 552.268,1021.92 554.192,1014.95 556.116,1007.97 558.04,1000.96 559.964,993.921 561.888,986.838 563.812,979.701 565.736,972.496 567.66,965.215 569.584,957.855 571.508,950.415 573.432,942.897 575.356,935.302 577.28,927.631 579.204,919.885 581.128,912.067 583.052,904.18 584.976,896.226 586.9,888.209 588.824,880.134 590.748,872.004 592.672,863.825 594.596,855.602 596.52,847.341 598.444,839.05 600.368,830.735 602.292,822.403 604.216,814.064 606.14,805.725 608.064,797.387 609.988,789.051 611.912,780.717 613.836,772.386 615.76,764.057 617.684,755.73 619.608,747.407 621.532,739.088 623.456,730.773 625.38,722.462 627.304,714.156 629.228,705.856 631.152,697.561 633.076,689.274 635,680.993 636.924,672.72 638.849,664.455 640.773,656.2 642.697,647.955 644.621,639.72 646.545,631.497 648.469,623.289 650.393,615.095 652.317,606.919 654.241,598.761 656.165,590.623 658.089,582.509 660.013,574.418 661.937,566.355 663.861,558.32 665.785,550.317 667.709,542.347 669.633,534.413 671.557,526.518 673.481,518.664 675.405,510.855 677.329,503.093 679.253,495.381 681.177,487.722 683.101,480.12 685.025,472.576 686.949,465.091 688.873,457.668 690.797,450.307 692.721,443.011 694.645,435.78 696.569,428.617 698.493,421.523 700.417,414.5 702.341,407.55 704.265,400.673 706.189,393.873 708.113,387.15 710.037,380.507 711.961,373.945 713.885,367.467 715.809,361.074 717.733,354.768 719.657,348.552 721.581,342.426 723.505,336.393 725.429,330.454 727.353,324.61 729.277,318.863 731.201,313.214 733.125,307.665 735.049,302.217 736.973,296.872 738.897,291.631 740.821,286.495 742.745,281.466 744.669,276.546 746.593,271.736 748.517,267.037 750.441,262.451 752.365,257.979 754.289,253.623 756.213,249.385 758.137,245.266 760.061,241.267 761.985,237.389 763.909,233.634 765.833,230.002 767.757,226.495 769.681,223.113 771.605,219.856 773.529,216.727 775.453,213.726 777.377,210.853 779.301,208.109 781.225,205.496 783.149,203.013 785.073,200.663 786.997,198.445 788.921,196.36 790.845,194.409 792.769,192.593 794.693,190.912 796.617,189.368 798.541,187.96 800.465,186.688 802.389,185.554 804.313,184.558 806.237,183.699 808.161,182.979 810.085,182.396 812.009,181.951 813.933,181.645 815.857,181.477 817.781,181.447 819.705,181.555 821.629,181.802 823.553,182.187 825.477,182.71 827.401,183.371 829.325,184.17 831.249,185.107 833.173,186.18 835.097,187.391 837.021,188.738 838.945,190.222 840.869,191.841 842.793,193.596 844.717,195.486 846.641,197.51 848.566,199.668 850.49,201.959 852.414,204.382 854.338,206.937 856.262,209.623 858.186,212.439 860.11,215.384 862.034,218.458 863.958,221.659 865.882,224.987 867.806,228.441 869.73,232.019 871.654,235.72 873.578,239.544 875.502,243.489 877.426,247.554 879.35,251.738 881.274,256.04 883.198,260.459 885.122,264.993 887.046,269.641 888.97,274.402 890.894,279.274 892.818,284.256 894.742,289.348 896.666,294.546 898.59,299.85 900.514,305.258 902.438,310.769 904.362,316.38 906.286,322.091 908.21,327.899 910.134,333.803 912.058,339.801 913.982,345.891 915.906,352.071 917.83,358.34 919.754,364.696 921.678,371.137 923.602,377.663 925.526,384.27 927.45,390.958 929.374,397.724 931.298,404.566 933.222,411.483 935.146,418.473 937.07,425.533 938.994,432.662 940.918,439.858 942.842,447.118 944.766,454.44 946.69,461.823 948.614,469.264 950.538,476.76 952.462,484.31 954.386,491.912 956.31,499.563 958.234,507.262 960.158,515.007 962.082,522.796 964.006,530.627 965.93,538.497 967.854,546.406 969.778,554.35 971.702,562.328 973.626,570.337 975.55,578.376 977.474,586.442 979.398,594.533 981.322,602.646 983.246,610.78 985.17,618.932 987.094,627.1 989.018,635.282 990.942,643.474 992.866,651.676 994.79,659.884 996.714,668.098 998.638,676.316 1000.56,684.535 1002.49,692.753 1004.41,700.969 1006.33,709.181 1008.26,717.386 1010.18,725.582 1012.11,733.768 1014.03,741.942 1015.95,750.1 1017.88,758.242 1019.8,766.365 1021.73,774.467 1023.65,782.546 1025.57,790.6 1027.5,798.626 1029.42,806.623 1031.35,814.588 1033.27,822.521 1035.19,830.419 1037.12,838.28 1039.04,846.104 1040.97,853.888 1042.89,861.63 1044.81,869.329 1046.74,876.984 1048.66,884.592 1050.59,892.152 1052.51,899.662 1054.43,907.121 1056.36,914.526 1058.28,921.877 1060.21,929.17 1062.13,936.406 1064.05,943.581 1065.98,950.694 1067.9,957.744 1069.83,964.729 1071.75,971.648 1073.67,978.5 1075.6,985.284 1077.52,991.997 1079.45,998.64 1081.37,1005.21 1083.29,1011.71 1085.22,1018.13 1087.14,1024.48 1089.07,1030.75 1090.99,1036.95 1092.91,1043.06 1094.84,1049.1 1096.76,1055.05 1098.69,1060.92 1100.61,1066.71 1102.53,1072.42 1104.46,1078.04 1106.38,1083.57 1108.31,1089.02 1110.23,1094.38 1112.15,1099.65 1114.08,1104.83 1116,1109.92 1117.93,1114.92 1119.85,1119.83 1121.77,1124.65 1123.7,1129.38 1125.62,1134.02 1127.55,1138.56 1129.47,1143.01 1131.39,1147.36 1133.32,1151.63 1135.24,1155.79 1137.17,1159.86 1139.09,1163.84 1141.01,1167.72 1142.94,1171.51 1144.86,1175.19 1146.79,1178.79 1148.71,1182.28 1150.63,1185.68 1152.56,1188.98 1154.48,1192.19 1156.41,1195.3 1158.33,1198.31 1160.25,1201.23 1162.18,1204.05 1164.1,1206.78 1166.03,1209.4 1167.95,1211.94 1169.88,1214.37 1171.8,1216.72 1173.72,1218.97 1175.65,1221.12 1177.57,1223.18 1179.5,1225.14 1181.42,1227.02 1183.34,1228.79 1185.27,1230.48 1187.19,1232.08 1189.12,1233.58 1191.04,1234.99 1192.96,1236.31 1194.89,1237.55 1196.81,1238.69 1198.74,1239.75 1200.66,1240.71 1202.58,1241.59 1204.51,1242.39 1206.43,1243.09 1208.36,1243.72 1210.28,1244.26 1212.2,1244.71 1214.13,1245.09 1216.05,1245.38 1217.98,1245.6 1219.9,1245.73 1221.82,1245.79 1223.75,1245.76 1225.67,1245.67 1227.6,1245.49 1229.52,1245.25 1231.44,1244.93 1233.37,1244.53 1235.29,1244.07 1237.22,1243.53 1239.14,1242.93 1241.06,1242.26 1242.99,1241.52 1244.91,1240.71 1246.84,1239.85 1248.76,1238.91 1250.68,1237.92 1252.61,1236.87 1254.53,1235.75 1256.46,1234.58 1258.38,1233.36 1260.3,1232.07 1262.23,1230.74 1264.15,1229.35 1266.08,1227.91 1268,1226.42 1269.92,1224.88 1271.85,1223.3 1273.77,1221.67 1275.7,1219.99 1277.62,1218.27 1279.54,1216.51 1281.47,1214.7 1283.39,1212.86 1285.32,1210.98 1287.24,1209.06 1289.16,1207.1 1291.09,1205.12 1293.01,1203.1 1294.94,1201.05 1296.86,1198.97 1298.78,1196.87 1300.71,1194.74 1302.63,1192.58 1304.56,1190.4 1306.48,1188.2 1308.4,1185.98 1310.33,1183.74 1312.25,1181.48 1314.18,1179.2 1316.1,1176.9 1318.02,1174.6 1319.95,1172.28 1321.87,1169.94 1323.8,1167.6 1325.72,1165.25 1327.64,1162.89 1329.57,1160.53 1331.49,1158.16 1333.42,1155.79 1335.34,1153.41 1337.26,1151.04 1339.19,1148.67 1341.11,1146.31 1343.04,1143.94 1344.96,1141.58 1346.88,1139.23 1348.81,1136.89 1350.73,1134.55 1352.66,1132.22 1354.58,1129.9 1356.5,1127.6 1358.43,1125.3 1360.35,1123.02 1362.28,1120.76 1364.2,1118.51 1366.12,1116.28 1368.05,1114.07 1369.97,1111.88 1371.9,1109.71 1373.82,1107.56 1375.74,1105.44 1377.67,1103.34 1379.59,1101.27 1381.52,1099.23 1383.44,1097.21 1385.36,1095.22 1387.29,1093.26 1389.21,1091.32 1391.14,1089.42 1393.06,1087.55 1394.98,1085.72 1396.91,1083.91 1398.83,1082.14 1400.76,1080.4 1402.68,1078.7 1404.6,1077.04 1406.53,1075.41 1408.45,1073.82 1410.38,1072.27 1412.3,1070.76 1414.22,1069.29 1416.15,1067.86 1418.07,1066.47 1420,1065.13 1421.92,1063.82 1423.84,1062.56 1425.77,1061.35 1427.69,1060.17 1429.62,1059.04 1431.54,1057.96 1433.46,1056.91 1435.39,1055.92 1437.31,1054.97 1439.24,1054.06 1441.16,1053.2 1443.08,1052.39 1445.01,1051.62 1446.93,1050.91 1448.86,1050.24 1450.78,1049.61 1452.7,1049.04 1454.63,1048.51 1456.55,1048.04 1458.48,1047.61 1460.4,1047.23 1462.32,1046.9 1464.25,1046.61 1466.17,1046.38 1468.1,1046.19 1470.02,1046.05 1471.94,1045.96 1473.87,1045.92 1475.79,1045.92 1477.72,1045.98 1479.64,1046.08 1481.56,1046.23 1483.49,1046.42 1485.41,1046.67 1487.34,1046.96 1489.26,1047.3 1491.18,1047.68 1493.11,1048.11 1495.03,1048.59 1496.96,1049.11 1498.88,1049.68 1500.8,1050.3 1502.73,1050.96 1504.65,1051.66 1506.58,1052.41 1508.5,1053.2 1510.42,1054.03 1512.35,1054.91 1514.27,1055.82 1516.2,1056.78 1518.12,1057.78 1520.04,1058.82 1521.97,1059.91 1523.89,1061.03 1525.82,1062.18 1527.74,1063.38 1529.66,1064.62 1531.59,1065.89 1533.51,1067.2 1535.44,1068.54 1537.36,1069.92 1539.28,1071.33 1541.21,1072.78 1543.13,1074.26 1545.06,1075.78 1546.98,1077.32 1548.9,1078.9 1550.83,1080.5 1552.75,1082.13 1554.68,1083.8 1556.6,1085.49 1558.52,1087.2 1560.45,1088.95 1562.37,1090.72 1564.3,1092.51 1566.22,1094.32 1568.14,1096.16 1570.07,1098.02 1571.99,1099.9 1573.92,1101.8 1575.84,1103.72 1577.76,1105.66 1579.69,1107.62 1581.61,1109.59 1583.54,1111.58 1585.46,1113.59 1587.39,1115.6 1589.31,1117.64 1591.23,1119.68 1593.16,1121.73 1595.08,1123.8 1597.01,1125.88 1598.93,1127.96 1600.85,1130.05 1602.78,1132.15 1604.7,1134.25 1606.63,1136.36 1608.55,1138.47 1610.47,1140.58 1612.4,1142.7 1614.32,1144.82 1616.25,1146.93 1618.17,1149.05 1620.09,1151.17 1622.02,1153.28 1623.94,1155.39 1625.87,1157.5 1627.79,1159.6 1629.71,1161.7 1631.64,1163.78 1633.56,1165.87 1635.49,1167.94 1637.41,1170 1639.33,1172.06 1641.26,1174.1 1643.18,1176.13 1645.11,1178.15 1647.03,1180.15 1648.95,1182.14 1650.88,1184.11 1652.8,1186.07 1654.73,1188 1656.65,1189.93 1658.57,1191.83 1660.5,1193.72 1662.42,1195.58 1664.35,1197.43 1666.27,1199.25 1668.19,1201.05 1670.12,1202.83 1672.04,1204.59 1673.97,1206.32 1675.89,1208.03 1677.81,1209.71 1679.74,1211.36 1681.66,1212.99 1683.59,1214.59 1685.51,1216.16 1687.43,1217.7 1689.36,1219.21 1691.28,1220.7 1693.21,1222.15 1695.13,1223.57 1697.05,1224.96 1698.98,1226.32 1700.9,1227.65 1702.83,1228.94 1704.75,1230.2 1706.67,1231.43 1708.6,1232.62 1710.52,1233.78 1712.45,1234.9 1714.37,1235.99 1716.29,1237.04 1718.22,1238.06 1720.14,1239.03 1722.07,1239.98 1723.99,1240.88 1725.91,1241.74 1727.84,1242.57 1729.76,1243.36 1731.69,1244.11 1733.61,1244.82 1735.53,1245.5 1737.46,1246.13 1739.38,1246.73 1741.31,1247.28 1743.23,1247.8 1745.15,1248.28 1747.08,1248.72 1749,1249.12 1750.93,1249.48 1752.85,1249.79 1754.77,1250.07 1756.7,1250.31 1758.62,1250.51 1760.55,1250.67 1762.47,1250.79 1764.39,1250.87 1766.32,1250.9 1768.24,1250.9 1770.17,1250.86 1772.09,1250.78 1774.01,1250.66 1775.94,1250.5 1777.86,1250.3 1779.79,1250.06 1781.71,1249.78 1783.63,1249.47 1785.56,1249.11 1787.48,1248.72 1789.41,1248.29 1791.33,1247.82 1793.25,1247.32 1795.18,1246.78 1797.1,1246.2 1799.03,1245.58 1800.95,1244.93 1802.87,1244.24 1804.8,1243.52 1806.72,1242.76 1808.65,1241.96 1810.57,1241.13 1812.49,1240.27 1814.42,1239.38 1816.34,1238.45 1818.27,1237.49 1820.19,1236.5 1822.11,1235.47 1824.04,1234.42 1825.96,1233.33 1827.89,1232.22 1829.81,1231.07 1831.73,1229.9 1833.66,1228.7 1835.58,1227.47 1837.51,1226.21 1839.43,1224.92 1841.35,1223.61 1843.28,1222.28 1845.2,1220.92 1847.13,1219.53 1849.05,1218.12 1850.97,1216.69 1852.9,1215.24 1854.82,1213.76 1856.75,1212.27 1858.67,1210.75 1860.59,1209.22 1862.52,1207.66 1864.44,1206.09 1866.37,1204.5 1868.29,1202.89 1870.21,1201.27 1872.14,1199.63 1874.06,1197.97 1875.99,1196.31 1877.91,1194.63 1879.83,1192.94 1881.76,1191.23 1883.68,1189.52 1885.61,1187.79 1887.53,1186.06 1889.45,1184.31 1891.38,1182.56 1893.3,1180.8 1895.23,1179.04 1897.15,1177.27 1899.07,1175.49 1901,1173.71 1902.92,1171.93 1904.85,1170.15 1906.77,1168.36 1908.69,1166.57 1910.62,1164.78 1912.54,1163 1914.47,1161.21 1916.39,1159.43 1918.31,1157.65 1920.24,1155.88 1922.16,1154.1 1924.09,1152.34 1926.01,1150.58 1927.93,1148.83 1929.86,1147.08 1931.78,1145.34 1933.71,1143.61 1935.63,1141.89 1937.55,1140.19 1939.48,1138.49 1941.4,1136.8 1943.33,1135.13 1945.25,1133.47 1947.17,1131.83 1949.1,1130.2 1951.02,1128.58 1952.95,1126.98 1954.87,1125.4 1956.79,1123.84 1958.72,1122.3 1960.64,1120.77 1962.57,1119.27 1964.49,1117.79 1966.41,1116.32 1968.34,1114.88 1970.26,1113.46 1972.19,1112.06 1974.11,1110.69 1976.03,1109.34 1977.96,1108.01 1979.88,1106.71 1981.81,1105.44 1983.73,1104.19 1985.65,1102.97 1987.58,1101.78 1989.5,1100.62 1991.43,1099.48 1993.35,1098.38 1995.27,1097.3 1997.2,1096.26 1999.12,1095.24 2001.05,1094.26 2002.97,1093.31 2004.9,1092.39 2006.82,1091.5 2008.74,1090.65 2010.67,1089.83 2012.59,1089.04 2014.52,1088.29 2016.44,1087.57 2018.36,1086.89 2020.29,1086.24 2022.21,1085.62 2024.14,1085.05 2026.06,1084.5 2027.98,1084 2029.91,1083.53 2031.83,1083.1 2033.76,1082.71 2035.68,1082.36 2037.6,1082.04 2039.53,1081.77 2041.45,1081.53 2043.38,1081.32 2045.3,1081.16 2047.22,1081.04 2049.15,1080.95 2051.07,1080.91 2053,1080.9 2054.92,1080.93 2056.84,1081 2058.77,1081.12 2060.69,1081.27 2062.62,1081.46 2064.54,1081.69 2066.46,1081.96 2068.39,1082.27 2070.31,1082.62 2072.24,1083.02 2074.16,1083.45 2076.08,1083.92 2078.01,1084.43 2079.93,1084.98 2081.86,1085.57 2083.78,1086.2 2085.7,1086.87 2087.63,1087.58 2089.55,1088.33 2091.48,1089.12 2093.4,1089.94 2095.32,1090.81 2097.25,1091.71 2099.17,1092.65 2101.1,1093.63 2103.02,1094.65 2104.94,1095.71 2106.87,1096.8 2108.79,1097.93 2110.72,1099.1 2112.64,1100.31 2114.56,1101.55 2116.49,1102.83 2118.41,1104.14 2120.34,1105.49 2122.26,1106.87 2124.18,1108.29 2126.11,1109.75 2128.03,1111.24 2129.96,1112.76 2131.88,1114.31 2133.8,1115.9 2135.73,1117.52 2137.65,1119.18 2139.58,1120.86 2141.5,1122.58 2143.42,1124.33 2145.35,1126.11 2147.27,1127.92 2149.2,1129.75 2151.12,1131.62 2153.04,1133.52 2154.97,1135.45 2156.89,1137.4 2158.82,1139.38 2160.74,1141.38 2162.66,1143.42 2164.59,1145.47 2166.51,1147.56 2168.44,1149.66 2170.36,1151.79 2172.28,1153.95 2174.21,1156.12 2176.13,1158.32 2178.06,1160.54 2179.98,1162.78 2181.9,1165.04 2183.83,1167.32 2185.75,1169.62 2187.68,1171.94 2189.6,1174.27 2191.52,1176.62 2193.45,1178.99 2195.37,1181.38 2197.3,1183.78 2199.22,1186.2 2201.14,1188.63 2203.07,1191.08 2204.99,1193.54 2206.92,1196.01 2208.84,1198.5 2210.76,1201 2212.69,1203.51 2214.61,1206.04 2216.54,1208.57 2218.46,1211.12 2220.38,1213.67 2222.31,1216.23 2224.23,1218.8 2226.16,1221.38 2228.08,1223.97 2230,1226.56 2231.93,1229.15 2233.85,1231.75 2235.78,1234.35 2237.7,1236.95 2239.62,1239.55 2241.55,1242.14 2243.47,1244.74 2245.4,1247.33 2247.32,1249.92 2249.24,1252.5 2251.17,1255.07 2253.09,1257.64 2255.02,1260.2 2256.94,1262.74 2258.86,1265.28 2260.79,1267.8 2262.71,1270.31 2264.64,1272.81 2266.56,1275.3 2268.48,1277.79 2270.41,1280.26 2272.33,1282.73 2274.26,1285.2 2276.18,1287.66 2278.1,1290.12 2280.03,1292.58 2281.95,1295.04 2283.88,1297.5 2285.8,1299.96 2287.72,1302.43 2289.65,1304.9 2291.57,1307.38 2293.5,1309.87 2295.42,1312.37 2297.34,1314.88 "/>
<path clip-path="url(#clip350)" d="M1907.68 196.789 L2287.49 196.789 L2287.49 93.1086 L1907.68 93.1086  Z" fill="#ffffff" fill-rule="evenodd" fill-opacity="1"/>
<polyline clip-path="url(#clip350)" style="stroke:#000000; stroke-linecap:round; stroke-linejoin:round; stroke-width:4; stroke-opacity:1; fill:none" points="1907.68,196.789 2287.49,196.789 2287.49,93.1086 1907.68,93.1086 1907.68,196.789 "/>
<polyline clip-path="url(#clip350)" style="stroke:#009af9; stroke-linecap:round; stroke-linejoin:round; stroke-width:4; stroke-opacity:1; fill:none" points="1929.43,144.949 2059.96,144.949 "/>
<path clip-path="url(#clip350)" d="M2086.39 131.511 L2086.39 158.386 L2092.04 158.386 Q2099.19 158.386 2102.5 155.145 Q2105.83 151.905 2105.83 144.914 Q2105.83 137.969 2102.5 134.752 Q2099.19 131.511 2092.04 131.511 L2086.39 131.511 M2081.71 127.669 L2091.32 127.669 Q2101.37 127.669 2106.06 131.858 Q2110.76 136.025 2110.76 144.914 Q2110.76 153.849 2106.04 158.039 Q2101.32 162.229 2091.32 162.229 L2081.71 162.229 L2081.71 127.669 Z" fill="#000000" fill-rule="nonzero" fill-opacity="1" /><path clip-path="url(#clip350)" d="M2116.39 142.067 L2119.07 142.067 L2119.07 162.229 L2116.39 162.229 L2116.39 142.067 Z" fill="#000000" fill-rule="nonzero" fill-opacity="1" /><path clip-path="url(#clip350)" d="M2158.31 132.507 L2158.31 141.465 L2171.2 141.465 L2171.2 145.4 L2158.31 145.4 L2158.31 154.358 L2154.42 154.358 L2154.42 145.4 L2141.53 145.4 L2141.53 141.465 L2154.42 141.465 L2154.42 132.507 L2158.31 132.507 M2141.53 158.293 L2171.2 158.293 L2171.2 162.229 L2141.53 162.229 L2141.53 158.293 Z" fill="#000000" fill-rule="nonzero" fill-opacity="1" /><path clip-path="url(#clip350)" d="M2207.5 132.275 L2198.01 158.34 L2217.01 158.34 L2207.5 132.275 M2191.67 162.229 L2204.86 127.669 L2210.16 127.669 L2223.33 162.229 L2191.67 162.229 Z" fill="#000000" fill-rule="nonzero" fill-opacity="1" /><path clip-path="url(#clip350)" d="M2233.05 131.511 L2233.05 158.386 L2238.7 158.386 Q2245.86 158.386 2249.17 155.145 Q2252.5 151.905 2252.5 144.914 Q2252.5 137.969 2249.17 134.752 Q2245.86 131.511 2238.7 131.511 L2233.05 131.511 M2228.38 127.669 L2237.98 127.669 Q2248.03 127.669 2252.73 131.858 Q2257.43 136.025 2257.43 144.914 Q2257.43 153.849 2252.71 158.039 Q2247.98 162.229 2237.98 162.229 L2228.38 162.229 L2228.38 127.669 Z" fill="#000000" fill-rule="nonzero" fill-opacity="1" /><path clip-path="url(#clip350)" d="M2263.05 142.067 L2265.74 142.067 L2265.74 162.229 L2263.05 162.229 L2263.05 142.067 Z" fill="#000000" fill-rule="nonzero" fill-opacity="1" /></svg>
