<?xml version="1.0" encoding="utf-8"?>
<svg xmlns="http://www.w3.org/2000/svg" xmlns:xlink="http://www.w3.org/1999/xlink" width="800" height="400" viewBox="0 0 3200 1600">
<defs>
  <clipPath id="clip740">
    <rect x="0" y="0" width="3200" height="1600"/>
  </clipPath>
</defs>
<path clip-path="url(#clip740)" d="M0 1600 L3200 1600 L3200 0 L0 0  Z" fill="#ffffff" fill-rule="evenodd" fill-opacity="1"/>
<defs>
  <clipPath id="clip741">
    <rect x="364" y="47" width="2789" height="1449"/>
  </clipPath>
</defs>
<path clip-path="url(#clip740)" d="M364.733 1495.09 L3152.76 1495.09 L3152.76 47.2441 L364.733 47.2441  Z" fill="#ffffff" fill-rule="evenodd" fill-opacity="1"/>
<polyline clip-path="url(#clip741)" style="stroke:#000000; stroke-linecap:round; stroke-linejoin:round; stroke-width:2; stroke-opacity:0.1; fill:none" points="735.885,1495.09 735.885,47.2441 "/>
<polyline clip-path="url(#clip741)" style="stroke:#000000; stroke-linecap:round; stroke-linejoin:round; stroke-width:2; stroke-opacity:0.1; fill:none" points="1758.74,1495.09 1758.74,47.2441 "/>
<polyline clip-path="url(#clip741)" style="stroke:#000000; stroke-linecap:round; stroke-linejoin:round; stroke-width:2; stroke-opacity:0.1; fill:none" points="2781.6,1495.09 2781.6,47.2441 "/>
<polyline clip-path="url(#clip741)" style="stroke:#000000; stroke-linecap:round; stroke-linejoin:round; stroke-width:2; stroke-opacity:0.1; fill:none" points="364.733,1375.11 3152.76,1375.11 "/>
<polyline clip-path="url(#clip741)" style="stroke:#000000; stroke-linecap:round; stroke-linejoin:round; stroke-width:2; stroke-opacity:0.1; fill:none" points="364.733,1099.46 3152.76,1099.46 "/>
<polyline clip-path="url(#clip741)" style="stroke:#000000; stroke-linecap:round; stroke-linejoin:round; stroke-width:2; stroke-opacity:0.1; fill:none" points="364.733,823.797 3152.76,823.797 "/>
<polyline clip-path="url(#clip741)" style="stroke:#000000; stroke-linecap:round; stroke-linejoin:round; stroke-width:2; stroke-opacity:0.1; fill:none" points="364.733,548.139 3152.76,548.139 "/>
<polyline clip-path="url(#clip741)" style="stroke:#000000; stroke-linecap:round; stroke-linejoin:round; stroke-width:2; stroke-opacity:0.1; fill:none" points="364.733,272.48 3152.76,272.48 "/>
<polyline clip-path="url(#clip740)" style="stroke:#000000; stroke-linecap:round; stroke-linejoin:round; stroke-width:4; stroke-opacity:1; fill:none" points="364.733,1495.09 3152.76,1495.09 "/>
<polyline clip-path="url(#clip740)" style="stroke:#000000; stroke-linecap:round; stroke-linejoin:round; stroke-width:4; stroke-opacity:1; fill:none" points="735.885,1495.09 735.885,1476.19 "/>
<polyline clip-path="url(#clip740)" style="stroke:#000000; stroke-linecap:round; stroke-linejoin:round; stroke-width:4; stroke-opacity:1; fill:none" points="1758.74,1495.09 1758.74,1476.19 "/>
<polyline clip-path="url(#clip740)" style="stroke:#000000; stroke-linecap:round; stroke-linejoin:round; stroke-width:4; stroke-opacity:1; fill:none" points="2781.6,1495.09 2781.6,1476.19 "/>
<path clip-path="url(#clip740)" d="M651.846 1538.73 L651.846 1542.75 Q650.04 1541.83 648.096 1541.36 Q646.151 1540.9 644.068 1540.9 Q640.897 1540.9 639.299 1541.87 Q637.725 1542.85 637.725 1544.79 Q637.725 1546.27 638.86 1547.13 Q639.994 1547.96 643.42 1548.73 L644.878 1549.05 Q649.415 1550.02 651.313 1551.8 Q653.235 1553.56 653.235 1556.74 Q653.235 1560.35 650.364 1562.45 Q647.517 1564.56 642.517 1564.56 Q640.434 1564.56 638.165 1564.14 Q635.92 1563.75 633.42 1562.94 L633.42 1558.54 Q635.781 1559.77 638.073 1560.39 Q640.364 1560.99 642.61 1560.99 Q645.619 1560.99 647.239 1559.98 Q648.86 1558.93 648.86 1557.06 Q648.86 1555.32 647.679 1554.4 Q646.522 1553.47 642.563 1552.61 L641.082 1552.27 Q637.123 1551.43 635.364 1549.72 Q633.605 1547.99 633.605 1544.98 Q633.605 1541.32 636.198 1539.33 Q638.79 1537.34 643.559 1537.34 Q645.92 1537.34 648.003 1537.68 Q650.086 1538.03 651.846 1538.73 Z" fill="#000000" fill-rule="nonzero" fill-opacity="1" /><path clip-path="url(#clip740)" d="M670.804 1566.3 Q668.998 1570.92 667.285 1572.34 Q665.572 1573.75 662.702 1573.75 L659.299 1573.75 L659.299 1570.18 L661.799 1570.18 Q663.559 1570.18 664.531 1569.35 Q665.503 1568.52 666.684 1565.42 L667.447 1563.47 L656.961 1537.96 L661.475 1537.96 L669.577 1558.24 L677.679 1537.96 L682.193 1537.96 L670.804 1566.3 Z" fill="#000000" fill-rule="nonzero" fill-opacity="1" /><path clip-path="url(#clip740)" d="M708.257 1542.94 Q709.855 1540.07 712.077 1538.7 Q714.299 1537.34 717.308 1537.34 Q721.359 1537.34 723.558 1540.18 Q725.757 1543.01 725.757 1548.24 L725.757 1563.89 L721.475 1563.89 L721.475 1548.38 Q721.475 1544.65 720.155 1542.85 Q718.836 1541.04 716.128 1541.04 Q712.818 1541.04 710.896 1543.24 Q708.975 1545.44 708.975 1549.24 L708.975 1563.89 L704.693 1563.89 L704.693 1548.38 Q704.693 1544.63 703.373 1542.85 Q702.054 1541.04 699.299 1541.04 Q696.035 1541.04 694.114 1543.26 Q692.193 1545.46 692.193 1549.24 L692.193 1563.89 L687.91 1563.89 L687.91 1537.96 L692.193 1537.96 L692.193 1541.99 Q693.651 1539.61 695.688 1538.47 Q697.725 1537.34 700.526 1537.34 Q703.35 1537.34 705.318 1538.77 Q707.308 1540.21 708.257 1542.94 Z" fill="#000000" fill-rule="nonzero" fill-opacity="1" /><path clip-path="url(#clip740)" d="M752.864 1550.95 Q752.864 1546.25 750.919 1543.59 Q748.998 1540.9 745.618 1540.9 Q742.239 1540.9 740.294 1543.59 Q738.373 1546.25 738.373 1550.95 Q738.373 1555.65 740.294 1558.33 Q742.239 1560.99 745.618 1560.99 Q748.998 1560.99 750.919 1558.33 Q752.864 1555.65 752.864 1550.95 M738.373 1541.9 Q739.716 1539.58 741.753 1538.47 Q743.813 1537.34 746.66 1537.34 Q751.382 1537.34 754.322 1541.09 Q757.285 1544.84 757.285 1550.95 Q757.285 1557.06 754.322 1560.81 Q751.382 1564.56 746.66 1564.56 Q743.813 1564.56 741.753 1563.45 Q739.716 1562.31 738.373 1560 L738.373 1563.89 L734.091 1563.89 L734.091 1527.87 L738.373 1527.87 L738.373 1541.9 Z" fill="#000000" fill-rule="nonzero" fill-opacity="1" /><path clip-path="url(#clip740)" d="M774.391 1540.95 Q770.965 1540.95 768.975 1543.63 Q766.984 1546.3 766.984 1550.95 Q766.984 1555.6 768.951 1558.29 Q770.942 1560.95 774.391 1560.95 Q777.794 1560.95 779.785 1558.26 Q781.775 1555.58 781.775 1550.95 Q781.775 1546.34 779.785 1543.66 Q777.794 1540.95 774.391 1540.95 M774.391 1537.34 Q779.947 1537.34 783.118 1540.95 Q786.289 1544.56 786.289 1550.95 Q786.289 1557.31 783.118 1560.95 Q779.947 1564.56 774.391 1564.56 Q768.813 1564.56 765.641 1560.95 Q762.493 1557.31 762.493 1550.95 Q762.493 1544.56 765.641 1540.95 Q768.813 1537.34 774.391 1537.34 Z" fill="#000000" fill-rule="nonzero" fill-opacity="1" /><path clip-path="url(#clip740)" d="M793.349 1527.87 L797.609 1527.87 L797.609 1563.89 L793.349 1563.89 L793.349 1527.87 Z" fill="#000000" fill-rule="nonzero" fill-opacity="1" /><path clip-path="url(#clip740)" d="M806.521 1537.96 L810.78 1537.96 L810.78 1563.89 L806.521 1563.89 L806.521 1537.96 M806.521 1527.87 L810.78 1527.87 L810.78 1533.26 L806.521 1533.26 L806.521 1527.87 Z" fill="#000000" fill-rule="nonzero" fill-opacity="1" /><path clip-path="url(#clip740)" d="M838.349 1538.96 L838.349 1542.94 Q836.544 1541.94 834.715 1541.46 Q832.909 1540.95 831.058 1540.95 Q826.914 1540.95 824.622 1543.59 Q822.331 1546.2 822.331 1550.95 Q822.331 1555.69 824.622 1558.33 Q826.914 1560.95 831.058 1560.95 Q832.909 1560.95 834.715 1560.46 Q836.544 1559.95 838.349 1558.96 L838.349 1562.89 Q836.567 1563.73 834.646 1564.14 Q832.747 1564.56 830.595 1564.56 Q824.738 1564.56 821.289 1560.88 Q817.84 1557.2 817.84 1550.95 Q817.84 1544.61 821.312 1540.97 Q824.808 1537.34 830.872 1537.34 Q832.84 1537.34 834.715 1537.75 Q836.59 1538.15 838.349 1538.96 Z" fill="#000000" fill-rule="nonzero" fill-opacity="1" /><path clip-path="url(#clip740)" d="M1669.07 1527.87 L1669.07 1531.41 L1664.99 1531.41 Q1662.7 1531.41 1661.8 1532.34 Q1660.92 1533.26 1660.92 1535.67 L1660.92 1537.96 L1667.93 1537.96 L1667.93 1541.27 L1660.92 1541.27 L1660.92 1563.89 L1656.64 1563.89 L1656.64 1541.27 L1652.56 1541.27 L1652.56 1537.96 L1656.64 1537.96 L1656.64 1536.16 Q1656.64 1531.83 1658.65 1529.86 Q1660.67 1527.87 1665.04 1527.87 L1669.07 1527.87 Z" fill="#000000" fill-rule="nonzero" fill-opacity="1" /><path clip-path="url(#clip740)" d="M1672.63 1537.96 L1676.89 1537.96 L1676.89 1563.89 L1672.63 1563.89 L1672.63 1537.96 M1672.63 1527.87 L1676.89 1527.87 L1676.89 1533.26 L1672.63 1533.26 L1672.63 1527.87 Z" fill="#000000" fill-rule="nonzero" fill-opacity="1" /><path clip-path="url(#clip740)" d="M1707.36 1548.24 L1707.36 1563.89 L1703.1 1563.89 L1703.1 1548.38 Q1703.1 1544.7 1701.66 1542.87 Q1700.23 1541.04 1697.36 1541.04 Q1693.91 1541.04 1691.92 1543.24 Q1689.93 1545.44 1689.93 1549.24 L1689.93 1563.89 L1685.64 1563.89 L1685.64 1537.96 L1689.93 1537.96 L1689.93 1541.99 Q1691.45 1539.65 1693.51 1538.49 Q1695.6 1537.34 1698.3 1537.34 Q1702.77 1537.34 1705.06 1540.11 Q1707.36 1542.87 1707.36 1548.24 Z" fill="#000000" fill-rule="nonzero" fill-opacity="1" /><path clip-path="url(#clip740)" d="M1715.85 1537.96 L1720.11 1537.96 L1720.11 1563.89 L1715.85 1563.89 L1715.85 1537.96 M1715.85 1527.87 L1720.11 1527.87 L1720.11 1533.26 L1715.85 1533.26 L1715.85 1527.87 Z" fill="#000000" fill-rule="nonzero" fill-opacity="1" /><path clip-path="url(#clip740)" d="M1733.24 1530.6 L1733.24 1537.96 L1742.01 1537.96 L1742.01 1541.27 L1733.24 1541.27 L1733.24 1555.35 Q1733.24 1558.52 1734.09 1559.42 Q1734.97 1560.32 1737.63 1560.32 L1742.01 1560.32 L1742.01 1563.89 L1737.63 1563.89 Q1732.7 1563.89 1730.83 1562.06 Q1728.95 1560.21 1728.95 1555.35 L1728.95 1541.27 L1725.83 1541.27 L1725.83 1537.96 L1728.95 1537.96 L1728.95 1530.6 L1733.24 1530.6 Z" fill="#000000" fill-rule="nonzero" fill-opacity="1" /><path clip-path="url(#clip740)" d="M1769.79 1549.86 L1769.79 1551.94 L1750.2 1551.94 Q1750.48 1556.34 1752.84 1558.66 Q1755.23 1560.95 1759.46 1560.95 Q1761.92 1560.95 1764.21 1560.35 Q1766.52 1559.74 1768.79 1558.54 L1768.79 1562.57 Q1766.5 1563.54 1764.09 1564.05 Q1761.68 1564.56 1759.21 1564.56 Q1753 1564.56 1749.37 1560.95 Q1745.76 1557.34 1745.76 1551.18 Q1745.76 1544.81 1749.18 1541.09 Q1752.63 1537.34 1758.47 1537.34 Q1763.7 1537.34 1766.73 1540.72 Q1769.79 1544.07 1769.79 1549.86 M1765.53 1548.61 Q1765.48 1545.11 1763.56 1543.03 Q1761.66 1540.95 1758.51 1540.95 Q1754.95 1540.95 1752.8 1542.96 Q1750.67 1544.98 1750.34 1548.63 L1765.53 1548.61 Z" fill="#000000" fill-rule="nonzero" fill-opacity="1" /><path clip-path="url(#clip740)" d="M1808.91 1541.9 L1808.91 1527.87 L1813.17 1527.87 L1813.17 1563.89 L1808.91 1563.89 L1808.91 1560 Q1807.56 1562.31 1805.5 1563.45 Q1803.47 1564.56 1800.6 1564.56 Q1795.9 1564.56 1792.93 1560.81 Q1789.99 1557.06 1789.99 1550.95 Q1789.99 1544.84 1792.93 1541.09 Q1795.9 1537.34 1800.6 1537.34 Q1803.47 1537.34 1805.5 1538.47 Q1807.56 1539.58 1808.91 1541.9 M1794.39 1550.95 Q1794.39 1555.65 1796.31 1558.33 Q1798.26 1560.99 1801.64 1560.99 Q1805.02 1560.99 1806.96 1558.33 Q1808.91 1555.65 1808.91 1550.95 Q1808.91 1546.25 1806.96 1543.59 Q1805.02 1540.9 1801.64 1540.9 Q1798.26 1540.9 1796.31 1543.59 Q1794.39 1546.25 1794.39 1550.95 Z" fill="#000000" fill-rule="nonzero" fill-opacity="1" /><path clip-path="url(#clip740)" d="M1821.94 1537.96 L1826.2 1537.96 L1826.2 1563.89 L1821.94 1563.89 L1821.94 1537.96 M1821.94 1527.87 L1826.2 1527.87 L1826.2 1533.26 L1821.94 1533.26 L1821.94 1527.87 Z" fill="#000000" fill-rule="nonzero" fill-opacity="1" /><path clip-path="url(#clip740)" d="M1848.23 1527.87 L1848.23 1531.41 L1844.16 1531.41 Q1841.87 1531.41 1840.97 1532.34 Q1840.09 1533.26 1840.09 1535.67 L1840.09 1537.96 L1847.1 1537.96 L1847.1 1541.27 L1840.09 1541.27 L1840.09 1563.89 L1835.8 1563.89 L1835.8 1541.27 L1831.73 1541.27 L1831.73 1537.96 L1835.8 1537.96 L1835.8 1536.16 Q1835.8 1531.83 1837.82 1529.86 Q1839.83 1527.87 1844.21 1527.87 L1848.23 1527.87 Z" fill="#000000" fill-rule="nonzero" fill-opacity="1" /><path clip-path="url(#clip740)" d="M1864.92 1527.87 L1864.92 1531.41 L1860.85 1531.41 Q1858.56 1531.41 1857.66 1532.34 Q1856.78 1533.26 1856.78 1535.67 L1856.78 1537.96 L1863.79 1537.96 L1863.79 1541.27 L1856.78 1541.27 L1856.78 1563.89 L1852.49 1563.89 L1852.49 1541.27 L1848.42 1541.27 L1848.42 1537.96 L1852.49 1537.96 L1852.49 1536.16 Q1852.49 1531.83 1854.51 1529.86 Q1856.52 1527.87 1860.9 1527.87 L1864.92 1527.87 Z" fill="#000000" fill-rule="nonzero" fill-opacity="1" /><path clip-path="url(#clip740)" d="M2661.47 1527.87 L2661.47 1531.41 L2657.39 1531.41 Q2655.1 1531.41 2654.2 1532.34 Q2653.32 1533.26 2653.32 1535.67 L2653.32 1537.96 L2660.33 1537.96 L2660.33 1541.27 L2653.32 1541.27 L2653.32 1563.89 L2649.04 1563.89 L2649.04 1541.27 L2644.96 1541.27 L2644.96 1537.96 L2649.04 1537.96 L2649.04 1536.16 Q2649.04 1531.83 2651.05 1529.86 Q2653.06 1527.87 2657.44 1527.87 L2661.47 1527.87 Z" fill="#000000" fill-rule="nonzero" fill-opacity="1" /><path clip-path="url(#clip740)" d="M2675.08 1540.95 Q2671.65 1540.95 2669.66 1543.63 Q2667.67 1546.3 2667.67 1550.95 Q2667.67 1555.6 2669.64 1558.29 Q2671.63 1560.95 2675.08 1560.95 Q2678.48 1560.95 2680.47 1558.26 Q2682.46 1555.58 2682.46 1550.95 Q2682.46 1546.34 2680.47 1543.66 Q2678.48 1540.95 2675.08 1540.95 M2675.08 1537.34 Q2680.63 1537.34 2683.8 1540.95 Q2686.97 1544.56 2686.97 1550.95 Q2686.97 1557.31 2683.8 1560.95 Q2680.63 1564.56 2675.08 1564.56 Q2669.5 1564.56 2666.33 1560.95 Q2663.18 1557.31 2663.18 1550.95 Q2663.18 1544.56 2666.33 1540.95 Q2669.5 1537.34 2675.08 1537.34 Z" fill="#000000" fill-rule="nonzero" fill-opacity="1" /><path clip-path="url(#clip740)" d="M2709.06 1541.94 Q2708.34 1541.53 2707.48 1541.34 Q2706.65 1541.13 2705.63 1541.13 Q2702.02 1541.13 2700.08 1543.49 Q2698.16 1545.83 2698.16 1550.23 L2698.16 1563.89 L2693.87 1563.89 L2693.87 1537.96 L2698.16 1537.96 L2698.16 1541.99 Q2699.5 1539.63 2701.65 1538.49 Q2703.8 1537.34 2706.88 1537.34 Q2707.32 1537.34 2707.85 1537.41 Q2708.39 1537.45 2709.03 1537.57 L2709.06 1541.94 Z" fill="#000000" fill-rule="nonzero" fill-opacity="1" /><path clip-path="url(#clip740)" d="M2711.05 1537.96 L2715.31 1537.96 L2720.63 1558.19 L2725.93 1537.96 L2730.96 1537.96 L2736.28 1558.19 L2741.58 1537.96 L2745.84 1537.96 L2739.06 1563.89 L2734.03 1563.89 L2728.46 1542.64 L2722.85 1563.89 L2717.83 1563.89 L2711.05 1537.96 Z" fill="#000000" fill-rule="nonzero" fill-opacity="1" /><path clip-path="url(#clip740)" d="M2764.08 1550.86 Q2758.92 1550.86 2756.93 1552.04 Q2754.94 1553.22 2754.94 1556.06 Q2754.94 1558.33 2756.42 1559.67 Q2757.92 1560.99 2760.49 1560.99 Q2764.03 1560.99 2766.16 1558.49 Q2768.32 1555.97 2768.32 1551.8 L2768.32 1550.86 L2764.08 1550.86 M2772.58 1549.1 L2772.58 1563.89 L2768.32 1563.89 L2768.32 1559.95 Q2766.86 1562.31 2764.68 1563.45 Q2762.51 1564.56 2759.36 1564.56 Q2755.38 1564.56 2753.02 1562.34 Q2750.68 1560.09 2750.68 1556.34 Q2750.68 1551.97 2753.59 1549.74 Q2756.53 1547.52 2762.34 1547.52 L2768.32 1547.52 L2768.32 1547.11 Q2768.32 1544.17 2766.37 1542.57 Q2764.45 1540.95 2760.96 1540.95 Q2758.73 1540.95 2756.63 1541.48 Q2754.52 1542.01 2752.58 1543.08 L2752.58 1539.14 Q2754.91 1538.24 2757.11 1537.8 Q2759.31 1537.34 2761.4 1537.34 Q2767.02 1537.34 2769.8 1540.25 Q2772.58 1543.17 2772.58 1549.1 Z" fill="#000000" fill-rule="nonzero" fill-opacity="1" /><path clip-path="url(#clip740)" d="M2796.37 1541.94 Q2795.65 1541.53 2794.8 1541.34 Q2793.96 1541.13 2792.95 1541.13 Q2789.34 1541.13 2787.39 1543.49 Q2785.47 1545.83 2785.47 1550.23 L2785.47 1563.89 L2781.19 1563.89 L2781.19 1537.96 L2785.47 1537.96 L2785.47 1541.99 Q2786.81 1539.63 2788.97 1538.49 Q2791.12 1537.34 2794.2 1537.34 Q2794.64 1537.34 2795.17 1537.41 Q2795.7 1537.45 2796.35 1537.57 L2796.37 1541.94 Z" fill="#000000" fill-rule="nonzero" fill-opacity="1" /><path clip-path="url(#clip740)" d="M2817.07 1541.9 L2817.07 1527.87 L2821.33 1527.87 L2821.33 1563.89 L2817.07 1563.89 L2817.07 1560 Q2815.72 1562.31 2813.66 1563.45 Q2811.63 1564.56 2808.76 1564.56 Q2804.06 1564.56 2801.09 1560.81 Q2798.15 1557.06 2798.15 1550.95 Q2798.15 1544.84 2801.09 1541.09 Q2804.06 1537.34 2808.76 1537.34 Q2811.63 1537.34 2813.66 1538.47 Q2815.72 1539.58 2817.07 1541.9 M2802.55 1550.95 Q2802.55 1555.65 2804.47 1558.33 Q2806.42 1560.99 2809.8 1560.99 Q2813.18 1560.99 2815.12 1558.33 Q2817.07 1555.65 2817.07 1550.95 Q2817.07 1546.25 2815.12 1543.59 Q2813.18 1540.9 2809.8 1540.9 Q2806.42 1540.9 2804.47 1543.59 Q2802.55 1546.25 2802.55 1550.95 Z" fill="#000000" fill-rule="nonzero" fill-opacity="1" /><path clip-path="url(#clip740)" d="M2862.23 1541.9 L2862.23 1527.87 L2866.49 1527.87 L2866.49 1563.89 L2862.23 1563.89 L2862.23 1560 Q2860.89 1562.31 2858.83 1563.45 Q2856.79 1564.56 2853.92 1564.56 Q2849.22 1564.56 2846.26 1560.81 Q2843.32 1557.06 2843.32 1550.95 Q2843.32 1544.84 2846.26 1541.09 Q2849.22 1537.34 2853.92 1537.34 Q2856.79 1537.34 2858.83 1538.47 Q2860.89 1539.58 2862.23 1541.9 M2847.71 1550.95 Q2847.71 1555.65 2849.64 1558.33 Q2851.58 1560.99 2854.96 1560.99 Q2858.34 1560.99 2860.28 1558.33 Q2862.23 1555.65 2862.23 1550.95 Q2862.23 1546.25 2860.28 1543.59 Q2858.34 1540.9 2854.96 1540.9 Q2851.58 1540.9 2849.64 1543.59 Q2847.71 1546.25 2847.71 1550.95 Z" fill="#000000" fill-rule="nonzero" fill-opacity="1" /><path clip-path="url(#clip740)" d="M2875.26 1537.96 L2879.52 1537.96 L2879.52 1563.89 L2875.26 1563.89 L2875.26 1537.96 M2875.26 1527.87 L2879.52 1527.87 L2879.52 1533.26 L2875.26 1533.26 L2875.26 1527.87 Z" fill="#000000" fill-rule="nonzero" fill-opacity="1" /><path clip-path="url(#clip740)" d="M2901.56 1527.87 L2901.56 1531.41 L2897.48 1531.41 Q2895.19 1531.41 2894.29 1532.34 Q2893.41 1533.26 2893.41 1535.67 L2893.41 1537.96 L2900.42 1537.96 L2900.42 1541.27 L2893.41 1541.27 L2893.41 1563.89 L2889.13 1563.89 L2889.13 1541.27 L2885.05 1541.27 L2885.05 1537.96 L2889.13 1537.96 L2889.13 1536.16 Q2889.13 1531.83 2891.14 1529.86 Q2893.15 1527.87 2897.53 1527.87 L2901.56 1527.87 Z" fill="#000000" fill-rule="nonzero" fill-opacity="1" /><path clip-path="url(#clip740)" d="M2918.25 1527.87 L2918.25 1531.41 L2914.17 1531.41 Q2911.88 1531.41 2910.98 1532.34 Q2910.1 1533.26 2910.1 1535.67 L2910.1 1537.96 L2917.11 1537.96 L2917.11 1541.27 L2910.1 1541.27 L2910.1 1563.89 L2905.82 1563.89 L2905.82 1541.27 L2901.74 1541.27 L2901.74 1537.96 L2905.82 1537.96 L2905.82 1536.16 Q2905.82 1531.83 2907.83 1529.86 Q2909.84 1527.87 2914.22 1527.87 L2918.25 1527.87 Z" fill="#000000" fill-rule="nonzero" fill-opacity="1" /><polyline clip-path="url(#clip740)" style="stroke:#000000; stroke-linecap:round; stroke-linejoin:round; stroke-width:4; stroke-opacity:1; fill:none" points="364.733,1495.09 364.733,47.2441 "/>
<polyline clip-path="url(#clip740)" style="stroke:#000000; stroke-linecap:round; stroke-linejoin:round; stroke-width:4; stroke-opacity:1; fill:none" points="364.733,1375.11 383.63,1375.11 "/>
<polyline clip-path="url(#clip740)" style="stroke:#000000; stroke-linecap:round; stroke-linejoin:round; stroke-width:4; stroke-opacity:1; fill:none" points="364.733,1099.46 383.63,1099.46 "/>
<polyline clip-path="url(#clip740)" style="stroke:#000000; stroke-linecap:round; stroke-linejoin:round; stroke-width:4; stroke-opacity:1; fill:none" points="364.733,823.797 383.63,823.797 "/>
<polyline clip-path="url(#clip740)" style="stroke:#000000; stroke-linecap:round; stroke-linejoin:round; stroke-width:4; stroke-opacity:1; fill:none" points="364.733,548.139 383.63,548.139 "/>
<polyline clip-path="url(#clip740)" style="stroke:#000000; stroke-linecap:round; stroke-linejoin:round; stroke-width:4; stroke-opacity:1; fill:none" points="364.733,272.48 383.63,272.48 "/>
<path clip-path="url(#clip740)" d="M100.137 1364.28 L118.493 1364.28 L118.493 1368.22 L104.419 1368.22 L104.419 1376.69 Q105.437 1376.34 106.456 1376.18 Q107.474 1376 108.493 1376 Q114.28 1376 117.66 1379.17 Q121.039 1382.34 121.039 1387.75 Q121.039 1393.33 117.567 1396.43 Q114.095 1399.51 107.775 1399.51 Q105.599 1399.51 103.331 1399.14 Q101.086 1398.77 98.6782 1398.03 L98.6782 1393.33 Q100.762 1394.47 102.984 1395.02 Q105.206 1395.58 107.683 1395.58 Q111.687 1395.58 114.025 1393.47 Q116.363 1391.37 116.363 1387.75 Q116.363 1384.14 114.025 1382.04 Q111.687 1379.93 107.683 1379.93 Q105.808 1379.93 103.933 1380.35 Q102.081 1380.76 100.137 1381.64 L100.137 1364.28 Z" fill="#000000" fill-rule="nonzero" fill-opacity="1" /><path clip-path="url(#clip740)" d="M130.252 1392.96 L135.136 1392.96 L135.136 1398.84 L130.252 1398.84 L130.252 1392.96 Z" fill="#000000" fill-rule="nonzero" fill-opacity="1" /><path clip-path="url(#clip740)" d="M155.321 1367.36 Q151.71 1367.36 149.882 1370.93 Q148.076 1374.47 148.076 1381.6 Q148.076 1388.7 149.882 1392.27 Q151.71 1395.81 155.321 1395.81 Q158.956 1395.81 160.761 1392.27 Q162.59 1388.7 162.59 1381.6 Q162.59 1374.47 160.761 1370.93 Q158.956 1367.36 155.321 1367.36 M155.321 1363.66 Q161.132 1363.66 164.187 1368.26 Q167.266 1372.85 167.266 1381.6 Q167.266 1390.32 164.187 1394.93 Q161.132 1399.51 155.321 1399.51 Q149.511 1399.51 146.433 1394.93 Q143.377 1390.32 143.377 1381.6 Q143.377 1372.85 146.433 1368.26 Q149.511 1363.66 155.321 1363.66 Z" fill="#000000" fill-rule="nonzero" fill-opacity="1" /><path clip-path="url(#clip740)" d="M185.483 1367.36 Q181.872 1367.36 180.043 1370.93 Q178.238 1374.47 178.238 1381.6 Q178.238 1388.7 180.043 1392.27 Q181.872 1395.81 185.483 1395.81 Q189.118 1395.81 190.923 1392.27 Q192.752 1388.7 192.752 1381.6 Q192.752 1374.47 190.923 1370.93 Q189.118 1367.36 185.483 1367.36 M185.483 1363.66 Q191.293 1363.66 194.349 1368.26 Q197.428 1372.85 197.428 1381.6 Q197.428 1390.32 194.349 1394.93 Q191.293 1399.51 185.483 1399.51 Q179.673 1399.51 176.594 1394.93 Q173.539 1390.32 173.539 1381.6 Q173.539 1372.85 176.594 1368.26 Q179.673 1363.66 185.483 1363.66 Z" fill="#000000" fill-rule="nonzero" fill-opacity="1" /><path clip-path="url(#clip740)" d="M233.816 1373.38 L223.238 1384 L233.816 1394.58 L231.062 1397.38 L220.437 1386.76 L209.812 1397.38 L207.08 1394.58 L217.636 1384 L207.08 1373.38 L209.812 1370.58 L220.437 1381.2 L231.062 1370.58 L233.816 1373.38 Z" fill="#000000" fill-rule="nonzero" fill-opacity="1" /><path clip-path="url(#clip740)" d="M246.177 1394.91 L253.816 1394.91 L253.816 1368.54 L245.506 1370.21 L245.506 1365.95 L253.77 1364.28 L258.446 1364.28 L258.446 1394.91 L266.085 1394.91 L266.085 1398.84 L246.177 1398.84 L246.177 1394.91 Z" fill="#000000" fill-rule="nonzero" fill-opacity="1" /><path clip-path="url(#clip740)" d="M285.529 1367.36 Q281.918 1367.36 280.089 1370.93 Q278.284 1374.47 278.284 1381.6 Q278.284 1388.7 280.089 1392.27 Q281.918 1395.81 285.529 1395.81 Q289.163 1395.81 290.969 1392.27 Q292.798 1388.7 292.798 1381.6 Q292.798 1374.47 290.969 1370.93 Q289.163 1367.36 285.529 1367.36 M285.529 1363.66 Q291.339 1363.66 294.395 1368.26 Q297.473 1372.85 297.473 1381.6 Q297.473 1390.32 294.395 1394.93 Q291.339 1399.51 285.529 1399.51 Q279.719 1399.51 276.64 1394.93 Q273.585 1390.32 273.585 1381.6 Q273.585 1372.85 276.64 1368.26 Q279.719 1363.66 285.529 1363.66 Z" fill="#000000" fill-rule="nonzero" fill-opacity="1" /><path clip-path="url(#clip740)" d="M307.103 1358.1 Q304.395 1358.1 302.834 1359.55 Q301.291 1360.99 301.291 1363.53 Q301.291 1366.07 302.834 1367.52 Q304.395 1368.97 307.103 1368.97 Q309.811 1368.97 311.372 1367.52 Q312.933 1366.05 312.933 1363.53 Q312.933 1360.99 311.372 1359.55 Q309.83 1358.1 307.103 1358.1 M303.304 1356.48 Q300.859 1355.88 299.486 1354.2 Q298.132 1352.53 298.132 1350.12 Q298.132 1346.76 300.52 1344.8 Q302.928 1342.84 307.103 1342.84 Q311.297 1342.84 313.686 1344.8 Q316.074 1346.76 316.074 1350.12 Q316.074 1352.53 314.701 1354.2 Q313.347 1355.88 310.921 1356.48 Q313.667 1357.12 315.19 1358.98 Q316.733 1360.84 316.733 1363.53 Q316.733 1367.61 314.231 1369.8 Q311.749 1371.98 307.103 1371.98 Q302.457 1371.98 299.956 1369.8 Q297.473 1367.61 297.473 1363.53 Q297.473 1360.84 299.016 1358.98 Q300.558 1357.12 303.304 1356.48 M301.912 1350.48 Q301.912 1352.66 303.266 1353.88 Q304.639 1355.11 307.103 1355.11 Q309.548 1355.11 310.921 1353.88 Q312.313 1352.66 312.313 1350.48 Q312.313 1348.3 310.921 1347.08 Q309.548 1345.85 307.103 1345.85 Q304.639 1345.85 303.266 1347.08 Q301.912 1348.3 301.912 1350.48 Z" fill="#000000" fill-rule="nonzero" fill-opacity="1" /><path clip-path="url(#clip740)" d="M100.788 1119.25 L108.426 1119.25 L108.426 1092.88 L100.116 1094.55 L100.116 1090.29 L108.38 1088.62 L113.056 1088.62 L113.056 1119.25 L120.695 1119.25 L120.695 1123.18 L100.788 1123.18 L100.788 1119.25 Z" fill="#000000" fill-rule="nonzero" fill-opacity="1" /><path clip-path="url(#clip740)" d="M130.139 1117.3 L135.023 1117.3 L135.023 1123.18 L130.139 1123.18 L130.139 1117.3 Z" fill="#000000" fill-rule="nonzero" fill-opacity="1" /><path clip-path="url(#clip740)" d="M155.209 1091.7 Q151.597 1091.7 149.769 1095.27 Q147.963 1098.81 147.963 1105.94 Q147.963 1113.04 149.769 1116.61 Q151.597 1120.15 155.209 1120.15 Q158.843 1120.15 160.648 1116.61 Q162.477 1113.04 162.477 1105.94 Q162.477 1098.81 160.648 1095.27 Q158.843 1091.7 155.209 1091.7 M155.209 1088 Q161.019 1088 164.074 1092.61 Q167.153 1097.19 167.153 1105.94 Q167.153 1114.67 164.074 1119.27 Q161.019 1123.85 155.209 1123.85 Q149.398 1123.85 146.32 1119.27 Q143.264 1114.67 143.264 1105.94 Q143.264 1097.19 146.32 1092.61 Q149.398 1088 155.209 1088 Z" fill="#000000" fill-rule="nonzero" fill-opacity="1" /><path clip-path="url(#clip740)" d="M185.37 1091.7 Q181.759 1091.7 179.931 1095.27 Q178.125 1098.81 178.125 1105.94 Q178.125 1113.04 179.931 1116.61 Q181.759 1120.15 185.37 1120.15 Q189.005 1120.15 190.81 1116.61 Q192.639 1113.04 192.639 1105.94 Q192.639 1098.81 190.81 1095.27 Q189.005 1091.7 185.37 1091.7 M185.37 1088 Q191.181 1088 194.236 1092.61 Q197.315 1097.19 197.315 1105.94 Q197.315 1114.67 194.236 1119.27 Q191.181 1123.85 185.37 1123.85 Q179.56 1123.85 176.482 1119.27 Q173.426 1114.67 173.426 1105.94 Q173.426 1097.19 176.482 1092.61 Q179.56 1088 185.37 1088 Z" fill="#000000" fill-rule="nonzero" fill-opacity="1" /><path clip-path="url(#clip740)" d="M233.704 1097.72 L223.125 1108.35 L233.704 1118.92 L230.949 1121.73 L220.324 1111.1 L209.699 1121.73 L206.968 1118.92 L217.523 1108.35 L206.968 1097.72 L209.699 1094.92 L220.324 1105.54 L230.949 1094.92 L233.704 1097.72 Z" fill="#000000" fill-rule="nonzero" fill-opacity="1" /><path clip-path="url(#clip740)" d="M246.065 1119.25 L253.703 1119.25 L253.703 1092.88 L245.393 1094.55 L245.393 1090.29 L253.657 1088.62 L258.333 1088.62 L258.333 1119.25 L265.972 1119.25 L265.972 1123.18 L246.065 1123.18 L246.065 1119.25 Z" fill="#000000" fill-rule="nonzero" fill-opacity="1" /><path clip-path="url(#clip740)" d="M285.416 1091.7 Q281.805 1091.7 279.976 1095.27 Q278.171 1098.81 278.171 1105.94 Q278.171 1113.04 279.976 1116.61 Q281.805 1120.15 285.416 1120.15 Q289.05 1120.15 290.856 1116.61 Q292.685 1113.04 292.685 1105.94 Q292.685 1098.81 290.856 1095.27 Q289.05 1091.7 285.416 1091.7 M285.416 1088 Q291.226 1088 294.282 1092.61 Q297.361 1097.19 297.361 1105.94 Q297.361 1114.67 294.282 1119.27 Q291.226 1123.85 285.416 1123.85 Q279.606 1123.85 276.527 1119.27 Q273.472 1114.67 273.472 1105.94 Q273.472 1097.19 276.527 1092.61 Q279.606 1088 285.416 1088 Z" fill="#000000" fill-rule="nonzero" fill-opacity="1" /><path clip-path="url(#clip740)" d="M299.166 1095.19 L299.166 1091.73 Q300.596 1092.41 302.063 1092.76 Q303.53 1093.12 304.94 1093.12 Q308.702 1093.12 310.676 1090.6 Q312.67 1088.06 312.952 1082.91 Q311.861 1084.53 310.187 1085.39 Q308.514 1086.26 306.482 1086.26 Q302.269 1086.26 299.806 1083.72 Q297.361 1081.16 297.361 1076.74 Q297.361 1072.41 299.918 1069.8 Q302.476 1067.19 306.727 1067.19 Q311.598 1067.19 314.156 1070.93 Q316.733 1074.65 316.733 1081.76 Q316.733 1088.4 313.573 1092.37 Q310.432 1096.32 305.109 1096.32 Q303.68 1096.32 302.213 1096.04 Q300.746 1095.75 299.166 1095.19 M306.727 1083.28 Q309.285 1083.28 310.771 1081.54 Q312.275 1079.79 312.275 1076.74 Q312.275 1073.71 310.771 1071.96 Q309.285 1070.19 306.727 1070.19 Q304.169 1070.19 302.664 1071.96 Q301.179 1073.71 301.179 1076.74 Q301.179 1079.79 302.664 1081.54 Q304.169 1083.28 306.727 1083.28 Z" fill="#000000" fill-rule="nonzero" fill-opacity="1" /><path clip-path="url(#clip740)" d="M100.788 843.59 L108.426 843.59 L108.426 817.224 L100.116 818.891 L100.116 814.632 L108.38 812.965 L113.056 812.965 L113.056 843.59 L120.695 843.59 L120.695 847.525 L100.788 847.525 L100.788 843.59 Z" fill="#000000" fill-rule="nonzero" fill-opacity="1" /><path clip-path="url(#clip740)" d="M130.139 841.645 L135.023 841.645 L135.023 847.525 L130.139 847.525 L130.139 841.645 Z" fill="#000000" fill-rule="nonzero" fill-opacity="1" /><path clip-path="url(#clip740)" d="M145.255 812.965 L163.611 812.965 L163.611 816.9 L149.537 816.9 L149.537 825.372 Q150.556 825.025 151.574 824.863 Q152.593 824.678 153.611 824.678 Q159.398 824.678 162.778 827.849 Q166.158 831.02 166.158 836.437 Q166.158 842.016 162.685 845.118 Q159.213 848.196 152.894 848.196 Q150.718 848.196 148.449 847.826 Q146.204 847.456 143.797 846.715 L143.797 842.016 Q145.88 843.15 148.102 843.706 Q150.324 844.261 152.801 844.261 Q156.806 844.261 159.144 842.155 Q161.482 840.048 161.482 836.437 Q161.482 832.826 159.144 830.719 Q156.806 828.613 152.801 828.613 Q150.926 828.613 149.051 829.03 Q147.199 829.446 145.255 830.326 L145.255 812.965 Z" fill="#000000" fill-rule="nonzero" fill-opacity="1" /><path clip-path="url(#clip740)" d="M185.37 816.044 Q181.759 816.044 179.931 819.608 Q178.125 823.15 178.125 830.28 Q178.125 837.386 179.931 840.951 Q181.759 844.493 185.37 844.493 Q189.005 844.493 190.81 840.951 Q192.639 837.386 192.639 830.28 Q192.639 823.15 190.81 819.608 Q189.005 816.044 185.37 816.044 M185.37 812.34 Q191.181 812.34 194.236 816.946 Q197.315 821.53 197.315 830.28 Q197.315 839.006 194.236 843.613 Q191.181 848.196 185.37 848.196 Q179.56 848.196 176.482 843.613 Q173.426 839.006 173.426 830.28 Q173.426 821.53 176.482 816.946 Q179.56 812.34 185.37 812.34 Z" fill="#000000" fill-rule="nonzero" fill-opacity="1" /><path clip-path="url(#clip740)" d="M233.704 822.062 L223.125 832.687 L233.704 843.266 L230.949 846.067 L220.324 835.442 L209.699 846.067 L206.968 843.266 L217.523 832.687 L206.968 822.062 L209.699 819.261 L220.324 829.886 L230.949 819.261 L233.704 822.062 Z" fill="#000000" fill-rule="nonzero" fill-opacity="1" /><path clip-path="url(#clip740)" d="M246.065 843.59 L253.703 843.59 L253.703 817.224 L245.393 818.891 L245.393 814.632 L253.657 812.965 L258.333 812.965 L258.333 843.59 L265.972 843.59 L265.972 847.525 L246.065 847.525 L246.065 843.59 Z" fill="#000000" fill-rule="nonzero" fill-opacity="1" /><path clip-path="url(#clip740)" d="M285.416 816.044 Q281.805 816.044 279.976 819.608 Q278.171 823.15 278.171 830.28 Q278.171 837.386 279.976 840.951 Q281.805 844.493 285.416 844.493 Q289.05 844.493 290.856 840.951 Q292.685 837.386 292.685 830.28 Q292.685 823.15 290.856 819.608 Q289.05 816.044 285.416 816.044 M285.416 812.34 Q291.226 812.34 294.282 816.946 Q297.361 821.53 297.361 830.28 Q297.361 839.006 294.282 843.613 Q291.226 848.196 285.416 848.196 Q279.606 848.196 276.527 843.613 Q273.472 839.006 273.472 830.28 Q273.472 821.53 276.527 816.946 Q279.606 812.34 285.416 812.34 Z" fill="#000000" fill-rule="nonzero" fill-opacity="1" /><path clip-path="url(#clip740)" d="M299.166 819.532 L299.166 816.071 Q300.596 816.748 302.063 817.105 Q303.53 817.463 304.94 817.463 Q308.702 817.463 310.676 814.942 Q312.67 812.403 312.952 807.25 Q311.861 808.868 310.187 809.733 Q308.514 810.598 306.482 810.598 Q302.269 810.598 299.806 808.059 Q297.361 805.501 297.361 801.081 Q297.361 796.755 299.918 794.141 Q302.476 791.527 306.727 791.527 Q311.598 791.527 314.156 795.269 Q316.733 798.993 316.733 806.103 Q316.733 812.742 313.573 816.71 Q310.432 820.66 305.109 820.66 Q303.68 820.66 302.213 820.378 Q300.746 820.096 299.166 819.532 M306.727 807.626 Q309.285 807.626 310.771 805.877 Q312.275 804.128 312.275 801.081 Q312.275 798.053 310.771 796.304 Q309.285 794.536 306.727 794.536 Q304.169 794.536 302.664 796.304 Q301.179 798.053 301.179 801.081 Q301.179 804.128 302.664 805.877 Q304.169 807.626 306.727 807.626 Z" fill="#000000" fill-rule="nonzero" fill-opacity="1" /><path clip-path="url(#clip740)" d="M104.005 567.931 L120.324 567.931 L120.324 571.866 L98.3802 571.866 L98.3802 567.931 Q101.042 565.177 105.625 560.547 Q110.232 555.894 111.412 554.552 Q113.658 552.028 114.537 550.292 Q115.44 548.533 115.44 546.843 Q115.44 544.089 113.496 542.353 Q111.575 540.616 108.473 540.616 Q106.274 540.616 103.82 541.38 Q101.389 542.144 98.6116 543.695 L98.6116 538.973 Q101.436 537.839 103.889 537.26 Q106.343 536.681 108.38 536.681 Q113.75 536.681 116.945 539.366 Q120.139 542.052 120.139 546.542 Q120.139 548.672 119.329 550.593 Q118.542 552.491 116.436 555.084 Q115.857 555.755 112.755 558.973 Q109.653 562.167 104.005 567.931 Z" fill="#000000" fill-rule="nonzero" fill-opacity="1" /><path clip-path="url(#clip740)" d="M130.139 565.987 L135.023 565.987 L135.023 571.866 L130.139 571.866 L130.139 565.987 Z" fill="#000000" fill-rule="nonzero" fill-opacity="1" /><path clip-path="url(#clip740)" d="M155.209 540.385 Q151.597 540.385 149.769 543.95 Q147.963 547.491 147.963 554.621 Q147.963 561.727 149.769 565.292 Q151.597 568.834 155.209 568.834 Q158.843 568.834 160.648 565.292 Q162.477 561.727 162.477 554.621 Q162.477 547.491 160.648 543.95 Q158.843 540.385 155.209 540.385 M155.209 536.681 Q161.019 536.681 164.074 541.288 Q167.153 545.871 167.153 554.621 Q167.153 563.348 164.074 567.954 Q161.019 572.538 155.209 572.538 Q149.398 572.538 146.32 567.954 Q143.264 563.348 143.264 554.621 Q143.264 545.871 146.32 541.288 Q149.398 536.681 155.209 536.681 Z" fill="#000000" fill-rule="nonzero" fill-opacity="1" /><path clip-path="url(#clip740)" d="M185.37 540.385 Q181.759 540.385 179.931 543.95 Q178.125 547.491 178.125 554.621 Q178.125 561.727 179.931 565.292 Q181.759 568.834 185.37 568.834 Q189.005 568.834 190.81 565.292 Q192.639 561.727 192.639 554.621 Q192.639 547.491 190.81 543.95 Q189.005 540.385 185.37 540.385 M185.37 536.681 Q191.181 536.681 194.236 541.288 Q197.315 545.871 197.315 554.621 Q197.315 563.348 194.236 567.954 Q191.181 572.538 185.37 572.538 Q179.56 572.538 176.482 567.954 Q173.426 563.348 173.426 554.621 Q173.426 545.871 176.482 541.288 Q179.56 536.681 185.37 536.681 Z" fill="#000000" fill-rule="nonzero" fill-opacity="1" /><path clip-path="url(#clip740)" d="M233.704 546.403 L223.125 557.028 L233.704 567.607 L230.949 570.408 L220.324 559.783 L209.699 570.408 L206.968 567.607 L217.523 557.028 L206.968 546.403 L209.699 543.603 L220.324 554.228 L230.949 543.603 L233.704 546.403 Z" fill="#000000" fill-rule="nonzero" fill-opacity="1" /><path clip-path="url(#clip740)" d="M246.065 567.931 L253.703 567.931 L253.703 541.566 L245.393 543.232 L245.393 538.973 L253.657 537.306 L258.333 537.306 L258.333 567.931 L265.972 567.931 L265.972 571.866 L246.065 571.866 L246.065 567.931 Z" fill="#000000" fill-rule="nonzero" fill-opacity="1" /><path clip-path="url(#clip740)" d="M285.416 540.385 Q281.805 540.385 279.976 543.95 Q278.171 547.491 278.171 554.621 Q278.171 561.727 279.976 565.292 Q281.805 568.834 285.416 568.834 Q289.05 568.834 290.856 565.292 Q292.685 561.727 292.685 554.621 Q292.685 547.491 290.856 543.95 Q289.05 540.385 285.416 540.385 M285.416 536.681 Q291.226 536.681 294.282 541.288 Q297.361 545.871 297.361 554.621 Q297.361 563.348 294.282 567.954 Q291.226 572.538 285.416 572.538 Q279.606 572.538 276.527 567.954 Q273.472 563.348 273.472 554.621 Q273.472 545.871 276.527 541.288 Q279.606 536.681 285.416 536.681 Z" fill="#000000" fill-rule="nonzero" fill-opacity="1" /><path clip-path="url(#clip740)" d="M299.166 543.873 L299.166 540.412 Q300.596 541.089 302.063 541.447 Q303.53 541.804 304.94 541.804 Q308.702 541.804 310.676 539.284 Q312.67 536.745 312.952 531.591 Q311.861 533.209 310.187 534.074 Q308.514 534.939 306.482 534.939 Q302.269 534.939 299.806 532.4 Q297.361 529.842 297.361 525.422 Q297.361 521.097 299.918 518.482 Q302.476 515.868 306.727 515.868 Q311.598 515.868 314.156 519.611 Q316.733 523.335 316.733 530.444 Q316.733 537.083 313.573 541.052 Q310.432 545.001 305.109 545.001 Q303.68 545.001 302.213 544.719 Q300.746 544.437 299.166 543.873 M306.727 531.968 Q309.285 531.968 310.771 530.218 Q312.275 528.469 312.275 525.422 Q312.275 522.394 310.771 520.645 Q309.285 518.877 306.727 518.877 Q304.169 518.877 302.664 520.645 Q301.179 522.394 301.179 525.422 Q301.179 528.469 302.664 530.218 Q304.169 531.968 306.727 531.968 Z" fill="#000000" fill-rule="nonzero" fill-opacity="1" /><path clip-path="url(#clip740)" d="M104.005 292.273 L120.324 292.273 L120.324 296.208 L98.3802 296.208 L98.3802 292.273 Q101.042 289.518 105.625 284.888 Q110.232 280.236 111.412 278.893 Q113.658 276.37 114.537 274.634 Q115.44 272.874 115.44 271.185 Q115.44 268.43 113.496 266.694 Q111.575 264.958 108.473 264.958 Q106.274 264.958 103.82 265.722 Q101.389 266.486 98.6116 268.037 L98.6116 263.314 Q101.436 262.18 103.889 261.601 Q106.343 261.023 108.38 261.023 Q113.75 261.023 116.945 263.708 Q120.139 266.393 120.139 270.884 Q120.139 273.013 119.329 274.935 Q118.542 276.833 116.436 279.425 Q115.857 280.097 112.755 283.314 Q109.653 286.509 104.005 292.273 Z" fill="#000000" fill-rule="nonzero" fill-opacity="1" /><path clip-path="url(#clip740)" d="M130.139 290.328 L135.023 290.328 L135.023 296.208 L130.139 296.208 L130.139 290.328 Z" fill="#000000" fill-rule="nonzero" fill-opacity="1" /><path clip-path="url(#clip740)" d="M145.255 261.648 L163.611 261.648 L163.611 265.583 L149.537 265.583 L149.537 274.055 Q150.556 273.708 151.574 273.546 Q152.593 273.361 153.611 273.361 Q159.398 273.361 162.778 276.532 Q166.158 279.703 166.158 285.12 Q166.158 290.698 162.685 293.8 Q159.213 296.879 152.894 296.879 Q150.718 296.879 148.449 296.509 Q146.204 296.138 143.797 295.398 L143.797 290.698 Q145.88 291.833 148.102 292.388 Q150.324 292.944 152.801 292.944 Q156.806 292.944 159.144 290.837 Q161.482 288.731 161.482 285.12 Q161.482 281.509 159.144 279.402 Q156.806 277.296 152.801 277.296 Q150.926 277.296 149.051 277.712 Q147.199 278.129 145.255 279.009 L145.255 261.648 Z" fill="#000000" fill-rule="nonzero" fill-opacity="1" /><path clip-path="url(#clip740)" d="M185.37 264.726 Q181.759 264.726 179.931 268.291 Q178.125 271.833 178.125 278.962 Q178.125 286.069 179.931 289.634 Q181.759 293.175 185.37 293.175 Q189.005 293.175 190.81 289.634 Q192.639 286.069 192.639 278.962 Q192.639 271.833 190.81 268.291 Q189.005 264.726 185.37 264.726 M185.37 261.023 Q191.181 261.023 194.236 265.629 Q197.315 270.212 197.315 278.962 Q197.315 287.689 194.236 292.296 Q191.181 296.879 185.37 296.879 Q179.56 296.879 176.482 292.296 Q173.426 287.689 173.426 278.962 Q173.426 270.212 176.482 265.629 Q179.56 261.023 185.37 261.023 Z" fill="#000000" fill-rule="nonzero" fill-opacity="1" /><path clip-path="url(#clip740)" d="M233.704 270.745 L223.125 281.37 L233.704 291.948 L230.949 294.749 L220.324 284.124 L209.699 294.749 L206.968 291.948 L217.523 281.37 L206.968 270.745 L209.699 267.944 L220.324 278.569 L230.949 267.944 L233.704 270.745 Z" fill="#000000" fill-rule="nonzero" fill-opacity="1" /><path clip-path="url(#clip740)" d="M246.065 292.273 L253.703 292.273 L253.703 265.907 L245.393 267.574 L245.393 263.314 L253.657 261.648 L258.333 261.648 L258.333 292.273 L265.972 292.273 L265.972 296.208 L246.065 296.208 L246.065 292.273 Z" fill="#000000" fill-rule="nonzero" fill-opacity="1" /><path clip-path="url(#clip740)" d="M285.416 264.726 Q281.805 264.726 279.976 268.291 Q278.171 271.833 278.171 278.962 Q278.171 286.069 279.976 289.634 Q281.805 293.175 285.416 293.175 Q289.05 293.175 290.856 289.634 Q292.685 286.069 292.685 278.962 Q292.685 271.833 290.856 268.291 Q289.05 264.726 285.416 264.726 M285.416 261.023 Q291.226 261.023 294.282 265.629 Q297.361 270.212 297.361 278.962 Q297.361 287.689 294.282 292.296 Q291.226 296.879 285.416 296.879 Q279.606 296.879 276.527 292.296 Q273.472 287.689 273.472 278.962 Q273.472 270.212 276.527 265.629 Q279.606 261.023 285.416 261.023 Z" fill="#000000" fill-rule="nonzero" fill-opacity="1" /><path clip-path="url(#clip740)" d="M299.166 268.214 L299.166 264.754 Q300.596 265.431 302.063 265.788 Q303.53 266.145 304.94 266.145 Q308.702 266.145 310.676 263.625 Q312.67 261.086 312.952 255.933 Q311.861 257.55 310.187 258.415 Q308.514 259.281 306.482 259.281 Q302.269 259.281 299.806 256.742 Q297.361 254.184 297.361 249.764 Q297.361 245.438 299.918 242.824 Q302.476 240.209 306.727 240.209 Q311.598 240.209 314.156 243.952 Q316.733 247.676 316.733 254.786 Q316.733 261.425 313.573 265.393 Q310.432 269.343 305.109 269.343 Q303.68 269.343 302.213 269.061 Q300.746 268.778 299.166 268.214 M306.727 256.309 Q309.285 256.309 310.771 254.56 Q312.275 252.811 312.275 249.764 Q312.275 246.736 310.771 244.987 Q309.285 243.219 306.727 243.219 Q304.169 243.219 302.664 244.987 Q301.179 246.736 301.179 249.764 Q301.179 252.811 302.664 254.56 Q304.169 256.309 306.727 256.309 Z" fill="#000000" fill-rule="nonzero" fill-opacity="1" /><path clip-path="url(#clip740)" d="M-9.64527 840.632 L0.4762 840.632 L0.4762 828.569 L5.02768 828.569 L5.02768 840.632 L24.3794 840.632 Q28.7399 840.632 29.9813 839.454 Q31.2226 838.245 31.2226 834.584 L31.2226 828.569 L36.1242 828.569 L36.1242 834.584 Q36.1242 841.364 33.6097 843.942 Q31.0634 846.52 24.3794 846.52 L5.02768 846.52 L5.02768 850.817 L0.4762 850.817 L0.4762 846.52 L-9.64527 846.52 L-9.64527 840.632 Z" fill="#000000" fill-rule="nonzero" fill-opacity="1" /><path clip-path="url(#clip740)" d="M-11.3958 789.738 L-11.3958 784.327 L42.1716 800.878 L42.1716 806.289 L-11.3958 789.738 Z" fill="#000000" fill-rule="nonzero" fill-opacity="1" /><path clip-path="url(#clip740)" d="M14.6081 727.831 L36.1242 727.831 L36.1242 733.688 L14.799 733.688 Q9.7383 733.688 7.22385 735.661 Q4.7094 737.635 4.7094 741.581 Q4.7094 746.324 7.73311 749.061 Q10.7568 751.798 15.9767 751.798 L36.1242 751.798 L36.1242 757.687 L0.4762 757.687 L0.4762 751.798 L6.01437 751.798 Q2.79968 749.698 1.20826 746.865 Q-0.38317 744 -0.38317 740.276 Q-0.38317 734.133 3.43625 730.982 Q7.22385 727.831 14.6081 727.831 Z" fill="#000000" fill-rule="nonzero" fill-opacity="1" /><path clip-path="url(#clip740)" d="M1.52654 693.425 L7.06471 693.425 Q5.79157 695.907 5.15499 698.581 Q4.51842 701.255 4.51842 704.119 Q4.51842 708.48 5.85522 710.676 Q7.19202 712.84 9.86562 712.84 Q11.9026 712.84 13.0803 711.281 Q14.2261 709.721 15.2765 705.01 L15.7221 703.005 Q17.0589 696.767 19.5097 694.157 Q21.9286 691.515 26.2891 691.515 Q31.2544 691.515 34.1508 695.462 Q37.0472 699.377 37.0472 706.252 Q37.0472 709.116 36.4743 712.235 Q35.9332 715.323 34.8192 718.76 L28.7718 718.76 Q30.4587 715.514 31.318 712.363 Q32.1456 709.212 32.1456 706.124 Q32.1456 701.987 30.7451 699.759 Q29.3129 697.531 26.7347 697.531 Q24.3476 697.531 23.0745 699.154 Q21.8013 700.745 20.6237 706.188 L20.1462 708.225 Q19.0004 713.668 16.6451 716.087 Q14.258 718.506 10.1202 718.506 Q5.09134 718.506 2.35408 714.941 Q-0.38317 711.376 -0.38317 704.819 Q-0.38317 701.573 0.0942579 698.708 Q0.571686 695.844 1.52654 693.425 Z" fill="#000000" fill-rule="nonzero" fill-opacity="1" /><path clip-path="url(#clip741)" d="M983.527 1454.11 L995.073 1454.03 L1005.07 1453.94 L1013.35 1453.86 L1019.83 1453.78 L1024.45 1453.69 L1027.2 1453.61 L1028.13 1453.53 L1027.33 1453.44 L1024.93 1453.36 L1021.08 1453.27 L1015.97 1453.19 L1009.78 1453.11 L1002.71 1453.02 L994.944 1452.94 L986.647 1452.86 L977.966 1452.77 L969.02 1452.69 L959.9 1452.61 L950.667 1452.52 L941.358 1452.44 L931.987 1452.35 L922.553 1452.27 L913.043 1452.19 L903.446 1452.1 L893.75 1452.02 L883.956 1451.94 L874.075 1451.85 L864.137 1451.77 L854.186 1451.69 L844.282 1451.6 L834.497 1451.52 L824.911 1451.43 L815.611 1451.35 L806.679 1451.27 L798.196 1451.18 L790.231 1451.1 L782.84 1451.02 L776.064 1450.93 L769.928 1450.85 L764.441 1450.76 L759.594 1450.68 L755.368 1450.6 L751.727 1450.51 L748.632 1450.43 L746.032 1450.35 L743.876 1450.26 L742.11 1450.18 L740.682 1450.1 L739.542 1450.01 L738.642 1449.93 L737.941 1449.84 L737.401 1449.76 L736.991 1449.68 L736.682 1449.59 L736.454 1449.51 L736.286 1449.43 L736.165 1449.34 L736.078 1449.26 L736.016 1449.18 L735.973 1449.09 L735.944 1449.01 L735.924 1448.92 L735.91 1448.84 L735.901 1448.76 L735.895 1448.67 L735.891 1448.59 L735.889 1448.51 L735.887 1448.42 L735.886 1448.34 L735.885 1448.26 L735.885 1448.17 L735.885 1448.09 L735.885 1448 L735.885 1447.92 L735.885 1447.84 L735.885 1447.75 L735.885 1447.67 L735.886 1447.59 L735.886 1447.5 L735.887 1447.42 L735.889 1447.33 L735.892 1447.25 L735.896 1447.17 L735.902 1447.08 L735.912 1447 L735.926 1446.92 L735.948 1446.83 L735.979 1446.75 L736.024 1446.67 L736.089 1446.58 L736.18 1446.5 L736.308 1446.41 L736.483 1446.33 L736.721 1446.25 L737.041 1446.16 L737.466 1446.08 L738.023 1446 L738.743 1445.91 L739.663 1445.83 L740.823 1445.75 L742.267 1445.66 L744.042 1445.58 L746.193 1445.49 L748.766 1445.41 L751.801 1445.33 L755.331 1445.24 L759.379 1445.16 L763.951 1445.08 L769.039 1444.99 L774.612 1444.91 L780.615 1444.83 L786.971 1444.74 L793.578 1444.66 L800.311 1444.57 L807.025 1444.49 L813.561 1444.41 L819.75 1444.32 L825.419 1444.24 L830.403 1444.16 L834.549 1444.07 L837.726 1443.99 L839.829 1443.9 L840.79 1443.82 L630.979 1443.82 L631.94 1443.9 L634.043 1443.99 L637.22 1444.07 L641.366 1444.16 L646.35 1444.24 L652.019 1444.32 L658.208 1444.41 L664.744 1444.49 L671.458 1444.57 L678.191 1444.66 L684.798 1444.74 L691.154 1444.83 L697.158 1444.91 L702.73 1444.99 L707.818 1445.08 L712.39 1445.16 L716.438 1445.24 L719.968 1445.33 L723.003 1445.41 L725.576 1445.49 L727.727 1445.58 L729.502 1445.66 L730.946 1445.75 L732.106 1445.83 L733.026 1445.91 L733.746 1446 L734.303 1446.08 L734.728 1446.16 L735.048 1446.25 L735.286 1446.33 L735.461 1446.41 L735.589 1446.5 L735.68 1446.58 L735.745 1446.67 L735.79 1446.75 L735.821 1446.83 L735.843 1446.92 L735.857 1447 L735.867 1447.08 L735.873 1447.17 L735.877 1447.25 L735.88 1447.33 L735.882 1447.42 L735.883 1447.5 L735.884 1447.59 L735.884 1447.67 L735.884 1447.75 L735.884 1447.84 L735.884 1447.92 L735.884 1448 L735.884 1448.09 L735.884 1448.17 L735.884 1448.26 L735.883 1448.34 L735.882 1448.42 L735.88 1448.51 L735.878 1448.59 L735.874 1448.67 L735.868 1448.76 L735.859 1448.84 L735.845 1448.92 L735.825 1449.01 L735.796 1449.09 L735.753 1449.18 L735.691 1449.26 L735.604 1449.34 L735.483 1449.43 L735.315 1449.51 L735.087 1449.59 L734.779 1449.68 L734.368 1449.76 L733.828 1449.84 L733.127 1449.93 L732.227 1450.01 L731.087 1450.1 L729.659 1450.18 L727.893 1450.26 L725.737 1450.35 L723.137 1450.43 L720.042 1450.51 L716.401 1450.6 L712.175 1450.68 L707.328 1450.76 L701.841 1450.85 L695.705 1450.93 L688.929 1451.02 L681.538 1451.1 L673.573 1451.18 L665.09 1451.27 L656.159 1451.35 L646.858 1451.43 L637.272 1451.52 L627.487 1451.6 L617.583 1451.69 L607.632 1451.77 L597.694 1451.85 L587.814 1451.94 L578.019 1452.02 L568.323 1452.1 L558.726 1452.19 L549.216 1452.27 L539.782 1452.35 L530.411 1452.44 L521.102 1452.52 L511.869 1452.61 L502.749 1452.69 L493.803 1452.77 L485.122 1452.86 L476.825 1452.94 L469.058 1453.02 L461.989 1453.11 L455.802 1453.19 L450.689 1453.27 L446.842 1453.36 L444.439 1453.44 L443.639 1453.53 L444.569 1453.61 L447.32 1453.69 L451.937 1453.78 L458.416 1453.86 L466.703 1453.94 L476.696 1454.03 L488.242 1454.11 L983.527 1454.11  Z" fill="#009af9" fill-rule="evenodd" fill-opacity="1"/>
<polyline clip-path="url(#clip741)" style="stroke:#000000; stroke-linecap:round; stroke-linejoin:round; stroke-width:4; stroke-opacity:1; fill:none" points="983.527,1454.11 995.073,1454.03 1005.07,1453.94 1013.35,1453.86 1019.83,1453.78 1024.45,1453.69 1027.2,1453.61 1028.13,1453.53 1027.33,1453.44 1024.93,1453.36 1021.08,1453.27 1015.97,1453.19 1009.78,1453.11 1002.71,1453.02 994.944,1452.94 986.647,1452.86 977.966,1452.77 969.02,1452.69 959.9,1452.61 950.667,1452.52 941.358,1452.44 931.987,1452.35 922.553,1452.27 913.043,1452.19 903.446,1452.1 893.75,1452.02 883.956,1451.94 874.075,1451.85 864.137,1451.77 854.186,1451.69 844.282,1451.6 834.497,1451.52 824.911,1451.43 815.611,1451.35 806.679,1451.27 798.196,1451.18 790.231,1451.1 782.84,1451.02 776.064,1450.93 769.928,1450.85 764.441,1450.76 759.594,1450.68 755.368,1450.6 751.727,1450.51 748.632,1450.43 746.032,1450.35 743.876,1450.26 742.11,1450.18 740.682,1450.1 739.542,1450.01 738.642,1449.93 737.941,1449.84 737.401,1449.76 736.991,1449.68 736.682,1449.59 736.454,1449.51 736.286,1449.43 736.165,1449.34 736.078,1449.26 736.016,1449.18 735.973,1449.09 735.944,1449.01 735.924,1448.92 735.91,1448.84 735.901,1448.76 735.895,1448.67 735.891,1448.59 735.889,1448.51 735.887,1448.42 735.886,1448.34 735.885,1448.26 735.885,1448.17 735.885,1448.09 735.885,1448 735.885,1447.92 735.885,1447.84 735.885,1447.75 735.885,1447.67 735.886,1447.59 735.886,1447.5 735.887,1447.42 735.889,1447.33 735.892,1447.25 735.896,1447.17 735.902,1447.08 735.912,1447 735.926,1446.92 735.948,1446.83 735.979,1446.75 736.024,1446.67 736.089,1446.58 736.18,1446.5 736.308,1446.41 736.483,1446.33 736.721,1446.25 737.041,1446.16 737.466,1446.08 738.023,1446 738.743,1445.91 739.663,1445.83 740.823,1445.75 742.267,1445.66 744.042,1445.58 746.193,1445.49 748.766,1445.41 751.801,1445.33 755.331,1445.24 759.379,1445.16 763.951,1445.08 769.039,1444.99 774.612,1444.91 780.615,1444.83 786.971,1444.74 793.578,1444.66 800.311,1444.57 807.025,1444.49 813.561,1444.41 819.75,1444.32 825.419,1444.24 830.403,1444.16 834.549,1444.07 837.726,1443.99 839.829,1443.9 840.79,1443.82 630.979,1443.82 631.94,1443.9 634.043,1443.99 637.22,1444.07 641.366,1444.16 646.35,1444.24 652.019,1444.32 658.208,1444.41 664.744,1444.49 671.458,1444.57 678.191,1444.66 684.798,1444.74 691.154,1444.83 697.158,1444.91 702.73,1444.99 707.818,1445.08 712.39,1445.16 716.438,1445.24 719.968,1445.33 723.003,1445.41 725.576,1445.49 727.727,1445.58 729.502,1445.66 730.946,1445.75 732.106,1445.83 733.026,1445.91 733.746,1446 734.303,1446.08 734.728,1446.16 735.048,1446.25 735.286,1446.33 735.461,1446.41 735.589,1446.5 735.68,1446.58 735.745,1446.67 735.79,1446.75 735.821,1446.83 735.843,1446.92 735.857,1447 735.867,1447.08 735.873,1447.17 735.877,1447.25 735.88,1447.33 735.882,1447.42 735.883,1447.5 735.884,1447.59 735.884,1447.67 735.884,1447.75 735.884,1447.84 735.884,1447.92 735.884,1448 735.884,1448.09 735.884,1448.17 735.884,1448.26 735.883,1448.34 735.882,1448.42 735.88,1448.51 735.878,1448.59 735.874,1448.67 735.868,1448.76 735.859,1448.84 735.845,1448.92 735.825,1449.01 735.796,1449.09 735.753,1449.18 735.691,1449.26 735.604,1449.34 735.483,1449.43 735.315,1449.51 735.087,1449.59 734.779,1449.68 734.368,1449.76 733.828,1449.84 733.127,1449.93 732.227,1450.01 731.087,1450.1 729.659,1450.18 727.893,1450.26 725.737,1450.35 723.137,1450.43 720.042,1450.51 716.401,1450.6 712.175,1450.68 707.328,1450.76 701.841,1450.85 695.705,1450.93 688.929,1451.02 681.538,1451.1 673.573,1451.18 665.09,1451.27 656.159,1451.35 646.858,1451.43 637.272,1451.52 627.487,1451.6 617.583,1451.69 607.632,1451.77 597.694,1451.85 587.814,1451.94 578.019,1452.02 568.323,1452.1 558.726,1452.19 549.216,1452.27 539.782,1452.35 530.411,1452.44 521.102,1452.52 511.869,1452.61 502.749,1452.69 493.803,1452.77 485.122,1452.86 476.825,1452.94 469.058,1453.02 461.989,1453.11 455.802,1453.19 450.689,1453.27 446.842,1453.36 444.439,1453.44 443.639,1453.53 444.569,1453.61 447.32,1453.69 451.937,1453.78 458.416,1453.86 466.703,1453.94 476.696,1454.03 488.242,1454.11 983.527,1454.11 "/>
<path clip-path="url(#clip741)" d="M2027.93 379.542 L2032.72 378.449 L2036.84 377.356 L2040.31 376.263 L2043.18 375.17 L2045.48 374.077 L2047.29 372.984 L2048.65 371.892 L2049.63 370.799 L2050.3 369.706 L2050.71 368.613 L2050.93 367.52 L2050.99 366.427 L2050.94 365.334 L2050.82 364.241 L2050.64 363.148 L2050.4 362.055 L2050.11 360.963 L2049.74 359.87 L2049.27 358.777 L2048.65 357.684 L2047.85 356.591 L2046.8 355.498 L2045.45 354.405 L2043.74 353.312 L2041.61 352.219 L2039 351.127 L2035.87 350.034 L2032.16 348.941 L2027.84 347.848 L2022.89 346.755 L2017.29 345.662 L2011.04 344.569 L2004.17 343.476 L1996.68 342.383 L1988.63 341.29 L1980.06 340.198 L1971.04 339.105 L1961.62 338.012 L1951.9 336.919 L1941.96 335.826 L1931.88 334.733 L1921.75 333.64 L1911.67 332.547 L1901.72 331.454 L1892 330.361 L1882.59 329.269 L1873.56 328.176 L1864.99 327.083 L1856.93 325.99 L1849.46 324.897 L1842.6 323.804 L1836.42 322.711 L1830.92 321.618 L1826.15 320.525 L1822.12 319.433 L1818.82 318.34 L1816.26 317.247 L1814.44 316.154 L1813.33 315.061 L1812.92 313.968 L1813.18 312.875 L1814.07 311.782 L1815.55 310.689 L1817.58 309.596 L1820.11 308.504 L1823.09 307.411 L1826.45 306.318 L1830.13 305.225 L1834.07 304.132 L1838.19 303.039 L1842.43 301.946 L1846.72 300.853 L1850.99 299.76 L1855.15 298.667 L1859.15 297.575 L1862.91 296.482 L1866.38 295.389 L1869.49 294.296 L1872.19 293.203 L1874.43 292.11 L1876.18 291.017 L1877.4 289.924 L1878.07 288.831 L1639.42 288.831 L1640.09 289.924 L1641.31 291.017 L1643.06 292.11 L1645.3 293.203 L1648 294.296 L1651.11 295.389 L1654.58 296.482 L1658.34 297.575 L1662.34 298.667 L1666.5 299.76 L1670.77 300.853 L1675.05 301.946 L1679.3 303.039 L1683.42 304.132 L1687.36 305.225 L1691.04 306.318 L1694.4 307.411 L1697.38 308.504 L1699.91 309.596 L1701.94 310.689 L1703.42 311.782 L1704.31 312.875 L1704.57 313.968 L1704.16 315.061 L1703.05 316.154 L1701.23 317.247 L1698.67 318.34 L1695.37 319.433 L1691.34 320.525 L1686.56 321.618 L1681.07 322.711 L1674.89 323.804 L1668.03 324.897 L1660.56 325.99 L1652.5 327.083 L1643.93 328.176 L1634.9 329.269 L1625.48 330.361 L1615.76 331.454 L1605.82 332.547 L1595.74 333.64 L1585.61 334.733 L1575.53 335.826 L1565.59 336.919 L1555.87 338.012 L1546.45 339.105 L1537.43 340.198 L1528.86 341.29 L1520.8 342.383 L1513.32 343.476 L1506.44 344.569 L1500.2 345.662 L1494.6 346.755 L1489.65 347.848 L1485.33 348.941 L1481.62 350.034 L1478.49 351.127 L1475.88 352.219 L1473.75 353.312 L1472.04 354.405 L1470.69 355.498 L1469.64 356.591 L1468.84 357.684 L1468.22 358.777 L1467.75 359.87 L1467.38 360.963 L1467.09 362.055 L1466.85 363.148 L1466.67 364.241 L1466.54 365.334 L1466.5 366.427 L1466.56 367.52 L1466.78 368.613 L1467.19 369.706 L1467.85 370.799 L1468.84 371.892 L1470.2 372.984 L1472 374.077 L1474.31 375.17 L1477.18 376.263 L1480.65 377.356 L1484.76 378.449 L1489.56 379.542 L2027.93 379.542  Z" fill="#e26f46" fill-rule="evenodd" fill-opacity="1"/>
<polyline clip-path="url(#clip741)" style="stroke:#000000; stroke-linecap:round; stroke-linejoin:round; stroke-width:4; stroke-opacity:1; fill:none" points="2027.93,379.542 2032.72,378.449 2036.84,377.356 2040.31,376.263 2043.18,375.17 2045.48,374.077 2047.29,372.984 2048.65,371.892 2049.63,370.799 2050.3,369.706 2050.71,368.613 2050.93,367.52 2050.99,366.427 2050.94,365.334 2050.82,364.241 2050.64,363.148 2050.4,362.055 2050.11,360.963 2049.74,359.87 2049.27,358.777 2048.65,357.684 2047.85,356.591 2046.8,355.498 2045.45,354.405 2043.74,353.312 2041.61,352.219 2039,351.127 2035.87,350.034 2032.16,348.941 2027.84,347.848 2022.89,346.755 2017.29,345.662 2011.04,344.569 2004.17,343.476 1996.68,342.383 1988.63,341.29 1980.06,340.198 1971.04,339.105 1961.62,338.012 1951.9,336.919 1941.96,335.826 1931.88,334.733 1921.75,333.64 1911.67,332.547 1901.72,331.454 1892,330.361 1882.59,329.269 1873.56,328.176 1864.99,327.083 1856.93,325.99 1849.46,324.897 1842.6,323.804 1836.42,322.711 1830.92,321.618 1826.15,320.525 1822.12,319.433 1818.82,318.34 1816.26,317.247 1814.44,316.154 1813.33,315.061 1812.92,313.968 1813.18,312.875 1814.07,311.782 1815.55,310.689 1817.58,309.596 1820.11,308.504 1823.09,307.411 1826.45,306.318 1830.13,305.225 1834.07,304.132 1838.19,303.039 1842.43,301.946 1846.72,300.853 1850.99,299.76 1855.15,298.667 1859.15,297.575 1862.91,296.482 1866.38,295.389 1869.49,294.296 1872.19,293.203 1874.43,292.11 1876.18,291.017 1877.4,289.924 1878.07,288.831 1639.42,288.831 1640.09,289.924 1641.31,291.017 1643.06,292.11 1645.3,293.203 1648,294.296 1651.11,295.389 1654.58,296.482 1658.34,297.575 1662.34,298.667 1666.5,299.76 1670.77,300.853 1675.05,301.946 1679.3,303.039 1683.42,304.132 1687.36,305.225 1691.04,306.318 1694.4,307.411 1697.38,308.504 1699.91,309.596 1701.94,310.689 1703.42,311.782 1704.31,312.875 1704.57,313.968 1704.16,315.061 1703.05,316.154 1701.23,317.247 1698.67,318.34 1695.37,319.433 1691.34,320.525 1686.56,321.618 1681.07,322.711 1674.89,323.804 1668.03,324.897 1660.56,325.99 1652.5,327.083 1643.93,328.176 1634.9,329.269 1625.48,330.361 1615.76,331.454 1605.82,332.547 1595.74,333.64 1585.61,334.733 1575.53,335.826 1565.59,336.919 1555.87,338.012 1546.45,339.105 1537.43,340.198 1528.86,341.29 1520.8,342.383 1513.32,343.476 1506.44,344.569 1500.2,345.662 1494.6,346.755 1489.65,347.848 1485.33,348.941 1481.62,350.034 1478.49,351.127 1475.88,352.219 1473.75,353.312 1472.04,354.405 1470.69,355.498 1469.64,356.591 1468.84,357.684 1468.22,358.777 1467.75,359.87 1467.38,360.963 1467.09,362.055 1466.85,363.148 1466.67,364.241 1466.54,365.334 1466.5,366.427 1466.56,367.52 1466.78,368.613 1467.19,369.706 1467.85,370.799 1468.84,371.892 1470.2,372.984 1472,374.077 1474.31,375.17 1477.18,376.263 1480.65,377.356 1484.76,378.449 1489.56,379.542 2027.93,379.542 "/>
<path clip-path="url(#clip741)" d="M2876.47 110.818 L2875.44 110.621 L2873.57 110.425 L2870.89 110.228 L2867.48 110.032 L2863.43 109.835 L2858.85 109.639 L2853.85 109.442 L2848.54 109.246 L2843.05 109.049 L2837.48 108.853 L2831.95 108.656 L2826.54 108.46 L2821.34 108.263 L2816.41 108.067 L2811.81 107.87 L2807.58 107.674 L2803.73 107.477 L2800.28 107.281 L2797.21 107.084 L2794.53 106.888 L2792.21 106.691 L2790.23 106.495 L2788.55 106.298 L2787.15 106.102 L2785.98 105.905 L2785.03 105.709 L2784.27 105.512 L2783.65 105.316 L2783.16 105.119 L2782.78 104.923 L2782.48 104.726 L2782.25 104.53 L2782.08 104.333 L2781.95 104.137 L2781.85 103.94 L2781.78 103.744 L2781.73 103.547 L2781.69 103.351 L2781.67 103.154 L2781.65 102.958 L2781.63 102.761 L2781.62 102.565 L2781.62 102.368 L2781.61 102.172 L2781.61 101.975 L2781.61 101.779 L2781.61 101.582 L2781.62 101.386 L2781.62 101.189 L2781.63 100.993 L2781.64 100.796 L2781.66 100.6 L2781.68 100.403 L2781.71 100.207 L2781.76 100.01 L2781.82 99.8139 L2781.9 99.6174 L2782.02 99.4209 L2782.17 99.2244 L2782.38 99.0279 L2782.64 98.8314 L2782.98 98.635 L2783.43 98.4385 L2783.98 98.242 L2784.69 98.0455 L2785.56 97.849 L2786.63 97.6525 L2787.94 97.456 L2789.51 97.2595 L2791.39 97.063 L2793.59 96.8665 L2796.16 96.67 L2799.12 96.4735 L2802.5 96.277 L2806.31 96.0805 L2810.55 95.884 L2815.24 95.6876 L2820.34 95.4911 L2825.85 95.2946 L2831.73 95.0981 L2837.94 94.9016 L2844.42 94.7051 L2851.14 94.5086 L2858.02 94.3121 L2865.03 94.1156 L2872.1 93.9191 L2879.21 93.7226 L2886.33 93.5261 L2893.45 93.3296 L2900.57 93.1331 L2907.73 92.9366 L2914.95 92.7402 L2922.31 92.5437 L2929.85 92.3472 L2937.65 92.1507 L2945.77 91.9542 L2954.27 91.7577 L2963.18 91.5612 L2972.51 91.3647 L2982.23 91.1682 L2992.3 90.9717 L3002.59 90.7752 L3012.99 90.5787 L3023.29 90.3822 L3033.3 90.1857 L3042.76 89.9892 L3051.42 89.7928 L3059.01 89.5963 L3065.27 89.3998 L3069.97 89.2033 L3072.88 89.0068 L3073.85 88.8103 L3072.75 88.6138 L3069.52 88.4173 L3064.16 88.2208 L2499.05 88.2208 L2493.69 88.4173 L2490.46 88.6138 L2489.36 88.8103 L2490.32 89.0068 L2493.24 89.2033 L2497.94 89.3998 L2504.2 89.5963 L2511.79 89.7928 L2520.45 89.9892 L2529.91 90.1857 L2539.92 90.3822 L2550.22 90.5787 L2560.61 90.7752 L2570.91 90.9717 L2580.97 91.1682 L2590.7 91.3647 L2600.03 91.5612 L2608.94 91.7577 L2617.44 91.9542 L2625.56 92.1507 L2633.36 92.3472 L2640.9 92.5437 L2648.26 92.7402 L2655.48 92.9366 L2662.64 93.1331 L2669.76 93.3296 L2676.88 93.5261 L2684 93.7226 L2691.1 93.9191 L2698.18 94.1156 L2705.18 94.3121 L2712.07 94.5086 L2718.78 94.7051 L2725.27 94.9016 L2731.48 95.0981 L2737.36 95.2946 L2742.86 95.4911 L2747.97 95.6876 L2752.65 95.884 L2756.9 96.0805 L2760.71 96.277 L2764.08 96.4735 L2767.05 96.67 L2769.62 96.8665 L2771.82 97.063 L2773.7 97.2595 L2775.27 97.456 L2776.57 97.6525 L2777.65 97.849 L2778.52 98.0455 L2779.22 98.242 L2779.78 98.4385 L2780.22 98.635 L2780.57 98.8314 L2780.83 99.0279 L2781.04 99.2244 L2781.19 99.4209 L2781.3 99.6174 L2781.39 99.8139 L2781.45 100.01 L2781.5 100.207 L2781.53 100.403 L2781.55 100.6 L2781.57 100.796 L2781.58 100.993 L2781.59 101.189 L2781.59 101.386 L2781.59 101.582 L2781.6 101.779 L2781.6 101.975 L2781.59 102.172 L2781.59 102.368 L2781.58 102.565 L2781.57 102.761 L2781.56 102.958 L2781.54 103.154 L2781.52 103.351 L2781.48 103.547 L2781.43 103.744 L2781.35 103.94 L2781.26 104.137 L2781.13 104.333 L2780.95 104.53 L2780.73 104.726 L2780.43 104.923 L2780.05 105.119 L2779.56 105.316 L2778.94 105.512 L2778.17 105.709 L2777.22 105.905 L2776.06 106.102 L2774.66 106.298 L2772.98 106.495 L2770.99 106.691 L2768.67 106.888 L2765.99 107.084 L2762.93 107.281 L2759.48 107.477 L2755.63 107.674 L2751.39 107.87 L2746.8 108.067 L2741.87 108.263 L2736.67 108.46 L2731.26 108.656 L2725.73 108.853 L2720.16 109.049 L2714.66 109.246 L2709.36 109.442 L2704.36 109.639 L2699.77 109.835 L2695.73 110.032 L2692.32 110.228 L2689.64 110.425 L2687.76 110.621 L2686.74 110.818 L2876.47 110.818  Z" fill="#3da44d" fill-rule="evenodd" fill-opacity="1"/>
<polyline clip-path="url(#clip741)" style="stroke:#000000; stroke-linecap:round; stroke-linejoin:round; stroke-width:4; stroke-opacity:1; fill:none" points="2876.47,110.818 2875.44,110.621 2873.57,110.425 2870.89,110.228 2867.48,110.032 2863.43,109.835 2858.85,109.639 2853.85,109.442 2848.54,109.246 2843.05,109.049 2837.48,108.853 2831.95,108.656 2826.54,108.46 2821.34,108.263 2816.41,108.067 2811.81,107.87 2807.58,107.674 2803.73,107.477 2800.28,107.281 2797.21,107.084 2794.53,106.888 2792.21,106.691 2790.23,106.495 2788.55,106.298 2787.15,106.102 2785.98,105.905 2785.03,105.709 2784.27,105.512 2783.65,105.316 2783.16,105.119 2782.78,104.923 2782.48,104.726 2782.25,104.53 2782.08,104.333 2781.95,104.137 2781.85,103.94 2781.78,103.744 2781.73,103.547 2781.69,103.351 2781.67,103.154 2781.65,102.958 2781.63,102.761 2781.62,102.565 2781.62,102.368 2781.61,102.172 2781.61,101.975 2781.61,101.779 2781.61,101.582 2781.62,101.386 2781.62,101.189 2781.63,100.993 2781.64,100.796 2781.66,100.6 2781.68,100.403 2781.71,100.207 2781.76,100.01 2781.82,99.8139 2781.9,99.6174 2782.02,99.4209 2782.17,99.2244 2782.38,99.0279 2782.64,98.8314 2782.98,98.635 2783.43,98.4385 2783.98,98.242 2784.69,98.0455 2785.56,97.849 2786.63,97.6525 2787.94,97.456 2789.51,97.2595 2791.39,97.063 2793.59,96.8665 2796.16,96.67 2799.12,96.4735 2802.5,96.277 2806.31,96.0805 2810.55,95.884 2815.24,95.6876 2820.34,95.4911 2825.85,95.2946 2831.73,95.0981 2837.94,94.9016 2844.42,94.7051 2851.14,94.5086 2858.02,94.3121 2865.03,94.1156 2872.1,93.9191 2879.21,93.7226 2886.33,93.5261 2893.45,93.3296 2900.57,93.1331 2907.73,92.9366 2914.95,92.7402 2922.31,92.5437 2929.85,92.3472 2937.65,92.1507 2945.77,91.9542 2954.27,91.7577 2963.18,91.5612 2972.51,91.3647 2982.23,91.1682 2992.3,90.9717 3002.59,90.7752 3012.99,90.5787 3023.29,90.3822 3033.3,90.1857 3042.76,89.9892 3051.42,89.7928 3059.01,89.5963 3065.27,89.3998 3069.97,89.2033 3072.88,89.0068 3073.85,88.8103 3072.75,88.6138 3069.52,88.4173 3064.16,88.2208 2499.05,88.2208 2493.69,88.4173 2490.46,88.6138 2489.36,88.8103 2490.32,89.0068 2493.24,89.2033 2497.94,89.3998 2504.2,89.5963 2511.79,89.7928 2520.45,89.9892 2529.91,90.1857 2539.92,90.3822 2550.22,90.5787 2560.61,90.7752 2570.91,90.9717 2580.97,91.1682 2590.7,91.3647 2600.03,91.5612 2608.94,91.7577 2617.44,91.9542 2625.56,92.1507 2633.36,92.3472 2640.9,92.5437 2648.26,92.7402 2655.48,92.9366 2662.64,93.1331 2669.76,93.3296 2676.88,93.5261 2684,93.7226 2691.1,93.9191 2698.18,94.1156 2705.18,94.3121 2712.07,94.5086 2718.78,94.7051 2725.27,94.9016 2731.48,95.0981 2737.36,95.2946 2742.86,95.4911 2747.97,95.6876 2752.65,95.884 2756.9,96.0805 2760.71,96.277 2764.08,96.4735 2767.05,96.67 2769.62,96.8665 2771.82,97.063 2773.7,97.2595 2775.27,97.456 2776.57,97.6525 2777.65,97.849 2778.52,98.0455 2779.22,98.242 2779.78,98.4385 2780.22,98.635 2780.57,98.8314 2780.83,99.0279 2781.04,99.2244 2781.19,99.4209 2781.3,99.6174 2781.39,99.8139 2781.45,100.01 2781.5,100.207 2781.53,100.403 2781.55,100.6 2781.57,100.796 2781.58,100.993 2781.59,101.189 2781.59,101.386 2781.59,101.582 2781.6,101.779 2781.6,101.975 2781.59,102.172 2781.59,102.368 2781.58,102.565 2781.57,102.761 2781.56,102.958 2781.54,103.154 2781.52,103.351 2781.48,103.547 2781.43,103.744 2781.35,103.94 2781.26,104.137 2781.13,104.333 2780.95,104.53 2780.73,104.726 2780.43,104.923 2780.05,105.119 2779.56,105.316 2778.94,105.512 2778.17,105.709 2777.22,105.905 2776.06,106.102 2774.66,106.298 2772.98,106.495 2770.99,106.691 2768.67,106.888 2765.99,107.084 2762.93,107.281 2759.48,107.477 2755.63,107.674 2751.39,107.87 2746.8,108.067 2741.87,108.263 2736.67,108.46 2731.26,108.656 2725.73,108.853 2720.16,109.049 2714.66,109.246 2709.36,109.442 2704.36,109.639 2699.77,109.835 2695.73,110.032 2692.32,110.228 2689.64,110.425 2687.76,110.621 2686.74,110.818 2876.47,110.818 "/>
</svg>
