<?xml version="1.0" encoding="utf-8"?>
<svg xmlns="http://www.w3.org/2000/svg" xmlns:xlink="http://www.w3.org/1999/xlink" width="800" height="400" viewBox="0 0 3200 1600">
<defs>
  <clipPath id="clip800">
    <rect x="0" y="0" width="3200" height="1600"/>
  </clipPath>
</defs>
<path clip-path="url(#clip800)" d="M0 1600 L3200 1600 L3200 0 L0 0  Z" fill="#ffffff" fill-rule="evenodd" fill-opacity="1"/>
<defs>
  <clipPath id="clip801">
    <rect x="640" y="0" width="2241" height="1600"/>
  </clipPath>
</defs>
<path clip-path="url(#clip800)" d="M365.777 1495.09 L3152.76 1495.09 L3152.76 47.2441 L365.777 47.2441  Z" fill="#ffffff" fill-rule="evenodd" fill-opacity="1"/>
<defs>
  <clipPath id="clip802">
    <rect x="365" y="47" width="2788" height="1449"/>
  </clipPath>
</defs>
<polyline clip-path="url(#clip802)" style="stroke:#000000; stroke-linecap:round; stroke-linejoin:round; stroke-width:2; stroke-opacity:0.1; fill:none" points="922.695,1495.09 922.695,47.2441 "/>
<polyline clip-path="url(#clip802)" style="stroke:#000000; stroke-linecap:round; stroke-linejoin:round; stroke-width:2; stroke-opacity:0.1; fill:none" points="2595.84,1495.09 2595.84,47.2441 "/>
<polyline clip-path="url(#clip802)" style="stroke:#000000; stroke-linecap:round; stroke-linejoin:round; stroke-width:2; stroke-opacity:0.1; fill:none" points="365.777,1196.35 3152.76,1196.35 "/>
<polyline clip-path="url(#clip802)" style="stroke:#000000; stroke-linecap:round; stroke-linejoin:round; stroke-width:2; stroke-opacity:0.1; fill:none" points="365.777,874.43 3152.76,874.43 "/>
<polyline clip-path="url(#clip802)" style="stroke:#000000; stroke-linecap:round; stroke-linejoin:round; stroke-width:2; stroke-opacity:0.1; fill:none" points="365.777,552.512 3152.76,552.512 "/>
<polyline clip-path="url(#clip802)" style="stroke:#000000; stroke-linecap:round; stroke-linejoin:round; stroke-width:2; stroke-opacity:0.1; fill:none" points="365.777,230.594 3152.76,230.594 "/>
<polyline clip-path="url(#clip800)" style="stroke:#000000; stroke-linecap:round; stroke-linejoin:round; stroke-width:4; stroke-opacity:1; fill:none" points="365.777,1495.09 3152.76,1495.09 "/>
<polyline clip-path="url(#clip800)" style="stroke:#000000; stroke-linecap:round; stroke-linejoin:round; stroke-width:4; stroke-opacity:1; fill:none" points="922.695,1495.09 922.695,1476.19 "/>
<polyline clip-path="url(#clip800)" style="stroke:#000000; stroke-linecap:round; stroke-linejoin:round; stroke-width:4; stroke-opacity:1; fill:none" points="2595.84,1495.09 2595.84,1476.19 "/>
<path clip-path="url(#clip800)" d="M827.95 1533.4 L816.144 1551.85 L827.95 1551.85 L827.95 1533.4 M826.723 1529.33 L832.603 1529.33 L832.603 1551.85 L837.533 1551.85 L837.533 1555.74 L832.603 1555.74 L832.603 1563.89 L827.95 1563.89 L827.95 1555.74 L812.348 1555.74 L812.348 1551.23 L826.723 1529.33 Z" fill="#000000" fill-rule="nonzero" fill-opacity="1" /><path clip-path="url(#clip800)" d="M863.945 1530.6 L863.945 1537.96 L872.718 1537.96 L872.718 1541.27 L863.945 1541.27 L863.945 1555.35 Q863.945 1558.52 864.802 1559.42 Q865.681 1560.32 868.343 1560.32 L872.718 1560.32 L872.718 1563.89 L868.343 1563.89 Q863.413 1563.89 861.538 1562.06 Q859.663 1560.21 859.663 1555.35 L859.663 1541.27 L856.538 1541.27 L856.538 1537.96 L859.663 1537.96 L859.663 1530.6 L863.945 1530.6 Z" fill="#000000" fill-rule="nonzero" fill-opacity="1" /><path clip-path="url(#clip800)" d="M899.871 1548.24 L899.871 1563.89 L895.612 1563.89 L895.612 1548.38 Q895.612 1544.7 894.176 1542.87 Q892.741 1541.04 889.871 1541.04 Q886.422 1541.04 884.431 1543.24 Q882.44 1545.44 882.44 1549.24 L882.44 1563.89 L878.158 1563.89 L878.158 1527.87 L882.44 1527.87 L882.44 1541.99 Q883.968 1539.65 886.028 1538.49 Q888.112 1537.34 890.82 1537.34 Q895.288 1537.34 897.579 1540.11 Q899.871 1542.87 899.871 1548.24 Z" fill="#000000" fill-rule="nonzero" fill-opacity="1" /><path clip-path="url(#clip800)" d="M923.389 1541.94 Q922.672 1541.53 921.815 1541.34 Q920.982 1541.13 919.963 1541.13 Q916.352 1541.13 914.408 1543.49 Q912.487 1545.83 912.487 1550.23 L912.487 1563.89 L908.204 1563.89 L908.204 1537.96 L912.487 1537.96 L912.487 1541.99 Q913.829 1539.63 915.982 1538.49 Q918.135 1537.34 921.213 1537.34 Q921.653 1537.34 922.186 1537.41 Q922.718 1537.45 923.366 1537.57 L923.389 1541.94 Z" fill="#000000" fill-rule="nonzero" fill-opacity="1" /><path clip-path="url(#clip800)" d="M948.991 1549.86 L948.991 1551.94 L929.408 1551.94 Q929.686 1556.34 932.047 1558.66 Q934.431 1560.95 938.667 1560.95 Q941.121 1560.95 943.412 1560.35 Q945.727 1559.74 947.996 1558.54 L947.996 1562.57 Q945.704 1563.54 943.297 1564.05 Q940.889 1564.56 938.412 1564.56 Q932.209 1564.56 928.574 1560.95 Q924.963 1557.34 924.963 1551.18 Q924.963 1544.81 928.389 1541.09 Q931.838 1537.34 937.672 1537.34 Q942.903 1537.34 945.935 1540.72 Q948.991 1544.07 948.991 1549.86 M944.732 1548.61 Q944.685 1545.11 942.764 1543.03 Q940.866 1540.95 937.718 1540.95 Q934.153 1540.95 932 1542.96 Q929.871 1544.98 929.547 1548.63 L944.732 1548.61 Z" fill="#000000" fill-rule="nonzero" fill-opacity="1" /><path clip-path="url(#clip800)" d="M967.764 1550.86 Q962.602 1550.86 960.611 1552.04 Q958.621 1553.22 958.621 1556.06 Q958.621 1558.33 960.102 1559.67 Q961.607 1560.99 964.176 1560.99 Q967.718 1560.99 969.847 1558.49 Q972 1555.97 972 1551.8 L972 1550.86 L967.764 1550.86 M976.259 1549.1 L976.259 1563.89 L972 1563.89 L972 1559.95 Q970.542 1562.31 968.366 1563.45 Q966.19 1564.56 963.042 1564.56 Q959.06 1564.56 956.699 1562.34 Q954.361 1560.09 954.361 1556.34 Q954.361 1551.97 957.278 1549.74 Q960.218 1547.52 966.028 1547.52 L972 1547.52 L972 1547.11 Q972 1544.17 970.056 1542.57 Q968.134 1540.95 964.639 1540.95 Q962.417 1540.95 960.31 1541.48 Q958.204 1542.01 956.259 1543.08 L956.259 1539.14 Q958.597 1538.24 960.796 1537.8 Q962.996 1537.34 965.079 1537.34 Q970.704 1537.34 973.482 1540.25 Q976.259 1543.17 976.259 1549.1 Z" fill="#000000" fill-rule="nonzero" fill-opacity="1" /><path clip-path="url(#clip800)" d="M1002.09 1541.9 L1002.09 1527.87 L1006.35 1527.87 L1006.35 1563.89 L1002.09 1563.89 L1002.09 1560 Q1000.75 1562.31 998.69 1563.45 Q996.653 1564.56 993.782 1564.56 Q989.083 1564.56 986.12 1560.81 Q983.181 1557.06 983.181 1550.95 Q983.181 1544.84 986.12 1541.09 Q989.083 1537.34 993.782 1537.34 Q996.653 1537.34 998.69 1538.47 Q1000.75 1539.58 1002.09 1541.9 M987.579 1550.95 Q987.579 1555.65 989.5 1558.33 Q991.444 1560.99 994.824 1560.99 Q998.204 1560.99 1000.15 1558.33 Q1002.09 1555.65 1002.09 1550.95 Q1002.09 1546.25 1000.15 1543.59 Q998.204 1540.9 994.824 1540.9 Q991.444 1540.9 989.5 1543.59 Q987.579 1546.25 987.579 1550.95 Z" fill="#000000" fill-rule="nonzero" fill-opacity="1" /><path clip-path="url(#clip800)" d="M1031.65 1538.73 L1031.65 1542.75 Q1029.85 1541.83 1027.9 1541.36 Q1025.96 1540.9 1023.87 1540.9 Q1020.7 1540.9 1019.11 1541.87 Q1017.53 1542.85 1017.53 1544.79 Q1017.53 1546.27 1018.67 1547.13 Q1019.8 1547.96 1023.23 1548.73 L1024.69 1549.05 Q1029.22 1550.02 1031.12 1551.8 Q1033.04 1553.56 1033.04 1556.74 Q1033.04 1560.35 1030.17 1562.45 Q1027.32 1564.56 1022.32 1564.56 Q1020.24 1564.56 1017.97 1564.14 Q1015.73 1563.75 1013.23 1562.94 L1013.23 1558.54 Q1015.59 1559.77 1017.88 1560.39 Q1020.17 1560.99 1022.42 1560.99 Q1025.43 1560.99 1027.05 1559.98 Q1028.67 1558.93 1028.67 1557.06 Q1028.67 1555.32 1027.49 1554.4 Q1026.33 1553.47 1022.37 1552.61 L1020.89 1552.27 Q1016.93 1551.43 1015.17 1549.72 Q1013.41 1547.99 1013.41 1544.98 Q1013.41 1541.32 1016 1539.33 Q1018.6 1537.34 1023.37 1537.34 Q1025.73 1537.34 1027.81 1537.68 Q1029.89 1538.03 1031.65 1538.73 Z" fill="#000000" fill-rule="nonzero" fill-opacity="1" /><path clip-path="url(#clip800)" d="M2500.95 1559.95 L2508.59 1559.95 L2508.59 1533.59 L2500.28 1535.25 L2500.28 1530.99 L2508.55 1529.33 L2513.22 1529.33 L2513.22 1559.95 L2520.86 1559.95 L2520.86 1563.89 L2500.95 1563.89 L2500.95 1559.95 Z" fill="#000000" fill-rule="nonzero" fill-opacity="1" /><path clip-path="url(#clip800)" d="M2548.99 1530.6 L2548.99 1537.96 L2557.76 1537.96 L2557.76 1541.27 L2548.99 1541.27 L2548.99 1555.35 Q2548.99 1558.52 2549.84 1559.42 Q2550.72 1560.32 2553.38 1560.32 L2557.76 1560.32 L2557.76 1563.89 L2553.38 1563.89 Q2548.45 1563.89 2546.58 1562.06 Q2544.7 1560.21 2544.7 1555.35 L2544.7 1541.27 L2541.58 1541.27 L2541.58 1537.96 L2544.7 1537.96 L2544.7 1530.6 L2548.99 1530.6 Z" fill="#000000" fill-rule="nonzero" fill-opacity="1" /><path clip-path="url(#clip800)" d="M2584.91 1548.24 L2584.91 1563.89 L2580.65 1563.89 L2580.65 1548.38 Q2580.65 1544.7 2579.22 1542.87 Q2577.78 1541.04 2574.91 1541.04 Q2571.46 1541.04 2569.47 1543.24 Q2567.48 1545.44 2567.48 1549.24 L2567.48 1563.89 L2563.2 1563.89 L2563.2 1527.87 L2567.48 1527.87 L2567.48 1541.99 Q2569.01 1539.65 2571.07 1538.49 Q2573.15 1537.34 2575.86 1537.34 Q2580.33 1537.34 2582.62 1540.11 Q2584.91 1542.87 2584.91 1548.24 Z" fill="#000000" fill-rule="nonzero" fill-opacity="1" /><path clip-path="url(#clip800)" d="M2608.43 1541.94 Q2607.71 1541.53 2606.86 1541.34 Q2606.02 1541.13 2605 1541.13 Q2601.39 1541.13 2599.45 1543.49 Q2597.53 1545.83 2597.53 1550.23 L2597.53 1563.89 L2593.25 1563.89 L2593.25 1537.96 L2597.53 1537.96 L2597.53 1541.99 Q2598.87 1539.63 2601.02 1538.49 Q2603.18 1537.34 2606.25 1537.34 Q2606.69 1537.34 2607.23 1537.41 Q2607.76 1537.45 2608.41 1537.57 L2608.43 1541.94 Z" fill="#000000" fill-rule="nonzero" fill-opacity="1" /><path clip-path="url(#clip800)" d="M2634.03 1549.86 L2634.03 1551.94 L2614.45 1551.94 Q2614.73 1556.34 2617.09 1558.66 Q2619.47 1560.95 2623.71 1560.95 Q2626.16 1560.95 2628.45 1560.35 Q2630.77 1559.74 2633.04 1558.54 L2633.04 1562.57 Q2630.75 1563.54 2628.34 1564.05 Q2625.93 1564.56 2623.45 1564.56 Q2617.25 1564.56 2613.62 1560.95 Q2610 1557.34 2610 1551.18 Q2610 1544.81 2613.43 1541.09 Q2616.88 1537.34 2622.71 1537.34 Q2627.94 1537.34 2630.98 1540.72 Q2634.03 1544.07 2634.03 1549.86 M2629.77 1548.61 Q2629.73 1545.11 2627.81 1543.03 Q2625.91 1540.95 2622.76 1540.95 Q2619.19 1540.95 2617.04 1542.96 Q2614.91 1544.98 2614.59 1548.63 L2629.77 1548.61 Z" fill="#000000" fill-rule="nonzero" fill-opacity="1" /><path clip-path="url(#clip800)" d="M2652.81 1550.86 Q2647.64 1550.86 2645.65 1552.04 Q2643.66 1553.22 2643.66 1556.06 Q2643.66 1558.33 2645.14 1559.67 Q2646.65 1560.99 2649.22 1560.99 Q2652.76 1560.99 2654.89 1558.49 Q2657.04 1555.97 2657.04 1551.8 L2657.04 1550.86 L2652.81 1550.86 M2661.3 1549.1 L2661.3 1563.89 L2657.04 1563.89 L2657.04 1559.95 Q2655.58 1562.31 2653.41 1563.45 Q2651.23 1564.56 2648.08 1564.56 Q2644.1 1564.56 2641.74 1562.34 Q2639.4 1560.09 2639.4 1556.34 Q2639.4 1551.97 2642.32 1549.74 Q2645.26 1547.52 2651.07 1547.52 L2657.04 1547.52 L2657.04 1547.11 Q2657.04 1544.17 2655.1 1542.57 Q2653.18 1540.95 2649.68 1540.95 Q2647.46 1540.95 2645.35 1541.48 Q2643.25 1542.01 2641.3 1543.08 L2641.3 1539.14 Q2643.64 1538.24 2645.84 1537.8 Q2648.04 1537.34 2650.12 1537.34 Q2655.75 1537.34 2658.52 1540.25 Q2661.3 1543.17 2661.3 1549.1 Z" fill="#000000" fill-rule="nonzero" fill-opacity="1" /><path clip-path="url(#clip800)" d="M2687.13 1541.9 L2687.13 1527.87 L2691.39 1527.87 L2691.39 1563.89 L2687.13 1563.89 L2687.13 1560 Q2685.79 1562.31 2683.73 1563.45 Q2681.69 1564.56 2678.82 1564.56 Q2674.12 1564.56 2671.16 1560.81 Q2668.22 1557.06 2668.22 1550.95 Q2668.22 1544.84 2671.16 1541.09 Q2674.12 1537.34 2678.82 1537.34 Q2681.69 1537.34 2683.73 1538.47 Q2685.79 1539.58 2687.13 1541.9 M2672.62 1550.95 Q2672.62 1555.65 2674.54 1558.33 Q2676.49 1560.99 2679.87 1560.99 Q2683.25 1560.99 2685.19 1558.33 Q2687.13 1555.65 2687.13 1550.95 Q2687.13 1546.25 2685.19 1543.59 Q2683.25 1540.9 2679.87 1540.9 Q2676.49 1540.9 2674.54 1543.59 Q2672.62 1546.25 2672.62 1550.95 Z" fill="#000000" fill-rule="nonzero" fill-opacity="1" /><polyline clip-path="url(#clip800)" style="stroke:#000000; stroke-linecap:round; stroke-linejoin:round; stroke-width:4; stroke-opacity:1; fill:none" points="365.777,1495.09 365.777,47.2441 "/>
<polyline clip-path="url(#clip800)" style="stroke:#000000; stroke-linecap:round; stroke-linejoin:round; stroke-width:4; stroke-opacity:1; fill:none" points="365.777,1196.35 384.675,1196.35 "/>
<polyline clip-path="url(#clip800)" style="stroke:#000000; stroke-linecap:round; stroke-linejoin:round; stroke-width:4; stroke-opacity:1; fill:none" points="365.777,874.43 384.675,874.43 "/>
<polyline clip-path="url(#clip800)" style="stroke:#000000; stroke-linecap:round; stroke-linejoin:round; stroke-width:4; stroke-opacity:1; fill:none" points="365.777,552.512 384.675,552.512 "/>
<polyline clip-path="url(#clip800)" style="stroke:#000000; stroke-linecap:round; stroke-linejoin:round; stroke-width:4; stroke-opacity:1; fill:none" points="365.777,230.594 384.675,230.594 "/>
<path clip-path="url(#clip800)" d="M105.163 1216.14 L121.482 1216.14 L121.482 1220.07 L99.5376 1220.07 L99.5376 1216.14 Q102.2 1213.39 106.783 1208.76 Q111.389 1204.1 112.57 1202.76 Q114.815 1200.24 115.695 1198.5 Q116.598 1196.74 116.598 1195.05 Q116.598 1192.3 114.653 1190.56 Q112.732 1188.83 109.63 1188.83 Q107.431 1188.83 104.977 1189.59 Q102.547 1190.35 99.769 1191.9 L99.769 1187.18 Q102.593 1186.05 105.047 1185.47 Q107.5 1184.89 109.538 1184.89 Q114.908 1184.89 118.102 1187.58 Q121.297 1190.26 121.297 1194.75 Q121.297 1196.88 120.487 1198.8 Q119.699 1200.7 117.593 1203.29 Q117.014 1203.96 113.912 1207.18 Q110.811 1210.38 105.163 1216.14 Z" fill="#000000" fill-rule="nonzero" fill-opacity="1" /><path clip-path="url(#clip800)" d="M131.297 1214.2 L136.181 1214.2 L136.181 1220.07 L131.297 1220.07 L131.297 1214.2 Z" fill="#000000" fill-rule="nonzero" fill-opacity="1" /><path clip-path="url(#clip800)" d="M146.412 1185.51 L164.769 1185.51 L164.769 1189.45 L150.695 1189.45 L150.695 1197.92 Q151.713 1197.57 152.732 1197.41 Q153.75 1197.23 154.769 1197.23 Q160.556 1197.23 163.935 1200.4 Q167.315 1203.57 167.315 1208.99 Q167.315 1214.57 163.843 1217.67 Q160.371 1220.75 154.051 1220.75 Q151.875 1220.75 149.607 1220.38 Q147.361 1220.01 144.954 1219.26 L144.954 1214.57 Q147.037 1215.7 149.26 1216.26 Q151.482 1216.81 153.959 1216.81 Q157.963 1216.81 160.301 1214.7 Q162.639 1212.6 162.639 1208.99 Q162.639 1205.38 160.301 1203.27 Q157.963 1201.16 153.959 1201.16 Q152.084 1201.16 150.209 1201.58 Q148.357 1202 146.412 1202.88 L146.412 1185.51 Z" fill="#000000" fill-rule="nonzero" fill-opacity="1" /><path clip-path="url(#clip800)" d="M186.528 1188.59 Q182.917 1188.59 181.088 1192.16 Q179.283 1195.7 179.283 1202.83 Q179.283 1209.94 181.088 1213.5 Q182.917 1217.04 186.528 1217.04 Q190.162 1217.04 191.968 1213.5 Q193.796 1209.94 193.796 1202.83 Q193.796 1195.7 191.968 1192.16 Q190.162 1188.59 186.528 1188.59 M186.528 1184.89 Q192.338 1184.89 195.394 1189.5 Q198.472 1194.08 198.472 1202.83 Q198.472 1211.56 195.394 1216.16 Q192.338 1220.75 186.528 1220.75 Q180.718 1220.75 177.639 1216.16 Q174.583 1211.56 174.583 1202.83 Q174.583 1194.08 177.639 1189.5 Q180.718 1184.89 186.528 1184.89 Z" fill="#000000" fill-rule="nonzero" fill-opacity="1" /><path clip-path="url(#clip800)" d="M234.861 1194.61 L224.282 1205.24 L234.861 1215.82 L232.106 1218.62 L221.481 1207.99 L210.856 1218.62 L208.125 1215.82 L218.68 1205.24 L208.125 1194.61 L210.856 1191.81 L221.481 1202.44 L232.106 1191.81 L234.861 1194.61 Z" fill="#000000" fill-rule="nonzero" fill-opacity="1" /><path clip-path="url(#clip800)" d="M247.222 1216.14 L254.861 1216.14 L254.861 1189.77 L246.551 1191.44 L246.551 1187.18 L254.815 1185.51 L259.49 1185.51 L259.49 1216.14 L267.129 1216.14 L267.129 1220.07 L247.222 1220.07 L247.222 1216.14 Z" fill="#000000" fill-rule="nonzero" fill-opacity="1" /><path clip-path="url(#clip800)" d="M286.574 1188.59 Q282.963 1188.59 281.134 1192.16 Q279.328 1195.7 279.328 1202.83 Q279.328 1209.94 281.134 1213.5 Q282.963 1217.04 286.574 1217.04 Q290.208 1217.04 292.013 1213.5 Q293.842 1209.94 293.842 1202.83 Q293.842 1195.7 292.013 1192.16 Q290.208 1188.59 286.574 1188.59 M286.574 1184.89 Q292.384 1184.89 295.439 1189.5 Q298.518 1194.08 298.518 1202.83 Q298.518 1211.56 295.439 1216.16 Q292.384 1220.75 286.574 1220.75 Q280.763 1220.75 277.685 1216.16 Q274.629 1211.56 274.629 1202.83 Q274.629 1194.08 277.685 1189.5 Q280.763 1184.89 286.574 1184.89 Z" fill="#000000" fill-rule="nonzero" fill-opacity="1" /><path clip-path="url(#clip800)" d="M308.148 1179.33 Q305.439 1179.33 303.878 1180.78 Q302.336 1182.23 302.336 1184.77 Q302.336 1187.3 303.878 1188.75 Q305.439 1190.2 308.148 1190.2 Q310.856 1190.2 312.417 1188.75 Q313.978 1187.29 313.978 1184.77 Q313.978 1182.23 312.417 1180.78 Q310.875 1179.33 308.148 1179.33 M304.348 1177.71 Q301.903 1177.11 300.53 1175.44 Q299.176 1173.76 299.176 1171.36 Q299.176 1167.99 301.565 1166.03 Q303.972 1164.08 308.148 1164.08 Q312.342 1164.08 314.73 1166.03 Q317.119 1167.99 317.119 1171.36 Q317.119 1173.76 315.746 1175.44 Q314.392 1177.11 311.966 1177.71 Q314.711 1178.35 316.235 1180.21 Q317.777 1182.08 317.777 1184.77 Q317.777 1188.85 315.276 1191.03 Q312.793 1193.21 308.148 1193.21 Q303.502 1193.21 301.001 1191.03 Q298.518 1188.85 298.518 1184.77 Q298.518 1182.08 300.06 1180.21 Q301.602 1178.35 304.348 1177.71 M302.957 1171.71 Q302.957 1173.89 304.311 1175.12 Q305.684 1176.34 308.148 1176.34 Q310.593 1176.34 311.966 1175.12 Q313.357 1173.89 313.357 1171.71 Q313.357 1169.53 311.966 1168.31 Q310.593 1167.09 308.148 1167.09 Q305.684 1167.09 304.311 1168.31 Q302.957 1169.53 302.957 1171.71 Z" fill="#000000" fill-rule="nonzero" fill-opacity="1" /><path clip-path="url(#clip800)" d="M115.301 879.523 Q118.658 880.241 120.533 882.509 Q122.431 884.778 122.431 888.111 Q122.431 893.227 118.912 896.027 Q115.394 898.828 108.913 898.828 Q106.737 898.828 104.422 898.389 Q102.13 897.972 99.6764 897.115 L99.6764 892.602 Q101.621 893.736 103.936 894.315 Q106.25 894.893 108.774 894.893 Q113.172 894.893 115.463 893.157 Q117.778 891.421 117.778 888.111 Q117.778 885.055 115.625 883.342 Q113.496 881.606 109.676 881.606 L105.649 881.606 L105.649 877.764 L109.862 877.764 Q113.311 877.764 115.139 876.398 Q116.968 875.009 116.968 872.417 Q116.968 869.754 115.07 868.342 Q113.195 866.907 109.676 866.907 Q107.755 866.907 105.556 867.324 Q103.357 867.741 100.718 868.62 L100.718 864.454 Q103.38 863.713 105.695 863.342 Q108.033 862.972 110.093 862.972 Q115.417 862.972 118.519 865.403 Q121.621 867.81 121.621 871.93 Q121.621 874.801 119.977 876.791 Q118.334 878.759 115.301 879.523 Z" fill="#000000" fill-rule="nonzero" fill-opacity="1" /><path clip-path="url(#clip800)" d="M131.297 892.278 L136.181 892.278 L136.181 898.157 L131.297 898.157 L131.297 892.278 Z" fill="#000000" fill-rule="nonzero" fill-opacity="1" /><path clip-path="url(#clip800)" d="M156.366 866.676 Q152.755 866.676 150.926 870.241 Q149.121 873.782 149.121 880.912 Q149.121 888.018 150.926 891.583 Q152.755 895.125 156.366 895.125 Q160 895.125 161.806 891.583 Q163.634 888.018 163.634 880.912 Q163.634 873.782 161.806 870.241 Q160 866.676 156.366 866.676 M156.366 862.972 Q162.176 862.972 165.232 867.579 Q168.31 872.162 168.31 880.912 Q168.31 889.639 165.232 894.245 Q162.176 898.828 156.366 898.828 Q150.556 898.828 147.477 894.245 Q144.422 889.639 144.422 880.912 Q144.422 872.162 147.477 867.579 Q150.556 862.972 156.366 862.972 Z" fill="#000000" fill-rule="nonzero" fill-opacity="1" /><path clip-path="url(#clip800)" d="M186.528 866.676 Q182.917 866.676 181.088 870.241 Q179.283 873.782 179.283 880.912 Q179.283 888.018 181.088 891.583 Q182.917 895.125 186.528 895.125 Q190.162 895.125 191.968 891.583 Q193.796 888.018 193.796 880.912 Q193.796 873.782 191.968 870.241 Q190.162 866.676 186.528 866.676 M186.528 862.972 Q192.338 862.972 195.394 867.579 Q198.472 872.162 198.472 880.912 Q198.472 889.639 195.394 894.245 Q192.338 898.828 186.528 898.828 Q180.718 898.828 177.639 894.245 Q174.583 889.639 174.583 880.912 Q174.583 872.162 177.639 867.579 Q180.718 862.972 186.528 862.972 Z" fill="#000000" fill-rule="nonzero" fill-opacity="1" /><path clip-path="url(#clip800)" d="M234.861 872.694 L224.282 883.319 L234.861 893.898 L232.106 896.699 L221.481 886.074 L210.856 896.699 L208.125 893.898 L218.68 883.319 L208.125 872.694 L210.856 869.893 L221.481 880.518 L232.106 869.893 L234.861 872.694 Z" fill="#000000" fill-rule="nonzero" fill-opacity="1" /><path clip-path="url(#clip800)" d="M247.222 894.222 L254.861 894.222 L254.861 867.856 L246.551 869.523 L246.551 865.264 L254.815 863.597 L259.49 863.597 L259.49 894.222 L267.129 894.222 L267.129 898.157 L247.222 898.157 L247.222 894.222 Z" fill="#000000" fill-rule="nonzero" fill-opacity="1" /><path clip-path="url(#clip800)" d="M286.574 866.676 Q282.963 866.676 281.134 870.241 Q279.328 873.782 279.328 880.912 Q279.328 888.018 281.134 891.583 Q282.963 895.125 286.574 895.125 Q290.208 895.125 292.013 891.583 Q293.842 888.018 293.842 880.912 Q293.842 873.782 292.013 870.241 Q290.208 866.676 286.574 866.676 M286.574 862.972 Q292.384 862.972 295.439 867.579 Q298.518 872.162 298.518 880.912 Q298.518 889.639 295.439 894.245 Q292.384 898.828 286.574 898.828 Q280.763 898.828 277.685 894.245 Q274.629 889.639 274.629 880.912 Q274.629 872.162 277.685 867.579 Q280.763 862.972 286.574 862.972 Z" fill="#000000" fill-rule="nonzero" fill-opacity="1" /><path clip-path="url(#clip800)" d="M308.148 857.412 Q305.439 857.412 303.878 858.86 Q302.336 860.308 302.336 862.847 Q302.336 865.386 303.878 866.835 Q305.439 868.283 308.148 868.283 Q310.856 868.283 312.417 866.835 Q313.978 865.368 313.978 862.847 Q313.978 860.308 312.417 858.86 Q310.875 857.412 308.148 857.412 M304.348 855.795 Q301.903 855.193 300.53 853.519 Q299.176 851.845 299.176 849.438 Q299.176 846.071 301.565 844.115 Q303.972 842.159 308.148 842.159 Q312.342 842.159 314.73 844.115 Q317.119 846.071 317.119 849.438 Q317.119 851.845 315.746 853.519 Q314.392 855.193 311.966 855.795 Q314.711 856.434 316.235 858.296 Q317.777 860.158 317.777 862.847 Q317.777 866.929 315.276 869.11 Q312.793 871.292 308.148 871.292 Q303.502 871.292 301.001 869.11 Q298.518 866.929 298.518 862.847 Q298.518 860.158 300.06 858.296 Q301.602 856.434 304.348 855.795 M302.957 849.795 Q302.957 851.977 304.311 853.199 Q305.684 854.422 308.148 854.422 Q310.593 854.422 311.966 853.199 Q313.357 851.977 313.357 849.795 Q313.357 847.613 311.966 846.391 Q310.593 845.168 308.148 845.168 Q305.684 845.168 304.311 846.391 Q302.957 847.613 302.957 849.795 Z" fill="#000000" fill-rule="nonzero" fill-opacity="1" /><path clip-path="url(#clip800)" d="M115.301 557.605 Q118.658 558.323 120.533 560.591 Q122.431 562.86 122.431 566.193 Q122.431 571.309 118.912 574.11 Q115.394 576.911 108.913 576.911 Q106.737 576.911 104.422 576.471 Q102.13 576.054 99.6764 575.198 L99.6764 570.684 Q101.621 571.818 103.936 572.397 Q106.25 572.975 108.774 572.975 Q113.172 572.975 115.463 571.239 Q117.778 569.503 117.778 566.193 Q117.778 563.138 115.625 561.425 Q113.496 559.688 109.676 559.688 L105.649 559.688 L105.649 555.846 L109.862 555.846 Q113.311 555.846 115.139 554.48 Q116.968 553.091 116.968 550.499 Q116.968 547.837 115.07 546.425 Q113.195 544.99 109.676 544.99 Q107.755 544.99 105.556 545.406 Q103.357 545.823 100.718 546.702 L100.718 542.536 Q103.38 541.795 105.695 541.425 Q108.033 541.054 110.093 541.054 Q115.417 541.054 118.519 543.485 Q121.621 545.892 121.621 550.013 Q121.621 552.883 119.977 554.874 Q118.334 556.841 115.301 557.605 Z" fill="#000000" fill-rule="nonzero" fill-opacity="1" /><path clip-path="url(#clip800)" d="M131.297 570.36 L136.181 570.36 L136.181 576.239 L131.297 576.239 L131.297 570.36 Z" fill="#000000" fill-rule="nonzero" fill-opacity="1" /><path clip-path="url(#clip800)" d="M146.412 541.679 L164.769 541.679 L164.769 545.614 L150.695 545.614 L150.695 554.087 Q151.713 553.739 152.732 553.577 Q153.75 553.392 154.769 553.392 Q160.556 553.392 163.935 556.564 Q167.315 559.735 167.315 565.151 Q167.315 570.73 163.843 573.832 Q160.371 576.911 154.051 576.911 Q151.875 576.911 149.607 576.54 Q147.361 576.17 144.954 575.429 L144.954 570.73 Q147.037 571.864 149.26 572.42 Q151.482 572.975 153.959 572.975 Q157.963 572.975 160.301 570.869 Q162.639 568.763 162.639 565.151 Q162.639 561.54 160.301 559.434 Q157.963 557.327 153.959 557.327 Q152.084 557.327 150.209 557.744 Q148.357 558.161 146.412 559.04 L146.412 541.679 Z" fill="#000000" fill-rule="nonzero" fill-opacity="1" /><path clip-path="url(#clip800)" d="M186.528 544.758 Q182.917 544.758 181.088 548.323 Q179.283 551.864 179.283 558.994 Q179.283 566.1 181.088 569.665 Q182.917 573.207 186.528 573.207 Q190.162 573.207 191.968 569.665 Q193.796 566.1 193.796 558.994 Q193.796 551.864 191.968 548.323 Q190.162 544.758 186.528 544.758 M186.528 541.054 Q192.338 541.054 195.394 545.661 Q198.472 550.244 198.472 558.994 Q198.472 567.721 195.394 572.327 Q192.338 576.911 186.528 576.911 Q180.718 576.911 177.639 572.327 Q174.583 567.721 174.583 558.994 Q174.583 550.244 177.639 545.661 Q180.718 541.054 186.528 541.054 Z" fill="#000000" fill-rule="nonzero" fill-opacity="1" /><path clip-path="url(#clip800)" d="M234.861 550.777 L224.282 561.401 L234.861 571.98 L232.106 574.781 L221.481 564.156 L210.856 574.781 L208.125 571.98 L218.68 561.401 L208.125 550.777 L210.856 547.976 L221.481 558.601 L232.106 547.976 L234.861 550.777 Z" fill="#000000" fill-rule="nonzero" fill-opacity="1" /><path clip-path="url(#clip800)" d="M247.222 572.304 L254.861 572.304 L254.861 545.939 L246.551 547.605 L246.551 543.346 L254.815 541.679 L259.49 541.679 L259.49 572.304 L267.129 572.304 L267.129 576.239 L247.222 576.239 L247.222 572.304 Z" fill="#000000" fill-rule="nonzero" fill-opacity="1" /><path clip-path="url(#clip800)" d="M286.574 544.758 Q282.963 544.758 281.134 548.323 Q279.328 551.864 279.328 558.994 Q279.328 566.1 281.134 569.665 Q282.963 573.207 286.574 573.207 Q290.208 573.207 292.013 569.665 Q293.842 566.1 293.842 558.994 Q293.842 551.864 292.013 548.323 Q290.208 544.758 286.574 544.758 M286.574 541.054 Q292.384 541.054 295.439 545.661 Q298.518 550.244 298.518 558.994 Q298.518 567.721 295.439 572.327 Q292.384 576.911 286.574 576.911 Q280.763 576.911 277.685 572.327 Q274.629 567.721 274.629 558.994 Q274.629 550.244 277.685 545.661 Q280.763 541.054 286.574 541.054 Z" fill="#000000" fill-rule="nonzero" fill-opacity="1" /><path clip-path="url(#clip800)" d="M308.148 535.494 Q305.439 535.494 303.878 536.942 Q302.336 538.391 302.336 540.93 Q302.336 543.469 303.878 544.917 Q305.439 546.365 308.148 546.365 Q310.856 546.365 312.417 544.917 Q313.978 543.45 313.978 540.93 Q313.978 538.391 312.417 536.942 Q310.875 535.494 308.148 535.494 M304.348 533.877 Q301.903 533.275 300.53 531.601 Q299.176 529.927 299.176 527.52 Q299.176 524.153 301.565 522.197 Q303.972 520.241 308.148 520.241 Q312.342 520.241 314.73 522.197 Q317.119 524.153 317.119 527.52 Q317.119 529.927 315.746 531.601 Q314.392 533.275 311.966 533.877 Q314.711 534.516 316.235 536.378 Q317.777 538.24 317.777 540.93 Q317.777 545.011 315.276 547.193 Q312.793 549.374 308.148 549.374 Q303.502 549.374 301.001 547.193 Q298.518 545.011 298.518 540.93 Q298.518 538.24 300.06 536.378 Q301.602 534.516 304.348 533.877 M302.957 527.877 Q302.957 530.059 304.311 531.281 Q305.684 532.504 308.148 532.504 Q310.593 532.504 311.966 531.281 Q313.357 530.059 313.357 527.877 Q313.357 525.695 311.966 524.473 Q310.593 523.25 308.148 523.25 Q305.684 523.25 304.311 524.473 Q302.957 525.695 302.957 527.877 Z" fill="#000000" fill-rule="nonzero" fill-opacity="1" /><path clip-path="url(#clip800)" d="M113.982 223.836 L102.176 242.285 L113.982 242.285 L113.982 223.836 M112.755 219.762 L118.635 219.762 L118.635 242.285 L123.565 242.285 L123.565 246.173 L118.635 246.173 L118.635 254.322 L113.982 254.322 L113.982 246.173 L98.3802 246.173 L98.3802 241.66 L112.755 219.762 Z" fill="#000000" fill-rule="nonzero" fill-opacity="1" /><path clip-path="url(#clip800)" d="M131.297 248.442 L136.181 248.442 L136.181 254.322 L131.297 254.322 L131.297 248.442 Z" fill="#000000" fill-rule="nonzero" fill-opacity="1" /><path clip-path="url(#clip800)" d="M156.366 222.84 Q152.755 222.84 150.926 226.405 Q149.121 229.947 149.121 237.076 Q149.121 244.183 150.926 247.748 Q152.755 251.289 156.366 251.289 Q160 251.289 161.806 247.748 Q163.634 244.183 163.634 237.076 Q163.634 229.947 161.806 226.405 Q160 222.84 156.366 222.84 M156.366 219.137 Q162.176 219.137 165.232 223.743 Q168.31 228.326 168.31 237.076 Q168.31 245.803 165.232 250.41 Q162.176 254.993 156.366 254.993 Q150.556 254.993 147.477 250.41 Q144.422 245.803 144.422 237.076 Q144.422 228.326 147.477 223.743 Q150.556 219.137 156.366 219.137 Z" fill="#000000" fill-rule="nonzero" fill-opacity="1" /><path clip-path="url(#clip800)" d="M186.528 222.84 Q182.917 222.84 181.088 226.405 Q179.283 229.947 179.283 237.076 Q179.283 244.183 181.088 247.748 Q182.917 251.289 186.528 251.289 Q190.162 251.289 191.968 247.748 Q193.796 244.183 193.796 237.076 Q193.796 229.947 191.968 226.405 Q190.162 222.84 186.528 222.84 M186.528 219.137 Q192.338 219.137 195.394 223.743 Q198.472 228.326 198.472 237.076 Q198.472 245.803 195.394 250.41 Q192.338 254.993 186.528 254.993 Q180.718 254.993 177.639 250.41 Q174.583 245.803 174.583 237.076 Q174.583 228.326 177.639 223.743 Q180.718 219.137 186.528 219.137 Z" fill="#000000" fill-rule="nonzero" fill-opacity="1" /><path clip-path="url(#clip800)" d="M234.861 228.859 L224.282 239.484 L234.861 250.062 L232.106 252.863 L221.481 242.238 L210.856 252.863 L208.125 250.062 L218.68 239.484 L208.125 228.859 L210.856 226.058 L221.481 236.683 L232.106 226.058 L234.861 228.859 Z" fill="#000000" fill-rule="nonzero" fill-opacity="1" /><path clip-path="url(#clip800)" d="M247.222 250.386 L254.861 250.386 L254.861 224.021 L246.551 225.687 L246.551 221.428 L254.815 219.762 L259.49 219.762 L259.49 250.386 L267.129 250.386 L267.129 254.322 L247.222 254.322 L247.222 250.386 Z" fill="#000000" fill-rule="nonzero" fill-opacity="1" /><path clip-path="url(#clip800)" d="M286.574 222.84 Q282.963 222.84 281.134 226.405 Q279.328 229.947 279.328 237.076 Q279.328 244.183 281.134 247.748 Q282.963 251.289 286.574 251.289 Q290.208 251.289 292.013 247.748 Q293.842 244.183 293.842 237.076 Q293.842 229.947 292.013 226.405 Q290.208 222.84 286.574 222.84 M286.574 219.137 Q292.384 219.137 295.439 223.743 Q298.518 228.326 298.518 237.076 Q298.518 245.803 295.439 250.41 Q292.384 254.993 286.574 254.993 Q280.763 254.993 277.685 250.41 Q274.629 245.803 274.629 237.076 Q274.629 228.326 277.685 223.743 Q280.763 219.137 286.574 219.137 Z" fill="#000000" fill-rule="nonzero" fill-opacity="1" /><path clip-path="url(#clip800)" d="M308.148 213.576 Q305.439 213.576 303.878 215.025 Q302.336 216.473 302.336 219.012 Q302.336 221.551 303.878 222.999 Q305.439 224.447 308.148 224.447 Q310.856 224.447 312.417 222.999 Q313.978 221.532 313.978 219.012 Q313.978 216.473 312.417 215.025 Q310.875 213.576 308.148 213.576 M304.348 211.959 Q301.903 211.357 300.53 209.683 Q299.176 208.009 299.176 205.602 Q299.176 202.235 301.565 200.279 Q303.972 198.323 308.148 198.323 Q312.342 198.323 314.73 200.279 Q317.119 202.235 317.119 205.602 Q317.119 208.009 315.746 209.683 Q314.392 211.357 311.966 211.959 Q314.711 212.598 316.235 214.46 Q317.777 216.322 317.777 219.012 Q317.777 223.093 315.276 225.275 Q312.793 227.457 308.148 227.457 Q303.502 227.457 301.001 225.275 Q298.518 223.093 298.518 219.012 Q298.518 216.322 300.06 214.46 Q301.602 212.598 304.348 211.959 M302.957 205.959 Q302.957 208.141 304.311 209.364 Q305.684 210.586 308.148 210.586 Q310.593 210.586 311.966 209.364 Q313.357 208.141 313.357 205.959 Q313.357 203.778 311.966 202.555 Q310.593 201.333 308.148 201.333 Q305.684 201.333 304.311 202.555 Q302.957 203.778 302.957 205.959 Z" fill="#000000" fill-rule="nonzero" fill-opacity="1" /><path clip-path="url(#clip800)" d="M-9.64527 840.632 L0.4762 840.632 L0.4762 828.569 L5.02768 828.569 L5.02768 840.632 L24.3794 840.632 Q28.7399 840.632 29.9813 839.454 Q31.2226 838.245 31.2226 834.584 L31.2226 828.569 L36.1242 828.569 L36.1242 834.584 Q36.1242 841.364 33.6097 843.942 Q31.0634 846.52 24.3794 846.52 L5.02768 846.52 L5.02768 850.817 L0.4762 850.817 L0.4762 846.52 L-9.64527 846.52 L-9.64527 840.632 Z" fill="#000000" fill-rule="nonzero" fill-opacity="1" /><path clip-path="url(#clip800)" d="M-11.3958 789.738 L-11.3958 784.327 L42.1716 800.878 L42.1716 806.289 L-11.3958 789.738 Z" fill="#000000" fill-rule="nonzero" fill-opacity="1" /><path clip-path="url(#clip800)" d="M14.6081 727.831 L36.1242 727.831 L36.1242 733.688 L14.799 733.688 Q9.7383 733.688 7.22385 735.661 Q4.7094 737.635 4.7094 741.581 Q4.7094 746.324 7.73311 749.061 Q10.7568 751.798 15.9767 751.798 L36.1242 751.798 L36.1242 757.687 L0.4762 757.687 L0.4762 751.798 L6.01437 751.798 Q2.79968 749.698 1.20826 746.865 Q-0.38317 744 -0.38317 740.276 Q-0.38317 734.133 3.43625 730.982 Q7.22385 727.831 14.6081 727.831 Z" fill="#000000" fill-rule="nonzero" fill-opacity="1" /><path clip-path="url(#clip800)" d="M1.52654 693.425 L7.06471 693.425 Q5.79157 695.907 5.15499 698.581 Q4.51842 701.255 4.51842 704.119 Q4.51842 708.48 5.85522 710.676 Q7.19202 712.84 9.86562 712.84 Q11.9026 712.84 13.0803 711.281 Q14.2261 709.721 15.2765 705.01 L15.7221 703.005 Q17.0589 696.767 19.5097 694.157 Q21.9286 691.515 26.2891 691.515 Q31.2544 691.515 34.1508 695.462 Q37.0472 699.377 37.0472 706.252 Q37.0472 709.116 36.4743 712.235 Q35.9332 715.323 34.8192 718.76 L28.7718 718.76 Q30.4587 715.514 31.318 712.363 Q32.1456 709.212 32.1456 706.124 Q32.1456 701.987 30.7451 699.759 Q29.3129 697.531 26.7347 697.531 Q24.3476 697.531 23.0745 699.154 Q21.8013 700.745 20.6237 706.188 L20.1462 708.225 Q19.0004 713.668 16.6451 716.087 Q14.258 718.506 10.1202 718.506 Q5.09134 718.506 2.35408 714.941 Q-0.38317 711.376 -0.38317 704.819 Q-0.38317 701.573 0.0942579 698.708 Q0.571686 695.844 1.52654 693.425 Z" fill="#000000" fill-rule="nonzero" fill-opacity="1" /><path clip-path="url(#clip802)" d="M1088.26 1454.11 L1099.37 1450.88 L1108.85 1447.65 L1117.86 1444.41 L1127.65 1441.18 L1139.11 1437.95 L1152.59 1434.71 L1167.8 1431.48 L1184.03 1428.25 L1200.43 1425.01 L1216.47 1421.78 L1232.11 1418.55 L1247.92 1415.31 L1264.83 1412.08 L1283.73 1408.85 L1305.06 1405.62 L1328.34 1402.38 L1352.12 1399.15 L1374.02 1395.92 L1391.16 1392.68 L1400.74 1389.45 L1400.59 1386.22 L1389.69 1382.98 L1368.35 1379.75 L1338.17 1376.52 L1301.71 1373.28 L1261.96 1370.05 L1221.82 1366.82 L1183.62 1363.59 L1148.87 1360.35 L1118.17 1357.12 L1091.41 1353.89 L1067.98 1350.65 L1047.14 1347.42 L1028.21 1344.19 L1010.77 1340.95 L994.678 1337.72 L980.016 1334.49 L966.987 1331.25 L955.797 1328.02 L946.561 1324.79 L939.262 1321.56 L933.75 1318.32 L929.778 1315.09 L927.048 1311.86 L925.259 1308.62 L924.142 1305.39 L923.477 1302.16 L923.099 1298.92 L922.895 1295.69 L922.789 1292.46 L922.738 1289.22 L922.713 1285.99 L922.703 1282.76 L922.698 1279.53 L922.696 1276.29 L922.697 1273.06 L922.698 1269.83 L922.703 1266.59 L922.715 1263.36 L922.741 1260.13 L922.794 1256.89 L922.902 1253.66 L923.106 1250.43 L923.475 1247.19 L924.107 1243.96 L925.134 1240.73 L926.72 1237.5 L929.036 1234.26 L932.232 1231.03 L936.391 1227.8 L941.473 1224.56 L947.278 1221.33 L953.422 1218.1 L959.366 1214.86 L964.482 1211.63 L968.161 1208.4 L969.929 1205.16 L969.55 1201.93 L967.076 1198.7 L962.834 1195.47 L957.359 1192.23 L951.28 1189 L945.203 1185.77 L939.618 1182.53 L934.845 1179.3 L931.025 1176.07 L928.148 1172.83 L926.104 1169.6 L924.73 1166.37 L923.855 1163.13 L923.326 1159.9 L923.023 1156.67 L922.858 1153.44 L922.772 1150.2 L922.73 1146.97 L922.71 1143.74 L922.701 1140.5 L922.697 1137.27 L922.696 1134.04 L922.695 1130.8 L922.695 1127.57 L922.695 1124.34 L922.695 1121.1 L922.695 1117.87 L922.695 1114.64 L922.695 1111.41 L922.695 1108.17 L922.695 1104.94 L922.695 1101.71 L922.695 1098.47 L922.695 1095.24 L922.695 1092.01 L922.695 1088.77 L922.695 1085.54 L922.695 1082.31 L922.695 1079.07 L922.695 1075.84 L922.695 1072.61 L922.695 1069.38 L922.695 1066.14 L922.695 1062.91 L922.695 1059.68 L922.695 1056.44 L922.695 1053.21 L922.695 1049.98 L922.695 1046.74 L922.695 1043.51 L922.695 1040.28 L922.695 1037.04 L922.695 1033.81 L922.695 1030.58 L922.695 1027.35 L922.695 1024.11 L922.695 1020.88 L922.695 1017.65 L922.695 1014.41 L922.695 1011.18 L922.695 1007.95 L922.695 1004.71 L922.696 1001.48 L922.698 998.248 L922.702 995.015 L922.713 991.782 L922.736 988.549 L922.784 985.315 L922.881 982.082 L923.067 978.849 L923.406 975.616 L923.989 972.383 L924.946 969.15 L926.434 965.917 L928.623 962.684 L931.671 959.451 L935.672 956.218 L940.611 952.985 L946.313 949.752 L952.426 946.519 L958.433 943.286 L963.716 940.052 L967.656 936.819 L969.753 933.586 L875.637 933.586 L877.733 936.819 L881.674 940.052 L886.957 943.286 L892.964 946.519 L899.076 949.752 L904.779 952.985 L909.717 956.218 L913.719 959.451 L916.766 962.684 L918.956 965.917 L920.443 969.15 L921.4 972.383 L921.984 975.616 L922.322 978.849 L922.508 982.082 L922.606 985.315 L922.654 988.549 L922.677 991.782 L922.687 995.015 L922.692 998.248 L922.694 1001.48 L922.694 1004.71 L922.695 1007.95 L922.695 1011.18 L922.695 1014.41 L922.695 1017.65 L922.695 1020.88 L922.695 1024.11 L922.695 1027.35 L922.695 1030.58 L922.695 1033.81 L922.695 1037.04 L922.695 1040.28 L922.695 1043.51 L922.695 1046.74 L922.695 1049.98 L922.695 1053.21 L922.695 1056.44 L922.695 1059.68 L922.695 1062.91 L922.695 1066.14 L922.695 1069.38 L922.695 1072.61 L922.695 1075.84 L922.695 1079.07 L922.695 1082.31 L922.695 1085.54 L922.695 1088.77 L922.695 1092.01 L922.695 1095.24 L922.695 1098.47 L922.695 1101.71 L922.695 1104.94 L922.695 1108.17 L922.695 1111.41 L922.695 1114.64 L922.695 1117.87 L922.695 1121.1 L922.695 1124.34 L922.695 1127.57 L922.695 1130.8 L922.694 1134.04 L922.692 1137.27 L922.689 1140.5 L922.68 1143.74 L922.66 1146.97 L922.618 1150.2 L922.532 1153.44 L922.367 1156.67 L922.064 1159.9 L921.535 1163.13 L920.66 1166.37 L919.286 1169.6 L917.242 1172.83 L914.365 1176.07 L910.545 1179.3 L905.772 1182.53 L900.187 1185.77 L894.11 1189 L888.031 1192.23 L882.556 1195.47 L878.314 1198.7 L875.84 1201.93 L875.461 1205.16 L877.229 1208.4 L880.908 1211.63 L886.024 1214.86 L891.968 1218.1 L898.112 1221.33 L903.916 1224.56 L908.999 1227.8 L913.157 1231.03 L916.354 1234.26 L918.67 1237.5 L920.255 1240.73 L921.283 1243.96 L921.915 1247.19 L922.284 1250.43 L922.488 1253.66 L922.595 1256.89 L922.649 1260.13 L922.675 1263.36 L922.686 1266.59 L922.691 1269.83 L922.693 1273.06 L922.693 1276.29 L922.692 1279.53 L922.687 1282.76 L922.676 1285.99 L922.652 1289.22 L922.6 1292.46 L922.495 1295.69 L922.291 1298.92 L921.913 1302.16 L921.248 1305.39 L920.131 1308.62 L918.342 1311.86 L915.612 1315.09 L911.64 1318.32 L906.128 1321.56 L898.828 1324.79 L889.592 1328.02 L878.402 1331.25 L865.374 1334.49 L850.711 1337.72 L834.618 1340.95 L817.177 1344.19 L798.249 1347.42 L777.407 1350.65 L753.984 1353.89 L727.221 1357.12 L696.524 1360.35 L661.77 1363.59 L623.572 1366.82 L583.431 1370.05 L543.682 1373.28 L507.219 1376.52 L477.041 1379.75 L455.702 1382.98 L444.8 1386.22 L444.654 1389.45 L454.229 1392.68 L471.37 1395.92 L493.267 1399.15 L517.045 1402.38 L540.334 1405.62 L561.658 1408.85 L580.564 1412.08 L597.468 1415.31 L613.276 1418.55 L628.919 1421.78 L644.956 1425.01 L661.364 1428.25 L677.587 1431.48 L692.8 1434.71 L706.278 1437.95 L717.741 1441.18 L727.526 1444.41 L736.542 1447.65 L746.016 1450.88 L757.131 1454.11 L1088.26 1454.11  Z" fill="#009af9" fill-rule="evenodd" fill-opacity="1"/>
<polyline clip-path="url(#clip802)" style="stroke:#000000; stroke-linecap:round; stroke-linejoin:round; stroke-width:4; stroke-opacity:1; fill:none" points="1088.26,1454.11 1099.37,1450.88 1108.85,1447.65 1117.86,1444.41 1127.65,1441.18 1139.11,1437.95 1152.59,1434.71 1167.8,1431.48 1184.03,1428.25 1200.43,1425.01 1216.47,1421.78 1232.11,1418.55 1247.92,1415.31 1264.83,1412.08 1283.73,1408.85 1305.06,1405.62 1328.34,1402.38 1352.12,1399.15 1374.02,1395.92 1391.16,1392.68 1400.74,1389.45 1400.59,1386.22 1389.69,1382.98 1368.35,1379.75 1338.17,1376.52 1301.71,1373.28 1261.96,1370.05 1221.82,1366.82 1183.62,1363.59 1148.87,1360.35 1118.17,1357.12 1091.41,1353.89 1067.98,1350.65 1047.14,1347.42 1028.21,1344.19 1010.77,1340.95 994.678,1337.72 980.016,1334.49 966.987,1331.25 955.797,1328.02 946.561,1324.79 939.262,1321.56 933.75,1318.32 929.778,1315.09 927.048,1311.86 925.259,1308.62 924.142,1305.39 923.477,1302.16 923.099,1298.92 922.895,1295.69 922.789,1292.46 922.738,1289.22 922.713,1285.99 922.703,1282.76 922.698,1279.53 922.696,1276.29 922.697,1273.06 922.698,1269.83 922.703,1266.59 922.715,1263.36 922.741,1260.13 922.794,1256.89 922.902,1253.66 923.106,1250.43 923.475,1247.19 924.107,1243.96 925.134,1240.73 926.72,1237.5 929.036,1234.26 932.232,1231.03 936.391,1227.8 941.473,1224.56 947.278,1221.33 953.422,1218.1 959.366,1214.86 964.482,1211.63 968.161,1208.4 969.929,1205.16 969.55,1201.93 967.076,1198.7 962.834,1195.47 957.359,1192.23 951.28,1189 945.203,1185.77 939.618,1182.53 934.845,1179.3 931.025,1176.07 928.148,1172.83 926.104,1169.6 924.73,1166.37 923.855,1163.13 923.326,1159.9 923.023,1156.67 922.858,1153.44 922.772,1150.2 922.73,1146.97 922.71,1143.74 922.701,1140.5 922.697,1137.27 922.696,1134.04 922.695,1130.8 922.695,1127.57 922.695,1124.34 922.695,1121.1 922.695,1117.87 922.695,1114.64 922.695,1111.41 922.695,1108.17 922.695,1104.94 922.695,1101.71 922.695,1098.47 922.695,1095.24 922.695,1092.01 922.695,1088.77 922.695,1085.54 922.695,1082.31 922.695,1079.07 922.695,1075.84 922.695,1072.61 922.695,1069.38 922.695,1066.14 922.695,1062.91 922.695,1059.68 922.695,1056.44 922.695,1053.21 922.695,1049.98 922.695,1046.74 922.695,1043.51 922.695,1040.28 922.695,1037.04 922.695,1033.81 922.695,1030.58 922.695,1027.35 922.695,1024.11 922.695,1020.88 922.695,1017.65 922.695,1014.41 922.695,1011.18 922.695,1007.95 922.695,1004.71 922.696,1001.48 922.698,998.248 922.702,995.015 922.713,991.782 922.736,988.549 922.784,985.315 922.881,982.082 923.067,978.849 923.406,975.616 923.989,972.383 924.946,969.15 926.434,965.917 928.623,962.684 931.671,959.451 935.672,956.218 940.611,952.985 946.313,949.752 952.426,946.519 958.433,943.286 963.716,940.052 967.656,936.819 969.753,933.586 875.637,933.586 877.733,936.819 881.674,940.052 886.957,943.286 892.964,946.519 899.076,949.752 904.779,952.985 909.717,956.218 913.719,959.451 916.766,962.684 918.956,965.917 920.443,969.15 921.4,972.383 921.984,975.616 922.322,978.849 922.508,982.082 922.606,985.315 922.654,988.549 922.677,991.782 922.687,995.015 922.692,998.248 922.694,1001.48 922.694,1004.71 922.695,1007.95 922.695,1011.18 922.695,1014.41 922.695,1017.65 922.695,1020.88 922.695,1024.11 922.695,1027.35 922.695,1030.58 922.695,1033.81 922.695,1037.04 922.695,1040.28 922.695,1043.51 922.695,1046.74 922.695,1049.98 922.695,1053.21 922.695,1056.44 922.695,1059.68 922.695,1062.91 922.695,1066.14 922.695,1069.38 922.695,1072.61 922.695,1075.84 922.695,1079.07 922.695,1082.31 922.695,1085.54 922.695,1088.77 922.695,1092.01 922.695,1095.24 922.695,1098.47 922.695,1101.71 922.695,1104.94 922.695,1108.17 922.695,1111.41 922.695,1114.64 922.695,1117.87 922.695,1121.1 922.695,1124.34 922.695,1127.57 922.695,1130.8 922.694,1134.04 922.692,1137.27 922.689,1140.5 922.68,1143.74 922.66,1146.97 922.618,1150.2 922.532,1153.44 922.367,1156.67 922.064,1159.9 921.535,1163.13 920.66,1166.37 919.286,1169.6 917.242,1172.83 914.365,1176.07 910.545,1179.3 905.772,1182.53 900.187,1185.77 894.11,1189 888.031,1192.23 882.556,1195.47 878.314,1198.7 875.84,1201.93 875.461,1205.16 877.229,1208.4 880.908,1211.63 886.024,1214.86 891.968,1218.1 898.112,1221.33 903.916,1224.56 908.999,1227.8 913.157,1231.03 916.354,1234.26 918.67,1237.5 920.255,1240.73 921.283,1243.96 921.915,1247.19 922.284,1250.43 922.488,1253.66 922.595,1256.89 922.649,1260.13 922.675,1263.36 922.686,1266.59 922.691,1269.83 922.693,1273.06 922.693,1276.29 922.692,1279.53 922.687,1282.76 922.676,1285.99 922.652,1289.22 922.6,1292.46 922.495,1295.69 922.291,1298.92 921.913,1302.16 921.248,1305.39 920.131,1308.62 918.342,1311.86 915.612,1315.09 911.64,1318.32 906.128,1321.56 898.828,1324.79 889.592,1328.02 878.402,1331.25 865.374,1334.49 850.711,1337.72 834.618,1340.95 817.177,1344.19 798.249,1347.42 777.407,1350.65 753.984,1353.89 727.221,1357.12 696.524,1360.35 661.77,1363.59 623.572,1366.82 583.431,1370.05 543.682,1373.28 507.219,1376.52 477.041,1379.75 455.702,1382.98 444.8,1386.22 444.654,1389.45 454.229,1392.68 471.37,1395.92 493.267,1399.15 517.045,1402.38 540.334,1405.62 561.658,1408.85 580.564,1412.08 597.468,1415.31 613.276,1418.55 628.919,1421.78 644.956,1425.01 661.364,1428.25 677.587,1431.48 692.8,1434.71 706.278,1437.95 717.741,1441.18 727.526,1444.41 736.542,1447.65 746.016,1450.88 757.131,1454.11 1088.26,1454.11 "/>
<path clip-path="url(#clip802)" d="M2727.21 157.343 L2732.09 156.721 L2736.33 156.098 L2739.87 155.475 L2742.66 154.852 L2744.69 154.23 L2745.94 153.607 L2746.39 152.984 L2746.07 152.361 L2744.98 151.739 L2743.15 151.116 L2740.63 150.493 L2737.44 149.871 L2733.65 149.248 L2729.31 148.625 L2724.47 148.002 L2719.19 147.38 L2713.54 146.757 L2707.58 146.134 L2701.39 145.512 L2695.02 144.889 L2688.53 144.266 L2682 143.643 L2675.49 143.021 L2669.05 142.398 L2662.74 141.775 L2656.61 141.152 L2650.71 140.53 L2645.07 139.907 L2639.73 139.284 L2634.71 138.662 L2630.05 138.039 L2625.73 137.416 L2621.79 136.793 L2618.2 136.171 L2614.98 135.548 L2612.1 134.925 L2609.56 134.302 L2607.33 133.68 L2605.39 133.057 L2603.72 132.434 L2602.29 131.812 L2601.08 131.189 L2600.07 130.566 L2599.23 129.943 L2598.54 129.321 L2597.98 128.698 L2597.53 128.075 L2597.18 127.452 L2596.92 126.83 L2596.73 126.207 L2596.6 125.584 L2596.54 124.962 L2596.54 124.339 L2596.61 123.716 L2596.75 123.093 L2596.98 122.471 L2597.3 121.848 L2597.75 121.225 L2598.35 120.603 L2599.13 119.98 L2600.15 119.357 L2601.44 118.734 L2603.07 118.112 L2605.1 117.489 L2607.62 116.866 L2610.71 116.243 L2614.46 115.621 L2618.97 114.998 L2624.35 114.375 L2630.7 113.753 L2638.14 113.13 L2646.78 112.507 L2656.7 111.884 L2667.99 111.262 L2680.72 110.639 L2694.94 110.016 L2710.66 109.393 L2727.87 108.771 L2746.52 108.148 L2766.52 107.525 L2787.74 106.903 L2810.01 106.28 L2833.12 105.657 L2856.8 105.034 L2880.79 104.412 L2904.76 103.789 L2928.37 103.166 L2951.28 102.543 L2973.14 101.921 L2993.59 101.298 L3012.3 100.675 L3028.96 100.053 L3043.3 99.4299 L3055.1 98.8071 L3064.16 98.1844 L3070.35 97.5617 L3073.59 96.939 L3073.88 96.3162 L3071.24 95.6935 L3065.75 95.0708 L3057.57 94.4481 L3046.86 93.8253 L3033.85 93.2026 L3018.77 92.5799 L3001.9 91.9572 L2983.51 91.3344 L2963.91 90.7117 L2943.37 90.089 L2922.18 89.4663 L2900.61 88.8435 L2878.92 88.2208 L2312.75 88.2208 L2291.07 88.8435 L2269.5 89.4663 L2248.31 90.089 L2227.77 90.7117 L2208.16 91.3344 L2189.78 91.9572 L2172.91 92.5799 L2157.83 93.2026 L2144.81 93.8253 L2134.11 94.4481 L2125.92 95.0708 L2120.44 95.6935 L2117.8 96.3162 L2118.08 96.939 L2121.33 97.5617 L2127.52 98.1844 L2136.58 98.8071 L2148.37 99.4299 L2162.72 100.053 L2179.38 100.675 L2198.09 101.298 L2218.54 101.921 L2240.39 102.543 L2263.3 103.166 L2286.92 103.789 L2310.89 104.412 L2334.87 105.034 L2358.56 105.657 L2381.66 106.28 L2403.93 106.903 L2425.15 107.525 L2445.15 108.148 L2463.8 108.771 L2481.01 109.393 L2496.73 110.016 L2510.95 110.639 L2523.69 111.262 L2534.98 111.884 L2544.9 112.507 L2553.53 113.13 L2560.97 113.753 L2567.33 114.375 L2572.71 114.998 L2577.22 115.621 L2580.97 116.243 L2584.05 116.866 L2586.57 117.489 L2588.61 118.112 L2590.24 118.734 L2591.53 119.357 L2592.54 119.98 L2593.33 120.603 L2593.93 121.225 L2594.38 121.848 L2594.7 122.471 L2594.93 123.093 L2595.07 123.716 L2595.13 124.339 L2595.14 124.962 L2595.07 125.584 L2594.95 126.207 L2594.76 126.83 L2594.49 127.452 L2594.14 128.075 L2593.69 128.698 L2593.13 129.321 L2592.44 129.943 L2591.6 130.566 L2590.59 131.189 L2589.38 131.812 L2587.96 132.434 L2586.29 133.057 L2584.35 133.68 L2582.12 134.302 L2579.57 134.925 L2576.7 135.548 L2573.47 136.171 L2569.89 136.793 L2565.94 137.416 L2561.63 138.039 L2556.96 138.662 L2551.95 139.284 L2546.61 139.907 L2540.97 140.53 L2535.06 141.152 L2528.93 141.775 L2522.62 142.398 L2516.19 143.021 L2509.67 143.643 L2503.14 144.266 L2496.66 144.889 L2490.29 145.512 L2484.09 146.134 L2478.14 146.757 L2472.49 147.38 L2467.21 148.002 L2462.37 148.625 L2458.02 149.248 L2454.23 149.871 L2451.05 150.493 L2448.52 151.116 L2446.7 151.739 L2445.61 152.361 L2445.28 152.984 L2445.74 153.607 L2446.98 154.23 L2449.01 154.852 L2451.81 155.475 L2455.35 156.098 L2459.58 156.721 L2464.47 157.343 L2727.21 157.343  Z" fill="#e26f46" fill-rule="evenodd" fill-opacity="1"/>
<polyline clip-path="url(#clip802)" style="stroke:#000000; stroke-linecap:round; stroke-linejoin:round; stroke-width:4; stroke-opacity:1; fill:none" points="2727.21,157.343 2732.09,156.721 2736.33,156.098 2739.87,155.475 2742.66,154.852 2744.69,154.23 2745.94,153.607 2746.39,152.984 2746.07,152.361 2744.98,151.739 2743.15,151.116 2740.63,150.493 2737.44,149.871 2733.65,149.248 2729.31,148.625 2724.47,148.002 2719.19,147.38 2713.54,146.757 2707.58,146.134 2701.39,145.512 2695.02,144.889 2688.53,144.266 2682,143.643 2675.49,143.021 2669.05,142.398 2662.74,141.775 2656.61,141.152 2650.71,140.53 2645.07,139.907 2639.73,139.284 2634.71,138.662 2630.05,138.039 2625.73,137.416 2621.79,136.793 2618.2,136.171 2614.98,135.548 2612.1,134.925 2609.56,134.302 2607.33,133.68 2605.39,133.057 2603.72,132.434 2602.29,131.812 2601.08,131.189 2600.07,130.566 2599.23,129.943 2598.54,129.321 2597.98,128.698 2597.53,128.075 2597.18,127.452 2596.92,126.83 2596.73,126.207 2596.6,125.584 2596.54,124.962 2596.54,124.339 2596.61,123.716 2596.75,123.093 2596.98,122.471 2597.3,121.848 2597.75,121.225 2598.35,120.603 2599.13,119.98 2600.15,119.357 2601.44,118.734 2603.07,118.112 2605.1,117.489 2607.62,116.866 2610.71,116.243 2614.46,115.621 2618.97,114.998 2624.35,114.375 2630.7,113.753 2638.14,113.13 2646.78,112.507 2656.7,111.884 2667.99,111.262 2680.72,110.639 2694.94,110.016 2710.66,109.393 2727.87,108.771 2746.52,108.148 2766.52,107.525 2787.74,106.903 2810.01,106.28 2833.12,105.657 2856.8,105.034 2880.79,104.412 2904.76,103.789 2928.37,103.166 2951.28,102.543 2973.14,101.921 2993.59,101.298 3012.3,100.675 3028.96,100.053 3043.3,99.4299 3055.1,98.8071 3064.16,98.1844 3070.35,97.5617 3073.59,96.939 3073.88,96.3162 3071.24,95.6935 3065.75,95.0708 3057.57,94.4481 3046.86,93.8253 3033.85,93.2026 3018.77,92.5799 3001.9,91.9572 2983.51,91.3344 2963.91,90.7117 2943.37,90.089 2922.18,89.4663 2900.61,88.8435 2878.92,88.2208 2312.75,88.2208 2291.07,88.8435 2269.5,89.4663 2248.31,90.089 2227.77,90.7117 2208.16,91.3344 2189.78,91.9572 2172.91,92.5799 2157.83,93.2026 2144.81,93.8253 2134.11,94.4481 2125.92,95.0708 2120.44,95.6935 2117.8,96.3162 2118.08,96.939 2121.33,97.5617 2127.52,98.1844 2136.58,98.8071 2148.37,99.4299 2162.72,100.053 2179.38,100.675 2198.09,101.298 2218.54,101.921 2240.39,102.543 2263.3,103.166 2286.92,103.789 2310.89,104.412 2334.87,105.034 2358.56,105.657 2381.66,106.28 2403.93,106.903 2425.15,107.525 2445.15,108.148 2463.8,108.771 2481.01,109.393 2496.73,110.016 2510.95,110.639 2523.69,111.262 2534.98,111.884 2544.9,112.507 2553.53,113.13 2560.97,113.753 2567.33,114.375 2572.71,114.998 2577.22,115.621 2580.97,116.243 2584.05,116.866 2586.57,117.489 2588.61,118.112 2590.24,118.734 2591.53,119.357 2592.54,119.98 2593.33,120.603 2593.93,121.225 2594.38,121.848 2594.7,122.471 2594.93,123.093 2595.07,123.716 2595.13,124.339 2595.14,124.962 2595.07,125.584 2594.95,126.207 2594.76,126.83 2594.49,127.452 2594.14,128.075 2593.69,128.698 2593.13,129.321 2592.44,129.943 2591.6,130.566 2590.59,131.189 2589.38,131.812 2587.96,132.434 2586.29,133.057 2584.35,133.68 2582.12,134.302 2579.57,134.925 2576.7,135.548 2573.47,136.171 2569.89,136.793 2565.94,137.416 2561.63,138.039 2556.96,138.662 2551.95,139.284 2546.61,139.907 2540.97,140.53 2535.06,141.152 2528.93,141.775 2522.62,142.398 2516.19,143.021 2509.67,143.643 2503.14,144.266 2496.66,144.889 2490.29,145.512 2484.09,146.134 2478.14,146.757 2472.49,147.38 2467.21,148.002 2462.37,148.625 2458.02,149.248 2454.23,149.871 2451.05,150.493 2448.52,151.116 2446.7,151.739 2445.61,152.361 2445.28,152.984 2445.74,153.607 2446.98,154.23 2449.01,154.852 2451.81,155.475 2455.35,156.098 2459.58,156.721 2464.47,157.343 2727.21,157.343 "/>
</svg>
