<?xml version="1.0" encoding="utf-8"?>
<svg xmlns="http://www.w3.org/2000/svg" xmlns:xlink="http://www.w3.org/1999/xlink" width="800" height="400" viewBox="0 0 3200 1600">
<defs>
  <clipPath id="clip920">
    <rect x="0" y="0" width="3200" height="1600"/>
  </clipPath>
</defs>
<path clip-path="url(#clip920)" d="M0 1600 L3200 1600 L3200 0 L0 0  Z" fill="#ffffff" fill-rule="evenodd" fill-opacity="1"/>
<defs>
  <clipPath id="clip921">
    <rect x="640" y="0" width="2241" height="1600"/>
  </clipPath>
</defs>
<path clip-path="url(#clip920)" d="M365.777 1495.09 L3152.76 1495.09 L3152.76 47.2441 L365.777 47.2441  Z" fill="#ffffff" fill-rule="evenodd" fill-opacity="1"/>
<defs>
  <clipPath id="clip922">
    <rect x="365" y="47" width="2788" height="1449"/>
  </clipPath>
</defs>
<polyline clip-path="url(#clip922)" style="stroke:#000000; stroke-linecap:round; stroke-linejoin:round; stroke-width:2; stroke-opacity:0.1; fill:none" points="736.79,1495.09 736.79,47.2441 "/>
<polyline clip-path="url(#clip922)" style="stroke:#000000; stroke-linecap:round; stroke-linejoin:round; stroke-width:2; stroke-opacity:0.1; fill:none" points="1759.27,1495.09 1759.27,47.2441 "/>
<polyline clip-path="url(#clip922)" style="stroke:#000000; stroke-linecap:round; stroke-linejoin:round; stroke-width:2; stroke-opacity:0.1; fill:none" points="2781.74,1495.09 2781.74,47.2441 "/>
<polyline clip-path="url(#clip922)" style="stroke:#000000; stroke-linecap:round; stroke-linejoin:round; stroke-width:2; stroke-opacity:0.1; fill:none" points="365.777,1270.09 3152.76,1270.09 "/>
<polyline clip-path="url(#clip922)" style="stroke:#000000; stroke-linecap:round; stroke-linejoin:round; stroke-width:2; stroke-opacity:0.1; fill:none" points="365.777,1001.09 3152.76,1001.09 "/>
<polyline clip-path="url(#clip922)" style="stroke:#000000; stroke-linecap:round; stroke-linejoin:round; stroke-width:2; stroke-opacity:0.1; fill:none" points="365.777,732.095 3152.76,732.095 "/>
<polyline clip-path="url(#clip922)" style="stroke:#000000; stroke-linecap:round; stroke-linejoin:round; stroke-width:2; stroke-opacity:0.1; fill:none" points="365.777,463.097 3152.76,463.097 "/>
<polyline clip-path="url(#clip922)" style="stroke:#000000; stroke-linecap:round; stroke-linejoin:round; stroke-width:2; stroke-opacity:0.1; fill:none" points="365.777,194.099 3152.76,194.099 "/>
<polyline clip-path="url(#clip920)" style="stroke:#000000; stroke-linecap:round; stroke-linejoin:round; stroke-width:4; stroke-opacity:1; fill:none" points="365.777,1495.09 3152.76,1495.09 "/>
<polyline clip-path="url(#clip920)" style="stroke:#000000; stroke-linecap:round; stroke-linejoin:round; stroke-width:4; stroke-opacity:1; fill:none" points="736.79,1495.09 736.79,1476.19 "/>
<polyline clip-path="url(#clip920)" style="stroke:#000000; stroke-linecap:round; stroke-linejoin:round; stroke-width:4; stroke-opacity:1; fill:none" points="1759.27,1495.09 1759.27,1476.19 "/>
<polyline clip-path="url(#clip920)" style="stroke:#000000; stroke-linecap:round; stroke-linejoin:round; stroke-width:4; stroke-opacity:1; fill:none" points="2781.74,1495.09 2781.74,1476.19 "/>
<path clip-path="url(#clip920)" d="M516.56 1530.46 L516.56 1535.02 Q513.898 1533.75 511.537 1533.12 Q509.176 1532.5 506.976 1532.5 Q503.157 1532.5 501.074 1533.98 Q499.014 1535.46 499.014 1538.19 Q499.014 1540.49 500.379 1541.67 Q501.768 1542.82 505.611 1543.54 L508.435 1544.12 Q513.666 1545.11 516.143 1547.64 Q518.643 1550.14 518.643 1554.35 Q518.643 1559.37 515.263 1561.97 Q511.907 1564.56 505.402 1564.56 Q502.949 1564.56 500.171 1564 Q497.416 1563.45 494.453 1562.36 L494.453 1557.55 Q497.301 1559.14 500.032 1559.95 Q502.764 1560.76 505.402 1560.76 Q509.407 1560.76 511.583 1559.19 Q513.759 1557.61 513.759 1554.7 Q513.759 1552.15 512.185 1550.72 Q510.634 1549.28 507.069 1548.56 L504.222 1548.01 Q498.99 1546.97 496.652 1544.74 Q494.314 1542.52 494.314 1538.56 Q494.314 1533.98 497.532 1531.34 Q500.773 1528.7 506.444 1528.7 Q508.875 1528.7 511.398 1529.14 Q513.921 1529.58 516.56 1530.46 Z" fill="#000000" fill-rule="nonzero" fill-opacity="1" /><path clip-path="url(#clip920)" d="M536.536 1566.3 Q534.731 1570.92 533.018 1572.34 Q531.305 1573.75 528.435 1573.75 L525.032 1573.75 L525.032 1570.18 L527.532 1570.18 Q529.291 1570.18 530.263 1569.35 Q531.236 1568.52 532.416 1565.42 L533.18 1563.47 L522.694 1537.96 L527.208 1537.96 L535.31 1558.24 L543.411 1537.96 L547.925 1537.96 L536.536 1566.3 Z" fill="#000000" fill-rule="nonzero" fill-opacity="1" /><path clip-path="url(#clip920)" d="M573.99 1542.94 Q575.587 1540.07 577.809 1538.7 Q580.032 1537.34 583.041 1537.34 Q587.092 1537.34 589.291 1540.18 Q591.49 1543.01 591.49 1548.24 L591.49 1563.89 L587.207 1563.89 L587.207 1548.38 Q587.207 1544.65 585.888 1542.85 Q584.569 1541.04 581.86 1541.04 Q578.55 1541.04 576.629 1543.24 Q574.708 1545.44 574.708 1549.24 L574.708 1563.89 L570.425 1563.89 L570.425 1548.38 Q570.425 1544.63 569.106 1542.85 Q567.786 1541.04 565.032 1541.04 Q561.768 1541.04 559.847 1543.26 Q557.925 1545.46 557.925 1549.24 L557.925 1563.89 L553.643 1563.89 L553.643 1537.96 L557.925 1537.96 L557.925 1541.99 Q559.384 1539.61 561.421 1538.47 Q563.458 1537.34 566.259 1537.34 Q569.083 1537.34 571.05 1538.77 Q573.041 1540.21 573.99 1542.94 Z" fill="#000000" fill-rule="nonzero" fill-opacity="1" /><path clip-path="url(#clip920)" d="M618.596 1550.95 Q618.596 1546.25 616.652 1543.59 Q614.73 1540.9 611.351 1540.9 Q607.971 1540.9 606.027 1543.59 Q604.106 1546.25 604.106 1550.95 Q604.106 1555.65 606.027 1558.33 Q607.971 1560.99 611.351 1560.99 Q614.73 1560.99 616.652 1558.33 Q618.596 1555.65 618.596 1550.95 M604.106 1541.9 Q605.448 1539.58 607.485 1538.47 Q609.545 1537.34 612.393 1537.34 Q617.115 1537.34 620.055 1541.09 Q623.017 1544.84 623.017 1550.95 Q623.017 1557.06 620.055 1560.81 Q617.115 1564.56 612.393 1564.56 Q609.545 1564.56 607.485 1563.45 Q605.448 1562.31 604.106 1560 L604.106 1563.89 L599.823 1563.89 L599.823 1527.87 L604.106 1527.87 L604.106 1541.9 Z" fill="#000000" fill-rule="nonzero" fill-opacity="1" /><path clip-path="url(#clip920)" d="M640.124 1540.95 Q636.698 1540.95 634.707 1543.63 Q632.717 1546.3 632.717 1550.95 Q632.717 1555.6 634.684 1558.29 Q636.675 1560.95 640.124 1560.95 Q643.527 1560.95 645.517 1558.26 Q647.508 1555.58 647.508 1550.95 Q647.508 1546.34 645.517 1543.66 Q643.527 1540.95 640.124 1540.95 M640.124 1537.34 Q645.679 1537.34 648.851 1540.95 Q652.022 1544.56 652.022 1550.95 Q652.022 1557.31 648.851 1560.95 Q645.679 1564.56 640.124 1564.56 Q634.545 1564.56 631.374 1560.95 Q628.226 1557.31 628.226 1550.95 Q628.226 1544.56 631.374 1540.95 Q634.545 1537.34 640.124 1537.34 Z" fill="#000000" fill-rule="nonzero" fill-opacity="1" /><path clip-path="url(#clip920)" d="M659.082 1527.87 L663.341 1527.87 L663.341 1563.89 L659.082 1563.89 L659.082 1527.87 Z" fill="#000000" fill-rule="nonzero" fill-opacity="1" /><path clip-path="url(#clip920)" d="M672.253 1537.96 L676.513 1537.96 L676.513 1563.89 L672.253 1563.89 L672.253 1537.96 M672.253 1527.87 L676.513 1527.87 L676.513 1533.26 L672.253 1533.26 L672.253 1527.87 Z" fill="#000000" fill-rule="nonzero" fill-opacity="1" /><path clip-path="url(#clip920)" d="M704.082 1538.96 L704.082 1542.94 Q702.276 1541.94 700.448 1541.46 Q698.642 1540.95 696.79 1540.95 Q692.647 1540.95 690.355 1543.59 Q688.063 1546.2 688.063 1550.95 Q688.063 1555.69 690.355 1558.33 Q692.647 1560.95 696.79 1560.95 Q698.642 1560.95 700.448 1560.46 Q702.276 1559.95 704.082 1558.96 L704.082 1562.89 Q702.299 1563.73 700.378 1564.14 Q698.48 1564.56 696.327 1564.56 Q690.471 1564.56 687.022 1560.88 Q683.573 1557.2 683.573 1550.95 Q683.573 1544.61 687.045 1540.97 Q690.54 1537.34 696.605 1537.34 Q698.573 1537.34 700.448 1537.75 Q702.323 1538.15 704.082 1538.96 Z" fill="#000000" fill-rule="nonzero" fill-opacity="1" /><path clip-path="url(#clip920)" d="M736.79 1527.92 Q733.688 1533.24 732.184 1538.45 Q730.679 1543.66 730.679 1549 Q730.679 1554.35 732.184 1559.61 Q733.711 1564.84 736.79 1570.14 L733.086 1570.14 Q729.614 1564.7 727.878 1559.44 Q726.165 1554.19 726.165 1549 Q726.165 1543.84 727.878 1538.61 Q729.591 1533.38 733.086 1527.92 L736.79 1527.92 Z" fill="#000000" fill-rule="nonzero" fill-opacity="1" /><path clip-path="url(#clip920)" d="M756.836 1550.86 Q751.674 1550.86 749.683 1552.04 Q747.693 1553.22 747.693 1556.06 Q747.693 1558.33 749.174 1559.67 Q750.679 1560.99 753.248 1560.99 Q756.79 1560.99 758.92 1558.49 Q761.072 1555.97 761.072 1551.8 L761.072 1550.86 L756.836 1550.86 M765.332 1549.1 L765.332 1563.89 L761.072 1563.89 L761.072 1559.95 Q759.614 1562.31 757.438 1563.45 Q755.262 1564.56 752.114 1564.56 Q748.133 1564.56 745.771 1562.34 Q743.434 1560.09 743.434 1556.34 Q743.434 1551.97 746.35 1549.74 Q749.29 1547.52 755.1 1547.52 L761.072 1547.52 L761.072 1547.11 Q761.072 1544.17 759.128 1542.57 Q757.207 1540.95 753.711 1540.95 Q751.489 1540.95 749.383 1541.48 Q747.276 1542.01 745.332 1543.08 L745.332 1539.14 Q747.67 1538.24 749.869 1537.8 Q752.068 1537.34 754.151 1537.34 Q759.776 1537.34 762.554 1540.25 Q765.332 1543.17 765.332 1549.1 Z" fill="#000000" fill-rule="nonzero" fill-opacity="1" /><path clip-path="url(#clip920)" d="M773.665 1553.66 L773.665 1537.96 L777.924 1537.96 L777.924 1553.49 Q777.924 1557.17 779.359 1559.03 Q780.794 1560.86 783.665 1560.86 Q787.114 1560.86 789.105 1558.66 Q791.118 1556.46 791.118 1552.66 L791.118 1537.96 L795.378 1537.96 L795.378 1563.89 L791.118 1563.89 L791.118 1559.91 Q789.568 1562.27 787.507 1563.42 Q785.47 1564.56 782.762 1564.56 Q778.294 1564.56 775.98 1561.78 Q773.665 1559 773.665 1553.66 M784.382 1537.34 L784.382 1537.34 Z" fill="#000000" fill-rule="nonzero" fill-opacity="1" /><path clip-path="url(#clip920)" d="M808.364 1530.6 L808.364 1537.96 L817.137 1537.96 L817.137 1541.27 L808.364 1541.27 L808.364 1555.35 Q808.364 1558.52 809.22 1559.42 Q810.1 1560.32 812.762 1560.32 L817.137 1560.32 L817.137 1563.89 L812.762 1563.89 Q807.831 1563.89 805.956 1562.06 Q804.081 1560.21 804.081 1555.35 L804.081 1541.27 L800.956 1541.27 L800.956 1537.96 L804.081 1537.96 L804.081 1530.6 L808.364 1530.6 Z" fill="#000000" fill-rule="nonzero" fill-opacity="1" /><path clip-path="url(#clip920)" d="M832.785 1540.95 Q829.359 1540.95 827.368 1543.63 Q825.378 1546.3 825.378 1550.95 Q825.378 1555.6 827.345 1558.29 Q829.336 1560.95 832.785 1560.95 Q836.188 1560.95 838.178 1558.26 Q840.169 1555.58 840.169 1550.95 Q840.169 1546.34 838.178 1543.66 Q836.188 1540.95 832.785 1540.95 M832.785 1537.34 Q838.34 1537.34 841.512 1540.95 Q844.683 1544.56 844.683 1550.95 Q844.683 1557.31 841.512 1560.95 Q838.34 1564.56 832.785 1564.56 Q827.206 1564.56 824.035 1560.95 Q820.887 1557.31 820.887 1550.95 Q820.887 1544.56 824.035 1540.95 Q827.206 1537.34 832.785 1537.34 Z" fill="#000000" fill-rule="nonzero" fill-opacity="1" /><path clip-path="url(#clip920)" d="M851.512 1558.01 L856.396 1558.01 L856.396 1563.89 L851.512 1563.89 L851.512 1558.01 Z" fill="#000000" fill-rule="nonzero" fill-opacity="1" /><path clip-path="url(#clip920)" d="M898.109 1541.9 L898.109 1527.87 L902.368 1527.87 L902.368 1563.89 L898.109 1563.89 L898.109 1560 Q896.766 1562.31 894.706 1563.45 Q892.669 1564.56 889.798 1564.56 Q885.099 1564.56 882.136 1560.81 Q879.197 1557.06 879.197 1550.95 Q879.197 1544.84 882.136 1541.09 Q885.099 1537.34 889.798 1537.34 Q892.669 1537.34 894.706 1538.47 Q896.766 1539.58 898.109 1541.9 M883.595 1550.95 Q883.595 1555.65 885.516 1558.33 Q887.461 1560.99 890.84 1560.99 Q894.22 1560.99 896.164 1558.33 Q898.109 1555.65 898.109 1550.95 Q898.109 1546.25 896.164 1543.59 Q894.22 1540.9 890.84 1540.9 Q887.461 1540.9 885.516 1543.59 Q883.595 1546.25 883.595 1550.95 Z" fill="#000000" fill-rule="nonzero" fill-opacity="1" /><path clip-path="url(#clip920)" d="M911.141 1537.96 L915.4 1537.96 L915.4 1563.89 L911.141 1563.89 L911.141 1537.96 M911.141 1527.87 L915.4 1527.87 L915.4 1533.26 L911.141 1533.26 L911.141 1527.87 Z" fill="#000000" fill-rule="nonzero" fill-opacity="1" /><path clip-path="url(#clip920)" d="M937.437 1527.87 L937.437 1531.41 L933.363 1531.41 Q931.071 1531.41 930.169 1532.34 Q929.289 1533.26 929.289 1535.67 L929.289 1537.96 L936.303 1537.96 L936.303 1541.27 L929.289 1541.27 L929.289 1563.89 L925.007 1563.89 L925.007 1541.27 L920.933 1541.27 L920.933 1537.96 L925.007 1537.96 L925.007 1536.16 Q925.007 1531.83 927.02 1529.86 Q929.034 1527.87 933.409 1527.87 L937.437 1527.87 Z" fill="#000000" fill-rule="nonzero" fill-opacity="1" /><path clip-path="url(#clip920)" d="M954.127 1527.87 L954.127 1531.41 L950.053 1531.41 Q947.761 1531.41 946.858 1532.34 Q945.979 1533.26 945.979 1535.67 L945.979 1537.96 L952.993 1537.96 L952.993 1541.27 L945.979 1541.27 L945.979 1563.89 L941.696 1563.89 L941.696 1541.27 L937.622 1541.27 L937.622 1537.96 L941.696 1537.96 L941.696 1536.16 Q941.696 1531.83 943.71 1529.86 Q945.724 1527.87 950.099 1527.87 L954.127 1527.87 Z" fill="#000000" fill-rule="nonzero" fill-opacity="1" /><path clip-path="url(#clip920)" d="M954.844 1558.01 L959.729 1558.01 L959.729 1563.89 L954.844 1563.89 L954.844 1558.01 Z" fill="#000000" fill-rule="nonzero" fill-opacity="1" /><path clip-path="url(#clip920)" d="M968.641 1527.92 L972.344 1527.92 Q975.817 1533.38 977.529 1538.61 Q979.266 1543.84 979.266 1549 Q979.266 1554.19 977.529 1559.44 Q975.817 1564.7 972.344 1570.14 L968.641 1570.14 Q971.719 1564.84 973.224 1559.61 Q974.752 1554.35 974.752 1549 Q974.752 1543.66 973.224 1538.45 Q971.719 1533.24 968.641 1527.92 Z" fill="#000000" fill-rule="nonzero" fill-opacity="1" /><path clip-path="url(#clip920)" d="M1562.01 1530.46 L1562.01 1535.02 Q1559.35 1533.75 1556.99 1533.12 Q1554.63 1532.5 1552.43 1532.5 Q1548.61 1532.5 1546.52 1533.98 Q1544.46 1535.46 1544.46 1538.19 Q1544.46 1540.49 1545.83 1541.67 Q1547.22 1542.82 1551.06 1543.54 L1553.89 1544.12 Q1559.12 1545.11 1561.59 1547.64 Q1564.09 1550.14 1564.09 1554.35 Q1564.09 1559.37 1560.71 1561.97 Q1557.36 1564.56 1550.85 1564.56 Q1548.4 1564.56 1545.62 1564 Q1542.87 1563.45 1539.9 1562.36 L1539.9 1557.55 Q1542.75 1559.14 1545.48 1559.95 Q1548.21 1560.76 1550.85 1560.76 Q1554.86 1560.76 1557.03 1559.19 Q1559.21 1557.61 1559.21 1554.7 Q1559.21 1552.15 1557.64 1550.72 Q1556.08 1549.28 1552.52 1548.56 L1549.67 1548.01 Q1544.44 1546.97 1542.1 1544.74 Q1539.77 1542.52 1539.77 1538.56 Q1539.77 1533.98 1542.98 1531.34 Q1546.22 1528.7 1551.89 1528.7 Q1554.33 1528.7 1556.85 1529.14 Q1559.37 1529.58 1562.01 1530.46 Z" fill="#000000" fill-rule="nonzero" fill-opacity="1" /><path clip-path="url(#clip920)" d="M1581.99 1566.3 Q1580.18 1570.92 1578.47 1572.34 Q1576.76 1573.75 1573.89 1573.75 L1570.48 1573.75 L1570.48 1570.18 L1572.98 1570.18 Q1574.74 1570.18 1575.71 1569.35 Q1576.69 1568.52 1577.87 1565.42 L1578.63 1563.47 L1568.14 1537.96 L1572.66 1537.96 L1580.76 1558.24 L1588.86 1537.96 L1593.38 1537.96 L1581.99 1566.3 Z" fill="#000000" fill-rule="nonzero" fill-opacity="1" /><path clip-path="url(#clip920)" d="M1619.44 1542.94 Q1621.04 1540.07 1623.26 1538.7 Q1625.48 1537.34 1628.49 1537.34 Q1632.54 1537.34 1634.74 1540.18 Q1636.94 1543.01 1636.94 1548.24 L1636.94 1563.89 L1632.66 1563.89 L1632.66 1548.38 Q1632.66 1544.65 1631.34 1542.85 Q1630.02 1541.04 1627.31 1541.04 Q1624 1541.04 1622.08 1543.24 Q1620.16 1545.44 1620.16 1549.24 L1620.16 1563.89 L1615.88 1563.89 L1615.88 1548.38 Q1615.88 1544.63 1614.56 1542.85 Q1613.24 1541.04 1610.48 1541.04 Q1607.22 1541.04 1605.3 1543.26 Q1603.38 1545.46 1603.38 1549.24 L1603.38 1563.89 L1599.09 1563.89 L1599.09 1537.96 L1603.38 1537.96 L1603.38 1541.99 Q1604.83 1539.61 1606.87 1538.47 Q1608.91 1537.34 1611.71 1537.34 Q1614.53 1537.34 1616.5 1538.77 Q1618.49 1540.21 1619.44 1542.94 Z" fill="#000000" fill-rule="nonzero" fill-opacity="1" /><path clip-path="url(#clip920)" d="M1664.05 1550.95 Q1664.05 1546.25 1662.1 1543.59 Q1660.18 1540.9 1656.8 1540.9 Q1653.42 1540.9 1651.48 1543.59 Q1649.56 1546.25 1649.56 1550.95 Q1649.56 1555.65 1651.48 1558.33 Q1653.42 1560.99 1656.8 1560.99 Q1660.18 1560.99 1662.1 1558.33 Q1664.05 1555.65 1664.05 1550.95 M1649.56 1541.9 Q1650.9 1539.58 1652.94 1538.47 Q1655 1537.34 1657.84 1537.34 Q1662.57 1537.34 1665.51 1541.09 Q1668.47 1544.84 1668.47 1550.95 Q1668.47 1557.06 1665.51 1560.81 Q1662.57 1564.56 1657.84 1564.56 Q1655 1564.56 1652.94 1563.45 Q1650.9 1562.31 1649.56 1560 L1649.56 1563.89 L1645.27 1563.89 L1645.27 1527.87 L1649.56 1527.87 L1649.56 1541.9 Z" fill="#000000" fill-rule="nonzero" fill-opacity="1" /><path clip-path="url(#clip920)" d="M1685.57 1540.95 Q1682.15 1540.95 1680.16 1543.63 Q1678.17 1546.3 1678.17 1550.95 Q1678.17 1555.6 1680.13 1558.29 Q1682.13 1560.95 1685.57 1560.95 Q1688.98 1560.95 1690.97 1558.26 Q1692.96 1555.58 1692.96 1550.95 Q1692.96 1546.34 1690.97 1543.66 Q1688.98 1540.95 1685.57 1540.95 M1685.57 1537.34 Q1691.13 1537.34 1694.3 1540.95 Q1697.47 1544.56 1697.47 1550.95 Q1697.47 1557.31 1694.3 1560.95 Q1691.13 1564.56 1685.57 1564.56 Q1680 1564.56 1676.82 1560.95 Q1673.68 1557.31 1673.68 1550.95 Q1673.68 1544.56 1676.82 1540.95 Q1680 1537.34 1685.57 1537.34 Z" fill="#000000" fill-rule="nonzero" fill-opacity="1" /><path clip-path="url(#clip920)" d="M1704.53 1527.87 L1708.79 1527.87 L1708.79 1563.89 L1704.53 1563.89 L1704.53 1527.87 Z" fill="#000000" fill-rule="nonzero" fill-opacity="1" /><path clip-path="url(#clip920)" d="M1717.7 1537.96 L1721.96 1537.96 L1721.96 1563.89 L1717.7 1563.89 L1717.7 1537.96 M1717.7 1527.87 L1721.96 1527.87 L1721.96 1533.26 L1717.7 1533.26 L1717.7 1527.87 Z" fill="#000000" fill-rule="nonzero" fill-opacity="1" /><path clip-path="url(#clip920)" d="M1749.53 1538.96 L1749.53 1542.94 Q1747.73 1541.94 1745.9 1541.46 Q1744.09 1540.95 1742.24 1540.95 Q1738.1 1540.95 1735.81 1543.59 Q1733.51 1546.2 1733.51 1550.95 Q1733.51 1555.69 1735.81 1558.33 Q1738.1 1560.95 1742.24 1560.95 Q1744.09 1560.95 1745.9 1560.46 Q1747.73 1559.95 1749.53 1558.96 L1749.53 1562.89 Q1747.75 1563.73 1745.83 1564.14 Q1743.93 1564.56 1741.78 1564.56 Q1735.92 1564.56 1732.47 1560.88 Q1729.02 1557.2 1729.02 1550.95 Q1729.02 1544.61 1732.5 1540.97 Q1735.99 1537.34 1742.06 1537.34 Q1744.02 1537.34 1745.9 1537.75 Q1747.77 1538.15 1749.53 1538.96 Z" fill="#000000" fill-rule="nonzero" fill-opacity="1" /><path clip-path="url(#clip920)" d="M1782.24 1527.92 Q1779.14 1533.24 1777.63 1538.45 Q1776.13 1543.66 1776.13 1549 Q1776.13 1554.35 1777.63 1559.61 Q1779.16 1564.84 1782.24 1570.14 L1778.54 1570.14 Q1775.07 1564.7 1773.33 1559.44 Q1771.62 1554.19 1771.62 1549 Q1771.62 1543.84 1773.33 1538.61 Q1775.04 1533.38 1778.54 1527.92 L1782.24 1527.92 Z" fill="#000000" fill-rule="nonzero" fill-opacity="1" /><path clip-path="url(#clip920)" d="M1803.63 1527.87 L1803.63 1531.41 L1799.56 1531.41 Q1797.26 1531.41 1796.36 1532.34 Q1795.48 1533.26 1795.48 1535.67 L1795.48 1537.96 L1802.5 1537.96 L1802.5 1541.27 L1795.48 1541.27 L1795.48 1563.89 L1791.2 1563.89 L1791.2 1541.27 L1787.13 1541.27 L1787.13 1537.96 L1791.2 1537.96 L1791.2 1536.16 Q1791.2 1531.83 1793.21 1529.86 Q1795.23 1527.87 1799.6 1527.87 L1803.63 1527.87 Z" fill="#000000" fill-rule="nonzero" fill-opacity="1" /><path clip-path="url(#clip920)" d="M1807.19 1537.96 L1811.45 1537.96 L1811.45 1563.89 L1807.19 1563.89 L1807.19 1537.96 M1807.19 1527.87 L1811.45 1527.87 L1811.45 1533.26 L1807.19 1533.26 L1807.19 1527.87 Z" fill="#000000" fill-rule="nonzero" fill-opacity="1" /><path clip-path="url(#clip920)" d="M1841.92 1548.24 L1841.92 1563.89 L1837.66 1563.89 L1837.66 1548.38 Q1837.66 1544.7 1836.22 1542.87 Q1834.79 1541.04 1831.92 1541.04 Q1828.47 1541.04 1826.48 1543.24 Q1824.49 1545.44 1824.49 1549.24 L1824.49 1563.89 L1820.2 1563.89 L1820.2 1537.96 L1824.49 1537.96 L1824.49 1541.99 Q1826.01 1539.65 1828.07 1538.49 Q1830.16 1537.34 1832.87 1537.34 Q1837.33 1537.34 1839.62 1540.11 Q1841.92 1542.87 1841.92 1548.24 Z" fill="#000000" fill-rule="nonzero" fill-opacity="1" /><path clip-path="url(#clip920)" d="M1851.01 1558.01 L1855.9 1558.01 L1855.9 1563.89 L1851.01 1563.89 L1851.01 1558.01 Z" fill="#000000" fill-rule="nonzero" fill-opacity="1" /><path clip-path="url(#clip920)" d="M1897.61 1541.9 L1897.61 1527.87 L1901.87 1527.87 L1901.87 1563.89 L1897.61 1563.89 L1897.61 1560 Q1896.27 1562.31 1894.21 1563.45 Q1892.17 1564.56 1889.3 1564.56 Q1884.6 1564.56 1881.64 1560.81 Q1878.7 1557.06 1878.7 1550.95 Q1878.7 1544.84 1881.64 1541.09 Q1884.6 1537.34 1889.3 1537.34 Q1892.17 1537.34 1894.21 1538.47 Q1896.27 1539.58 1897.61 1541.9 M1883.1 1550.95 Q1883.1 1555.65 1885.02 1558.33 Q1886.96 1560.99 1890.34 1560.99 Q1893.72 1560.99 1895.67 1558.33 Q1897.61 1555.65 1897.61 1550.95 Q1897.61 1546.25 1895.67 1543.59 Q1893.72 1540.9 1890.34 1540.9 Q1886.96 1540.9 1885.02 1543.59 Q1883.1 1546.25 1883.1 1550.95 Z" fill="#000000" fill-rule="nonzero" fill-opacity="1" /><path clip-path="url(#clip920)" d="M1910.64 1537.96 L1914.9 1537.96 L1914.9 1563.89 L1910.64 1563.89 L1910.64 1537.96 M1910.64 1527.87 L1914.9 1527.87 L1914.9 1533.26 L1910.64 1533.26 L1910.64 1527.87 Z" fill="#000000" fill-rule="nonzero" fill-opacity="1" /><path clip-path="url(#clip920)" d="M1936.94 1527.87 L1936.94 1531.41 L1932.87 1531.41 Q1930.57 1531.41 1929.67 1532.34 Q1928.79 1533.26 1928.79 1535.67 L1928.79 1537.96 L1935.8 1537.96 L1935.8 1541.27 L1928.79 1541.27 L1928.79 1563.89 L1924.51 1563.89 L1924.51 1541.27 L1920.43 1541.27 L1920.43 1537.96 L1924.51 1537.96 L1924.51 1536.16 Q1924.51 1531.83 1926.52 1529.86 Q1928.54 1527.87 1932.91 1527.87 L1936.94 1527.87 Z" fill="#000000" fill-rule="nonzero" fill-opacity="1" /><path clip-path="url(#clip920)" d="M1953.63 1527.87 L1953.63 1531.41 L1949.55 1531.41 Q1947.26 1531.41 1946.36 1532.34 Q1945.48 1533.26 1945.48 1535.67 L1945.48 1537.96 L1952.49 1537.96 L1952.49 1541.27 L1945.48 1541.27 L1945.48 1563.89 L1941.2 1563.89 L1941.2 1541.27 L1937.12 1541.27 L1937.12 1537.96 L1941.2 1537.96 L1941.2 1536.16 Q1941.2 1531.83 1943.21 1529.86 Q1945.23 1527.87 1949.6 1527.87 L1953.63 1527.87 Z" fill="#000000" fill-rule="nonzero" fill-opacity="1" /><path clip-path="url(#clip920)" d="M1954.35 1558.01 L1959.23 1558.01 L1959.23 1563.89 L1954.35 1563.89 L1954.35 1558.01 Z" fill="#000000" fill-rule="nonzero" fill-opacity="1" /><path clip-path="url(#clip920)" d="M1968.14 1527.92 L1971.85 1527.92 Q1975.32 1533.38 1977.03 1538.61 Q1978.77 1543.84 1978.77 1549 Q1978.77 1554.19 1977.03 1559.44 Q1975.32 1564.7 1971.85 1570.14 L1968.14 1570.14 Q1971.22 1564.84 1972.73 1559.61 Q1974.25 1554.35 1974.25 1549 Q1974.25 1543.66 1972.73 1538.45 Q1971.22 1533.24 1968.14 1527.92 Z" fill="#000000" fill-rule="nonzero" fill-opacity="1" /><path clip-path="url(#clip920)" d="M2527.05 1529.33 L2533.34 1529.33 L2548.67 1558.24 L2548.67 1529.33 L2553.2 1529.33 L2553.2 1563.89 L2546.91 1563.89 L2531.58 1534.98 L2531.58 1563.89 L2527.05 1563.89 L2527.05 1529.33 Z" fill="#000000" fill-rule="nonzero" fill-opacity="1" /><path clip-path="url(#clip920)" d="M2561.88 1553.66 L2561.88 1537.96 L2566.14 1537.96 L2566.14 1553.49 Q2566.14 1557.17 2567.58 1559.03 Q2569.01 1560.86 2571.88 1560.86 Q2575.33 1560.86 2577.32 1558.66 Q2579.34 1556.46 2579.34 1552.66 L2579.34 1537.96 L2583.6 1537.96 L2583.6 1563.89 L2579.34 1563.89 L2579.34 1559.91 Q2577.79 1562.27 2575.73 1563.42 Q2573.69 1564.56 2570.98 1564.56 Q2566.51 1564.56 2564.2 1561.78 Q2561.88 1559 2561.88 1553.66 M2572.6 1537.34 L2572.6 1537.34 Z" fill="#000000" fill-rule="nonzero" fill-opacity="1" /><path clip-path="url(#clip920)" d="M2612.55 1542.94 Q2614.15 1540.07 2616.37 1538.7 Q2618.6 1537.34 2621.6 1537.34 Q2625.66 1537.34 2627.85 1540.18 Q2630.05 1543.01 2630.05 1548.24 L2630.05 1563.89 L2625.77 1563.89 L2625.77 1548.38 Q2625.77 1544.65 2624.45 1542.85 Q2623.13 1541.04 2620.42 1541.04 Q2617.11 1541.04 2615.19 1543.24 Q2613.27 1545.44 2613.27 1549.24 L2613.27 1563.89 L2608.99 1563.89 L2608.99 1548.38 Q2608.99 1544.63 2607.67 1542.85 Q2606.35 1541.04 2603.6 1541.04 Q2600.33 1541.04 2598.41 1543.26 Q2596.49 1545.46 2596.49 1549.24 L2596.49 1563.89 L2592.21 1563.89 L2592.21 1537.96 L2596.49 1537.96 L2596.49 1541.99 Q2597.95 1539.61 2599.98 1538.47 Q2602.02 1537.34 2604.82 1537.34 Q2607.65 1537.34 2609.61 1538.77 Q2611.61 1540.21 2612.55 1542.94 Z" fill="#000000" fill-rule="nonzero" fill-opacity="1" /><path clip-path="url(#clip920)" d="M2660.73 1549.86 L2660.73 1551.94 L2641.14 1551.94 Q2641.42 1556.34 2643.78 1558.66 Q2646.17 1560.95 2650.4 1560.95 Q2652.85 1560.95 2655.15 1560.35 Q2657.46 1559.74 2659.73 1558.54 L2659.73 1562.57 Q2657.44 1563.54 2655.03 1564.05 Q2652.62 1564.56 2650.15 1564.56 Q2643.94 1564.56 2640.31 1560.95 Q2636.7 1557.34 2636.7 1551.18 Q2636.7 1544.81 2640.12 1541.09 Q2643.57 1537.34 2649.41 1537.34 Q2654.64 1537.34 2657.67 1540.72 Q2660.73 1544.07 2660.73 1549.86 M2656.47 1548.61 Q2656.42 1545.11 2654.5 1543.03 Q2652.6 1540.95 2649.45 1540.95 Q2645.89 1540.95 2643.73 1542.96 Q2641.6 1544.98 2641.28 1548.63 L2656.47 1548.61 Z" fill="#000000" fill-rule="nonzero" fill-opacity="1" /><path clip-path="url(#clip920)" d="M2682.74 1541.94 Q2682.02 1541.53 2681.16 1541.34 Q2680.33 1541.13 2679.31 1541.13 Q2675.7 1541.13 2673.76 1543.49 Q2671.84 1545.83 2671.84 1550.23 L2671.84 1563.89 L2667.55 1563.89 L2667.55 1537.96 L2671.84 1537.96 L2671.84 1541.99 Q2673.18 1539.63 2675.33 1538.49 Q2677.48 1537.34 2680.56 1537.34 Q2681 1537.34 2681.54 1537.41 Q2682.07 1537.45 2682.72 1537.57 L2682.74 1541.94 Z" fill="#000000" fill-rule="nonzero" fill-opacity="1" /><path clip-path="url(#clip920)" d="M2687.21 1537.96 L2691.47 1537.96 L2691.47 1563.89 L2687.21 1563.89 L2687.21 1537.96 M2687.21 1527.87 L2691.47 1527.87 L2691.47 1533.26 L2687.21 1533.26 L2687.21 1527.87 Z" fill="#000000" fill-rule="nonzero" fill-opacity="1" /><path clip-path="url(#clip920)" d="M2719.04 1538.96 L2719.04 1542.94 Q2717.23 1541.94 2715.4 1541.46 Q2713.6 1540.95 2711.74 1540.95 Q2707.6 1540.95 2705.31 1543.59 Q2703.02 1546.2 2703.02 1550.95 Q2703.02 1555.69 2705.31 1558.33 Q2707.6 1560.95 2711.74 1560.95 Q2713.6 1560.95 2715.4 1560.46 Q2717.23 1559.95 2719.04 1558.96 L2719.04 1562.89 Q2717.25 1563.73 2715.33 1564.14 Q2713.43 1564.56 2711.28 1564.56 Q2705.42 1564.56 2701.97 1560.88 Q2698.53 1557.2 2698.53 1550.95 Q2698.53 1544.61 2702 1540.97 Q2705.49 1537.34 2711.56 1537.34 Q2713.53 1537.34 2715.4 1537.75 Q2717.28 1538.15 2719.04 1538.96 Z" fill="#000000" fill-rule="nonzero" fill-opacity="1" /><path clip-path="url(#clip920)" d="M2738.22 1550.86 Q2733.06 1550.86 2731.07 1552.04 Q2729.08 1553.22 2729.08 1556.06 Q2729.08 1558.33 2730.56 1559.67 Q2732.07 1560.99 2734.64 1560.99 Q2738.18 1560.99 2740.31 1558.49 Q2742.46 1555.97 2742.46 1551.8 L2742.46 1550.86 L2738.22 1550.86 M2746.72 1549.1 L2746.72 1563.89 L2742.46 1563.89 L2742.46 1559.95 Q2741 1562.31 2738.83 1563.45 Q2736.65 1564.56 2733.5 1564.56 Q2729.52 1564.56 2727.16 1562.34 Q2724.82 1560.09 2724.82 1556.34 Q2724.82 1551.97 2727.74 1549.74 Q2730.68 1547.52 2736.49 1547.52 L2742.46 1547.52 L2742.46 1547.11 Q2742.46 1544.17 2740.52 1542.57 Q2738.6 1540.95 2735.1 1540.95 Q2732.88 1540.95 2730.77 1541.48 Q2728.66 1542.01 2726.72 1543.08 L2726.72 1539.14 Q2729.06 1538.24 2731.26 1537.8 Q2733.46 1537.34 2735.54 1537.34 Q2741.16 1537.34 2743.94 1540.25 Q2746.72 1543.17 2746.72 1549.1 Z" fill="#000000" fill-rule="nonzero" fill-opacity="1" /><path clip-path="url(#clip920)" d="M2755.49 1527.87 L2759.75 1527.87 L2759.75 1563.89 L2755.49 1563.89 L2755.49 1527.87 Z" fill="#000000" fill-rule="nonzero" fill-opacity="1" /><path clip-path="url(#clip920)" d="M2793.97 1527.92 Q2790.86 1533.24 2789.36 1538.45 Q2787.85 1543.66 2787.85 1549 Q2787.85 1554.35 2789.36 1559.61 Q2790.89 1564.84 2793.97 1570.14 L2790.26 1570.14 Q2786.79 1564.7 2785.05 1559.44 Q2783.34 1554.19 2783.34 1549 Q2783.34 1543.84 2785.05 1538.61 Q2786.77 1533.38 2790.26 1527.92 L2793.97 1527.92 Z" fill="#000000" fill-rule="nonzero" fill-opacity="1" /><path clip-path="url(#clip920)" d="M2814.01 1550.86 Q2808.85 1550.86 2806.86 1552.04 Q2804.87 1553.22 2804.87 1556.06 Q2804.87 1558.33 2806.35 1559.67 Q2807.85 1560.99 2810.42 1560.99 Q2813.97 1560.99 2816.09 1558.49 Q2818.25 1555.97 2818.25 1551.8 L2818.25 1550.86 L2814.01 1550.86 M2822.51 1549.1 L2822.51 1563.89 L2818.25 1563.89 L2818.25 1559.95 Q2816.79 1562.31 2814.61 1563.45 Q2812.44 1564.56 2809.29 1564.56 Q2805.31 1564.56 2802.95 1562.34 Q2800.61 1560.09 2800.61 1556.34 Q2800.61 1551.97 2803.53 1549.74 Q2806.47 1547.52 2812.28 1547.52 L2818.25 1547.52 L2818.25 1547.11 Q2818.25 1544.17 2816.3 1542.57 Q2814.38 1540.95 2810.89 1540.95 Q2808.66 1540.95 2806.56 1541.48 Q2804.45 1542.01 2802.51 1543.08 L2802.51 1539.14 Q2804.84 1538.24 2807.04 1537.8 Q2809.24 1537.34 2811.33 1537.34 Q2816.95 1537.34 2819.73 1540.25 Q2822.51 1543.17 2822.51 1549.1 Z" fill="#000000" fill-rule="nonzero" fill-opacity="1" /><path clip-path="url(#clip920)" d="M2830.84 1553.66 L2830.84 1537.96 L2835.1 1537.96 L2835.1 1553.49 Q2835.1 1557.17 2836.53 1559.03 Q2837.97 1560.86 2840.84 1560.86 Q2844.29 1560.86 2846.28 1558.66 Q2848.29 1556.46 2848.29 1552.66 L2848.29 1537.96 L2852.55 1537.96 L2852.55 1563.89 L2848.29 1563.89 L2848.29 1559.91 Q2846.74 1562.27 2844.68 1563.42 Q2842.65 1564.56 2839.94 1564.56 Q2835.47 1564.56 2833.15 1561.78 Q2830.84 1559 2830.84 1553.66 M2841.56 1537.34 L2841.56 1537.34 Z" fill="#000000" fill-rule="nonzero" fill-opacity="1" /><path clip-path="url(#clip920)" d="M2865.54 1530.6 L2865.54 1537.96 L2874.31 1537.96 L2874.31 1541.27 L2865.54 1541.27 L2865.54 1555.35 Q2865.54 1558.52 2866.4 1559.42 Q2867.27 1560.32 2869.94 1560.32 L2874.31 1560.32 L2874.31 1563.89 L2869.94 1563.89 Q2865.01 1563.89 2863.13 1562.06 Q2861.26 1560.21 2861.26 1555.35 L2861.26 1541.27 L2858.13 1541.27 L2858.13 1537.96 L2861.26 1537.96 L2861.26 1530.6 L2865.54 1530.6 Z" fill="#000000" fill-rule="nonzero" fill-opacity="1" /><path clip-path="url(#clip920)" d="M2889.96 1540.95 Q2886.53 1540.95 2884.54 1543.63 Q2882.55 1546.3 2882.55 1550.95 Q2882.55 1555.6 2884.52 1558.29 Q2886.51 1560.95 2889.96 1560.95 Q2893.36 1560.95 2895.35 1558.26 Q2897.34 1555.58 2897.34 1550.95 Q2897.34 1546.34 2895.35 1543.66 Q2893.36 1540.95 2889.96 1540.95 M2889.96 1537.34 Q2895.52 1537.34 2898.69 1540.95 Q2901.86 1544.56 2901.86 1550.95 Q2901.86 1557.31 2898.69 1560.95 Q2895.52 1564.56 2889.96 1564.56 Q2884.38 1564.56 2881.21 1560.95 Q2878.06 1557.31 2878.06 1550.95 Q2878.06 1544.56 2881.21 1540.95 Q2884.38 1537.34 2889.96 1537.34 Z" fill="#000000" fill-rule="nonzero" fill-opacity="1" /><path clip-path="url(#clip920)" d="M2908.69 1558.01 L2913.57 1558.01 L2913.57 1563.89 L2908.69 1563.89 L2908.69 1558.01 Z" fill="#000000" fill-rule="nonzero" fill-opacity="1" /><path clip-path="url(#clip920)" d="M2955.28 1541.9 L2955.28 1527.87 L2959.54 1527.87 L2959.54 1563.89 L2955.28 1563.89 L2955.28 1560 Q2953.94 1562.31 2951.88 1563.45 Q2949.84 1564.56 2946.97 1564.56 Q2942.27 1564.56 2939.31 1560.81 Q2936.37 1557.06 2936.37 1550.95 Q2936.37 1544.84 2939.31 1541.09 Q2942.27 1537.34 2946.97 1537.34 Q2949.84 1537.34 2951.88 1538.47 Q2953.94 1539.58 2955.28 1541.9 M2940.77 1550.95 Q2940.77 1555.65 2942.69 1558.33 Q2944.64 1560.99 2948.02 1560.99 Q2951.39 1560.99 2953.34 1558.33 Q2955.28 1555.65 2955.28 1550.95 Q2955.28 1546.25 2953.34 1543.59 Q2951.39 1540.9 2948.02 1540.9 Q2944.64 1540.9 2942.69 1543.59 Q2940.77 1546.25 2940.77 1550.95 Z" fill="#000000" fill-rule="nonzero" fill-opacity="1" /><path clip-path="url(#clip920)" d="M2968.32 1537.96 L2972.58 1537.96 L2972.58 1563.89 L2968.32 1563.89 L2968.32 1537.96 M2968.32 1527.87 L2972.58 1527.87 L2972.58 1533.26 L2968.32 1533.26 L2968.32 1527.87 Z" fill="#000000" fill-rule="nonzero" fill-opacity="1" /><path clip-path="url(#clip920)" d="M2994.61 1527.87 L2994.61 1531.41 L2990.54 1531.41 Q2988.25 1531.41 2987.34 1532.34 Q2986.46 1533.26 2986.46 1535.67 L2986.46 1537.96 L2993.48 1537.96 L2993.48 1541.27 L2986.46 1541.27 L2986.46 1563.89 L2982.18 1563.89 L2982.18 1541.27 L2978.11 1541.27 L2978.11 1537.96 L2982.18 1537.96 L2982.18 1536.16 Q2982.18 1531.83 2984.2 1529.86 Q2986.21 1527.87 2990.58 1527.87 L2994.61 1527.87 Z" fill="#000000" fill-rule="nonzero" fill-opacity="1" /><path clip-path="url(#clip920)" d="M3011.3 1527.87 L3011.3 1531.41 L3007.23 1531.41 Q3004.94 1531.41 3004.03 1532.34 Q3003.15 1533.26 3003.15 1535.67 L3003.15 1537.96 L3010.17 1537.96 L3010.17 1541.27 L3003.15 1541.27 L3003.15 1563.89 L2998.87 1563.89 L2998.87 1541.27 L2994.8 1541.27 L2994.8 1537.96 L2998.87 1537.96 L2998.87 1536.16 Q2998.87 1531.83 3000.89 1529.86 Q3002.9 1527.87 3007.27 1527.87 L3011.3 1527.87 Z" fill="#000000" fill-rule="nonzero" fill-opacity="1" /><path clip-path="url(#clip920)" d="M3012.02 1558.01 L3016.9 1558.01 L3016.9 1563.89 L3012.02 1563.89 L3012.02 1558.01 Z" fill="#000000" fill-rule="nonzero" fill-opacity="1" /><path clip-path="url(#clip920)" d="M3025.82 1527.92 L3029.52 1527.92 Q3032.99 1533.38 3034.7 1538.61 Q3036.44 1543.84 3036.44 1549 Q3036.44 1554.19 3034.7 1559.44 Q3032.99 1564.7 3029.52 1570.14 L3025.82 1570.14 Q3028.89 1564.84 3030.4 1559.61 Q3031.93 1554.35 3031.93 1549 Q3031.93 1543.66 3030.4 1538.45 Q3028.89 1533.24 3025.82 1527.92 Z" fill="#000000" fill-rule="nonzero" fill-opacity="1" /><polyline clip-path="url(#clip920)" style="stroke:#000000; stroke-linecap:round; stroke-linejoin:round; stroke-width:4; stroke-opacity:1; fill:none" points="365.777,1495.09 365.777,47.2441 "/>
<polyline clip-path="url(#clip920)" style="stroke:#000000; stroke-linecap:round; stroke-linejoin:round; stroke-width:4; stroke-opacity:1; fill:none" points="365.777,1270.09 384.675,1270.09 "/>
<polyline clip-path="url(#clip920)" style="stroke:#000000; stroke-linecap:round; stroke-linejoin:round; stroke-width:4; stroke-opacity:1; fill:none" points="365.777,1001.09 384.675,1001.09 "/>
<polyline clip-path="url(#clip920)" style="stroke:#000000; stroke-linecap:round; stroke-linejoin:round; stroke-width:4; stroke-opacity:1; fill:none" points="365.777,732.095 384.675,732.095 "/>
<polyline clip-path="url(#clip920)" style="stroke:#000000; stroke-linecap:round; stroke-linejoin:round; stroke-width:4; stroke-opacity:1; fill:none" points="365.777,463.097 384.675,463.097 "/>
<polyline clip-path="url(#clip920)" style="stroke:#000000; stroke-linecap:round; stroke-linejoin:round; stroke-width:4; stroke-opacity:1; fill:none" points="365.777,194.099 384.675,194.099 "/>
<path clip-path="url(#clip920)" d="M113.982 1263.33 L102.176 1281.78 L113.982 1281.78 L113.982 1263.33 M112.755 1259.26 L118.635 1259.26 L118.635 1281.78 L123.565 1281.78 L123.565 1285.67 L118.635 1285.67 L118.635 1293.82 L113.982 1293.82 L113.982 1285.67 L98.3802 1285.67 L98.3802 1281.16 L112.755 1259.26 Z" fill="#000000" fill-rule="nonzero" fill-opacity="1" /><path clip-path="url(#clip920)" d="M131.297 1287.94 L136.181 1287.94 L136.181 1293.82 L131.297 1293.82 L131.297 1287.94 Z" fill="#000000" fill-rule="nonzero" fill-opacity="1" /><path clip-path="url(#clip920)" d="M159.213 1263.33 L147.408 1281.78 L159.213 1281.78 L159.213 1263.33 M157.986 1259.26 L163.866 1259.26 L163.866 1281.78 L168.796 1281.78 L168.796 1285.67 L163.866 1285.67 L163.866 1293.82 L159.213 1293.82 L159.213 1285.67 L143.611 1285.67 L143.611 1281.16 L157.986 1259.26 Z" fill="#000000" fill-rule="nonzero" fill-opacity="1" /><path clip-path="url(#clip920)" d="M186.528 1262.34 Q182.917 1262.34 181.088 1265.9 Q179.283 1269.44 179.283 1276.57 Q179.283 1283.68 181.088 1287.24 Q182.917 1290.79 186.528 1290.79 Q190.162 1290.79 191.968 1287.24 Q193.796 1283.68 193.796 1276.57 Q193.796 1269.44 191.968 1265.9 Q190.162 1262.34 186.528 1262.34 M186.528 1258.63 Q192.338 1258.63 195.394 1263.24 Q198.472 1267.82 198.472 1276.57 Q198.472 1285.3 195.394 1289.91 Q192.338 1294.49 186.528 1294.49 Q180.718 1294.49 177.639 1289.91 Q174.583 1285.3 174.583 1276.57 Q174.583 1267.82 177.639 1263.24 Q180.718 1258.63 186.528 1258.63 Z" fill="#000000" fill-rule="nonzero" fill-opacity="1" /><path clip-path="url(#clip920)" d="M234.861 1268.36 L224.282 1278.98 L234.861 1289.56 L232.106 1292.36 L221.481 1281.74 L210.856 1292.36 L208.125 1289.56 L218.68 1278.98 L208.125 1268.36 L210.856 1265.55 L221.481 1276.18 L232.106 1265.55 L234.861 1268.36 Z" fill="#000000" fill-rule="nonzero" fill-opacity="1" /><path clip-path="url(#clip920)" d="M247.222 1289.88 L254.861 1289.88 L254.861 1263.52 L246.551 1265.18 L246.551 1260.93 L254.815 1259.26 L259.49 1259.26 L259.49 1289.88 L267.129 1289.88 L267.129 1293.82 L247.222 1293.82 L247.222 1289.88 Z" fill="#000000" fill-rule="nonzero" fill-opacity="1" /><path clip-path="url(#clip920)" d="M286.574 1262.34 Q282.963 1262.34 281.134 1265.9 Q279.328 1269.44 279.328 1276.57 Q279.328 1283.68 281.134 1287.24 Q282.963 1290.79 286.574 1290.79 Q290.208 1290.79 292.013 1287.24 Q293.842 1283.68 293.842 1276.57 Q293.842 1269.44 292.013 1265.9 Q290.208 1262.34 286.574 1262.34 M286.574 1258.63 Q292.384 1258.63 295.439 1263.24 Q298.518 1267.82 298.518 1276.57 Q298.518 1285.3 295.439 1289.91 Q292.384 1294.49 286.574 1294.49 Q280.763 1294.49 277.685 1289.91 Q274.629 1285.3 274.629 1276.57 Q274.629 1267.82 277.685 1263.24 Q280.763 1258.63 286.574 1258.63 Z" fill="#000000" fill-rule="nonzero" fill-opacity="1" /><path clip-path="url(#clip920)" d="M308.148 1253.07 Q305.439 1253.07 303.878 1254.52 Q302.336 1255.97 302.336 1258.51 Q302.336 1261.05 303.878 1262.5 Q305.439 1263.94 308.148 1263.94 Q310.856 1263.94 312.417 1262.5 Q313.978 1261.03 313.978 1258.51 Q313.978 1255.97 312.417 1254.52 Q310.875 1253.07 308.148 1253.07 M304.348 1251.46 Q301.903 1250.85 300.53 1249.18 Q299.176 1247.51 299.176 1245.1 Q299.176 1241.73 301.565 1239.78 Q303.972 1237.82 308.148 1237.82 Q312.342 1237.82 314.73 1239.78 Q317.119 1241.73 317.119 1245.1 Q317.119 1247.51 315.746 1249.18 Q314.392 1250.85 311.966 1251.46 Q314.711 1252.1 316.235 1253.96 Q317.777 1255.82 317.777 1258.51 Q317.777 1262.59 315.276 1264.77 Q312.793 1266.95 308.148 1266.95 Q303.502 1266.95 301.001 1264.77 Q298.518 1262.59 298.518 1258.51 Q298.518 1255.82 300.06 1253.96 Q301.602 1252.1 304.348 1251.46 M302.957 1245.46 Q302.957 1247.64 304.311 1248.86 Q305.684 1250.08 308.148 1250.08 Q310.593 1250.08 311.966 1248.86 Q313.357 1247.64 313.357 1245.46 Q313.357 1243.27 311.966 1242.05 Q310.593 1240.83 308.148 1240.83 Q305.684 1240.83 304.311 1242.05 Q302.957 1243.27 302.957 1245.46 Z" fill="#000000" fill-rule="nonzero" fill-opacity="1" /><path clip-path="url(#clip920)" d="M113.982 994.335 L102.176 1012.78 L113.982 1012.78 L113.982 994.335 M112.755 990.261 L118.635 990.261 L118.635 1012.78 L123.565 1012.78 L123.565 1016.67 L118.635 1016.67 L118.635 1024.82 L113.982 1024.82 L113.982 1016.67 L98.3802 1016.67 L98.3802 1012.16 L112.755 990.261 Z" fill="#000000" fill-rule="nonzero" fill-opacity="1" /><path clip-path="url(#clip920)" d="M131.297 1018.94 L136.181 1018.94 L136.181 1024.82 L131.297 1024.82 L131.297 1018.94 Z" fill="#000000" fill-rule="nonzero" fill-opacity="1" /><path clip-path="url(#clip920)" d="M146.412 990.261 L164.769 990.261 L164.769 994.196 L150.695 994.196 L150.695 1002.67 Q151.713 1002.32 152.732 1002.16 Q153.75 1001.97 154.769 1001.97 Q160.556 1001.97 163.935 1005.14 Q167.315 1008.32 167.315 1013.73 Q167.315 1019.31 163.843 1022.41 Q160.371 1025.49 154.051 1025.49 Q151.875 1025.49 149.607 1025.12 Q147.361 1024.75 144.954 1024.01 L144.954 1019.31 Q147.037 1020.45 149.26 1021 Q151.482 1021.56 153.959 1021.56 Q157.963 1021.56 160.301 1019.45 Q162.639 1017.34 162.639 1013.73 Q162.639 1010.12 160.301 1008.02 Q157.963 1005.91 153.959 1005.91 Q152.084 1005.91 150.209 1006.33 Q148.357 1006.74 146.412 1007.62 L146.412 990.261 Z" fill="#000000" fill-rule="nonzero" fill-opacity="1" /><path clip-path="url(#clip920)" d="M186.528 993.339 Q182.917 993.339 181.088 996.904 Q179.283 1000.45 179.283 1007.58 Q179.283 1014.68 181.088 1018.25 Q182.917 1021.79 186.528 1021.79 Q190.162 1021.79 191.968 1018.25 Q193.796 1014.68 193.796 1007.58 Q193.796 1000.45 191.968 996.904 Q190.162 993.339 186.528 993.339 M186.528 989.636 Q192.338 989.636 195.394 994.242 Q198.472 998.825 198.472 1007.58 Q198.472 1016.3 195.394 1020.91 Q192.338 1025.49 186.528 1025.49 Q180.718 1025.49 177.639 1020.91 Q174.583 1016.3 174.583 1007.58 Q174.583 998.825 177.639 994.242 Q180.718 989.636 186.528 989.636 Z" fill="#000000" fill-rule="nonzero" fill-opacity="1" /><path clip-path="url(#clip920)" d="M234.861 999.358 L224.282 1009.98 L234.861 1020.56 L232.106 1023.36 L221.481 1012.74 L210.856 1023.36 L208.125 1020.56 L218.68 1009.98 L208.125 999.358 L210.856 996.557 L221.481 1007.18 L232.106 996.557 L234.861 999.358 Z" fill="#000000" fill-rule="nonzero" fill-opacity="1" /><path clip-path="url(#clip920)" d="M247.222 1020.89 L254.861 1020.89 L254.861 994.52 L246.551 996.186 L246.551 991.927 L254.815 990.261 L259.49 990.261 L259.49 1020.89 L267.129 1020.89 L267.129 1024.82 L247.222 1024.82 L247.222 1020.89 Z" fill="#000000" fill-rule="nonzero" fill-opacity="1" /><path clip-path="url(#clip920)" d="M286.574 993.339 Q282.963 993.339 281.134 996.904 Q279.328 1000.45 279.328 1007.58 Q279.328 1014.68 281.134 1018.25 Q282.963 1021.79 286.574 1021.79 Q290.208 1021.79 292.013 1018.25 Q293.842 1014.68 293.842 1007.58 Q293.842 1000.45 292.013 996.904 Q290.208 993.339 286.574 993.339 M286.574 989.636 Q292.384 989.636 295.439 994.242 Q298.518 998.825 298.518 1007.58 Q298.518 1016.3 295.439 1020.91 Q292.384 1025.49 286.574 1025.49 Q280.763 1025.49 277.685 1020.91 Q274.629 1016.3 274.629 1007.58 Q274.629 998.825 277.685 994.242 Q280.763 989.636 286.574 989.636 Z" fill="#000000" fill-rule="nonzero" fill-opacity="1" /><path clip-path="url(#clip920)" d="M308.148 984.075 Q305.439 984.075 303.878 985.524 Q302.336 986.972 302.336 989.511 Q302.336 992.05 303.878 993.498 Q305.439 994.946 308.148 994.946 Q310.856 994.946 312.417 993.498 Q313.978 992.031 313.978 989.511 Q313.978 986.972 312.417 985.524 Q310.875 984.075 308.148 984.075 M304.348 982.458 Q301.903 981.856 300.53 980.182 Q299.176 978.508 299.176 976.101 Q299.176 972.734 301.565 970.778 Q303.972 968.822 308.148 968.822 Q312.342 968.822 314.73 970.778 Q317.119 972.734 317.119 976.101 Q317.119 978.508 315.746 980.182 Q314.392 981.856 311.966 982.458 Q314.711 983.097 316.235 984.959 Q317.777 986.821 317.777 989.511 Q317.777 993.592 315.276 995.774 Q312.793 997.956 308.148 997.956 Q303.502 997.956 301.001 995.774 Q298.518 993.592 298.518 989.511 Q298.518 986.821 300.06 984.959 Q301.602 983.097 304.348 982.458 M302.957 976.458 Q302.957 978.64 304.311 979.863 Q305.684 981.085 308.148 981.085 Q310.593 981.085 311.966 979.863 Q313.357 978.64 313.357 976.458 Q313.357 974.277 311.966 973.054 Q310.593 971.832 308.148 971.832 Q305.684 971.832 304.311 973.054 Q302.957 974.277 302.957 976.458 Z" fill="#000000" fill-rule="nonzero" fill-opacity="1" /><path clip-path="url(#clip920)" d="M113.982 725.337 L102.176 743.786 L113.982 743.786 L113.982 725.337 M112.755 721.263 L118.635 721.263 L118.635 743.786 L123.565 743.786 L123.565 747.675 L118.635 747.675 L118.635 755.823 L113.982 755.823 L113.982 747.675 L98.3802 747.675 L98.3802 743.161 L112.755 721.263 Z" fill="#000000" fill-rule="nonzero" fill-opacity="1" /><path clip-path="url(#clip920)" d="M131.297 749.943 L136.181 749.943 L136.181 755.823 L131.297 755.823 L131.297 749.943 Z" fill="#000000" fill-rule="nonzero" fill-opacity="1" /><path clip-path="url(#clip920)" d="M156.945 736.679 Q153.797 736.679 151.945 738.832 Q150.116 740.985 150.116 744.735 Q150.116 748.462 151.945 750.637 Q153.797 752.79 156.945 752.79 Q160.093 752.79 161.921 750.637 Q163.773 748.462 163.773 744.735 Q163.773 740.985 161.921 738.832 Q160.093 736.679 156.945 736.679 M166.227 722.027 L166.227 726.286 Q164.468 725.452 162.662 725.013 Q160.88 724.573 159.121 724.573 Q154.491 724.573 152.037 727.698 Q149.607 730.823 149.26 737.142 Q150.625 735.128 152.685 734.064 Q154.746 732.976 157.222 732.976 Q162.431 732.976 165.44 736.147 Q168.472 739.295 168.472 744.735 Q168.472 750.059 165.324 753.276 Q162.176 756.494 156.945 756.494 Q150.949 756.494 147.778 751.911 Q144.607 747.304 144.607 738.577 Q144.607 730.383 148.496 725.522 Q152.384 720.638 158.935 720.638 Q160.695 720.638 162.477 720.985 Q164.283 721.332 166.227 722.027 Z" fill="#000000" fill-rule="nonzero" fill-opacity="1" /><path clip-path="url(#clip920)" d="M186.528 724.341 Q182.917 724.341 181.088 727.906 Q179.283 731.448 179.283 738.577 Q179.283 745.684 181.088 749.249 Q182.917 752.79 186.528 752.79 Q190.162 752.79 191.968 749.249 Q193.796 745.684 193.796 738.577 Q193.796 731.448 191.968 727.906 Q190.162 724.341 186.528 724.341 M186.528 720.638 Q192.338 720.638 195.394 725.244 Q198.472 729.827 198.472 738.577 Q198.472 747.304 195.394 751.911 Q192.338 756.494 186.528 756.494 Q180.718 756.494 177.639 751.911 Q174.583 747.304 174.583 738.577 Q174.583 729.827 177.639 725.244 Q180.718 720.638 186.528 720.638 Z" fill="#000000" fill-rule="nonzero" fill-opacity="1" /><path clip-path="url(#clip920)" d="M234.861 730.36 L224.282 740.985 L234.861 751.563 L232.106 754.364 L221.481 743.739 L210.856 754.364 L208.125 751.563 L218.68 740.985 L208.125 730.36 L210.856 727.559 L221.481 738.184 L232.106 727.559 L234.861 730.36 Z" fill="#000000" fill-rule="nonzero" fill-opacity="1" /><path clip-path="url(#clip920)" d="M247.222 751.887 L254.861 751.887 L254.861 725.522 L246.551 727.189 L246.551 722.929 L254.815 721.263 L259.49 721.263 L259.49 751.887 L267.129 751.887 L267.129 755.823 L247.222 755.823 L247.222 751.887 Z" fill="#000000" fill-rule="nonzero" fill-opacity="1" /><path clip-path="url(#clip920)" d="M286.574 724.341 Q282.963 724.341 281.134 727.906 Q279.328 731.448 279.328 738.577 Q279.328 745.684 281.134 749.249 Q282.963 752.79 286.574 752.79 Q290.208 752.79 292.013 749.249 Q293.842 745.684 293.842 738.577 Q293.842 731.448 292.013 727.906 Q290.208 724.341 286.574 724.341 M286.574 720.638 Q292.384 720.638 295.439 725.244 Q298.518 729.827 298.518 738.577 Q298.518 747.304 295.439 751.911 Q292.384 756.494 286.574 756.494 Q280.763 756.494 277.685 751.911 Q274.629 747.304 274.629 738.577 Q274.629 729.827 277.685 725.244 Q280.763 720.638 286.574 720.638 Z" fill="#000000" fill-rule="nonzero" fill-opacity="1" /><path clip-path="url(#clip920)" d="M308.148 715.078 Q305.439 715.078 303.878 716.526 Q302.336 717.974 302.336 720.513 Q302.336 723.052 303.878 724.5 Q305.439 725.948 308.148 725.948 Q310.856 725.948 312.417 724.5 Q313.978 723.033 313.978 720.513 Q313.978 717.974 312.417 716.526 Q310.875 715.078 308.148 715.078 M304.348 713.46 Q301.903 712.858 300.53 711.184 Q299.176 709.51 299.176 707.103 Q299.176 703.736 301.565 701.78 Q303.972 699.824 308.148 699.824 Q312.342 699.824 314.73 701.78 Q317.119 703.736 317.119 707.103 Q317.119 709.51 315.746 711.184 Q314.392 712.858 311.966 713.46 Q314.711 714.1 316.235 715.962 Q317.777 717.823 317.777 720.513 Q317.777 724.594 315.276 726.776 Q312.793 728.958 308.148 728.958 Q303.502 728.958 301.001 726.776 Q298.518 724.594 298.518 720.513 Q298.518 717.823 300.06 715.962 Q301.602 714.1 304.348 713.46 M302.957 707.46 Q302.957 709.642 304.311 710.865 Q305.684 712.087 308.148 712.087 Q310.593 712.087 311.966 710.865 Q313.357 709.642 313.357 707.46 Q313.357 705.279 311.966 704.056 Q310.593 702.834 308.148 702.834 Q305.684 702.834 304.311 704.056 Q302.957 705.279 302.957 707.46 Z" fill="#000000" fill-rule="nonzero" fill-opacity="1" /><path clip-path="url(#clip920)" d="M113.982 456.339 L102.176 474.788 L113.982 474.788 L113.982 456.339 M112.755 452.265 L118.635 452.265 L118.635 474.788 L123.565 474.788 L123.565 478.677 L118.635 478.677 L118.635 486.825 L113.982 486.825 L113.982 478.677 L98.3802 478.677 L98.3802 474.163 L112.755 452.265 Z" fill="#000000" fill-rule="nonzero" fill-opacity="1" /><path clip-path="url(#clip920)" d="M131.297 480.945 L136.181 480.945 L136.181 486.825 L131.297 486.825 L131.297 480.945 Z" fill="#000000" fill-rule="nonzero" fill-opacity="1" /><path clip-path="url(#clip920)" d="M145.185 452.265 L167.408 452.265 L167.408 454.255 L154.861 486.825 L149.977 486.825 L161.783 456.2 L145.185 456.2 L145.185 452.265 Z" fill="#000000" fill-rule="nonzero" fill-opacity="1" /><path clip-path="url(#clip920)" d="M186.528 455.343 Q182.917 455.343 181.088 458.908 Q179.283 462.45 179.283 469.579 Q179.283 476.686 181.088 480.251 Q182.917 483.792 186.528 483.792 Q190.162 483.792 191.968 480.251 Q193.796 476.686 193.796 469.579 Q193.796 462.45 191.968 458.908 Q190.162 455.343 186.528 455.343 M186.528 451.64 Q192.338 451.64 195.394 456.246 Q198.472 460.829 198.472 469.579 Q198.472 478.306 195.394 482.913 Q192.338 487.496 186.528 487.496 Q180.718 487.496 177.639 482.913 Q174.583 478.306 174.583 469.579 Q174.583 460.829 177.639 456.246 Q180.718 451.64 186.528 451.64 Z" fill="#000000" fill-rule="nonzero" fill-opacity="1" /><path clip-path="url(#clip920)" d="M234.861 461.362 L224.282 471.987 L234.861 482.565 L232.106 485.366 L221.481 474.741 L210.856 485.366 L208.125 482.565 L218.68 471.987 L208.125 461.362 L210.856 458.561 L221.481 469.186 L232.106 458.561 L234.861 461.362 Z" fill="#000000" fill-rule="nonzero" fill-opacity="1" /><path clip-path="url(#clip920)" d="M247.222 482.89 L254.861 482.89 L254.861 456.524 L246.551 458.191 L246.551 453.931 L254.815 452.265 L259.49 452.265 L259.49 482.89 L267.129 482.89 L267.129 486.825 L247.222 486.825 L247.222 482.89 Z" fill="#000000" fill-rule="nonzero" fill-opacity="1" /><path clip-path="url(#clip920)" d="M286.574 455.343 Q282.963 455.343 281.134 458.908 Q279.328 462.45 279.328 469.579 Q279.328 476.686 281.134 480.251 Q282.963 483.792 286.574 483.792 Q290.208 483.792 292.013 480.251 Q293.842 476.686 293.842 469.579 Q293.842 462.45 292.013 458.908 Q290.208 455.343 286.574 455.343 M286.574 451.64 Q292.384 451.64 295.439 456.246 Q298.518 460.829 298.518 469.579 Q298.518 478.306 295.439 482.913 Q292.384 487.496 286.574 487.496 Q280.763 487.496 277.685 482.913 Q274.629 478.306 274.629 469.579 Q274.629 460.829 277.685 456.246 Q280.763 451.64 286.574 451.64 Z" fill="#000000" fill-rule="nonzero" fill-opacity="1" /><path clip-path="url(#clip920)" d="M308.148 446.08 Q305.439 446.08 303.878 447.528 Q302.336 448.976 302.336 451.515 Q302.336 454.054 303.878 455.502 Q305.439 456.95 308.148 456.95 Q310.856 456.95 312.417 455.502 Q313.978 454.035 313.978 451.515 Q313.978 448.976 312.417 447.528 Q310.875 446.08 308.148 446.08 M304.348 444.462 Q301.903 443.86 300.53 442.186 Q299.176 440.512 299.176 438.105 Q299.176 434.739 301.565 432.783 Q303.972 430.826 308.148 430.826 Q312.342 430.826 314.73 432.783 Q317.119 434.739 317.119 438.105 Q317.119 440.512 315.746 442.186 Q314.392 443.86 311.966 444.462 Q314.711 445.102 316.235 446.964 Q317.777 448.826 317.777 451.515 Q317.777 455.596 315.276 457.778 Q312.793 459.96 308.148 459.96 Q303.502 459.96 301.001 457.778 Q298.518 455.596 298.518 451.515 Q298.518 448.826 300.06 446.964 Q301.602 445.102 304.348 444.462 M302.957 438.462 Q302.957 440.644 304.311 441.867 Q305.684 443.089 308.148 443.089 Q310.593 443.089 311.966 441.867 Q313.357 440.644 313.357 438.462 Q313.357 436.281 311.966 435.058 Q310.593 433.836 308.148 433.836 Q305.684 433.836 304.311 435.058 Q302.957 436.281 302.957 438.462 Z" fill="#000000" fill-rule="nonzero" fill-opacity="1" /><path clip-path="url(#clip920)" d="M113.982 187.341 L102.176 205.79 L113.982 205.79 L113.982 187.341 M112.755 183.267 L118.635 183.267 L118.635 205.79 L123.565 205.79 L123.565 209.679 L118.635 209.679 L118.635 217.827 L113.982 217.827 L113.982 209.679 L98.3802 209.679 L98.3802 205.165 L112.755 183.267 Z" fill="#000000" fill-rule="nonzero" fill-opacity="1" /><path clip-path="url(#clip920)" d="M131.297 211.947 L136.181 211.947 L136.181 217.827 L131.297 217.827 L131.297 211.947 Z" fill="#000000" fill-rule="nonzero" fill-opacity="1" /><path clip-path="url(#clip920)" d="M156.366 201.415 Q153.033 201.415 151.111 203.197 Q149.213 204.98 149.213 208.105 Q149.213 211.23 151.111 213.012 Q153.033 214.794 156.366 214.794 Q159.699 214.794 161.621 213.012 Q163.542 211.206 163.542 208.105 Q163.542 204.98 161.621 203.197 Q159.722 201.415 156.366 201.415 M151.69 199.424 Q148.681 198.683 146.991 196.623 Q145.324 194.563 145.324 191.6 Q145.324 187.457 148.264 185.049 Q151.227 182.642 156.366 182.642 Q161.528 182.642 164.468 185.049 Q167.408 187.457 167.408 191.6 Q167.408 194.563 165.718 196.623 Q164.051 198.683 161.065 199.424 Q164.445 200.211 166.32 202.503 Q168.218 204.794 168.218 208.105 Q168.218 213.128 165.139 215.813 Q162.084 218.498 156.366 218.498 Q150.648 218.498 147.57 215.813 Q144.514 213.128 144.514 208.105 Q144.514 204.794 146.412 202.503 Q148.31 200.211 151.69 199.424 M149.977 192.04 Q149.977 194.725 151.644 196.23 Q153.334 197.734 156.366 197.734 Q159.375 197.734 161.065 196.23 Q162.778 194.725 162.778 192.04 Q162.778 189.355 161.065 187.85 Q159.375 186.345 156.366 186.345 Q153.334 186.345 151.644 187.85 Q149.977 189.355 149.977 192.04 Z" fill="#000000" fill-rule="nonzero" fill-opacity="1" /><path clip-path="url(#clip920)" d="M186.528 186.345 Q182.917 186.345 181.088 189.91 Q179.283 193.452 179.283 200.581 Q179.283 207.688 181.088 211.253 Q182.917 214.794 186.528 214.794 Q190.162 214.794 191.968 211.253 Q193.796 207.688 193.796 200.581 Q193.796 193.452 191.968 189.91 Q190.162 186.345 186.528 186.345 M186.528 182.642 Q192.338 182.642 195.394 187.248 Q198.472 191.832 198.472 200.581 Q198.472 209.308 195.394 213.915 Q192.338 218.498 186.528 218.498 Q180.718 218.498 177.639 213.915 Q174.583 209.308 174.583 200.581 Q174.583 191.832 177.639 187.248 Q180.718 182.642 186.528 182.642 Z" fill="#000000" fill-rule="nonzero" fill-opacity="1" /><path clip-path="url(#clip920)" d="M234.861 192.364 L224.282 202.989 L234.861 213.568 L232.106 216.368 L221.481 205.743 L210.856 216.368 L208.125 213.568 L218.68 202.989 L208.125 192.364 L210.856 189.563 L221.481 200.188 L232.106 189.563 L234.861 192.364 Z" fill="#000000" fill-rule="nonzero" fill-opacity="1" /><path clip-path="url(#clip920)" d="M247.222 213.892 L254.861 213.892 L254.861 187.526 L246.551 189.193 L246.551 184.933 L254.815 183.267 L259.49 183.267 L259.49 213.892 L267.129 213.892 L267.129 217.827 L247.222 217.827 L247.222 213.892 Z" fill="#000000" fill-rule="nonzero" fill-opacity="1" /><path clip-path="url(#clip920)" d="M286.574 186.345 Q282.963 186.345 281.134 189.91 Q279.328 193.452 279.328 200.581 Q279.328 207.688 281.134 211.253 Q282.963 214.794 286.574 214.794 Q290.208 214.794 292.013 211.253 Q293.842 207.688 293.842 200.581 Q293.842 193.452 292.013 189.91 Q290.208 186.345 286.574 186.345 M286.574 182.642 Q292.384 182.642 295.439 187.248 Q298.518 191.832 298.518 200.581 Q298.518 209.308 295.439 213.915 Q292.384 218.498 286.574 218.498 Q280.763 218.498 277.685 213.915 Q274.629 209.308 274.629 200.581 Q274.629 191.832 277.685 187.248 Q280.763 182.642 286.574 182.642 Z" fill="#000000" fill-rule="nonzero" fill-opacity="1" /><path clip-path="url(#clip920)" d="M308.148 177.082 Q305.439 177.082 303.878 178.53 Q302.336 179.978 302.336 182.517 Q302.336 185.056 303.878 186.504 Q305.439 187.953 308.148 187.953 Q310.856 187.953 312.417 186.504 Q313.978 185.037 313.978 182.517 Q313.978 179.978 312.417 178.53 Q310.875 177.082 308.148 177.082 M304.348 175.464 Q301.903 174.862 300.53 173.188 Q299.176 171.515 299.176 169.107 Q299.176 165.741 301.565 163.785 Q303.972 161.829 308.148 161.829 Q312.342 161.829 314.73 163.785 Q317.119 165.741 317.119 169.107 Q317.119 171.515 315.746 173.188 Q314.392 174.862 311.966 175.464 Q314.711 176.104 316.235 177.966 Q317.777 179.828 317.777 182.517 Q317.777 186.598 315.276 188.78 Q312.793 190.962 308.148 190.962 Q303.502 190.962 301.001 188.78 Q298.518 186.598 298.518 182.517 Q298.518 179.828 300.06 177.966 Q301.602 176.104 304.348 175.464 M302.957 169.465 Q302.957 171.646 304.311 172.869 Q305.684 174.091 308.148 174.091 Q310.593 174.091 311.966 172.869 Q313.357 171.646 313.357 169.465 Q313.357 167.283 311.966 166.06 Q310.593 164.838 308.148 164.838 Q305.684 164.838 304.311 166.06 Q302.957 167.283 302.957 169.465 Z" fill="#000000" fill-rule="nonzero" fill-opacity="1" /><path clip-path="url(#clip920)" d="M-9.64527 840.632 L0.4762 840.632 L0.4762 828.569 L5.02768 828.569 L5.02768 840.632 L24.3794 840.632 Q28.7399 840.632 29.9813 839.454 Q31.2226 838.245 31.2226 834.584 L31.2226 828.569 L36.1242 828.569 L36.1242 834.584 Q36.1242 841.364 33.6097 843.942 Q31.0634 846.52 24.3794 846.52 L5.02768 846.52 L5.02768 850.817 L0.4762 850.817 L0.4762 846.52 L-9.64527 846.52 L-9.64527 840.632 Z" fill="#000000" fill-rule="nonzero" fill-opacity="1" /><path clip-path="url(#clip920)" d="M-11.3958 789.738 L-11.3958 784.327 L42.1716 800.878 L42.1716 806.289 L-11.3958 789.738 Z" fill="#000000" fill-rule="nonzero" fill-opacity="1" /><path clip-path="url(#clip920)" d="M14.6081 727.831 L36.1242 727.831 L36.1242 733.688 L14.799 733.688 Q9.7383 733.688 7.22385 735.661 Q4.7094 737.635 4.7094 741.581 Q4.7094 746.324 7.73311 749.061 Q10.7568 751.798 15.9767 751.798 L36.1242 751.798 L36.1242 757.687 L0.4762 757.687 L0.4762 751.798 L6.01437 751.798 Q2.79968 749.698 1.20826 746.865 Q-0.38317 744 -0.38317 740.276 Q-0.38317 734.133 3.43625 730.982 Q7.22385 727.831 14.6081 727.831 Z" fill="#000000" fill-rule="nonzero" fill-opacity="1" /><path clip-path="url(#clip920)" d="M1.52654 693.425 L7.06471 693.425 Q5.79157 695.907 5.15499 698.581 Q4.51842 701.255 4.51842 704.119 Q4.51842 708.48 5.85522 710.676 Q7.19202 712.84 9.86562 712.84 Q11.9026 712.84 13.0803 711.281 Q14.2261 709.721 15.2765 705.01 L15.7221 703.005 Q17.0589 696.767 19.5097 694.157 Q21.9286 691.515 26.2891 691.515 Q31.2544 691.515 34.1508 695.462 Q37.0472 699.377 37.0472 706.252 Q37.0472 709.116 36.4743 712.235 Q35.9332 715.323 34.8192 718.76 L28.7718 718.76 Q30.4587 715.514 31.318 712.363 Q32.1456 709.212 32.1456 706.124 Q32.1456 701.987 30.7451 699.759 Q29.3129 697.531 26.7347 697.531 Q24.3476 697.531 23.0745 699.154 Q21.8013 700.745 20.6237 706.188 L20.1462 708.225 Q19.0004 713.668 16.6451 716.087 Q14.258 718.506 10.1202 718.506 Q5.09134 718.506 2.35408 714.941 Q-0.38317 711.376 -0.38317 704.819 Q-0.38317 701.573 0.0942579 698.708 Q0.571686 695.844 1.52654 693.425 Z" fill="#000000" fill-rule="nonzero" fill-opacity="1" /><path clip-path="url(#clip922)" d="M834.347 1454.11 L838.07 1448.65 L841.719 1443.19 L845.288 1437.73 L848.775 1432.27 L852.18 1426.81 L855.503 1421.35 L858.745 1415.9 L861.911 1410.44 L865.002 1404.98 L868.021 1399.52 L870.973 1394.06 L873.859 1388.6 L876.681 1383.14 L879.439 1377.68 L882.133 1372.22 L884.761 1366.76 L887.319 1361.3 L889.801 1355.84 L892.202 1350.38 L894.514 1344.92 L896.728 1339.46 L898.837 1334 L900.832 1328.55 L902.704 1323.09 L904.448 1317.63 L906.058 1312.17 L907.531 1306.71 L908.869 1301.25 L910.074 1295.79 L911.153 1290.33 L912.118 1284.87 L912.984 1279.41 L913.77 1273.95 L914.501 1268.49 L915.203 1263.03 L915.907 1257.57 L916.649 1252.11 L917.465 1246.65 L918.392 1241.19 L919.471 1235.74 L920.74 1230.28 L922.237 1224.82 L923.998 1219.36 L926.053 1213.9 L928.433 1208.44 L931.158 1202.98 L934.244 1197.52 L937.701 1192.06 L941.53 1186.6 L945.723 1181.14 L950.264 1175.68 L955.128 1170.22 L960.279 1164.76 L965.676 1159.3 L971.266 1153.84 L976.99 1148.39 L982.781 1142.93 L988.567 1137.47 L994.27 1132.01 L999.809 1126.55 L1005.1 1121.09 L1010.06 1115.63 L1014.6 1110.17 L1018.65 1104.71 L1022.12 1099.25 L1024.94 1093.79 L1027.06 1088.33 L1028.4 1082.87 L1028.93 1077.41 L1028.6 1071.95 L1027.38 1066.49 L1025.27 1061.04 L1022.25 1055.58 L1018.34 1050.12 L1013.54 1044.66 L1007.9 1039.2 L1001.46 1033.74 L994.259 1028.28 L986.361 1022.82 L487.219 1022.82 L479.322 1028.28 L472.121 1033.74 L465.675 1039.2 L460.037 1044.66 L455.245 1050.12 L451.331 1055.58 L448.313 1061.04 L446.199 1066.49 L444.985 1071.95 L444.654 1077.41 L445.179 1082.87 L446.522 1088.33 L448.635 1093.79 L451.46 1099.25 L454.932 1104.71 L458.978 1110.17 L463.521 1115.63 L468.48 1121.09 L473.771 1126.55 L479.31 1132.01 L485.013 1137.47 L490.799 1142.93 L496.59 1148.39 L502.314 1153.84 L507.904 1159.3 L513.301 1164.76 L518.452 1170.22 L523.316 1175.68 L527.857 1181.14 L532.05 1186.6 L535.879 1192.06 L539.336 1197.52 L542.423 1202.98 L545.147 1208.44 L547.527 1213.9 L549.583 1219.36 L551.343 1224.82 L552.84 1230.28 L554.109 1235.74 L555.188 1241.19 L556.115 1246.65 L556.931 1252.11 L557.673 1257.57 L558.378 1263.03 L559.079 1268.49 L559.81 1273.95 L560.596 1279.41 L561.462 1284.87 L562.427 1290.33 L563.506 1295.79 L564.711 1301.25 L566.049 1306.71 L567.522 1312.17 L569.132 1317.63 L570.876 1323.09 L572.748 1328.55 L574.743 1334 L576.852 1339.46 L579.066 1344.92 L581.378 1350.38 L583.779 1355.84 L586.261 1361.3 L588.819 1366.76 L591.447 1372.22 L594.141 1377.68 L596.899 1383.14 L599.721 1388.6 L602.607 1394.06 L605.559 1399.52 L608.578 1404.98 L611.669 1410.44 L614.835 1415.9 L618.078 1421.35 L621.4 1426.81 L624.805 1432.27 L628.292 1437.73 L631.861 1443.19 L635.51 1448.65 L639.234 1454.11 L834.347 1454.11  Z" fill="#009af9" fill-rule="evenodd" fill-opacity="1"/>
<polyline clip-path="url(#clip922)" style="stroke:#000000; stroke-linecap:round; stroke-linejoin:round; stroke-width:4; stroke-opacity:1; fill:none" points="834.347,1454.11 838.07,1448.65 841.719,1443.19 845.288,1437.73 848.775,1432.27 852.18,1426.81 855.503,1421.35 858.745,1415.9 861.911,1410.44 865.002,1404.98 868.021,1399.52 870.973,1394.06 873.859,1388.6 876.681,1383.14 879.439,1377.68 882.133,1372.22 884.761,1366.76 887.319,1361.3 889.801,1355.84 892.202,1350.38 894.514,1344.92 896.728,1339.46 898.837,1334 900.832,1328.55 902.704,1323.09 904.448,1317.63 906.058,1312.17 907.531,1306.71 908.869,1301.25 910.074,1295.79 911.153,1290.33 912.118,1284.87 912.984,1279.41 913.77,1273.95 914.501,1268.49 915.203,1263.03 915.907,1257.57 916.649,1252.11 917.465,1246.65 918.392,1241.19 919.471,1235.74 920.74,1230.28 922.237,1224.82 923.998,1219.36 926.053,1213.9 928.433,1208.44 931.158,1202.98 934.244,1197.52 937.701,1192.06 941.53,1186.6 945.723,1181.14 950.264,1175.68 955.128,1170.22 960.279,1164.76 965.676,1159.3 971.266,1153.84 976.99,1148.39 982.781,1142.93 988.567,1137.47 994.27,1132.01 999.809,1126.55 1005.1,1121.09 1010.06,1115.63 1014.6,1110.17 1018.65,1104.71 1022.12,1099.25 1024.94,1093.79 1027.06,1088.33 1028.4,1082.87 1028.93,1077.41 1028.6,1071.95 1027.38,1066.49 1025.27,1061.04 1022.25,1055.58 1018.34,1050.12 1013.54,1044.66 1007.9,1039.2 1001.46,1033.74 994.259,1028.28 986.361,1022.82 487.219,1022.82 479.322,1028.28 472.121,1033.74 465.675,1039.2 460.037,1044.66 455.245,1050.12 451.331,1055.58 448.313,1061.04 446.199,1066.49 444.985,1071.95 444.654,1077.41 445.179,1082.87 446.522,1088.33 448.635,1093.79 451.46,1099.25 454.932,1104.71 458.978,1110.17 463.521,1115.63 468.48,1121.09 473.771,1126.55 479.31,1132.01 485.013,1137.47 490.799,1142.93 496.59,1148.39 502.314,1153.84 507.904,1159.3 513.301,1164.76 518.452,1170.22 523.316,1175.68 527.857,1181.14 532.05,1186.6 535.879,1192.06 539.336,1197.52 542.423,1202.98 545.147,1208.44 547.527,1213.9 549.583,1219.36 551.343,1224.82 552.84,1230.28 554.109,1235.74 555.188,1241.19 556.115,1246.65 556.931,1252.11 557.673,1257.57 558.378,1263.03 559.079,1268.49 559.81,1273.95 560.596,1279.41 561.462,1284.87 562.427,1290.33 563.506,1295.79 564.711,1301.25 566.049,1306.71 567.522,1312.17 569.132,1317.63 570.876,1323.09 572.748,1328.55 574.743,1334 576.852,1339.46 579.066,1344.92 581.378,1350.38 583.779,1355.84 586.261,1361.3 588.819,1366.76 591.447,1372.22 594.141,1377.68 596.899,1383.14 599.721,1388.6 602.607,1394.06 605.559,1399.52 608.578,1404.98 611.669,1410.44 614.835,1415.9 618.078,1421.35 621.4,1426.81 624.805,1432.27 628.292,1437.73 631.861,1443.19 635.51,1448.65 639.234,1454.11 834.347,1454.11 "/>
<path clip-path="url(#clip922)" d="M1846.81 1379.61 L1848.65 1375.87 L1850.25 1372.12 L1851.63 1368.38 L1852.79 1364.64 L1853.73 1360.9 L1854.49 1357.16 L1855.08 1353.42 L1855.53 1349.67 L1855.88 1345.93 L1856.15 1342.19 L1856.38 1338.45 L1856.62 1334.71 L1856.91 1330.96 L1857.29 1327.22 L1857.8 1323.48 L1858.48 1319.74 L1859.38 1316 L1860.53 1312.26 L1861.96 1308.51 L1863.71 1304.77 L1865.79 1301.03 L1868.24 1297.29 L1871.05 1293.55 L1874.24 1289.81 L1877.81 1286.06 L1881.76 1282.32 L1886.07 1278.58 L1890.73 1274.84 L1895.71 1271.1 L1901 1267.36 L1906.55 1263.61 L1912.34 1259.87 L1918.33 1256.13 L1924.48 1252.39 L1930.75 1248.65 L1937.1 1244.91 L1943.49 1241.16 L1949.88 1237.42 L1956.23 1233.68 L1962.5 1229.94 L1968.67 1226.2 L1974.71 1222.46 L1980.59 1218.71 L1986.28 1214.97 L1991.78 1211.23 L1997.06 1207.49 L2002.12 1203.75 L2006.94 1200.01 L2011.52 1196.26 L2015.86 1192.52 L2019.97 1188.78 L2023.83 1185.04 L2027.44 1181.3 L2030.83 1177.56 L2033.97 1173.81 L2036.88 1170.07 L2039.55 1166.33 L2041.97 1162.59 L2044.15 1158.85 L2046.08 1155.11 L2047.73 1151.36 L2049.1 1147.62 L2050.18 1143.88 L2050.94 1140.14 L2051.35 1136.4 L2051.4 1132.66 L2051.06 1128.91 L2050.31 1125.17 L2049.11 1121.43 L2047.44 1117.69 L2045.28 1113.95 L2042.61 1110.21 L2039.4 1106.46 L2035.65 1102.72 L2031.34 1098.98 L2026.48 1095.24 L2021.05 1091.5 L2015.08 1087.75 L2008.57 1084.01 L1509.96 1084.01 L1503.45 1087.75 L1497.48 1091.5 L1492.06 1095.24 L1487.19 1098.98 L1482.88 1102.72 L1479.13 1106.46 L1475.92 1110.21 L1473.25 1113.95 L1471.09 1117.69 L1469.42 1121.43 L1468.23 1125.17 L1467.47 1128.91 L1467.13 1132.66 L1467.18 1136.4 L1467.6 1140.14 L1468.35 1143.88 L1469.43 1147.62 L1470.8 1151.36 L1472.46 1155.11 L1474.38 1158.85 L1476.56 1162.59 L1478.99 1166.33 L1481.66 1170.07 L1484.56 1173.81 L1487.71 1177.56 L1491.09 1181.3 L1494.71 1185.04 L1498.57 1188.78 L1502.67 1192.52 L1507.01 1196.26 L1511.59 1200.01 L1516.42 1203.75 L1521.47 1207.49 L1526.75 1211.23 L1532.25 1214.97 L1537.94 1218.71 L1543.82 1222.46 L1549.86 1226.2 L1556.03 1229.94 L1562.31 1233.68 L1568.66 1237.42 L1575.04 1241.16 L1581.43 1244.91 L1587.78 1248.65 L1594.05 1252.39 L1600.2 1256.13 L1606.19 1259.87 L1611.98 1263.61 L1617.54 1267.36 L1622.82 1271.1 L1627.81 1274.84 L1632.47 1278.58 L1636.78 1282.32 L1640.72 1286.06 L1644.29 1289.81 L1647.48 1293.55 L1650.3 1297.29 L1652.74 1301.03 L1654.82 1304.77 L1656.57 1308.51 L1658 1312.26 L1659.15 1316 L1660.05 1319.74 L1660.73 1323.48 L1661.25 1327.22 L1661.62 1330.96 L1661.91 1334.71 L1662.15 1338.45 L1662.39 1342.19 L1662.66 1345.93 L1663 1349.67 L1663.45 1353.42 L1664.04 1357.16 L1664.8 1360.9 L1665.75 1364.64 L1666.9 1368.38 L1668.28 1372.12 L1669.88 1375.87 L1671.72 1379.61 L1846.81 1379.61  Z" fill="#e26f46" fill-rule="evenodd" fill-opacity="1"/>
<polyline clip-path="url(#clip922)" style="stroke:#000000; stroke-linecap:round; stroke-linejoin:round; stroke-width:4; stroke-opacity:1; fill:none" points="1846.81,1379.61 1848.65,1375.87 1850.25,1372.12 1851.63,1368.38 1852.79,1364.64 1853.73,1360.9 1854.49,1357.16 1855.08,1353.42 1855.53,1349.67 1855.88,1345.93 1856.15,1342.19 1856.38,1338.45 1856.62,1334.71 1856.91,1330.96 1857.29,1327.22 1857.8,1323.48 1858.48,1319.74 1859.38,1316 1860.53,1312.26 1861.96,1308.51 1863.71,1304.77 1865.79,1301.03 1868.24,1297.29 1871.05,1293.55 1874.24,1289.81 1877.81,1286.06 1881.76,1282.32 1886.07,1278.58 1890.73,1274.84 1895.71,1271.1 1901,1267.36 1906.55,1263.61 1912.34,1259.87 1918.33,1256.13 1924.48,1252.39 1930.75,1248.65 1937.1,1244.91 1943.49,1241.16 1949.88,1237.42 1956.23,1233.68 1962.5,1229.94 1968.67,1226.2 1974.71,1222.46 1980.59,1218.71 1986.28,1214.97 1991.78,1211.23 1997.06,1207.49 2002.12,1203.75 2006.94,1200.01 2011.52,1196.26 2015.86,1192.52 2019.97,1188.78 2023.83,1185.04 2027.44,1181.3 2030.83,1177.56 2033.97,1173.81 2036.88,1170.07 2039.55,1166.33 2041.97,1162.59 2044.15,1158.85 2046.08,1155.11 2047.73,1151.36 2049.1,1147.62 2050.18,1143.88 2050.94,1140.14 2051.35,1136.4 2051.4,1132.66 2051.06,1128.91 2050.31,1125.17 2049.11,1121.43 2047.44,1117.69 2045.28,1113.95 2042.61,1110.21 2039.4,1106.46 2035.65,1102.72 2031.34,1098.98 2026.48,1095.24 2021.05,1091.5 2015.08,1087.75 2008.57,1084.01 1509.96,1084.01 1503.45,1087.75 1497.48,1091.5 1492.06,1095.24 1487.19,1098.98 1482.88,1102.72 1479.13,1106.46 1475.92,1110.21 1473.25,1113.95 1471.09,1117.69 1469.42,1121.43 1468.23,1125.17 1467.47,1128.91 1467.13,1132.66 1467.18,1136.4 1467.6,1140.14 1468.35,1143.88 1469.43,1147.62 1470.8,1151.36 1472.46,1155.11 1474.38,1158.85 1476.56,1162.59 1478.99,1166.33 1481.66,1170.07 1484.56,1173.81 1487.71,1177.56 1491.09,1181.3 1494.71,1185.04 1498.57,1188.78 1502.67,1192.52 1507.01,1196.26 1511.59,1200.01 1516.42,1203.75 1521.47,1207.49 1526.75,1211.23 1532.25,1214.97 1537.94,1218.71 1543.82,1222.46 1549.86,1226.2 1556.03,1229.94 1562.31,1233.68 1568.66,1237.42 1575.04,1241.16 1581.43,1244.91 1587.78,1248.65 1594.05,1252.39 1600.2,1256.13 1606.19,1259.87 1611.98,1263.61 1617.54,1267.36 1622.82,1271.1 1627.81,1274.84 1632.47,1278.58 1636.78,1282.32 1640.72,1286.06 1644.29,1289.81 1647.48,1293.55 1650.3,1297.29 1652.74,1301.03 1654.82,1304.77 1656.57,1308.51 1658,1312.26 1659.15,1316 1660.05,1319.74 1660.73,1323.48 1661.25,1327.22 1661.62,1330.96 1661.91,1334.71 1662.15,1338.45 1662.39,1342.19 1662.66,1345.93 1663,1349.67 1663.45,1353.42 1664.04,1357.16 1664.8,1360.9 1665.75,1364.64 1666.9,1368.38 1668.28,1372.12 1669.88,1375.87 1671.72,1379.61 1846.81,1379.61 "/>
<path clip-path="url(#clip922)" d="M2963.46 903.052 L2967.81 893.686 L2971.6 884.32 L2974.84 874.954 L2977.55 865.588 L2979.76 856.222 L2981.52 846.856 L2982.87 837.49 L2983.88 828.125 L2984.64 818.759 L2985.21 809.393 L2985.7 800.027 L2986.18 790.661 L2986.76 781.295 L2987.51 771.929 L2988.52 762.563 L2989.87 753.198 L2991.61 743.832 L2993.8 734.466 L2996.47 725.1 L2999.65 715.734 L3003.33 706.368 L3007.51 697.002 L3012.14 687.637 L3017.18 678.271 L3022.56 668.905 L3028.19 659.539 L3033.98 650.173 L3039.8 640.807 L3045.55 631.441 L3051.1 622.075 L3056.32 612.71 L3061.08 603.344 L3065.25 593.978 L3068.72 584.612 L3071.37 575.246 L3073.12 565.88 L3073.88 556.514 L3073.58 547.148 L3072.19 537.783 L3069.66 528.417 L3066.01 519.051 L3061.24 509.685 L3055.39 500.319 L3048.51 490.953 L3040.66 481.587 L3031.95 472.221 L3022.46 462.856 L3012.3 453.49 L3001.59 444.124 L2990.46 434.758 L2979.03 425.392 L2967.43 416.026 L2955.78 406.66 L2944.19 397.295 L2932.79 387.929 L2921.68 378.563 L2910.95 369.197 L2900.69 359.831 L2890.97 350.465 L2881.85 341.099 L2873.38 331.733 L2865.6 322.368 L2858.52 313.002 L2852.16 303.636 L2846.53 294.27 L2841.61 284.904 L2837.39 275.538 L2833.84 266.172 L2830.92 256.806 L2828.61 247.441 L2826.85 238.075 L2825.59 228.709 L2824.78 219.343 L2824.38 209.977 L2824.31 200.611 L2824.53 191.245 L2824.97 181.88 L2825.59 172.514 L2826.32 163.148 L2827.11 153.782 L2827.93 144.416 L2828.71 135.05 L2829.42 125.684 L2830.02 116.318 L2830.49 106.953 L2830.78 97.5867 L2830.89 88.2208 L2732.59 88.2208 L2732.7 97.5867 L2733 106.953 L2733.46 116.318 L2734.07 125.684 L2734.78 135.05 L2735.56 144.416 L2736.37 153.782 L2737.17 163.148 L2737.9 172.514 L2738.51 181.88 L2738.96 191.245 L2739.18 200.611 L2739.11 209.977 L2738.7 219.343 L2737.9 228.709 L2736.64 238.075 L2734.88 247.441 L2732.56 256.806 L2729.65 266.172 L2726.1 275.538 L2721.88 284.904 L2716.96 294.27 L2711.32 303.636 L2704.97 313.002 L2697.89 322.368 L2690.1 331.733 L2681.63 341.099 L2672.51 350.465 L2662.79 359.831 L2652.53 369.197 L2641.8 378.563 L2630.69 387.929 L2619.29 397.295 L2607.71 406.66 L2596.06 416.026 L2584.45 425.392 L2573.02 434.758 L2561.89 444.124 L2551.19 453.49 L2541.03 462.856 L2531.54 472.221 L2522.82 481.587 L2514.98 490.953 L2508.1 500.319 L2502.24 509.685 L2497.47 519.051 L2493.82 528.417 L2491.3 537.783 L2489.9 547.148 L2489.61 556.514 L2490.36 565.88 L2492.11 575.246 L2494.77 584.612 L2498.24 593.978 L2502.41 603.344 L2507.17 612.71 L2512.38 622.075 L2517.93 631.441 L2523.68 640.807 L2529.51 650.173 L2535.29 659.539 L2540.92 668.905 L2546.3 678.271 L2551.34 687.637 L2555.98 697.002 L2560.15 706.368 L2563.84 715.734 L2567.01 725.1 L2569.69 734.466 L2571.88 743.832 L2573.62 753.198 L2574.96 762.563 L2575.97 771.929 L2576.73 781.295 L2577.3 790.661 L2577.79 800.027 L2578.27 809.393 L2578.85 818.759 L2579.6 828.125 L2580.62 837.49 L2581.97 846.856 L2583.72 856.222 L2585.93 865.588 L2588.64 874.954 L2591.88 884.32 L2595.68 893.686 L2600.02 903.052 L2963.46 903.052  Z" fill="#3da44d" fill-rule="evenodd" fill-opacity="1"/>
<polyline clip-path="url(#clip922)" style="stroke:#000000; stroke-linecap:round; stroke-linejoin:round; stroke-width:4; stroke-opacity:1; fill:none" points="2963.46,903.052 2967.81,893.686 2971.6,884.32 2974.84,874.954 2977.55,865.588 2979.76,856.222 2981.52,846.856 2982.87,837.49 2983.88,828.125 2984.64,818.759 2985.21,809.393 2985.7,800.027 2986.18,790.661 2986.76,781.295 2987.51,771.929 2988.52,762.563 2989.87,753.198 2991.61,743.832 2993.8,734.466 2996.47,725.1 2999.65,715.734 3003.33,706.368 3007.51,697.002 3012.14,687.637 3017.18,678.271 3022.56,668.905 3028.19,659.539 3033.98,650.173 3039.8,640.807 3045.55,631.441 3051.1,622.075 3056.32,612.71 3061.08,603.344 3065.25,593.978 3068.72,584.612 3071.37,575.246 3073.12,565.88 3073.88,556.514 3073.58,547.148 3072.19,537.783 3069.66,528.417 3066.01,519.051 3061.24,509.685 3055.39,500.319 3048.51,490.953 3040.66,481.587 3031.95,472.221 3022.46,462.856 3012.3,453.49 3001.59,444.124 2990.46,434.758 2979.03,425.392 2967.43,416.026 2955.78,406.66 2944.19,397.295 2932.79,387.929 2921.68,378.563 2910.95,369.197 2900.69,359.831 2890.97,350.465 2881.85,341.099 2873.38,331.733 2865.6,322.368 2858.52,313.002 2852.16,303.636 2846.53,294.27 2841.61,284.904 2837.39,275.538 2833.84,266.172 2830.92,256.806 2828.61,247.441 2826.85,238.075 2825.59,228.709 2824.78,219.343 2824.38,209.977 2824.31,200.611 2824.53,191.245 2824.97,181.88 2825.59,172.514 2826.32,163.148 2827.11,153.782 2827.93,144.416 2828.71,135.05 2829.42,125.684 2830.02,116.318 2830.49,106.953 2830.78,97.5867 2830.89,88.2208 2732.59,88.2208 2732.7,97.5867 2733,106.953 2733.46,116.318 2734.07,125.684 2734.78,135.05 2735.56,144.416 2736.37,153.782 2737.17,163.148 2737.9,172.514 2738.51,181.88 2738.96,191.245 2739.18,200.611 2739.11,209.977 2738.7,219.343 2737.9,228.709 2736.64,238.075 2734.88,247.441 2732.56,256.806 2729.65,266.172 2726.1,275.538 2721.88,284.904 2716.96,294.27 2711.32,303.636 2704.97,313.002 2697.89,322.368 2690.1,331.733 2681.63,341.099 2672.51,350.465 2662.79,359.831 2652.53,369.197 2641.8,378.563 2630.69,387.929 2619.29,397.295 2607.71,406.66 2596.06,416.026 2584.45,425.392 2573.02,434.758 2561.89,444.124 2551.19,453.49 2541.03,462.856 2531.54,472.221 2522.82,481.587 2514.98,490.953 2508.1,500.319 2502.24,509.685 2497.47,519.051 2493.82,528.417 2491.3,537.783 2489.9,547.148 2489.61,556.514 2490.36,565.88 2492.11,575.246 2494.77,584.612 2498.24,593.978 2502.41,603.344 2507.17,612.71 2512.38,622.075 2517.93,631.441 2523.68,640.807 2529.51,650.173 2535.29,659.539 2540.92,668.905 2546.3,678.271 2551.34,687.637 2555.98,697.002 2560.15,706.368 2563.84,715.734 2567.01,725.1 2569.69,734.466 2571.88,743.832 2573.62,753.198 2574.96,762.563 2575.97,771.929 2576.73,781.295 2577.3,790.661 2577.79,800.027 2578.27,809.393 2578.85,818.759 2579.6,828.125 2580.62,837.49 2581.97,846.856 2583.72,856.222 2585.93,865.588 2588.64,874.954 2591.88,884.32 2595.68,893.686 2600.02,903.052 2963.46,903.052 "/>
</svg>
