<?xml version="1.0" encoding="utf-8"?>
<svg xmlns="http://www.w3.org/2000/svg" xmlns:xlink="http://www.w3.org/1999/xlink" width="600" height="400" viewBox="0 0 2400 1600">
<defs>
  <clipPath id="clip110">
    <rect x="0" y="0" width="2400" height="1600"/>
  </clipPath>
</defs>
<path clip-path="url(#clip110)" d="M0 1600 L2400 1600 L2400 0 L0 0  Z" fill="#ffffff" fill-rule="evenodd" fill-opacity="1"/>
<defs>
  <clipPath id="clip111">
    <rect x="265" y="47" width="2088" height="1377"/>
  </clipPath>
</defs>
<path clip-path="url(#clip110)" d="M265.445 1423.18 L2352.76 1423.18 L2352.76 47.2441 L265.445 47.2441  Z" fill="#ffffff" fill-rule="evenodd" fill-opacity="1"/>
<polyline clip-path="url(#clip111)" style="stroke:#000000; stroke-linecap:round; stroke-linejoin:round; stroke-width:2; stroke-opacity:0.1; fill:none" points="304.629,1423.18 304.629,47.2441 "/>
<polyline clip-path="url(#clip111)" style="stroke:#000000; stroke-linecap:round; stroke-linejoin:round; stroke-width:2; stroke-opacity:0.1; fill:none" points="801.892,1423.18 801.892,47.2441 "/>
<polyline clip-path="url(#clip111)" style="stroke:#000000; stroke-linecap:round; stroke-linejoin:round; stroke-width:2; stroke-opacity:0.1; fill:none" points="1299.16,1423.18 1299.16,47.2441 "/>
<polyline clip-path="url(#clip111)" style="stroke:#000000; stroke-linecap:round; stroke-linejoin:round; stroke-width:2; stroke-opacity:0.1; fill:none" points="1796.42,1423.18 1796.42,47.2441 "/>
<polyline clip-path="url(#clip111)" style="stroke:#000000; stroke-linecap:round; stroke-linejoin:round; stroke-width:2; stroke-opacity:0.1; fill:none" points="2293.68,1423.18 2293.68,47.2441 "/>
<polyline clip-path="url(#clip111)" style="stroke:#000000; stroke-linecap:round; stroke-linejoin:round; stroke-width:2; stroke-opacity:0.1; fill:none" points="265.445,1334.24 2352.76,1334.24 "/>
<polyline clip-path="url(#clip111)" style="stroke:#000000; stroke-linecap:round; stroke-linejoin:round; stroke-width:2; stroke-opacity:0.1; fill:none" points="265.445,1084.46 2352.76,1084.46 "/>
<polyline clip-path="url(#clip111)" style="stroke:#000000; stroke-linecap:round; stroke-linejoin:round; stroke-width:2; stroke-opacity:0.1; fill:none" points="265.445,834.68 2352.76,834.68 "/>
<polyline clip-path="url(#clip111)" style="stroke:#000000; stroke-linecap:round; stroke-linejoin:round; stroke-width:2; stroke-opacity:0.1; fill:none" points="265.445,584.901 2352.76,584.901 "/>
<polyline clip-path="url(#clip111)" style="stroke:#000000; stroke-linecap:round; stroke-linejoin:round; stroke-width:2; stroke-opacity:0.1; fill:none" points="265.445,335.121 2352.76,335.121 "/>
<polyline clip-path="url(#clip111)" style="stroke:#000000; stroke-linecap:round; stroke-linejoin:round; stroke-width:2; stroke-opacity:0.1; fill:none" points="265.445,85.342 2352.76,85.342 "/>
<polyline clip-path="url(#clip110)" style="stroke:#000000; stroke-linecap:round; stroke-linejoin:round; stroke-width:4; stroke-opacity:1; fill:none" points="265.445,1423.18 2352.76,1423.18 "/>
<polyline clip-path="url(#clip110)" style="stroke:#000000; stroke-linecap:round; stroke-linejoin:round; stroke-width:4; stroke-opacity:1; fill:none" points="304.629,1423.18 304.629,1404.28 "/>
<polyline clip-path="url(#clip110)" style="stroke:#000000; stroke-linecap:round; stroke-linejoin:round; stroke-width:4; stroke-opacity:1; fill:none" points="801.892,1423.18 801.892,1404.28 "/>
<polyline clip-path="url(#clip110)" style="stroke:#000000; stroke-linecap:round; stroke-linejoin:round; stroke-width:4; stroke-opacity:1; fill:none" points="1299.16,1423.18 1299.16,1404.28 "/>
<polyline clip-path="url(#clip110)" style="stroke:#000000; stroke-linecap:round; stroke-linejoin:round; stroke-width:4; stroke-opacity:1; fill:none" points="1796.42,1423.18 1796.42,1404.28 "/>
<polyline clip-path="url(#clip110)" style="stroke:#000000; stroke-linecap:round; stroke-linejoin:round; stroke-width:4; stroke-opacity:1; fill:none" points="2293.68,1423.18 2293.68,1404.28 "/>
<path clip-path="url(#clip110)" d="M304.629 1454.1 Q301.018 1454.1 299.189 1457.66 Q297.384 1461.2 297.384 1468.33 Q297.384 1475.44 299.189 1479.01 Q301.018 1482.55 304.629 1482.55 Q308.263 1482.55 310.069 1479.01 Q311.898 1475.44 311.898 1468.33 Q311.898 1461.2 310.069 1457.66 Q308.263 1454.1 304.629 1454.1 M304.629 1450.39 Q310.439 1450.39 313.495 1455 Q316.573 1459.58 316.573 1468.33 Q316.573 1477.06 313.495 1481.67 Q310.439 1486.25 304.629 1486.25 Q298.819 1486.25 295.74 1481.67 Q292.685 1477.06 292.685 1468.33 Q292.685 1459.58 295.74 1455 Q298.819 1450.39 304.629 1450.39 Z" fill="#000000" fill-rule="nonzero" fill-opacity="1" /><path clip-path="url(#clip110)" d="M765.584 1481.64 L781.904 1481.64 L781.904 1485.58 L759.959 1485.58 L759.959 1481.64 Q762.621 1478.89 767.205 1474.26 Q771.811 1469.61 772.992 1468.27 Q775.237 1465.74 776.117 1464.01 Q777.02 1462.25 777.02 1460.56 Q777.02 1457.8 775.075 1456.07 Q773.154 1454.33 770.052 1454.33 Q767.853 1454.33 765.399 1455.09 Q762.969 1455.86 760.191 1457.41 L760.191 1452.69 Q763.015 1451.55 765.469 1450.97 Q767.922 1450.39 769.959 1450.39 Q775.33 1450.39 778.524 1453.08 Q781.719 1455.77 781.719 1460.26 Q781.719 1462.39 780.908 1464.31 Q780.121 1466.2 778.015 1468.8 Q777.436 1469.47 774.334 1472.69 Q771.232 1475.88 765.584 1481.64 Z" fill="#000000" fill-rule="nonzero" fill-opacity="1" /><path clip-path="url(#clip110)" d="M791.765 1451.02 L810.121 1451.02 L810.121 1454.96 L796.047 1454.96 L796.047 1463.43 Q797.066 1463.08 798.084 1462.92 Q799.103 1462.73 800.121 1462.73 Q805.908 1462.73 809.288 1465.9 Q812.667 1469.08 812.667 1474.49 Q812.667 1480.07 809.195 1483.17 Q805.723 1486.25 799.404 1486.25 Q797.228 1486.25 794.959 1485.88 Q792.714 1485.51 790.306 1484.77 L790.306 1480.07 Q792.39 1481.2 794.612 1481.76 Q796.834 1482.32 799.311 1482.32 Q803.316 1482.32 805.654 1480.21 Q807.992 1478.1 807.992 1474.49 Q807.992 1470.88 805.654 1468.77 Q803.316 1466.67 799.311 1466.67 Q797.436 1466.67 795.561 1467.08 Q793.709 1467.5 791.765 1468.38 L791.765 1451.02 Z" fill="#000000" fill-rule="nonzero" fill-opacity="1" /><path clip-path="url(#clip110)" d="M831.88 1454.1 Q828.269 1454.1 826.441 1457.66 Q824.635 1461.2 824.635 1468.33 Q824.635 1475.44 826.441 1479.01 Q828.269 1482.55 831.88 1482.55 Q835.515 1482.55 837.32 1479.01 Q839.149 1475.44 839.149 1468.33 Q839.149 1461.2 837.32 1457.66 Q835.515 1454.1 831.88 1454.1 M831.88 1450.39 Q837.69 1450.39 840.746 1455 Q843.825 1459.58 843.825 1468.33 Q843.825 1477.06 840.746 1481.67 Q837.69 1486.25 831.88 1486.25 Q826.07 1486.25 822.991 1481.67 Q819.936 1477.06 819.936 1468.33 Q819.936 1459.58 822.991 1455 Q826.07 1450.39 831.88 1450.39 Z" fill="#000000" fill-rule="nonzero" fill-opacity="1" /><path clip-path="url(#clip110)" d="M1258.77 1451.02 L1277.13 1451.02 L1277.13 1454.96 L1263.06 1454.96 L1263.06 1463.43 Q1264.07 1463.08 1265.09 1462.92 Q1266.11 1462.73 1267.13 1462.73 Q1272.92 1462.73 1276.3 1465.9 Q1279.68 1469.08 1279.68 1474.49 Q1279.68 1480.07 1276.2 1483.17 Q1272.73 1486.25 1266.41 1486.25 Q1264.24 1486.25 1261.97 1485.88 Q1259.72 1485.51 1257.32 1484.77 L1257.32 1480.07 Q1259.4 1481.2 1261.62 1481.76 Q1263.84 1482.32 1266.32 1482.32 Q1270.32 1482.32 1272.66 1480.21 Q1275 1478.1 1275 1474.49 Q1275 1470.88 1272.66 1468.77 Q1270.32 1466.67 1266.32 1466.67 Q1264.44 1466.67 1262.57 1467.08 Q1260.72 1467.5 1258.77 1468.38 L1258.77 1451.02 Z" fill="#000000" fill-rule="nonzero" fill-opacity="1" /><path clip-path="url(#clip110)" d="M1298.89 1454.1 Q1295.28 1454.1 1293.45 1457.66 Q1291.64 1461.2 1291.64 1468.33 Q1291.64 1475.44 1293.45 1479.01 Q1295.28 1482.55 1298.89 1482.55 Q1302.52 1482.55 1304.33 1479.01 Q1306.16 1475.44 1306.16 1468.33 Q1306.16 1461.2 1304.33 1457.66 Q1302.52 1454.1 1298.89 1454.1 M1298.89 1450.39 Q1304.7 1450.39 1307.75 1455 Q1310.83 1459.58 1310.83 1468.33 Q1310.83 1477.06 1307.75 1481.67 Q1304.7 1486.25 1298.89 1486.25 Q1293.08 1486.25 1290 1481.67 Q1286.94 1477.06 1286.94 1468.33 Q1286.94 1459.58 1290 1455 Q1293.08 1450.39 1298.89 1450.39 Z" fill="#000000" fill-rule="nonzero" fill-opacity="1" /><path clip-path="url(#clip110)" d="M1329.05 1454.1 Q1325.44 1454.1 1323.61 1457.66 Q1321.81 1461.2 1321.81 1468.33 Q1321.81 1475.44 1323.61 1479.01 Q1325.44 1482.55 1329.05 1482.55 Q1332.68 1482.55 1334.49 1479.01 Q1336.32 1475.44 1336.32 1468.33 Q1336.32 1461.2 1334.49 1457.66 Q1332.68 1454.1 1329.05 1454.1 M1329.05 1450.39 Q1334.86 1450.39 1337.92 1455 Q1341 1459.58 1341 1468.33 Q1341 1477.06 1337.92 1481.67 Q1334.86 1486.25 1329.05 1486.25 Q1323.24 1486.25 1320.16 1481.67 Q1317.11 1477.06 1317.11 1468.33 Q1317.11 1459.58 1320.16 1455 Q1323.24 1450.39 1329.05 1450.39 Z" fill="#000000" fill-rule="nonzero" fill-opacity="1" /><path clip-path="url(#clip110)" d="M1754.69 1451.02 L1776.92 1451.02 L1776.92 1453.01 L1764.37 1485.58 L1759.49 1485.58 L1771.29 1454.96 L1754.69 1454.96 L1754.69 1451.02 Z" fill="#000000" fill-rule="nonzero" fill-opacity="1" /><path clip-path="url(#clip110)" d="M1786.08 1451.02 L1804.44 1451.02 L1804.44 1454.96 L1790.36 1454.96 L1790.36 1463.43 Q1791.38 1463.08 1792.4 1462.92 Q1793.42 1462.73 1794.44 1462.73 Q1800.23 1462.73 1803.61 1465.9 Q1806.99 1469.08 1806.99 1474.49 Q1806.99 1480.07 1803.51 1483.17 Q1800.04 1486.25 1793.72 1486.25 Q1791.55 1486.25 1789.28 1485.88 Q1787.03 1485.51 1784.62 1484.77 L1784.62 1480.07 Q1786.71 1481.2 1788.93 1481.76 Q1791.15 1482.32 1793.63 1482.32 Q1797.63 1482.32 1799.97 1480.21 Q1802.31 1478.1 1802.31 1474.49 Q1802.31 1470.88 1799.97 1468.77 Q1797.63 1466.67 1793.63 1466.67 Q1791.75 1466.67 1789.88 1467.08 Q1788.03 1467.5 1786.08 1468.38 L1786.08 1451.02 Z" fill="#000000" fill-rule="nonzero" fill-opacity="1" /><path clip-path="url(#clip110)" d="M1826.2 1454.1 Q1822.59 1454.1 1820.76 1457.66 Q1818.95 1461.2 1818.95 1468.33 Q1818.95 1475.44 1820.76 1479.01 Q1822.59 1482.55 1826.2 1482.55 Q1829.83 1482.55 1831.64 1479.01 Q1833.47 1475.44 1833.47 1468.33 Q1833.47 1461.2 1831.64 1457.66 Q1829.83 1454.1 1826.2 1454.1 M1826.2 1450.39 Q1832.01 1450.39 1835.06 1455 Q1838.14 1459.58 1838.14 1468.33 Q1838.14 1477.06 1835.06 1481.67 Q1832.01 1486.25 1826.2 1486.25 Q1820.39 1486.25 1817.31 1481.67 Q1814.25 1477.06 1814.25 1468.33 Q1814.25 1459.58 1817.31 1455 Q1820.39 1450.39 1826.2 1450.39 Z" fill="#000000" fill-rule="nonzero" fill-opacity="1" /><path clip-path="url(#clip110)" d="M2238.21 1481.64 L2245.85 1481.64 L2245.85 1455.28 L2237.54 1456.95 L2237.54 1452.69 L2245.8 1451.02 L2250.48 1451.02 L2250.48 1481.64 L2258.11 1481.64 L2258.11 1485.58 L2238.21 1485.58 L2238.21 1481.64 Z" fill="#000000" fill-rule="nonzero" fill-opacity="1" /><path clip-path="url(#clip110)" d="M2277.56 1454.1 Q2273.95 1454.1 2272.12 1457.66 Q2270.31 1461.2 2270.31 1468.33 Q2270.31 1475.44 2272.12 1479.01 Q2273.95 1482.55 2277.56 1482.55 Q2281.19 1482.55 2283 1479.01 Q2284.83 1475.44 2284.83 1468.33 Q2284.83 1461.2 2283 1457.66 Q2281.19 1454.1 2277.56 1454.1 M2277.56 1450.39 Q2283.37 1450.39 2286.42 1455 Q2289.5 1459.58 2289.5 1468.33 Q2289.5 1477.06 2286.42 1481.67 Q2283.37 1486.25 2277.56 1486.25 Q2271.75 1486.25 2268.67 1481.67 Q2265.61 1477.06 2265.61 1468.33 Q2265.61 1459.58 2268.67 1455 Q2271.75 1450.39 2277.56 1450.39 Z" fill="#000000" fill-rule="nonzero" fill-opacity="1" /><path clip-path="url(#clip110)" d="M2307.72 1454.1 Q2304.11 1454.1 2302.28 1457.66 Q2300.48 1461.2 2300.48 1468.33 Q2300.48 1475.44 2302.28 1479.01 Q2304.11 1482.55 2307.72 1482.55 Q2311.35 1482.55 2313.16 1479.01 Q2314.99 1475.44 2314.99 1468.33 Q2314.99 1461.2 2313.16 1457.66 Q2311.35 1454.1 2307.72 1454.1 M2307.72 1450.39 Q2313.53 1450.39 2316.59 1455 Q2319.66 1459.58 2319.66 1468.33 Q2319.66 1477.06 2316.59 1481.67 Q2313.53 1486.25 2307.72 1486.25 Q2301.91 1486.25 2298.83 1481.67 Q2295.78 1477.06 2295.78 1468.33 Q2295.78 1459.58 2298.83 1455 Q2301.91 1450.39 2307.72 1450.39 Z" fill="#000000" fill-rule="nonzero" fill-opacity="1" /><path clip-path="url(#clip110)" d="M2337.88 1454.1 Q2334.27 1454.1 2332.44 1457.66 Q2330.64 1461.2 2330.64 1468.33 Q2330.64 1475.44 2332.44 1479.01 Q2334.27 1482.55 2337.88 1482.55 Q2341.52 1482.55 2343.32 1479.01 Q2345.15 1475.44 2345.15 1468.33 Q2345.15 1461.2 2343.32 1457.66 Q2341.52 1454.1 2337.88 1454.1 M2337.88 1450.39 Q2343.69 1450.39 2346.75 1455 Q2349.83 1459.58 2349.83 1468.33 Q2349.83 1477.06 2346.75 1481.67 Q2343.69 1486.25 2337.88 1486.25 Q2332.07 1486.25 2328.99 1481.67 Q2325.94 1477.06 2325.94 1468.33 Q2325.94 1459.58 2328.99 1455 Q2332.07 1450.39 2337.88 1450.39 Z" fill="#000000" fill-rule="nonzero" fill-opacity="1" /><path clip-path="url(#clip110)" d="M1306.17 1518.52 L1312.03 1518.52 L1312.03 1568.04 L1306.17 1568.04 L1306.17 1518.52 Z" fill="#000000" fill-rule="nonzero" fill-opacity="1" /><polyline clip-path="url(#clip110)" style="stroke:#000000; stroke-linecap:round; stroke-linejoin:round; stroke-width:4; stroke-opacity:1; fill:none" points="265.445,1423.18 265.445,47.2441 "/>
<polyline clip-path="url(#clip110)" style="stroke:#000000; stroke-linecap:round; stroke-linejoin:round; stroke-width:4; stroke-opacity:1; fill:none" points="265.445,1334.24 284.342,1334.24 "/>
<polyline clip-path="url(#clip110)" style="stroke:#000000; stroke-linecap:round; stroke-linejoin:round; stroke-width:4; stroke-opacity:1; fill:none" points="265.445,1084.46 284.342,1084.46 "/>
<polyline clip-path="url(#clip110)" style="stroke:#000000; stroke-linecap:round; stroke-linejoin:round; stroke-width:4; stroke-opacity:1; fill:none" points="265.445,834.68 284.342,834.68 "/>
<polyline clip-path="url(#clip110)" style="stroke:#000000; stroke-linecap:round; stroke-linejoin:round; stroke-width:4; stroke-opacity:1; fill:none" points="265.445,584.901 284.342,584.901 "/>
<polyline clip-path="url(#clip110)" style="stroke:#000000; stroke-linecap:round; stroke-linejoin:round; stroke-width:4; stroke-opacity:1; fill:none" points="265.445,335.121 284.342,335.121 "/>
<polyline clip-path="url(#clip110)" style="stroke:#000000; stroke-linecap:round; stroke-linejoin:round; stroke-width:4; stroke-opacity:1; fill:none" points="265.445,85.342 284.342,85.342 "/>
<path clip-path="url(#clip110)" d="M117.825 1347.58 L125.464 1347.58 L125.464 1321.22 L117.154 1322.88 L117.154 1318.63 L125.418 1316.96 L130.093 1316.96 L130.093 1347.58 L137.732 1347.58 L137.732 1351.52 L117.825 1351.52 L117.825 1347.58 Z" fill="#000000" fill-rule="nonzero" fill-opacity="1" /><path clip-path="url(#clip110)" d="M157.177 1320.04 Q153.566 1320.04 151.737 1323.6 Q149.931 1327.14 149.931 1334.27 Q149.931 1341.38 151.737 1344.95 Q153.566 1348.49 157.177 1348.49 Q160.811 1348.49 162.616 1344.95 Q164.445 1341.38 164.445 1334.27 Q164.445 1327.14 162.616 1323.6 Q160.811 1320.04 157.177 1320.04 M157.177 1316.33 Q162.987 1316.33 166.042 1320.94 Q169.121 1325.52 169.121 1334.27 Q169.121 1343 166.042 1347.61 Q162.987 1352.19 157.177 1352.19 Q151.366 1352.19 148.288 1347.61 Q145.232 1343 145.232 1334.27 Q145.232 1325.52 148.288 1320.94 Q151.366 1316.33 157.177 1316.33 Z" fill="#000000" fill-rule="nonzero" fill-opacity="1" /><path clip-path="url(#clip110)" d="M187.338 1320.04 Q183.727 1320.04 181.899 1323.6 Q180.093 1327.14 180.093 1334.27 Q180.093 1341.38 181.899 1344.95 Q183.727 1348.49 187.338 1348.49 Q190.973 1348.49 192.778 1344.95 Q194.607 1341.38 194.607 1334.27 Q194.607 1327.14 192.778 1323.6 Q190.973 1320.04 187.338 1320.04 M187.338 1316.33 Q193.149 1316.33 196.204 1320.94 Q199.283 1325.52 199.283 1334.27 Q199.283 1343 196.204 1347.61 Q193.149 1352.19 187.338 1352.19 Q181.528 1352.19 178.45 1347.61 Q175.394 1343 175.394 1334.27 Q175.394 1325.52 178.45 1320.94 Q181.528 1316.33 187.338 1316.33 Z" fill="#000000" fill-rule="nonzero" fill-opacity="1" /><path clip-path="url(#clip110)" d="M217.5 1320.04 Q213.889 1320.04 212.061 1323.6 Q210.255 1327.14 210.255 1334.27 Q210.255 1341.38 212.061 1344.95 Q213.889 1348.49 217.5 1348.49 Q221.135 1348.49 222.94 1344.95 Q224.769 1341.38 224.769 1334.27 Q224.769 1327.14 222.94 1323.6 Q221.135 1320.04 217.5 1320.04 M217.5 1316.33 Q223.31 1316.33 226.366 1320.94 Q229.445 1325.52 229.445 1334.27 Q229.445 1343 226.366 1347.61 Q223.31 1352.19 217.5 1352.19 Q211.69 1352.19 208.612 1347.61 Q205.556 1343 205.556 1334.27 Q205.556 1325.52 208.612 1320.94 Q211.69 1316.33 217.5 1316.33 Z" fill="#000000" fill-rule="nonzero" fill-opacity="1" /><path clip-path="url(#clip110)" d="M121.043 1097.8 L137.362 1097.8 L137.362 1101.74 L115.418 1101.74 L115.418 1097.8 Q118.08 1095.05 122.663 1090.42 Q127.269 1085.77 128.45 1084.42 Q130.695 1081.9 131.575 1080.17 Q132.478 1078.41 132.478 1076.72 Q132.478 1073.96 130.533 1072.23 Q128.612 1070.49 125.51 1070.49 Q123.311 1070.49 120.857 1071.25 Q118.427 1072.02 115.649 1073.57 L115.649 1068.85 Q118.473 1067.71 120.927 1067.13 Q123.38 1066.55 125.418 1066.55 Q130.788 1066.55 133.982 1069.24 Q137.177 1071.93 137.177 1076.42 Q137.177 1078.55 136.367 1080.47 Q135.579 1082.36 133.473 1084.96 Q132.894 1085.63 129.792 1088.85 Q126.691 1092.04 121.043 1097.8 Z" fill="#000000" fill-rule="nonzero" fill-opacity="1" /><path clip-path="url(#clip110)" d="M157.177 1070.26 Q153.566 1070.26 151.737 1073.82 Q149.931 1077.36 149.931 1084.49 Q149.931 1091.6 151.737 1095.17 Q153.566 1098.71 157.177 1098.71 Q160.811 1098.71 162.616 1095.17 Q164.445 1091.6 164.445 1084.49 Q164.445 1077.36 162.616 1073.82 Q160.811 1070.26 157.177 1070.26 M157.177 1066.55 Q162.987 1066.55 166.042 1071.16 Q169.121 1075.74 169.121 1084.49 Q169.121 1093.22 166.042 1097.83 Q162.987 1102.41 157.177 1102.41 Q151.366 1102.41 148.288 1097.83 Q145.232 1093.22 145.232 1084.49 Q145.232 1075.74 148.288 1071.16 Q151.366 1066.55 157.177 1066.55 Z" fill="#000000" fill-rule="nonzero" fill-opacity="1" /><path clip-path="url(#clip110)" d="M187.338 1070.26 Q183.727 1070.26 181.899 1073.82 Q180.093 1077.36 180.093 1084.49 Q180.093 1091.6 181.899 1095.17 Q183.727 1098.71 187.338 1098.71 Q190.973 1098.71 192.778 1095.17 Q194.607 1091.6 194.607 1084.49 Q194.607 1077.36 192.778 1073.82 Q190.973 1070.26 187.338 1070.26 M187.338 1066.55 Q193.149 1066.55 196.204 1071.16 Q199.283 1075.74 199.283 1084.49 Q199.283 1093.22 196.204 1097.83 Q193.149 1102.41 187.338 1102.41 Q181.528 1102.41 178.45 1097.83 Q175.394 1093.22 175.394 1084.49 Q175.394 1075.74 178.45 1071.16 Q181.528 1066.55 187.338 1066.55 Z" fill="#000000" fill-rule="nonzero" fill-opacity="1" /><path clip-path="url(#clip110)" d="M217.5 1070.26 Q213.889 1070.26 212.061 1073.82 Q210.255 1077.36 210.255 1084.49 Q210.255 1091.6 212.061 1095.17 Q213.889 1098.71 217.5 1098.71 Q221.135 1098.71 222.94 1095.17 Q224.769 1091.6 224.769 1084.49 Q224.769 1077.36 222.94 1073.82 Q221.135 1070.26 217.5 1070.26 M217.5 1066.55 Q223.31 1066.55 226.366 1071.16 Q229.445 1075.74 229.445 1084.49 Q229.445 1093.22 226.366 1097.83 Q223.31 1102.41 217.5 1102.41 Q211.69 1102.41 208.612 1097.83 Q205.556 1093.22 205.556 1084.49 Q205.556 1075.74 208.612 1071.16 Q211.69 1066.55 217.5 1066.55 Z" fill="#000000" fill-rule="nonzero" fill-opacity="1" /><path clip-path="url(#clip110)" d="M131.181 833.326 Q134.538 834.044 136.413 836.312 Q138.311 838.581 138.311 841.914 Q138.311 847.03 134.792 849.831 Q131.274 852.632 124.793 852.632 Q122.617 852.632 120.302 852.192 Q118.01 851.775 115.556 850.919 L115.556 846.405 Q117.501 847.539 119.816 848.118 Q122.13 848.696 124.654 848.696 Q129.052 848.696 131.343 846.96 Q133.658 845.224 133.658 841.914 Q133.658 838.858 131.505 837.146 Q129.376 835.409 125.556 835.409 L121.529 835.409 L121.529 831.567 L125.742 831.567 Q129.191 831.567 131.019 830.201 Q132.848 828.812 132.848 826.22 Q132.848 823.558 130.95 822.146 Q129.075 820.71 125.556 820.71 Q123.635 820.71 121.436 821.127 Q119.237 821.544 116.598 822.423 L116.598 818.257 Q119.26 817.516 121.575 817.146 Q123.913 816.775 125.973 816.775 Q131.297 816.775 134.399 819.206 Q137.501 821.613 137.501 825.734 Q137.501 828.604 135.857 830.595 Q134.214 832.562 131.181 833.326 Z" fill="#000000" fill-rule="nonzero" fill-opacity="1" /><path clip-path="url(#clip110)" d="M157.177 820.479 Q153.566 820.479 151.737 824.044 Q149.931 827.585 149.931 834.715 Q149.931 841.821 151.737 845.386 Q153.566 848.928 157.177 848.928 Q160.811 848.928 162.616 845.386 Q164.445 841.821 164.445 834.715 Q164.445 827.585 162.616 824.044 Q160.811 820.479 157.177 820.479 M157.177 816.775 Q162.987 816.775 166.042 821.382 Q169.121 825.965 169.121 834.715 Q169.121 843.442 166.042 848.048 Q162.987 852.632 157.177 852.632 Q151.366 852.632 148.288 848.048 Q145.232 843.442 145.232 834.715 Q145.232 825.965 148.288 821.382 Q151.366 816.775 157.177 816.775 Z" fill="#000000" fill-rule="nonzero" fill-opacity="1" /><path clip-path="url(#clip110)" d="M187.338 820.479 Q183.727 820.479 181.899 824.044 Q180.093 827.585 180.093 834.715 Q180.093 841.821 181.899 845.386 Q183.727 848.928 187.338 848.928 Q190.973 848.928 192.778 845.386 Q194.607 841.821 194.607 834.715 Q194.607 827.585 192.778 824.044 Q190.973 820.479 187.338 820.479 M187.338 816.775 Q193.149 816.775 196.204 821.382 Q199.283 825.965 199.283 834.715 Q199.283 843.442 196.204 848.048 Q193.149 852.632 187.338 852.632 Q181.528 852.632 178.45 848.048 Q175.394 843.442 175.394 834.715 Q175.394 825.965 178.45 821.382 Q181.528 816.775 187.338 816.775 Z" fill="#000000" fill-rule="nonzero" fill-opacity="1" /><path clip-path="url(#clip110)" d="M217.5 820.479 Q213.889 820.479 212.061 824.044 Q210.255 827.585 210.255 834.715 Q210.255 841.821 212.061 845.386 Q213.889 848.928 217.5 848.928 Q221.135 848.928 222.94 845.386 Q224.769 841.821 224.769 834.715 Q224.769 827.585 222.94 824.044 Q221.135 820.479 217.5 820.479 M217.5 816.775 Q223.31 816.775 226.366 821.382 Q229.445 825.965 229.445 834.715 Q229.445 843.442 226.366 848.048 Q223.31 852.632 217.5 852.632 Q211.69 852.632 208.612 848.048 Q205.556 843.442 205.556 834.715 Q205.556 825.965 208.612 821.382 Q211.69 816.775 217.5 816.775 Z" fill="#000000" fill-rule="nonzero" fill-opacity="1" /><path clip-path="url(#clip110)" d="M129.862 571.695 L118.056 590.144 L129.862 590.144 L129.862 571.695 M128.635 567.621 L134.515 567.621 L134.515 590.144 L139.445 590.144 L139.445 594.033 L134.515 594.033 L134.515 602.181 L129.862 602.181 L129.862 594.033 L114.26 594.033 L114.26 589.519 L128.635 567.621 Z" fill="#000000" fill-rule="nonzero" fill-opacity="1" /><path clip-path="url(#clip110)" d="M157.177 570.7 Q153.566 570.7 151.737 574.264 Q149.931 577.806 149.931 584.936 Q149.931 592.042 151.737 595.607 Q153.566 599.148 157.177 599.148 Q160.811 599.148 162.616 595.607 Q164.445 592.042 164.445 584.936 Q164.445 577.806 162.616 574.264 Q160.811 570.7 157.177 570.7 M157.177 566.996 Q162.987 566.996 166.042 571.602 Q169.121 576.186 169.121 584.936 Q169.121 593.662 166.042 598.269 Q162.987 602.852 157.177 602.852 Q151.366 602.852 148.288 598.269 Q145.232 593.662 145.232 584.936 Q145.232 576.186 148.288 571.602 Q151.366 566.996 157.177 566.996 Z" fill="#000000" fill-rule="nonzero" fill-opacity="1" /><path clip-path="url(#clip110)" d="M187.338 570.7 Q183.727 570.7 181.899 574.264 Q180.093 577.806 180.093 584.936 Q180.093 592.042 181.899 595.607 Q183.727 599.148 187.338 599.148 Q190.973 599.148 192.778 595.607 Q194.607 592.042 194.607 584.936 Q194.607 577.806 192.778 574.264 Q190.973 570.7 187.338 570.7 M187.338 566.996 Q193.149 566.996 196.204 571.602 Q199.283 576.186 199.283 584.936 Q199.283 593.662 196.204 598.269 Q193.149 602.852 187.338 602.852 Q181.528 602.852 178.45 598.269 Q175.394 593.662 175.394 584.936 Q175.394 576.186 178.45 571.602 Q181.528 566.996 187.338 566.996 Z" fill="#000000" fill-rule="nonzero" fill-opacity="1" /><path clip-path="url(#clip110)" d="M217.5 570.7 Q213.889 570.7 212.061 574.264 Q210.255 577.806 210.255 584.936 Q210.255 592.042 212.061 595.607 Q213.889 599.148 217.5 599.148 Q221.135 599.148 222.94 595.607 Q224.769 592.042 224.769 584.936 Q224.769 577.806 222.94 574.264 Q221.135 570.7 217.5 570.7 M217.5 566.996 Q223.31 566.996 226.366 571.602 Q229.445 576.186 229.445 584.936 Q229.445 593.662 226.366 598.269 Q223.31 602.852 217.5 602.852 Q211.69 602.852 208.612 598.269 Q205.556 593.662 205.556 584.936 Q205.556 576.186 208.612 571.602 Q211.69 566.996 217.5 566.996 Z" fill="#000000" fill-rule="nonzero" fill-opacity="1" /><path clip-path="url(#clip110)" d="M117.061 317.841 L135.417 317.841 L135.417 321.777 L121.343 321.777 L121.343 330.249 Q122.362 329.902 123.38 329.74 Q124.399 329.554 125.418 329.554 Q131.205 329.554 134.584 332.726 Q137.964 335.897 137.964 341.314 Q137.964 346.892 134.492 349.994 Q131.019 353.073 124.7 353.073 Q122.524 353.073 120.255 352.702 Q118.01 352.332 115.603 351.591 L115.603 346.892 Q117.686 348.026 119.908 348.582 Q122.13 349.138 124.607 349.138 Q128.612 349.138 130.95 347.031 Q133.288 344.925 133.288 341.314 Q133.288 337.702 130.95 335.596 Q128.612 333.49 124.607 333.49 Q122.732 333.49 120.857 333.906 Q119.006 334.323 117.061 335.202 L117.061 317.841 Z" fill="#000000" fill-rule="nonzero" fill-opacity="1" /><path clip-path="url(#clip110)" d="M157.177 320.92 Q153.566 320.92 151.737 324.485 Q149.931 328.027 149.931 335.156 Q149.931 342.263 151.737 345.827 Q153.566 349.369 157.177 349.369 Q160.811 349.369 162.616 345.827 Q164.445 342.263 164.445 335.156 Q164.445 328.027 162.616 324.485 Q160.811 320.92 157.177 320.92 M157.177 317.216 Q162.987 317.216 166.042 321.823 Q169.121 326.406 169.121 335.156 Q169.121 343.883 166.042 348.489 Q162.987 353.073 157.177 353.073 Q151.366 353.073 148.288 348.489 Q145.232 343.883 145.232 335.156 Q145.232 326.406 148.288 321.823 Q151.366 317.216 157.177 317.216 Z" fill="#000000" fill-rule="nonzero" fill-opacity="1" /><path clip-path="url(#clip110)" d="M187.338 320.92 Q183.727 320.92 181.899 324.485 Q180.093 328.027 180.093 335.156 Q180.093 342.263 181.899 345.827 Q183.727 349.369 187.338 349.369 Q190.973 349.369 192.778 345.827 Q194.607 342.263 194.607 335.156 Q194.607 328.027 192.778 324.485 Q190.973 320.92 187.338 320.92 M187.338 317.216 Q193.149 317.216 196.204 321.823 Q199.283 326.406 199.283 335.156 Q199.283 343.883 196.204 348.489 Q193.149 353.073 187.338 353.073 Q181.528 353.073 178.45 348.489 Q175.394 343.883 175.394 335.156 Q175.394 326.406 178.45 321.823 Q181.528 317.216 187.338 317.216 Z" fill="#000000" fill-rule="nonzero" fill-opacity="1" /><path clip-path="url(#clip110)" d="M217.5 320.92 Q213.889 320.92 212.061 324.485 Q210.255 328.027 210.255 335.156 Q210.255 342.263 212.061 345.827 Q213.889 349.369 217.5 349.369 Q221.135 349.369 222.94 345.827 Q224.769 342.263 224.769 335.156 Q224.769 328.027 222.94 324.485 Q221.135 320.92 217.5 320.92 M217.5 317.216 Q223.31 317.216 226.366 321.823 Q229.445 326.406 229.445 335.156 Q229.445 343.883 226.366 348.489 Q223.31 353.073 217.5 353.073 Q211.69 353.073 208.612 348.489 Q205.556 343.883 205.556 335.156 Q205.556 326.406 208.612 321.823 Q211.69 317.216 217.5 317.216 Z" fill="#000000" fill-rule="nonzero" fill-opacity="1" /><path clip-path="url(#clip110)" d="M127.593 83.4786 Q124.445 83.4786 122.593 85.6314 Q120.765 87.7841 120.765 91.5341 Q120.765 95.261 122.593 97.4369 Q124.445 99.5896 127.593 99.5896 Q130.742 99.5896 132.57 97.4369 Q134.422 95.261 134.422 91.5341 Q134.422 87.7841 132.57 85.6314 Q130.742 83.4786 127.593 83.4786 M136.876 68.8259 L136.876 73.0852 Q135.117 72.2518 133.311 71.812 Q131.529 71.3722 129.769 71.3722 Q125.14 71.3722 122.686 74.4972 Q120.255 77.6222 119.908 83.9416 Q121.274 81.9277 123.334 80.8629 Q125.394 79.7749 127.871 79.7749 Q133.08 79.7749 136.089 82.9462 Q139.121 86.0943 139.121 91.5341 Q139.121 96.8582 135.973 100.076 Q132.825 103.293 127.593 103.293 Q121.598 103.293 118.427 98.71 Q115.256 94.1036 115.256 85.3768 Q115.256 77.1824 119.144 72.3213 Q123.033 67.437 129.584 67.437 Q131.343 67.437 133.126 67.7843 Q134.931 68.1315 136.876 68.8259 Z" fill="#000000" fill-rule="nonzero" fill-opacity="1" /><path clip-path="url(#clip110)" d="M157.177 71.1407 Q153.566 71.1407 151.737 74.7055 Q149.931 78.2472 149.931 85.3768 Q149.931 92.4832 151.737 96.048 Q153.566 99.5896 157.177 99.5896 Q160.811 99.5896 162.616 96.048 Q164.445 92.4832 164.445 85.3768 Q164.445 78.2472 162.616 74.7055 Q160.811 71.1407 157.177 71.1407 M157.177 67.437 Q162.987 67.437 166.042 72.0435 Q169.121 76.6268 169.121 85.3768 Q169.121 94.1036 166.042 98.71 Q162.987 103.293 157.177 103.293 Q151.366 103.293 148.288 98.71 Q145.232 94.1036 145.232 85.3768 Q145.232 76.6268 148.288 72.0435 Q151.366 67.437 157.177 67.437 Z" fill="#000000" fill-rule="nonzero" fill-opacity="1" /><path clip-path="url(#clip110)" d="M187.338 71.1407 Q183.727 71.1407 181.899 74.7055 Q180.093 78.2472 180.093 85.3768 Q180.093 92.4832 181.899 96.048 Q183.727 99.5896 187.338 99.5896 Q190.973 99.5896 192.778 96.048 Q194.607 92.4832 194.607 85.3768 Q194.607 78.2472 192.778 74.7055 Q190.973 71.1407 187.338 71.1407 M187.338 67.437 Q193.149 67.437 196.204 72.0435 Q199.283 76.6268 199.283 85.3768 Q199.283 94.1036 196.204 98.71 Q193.149 103.293 187.338 103.293 Q181.528 103.293 178.45 98.71 Q175.394 94.1036 175.394 85.3768 Q175.394 76.6268 178.45 72.0435 Q181.528 67.437 187.338 67.437 Z" fill="#000000" fill-rule="nonzero" fill-opacity="1" /><path clip-path="url(#clip110)" d="M217.5 71.1407 Q213.889 71.1407 212.061 74.7055 Q210.255 78.2472 210.255 85.3768 Q210.255 92.4832 212.061 96.048 Q213.889 99.5896 217.5 99.5896 Q221.135 99.5896 222.94 96.048 Q224.769 92.4832 224.769 85.3768 Q224.769 78.2472 222.94 74.7055 Q221.135 71.1407 217.5 71.1407 M217.5 67.437 Q223.31 67.437 226.366 72.0435 Q229.445 76.6268 229.445 85.3768 Q229.445 94.1036 226.366 98.71 Q223.31 103.293 217.5 103.293 Q211.69 103.293 208.612 98.71 Q205.556 94.1036 205.556 85.3768 Q205.556 76.6268 208.612 72.0435 Q211.69 67.437 217.5 67.437 Z" fill="#000000" fill-rule="nonzero" fill-opacity="1" /><path clip-path="url(#clip110)" d="M14.479 1067.82 L14.479 1061.96 L64.0042 1061.96 L64.0042 1067.82 L14.479 1067.82 Z" fill="#000000" fill-rule="nonzero" fill-opacity="1" /><path clip-path="url(#clip110)" d="M14.5426 1014.92 Q21.8632 1019.19 29.0246 1021.25 Q36.186 1023.32 43.5384 1023.32 Q50.8908 1023.32 58.1159 1021.25 Q65.3091 1019.15 72.5979 1014.92 L72.5979 1020.01 Q65.1182 1024.79 57.8931 1027.18 Q50.668 1029.53 43.5384 1029.53 Q36.4406 1029.53 29.2474 1027.18 Q22.0542 1024.82 14.5426 1020.01 L14.5426 1014.92 Z" fill="#000000" fill-rule="nonzero" fill-opacity="1" /><path clip-path="url(#clip110)" d="M14.479 1003.56 L14.479 997.702 L64.0042 997.702 L64.0042 1003.56 L14.479 1003.56 Z" fill="#000000" fill-rule="nonzero" fill-opacity="1" /><path clip-path="url(#clip110)" d="M23.1363 961.608 L40.8648 961.608 L40.8648 943.88 L46.2757 943.88 L46.2757 961.608 L64.0042 961.608 L64.0042 966.956 L46.2757 966.956 L46.2757 984.684 L40.8648 984.684 L40.8648 966.956 L23.1363 966.956 L23.1363 961.608 Z" fill="#000000" fill-rule="nonzero" fill-opacity="1" /><path clip-path="url(#clip110)" d="M58.5933 928.889 L58.5933 918.385 L22.3406 918.385 L24.6323 929.812 L18.7758 929.812 L16.4842 918.449 L16.4842 912.019 L58.5933 912.019 L58.5933 901.516 L64.0042 901.516 L64.0042 928.889 L58.5933 928.889 Z" fill="#000000" fill-rule="nonzero" fill-opacity="1" /><path clip-path="url(#clip110)" d="M14.5426 890.281 L14.5426 885.188 Q22.0542 880.414 29.2474 878.058 Q36.4406 875.671 43.5384 875.671 Q50.668 875.671 57.8931 878.058 Q65.1182 880.414 72.5979 885.188 L72.5979 890.281 Q65.3091 886.047 58.1159 883.979 Q50.8908 881.878 43.5384 881.878 Q36.186 881.878 29.0246 883.979 Q21.8632 886.047 14.5426 890.281 Z" fill="#000000" fill-rule="nonzero" fill-opacity="1" /><path clip-path="url(#clip110)" d="M20.1444 807.367 L26.9239 807.367 Q23.9002 810.614 22.4043 814.306 Q20.9083 817.966 20.9083 822.104 Q20.9083 830.252 25.9054 834.581 Q30.8707 838.909 40.2919 838.909 Q49.6813 838.909 54.6784 834.581 Q59.6436 830.252 59.6436 822.104 Q59.6436 817.966 58.1477 814.306 Q56.6518 810.614 53.6281 807.367 L60.3439 807.367 Q62.6355 810.741 63.7814 814.529 Q64.9272 818.284 64.9272 822.486 Q64.9272 833.276 58.3387 839.482 Q51.7183 845.689 40.2919 845.689 Q28.8336 845.689 22.2451 839.482 Q15.6248 833.276 15.6248 822.486 Q15.6248 818.221 16.7706 814.465 Q17.8846 810.677 20.1444 807.367 Z" fill="#000000" fill-rule="nonzero" fill-opacity="1" /><path clip-path="url(#clip110)" d="M36.2815 799.951 L36.2815 796.259 L64.0042 796.259 L64.0042 799.951 L36.2815 799.951 Z" fill="#000000" fill-rule="nonzero" fill-opacity="1" /><path clip-path="url(#clip110)" d="M16.4842 755.741 L16.4842 750.331 L70.0516 766.881 L70.0516 772.292 L16.4842 755.741 Z" fill="#000000" fill-rule="nonzero" fill-opacity="1" /><path clip-path="url(#clip110)" d="M58.5933 717.102 L58.5933 694.662 L64.0042 694.662 L64.0042 724.836 L58.5933 724.836 Q54.8057 721.176 48.44 714.874 Q42.0425 708.54 40.1964 706.916 Q36.7271 703.829 34.34 702.62 Q31.921 701.378 29.5975 701.378 Q25.8099 701.378 23.4228 704.052 Q21.0356 706.694 21.0356 710.959 Q21.0356 713.982 22.086 717.356 Q23.1363 720.698 25.2688 724.518 L18.7758 724.518 Q17.2162 720.635 16.4205 717.261 Q15.6248 713.887 15.6248 711.086 Q15.6248 703.702 19.3169 699.309 Q23.009 694.917 29.1837 694.917 Q32.112 694.917 34.7537 696.031 Q37.3637 697.113 40.9285 700.01 Q41.8515 700.805 46.2757 705.07 Q50.668 709.335 58.5933 717.102 Z" fill="#000000" fill-rule="nonzero" fill-opacity="1" /><path clip-path="url(#clip110)" d="M28.3562 685.782 L28.3562 651.63 L34.2127 651.63 L34.2127 656.118 L56.1107 656.118 Q58.4023 656.118 59.4208 655.354 Q60.4075 654.558 60.4075 652.808 Q60.4075 652.33 60.3439 651.63 Q60.2484 650.93 60.2166 650.707 L64.4498 650.707 Q64.8635 651.821 65.0545 652.999 Q65.2455 654.177 65.2455 655.354 Q65.2455 659.174 63.1766 660.638 Q61.0759 662.102 55.4741 662.102 L34.2127 662.102 L34.2127 675.247 L64.0042 675.247 L64.0042 681.231 L34.2127 681.231 L34.2127 685.782 L28.3562 685.782 Z" fill="#000000" fill-rule="nonzero" fill-opacity="1" /><path clip-path="url(#clip110)" d="M14.5426 607.961 Q21.8632 612.227 29.0246 614.295 Q36.186 616.364 43.5384 616.364 Q50.8908 616.364 58.1159 614.295 Q65.3091 612.195 72.5979 607.961 L72.5979 613.054 Q65.1182 617.828 57.8931 620.215 Q50.668 622.571 43.5384 622.571 Q36.4406 622.571 29.2474 620.215 Q22.0542 617.86 14.5426 613.054 L14.5426 607.961 Z" fill="#000000" fill-rule="nonzero" fill-opacity="1" /><path clip-path="url(#clip110)" d="M77.5631 597.203 L28.3562 597.203 L28.3562 591.347 L50.5089 591.347 Q55.124 591.347 57.4793 589.151 Q59.8346 586.955 59.8346 582.658 Q59.8346 577.947 57.161 575.592 Q54.4874 573.205 49.1402 573.205 L28.3562 573.205 L28.3562 567.348 L55.7924 567.348 Q57.7021 567.348 58.6251 566.807 Q59.5163 566.234 59.5163 565.057 Q59.5163 564.77 59.3572 564.261 Q59.1662 563.752 58.7843 562.86 L63.4949 562.86 Q64.227 564.165 64.5771 565.343 Q64.9272 566.489 64.9272 567.603 Q64.9272 569.799 63.6859 571.104 Q62.4446 572.409 59.8983 572.886 Q62.4127 574.478 63.6859 576.801 Q64.9272 579.093 64.9272 582.212 Q64.9272 585.459 63.6859 587.75 Q62.4446 590.01 59.9619 591.347 L77.5631 591.347 L77.5631 597.203 Z" fill="#000000" fill-rule="nonzero" fill-opacity="1" /><path clip-path="url(#clip110)" d="M16.4842 554.871 L16.4842 548.442 L36.568 548.442 L16.4842 527.117 L16.4842 518.842 L38.6368 542.427 L64.0042 517.155 L64.0042 525.621 L41.1194 548.442 L64.0042 548.442 L64.0042 554.871 L16.4842 554.871 Z" fill="#000000" fill-rule="nonzero" fill-opacity="1" /><path clip-path="url(#clip110)" d="M16.4842 488.095 L34.2127 470.812 L34.2127 477.21 L21.6404 491.214 L34.2127 505.219 L34.2127 511.617 L16.4842 494.334 L16.4842 488.095 Z" fill="#000000" fill-rule="nonzero" fill-opacity="1" /><path clip-path="url(#clip110)" d="M58.5933 451.397 L58.5933 428.958 L64.0042 428.958 L64.0042 459.131 L58.5933 459.131 Q54.8057 455.471 48.44 449.169 Q42.0425 442.835 40.1964 441.212 Q36.7271 438.124 34.34 436.915 Q31.921 435.674 29.5975 435.674 Q25.8099 435.674 23.4228 438.347 Q21.0356 440.989 21.0356 445.254 Q21.0356 448.278 22.086 451.652 Q23.1363 454.994 25.2688 458.813 L18.7758 458.813 Q17.2162 454.93 16.4205 451.556 Q15.6248 448.182 15.6248 445.381 Q15.6248 437.997 19.3169 433.605 Q23.009 429.212 29.1837 429.212 Q32.112 429.212 34.7537 430.326 Q37.3637 431.409 40.9285 434.305 Q41.8515 435.101 46.2757 439.366 Q50.668 443.631 58.5933 451.397 Z" fill="#000000" fill-rule="nonzero" fill-opacity="1" /><path clip-path="url(#clip110)" d="M14.5426 417.213 L14.5426 412.121 Q22.0542 407.346 29.2474 404.991 Q36.4406 402.604 43.5384 402.604 Q50.668 402.604 57.8931 404.991 Q65.1182 407.346 72.5979 412.121 L72.5979 417.213 Q65.3091 412.98 58.1159 410.911 Q50.8908 408.81 43.5384 408.81 Q36.186 408.81 29.0246 410.911 Q21.8632 412.98 14.5426 417.213 Z" fill="#000000" fill-rule="nonzero" fill-opacity="1" /><polyline clip-path="url(#clip111)" style="stroke:#009af9; stroke-linecap:round; stroke-linejoin:round; stroke-width:4; stroke-opacity:1; fill:none" points="324.52,1384.24 344.41,1363.41 364.301,1326.1 384.191,1281.36 404.082,1231.17 423.972,1175.71 443.863,1115.02 463.753,1048.94 483.644,977.738 503.534,901.689 523.425,821.148 543.315,737.23 563.206,651.421 583.096,565.602 602.987,480.952 622.877,399.815 642.768,324.455 662.658,256.531 682.549,198.051 702.439,150.654 722.33,115.4 742.22,93.8192 762.111,86.1857 782.002,92.8889 801.892,113.648 821.783,147.775 841.673,194.613 861.564,252.522 881.454,319.96 901.345,394.985 921.235,475.556 941.126,559.489 961.016,644.637 980.907,728.799 1000.8,810.041 1020.69,886.365 1040.58,956.216 1060.47,1018.26 1080.36,1071.39 1100.25,1115.03 1120.14,1148.83 1140.03,1172.66 1159.92,1186.98 1179.81,1192.32 1199.7,1189.63 1219.59,1179.99 1239.48,1164.6 1259.37,1144.97 1279.26,1122.42 1299.16,1098.45 1319.05,1074.44 1338.94,1051.6 1358.83,1031.18 1378.72,1014.02 1398.61,1000.95 1418.5,992.493 1438.39,988.857 1458.28,990.182 1478.17,996.232 1498.06,1006.67 1517.95,1021.01 1537.84,1038.43 1557.73,1058.19 1577.62,1079.38 1597.51,1101.02 1617.4,1122.29 1637.29,1142.2 1657.18,1160.05 1677.07,1175.09 1696.97,1186.72 1716.86,1194.66 1736.75,1198.54 1756.64,1198.38 1776.53,1194.25 1796.42,1186.38 1816.31,1175.23 1836.2,1161.32 1856.09,1145.27 1875.98,1127.85 1895.87,1109.76 1915.76,1091.83 1935.65,1074.87 1955.54,1059.52 1975.43,1046.57 1995.32,1036.47 2015.21,1029.82 2035.1,1026.9 2054.99,1027.93 2074.89,1033.04 2094.78,1042.16 2114.67,1055.06 2134.56,1071.48 2154.45,1090.95 2174.34,1113.03 2194.23,1137.13 2214.12,1162.59 2234.01,1188.79 2253.9,1215.07 2273.79,1240.81 2293.68,1265.43 "/>
</svg>
