<?xml version="1.0" encoding="utf-8"?>
<svg xmlns="http://www.w3.org/2000/svg" xmlns:xlink="http://www.w3.org/1999/xlink" width="600" height="400" viewBox="0 0 2400 1600">
<defs>
  <clipPath id="clip270">
    <rect x="0" y="0" width="2400" height="1600"/>
  </clipPath>
</defs>
<path clip-path="url(#clip270)" d="M0 1600 L2400 1600 L2400 0 L0 0  Z" fill="#ffffff" fill-rule="evenodd" fill-opacity="1"/>
<defs>
  <clipPath id="clip271">
    <rect x="480" y="0" width="1681" height="1600"/>
  </clipPath>
</defs>
<path clip-path="url(#clip270)" d="M265.445 1423.18 L2352.76 1423.18 L2352.76 47.2441 L265.445 47.2441  Z" fill="#ffffff" fill-rule="evenodd" fill-opacity="1"/>
<defs>
  <clipPath id="clip272">
    <rect x="265" y="47" width="2088" height="1377"/>
  </clipPath>
</defs>
<polyline clip-path="url(#clip272)" style="stroke:#000000; stroke-linecap:round; stroke-linejoin:round; stroke-width:2; stroke-opacity:0.1; fill:none" points="304.629,1423.18 304.629,47.2441 "/>
<polyline clip-path="url(#clip272)" style="stroke:#000000; stroke-linecap:round; stroke-linejoin:round; stroke-width:2; stroke-opacity:0.1; fill:none" points="801.892,1423.18 801.892,47.2441 "/>
<polyline clip-path="url(#clip272)" style="stroke:#000000; stroke-linecap:round; stroke-linejoin:round; stroke-width:2; stroke-opacity:0.1; fill:none" points="1299.16,1423.18 1299.16,47.2441 "/>
<polyline clip-path="url(#clip272)" style="stroke:#000000; stroke-linecap:round; stroke-linejoin:round; stroke-width:2; stroke-opacity:0.1; fill:none" points="1796.42,1423.18 1796.42,47.2441 "/>
<polyline clip-path="url(#clip272)" style="stroke:#000000; stroke-linecap:round; stroke-linejoin:round; stroke-width:2; stroke-opacity:0.1; fill:none" points="2293.68,1423.18 2293.68,47.2441 "/>
<polyline clip-path="url(#clip272)" style="stroke:#000000; stroke-linecap:round; stroke-linejoin:round; stroke-width:2; stroke-opacity:0.1; fill:none" points="265.445,1334.04 2352.76,1334.04 "/>
<polyline clip-path="url(#clip272)" style="stroke:#000000; stroke-linecap:round; stroke-linejoin:round; stroke-width:2; stroke-opacity:0.1; fill:none" points="265.445,1084.67 2352.76,1084.67 "/>
<polyline clip-path="url(#clip272)" style="stroke:#000000; stroke-linecap:round; stroke-linejoin:round; stroke-width:2; stroke-opacity:0.1; fill:none" points="265.445,835.296 2352.76,835.296 "/>
<polyline clip-path="url(#clip272)" style="stroke:#000000; stroke-linecap:round; stroke-linejoin:round; stroke-width:2; stroke-opacity:0.1; fill:none" points="265.445,585.926 2352.76,585.926 "/>
<polyline clip-path="url(#clip272)" style="stroke:#000000; stroke-linecap:round; stroke-linejoin:round; stroke-width:2; stroke-opacity:0.1; fill:none" points="265.445,336.555 2352.76,336.555 "/>
<polyline clip-path="url(#clip272)" style="stroke:#000000; stroke-linecap:round; stroke-linejoin:round; stroke-width:2; stroke-opacity:0.1; fill:none" points="265.445,87.1837 2352.76,87.1837 "/>
<polyline clip-path="url(#clip270)" style="stroke:#000000; stroke-linecap:round; stroke-linejoin:round; stroke-width:4; stroke-opacity:1; fill:none" points="265.445,1423.18 2352.76,1423.18 "/>
<polyline clip-path="url(#clip270)" style="stroke:#000000; stroke-linecap:round; stroke-linejoin:round; stroke-width:4; stroke-opacity:1; fill:none" points="304.629,1423.18 304.629,1404.28 "/>
<polyline clip-path="url(#clip270)" style="stroke:#000000; stroke-linecap:round; stroke-linejoin:round; stroke-width:4; stroke-opacity:1; fill:none" points="801.892,1423.18 801.892,1404.28 "/>
<polyline clip-path="url(#clip270)" style="stroke:#000000; stroke-linecap:round; stroke-linejoin:round; stroke-width:4; stroke-opacity:1; fill:none" points="1299.16,1423.18 1299.16,1404.28 "/>
<polyline clip-path="url(#clip270)" style="stroke:#000000; stroke-linecap:round; stroke-linejoin:round; stroke-width:4; stroke-opacity:1; fill:none" points="1796.42,1423.18 1796.42,1404.28 "/>
<polyline clip-path="url(#clip270)" style="stroke:#000000; stroke-linecap:round; stroke-linejoin:round; stroke-width:4; stroke-opacity:1; fill:none" points="2293.68,1423.18 2293.68,1404.28 "/>
<path clip-path="url(#clip270)" d="M304.629 1454.1 Q301.018 1454.1 299.189 1457.66 Q297.384 1461.2 297.384 1468.33 Q297.384 1475.44 299.189 1479.01 Q301.018 1482.55 304.629 1482.55 Q308.263 1482.55 310.069 1479.01 Q311.898 1475.44 311.898 1468.33 Q311.898 1461.2 310.069 1457.66 Q308.263 1454.1 304.629 1454.1 M304.629 1450.39 Q310.439 1450.39 313.495 1455 Q316.573 1459.58 316.573 1468.33 Q316.573 1477.06 313.495 1481.67 Q310.439 1486.25 304.629 1486.25 Q298.819 1486.25 295.74 1481.67 Q292.685 1477.06 292.685 1468.33 Q292.685 1459.58 295.74 1455 Q298.819 1450.39 304.629 1450.39 Z" fill="#000000" fill-rule="nonzero" fill-opacity="1" /><path clip-path="url(#clip270)" d="M765.584 1481.64 L781.904 1481.64 L781.904 1485.58 L759.959 1485.58 L759.959 1481.64 Q762.621 1478.89 767.205 1474.26 Q771.811 1469.61 772.992 1468.27 Q775.237 1465.74 776.117 1464.01 Q777.02 1462.25 777.02 1460.56 Q777.02 1457.8 775.075 1456.07 Q773.154 1454.33 770.052 1454.33 Q767.853 1454.33 765.399 1455.09 Q762.969 1455.86 760.191 1457.41 L760.191 1452.69 Q763.015 1451.55 765.469 1450.97 Q767.922 1450.39 769.959 1450.39 Q775.33 1450.39 778.524 1453.08 Q781.719 1455.77 781.719 1460.26 Q781.719 1462.39 780.908 1464.31 Q780.121 1466.2 778.015 1468.8 Q777.436 1469.47 774.334 1472.69 Q771.232 1475.88 765.584 1481.64 Z" fill="#000000" fill-rule="nonzero" fill-opacity="1" /><path clip-path="url(#clip270)" d="M791.765 1451.02 L810.121 1451.02 L810.121 1454.96 L796.047 1454.96 L796.047 1463.43 Q797.066 1463.08 798.084 1462.92 Q799.103 1462.73 800.121 1462.73 Q805.908 1462.73 809.288 1465.9 Q812.667 1469.08 812.667 1474.49 Q812.667 1480.07 809.195 1483.17 Q805.723 1486.25 799.404 1486.25 Q797.228 1486.25 794.959 1485.88 Q792.714 1485.51 790.306 1484.77 L790.306 1480.07 Q792.39 1481.2 794.612 1481.76 Q796.834 1482.32 799.311 1482.32 Q803.316 1482.32 805.654 1480.21 Q807.992 1478.1 807.992 1474.49 Q807.992 1470.88 805.654 1468.77 Q803.316 1466.67 799.311 1466.67 Q797.436 1466.67 795.561 1467.08 Q793.709 1467.5 791.765 1468.38 L791.765 1451.02 Z" fill="#000000" fill-rule="nonzero" fill-opacity="1" /><path clip-path="url(#clip270)" d="M831.88 1454.1 Q828.269 1454.1 826.441 1457.66 Q824.635 1461.2 824.635 1468.33 Q824.635 1475.44 826.441 1479.01 Q828.269 1482.55 831.88 1482.55 Q835.515 1482.55 837.32 1479.01 Q839.149 1475.44 839.149 1468.33 Q839.149 1461.2 837.32 1457.66 Q835.515 1454.1 831.88 1454.1 M831.88 1450.39 Q837.69 1450.39 840.746 1455 Q843.825 1459.58 843.825 1468.33 Q843.825 1477.06 840.746 1481.67 Q837.69 1486.25 831.88 1486.25 Q826.07 1486.25 822.991 1481.67 Q819.936 1477.06 819.936 1468.33 Q819.936 1459.58 822.991 1455 Q826.07 1450.39 831.88 1450.39 Z" fill="#000000" fill-rule="nonzero" fill-opacity="1" /><path clip-path="url(#clip270)" d="M1258.77 1451.02 L1277.13 1451.02 L1277.13 1454.96 L1263.06 1454.96 L1263.06 1463.43 Q1264.07 1463.08 1265.09 1462.92 Q1266.11 1462.73 1267.13 1462.73 Q1272.92 1462.73 1276.3 1465.9 Q1279.68 1469.08 1279.68 1474.49 Q1279.68 1480.07 1276.2 1483.17 Q1272.73 1486.25 1266.41 1486.25 Q1264.24 1486.25 1261.97 1485.88 Q1259.72 1485.51 1257.32 1484.77 L1257.32 1480.07 Q1259.4 1481.2 1261.62 1481.76 Q1263.84 1482.32 1266.32 1482.32 Q1270.32 1482.32 1272.66 1480.21 Q1275 1478.1 1275 1474.49 Q1275 1470.88 1272.66 1468.77 Q1270.32 1466.67 1266.32 1466.67 Q1264.44 1466.67 1262.57 1467.08 Q1260.72 1467.5 1258.77 1468.38 L1258.77 1451.02 Z" fill="#000000" fill-rule="nonzero" fill-opacity="1" /><path clip-path="url(#clip270)" d="M1298.89 1454.1 Q1295.28 1454.1 1293.45 1457.66 Q1291.64 1461.2 1291.64 1468.33 Q1291.64 1475.44 1293.45 1479.01 Q1295.28 1482.55 1298.89 1482.55 Q1302.52 1482.55 1304.33 1479.01 Q1306.16 1475.44 1306.16 1468.33 Q1306.16 1461.2 1304.33 1457.66 Q1302.52 1454.1 1298.89 1454.1 M1298.89 1450.39 Q1304.7 1450.39 1307.75 1455 Q1310.83 1459.58 1310.83 1468.33 Q1310.83 1477.06 1307.75 1481.67 Q1304.7 1486.25 1298.89 1486.25 Q1293.08 1486.25 1290 1481.67 Q1286.94 1477.06 1286.94 1468.33 Q1286.94 1459.58 1290 1455 Q1293.08 1450.39 1298.89 1450.39 Z" fill="#000000" fill-rule="nonzero" fill-opacity="1" /><path clip-path="url(#clip270)" d="M1329.05 1454.1 Q1325.44 1454.1 1323.61 1457.66 Q1321.81 1461.2 1321.81 1468.33 Q1321.81 1475.44 1323.61 1479.01 Q1325.44 1482.55 1329.05 1482.55 Q1332.68 1482.55 1334.49 1479.01 Q1336.32 1475.44 1336.32 1468.33 Q1336.32 1461.2 1334.49 1457.66 Q1332.68 1454.1 1329.05 1454.1 M1329.05 1450.39 Q1334.86 1450.39 1337.92 1455 Q1341 1459.58 1341 1468.33 Q1341 1477.06 1337.92 1481.67 Q1334.86 1486.25 1329.05 1486.25 Q1323.24 1486.25 1320.16 1481.67 Q1317.11 1477.06 1317.11 1468.33 Q1317.11 1459.58 1320.16 1455 Q1323.24 1450.39 1329.05 1450.39 Z" fill="#000000" fill-rule="nonzero" fill-opacity="1" /><path clip-path="url(#clip270)" d="M1754.69 1451.02 L1776.92 1451.02 L1776.92 1453.01 L1764.37 1485.58 L1759.49 1485.58 L1771.29 1454.96 L1754.69 1454.96 L1754.69 1451.02 Z" fill="#000000" fill-rule="nonzero" fill-opacity="1" /><path clip-path="url(#clip270)" d="M1786.08 1451.02 L1804.44 1451.02 L1804.44 1454.96 L1790.36 1454.96 L1790.36 1463.43 Q1791.38 1463.08 1792.4 1462.92 Q1793.42 1462.73 1794.44 1462.73 Q1800.23 1462.73 1803.61 1465.9 Q1806.99 1469.08 1806.99 1474.49 Q1806.99 1480.07 1803.51 1483.17 Q1800.04 1486.25 1793.72 1486.25 Q1791.55 1486.25 1789.28 1485.88 Q1787.03 1485.51 1784.62 1484.77 L1784.62 1480.07 Q1786.71 1481.2 1788.93 1481.76 Q1791.15 1482.32 1793.63 1482.32 Q1797.63 1482.32 1799.97 1480.21 Q1802.31 1478.1 1802.31 1474.49 Q1802.31 1470.88 1799.97 1468.77 Q1797.63 1466.67 1793.63 1466.67 Q1791.75 1466.67 1789.88 1467.08 Q1788.03 1467.5 1786.08 1468.38 L1786.08 1451.02 Z" fill="#000000" fill-rule="nonzero" fill-opacity="1" /><path clip-path="url(#clip270)" d="M1826.2 1454.1 Q1822.59 1454.1 1820.76 1457.66 Q1818.95 1461.2 1818.95 1468.33 Q1818.95 1475.44 1820.76 1479.01 Q1822.59 1482.55 1826.2 1482.55 Q1829.83 1482.55 1831.64 1479.01 Q1833.47 1475.44 1833.47 1468.33 Q1833.47 1461.2 1831.64 1457.66 Q1829.83 1454.1 1826.2 1454.1 M1826.2 1450.39 Q1832.01 1450.39 1835.06 1455 Q1838.14 1459.58 1838.14 1468.33 Q1838.14 1477.06 1835.06 1481.67 Q1832.01 1486.25 1826.2 1486.25 Q1820.39 1486.25 1817.31 1481.67 Q1814.25 1477.06 1814.25 1468.33 Q1814.25 1459.58 1817.31 1455 Q1820.39 1450.39 1826.2 1450.39 Z" fill="#000000" fill-rule="nonzero" fill-opacity="1" /><path clip-path="url(#clip270)" d="M2238.21 1481.64 L2245.85 1481.64 L2245.85 1455.28 L2237.54 1456.95 L2237.54 1452.69 L2245.8 1451.02 L2250.48 1451.02 L2250.48 1481.64 L2258.11 1481.64 L2258.11 1485.58 L2238.21 1485.58 L2238.21 1481.64 Z" fill="#000000" fill-rule="nonzero" fill-opacity="1" /><path clip-path="url(#clip270)" d="M2277.56 1454.1 Q2273.95 1454.1 2272.12 1457.66 Q2270.31 1461.2 2270.31 1468.33 Q2270.31 1475.44 2272.12 1479.01 Q2273.95 1482.55 2277.56 1482.55 Q2281.19 1482.55 2283 1479.01 Q2284.83 1475.44 2284.83 1468.33 Q2284.83 1461.2 2283 1457.66 Q2281.19 1454.1 2277.56 1454.1 M2277.56 1450.39 Q2283.37 1450.39 2286.42 1455 Q2289.5 1459.58 2289.5 1468.33 Q2289.5 1477.06 2286.42 1481.67 Q2283.37 1486.25 2277.56 1486.25 Q2271.75 1486.25 2268.67 1481.67 Q2265.61 1477.06 2265.61 1468.33 Q2265.61 1459.58 2268.67 1455 Q2271.75 1450.39 2277.56 1450.39 Z" fill="#000000" fill-rule="nonzero" fill-opacity="1" /><path clip-path="url(#clip270)" d="M2307.72 1454.1 Q2304.11 1454.1 2302.28 1457.66 Q2300.48 1461.2 2300.48 1468.33 Q2300.48 1475.44 2302.28 1479.01 Q2304.11 1482.55 2307.72 1482.55 Q2311.35 1482.55 2313.16 1479.01 Q2314.99 1475.44 2314.99 1468.33 Q2314.99 1461.2 2313.16 1457.66 Q2311.35 1454.1 2307.72 1454.1 M2307.72 1450.39 Q2313.53 1450.39 2316.59 1455 Q2319.66 1459.58 2319.66 1468.33 Q2319.66 1477.06 2316.59 1481.67 Q2313.53 1486.25 2307.72 1486.25 Q2301.91 1486.25 2298.83 1481.67 Q2295.78 1477.06 2295.78 1468.33 Q2295.78 1459.58 2298.83 1455 Q2301.91 1450.39 2307.72 1450.39 Z" fill="#000000" fill-rule="nonzero" fill-opacity="1" /><path clip-path="url(#clip270)" d="M2337.88 1454.1 Q2334.27 1454.1 2332.44 1457.66 Q2330.64 1461.2 2330.64 1468.33 Q2330.64 1475.44 2332.44 1479.01 Q2334.27 1482.55 2337.88 1482.55 Q2341.52 1482.55 2343.32 1479.01 Q2345.15 1475.44 2345.15 1468.33 Q2345.15 1461.2 2343.32 1457.66 Q2341.52 1454.1 2337.88 1454.1 M2337.88 1450.39 Q2343.69 1450.39 2346.75 1455 Q2349.83 1459.58 2349.83 1468.33 Q2349.83 1477.06 2346.75 1481.67 Q2343.69 1486.25 2337.88 1486.25 Q2332.07 1486.25 2328.99 1481.67 Q2325.94 1477.06 2325.94 1468.33 Q2325.94 1459.58 2328.99 1455 Q2332.07 1450.39 2337.88 1450.39 Z" fill="#000000" fill-rule="nonzero" fill-opacity="1" /><path clip-path="url(#clip270)" d="M1306.17 1518.52 L1312.03 1518.52 L1312.03 1568.04 L1306.17 1568.04 L1306.17 1518.52 Z" fill="#000000" fill-rule="nonzero" fill-opacity="1" /><polyline clip-path="url(#clip270)" style="stroke:#000000; stroke-linecap:round; stroke-linejoin:round; stroke-width:4; stroke-opacity:1; fill:none" points="265.445,1423.18 265.445,47.2441 "/>
<polyline clip-path="url(#clip270)" style="stroke:#000000; stroke-linecap:round; stroke-linejoin:round; stroke-width:4; stroke-opacity:1; fill:none" points="265.445,1334.04 284.342,1334.04 "/>
<polyline clip-path="url(#clip270)" style="stroke:#000000; stroke-linecap:round; stroke-linejoin:round; stroke-width:4; stroke-opacity:1; fill:none" points="265.445,1084.67 284.342,1084.67 "/>
<polyline clip-path="url(#clip270)" style="stroke:#000000; stroke-linecap:round; stroke-linejoin:round; stroke-width:4; stroke-opacity:1; fill:none" points="265.445,835.296 284.342,835.296 "/>
<polyline clip-path="url(#clip270)" style="stroke:#000000; stroke-linecap:round; stroke-linejoin:round; stroke-width:4; stroke-opacity:1; fill:none" points="265.445,585.926 284.342,585.926 "/>
<polyline clip-path="url(#clip270)" style="stroke:#000000; stroke-linecap:round; stroke-linejoin:round; stroke-width:4; stroke-opacity:1; fill:none" points="265.445,336.555 284.342,336.555 "/>
<polyline clip-path="url(#clip270)" style="stroke:#000000; stroke-linecap:round; stroke-linejoin:round; stroke-width:4; stroke-opacity:1; fill:none" points="265.445,87.1837 284.342,87.1837 "/>
<path clip-path="url(#clip270)" d="M117.825 1347.38 L125.464 1347.38 L125.464 1321.02 L117.154 1322.68 L117.154 1318.42 L125.418 1316.76 L130.093 1316.76 L130.093 1347.38 L137.732 1347.38 L137.732 1351.32 L117.825 1351.32 L117.825 1347.38 Z" fill="#000000" fill-rule="nonzero" fill-opacity="1" /><path clip-path="url(#clip270)" d="M157.177 1319.84 Q153.566 1319.84 151.737 1323.4 Q149.931 1326.94 149.931 1334.07 Q149.931 1341.18 151.737 1344.74 Q153.566 1348.29 157.177 1348.29 Q160.811 1348.29 162.616 1344.74 Q164.445 1341.18 164.445 1334.07 Q164.445 1326.94 162.616 1323.4 Q160.811 1319.84 157.177 1319.84 M157.177 1316.13 Q162.987 1316.13 166.042 1320.74 Q169.121 1325.32 169.121 1334.07 Q169.121 1342.8 166.042 1347.41 Q162.987 1351.99 157.177 1351.99 Q151.366 1351.99 148.288 1347.41 Q145.232 1342.8 145.232 1334.07 Q145.232 1325.32 148.288 1320.74 Q151.366 1316.13 157.177 1316.13 Z" fill="#000000" fill-rule="nonzero" fill-opacity="1" /><path clip-path="url(#clip270)" d="M187.338 1319.84 Q183.727 1319.84 181.899 1323.4 Q180.093 1326.94 180.093 1334.07 Q180.093 1341.18 181.899 1344.74 Q183.727 1348.29 187.338 1348.29 Q190.973 1348.29 192.778 1344.74 Q194.607 1341.18 194.607 1334.07 Q194.607 1326.94 192.778 1323.4 Q190.973 1319.84 187.338 1319.84 M187.338 1316.13 Q193.149 1316.13 196.204 1320.74 Q199.283 1325.32 199.283 1334.07 Q199.283 1342.8 196.204 1347.41 Q193.149 1351.99 187.338 1351.99 Q181.528 1351.99 178.45 1347.41 Q175.394 1342.8 175.394 1334.07 Q175.394 1325.32 178.45 1320.74 Q181.528 1316.13 187.338 1316.13 Z" fill="#000000" fill-rule="nonzero" fill-opacity="1" /><path clip-path="url(#clip270)" d="M217.5 1319.84 Q213.889 1319.84 212.061 1323.4 Q210.255 1326.94 210.255 1334.07 Q210.255 1341.18 212.061 1344.74 Q213.889 1348.29 217.5 1348.29 Q221.135 1348.29 222.94 1344.74 Q224.769 1341.18 224.769 1334.07 Q224.769 1326.94 222.94 1323.4 Q221.135 1319.84 217.5 1319.84 M217.5 1316.13 Q223.31 1316.13 226.366 1320.74 Q229.445 1325.32 229.445 1334.07 Q229.445 1342.8 226.366 1347.41 Q223.31 1351.99 217.5 1351.99 Q211.69 1351.99 208.612 1347.41 Q205.556 1342.8 205.556 1334.07 Q205.556 1325.32 208.612 1320.74 Q211.69 1316.13 217.5 1316.13 Z" fill="#000000" fill-rule="nonzero" fill-opacity="1" /><path clip-path="url(#clip270)" d="M121.043 1098.01 L137.362 1098.01 L137.362 1101.95 L115.418 1101.95 L115.418 1098.01 Q118.08 1095.26 122.663 1090.63 Q127.269 1085.98 128.45 1084.63 Q130.695 1082.11 131.575 1080.37 Q132.478 1078.61 132.478 1076.92 Q132.478 1074.17 130.533 1072.43 Q128.612 1070.7 125.51 1070.7 Q123.311 1070.7 120.857 1071.46 Q118.427 1072.23 115.649 1073.78 L115.649 1069.05 Q118.473 1067.92 120.927 1067.34 Q123.38 1066.76 125.418 1066.76 Q130.788 1066.76 133.982 1069.45 Q137.177 1072.13 137.177 1076.62 Q137.177 1078.75 136.367 1080.67 Q135.579 1082.57 133.473 1085.17 Q132.894 1085.84 129.792 1089.05 Q126.691 1092.25 121.043 1098.01 Z" fill="#000000" fill-rule="nonzero" fill-opacity="1" /><path clip-path="url(#clip270)" d="M157.177 1070.47 Q153.566 1070.47 151.737 1074.03 Q149.931 1077.57 149.931 1084.7 Q149.931 1091.81 151.737 1095.37 Q153.566 1098.91 157.177 1098.91 Q160.811 1098.91 162.616 1095.37 Q164.445 1091.81 164.445 1084.7 Q164.445 1077.57 162.616 1074.03 Q160.811 1070.47 157.177 1070.47 M157.177 1066.76 Q162.987 1066.76 166.042 1071.37 Q169.121 1075.95 169.121 1084.7 Q169.121 1093.43 166.042 1098.04 Q162.987 1102.62 157.177 1102.62 Q151.366 1102.62 148.288 1098.04 Q145.232 1093.43 145.232 1084.7 Q145.232 1075.95 148.288 1071.37 Q151.366 1066.76 157.177 1066.76 Z" fill="#000000" fill-rule="nonzero" fill-opacity="1" /><path clip-path="url(#clip270)" d="M187.338 1070.47 Q183.727 1070.47 181.899 1074.03 Q180.093 1077.57 180.093 1084.7 Q180.093 1091.81 181.899 1095.37 Q183.727 1098.91 187.338 1098.91 Q190.973 1098.91 192.778 1095.37 Q194.607 1091.81 194.607 1084.7 Q194.607 1077.57 192.778 1074.03 Q190.973 1070.47 187.338 1070.47 M187.338 1066.76 Q193.149 1066.76 196.204 1071.37 Q199.283 1075.95 199.283 1084.7 Q199.283 1093.43 196.204 1098.04 Q193.149 1102.62 187.338 1102.62 Q181.528 1102.62 178.45 1098.04 Q175.394 1093.43 175.394 1084.7 Q175.394 1075.95 178.45 1071.37 Q181.528 1066.76 187.338 1066.76 Z" fill="#000000" fill-rule="nonzero" fill-opacity="1" /><path clip-path="url(#clip270)" d="M217.5 1070.47 Q213.889 1070.47 212.061 1074.03 Q210.255 1077.57 210.255 1084.7 Q210.255 1091.81 212.061 1095.37 Q213.889 1098.91 217.5 1098.91 Q221.135 1098.91 222.94 1095.37 Q224.769 1091.81 224.769 1084.7 Q224.769 1077.57 222.94 1074.03 Q221.135 1070.47 217.5 1070.47 M217.5 1066.76 Q223.31 1066.76 226.366 1071.37 Q229.445 1075.95 229.445 1084.7 Q229.445 1093.43 226.366 1098.04 Q223.31 1102.62 217.5 1102.62 Q211.69 1102.62 208.612 1098.04 Q205.556 1093.43 205.556 1084.7 Q205.556 1075.95 208.612 1071.37 Q211.69 1066.76 217.5 1066.76 Z" fill="#000000" fill-rule="nonzero" fill-opacity="1" /><path clip-path="url(#clip270)" d="M131.181 833.942 Q134.538 834.66 136.413 836.928 Q138.311 839.197 138.311 842.53 Q138.311 847.646 134.792 850.447 Q131.274 853.248 124.793 853.248 Q122.617 853.248 120.302 852.808 Q118.01 852.391 115.556 851.535 L115.556 847.021 Q117.501 848.155 119.816 848.734 Q122.13 849.313 124.654 849.313 Q129.052 849.313 131.343 847.576 Q133.658 845.84 133.658 842.53 Q133.658 839.475 131.505 837.762 Q129.376 836.026 125.556 836.026 L121.529 836.026 L121.529 832.183 L125.742 832.183 Q129.191 832.183 131.019 830.817 Q132.848 829.428 132.848 826.836 Q132.848 824.174 130.95 822.762 Q129.075 821.327 125.556 821.327 Q123.635 821.327 121.436 821.743 Q119.237 822.16 116.598 823.04 L116.598 818.873 Q119.26 818.132 121.575 817.762 Q123.913 817.391 125.973 817.391 Q131.297 817.391 134.399 819.822 Q137.501 822.229 137.501 826.35 Q137.501 829.22 135.857 831.211 Q134.214 833.178 131.181 833.942 Z" fill="#000000" fill-rule="nonzero" fill-opacity="1" /><path clip-path="url(#clip270)" d="M157.177 821.095 Q153.566 821.095 151.737 824.66 Q149.931 828.202 149.931 835.331 Q149.931 842.438 151.737 846.002 Q153.566 849.544 157.177 849.544 Q160.811 849.544 162.616 846.002 Q164.445 842.438 164.445 835.331 Q164.445 828.202 162.616 824.66 Q160.811 821.095 157.177 821.095 M157.177 817.391 Q162.987 817.391 166.042 821.998 Q169.121 826.581 169.121 835.331 Q169.121 844.058 166.042 848.664 Q162.987 853.248 157.177 853.248 Q151.366 853.248 148.288 848.664 Q145.232 844.058 145.232 835.331 Q145.232 826.581 148.288 821.998 Q151.366 817.391 157.177 817.391 Z" fill="#000000" fill-rule="nonzero" fill-opacity="1" /><path clip-path="url(#clip270)" d="M187.338 821.095 Q183.727 821.095 181.899 824.66 Q180.093 828.202 180.093 835.331 Q180.093 842.438 181.899 846.002 Q183.727 849.544 187.338 849.544 Q190.973 849.544 192.778 846.002 Q194.607 842.438 194.607 835.331 Q194.607 828.202 192.778 824.66 Q190.973 821.095 187.338 821.095 M187.338 817.391 Q193.149 817.391 196.204 821.998 Q199.283 826.581 199.283 835.331 Q199.283 844.058 196.204 848.664 Q193.149 853.248 187.338 853.248 Q181.528 853.248 178.45 848.664 Q175.394 844.058 175.394 835.331 Q175.394 826.581 178.45 821.998 Q181.528 817.391 187.338 817.391 Z" fill="#000000" fill-rule="nonzero" fill-opacity="1" /><path clip-path="url(#clip270)" d="M217.5 821.095 Q213.889 821.095 212.061 824.66 Q210.255 828.202 210.255 835.331 Q210.255 842.438 212.061 846.002 Q213.889 849.544 217.5 849.544 Q221.135 849.544 222.94 846.002 Q224.769 842.438 224.769 835.331 Q224.769 828.202 222.94 824.66 Q221.135 821.095 217.5 821.095 M217.5 817.391 Q223.31 817.391 226.366 821.998 Q229.445 826.581 229.445 835.331 Q229.445 844.058 226.366 848.664 Q223.31 853.248 217.5 853.248 Q211.69 853.248 208.612 848.664 Q205.556 844.058 205.556 835.331 Q205.556 826.581 208.612 821.998 Q211.69 817.391 217.5 817.391 Z" fill="#000000" fill-rule="nonzero" fill-opacity="1" /><path clip-path="url(#clip270)" d="M129.862 572.72 L118.056 591.169 L129.862 591.169 L129.862 572.72 M128.635 568.646 L134.515 568.646 L134.515 591.169 L139.445 591.169 L139.445 595.057 L134.515 595.057 L134.515 603.206 L129.862 603.206 L129.862 595.057 L114.26 595.057 L114.26 590.544 L128.635 568.646 Z" fill="#000000" fill-rule="nonzero" fill-opacity="1" /><path clip-path="url(#clip270)" d="M157.177 571.724 Q153.566 571.724 151.737 575.289 Q149.931 578.831 149.931 585.96 Q149.931 593.067 151.737 596.631 Q153.566 600.173 157.177 600.173 Q160.811 600.173 162.616 596.631 Q164.445 593.067 164.445 585.96 Q164.445 578.831 162.616 575.289 Q160.811 571.724 157.177 571.724 M157.177 568.021 Q162.987 568.021 166.042 572.627 Q169.121 577.21 169.121 585.96 Q169.121 594.687 166.042 599.294 Q162.987 603.877 157.177 603.877 Q151.366 603.877 148.288 599.294 Q145.232 594.687 145.232 585.96 Q145.232 577.21 148.288 572.627 Q151.366 568.021 157.177 568.021 Z" fill="#000000" fill-rule="nonzero" fill-opacity="1" /><path clip-path="url(#clip270)" d="M187.338 571.724 Q183.727 571.724 181.899 575.289 Q180.093 578.831 180.093 585.96 Q180.093 593.067 181.899 596.631 Q183.727 600.173 187.338 600.173 Q190.973 600.173 192.778 596.631 Q194.607 593.067 194.607 585.96 Q194.607 578.831 192.778 575.289 Q190.973 571.724 187.338 571.724 M187.338 568.021 Q193.149 568.021 196.204 572.627 Q199.283 577.21 199.283 585.96 Q199.283 594.687 196.204 599.294 Q193.149 603.877 187.338 603.877 Q181.528 603.877 178.45 599.294 Q175.394 594.687 175.394 585.96 Q175.394 577.21 178.45 572.627 Q181.528 568.021 187.338 568.021 Z" fill="#000000" fill-rule="nonzero" fill-opacity="1" /><path clip-path="url(#clip270)" d="M217.5 571.724 Q213.889 571.724 212.061 575.289 Q210.255 578.831 210.255 585.96 Q210.255 593.067 212.061 596.631 Q213.889 600.173 217.5 600.173 Q221.135 600.173 222.94 596.631 Q224.769 593.067 224.769 585.96 Q224.769 578.831 222.94 575.289 Q221.135 571.724 217.5 571.724 M217.5 568.021 Q223.31 568.021 226.366 572.627 Q229.445 577.21 229.445 585.96 Q229.445 594.687 226.366 599.294 Q223.31 603.877 217.5 603.877 Q211.69 603.877 208.612 599.294 Q205.556 594.687 205.556 585.96 Q205.556 577.21 208.612 572.627 Q211.69 568.021 217.5 568.021 Z" fill="#000000" fill-rule="nonzero" fill-opacity="1" /><path clip-path="url(#clip270)" d="M117.061 319.275 L135.417 319.275 L135.417 323.21 L121.343 323.21 L121.343 331.682 Q122.362 331.335 123.38 331.173 Q124.399 330.988 125.418 330.988 Q131.205 330.988 134.584 334.159 Q137.964 337.33 137.964 342.747 Q137.964 348.325 134.492 351.427 Q131.019 354.506 124.7 354.506 Q122.524 354.506 120.255 354.136 Q118.01 353.765 115.603 353.024 L115.603 348.325 Q117.686 349.46 119.908 350.015 Q122.13 350.571 124.607 350.571 Q128.612 350.571 130.95 348.464 Q133.288 346.358 133.288 342.747 Q133.288 339.136 130.95 337.029 Q128.612 334.923 124.607 334.923 Q122.732 334.923 120.857 335.339 Q119.006 335.756 117.061 336.636 L117.061 319.275 Z" fill="#000000" fill-rule="nonzero" fill-opacity="1" /><path clip-path="url(#clip270)" d="M157.177 322.353 Q153.566 322.353 151.737 325.918 Q149.931 329.46 149.931 336.589 Q149.931 343.696 151.737 347.261 Q153.566 350.802 157.177 350.802 Q160.811 350.802 162.616 347.261 Q164.445 343.696 164.445 336.589 Q164.445 329.46 162.616 325.918 Q160.811 322.353 157.177 322.353 M157.177 318.65 Q162.987 318.65 166.042 323.256 Q169.121 327.839 169.121 336.589 Q169.121 345.316 166.042 349.923 Q162.987 354.506 157.177 354.506 Q151.366 354.506 148.288 349.923 Q145.232 345.316 145.232 336.589 Q145.232 327.839 148.288 323.256 Q151.366 318.65 157.177 318.65 Z" fill="#000000" fill-rule="nonzero" fill-opacity="1" /><path clip-path="url(#clip270)" d="M187.338 322.353 Q183.727 322.353 181.899 325.918 Q180.093 329.46 180.093 336.589 Q180.093 343.696 181.899 347.261 Q183.727 350.802 187.338 350.802 Q190.973 350.802 192.778 347.261 Q194.607 343.696 194.607 336.589 Q194.607 329.46 192.778 325.918 Q190.973 322.353 187.338 322.353 M187.338 318.65 Q193.149 318.65 196.204 323.256 Q199.283 327.839 199.283 336.589 Q199.283 345.316 196.204 349.923 Q193.149 354.506 187.338 354.506 Q181.528 354.506 178.45 349.923 Q175.394 345.316 175.394 336.589 Q175.394 327.839 178.45 323.256 Q181.528 318.65 187.338 318.65 Z" fill="#000000" fill-rule="nonzero" fill-opacity="1" /><path clip-path="url(#clip270)" d="M217.5 322.353 Q213.889 322.353 212.061 325.918 Q210.255 329.46 210.255 336.589 Q210.255 343.696 212.061 347.261 Q213.889 350.802 217.5 350.802 Q221.135 350.802 222.94 347.261 Q224.769 343.696 224.769 336.589 Q224.769 329.46 222.94 325.918 Q221.135 322.353 217.5 322.353 M217.5 318.65 Q223.31 318.65 226.366 323.256 Q229.445 327.839 229.445 336.589 Q229.445 345.316 226.366 349.923 Q223.31 354.506 217.5 354.506 Q211.69 354.506 208.612 349.923 Q205.556 345.316 205.556 336.589 Q205.556 327.839 208.612 323.256 Q211.69 318.65 217.5 318.65 Z" fill="#000000" fill-rule="nonzero" fill-opacity="1" /><path clip-path="url(#clip270)" d="M127.593 85.3203 Q124.445 85.3203 122.593 87.473 Q120.765 89.6258 120.765 93.3758 Q120.765 97.1026 122.593 99.2785 Q124.445 101.431 127.593 101.431 Q130.742 101.431 132.57 99.2785 Q134.422 97.1026 134.422 93.3758 Q134.422 89.6258 132.57 87.473 Q130.742 85.3203 127.593 85.3203 M136.876 70.6676 L136.876 74.9268 Q135.117 74.0935 133.311 73.6537 Q131.529 73.2139 129.769 73.2139 Q125.14 73.2139 122.686 76.3388 Q120.255 79.4638 119.908 85.7832 Q121.274 83.7694 123.334 82.7045 Q125.394 81.6166 127.871 81.6166 Q133.08 81.6166 136.089 84.7879 Q139.121 87.936 139.121 93.3758 Q139.121 98.6998 135.973 101.917 Q132.825 105.135 127.593 105.135 Q121.598 105.135 118.427 100.552 Q115.256 95.9452 115.256 87.2184 Q115.256 79.024 119.144 74.1629 Q123.033 69.2787 129.584 69.2787 Q131.343 69.2787 133.126 69.6259 Q134.931 69.9731 136.876 70.6676 Z" fill="#000000" fill-rule="nonzero" fill-opacity="1" /><path clip-path="url(#clip270)" d="M157.177 72.9824 Q153.566 72.9824 151.737 76.5472 Q149.931 80.0888 149.931 87.2184 Q149.931 94.3249 151.737 97.8897 Q153.566 101.431 157.177 101.431 Q160.811 101.431 162.616 97.8897 Q164.445 94.3249 164.445 87.2184 Q164.445 80.0888 162.616 76.5472 Q160.811 72.9824 157.177 72.9824 M157.177 69.2787 Q162.987 69.2787 166.042 73.8852 Q169.121 78.4685 169.121 87.2184 Q169.121 95.9452 166.042 100.552 Q162.987 105.135 157.177 105.135 Q151.366 105.135 148.288 100.552 Q145.232 95.9452 145.232 87.2184 Q145.232 78.4685 148.288 73.8852 Q151.366 69.2787 157.177 69.2787 Z" fill="#000000" fill-rule="nonzero" fill-opacity="1" /><path clip-path="url(#clip270)" d="M187.338 72.9824 Q183.727 72.9824 181.899 76.5472 Q180.093 80.0888 180.093 87.2184 Q180.093 94.3249 181.899 97.8897 Q183.727 101.431 187.338 101.431 Q190.973 101.431 192.778 97.8897 Q194.607 94.3249 194.607 87.2184 Q194.607 80.0888 192.778 76.5472 Q190.973 72.9824 187.338 72.9824 M187.338 69.2787 Q193.149 69.2787 196.204 73.8852 Q199.283 78.4685 199.283 87.2184 Q199.283 95.9452 196.204 100.552 Q193.149 105.135 187.338 105.135 Q181.528 105.135 178.45 100.552 Q175.394 95.9452 175.394 87.2184 Q175.394 78.4685 178.45 73.8852 Q181.528 69.2787 187.338 69.2787 Z" fill="#000000" fill-rule="nonzero" fill-opacity="1" /><path clip-path="url(#clip270)" d="M217.5 72.9824 Q213.889 72.9824 212.061 76.5472 Q210.255 80.0888 210.255 87.2184 Q210.255 94.3249 212.061 97.8897 Q213.889 101.431 217.5 101.431 Q221.135 101.431 222.94 97.8897 Q224.769 94.3249 224.769 87.2184 Q224.769 80.0888 222.94 76.5472 Q221.135 72.9824 217.5 72.9824 M217.5 69.2787 Q223.31 69.2787 226.366 73.8852 Q229.445 78.4685 229.445 87.2184 Q229.445 95.9452 226.366 100.552 Q223.31 105.135 217.5 105.135 Q211.69 105.135 208.612 100.552 Q205.556 95.9452 205.556 87.2184 Q205.556 78.4685 208.612 73.8852 Q211.69 69.2787 217.5 69.2787 Z" fill="#000000" fill-rule="nonzero" fill-opacity="1" /><path clip-path="url(#clip270)" d="M14.479 1067.82 L14.479 1061.96 L64.0042 1061.96 L64.0042 1067.82 L14.479 1067.82 Z" fill="#000000" fill-rule="nonzero" fill-opacity="1" /><path clip-path="url(#clip270)" d="M14.5426 1014.92 Q21.8632 1019.19 29.0246 1021.25 Q36.186 1023.32 43.5384 1023.32 Q50.8908 1023.32 58.1159 1021.25 Q65.3091 1019.15 72.5979 1014.92 L72.5979 1020.01 Q65.1182 1024.79 57.8931 1027.18 Q50.668 1029.53 43.5384 1029.53 Q36.4406 1029.53 29.2474 1027.18 Q22.0542 1024.82 14.5426 1020.01 L14.5426 1014.92 Z" fill="#000000" fill-rule="nonzero" fill-opacity="1" /><path clip-path="url(#clip270)" d="M14.479 1003.56 L14.479 997.702 L64.0042 997.702 L64.0042 1003.56 L14.479 1003.56 Z" fill="#000000" fill-rule="nonzero" fill-opacity="1" /><path clip-path="url(#clip270)" d="M23.1363 961.608 L40.8648 961.608 L40.8648 943.88 L46.2757 943.88 L46.2757 961.608 L64.0042 961.608 L64.0042 966.956 L46.2757 966.956 L46.2757 984.684 L40.8648 984.684 L40.8648 966.956 L23.1363 966.956 L23.1363 961.608 Z" fill="#000000" fill-rule="nonzero" fill-opacity="1" /><path clip-path="url(#clip270)" d="M58.5933 928.889 L58.5933 918.385 L22.3406 918.385 L24.6323 929.812 L18.7758 929.812 L16.4842 918.449 L16.4842 912.019 L58.5933 912.019 L58.5933 901.516 L64.0042 901.516 L64.0042 928.889 L58.5933 928.889 Z" fill="#000000" fill-rule="nonzero" fill-opacity="1" /><path clip-path="url(#clip270)" d="M14.5426 890.281 L14.5426 885.188 Q22.0542 880.414 29.2474 878.058 Q36.4406 875.671 43.5384 875.671 Q50.668 875.671 57.8931 878.058 Q65.1182 880.414 72.5979 885.188 L72.5979 890.281 Q65.3091 886.047 58.1159 883.979 Q50.8908 881.878 43.5384 881.878 Q36.186 881.878 29.0246 883.979 Q21.8632 886.047 14.5426 890.281 Z" fill="#000000" fill-rule="nonzero" fill-opacity="1" /><path clip-path="url(#clip270)" d="M20.1444 807.367 L26.9239 807.367 Q23.9002 810.614 22.4043 814.306 Q20.9083 817.966 20.9083 822.104 Q20.9083 830.252 25.9054 834.581 Q30.8707 838.909 40.2919 838.909 Q49.6813 838.909 54.6784 834.581 Q59.6436 830.252 59.6436 822.104 Q59.6436 817.966 58.1477 814.306 Q56.6518 810.614 53.6281 807.367 L60.3439 807.367 Q62.6355 810.741 63.7814 814.529 Q64.9272 818.284 64.9272 822.486 Q64.9272 833.276 58.3387 839.482 Q51.7183 845.689 40.2919 845.689 Q28.8336 845.689 22.2451 839.482 Q15.6248 833.276 15.6248 822.486 Q15.6248 818.221 16.7706 814.465 Q17.8846 810.677 20.1444 807.367 Z" fill="#000000" fill-rule="nonzero" fill-opacity="1" /><path clip-path="url(#clip270)" d="M36.2815 799.951 L36.2815 796.259 L64.0042 796.259 L64.0042 799.951 L36.2815 799.951 Z" fill="#000000" fill-rule="nonzero" fill-opacity="1" /><path clip-path="url(#clip270)" d="M16.4842 755.741 L16.4842 750.331 L70.0516 766.881 L70.0516 772.292 L16.4842 755.741 Z" fill="#000000" fill-rule="nonzero" fill-opacity="1" /><path clip-path="url(#clip270)" d="M58.5933 717.102 L58.5933 694.662 L64.0042 694.662 L64.0042 724.836 L58.5933 724.836 Q54.8057 721.176 48.44 714.874 Q42.0425 708.54 40.1964 706.916 Q36.7271 703.829 34.34 702.62 Q31.921 701.378 29.5975 701.378 Q25.8099 701.378 23.4228 704.052 Q21.0356 706.694 21.0356 710.959 Q21.0356 713.982 22.086 717.356 Q23.1363 720.698 25.2688 724.518 L18.7758 724.518 Q17.2162 720.635 16.4205 717.261 Q15.6248 713.887 15.6248 711.086 Q15.6248 703.702 19.3169 699.309 Q23.009 694.917 29.1837 694.917 Q32.112 694.917 34.7537 696.031 Q37.3637 697.113 40.9285 700.01 Q41.8515 700.805 46.2757 705.07 Q50.668 709.335 58.5933 717.102 Z" fill="#000000" fill-rule="nonzero" fill-opacity="1" /><path clip-path="url(#clip270)" d="M28.3562 685.782 L28.3562 651.63 L34.2127 651.63 L34.2127 656.118 L56.1107 656.118 Q58.4023 656.118 59.4208 655.354 Q60.4075 654.558 60.4075 652.808 Q60.4075 652.33 60.3439 651.63 Q60.2484 650.93 60.2166 650.707 L64.4498 650.707 Q64.8635 651.821 65.0545 652.999 Q65.2455 654.177 65.2455 655.354 Q65.2455 659.174 63.1766 660.638 Q61.0759 662.102 55.4741 662.102 L34.2127 662.102 L34.2127 675.247 L64.0042 675.247 L64.0042 681.231 L34.2127 681.231 L34.2127 685.782 L28.3562 685.782 Z" fill="#000000" fill-rule="nonzero" fill-opacity="1" /><path clip-path="url(#clip270)" d="M14.5426 607.961 Q21.8632 612.227 29.0246 614.295 Q36.186 616.364 43.5384 616.364 Q50.8908 616.364 58.1159 614.295 Q65.3091 612.195 72.5979 607.961 L72.5979 613.054 Q65.1182 617.828 57.8931 620.215 Q50.668 622.571 43.5384 622.571 Q36.4406 622.571 29.2474 620.215 Q22.0542 617.86 14.5426 613.054 L14.5426 607.961 Z" fill="#000000" fill-rule="nonzero" fill-opacity="1" /><path clip-path="url(#clip270)" d="M77.5631 597.203 L28.3562 597.203 L28.3562 591.347 L50.5089 591.347 Q55.124 591.347 57.4793 589.151 Q59.8346 586.955 59.8346 582.658 Q59.8346 577.947 57.161 575.592 Q54.4874 573.205 49.1402 573.205 L28.3562 573.205 L28.3562 567.348 L55.7924 567.348 Q57.7021 567.348 58.6251 566.807 Q59.5163 566.234 59.5163 565.057 Q59.5163 564.77 59.3572 564.261 Q59.1662 563.752 58.7843 562.86 L63.4949 562.86 Q64.227 564.165 64.5771 565.343 Q64.9272 566.489 64.9272 567.603 Q64.9272 569.799 63.6859 571.104 Q62.4446 572.409 59.8983 572.886 Q62.4127 574.478 63.6859 576.801 Q64.9272 579.093 64.9272 582.212 Q64.9272 585.459 63.6859 587.75 Q62.4446 590.01 59.9619 591.347 L77.5631 591.347 L77.5631 597.203 Z" fill="#000000" fill-rule="nonzero" fill-opacity="1" /><path clip-path="url(#clip270)" d="M16.4842 554.871 L16.4842 548.442 L36.568 548.442 L16.4842 527.117 L16.4842 518.842 L38.6368 542.427 L64.0042 517.155 L64.0042 525.621 L41.1194 548.442 L64.0042 548.442 L64.0042 554.871 L16.4842 554.871 Z" fill="#000000" fill-rule="nonzero" fill-opacity="1" /><path clip-path="url(#clip270)" d="M16.4842 488.095 L34.2127 470.812 L34.2127 477.21 L21.6404 491.214 L34.2127 505.219 L34.2127 511.617 L16.4842 494.334 L16.4842 488.095 Z" fill="#000000" fill-rule="nonzero" fill-opacity="1" /><path clip-path="url(#clip270)" d="M58.5933 451.397 L58.5933 428.958 L64.0042 428.958 L64.0042 459.131 L58.5933 459.131 Q54.8057 455.471 48.44 449.169 Q42.0425 442.835 40.1964 441.212 Q36.7271 438.124 34.34 436.915 Q31.921 435.674 29.5975 435.674 Q25.8099 435.674 23.4228 438.347 Q21.0356 440.989 21.0356 445.254 Q21.0356 448.278 22.086 451.652 Q23.1363 454.994 25.2688 458.813 L18.7758 458.813 Q17.2162 454.93 16.4205 451.556 Q15.6248 448.182 15.6248 445.381 Q15.6248 437.997 19.3169 433.605 Q23.009 429.212 29.1837 429.212 Q32.112 429.212 34.7537 430.326 Q37.3637 431.409 40.9285 434.305 Q41.8515 435.101 46.2757 439.366 Q50.668 443.631 58.5933 451.397 Z" fill="#000000" fill-rule="nonzero" fill-opacity="1" /><path clip-path="url(#clip270)" d="M14.5426 417.213 L14.5426 412.121 Q22.0542 407.346 29.2474 404.991 Q36.4406 402.604 43.5384 402.604 Q50.668 402.604 57.8931 404.991 Q65.1182 407.346 72.5979 412.121 L72.5979 417.213 Q65.3091 412.98 58.1159 410.911 Q50.8908 408.81 43.5384 408.81 Q36.186 408.81 29.0246 410.911 Q21.8632 412.98 14.5426 417.213 Z" fill="#000000" fill-rule="nonzero" fill-opacity="1" /><polyline clip-path="url(#clip272)" style="stroke:#009af9; stroke-linecap:round; stroke-linejoin:round; stroke-width:4; stroke-opacity:1; fill:none" points="324.52,1384.24 344.41,1363.03 364.301,1325.62 384.191,1280.75 404.082,1230.35 423.972,1174.82 443.863,1114.06 463.753,1048.01 483.644,976.812 503.534,900.668 523.425,820.162 543.315,736.38 563.206,650.739 583.096,564.748 602.987,480.206 622.877,399.306 642.768,324.003 662.658,256.158 682.549,197.668 702.439,150.35 722.33,115.358 742.22,93.668 762.111,86.1857 782.002,93.01 801.892,113.846 821.783,148.153 841.673,195.065 861.564,252.985 881.454,320.36 901.345,395.424 921.235,475.981 941.126,559.891 961.016,644.962 980.907,729.113 1000.8,810.206 1020.69,886.406 1040.58,956.149 1060.47,1018.08 1080.36,1071.14 1100.25,1114.65 1120.14,1148.29 1140.03,1172.04 1159.92,1186.2 1179.81,1191.4 1199.7,1188.57 1219.59,1178.8 1239.48,1163.32 1259.37,1143.52 1279.26,1120.92 1299.16,1096.88 1319.05,1072.74 1338.94,1049.87 1358.83,1029.42 1378.72,1012.24 1398.61,999.117 1418.5,990.689 1438.39,987.123 1458.28,988.441 1478.17,994.6 1498.06,1005.19 1517.95,1019.55 1537.84,1037.07 1557.73,1056.94 1577.62,1078.2 1597.51,1099.93 1617.4,1121.24 1637.29,1141.24 1657.18,1159.12 1677.07,1174.18 1696.97,1185.87 1716.86,1193.81 1736.75,1197.71 1756.64,1197.51 1776.53,1193.33 1796.42,1185.44 1816.31,1174.19 1836.2,1160.16 1856.09,1144.04 1875.98,1126.49 1895.87,1108.27 1915.76,1090.23 1935.65,1073.14 1955.54,1057.7 1975.43,1044.6 1995.32,1034.46 2015.21,1027.73 2035.1,1024.73 2054.99,1025.74 2074.89,1030.83 2094.78,1039.93 2114.67,1052.84 2134.56,1069.29 2154.45,1088.88 2174.34,1111.04 2194.23,1135.24 2214.12,1160.86 2234.01,1187.23 2253.9,1213.68 2273.79,1239.62 2293.68,1264.45 "/>
</svg>
