<?xml version="1.0" encoding="utf-8"?>
<svg xmlns="http://www.w3.org/2000/svg" xmlns:xlink="http://www.w3.org/1999/xlink" width="600" height="400" viewBox="0 0 2400 1600">
<defs>
  <clipPath id="clip600">
    <rect x="0" y="0" width="2400" height="1600"/>
  </clipPath>
</defs>
<path clip-path="url(#clip600)" d="M0 1600 L2400 1600 L2400 0 L0 0  Z" fill="#ffffff" fill-rule="evenodd" fill-opacity="1"/>
<defs>
  <clipPath id="clip601">
    <rect x="265" y="47" width="2088" height="1377"/>
  </clipPath>
</defs>
<path clip-path="url(#clip600)" d="M265.445 1423.18 L2352.76 1423.18 L2352.76 47.2441 L265.445 47.2441  Z" fill="#ffffff" fill-rule="evenodd" fill-opacity="1"/>
<polyline clip-path="url(#clip601)" style="stroke:#000000; stroke-linecap:round; stroke-linejoin:round; stroke-width:2; stroke-opacity:0.1; fill:none" points="304.629,1423.18 304.629,47.2441 "/>
<polyline clip-path="url(#clip601)" style="stroke:#000000; stroke-linecap:round; stroke-linejoin:round; stroke-width:2; stroke-opacity:0.1; fill:none" points="801.892,1423.18 801.892,47.2441 "/>
<polyline clip-path="url(#clip601)" style="stroke:#000000; stroke-linecap:round; stroke-linejoin:round; stroke-width:2; stroke-opacity:0.1; fill:none" points="1299.16,1423.18 1299.16,47.2441 "/>
<polyline clip-path="url(#clip601)" style="stroke:#000000; stroke-linecap:round; stroke-linejoin:round; stroke-width:2; stroke-opacity:0.1; fill:none" points="1796.42,1423.18 1796.42,47.2441 "/>
<polyline clip-path="url(#clip601)" style="stroke:#000000; stroke-linecap:round; stroke-linejoin:round; stroke-width:2; stroke-opacity:0.1; fill:none" points="2293.68,1423.18 2293.68,47.2441 "/>
<polyline clip-path="url(#clip601)" style="stroke:#000000; stroke-linecap:round; stroke-linejoin:round; stroke-width:2; stroke-opacity:0.1; fill:none" points="265.445,1333.88 2352.76,1333.88 "/>
<polyline clip-path="url(#clip601)" style="stroke:#000000; stroke-linecap:round; stroke-linejoin:round; stroke-width:2; stroke-opacity:0.1; fill:none" points="265.445,1084.18 2352.76,1084.18 "/>
<polyline clip-path="url(#clip601)" style="stroke:#000000; stroke-linecap:round; stroke-linejoin:round; stroke-width:2; stroke-opacity:0.1; fill:none" points="265.445,834.474 2352.76,834.474 "/>
<polyline clip-path="url(#clip601)" style="stroke:#000000; stroke-linecap:round; stroke-linejoin:round; stroke-width:2; stroke-opacity:0.1; fill:none" points="265.445,584.772 2352.76,584.772 "/>
<polyline clip-path="url(#clip601)" style="stroke:#000000; stroke-linecap:round; stroke-linejoin:round; stroke-width:2; stroke-opacity:0.1; fill:none" points="265.445,335.07 2352.76,335.07 "/>
<polyline clip-path="url(#clip601)" style="stroke:#000000; stroke-linecap:round; stroke-linejoin:round; stroke-width:2; stroke-opacity:0.1; fill:none" points="265.445,85.3683 2352.76,85.3683 "/>
<polyline clip-path="url(#clip600)" style="stroke:#000000; stroke-linecap:round; stroke-linejoin:round; stroke-width:4; stroke-opacity:1; fill:none" points="265.445,1423.18 2352.76,1423.18 "/>
<polyline clip-path="url(#clip600)" style="stroke:#000000; stroke-linecap:round; stroke-linejoin:round; stroke-width:4; stroke-opacity:1; fill:none" points="304.629,1423.18 304.629,1404.28 "/>
<polyline clip-path="url(#clip600)" style="stroke:#000000; stroke-linecap:round; stroke-linejoin:round; stroke-width:4; stroke-opacity:1; fill:none" points="801.892,1423.18 801.892,1404.28 "/>
<polyline clip-path="url(#clip600)" style="stroke:#000000; stroke-linecap:round; stroke-linejoin:round; stroke-width:4; stroke-opacity:1; fill:none" points="1299.16,1423.18 1299.16,1404.28 "/>
<polyline clip-path="url(#clip600)" style="stroke:#000000; stroke-linecap:round; stroke-linejoin:round; stroke-width:4; stroke-opacity:1; fill:none" points="1796.42,1423.18 1796.42,1404.28 "/>
<polyline clip-path="url(#clip600)" style="stroke:#000000; stroke-linecap:round; stroke-linejoin:round; stroke-width:4; stroke-opacity:1; fill:none" points="2293.68,1423.18 2293.68,1404.28 "/>
<path clip-path="url(#clip600)" d="M304.629 1454.1 Q301.018 1454.1 299.189 1457.66 Q297.384 1461.2 297.384 1468.33 Q297.384 1475.44 299.189 1479.01 Q301.018 1482.55 304.629 1482.55 Q308.263 1482.55 310.069 1479.01 Q311.898 1475.44 311.898 1468.33 Q311.898 1461.2 310.069 1457.66 Q308.263 1454.1 304.629 1454.1 M304.629 1450.39 Q310.439 1450.39 313.495 1455 Q316.573 1459.58 316.573 1468.33 Q316.573 1477.06 313.495 1481.67 Q310.439 1486.25 304.629 1486.25 Q298.819 1486.25 295.74 1481.67 Q292.685 1477.06 292.685 1468.33 Q292.685 1459.58 295.74 1455 Q298.819 1450.39 304.629 1450.39 Z" fill="#000000" fill-rule="nonzero" fill-opacity="1" /><path clip-path="url(#clip600)" d="M765.584 1481.64 L781.904 1481.64 L781.904 1485.58 L759.959 1485.58 L759.959 1481.64 Q762.621 1478.89 767.205 1474.26 Q771.811 1469.61 772.992 1468.27 Q775.237 1465.74 776.117 1464.01 Q777.02 1462.25 777.02 1460.56 Q777.02 1457.8 775.075 1456.07 Q773.154 1454.33 770.052 1454.33 Q767.853 1454.33 765.399 1455.09 Q762.969 1455.86 760.191 1457.41 L760.191 1452.69 Q763.015 1451.55 765.469 1450.97 Q767.922 1450.39 769.959 1450.39 Q775.33 1450.39 778.524 1453.08 Q781.719 1455.77 781.719 1460.26 Q781.719 1462.39 780.908 1464.31 Q780.121 1466.2 778.015 1468.8 Q777.436 1469.47 774.334 1472.69 Q771.232 1475.88 765.584 1481.64 Z" fill="#000000" fill-rule="nonzero" fill-opacity="1" /><path clip-path="url(#clip600)" d="M791.765 1451.02 L810.121 1451.02 L810.121 1454.96 L796.047 1454.96 L796.047 1463.43 Q797.066 1463.08 798.084 1462.92 Q799.103 1462.73 800.121 1462.73 Q805.908 1462.73 809.288 1465.9 Q812.667 1469.08 812.667 1474.49 Q812.667 1480.07 809.195 1483.17 Q805.723 1486.25 799.404 1486.25 Q797.228 1486.25 794.959 1485.88 Q792.714 1485.51 790.306 1484.77 L790.306 1480.07 Q792.39 1481.2 794.612 1481.76 Q796.834 1482.32 799.311 1482.32 Q803.316 1482.32 805.654 1480.21 Q807.992 1478.1 807.992 1474.49 Q807.992 1470.88 805.654 1468.77 Q803.316 1466.67 799.311 1466.67 Q797.436 1466.67 795.561 1467.08 Q793.709 1467.5 791.765 1468.38 L791.765 1451.02 Z" fill="#000000" fill-rule="nonzero" fill-opacity="1" /><path clip-path="url(#clip600)" d="M831.88 1454.1 Q828.269 1454.1 826.441 1457.66 Q824.635 1461.2 824.635 1468.33 Q824.635 1475.44 826.441 1479.01 Q828.269 1482.55 831.88 1482.55 Q835.515 1482.55 837.32 1479.01 Q839.149 1475.44 839.149 1468.33 Q839.149 1461.2 837.32 1457.66 Q835.515 1454.1 831.88 1454.1 M831.88 1450.39 Q837.69 1450.39 840.746 1455 Q843.825 1459.58 843.825 1468.33 Q843.825 1477.06 840.746 1481.67 Q837.69 1486.25 831.88 1486.25 Q826.07 1486.25 822.991 1481.67 Q819.936 1477.06 819.936 1468.33 Q819.936 1459.58 822.991 1455 Q826.07 1450.39 831.88 1450.39 Z" fill="#000000" fill-rule="nonzero" fill-opacity="1" /><path clip-path="url(#clip600)" d="M1258.77 1451.02 L1277.13 1451.02 L1277.13 1454.96 L1263.06 1454.96 L1263.06 1463.43 Q1264.07 1463.08 1265.09 1462.92 Q1266.11 1462.73 1267.13 1462.73 Q1272.92 1462.73 1276.3 1465.9 Q1279.68 1469.08 1279.68 1474.49 Q1279.68 1480.07 1276.2 1483.17 Q1272.73 1486.25 1266.41 1486.25 Q1264.24 1486.25 1261.97 1485.88 Q1259.72 1485.51 1257.32 1484.77 L1257.32 1480.07 Q1259.4 1481.2 1261.62 1481.76 Q1263.84 1482.32 1266.32 1482.32 Q1270.32 1482.32 1272.66 1480.21 Q1275 1478.1 1275 1474.49 Q1275 1470.88 1272.66 1468.77 Q1270.32 1466.67 1266.32 1466.67 Q1264.44 1466.67 1262.57 1467.08 Q1260.72 1467.5 1258.77 1468.38 L1258.77 1451.02 Z" fill="#000000" fill-rule="nonzero" fill-opacity="1" /><path clip-path="url(#clip600)" d="M1298.89 1454.1 Q1295.28 1454.1 1293.45 1457.66 Q1291.64 1461.2 1291.64 1468.33 Q1291.64 1475.44 1293.45 1479.01 Q1295.28 1482.55 1298.89 1482.55 Q1302.52 1482.55 1304.33 1479.01 Q1306.16 1475.44 1306.16 1468.33 Q1306.16 1461.2 1304.33 1457.66 Q1302.52 1454.1 1298.89 1454.1 M1298.89 1450.39 Q1304.7 1450.39 1307.75 1455 Q1310.83 1459.58 1310.83 1468.33 Q1310.83 1477.06 1307.75 1481.67 Q1304.7 1486.25 1298.89 1486.25 Q1293.08 1486.25 1290 1481.67 Q1286.94 1477.06 1286.94 1468.33 Q1286.94 1459.58 1290 1455 Q1293.08 1450.39 1298.89 1450.39 Z" fill="#000000" fill-rule="nonzero" fill-opacity="1" /><path clip-path="url(#clip600)" d="M1329.05 1454.1 Q1325.44 1454.1 1323.61 1457.66 Q1321.81 1461.2 1321.81 1468.33 Q1321.81 1475.44 1323.61 1479.01 Q1325.44 1482.55 1329.05 1482.55 Q1332.68 1482.55 1334.49 1479.01 Q1336.32 1475.44 1336.32 1468.33 Q1336.32 1461.2 1334.49 1457.66 Q1332.68 1454.1 1329.05 1454.1 M1329.05 1450.39 Q1334.86 1450.39 1337.92 1455 Q1341 1459.58 1341 1468.33 Q1341 1477.06 1337.92 1481.67 Q1334.86 1486.25 1329.05 1486.25 Q1323.24 1486.25 1320.16 1481.67 Q1317.11 1477.06 1317.11 1468.33 Q1317.11 1459.58 1320.16 1455 Q1323.24 1450.39 1329.05 1450.39 Z" fill="#000000" fill-rule="nonzero" fill-opacity="1" /><path clip-path="url(#clip600)" d="M1754.69 1451.02 L1776.92 1451.02 L1776.92 1453.01 L1764.37 1485.58 L1759.49 1485.58 L1771.29 1454.96 L1754.69 1454.96 L1754.69 1451.02 Z" fill="#000000" fill-rule="nonzero" fill-opacity="1" /><path clip-path="url(#clip600)" d="M1786.08 1451.02 L1804.44 1451.02 L1804.44 1454.96 L1790.36 1454.96 L1790.36 1463.43 Q1791.38 1463.08 1792.4 1462.92 Q1793.42 1462.73 1794.44 1462.73 Q1800.23 1462.73 1803.61 1465.9 Q1806.99 1469.08 1806.99 1474.49 Q1806.99 1480.07 1803.51 1483.17 Q1800.04 1486.25 1793.72 1486.25 Q1791.55 1486.25 1789.28 1485.88 Q1787.03 1485.51 1784.62 1484.77 L1784.62 1480.07 Q1786.71 1481.2 1788.93 1481.76 Q1791.15 1482.32 1793.63 1482.32 Q1797.63 1482.32 1799.97 1480.21 Q1802.31 1478.1 1802.31 1474.49 Q1802.31 1470.88 1799.97 1468.77 Q1797.63 1466.67 1793.63 1466.67 Q1791.75 1466.67 1789.88 1467.08 Q1788.03 1467.5 1786.08 1468.38 L1786.08 1451.02 Z" fill="#000000" fill-rule="nonzero" fill-opacity="1" /><path clip-path="url(#clip600)" d="M1826.2 1454.1 Q1822.59 1454.1 1820.76 1457.66 Q1818.95 1461.2 1818.95 1468.33 Q1818.95 1475.44 1820.76 1479.01 Q1822.59 1482.55 1826.2 1482.55 Q1829.83 1482.55 1831.64 1479.01 Q1833.47 1475.44 1833.47 1468.33 Q1833.47 1461.2 1831.64 1457.66 Q1829.83 1454.1 1826.2 1454.1 M1826.2 1450.39 Q1832.01 1450.39 1835.06 1455 Q1838.14 1459.58 1838.14 1468.33 Q1838.14 1477.06 1835.06 1481.67 Q1832.01 1486.25 1826.2 1486.25 Q1820.39 1486.25 1817.31 1481.67 Q1814.25 1477.06 1814.25 1468.33 Q1814.25 1459.58 1817.31 1455 Q1820.39 1450.39 1826.2 1450.39 Z" fill="#000000" fill-rule="nonzero" fill-opacity="1" /><path clip-path="url(#clip600)" d="M2238.21 1481.64 L2245.85 1481.64 L2245.85 1455.28 L2237.54 1456.95 L2237.54 1452.69 L2245.8 1451.02 L2250.48 1451.02 L2250.48 1481.64 L2258.11 1481.64 L2258.11 1485.58 L2238.21 1485.58 L2238.21 1481.64 Z" fill="#000000" fill-rule="nonzero" fill-opacity="1" /><path clip-path="url(#clip600)" d="M2277.56 1454.1 Q2273.95 1454.1 2272.12 1457.66 Q2270.31 1461.2 2270.31 1468.33 Q2270.31 1475.44 2272.12 1479.01 Q2273.95 1482.55 2277.56 1482.55 Q2281.19 1482.55 2283 1479.01 Q2284.83 1475.44 2284.83 1468.33 Q2284.83 1461.2 2283 1457.66 Q2281.19 1454.1 2277.56 1454.1 M2277.56 1450.39 Q2283.37 1450.39 2286.42 1455 Q2289.5 1459.58 2289.5 1468.33 Q2289.5 1477.06 2286.42 1481.67 Q2283.37 1486.25 2277.56 1486.25 Q2271.75 1486.25 2268.67 1481.67 Q2265.61 1477.06 2265.61 1468.33 Q2265.61 1459.58 2268.67 1455 Q2271.75 1450.39 2277.56 1450.39 Z" fill="#000000" fill-rule="nonzero" fill-opacity="1" /><path clip-path="url(#clip600)" d="M2307.72 1454.1 Q2304.11 1454.1 2302.28 1457.66 Q2300.48 1461.2 2300.48 1468.33 Q2300.48 1475.44 2302.28 1479.01 Q2304.11 1482.55 2307.72 1482.55 Q2311.35 1482.55 2313.16 1479.01 Q2314.99 1475.44 2314.99 1468.33 Q2314.99 1461.2 2313.16 1457.66 Q2311.35 1454.1 2307.72 1454.1 M2307.72 1450.39 Q2313.53 1450.39 2316.59 1455 Q2319.66 1459.58 2319.66 1468.33 Q2319.66 1477.06 2316.59 1481.67 Q2313.53 1486.25 2307.72 1486.25 Q2301.91 1486.25 2298.83 1481.67 Q2295.78 1477.06 2295.78 1468.33 Q2295.78 1459.58 2298.83 1455 Q2301.91 1450.39 2307.72 1450.39 Z" fill="#000000" fill-rule="nonzero" fill-opacity="1" /><path clip-path="url(#clip600)" d="M2337.88 1454.1 Q2334.27 1454.1 2332.44 1457.66 Q2330.64 1461.2 2330.64 1468.33 Q2330.64 1475.44 2332.44 1479.01 Q2334.27 1482.55 2337.88 1482.55 Q2341.52 1482.55 2343.32 1479.01 Q2345.15 1475.44 2345.15 1468.33 Q2345.15 1461.2 2343.32 1457.66 Q2341.52 1454.1 2337.88 1454.1 M2337.88 1450.39 Q2343.69 1450.39 2346.75 1455 Q2349.83 1459.58 2349.83 1468.33 Q2349.83 1477.06 2346.75 1481.67 Q2343.69 1486.25 2337.88 1486.25 Q2332.07 1486.25 2328.99 1481.67 Q2325.94 1477.06 2325.94 1468.33 Q2325.94 1459.58 2328.99 1455 Q2332.07 1450.39 2337.88 1450.39 Z" fill="#000000" fill-rule="nonzero" fill-opacity="1" /><path clip-path="url(#clip600)" d="M1306.17 1518.52 L1312.03 1518.52 L1312.03 1568.04 L1306.17 1568.04 L1306.17 1518.52 Z" fill="#000000" fill-rule="nonzero" fill-opacity="1" /><polyline clip-path="url(#clip600)" style="stroke:#000000; stroke-linecap:round; stroke-linejoin:round; stroke-width:4; stroke-opacity:1; fill:none" points="265.445,1423.18 265.445,47.2441 "/>
<polyline clip-path="url(#clip600)" style="stroke:#000000; stroke-linecap:round; stroke-linejoin:round; stroke-width:4; stroke-opacity:1; fill:none" points="265.445,1333.88 284.342,1333.88 "/>
<polyline clip-path="url(#clip600)" style="stroke:#000000; stroke-linecap:round; stroke-linejoin:round; stroke-width:4; stroke-opacity:1; fill:none" points="265.445,1084.18 284.342,1084.18 "/>
<polyline clip-path="url(#clip600)" style="stroke:#000000; stroke-linecap:round; stroke-linejoin:round; stroke-width:4; stroke-opacity:1; fill:none" points="265.445,834.474 284.342,834.474 "/>
<polyline clip-path="url(#clip600)" style="stroke:#000000; stroke-linecap:round; stroke-linejoin:round; stroke-width:4; stroke-opacity:1; fill:none" points="265.445,584.772 284.342,584.772 "/>
<polyline clip-path="url(#clip600)" style="stroke:#000000; stroke-linecap:round; stroke-linejoin:round; stroke-width:4; stroke-opacity:1; fill:none" points="265.445,335.07 284.342,335.07 "/>
<polyline clip-path="url(#clip600)" style="stroke:#000000; stroke-linecap:round; stroke-linejoin:round; stroke-width:4; stroke-opacity:1; fill:none" points="265.445,85.3683 284.342,85.3683 "/>
<path clip-path="url(#clip600)" d="M117.825 1347.22 L125.464 1347.22 L125.464 1320.86 L117.154 1322.52 L117.154 1318.26 L125.418 1316.6 L130.093 1316.6 L130.093 1347.22 L137.732 1347.22 L137.732 1351.16 L117.825 1351.16 L117.825 1347.22 Z" fill="#000000" fill-rule="nonzero" fill-opacity="1" /><path clip-path="url(#clip600)" d="M157.177 1319.68 Q153.566 1319.68 151.737 1323.24 Q149.931 1326.78 149.931 1333.91 Q149.931 1341.02 151.737 1344.58 Q153.566 1348.13 157.177 1348.13 Q160.811 1348.13 162.616 1344.58 Q164.445 1341.02 164.445 1333.91 Q164.445 1326.78 162.616 1323.24 Q160.811 1319.68 157.177 1319.68 M157.177 1315.97 Q162.987 1315.97 166.042 1320.58 Q169.121 1325.16 169.121 1333.91 Q169.121 1342.64 166.042 1347.25 Q162.987 1351.83 157.177 1351.83 Q151.366 1351.83 148.288 1347.25 Q145.232 1342.64 145.232 1333.91 Q145.232 1325.16 148.288 1320.58 Q151.366 1315.97 157.177 1315.97 Z" fill="#000000" fill-rule="nonzero" fill-opacity="1" /><path clip-path="url(#clip600)" d="M187.338 1319.68 Q183.727 1319.68 181.899 1323.24 Q180.093 1326.78 180.093 1333.91 Q180.093 1341.02 181.899 1344.58 Q183.727 1348.13 187.338 1348.13 Q190.973 1348.13 192.778 1344.58 Q194.607 1341.02 194.607 1333.91 Q194.607 1326.78 192.778 1323.24 Q190.973 1319.68 187.338 1319.68 M187.338 1315.97 Q193.149 1315.97 196.204 1320.58 Q199.283 1325.16 199.283 1333.91 Q199.283 1342.64 196.204 1347.25 Q193.149 1351.83 187.338 1351.83 Q181.528 1351.83 178.45 1347.25 Q175.394 1342.64 175.394 1333.91 Q175.394 1325.16 178.45 1320.58 Q181.528 1315.97 187.338 1315.97 Z" fill="#000000" fill-rule="nonzero" fill-opacity="1" /><path clip-path="url(#clip600)" d="M217.5 1319.68 Q213.889 1319.68 212.061 1323.24 Q210.255 1326.78 210.255 1333.91 Q210.255 1341.02 212.061 1344.58 Q213.889 1348.13 217.5 1348.13 Q221.135 1348.13 222.94 1344.58 Q224.769 1341.02 224.769 1333.91 Q224.769 1326.78 222.94 1323.24 Q221.135 1319.68 217.5 1319.68 M217.5 1315.97 Q223.31 1315.97 226.366 1320.58 Q229.445 1325.16 229.445 1333.91 Q229.445 1342.64 226.366 1347.25 Q223.31 1351.83 217.5 1351.83 Q211.69 1351.83 208.612 1347.25 Q205.556 1342.64 205.556 1333.91 Q205.556 1325.16 208.612 1320.58 Q211.69 1315.97 217.5 1315.97 Z" fill="#000000" fill-rule="nonzero" fill-opacity="1" /><path clip-path="url(#clip600)" d="M121.043 1097.52 L137.362 1097.52 L137.362 1101.46 L115.418 1101.46 L115.418 1097.52 Q118.08 1094.77 122.663 1090.14 Q127.269 1085.48 128.45 1084.14 Q130.695 1081.62 131.575 1079.88 Q132.478 1078.12 132.478 1076.43 Q132.478 1073.68 130.533 1071.94 Q128.612 1070.21 125.51 1070.21 Q123.311 1070.21 120.857 1070.97 Q118.427 1071.73 115.649 1073.28 L115.649 1068.56 Q118.473 1067.43 120.927 1066.85 Q123.38 1066.27 125.418 1066.27 Q130.788 1066.27 133.982 1068.96 Q137.177 1071.64 137.177 1076.13 Q137.177 1078.26 136.367 1080.18 Q135.579 1082.08 133.473 1084.67 Q132.894 1085.34 129.792 1088.56 Q126.691 1091.76 121.043 1097.52 Z" fill="#000000" fill-rule="nonzero" fill-opacity="1" /><path clip-path="url(#clip600)" d="M157.177 1069.97 Q153.566 1069.97 151.737 1073.54 Q149.931 1077.08 149.931 1084.21 Q149.931 1091.32 151.737 1094.88 Q153.566 1098.42 157.177 1098.42 Q160.811 1098.42 162.616 1094.88 Q164.445 1091.32 164.445 1084.21 Q164.445 1077.08 162.616 1073.54 Q160.811 1069.97 157.177 1069.97 M157.177 1066.27 Q162.987 1066.27 166.042 1070.88 Q169.121 1075.46 169.121 1084.21 Q169.121 1092.94 166.042 1097.54 Q162.987 1102.13 157.177 1102.13 Q151.366 1102.13 148.288 1097.54 Q145.232 1092.94 145.232 1084.21 Q145.232 1075.46 148.288 1070.88 Q151.366 1066.27 157.177 1066.27 Z" fill="#000000" fill-rule="nonzero" fill-opacity="1" /><path clip-path="url(#clip600)" d="M187.338 1069.97 Q183.727 1069.97 181.899 1073.54 Q180.093 1077.08 180.093 1084.21 Q180.093 1091.32 181.899 1094.88 Q183.727 1098.42 187.338 1098.42 Q190.973 1098.42 192.778 1094.88 Q194.607 1091.32 194.607 1084.21 Q194.607 1077.08 192.778 1073.54 Q190.973 1069.97 187.338 1069.97 M187.338 1066.27 Q193.149 1066.27 196.204 1070.88 Q199.283 1075.46 199.283 1084.21 Q199.283 1092.94 196.204 1097.54 Q193.149 1102.13 187.338 1102.13 Q181.528 1102.13 178.45 1097.54 Q175.394 1092.94 175.394 1084.21 Q175.394 1075.46 178.45 1070.88 Q181.528 1066.27 187.338 1066.27 Z" fill="#000000" fill-rule="nonzero" fill-opacity="1" /><path clip-path="url(#clip600)" d="M217.5 1069.97 Q213.889 1069.97 212.061 1073.54 Q210.255 1077.08 210.255 1084.21 Q210.255 1091.32 212.061 1094.88 Q213.889 1098.42 217.5 1098.42 Q221.135 1098.42 222.94 1094.88 Q224.769 1091.32 224.769 1084.21 Q224.769 1077.08 222.94 1073.54 Q221.135 1069.97 217.5 1069.97 M217.5 1066.27 Q223.31 1066.27 226.366 1070.88 Q229.445 1075.46 229.445 1084.21 Q229.445 1092.94 226.366 1097.54 Q223.31 1102.13 217.5 1102.13 Q211.69 1102.13 208.612 1097.54 Q205.556 1092.94 205.556 1084.21 Q205.556 1075.46 208.612 1070.88 Q211.69 1066.27 217.5 1066.27 Z" fill="#000000" fill-rule="nonzero" fill-opacity="1" /><path clip-path="url(#clip600)" d="M131.181 833.12 Q134.538 833.837 136.413 836.106 Q138.311 838.374 138.311 841.708 Q138.311 846.823 134.792 849.624 Q131.274 852.425 124.793 852.425 Q122.617 852.425 120.302 851.985 Q118.01 851.569 115.556 850.712 L115.556 846.198 Q117.501 847.333 119.816 847.911 Q122.13 848.49 124.654 848.49 Q129.052 848.49 131.343 846.754 Q133.658 845.018 133.658 841.708 Q133.658 838.652 131.505 836.939 Q129.376 835.203 125.556 835.203 L121.529 835.203 L121.529 831.361 L125.742 831.361 Q129.191 831.361 131.019 829.995 Q132.848 828.606 132.848 826.013 Q132.848 823.351 130.95 821.939 Q129.075 820.504 125.556 820.504 Q123.635 820.504 121.436 820.921 Q119.237 821.337 116.598 822.217 L116.598 818.05 Q119.26 817.31 121.575 816.939 Q123.913 816.569 125.973 816.569 Q131.297 816.569 134.399 818.999 Q137.501 821.407 137.501 825.527 Q137.501 828.398 135.857 830.388 Q134.214 832.356 131.181 833.12 Z" fill="#000000" fill-rule="nonzero" fill-opacity="1" /><path clip-path="url(#clip600)" d="M157.177 820.273 Q153.566 820.273 151.737 823.837 Q149.931 827.379 149.931 834.509 Q149.931 841.615 151.737 845.18 Q153.566 848.722 157.177 848.722 Q160.811 848.722 162.616 845.18 Q164.445 841.615 164.445 834.509 Q164.445 827.379 162.616 823.837 Q160.811 820.273 157.177 820.273 M157.177 816.569 Q162.987 816.569 166.042 821.175 Q169.121 825.759 169.121 834.509 Q169.121 843.235 166.042 847.842 Q162.987 852.425 157.177 852.425 Q151.366 852.425 148.288 847.842 Q145.232 843.235 145.232 834.509 Q145.232 825.759 148.288 821.175 Q151.366 816.569 157.177 816.569 Z" fill="#000000" fill-rule="nonzero" fill-opacity="1" /><path clip-path="url(#clip600)" d="M187.338 820.273 Q183.727 820.273 181.899 823.837 Q180.093 827.379 180.093 834.509 Q180.093 841.615 181.899 845.18 Q183.727 848.722 187.338 848.722 Q190.973 848.722 192.778 845.18 Q194.607 841.615 194.607 834.509 Q194.607 827.379 192.778 823.837 Q190.973 820.273 187.338 820.273 M187.338 816.569 Q193.149 816.569 196.204 821.175 Q199.283 825.759 199.283 834.509 Q199.283 843.235 196.204 847.842 Q193.149 852.425 187.338 852.425 Q181.528 852.425 178.45 847.842 Q175.394 843.235 175.394 834.509 Q175.394 825.759 178.45 821.175 Q181.528 816.569 187.338 816.569 Z" fill="#000000" fill-rule="nonzero" fill-opacity="1" /><path clip-path="url(#clip600)" d="M217.5 820.273 Q213.889 820.273 212.061 823.837 Q210.255 827.379 210.255 834.509 Q210.255 841.615 212.061 845.18 Q213.889 848.722 217.5 848.722 Q221.135 848.722 222.94 845.18 Q224.769 841.615 224.769 834.509 Q224.769 827.379 222.94 823.837 Q221.135 820.273 217.5 820.273 M217.5 816.569 Q223.31 816.569 226.366 821.175 Q229.445 825.759 229.445 834.509 Q229.445 843.235 226.366 847.842 Q223.31 852.425 217.5 852.425 Q211.69 852.425 208.612 847.842 Q205.556 843.235 205.556 834.509 Q205.556 825.759 208.612 821.175 Q211.69 816.569 217.5 816.569 Z" fill="#000000" fill-rule="nonzero" fill-opacity="1" /><path clip-path="url(#clip600)" d="M129.862 571.566 L118.056 590.015 L129.862 590.015 L129.862 571.566 M128.635 567.492 L134.515 567.492 L134.515 590.015 L139.445 590.015 L139.445 593.904 L134.515 593.904 L134.515 602.052 L129.862 602.052 L129.862 593.904 L114.26 593.904 L114.26 589.39 L128.635 567.492 Z" fill="#000000" fill-rule="nonzero" fill-opacity="1" /><path clip-path="url(#clip600)" d="M157.177 570.571 Q153.566 570.571 151.737 574.136 Q149.931 577.677 149.931 584.807 Q149.931 591.913 151.737 595.478 Q153.566 599.02 157.177 599.02 Q160.811 599.02 162.616 595.478 Q164.445 591.913 164.445 584.807 Q164.445 577.677 162.616 574.136 Q160.811 570.571 157.177 570.571 M157.177 566.867 Q162.987 566.867 166.042 571.474 Q169.121 576.057 169.121 584.807 Q169.121 593.534 166.042 598.14 Q162.987 602.723 157.177 602.723 Q151.366 602.723 148.288 598.14 Q145.232 593.534 145.232 584.807 Q145.232 576.057 148.288 571.474 Q151.366 566.867 157.177 566.867 Z" fill="#000000" fill-rule="nonzero" fill-opacity="1" /><path clip-path="url(#clip600)" d="M187.338 570.571 Q183.727 570.571 181.899 574.136 Q180.093 577.677 180.093 584.807 Q180.093 591.913 181.899 595.478 Q183.727 599.02 187.338 599.02 Q190.973 599.02 192.778 595.478 Q194.607 591.913 194.607 584.807 Q194.607 577.677 192.778 574.136 Q190.973 570.571 187.338 570.571 M187.338 566.867 Q193.149 566.867 196.204 571.474 Q199.283 576.057 199.283 584.807 Q199.283 593.534 196.204 598.14 Q193.149 602.723 187.338 602.723 Q181.528 602.723 178.45 598.14 Q175.394 593.534 175.394 584.807 Q175.394 576.057 178.45 571.474 Q181.528 566.867 187.338 566.867 Z" fill="#000000" fill-rule="nonzero" fill-opacity="1" /><path clip-path="url(#clip600)" d="M217.5 570.571 Q213.889 570.571 212.061 574.136 Q210.255 577.677 210.255 584.807 Q210.255 591.913 212.061 595.478 Q213.889 599.02 217.5 599.02 Q221.135 599.02 222.94 595.478 Q224.769 591.913 224.769 584.807 Q224.769 577.677 222.94 574.136 Q221.135 570.571 217.5 570.571 M217.5 566.867 Q223.31 566.867 226.366 571.474 Q229.445 576.057 229.445 584.807 Q229.445 593.534 226.366 598.14 Q223.31 602.723 217.5 602.723 Q211.69 602.723 208.612 598.14 Q205.556 593.534 205.556 584.807 Q205.556 576.057 208.612 571.474 Q211.69 566.867 217.5 566.867 Z" fill="#000000" fill-rule="nonzero" fill-opacity="1" /><path clip-path="url(#clip600)" d="M117.061 317.79 L135.417 317.79 L135.417 321.725 L121.343 321.725 L121.343 330.198 Q122.362 329.85 123.38 329.688 Q124.399 329.503 125.418 329.503 Q131.205 329.503 134.584 332.674 Q137.964 335.846 137.964 341.262 Q137.964 346.841 134.492 349.943 Q131.019 353.021 124.7 353.021 Q122.524 353.021 120.255 352.651 Q118.01 352.281 115.603 351.54 L115.603 346.841 Q117.686 347.975 119.908 348.531 Q122.13 349.086 124.607 349.086 Q128.612 349.086 130.95 346.98 Q133.288 344.873 133.288 341.262 Q133.288 337.651 130.95 335.545 Q128.612 333.438 124.607 333.438 Q122.732 333.438 120.857 333.855 Q119.006 334.272 117.061 335.151 L117.061 317.79 Z" fill="#000000" fill-rule="nonzero" fill-opacity="1" /><path clip-path="url(#clip600)" d="M157.177 320.869 Q153.566 320.869 151.737 324.434 Q149.931 327.975 149.931 335.105 Q149.931 342.211 151.737 345.776 Q153.566 349.318 157.177 349.318 Q160.811 349.318 162.616 345.776 Q164.445 342.211 164.445 335.105 Q164.445 327.975 162.616 324.434 Q160.811 320.869 157.177 320.869 M157.177 317.165 Q162.987 317.165 166.042 321.772 Q169.121 326.355 169.121 335.105 Q169.121 343.832 166.042 348.438 Q162.987 353.021 157.177 353.021 Q151.366 353.021 148.288 348.438 Q145.232 343.832 145.232 335.105 Q145.232 326.355 148.288 321.772 Q151.366 317.165 157.177 317.165 Z" fill="#000000" fill-rule="nonzero" fill-opacity="1" /><path clip-path="url(#clip600)" d="M187.338 320.869 Q183.727 320.869 181.899 324.434 Q180.093 327.975 180.093 335.105 Q180.093 342.211 181.899 345.776 Q183.727 349.318 187.338 349.318 Q190.973 349.318 192.778 345.776 Q194.607 342.211 194.607 335.105 Q194.607 327.975 192.778 324.434 Q190.973 320.869 187.338 320.869 M187.338 317.165 Q193.149 317.165 196.204 321.772 Q199.283 326.355 199.283 335.105 Q199.283 343.832 196.204 348.438 Q193.149 353.021 187.338 353.021 Q181.528 353.021 178.45 348.438 Q175.394 343.832 175.394 335.105 Q175.394 326.355 178.45 321.772 Q181.528 317.165 187.338 317.165 Z" fill="#000000" fill-rule="nonzero" fill-opacity="1" /><path clip-path="url(#clip600)" d="M217.5 320.869 Q213.889 320.869 212.061 324.434 Q210.255 327.975 210.255 335.105 Q210.255 342.211 212.061 345.776 Q213.889 349.318 217.5 349.318 Q221.135 349.318 222.94 345.776 Q224.769 342.211 224.769 335.105 Q224.769 327.975 222.94 324.434 Q221.135 320.869 217.5 320.869 M217.5 317.165 Q223.31 317.165 226.366 321.772 Q229.445 326.355 229.445 335.105 Q229.445 343.832 226.366 348.438 Q223.31 353.021 217.5 353.021 Q211.69 353.021 208.612 348.438 Q205.556 343.832 205.556 335.105 Q205.556 326.355 208.612 321.772 Q211.69 317.165 217.5 317.165 Z" fill="#000000" fill-rule="nonzero" fill-opacity="1" /><path clip-path="url(#clip600)" d="M127.593 83.5049 Q124.445 83.5049 122.593 85.6576 Q120.765 87.8104 120.765 91.5604 Q120.765 95.2872 122.593 97.4631 Q124.445 99.6159 127.593 99.6159 Q130.742 99.6159 132.57 97.4631 Q134.422 95.2872 134.422 91.5604 Q134.422 87.8104 132.57 85.6576 Q130.742 83.5049 127.593 83.5049 M136.876 68.8522 L136.876 73.1114 Q135.117 72.2781 133.311 71.8383 Q131.529 71.3985 129.769 71.3985 Q125.14 71.3985 122.686 74.5234 Q120.255 77.6484 119.908 83.9678 Q121.274 81.954 123.334 80.8891 Q125.394 79.8012 127.871 79.8012 Q133.08 79.8012 136.089 82.9725 Q139.121 86.1206 139.121 91.5604 Q139.121 96.8844 135.973 100.102 Q132.825 103.32 127.593 103.32 Q121.598 103.32 118.427 98.7363 Q115.256 94.1298 115.256 85.403 Q115.256 77.2086 119.144 72.3475 Q123.033 67.4633 129.584 67.4633 Q131.343 67.4633 133.126 67.8105 Q134.931 68.1577 136.876 68.8522 Z" fill="#000000" fill-rule="nonzero" fill-opacity="1" /><path clip-path="url(#clip600)" d="M157.177 71.167 Q153.566 71.167 151.737 74.7318 Q149.931 78.2734 149.931 85.403 Q149.931 92.5095 151.737 96.0743 Q153.566 99.6159 157.177 99.6159 Q160.811 99.6159 162.616 96.0743 Q164.445 92.5095 164.445 85.403 Q164.445 78.2734 162.616 74.7318 Q160.811 71.167 157.177 71.167 M157.177 67.4633 Q162.987 67.4633 166.042 72.0697 Q169.121 76.6531 169.121 85.403 Q169.121 94.1298 166.042 98.7363 Q162.987 103.32 157.177 103.32 Q151.366 103.32 148.288 98.7363 Q145.232 94.1298 145.232 85.403 Q145.232 76.6531 148.288 72.0697 Q151.366 67.4633 157.177 67.4633 Z" fill="#000000" fill-rule="nonzero" fill-opacity="1" /><path clip-path="url(#clip600)" d="M187.338 71.167 Q183.727 71.167 181.899 74.7318 Q180.093 78.2734 180.093 85.403 Q180.093 92.5095 181.899 96.0743 Q183.727 99.6159 187.338 99.6159 Q190.973 99.6159 192.778 96.0743 Q194.607 92.5095 194.607 85.403 Q194.607 78.2734 192.778 74.7318 Q190.973 71.167 187.338 71.167 M187.338 67.4633 Q193.149 67.4633 196.204 72.0697 Q199.283 76.6531 199.283 85.403 Q199.283 94.1298 196.204 98.7363 Q193.149 103.32 187.338 103.32 Q181.528 103.32 178.45 98.7363 Q175.394 94.1298 175.394 85.403 Q175.394 76.6531 178.45 72.0697 Q181.528 67.4633 187.338 67.4633 Z" fill="#000000" fill-rule="nonzero" fill-opacity="1" /><path clip-path="url(#clip600)" d="M217.5 71.167 Q213.889 71.167 212.061 74.7318 Q210.255 78.2734 210.255 85.403 Q210.255 92.5095 212.061 96.0743 Q213.889 99.6159 217.5 99.6159 Q221.135 99.6159 222.94 96.0743 Q224.769 92.5095 224.769 85.403 Q224.769 78.2734 222.94 74.7318 Q221.135 71.167 217.5 71.167 M217.5 67.4633 Q223.31 67.4633 226.366 72.0697 Q229.445 76.6531 229.445 85.403 Q229.445 94.1298 226.366 98.7363 Q223.31 103.32 217.5 103.32 Q211.69 103.32 208.612 98.7363 Q205.556 94.1298 205.556 85.403 Q205.556 76.6531 208.612 72.0697 Q211.69 67.4633 217.5 67.4633 Z" fill="#000000" fill-rule="nonzero" fill-opacity="1" /><path clip-path="url(#clip600)" d="M14.479 1067.82 L14.479 1061.96 L64.0042 1061.96 L64.0042 1067.82 L14.479 1067.82 Z" fill="#000000" fill-rule="nonzero" fill-opacity="1" /><path clip-path="url(#clip600)" d="M14.5426 1014.92 Q21.8632 1019.19 29.0246 1021.25 Q36.186 1023.32 43.5384 1023.32 Q50.8908 1023.32 58.1159 1021.25 Q65.3091 1019.15 72.5979 1014.92 L72.5979 1020.01 Q65.1182 1024.79 57.8931 1027.18 Q50.668 1029.53 43.5384 1029.53 Q36.4406 1029.53 29.2474 1027.18 Q22.0542 1024.82 14.5426 1020.01 L14.5426 1014.92 Z" fill="#000000" fill-rule="nonzero" fill-opacity="1" /><path clip-path="url(#clip600)" d="M14.479 1003.56 L14.479 997.702 L64.0042 997.702 L64.0042 1003.56 L14.479 1003.56 Z" fill="#000000" fill-rule="nonzero" fill-opacity="1" /><path clip-path="url(#clip600)" d="M23.1363 961.608 L40.8648 961.608 L40.8648 943.88 L46.2757 943.88 L46.2757 961.608 L64.0042 961.608 L64.0042 966.956 L46.2757 966.956 L46.2757 984.684 L40.8648 984.684 L40.8648 966.956 L23.1363 966.956 L23.1363 961.608 Z" fill="#000000" fill-rule="nonzero" fill-opacity="1" /><path clip-path="url(#clip600)" d="M58.5933 928.889 L58.5933 918.385 L22.3406 918.385 L24.6323 929.812 L18.7758 929.812 L16.4842 918.449 L16.4842 912.019 L58.5933 912.019 L58.5933 901.516 L64.0042 901.516 L64.0042 928.889 L58.5933 928.889 Z" fill="#000000" fill-rule="nonzero" fill-opacity="1" /><path clip-path="url(#clip600)" d="M14.5426 890.281 L14.5426 885.188 Q22.0542 880.414 29.2474 878.058 Q36.4406 875.671 43.5384 875.671 Q50.668 875.671 57.8931 878.058 Q65.1182 880.414 72.5979 885.188 L72.5979 890.281 Q65.3091 886.047 58.1159 883.979 Q50.8908 881.878 43.5384 881.878 Q36.186 881.878 29.0246 883.979 Q21.8632 886.047 14.5426 890.281 Z" fill="#000000" fill-rule="nonzero" fill-opacity="1" /><path clip-path="url(#clip600)" d="M20.1444 807.367 L26.9239 807.367 Q23.9002 810.614 22.4043 814.306 Q20.9083 817.966 20.9083 822.104 Q20.9083 830.252 25.9054 834.581 Q30.8707 838.909 40.2919 838.909 Q49.6813 838.909 54.6784 834.581 Q59.6436 830.252 59.6436 822.104 Q59.6436 817.966 58.1477 814.306 Q56.6518 810.614 53.6281 807.367 L60.3439 807.367 Q62.6355 810.741 63.7814 814.529 Q64.9272 818.284 64.9272 822.486 Q64.9272 833.276 58.3387 839.482 Q51.7183 845.689 40.2919 845.689 Q28.8336 845.689 22.2451 839.482 Q15.6248 833.276 15.6248 822.486 Q15.6248 818.221 16.7706 814.465 Q17.8846 810.677 20.1444 807.367 Z" fill="#000000" fill-rule="nonzero" fill-opacity="1" /><path clip-path="url(#clip600)" d="M36.2815 799.951 L36.2815 796.259 L64.0042 796.259 L64.0042 799.951 L36.2815 799.951 Z" fill="#000000" fill-rule="nonzero" fill-opacity="1" /><path clip-path="url(#clip600)" d="M16.4842 755.741 L16.4842 750.331 L70.0516 766.881 L70.0516 772.292 L16.4842 755.741 Z" fill="#000000" fill-rule="nonzero" fill-opacity="1" /><path clip-path="url(#clip600)" d="M58.5933 717.102 L58.5933 694.662 L64.0042 694.662 L64.0042 724.836 L58.5933 724.836 Q54.8057 721.176 48.44 714.874 Q42.0425 708.54 40.1964 706.916 Q36.7271 703.829 34.34 702.62 Q31.921 701.378 29.5975 701.378 Q25.8099 701.378 23.4228 704.052 Q21.0356 706.694 21.0356 710.959 Q21.0356 713.982 22.086 717.356 Q23.1363 720.698 25.2688 724.518 L18.7758 724.518 Q17.2162 720.635 16.4205 717.261 Q15.6248 713.887 15.6248 711.086 Q15.6248 703.702 19.3169 699.309 Q23.009 694.917 29.1837 694.917 Q32.112 694.917 34.7537 696.031 Q37.3637 697.113 40.9285 700.01 Q41.8515 700.805 46.2757 705.07 Q50.668 709.335 58.5933 717.102 Z" fill="#000000" fill-rule="nonzero" fill-opacity="1" /><path clip-path="url(#clip600)" d="M28.3562 685.782 L28.3562 651.63 L34.2127 651.63 L34.2127 656.118 L56.1107 656.118 Q58.4023 656.118 59.4208 655.354 Q60.4075 654.558 60.4075 652.808 Q60.4075 652.33 60.3439 651.63 Q60.2484 650.93 60.2166 650.707 L64.4498 650.707 Q64.8635 651.821 65.0545 652.999 Q65.2455 654.177 65.2455 655.354 Q65.2455 659.174 63.1766 660.638 Q61.0759 662.102 55.4741 662.102 L34.2127 662.102 L34.2127 675.247 L64.0042 675.247 L64.0042 681.231 L34.2127 681.231 L34.2127 685.782 L28.3562 685.782 Z" fill="#000000" fill-rule="nonzero" fill-opacity="1" /><path clip-path="url(#clip600)" d="M14.5426 607.961 Q21.8632 612.227 29.0246 614.295 Q36.186 616.364 43.5384 616.364 Q50.8908 616.364 58.1159 614.295 Q65.3091 612.195 72.5979 607.961 L72.5979 613.054 Q65.1182 617.828 57.8931 620.215 Q50.668 622.571 43.5384 622.571 Q36.4406 622.571 29.2474 620.215 Q22.0542 617.86 14.5426 613.054 L14.5426 607.961 Z" fill="#000000" fill-rule="nonzero" fill-opacity="1" /><path clip-path="url(#clip600)" d="M77.5631 597.203 L28.3562 597.203 L28.3562 591.347 L50.5089 591.347 Q55.124 591.347 57.4793 589.151 Q59.8346 586.955 59.8346 582.658 Q59.8346 577.947 57.161 575.592 Q54.4874 573.205 49.1402 573.205 L28.3562 573.205 L28.3562 567.348 L55.7924 567.348 Q57.7021 567.348 58.6251 566.807 Q59.5163 566.234 59.5163 565.057 Q59.5163 564.77 59.3572 564.261 Q59.1662 563.752 58.7843 562.86 L63.4949 562.86 Q64.227 564.165 64.5771 565.343 Q64.9272 566.489 64.9272 567.603 Q64.9272 569.799 63.6859 571.104 Q62.4446 572.409 59.8983 572.886 Q62.4127 574.478 63.6859 576.801 Q64.9272 579.093 64.9272 582.212 Q64.9272 585.459 63.6859 587.75 Q62.4446 590.01 59.9619 591.347 L77.5631 591.347 L77.5631 597.203 Z" fill="#000000" fill-rule="nonzero" fill-opacity="1" /><path clip-path="url(#clip600)" d="M16.4842 554.871 L16.4842 548.442 L36.568 548.442 L16.4842 527.117 L16.4842 518.842 L38.6368 542.427 L64.0042 517.155 L64.0042 525.621 L41.1194 548.442 L64.0042 548.442 L64.0042 554.871 L16.4842 554.871 Z" fill="#000000" fill-rule="nonzero" fill-opacity="1" /><path clip-path="url(#clip600)" d="M16.4842 488.095 L34.2127 470.812 L34.2127 477.21 L21.6404 491.214 L34.2127 505.219 L34.2127 511.617 L16.4842 494.334 L16.4842 488.095 Z" fill="#000000" fill-rule="nonzero" fill-opacity="1" /><path clip-path="url(#clip600)" d="M58.5933 451.397 L58.5933 428.958 L64.0042 428.958 L64.0042 459.131 L58.5933 459.131 Q54.8057 455.471 48.44 449.169 Q42.0425 442.835 40.1964 441.212 Q36.7271 438.124 34.34 436.915 Q31.921 435.674 29.5975 435.674 Q25.8099 435.674 23.4228 438.347 Q21.0356 440.989 21.0356 445.254 Q21.0356 448.278 22.086 451.652 Q23.1363 454.994 25.2688 458.813 L18.7758 458.813 Q17.2162 454.93 16.4205 451.556 Q15.6248 448.182 15.6248 445.381 Q15.6248 437.997 19.3169 433.605 Q23.009 429.212 29.1837 429.212 Q32.112 429.212 34.7537 430.326 Q37.3637 431.409 40.9285 434.305 Q41.8515 435.101 46.2757 439.366 Q50.668 443.631 58.5933 451.397 Z" fill="#000000" fill-rule="nonzero" fill-opacity="1" /><path clip-path="url(#clip600)" d="M14.5426 417.213 L14.5426 412.121 Q22.0542 407.346 29.2474 404.991 Q36.4406 402.604 43.5384 402.604 Q50.668 402.604 57.8931 404.991 Q65.1182 407.346 72.5979 412.121 L72.5979 417.213 Q65.3091 412.98 58.1159 410.911 Q50.8908 408.81 43.5384 408.81 Q36.186 408.81 29.0246 410.911 Q21.8632 412.98 14.5426 417.213 Z" fill="#000000" fill-rule="nonzero" fill-opacity="1" /><polyline clip-path="url(#clip601)" style="stroke:#009af9; stroke-linecap:round; stroke-linejoin:round; stroke-width:4; stroke-opacity:1; fill:none" points="324.52,1384.24 344.41,1363.25 364.301,1325.75 384.191,1280.78 404.082,1230.6 423.972,1175.23 443.863,1114.73 463.753,1048.72 483.644,977.636 503.534,901.515 523.425,821.013 543.315,737.256 563.206,651.438 583.096,565.583 602.987,480.979 622.877,399.811 642.768,324.494 662.658,256.555 682.549,198.048 702.439,150.642 722.33,115.421 742.22,93.8472 762.111,86.1857 782.002,92.8839 801.892,113.619 821.783,147.728 841.673,194.556 861.564,252.438 881.454,319.888 901.345,394.908 921.235,475.487 941.126,559.403 961.016,644.559 980.907,728.716 1000.8,809.928 1020.69,886.248 1040.58,956.069 1060.47,1018.08 1080.36,1071.18 1100.25,1114.78 1120.14,1148.51 1140.03,1172.27 1159.92,1186.51 1179.81,1191.75 1199.7,1188.96 1219.59,1179.22 1239.48,1163.71 1259.37,1143.98 1279.26,1121.33 1299.16,1097.25 1319.05,1073.15 1338.94,1050.22 1358.83,1029.74 1378.72,1012.53 1398.61,999.42 1418.5,990.94 1438.39,987.308 1458.28,988.649 1478.17,994.732 1498.06,1005.23 1517.95,1019.62 1537.84,1037.13 1557.73,1056.97 1577.62,1078.25 1597.51,1099.98 1617.4,1121.33 1637.29,1141.31 1657.18,1159.23 1677.07,1174.33 1696.97,1185.99 1716.86,1193.95 1736.75,1197.83 1756.64,1197.64 1776.53,1193.46 1796.42,1185.53 1816.31,1174.3 1836.2,1160.29 1856.09,1144.13 1875.98,1126.58 1895.87,1108.35 1915.76,1090.29 1935.65,1073.2 1955.54,1057.7 1975.43,1044.63 1995.32,1034.41 2015.21,1027.65 2035.1,1024.64 2054.99,1025.6 2074.89,1030.67 2094.78,1039.77 2114.67,1052.68 2134.56,1069.13 2154.45,1088.67 2174.34,1110.84 2194.23,1135.06 2214.12,1160.66 2234.01,1187.04 2253.9,1213.51 2273.79,1239.46 2293.68,1264.31 "/>
</svg>
