<?xml version="1.0" encoding="utf-8"?>
<svg xmlns="http://www.w3.org/2000/svg" xmlns:xlink="http://www.w3.org/1999/xlink" width="600" height="400" viewBox="0 0 2400 1600">
<defs>
  <clipPath id="clip120">
    <rect x="0" y="0" width="2400" height="1600"/>
  </clipPath>
</defs>
<path clip-path="url(#clip120)" d="M0 1600 L2400 1600 L2400 0 L0 0  Z" fill="#ffffff" fill-rule="evenodd" fill-opacity="1"/>
<defs>
  <clipPath id="clip121">
    <rect x="394" y="47" width="1959" height="1377"/>
  </clipPath>
</defs>
<path clip-path="url(#clip120)" d="M394.884 1423.18 L2352.76 1423.18 L2352.76 47.2441 L394.884 47.2441  Z" fill="#ffffff" fill-rule="evenodd" fill-opacity="1"/>
<polyline clip-path="url(#clip121)" style="stroke:#000000; stroke-linecap:round; stroke-linejoin:round; stroke-width:2; stroke-opacity:0.1; fill:none" points="758.137,1423.18 758.137,47.2441 "/>
<polyline clip-path="url(#clip121)" style="stroke:#000000; stroke-linecap:round; stroke-linejoin:round; stroke-width:2; stroke-opacity:0.1; fill:none" points="1142.94,1423.18 1142.94,47.2441 "/>
<polyline clip-path="url(#clip121)" style="stroke:#000000; stroke-linecap:round; stroke-linejoin:round; stroke-width:2; stroke-opacity:0.1; fill:none" points="1527.74,1423.18 1527.74,47.2441 "/>
<polyline clip-path="url(#clip121)" style="stroke:#000000; stroke-linecap:round; stroke-linejoin:round; stroke-width:2; stroke-opacity:0.1; fill:none" points="1912.54,1423.18 1912.54,47.2441 "/>
<polyline clip-path="url(#clip121)" style="stroke:#000000; stroke-linecap:round; stroke-linejoin:round; stroke-width:2; stroke-opacity:0.1; fill:none" points="2297.34,1423.18 2297.34,47.2441 "/>
<polyline clip-path="url(#clip121)" style="stroke:#000000; stroke-linecap:round; stroke-linejoin:round; stroke-width:2; stroke-opacity:0.1; fill:none" points="394.884,1273.85 2352.76,1273.85 "/>
<polyline clip-path="url(#clip121)" style="stroke:#000000; stroke-linecap:round; stroke-linejoin:round; stroke-width:2; stroke-opacity:0.1; fill:none" points="394.884,1096.84 2352.76,1096.84 "/>
<polyline clip-path="url(#clip121)" style="stroke:#000000; stroke-linecap:round; stroke-linejoin:round; stroke-width:2; stroke-opacity:0.1; fill:none" points="394.884,919.836 2352.76,919.836 "/>
<polyline clip-path="url(#clip121)" style="stroke:#000000; stroke-linecap:round; stroke-linejoin:round; stroke-width:2; stroke-opacity:0.1; fill:none" points="394.884,742.829 2352.76,742.829 "/>
<polyline clip-path="url(#clip121)" style="stroke:#000000; stroke-linecap:round; stroke-linejoin:round; stroke-width:2; stroke-opacity:0.1; fill:none" points="394.884,565.822 2352.76,565.822 "/>
<polyline clip-path="url(#clip121)" style="stroke:#000000; stroke-linecap:round; stroke-linejoin:round; stroke-width:2; stroke-opacity:0.1; fill:none" points="394.884,388.815 2352.76,388.815 "/>
<polyline clip-path="url(#clip121)" style="stroke:#000000; stroke-linecap:round; stroke-linejoin:round; stroke-width:2; stroke-opacity:0.1; fill:none" points="394.884,211.808 2352.76,211.808 "/>
<polyline clip-path="url(#clip120)" style="stroke:#000000; stroke-linecap:round; stroke-linejoin:round; stroke-width:4; stroke-opacity:1; fill:none" points="394.884,1423.18 2352.76,1423.18 "/>
<polyline clip-path="url(#clip120)" style="stroke:#000000; stroke-linecap:round; stroke-linejoin:round; stroke-width:4; stroke-opacity:1; fill:none" points="758.137,1423.18 758.137,1404.28 "/>
<polyline clip-path="url(#clip120)" style="stroke:#000000; stroke-linecap:round; stroke-linejoin:round; stroke-width:4; stroke-opacity:1; fill:none" points="1142.94,1423.18 1142.94,1404.28 "/>
<polyline clip-path="url(#clip120)" style="stroke:#000000; stroke-linecap:round; stroke-linejoin:round; stroke-width:4; stroke-opacity:1; fill:none" points="1527.74,1423.18 1527.74,1404.28 "/>
<polyline clip-path="url(#clip120)" style="stroke:#000000; stroke-linecap:round; stroke-linejoin:round; stroke-width:4; stroke-opacity:1; fill:none" points="1912.54,1423.18 1912.54,1404.28 "/>
<polyline clip-path="url(#clip120)" style="stroke:#000000; stroke-linecap:round; stroke-linejoin:round; stroke-width:4; stroke-opacity:1; fill:none" points="2297.34,1423.18 2297.34,1404.28 "/>
<path clip-path="url(#clip120)" d="M721.829 1481.64 L738.149 1481.64 L738.149 1485.58 L716.204 1485.58 L716.204 1481.64 Q718.866 1478.89 723.45 1474.26 Q728.056 1469.61 729.237 1468.27 Q731.482 1465.74 732.362 1464.01 Q733.265 1462.25 733.265 1460.56 Q733.265 1457.8 731.32 1456.07 Q729.399 1454.33 726.297 1454.33 Q724.098 1454.33 721.644 1455.09 Q719.214 1455.86 716.436 1457.41 L716.436 1452.69 Q719.26 1451.55 721.714 1450.97 Q724.167 1450.39 726.204 1450.39 Q731.575 1450.39 734.769 1453.08 Q737.964 1455.77 737.964 1460.26 Q737.964 1462.39 737.153 1464.31 Q736.366 1466.2 734.26 1468.8 Q733.681 1469.47 730.579 1472.69 Q727.478 1475.88 721.829 1481.64 Z" fill="#000000" fill-rule="nonzero" fill-opacity="1" /><path clip-path="url(#clip120)" d="M757.963 1454.1 Q754.352 1454.1 752.524 1457.66 Q750.718 1461.2 750.718 1468.33 Q750.718 1475.44 752.524 1479.01 Q754.352 1482.55 757.963 1482.55 Q761.598 1482.55 763.403 1479.01 Q765.232 1475.44 765.232 1468.33 Q765.232 1461.2 763.403 1457.66 Q761.598 1454.1 757.963 1454.1 M757.963 1450.39 Q763.774 1450.39 766.829 1455 Q769.908 1459.58 769.908 1468.33 Q769.908 1477.06 766.829 1481.67 Q763.774 1486.25 757.963 1486.25 Q752.153 1486.25 749.075 1481.67 Q746.019 1477.06 746.019 1468.33 Q746.019 1459.58 749.075 1455 Q752.153 1450.39 757.963 1450.39 Z" fill="#000000" fill-rule="nonzero" fill-opacity="1" /><path clip-path="url(#clip120)" d="M788.125 1454.1 Q784.514 1454.1 782.686 1457.66 Q780.88 1461.2 780.88 1468.33 Q780.88 1475.44 782.686 1479.01 Q784.514 1482.55 788.125 1482.55 Q791.76 1482.55 793.565 1479.01 Q795.394 1475.44 795.394 1468.33 Q795.394 1461.2 793.565 1457.66 Q791.76 1454.1 788.125 1454.1 M788.125 1450.39 Q793.935 1450.39 796.991 1455 Q800.07 1459.58 800.07 1468.33 Q800.07 1477.06 796.991 1481.67 Q793.935 1486.25 788.125 1486.25 Q782.315 1486.25 779.236 1481.67 Q776.181 1477.06 776.181 1468.33 Q776.181 1459.58 779.236 1455 Q782.315 1450.39 788.125 1450.39 Z" fill="#000000" fill-rule="nonzero" fill-opacity="1" /><path clip-path="url(#clip120)" d="M1116.03 1455.09 L1104.22 1473.54 L1116.03 1473.54 L1116.03 1455.09 M1114.8 1451.02 L1120.68 1451.02 L1120.68 1473.54 L1125.61 1473.54 L1125.61 1477.43 L1120.68 1477.43 L1120.68 1485.58 L1116.03 1485.58 L1116.03 1477.43 L1100.43 1477.43 L1100.43 1472.92 L1114.8 1451.02 Z" fill="#000000" fill-rule="nonzero" fill-opacity="1" /><path clip-path="url(#clip120)" d="M1143.34 1454.1 Q1139.73 1454.1 1137.9 1457.66 Q1136.1 1461.2 1136.1 1468.33 Q1136.1 1475.44 1137.9 1479.01 Q1139.73 1482.55 1143.34 1482.55 Q1146.98 1482.55 1148.78 1479.01 Q1150.61 1475.44 1150.61 1468.33 Q1150.61 1461.2 1148.78 1457.66 Q1146.98 1454.1 1143.34 1454.1 M1143.34 1450.39 Q1149.15 1450.39 1152.21 1455 Q1155.29 1459.58 1155.29 1468.33 Q1155.29 1477.06 1152.21 1481.67 Q1149.15 1486.25 1143.34 1486.25 Q1137.53 1486.25 1134.46 1481.67 Q1131.4 1477.06 1131.4 1468.33 Q1131.4 1459.58 1134.46 1455 Q1137.53 1450.39 1143.34 1450.39 Z" fill="#000000" fill-rule="nonzero" fill-opacity="1" /><path clip-path="url(#clip120)" d="M1173.51 1454.1 Q1169.89 1454.1 1168.07 1457.66 Q1166.26 1461.2 1166.26 1468.33 Q1166.26 1475.44 1168.07 1479.01 Q1169.89 1482.55 1173.51 1482.55 Q1177.14 1482.55 1178.95 1479.01 Q1180.77 1475.44 1180.77 1468.33 Q1180.77 1461.2 1178.95 1457.66 Q1177.14 1454.1 1173.51 1454.1 M1173.51 1450.39 Q1179.32 1450.39 1182.37 1455 Q1185.45 1459.58 1185.45 1468.33 Q1185.45 1477.06 1182.37 1481.67 Q1179.32 1486.25 1173.51 1486.25 Q1167.7 1486.25 1164.62 1481.67 Q1161.56 1477.06 1161.56 1468.33 Q1161.56 1459.58 1164.62 1455 Q1167.7 1450.39 1173.51 1450.39 Z" fill="#000000" fill-rule="nonzero" fill-opacity="1" /><path clip-path="url(#clip120)" d="M1498.06 1466.44 Q1494.92 1466.44 1493.07 1468.59 Q1491.24 1470.74 1491.24 1474.49 Q1491.24 1478.22 1493.07 1480.39 Q1494.92 1482.55 1498.06 1482.55 Q1501.21 1482.55 1503.04 1480.39 Q1504.89 1478.22 1504.89 1474.49 Q1504.89 1470.74 1503.04 1468.59 Q1501.21 1466.44 1498.06 1466.44 M1507.35 1451.78 L1507.35 1456.04 Q1505.59 1455.21 1503.78 1454.77 Q1502 1454.33 1500.24 1454.33 Q1495.61 1454.33 1493.16 1457.45 Q1490.73 1460.58 1490.38 1466.9 Q1491.75 1464.89 1493.81 1463.82 Q1495.87 1462.73 1498.34 1462.73 Q1503.55 1462.73 1506.56 1465.9 Q1509.59 1469.05 1509.59 1474.49 Q1509.59 1479.82 1506.44 1483.03 Q1503.3 1486.25 1498.06 1486.25 Q1492.07 1486.25 1488.9 1481.67 Q1485.73 1477.06 1485.73 1468.33 Q1485.73 1460.14 1489.62 1455.28 Q1493.5 1450.39 1500.06 1450.39 Q1501.81 1450.39 1503.6 1450.74 Q1505.4 1451.09 1507.35 1451.78 Z" fill="#000000" fill-rule="nonzero" fill-opacity="1" /><path clip-path="url(#clip120)" d="M1527.65 1454.1 Q1524.04 1454.1 1522.21 1457.66 Q1520.4 1461.2 1520.4 1468.33 Q1520.4 1475.44 1522.21 1479.01 Q1524.04 1482.55 1527.65 1482.55 Q1531.28 1482.55 1533.09 1479.01 Q1534.92 1475.44 1534.92 1468.33 Q1534.92 1461.2 1533.09 1457.66 Q1531.28 1454.1 1527.65 1454.1 M1527.65 1450.39 Q1533.46 1450.39 1536.51 1455 Q1539.59 1459.58 1539.59 1468.33 Q1539.59 1477.06 1536.51 1481.67 Q1533.46 1486.25 1527.65 1486.25 Q1521.84 1486.25 1518.76 1481.67 Q1515.7 1477.06 1515.7 1468.33 Q1515.7 1459.58 1518.76 1455 Q1521.84 1450.39 1527.65 1450.39 Z" fill="#000000" fill-rule="nonzero" fill-opacity="1" /><path clip-path="url(#clip120)" d="M1557.81 1454.1 Q1554.2 1454.1 1552.37 1457.66 Q1550.56 1461.2 1550.56 1468.33 Q1550.56 1475.44 1552.37 1479.01 Q1554.2 1482.55 1557.81 1482.55 Q1561.44 1482.55 1563.25 1479.01 Q1565.08 1475.44 1565.08 1468.33 Q1565.08 1461.2 1563.25 1457.66 Q1561.44 1454.1 1557.81 1454.1 M1557.81 1450.39 Q1563.62 1450.39 1566.68 1455 Q1569.75 1459.58 1569.75 1468.33 Q1569.75 1477.06 1566.68 1481.67 Q1563.62 1486.25 1557.81 1486.25 Q1552 1486.25 1548.92 1481.67 Q1545.87 1477.06 1545.87 1468.33 Q1545.87 1459.58 1548.92 1455 Q1552 1450.39 1557.81 1450.39 Z" fill="#000000" fill-rule="nonzero" fill-opacity="1" /><path clip-path="url(#clip120)" d="M1882.33 1469.17 Q1879 1469.17 1877.08 1470.95 Q1875.18 1472.73 1875.18 1475.86 Q1875.18 1478.98 1877.08 1480.77 Q1879 1482.55 1882.33 1482.55 Q1885.67 1482.55 1887.59 1480.77 Q1889.51 1478.96 1889.51 1475.86 Q1889.51 1472.73 1887.59 1470.95 Q1885.69 1469.17 1882.33 1469.17 M1877.66 1467.18 Q1874.65 1466.44 1872.96 1464.38 Q1871.29 1462.32 1871.29 1459.35 Q1871.29 1455.21 1874.23 1452.8 Q1877.2 1450.39 1882.33 1450.39 Q1887.5 1450.39 1890.44 1452.8 Q1893.38 1455.21 1893.38 1459.35 Q1893.38 1462.32 1891.69 1464.38 Q1890.02 1466.44 1887.03 1467.18 Q1890.41 1467.96 1892.29 1470.26 Q1894.19 1472.55 1894.19 1475.86 Q1894.19 1480.88 1891.11 1483.57 Q1888.05 1486.25 1882.33 1486.25 Q1876.62 1486.25 1873.54 1483.57 Q1870.48 1480.88 1870.48 1475.86 Q1870.48 1472.55 1872.38 1470.26 Q1874.28 1467.96 1877.66 1467.18 M1875.95 1459.79 Q1875.95 1462.48 1877.61 1463.98 Q1879.3 1465.49 1882.33 1465.49 Q1885.34 1465.49 1887.03 1463.98 Q1888.75 1462.48 1888.75 1459.79 Q1888.75 1457.11 1887.03 1455.6 Q1885.34 1454.1 1882.33 1454.1 Q1879.3 1454.1 1877.61 1455.6 Q1875.95 1457.11 1875.95 1459.79 Z" fill="#000000" fill-rule="nonzero" fill-opacity="1" /><path clip-path="url(#clip120)" d="M1912.5 1454.1 Q1908.89 1454.1 1907.06 1457.66 Q1905.25 1461.2 1905.25 1468.33 Q1905.25 1475.44 1907.06 1479.01 Q1908.89 1482.55 1912.5 1482.55 Q1916.13 1482.55 1917.94 1479.01 Q1919.76 1475.44 1919.76 1468.33 Q1919.76 1461.2 1917.94 1457.66 Q1916.13 1454.1 1912.5 1454.1 M1912.5 1450.39 Q1918.31 1450.39 1921.36 1455 Q1924.44 1459.58 1924.44 1468.33 Q1924.44 1477.06 1921.36 1481.67 Q1918.31 1486.25 1912.5 1486.25 Q1906.69 1486.25 1903.61 1481.67 Q1900.55 1477.06 1900.55 1468.33 Q1900.55 1459.58 1903.61 1455 Q1906.69 1450.39 1912.5 1450.39 Z" fill="#000000" fill-rule="nonzero" fill-opacity="1" /><path clip-path="url(#clip120)" d="M1942.66 1454.1 Q1939.05 1454.1 1937.22 1457.66 Q1935.41 1461.2 1935.41 1468.33 Q1935.41 1475.44 1937.22 1479.01 Q1939.05 1482.55 1942.66 1482.55 Q1946.29 1482.55 1948.1 1479.01 Q1949.93 1475.44 1949.93 1468.33 Q1949.93 1461.2 1948.1 1457.66 Q1946.29 1454.1 1942.66 1454.1 M1942.66 1450.39 Q1948.47 1450.39 1951.52 1455 Q1954.6 1459.58 1954.6 1468.33 Q1954.6 1477.06 1951.52 1481.67 Q1948.47 1486.25 1942.66 1486.25 Q1936.85 1486.25 1933.77 1481.67 Q1930.71 1477.06 1930.71 1468.33 Q1930.71 1459.58 1933.77 1455 Q1936.85 1450.39 1942.66 1450.39 Z" fill="#000000" fill-rule="nonzero" fill-opacity="1" /><path clip-path="url(#clip120)" d="M2241.87 1481.64 L2249.51 1481.64 L2249.51 1455.28 L2241.2 1456.95 L2241.2 1452.69 L2249.46 1451.02 L2254.14 1451.02 L2254.14 1481.64 L2261.78 1481.64 L2261.78 1485.58 L2241.87 1485.58 L2241.87 1481.64 Z" fill="#000000" fill-rule="nonzero" fill-opacity="1" /><path clip-path="url(#clip120)" d="M2281.22 1454.1 Q2277.61 1454.1 2275.78 1457.66 Q2273.98 1461.2 2273.98 1468.33 Q2273.98 1475.44 2275.78 1479.01 Q2277.61 1482.55 2281.22 1482.55 Q2284.86 1482.55 2286.66 1479.01 Q2288.49 1475.44 2288.49 1468.33 Q2288.49 1461.2 2286.66 1457.66 Q2284.86 1454.1 2281.22 1454.1 M2281.22 1450.39 Q2287.03 1450.39 2290.09 1455 Q2293.17 1459.58 2293.17 1468.33 Q2293.17 1477.06 2290.09 1481.67 Q2287.03 1486.25 2281.22 1486.25 Q2275.41 1486.25 2272.33 1481.67 Q2269.28 1477.06 2269.28 1468.33 Q2269.28 1459.58 2272.33 1455 Q2275.41 1450.39 2281.22 1450.39 Z" fill="#000000" fill-rule="nonzero" fill-opacity="1" /><path clip-path="url(#clip120)" d="M2311.38 1454.1 Q2307.77 1454.1 2305.94 1457.66 Q2304.14 1461.2 2304.14 1468.33 Q2304.14 1475.44 2305.94 1479.01 Q2307.77 1482.55 2311.38 1482.55 Q2315.02 1482.55 2316.82 1479.01 Q2318.65 1475.44 2318.65 1468.33 Q2318.65 1461.2 2316.82 1457.66 Q2315.02 1454.1 2311.38 1454.1 M2311.38 1450.39 Q2317.19 1450.39 2320.25 1455 Q2323.33 1459.58 2323.33 1468.33 Q2323.33 1477.06 2320.25 1481.67 Q2317.19 1486.25 2311.38 1486.25 Q2305.57 1486.25 2302.49 1481.67 Q2299.44 1477.06 2299.44 1468.33 Q2299.44 1459.58 2302.49 1455 Q2305.57 1450.39 2311.38 1450.39 Z" fill="#000000" fill-rule="nonzero" fill-opacity="1" /><path clip-path="url(#clip120)" d="M2341.55 1454.1 Q2337.93 1454.1 2336.11 1457.66 Q2334.3 1461.2 2334.3 1468.33 Q2334.3 1475.44 2336.11 1479.01 Q2337.93 1482.55 2341.55 1482.55 Q2345.18 1482.55 2346.99 1479.01 Q2348.81 1475.44 2348.81 1468.33 Q2348.81 1461.2 2346.99 1457.66 Q2345.18 1454.1 2341.55 1454.1 M2341.55 1450.39 Q2347.36 1450.39 2350.41 1455 Q2353.49 1459.58 2353.49 1468.33 Q2353.49 1477.06 2350.41 1481.67 Q2347.36 1486.25 2341.55 1486.25 Q2335.74 1486.25 2332.66 1481.67 Q2329.6 1477.06 2329.6 1468.33 Q2329.6 1459.58 2332.66 1455 Q2335.74 1450.39 2341.55 1450.39 Z" fill="#000000" fill-rule="nonzero" fill-opacity="1" /><path clip-path="url(#clip120)" d="M1370.89 1518.52 L1376.75 1518.52 L1376.75 1568.04 L1370.89 1568.04 L1370.89 1518.52 Z" fill="#000000" fill-rule="nonzero" fill-opacity="1" /><polyline clip-path="url(#clip120)" style="stroke:#000000; stroke-linecap:round; stroke-linejoin:round; stroke-width:4; stroke-opacity:1; fill:none" points="394.884,1423.18 394.884,47.2441 "/>
<polyline clip-path="url(#clip120)" style="stroke:#000000; stroke-linecap:round; stroke-linejoin:round; stroke-width:4; stroke-opacity:1; fill:none" points="394.884,1273.85 413.782,1273.85 "/>
<polyline clip-path="url(#clip120)" style="stroke:#000000; stroke-linecap:round; stroke-linejoin:round; stroke-width:4; stroke-opacity:1; fill:none" points="394.884,1096.84 413.782,1096.84 "/>
<polyline clip-path="url(#clip120)" style="stroke:#000000; stroke-linecap:round; stroke-linejoin:round; stroke-width:4; stroke-opacity:1; fill:none" points="394.884,919.836 413.782,919.836 "/>
<polyline clip-path="url(#clip120)" style="stroke:#000000; stroke-linecap:round; stroke-linejoin:round; stroke-width:4; stroke-opacity:1; fill:none" points="394.884,742.829 413.782,742.829 "/>
<polyline clip-path="url(#clip120)" style="stroke:#000000; stroke-linecap:round; stroke-linejoin:round; stroke-width:4; stroke-opacity:1; fill:none" points="394.884,565.822 413.782,565.822 "/>
<polyline clip-path="url(#clip120)" style="stroke:#000000; stroke-linecap:round; stroke-linejoin:round; stroke-width:4; stroke-opacity:1; fill:none" points="394.884,388.815 413.782,388.815 "/>
<polyline clip-path="url(#clip120)" style="stroke:#000000; stroke-linecap:round; stroke-linejoin:round; stroke-width:4; stroke-opacity:1; fill:none" points="394.884,211.808 413.782,211.808 "/>
<path clip-path="url(#clip120)" d="M121.043 1293.64 L137.362 1293.64 L137.362 1297.58 L115.418 1297.58 L115.418 1293.64 Q118.08 1290.89 122.663 1286.26 Q127.269 1281.61 128.45 1280.26 Q130.695 1277.74 131.575 1276 Q132.478 1274.25 132.478 1272.56 Q132.478 1269.8 130.533 1268.06 Q128.612 1266.33 125.51 1266.33 Q123.311 1266.33 120.857 1267.09 Q118.427 1267.86 115.649 1269.41 L115.649 1264.69 Q118.473 1263.55 120.927 1262.97 Q123.38 1262.39 125.418 1262.39 Q130.788 1262.39 133.982 1265.08 Q137.177 1267.76 137.177 1272.25 Q137.177 1274.38 136.367 1276.31 Q135.579 1278.2 133.473 1280.8 Q132.894 1281.47 129.792 1284.68 Q126.691 1287.88 121.043 1293.64 Z" fill="#000000" fill-rule="nonzero" fill-opacity="1" /><path clip-path="url(#clip120)" d="M147.177 1291.7 L152.061 1291.7 L152.061 1297.58 L147.177 1297.58 L147.177 1291.7 Z" fill="#000000" fill-rule="nonzero" fill-opacity="1" /><path clip-path="url(#clip120)" d="M172.246 1266.1 Q168.635 1266.1 166.806 1269.66 Q165.001 1273.2 165.001 1280.33 Q165.001 1287.44 166.806 1291 Q168.635 1294.55 172.246 1294.55 Q175.88 1294.55 177.686 1291 Q179.514 1287.44 179.514 1280.33 Q179.514 1273.2 177.686 1269.66 Q175.88 1266.1 172.246 1266.1 M172.246 1262.39 Q178.056 1262.39 181.112 1267 Q184.19 1271.58 184.19 1280.33 Q184.19 1289.06 181.112 1293.67 Q178.056 1298.25 172.246 1298.25 Q166.436 1298.25 163.357 1293.67 Q160.302 1289.06 160.302 1280.33 Q160.302 1271.58 163.357 1267 Q166.436 1262.39 172.246 1262.39 Z" fill="#000000" fill-rule="nonzero" fill-opacity="1" /><path clip-path="url(#clip120)" d="M220.579 1272.12 L210 1282.74 L220.579 1293.32 L217.824 1296.12 L207.199 1285.5 L196.575 1296.12 L193.843 1293.32 L204.399 1282.74 L193.843 1272.12 L196.575 1269.31 L207.199 1279.94 L217.824 1269.31 L220.579 1272.12 Z" fill="#000000" fill-rule="nonzero" fill-opacity="1" /><path clip-path="url(#clip120)" d="M232.94 1293.64 L240.579 1293.64 L240.579 1267.28 L232.269 1268.94 L232.269 1264.69 L240.533 1263.02 L245.209 1263.02 L245.209 1293.64 L252.847 1293.64 L252.847 1297.58 L232.94 1297.58 L232.94 1293.64 Z" fill="#000000" fill-rule="nonzero" fill-opacity="1" /><path clip-path="url(#clip120)" d="M272.292 1266.1 Q268.681 1266.1 266.852 1269.66 Q265.046 1273.2 265.046 1280.33 Q265.046 1287.44 266.852 1291 Q268.681 1294.55 272.292 1294.55 Q275.926 1294.55 277.732 1291 Q279.56 1287.44 279.56 1280.33 Q279.56 1273.2 277.732 1269.66 Q275.926 1266.1 272.292 1266.1 M272.292 1262.39 Q278.102 1262.39 281.157 1267 Q284.236 1271.58 284.236 1280.33 Q284.236 1289.06 281.157 1293.67 Q278.102 1298.25 272.292 1298.25 Q266.482 1298.25 263.403 1293.67 Q260.347 1289.06 260.347 1280.33 Q260.347 1271.58 263.403 1267 Q266.482 1262.39 272.292 1262.39 Z" fill="#000000" fill-rule="nonzero" fill-opacity="1" /><path clip-path="url(#clip120)" d="M284.236 1256.49 L308.348 1256.49 L308.348 1259.69 L284.236 1259.69 L284.236 1256.49 Z" fill="#000000" fill-rule="nonzero" fill-opacity="1" /><path clip-path="url(#clip120)" d="M317.206 1266.97 L323.413 1266.97 L323.413 1245.55 L316.661 1246.9 L316.661 1243.44 L323.375 1242.09 L327.174 1242.09 L327.174 1266.97 L333.381 1266.97 L333.381 1270.17 L317.206 1270.17 L317.206 1266.97 Z" fill="#000000" fill-rule="nonzero" fill-opacity="1" /><path clip-path="url(#clip120)" d="M349.179 1244.59 Q346.245 1244.59 344.76 1247.49 Q343.292 1250.36 343.292 1256.16 Q343.292 1261.93 344.76 1264.83 Q346.245 1267.7 349.179 1267.7 Q352.132 1267.7 353.599 1264.83 Q355.085 1261.93 355.085 1256.16 Q355.085 1250.36 353.599 1247.49 Q352.132 1244.59 349.179 1244.59 M349.179 1241.58 Q353.9 1241.58 356.383 1245.32 Q358.884 1249.05 358.884 1256.16 Q358.884 1263.25 356.383 1266.99 Q353.9 1270.71 349.179 1270.71 Q344.459 1270.71 341.957 1266.99 Q339.475 1263.25 339.475 1256.16 Q339.475 1249.05 341.957 1245.32 Q344.459 1241.58 349.179 1241.58 Z" fill="#000000" fill-rule="nonzero" fill-opacity="1" /><path clip-path="url(#clip120)" d="M131.181 1101.94 Q134.538 1102.65 136.413 1104.92 Q138.311 1107.19 138.311 1110.52 Q138.311 1115.64 134.792 1118.44 Q131.274 1121.24 124.793 1121.24 Q122.617 1121.24 120.302 1120.8 Q118.01 1120.39 115.556 1119.53 L115.556 1115.02 Q117.501 1116.15 119.816 1116.73 Q122.13 1117.31 124.654 1117.31 Q129.052 1117.31 131.343 1115.57 Q133.658 1113.84 133.658 1110.52 Q133.658 1107.47 131.505 1105.76 Q129.376 1104.02 125.556 1104.02 L121.529 1104.02 L121.529 1100.18 L125.742 1100.18 Q129.191 1100.18 131.019 1098.81 Q132.848 1097.42 132.848 1094.83 Q132.848 1092.17 130.95 1090.76 Q129.075 1089.32 125.556 1089.32 Q123.635 1089.32 121.436 1089.74 Q119.237 1090.15 116.598 1091.03 L116.598 1086.87 Q119.26 1086.13 121.575 1085.76 Q123.913 1085.39 125.973 1085.39 Q131.297 1085.39 134.399 1087.82 Q137.501 1090.22 137.501 1094.34 Q137.501 1097.21 135.857 1099.21 Q134.214 1101.17 131.181 1101.94 Z" fill="#000000" fill-rule="nonzero" fill-opacity="1" /><path clip-path="url(#clip120)" d="M147.177 1114.69 L152.061 1114.69 L152.061 1120.57 L147.177 1120.57 L147.177 1114.69 Z" fill="#000000" fill-rule="nonzero" fill-opacity="1" /><path clip-path="url(#clip120)" d="M172.246 1089.09 Q168.635 1089.09 166.806 1092.65 Q165.001 1096.2 165.001 1103.33 Q165.001 1110.43 166.806 1114 Q168.635 1117.54 172.246 1117.54 Q175.88 1117.54 177.686 1114 Q179.514 1110.43 179.514 1103.33 Q179.514 1096.2 177.686 1092.65 Q175.88 1089.09 172.246 1089.09 M172.246 1085.39 Q178.056 1085.39 181.112 1089.99 Q184.19 1094.58 184.19 1103.33 Q184.19 1112.05 181.112 1116.66 Q178.056 1121.24 172.246 1121.24 Q166.436 1121.24 163.357 1116.66 Q160.302 1112.05 160.302 1103.33 Q160.302 1094.58 163.357 1089.99 Q166.436 1085.39 172.246 1085.39 Z" fill="#000000" fill-rule="nonzero" fill-opacity="1" /><path clip-path="url(#clip120)" d="M220.579 1095.11 L210 1105.73 L220.579 1116.31 L217.824 1119.11 L207.199 1108.49 L196.575 1119.11 L193.843 1116.31 L204.399 1105.73 L193.843 1095.11 L196.575 1092.31 L207.199 1102.93 L217.824 1092.31 L220.579 1095.11 Z" fill="#000000" fill-rule="nonzero" fill-opacity="1" /><path clip-path="url(#clip120)" d="M232.94 1116.64 L240.579 1116.64 L240.579 1090.27 L232.269 1091.94 L232.269 1087.68 L240.533 1086.01 L245.209 1086.01 L245.209 1116.64 L252.847 1116.64 L252.847 1120.57 L232.94 1120.57 L232.94 1116.64 Z" fill="#000000" fill-rule="nonzero" fill-opacity="1" /><path clip-path="url(#clip120)" d="M272.292 1089.09 Q268.681 1089.09 266.852 1092.65 Q265.046 1096.2 265.046 1103.33 Q265.046 1110.43 266.852 1114 Q268.681 1117.54 272.292 1117.54 Q275.926 1117.54 277.732 1114 Q279.56 1110.43 279.56 1103.33 Q279.56 1096.2 277.732 1092.65 Q275.926 1089.09 272.292 1089.09 M272.292 1085.39 Q278.102 1085.39 281.157 1089.99 Q284.236 1094.58 284.236 1103.33 Q284.236 1112.05 281.157 1116.66 Q278.102 1121.24 272.292 1121.24 Q266.482 1121.24 263.403 1116.66 Q260.347 1112.05 260.347 1103.33 Q260.347 1094.58 263.403 1089.99 Q266.482 1085.39 272.292 1085.39 Z" fill="#000000" fill-rule="nonzero" fill-opacity="1" /><path clip-path="url(#clip120)" d="M284.236 1079.49 L308.348 1079.49 L308.348 1082.68 L284.236 1082.68 L284.236 1079.49 Z" fill="#000000" fill-rule="nonzero" fill-opacity="1" /><path clip-path="url(#clip120)" d="M317.206 1089.96 L323.413 1089.96 L323.413 1068.54 L316.661 1069.9 L316.661 1066.43 L323.375 1065.08 L327.174 1065.08 L327.174 1089.96 L333.381 1089.96 L333.381 1093.16 L317.206 1093.16 L317.206 1089.96 Z" fill="#000000" fill-rule="nonzero" fill-opacity="1" /><path clip-path="url(#clip120)" d="M349.179 1067.58 Q346.245 1067.58 344.76 1070.48 Q343.292 1073.36 343.292 1079.15 Q343.292 1084.92 344.76 1087.82 Q346.245 1090.7 349.179 1090.7 Q352.132 1090.7 353.599 1087.82 Q355.085 1084.92 355.085 1079.15 Q355.085 1073.36 353.599 1070.48 Q352.132 1067.58 349.179 1067.58 M349.179 1064.57 Q353.9 1064.57 356.383 1068.32 Q358.884 1072.04 358.884 1079.15 Q358.884 1086.24 356.383 1089.98 Q353.9 1093.71 349.179 1093.71 Q344.459 1093.71 341.957 1089.98 Q339.475 1086.24 339.475 1079.15 Q339.475 1072.04 341.957 1068.32 Q344.459 1064.57 349.179 1064.57 Z" fill="#000000" fill-rule="nonzero" fill-opacity="1" /><path clip-path="url(#clip120)" d="M129.862 913.078 L118.056 931.527 L129.862 931.527 L129.862 913.078 M128.635 909.004 L134.515 909.004 L134.515 931.527 L139.445 931.527 L139.445 935.416 L134.515 935.416 L134.515 943.564 L129.862 943.564 L129.862 935.416 L114.26 935.416 L114.26 930.902 L128.635 909.004 Z" fill="#000000" fill-rule="nonzero" fill-opacity="1" /><path clip-path="url(#clip120)" d="M147.177 937.684 L152.061 937.684 L152.061 943.564 L147.177 943.564 L147.177 937.684 Z" fill="#000000" fill-rule="nonzero" fill-opacity="1" /><path clip-path="url(#clip120)" d="M172.246 912.083 Q168.635 912.083 166.806 915.648 Q165.001 919.189 165.001 926.319 Q165.001 933.425 166.806 936.99 Q168.635 940.532 172.246 940.532 Q175.88 940.532 177.686 936.99 Q179.514 933.425 179.514 926.319 Q179.514 919.189 177.686 915.648 Q175.88 912.083 172.246 912.083 M172.246 908.379 Q178.056 908.379 181.112 912.985 Q184.19 917.569 184.19 926.319 Q184.19 935.046 181.112 939.652 Q178.056 944.235 172.246 944.235 Q166.436 944.235 163.357 939.652 Q160.302 935.046 160.302 926.319 Q160.302 917.569 163.357 912.985 Q166.436 908.379 172.246 908.379 Z" fill="#000000" fill-rule="nonzero" fill-opacity="1" /><path clip-path="url(#clip120)" d="M220.579 918.101 L210 928.726 L220.579 939.305 L217.824 942.106 L207.199 931.481 L196.575 942.106 L193.843 939.305 L204.399 928.726 L193.843 918.101 L196.575 915.3 L207.199 925.925 L217.824 915.3 L220.579 918.101 Z" fill="#000000" fill-rule="nonzero" fill-opacity="1" /><path clip-path="url(#clip120)" d="M232.94 939.629 L240.579 939.629 L240.579 913.263 L232.269 914.93 L232.269 910.671 L240.533 909.004 L245.209 909.004 L245.209 939.629 L252.847 939.629 L252.847 943.564 L232.94 943.564 L232.94 939.629 Z" fill="#000000" fill-rule="nonzero" fill-opacity="1" /><path clip-path="url(#clip120)" d="M272.292 912.083 Q268.681 912.083 266.852 915.648 Q265.046 919.189 265.046 926.319 Q265.046 933.425 266.852 936.99 Q268.681 940.532 272.292 940.532 Q275.926 940.532 277.732 936.99 Q279.56 933.425 279.56 926.319 Q279.56 919.189 277.732 915.648 Q275.926 912.083 272.292 912.083 M272.292 908.379 Q278.102 908.379 281.157 912.985 Q284.236 917.569 284.236 926.319 Q284.236 935.046 281.157 939.652 Q278.102 944.235 272.292 944.235 Q266.482 944.235 263.403 939.652 Q260.347 935.046 260.347 926.319 Q260.347 917.569 263.403 912.985 Q266.482 908.379 272.292 908.379 Z" fill="#000000" fill-rule="nonzero" fill-opacity="1" /><path clip-path="url(#clip120)" d="M284.236 902.48 L308.348 902.48 L308.348 905.678 L284.236 905.678 L284.236 902.48 Z" fill="#000000" fill-rule="nonzero" fill-opacity="1" /><path clip-path="url(#clip120)" d="M317.206 912.956 L323.413 912.956 L323.413 891.534 L316.661 892.888 L316.661 889.428 L323.375 888.074 L327.174 888.074 L327.174 912.956 L333.381 912.956 L333.381 916.154 L317.206 916.154 L317.206 912.956 Z" fill="#000000" fill-rule="nonzero" fill-opacity="1" /><path clip-path="url(#clip120)" d="M349.179 890.575 Q346.245 890.575 344.76 893.471 Q343.292 896.349 343.292 902.142 Q343.292 907.916 344.76 910.812 Q346.245 913.69 349.179 913.69 Q352.132 913.69 353.599 910.812 Q355.085 907.916 355.085 902.142 Q355.085 896.349 353.599 893.471 Q352.132 890.575 349.179 890.575 M349.179 887.566 Q353.9 887.566 356.383 891.309 Q358.884 895.032 358.884 902.142 Q358.884 909.232 356.383 912.975 Q353.9 916.699 349.179 916.699 Q344.459 916.699 341.957 912.975 Q339.475 909.232 339.475 902.142 Q339.475 895.032 341.957 891.309 Q344.459 887.566 349.179 887.566 Z" fill="#000000" fill-rule="nonzero" fill-opacity="1" /><path clip-path="url(#clip120)" d="M117.061 731.997 L135.417 731.997 L135.417 735.932 L121.343 735.932 L121.343 744.404 Q122.362 744.057 123.38 743.895 Q124.399 743.71 125.418 743.71 Q131.205 743.71 134.584 746.881 Q137.964 750.052 137.964 755.469 Q137.964 761.048 134.492 764.149 Q131.019 767.228 124.7 767.228 Q122.524 767.228 120.255 766.858 Q118.01 766.487 115.603 765.747 L115.603 761.048 Q117.686 762.182 119.908 762.737 Q122.13 763.293 124.607 763.293 Q128.612 763.293 130.95 761.187 Q133.288 759.08 133.288 755.469 Q133.288 751.858 130.95 749.751 Q128.612 747.645 124.607 747.645 Q122.732 747.645 120.857 748.062 Q119.006 748.478 117.061 749.358 L117.061 731.997 Z" fill="#000000" fill-rule="nonzero" fill-opacity="1" /><path clip-path="url(#clip120)" d="M147.177 760.677 L152.061 760.677 L152.061 766.557 L147.177 766.557 L147.177 760.677 Z" fill="#000000" fill-rule="nonzero" fill-opacity="1" /><path clip-path="url(#clip120)" d="M172.246 735.076 Q168.635 735.076 166.806 738.64 Q165.001 742.182 165.001 749.312 Q165.001 756.418 166.806 759.983 Q168.635 763.524 172.246 763.524 Q175.88 763.524 177.686 759.983 Q179.514 756.418 179.514 749.312 Q179.514 742.182 177.686 738.64 Q175.88 735.076 172.246 735.076 M172.246 731.372 Q178.056 731.372 181.112 735.978 Q184.19 740.562 184.19 749.312 Q184.19 758.038 181.112 762.645 Q178.056 767.228 172.246 767.228 Q166.436 767.228 163.357 762.645 Q160.302 758.038 160.302 749.312 Q160.302 740.562 163.357 735.978 Q166.436 731.372 172.246 731.372 Z" fill="#000000" fill-rule="nonzero" fill-opacity="1" /><path clip-path="url(#clip120)" d="M220.579 741.094 L210 751.719 L220.579 762.298 L217.824 765.099 L207.199 754.474 L196.575 765.099 L193.843 762.298 L204.399 751.719 L193.843 741.094 L196.575 738.293 L207.199 748.918 L217.824 738.293 L220.579 741.094 Z" fill="#000000" fill-rule="nonzero" fill-opacity="1" /><path clip-path="url(#clip120)" d="M232.94 762.622 L240.579 762.622 L240.579 736.256 L232.269 737.923 L232.269 733.664 L240.533 731.997 L245.209 731.997 L245.209 762.622 L252.847 762.622 L252.847 766.557 L232.94 766.557 L232.94 762.622 Z" fill="#000000" fill-rule="nonzero" fill-opacity="1" /><path clip-path="url(#clip120)" d="M272.292 735.076 Q268.681 735.076 266.852 738.64 Q265.046 742.182 265.046 749.312 Q265.046 756.418 266.852 759.983 Q268.681 763.524 272.292 763.524 Q275.926 763.524 277.732 759.983 Q279.56 756.418 279.56 749.312 Q279.56 742.182 277.732 738.64 Q275.926 735.076 272.292 735.076 M272.292 731.372 Q278.102 731.372 281.157 735.978 Q284.236 740.562 284.236 749.312 Q284.236 758.038 281.157 762.645 Q278.102 767.228 272.292 767.228 Q266.482 767.228 263.403 762.645 Q260.347 758.038 260.347 749.312 Q260.347 740.562 263.403 735.978 Q266.482 731.372 272.292 731.372 Z" fill="#000000" fill-rule="nonzero" fill-opacity="1" /><path clip-path="url(#clip120)" d="M284.236 725.473 L308.348 725.473 L308.348 728.671 L284.236 728.671 L284.236 725.473 Z" fill="#000000" fill-rule="nonzero" fill-opacity="1" /><path clip-path="url(#clip120)" d="M317.206 735.949 L323.413 735.949 L323.413 714.527 L316.661 715.881 L316.661 712.421 L323.375 711.066 L327.174 711.066 L327.174 735.949 L333.381 735.949 L333.381 739.146 L317.206 739.146 L317.206 735.949 Z" fill="#000000" fill-rule="nonzero" fill-opacity="1" /><path clip-path="url(#clip120)" d="M349.179 713.568 Q346.245 713.568 344.76 716.464 Q343.292 719.342 343.292 725.135 Q343.292 730.909 344.76 733.805 Q346.245 736.683 349.179 736.683 Q352.132 736.683 353.599 733.805 Q355.085 730.909 355.085 725.135 Q355.085 719.342 353.599 716.464 Q352.132 713.568 349.179 713.568 M349.179 710.559 Q353.9 710.559 356.383 714.301 Q358.884 718.025 358.884 725.135 Q358.884 732.225 356.383 735.968 Q353.9 739.692 349.179 739.692 Q344.459 739.692 341.957 735.968 Q339.475 732.225 339.475 725.135 Q339.475 718.025 341.957 714.301 Q344.459 710.559 349.179 710.559 Z" fill="#000000" fill-rule="nonzero" fill-opacity="1" /><path clip-path="url(#clip120)" d="M127.593 570.406 Q124.445 570.406 122.593 572.559 Q120.765 574.712 120.765 578.462 Q120.765 582.189 122.593 584.365 Q124.445 586.517 127.593 586.517 Q130.742 586.517 132.57 584.365 Q134.422 582.189 134.422 578.462 Q134.422 574.712 132.57 572.559 Q130.742 570.406 127.593 570.406 M136.876 555.754 L136.876 560.013 Q135.117 559.179 133.311 558.74 Q131.529 558.3 129.769 558.3 Q125.14 558.3 122.686 561.425 Q120.255 564.55 119.908 570.869 Q121.274 568.855 123.334 567.791 Q125.394 566.703 127.871 566.703 Q133.08 566.703 136.089 569.874 Q139.121 573.022 139.121 578.462 Q139.121 583.786 135.973 587.003 Q132.825 590.221 127.593 590.221 Q121.598 590.221 118.427 585.638 Q115.256 581.031 115.256 572.304 Q115.256 564.11 119.144 559.249 Q123.033 554.365 129.584 554.365 Q131.343 554.365 133.126 554.712 Q134.931 555.059 136.876 555.754 Z" fill="#000000" fill-rule="nonzero" fill-opacity="1" /><path clip-path="url(#clip120)" d="M147.177 583.67 L152.061 583.67 L152.061 589.55 L147.177 589.55 L147.177 583.67 Z" fill="#000000" fill-rule="nonzero" fill-opacity="1" /><path clip-path="url(#clip120)" d="M172.246 558.068 Q168.635 558.068 166.806 561.633 Q165.001 565.175 165.001 572.304 Q165.001 579.411 166.806 582.976 Q168.635 586.517 172.246 586.517 Q175.88 586.517 177.686 582.976 Q179.514 579.411 179.514 572.304 Q179.514 565.175 177.686 561.633 Q175.88 558.068 172.246 558.068 M172.246 554.365 Q178.056 554.365 181.112 558.971 Q184.19 563.554 184.19 572.304 Q184.19 581.031 181.112 585.638 Q178.056 590.221 172.246 590.221 Q166.436 590.221 163.357 585.638 Q160.302 581.031 160.302 572.304 Q160.302 563.554 163.357 558.971 Q166.436 554.365 172.246 554.365 Z" fill="#000000" fill-rule="nonzero" fill-opacity="1" /><path clip-path="url(#clip120)" d="M220.579 564.087 L210 574.712 L220.579 585.29 L217.824 588.091 L207.199 577.466 L196.575 588.091 L193.843 585.29 L204.399 574.712 L193.843 564.087 L196.575 561.286 L207.199 571.911 L217.824 561.286 L220.579 564.087 Z" fill="#000000" fill-rule="nonzero" fill-opacity="1" /><path clip-path="url(#clip120)" d="M232.94 585.615 L240.579 585.615 L240.579 559.249 L232.269 560.916 L232.269 556.656 L240.533 554.99 L245.209 554.99 L245.209 585.615 L252.847 585.615 L252.847 589.55 L232.94 589.55 L232.94 585.615 Z" fill="#000000" fill-rule="nonzero" fill-opacity="1" /><path clip-path="url(#clip120)" d="M272.292 558.068 Q268.681 558.068 266.852 561.633 Q265.046 565.175 265.046 572.304 Q265.046 579.411 266.852 582.976 Q268.681 586.517 272.292 586.517 Q275.926 586.517 277.732 582.976 Q279.56 579.411 279.56 572.304 Q279.56 565.175 277.732 561.633 Q275.926 558.068 272.292 558.068 M272.292 554.365 Q278.102 554.365 281.157 558.971 Q284.236 563.554 284.236 572.304 Q284.236 581.031 281.157 585.638 Q278.102 590.221 272.292 590.221 Q266.482 590.221 263.403 585.638 Q260.347 581.031 260.347 572.304 Q260.347 563.554 263.403 558.971 Q266.482 554.365 272.292 554.365 Z" fill="#000000" fill-rule="nonzero" fill-opacity="1" /><path clip-path="url(#clip120)" d="M284.236 548.466 L308.348 548.466 L308.348 551.663 L284.236 551.663 L284.236 548.466 Z" fill="#000000" fill-rule="nonzero" fill-opacity="1" /><path clip-path="url(#clip120)" d="M317.206 558.942 L323.413 558.942 L323.413 537.52 L316.661 538.874 L316.661 535.413 L323.375 534.059 L327.174 534.059 L327.174 558.942 L333.381 558.942 L333.381 562.139 L317.206 562.139 L317.206 558.942 Z" fill="#000000" fill-rule="nonzero" fill-opacity="1" /><path clip-path="url(#clip120)" d="M349.179 536.561 Q346.245 536.561 344.76 539.457 Q343.292 542.335 343.292 548.127 Q343.292 553.901 344.76 556.798 Q346.245 559.675 349.179 559.675 Q352.132 559.675 353.599 556.798 Q355.085 553.901 355.085 548.127 Q355.085 542.335 353.599 539.457 Q352.132 536.561 349.179 536.561 M349.179 533.551 Q353.9 533.551 356.383 537.294 Q358.884 541.018 358.884 548.127 Q358.884 555.218 356.383 558.961 Q353.9 562.685 349.179 562.685 Q344.459 562.685 341.957 558.961 Q339.475 555.218 339.475 548.127 Q339.475 541.018 341.957 537.294 Q344.459 533.551 349.179 533.551 Z" fill="#000000" fill-rule="nonzero" fill-opacity="1" /><path clip-path="url(#clip120)" d="M115.834 377.983 L138.056 377.983 L138.056 379.973 L125.51 412.543 L120.626 412.543 L132.431 381.918 L115.834 381.918 L115.834 377.983 Z" fill="#000000" fill-rule="nonzero" fill-opacity="1" /><path clip-path="url(#clip120)" d="M147.177 406.663 L152.061 406.663 L152.061 412.543 L147.177 412.543 L147.177 406.663 Z" fill="#000000" fill-rule="nonzero" fill-opacity="1" /><path clip-path="url(#clip120)" d="M172.246 381.061 Q168.635 381.061 166.806 384.626 Q165.001 388.168 165.001 395.297 Q165.001 402.404 166.806 405.968 Q168.635 409.51 172.246 409.51 Q175.88 409.51 177.686 405.968 Q179.514 402.404 179.514 395.297 Q179.514 388.168 177.686 384.626 Q175.88 381.061 172.246 381.061 M172.246 377.358 Q178.056 377.358 181.112 381.964 Q184.19 386.547 184.19 395.297 Q184.19 404.024 181.112 408.63 Q178.056 413.214 172.246 413.214 Q166.436 413.214 163.357 408.63 Q160.302 404.024 160.302 395.297 Q160.302 386.547 163.357 381.964 Q166.436 377.358 172.246 377.358 Z" fill="#000000" fill-rule="nonzero" fill-opacity="1" /><path clip-path="url(#clip120)" d="M220.579 387.08 L210 397.705 L220.579 408.283 L217.824 411.084 L207.199 400.459 L196.575 411.084 L193.843 408.283 L204.399 397.705 L193.843 387.08 L196.575 384.279 L207.199 394.904 L217.824 384.279 L220.579 387.08 Z" fill="#000000" fill-rule="nonzero" fill-opacity="1" /><path clip-path="url(#clip120)" d="M232.94 408.607 L240.579 408.607 L240.579 382.242 L232.269 383.908 L232.269 379.649 L240.533 377.983 L245.209 377.983 L245.209 408.607 L252.847 408.607 L252.847 412.543 L232.94 412.543 L232.94 408.607 Z" fill="#000000" fill-rule="nonzero" fill-opacity="1" /><path clip-path="url(#clip120)" d="M272.292 381.061 Q268.681 381.061 266.852 384.626 Q265.046 388.168 265.046 395.297 Q265.046 402.404 266.852 405.968 Q268.681 409.51 272.292 409.51 Q275.926 409.51 277.732 405.968 Q279.56 402.404 279.56 395.297 Q279.56 388.168 277.732 384.626 Q275.926 381.061 272.292 381.061 M272.292 377.358 Q278.102 377.358 281.157 381.964 Q284.236 386.547 284.236 395.297 Q284.236 404.024 281.157 408.63 Q278.102 413.214 272.292 413.214 Q266.482 413.214 263.403 408.63 Q260.347 404.024 260.347 395.297 Q260.347 386.547 263.403 381.964 Q266.482 377.358 272.292 377.358 Z" fill="#000000" fill-rule="nonzero" fill-opacity="1" /><path clip-path="url(#clip120)" d="M284.236 371.459 L308.348 371.459 L308.348 374.656 L284.236 374.656 L284.236 371.459 Z" fill="#000000" fill-rule="nonzero" fill-opacity="1" /><path clip-path="url(#clip120)" d="M317.206 381.935 L323.413 381.935 L323.413 360.513 L316.661 361.867 L316.661 358.406 L323.375 357.052 L327.174 357.052 L327.174 381.935 L333.381 381.935 L333.381 385.132 L317.206 385.132 L317.206 381.935 Z" fill="#000000" fill-rule="nonzero" fill-opacity="1" /><path clip-path="url(#clip120)" d="M349.179 359.554 Q346.245 359.554 344.76 362.45 Q343.292 365.328 343.292 371.12 Q343.292 376.894 344.76 379.791 Q346.245 382.668 349.179 382.668 Q352.132 382.668 353.599 379.791 Q355.085 376.894 355.085 371.12 Q355.085 365.328 353.599 362.45 Q352.132 359.554 349.179 359.554 M349.179 356.544 Q353.9 356.544 356.383 360.287 Q358.884 364.011 358.884 371.12 Q358.884 378.211 356.383 381.954 Q353.9 385.678 349.179 385.678 Q344.459 385.678 341.957 381.954 Q339.475 378.211 339.475 371.12 Q339.475 364.011 341.957 360.287 Q344.459 356.544 349.179 356.544 Z" fill="#000000" fill-rule="nonzero" fill-opacity="1" /><path clip-path="url(#clip120)" d="M127.015 219.123 Q123.681 219.123 121.76 220.906 Q119.862 222.688 119.862 225.813 Q119.862 228.938 121.76 230.721 Q123.681 232.503 127.015 232.503 Q130.348 232.503 132.269 230.721 Q134.191 228.915 134.191 225.813 Q134.191 222.688 132.269 220.906 Q130.371 219.123 127.015 219.123 M122.339 217.133 Q119.33 216.392 117.64 214.332 Q115.973 212.272 115.973 209.309 Q115.973 205.165 118.913 202.758 Q121.876 200.35 127.015 200.35 Q132.177 200.35 135.117 202.758 Q138.056 205.165 138.056 209.309 Q138.056 212.272 136.367 214.332 Q134.7 216.392 131.714 217.133 Q135.093 217.92 136.968 220.211 Q138.867 222.503 138.867 225.813 Q138.867 230.836 135.788 233.521 Q132.732 236.207 127.015 236.207 Q121.297 236.207 118.218 233.521 Q115.163 230.836 115.163 225.813 Q115.163 222.503 117.061 220.211 Q118.959 217.92 122.339 217.133 M120.626 209.748 Q120.626 212.434 122.293 213.938 Q123.982 215.443 127.015 215.443 Q130.024 215.443 131.714 213.938 Q133.427 212.434 133.427 209.748 Q133.427 207.063 131.714 205.559 Q130.024 204.054 127.015 204.054 Q123.982 204.054 122.293 205.559 Q120.626 207.063 120.626 209.748 Z" fill="#000000" fill-rule="nonzero" fill-opacity="1" /><path clip-path="url(#clip120)" d="M147.177 229.656 L152.061 229.656 L152.061 235.535 L147.177 235.535 L147.177 229.656 Z" fill="#000000" fill-rule="nonzero" fill-opacity="1" /><path clip-path="url(#clip120)" d="M172.246 204.054 Q168.635 204.054 166.806 207.619 Q165.001 211.16 165.001 218.29 Q165.001 225.396 166.806 228.961 Q168.635 232.503 172.246 232.503 Q175.88 232.503 177.686 228.961 Q179.514 225.396 179.514 218.29 Q179.514 211.16 177.686 207.619 Q175.88 204.054 172.246 204.054 M172.246 200.35 Q178.056 200.35 181.112 204.957 Q184.19 209.54 184.19 218.29 Q184.19 227.017 181.112 231.623 Q178.056 236.207 172.246 236.207 Q166.436 236.207 163.357 231.623 Q160.302 227.017 160.302 218.29 Q160.302 209.54 163.357 204.957 Q166.436 200.35 172.246 200.35 Z" fill="#000000" fill-rule="nonzero" fill-opacity="1" /><path clip-path="url(#clip120)" d="M220.579 210.073 L210 220.697 L220.579 231.276 L217.824 234.077 L207.199 223.452 L196.575 234.077 L193.843 231.276 L204.399 220.697 L193.843 210.073 L196.575 207.272 L207.199 217.897 L217.824 207.272 L220.579 210.073 Z" fill="#000000" fill-rule="nonzero" fill-opacity="1" /><path clip-path="url(#clip120)" d="M232.94 231.6 L240.579 231.6 L240.579 205.235 L232.269 206.901 L232.269 202.642 L240.533 200.975 L245.209 200.975 L245.209 231.6 L252.847 231.6 L252.847 235.535 L232.94 235.535 L232.94 231.6 Z" fill="#000000" fill-rule="nonzero" fill-opacity="1" /><path clip-path="url(#clip120)" d="M272.292 204.054 Q268.681 204.054 266.852 207.619 Q265.046 211.16 265.046 218.29 Q265.046 225.396 266.852 228.961 Q268.681 232.503 272.292 232.503 Q275.926 232.503 277.732 228.961 Q279.56 225.396 279.56 218.29 Q279.56 211.16 277.732 207.619 Q275.926 204.054 272.292 204.054 M272.292 200.35 Q278.102 200.35 281.157 204.957 Q284.236 209.54 284.236 218.29 Q284.236 227.017 281.157 231.623 Q278.102 236.207 272.292 236.207 Q266.482 236.207 263.403 231.623 Q260.347 227.017 260.347 218.29 Q260.347 209.54 263.403 204.957 Q266.482 200.35 272.292 200.35 Z" fill="#000000" fill-rule="nonzero" fill-opacity="1" /><path clip-path="url(#clip120)" d="M284.236 194.452 L308.348 194.452 L308.348 197.649 L284.236 197.649 L284.236 194.452 Z" fill="#000000" fill-rule="nonzero" fill-opacity="1" /><path clip-path="url(#clip120)" d="M317.206 204.928 L323.413 204.928 L323.413 183.506 L316.661 184.86 L316.661 181.399 L323.375 180.045 L327.174 180.045 L327.174 204.928 L333.381 204.928 L333.381 208.125 L317.206 208.125 L317.206 204.928 Z" fill="#000000" fill-rule="nonzero" fill-opacity="1" /><path clip-path="url(#clip120)" d="M349.179 182.546 Q346.245 182.546 344.76 185.443 Q343.292 188.32 343.292 194.113 Q343.292 199.887 344.76 202.784 Q346.245 205.661 349.179 205.661 Q352.132 205.661 353.599 202.784 Q355.085 199.887 355.085 194.113 Q355.085 188.32 353.599 185.443 Q352.132 182.546 349.179 182.546 M349.179 179.537 Q353.9 179.537 356.383 183.28 Q358.884 187.004 358.884 194.113 Q358.884 201.204 356.383 204.946 Q353.9 208.67 349.179 208.67 Q344.459 208.67 341.957 204.946 Q339.475 201.204 339.475 194.113 Q339.475 187.004 341.957 183.28 Q344.459 179.537 349.179 179.537 Z" fill="#000000" fill-rule="nonzero" fill-opacity="1" /><path clip-path="url(#clip120)" d="M14.479 902.328 L14.479 896.471 L64.0042 896.471 L64.0042 902.328 L14.479 902.328 Z" fill="#000000" fill-rule="nonzero" fill-opacity="1" /><path clip-path="url(#clip120)" d="M14.5426 870.149 Q21.8632 874.414 29.0246 876.483 Q36.186 878.552 43.5384 878.552 Q50.8908 878.552 58.1159 876.483 Q65.3091 874.382 72.5979 870.149 L72.5979 875.242 Q65.1182 880.016 57.8931 882.403 Q50.668 884.758 43.5384 884.758 Q36.4406 884.758 29.2474 882.403 Q22.0542 880.048 14.5426 875.242 L14.5426 870.149 Z" fill="#000000" fill-rule="nonzero" fill-opacity="1" /><path clip-path="url(#clip120)" d="M14.479 858.786 L14.479 852.93 L64.0042 852.93 L64.0042 858.786 L14.479 858.786 Z" fill="#000000" fill-rule="nonzero" fill-opacity="1" /><path clip-path="url(#clip120)" d="M23.1363 816.836 L40.8648 816.836 L40.8648 799.108 L46.2757 799.108 L46.2757 816.836 L64.0042 816.836 L64.0042 822.183 L46.2757 822.183 L46.2757 839.912 L40.8648 839.912 L40.8648 822.183 L23.1363 822.183 L23.1363 816.836 Z" fill="#000000" fill-rule="nonzero" fill-opacity="1" /><path clip-path="url(#clip120)" d="M58.5933 784.117 L58.5933 773.613 L22.3406 773.613 L24.6323 785.04 L18.7758 785.04 L16.4842 773.677 L16.4842 767.247 L58.5933 767.247 L58.5933 756.744 L64.0042 756.744 L64.0042 784.117 L58.5933 784.117 Z" fill="#000000" fill-rule="nonzero" fill-opacity="1" /><path clip-path="url(#clip120)" d="M14.5426 745.508 L14.5426 740.416 Q22.0542 735.642 29.2474 733.286 Q36.4406 730.899 43.5384 730.899 Q50.668 730.899 57.8931 733.286 Q65.1182 735.642 72.5979 740.416 L72.5979 745.508 Q65.3091 741.275 58.1159 739.206 Q50.8908 737.106 43.5384 737.106 Q36.186 737.106 29.0246 739.206 Q21.8632 741.275 14.5426 745.508 Z" fill="#000000" fill-rule="nonzero" fill-opacity="1" /><path clip-path="url(#clip120)" d="M20.1444 683.316 L26.9239 683.316 Q23.9002 686.562 22.4043 690.254 Q20.9083 693.914 20.9083 698.052 Q20.9083 706.2 25.9054 710.529 Q30.8707 714.858 40.2919 714.858 Q49.6813 714.858 54.6784 710.529 Q59.6436 706.2 59.6436 698.052 Q59.6436 693.914 58.1477 690.254 Q56.6518 686.562 53.6281 683.316 L60.3439 683.316 Q62.6355 686.689 63.7814 690.477 Q64.9272 694.233 64.9272 698.434 Q64.9272 709.224 58.3387 715.431 Q51.7183 721.637 40.2919 721.637 Q28.8336 721.637 22.2451 715.431 Q15.6248 709.224 15.6248 698.434 Q15.6248 694.169 16.7706 690.413 Q17.8846 686.626 20.1444 683.316 Z" fill="#000000" fill-rule="nonzero" fill-opacity="1" /><path clip-path="url(#clip120)" d="M36.2815 675.899 L36.2815 672.207 L64.0042 672.207 L64.0042 675.899 L36.2815 675.899 Z" fill="#000000" fill-rule="nonzero" fill-opacity="1" /><path clip-path="url(#clip120)" d="M16.4842 652.41 L16.4842 646.999 L70.0516 663.55 L70.0516 668.961 L16.4842 652.41 Z" fill="#000000" fill-rule="nonzero" fill-opacity="1" /><path clip-path="url(#clip120)" d="M58.5933 634.491 L58.5933 612.051 L64.0042 612.051 L64.0042 642.225 L58.5933 642.225 Q54.8057 638.565 48.44 632.263 Q42.0425 625.929 40.1964 624.305 Q36.7271 621.218 34.34 620.009 Q31.921 618.767 29.5975 618.767 Q25.8099 618.767 23.4228 621.441 Q21.0356 624.083 21.0356 628.348 Q21.0356 631.371 22.086 634.745 Q23.1363 638.087 25.2688 641.907 L18.7758 641.907 Q17.2162 638.024 16.4205 634.65 Q15.6248 631.276 15.6248 628.475 Q15.6248 621.091 19.3169 616.698 Q23.009 612.306 29.1837 612.306 Q32.112 612.306 34.7537 613.42 Q37.3637 614.502 40.9285 617.399 Q41.8515 618.194 46.2757 622.459 Q50.668 626.724 58.5933 634.491 Z" fill="#000000" fill-rule="nonzero" fill-opacity="1" /><path clip-path="url(#clip120)" d="M28.3562 603.171 L28.3562 569.019 L34.2127 569.019 L34.2127 573.507 L56.1107 573.507 Q58.4023 573.507 59.4208 572.743 Q60.4075 571.948 60.4075 570.197 Q60.4075 569.72 60.3439 569.019 Q60.2484 568.319 60.2166 568.096 L64.4498 568.096 Q64.8635 569.21 65.0545 570.388 Q65.2455 571.566 65.2455 572.743 Q65.2455 576.563 63.1766 578.027 Q61.0759 579.491 55.4741 579.491 L34.2127 579.491 L34.2127 592.636 L64.0042 592.636 L64.0042 598.62 L34.2127 598.62 L34.2127 603.171 L28.3562 603.171 Z" fill="#000000" fill-rule="nonzero" fill-opacity="1" /><path clip-path="url(#clip121)" d="M450.296 1384.24 L452.22 1377.27 L454.144 1370.55 L456.068 1364.08 L457.992 1357.88 L459.916 1351.94 L461.84 1346.27 L463.764 1340.85 L465.688 1335.7 L467.612 1330.79 L469.536 1326.11 L471.46 1321.66 L473.384 1317.4 L475.308 1313.33 L477.232 1309.4 L479.156 1305.59 L481.08 1301.86 L483.004 1298.18 L484.928 1294.49 L486.852 1290.76 L488.776 1286.92 L490.7 1282.92 L492.624 1278.75 L494.548 1274.4 L496.472 1269.85 L498.396 1265.09 L500.32 1260.13 L502.244 1254.96 L504.168 1249.57 L506.092 1243.97 L508.016 1238.17 L509.94 1232.17 L511.864 1225.98 L513.788 1219.61 L515.712 1213.08 L517.636 1206.41 L519.56 1199.62 L521.484 1192.74 L523.408 1185.79 L525.332 1178.82 L527.256 1171.85 L529.18 1164.93 L531.104 1158.05 L533.028 1151.22 L534.952 1144.43 L536.876 1137.68 L538.8 1130.97 L540.724 1124.29 L542.648 1117.64 L544.572 1111.02 L546.496 1104.41 L548.42 1097.82 L550.344 1091.24 L552.268 1084.65 L554.192 1078.06 L556.116 1071.45 L558.04 1064.82 L559.964 1058.16 L561.888 1051.46 L563.812 1044.7 L565.736 1037.89 L567.66 1031 L569.584 1024.04 L571.508 1017.01 L573.432 1009.91 L575.356 1002.73 L577.28 995.488 L579.204 988.174 L581.128 980.792 L583.052 973.346 L584.976 965.838 L586.9 958.271 L588.824 950.649 L590.748 942.975 L592.672 935.254 L594.596 927.491 L596.52 919.692 L598.444 911.863 L600.368 904.009 L602.292 896.138 L604.216 888.257 L606.14 880.373 L608.064 872.488 L609.988 864.602 L611.912 856.714 L613.836 848.827 L615.76 840.938 L617.684 833.05 L619.608 825.162 L621.532 817.274 L623.456 809.388 L625.38 801.503 L627.304 793.62 L629.228 785.739 L631.152 777.861 L633.076 769.987 L635 762.116 L636.924 754.25 L638.849 746.389 L640.773 738.533 L642.697 730.685 L644.621 722.843 L646.545 715.01 L648.469 707.188 L650.393 699.377 L652.317 691.579 L654.241 683.796 L656.165 676.03 L658.089 668.283 L660.013 660.557 L661.937 652.853 L663.861 645.175 L665.785 637.524 L667.709 629.902 L669.633 622.312 L671.557 614.757 L673.481 607.24 L675.405 599.762 L677.329 592.327 L679.253 584.938 L681.177 577.599 L683.101 570.311 L685.025 563.077 L686.949 555.898 L688.873 548.775 L690.797 541.71 L692.721 534.704 L694.645 527.759 L696.569 520.877 L698.493 514.058 L700.417 507.305 L702.341 500.618 L704.265 494 L706.189 487.452 L708.113 480.975 L710.037 474.572 L711.961 468.244 L713.885 461.993 L715.809 455.82 L717.733 449.727 L719.657 443.716 L721.581 437.789 L723.505 431.947 L725.429 426.191 L727.353 420.523 L729.277 414.945 L731.201 409.457 L733.125 404.06 L735.049 398.758 L736.973 393.55 L738.897 388.438 L740.821 383.423 L742.745 378.508 L744.669 373.693 L746.593 368.98 L748.517 364.371 L750.441 359.866 L752.365 355.467 L754.289 351.176 L756.213 346.994 L758.137 342.922 L760.061 338.963 L761.985 335.117 L763.909 331.385 L765.833 327.767 L767.757 324.266 L769.681 320.881 L771.605 317.614 L773.529 314.466 L775.453 311.437 L777.377 308.529 L779.301 305.741 L781.225 303.076 L783.149 300.533 L785.073 298.115 L786.997 295.82 L788.921 293.651 L790.845 291.607 L792.769 289.69 L794.693 287.901 L796.617 286.24 L798.541 284.707 L800.465 283.303 L802.389 282.029 L804.313 280.885 L806.237 279.87 L808.161 278.986 L810.085 278.232 L812.009 277.608 L813.933 277.115 L815.857 276.752 L817.781 276.52 L819.705 276.419 L821.629 276.448 L823.553 276.608 L825.477 276.898 L827.401 277.319 L829.325 277.87 L831.249 278.552 L833.173 279.363 L835.097 280.304 L837.021 281.374 L838.945 282.573 L840.869 283.901 L842.793 285.357 L844.717 286.941 L846.641 288.652 L848.566 290.49 L850.49 292.454 L852.414 294.544 L854.338 296.758 L856.262 299.098 L858.186 301.56 L860.11 304.146 L862.034 306.853 L863.958 309.682 L865.882 312.632 L867.806 315.7 L869.73 318.888 L871.654 322.192 L873.578 325.614 L875.502 329.151 L877.426 332.802 L879.35 336.566 L881.274 340.443 L883.198 344.432 L885.122 348.53 L887.046 352.738 L888.97 357.053 L890.894 361.475 L892.818 366.002 L894.742 370.634 L896.666 375.367 L898.59 380.202 L900.514 385.137 L902.438 390.17 L904.362 395.3 L906.286 400.525 L908.21 405.844 L910.134 411.254 L912.058 416.755 L913.982 422.344 L915.906 428.021 L917.83 433.783 L919.754 439.628 L921.678 445.557 L923.602 451.566 L925.526 457.654 L927.45 463.82 L929.374 470.061 L931.298 476.377 L933.222 482.765 L935.146 489.223 L937.07 495.749 L938.994 502.343 L940.918 509.001 L942.842 515.722 L944.766 522.503 L946.69 529.344 L948.614 536.241 L950.538 543.192 L952.462 550.196 L954.386 557.25 L956.31 564.354 L958.234 571.504 L960.158 578.7 L962.082 585.939 L964.006 593.219 L965.93 600.539 L967.854 607.897 L969.778 615.29 L971.702 622.717 L973.626 630.175 L975.55 637.663 L977.474 645.179 L979.398 652.72 L981.322 660.284 L983.246 667.87 L985.17 675.474 L987.094 683.095 L989.018 690.731 L990.942 698.379 L992.866 706.038 L994.79 713.705 L996.714 721.379 L998.638 729.058 L1000.56 736.74 L1002.49 744.424 L1004.41 752.106 L1006.33 759.787 L1008.26 767.463 L1010.18 775.132 L1012.11 782.793 L1014.03 790.444 L1015.95 798.083 L1017.88 805.708 L1019.8 813.316 L1021.73 820.906 L1023.65 828.476 L1025.57 836.024 L1027.5 843.547 L1029.42 851.043 L1031.35 858.512 L1033.27 865.951 L1035.19 873.359 L1037.12 880.733 L1039.04 888.074 L1040.97 895.378 L1042.89 902.645 L1044.81 909.872 L1046.74 917.059 L1048.66 924.203 L1050.59 931.303 L1052.51 938.357 L1054.43 945.363 L1056.36 952.321 L1058.28 959.228 L1060.21 966.083 L1062.13 972.884 L1064.05 979.63 L1065.98 986.318 L1067.9 992.948 L1069.83 999.517 L1071.75 1006.03 L1073.67 1012.47 L1075.6 1018.85 L1077.52 1025.17 L1079.45 1031.42 L1081.37 1037.61 L1083.29 1043.73 L1085.22 1049.78 L1087.14 1055.75 L1089.07 1061.66 L1090.99 1067.49 L1092.91 1073.25 L1094.84 1078.94 L1096.76 1084.55 L1098.69 1090.08 L1100.61 1095.53 L1102.53 1100.91 L1104.46 1106.21 L1106.38 1111.42 L1108.31 1116.55 L1110.23 1121.6 L1112.15 1126.57 L1114.08 1131.46 L1116 1136.26 L1117.93 1140.97 L1119.85 1145.6 L1121.77 1150.15 L1123.7 1154.61 L1125.62 1158.98 L1127.55 1163.26 L1129.47 1167.46 L1131.39 1171.57 L1133.32 1175.59 L1135.24 1179.52 L1137.17 1183.36 L1139.09 1187.11 L1141.01 1190.77 L1142.94 1194.34 L1144.86 1197.82 L1146.79 1201.21 L1148.71 1204.51 L1150.63 1207.72 L1152.56 1210.84 L1154.48 1213.86 L1156.41 1216.79 L1158.33 1219.64 L1160.25 1222.39 L1162.18 1225.05 L1164.1 1227.62 L1166.03 1230.1 L1167.95 1232.49 L1169.88 1234.79 L1171.8 1237 L1173.72 1239.12 L1175.65 1241.15 L1177.57 1243.1 L1179.5 1244.95 L1181.42 1246.71 L1183.34 1248.39 L1185.27 1249.98 L1187.19 1251.48 L1189.12 1252.9 L1191.04 1254.23 L1192.96 1255.47 L1194.89 1256.63 L1196.81 1257.7 L1198.74 1258.69 L1200.66 1259.6 L1202.58 1260.42 L1204.51 1261.16 L1206.43 1261.82 L1208.36 1262.41 L1210.28 1262.91 L1212.2 1263.33 L1214.13 1263.67 L1216.05 1263.94 L1217.98 1264.13 L1219.9 1264.25 L1221.82 1264.29 L1223.75 1264.26 L1225.67 1264.15 L1227.6 1263.98 L1229.52 1263.73 L1231.44 1263.41 L1233.37 1263.03 L1235.29 1262.58 L1237.22 1262.06 L1239.14 1261.47 L1241.06 1260.82 L1242.99 1260.11 L1244.91 1259.33 L1246.84 1258.49 L1248.76 1257.59 L1250.68 1256.64 L1252.61 1255.62 L1254.53 1254.55 L1256.46 1253.43 L1258.38 1252.25 L1260.3 1251.02 L1262.23 1249.73 L1264.15 1248.4 L1266.08 1247.02 L1268 1245.59 L1269.92 1244.12 L1271.85 1242.59 L1273.77 1241.03 L1275.7 1239.42 L1277.62 1237.77 L1279.54 1236.08 L1281.47 1234.35 L1283.39 1232.58 L1285.32 1230.78 L1287.24 1228.94 L1289.16 1227.06 L1291.09 1225.16 L1293.01 1223.22 L1294.94 1221.26 L1296.86 1219.26 L1298.78 1217.25 L1300.71 1215.2 L1302.63 1213.14 L1304.56 1211.05 L1306.48 1208.94 L1308.4 1206.8 L1310.33 1204.65 L1312.25 1202.49 L1314.18 1200.3 L1316.1 1198.1 L1318.02 1195.89 L1319.95 1193.66 L1321.87 1191.42 L1323.8 1189.18 L1325.72 1186.92 L1327.64 1184.66 L1329.57 1182.39 L1331.49 1180.11 L1333.42 1177.84 L1335.34 1175.56 L1337.26 1173.28 L1339.19 1171.01 L1341.11 1168.73 L1343.04 1166.46 L1344.96 1164.2 L1346.88 1161.94 L1348.81 1159.69 L1350.73 1157.44 L1352.66 1155.2 L1354.58 1152.97 L1356.5 1150.76 L1358.43 1148.55 L1360.35 1146.36 L1362.28 1144.18 L1364.2 1142.02 L1366.12 1139.87 L1368.05 1137.75 L1369.97 1135.64 L1371.9 1133.55 L1373.82 1131.48 L1375.74 1129.44 L1377.67 1127.42 L1379.59 1125.42 L1381.52 1123.45 L1383.44 1121.51 L1385.36 1119.59 L1387.29 1117.7 L1389.21 1115.83 L1391.14 1114 L1393.06 1112.2 L1394.98 1110.42 L1396.91 1108.68 L1398.83 1106.97 L1400.76 1105.29 L1402.68 1103.65 L1404.6 1102.04 L1406.53 1100.46 L1408.45 1098.93 L1410.38 1097.42 L1412.3 1095.96 L1414.22 1094.54 L1416.15 1093.15 L1418.07 1091.8 L1420 1090.5 L1421.92 1089.23 L1423.84 1088.01 L1425.77 1086.82 L1427.69 1085.68 L1429.62 1084.58 L1431.54 1083.52 L1433.46 1082.5 L1435.39 1081.53 L1437.31 1080.6 L1439.24 1079.71 L1441.16 1078.87 L1443.08 1078.07 L1445.01 1077.31 L1446.93 1076.6 L1448.86 1075.94 L1450.78 1075.32 L1452.7 1074.75 L1454.63 1074.23 L1456.55 1073.75 L1458.48 1073.31 L1460.4 1072.93 L1462.32 1072.59 L1464.25 1072.29 L1466.17 1072.04 L1468.1 1071.84 L1470.02 1071.69 L1471.94 1071.57 L1473.87 1071.51 L1475.79 1071.49 L1477.72 1071.52 L1479.64 1071.59 L1481.56 1071.71 L1483.49 1071.87 L1485.41 1072.08 L1487.34 1072.34 L1489.26 1072.64 L1491.18 1072.98 L1493.11 1073.37 L1495.03 1073.81 L1496.96 1074.29 L1498.88 1074.81 L1500.8 1075.37 L1502.73 1075.98 L1504.65 1076.63 L1506.58 1077.32 L1508.5 1078.06 L1510.42 1078.83 L1512.35 1079.65 L1514.27 1080.5 L1516.2 1081.4 L1518.12 1082.33 L1520.04 1083.31 L1521.97 1084.32 L1523.89 1085.37 L1525.82 1086.46 L1527.74 1087.58 L1529.66 1088.74 L1531.59 1089.93 L1533.51 1091.17 L1535.44 1092.43 L1537.36 1093.73 L1539.28 1095.06 L1541.21 1096.42 L1543.13 1097.82 L1545.06 1099.24 L1546.98 1100.7 L1548.9 1102.19 L1550.83 1103.7 L1552.75 1105.24 L1554.68 1106.81 L1556.6 1108.41 L1558.52 1110.03 L1560.45 1111.68 L1562.37 1113.35 L1564.3 1115.04 L1566.22 1116.76 L1568.14 1118.5 L1570.07 1120.26 L1571.99 1122.04 L1573.92 1123.84 L1575.84 1125.66 L1577.76 1127.5 L1579.69 1129.35 L1581.61 1131.22 L1583.54 1133.1 L1585.46 1135 L1587.39 1136.92 L1589.31 1138.84 L1591.23 1140.78 L1593.16 1142.73 L1595.08 1144.69 L1597.01 1146.66 L1598.93 1148.63 L1600.85 1150.62 L1602.78 1152.61 L1604.7 1154.6 L1606.63 1156.6 L1608.55 1158.61 L1610.47 1160.62 L1612.4 1162.62 L1614.32 1164.64 L1616.25 1166.65 L1618.17 1168.66 L1620.09 1170.67 L1622.02 1172.68 L1623.94 1174.68 L1625.87 1176.68 L1627.79 1178.68 L1629.71 1180.67 L1631.64 1182.66 L1633.56 1184.64 L1635.49 1186.61 L1637.41 1188.57 L1639.33 1190.52 L1641.26 1192.46 L1643.18 1194.39 L1645.11 1196.31 L1647.03 1198.21 L1648.95 1200.1 L1650.88 1201.98 L1652.8 1203.84 L1654.73 1205.68 L1656.65 1207.51 L1658.57 1209.32 L1660.5 1211.11 L1662.42 1212.88 L1664.35 1214.64 L1666.27 1216.37 L1668.19 1218.09 L1670.12 1219.78 L1672.04 1221.45 L1673.97 1223.09 L1675.89 1224.72 L1677.81 1226.32 L1679.74 1227.89 L1681.66 1229.44 L1683.59 1230.96 L1685.51 1232.45 L1687.43 1233.92 L1689.36 1235.36 L1691.28 1236.77 L1693.21 1238.15 L1695.13 1239.5 L1697.05 1240.82 L1698.98 1242.11 L1700.9 1243.37 L1702.83 1244.6 L1704.75 1245.8 L1706.67 1246.97 L1708.6 1248.1 L1710.52 1249.2 L1712.45 1250.27 L1714.37 1251.3 L1716.29 1252.3 L1718.22 1253.26 L1720.14 1254.19 L1722.07 1255.08 L1723.99 1255.94 L1725.91 1256.76 L1727.84 1257.54 L1729.76 1258.29 L1731.69 1259 L1733.61 1259.67 L1735.53 1260.31 L1737.46 1260.91 L1739.38 1261.47 L1741.31 1262 L1743.23 1262.49 L1745.15 1262.94 L1747.08 1263.35 L1749 1263.72 L1750.93 1264.06 L1752.85 1264.36 L1754.77 1264.62 L1756.7 1264.84 L1758.62 1265.02 L1760.55 1265.17 L1762.47 1265.27 L1764.39 1265.34 L1766.32 1265.37 L1768.24 1265.36 L1770.17 1265.31 L1772.09 1265.22 L1774.01 1265.1 L1775.94 1264.94 L1777.86 1264.74 L1779.79 1264.51 L1781.71 1264.23 L1783.63 1263.93 L1785.56 1263.58 L1787.48 1263.2 L1789.41 1262.78 L1791.33 1262.32 L1793.25 1261.83 L1795.18 1261.31 L1797.1 1260.74 L1799.03 1260.15 L1800.95 1259.51 L1802.87 1258.85 L1804.8 1258.15 L1806.72 1257.41 L1808.65 1256.65 L1810.57 1255.84 L1812.49 1255.01 L1814.42 1254.15 L1816.34 1253.25 L1818.27 1252.32 L1820.19 1251.37 L1822.11 1250.38 L1824.04 1249.36 L1825.96 1248.31 L1827.89 1247.24 L1829.81 1246.13 L1831.73 1245 L1833.66 1243.84 L1835.58 1242.65 L1837.51 1241.44 L1839.43 1240.2 L1841.35 1238.94 L1843.28 1237.65 L1845.2 1236.34 L1847.13 1235.01 L1849.05 1233.65 L1850.97 1232.27 L1852.9 1230.87 L1854.82 1229.45 L1856.75 1228.01 L1858.67 1226.55 L1860.59 1225.07 L1862.52 1223.57 L1864.44 1222.06 L1866.37 1220.52 L1868.29 1218.98 L1870.21 1217.41 L1872.14 1215.83 L1874.06 1214.24 L1875.99 1212.64 L1877.91 1211.02 L1879.83 1209.39 L1881.76 1207.75 L1883.68 1206.1 L1885.61 1204.44 L1887.53 1202.77 L1889.45 1201.09 L1891.38 1199.4 L1893.3 1197.71 L1895.23 1196.01 L1897.15 1194.3 L1899.07 1192.59 L1901 1190.88 L1902.92 1189.16 L1904.85 1187.45 L1906.77 1185.72 L1908.69 1184 L1910.62 1182.28 L1912.54 1180.56 L1914.47 1178.84 L1916.39 1177.13 L1918.31 1175.41 L1920.24 1173.7 L1922.16 1172 L1924.09 1170.3 L1926.01 1168.6 L1927.93 1166.91 L1929.86 1165.23 L1931.78 1163.56 L1933.71 1161.89 L1935.63 1160.24 L1937.55 1158.59 L1939.48 1156.96 L1941.4 1155.33 L1943.33 1153.72 L1945.25 1152.12 L1947.17 1150.54 L1949.1 1148.97 L1951.02 1147.42 L1952.95 1145.88 L1954.87 1144.35 L1956.79 1142.85 L1958.72 1141.36 L1960.64 1139.89 L1962.57 1138.44 L1964.49 1137.01 L1966.41 1135.6 L1968.34 1134.21 L1970.26 1132.85 L1972.19 1131.5 L1974.11 1130.17 L1976.03 1128.87 L1977.96 1127.6 L1979.88 1126.34 L1981.81 1125.12 L1983.73 1123.91 L1985.65 1122.74 L1987.58 1121.59 L1989.5 1120.46 L1991.43 1119.37 L1993.35 1118.3 L1995.27 1117.27 L1997.2 1116.26 L1999.12 1115.28 L2001.05 1114.33 L2002.97 1113.41 L2004.9 1112.52 L2006.82 1111.67 L2008.74 1110.84 L2010.67 1110.05 L2012.59 1109.29 L2014.52 1108.56 L2016.44 1107.87 L2018.36 1107.2 L2020.29 1106.58 L2022.21 1105.98 L2024.14 1105.42 L2026.06 1104.9 L2027.98 1104.41 L2029.91 1103.96 L2031.83 1103.54 L2033.76 1103.16 L2035.68 1102.82 L2037.6 1102.51 L2039.53 1102.24 L2041.45 1102 L2043.38 1101.81 L2045.3 1101.65 L2047.22 1101.52 L2049.15 1101.44 L2051.07 1101.39 L2053 1101.38 L2054.92 1101.4 L2056.84 1101.47 L2058.77 1101.57 L2060.69 1101.71 L2062.62 1101.89 L2064.54 1102.11 L2066.46 1102.37 L2068.39 1102.66 L2070.31 1103 L2072.24 1103.37 L2074.16 1103.78 L2076.08 1104.23 L2078.01 1104.72 L2079.93 1105.25 L2081.86 1105.81 L2083.78 1106.41 L2085.7 1107.05 L2087.63 1107.73 L2089.55 1108.45 L2091.48 1109.2 L2093.4 1109.99 L2095.32 1110.82 L2097.25 1111.68 L2099.17 1112.58 L2101.1 1113.52 L2103.02 1114.5 L2104.94 1115.51 L2106.87 1116.56 L2108.79 1117.64 L2110.72 1118.76 L2112.64 1119.91 L2114.56 1121.1 L2116.49 1122.33 L2118.41 1123.58 L2120.34 1124.88 L2122.26 1126.2 L2124.18 1127.56 L2126.11 1128.96 L2128.03 1130.38 L2129.96 1131.84 L2131.88 1133.33 L2133.8 1134.86 L2135.73 1136.41 L2137.65 1138 L2139.58 1139.61 L2141.5 1141.26 L2143.42 1142.94 L2145.35 1144.64 L2147.27 1146.38 L2149.2 1148.14 L2151.12 1149.93 L2153.04 1151.75 L2154.97 1153.6 L2156.89 1155.47 L2158.82 1157.37 L2160.74 1159.3 L2162.66 1161.25 L2164.59 1163.22 L2166.51 1165.22 L2168.44 1167.24 L2170.36 1169.28 L2172.28 1171.35 L2174.21 1173.44 L2176.13 1175.55 L2178.06 1177.67 L2179.98 1179.82 L2181.9 1181.99 L2183.83 1184.18 L2185.75 1186.38 L2187.68 1188.6 L2189.6 1190.84 L2191.52 1193.1 L2193.45 1195.37 L2195.37 1197.66 L2197.3 1199.96 L2199.22 1202.28 L2201.14 1204.61 L2203.07 1206.96 L2204.99 1209.32 L2206.92 1211.69 L2208.84 1214.08 L2210.76 1216.48 L2212.69 1218.88 L2214.61 1221.3 L2216.54 1223.73 L2218.46 1226.17 L2220.38 1228.62 L2222.31 1231.08 L2224.23 1233.54 L2226.16 1236.02 L2228.08 1238.5 L2230 1240.98 L2231.93 1243.47 L2233.85 1245.96 L2235.78 1248.45 L2237.7 1250.94 L2239.62 1253.43 L2241.55 1255.92 L2243.47 1258.41 L2245.4 1260.89 L2247.32 1263.37 L2249.24 1265.85 L2251.17 1268.31 L2253.09 1270.77 L2255.02 1273.22 L2256.94 1275.66 L2258.86 1278.09 L2260.79 1280.51 L2262.71 1282.91 L2264.64 1285.31 L2266.56 1287.69 L2268.48 1290.07 L2270.41 1292.44 L2272.33 1294.8 L2274.26 1297.17 L2276.18 1299.52 L2278.1 1301.88 L2280.03 1304.23 L2281.95 1306.59 L2283.88 1308.94 L2285.8 1311.3 L2287.72 1313.66 L2289.65 1316.03 L2291.57 1318.4 L2293.5 1320.78 L2295.42 1323.17 L2297.34 1325.57 L2297.34 1305.84 L2295.42 1303.27 L2293.5 1300.71 L2291.57 1298.17 L2289.65 1295.63 L2287.72 1293.09 L2285.8 1290.57 L2283.88 1288.04 L2281.95 1285.52 L2280.03 1283 L2278.1 1280.48 L2276.18 1277.96 L2274.26 1275.44 L2272.33 1272.91 L2270.41 1270.38 L2268.48 1267.84 L2266.56 1265.29 L2264.64 1262.74 L2262.71 1260.18 L2260.79 1257.6 L2258.86 1255.01 L2256.94 1252.41 L2255.02 1249.8 L2253.09 1247.17 L2251.17 1244.54 L2249.24 1241.9 L2247.32 1239.25 L2245.4 1236.59 L2243.47 1233.93 L2241.55 1231.26 L2239.62 1228.59 L2237.7 1225.92 L2235.78 1223.25 L2233.85 1220.58 L2231.93 1217.91 L2230 1215.25 L2228.08 1212.59 L2226.16 1209.93 L2224.23 1207.28 L2222.31 1204.63 L2220.38 1202 L2218.46 1199.37 L2216.54 1196.75 L2214.61 1194.15 L2212.69 1191.55 L2210.76 1188.97 L2208.84 1186.4 L2206.92 1183.84 L2204.99 1181.29 L2203.07 1178.76 L2201.14 1176.24 L2199.22 1173.73 L2197.3 1171.24 L2195.37 1168.77 L2193.45 1166.31 L2191.52 1163.87 L2189.6 1161.45 L2187.68 1159.04 L2185.75 1156.65 L2183.83 1154.28 L2181.9 1151.93 L2179.98 1149.6 L2178.06 1147.29 L2176.13 1145 L2174.21 1142.74 L2172.28 1140.49 L2170.36 1138.27 L2168.44 1136.07 L2166.51 1133.89 L2164.59 1131.74 L2162.66 1129.62 L2160.74 1127.52 L2158.82 1125.44 L2156.89 1123.4 L2154.97 1121.38 L2153.04 1119.39 L2151.12 1117.43 L2149.2 1115.5 L2147.27 1113.59 L2145.35 1111.72 L2143.42 1109.88 L2141.5 1108.07 L2139.58 1106.29 L2137.65 1104.55 L2135.73 1102.84 L2133.8 1101.16 L2131.88 1099.51 L2129.96 1097.9 L2128.03 1096.32 L2126.11 1094.78 L2124.18 1093.27 L2122.26 1091.79 L2120.34 1090.36 L2118.41 1088.96 L2116.49 1087.59 L2114.56 1086.26 L2112.64 1084.97 L2110.72 1083.72 L2108.79 1082.5 L2106.87 1081.32 L2104.94 1080.18 L2103.02 1079.08 L2101.1 1078.02 L2099.17 1077 L2097.25 1076.01 L2095.32 1075.07 L2093.4 1074.16 L2091.48 1073.3 L2089.55 1072.47 L2087.63 1071.69 L2085.7 1070.94 L2083.78 1070.23 L2081.86 1069.57 L2079.93 1068.94 L2078.01 1068.36 L2076.08 1067.82 L2074.16 1067.31 L2072.24 1066.85 L2070.31 1066.43 L2068.39 1066.05 L2066.46 1065.71 L2064.54 1065.42 L2062.62 1065.16 L2060.69 1064.95 L2058.77 1064.78 L2056.84 1064.64 L2054.92 1064.55 L2053 1064.5 L2051.07 1064.49 L2049.15 1064.52 L2047.22 1064.59 L2045.3 1064.7 L2043.38 1064.85 L2041.45 1065.04 L2039.53 1065.27 L2037.6 1065.54 L2035.68 1065.84 L2033.76 1066.19 L2031.83 1066.58 L2029.91 1067 L2027.98 1067.46 L2026.06 1067.96 L2024.14 1068.5 L2022.21 1069.08 L2020.29 1069.69 L2018.36 1070.34 L2016.44 1071.03 L2014.52 1071.75 L2012.59 1072.51 L2010.67 1073.3 L2008.74 1074.13 L2006.82 1074.99 L2004.9 1075.88 L2002.97 1076.81 L2001.05 1077.77 L1999.12 1078.77 L1997.2 1079.79 L1995.27 1080.85 L1993.35 1081.94 L1991.43 1083.06 L1989.5 1084.21 L1987.58 1085.39 L1985.65 1086.6 L1983.73 1087.84 L1981.81 1089.1 L1979.88 1090.4 L1977.96 1091.72 L1976.03 1093.07 L1974.11 1094.44 L1972.19 1095.84 L1970.26 1097.26 L1968.34 1098.7 L1966.41 1100.17 L1964.49 1101.66 L1962.57 1103.17 L1960.64 1104.7 L1958.72 1106.25 L1956.79 1107.83 L1954.87 1109.42 L1952.95 1111.03 L1951.02 1112.66 L1949.1 1114.3 L1947.17 1115.96 L1945.25 1117.64 L1943.33 1119.33 L1941.4 1121.04 L1939.48 1122.76 L1937.55 1124.49 L1935.63 1126.23 L1933.71 1127.99 L1931.78 1129.75 L1929.86 1131.53 L1927.93 1133.31 L1926.01 1135.1 L1924.09 1136.9 L1922.16 1138.7 L1920.24 1140.51 L1918.31 1142.32 L1916.39 1144.14 L1914.47 1145.96 L1912.54 1147.78 L1910.62 1149.61 L1908.69 1151.44 L1906.77 1153.26 L1904.85 1155.09 L1902.92 1156.91 L1901 1158.73 L1899.07 1160.55 L1897.15 1162.37 L1895.23 1164.18 L1893.3 1165.98 L1891.38 1167.78 L1889.45 1169.57 L1887.53 1171.35 L1885.61 1173.12 L1883.68 1174.89 L1881.76 1176.64 L1879.83 1178.38 L1877.91 1180.11 L1875.99 1181.83 L1874.06 1183.53 L1872.14 1185.22 L1870.21 1186.9 L1868.29 1188.56 L1866.37 1190.2 L1864.44 1191.83 L1862.52 1193.43 L1860.59 1195.02 L1858.67 1196.59 L1856.75 1198.14 L1854.82 1199.67 L1852.9 1201.18 L1850.97 1202.66 L1849.05 1204.13 L1847.13 1205.57 L1845.2 1206.98 L1843.28 1208.37 L1841.35 1209.73 L1839.43 1211.07 L1837.51 1212.38 L1835.58 1213.67 L1833.66 1214.92 L1831.73 1216.15 L1829.81 1217.35 L1827.89 1218.51 L1825.96 1219.65 L1824.04 1220.76 L1822.11 1221.83 L1820.19 1222.88 L1818.27 1223.89 L1816.34 1224.87 L1814.42 1225.81 L1812.49 1226.72 L1810.57 1227.6 L1808.65 1228.44 L1806.72 1229.25 L1804.8 1230.02 L1802.87 1230.75 L1800.95 1231.45 L1799.03 1232.11 L1797.1 1232.73 L1795.18 1233.32 L1793.25 1233.86 L1791.33 1234.37 L1789.41 1234.84 L1787.48 1235.27 L1785.56 1235.67 L1783.63 1236.02 L1781.71 1236.33 L1779.79 1236.61 L1777.86 1236.84 L1775.94 1237.03 L1774.01 1237.19 L1772.09 1237.3 L1770.17 1237.37 L1768.24 1237.4 L1766.32 1237.39 L1764.39 1237.34 L1762.47 1237.25 L1760.55 1237.12 L1758.62 1236.94 L1756.7 1236.72 L1754.77 1236.46 L1752.85 1236.16 L1750.93 1235.82 L1749 1235.44 L1747.08 1235.02 L1745.15 1234.55 L1743.23 1234.04 L1741.31 1233.5 L1739.38 1232.91 L1737.46 1232.28 L1735.53 1231.62 L1733.61 1230.91 L1731.69 1230.16 L1729.76 1229.37 L1727.84 1228.55 L1725.91 1227.68 L1723.99 1226.77 L1722.07 1225.83 L1720.14 1224.84 L1718.22 1223.82 L1716.29 1222.76 L1714.37 1221.66 L1712.45 1220.52 L1710.52 1219.35 L1708.6 1218.14 L1706.67 1216.9 L1704.75 1215.62 L1702.83 1214.3 L1700.9 1212.95 L1698.98 1211.57 L1697.05 1210.15 L1695.13 1208.7 L1693.21 1207.22 L1691.28 1205.71 L1689.36 1204.16 L1687.43 1202.58 L1685.51 1200.98 L1683.59 1199.34 L1681.66 1197.67 L1679.74 1195.98 L1677.81 1194.25 L1675.89 1192.5 L1673.97 1190.73 L1672.04 1188.92 L1670.12 1187.09 L1668.19 1185.24 L1666.27 1183.36 L1664.35 1181.47 L1662.42 1179.54 L1660.5 1177.6 L1658.57 1175.64 L1656.65 1173.66 L1654.73 1171.66 L1652.8 1169.64 L1650.88 1167.6 L1648.95 1165.55 L1647.03 1163.48 L1645.11 1161.39 L1643.18 1159.29 L1641.26 1157.18 L1639.33 1155.05 L1637.41 1152.91 L1635.49 1150.76 L1633.56 1148.6 L1631.64 1146.44 L1629.71 1144.26 L1627.79 1142.08 L1625.87 1139.89 L1623.94 1137.69 L1622.02 1135.49 L1620.09 1133.29 L1618.17 1131.09 L1616.25 1128.88 L1614.32 1126.68 L1612.4 1124.47 L1610.47 1122.27 L1608.55 1120.06 L1606.63 1117.86 L1604.7 1115.67 L1602.78 1113.47 L1600.85 1111.29 L1598.93 1109.11 L1597.01 1106.94 L1595.08 1104.77 L1593.16 1102.62 L1591.23 1100.48 L1589.31 1098.34 L1587.39 1096.22 L1585.46 1094.12 L1583.54 1092.03 L1581.61 1089.95 L1579.69 1087.89 L1577.76 1085.85 L1575.84 1083.83 L1573.92 1081.82 L1571.99 1079.84 L1570.07 1077.87 L1568.14 1075.93 L1566.22 1074.01 L1564.3 1072.11 L1562.37 1070.24 L1560.45 1068.39 L1558.52 1066.57 L1556.6 1064.77 L1554.68 1063.01 L1552.75 1061.27 L1550.83 1059.56 L1548.9 1057.88 L1546.98 1056.23 L1545.06 1054.61 L1543.13 1053.03 L1541.21 1051.48 L1539.28 1049.96 L1537.36 1048.48 L1535.44 1047.03 L1533.51 1045.62 L1531.59 1044.24 L1529.66 1042.91 L1527.74 1041.61 L1525.82 1040.35 L1523.89 1039.13 L1521.97 1037.95 L1520.04 1036.81 L1518.12 1035.71 L1516.2 1034.66 L1514.27 1033.64 L1512.35 1032.67 L1510.42 1031.75 L1508.5 1030.86 L1506.58 1030.02 L1504.65 1029.23 L1502.73 1028.48 L1500.8 1027.78 L1498.88 1027.12 L1496.96 1026.51 L1495.03 1025.95 L1493.11 1025.44 L1491.18 1024.97 L1489.26 1024.55 L1487.34 1024.18 L1485.41 1023.86 L1483.49 1023.59 L1481.56 1023.37 L1479.64 1023.2 L1477.72 1023.07 L1475.79 1023 L1473.87 1022.98 L1471.94 1023 L1470.02 1023.08 L1468.1 1023.2 L1466.17 1023.38 L1464.25 1023.61 L1462.32 1023.88 L1460.4 1024.21 L1458.48 1024.58 L1456.55 1025.01 L1454.63 1025.48 L1452.7 1026.01 L1450.78 1026.59 L1448.86 1027.21 L1446.93 1027.89 L1445.01 1028.62 L1443.08 1029.39 L1441.16 1030.22 L1439.24 1031.09 L1437.31 1032.01 L1435.39 1032.98 L1433.46 1033.99 L1431.54 1035.05 L1429.62 1036.16 L1427.69 1037.31 L1425.77 1038.51 L1423.84 1039.76 L1421.92 1041.05 L1420 1042.38 L1418.07 1043.76 L1416.15 1045.18 L1414.22 1046.64 L1412.3 1048.15 L1410.38 1049.69 L1408.45 1051.28 L1406.53 1052.92 L1404.6 1054.59 L1402.68 1056.29 L1400.76 1058.04 L1398.83 1059.82 L1396.91 1061.64 L1394.98 1063.5 L1393.06 1065.39 L1391.14 1067.31 L1389.21 1069.26 L1387.29 1071.25 L1385.36 1073.27 L1383.44 1075.31 L1381.52 1077.39 L1379.59 1079.5 L1377.67 1081.63 L1375.74 1083.79 L1373.82 1085.97 L1371.9 1088.18 L1369.97 1090.42 L1368.05 1092.67 L1366.12 1094.95 L1364.2 1097.25 L1362.28 1099.57 L1360.35 1101.9 L1358.43 1104.25 L1356.5 1106.61 L1354.58 1108.99 L1352.66 1111.38 L1350.73 1113.78 L1348.81 1116.19 L1346.88 1118.61 L1344.96 1121.03 L1343.04 1123.47 L1341.11 1125.9 L1339.19 1128.34 L1337.26 1130.79 L1335.34 1133.23 L1333.42 1135.68 L1331.49 1138.12 L1329.57 1140.57 L1327.64 1143.01 L1325.72 1145.44 L1323.8 1147.86 L1321.87 1150.28 L1319.95 1152.68 L1318.02 1155.08 L1316.1 1157.46 L1314.18 1159.82 L1312.25 1162.17 L1310.33 1164.5 L1308.4 1166.81 L1306.48 1169.1 L1304.56 1171.37 L1302.63 1173.62 L1300.71 1175.84 L1298.78 1178.03 L1296.86 1180.2 L1294.94 1182.34 L1293.01 1184.45 L1291.09 1186.53 L1289.16 1188.58 L1287.24 1190.59 L1285.32 1192.56 L1283.39 1194.5 L1281.47 1196.4 L1279.54 1198.25 L1277.62 1200.06 L1275.7 1201.83 L1273.77 1203.55 L1271.85 1205.23 L1269.92 1206.86 L1268 1208.43 L1266.08 1209.96 L1264.15 1211.43 L1262.23 1212.85 L1260.3 1214.22 L1258.38 1215.53 L1256.46 1216.78 L1254.53 1217.98 L1252.61 1219.11 L1250.68 1220.18 L1248.76 1221.19 L1246.84 1222.14 L1244.91 1223.01 L1242.99 1223.82 L1241.06 1224.57 L1239.14 1225.24 L1237.22 1225.84 L1235.29 1226.37 L1233.37 1226.83 L1231.44 1227.21 L1229.52 1227.51 L1227.6 1227.74 L1225.67 1227.89 L1223.75 1227.96 L1221.82 1227.95 L1219.9 1227.86 L1217.98 1227.69 L1216.05 1227.44 L1214.13 1227.1 L1212.2 1226.68 L1210.28 1226.17 L1208.36 1225.57 L1206.43 1224.89 L1204.51 1224.12 L1202.58 1223.25 L1200.66 1222.3 L1198.74 1221.26 L1196.81 1220.12 L1194.89 1218.89 L1192.96 1217.57 L1191.04 1216.15 L1189.12 1214.64 L1187.19 1213.03 L1185.27 1211.33 L1183.34 1209.53 L1181.42 1207.63 L1179.5 1205.64 L1177.57 1203.55 L1175.65 1201.35 L1173.72 1199.06 L1171.8 1196.67 L1169.88 1194.19 L1167.95 1191.6 L1166.03 1188.91 L1164.1 1186.12 L1162.18 1183.23 L1160.25 1180.23 L1158.33 1177.14 L1156.41 1173.95 L1154.48 1170.65 L1152.56 1167.25 L1150.63 1163.75 L1148.71 1160.15 L1146.79 1156.45 L1144.86 1152.64 L1142.94 1148.74 L1141.01 1144.73 L1139.09 1140.62 L1137.17 1136.42 L1135.24 1132.11 L1133.32 1127.7 L1131.39 1123.19 L1129.47 1118.58 L1127.55 1113.87 L1125.62 1109.06 L1123.7 1104.16 L1121.77 1099.15 L1119.85 1094.05 L1117.93 1088.86 L1116 1083.57 L1114.08 1078.18 L1112.15 1072.7 L1110.23 1067.12 L1108.31 1061.45 L1106.38 1055.69 L1104.46 1049.83 L1102.53 1043.88 L1100.61 1037.84 L1098.69 1031.72 L1096.76 1025.5 L1094.84 1019.2 L1092.91 1012.81 L1090.99 1006.34 L1089.07 999.779 L1087.14 993.139 L1085.22 986.417 L1083.29 979.615 L1081.37 972.734 L1079.45 965.775 L1077.52 958.739 L1075.6 951.628 L1073.67 944.442 L1071.75 937.184 L1069.83 929.853 L1067.9 922.453 L1065.98 914.983 L1064.05 907.445 L1062.13 899.841 L1060.21 892.173 L1058.28 884.442 L1056.36 876.65 L1054.43 868.799 L1052.51 860.891 L1050.59 852.927 L1048.66 844.909 L1046.74 836.84 L1044.81 828.72 L1042.89 820.551 L1040.97 812.336 L1039.04 804.076 L1037.12 795.772 L1035.19 787.427 L1033.27 779.043 L1031.35 770.62 L1029.42 762.161 L1027.5 753.667 L1025.57 745.141 L1023.65 736.584 L1021.73 727.998 L1019.8 719.387 L1017.88 710.752 L1015.95 702.096 L1014.03 693.42 L1012.11 684.727 L1010.18 676.018 L1008.26 667.297 L1006.33 658.566 L1004.41 649.825 L1002.49 641.079 L1000.56 632.328 L998.638 623.574 L996.714 614.821 L994.79 606.069 L992.866 597.321 L990.942 588.579 L989.018 579.844 L987.094 571.12 L985.17 562.408 L983.246 553.711 L981.322 545.031 L979.398 536.37 L977.474 527.732 L975.55 519.118 L973.626 510.531 L971.702 501.973 L969.778 493.447 L967.854 484.954 L965.93 476.497 L964.006 468.078 L962.082 459.699 L960.158 451.363 L958.234 443.071 L956.31 434.825 L954.386 426.628 L952.462 418.482 L950.538 410.388 L948.614 402.349 L946.69 394.366 L944.766 386.444 L942.842 378.582 L940.918 370.785 L938.994 363.054 L937.07 355.392 L935.146 347.8 L933.222 340.28 L931.298 332.836 L929.374 325.469 L927.45 318.18 L925.526 310.973 L923.602 303.848 L921.678 296.808 L919.754 289.855 L917.83 282.99 L915.906 276.216 L913.982 269.534 L912.058 262.945 L910.134 256.452 L908.21 250.056 L906.286 243.76 L904.362 237.565 L902.438 231.473 L900.514 225.486 L898.59 219.606 L896.666 213.834 L894.742 208.172 L892.818 202.622 L890.894 197.185 L888.97 191.862 L887.046 186.656 L885.122 181.568 L883.198 176.599 L881.274 171.75 L879.35 167.023 L877.426 162.419 L875.502 157.94 L873.578 153.586 L871.654 149.359 L869.73 145.259 L867.806 141.289 L865.882 137.45 L863.958 133.741 L862.034 130.166 L860.11 126.724 L858.186 123.416 L856.262 120.244 L854.338 117.209 L852.414 114.311 L850.49 111.551 L848.566 108.931 L846.641 106.45 L844.717 104.109 L842.793 101.91 L840.869 99.8526 L838.945 97.9375 L837.021 96.1652 L835.097 94.5364 L833.173 93.0514 L831.249 91.7107 L829.325 90.5147 L827.401 89.4636 L825.477 88.5578 L823.553 87.7976 L821.629 87.1831 L819.705 86.7145 L817.781 86.392 L815.857 86.2157 L813.933 86.1857 L812.009 86.3019 L810.085 86.5645 L808.161 86.9734 L806.237 87.5284 L804.313 88.2296 L802.389 89.0768 L800.465 90.0698 L798.541 91.2084 L796.617 92.4925 L794.693 93.9216 L792.769 95.4951 L790.845 97.2124 L788.921 99.0728 L786.997 101.075 L785.073 103.22 L783.149 105.505 L781.225 107.93 L779.301 110.494 L777.377 113.196 L775.453 116.036 L773.529 119.013 L771.605 122.125 L769.681 125.373 L767.757 128.754 L765.833 132.269 L763.909 135.916 L761.985 139.694 L760.061 143.602 L758.137 147.639 L756.213 151.805 L754.289 156.098 L752.365 160.515 L750.441 165.056 L748.517 169.719 L746.593 174.503 L744.669 179.405 L742.745 184.425 L740.821 189.56 L738.897 194.81 L736.973 200.173 L735.049 205.646 L733.125 211.23 L731.201 216.922 L729.277 222.72 L727.353 228.624 L725.429 234.632 L723.505 240.741 L721.581 246.952 L719.657 253.262 L717.733 259.67 L715.809 266.174 L713.885 272.773 L711.961 279.463 L710.037 286.243 L708.113 293.112 L706.189 300.068 L704.265 307.108 L702.341 314.231 L700.417 321.436 L698.493 328.72 L696.569 336.082 L694.645 343.521 L692.721 351.034 L690.797 358.619 L688.873 366.276 L686.949 374.003 L685.025 381.798 L683.101 389.66 L681.177 397.587 L679.253 405.577 L677.329 413.627 L675.405 421.734 L673.481 429.894 L671.557 438.103 L669.633 446.359 L667.709 454.659 L665.785 463 L663.861 471.379 L661.937 479.792 L660.013 488.239 L658.089 496.716 L656.165 505.22 L654.241 513.751 L652.317 522.304 L650.393 530.879 L648.469 539.474 L646.545 548.086 L644.621 556.714 L642.697 565.356 L640.773 574.01 L638.849 582.676 L636.924 591.354 L635 600.041 L633.076 608.738 L631.152 617.444 L629.228 626.158 L627.304 634.88 L625.38 643.61 L623.456 652.346 L621.532 661.088 L619.608 669.837 L617.684 678.591 L615.76 687.35 L613.836 696.114 L611.912 704.883 L609.988 713.656 L608.064 722.433 L606.14 731.213 L604.216 739.998 L602.292 748.784 L600.368 757.565 L598.444 766.33 L596.52 775.072 L594.596 783.782 L592.672 792.455 L590.748 801.082 L588.824 809.659 L586.9 818.179 L584.976 826.638 L583.052 835.032 L581.128 843.356 L579.204 851.608 L577.28 859.784 L575.356 867.881 L573.432 875.899 L571.508 883.835 L569.584 891.689 L567.66 899.46 L565.736 907.146 L563.812 914.752 L561.888 922.287 L559.964 929.765 L558.04 937.198 L556.116 944.597 L554.192 951.973 L552.268 959.336 L550.344 966.695 L548.42 974.061 L546.496 981.44 L544.572 988.841 L542.648 996.271 L540.724 1003.74 L538.8 1011.25 L536.876 1018.8 L534.952 1026.41 L533.028 1034.07 L531.104 1041.8 L529.18 1049.59 L527.256 1057.45 L525.332 1065.37 L523.408 1073.31 L521.484 1081.22 L519.56 1089.06 L517.636 1096.79 L515.712 1104.38 L513.788 1111.8 L511.864 1119.02 L509.94 1126.03 L508.016 1132.8 L506.092 1139.32 L504.168 1145.59 L502.244 1151.6 L500.32 1157.33 L498.396 1162.8 L496.472 1168.01 L494.548 1172.95 L492.624 1177.65 L490.7 1182.1 L488.776 1186.32 L486.852 1190.33 L484.928 1194.21 L483.004 1198.01 L481.08 1201.81 L479.156 1205.66 L477.232 1209.6 L475.308 1213.7 L473.384 1217.99 L471.46 1222.5 L469.536 1227.28 L467.612 1232.35 L465.688 1237.72 L463.764 1243.43 L461.84 1249.48 L459.916 1255.89 L457.992 1262.66 L456.068 1269.8 L454.144 1277.3 L452.22 1285.17 L450.296 1293.4  Z" fill="#009af9" fill-rule="evenodd" fill-opacity="0.5"/>
<polyline clip-path="url(#clip121)" style="stroke:#009af9; stroke-linecap:round; stroke-linejoin:round; stroke-width:4; stroke-opacity:1; fill:none" points="450.296,1338.82 452.22,1331.22 454.144,1323.93 456.068,1316.94 457.992,1310.27 459.916,1303.91 461.84,1297.87 463.764,1292.14 465.688,1286.71 467.612,1281.57 469.536,1276.7 471.46,1272.08 473.384,1267.7 475.308,1263.51 477.232,1259.5 479.156,1255.62 481.08,1251.84 483.004,1248.1 484.928,1244.35 486.852,1240.55 488.776,1236.62 490.7,1232.51 492.624,1228.2 494.548,1223.68 496.472,1218.93 498.396,1213.95 500.32,1208.73 502.244,1203.28 504.168,1197.58 506.092,1191.65 508.016,1185.49 509.94,1179.1 511.864,1172.5 513.788,1165.7 515.712,1158.73 517.636,1151.6 519.56,1144.34 521.484,1136.98 523.408,1129.55 525.332,1122.09 527.256,1114.65 529.18,1107.26 531.104,1099.92 533.028,1092.65 534.952,1085.42 536.876,1078.24 538.8,1071.11 540.724,1064.02 542.648,1056.96 544.572,1049.93 546.496,1042.93 548.42,1035.94 550.344,1028.97 552.268,1021.99 554.192,1015.02 556.116,1008.02 558.04,1001.01 559.964,993.963 561.888,986.873 563.812,979.728 565.736,972.518 567.66,965.231 569.584,957.867 571.508,950.424 573.432,942.904 575.356,935.308 577.28,927.636 579.204,919.891 581.128,912.074 583.052,904.189 584.976,896.238 586.9,888.225 588.824,880.154 590.748,872.028 592.672,863.854 594.596,855.637 596.52,847.382 598.444,839.096 600.368,830.787 602.292,822.461 604.216,814.127 606.14,805.793 608.064,797.46 609.988,789.129 611.912,780.799 613.836,772.47 615.76,764.144 617.684,755.82 619.608,747.499 621.532,739.181 623.456,730.867 625.38,722.556 627.304,714.25 629.228,705.949 631.152,697.653 633.076,689.362 635,681.079 636.924,672.802 638.849,664.533 640.773,656.272 642.697,648.02 644.621,639.779 646.545,631.548 648.469,623.331 650.393,615.128 652.317,606.942 654.241,598.773 656.165,590.625 658.089,582.5 660.013,574.398 661.937,566.323 663.861,558.277 665.785,550.262 667.709,542.281 669.633,534.336 671.557,526.43 673.481,518.567 675.405,510.748 677.329,502.977 679.253,495.258 681.177,487.593 683.101,479.986 685.025,472.438 686.949,464.95 688.873,457.526 690.797,450.165 692.721,442.869 694.645,435.64 696.569,428.48 698.493,421.389 700.417,414.37 702.341,407.425 704.265,400.554 706.189,393.76 708.113,387.044 710.037,380.408 711.961,373.853 713.885,367.383 715.809,360.997 717.733,354.699 719.657,348.489 721.581,342.371 723.505,336.344 725.429,330.411 727.353,324.574 729.277,318.832 731.201,313.189 733.125,307.645 735.049,302.202 736.973,296.861 738.897,291.624 740.821,286.492 742.745,281.466 744.669,276.549 746.593,271.741 748.517,267.045 750.441,262.461 752.365,257.991 754.289,253.637 756.213,249.399 758.137,245.281 760.061,241.282 761.985,237.405 763.909,233.65 765.833,230.018 767.757,226.51 769.681,223.127 771.605,219.87 773.529,216.739 775.453,213.737 777.377,210.862 779.301,208.118 781.225,205.503 783.149,203.019 785.073,200.667 786.997,198.448 788.921,196.362 790.845,194.41 792.769,192.593 794.693,190.911 796.617,189.366 798.541,187.958 800.465,186.687 802.389,185.553 804.313,184.557 806.237,183.699 808.161,182.98 810.085,182.398 812.009,181.955 813.933,181.65 815.857,181.484 817.781,181.456 819.705,181.567 821.629,181.815 823.553,182.203 825.477,182.728 827.401,183.391 829.325,184.193 831.249,185.131 833.173,186.207 835.097,187.42 837.021,188.77 838.945,190.255 840.869,191.877 842.793,193.633 844.717,195.525 846.641,197.551 848.566,199.71 850.49,202.003 852.414,204.427 854.338,206.984 856.262,209.671 858.186,212.488 860.11,215.435 862.034,218.51 863.958,221.712 865.882,225.041 867.806,228.495 869.73,232.074 871.654,235.776 873.578,239.6 875.502,243.545 877.426,247.611 879.35,251.795 881.274,256.097 883.198,260.515 885.122,265.049 887.046,269.697 888.97,274.458 890.894,279.33 892.818,284.312 894.742,289.403 896.666,294.601 898.59,299.904 900.514,305.312 902.438,310.822 904.362,316.433 906.286,322.143 908.21,327.95 910.134,333.853 912.058,339.85 913.982,345.939 915.906,352.118 917.83,358.387 919.754,364.742 921.678,371.183 923.602,377.707 925.526,384.313 927.45,391 929.374,397.765 931.298,404.606 933.222,411.522 935.146,418.511 937.07,425.57 938.994,432.698 940.918,439.893 942.842,447.152 944.766,454.473 946.69,461.855 948.614,469.295 950.538,476.79 952.462,484.339 954.386,491.939 956.31,499.589 958.234,507.287 960.158,515.031 962.082,522.819 964.006,530.649 965.93,538.518 967.854,546.425 969.778,554.368 971.702,562.345 973.626,570.353 975.55,578.391 977.474,586.455 979.398,594.545 981.322,602.657 983.246,610.79 985.17,618.941 987.094,627.108 989.018,635.288 990.942,643.479 992.866,651.679 994.79,659.887 996.714,668.1 998.638,676.316 1000.56,684.534 1002.49,692.751 1004.41,700.966 1006.33,709.176 1008.26,717.38 1010.18,725.575 1012.11,733.76 1014.03,741.932 1015.95,750.089 1017.88,758.23 1019.8,766.352 1021.73,774.452 1023.65,782.53 1025.57,790.582 1027.5,798.607 1029.42,806.602 1031.35,814.566 1033.27,822.497 1035.19,830.393 1037.12,838.253 1039.04,846.075 1040.97,853.857 1042.89,861.598 1044.81,869.296 1046.74,876.949 1048.66,884.556 1050.59,892.115 1052.51,899.624 1054.43,907.081 1056.36,914.485 1058.28,921.835 1060.21,929.128 1062.13,936.363 1064.05,943.537 1065.98,950.65 1067.9,957.7 1069.83,964.685 1071.75,971.605 1073.67,978.457 1075.6,985.241 1077.52,991.956 1079.45,998.6 1081.37,1005.17 1083.29,1011.67 1085.22,1018.1 1087.14,1024.45 1089.07,1030.72 1090.99,1036.91 1092.91,1043.03 1094.84,1049.07 1096.76,1055.02 1098.69,1060.9 1100.61,1066.69 1102.53,1072.4 1104.46,1078.02 1106.38,1083.55 1108.31,1089 1110.23,1094.36 1112.15,1099.63 1114.08,1104.82 1116,1109.91 1117.93,1114.92 1119.85,1119.83 1121.77,1124.65 1123.7,1129.38 1125.62,1134.02 1127.55,1138.57 1129.47,1143.02 1131.39,1147.38 1133.32,1151.64 1135.24,1155.81 1137.17,1159.89 1139.09,1163.87 1141.01,1167.75 1142.94,1171.54 1144.86,1175.23 1146.79,1178.83 1148.71,1182.33 1150.63,1185.74 1152.56,1189.04 1154.48,1192.25 1156.41,1195.37 1158.33,1198.39 1160.25,1201.31 1162.18,1204.14 1164.1,1206.87 1166.03,1209.5 1167.95,1212.04 1169.88,1214.49 1171.8,1216.84 1173.72,1219.09 1175.65,1221.25 1177.57,1223.32 1179.5,1225.29 1181.42,1227.17 1183.34,1228.96 1185.27,1230.65 1187.19,1232.26 1189.12,1233.77 1191.04,1235.19 1192.96,1236.52 1194.89,1237.76 1196.81,1238.91 1198.74,1239.97 1200.66,1240.95 1202.58,1241.84 1204.51,1242.64 1206.43,1243.36 1208.36,1243.99 1210.28,1244.54 1212.2,1245 1214.13,1245.39 1216.05,1245.69 1217.98,1245.91 1219.9,1246.06 1221.82,1246.12 1223.75,1246.11 1225.67,1246.02 1227.6,1245.86 1229.52,1245.62 1231.44,1245.31 1233.37,1244.93 1235.29,1244.47 1237.22,1243.95 1239.14,1243.36 1241.06,1242.69 1242.99,1241.97 1244.91,1241.17 1246.84,1240.31 1248.76,1239.39 1250.68,1238.41 1252.61,1237.37 1254.53,1236.27 1256.46,1235.11 1258.38,1233.89 1260.3,1232.62 1262.23,1231.29 1264.15,1229.92 1266.08,1228.49 1268,1227.01 1269.92,1225.49 1271.85,1223.91 1273.77,1222.29 1275.7,1220.63 1277.62,1218.92 1279.54,1217.16 1281.47,1215.37 1283.39,1213.54 1285.32,1211.67 1287.24,1209.76 1289.16,1207.82 1291.09,1205.85 1293.01,1203.84 1294.94,1201.8 1296.86,1199.73 1298.78,1197.64 1300.71,1195.52 1302.63,1193.38 1304.56,1191.21 1306.48,1189.02 1308.4,1186.81 1310.33,1184.58 1312.25,1182.33 1314.18,1180.06 1316.1,1177.78 1318.02,1175.48 1319.95,1173.17 1321.87,1170.85 1323.8,1168.52 1325.72,1166.18 1327.64,1163.83 1329.57,1161.48 1331.49,1159.12 1333.42,1156.76 1335.34,1154.4 1337.26,1152.04 1339.19,1149.68 1341.11,1147.32 1343.04,1144.97 1344.96,1142.62 1346.88,1140.27 1348.81,1137.94 1350.73,1135.61 1352.66,1133.29 1354.58,1130.98 1356.5,1128.68 1358.43,1126.4 1360.35,1124.13 1362.28,1121.87 1364.2,1119.63 1366.12,1117.41 1368.05,1115.21 1369.97,1113.03 1371.9,1110.87 1373.82,1108.73 1375.74,1106.61 1377.67,1104.52 1379.59,1102.46 1381.52,1100.42 1383.44,1098.41 1385.36,1096.43 1387.29,1094.47 1389.21,1092.55 1391.14,1090.65 1393.06,1088.79 1394.98,1086.96 1396.91,1085.16 1398.83,1083.4 1400.76,1081.67 1402.68,1079.97 1404.6,1078.31 1406.53,1076.69 1408.45,1075.1 1410.38,1073.56 1412.3,1072.05 1414.22,1070.59 1416.15,1069.16 1418.07,1067.78 1420,1066.44 1421.92,1065.14 1423.84,1063.88 1425.77,1062.67 1427.69,1061.5 1429.62,1060.37 1431.54,1059.29 1433.46,1058.25 1435.39,1057.25 1437.31,1056.3 1439.24,1055.4 1441.16,1054.54 1443.08,1053.73 1445.01,1052.97 1446.93,1052.25 1448.86,1051.58 1450.78,1050.96 1452.7,1050.38 1454.63,1049.86 1456.55,1049.38 1458.48,1048.95 1460.4,1048.57 1462.32,1048.23 1464.25,1047.95 1466.17,1047.71 1468.1,1047.52 1470.02,1047.38 1471.94,1047.29 1473.87,1047.24 1475.79,1047.25 1477.72,1047.3 1479.64,1047.39 1481.56,1047.54 1483.49,1047.73 1485.41,1047.97 1487.34,1048.26 1489.26,1048.6 1491.18,1048.98 1493.11,1049.4 1495.03,1049.88 1496.96,1050.4 1498.88,1050.97 1500.8,1051.58 1502.73,1052.23 1504.65,1052.93 1506.58,1053.67 1508.5,1054.46 1510.42,1055.29 1512.35,1056.16 1514.27,1057.07 1516.2,1058.03 1518.12,1059.02 1520.04,1060.06 1521.97,1061.13 1523.89,1062.25 1525.82,1063.4 1527.74,1064.59 1529.66,1065.82 1531.59,1067.09 1533.51,1068.39 1535.44,1069.73 1537.36,1071.1 1539.28,1072.51 1541.21,1073.95 1543.13,1075.42 1545.06,1076.93 1546.98,1078.46 1548.9,1080.03 1550.83,1081.63 1552.75,1083.25 1554.68,1084.91 1556.6,1086.59 1558.52,1088.3 1560.45,1090.03 1562.37,1091.79 1564.3,1093.58 1566.22,1095.39 1568.14,1097.22 1570.07,1099.07 1571.99,1100.94 1573.92,1102.83 1575.84,1104.74 1577.76,1106.67 1579.69,1108.62 1581.61,1110.59 1583.54,1112.57 1585.46,1114.56 1587.39,1116.57 1589.31,1118.59 1591.23,1120.63 1593.16,1122.67 1595.08,1124.73 1597.01,1126.8 1598.93,1128.87 1600.85,1130.95 1602.78,1133.04 1604.7,1135.13 1606.63,1137.23 1608.55,1139.34 1610.47,1141.44 1612.4,1143.55 1614.32,1145.66 1616.25,1147.76 1618.17,1149.87 1620.09,1151.98 1622.02,1154.08 1623.94,1156.19 1625.87,1158.28 1627.79,1160.38 1629.71,1162.47 1631.64,1164.55 1633.56,1166.62 1635.49,1168.68 1637.41,1170.74 1639.33,1172.79 1641.26,1174.82 1643.18,1176.84 1645.11,1178.85 1647.03,1180.84 1648.95,1182.82 1650.88,1184.79 1652.8,1186.74 1654.73,1188.67 1656.65,1190.58 1658.57,1192.48 1660.5,1194.36 1662.42,1196.21 1664.35,1198.05 1666.27,1199.87 1668.19,1201.66 1670.12,1203.44 1672.04,1205.19 1673.97,1206.91 1675.89,1208.61 1677.81,1210.29 1679.74,1211.93 1681.66,1213.56 1683.59,1215.15 1685.51,1216.71 1687.43,1218.25 1689.36,1219.76 1691.28,1221.24 1693.21,1222.68 1695.13,1224.1 1697.05,1225.49 1698.98,1226.84 1700.9,1228.16 1702.83,1229.45 1704.75,1230.71 1706.67,1231.93 1708.6,1233.12 1710.52,1234.28 1712.45,1235.4 1714.37,1236.48 1716.29,1237.53 1718.22,1238.54 1720.14,1239.52 1722.07,1240.46 1723.99,1241.36 1725.91,1242.22 1727.84,1243.04 1729.76,1243.83 1731.69,1244.58 1733.61,1245.29 1735.53,1245.96 1737.46,1246.6 1739.38,1247.19 1741.31,1247.75 1743.23,1248.27 1745.15,1248.74 1747.08,1249.18 1749,1249.58 1750.93,1249.94 1752.85,1250.26 1754.77,1250.54 1756.7,1250.78 1758.62,1250.98 1760.55,1251.14 1762.47,1251.26 1764.39,1251.34 1766.32,1251.38 1768.24,1251.38 1770.17,1251.34 1772.09,1251.26 1774.01,1251.14 1775.94,1250.99 1777.86,1250.79 1779.79,1250.56 1781.71,1250.28 1783.63,1249.97 1785.56,1249.62 1787.48,1249.24 1789.41,1248.81 1791.33,1248.35 1793.25,1247.85 1795.18,1247.31 1797.1,1246.74 1799.03,1246.13 1800.95,1245.48 1802.87,1244.8 1804.8,1244.08 1806.72,1243.33 1808.65,1242.54 1810.57,1241.72 1812.49,1240.87 1814.42,1239.98 1816.34,1239.06 1818.27,1238.11 1820.19,1237.12 1822.11,1236.1 1824.04,1235.06 1825.96,1233.98 1827.89,1232.87 1829.81,1231.74 1831.73,1230.57 1833.66,1229.38 1835.58,1228.16 1837.51,1226.91 1839.43,1225.64 1841.35,1224.34 1843.28,1223.01 1845.2,1221.66 1847.13,1220.29 1849.05,1218.89 1850.97,1217.47 1852.9,1216.03 1854.82,1214.56 1856.75,1213.08 1858.67,1211.57 1860.59,1210.05 1862.52,1208.5 1864.44,1206.94 1866.37,1205.36 1868.29,1203.77 1870.21,1202.15 1872.14,1200.53 1874.06,1198.89 1875.99,1197.23 1877.91,1195.56 1879.83,1193.88 1881.76,1192.19 1883.68,1190.49 1885.61,1188.78 1887.53,1187.06 1889.45,1185.33 1891.38,1183.59 1893.3,1181.84 1895.23,1180.09 1897.15,1178.34 1899.07,1176.57 1901,1174.81 1902.92,1173.04 1904.85,1171.27 1906.77,1169.49 1908.69,1167.72 1910.62,1165.95 1912.54,1164.17 1914.47,1162.4 1916.39,1160.63 1918.31,1158.87 1920.24,1157.11 1922.16,1155.35 1924.09,1153.6 1926.01,1151.85 1927.93,1150.11 1929.86,1148.38 1931.78,1146.66 1933.71,1144.94 1935.63,1143.24 1937.55,1141.54 1939.48,1139.86 1941.4,1138.19 1943.33,1136.53 1945.25,1134.88 1947.17,1133.25 1949.1,1131.64 1951.02,1130.04 1952.95,1128.45 1954.87,1126.89 1956.79,1125.34 1958.72,1123.81 1960.64,1122.3 1962.57,1120.81 1964.49,1119.34 1966.41,1117.89 1968.34,1116.46 1970.26,1115.05 1972.19,1113.67 1974.11,1112.31 1976.03,1110.97 1977.96,1109.66 1979.88,1108.37 1981.81,1107.11 1983.73,1105.88 1985.65,1104.67 1987.58,1103.49 1989.5,1102.34 1991.43,1101.21 1993.35,1100.12 1995.27,1099.06 1997.2,1098.03 1999.12,1097.02 2001.05,1096.05 2002.97,1095.11 2004.9,1094.2 2006.82,1093.33 2008.74,1092.49 2010.67,1091.68 2012.59,1090.9 2014.52,1090.16 2016.44,1089.45 2018.36,1088.77 2020.29,1088.13 2022.21,1087.53 2024.14,1086.96 2026.06,1086.43 2027.98,1085.94 2029.91,1085.48 2031.83,1085.06 2033.76,1084.68 2035.68,1084.33 2037.6,1084.02 2039.53,1083.75 2041.45,1083.52 2043.38,1083.33 2045.3,1083.17 2047.22,1083.06 2049.15,1082.98 2051.07,1082.94 2053,1082.94 2054.92,1082.98 2056.84,1083.06 2058.77,1083.17 2060.69,1083.33 2062.62,1083.53 2064.54,1083.76 2066.46,1084.04 2068.39,1084.36 2070.31,1084.72 2072.24,1085.11 2074.16,1085.55 2076.08,1086.02 2078.01,1086.54 2079.93,1087.1 2081.86,1087.69 2083.78,1088.32 2085.7,1089 2087.63,1089.71 2089.55,1090.46 2091.48,1091.25 2093.4,1092.08 2095.32,1092.94 2097.25,1093.85 2099.17,1094.79 2101.1,1095.77 2103.02,1096.79 2104.94,1097.85 2106.87,1098.94 2108.79,1100.07 2110.72,1101.24 2112.64,1102.44 2114.56,1103.68 2116.49,1104.96 2118.41,1106.27 2120.34,1107.62 2122.26,1109 2124.18,1110.42 2126.11,1111.87 2128.03,1113.35 2129.96,1114.87 2131.88,1116.42 2133.8,1118.01 2135.73,1119.62 2137.65,1121.27 2139.58,1122.95 2141.5,1124.67 2143.42,1126.41 2145.35,1128.18 2147.27,1129.99 2149.2,1131.82 2151.12,1133.68 2153.04,1135.57 2154.97,1137.49 2156.89,1139.44 2158.82,1141.41 2160.74,1143.41 2162.66,1145.43 2164.59,1147.48 2166.51,1149.56 2168.44,1151.65 2170.36,1153.78 2172.28,1155.92 2174.21,1158.09 2176.13,1160.27 2178.06,1162.48 2179.98,1164.71 2181.9,1166.96 2183.83,1169.23 2185.75,1171.52 2187.68,1173.82 2189.6,1176.14 2191.52,1178.48 2193.45,1180.84 2195.37,1183.21 2197.3,1185.6 2199.22,1188.01 2201.14,1190.42 2203.07,1192.86 2204.99,1195.3 2206.92,1197.76 2208.84,1200.24 2210.76,1202.72 2212.69,1205.22 2214.61,1207.73 2216.54,1210.24 2218.46,1212.77 2220.38,1215.31 2222.31,1217.86 2224.23,1220.41 2226.16,1222.97 2228.08,1225.54 2230,1228.11 2231.93,1230.69 2233.85,1233.27 2235.78,1235.85 2237.7,1238.43 2239.62,1241.01 2241.55,1243.59 2243.47,1246.17 2245.4,1248.74 2247.32,1251.31 2249.24,1253.87 2251.17,1256.43 2253.09,1258.97 2255.02,1261.51 2256.94,1264.04 2258.86,1266.55 2260.79,1269.05 2262.71,1271.54 2264.64,1274.02 2266.56,1276.49 2268.48,1278.95 2270.41,1281.41 2272.33,1283.86 2274.26,1286.3 2276.18,1288.74 2278.1,1291.18 2280.03,1293.62 2281.95,1296.05 2283.88,1298.49 2285.8,1300.93 2287.72,1303.38 2289.65,1305.83 2291.57,1308.28 2293.5,1310.75 2295.42,1313.22 2297.34,1315.71 "/>
<path clip-path="url(#clip120)" d="M1907.68 196.789 L2287.49 196.789 L2287.49 93.1086 L1907.68 93.1086  Z" fill="#ffffff" fill-rule="evenodd" fill-opacity="1"/>
<polyline clip-path="url(#clip120)" style="stroke:#000000; stroke-linecap:round; stroke-linejoin:round; stroke-width:4; stroke-opacity:1; fill:none" points="1907.68,196.789 2287.49,196.789 2287.49,93.1086 1907.68,93.1086 1907.68,196.789 "/>
<polyline clip-path="url(#clip120)" style="stroke:#009af9; stroke-linecap:round; stroke-linejoin:round; stroke-width:4; stroke-opacity:1; fill:none" points="1929.43,144.949 2059.96,144.949 "/>
<path clip-path="url(#clip120)" d="M2086.39 131.511 L2086.39 158.386 L2092.04 158.386 Q2099.19 158.386 2102.5 155.145 Q2105.83 151.905 2105.83 144.914 Q2105.83 137.969 2102.5 134.752 Q2099.19 131.511 2092.04 131.511 L2086.39 131.511 M2081.71 127.669 L2091.32 127.669 Q2101.37 127.669 2106.06 131.858 Q2110.76 136.025 2110.76 144.914 Q2110.76 153.849 2106.04 158.039 Q2101.32 162.229 2091.32 162.229 L2081.71 162.229 L2081.71 127.669 Z" fill="#000000" fill-rule="nonzero" fill-opacity="1" /><path clip-path="url(#clip120)" d="M2116.39 142.067 L2119.07 142.067 L2119.07 162.229 L2116.39 162.229 L2116.39 142.067 Z" fill="#000000" fill-rule="nonzero" fill-opacity="1" /><path clip-path="url(#clip120)" d="M2158.31 132.507 L2158.31 141.465 L2171.2 141.465 L2171.2 145.4 L2158.31 145.4 L2158.31 154.358 L2154.42 154.358 L2154.42 145.4 L2141.53 145.4 L2141.53 141.465 L2154.42 141.465 L2154.42 132.507 L2158.31 132.507 M2141.53 158.293 L2171.2 158.293 L2171.2 162.229 L2141.53 162.229 L2141.53 158.293 Z" fill="#000000" fill-rule="nonzero" fill-opacity="1" /><path clip-path="url(#clip120)" d="M2207.5 132.275 L2198.01 158.34 L2217.01 158.34 L2207.5 132.275 M2191.67 162.229 L2204.86 127.669 L2210.16 127.669 L2223.33 162.229 L2191.67 162.229 Z" fill="#000000" fill-rule="nonzero" fill-opacity="1" /><path clip-path="url(#clip120)" d="M2233.05 131.511 L2233.05 158.386 L2238.7 158.386 Q2245.86 158.386 2249.17 155.145 Q2252.5 151.905 2252.5 144.914 Q2252.5 137.969 2249.17 134.752 Q2245.86 131.511 2238.7 131.511 L2233.05 131.511 M2228.38 127.669 L2237.98 127.669 Q2248.03 127.669 2252.73 131.858 Q2257.43 136.025 2257.43 144.914 Q2257.43 153.849 2252.71 158.039 Q2247.98 162.229 2237.98 162.229 L2228.38 162.229 L2228.38 127.669 Z" fill="#000000" fill-rule="nonzero" fill-opacity="1" /><path clip-path="url(#clip120)" d="M2263.05 142.067 L2265.74 142.067 L2265.74 162.229 L2263.05 162.229 L2263.05 142.067 Z" fill="#000000" fill-rule="nonzero" fill-opacity="1" /></svg>
