<?xml version="1.0" encoding="utf-8"?>
<svg xmlns="http://www.w3.org/2000/svg" xmlns:xlink="http://www.w3.org/1999/xlink" width="600" height="400" viewBox="0 0 2400 1600">
<defs>
  <clipPath id="clip670">
    <rect x="0" y="0" width="2400" height="1600"/>
  </clipPath>
</defs>
<path clip-path="url(#clip670)" d="M0 1600 L2400 1600 L2400 0 L0 0  Z" fill="#ffffff" fill-rule="evenodd" fill-opacity="1"/>
<defs>
  <clipPath id="clip671">
    <rect x="265" y="47" width="2088" height="1377"/>
  </clipPath>
</defs>
<path clip-path="url(#clip670)" d="M265.445 1423.18 L2352.76 1423.18 L2352.76 47.2441 L265.445 47.2441  Z" fill="#ffffff" fill-rule="evenodd" fill-opacity="1"/>
<polyline clip-path="url(#clip671)" style="stroke:#000000; stroke-linecap:round; stroke-linejoin:round; stroke-width:2; stroke-opacity:0.1; fill:none" points="304.629,1423.18 304.629,47.2441 "/>
<polyline clip-path="url(#clip671)" style="stroke:#000000; stroke-linecap:round; stroke-linejoin:round; stroke-width:2; stroke-opacity:0.1; fill:none" points="801.892,1423.18 801.892,47.2441 "/>
<polyline clip-path="url(#clip671)" style="stroke:#000000; stroke-linecap:round; stroke-linejoin:round; stroke-width:2; stroke-opacity:0.1; fill:none" points="1299.16,1423.18 1299.16,47.2441 "/>
<polyline clip-path="url(#clip671)" style="stroke:#000000; stroke-linecap:round; stroke-linejoin:round; stroke-width:2; stroke-opacity:0.1; fill:none" points="1796.42,1423.18 1796.42,47.2441 "/>
<polyline clip-path="url(#clip671)" style="stroke:#000000; stroke-linecap:round; stroke-linejoin:round; stroke-width:2; stroke-opacity:0.1; fill:none" points="2293.68,1423.18 2293.68,47.2441 "/>
<polyline clip-path="url(#clip671)" style="stroke:#000000; stroke-linecap:round; stroke-linejoin:round; stroke-width:2; stroke-opacity:0.1; fill:none" points="265.445,1334.25 2352.76,1334.25 "/>
<polyline clip-path="url(#clip671)" style="stroke:#000000; stroke-linecap:round; stroke-linejoin:round; stroke-width:2; stroke-opacity:0.1; fill:none" points="265.445,1084.47 2352.76,1084.47 "/>
<polyline clip-path="url(#clip671)" style="stroke:#000000; stroke-linecap:round; stroke-linejoin:round; stroke-width:2; stroke-opacity:0.1; fill:none" points="265.445,834.69 2352.76,834.69 "/>
<polyline clip-path="url(#clip671)" style="stroke:#000000; stroke-linecap:round; stroke-linejoin:round; stroke-width:2; stroke-opacity:0.1; fill:none" points="265.445,584.908 2352.76,584.908 "/>
<polyline clip-path="url(#clip671)" style="stroke:#000000; stroke-linecap:round; stroke-linejoin:round; stroke-width:2; stroke-opacity:0.1; fill:none" points="265.445,335.127 2352.76,335.127 "/>
<polyline clip-path="url(#clip671)" style="stroke:#000000; stroke-linecap:round; stroke-linejoin:round; stroke-width:2; stroke-opacity:0.1; fill:none" points="265.445,85.3453 2352.76,85.3453 "/>
<polyline clip-path="url(#clip670)" style="stroke:#000000; stroke-linecap:round; stroke-linejoin:round; stroke-width:4; stroke-opacity:1; fill:none" points="265.445,1423.18 2352.76,1423.18 "/>
<polyline clip-path="url(#clip670)" style="stroke:#000000; stroke-linecap:round; stroke-linejoin:round; stroke-width:4; stroke-opacity:1; fill:none" points="304.629,1423.18 304.629,1404.28 "/>
<polyline clip-path="url(#clip670)" style="stroke:#000000; stroke-linecap:round; stroke-linejoin:round; stroke-width:4; stroke-opacity:1; fill:none" points="801.892,1423.18 801.892,1404.28 "/>
<polyline clip-path="url(#clip670)" style="stroke:#000000; stroke-linecap:round; stroke-linejoin:round; stroke-width:4; stroke-opacity:1; fill:none" points="1299.16,1423.18 1299.16,1404.28 "/>
<polyline clip-path="url(#clip670)" style="stroke:#000000; stroke-linecap:round; stroke-linejoin:round; stroke-width:4; stroke-opacity:1; fill:none" points="1796.42,1423.18 1796.42,1404.28 "/>
<polyline clip-path="url(#clip670)" style="stroke:#000000; stroke-linecap:round; stroke-linejoin:round; stroke-width:4; stroke-opacity:1; fill:none" points="2293.68,1423.18 2293.68,1404.28 "/>
<path clip-path="url(#clip670)" d="M304.629 1454.1 Q301.018 1454.1 299.189 1457.66 Q297.384 1461.2 297.384 1468.33 Q297.384 1475.44 299.189 1479.01 Q301.018 1482.55 304.629 1482.55 Q308.263 1482.55 310.069 1479.01 Q311.898 1475.44 311.898 1468.33 Q311.898 1461.2 310.069 1457.66 Q308.263 1454.1 304.629 1454.1 M304.629 1450.39 Q310.439 1450.39 313.495 1455 Q316.573 1459.58 316.573 1468.33 Q316.573 1477.06 313.495 1481.67 Q310.439 1486.25 304.629 1486.25 Q298.819 1486.25 295.74 1481.67 Q292.685 1477.06 292.685 1468.33 Q292.685 1459.58 295.74 1455 Q298.819 1450.39 304.629 1450.39 Z" fill="#000000" fill-rule="nonzero" fill-opacity="1" /><path clip-path="url(#clip670)" d="M765.584 1481.64 L781.904 1481.64 L781.904 1485.58 L759.959 1485.58 L759.959 1481.64 Q762.621 1478.89 767.205 1474.26 Q771.811 1469.61 772.992 1468.27 Q775.237 1465.74 776.117 1464.01 Q777.02 1462.25 777.02 1460.56 Q777.02 1457.8 775.075 1456.07 Q773.154 1454.33 770.052 1454.33 Q767.853 1454.33 765.399 1455.09 Q762.969 1455.86 760.191 1457.41 L760.191 1452.69 Q763.015 1451.55 765.469 1450.97 Q767.922 1450.39 769.959 1450.39 Q775.33 1450.39 778.524 1453.08 Q781.719 1455.77 781.719 1460.26 Q781.719 1462.39 780.908 1464.31 Q780.121 1466.2 778.015 1468.8 Q777.436 1469.47 774.334 1472.69 Q771.232 1475.88 765.584 1481.64 Z" fill="#000000" fill-rule="nonzero" fill-opacity="1" /><path clip-path="url(#clip670)" d="M791.765 1451.02 L810.121 1451.02 L810.121 1454.96 L796.047 1454.96 L796.047 1463.43 Q797.066 1463.08 798.084 1462.92 Q799.103 1462.73 800.121 1462.73 Q805.908 1462.73 809.288 1465.9 Q812.667 1469.08 812.667 1474.49 Q812.667 1480.07 809.195 1483.17 Q805.723 1486.25 799.404 1486.25 Q797.228 1486.25 794.959 1485.88 Q792.714 1485.51 790.306 1484.77 L790.306 1480.07 Q792.39 1481.2 794.612 1481.76 Q796.834 1482.32 799.311 1482.32 Q803.316 1482.32 805.654 1480.21 Q807.992 1478.1 807.992 1474.49 Q807.992 1470.88 805.654 1468.77 Q803.316 1466.67 799.311 1466.67 Q797.436 1466.67 795.561 1467.08 Q793.709 1467.5 791.765 1468.38 L791.765 1451.02 Z" fill="#000000" fill-rule="nonzero" fill-opacity="1" /><path clip-path="url(#clip670)" d="M831.88 1454.1 Q828.269 1454.1 826.441 1457.66 Q824.635 1461.2 824.635 1468.33 Q824.635 1475.44 826.441 1479.01 Q828.269 1482.55 831.88 1482.55 Q835.515 1482.55 837.32 1479.01 Q839.149 1475.44 839.149 1468.33 Q839.149 1461.2 837.32 1457.66 Q835.515 1454.1 831.88 1454.1 M831.88 1450.39 Q837.69 1450.39 840.746 1455 Q843.825 1459.58 843.825 1468.33 Q843.825 1477.06 840.746 1481.67 Q837.69 1486.25 831.88 1486.25 Q826.07 1486.25 822.991 1481.67 Q819.936 1477.06 819.936 1468.33 Q819.936 1459.58 822.991 1455 Q826.07 1450.39 831.88 1450.39 Z" fill="#000000" fill-rule="nonzero" fill-opacity="1" /><path clip-path="url(#clip670)" d="M1258.77 1451.02 L1277.13 1451.02 L1277.13 1454.96 L1263.06 1454.96 L1263.06 1463.43 Q1264.07 1463.08 1265.09 1462.92 Q1266.11 1462.73 1267.13 1462.73 Q1272.92 1462.73 1276.3 1465.9 Q1279.68 1469.08 1279.68 1474.49 Q1279.68 1480.07 1276.2 1483.17 Q1272.73 1486.25 1266.41 1486.25 Q1264.24 1486.25 1261.97 1485.88 Q1259.72 1485.51 1257.32 1484.77 L1257.32 1480.07 Q1259.4 1481.2 1261.62 1481.76 Q1263.84 1482.32 1266.32 1482.32 Q1270.32 1482.32 1272.66 1480.21 Q1275 1478.1 1275 1474.49 Q1275 1470.88 1272.66 1468.77 Q1270.32 1466.67 1266.32 1466.67 Q1264.44 1466.67 1262.57 1467.08 Q1260.72 1467.5 1258.77 1468.38 L1258.77 1451.02 Z" fill="#000000" fill-rule="nonzero" fill-opacity="1" /><path clip-path="url(#clip670)" d="M1298.89 1454.1 Q1295.28 1454.1 1293.45 1457.66 Q1291.64 1461.2 1291.64 1468.33 Q1291.64 1475.44 1293.45 1479.01 Q1295.28 1482.55 1298.89 1482.55 Q1302.52 1482.55 1304.33 1479.01 Q1306.16 1475.44 1306.16 1468.33 Q1306.16 1461.2 1304.33 1457.66 Q1302.52 1454.1 1298.89 1454.1 M1298.89 1450.39 Q1304.7 1450.39 1307.75 1455 Q1310.83 1459.58 1310.83 1468.33 Q1310.83 1477.06 1307.75 1481.67 Q1304.7 1486.25 1298.89 1486.25 Q1293.08 1486.25 1290 1481.67 Q1286.94 1477.06 1286.94 1468.33 Q1286.94 1459.58 1290 1455 Q1293.08 1450.39 1298.89 1450.39 Z" fill="#000000" fill-rule="nonzero" fill-opacity="1" /><path clip-path="url(#clip670)" d="M1329.05 1454.1 Q1325.44 1454.1 1323.61 1457.66 Q1321.81 1461.2 1321.81 1468.33 Q1321.81 1475.44 1323.61 1479.01 Q1325.44 1482.55 1329.05 1482.55 Q1332.68 1482.55 1334.49 1479.01 Q1336.32 1475.44 1336.32 1468.33 Q1336.32 1461.2 1334.49 1457.66 Q1332.68 1454.1 1329.05 1454.1 M1329.05 1450.39 Q1334.86 1450.39 1337.92 1455 Q1341 1459.58 1341 1468.33 Q1341 1477.06 1337.92 1481.67 Q1334.86 1486.25 1329.05 1486.25 Q1323.24 1486.25 1320.16 1481.67 Q1317.11 1477.06 1317.11 1468.33 Q1317.11 1459.58 1320.16 1455 Q1323.24 1450.39 1329.05 1450.39 Z" fill="#000000" fill-rule="nonzero" fill-opacity="1" /><path clip-path="url(#clip670)" d="M1754.69 1451.02 L1776.92 1451.02 L1776.92 1453.01 L1764.37 1485.58 L1759.49 1485.58 L1771.29 1454.96 L1754.69 1454.96 L1754.69 1451.02 Z" fill="#000000" fill-rule="nonzero" fill-opacity="1" /><path clip-path="url(#clip670)" d="M1786.08 1451.02 L1804.44 1451.02 L1804.44 1454.96 L1790.36 1454.96 L1790.36 1463.43 Q1791.38 1463.08 1792.4 1462.92 Q1793.42 1462.73 1794.44 1462.73 Q1800.23 1462.73 1803.61 1465.9 Q1806.99 1469.08 1806.99 1474.49 Q1806.99 1480.07 1803.51 1483.17 Q1800.04 1486.25 1793.72 1486.25 Q1791.55 1486.25 1789.28 1485.88 Q1787.03 1485.51 1784.62 1484.77 L1784.62 1480.07 Q1786.71 1481.2 1788.93 1481.76 Q1791.15 1482.32 1793.63 1482.32 Q1797.63 1482.32 1799.97 1480.21 Q1802.31 1478.1 1802.31 1474.49 Q1802.31 1470.88 1799.97 1468.77 Q1797.63 1466.67 1793.63 1466.67 Q1791.75 1466.67 1789.88 1467.08 Q1788.03 1467.5 1786.08 1468.38 L1786.08 1451.02 Z" fill="#000000" fill-rule="nonzero" fill-opacity="1" /><path clip-path="url(#clip670)" d="M1826.2 1454.1 Q1822.59 1454.1 1820.76 1457.66 Q1818.95 1461.2 1818.95 1468.33 Q1818.95 1475.44 1820.76 1479.01 Q1822.59 1482.55 1826.2 1482.55 Q1829.83 1482.55 1831.64 1479.01 Q1833.47 1475.44 1833.47 1468.33 Q1833.47 1461.2 1831.64 1457.66 Q1829.83 1454.1 1826.2 1454.1 M1826.2 1450.39 Q1832.01 1450.39 1835.06 1455 Q1838.14 1459.58 1838.14 1468.33 Q1838.14 1477.06 1835.06 1481.67 Q1832.01 1486.25 1826.2 1486.25 Q1820.39 1486.25 1817.31 1481.67 Q1814.25 1477.06 1814.25 1468.33 Q1814.25 1459.58 1817.31 1455 Q1820.39 1450.39 1826.2 1450.39 Z" fill="#000000" fill-rule="nonzero" fill-opacity="1" /><path clip-path="url(#clip670)" d="M2238.21 1481.64 L2245.85 1481.64 L2245.85 1455.28 L2237.54 1456.95 L2237.54 1452.69 L2245.8 1451.02 L2250.48 1451.02 L2250.48 1481.64 L2258.11 1481.64 L2258.11 1485.58 L2238.21 1485.58 L2238.21 1481.64 Z" fill="#000000" fill-rule="nonzero" fill-opacity="1" /><path clip-path="url(#clip670)" d="M2277.56 1454.1 Q2273.95 1454.1 2272.12 1457.66 Q2270.31 1461.2 2270.31 1468.33 Q2270.31 1475.44 2272.12 1479.01 Q2273.95 1482.55 2277.56 1482.55 Q2281.19 1482.55 2283 1479.01 Q2284.83 1475.44 2284.83 1468.33 Q2284.83 1461.2 2283 1457.66 Q2281.19 1454.1 2277.56 1454.1 M2277.56 1450.39 Q2283.37 1450.39 2286.42 1455 Q2289.5 1459.58 2289.5 1468.33 Q2289.5 1477.06 2286.42 1481.67 Q2283.37 1486.25 2277.56 1486.25 Q2271.75 1486.25 2268.67 1481.67 Q2265.61 1477.06 2265.61 1468.33 Q2265.61 1459.58 2268.67 1455 Q2271.75 1450.39 2277.56 1450.39 Z" fill="#000000" fill-rule="nonzero" fill-opacity="1" /><path clip-path="url(#clip670)" d="M2307.72 1454.1 Q2304.11 1454.1 2302.28 1457.66 Q2300.48 1461.2 2300.48 1468.33 Q2300.48 1475.44 2302.28 1479.01 Q2304.11 1482.55 2307.72 1482.55 Q2311.35 1482.55 2313.16 1479.01 Q2314.99 1475.44 2314.99 1468.33 Q2314.99 1461.2 2313.16 1457.66 Q2311.35 1454.1 2307.72 1454.1 M2307.72 1450.39 Q2313.53 1450.39 2316.59 1455 Q2319.66 1459.58 2319.66 1468.33 Q2319.66 1477.06 2316.59 1481.67 Q2313.53 1486.25 2307.72 1486.25 Q2301.91 1486.25 2298.83 1481.67 Q2295.78 1477.06 2295.78 1468.33 Q2295.78 1459.58 2298.83 1455 Q2301.91 1450.39 2307.72 1450.39 Z" fill="#000000" fill-rule="nonzero" fill-opacity="1" /><path clip-path="url(#clip670)" d="M2337.88 1454.1 Q2334.27 1454.1 2332.44 1457.66 Q2330.64 1461.2 2330.64 1468.33 Q2330.64 1475.44 2332.44 1479.01 Q2334.27 1482.55 2337.88 1482.55 Q2341.52 1482.55 2343.32 1479.01 Q2345.15 1475.44 2345.15 1468.33 Q2345.15 1461.2 2343.32 1457.66 Q2341.52 1454.1 2337.88 1454.1 M2337.88 1450.39 Q2343.69 1450.39 2346.75 1455 Q2349.83 1459.58 2349.83 1468.33 Q2349.83 1477.06 2346.75 1481.67 Q2343.69 1486.25 2337.88 1486.25 Q2332.07 1486.25 2328.99 1481.67 Q2325.94 1477.06 2325.94 1468.33 Q2325.94 1459.58 2328.99 1455 Q2332.07 1450.39 2337.88 1450.39 Z" fill="#000000" fill-rule="nonzero" fill-opacity="1" /><path clip-path="url(#clip670)" d="M1306.17 1518.52 L1312.03 1518.52 L1312.03 1568.04 L1306.17 1568.04 L1306.17 1518.52 Z" fill="#000000" fill-rule="nonzero" fill-opacity="1" /><polyline clip-path="url(#clip670)" style="stroke:#000000; stroke-linecap:round; stroke-linejoin:round; stroke-width:4; stroke-opacity:1; fill:none" points="265.445,1423.18 265.445,47.2441 "/>
<polyline clip-path="url(#clip670)" style="stroke:#000000; stroke-linecap:round; stroke-linejoin:round; stroke-width:4; stroke-opacity:1; fill:none" points="265.445,1334.25 284.342,1334.25 "/>
<polyline clip-path="url(#clip670)" style="stroke:#000000; stroke-linecap:round; stroke-linejoin:round; stroke-width:4; stroke-opacity:1; fill:none" points="265.445,1084.47 284.342,1084.47 "/>
<polyline clip-path="url(#clip670)" style="stroke:#000000; stroke-linecap:round; stroke-linejoin:round; stroke-width:4; stroke-opacity:1; fill:none" points="265.445,834.69 284.342,834.69 "/>
<polyline clip-path="url(#clip670)" style="stroke:#000000; stroke-linecap:round; stroke-linejoin:round; stroke-width:4; stroke-opacity:1; fill:none" points="265.445,584.908 284.342,584.908 "/>
<polyline clip-path="url(#clip670)" style="stroke:#000000; stroke-linecap:round; stroke-linejoin:round; stroke-width:4; stroke-opacity:1; fill:none" points="265.445,335.127 284.342,335.127 "/>
<polyline clip-path="url(#clip670)" style="stroke:#000000; stroke-linecap:round; stroke-linejoin:round; stroke-width:4; stroke-opacity:1; fill:none" points="265.445,85.3453 284.342,85.3453 "/>
<path clip-path="url(#clip670)" d="M117.825 1347.6 L125.464 1347.6 L125.464 1321.23 L117.154 1322.9 L117.154 1318.64 L125.418 1316.97 L130.093 1316.97 L130.093 1347.6 L137.732 1347.6 L137.732 1351.53 L117.825 1351.53 L117.825 1347.6 Z" fill="#000000" fill-rule="nonzero" fill-opacity="1" /><path clip-path="url(#clip670)" d="M157.177 1320.05 Q153.566 1320.05 151.737 1323.62 Q149.931 1327.16 149.931 1334.29 Q149.931 1341.39 151.737 1344.96 Q153.566 1348.5 157.177 1348.5 Q160.811 1348.5 162.616 1344.96 Q164.445 1341.39 164.445 1334.29 Q164.445 1327.16 162.616 1323.62 Q160.811 1320.05 157.177 1320.05 M157.177 1316.35 Q162.987 1316.35 166.042 1320.95 Q169.121 1325.54 169.121 1334.29 Q169.121 1343.01 166.042 1347.62 Q162.987 1352.2 157.177 1352.2 Q151.366 1352.2 148.288 1347.62 Q145.232 1343.01 145.232 1334.29 Q145.232 1325.54 148.288 1320.95 Q151.366 1316.35 157.177 1316.35 Z" fill="#000000" fill-rule="nonzero" fill-opacity="1" /><path clip-path="url(#clip670)" d="M187.338 1320.05 Q183.727 1320.05 181.899 1323.62 Q180.093 1327.16 180.093 1334.29 Q180.093 1341.39 181.899 1344.96 Q183.727 1348.5 187.338 1348.5 Q190.973 1348.5 192.778 1344.96 Q194.607 1341.39 194.607 1334.29 Q194.607 1327.16 192.778 1323.62 Q190.973 1320.05 187.338 1320.05 M187.338 1316.35 Q193.149 1316.35 196.204 1320.95 Q199.283 1325.54 199.283 1334.29 Q199.283 1343.01 196.204 1347.62 Q193.149 1352.2 187.338 1352.2 Q181.528 1352.2 178.45 1347.62 Q175.394 1343.01 175.394 1334.29 Q175.394 1325.54 178.45 1320.95 Q181.528 1316.35 187.338 1316.35 Z" fill="#000000" fill-rule="nonzero" fill-opacity="1" /><path clip-path="url(#clip670)" d="M217.5 1320.05 Q213.889 1320.05 212.061 1323.62 Q210.255 1327.16 210.255 1334.29 Q210.255 1341.39 212.061 1344.96 Q213.889 1348.5 217.5 1348.5 Q221.135 1348.5 222.94 1344.96 Q224.769 1341.39 224.769 1334.29 Q224.769 1327.16 222.94 1323.62 Q221.135 1320.05 217.5 1320.05 M217.5 1316.35 Q223.31 1316.35 226.366 1320.95 Q229.445 1325.54 229.445 1334.29 Q229.445 1343.01 226.366 1347.62 Q223.31 1352.2 217.5 1352.2 Q211.69 1352.2 208.612 1347.62 Q205.556 1343.01 205.556 1334.29 Q205.556 1325.54 208.612 1320.95 Q211.69 1316.35 217.5 1316.35 Z" fill="#000000" fill-rule="nonzero" fill-opacity="1" /><path clip-path="url(#clip670)" d="M121.043 1097.82 L137.362 1097.82 L137.362 1101.75 L115.418 1101.75 L115.418 1097.82 Q118.08 1095.06 122.663 1090.43 Q127.269 1085.78 128.45 1084.44 Q130.695 1081.91 131.575 1080.18 Q132.478 1078.42 132.478 1076.73 Q132.478 1073.97 130.533 1072.24 Q128.612 1070.5 125.51 1070.5 Q123.311 1070.5 120.857 1071.26 Q118.427 1072.03 115.649 1073.58 L115.649 1068.86 Q118.473 1067.72 120.927 1067.14 Q123.38 1066.57 125.418 1066.57 Q130.788 1066.57 133.982 1069.25 Q137.177 1071.94 137.177 1076.43 Q137.177 1078.56 136.367 1080.48 Q135.579 1082.38 133.473 1084.97 Q132.894 1085.64 129.792 1088.86 Q126.691 1092.05 121.043 1097.82 Z" fill="#000000" fill-rule="nonzero" fill-opacity="1" /><path clip-path="url(#clip670)" d="M157.177 1070.27 Q153.566 1070.27 151.737 1073.83 Q149.931 1077.38 149.931 1084.51 Q149.931 1091.61 151.737 1095.18 Q153.566 1098.72 157.177 1098.72 Q160.811 1098.72 162.616 1095.18 Q164.445 1091.61 164.445 1084.51 Q164.445 1077.38 162.616 1073.83 Q160.811 1070.27 157.177 1070.27 M157.177 1066.57 Q162.987 1066.57 166.042 1071.17 Q169.121 1075.76 169.121 1084.51 Q169.121 1093.23 166.042 1097.84 Q162.987 1102.42 157.177 1102.42 Q151.366 1102.42 148.288 1097.84 Q145.232 1093.23 145.232 1084.51 Q145.232 1075.76 148.288 1071.17 Q151.366 1066.57 157.177 1066.57 Z" fill="#000000" fill-rule="nonzero" fill-opacity="1" /><path clip-path="url(#clip670)" d="M187.338 1070.27 Q183.727 1070.27 181.899 1073.83 Q180.093 1077.38 180.093 1084.51 Q180.093 1091.61 181.899 1095.18 Q183.727 1098.72 187.338 1098.72 Q190.973 1098.72 192.778 1095.18 Q194.607 1091.61 194.607 1084.51 Q194.607 1077.38 192.778 1073.83 Q190.973 1070.27 187.338 1070.27 M187.338 1066.57 Q193.149 1066.57 196.204 1071.17 Q199.283 1075.76 199.283 1084.51 Q199.283 1093.23 196.204 1097.84 Q193.149 1102.42 187.338 1102.42 Q181.528 1102.42 178.45 1097.84 Q175.394 1093.23 175.394 1084.51 Q175.394 1075.76 178.45 1071.17 Q181.528 1066.57 187.338 1066.57 Z" fill="#000000" fill-rule="nonzero" fill-opacity="1" /><path clip-path="url(#clip670)" d="M217.5 1070.27 Q213.889 1070.27 212.061 1073.83 Q210.255 1077.38 210.255 1084.51 Q210.255 1091.61 212.061 1095.18 Q213.889 1098.72 217.5 1098.72 Q221.135 1098.72 222.94 1095.18 Q224.769 1091.61 224.769 1084.51 Q224.769 1077.38 222.94 1073.83 Q221.135 1070.27 217.5 1070.27 M217.5 1066.57 Q223.31 1066.57 226.366 1071.17 Q229.445 1075.76 229.445 1084.51 Q229.445 1093.23 226.366 1097.84 Q223.31 1102.42 217.5 1102.42 Q211.69 1102.42 208.612 1097.84 Q205.556 1093.23 205.556 1084.51 Q205.556 1075.76 208.612 1071.17 Q211.69 1066.57 217.5 1066.57 Z" fill="#000000" fill-rule="nonzero" fill-opacity="1" /><path clip-path="url(#clip670)" d="M131.181 833.335 Q134.538 834.053 136.413 836.321 Q138.311 838.59 138.311 841.923 Q138.311 847.039 134.792 849.84 Q131.274 852.641 124.793 852.641 Q122.617 852.641 120.302 852.201 Q118.01 851.784 115.556 850.928 L115.556 846.414 Q117.501 847.548 119.816 848.127 Q122.13 848.706 124.654 848.706 Q129.052 848.706 131.343 846.97 Q133.658 845.233 133.658 841.923 Q133.658 838.868 131.505 837.155 Q129.376 835.419 125.556 835.419 L121.529 835.419 L121.529 831.576 L125.742 831.576 Q129.191 831.576 131.019 830.21 Q132.848 828.821 132.848 826.229 Q132.848 823.567 130.95 822.155 Q129.075 820.72 125.556 820.72 Q123.635 820.72 121.436 821.136 Q119.237 821.553 116.598 822.433 L116.598 818.266 Q119.26 817.525 121.575 817.155 Q123.913 816.785 125.973 816.785 Q131.297 816.785 134.399 819.215 Q137.501 821.622 137.501 825.743 Q137.501 828.613 135.857 830.604 Q134.214 832.571 131.181 833.335 Z" fill="#000000" fill-rule="nonzero" fill-opacity="1" /><path clip-path="url(#clip670)" d="M157.177 820.488 Q153.566 820.488 151.737 824.053 Q149.931 827.595 149.931 834.724 Q149.931 841.831 151.737 845.395 Q153.566 848.937 157.177 848.937 Q160.811 848.937 162.616 845.395 Q164.445 841.831 164.445 834.724 Q164.445 827.595 162.616 824.053 Q160.811 820.488 157.177 820.488 M157.177 816.785 Q162.987 816.785 166.042 821.391 Q169.121 825.974 169.121 834.724 Q169.121 843.451 166.042 848.057 Q162.987 852.641 157.177 852.641 Q151.366 852.641 148.288 848.057 Q145.232 843.451 145.232 834.724 Q145.232 825.974 148.288 821.391 Q151.366 816.785 157.177 816.785 Z" fill="#000000" fill-rule="nonzero" fill-opacity="1" /><path clip-path="url(#clip670)" d="M187.338 820.488 Q183.727 820.488 181.899 824.053 Q180.093 827.595 180.093 834.724 Q180.093 841.831 181.899 845.395 Q183.727 848.937 187.338 848.937 Q190.973 848.937 192.778 845.395 Q194.607 841.831 194.607 834.724 Q194.607 827.595 192.778 824.053 Q190.973 820.488 187.338 820.488 M187.338 816.785 Q193.149 816.785 196.204 821.391 Q199.283 825.974 199.283 834.724 Q199.283 843.451 196.204 848.057 Q193.149 852.641 187.338 852.641 Q181.528 852.641 178.45 848.057 Q175.394 843.451 175.394 834.724 Q175.394 825.974 178.45 821.391 Q181.528 816.785 187.338 816.785 Z" fill="#000000" fill-rule="nonzero" fill-opacity="1" /><path clip-path="url(#clip670)" d="M217.5 820.488 Q213.889 820.488 212.061 824.053 Q210.255 827.595 210.255 834.724 Q210.255 841.831 212.061 845.395 Q213.889 848.937 217.5 848.937 Q221.135 848.937 222.94 845.395 Q224.769 841.831 224.769 834.724 Q224.769 827.595 222.94 824.053 Q221.135 820.488 217.5 820.488 M217.5 816.785 Q223.31 816.785 226.366 821.391 Q229.445 825.974 229.445 834.724 Q229.445 843.451 226.366 848.057 Q223.31 852.641 217.5 852.641 Q211.69 852.641 208.612 848.057 Q205.556 843.451 205.556 834.724 Q205.556 825.974 208.612 821.391 Q211.69 816.785 217.5 816.785 Z" fill="#000000" fill-rule="nonzero" fill-opacity="1" /><path clip-path="url(#clip670)" d="M129.862 571.702 L118.056 590.151 L129.862 590.151 L129.862 571.702 M128.635 567.628 L134.515 567.628 L134.515 590.151 L139.445 590.151 L139.445 594.04 L134.515 594.04 L134.515 602.188 L129.862 602.188 L129.862 594.04 L114.26 594.04 L114.26 589.526 L128.635 567.628 Z" fill="#000000" fill-rule="nonzero" fill-opacity="1" /><path clip-path="url(#clip670)" d="M157.177 570.707 Q153.566 570.707 151.737 574.272 Q149.931 577.813 149.931 584.943 Q149.931 592.049 151.737 595.614 Q153.566 599.156 157.177 599.156 Q160.811 599.156 162.616 595.614 Q164.445 592.049 164.445 584.943 Q164.445 577.813 162.616 574.272 Q160.811 570.707 157.177 570.707 M157.177 567.003 Q162.987 567.003 166.042 571.61 Q169.121 576.193 169.121 584.943 Q169.121 593.67 166.042 598.276 Q162.987 602.859 157.177 602.859 Q151.366 602.859 148.288 598.276 Q145.232 593.67 145.232 584.943 Q145.232 576.193 148.288 571.61 Q151.366 567.003 157.177 567.003 Z" fill="#000000" fill-rule="nonzero" fill-opacity="1" /><path clip-path="url(#clip670)" d="M187.338 570.707 Q183.727 570.707 181.899 574.272 Q180.093 577.813 180.093 584.943 Q180.093 592.049 181.899 595.614 Q183.727 599.156 187.338 599.156 Q190.973 599.156 192.778 595.614 Q194.607 592.049 194.607 584.943 Q194.607 577.813 192.778 574.272 Q190.973 570.707 187.338 570.707 M187.338 567.003 Q193.149 567.003 196.204 571.61 Q199.283 576.193 199.283 584.943 Q199.283 593.67 196.204 598.276 Q193.149 602.859 187.338 602.859 Q181.528 602.859 178.45 598.276 Q175.394 593.67 175.394 584.943 Q175.394 576.193 178.45 571.61 Q181.528 567.003 187.338 567.003 Z" fill="#000000" fill-rule="nonzero" fill-opacity="1" /><path clip-path="url(#clip670)" d="M217.5 570.707 Q213.889 570.707 212.061 574.272 Q210.255 577.813 210.255 584.943 Q210.255 592.049 212.061 595.614 Q213.889 599.156 217.5 599.156 Q221.135 599.156 222.94 595.614 Q224.769 592.049 224.769 584.943 Q224.769 577.813 222.94 574.272 Q221.135 570.707 217.5 570.707 M217.5 567.003 Q223.31 567.003 226.366 571.61 Q229.445 576.193 229.445 584.943 Q229.445 593.67 226.366 598.276 Q223.31 602.859 217.5 602.859 Q211.69 602.859 208.612 598.276 Q205.556 593.67 205.556 584.943 Q205.556 576.193 208.612 571.61 Q211.69 567.003 217.5 567.003 Z" fill="#000000" fill-rule="nonzero" fill-opacity="1" /><path clip-path="url(#clip670)" d="M117.061 317.847 L135.417 317.847 L135.417 321.782 L121.343 321.782 L121.343 330.254 Q122.362 329.907 123.38 329.745 Q124.399 329.56 125.418 329.56 Q131.205 329.56 134.584 332.731 Q137.964 335.902 137.964 341.319 Q137.964 346.898 134.492 349.999 Q131.019 353.078 124.7 353.078 Q122.524 353.078 120.255 352.708 Q118.01 352.337 115.603 351.597 L115.603 346.898 Q117.686 348.032 119.908 348.587 Q122.13 349.143 124.607 349.143 Q128.612 349.143 130.95 347.036 Q133.288 344.93 133.288 341.319 Q133.288 337.708 130.95 335.601 Q128.612 333.495 124.607 333.495 Q122.732 333.495 120.857 333.911 Q119.006 334.328 117.061 335.208 L117.061 317.847 Z" fill="#000000" fill-rule="nonzero" fill-opacity="1" /><path clip-path="url(#clip670)" d="M157.177 320.925 Q153.566 320.925 151.737 324.49 Q149.931 328.032 149.931 335.161 Q149.931 342.268 151.737 345.833 Q153.566 349.374 157.177 349.374 Q160.811 349.374 162.616 345.833 Q164.445 342.268 164.445 335.161 Q164.445 328.032 162.616 324.49 Q160.811 320.925 157.177 320.925 M157.177 317.222 Q162.987 317.222 166.042 321.828 Q169.121 326.412 169.121 335.161 Q169.121 343.888 166.042 348.495 Q162.987 353.078 157.177 353.078 Q151.366 353.078 148.288 348.495 Q145.232 343.888 145.232 335.161 Q145.232 326.412 148.288 321.828 Q151.366 317.222 157.177 317.222 Z" fill="#000000" fill-rule="nonzero" fill-opacity="1" /><path clip-path="url(#clip670)" d="M187.338 320.925 Q183.727 320.925 181.899 324.49 Q180.093 328.032 180.093 335.161 Q180.093 342.268 181.899 345.833 Q183.727 349.374 187.338 349.374 Q190.973 349.374 192.778 345.833 Q194.607 342.268 194.607 335.161 Q194.607 328.032 192.778 324.49 Q190.973 320.925 187.338 320.925 M187.338 317.222 Q193.149 317.222 196.204 321.828 Q199.283 326.412 199.283 335.161 Q199.283 343.888 196.204 348.495 Q193.149 353.078 187.338 353.078 Q181.528 353.078 178.45 348.495 Q175.394 343.888 175.394 335.161 Q175.394 326.412 178.45 321.828 Q181.528 317.222 187.338 317.222 Z" fill="#000000" fill-rule="nonzero" fill-opacity="1" /><path clip-path="url(#clip670)" d="M217.5 320.925 Q213.889 320.925 212.061 324.49 Q210.255 328.032 210.255 335.161 Q210.255 342.268 212.061 345.833 Q213.889 349.374 217.5 349.374 Q221.135 349.374 222.94 345.833 Q224.769 342.268 224.769 335.161 Q224.769 328.032 222.94 324.49 Q221.135 320.925 217.5 320.925 M217.5 317.222 Q223.31 317.222 226.366 321.828 Q229.445 326.412 229.445 335.161 Q229.445 343.888 226.366 348.495 Q223.31 353.078 217.5 353.078 Q211.69 353.078 208.612 348.495 Q205.556 343.888 205.556 335.161 Q205.556 326.412 208.612 321.828 Q211.69 317.222 217.5 317.222 Z" fill="#000000" fill-rule="nonzero" fill-opacity="1" /><path clip-path="url(#clip670)" d="M127.593 83.4819 Q124.445 83.4819 122.593 85.6347 Q120.765 87.7875 120.765 91.5374 Q120.765 95.2643 122.593 97.4402 Q124.445 99.593 127.593 99.593 Q130.742 99.593 132.57 97.4402 Q134.422 95.2643 134.422 91.5374 Q134.422 87.7875 132.57 85.6347 Q130.742 83.4819 127.593 83.4819 M136.876 68.8292 L136.876 73.0885 Q135.117 72.2551 133.311 71.8153 Q131.529 71.3755 129.769 71.3755 Q125.14 71.3755 122.686 74.5005 Q120.255 77.6255 119.908 83.9449 Q121.274 81.931 123.334 80.8662 Q125.394 79.7782 127.871 79.7782 Q133.08 79.7782 136.089 82.9495 Q139.121 86.0977 139.121 91.5374 Q139.121 96.8615 135.973 100.079 Q132.825 103.297 127.593 103.297 Q121.598 103.297 118.427 98.7133 Q115.256 94.1069 115.256 85.3801 Q115.256 77.1857 119.144 72.3246 Q123.033 67.4403 129.584 67.4403 Q131.343 67.4403 133.126 67.7876 Q134.931 68.1348 136.876 68.8292 Z" fill="#000000" fill-rule="nonzero" fill-opacity="1" /><path clip-path="url(#clip670)" d="M157.177 71.144 Q153.566 71.144 151.737 74.7088 Q149.931 78.2505 149.931 85.3801 Q149.931 92.4865 151.737 96.0513 Q153.566 99.593 157.177 99.593 Q160.811 99.593 162.616 96.0513 Q164.445 92.4865 164.445 85.3801 Q164.445 78.2505 162.616 74.7088 Q160.811 71.144 157.177 71.144 M157.177 67.4403 Q162.987 67.4403 166.042 72.0468 Q169.121 76.6301 169.121 85.3801 Q169.121 94.1069 166.042 98.7133 Q162.987 103.297 157.177 103.297 Q151.366 103.297 148.288 98.7133 Q145.232 94.1069 145.232 85.3801 Q145.232 76.6301 148.288 72.0468 Q151.366 67.4403 157.177 67.4403 Z" fill="#000000" fill-rule="nonzero" fill-opacity="1" /><path clip-path="url(#clip670)" d="M187.338 71.144 Q183.727 71.144 181.899 74.7088 Q180.093 78.2505 180.093 85.3801 Q180.093 92.4865 181.899 96.0513 Q183.727 99.593 187.338 99.593 Q190.973 99.593 192.778 96.0513 Q194.607 92.4865 194.607 85.3801 Q194.607 78.2505 192.778 74.7088 Q190.973 71.144 187.338 71.144 M187.338 67.4403 Q193.149 67.4403 196.204 72.0468 Q199.283 76.6301 199.283 85.3801 Q199.283 94.1069 196.204 98.7133 Q193.149 103.297 187.338 103.297 Q181.528 103.297 178.45 98.7133 Q175.394 94.1069 175.394 85.3801 Q175.394 76.6301 178.45 72.0468 Q181.528 67.4403 187.338 67.4403 Z" fill="#000000" fill-rule="nonzero" fill-opacity="1" /><path clip-path="url(#clip670)" d="M217.5 71.144 Q213.889 71.144 212.061 74.7088 Q210.255 78.2505 210.255 85.3801 Q210.255 92.4865 212.061 96.0513 Q213.889 99.593 217.5 99.593 Q221.135 99.593 222.94 96.0513 Q224.769 92.4865 224.769 85.3801 Q224.769 78.2505 222.94 74.7088 Q221.135 71.144 217.5 71.144 M217.5 67.4403 Q223.31 67.4403 226.366 72.0468 Q229.445 76.6301 229.445 85.3801 Q229.445 94.1069 226.366 98.7133 Q223.31 103.297 217.5 103.297 Q211.69 103.297 208.612 98.7133 Q205.556 94.1069 205.556 85.3801 Q205.556 76.6301 208.612 72.0468 Q211.69 67.4403 217.5 67.4403 Z" fill="#000000" fill-rule="nonzero" fill-opacity="1" /><path clip-path="url(#clip670)" d="M14.479 1067.82 L14.479 1061.96 L64.0042 1061.96 L64.0042 1067.82 L14.479 1067.82 Z" fill="#000000" fill-rule="nonzero" fill-opacity="1" /><path clip-path="url(#clip670)" d="M14.5426 1014.92 Q21.8632 1019.19 29.0246 1021.25 Q36.186 1023.32 43.5384 1023.32 Q50.8908 1023.32 58.1159 1021.25 Q65.3091 1019.15 72.5979 1014.92 L72.5979 1020.01 Q65.1182 1024.79 57.8931 1027.18 Q50.668 1029.53 43.5384 1029.53 Q36.4406 1029.53 29.2474 1027.18 Q22.0542 1024.82 14.5426 1020.01 L14.5426 1014.92 Z" fill="#000000" fill-rule="nonzero" fill-opacity="1" /><path clip-path="url(#clip670)" d="M14.479 1003.56 L14.479 997.702 L64.0042 997.702 L64.0042 1003.56 L14.479 1003.56 Z" fill="#000000" fill-rule="nonzero" fill-opacity="1" /><path clip-path="url(#clip670)" d="M23.1363 961.608 L40.8648 961.608 L40.8648 943.88 L46.2757 943.88 L46.2757 961.608 L64.0042 961.608 L64.0042 966.956 L46.2757 966.956 L46.2757 984.684 L40.8648 984.684 L40.8648 966.956 L23.1363 966.956 L23.1363 961.608 Z" fill="#000000" fill-rule="nonzero" fill-opacity="1" /><path clip-path="url(#clip670)" d="M58.5933 928.889 L58.5933 918.385 L22.3406 918.385 L24.6323 929.812 L18.7758 929.812 L16.4842 918.449 L16.4842 912.019 L58.5933 912.019 L58.5933 901.516 L64.0042 901.516 L64.0042 928.889 L58.5933 928.889 Z" fill="#000000" fill-rule="nonzero" fill-opacity="1" /><path clip-path="url(#clip670)" d="M14.5426 890.281 L14.5426 885.188 Q22.0542 880.414 29.2474 878.058 Q36.4406 875.671 43.5384 875.671 Q50.668 875.671 57.8931 878.058 Q65.1182 880.414 72.5979 885.188 L72.5979 890.281 Q65.3091 886.047 58.1159 883.979 Q50.8908 881.878 43.5384 881.878 Q36.186 881.878 29.0246 883.979 Q21.8632 886.047 14.5426 890.281 Z" fill="#000000" fill-rule="nonzero" fill-opacity="1" /><path clip-path="url(#clip670)" d="M20.1444 807.367 L26.9239 807.367 Q23.9002 810.614 22.4043 814.306 Q20.9083 817.966 20.9083 822.104 Q20.9083 830.252 25.9054 834.581 Q30.8707 838.909 40.2919 838.909 Q49.6813 838.909 54.6784 834.581 Q59.6436 830.252 59.6436 822.104 Q59.6436 817.966 58.1477 814.306 Q56.6518 810.614 53.6281 807.367 L60.3439 807.367 Q62.6355 810.741 63.7814 814.529 Q64.9272 818.284 64.9272 822.486 Q64.9272 833.276 58.3387 839.482 Q51.7183 845.689 40.2919 845.689 Q28.8336 845.689 22.2451 839.482 Q15.6248 833.276 15.6248 822.486 Q15.6248 818.221 16.7706 814.465 Q17.8846 810.677 20.1444 807.367 Z" fill="#000000" fill-rule="nonzero" fill-opacity="1" /><path clip-path="url(#clip670)" d="M36.2815 799.951 L36.2815 796.259 L64.0042 796.259 L64.0042 799.951 L36.2815 799.951 Z" fill="#000000" fill-rule="nonzero" fill-opacity="1" /><path clip-path="url(#clip670)" d="M16.4842 755.741 L16.4842 750.331 L70.0516 766.881 L70.0516 772.292 L16.4842 755.741 Z" fill="#000000" fill-rule="nonzero" fill-opacity="1" /><path clip-path="url(#clip670)" d="M58.5933 717.102 L58.5933 694.662 L64.0042 694.662 L64.0042 724.836 L58.5933 724.836 Q54.8057 721.176 48.44 714.874 Q42.0425 708.54 40.1964 706.916 Q36.7271 703.829 34.34 702.62 Q31.921 701.378 29.5975 701.378 Q25.8099 701.378 23.4228 704.052 Q21.0356 706.694 21.0356 710.959 Q21.0356 713.982 22.086 717.356 Q23.1363 720.698 25.2688 724.518 L18.7758 724.518 Q17.2162 720.635 16.4205 717.261 Q15.6248 713.887 15.6248 711.086 Q15.6248 703.702 19.3169 699.309 Q23.009 694.917 29.1837 694.917 Q32.112 694.917 34.7537 696.031 Q37.3637 697.113 40.9285 700.01 Q41.8515 700.805 46.2757 705.07 Q50.668 709.335 58.5933 717.102 Z" fill="#000000" fill-rule="nonzero" fill-opacity="1" /><path clip-path="url(#clip670)" d="M28.3562 685.782 L28.3562 651.63 L34.2127 651.63 L34.2127 656.118 L56.1107 656.118 Q58.4023 656.118 59.4208 655.354 Q60.4075 654.558 60.4075 652.808 Q60.4075 652.33 60.3439 651.63 Q60.2484 650.93 60.2166 650.707 L64.4498 650.707 Q64.8635 651.821 65.0545 652.999 Q65.2455 654.177 65.2455 655.354 Q65.2455 659.174 63.1766 660.638 Q61.0759 662.102 55.4741 662.102 L34.2127 662.102 L34.2127 675.247 L64.0042 675.247 L64.0042 681.231 L34.2127 681.231 L34.2127 685.782 L28.3562 685.782 Z" fill="#000000" fill-rule="nonzero" fill-opacity="1" /><path clip-path="url(#clip670)" d="M14.5426 607.961 Q21.8632 612.227 29.0246 614.295 Q36.186 616.364 43.5384 616.364 Q50.8908 616.364 58.1159 614.295 Q65.3091 612.195 72.5979 607.961 L72.5979 613.054 Q65.1182 617.828 57.8931 620.215 Q50.668 622.571 43.5384 622.571 Q36.4406 622.571 29.2474 620.215 Q22.0542 617.86 14.5426 613.054 L14.5426 607.961 Z" fill="#000000" fill-rule="nonzero" fill-opacity="1" /><path clip-path="url(#clip670)" d="M77.5631 597.203 L28.3562 597.203 L28.3562 591.347 L50.5089 591.347 Q55.124 591.347 57.4793 589.151 Q59.8346 586.955 59.8346 582.658 Q59.8346 577.947 57.161 575.592 Q54.4874 573.205 49.1402 573.205 L28.3562 573.205 L28.3562 567.348 L55.7924 567.348 Q57.7021 567.348 58.6251 566.807 Q59.5163 566.234 59.5163 565.057 Q59.5163 564.77 59.3572 564.261 Q59.1662 563.752 58.7843 562.86 L63.4949 562.86 Q64.227 564.165 64.5771 565.343 Q64.9272 566.489 64.9272 567.603 Q64.9272 569.799 63.6859 571.104 Q62.4446 572.409 59.8983 572.886 Q62.4127 574.478 63.6859 576.801 Q64.9272 579.093 64.9272 582.212 Q64.9272 585.459 63.6859 587.75 Q62.4446 590.01 59.9619 591.347 L77.5631 591.347 L77.5631 597.203 Z" fill="#000000" fill-rule="nonzero" fill-opacity="1" /><path clip-path="url(#clip670)" d="M16.4842 554.871 L16.4842 548.442 L36.568 548.442 L16.4842 527.117 L16.4842 518.842 L38.6368 542.427 L64.0042 517.155 L64.0042 525.621 L41.1194 548.442 L64.0042 548.442 L64.0042 554.871 L16.4842 554.871 Z" fill="#000000" fill-rule="nonzero" fill-opacity="1" /><path clip-path="url(#clip670)" d="M16.4842 488.095 L34.2127 470.812 L34.2127 477.21 L21.6404 491.214 L34.2127 505.219 L34.2127 511.617 L16.4842 494.334 L16.4842 488.095 Z" fill="#000000" fill-rule="nonzero" fill-opacity="1" /><path clip-path="url(#clip670)" d="M58.5933 451.397 L58.5933 428.958 L64.0042 428.958 L64.0042 459.131 L58.5933 459.131 Q54.8057 455.471 48.44 449.169 Q42.0425 442.835 40.1964 441.212 Q36.7271 438.124 34.34 436.915 Q31.921 435.674 29.5975 435.674 Q25.8099 435.674 23.4228 438.347 Q21.0356 440.989 21.0356 445.254 Q21.0356 448.278 22.086 451.652 Q23.1363 454.994 25.2688 458.813 L18.7758 458.813 Q17.2162 454.93 16.4205 451.556 Q15.6248 448.182 15.6248 445.381 Q15.6248 437.997 19.3169 433.605 Q23.009 429.212 29.1837 429.212 Q32.112 429.212 34.7537 430.326 Q37.3637 431.409 40.9285 434.305 Q41.8515 435.101 46.2757 439.366 Q50.668 443.631 58.5933 451.397 Z" fill="#000000" fill-rule="nonzero" fill-opacity="1" /><path clip-path="url(#clip670)" d="M14.5426 417.213 L14.5426 412.121 Q22.0542 407.346 29.2474 404.991 Q36.4406 402.604 43.5384 402.604 Q50.668 402.604 57.8931 404.991 Q65.1182 407.346 72.5979 412.121 L72.5979 417.213 Q65.3091 412.98 58.1159 410.911 Q50.8908 408.81 43.5384 408.81 Q36.186 408.81 29.0246 410.911 Q21.8632 412.98 14.5426 417.213 Z" fill="#000000" fill-rule="nonzero" fill-opacity="1" /><polyline clip-path="url(#clip671)" style="stroke:#009af9; stroke-linecap:round; stroke-linejoin:round; stroke-width:4; stroke-opacity:1; fill:none" points="324.52,1384.24 344.41,1363.43 364.301,1326.19 384.191,1281.38 404.082,1231.19 423.972,1175.71 443.863,1115.04 463.753,1048.95 483.644,977.752 503.534,901.704 523.425,821.146 543.315,737.318 563.206,651.537 583.096,565.629 602.987,480.962 622.877,399.826 642.768,324.47 662.658,256.556 682.549,198.057 702.439,150.658 722.33,115.403 742.22,93.8199 762.111,86.1857 782.002,92.8952 801.892,113.655 821.783,147.783 841.673,194.622 861.564,252.531 881.454,319.971 901.345,394.997 921.235,475.57 941.126,559.507 961.016,644.667 980.907,728.827 1000.8,810.056 1020.69,886.372 1040.58,956.219 1060.47,1018.27 1080.36,1071.4 1100.25,1115.04 1120.14,1148.84 1140.03,1172.67 1159.92,1186.99 1179.81,1192.33 1199.7,1189.64 1219.59,1180 1239.48,1164.61 1259.37,1144.98 1279.26,1122.44 1299.16,1098.46 1319.05,1074.45 1338.94,1051.61 1358.83,1031.19 1378.72,1014.04 1398.61,1000.96 1418.5,992.503 1438.39,988.867 1458.28,990.192 1478.17,996.242 1498.06,1006.68 1517.95,1021.02 1537.84,1038.44 1557.73,1058.2 1577.62,1079.39 1597.51,1101.04 1617.4,1122.3 1637.29,1142.21 1657.18,1160.06 1677.07,1175.1 1696.97,1186.73 1716.86,1194.67 1736.75,1198.55 1756.64,1198.39 1776.53,1194.26 1796.42,1186.39 1816.31,1175.24 1836.2,1161.33 1856.09,1145.28 1875.98,1127.86 1895.87,1109.77 1915.76,1091.84 1935.65,1074.88 1955.54,1059.53 1975.43,1046.58 1995.32,1036.48 2015.21,1029.83 2035.1,1026.91 2054.99,1027.94 2074.89,1033.05 2094.78,1042.17 2114.67,1055.07 2134.56,1071.49 2154.45,1090.96 2174.34,1113.04 2194.23,1137.15 2214.12,1162.6 2234.01,1188.8 2253.9,1215.08 2273.79,1240.82 2293.68,1265.44 "/>
</svg>
