<?xml version="1.0" encoding="utf-8"?>
<svg xmlns="http://www.w3.org/2000/svg" xmlns:xlink="http://www.w3.org/1999/xlink" width="600" height="400" viewBox="0 0 2400 1600">
<defs>
  <clipPath id="clip360">
    <rect x="0" y="0" width="2400" height="1600"/>
  </clipPath>
</defs>
<path clip-path="url(#clip360)" d="M0 1600 L2400 1600 L2400 0 L0 0  Z" fill="#ffffff" fill-rule="evenodd" fill-opacity="1"/>
<defs>
  <clipPath id="clip361">
    <rect x="480" y="0" width="1681" height="1600"/>
  </clipPath>
</defs>
<path clip-path="url(#clip360)" d="M212.459 1423.18 L2352.76 1423.18 L2352.76 47.2441 L212.459 47.2441  Z" fill="#ffffff" fill-rule="evenodd" fill-opacity="1"/>
<defs>
  <clipPath id="clip362">
    <rect x="212" y="47" width="2141" height="1377"/>
  </clipPath>
</defs>
<polyline clip-path="url(#clip362)" style="stroke:#000000; stroke-linecap:round; stroke-linejoin:round; stroke-width:2; stroke-opacity:0.1; fill:none" points="273.033,1423.18 273.033,47.2441 "/>
<polyline clip-path="url(#clip362)" style="stroke:#000000; stroke-linecap:round; stroke-linejoin:round; stroke-width:2; stroke-opacity:0.1; fill:none" points="946.083,1423.18 946.083,47.2441 "/>
<polyline clip-path="url(#clip362)" style="stroke:#000000; stroke-linecap:round; stroke-linejoin:round; stroke-width:2; stroke-opacity:0.1; fill:none" points="1619.13,1423.18 1619.13,47.2441 "/>
<polyline clip-path="url(#clip362)" style="stroke:#000000; stroke-linecap:round; stroke-linejoin:round; stroke-width:2; stroke-opacity:0.1; fill:none" points="2292.18,1423.18 2292.18,47.2441 "/>
<polyline clip-path="url(#clip362)" style="stroke:#000000; stroke-linecap:round; stroke-linejoin:round; stroke-width:2; stroke-opacity:0.1; fill:none" points="212.459,1355.91 2352.76,1355.91 "/>
<polyline clip-path="url(#clip362)" style="stroke:#000000; stroke-linecap:round; stroke-linejoin:round; stroke-width:2; stroke-opacity:0.1; fill:none" points="212.459,1073.75 2352.76,1073.75 "/>
<polyline clip-path="url(#clip362)" style="stroke:#000000; stroke-linecap:round; stroke-linejoin:round; stroke-width:2; stroke-opacity:0.1; fill:none" points="212.459,791.586 2352.76,791.586 "/>
<polyline clip-path="url(#clip362)" style="stroke:#000000; stroke-linecap:round; stroke-linejoin:round; stroke-width:2; stroke-opacity:0.1; fill:none" points="212.459,509.426 2352.76,509.426 "/>
<polyline clip-path="url(#clip362)" style="stroke:#000000; stroke-linecap:round; stroke-linejoin:round; stroke-width:2; stroke-opacity:0.1; fill:none" points="212.459,227.266 2352.76,227.266 "/>
<polyline clip-path="url(#clip360)" style="stroke:#000000; stroke-linecap:round; stroke-linejoin:round; stroke-width:4; stroke-opacity:1; fill:none" points="212.459,1423.18 2352.76,1423.18 "/>
<polyline clip-path="url(#clip360)" style="stroke:#000000; stroke-linecap:round; stroke-linejoin:round; stroke-width:4; stroke-opacity:1; fill:none" points="273.033,1423.18 273.033,1404.28 "/>
<polyline clip-path="url(#clip360)" style="stroke:#000000; stroke-linecap:round; stroke-linejoin:round; stroke-width:4; stroke-opacity:1; fill:none" points="946.083,1423.18 946.083,1404.28 "/>
<polyline clip-path="url(#clip360)" style="stroke:#000000; stroke-linecap:round; stroke-linejoin:round; stroke-width:4; stroke-opacity:1; fill:none" points="1619.13,1423.18 1619.13,1404.28 "/>
<polyline clip-path="url(#clip360)" style="stroke:#000000; stroke-linecap:round; stroke-linejoin:round; stroke-width:4; stroke-opacity:1; fill:none" points="2292.18,1423.18 2292.18,1404.28 "/>
<path clip-path="url(#clip360)" d="M242.501 1468.75 L272.177 1468.75 L272.177 1472.69 L242.501 1472.69 L242.501 1468.75 Z" fill="#000000" fill-rule="nonzero" fill-opacity="1" /><path clip-path="url(#clip360)" d="M296.436 1466.95 Q299.792 1467.66 301.667 1469.93 Q303.566 1472.2 303.566 1475.53 Q303.566 1480.65 300.047 1483.45 Q296.529 1486.25 290.047 1486.25 Q287.871 1486.25 285.556 1485.81 Q283.265 1485.39 280.811 1484.54 L280.811 1480.02 Q282.756 1481.16 285.07 1481.74 Q287.385 1482.32 289.908 1482.32 Q294.306 1482.32 296.598 1480.58 Q298.913 1478.84 298.913 1475.53 Q298.913 1472.48 296.76 1470.77 Q294.63 1469.03 290.811 1469.03 L286.783 1469.03 L286.783 1465.19 L290.996 1465.19 Q294.445 1465.19 296.274 1463.82 Q298.103 1462.43 298.103 1459.84 Q298.103 1457.18 296.205 1455.77 Q294.33 1454.33 290.811 1454.33 Q288.89 1454.33 286.691 1454.75 Q284.492 1455.16 281.853 1456.04 L281.853 1451.88 Q284.515 1451.14 286.83 1450.77 Q289.168 1450.39 291.228 1450.39 Q296.552 1450.39 299.654 1452.83 Q302.755 1455.23 302.755 1459.35 Q302.755 1462.22 301.112 1464.21 Q299.468 1466.18 296.436 1466.95 Z" fill="#000000" fill-rule="nonzero" fill-opacity="1" /><path clip-path="url(#clip360)" d="M916.025 1468.75 L945.701 1468.75 L945.701 1472.69 L916.025 1472.69 L916.025 1468.75 Z" fill="#000000" fill-rule="nonzero" fill-opacity="1" /><path clip-path="url(#clip360)" d="M959.821 1481.64 L976.14 1481.64 L976.14 1485.58 L954.196 1485.58 L954.196 1481.64 Q956.858 1478.89 961.441 1474.26 Q966.048 1469.61 967.228 1468.27 Q969.474 1465.74 970.353 1464.01 Q971.256 1462.25 971.256 1460.56 Q971.256 1457.8 969.312 1456.07 Q967.39 1454.33 964.289 1454.33 Q962.09 1454.33 959.636 1455.09 Q957.205 1455.86 954.428 1457.41 L954.428 1452.69 Q957.252 1451.55 959.705 1450.97 Q962.159 1450.39 964.196 1450.39 Q969.566 1450.39 972.761 1453.08 Q975.955 1455.77 975.955 1460.26 Q975.955 1462.39 975.145 1464.31 Q974.358 1466.2 972.252 1468.8 Q971.673 1469.47 968.571 1472.69 Q965.469 1475.88 959.821 1481.64 Z" fill="#000000" fill-rule="nonzero" fill-opacity="1" /><path clip-path="url(#clip360)" d="M1588.89 1468.75 L1618.56 1468.75 L1618.56 1472.69 L1588.89 1472.69 L1588.89 1468.75 Z" fill="#000000" fill-rule="nonzero" fill-opacity="1" /><path clip-path="url(#clip360)" d="M1629.47 1481.64 L1637.11 1481.64 L1637.11 1455.28 L1628.8 1456.95 L1628.8 1452.69 L1637.06 1451.02 L1641.74 1451.02 L1641.74 1481.64 L1649.37 1481.64 L1649.37 1485.58 L1629.47 1485.58 L1629.47 1481.64 Z" fill="#000000" fill-rule="nonzero" fill-opacity="1" /><path clip-path="url(#clip360)" d="M2292.18 1454.1 Q2288.57 1454.1 2286.74 1457.66 Q2284.94 1461.2 2284.94 1468.33 Q2284.94 1475.44 2286.74 1479.01 Q2288.57 1482.55 2292.18 1482.55 Q2295.82 1482.55 2297.62 1479.01 Q2299.45 1475.44 2299.45 1468.33 Q2299.45 1461.2 2297.62 1457.66 Q2295.82 1454.1 2292.18 1454.1 M2292.18 1450.39 Q2297.99 1450.39 2301.05 1455 Q2304.13 1459.58 2304.13 1468.33 Q2304.13 1477.06 2301.05 1481.67 Q2297.99 1486.25 2292.18 1486.25 Q2286.37 1486.25 2283.29 1481.67 Q2280.24 1477.06 2280.24 1468.33 Q2280.24 1459.58 2283.29 1455 Q2286.37 1450.39 2292.18 1450.39 Z" fill="#000000" fill-rule="nonzero" fill-opacity="1" /><path clip-path="url(#clip360)" d="M1106.45 1518.52 L1112.31 1518.52 L1112.31 1568.04 L1106.45 1568.04 L1106.45 1518.52 Z" fill="#000000" fill-rule="nonzero" fill-opacity="1" /><path clip-path="url(#clip360)" d="M1148.02 1549.81 Q1148.02 1543.44 1145.38 1539.94 Q1142.77 1536.44 1138.03 1536.44 Q1133.32 1536.44 1130.67 1539.94 Q1128.06 1543.44 1128.06 1549.81 Q1128.06 1556.14 1130.67 1559.64 Q1133.32 1563.14 1138.03 1563.14 Q1142.77 1563.14 1145.38 1559.64 Q1148.02 1556.14 1148.02 1549.81 M1153.88 1563.62 Q1153.88 1572.72 1149.83 1577.15 Q1145.79 1581.6 1137.45 1581.6 Q1134.37 1581.6 1131.63 1581.13 Q1128.89 1580.68 1126.31 1579.72 L1126.31 1574.03 Q1128.89 1575.43 1131.41 1576.1 Q1133.92 1576.76 1136.53 1576.76 Q1142.29 1576.76 1145.16 1573.74 Q1148.02 1570.75 1148.02 1564.67 L1148.02 1561.77 Q1146.21 1564.92 1143.37 1566.48 Q1140.54 1568.04 1136.59 1568.04 Q1130.04 1568.04 1126.03 1563.05 Q1122.02 1558.05 1122.02 1549.81 Q1122.02 1541.53 1126.03 1536.53 Q1130.04 1531.54 1136.59 1531.54 Q1140.54 1531.54 1143.37 1533.1 Q1146.21 1534.66 1148.02 1537.81 L1148.02 1532.4 L1153.88 1532.4 L1153.88 1563.62 Z" fill="#000000" fill-rule="nonzero" fill-opacity="1" /><path clip-path="url(#clip360)" d="M1180.01 1518.58 Q1175.74 1525.9 1173.67 1533.06 Q1171.61 1540.23 1171.61 1547.58 Q1171.61 1554.93 1173.67 1562.16 Q1175.77 1569.35 1180.01 1576.64 L1174.92 1576.64 Q1170.14 1569.16 1167.75 1561.93 Q1165.4 1554.71 1165.4 1547.58 Q1165.4 1540.48 1167.75 1533.29 Q1170.11 1526.09 1174.92 1518.58 L1180.01 1518.58 Z" fill="#000000" fill-rule="nonzero" fill-opacity="1" /><path clip-path="url(#clip360)" d="M1191.15 1518.52 L1197.04 1518.52 L1197.04 1547.77 L1214.51 1532.4 L1221.99 1532.4 L1203.08 1549.07 L1222.79 1568.04 L1215.15 1568.04 L1197.04 1550.63 L1197.04 1568.04 L1191.15 1568.04 L1191.15 1518.52 Z" fill="#000000" fill-rule="nonzero" fill-opacity="1" /><path clip-path="url(#clip360)" d="M1239.53 1520.52 L1244.94 1520.52 L1228.39 1574.09 L1222.98 1574.09 L1239.53 1520.52 Z" fill="#000000" fill-rule="nonzero" fill-opacity="1" /><path clip-path="url(#clip360)" d="M1251.34 1520.52 L1260.92 1520.52 L1273.04 1552.86 L1285.23 1520.52 L1294.81 1520.52 L1294.81 1568.04 L1288.54 1568.04 L1288.54 1526.32 L1276.29 1558.91 L1269.83 1558.91 L1257.57 1526.32 L1257.57 1568.04 L1251.34 1568.04 L1251.34 1520.52 Z" fill="#000000" fill-rule="nonzero" fill-opacity="1" /><path clip-path="url(#clip360)" d="M1312.99 1562.7 L1312.99 1581.6 L1307.1 1581.6 L1307.1 1532.4 L1312.99 1532.4 L1312.99 1537.81 Q1314.83 1534.62 1317.63 1533.1 Q1320.47 1531.54 1324.38 1531.54 Q1330.88 1531.54 1334.92 1536.69 Q1338.99 1541.85 1338.99 1550.25 Q1338.99 1558.65 1334.92 1563.81 Q1330.88 1568.97 1324.38 1568.97 Q1320.47 1568.97 1317.63 1567.44 Q1314.83 1565.88 1312.99 1562.7 M1332.91 1550.25 Q1332.91 1543.79 1330.24 1540.13 Q1327.6 1536.44 1322.95 1536.44 Q1318.3 1536.44 1315.63 1540.13 Q1312.99 1543.79 1312.99 1550.25 Q1312.99 1556.71 1315.63 1560.4 Q1318.3 1564.07 1322.95 1564.07 Q1327.6 1564.07 1330.24 1560.4 Q1332.91 1556.71 1332.91 1550.25 Z" fill="#000000" fill-rule="nonzero" fill-opacity="1" /><path clip-path="url(#clip360)" d="M1374.35 1533.76 L1374.35 1539.24 Q1371.87 1537.87 1369.36 1537.2 Q1366.87 1536.5 1364.33 1536.5 Q1358.63 1536.5 1355.48 1540.13 Q1352.33 1543.73 1352.33 1550.25 Q1352.33 1556.78 1355.48 1560.4 Q1358.63 1564 1364.33 1564 Q1366.87 1564 1369.36 1563.33 Q1371.87 1562.63 1374.35 1561.26 L1374.35 1566.68 Q1371.9 1567.82 1369.26 1568.39 Q1366.65 1568.97 1363.69 1568.97 Q1355.64 1568.97 1350.9 1563.91 Q1346.15 1558.85 1346.15 1550.25 Q1346.15 1541.53 1350.93 1536.53 Q1355.73 1531.54 1364.07 1531.54 Q1366.78 1531.54 1369.36 1532.11 Q1371.93 1532.65 1374.35 1533.76 Z" fill="#000000" fill-rule="nonzero" fill-opacity="1" /><path clip-path="url(#clip360)" d="M1382.76 1533.83 L1408.44 1533.83 L1408.44 1536.85 L1382.76 1536.85 L1382.76 1533.83 Z" fill="#000000" fill-rule="nonzero" fill-opacity="1" /><path clip-path="url(#clip360)" d="M1417.77 1543.28 L1424.26 1543.28 L1424.26 1523.83 L1417.16 1525.14 L1417.16 1521.45 L1424.48 1520.21 L1428.84 1520.21 L1428.84 1543.28 L1435.37 1543.28 L1435.37 1546.78 L1417.77 1546.78 L1417.77 1543.28 Z" fill="#000000" fill-rule="nonzero" fill-opacity="1" /><path clip-path="url(#clip360)" d="M1444.15 1518.58 L1449.25 1518.58 Q1454.02 1526.09 1456.38 1533.29 Q1458.76 1540.48 1458.76 1547.58 Q1458.76 1554.71 1456.38 1561.93 Q1454.02 1569.16 1449.25 1576.64 L1444.15 1576.64 Q1448.39 1569.35 1450.46 1562.16 Q1452.56 1554.93 1452.56 1547.58 Q1452.56 1540.23 1450.46 1533.06 Q1448.39 1525.9 1444.15 1518.58 Z" fill="#000000" fill-rule="nonzero" fill-opacity="1" /><polyline clip-path="url(#clip360)" style="stroke:#000000; stroke-linecap:round; stroke-linejoin:round; stroke-width:4; stroke-opacity:1; fill:none" points="212.459,1423.18 212.459,47.2441 "/>
<polyline clip-path="url(#clip360)" style="stroke:#000000; stroke-linecap:round; stroke-linejoin:round; stroke-width:4; stroke-opacity:1; fill:none" points="212.459,1355.91 231.357,1355.91 "/>
<polyline clip-path="url(#clip360)" style="stroke:#000000; stroke-linecap:round; stroke-linejoin:round; stroke-width:4; stroke-opacity:1; fill:none" points="212.459,1073.75 231.357,1073.75 "/>
<polyline clip-path="url(#clip360)" style="stroke:#000000; stroke-linecap:round; stroke-linejoin:round; stroke-width:4; stroke-opacity:1; fill:none" points="212.459,791.586 231.357,791.586 "/>
<polyline clip-path="url(#clip360)" style="stroke:#000000; stroke-linecap:round; stroke-linejoin:round; stroke-width:4; stroke-opacity:1; fill:none" points="212.459,509.426 231.357,509.426 "/>
<polyline clip-path="url(#clip360)" style="stroke:#000000; stroke-linecap:round; stroke-linejoin:round; stroke-width:4; stroke-opacity:1; fill:none" points="212.459,227.266 231.357,227.266 "/>
<path clip-path="url(#clip360)" d="M114.584 1356.36 L144.26 1356.36 L144.26 1360.29 L114.584 1360.29 L114.584 1356.36 Z" fill="#000000" fill-rule="nonzero" fill-opacity="1" /><path clip-path="url(#clip360)" d="M164.931 1354.04 Q161.783 1354.04 159.931 1356.2 Q158.103 1358.35 158.103 1362.1 Q158.103 1365.82 159.931 1368 Q161.783 1370.15 164.931 1370.15 Q168.079 1370.15 169.908 1368 Q171.76 1365.82 171.76 1362.1 Q171.76 1358.35 169.908 1356.2 Q168.079 1354.04 164.931 1354.04 M174.214 1339.39 L174.214 1343.65 Q172.454 1342.82 170.649 1342.38 Q168.866 1341.94 167.107 1341.94 Q162.477 1341.94 160.024 1345.06 Q157.593 1348.19 157.246 1354.51 Q158.612 1352.49 160.672 1351.43 Q162.732 1350.34 165.209 1350.34 Q170.417 1350.34 173.427 1353.51 Q176.459 1356.66 176.459 1362.1 Q176.459 1367.42 173.311 1370.64 Q170.163 1373.86 164.931 1373.86 Q158.936 1373.86 155.765 1369.27 Q152.593 1364.67 152.593 1355.94 Q152.593 1347.75 156.482 1342.89 Q160.371 1338 166.922 1338 Q168.681 1338 170.464 1338.35 Q172.269 1338.7 174.214 1339.39 Z" fill="#000000" fill-rule="nonzero" fill-opacity="1" /><path clip-path="url(#clip360)" d="M114.26 1074.2 L143.936 1074.2 L143.936 1078.13 L114.26 1078.13 L114.26 1074.2 Z" fill="#000000" fill-rule="nonzero" fill-opacity="1" /><path clip-path="url(#clip360)" d="M166.876 1060.54 L155.07 1078.99 L166.876 1078.99 L166.876 1060.54 M165.649 1056.47 L171.528 1056.47 L171.528 1078.99 L176.459 1078.99 L176.459 1082.88 L171.528 1082.88 L171.528 1091.03 L166.876 1091.03 L166.876 1082.88 L151.274 1082.88 L151.274 1078.36 L165.649 1056.47 Z" fill="#000000" fill-rule="nonzero" fill-opacity="1" /><path clip-path="url(#clip360)" d="M116.343 792.037 L146.019 792.037 L146.019 795.972 L116.343 795.972 L116.343 792.037 Z" fill="#000000" fill-rule="nonzero" fill-opacity="1" /><path clip-path="url(#clip360)" d="M160.14 804.931 L176.459 804.931 L176.459 808.866 L154.515 808.866 L154.515 804.931 Q157.177 802.176 161.76 797.546 Q166.366 792.894 167.547 791.551 Q169.792 789.028 170.672 787.292 Q171.575 785.533 171.575 783.843 Q171.575 781.088 169.63 779.352 Q167.709 777.616 164.607 777.616 Q162.408 777.616 159.954 778.38 Q157.524 779.144 154.746 780.695 L154.746 775.972 Q157.57 774.838 160.024 774.26 Q162.477 773.681 164.515 773.681 Q169.885 773.681 173.079 776.366 Q176.274 779.051 176.274 783.542 Q176.274 785.672 175.464 787.593 Q174.677 789.491 172.57 792.084 Q171.991 792.755 168.889 795.972 Q165.788 799.167 160.14 804.931 Z" fill="#000000" fill-rule="nonzero" fill-opacity="1" /><path clip-path="url(#clip360)" d="M164.515 495.224 Q160.903 495.224 159.075 498.789 Q157.269 502.331 157.269 509.46 Q157.269 516.567 159.075 520.132 Q160.903 523.673 164.515 523.673 Q168.149 523.673 169.954 520.132 Q171.783 516.567 171.783 509.46 Q171.783 502.331 169.954 498.789 Q168.149 495.224 164.515 495.224 M164.515 491.521 Q170.325 491.521 173.38 496.127 Q176.459 500.711 176.459 509.46 Q176.459 518.187 173.38 522.794 Q170.325 527.377 164.515 527.377 Q158.704 527.377 155.626 522.794 Q152.57 518.187 152.57 509.46 Q152.57 500.711 155.626 496.127 Q158.704 491.521 164.515 491.521 Z" fill="#000000" fill-rule="nonzero" fill-opacity="1" /><path clip-path="url(#clip360)" d="M160.14 240.611 L176.459 240.611 L176.459 244.546 L154.515 244.546 L154.515 240.611 Q157.177 237.856 161.76 233.226 Q166.366 228.574 167.547 227.231 Q169.792 224.708 170.672 222.972 Q171.575 221.212 171.575 219.523 Q171.575 216.768 169.63 215.032 Q167.709 213.296 164.607 213.296 Q162.408 213.296 159.954 214.06 Q157.524 214.824 154.746 216.375 L154.746 211.652 Q157.57 210.518 160.024 209.939 Q162.477 209.361 164.515 209.361 Q169.885 209.361 173.079 212.046 Q176.274 214.731 176.274 219.222 Q176.274 221.351 175.464 223.273 Q174.677 225.171 172.57 227.763 Q171.991 228.435 168.889 231.652 Q165.788 234.847 160.14 240.611 Z" fill="#000000" fill-rule="nonzero" fill-opacity="1" /><path clip-path="url(#clip360)" d="M64.9272 961.911 Q64.9272 966.399 62.2218 969.327 Q59.0071 972.796 53.1825 972.796 Q47.135 972.796 42.4244 969.741 Q37.5865 966.589 37.5865 960.924 Q37.5865 957.2 39.91 954.272 Q41.2786 952.553 43.5702 951.375 Q40.9921 950.962 38.0639 950.962 Q33.7671 950.962 31.2844 951.98 Q25.7781 954.24 25.7781 960.224 Q25.7781 962.484 27.1785 965.985 L21.8314 965.985 Q20.8447 962.293 20.8447 958.982 Q20.8447 950.452 28.6745 946.824 Q32.3666 945.137 37.8729 945.137 Q41.4696 945.137 45.6391 945.933 Q56.0789 947.938 61.0441 953.126 Q64.9272 957.2 64.9272 961.911 M54.1373 967.353 Q57.3202 967.353 59.0389 965.953 Q60.8531 964.457 60.8531 962.165 Q60.8531 960.128 59.4208 958.505 Q57.4475 956.213 54.2328 954.526 Q51.591 953.126 48.7583 952.426 Q41.9152 955.259 41.9152 960.16 Q41.9152 964.361 47.4533 966.208 Q50.8908 967.353 54.1373 967.353 Z" fill="#000000" fill-rule="nonzero" fill-opacity="1" /><path clip-path="url(#clip360)" d="M14.479 915.25 L14.479 909.394 L64.0042 909.394 L64.0042 915.25 L14.479 915.25 Z" fill="#000000" fill-rule="nonzero" fill-opacity="1" /><path clip-path="url(#clip360)" d="M45.7664 873.682 Q39.4007 873.682 35.8996 876.324 Q32.3984 878.934 32.3984 883.676 Q32.3984 888.387 35.8996 891.029 Q39.4007 893.638 45.7664 893.638 Q52.1003 893.638 55.6014 891.029 Q59.1026 888.387 59.1026 883.676 Q59.1026 878.934 55.6014 876.324 Q52.1003 873.682 45.7664 873.682 M59.58 867.826 Q68.683 867.826 73.1071 871.868 Q77.5631 875.91 77.5631 884.249 Q77.5631 887.336 77.0857 890.074 Q76.6401 892.811 75.6852 895.389 L69.9879 895.389 Q71.3884 892.811 72.0568 890.296 Q72.7252 887.782 72.7252 885.172 Q72.7252 879.411 69.7015 876.547 Q66.7096 873.682 60.6303 873.682 L57.7339 873.682 Q60.885 875.496 62.4446 878.329 Q64.0042 881.162 64.0042 885.108 Q64.0042 891.665 59.0071 895.676 Q54.01 899.686 45.7664 899.686 Q37.491 899.686 32.4939 895.676 Q27.4968 891.665 27.4968 885.108 Q27.4968 881.162 29.0564 878.329 Q30.616 875.496 33.7671 873.682 L28.3562 873.682 L28.3562 867.826 L59.58 867.826 Z" fill="#000000" fill-rule="nonzero" fill-opacity="1" /><path clip-path="url(#clip360)" d="M14.5426 841.694 Q21.8632 845.959 29.0246 848.028 Q36.186 850.097 43.5384 850.097 Q50.8908 850.097 58.1159 848.028 Q65.3091 845.928 72.5979 841.694 L72.5979 846.787 Q65.1182 851.561 57.8931 853.948 Q50.668 856.304 43.5384 856.304 Q36.4406 856.304 29.2474 853.948 Q22.0542 851.593 14.5426 846.787 L14.5426 841.694 Z" fill="#000000" fill-rule="nonzero" fill-opacity="1" /><path clip-path="url(#clip360)" d="M21.7677 823.648 L39.6235 823.648 L39.6235 815.563 Q39.6235 811.075 37.3 808.624 Q34.9765 806.174 30.6797 806.174 Q26.4147 806.174 24.0912 808.624 Q21.7677 811.075 21.7677 815.563 L21.7677 823.648 M16.4842 830.077 L16.4842 815.563 Q16.4842 807.574 20.1126 803.5 Q23.7092 799.394 30.6797 799.394 Q37.7138 799.394 41.3104 803.5 Q44.907 807.574 44.907 815.563 L44.907 823.648 L64.0042 823.648 L64.0042 830.077 L16.4842 830.077 Z" fill="#000000" fill-rule="nonzero" fill-opacity="1" /><path clip-path="url(#clip360)" d="M14.5426 791.946 L14.5426 786.854 Q22.0542 782.079 29.2474 779.724 Q36.4406 777.337 43.5384 777.337 Q50.668 777.337 57.8931 779.724 Q65.1182 782.079 72.5979 786.854 L72.5979 791.946 Q65.3091 787.713 58.1159 785.644 Q50.8908 783.544 43.5384 783.544 Q36.186 783.544 29.0246 785.644 Q21.8632 787.713 14.5426 791.946 Z" fill="#000000" fill-rule="nonzero" fill-opacity="1" /><path clip-path="url(#clip360)" d="M16.4842 734.464 L16.4842 729.053 L70.0516 745.604 L70.0516 751.015 L16.4842 734.464 Z" fill="#000000" fill-rule="nonzero" fill-opacity="1" /><path clip-path="url(#clip360)" d="M64.9272 694.424 Q64.9272 698.912 62.2218 701.84 Q59.0071 705.309 53.1825 705.309 Q47.135 705.309 42.4244 702.254 Q37.5865 699.102 37.5865 693.437 Q37.5865 689.713 39.91 686.785 Q41.2786 685.066 43.5702 683.888 Q40.9921 683.475 38.0639 683.475 Q33.7671 683.475 31.2844 684.493 Q25.7781 686.753 25.7781 692.737 Q25.7781 694.997 27.1785 698.498 L21.8314 698.498 Q20.8447 694.806 20.8447 691.495 Q20.8447 682.965 28.6745 679.337 Q32.3666 677.65 37.8729 677.65 Q41.4696 677.65 45.6391 678.446 Q56.0789 680.451 61.0441 685.639 Q64.9272 689.713 64.9272 694.424 M54.1373 699.866 Q57.3202 699.866 59.0389 698.466 Q60.8531 696.97 60.8531 694.678 Q60.8531 692.641 59.4208 691.018 Q57.4475 688.726 54.2328 687.039 Q51.591 685.639 48.7583 684.939 Q41.9152 687.772 41.9152 692.673 Q41.9152 696.875 47.4533 698.721 Q50.8908 699.866 54.1373 699.866 Z" fill="#000000" fill-rule="nonzero" fill-opacity="1" /><path clip-path="url(#clip360)" d="M14.479 647.763 L14.479 641.907 L64.0042 641.907 L64.0042 647.763 L14.479 647.763 Z" fill="#000000" fill-rule="nonzero" fill-opacity="1" /><path clip-path="url(#clip360)" d="M45.7664 606.195 Q39.4007 606.195 35.8996 608.837 Q32.3984 611.447 32.3984 616.189 Q32.3984 620.9 35.8996 623.542 Q39.4007 626.151 45.7664 626.151 Q52.1003 626.151 55.6014 623.542 Q59.1026 620.9 59.1026 616.189 Q59.1026 611.447 55.6014 608.837 Q52.1003 606.195 45.7664 606.195 M59.58 600.339 Q68.683 600.339 73.1071 604.381 Q77.5631 608.423 77.5631 616.762 Q77.5631 619.849 77.0857 622.587 Q76.6401 625.324 75.6852 627.902 L69.9879 627.902 Q71.3884 625.324 72.0568 622.81 Q72.7252 620.295 72.7252 617.685 Q72.7252 611.924 69.7015 609.06 Q66.7096 606.195 60.6303 606.195 L57.7339 606.195 Q60.885 608.009 62.4446 610.842 Q64.0042 613.675 64.0042 617.621 Q64.0042 624.178 59.0071 628.189 Q54.01 632.199 45.7664 632.199 Q37.491 632.199 32.4939 628.189 Q27.4968 624.178 27.4968 617.621 Q27.4968 613.675 29.0564 610.842 Q30.616 608.009 33.7671 606.195 L28.3562 606.195 L28.3562 600.339 L59.58 600.339 Z" fill="#000000" fill-rule="nonzero" fill-opacity="1" /><path clip-path="url(#clip360)" d="M14.5426 574.207 Q21.8632 578.472 29.0246 580.541 Q36.186 582.61 43.5384 582.61 Q50.8908 582.61 58.1159 580.541 Q65.3091 578.441 72.5979 574.207 L72.5979 579.3 Q65.1182 584.074 57.8931 586.461 Q50.668 588.817 43.5384 588.817 Q36.4406 588.817 29.2474 586.461 Q22.0542 584.106 14.5426 579.3 L14.5426 574.207 Z" fill="#000000" fill-rule="nonzero" fill-opacity="1" /><path clip-path="url(#clip360)" d="M41.4059 538.909 L41.4059 559.184 Q50.9226 558.707 54.9649 556.511 Q59.9301 553.773 59.9301 549.031 Q59.9301 544.257 54.933 541.615 Q50.5407 539.291 41.4059 538.909 M35.995 539.005 Q26.9557 539.896 23.7729 541.615 Q18.744 544.352 18.744 549.031 Q18.744 553.901 23.7092 556.479 Q27.7196 558.516 35.995 559.121 L35.995 539.005 M13.9697 549.031 Q13.9697 541.392 20.7174 537.032 Q27.4332 532.671 39.337 532.671 Q51.2091 532.671 57.9567 537.032 Q64.7362 541.392 64.7362 549.031 Q64.7362 556.702 57.9567 561.03 Q51.2091 565.391 39.337 565.391 Q27.4332 565.391 20.7174 561.03 Q13.9697 556.702 13.9697 549.031 Z" fill="#000000" fill-rule="nonzero" fill-opacity="1" /><path clip-path="url(#clip360)" d="M44.0477 525.223 L44.0477 521.531 L64.0042 521.531 L64.0042 525.223 L44.0477 525.223 M36.2815 525.223 L36.2815 521.531 L40.4192 521.531 L40.4192 525.223 L36.2815 525.223 Z" fill="#000000" fill-rule="nonzero" fill-opacity="1" /><path clip-path="url(#clip360)" d="M14.5426 512.237 L14.5426 507.145 Q22.0542 502.37 29.2474 500.015 Q36.4406 497.628 43.5384 497.628 Q50.668 497.628 57.8931 500.015 Q65.1182 502.37 72.5979 507.145 L72.5979 512.237 Q65.3091 508.004 58.1159 505.935 Q50.8908 503.834 43.5384 503.834 Q36.186 503.834 29.0246 505.935 Q21.8632 508.004 14.5426 512.237 Z" fill="#000000" fill-rule="nonzero" fill-opacity="1" /><polyline clip-path="url(#clip362)" style="stroke:#009af9; stroke-linecap:round; stroke-linejoin:round; stroke-width:4; stroke-opacity:1; fill:none" points="273.033,527.341 293.429,528.997 313.824,530.803 334.22,532.772 354.615,534.929 375.011,537.274 395.406,539.826 415.801,542.593 436.197,545.586 456.592,548.831 476.988,552.323 497.383,556.074 517.779,560.112 538.174,564.44 558.569,569.065 578.965,574.001 599.36,579.261 619.756,584.855 640.151,590.785 660.547,597.074 680.942,603.728 701.337,610.749 721.733,618.153 742.128,625.943 762.524,634.139 782.919,642.742 803.315,651.763 823.71,661.204 844.106,671.086 864.501,681.425 884.896,692.212 905.292,703.494 925.687,715.257 946.083,727.543 966.478,740.364 986.874,753.765 1007.27,767.735 1027.66,782.309 1048.06,797.531 1068.46,813.399 1088.85,829.917 1109.25,847.034 1129.64,864.734 1150.04,882.886 1170.43,901.316 1190.83,919.744 1211.22,937.788 1231.62,954.985 1252.01,970.809 1272.41,984.657 1292.81,995.938 1313.2,1004.56 1333.6,1010.88 1353.99,1015.79 1374.39,1020.86 1394.78,1028 1415.18,1038.99 1435.57,1054.98 1455.97,1075.7 1476.36,1099.02 1496.76,1120.6 1517.15,1135.06 1537.55,1138.81 1557.95,1134.71 1578.34,1132.52 1598.74,1142.56 1619.13,1166.72 1639.53,1193.94 1659.92,1206.65 1680.32,1199.67 1700.71,1193.47 1721.11,1210.88 1741.5,1238.17 1761.9,1243.88 1782.3,1233.46 1802.69,1246.78 1823.09,1269.34 1843.48,1265.41 1863.88,1268.62 1884.27,1287.69 1904.67,1285.55 1925.06,1294.28 1945.46,1303.09 1965.85,1305.57 1986.25,1315.07 2006.65,1318.09 2027.04,1325.75 2047.44,1329.96 2067.83,1335.76 2088.23,1341.4 2108.62,1345.73 2129.02,1350.78 2149.41,1355.21 2169.81,1359.69 2190.2,1364.33 2210.6,1368.26 2231,1372.54 2251.39,1376.53 2271.79,1380.4 2292.18,1384.24 "/>
<polyline clip-path="url(#clip362)" style="stroke:#e26f46; stroke-linecap:round; stroke-linejoin:round; stroke-width:4; stroke-opacity:1; fill:none" points="273.033,685.656 293.429,684.975 313.824,684.218 334.22,683.376 354.615,682.481 375.011,681.491 395.406,680.426 415.801,679.269 436.197,678.005 456.592,676.665 476.988,675.22 497.383,673.63 517.779,671.943 538.174,670.146 558.569,668.217 578.965,666.153 599.36,663.953 619.756,661.616 640.151,659.114 660.547,656.476 680.942,653.662 701.337,650.676 721.733,647.521 742.128,644.153 762.524,640.604 782.919,636.844 803.315,632.853 823.71,628.608 844.106,624.121 864.501,619.358 884.896,614.265 905.292,608.874 925.687,603.094 946.083,596.935 966.478,590.337 986.874,583.281 1007.27,575.68 1027.66,567.496 1048.06,558.728 1068.46,549.314 1088.85,539.226 1109.25,528.425 1129.64,517.013 1150.04,505.045 1170.43,492.663 1190.83,480.115 1211.22,467.72 1231.62,456.02 1252.01,445.608 1272.41,437.04 1292.81,430.756 1313.2,427.019 1333.6,425.621 1353.99,425.712 1374.39,425.725 1394.78,423.71 1415.18,417.853 1435.57,406.93 1455.97,391.013 1476.36,372.181 1496.76,354.805 1517.15,344.754 1537.55,345.958 1557.95,356.176 1578.34,365.231 1598.74,361.371 1619.13,341.399 1639.53,315.652 1659.92,304.316 1680.32,316.717 1700.71,332.226 1721.11,322.279 1741.5,294.351 1761.9,286.854 1782.3,304.792 1802.69,301.757 1823.09,278.063 1843.48,281.257 1863.88,288.545 1884.27,270.968 1904.67,272.872 1925.06,272.089 1945.46,262.86 1965.85,265.088 1986.25,257.778 2006.65,257.851 2027.04,252.993 2047.44,251.224 2067.83,247.95 2088.23,245.564 2108.62,243.021 2129.02,240.531 2149.41,238.1 2169.81,235.793 2190.2,233.649 2210.6,231.388 2231,229.35 2251.39,227.344 2271.79,225.361 2292.18,223.46 "/>
<polyline clip-path="url(#clip362)" style="stroke:#3da44d; stroke-linecap:round; stroke-linejoin:round; stroke-width:4; stroke-opacity:1; fill:none" points="273.033,542.064 293.429,541.938 313.824,541.797 334.22,541.641 354.615,541.475 375.011,541.292 395.406,541.095 415.801,540.88 436.197,540.647 456.592,540.4 476.988,540.133 497.383,539.841 517.779,539.532 538.174,539.204 558.569,538.852 578.965,538.478 599.36,538.081 619.756,537.662 640.151,537.216 660.547,536.75 680.942,536.26 701.337,535.744 721.733,535.208 742.128,534.645 762.524,534.064 782.919,533.464 803.315,532.845 823.71,532.209 844.106,531.564 864.501,530.913 884.896,530.255 905.292,529.609 925.687,528.972 946.083,528.364 966.478,527.795 986.874,527.287 1007.27,526.854 1027.66,526.525 1048.06,526.342 1068.46,526.342 1088.85,526.577 1109.25,527.098 1129.64,527.99 1150.04,529.328 1170.43,531.192 1190.83,533.659 1211.22,536.781 1231.62,540.579 1252.01,544.975 1272.41,549.773 1292.81,554.615 1313.2,558.981 1333.6,562.217 1353.99,563.658 1374.39,562.789 1394.78,559.458 1415.18,554.088 1435.57,547.787 1455.97,542.384 1476.36,540.252 1496.76,543.656 1517.15,553.349 1537.55,566.556 1557.95,576.681 1578.34,576.68 1598.74,565.175 1619.13,549.344 1639.53,542.291 1659.92,553.277 1680.32,573.612 1700.71,579.365 1721.11,562.099 1741.5,546.901 1761.9,558.856 1782.3,576.825 1802.69,565.775 1823.09,552.711 1843.48,567.2 1863.88,569.816 1884.27,557.559 1904.67,567.374 1925.06,565.098 1945.46,562.738 1965.85,566.757 1986.25,563.277 2006.65,566.155 2027.04,564.45 2047.44,565.528 2067.83,565.183 2088.23,565.134 2108.62,565.467 2129.02,565.412 2149.41,565.514 2169.81,565.571 2190.2,565.568 2210.6,565.648 2231,565.664 2251.39,565.696 2271.79,565.718 2292.18,565.701 "/>
<polyline clip-path="url(#clip362)" style="stroke:#c271d2; stroke-linecap:round; stroke-linejoin:round; stroke-width:4; stroke-opacity:1; fill:none" points="273.033,510.925 293.429,511.085 313.824,511.259 334.22,511.449 354.615,511.657 375.011,511.882 395.406,512.128 415.801,512.395 436.197,512.683 456.592,512.996 476.988,513.334 497.383,513.698 517.779,514.089 538.174,514.51 558.569,514.962 578.965,515.445 599.36,515.961 619.756,516.511 640.151,517.095 660.547,517.716 680.942,518.371 701.337,519.065 721.733,519.794 742.128,520.559 762.524,521.361 782.919,522.196 803.315,523.066 823.71,523.966 844.106,524.895 864.501,525.856 884.896,526.831 905.292,527.832 925.687,528.844 946.083,529.868 966.478,530.896 986.874,531.937 1007.27,532.963 1027.66,533.978 1048.06,534.993 1068.46,536.001 1088.85,537.006 1109.25,538.005 1129.64,539.035 1150.04,540.108 1170.43,541.256 1190.83,542.517 1211.22,543.929 1231.62,545.558 1252.01,547.449 1272.41,549.6 1292.81,551.935 1313.2,554.354 1333.6,556.668 1353.99,558.601 1374.39,559.836 1394.78,560.112 1415.18,559.351 1435.57,557.728 1455.97,555.766 1476.36,554.396 1496.76,554.797 1517.15,557.943 1537.55,563.506 1557.95,569.309 1578.34,571.952 1598.74,569.406 1619.13,563.257 1639.53,558.677 1659.92,561.389 1680.32,570.532 1700.71,576.157 1721.11,571.106 1741.5,563.121 1761.9,565.951 1782.3,575.427 1802.69,573.568 1823.09,566.499 1843.48,571.622 1863.88,575.368 1884.27,569.696 1904.67,573.236 1925.06,573.948 1945.46,572.091 1965.85,574.649 1986.25,573.096 2006.65,574.717 2027.04,574.101 2047.44,574.792 2067.83,574.767 2088.23,575.064 2108.62,575.271 2129.02,575.44 2149.41,575.584 2169.81,575.742 2190.2,575.944 2210.6,576.035 2231,576.195 2251.39,576.335 2271.79,576.445 2292.18,576.567 "/>
<polyline clip-path="url(#clip362)" style="stroke:#ac8d18; stroke-linecap:round; stroke-linejoin:round; stroke-width:4; stroke-opacity:1; fill:none" points="273.033,1056.58 293.429,1054.93 313.824,1053.13 334.22,1051.16 354.615,1049.01 375.011,1046.68 395.406,1044.14 415.801,1041.39 436.197,1038.42 456.592,1035.21 476.988,1031.75 497.383,1028.04 517.779,1024.05 538.174,1019.78 558.569,1015.22 578.965,1010.35 599.36,1005.15 619.756,999.624 640.151,993.753 660.547,987.518 680.942,980.91 701.337,973.905 721.733,966.499 742.128,958.669 762.524,950.391 782.919,941.65 803.315,932.419 823.71,922.69 844.106,912.421 864.501,901.551 884.896,890.114 905.292,877.996 925.687,865.209 946.083,851.671 966.478,837.348 986.874,822.138 1007.27,806.092 1027.66,789.142 1048.06,771.213 1068.46,752.349 1088.85,732.582 1109.25,712.129 1129.64,691.057 1150.04,669.75 1170.43,648.674 1190.83,628.501 1211.22,610.101 1231.62,594.34 1252.01,582.127 1272.41,574.322 1292.81,571.519 1313.2,572.968 1333.6,576.72 1353.99,579.717 1374.39,577.94 1394.78,567.276 1415.18,544.823 1435.57,510.263 1455.97,467.53 1476.36,425.513 1496.76,397.606 1517.15,396.697 1537.55,425.77 1557.95,466.507 1578.34,484.535 1598.74,453.818 1619.13,381.763 1639.53,316.571 1659.92,316.241 1680.32,381.539 1700.71,424.38 1721.11,368.873 1741.5,283.591 1761.9,292.62 1782.3,364.85 1802.69,336.178 1823.09,262.676 1843.48,298.157 1863.88,316.572 1884.27,258.195 1904.67,281.524 1925.06,275.415 1945.46,252.603 1965.85,264.923 1986.25,243.87 2006.65,249.504 2027.04,235.392 2047.44,235.328 2067.83,227.298 2088.23,221.143 2108.62,218.077 2129.02,212.548 2149.41,208.443 2169.81,204.218 2190.2,199.09 2210.6,195.823 2231,190.991 2251.39,187.216 2271.79,183.094 2292.18,178.718 "/>
<polyline clip-path="url(#clip362)" style="stroke:#00a9ad; stroke-linecap:round; stroke-linejoin:round; stroke-width:4; stroke-opacity:1; fill:none" points="273.033,509.426 293.429,509.426 313.824,509.426 334.22,509.427 354.615,509.427 375.011,509.427 395.406,509.428 415.801,509.428 436.197,509.429 456.592,509.429 476.988,509.43 497.383,509.431 517.779,509.431 538.174,509.432 558.569,509.433 578.965,509.434 599.36,509.434 619.756,509.435 640.151,509.436 660.547,509.437 680.942,509.438 701.337,509.439 721.733,509.44 742.128,509.44 762.524,509.44 782.919,509.44 803.315,509.44 823.71,509.439 844.106,509.438 864.501,509.435 884.896,509.432 905.292,509.427 925.687,509.421 946.083,509.414 966.478,509.404 986.874,509.393 1007.27,509.378 1027.66,509.36 1048.06,509.339 1068.46,509.315 1088.85,509.288 1109.25,509.256 1129.64,509.222 1150.04,509.186 1170.43,509.148 1190.83,509.113 1211.22,509.082 1231.62,509.06 1252.01,509.053 1272.41,509.066 1292.81,509.101 1313.2,509.162 1333.6,509.244 1353.99,509.338 1374.39,509.427 1394.78,509.487 1415.18,509.493 1435.57,509.428 1455.97,509.284 1476.36,509.081 1496.76,508.879 1517.15,508.779 1537.55,508.878 1557.95,509.19 1578.34,509.561 1598.74,509.73 1619.13,509.508 1639.53,508.968 1659.92,508.573 1680.32,508.842 1700.71,509.59 1721.11,509.863 1741.5,509.18 1761.9,508.542 1782.3,509.133 1802.69,509.799 1823.09,509.123 1843.48,508.766 1863.88,509.529 1884.27,509.245 1904.67,508.963 1925.06,509.457 1945.46,509.061 1965.85,509.295 1986.25,509.173 2006.65,509.249 2027.04,509.189 2047.44,509.23 2067.83,509.196 2088.23,509.232 2108.62,509.212 2129.02,509.212 2149.41,509.213 2169.81,509.213 2190.2,509.217 2210.6,509.207 2231,509.209 2251.39,509.212 2271.79,509.213 2292.18,509.217 "/>
<polyline clip-path="url(#clip362)" style="stroke:#ed5d92; stroke-linecap:round; stroke-linejoin:round; stroke-width:4; stroke-opacity:1; fill:none" points="273.033,510.144 293.429,510.13 313.824,510.115 334.22,510.1 354.615,510.085 375.011,510.07 395.406,510.057 415.801,510.044 436.197,510.034 456.592,510.027 476.988,510.024 497.383,510.024 517.779,510.03 538.174,510.041 558.569,510.057 578.965,510.079 599.36,510.107 619.756,510.14 640.151,510.179 660.547,510.223 680.942,510.271 701.337,510.324 721.733,510.381 742.128,510.442 762.524,510.506 782.919,510.573 803.315,510.644 823.71,510.72 844.106,510.801 864.501,510.884 884.896,510.967 905.292,511.053 925.687,511.144 946.083,511.236 966.478,511.327 986.874,511.418 1007.27,511.509 1027.66,511.602 1048.06,511.694 1068.46,511.784 1088.85,511.874 1109.25,511.963 1129.64,512.051 1150.04,512.136 1170.43,512.22 1190.83,512.303 1211.22,512.382 1231.62,512.46 1252.01,512.535 1272.41,512.609 1292.81,512.68 1313.2,512.747 1333.6,512.812 1353.99,512.874 1374.39,512.932 1394.78,512.986 1415.18,513.036 1435.57,513.082 1455.97,513.125 1476.36,513.166 1496.76,513.206 1517.15,513.246 1537.55,513.285 1557.95,513.323 1578.34,513.354 1598.74,513.378 1619.13,513.398 1639.53,513.417 1659.92,513.442 1680.32,513.47 1700.71,513.492 1721.11,513.503 1741.5,513.511 1761.9,513.528 1782.3,513.548 1802.69,513.556 1823.09,513.561 1843.48,513.575 1863.88,513.585 1884.27,513.588 1904.67,513.598 1925.06,513.604 1945.46,513.608 1965.85,513.614 1986.25,513.617 2006.65,513.622 2027.04,513.625 2047.44,513.628 2067.83,513.631 2088.23,513.633 2108.62,513.635 2129.02,513.637 2149.41,513.639 2169.81,513.64 2190.2,513.642 2210.6,513.643 2231,513.644 2251.39,513.644 2271.79,513.645 2292.18,513.646 "/>
<polyline clip-path="url(#clip362)" style="stroke:#c68125; stroke-linecap:round; stroke-linejoin:round; stroke-width:4; stroke-opacity:1; fill:none" points="273.033,86.1857 293.429,86.1857 313.824,86.1857 334.22,86.1857 354.615,86.1857 375.011,86.1857 395.406,86.1857 415.801,86.1857 436.197,86.1857 456.592,86.1857 476.988,86.1857 497.383,86.1857 517.779,86.1857 538.174,86.1857 558.569,86.1857 578.965,86.1857 599.36,86.1857 619.756,86.1857 640.151,86.1857 660.547,86.1857 680.942,86.1857 701.337,86.1857 721.733,86.1857 742.128,86.1857 762.524,86.1857 782.919,86.1857 803.315,86.1857 823.71,86.1857 844.106,86.1857 864.501,86.1857 884.896,86.1857 905.292,86.1857 925.687,86.1857 946.083,86.1857 966.478,86.1857 986.874,86.1857 1007.27,86.1857 1027.66,86.1857 1048.06,86.1857 1068.46,86.1857 1088.85,86.1857 1109.25,86.1857 1129.64,86.1857 1150.04,86.1857 1170.43,86.1857 1190.83,86.1857 1211.22,86.1857 1231.62,86.1857 1252.01,86.1857 1272.41,86.1857 1292.81,86.1857 1313.2,86.1857 1333.6,86.1857 1353.99,86.1857 1374.39,86.1857 1394.78,86.1857 1415.18,86.1857 1435.57,86.1857 1455.97,86.1857 1476.36,86.1857 1496.76,86.1857 1517.15,86.1857 1537.55,86.1857 1557.95,86.1857 1578.34,86.1857 1598.74,86.1857 1619.13,86.1857 1639.53,86.1857 1659.92,86.1857 1680.32,86.1857 1700.71,86.1857 1721.11,86.1857 1741.5,86.1857 1761.9,86.1857 1782.3,86.1857 1802.69,86.1857 1823.09,86.1857 1843.48,86.1857 1863.88,86.1857 1884.27,86.1857 1904.67,86.1857 1925.06,86.1857 1945.46,86.1857 1965.85,86.1857 1986.25,86.1857 2006.65,86.1857 2027.04,86.1857 2047.44,86.1857 2067.83,86.1857 2088.23,86.1857 2108.62,86.1857 2129.02,86.1857 2149.41,86.1857 2169.81,86.1857 2190.2,86.1857 2210.6,86.1857 2231,86.1857 2251.39,86.1857 2271.79,86.1857 2292.18,86.1857 "/>
<polyline clip-path="url(#clip362)" style="stroke:#00a98d; stroke-linecap:round; stroke-linejoin:round; stroke-width:4; stroke-opacity:1; fill:none" points="273.033,1033.74 293.429,1024.39 313.824,1015.04 334.22,1005.68 354.615,996.332 375.011,986.98 395.406,977.628 415.801,968.277 436.197,958.925 456.592,949.573 476.988,940.222 497.383,930.87 517.779,921.518 538.174,912.166 558.569,902.815 578.965,893.463 599.36,884.111 619.756,874.76 640.151,865.408 660.547,856.056 680.942,846.705 701.337,837.353 721.733,828.001 742.128,818.649 762.524,809.298 782.919,799.946 803.315,790.594 823.71,781.243 844.106,771.891 864.501,762.539 884.896,753.187 905.292,743.836 925.687,734.484 946.083,725.132 966.478,715.781 986.874,706.429 1007.27,697.077 1027.66,687.726 1048.06,678.374 1068.46,669.022 1088.85,659.67 1109.25,650.319 1129.64,640.967 1150.04,631.615 1170.43,622.264 1190.83,612.912 1211.22,603.56 1231.62,594.208 1252.01,584.857 1272.41,575.505 1292.81,566.153 1313.2,556.802 1333.6,547.45 1353.99,538.098 1374.39,528.746 1394.78,519.395 1415.18,510.043 1435.57,500.691 1455.97,491.34 1476.36,481.988 1496.76,472.636 1517.15,463.285 1537.55,453.933 1557.95,444.581 1578.34,435.229 1598.74,425.878 1619.13,416.526 1639.53,407.174 1659.92,397.823 1680.32,388.471 1700.71,379.119 1721.11,369.767 1741.5,360.416 1761.9,351.064 1782.3,341.712 1802.69,332.361 1823.09,323.009 1843.48,313.657 1863.88,304.306 1884.27,294.954 1904.67,285.602 1925.06,276.25 1945.46,266.899 1965.85,257.547 1986.25,248.195 2006.65,238.844 2027.04,229.492 2047.44,220.14 2067.83,210.788 2088.23,201.437 2108.62,192.085 2129.02,182.733 2149.41,173.382 2169.81,164.03 2190.2,154.678 2210.6,145.326 2231,135.975 2251.39,126.623 2271.79,117.271 2292.18,107.92 "/>
<path clip-path="url(#clip360)" d="M283.802 1377.32 L804.011 1377.32 L804.011 858.915 L283.802 858.915  Z" fill="#ffffff" fill-rule="evenodd" fill-opacity="1"/>
<polyline clip-path="url(#clip360)" style="stroke:#000000; stroke-linecap:round; stroke-linejoin:round; stroke-width:4; stroke-opacity:1; fill:none" points="283.802,1377.32 804.011,1377.32 804.011,858.915 283.802,858.915 283.802,1377.32 "/>
<polyline clip-path="url(#clip360)" style="stroke:#009af9; stroke-linecap:round; stroke-linejoin:round; stroke-width:4; stroke-opacity:1; fill:none" points="307.583,910.755 450.27,910.755 "/>
<path clip-path="url(#clip360)" d="M493.31 911.6 L478.565 911.6 Q478.912 918.521 480.509 921.461 Q482.5 925.072 485.949 925.072 Q489.421 925.072 491.342 921.438 Q493.032 918.244 493.31 911.6 M493.24 907.665 Q492.592 901.091 491.342 898.776 Q489.352 895.119 485.949 895.119 Q482.407 895.119 480.532 898.73 Q479.051 901.647 478.611 907.665 L493.24 907.665 M485.949 891.647 Q491.504 891.647 494.676 896.554 Q497.847 901.438 497.847 910.096 Q497.847 918.73 494.676 923.637 Q491.504 928.568 485.949 928.568 Q480.37 928.568 477.222 923.637 Q474.051 918.73 474.051 910.096 Q474.051 901.438 477.222 896.554 Q480.37 891.647 485.949 891.647 Z" fill="#000000" fill-rule="nonzero" fill-opacity="1" /><path clip-path="url(#clip360)" d="M503.264 913.522 L505.949 913.522 L505.949 928.035 L503.264 928.035 L503.264 913.522 M503.264 907.873 L505.949 907.873 L505.949 910.883 L503.264 910.883 L503.264 907.873 Z" fill="#000000" fill-rule="nonzero" fill-opacity="1" /><path clip-path="url(#clip360)" d="M513.935 906.508 L543.611 906.508 L543.611 910.397 L513.935 910.397 L513.935 906.508 M513.935 915.952 L543.611 915.952 L543.611 919.887 L513.935 919.887 L513.935 915.952 Z" fill="#000000" fill-rule="nonzero" fill-opacity="1" /><path clip-path="url(#clip360)" d="M548.495 893.475 L577.731 893.475 L577.731 897.41 L565.462 897.41 L565.462 928.035 L560.763 928.035 L560.763 897.41 L548.495 897.41 L548.495 893.475 Z" fill="#000000" fill-rule="nonzero" fill-opacity="1" /><path clip-path="url(#clip360)" d="M585.948 906.184 L591.62 922.202 L599.721 902.11 L604.235 902.11 L593.749 928.035 L593.749 937.896 L589.49 937.896 L589.49 928.035 L582.684 908.684 Q581.666 905.767 579.467 905.767 L578.333 905.767 L578.333 902.11 L579.953 902.11 Q584.513 902.11 585.948 906.184 Z" fill="#000000" fill-rule="nonzero" fill-opacity="1" /><path clip-path="url(#clip360)" d="M620.717 896.554 Q617.106 896.554 615.277 900.119 Q613.471 903.66 613.471 910.79 Q613.471 917.896 615.277 921.461 Q617.106 925.003 620.717 925.003 Q624.351 925.003 626.156 921.461 Q627.985 917.896 627.985 910.79 Q627.985 903.66 626.156 900.119 Q624.351 896.554 620.717 896.554 M620.717 892.85 Q626.527 892.85 629.582 897.457 Q632.661 902.04 632.661 910.79 Q632.661 919.517 629.582 924.123 Q626.527 928.707 620.717 928.707 Q614.906 928.707 611.828 924.123 Q608.772 919.517 608.772 910.79 Q608.772 902.04 611.828 897.457 Q614.906 892.85 620.717 892.85 Z" fill="#000000" fill-rule="nonzero" fill-opacity="1" /><polyline clip-path="url(#clip360)" style="stroke:#e26f46; stroke-linecap:round; stroke-linejoin:round; stroke-width:4; stroke-opacity:1; fill:none" points="307.583,962.595 450.27,962.595 "/>
<path clip-path="url(#clip360)" d="M493.31 963.44 L478.565 963.44 Q478.912 970.361 480.509 973.301 Q482.5 976.912 485.949 976.912 Q489.421 976.912 491.342 973.278 Q493.032 970.084 493.31 963.44 M493.24 959.505 Q492.592 952.931 491.342 950.616 Q489.352 946.959 485.949 946.959 Q482.407 946.959 480.532 950.57 Q479.051 953.487 478.611 959.505 L493.24 959.505 M485.949 943.487 Q491.504 943.487 494.676 948.394 Q497.847 953.278 497.847 961.936 Q497.847 970.57 494.676 975.477 Q491.504 980.408 485.949 980.408 Q480.37 980.408 477.222 975.477 Q474.051 970.57 474.051 961.936 Q474.051 953.278 477.222 948.394 Q480.37 943.487 485.949 943.487 Z" fill="#000000" fill-rule="nonzero" fill-opacity="1" /><path clip-path="url(#clip360)" d="M503.264 965.362 L505.949 965.362 L505.949 979.875 L503.264 979.875 L503.264 965.362 M503.264 959.713 L505.949 959.713 L505.949 962.723 L503.264 962.723 L503.264 959.713 Z" fill="#000000" fill-rule="nonzero" fill-opacity="1" /><path clip-path="url(#clip360)" d="M513.935 958.348 L543.611 958.348 L543.611 962.237 L513.935 962.237 L513.935 958.348 M513.935 967.792 L543.611 967.792 L543.611 971.727 L513.935 971.727 L513.935 967.792 Z" fill="#000000" fill-rule="nonzero" fill-opacity="1" /><path clip-path="url(#clip360)" d="M583.055 975.755 L583.055 979.875 L569.166 979.875 L569.166 975.755 Q573.263 973.51 575.555 969.667 Q577.846 965.824 577.846 961.149 Q577.846 955.593 574.791 952.237 Q571.735 948.88 566.735 948.88 Q561.735 948.88 558.657 952.26 Q555.601 955.616 555.601 961.149 Q555.601 965.824 557.893 969.667 Q560.208 973.51 564.328 975.755 L564.328 979.875 L550.439 979.875 L550.439 975.755 L557.823 975.755 Q554.166 972.537 552.476 969.088 Q550.81 965.639 550.81 961.38 Q550.81 954.019 555.254 949.459 Q559.675 944.899 566.735 944.899 Q573.749 944.899 578.217 949.459 Q582.661 953.996 582.661 961.149 Q582.661 965.639 581.018 969.065 Q579.374 972.491 575.647 975.755 L583.055 975.755 Z" fill="#000000" fill-rule="nonzero" fill-opacity="1" /><path clip-path="url(#clip360)" d="M607.985 954.945 L607.985 958.926 Q606.18 957.931 604.351 957.445 Q602.545 956.936 600.694 956.936 Q596.55 956.936 594.258 959.575 Q591.967 962.19 591.967 966.936 Q591.967 971.681 594.258 974.32 Q596.55 976.936 600.694 976.936 Q602.545 976.936 604.351 976.449 Q606.18 975.94 607.985 974.945 L607.985 978.88 Q606.203 979.713 604.282 980.13 Q602.383 980.547 600.231 980.547 Q594.374 980.547 590.925 976.866 Q587.476 973.186 587.476 966.936 Q587.476 960.593 590.948 956.959 Q594.444 953.325 600.508 953.325 Q602.476 953.325 604.351 953.741 Q606.226 954.135 607.985 954.945 Z" fill="#000000" fill-rule="nonzero" fill-opacity="1" /><path clip-path="url(#clip360)" d="M625.994 948.394 Q622.383 948.394 620.555 951.959 Q618.749 955.5 618.749 962.63 Q618.749 969.736 620.555 973.301 Q622.383 976.843 625.994 976.843 Q629.629 976.843 631.434 973.301 Q633.263 969.736 633.263 962.63 Q633.263 955.5 631.434 951.959 Q629.629 948.394 625.994 948.394 M625.994 944.69 Q631.805 944.69 634.86 949.297 Q637.939 953.88 637.939 962.63 Q637.939 971.357 634.86 975.963 Q631.805 980.547 625.994 980.547 Q620.184 980.547 617.106 975.963 Q614.05 971.357 614.05 962.63 Q614.05 953.88 617.106 949.297 Q620.184 944.69 625.994 944.69 Z" fill="#000000" fill-rule="nonzero" fill-opacity="1" /><polyline clip-path="url(#clip360)" style="stroke:#3da44d; stroke-linecap:round; stroke-linejoin:round; stroke-width:4; stroke-opacity:1; fill:none" points="307.583,1014.44 450.27,1014.44 "/>
<path clip-path="url(#clip360)" d="M493.31 1015.28 L478.565 1015.28 Q478.912 1022.2 480.509 1025.14 Q482.5 1028.75 485.949 1028.75 Q489.421 1028.75 491.342 1025.12 Q493.032 1021.92 493.31 1015.28 M493.24 1011.35 Q492.592 1004.77 491.342 1002.46 Q489.352 998.799 485.949 998.799 Q482.407 998.799 480.532 1002.41 Q479.051 1005.33 478.611 1011.35 L493.24 1011.35 M485.949 995.327 Q491.504 995.327 494.676 1000.23 Q497.847 1005.12 497.847 1013.78 Q497.847 1022.41 494.676 1027.32 Q491.504 1032.25 485.949 1032.25 Q480.37 1032.25 477.222 1027.32 Q474.051 1022.41 474.051 1013.78 Q474.051 1005.12 477.222 1000.23 Q480.37 995.327 485.949 995.327 Z" fill="#000000" fill-rule="nonzero" fill-opacity="1" /><path clip-path="url(#clip360)" d="M503.264 1017.2 L505.949 1017.2 L505.949 1031.72 L503.264 1031.72 L503.264 1017.2 M503.264 1011.55 L505.949 1011.55 L505.949 1014.56 L503.264 1014.56 L503.264 1011.55 Z" fill="#000000" fill-rule="nonzero" fill-opacity="1" /><path clip-path="url(#clip360)" d="M513.935 1010.19 L543.611 1010.19 L543.611 1014.08 L513.935 1014.08 L513.935 1010.19 M513.935 1019.63 L543.611 1019.63 L543.611 1023.57 L513.935 1023.57 L513.935 1019.63 Z" fill="#000000" fill-rule="nonzero" fill-opacity="1" /><path clip-path="url(#clip360)" d="M583.055 1027.59 L583.055 1031.72 L569.166 1031.72 L569.166 1027.59 Q573.263 1025.35 575.555 1021.51 Q577.846 1017.66 577.846 1012.99 Q577.846 1007.43 574.791 1004.08 Q571.735 1000.72 566.735 1000.72 Q561.735 1000.72 558.657 1004.1 Q555.601 1007.46 555.601 1012.99 Q555.601 1017.66 557.893 1021.51 Q560.208 1025.35 564.328 1027.59 L564.328 1031.72 L550.439 1031.72 L550.439 1027.59 L557.823 1027.59 Q554.166 1024.38 552.476 1020.93 Q550.81 1017.48 550.81 1013.22 Q550.81 1005.86 555.254 1001.3 Q559.675 996.739 566.735 996.739 Q573.749 996.739 578.217 1001.3 Q582.661 1005.84 582.661 1012.99 Q582.661 1017.48 581.018 1020.91 Q579.374 1024.33 575.647 1027.59 L583.055 1027.59 Z" fill="#000000" fill-rule="nonzero" fill-opacity="1" /><path clip-path="url(#clip360)" d="M607.939 1018.78 Q607.939 1014.08 605.994 1011.41 Q604.073 1008.73 600.694 1008.73 Q597.314 1008.73 595.37 1011.41 Q593.448 1014.08 593.448 1018.78 Q593.448 1023.47 595.37 1026.16 Q597.314 1028.82 600.694 1028.82 Q604.073 1028.82 605.994 1026.16 Q607.939 1023.47 607.939 1018.78 M593.448 1009.72 Q594.791 1007.41 596.828 1006.3 Q598.888 1005.16 601.735 1005.16 Q606.457 1005.16 609.397 1008.91 Q612.36 1012.66 612.36 1018.78 Q612.36 1024.89 609.397 1028.64 Q606.457 1032.39 601.735 1032.39 Q598.888 1032.39 596.828 1031.28 Q594.791 1030.14 593.448 1027.83 L593.448 1031.72 L589.166 1031.72 L589.166 995.697 L593.448 995.697 L593.448 1009.72 Z" fill="#000000" fill-rule="nonzero" fill-opacity="1" /><path clip-path="url(#clip360)" d="M630.022 1000.23 Q626.411 1000.23 624.582 1003.8 Q622.777 1007.34 622.777 1014.47 Q622.777 1021.58 624.582 1025.14 Q626.411 1028.68 630.022 1028.68 Q633.656 1028.68 635.462 1025.14 Q637.291 1021.58 637.291 1014.47 Q637.291 1007.34 635.462 1003.8 Q633.656 1000.23 630.022 1000.23 M630.022 996.53 Q635.832 996.53 638.888 1001.14 Q641.967 1005.72 641.967 1014.47 Q641.967 1023.2 638.888 1027.8 Q635.832 1032.39 630.022 1032.39 Q624.212 1032.39 621.133 1027.8 Q618.078 1023.2 618.078 1014.47 Q618.078 1005.72 621.133 1001.14 Q624.212 996.53 630.022 996.53 Z" fill="#000000" fill-rule="nonzero" fill-opacity="1" /><polyline clip-path="url(#clip360)" style="stroke:#c271d2; stroke-linecap:round; stroke-linejoin:round; stroke-width:4; stroke-opacity:1; fill:none" points="307.583,1066.28 450.27,1066.28 "/>
<path clip-path="url(#clip360)" d="M493.31 1067.12 L478.565 1067.12 Q478.912 1074.04 480.509 1076.98 Q482.5 1080.59 485.949 1080.59 Q489.421 1080.59 491.342 1076.96 Q493.032 1073.76 493.31 1067.12 M493.24 1063.19 Q492.592 1056.61 491.342 1054.3 Q489.352 1050.64 485.949 1050.64 Q482.407 1050.64 480.532 1054.25 Q479.051 1057.17 478.611 1063.19 L493.24 1063.19 M485.949 1047.17 Q491.504 1047.17 494.676 1052.07 Q497.847 1056.96 497.847 1065.62 Q497.847 1074.25 494.676 1079.16 Q491.504 1084.09 485.949 1084.09 Q480.37 1084.09 477.222 1079.16 Q474.051 1074.25 474.051 1065.62 Q474.051 1056.96 477.222 1052.07 Q480.37 1047.17 485.949 1047.17 Z" fill="#000000" fill-rule="nonzero" fill-opacity="1" /><path clip-path="url(#clip360)" d="M503.264 1069.04 L505.949 1069.04 L505.949 1083.56 L503.264 1083.56 L503.264 1069.04 M503.264 1063.39 L505.949 1063.39 L505.949 1066.4 L503.264 1066.4 L503.264 1063.39 Z" fill="#000000" fill-rule="nonzero" fill-opacity="1" /><path clip-path="url(#clip360)" d="M513.935 1062.03 L543.611 1062.03 L543.611 1065.92 L513.935 1065.92 L513.935 1062.03 M513.935 1071.47 L543.611 1071.47 L543.611 1075.41 L513.935 1075.41 L513.935 1071.47 Z" fill="#000000" fill-rule="nonzero" fill-opacity="1" /><path clip-path="url(#clip360)" d="M553.286 1049 L559.583 1049 L574.907 1077.91 L574.907 1049 L579.444 1049 L579.444 1083.56 L573.147 1083.56 L557.823 1054.64 L557.823 1083.56 L553.286 1083.56 L553.286 1049 Z" fill="#000000" fill-rule="nonzero" fill-opacity="1" /><path clip-path="url(#clip360)" d="M610.74 1069.53 L610.74 1071.61 L591.157 1071.61 Q591.434 1076.01 593.795 1078.32 Q596.18 1080.62 600.416 1080.62 Q602.87 1080.62 605.161 1080.01 Q607.476 1079.41 609.744 1078.21 L609.744 1082.24 Q607.453 1083.21 605.045 1083.72 Q602.638 1084.23 600.161 1084.23 Q593.958 1084.23 590.323 1080.62 Q586.712 1077 586.712 1070.85 Q586.712 1064.48 590.138 1060.75 Q593.587 1057 599.42 1057 Q604.652 1057 607.684 1060.38 Q610.74 1063.74 610.74 1069.53 M606.481 1068.28 Q606.434 1064.78 604.513 1062.7 Q602.615 1060.62 599.467 1060.62 Q595.902 1060.62 593.749 1062.63 Q591.62 1064.64 591.295 1068.3 L606.481 1068.28 Z" fill="#000000" fill-rule="nonzero" fill-opacity="1" /><path clip-path="url(#clip360)" d="M630.855 1047.54 L630.855 1051.08 L626.781 1051.08 Q624.49 1051.08 623.587 1052 Q622.707 1052.93 622.707 1055.34 L622.707 1057.63 L629.721 1057.63 L629.721 1060.94 L622.707 1060.94 L622.707 1083.56 L618.425 1083.56 L618.425 1060.94 L614.351 1060.94 L614.351 1057.63 L618.425 1057.63 L618.425 1055.82 Q618.425 1051.5 620.439 1049.53 Q622.453 1047.54 626.828 1047.54 L630.855 1047.54 Z" fill="#000000" fill-rule="nonzero" fill-opacity="1" /><path clip-path="url(#clip360)" d="M647.545 1047.54 L647.545 1051.08 L643.471 1051.08 Q641.179 1051.08 640.277 1052 Q639.397 1052.93 639.397 1055.34 L639.397 1057.63 L646.411 1057.63 L646.411 1060.94 L639.397 1060.94 L639.397 1083.56 L635.115 1083.56 L635.115 1060.94 L631.041 1060.94 L631.041 1057.63 L635.115 1057.63 L635.115 1055.82 Q635.115 1051.5 637.129 1049.53 Q639.142 1047.54 643.517 1047.54 L647.545 1047.54 Z" fill="#000000" fill-rule="nonzero" fill-opacity="1" /><polyline clip-path="url(#clip360)" style="stroke:#ac8d18; stroke-linecap:round; stroke-linejoin:round; stroke-width:4; stroke-opacity:1; fill:none" points="307.583,1118.12 450.27,1118.12 "/>
<path clip-path="url(#clip360)" d="M493.31 1118.96 L478.565 1118.96 Q478.912 1125.88 480.509 1128.82 Q482.5 1132.43 485.949 1132.43 Q489.421 1132.43 491.342 1128.8 Q493.032 1125.6 493.31 1118.96 M493.24 1115.03 Q492.592 1108.45 491.342 1106.14 Q489.352 1102.48 485.949 1102.48 Q482.407 1102.48 480.532 1106.09 Q479.051 1109.01 478.611 1115.03 L493.24 1115.03 M485.949 1099.01 Q491.504 1099.01 494.676 1103.91 Q497.847 1108.8 497.847 1117.46 Q497.847 1126.09 494.676 1131 Q491.504 1135.93 485.949 1135.93 Q480.37 1135.93 477.222 1131 Q474.051 1126.09 474.051 1117.46 Q474.051 1108.8 477.222 1103.91 Q480.37 1099.01 485.949 1099.01 Z" fill="#000000" fill-rule="nonzero" fill-opacity="1" /><path clip-path="url(#clip360)" d="M503.264 1120.88 L505.949 1120.88 L505.949 1135.4 L503.264 1135.4 L503.264 1120.88 M503.264 1115.23 L505.949 1115.23 L505.949 1118.24 L503.264 1118.24 L503.264 1115.23 Z" fill="#000000" fill-rule="nonzero" fill-opacity="1" /><path clip-path="url(#clip360)" d="M513.935 1113.87 L543.611 1113.87 L543.611 1117.76 L513.935 1117.76 L513.935 1113.87 M513.935 1123.31 L543.611 1123.31 L543.611 1127.25 L513.935 1127.25 L513.935 1123.31 Z" fill="#000000" fill-rule="nonzero" fill-opacity="1" /><path clip-path="url(#clip360)" d="M574.652 1119.75 L574.652 1135.4 L570.393 1135.4 L570.393 1119.89 Q570.393 1116.21 568.958 1114.38 Q567.522 1112.55 564.652 1112.55 Q561.203 1112.55 559.212 1114.75 Q557.222 1116.95 557.222 1120.74 L557.222 1135.4 L552.939 1135.4 L552.939 1099.38 L557.222 1099.38 L557.222 1113.5 Q558.749 1111.16 560.81 1110 Q562.893 1108.84 565.601 1108.84 Q570.069 1108.84 572.36 1111.62 Q574.652 1114.38 574.652 1119.75 Z" fill="#000000" fill-rule="nonzero" fill-opacity="1" /><polyline clip-path="url(#clip360)" style="stroke:#00a9ad; stroke-linecap:round; stroke-linejoin:round; stroke-width:4; stroke-opacity:1; fill:none" points="307.583,1169.96 450.27,1169.96 "/>
<path clip-path="url(#clip360)" d="M493.31 1170.8 L478.565 1170.8 Q478.912 1177.72 480.509 1180.66 Q482.5 1184.27 485.949 1184.27 Q489.421 1184.27 491.342 1180.64 Q493.032 1177.44 493.31 1170.8 M493.24 1166.87 Q492.592 1160.29 491.342 1157.98 Q489.352 1154.32 485.949 1154.32 Q482.407 1154.32 480.532 1157.93 Q479.051 1160.85 478.611 1166.87 L493.24 1166.87 M485.949 1150.85 Q491.504 1150.85 494.676 1155.75 Q497.847 1160.64 497.847 1169.3 Q497.847 1177.93 494.676 1182.84 Q491.504 1187.77 485.949 1187.77 Q480.37 1187.77 477.222 1182.84 Q474.051 1177.93 474.051 1169.3 Q474.051 1160.64 477.222 1155.75 Q480.37 1150.85 485.949 1150.85 Z" fill="#000000" fill-rule="nonzero" fill-opacity="1" /><path clip-path="url(#clip360)" d="M503.264 1172.72 L505.949 1172.72 L505.949 1187.24 L503.264 1187.24 L503.264 1172.72 M503.264 1167.07 L505.949 1167.07 L505.949 1170.08 L503.264 1170.08 L503.264 1167.07 Z" fill="#000000" fill-rule="nonzero" fill-opacity="1" /><path clip-path="url(#clip360)" d="M513.935 1165.71 L543.611 1165.71 L543.611 1169.6 L513.935 1169.6 L513.935 1165.71 M513.935 1175.15 L543.611 1175.15 L543.611 1179.09 L513.935 1179.09 L513.935 1175.15 Z" fill="#000000" fill-rule="nonzero" fill-opacity="1" /><path clip-path="url(#clip360)" d="M548.541 1152.68 L553.564 1152.68 L563.147 1166.89 L572.661 1152.68 L577.684 1152.68 L565.462 1170.78 L565.462 1187.24 L560.763 1187.24 L560.763 1170.78 L548.541 1152.68 Z" fill="#000000" fill-rule="nonzero" fill-opacity="1" /><path clip-path="url(#clip360)" d="M586.18 1183.35 L586.18 1197.1 L581.897 1197.1 L581.897 1161.31 L586.18 1161.31 L586.18 1165.24 Q587.522 1162.93 589.559 1161.82 Q591.62 1160.68 594.467 1160.68 Q599.189 1160.68 602.129 1164.43 Q605.092 1168.18 605.092 1174.3 Q605.092 1180.41 602.129 1184.16 Q599.189 1187.91 594.467 1187.91 Q591.62 1187.91 589.559 1186.8 Q587.522 1185.66 586.18 1183.35 M600.67 1174.3 Q600.67 1169.6 598.726 1166.93 Q596.805 1164.25 593.425 1164.25 Q590.046 1164.25 588.101 1166.93 Q586.18 1169.6 586.18 1174.3 Q586.18 1178.99 588.101 1181.68 Q590.046 1184.34 593.425 1184.34 Q596.805 1184.34 598.726 1181.68 Q600.67 1178.99 600.67 1174.3 Z" fill="#000000" fill-rule="nonzero" fill-opacity="1" /><polyline clip-path="url(#clip360)" style="stroke:#ed5d92; stroke-linecap:round; stroke-linejoin:round; stroke-width:4; stroke-opacity:1; fill:none" points="307.583,1221.8 450.27,1221.8 "/>
<path clip-path="url(#clip360)" d="M493.31 1222.64 L478.565 1222.64 Q478.912 1229.56 480.509 1232.5 Q482.5 1236.11 485.949 1236.11 Q489.421 1236.11 491.342 1232.48 Q493.032 1229.28 493.31 1222.64 M493.24 1218.71 Q492.592 1212.13 491.342 1209.82 Q489.352 1206.16 485.949 1206.16 Q482.407 1206.16 480.532 1209.77 Q479.051 1212.69 478.611 1218.71 L493.24 1218.71 M485.949 1202.69 Q491.504 1202.69 494.676 1207.59 Q497.847 1212.48 497.847 1221.14 Q497.847 1229.77 494.676 1234.68 Q491.504 1239.61 485.949 1239.61 Q480.37 1239.61 477.222 1234.68 Q474.051 1229.77 474.051 1221.14 Q474.051 1212.48 477.222 1207.59 Q480.37 1202.69 485.949 1202.69 Z" fill="#000000" fill-rule="nonzero" fill-opacity="1" /><path clip-path="url(#clip360)" d="M503.264 1224.56 L505.949 1224.56 L505.949 1239.08 L503.264 1239.08 L503.264 1224.56 M503.264 1218.91 L505.949 1218.91 L505.949 1221.92 L503.264 1221.92 L503.264 1218.91 Z" fill="#000000" fill-rule="nonzero" fill-opacity="1" /><path clip-path="url(#clip360)" d="M513.935 1217.55 L543.611 1217.55 L543.611 1221.44 L513.935 1221.44 L513.935 1217.55 M513.935 1226.99 L543.611 1226.99 L543.611 1230.93 L513.935 1230.93 L513.935 1226.99 Z" fill="#000000" fill-rule="nonzero" fill-opacity="1" /><path clip-path="url(#clip360)" d="M573.286 1218.13 Q574.884 1215.26 577.106 1213.89 Q579.328 1212.52 582.337 1212.52 Q586.388 1212.52 588.587 1215.37 Q590.786 1218.2 590.786 1223.43 L590.786 1239.08 L586.504 1239.08 L586.504 1223.57 Q586.504 1219.84 585.184 1218.03 Q583.865 1216.23 581.157 1216.23 Q577.846 1216.23 575.925 1218.43 Q574.004 1220.63 574.004 1224.42 L574.004 1239.08 L569.722 1239.08 L569.722 1223.57 Q569.722 1219.82 568.402 1218.03 Q567.083 1216.23 564.328 1216.23 Q561.064 1216.23 559.143 1218.45 Q557.222 1220.65 557.222 1224.42 L557.222 1239.08 L552.939 1239.08 L552.939 1213.15 L557.222 1213.15 L557.222 1217.18 Q558.68 1214.79 560.717 1213.66 Q562.754 1212.52 565.555 1212.52 Q568.379 1212.52 570.347 1213.96 Q572.337 1215.39 573.286 1218.13 Z" fill="#000000" fill-rule="nonzero" fill-opacity="1" /><path clip-path="url(#clip360)" d="M620.832 1223.43 L620.832 1239.08 L616.573 1239.08 L616.573 1223.57 Q616.573 1219.89 615.138 1218.06 Q613.703 1216.23 610.832 1216.23 Q607.383 1216.23 605.393 1218.43 Q603.402 1220.63 603.402 1224.42 L603.402 1239.08 L599.12 1239.08 L599.12 1203.06 L603.402 1203.06 L603.402 1217.18 Q604.93 1214.84 606.99 1213.68 Q609.073 1212.52 611.781 1212.52 Q616.249 1212.52 618.541 1215.3 Q620.832 1218.06 620.832 1223.43 Z" fill="#000000" fill-rule="nonzero" fill-opacity="1" /><polyline clip-path="url(#clip360)" style="stroke:#c68125; stroke-linecap:round; stroke-linejoin:round; stroke-width:4; stroke-opacity:1; fill:none" points="307.583,1273.64 450.27,1273.64 "/>
<path clip-path="url(#clip360)" d="M493.31 1274.48 L478.565 1274.48 Q478.912 1281.4 480.509 1284.34 Q482.5 1287.95 485.949 1287.95 Q489.421 1287.95 491.342 1284.32 Q493.032 1281.12 493.31 1274.48 M493.24 1270.55 Q492.592 1263.97 491.342 1261.66 Q489.352 1258 485.949 1258 Q482.407 1258 480.532 1261.61 Q479.051 1264.53 478.611 1270.55 L493.24 1270.55 M485.949 1254.53 Q491.504 1254.53 494.676 1259.43 Q497.847 1264.32 497.847 1272.98 Q497.847 1281.61 494.676 1286.52 Q491.504 1291.45 485.949 1291.45 Q480.37 1291.45 477.222 1286.52 Q474.051 1281.61 474.051 1272.98 Q474.051 1264.32 477.222 1259.43 Q480.37 1254.53 485.949 1254.53 Z" fill="#000000" fill-rule="nonzero" fill-opacity="1" /><path clip-path="url(#clip360)" d="M503.264 1276.4 L505.949 1276.4 L505.949 1290.92 L503.264 1290.92 L503.264 1276.4 M503.264 1270.75 L505.949 1270.75 L505.949 1273.76 L503.264 1273.76 L503.264 1270.75 Z" fill="#000000" fill-rule="nonzero" fill-opacity="1" /><path clip-path="url(#clip360)" d="M513.935 1269.39 L543.611 1269.39 L543.611 1273.28 L513.935 1273.28 L513.935 1269.39 M513.935 1278.83 L543.611 1278.83 L543.611 1282.77 L513.935 1282.77 L513.935 1278.83 Z" fill="#000000" fill-rule="nonzero" fill-opacity="1" /><path clip-path="url(#clip360)" d="M553.101 1254.9 L557.36 1254.9 L557.36 1290.92 L553.101 1290.92 L553.101 1254.9 Z" fill="#000000" fill-rule="nonzero" fill-opacity="1" /><path clip-path="url(#clip360)" d="M587.823 1275.27 L587.823 1290.92 L583.564 1290.92 L583.564 1275.41 Q583.564 1271.73 582.129 1269.9 Q580.694 1268.07 577.823 1268.07 Q574.374 1268.07 572.384 1270.27 Q570.393 1272.47 570.393 1276.26 L570.393 1290.92 L566.11 1290.92 L566.11 1264.99 L570.393 1264.99 L570.393 1269.02 Q571.921 1266.68 573.981 1265.52 Q576.064 1264.36 578.772 1264.36 Q583.24 1264.36 585.532 1267.14 Q587.823 1269.9 587.823 1275.27 Z" fill="#000000" fill-rule="nonzero" fill-opacity="1" /><path clip-path="url(#clip360)" d="M606.55 1254.94 Q603.448 1260.27 601.944 1265.48 Q600.439 1270.68 600.439 1276.03 Q600.439 1281.38 601.944 1286.63 Q603.471 1291.86 606.55 1297.17 L602.846 1297.17 Q599.374 1291.73 597.638 1286.47 Q595.925 1281.22 595.925 1276.03 Q595.925 1270.87 597.638 1265.64 Q599.351 1260.41 602.846 1254.94 L606.55 1254.94 Z" fill="#000000" fill-rule="nonzero" fill-opacity="1" /><path clip-path="url(#clip360)" d="M616.226 1286.98 L623.865 1286.98 L623.865 1260.61 L615.555 1262.28 L615.555 1258.02 L623.818 1256.36 L628.494 1256.36 L628.494 1286.98 L636.133 1286.98 L636.133 1290.92 L616.226 1290.92 L616.226 1286.98 Z" fill="#000000" fill-rule="nonzero" fill-opacity="1" /><path clip-path="url(#clip360)" d="M655.578 1259.43 Q651.966 1259.43 650.138 1263 Q648.332 1266.54 648.332 1273.67 Q648.332 1280.78 650.138 1284.34 Q651.966 1287.88 655.578 1287.88 Q659.212 1287.88 661.017 1284.34 Q662.846 1280.78 662.846 1273.67 Q662.846 1266.54 661.017 1263 Q659.212 1259.43 655.578 1259.43 M655.578 1255.73 Q661.388 1255.73 664.443 1260.34 Q667.522 1264.92 667.522 1273.67 Q667.522 1282.4 664.443 1287 Q661.388 1291.59 655.578 1291.59 Q649.767 1291.59 646.689 1287 Q643.633 1282.4 643.633 1273.67 Q643.633 1264.92 646.689 1260.34 Q649.767 1255.73 655.578 1255.73 Z" fill="#000000" fill-rule="nonzero" fill-opacity="1" /><path clip-path="url(#clip360)" d="M674.281 1272.91 L679.003 1272.91 L679.003 1258.76 L673.841 1259.71 L673.841 1257.03 L679.165 1256.12 L682.337 1256.12 L682.337 1272.91 L687.082 1272.91 L687.082 1275.45 L674.281 1275.45 L674.281 1272.91 Z" fill="#000000" fill-rule="nonzero" fill-opacity="1" /><path clip-path="url(#clip360)" d="M702.869 1259.78 Q701.712 1257.79 699.374 1257.79 Q697.036 1257.79 695.878 1259.78 Q694.698 1261.77 694.698 1265.75 Q694.698 1269.76 695.878 1271.75 Q697.036 1273.74 699.374 1273.74 Q701.712 1273.74 702.869 1271.75 Q704.05 1269.76 704.05 1265.75 Q704.05 1261.77 702.869 1259.78 M699.374 1255.73 Q703.1 1255.73 705.068 1258.3 Q707.036 1260.87 707.036 1265.75 Q707.036 1270.66 705.068 1273.23 Q703.1 1275.8 699.374 1275.8 Q695.624 1275.8 693.656 1273.23 Q691.688 1270.66 691.688 1265.75 Q691.688 1260.87 693.656 1258.3 Q695.624 1255.73 699.374 1255.73 Z" fill="#000000" fill-rule="nonzero" fill-opacity="1" /><path clip-path="url(#clip360)" d="M724.883 1260.96 L718.54 1278.16 L731.248 1278.16 L724.883 1260.96 M722.244 1256.36 L727.545 1256.36 L740.716 1290.92 L735.855 1290.92 L732.707 1282.05 L717.128 1282.05 L713.98 1290.92 L709.049 1290.92 L722.244 1256.36 Z" fill="#000000" fill-rule="nonzero" fill-opacity="1" /><path clip-path="url(#clip360)" d="M762.105 1265.75 L762.105 1269.78 Q760.299 1268.86 758.355 1268.39 Q756.41 1267.93 754.327 1267.93 Q751.156 1267.93 749.559 1268.9 Q747.984 1269.87 747.984 1271.82 Q747.984 1273.3 749.119 1274.16 Q750.253 1274.99 753.679 1275.75 L755.137 1276.08 Q759.674 1277.05 761.572 1278.83 Q763.494 1280.59 763.494 1283.76 Q763.494 1287.37 760.623 1289.48 Q757.776 1291.59 752.776 1291.59 Q750.693 1291.59 748.424 1291.17 Q746.179 1290.78 743.679 1289.97 L743.679 1285.57 Q746.04 1286.79 748.332 1287.42 Q750.623 1288.02 752.869 1288.02 Q755.878 1288.02 757.498 1287 Q759.119 1285.96 759.119 1284.09 Q759.119 1282.35 757.938 1281.42 Q756.781 1280.5 752.822 1279.64 L751.341 1279.3 Q747.383 1278.46 745.623 1276.75 Q743.864 1275.01 743.864 1272 Q743.864 1268.35 746.457 1266.36 Q749.049 1264.36 753.818 1264.36 Q756.179 1264.36 758.262 1264.71 Q760.346 1265.06 762.105 1265.75 Z" fill="#000000" fill-rule="nonzero" fill-opacity="1" /><path clip-path="url(#clip360)" d="M769.605 1254.94 L773.308 1254.94 Q776.781 1260.41 778.494 1265.64 Q780.23 1270.87 780.23 1276.03 Q780.23 1281.22 778.494 1286.47 Q776.781 1291.73 773.308 1297.17 L769.605 1297.17 Q772.683 1291.86 774.188 1286.63 Q775.716 1281.38 775.716 1276.03 Q775.716 1270.68 774.188 1265.48 Q772.683 1260.27 769.605 1254.94 Z" fill="#000000" fill-rule="nonzero" fill-opacity="1" /><polyline clip-path="url(#clip360)" style="stroke:#00a98d; stroke-linecap:round; stroke-linejoin:round; stroke-width:4; stroke-opacity:1; fill:none" points="307.583,1325.48 450.27,1325.48 "/>
<path clip-path="url(#clip360)" d="M493.31 1326.32 L478.565 1326.32 Q478.912 1333.24 480.509 1336.18 Q482.5 1339.79 485.949 1339.79 Q489.421 1339.79 491.342 1336.16 Q493.032 1332.96 493.31 1326.32 M493.24 1322.39 Q492.592 1315.81 491.342 1313.5 Q489.352 1309.84 485.949 1309.84 Q482.407 1309.84 480.532 1313.45 Q479.051 1316.37 478.611 1322.39 L493.24 1322.39 M485.949 1306.37 Q491.504 1306.37 494.676 1311.27 Q497.847 1316.16 497.847 1324.82 Q497.847 1333.45 494.676 1338.36 Q491.504 1343.29 485.949 1343.29 Q480.37 1343.29 477.222 1338.36 Q474.051 1333.45 474.051 1324.82 Q474.051 1316.16 477.222 1311.27 Q480.37 1306.37 485.949 1306.37 Z" fill="#000000" fill-rule="nonzero" fill-opacity="1" /><path clip-path="url(#clip360)" d="M503.264 1328.24 L505.949 1328.24 L505.949 1342.76 L503.264 1342.76 L503.264 1328.24 M503.264 1322.59 L505.949 1322.59 L505.949 1325.6 L503.264 1325.6 L503.264 1322.59 Z" fill="#000000" fill-rule="nonzero" fill-opacity="1" /><path clip-path="url(#clip360)" d="M513.935 1321.23 L543.611 1321.23 L543.611 1325.12 L513.935 1325.12 L513.935 1321.23 M513.935 1330.67 L543.611 1330.67 L543.611 1334.61 L513.935 1334.61 L513.935 1330.67 Z" fill="#000000" fill-rule="nonzero" fill-opacity="1" /><path clip-path="url(#clip360)" d="M574.652 1327.11 L574.652 1342.76 L570.393 1342.76 L570.393 1327.25 Q570.393 1323.57 568.958 1321.74 Q567.522 1319.91 564.652 1319.91 Q561.203 1319.91 559.212 1322.11 Q557.222 1324.31 557.222 1328.1 L557.222 1342.76 L552.939 1342.76 L552.939 1316.83 L557.222 1316.83 L557.222 1320.86 Q558.749 1318.52 560.81 1317.36 Q562.893 1316.2 565.601 1316.2 Q570.069 1316.2 572.36 1318.98 Q574.652 1321.74 574.652 1327.11 Z" fill="#000000" fill-rule="nonzero" fill-opacity="1" /><path clip-path="url(#clip360)" d="M599.675 1317.59 L599.675 1321.62 Q597.87 1320.7 595.925 1320.23 Q593.981 1319.77 591.897 1319.77 Q588.726 1319.77 587.129 1320.74 Q585.555 1321.71 585.555 1323.66 Q585.555 1325.14 586.689 1326 Q587.823 1326.83 591.249 1327.59 L592.708 1327.92 Q597.245 1328.89 599.143 1330.67 Q601.064 1332.43 601.064 1335.6 Q601.064 1339.21 598.194 1341.32 Q595.346 1343.43 590.346 1343.43 Q588.263 1343.43 585.995 1343.01 Q583.749 1342.62 581.249 1341.81 L581.249 1337.41 Q583.61 1338.63 585.902 1339.26 Q588.194 1339.86 590.439 1339.86 Q593.448 1339.86 595.069 1338.84 Q596.689 1337.8 596.689 1335.93 Q596.689 1334.19 595.508 1333.26 Q594.351 1332.34 590.393 1331.48 L588.911 1331.14 Q584.953 1330.3 583.194 1328.59 Q581.434 1326.85 581.434 1323.84 Q581.434 1320.19 584.027 1318.2 Q586.62 1316.2 591.388 1316.2 Q593.749 1316.2 595.833 1316.55 Q597.916 1316.9 599.675 1317.59 Z" fill="#000000" fill-rule="nonzero" fill-opacity="1" /></svg>
