<?xml version="1.0" encoding="utf-8"?>
<svg xmlns="http://www.w3.org/2000/svg" xmlns:xlink="http://www.w3.org/1999/xlink" width="800" height="400" viewBox="0 0 3200 1600">
<defs>
  <clipPath id="clip500">
    <rect x="0" y="0" width="3200" height="1600"/>
  </clipPath>
</defs>
<path clip-path="url(#clip500)" d="M0 1600 L3200 1600 L3200 0 L0 0  Z" fill="#ffffff" fill-rule="evenodd" fill-opacity="1"/>
<defs>
  <clipPath id="clip501">
    <rect x="364" y="47" width="2789" height="1449"/>
  </clipPath>
</defs>
<path clip-path="url(#clip500)" d="M364.733 1495.09 L3152.76 1495.09 L3152.76 47.2441 L364.733 47.2441  Z" fill="#ffffff" fill-rule="evenodd" fill-opacity="1"/>
<polyline clip-path="url(#clip501)" style="stroke:#000000; stroke-linecap:round; stroke-linejoin:round; stroke-width:2; stroke-opacity:0.1; fill:none" points="735.885,1495.09 735.885,47.2441 "/>
<polyline clip-path="url(#clip501)" style="stroke:#000000; stroke-linecap:round; stroke-linejoin:round; stroke-width:2; stroke-opacity:0.1; fill:none" points="1758.74,1495.09 1758.74,47.2441 "/>
<polyline clip-path="url(#clip501)" style="stroke:#000000; stroke-linecap:round; stroke-linejoin:round; stroke-width:2; stroke-opacity:0.1; fill:none" points="2781.6,1495.09 2781.6,47.2441 "/>
<polyline clip-path="url(#clip501)" style="stroke:#000000; stroke-linecap:round; stroke-linejoin:round; stroke-width:2; stroke-opacity:0.1; fill:none" points="364.733,1387.56 3152.76,1387.56 "/>
<polyline clip-path="url(#clip501)" style="stroke:#000000; stroke-linecap:round; stroke-linejoin:round; stroke-width:2; stroke-opacity:0.1; fill:none" points="364.733,1141.94 3152.76,1141.94 "/>
<polyline clip-path="url(#clip501)" style="stroke:#000000; stroke-linecap:round; stroke-linejoin:round; stroke-width:2; stroke-opacity:0.1; fill:none" points="364.733,896.323 3152.76,896.323 "/>
<polyline clip-path="url(#clip501)" style="stroke:#000000; stroke-linecap:round; stroke-linejoin:round; stroke-width:2; stroke-opacity:0.1; fill:none" points="364.733,650.705 3152.76,650.705 "/>
<polyline clip-path="url(#clip501)" style="stroke:#000000; stroke-linecap:round; stroke-linejoin:round; stroke-width:2; stroke-opacity:0.1; fill:none" points="364.733,405.088 3152.76,405.088 "/>
<polyline clip-path="url(#clip501)" style="stroke:#000000; stroke-linecap:round; stroke-linejoin:round; stroke-width:2; stroke-opacity:0.1; fill:none" points="364.733,159.471 3152.76,159.471 "/>
<polyline clip-path="url(#clip500)" style="stroke:#000000; stroke-linecap:round; stroke-linejoin:round; stroke-width:4; stroke-opacity:1; fill:none" points="364.733,1495.09 3152.76,1495.09 "/>
<polyline clip-path="url(#clip500)" style="stroke:#000000; stroke-linecap:round; stroke-linejoin:round; stroke-width:4; stroke-opacity:1; fill:none" points="735.885,1495.09 735.885,1476.19 "/>
<polyline clip-path="url(#clip500)" style="stroke:#000000; stroke-linecap:round; stroke-linejoin:round; stroke-width:4; stroke-opacity:1; fill:none" points="1758.74,1495.09 1758.74,1476.19 "/>
<polyline clip-path="url(#clip500)" style="stroke:#000000; stroke-linecap:round; stroke-linejoin:round; stroke-width:4; stroke-opacity:1; fill:none" points="2781.6,1495.09 2781.6,1476.19 "/>
<path clip-path="url(#clip500)" d="M651.846 1538.73 L651.846 1542.75 Q650.04 1541.83 648.096 1541.36 Q646.151 1540.9 644.068 1540.9 Q640.897 1540.9 639.299 1541.87 Q637.725 1542.85 637.725 1544.79 Q637.725 1546.27 638.86 1547.13 Q639.994 1547.96 643.42 1548.73 L644.878 1549.05 Q649.415 1550.02 651.313 1551.8 Q653.235 1553.56 653.235 1556.74 Q653.235 1560.35 650.364 1562.45 Q647.517 1564.56 642.517 1564.56 Q640.434 1564.56 638.165 1564.14 Q635.92 1563.75 633.42 1562.94 L633.42 1558.54 Q635.781 1559.77 638.073 1560.39 Q640.364 1560.99 642.61 1560.99 Q645.619 1560.99 647.239 1559.98 Q648.86 1558.93 648.86 1557.06 Q648.86 1555.32 647.679 1554.4 Q646.522 1553.47 642.563 1552.61 L641.082 1552.27 Q637.123 1551.43 635.364 1549.72 Q633.605 1547.99 633.605 1544.98 Q633.605 1541.32 636.198 1539.33 Q638.79 1537.34 643.559 1537.34 Q645.92 1537.34 648.003 1537.68 Q650.086 1538.03 651.846 1538.73 Z" fill="#000000" fill-rule="nonzero" fill-opacity="1" /><path clip-path="url(#clip500)" d="M670.804 1566.3 Q668.998 1570.92 667.285 1572.34 Q665.572 1573.75 662.702 1573.75 L659.299 1573.75 L659.299 1570.18 L661.799 1570.18 Q663.559 1570.18 664.531 1569.35 Q665.503 1568.52 666.684 1565.42 L667.447 1563.47 L656.961 1537.96 L661.475 1537.96 L669.577 1558.24 L677.679 1537.96 L682.193 1537.96 L670.804 1566.3 Z" fill="#000000" fill-rule="nonzero" fill-opacity="1" /><path clip-path="url(#clip500)" d="M708.257 1542.94 Q709.855 1540.07 712.077 1538.7 Q714.299 1537.34 717.308 1537.34 Q721.359 1537.34 723.558 1540.18 Q725.757 1543.01 725.757 1548.24 L725.757 1563.89 L721.475 1563.89 L721.475 1548.38 Q721.475 1544.65 720.155 1542.85 Q718.836 1541.04 716.128 1541.04 Q712.818 1541.04 710.896 1543.24 Q708.975 1545.44 708.975 1549.24 L708.975 1563.89 L704.693 1563.89 L704.693 1548.38 Q704.693 1544.63 703.373 1542.85 Q702.054 1541.04 699.299 1541.04 Q696.035 1541.04 694.114 1543.26 Q692.193 1545.46 692.193 1549.24 L692.193 1563.89 L687.91 1563.89 L687.91 1537.96 L692.193 1537.96 L692.193 1541.99 Q693.651 1539.61 695.688 1538.47 Q697.725 1537.34 700.526 1537.34 Q703.35 1537.34 705.318 1538.77 Q707.308 1540.21 708.257 1542.94 Z" fill="#000000" fill-rule="nonzero" fill-opacity="1" /><path clip-path="url(#clip500)" d="M752.864 1550.95 Q752.864 1546.25 750.919 1543.59 Q748.998 1540.9 745.618 1540.9 Q742.239 1540.9 740.294 1543.59 Q738.373 1546.25 738.373 1550.95 Q738.373 1555.65 740.294 1558.33 Q742.239 1560.99 745.618 1560.99 Q748.998 1560.99 750.919 1558.33 Q752.864 1555.65 752.864 1550.95 M738.373 1541.9 Q739.716 1539.58 741.753 1538.47 Q743.813 1537.34 746.66 1537.34 Q751.382 1537.34 754.322 1541.09 Q757.285 1544.84 757.285 1550.95 Q757.285 1557.06 754.322 1560.81 Q751.382 1564.56 746.66 1564.56 Q743.813 1564.56 741.753 1563.45 Q739.716 1562.31 738.373 1560 L738.373 1563.89 L734.091 1563.89 L734.091 1527.87 L738.373 1527.87 L738.373 1541.9 Z" fill="#000000" fill-rule="nonzero" fill-opacity="1" /><path clip-path="url(#clip500)" d="M774.391 1540.95 Q770.965 1540.95 768.975 1543.63 Q766.984 1546.3 766.984 1550.95 Q766.984 1555.6 768.951 1558.29 Q770.942 1560.95 774.391 1560.95 Q777.794 1560.95 779.785 1558.26 Q781.775 1555.58 781.775 1550.95 Q781.775 1546.34 779.785 1543.66 Q777.794 1540.95 774.391 1540.95 M774.391 1537.34 Q779.947 1537.34 783.118 1540.95 Q786.289 1544.56 786.289 1550.95 Q786.289 1557.31 783.118 1560.95 Q779.947 1564.56 774.391 1564.56 Q768.813 1564.56 765.641 1560.95 Q762.493 1557.31 762.493 1550.95 Q762.493 1544.56 765.641 1540.95 Q768.813 1537.34 774.391 1537.34 Z" fill="#000000" fill-rule="nonzero" fill-opacity="1" /><path clip-path="url(#clip500)" d="M793.349 1527.87 L797.609 1527.87 L797.609 1563.89 L793.349 1563.89 L793.349 1527.87 Z" fill="#000000" fill-rule="nonzero" fill-opacity="1" /><path clip-path="url(#clip500)" d="M806.521 1537.96 L810.78 1537.96 L810.78 1563.89 L806.521 1563.89 L806.521 1537.96 M806.521 1527.87 L810.78 1527.87 L810.78 1533.26 L806.521 1533.26 L806.521 1527.87 Z" fill="#000000" fill-rule="nonzero" fill-opacity="1" /><path clip-path="url(#clip500)" d="M838.349 1538.96 L838.349 1542.94 Q836.544 1541.94 834.715 1541.46 Q832.909 1540.95 831.058 1540.95 Q826.914 1540.95 824.622 1543.59 Q822.331 1546.2 822.331 1550.95 Q822.331 1555.69 824.622 1558.33 Q826.914 1560.95 831.058 1560.95 Q832.909 1560.95 834.715 1560.46 Q836.544 1559.95 838.349 1558.96 L838.349 1562.89 Q836.567 1563.73 834.646 1564.14 Q832.747 1564.56 830.595 1564.56 Q824.738 1564.56 821.289 1560.88 Q817.84 1557.2 817.84 1550.95 Q817.84 1544.61 821.312 1540.97 Q824.808 1537.34 830.872 1537.34 Q832.84 1537.34 834.715 1537.75 Q836.59 1538.15 838.349 1538.96 Z" fill="#000000" fill-rule="nonzero" fill-opacity="1" /><path clip-path="url(#clip500)" d="M1669.07 1527.87 L1669.07 1531.41 L1664.99 1531.41 Q1662.7 1531.41 1661.8 1532.34 Q1660.92 1533.26 1660.92 1535.67 L1660.92 1537.96 L1667.93 1537.96 L1667.93 1541.27 L1660.92 1541.27 L1660.92 1563.89 L1656.64 1563.89 L1656.64 1541.27 L1652.56 1541.27 L1652.56 1537.96 L1656.64 1537.96 L1656.64 1536.16 Q1656.64 1531.83 1658.65 1529.86 Q1660.67 1527.87 1665.04 1527.87 L1669.07 1527.87 Z" fill="#000000" fill-rule="nonzero" fill-opacity="1" /><path clip-path="url(#clip500)" d="M1672.63 1537.96 L1676.89 1537.96 L1676.89 1563.89 L1672.63 1563.89 L1672.63 1537.96 M1672.63 1527.87 L1676.89 1527.87 L1676.89 1533.26 L1672.63 1533.26 L1672.63 1527.87 Z" fill="#000000" fill-rule="nonzero" fill-opacity="1" /><path clip-path="url(#clip500)" d="M1707.36 1548.24 L1707.36 1563.89 L1703.1 1563.89 L1703.1 1548.38 Q1703.1 1544.7 1701.66 1542.87 Q1700.23 1541.04 1697.36 1541.04 Q1693.91 1541.04 1691.92 1543.24 Q1689.93 1545.44 1689.93 1549.24 L1689.93 1563.89 L1685.64 1563.89 L1685.64 1537.96 L1689.93 1537.96 L1689.93 1541.99 Q1691.45 1539.65 1693.51 1538.49 Q1695.6 1537.34 1698.3 1537.34 Q1702.77 1537.34 1705.06 1540.11 Q1707.36 1542.87 1707.36 1548.24 Z" fill="#000000" fill-rule="nonzero" fill-opacity="1" /><path clip-path="url(#clip500)" d="M1715.85 1537.96 L1720.11 1537.96 L1720.11 1563.89 L1715.85 1563.89 L1715.85 1537.96 M1715.85 1527.87 L1720.11 1527.87 L1720.11 1533.26 L1715.85 1533.26 L1715.85 1527.87 Z" fill="#000000" fill-rule="nonzero" fill-opacity="1" /><path clip-path="url(#clip500)" d="M1733.24 1530.6 L1733.24 1537.96 L1742.01 1537.96 L1742.01 1541.27 L1733.24 1541.27 L1733.24 1555.35 Q1733.24 1558.52 1734.09 1559.42 Q1734.97 1560.32 1737.63 1560.32 L1742.01 1560.32 L1742.01 1563.89 L1737.63 1563.89 Q1732.7 1563.89 1730.83 1562.06 Q1728.95 1560.21 1728.95 1555.35 L1728.95 1541.27 L1725.83 1541.27 L1725.83 1537.96 L1728.95 1537.96 L1728.95 1530.6 L1733.24 1530.6 Z" fill="#000000" fill-rule="nonzero" fill-opacity="1" /><path clip-path="url(#clip500)" d="M1769.79 1549.86 L1769.79 1551.94 L1750.2 1551.94 Q1750.48 1556.34 1752.84 1558.66 Q1755.23 1560.95 1759.46 1560.95 Q1761.92 1560.95 1764.21 1560.35 Q1766.52 1559.74 1768.79 1558.54 L1768.79 1562.57 Q1766.5 1563.54 1764.09 1564.05 Q1761.68 1564.56 1759.21 1564.56 Q1753 1564.56 1749.37 1560.95 Q1745.76 1557.34 1745.76 1551.18 Q1745.76 1544.81 1749.18 1541.09 Q1752.63 1537.34 1758.47 1537.34 Q1763.7 1537.34 1766.73 1540.72 Q1769.79 1544.07 1769.79 1549.86 M1765.53 1548.61 Q1765.48 1545.11 1763.56 1543.03 Q1761.66 1540.95 1758.51 1540.95 Q1754.95 1540.95 1752.8 1542.96 Q1750.67 1544.98 1750.34 1548.63 L1765.53 1548.61 Z" fill="#000000" fill-rule="nonzero" fill-opacity="1" /><path clip-path="url(#clip500)" d="M1808.91 1541.9 L1808.91 1527.87 L1813.17 1527.87 L1813.17 1563.89 L1808.91 1563.89 L1808.91 1560 Q1807.56 1562.31 1805.5 1563.45 Q1803.47 1564.56 1800.6 1564.56 Q1795.9 1564.56 1792.93 1560.81 Q1789.99 1557.06 1789.99 1550.95 Q1789.99 1544.84 1792.93 1541.09 Q1795.9 1537.34 1800.6 1537.34 Q1803.47 1537.34 1805.5 1538.47 Q1807.56 1539.58 1808.91 1541.9 M1794.39 1550.95 Q1794.39 1555.65 1796.31 1558.33 Q1798.26 1560.99 1801.64 1560.99 Q1805.02 1560.99 1806.96 1558.33 Q1808.91 1555.65 1808.91 1550.95 Q1808.91 1546.25 1806.96 1543.59 Q1805.02 1540.9 1801.64 1540.9 Q1798.26 1540.9 1796.31 1543.59 Q1794.39 1546.25 1794.39 1550.95 Z" fill="#000000" fill-rule="nonzero" fill-opacity="1" /><path clip-path="url(#clip500)" d="M1821.94 1537.96 L1826.2 1537.96 L1826.2 1563.89 L1821.94 1563.89 L1821.94 1537.96 M1821.94 1527.87 L1826.2 1527.87 L1826.2 1533.26 L1821.94 1533.26 L1821.94 1527.87 Z" fill="#000000" fill-rule="nonzero" fill-opacity="1" /><path clip-path="url(#clip500)" d="M1848.23 1527.87 L1848.23 1531.41 L1844.16 1531.41 Q1841.87 1531.41 1840.97 1532.34 Q1840.09 1533.26 1840.09 1535.67 L1840.09 1537.96 L1847.1 1537.96 L1847.1 1541.27 L1840.09 1541.27 L1840.09 1563.89 L1835.8 1563.89 L1835.8 1541.27 L1831.73 1541.27 L1831.73 1537.96 L1835.8 1537.96 L1835.8 1536.16 Q1835.8 1531.83 1837.82 1529.86 Q1839.83 1527.87 1844.21 1527.87 L1848.23 1527.87 Z" fill="#000000" fill-rule="nonzero" fill-opacity="1" /><path clip-path="url(#clip500)" d="M1864.92 1527.87 L1864.92 1531.41 L1860.85 1531.41 Q1858.56 1531.41 1857.66 1532.34 Q1856.78 1533.26 1856.78 1535.67 L1856.78 1537.96 L1863.79 1537.96 L1863.79 1541.27 L1856.78 1541.27 L1856.78 1563.89 L1852.49 1563.89 L1852.49 1541.27 L1848.42 1541.27 L1848.42 1537.96 L1852.49 1537.96 L1852.49 1536.16 Q1852.49 1531.83 1854.51 1529.86 Q1856.52 1527.87 1860.9 1527.87 L1864.92 1527.87 Z" fill="#000000" fill-rule="nonzero" fill-opacity="1" /><path clip-path="url(#clip500)" d="M2661.47 1527.87 L2661.47 1531.41 L2657.39 1531.41 Q2655.1 1531.41 2654.2 1532.34 Q2653.32 1533.26 2653.32 1535.67 L2653.32 1537.96 L2660.33 1537.96 L2660.33 1541.27 L2653.32 1541.27 L2653.32 1563.89 L2649.04 1563.89 L2649.04 1541.27 L2644.96 1541.27 L2644.96 1537.96 L2649.04 1537.96 L2649.04 1536.16 Q2649.04 1531.83 2651.05 1529.86 Q2653.06 1527.87 2657.44 1527.87 L2661.47 1527.87 Z" fill="#000000" fill-rule="nonzero" fill-opacity="1" /><path clip-path="url(#clip500)" d="M2675.08 1540.95 Q2671.65 1540.95 2669.66 1543.63 Q2667.67 1546.3 2667.67 1550.95 Q2667.67 1555.6 2669.64 1558.29 Q2671.63 1560.95 2675.08 1560.95 Q2678.48 1560.95 2680.47 1558.26 Q2682.46 1555.58 2682.46 1550.95 Q2682.46 1546.34 2680.47 1543.66 Q2678.48 1540.95 2675.08 1540.95 M2675.08 1537.34 Q2680.63 1537.34 2683.8 1540.95 Q2686.97 1544.56 2686.97 1550.95 Q2686.97 1557.31 2683.8 1560.95 Q2680.63 1564.56 2675.08 1564.56 Q2669.5 1564.56 2666.33 1560.95 Q2663.18 1557.31 2663.18 1550.95 Q2663.18 1544.56 2666.33 1540.95 Q2669.5 1537.34 2675.08 1537.34 Z" fill="#000000" fill-rule="nonzero" fill-opacity="1" /><path clip-path="url(#clip500)" d="M2709.06 1541.94 Q2708.34 1541.53 2707.48 1541.34 Q2706.65 1541.13 2705.63 1541.13 Q2702.02 1541.13 2700.08 1543.49 Q2698.16 1545.83 2698.16 1550.23 L2698.16 1563.89 L2693.87 1563.89 L2693.87 1537.96 L2698.16 1537.96 L2698.16 1541.99 Q2699.5 1539.63 2701.65 1538.49 Q2703.8 1537.34 2706.88 1537.34 Q2707.32 1537.34 2707.85 1537.41 Q2708.39 1537.45 2709.03 1537.57 L2709.06 1541.94 Z" fill="#000000" fill-rule="nonzero" fill-opacity="1" /><path clip-path="url(#clip500)" d="M2711.05 1537.96 L2715.31 1537.96 L2720.63 1558.19 L2725.93 1537.96 L2730.96 1537.96 L2736.28 1558.19 L2741.58 1537.96 L2745.84 1537.96 L2739.06 1563.89 L2734.03 1563.89 L2728.46 1542.64 L2722.85 1563.89 L2717.83 1563.89 L2711.05 1537.96 Z" fill="#000000" fill-rule="nonzero" fill-opacity="1" /><path clip-path="url(#clip500)" d="M2764.08 1550.86 Q2758.92 1550.86 2756.93 1552.04 Q2754.94 1553.22 2754.94 1556.06 Q2754.94 1558.33 2756.42 1559.67 Q2757.92 1560.99 2760.49 1560.99 Q2764.03 1560.99 2766.16 1558.49 Q2768.32 1555.97 2768.32 1551.8 L2768.32 1550.86 L2764.08 1550.86 M2772.58 1549.1 L2772.58 1563.89 L2768.32 1563.89 L2768.32 1559.95 Q2766.86 1562.31 2764.68 1563.45 Q2762.51 1564.56 2759.36 1564.56 Q2755.38 1564.56 2753.02 1562.34 Q2750.68 1560.09 2750.68 1556.34 Q2750.68 1551.97 2753.59 1549.74 Q2756.53 1547.52 2762.34 1547.52 L2768.32 1547.52 L2768.32 1547.11 Q2768.32 1544.17 2766.37 1542.57 Q2764.45 1540.95 2760.96 1540.95 Q2758.73 1540.95 2756.63 1541.48 Q2754.52 1542.01 2752.58 1543.08 L2752.58 1539.14 Q2754.91 1538.24 2757.11 1537.8 Q2759.31 1537.34 2761.4 1537.34 Q2767.02 1537.34 2769.8 1540.25 Q2772.58 1543.17 2772.58 1549.1 Z" fill="#000000" fill-rule="nonzero" fill-opacity="1" /><path clip-path="url(#clip500)" d="M2796.37 1541.94 Q2795.65 1541.53 2794.8 1541.34 Q2793.96 1541.13 2792.95 1541.13 Q2789.34 1541.13 2787.39 1543.49 Q2785.47 1545.83 2785.47 1550.23 L2785.47 1563.89 L2781.19 1563.89 L2781.19 1537.96 L2785.47 1537.96 L2785.47 1541.99 Q2786.81 1539.63 2788.97 1538.49 Q2791.12 1537.34 2794.2 1537.34 Q2794.64 1537.34 2795.17 1537.41 Q2795.7 1537.45 2796.35 1537.57 L2796.37 1541.94 Z" fill="#000000" fill-rule="nonzero" fill-opacity="1" /><path clip-path="url(#clip500)" d="M2817.07 1541.9 L2817.07 1527.87 L2821.33 1527.87 L2821.33 1563.89 L2817.07 1563.89 L2817.07 1560 Q2815.72 1562.31 2813.66 1563.45 Q2811.63 1564.56 2808.76 1564.56 Q2804.06 1564.56 2801.09 1560.81 Q2798.15 1557.06 2798.15 1550.95 Q2798.15 1544.84 2801.09 1541.09 Q2804.06 1537.34 2808.76 1537.34 Q2811.63 1537.34 2813.66 1538.47 Q2815.72 1539.58 2817.07 1541.9 M2802.55 1550.95 Q2802.55 1555.65 2804.47 1558.33 Q2806.42 1560.99 2809.8 1560.99 Q2813.18 1560.99 2815.12 1558.33 Q2817.07 1555.65 2817.07 1550.95 Q2817.07 1546.25 2815.12 1543.59 Q2813.18 1540.9 2809.8 1540.9 Q2806.42 1540.9 2804.47 1543.59 Q2802.55 1546.25 2802.55 1550.95 Z" fill="#000000" fill-rule="nonzero" fill-opacity="1" /><path clip-path="url(#clip500)" d="M2862.23 1541.9 L2862.23 1527.87 L2866.49 1527.87 L2866.49 1563.89 L2862.23 1563.89 L2862.23 1560 Q2860.89 1562.31 2858.83 1563.45 Q2856.79 1564.56 2853.92 1564.56 Q2849.22 1564.56 2846.26 1560.81 Q2843.32 1557.06 2843.32 1550.95 Q2843.32 1544.84 2846.26 1541.09 Q2849.22 1537.34 2853.92 1537.34 Q2856.79 1537.34 2858.83 1538.47 Q2860.89 1539.58 2862.23 1541.9 M2847.71 1550.95 Q2847.71 1555.65 2849.64 1558.33 Q2851.58 1560.99 2854.96 1560.99 Q2858.34 1560.99 2860.28 1558.33 Q2862.23 1555.65 2862.23 1550.95 Q2862.23 1546.25 2860.28 1543.59 Q2858.34 1540.9 2854.96 1540.9 Q2851.58 1540.9 2849.64 1543.59 Q2847.71 1546.25 2847.71 1550.95 Z" fill="#000000" fill-rule="nonzero" fill-opacity="1" /><path clip-path="url(#clip500)" d="M2875.26 1537.96 L2879.52 1537.96 L2879.52 1563.89 L2875.26 1563.89 L2875.26 1537.96 M2875.26 1527.87 L2879.52 1527.87 L2879.52 1533.26 L2875.26 1533.26 L2875.26 1527.87 Z" fill="#000000" fill-rule="nonzero" fill-opacity="1" /><path clip-path="url(#clip500)" d="M2901.56 1527.87 L2901.56 1531.41 L2897.48 1531.41 Q2895.19 1531.41 2894.29 1532.34 Q2893.41 1533.26 2893.41 1535.67 L2893.41 1537.96 L2900.42 1537.96 L2900.42 1541.27 L2893.41 1541.27 L2893.41 1563.89 L2889.13 1563.89 L2889.13 1541.27 L2885.05 1541.27 L2885.05 1537.96 L2889.13 1537.96 L2889.13 1536.16 Q2889.13 1531.83 2891.14 1529.86 Q2893.15 1527.87 2897.53 1527.87 L2901.56 1527.87 Z" fill="#000000" fill-rule="nonzero" fill-opacity="1" /><path clip-path="url(#clip500)" d="M2918.25 1527.87 L2918.25 1531.41 L2914.17 1531.41 Q2911.88 1531.41 2910.98 1532.34 Q2910.1 1533.26 2910.1 1535.67 L2910.1 1537.96 L2917.11 1537.96 L2917.11 1541.27 L2910.1 1541.27 L2910.1 1563.89 L2905.82 1563.89 L2905.82 1541.27 L2901.74 1541.27 L2901.74 1537.96 L2905.82 1537.96 L2905.82 1536.16 Q2905.82 1531.83 2907.83 1529.86 Q2909.84 1527.87 2914.22 1527.87 L2918.25 1527.87 Z" fill="#000000" fill-rule="nonzero" fill-opacity="1" /><polyline clip-path="url(#clip500)" style="stroke:#000000; stroke-linecap:round; stroke-linejoin:round; stroke-width:4; stroke-opacity:1; fill:none" points="364.733,1495.09 364.733,47.2441 "/>
<polyline clip-path="url(#clip500)" style="stroke:#000000; stroke-linecap:round; stroke-linejoin:round; stroke-width:4; stroke-opacity:1; fill:none" points="364.733,1387.56 383.63,1387.56 "/>
<polyline clip-path="url(#clip500)" style="stroke:#000000; stroke-linecap:round; stroke-linejoin:round; stroke-width:4; stroke-opacity:1; fill:none" points="364.733,1141.94 383.63,1141.94 "/>
<polyline clip-path="url(#clip500)" style="stroke:#000000; stroke-linecap:round; stroke-linejoin:round; stroke-width:4; stroke-opacity:1; fill:none" points="364.733,896.323 383.63,896.323 "/>
<polyline clip-path="url(#clip500)" style="stroke:#000000; stroke-linecap:round; stroke-linejoin:round; stroke-width:4; stroke-opacity:1; fill:none" points="364.733,650.705 383.63,650.705 "/>
<polyline clip-path="url(#clip500)" style="stroke:#000000; stroke-linecap:round; stroke-linejoin:round; stroke-width:4; stroke-opacity:1; fill:none" points="364.733,405.088 383.63,405.088 "/>
<polyline clip-path="url(#clip500)" style="stroke:#000000; stroke-linecap:round; stroke-linejoin:round; stroke-width:4; stroke-opacity:1; fill:none" points="364.733,159.471 383.63,159.471 "/>
<path clip-path="url(#clip500)" d="M100.137 1376.72 L118.493 1376.72 L118.493 1380.66 L104.419 1380.66 L104.419 1389.13 Q105.437 1388.78 106.456 1388.62 Q107.474 1388.44 108.493 1388.44 Q114.28 1388.44 117.66 1391.61 Q121.039 1394.78 121.039 1400.2 Q121.039 1405.78 117.567 1408.88 Q114.095 1411.96 107.775 1411.96 Q105.599 1411.96 103.331 1411.59 Q101.086 1411.21 98.6782 1410.47 L98.6782 1405.78 Q100.762 1406.91 102.984 1407.46 Q105.206 1408.02 107.683 1408.02 Q111.687 1408.02 114.025 1405.91 Q116.363 1403.81 116.363 1400.2 Q116.363 1396.59 114.025 1394.48 Q111.687 1392.37 107.683 1392.37 Q105.808 1392.37 103.933 1392.79 Q102.081 1393.21 100.137 1394.09 L100.137 1376.72 Z" fill="#000000" fill-rule="nonzero" fill-opacity="1" /><path clip-path="url(#clip500)" d="M130.252 1405.4 L135.136 1405.4 L135.136 1411.28 L130.252 1411.28 L130.252 1405.4 Z" fill="#000000" fill-rule="nonzero" fill-opacity="1" /><path clip-path="url(#clip500)" d="M155.321 1379.8 Q151.71 1379.8 149.882 1383.37 Q148.076 1386.91 148.076 1394.04 Q148.076 1401.15 149.882 1404.71 Q151.71 1408.25 155.321 1408.25 Q158.956 1408.25 160.761 1404.71 Q162.59 1401.15 162.59 1394.04 Q162.59 1386.91 160.761 1383.37 Q158.956 1379.8 155.321 1379.8 M155.321 1376.1 Q161.132 1376.1 164.187 1380.71 Q167.266 1385.29 167.266 1394.04 Q167.266 1402.77 164.187 1407.37 Q161.132 1411.96 155.321 1411.96 Q149.511 1411.96 146.433 1407.37 Q143.377 1402.77 143.377 1394.04 Q143.377 1385.29 146.433 1380.71 Q149.511 1376.1 155.321 1376.1 Z" fill="#000000" fill-rule="nonzero" fill-opacity="1" /><path clip-path="url(#clip500)" d="M185.483 1379.8 Q181.872 1379.8 180.043 1383.37 Q178.238 1386.91 178.238 1394.04 Q178.238 1401.15 180.043 1404.71 Q181.872 1408.25 185.483 1408.25 Q189.118 1408.25 190.923 1404.71 Q192.752 1401.15 192.752 1394.04 Q192.752 1386.91 190.923 1383.37 Q189.118 1379.8 185.483 1379.8 M185.483 1376.1 Q191.293 1376.1 194.349 1380.71 Q197.428 1385.29 197.428 1394.04 Q197.428 1402.77 194.349 1407.37 Q191.293 1411.96 185.483 1411.96 Q179.673 1411.96 176.594 1407.37 Q173.539 1402.77 173.539 1394.04 Q173.539 1385.29 176.594 1380.71 Q179.673 1376.1 185.483 1376.1 Z" fill="#000000" fill-rule="nonzero" fill-opacity="1" /><path clip-path="url(#clip500)" d="M233.816 1385.82 L223.238 1396.45 L233.816 1407.03 L231.062 1409.83 L220.437 1399.2 L209.812 1409.83 L207.08 1407.03 L217.636 1396.45 L207.08 1385.82 L209.812 1383.02 L220.437 1393.65 L231.062 1383.02 L233.816 1385.82 Z" fill="#000000" fill-rule="nonzero" fill-opacity="1" /><path clip-path="url(#clip500)" d="M246.177 1407.35 L253.816 1407.35 L253.816 1380.98 L245.506 1382.65 L245.506 1378.39 L253.77 1376.72 L258.446 1376.72 L258.446 1407.35 L266.085 1407.35 L266.085 1411.28 L246.177 1411.28 L246.177 1407.35 Z" fill="#000000" fill-rule="nonzero" fill-opacity="1" /><path clip-path="url(#clip500)" d="M285.529 1379.8 Q281.918 1379.8 280.089 1383.37 Q278.284 1386.91 278.284 1394.04 Q278.284 1401.15 280.089 1404.71 Q281.918 1408.25 285.529 1408.25 Q289.163 1408.25 290.969 1404.71 Q292.798 1401.15 292.798 1394.04 Q292.798 1386.91 290.969 1383.37 Q289.163 1379.8 285.529 1379.8 M285.529 1376.1 Q291.339 1376.1 294.395 1380.71 Q297.473 1385.29 297.473 1394.04 Q297.473 1402.77 294.395 1407.37 Q291.339 1411.96 285.529 1411.96 Q279.719 1411.96 276.64 1407.37 Q273.585 1402.77 273.585 1394.04 Q273.585 1385.29 276.64 1380.71 Q279.719 1376.1 285.529 1376.1 Z" fill="#000000" fill-rule="nonzero" fill-opacity="1" /><path clip-path="url(#clip500)" d="M307.103 1370.54 Q304.395 1370.54 302.834 1371.99 Q301.291 1373.44 301.291 1375.97 Q301.291 1378.51 302.834 1379.96 Q304.395 1381.41 307.103 1381.41 Q309.811 1381.41 311.372 1379.96 Q312.933 1378.49 312.933 1375.97 Q312.933 1373.44 311.372 1371.99 Q309.83 1370.54 307.103 1370.54 M303.304 1368.92 Q300.859 1368.32 299.486 1366.65 Q298.132 1364.97 298.132 1362.56 Q298.132 1359.2 300.52 1357.24 Q302.928 1355.29 307.103 1355.29 Q311.297 1355.29 313.686 1357.24 Q316.074 1359.2 316.074 1362.56 Q316.074 1364.97 314.701 1366.65 Q313.347 1368.32 310.921 1368.92 Q313.667 1369.56 315.19 1371.42 Q316.733 1373.29 316.733 1375.97 Q316.733 1380.06 314.231 1382.24 Q311.749 1384.42 307.103 1384.42 Q302.457 1384.42 299.956 1382.24 Q297.473 1380.06 297.473 1375.97 Q297.473 1373.29 299.016 1371.42 Q300.558 1369.56 303.304 1368.92 M301.912 1362.92 Q301.912 1365.1 303.266 1366.33 Q304.639 1367.55 307.103 1367.55 Q309.548 1367.55 310.921 1366.33 Q312.313 1365.1 312.313 1362.92 Q312.313 1360.74 310.921 1359.52 Q309.548 1358.3 307.103 1358.3 Q304.639 1358.3 303.266 1359.52 Q301.912 1360.74 301.912 1362.92 Z" fill="#000000" fill-rule="nonzero" fill-opacity="1" /><path clip-path="url(#clip500)" d="M100.788 1161.73 L108.426 1161.73 L108.426 1135.37 L100.116 1137.03 L100.116 1132.77 L108.38 1131.11 L113.056 1131.11 L113.056 1161.73 L120.695 1161.73 L120.695 1165.67 L100.788 1165.67 L100.788 1161.73 Z" fill="#000000" fill-rule="nonzero" fill-opacity="1" /><path clip-path="url(#clip500)" d="M130.139 1159.79 L135.023 1159.79 L135.023 1165.67 L130.139 1165.67 L130.139 1159.79 Z" fill="#000000" fill-rule="nonzero" fill-opacity="1" /><path clip-path="url(#clip500)" d="M155.209 1134.19 Q151.597 1134.19 149.769 1137.75 Q147.963 1141.29 147.963 1148.42 Q147.963 1155.53 149.769 1159.09 Q151.597 1162.63 155.209 1162.63 Q158.843 1162.63 160.648 1159.09 Q162.477 1155.53 162.477 1148.42 Q162.477 1141.29 160.648 1137.75 Q158.843 1134.19 155.209 1134.19 M155.209 1130.48 Q161.019 1130.48 164.074 1135.09 Q167.153 1139.67 167.153 1148.42 Q167.153 1157.15 164.074 1161.76 Q161.019 1166.34 155.209 1166.34 Q149.398 1166.34 146.32 1161.76 Q143.264 1157.15 143.264 1148.42 Q143.264 1139.67 146.32 1135.09 Q149.398 1130.48 155.209 1130.48 Z" fill="#000000" fill-rule="nonzero" fill-opacity="1" /><path clip-path="url(#clip500)" d="M185.37 1134.19 Q181.759 1134.19 179.931 1137.75 Q178.125 1141.29 178.125 1148.42 Q178.125 1155.53 179.931 1159.09 Q181.759 1162.63 185.37 1162.63 Q189.005 1162.63 190.81 1159.09 Q192.639 1155.53 192.639 1148.42 Q192.639 1141.29 190.81 1137.75 Q189.005 1134.19 185.37 1134.19 M185.37 1130.48 Q191.181 1130.48 194.236 1135.09 Q197.315 1139.67 197.315 1148.42 Q197.315 1157.15 194.236 1161.76 Q191.181 1166.34 185.37 1166.34 Q179.56 1166.34 176.482 1161.76 Q173.426 1157.15 173.426 1148.42 Q173.426 1139.67 176.482 1135.09 Q179.56 1130.48 185.37 1130.48 Z" fill="#000000" fill-rule="nonzero" fill-opacity="1" /><path clip-path="url(#clip500)" d="M233.704 1140.2 L223.125 1150.83 L233.704 1161.41 L230.949 1164.21 L220.324 1153.58 L209.699 1164.21 L206.968 1161.41 L217.523 1150.83 L206.968 1140.2 L209.699 1137.4 L220.324 1148.03 L230.949 1137.4 L233.704 1140.2 Z" fill="#000000" fill-rule="nonzero" fill-opacity="1" /><path clip-path="url(#clip500)" d="M246.065 1161.73 L253.703 1161.73 L253.703 1135.37 L245.393 1137.03 L245.393 1132.77 L253.657 1131.11 L258.333 1131.11 L258.333 1161.73 L265.972 1161.73 L265.972 1165.67 L246.065 1165.67 L246.065 1161.73 Z" fill="#000000" fill-rule="nonzero" fill-opacity="1" /><path clip-path="url(#clip500)" d="M285.416 1134.19 Q281.805 1134.19 279.976 1137.75 Q278.171 1141.29 278.171 1148.42 Q278.171 1155.53 279.976 1159.09 Q281.805 1162.63 285.416 1162.63 Q289.05 1162.63 290.856 1159.09 Q292.685 1155.53 292.685 1148.42 Q292.685 1141.29 290.856 1137.75 Q289.05 1134.19 285.416 1134.19 M285.416 1130.48 Q291.226 1130.48 294.282 1135.09 Q297.361 1139.67 297.361 1148.42 Q297.361 1157.15 294.282 1161.76 Q291.226 1166.34 285.416 1166.34 Q279.606 1166.34 276.527 1161.76 Q273.472 1157.15 273.472 1148.42 Q273.472 1139.67 276.527 1135.09 Q279.606 1130.48 285.416 1130.48 Z" fill="#000000" fill-rule="nonzero" fill-opacity="1" /><path clip-path="url(#clip500)" d="M299.166 1137.67 L299.166 1134.21 Q300.596 1134.89 302.063 1135.25 Q303.53 1135.6 304.94 1135.6 Q308.702 1135.6 310.676 1133.08 Q312.67 1130.55 312.952 1125.39 Q311.861 1127.01 310.187 1127.87 Q308.514 1128.74 306.482 1128.74 Q302.269 1128.74 299.806 1126.2 Q297.361 1123.64 297.361 1119.22 Q297.361 1114.9 299.918 1112.28 Q302.476 1109.67 306.727 1109.67 Q311.598 1109.67 314.156 1113.41 Q316.733 1117.14 316.733 1124.24 Q316.733 1130.88 313.573 1134.85 Q310.432 1138.8 305.109 1138.8 Q303.68 1138.8 302.213 1138.52 Q300.746 1138.24 299.166 1137.67 M306.727 1125.77 Q309.285 1125.77 310.771 1124.02 Q312.275 1122.27 312.275 1119.22 Q312.275 1116.2 310.771 1114.45 Q309.285 1112.68 306.727 1112.68 Q304.169 1112.68 302.664 1114.45 Q301.179 1116.2 301.179 1119.22 Q301.179 1122.27 302.664 1124.02 Q304.169 1125.77 306.727 1125.77 Z" fill="#000000" fill-rule="nonzero" fill-opacity="1" /><path clip-path="url(#clip500)" d="M100.788 916.115 L108.426 916.115 L108.426 889.749 L100.116 891.416 L100.116 887.157 L108.38 885.49 L113.056 885.49 L113.056 916.115 L120.695 916.115 L120.695 920.05 L100.788 920.05 L100.788 916.115 Z" fill="#000000" fill-rule="nonzero" fill-opacity="1" /><path clip-path="url(#clip500)" d="M130.139 914.171 L135.023 914.171 L135.023 920.05 L130.139 920.05 L130.139 914.171 Z" fill="#000000" fill-rule="nonzero" fill-opacity="1" /><path clip-path="url(#clip500)" d="M145.255 885.49 L163.611 885.49 L163.611 889.425 L149.537 889.425 L149.537 897.897 Q150.556 897.55 151.574 897.388 Q152.593 897.203 153.611 897.203 Q159.398 897.203 162.778 900.374 Q166.158 903.546 166.158 908.962 Q166.158 914.541 162.685 917.643 Q159.213 920.721 152.894 920.721 Q150.718 920.721 148.449 920.351 Q146.204 919.981 143.797 919.24 L143.797 914.541 Q145.88 915.675 148.102 916.231 Q150.324 916.786 152.801 916.786 Q156.806 916.786 159.144 914.68 Q161.482 912.573 161.482 908.962 Q161.482 905.351 159.144 903.245 Q156.806 901.138 152.801 901.138 Q150.926 901.138 149.051 901.555 Q147.199 901.972 145.255 902.851 L145.255 885.49 Z" fill="#000000" fill-rule="nonzero" fill-opacity="1" /><path clip-path="url(#clip500)" d="M185.37 888.569 Q181.759 888.569 179.931 892.134 Q178.125 895.675 178.125 902.805 Q178.125 909.911 179.931 913.476 Q181.759 917.018 185.37 917.018 Q189.005 917.018 190.81 913.476 Q192.639 909.911 192.639 902.805 Q192.639 895.675 190.81 892.134 Q189.005 888.569 185.37 888.569 M185.37 884.865 Q191.181 884.865 194.236 889.472 Q197.315 894.055 197.315 902.805 Q197.315 911.532 194.236 916.138 Q191.181 920.721 185.37 920.721 Q179.56 920.721 176.482 916.138 Q173.426 911.532 173.426 902.805 Q173.426 894.055 176.482 889.472 Q179.56 884.865 185.37 884.865 Z" fill="#000000" fill-rule="nonzero" fill-opacity="1" /><path clip-path="url(#clip500)" d="M233.704 894.587 L223.125 905.212 L233.704 915.791 L230.949 918.592 L220.324 907.967 L209.699 918.592 L206.968 915.791 L217.523 905.212 L206.968 894.587 L209.699 891.786 L220.324 902.411 L230.949 891.786 L233.704 894.587 Z" fill="#000000" fill-rule="nonzero" fill-opacity="1" /><path clip-path="url(#clip500)" d="M246.065 916.115 L253.703 916.115 L253.703 889.749 L245.393 891.416 L245.393 887.157 L253.657 885.49 L258.333 885.49 L258.333 916.115 L265.972 916.115 L265.972 920.05 L246.065 920.05 L246.065 916.115 Z" fill="#000000" fill-rule="nonzero" fill-opacity="1" /><path clip-path="url(#clip500)" d="M285.416 888.569 Q281.805 888.569 279.976 892.134 Q278.171 895.675 278.171 902.805 Q278.171 909.911 279.976 913.476 Q281.805 917.018 285.416 917.018 Q289.05 917.018 290.856 913.476 Q292.685 909.911 292.685 902.805 Q292.685 895.675 290.856 892.134 Q289.05 888.569 285.416 888.569 M285.416 884.865 Q291.226 884.865 294.282 889.472 Q297.361 894.055 297.361 902.805 Q297.361 911.532 294.282 916.138 Q291.226 920.721 285.416 920.721 Q279.606 920.721 276.527 916.138 Q273.472 911.532 273.472 902.805 Q273.472 894.055 276.527 889.472 Q279.606 884.865 285.416 884.865 Z" fill="#000000" fill-rule="nonzero" fill-opacity="1" /><path clip-path="url(#clip500)" d="M299.166 892.057 L299.166 888.596 Q300.596 889.273 302.063 889.63 Q303.53 889.988 304.94 889.988 Q308.702 889.988 310.676 887.468 Q312.67 884.929 312.952 879.775 Q311.861 881.393 310.187 882.258 Q308.514 883.123 306.482 883.123 Q302.269 883.123 299.806 880.584 Q297.361 878.026 297.361 873.606 Q297.361 869.28 299.918 866.666 Q302.476 864.052 306.727 864.052 Q311.598 864.052 314.156 867.795 Q316.733 871.519 316.733 878.628 Q316.733 885.267 313.573 889.236 Q310.432 893.185 305.109 893.185 Q303.68 893.185 302.213 892.903 Q300.746 892.621 299.166 892.057 M306.727 880.151 Q309.285 880.151 310.771 878.402 Q312.275 876.653 312.275 873.606 Q312.275 870.578 310.771 868.829 Q309.285 867.061 306.727 867.061 Q304.169 867.061 302.664 868.829 Q301.179 870.578 301.179 873.606 Q301.179 876.653 302.664 878.402 Q304.169 880.151 306.727 880.151 Z" fill="#000000" fill-rule="nonzero" fill-opacity="1" /><path clip-path="url(#clip500)" d="M104.005 670.498 L120.324 670.498 L120.324 674.433 L98.3802 674.433 L98.3802 670.498 Q101.042 667.743 105.625 663.114 Q110.232 658.461 111.412 657.118 Q113.658 654.595 114.537 652.859 Q115.44 651.1 115.44 649.41 Q115.44 646.655 113.496 644.919 Q111.575 643.183 108.473 643.183 Q106.274 643.183 103.82 643.947 Q101.389 644.711 98.6116 646.262 L98.6116 641.54 Q101.436 640.405 103.889 639.827 Q106.343 639.248 108.38 639.248 Q113.75 639.248 116.945 641.933 Q120.139 644.618 120.139 649.109 Q120.139 651.239 119.329 653.16 Q118.542 655.058 116.436 657.651 Q115.857 658.322 112.755 661.54 Q109.653 664.734 104.005 670.498 Z" fill="#000000" fill-rule="nonzero" fill-opacity="1" /><path clip-path="url(#clip500)" d="M130.139 668.553 L135.023 668.553 L135.023 674.433 L130.139 674.433 L130.139 668.553 Z" fill="#000000" fill-rule="nonzero" fill-opacity="1" /><path clip-path="url(#clip500)" d="M155.209 642.952 Q151.597 642.952 149.769 646.517 Q147.963 650.058 147.963 657.188 Q147.963 664.294 149.769 667.859 Q151.597 671.401 155.209 671.401 Q158.843 671.401 160.648 667.859 Q162.477 664.294 162.477 657.188 Q162.477 650.058 160.648 646.517 Q158.843 642.952 155.209 642.952 M155.209 639.248 Q161.019 639.248 164.074 643.855 Q167.153 648.438 167.153 657.188 Q167.153 665.915 164.074 670.521 Q161.019 675.104 155.209 675.104 Q149.398 675.104 146.32 670.521 Q143.264 665.915 143.264 657.188 Q143.264 648.438 146.32 643.855 Q149.398 639.248 155.209 639.248 Z" fill="#000000" fill-rule="nonzero" fill-opacity="1" /><path clip-path="url(#clip500)" d="M185.37 642.952 Q181.759 642.952 179.931 646.517 Q178.125 650.058 178.125 657.188 Q178.125 664.294 179.931 667.859 Q181.759 671.401 185.37 671.401 Q189.005 671.401 190.81 667.859 Q192.639 664.294 192.639 657.188 Q192.639 650.058 190.81 646.517 Q189.005 642.952 185.37 642.952 M185.37 639.248 Q191.181 639.248 194.236 643.855 Q197.315 648.438 197.315 657.188 Q197.315 665.915 194.236 670.521 Q191.181 675.104 185.37 675.104 Q179.56 675.104 176.482 670.521 Q173.426 665.915 173.426 657.188 Q173.426 648.438 176.482 643.855 Q179.56 639.248 185.37 639.248 Z" fill="#000000" fill-rule="nonzero" fill-opacity="1" /><path clip-path="url(#clip500)" d="M233.704 648.97 L223.125 659.595 L233.704 670.174 L230.949 672.975 L220.324 662.35 L209.699 672.975 L206.968 670.174 L217.523 659.595 L206.968 648.97 L209.699 646.169 L220.324 656.794 L230.949 646.169 L233.704 648.97 Z" fill="#000000" fill-rule="nonzero" fill-opacity="1" /><path clip-path="url(#clip500)" d="M246.065 670.498 L253.703 670.498 L253.703 644.132 L245.393 645.799 L245.393 641.54 L253.657 639.873 L258.333 639.873 L258.333 670.498 L265.972 670.498 L265.972 674.433 L246.065 674.433 L246.065 670.498 Z" fill="#000000" fill-rule="nonzero" fill-opacity="1" /><path clip-path="url(#clip500)" d="M285.416 642.952 Q281.805 642.952 279.976 646.517 Q278.171 650.058 278.171 657.188 Q278.171 664.294 279.976 667.859 Q281.805 671.401 285.416 671.401 Q289.05 671.401 290.856 667.859 Q292.685 664.294 292.685 657.188 Q292.685 650.058 290.856 646.517 Q289.05 642.952 285.416 642.952 M285.416 639.248 Q291.226 639.248 294.282 643.855 Q297.361 648.438 297.361 657.188 Q297.361 665.915 294.282 670.521 Q291.226 675.104 285.416 675.104 Q279.606 675.104 276.527 670.521 Q273.472 665.915 273.472 657.188 Q273.472 648.438 276.527 643.855 Q279.606 639.248 285.416 639.248 Z" fill="#000000" fill-rule="nonzero" fill-opacity="1" /><path clip-path="url(#clip500)" d="M299.166 646.44 L299.166 642.979 Q300.596 643.656 302.063 644.013 Q303.53 644.371 304.94 644.371 Q308.702 644.371 310.676 641.851 Q312.67 639.311 312.952 634.158 Q311.861 635.776 310.187 636.641 Q308.514 637.506 306.482 637.506 Q302.269 637.506 299.806 634.967 Q297.361 632.409 297.361 627.989 Q297.361 623.663 299.918 621.049 Q302.476 618.435 306.727 618.435 Q311.598 618.435 314.156 622.178 Q316.733 625.902 316.733 633.011 Q316.733 639.65 313.573 643.618 Q310.432 647.568 305.109 647.568 Q303.68 647.568 302.213 647.286 Q300.746 647.004 299.166 646.44 M306.727 634.534 Q309.285 634.534 310.771 632.785 Q312.275 631.036 312.275 627.989 Q312.275 624.961 310.771 623.212 Q309.285 621.444 306.727 621.444 Q304.169 621.444 302.664 623.212 Q301.179 624.961 301.179 627.989 Q301.179 631.036 302.664 632.785 Q304.169 634.534 306.727 634.534 Z" fill="#000000" fill-rule="nonzero" fill-opacity="1" /><path clip-path="url(#clip500)" d="M104.005 424.881 L120.324 424.881 L120.324 428.816 L98.3802 428.816 L98.3802 424.881 Q101.042 422.126 105.625 417.497 Q110.232 412.844 111.412 411.501 Q113.658 408.978 114.537 407.242 Q115.44 405.483 115.44 403.793 Q115.44 401.038 113.496 399.302 Q111.575 397.566 108.473 397.566 Q106.274 397.566 103.82 398.33 Q101.389 399.094 98.6116 400.645 L98.6116 395.923 Q101.436 394.788 103.889 394.21 Q106.343 393.631 108.38 393.631 Q113.75 393.631 116.945 396.316 Q120.139 399.001 120.139 403.492 Q120.139 405.622 119.329 407.543 Q118.542 409.441 116.436 412.034 Q115.857 412.705 112.755 415.923 Q109.653 419.117 104.005 424.881 Z" fill="#000000" fill-rule="nonzero" fill-opacity="1" /><path clip-path="url(#clip500)" d="M130.139 422.936 L135.023 422.936 L135.023 428.816 L130.139 428.816 L130.139 422.936 Z" fill="#000000" fill-rule="nonzero" fill-opacity="1" /><path clip-path="url(#clip500)" d="M145.255 394.256 L163.611 394.256 L163.611 398.191 L149.537 398.191 L149.537 406.663 Q150.556 406.316 151.574 406.154 Q152.593 405.969 153.611 405.969 Q159.398 405.969 162.778 409.14 Q166.158 412.311 166.158 417.728 Q166.158 423.307 162.685 426.409 Q159.213 429.487 152.894 429.487 Q150.718 429.487 148.449 429.117 Q146.204 428.747 143.797 428.006 L143.797 423.307 Q145.88 424.441 148.102 424.997 Q150.324 425.552 152.801 425.552 Q156.806 425.552 159.144 423.446 Q161.482 421.339 161.482 417.728 Q161.482 414.117 159.144 412.011 Q156.806 409.904 152.801 409.904 Q150.926 409.904 149.051 410.321 Q147.199 410.737 145.255 411.617 L145.255 394.256 Z" fill="#000000" fill-rule="nonzero" fill-opacity="1" /><path clip-path="url(#clip500)" d="M185.37 397.335 Q181.759 397.335 179.931 400.899 Q178.125 404.441 178.125 411.571 Q178.125 418.677 179.931 422.242 Q181.759 425.784 185.37 425.784 Q189.005 425.784 190.81 422.242 Q192.639 418.677 192.639 411.571 Q192.639 404.441 190.81 400.899 Q189.005 397.335 185.37 397.335 M185.37 393.631 Q191.181 393.631 194.236 398.237 Q197.315 402.821 197.315 411.571 Q197.315 420.298 194.236 424.904 Q191.181 429.487 185.37 429.487 Q179.56 429.487 176.482 424.904 Q173.426 420.298 173.426 411.571 Q173.426 402.821 176.482 398.237 Q179.56 393.631 185.37 393.631 Z" fill="#000000" fill-rule="nonzero" fill-opacity="1" /><path clip-path="url(#clip500)" d="M233.704 403.353 L223.125 413.978 L233.704 424.557 L230.949 427.358 L220.324 416.733 L209.699 427.358 L206.968 424.557 L217.523 413.978 L206.968 403.353 L209.699 400.552 L220.324 411.177 L230.949 400.552 L233.704 403.353 Z" fill="#000000" fill-rule="nonzero" fill-opacity="1" /><path clip-path="url(#clip500)" d="M246.065 424.881 L253.703 424.881 L253.703 398.515 L245.393 400.182 L245.393 395.923 L253.657 394.256 L258.333 394.256 L258.333 424.881 L265.972 424.881 L265.972 428.816 L246.065 428.816 L246.065 424.881 Z" fill="#000000" fill-rule="nonzero" fill-opacity="1" /><path clip-path="url(#clip500)" d="M285.416 397.335 Q281.805 397.335 279.976 400.899 Q278.171 404.441 278.171 411.571 Q278.171 418.677 279.976 422.242 Q281.805 425.784 285.416 425.784 Q289.05 425.784 290.856 422.242 Q292.685 418.677 292.685 411.571 Q292.685 404.441 290.856 400.899 Q289.05 397.335 285.416 397.335 M285.416 393.631 Q291.226 393.631 294.282 398.237 Q297.361 402.821 297.361 411.571 Q297.361 420.298 294.282 424.904 Q291.226 429.487 285.416 429.487 Q279.606 429.487 276.527 424.904 Q273.472 420.298 273.472 411.571 Q273.472 402.821 276.527 398.237 Q279.606 393.631 285.416 393.631 Z" fill="#000000" fill-rule="nonzero" fill-opacity="1" /><path clip-path="url(#clip500)" d="M299.166 400.823 L299.166 397.362 Q300.596 398.039 302.063 398.396 Q303.53 398.754 304.94 398.754 Q308.702 398.754 310.676 396.233 Q312.67 393.694 312.952 388.541 Q311.861 390.159 310.187 391.024 Q308.514 391.889 306.482 391.889 Q302.269 391.889 299.806 389.35 Q297.361 386.792 297.361 382.372 Q297.361 378.046 299.918 375.432 Q302.476 372.818 306.727 372.818 Q311.598 372.818 314.156 376.561 Q316.733 380.284 316.733 387.394 Q316.733 394.033 313.573 398.001 Q310.432 401.951 305.109 401.951 Q303.68 401.951 302.213 401.669 Q300.746 401.387 299.166 400.823 M306.727 388.917 Q309.285 388.917 310.771 387.168 Q312.275 385.419 312.275 382.372 Q312.275 379.344 310.771 377.595 Q309.285 375.827 306.727 375.827 Q304.169 375.827 302.664 377.595 Q301.179 379.344 301.179 382.372 Q301.179 385.419 302.664 387.168 Q304.169 388.917 306.727 388.917 Z" fill="#000000" fill-rule="nonzero" fill-opacity="1" /><path clip-path="url(#clip500)" d="M114.144 164.565 Q117.5 165.282 119.375 167.551 Q121.274 169.819 121.274 173.153 Q121.274 178.268 117.755 181.069 Q114.237 183.87 107.755 183.87 Q105.579 183.87 103.264 183.43 Q100.973 183.014 98.519 182.157 L98.519 177.643 Q100.463 178.778 102.778 179.356 Q105.093 179.935 107.616 179.935 Q112.014 179.935 114.306 178.199 Q116.621 176.463 116.621 173.153 Q116.621 170.097 114.468 168.384 Q112.338 166.648 108.519 166.648 L104.491 166.648 L104.491 162.806 L108.704 162.806 Q112.153 162.806 113.982 161.44 Q115.811 160.051 115.811 157.458 Q115.811 154.796 113.912 153.384 Q112.037 151.949 108.519 151.949 Q106.598 151.949 104.399 152.366 Q102.2 152.782 99.5607 153.662 L99.5607 149.495 Q102.223 148.755 104.538 148.384 Q106.875 148.014 108.936 148.014 Q114.26 148.014 117.362 150.444 Q120.463 152.852 120.463 156.972 Q120.463 159.843 118.82 161.833 Q117.176 163.801 114.144 164.565 Z" fill="#000000" fill-rule="nonzero" fill-opacity="1" /><path clip-path="url(#clip500)" d="M130.139 177.319 L135.023 177.319 L135.023 183.199 L130.139 183.199 L130.139 177.319 Z" fill="#000000" fill-rule="nonzero" fill-opacity="1" /><path clip-path="url(#clip500)" d="M155.209 151.718 Q151.597 151.718 149.769 155.282 Q147.963 158.824 147.963 165.954 Q147.963 173.06 149.769 176.625 Q151.597 180.167 155.209 180.167 Q158.843 180.167 160.648 176.625 Q162.477 173.06 162.477 165.954 Q162.477 158.824 160.648 155.282 Q158.843 151.718 155.209 151.718 M155.209 148.014 Q161.019 148.014 164.074 152.62 Q167.153 157.204 167.153 165.954 Q167.153 174.68 164.074 179.287 Q161.019 183.87 155.209 183.87 Q149.398 183.87 146.32 179.287 Q143.264 174.68 143.264 165.954 Q143.264 157.204 146.32 152.62 Q149.398 148.014 155.209 148.014 Z" fill="#000000" fill-rule="nonzero" fill-opacity="1" /><path clip-path="url(#clip500)" d="M185.37 151.718 Q181.759 151.718 179.931 155.282 Q178.125 158.824 178.125 165.954 Q178.125 173.06 179.931 176.625 Q181.759 180.167 185.37 180.167 Q189.005 180.167 190.81 176.625 Q192.639 173.06 192.639 165.954 Q192.639 158.824 190.81 155.282 Q189.005 151.718 185.37 151.718 M185.37 148.014 Q191.181 148.014 194.236 152.62 Q197.315 157.204 197.315 165.954 Q197.315 174.68 194.236 179.287 Q191.181 183.87 185.37 183.87 Q179.56 183.87 176.482 179.287 Q173.426 174.68 173.426 165.954 Q173.426 157.204 176.482 152.62 Q179.56 148.014 185.37 148.014 Z" fill="#000000" fill-rule="nonzero" fill-opacity="1" /><path clip-path="url(#clip500)" d="M233.704 157.736 L223.125 168.361 L233.704 178.94 L230.949 181.741 L220.324 171.116 L209.699 181.741 L206.968 178.94 L217.523 168.361 L206.968 157.736 L209.699 154.935 L220.324 165.56 L230.949 154.935 L233.704 157.736 Z" fill="#000000" fill-rule="nonzero" fill-opacity="1" /><path clip-path="url(#clip500)" d="M246.065 179.264 L253.703 179.264 L253.703 152.898 L245.393 154.565 L245.393 150.306 L253.657 148.639 L258.333 148.639 L258.333 179.264 L265.972 179.264 L265.972 183.199 L246.065 183.199 L246.065 179.264 Z" fill="#000000" fill-rule="nonzero" fill-opacity="1" /><path clip-path="url(#clip500)" d="M285.416 151.718 Q281.805 151.718 279.976 155.282 Q278.171 158.824 278.171 165.954 Q278.171 173.06 279.976 176.625 Q281.805 180.167 285.416 180.167 Q289.05 180.167 290.856 176.625 Q292.685 173.06 292.685 165.954 Q292.685 158.824 290.856 155.282 Q289.05 151.718 285.416 151.718 M285.416 148.014 Q291.226 148.014 294.282 152.62 Q297.361 157.204 297.361 165.954 Q297.361 174.68 294.282 179.287 Q291.226 183.87 285.416 183.87 Q279.606 183.87 276.527 179.287 Q273.472 174.68 273.472 165.954 Q273.472 157.204 276.527 152.62 Q279.606 148.014 285.416 148.014 Z" fill="#000000" fill-rule="nonzero" fill-opacity="1" /><path clip-path="url(#clip500)" d="M299.166 155.205 L299.166 151.745 Q300.596 152.422 302.063 152.779 Q303.53 153.137 304.94 153.137 Q308.702 153.137 310.676 150.616 Q312.67 148.077 312.952 142.924 Q311.861 144.541 310.187 145.407 Q308.514 146.272 306.482 146.272 Q302.269 146.272 299.806 143.733 Q297.361 141.175 297.361 136.755 Q297.361 132.429 299.918 129.815 Q302.476 127.201 306.727 127.201 Q311.598 127.201 314.156 130.943 Q316.733 134.667 316.733 141.777 Q316.733 148.416 313.573 152.384 Q310.432 156.334 305.109 156.334 Q303.68 156.334 302.213 156.052 Q300.746 155.77 299.166 155.205 M306.727 143.3 Q309.285 143.3 310.771 141.551 Q312.275 139.802 312.275 136.755 Q312.275 133.727 310.771 131.978 Q309.285 130.21 306.727 130.21 Q304.169 130.21 302.664 131.978 Q301.179 133.727 301.179 136.755 Q301.179 139.802 302.664 141.551 Q304.169 143.3 306.727 143.3 Z" fill="#000000" fill-rule="nonzero" fill-opacity="1" /><path clip-path="url(#clip500)" d="M-9.64527 840.632 L0.4762 840.632 L0.4762 828.569 L5.02768 828.569 L5.02768 840.632 L24.3794 840.632 Q28.7399 840.632 29.9813 839.454 Q31.2226 838.245 31.2226 834.584 L31.2226 828.569 L36.1242 828.569 L36.1242 834.584 Q36.1242 841.364 33.6097 843.942 Q31.0634 846.52 24.3794 846.52 L5.02768 846.52 L5.02768 850.817 L0.4762 850.817 L0.4762 846.52 L-9.64527 846.52 L-9.64527 840.632 Z" fill="#000000" fill-rule="nonzero" fill-opacity="1" /><path clip-path="url(#clip500)" d="M-11.3958 789.738 L-11.3958 784.327 L42.1716 800.878 L42.1716 806.289 L-11.3958 789.738 Z" fill="#000000" fill-rule="nonzero" fill-opacity="1" /><path clip-path="url(#clip500)" d="M14.6081 727.831 L36.1242 727.831 L36.1242 733.688 L14.799 733.688 Q9.7383 733.688 7.22385 735.661 Q4.7094 737.635 4.7094 741.581 Q4.7094 746.324 7.73311 749.061 Q10.7568 751.798 15.9767 751.798 L36.1242 751.798 L36.1242 757.687 L0.4762 757.687 L0.4762 751.798 L6.01437 751.798 Q2.79968 749.698 1.20826 746.865 Q-0.38317 744 -0.38317 740.276 Q-0.38317 734.133 3.43625 730.982 Q7.22385 727.831 14.6081 727.831 Z" fill="#000000" fill-rule="nonzero" fill-opacity="1" /><path clip-path="url(#clip500)" d="M1.52654 693.425 L7.06471 693.425 Q5.79157 695.907 5.15499 698.581 Q4.51842 701.255 4.51842 704.119 Q4.51842 708.48 5.85522 710.676 Q7.19202 712.84 9.86562 712.84 Q11.9026 712.84 13.0803 711.281 Q14.2261 709.721 15.2765 705.01 L15.7221 703.005 Q17.0589 696.767 19.5097 694.157 Q21.9286 691.515 26.2891 691.515 Q31.2544 691.515 34.1508 695.462 Q37.0472 699.377 37.0472 706.252 Q37.0472 709.116 36.4743 712.235 Q35.9332 715.323 34.8192 718.76 L28.7718 718.76 Q30.4587 715.514 31.318 712.363 Q32.1456 709.212 32.1456 706.124 Q32.1456 701.987 30.7451 699.759 Q29.3129 697.531 26.7347 697.531 Q24.3476 697.531 23.0745 699.154 Q21.8013 700.745 20.6237 706.188 L20.1462 708.225 Q19.0004 713.668 16.6451 716.087 Q14.258 718.506 10.1202 718.506 Q5.09134 718.506 2.35408 714.941 Q-0.38317 711.376 -0.38317 704.819 Q-0.38317 701.573 0.0942579 698.708 Q0.571686 695.844 1.52654 693.425 Z" fill="#000000" fill-rule="nonzero" fill-opacity="1" /><path clip-path="url(#clip501)" d="M1010.72 1454.11 L1016.3 1454.02 L1020.82 1453.93 L1024.25 1453.84 L1026.61 1453.75 L1027.89 1453.66 L1028.13 1453.57 L1027.37 1453.48 L1025.66 1453.39 L1023.07 1453.3 L1019.67 1453.21 L1015.53 1453.12 L1010.73 1453.03 L1005.35 1452.94 L999.473 1452.85 L993.168 1452.76 L986.509 1452.67 L979.558 1452.57 L972.374 1452.48 L965.007 1452.39 L957.499 1452.3 L949.886 1452.21 L942.198 1452.12 L934.456 1452.03 L926.678 1451.94 L918.879 1451.85 L911.069 1451.76 L903.258 1451.67 L895.455 1451.58 L887.669 1451.49 L879.91 1451.4 L872.191 1451.31 L864.525 1451.22 L856.931 1451.13 L849.426 1451.04 L842.033 1450.95 L834.775 1450.86 L827.676 1450.77 L820.762 1450.68 L814.058 1450.59 L807.59 1450.5 L801.38 1450.41 L795.451 1450.32 L789.821 1450.22 L784.507 1450.13 L779.521 1450.04 L774.875 1449.95 L770.573 1449.86 L766.619 1449.77 L763.013 1449.68 L759.751 1449.59 L756.83 1449.5 L754.241 1449.41 L751.976 1449.32 L750.026 1449.23 L748.381 1449.14 L747.032 1449.05 L745.969 1448.96 L745.185 1448.87 L744.674 1448.78 L744.43 1448.69 L744.45 1448.6 L744.733 1448.51 L745.28 1448.42 L746.09 1448.33 L747.169 1448.24 L748.517 1448.15 L750.14 1448.06 L752.041 1447.97 L754.22 1447.87 L756.68 1447.78 L759.418 1447.69 L762.428 1447.6 L765.702 1447.51 L769.226 1447.42 L772.982 1447.33 L776.948 1447.24 L781.093 1447.15 L785.383 1447.06 L789.778 1446.97 L794.234 1446.88 L798.701 1446.79 L803.124 1446.7 L807.449 1446.61 L811.616 1446.52 L815.567 1446.43 L819.243 1446.34 L822.589 1446.25 L825.551 1446.16 L828.083 1446.07 L830.141 1445.98 L831.692 1445.89 L832.709 1445.8 L833.175 1445.71 L638.594 1445.71 L639.06 1445.8 L640.077 1445.89 L641.628 1445.98 L643.686 1446.07 L646.218 1446.16 L649.18 1446.25 L652.526 1446.34 L656.202 1446.43 L660.153 1446.52 L664.32 1446.61 L668.645 1446.7 L673.068 1446.79 L677.535 1446.88 L681.991 1446.97 L686.386 1447.06 L690.676 1447.15 L694.821 1447.24 L698.787 1447.33 L702.543 1447.42 L706.067 1447.51 L709.341 1447.6 L712.352 1447.69 L715.089 1447.78 L717.549 1447.87 L719.729 1447.97 L721.629 1448.06 L723.252 1448.15 L724.601 1448.24 L725.679 1448.33 L726.489 1448.42 L727.036 1448.51 L727.319 1448.6 L727.339 1448.69 L727.095 1448.78 L726.584 1448.87 L725.8 1448.96 L724.737 1449.05 L723.388 1449.14 L721.743 1449.23 L719.793 1449.32 L717.528 1449.41 L714.939 1449.5 L712.018 1449.59 L708.757 1449.68 L705.15 1449.77 L701.196 1449.86 L696.894 1449.95 L692.248 1450.04 L687.262 1450.13 L681.948 1450.22 L676.318 1450.32 L670.389 1450.41 L664.179 1450.5 L657.711 1450.59 L651.007 1450.68 L644.093 1450.77 L636.995 1450.86 L629.736 1450.95 L622.343 1451.04 L614.838 1451.13 L607.244 1451.22 L599.578 1451.31 L591.859 1451.4 L584.1 1451.49 L576.314 1451.58 L568.511 1451.67 L560.7 1451.76 L552.89 1451.85 L545.091 1451.94 L537.313 1452.03 L529.571 1452.12 L521.883 1452.21 L514.27 1452.3 L506.762 1452.39 L499.395 1452.48 L492.211 1452.57 L485.26 1452.67 L478.601 1452.76 L472.296 1452.85 L466.418 1452.94 L461.039 1453.03 L456.24 1453.12 L452.099 1453.21 L448.695 1453.3 L446.105 1453.39 L444.398 1453.48 L443.639 1453.57 L443.88 1453.66 L445.163 1453.75 L447.516 1453.84 L450.952 1453.93 L455.469 1454.02 L461.048 1454.11 L1010.72 1454.11  Z" fill="#009af9" fill-rule="evenodd" fill-opacity="1"/>
<polyline clip-path="url(#clip501)" style="stroke:#000000; stroke-linecap:round; stroke-linejoin:round; stroke-width:4; stroke-opacity:1; fill:none" points="1010.72,1454.11 1016.3,1454.02 1020.82,1453.93 1024.25,1453.84 1026.61,1453.75 1027.89,1453.66 1028.13,1453.57 1027.37,1453.48 1025.66,1453.39 1023.07,1453.3 1019.67,1453.21 1015.53,1453.12 1010.73,1453.03 1005.35,1452.94 999.473,1452.85 993.168,1452.76 986.509,1452.67 979.558,1452.57 972.374,1452.48 965.007,1452.39 957.499,1452.3 949.886,1452.21 942.198,1452.12 934.456,1452.03 926.678,1451.94 918.879,1451.85 911.069,1451.76 903.258,1451.67 895.455,1451.58 887.669,1451.49 879.91,1451.4 872.191,1451.31 864.525,1451.22 856.931,1451.13 849.426,1451.04 842.033,1450.95 834.775,1450.86 827.676,1450.77 820.762,1450.68 814.058,1450.59 807.59,1450.5 801.38,1450.41 795.451,1450.32 789.821,1450.22 784.507,1450.13 779.521,1450.04 774.875,1449.95 770.573,1449.86 766.619,1449.77 763.013,1449.68 759.751,1449.59 756.83,1449.5 754.241,1449.41 751.976,1449.32 750.026,1449.23 748.381,1449.14 747.032,1449.05 745.969,1448.96 745.185,1448.87 744.674,1448.78 744.43,1448.69 744.45,1448.6 744.733,1448.51 745.28,1448.42 746.09,1448.33 747.169,1448.24 748.517,1448.15 750.14,1448.06 752.041,1447.97 754.22,1447.87 756.68,1447.78 759.418,1447.69 762.428,1447.6 765.702,1447.51 769.226,1447.42 772.982,1447.33 776.948,1447.24 781.093,1447.15 785.383,1447.06 789.778,1446.97 794.234,1446.88 798.701,1446.79 803.124,1446.7 807.449,1446.61 811.616,1446.52 815.567,1446.43 819.243,1446.34 822.589,1446.25 825.551,1446.16 828.083,1446.07 830.141,1445.98 831.692,1445.89 832.709,1445.8 833.175,1445.71 638.594,1445.71 639.06,1445.8 640.077,1445.89 641.628,1445.98 643.686,1446.07 646.218,1446.16 649.18,1446.25 652.526,1446.34 656.202,1446.43 660.153,1446.52 664.32,1446.61 668.645,1446.7 673.068,1446.79 677.535,1446.88 681.991,1446.97 686.386,1447.06 690.676,1447.15 694.821,1447.24 698.787,1447.33 702.543,1447.42 706.067,1447.51 709.341,1447.6 712.352,1447.69 715.089,1447.78 717.549,1447.87 719.729,1447.97 721.629,1448.06 723.252,1448.15 724.601,1448.24 725.679,1448.33 726.489,1448.42 727.036,1448.51 727.319,1448.6 727.339,1448.69 727.095,1448.78 726.584,1448.87 725.8,1448.96 724.737,1449.05 723.388,1449.14 721.743,1449.23 719.793,1449.32 717.528,1449.41 714.939,1449.5 712.018,1449.59 708.757,1449.68 705.15,1449.77 701.196,1449.86 696.894,1449.95 692.248,1450.04 687.262,1450.13 681.948,1450.22 676.318,1450.32 670.389,1450.41 664.179,1450.5 657.711,1450.59 651.007,1450.68 644.093,1450.77 636.995,1450.86 629.736,1450.95 622.343,1451.04 614.838,1451.13 607.244,1451.22 599.578,1451.31 591.859,1451.4 584.1,1451.49 576.314,1451.58 568.511,1451.67 560.7,1451.76 552.89,1451.85 545.091,1451.94 537.313,1452.03 529.571,1452.12 521.883,1452.21 514.27,1452.3 506.762,1452.39 499.395,1452.48 492.211,1452.57 485.26,1452.67 478.601,1452.76 472.296,1452.85 466.418,1452.94 461.039,1453.03 456.24,1453.12 452.099,1453.21 448.695,1453.3 446.105,1453.39 444.398,1453.48 443.639,1453.57 443.88,1453.66 445.163,1453.75 447.516,1453.84 450.952,1453.93 455.469,1454.02 461.048,1454.11 1010.72,1454.11 "/>
<path clip-path="url(#clip501)" d="M2032.97 410.388 L2038.53 409.208 L2043.08 408.028 L2046.59 406.848 L2049.07 405.667 L2050.52 404.487 L2050.99 403.307 L2050.5 402.127 L2049.11 400.947 L2046.88 399.767 L2043.86 398.587 L2040.12 397.407 L2035.74 396.227 L2030.79 395.047 L2025.33 393.867 L2019.42 392.686 L2013.13 391.506 L2006.51 390.326 L1999.61 389.146 L1992.48 387.966 L1985.14 386.786 L1977.64 385.606 L1970 384.426 L1962.23 383.246 L1954.37 382.066 L1946.43 380.885 L1938.42 379.705 L1930.36 378.525 L1922.26 377.345 L1914.14 376.165 L1906.02 374.985 L1897.93 373.805 L1889.87 372.625 L1881.89 371.445 L1874 370.265 L1866.23 369.085 L1858.62 367.904 L1851.19 366.724 L1843.97 365.544 L1837 364.364 L1830.29 363.184 L1823.87 362.004 L1817.77 360.824 L1812 359.644 L1806.58 358.464 L1801.51 357.284 L1796.81 356.103 L1792.48 354.923 L1788.52 353.743 L1784.92 352.563 L1781.68 351.383 L1778.79 350.203 L1776.24 349.023 L1774.02 347.843 L1772.11 346.663 L1770.52 345.483 L1769.21 344.303 L1768.19 343.122 L1767.44 341.942 L1766.96 340.762 L1766.74 339.582 L1766.78 338.402 L1767.08 337.222 L1767.63 336.042 L1768.44 334.862 L1769.51 333.682 L1770.85 332.502 L1772.46 331.321 L1774.34 330.141 L1776.5 328.961 L1778.94 327.781 L1781.67 326.601 L1784.66 325.421 L1787.93 324.241 L1791.45 323.061 L1795.21 321.881 L1799.18 320.701 L1803.35 319.521 L1807.67 318.34 L1812.11 317.16 L1816.62 315.98 L1821.16 314.8 L1825.66 313.62 L1830.08 312.44 L1834.35 311.26 L1838.41 310.08 L1842.21 308.9 L1845.68 307.72 L1848.77 306.539 L1851.44 305.359 L1853.63 304.179 L1855.31 302.999 L1856.45 301.819 L1857.03 300.639 L1660.46 300.639 L1661.04 301.819 L1662.18 302.999 L1663.86 304.179 L1666.05 305.359 L1668.72 306.539 L1671.81 307.72 L1675.28 308.9 L1679.08 310.08 L1683.14 311.26 L1687.41 312.44 L1691.82 313.62 L1696.33 314.8 L1700.86 315.98 L1705.38 317.16 L1709.82 318.34 L1714.14 319.521 L1718.31 320.701 L1722.28 321.881 L1726.04 323.061 L1729.56 324.241 L1732.83 325.421 L1735.82 326.601 L1738.54 327.781 L1740.98 328.961 L1743.15 330.141 L1745.03 331.321 L1746.64 332.502 L1747.98 333.682 L1749.05 334.862 L1749.86 336.042 L1750.41 337.222 L1750.71 338.402 L1750.74 339.582 L1750.53 340.762 L1750.05 341.942 L1749.3 343.122 L1748.28 344.303 L1746.97 345.483 L1745.38 346.663 L1743.47 347.843 L1741.25 349.023 L1738.7 350.203 L1735.81 351.383 L1732.57 352.563 L1728.97 353.743 L1725.01 354.923 L1720.68 356.103 L1715.98 357.284 L1710.91 358.464 L1705.49 359.644 L1699.72 360.824 L1693.61 362.004 L1687.2 363.184 L1680.49 364.364 L1673.51 365.544 L1666.3 366.724 L1658.87 367.904 L1651.25 369.085 L1643.49 370.265 L1635.6 371.445 L1627.61 372.625 L1619.56 373.805 L1611.46 374.985 L1603.35 376.165 L1595.23 377.345 L1587.13 378.525 L1579.07 379.705 L1571.06 380.885 L1563.12 382.066 L1555.25 383.246 L1547.49 384.426 L1539.85 385.606 L1532.35 386.786 L1525.01 387.966 L1517.88 389.146 L1510.98 390.326 L1504.36 391.506 L1498.07 392.686 L1492.16 393.867 L1486.7 395.047 L1481.74 396.227 L1477.37 397.407 L1473.63 398.587 L1470.61 399.767 L1468.38 400.947 L1466.99 402.127 L1466.5 403.307 L1466.96 404.487 L1468.42 405.667 L1470.9 406.848 L1474.41 408.028 L1478.96 409.208 L1484.52 410.388 L2032.97 410.388  Z" fill="#e26f46" fill-rule="evenodd" fill-opacity="1"/>
<polyline clip-path="url(#clip501)" style="stroke:#000000; stroke-linecap:round; stroke-linejoin:round; stroke-width:4; stroke-opacity:1; fill:none" points="2032.97,410.388 2038.53,409.208 2043.08,408.028 2046.59,406.848 2049.07,405.667 2050.52,404.487 2050.99,403.307 2050.5,402.127 2049.11,400.947 2046.88,399.767 2043.86,398.587 2040.12,397.407 2035.74,396.227 2030.79,395.047 2025.33,393.867 2019.42,392.686 2013.13,391.506 2006.51,390.326 1999.61,389.146 1992.48,387.966 1985.14,386.786 1977.64,385.606 1970,384.426 1962.23,383.246 1954.37,382.066 1946.43,380.885 1938.42,379.705 1930.36,378.525 1922.26,377.345 1914.14,376.165 1906.02,374.985 1897.93,373.805 1889.87,372.625 1881.89,371.445 1874,370.265 1866.23,369.085 1858.62,367.904 1851.19,366.724 1843.97,365.544 1837,364.364 1830.29,363.184 1823.87,362.004 1817.77,360.824 1812,359.644 1806.58,358.464 1801.51,357.284 1796.81,356.103 1792.48,354.923 1788.52,353.743 1784.92,352.563 1781.68,351.383 1778.79,350.203 1776.24,349.023 1774.02,347.843 1772.11,346.663 1770.52,345.483 1769.21,344.303 1768.19,343.122 1767.44,341.942 1766.96,340.762 1766.74,339.582 1766.78,338.402 1767.08,337.222 1767.63,336.042 1768.44,334.862 1769.51,333.682 1770.85,332.502 1772.46,331.321 1774.34,330.141 1776.5,328.961 1778.94,327.781 1781.67,326.601 1784.66,325.421 1787.93,324.241 1791.45,323.061 1795.21,321.881 1799.18,320.701 1803.35,319.521 1807.67,318.34 1812.11,317.16 1816.62,315.98 1821.16,314.8 1825.66,313.62 1830.08,312.44 1834.35,311.26 1838.41,310.08 1842.21,308.9 1845.68,307.72 1848.77,306.539 1851.44,305.359 1853.63,304.179 1855.31,302.999 1856.45,301.819 1857.03,300.639 1660.46,300.639 1661.04,301.819 1662.18,302.999 1663.86,304.179 1666.05,305.359 1668.72,306.539 1671.81,307.72 1675.28,308.9 1679.08,310.08 1683.14,311.26 1687.41,312.44 1691.82,313.62 1696.33,314.8 1700.86,315.98 1705.38,317.16 1709.82,318.34 1714.14,319.521 1718.31,320.701 1722.28,321.881 1726.04,323.061 1729.56,324.241 1732.83,325.421 1735.82,326.601 1738.54,327.781 1740.98,328.961 1743.15,330.141 1745.03,331.321 1746.64,332.502 1747.98,333.682 1749.05,334.862 1749.86,336.042 1750.41,337.222 1750.71,338.402 1750.74,339.582 1750.53,340.762 1750.05,341.942 1749.3,343.122 1748.28,344.303 1746.97,345.483 1745.38,346.663 1743.47,347.843 1741.25,349.023 1738.7,350.203 1735.81,351.383 1732.57,352.563 1728.97,353.743 1725.01,354.923 1720.68,356.103 1715.98,357.284 1710.91,358.464 1705.49,359.644 1699.72,360.824 1693.61,362.004 1687.2,363.184 1680.49,364.364 1673.51,365.544 1666.3,366.724 1658.87,367.904 1651.25,369.085 1643.49,370.265 1635.6,371.445 1627.61,372.625 1619.56,373.805 1611.46,374.985 1603.35,376.165 1595.23,377.345 1587.13,378.525 1579.07,379.705 1571.06,380.885 1563.12,382.066 1555.25,383.246 1547.49,384.426 1539.85,385.606 1532.35,386.786 1525.01,387.966 1517.88,389.146 1510.98,390.326 1504.36,391.506 1498.07,392.686 1492.16,393.867 1486.7,395.047 1481.74,396.227 1477.37,397.407 1473.63,398.587 1470.61,399.767 1468.38,400.947 1466.99,402.127 1466.5,403.307 1466.96,404.487 1468.42,405.667 1470.9,406.848 1474.41,408.028 1478.96,409.208 1484.52,410.388 2032.97,410.388 "/>
<path clip-path="url(#clip501)" d="M3063.89 124.056 L3067.31 123.448 L3070.01 122.841 L3072 122.234 L3073.28 121.626 L3073.85 121.019 L3073.73 120.412 L3072.95 119.804 L3071.54 119.197 L3069.54 118.589 L3066.99 117.982 L3063.93 117.375 L3060.43 116.767 L3056.53 116.16 L3052.31 115.553 L3047.8 114.945 L3043.09 114.338 L3038.23 113.73 L3033.27 113.123 L3028.29 112.516 L3023.32 111.908 L3018.43 111.301 L3013.67 110.694 L3009.07 110.086 L3004.67 109.479 L3000.52 108.871 L2996.62 108.264 L2993.01 107.657 L2989.71 107.049 L2986.71 106.442 L2984.02 105.835 L2981.64 105.227 L2979.56 104.62 L2977.77 104.013 L2976.25 103.405 L2974.98 102.798 L2973.93 102.19 L2973.07 101.583 L2972.38 100.976 L2971.81 100.368 L2971.34 99.7609 L2970.93 99.1535 L2970.54 98.5461 L2970.15 97.9388 L2969.7 97.3314 L2969.18 96.724 L2968.55 96.1167 L2967.78 95.5093 L2966.84 94.9019 L2965.72 94.2945 L2964.38 93.6872 L2962.81 93.0798 L2960.99 92.4724 L2958.93 91.865 L2956.59 91.2577 L2953.99 90.6503 L2951.11 90.0429 L2947.97 89.4356 L2944.56 88.8282 L2940.9 88.2208 L2622.31 88.2208 L2618.65 88.8282 L2615.24 89.4356 L2612.1 90.0429 L2609.22 90.6503 L2606.62 91.2577 L2604.28 91.865 L2602.21 92.4724 L2600.4 93.0798 L2598.83 93.6872 L2597.49 94.2945 L2596.37 94.9019 L2595.43 95.5093 L2594.66 96.1167 L2594.03 96.724 L2593.51 97.3314 L2593.06 97.9388 L2592.66 98.5461 L2592.28 99.1535 L2591.87 99.7609 L2591.4 100.368 L2590.83 100.976 L2590.14 101.583 L2589.28 102.19 L2588.23 102.798 L2586.96 103.405 L2585.44 104.013 L2583.65 104.62 L2581.57 105.227 L2579.19 105.835 L2576.5 106.442 L2573.5 107.049 L2570.19 107.657 L2566.59 108.264 L2562.69 108.871 L2558.53 109.479 L2554.14 110.086 L2549.54 110.694 L2544.77 111.301 L2539.89 111.908 L2534.92 112.516 L2529.93 113.123 L2524.98 113.73 L2520.12 114.338 L2515.4 114.945 L2510.9 115.553 L2506.67 116.16 L2502.78 116.767 L2499.28 117.375 L2496.22 117.982 L2493.67 118.589 L2491.67 119.197 L2490.25 119.804 L2489.48 120.412 L2489.36 121.019 L2489.93 121.626 L2491.2 122.234 L2493.19 122.841 L2495.9 123.448 L2499.32 124.056 L3063.89 124.056  Z" fill="#3da44d" fill-rule="evenodd" fill-opacity="1"/>
<polyline clip-path="url(#clip501)" style="stroke:#000000; stroke-linecap:round; stroke-linejoin:round; stroke-width:4; stroke-opacity:1; fill:none" points="3063.89,124.056 3067.31,123.448 3070.01,122.841 3072,122.234 3073.28,121.626 3073.85,121.019 3073.73,120.412 3072.95,119.804 3071.54,119.197 3069.54,118.589 3066.99,117.982 3063.93,117.375 3060.43,116.767 3056.53,116.16 3052.31,115.553 3047.8,114.945 3043.09,114.338 3038.23,113.73 3033.27,113.123 3028.29,112.516 3023.32,111.908 3018.43,111.301 3013.67,110.694 3009.07,110.086 3004.67,109.479 3000.52,108.871 2996.62,108.264 2993.01,107.657 2989.71,107.049 2986.71,106.442 2984.02,105.835 2981.64,105.227 2979.56,104.62 2977.77,104.013 2976.25,103.405 2974.98,102.798 2973.93,102.19 2973.07,101.583 2972.38,100.976 2971.81,100.368 2971.34,99.7609 2970.93,99.1535 2970.54,98.5461 2970.15,97.9388 2969.7,97.3314 2969.18,96.724 2968.55,96.1167 2967.78,95.5093 2966.84,94.9019 2965.72,94.2945 2964.38,93.6872 2962.81,93.0798 2960.99,92.4724 2958.93,91.865 2956.59,91.2577 2953.99,90.6503 2951.11,90.0429 2947.97,89.4356 2944.56,88.8282 2940.9,88.2208 2622.31,88.2208 2618.65,88.8282 2615.24,89.4356 2612.1,90.0429 2609.22,90.6503 2606.62,91.2577 2604.28,91.865 2602.21,92.4724 2600.4,93.0798 2598.83,93.6872 2597.49,94.2945 2596.37,94.9019 2595.43,95.5093 2594.66,96.1167 2594.03,96.724 2593.51,97.3314 2593.06,97.9388 2592.66,98.5461 2592.28,99.1535 2591.87,99.7609 2591.4,100.368 2590.83,100.976 2590.14,101.583 2589.28,102.19 2588.23,102.798 2586.96,103.405 2585.44,104.013 2583.65,104.62 2581.57,105.227 2579.19,105.835 2576.5,106.442 2573.5,107.049 2570.19,107.657 2566.59,108.264 2562.69,108.871 2558.53,109.479 2554.14,110.086 2549.54,110.694 2544.77,111.301 2539.89,111.908 2534.92,112.516 2529.93,113.123 2524.98,113.73 2520.12,114.338 2515.4,114.945 2510.9,115.553 2506.67,116.16 2502.78,116.767 2499.28,117.375 2496.22,117.982 2493.67,118.589 2491.67,119.197 2490.25,119.804 2489.48,120.412 2489.36,121.019 2489.93,121.626 2491.2,122.234 2493.19,122.841 2495.9,123.448 2499.32,124.056 3063.89,124.056 "/>
</svg>
