<?xml version="1.0" encoding="utf-8"?>
<svg xmlns="http://www.w3.org/2000/svg" xmlns:xlink="http://www.w3.org/1999/xlink" width="600" height="400" viewBox="0 0 2400 1600">
<defs>
  <clipPath id="clip250">
    <rect x="0" y="0" width="2400" height="1600"/>
  </clipPath>
</defs>
<path clip-path="url(#clip250)" d="M0 1600 L2400 1600 L2400 0 L0 0  Z" fill="#ffffff" fill-rule="evenodd" fill-opacity="1"/>
<defs>
  <clipPath id="clip251">
    <rect x="242" y="47" width="2111" height="1377"/>
  </clipPath>
</defs>
<path clip-path="url(#clip250)" d="M242.621 1423.18 L2352.76 1423.18 L2352.76 47.2441 L242.621 47.2441  Z" fill="#ffffff" fill-rule="evenodd" fill-opacity="1"/>
<polyline clip-path="url(#clip251)" style="stroke:#000000; stroke-linecap:round; stroke-linejoin:round; stroke-width:2; stroke-opacity:0.1; fill:none" points="285.613,1423.18 285.613,47.2441 "/>
<polyline clip-path="url(#clip251)" style="stroke:#000000; stroke-linecap:round; stroke-linejoin:round; stroke-width:2; stroke-opacity:0.1; fill:none" points="954.754,1423.18 954.754,47.2441 "/>
<polyline clip-path="url(#clip251)" style="stroke:#000000; stroke-linecap:round; stroke-linejoin:round; stroke-width:2; stroke-opacity:0.1; fill:none" points="1623.89,1423.18 1623.89,47.2441 "/>
<polyline clip-path="url(#clip251)" style="stroke:#000000; stroke-linecap:round; stroke-linejoin:round; stroke-width:2; stroke-opacity:0.1; fill:none" points="2293.04,1423.18 2293.04,47.2441 "/>
<polyline clip-path="url(#clip251)" style="stroke:#000000; stroke-linecap:round; stroke-linejoin:round; stroke-width:2; stroke-opacity:0.1; fill:none" points="242.621,1236.41 2352.76,1236.41 "/>
<polyline clip-path="url(#clip251)" style="stroke:#000000; stroke-linecap:round; stroke-linejoin:round; stroke-width:2; stroke-opacity:0.1; fill:none" points="242.621,979.077 2352.76,979.077 "/>
<polyline clip-path="url(#clip251)" style="stroke:#000000; stroke-linecap:round; stroke-linejoin:round; stroke-width:2; stroke-opacity:0.1; fill:none" points="242.621,721.743 2352.76,721.743 "/>
<polyline clip-path="url(#clip251)" style="stroke:#000000; stroke-linecap:round; stroke-linejoin:round; stroke-width:2; stroke-opacity:0.1; fill:none" points="242.621,464.41 2352.76,464.41 "/>
<polyline clip-path="url(#clip251)" style="stroke:#000000; stroke-linecap:round; stroke-linejoin:round; stroke-width:2; stroke-opacity:0.1; fill:none" points="242.621,207.076 2352.76,207.076 "/>
<polyline clip-path="url(#clip250)" style="stroke:#000000; stroke-linecap:round; stroke-linejoin:round; stroke-width:4; stroke-opacity:1; fill:none" points="242.621,1423.18 2352.76,1423.18 "/>
<polyline clip-path="url(#clip250)" style="stroke:#000000; stroke-linecap:round; stroke-linejoin:round; stroke-width:4; stroke-opacity:1; fill:none" points="285.613,1423.18 285.613,1404.28 "/>
<polyline clip-path="url(#clip250)" style="stroke:#000000; stroke-linecap:round; stroke-linejoin:round; stroke-width:4; stroke-opacity:1; fill:none" points="954.754,1423.18 954.754,1404.28 "/>
<polyline clip-path="url(#clip250)" style="stroke:#000000; stroke-linecap:round; stroke-linejoin:round; stroke-width:4; stroke-opacity:1; fill:none" points="1623.89,1423.18 1623.89,1404.28 "/>
<polyline clip-path="url(#clip250)" style="stroke:#000000; stroke-linecap:round; stroke-linejoin:round; stroke-width:4; stroke-opacity:1; fill:none" points="2293.04,1423.18 2293.04,1404.28 "/>
<path clip-path="url(#clip250)" d="M285.613 1454.1 Q282.002 1454.1 280.173 1457.66 Q278.368 1461.2 278.368 1468.33 Q278.368 1475.44 280.173 1479.01 Q282.002 1482.55 285.613 1482.55 Q289.247 1482.55 291.053 1479.01 Q292.882 1475.44 292.882 1468.33 Q292.882 1461.2 291.053 1457.66 Q289.247 1454.1 285.613 1454.1 M285.613 1450.39 Q291.423 1450.39 294.479 1455 Q297.557 1459.58 297.557 1468.33 Q297.557 1477.06 294.479 1481.67 Q291.423 1486.25 285.613 1486.25 Q279.803 1486.25 276.724 1481.67 Q273.669 1477.06 273.669 1468.33 Q273.669 1459.58 276.724 1455 Q279.803 1450.39 285.613 1450.39 Z" fill="#000000" fill-rule="nonzero" fill-opacity="1" /><path clip-path="url(#clip250)" d="M899.28 1481.64 L906.918 1481.64 L906.918 1455.28 L898.608 1456.95 L898.608 1452.69 L906.872 1451.02 L911.548 1451.02 L911.548 1481.64 L919.187 1481.64 L919.187 1485.58 L899.28 1485.58 L899.28 1481.64 Z" fill="#000000" fill-rule="nonzero" fill-opacity="1" /><path clip-path="url(#clip250)" d="M938.631 1454.1 Q935.02 1454.1 933.191 1457.66 Q931.386 1461.2 931.386 1468.33 Q931.386 1475.44 933.191 1479.01 Q935.02 1482.55 938.631 1482.55 Q942.265 1482.55 944.071 1479.01 Q945.9 1475.44 945.9 1468.33 Q945.9 1461.2 944.071 1457.66 Q942.265 1454.1 938.631 1454.1 M938.631 1450.39 Q944.441 1450.39 947.497 1455 Q950.576 1459.58 950.576 1468.33 Q950.576 1477.06 947.497 1481.67 Q944.441 1486.25 938.631 1486.25 Q932.821 1486.25 929.742 1481.67 Q926.687 1477.06 926.687 1468.33 Q926.687 1459.58 929.742 1455 Q932.821 1450.39 938.631 1450.39 Z" fill="#000000" fill-rule="nonzero" fill-opacity="1" /><path clip-path="url(#clip250)" d="M968.793 1454.1 Q965.182 1454.1 963.353 1457.66 Q961.548 1461.2 961.548 1468.33 Q961.548 1475.44 963.353 1479.01 Q965.182 1482.55 968.793 1482.55 Q972.427 1482.55 974.233 1479.01 Q976.061 1475.44 976.061 1468.33 Q976.061 1461.2 974.233 1457.66 Q972.427 1454.1 968.793 1454.1 M968.793 1450.39 Q974.603 1450.39 977.659 1455 Q980.737 1459.58 980.737 1468.33 Q980.737 1477.06 977.659 1481.67 Q974.603 1486.25 968.793 1486.25 Q962.983 1486.25 959.904 1481.67 Q956.849 1477.06 956.849 1468.33 Q956.849 1459.58 959.904 1455 Q962.983 1450.39 968.793 1450.39 Z" fill="#000000" fill-rule="nonzero" fill-opacity="1" /><path clip-path="url(#clip250)" d="M998.955 1454.1 Q995.344 1454.1 993.515 1457.66 Q991.71 1461.2 991.71 1468.33 Q991.71 1475.44 993.515 1479.01 Q995.344 1482.55 998.955 1482.55 Q1002.59 1482.55 1004.39 1479.01 Q1006.22 1475.44 1006.22 1468.33 Q1006.22 1461.2 1004.39 1457.66 Q1002.59 1454.1 998.955 1454.1 M998.955 1450.39 Q1004.77 1450.39 1007.82 1455 Q1010.9 1459.58 1010.9 1468.33 Q1010.9 1477.06 1007.82 1481.67 Q1004.77 1486.25 998.955 1486.25 Q993.145 1486.25 990.066 1481.67 Q987.011 1477.06 987.011 1468.33 Q987.011 1459.58 990.066 1455 Q993.145 1450.39 998.955 1450.39 Z" fill="#000000" fill-rule="nonzero" fill-opacity="1" /><path clip-path="url(#clip250)" d="M1572.51 1481.64 L1588.83 1481.64 L1588.83 1485.58 L1566.88 1485.58 L1566.88 1481.64 Q1569.54 1478.89 1574.13 1474.26 Q1578.73 1469.61 1579.91 1468.27 Q1582.16 1465.74 1583.04 1464.01 Q1583.94 1462.25 1583.94 1460.56 Q1583.94 1457.8 1582 1456.07 Q1580.08 1454.33 1576.97 1454.33 Q1574.77 1454.33 1572.32 1455.09 Q1569.89 1455.86 1567.11 1457.41 L1567.11 1452.69 Q1569.94 1451.55 1572.39 1450.97 Q1574.84 1450.39 1576.88 1450.39 Q1582.25 1450.39 1585.45 1453.08 Q1588.64 1455.77 1588.64 1460.26 Q1588.64 1462.39 1587.83 1464.31 Q1587.04 1466.2 1584.94 1468.8 Q1584.36 1469.47 1581.26 1472.69 Q1578.15 1475.88 1572.51 1481.64 Z" fill="#000000" fill-rule="nonzero" fill-opacity="1" /><path clip-path="url(#clip250)" d="M1608.64 1454.1 Q1605.03 1454.1 1603.2 1457.66 Q1601.39 1461.2 1601.39 1468.33 Q1601.39 1475.44 1603.2 1479.01 Q1605.03 1482.55 1608.64 1482.55 Q1612.27 1482.55 1614.08 1479.01 Q1615.91 1475.44 1615.91 1468.33 Q1615.91 1461.2 1614.08 1457.66 Q1612.27 1454.1 1608.64 1454.1 M1608.64 1450.39 Q1614.45 1450.39 1617.51 1455 Q1620.58 1459.58 1620.58 1468.33 Q1620.58 1477.06 1617.51 1481.67 Q1614.45 1486.25 1608.64 1486.25 Q1602.83 1486.25 1599.75 1481.67 Q1596.7 1477.06 1596.7 1468.33 Q1596.7 1459.58 1599.75 1455 Q1602.83 1450.39 1608.64 1450.39 Z" fill="#000000" fill-rule="nonzero" fill-opacity="1" /><path clip-path="url(#clip250)" d="M1638.8 1454.1 Q1635.19 1454.1 1633.36 1457.66 Q1631.56 1461.2 1631.56 1468.33 Q1631.56 1475.44 1633.36 1479.01 Q1635.19 1482.55 1638.8 1482.55 Q1642.44 1482.55 1644.24 1479.01 Q1646.07 1475.44 1646.07 1468.33 Q1646.07 1461.2 1644.24 1457.66 Q1642.44 1454.1 1638.8 1454.1 M1638.8 1450.39 Q1644.61 1450.39 1647.67 1455 Q1650.75 1459.58 1650.75 1468.33 Q1650.75 1477.06 1647.67 1481.67 Q1644.61 1486.25 1638.8 1486.25 Q1632.99 1486.25 1629.91 1481.67 Q1626.86 1477.06 1626.86 1468.33 Q1626.86 1459.58 1629.91 1455 Q1632.99 1450.39 1638.8 1450.39 Z" fill="#000000" fill-rule="nonzero" fill-opacity="1" /><path clip-path="url(#clip250)" d="M1668.96 1454.1 Q1665.35 1454.1 1663.52 1457.66 Q1661.72 1461.2 1661.72 1468.33 Q1661.72 1475.44 1663.52 1479.01 Q1665.35 1482.55 1668.96 1482.55 Q1672.6 1482.55 1674.4 1479.01 Q1676.23 1475.44 1676.23 1468.33 Q1676.23 1461.2 1674.4 1457.66 Q1672.6 1454.1 1668.96 1454.1 M1668.96 1450.39 Q1674.77 1450.39 1677.83 1455 Q1680.91 1459.58 1680.91 1468.33 Q1680.91 1477.06 1677.83 1481.67 Q1674.77 1486.25 1668.96 1486.25 Q1663.15 1486.25 1660.07 1481.67 Q1657.02 1477.06 1657.02 1468.33 Q1657.02 1459.58 1660.07 1455 Q1663.15 1450.39 1668.96 1450.39 Z" fill="#000000" fill-rule="nonzero" fill-opacity="1" /><path clip-path="url(#clip250)" d="M2251.72 1466.95 Q2255.07 1467.66 2256.95 1469.93 Q2258.85 1472.2 2258.85 1475.53 Q2258.85 1480.65 2255.33 1483.45 Q2251.81 1486.25 2245.33 1486.25 Q2243.15 1486.25 2240.84 1485.81 Q2238.54 1485.39 2236.09 1484.54 L2236.09 1480.02 Q2238.04 1481.16 2240.35 1481.74 Q2242.66 1482.32 2245.19 1482.32 Q2249.59 1482.32 2251.88 1480.58 Q2254.19 1478.84 2254.19 1475.53 Q2254.19 1472.48 2252.04 1470.77 Q2249.91 1469.03 2246.09 1469.03 L2242.06 1469.03 L2242.06 1465.19 L2246.28 1465.19 Q2249.73 1465.19 2251.55 1463.82 Q2253.38 1462.43 2253.38 1459.84 Q2253.38 1457.18 2251.48 1455.77 Q2249.61 1454.33 2246.09 1454.33 Q2244.17 1454.33 2241.97 1454.75 Q2239.77 1455.16 2237.13 1456.04 L2237.13 1451.88 Q2239.79 1451.14 2242.11 1450.77 Q2244.45 1450.39 2246.51 1450.39 Q2251.83 1450.39 2254.93 1452.83 Q2258.04 1455.23 2258.04 1459.35 Q2258.04 1462.22 2256.39 1464.21 Q2254.75 1466.18 2251.72 1466.95 Z" fill="#000000" fill-rule="nonzero" fill-opacity="1" /><path clip-path="url(#clip250)" d="M2277.71 1454.1 Q2274.1 1454.1 2272.27 1457.66 Q2270.47 1461.2 2270.47 1468.33 Q2270.47 1475.44 2272.27 1479.01 Q2274.1 1482.55 2277.71 1482.55 Q2281.35 1482.55 2283.15 1479.01 Q2284.98 1475.44 2284.98 1468.33 Q2284.98 1461.2 2283.15 1457.66 Q2281.35 1454.1 2277.71 1454.1 M2277.71 1450.39 Q2283.52 1450.39 2286.58 1455 Q2289.66 1459.58 2289.66 1468.33 Q2289.66 1477.06 2286.58 1481.67 Q2283.52 1486.25 2277.71 1486.25 Q2271.9 1486.25 2268.82 1481.67 Q2265.77 1477.06 2265.77 1468.33 Q2265.77 1459.58 2268.82 1455 Q2271.9 1450.39 2277.71 1450.39 Z" fill="#000000" fill-rule="nonzero" fill-opacity="1" /><path clip-path="url(#clip250)" d="M2307.87 1454.1 Q2304.26 1454.1 2302.43 1457.66 Q2300.63 1461.2 2300.63 1468.33 Q2300.63 1475.44 2302.43 1479.01 Q2304.26 1482.55 2307.87 1482.55 Q2311.51 1482.55 2313.31 1479.01 Q2315.14 1475.44 2315.14 1468.33 Q2315.14 1461.2 2313.31 1457.66 Q2311.51 1454.1 2307.87 1454.1 M2307.87 1450.39 Q2313.68 1450.39 2316.74 1455 Q2319.82 1459.58 2319.82 1468.33 Q2319.82 1477.06 2316.74 1481.67 Q2313.68 1486.25 2307.87 1486.25 Q2302.06 1486.25 2298.98 1481.67 Q2295.93 1477.06 2295.93 1468.33 Q2295.93 1459.58 2298.98 1455 Q2302.06 1450.39 2307.87 1450.39 Z" fill="#000000" fill-rule="nonzero" fill-opacity="1" /><path clip-path="url(#clip250)" d="M2338.03 1454.1 Q2334.42 1454.1 2332.6 1457.66 Q2330.79 1461.2 2330.79 1468.33 Q2330.79 1475.44 2332.6 1479.01 Q2334.42 1482.55 2338.03 1482.55 Q2341.67 1482.55 2343.47 1479.01 Q2345.3 1475.44 2345.3 1468.33 Q2345.3 1461.2 2343.47 1457.66 Q2341.67 1454.1 2338.03 1454.1 M2338.03 1450.39 Q2343.85 1450.39 2346.9 1455 Q2349.98 1459.58 2349.98 1468.33 Q2349.98 1477.06 2346.9 1481.67 Q2343.85 1486.25 2338.03 1486.25 Q2332.22 1486.25 2329.15 1481.67 Q2326.09 1477.06 2326.09 1468.33 Q2326.09 1459.58 2329.15 1455 Q2332.22 1450.39 2338.03 1450.39 Z" fill="#000000" fill-rule="nonzero" fill-opacity="1" /><path clip-path="url(#clip250)" d="M1294.76 1518.52 L1300.62 1518.52 L1300.62 1568.04 L1294.76 1568.04 L1294.76 1518.52 Z" fill="#000000" fill-rule="nonzero" fill-opacity="1" /><polyline clip-path="url(#clip250)" style="stroke:#000000; stroke-linecap:round; stroke-linejoin:round; stroke-width:4; stroke-opacity:1; fill:none" points="242.621,1423.18 242.621,47.2441 "/>
<polyline clip-path="url(#clip250)" style="stroke:#000000; stroke-linecap:round; stroke-linejoin:round; stroke-width:4; stroke-opacity:1; fill:none" points="242.621,1236.41 261.518,1236.41 "/>
<polyline clip-path="url(#clip250)" style="stroke:#000000; stroke-linecap:round; stroke-linejoin:round; stroke-width:4; stroke-opacity:1; fill:none" points="242.621,979.077 261.518,979.077 "/>
<polyline clip-path="url(#clip250)" style="stroke:#000000; stroke-linecap:round; stroke-linejoin:round; stroke-width:4; stroke-opacity:1; fill:none" points="242.621,721.743 261.518,721.743 "/>
<polyline clip-path="url(#clip250)" style="stroke:#000000; stroke-linecap:round; stroke-linejoin:round; stroke-width:4; stroke-opacity:1; fill:none" points="242.621,464.41 261.518,464.41 "/>
<polyline clip-path="url(#clip250)" style="stroke:#000000; stroke-linecap:round; stroke-linejoin:round; stroke-width:4; stroke-opacity:1; fill:none" points="242.621,207.076 261.518,207.076 "/>
<path clip-path="url(#clip250)" d="M114.839 1236.86 L144.515 1236.86 L144.515 1240.8 L114.839 1240.8 L114.839 1236.86 Z" fill="#000000" fill-rule="nonzero" fill-opacity="1" /><path clip-path="url(#clip250)" d="M155.417 1249.75 L163.056 1249.75 L163.056 1223.39 L154.746 1225.06 L154.746 1220.8 L163.01 1219.13 L167.686 1219.13 L167.686 1249.75 L175.325 1249.75 L175.325 1253.69 L155.417 1253.69 L155.417 1249.75 Z" fill="#000000" fill-rule="nonzero" fill-opacity="1" /><path clip-path="url(#clip250)" d="M194.769 1237.28 Q191.436 1237.28 189.514 1239.06 Q187.616 1240.84 187.616 1243.97 Q187.616 1247.09 189.514 1248.88 Q191.436 1250.66 194.769 1250.66 Q198.102 1250.66 200.024 1248.88 Q201.945 1247.07 201.945 1243.97 Q201.945 1240.84 200.024 1239.06 Q198.125 1237.28 194.769 1237.28 M190.093 1235.29 Q187.084 1234.55 185.394 1232.49 Q183.727 1230.43 183.727 1227.46 Q183.727 1223.32 186.667 1220.91 Q189.63 1218.5 194.769 1218.5 Q199.931 1218.5 202.871 1220.91 Q205.811 1223.32 205.811 1227.46 Q205.811 1230.43 204.121 1232.49 Q202.454 1234.55 199.468 1235.29 Q202.848 1236.07 204.723 1238.37 Q206.621 1240.66 206.621 1243.97 Q206.621 1248.99 203.542 1251.68 Q200.487 1254.36 194.769 1254.36 Q189.051 1254.36 185.973 1251.68 Q182.917 1248.99 182.917 1243.97 Q182.917 1240.66 184.815 1238.37 Q186.713 1236.07 190.093 1235.29 M188.38 1227.9 Q188.38 1230.59 190.047 1232.09 Q191.737 1233.6 194.769 1233.6 Q197.778 1233.6 199.468 1232.09 Q201.181 1230.59 201.181 1227.9 Q201.181 1225.22 199.468 1223.71 Q197.778 1222.21 194.769 1222.21 Q191.737 1222.21 190.047 1223.71 Q188.38 1225.22 188.38 1227.9 Z" fill="#000000" fill-rule="nonzero" fill-opacity="1" /><path clip-path="url(#clip250)" d="M114.584 979.528 L144.26 979.528 L144.26 983.463 L114.584 983.463 L114.584 979.528 Z" fill="#000000" fill-rule="nonzero" fill-opacity="1" /><path clip-path="url(#clip250)" d="M155.163 992.421 L162.802 992.421 L162.802 966.056 L154.491 967.722 L154.491 963.463 L162.755 961.797 L167.431 961.797 L167.431 992.421 L175.07 992.421 L175.07 996.357 L155.163 996.357 L155.163 992.421 Z" fill="#000000" fill-rule="nonzero" fill-opacity="1" /><path clip-path="url(#clip250)" d="M195.093 977.213 Q191.945 977.213 190.093 979.366 Q188.264 981.519 188.264 985.269 Q188.264 988.995 190.093 991.171 Q191.945 993.324 195.093 993.324 Q198.241 993.324 200.07 991.171 Q201.922 988.995 201.922 985.269 Q201.922 981.519 200.07 979.366 Q198.241 977.213 195.093 977.213 M204.375 962.56 L204.375 966.82 Q202.616 965.986 200.811 965.547 Q199.028 965.107 197.269 965.107 Q192.639 965.107 190.186 968.232 Q187.755 971.357 187.408 977.676 Q188.774 975.662 190.834 974.597 Q192.894 973.509 195.371 973.509 Q200.579 973.509 203.588 976.681 Q206.621 979.829 206.621 985.269 Q206.621 990.593 203.473 993.81 Q200.325 997.028 195.093 997.028 Q189.098 997.028 185.926 992.445 Q182.755 987.838 182.755 979.111 Q182.755 970.917 186.644 966.056 Q190.533 961.172 197.084 961.172 Q198.843 961.172 200.625 961.519 Q202.431 961.866 204.375 962.56 Z" fill="#000000" fill-rule="nonzero" fill-opacity="1" /><path clip-path="url(#clip250)" d="M114.26 722.195 L143.936 722.195 L143.936 726.13 L114.26 726.13 L114.26 722.195 Z" fill="#000000" fill-rule="nonzero" fill-opacity="1" /><path clip-path="url(#clip250)" d="M154.839 735.088 L162.477 735.088 L162.477 708.722 L154.167 710.389 L154.167 706.13 L162.431 704.463 L167.107 704.463 L167.107 735.088 L174.746 735.088 L174.746 739.023 L154.839 739.023 L154.839 735.088 Z" fill="#000000" fill-rule="nonzero" fill-opacity="1" /><path clip-path="url(#clip250)" d="M197.037 708.537 L185.232 726.986 L197.037 726.986 L197.037 708.537 M195.811 704.463 L201.69 704.463 L201.69 726.986 L206.621 726.986 L206.621 730.875 L201.69 730.875 L201.69 739.023 L197.037 739.023 L197.037 730.875 L181.436 730.875 L181.436 726.361 L195.811 704.463 Z" fill="#000000" fill-rule="nonzero" fill-opacity="1" /><path clip-path="url(#clip250)" d="M116.343 464.861 L146.019 464.861 L146.019 468.796 L116.343 468.796 L116.343 464.861 Z" fill="#000000" fill-rule="nonzero" fill-opacity="1" /><path clip-path="url(#clip250)" d="M156.922 477.755 L164.561 477.755 L164.561 451.389 L156.251 453.056 L156.251 448.796 L164.515 447.13 L169.19 447.13 L169.19 477.755 L176.829 477.755 L176.829 481.69 L156.922 481.69 L156.922 477.755 Z" fill="#000000" fill-rule="nonzero" fill-opacity="1" /><path clip-path="url(#clip250)" d="M190.301 477.755 L206.621 477.755 L206.621 481.69 L184.676 481.69 L184.676 477.755 Q187.338 475 191.922 470.37 Q196.528 465.718 197.709 464.375 Q199.954 461.852 200.834 460.116 Q201.737 458.357 201.737 456.667 Q201.737 453.912 199.792 452.176 Q197.871 450.44 194.769 450.44 Q192.57 450.44 190.116 451.204 Q187.686 451.968 184.908 453.519 L184.908 448.796 Q187.732 447.662 190.186 447.083 Q192.639 446.505 194.676 446.505 Q200.047 446.505 203.241 449.19 Q206.436 451.875 206.436 456.366 Q206.436 458.495 205.625 460.417 Q204.838 462.315 202.732 464.907 Q202.153 465.579 199.051 468.796 Q195.95 471.991 190.301 477.755 Z" fill="#000000" fill-rule="nonzero" fill-opacity="1" /><path clip-path="url(#clip250)" d="M114.746 207.528 L144.422 207.528 L144.422 211.463 L114.746 211.463 L114.746 207.528 Z" fill="#000000" fill-rule="nonzero" fill-opacity="1" /><path clip-path="url(#clip250)" d="M155.325 220.421 L162.964 220.421 L162.964 194.056 L154.653 195.722 L154.653 191.463 L162.917 189.796 L167.593 189.796 L167.593 220.421 L175.232 220.421 L175.232 224.356 L155.325 224.356 L155.325 220.421 Z" fill="#000000" fill-rule="nonzero" fill-opacity="1" /><path clip-path="url(#clip250)" d="M194.676 192.875 Q191.065 192.875 189.237 196.44 Q187.431 199.982 187.431 207.111 Q187.431 214.218 189.237 217.782 Q191.065 221.324 194.676 221.324 Q198.311 221.324 200.116 217.782 Q201.945 214.218 201.945 207.111 Q201.945 199.982 200.116 196.44 Q198.311 192.875 194.676 192.875 M194.676 189.171 Q200.487 189.171 203.542 193.778 Q206.621 198.361 206.621 207.111 Q206.621 215.838 203.542 220.444 Q200.487 225.028 194.676 225.028 Q188.866 225.028 185.788 220.444 Q182.732 215.838 182.732 207.111 Q182.732 198.361 185.788 193.778 Q188.866 189.171 194.676 189.171 Z" fill="#000000" fill-rule="nonzero" fill-opacity="1" /><path clip-path="url(#clip250)" d="M14.479 815.022 L14.479 809.166 L64.0042 809.166 L64.0042 815.022 L14.479 815.022 Z" fill="#000000" fill-rule="nonzero" fill-opacity="1" /><path clip-path="url(#clip250)" d="M45.7664 773.454 Q39.4007 773.454 35.8996 776.096 Q32.3984 778.706 32.3984 783.448 Q32.3984 788.159 35.8996 790.801 Q39.4007 793.41 45.7664 793.41 Q52.1003 793.41 55.6014 790.801 Q59.1026 788.159 59.1026 783.448 Q59.1026 778.706 55.6014 776.096 Q52.1003 773.454 45.7664 773.454 M59.58 767.598 Q68.683 767.598 73.1071 771.64 Q77.5631 775.682 77.5631 784.021 Q77.5631 787.108 77.0857 789.846 Q76.6401 792.583 75.6852 795.161 L69.9879 795.161 Q71.3884 792.583 72.0568 790.068 Q72.7252 787.554 72.7252 784.944 Q72.7252 779.183 69.7015 776.319 Q66.7096 773.454 60.6303 773.454 L57.7339 773.454 Q60.885 775.268 62.4446 778.101 Q64.0042 780.934 64.0042 784.88 Q64.0042 791.437 59.0071 795.447 Q54.01 799.458 45.7664 799.458 Q37.491 799.458 32.4939 795.447 Q27.4968 791.437 27.4968 784.88 Q27.4968 780.934 29.0564 778.101 Q30.616 775.268 33.7671 773.454 L28.3562 773.454 L28.3562 767.598 L59.58 767.598 Z" fill="#000000" fill-rule="nonzero" fill-opacity="1" /><path clip-path="url(#clip250)" d="M14.5426 741.466 Q21.8632 745.731 29.0246 747.8 Q36.186 749.869 43.5384 749.869 Q50.8908 749.869 58.1159 747.8 Q65.3091 745.699 72.5979 741.466 L72.5979 746.559 Q65.1182 751.333 57.8931 753.72 Q50.668 756.076 43.5384 756.076 Q36.4406 756.076 29.2474 753.72 Q22.0542 751.365 14.5426 746.559 L14.5426 741.466 Z" fill="#000000" fill-rule="nonzero" fill-opacity="1" /><path clip-path="url(#clip250)" d="M21.7677 723.419 L58.7206 723.419 L58.7206 715.653 Q58.7206 705.818 54.2646 701.267 Q49.8086 696.684 40.1964 696.684 Q30.6479 696.684 26.2237 701.267 Q21.7677 705.818 21.7677 715.653 L21.7677 723.419 M16.4842 729.849 L16.4842 716.64 Q16.4842 702.826 22.2451 696.365 Q27.9743 689.904 40.1964 689.904 Q52.4822 689.904 58.2432 696.397 Q64.0042 702.89 64.0042 716.64 L64.0042 729.849 L16.4842 729.849 Z" fill="#000000" fill-rule="nonzero" fill-opacity="1" /><path clip-path="url(#clip250)" d="M36.2815 682.17 L36.2815 678.478 L64.0042 678.478 L64.0042 682.17 L36.2815 682.17 Z" fill="#000000" fill-rule="nonzero" fill-opacity="1" /><path clip-path="url(#clip250)" d="M14.5426 670.011 L14.5426 664.919 Q22.0542 660.144 29.2474 657.789 Q36.4406 655.402 43.5384 655.402 Q50.668 655.402 57.8931 657.789 Q65.1182 660.144 72.5979 664.919 L72.5979 670.011 Q65.3091 665.778 58.1159 663.709 Q50.8908 661.608 43.5384 661.608 Q36.186 661.608 29.0246 663.709 Q21.8632 665.778 14.5426 670.011 Z" fill="#000000" fill-rule="nonzero" fill-opacity="1" /><polyline clip-path="url(#clip251)" style="stroke:#009af9; stroke-linecap:round; stroke-linejoin:round; stroke-width:4; stroke-opacity:1; fill:none" points="302.342,190.947 319.07,167.973 335.799,147.966 352.527,130.681 369.256,115.919 385.984,103.883 402.713,94.8366 419.441,88.9117 436.17,86.1857 452.898,86.6731 469.627,90.3579 486.355,97.1829 503.084,106.968 519.812,119.225 536.541,132.804 553.269,145.448 569.998,153.932 586.726,155.902 603.455,152.104 620.183,145.607 636.912,139.309 653.64,134.902 670.369,133.104 687.097,134.068 703.826,137.578 720.555,143.078 737.283,149.577 754.012,155.597 770.74,159.431 787.469,159.904 804.197,157.13 820.926,152.404 837.654,147.363 854.383,143.316 871.111,141.092 887.84,141.13 904.568,143.614 921.297,148.543 938.025,155.716 954.754,164.662 971.482,174.481 988.211,183.73 1004.94,190.61 1021.67,193.742 1038.4,193.097 1055.12,190.008 1071.85,186.257 1088.58,183.279 1105.31,181.95 1122.04,182.681 1138.77,185.571 1155.5,190.446 1172.22,196.864 1188.95,204.04 1205.68,210.833 1222.41,215.93 1239.14,218.352 1255.87,217.994 1272.6,215.688 1289.32,212.702 1306.05,210.193 1322.78,208.973 1339.51,209.518 1356.24,212.037 1372.97,216.532 1389.7,222.804 1406.42,230.416 1423.15,238.624 1439.88,246.361 1456.61,252.427 1473.34,255.927 1490.07,256.765 1506.79,255.69 1523.52,253.86 1540.25,252.355 1556.98,251.933 1573.71,253.026 1590.44,255.78 1607.17,260.114 1623.89,265.717 1640.62,272.035 1657.35,278.285 1674.08,283.561 1690.81,287.106 1707.54,288.639 1724.27,288.493 1740.99,287.44 1757.72,286.353 1774.45,285.964 1791.18,286.77 1807.91,289.037 1824.64,292.842 1841.37,298.063 1858.09,304.402 1874.82,311.333 1891.55,318.141 1908.28,324.011 1925.01,328.264 1941.74,330.638 1958.46,331.409 1975.19,331.248 1991.92,330.936 2008.65,331.138 2025.38,332.303 2042.11,334.662 2058.84,338.234 2075.56,342.861 2092.29,348.195 2109.02,353.729 2125.75,358.86 2142.48,363.018 2159.21,365.858 2175.94,367.397 2192.66,367.993 2209.39,368.209 2226.12,368.628 2242.85,369.714 2259.58,371.79 2276.31,375.002 2293.04,379.344 "/>
<polyline clip-path="url(#clip251)" style="stroke:#e26f46; stroke-linecap:round; stroke-linejoin:round; stroke-width:4; stroke-opacity:1; fill:none" points="302.342,839.064 319.07,707.096 335.799,638.33 352.527,598.605 369.256,577.62 385.984,571.593 402.713,578.805 419.441,593.347 436.17,588.931 452.898,549.255 469.627,504.056 486.355,467.172 503.084,439.098 519.812,418.492 536.541,404.272 553.269,395.772 569.998,392.669 586.726,394.919 603.455,402.696 620.183,416.221 636.912,435.063 653.64,455.543 670.369,465.893 687.097,454.766 703.826,431.198 720.555,408.059 737.283,389.869 754.012,377.241 770.74,369.909 787.469,367.576 804.197,370.088 820.926,377.424 837.654,389.551 854.383,405.952 871.111,424.224 887.84,437.561 904.568,436.832 921.297,422.615 938.025,404.215 954.754,387.922 971.482,375.82 988.211,368.263 1004.94,365.169 1021.67,366.417 1038.4,371.945 1055.12,381.728 1071.85,395.571 1088.58,412.56 1105.31,429.738 1122.04,440.767 1138.77,439.521 1155.5,428.066 1172.22,413.599 1188.95,400.936 1205.68,391.888 1222.41,386.909 1239.14,386.009 1255.87,389.125 1272.6,396.16 1289.32,406.937 1306.05,420.881 1322.78,436.374 1339.51,449.737 1356.24,455.659 1372.97,451.688 1389.7,441.313 1406.42,429.709 1423.15,420.018 1439.88,413.523 1456.61,410.602 1473.34,411.324 1490.07,415.647 1506.79,423.481 1523.52,434.583 1540.25,448.294 1556.98,462.991 1573.71,475.439 1590.44,481.467 1607.17,479.282 1623.89,471.525 1640.62,462.348 1657.35,454.571 1674.08,449.514 1690.81,447.652 1707.54,449.109 1724.27,453.849 1740.99,461.713 1757.72,472.329 1774.45,484.83 1791.18,497.464 1807.91,507.357 1824.64,511.562 1841.37,509.407 1858.09,503.163 1874.82,495.927 1891.55,489.901 1908.28,486.199 1925.01,485.307 1941.74,487.363 1958.46,492.353 1975.19,500.115 1991.92,510.256 2008.65,521.971 2025.38,533.73 2042.11,543.232 2058.84,548.173 2075.56,547.852 2092.29,543.803 2109.02,538.479 2125.75,533.852 2142.48,531.08 2159.21,530.712 2175.94,532.937 2192.66,537.749 2209.39,544.936 2226.12,554.054 2242.85,564.253 2259.58,574.134 2276.31,581.874 2293.04,585.891 "/>
<polyline clip-path="url(#clip251)" style="stroke:#3da44d; stroke-linecap:round; stroke-linejoin:round; stroke-width:4; stroke-opacity:1; fill:none" points="302.342,554.785 319.07,625.442 335.799,463.589 352.527,404.102 369.256,373.725 385.984,360.355 402.713,362.74 419.441,390.044 436.17,492.67 452.898,361.834 469.627,325.349 486.355,307.405 503.084,300.417 519.812,302.786 536.541,315.811 553.269,346.353 569.998,453.541 586.726,369.874 603.455,333.95 620.183,322.941 636.912,325.95 653.64,343.022 670.369,384.669 687.097,492.901 703.826,384.172 720.555,367.732 737.283,380.876 754.012,473.971 770.74,381.16 787.469,334.55 804.197,312.286 820.926,301.872 837.654,300.216 854.383,306.928 871.111,323.873 887.84,358.58 904.568,481.994 921.297,383.706 938.025,352.814 954.754,346.954 971.482,358.121 988.211,396.026 1004.94,469.549 1021.67,371.347 1038.4,342.598 1055.12,330.703 1071.85,328.922 1088.58,335.697 1105.31,351.776 1122.04,381.149 1138.77,441.386 1155.5,487.551 1172.22,435.659 1188.95,445.456 1205.68,704.755 1222.41,422.613 1239.14,380.822 1255.87,359.678 1272.6,349.281 1289.32,346.727 1306.05,351.171 1322.78,363.044 1339.51,384.464 1356.24,422.371 1372.97,524.713 1389.7,472.192 1406.42,447.633 1423.15,459.053 1439.88,539.356 1456.61,468.647 1473.34,420.789 1490.07,398.671 1506.79,388.207 1523.52,385.681 1540.25,389.861 1556.98,400.612 1573.71,418.71 1590.44,446.151 1607.17,487.115 1623.89,547.963 1640.62,586.749 1657.35,530.235 1674.08,481.943 1690.81,451.409 1707.54,432.406 1724.27,421.548 1740.99,417.177 1757.72,418.528 1774.45,425.433 1791.18,438.27 1807.91,458.086 1824.64,487.146 1841.37,530.215 1858.09,596.313 1874.82,644.904 1891.55,579.531 1908.28,528.708 1925.01,497.664 1941.74,478.578 1958.46,467.71 1975.19,463.206 1991.92,464.154 2008.65,470.148 2025.38,481.079 2042.11,496.982 2058.84,517.554 2075.56,540.793 2092.29,559.905 2109.02,563.824 2125.75,551.781 2142.48,534.583 2159.21,519.564 2175.94,508.965 2192.66,503.061 2209.39,501.685 2226.12,504.702 2242.85,512.061 2259.58,523.856 2276.31,540.2 2293.04,560.847 "/>
<polyline clip-path="url(#clip251)" style="stroke:#c271d2; stroke-linecap:round; stroke-linejoin:round; stroke-width:4; stroke-opacity:1; fill:none" points="302.342,173.335 319.07,252.933 335.799,306.61 352.527,348.442 369.256,383.125 385.984,412.852 402.713,438.858 419.441,461.938 436.17,482.65 452.898,501.418 469.627,518.575 486.355,534.39 503.084,549.081 519.812,562.823 536.541,575.76 553.269,588.003 569.998,599.645 586.726,610.755 603.455,621.389 620.183,631.591 636.912,641.395 653.64,650.828 670.369,659.912 687.097,668.666 703.826,677.106 720.555,685.247 737.283,693.106 754.012,700.695 770.74,708.031 787.469,715.129 804.197,722.003 820.926,728.669 837.654,735.141 854.383,741.433 871.111,747.559 887.84,753.53 904.568,759.357 921.297,765.049 938.025,770.614 954.754,776.061 971.482,781.394 988.211,786.618 1004.94,791.739 1021.67,796.758 1038.4,801.68 1055.12,806.507 1071.85,811.24 1088.58,815.883 1105.31,820.437 1122.04,824.906 1138.77,829.29 1155.5,833.592 1172.22,837.817 1188.95,841.965 1205.68,846.04 1222.41,850.044 1239.14,853.982 1255.87,857.855 1272.6,861.666 1289.32,865.419 1306.05,869.115 1322.78,872.756 1339.51,876.346 1356.24,879.885 1372.97,883.376 1389.7,886.819 1406.42,890.216 1423.15,893.569 1439.88,896.878 1456.61,900.143 1473.34,903.367 1490.07,906.549 1506.79,909.69 1523.52,912.792 1540.25,915.855 1556.98,918.879 1573.71,921.865 1590.44,924.815 1607.17,927.73 1623.89,930.609 1640.62,933.454 1657.35,936.266 1674.08,939.046 1690.81,941.795 1707.54,944.513 1724.27,947.202 1740.99,949.861 1757.72,952.493 1774.45,955.098 1791.18,957.676 1807.91,960.227 1824.64,962.754 1841.37,965.255 1858.09,967.731 1874.82,970.184 1891.55,972.612 1908.28,975.018 1925.01,977.4 1941.74,979.76 1958.46,982.098 1975.19,984.413 1991.92,986.707 2008.65,988.98 2025.38,991.232 2042.11,993.464 2058.84,995.676 2075.56,997.868 2092.29,1000.04 2109.02,1002.19 2125.75,1004.33 2142.48,1006.45 2159.21,1008.55 2175.94,1010.63 2192.66,1012.69 2209.39,1014.74 2226.12,1016.77 2242.85,1018.79 2259.58,1020.79 2276.31,1022.77 2293.04,1024.74 "/>
<polyline clip-path="url(#clip251)" style="stroke:#ac8d18; stroke-linecap:round; stroke-linejoin:round; stroke-width:4; stroke-opacity:1; fill:none" points="302.342,301.466 319.07,371.693 335.799,415.799 352.527,447.924 369.256,473.486 385.984,495.181 402.713,514.584 419.441,532.656 436.17,548.994 452.898,565.01 469.627,581.226 486.355,598.019 503.084,615.574 519.812,634.173 536.541,654.197 553.269,675.804 569.998,699.603 586.726,725.242 603.455,754.358 620.183,788.151 636.912,827.841 653.64,868.622 670.369,888.876 687.097,873.702 703.826,846.34 720.555,823.459 737.283,807.165 754.012,795.723 770.74,787.417 787.469,781.563 804.197,777.958 820.926,776.481 837.654,776.825 854.383,778.944 871.111,782.791 887.84,788.05 904.568,794.724 921.297,802.615 938.025,812.439 954.754,824.011 971.482,837.766 988.211,854.035 1004.94,872.982 1021.67,896.76 1038.4,927.823 1055.12,968.441 1071.85,1032.29 1088.58,1099.12 1105.31,1044.37 1122.04,1075.89 1138.77,1074.69 1155.5,1002.28 1172.22,965.856 1188.95,943.42 1205.68,929.046 1222.41,918.483 1239.14,911.272 1255.87,906.658 1272.6,903.902 1289.32,903.188 1306.05,904.151 1322.78,906.775 1339.51,910.955 1356.24,916.661 1372.97,923.747 1389.7,932.362 1406.42,942.591 1423.15,954.483 1439.88,968.42 1456.61,984.35 1473.34,1001.82 1490.07,1021.08 1506.79,1040.4 1523.52,1056.87 1540.25,1066.6 1556.98,1067.23 1573.71,1060.04 1590.44,1048.56 1607.17,1035.76 1623.89,1024.16 1640.62,1014.55 1657.35,1006.98 1674.08,1001.27 1690.81,997.129 1707.54,994.601 1724.27,993.403 1740.99,993.472 1757.72,994.829 1774.45,997.428 1791.18,1001.19 1807.91,1006.02 1824.64,1012.02 1841.37,1018.92 1858.09,1026.8 1874.82,1035.47 1891.55,1044.84 1908.28,1054.68 1925.01,1064.41 1941.74,1073.53 1958.46,1081.12 1975.19,1086.52 1991.92,1089.39 2008.65,1089.52 2025.38,1087.61 2042.11,1084.19 2058.84,1080.06 2075.56,1075.75 2092.29,1071.83 2109.02,1068.35 2125.75,1065.7 2142.48,1063.91 2159.21,1062.99 2175.94,1062.89 2192.66,1063.65 2209.39,1065.2 2226.12,1067.57 2242.85,1070.63 2259.58,1074.4 2276.31,1078.81 2293.04,1083.74 "/>
<polyline clip-path="url(#clip251)" style="stroke:#00a9ad; stroke-linecap:round; stroke-linejoin:round; stroke-width:4; stroke-opacity:1; fill:none" points="302.342,762.094 319.07,788.436 335.799,762.119 352.527,770.025 369.256,781.745 385.984,794.923 402.713,816.951 419.441,860.432 436.17,990.687 452.898,879.905 469.627,842.963 486.355,826.848 503.084,818.434 519.812,814.691 536.541,814.944 553.269,817.596 569.998,823.352 586.726,830.188 603.455,839.29 620.183,851.53 636.912,868.481 653.64,892.434 670.369,931.359 687.097,1058.48 703.826,955.042 720.555,919.291 737.283,902.281 754.012,893.621 770.74,890.348 787.469,890.528 804.197,894.071 820.926,901.331 837.654,912.209 854.383,927.96 871.111,951.49 887.84,988.145 904.568,1110.25 921.297,1016.17 938.025,976.045 954.754,958.332 971.482,949.241 988.211,945.253 1004.94,946.151 1021.67,949.095 1038.4,954.102 1055.12,963.216 1071.85,976.537 1088.58,993.579 1105.31,1017.66 1122.04,1062.56 1138.77,1171.79 1155.5,1058.77 1172.22,1028.73 1188.95,1013.8 1205.68,1006.61 1222.41,1003.3 1239.14,1003.6 1255.87,1007.27 1272.6,1013.92 1289.32,1024.43 1306.05,1039.55 1322.78,1061.92 1339.51,1098.67 1356.24,1211.35 1372.97,1125.25 1389.7,1085.76 1406.42,1067.42 1423.15,1057.57 1439.88,1052.66 1456.61,1051.72 1473.34,1054.1 1490.07,1059.28 1506.79,1067.27 1523.52,1078.9 1540.25,1095.34 1556.98,1118.9 1573.71,1158.1 1590.44,1340.93 1607.17,1170.34 1623.89,1135.77 1640.62,1118.94 1657.35,1110.29 1674.08,1106.71 1690.81,1106.61 1707.54,1109.59 1724.27,1115.73 1740.99,1125.39 1757.72,1139.61 1774.45,1160.45 1791.18,1194.31 1807.91,1280.78 1824.64,1234.6 1841.37,1190.07 1858.09,1170.03 1874.82,1159.14 1891.55,1153.72 1908.28,1152.1 1925.01,1153.78 1941.74,1158.44 1958.46,1166.07 1975.19,1177.13 1991.92,1192.41 2008.65,1214.36 2025.38,1250.17 2042.11,1351.06 2058.84,1280.73 2075.56,1240.44 2092.29,1221.86 2109.02,1212.22 2125.75,1207.84 2142.48,1207.25 2159.21,1210 2175.94,1215.87 2192.66,1225.38 2209.39,1239.35 2226.12,1260.01 2242.85,1294.16 2259.58,1384.24 2276.31,1329.46 2293.04,1285.98 "/>
<path clip-path="url(#clip250)" d="M312.959 1377.32 L581.75 1377.32 L581.75 1014.44 L312.959 1014.44  Z" fill="#ffffff" fill-rule="evenodd" fill-opacity="1"/>
<polyline clip-path="url(#clip250)" style="stroke:#000000; stroke-linecap:round; stroke-linejoin:round; stroke-width:4; stroke-opacity:1; fill:none" points="312.959,1377.32 581.75,1377.32 581.75,1014.44 312.959,1014.44 312.959,1377.32 "/>
<polyline clip-path="url(#clip250)" style="stroke:#009af9; stroke-linecap:round; stroke-linejoin:round; stroke-width:4; stroke-opacity:1; fill:none" points="336.405,1066.28 477.08,1066.28 "/>
<path clip-path="url(#clip250)" d="M500.526 1049 L529.762 1049 L529.762 1052.93 L517.494 1052.93 L517.494 1083.56 L512.795 1083.56 L512.795 1052.93 L500.526 1052.93 L500.526 1049 Z" fill="#000000" fill-rule="nonzero" fill-opacity="1" /><path clip-path="url(#clip250)" d="M528.651 1049 L557.887 1049 L557.887 1052.93 L545.619 1052.93 L545.619 1083.56 L540.919 1083.56 L540.919 1052.93 L528.651 1052.93 L528.651 1049 Z" fill="#000000" fill-rule="nonzero" fill-opacity="1" /><polyline clip-path="url(#clip250)" style="stroke:#e26f46; stroke-linecap:round; stroke-linejoin:round; stroke-width:4; stroke-opacity:1; fill:none" points="336.405,1118.12 477.08,1118.12 "/>
<path clip-path="url(#clip250)" d="M500.526 1100.84 L522.378 1100.84 L522.378 1104.77 L505.202 1104.77 L505.202 1115 L521.66 1115 L521.66 1118.94 L505.202 1118.94 L505.202 1131.46 L522.795 1131.46 L522.795 1135.4 L500.526 1135.4 L500.526 1100.84 Z" fill="#000000" fill-rule="nonzero" fill-opacity="1" /><path clip-path="url(#clip250)" d="M530.48 1100.84 L552.331 1100.84 L552.331 1104.77 L535.156 1104.77 L535.156 1115 L551.614 1115 L551.614 1118.94 L535.156 1118.94 L535.156 1131.46 L552.748 1131.46 L552.748 1135.4 L530.48 1135.4 L530.48 1100.84 Z" fill="#000000" fill-rule="nonzero" fill-opacity="1" /><polyline clip-path="url(#clip250)" style="stroke:#3da44d; stroke-linecap:round; stroke-linejoin:round; stroke-width:4; stroke-opacity:1; fill:none" points="336.405,1169.96 477.08,1169.96 "/>
<path clip-path="url(#clip250)" d="M500.526 1152.68 L529.762 1152.68 L529.762 1156.61 L517.494 1156.61 L517.494 1187.24 L512.795 1187.24 L512.795 1156.61 L500.526 1156.61 L500.526 1152.68 Z" fill="#000000" fill-rule="nonzero" fill-opacity="1" /><path clip-path="url(#clip250)" d="M534.276 1152.68 L556.128 1152.68 L556.128 1156.61 L538.952 1156.61 L538.952 1166.84 L555.41 1166.84 L555.41 1170.78 L538.952 1170.78 L538.952 1183.3 L556.544 1183.3 L556.544 1187.24 L534.276 1187.24 L534.276 1152.68 Z" fill="#000000" fill-rule="nonzero" fill-opacity="1" /><polyline clip-path="url(#clip250)" style="stroke:#c271d2; stroke-linecap:round; stroke-linejoin:round; stroke-width:4; stroke-opacity:1; fill:none" points="336.405,1221.8 477.08,1221.8 "/>
<path clip-path="url(#clip250)" d="M511.383 1239.65 Q506.035 1238.8 503.559 1236.55 Q500.526 1233.8 500.526 1228.17 L500.526 1213.15 L504.832 1213.15 L504.832 1228.01 Q504.832 1232.25 506.799 1234.01 Q508.512 1235.53 511.383 1235.86 L511.383 1213.15 L515.619 1213.15 L515.619 1235.83 Q518.651 1235.51 520.202 1233.98 Q522.17 1232.04 522.17 1227.99 L522.17 1213.15 L526.475 1213.15 L526.475 1228.15 Q526.475 1233.98 523.443 1236.53 Q520.711 1238.82 515.619 1239.63 L515.619 1248.94 L511.383 1248.94 L511.383 1239.65 Z" fill="#000000" fill-rule="nonzero" fill-opacity="1" /><path clip-path="url(#clip250)" d="M542.656 1239.65 Q537.308 1238.8 534.832 1236.55 Q531.799 1233.8 531.799 1228.17 L531.799 1213.15 L536.105 1213.15 L536.105 1228.01 Q536.105 1232.25 538.072 1234.01 Q539.785 1235.53 542.656 1235.86 L542.656 1213.15 L546.892 1213.15 L546.892 1235.83 Q549.924 1235.51 551.475 1233.98 Q553.443 1232.04 553.443 1227.99 L553.443 1213.15 L557.748 1213.15 L557.748 1228.15 Q557.748 1233.98 554.716 1236.53 Q551.984 1238.82 546.892 1239.63 L546.892 1248.94 L542.656 1248.94 L542.656 1239.65 Z" fill="#000000" fill-rule="nonzero" fill-opacity="1" /><polyline clip-path="url(#clip250)" style="stroke:#ac8d18; stroke-linecap:round; stroke-linejoin:round; stroke-width:4; stroke-opacity:1; fill:none" points="336.405,1273.64 477.08,1273.64 "/>
<path clip-path="url(#clip250)" d="M511.383 1291.49 Q506.035 1290.64 503.559 1288.39 Q500.526 1285.64 500.526 1280.01 L500.526 1264.99 L504.832 1264.99 L504.832 1279.85 Q504.832 1284.09 506.799 1285.85 Q508.512 1287.37 511.383 1287.7 L511.383 1264.99 L515.619 1264.99 L515.619 1287.67 Q518.651 1287.35 520.202 1285.82 Q522.17 1283.88 522.17 1279.83 L522.17 1264.99 L526.475 1264.99 L526.475 1279.99 Q526.475 1285.82 523.443 1288.37 Q520.711 1290.66 515.619 1291.47 L515.619 1300.78 L511.383 1300.78 L511.383 1291.49 Z" fill="#000000" fill-rule="nonzero" fill-opacity="1" /><path clip-path="url(#clip250)" d="M529.068 1256.36 L558.304 1256.36 L558.304 1260.29 L546.035 1260.29 L546.035 1290.92 L541.336 1290.92 L541.336 1260.29 L529.068 1260.29 L529.068 1256.36 Z" fill="#000000" fill-rule="nonzero" fill-opacity="1" /><polyline clip-path="url(#clip250)" style="stroke:#00a9ad; stroke-linecap:round; stroke-linejoin:round; stroke-width:4; stroke-opacity:1; fill:none" points="336.405,1325.48 477.08,1325.48 "/>
<path clip-path="url(#clip250)" d="M511.383 1343.33 Q506.035 1342.48 503.559 1340.23 Q500.526 1337.48 500.526 1331.85 L500.526 1316.83 L504.832 1316.83 L504.832 1331.69 Q504.832 1335.93 506.799 1337.69 Q508.512 1339.21 511.383 1339.54 L511.383 1316.83 L515.619 1316.83 L515.619 1339.51 Q518.651 1339.19 520.202 1337.66 Q522.17 1335.72 522.17 1331.67 L522.17 1316.83 L526.475 1316.83 L526.475 1331.83 Q526.475 1337.66 523.443 1340.21 Q520.711 1342.5 515.619 1343.31 L515.619 1352.62 L511.383 1352.62 L511.383 1343.33 Z" fill="#000000" fill-rule="nonzero" fill-opacity="1" /><path clip-path="url(#clip250)" d="M533.859 1308.2 L555.711 1308.2 L555.711 1312.13 L538.535 1312.13 L538.535 1322.36 L554.993 1322.36 L554.993 1326.3 L538.535 1326.3 L538.535 1338.82 L556.128 1338.82 L556.128 1342.76 L533.859 1342.76 L533.859 1308.2 Z" fill="#000000" fill-rule="nonzero" fill-opacity="1" /></svg>
