<?xml version="1.0" encoding="utf-8"?>
<svg xmlns="http://www.w3.org/2000/svg" xmlns:xlink="http://www.w3.org/1999/xlink" width="800" height="400" viewBox="0 0 3200 1600">
<defs>
  <clipPath id="clip610">
    <rect x="0" y="0" width="3200" height="1600"/>
  </clipPath>
</defs>
<path clip-path="url(#clip610)" d="M0 1600 L3200 1600 L3200 0 L0 0  Z" fill="#ffffff" fill-rule="evenodd" fill-opacity="1"/>
<defs>
  <clipPath id="clip611">
    <rect x="364" y="47" width="2789" height="1449"/>
  </clipPath>
</defs>
<path clip-path="url(#clip610)" d="M364.733 1495.09 L3152.76 1495.09 L3152.76 47.2441 L364.733 47.2441  Z" fill="#ffffff" fill-rule="evenodd" fill-opacity="1"/>
<polyline clip-path="url(#clip611)" style="stroke:#000000; stroke-linecap:round; stroke-linejoin:round; stroke-width:2; stroke-opacity:0.1; fill:none" points="735.885,1495.09 735.885,47.2441 "/>
<polyline clip-path="url(#clip611)" style="stroke:#000000; stroke-linecap:round; stroke-linejoin:round; stroke-width:2; stroke-opacity:0.1; fill:none" points="1758.74,1495.09 1758.74,47.2441 "/>
<polyline clip-path="url(#clip611)" style="stroke:#000000; stroke-linecap:round; stroke-linejoin:round; stroke-width:2; stroke-opacity:0.1; fill:none" points="2781.6,1495.09 2781.6,47.2441 "/>
<polyline clip-path="url(#clip611)" style="stroke:#000000; stroke-linecap:round; stroke-linejoin:round; stroke-width:2; stroke-opacity:0.1; fill:none" points="364.733,1386.36 3152.76,1386.36 "/>
<polyline clip-path="url(#clip611)" style="stroke:#000000; stroke-linecap:round; stroke-linejoin:round; stroke-width:2; stroke-opacity:0.1; fill:none" points="364.733,1111.65 3152.76,1111.65 "/>
<polyline clip-path="url(#clip611)" style="stroke:#000000; stroke-linecap:round; stroke-linejoin:round; stroke-width:2; stroke-opacity:0.1; fill:none" points="364.733,836.937 3152.76,836.937 "/>
<polyline clip-path="url(#clip611)" style="stroke:#000000; stroke-linecap:round; stroke-linejoin:round; stroke-width:2; stroke-opacity:0.1; fill:none" points="364.733,562.224 3152.76,562.224 "/>
<polyline clip-path="url(#clip611)" style="stroke:#000000; stroke-linecap:round; stroke-linejoin:round; stroke-width:2; stroke-opacity:0.1; fill:none" points="364.733,287.511 3152.76,287.511 "/>
<polyline clip-path="url(#clip610)" style="stroke:#000000; stroke-linecap:round; stroke-linejoin:round; stroke-width:4; stroke-opacity:1; fill:none" points="364.733,1495.09 3152.76,1495.09 "/>
<polyline clip-path="url(#clip610)" style="stroke:#000000; stroke-linecap:round; stroke-linejoin:round; stroke-width:4; stroke-opacity:1; fill:none" points="735.885,1495.09 735.885,1476.19 "/>
<polyline clip-path="url(#clip610)" style="stroke:#000000; stroke-linecap:round; stroke-linejoin:round; stroke-width:4; stroke-opacity:1; fill:none" points="1758.74,1495.09 1758.74,1476.19 "/>
<polyline clip-path="url(#clip610)" style="stroke:#000000; stroke-linecap:round; stroke-linejoin:round; stroke-width:4; stroke-opacity:1; fill:none" points="2781.6,1495.09 2781.6,1476.19 "/>
<path clip-path="url(#clip610)" d="M651.846 1538.73 L651.846 1542.75 Q650.04 1541.83 648.096 1541.36 Q646.151 1540.9 644.068 1540.9 Q640.897 1540.9 639.299 1541.87 Q637.725 1542.85 637.725 1544.79 Q637.725 1546.27 638.86 1547.13 Q639.994 1547.96 643.42 1548.73 L644.878 1549.05 Q649.415 1550.02 651.313 1551.8 Q653.235 1553.56 653.235 1556.74 Q653.235 1560.35 650.364 1562.45 Q647.517 1564.56 642.517 1564.56 Q640.434 1564.56 638.165 1564.14 Q635.92 1563.75 633.42 1562.94 L633.42 1558.54 Q635.781 1559.77 638.073 1560.39 Q640.364 1560.99 642.61 1560.99 Q645.619 1560.99 647.239 1559.98 Q648.86 1558.93 648.86 1557.06 Q648.86 1555.32 647.679 1554.4 Q646.522 1553.47 642.563 1552.61 L641.082 1552.27 Q637.123 1551.43 635.364 1549.72 Q633.605 1547.99 633.605 1544.98 Q633.605 1541.32 636.198 1539.33 Q638.79 1537.34 643.559 1537.34 Q645.92 1537.34 648.003 1537.68 Q650.086 1538.03 651.846 1538.73 Z" fill="#000000" fill-rule="nonzero" fill-opacity="1" /><path clip-path="url(#clip610)" d="M670.804 1566.3 Q668.998 1570.92 667.285 1572.34 Q665.572 1573.75 662.702 1573.75 L659.299 1573.75 L659.299 1570.18 L661.799 1570.18 Q663.559 1570.18 664.531 1569.35 Q665.503 1568.52 666.684 1565.42 L667.447 1563.47 L656.961 1537.96 L661.475 1537.96 L669.577 1558.24 L677.679 1537.96 L682.193 1537.96 L670.804 1566.3 Z" fill="#000000" fill-rule="nonzero" fill-opacity="1" /><path clip-path="url(#clip610)" d="M708.257 1542.94 Q709.855 1540.07 712.077 1538.7 Q714.299 1537.34 717.308 1537.34 Q721.359 1537.34 723.558 1540.18 Q725.757 1543.01 725.757 1548.24 L725.757 1563.89 L721.475 1563.89 L721.475 1548.38 Q721.475 1544.65 720.155 1542.85 Q718.836 1541.04 716.128 1541.04 Q712.818 1541.04 710.896 1543.24 Q708.975 1545.44 708.975 1549.24 L708.975 1563.89 L704.693 1563.89 L704.693 1548.38 Q704.693 1544.63 703.373 1542.85 Q702.054 1541.04 699.299 1541.04 Q696.035 1541.04 694.114 1543.26 Q692.193 1545.46 692.193 1549.24 L692.193 1563.89 L687.91 1563.89 L687.91 1537.96 L692.193 1537.96 L692.193 1541.99 Q693.651 1539.61 695.688 1538.47 Q697.725 1537.34 700.526 1537.34 Q703.35 1537.34 705.318 1538.77 Q707.308 1540.21 708.257 1542.94 Z" fill="#000000" fill-rule="nonzero" fill-opacity="1" /><path clip-path="url(#clip610)" d="M752.864 1550.95 Q752.864 1546.25 750.919 1543.59 Q748.998 1540.9 745.618 1540.9 Q742.239 1540.9 740.294 1543.59 Q738.373 1546.25 738.373 1550.95 Q738.373 1555.65 740.294 1558.33 Q742.239 1560.99 745.618 1560.99 Q748.998 1560.99 750.919 1558.33 Q752.864 1555.65 752.864 1550.95 M738.373 1541.9 Q739.716 1539.58 741.753 1538.47 Q743.813 1537.34 746.66 1537.34 Q751.382 1537.34 754.322 1541.09 Q757.285 1544.84 757.285 1550.95 Q757.285 1557.06 754.322 1560.81 Q751.382 1564.56 746.66 1564.56 Q743.813 1564.56 741.753 1563.45 Q739.716 1562.31 738.373 1560 L738.373 1563.89 L734.091 1563.89 L734.091 1527.87 L738.373 1527.87 L738.373 1541.9 Z" fill="#000000" fill-rule="nonzero" fill-opacity="1" /><path clip-path="url(#clip610)" d="M774.391 1540.95 Q770.965 1540.95 768.975 1543.63 Q766.984 1546.3 766.984 1550.95 Q766.984 1555.6 768.951 1558.29 Q770.942 1560.95 774.391 1560.95 Q777.794 1560.95 779.785 1558.26 Q781.775 1555.58 781.775 1550.95 Q781.775 1546.34 779.785 1543.66 Q777.794 1540.95 774.391 1540.95 M774.391 1537.34 Q779.947 1537.34 783.118 1540.95 Q786.289 1544.56 786.289 1550.95 Q786.289 1557.31 783.118 1560.95 Q779.947 1564.56 774.391 1564.56 Q768.813 1564.56 765.641 1560.95 Q762.493 1557.31 762.493 1550.95 Q762.493 1544.56 765.641 1540.95 Q768.813 1537.34 774.391 1537.34 Z" fill="#000000" fill-rule="nonzero" fill-opacity="1" /><path clip-path="url(#clip610)" d="M793.349 1527.87 L797.609 1527.87 L797.609 1563.89 L793.349 1563.89 L793.349 1527.87 Z" fill="#000000" fill-rule="nonzero" fill-opacity="1" /><path clip-path="url(#clip610)" d="M806.521 1537.96 L810.78 1537.96 L810.78 1563.89 L806.521 1563.89 L806.521 1537.96 M806.521 1527.87 L810.78 1527.87 L810.78 1533.26 L806.521 1533.26 L806.521 1527.87 Z" fill="#000000" fill-rule="nonzero" fill-opacity="1" /><path clip-path="url(#clip610)" d="M838.349 1538.96 L838.349 1542.94 Q836.544 1541.94 834.715 1541.46 Q832.909 1540.95 831.058 1540.95 Q826.914 1540.95 824.622 1543.59 Q822.331 1546.2 822.331 1550.95 Q822.331 1555.69 824.622 1558.33 Q826.914 1560.95 831.058 1560.95 Q832.909 1560.95 834.715 1560.46 Q836.544 1559.95 838.349 1558.96 L838.349 1562.89 Q836.567 1563.73 834.646 1564.14 Q832.747 1564.56 830.595 1564.56 Q824.738 1564.56 821.289 1560.88 Q817.84 1557.2 817.84 1550.95 Q817.84 1544.61 821.312 1540.97 Q824.808 1537.34 830.872 1537.34 Q832.84 1537.34 834.715 1537.75 Q836.59 1538.15 838.349 1538.96 Z" fill="#000000" fill-rule="nonzero" fill-opacity="1" /><path clip-path="url(#clip610)" d="M1669.07 1527.87 L1669.07 1531.41 L1664.99 1531.41 Q1662.7 1531.41 1661.8 1532.34 Q1660.92 1533.26 1660.92 1535.67 L1660.92 1537.96 L1667.93 1537.96 L1667.93 1541.27 L1660.92 1541.27 L1660.92 1563.89 L1656.64 1563.89 L1656.64 1541.27 L1652.56 1541.27 L1652.56 1537.96 L1656.64 1537.96 L1656.64 1536.16 Q1656.64 1531.83 1658.65 1529.86 Q1660.67 1527.87 1665.04 1527.87 L1669.07 1527.87 Z" fill="#000000" fill-rule="nonzero" fill-opacity="1" /><path clip-path="url(#clip610)" d="M1672.63 1537.96 L1676.89 1537.96 L1676.89 1563.89 L1672.63 1563.89 L1672.63 1537.96 M1672.63 1527.87 L1676.89 1527.87 L1676.89 1533.26 L1672.63 1533.26 L1672.63 1527.87 Z" fill="#000000" fill-rule="nonzero" fill-opacity="1" /><path clip-path="url(#clip610)" d="M1707.36 1548.24 L1707.36 1563.89 L1703.1 1563.89 L1703.1 1548.38 Q1703.1 1544.7 1701.66 1542.87 Q1700.23 1541.04 1697.36 1541.04 Q1693.91 1541.04 1691.92 1543.24 Q1689.93 1545.44 1689.93 1549.24 L1689.93 1563.89 L1685.64 1563.89 L1685.64 1537.96 L1689.93 1537.96 L1689.93 1541.99 Q1691.45 1539.65 1693.51 1538.49 Q1695.6 1537.34 1698.3 1537.34 Q1702.77 1537.34 1705.06 1540.11 Q1707.36 1542.87 1707.36 1548.24 Z" fill="#000000" fill-rule="nonzero" fill-opacity="1" /><path clip-path="url(#clip610)" d="M1715.85 1537.96 L1720.11 1537.96 L1720.11 1563.89 L1715.85 1563.89 L1715.85 1537.96 M1715.85 1527.87 L1720.11 1527.87 L1720.11 1533.26 L1715.85 1533.26 L1715.85 1527.87 Z" fill="#000000" fill-rule="nonzero" fill-opacity="1" /><path clip-path="url(#clip610)" d="M1733.24 1530.6 L1733.24 1537.96 L1742.01 1537.96 L1742.01 1541.27 L1733.24 1541.27 L1733.24 1555.35 Q1733.24 1558.52 1734.09 1559.42 Q1734.97 1560.32 1737.63 1560.32 L1742.01 1560.32 L1742.01 1563.89 L1737.63 1563.89 Q1732.7 1563.89 1730.83 1562.06 Q1728.95 1560.21 1728.95 1555.35 L1728.95 1541.27 L1725.83 1541.27 L1725.83 1537.96 L1728.95 1537.96 L1728.95 1530.6 L1733.24 1530.6 Z" fill="#000000" fill-rule="nonzero" fill-opacity="1" /><path clip-path="url(#clip610)" d="M1769.79 1549.86 L1769.79 1551.94 L1750.2 1551.94 Q1750.48 1556.34 1752.84 1558.66 Q1755.23 1560.95 1759.46 1560.95 Q1761.92 1560.95 1764.21 1560.35 Q1766.52 1559.74 1768.79 1558.54 L1768.79 1562.57 Q1766.5 1563.54 1764.09 1564.05 Q1761.68 1564.56 1759.21 1564.56 Q1753 1564.56 1749.37 1560.95 Q1745.76 1557.34 1745.76 1551.18 Q1745.76 1544.81 1749.18 1541.09 Q1752.63 1537.34 1758.47 1537.34 Q1763.7 1537.34 1766.73 1540.72 Q1769.79 1544.07 1769.79 1549.86 M1765.53 1548.61 Q1765.48 1545.11 1763.56 1543.03 Q1761.66 1540.95 1758.51 1540.95 Q1754.95 1540.95 1752.8 1542.96 Q1750.67 1544.98 1750.34 1548.63 L1765.53 1548.61 Z" fill="#000000" fill-rule="nonzero" fill-opacity="1" /><path clip-path="url(#clip610)" d="M1808.91 1541.9 L1808.91 1527.87 L1813.17 1527.87 L1813.17 1563.89 L1808.91 1563.89 L1808.91 1560 Q1807.56 1562.31 1805.5 1563.45 Q1803.47 1564.56 1800.6 1564.56 Q1795.9 1564.56 1792.93 1560.81 Q1789.99 1557.06 1789.99 1550.95 Q1789.99 1544.84 1792.93 1541.09 Q1795.9 1537.34 1800.6 1537.34 Q1803.47 1537.34 1805.5 1538.47 Q1807.56 1539.58 1808.91 1541.9 M1794.39 1550.95 Q1794.39 1555.65 1796.31 1558.33 Q1798.26 1560.99 1801.64 1560.99 Q1805.02 1560.99 1806.96 1558.33 Q1808.91 1555.65 1808.91 1550.95 Q1808.91 1546.25 1806.96 1543.59 Q1805.02 1540.9 1801.64 1540.9 Q1798.26 1540.9 1796.31 1543.59 Q1794.39 1546.25 1794.39 1550.95 Z" fill="#000000" fill-rule="nonzero" fill-opacity="1" /><path clip-path="url(#clip610)" d="M1821.94 1537.96 L1826.2 1537.96 L1826.2 1563.89 L1821.94 1563.89 L1821.94 1537.96 M1821.94 1527.87 L1826.2 1527.87 L1826.2 1533.26 L1821.94 1533.26 L1821.94 1527.87 Z" fill="#000000" fill-rule="nonzero" fill-opacity="1" /><path clip-path="url(#clip610)" d="M1848.23 1527.87 L1848.23 1531.41 L1844.16 1531.41 Q1841.87 1531.41 1840.97 1532.34 Q1840.09 1533.26 1840.09 1535.67 L1840.09 1537.96 L1847.1 1537.96 L1847.1 1541.27 L1840.09 1541.27 L1840.09 1563.89 L1835.8 1563.89 L1835.8 1541.27 L1831.73 1541.27 L1831.73 1537.96 L1835.8 1537.96 L1835.8 1536.16 Q1835.8 1531.83 1837.82 1529.86 Q1839.83 1527.87 1844.21 1527.87 L1848.23 1527.87 Z" fill="#000000" fill-rule="nonzero" fill-opacity="1" /><path clip-path="url(#clip610)" d="M1864.92 1527.87 L1864.92 1531.41 L1860.85 1531.41 Q1858.56 1531.41 1857.66 1532.34 Q1856.78 1533.26 1856.78 1535.67 L1856.78 1537.96 L1863.79 1537.96 L1863.79 1541.27 L1856.78 1541.27 L1856.78 1563.89 L1852.49 1563.89 L1852.49 1541.27 L1848.42 1541.27 L1848.42 1537.96 L1852.49 1537.96 L1852.49 1536.16 Q1852.49 1531.83 1854.51 1529.86 Q1856.52 1527.87 1860.9 1527.87 L1864.92 1527.87 Z" fill="#000000" fill-rule="nonzero" fill-opacity="1" /><path clip-path="url(#clip610)" d="M2661.47 1527.87 L2661.47 1531.41 L2657.39 1531.41 Q2655.1 1531.41 2654.2 1532.34 Q2653.32 1533.26 2653.32 1535.67 L2653.32 1537.96 L2660.33 1537.96 L2660.33 1541.27 L2653.32 1541.27 L2653.32 1563.89 L2649.04 1563.89 L2649.04 1541.27 L2644.96 1541.27 L2644.96 1537.96 L2649.04 1537.96 L2649.04 1536.16 Q2649.04 1531.83 2651.05 1529.86 Q2653.06 1527.87 2657.44 1527.87 L2661.47 1527.87 Z" fill="#000000" fill-rule="nonzero" fill-opacity="1" /><path clip-path="url(#clip610)" d="M2675.08 1540.95 Q2671.65 1540.95 2669.66 1543.63 Q2667.67 1546.3 2667.67 1550.95 Q2667.67 1555.6 2669.64 1558.29 Q2671.63 1560.95 2675.08 1560.95 Q2678.48 1560.95 2680.47 1558.26 Q2682.46 1555.58 2682.46 1550.95 Q2682.46 1546.34 2680.47 1543.66 Q2678.48 1540.95 2675.08 1540.95 M2675.08 1537.34 Q2680.63 1537.34 2683.8 1540.95 Q2686.97 1544.56 2686.97 1550.95 Q2686.97 1557.31 2683.8 1560.95 Q2680.63 1564.56 2675.08 1564.56 Q2669.5 1564.56 2666.33 1560.95 Q2663.18 1557.31 2663.18 1550.95 Q2663.18 1544.56 2666.33 1540.95 Q2669.5 1537.34 2675.08 1537.34 Z" fill="#000000" fill-rule="nonzero" fill-opacity="1" /><path clip-path="url(#clip610)" d="M2709.06 1541.94 Q2708.34 1541.53 2707.48 1541.34 Q2706.65 1541.13 2705.63 1541.13 Q2702.02 1541.13 2700.08 1543.49 Q2698.16 1545.83 2698.16 1550.23 L2698.16 1563.89 L2693.87 1563.89 L2693.87 1537.96 L2698.16 1537.96 L2698.16 1541.99 Q2699.5 1539.63 2701.65 1538.49 Q2703.8 1537.34 2706.88 1537.34 Q2707.32 1537.34 2707.85 1537.41 Q2708.39 1537.45 2709.03 1537.57 L2709.06 1541.94 Z" fill="#000000" fill-rule="nonzero" fill-opacity="1" /><path clip-path="url(#clip610)" d="M2711.05 1537.96 L2715.31 1537.96 L2720.63 1558.19 L2725.93 1537.96 L2730.96 1537.96 L2736.28 1558.19 L2741.58 1537.96 L2745.84 1537.96 L2739.06 1563.89 L2734.03 1563.89 L2728.46 1542.64 L2722.85 1563.89 L2717.83 1563.89 L2711.05 1537.96 Z" fill="#000000" fill-rule="nonzero" fill-opacity="1" /><path clip-path="url(#clip610)" d="M2764.08 1550.86 Q2758.92 1550.86 2756.93 1552.04 Q2754.94 1553.22 2754.94 1556.06 Q2754.94 1558.33 2756.42 1559.67 Q2757.92 1560.99 2760.49 1560.99 Q2764.03 1560.99 2766.16 1558.49 Q2768.32 1555.97 2768.32 1551.8 L2768.32 1550.86 L2764.08 1550.86 M2772.58 1549.1 L2772.58 1563.89 L2768.32 1563.89 L2768.32 1559.95 Q2766.86 1562.31 2764.68 1563.45 Q2762.51 1564.56 2759.36 1564.56 Q2755.38 1564.56 2753.02 1562.34 Q2750.68 1560.09 2750.68 1556.34 Q2750.68 1551.97 2753.59 1549.74 Q2756.53 1547.52 2762.34 1547.52 L2768.32 1547.52 L2768.32 1547.11 Q2768.32 1544.17 2766.37 1542.57 Q2764.45 1540.95 2760.96 1540.95 Q2758.73 1540.95 2756.63 1541.48 Q2754.52 1542.01 2752.58 1543.08 L2752.58 1539.14 Q2754.91 1538.24 2757.11 1537.8 Q2759.31 1537.34 2761.4 1537.34 Q2767.02 1537.34 2769.8 1540.25 Q2772.58 1543.17 2772.58 1549.1 Z" fill="#000000" fill-rule="nonzero" fill-opacity="1" /><path clip-path="url(#clip610)" d="M2796.37 1541.94 Q2795.65 1541.53 2794.8 1541.34 Q2793.96 1541.13 2792.95 1541.13 Q2789.34 1541.13 2787.39 1543.49 Q2785.47 1545.83 2785.47 1550.23 L2785.47 1563.89 L2781.19 1563.89 L2781.19 1537.96 L2785.47 1537.96 L2785.47 1541.99 Q2786.81 1539.63 2788.97 1538.49 Q2791.12 1537.34 2794.2 1537.34 Q2794.64 1537.34 2795.17 1537.41 Q2795.7 1537.45 2796.35 1537.57 L2796.37 1541.94 Z" fill="#000000" fill-rule="nonzero" fill-opacity="1" /><path clip-path="url(#clip610)" d="M2817.07 1541.9 L2817.07 1527.87 L2821.33 1527.87 L2821.33 1563.89 L2817.07 1563.89 L2817.07 1560 Q2815.72 1562.31 2813.66 1563.45 Q2811.63 1564.56 2808.76 1564.56 Q2804.06 1564.56 2801.09 1560.81 Q2798.15 1557.06 2798.15 1550.95 Q2798.15 1544.84 2801.09 1541.09 Q2804.06 1537.34 2808.76 1537.34 Q2811.63 1537.34 2813.66 1538.47 Q2815.72 1539.58 2817.07 1541.9 M2802.55 1550.95 Q2802.55 1555.65 2804.47 1558.33 Q2806.42 1560.99 2809.8 1560.99 Q2813.18 1560.99 2815.12 1558.33 Q2817.07 1555.65 2817.07 1550.95 Q2817.07 1546.25 2815.12 1543.59 Q2813.18 1540.9 2809.8 1540.9 Q2806.42 1540.9 2804.47 1543.59 Q2802.55 1546.25 2802.55 1550.95 Z" fill="#000000" fill-rule="nonzero" fill-opacity="1" /><path clip-path="url(#clip610)" d="M2862.23 1541.9 L2862.23 1527.87 L2866.49 1527.87 L2866.49 1563.89 L2862.23 1563.89 L2862.23 1560 Q2860.89 1562.31 2858.83 1563.45 Q2856.79 1564.56 2853.92 1564.56 Q2849.22 1564.56 2846.26 1560.81 Q2843.32 1557.06 2843.32 1550.95 Q2843.32 1544.84 2846.26 1541.09 Q2849.22 1537.34 2853.92 1537.34 Q2856.79 1537.34 2858.83 1538.47 Q2860.89 1539.58 2862.23 1541.9 M2847.71 1550.95 Q2847.71 1555.65 2849.64 1558.33 Q2851.58 1560.99 2854.96 1560.99 Q2858.34 1560.99 2860.28 1558.33 Q2862.23 1555.65 2862.23 1550.95 Q2862.23 1546.25 2860.28 1543.59 Q2858.34 1540.9 2854.96 1540.9 Q2851.58 1540.9 2849.64 1543.59 Q2847.71 1546.25 2847.71 1550.95 Z" fill="#000000" fill-rule="nonzero" fill-opacity="1" /><path clip-path="url(#clip610)" d="M2875.26 1537.96 L2879.52 1537.96 L2879.52 1563.89 L2875.26 1563.89 L2875.26 1537.96 M2875.26 1527.87 L2879.52 1527.87 L2879.52 1533.26 L2875.26 1533.26 L2875.26 1527.87 Z" fill="#000000" fill-rule="nonzero" fill-opacity="1" /><path clip-path="url(#clip610)" d="M2901.56 1527.87 L2901.56 1531.41 L2897.48 1531.41 Q2895.19 1531.41 2894.29 1532.34 Q2893.41 1533.26 2893.41 1535.67 L2893.41 1537.96 L2900.42 1537.96 L2900.42 1541.27 L2893.41 1541.27 L2893.41 1563.89 L2889.13 1563.89 L2889.13 1541.27 L2885.05 1541.27 L2885.05 1537.96 L2889.13 1537.96 L2889.13 1536.16 Q2889.13 1531.83 2891.14 1529.86 Q2893.15 1527.87 2897.53 1527.87 L2901.56 1527.87 Z" fill="#000000" fill-rule="nonzero" fill-opacity="1" /><path clip-path="url(#clip610)" d="M2918.25 1527.87 L2918.25 1531.41 L2914.17 1531.41 Q2911.88 1531.41 2910.98 1532.34 Q2910.1 1533.26 2910.1 1535.67 L2910.1 1537.96 L2917.11 1537.96 L2917.11 1541.27 L2910.1 1541.27 L2910.1 1563.89 L2905.82 1563.89 L2905.82 1541.27 L2901.74 1541.27 L2901.74 1537.96 L2905.82 1537.96 L2905.82 1536.16 Q2905.82 1531.83 2907.83 1529.86 Q2909.84 1527.87 2914.22 1527.87 L2918.25 1527.87 Z" fill="#000000" fill-rule="nonzero" fill-opacity="1" /><polyline clip-path="url(#clip610)" style="stroke:#000000; stroke-linecap:round; stroke-linejoin:round; stroke-width:4; stroke-opacity:1; fill:none" points="364.733,1495.09 364.733,47.2441 "/>
<polyline clip-path="url(#clip610)" style="stroke:#000000; stroke-linecap:round; stroke-linejoin:round; stroke-width:4; stroke-opacity:1; fill:none" points="364.733,1386.36 383.63,1386.36 "/>
<polyline clip-path="url(#clip610)" style="stroke:#000000; stroke-linecap:round; stroke-linejoin:round; stroke-width:4; stroke-opacity:1; fill:none" points="364.733,1111.65 383.63,1111.65 "/>
<polyline clip-path="url(#clip610)" style="stroke:#000000; stroke-linecap:round; stroke-linejoin:round; stroke-width:4; stroke-opacity:1; fill:none" points="364.733,836.937 383.63,836.937 "/>
<polyline clip-path="url(#clip610)" style="stroke:#000000; stroke-linecap:round; stroke-linejoin:round; stroke-width:4; stroke-opacity:1; fill:none" points="364.733,562.224 383.63,562.224 "/>
<polyline clip-path="url(#clip610)" style="stroke:#000000; stroke-linecap:round; stroke-linejoin:round; stroke-width:4; stroke-opacity:1; fill:none" points="364.733,287.511 383.63,287.511 "/>
<path clip-path="url(#clip610)" d="M100.137 1375.53 L118.493 1375.53 L118.493 1379.47 L104.419 1379.47 L104.419 1387.94 Q105.437 1387.59 106.456 1387.43 Q107.474 1387.24 108.493 1387.24 Q114.28 1387.24 117.66 1390.41 Q121.039 1393.59 121.039 1399 Q121.039 1404.58 117.567 1407.68 Q114.095 1410.76 107.775 1410.76 Q105.599 1410.76 103.331 1410.39 Q101.086 1410.02 98.6782 1409.28 L98.6782 1404.58 Q100.762 1405.72 102.984 1406.27 Q105.206 1406.83 107.683 1406.83 Q111.687 1406.83 114.025 1404.72 Q116.363 1402.61 116.363 1399 Q116.363 1395.39 114.025 1393.28 Q111.687 1391.18 107.683 1391.18 Q105.808 1391.18 103.933 1391.6 Q102.081 1392.01 100.137 1392.89 L100.137 1375.53 Z" fill="#000000" fill-rule="nonzero" fill-opacity="1" /><path clip-path="url(#clip610)" d="M130.252 1404.21 L135.136 1404.21 L135.136 1410.09 L130.252 1410.09 L130.252 1404.21 Z" fill="#000000" fill-rule="nonzero" fill-opacity="1" /><path clip-path="url(#clip610)" d="M155.321 1378.61 Q151.71 1378.61 149.882 1382.17 Q148.076 1385.72 148.076 1392.85 Q148.076 1399.95 149.882 1403.52 Q151.71 1407.06 155.321 1407.06 Q158.956 1407.06 160.761 1403.52 Q162.59 1399.95 162.59 1392.85 Q162.59 1385.72 160.761 1382.17 Q158.956 1378.61 155.321 1378.61 M155.321 1374.91 Q161.132 1374.91 164.187 1379.51 Q167.266 1384.1 167.266 1392.85 Q167.266 1401.57 164.187 1406.18 Q161.132 1410.76 155.321 1410.76 Q149.511 1410.76 146.433 1406.18 Q143.377 1401.57 143.377 1392.85 Q143.377 1384.1 146.433 1379.51 Q149.511 1374.91 155.321 1374.91 Z" fill="#000000" fill-rule="nonzero" fill-opacity="1" /><path clip-path="url(#clip610)" d="M185.483 1378.61 Q181.872 1378.61 180.043 1382.17 Q178.238 1385.72 178.238 1392.85 Q178.238 1399.95 180.043 1403.52 Q181.872 1407.06 185.483 1407.06 Q189.118 1407.06 190.923 1403.52 Q192.752 1399.95 192.752 1392.85 Q192.752 1385.72 190.923 1382.17 Q189.118 1378.61 185.483 1378.61 M185.483 1374.91 Q191.293 1374.91 194.349 1379.51 Q197.428 1384.1 197.428 1392.85 Q197.428 1401.57 194.349 1406.18 Q191.293 1410.76 185.483 1410.76 Q179.673 1410.76 176.594 1406.18 Q173.539 1401.57 173.539 1392.85 Q173.539 1384.1 176.594 1379.51 Q179.673 1374.91 185.483 1374.91 Z" fill="#000000" fill-rule="nonzero" fill-opacity="1" /><path clip-path="url(#clip610)" d="M233.816 1384.63 L223.238 1395.25 L233.816 1405.83 L231.062 1408.63 L220.437 1398.01 L209.812 1408.63 L207.08 1405.83 L217.636 1395.25 L207.08 1384.63 L209.812 1381.83 L220.437 1392.45 L231.062 1381.83 L233.816 1384.63 Z" fill="#000000" fill-rule="nonzero" fill-opacity="1" /><path clip-path="url(#clip610)" d="M246.177 1406.16 L253.816 1406.16 L253.816 1379.79 L245.506 1381.46 L245.506 1377.2 L253.77 1375.53 L258.446 1375.53 L258.446 1406.16 L266.085 1406.16 L266.085 1410.09 L246.177 1410.09 L246.177 1406.16 Z" fill="#000000" fill-rule="nonzero" fill-opacity="1" /><path clip-path="url(#clip610)" d="M285.529 1378.61 Q281.918 1378.61 280.089 1382.17 Q278.284 1385.72 278.284 1392.85 Q278.284 1399.95 280.089 1403.52 Q281.918 1407.06 285.529 1407.06 Q289.163 1407.06 290.969 1403.52 Q292.798 1399.95 292.798 1392.85 Q292.798 1385.72 290.969 1382.17 Q289.163 1378.61 285.529 1378.61 M285.529 1374.91 Q291.339 1374.91 294.395 1379.51 Q297.473 1384.1 297.473 1392.85 Q297.473 1401.57 294.395 1406.18 Q291.339 1410.76 285.529 1410.76 Q279.719 1410.76 276.64 1406.18 Q273.585 1401.57 273.585 1392.85 Q273.585 1384.1 276.64 1379.51 Q279.719 1374.91 285.529 1374.91 Z" fill="#000000" fill-rule="nonzero" fill-opacity="1" /><path clip-path="url(#clip610)" d="M307.103 1369.35 Q304.395 1369.35 302.834 1370.79 Q301.291 1372.24 301.291 1374.78 Q301.291 1377.32 302.834 1378.77 Q304.395 1380.22 307.103 1380.22 Q309.811 1380.22 311.372 1378.77 Q312.933 1377.3 312.933 1374.78 Q312.933 1372.24 311.372 1370.79 Q309.83 1369.35 307.103 1369.35 M303.304 1367.73 Q300.859 1367.13 299.486 1365.45 Q298.132 1363.78 298.132 1361.37 Q298.132 1358 300.52 1356.05 Q302.928 1354.09 307.103 1354.09 Q311.297 1354.09 313.686 1356.05 Q316.074 1358 316.074 1361.37 Q316.074 1363.78 314.701 1365.45 Q313.347 1367.13 310.921 1367.73 Q313.667 1368.37 315.19 1370.23 Q316.733 1372.09 316.733 1374.78 Q316.733 1378.86 314.231 1381.04 Q311.749 1383.23 307.103 1383.23 Q302.457 1383.23 299.956 1381.04 Q297.473 1378.86 297.473 1374.78 Q297.473 1372.09 299.016 1370.23 Q300.558 1368.37 303.304 1367.73 M301.912 1361.73 Q301.912 1363.91 303.266 1365.13 Q304.639 1366.35 307.103 1366.35 Q309.548 1366.35 310.921 1365.13 Q312.313 1363.91 312.313 1361.73 Q312.313 1359.55 310.921 1358.32 Q309.548 1357.1 307.103 1357.1 Q304.639 1357.1 303.266 1358.32 Q301.912 1359.55 301.912 1361.73 Z" fill="#000000" fill-rule="nonzero" fill-opacity="1" /><path clip-path="url(#clip610)" d="M100.788 1131.44 L108.426 1131.44 L108.426 1105.08 L100.116 1106.74 L100.116 1102.48 L108.38 1100.82 L113.056 1100.82 L113.056 1131.44 L120.695 1131.44 L120.695 1135.38 L100.788 1135.38 L100.788 1131.44 Z" fill="#000000" fill-rule="nonzero" fill-opacity="1" /><path clip-path="url(#clip610)" d="M130.139 1129.5 L135.023 1129.5 L135.023 1135.38 L130.139 1135.38 L130.139 1129.5 Z" fill="#000000" fill-rule="nonzero" fill-opacity="1" /><path clip-path="url(#clip610)" d="M155.209 1103.9 Q151.597 1103.9 149.769 1107.46 Q147.963 1111 147.963 1118.13 Q147.963 1125.24 149.769 1128.8 Q151.597 1132.34 155.209 1132.34 Q158.843 1132.34 160.648 1128.8 Q162.477 1125.24 162.477 1118.13 Q162.477 1111 160.648 1107.46 Q158.843 1103.9 155.209 1103.9 M155.209 1100.19 Q161.019 1100.19 164.074 1104.8 Q167.153 1109.38 167.153 1118.13 Q167.153 1126.86 164.074 1131.47 Q161.019 1136.05 155.209 1136.05 Q149.398 1136.05 146.32 1131.47 Q143.264 1126.86 143.264 1118.13 Q143.264 1109.38 146.32 1104.8 Q149.398 1100.19 155.209 1100.19 Z" fill="#000000" fill-rule="nonzero" fill-opacity="1" /><path clip-path="url(#clip610)" d="M185.37 1103.9 Q181.759 1103.9 179.931 1107.46 Q178.125 1111 178.125 1118.13 Q178.125 1125.24 179.931 1128.8 Q181.759 1132.34 185.37 1132.34 Q189.005 1132.34 190.81 1128.8 Q192.639 1125.24 192.639 1118.13 Q192.639 1111 190.81 1107.46 Q189.005 1103.9 185.37 1103.9 M185.37 1100.19 Q191.181 1100.19 194.236 1104.8 Q197.315 1109.38 197.315 1118.13 Q197.315 1126.86 194.236 1131.47 Q191.181 1136.05 185.37 1136.05 Q179.56 1136.05 176.482 1131.47 Q173.426 1126.86 173.426 1118.13 Q173.426 1109.38 176.482 1104.8 Q179.56 1100.19 185.37 1100.19 Z" fill="#000000" fill-rule="nonzero" fill-opacity="1" /><path clip-path="url(#clip610)" d="M233.704 1109.91 L223.125 1120.54 L233.704 1131.12 L230.949 1133.92 L220.324 1123.29 L209.699 1133.92 L206.968 1131.12 L217.523 1120.54 L206.968 1109.91 L209.699 1107.11 L220.324 1117.74 L230.949 1107.11 L233.704 1109.91 Z" fill="#000000" fill-rule="nonzero" fill-opacity="1" /><path clip-path="url(#clip610)" d="M246.065 1131.44 L253.703 1131.44 L253.703 1105.08 L245.393 1106.74 L245.393 1102.48 L253.657 1100.82 L258.333 1100.82 L258.333 1131.44 L265.972 1131.44 L265.972 1135.38 L246.065 1135.38 L246.065 1131.44 Z" fill="#000000" fill-rule="nonzero" fill-opacity="1" /><path clip-path="url(#clip610)" d="M285.416 1103.9 Q281.805 1103.9 279.976 1107.46 Q278.171 1111 278.171 1118.13 Q278.171 1125.24 279.976 1128.8 Q281.805 1132.34 285.416 1132.34 Q289.05 1132.34 290.856 1128.8 Q292.685 1125.24 292.685 1118.13 Q292.685 1111 290.856 1107.46 Q289.05 1103.9 285.416 1103.9 M285.416 1100.19 Q291.226 1100.19 294.282 1104.8 Q297.361 1109.38 297.361 1118.13 Q297.361 1126.86 294.282 1131.47 Q291.226 1136.05 285.416 1136.05 Q279.606 1136.05 276.527 1131.47 Q273.472 1126.86 273.472 1118.13 Q273.472 1109.38 276.527 1104.8 Q279.606 1100.19 285.416 1100.19 Z" fill="#000000" fill-rule="nonzero" fill-opacity="1" /><path clip-path="url(#clip610)" d="M299.166 1107.38 L299.166 1103.92 Q300.596 1104.6 302.063 1104.96 Q303.53 1105.32 304.94 1105.32 Q308.702 1105.32 310.676 1102.79 Q312.67 1100.26 312.952 1095.1 Q311.861 1096.72 310.187 1097.59 Q308.514 1098.45 306.482 1098.45 Q302.269 1098.45 299.806 1095.91 Q297.361 1093.35 297.361 1088.93 Q297.361 1084.61 299.918 1081.99 Q302.476 1079.38 306.727 1079.38 Q311.598 1079.38 314.156 1083.12 Q316.733 1086.85 316.733 1093.96 Q316.733 1100.59 313.573 1104.56 Q310.432 1108.51 305.109 1108.51 Q303.68 1108.51 302.213 1108.23 Q300.746 1107.95 299.166 1107.38 M306.727 1095.48 Q309.285 1095.48 310.771 1093.73 Q312.275 1091.98 312.275 1088.93 Q312.275 1085.91 310.771 1084.16 Q309.285 1082.39 306.727 1082.39 Q304.169 1082.39 302.664 1084.16 Q301.179 1085.91 301.179 1088.93 Q301.179 1091.98 302.664 1093.73 Q304.169 1095.48 306.727 1095.48 Z" fill="#000000" fill-rule="nonzero" fill-opacity="1" /><path clip-path="url(#clip610)" d="M100.788 856.729 L108.426 856.729 L108.426 830.364 L100.116 832.03 L100.116 827.771 L108.38 826.104 L113.056 826.104 L113.056 856.729 L120.695 856.729 L120.695 860.664 L100.788 860.664 L100.788 856.729 Z" fill="#000000" fill-rule="nonzero" fill-opacity="1" /><path clip-path="url(#clip610)" d="M130.139 854.785 L135.023 854.785 L135.023 860.664 L130.139 860.664 L130.139 854.785 Z" fill="#000000" fill-rule="nonzero" fill-opacity="1" /><path clip-path="url(#clip610)" d="M145.255 826.104 L163.611 826.104 L163.611 830.04 L149.537 830.04 L149.537 838.512 Q150.556 838.165 151.574 838.003 Q152.593 837.817 153.611 837.817 Q159.398 837.817 162.778 840.989 Q166.158 844.16 166.158 849.577 Q166.158 855.155 162.685 858.257 Q159.213 861.336 152.894 861.336 Q150.718 861.336 148.449 860.965 Q146.204 860.595 143.797 859.854 L143.797 855.155 Q145.88 856.289 148.102 856.845 Q150.324 857.401 152.801 857.401 Q156.806 857.401 159.144 855.294 Q161.482 853.188 161.482 849.577 Q161.482 845.965 159.144 843.859 Q156.806 841.752 152.801 841.752 Q150.926 841.752 149.051 842.169 Q147.199 842.586 145.255 843.465 L145.255 826.104 Z" fill="#000000" fill-rule="nonzero" fill-opacity="1" /><path clip-path="url(#clip610)" d="M185.37 829.183 Q181.759 829.183 179.931 832.748 Q178.125 836.29 178.125 843.419 Q178.125 850.526 179.931 854.09 Q181.759 857.632 185.37 857.632 Q189.005 857.632 190.81 854.09 Q192.639 850.526 192.639 843.419 Q192.639 836.29 190.81 832.748 Q189.005 829.183 185.37 829.183 M185.37 825.479 Q191.181 825.479 194.236 830.086 Q197.315 834.669 197.315 843.419 Q197.315 852.146 194.236 856.752 Q191.181 861.336 185.37 861.336 Q179.56 861.336 176.482 856.752 Q173.426 852.146 173.426 843.419 Q173.426 834.669 176.482 830.086 Q179.56 825.479 185.37 825.479 Z" fill="#000000" fill-rule="nonzero" fill-opacity="1" /><path clip-path="url(#clip610)" d="M233.704 835.202 L223.125 845.827 L233.704 856.405 L230.949 859.206 L220.324 848.581 L209.699 859.206 L206.968 856.405 L217.523 845.827 L206.968 835.202 L209.699 832.401 L220.324 843.026 L230.949 832.401 L233.704 835.202 Z" fill="#000000" fill-rule="nonzero" fill-opacity="1" /><path clip-path="url(#clip610)" d="M246.065 856.729 L253.703 856.729 L253.703 830.364 L245.393 832.03 L245.393 827.771 L253.657 826.104 L258.333 826.104 L258.333 856.729 L265.972 856.729 L265.972 860.664 L246.065 860.664 L246.065 856.729 Z" fill="#000000" fill-rule="nonzero" fill-opacity="1" /><path clip-path="url(#clip610)" d="M285.416 829.183 Q281.805 829.183 279.976 832.748 Q278.171 836.29 278.171 843.419 Q278.171 850.526 279.976 854.09 Q281.805 857.632 285.416 857.632 Q289.05 857.632 290.856 854.09 Q292.685 850.526 292.685 843.419 Q292.685 836.29 290.856 832.748 Q289.05 829.183 285.416 829.183 M285.416 825.479 Q291.226 825.479 294.282 830.086 Q297.361 834.669 297.361 843.419 Q297.361 852.146 294.282 856.752 Q291.226 861.336 285.416 861.336 Q279.606 861.336 276.527 856.752 Q273.472 852.146 273.472 843.419 Q273.472 834.669 276.527 830.086 Q279.606 825.479 285.416 825.479 Z" fill="#000000" fill-rule="nonzero" fill-opacity="1" /><path clip-path="url(#clip610)" d="M299.166 832.671 L299.166 829.21 Q300.596 829.887 302.063 830.245 Q303.53 830.602 304.94 830.602 Q308.702 830.602 310.676 828.082 Q312.67 825.543 312.952 820.39 Q311.861 822.007 310.187 822.872 Q308.514 823.737 306.482 823.737 Q302.269 823.737 299.806 821.198 Q297.361 818.64 297.361 814.221 Q297.361 809.895 299.918 807.28 Q302.476 804.666 306.727 804.666 Q311.598 804.666 314.156 808.409 Q316.733 812.133 316.733 819.242 Q316.733 825.881 313.573 829.85 Q310.432 833.799 305.109 833.799 Q303.68 833.799 302.213 833.517 Q300.746 833.235 299.166 832.671 M306.727 820.766 Q309.285 820.766 310.771 819.017 Q312.275 817.267 312.275 814.221 Q312.275 811.193 310.771 809.443 Q309.285 807.675 306.727 807.675 Q304.169 807.675 302.664 809.443 Q301.179 811.193 301.179 814.221 Q301.179 817.267 302.664 819.017 Q304.169 820.766 306.727 820.766 Z" fill="#000000" fill-rule="nonzero" fill-opacity="1" /><path clip-path="url(#clip610)" d="M104.005 582.016 L120.324 582.016 L120.324 585.951 L98.3802 585.951 L98.3802 582.016 Q101.042 579.262 105.625 574.632 Q110.232 569.979 111.412 568.637 Q113.658 566.114 114.537 564.378 Q115.44 562.618 115.44 560.928 Q115.44 558.174 113.496 556.438 Q111.575 554.702 108.473 554.702 Q106.274 554.702 103.82 555.466 Q101.389 556.229 98.6116 557.78 L98.6116 553.058 Q101.436 551.924 103.889 551.345 Q106.343 550.766 108.38 550.766 Q113.75 550.766 116.945 553.452 Q120.139 556.137 120.139 560.628 Q120.139 562.757 119.329 564.678 Q118.542 566.577 116.436 569.169 Q115.857 569.84 112.755 573.058 Q109.653 576.252 104.005 582.016 Z" fill="#000000" fill-rule="nonzero" fill-opacity="1" /><path clip-path="url(#clip610)" d="M130.139 580.072 L135.023 580.072 L135.023 585.951 L130.139 585.951 L130.139 580.072 Z" fill="#000000" fill-rule="nonzero" fill-opacity="1" /><path clip-path="url(#clip610)" d="M155.209 554.47 Q151.597 554.47 149.769 558.035 Q147.963 561.577 147.963 568.706 Q147.963 575.813 149.769 579.377 Q151.597 582.919 155.209 582.919 Q158.843 582.919 160.648 579.377 Q162.477 575.813 162.477 568.706 Q162.477 561.577 160.648 558.035 Q158.843 554.47 155.209 554.47 M155.209 550.766 Q161.019 550.766 164.074 555.373 Q167.153 559.956 167.153 568.706 Q167.153 577.433 164.074 582.039 Q161.019 586.623 155.209 586.623 Q149.398 586.623 146.32 582.039 Q143.264 577.433 143.264 568.706 Q143.264 559.956 146.32 555.373 Q149.398 550.766 155.209 550.766 Z" fill="#000000" fill-rule="nonzero" fill-opacity="1" /><path clip-path="url(#clip610)" d="M185.37 554.47 Q181.759 554.47 179.931 558.035 Q178.125 561.577 178.125 568.706 Q178.125 575.813 179.931 579.377 Q181.759 582.919 185.37 582.919 Q189.005 582.919 190.81 579.377 Q192.639 575.813 192.639 568.706 Q192.639 561.577 190.81 558.035 Q189.005 554.47 185.37 554.47 M185.37 550.766 Q191.181 550.766 194.236 555.373 Q197.315 559.956 197.315 568.706 Q197.315 577.433 194.236 582.039 Q191.181 586.623 185.37 586.623 Q179.56 586.623 176.482 582.039 Q173.426 577.433 173.426 568.706 Q173.426 559.956 176.482 555.373 Q179.56 550.766 185.37 550.766 Z" fill="#000000" fill-rule="nonzero" fill-opacity="1" /><path clip-path="url(#clip610)" d="M233.704 560.489 L223.125 571.114 L233.704 581.692 L230.949 584.493 L220.324 573.868 L209.699 584.493 L206.968 581.692 L217.523 571.114 L206.968 560.489 L209.699 557.688 L220.324 568.313 L230.949 557.688 L233.704 560.489 Z" fill="#000000" fill-rule="nonzero" fill-opacity="1" /><path clip-path="url(#clip610)" d="M246.065 582.016 L253.703 582.016 L253.703 555.651 L245.393 557.317 L245.393 553.058 L253.657 551.391 L258.333 551.391 L258.333 582.016 L265.972 582.016 L265.972 585.951 L246.065 585.951 L246.065 582.016 Z" fill="#000000" fill-rule="nonzero" fill-opacity="1" /><path clip-path="url(#clip610)" d="M285.416 554.47 Q281.805 554.47 279.976 558.035 Q278.171 561.577 278.171 568.706 Q278.171 575.813 279.976 579.377 Q281.805 582.919 285.416 582.919 Q289.05 582.919 290.856 579.377 Q292.685 575.813 292.685 568.706 Q292.685 561.577 290.856 558.035 Q289.05 554.47 285.416 554.47 M285.416 550.766 Q291.226 550.766 294.282 555.373 Q297.361 559.956 297.361 568.706 Q297.361 577.433 294.282 582.039 Q291.226 586.623 285.416 586.623 Q279.606 586.623 276.527 582.039 Q273.472 577.433 273.472 568.706 Q273.472 559.956 276.527 555.373 Q279.606 550.766 285.416 550.766 Z" fill="#000000" fill-rule="nonzero" fill-opacity="1" /><path clip-path="url(#clip610)" d="M299.166 557.958 L299.166 554.497 Q300.596 555.174 302.063 555.532 Q303.53 555.889 304.94 555.889 Q308.702 555.889 310.676 553.369 Q312.67 550.83 312.952 545.677 Q311.861 547.294 310.187 548.159 Q308.514 549.024 306.482 549.024 Q302.269 549.024 299.806 546.485 Q297.361 543.927 297.361 539.508 Q297.361 535.182 299.918 532.568 Q302.476 529.953 306.727 529.953 Q311.598 529.953 314.156 533.696 Q316.733 537.42 316.733 544.529 Q316.733 551.168 313.573 555.137 Q310.432 559.086 305.109 559.086 Q303.68 559.086 302.213 558.804 Q300.746 558.522 299.166 557.958 M306.727 546.053 Q309.285 546.053 310.771 544.304 Q312.275 542.554 312.275 539.508 Q312.275 536.48 310.771 534.73 Q309.285 532.962 306.727 532.962 Q304.169 532.962 302.664 534.73 Q301.179 536.48 301.179 539.508 Q301.179 542.554 302.664 544.304 Q304.169 546.053 306.727 546.053 Z" fill="#000000" fill-rule="nonzero" fill-opacity="1" /><path clip-path="url(#clip610)" d="M104.005 307.303 L120.324 307.303 L120.324 311.238 L98.3802 311.238 L98.3802 307.303 Q101.042 304.549 105.625 299.919 Q110.232 295.266 111.412 293.924 Q113.658 291.401 114.537 289.665 Q115.44 287.905 115.44 286.215 Q115.44 283.461 113.496 281.725 Q111.575 279.989 108.473 279.989 Q106.274 279.989 103.82 280.753 Q101.389 281.516 98.6116 283.067 L98.6116 278.345 Q101.436 277.211 103.889 276.632 Q106.343 276.053 108.38 276.053 Q113.75 276.053 116.945 278.739 Q120.139 281.424 120.139 285.915 Q120.139 288.044 119.329 289.965 Q118.542 291.864 116.436 294.456 Q115.857 295.127 112.755 298.345 Q109.653 301.539 104.005 307.303 Z" fill="#000000" fill-rule="nonzero" fill-opacity="1" /><path clip-path="url(#clip610)" d="M130.139 305.359 L135.023 305.359 L135.023 311.238 L130.139 311.238 L130.139 305.359 Z" fill="#000000" fill-rule="nonzero" fill-opacity="1" /><path clip-path="url(#clip610)" d="M145.255 276.678 L163.611 276.678 L163.611 280.614 L149.537 280.614 L149.537 289.086 Q150.556 288.739 151.574 288.577 Q152.593 288.391 153.611 288.391 Q159.398 288.391 162.778 291.563 Q166.158 294.734 166.158 300.151 Q166.158 305.729 162.685 308.831 Q159.213 311.91 152.894 311.91 Q150.718 311.91 148.449 311.539 Q146.204 311.169 143.797 310.428 L143.797 305.729 Q145.88 306.864 148.102 307.419 Q150.324 307.975 152.801 307.975 Q156.806 307.975 159.144 305.868 Q161.482 303.762 161.482 300.151 Q161.482 296.54 159.144 294.433 Q156.806 292.327 152.801 292.327 Q150.926 292.327 149.051 292.743 Q147.199 293.16 145.255 294.04 L145.255 276.678 Z" fill="#000000" fill-rule="nonzero" fill-opacity="1" /><path clip-path="url(#clip610)" d="M185.37 279.757 Q181.759 279.757 179.931 283.322 Q178.125 286.864 178.125 293.993 Q178.125 301.1 179.931 304.664 Q181.759 308.206 185.37 308.206 Q189.005 308.206 190.81 304.664 Q192.639 301.1 192.639 293.993 Q192.639 286.864 190.81 283.322 Q189.005 279.757 185.37 279.757 M185.37 276.053 Q191.181 276.053 194.236 280.66 Q197.315 285.243 197.315 293.993 Q197.315 302.72 194.236 307.326 Q191.181 311.91 185.37 311.91 Q179.56 311.91 176.482 307.326 Q173.426 302.72 173.426 293.993 Q173.426 285.243 176.482 280.66 Q179.56 276.053 185.37 276.053 Z" fill="#000000" fill-rule="nonzero" fill-opacity="1" /><path clip-path="url(#clip610)" d="M233.704 285.776 L223.125 296.401 L233.704 306.979 L230.949 309.78 L220.324 299.155 L209.699 309.78 L206.968 306.979 L217.523 296.401 L206.968 285.776 L209.699 282.975 L220.324 293.6 L230.949 282.975 L233.704 285.776 Z" fill="#000000" fill-rule="nonzero" fill-opacity="1" /><path clip-path="url(#clip610)" d="M246.065 307.303 L253.703 307.303 L253.703 280.938 L245.393 282.604 L245.393 278.345 L253.657 276.678 L258.333 276.678 L258.333 307.303 L265.972 307.303 L265.972 311.238 L246.065 311.238 L246.065 307.303 Z" fill="#000000" fill-rule="nonzero" fill-opacity="1" /><path clip-path="url(#clip610)" d="M285.416 279.757 Q281.805 279.757 279.976 283.322 Q278.171 286.864 278.171 293.993 Q278.171 301.1 279.976 304.664 Q281.805 308.206 285.416 308.206 Q289.05 308.206 290.856 304.664 Q292.685 301.1 292.685 293.993 Q292.685 286.864 290.856 283.322 Q289.05 279.757 285.416 279.757 M285.416 276.053 Q291.226 276.053 294.282 280.66 Q297.361 285.243 297.361 293.993 Q297.361 302.72 294.282 307.326 Q291.226 311.91 285.416 311.91 Q279.606 311.91 276.527 307.326 Q273.472 302.72 273.472 293.993 Q273.472 285.243 276.527 280.66 Q279.606 276.053 285.416 276.053 Z" fill="#000000" fill-rule="nonzero" fill-opacity="1" /><path clip-path="url(#clip610)" d="M299.166 283.245 L299.166 279.784 Q300.596 280.462 302.063 280.819 Q303.53 281.176 304.94 281.176 Q308.702 281.176 310.676 278.656 Q312.67 276.117 312.952 270.964 Q311.861 272.581 310.187 273.446 Q308.514 274.311 306.482 274.311 Q302.269 274.311 299.806 271.772 Q297.361 269.214 297.361 264.795 Q297.361 260.469 299.918 257.855 Q302.476 255.24 306.727 255.24 Q311.598 255.24 314.156 258.983 Q316.733 262.707 316.733 269.816 Q316.733 276.455 313.573 280.424 Q310.432 284.374 305.109 284.374 Q303.68 284.374 302.213 284.091 Q300.746 283.809 299.166 283.245 M306.727 271.34 Q309.285 271.34 310.771 269.591 Q312.275 267.841 312.275 264.795 Q312.275 261.767 310.771 260.017 Q309.285 258.25 306.727 258.25 Q304.169 258.25 302.664 260.017 Q301.179 261.767 301.179 264.795 Q301.179 267.841 302.664 269.591 Q304.169 271.34 306.727 271.34 Z" fill="#000000" fill-rule="nonzero" fill-opacity="1" /><path clip-path="url(#clip610)" d="M-9.64527 840.632 L0.4762 840.632 L0.4762 828.569 L5.02768 828.569 L5.02768 840.632 L24.3794 840.632 Q28.7399 840.632 29.9813 839.454 Q31.2226 838.245 31.2226 834.584 L31.2226 828.569 L36.1242 828.569 L36.1242 834.584 Q36.1242 841.364 33.6097 843.942 Q31.0634 846.52 24.3794 846.52 L5.02768 846.52 L5.02768 850.817 L0.4762 850.817 L0.4762 846.52 L-9.64527 846.52 L-9.64527 840.632 Z" fill="#000000" fill-rule="nonzero" fill-opacity="1" /><path clip-path="url(#clip610)" d="M-11.3958 789.738 L-11.3958 784.327 L42.1716 800.878 L42.1716 806.289 L-11.3958 789.738 Z" fill="#000000" fill-rule="nonzero" fill-opacity="1" /><path clip-path="url(#clip610)" d="M14.6081 727.831 L36.1242 727.831 L36.1242 733.688 L14.799 733.688 Q9.7383 733.688 7.22385 735.661 Q4.7094 737.635 4.7094 741.581 Q4.7094 746.324 7.73311 749.061 Q10.7568 751.798 15.9767 751.798 L36.1242 751.798 L36.1242 757.687 L0.4762 757.687 L0.4762 751.798 L6.01437 751.798 Q2.79968 749.698 1.20826 746.865 Q-0.38317 744 -0.38317 740.276 Q-0.38317 734.133 3.43625 730.982 Q7.22385 727.831 14.6081 727.831 Z" fill="#000000" fill-rule="nonzero" fill-opacity="1" /><path clip-path="url(#clip610)" d="M1.52654 693.425 L7.06471 693.425 Q5.79157 695.907 5.15499 698.581 Q4.51842 701.255 4.51842 704.119 Q4.51842 708.48 5.85522 710.676 Q7.19202 712.84 9.86562 712.84 Q11.9026 712.84 13.0803 711.281 Q14.2261 709.721 15.2765 705.01 L15.7221 703.005 Q17.0589 696.767 19.5097 694.157 Q21.9286 691.515 26.2891 691.515 Q31.2544 691.515 34.1508 695.462 Q37.0472 699.377 37.0472 706.252 Q37.0472 709.116 36.4743 712.235 Q35.9332 715.323 34.8192 718.76 L28.7718 718.76 Q30.4587 715.514 31.318 712.363 Q32.1456 709.212 32.1456 706.124 Q32.1456 701.987 30.7451 699.759 Q29.3129 697.531 26.7347 697.531 Q24.3476 697.531 23.0745 699.154 Q21.8013 700.745 20.6237 706.188 L20.1462 708.225 Q19.0004 713.668 16.6451 716.087 Q14.258 718.506 10.1202 718.506 Q5.09134 718.506 2.35408 714.941 Q-0.38317 711.376 -0.38317 704.819 Q-0.38317 701.573 0.0942579 698.708 Q0.571686 695.844 1.52654 693.425 Z" fill="#000000" fill-rule="nonzero" fill-opacity="1" /><path clip-path="url(#clip611)" d="M1014.89 1454.11 L1018.8 1452.52 L1022.04 1450.93 L1024.59 1449.34 L1026.45 1447.76 L1027.63 1446.17 L1028.13 1444.58 L1027.98 1442.99 L1027.21 1441.4 L1025.85 1439.81 L1023.93 1438.22 L1021.49 1436.63 L1018.6 1435.04 L1015.29 1433.45 L1011.61 1431.87 L1007.64 1430.28 L1003.41 1428.69 L998.999 1427.1 L994.449 1425.51 L989.82 1423.92 L985.162 1422.33 L980.528 1420.74 L975.964 1419.15 L971.511 1417.57 L967.208 1415.98 L963.088 1414.39 L959.179 1412.8 L955.504 1411.21 L952.079 1409.62 L948.916 1408.03 L946.022 1406.44 L943.396 1404.85 L941.036 1403.26 L938.931 1401.68 L937.07 1400.09 L935.434 1398.5 L934.002 1396.91 L932.751 1395.32 L931.655 1393.73 L930.685 1392.14 L929.811 1390.55 L929.002 1388.96 L928.228 1387.38 L927.456 1385.79 L926.655 1384.2 L925.796 1382.61 L924.849 1381.02 L923.788 1379.43 L922.587 1377.84 L921.223 1376.25 L919.676 1374.66 L917.927 1373.07 L915.962 1371.49 L913.768 1369.9 L911.336 1368.31 L908.66 1366.72 L905.737 1365.13 L902.567 1363.54 L899.153 1361.95 L895.5 1360.36 L576.269 1360.36 L572.617 1361.95 L569.202 1363.54 L566.032 1365.13 L563.109 1366.72 L560.433 1368.31 L558.001 1369.9 L555.807 1371.49 L553.842 1373.07 L552.093 1374.66 L550.546 1376.25 L549.182 1377.84 L547.981 1379.43 L546.92 1381.02 L545.973 1382.61 L545.114 1384.2 L544.313 1385.79 L543.541 1387.38 L542.767 1388.96 L541.958 1390.55 L541.084 1392.14 L540.114 1393.73 L539.018 1395.32 L537.767 1396.91 L536.335 1398.5 L534.699 1400.09 L532.838 1401.68 L530.733 1403.26 L528.373 1404.85 L525.747 1406.44 L522.853 1408.03 L519.69 1409.62 L516.265 1411.21 L512.59 1412.8 L508.681 1414.39 L504.561 1415.98 L500.258 1417.57 L495.806 1419.15 L491.241 1420.74 L486.607 1422.33 L481.95 1423.92 L477.32 1425.51 L472.77 1427.1 L468.354 1428.69 L464.131 1430.28 L460.155 1431.87 L456.484 1433.45 L453.173 1435.04 L450.276 1436.63 L447.844 1438.22 L445.924 1439.81 L444.558 1441.4 L443.786 1442.99 L443.639 1444.58 L444.143 1446.17 L445.319 1447.76 L447.178 1449.34 L449.728 1450.93 L452.966 1452.52 L456.883 1454.11 L1014.89 1454.11  Z" fill="#009af9" fill-rule="evenodd" fill-opacity="1"/>
<polyline clip-path="url(#clip611)" style="stroke:#000000; stroke-linecap:round; stroke-linejoin:round; stroke-width:4; stroke-opacity:1; fill:none" points="1014.89,1454.11 1018.8,1452.52 1022.04,1450.93 1024.59,1449.34 1026.45,1447.76 1027.63,1446.17 1028.13,1444.58 1027.98,1442.99 1027.21,1441.4 1025.85,1439.81 1023.93,1438.22 1021.49,1436.63 1018.6,1435.04 1015.29,1433.45 1011.61,1431.87 1007.64,1430.28 1003.41,1428.69 998.999,1427.1 994.449,1425.51 989.82,1423.92 985.162,1422.33 980.528,1420.74 975.964,1419.15 971.511,1417.57 967.208,1415.98 963.088,1414.39 959.179,1412.8 955.504,1411.21 952.079,1409.62 948.916,1408.03 946.022,1406.44 943.396,1404.85 941.036,1403.26 938.931,1401.68 937.07,1400.09 935.434,1398.5 934.002,1396.91 932.751,1395.32 931.655,1393.73 930.685,1392.14 929.811,1390.55 929.002,1388.96 928.228,1387.38 927.456,1385.79 926.655,1384.2 925.796,1382.61 924.849,1381.02 923.788,1379.43 922.587,1377.84 921.223,1376.25 919.676,1374.66 917.927,1373.07 915.962,1371.49 913.768,1369.9 911.336,1368.31 908.66,1366.72 905.737,1365.13 902.567,1363.54 899.153,1361.95 895.5,1360.36 576.269,1360.36 572.617,1361.95 569.202,1363.54 566.032,1365.13 563.109,1366.72 560.433,1368.31 558.001,1369.9 555.807,1371.49 553.842,1373.07 552.093,1374.66 550.546,1376.25 549.182,1377.84 547.981,1379.43 546.92,1381.02 545.973,1382.61 545.114,1384.2 544.313,1385.79 543.541,1387.38 542.767,1388.96 541.958,1390.55 541.084,1392.14 540.114,1393.73 539.018,1395.32 537.767,1396.91 536.335,1398.5 534.699,1400.09 532.838,1401.68 530.733,1403.26 528.373,1404.85 525.747,1406.44 522.853,1408.03 519.69,1409.62 516.265,1411.21 512.59,1412.8 508.681,1414.39 504.561,1415.98 500.258,1417.57 495.806,1419.15 491.241,1420.74 486.607,1422.33 481.95,1423.92 477.32,1425.51 472.77,1427.1 468.354,1428.69 464.131,1430.28 460.155,1431.87 456.484,1433.45 453.173,1435.04 450.276,1436.63 447.844,1438.22 445.924,1439.81 444.558,1441.4 443.786,1442.99 443.639,1444.58 444.143,1446.17 445.319,1447.76 447.178,1449.34 449.728,1450.93 452.966,1452.52 456.883,1454.11 1014.89,1454.11 "/>
<path clip-path="url(#clip611)" d="M1892.65 393.344 L1891.53 392.822 L1888.48 392.3 L1883.65 391.778 L1877.25 391.256 L1869.52 390.734 L1860.79 390.212 L1851.38 389.689 L1841.62 389.167 L1831.81 388.645 L1822.25 388.123 L1813.17 387.601 L1804.76 387.079 L1797.18 386.557 L1790.51 386.035 L1784.82 385.512 L1780.12 384.99 L1776.42 384.468 L1773.71 383.946 L1771.96 383.424 L1771.18 382.902 L1771.34 382.38 L1772.47 381.858 L1774.58 381.336 L1777.71 380.813 L1781.9 380.291 L1787.19 379.769 L1793.61 379.247 L1801.19 378.725 L1809.91 378.203 L1819.76 377.681 L1830.65 377.159 L1842.51 376.636 L1855.19 376.114 L1868.53 375.592 L1882.37 375.07 L1896.51 374.548 L1910.75 374.026 L1924.93 373.504 L1938.89 372.982 L1952.47 372.459 L1965.57 371.937 L1978.1 371.415 L1989.98 370.893 L2001.15 370.371 L2011.51 369.849 L2020.99 369.327 L2029.47 368.805 L2036.81 368.283 L2042.83 367.76 L2047.34 367.238 L2050.12 366.716 L2050.99 366.194 L2049.75 365.672 L2046.26 365.15 L2040.44 364.628 L2032.28 364.106 L2021.85 363.583 L2009.3 363.061 L1994.87 362.539 L1978.87 362.017 L1961.67 361.495 L1943.66 360.973 L1925.28 360.451 L1906.92 359.929 L1888.97 359.406 L1871.78 358.884 L1855.61 358.362 L1840.7 357.84 L1827.19 357.318 L1815.16 356.796 L1804.64 356.274 L1795.58 355.752 L1787.92 355.229 L1781.54 354.707 L1776.31 354.185 L1772.1 353.663 L1768.76 353.141 L1766.15 352.619 L1764.15 352.097 L1762.63 351.575 L1761.5 351.053 L1760.67 350.53 L1760.07 350.008 L1759.65 349.486 L1759.35 348.964 L1759.14 348.442 L1759 347.92 L1758.91 347.398 L1758.85 346.876 L1758.81 346.353 L1758.79 345.831 L1758.77 345.309 L1758.76 344.787 L1758.75 344.265 L1758.75 343.743 L1758.75 343.221 L1758.75 342.699 L1758.76 342.176 L1758.77 341.654 L1758.79 341.132 L1758.81 340.61 L1758.85 340.088 L1758.91 339.566 L1759.01 339.044 L1759.15 338.522 L1759.35 338 L1759.64 337.477 L1760.04 336.955 L1760.61 336.433 L1761.39 335.911 L1762.43 335.389 L1763.81 334.867 L1765.61 334.345 L1767.91 333.823 L1770.8 333.3 L1774.36 332.778 L1778.68 332.256 L1783.83 331.734 L1789.84 331.212 L1796.73 330.69 L1804.47 330.168 L1812.98 329.646 L1822.13 329.123 L1831.73 328.601 L1841.57 328.079 L1851.35 327.557 L1860.78 327.035 L1869.51 326.513 L1877.24 325.991 L1883.65 325.469 L1888.48 324.946 L1891.52 324.424 L1892.65 323.902 L1624.84 323.902 L1625.96 324.424 L1629.01 324.946 L1633.84 325.469 L1640.25 325.991 L1647.97 326.513 L1656.71 327.035 L1666.14 327.557 L1675.92 328.079 L1685.75 328.601 L1695.36 329.123 L1704.51 329.646 L1713.02 330.168 L1720.76 330.69 L1727.65 331.212 L1733.66 331.734 L1738.81 332.256 L1743.13 332.778 L1746.69 333.3 L1749.58 333.823 L1751.88 334.345 L1753.67 334.867 L1755.06 335.389 L1756.1 335.911 L1756.88 336.433 L1757.44 336.955 L1757.85 337.477 L1758.14 338 L1758.34 338.522 L1758.48 339.044 L1758.57 339.566 L1758.64 340.088 L1758.68 340.61 L1758.7 341.132 L1758.72 341.654 L1758.73 342.176 L1758.73 342.699 L1758.74 343.221 L1758.74 343.743 L1758.73 344.265 L1758.73 344.787 L1758.72 345.309 L1758.7 345.831 L1758.68 346.353 L1758.64 346.876 L1758.58 347.398 L1758.48 347.92 L1758.34 348.442 L1758.14 348.964 L1757.84 349.486 L1757.42 350.008 L1756.82 350.53 L1755.99 351.053 L1754.86 351.575 L1753.34 352.097 L1751.34 352.619 L1748.73 353.141 L1745.39 353.663 L1741.18 354.185 L1735.95 354.707 L1729.57 355.229 L1721.91 355.752 L1712.85 356.274 L1702.32 356.796 L1690.3 357.318 L1676.79 357.84 L1661.88 358.362 L1645.71 358.884 L1628.52 359.406 L1610.57 359.929 L1592.21 360.451 L1573.83 360.973 L1555.82 361.495 L1538.62 362.017 L1522.62 362.539 L1508.19 363.061 L1495.64 363.583 L1485.21 364.106 L1477.05 364.628 L1471.23 365.15 L1467.74 365.672 L1466.5 366.194 L1467.36 366.716 L1470.15 367.238 L1474.66 367.76 L1480.68 368.283 L1488.02 368.805 L1496.5 369.327 L1505.98 369.849 L1516.34 370.371 L1527.5 370.893 L1539.39 371.415 L1551.92 371.937 L1565.02 372.459 L1578.6 372.982 L1592.55 373.504 L1606.73 374.026 L1620.98 374.548 L1635.12 375.07 L1648.95 375.592 L1662.3 376.114 L1674.98 376.636 L1686.83 377.159 L1697.73 377.681 L1707.58 378.203 L1716.3 378.725 L1723.88 379.247 L1730.3 379.769 L1735.59 380.291 L1739.78 380.813 L1742.91 381.336 L1745.02 381.858 L1746.15 382.38 L1746.31 382.902 L1745.52 383.424 L1743.78 383.946 L1741.06 384.468 L1737.37 384.99 L1732.67 385.512 L1726.97 386.035 L1720.31 386.557 L1712.72 387.079 L1704.32 387.601 L1695.24 388.123 L1685.68 388.645 L1675.87 389.167 L1666.11 389.689 L1656.69 390.212 L1647.96 390.734 L1640.24 391.256 L1633.83 391.778 L1629.01 392.3 L1625.96 392.822 L1624.84 393.344 L1892.65 393.344  Z" fill="#e26f46" fill-rule="evenodd" fill-opacity="1"/>
<polyline clip-path="url(#clip611)" style="stroke:#000000; stroke-linecap:round; stroke-linejoin:round; stroke-width:4; stroke-opacity:1; fill:none" points="1892.65,393.344 1891.53,392.822 1888.48,392.3 1883.65,391.778 1877.25,391.256 1869.52,390.734 1860.79,390.212 1851.38,389.689 1841.62,389.167 1831.81,388.645 1822.25,388.123 1813.17,387.601 1804.76,387.079 1797.18,386.557 1790.51,386.035 1784.82,385.512 1780.12,384.99 1776.42,384.468 1773.71,383.946 1771.96,383.424 1771.18,382.902 1771.34,382.38 1772.47,381.858 1774.58,381.336 1777.71,380.813 1781.9,380.291 1787.19,379.769 1793.61,379.247 1801.19,378.725 1809.91,378.203 1819.76,377.681 1830.65,377.159 1842.51,376.636 1855.19,376.114 1868.53,375.592 1882.37,375.07 1896.51,374.548 1910.75,374.026 1924.93,373.504 1938.89,372.982 1952.47,372.459 1965.57,371.937 1978.1,371.415 1989.98,370.893 2001.15,370.371 2011.51,369.849 2020.99,369.327 2029.47,368.805 2036.81,368.283 2042.83,367.76 2047.34,367.238 2050.12,366.716 2050.99,366.194 2049.75,365.672 2046.26,365.15 2040.44,364.628 2032.28,364.106 2021.85,363.583 2009.3,363.061 1994.87,362.539 1978.87,362.017 1961.67,361.495 1943.66,360.973 1925.28,360.451 1906.92,359.929 1888.97,359.406 1871.78,358.884 1855.61,358.362 1840.7,357.84 1827.19,357.318 1815.16,356.796 1804.64,356.274 1795.58,355.752 1787.92,355.229 1781.54,354.707 1776.31,354.185 1772.1,353.663 1768.76,353.141 1766.15,352.619 1764.15,352.097 1762.63,351.575 1761.5,351.053 1760.67,350.53 1760.07,350.008 1759.65,349.486 1759.35,348.964 1759.14,348.442 1759,347.92 1758.91,347.398 1758.85,346.876 1758.81,346.353 1758.79,345.831 1758.77,345.309 1758.76,344.787 1758.75,344.265 1758.75,343.743 1758.75,343.221 1758.75,342.699 1758.76,342.176 1758.77,341.654 1758.79,341.132 1758.81,340.61 1758.85,340.088 1758.91,339.566 1759.01,339.044 1759.15,338.522 1759.35,338 1759.64,337.477 1760.04,336.955 1760.61,336.433 1761.39,335.911 1762.43,335.389 1763.81,334.867 1765.61,334.345 1767.91,333.823 1770.8,333.3 1774.36,332.778 1778.68,332.256 1783.83,331.734 1789.84,331.212 1796.73,330.69 1804.47,330.168 1812.98,329.646 1822.13,329.123 1831.73,328.601 1841.57,328.079 1851.35,327.557 1860.78,327.035 1869.51,326.513 1877.24,325.991 1883.65,325.469 1888.48,324.946 1891.52,324.424 1892.65,323.902 1624.84,323.902 1625.96,324.424 1629.01,324.946 1633.84,325.469 1640.25,325.991 1647.97,326.513 1656.71,327.035 1666.14,327.557 1675.92,328.079 1685.75,328.601 1695.36,329.123 1704.51,329.646 1713.02,330.168 1720.76,330.69 1727.65,331.212 1733.66,331.734 1738.81,332.256 1743.13,332.778 1746.69,333.3 1749.58,333.823 1751.88,334.345 1753.67,334.867 1755.06,335.389 1756.1,335.911 1756.88,336.433 1757.44,336.955 1757.85,337.477 1758.14,338 1758.34,338.522 1758.48,339.044 1758.57,339.566 1758.64,340.088 1758.68,340.61 1758.7,341.132 1758.72,341.654 1758.73,342.176 1758.73,342.699 1758.74,343.221 1758.74,343.743 1758.73,344.265 1758.73,344.787 1758.72,345.309 1758.7,345.831 1758.68,346.353 1758.64,346.876 1758.58,347.398 1758.48,347.92 1758.34,348.442 1758.14,348.964 1757.84,349.486 1757.42,350.008 1756.82,350.53 1755.99,351.053 1754.86,351.575 1753.34,352.097 1751.34,352.619 1748.73,353.141 1745.39,353.663 1741.18,354.185 1735.95,354.707 1729.57,355.229 1721.91,355.752 1712.85,356.274 1702.32,356.796 1690.3,357.318 1676.79,357.84 1661.88,358.362 1645.71,358.884 1628.52,359.406 1610.57,359.929 1592.21,360.451 1573.83,360.973 1555.82,361.495 1538.62,362.017 1522.62,362.539 1508.19,363.061 1495.64,363.583 1485.21,364.106 1477.05,364.628 1471.23,365.15 1467.74,365.672 1466.5,366.194 1467.36,366.716 1470.15,367.238 1474.66,367.76 1480.68,368.283 1488.02,368.805 1496.5,369.327 1505.98,369.849 1516.34,370.371 1527.5,370.893 1539.39,371.415 1551.92,371.937 1565.02,372.459 1578.6,372.982 1592.55,373.504 1606.73,374.026 1620.98,374.548 1635.12,375.07 1648.95,375.592 1662.3,376.114 1674.98,376.636 1686.83,377.159 1697.73,377.681 1707.58,378.203 1716.3,378.725 1723.88,379.247 1730.3,379.769 1735.59,380.291 1739.78,380.813 1742.91,381.336 1745.02,381.858 1746.15,382.38 1746.31,382.902 1745.52,383.424 1743.78,383.946 1741.06,384.468 1737.37,384.99 1732.67,385.512 1726.97,386.035 1720.31,386.557 1712.72,387.079 1704.32,387.601 1695.24,388.123 1685.68,388.645 1675.87,389.167 1666.11,389.689 1656.69,390.212 1647.96,390.734 1640.24,391.256 1633.83,391.778 1629.01,392.3 1625.96,392.822 1624.84,393.344 1892.65,393.344 "/>
<path clip-path="url(#clip611)" d="M3070.37 128.205 L3072.33 127.504 L3073.48 126.802 L3073.85 126.101 L3073.45 125.399 L3072.3 124.698 L3070.44 123.996 L3067.9 123.295 L3064.75 122.593 L3061.03 121.892 L3056.8 121.19 L3052.14 120.489 L3047.09 119.788 L3041.75 119.086 L3036.17 118.385 L3030.44 117.683 L3024.61 116.982 L3018.77 116.28 L3012.98 115.579 L3007.29 114.877 L3001.78 114.176 L2996.48 113.474 L2991.45 112.773 L2986.73 112.071 L2982.34 111.37 L2978.32 110.668 L2974.69 109.967 L2971.44 109.265 L2968.6 108.564 L2966.16 107.862 L2964.1 107.161 L2962.41 106.459 L2961.07 105.758 L2960.06 105.056 L2959.35 104.355 L2958.89 103.653 L2958.66 102.952 L2958.62 102.25 L2958.72 101.549 L2958.92 100.847 L2959.18 100.146 L2959.45 99.4445 L2959.71 98.743 L2959.9 98.0416 L2959.99 97.3401 L2959.94 96.6386 L2959.72 95.9371 L2959.3 95.2356 L2958.66 94.5341 L2957.78 93.8327 L2956.62 93.1312 L2955.19 92.4297 L2953.46 91.7282 L2951.44 91.0267 L2949.11 90.3253 L2946.48 89.6238 L2943.55 88.9223 L2940.34 88.2208 L2622.87 88.2208 L2619.65 88.9223 L2616.73 89.6238 L2614.1 90.3253 L2611.77 91.0267 L2609.75 91.7282 L2608.02 92.4297 L2606.59 93.1312 L2605.43 93.8327 L2604.54 94.5341 L2603.9 95.2356 L2603.49 95.9371 L2603.27 96.6386 L2603.22 97.3401 L2603.31 98.0416 L2603.5 98.743 L2603.75 99.4445 L2604.03 100.146 L2604.29 100.847 L2604.49 101.549 L2604.59 102.25 L2604.54 102.952 L2604.31 103.653 L2603.86 104.355 L2603.14 105.056 L2602.13 105.758 L2600.8 106.459 L2599.11 107.161 L2597.05 107.862 L2594.61 108.564 L2591.76 109.265 L2588.52 109.967 L2584.89 110.668 L2580.87 111.37 L2576.48 112.071 L2571.76 112.773 L2566.73 113.474 L2561.43 114.176 L2555.92 114.877 L2550.23 115.579 L2544.44 116.28 L2538.59 116.982 L2532.77 117.683 L2527.04 118.385 L2521.46 119.086 L2516.11 119.788 L2511.07 120.489 L2506.4 121.19 L2502.18 121.892 L2498.46 122.593 L2495.3 123.295 L2492.77 123.996 L2490.91 124.698 L2489.76 125.399 L2489.36 126.101 L2489.73 126.802 L2490.88 127.504 L2492.83 128.205 L3070.37 128.205  Z" fill="#3da44d" fill-rule="evenodd" fill-opacity="1"/>
<polyline clip-path="url(#clip611)" style="stroke:#000000; stroke-linecap:round; stroke-linejoin:round; stroke-width:4; stroke-opacity:1; fill:none" points="3070.37,128.205 3072.33,127.504 3073.48,126.802 3073.85,126.101 3073.45,125.399 3072.3,124.698 3070.44,123.996 3067.9,123.295 3064.75,122.593 3061.03,121.892 3056.8,121.19 3052.14,120.489 3047.09,119.788 3041.75,119.086 3036.17,118.385 3030.44,117.683 3024.61,116.982 3018.77,116.28 3012.98,115.579 3007.29,114.877 3001.78,114.176 2996.48,113.474 2991.45,112.773 2986.73,112.071 2982.34,111.37 2978.32,110.668 2974.69,109.967 2971.44,109.265 2968.6,108.564 2966.16,107.862 2964.1,107.161 2962.41,106.459 2961.07,105.758 2960.06,105.056 2959.35,104.355 2958.89,103.653 2958.66,102.952 2958.62,102.25 2958.72,101.549 2958.92,100.847 2959.18,100.146 2959.45,99.4445 2959.71,98.743 2959.9,98.0416 2959.99,97.3401 2959.94,96.6386 2959.72,95.9371 2959.3,95.2356 2958.66,94.5341 2957.78,93.8327 2956.62,93.1312 2955.19,92.4297 2953.46,91.7282 2951.44,91.0267 2949.11,90.3253 2946.48,89.6238 2943.55,88.9223 2940.34,88.2208 2622.87,88.2208 2619.65,88.9223 2616.73,89.6238 2614.1,90.3253 2611.77,91.0267 2609.75,91.7282 2608.02,92.4297 2606.59,93.1312 2605.43,93.8327 2604.54,94.5341 2603.9,95.2356 2603.49,95.9371 2603.27,96.6386 2603.22,97.3401 2603.31,98.0416 2603.5,98.743 2603.75,99.4445 2604.03,100.146 2604.29,100.847 2604.49,101.549 2604.59,102.25 2604.54,102.952 2604.31,103.653 2603.86,104.355 2603.14,105.056 2602.13,105.758 2600.8,106.459 2599.11,107.161 2597.05,107.862 2594.61,108.564 2591.76,109.265 2588.52,109.967 2584.89,110.668 2580.87,111.37 2576.48,112.071 2571.76,112.773 2566.73,113.474 2561.43,114.176 2555.92,114.877 2550.23,115.579 2544.44,116.28 2538.59,116.982 2532.77,117.683 2527.04,118.385 2521.46,119.086 2516.11,119.788 2511.07,120.489 2506.4,121.19 2502.18,121.892 2498.46,122.593 2495.3,123.295 2492.77,123.996 2490.91,124.698 2489.76,125.399 2489.36,126.101 2489.73,126.802 2490.88,127.504 2492.83,128.205 3070.37,128.205 "/>
</svg>
