<?xml version="1.0" encoding="utf-8"?>
<svg xmlns="http://www.w3.org/2000/svg" xmlns:xlink="http://www.w3.org/1999/xlink" width="600" height="400" viewBox="0 0 2400 1600">
<defs>
  <clipPath id="clip540">
    <rect x="0" y="0" width="2400" height="1600"/>
  </clipPath>
</defs>
<path clip-path="url(#clip540)" d="M0 1600 L2400 1600 L2400 0 L0 0  Z" fill="#ffffff" fill-rule="evenodd" fill-opacity="1"/>
<defs>
  <clipPath id="clip541">
    <rect x="394" y="47" width="1959" height="1377"/>
  </clipPath>
</defs>
<path clip-path="url(#clip540)" d="M394.884 1423.18 L2352.76 1423.18 L2352.76 47.2441 L394.884 47.2441  Z" fill="#ffffff" fill-rule="evenodd" fill-opacity="1"/>
<polyline clip-path="url(#clip541)" style="stroke:#000000; stroke-linecap:round; stroke-linejoin:round; stroke-width:2; stroke-opacity:0.1; fill:none" points="758.137,1423.18 758.137,47.2441 "/>
<polyline clip-path="url(#clip541)" style="stroke:#000000; stroke-linecap:round; stroke-linejoin:round; stroke-width:2; stroke-opacity:0.1; fill:none" points="1142.94,1423.18 1142.94,47.2441 "/>
<polyline clip-path="url(#clip541)" style="stroke:#000000; stroke-linecap:round; stroke-linejoin:round; stroke-width:2; stroke-opacity:0.1; fill:none" points="1527.74,1423.18 1527.74,47.2441 "/>
<polyline clip-path="url(#clip541)" style="stroke:#000000; stroke-linecap:round; stroke-linejoin:round; stroke-width:2; stroke-opacity:0.1; fill:none" points="1912.54,1423.18 1912.54,47.2441 "/>
<polyline clip-path="url(#clip541)" style="stroke:#000000; stroke-linecap:round; stroke-linejoin:round; stroke-width:2; stroke-opacity:0.1; fill:none" points="2297.34,1423.18 2297.34,47.2441 "/>
<polyline clip-path="url(#clip541)" style="stroke:#000000; stroke-linecap:round; stroke-linejoin:round; stroke-width:2; stroke-opacity:0.1; fill:none" points="394.884,1274.22 2352.76,1274.22 "/>
<polyline clip-path="url(#clip541)" style="stroke:#000000; stroke-linecap:round; stroke-linejoin:round; stroke-width:2; stroke-opacity:0.1; fill:none" points="394.884,1097.16 2352.76,1097.16 "/>
<polyline clip-path="url(#clip541)" style="stroke:#000000; stroke-linecap:round; stroke-linejoin:round; stroke-width:2; stroke-opacity:0.1; fill:none" points="394.884,920.109 2352.76,920.109 "/>
<polyline clip-path="url(#clip541)" style="stroke:#000000; stroke-linecap:round; stroke-linejoin:round; stroke-width:2; stroke-opacity:0.1; fill:none" points="394.884,743.054 2352.76,743.054 "/>
<polyline clip-path="url(#clip541)" style="stroke:#000000; stroke-linecap:round; stroke-linejoin:round; stroke-width:2; stroke-opacity:0.1; fill:none" points="394.884,566 2352.76,566 "/>
<polyline clip-path="url(#clip541)" style="stroke:#000000; stroke-linecap:round; stroke-linejoin:round; stroke-width:2; stroke-opacity:0.1; fill:none" points="394.884,388.946 2352.76,388.946 "/>
<polyline clip-path="url(#clip541)" style="stroke:#000000; stroke-linecap:round; stroke-linejoin:round; stroke-width:2; stroke-opacity:0.1; fill:none" points="394.884,211.891 2352.76,211.891 "/>
<polyline clip-path="url(#clip540)" style="stroke:#000000; stroke-linecap:round; stroke-linejoin:round; stroke-width:4; stroke-opacity:1; fill:none" points="394.884,1423.18 2352.76,1423.18 "/>
<polyline clip-path="url(#clip540)" style="stroke:#000000; stroke-linecap:round; stroke-linejoin:round; stroke-width:4; stroke-opacity:1; fill:none" points="758.137,1423.18 758.137,1404.28 "/>
<polyline clip-path="url(#clip540)" style="stroke:#000000; stroke-linecap:round; stroke-linejoin:round; stroke-width:4; stroke-opacity:1; fill:none" points="1142.94,1423.18 1142.94,1404.28 "/>
<polyline clip-path="url(#clip540)" style="stroke:#000000; stroke-linecap:round; stroke-linejoin:round; stroke-width:4; stroke-opacity:1; fill:none" points="1527.74,1423.18 1527.74,1404.28 "/>
<polyline clip-path="url(#clip540)" style="stroke:#000000; stroke-linecap:round; stroke-linejoin:round; stroke-width:4; stroke-opacity:1; fill:none" points="1912.54,1423.18 1912.54,1404.28 "/>
<polyline clip-path="url(#clip540)" style="stroke:#000000; stroke-linecap:round; stroke-linejoin:round; stroke-width:4; stroke-opacity:1; fill:none" points="2297.34,1423.18 2297.34,1404.28 "/>
<path clip-path="url(#clip540)" d="M721.829 1481.64 L738.149 1481.64 L738.149 1485.58 L716.204 1485.58 L716.204 1481.64 Q718.866 1478.89 723.45 1474.26 Q728.056 1469.61 729.237 1468.27 Q731.482 1465.74 732.362 1464.01 Q733.265 1462.25 733.265 1460.56 Q733.265 1457.8 731.32 1456.07 Q729.399 1454.33 726.297 1454.33 Q724.098 1454.33 721.644 1455.09 Q719.214 1455.86 716.436 1457.41 L716.436 1452.69 Q719.26 1451.55 721.714 1450.97 Q724.167 1450.39 726.204 1450.39 Q731.575 1450.39 734.769 1453.08 Q737.964 1455.77 737.964 1460.26 Q737.964 1462.39 737.153 1464.31 Q736.366 1466.2 734.26 1468.8 Q733.681 1469.47 730.579 1472.69 Q727.478 1475.88 721.829 1481.64 Z" fill="#000000" fill-rule="nonzero" fill-opacity="1" /><path clip-path="url(#clip540)" d="M757.963 1454.1 Q754.352 1454.1 752.524 1457.66 Q750.718 1461.2 750.718 1468.33 Q750.718 1475.44 752.524 1479.01 Q754.352 1482.55 757.963 1482.55 Q761.598 1482.55 763.403 1479.01 Q765.232 1475.44 765.232 1468.33 Q765.232 1461.2 763.403 1457.66 Q761.598 1454.1 757.963 1454.1 M757.963 1450.39 Q763.774 1450.39 766.829 1455 Q769.908 1459.58 769.908 1468.33 Q769.908 1477.06 766.829 1481.67 Q763.774 1486.25 757.963 1486.25 Q752.153 1486.25 749.075 1481.67 Q746.019 1477.06 746.019 1468.33 Q746.019 1459.58 749.075 1455 Q752.153 1450.39 757.963 1450.39 Z" fill="#000000" fill-rule="nonzero" fill-opacity="1" /><path clip-path="url(#clip540)" d="M788.125 1454.1 Q784.514 1454.1 782.686 1457.66 Q780.88 1461.2 780.88 1468.33 Q780.88 1475.44 782.686 1479.01 Q784.514 1482.55 788.125 1482.55 Q791.76 1482.55 793.565 1479.01 Q795.394 1475.44 795.394 1468.33 Q795.394 1461.2 793.565 1457.66 Q791.76 1454.1 788.125 1454.1 M788.125 1450.39 Q793.935 1450.39 796.991 1455 Q800.07 1459.58 800.07 1468.33 Q800.07 1477.06 796.991 1481.67 Q793.935 1486.25 788.125 1486.25 Q782.315 1486.25 779.236 1481.67 Q776.181 1477.06 776.181 1468.33 Q776.181 1459.58 779.236 1455 Q782.315 1450.39 788.125 1450.39 Z" fill="#000000" fill-rule="nonzero" fill-opacity="1" /><path clip-path="url(#clip540)" d="M1116.03 1455.09 L1104.22 1473.54 L1116.03 1473.54 L1116.03 1455.09 M1114.8 1451.02 L1120.68 1451.02 L1120.68 1473.54 L1125.61 1473.54 L1125.61 1477.43 L1120.68 1477.43 L1120.68 1485.58 L1116.03 1485.58 L1116.03 1477.43 L1100.43 1477.43 L1100.43 1472.92 L1114.8 1451.02 Z" fill="#000000" fill-rule="nonzero" fill-opacity="1" /><path clip-path="url(#clip540)" d="M1143.34 1454.1 Q1139.73 1454.1 1137.9 1457.66 Q1136.1 1461.2 1136.1 1468.33 Q1136.1 1475.44 1137.9 1479.01 Q1139.73 1482.55 1143.34 1482.55 Q1146.98 1482.55 1148.78 1479.01 Q1150.61 1475.44 1150.61 1468.33 Q1150.61 1461.2 1148.78 1457.66 Q1146.98 1454.1 1143.34 1454.1 M1143.34 1450.39 Q1149.15 1450.39 1152.21 1455 Q1155.29 1459.58 1155.29 1468.33 Q1155.29 1477.06 1152.21 1481.67 Q1149.15 1486.25 1143.34 1486.25 Q1137.53 1486.25 1134.46 1481.67 Q1131.4 1477.06 1131.4 1468.33 Q1131.4 1459.58 1134.46 1455 Q1137.53 1450.39 1143.34 1450.39 Z" fill="#000000" fill-rule="nonzero" fill-opacity="1" /><path clip-path="url(#clip540)" d="M1173.51 1454.1 Q1169.89 1454.1 1168.07 1457.66 Q1166.26 1461.2 1166.26 1468.33 Q1166.26 1475.44 1168.07 1479.01 Q1169.89 1482.55 1173.51 1482.55 Q1177.14 1482.55 1178.95 1479.01 Q1180.77 1475.44 1180.77 1468.33 Q1180.77 1461.2 1178.95 1457.66 Q1177.14 1454.1 1173.51 1454.1 M1173.51 1450.39 Q1179.32 1450.39 1182.37 1455 Q1185.45 1459.58 1185.45 1468.33 Q1185.45 1477.06 1182.37 1481.67 Q1179.32 1486.25 1173.51 1486.25 Q1167.7 1486.25 1164.62 1481.67 Q1161.56 1477.06 1161.56 1468.33 Q1161.56 1459.58 1164.62 1455 Q1167.7 1450.39 1173.51 1450.39 Z" fill="#000000" fill-rule="nonzero" fill-opacity="1" /><path clip-path="url(#clip540)" d="M1498.06 1466.44 Q1494.92 1466.44 1493.07 1468.59 Q1491.24 1470.74 1491.24 1474.49 Q1491.24 1478.22 1493.07 1480.39 Q1494.92 1482.55 1498.06 1482.55 Q1501.21 1482.55 1503.04 1480.39 Q1504.89 1478.22 1504.89 1474.49 Q1504.89 1470.74 1503.04 1468.59 Q1501.21 1466.44 1498.06 1466.44 M1507.35 1451.78 L1507.35 1456.04 Q1505.59 1455.21 1503.78 1454.77 Q1502 1454.33 1500.24 1454.33 Q1495.61 1454.33 1493.16 1457.45 Q1490.73 1460.58 1490.38 1466.9 Q1491.75 1464.89 1493.81 1463.82 Q1495.87 1462.73 1498.34 1462.73 Q1503.55 1462.73 1506.56 1465.9 Q1509.59 1469.05 1509.59 1474.49 Q1509.59 1479.82 1506.44 1483.03 Q1503.3 1486.25 1498.06 1486.25 Q1492.07 1486.25 1488.9 1481.67 Q1485.73 1477.06 1485.73 1468.33 Q1485.73 1460.14 1489.62 1455.28 Q1493.5 1450.39 1500.06 1450.39 Q1501.81 1450.39 1503.6 1450.74 Q1505.4 1451.09 1507.35 1451.78 Z" fill="#000000" fill-rule="nonzero" fill-opacity="1" /><path clip-path="url(#clip540)" d="M1527.65 1454.1 Q1524.04 1454.1 1522.21 1457.66 Q1520.4 1461.2 1520.4 1468.33 Q1520.4 1475.44 1522.21 1479.01 Q1524.04 1482.55 1527.65 1482.55 Q1531.28 1482.55 1533.09 1479.01 Q1534.92 1475.44 1534.92 1468.33 Q1534.92 1461.2 1533.09 1457.66 Q1531.28 1454.1 1527.65 1454.1 M1527.65 1450.39 Q1533.46 1450.39 1536.51 1455 Q1539.59 1459.58 1539.59 1468.33 Q1539.59 1477.06 1536.51 1481.67 Q1533.46 1486.25 1527.65 1486.25 Q1521.84 1486.25 1518.76 1481.67 Q1515.7 1477.06 1515.7 1468.33 Q1515.7 1459.58 1518.76 1455 Q1521.84 1450.39 1527.65 1450.39 Z" fill="#000000" fill-rule="nonzero" fill-opacity="1" /><path clip-path="url(#clip540)" d="M1557.81 1454.1 Q1554.2 1454.1 1552.37 1457.66 Q1550.56 1461.2 1550.56 1468.33 Q1550.56 1475.44 1552.37 1479.01 Q1554.2 1482.55 1557.81 1482.55 Q1561.44 1482.55 1563.25 1479.01 Q1565.08 1475.44 1565.08 1468.33 Q1565.08 1461.2 1563.25 1457.66 Q1561.44 1454.1 1557.81 1454.1 M1557.81 1450.39 Q1563.62 1450.39 1566.68 1455 Q1569.75 1459.58 1569.75 1468.33 Q1569.75 1477.06 1566.68 1481.67 Q1563.62 1486.25 1557.81 1486.25 Q1552 1486.25 1548.92 1481.67 Q1545.87 1477.06 1545.87 1468.33 Q1545.87 1459.58 1548.92 1455 Q1552 1450.39 1557.81 1450.39 Z" fill="#000000" fill-rule="nonzero" fill-opacity="1" /><path clip-path="url(#clip540)" d="M1882.33 1469.17 Q1879 1469.17 1877.08 1470.95 Q1875.18 1472.73 1875.18 1475.86 Q1875.18 1478.98 1877.08 1480.77 Q1879 1482.55 1882.33 1482.55 Q1885.67 1482.55 1887.59 1480.77 Q1889.51 1478.96 1889.51 1475.86 Q1889.51 1472.73 1887.59 1470.95 Q1885.69 1469.17 1882.33 1469.17 M1877.66 1467.18 Q1874.65 1466.44 1872.96 1464.38 Q1871.29 1462.32 1871.29 1459.35 Q1871.29 1455.21 1874.23 1452.8 Q1877.2 1450.39 1882.33 1450.39 Q1887.5 1450.39 1890.44 1452.8 Q1893.38 1455.21 1893.38 1459.35 Q1893.38 1462.32 1891.69 1464.38 Q1890.02 1466.44 1887.03 1467.18 Q1890.41 1467.96 1892.29 1470.26 Q1894.19 1472.55 1894.19 1475.86 Q1894.19 1480.88 1891.11 1483.57 Q1888.05 1486.25 1882.33 1486.25 Q1876.62 1486.25 1873.54 1483.57 Q1870.48 1480.88 1870.48 1475.86 Q1870.48 1472.55 1872.38 1470.26 Q1874.28 1467.96 1877.66 1467.18 M1875.95 1459.79 Q1875.95 1462.48 1877.61 1463.98 Q1879.3 1465.49 1882.33 1465.49 Q1885.34 1465.49 1887.03 1463.98 Q1888.75 1462.48 1888.75 1459.79 Q1888.75 1457.11 1887.03 1455.6 Q1885.34 1454.1 1882.33 1454.1 Q1879.3 1454.1 1877.61 1455.6 Q1875.95 1457.11 1875.95 1459.79 Z" fill="#000000" fill-rule="nonzero" fill-opacity="1" /><path clip-path="url(#clip540)" d="M1912.5 1454.1 Q1908.89 1454.1 1907.06 1457.66 Q1905.25 1461.2 1905.25 1468.33 Q1905.25 1475.44 1907.06 1479.01 Q1908.89 1482.55 1912.5 1482.55 Q1916.13 1482.55 1917.94 1479.01 Q1919.76 1475.44 1919.76 1468.33 Q1919.76 1461.2 1917.94 1457.66 Q1916.13 1454.1 1912.5 1454.1 M1912.5 1450.39 Q1918.31 1450.39 1921.36 1455 Q1924.44 1459.58 1924.44 1468.33 Q1924.44 1477.06 1921.36 1481.67 Q1918.31 1486.25 1912.5 1486.25 Q1906.69 1486.25 1903.61 1481.67 Q1900.55 1477.06 1900.55 1468.33 Q1900.55 1459.58 1903.61 1455 Q1906.69 1450.39 1912.5 1450.39 Z" fill="#000000" fill-rule="nonzero" fill-opacity="1" /><path clip-path="url(#clip540)" d="M1942.66 1454.1 Q1939.05 1454.1 1937.22 1457.66 Q1935.41 1461.2 1935.41 1468.33 Q1935.41 1475.44 1937.22 1479.01 Q1939.05 1482.55 1942.66 1482.55 Q1946.29 1482.55 1948.1 1479.01 Q1949.93 1475.44 1949.93 1468.33 Q1949.93 1461.2 1948.1 1457.66 Q1946.29 1454.1 1942.66 1454.1 M1942.66 1450.39 Q1948.47 1450.39 1951.52 1455 Q1954.6 1459.58 1954.6 1468.33 Q1954.6 1477.06 1951.52 1481.67 Q1948.47 1486.25 1942.66 1486.25 Q1936.85 1486.25 1933.77 1481.67 Q1930.71 1477.06 1930.71 1468.33 Q1930.71 1459.58 1933.77 1455 Q1936.85 1450.39 1942.66 1450.39 Z" fill="#000000" fill-rule="nonzero" fill-opacity="1" /><path clip-path="url(#clip540)" d="M2241.87 1481.64 L2249.51 1481.64 L2249.51 1455.28 L2241.2 1456.95 L2241.2 1452.69 L2249.46 1451.02 L2254.14 1451.02 L2254.14 1481.64 L2261.78 1481.64 L2261.78 1485.58 L2241.87 1485.58 L2241.87 1481.64 Z" fill="#000000" fill-rule="nonzero" fill-opacity="1" /><path clip-path="url(#clip540)" d="M2281.22 1454.1 Q2277.61 1454.1 2275.78 1457.66 Q2273.98 1461.2 2273.98 1468.33 Q2273.98 1475.44 2275.78 1479.01 Q2277.61 1482.55 2281.22 1482.55 Q2284.86 1482.55 2286.66 1479.01 Q2288.49 1475.44 2288.49 1468.33 Q2288.49 1461.2 2286.66 1457.66 Q2284.86 1454.1 2281.22 1454.1 M2281.22 1450.39 Q2287.03 1450.39 2290.09 1455 Q2293.17 1459.58 2293.17 1468.33 Q2293.17 1477.06 2290.09 1481.67 Q2287.03 1486.25 2281.22 1486.25 Q2275.41 1486.25 2272.33 1481.67 Q2269.28 1477.06 2269.28 1468.33 Q2269.28 1459.58 2272.33 1455 Q2275.41 1450.39 2281.22 1450.39 Z" fill="#000000" fill-rule="nonzero" fill-opacity="1" /><path clip-path="url(#clip540)" d="M2311.38 1454.1 Q2307.77 1454.1 2305.94 1457.66 Q2304.14 1461.2 2304.14 1468.33 Q2304.14 1475.44 2305.94 1479.01 Q2307.77 1482.55 2311.38 1482.55 Q2315.02 1482.55 2316.82 1479.01 Q2318.65 1475.44 2318.65 1468.33 Q2318.65 1461.2 2316.82 1457.66 Q2315.02 1454.1 2311.38 1454.1 M2311.38 1450.39 Q2317.19 1450.39 2320.25 1455 Q2323.33 1459.58 2323.33 1468.33 Q2323.33 1477.06 2320.25 1481.67 Q2317.19 1486.25 2311.38 1486.25 Q2305.57 1486.25 2302.49 1481.67 Q2299.44 1477.06 2299.44 1468.33 Q2299.44 1459.58 2302.49 1455 Q2305.57 1450.39 2311.38 1450.39 Z" fill="#000000" fill-rule="nonzero" fill-opacity="1" /><path clip-path="url(#clip540)" d="M2341.55 1454.1 Q2337.93 1454.1 2336.11 1457.66 Q2334.3 1461.2 2334.3 1468.33 Q2334.3 1475.44 2336.11 1479.01 Q2337.93 1482.55 2341.55 1482.55 Q2345.18 1482.55 2346.99 1479.01 Q2348.81 1475.44 2348.81 1468.33 Q2348.81 1461.2 2346.99 1457.66 Q2345.18 1454.1 2341.55 1454.1 M2341.55 1450.39 Q2347.36 1450.39 2350.41 1455 Q2353.49 1459.58 2353.49 1468.33 Q2353.49 1477.06 2350.41 1481.67 Q2347.36 1486.25 2341.55 1486.25 Q2335.74 1486.25 2332.66 1481.67 Q2329.6 1477.06 2329.6 1468.33 Q2329.6 1459.58 2332.66 1455 Q2335.74 1450.39 2341.55 1450.39 Z" fill="#000000" fill-rule="nonzero" fill-opacity="1" /><path clip-path="url(#clip540)" d="M1370.89 1518.52 L1376.75 1518.52 L1376.75 1568.04 L1370.89 1568.04 L1370.89 1518.52 Z" fill="#000000" fill-rule="nonzero" fill-opacity="1" /><polyline clip-path="url(#clip540)" style="stroke:#000000; stroke-linecap:round; stroke-linejoin:round; stroke-width:4; stroke-opacity:1; fill:none" points="394.884,1423.18 394.884,47.2441 "/>
<polyline clip-path="url(#clip540)" style="stroke:#000000; stroke-linecap:round; stroke-linejoin:round; stroke-width:4; stroke-opacity:1; fill:none" points="394.884,1274.22 413.782,1274.22 "/>
<polyline clip-path="url(#clip540)" style="stroke:#000000; stroke-linecap:round; stroke-linejoin:round; stroke-width:4; stroke-opacity:1; fill:none" points="394.884,1097.16 413.782,1097.16 "/>
<polyline clip-path="url(#clip540)" style="stroke:#000000; stroke-linecap:round; stroke-linejoin:round; stroke-width:4; stroke-opacity:1; fill:none" points="394.884,920.109 413.782,920.109 "/>
<polyline clip-path="url(#clip540)" style="stroke:#000000; stroke-linecap:round; stroke-linejoin:round; stroke-width:4; stroke-opacity:1; fill:none" points="394.884,743.054 413.782,743.054 "/>
<polyline clip-path="url(#clip540)" style="stroke:#000000; stroke-linecap:round; stroke-linejoin:round; stroke-width:4; stroke-opacity:1; fill:none" points="394.884,566 413.782,566 "/>
<polyline clip-path="url(#clip540)" style="stroke:#000000; stroke-linecap:round; stroke-linejoin:round; stroke-width:4; stroke-opacity:1; fill:none" points="394.884,388.946 413.782,388.946 "/>
<polyline clip-path="url(#clip540)" style="stroke:#000000; stroke-linecap:round; stroke-linejoin:round; stroke-width:4; stroke-opacity:1; fill:none" points="394.884,211.891 413.782,211.891 "/>
<path clip-path="url(#clip540)" d="M121.043 1294.01 L137.362 1294.01 L137.362 1297.95 L115.418 1297.95 L115.418 1294.01 Q118.08 1291.26 122.663 1286.63 Q127.269 1281.97 128.45 1280.63 Q130.695 1278.11 131.575 1276.37 Q132.478 1274.61 132.478 1272.92 Q132.478 1270.17 130.533 1268.43 Q128.612 1266.7 125.51 1266.7 Q123.311 1266.7 120.857 1267.46 Q118.427 1268.22 115.649 1269.77 L115.649 1265.05 Q118.473 1263.92 120.927 1263.34 Q123.38 1262.76 125.418 1262.76 Q130.788 1262.76 133.982 1265.45 Q137.177 1268.13 137.177 1272.62 Q137.177 1274.75 136.367 1276.67 Q135.579 1278.57 133.473 1281.16 Q132.894 1281.83 129.792 1285.05 Q126.691 1288.25 121.043 1294.01 Z" fill="#000000" fill-rule="nonzero" fill-opacity="1" /><path clip-path="url(#clip540)" d="M147.177 1292.07 L152.061 1292.07 L152.061 1297.95 L147.177 1297.95 L147.177 1292.07 Z" fill="#000000" fill-rule="nonzero" fill-opacity="1" /><path clip-path="url(#clip540)" d="M172.246 1266.46 Q168.635 1266.46 166.806 1270.03 Q165.001 1273.57 165.001 1280.7 Q165.001 1287.81 166.806 1291.37 Q168.635 1294.91 172.246 1294.91 Q175.88 1294.91 177.686 1291.37 Q179.514 1287.81 179.514 1280.7 Q179.514 1273.57 177.686 1270.03 Q175.88 1266.46 172.246 1266.46 M172.246 1262.76 Q178.056 1262.76 181.112 1267.37 Q184.19 1271.95 184.19 1280.7 Q184.19 1289.43 181.112 1294.03 Q178.056 1298.62 172.246 1298.62 Q166.436 1298.62 163.357 1294.03 Q160.302 1289.43 160.302 1280.7 Q160.302 1271.95 163.357 1267.37 Q166.436 1262.76 172.246 1262.76 Z" fill="#000000" fill-rule="nonzero" fill-opacity="1" /><path clip-path="url(#clip540)" d="M220.579 1272.48 L210 1283.11 L220.579 1293.69 L217.824 1296.49 L207.199 1285.86 L196.575 1296.49 L193.843 1293.69 L204.399 1283.11 L193.843 1272.48 L196.575 1269.68 L207.199 1280.31 L217.824 1269.68 L220.579 1272.48 Z" fill="#000000" fill-rule="nonzero" fill-opacity="1" /><path clip-path="url(#clip540)" d="M232.94 1294.01 L240.579 1294.01 L240.579 1267.64 L232.269 1269.31 L232.269 1265.05 L240.533 1263.39 L245.209 1263.39 L245.209 1294.01 L252.847 1294.01 L252.847 1297.95 L232.94 1297.95 L232.94 1294.01 Z" fill="#000000" fill-rule="nonzero" fill-opacity="1" /><path clip-path="url(#clip540)" d="M272.292 1266.46 Q268.681 1266.46 266.852 1270.03 Q265.046 1273.57 265.046 1280.7 Q265.046 1287.81 266.852 1291.37 Q268.681 1294.91 272.292 1294.91 Q275.926 1294.91 277.732 1291.37 Q279.56 1287.81 279.56 1280.7 Q279.56 1273.57 277.732 1270.03 Q275.926 1266.46 272.292 1266.46 M272.292 1262.76 Q278.102 1262.76 281.157 1267.37 Q284.236 1271.95 284.236 1280.7 Q284.236 1289.43 281.157 1294.03 Q278.102 1298.62 272.292 1298.62 Q266.482 1298.62 263.403 1294.03 Q260.347 1289.43 260.347 1280.7 Q260.347 1271.95 263.403 1267.37 Q266.482 1262.76 272.292 1262.76 Z" fill="#000000" fill-rule="nonzero" fill-opacity="1" /><path clip-path="url(#clip540)" d="M284.236 1256.86 L308.348 1256.86 L308.348 1260.06 L284.236 1260.06 L284.236 1256.86 Z" fill="#000000" fill-rule="nonzero" fill-opacity="1" /><path clip-path="url(#clip540)" d="M317.206 1267.34 L323.413 1267.34 L323.413 1245.92 L316.661 1247.27 L316.661 1243.81 L323.375 1242.45 L327.174 1242.45 L327.174 1267.34 L333.381 1267.34 L333.381 1270.53 L317.206 1270.53 L317.206 1267.34 Z" fill="#000000" fill-rule="nonzero" fill-opacity="1" /><path clip-path="url(#clip540)" d="M349.179 1244.96 Q346.245 1244.96 344.76 1247.85 Q343.292 1250.73 343.292 1256.52 Q343.292 1262.3 344.76 1265.19 Q346.245 1268.07 349.179 1268.07 Q352.132 1268.07 353.599 1265.19 Q355.085 1262.3 355.085 1256.52 Q355.085 1250.73 353.599 1247.85 Q352.132 1244.96 349.179 1244.96 M349.179 1241.95 Q353.9 1241.95 356.383 1245.69 Q358.884 1249.41 358.884 1256.52 Q358.884 1263.61 356.383 1267.36 Q353.9 1271.08 349.179 1271.08 Q344.459 1271.08 341.957 1267.36 Q339.475 1263.61 339.475 1256.52 Q339.475 1249.41 341.957 1245.69 Q344.459 1241.95 349.179 1241.95 Z" fill="#000000" fill-rule="nonzero" fill-opacity="1" /><path clip-path="url(#clip540)" d="M131.181 1102.26 Q134.538 1102.97 136.413 1105.24 Q138.311 1107.51 138.311 1110.84 Q138.311 1115.96 134.792 1118.76 Q131.274 1121.56 124.793 1121.56 Q122.617 1121.56 120.302 1121.12 Q118.01 1120.71 115.556 1119.85 L115.556 1115.34 Q117.501 1116.47 119.816 1117.05 Q122.13 1117.63 124.654 1117.63 Q129.052 1117.63 131.343 1115.89 Q133.658 1114.15 133.658 1110.84 Q133.658 1107.79 131.505 1106.08 Q129.376 1104.34 125.556 1104.34 L121.529 1104.34 L121.529 1100.5 L125.742 1100.5 Q129.191 1100.5 131.019 1099.13 Q132.848 1097.74 132.848 1095.15 Q132.848 1092.49 130.95 1091.08 Q129.075 1089.64 125.556 1089.64 Q123.635 1089.64 121.436 1090.06 Q119.237 1090.47 116.598 1091.35 L116.598 1087.19 Q119.26 1086.45 121.575 1086.08 Q123.913 1085.71 125.973 1085.71 Q131.297 1085.71 134.399 1088.14 Q137.501 1090.54 137.501 1094.66 Q137.501 1097.53 135.857 1099.53 Q134.214 1101.49 131.181 1102.26 Z" fill="#000000" fill-rule="nonzero" fill-opacity="1" /><path clip-path="url(#clip540)" d="M147.177 1115.01 L152.061 1115.01 L152.061 1120.89 L147.177 1120.89 L147.177 1115.01 Z" fill="#000000" fill-rule="nonzero" fill-opacity="1" /><path clip-path="url(#clip540)" d="M172.246 1089.41 Q168.635 1089.41 166.806 1092.97 Q165.001 1096.52 165.001 1103.65 Q165.001 1110.75 166.806 1114.32 Q168.635 1117.86 172.246 1117.86 Q175.88 1117.86 177.686 1114.32 Q179.514 1110.75 179.514 1103.65 Q179.514 1096.52 177.686 1092.97 Q175.88 1089.41 172.246 1089.41 M172.246 1085.71 Q178.056 1085.71 181.112 1090.31 Q184.19 1094.9 184.19 1103.65 Q184.19 1112.37 181.112 1116.98 Q178.056 1121.56 172.246 1121.56 Q166.436 1121.56 163.357 1116.98 Q160.302 1112.37 160.302 1103.65 Q160.302 1094.9 163.357 1090.31 Q166.436 1085.71 172.246 1085.71 Z" fill="#000000" fill-rule="nonzero" fill-opacity="1" /><path clip-path="url(#clip540)" d="M220.579 1095.43 L210 1106.05 L220.579 1116.63 L217.824 1119.43 L207.199 1108.81 L196.575 1119.43 L193.843 1116.63 L204.399 1106.05 L193.843 1095.43 L196.575 1092.63 L207.199 1103.25 L217.824 1092.63 L220.579 1095.43 Z" fill="#000000" fill-rule="nonzero" fill-opacity="1" /><path clip-path="url(#clip540)" d="M232.94 1116.96 L240.579 1116.96 L240.579 1090.59 L232.269 1092.26 L232.269 1088 L240.533 1086.33 L245.209 1086.33 L245.209 1116.96 L252.847 1116.96 L252.847 1120.89 L232.94 1120.89 L232.94 1116.96 Z" fill="#000000" fill-rule="nonzero" fill-opacity="1" /><path clip-path="url(#clip540)" d="M272.292 1089.41 Q268.681 1089.41 266.852 1092.97 Q265.046 1096.52 265.046 1103.65 Q265.046 1110.75 266.852 1114.32 Q268.681 1117.86 272.292 1117.86 Q275.926 1117.86 277.732 1114.32 Q279.56 1110.75 279.56 1103.65 Q279.56 1096.52 277.732 1092.97 Q275.926 1089.41 272.292 1089.41 M272.292 1085.71 Q278.102 1085.71 281.157 1090.31 Q284.236 1094.9 284.236 1103.65 Q284.236 1112.37 281.157 1116.98 Q278.102 1121.56 272.292 1121.56 Q266.482 1121.56 263.403 1116.98 Q260.347 1112.37 260.347 1103.65 Q260.347 1094.9 263.403 1090.31 Q266.482 1085.71 272.292 1085.71 Z" fill="#000000" fill-rule="nonzero" fill-opacity="1" /><path clip-path="url(#clip540)" d="M284.236 1079.81 L308.348 1079.81 L308.348 1083 L284.236 1083 L284.236 1079.81 Z" fill="#000000" fill-rule="nonzero" fill-opacity="1" /><path clip-path="url(#clip540)" d="M317.206 1090.28 L323.413 1090.28 L323.413 1068.86 L316.661 1070.22 L316.661 1066.75 L323.375 1065.4 L327.174 1065.4 L327.174 1090.28 L333.381 1090.28 L333.381 1093.48 L317.206 1093.48 L317.206 1090.28 Z" fill="#000000" fill-rule="nonzero" fill-opacity="1" /><path clip-path="url(#clip540)" d="M349.179 1067.9 Q346.245 1067.9 344.76 1070.8 Q343.292 1073.68 343.292 1079.47 Q343.292 1085.24 344.76 1088.14 Q346.245 1091.02 349.179 1091.02 Q352.132 1091.02 353.599 1088.14 Q355.085 1085.24 355.085 1079.47 Q355.085 1073.68 353.599 1070.8 Q352.132 1067.9 349.179 1067.9 M349.179 1064.89 Q353.9 1064.89 356.383 1068.64 Q358.884 1072.36 358.884 1079.47 Q358.884 1086.56 356.383 1090.3 Q353.9 1094.03 349.179 1094.03 Q344.459 1094.03 341.957 1090.3 Q339.475 1086.56 339.475 1079.47 Q339.475 1072.36 341.957 1068.64 Q344.459 1064.89 349.179 1064.89 Z" fill="#000000" fill-rule="nonzero" fill-opacity="1" /><path clip-path="url(#clip540)" d="M129.862 913.35 L118.056 931.799 L129.862 931.799 L129.862 913.35 M128.635 909.276 L134.515 909.276 L134.515 931.799 L139.445 931.799 L139.445 935.688 L134.515 935.688 L134.515 943.836 L129.862 943.836 L129.862 935.688 L114.26 935.688 L114.26 931.174 L128.635 909.276 Z" fill="#000000" fill-rule="nonzero" fill-opacity="1" /><path clip-path="url(#clip540)" d="M147.177 937.957 L152.061 937.957 L152.061 943.836 L147.177 943.836 L147.177 937.957 Z" fill="#000000" fill-rule="nonzero" fill-opacity="1" /><path clip-path="url(#clip540)" d="M172.246 912.355 Q168.635 912.355 166.806 915.92 Q165.001 919.462 165.001 926.591 Q165.001 933.698 166.806 937.262 Q168.635 940.804 172.246 940.804 Q175.88 940.804 177.686 937.262 Q179.514 933.698 179.514 926.591 Q179.514 919.462 177.686 915.92 Q175.88 912.355 172.246 912.355 M172.246 908.651 Q178.056 908.651 181.112 913.258 Q184.19 917.841 184.19 926.591 Q184.19 935.318 181.112 939.924 Q178.056 944.508 172.246 944.508 Q166.436 944.508 163.357 939.924 Q160.302 935.318 160.302 926.591 Q160.302 917.841 163.357 913.258 Q166.436 908.651 172.246 908.651 Z" fill="#000000" fill-rule="nonzero" fill-opacity="1" /><path clip-path="url(#clip540)" d="M220.579 918.374 L210 928.998 L220.579 939.577 L217.824 942.378 L207.199 931.753 L196.575 942.378 L193.843 939.577 L204.399 928.998 L193.843 918.374 L196.575 915.573 L207.199 926.198 L217.824 915.573 L220.579 918.374 Z" fill="#000000" fill-rule="nonzero" fill-opacity="1" /><path clip-path="url(#clip540)" d="M232.94 939.901 L240.579 939.901 L240.579 913.536 L232.269 915.202 L232.269 910.943 L240.533 909.276 L245.209 909.276 L245.209 939.901 L252.847 939.901 L252.847 943.836 L232.94 943.836 L232.94 939.901 Z" fill="#000000" fill-rule="nonzero" fill-opacity="1" /><path clip-path="url(#clip540)" d="M272.292 912.355 Q268.681 912.355 266.852 915.92 Q265.046 919.462 265.046 926.591 Q265.046 933.698 266.852 937.262 Q268.681 940.804 272.292 940.804 Q275.926 940.804 277.732 937.262 Q279.56 933.698 279.56 926.591 Q279.56 919.462 277.732 915.92 Q275.926 912.355 272.292 912.355 M272.292 908.651 Q278.102 908.651 281.157 913.258 Q284.236 917.841 284.236 926.591 Q284.236 935.318 281.157 939.924 Q278.102 944.508 272.292 944.508 Q266.482 944.508 263.403 939.924 Q260.347 935.318 260.347 926.591 Q260.347 917.841 263.403 913.258 Q266.482 908.651 272.292 908.651 Z" fill="#000000" fill-rule="nonzero" fill-opacity="1" /><path clip-path="url(#clip540)" d="M284.236 902.753 L308.348 902.753 L308.348 905.95 L284.236 905.95 L284.236 902.753 Z" fill="#000000" fill-rule="nonzero" fill-opacity="1" /><path clip-path="url(#clip540)" d="M317.206 913.229 L323.413 913.229 L323.413 891.807 L316.661 893.161 L316.661 889.7 L323.375 888.346 L327.174 888.346 L327.174 913.229 L333.381 913.229 L333.381 916.426 L317.206 916.426 L317.206 913.229 Z" fill="#000000" fill-rule="nonzero" fill-opacity="1" /><path clip-path="url(#clip540)" d="M349.179 890.847 Q346.245 890.847 344.76 893.744 Q343.292 896.621 343.292 902.414 Q343.292 908.188 344.76 911.085 Q346.245 913.962 349.179 913.962 Q352.132 913.962 353.599 911.085 Q355.085 908.188 355.085 902.414 Q355.085 896.621 353.599 893.744 Q352.132 890.847 349.179 890.847 M349.179 887.838 Q353.9 887.838 356.383 891.581 Q358.884 895.305 358.884 902.414 Q358.884 909.505 356.383 913.247 Q353.9 916.971 349.179 916.971 Q344.459 916.971 341.957 913.247 Q339.475 909.505 339.475 902.414 Q339.475 895.305 341.957 891.581 Q344.459 887.838 349.179 887.838 Z" fill="#000000" fill-rule="nonzero" fill-opacity="1" /><path clip-path="url(#clip540)" d="M117.061 732.222 L135.417 732.222 L135.417 736.157 L121.343 736.157 L121.343 744.629 Q122.362 744.282 123.38 744.12 Q124.399 743.935 125.418 743.935 Q131.205 743.935 134.584 747.106 Q137.964 750.277 137.964 755.694 Q137.964 761.273 134.492 764.375 Q131.019 767.453 124.7 767.453 Q122.524 767.453 120.255 767.083 Q118.01 766.713 115.603 765.972 L115.603 761.273 Q117.686 762.407 119.908 762.963 Q122.13 763.518 124.607 763.518 Q128.612 763.518 130.95 761.412 Q133.288 759.305 133.288 755.694 Q133.288 752.083 130.95 749.977 Q128.612 747.87 124.607 747.87 Q122.732 747.87 120.857 748.287 Q119.006 748.703 117.061 749.583 L117.061 732.222 Z" fill="#000000" fill-rule="nonzero" fill-opacity="1" /><path clip-path="url(#clip540)" d="M147.177 760.902 L152.061 760.902 L152.061 766.782 L147.177 766.782 L147.177 760.902 Z" fill="#000000" fill-rule="nonzero" fill-opacity="1" /><path clip-path="url(#clip540)" d="M172.246 735.301 Q168.635 735.301 166.806 738.865 Q165.001 742.407 165.001 749.537 Q165.001 756.643 166.806 760.208 Q168.635 763.75 172.246 763.75 Q175.88 763.75 177.686 760.208 Q179.514 756.643 179.514 749.537 Q179.514 742.407 177.686 738.865 Q175.88 735.301 172.246 735.301 M172.246 731.597 Q178.056 731.597 181.112 736.203 Q184.19 740.787 184.19 749.537 Q184.19 758.264 181.112 762.87 Q178.056 767.453 172.246 767.453 Q166.436 767.453 163.357 762.87 Q160.302 758.264 160.302 749.537 Q160.302 740.787 163.357 736.203 Q166.436 731.597 172.246 731.597 Z" fill="#000000" fill-rule="nonzero" fill-opacity="1" /><path clip-path="url(#clip540)" d="M220.579 741.319 L210 751.944 L220.579 762.523 L217.824 765.324 L207.199 754.699 L196.575 765.324 L193.843 762.523 L204.399 751.944 L193.843 741.319 L196.575 738.518 L207.199 749.143 L217.824 738.518 L220.579 741.319 Z" fill="#000000" fill-rule="nonzero" fill-opacity="1" /><path clip-path="url(#clip540)" d="M232.94 762.847 L240.579 762.847 L240.579 736.481 L232.269 738.148 L232.269 733.889 L240.533 732.222 L245.209 732.222 L245.209 762.847 L252.847 762.847 L252.847 766.782 L232.94 766.782 L232.94 762.847 Z" fill="#000000" fill-rule="nonzero" fill-opacity="1" /><path clip-path="url(#clip540)" d="M272.292 735.301 Q268.681 735.301 266.852 738.865 Q265.046 742.407 265.046 749.537 Q265.046 756.643 266.852 760.208 Q268.681 763.75 272.292 763.75 Q275.926 763.75 277.732 760.208 Q279.56 756.643 279.56 749.537 Q279.56 742.407 277.732 738.865 Q275.926 735.301 272.292 735.301 M272.292 731.597 Q278.102 731.597 281.157 736.203 Q284.236 740.787 284.236 749.537 Q284.236 758.264 281.157 762.87 Q278.102 767.453 272.292 767.453 Q266.482 767.453 263.403 762.87 Q260.347 758.264 260.347 749.537 Q260.347 740.787 263.403 736.203 Q266.482 731.597 272.292 731.597 Z" fill="#000000" fill-rule="nonzero" fill-opacity="1" /><path clip-path="url(#clip540)" d="M284.236 725.698 L308.348 725.698 L308.348 728.896 L284.236 728.896 L284.236 725.698 Z" fill="#000000" fill-rule="nonzero" fill-opacity="1" /><path clip-path="url(#clip540)" d="M317.206 736.174 L323.413 736.174 L323.413 714.752 L316.661 716.106 L316.661 712.646 L323.375 711.292 L327.174 711.292 L327.174 736.174 L333.381 736.174 L333.381 739.372 L317.206 739.372 L317.206 736.174 Z" fill="#000000" fill-rule="nonzero" fill-opacity="1" /><path clip-path="url(#clip540)" d="M349.179 713.793 Q346.245 713.793 344.76 716.689 Q343.292 719.567 343.292 725.36 Q343.292 731.134 344.76 734.03 Q346.245 736.908 349.179 736.908 Q352.132 736.908 353.599 734.03 Q355.085 731.134 355.085 725.36 Q355.085 719.567 353.599 716.689 Q352.132 713.793 349.179 713.793 M349.179 710.784 Q353.9 710.784 356.383 714.527 Q358.884 718.25 358.884 725.36 Q358.884 732.45 356.383 736.193 Q353.9 739.917 349.179 739.917 Q344.459 739.917 341.957 736.193 Q339.475 732.45 339.475 725.36 Q339.475 718.25 341.957 714.527 Q344.459 710.784 349.179 710.784 Z" fill="#000000" fill-rule="nonzero" fill-opacity="1" /><path clip-path="url(#clip540)" d="M127.593 570.584 Q124.445 570.584 122.593 572.737 Q120.765 574.89 120.765 578.64 Q120.765 582.367 122.593 584.542 Q124.445 586.695 127.593 586.695 Q130.742 586.695 132.57 584.542 Q134.422 582.367 134.422 578.64 Q134.422 574.89 132.57 572.737 Q130.742 570.584 127.593 570.584 M136.876 555.931 L136.876 560.191 Q135.117 559.357 133.311 558.918 Q131.529 558.478 129.769 558.478 Q125.14 558.478 122.686 561.603 Q120.255 564.728 119.908 571.047 Q121.274 569.033 123.334 567.968 Q125.394 566.88 127.871 566.88 Q133.08 566.88 136.089 570.052 Q139.121 573.2 139.121 578.64 Q139.121 583.964 135.973 587.181 Q132.825 590.399 127.593 590.399 Q121.598 590.399 118.427 585.816 Q115.256 581.209 115.256 572.482 Q115.256 564.288 119.144 559.427 Q123.033 554.543 129.584 554.543 Q131.343 554.543 133.126 554.89 Q134.931 555.237 136.876 555.931 Z" fill="#000000" fill-rule="nonzero" fill-opacity="1" /><path clip-path="url(#clip540)" d="M147.177 583.848 L152.061 583.848 L152.061 589.728 L147.177 589.728 L147.177 583.848 Z" fill="#000000" fill-rule="nonzero" fill-opacity="1" /><path clip-path="url(#clip540)" d="M172.246 558.246 Q168.635 558.246 166.806 561.811 Q165.001 565.353 165.001 572.482 Q165.001 579.589 166.806 583.154 Q168.635 586.695 172.246 586.695 Q175.88 586.695 177.686 583.154 Q179.514 579.589 179.514 572.482 Q179.514 565.353 177.686 561.811 Q175.88 558.246 172.246 558.246 M172.246 554.543 Q178.056 554.543 181.112 559.149 Q184.19 563.732 184.19 572.482 Q184.19 581.209 181.112 585.816 Q178.056 590.399 172.246 590.399 Q166.436 590.399 163.357 585.816 Q160.302 581.209 160.302 572.482 Q160.302 563.732 163.357 559.149 Q166.436 554.543 172.246 554.543 Z" fill="#000000" fill-rule="nonzero" fill-opacity="1" /><path clip-path="url(#clip540)" d="M220.579 564.265 L210 574.89 L220.579 585.468 L217.824 588.269 L207.199 577.644 L196.575 588.269 L193.843 585.468 L204.399 574.89 L193.843 564.265 L196.575 561.464 L207.199 572.089 L217.824 561.464 L220.579 564.265 Z" fill="#000000" fill-rule="nonzero" fill-opacity="1" /><path clip-path="url(#clip540)" d="M232.94 585.792 L240.579 585.792 L240.579 559.427 L232.269 561.093 L232.269 556.834 L240.533 555.168 L245.209 555.168 L245.209 585.792 L252.847 585.792 L252.847 589.728 L232.94 589.728 L232.94 585.792 Z" fill="#000000" fill-rule="nonzero" fill-opacity="1" /><path clip-path="url(#clip540)" d="M272.292 558.246 Q268.681 558.246 266.852 561.811 Q265.046 565.353 265.046 572.482 Q265.046 579.589 266.852 583.154 Q268.681 586.695 272.292 586.695 Q275.926 586.695 277.732 583.154 Q279.56 579.589 279.56 572.482 Q279.56 565.353 277.732 561.811 Q275.926 558.246 272.292 558.246 M272.292 554.543 Q278.102 554.543 281.157 559.149 Q284.236 563.732 284.236 572.482 Q284.236 581.209 281.157 585.816 Q278.102 590.399 272.292 590.399 Q266.482 590.399 263.403 585.816 Q260.347 581.209 260.347 572.482 Q260.347 563.732 263.403 559.149 Q266.482 554.543 272.292 554.543 Z" fill="#000000" fill-rule="nonzero" fill-opacity="1" /><path clip-path="url(#clip540)" d="M284.236 548.644 L308.348 548.644 L308.348 551.841 L284.236 551.841 L284.236 548.644 Z" fill="#000000" fill-rule="nonzero" fill-opacity="1" /><path clip-path="url(#clip540)" d="M317.206 559.12 L323.413 559.12 L323.413 537.698 L316.661 539.052 L316.661 535.591 L323.375 534.237 L327.174 534.237 L327.174 559.12 L333.381 559.12 L333.381 562.317 L317.206 562.317 L317.206 559.12 Z" fill="#000000" fill-rule="nonzero" fill-opacity="1" /><path clip-path="url(#clip540)" d="M349.179 536.739 Q346.245 536.739 344.76 539.635 Q343.292 542.513 343.292 548.305 Q343.292 554.079 344.76 556.976 Q346.245 559.853 349.179 559.853 Q352.132 559.853 353.599 556.976 Q355.085 554.079 355.085 548.305 Q355.085 542.513 353.599 539.635 Q352.132 536.739 349.179 536.739 M349.179 533.729 Q353.9 533.729 356.383 537.472 Q358.884 541.196 358.884 548.305 Q358.884 555.396 356.383 559.139 Q353.9 562.863 349.179 562.863 Q344.459 562.863 341.957 559.139 Q339.475 555.396 339.475 548.305 Q339.475 541.196 341.957 537.472 Q344.459 533.729 349.179 533.729 Z" fill="#000000" fill-rule="nonzero" fill-opacity="1" /><path clip-path="url(#clip540)" d="M115.834 378.113 L138.056 378.113 L138.056 380.104 L125.51 412.673 L120.626 412.673 L132.431 382.048 L115.834 382.048 L115.834 378.113 Z" fill="#000000" fill-rule="nonzero" fill-opacity="1" /><path clip-path="url(#clip540)" d="M147.177 406.794 L152.061 406.794 L152.061 412.673 L147.177 412.673 L147.177 406.794 Z" fill="#000000" fill-rule="nonzero" fill-opacity="1" /><path clip-path="url(#clip540)" d="M172.246 381.192 Q168.635 381.192 166.806 384.757 Q165.001 388.298 165.001 395.428 Q165.001 402.534 166.806 406.099 Q168.635 409.641 172.246 409.641 Q175.88 409.641 177.686 406.099 Q179.514 402.534 179.514 395.428 Q179.514 388.298 177.686 384.757 Q175.88 381.192 172.246 381.192 M172.246 377.488 Q178.056 377.488 181.112 382.095 Q184.19 386.678 184.19 395.428 Q184.19 404.155 181.112 408.761 Q178.056 413.344 172.246 413.344 Q166.436 413.344 163.357 408.761 Q160.302 404.155 160.302 395.428 Q160.302 386.678 163.357 382.095 Q166.436 377.488 172.246 377.488 Z" fill="#000000" fill-rule="nonzero" fill-opacity="1" /><path clip-path="url(#clip540)" d="M220.579 387.21 L210 397.835 L220.579 408.414 L217.824 411.215 L207.199 400.59 L196.575 411.215 L193.843 408.414 L204.399 397.835 L193.843 387.21 L196.575 384.409 L207.199 395.034 L217.824 384.409 L220.579 387.21 Z" fill="#000000" fill-rule="nonzero" fill-opacity="1" /><path clip-path="url(#clip540)" d="M232.94 408.738 L240.579 408.738 L240.579 382.372 L232.269 384.039 L232.269 379.78 L240.533 378.113 L245.209 378.113 L245.209 408.738 L252.847 408.738 L252.847 412.673 L232.94 412.673 L232.94 408.738 Z" fill="#000000" fill-rule="nonzero" fill-opacity="1" /><path clip-path="url(#clip540)" d="M272.292 381.192 Q268.681 381.192 266.852 384.757 Q265.046 388.298 265.046 395.428 Q265.046 402.534 266.852 406.099 Q268.681 409.641 272.292 409.641 Q275.926 409.641 277.732 406.099 Q279.56 402.534 279.56 395.428 Q279.56 388.298 277.732 384.757 Q275.926 381.192 272.292 381.192 M272.292 377.488 Q278.102 377.488 281.157 382.095 Q284.236 386.678 284.236 395.428 Q284.236 404.155 281.157 408.761 Q278.102 413.344 272.292 413.344 Q266.482 413.344 263.403 408.761 Q260.347 404.155 260.347 395.428 Q260.347 386.678 263.403 382.095 Q266.482 377.488 272.292 377.488 Z" fill="#000000" fill-rule="nonzero" fill-opacity="1" /><path clip-path="url(#clip540)" d="M284.236 371.59 L308.348 371.59 L308.348 374.787 L284.236 374.787 L284.236 371.59 Z" fill="#000000" fill-rule="nonzero" fill-opacity="1" /><path clip-path="url(#clip540)" d="M317.206 382.065 L323.413 382.065 L323.413 360.643 L316.661 361.998 L316.661 358.537 L323.375 357.183 L327.174 357.183 L327.174 382.065 L333.381 382.065 L333.381 385.263 L317.206 385.263 L317.206 382.065 Z" fill="#000000" fill-rule="nonzero" fill-opacity="1" /><path clip-path="url(#clip540)" d="M349.179 359.684 Q346.245 359.684 344.76 362.581 Q343.292 365.458 343.292 371.251 Q343.292 377.025 344.76 379.921 Q346.245 382.799 349.179 382.799 Q352.132 382.799 353.599 379.921 Q355.085 377.025 355.085 371.251 Q355.085 365.458 353.599 362.581 Q352.132 359.684 349.179 359.684 M349.179 356.675 Q353.9 356.675 356.383 360.418 Q358.884 364.142 358.884 371.251 Q358.884 378.342 356.383 382.084 Q353.9 385.808 349.179 385.808 Q344.459 385.808 341.957 382.084 Q339.475 378.342 339.475 371.251 Q339.475 364.142 341.957 360.418 Q344.459 356.675 349.179 356.675 Z" fill="#000000" fill-rule="nonzero" fill-opacity="1" /><path clip-path="url(#clip540)" d="M127.015 219.207 Q123.681 219.207 121.76 220.989 Q119.862 222.772 119.862 225.897 Q119.862 229.022 121.76 230.804 Q123.681 232.586 127.015 232.586 Q130.348 232.586 132.269 230.804 Q134.191 228.998 134.191 225.897 Q134.191 222.772 132.269 220.989 Q130.371 219.207 127.015 219.207 M122.339 217.216 Q119.33 216.475 117.64 214.415 Q115.973 212.355 115.973 209.392 Q115.973 205.249 118.913 202.841 Q121.876 200.434 127.015 200.434 Q132.177 200.434 135.117 202.841 Q138.056 205.249 138.056 209.392 Q138.056 212.355 136.367 214.415 Q134.7 216.475 131.714 217.216 Q135.093 218.003 136.968 220.295 Q138.867 222.586 138.867 225.897 Q138.867 230.92 135.788 233.605 Q132.732 236.29 127.015 236.29 Q121.297 236.29 118.218 233.605 Q115.163 230.92 115.163 225.897 Q115.163 222.586 117.061 220.295 Q118.959 218.003 122.339 217.216 M120.626 209.832 Q120.626 212.517 122.293 214.022 Q123.982 215.526 127.015 215.526 Q130.024 215.526 131.714 214.022 Q133.427 212.517 133.427 209.832 Q133.427 207.147 131.714 205.642 Q130.024 204.137 127.015 204.137 Q123.982 204.137 122.293 205.642 Q120.626 207.147 120.626 209.832 Z" fill="#000000" fill-rule="nonzero" fill-opacity="1" /><path clip-path="url(#clip540)" d="M147.177 229.739 L152.061 229.739 L152.061 235.619 L147.177 235.619 L147.177 229.739 Z" fill="#000000" fill-rule="nonzero" fill-opacity="1" /><path clip-path="url(#clip540)" d="M172.246 204.137 Q168.635 204.137 166.806 207.702 Q165.001 211.244 165.001 218.374 Q165.001 225.48 166.806 229.045 Q168.635 232.586 172.246 232.586 Q175.88 232.586 177.686 229.045 Q179.514 225.48 179.514 218.374 Q179.514 211.244 177.686 207.702 Q175.88 204.137 172.246 204.137 M172.246 200.434 Q178.056 200.434 181.112 205.04 Q184.19 209.624 184.19 218.374 Q184.19 227.1 181.112 231.707 Q178.056 236.29 172.246 236.29 Q166.436 236.29 163.357 231.707 Q160.302 227.1 160.302 218.374 Q160.302 209.624 163.357 205.04 Q166.436 200.434 172.246 200.434 Z" fill="#000000" fill-rule="nonzero" fill-opacity="1" /><path clip-path="url(#clip540)" d="M220.579 210.156 L210 220.781 L220.579 231.36 L217.824 234.16 L207.199 223.536 L196.575 234.16 L193.843 231.36 L204.399 220.781 L193.843 210.156 L196.575 207.355 L207.199 217.98 L217.824 207.355 L220.579 210.156 Z" fill="#000000" fill-rule="nonzero" fill-opacity="1" /><path clip-path="url(#clip540)" d="M232.94 231.684 L240.579 231.684 L240.579 205.318 L232.269 206.985 L232.269 202.725 L240.533 201.059 L245.209 201.059 L245.209 231.684 L252.847 231.684 L252.847 235.619 L232.94 235.619 L232.94 231.684 Z" fill="#000000" fill-rule="nonzero" fill-opacity="1" /><path clip-path="url(#clip540)" d="M272.292 204.137 Q268.681 204.137 266.852 207.702 Q265.046 211.244 265.046 218.374 Q265.046 225.48 266.852 229.045 Q268.681 232.586 272.292 232.586 Q275.926 232.586 277.732 229.045 Q279.56 225.48 279.56 218.374 Q279.56 211.244 277.732 207.702 Q275.926 204.137 272.292 204.137 M272.292 200.434 Q278.102 200.434 281.157 205.04 Q284.236 209.624 284.236 218.374 Q284.236 227.1 281.157 231.707 Q278.102 236.29 272.292 236.29 Q266.482 236.29 263.403 231.707 Q260.347 227.1 260.347 218.374 Q260.347 209.624 263.403 205.04 Q266.482 200.434 272.292 200.434 Z" fill="#000000" fill-rule="nonzero" fill-opacity="1" /><path clip-path="url(#clip540)" d="M284.236 194.535 L308.348 194.535 L308.348 197.732 L284.236 197.732 L284.236 194.535 Z" fill="#000000" fill-rule="nonzero" fill-opacity="1" /><path clip-path="url(#clip540)" d="M317.206 205.011 L323.413 205.011 L323.413 183.589 L316.661 184.943 L316.661 181.483 L323.375 180.128 L327.174 180.128 L327.174 205.011 L333.381 205.011 L333.381 208.208 L317.206 208.208 L317.206 205.011 Z" fill="#000000" fill-rule="nonzero" fill-opacity="1" /><path clip-path="url(#clip540)" d="M349.179 182.63 Q346.245 182.63 344.76 185.526 Q343.292 188.404 343.292 194.197 Q343.292 199.971 344.76 202.867 Q346.245 205.745 349.179 205.745 Q352.132 205.745 353.599 202.867 Q355.085 199.971 355.085 194.197 Q355.085 188.404 353.599 185.526 Q352.132 182.63 349.179 182.63 M349.179 179.621 Q353.9 179.621 356.383 183.363 Q358.884 187.087 358.884 194.197 Q358.884 201.287 356.383 205.03 Q353.9 208.754 349.179 208.754 Q344.459 208.754 341.957 205.03 Q339.475 201.287 339.475 194.197 Q339.475 187.087 341.957 183.363 Q344.459 179.621 349.179 179.621 Z" fill="#000000" fill-rule="nonzero" fill-opacity="1" /><path clip-path="url(#clip540)" d="M14.479 902.328 L14.479 896.471 L64.0042 896.471 L64.0042 902.328 L14.479 902.328 Z" fill="#000000" fill-rule="nonzero" fill-opacity="1" /><path clip-path="url(#clip540)" d="M14.5426 870.149 Q21.8632 874.414 29.0246 876.483 Q36.186 878.552 43.5384 878.552 Q50.8908 878.552 58.1159 876.483 Q65.3091 874.382 72.5979 870.149 L72.5979 875.242 Q65.1182 880.016 57.8931 882.403 Q50.668 884.758 43.5384 884.758 Q36.4406 884.758 29.2474 882.403 Q22.0542 880.048 14.5426 875.242 L14.5426 870.149 Z" fill="#000000" fill-rule="nonzero" fill-opacity="1" /><path clip-path="url(#clip540)" d="M14.479 858.786 L14.479 852.93 L64.0042 852.93 L64.0042 858.786 L14.479 858.786 Z" fill="#000000" fill-rule="nonzero" fill-opacity="1" /><path clip-path="url(#clip540)" d="M23.1363 816.836 L40.8648 816.836 L40.8648 799.108 L46.2757 799.108 L46.2757 816.836 L64.0042 816.836 L64.0042 822.183 L46.2757 822.183 L46.2757 839.912 L40.8648 839.912 L40.8648 822.183 L23.1363 822.183 L23.1363 816.836 Z" fill="#000000" fill-rule="nonzero" fill-opacity="1" /><path clip-path="url(#clip540)" d="M58.5933 784.117 L58.5933 773.613 L22.3406 773.613 L24.6323 785.04 L18.7758 785.04 L16.4842 773.677 L16.4842 767.247 L58.5933 767.247 L58.5933 756.744 L64.0042 756.744 L64.0042 784.117 L58.5933 784.117 Z" fill="#000000" fill-rule="nonzero" fill-opacity="1" /><path clip-path="url(#clip540)" d="M14.5426 745.508 L14.5426 740.416 Q22.0542 735.642 29.2474 733.286 Q36.4406 730.899 43.5384 730.899 Q50.668 730.899 57.8931 733.286 Q65.1182 735.642 72.5979 740.416 L72.5979 745.508 Q65.3091 741.275 58.1159 739.206 Q50.8908 737.106 43.5384 737.106 Q36.186 737.106 29.0246 739.206 Q21.8632 741.275 14.5426 745.508 Z" fill="#000000" fill-rule="nonzero" fill-opacity="1" /><path clip-path="url(#clip540)" d="M20.1444 683.316 L26.9239 683.316 Q23.9002 686.562 22.4043 690.254 Q20.9083 693.914 20.9083 698.052 Q20.9083 706.2 25.9054 710.529 Q30.8707 714.858 40.2919 714.858 Q49.6813 714.858 54.6784 710.529 Q59.6436 706.2 59.6436 698.052 Q59.6436 693.914 58.1477 690.254 Q56.6518 686.562 53.6281 683.316 L60.3439 683.316 Q62.6355 686.689 63.7814 690.477 Q64.9272 694.233 64.9272 698.434 Q64.9272 709.224 58.3387 715.431 Q51.7183 721.637 40.2919 721.637 Q28.8336 721.637 22.2451 715.431 Q15.6248 709.224 15.6248 698.434 Q15.6248 694.169 16.7706 690.413 Q17.8846 686.626 20.1444 683.316 Z" fill="#000000" fill-rule="nonzero" fill-opacity="1" /><path clip-path="url(#clip540)" d="M36.2815 675.899 L36.2815 672.207 L64.0042 672.207 L64.0042 675.899 L36.2815 675.899 Z" fill="#000000" fill-rule="nonzero" fill-opacity="1" /><path clip-path="url(#clip540)" d="M16.4842 652.41 L16.4842 646.999 L70.0516 663.55 L70.0516 668.961 L16.4842 652.41 Z" fill="#000000" fill-rule="nonzero" fill-opacity="1" /><path clip-path="url(#clip540)" d="M58.5933 634.491 L58.5933 612.051 L64.0042 612.051 L64.0042 642.225 L58.5933 642.225 Q54.8057 638.565 48.44 632.263 Q42.0425 625.929 40.1964 624.305 Q36.7271 621.218 34.34 620.009 Q31.921 618.767 29.5975 618.767 Q25.8099 618.767 23.4228 621.441 Q21.0356 624.083 21.0356 628.348 Q21.0356 631.371 22.086 634.745 Q23.1363 638.087 25.2688 641.907 L18.7758 641.907 Q17.2162 638.024 16.4205 634.65 Q15.6248 631.276 15.6248 628.475 Q15.6248 621.091 19.3169 616.698 Q23.009 612.306 29.1837 612.306 Q32.112 612.306 34.7537 613.42 Q37.3637 614.502 40.9285 617.399 Q41.8515 618.194 46.2757 622.459 Q50.668 626.724 58.5933 634.491 Z" fill="#000000" fill-rule="nonzero" fill-opacity="1" /><path clip-path="url(#clip540)" d="M28.3562 603.171 L28.3562 569.019 L34.2127 569.019 L34.2127 573.507 L56.1107 573.507 Q58.4023 573.507 59.4208 572.743 Q60.4075 571.948 60.4075 570.197 Q60.4075 569.72 60.3439 569.019 Q60.2484 568.319 60.2166 568.096 L64.4498 568.096 Q64.8635 569.21 65.0545 570.388 Q65.2455 571.566 65.2455 572.743 Q65.2455 576.563 63.1766 578.027 Q61.0759 579.491 55.4741 579.491 L34.2127 579.491 L34.2127 592.636 L64.0042 592.636 L64.0042 598.62 L34.2127 598.62 L34.2127 603.171 L28.3562 603.171 Z" fill="#000000" fill-rule="nonzero" fill-opacity="1" /><path clip-path="url(#clip541)" d="M450.296 1384.24 L452.22 1377.26 L454.144 1370.53 L456.068 1364.06 L457.992 1357.85 L459.916 1351.9 L461.84 1346.22 L463.764 1340.81 L465.688 1335.65 L467.612 1330.73 L469.536 1326.06 L471.46 1321.6 L473.384 1317.35 L475.308 1313.27 L477.232 1309.34 L479.156 1305.53 L481.08 1301.81 L483.004 1298.13 L484.928 1294.44 L486.852 1290.71 L488.776 1286.87 L490.7 1282.87 L492.624 1278.7 L494.548 1274.35 L496.472 1269.79 L498.396 1265.04 L500.32 1260.07 L502.244 1254.89 L504.168 1249.5 L506.092 1243.9 L508.016 1238.1 L509.94 1232.09 L511.864 1225.89 L513.788 1219.52 L515.712 1212.98 L517.636 1206.31 L519.56 1199.51 L521.484 1192.62 L523.408 1185.67 L525.332 1178.69 L527.256 1171.72 L529.18 1164.79 L531.104 1157.91 L533.028 1151.08 L534.952 1144.29 L536.876 1137.55 L538.8 1130.84 L540.724 1124.16 L542.648 1117.52 L544.572 1110.9 L546.496 1104.29 L548.42 1097.71 L550.344 1091.13 L552.268 1084.55 L554.192 1077.96 L556.116 1071.36 L558.04 1064.73 L559.964 1058.07 L561.888 1051.38 L563.812 1044.63 L565.736 1037.81 L567.66 1030.93 L569.584 1023.97 L571.508 1016.94 L573.432 1009.83 L575.356 1002.65 L577.28 995.405 L579.204 988.086 L581.128 980.699 L583.052 973.247 L584.976 965.732 L586.9 958.158 L588.824 950.529 L590.748 942.847 L592.672 935.119 L594.596 927.348 L596.52 919.541 L598.444 911.704 L600.368 903.843 L602.292 895.965 L604.216 888.079 L606.14 880.19 L608.064 872.301 L609.988 864.412 L611.912 856.522 L613.836 848.633 L615.76 840.744 L617.684 832.856 L619.608 824.97 L621.532 817.084 L623.456 809.2 L625.38 801.319 L627.304 793.44 L629.228 785.564 L631.152 777.691 L633.076 769.822 L635 761.957 L636.924 754.097 L638.849 746.242 L640.773 738.394 L642.697 730.552 L644.621 722.717 L646.545 714.891 L648.469 707.075 L650.393 699.271 L652.317 691.48 L654.241 683.703 L656.165 675.944 L658.089 668.203 L660.013 660.483 L661.937 652.786 L663.861 645.113 L665.785 637.468 L667.709 629.852 L669.633 622.267 L671.557 614.718 L673.481 607.205 L675.405 599.732 L677.329 592.302 L679.253 584.917 L681.177 577.581 L683.101 570.296 L685.025 563.065 L686.949 555.889 L688.873 548.768 L690.797 541.705 L692.721 534.701 L694.645 527.758 L696.569 520.876 L698.493 514.058 L700.417 507.304 L702.341 500.617 L704.265 493.998 L706.189 487.449 L708.113 480.971 L710.037 474.565 L711.961 468.235 L713.885 461.981 L715.809 455.804 L717.733 449.708 L719.657 443.693 L721.581 437.761 L723.505 431.913 L725.429 426.152 L727.353 420.479 L729.277 414.894 L731.201 409.4 L733.125 403.998 L735.049 398.689 L736.973 393.475 L738.897 388.357 L740.821 383.337 L742.745 378.417 L744.669 373.597 L746.593 368.879 L748.517 364.265 L750.441 359.757 L752.365 355.356 L754.289 351.063 L756.213 346.88 L758.137 342.809 L760.061 338.851 L761.985 335.007 L763.909 331.278 L765.833 327.666 L767.757 324.17 L769.681 320.791 L771.605 317.531 L773.529 314.391 L775.453 311.37 L777.377 308.47 L779.301 305.692 L781.225 303.036 L783.149 300.502 L785.073 298.093 L786.997 295.808 L788.921 293.647 L790.845 291.613 L792.769 289.704 L794.693 287.922 L796.617 286.268 L798.541 284.742 L800.465 283.343 L802.389 282.074 L804.313 280.933 L806.237 279.921 L808.161 279.039 L810.085 278.287 L812.009 277.664 L813.933 277.172 L815.857 276.809 L817.781 276.577 L819.705 276.475 L821.629 276.504 L823.553 276.663 L825.477 276.952 L827.401 277.372 L829.325 277.922 L831.249 278.602 L833.173 279.412 L835.097 280.352 L837.021 281.422 L838.945 282.621 L840.869 283.949 L842.793 285.406 L844.717 286.991 L846.641 288.703 L848.566 290.542 L850.49 292.508 L852.414 294.6 L854.338 296.816 L856.262 299.158 L858.186 301.623 L860.11 304.211 L862.034 306.922 L863.958 309.754 L865.882 312.706 L867.806 315.778 L869.73 318.969 L871.654 322.277 L873.578 325.702 L875.502 329.243 L877.426 332.897 L879.35 336.666 L881.274 340.547 L883.198 344.539 L885.122 348.641 L887.046 352.853 L888.97 357.172 L890.894 361.598 L892.818 366.129 L894.742 370.765 L896.666 375.503 L898.59 380.342 L900.514 385.281 L902.438 390.318 L904.362 395.452 L906.286 400.681 L908.21 406.004 L910.134 411.419 L912.058 416.924 L913.982 422.517 L915.906 428.198 L917.83 433.964 L919.754 439.814 L921.678 445.747 L923.602 451.76 L925.526 457.853 L927.45 464.023 L929.374 470.269 L931.298 476.589 L933.222 482.981 L935.146 489.443 L937.07 495.974 L938.994 502.572 L940.918 509.234 L942.842 515.959 L944.766 522.745 L946.69 529.59 L948.614 536.491 L950.538 543.447 L952.462 550.455 L954.386 557.514 L956.31 564.622 L958.234 571.777 L960.158 578.977 L962.082 586.22 L964.006 593.505 L965.93 600.829 L967.854 608.191 L969.778 615.589 L971.702 623.02 L973.626 630.483 L975.55 637.976 L977.474 645.495 L979.398 653.041 L981.322 660.61 L983.246 668.199 L985.17 675.808 L987.094 683.434 L989.018 691.074 L990.942 698.726 L992.866 706.389 L994.79 714.06 L996.714 721.738 L998.638 729.421 L1000.56 737.108 L1002.49 744.795 L1004.41 752.482 L1006.33 760.166 L1008.26 767.846 L1010.18 775.519 L1012.11 783.184 L1014.03 790.838 L1015.95 798.48 L1017.88 806.108 L1019.8 813.719 L1021.73 821.312 L1023.65 828.885 L1025.57 836.435 L1027.5 843.96 L1029.42 851.459 L1031.35 858.93 L1033.27 866.371 L1035.19 873.781 L1037.12 881.157 L1039.04 888.499 L1040.97 895.805 L1042.89 903.073 L1044.81 910.301 L1046.74 917.489 L1048.66 924.634 L1050.59 931.734 L1052.51 938.789 L1054.43 945.797 L1056.36 952.756 L1058.28 959.663 L1060.21 966.519 L1062.13 973.321 L1064.05 980.067 L1065.98 986.756 L1067.9 993.387 L1069.83 999.958 L1071.75 1006.47 L1073.67 1012.91 L1075.6 1019.3 L1077.52 1025.62 L1079.45 1031.87 L1081.37 1038.06 L1083.29 1044.17 L1085.22 1050.22 L1087.14 1056.2 L1089.07 1062.11 L1090.99 1067.94 L1092.91 1073.7 L1094.84 1079.39 L1096.76 1085 L1098.69 1090.53 L1100.61 1095.99 L1102.53 1101.36 L1104.46 1106.66 L1106.38 1111.87 L1108.31 1117 L1110.23 1122.05 L1112.15 1127.02 L1114.08 1131.9 L1116 1136.7 L1117.93 1141.42 L1119.85 1146.05 L1121.77 1150.59 L1123.7 1155.05 L1125.62 1159.41 L1127.55 1163.7 L1129.47 1167.89 L1131.39 1172 L1133.32 1176.01 L1135.24 1179.94 L1137.17 1183.78 L1139.09 1187.52 L1141.01 1191.18 L1142.94 1194.75 L1144.86 1198.23 L1146.79 1201.61 L1148.71 1204.9 L1150.63 1208.11 L1152.56 1211.22 L1154.48 1214.24 L1156.41 1217.17 L1158.33 1220.01 L1160.25 1222.75 L1162.18 1225.41 L1164.1 1227.98 L1166.03 1230.45 L1167.95 1232.83 L1169.88 1235.13 L1171.8 1237.33 L1173.72 1239.44 L1175.65 1241.47 L1177.57 1243.4 L1179.5 1245.25 L1181.42 1247.01 L1183.34 1248.68 L1185.27 1250.26 L1187.19 1251.75 L1189.12 1253.16 L1191.04 1254.48 L1192.96 1255.72 L1194.89 1256.87 L1196.81 1257.93 L1198.74 1258.91 L1200.66 1259.81 L1202.58 1260.63 L1204.51 1261.36 L1206.43 1262.01 L1208.36 1262.58 L1210.28 1263.07 L1212.2 1263.49 L1214.13 1263.82 L1216.05 1264.08 L1217.98 1264.26 L1219.9 1264.36 L1221.82 1264.4 L1223.75 1264.35 L1225.67 1264.24 L1227.6 1264.05 L1229.52 1263.8 L1231.44 1263.47 L1233.37 1263.08 L1235.29 1262.61 L1237.22 1262.08 L1239.14 1261.48 L1241.06 1260.82 L1242.99 1260.1 L1244.91 1259.31 L1246.84 1258.46 L1248.76 1257.55 L1250.68 1256.59 L1252.61 1255.56 L1254.53 1254.48 L1256.46 1253.34 L1258.38 1252.15 L1260.3 1250.91 L1262.23 1249.61 L1264.15 1248.27 L1266.08 1246.88 L1268 1245.44 L1269.92 1243.95 L1271.85 1242.42 L1273.77 1240.84 L1275.7 1239.22 L1277.62 1237.56 L1279.54 1235.85 L1281.47 1234.11 L1283.39 1232.33 L1285.32 1230.52 L1287.24 1228.66 L1289.16 1226.78 L1291.09 1224.86 L1293.01 1222.92 L1294.94 1220.94 L1296.86 1218.93 L1298.78 1216.9 L1300.71 1214.85 L1302.63 1212.77 L1304.56 1210.67 L1306.48 1208.55 L1308.4 1206.4 L1310.33 1204.24 L1312.25 1202.06 L1314.18 1199.87 L1316.1 1197.66 L1318.02 1195.43 L1319.95 1193.19 L1321.87 1190.95 L1323.8 1188.69 L1325.72 1186.42 L1327.64 1184.15 L1329.57 1181.87 L1331.49 1179.58 L1333.42 1177.3 L1335.34 1175.01 L1337.26 1172.72 L1339.19 1170.44 L1341.11 1168.15 L1343.04 1165.87 L1344.96 1163.6 L1346.88 1161.33 L1348.81 1159.06 L1350.73 1156.81 L1352.66 1154.56 L1354.58 1152.32 L1356.5 1150.1 L1358.43 1147.88 L1360.35 1145.68 L1362.28 1143.5 L1364.2 1141.33 L1366.12 1139.17 L1368.05 1137.04 L1369.97 1134.92 L1371.9 1132.82 L1373.82 1130.75 L1375.74 1128.7 L1377.67 1126.67 L1379.59 1124.67 L1381.52 1122.69 L1383.44 1120.74 L1385.36 1118.81 L1387.29 1116.91 L1389.21 1115.04 L1391.14 1113.2 L1393.06 1111.39 L1394.98 1109.61 L1396.91 1107.86 L1398.83 1106.15 L1400.76 1104.46 L1402.68 1102.81 L1404.6 1101.2 L1406.53 1099.62 L1408.45 1098.08 L1410.38 1096.57 L1412.3 1095.1 L1414.22 1093.68 L1416.15 1092.29 L1418.07 1090.94 L1420 1089.63 L1421.92 1088.36 L1423.84 1087.13 L1425.77 1085.94 L1427.69 1084.8 L1429.62 1083.69 L1431.54 1082.63 L1433.46 1081.61 L1435.39 1080.64 L1437.31 1079.71 L1439.24 1078.82 L1441.16 1077.97 L1443.08 1077.17 L1445.01 1076.42 L1446.93 1075.71 L1448.86 1075.05 L1450.78 1074.43 L1452.7 1073.86 L1454.63 1073.33 L1456.55 1072.86 L1458.48 1072.42 L1460.4 1072.04 L1462.32 1071.7 L1464.25 1071.41 L1466.17 1071.16 L1468.1 1070.96 L1470.02 1070.8 L1471.94 1070.7 L1473.87 1070.64 L1475.79 1070.62 L1477.72 1070.65 L1479.64 1070.73 L1481.56 1070.85 L1483.49 1071.01 L1485.41 1071.23 L1487.34 1071.49 L1489.26 1071.79 L1491.18 1072.14 L1493.11 1072.53 L1495.03 1072.97 L1496.96 1073.45 L1498.88 1073.98 L1500.8 1074.55 L1502.73 1075.16 L1504.65 1075.82 L1506.58 1076.52 L1508.5 1077.26 L1510.42 1078.04 L1512.35 1078.86 L1514.27 1079.72 L1516.2 1080.62 L1518.12 1081.56 L1520.04 1082.54 L1521.97 1083.56 L1523.89 1084.62 L1525.82 1085.71 L1527.74 1086.84 L1529.66 1088.01 L1531.59 1089.21 L1533.51 1090.45 L1535.44 1091.72 L1537.36 1093.02 L1539.28 1094.36 L1541.21 1095.73 L1543.13 1097.14 L1545.06 1098.57 L1546.98 1100.03 L1548.9 1101.53 L1550.83 1103.05 L1552.75 1104.6 L1554.68 1106.18 L1556.6 1107.78 L1558.52 1109.41 L1560.45 1111.07 L1562.37 1112.75 L1564.3 1114.45 L1566.22 1116.18 L1568.14 1117.93 L1570.07 1119.7 L1571.99 1121.49 L1573.92 1123.3 L1575.84 1125.12 L1577.76 1126.97 L1579.69 1128.83 L1581.61 1130.71 L1583.54 1132.6 L1585.46 1134.51 L1587.39 1136.44 L1589.31 1138.37 L1591.23 1140.32 L1593.16 1142.28 L1595.08 1144.25 L1597.01 1146.22 L1598.93 1148.21 L1600.85 1150.2 L1602.78 1152.2 L1604.7 1154.21 L1606.63 1156.22 L1608.55 1158.23 L1610.47 1160.25 L1612.4 1162.26 L1614.32 1164.28 L1616.25 1166.3 L1618.17 1168.32 L1620.09 1170.34 L1622.02 1172.36 L1623.94 1174.37 L1625.87 1176.38 L1627.79 1178.39 L1629.71 1180.39 L1631.64 1182.39 L1633.56 1184.37 L1635.49 1186.35 L1637.41 1188.32 L1639.33 1190.28 L1641.26 1192.23 L1643.18 1194.17 L1645.11 1196.09 L1647.03 1198.01 L1648.95 1199.9 L1650.88 1201.79 L1652.8 1203.65 L1654.73 1205.51 L1656.65 1207.34 L1658.57 1209.16 L1660.5 1210.96 L1662.42 1212.74 L1664.35 1214.5 L1666.27 1216.24 L1668.19 1217.96 L1670.12 1219.66 L1672.04 1221.34 L1673.97 1222.99 L1675.89 1224.62 L1677.81 1226.22 L1679.74 1227.8 L1681.66 1229.36 L1683.59 1230.88 L1685.51 1232.38 L1687.43 1233.85 L1689.36 1235.3 L1691.28 1236.71 L1693.21 1238.1 L1695.13 1239.45 L1697.05 1240.78 L1698.98 1242.07 L1700.9 1243.34 L1702.83 1244.57 L1704.75 1245.77 L1706.67 1246.94 L1708.6 1248.08 L1710.52 1249.18 L1712.45 1250.25 L1714.37 1251.29 L1716.29 1252.29 L1718.22 1253.25 L1720.14 1254.18 L1722.07 1255.08 L1723.99 1255.94 L1725.91 1256.76 L1727.84 1257.54 L1729.76 1258.29 L1731.69 1259 L1733.61 1259.68 L1735.53 1260.31 L1737.46 1260.91 L1739.38 1261.48 L1741.31 1262 L1743.23 1262.49 L1745.15 1262.94 L1747.08 1263.35 L1749 1263.72 L1750.93 1264.06 L1752.85 1264.36 L1754.77 1264.61 L1756.7 1264.83 L1758.62 1265.01 L1760.55 1265.16 L1762.47 1265.26 L1764.39 1265.32 L1766.32 1265.35 L1768.24 1265.34 L1770.17 1265.28 L1772.09 1265.2 L1774.01 1265.07 L1775.94 1264.9 L1777.86 1264.7 L1779.79 1264.46 L1781.71 1264.18 L1783.63 1263.87 L1785.56 1263.52 L1787.48 1263.13 L1789.41 1262.71 L1791.33 1262.25 L1793.25 1261.75 L1795.18 1261.22 L1797.1 1260.65 L1799.03 1260.04 L1800.95 1259.41 L1802.87 1258.73 L1804.8 1258.02 L1806.72 1257.28 L1808.65 1256.51 L1810.57 1255.7 L1812.49 1254.86 L1814.42 1253.99 L1816.34 1253.08 L1818.27 1252.14 L1820.19 1251.18 L1822.11 1250.18 L1824.04 1249.15 L1825.96 1248.1 L1827.89 1247.01 L1829.81 1245.9 L1831.73 1244.76 L1833.66 1243.59 L1835.58 1242.39 L1837.51 1241.17 L1839.43 1239.92 L1841.35 1238.65 L1843.28 1237.35 L1845.2 1236.03 L1847.13 1234.68 L1849.05 1233.32 L1850.97 1231.92 L1852.9 1230.51 L1854.82 1229.08 L1856.75 1227.63 L1858.67 1226.15 L1860.59 1224.66 L1862.52 1223.15 L1864.44 1221.63 L1866.37 1220.08 L1868.29 1218.52 L1870.21 1216.94 L1872.14 1215.35 L1874.06 1213.75 L1875.99 1212.13 L1877.91 1210.5 L1879.83 1208.86 L1881.76 1207.2 L1883.68 1205.54 L1885.61 1203.86 L1887.53 1202.18 L1889.45 1200.49 L1891.38 1198.79 L1893.3 1197.08 L1895.23 1195.37 L1897.15 1193.65 L1899.07 1191.93 L1901 1190.2 L1902.92 1188.47 L1904.85 1186.74 L1906.77 1185 L1908.69 1183.27 L1910.62 1181.53 L1912.54 1179.8 L1914.47 1178.06 L1916.39 1176.33 L1918.31 1174.6 L1920.24 1172.88 L1922.16 1171.16 L1924.09 1169.45 L1926.01 1167.74 L1927.93 1166.03 L1929.86 1164.34 L1931.78 1162.65 L1933.71 1160.97 L1935.63 1159.3 L1937.55 1157.64 L1939.48 1155.99 L1941.4 1154.36 L1943.33 1152.73 L1945.25 1151.12 L1947.17 1149.52 L1949.1 1147.94 L1951.02 1146.37 L1952.95 1144.82 L1954.87 1143.28 L1956.79 1141.76 L1958.72 1140.26 L1960.64 1138.78 L1962.57 1137.32 L1964.49 1135.87 L1966.41 1134.45 L1968.34 1133.05 L1970.26 1131.67 L1972.19 1130.31 L1974.11 1128.97 L1976.03 1127.66 L1977.96 1126.37 L1979.88 1125.1 L1981.81 1123.86 L1983.73 1122.65 L1985.65 1121.46 L1987.58 1120.3 L1989.5 1119.16 L1991.43 1118.06 L1993.35 1116.98 L1995.27 1115.93 L1997.2 1114.91 L1999.12 1113.92 L2001.05 1112.96 L2002.97 1112.03 L2004.9 1111.13 L2006.82 1110.27 L2008.74 1109.43 L2010.67 1108.63 L2012.59 1107.86 L2014.52 1107.12 L2016.44 1106.41 L2018.36 1105.74 L2020.29 1105.1 L2022.21 1104.5 L2024.14 1103.93 L2026.06 1103.4 L2027.98 1102.9 L2029.91 1102.44 L2031.83 1102.02 L2033.76 1101.63 L2035.68 1101.28 L2037.6 1100.96 L2039.53 1100.69 L2041.45 1100.44 L2043.38 1100.24 L2045.3 1100.07 L2047.22 1099.94 L2049.15 1099.85 L2051.07 1099.8 L2053 1099.78 L2054.92 1099.8 L2056.84 1099.86 L2058.77 1099.96 L2060.69 1100.1 L2062.62 1100.27 L2064.54 1100.49 L2066.46 1100.74 L2068.39 1101.03 L2070.31 1101.36 L2072.24 1101.73 L2074.16 1102.14 L2076.08 1102.59 L2078.01 1103.07 L2079.93 1103.6 L2081.86 1104.16 L2083.78 1104.76 L2085.7 1105.4 L2087.63 1106.07 L2089.55 1106.79 L2091.48 1107.54 L2093.4 1108.33 L2095.32 1109.16 L2097.25 1110.02 L2099.17 1110.92 L2101.1 1111.86 L2103.02 1112.83 L2104.94 1113.85 L2106.87 1114.89 L2108.79 1115.98 L2110.72 1117.1 L2112.64 1118.26 L2114.56 1119.45 L2116.49 1120.68 L2118.41 1121.94 L2120.34 1123.24 L2122.26 1124.57 L2124.18 1125.93 L2126.11 1127.33 L2128.03 1128.76 L2129.96 1130.22 L2131.88 1131.72 L2133.8 1133.25 L2135.73 1134.81 L2137.65 1136.4 L2139.58 1138.02 L2141.5 1139.67 L2143.42 1141.36 L2145.35 1143.07 L2147.27 1144.81 L2149.2 1146.58 L2151.12 1148.38 L2153.04 1150.21 L2154.97 1152.07 L2156.89 1153.95 L2158.82 1155.85 L2160.74 1157.79 L2162.66 1159.75 L2164.59 1161.73 L2166.51 1163.74 L2168.44 1165.77 L2170.36 1167.82 L2172.28 1169.9 L2174.21 1172 L2176.13 1174.12 L2178.06 1176.26 L2179.98 1178.42 L2181.9 1180.6 L2183.83 1182.79 L2185.75 1185.01 L2187.68 1187.25 L2189.6 1189.5 L2191.52 1191.77 L2193.45 1194.05 L2195.37 1196.36 L2197.3 1198.67 L2199.22 1201.01 L2201.14 1203.35 L2203.07 1205.72 L2204.99 1208.09 L2206.92 1210.48 L2208.84 1212.88 L2210.76 1215.29 L2212.69 1217.72 L2214.61 1220.15 L2216.54 1222.6 L2218.46 1225.06 L2220.38 1227.52 L2222.31 1230 L2224.23 1232.48 L2226.16 1234.97 L2228.08 1237.47 L2230 1239.97 L2231.93 1242.47 L2233.85 1244.98 L2235.78 1247.49 L2237.7 1250 L2239.62 1252.51 L2241.55 1255.02 L2243.47 1257.53 L2245.4 1260.03 L2247.32 1262.53 L2249.24 1265.02 L2251.17 1267.51 L2253.09 1269.99 L2255.02 1272.46 L2256.94 1274.92 L2258.86 1277.37 L2260.79 1279.81 L2262.71 1282.23 L2264.64 1284.65 L2266.56 1287.06 L2268.48 1289.45 L2270.41 1291.85 L2272.33 1294.23 L2274.26 1296.62 L2276.18 1299 L2278.1 1301.37 L2280.03 1303.75 L2281.95 1306.13 L2283.88 1308.5 L2285.8 1310.89 L2287.72 1313.27 L2289.65 1315.66 L2291.57 1318.06 L2293.5 1320.46 L2295.42 1322.88 L2297.34 1325.3 L2297.34 1305.52 L2295.42 1302.92 L2293.5 1300.34 L2291.57 1297.77 L2289.65 1295.2 L2287.72 1292.65 L2285.8 1290.09 L2283.88 1287.55 L2281.95 1285 L2280.03 1282.46 L2278.1 1279.91 L2276.18 1277.37 L2274.26 1274.82 L2272.33 1272.27 L2270.41 1269.72 L2268.48 1267.16 L2266.56 1264.59 L2264.64 1262.01 L2262.71 1259.42 L2260.79 1256.82 L2258.86 1254.21 L2256.94 1251.59 L2255.02 1248.96 L2253.09 1246.31 L2251.17 1243.65 L2249.24 1240.99 L2247.32 1238.32 L2245.4 1235.64 L2243.47 1232.96 L2241.55 1230.27 L2239.62 1227.58 L2237.7 1224.89 L2235.78 1222.2 L2233.85 1219.51 L2231.93 1216.83 L2230 1214.14 L2228.08 1211.46 L2226.16 1208.78 L2224.23 1206.11 L2222.31 1203.45 L2220.38 1200.8 L2218.46 1198.15 L2216.54 1195.52 L2214.61 1192.89 L2212.69 1190.28 L2210.76 1187.68 L2208.84 1185.09 L2206.92 1182.51 L2204.99 1179.95 L2203.07 1177.4 L2201.14 1174.86 L2199.22 1172.34 L2197.3 1169.84 L2195.37 1167.35 L2193.45 1164.87 L2191.52 1162.42 L2189.6 1159.98 L2187.68 1157.56 L2185.75 1155.16 L2183.83 1152.78 L2181.9 1150.41 L2179.98 1148.07 L2178.06 1145.75 L2176.13 1143.44 L2174.21 1141.17 L2172.28 1138.91 L2170.36 1136.67 L2168.44 1134.46 L2166.51 1132.28 L2164.59 1130.12 L2162.66 1127.98 L2160.74 1125.87 L2158.82 1123.79 L2156.89 1121.74 L2154.97 1119.71 L2153.04 1117.71 L2151.12 1115.74 L2149.2 1113.8 L2147.27 1111.89 L2145.35 1110.01 L2143.42 1108.16 L2141.5 1106.35 L2139.58 1104.56 L2137.65 1102.81 L2135.73 1101.09 L2133.8 1099.4 L2131.88 1097.75 L2129.96 1096.13 L2128.03 1094.55 L2126.11 1093 L2124.18 1091.49 L2122.26 1090.01 L2120.34 1088.57 L2118.41 1087.17 L2116.49 1085.8 L2114.56 1084.47 L2112.64 1083.17 L2110.72 1081.91 L2108.79 1080.7 L2106.87 1079.52 L2104.94 1078.37 L2103.02 1077.27 L2101.1 1076.21 L2099.17 1075.19 L2097.25 1074.2 L2095.32 1073.26 L2093.4 1072.35 L2091.48 1071.49 L2089.55 1070.66 L2087.63 1069.88 L2085.7 1069.14 L2083.78 1068.43 L2081.86 1067.77 L2079.93 1067.15 L2078.01 1066.57 L2076.08 1066.02 L2074.16 1065.53 L2072.24 1065.07 L2070.31 1064.65 L2068.39 1064.28 L2066.46 1063.94 L2064.54 1063.65 L2062.62 1063.4 L2060.69 1063.19 L2058.77 1063.02 L2056.84 1062.89 L2054.92 1062.81 L2053 1062.76 L2051.07 1062.76 L2049.15 1062.79 L2047.22 1062.87 L2045.3 1062.99 L2043.38 1063.14 L2041.45 1063.34 L2039.53 1063.58 L2037.6 1063.85 L2035.68 1064.17 L2033.76 1064.52 L2031.83 1064.91 L2029.91 1065.35 L2027.98 1065.82 L2026.06 1066.33 L2024.14 1066.87 L2022.21 1067.46 L2020.29 1068.08 L2018.36 1068.74 L2016.44 1069.44 L2014.52 1070.17 L2012.59 1070.94 L2010.67 1071.74 L2008.74 1072.58 L2006.82 1073.45 L2004.9 1074.36 L2002.97 1075.3 L2001.05 1076.27 L1999.12 1077.28 L1997.2 1078.32 L1995.27 1079.39 L1993.35 1080.49 L1991.43 1081.62 L1989.5 1082.78 L1987.58 1083.97 L1985.65 1085.2 L1983.73 1086.45 L1981.81 1087.73 L1979.88 1089.03 L1977.96 1090.37 L1976.03 1091.73 L1974.11 1093.11 L1972.19 1094.53 L1970.26 1095.96 L1968.34 1097.42 L1966.41 1098.9 L1964.49 1100.4 L1962.57 1101.93 L1960.64 1103.47 L1958.72 1105.04 L1956.79 1106.63 L1954.87 1108.23 L1952.95 1109.86 L1951.02 1111.5 L1949.1 1113.16 L1947.17 1114.84 L1945.25 1116.53 L1943.33 1118.24 L1941.4 1119.96 L1939.48 1121.69 L1937.55 1123.44 L1935.63 1125.2 L1933.71 1126.97 L1931.78 1128.75 L1929.86 1130.54 L1927.93 1132.33 L1926.01 1134.14 L1924.09 1135.95 L1922.16 1137.77 L1920.24 1139.59 L1918.31 1141.42 L1916.39 1143.25 L1914.47 1145.09 L1912.54 1146.93 L1910.62 1148.77 L1908.69 1150.61 L1906.77 1152.45 L1904.85 1154.29 L1902.92 1156.13 L1901 1157.97 L1899.07 1159.8 L1897.15 1161.63 L1895.23 1163.45 L1893.3 1165.27 L1891.38 1167.09 L1889.45 1168.89 L1887.53 1170.69 L1885.61 1172.47 L1883.68 1174.25 L1881.76 1176.02 L1879.83 1177.77 L1877.91 1179.52 L1875.99 1181.25 L1874.06 1182.97 L1872.14 1184.67 L1870.21 1186.36 L1868.29 1188.03 L1866.37 1189.69 L1864.44 1191.33 L1862.52 1192.95 L1860.59 1194.55 L1858.67 1196.13 L1856.75 1197.7 L1854.82 1199.24 L1852.9 1200.76 L1850.97 1202.26 L1849.05 1203.73 L1847.13 1205.18 L1845.2 1206.61 L1843.28 1208.01 L1841.35 1209.38 L1839.43 1210.73 L1837.51 1212.06 L1835.58 1213.35 L1833.66 1214.62 L1831.73 1215.85 L1829.81 1217.06 L1827.89 1218.24 L1825.96 1219.39 L1824.04 1220.5 L1822.11 1221.59 L1820.19 1222.64 L1818.27 1223.66 L1816.34 1224.65 L1814.42 1225.6 L1812.49 1226.52 L1810.57 1227.41 L1808.65 1228.26 L1806.72 1229.07 L1804.8 1229.85 L1802.87 1230.59 L1800.95 1231.3 L1799.03 1231.96 L1797.1 1232.59 L1795.18 1233.19 L1793.25 1233.74 L1791.33 1234.25 L1789.41 1234.73 L1787.48 1235.17 L1785.56 1235.57 L1783.63 1235.92 L1781.71 1236.24 L1779.79 1236.52 L1777.86 1236.76 L1775.94 1236.96 L1774.01 1237.12 L1772.09 1237.23 L1770.17 1237.31 L1768.24 1237.34 L1766.32 1237.34 L1764.39 1237.29 L1762.47 1237.2 L1760.55 1237.07 L1758.62 1236.9 L1756.7 1236.68 L1754.77 1236.42 L1752.85 1236.13 L1750.93 1235.79 L1749 1235.4 L1747.08 1234.98 L1745.15 1234.52 L1743.23 1234.01 L1741.31 1233.47 L1739.38 1232.88 L1737.46 1232.25 L1735.53 1231.58 L1733.61 1230.87 L1731.69 1230.13 L1729.76 1229.34 L1727.84 1228.51 L1725.91 1227.64 L1723.99 1226.73 L1722.07 1225.79 L1720.14 1224.8 L1718.22 1223.78 L1716.29 1222.71 L1714.37 1221.61 L1712.45 1220.47 L1710.52 1219.3 L1708.6 1218.08 L1706.67 1216.83 L1704.75 1215.55 L1702.83 1214.23 L1700.9 1212.88 L1698.98 1211.49 L1697.05 1210.07 L1695.13 1208.61 L1693.21 1207.13 L1691.28 1205.61 L1689.36 1204.06 L1687.43 1202.48 L1685.51 1200.86 L1683.59 1199.22 L1681.66 1197.55 L1679.74 1195.85 L1677.81 1194.12 L1675.89 1192.36 L1673.97 1190.58 L1672.04 1188.77 L1670.12 1186.93 L1668.19 1185.07 L1666.27 1183.19 L1664.35 1181.28 L1662.42 1179.35 L1660.5 1177.4 L1658.57 1175.43 L1656.65 1173.44 L1654.73 1171.43 L1652.8 1169.4 L1650.88 1167.36 L1648.95 1165.3 L1647.03 1163.22 L1645.11 1161.12 L1643.18 1159.01 L1641.26 1156.89 L1639.33 1154.76 L1637.41 1152.61 L1635.49 1150.45 L1633.56 1148.28 L1631.64 1146.11 L1629.71 1143.92 L1627.79 1141.73 L1625.87 1139.53 L1623.94 1137.32 L1622.02 1135.12 L1620.09 1132.9 L1618.17 1130.69 L1616.25 1128.47 L1614.32 1126.26 L1612.4 1124.04 L1610.47 1121.83 L1608.55 1119.61 L1606.63 1117.4 L1604.7 1115.2 L1602.78 1113 L1600.85 1110.8 L1598.93 1108.61 L1597.01 1106.43 L1595.08 1104.25 L1593.16 1102.09 L1591.23 1099.94 L1589.31 1097.79 L1587.39 1095.67 L1585.46 1093.55 L1583.54 1091.45 L1581.61 1089.36 L1579.69 1087.29 L1577.76 1085.24 L1575.84 1083.21 L1573.92 1081.19 L1571.99 1079.2 L1570.07 1077.22 L1568.14 1075.27 L1566.22 1073.34 L1564.3 1071.43 L1562.37 1069.55 L1560.45 1067.69 L1558.52 1065.86 L1556.6 1064.06 L1554.68 1062.28 L1552.75 1060.53 L1550.83 1058.81 L1548.9 1057.12 L1546.98 1055.47 L1545.06 1053.84 L1543.13 1052.25 L1541.21 1050.69 L1539.28 1049.16 L1537.36 1047.67 L1535.44 1046.22 L1533.51 1044.8 L1531.59 1043.41 L1529.66 1042.07 L1527.74 1040.76 L1525.82 1039.5 L1523.89 1038.27 L1521.97 1037.08 L1520.04 1035.94 L1518.12 1034.83 L1516.2 1033.77 L1514.27 1032.75 L1512.35 1031.78 L1510.42 1030.84 L1508.5 1029.95 L1506.58 1029.11 L1504.65 1028.31 L1502.73 1027.56 L1500.8 1026.85 L1498.88 1026.19 L1496.96 1025.57 L1495.03 1025 L1493.11 1024.48 L1491.18 1024.01 L1489.26 1023.59 L1487.34 1023.22 L1485.41 1022.89 L1483.49 1022.62 L1481.56 1022.39 L1479.64 1022.22 L1477.72 1022.09 L1475.79 1022.01 L1473.87 1021.99 L1471.94 1022.01 L1470.02 1022.08 L1468.1 1022.2 L1466.17 1022.38 L1464.25 1022.6 L1462.32 1022.87 L1460.4 1023.2 L1458.48 1023.57 L1456.55 1024 L1454.63 1024.47 L1452.7 1025 L1450.78 1025.57 L1448.86 1026.2 L1446.93 1026.88 L1445.01 1027.6 L1443.08 1028.38 L1441.16 1029.2 L1439.24 1030.08 L1437.31 1031 L1435.39 1031.97 L1433.46 1032.98 L1431.54 1034.05 L1429.62 1035.16 L1427.69 1036.31 L1425.77 1037.51 L1423.84 1038.76 L1421.92 1040.05 L1420 1041.39 L1418.07 1042.77 L1416.15 1044.19 L1414.22 1045.66 L1412.3 1047.17 L1410.38 1048.73 L1408.45 1050.32 L1406.53 1051.96 L1404.6 1053.63 L1402.68 1055.34 L1400.76 1057.1 L1398.83 1058.89 L1396.91 1060.71 L1394.98 1062.57 L1393.06 1064.47 L1391.14 1066.4 L1389.21 1068.36 L1387.29 1070.35 L1385.36 1072.38 L1383.44 1074.43 L1381.52 1076.51 L1379.59 1078.63 L1377.67 1080.77 L1375.74 1082.94 L1373.82 1085.13 L1371.9 1087.35 L1369.97 1089.59 L1368.05 1091.86 L1366.12 1094.14 L1364.2 1096.45 L1362.28 1098.78 L1360.35 1101.12 L1358.43 1103.48 L1356.5 1105.85 L1354.58 1108.24 L1352.66 1110.64 L1350.73 1113.05 L1348.81 1115.47 L1346.88 1117.9 L1344.96 1120.33 L1343.04 1122.78 L1341.11 1125.22 L1339.19 1127.68 L1337.26 1130.13 L1335.34 1132.59 L1333.42 1135.04 L1331.49 1137.5 L1329.57 1139.95 L1327.64 1142.4 L1325.72 1144.85 L1323.8 1147.28 L1321.87 1149.71 L1319.95 1152.13 L1318.02 1154.53 L1316.1 1156.93 L1314.18 1159.3 L1312.25 1161.66 L1310.33 1164.01 L1308.4 1166.33 L1306.48 1168.63 L1304.56 1170.91 L1302.63 1173.17 L1300.71 1175.41 L1298.78 1177.62 L1296.86 1179.8 L1294.94 1181.95 L1293.01 1184.07 L1291.09 1186.16 L1289.16 1188.22 L1287.24 1190.25 L1285.32 1192.23 L1283.39 1194.18 L1281.47 1196.09 L1279.54 1197.96 L1277.62 1199.78 L1275.7 1201.56 L1273.77 1203.3 L1271.85 1204.99 L1269.92 1206.63 L1268 1208.22 L1266.08 1209.76 L1264.15 1211.24 L1262.23 1212.68 L1260.3 1214.05 L1258.38 1215.38 L1256.46 1216.64 L1254.53 1217.85 L1252.61 1218.99 L1250.68 1220.08 L1248.76 1221.1 L1246.84 1222.06 L1244.91 1222.95 L1242.99 1223.77 L1241.06 1224.52 L1239.14 1225.21 L1237.22 1225.82 L1235.29 1226.36 L1233.37 1226.83 L1231.44 1227.22 L1229.52 1227.54 L1227.6 1227.78 L1225.67 1227.94 L1223.75 1228.02 L1221.82 1228.03 L1219.9 1227.95 L1217.98 1227.79 L1216.05 1227.54 L1214.13 1227.22 L1212.2 1226.8 L1210.28 1226.31 L1208.36 1225.72 L1206.43 1225.05 L1204.51 1224.28 L1202.58 1223.43 L1200.66 1222.49 L1198.74 1221.45 L1196.81 1220.33 L1194.89 1219.11 L1192.96 1217.79 L1191.04 1216.39 L1189.12 1214.88 L1187.19 1213.28 L1185.27 1211.59 L1183.34 1209.8 L1181.42 1207.91 L1179.5 1205.92 L1177.57 1203.84 L1175.65 1201.65 L1173.72 1199.37 L1171.8 1196.99 L1169.88 1194.51 L1167.95 1191.92 L1166.03 1189.24 L1164.1 1186.46 L1162.18 1183.57 L1160.25 1180.59 L1158.33 1177.5 L1156.41 1174.31 L1154.48 1171.02 L1152.56 1167.63 L1150.63 1164.13 L1148.71 1160.54 L1146.79 1156.84 L1144.86 1153.04 L1142.94 1149.14 L1141.01 1145.14 L1139.09 1141.03 L1137.17 1136.83 L1135.24 1132.52 L1133.32 1128.12 L1131.39 1123.61 L1129.47 1119 L1127.55 1114.3 L1125.62 1109.49 L1123.7 1104.59 L1121.77 1099.59 L1119.85 1094.49 L1117.93 1089.3 L1116 1084.01 L1114.08 1078.62 L1112.15 1073.14 L1110.23 1067.57 L1108.31 1061.9 L1106.38 1056.13 L1104.46 1050.28 L1102.53 1044.33 L1100.61 1038.3 L1098.69 1032.17 L1096.76 1025.95 L1094.84 1019.65 L1092.91 1013.26 L1090.99 1006.79 L1089.07 1000.23 L1087.14 993.586 L1085.22 986.864 L1083.29 980.061 L1081.37 973.178 L1079.45 966.218 L1077.52 959.181 L1075.6 952.069 L1073.67 944.882 L1071.75 937.623 L1069.83 930.291 L1067.9 922.89 L1065.98 915.419 L1064.05 907.88 L1062.13 900.275 L1060.21 892.606 L1058.28 884.874 L1056.36 877.081 L1054.43 869.229 L1052.51 861.32 L1050.59 853.356 L1048.66 845.337 L1046.74 837.266 L1044.81 829.145 L1042.89 820.975 L1040.97 812.759 L1039.04 804.497 L1037.12 796.192 L1035.19 787.845 L1033.27 779.458 L1031.35 771.033 L1029.42 762.572 L1027.5 754.075 L1025.57 745.546 L1023.65 736.986 L1021.73 728.398 L1019.8 719.784 L1017.88 711.145 L1015.95 702.485 L1014.03 693.805 L1012.11 685.108 L1010.18 676.396 L1008.26 667.671 L1006.33 658.935 L1004.41 650.191 L1002.49 641.44 L1000.56 632.684 L998.638 623.926 L996.714 615.168 L994.79 606.411 L992.866 597.659 L990.942 588.912 L989.018 580.173 L987.094 571.443 L985.17 562.727 L983.246 554.024 L981.322 545.34 L979.398 536.674 L977.474 528.031 L975.55 519.413 L973.626 510.821 L971.702 502.258 L969.778 493.727 L967.854 485.229 L965.93 476.767 L964.006 468.343 L962.082 459.959 L960.158 451.617 L958.234 443.32 L956.31 435.07 L954.386 426.868 L952.462 418.717 L950.538 410.618 L948.614 402.574 L946.69 394.586 L944.766 386.659 L942.842 378.792 L940.918 370.99 L938.994 363.254 L937.07 355.587 L935.146 347.99 L933.222 340.466 L931.298 333.017 L929.374 325.644 L927.45 318.351 L925.526 311.139 L923.602 304.009 L921.678 296.964 L919.754 290.006 L917.83 283.137 L915.906 276.357 L913.982 269.67 L912.058 263.077 L910.134 256.579 L908.21 250.178 L906.286 243.877 L904.362 237.677 L902.438 231.581 L900.514 225.589 L898.59 219.704 L896.666 213.927 L894.742 208.26 L892.818 202.705 L890.894 197.264 L888.97 191.937 L887.046 186.726 L885.122 181.633 L883.198 176.66 L881.274 171.806 L879.35 167.075 L877.426 162.467 L875.502 157.983 L873.578 153.625 L871.654 149.394 L869.73 145.29 L867.806 141.316 L865.882 137.473 L863.958 133.761 L862.034 130.182 L860.11 126.736 L858.186 123.426 L856.262 120.251 L854.338 117.213 L852.414 114.312 L850.49 111.55 L848.566 108.928 L846.641 106.445 L844.717 104.103 L842.793 101.903 L840.869 99.8447 L838.945 97.9292 L837.021 96.1569 L835.097 94.5283 L833.173 93.044 L831.249 91.7042 L829.325 90.5093 L827.401 89.4595 L825.477 88.5549 L823.553 87.7958 L821.629 87.1822 L819.705 86.7144 L817.781 86.3924 L815.857 86.2161 L813.933 86.1857 L812.009 86.301 L810.085 86.5621 L808.161 86.9688 L806.237 87.521 L804.313 88.2186 L802.389 89.0614 L800.465 90.0491 L798.541 91.1815 L796.617 92.4584 L794.693 93.8793 L792.769 95.4439 L790.845 97.1515 L788.921 99.0017 L786.997 100.994 L785.073 103.127 L783.149 105.401 L781.225 107.815 L779.301 110.369 L777.377 113.061 L775.453 115.891 L773.529 118.858 L771.605 121.961 L769.681 125.201 L767.757 128.575 L765.833 132.083 L763.909 135.724 L761.985 139.498 L760.061 143.403 L758.137 147.439 L756.213 151.604 L754.289 155.897 L752.365 160.316 L750.441 164.86 L748.517 169.527 L746.593 174.315 L744.669 179.222 L742.745 184.247 L740.821 189.389 L738.897 194.645 L736.973 200.014 L735.049 205.495 L733.125 211.085 L731.201 216.784 L729.277 222.589 L727.353 228.499 L725.429 234.513 L723.505 240.629 L721.581 246.845 L719.657 253.161 L717.733 259.574 L715.809 266.082 L713.885 272.684 L711.961 279.377 L710.037 286.16 L708.113 293.031 L706.189 299.988 L704.265 307.03 L702.341 314.154 L700.417 321.359 L698.493 328.643 L696.569 336.004 L694.645 343.441 L692.721 350.953 L690.797 358.536 L688.873 366.191 L686.949 373.915 L685.025 381.706 L683.101 389.564 L681.177 397.487 L679.253 405.472 L677.329 413.517 L675.405 421.619 L673.481 429.773 L671.557 437.976 L669.633 446.226 L667.709 454.519 L665.785 462.853 L663.861 471.225 L661.937 479.631 L660.013 488.07 L658.089 496.539 L656.165 505.036 L654.241 513.558 L652.317 522.104 L650.393 530.671 L648.469 539.257 L646.545 547.86 L644.621 556.48 L642.697 565.113 L640.773 573.759 L638.849 582.417 L636.924 591.086 L635 599.766 L633.076 608.455 L631.152 617.154 L629.228 625.862 L627.304 634.578 L625.38 643.302 L623.456 652.034 L621.532 660.773 L619.608 669.518 L617.684 678.27 L615.76 687.028 L613.836 695.792 L611.912 704.562 L609.988 713.337 L608.064 722.117 L606.14 730.902 L604.216 739.691 L602.292 748.484 L600.368 757.272 L598.444 766.045 L596.52 774.795 L594.596 783.515 L592.672 792.196 L590.748 800.832 L588.824 809.418 L586.9 817.946 L584.976 826.413 L583.052 834.814 L581.128 843.145 L579.204 851.402 L577.28 859.583 L575.356 867.685 L573.432 875.705 L571.508 883.643 L569.584 891.497 L567.66 899.266 L565.736 906.951 L563.812 914.553 L561.888 922.083 L559.964 929.556 L558.04 936.983 L556.116 944.375 L554.192 951.744 L552.268 959.099 L550.344 966.452 L548.42 973.811 L546.496 981.184 L544.572 988.579 L542.648 996.004 L540.724 1003.47 L538.8 1010.97 L536.876 1018.52 L534.952 1026.13 L533.028 1033.79 L531.104 1041.52 L529.18 1049.31 L527.256 1057.17 L525.332 1065.09 L523.408 1073.04 L521.484 1080.95 L519.56 1088.8 L517.636 1096.54 L515.712 1104.13 L513.788 1111.56 L511.864 1118.79 L509.94 1125.8 L508.016 1132.58 L506.092 1139.11 L504.168 1145.38 L502.244 1151.39 L500.32 1157.13 L498.396 1162.6 L496.472 1167.81 L494.548 1172.75 L492.624 1177.45 L490.7 1181.9 L488.776 1186.12 L486.852 1190.13 L484.928 1194 L483.004 1197.8 L481.08 1201.6 L479.156 1205.44 L477.232 1209.38 L475.308 1213.48 L473.384 1217.77 L471.46 1222.28 L469.536 1227.06 L467.612 1232.12 L465.688 1237.5 L463.764 1243.21 L461.84 1249.26 L459.916 1255.68 L457.992 1262.45 L456.068 1269.6 L454.144 1277.11 L452.22 1284.99 L450.296 1293.23  Z" fill="#009af9" fill-rule="evenodd" fill-opacity="0.5"/>
<polyline clip-path="url(#clip541)" style="stroke:#009af9; stroke-linecap:round; stroke-linejoin:round; stroke-width:4; stroke-opacity:1; fill:none" points="450.296,1338.73 452.22,1331.13 454.144,1323.82 456.068,1316.83 457.992,1310.15 459.916,1303.79 461.84,1297.74 463.764,1292.01 465.688,1286.57 467.612,1281.43 469.536,1276.56 471.46,1271.94 473.384,1267.56 475.308,1263.37 477.232,1259.36 479.156,1255.49 481.08,1251.7 483.004,1247.96 484.928,1244.22 486.852,1240.42 488.776,1236.49 490.7,1232.38 492.624,1228.07 494.548,1223.55 496.472,1218.8 498.396,1213.82 500.32,1208.6 502.244,1203.14 504.168,1197.44 506.092,1191.51 508.016,1185.34 509.94,1178.94 511.864,1172.34 513.788,1165.54 515.712,1158.56 517.636,1151.42 519.56,1144.16 521.484,1136.79 523.408,1129.35 525.332,1121.89 527.256,1114.45 529.18,1107.05 531.104,1099.72 533.028,1092.44 534.952,1085.21 536.876,1078.03 538.8,1070.9 540.724,1063.81 542.648,1056.76 544.572,1049.74 546.496,1042.74 548.42,1035.76 550.344,1028.79 552.268,1021.82 554.192,1014.85 556.116,1007.87 558.04,1000.86 559.964,993.815 561.888,986.73 563.812,979.589 565.736,972.382 567.66,965.097 569.584,957.733 571.508,950.29 573.432,942.768 575.356,935.169 577.28,927.494 579.204,919.744 581.128,911.922 583.052,904.031 584.976,896.073 586.9,888.052 588.824,879.973 590.748,871.84 592.672,863.657 594.596,855.431 596.52,847.168 598.444,838.874 600.368,830.557 602.292,822.225 604.216,813.885 606.14,805.546 608.064,797.209 609.988,788.874 611.912,780.542 613.836,772.213 615.76,763.886 617.684,755.563 619.608,747.244 621.532,738.928 623.456,730.617 625.38,722.311 627.304,714.009 629.228,705.713 631.152,697.422 633.076,689.139 635,680.861 636.924,672.592 638.849,664.33 640.773,656.077 642.697,647.833 644.621,639.598 646.545,631.376 648.469,623.166 650.393,614.971 652.317,606.792 654.241,598.631 656.165,590.49 658.089,582.371 660.013,574.277 661.937,566.208 663.861,558.169 665.785,550.16 667.709,542.185 669.633,534.247 671.557,526.347 673.481,518.489 675.405,510.675 677.329,502.909 679.253,495.195 681.177,487.534 683.101,479.93 685.025,472.386 686.949,464.902 688.873,457.48 690.797,450.121 692.721,442.827 694.645,435.6 696.569,428.44 698.493,421.35 700.417,414.332 702.341,407.386 704.265,400.514 706.189,393.719 708.113,387.001 710.037,380.363 711.961,373.806 713.885,367.332 715.809,360.943 717.733,354.641 719.657,348.427 721.581,342.303 723.505,336.271 725.429,330.333 727.353,324.489 729.277,318.742 731.201,313.092 733.125,307.542 735.049,302.092 736.973,296.745 738.897,291.501 740.821,286.363 742.745,281.332 744.669,276.409 746.593,271.597 748.517,266.896 750.441,262.309 752.365,257.836 754.289,253.48 756.213,249.242 758.137,245.124 760.061,241.127 761.985,237.252 763.909,233.501 765.833,229.874 767.757,226.372 769.681,222.996 771.605,219.746 773.529,216.624 775.453,213.63 777.377,210.765 779.301,208.03 781.225,205.425 783.149,202.952 785.073,200.61 786.997,198.401 788.921,196.324 790.845,194.382 792.769,192.574 794.693,190.901 796.617,189.363 798.541,187.962 800.465,186.696 802.389,185.568 804.313,184.576 806.237,183.721 808.161,183.004 810.085,182.424 812.009,181.983 813.933,181.679 815.857,181.513 817.781,181.485 819.705,181.595 821.629,181.843 823.553,182.229 825.477,182.754 827.401,183.416 829.325,184.216 831.249,185.153 833.173,186.228 835.097,187.44 837.021,188.79 838.945,190.275 840.869,191.897 842.793,193.654 844.717,195.547 846.641,197.574 848.566,199.735 850.49,202.029 852.414,204.456 854.338,207.015 856.262,209.704 858.186,212.524 860.11,215.474 862.034,218.552 863.958,221.757 865.882,225.09 867.806,228.547 869.73,232.13 871.654,235.836 873.578,239.664 875.502,243.613 877.426,247.682 879.35,251.871 881.274,256.177 883.198,260.599 885.122,265.137 887.046,269.789 888.97,274.554 890.894,279.431 892.818,284.417 894.742,289.512 896.666,294.715 898.59,300.023 900.514,305.435 902.438,310.949 904.362,316.565 906.286,322.279 908.21,328.091 910.134,333.999 912.058,340 913.982,346.094 915.906,352.278 917.83,358.55 919.754,364.91 921.678,371.356 923.602,377.885 925.526,384.496 927.45,391.187 929.374,397.957 931.298,404.803 933.222,411.723 935.146,418.717 937.07,425.78 938.994,432.913 940.918,440.112 942.842,447.376 944.766,454.702 946.69,462.088 948.614,469.532 950.538,477.032 952.462,484.586 954.386,492.191 956.31,499.846 958.234,507.549 960.158,515.297 962.082,523.09 964.006,530.924 965.93,538.798 967.854,546.71 969.778,554.658 971.702,562.639 973.626,570.652 975.55,578.694 977.474,586.763 979.398,594.858 981.322,602.975 983.246,611.112 985.17,619.267 987.094,627.439 989.018,635.623 990.942,643.819 992.866,652.024 994.79,660.236 996.714,668.453 998.638,676.674 1000.56,684.896 1002.49,693.117 1004.41,701.336 1006.33,709.551 1008.26,717.758 1010.18,725.957 1012.11,734.146 1014.03,742.322 1015.95,750.483 1017.88,758.627 1019.8,766.751 1021.73,774.855 1023.65,782.936 1025.57,790.991 1027.5,799.018 1029.42,807.016 1031.35,814.982 1033.27,822.915 1035.19,830.813 1037.12,838.674 1039.04,846.498 1040.97,854.282 1042.89,862.024 1044.81,869.723 1046.74,877.377 1048.66,884.985 1050.59,892.545 1052.51,900.055 1054.43,907.513 1056.36,914.918 1058.28,922.269 1060.21,929.562 1062.13,936.798 1064.05,943.974 1065.98,951.087 1067.9,958.138 1069.83,965.124 1071.75,972.045 1073.67,978.898 1075.6,985.684 1077.52,992.399 1079.45,999.044 1081.37,1005.62 1083.29,1012.12 1085.22,1018.54 1087.14,1024.89 1089.07,1031.17 1090.99,1037.36 1092.91,1043.48 1094.84,1049.52 1096.76,1055.48 1098.69,1061.35 1100.61,1067.14 1102.53,1072.85 1104.46,1078.47 1106.38,1084 1108.31,1089.45 1110.23,1094.81 1112.15,1100.08 1114.08,1105.26 1116,1110.36 1117.93,1115.36 1119.85,1120.27 1121.77,1125.09 1123.7,1129.82 1125.62,1134.45 1127.55,1139 1129.47,1143.45 1131.39,1147.8 1133.32,1152.06 1135.24,1156.23 1137.17,1160.3 1139.09,1164.28 1141.01,1168.16 1142.94,1171.94 1144.86,1175.63 1146.79,1179.23 1148.71,1182.72 1150.63,1186.12 1152.56,1189.42 1154.48,1192.63 1156.41,1195.74 1158.33,1198.75 1160.25,1201.67 1162.18,1204.49 1164.1,1207.22 1166.03,1209.85 1167.95,1212.38 1169.88,1214.82 1171.8,1217.16 1173.72,1219.41 1175.65,1221.56 1177.57,1223.62 1179.5,1225.59 1181.42,1227.46 1183.34,1229.24 1185.27,1230.92 1187.19,1232.52 1189.12,1234.02 1191.04,1235.43 1192.96,1236.76 1194.89,1237.99 1196.81,1239.13 1198.74,1240.18 1200.66,1241.15 1202.58,1242.03 1204.51,1242.82 1206.43,1243.53 1208.36,1244.15 1210.28,1244.69 1212.2,1245.14 1214.13,1245.52 1216.05,1245.81 1217.98,1246.02 1219.9,1246.16 1221.82,1246.21 1223.75,1246.19 1225.67,1246.09 1227.6,1245.92 1229.52,1245.67 1231.44,1245.35 1233.37,1244.95 1235.29,1244.49 1237.22,1243.95 1239.14,1243.35 1241.06,1242.67 1242.99,1241.93 1244.91,1241.13 1246.84,1240.26 1248.76,1239.33 1250.68,1238.33 1252.61,1237.28 1254.53,1236.16 1256.46,1234.99 1258.38,1233.76 1260.3,1232.48 1262.23,1231.15 1264.15,1229.76 1266.08,1228.32 1268,1226.83 1269.92,1225.29 1271.85,1223.7 1273.77,1222.07 1275.7,1220.39 1277.62,1218.67 1279.54,1216.91 1281.47,1215.1 1283.39,1213.26 1285.32,1211.37 1287.24,1209.45 1289.16,1207.5 1291.09,1205.51 1293.01,1203.49 1294.94,1201.44 1296.86,1199.37 1298.78,1197.26 1300.71,1195.13 1302.63,1192.97 1304.56,1190.79 1306.48,1188.59 1308.4,1186.37 1310.33,1184.12 1312.25,1181.86 1314.18,1179.59 1316.1,1177.29 1318.02,1174.98 1319.95,1172.66 1321.87,1170.33 1323.8,1167.99 1325.72,1165.63 1327.64,1163.28 1329.57,1160.91 1331.49,1158.54 1333.42,1156.17 1335.34,1153.8 1337.26,1151.43 1339.19,1149.06 1341.11,1146.69 1343.04,1144.32 1344.96,1141.97 1346.88,1139.61 1348.81,1137.27 1350.73,1134.93 1352.66,1132.6 1354.58,1130.28 1356.5,1127.97 1358.43,1125.68 1360.35,1123.4 1362.28,1121.14 1364.2,1118.89 1366.12,1116.66 1368.05,1114.45 1369.97,1112.25 1371.9,1110.09 1373.82,1107.94 1375.74,1105.82 1377.67,1103.72 1379.59,1101.65 1381.52,1099.6 1383.44,1097.58 1385.36,1095.59 1387.29,1093.63 1389.21,1091.7 1391.14,1089.8 1393.06,1087.93 1394.98,1086.09 1396.91,1084.29 1398.83,1082.52 1400.76,1080.78 1402.68,1079.08 1404.6,1077.42 1406.53,1075.79 1408.45,1074.2 1410.38,1072.65 1412.3,1071.14 1414.22,1069.67 1416.15,1068.24 1418.07,1066.85 1420,1065.51 1421.92,1064.21 1423.84,1062.95 1425.77,1061.73 1427.69,1060.55 1429.62,1059.42 1431.54,1058.34 1433.46,1057.3 1435.39,1056.3 1437.31,1055.35 1439.24,1054.45 1441.16,1053.59 1443.08,1052.78 1445.01,1052.01 1446.93,1051.29 1448.86,1050.62 1450.78,1050 1452.7,1049.43 1454.63,1048.9 1456.55,1048.43 1458.48,1048 1460.4,1047.62 1462.32,1047.29 1464.25,1047 1466.17,1046.77 1468.1,1046.58 1470.02,1046.44 1471.94,1046.35 1473.87,1046.31 1475.79,1046.32 1477.72,1046.37 1479.64,1046.47 1481.56,1046.62 1483.49,1046.82 1485.41,1047.06 1487.34,1047.35 1489.26,1047.69 1491.18,1048.08 1493.11,1048.51 1495.03,1048.99 1496.96,1049.51 1498.88,1050.08 1500.8,1050.7 1502.73,1051.36 1504.65,1052.06 1506.58,1052.81 1508.5,1053.6 1510.42,1054.44 1512.35,1055.32 1514.27,1056.24 1516.2,1057.2 1518.12,1058.2 1520.04,1059.24 1521.97,1060.32 1523.89,1061.44 1525.82,1062.6 1527.74,1063.8 1529.66,1065.04 1531.59,1066.31 1533.51,1067.62 1535.44,1068.97 1537.36,1070.35 1539.28,1071.76 1541.21,1073.21 1543.13,1074.69 1545.06,1076.21 1546.98,1077.75 1548.9,1079.33 1550.83,1080.93 1552.75,1082.57 1554.68,1084.23 1556.6,1085.92 1558.52,1087.64 1560.45,1089.38 1562.37,1091.15 1564.3,1092.94 1566.22,1094.76 1568.14,1096.6 1570.07,1098.46 1571.99,1100.34 1573.92,1102.24 1575.84,1104.17 1577.76,1106.11 1579.69,1108.06 1581.61,1110.04 1583.54,1112.03 1585.46,1114.03 1587.39,1116.05 1589.31,1118.08 1591.23,1120.13 1593.16,1122.18 1595.08,1124.25 1597.01,1126.32 1598.93,1128.41 1600.85,1130.5 1602.78,1132.6 1604.7,1134.7 1606.63,1136.81 1608.55,1138.92 1610.47,1141.04 1612.4,1143.15 1614.32,1145.27 1616.25,1147.39 1618.17,1149.51 1620.09,1151.62 1622.02,1153.74 1623.94,1155.85 1625.87,1157.96 1627.79,1160.06 1629.71,1162.16 1631.64,1164.25 1633.56,1166.33 1635.49,1168.4 1637.41,1170.47 1639.33,1172.52 1641.26,1174.56 1643.18,1176.59 1645.11,1178.61 1647.03,1180.61 1648.95,1182.6 1650.88,1184.57 1652.8,1186.53 1654.73,1188.47 1656.65,1190.39 1658.57,1192.29 1660.5,1194.18 1662.42,1196.05 1664.35,1197.89 1666.27,1199.71 1668.19,1201.52 1670.12,1203.3 1672.04,1205.05 1673.97,1206.78 1675.89,1208.49 1677.81,1210.17 1679.74,1211.83 1681.66,1213.45 1683.59,1215.05 1685.51,1216.62 1687.43,1218.17 1689.36,1219.68 1691.28,1221.16 1693.21,1222.61 1695.13,1224.03 1697.05,1225.42 1698.98,1226.78 1700.9,1228.11 1702.83,1229.4 1704.75,1230.66 1706.67,1231.89 1708.6,1233.08 1710.52,1234.24 1712.45,1235.36 1714.37,1236.45 1716.29,1237.5 1718.22,1238.51 1720.14,1239.49 1722.07,1240.43 1723.99,1241.33 1725.91,1242.2 1727.84,1243.03 1729.76,1243.81 1731.69,1244.56 1733.61,1245.28 1735.53,1245.95 1737.46,1246.58 1739.38,1247.18 1741.31,1247.73 1743.23,1248.25 1745.15,1248.73 1747.08,1249.17 1749,1249.56 1750.93,1249.92 1752.85,1250.24 1754.77,1250.52 1756.7,1250.76 1758.62,1250.96 1760.55,1251.11 1762.47,1251.23 1764.39,1251.31 1766.32,1251.34 1768.24,1251.34 1770.17,1251.3 1772.09,1251.21 1774.01,1251.09 1775.94,1250.93 1777.86,1250.73 1779.79,1250.49 1781.71,1250.21 1783.63,1249.9 1785.56,1249.54 1787.48,1249.15 1789.41,1248.72 1791.33,1248.25 1793.25,1247.74 1795.18,1247.2 1797.1,1246.62 1799.03,1246 1800.95,1245.35 1802.87,1244.66 1804.8,1243.94 1806.72,1243.18 1808.65,1242.38 1810.57,1241.55 1812.49,1240.69 1814.42,1239.79 1816.34,1238.86 1818.27,1237.9 1820.19,1236.91 1822.11,1235.88 1824.04,1234.83 1825.96,1233.74 1827.89,1232.63 1829.81,1231.48 1831.73,1230.31 1833.66,1229.1 1835.58,1227.87 1837.51,1226.61 1839.43,1225.33 1841.35,1224.02 1843.28,1222.68 1845.2,1221.32 1847.13,1219.93 1849.05,1218.52 1850.97,1217.09 1852.9,1215.64 1854.82,1214.16 1856.75,1212.66 1858.67,1211.14 1860.59,1209.61 1862.52,1208.05 1864.44,1206.48 1866.37,1204.89 1868.29,1203.28 1870.21,1201.65 1872.14,1200.01 1874.06,1198.36 1875.99,1196.69 1877.91,1195.01 1879.83,1193.32 1881.76,1191.61 1883.68,1189.89 1885.61,1188.17 1887.53,1186.43 1889.45,1184.69 1891.38,1182.94 1893.3,1181.18 1895.23,1179.41 1897.15,1177.64 1899.07,1175.86 1901,1174.08 1902.92,1172.3 1904.85,1170.51 1906.77,1168.73 1908.69,1166.94 1910.62,1165.15 1912.54,1163.36 1914.47,1161.58 1916.39,1159.79 1918.31,1158.01 1920.24,1156.24 1922.16,1154.46 1924.09,1152.7 1926.01,1150.94 1927.93,1149.18 1929.86,1147.44 1931.78,1145.7 1933.71,1143.97 1935.63,1142.25 1937.55,1140.54 1939.48,1138.84 1941.4,1137.16 1943.33,1135.48 1945.25,1133.82 1947.17,1132.18 1949.1,1130.55 1951.02,1128.94 1952.95,1127.34 1954.87,1125.76 1956.79,1124.2 1958.72,1122.65 1960.64,1121.13 1962.57,1119.62 1964.49,1118.14 1966.41,1116.68 1968.34,1115.23 1970.26,1113.81 1972.19,1112.42 1974.11,1111.04 1976.03,1109.69 1977.96,1108.37 1979.88,1107.07 1981.81,1105.79 1983.73,1104.55 1985.65,1103.33 1987.58,1102.13 1989.5,1100.97 1991.43,1099.84 1993.35,1098.73 1995.27,1097.66 1997.2,1096.61 1999.12,1095.6 2001.05,1094.62 2002.97,1093.67 2004.9,1092.75 2006.82,1091.86 2008.74,1091.01 2010.67,1090.18 2012.59,1089.4 2014.52,1088.64 2016.44,1087.93 2018.36,1087.24 2020.29,1086.59 2022.21,1085.98 2024.14,1085.4 2026.06,1084.86 2027.98,1084.36 2029.91,1083.89 2031.83,1083.47 2033.76,1083.08 2035.68,1082.72 2037.6,1082.41 2039.53,1082.13 2041.45,1081.89 2043.38,1081.69 2045.3,1081.53 2047.22,1081.41 2049.15,1081.32 2051.07,1081.28 2053,1081.27 2054.92,1081.31 2056.84,1081.38 2058.77,1081.49 2060.69,1081.64 2062.62,1081.84 2064.54,1082.07 2066.46,1082.34 2068.39,1082.65 2070.31,1083.01 2072.24,1083.4 2074.16,1083.83 2076.08,1084.31 2078.01,1084.82 2079.93,1085.37 2081.86,1085.96 2083.78,1086.6 2085.7,1087.27 2087.63,1087.98 2089.55,1088.73 2091.48,1089.51 2093.4,1090.34 2095.32,1091.21 2097.25,1092.11 2099.17,1093.05 2101.1,1094.03 2103.02,1095.05 2104.94,1096.11 2106.87,1097.21 2108.79,1098.34 2110.72,1099.51 2112.64,1100.71 2114.56,1101.96 2116.49,1103.24 2118.41,1104.55 2120.34,1105.9 2122.26,1107.29 2124.18,1108.71 2126.11,1110.17 2128.03,1111.66 2129.96,1113.18 2131.88,1114.74 2133.8,1116.33 2135.73,1117.95 2137.65,1119.6 2139.58,1121.29 2141.5,1123.01 2143.42,1124.76 2145.35,1126.54 2147.27,1128.35 2149.2,1130.19 2151.12,1132.06 2153.04,1133.96 2154.97,1135.89 2156.89,1137.84 2158.82,1139.82 2160.74,1141.83 2162.66,1143.86 2164.59,1145.92 2166.51,1148.01 2168.44,1150.12 2170.36,1152.25 2172.28,1154.4 2174.21,1156.58 2176.13,1158.78 2178.06,1161 2179.98,1163.24 2181.9,1165.5 2183.83,1167.78 2185.75,1170.08 2187.68,1172.4 2189.6,1174.74 2191.52,1177.09 2193.45,1179.46 2195.37,1181.85 2197.3,1184.25 2199.22,1186.67 2201.14,1189.11 2203.07,1191.56 2204.99,1194.02 2206.92,1196.49 2208.84,1198.98 2210.76,1201.48 2212.69,1204 2214.61,1206.52 2216.54,1209.06 2218.46,1211.6 2220.38,1214.16 2222.31,1216.72 2224.23,1219.3 2226.16,1221.88 2228.08,1224.46 2230,1227.05 2231.93,1229.65 2233.85,1232.25 2235.78,1234.85 2237.7,1237.45 2239.62,1240.05 2241.55,1242.65 2243.47,1245.24 2245.4,1247.84 2247.32,1250.43 2249.24,1253.01 2251.17,1255.58 2253.09,1258.15 2255.02,1260.71 2256.94,1263.26 2258.86,1265.79 2260.79,1268.32 2262.71,1270.83 2264.64,1273.33 2266.56,1275.82 2268.48,1278.3 2270.41,1280.78 2272.33,1283.25 2274.26,1285.72 2276.18,1288.18 2278.1,1290.64 2280.03,1293.1 2281.95,1295.56 2283.88,1298.03 2285.8,1300.49 2287.72,1302.96 2289.65,1305.43 2291.57,1307.91 2293.5,1310.4 2295.42,1312.9 2297.34,1315.41 "/>
<path clip-path="url(#clip540)" d="M1907.68 196.789 L2287.49 196.789 L2287.49 93.1086 L1907.68 93.1086  Z" fill="#ffffff" fill-rule="evenodd" fill-opacity="1"/>
<polyline clip-path="url(#clip540)" style="stroke:#000000; stroke-linecap:round; stroke-linejoin:round; stroke-width:4; stroke-opacity:1; fill:none" points="1907.68,196.789 2287.49,196.789 2287.49,93.1086 1907.68,93.1086 1907.68,196.789 "/>
<polyline clip-path="url(#clip540)" style="stroke:#009af9; stroke-linecap:round; stroke-linejoin:round; stroke-width:4; stroke-opacity:1; fill:none" points="1929.43,144.949 2059.96,144.949 "/>
<path clip-path="url(#clip540)" d="M2086.39 131.511 L2086.39 158.386 L2092.04 158.386 Q2099.19 158.386 2102.5 155.145 Q2105.83 151.905 2105.83 144.914 Q2105.83 137.969 2102.5 134.752 Q2099.19 131.511 2092.04 131.511 L2086.39 131.511 M2081.71 127.669 L2091.32 127.669 Q2101.37 127.669 2106.06 131.858 Q2110.76 136.025 2110.76 144.914 Q2110.76 153.849 2106.04 158.039 Q2101.32 162.229 2091.32 162.229 L2081.71 162.229 L2081.71 127.669 Z" fill="#000000" fill-rule="nonzero" fill-opacity="1" /><path clip-path="url(#clip540)" d="M2116.39 142.067 L2119.07 142.067 L2119.07 162.229 L2116.39 162.229 L2116.39 142.067 Z" fill="#000000" fill-rule="nonzero" fill-opacity="1" /><path clip-path="url(#clip540)" d="M2158.31 132.507 L2158.31 141.465 L2171.2 141.465 L2171.2 145.4 L2158.31 145.4 L2158.31 154.358 L2154.42 154.358 L2154.42 145.4 L2141.53 145.4 L2141.53 141.465 L2154.42 141.465 L2154.42 132.507 L2158.31 132.507 M2141.53 158.293 L2171.2 158.293 L2171.2 162.229 L2141.53 162.229 L2141.53 158.293 Z" fill="#000000" fill-rule="nonzero" fill-opacity="1" /><path clip-path="url(#clip540)" d="M2207.5 132.275 L2198.01 158.34 L2217.01 158.34 L2207.5 132.275 M2191.67 162.229 L2204.86 127.669 L2210.16 127.669 L2223.33 162.229 L2191.67 162.229 Z" fill="#000000" fill-rule="nonzero" fill-opacity="1" /><path clip-path="url(#clip540)" d="M2233.05 131.511 L2233.05 158.386 L2238.7 158.386 Q2245.86 158.386 2249.17 155.145 Q2252.5 151.905 2252.5 144.914 Q2252.5 137.969 2249.17 134.752 Q2245.86 131.511 2238.7 131.511 L2233.05 131.511 M2228.38 127.669 L2237.98 127.669 Q2248.03 127.669 2252.73 131.858 Q2257.43 136.025 2257.43 144.914 Q2257.43 153.849 2252.71 158.039 Q2247.98 162.229 2237.98 162.229 L2228.38 162.229 L2228.38 127.669 Z" fill="#000000" fill-rule="nonzero" fill-opacity="1" /><path clip-path="url(#clip540)" d="M2263.05 142.067 L2265.74 142.067 L2265.74 162.229 L2263.05 162.229 L2263.05 142.067 Z" fill="#000000" fill-rule="nonzero" fill-opacity="1" /></svg>
