<?xml version="1.0" encoding="utf-8"?>
<svg xmlns="http://www.w3.org/2000/svg" xmlns:xlink="http://www.w3.org/1999/xlink" width="600" height="400" viewBox="0 0 2400 1600">
<defs>
  <clipPath id="clip330">
    <rect x="0" y="0" width="2400" height="1600"/>
  </clipPath>
</defs>
<path clip-path="url(#clip330)" d="M0 1600 L2400 1600 L2400 0 L0 0  Z" fill="#ffffff" fill-rule="evenodd" fill-opacity="1"/>
<defs>
  <clipPath id="clip331">
    <rect x="480" y="0" width="1681" height="1600"/>
  </clipPath>
</defs>
<path clip-path="url(#clip330)" d="M249.542 1423.18 L2352.76 1423.18 L2352.76 47.2441 L249.542 47.2441  Z" fill="#ffffff" fill-rule="evenodd" fill-opacity="1"/>
<defs>
  <clipPath id="clip332">
    <rect x="249" y="47" width="2104" height="1377"/>
  </clipPath>
</defs>
<polyline clip-path="url(#clip332)" style="stroke:#000000; stroke-linecap:round; stroke-linejoin:round; stroke-width:2; stroke-opacity:0.1; fill:none" points="309.067,1423.18 309.067,47.2441 "/>
<polyline clip-path="url(#clip332)" style="stroke:#000000; stroke-linecap:round; stroke-linejoin:round; stroke-width:2; stroke-opacity:0.1; fill:none" points="933.766,1423.18 933.766,47.2441 "/>
<polyline clip-path="url(#clip332)" style="stroke:#000000; stroke-linecap:round; stroke-linejoin:round; stroke-width:2; stroke-opacity:0.1; fill:none" points="1558.47,1423.18 1558.47,47.2441 "/>
<polyline clip-path="url(#clip332)" style="stroke:#000000; stroke-linecap:round; stroke-linejoin:round; stroke-width:2; stroke-opacity:0.1; fill:none" points="2183.16,1423.18 2183.16,47.2441 "/>
<polyline clip-path="url(#clip332)" style="stroke:#000000; stroke-linecap:round; stroke-linejoin:round; stroke-width:2; stroke-opacity:0.1; fill:none" points="249.542,1384.24 2352.76,1384.24 "/>
<polyline clip-path="url(#clip332)" style="stroke:#000000; stroke-linecap:round; stroke-linejoin:round; stroke-width:2; stroke-opacity:0.1; fill:none" points="249.542,1146.48 2352.76,1146.48 "/>
<polyline clip-path="url(#clip332)" style="stroke:#000000; stroke-linecap:round; stroke-linejoin:round; stroke-width:2; stroke-opacity:0.1; fill:none" points="249.542,908.716 2352.76,908.716 "/>
<polyline clip-path="url(#clip332)" style="stroke:#000000; stroke-linecap:round; stroke-linejoin:round; stroke-width:2; stroke-opacity:0.1; fill:none" points="249.542,670.954 2352.76,670.954 "/>
<polyline clip-path="url(#clip332)" style="stroke:#000000; stroke-linecap:round; stroke-linejoin:round; stroke-width:2; stroke-opacity:0.1; fill:none" points="249.542,433.193 2352.76,433.193 "/>
<polyline clip-path="url(#clip332)" style="stroke:#000000; stroke-linecap:round; stroke-linejoin:round; stroke-width:2; stroke-opacity:0.1; fill:none" points="249.542,195.431 2352.76,195.431 "/>
<polyline clip-path="url(#clip330)" style="stroke:#000000; stroke-linecap:round; stroke-linejoin:round; stroke-width:4; stroke-opacity:1; fill:none" points="249.542,1423.18 2352.76,1423.18 "/>
<polyline clip-path="url(#clip330)" style="stroke:#000000; stroke-linecap:round; stroke-linejoin:round; stroke-width:4; stroke-opacity:1; fill:none" points="309.067,1423.18 309.067,1404.28 "/>
<polyline clip-path="url(#clip330)" style="stroke:#000000; stroke-linecap:round; stroke-linejoin:round; stroke-width:4; stroke-opacity:1; fill:none" points="933.766,1423.18 933.766,1404.28 "/>
<polyline clip-path="url(#clip330)" style="stroke:#000000; stroke-linecap:round; stroke-linejoin:round; stroke-width:4; stroke-opacity:1; fill:none" points="1558.47,1423.18 1558.47,1404.28 "/>
<polyline clip-path="url(#clip330)" style="stroke:#000000; stroke-linecap:round; stroke-linejoin:round; stroke-width:4; stroke-opacity:1; fill:none" points="2183.16,1423.18 2183.16,1404.28 "/>
<path clip-path="url(#clip330)" d="M309.067 1454.1 Q305.456 1454.1 303.627 1457.66 Q301.822 1461.2 301.822 1468.33 Q301.822 1475.44 303.627 1479.01 Q305.456 1482.55 309.067 1482.55 Q312.701 1482.55 314.507 1479.01 Q316.335 1475.44 316.335 1468.33 Q316.335 1461.2 314.507 1457.66 Q312.701 1454.1 309.067 1454.1 M309.067 1450.39 Q314.877 1450.39 317.933 1455 Q321.011 1459.58 321.011 1468.33 Q321.011 1477.06 317.933 1481.67 Q314.877 1486.25 309.067 1486.25 Q303.257 1486.25 300.178 1481.67 Q297.123 1477.06 297.123 1468.33 Q297.123 1459.58 300.178 1455 Q303.257 1450.39 309.067 1450.39 Z" fill="#000000" fill-rule="nonzero" fill-opacity="1" /><path clip-path="url(#clip330)" d="M924.148 1481.64 L931.787 1481.64 L931.787 1455.28 L923.477 1456.95 L923.477 1452.69 L931.741 1451.02 L936.417 1451.02 L936.417 1481.64 L944.056 1481.64 L944.056 1485.58 L924.148 1485.58 L924.148 1481.64 Z" fill="#000000" fill-rule="nonzero" fill-opacity="1" /><path clip-path="url(#clip330)" d="M1553.12 1481.64 L1569.44 1481.64 L1569.44 1485.58 L1547.49 1485.58 L1547.49 1481.64 Q1550.16 1478.89 1554.74 1474.26 Q1559.35 1469.61 1560.53 1468.27 Q1562.77 1465.74 1563.65 1464.01 Q1564.55 1462.25 1564.55 1460.56 Q1564.55 1457.8 1562.61 1456.07 Q1560.69 1454.33 1557.59 1454.33 Q1555.39 1454.33 1552.93 1455.09 Q1550.5 1455.86 1547.72 1457.41 L1547.72 1452.69 Q1550.55 1451.55 1553 1450.97 Q1555.46 1450.39 1557.49 1450.39 Q1562.86 1450.39 1566.06 1453.08 Q1569.25 1455.77 1569.25 1460.26 Q1569.25 1462.39 1568.44 1464.31 Q1567.66 1466.2 1565.55 1468.8 Q1564.97 1469.47 1561.87 1472.69 Q1558.77 1475.88 1553.12 1481.64 Z" fill="#000000" fill-rule="nonzero" fill-opacity="1" /><path clip-path="url(#clip330)" d="M2187.41 1466.95 Q2190.77 1467.66 2192.64 1469.93 Q2194.54 1472.2 2194.54 1475.53 Q2194.54 1480.65 2191.02 1483.45 Q2187.51 1486.25 2181.02 1486.25 Q2178.85 1486.25 2176.53 1485.81 Q2174.24 1485.39 2171.79 1484.54 L2171.79 1480.02 Q2173.73 1481.16 2176.05 1481.74 Q2178.36 1482.32 2180.88 1482.32 Q2185.28 1482.32 2187.57 1480.58 Q2189.89 1478.84 2189.89 1475.53 Q2189.89 1472.48 2187.74 1470.77 Q2185.61 1469.03 2181.79 1469.03 L2177.76 1469.03 L2177.76 1465.19 L2181.97 1465.19 Q2185.42 1465.19 2187.25 1463.82 Q2189.08 1462.43 2189.08 1459.84 Q2189.08 1457.18 2187.18 1455.77 Q2185.31 1454.33 2181.79 1454.33 Q2179.87 1454.33 2177.67 1454.75 Q2175.47 1455.16 2172.83 1456.04 L2172.83 1451.88 Q2175.49 1451.14 2177.81 1450.77 Q2180.14 1450.39 2182.2 1450.39 Q2187.53 1450.39 2190.63 1452.83 Q2193.73 1455.23 2193.73 1459.35 Q2193.73 1462.22 2192.09 1464.21 Q2190.45 1466.18 2187.41 1466.95 Z" fill="#000000" fill-rule="nonzero" fill-opacity="1" /><path clip-path="url(#clip330)" d="M1205.79 1561.55 Q1206.94 1563.08 1210.37 1563.08 L1213.21 1563.08 L1213.21 1568.04 L1209.67 1568.04 Q1203.94 1568.04 1201.33 1564.99 Q1198.72 1561.87 1198.72 1555.12 L1198.72 1538.25 L1185.36 1538.25 L1185.36 1532.4 L1218.24 1532.4 L1218.24 1538.25 L1204.71 1538.25 L1204.71 1555.47 Q1204.71 1560.09 1205.79 1561.55 Z" fill="#000000" fill-rule="nonzero" fill-opacity="1" /><path clip-path="url(#clip330)" d="M1258.69 1520.52 L1264.1 1520.52 L1247.55 1574.09 L1242.14 1574.09 L1258.69 1520.52 Z" fill="#000000" fill-rule="nonzero" fill-opacity="1" /><path clip-path="url(#clip330)" d="M1291.22 1520.52 L1297.65 1520.52 L1297.65 1540 L1321.01 1540 L1321.01 1520.52 L1327.44 1520.52 L1327.44 1568.04 L1321.01 1568.04 L1321.01 1545.41 L1297.65 1545.41 L1297.65 1568.04 L1291.22 1568.04 L1291.22 1520.52 Z" fill="#000000" fill-rule="nonzero" fill-opacity="1" /><path clip-path="url(#clip330)" d="M1351.98 1546.5 Q1350.39 1543.76 1347.17 1543.76 Q1343.96 1543.76 1342.37 1546.5 Q1340.74 1549.23 1340.74 1554.71 Q1340.74 1560.21 1342.37 1562.95 Q1343.96 1565.69 1347.17 1565.69 Q1350.39 1565.69 1351.98 1562.95 Q1353.6 1560.21 1353.6 1554.71 Q1353.6 1549.23 1351.98 1546.5 M1347.17 1540.93 Q1352.3 1540.93 1355 1544.46 Q1357.71 1547.99 1357.71 1554.71 Q1357.71 1561.46 1355 1564.99 Q1352.3 1568.52 1347.17 1568.52 Q1342.02 1568.52 1339.31 1564.99 Q1336.61 1561.46 1336.61 1554.71 Q1336.61 1547.99 1339.31 1544.46 Q1342.02 1540.93 1347.17 1540.93 Z" fill="#000000" fill-rule="nonzero" fill-opacity="1" /><path clip-path="url(#clip330)" d="M1364.33 1533.83 L1390.01 1533.83 L1390.01 1536.85 L1364.33 1536.85 L1364.33 1533.83 Z" fill="#000000" fill-rule="nonzero" fill-opacity="1" /><path clip-path="url(#clip330)" d="M1399.34 1543.28 L1405.83 1543.28 L1405.83 1523.83 L1398.74 1525.14 L1398.74 1521.45 L1406.06 1520.21 L1410.42 1520.21 L1410.42 1543.28 L1416.94 1543.28 L1416.94 1546.78 L1399.34 1546.78 L1399.34 1543.28 Z" fill="#000000" fill-rule="nonzero" fill-opacity="1" /><polyline clip-path="url(#clip330)" style="stroke:#000000; stroke-linecap:round; stroke-linejoin:round; stroke-width:4; stroke-opacity:1; fill:none" points="249.542,1423.18 249.542,47.2441 "/>
<polyline clip-path="url(#clip330)" style="stroke:#000000; stroke-linecap:round; stroke-linejoin:round; stroke-width:4; stroke-opacity:1; fill:none" points="249.542,1384.24 268.44,1384.24 "/>
<polyline clip-path="url(#clip330)" style="stroke:#000000; stroke-linecap:round; stroke-linejoin:round; stroke-width:4; stroke-opacity:1; fill:none" points="249.542,1146.48 268.44,1146.48 "/>
<polyline clip-path="url(#clip330)" style="stroke:#000000; stroke-linecap:round; stroke-linejoin:round; stroke-width:4; stroke-opacity:1; fill:none" points="249.542,908.716 268.44,908.716 "/>
<polyline clip-path="url(#clip330)" style="stroke:#000000; stroke-linecap:round; stroke-linejoin:round; stroke-width:4; stroke-opacity:1; fill:none" points="249.542,670.954 268.44,670.954 "/>
<polyline clip-path="url(#clip330)" style="stroke:#000000; stroke-linecap:round; stroke-linejoin:round; stroke-width:4; stroke-opacity:1; fill:none" points="249.542,433.193 268.44,433.193 "/>
<polyline clip-path="url(#clip330)" style="stroke:#000000; stroke-linecap:round; stroke-linejoin:round; stroke-width:4; stroke-opacity:1; fill:none" points="249.542,195.431 268.44,195.431 "/>
<path clip-path="url(#clip330)" d="M126.205 1370.04 Q122.593 1370.04 120.765 1373.6 Q118.959 1377.14 118.959 1384.27 Q118.959 1391.38 120.765 1394.94 Q122.593 1398.49 126.205 1398.49 Q129.839 1398.49 131.644 1394.94 Q133.473 1391.38 133.473 1384.27 Q133.473 1377.14 131.644 1373.6 Q129.839 1370.04 126.205 1370.04 M126.205 1366.33 Q132.015 1366.33 135.07 1370.94 Q138.149 1375.52 138.149 1384.27 Q138.149 1393 135.07 1397.61 Q132.015 1402.19 126.205 1402.19 Q120.394 1402.19 117.316 1397.61 Q114.26 1393 114.26 1384.27 Q114.26 1375.52 117.316 1370.94 Q120.394 1366.33 126.205 1366.33 Z" fill="#000000" fill-rule="nonzero" fill-opacity="1" /><path clip-path="url(#clip330)" d="M146.366 1395.64 L151.251 1395.64 L151.251 1401.52 L146.366 1401.52 L146.366 1395.64 Z" fill="#000000" fill-rule="nonzero" fill-opacity="1" /><path clip-path="url(#clip330)" d="M171.436 1370.04 Q167.825 1370.04 165.996 1373.6 Q164.19 1377.14 164.19 1384.27 Q164.19 1391.38 165.996 1394.94 Q167.825 1398.49 171.436 1398.49 Q175.07 1398.49 176.876 1394.94 Q178.704 1391.38 178.704 1384.27 Q178.704 1377.14 176.876 1373.6 Q175.07 1370.04 171.436 1370.04 M171.436 1366.33 Q177.246 1366.33 180.301 1370.94 Q183.38 1375.52 183.38 1384.27 Q183.38 1393 180.301 1397.61 Q177.246 1402.19 171.436 1402.19 Q165.626 1402.19 162.547 1397.61 Q159.491 1393 159.491 1384.27 Q159.491 1375.52 162.547 1370.94 Q165.626 1366.33 171.436 1366.33 Z" fill="#000000" fill-rule="nonzero" fill-opacity="1" /><path clip-path="url(#clip330)" d="M201.598 1370.04 Q197.987 1370.04 196.158 1373.6 Q194.352 1377.14 194.352 1384.27 Q194.352 1391.38 196.158 1394.94 Q197.987 1398.49 201.598 1398.49 Q205.232 1398.49 207.037 1394.94 Q208.866 1391.38 208.866 1384.27 Q208.866 1377.14 207.037 1373.6 Q205.232 1370.04 201.598 1370.04 M201.598 1366.33 Q207.408 1366.33 210.463 1370.94 Q213.542 1375.52 213.542 1384.27 Q213.542 1393 210.463 1397.61 Q207.408 1402.19 201.598 1402.19 Q195.787 1402.19 192.709 1397.61 Q189.653 1393 189.653 1384.27 Q189.653 1375.52 192.709 1370.94 Q195.787 1366.33 201.598 1366.33 Z" fill="#000000" fill-rule="nonzero" fill-opacity="1" /><path clip-path="url(#clip330)" d="M127.2 1132.28 Q123.589 1132.28 121.76 1135.84 Q119.955 1139.38 119.955 1146.51 Q119.955 1153.62 121.76 1157.18 Q123.589 1160.72 127.2 1160.72 Q130.834 1160.72 132.64 1157.18 Q134.468 1153.62 134.468 1146.51 Q134.468 1139.38 132.64 1135.84 Q130.834 1132.28 127.2 1132.28 M127.2 1128.57 Q133.01 1128.57 136.066 1133.18 Q139.144 1137.76 139.144 1146.51 Q139.144 1155.24 136.066 1159.84 Q133.01 1164.43 127.2 1164.43 Q121.39 1164.43 118.311 1159.84 Q115.256 1155.24 115.256 1146.51 Q115.256 1137.76 118.311 1133.18 Q121.39 1128.57 127.2 1128.57 Z" fill="#000000" fill-rule="nonzero" fill-opacity="1" /><path clip-path="url(#clip330)" d="M147.362 1157.88 L152.246 1157.88 L152.246 1163.76 L147.362 1163.76 L147.362 1157.88 Z" fill="#000000" fill-rule="nonzero" fill-opacity="1" /><path clip-path="url(#clip330)" d="M172.431 1132.28 Q168.82 1132.28 166.991 1135.84 Q165.186 1139.38 165.186 1146.51 Q165.186 1153.62 166.991 1157.18 Q168.82 1160.72 172.431 1160.72 Q176.065 1160.72 177.871 1157.18 Q179.7 1153.62 179.7 1146.51 Q179.7 1139.38 177.871 1135.84 Q176.065 1132.28 172.431 1132.28 M172.431 1128.57 Q178.241 1128.57 181.297 1133.18 Q184.376 1137.76 184.376 1146.51 Q184.376 1155.24 181.297 1159.84 Q178.241 1164.43 172.431 1164.43 Q166.621 1164.43 163.542 1159.84 Q160.487 1155.24 160.487 1146.51 Q160.487 1137.76 163.542 1133.18 Q166.621 1128.57 172.431 1128.57 Z" fill="#000000" fill-rule="nonzero" fill-opacity="1" /><path clip-path="url(#clip330)" d="M192.639 1129.2 L210.996 1129.2 L210.996 1133.13 L196.922 1133.13 L196.922 1141.6 Q197.94 1141.26 198.959 1141.09 Q199.977 1140.91 200.996 1140.91 Q206.783 1140.91 210.162 1144.08 Q213.542 1147.25 213.542 1152.67 Q213.542 1158.25 210.07 1161.35 Q206.598 1164.43 200.278 1164.43 Q198.102 1164.43 195.834 1164.06 Q193.588 1163.69 191.181 1162.95 L191.181 1158.25 Q193.264 1159.38 195.487 1159.94 Q197.709 1160.49 200.186 1160.49 Q204.19 1160.49 206.528 1158.39 Q208.866 1156.28 208.866 1152.67 Q208.866 1149.06 206.528 1146.95 Q204.19 1144.84 200.186 1144.84 Q198.311 1144.84 196.436 1145.26 Q194.584 1145.68 192.639 1146.56 L192.639 1129.2 Z" fill="#000000" fill-rule="nonzero" fill-opacity="1" /><path clip-path="url(#clip330)" d="M126.205 894.514 Q122.593 894.514 120.765 898.079 Q118.959 901.621 118.959 908.75 Q118.959 915.857 120.765 919.421 Q122.593 922.963 126.205 922.963 Q129.839 922.963 131.644 919.421 Q133.473 915.857 133.473 908.75 Q133.473 901.621 131.644 898.079 Q129.839 894.514 126.205 894.514 M126.205 890.811 Q132.015 890.811 135.07 895.417 Q138.149 900 138.149 908.75 Q138.149 917.477 135.07 922.083 Q132.015 926.667 126.205 926.667 Q120.394 926.667 117.316 922.083 Q114.26 917.477 114.26 908.75 Q114.26 900 117.316 895.417 Q120.394 890.811 126.205 890.811 Z" fill="#000000" fill-rule="nonzero" fill-opacity="1" /><path clip-path="url(#clip330)" d="M146.366 920.116 L151.251 920.116 L151.251 925.996 L146.366 925.996 L146.366 920.116 Z" fill="#000000" fill-rule="nonzero" fill-opacity="1" /><path clip-path="url(#clip330)" d="M162.246 922.06 L169.885 922.06 L169.885 895.695 L161.575 897.361 L161.575 893.102 L169.839 891.436 L174.514 891.436 L174.514 922.06 L182.153 922.06 L182.153 925.996 L162.246 925.996 L162.246 922.06 Z" fill="#000000" fill-rule="nonzero" fill-opacity="1" /><path clip-path="url(#clip330)" d="M201.598 894.514 Q197.987 894.514 196.158 898.079 Q194.352 901.621 194.352 908.75 Q194.352 915.857 196.158 919.421 Q197.987 922.963 201.598 922.963 Q205.232 922.963 207.037 919.421 Q208.866 915.857 208.866 908.75 Q208.866 901.621 207.037 898.079 Q205.232 894.514 201.598 894.514 M201.598 890.811 Q207.408 890.811 210.463 895.417 Q213.542 900 213.542 908.75 Q213.542 917.477 210.463 922.083 Q207.408 926.667 201.598 926.667 Q195.787 926.667 192.709 922.083 Q189.653 917.477 189.653 908.75 Q189.653 900 192.709 895.417 Q195.787 890.811 201.598 890.811 Z" fill="#000000" fill-rule="nonzero" fill-opacity="1" /><path clip-path="url(#clip330)" d="M127.2 656.753 Q123.589 656.753 121.76 660.318 Q119.955 663.859 119.955 670.989 Q119.955 678.095 121.76 681.66 Q123.589 685.202 127.2 685.202 Q130.834 685.202 132.64 681.66 Q134.468 678.095 134.468 670.989 Q134.468 663.859 132.64 660.318 Q130.834 656.753 127.2 656.753 M127.2 653.049 Q133.01 653.049 136.066 657.656 Q139.144 662.239 139.144 670.989 Q139.144 679.716 136.066 684.322 Q133.01 688.905 127.2 688.905 Q121.39 688.905 118.311 684.322 Q115.256 679.716 115.256 670.989 Q115.256 662.239 118.311 657.656 Q121.39 653.049 127.2 653.049 Z" fill="#000000" fill-rule="nonzero" fill-opacity="1" /><path clip-path="url(#clip330)" d="M147.362 682.355 L152.246 682.355 L152.246 688.234 L147.362 688.234 L147.362 682.355 Z" fill="#000000" fill-rule="nonzero" fill-opacity="1" /><path clip-path="url(#clip330)" d="M163.241 684.299 L170.88 684.299 L170.88 657.933 L162.57 659.6 L162.57 655.341 L170.834 653.674 L175.51 653.674 L175.51 684.299 L183.149 684.299 L183.149 688.234 L163.241 688.234 L163.241 684.299 Z" fill="#000000" fill-rule="nonzero" fill-opacity="1" /><path clip-path="url(#clip330)" d="M192.639 653.674 L210.996 653.674 L210.996 657.609 L196.922 657.609 L196.922 666.081 Q197.94 665.734 198.959 665.572 Q199.977 665.387 200.996 665.387 Q206.783 665.387 210.162 668.558 Q213.542 671.73 213.542 677.146 Q213.542 682.725 210.07 685.827 Q206.598 688.905 200.278 688.905 Q198.102 688.905 195.834 688.535 Q193.588 688.165 191.181 687.424 L191.181 682.725 Q193.264 683.859 195.487 684.415 Q197.709 684.97 200.186 684.97 Q204.19 684.97 206.528 682.864 Q208.866 680.757 208.866 677.146 Q208.866 673.535 206.528 671.429 Q204.19 669.322 200.186 669.322 Q198.311 669.322 196.436 669.739 Q194.584 670.156 192.639 671.035 L192.639 653.674 Z" fill="#000000" fill-rule="nonzero" fill-opacity="1" /><path clip-path="url(#clip330)" d="M126.205 418.991 Q122.593 418.991 120.765 422.556 Q118.959 426.098 118.959 433.227 Q118.959 440.334 120.765 443.899 Q122.593 447.44 126.205 447.44 Q129.839 447.44 131.644 443.899 Q133.473 440.334 133.473 433.227 Q133.473 426.098 131.644 422.556 Q129.839 418.991 126.205 418.991 M126.205 415.288 Q132.015 415.288 135.07 419.894 Q138.149 424.478 138.149 433.227 Q138.149 441.954 135.07 446.561 Q132.015 451.144 126.205 451.144 Q120.394 451.144 117.316 446.561 Q114.26 441.954 114.26 433.227 Q114.26 424.478 117.316 419.894 Q120.394 415.288 126.205 415.288 Z" fill="#000000" fill-rule="nonzero" fill-opacity="1" /><path clip-path="url(#clip330)" d="M146.366 444.593 L151.251 444.593 L151.251 450.473 L146.366 450.473 L146.366 444.593 Z" fill="#000000" fill-rule="nonzero" fill-opacity="1" /><path clip-path="url(#clip330)" d="M165.464 446.538 L181.783 446.538 L181.783 450.473 L159.839 450.473 L159.839 446.538 Q162.501 443.783 167.084 439.153 Q171.69 434.501 172.871 433.158 Q175.116 430.635 175.996 428.899 Q176.899 427.14 176.899 425.45 Q176.899 422.695 174.954 420.959 Q173.033 419.223 169.931 419.223 Q167.732 419.223 165.278 419.987 Q162.848 420.751 160.07 422.302 L160.07 417.579 Q162.894 416.445 165.348 415.866 Q167.802 415.288 169.839 415.288 Q175.209 415.288 178.403 417.973 Q181.598 420.658 181.598 425.149 Q181.598 427.278 180.788 429.2 Q180.001 431.098 177.894 433.69 Q177.315 434.362 174.214 437.579 Q171.112 440.774 165.464 446.538 Z" fill="#000000" fill-rule="nonzero" fill-opacity="1" /><path clip-path="url(#clip330)" d="M201.598 418.991 Q197.987 418.991 196.158 422.556 Q194.352 426.098 194.352 433.227 Q194.352 440.334 196.158 443.899 Q197.987 447.44 201.598 447.44 Q205.232 447.44 207.037 443.899 Q208.866 440.334 208.866 433.227 Q208.866 426.098 207.037 422.556 Q205.232 418.991 201.598 418.991 M201.598 415.288 Q207.408 415.288 210.463 419.894 Q213.542 424.478 213.542 433.227 Q213.542 441.954 210.463 446.561 Q207.408 451.144 201.598 451.144 Q195.787 451.144 192.709 446.561 Q189.653 441.954 189.653 433.227 Q189.653 424.478 192.709 419.894 Q195.787 415.288 201.598 415.288 Z" fill="#000000" fill-rule="nonzero" fill-opacity="1" /><path clip-path="url(#clip330)" d="M127.2 181.23 Q123.589 181.23 121.76 184.795 Q119.955 188.336 119.955 195.466 Q119.955 202.573 121.76 206.137 Q123.589 209.679 127.2 209.679 Q130.834 209.679 132.64 206.137 Q134.468 202.573 134.468 195.466 Q134.468 188.336 132.64 184.795 Q130.834 181.23 127.2 181.23 M127.2 177.526 Q133.01 177.526 136.066 182.133 Q139.144 186.716 139.144 195.466 Q139.144 204.193 136.066 208.799 Q133.01 213.383 127.2 213.383 Q121.39 213.383 118.311 208.799 Q115.256 204.193 115.256 195.466 Q115.256 186.716 118.311 182.133 Q121.39 177.526 127.2 177.526 Z" fill="#000000" fill-rule="nonzero" fill-opacity="1" /><path clip-path="url(#clip330)" d="M147.362 206.832 L152.246 206.832 L152.246 212.711 L147.362 212.711 L147.362 206.832 Z" fill="#000000" fill-rule="nonzero" fill-opacity="1" /><path clip-path="url(#clip330)" d="M166.459 208.776 L182.778 208.776 L182.778 212.711 L160.834 212.711 L160.834 208.776 Q163.496 206.022 168.079 201.392 Q172.686 196.739 173.866 195.397 Q176.112 192.873 176.991 191.137 Q177.894 189.378 177.894 187.688 Q177.894 184.934 175.95 183.198 Q174.028 181.462 170.927 181.462 Q168.727 181.462 166.274 182.225 Q163.843 182.989 161.065 184.54 L161.065 179.818 Q163.89 178.684 166.343 178.105 Q168.797 177.526 170.834 177.526 Q176.204 177.526 179.399 180.212 Q182.593 182.897 182.593 187.387 Q182.593 189.517 181.783 191.438 Q180.996 193.336 178.889 195.929 Q178.311 196.6 175.209 199.818 Q172.107 203.012 166.459 208.776 Z" fill="#000000" fill-rule="nonzero" fill-opacity="1" /><path clip-path="url(#clip330)" d="M192.639 178.151 L210.996 178.151 L210.996 182.087 L196.922 182.087 L196.922 190.559 Q197.94 190.211 198.959 190.049 Q199.977 189.864 200.996 189.864 Q206.783 189.864 210.162 193.036 Q213.542 196.207 213.542 201.623 Q213.542 207.202 210.07 210.304 Q206.598 213.383 200.278 213.383 Q198.102 213.383 195.834 213.012 Q193.588 212.642 191.181 211.901 L191.181 207.202 Q193.264 208.336 195.487 208.892 Q197.709 209.447 200.186 209.447 Q204.19 209.447 206.528 207.341 Q208.866 205.235 208.866 201.623 Q208.866 198.012 206.528 195.906 Q204.19 193.799 200.186 193.799 Q198.311 193.799 196.436 194.216 Q194.584 194.633 192.639 195.512 L192.639 178.151 Z" fill="#000000" fill-rule="nonzero" fill-opacity="1" /><path clip-path="url(#clip330)" d="M33.8307 857.736 Q33.2578 858.723 33.0032 859.9 Q32.7167 861.046 32.7167 862.447 Q32.7167 867.412 35.9632 870.085 Q39.1779 872.727 45.2253 872.727 L64.0042 872.727 L64.0042 878.615 L28.3562 878.615 L28.3562 872.727 L33.8944 872.727 Q30.6479 870.881 29.0883 867.921 Q27.4968 864.961 27.4968 860.728 Q27.4968 860.123 27.5923 859.391 Q27.656 858.659 27.8151 857.768 L33.8307 857.736 Z" fill="#000000" fill-rule="nonzero" fill-opacity="1" /><path clip-path="url(#clip330)" d="M44.1113 838.066 L47.1987 838.066 Q46.4985 839.625 46.1484 841.312 Q45.7982 842.967 45.7982 844.782 Q45.7982 847.551 46.5303 848.919 Q47.2942 850.288 48.7901 850.288 Q49.9359 850.288 50.5725 849.301 Q51.2409 848.315 51.8138 845.355 L52.0685 844.081 Q52.8323 840.103 54.1691 838.511 Q55.5378 836.856 57.9886 836.856 Q60.7576 836.856 62.3809 839.339 Q64.0042 841.79 64.0042 846.118 Q64.0042 847.933 63.6859 849.906 Q63.3676 851.848 62.7628 854.012 L59.3572 854.012 Q60.312 851.975 60.7895 849.97 Q61.2669 847.996 61.2669 846.055 Q61.2669 843.445 60.4712 842.044 Q59.6755 840.644 58.2432 840.644 Q56.9064 840.644 56.1743 841.662 Q55.5378 842.554 54.8057 846.087 L54.5511 847.36 Q53.8827 850.797 52.5777 852.325 Q51.2409 853.853 48.9174 853.853 Q46.1165 853.853 44.5888 851.593 Q43.0292 849.365 43.0292 845.227 Q43.0292 843.19 43.3156 841.376 Q43.5702 839.562 44.1113 838.066 Z" fill="#000000" fill-rule="nonzero" fill-opacity="1" /><path clip-path="url(#clip330)" d="M16.4842 796.148 L16.4842 790.737 L70.0516 807.288 L70.0516 812.699 L16.4842 796.148 Z" fill="#000000" fill-rule="nonzero" fill-opacity="1" /><path clip-path="url(#clip330)" d="M14.5426 749.805 Q21.8632 754.07 29.0246 756.139 Q36.186 758.208 43.5384 758.208 Q50.8908 758.208 58.1159 756.139 Q65.3091 754.039 72.5979 749.805 L72.5979 754.898 Q65.1182 759.672 57.8931 762.059 Q50.668 764.415 43.5384 764.415 Q36.4406 764.415 29.2474 762.059 Q22.0542 759.704 14.5426 754.898 L14.5426 749.805 Z" fill="#000000" fill-rule="nonzero" fill-opacity="1" /><path clip-path="url(#clip330)" d="M29.7248 712.789 L35.1993 712.789 Q33.8307 715.271 33.1623 717.786 Q32.4621 720.268 32.4621 722.815 Q32.4621 728.512 36.0905 731.663 Q39.6872 734.814 46.212 734.814 Q52.7369 734.814 56.3653 731.663 Q59.9619 728.512 59.9619 722.815 Q59.9619 720.268 59.2935 717.786 Q58.5933 715.271 57.2247 712.789 L62.6355 712.789 Q63.7814 715.24 64.3543 717.881 Q64.9272 720.491 64.9272 723.451 Q64.9272 731.504 59.8664 736.246 Q54.8057 740.989 46.212 740.989 Q37.491 740.989 32.4939 736.215 Q27.4968 731.408 27.4968 723.069 Q27.4968 720.364 28.0697 717.786 Q28.6108 715.208 29.7248 712.789 Z" fill="#000000" fill-rule="nonzero" fill-opacity="1" /><path clip-path="url(#clip330)" d="M16.4842 692.196 L16.4842 686.785 L70.0516 703.336 L70.0516 708.747 L16.4842 692.196 Z" fill="#000000" fill-rule="nonzero" fill-opacity="1" /><path clip-path="url(#clip330)" d="M16.4842 680.387 L16.4842 673.958 L35.9632 673.958 L35.9632 650.596 L16.4842 650.596 L16.4842 644.166 L64.0042 644.166 L64.0042 650.596 L41.3741 650.596 L41.3741 673.958 L64.0042 673.958 L64.0042 680.387 L16.4842 680.387 Z" fill="#000000" fill-rule="nonzero" fill-opacity="1" /><path clip-path="url(#clip330)" d="M42.4562 619.627 Q39.719 621.218 39.719 624.433 Q39.719 627.647 42.4562 629.239 Q45.1935 630.862 50.668 630.862 Q56.1743 630.862 58.9116 629.239 Q61.6488 627.647 61.6488 624.433 Q61.6488 621.218 58.9116 619.627 Q56.1743 618.003 50.668 618.003 Q45.1935 618.003 42.4562 619.627 M36.8862 624.433 Q36.8862 619.308 40.4192 616.603 Q43.9522 613.898 50.668 613.898 Q57.4157 613.898 60.9486 616.603 Q64.4816 619.308 64.4816 624.433 Q64.4816 629.589 60.9486 632.294 Q57.4157 635 50.668 635 Q43.9522 635 40.4192 632.294 Q36.8862 629.589 36.8862 624.433 Z" fill="#000000" fill-rule="nonzero" fill-opacity="1" /><path clip-path="url(#clip330)" d="M14.5426 606.418 L14.5426 601.325 Q22.0542 596.551 29.2474 594.196 Q36.4406 591.809 43.5384 591.809 Q50.668 591.809 57.8931 594.196 Q65.1182 596.551 72.5979 601.325 L72.5979 606.418 Q65.3091 602.185 58.1159 600.116 Q50.8908 598.015 43.5384 598.015 Q36.186 598.015 29.0246 600.116 Q21.8632 602.185 14.5426 606.418 Z" fill="#000000" fill-rule="nonzero" fill-opacity="1" /><polyline clip-path="url(#clip332)" style="stroke:#009af9; stroke-linecap:round; stroke-linejoin:round; stroke-width:4; stroke-opacity:1; fill:none" points="309.067,1384.24 309.067,1384.24 309.067,1384.24 309.067,1384.24 309.067,1384.24 309.067,1384.24 309.067,1384.24 309.067,1384.24 309.067,1384.24 309.067,1384.24 309.067,1384.24 309.067,1384.24 309.067,1384.24 309.067,1384.24 309.067,1384.24 309.067,1384.24 309.067,1384.24 309.067,1384.24 309.067,1384.24 309.067,1384.24 309.067,1384.24 309.067,1384.24 309.067,1384.24 309.067,1384.24 309.067,1384.24 309.067,1384.24 309.067,1384.24 309.067,1384.24 309.067,1384.24 309.067,1384.24 309.067,1384.24 309.067,1384.24 309.067,1384.24 309.067,1384.24 309.067,1384.24 309.067,1384.24 309.067,1384.24 309.067,1384.24 309.067,1384.24 309.067,1384.24 309.067,1384.24 309.067,1384.24 309.067,1384.24 309.067,1384.24 309.067,1384.24 309.067,1384.24 309.067,1384.24 309.067,1384.24 309.067,1384.24 309.067,1384.24 309.067,1384.24 309.067,1384.24 309.067,1384.24 309.067,1384.24 309.067,1384.24 309.067,1384.24 309.067,1384.24 309.067,1384.24 309.067,1384.24 309.067,1384.24 309.067,1384.24 309.067,1384.24 309.067,1384.24 309.067,1384.24 309.067,1384.24 309.067,1384.24 309.067,1384.24 309.067,1384.24 309.067,1384.24 309.067,1384.24 309.067,1384.24 309.067,1384.24 309.067,1384.24 309.067,1384.24 309.067,1384.24 309.067,1384.24 309.067,1384.24 309.067,1384.24 309.067,1384.24 309.067,1384.24 309.067,1384.24 309.067,1384.24 309.067,1384.24 309.067,1384.24 309.067,1384.24 309.067,1384.24 309.067,1384.24 309.067,1384.24 309.067,1384.24 309.067,1384.24 309.067,1384.24 309.067,1384.24 309.067,1384.24 309.067,1384.24 309.067,1384.24 309.067,1384.24 309.067,1384.24 309.067,1384.24 309.067,1384.24 309.067,1384.24 309.067,1384.24 309.067,1384.24 309.067,1384.24 309.067,1384.24 309.067,1384.24 309.067,1384.24 309.067,1384.24 309.067,1384.24 309.067,1384.24 309.067,1384.24 309.067,1384.24 309.067,1384.24 309.068,1384.24 309.068,1384.24 309.068,1384.24 309.068,1384.24 309.068,1384.24 309.068,1384.24 309.068,1384.24 309.068,1384.24 309.068,1384.24 309.068,1384.24 309.068,1384.24 309.068,1384.24 309.068,1384.24 309.068,1384.24 309.068,1384.24 309.068,1384.24 309.068,1384.24 309.068,1384.24 309.068,1384.24 309.068,1384.23 309.068,1384.23 309.068,1384.23 309.068,1384.23 309.068,1384.23 309.068,1384.23 309.068,1384.23 309.068,1384.23 309.068,1384.23 309.068,1384.23 309.068,1384.23 309.068,1384.23 309.068,1384.23 309.068,1384.23 309.068,1384.23 309.068,1384.23 309.068,1384.23 309.068,1384.23 309.068,1384.23 309.068,1384.23 309.068,1384.23 309.068,1384.23 309.068,1384.23 309.068,1384.23 309.068,1384.23 309.068,1384.23 309.068,1384.23 309.068,1384.23 309.068,1384.23 309.068,1384.23 309.068,1384.23 309.068,1384.23 309.068,1384.23 309.068,1384.23 309.068,1384.23 309.068,1384.23 309.068,1384.23 309.068,1384.23 309.068,1384.23 309.068,1384.23 309.068,1384.23 309.068,1384.23 309.068,1384.23 309.068,1384.23 309.068,1384.23 309.068,1384.23 309.068,1384.23 309.068,1384.23 309.069,1384.23 309.069,1384.23 309.069,1384.23 309.069,1384.23 309.069,1384.23 309.069,1384.23 309.069,1384.23 309.069,1384.23 309.069,1384.23 309.069,1384.23 309.069,1384.23 309.069,1384.23 309.069,1384.23 309.069,1384.23 309.069,1384.23 309.069,1384.23 309.069,1384.23 309.069,1384.23 309.069,1384.23 309.069,1384.23 309.069,1384.23 309.069,1384.23 309.069,1384.23 309.069,1384.23 309.069,1384.23 309.069,1384.23 309.069,1384.23 309.069,1384.23 309.069,1384.23 309.069,1384.23 309.069,1384.23 309.069,1384.23 309.069,1384.23 309.069,1384.23 309.07,1384.23 309.07,1384.23 309.07,1384.23 309.07,1384.23 309.07,1384.23 309.07,1384.23 309.07,1384.23 309.07,1384.23 309.07,1384.23 309.07,1384.23 309.07,1384.23 309.07,1384.23 309.07,1384.22 309.07,1384.22 309.07,1384.22 309.07,1384.22 309.07,1384.22 309.07,1384.22 309.07,1384.22 309.07,1384.22 309.07,1384.22 309.07,1384.22 309.07,1384.22 309.071,1384.22 309.071,1384.22 309.071,1384.22 309.071,1384.22 309.071,1384.22 309.071,1384.22 309.071,1384.22 309.071,1384.22 309.071,1384.22 309.071,1384.22 309.071,1384.22 309.071,1384.22 309.071,1384.22 309.071,1384.22 309.071,1384.22 309.071,1384.22 309.072,1384.22 309.072,1384.22 309.072,1384.22 309.072,1384.22 309.072,1384.22 309.072,1384.22 309.072,1384.22 309.072,1384.22 309.072,1384.22 309.072,1384.22 309.072,1384.21 309.072,1384.21 309.072,1384.21 309.073,1384.21 309.073,1384.21 309.073,1384.21 309.073,1384.21 309.073,1384.21 309.073,1384.21 309.073,1384.21 309.073,1384.21 309.073,1384.21 309.073,1384.21 309.074,1384.21 309.074,1384.21 309.074,1384.21 309.074,1384.21 309.074,1384.21 309.074,1384.21 309.074,1384.21 309.074,1384.21 309.074,1384.21 309.075,1384.2 309.075,1384.2 309.075,1384.2 309.075,1384.2 309.075,1384.2 309.075,1384.2 309.075,1384.2 309.076,1384.2 309.076,1384.2 309.076,1384.2 309.076,1384.2 309.076,1384.2 309.076,1384.2 309.076,1384.2 309.077,1384.2 309.077,1384.2 309.077,1384.19 309.077,1384.19 309.077,1384.19 309.077,1384.19 309.078,1384.19 309.078,1384.19 309.078,1384.19 309.078,1384.19 309.078,1384.19 309.079,1384.19 309.079,1384.19 309.079,1384.19 309.079,1384.18 309.08,1384.18 309.08,1384.18 309.08,1384.18 309.08,1384.18 309.08,1384.18 309.081,1384.18 309.081,1384.18 309.081,1384.18 309.081,1384.17 309.082,1384.17 309.082,1384.17 309.082,1384.17 309.083,1384.17 309.083,1384.17 309.083,1384.17 309.084,1384.17 309.084,1384.16 309.084,1384.16 309.084,1384.16 309.085,1384.16 309.085,1384.16 309.086,1384.16 309.086,1384.16 309.086,1384.15 309.087,1384.15 309.087,1384.15 309.087,1384.15 309.088,1384.15 309.088,1384.14 309.089,1384.14 309.089,1384.14 309.09,1384.14 309.09,1384.14 309.091,1384.13 309.091,1384.13 309.092,1384.13 309.092,1384.13 309.093,1384.13 309.093,1384.12 309.094,1384.12 309.094,1384.12 309.095,1384.12 309.095,1384.11 309.096,1384.11 309.097,1384.11 309.097,1384.11 309.098,1384.1 309.099,1384.1 309.099,1384.1 309.1,1384.09 309.101,1384.09 309.101,1384.09 309.102,1384.08 309.103,1384.08 309.104,1384.08 309.105,1384.07 309.106,1384.07 309.106,1384.06 309.107,1384.06 309.108,1384.06 309.109,1384.05 309.11,1384.05 309.111,1384.04 309.112,1384.04 309.113,1384.03 309.114,1384.03 309.116,1384.02 309.117,1384.02 309.118,1384.01 309.119,1384.01 309.12,1384 309.122,1384 309.123,1383.99 309.125,1383.99 309.126,1383.98 309.127,1383.97 309.129,1383.97 309.131,1383.96 309.132,1383.95 309.134,1383.94 309.136,1383.94 309.137,1383.93 309.139,1383.92 309.141,1383.91 309.143,1383.9 309.145,1383.9 309.147,1383.89 309.149,1383.88 309.151,1383.87 309.154,1383.86 309.156,1383.85 309.159,1383.84 309.161,1383.82 309.164,1383.81 309.166,1383.8 309.169,1383.79 309.172,1383.78 309.175,1383.76 309.178,1383.75 309.181,1383.74 309.185,1383.72 309.188,1383.71 309.192,1383.69 309.195,1383.67 309.199,1383.66 309.203,1383.64 309.207,1383.62 309.211,1383.6 309.216,1383.58 309.22,1383.56 309.225,1383.54 309.23,1383.52 309.235,1383.5 309.241,1383.48 309.246,1383.45 309.252,1383.43 309.258,1383.4 309.264,1383.37 309.27,1383.34 309.277,1383.32 309.284,1383.29 309.291,1383.25 309.299,1383.22 309.307,1383.19 309.315,1383.15 309.323,1383.11 309.332,1383.07 309.341,1383.03 309.351,1382.99 309.361,1382.95 309.371,1382.9 309.382,1382.85 309.394,1382.8 309.406,1382.75 309.418,1382.7 309.431,1382.64 309.445,1382.58 309.459,1382.52 309.474,1382.45 309.489,1382.39 309.505,1382.31 309.522,1382.24 309.54,1382.16 309.559,1382.08 309.578,1381.99 309.599,1381.9 309.62,1381.81 309.643,1381.71 309.666,1381.61 309.691,1381.5 309.717,1381.39 309.745,1381.27 309.774,1381.14 309.804,1381.01 309.836,1380.87 309.869,1380.72 309.905,1380.57 309.942,1380.4 309.981,1380.23 310.022,1380.05 310.066,1379.86 310.112,1379.66 310.16,1379.45 310.212,1379.22 310.266,1378.99 310.323,1378.74 310.384,1378.47 310.448,1378.19 310.516,1377.9 310.588,1377.58 310.664,1377.25 310.745,1376.9 310.831,1376.53 310.922,1376.13 311.018,1375.71 311.121,1375.26 311.23,1374.79 311.346,1374.28 311.47,1373.75 311.602,1373.18 311.742,1372.57 311.892,1371.92 312.051,1371.23 312.221,1370.5 312.403,1369.71 312.598,1368.87 312.806,1367.98 313.028,1367.02 313.266,1366 313.521,1364.91 313.794,1363.74 314.088,1362.48 314.402,1361.14 314.74,1359.7 315.104,1358.16 315.494,1356.5 315.915,1354.72 316.367,1352.81 316.855,1350.76 317.379,1348.56 317.941,1346.22 318.502,1343.88 319.064,1341.55 319.651,1339.12 320.239,1336.7 321.03,1333.45 321.19,1332.79 321.648,1330.92 322.106,1329.06 322.673,1326.75 323.251,1324.42 323.828,1322.09 324.229,1320.48 324.519,1319.32 324.771,1318.31 324.984,1317.46 325.165,1316.73 325.322,1316.11 325.461,1315.56 325.585,1315.06 325.709,1314.57 325.816,1314.14 325.923,1313.72 326.016,1313.35 326.108,1312.98 326.19,1312.66 326.271,1312.34 326.343,1312.05 326.415,1311.77 326.487,1311.48 326.551,1311.23 326.614,1310.98 326.677,1310.73 326.733,1310.51 326.789,1310.29 326.838,1310.1 326.877,1309.94 326.903,1309.84 326.924,1309.76 326.944,1309.68 326.963,1309.6 326.982,1309.53 327.002,1309.45 327.017,1309.39 327.041,1309.3 327.06,1309.22 327.093,1309.09 327.117,1309 327.145,1308.89 327.174,1308.77 327.208,1308.64 327.246,1308.49 327.289,1308.32 327.336,1308.14 327.385,1307.94 327.438,1307.73 327.494,1307.51 327.554,1307.28 327.617,1307.03 327.684,1306.77 327.756,1306.49 327.832,1306.19 327.914,1305.87 328.002,1305.52 328.096,1305.15 328.199,1304.75 328.311,1304.31 328.435,1303.83 328.571,1303.3 328.723,1302.7 328.894,1302.04 329.085,1301.29 329.293,1300.48 329.513,1299.63 329.738,1298.76 329.963,1297.89 330.188,1297.02 330.413,1296.15 330.638,1295.28 330.863,1294.42 331.088,1293.55 331.313,1292.69 331.514,1291.92 331.694,1291.23 331.874,1290.54 332.034,1289.93 332.193,1289.33 332.335,1288.79 332.476,1288.25 332.618,1287.71 332.744,1287.23 332.87,1286.75 332.996,1286.27 333.122,1285.8 333.248,1285.32 333.361,1284.89 333.474,1284.46 333.587,1284.03 333.701,1283.61 333.814,1283.18 333.927,1282.75 334.04,1282.33 334.154,1281.9 334.267,1281.47 334.38,1281.05 334.493,1280.62 334.606,1280.2 334.72,1279.77 334.833,1279.35 334.946,1278.93 335.046,1278.55 335.147,1278.18 335.247,1277.8 335.347,1277.43 335.447,1277.05 335.547,1276.68 335.647,1276.31 335.748,1275.93 335.848,1275.56 335.95,1275.18 336.058,1274.78 336.169,1274.37 336.28,1273.96 336.391,1273.54 336.501,1273.13 336.612,1272.72 336.723,1272.31 336.834,1271.9 336.945,1271.49 337.056,1271.08 337.156,1270.71 337.255,1270.35 337.355,1269.98 337.443,1269.65 337.532,1269.33 337.62,1269 337.695,1268.73 337.752,1268.52 337.791,1268.38 337.823,1268.26 337.85,1268.16 337.878,1268.06 337.905,1267.96 337.933,1267.85 337.964,1267.74 338.002,1267.6 338.041,1267.46 338.088,1267.29 338.135,1267.11 338.184,1266.93 338.235,1266.75 338.287,1266.56 338.341,1266.36 338.395,1266.16 338.449,1265.96 338.505,1265.76 338.561,1265.55 338.618,1265.34 338.676,1265.13 338.735,1264.92 338.794,1264.7 338.855,1264.48 338.917,1264.25 338.98,1264.02 339.045,1263.79 339.112,1263.55 339.18,1263.3 339.25,1263.04 339.322,1262.78 339.397,1262.51 339.474,1262.23 339.555,1261.93 339.638,1261.63 339.725,1261.32 339.815,1260.99 339.91,1260.65 340.009,1260.29 340.113,1259.91 340.224,1259.51 340.34,1259.09 340.465,1258.64 340.598,1258.16 340.742,1257.64 340.9,1257.07 341.074,1256.44 341.276,1255.72 341.53,1254.81 341.785,1253.9 342.039,1252.99 342.299,1252.06 342.564,1251.12 342.835,1250.15 343.111,1249.17 343.39,1248.18 343.668,1247.2 343.947,1246.22 344.225,1245.24 344.504,1244.26 344.782,1243.28 345.06,1242.3 345.339,1241.33 345.617,1240.36 345.861,1239.51 346.104,1238.66 346.348,1237.81 346.562,1237.07 346.777,1236.33 346.991,1235.59 347.182,1234.93 347.373,1234.27 347.565,1233.61 347.756,1232.95 347.926,1232.37 348.096,1231.78 348.265,1231.2 348.435,1230.62 348.605,1230.04 348.756,1229.52 348.906,1229.01 349.057,1228.5 349.207,1227.98 349.358,1227.47 349.508,1226.96 349.643,1226.5 349.777,1226.05 349.911,1225.59 350.046,1225.14 350.18,1224.68 350.315,1224.23 350.449,1223.77 350.583,1223.32 350.718,1222.87 350.852,1222.41 350.972,1222.01 351.093,1221.6 351.214,1221.2 351.334,1220.79 351.455,1220.39 351.575,1219.98 351.696,1219.58 351.816,1219.17 351.937,1218.77 352.057,1218.37 352.178,1217.97 352.298,1217.56 352.419,1217.16 352.539,1216.76 352.66,1216.36 352.78,1215.96 352.902,1215.55 353.025,1215.14 353.15,1214.73 353.279,1214.3 353.408,1213.87 353.558,1213.38 353.666,1213.02 353.775,1212.66 353.883,1212.3 353.991,1211.94 354.1,1211.59 354.208,1211.23 354.316,1210.87 354.425,1210.52 354.533,1210.16 354.63,1209.84 354.727,1209.52 354.824,1209.2 354.921,1208.89 355.018,1208.57 355.115,1208.25 355.212,1207.93 355.309,1207.61 355.406,1207.3 355.504,1206.98 355.601,1206.66 355.698,1206.35 355.795,1206.03 355.892,1205.71 355.989,1205.4 356.086,1205.08 356.183,1204.76 356.28,1204.45 356.377,1204.13 356.474,1203.82 356.571,1203.5 356.668,1203.19 356.765,1202.87 356.863,1202.56 356.96,1202.24 357.057,1201.93 357.154,1201.62 357.251,1201.3 357.348,1200.99 357.445,1200.68 357.542,1200.36 357.639,1200.05 357.736,1199.74 357.833,1199.43 357.93,1199.11 358.027,1198.8 358.124,1198.49 358.222,1198.18 358.319,1197.87 358.416,1197.56 358.513,1197.24 358.61,1196.93 358.707,1196.62 358.804,1196.31 358.901,1196 358.998,1195.69 359.095,1195.38 359.192,1195.07 359.289,1194.76 359.386,1194.45 359.483,1194.14 359.581,1193.84 359.678,1193.53 359.775,1193.22 359.874,1192.9 359.973,1192.59 360.072,1192.27 360.173,1191.96 360.274,1191.63 360.376,1191.31 360.479,1190.98 360.584,1190.65 360.689,1190.32 360.795,1189.99 360.903,1189.65 361.011,1189.3 361.121,1188.96 361.232,1188.61 361.344,1188.26 361.457,1187.9 361.571,1187.54 361.686,1187.18 361.803,1186.82 361.92,1186.45 362.039,1186.08 362.159,1185.7 362.28,1185.32 362.403,1184.94 362.526,1184.55 362.651,1184.16 362.777,1183.77 362.905,1183.37 363.033,1182.97 363.163,1182.57 363.293,1182.17 363.426,1181.76 363.559,1181.34 363.693,1180.92 363.829,1180.5 363.966,1180.08 364.104,1179.65 364.244,1179.22 364.385,1178.79 364.526,1178.35 364.67,1177.91 364.814,1177.47 364.96,1177.02 365.107,1176.57 365.255,1176.11 365.405,1175.65 365.555,1175.19 365.707,1174.73 365.861,1174.26 366.015,1173.79 366.171,1173.31 366.329,1172.83 366.487,1172.35 366.647,1171.86 366.808,1171.37 366.971,1170.88 367.135,1170.38 367.3,1169.88 367.467,1169.38 367.635,1168.87 367.804,1168.36 367.975,1167.85 368.147,1167.33 368.32,1166.8 368.495,1166.28 368.672,1165.75 368.849,1165.22 369.029,1164.68 369.21,1164.14 369.392,1163.59 369.575,1163.05 369.761,1162.49 369.947,1161.94 370.136,1161.38 370.325,1160.81 370.517,1160.25 370.71,1159.67 370.904,1159.1 371.1,1158.52 371.298,1157.94 371.498,1157.35 371.699,1156.76 371.901,1156.16 372.106,1155.56 372.312,1154.95 372.52,1154.35 372.729,1153.73 372.94,1153.12 373.154,1152.49 373.369,1151.87 373.585,1151.24 373.804,1150.6 374.024,1149.96 374.247,1149.32 374.471,1148.67 374.697,1148.01 374.926,1147.35 375.156,1146.69 375.388,1146.02 375.623,1145.35 375.859,1144.67 376.098,1143.99 376.338,1143.3 376.581,1142.61 376.826,1141.91 377.074,1141.2 377.323,1140.49 377.575,1139.78 377.83,1139.06 378.086,1138.33 378.346,1137.6 378.607,1136.86 378.871,1136.12 379.138,1135.37 379.407,1134.61 379.679,1133.85 379.954,1133.08 380.232,1132.3 380.512,1131.52 380.795,1130.73 381.081,1129.94 381.37,1129.14 381.662,1128.33 381.958,1127.51 382.256,1126.69 382.558,1125.86 382.863,1125.02 383.171,1124.18 383.483,1123.32 383.798,1122.46 384.118,1121.59 384.44,1120.71 384.767,1119.82 385.098,1118.93 385.433,1118.02 385.771,1117.11 386.115,1116.18 386.462,1115.25 386.814,1114.3 387.171,1113.34 387.533,1112.38 387.9,1111.4 388.272,1110.41 388.649,1109.41 389.032,1108.4 389.42,1107.37 389.815,1106.33 390.216,1105.27 390.623,1104.21 391.038,1103.12 391.459,1102.02 391.888,1100.9 392.325,1099.77 392.77,1098.62 393.224,1097.44 393.687,1096.25 394.16,1095.03 394.644,1093.79 395.139,1092.53 395.646,1091.24 396.167,1089.91 396.703,1088.56 397.254,1087.16 397.824,1085.73 398.415,1084.25 399.029,1082.71 399.672,1081.11 400.35,1079.43 401.074,1077.64 401.866,1075.69 402.785,1073.44 403.99,1070.51 404.844,1068.45 405.757,1066.25 406.671,1064.06 407.585,1061.88 408.498,1059.71 409.412,1057.56 410.325,1055.41 411.239,1053.28 412.152,1051.16 413.066,1049.05 413.98,1046.94 414.893,1044.85 415.807,1042.77 416.72,1040.7 417.634,1038.64 418.548,1036.59 419.461,1034.55 420.375,1032.52 421.288,1030.5 422.202,1028.48 423.116,1026.48 424.029,1024.49 424.943,1022.51 425.856,1020.53 426.77,1018.57 427.683,1016.61 428.597,1014.67 429.511,1012.73 430.424,1010.8 431.338,1008.89 432.251,1006.98 433.165,1005.07 434.079,1003.18 434.992,1001.3 435.906,999.423 436.819,997.556 437.733,995.698 438.646,993.848 439.56,992.006 440.474,990.173 441.387,988.347 442.301,986.53 443.214,984.721 444.128,982.92 445.042,981.126 445.955,979.341 446.869,977.563 447.782,975.793 448.699,974.026 449.619,972.258 450.544,970.488 451.477,968.713 452.417,966.931 453.365,965.141 454.323,963.341 455.291,961.531 456.269,959.709 457.259,957.874 458.26,956.026 459.274,954.163 460.301,952.285 461.341,950.392 462.395,948.482 463.464,946.555 464.549,944.61 465.649,942.645 466.765,940.662 467.899,938.658 469.05,936.632 470.22,934.584 471.409,932.513 472.619,930.418 473.849,928.298 475.102,926.15 476.378,923.975 477.678,921.771 479.004,919.535 480.357,917.267 481.738,914.965 483.15,912.625 484.593,910.247 486.071,907.827 487.585,905.363 489.138,902.85 490.734,900.285 492.376,897.664 494.068,894.98 495.816,892.226 497.626,889.396 499.506,886.476 501.467,883.455 503.523,880.311 505.695,877.017 508.017,873.526 510.551,869.749 513.468,865.449 518.087,858.731 520.701,854.98 523.929,850.397 527.158,845.867 530.386,841.389 533.614,836.961 536.842,832.584 540.07,828.254 543.298,823.973 546.526,819.738 549.755,815.548 552.983,811.404 556.211,807.303 559.439,803.244 562.667,799.228 565.895,795.253 569.123,791.319 572.352,787.424 575.58,783.568 578.808,779.75 582.036,775.969 585.264,772.225 588.492,768.517 591.72,764.844 594.949,761.206 598.177,757.602 601.405,754.031 604.633,750.493 607.861,746.988 611.089,743.514 614.318,740.071 617.546,736.659 620.774,733.276 624.002,729.924 627.23,726.6 630.458,723.305 633.686,720.038 636.915,716.798 640.152,713.576 643.405,710.367 646.677,707.165 649.973,703.967 653.296,700.77 656.648,697.57 660.034,694.367 663.453,691.158 666.909,687.942 670.403,684.718 673.936,681.485 677.51,678.242 681.127,674.989 684.787,671.724 688.492,668.448 692.243,665.159 696.041,661.858 699.887,658.544 703.782,655.217 707.728,651.876 711.725,648.521 715.774,645.152 719.878,641.768 724.036,638.369 728.25,634.956 732.522,631.527 736.851,628.082 741.241,624.622 745.691,621.146 750.203,617.653 754.778,614.144 759.418,610.618 764.124,607.075 768.897,603.515 773.739,599.938 778.651,596.342 783.635,592.729 788.691,589.098 793.822,585.449 799.03,581.781 804.315,578.094 809.679,574.388 815.124,570.663 820.652,566.919 826.264,563.155 831.962,559.371 837.749,555.567 843.625,551.742 849.594,547.897 855.656,544.031 861.814,540.144 868.07,536.236 874.425,532.306 880.883,528.354 887.446,524.38 894.115,520.384 900.893,516.366 907.781,512.325 914.78,508.264 921.884,504.186 929.075,500.102 936.303,496.041 943.531,492.024 950.759,488.049 957.986,484.115 963.902,480.926 968.941,478.23 973.37,475.877 977.8,473.538 981.564,471.561 985.328,469.595 988.657,467.865 991.986,466.143 995.315,464.428 998.644,462.721 1001.97,461.022 1005.65,459.155 1008.07,457.93 1010.55,456.681 1013.03,455.435 1015.51,454.193 1017.98,452.956 1020.46,451.722 1022.94,450.493 1025.46,449.247 1028.51,447.746 1031.56,446.25 1034.07,445.024 1036.58,443.801 1039.09,442.582 1041.6,441.367 1044.11,440.156 1046.61,438.949 1049.12,437.746 1051.63,436.546 1054.15,435.348 1056.71,434.133 1059.33,432.892 1062.04,431.613 1064.86,430.286 1067.82,428.9 1070.95,427.442 1074.26,425.9 1077.81,424.257 1081.65,422.49 1085.83,420.572 1090.47,418.456 1095.77,416.055 1102.32,413.105 1109.74,409.794 1117.16,406.512 1124.57,403.259 1132.01,400.026 1139.52,396.787 1147.13,393.535 1154.86,390.259 1162.73,386.952 1170.77,383.607 1178.98,380.218 1187.39,376.779 1196.02,373.287 1204.86,369.737 1213.95,366.125 1223.3,362.446 1232.92,358.698 1242.82,354.877 1253.02,350.982 1263.52,347.014 1274.32,342.978 1285.4,338.883 1296.73,334.738 1308.34,330.539 1320.31,326.26 1332.83,321.837 1346.19,317.176 1360.75,312.157 1376.83,306.697 1394.28,300.86 1412.66,294.807 1431.89,288.581 1452.12,282.144 1473.64,275.417 1496.96,268.265 1523.12,260.404 1556.24,250.691 1589.35,241.234 1622.47,232.019 1655.58,223.036 1688.7,214.277 1721.82,205.732 1754.93,197.393 1788.05,189.252 1821.16,181.304 1854.28,173.541 1887.4,165.959 1920.51,158.551 1953.63,151.314 1986.74,144.243 2019.86,137.334 2052.97,130.585 2086.09,123.992 2119.21,117.554 2152.32,111.267 2185.44,105.131 2218.55,99.1435 2251.67,93.3045 2284.79,87.6133 2293.23,86.1857 "/>
<path clip-path="url(#clip330)" d="M319.649 196.789 L582.401 196.789 L582.401 93.1086 L319.649 93.1086  Z" fill="#ffffff" fill-rule="evenodd" fill-opacity="1"/>
<polyline clip-path="url(#clip330)" style="stroke:#000000; stroke-linecap:round; stroke-linejoin:round; stroke-width:4; stroke-opacity:1; fill:none" points="319.649,196.789 582.401,196.789 582.401,93.1086 319.649,93.1086 319.649,196.789 "/>
<polyline clip-path="url(#clip330)" style="stroke:#009af9; stroke-linecap:round; stroke-linejoin:round; stroke-width:4; stroke-opacity:1; fill:none" points="343.018,144.949 483.232,144.949 "/>
<path clip-path="url(#clip330)" d="M520.444 164.636 Q518.638 169.266 516.926 170.678 Q515.213 172.09 512.342 172.09 L508.939 172.09 L508.939 168.525 L511.439 168.525 Q513.199 168.525 514.171 167.692 Q515.143 166.858 516.324 163.756 L517.088 161.812 L506.602 136.303 L511.115 136.303 L519.217 156.581 L527.319 136.303 L531.833 136.303 L520.444 164.636 Z" fill="#000000" fill-rule="nonzero" fill-opacity="1" /><path clip-path="url(#clip330)" d="M539.124 158.293 L546.763 158.293 L546.763 131.928 L538.453 133.595 L538.453 129.335 L546.717 127.669 L551.393 127.669 L551.393 158.293 L559.032 158.293 L559.032 162.229 L539.124 162.229 L539.124 158.293 Z" fill="#000000" fill-rule="nonzero" fill-opacity="1" /></svg>
