<?xml version="1.0" encoding="utf-8"?>
<svg xmlns="http://www.w3.org/2000/svg" xmlns:xlink="http://www.w3.org/1999/xlink" width="600" height="400" viewBox="0 0 2400 1600">
<defs>
  <clipPath id="clip240">
    <rect x="0" y="0" width="2400" height="1600"/>
  </clipPath>
</defs>
<path clip-path="url(#clip240)" d="M0 1600 L2400 1600 L2400 0 L0 0  Z" fill="#ffffff" fill-rule="evenodd" fill-opacity="1"/>
<defs>
  <clipPath id="clip241">
    <rect x="480" y="0" width="1681" height="1600"/>
  </clipPath>
</defs>
<path clip-path="url(#clip240)" d="M205.121 1423.18 L2352.76 1423.18 L2352.76 47.2441 L205.121 47.2441  Z" fill="#ffffff" fill-rule="evenodd" fill-opacity="1"/>
<defs>
  <clipPath id="clip242">
    <rect x="205" y="47" width="2149" height="1377"/>
  </clipPath>
</defs>
<polyline clip-path="url(#clip242)" style="stroke:#000000; stroke-linecap:round; stroke-linejoin:round; stroke-width:2; stroke-opacity:0.1; fill:none" points="205.121,1423.18 205.121,47.2441 "/>
<polyline clip-path="url(#clip242)" style="stroke:#000000; stroke-linecap:round; stroke-linejoin:round; stroke-width:2; stroke-opacity:0.1; fill:none" points="742.03,1423.18 742.03,47.2441 "/>
<polyline clip-path="url(#clip242)" style="stroke:#000000; stroke-linecap:round; stroke-linejoin:round; stroke-width:2; stroke-opacity:0.1; fill:none" points="1278.94,1423.18 1278.94,47.2441 "/>
<polyline clip-path="url(#clip242)" style="stroke:#000000; stroke-linecap:round; stroke-linejoin:round; stroke-width:2; stroke-opacity:0.1; fill:none" points="1815.85,1423.18 1815.85,47.2441 "/>
<polyline clip-path="url(#clip242)" style="stroke:#000000; stroke-linecap:round; stroke-linejoin:round; stroke-width:2; stroke-opacity:0.1; fill:none" points="2352.76,1423.18 2352.76,47.2441 "/>
<polyline clip-path="url(#clip242)" style="stroke:#000000; stroke-linecap:round; stroke-linejoin:round; stroke-width:2; stroke-opacity:0.1; fill:none" points="205.121,1182.04 2352.76,1182.04 "/>
<polyline clip-path="url(#clip242)" style="stroke:#000000; stroke-linecap:round; stroke-linejoin:round; stroke-width:2; stroke-opacity:0.1; fill:none" points="205.121,888.032 2352.76,888.032 "/>
<polyline clip-path="url(#clip242)" style="stroke:#000000; stroke-linecap:round; stroke-linejoin:round; stroke-width:2; stroke-opacity:0.1; fill:none" points="205.121,594.025 2352.76,594.025 "/>
<polyline clip-path="url(#clip242)" style="stroke:#000000; stroke-linecap:round; stroke-linejoin:round; stroke-width:2; stroke-opacity:0.1; fill:none" points="205.121,300.018 2352.76,300.018 "/>
<polyline clip-path="url(#clip240)" style="stroke:#000000; stroke-linecap:round; stroke-linejoin:round; stroke-width:4; stroke-opacity:1; fill:none" points="205.121,1423.18 2352.76,1423.18 "/>
<polyline clip-path="url(#clip240)" style="stroke:#000000; stroke-linecap:round; stroke-linejoin:round; stroke-width:4; stroke-opacity:1; fill:none" points="205.121,1423.18 205.121,1404.28 "/>
<polyline clip-path="url(#clip240)" style="stroke:#000000; stroke-linecap:round; stroke-linejoin:round; stroke-width:4; stroke-opacity:1; fill:none" points="742.03,1423.18 742.03,1404.28 "/>
<polyline clip-path="url(#clip240)" style="stroke:#000000; stroke-linecap:round; stroke-linejoin:round; stroke-width:4; stroke-opacity:1; fill:none" points="1278.94,1423.18 1278.94,1404.28 "/>
<polyline clip-path="url(#clip240)" style="stroke:#000000; stroke-linecap:round; stroke-linejoin:round; stroke-width:4; stroke-opacity:1; fill:none" points="1815.85,1423.18 1815.85,1404.28 "/>
<polyline clip-path="url(#clip240)" style="stroke:#000000; stroke-linecap:round; stroke-linejoin:round; stroke-width:4; stroke-opacity:1; fill:none" points="2352.76,1423.18 2352.76,1404.28 "/>
<path clip-path="url(#clip240)" d="M205.121 1454.1 Q201.51 1454.1 199.681 1457.66 Q197.876 1461.2 197.876 1468.33 Q197.876 1475.44 199.681 1479.01 Q201.51 1482.55 205.121 1482.55 Q208.755 1482.55 210.561 1479.01 Q212.389 1475.44 212.389 1468.33 Q212.389 1461.2 210.561 1457.66 Q208.755 1454.1 205.121 1454.1 M205.121 1450.39 Q210.931 1450.39 213.987 1455 Q217.065 1459.58 217.065 1468.33 Q217.065 1477.06 213.987 1481.67 Q210.931 1486.25 205.121 1486.25 Q199.311 1486.25 196.232 1481.67 Q193.177 1477.06 193.177 1468.33 Q193.177 1459.58 196.232 1455 Q199.311 1450.39 205.121 1450.39 Z" fill="#000000" fill-rule="nonzero" fill-opacity="1" /><path clip-path="url(#clip240)" d="M716.729 1451.02 L735.085 1451.02 L735.085 1454.96 L721.011 1454.96 L721.011 1463.43 Q722.03 1463.08 723.048 1462.92 Q724.067 1462.73 725.085 1462.73 Q730.872 1462.73 734.252 1465.9 Q737.632 1469.08 737.632 1474.49 Q737.632 1480.07 734.159 1483.17 Q730.687 1486.25 724.368 1486.25 Q722.192 1486.25 719.923 1485.88 Q717.678 1485.51 715.271 1484.77 L715.271 1480.07 Q717.354 1481.2 719.576 1481.76 Q721.798 1482.32 724.275 1482.32 Q728.28 1482.32 730.618 1480.21 Q732.956 1478.1 732.956 1474.49 Q732.956 1470.88 730.618 1468.77 Q728.28 1466.67 724.275 1466.67 Q722.4 1466.67 720.525 1467.08 Q718.673 1467.5 716.729 1468.38 L716.729 1451.02 Z" fill="#000000" fill-rule="nonzero" fill-opacity="1" /><path clip-path="url(#clip240)" d="M756.844 1454.1 Q753.233 1454.1 751.405 1457.66 Q749.599 1461.2 749.599 1468.33 Q749.599 1475.44 751.405 1479.01 Q753.233 1482.55 756.844 1482.55 Q760.479 1482.55 762.284 1479.01 Q764.113 1475.44 764.113 1468.33 Q764.113 1461.2 762.284 1457.66 Q760.479 1454.1 756.844 1454.1 M756.844 1450.39 Q762.655 1450.39 765.71 1455 Q768.789 1459.58 768.789 1468.33 Q768.789 1477.06 765.71 1481.67 Q762.655 1486.25 756.844 1486.25 Q751.034 1486.25 747.956 1481.67 Q744.9 1477.06 744.9 1468.33 Q744.9 1459.58 747.956 1455 Q751.034 1450.39 756.844 1450.39 Z" fill="#000000" fill-rule="nonzero" fill-opacity="1" /><path clip-path="url(#clip240)" d="M1238.55 1481.64 L1246.18 1481.64 L1246.18 1455.28 L1237.87 1456.95 L1237.87 1452.69 L1246.14 1451.02 L1250.81 1451.02 L1250.81 1481.64 L1258.45 1481.64 L1258.45 1485.58 L1238.55 1485.58 L1238.55 1481.64 Z" fill="#000000" fill-rule="nonzero" fill-opacity="1" /><path clip-path="url(#clip240)" d="M1277.9 1454.1 Q1274.29 1454.1 1272.46 1457.66 Q1270.65 1461.2 1270.65 1468.33 Q1270.65 1475.44 1272.46 1479.01 Q1274.29 1482.55 1277.9 1482.55 Q1281.53 1482.55 1283.34 1479.01 Q1285.17 1475.44 1285.17 1468.33 Q1285.17 1461.2 1283.34 1457.66 Q1281.53 1454.1 1277.9 1454.1 M1277.9 1450.39 Q1283.71 1450.39 1286.76 1455 Q1289.84 1459.58 1289.84 1468.33 Q1289.84 1477.06 1286.76 1481.67 Q1283.71 1486.25 1277.9 1486.25 Q1272.09 1486.25 1269.01 1481.67 Q1265.95 1477.06 1265.95 1468.33 Q1265.95 1459.58 1269.01 1455 Q1272.09 1450.39 1277.9 1450.39 Z" fill="#000000" fill-rule="nonzero" fill-opacity="1" /><path clip-path="url(#clip240)" d="M1308.06 1454.1 Q1304.45 1454.1 1302.62 1457.66 Q1300.81 1461.2 1300.81 1468.33 Q1300.81 1475.44 1302.62 1479.01 Q1304.45 1482.55 1308.06 1482.55 Q1311.69 1482.55 1313.5 1479.01 Q1315.33 1475.44 1315.33 1468.33 Q1315.33 1461.2 1313.5 1457.66 Q1311.69 1454.1 1308.06 1454.1 M1308.06 1450.39 Q1313.87 1450.39 1316.92 1455 Q1320 1459.58 1320 1468.33 Q1320 1477.06 1316.92 1481.67 Q1313.87 1486.25 1308.06 1486.25 Q1302.25 1486.25 1299.17 1481.67 Q1296.11 1477.06 1296.11 1468.33 Q1296.11 1459.58 1299.17 1455 Q1302.25 1450.39 1308.06 1450.39 Z" fill="#000000" fill-rule="nonzero" fill-opacity="1" /><path clip-path="url(#clip240)" d="M1775.45 1481.64 L1783.09 1481.64 L1783.09 1455.28 L1774.78 1456.95 L1774.78 1452.69 L1783.05 1451.02 L1787.72 1451.02 L1787.72 1481.64 L1795.36 1481.64 L1795.36 1485.58 L1775.45 1485.58 L1775.45 1481.64 Z" fill="#000000" fill-rule="nonzero" fill-opacity="1" /><path clip-path="url(#clip240)" d="M1804.85 1451.02 L1823.21 1451.02 L1823.21 1454.96 L1809.13 1454.96 L1809.13 1463.43 Q1810.15 1463.08 1811.17 1462.92 Q1812.19 1462.73 1813.21 1462.73 Q1819 1462.73 1822.37 1465.9 Q1825.75 1469.08 1825.75 1474.49 Q1825.75 1480.07 1822.28 1483.17 Q1818.81 1486.25 1812.49 1486.25 Q1810.31 1486.25 1808.05 1485.88 Q1805.8 1485.51 1803.39 1484.77 L1803.39 1480.07 Q1805.48 1481.2 1807.7 1481.76 Q1809.92 1482.32 1812.4 1482.32 Q1816.4 1482.32 1818.74 1480.21 Q1821.08 1478.1 1821.08 1474.49 Q1821.08 1470.88 1818.74 1468.77 Q1816.4 1466.67 1812.4 1466.67 Q1810.52 1466.67 1808.65 1467.08 Q1806.8 1467.5 1804.85 1468.38 L1804.85 1451.02 Z" fill="#000000" fill-rule="nonzero" fill-opacity="1" /><path clip-path="url(#clip240)" d="M1844.97 1454.1 Q1841.36 1454.1 1839.53 1457.66 Q1837.72 1461.2 1837.72 1468.33 Q1837.72 1475.44 1839.53 1479.01 Q1841.36 1482.55 1844.97 1482.55 Q1848.6 1482.55 1850.41 1479.01 Q1852.24 1475.44 1852.24 1468.33 Q1852.24 1461.2 1850.41 1457.66 Q1848.6 1454.1 1844.97 1454.1 M1844.97 1450.39 Q1850.78 1450.39 1853.83 1455 Q1856.91 1459.58 1856.91 1468.33 Q1856.91 1477.06 1853.83 1481.67 Q1850.78 1486.25 1844.97 1486.25 Q1839.16 1486.25 1836.08 1481.67 Q1833.02 1477.06 1833.02 1468.33 Q1833.02 1459.58 1836.08 1455 Q1839.16 1450.39 1844.97 1450.39 Z" fill="#000000" fill-rule="nonzero" fill-opacity="1" /><path clip-path="url(#clip240)" d="M2316.45 1481.64 L2332.77 1481.64 L2332.77 1485.58 L2310.82 1485.58 L2310.82 1481.64 Q2313.49 1478.89 2318.07 1474.26 Q2322.68 1469.61 2323.86 1468.27 Q2326.1 1465.74 2326.98 1464.01 Q2327.88 1462.25 2327.88 1460.56 Q2327.88 1457.8 2325.94 1456.07 Q2324.02 1454.33 2320.92 1454.33 Q2318.72 1454.33 2316.26 1455.09 Q2313.83 1455.86 2311.05 1457.41 L2311.05 1452.69 Q2313.88 1451.55 2316.33 1450.97 Q2318.79 1450.39 2320.82 1450.39 Q2326.19 1450.39 2329.39 1453.08 Q2332.58 1455.77 2332.58 1460.26 Q2332.58 1462.39 2331.77 1464.31 Q2330.99 1466.2 2328.88 1468.8 Q2328.3 1469.47 2325.2 1472.69 Q2322.1 1475.88 2316.45 1481.64 Z" fill="#000000" fill-rule="nonzero" fill-opacity="1" /><path clip-path="url(#clip240)" d="M2352.58 1454.1 Q2348.97 1454.1 2347.14 1457.66 Q2345.34 1461.2 2345.34 1468.33 Q2345.34 1475.44 2347.14 1479.01 Q2348.97 1482.55 2352.58 1482.55 Q2356.22 1482.55 2358.02 1479.01 Q2359.85 1475.44 2359.85 1468.33 Q2359.85 1461.2 2358.02 1457.66 Q2356.22 1454.1 2352.58 1454.1 M2352.58 1450.39 Q2358.39 1450.39 2361.45 1455 Q2364.53 1459.58 2364.53 1468.33 Q2364.53 1477.06 2361.45 1481.67 Q2358.39 1486.25 2352.58 1486.25 Q2346.77 1486.25 2343.69 1481.67 Q2340.64 1477.06 2340.64 1468.33 Q2340.64 1459.58 2343.69 1455 Q2346.77 1450.39 2352.58 1450.39 Z" fill="#000000" fill-rule="nonzero" fill-opacity="1" /><path clip-path="url(#clip240)" d="M2382.74 1454.1 Q2379.13 1454.1 2377.3 1457.66 Q2375.5 1461.2 2375.5 1468.33 Q2375.5 1475.44 2377.3 1479.01 Q2379.13 1482.55 2382.74 1482.55 Q2386.38 1482.55 2388.18 1479.01 Q2390.01 1475.44 2390.01 1468.33 Q2390.01 1461.2 2388.18 1457.66 Q2386.38 1454.1 2382.74 1454.1 M2382.74 1450.39 Q2388.55 1450.39 2391.61 1455 Q2394.69 1459.58 2394.69 1468.33 Q2394.69 1477.06 2391.61 1481.67 Q2388.55 1486.25 2382.74 1486.25 Q2376.93 1486.25 2373.86 1481.67 Q2370.8 1477.06 2370.8 1468.33 Q2370.8 1459.58 2373.86 1455 Q2376.93 1450.39 2382.74 1450.39 Z" fill="#000000" fill-rule="nonzero" fill-opacity="1" /><path clip-path="url(#clip240)" d="M1189.66 1537.87 Q1188.67 1537.3 1187.5 1537.04 Q1186.35 1536.76 1184.95 1536.76 Q1179.98 1536.76 1177.31 1540 Q1174.67 1543.22 1174.67 1549.27 L1174.67 1568.04 L1168.78 1568.04 L1168.78 1532.4 L1174.67 1532.4 L1174.67 1537.93 Q1176.51 1534.69 1179.47 1533.13 Q1182.43 1531.54 1186.67 1531.54 Q1187.27 1531.54 1188 1531.63 Q1188.74 1531.7 1189.63 1531.85 L1189.66 1537.87 Z" fill="#000000" fill-rule="nonzero" fill-opacity="1" /><path clip-path="url(#clip240)" d="M1230.59 1518.58 Q1226.33 1525.9 1224.26 1533.06 Q1222.19 1540.23 1222.19 1547.58 Q1222.19 1554.93 1224.26 1562.16 Q1226.36 1569.35 1230.59 1576.64 L1225.5 1576.64 Q1220.72 1569.16 1218.34 1561.93 Q1215.98 1554.71 1215.98 1547.58 Q1215.98 1540.48 1218.34 1533.29 Q1220.69 1526.09 1225.5 1518.58 L1230.59 1518.58 Z" fill="#000000" fill-rule="nonzero" fill-opacity="1" /><path clip-path="url(#clip240)" d="M1242.21 1520.52 L1251.79 1520.52 L1263.92 1552.86 L1276.11 1520.52 L1285.69 1520.52 L1285.69 1568.04 L1279.42 1568.04 L1279.42 1526.32 L1267.16 1558.91 L1260.7 1558.91 L1248.45 1526.32 L1248.45 1568.04 L1242.21 1568.04 L1242.21 1520.52 Z" fill="#000000" fill-rule="nonzero" fill-opacity="1" /><path clip-path="url(#clip240)" d="M1303.86 1562.7 L1303.86 1581.6 L1297.97 1581.6 L1297.97 1532.4 L1303.86 1532.4 L1303.86 1537.81 Q1305.71 1534.62 1308.51 1533.1 Q1311.34 1531.54 1315.25 1531.54 Q1321.75 1531.54 1325.79 1536.69 Q1329.86 1541.85 1329.86 1550.25 Q1329.86 1558.65 1325.79 1563.81 Q1321.75 1568.97 1315.25 1568.97 Q1311.34 1568.97 1308.51 1567.44 Q1305.71 1565.88 1303.86 1562.7 M1323.78 1550.25 Q1323.78 1543.79 1321.11 1540.13 Q1318.47 1536.44 1313.82 1536.44 Q1309.18 1536.44 1306.5 1540.13 Q1303.86 1543.79 1303.86 1550.25 Q1303.86 1556.71 1306.5 1560.4 Q1309.18 1564.07 1313.82 1564.07 Q1318.47 1564.07 1321.11 1560.4 Q1323.78 1556.71 1323.78 1550.25 Z" fill="#000000" fill-rule="nonzero" fill-opacity="1" /><path clip-path="url(#clip240)" d="M1365.23 1533.76 L1365.23 1539.24 Q1362.74 1537.87 1360.23 1537.2 Q1357.75 1536.5 1355.2 1536.5 Q1349.5 1536.5 1346.35 1540.13 Q1343.2 1543.73 1343.2 1550.25 Q1343.2 1556.78 1346.35 1560.4 Q1349.5 1564 1355.2 1564 Q1357.75 1564 1360.23 1563.33 Q1362.74 1562.63 1365.23 1561.26 L1365.23 1566.68 Q1362.77 1567.82 1360.13 1568.39 Q1357.52 1568.97 1354.56 1568.97 Q1346.51 1568.97 1341.77 1563.91 Q1337.03 1558.85 1337.03 1550.25 Q1337.03 1541.53 1341.8 1536.53 Q1346.61 1531.54 1354.94 1531.54 Q1357.65 1531.54 1360.23 1532.11 Q1362.81 1532.65 1365.23 1533.76 Z" fill="#000000" fill-rule="nonzero" fill-opacity="1" /><path clip-path="url(#clip240)" d="M1374.49 1518.58 L1379.58 1518.58 Q1384.35 1526.09 1386.71 1533.29 Q1389.1 1540.48 1389.1 1547.58 Q1389.1 1554.71 1386.71 1561.93 Q1384.35 1569.16 1379.58 1576.64 L1374.49 1576.64 Q1378.72 1569.35 1380.79 1562.16 Q1382.89 1554.93 1382.89 1547.58 Q1382.89 1540.23 1380.79 1533.06 Q1378.72 1525.9 1374.49 1518.58 Z" fill="#000000" fill-rule="nonzero" fill-opacity="1" /><polyline clip-path="url(#clip240)" style="stroke:#000000; stroke-linecap:round; stroke-linejoin:round; stroke-width:4; stroke-opacity:1; fill:none" points="205.121,1423.18 205.121,47.2441 "/>
<polyline clip-path="url(#clip240)" style="stroke:#000000; stroke-linecap:round; stroke-linejoin:round; stroke-width:4; stroke-opacity:1; fill:none" points="205.121,1182.04 224.019,1182.04 "/>
<polyline clip-path="url(#clip240)" style="stroke:#000000; stroke-linecap:round; stroke-linejoin:round; stroke-width:4; stroke-opacity:1; fill:none" points="205.121,888.032 224.019,888.032 "/>
<polyline clip-path="url(#clip240)" style="stroke:#000000; stroke-linecap:round; stroke-linejoin:round; stroke-width:4; stroke-opacity:1; fill:none" points="205.121,594.025 224.019,594.025 "/>
<polyline clip-path="url(#clip240)" style="stroke:#000000; stroke-linecap:round; stroke-linejoin:round; stroke-width:4; stroke-opacity:1; fill:none" points="205.121,300.018 224.019,300.018 "/>
<path clip-path="url(#clip240)" d="M157.177 1167.84 Q153.566 1167.84 151.737 1171.4 Q149.931 1174.94 149.931 1182.07 Q149.931 1189.18 151.737 1192.74 Q153.566 1196.29 157.177 1196.29 Q160.811 1196.29 162.616 1192.74 Q164.445 1189.18 164.445 1182.07 Q164.445 1174.94 162.616 1171.4 Q160.811 1167.84 157.177 1167.84 M157.177 1164.13 Q162.987 1164.13 166.042 1168.74 Q169.121 1173.32 169.121 1182.07 Q169.121 1190.8 166.042 1195.41 Q162.987 1199.99 157.177 1199.99 Q151.366 1199.99 148.288 1195.41 Q145.232 1190.8 145.232 1182.07 Q145.232 1173.32 148.288 1168.74 Q151.366 1164.13 157.177 1164.13 Z" fill="#000000" fill-rule="nonzero" fill-opacity="1" /><path clip-path="url(#clip240)" d="M121.043 901.377 L137.362 901.377 L137.362 905.312 L115.418 905.312 L115.418 901.377 Q118.08 898.622 122.663 893.993 Q127.269 889.34 128.45 887.997 Q130.695 885.474 131.575 883.738 Q132.478 881.979 132.478 880.289 Q132.478 877.534 130.533 875.798 Q128.612 874.062 125.51 874.062 Q123.311 874.062 120.857 874.826 Q118.427 875.59 115.649 877.141 L115.649 872.419 Q118.473 871.284 120.927 870.706 Q123.38 870.127 125.418 870.127 Q130.788 870.127 133.982 872.812 Q137.177 875.497 137.177 879.988 Q137.177 882.118 136.367 884.039 Q135.579 885.937 133.473 888.53 Q132.894 889.201 129.792 892.418 Q126.691 895.613 121.043 901.377 Z" fill="#000000" fill-rule="nonzero" fill-opacity="1" /><path clip-path="url(#clip240)" d="M157.177 873.831 Q153.566 873.831 151.737 877.395 Q149.931 880.937 149.931 888.067 Q149.931 895.173 151.737 898.738 Q153.566 902.28 157.177 902.28 Q160.811 902.28 162.616 898.738 Q164.445 895.173 164.445 888.067 Q164.445 880.937 162.616 877.395 Q160.811 873.831 157.177 873.831 M157.177 870.127 Q162.987 870.127 166.042 874.733 Q169.121 879.317 169.121 888.067 Q169.121 896.793 166.042 901.4 Q162.987 905.983 157.177 905.983 Q151.366 905.983 148.288 901.4 Q145.232 896.793 145.232 888.067 Q145.232 879.317 148.288 874.733 Q151.366 870.127 157.177 870.127 Z" fill="#000000" fill-rule="nonzero" fill-opacity="1" /><path clip-path="url(#clip240)" d="M129.862 580.819 L118.056 599.268 L129.862 599.268 L129.862 580.819 M128.635 576.745 L134.515 576.745 L134.515 599.268 L139.445 599.268 L139.445 603.157 L134.515 603.157 L134.515 611.305 L129.862 611.305 L129.862 603.157 L114.26 603.157 L114.26 598.643 L128.635 576.745 Z" fill="#000000" fill-rule="nonzero" fill-opacity="1" /><path clip-path="url(#clip240)" d="M157.177 579.824 Q153.566 579.824 151.737 583.388 Q149.931 586.93 149.931 594.06 Q149.931 601.166 151.737 604.731 Q153.566 608.273 157.177 608.273 Q160.811 608.273 162.616 604.731 Q164.445 601.166 164.445 594.06 Q164.445 586.93 162.616 583.388 Q160.811 579.824 157.177 579.824 M157.177 576.12 Q162.987 576.12 166.042 580.726 Q169.121 585.31 169.121 594.06 Q169.121 602.787 166.042 607.393 Q162.987 611.976 157.177 611.976 Q151.366 611.976 148.288 607.393 Q145.232 602.787 145.232 594.06 Q145.232 585.31 148.288 580.726 Q151.366 576.12 157.177 576.12 Z" fill="#000000" fill-rule="nonzero" fill-opacity="1" /><path clip-path="url(#clip240)" d="M127.593 298.155 Q124.445 298.155 122.593 300.307 Q120.765 302.46 120.765 306.21 Q120.765 309.937 122.593 312.113 Q124.445 314.266 127.593 314.266 Q130.742 314.266 132.57 312.113 Q134.422 309.937 134.422 306.21 Q134.422 302.46 132.57 300.307 Q130.742 298.155 127.593 298.155 M136.876 283.502 L136.876 287.761 Q135.117 286.928 133.311 286.488 Q131.529 286.048 129.769 286.048 Q125.14 286.048 122.686 289.173 Q120.255 292.298 119.908 298.618 Q121.274 296.604 123.334 295.539 Q125.394 294.451 127.871 294.451 Q133.08 294.451 136.089 297.622 Q139.121 300.77 139.121 306.21 Q139.121 311.534 135.973 314.752 Q132.825 317.969 127.593 317.969 Q121.598 317.969 118.427 313.386 Q115.256 308.78 115.256 300.053 Q115.256 291.858 119.144 286.997 Q123.033 282.113 129.584 282.113 Q131.343 282.113 133.126 282.46 Q134.931 282.808 136.876 283.502 Z" fill="#000000" fill-rule="nonzero" fill-opacity="1" /><path clip-path="url(#clip240)" d="M157.177 285.817 Q153.566 285.817 151.737 289.382 Q149.931 292.923 149.931 300.053 Q149.931 307.159 151.737 310.724 Q153.566 314.266 157.177 314.266 Q160.811 314.266 162.616 310.724 Q164.445 307.159 164.445 300.053 Q164.445 292.923 162.616 289.382 Q160.811 285.817 157.177 285.817 M157.177 282.113 Q162.987 282.113 166.042 286.72 Q169.121 291.303 169.121 300.053 Q169.121 308.78 166.042 313.386 Q162.987 317.969 157.177 317.969 Q151.366 317.969 148.288 313.386 Q145.232 308.78 145.232 300.053 Q145.232 291.303 148.288 286.72 Q151.366 282.113 157.177 282.113 Z" fill="#000000" fill-rule="nonzero" fill-opacity="1" /><path clip-path="url(#clip240)" d="M33.8307 914.136 Q33.2578 915.123 33.0032 916.3 Q32.7167 917.446 32.7167 918.847 Q32.7167 923.812 35.9632 926.486 Q39.1779 929.127 45.2253 929.127 L64.0042 929.127 L64.0042 935.016 L28.3562 935.016 L28.3562 929.127 L33.8944 929.127 Q30.6479 927.281 29.0883 924.321 Q27.4968 921.361 27.4968 917.128 Q27.4968 916.523 27.5923 915.791 Q27.656 915.059 27.8151 914.168 L33.8307 914.136 Z" fill="#000000" fill-rule="nonzero" fill-opacity="1" /><path clip-path="url(#clip240)" d="M39.1142 905.606 L39.1142 892.111 L42.7427 892.111 L42.7427 911.144 L39.2416 911.144 Q38.2549 910.062 36.4725 908.057 Q26.7648 897.108 23.7729 897.108 Q21.6722 897.108 20.3991 898.763 Q19.0941 900.418 19.0941 903.123 Q19.0941 904.778 19.667 906.72 Q20.2081 908.662 21.3221 910.953 L17.4072 910.953 Q16.516 908.502 16.0704 906.402 Q15.6248 904.269 15.6248 902.455 Q15.6248 897.84 17.7255 895.071 Q19.8262 892.302 23.2636 892.302 Q27.6878 892.302 36.7271 902.837 Q38.2549 904.619 39.1142 905.606 Z" fill="#000000" fill-rule="nonzero" fill-opacity="1" /><path clip-path="url(#clip240)" d="M59.9619 844.05 Q59.9938 839.848 62.3809 837.334 Q64.8954 834.66 68.7148 834.66 Q72.3751 834.66 74.9213 837.016 Q77.6904 839.562 77.6904 844.75 Q75.3033 844.75 72.8843 844.75 Q73.0435 842.554 71.643 841.217 Q70.529 840.198 69.3514 840.198 Q67.6644 840.198 66.264 841.217 Q64.9272 842.204 64.9272 844.05 Q64.9272 863.879 51.0181 863.879 Q41.4696 863.879 38.6686 853.28 Q37.5228 862.192 29.2474 862.192 Q22.9772 862.192 20.3672 855.19 L20.3672 861.81 L14.479 861.81 L14.479 836.697 L20.3672 836.697 Q20.3672 856.717 29.6293 856.717 Q35.7086 856.717 35.995 839.912 L41.4059 839.912 Q40.7057 858.054 51.0181 857.991 Q59.6436 857.959 59.9619 844.05 Z" fill="#000000" fill-rule="nonzero" fill-opacity="1" /><path clip-path="url(#clip240)" d="M14.5426 790.005 Q21.8632 794.27 29.0246 796.339 Q36.186 798.408 43.5384 798.408 Q50.8908 798.408 58.1159 796.339 Q65.3091 794.238 72.5979 790.005 L72.5979 795.097 Q65.1182 799.872 57.8931 802.259 Q50.668 804.614 43.5384 804.614 Q36.4406 804.614 29.2474 802.259 Q22.0542 799.903 14.5426 795.097 L14.5426 790.005 Z" fill="#000000" fill-rule="nonzero" fill-opacity="1" /><path clip-path="url(#clip240)" d="M16.4842 778.387 L16.4842 768.807 L48.8219 756.68 L16.4842 744.49 L16.4842 734.91 L64.0042 734.91 L64.0042 741.18 L22.277 741.18 L54.8694 753.434 L54.8694 759.895 L22.277 772.149 L64.0042 772.149 L64.0042 778.387 L16.4842 778.387 Z" fill="#000000" fill-rule="nonzero" fill-opacity="1" /><path clip-path="url(#clip240)" d="M58.657 716.736 L77.5631 716.736 L77.5631 722.624 L28.3562 722.624 L28.3562 716.736 L33.7671 716.736 Q30.5842 714.889 29.0564 712.089 Q27.4968 709.256 27.4968 705.341 Q27.4968 698.848 32.6531 694.806 Q37.8093 690.732 46.212 690.732 Q54.6147 690.732 59.771 694.806 Q64.9272 698.848 64.9272 705.341 Q64.9272 709.256 63.3994 712.089 Q61.8398 714.889 58.657 716.736 M46.212 696.811 Q39.7508 696.811 36.0905 699.484 Q32.3984 702.126 32.3984 706.773 Q32.3984 711.42 36.0905 714.094 Q39.7508 716.736 46.212 716.736 Q52.6732 716.736 56.3653 714.094 Q60.0256 711.42 60.0256 706.773 Q60.0256 702.126 56.3653 699.484 Q52.6732 696.811 46.212 696.811 Z" fill="#000000" fill-rule="nonzero" fill-opacity="1" /><path clip-path="url(#clip240)" d="M29.7248 655.37 L35.1993 655.37 Q33.8307 657.853 33.1623 660.367 Q32.4621 662.85 32.4621 665.396 Q32.4621 671.093 36.0905 674.244 Q39.6872 677.395 46.212 677.395 Q52.7369 677.395 56.3653 674.244 Q59.9619 671.093 59.9619 665.396 Q59.9619 662.85 59.2935 660.367 Q58.5933 657.853 57.2247 655.37 L62.6355 655.37 Q63.7814 657.821 64.3543 660.463 Q64.9272 663.073 64.9272 666.033 Q64.9272 674.085 59.8664 678.828 Q54.8057 683.57 46.212 683.57 Q37.491 683.57 32.4939 678.796 Q27.4968 673.99 27.4968 665.651 Q27.4968 662.945 28.0697 660.367 Q28.6108 657.789 29.7248 655.37 Z" fill="#000000" fill-rule="nonzero" fill-opacity="1" /><path clip-path="url(#clip240)" d="M16.4842 620.9 L34.2127 603.617 L34.2127 610.014 L21.6404 624.019 L34.2127 638.024 L34.2127 644.421 L16.4842 627.138 L16.4842 620.9 Z" fill="#000000" fill-rule="nonzero" fill-opacity="1" /><path clip-path="url(#clip240)" d="M58.5933 584.201 L58.5933 561.762 L64.0042 561.762 L64.0042 591.936 L58.5933 591.936 Q54.8057 588.276 48.44 581.973 Q42.0425 575.64 40.1964 574.016 Q36.7271 570.929 34.34 569.72 Q31.921 568.478 29.5975 568.478 Q25.8099 568.478 23.4228 571.152 Q21.0356 573.794 21.0356 578.059 Q21.0356 581.082 22.086 584.456 Q23.1363 587.798 25.2688 591.618 L18.7758 591.618 Q17.2162 587.734 16.4205 584.361 Q15.6248 580.987 15.6248 578.186 Q15.6248 570.802 19.3169 566.409 Q23.009 562.017 29.1837 562.017 Q32.112 562.017 34.7537 563.131 Q37.3637 564.213 40.9285 567.11 Q41.8515 567.905 46.2757 572.17 Q50.668 576.435 58.5933 584.201 Z" fill="#000000" fill-rule="nonzero" fill-opacity="1" /><path clip-path="url(#clip240)" d="M14.5426 550.018 L14.5426 544.925 Q22.0542 540.151 29.2474 537.795 Q36.4406 535.408 43.5384 535.408 Q50.668 535.408 57.8931 537.795 Q65.1182 540.151 72.5979 544.925 L72.5979 550.018 Q65.3091 545.784 58.1159 543.716 Q50.8908 541.615 43.5384 541.615 Q36.186 541.615 29.0246 543.716 Q21.8632 545.784 14.5426 550.018 Z" fill="#000000" fill-rule="nonzero" fill-opacity="1" /><polyline clip-path="url(#clip242)" style="stroke:#009af9; stroke-linecap:round; stroke-linejoin:round; stroke-width:4; stroke-opacity:1; fill:none" points="205.188,1181.99 205.189,1181.99 205.19,1181.99 205.19,1181.99 205.191,1181.99 205.192,1181.99 205.192,1181.99 205.193,1181.99 205.193,1181.99 205.194,1181.99 205.195,1181.98 205.195,1181.98 205.196,1181.98 205.197,1181.98 205.197,1181.98 205.198,1181.98 205.199,1181.98 205.2,1181.98 205.2,1181.98 205.201,1181.98 205.202,1181.97 205.202,1181.97 205.203,1181.97 205.204,1181.97 205.205,1181.97 205.205,1181.97 205.206,1181.97 205.207,1181.97 205.208,1181.97 205.209,1181.96 205.209,1181.96 205.21,1181.96 205.211,1181.96 205.212,1181.96 205.213,1181.96 205.213,1181.96 205.214,1181.96 205.215,1181.95 205.216,1181.95 205.217,1181.95 205.218,1181.95 205.219,1181.95 205.219,1181.95 205.22,1181.95 205.221,1181.94 205.222,1181.94 205.223,1181.94 205.224,1181.94 205.225,1181.94 205.226,1181.94 205.227,1181.94 205.228,1181.93 205.229,1181.93 205.23,1181.93 205.231,1181.93 205.232,1181.93 205.233,1181.93 205.234,1181.92 205.235,1181.92 205.236,1181.92 205.237,1181.92 205.238,1181.92 205.239,1181.91 205.24,1181.91 205.241,1181.91 205.242,1181.91 205.243,1181.91 205.244,1181.91 205.245,1181.9 205.246,1181.9 205.248,1181.9 205.249,1181.9 205.25,1181.89 205.251,1181.89 205.252,1181.89 205.253,1181.89 205.255,1181.89 205.256,1181.88 205.257,1181.88 205.258,1181.88 205.26,1181.88 205.261,1181.87 205.262,1181.87 205.263,1181.87 205.265,1181.87 205.266,1181.86 205.267,1181.86 205.269,1181.86 205.27,1181.86 205.271,1181.85 205.273,1181.85 205.274,1181.85 205.275,1181.84 205.277,1181.84 205.278,1181.84 205.28,1181.84 205.281,1181.83 205.282,1181.83 205.284,1181.83 205.285,1181.82 205.287,1181.82 205.288,1181.82 205.29,1181.81 205.291,1181.81 205.293,1181.81 205.294,1181.8 205.296,1181.8 205.298,1181.8 205.299,1181.79 205.301,1181.79 205.302,1181.79 205.304,1181.78 205.306,1181.78 205.307,1181.77 205.309,1181.77 205.311,1181.77 205.313,1181.76 205.314,1181.76 205.316,1181.75 205.318,1181.75 205.32,1181.75 205.321,1181.74 205.323,1181.74 205.325,1181.73 205.327,1181.73 205.329,1181.72 205.331,1181.72 205.332,1181.71 205.334,1181.71 205.336,1181.7 205.338,1181.7 205.34,1181.69 205.342,1181.69 205.344,1181.68 205.346,1181.68 205.348,1181.67 205.35,1181.67 205.352,1181.66 205.354,1181.66 205.357,1181.65 205.359,1181.65 205.361,1181.64 205.363,1181.64 205.365,1181.63 205.367,1181.62 205.37,1181.62 205.372,1181.61 205.374,1181.61 205.376,1181.6 205.379,1181.59 205.381,1181.59 205.383,1181.58 205.386,1181.57 205.388,1181.57 205.391,1181.56 205.393,1181.55 205.395,1181.55 205.398,1181.54 205.4,1181.53 205.403,1181.52 205.405,1181.52 205.408,1181.51 205.411,1181.5 205.413,1181.49 205.416,1181.49 205.419,1181.48 205.421,1181.47 205.424,1181.46 205.427,1181.45 205.429,1181.44 205.432,1181.44 205.435,1181.43 205.438,1181.42 205.441,1181.41 205.444,1181.4 205.447,1181.39 205.45,1181.38 205.452,1181.37 205.455,1181.36 205.459,1181.35 205.462,1181.34 205.465,1181.33 205.468,1181.32 205.471,1181.31 205.474,1181.3 205.477,1181.29 205.48,1181.28 205.484,1181.27 205.487,1181.26 205.49,1181.25 205.494,1181.24 205.497,1181.23 205.5,1181.21 205.504,1181.2 205.507,1181.19 205.511,1181.18 205.514,1181.17 205.518,1181.15 205.521,1181.14 205.525,1181.13 205.529,1181.11 205.532,1181.1 205.536,1181.09 205.54,1181.07 205.544,1181.06 205.547,1181.05 205.551,1181.03 205.555,1181.02 205.559,1181 205.563,1180.99 205.567,1180.97 205.571,1180.96 205.575,1180.94 205.579,1180.93 205.583,1180.91 205.588,1180.9 205.592,1180.88 205.596,1180.86 205.6,1180.85 205.605,1180.83 205.609,1180.81 205.613,1180.8 205.618,1180.78 205.622,1180.76 205.627,1180.74 205.631,1180.73 205.636,1180.71 205.641,1180.69 205.645,1180.67 205.65,1180.65 205.655,1180.63 205.66,1180.61 205.665,1180.59 205.67,1180.57 205.675,1180.55 205.68,1180.53 205.685,1180.51 205.69,1180.49 205.695,1180.46 205.7,1180.44 205.705,1180.42 205.711,1180.4 205.716,1180.37 205.721,1180.35 205.727,1180.33 205.732,1180.3 205.738,1180.28 205.743,1180.25 205.749,1180.23 205.755,1180.2 205.76,1180.18 205.766,1180.15 205.772,1180.13 205.778,1180.1 205.784,1180.07 205.79,1180.04 205.796,1180.02 205.802,1179.99 205.808,1179.96 205.814,1179.93 205.82,1179.9 205.827,1179.87 205.833,1179.84 205.84,1179.81 205.846,1179.78 205.853,1179.75 205.859,1179.72 205.866,1179.69 205.873,1179.65 205.879,1179.62 205.886,1179.59 205.893,1179.55 205.9,1179.52 205.907,1179.48 205.914,1179.45 205.921,1179.41 205.929,1179.38 205.936,1179.34 205.943,1179.3 205.951,1179.27 205.958,1179.23 205.966,1179.19 205.973,1179.15 205.981,1179.11 205.989,1179.07 205.997,1179.03 206.005,1178.99 206.013,1178.95 206.021,1178.9 206.029,1178.86 206.037,1178.82 206.045,1178.77 206.054,1178.73 206.062,1178.68 206.071,1178.64 206.079,1178.59 206.088,1178.54 206.097,1178.5 206.105,1178.45 206.114,1178.4 206.123,1178.35 206.132,1178.3 206.141,1178.25 206.151,1178.2 206.16,1178.14 206.169,1178.09 206.179,1178.04 206.188,1177.98 206.198,1177.93 206.208,1177.87 206.218,1177.82 206.227,1177.76 206.237,1177.7 206.248,1177.64 206.258,1177.58 206.268,1177.52 206.278,1177.46 206.289,1177.4 206.299,1177.34 206.31,1177.27 206.321,1177.21 206.332,1177.15 206.343,1177.08 206.354,1177.01 206.365,1176.95 206.376,1176.88 206.387,1176.81 206.399,1176.74 206.41,1176.67 206.422,1176.59 206.434,1176.52 206.446,1176.45 206.458,1176.37 206.47,1176.3 206.482,1176.22 206.494,1176.14 206.506,1176.06 206.519,1175.98 206.532,1175.9 206.544,1175.82 206.557,1175.74 206.57,1175.65 206.583,1175.57 206.597,1175.48 206.61,1175.39 206.623,1175.31 206.637,1175.22 206.651,1175.13 206.664,1175.03 206.678,1174.94 206.692,1174.85 206.707,1174.75 206.721,1174.66 206.735,1174.56 206.75,1174.46 206.765,1174.36 206.78,1174.26 206.795,1174.15 206.81,1174.05 206.825,1173.94 206.84,1173.84 206.856,1173.73 206.872,1173.62 206.887,1173.51 206.903,1173.4 206.919,1173.28 206.936,1173.17 206.952,1173.05 206.969,1172.93 206.985,1172.82 207.002,1172.69 207.019,1172.57 207.036,1172.45 207.054,1172.32 207.071,1172.2 207.089,1172.07 207.106,1171.94 207.124,1171.81 207.142,1171.67 207.161,1171.54 207.179,1171.4 207.198,1171.26 207.217,1171.12 207.235,1170.98 207.255,1170.84 207.274,1170.69 207.293,1170.54 207.313,1170.39 207.333,1170.24 207.353,1170.09 207.373,1169.94 207.393,1169.78 207.414,1169.62 207.434,1169.46 207.455,1169.3 207.476,1169.13 207.498,1168.97 207.519,1168.8 207.541,1168.63 207.563,1168.46 207.585,1168.28 207.607,1168.11 207.63,1167.93 207.652,1167.75 207.675,1167.56 207.698,1167.38 207.721,1167.19 207.745,1167 207.769,1166.81 207.793,1166.61 207.817,1166.42 207.841,1166.22 207.866,1166.02 207.89,1165.81 207.915,1165.61 207.941,1165.4 207.966,1165.19 207.992,1164.97 208.018,1164.76 208.044,1164.54 208.07,1164.31 208.097,1164.09 208.124,1163.86 208.151,1163.63 208.178,1163.4 208.206,1163.17 208.234,1162.93 208.262,1162.69 208.29,1162.44 208.319,1162.2 208.348,1161.95 208.377,1161.69 208.407,1161.44 208.436,1161.18 208.466,1160.92 208.496,1160.65 208.527,1160.39 208.558,1160.12 208.589,1159.84 208.62,1159.56 208.652,1159.28 208.684,1159 208.716,1158.71 208.748,1158.42 208.781,1158.13 208.814,1157.83 208.847,1157.53 208.881,1157.23 208.915,1156.92 208.949,1156.61 208.984,1156.29 209.019,1155.98 209.054,1155.65 209.09,1155.33 209.125,1155 209.162,1154.66 209.198,1154.33 209.235,1153.99 209.272,1153.64 209.31,1153.29 209.348,1152.94 209.386,1152.58 209.424,1152.22 209.463,1151.86 209.502,1151.49 209.542,1151.11 209.582,1150.74 209.622,1150.35 209.663,1149.97 209.704,1149.58 209.745,1149.18 209.787,1148.78 209.829,1148.38 209.872,1147.97 209.915,1147.56 209.958,1147.14 210.002,1146.72 210.046,1146.29 210.09,1145.86 210.135,1145.42 210.181,1144.98 210.226,1144.53 210.272,1144.08 210.319,1143.63 210.366,1143.16 210.413,1142.7 210.461,1142.23 210.509,1141.75 210.558,1141.27 210.607,1140.78 210.657,1140.29 210.707,1139.79 210.757,1139.28 210.808,1138.77 210.859,1138.26 210.911,1137.74 210.964,1137.21 211.016,1136.68 211.07,1136.14 211.123,1135.6 211.178,1135.05 211.232,1134.49 211.288,1133.93 211.343,1133.36 211.4,1132.79 211.456,1132.21 211.514,1131.62 211.571,1131.03 211.63,1130.43 211.688,1129.83 211.748,1129.22 211.808,1128.6 211.868,1127.97 211.929,1127.34 211.99,1126.7 212.053,1126.06 212.115,1125.41 212.178,1124.75 212.242,1124.08 212.306,1123.41 212.371,1122.73 212.437,1122.05 212.503,1121.35 212.57,1120.65 212.637,1119.94 212.705,1119.23 212.773,1118.5 212.843,1117.77 212.912,1117.03 212.983,1116.29 213.054,1115.53 213.125,1114.77 213.198,1114 213.271,1113.23 213.344,1112.44 213.419,1111.65 213.494,1110.85 213.569,1110.04 213.646,1109.22 213.723,1108.39 213.8,1107.56 213.879,1106.71 213.958,1105.86 214.038,1105 214.118,1104.13 214.2,1103.26 214.282,1102.37 214.364,1101.47 214.448,1100.57 214.532,1099.66 214.617,1098.73 214.703,1097.8 214.79,1096.86 214.877,1095.91 214.965,1094.95 215.054,1093.98 215.144,1093 215.234,1092.01 215.326,1091.02 215.418,1090.01 215.511,1088.99 215.605,1087.96 215.699,1086.93 215.795,1085.88 215.891,1084.82 215.989,1083.75 216.087,1082.67 216.186,1081.59 216.286,1080.49 216.387,1079.38 216.489,1078.26 216.591,1077.12 216.695,1075.98 216.8,1074.83 216.905,1073.67 217.012,1072.49 217.119,1071.31 217.227,1070.11 217.337,1068.9 217.447,1067.68 217.559,1066.45 217.671,1065.21 217.784,1063.95 217.899,1062.69 218.014,1061.41 218.131,1060.12 218.248,1058.82 218.367,1057.51 218.486,1056.18 218.607,1054.84 218.729,1053.49 218.852,1052.13 218.976,1050.76 219.101,1049.37 219.228,1047.97 219.355,1046.56 219.484,1045.14 219.613,1043.7 219.744,1042.25 219.876,1040.78 220.01,1039.31 220.144,1037.82 220.28,1036.32 220.417,1034.8 220.555,1033.27 220.695,1031.73 220.835,1030.17 220.977,1028.6 221.121,1027.02 221.265,1025.42 221.411,1023.81 221.558,1022.19 221.707,1020.55 221.857,1018.89 222.008,1017.23 222.16,1015.55 222.314,1013.85 222.47,1012.14 222.626,1010.42 222.785,1008.68 222.944,1006.92 223.105,1005.16 223.268,1003.37 223.432,1001.57 223.597,999.762 223.764,997.934 223.932,996.091 224.102,994.233 224.274,992.36 224.447,990.472 224.622,988.568 224.798,986.648 224.976,984.714 225.155,982.763 225.336,980.797 225.519,978.815 225.703,976.818 225.889,974.805 226.076,972.775 226.266,970.73 226.457,968.669 226.65,966.591 226.844,964.497 227.04,962.387 227.238,960.261 227.438,958.118 227.64,955.959 227.843,953.784 228.049,951.592 228.256,949.383 228.465,947.157 228.676,944.915 228.889,942.656 229.103,940.38 229.32,938.088 229.539,935.778 229.759,933.451 229.982,931.107 230.206,928.746 230.433,926.368 230.662,923.973 230.893,921.56 231.125,919.13 231.36,916.683 231.597,914.219 231.837,911.736 232.078,909.237 232.322,906.72 232.567,904.185 232.815,901.633 233.066,899.063 233.318,896.476 233.573,893.87 233.83,891.247 234.089,888.607 234.351,885.948 234.615,883.272 234.882,880.578 235.15,877.866 235.422,875.136 235.696,872.388 235.972,869.622 236.251,866.839 236.532,864.037 236.816,861.218 237.102,858.38 237.391,855.525 237.682,852.651 237.977,849.76 238.273,846.851 238.573,843.923 238.875,840.978 239.18,838.014 239.488,835.033 239.798,832.034 240.112,829.016 240.428,825.981 240.747,822.928 241.069,819.857 241.394,816.768 241.721,813.661 242.052,810.536 242.386,807.394 242.722,804.233 243.062,801.055 243.405,797.86 243.751,794.646 244.1,791.415 244.452,788.166 244.807,784.9 245.166,781.616 245.528,778.314 245.893,774.996 246.261,771.659 246.633,768.306 247.008,764.935 247.386,761.547 247.768,758.142 248.154,754.72 248.542,751.281 248.935,747.825 249.331,744.353 249.73,740.863 250.133,737.357 250.54,733.835 250.95,730.295 251.364,726.74 251.782,723.168 252.204,719.58 252.629,715.976 253.058,712.356 253.491,708.72 253.928,705.069 254.369,701.402 254.814,697.719 255.263,694.021 255.716,690.308 256.173,686.579 256.635,682.836 257.1,679.078 257.57,675.305 258.044,671.518 258.522,667.716 259.004,663.9 259.491,660.07 259.982,656.226 260.478,652.369 260.978,648.497 261.483,644.613 261.992,640.715 262.506,636.804 263.024,632.88 263.548,628.944 264.075,624.995 264.608,621.034 265.146,617.061 265.688,613.076 266.235,609.08 266.787,605.072 267.344,601.052 267.907,597.022 268.474,592.981 269.046,588.93 269.624,584.868 270.207,580.797 270.795,576.715 271.388,572.624 271.987,568.524 272.591,564.415 273.201,560.297 273.816,556.17 274.436,552.036 275.063,547.893 275.694,543.743 276.332,539.585 276.975,535.42 277.625,531.249 278.28,527.071 278.941,522.887 279.608,518.697 280.281,514.501 280.96,510.3 281.645,506.095 282.336,501.885 283.034,497.67 283.738,493.452 284.448,489.23 285.165,485.005 285.888,480.777 286.618,476.547 287.354,472.314 288.097,468.08 288.847,463.844 289.603,459.607 290.367,455.37 291.137,451.132 291.914,446.894 292.698,442.657 293.49,438.421 294.288,434.186 295.094,429.953 295.906,425.722 296.727,421.494 297.554,417.269 298.39,413.047 299.232,408.828 300.083,404.615 300.941,400.405 301.806,396.201 302.68,392.003 303.561,387.81 304.451,383.624 305.348,379.446 306.254,375.274 307.167,371.11 308.089,366.955 309.02,362.809 309.958,358.672 310.906,354.545 311.861,350.428 312.826,346.322 313.799,342.227 314.781,338.144 315.772,334.074 316.771,330.016 317.78,325.971 318.798,321.941 319.825,317.925 320.861,313.923 321.907,309.937 322.962,305.967 324.027,302.014 325.101,298.078 326.185,294.159 327.279,290.258 328.383,286.376 329.497,282.513 330.62,278.671 331.754,274.848 332.898,271.046 334.053,267.266 335.218,263.508 336.393,259.772 337.579,256.06 338.776,252.371 339.984,248.707 341.202,245.067 342.432,241.454 343.672,237.866 344.924,234.304 346.187,230.77 347.462,227.264 348.748,223.786 350.045,220.338 351.355,216.919 352.676,213.53 354.009,210.171 355.354,206.845 356.712,203.55 358.081,200.288 359.463,197.059 360.858,193.864 362.265,190.703 363.685,187.577 365.117,184.487 366.563,181.434 368.022,178.417 369.493,175.437 370.979,172.496 372.477,169.593 373.989,166.729 375.515,163.905 377.054,161.122 378.608,158.38 380.175,155.679 381.757,153.02 383.353,150.405 384.963,147.832 386.588,145.304 388.228,142.821 389.882,140.383 391.551,137.991 393.236,135.645 394.935,133.345 396.65,131.094 398.381,128.891 400.127,126.736 401.889,124.631 403.667,122.576 405.46,120.571 407.271,118.617 409.097,116.714 410.94,114.864 412.799,113.067 414.676,111.323 416.569,109.633 418.48,107.996 420.407,106.415 422.352,104.889 424.315,103.419 426.296,102.006 428.294,100.65 430.31,99.351 432.345,98.1099 434.398,96.9273 436.469,95.8038 438.56,94.7401 440.669,93.7365 442.797,92.7933 444.944,91.9108 447.111,91.0895 449.298,90.33 451.504,89.6331 453.73,88.9992 455.976,88.4285 458.243,87.9214 460.529,87.478 462.837,87.0988 465.166,86.7846 467.515,86.5358 469.886,86.3529 472.278,86.2362 474.692,86.1857 477.127,86.2016 479.585,86.2845 482.065,86.4349 484.567,86.6534 487.092,86.9403 489.639,87.2957 492.21,87.7196 494.804,88.2121 497.421,88.7739 500.062,89.4054 502.727,90.107 505.416,90.879 508.129,91.7214 510.867,92.6341 513.629,93.6173 516.416,94.6715 519.229,95.7972 522.067,96.9946 524.931,98.264 527.82,99.6052 530.736,101.018 533.678,102.502 536.646,104.059 539.642,105.688 542.664,107.39 545.714,109.165 548.791,111.013 551.896,112.933 555.029,114.925 558.191,116.99 561.381,119.128 564.599,121.339 567.847,123.624 571.125,125.981 574.431,128.411 577.768,130.914 581.135,133.49 584.532,136.14 587.96,138.863 591.419,141.66 594.91,144.53 598.431,147.472 601.985,150.487 605.571,153.574 609.189,156.735 612.839,159.969 616.523,163.274 620.24,166.651 623.991,170.099 627.775,173.617 631.594,177.205 635.447,180.864 639.335,184.594 643.258,188.392 647.217,192.26 651.211,196.196 655.242,200.2 659.309,204.272 663.412,208.413 667.553,212.623 671.731,216.899 675.947,221.242 680.201,225.651 684.493,230.126 688.824,234.667 693.195,239.273 697.604,243.945 702.054,248.681 706.544,253.48 711.074,258.342 715.645,263.267 720.258,268.255 724.912,273.306 729.609,278.419 734.347,283.592 739.129,288.825 743.954,294.117 748.822,299.468 753.735,304.878 758.691,310.346 763.693,315.873 768.74,321.455 773.832,327.092 778.97,332.784 784.155,338.53 789.387,344.33 794.665,350.184 799.992,356.09 805.367,362.046 810.79,368.052 816.262,374.107 821.784,380.211 827.355,386.364 832.977,392.565 838.65,398.812 844.374,405.106 850.15,411.443 855.978,417.825 861.858,424.251 867.792,430.72 873.779,437.233 879.82,443.786 885.916,450.379 892.067,457.01 898.274,463.679 904.537,470.385 910.856,477.127 917.232,483.905 923.666,490.716 930.158,497.558 936.709,504.431 943.319,511.333 949.989,518.264 956.718,525.226 963.509,532.216 970.361,539.233 977.275,546.276 984.252,553.345 991.291,560.44 998.394,567.561 1005.56,574.707 1012.79,581.879 1020.09,589.072 1027.45,596.286 1034.88,603.519 1042.38,610.77 1049.95,618.039 1057.58,625.325 1065.28,632.625 1073.05,639.937 1080.89,647.26 1088.81,654.593 1096.79,661.939 1104.85,669.298 1112.98,676.674 1121.18,684.065 1129.46,691.474 1137.81,698.9 1146.23,706.347 1154.74,713.816 1163.32,721.308 1171.97,728.824 1180.71,736.362 1189.52,743.92 1198.42,751.497 1207.39,759.094 1216.45,766.713 1225.59,774.356 1234.81,782.027 1244.11,789.73 1253.5,797.469 1262.97,805.251 1272.53,813.086 1282.17,820.981 1291.9,828.944 1301.72,836.977 1311.63,845.078 1321.63,853.242 1331.71,861.46 1341.89,869.721 1352.16,878.009 1362.53,886.305 1372.98,894.585 1383.53,902.822 1394.18,910.986 1404.93,919.043 1415.77,926.956 1426.7,934.672 1437.74,942.121 1448.88,949.208 1460.11,955.802 1471.45,961.735 1482.9,966.796 1494.44,970.727 1506.09,973.224 1517.84,973.944 1529.7,972.519 1541.67,968.574 1553.75,961.753 1565.93,951.757 1578.23,938.369 1590.63,921.487 1603.15,901.152 1615.78,877.574 1628.53,851.137 1641.39,822.414 1654.37,792.146 1667.46,761.225 1680.67,730.647 1694,701.473 1707.46,674.767 1721.03,651.543 1734.73,632.711 1748.55,619.024 1762.49,611.037 1776.56,609.077 1790.76,613.229 1805.09,623.339 1819.54,639.034 1834.13,659.764 1848.85,684.842 1863.7,713.498 1878.68,744.93 1893.8,778.353 1909.06,813.038 1924.46,848.341 1939.99,883.72 1955.66,918.735 1971.48,953.033 1987.44,986.332 2003.54,1018.4 2019.79,1049.05 2036.19,1078.1 2052.73,1105.45 2069.42,1131 2086.27,1154.7 2103.26,1176.56 2120.41,1196.66 2137.72,1215.1 2155.18,1232.03 2172.8,1247.6 2190.58,1261.97 2208.52,1275.24 2226.62,1287.49 2244.88,1298.73 2263.31,1308.95 2281.91,1318.14 2300.67,1326.31 2319.6,1333.5 2338.71,1339.81 2357.98,1345.37 2377.44,1350.36 2397.06,1354.9 2416.87,1359.12 2436.85,1363.06 2457.01,1366.72 2477.36,1370.04 2497.89,1372.92 2518.61,1375.29 2539.51,1377.13 2560.6,1378.46 2581.88,1379.41 2603.36,1380.13 2625.02,1380.77 2646.89,1381.44 2668.95,1382.19 2691.21,1382.96 2713.67,1383.65 2736.34,1384.11 2759.21,1384.24 2782.28,1383.96 2805.57,1383.32 2829.06,1382.41 2852.77,1381.4 2876.69,1380.43 2900.83,1379.61 2925.18,1378.96 2949.76,1378.38 2974.56,1377.71 2999.58,1376.78 3024.83,1375.47 3050.3,1373.76 3076.01,1371.76 3101.95,1369.67 3128.12,1367.7 3154.53,1366.07 3181.18,1364.84 3208.07,1364 3235.2,1363.41 3262.58,1362.86 3290.2,1362.2 3318.08,1361.33 3346.2,1360.26 3374.58,1359.11 3403.22,1358.05 3432.11,1357.23 3461.27,1356.67 3490.69,1356.31 3520.37,1355.94 3550.33,1355.31 3580.55,1354.24 3611.05,1352.65 3641.82,1350.63 3672.87,1348.37 3704.2,1346.14 3735.82,1344.16 3767.72,1342.51 3799.91,1341.11 3832.38,1339.76 3865.16,1338.24 3898.23,1336.38 3931.59,1334.13 3965.26,1331.62 3999.23,1329.06 4033.51,1326.72 4068.1,1324.77 4103.01,1323.23 4138.22,1321.96 4173.76,1320.71 4209.62,1319.25 4245.8,1317.44 4282.31,1315.29 4319.14,1312.97 4356.31,1310.76 4393.82,1308.88 4431.66,1307.41 4469.85,1306.26 4508.38,1305.19 4547.26,1303.98 4586.5,1302.46 4626.08,1300.61 4666.02,1298.56 4706.33,1296.55 4747,1294.83 4788.03,1293.51 4829.44,1292.5 4871.22,1291.58 4913.38,1290.5 4955.92,1289.11 4998.84,1287.43 5042.15,1285.58 5085.86,1283.75 5129.95,1282.15 5174.45,1280.95 5219.35,1280.11 5264.65,1279.39 5310.37,1278.46 5356.49,1277.13 5403.03,1275.48 5450,1273.76 5497.39,1272.14 5545.2,1270.73 5593.45,1269.61 5642.13,1268.85 5691.26,1268.28 5740.82,1267.53 5790.84,1266.29 5841.31,1264.64 5892.23,1262.95 5943.61,1261.56 5995.46,1260.47 6047.78,1259.57 6100.57,1258.81 6153.83,1258.13 6207.58,1257.36 6261.81,1256.29 6316.53,1254.86 6371.75,1253.3 6427.47,1251.96 6483.69,1251.02 6540.41,1250.45 6597.65,1249.94 6655.41,1249.18 6713.69,1248.1 6772.49,1246.9 6831.83,1245.77 6891.7,1244.71 6952.12,1243.63 7013.07,1242.67 7074.58,1242.04 7136.65,1241.65 7199.28,1241.07 7262.47,1240.01 7326.23,1238.67 7390.57,1237.44 7455.49,1236.58 7521,1236.02 7587.1,1235.56 7653.8,1234.98 7721.1,1234.17 7789,1233.2 7857.52,1232.29 7926.66,1231.46 7996.43,1230.58 8066.82,1229.69 8137.85,1229.03 8209.53,1228.69 8281.85,1228.38 8354.82,1227.68 8428.45,1226.6 8502.75,1225.48 8577.72,1224.62 8653.37,1224.08 8729.7,1223.78 8806.72,1223.45 8884.43,1222.87 8962.85,1222.02 9041.98,1221.15 9121.82,1220.5 9202.38,1219.94 9283.67,1219.24 9365.7,1218.59 9448.46,1218.17 9531.98,1217.84 9616.25,1217.44 9701.28,1216.79 9787.07,1215.97 9873.65,1215.17 9961,1214.47 10049.1,1214.11 10138.1,1214.03 10227.8,1213.75 10318.4,1213.09 10409.8,1212.27 10502,1211.6 10595,1211.15 10688.9,1210.79 10783.6,1210.41 10879.2,1210.03 10975.6,1209.58 11072.9,1209.05 11171.1,1208.57 11270.2,1208.21 11370.2,1207.7 11471,1207.11 11572.8,1206.71 11675.5,1206.45 11779.2,1206.21 11883.7,1205.86 11989.3,1205.33 12095.7,1204.8 12203.2,1204.29 12311.6,1203.87 12420.9,1203.72 12531.3,1203.62 12642.7,1203.25 12755.1,1202.67 12868.4,1202.2 12982.9,1201.81 13098.3,1201.51 13214.8,1201.33 13332.3,1201.12 13450.9,1200.77 13570.6,1200.36 13691.4,1199.9 13813.2,1199.65 13936.2,1199.46 14060.2,1199.12 14185.4,1198.79 14311.7,1198.56 14439.2,1198.3 14567.8,1197.99 14697.6,1197.75 14828.5,1197.5 14960.6,1197.1 15093.9,1196.79 15228.5,1196.62 15364.2,1196.46 15501.2,1196.3 15639.4,1195.99 15778.8,1195.65 15919.5,1195.37 16061.5,1195.08 16204.8,1194.9 16349.3,1194.83 16495.2,1194.69 16642.4,1194.37 16790.9,1194.06 16940.7,1193.85 17091.9,1193.59 17244.5,1193.42 17398.5,1193.35 17553.8,1193.17 17710.6,1192.93 17868.7,1192.69 18028.3,1192.46 18189.3,1192.31 18351.8,1192.13 18515.8,1191.99 18681.2,1191.81 18848.2,1191.68 19016.6,1191.45 19186.6,1191.26 19358.1,1191.17 19531.1,1190.98 19705.7,1190.77 19881.9,1190.64 20059.7,1190.54 20239.1,1190.36 20420.1,1190.22 20602.7,1190.11 20787,1189.93 20973,1189.71 21160.6,1189.62 21349.9,1189.51 21541,1189.43 21733.8,1189.29 21928.3,1189.15 22124.5,1188.99 22322.6,1188.83 22522.4,1188.72 22724.1,1188.63 22927.5,1188.58 23132.8,1188.46 23340,1188.28 23549,1188.18 23759.9,1188.04 23972.7,1187.92 24187.5,1187.87 24404.1,1187.81 24622.8,1187.69 24843.4,1187.52 25066,1187.46 25290.6,1187.33 25517.3,1187.24 25746,1187.19 25976.7,1187.11 26209.6,1186.99 26444.5,1186.89 26681.6,1186.81 26920.8,1186.71 27162.2,1186.63 27405.8,1186.57 27651.5,1186.49 27899.5,1186.4 28149.7,1186.33 28402.2,1186.23 28657,1186.17 28914,1186.09 29173.4,1186.03 29435.1,1185.95 29699.2,1185.89 29965.7,1185.82 30234.6,1185.73 30505.9,1185.69 30779.7,1185.61 31055.9,1185.55 31334.7,1185.48 31615.9,1185.44 31899.7,1185.37 32186.1,1185.3 32475,1185.26 32766.6,1185.19 33060.8,1185.12 33357.6,1185.08 33657.2,1185.03 33959.4,1184.97 34264.4,1184.92 34572.1,1184.88 34882.6,1184.82 35195.9,1184.75 35512.1,1184.72 35831.1,1184.67 36153,1184.63 36477.8,1184.58 36805.5,1184.54 37136.2,1184.48 37469.8,1184.43 37806.5,1184.4 38146.3,1184.35 38489.1,1184.33 38835,1184.28 39184,1184.24 39536.2,1184.19 39891.5,1184.15 40250.1,1184.11 40611.9,1184.08 40977,1184.06 41345.3,1184.02 41717,1183.97 42092.1,1183.94 42470.6,1183.9 42852.4,1183.87 43237.7,1183.84 43626.5,1183.82 44018.9,1183.78 44414.7,1183.74 44814.2,1183.72 45217.2,1183.68 45623.9,1183.65 46034.2,1183.63 46448.3,1183.61 46866.1,1183.57 47287.7,1183.54 47713.1,1183.52 48142.3,1183.48 48575.5,1183.46 49012.5,1183.44 49453.5,1183.42 49898.4,1183.39 50347.4,1183.36 50800.4,1183.34 51257.6,1183.31 51718.8,1183.3 52184.3,1183.28 52653.9,1183.26 53127.8,1183.23 53605.9,1183.21 54088.4,1183.19 54575.2,1183.16 55066.5,1183.15 55562.2,1183.13 56062.3,1183.11 56567,1183.09 57076.2,1183.07 57590,1183.05 58108.5,1183.03 58631.7,1183.02 59159.6,1183 59692.2,1182.99 60229.7,1182.97 60772,1182.95 61319.2,1182.93 61871.4,1182.92 62428.6,1182.9 62990.8,1182.89 63558,1182.87 64130.4,1182.86 64708,1182.84 65290.8,1182.83 65878.8,1182.81 66472.2,1182.8 67070.9,1182.79 67675.1,1182.78 68284.7,1182.76 68899.8,1182.75 69520.4,1182.74 70146.7,1182.72 70778.6,1182.71 71416.2,1182.7 72059.6,1182.69 72708.8,1182.68 73363.9,1182.66 74024.9,1182.65 74691.9,1182.64 75364.9,1182.63 76043.9,1182.62 76729.2,1182.61 77420.5,1182.6 78118.2,1182.59 78822.1,1182.58 79532.5,1182.57 80249.2,1182.56 80972.4,1182.55 81702.1,1182.55 82438.4,1182.54 83181.4,1182.53 83931.1,1182.52 84687.6,1182.51 85450.9,1182.5 86221.1,1182.49 86998.2,1182.49 87782.4,1182.48 88573.7,1182.47 89372.1,1182.46 90177.7,1182.46 90990.6,1182.45 91810.9,1182.44 92638.6,1182.43 93473.7,1182.43 94316.4,1182.42 95166.7,1182.41 96024.7,1182.41 96890.4,1182.4 97764,1182.39 98645.4,1182.39 99534.8,1182.38 100432,1182.37 101338,1182.37 102252,1182.36 103174,1182.36 104104,1182.35 105043,1182.35 105990,1182.34 106946,1182.33 107910,1182.33 108883,1182.32 109865,1182.32 110856,1182.32 111856,1182.31 112864,1182.3 113882,1182.3 114909,1182.3 115946,1182.29 116991,1182.29 118047,1182.28 119111,1182.28 120186,1182.27 121270,1182.27 122363,1182.27 123467,1182.26 124581,1182.26 125705,1182.25 126838,1182.25 127983,1182.25 129137,1182.24 130302,1182.24 131477,1182.24 132663,1182.23 133860,1182.23 135068,1182.23 136286,1182.22 137516,1182.22 138756,1182.22 140008,1182.21 141271,1182.21 142546,1182.21 143832,1182.2 145130,1182.2 146439,1182.2 147760,1182.2 149093,1182.19 150439,1182.19 151796,1182.19 153166,1182.18 154548,1182.18 155942,1182.18 157349,1182.18 158769,1182.17 160202,1182.17 161647,1182.17 163106,1182.17 164578,1182.16 166063,1182.16 167561,1182.16 169073,1182.16 170599,1182.16 172139,1182.15 173692,1182.15 175259,1182.15 176841,1182.15 178437,1182.15 180047,1182.14 181672,1182.14 183312,1182.14 184966,1182.14 186635,1182.14 188320,1182.14 190019,1182.13 191734,1182.13 193465,1182.13 195211,1182.13 196973,1182.13 198751,1182.13 200545,1182.12 202355,1182.12 204181,1182.12 206024,1182.12 207884,1182.12 209760,1182.12 211653,1182.12 213564,1182.11 215492,1182.11 217437,1182.11 219399,1182.11 221380,1182.11 223378,1182.11 225394,1182.11 227429,1182.11 229482,1182.1 231554,1182.1 233644,1182.1 235753,1182.1 237881,1182.1 240029,1182.1 242195,1182.1 244382,1182.1 246588,1182.1 248814,1182.09 251060,1182.09 253327,1182.09 255614,1182.09 257921,1182.09 260250,1182.09 262599,1182.09 264970,1182.09 267362,1182.09 269776,1182.09 272211,1182.09 274669,1182.08 277149,1182.08 279651,1182.08 282176,1182.08 284724,1182.08 287294,1182.08 289888,1182.08 292505,1182.08 295146,1182.08 297811,1182.08 300500,1182.08 303213,1182.08 305951,1182.08 308713,1182.08 311501,1182.07 314313,1182.07 317151,1182.07 320015,1182.07 322904,1182.07 325820,1182.07 328762,1182.07 331730,1182.07 334726,1182.07 337748,1182.07 340798,1182.07 343875,1182.07 346980,1182.07 350113,1182.07 353275,1182.07 356465,1182.07 359684,1182.07 362931,1182.07 366209,1182.06 369516,1182.06 372852,1182.06 376219,1182.06 379616,1182.06 383044,1182.06 386503,1182.06 389994,1182.06 393515,1182.06 397069,1182.06 400655,1182.06 404273,1182.06 407924,1182.06 411607,1182.06 415324,1182.06 419075,1182.06 422859,1182.06 426678,1182.06 430531,1182.06 434419,1182.06 438343,1182.06 442301,1182.06 446295,1182.06 450326,1182.06 454393,1182.06 458496,1182.06 462637,1182.05 466815,1182.05 471031,1182.05 475285,1182.05 479577,1182.05 483908,1182.05 488279,1182.05 492689,1182.05 497138,1182.05 501628,1182.05 506158,1182.05 510730,1182.05 515342,1182.05 519997,1182.05 524693,1182.05 529432,1182.05 534213,1182.05 539038,1182.05 543906,1182.05 548819,1182.05 553775,1182.05 558777,1182.05 563824,1182.05 568916,1182.05 574054,1182.05 579239,1182.05 584471,1182.05 589750,1182.05 595076,1182.05 600451,1182.05 605874,1182.05 611346,1182.05 616868,1182.05 622440,1182.05 628062,1182.05 633734,1182.05 639458,1182.05 645234,1182.05 651062,1182.05 656942,1182.05 662876,1182.05 668863,1182.05 674905,1182.05 681000,1182.05 687151,1182.05 693358,1182.05 699621,1182.04 705940,1182.04 712316,1182.04 718750,1182.04 725242,1182.04 731793,1182.04 738403,1182.04 745073,1182.04 751803,1182.04 758593,1182.04 765445,1182.04 772359,1182.04 779336,1182.04 786375,1182.04 793478,1182.04 800646,1182.04 807878,1182.04 815175,1182.04 822538,1182.04 829968,1182.04 837465,1182.04 845030,1182.04 852663,1182.04 860365,1182.04 868136,1182.04 875978,1182.04 883891,1182.04 891875,1182.04 899931,1182.04 908060,1182.04 916263,1182.04 924539,1182.04 932891,1182.04 941318,1182.04 949821,1182.04 958401,1182.04 967058,1182.04 975793,1182.04 984608,1182.04 993502,1182.04 1.00248e+06,1182.04 1.01153e+06,1182.04 1.02067e+06,1182.04 1.02989e+06,1182.04 1.03919e+06,1182.04 1.04858e+06,1182.04 1.05805e+06,1182.04 1.06761e+06,1182.04 1.07725e+06,1182.04 1.08698e+06,1182.04 1.0968e+06,1182.04 1.10671e+06,1182.04 1.11671e+06,1182.04 1.1268e+06,1182.04 1.13698e+06,1182.04 1.14725e+06,1182.04 1.15761e+06,1182.04 1.16807e+06,1182.04 1.17862e+06,1182.04 1.18927e+06,1182.04 1.20001e+06,1182.04 1.21085e+06,1182.04 1.22179e+06,1182.04 1.23282e+06,1182.04 1.24396e+06,1182.04 1.2552e+06,1182.04 1.26654e+06,1182.04 1.27798e+06,1182.04 1.28952e+06,1182.04 1.30117e+06,1182.04 1.31293e+06,1182.04 1.32479e+06,1182.04 1.33676e+06,1182.04 1.34883e+06,1182.04 1.36102e+06,1182.04 1.37331e+06,1182.04 1.38572e+06,1182.04 1.39824e+06,1182.04 1.41087e+06,1182.04 1.42361e+06,1182.04 1.43647e+06,1182.04 1.44945e+06,1182.03 1.46254e+06,1182.03 1.47576e+06,1182.03 1.48909e+06,1182.03 1.50254e+06,1182.03 1.51611e+06,1182.03 1.52981e+06,1182.03 1.54363e+06,1182.03 1.55757e+06,1182.03 1.57165e+06,1182.03 1.58584e+06,1182.03 1.60017e+06,1182.03 1.61463e+06,1182.03 1.62921e+06,1182.03 1.64393e+06,1182.03 1.65878e+06,1182.03 1.67377e+06,1182.03 1.68889e+06,1182.03 1.70414e+06,1182.03 1.71954e+06,1182.03 1.73507e+06,1182.03 1.75075e+06,1182.03 1.76656e+06,1182.03 1.78252e+06,1182.03 1.79863e+06,1182.03 1.81488e+06,1182.03 1.83127e+06,1182.03 1.84782e+06,1182.03 1.86451e+06,1182.03 1.88135e+06,1182.03 1.89835e+06,1182.03 1.9155e+06,1182.03 1.9328e+06,1182.03 1.95026e+06,1182.03 1.96788e+06,1182.03 1.98566e+06,1182.03 2.0036e+06,1182.03 2.0217e+06,1182.03 2.03997e+06,1182.03 2.05839e+06,1182.03 2.07699e+06,1182.03 2.09575e+06,1182.03 2.11469e+06,1182.03 2.13379e+06,1182.03 2.15307e+06,1182.03 2.17252e+06,1182.03 2.19215e+06,1182.03 2.21195e+06,1182.03 2.23193e+06,1182.03 2.2521e+06,1182.02 2.27244e+06,1182.02 2.29297e+06,1182.02 2.31369e+06,1182.02 2.33459e+06,1182.02 2.35568e+06,1182.02 2.37697e+06,1182.02 2.39844e+06,1182.02 2.42011e+06,1182.02 2.44197e+06,1182.02 2.46403e+06,1182.02 2.48629e+06,1182.02 2.50876e+06,1182.02 2.53142e+06,1182.02 2.55429e+06,1182.02 2.57737e+06,1182.02 2.60065e+06,1182.02 2.62415e+06,1182.02 2.64785e+06,1182.02 2.67178e+06,1182.02 2.69591e+06,1182.02 2.72027e+06,1182.02 2.74484e+06,1182.02 2.76964e+06,1182.02 2.79466e+06,1182.02 2.81991e+06,1182.02 2.84539e+06,1182.01 2.8711e+06,1182.01 2.89703e+06,1182.01 2.92321e+06,1182.01 2.94962e+06,1182.01 2.97626e+06,1182.01 3.00315e+06,1182.01 3.03029e+06,1182.01 3.05766e+06,1182.01 3.08529e+06,1182.01 3.11316e+06,1182.01 3.14129e+06,1182.01 3.16967e+06,1182.01 3.1983e+06,1182.01 3.2272e+06,1182.01 3.25635e+06,1182.01 3.28577e+06,1182.01 3.31546e+06,1182 3.34541e+06,1182 3.37563e+06,1182 3.40613e+06,1182 3.4369e+06,1182 3.46796e+06,1182 3.49929e+06,1182 3.5309e+06,1182 3.5628e+06,1182 3.59499e+06,1182 3.62747e+06,1182 3.66024e+06,1182 3.69331e+06,1182 3.72668e+06,1182 3.76035e+06,1181.99 3.79432e+06,1181.99 3.8286e+06,1181.99 3.86319e+06,1181.99 3.89809e+06,1181.99 3.93331e+06,1181.99 3.96884e+06,1181.99 4.0047e+06,1181.99 4.04088e+06,1181.99 4.07739e+06,1181.99 4.11423e+06,1181.99 4.1514e+06,1181.99 4.1889e+06,1181.98 4.1943e+06,1181.98 4.1943e+06,1181.98 4.1943e+06,1181.98 4.1943e+06,1181.98 4.1943e+06,1181.98 4.1943e+06,1181.98 4.1943e+06,1181.98 4.1943e+06,1181.98 4.1943e+06,1181.98 4.1943e+06,1181.98 4.1943e+06,1181.97 4.1943e+06,1181.97 4.1943e+06,1181.97 4.1943e+06,1181.97 4.1943e+06,1181.97 4.1943e+06,1181.97 4.1943e+06,1181.97 4.1943e+06,1181.97 4.1943e+06,1181.97 4.1943e+06,1181.96 4.1943e+06,1181.96 4.1943e+06,1181.96 4.1943e+06,1181.96 4.1943e+06,1181.96 4.1943e+06,1181.96 4.1943e+06,1181.96 4.1943e+06,1181.96 4.1943e+06,1181.96 4.1943e+06,1181.95 4.1943e+06,1181.95 4.1943e+06,1181.95 4.1943e+06,1181.95 4.1943e+06,1181.95 4.1943e+06,1181.95 4.1943e+06,1181.95 4.1943e+06,1181.95 4.1943e+06,1181.94 4.1943e+06,1181.94 4.1943e+06,1181.94 4.1943e+06,1181.94 4.1943e+06,1181.94 4.1943e+06,1181.94 4.1943e+06,1181.94 4.1943e+06,1181.93 4.1943e+06,1181.93 4.1943e+06,1181.93 4.1943e+06,1181.93 4.1943e+06,1181.93 4.1943e+06,1181.93 4.1943e+06,1181.93 4.1943e+06,1181.92 4.1943e+06,1181.92 "/>
<path clip-path="url(#clip240)" d="M2013.97 196.789 L2281.17 196.789 L2281.17 93.1086 L2013.97 93.1086  Z" fill="#ffffff" fill-rule="evenodd" fill-opacity="1"/>
<polyline clip-path="url(#clip240)" style="stroke:#000000; stroke-linecap:round; stroke-linejoin:round; stroke-width:4; stroke-opacity:1; fill:none" points="2013.97,196.789 2281.17,196.789 2281.17,93.1086 2013.97,93.1086 2013.97,196.789 "/>
<polyline clip-path="url(#clip240)" style="stroke:#009af9; stroke-linecap:round; stroke-linejoin:round; stroke-width:4; stroke-opacity:1; fill:none" points="2037.84,144.949 2181.01,144.949 "/>
<path clip-path="url(#clip240)" d="M2218.72 164.636 Q2216.91 169.266 2215.2 170.678 Q2213.49 172.09 2210.62 172.09 L2207.21 172.09 L2207.21 168.525 L2209.71 168.525 Q2211.47 168.525 2212.44 167.692 Q2213.42 166.858 2214.6 163.756 L2215.36 161.812 L2204.88 136.303 L2209.39 136.303 L2217.49 156.581 L2225.59 136.303 L2230.11 136.303 L2218.72 164.636 Z" fill="#000000" fill-rule="nonzero" fill-opacity="1" /><path clip-path="url(#clip240)" d="M2237.4 158.293 L2245.04 158.293 L2245.04 131.928 L2236.73 133.595 L2236.73 129.335 L2244.99 127.669 L2249.67 127.669 L2249.67 158.293 L2257.31 158.293 L2257.31 162.229 L2237.4 162.229 L2237.4 158.293 Z" fill="#000000" fill-rule="nonzero" fill-opacity="1" /></svg>
