<?xml version="1.0" encoding="utf-8"?>
<svg xmlns="http://www.w3.org/2000/svg" xmlns:xlink="http://www.w3.org/1999/xlink" width="600" height="400" viewBox="0 0 2400 1600">
<defs>
  <clipPath id="clip270">
    <rect x="0" y="0" width="2400" height="1600"/>
  </clipPath>
</defs>
<path clip-path="url(#clip270)" d="M0 1600 L2400 1600 L2400 0 L0 0  Z" fill="#ffffff" fill-rule="evenodd" fill-opacity="1"/>
<defs>
  <clipPath id="clip271">
    <rect x="480" y="0" width="1681" height="1600"/>
  </clipPath>
</defs>
<path clip-path="url(#clip270)" d="M287.366 1423.18 L2352.76 1423.18 L2352.76 47.2441 L287.366 47.2441  Z" fill="#ffffff" fill-rule="evenodd" fill-opacity="1"/>
<defs>
  <clipPath id="clip272">
    <rect x="287" y="47" width="2066" height="1377"/>
  </clipPath>
</defs>
<polyline clip-path="url(#clip272)" style="stroke:#000000; stroke-linecap:round; stroke-linejoin:round; stroke-width:2; stroke-opacity:0.1; fill:none" points="512.998,1423.18 512.998,47.2441 "/>
<polyline clip-path="url(#clip272)" style="stroke:#000000; stroke-linecap:round; stroke-linejoin:round; stroke-width:2; stroke-opacity:0.1; fill:none" points="1000.12,1423.18 1000.12,47.2441 "/>
<polyline clip-path="url(#clip272)" style="stroke:#000000; stroke-linecap:round; stroke-linejoin:round; stroke-width:2; stroke-opacity:0.1; fill:none" points="1487.24,1423.18 1487.24,47.2441 "/>
<polyline clip-path="url(#clip272)" style="stroke:#000000; stroke-linecap:round; stroke-linejoin:round; stroke-width:2; stroke-opacity:0.1; fill:none" points="1974.36,1423.18 1974.36,47.2441 "/>
<polyline clip-path="url(#clip272)" style="stroke:#000000; stroke-linecap:round; stroke-linejoin:round; stroke-width:2; stroke-opacity:0.1; fill:none" points="287.366,1405.94 2352.76,1405.94 "/>
<polyline clip-path="url(#clip272)" style="stroke:#000000; stroke-linecap:round; stroke-linejoin:round; stroke-width:2; stroke-opacity:0.1; fill:none" points="287.366,1175.06 2352.76,1175.06 "/>
<polyline clip-path="url(#clip272)" style="stroke:#000000; stroke-linecap:round; stroke-linejoin:round; stroke-width:2; stroke-opacity:0.1; fill:none" points="287.366,944.167 2352.76,944.167 "/>
<polyline clip-path="url(#clip272)" style="stroke:#000000; stroke-linecap:round; stroke-linejoin:round; stroke-width:2; stroke-opacity:0.1; fill:none" points="287.366,713.278 2352.76,713.278 "/>
<polyline clip-path="url(#clip272)" style="stroke:#000000; stroke-linecap:round; stroke-linejoin:round; stroke-width:2; stroke-opacity:0.1; fill:none" points="287.366,482.389 2352.76,482.389 "/>
<polyline clip-path="url(#clip272)" style="stroke:#000000; stroke-linecap:round; stroke-linejoin:round; stroke-width:2; stroke-opacity:0.1; fill:none" points="287.366,251.5 2352.76,251.5 "/>
<polyline clip-path="url(#clip270)" style="stroke:#000000; stroke-linecap:round; stroke-linejoin:round; stroke-width:4; stroke-opacity:1; fill:none" points="287.366,1423.18 2352.76,1423.18 "/>
<polyline clip-path="url(#clip270)" style="stroke:#000000; stroke-linecap:round; stroke-linejoin:round; stroke-width:4; stroke-opacity:1; fill:none" points="512.998,1423.18 512.998,1404.28 "/>
<polyline clip-path="url(#clip270)" style="stroke:#000000; stroke-linecap:round; stroke-linejoin:round; stroke-width:4; stroke-opacity:1; fill:none" points="1000.12,1423.18 1000.12,1404.28 "/>
<polyline clip-path="url(#clip270)" style="stroke:#000000; stroke-linecap:round; stroke-linejoin:round; stroke-width:4; stroke-opacity:1; fill:none" points="1487.24,1423.18 1487.24,1404.28 "/>
<polyline clip-path="url(#clip270)" style="stroke:#000000; stroke-linecap:round; stroke-linejoin:round; stroke-width:4; stroke-opacity:1; fill:none" points="1974.36,1423.18 1974.36,1404.28 "/>
<path clip-path="url(#clip270)" d="M490.382 1454.1 Q486.771 1454.1 484.943 1457.66 Q483.137 1461.2 483.137 1468.33 Q483.137 1475.44 484.943 1479.01 Q486.771 1482.55 490.382 1482.55 Q494.017 1482.55 495.822 1479.01 Q497.651 1475.44 497.651 1468.33 Q497.651 1461.2 495.822 1457.66 Q494.017 1454.1 490.382 1454.1 M490.382 1450.39 Q496.193 1450.39 499.248 1455 Q502.327 1459.58 502.327 1468.33 Q502.327 1477.06 499.248 1481.67 Q496.193 1486.25 490.382 1486.25 Q484.572 1486.25 481.494 1481.67 Q478.438 1477.06 478.438 1468.33 Q478.438 1459.58 481.494 1455 Q484.572 1450.39 490.382 1450.39 Z" fill="#000000" fill-rule="nonzero" fill-opacity="1" /><path clip-path="url(#clip270)" d="M510.544 1479.7 L515.429 1479.7 L515.429 1485.58 L510.544 1485.58 L510.544 1479.7 Z" fill="#000000" fill-rule="nonzero" fill-opacity="1" /><path clip-path="url(#clip270)" d="M535.614 1454.1 Q532.003 1454.1 530.174 1457.66 Q528.368 1461.2 528.368 1468.33 Q528.368 1475.44 530.174 1479.01 Q532.003 1482.55 535.614 1482.55 Q539.248 1482.55 541.053 1479.01 Q542.882 1475.44 542.882 1468.33 Q542.882 1461.2 541.053 1457.66 Q539.248 1454.1 535.614 1454.1 M535.614 1450.39 Q541.424 1450.39 544.479 1455 Q547.558 1459.58 547.558 1468.33 Q547.558 1477.06 544.479 1481.67 Q541.424 1486.25 535.614 1486.25 Q529.803 1486.25 526.725 1481.67 Q523.669 1477.06 523.669 1468.33 Q523.669 1459.58 526.725 1455 Q529.803 1450.39 535.614 1450.39 Z" fill="#000000" fill-rule="nonzero" fill-opacity="1" /><path clip-path="url(#clip270)" d="M978 1454.1 Q974.389 1454.1 972.561 1457.66 Q970.755 1461.2 970.755 1468.33 Q970.755 1475.44 972.561 1479.01 Q974.389 1482.55 978 1482.55 Q981.635 1482.55 983.44 1479.01 Q985.269 1475.44 985.269 1468.33 Q985.269 1461.2 983.44 1457.66 Q981.635 1454.1 978 1454.1 M978 1450.39 Q983.81 1450.39 986.866 1455 Q989.945 1459.58 989.945 1468.33 Q989.945 1477.06 986.866 1481.67 Q983.81 1486.25 978 1486.25 Q972.19 1486.25 969.111 1481.67 Q966.056 1477.06 966.056 1468.33 Q966.056 1459.58 969.111 1455 Q972.19 1450.39 978 1450.39 Z" fill="#000000" fill-rule="nonzero" fill-opacity="1" /><path clip-path="url(#clip270)" d="M998.162 1479.7 L1003.05 1479.7 L1003.05 1485.58 L998.162 1485.58 L998.162 1479.7 Z" fill="#000000" fill-rule="nonzero" fill-opacity="1" /><path clip-path="url(#clip270)" d="M1013.28 1451.02 L1031.63 1451.02 L1031.63 1454.96 L1017.56 1454.96 L1017.56 1463.43 Q1018.58 1463.08 1019.6 1462.92 Q1020.62 1462.73 1021.63 1462.73 Q1027.42 1462.73 1030.8 1465.9 Q1034.18 1469.08 1034.18 1474.49 Q1034.18 1480.07 1030.71 1483.17 Q1027.24 1486.25 1020.92 1486.25 Q1018.74 1486.25 1016.47 1485.88 Q1014.23 1485.51 1011.82 1484.77 L1011.82 1480.07 Q1013.9 1481.2 1016.13 1481.76 Q1018.35 1482.32 1020.82 1482.32 Q1024.83 1482.32 1027.17 1480.21 Q1029.5 1478.1 1029.5 1474.49 Q1029.5 1470.88 1027.17 1468.77 Q1024.83 1466.67 1020.82 1466.67 Q1018.95 1466.67 1017.07 1467.08 Q1015.22 1467.5 1013.28 1468.38 L1013.28 1451.02 Z" fill="#000000" fill-rule="nonzero" fill-opacity="1" /><path clip-path="url(#clip270)" d="M1454.39 1481.64 L1462.03 1481.64 L1462.03 1455.28 L1453.72 1456.95 L1453.72 1452.69 L1461.98 1451.02 L1466.66 1451.02 L1466.66 1481.64 L1474.3 1481.64 L1474.3 1485.58 L1454.39 1485.58 L1454.39 1481.64 Z" fill="#000000" fill-rule="nonzero" fill-opacity="1" /><path clip-path="url(#clip270)" d="M1483.74 1479.7 L1488.63 1479.7 L1488.63 1485.58 L1483.74 1485.58 L1483.74 1479.7 Z" fill="#000000" fill-rule="nonzero" fill-opacity="1" /><path clip-path="url(#clip270)" d="M1508.81 1454.1 Q1505.2 1454.1 1503.37 1457.66 Q1501.57 1461.2 1501.57 1468.33 Q1501.57 1475.44 1503.37 1479.01 Q1505.2 1482.55 1508.81 1482.55 Q1512.45 1482.55 1514.25 1479.01 Q1516.08 1475.44 1516.08 1468.33 Q1516.08 1461.2 1514.25 1457.66 Q1512.45 1454.1 1508.81 1454.1 M1508.81 1450.39 Q1514.62 1450.39 1517.68 1455 Q1520.76 1459.58 1520.76 1468.33 Q1520.76 1477.06 1517.68 1481.67 Q1514.62 1486.25 1508.81 1486.25 Q1503 1486.25 1499.92 1481.67 Q1496.87 1477.06 1496.87 1468.33 Q1496.87 1459.58 1499.92 1455 Q1503 1450.39 1508.81 1450.39 Z" fill="#000000" fill-rule="nonzero" fill-opacity="1" /><path clip-path="url(#clip270)" d="M1942.01 1481.64 L1949.65 1481.64 L1949.65 1455.28 L1941.34 1456.95 L1941.34 1452.69 L1949.6 1451.02 L1954.28 1451.02 L1954.28 1481.64 L1961.92 1481.64 L1961.92 1485.58 L1942.01 1485.58 L1942.01 1481.64 Z" fill="#000000" fill-rule="nonzero" fill-opacity="1" /><path clip-path="url(#clip270)" d="M1971.36 1479.7 L1976.25 1479.7 L1976.25 1485.58 L1971.36 1485.58 L1971.36 1479.7 Z" fill="#000000" fill-rule="nonzero" fill-opacity="1" /><path clip-path="url(#clip270)" d="M1986.48 1451.02 L2004.83 1451.02 L2004.83 1454.96 L1990.76 1454.96 L1990.76 1463.43 Q1991.78 1463.08 1992.8 1462.92 Q1993.81 1462.73 1994.83 1462.73 Q2000.62 1462.73 2004 1465.9 Q2007.38 1469.08 2007.38 1474.49 Q2007.38 1480.07 2003.91 1483.17 Q2000.44 1486.25 1994.12 1486.25 Q1991.94 1486.25 1989.67 1485.88 Q1987.43 1485.51 1985.02 1484.77 L1985.02 1480.07 Q1987.1 1481.2 1989.32 1481.76 Q1991.55 1482.32 1994.02 1482.32 Q1998.03 1482.32 2000.37 1480.21 Q2002.7 1478.1 2002.7 1474.49 Q2002.7 1470.88 2000.37 1468.77 Q1998.03 1466.67 1994.02 1466.67 Q1992.15 1466.67 1990.27 1467.08 Q1988.42 1467.5 1986.48 1468.38 L1986.48 1451.02 Z" fill="#000000" fill-rule="nonzero" fill-opacity="1" /><path clip-path="url(#clip270)" d="M1092.61 1518.52 L1098.47 1518.52 L1098.47 1568.04 L1092.61 1568.04 L1092.61 1518.52 Z" fill="#000000" fill-rule="nonzero" fill-opacity="1" /><path clip-path="url(#clip270)" d="M1134.18 1549.81 Q1134.18 1543.44 1131.54 1539.94 Q1128.93 1536.44 1124.19 1536.44 Q1119.48 1536.44 1116.84 1539.94 Q1114.23 1543.44 1114.23 1549.81 Q1114.23 1556.14 1116.84 1559.64 Q1119.48 1563.14 1124.19 1563.14 Q1128.93 1563.14 1131.54 1559.64 Q1134.18 1556.14 1134.18 1549.81 M1140.04 1563.62 Q1140.04 1572.72 1136 1577.15 Q1131.95 1581.6 1123.62 1581.6 Q1120.53 1581.6 1117.79 1581.13 Q1115.05 1580.68 1112.48 1579.72 L1112.48 1574.03 Q1115.05 1575.43 1117.57 1576.1 Q1120.08 1576.76 1122.69 1576.76 Q1128.45 1576.76 1131.32 1573.74 Q1134.18 1570.75 1134.18 1564.67 L1134.18 1561.77 Q1132.37 1564.92 1129.54 1566.48 Q1126.7 1568.04 1122.76 1568.04 Q1116.2 1568.04 1112.19 1563.05 Q1108.18 1558.05 1108.18 1549.81 Q1108.18 1541.53 1112.19 1536.53 Q1116.2 1531.54 1122.76 1531.54 Q1126.7 1531.54 1129.54 1533.1 Q1132.37 1534.66 1134.18 1537.81 L1134.18 1532.4 L1140.04 1532.4 L1140.04 1563.62 Z" fill="#000000" fill-rule="nonzero" fill-opacity="1" /><path clip-path="url(#clip270)" d="M1166.17 1518.58 Q1161.9 1525.9 1159.84 1533.06 Q1157.77 1540.23 1157.77 1547.58 Q1157.77 1554.93 1159.84 1562.16 Q1161.94 1569.35 1166.17 1576.64 L1161.08 1576.64 Q1156.3 1569.16 1153.92 1561.93 Q1151.56 1554.71 1151.56 1547.58 Q1151.56 1540.48 1153.92 1533.29 Q1156.27 1526.09 1161.08 1518.58 L1166.17 1518.58 Z" fill="#000000" fill-rule="nonzero" fill-opacity="1" /><path clip-path="url(#clip270)" d="M1200.32 1545.76 Q1202.39 1546.46 1204.33 1548.76 Q1206.31 1551.05 1208.28 1555.06 L1214.8 1568.04 L1207.9 1568.04 L1201.82 1555.85 Q1199.46 1551.08 1197.23 1549.52 Q1195.04 1547.96 1191.22 1547.96 L1184.22 1547.96 L1184.22 1568.04 L1177.79 1568.04 L1177.79 1520.52 L1192.3 1520.52 Q1200.45 1520.52 1204.46 1523.93 Q1208.47 1527.34 1208.47 1534.21 Q1208.47 1538.7 1206.37 1541.66 Q1204.3 1544.62 1200.32 1545.76 M1184.22 1525.81 L1184.22 1542.68 L1192.3 1542.68 Q1196.95 1542.68 1199.3 1540.54 Q1201.69 1538.38 1201.69 1534.21 Q1201.69 1530.04 1199.3 1527.94 Q1196.95 1525.81 1192.3 1525.81 L1184.22 1525.81 Z" fill="#000000" fill-rule="nonzero" fill-opacity="1" /><path clip-path="url(#clip270)" d="M1253.95 1520.52 L1259.36 1520.52 L1242.81 1574.09 L1237.4 1574.09 L1253.95 1520.52 Z" fill="#000000" fill-rule="nonzero" fill-opacity="1" /><path clip-path="url(#clip270)" d="M1300.3 1518.58 Q1296.03 1525.9 1293.96 1533.06 Q1291.89 1540.23 1291.89 1547.58 Q1291.89 1554.93 1293.96 1562.16 Q1296.06 1569.35 1300.3 1576.64 L1295.2 1576.64 Q1290.43 1569.16 1288.04 1561.93 Q1285.69 1554.71 1285.69 1547.58 Q1285.69 1540.48 1288.04 1533.29 Q1290.4 1526.09 1295.2 1518.58 L1300.3 1518.58 Z" fill="#000000" fill-rule="nonzero" fill-opacity="1" /><path clip-path="url(#clip270)" d="M1311.91 1520.52 L1321.49 1520.52 L1333.62 1552.86 L1345.81 1520.52 L1355.39 1520.52 L1355.39 1568.04 L1349.12 1568.04 L1349.12 1526.32 L1336.87 1558.91 L1330.41 1558.91 L1318.15 1526.32 L1318.15 1568.04 L1311.91 1568.04 L1311.91 1520.52 Z" fill="#000000" fill-rule="nonzero" fill-opacity="1" /><path clip-path="url(#clip270)" d="M1373.56 1562.7 L1373.56 1581.6 L1367.68 1581.6 L1367.68 1532.4 L1373.56 1532.4 L1373.56 1537.81 Q1375.41 1534.62 1378.21 1533.1 Q1381.04 1531.54 1384.96 1531.54 Q1391.45 1531.54 1395.49 1536.69 Q1399.57 1541.85 1399.57 1550.25 Q1399.57 1558.65 1395.49 1563.81 Q1391.45 1568.97 1384.96 1568.97 Q1381.04 1568.97 1378.21 1567.44 Q1375.41 1565.88 1373.56 1562.7 M1393.49 1550.25 Q1393.49 1543.79 1390.82 1540.13 Q1388.17 1536.44 1383.53 1536.44 Q1378.88 1536.44 1376.21 1540.13 Q1373.56 1543.79 1373.56 1550.25 Q1373.56 1556.71 1376.21 1560.4 Q1378.88 1564.07 1383.53 1564.07 Q1388.17 1564.07 1390.82 1560.4 Q1393.49 1556.71 1393.49 1550.25 Z" fill="#000000" fill-rule="nonzero" fill-opacity="1" /><path clip-path="url(#clip270)" d="M1434.93 1533.76 L1434.93 1539.24 Q1432.45 1537.87 1429.93 1537.2 Q1427.45 1536.5 1424.9 1536.5 Q1419.21 1536.5 1416.06 1540.13 Q1412.9 1543.73 1412.9 1550.25 Q1412.9 1556.78 1416.06 1560.4 Q1419.21 1564 1424.9 1564 Q1427.45 1564 1429.93 1563.33 Q1432.45 1562.63 1434.93 1561.26 L1434.93 1566.68 Q1432.48 1567.82 1429.84 1568.39 Q1427.23 1568.97 1424.27 1568.97 Q1416.21 1568.97 1411.47 1563.91 Q1406.73 1558.85 1406.73 1550.25 Q1406.73 1541.53 1411.5 1536.53 Q1416.31 1531.54 1424.65 1531.54 Q1427.35 1531.54 1429.93 1532.11 Q1432.51 1532.65 1434.93 1533.76 Z" fill="#000000" fill-rule="nonzero" fill-opacity="1" /><path clip-path="url(#clip270)" d="M1455.52 1520.52 L1460.93 1520.52 L1444.38 1574.09 L1438.97 1574.09 L1455.52 1520.52 Z" fill="#000000" fill-rule="nonzero" fill-opacity="1" /><path clip-path="url(#clip270)" d="M1496.71 1546.53 L1496.71 1568.04 L1490.85 1568.04 L1490.85 1546.72 Q1490.85 1541.66 1488.88 1539.14 Q1486.91 1536.63 1482.96 1536.63 Q1478.22 1536.63 1475.48 1539.65 Q1472.74 1542.68 1472.74 1547.9 L1472.74 1568.04 L1466.85 1568.04 L1466.85 1518.52 L1472.74 1518.52 L1472.74 1537.93 Q1474.84 1534.72 1477.68 1533.13 Q1480.54 1531.54 1484.26 1531.54 Q1490.41 1531.54 1493.56 1535.36 Q1496.71 1539.14 1496.71 1546.53 Z" fill="#000000" fill-rule="nonzero" fill-opacity="1" /><path clip-path="url(#clip270)" d="M1507.47 1518.58 L1512.56 1518.58 Q1517.33 1526.09 1519.69 1533.29 Q1522.08 1540.48 1522.08 1547.58 Q1522.08 1554.71 1519.69 1561.93 Q1517.33 1569.16 1512.56 1576.64 L1507.47 1576.64 Q1511.7 1569.35 1513.77 1562.16 Q1515.87 1554.93 1515.87 1547.58 Q1515.87 1540.23 1513.77 1533.06 Q1511.7 1525.9 1507.47 1518.58 Z" fill="#000000" fill-rule="nonzero" fill-opacity="1" /><path clip-path="url(#clip270)" d="M1532.9 1518.58 L1537.99 1518.58 Q1542.77 1526.09 1545.12 1533.29 Q1547.51 1540.48 1547.51 1547.58 Q1547.51 1554.71 1545.12 1561.93 Q1542.77 1569.16 1537.99 1576.64 L1532.9 1576.64 Q1537.13 1569.35 1539.2 1562.16 Q1541.3 1554.93 1541.3 1547.58 Q1541.3 1540.23 1539.2 1533.06 Q1537.13 1525.9 1532.9 1518.58 Z" fill="#000000" fill-rule="nonzero" fill-opacity="1" /><polyline clip-path="url(#clip270)" style="stroke:#000000; stroke-linecap:round; stroke-linejoin:round; stroke-width:4; stroke-opacity:1; fill:none" points="287.366,1423.18 287.366,47.2441 "/>
<polyline clip-path="url(#clip270)" style="stroke:#000000; stroke-linecap:round; stroke-linejoin:round; stroke-width:4; stroke-opacity:1; fill:none" points="287.366,1405.94 306.264,1405.94 "/>
<polyline clip-path="url(#clip270)" style="stroke:#000000; stroke-linecap:round; stroke-linejoin:round; stroke-width:4; stroke-opacity:1; fill:none" points="287.366,1175.06 306.264,1175.06 "/>
<polyline clip-path="url(#clip270)" style="stroke:#000000; stroke-linecap:round; stroke-linejoin:round; stroke-width:4; stroke-opacity:1; fill:none" points="287.366,944.167 306.264,944.167 "/>
<polyline clip-path="url(#clip270)" style="stroke:#000000; stroke-linecap:round; stroke-linejoin:round; stroke-width:4; stroke-opacity:1; fill:none" points="287.366,713.278 306.264,713.278 "/>
<polyline clip-path="url(#clip270)" style="stroke:#000000; stroke-linecap:round; stroke-linejoin:round; stroke-width:4; stroke-opacity:1; fill:none" points="287.366,482.389 306.264,482.389 "/>
<polyline clip-path="url(#clip270)" style="stroke:#000000; stroke-linecap:round; stroke-linejoin:round; stroke-width:4; stroke-opacity:1; fill:none" points="287.366,251.5 306.264,251.5 "/>
<path clip-path="url(#clip270)" d="M114.26 1406.4 L143.936 1406.4 L143.936 1410.33 L114.26 1410.33 L114.26 1406.4 Z" fill="#000000" fill-rule="nonzero" fill-opacity="1" /><path clip-path="url(#clip270)" d="M154.839 1419.29 L162.477 1419.29 L162.477 1392.92 L154.167 1394.59 L154.167 1390.33 L162.431 1388.66 L167.107 1388.66 L167.107 1419.29 L174.746 1419.29 L174.746 1423.22 L154.839 1423.22 L154.839 1419.29 Z" fill="#000000" fill-rule="nonzero" fill-opacity="1" /><path clip-path="url(#clip270)" d="M184.19 1417.35 L189.075 1417.35 L189.075 1423.22 L184.19 1423.22 L184.19 1417.35 Z" fill="#000000" fill-rule="nonzero" fill-opacity="1" /><path clip-path="url(#clip270)" d="M209.26 1391.74 Q205.649 1391.74 203.82 1395.31 Q202.014 1398.85 202.014 1405.98 Q202.014 1413.09 203.82 1416.65 Q205.649 1420.19 209.26 1420.19 Q212.894 1420.19 214.699 1416.65 Q216.528 1413.09 216.528 1405.98 Q216.528 1398.85 214.699 1395.31 Q212.894 1391.74 209.26 1391.74 M209.26 1388.04 Q215.07 1388.04 218.125 1392.65 Q221.204 1397.23 221.204 1405.98 Q221.204 1414.71 218.125 1419.31 Q215.07 1423.9 209.26 1423.9 Q203.449 1423.9 200.371 1419.31 Q197.315 1414.71 197.315 1405.98 Q197.315 1397.23 200.371 1392.65 Q203.449 1388.04 209.26 1388.04 Z" fill="#000000" fill-rule="nonzero" fill-opacity="1" /><path clip-path="url(#clip270)" d="M239.422 1391.74 Q235.81 1391.74 233.982 1395.31 Q232.176 1398.85 232.176 1405.98 Q232.176 1413.09 233.982 1416.65 Q235.81 1420.19 239.422 1420.19 Q243.056 1420.19 244.861 1416.65 Q246.69 1413.09 246.69 1405.98 Q246.69 1398.85 244.861 1395.31 Q243.056 1391.74 239.422 1391.74 M239.422 1388.04 Q245.232 1388.04 248.287 1392.65 Q251.366 1397.23 251.366 1405.98 Q251.366 1414.71 248.287 1419.31 Q245.232 1423.9 239.422 1423.9 Q233.611 1423.9 230.533 1419.31 Q227.477 1414.71 227.477 1405.98 Q227.477 1397.23 230.533 1392.65 Q233.611 1388.04 239.422 1388.04 Z" fill="#000000" fill-rule="nonzero" fill-opacity="1" /><path clip-path="url(#clip270)" d="M115.256 1175.51 L144.931 1175.51 L144.931 1179.44 L115.256 1179.44 L115.256 1175.51 Z" fill="#000000" fill-rule="nonzero" fill-opacity="1" /><path clip-path="url(#clip270)" d="M165.024 1160.85 Q161.413 1160.85 159.584 1164.42 Q157.778 1167.96 157.778 1175.09 Q157.778 1182.2 159.584 1185.76 Q161.413 1189.3 165.024 1189.3 Q168.658 1189.3 170.464 1185.76 Q172.292 1182.2 172.292 1175.09 Q172.292 1167.96 170.464 1164.42 Q168.658 1160.85 165.024 1160.85 M165.024 1157.15 Q170.834 1157.15 173.889 1161.76 Q176.968 1166.34 176.968 1175.09 Q176.968 1183.82 173.889 1188.42 Q170.834 1193.01 165.024 1193.01 Q159.214 1193.01 156.135 1188.42 Q153.079 1183.82 153.079 1175.09 Q153.079 1166.34 156.135 1161.76 Q159.214 1157.15 165.024 1157.15 Z" fill="#000000" fill-rule="nonzero" fill-opacity="1" /><path clip-path="url(#clip270)" d="M185.186 1186.46 L190.07 1186.46 L190.07 1192.34 L185.186 1192.34 L185.186 1186.46 Z" fill="#000000" fill-rule="nonzero" fill-opacity="1" /><path clip-path="url(#clip270)" d="M199.075 1157.78 L221.297 1157.78 L221.297 1159.77 L208.75 1192.34 L203.866 1192.34 L215.672 1161.71 L199.075 1161.71 L199.075 1157.78 Z" fill="#000000" fill-rule="nonzero" fill-opacity="1" /><path clip-path="url(#clip270)" d="M230.463 1157.78 L248.82 1157.78 L248.82 1161.71 L234.746 1161.71 L234.746 1170.18 Q235.764 1169.84 236.783 1169.67 Q237.801 1169.49 238.82 1169.49 Q244.607 1169.49 247.986 1172.66 Q251.366 1175.83 251.366 1181.25 Q251.366 1186.83 247.894 1189.93 Q244.421 1193.01 238.102 1193.01 Q235.926 1193.01 233.658 1192.64 Q231.412 1192.27 229.005 1191.53 L229.005 1186.83 Q231.088 1187.96 233.31 1188.52 Q235.533 1189.07 238.009 1189.07 Q242.014 1189.07 244.352 1186.97 Q246.69 1184.86 246.69 1181.25 Q246.69 1177.64 244.352 1175.53 Q242.014 1173.42 238.009 1173.42 Q236.135 1173.42 234.26 1173.84 Q232.408 1174.26 230.463 1175.14 L230.463 1157.78 Z" fill="#000000" fill-rule="nonzero" fill-opacity="1" /><path clip-path="url(#clip270)" d="M114.26 944.618 L143.936 944.618 L143.936 948.553 L114.26 948.553 L114.26 944.618 Z" fill="#000000" fill-rule="nonzero" fill-opacity="1" /><path clip-path="url(#clip270)" d="M164.028 929.966 Q160.417 929.966 158.589 933.53 Q156.783 937.072 156.783 944.202 Q156.783 951.308 158.589 954.873 Q160.417 958.414 164.028 958.414 Q167.663 958.414 169.468 954.873 Q171.297 951.308 171.297 944.202 Q171.297 937.072 169.468 933.53 Q167.663 929.966 164.028 929.966 M164.028 926.262 Q169.839 926.262 172.894 930.868 Q175.973 935.452 175.973 944.202 Q175.973 952.928 172.894 957.535 Q169.839 962.118 164.028 962.118 Q158.218 962.118 155.14 957.535 Q152.084 952.928 152.084 944.202 Q152.084 935.452 155.14 930.868 Q158.218 926.262 164.028 926.262 Z" fill="#000000" fill-rule="nonzero" fill-opacity="1" /><path clip-path="url(#clip270)" d="M184.19 955.567 L189.075 955.567 L189.075 961.447 L184.19 961.447 L184.19 955.567 Z" fill="#000000" fill-rule="nonzero" fill-opacity="1" /><path clip-path="url(#clip270)" d="M199.306 926.887 L217.662 926.887 L217.662 930.822 L203.588 930.822 L203.588 939.294 Q204.607 938.947 205.625 938.785 Q206.644 938.6 207.662 938.6 Q213.449 938.6 216.829 941.771 Q220.209 944.942 220.209 950.359 Q220.209 955.938 216.736 959.039 Q213.264 962.118 206.945 962.118 Q204.769 962.118 202.5 961.748 Q200.255 961.377 197.848 960.637 L197.848 955.938 Q199.931 957.072 202.153 957.627 Q204.375 958.183 206.852 958.183 Q210.857 958.183 213.195 956.076 Q215.533 953.97 215.533 950.359 Q215.533 946.748 213.195 944.641 Q210.857 942.535 206.852 942.535 Q204.977 942.535 203.102 942.952 Q201.25 943.368 199.306 944.248 L199.306 926.887 Z" fill="#000000" fill-rule="nonzero" fill-opacity="1" /><path clip-path="url(#clip270)" d="M239.422 929.966 Q235.81 929.966 233.982 933.53 Q232.176 937.072 232.176 944.202 Q232.176 951.308 233.982 954.873 Q235.81 958.414 239.422 958.414 Q243.056 958.414 244.861 954.873 Q246.69 951.308 246.69 944.202 Q246.69 937.072 244.861 933.53 Q243.056 929.966 239.422 929.966 M239.422 926.262 Q245.232 926.262 248.287 930.868 Q251.366 935.452 251.366 944.202 Q251.366 952.928 248.287 957.535 Q245.232 962.118 239.422 962.118 Q233.611 962.118 230.533 957.535 Q227.477 952.928 227.477 944.202 Q227.477 935.452 230.533 930.868 Q233.611 926.262 239.422 926.262 Z" fill="#000000" fill-rule="nonzero" fill-opacity="1" /><path clip-path="url(#clip270)" d="M115.256 713.729 L144.931 713.729 L144.931 717.664 L115.256 717.664 L115.256 713.729 Z" fill="#000000" fill-rule="nonzero" fill-opacity="1" /><path clip-path="url(#clip270)" d="M165.024 699.077 Q161.413 699.077 159.584 702.641 Q157.778 706.183 157.778 713.313 Q157.778 720.419 159.584 723.984 Q161.413 727.525 165.024 727.525 Q168.658 727.525 170.464 723.984 Q172.292 720.419 172.292 713.313 Q172.292 706.183 170.464 702.641 Q168.658 699.077 165.024 699.077 M165.024 695.373 Q170.834 695.373 173.889 699.979 Q176.968 704.563 176.968 713.313 Q176.968 722.039 173.889 726.646 Q170.834 731.229 165.024 731.229 Q159.214 731.229 156.135 726.646 Q153.079 722.039 153.079 713.313 Q153.079 704.563 156.135 699.979 Q159.214 695.373 165.024 695.373 Z" fill="#000000" fill-rule="nonzero" fill-opacity="1" /><path clip-path="url(#clip270)" d="M185.186 724.678 L190.07 724.678 L190.07 730.558 L185.186 730.558 L185.186 724.678 Z" fill="#000000" fill-rule="nonzero" fill-opacity="1" /><path clip-path="url(#clip270)" d="M204.283 726.623 L220.602 726.623 L220.602 730.558 L198.658 730.558 L198.658 726.623 Q201.32 723.868 205.903 719.238 Q210.51 714.586 211.69 713.243 Q213.936 710.72 214.815 708.984 Q215.718 707.225 215.718 705.535 Q215.718 702.78 213.774 701.044 Q211.852 699.308 208.75 699.308 Q206.551 699.308 204.098 700.072 Q201.667 700.836 198.889 702.387 L198.889 697.665 Q201.713 696.53 204.167 695.952 Q206.621 695.373 208.658 695.373 Q214.028 695.373 217.223 698.058 Q220.417 700.743 220.417 705.234 Q220.417 707.364 219.607 709.285 Q218.82 711.183 216.713 713.776 Q216.135 714.447 213.033 717.664 Q209.931 720.859 204.283 726.623 Z" fill="#000000" fill-rule="nonzero" fill-opacity="1" /><path clip-path="url(#clip270)" d="M230.463 695.998 L248.82 695.998 L248.82 699.933 L234.746 699.933 L234.746 708.405 Q235.764 708.058 236.783 707.896 Q237.801 707.711 238.82 707.711 Q244.607 707.711 247.986 710.882 Q251.366 714.053 251.366 719.47 Q251.366 725.049 247.894 728.15 Q244.421 731.229 238.102 731.229 Q235.926 731.229 233.658 730.859 Q231.412 730.488 229.005 729.748 L229.005 725.049 Q231.088 726.183 233.31 726.738 Q235.533 727.294 238.009 727.294 Q242.014 727.294 244.352 725.188 Q246.69 723.081 246.69 719.47 Q246.69 715.859 244.352 713.752 Q242.014 711.646 238.009 711.646 Q236.135 711.646 234.26 712.063 Q232.408 712.479 230.463 713.359 L230.463 695.998 Z" fill="#000000" fill-rule="nonzero" fill-opacity="1" /><path clip-path="url(#clip270)" d="M164.028 468.188 Q160.417 468.188 158.589 471.752 Q156.783 475.294 156.783 482.424 Q156.783 489.53 158.589 493.095 Q160.417 496.637 164.028 496.637 Q167.663 496.637 169.468 493.095 Q171.297 489.53 171.297 482.424 Q171.297 475.294 169.468 471.752 Q167.663 468.188 164.028 468.188 M164.028 464.484 Q169.839 464.484 172.894 469.09 Q175.973 473.674 175.973 482.424 Q175.973 491.15 172.894 495.757 Q169.839 500.34 164.028 500.34 Q158.218 500.34 155.14 495.757 Q152.084 491.15 152.084 482.424 Q152.084 473.674 155.14 469.09 Q158.218 464.484 164.028 464.484 Z" fill="#000000" fill-rule="nonzero" fill-opacity="1" /><path clip-path="url(#clip270)" d="M184.19 493.789 L189.075 493.789 L189.075 499.669 L184.19 499.669 L184.19 493.789 Z" fill="#000000" fill-rule="nonzero" fill-opacity="1" /><path clip-path="url(#clip270)" d="M209.26 468.188 Q205.649 468.188 203.82 471.752 Q202.014 475.294 202.014 482.424 Q202.014 489.53 203.82 493.095 Q205.649 496.637 209.26 496.637 Q212.894 496.637 214.699 493.095 Q216.528 489.53 216.528 482.424 Q216.528 475.294 214.699 471.752 Q212.894 468.188 209.26 468.188 M209.26 464.484 Q215.07 464.484 218.125 469.09 Q221.204 473.674 221.204 482.424 Q221.204 491.15 218.125 495.757 Q215.07 500.34 209.26 500.34 Q203.449 500.34 200.371 495.757 Q197.315 491.15 197.315 482.424 Q197.315 473.674 200.371 469.09 Q203.449 464.484 209.26 464.484 Z" fill="#000000" fill-rule="nonzero" fill-opacity="1" /><path clip-path="url(#clip270)" d="M239.422 468.188 Q235.81 468.188 233.982 471.752 Q232.176 475.294 232.176 482.424 Q232.176 489.53 233.982 493.095 Q235.81 496.637 239.422 496.637 Q243.056 496.637 244.861 493.095 Q246.69 489.53 246.69 482.424 Q246.69 475.294 244.861 471.752 Q243.056 468.188 239.422 468.188 M239.422 464.484 Q245.232 464.484 248.287 469.09 Q251.366 473.674 251.366 482.424 Q251.366 491.15 248.287 495.757 Q245.232 500.34 239.422 500.34 Q233.611 500.34 230.533 495.757 Q227.477 491.15 227.477 482.424 Q227.477 473.674 230.533 469.09 Q233.611 464.484 239.422 464.484 Z" fill="#000000" fill-rule="nonzero" fill-opacity="1" /><path clip-path="url(#clip270)" d="M165.024 237.299 Q161.413 237.299 159.584 240.863 Q157.778 244.405 157.778 251.535 Q157.778 258.641 159.584 262.206 Q161.413 265.748 165.024 265.748 Q168.658 265.748 170.464 262.206 Q172.292 258.641 172.292 251.535 Q172.292 244.405 170.464 240.863 Q168.658 237.299 165.024 237.299 M165.024 233.595 Q170.834 233.595 173.889 238.201 Q176.968 242.785 176.968 251.535 Q176.968 260.262 173.889 264.868 Q170.834 269.451 165.024 269.451 Q159.214 269.451 156.135 264.868 Q153.079 260.262 153.079 251.535 Q153.079 242.785 156.135 238.201 Q159.214 233.595 165.024 233.595 Z" fill="#000000" fill-rule="nonzero" fill-opacity="1" /><path clip-path="url(#clip270)" d="M185.186 262.9 L190.07 262.9 L190.07 268.78 L185.186 268.78 L185.186 262.9 Z" fill="#000000" fill-rule="nonzero" fill-opacity="1" /><path clip-path="url(#clip270)" d="M204.283 264.845 L220.602 264.845 L220.602 268.78 L198.658 268.78 L198.658 264.845 Q201.32 262.09 205.903 257.461 Q210.51 252.808 211.69 251.465 Q213.936 248.942 214.815 247.206 Q215.718 245.447 215.718 243.757 Q215.718 241.002 213.774 239.266 Q211.852 237.53 208.75 237.53 Q206.551 237.53 204.098 238.294 Q201.667 239.058 198.889 240.609 L198.889 235.887 Q201.713 234.752 204.167 234.174 Q206.621 233.595 208.658 233.595 Q214.028 233.595 217.223 236.28 Q220.417 238.965 220.417 243.456 Q220.417 245.586 219.607 247.507 Q218.82 249.405 216.713 251.998 Q216.135 252.669 213.033 255.887 Q209.931 259.081 204.283 264.845 Z" fill="#000000" fill-rule="nonzero" fill-opacity="1" /><path clip-path="url(#clip270)" d="M230.463 234.22 L248.82 234.22 L248.82 238.155 L234.746 238.155 L234.746 246.627 Q235.764 246.28 236.783 246.118 Q237.801 245.933 238.82 245.933 Q244.607 245.933 247.986 249.104 Q251.366 252.275 251.366 257.692 Q251.366 263.271 247.894 266.373 Q244.421 269.451 238.102 269.451 Q235.926 269.451 233.658 269.081 Q231.412 268.711 229.005 267.97 L229.005 263.271 Q231.088 264.405 233.31 264.961 Q235.533 265.516 238.009 265.516 Q242.014 265.516 244.352 263.41 Q246.69 261.303 246.69 257.692 Q246.69 254.081 244.352 251.975 Q242.014 249.868 238.009 249.868 Q236.135 249.868 234.26 250.285 Q232.408 250.701 230.463 251.581 L230.463 234.22 Z" fill="#000000" fill-rule="nonzero" fill-opacity="1" /><path clip-path="url(#clip270)" d="M14.479 805.171 L14.479 799.315 L64.0042 799.315 L64.0042 805.171 L14.479 805.171 Z" fill="#000000" fill-rule="nonzero" fill-opacity="1" /><path clip-path="url(#clip270)" d="M45.7664 763.603 Q39.4007 763.603 35.8996 766.245 Q32.3984 768.855 32.3984 773.597 Q32.3984 778.308 35.8996 780.95 Q39.4007 783.56 45.7664 783.56 Q52.1003 783.56 55.6014 780.95 Q59.1026 778.308 59.1026 773.597 Q59.1026 768.855 55.6014 766.245 Q52.1003 763.603 45.7664 763.603 M59.58 757.747 Q68.683 757.747 73.1071 761.789 Q77.5631 765.831 77.5631 774.17 Q77.5631 777.257 77.0857 779.995 Q76.6401 782.732 75.6852 785.31 L69.9879 785.31 Q71.3884 782.732 72.0568 780.218 Q72.7252 777.703 72.7252 775.093 Q72.7252 769.332 69.7015 766.468 Q66.7096 763.603 60.6303 763.603 L57.7339 763.603 Q60.885 765.417 62.4446 768.25 Q64.0042 771.083 64.0042 775.029 Q64.0042 781.586 59.0071 785.597 Q54.01 789.607 45.7664 789.607 Q37.491 789.607 32.4939 785.597 Q27.4968 781.586 27.4968 775.029 Q27.4968 771.083 29.0564 768.25 Q30.616 765.417 33.7671 763.603 L28.3562 763.603 L28.3562 757.747 L59.58 757.747 Z" fill="#000000" fill-rule="nonzero" fill-opacity="1" /><path clip-path="url(#clip270)" d="M14.5426 731.615 Q21.8632 735.88 29.0246 737.949 Q36.186 740.018 43.5384 740.018 Q50.8908 740.018 58.1159 737.949 Q65.3091 735.849 72.5979 731.615 L72.5979 736.708 Q65.1182 741.482 57.8931 743.869 Q50.668 746.225 43.5384 746.225 Q36.4406 746.225 29.2474 743.869 Q22.0542 741.514 14.5426 736.708 L14.5426 731.615 Z" fill="#000000" fill-rule="nonzero" fill-opacity="1" /><path clip-path="url(#clip270)" d="M33.0032 706.439 Q33.0032 711.277 36.5043 713.887 Q40.1646 716.624 46.212 716.624 Q52.6095 716.624 56.3017 713.919 Q59.9619 711.181 59.9619 706.439 Q59.9619 701.76 56.2698 699.023 Q52.5777 696.286 46.212 696.286 Q40.3874 696.286 36.5043 699.023 Q33.0032 701.537 33.0032 706.439 M28.3562 706.439 L28.3562 686.992 L34.2127 686.992 L34.2127 693.548 Q39.1779 690.079 46.212 690.079 Q54.9649 690.079 59.9301 694.44 Q64.9272 698.8 64.9272 706.439 Q64.9272 714.11 59.9301 718.438 Q54.9649 722.799 46.212 722.799 Q37.3955 722.799 32.4621 718.438 Q28.3562 714.842 28.3562 706.439 Z" fill="#000000" fill-rule="nonzero" fill-opacity="1" /><path clip-path="url(#clip270)" d="M14.5426 679.862 L14.5426 674.77 Q22.0542 669.995 29.2474 667.64 Q36.4406 665.253 43.5384 665.253 Q50.668 665.253 57.8931 667.64 Q65.1182 669.995 72.5979 674.77 L72.5979 679.862 Q65.3091 675.629 58.1159 673.56 Q50.8908 671.459 43.5384 671.459 Q36.186 671.459 29.0246 673.56 Q21.8632 675.629 14.5426 679.862 Z" fill="#000000" fill-rule="nonzero" fill-opacity="1" /><polyline clip-path="url(#clip272)" style="stroke:#009af9; stroke-linecap:round; stroke-linejoin:round; stroke-width:4; stroke-opacity:1; fill:none" points="345.82,86.1857 365.502,93.5876 385.184,100.999 404.865,107.881 424.547,115.52 444.228,122.295 463.91,129.303 483.592,136.865 503.273,144.667 522.955,152.677 542.637,161.162 562.318,168.734 582,176.224 601.681,183.658 621.363,192.044 641.045,200.179 660.726,208.612 680.408,217.229 700.09,225.743 719.771,233.659 739.453,242.212 759.135,250.9 778.816,259.679 798.498,268.572 818.179,277.536 837.861,287.339 857.543,295.806 877.224,305.077 896.906,314.607 916.588,323.972 936.269,333.571 955.951,343.29 975.632,353.152 995.314,363.067 1015,373.132 1034.68,381.67 1054.36,392.808 1074.04,404.042 1093.72,414.596 1113.4,424.163 1133.09,436.074 1152.77,447.01 1172.45,458.079 1192.13,469.296 1211.81,480.626 1231.49,491.584 1251.18,503.732 1270.86,515.499 1290.54,527.412 1310.22,539.476 1329.9,551.693 1349.58,564.455 1369.26,579.656 1388.95,589.258 1408.63,602.109 1428.31,615.107 1447.99,628.284 1467.67,641.619 1487.35,655.133 1507.04,668.815 1526.72,682.676 1546.4,696.716 1566.08,710.934 1585.76,725.34 1605.44,739.926 1625.13,754.706 1644.81,769.673 1664.49,784.838 1684.17,796.328 1703.85,815.759 1723.53,831.521 1743.22,847.497 1762.9,863.662 1782.58,880.045 1802.26,896.643 1821.94,913.455 1841.62,930.485 1861.31,947.734 1880.99,965.211 1900.67,982.912 1920.35,1000.84 1940.03,1019 1959.71,1037.4 1979.4,1056.03 1999.08,1074.9 2018.76,1094.02 2038.44,1113.38 2058.12,1133.43 2077.8,1152.86 2097.49,1172.99 2117.17,1193.38 2136.85,1214.01 2156.53,1234.85 2176.21,1255.85 2195.89,1276.95 2215.57,1298.14 2235.26,1319.42 2254.94,1340.83 2274.62,1362.42 2294.3,1384.24 "/>
<circle clip-path="url(#clip272)" cx="1392.82" cy="591.78" r="14.4" fill="#e26f46" fill-rule="evenodd" fill-opacity="1" stroke="#000000" stroke-opacity="1" stroke-width="3.2"/>
<path clip-path="url(#clip270)" d="M1470.97 582.564 Q1464.81 582.564 1461.49 587.02 Q1458 591.678 1458 599.375 Q1458 607.517 1461.45 612.216 Q1464.93 616.875 1470.97 616.875 Q1476.92 616.875 1480.41 612.176 Q1483.89 607.477 1483.89 599.375 Q1483.89 591.962 1480.41 587.02 Q1477.21 582.564 1470.97 582.564 M1470.97 576.65 L1495.72 576.65 L1495.72 584.103 L1487.37 584.103 Q1491.79 590.423 1491.79 599.375 Q1491.79 610.515 1486.24 616.834 Q1480.69 623.194 1470.97 623.194 Q1461.2 623.194 1455.69 616.834 Q1450.15 610.515 1450.15 599.375 Q1450.15 588.154 1455.69 581.875 Q1460.27 576.65 1470.97 576.65 Z" fill="#000000" fill-rule="nonzero" fill-opacity="1" /><path clip-path="url(#clip270)" d="M1521.04 607.679 Q1518.89 605.897 1515.12 605.897 Q1511.35 605.897 1509.21 607.679 Q1507.06 609.421 1507.06 612.46 Q1507.06 615.538 1509.21 617.28 Q1511.35 619.022 1515.12 619.022 Q1518.85 619.022 1521.04 617.24 Q1523.18 615.498 1523.18 612.46 Q1523.18 609.421 1521.04 607.679 M1509.86 603.912 Q1506.45 603.183 1504.59 601.198 Q1502.69 599.173 1502.69 596.256 Q1502.69 592.205 1506.01 589.855 Q1509.33 587.506 1515.12 587.506 Q1520.91 587.506 1524.24 589.855 Q1527.52 592.205 1527.52 596.256 Q1527.52 599.254 1525.65 601.198 Q1523.75 603.183 1520.39 603.912 Q1524.03 604.641 1526.3 606.991 Q1528.45 609.219 1528.45 612.46 Q1528.45 617.361 1525.01 619.994 Q1521.52 622.627 1515.12 622.627 Q1508.68 622.627 1505.24 619.994 Q1501.75 617.361 1501.75 612.46 Q1501.75 609.3 1503.9 606.991 Q1506.09 604.722 1509.86 603.912 M1507.91 596.701 Q1507.91 599.254 1509.82 600.793 Q1511.68 602.292 1515.12 602.292 Q1518.4 602.292 1520.39 600.793 Q1522.33 599.335 1522.33 596.701 Q1522.33 594.149 1520.39 592.61 Q1518.48 591.111 1515.12 591.111 Q1511.76 591.111 1509.82 592.61 Q1507.91 594.068 1507.91 596.701 Z" fill="#000000" fill-rule="nonzero" fill-opacity="1" /><path clip-path="url(#clip270)" d="M1566.57 584.346 L1618.5 584.346 L1618.5 591.152 L1566.57 591.152 L1566.57 584.346 M1566.57 600.874 L1618.5 600.874 L1618.5 607.76 L1566.57 607.76 L1566.57 600.874 Z" fill="#000000" fill-rule="nonzero" fill-opacity="1" /><path clip-path="url(#clip270)" d="M1680.03 566.927 Q1673.71 566.927 1670.51 573.166 Q1667.35 579.364 1667.35 591.84 Q1667.35 604.277 1670.51 610.515 Q1673.71 616.713 1680.03 616.713 Q1686.39 616.713 1689.55 610.515 Q1692.75 604.277 1692.75 591.84 Q1692.75 579.364 1689.55 573.166 Q1686.39 566.927 1680.03 566.927 M1680.03 560.446 Q1690.2 560.446 1695.55 568.507 Q1700.94 576.528 1700.94 591.84 Q1700.94 607.112 1695.55 615.174 Q1690.2 623.194 1680.03 623.194 Q1669.87 623.194 1664.48 615.174 Q1659.13 607.112 1659.13 591.84 Q1659.13 576.528 1664.48 568.507 Q1669.87 560.446 1680.03 560.446 Z" fill="#000000" fill-rule="nonzero" fill-opacity="1" /><path clip-path="url(#clip270)" d="M1715.32 611.73 L1723.86 611.73 L1723.86 622.02 L1715.32 622.02 L1715.32 611.73 Z" fill="#000000" fill-rule="nonzero" fill-opacity="1" /><path clip-path="url(#clip270)" d="M1739.62 561.54 L1778.51 561.54 L1778.51 565.023 L1756.56 622.02 L1748.01 622.02 L1768.67 568.426 L1739.62 568.426 L1739.62 561.54 Z" fill="#000000" fill-rule="nonzero" fill-opacity="1" /><path clip-path="url(#clip270)" d="M1812.98 588.519 Q1807.48 588.519 1804.23 592.286 Q1801.03 596.053 1801.03 602.616 Q1801.03 609.138 1804.23 612.946 Q1807.48 616.713 1812.98 616.713 Q1818.49 616.713 1821.69 612.946 Q1824.93 609.138 1824.93 602.616 Q1824.93 596.053 1821.69 592.286 Q1818.49 588.519 1812.98 588.519 M1829.23 562.876 L1829.23 570.33 Q1826.15 568.872 1822.99 568.102 Q1819.87 567.332 1816.79 567.332 Q1808.69 567.332 1804.4 572.801 Q1800.14 578.27 1799.54 589.329 Q1801.93 585.805 1805.53 583.941 Q1809.14 582.037 1813.47 582.037 Q1822.59 582.037 1827.85 587.587 Q1833.16 593.096 1833.16 602.616 Q1833.16 611.933 1827.65 617.564 Q1822.14 623.194 1812.98 623.194 Q1802.49 623.194 1796.94 615.174 Q1791.39 607.112 1791.39 591.84 Q1791.39 577.5 1798.2 568.993 Q1805 560.446 1816.47 560.446 Q1819.55 560.446 1822.67 561.054 Q1825.83 561.661 1829.23 562.876 Z" fill="#000000" fill-rule="nonzero" fill-opacity="1" /><path clip-path="url(#clip270)" d="M1848.67 615.133 L1862.04 615.133 L1862.04 568.993 L1847.5 571.91 L1847.5 564.456 L1861.96 561.54 L1870.14 561.54 L1870.14 615.133 L1883.51 615.133 L1883.51 622.02 L1848.67 622.02 L1848.67 615.133 Z" fill="#000000" fill-rule="nonzero" fill-opacity="1" /></svg>
