<?xml version="1.0" encoding="utf-8"?>
<svg xmlns="http://www.w3.org/2000/svg" xmlns:xlink="http://www.w3.org/1999/xlink" width="800" height="400" viewBox="0 0 3200 1600">
<defs>
  <clipPath id="clip930">
    <rect x="0" y="0" width="3200" height="1600"/>
  </clipPath>
</defs>
<path clip-path="url(#clip930)" d="M0 1600 L3200 1600 L3200 0 L0 0  Z" fill="#ffffff" fill-rule="evenodd" fill-opacity="1"/>
<defs>
  <clipPath id="clip931">
    <rect x="364" y="47" width="2789" height="1449"/>
  </clipPath>
</defs>
<path clip-path="url(#clip930)" d="M364.733 1495.09 L3152.76 1495.09 L3152.76 47.2441 L364.733 47.2441  Z" fill="#ffffff" fill-rule="evenodd" fill-opacity="1"/>
<polyline clip-path="url(#clip931)" style="stroke:#000000; stroke-linecap:round; stroke-linejoin:round; stroke-width:2; stroke-opacity:0.1; fill:none" points="735.885,1495.09 735.885,47.2441 "/>
<polyline clip-path="url(#clip931)" style="stroke:#000000; stroke-linecap:round; stroke-linejoin:round; stroke-width:2; stroke-opacity:0.1; fill:none" points="1758.74,1495.09 1758.74,47.2441 "/>
<polyline clip-path="url(#clip931)" style="stroke:#000000; stroke-linecap:round; stroke-linejoin:round; stroke-width:2; stroke-opacity:0.1; fill:none" points="2781.6,1495.09 2781.6,47.2441 "/>
<polyline clip-path="url(#clip931)" style="stroke:#000000; stroke-linecap:round; stroke-linejoin:round; stroke-width:2; stroke-opacity:0.1; fill:none" points="364.733,1379.23 3152.76,1379.23 "/>
<polyline clip-path="url(#clip931)" style="stroke:#000000; stroke-linecap:round; stroke-linejoin:round; stroke-width:2; stroke-opacity:0.1; fill:none" points="364.733,1116.84 3152.76,1116.84 "/>
<polyline clip-path="url(#clip931)" style="stroke:#000000; stroke-linecap:round; stroke-linejoin:round; stroke-width:2; stroke-opacity:0.1; fill:none" points="364.733,854.445 3152.76,854.445 "/>
<polyline clip-path="url(#clip931)" style="stroke:#000000; stroke-linecap:round; stroke-linejoin:round; stroke-width:2; stroke-opacity:0.1; fill:none" points="364.733,592.053 3152.76,592.053 "/>
<polyline clip-path="url(#clip931)" style="stroke:#000000; stroke-linecap:round; stroke-linejoin:round; stroke-width:2; stroke-opacity:0.1; fill:none" points="364.733,329.662 3152.76,329.662 "/>
<polyline clip-path="url(#clip931)" style="stroke:#000000; stroke-linecap:round; stroke-linejoin:round; stroke-width:2; stroke-opacity:0.1; fill:none" points="364.733,67.2699 3152.76,67.2699 "/>
<polyline clip-path="url(#clip930)" style="stroke:#000000; stroke-linecap:round; stroke-linejoin:round; stroke-width:4; stroke-opacity:1; fill:none" points="364.733,1495.09 3152.76,1495.09 "/>
<polyline clip-path="url(#clip930)" style="stroke:#000000; stroke-linecap:round; stroke-linejoin:round; stroke-width:4; stroke-opacity:1; fill:none" points="735.885,1495.09 735.885,1476.19 "/>
<polyline clip-path="url(#clip930)" style="stroke:#000000; stroke-linecap:round; stroke-linejoin:round; stroke-width:4; stroke-opacity:1; fill:none" points="1758.74,1495.09 1758.74,1476.19 "/>
<polyline clip-path="url(#clip930)" style="stroke:#000000; stroke-linecap:round; stroke-linejoin:round; stroke-width:4; stroke-opacity:1; fill:none" points="2781.6,1495.09 2781.6,1476.19 "/>
<path clip-path="url(#clip930)" d="M651.846 1538.73 L651.846 1542.75 Q650.04 1541.83 648.096 1541.36 Q646.151 1540.9 644.068 1540.9 Q640.897 1540.9 639.299 1541.87 Q637.725 1542.85 637.725 1544.79 Q637.725 1546.27 638.86 1547.13 Q639.994 1547.96 643.42 1548.73 L644.878 1549.05 Q649.415 1550.02 651.313 1551.8 Q653.235 1553.56 653.235 1556.74 Q653.235 1560.35 650.364 1562.45 Q647.517 1564.56 642.517 1564.56 Q640.434 1564.56 638.165 1564.14 Q635.92 1563.75 633.42 1562.94 L633.42 1558.54 Q635.781 1559.77 638.073 1560.39 Q640.364 1560.99 642.61 1560.99 Q645.619 1560.99 647.239 1559.98 Q648.86 1558.93 648.86 1557.06 Q648.86 1555.32 647.679 1554.4 Q646.522 1553.47 642.563 1552.61 L641.082 1552.27 Q637.123 1551.43 635.364 1549.72 Q633.605 1547.99 633.605 1544.98 Q633.605 1541.32 636.198 1539.33 Q638.79 1537.34 643.559 1537.34 Q645.92 1537.34 648.003 1537.68 Q650.086 1538.03 651.846 1538.73 Z" fill="#000000" fill-rule="nonzero" fill-opacity="1" /><path clip-path="url(#clip930)" d="M670.804 1566.3 Q668.998 1570.92 667.285 1572.34 Q665.572 1573.75 662.702 1573.75 L659.299 1573.75 L659.299 1570.18 L661.799 1570.18 Q663.559 1570.18 664.531 1569.35 Q665.503 1568.52 666.684 1565.42 L667.447 1563.47 L656.961 1537.96 L661.475 1537.96 L669.577 1558.24 L677.679 1537.96 L682.193 1537.96 L670.804 1566.3 Z" fill="#000000" fill-rule="nonzero" fill-opacity="1" /><path clip-path="url(#clip930)" d="M708.257 1542.94 Q709.855 1540.07 712.077 1538.7 Q714.299 1537.34 717.308 1537.34 Q721.359 1537.34 723.558 1540.18 Q725.757 1543.01 725.757 1548.24 L725.757 1563.89 L721.475 1563.89 L721.475 1548.38 Q721.475 1544.65 720.155 1542.85 Q718.836 1541.04 716.128 1541.04 Q712.818 1541.04 710.896 1543.24 Q708.975 1545.44 708.975 1549.24 L708.975 1563.89 L704.693 1563.89 L704.693 1548.38 Q704.693 1544.63 703.373 1542.85 Q702.054 1541.04 699.299 1541.04 Q696.035 1541.04 694.114 1543.26 Q692.193 1545.46 692.193 1549.24 L692.193 1563.89 L687.91 1563.89 L687.91 1537.96 L692.193 1537.96 L692.193 1541.99 Q693.651 1539.61 695.688 1538.47 Q697.725 1537.34 700.526 1537.34 Q703.35 1537.34 705.318 1538.77 Q707.308 1540.21 708.257 1542.94 Z" fill="#000000" fill-rule="nonzero" fill-opacity="1" /><path clip-path="url(#clip930)" d="M752.864 1550.95 Q752.864 1546.25 750.919 1543.59 Q748.998 1540.9 745.618 1540.9 Q742.239 1540.9 740.294 1543.59 Q738.373 1546.25 738.373 1550.95 Q738.373 1555.65 740.294 1558.33 Q742.239 1560.99 745.618 1560.99 Q748.998 1560.99 750.919 1558.33 Q752.864 1555.65 752.864 1550.95 M738.373 1541.9 Q739.716 1539.58 741.753 1538.47 Q743.813 1537.34 746.66 1537.34 Q751.382 1537.34 754.322 1541.09 Q757.285 1544.84 757.285 1550.95 Q757.285 1557.06 754.322 1560.81 Q751.382 1564.56 746.66 1564.56 Q743.813 1564.56 741.753 1563.45 Q739.716 1562.31 738.373 1560 L738.373 1563.89 L734.091 1563.89 L734.091 1527.87 L738.373 1527.87 L738.373 1541.9 Z" fill="#000000" fill-rule="nonzero" fill-opacity="1" /><path clip-path="url(#clip930)" d="M774.391 1540.95 Q770.965 1540.95 768.975 1543.63 Q766.984 1546.3 766.984 1550.95 Q766.984 1555.6 768.951 1558.29 Q770.942 1560.95 774.391 1560.95 Q777.794 1560.95 779.785 1558.26 Q781.775 1555.58 781.775 1550.95 Q781.775 1546.34 779.785 1543.66 Q777.794 1540.95 774.391 1540.95 M774.391 1537.34 Q779.947 1537.34 783.118 1540.95 Q786.289 1544.56 786.289 1550.95 Q786.289 1557.31 783.118 1560.95 Q779.947 1564.56 774.391 1564.56 Q768.813 1564.56 765.641 1560.95 Q762.493 1557.31 762.493 1550.95 Q762.493 1544.56 765.641 1540.95 Q768.813 1537.34 774.391 1537.34 Z" fill="#000000" fill-rule="nonzero" fill-opacity="1" /><path clip-path="url(#clip930)" d="M793.349 1527.87 L797.609 1527.87 L797.609 1563.89 L793.349 1563.89 L793.349 1527.87 Z" fill="#000000" fill-rule="nonzero" fill-opacity="1" /><path clip-path="url(#clip930)" d="M806.521 1537.96 L810.78 1537.96 L810.78 1563.89 L806.521 1563.89 L806.521 1537.96 M806.521 1527.87 L810.78 1527.87 L810.78 1533.26 L806.521 1533.26 L806.521 1527.87 Z" fill="#000000" fill-rule="nonzero" fill-opacity="1" /><path clip-path="url(#clip930)" d="M838.349 1538.96 L838.349 1542.94 Q836.544 1541.94 834.715 1541.46 Q832.909 1540.95 831.058 1540.95 Q826.914 1540.95 824.622 1543.59 Q822.331 1546.2 822.331 1550.95 Q822.331 1555.69 824.622 1558.33 Q826.914 1560.95 831.058 1560.95 Q832.909 1560.95 834.715 1560.46 Q836.544 1559.95 838.349 1558.96 L838.349 1562.89 Q836.567 1563.73 834.646 1564.14 Q832.747 1564.56 830.595 1564.56 Q824.738 1564.56 821.289 1560.88 Q817.84 1557.2 817.84 1550.95 Q817.84 1544.61 821.312 1540.97 Q824.808 1537.34 830.872 1537.34 Q832.84 1537.34 834.715 1537.75 Q836.59 1538.15 838.349 1538.96 Z" fill="#000000" fill-rule="nonzero" fill-opacity="1" /><path clip-path="url(#clip930)" d="M1669.07 1527.87 L1669.07 1531.41 L1664.99 1531.41 Q1662.7 1531.41 1661.8 1532.34 Q1660.92 1533.26 1660.92 1535.67 L1660.92 1537.96 L1667.93 1537.96 L1667.93 1541.27 L1660.92 1541.27 L1660.92 1563.89 L1656.64 1563.89 L1656.64 1541.27 L1652.56 1541.27 L1652.56 1537.96 L1656.64 1537.96 L1656.64 1536.16 Q1656.64 1531.83 1658.65 1529.86 Q1660.67 1527.87 1665.04 1527.87 L1669.07 1527.87 Z" fill="#000000" fill-rule="nonzero" fill-opacity="1" /><path clip-path="url(#clip930)" d="M1672.63 1537.96 L1676.89 1537.96 L1676.89 1563.89 L1672.63 1563.89 L1672.63 1537.96 M1672.63 1527.87 L1676.89 1527.87 L1676.89 1533.26 L1672.63 1533.26 L1672.63 1527.87 Z" fill="#000000" fill-rule="nonzero" fill-opacity="1" /><path clip-path="url(#clip930)" d="M1707.36 1548.24 L1707.36 1563.89 L1703.1 1563.89 L1703.1 1548.38 Q1703.1 1544.7 1701.66 1542.87 Q1700.23 1541.04 1697.36 1541.04 Q1693.91 1541.04 1691.92 1543.24 Q1689.93 1545.44 1689.93 1549.24 L1689.93 1563.89 L1685.64 1563.89 L1685.64 1537.96 L1689.93 1537.96 L1689.93 1541.99 Q1691.45 1539.65 1693.51 1538.49 Q1695.6 1537.34 1698.3 1537.34 Q1702.77 1537.34 1705.06 1540.11 Q1707.36 1542.87 1707.36 1548.24 Z" fill="#000000" fill-rule="nonzero" fill-opacity="1" /><path clip-path="url(#clip930)" d="M1715.85 1537.96 L1720.11 1537.96 L1720.11 1563.89 L1715.85 1563.89 L1715.85 1537.96 M1715.85 1527.87 L1720.11 1527.87 L1720.11 1533.26 L1715.85 1533.26 L1715.85 1527.87 Z" fill="#000000" fill-rule="nonzero" fill-opacity="1" /><path clip-path="url(#clip930)" d="M1733.24 1530.6 L1733.24 1537.96 L1742.01 1537.96 L1742.01 1541.27 L1733.24 1541.27 L1733.24 1555.35 Q1733.24 1558.52 1734.09 1559.42 Q1734.97 1560.32 1737.63 1560.32 L1742.01 1560.32 L1742.01 1563.89 L1737.63 1563.89 Q1732.7 1563.89 1730.83 1562.06 Q1728.95 1560.21 1728.95 1555.35 L1728.95 1541.27 L1725.83 1541.27 L1725.83 1537.96 L1728.95 1537.96 L1728.95 1530.6 L1733.24 1530.6 Z" fill="#000000" fill-rule="nonzero" fill-opacity="1" /><path clip-path="url(#clip930)" d="M1769.79 1549.86 L1769.79 1551.94 L1750.2 1551.94 Q1750.48 1556.34 1752.84 1558.66 Q1755.23 1560.95 1759.46 1560.95 Q1761.92 1560.95 1764.21 1560.35 Q1766.52 1559.74 1768.79 1558.54 L1768.79 1562.57 Q1766.5 1563.54 1764.09 1564.05 Q1761.68 1564.56 1759.21 1564.56 Q1753 1564.56 1749.37 1560.95 Q1745.76 1557.34 1745.76 1551.18 Q1745.76 1544.81 1749.18 1541.09 Q1752.63 1537.34 1758.47 1537.34 Q1763.7 1537.34 1766.73 1540.72 Q1769.79 1544.07 1769.79 1549.86 M1765.53 1548.61 Q1765.48 1545.11 1763.56 1543.03 Q1761.66 1540.95 1758.51 1540.95 Q1754.95 1540.95 1752.8 1542.96 Q1750.67 1544.98 1750.34 1548.63 L1765.53 1548.61 Z" fill="#000000" fill-rule="nonzero" fill-opacity="1" /><path clip-path="url(#clip930)" d="M1808.91 1541.9 L1808.91 1527.87 L1813.17 1527.87 L1813.17 1563.89 L1808.91 1563.89 L1808.91 1560 Q1807.56 1562.31 1805.5 1563.45 Q1803.47 1564.56 1800.6 1564.56 Q1795.9 1564.56 1792.93 1560.81 Q1789.99 1557.06 1789.99 1550.95 Q1789.99 1544.84 1792.93 1541.09 Q1795.9 1537.34 1800.6 1537.34 Q1803.47 1537.34 1805.5 1538.47 Q1807.56 1539.58 1808.91 1541.9 M1794.39 1550.95 Q1794.39 1555.65 1796.31 1558.33 Q1798.26 1560.99 1801.64 1560.99 Q1805.02 1560.99 1806.96 1558.33 Q1808.91 1555.65 1808.91 1550.95 Q1808.91 1546.25 1806.96 1543.59 Q1805.02 1540.9 1801.64 1540.9 Q1798.26 1540.9 1796.31 1543.59 Q1794.39 1546.25 1794.39 1550.95 Z" fill="#000000" fill-rule="nonzero" fill-opacity="1" /><path clip-path="url(#clip930)" d="M1821.94 1537.96 L1826.2 1537.96 L1826.2 1563.89 L1821.94 1563.89 L1821.94 1537.96 M1821.94 1527.87 L1826.2 1527.87 L1826.2 1533.26 L1821.94 1533.26 L1821.94 1527.87 Z" fill="#000000" fill-rule="nonzero" fill-opacity="1" /><path clip-path="url(#clip930)" d="M1848.23 1527.87 L1848.23 1531.41 L1844.16 1531.41 Q1841.87 1531.41 1840.97 1532.34 Q1840.09 1533.26 1840.09 1535.67 L1840.09 1537.96 L1847.1 1537.96 L1847.1 1541.27 L1840.09 1541.27 L1840.09 1563.89 L1835.8 1563.89 L1835.8 1541.27 L1831.73 1541.27 L1831.73 1537.96 L1835.8 1537.96 L1835.8 1536.16 Q1835.8 1531.83 1837.82 1529.86 Q1839.83 1527.87 1844.21 1527.87 L1848.23 1527.87 Z" fill="#000000" fill-rule="nonzero" fill-opacity="1" /><path clip-path="url(#clip930)" d="M1864.92 1527.87 L1864.92 1531.41 L1860.85 1531.41 Q1858.56 1531.41 1857.66 1532.34 Q1856.78 1533.26 1856.78 1535.67 L1856.78 1537.96 L1863.79 1537.96 L1863.79 1541.27 L1856.78 1541.27 L1856.78 1563.89 L1852.49 1563.89 L1852.49 1541.27 L1848.42 1541.27 L1848.42 1537.96 L1852.49 1537.96 L1852.49 1536.16 Q1852.49 1531.83 1854.51 1529.86 Q1856.52 1527.87 1860.9 1527.87 L1864.92 1527.87 Z" fill="#000000" fill-rule="nonzero" fill-opacity="1" /><path clip-path="url(#clip930)" d="M2661.47 1527.87 L2661.47 1531.41 L2657.39 1531.41 Q2655.1 1531.41 2654.2 1532.34 Q2653.32 1533.26 2653.32 1535.67 L2653.32 1537.96 L2660.33 1537.96 L2660.33 1541.27 L2653.32 1541.27 L2653.32 1563.89 L2649.04 1563.89 L2649.04 1541.27 L2644.96 1541.27 L2644.96 1537.96 L2649.04 1537.96 L2649.04 1536.16 Q2649.04 1531.83 2651.05 1529.86 Q2653.06 1527.87 2657.44 1527.87 L2661.47 1527.87 Z" fill="#000000" fill-rule="nonzero" fill-opacity="1" /><path clip-path="url(#clip930)" d="M2675.08 1540.95 Q2671.65 1540.95 2669.66 1543.63 Q2667.67 1546.3 2667.67 1550.95 Q2667.67 1555.6 2669.64 1558.29 Q2671.63 1560.95 2675.08 1560.95 Q2678.48 1560.95 2680.47 1558.26 Q2682.46 1555.58 2682.46 1550.95 Q2682.46 1546.34 2680.47 1543.66 Q2678.48 1540.95 2675.08 1540.95 M2675.08 1537.34 Q2680.63 1537.34 2683.8 1540.95 Q2686.97 1544.56 2686.97 1550.95 Q2686.97 1557.31 2683.8 1560.95 Q2680.63 1564.56 2675.08 1564.56 Q2669.5 1564.56 2666.33 1560.95 Q2663.18 1557.31 2663.18 1550.95 Q2663.18 1544.56 2666.33 1540.95 Q2669.5 1537.34 2675.08 1537.34 Z" fill="#000000" fill-rule="nonzero" fill-opacity="1" /><path clip-path="url(#clip930)" d="M2709.06 1541.94 Q2708.34 1541.53 2707.48 1541.34 Q2706.65 1541.13 2705.63 1541.13 Q2702.02 1541.13 2700.08 1543.49 Q2698.16 1545.83 2698.16 1550.23 L2698.16 1563.89 L2693.87 1563.89 L2693.87 1537.96 L2698.16 1537.96 L2698.16 1541.99 Q2699.5 1539.63 2701.65 1538.49 Q2703.8 1537.34 2706.88 1537.34 Q2707.32 1537.34 2707.85 1537.41 Q2708.39 1537.45 2709.03 1537.57 L2709.06 1541.94 Z" fill="#000000" fill-rule="nonzero" fill-opacity="1" /><path clip-path="url(#clip930)" d="M2711.05 1537.96 L2715.31 1537.96 L2720.63 1558.19 L2725.93 1537.96 L2730.96 1537.96 L2736.28 1558.19 L2741.58 1537.96 L2745.84 1537.96 L2739.06 1563.89 L2734.03 1563.89 L2728.46 1542.64 L2722.85 1563.89 L2717.83 1563.89 L2711.05 1537.96 Z" fill="#000000" fill-rule="nonzero" fill-opacity="1" /><path clip-path="url(#clip930)" d="M2764.08 1550.86 Q2758.92 1550.86 2756.93 1552.04 Q2754.94 1553.22 2754.94 1556.06 Q2754.94 1558.33 2756.42 1559.67 Q2757.92 1560.99 2760.49 1560.99 Q2764.03 1560.99 2766.16 1558.49 Q2768.32 1555.97 2768.32 1551.8 L2768.32 1550.86 L2764.08 1550.86 M2772.58 1549.1 L2772.58 1563.89 L2768.32 1563.89 L2768.32 1559.95 Q2766.86 1562.31 2764.68 1563.45 Q2762.51 1564.56 2759.36 1564.56 Q2755.38 1564.56 2753.02 1562.34 Q2750.68 1560.09 2750.68 1556.34 Q2750.68 1551.97 2753.59 1549.74 Q2756.53 1547.52 2762.34 1547.52 L2768.32 1547.52 L2768.32 1547.11 Q2768.32 1544.17 2766.37 1542.57 Q2764.45 1540.95 2760.96 1540.95 Q2758.73 1540.95 2756.63 1541.48 Q2754.52 1542.01 2752.58 1543.08 L2752.58 1539.14 Q2754.91 1538.24 2757.11 1537.8 Q2759.31 1537.34 2761.4 1537.34 Q2767.02 1537.34 2769.8 1540.25 Q2772.58 1543.17 2772.58 1549.1 Z" fill="#000000" fill-rule="nonzero" fill-opacity="1" /><path clip-path="url(#clip930)" d="M2796.37 1541.94 Q2795.65 1541.53 2794.8 1541.34 Q2793.96 1541.13 2792.95 1541.13 Q2789.34 1541.13 2787.39 1543.49 Q2785.47 1545.83 2785.47 1550.23 L2785.47 1563.89 L2781.19 1563.89 L2781.19 1537.96 L2785.47 1537.96 L2785.47 1541.99 Q2786.81 1539.63 2788.97 1538.49 Q2791.12 1537.34 2794.2 1537.34 Q2794.64 1537.34 2795.17 1537.41 Q2795.7 1537.45 2796.35 1537.57 L2796.37 1541.94 Z" fill="#000000" fill-rule="nonzero" fill-opacity="1" /><path clip-path="url(#clip930)" d="M2817.07 1541.9 L2817.07 1527.87 L2821.33 1527.87 L2821.33 1563.89 L2817.07 1563.89 L2817.07 1560 Q2815.72 1562.31 2813.66 1563.45 Q2811.63 1564.56 2808.76 1564.56 Q2804.06 1564.56 2801.09 1560.81 Q2798.15 1557.06 2798.15 1550.95 Q2798.15 1544.84 2801.09 1541.09 Q2804.06 1537.34 2808.76 1537.34 Q2811.63 1537.34 2813.66 1538.47 Q2815.72 1539.58 2817.07 1541.9 M2802.55 1550.95 Q2802.55 1555.65 2804.47 1558.33 Q2806.42 1560.99 2809.8 1560.99 Q2813.18 1560.99 2815.12 1558.33 Q2817.07 1555.65 2817.07 1550.95 Q2817.07 1546.25 2815.12 1543.59 Q2813.18 1540.9 2809.8 1540.9 Q2806.42 1540.9 2804.47 1543.59 Q2802.55 1546.25 2802.55 1550.95 Z" fill="#000000" fill-rule="nonzero" fill-opacity="1" /><path clip-path="url(#clip930)" d="M2862.23 1541.9 L2862.23 1527.87 L2866.49 1527.87 L2866.49 1563.89 L2862.23 1563.89 L2862.23 1560 Q2860.89 1562.31 2858.83 1563.45 Q2856.79 1564.56 2853.92 1564.56 Q2849.22 1564.56 2846.26 1560.81 Q2843.32 1557.06 2843.32 1550.95 Q2843.32 1544.84 2846.26 1541.09 Q2849.22 1537.34 2853.92 1537.34 Q2856.79 1537.34 2858.83 1538.47 Q2860.89 1539.58 2862.23 1541.9 M2847.71 1550.95 Q2847.71 1555.65 2849.64 1558.33 Q2851.58 1560.99 2854.96 1560.99 Q2858.34 1560.99 2860.28 1558.33 Q2862.23 1555.65 2862.23 1550.95 Q2862.23 1546.25 2860.28 1543.59 Q2858.34 1540.9 2854.96 1540.9 Q2851.58 1540.9 2849.64 1543.59 Q2847.71 1546.25 2847.71 1550.95 Z" fill="#000000" fill-rule="nonzero" fill-opacity="1" /><path clip-path="url(#clip930)" d="M2875.26 1537.96 L2879.52 1537.96 L2879.52 1563.89 L2875.26 1563.89 L2875.26 1537.96 M2875.26 1527.87 L2879.52 1527.87 L2879.52 1533.26 L2875.26 1533.26 L2875.26 1527.87 Z" fill="#000000" fill-rule="nonzero" fill-opacity="1" /><path clip-path="url(#clip930)" d="M2901.56 1527.87 L2901.56 1531.41 L2897.48 1531.41 Q2895.19 1531.41 2894.29 1532.34 Q2893.41 1533.26 2893.41 1535.67 L2893.41 1537.96 L2900.42 1537.96 L2900.42 1541.27 L2893.41 1541.27 L2893.41 1563.89 L2889.13 1563.89 L2889.13 1541.27 L2885.05 1541.27 L2885.05 1537.96 L2889.13 1537.96 L2889.13 1536.16 Q2889.13 1531.83 2891.14 1529.86 Q2893.15 1527.87 2897.53 1527.87 L2901.56 1527.87 Z" fill="#000000" fill-rule="nonzero" fill-opacity="1" /><path clip-path="url(#clip930)" d="M2918.25 1527.87 L2918.25 1531.41 L2914.17 1531.41 Q2911.88 1531.41 2910.98 1532.34 Q2910.1 1533.26 2910.1 1535.67 L2910.1 1537.96 L2917.11 1537.96 L2917.11 1541.27 L2910.1 1541.27 L2910.1 1563.89 L2905.82 1563.89 L2905.82 1541.27 L2901.74 1541.27 L2901.74 1537.96 L2905.82 1537.96 L2905.82 1536.16 Q2905.82 1531.83 2907.83 1529.86 Q2909.84 1527.87 2914.22 1527.87 L2918.25 1527.87 Z" fill="#000000" fill-rule="nonzero" fill-opacity="1" /><polyline clip-path="url(#clip930)" style="stroke:#000000; stroke-linecap:round; stroke-linejoin:round; stroke-width:4; stroke-opacity:1; fill:none" points="364.733,1495.09 364.733,47.2441 "/>
<polyline clip-path="url(#clip930)" style="stroke:#000000; stroke-linecap:round; stroke-linejoin:round; stroke-width:4; stroke-opacity:1; fill:none" points="364.733,1379.23 383.63,1379.23 "/>
<polyline clip-path="url(#clip930)" style="stroke:#000000; stroke-linecap:round; stroke-linejoin:round; stroke-width:4; stroke-opacity:1; fill:none" points="364.733,1116.84 383.63,1116.84 "/>
<polyline clip-path="url(#clip930)" style="stroke:#000000; stroke-linecap:round; stroke-linejoin:round; stroke-width:4; stroke-opacity:1; fill:none" points="364.733,854.445 383.63,854.445 "/>
<polyline clip-path="url(#clip930)" style="stroke:#000000; stroke-linecap:round; stroke-linejoin:round; stroke-width:4; stroke-opacity:1; fill:none" points="364.733,592.053 383.63,592.053 "/>
<polyline clip-path="url(#clip930)" style="stroke:#000000; stroke-linecap:round; stroke-linejoin:round; stroke-width:4; stroke-opacity:1; fill:none" points="364.733,329.662 383.63,329.662 "/>
<polyline clip-path="url(#clip930)" style="stroke:#000000; stroke-linecap:round; stroke-linejoin:round; stroke-width:4; stroke-opacity:1; fill:none" points="364.733,67.2699 383.63,67.2699 "/>
<path clip-path="url(#clip930)" d="M100.137 1368.4 L118.493 1368.4 L118.493 1372.33 L104.419 1372.33 L104.419 1380.8 Q105.437 1380.46 106.456 1380.29 Q107.474 1380.11 108.493 1380.11 Q114.28 1380.11 117.66 1383.28 Q121.039 1386.45 121.039 1391.87 Q121.039 1397.45 117.567 1400.55 Q114.095 1403.63 107.775 1403.63 Q105.599 1403.63 103.331 1403.26 Q101.086 1402.89 98.6782 1402.15 L98.6782 1397.45 Q100.762 1398.58 102.984 1399.14 Q105.206 1399.69 107.683 1399.69 Q111.687 1399.69 114.025 1397.59 Q116.363 1395.48 116.363 1391.87 Q116.363 1388.26 114.025 1386.15 Q111.687 1384.04 107.683 1384.04 Q105.808 1384.04 103.933 1384.46 Q102.081 1384.88 100.137 1385.76 L100.137 1368.4 Z" fill="#000000" fill-rule="nonzero" fill-opacity="1" /><path clip-path="url(#clip930)" d="M130.252 1397.08 L135.136 1397.08 L135.136 1402.96 L130.252 1402.96 L130.252 1397.08 Z" fill="#000000" fill-rule="nonzero" fill-opacity="1" /><path clip-path="url(#clip930)" d="M155.321 1371.47 Q151.71 1371.47 149.882 1375.04 Q148.076 1378.58 148.076 1385.71 Q148.076 1392.82 149.882 1396.38 Q151.71 1399.92 155.321 1399.92 Q158.956 1399.92 160.761 1396.38 Q162.59 1392.82 162.59 1385.71 Q162.59 1378.58 160.761 1375.04 Q158.956 1371.47 155.321 1371.47 M155.321 1367.77 Q161.132 1367.77 164.187 1372.38 Q167.266 1376.96 167.266 1385.71 Q167.266 1394.44 164.187 1399.04 Q161.132 1403.63 155.321 1403.63 Q149.511 1403.63 146.433 1399.04 Q143.377 1394.44 143.377 1385.71 Q143.377 1376.96 146.433 1372.38 Q149.511 1367.77 155.321 1367.77 Z" fill="#000000" fill-rule="nonzero" fill-opacity="1" /><path clip-path="url(#clip930)" d="M185.483 1371.47 Q181.872 1371.47 180.043 1375.04 Q178.238 1378.58 178.238 1385.71 Q178.238 1392.82 180.043 1396.38 Q181.872 1399.92 185.483 1399.92 Q189.118 1399.92 190.923 1396.38 Q192.752 1392.82 192.752 1385.71 Q192.752 1378.58 190.923 1375.04 Q189.118 1371.47 185.483 1371.47 M185.483 1367.77 Q191.293 1367.77 194.349 1372.38 Q197.428 1376.96 197.428 1385.71 Q197.428 1394.44 194.349 1399.04 Q191.293 1403.63 185.483 1403.63 Q179.673 1403.63 176.594 1399.04 Q173.539 1394.44 173.539 1385.71 Q173.539 1376.96 176.594 1372.38 Q179.673 1367.77 185.483 1367.77 Z" fill="#000000" fill-rule="nonzero" fill-opacity="1" /><path clip-path="url(#clip930)" d="M233.816 1377.49 L223.238 1388.12 L233.816 1398.7 L231.062 1401.5 L220.437 1390.87 L209.812 1401.5 L207.08 1398.7 L217.636 1388.12 L207.08 1377.49 L209.812 1374.69 L220.437 1385.32 L231.062 1374.69 L233.816 1377.49 Z" fill="#000000" fill-rule="nonzero" fill-opacity="1" /><path clip-path="url(#clip930)" d="M246.177 1399.02 L253.816 1399.02 L253.816 1372.65 L245.506 1374.32 L245.506 1370.06 L253.77 1368.4 L258.446 1368.4 L258.446 1399.02 L266.085 1399.02 L266.085 1402.96 L246.177 1402.96 L246.177 1399.02 Z" fill="#000000" fill-rule="nonzero" fill-opacity="1" /><path clip-path="url(#clip930)" d="M285.529 1371.47 Q281.918 1371.47 280.089 1375.04 Q278.284 1378.58 278.284 1385.71 Q278.284 1392.82 280.089 1396.38 Q281.918 1399.92 285.529 1399.92 Q289.163 1399.92 290.969 1396.38 Q292.798 1392.82 292.798 1385.71 Q292.798 1378.58 290.969 1375.04 Q289.163 1371.47 285.529 1371.47 M285.529 1367.77 Q291.339 1367.77 294.395 1372.38 Q297.473 1376.96 297.473 1385.71 Q297.473 1394.44 294.395 1399.04 Q291.339 1403.63 285.529 1403.63 Q279.719 1403.63 276.64 1399.04 Q273.585 1394.44 273.585 1385.71 Q273.585 1376.96 276.64 1372.38 Q279.719 1367.77 285.529 1367.77 Z" fill="#000000" fill-rule="nonzero" fill-opacity="1" /><path clip-path="url(#clip930)" d="M307.103 1362.21 Q304.395 1362.21 302.834 1363.66 Q301.291 1365.11 301.291 1367.65 Q301.291 1370.19 302.834 1371.63 Q304.395 1373.08 307.103 1373.08 Q309.811 1373.08 311.372 1371.63 Q312.933 1370.17 312.933 1367.65 Q312.933 1365.11 311.372 1363.66 Q309.83 1362.21 307.103 1362.21 M303.304 1360.59 Q300.859 1359.99 299.486 1358.32 Q298.132 1356.64 298.132 1354.24 Q298.132 1350.87 300.52 1348.91 Q302.928 1346.96 307.103 1346.96 Q311.297 1346.96 313.686 1348.91 Q316.074 1350.87 316.074 1354.24 Q316.074 1356.64 314.701 1358.32 Q313.347 1359.99 310.921 1360.59 Q313.667 1361.23 315.19 1363.09 Q316.733 1364.96 316.733 1367.65 Q316.733 1371.73 314.231 1373.91 Q311.749 1376.09 307.103 1376.09 Q302.457 1376.09 299.956 1373.91 Q297.473 1371.73 297.473 1367.65 Q297.473 1364.96 299.016 1363.09 Q300.558 1361.23 303.304 1360.59 M301.912 1354.59 Q301.912 1356.78 303.266 1358 Q304.639 1359.22 307.103 1359.22 Q309.548 1359.22 310.921 1358 Q312.313 1356.78 312.313 1354.59 Q312.313 1352.41 310.921 1351.19 Q309.548 1349.97 307.103 1349.97 Q304.639 1349.97 303.266 1351.19 Q301.912 1352.41 301.912 1354.59 Z" fill="#000000" fill-rule="nonzero" fill-opacity="1" /><path clip-path="url(#clip930)" d="M100.788 1136.63 L108.426 1136.63 L108.426 1110.26 L100.116 1111.93 L100.116 1107.67 L108.38 1106 L113.056 1106 L113.056 1136.63 L120.695 1136.63 L120.695 1140.56 L100.788 1140.56 L100.788 1136.63 Z" fill="#000000" fill-rule="nonzero" fill-opacity="1" /><path clip-path="url(#clip930)" d="M130.139 1134.68 L135.023 1134.68 L135.023 1140.56 L130.139 1140.56 L130.139 1134.68 Z" fill="#000000" fill-rule="nonzero" fill-opacity="1" /><path clip-path="url(#clip930)" d="M155.209 1109.08 Q151.597 1109.08 149.769 1112.65 Q147.963 1116.19 147.963 1123.32 Q147.963 1130.43 149.769 1133.99 Q151.597 1137.53 155.209 1137.53 Q158.843 1137.53 160.648 1133.99 Q162.477 1130.43 162.477 1123.32 Q162.477 1116.19 160.648 1112.65 Q158.843 1109.08 155.209 1109.08 M155.209 1105.38 Q161.019 1105.38 164.074 1109.99 Q167.153 1114.57 167.153 1123.32 Q167.153 1132.05 164.074 1136.65 Q161.019 1141.24 155.209 1141.24 Q149.398 1141.24 146.32 1136.65 Q143.264 1132.05 143.264 1123.32 Q143.264 1114.57 146.32 1109.99 Q149.398 1105.38 155.209 1105.38 Z" fill="#000000" fill-rule="nonzero" fill-opacity="1" /><path clip-path="url(#clip930)" d="M185.37 1109.08 Q181.759 1109.08 179.931 1112.65 Q178.125 1116.19 178.125 1123.32 Q178.125 1130.43 179.931 1133.99 Q181.759 1137.53 185.37 1137.53 Q189.005 1137.53 190.81 1133.99 Q192.639 1130.43 192.639 1123.32 Q192.639 1116.19 190.81 1112.65 Q189.005 1109.08 185.37 1109.08 M185.37 1105.38 Q191.181 1105.38 194.236 1109.99 Q197.315 1114.57 197.315 1123.32 Q197.315 1132.05 194.236 1136.65 Q191.181 1141.24 185.37 1141.24 Q179.56 1141.24 176.482 1136.65 Q173.426 1132.05 173.426 1123.32 Q173.426 1114.57 176.482 1109.99 Q179.56 1105.38 185.37 1105.38 Z" fill="#000000" fill-rule="nonzero" fill-opacity="1" /><path clip-path="url(#clip930)" d="M233.704 1115.1 L223.125 1125.73 L233.704 1136.3 L230.949 1139.11 L220.324 1128.48 L209.699 1139.11 L206.968 1136.3 L217.523 1125.73 L206.968 1115.1 L209.699 1112.3 L220.324 1122.93 L230.949 1112.3 L233.704 1115.1 Z" fill="#000000" fill-rule="nonzero" fill-opacity="1" /><path clip-path="url(#clip930)" d="M246.065 1136.63 L253.703 1136.63 L253.703 1110.26 L245.393 1111.93 L245.393 1107.67 L253.657 1106 L258.333 1106 L258.333 1136.63 L265.972 1136.63 L265.972 1140.56 L246.065 1140.56 L246.065 1136.63 Z" fill="#000000" fill-rule="nonzero" fill-opacity="1" /><path clip-path="url(#clip930)" d="M285.416 1109.08 Q281.805 1109.08 279.976 1112.65 Q278.171 1116.19 278.171 1123.32 Q278.171 1130.43 279.976 1133.99 Q281.805 1137.53 285.416 1137.53 Q289.05 1137.53 290.856 1133.99 Q292.685 1130.43 292.685 1123.32 Q292.685 1116.19 290.856 1112.65 Q289.05 1109.08 285.416 1109.08 M285.416 1105.38 Q291.226 1105.38 294.282 1109.99 Q297.361 1114.57 297.361 1123.32 Q297.361 1132.05 294.282 1136.65 Q291.226 1141.24 285.416 1141.24 Q279.606 1141.24 276.527 1136.65 Q273.472 1132.05 273.472 1123.32 Q273.472 1114.57 276.527 1109.99 Q279.606 1105.38 285.416 1105.38 Z" fill="#000000" fill-rule="nonzero" fill-opacity="1" /><path clip-path="url(#clip930)" d="M299.166 1112.57 L299.166 1109.11 Q300.596 1109.79 302.063 1110.14 Q303.53 1110.5 304.94 1110.5 Q308.702 1110.5 310.676 1107.98 Q312.67 1105.44 312.952 1100.29 Q311.861 1101.91 310.187 1102.77 Q308.514 1103.64 306.482 1103.64 Q302.269 1103.64 299.806 1101.1 Q297.361 1098.54 297.361 1094.12 Q297.361 1089.79 299.918 1087.18 Q302.476 1084.57 306.727 1084.57 Q311.598 1084.57 314.156 1088.31 Q316.733 1092.03 316.733 1099.14 Q316.733 1105.78 313.573 1109.75 Q310.432 1113.7 305.109 1113.7 Q303.68 1113.7 302.213 1113.42 Q300.746 1113.13 299.166 1112.57 M306.727 1100.67 Q309.285 1100.67 310.771 1098.92 Q312.275 1097.17 312.275 1094.12 Q312.275 1091.09 310.771 1089.34 Q309.285 1087.58 306.727 1087.58 Q304.169 1087.58 302.664 1089.34 Q301.179 1091.09 301.179 1094.12 Q301.179 1097.17 302.664 1098.92 Q304.169 1100.67 306.727 1100.67 Z" fill="#000000" fill-rule="nonzero" fill-opacity="1" /><path clip-path="url(#clip930)" d="M100.788 874.237 L108.426 874.237 L108.426 847.872 L100.116 849.538 L100.116 845.279 L108.38 843.612 L113.056 843.612 L113.056 874.237 L120.695 874.237 L120.695 878.172 L100.788 878.172 L100.788 874.237 Z" fill="#000000" fill-rule="nonzero" fill-opacity="1" /><path clip-path="url(#clip930)" d="M130.139 872.293 L135.023 872.293 L135.023 878.172 L130.139 878.172 L130.139 872.293 Z" fill="#000000" fill-rule="nonzero" fill-opacity="1" /><path clip-path="url(#clip930)" d="M145.255 843.612 L163.611 843.612 L163.611 847.548 L149.537 847.548 L149.537 856.02 Q150.556 855.673 151.574 855.511 Q152.593 855.325 153.611 855.325 Q159.398 855.325 162.778 858.497 Q166.158 861.668 166.158 867.085 Q166.158 872.663 162.685 875.765 Q159.213 878.844 152.894 878.844 Q150.718 878.844 148.449 878.473 Q146.204 878.103 143.797 877.362 L143.797 872.663 Q145.88 873.797 148.102 874.353 Q150.324 874.909 152.801 874.909 Q156.806 874.909 159.144 872.802 Q161.482 870.696 161.482 867.085 Q161.482 863.473 159.144 861.367 Q156.806 859.26 152.801 859.26 Q150.926 859.26 149.051 859.677 Q147.199 860.094 145.255 860.973 L145.255 843.612 Z" fill="#000000" fill-rule="nonzero" fill-opacity="1" /><path clip-path="url(#clip930)" d="M185.37 846.691 Q181.759 846.691 179.931 850.256 Q178.125 853.798 178.125 860.927 Q178.125 868.034 179.931 871.598 Q181.759 875.14 185.37 875.14 Q189.005 875.14 190.81 871.598 Q192.639 868.034 192.639 860.927 Q192.639 853.798 190.81 850.256 Q189.005 846.691 185.37 846.691 M185.37 842.987 Q191.181 842.987 194.236 847.594 Q197.315 852.177 197.315 860.927 Q197.315 869.654 194.236 874.26 Q191.181 878.844 185.37 878.844 Q179.56 878.844 176.482 874.26 Q173.426 869.654 173.426 860.927 Q173.426 852.177 176.482 847.594 Q179.56 842.987 185.37 842.987 Z" fill="#000000" fill-rule="nonzero" fill-opacity="1" /><path clip-path="url(#clip930)" d="M233.704 852.71 L223.125 863.335 L233.704 873.913 L230.949 876.714 L220.324 866.089 L209.699 876.714 L206.968 873.913 L217.523 863.335 L206.968 852.71 L209.699 849.909 L220.324 860.534 L230.949 849.909 L233.704 852.71 Z" fill="#000000" fill-rule="nonzero" fill-opacity="1" /><path clip-path="url(#clip930)" d="M246.065 874.237 L253.703 874.237 L253.703 847.872 L245.393 849.538 L245.393 845.279 L253.657 843.612 L258.333 843.612 L258.333 874.237 L265.972 874.237 L265.972 878.172 L246.065 878.172 L246.065 874.237 Z" fill="#000000" fill-rule="nonzero" fill-opacity="1" /><path clip-path="url(#clip930)" d="M285.416 846.691 Q281.805 846.691 279.976 850.256 Q278.171 853.798 278.171 860.927 Q278.171 868.034 279.976 871.598 Q281.805 875.14 285.416 875.14 Q289.05 875.14 290.856 871.598 Q292.685 868.034 292.685 860.927 Q292.685 853.798 290.856 850.256 Q289.05 846.691 285.416 846.691 M285.416 842.987 Q291.226 842.987 294.282 847.594 Q297.361 852.177 297.361 860.927 Q297.361 869.654 294.282 874.26 Q291.226 878.844 285.416 878.844 Q279.606 878.844 276.527 874.26 Q273.472 869.654 273.472 860.927 Q273.472 852.177 276.527 847.594 Q279.606 842.987 285.416 842.987 Z" fill="#000000" fill-rule="nonzero" fill-opacity="1" /><path clip-path="url(#clip930)" d="M299.166 850.179 L299.166 846.718 Q300.596 847.395 302.063 847.753 Q303.53 848.11 304.94 848.11 Q308.702 848.11 310.676 845.59 Q312.67 843.051 312.952 837.898 Q311.861 839.515 310.187 840.38 Q308.514 841.245 306.482 841.245 Q302.269 841.245 299.806 838.706 Q297.361 836.148 297.361 831.729 Q297.361 827.403 299.918 824.788 Q302.476 822.174 306.727 822.174 Q311.598 822.174 314.156 825.917 Q316.733 829.641 316.733 836.75 Q316.733 843.389 313.573 847.358 Q310.432 851.307 305.109 851.307 Q303.68 851.307 302.213 851.025 Q300.746 850.743 299.166 850.179 M306.727 838.274 Q309.285 838.274 310.771 836.525 Q312.275 834.775 312.275 831.729 Q312.275 828.701 310.771 826.951 Q309.285 825.183 306.727 825.183 Q304.169 825.183 302.664 826.951 Q301.179 828.701 301.179 831.729 Q301.179 834.775 302.664 836.525 Q304.169 838.274 306.727 838.274 Z" fill="#000000" fill-rule="nonzero" fill-opacity="1" /><path clip-path="url(#clip930)" d="M104.005 611.846 L120.324 611.846 L120.324 615.781 L98.3802 615.781 L98.3802 611.846 Q101.042 609.091 105.625 604.461 Q110.232 599.809 111.412 598.466 Q113.658 595.943 114.537 594.207 Q115.44 592.448 115.44 590.758 Q115.44 588.003 113.496 586.267 Q111.575 584.531 108.473 584.531 Q106.274 584.531 103.82 585.295 Q101.389 586.059 98.6116 587.61 L98.6116 582.887 Q101.436 581.753 103.889 581.174 Q106.343 580.596 108.38 580.596 Q113.75 580.596 116.945 583.281 Q120.139 585.966 120.139 590.457 Q120.139 592.586 119.329 594.508 Q118.542 596.406 116.436 598.998 Q115.857 599.67 112.755 602.887 Q109.653 606.082 104.005 611.846 Z" fill="#000000" fill-rule="nonzero" fill-opacity="1" /><path clip-path="url(#clip930)" d="M130.139 609.901 L135.023 609.901 L135.023 615.781 L130.139 615.781 L130.139 609.901 Z" fill="#000000" fill-rule="nonzero" fill-opacity="1" /><path clip-path="url(#clip930)" d="M155.209 584.299 Q151.597 584.299 149.769 587.864 Q147.963 591.406 147.963 598.535 Q147.963 605.642 149.769 609.207 Q151.597 612.748 155.209 612.748 Q158.843 612.748 160.648 609.207 Q162.477 605.642 162.477 598.535 Q162.477 591.406 160.648 587.864 Q158.843 584.299 155.209 584.299 M155.209 580.596 Q161.019 580.596 164.074 585.202 Q167.153 589.786 167.153 598.535 Q167.153 607.262 164.074 611.869 Q161.019 616.452 155.209 616.452 Q149.398 616.452 146.32 611.869 Q143.264 607.262 143.264 598.535 Q143.264 589.786 146.32 585.202 Q149.398 580.596 155.209 580.596 Z" fill="#000000" fill-rule="nonzero" fill-opacity="1" /><path clip-path="url(#clip930)" d="M185.37 584.299 Q181.759 584.299 179.931 587.864 Q178.125 591.406 178.125 598.535 Q178.125 605.642 179.931 609.207 Q181.759 612.748 185.37 612.748 Q189.005 612.748 190.81 609.207 Q192.639 605.642 192.639 598.535 Q192.639 591.406 190.81 587.864 Q189.005 584.299 185.37 584.299 M185.37 580.596 Q191.181 580.596 194.236 585.202 Q197.315 589.786 197.315 598.535 Q197.315 607.262 194.236 611.869 Q191.181 616.452 185.37 616.452 Q179.56 616.452 176.482 611.869 Q173.426 607.262 173.426 598.535 Q173.426 589.786 176.482 585.202 Q179.56 580.596 185.37 580.596 Z" fill="#000000" fill-rule="nonzero" fill-opacity="1" /><path clip-path="url(#clip930)" d="M233.704 590.318 L223.125 600.943 L233.704 611.522 L230.949 614.322 L220.324 603.698 L209.699 614.322 L206.968 611.522 L217.523 600.943 L206.968 590.318 L209.699 587.517 L220.324 598.142 L230.949 587.517 L233.704 590.318 Z" fill="#000000" fill-rule="nonzero" fill-opacity="1" /><path clip-path="url(#clip930)" d="M246.065 611.846 L253.703 611.846 L253.703 585.48 L245.393 587.147 L245.393 582.887 L253.657 581.221 L258.333 581.221 L258.333 611.846 L265.972 611.846 L265.972 615.781 L246.065 615.781 L246.065 611.846 Z" fill="#000000" fill-rule="nonzero" fill-opacity="1" /><path clip-path="url(#clip930)" d="M285.416 584.299 Q281.805 584.299 279.976 587.864 Q278.171 591.406 278.171 598.535 Q278.171 605.642 279.976 609.207 Q281.805 612.748 285.416 612.748 Q289.05 612.748 290.856 609.207 Q292.685 605.642 292.685 598.535 Q292.685 591.406 290.856 587.864 Q289.05 584.299 285.416 584.299 M285.416 580.596 Q291.226 580.596 294.282 585.202 Q297.361 589.786 297.361 598.535 Q297.361 607.262 294.282 611.869 Q291.226 616.452 285.416 616.452 Q279.606 616.452 276.527 611.869 Q273.472 607.262 273.472 598.535 Q273.472 589.786 276.527 585.202 Q279.606 580.596 285.416 580.596 Z" fill="#000000" fill-rule="nonzero" fill-opacity="1" /><path clip-path="url(#clip930)" d="M299.166 587.787 L299.166 584.327 Q300.596 585.004 302.063 585.361 Q303.53 585.718 304.94 585.718 Q308.702 585.718 310.676 583.198 Q312.67 580.659 312.952 575.506 Q311.861 577.123 310.187 577.988 Q308.514 578.854 306.482 578.854 Q302.269 578.854 299.806 576.315 Q297.361 573.757 297.361 569.337 Q297.361 565.011 299.918 562.397 Q302.476 559.783 306.727 559.783 Q311.598 559.783 314.156 563.525 Q316.733 567.249 316.733 574.359 Q316.733 580.998 313.573 584.966 Q310.432 588.916 305.109 588.916 Q303.68 588.916 302.213 588.634 Q300.746 588.352 299.166 587.787 M306.727 575.882 Q309.285 575.882 310.771 574.133 Q312.275 572.384 312.275 569.337 Q312.275 566.309 310.771 564.56 Q309.285 562.792 306.727 562.792 Q304.169 562.792 302.664 564.56 Q301.179 566.309 301.179 569.337 Q301.179 572.384 302.664 574.133 Q304.169 575.882 306.727 575.882 Z" fill="#000000" fill-rule="nonzero" fill-opacity="1" /><path clip-path="url(#clip930)" d="M104.005 349.454 L120.324 349.454 L120.324 353.389 L98.3802 353.389 L98.3802 349.454 Q101.042 346.699 105.625 342.07 Q110.232 337.417 111.412 336.074 Q113.658 333.551 114.537 331.815 Q115.44 330.056 115.44 328.366 Q115.44 325.611 113.496 323.875 Q111.575 322.139 108.473 322.139 Q106.274 322.139 103.82 322.903 Q101.389 323.667 98.6116 325.218 L98.6116 320.496 Q101.436 319.362 103.889 318.783 Q106.343 318.204 108.38 318.204 Q113.75 318.204 116.945 320.889 Q120.139 323.574 120.139 328.065 Q120.139 330.195 119.329 332.116 Q118.542 334.014 116.436 336.607 Q115.857 337.278 112.755 340.496 Q109.653 343.69 104.005 349.454 Z" fill="#000000" fill-rule="nonzero" fill-opacity="1" /><path clip-path="url(#clip930)" d="M130.139 347.51 L135.023 347.51 L135.023 353.389 L130.139 353.389 L130.139 347.51 Z" fill="#000000" fill-rule="nonzero" fill-opacity="1" /><path clip-path="url(#clip930)" d="M145.255 318.829 L163.611 318.829 L163.611 322.764 L149.537 322.764 L149.537 331.236 Q150.556 330.889 151.574 330.727 Q152.593 330.542 153.611 330.542 Q159.398 330.542 162.778 333.713 Q166.158 336.885 166.158 342.301 Q166.158 347.88 162.685 350.982 Q159.213 354.06 152.894 354.06 Q150.718 354.06 148.449 353.69 Q146.204 353.32 143.797 352.579 L143.797 347.88 Q145.88 349.014 148.102 349.57 Q150.324 350.125 152.801 350.125 Q156.806 350.125 159.144 348.019 Q161.482 345.912 161.482 342.301 Q161.482 338.69 159.144 336.584 Q156.806 334.477 152.801 334.477 Q150.926 334.477 149.051 334.894 Q147.199 335.311 145.255 336.19 L145.255 318.829 Z" fill="#000000" fill-rule="nonzero" fill-opacity="1" /><path clip-path="url(#clip930)" d="M185.37 321.908 Q181.759 321.908 179.931 325.473 Q178.125 329.014 178.125 336.144 Q178.125 343.25 179.931 346.815 Q181.759 350.357 185.37 350.357 Q189.005 350.357 190.81 346.815 Q192.639 343.25 192.639 336.144 Q192.639 329.014 190.81 325.473 Q189.005 321.908 185.37 321.908 M185.37 318.204 Q191.181 318.204 194.236 322.811 Q197.315 327.394 197.315 336.144 Q197.315 344.871 194.236 349.477 Q191.181 354.06 185.37 354.06 Q179.56 354.06 176.482 349.477 Q173.426 344.871 173.426 336.144 Q173.426 327.394 176.482 322.811 Q179.56 318.204 185.37 318.204 Z" fill="#000000" fill-rule="nonzero" fill-opacity="1" /><path clip-path="url(#clip930)" d="M233.704 327.926 L223.125 338.551 L233.704 349.13 L230.949 351.931 L220.324 341.306 L209.699 351.931 L206.968 349.13 L217.523 338.551 L206.968 327.926 L209.699 325.125 L220.324 335.75 L230.949 325.125 L233.704 327.926 Z" fill="#000000" fill-rule="nonzero" fill-opacity="1" /><path clip-path="url(#clip930)" d="M246.065 349.454 L253.703 349.454 L253.703 323.088 L245.393 324.755 L245.393 320.496 L253.657 318.829 L258.333 318.829 L258.333 349.454 L265.972 349.454 L265.972 353.389 L246.065 353.389 L246.065 349.454 Z" fill="#000000" fill-rule="nonzero" fill-opacity="1" /><path clip-path="url(#clip930)" d="M285.416 321.908 Q281.805 321.908 279.976 325.473 Q278.171 329.014 278.171 336.144 Q278.171 343.25 279.976 346.815 Q281.805 350.357 285.416 350.357 Q289.05 350.357 290.856 346.815 Q292.685 343.25 292.685 336.144 Q292.685 329.014 290.856 325.473 Q289.05 321.908 285.416 321.908 M285.416 318.204 Q291.226 318.204 294.282 322.811 Q297.361 327.394 297.361 336.144 Q297.361 344.871 294.282 349.477 Q291.226 354.06 285.416 354.06 Q279.606 354.06 276.527 349.477 Q273.472 344.871 273.472 336.144 Q273.472 327.394 276.527 322.811 Q279.606 318.204 285.416 318.204 Z" fill="#000000" fill-rule="nonzero" fill-opacity="1" /><path clip-path="url(#clip930)" d="M299.166 325.396 L299.166 321.935 Q300.596 322.612 302.063 322.969 Q303.53 323.327 304.94 323.327 Q308.702 323.327 310.676 320.807 Q312.67 318.268 312.952 313.114 Q311.861 314.732 310.187 315.597 Q308.514 316.462 306.482 316.462 Q302.269 316.462 299.806 313.923 Q297.361 311.365 297.361 306.945 Q297.361 302.619 299.918 300.005 Q302.476 297.391 306.727 297.391 Q311.598 297.391 314.156 301.134 Q316.733 304.858 316.733 311.967 Q316.733 318.606 313.573 322.575 Q310.432 326.524 305.109 326.524 Q303.68 326.524 302.213 326.242 Q300.746 325.96 299.166 325.396 M306.727 313.49 Q309.285 313.49 310.771 311.741 Q312.275 309.992 312.275 306.945 Q312.275 303.917 310.771 302.168 Q309.285 300.4 306.727 300.4 Q304.169 300.4 302.664 302.168 Q301.179 303.917 301.179 306.945 Q301.179 309.992 302.664 311.741 Q304.169 313.49 306.727 313.49 Z" fill="#000000" fill-rule="nonzero" fill-opacity="1" /><path clip-path="url(#clip930)" d="M114.144 72.3633 Q117.5 73.0809 119.375 75.3494 Q121.274 77.6179 121.274 80.9512 Q121.274 86.0669 117.755 88.8678 Q114.237 91.6688 107.755 91.6688 Q105.579 91.6688 103.264 91.2289 Q100.973 90.8123 98.519 89.9558 L98.519 85.4419 Q100.463 86.5762 102.778 87.1549 Q105.093 87.7336 107.616 87.7336 Q112.014 87.7336 114.306 85.9975 Q116.621 84.2614 116.621 80.9512 Q116.621 77.8957 114.468 76.1827 Q112.338 74.4466 108.519 74.4466 L104.491 74.4466 L104.491 70.6041 L108.704 70.6041 Q112.153 70.6041 113.982 69.2383 Q115.811 67.8494 115.811 65.2569 Q115.811 62.5948 113.912 61.1828 Q112.037 59.7476 108.519 59.7476 Q106.598 59.7476 104.399 60.1643 Q102.2 60.581 99.5607 61.4606 L99.5607 57.2939 Q102.223 56.5532 104.538 56.1828 Q106.875 55.8125 108.936 55.8125 Q114.26 55.8125 117.362 58.243 Q120.463 60.6504 120.463 64.7708 Q120.463 67.6411 118.82 69.6318 Q117.176 71.5994 114.144 72.3633 Z" fill="#000000" fill-rule="nonzero" fill-opacity="1" /><path clip-path="url(#clip930)" d="M130.139 85.1179 L135.023 85.1179 L135.023 90.9975 L130.139 90.9975 L130.139 85.1179 Z" fill="#000000" fill-rule="nonzero" fill-opacity="1" /><path clip-path="url(#clip930)" d="M155.209 59.5161 Q151.597 59.5161 149.769 63.0809 Q147.963 66.6226 147.963 73.7522 Q147.963 80.8586 149.769 84.4234 Q151.597 87.9651 155.209 87.9651 Q158.843 87.9651 160.648 84.4234 Q162.477 80.8586 162.477 73.7522 Q162.477 66.6226 160.648 63.0809 Q158.843 59.5161 155.209 59.5161 M155.209 55.8125 Q161.019 55.8125 164.074 60.4189 Q167.153 65.0022 167.153 73.7522 Q167.153 82.479 164.074 87.0854 Q161.019 91.6688 155.209 91.6688 Q149.398 91.6688 146.32 87.0854 Q143.264 82.479 143.264 73.7522 Q143.264 65.0022 146.32 60.4189 Q149.398 55.8125 155.209 55.8125 Z" fill="#000000" fill-rule="nonzero" fill-opacity="1" /><path clip-path="url(#clip930)" d="M185.37 59.5161 Q181.759 59.5161 179.931 63.0809 Q178.125 66.6226 178.125 73.7522 Q178.125 80.8586 179.931 84.4234 Q181.759 87.9651 185.37 87.9651 Q189.005 87.9651 190.81 84.4234 Q192.639 80.8586 192.639 73.7522 Q192.639 66.6226 190.81 63.0809 Q189.005 59.5161 185.37 59.5161 M185.37 55.8125 Q191.181 55.8125 194.236 60.4189 Q197.315 65.0022 197.315 73.7522 Q197.315 82.479 194.236 87.0854 Q191.181 91.6688 185.37 91.6688 Q179.56 91.6688 176.482 87.0854 Q173.426 82.479 173.426 73.7522 Q173.426 65.0022 176.482 60.4189 Q179.56 55.8125 185.37 55.8125 Z" fill="#000000" fill-rule="nonzero" fill-opacity="1" /><path clip-path="url(#clip930)" d="M233.704 65.5346 L223.125 76.1596 L233.704 86.7382 L230.949 89.5391 L220.324 78.9142 L209.699 89.5391 L206.968 86.7382 L217.523 76.1596 L206.968 65.5346 L209.699 62.7337 L220.324 73.3587 L230.949 62.7337 L233.704 65.5346 Z" fill="#000000" fill-rule="nonzero" fill-opacity="1" /><path clip-path="url(#clip930)" d="M246.065 87.0623 L253.703 87.0623 L253.703 60.6967 L245.393 62.3634 L245.393 58.1041 L253.657 56.4375 L258.333 56.4375 L258.333 87.0623 L265.972 87.0623 L265.972 90.9975 L246.065 90.9975 L246.065 87.0623 Z" fill="#000000" fill-rule="nonzero" fill-opacity="1" /><path clip-path="url(#clip930)" d="M285.416 59.5161 Q281.805 59.5161 279.976 63.0809 Q278.171 66.6226 278.171 73.7522 Q278.171 80.8586 279.976 84.4234 Q281.805 87.9651 285.416 87.9651 Q289.05 87.9651 290.856 84.4234 Q292.685 80.8586 292.685 73.7522 Q292.685 66.6226 290.856 63.0809 Q289.05 59.5161 285.416 59.5161 M285.416 55.8125 Q291.226 55.8125 294.282 60.4189 Q297.361 65.0022 297.361 73.7522 Q297.361 82.479 294.282 87.0854 Q291.226 91.6688 285.416 91.6688 Q279.606 91.6688 276.527 87.0854 Q273.472 82.479 273.472 73.7522 Q273.472 65.0022 276.527 60.4189 Q279.606 55.8125 285.416 55.8125 Z" fill="#000000" fill-rule="nonzero" fill-opacity="1" /><path clip-path="url(#clip930)" d="M299.166 63.004 L299.166 59.5434 Q300.596 60.2205 302.063 60.5778 Q303.53 60.9352 304.94 60.9352 Q308.702 60.9352 310.676 58.4149 Q312.67 55.8759 312.952 50.7225 Q311.861 52.34 310.187 53.2052 Q308.514 54.0703 306.482 54.0703 Q302.269 54.0703 299.806 51.5313 Q297.361 48.9734 297.361 44.5536 Q297.361 40.2278 299.918 37.6135 Q302.476 34.9993 306.727 34.9993 Q311.598 34.9993 314.156 38.742 Q316.733 42.4659 316.733 49.5753 Q316.733 56.2144 313.573 60.1829 Q310.432 64.1325 305.109 64.1325 Q303.68 64.1325 302.213 63.8504 Q300.746 63.5683 299.166 63.004 M306.727 51.0987 Q309.285 51.0987 310.771 49.3496 Q312.275 47.6005 312.275 44.5536 Q312.275 41.5255 310.771 39.7764 Q309.285 38.0085 306.727 38.0085 Q304.169 38.0085 302.664 39.7764 Q301.179 41.5255 301.179 44.5536 Q301.179 47.6005 302.664 49.3496 Q304.169 51.0987 306.727 51.0987 Z" fill="#000000" fill-rule="nonzero" fill-opacity="1" /><path clip-path="url(#clip930)" d="M-9.64527 840.632 L0.4762 840.632 L0.4762 828.569 L5.02768 828.569 L5.02768 840.632 L24.3794 840.632 Q28.7399 840.632 29.9813 839.454 Q31.2226 838.245 31.2226 834.584 L31.2226 828.569 L36.1242 828.569 L36.1242 834.584 Q36.1242 841.364 33.6097 843.942 Q31.0634 846.52 24.3794 846.52 L5.02768 846.52 L5.02768 850.817 L0.4762 850.817 L0.4762 846.52 L-9.64527 846.52 L-9.64527 840.632 Z" fill="#000000" fill-rule="nonzero" fill-opacity="1" /><path clip-path="url(#clip930)" d="M-11.3958 789.738 L-11.3958 784.327 L42.1716 800.878 L42.1716 806.289 L-11.3958 789.738 Z" fill="#000000" fill-rule="nonzero" fill-opacity="1" /><path clip-path="url(#clip930)" d="M14.6081 727.831 L36.1242 727.831 L36.1242 733.688 L14.799 733.688 Q9.7383 733.688 7.22385 735.661 Q4.7094 737.635 4.7094 741.581 Q4.7094 746.324 7.73311 749.061 Q10.7568 751.798 15.9767 751.798 L36.1242 751.798 L36.1242 757.687 L0.4762 757.687 L0.4762 751.798 L6.01437 751.798 Q2.79968 749.698 1.20826 746.865 Q-0.38317 744 -0.38317 740.276 Q-0.38317 734.133 3.43625 730.982 Q7.22385 727.831 14.6081 727.831 Z" fill="#000000" fill-rule="nonzero" fill-opacity="1" /><path clip-path="url(#clip930)" d="M1.52654 693.425 L7.06471 693.425 Q5.79157 695.907 5.15499 698.581 Q4.51842 701.255 4.51842 704.119 Q4.51842 708.48 5.85522 710.676 Q7.19202 712.84 9.86562 712.84 Q11.9026 712.84 13.0803 711.281 Q14.2261 709.721 15.2765 705.01 L15.7221 703.005 Q17.0589 696.767 19.5097 694.157 Q21.9286 691.515 26.2891 691.515 Q31.2544 691.515 34.1508 695.462 Q37.0472 699.377 37.0472 706.252 Q37.0472 709.116 36.4743 712.235 Q35.9332 715.323 34.8192 718.76 L28.7718 718.76 Q30.4587 715.514 31.318 712.363 Q32.1456 709.212 32.1456 706.124 Q32.1456 701.987 30.7451 699.759 Q29.3129 697.531 26.7347 697.531 Q24.3476 697.531 23.0745 699.154 Q21.8013 700.745 20.6237 706.188 L20.1462 708.225 Q19.0004 713.668 16.6451 716.087 Q14.258 718.506 10.1202 718.506 Q5.09134 718.506 2.35408 714.941 Q-0.38317 711.376 -0.38317 704.819 Q-0.38317 701.573 0.0942579 698.708 Q0.571686 695.844 1.52654 693.425 Z" fill="#000000" fill-rule="nonzero" fill-opacity="1" /><path clip-path="url(#clip931)" d="M859.459 1454.11 L860.437 1453.38 L861.095 1452.66 L861.459 1451.93 L861.564 1451.2 L861.449 1450.47 L861.16 1449.75 L860.747 1449.02 L860.262 1448.29 L859.762 1447.57 L859.303 1446.84 L858.943 1446.11 L858.739 1445.38 L858.744 1444.66 L859.009 1443.93 L859.58 1443.2 L860.499 1442.47 L861.801 1441.75 L863.513 1441.02 L865.657 1440.29 L868.245 1439.56 L871.281 1438.84 L874.763 1438.11 L878.68 1437.38 L883.013 1436.66 L887.736 1435.93 L892.818 1435.2 L898.221 1434.47 L903.902 1433.75 L909.815 1433.02 L915.911 1432.29 L922.139 1431.56 L928.448 1430.84 L934.787 1430.11 L941.105 1429.38 L947.357 1428.65 L953.496 1427.93 L959.484 1427.2 L965.284 1426.47 L970.865 1425.75 L976.203 1425.02 L981.276 1424.29 L986.07 1423.56 L990.576 1422.84 L994.79 1422.11 L998.711 1421.38 L1002.34 1420.65 L1005.69 1419.93 L1008.77 1419.2 L1011.59 1418.47 L1014.17 1417.74 L1016.5 1417.02 L1018.62 1416.29 L1020.51 1415.56 L1022.21 1414.84 L1023.69 1414.11 L1024.98 1413.38 L1026.06 1412.65 L1026.93 1411.93 L1027.58 1411.2 L1027.98 1410.47 L1028.13 1409.74 L1028 1409.02 L1027.56 1408.29 L1026.79 1407.56 L1025.65 1406.83 L1024.13 1406.11 L1022.19 1405.38 L1019.8 1404.65 L1016.94 1403.93 L1013.6 1403.2 L1009.74 1402.47 L1005.37 1401.74 L1000.48 1401.02 L995.063 1400.29 L989.131 1399.56 L982.697 1398.83 L975.782 1398.11 L495.987 1398.11 L489.072 1398.83 L482.638 1399.56 L476.706 1400.29 L471.289 1401.02 L466.395 1401.74 L462.025 1402.47 L458.172 1403.2 L454.825 1403.93 L451.969 1404.65 L449.581 1405.38 L447.639 1406.11 L446.115 1406.83 L444.982 1407.56 L444.21 1408.29 L443.772 1409.02 L443.639 1409.74 L443.787 1410.47 L444.193 1411.2 L444.838 1411.93 L445.707 1412.65 L446.789 1413.38 L448.075 1414.11 L449.564 1414.84 L451.255 1415.56 L453.154 1416.29 L455.267 1417.02 L457.603 1417.74 L460.175 1418.47 L462.995 1419.2 L466.075 1419.93 L469.426 1420.65 L473.058 1421.38 L476.979 1422.11 L481.193 1422.84 L485.699 1423.56 L490.493 1424.29 L495.566 1425.02 L500.904 1425.75 L506.485 1426.47 L512.285 1427.2 L518.273 1427.93 L524.413 1428.65 L530.664 1429.38 L536.982 1430.11 L543.321 1430.84 L549.63 1431.56 L555.858 1432.29 L561.954 1433.02 L567.867 1433.75 L573.548 1434.47 L578.951 1435.2 L584.033 1435.93 L588.756 1436.66 L593.089 1437.38 L597.006 1438.11 L600.488 1438.84 L603.525 1439.56 L606.112 1440.29 L608.256 1441.02 L609.968 1441.75 L611.27 1442.47 L612.189 1443.2 L612.76 1443.93 L613.025 1444.66 L613.03 1445.38 L612.826 1446.11 L612.466 1446.84 L612.007 1447.57 L611.507 1448.29 L611.022 1449.02 L610.609 1449.75 L610.32 1450.47 L610.205 1451.2 L610.31 1451.93 L610.674 1452.66 L611.332 1453.38 L612.31 1454.11 L859.459 1454.11  Z" fill="#009af9" fill-rule="evenodd" fill-opacity="1"/>
<polyline clip-path="url(#clip931)" style="stroke:#000000; stroke-linecap:round; stroke-linejoin:round; stroke-width:4; stroke-opacity:1; fill:none" points="859.459,1454.11 860.437,1453.38 861.095,1452.66 861.459,1451.93 861.564,1451.2 861.449,1450.47 861.16,1449.75 860.747,1449.02 860.262,1448.29 859.762,1447.57 859.303,1446.84 858.943,1446.11 858.739,1445.38 858.744,1444.66 859.009,1443.93 859.58,1443.2 860.499,1442.47 861.801,1441.75 863.513,1441.02 865.657,1440.29 868.245,1439.56 871.281,1438.84 874.763,1438.11 878.68,1437.38 883.013,1436.66 887.736,1435.93 892.818,1435.2 898.221,1434.47 903.902,1433.75 909.815,1433.02 915.911,1432.29 922.139,1431.56 928.448,1430.84 934.787,1430.11 941.105,1429.38 947.357,1428.65 953.496,1427.93 959.484,1427.2 965.284,1426.47 970.865,1425.75 976.203,1425.02 981.276,1424.29 986.07,1423.56 990.576,1422.84 994.79,1422.11 998.711,1421.38 1002.34,1420.65 1005.69,1419.93 1008.77,1419.2 1011.59,1418.47 1014.17,1417.74 1016.5,1417.02 1018.62,1416.29 1020.51,1415.56 1022.21,1414.84 1023.69,1414.11 1024.98,1413.38 1026.06,1412.65 1026.93,1411.93 1027.58,1411.2 1027.98,1410.47 1028.13,1409.74 1028,1409.02 1027.56,1408.29 1026.79,1407.56 1025.65,1406.83 1024.13,1406.11 1022.19,1405.38 1019.8,1404.65 1016.94,1403.93 1013.6,1403.2 1009.74,1402.47 1005.37,1401.74 1000.48,1401.02 995.063,1400.29 989.131,1399.56 982.697,1398.83 975.782,1398.11 495.987,1398.11 489.072,1398.83 482.638,1399.56 476.706,1400.29 471.289,1401.02 466.395,1401.74 462.025,1402.47 458.172,1403.2 454.825,1403.93 451.969,1404.65 449.581,1405.38 447.639,1406.11 446.115,1406.83 444.982,1407.56 444.21,1408.29 443.772,1409.02 443.639,1409.74 443.787,1410.47 444.193,1411.2 444.838,1411.93 445.707,1412.65 446.789,1413.38 448.075,1414.11 449.564,1414.84 451.255,1415.56 453.154,1416.29 455.267,1417.02 457.603,1417.74 460.175,1418.47 462.995,1419.2 466.075,1419.93 469.426,1420.65 473.058,1421.38 476.979,1422.11 481.193,1422.84 485.699,1423.56 490.493,1424.29 495.566,1425.02 500.904,1425.75 506.485,1426.47 512.285,1427.2 518.273,1427.93 524.413,1428.65 530.664,1429.38 536.982,1430.11 543.321,1430.84 549.63,1431.56 555.858,1432.29 561.954,1433.02 567.867,1433.75 573.548,1434.47 578.951,1435.2 584.033,1435.93 588.756,1436.66 593.089,1437.38 597.006,1438.11 600.488,1438.84 603.525,1439.56 606.112,1440.29 608.256,1441.02 609.968,1441.75 611.27,1442.47 612.189,1443.2 612.76,1443.93 613.025,1444.66 613.03,1445.38 612.826,1446.11 612.466,1446.84 612.007,1447.57 611.507,1448.29 611.022,1449.02 610.609,1449.75 610.32,1450.47 610.205,1451.2 610.31,1451.93 610.674,1452.66 611.332,1453.38 612.31,1454.11 859.459,1454.11 "/>
<path clip-path="url(#clip931)" d="M1993.66 445.683 L2000.79 444.638 L2007.56 443.593 L2013.94 442.548 L2019.9 441.503 L2025.39 440.458 L2030.4 439.412 L2034.89 438.367 L2038.85 437.322 L2042.27 436.277 L2045.12 435.232 L2047.41 434.187 L2049.14 433.142 L2050.3 432.097 L2050.91 431.052 L2050.99 430.007 L2050.55 428.962 L2049.63 427.917 L2048.25 426.872 L2046.45 425.826 L2044.27 424.781 L2041.76 423.736 L2038.95 422.691 L2035.91 421.646 L2032.67 420.601 L2029.3 419.556 L2025.85 418.511 L2022.36 417.466 L2018.89 416.421 L2015.49 415.376 L2012.19 414.331 L2009.05 413.286 L2006.09 412.24 L2003.34 411.195 L2000.84 410.15 L1998.6 409.105 L1996.63 408.06 L1994.93 407.015 L1993.51 405.97 L1992.37 404.925 L1991.47 403.88 L1990.81 402.835 L1990.35 401.79 L1990.06 400.745 L1989.92 399.699 L1989.87 398.654 L1989.87 397.609 L1989.88 396.564 L1989.85 395.519 L1989.73 394.474 L1989.48 393.429 L1989.05 392.384 L1988.39 391.339 L1987.47 390.294 L1986.25 389.249 L1984.7 388.204 L1982.78 387.159 L1980.47 386.113 L1977.77 385.068 L1974.65 384.023 L1971.11 382.978 L1967.16 381.933 L1550.33 381.933 L1546.38 382.978 L1542.84 384.023 L1539.72 385.068 L1537.02 386.113 L1534.71 387.159 L1532.79 388.204 L1531.24 389.249 L1530.01 390.294 L1529.09 391.339 L1528.44 392.384 L1528.01 393.429 L1527.76 394.474 L1527.64 395.519 L1527.61 396.564 L1527.62 397.609 L1527.62 398.654 L1527.57 399.699 L1527.43 400.745 L1527.14 401.79 L1526.68 402.835 L1526.02 403.88 L1525.12 404.925 L1523.97 405.97 L1522.56 407.015 L1520.86 408.06 L1518.89 409.105 L1516.65 410.15 L1514.15 411.195 L1511.4 412.24 L1508.44 413.286 L1505.3 414.331 L1502 415.376 L1498.6 416.421 L1495.13 417.466 L1491.64 418.511 L1488.19 419.556 L1484.82 420.601 L1481.58 421.646 L1478.54 422.691 L1475.73 423.736 L1473.22 424.781 L1471.04 425.826 L1469.24 426.872 L1467.86 427.917 L1466.93 428.962 L1466.5 430.007 L1466.58 431.052 L1467.19 432.097 L1468.35 433.142 L1470.08 434.187 L1472.37 435.232 L1475.22 436.277 L1478.64 437.322 L1482.6 438.367 L1487.09 439.412 L1492.1 440.458 L1497.59 441.503 L1503.54 442.548 L1509.92 443.593 L1516.7 444.638 L1523.83 445.683 L1993.66 445.683  Z" fill="#e26f46" fill-rule="evenodd" fill-opacity="1"/>
<polyline clip-path="url(#clip931)" style="stroke:#000000; stroke-linecap:round; stroke-linejoin:round; stroke-width:4; stroke-opacity:1; fill:none" points="1993.66,445.683 2000.79,444.638 2007.56,443.593 2013.94,442.548 2019.9,441.503 2025.39,440.458 2030.4,439.412 2034.89,438.367 2038.85,437.322 2042.27,436.277 2045.12,435.232 2047.41,434.187 2049.14,433.142 2050.3,432.097 2050.91,431.052 2050.99,430.007 2050.55,428.962 2049.63,427.917 2048.25,426.872 2046.45,425.826 2044.27,424.781 2041.76,423.736 2038.95,422.691 2035.91,421.646 2032.67,420.601 2029.3,419.556 2025.85,418.511 2022.36,417.466 2018.89,416.421 2015.49,415.376 2012.19,414.331 2009.05,413.286 2006.09,412.24 2003.34,411.195 2000.84,410.15 1998.6,409.105 1996.63,408.06 1994.93,407.015 1993.51,405.97 1992.37,404.925 1991.47,403.88 1990.81,402.835 1990.35,401.79 1990.06,400.745 1989.92,399.699 1989.87,398.654 1989.87,397.609 1989.88,396.564 1989.85,395.519 1989.73,394.474 1989.48,393.429 1989.05,392.384 1988.39,391.339 1987.47,390.294 1986.25,389.249 1984.7,388.204 1982.78,387.159 1980.47,386.113 1977.77,385.068 1974.65,384.023 1971.11,382.978 1967.16,381.933 1550.33,381.933 1546.38,382.978 1542.84,384.023 1539.72,385.068 1537.02,386.113 1534.71,387.159 1532.79,388.204 1531.24,389.249 1530.01,390.294 1529.09,391.339 1528.44,392.384 1528.01,393.429 1527.76,394.474 1527.64,395.519 1527.61,396.564 1527.62,397.609 1527.62,398.654 1527.57,399.699 1527.43,400.745 1527.14,401.79 1526.68,402.835 1526.02,403.88 1525.12,404.925 1523.97,405.97 1522.56,407.015 1520.86,408.06 1518.89,409.105 1516.65,410.15 1514.15,411.195 1511.4,412.24 1508.44,413.286 1505.3,414.331 1502,415.376 1498.6,416.421 1495.13,417.466 1491.64,418.511 1488.19,419.556 1484.82,420.601 1481.58,421.646 1478.54,422.691 1475.73,423.736 1473.22,424.781 1471.04,425.826 1469.24,426.872 1467.86,427.917 1466.93,428.962 1466.5,430.007 1466.58,431.052 1467.19,432.097 1468.35,433.142 1470.08,434.187 1472.37,435.232 1475.22,436.277 1478.64,437.322 1482.6,438.367 1487.09,439.412 1492.1,440.458 1497.59,441.503 1503.54,442.548 1509.92,443.593 1516.7,444.638 1523.83,445.683 1993.66,445.683 "/>
<path clip-path="url(#clip931)" d="M3045.71 177.944 L3050.39 176.52 L3054.62 175.096 L3058.39 173.672 L3061.71 172.248 L3064.59 170.823 L3067.04 169.399 L3069.08 167.975 L3070.73 166.551 L3072.01 165.127 L3072.94 163.702 L3073.54 162.278 L3073.84 160.854 L3073.85 159.43 L3073.6 158.006 L3073.1 156.582 L3072.37 155.157 L3071.43 153.733 L3070.29 152.309 L3068.96 150.885 L3067.45 149.461 L3065.77 148.036 L3063.93 146.612 L3061.92 145.188 L3059.76 143.764 L3057.45 142.34 L3054.98 140.916 L3052.36 139.491 L3049.59 138.067 L3046.68 136.643 L3043.63 135.219 L3040.45 133.795 L3037.14 132.37 L3033.7 130.946 L3030.16 129.522 L3026.52 128.098 L3022.78 126.674 L3018.98 125.25 L3015.12 123.825 L3011.21 122.401 L3007.27 120.977 L3003.31 119.553 L2999.36 118.129 L2995.41 116.704 L2991.49 115.28 L2987.61 113.856 L2983.77 112.432 L2979.99 111.008 L2976.26 109.584 L2972.58 108.159 L2968.97 106.735 L2965.41 105.311 L2961.89 103.887 L2958.42 102.463 L2954.99 101.038 L2951.57 99.6143 L2948.17 98.1901 L2944.76 96.7659 L2941.34 95.3417 L2937.89 93.9175 L2934.39 92.4934 L2930.84 91.0692 L2927.22 89.645 L2923.53 88.2208 L2639.68 88.2208 L2635.98 89.645 L2632.37 91.0692 L2628.82 92.4934 L2625.32 93.9175 L2621.87 95.3417 L2618.45 96.7659 L2615.04 98.1901 L2611.63 99.6143 L2608.22 101.038 L2604.78 102.463 L2601.31 103.887 L2597.8 105.311 L2594.24 106.735 L2590.63 108.159 L2586.95 109.584 L2583.22 111.008 L2579.43 112.432 L2575.6 113.856 L2571.71 115.28 L2567.8 116.704 L2563.85 118.129 L2559.9 119.553 L2555.94 120.977 L2552 122.401 L2548.09 123.825 L2544.23 125.25 L2540.42 126.674 L2536.69 128.098 L2533.05 129.522 L2529.51 130.946 L2526.07 132.37 L2522.76 133.795 L2519.57 135.219 L2516.52 136.643 L2513.61 138.067 L2510.85 139.491 L2508.23 140.916 L2505.76 142.34 L2503.44 143.764 L2501.28 145.188 L2499.28 146.612 L2497.44 148.036 L2495.76 149.461 L2494.25 150.885 L2492.92 152.309 L2491.78 153.733 L2490.84 155.157 L2490.11 156.582 L2489.61 158.006 L2489.36 159.43 L2489.37 160.854 L2489.66 162.278 L2490.27 163.702 L2491.19 165.127 L2492.47 166.551 L2494.13 167.975 L2496.17 169.399 L2498.62 170.823 L2501.5 172.248 L2504.82 173.672 L2508.59 175.096 L2512.82 176.52 L2517.5 177.944 L3045.71 177.944  Z" fill="#3da44d" fill-rule="evenodd" fill-opacity="1"/>
<polyline clip-path="url(#clip931)" style="stroke:#000000; stroke-linecap:round; stroke-linejoin:round; stroke-width:4; stroke-opacity:1; fill:none" points="3045.71,177.944 3050.39,176.52 3054.62,175.096 3058.39,173.672 3061.71,172.248 3064.59,170.823 3067.04,169.399 3069.08,167.975 3070.73,166.551 3072.01,165.127 3072.94,163.702 3073.54,162.278 3073.84,160.854 3073.85,159.43 3073.6,158.006 3073.1,156.582 3072.37,155.157 3071.43,153.733 3070.29,152.309 3068.96,150.885 3067.45,149.461 3065.77,148.036 3063.93,146.612 3061.92,145.188 3059.76,143.764 3057.45,142.34 3054.98,140.916 3052.36,139.491 3049.59,138.067 3046.68,136.643 3043.63,135.219 3040.45,133.795 3037.14,132.37 3033.7,130.946 3030.16,129.522 3026.52,128.098 3022.78,126.674 3018.98,125.25 3015.12,123.825 3011.21,122.401 3007.27,120.977 3003.31,119.553 2999.36,118.129 2995.41,116.704 2991.49,115.28 2987.61,113.856 2983.77,112.432 2979.99,111.008 2976.26,109.584 2972.58,108.159 2968.97,106.735 2965.41,105.311 2961.89,103.887 2958.42,102.463 2954.99,101.038 2951.57,99.6143 2948.17,98.1901 2944.76,96.7659 2941.34,95.3417 2937.89,93.9175 2934.39,92.4934 2930.84,91.0692 2927.22,89.645 2923.53,88.2208 2639.68,88.2208 2635.98,89.645 2632.37,91.0692 2628.82,92.4934 2625.32,93.9175 2621.87,95.3417 2618.45,96.7659 2615.04,98.1901 2611.63,99.6143 2608.22,101.038 2604.78,102.463 2601.31,103.887 2597.8,105.311 2594.24,106.735 2590.63,108.159 2586.95,109.584 2583.22,111.008 2579.43,112.432 2575.6,113.856 2571.71,115.28 2567.8,116.704 2563.85,118.129 2559.9,119.553 2555.94,120.977 2552,122.401 2548.09,123.825 2544.23,125.25 2540.42,126.674 2536.69,128.098 2533.05,129.522 2529.51,130.946 2526.07,132.37 2522.76,133.795 2519.57,135.219 2516.52,136.643 2513.61,138.067 2510.85,139.491 2508.23,140.916 2505.76,142.34 2503.44,143.764 2501.28,145.188 2499.28,146.612 2497.44,148.036 2495.76,149.461 2494.25,150.885 2492.92,152.309 2491.78,153.733 2490.84,155.157 2490.11,156.582 2489.61,158.006 2489.36,159.43 2489.37,160.854 2489.66,162.278 2490.27,163.702 2491.19,165.127 2492.47,166.551 2494.13,167.975 2496.17,169.399 2498.62,170.823 2501.5,172.248 2504.82,173.672 2508.59,175.096 2512.82,176.52 2517.5,177.944 3045.71,177.944 "/>
</svg>
