<?xml version="1.0" encoding="utf-8"?>
<svg xmlns="http://www.w3.org/2000/svg" xmlns:xlink="http://www.w3.org/1999/xlink" width="600" height="400" viewBox="0 0 2400 1600">
<defs>
  <clipPath id="clip640">
    <rect x="0" y="0" width="2400" height="1600"/>
  </clipPath>
</defs>
<path clip-path="url(#clip640)" d="M0 1600 L2400 1600 L2400 0 L0 0  Z" fill="#ffffff" fill-rule="evenodd" fill-opacity="1"/>
<defs>
  <clipPath id="clip641">
    <rect x="394" y="47" width="1959" height="1377"/>
  </clipPath>
</defs>
<path clip-path="url(#clip640)" d="M394.884 1423.18 L2352.76 1423.18 L2352.76 47.2441 L394.884 47.2441  Z" fill="#ffffff" fill-rule="evenodd" fill-opacity="1"/>
<polyline clip-path="url(#clip641)" style="stroke:#000000; stroke-linecap:round; stroke-linejoin:round; stroke-width:2; stroke-opacity:0.1; fill:none" points="758.137,1423.18 758.137,47.2441 "/>
<polyline clip-path="url(#clip641)" style="stroke:#000000; stroke-linecap:round; stroke-linejoin:round; stroke-width:2; stroke-opacity:0.1; fill:none" points="1142.94,1423.18 1142.94,47.2441 "/>
<polyline clip-path="url(#clip641)" style="stroke:#000000; stroke-linecap:round; stroke-linejoin:round; stroke-width:2; stroke-opacity:0.1; fill:none" points="1527.74,1423.18 1527.74,47.2441 "/>
<polyline clip-path="url(#clip641)" style="stroke:#000000; stroke-linecap:round; stroke-linejoin:round; stroke-width:2; stroke-opacity:0.1; fill:none" points="1912.54,1423.18 1912.54,47.2441 "/>
<polyline clip-path="url(#clip641)" style="stroke:#000000; stroke-linecap:round; stroke-linejoin:round; stroke-width:2; stroke-opacity:0.1; fill:none" points="2297.34,1423.18 2297.34,47.2441 "/>
<polyline clip-path="url(#clip641)" style="stroke:#000000; stroke-linecap:round; stroke-linejoin:round; stroke-width:2; stroke-opacity:0.1; fill:none" points="394.884,1274.23 2352.76,1274.23 "/>
<polyline clip-path="url(#clip641)" style="stroke:#000000; stroke-linecap:round; stroke-linejoin:round; stroke-width:2; stroke-opacity:0.1; fill:none" points="394.884,1097.17 2352.76,1097.17 "/>
<polyline clip-path="url(#clip641)" style="stroke:#000000; stroke-linecap:round; stroke-linejoin:round; stroke-width:2; stroke-opacity:0.1; fill:none" points="394.884,920.118 2352.76,920.118 "/>
<polyline clip-path="url(#clip641)" style="stroke:#000000; stroke-linecap:round; stroke-linejoin:round; stroke-width:2; stroke-opacity:0.1; fill:none" points="394.884,743.063 2352.76,743.063 "/>
<polyline clip-path="url(#clip641)" style="stroke:#000000; stroke-linecap:round; stroke-linejoin:round; stroke-width:2; stroke-opacity:0.1; fill:none" points="394.884,566.007 2352.76,566.007 "/>
<polyline clip-path="url(#clip641)" style="stroke:#000000; stroke-linecap:round; stroke-linejoin:round; stroke-width:2; stroke-opacity:0.1; fill:none" points="394.884,388.951 2352.76,388.951 "/>
<polyline clip-path="url(#clip641)" style="stroke:#000000; stroke-linecap:round; stroke-linejoin:round; stroke-width:2; stroke-opacity:0.1; fill:none" points="394.884,211.896 2352.76,211.896 "/>
<polyline clip-path="url(#clip640)" style="stroke:#000000; stroke-linecap:round; stroke-linejoin:round; stroke-width:4; stroke-opacity:1; fill:none" points="394.884,1423.18 2352.76,1423.18 "/>
<polyline clip-path="url(#clip640)" style="stroke:#000000; stroke-linecap:round; stroke-linejoin:round; stroke-width:4; stroke-opacity:1; fill:none" points="758.137,1423.18 758.137,1404.28 "/>
<polyline clip-path="url(#clip640)" style="stroke:#000000; stroke-linecap:round; stroke-linejoin:round; stroke-width:4; stroke-opacity:1; fill:none" points="1142.94,1423.18 1142.94,1404.28 "/>
<polyline clip-path="url(#clip640)" style="stroke:#000000; stroke-linecap:round; stroke-linejoin:round; stroke-width:4; stroke-opacity:1; fill:none" points="1527.74,1423.18 1527.74,1404.28 "/>
<polyline clip-path="url(#clip640)" style="stroke:#000000; stroke-linecap:round; stroke-linejoin:round; stroke-width:4; stroke-opacity:1; fill:none" points="1912.54,1423.18 1912.54,1404.28 "/>
<polyline clip-path="url(#clip640)" style="stroke:#000000; stroke-linecap:round; stroke-linejoin:round; stroke-width:4; stroke-opacity:1; fill:none" points="2297.34,1423.18 2297.34,1404.28 "/>
<path clip-path="url(#clip640)" d="M721.829 1481.64 L738.149 1481.64 L738.149 1485.58 L716.204 1485.58 L716.204 1481.64 Q718.866 1478.89 723.45 1474.26 Q728.056 1469.61 729.237 1468.27 Q731.482 1465.74 732.362 1464.01 Q733.265 1462.25 733.265 1460.56 Q733.265 1457.8 731.32 1456.07 Q729.399 1454.33 726.297 1454.33 Q724.098 1454.33 721.644 1455.09 Q719.214 1455.86 716.436 1457.41 L716.436 1452.69 Q719.26 1451.55 721.714 1450.97 Q724.167 1450.39 726.204 1450.39 Q731.575 1450.39 734.769 1453.08 Q737.964 1455.77 737.964 1460.26 Q737.964 1462.39 737.153 1464.31 Q736.366 1466.2 734.26 1468.8 Q733.681 1469.47 730.579 1472.69 Q727.478 1475.88 721.829 1481.64 Z" fill="#000000" fill-rule="nonzero" fill-opacity="1" /><path clip-path="url(#clip640)" d="M757.963 1454.1 Q754.352 1454.1 752.524 1457.66 Q750.718 1461.2 750.718 1468.33 Q750.718 1475.44 752.524 1479.01 Q754.352 1482.55 757.963 1482.55 Q761.598 1482.55 763.403 1479.01 Q765.232 1475.44 765.232 1468.33 Q765.232 1461.2 763.403 1457.66 Q761.598 1454.1 757.963 1454.1 M757.963 1450.39 Q763.774 1450.39 766.829 1455 Q769.908 1459.58 769.908 1468.33 Q769.908 1477.06 766.829 1481.67 Q763.774 1486.25 757.963 1486.25 Q752.153 1486.25 749.075 1481.67 Q746.019 1477.06 746.019 1468.33 Q746.019 1459.58 749.075 1455 Q752.153 1450.39 757.963 1450.39 Z" fill="#000000" fill-rule="nonzero" fill-opacity="1" /><path clip-path="url(#clip640)" d="M788.125 1454.1 Q784.514 1454.1 782.686 1457.66 Q780.88 1461.2 780.88 1468.33 Q780.88 1475.44 782.686 1479.01 Q784.514 1482.55 788.125 1482.55 Q791.76 1482.55 793.565 1479.01 Q795.394 1475.44 795.394 1468.33 Q795.394 1461.2 793.565 1457.66 Q791.76 1454.1 788.125 1454.1 M788.125 1450.39 Q793.935 1450.39 796.991 1455 Q800.07 1459.58 800.07 1468.33 Q800.07 1477.06 796.991 1481.67 Q793.935 1486.25 788.125 1486.25 Q782.315 1486.25 779.236 1481.67 Q776.181 1477.06 776.181 1468.33 Q776.181 1459.58 779.236 1455 Q782.315 1450.39 788.125 1450.39 Z" fill="#000000" fill-rule="nonzero" fill-opacity="1" /><path clip-path="url(#clip640)" d="M1116.03 1455.09 L1104.22 1473.54 L1116.03 1473.54 L1116.03 1455.09 M1114.8 1451.02 L1120.68 1451.02 L1120.68 1473.54 L1125.61 1473.54 L1125.61 1477.43 L1120.68 1477.43 L1120.68 1485.58 L1116.03 1485.58 L1116.03 1477.43 L1100.43 1477.43 L1100.43 1472.92 L1114.8 1451.02 Z" fill="#000000" fill-rule="nonzero" fill-opacity="1" /><path clip-path="url(#clip640)" d="M1143.34 1454.1 Q1139.73 1454.1 1137.9 1457.66 Q1136.1 1461.2 1136.1 1468.33 Q1136.1 1475.44 1137.9 1479.01 Q1139.73 1482.55 1143.34 1482.55 Q1146.98 1482.55 1148.78 1479.01 Q1150.61 1475.44 1150.61 1468.33 Q1150.61 1461.2 1148.78 1457.66 Q1146.98 1454.1 1143.34 1454.1 M1143.34 1450.39 Q1149.15 1450.39 1152.21 1455 Q1155.29 1459.58 1155.29 1468.33 Q1155.29 1477.06 1152.21 1481.67 Q1149.15 1486.25 1143.34 1486.25 Q1137.53 1486.25 1134.46 1481.67 Q1131.4 1477.06 1131.4 1468.33 Q1131.4 1459.58 1134.46 1455 Q1137.53 1450.39 1143.34 1450.39 Z" fill="#000000" fill-rule="nonzero" fill-opacity="1" /><path clip-path="url(#clip640)" d="M1173.51 1454.1 Q1169.89 1454.1 1168.07 1457.66 Q1166.26 1461.2 1166.26 1468.33 Q1166.26 1475.44 1168.07 1479.01 Q1169.89 1482.55 1173.51 1482.55 Q1177.14 1482.55 1178.95 1479.01 Q1180.77 1475.44 1180.77 1468.33 Q1180.77 1461.2 1178.95 1457.66 Q1177.14 1454.1 1173.51 1454.1 M1173.51 1450.39 Q1179.32 1450.39 1182.37 1455 Q1185.45 1459.58 1185.45 1468.33 Q1185.45 1477.06 1182.37 1481.67 Q1179.32 1486.25 1173.51 1486.25 Q1167.7 1486.25 1164.62 1481.67 Q1161.56 1477.06 1161.56 1468.33 Q1161.56 1459.58 1164.62 1455 Q1167.7 1450.39 1173.51 1450.39 Z" fill="#000000" fill-rule="nonzero" fill-opacity="1" /><path clip-path="url(#clip640)" d="M1498.06 1466.44 Q1494.92 1466.44 1493.07 1468.59 Q1491.24 1470.74 1491.24 1474.49 Q1491.24 1478.22 1493.07 1480.39 Q1494.92 1482.55 1498.06 1482.55 Q1501.21 1482.55 1503.04 1480.39 Q1504.89 1478.22 1504.89 1474.49 Q1504.89 1470.74 1503.04 1468.59 Q1501.21 1466.44 1498.06 1466.44 M1507.35 1451.78 L1507.35 1456.04 Q1505.59 1455.21 1503.78 1454.77 Q1502 1454.33 1500.24 1454.33 Q1495.61 1454.33 1493.16 1457.45 Q1490.73 1460.58 1490.38 1466.9 Q1491.75 1464.89 1493.81 1463.82 Q1495.87 1462.73 1498.34 1462.73 Q1503.55 1462.73 1506.56 1465.9 Q1509.59 1469.05 1509.59 1474.49 Q1509.59 1479.82 1506.44 1483.03 Q1503.3 1486.25 1498.06 1486.25 Q1492.07 1486.25 1488.9 1481.67 Q1485.73 1477.06 1485.73 1468.33 Q1485.73 1460.14 1489.62 1455.28 Q1493.5 1450.39 1500.06 1450.39 Q1501.81 1450.39 1503.6 1450.74 Q1505.4 1451.09 1507.35 1451.78 Z" fill="#000000" fill-rule="nonzero" fill-opacity="1" /><path clip-path="url(#clip640)" d="M1527.65 1454.1 Q1524.04 1454.1 1522.21 1457.66 Q1520.4 1461.2 1520.4 1468.33 Q1520.4 1475.44 1522.21 1479.01 Q1524.04 1482.55 1527.65 1482.55 Q1531.28 1482.55 1533.09 1479.01 Q1534.92 1475.44 1534.92 1468.33 Q1534.92 1461.2 1533.09 1457.66 Q1531.28 1454.1 1527.65 1454.1 M1527.65 1450.39 Q1533.46 1450.39 1536.51 1455 Q1539.59 1459.58 1539.59 1468.33 Q1539.59 1477.06 1536.51 1481.67 Q1533.46 1486.25 1527.65 1486.25 Q1521.84 1486.25 1518.76 1481.67 Q1515.7 1477.06 1515.7 1468.33 Q1515.7 1459.58 1518.76 1455 Q1521.84 1450.39 1527.65 1450.39 Z" fill="#000000" fill-rule="nonzero" fill-opacity="1" /><path clip-path="url(#clip640)" d="M1557.81 1454.1 Q1554.2 1454.1 1552.37 1457.66 Q1550.56 1461.2 1550.56 1468.33 Q1550.56 1475.44 1552.37 1479.01 Q1554.2 1482.55 1557.81 1482.55 Q1561.44 1482.55 1563.25 1479.01 Q1565.08 1475.44 1565.08 1468.33 Q1565.08 1461.2 1563.25 1457.66 Q1561.44 1454.1 1557.81 1454.1 M1557.81 1450.39 Q1563.62 1450.39 1566.68 1455 Q1569.75 1459.58 1569.75 1468.33 Q1569.75 1477.06 1566.68 1481.67 Q1563.62 1486.25 1557.81 1486.25 Q1552 1486.25 1548.92 1481.67 Q1545.87 1477.06 1545.87 1468.33 Q1545.87 1459.58 1548.92 1455 Q1552 1450.39 1557.81 1450.39 Z" fill="#000000" fill-rule="nonzero" fill-opacity="1" /><path clip-path="url(#clip640)" d="M1882.33 1469.17 Q1879 1469.17 1877.08 1470.95 Q1875.18 1472.73 1875.18 1475.86 Q1875.18 1478.98 1877.08 1480.77 Q1879 1482.55 1882.33 1482.55 Q1885.67 1482.55 1887.59 1480.77 Q1889.51 1478.96 1889.51 1475.86 Q1889.51 1472.73 1887.59 1470.95 Q1885.69 1469.17 1882.33 1469.17 M1877.66 1467.18 Q1874.65 1466.44 1872.96 1464.38 Q1871.29 1462.32 1871.29 1459.35 Q1871.29 1455.21 1874.23 1452.8 Q1877.2 1450.39 1882.33 1450.39 Q1887.5 1450.39 1890.44 1452.8 Q1893.38 1455.21 1893.38 1459.35 Q1893.38 1462.32 1891.69 1464.38 Q1890.02 1466.44 1887.03 1467.18 Q1890.41 1467.96 1892.29 1470.26 Q1894.19 1472.55 1894.19 1475.86 Q1894.19 1480.88 1891.11 1483.57 Q1888.05 1486.25 1882.33 1486.25 Q1876.62 1486.25 1873.54 1483.57 Q1870.48 1480.88 1870.48 1475.86 Q1870.48 1472.55 1872.38 1470.26 Q1874.28 1467.96 1877.66 1467.18 M1875.95 1459.79 Q1875.95 1462.48 1877.61 1463.98 Q1879.3 1465.49 1882.33 1465.49 Q1885.34 1465.49 1887.03 1463.98 Q1888.75 1462.48 1888.75 1459.79 Q1888.75 1457.11 1887.03 1455.6 Q1885.34 1454.1 1882.33 1454.1 Q1879.3 1454.1 1877.61 1455.6 Q1875.95 1457.11 1875.95 1459.79 Z" fill="#000000" fill-rule="nonzero" fill-opacity="1" /><path clip-path="url(#clip640)" d="M1912.5 1454.1 Q1908.89 1454.1 1907.06 1457.66 Q1905.25 1461.2 1905.25 1468.33 Q1905.25 1475.44 1907.06 1479.01 Q1908.89 1482.55 1912.5 1482.55 Q1916.13 1482.55 1917.94 1479.01 Q1919.76 1475.44 1919.76 1468.33 Q1919.76 1461.2 1917.94 1457.66 Q1916.13 1454.1 1912.5 1454.1 M1912.5 1450.39 Q1918.31 1450.39 1921.36 1455 Q1924.44 1459.58 1924.44 1468.33 Q1924.44 1477.06 1921.36 1481.67 Q1918.31 1486.25 1912.5 1486.25 Q1906.69 1486.25 1903.61 1481.67 Q1900.55 1477.06 1900.55 1468.33 Q1900.55 1459.58 1903.61 1455 Q1906.69 1450.39 1912.5 1450.39 Z" fill="#000000" fill-rule="nonzero" fill-opacity="1" /><path clip-path="url(#clip640)" d="M1942.66 1454.1 Q1939.05 1454.1 1937.22 1457.66 Q1935.41 1461.2 1935.41 1468.33 Q1935.41 1475.44 1937.22 1479.01 Q1939.05 1482.55 1942.66 1482.55 Q1946.29 1482.55 1948.1 1479.01 Q1949.93 1475.44 1949.93 1468.33 Q1949.93 1461.2 1948.1 1457.66 Q1946.29 1454.1 1942.66 1454.1 M1942.66 1450.39 Q1948.47 1450.39 1951.52 1455 Q1954.6 1459.58 1954.6 1468.33 Q1954.6 1477.06 1951.52 1481.67 Q1948.47 1486.25 1942.66 1486.25 Q1936.85 1486.25 1933.77 1481.67 Q1930.71 1477.06 1930.71 1468.33 Q1930.71 1459.58 1933.77 1455 Q1936.85 1450.39 1942.66 1450.39 Z" fill="#000000" fill-rule="nonzero" fill-opacity="1" /><path clip-path="url(#clip640)" d="M2241.87 1481.64 L2249.51 1481.64 L2249.51 1455.28 L2241.2 1456.95 L2241.2 1452.69 L2249.46 1451.02 L2254.14 1451.02 L2254.14 1481.64 L2261.78 1481.64 L2261.78 1485.58 L2241.87 1485.58 L2241.87 1481.64 Z" fill="#000000" fill-rule="nonzero" fill-opacity="1" /><path clip-path="url(#clip640)" d="M2281.22 1454.1 Q2277.61 1454.1 2275.78 1457.66 Q2273.98 1461.2 2273.98 1468.33 Q2273.98 1475.44 2275.78 1479.01 Q2277.61 1482.55 2281.22 1482.55 Q2284.86 1482.55 2286.66 1479.01 Q2288.49 1475.44 2288.49 1468.33 Q2288.49 1461.2 2286.66 1457.66 Q2284.86 1454.1 2281.22 1454.1 M2281.22 1450.39 Q2287.03 1450.39 2290.09 1455 Q2293.17 1459.58 2293.17 1468.33 Q2293.17 1477.06 2290.09 1481.67 Q2287.03 1486.25 2281.22 1486.25 Q2275.41 1486.25 2272.33 1481.67 Q2269.28 1477.06 2269.28 1468.33 Q2269.28 1459.58 2272.33 1455 Q2275.41 1450.39 2281.22 1450.39 Z" fill="#000000" fill-rule="nonzero" fill-opacity="1" /><path clip-path="url(#clip640)" d="M2311.38 1454.1 Q2307.77 1454.1 2305.94 1457.66 Q2304.14 1461.2 2304.14 1468.33 Q2304.14 1475.44 2305.94 1479.01 Q2307.77 1482.55 2311.38 1482.55 Q2315.02 1482.55 2316.82 1479.01 Q2318.65 1475.44 2318.65 1468.33 Q2318.65 1461.2 2316.82 1457.66 Q2315.02 1454.1 2311.38 1454.1 M2311.38 1450.39 Q2317.19 1450.39 2320.25 1455 Q2323.33 1459.58 2323.33 1468.33 Q2323.33 1477.06 2320.25 1481.67 Q2317.19 1486.25 2311.38 1486.25 Q2305.57 1486.25 2302.49 1481.67 Q2299.44 1477.06 2299.44 1468.33 Q2299.44 1459.58 2302.49 1455 Q2305.57 1450.39 2311.38 1450.39 Z" fill="#000000" fill-rule="nonzero" fill-opacity="1" /><path clip-path="url(#clip640)" d="M2341.55 1454.1 Q2337.93 1454.1 2336.11 1457.66 Q2334.3 1461.2 2334.3 1468.33 Q2334.3 1475.44 2336.11 1479.01 Q2337.93 1482.55 2341.55 1482.55 Q2345.18 1482.55 2346.99 1479.01 Q2348.81 1475.44 2348.81 1468.33 Q2348.81 1461.2 2346.99 1457.66 Q2345.18 1454.1 2341.55 1454.1 M2341.55 1450.39 Q2347.36 1450.39 2350.41 1455 Q2353.49 1459.58 2353.49 1468.33 Q2353.49 1477.06 2350.41 1481.67 Q2347.36 1486.25 2341.55 1486.25 Q2335.74 1486.25 2332.66 1481.67 Q2329.6 1477.06 2329.6 1468.33 Q2329.6 1459.58 2332.66 1455 Q2335.74 1450.39 2341.55 1450.39 Z" fill="#000000" fill-rule="nonzero" fill-opacity="1" /><path clip-path="url(#clip640)" d="M1370.89 1518.52 L1376.75 1518.52 L1376.75 1568.04 L1370.89 1568.04 L1370.89 1518.52 Z" fill="#000000" fill-rule="nonzero" fill-opacity="1" /><polyline clip-path="url(#clip640)" style="stroke:#000000; stroke-linecap:round; stroke-linejoin:round; stroke-width:4; stroke-opacity:1; fill:none" points="394.884,1423.18 394.884,47.2441 "/>
<polyline clip-path="url(#clip640)" style="stroke:#000000; stroke-linecap:round; stroke-linejoin:round; stroke-width:4; stroke-opacity:1; fill:none" points="394.884,1274.23 413.782,1274.23 "/>
<polyline clip-path="url(#clip640)" style="stroke:#000000; stroke-linecap:round; stroke-linejoin:round; stroke-width:4; stroke-opacity:1; fill:none" points="394.884,1097.17 413.782,1097.17 "/>
<polyline clip-path="url(#clip640)" style="stroke:#000000; stroke-linecap:round; stroke-linejoin:round; stroke-width:4; stroke-opacity:1; fill:none" points="394.884,920.118 413.782,920.118 "/>
<polyline clip-path="url(#clip640)" style="stroke:#000000; stroke-linecap:round; stroke-linejoin:round; stroke-width:4; stroke-opacity:1; fill:none" points="394.884,743.063 413.782,743.063 "/>
<polyline clip-path="url(#clip640)" style="stroke:#000000; stroke-linecap:round; stroke-linejoin:round; stroke-width:4; stroke-opacity:1; fill:none" points="394.884,566.007 413.782,566.007 "/>
<polyline clip-path="url(#clip640)" style="stroke:#000000; stroke-linecap:round; stroke-linejoin:round; stroke-width:4; stroke-opacity:1; fill:none" points="394.884,388.951 413.782,388.951 "/>
<polyline clip-path="url(#clip640)" style="stroke:#000000; stroke-linecap:round; stroke-linejoin:round; stroke-width:4; stroke-opacity:1; fill:none" points="394.884,211.896 413.782,211.896 "/>
<path clip-path="url(#clip640)" d="M121.043 1294.02 L137.362 1294.02 L137.362 1297.96 L115.418 1297.96 L115.418 1294.02 Q118.08 1291.27 122.663 1286.64 Q127.269 1281.98 128.45 1280.64 Q130.695 1278.12 131.575 1276.38 Q132.478 1274.62 132.478 1272.93 Q132.478 1270.18 130.533 1268.44 Q128.612 1266.71 125.51 1266.71 Q123.311 1266.71 120.857 1267.47 Q118.427 1268.23 115.649 1269.79 L115.649 1265.06 Q118.473 1263.93 120.927 1263.35 Q123.38 1262.77 125.418 1262.77 Q130.788 1262.77 133.982 1265.46 Q137.177 1268.14 137.177 1272.63 Q137.177 1274.76 136.367 1276.68 Q135.579 1278.58 133.473 1281.17 Q132.894 1281.85 129.792 1285.06 Q126.691 1288.26 121.043 1294.02 Z" fill="#000000" fill-rule="nonzero" fill-opacity="1" /><path clip-path="url(#clip640)" d="M147.177 1292.08 L152.061 1292.08 L152.061 1297.96 L147.177 1297.96 L147.177 1292.08 Z" fill="#000000" fill-rule="nonzero" fill-opacity="1" /><path clip-path="url(#clip640)" d="M172.246 1266.48 Q168.635 1266.48 166.806 1270.04 Q165.001 1273.58 165.001 1280.71 Q165.001 1287.82 166.806 1291.38 Q168.635 1294.92 172.246 1294.92 Q175.88 1294.92 177.686 1291.38 Q179.514 1287.82 179.514 1280.71 Q179.514 1273.58 177.686 1270.04 Q175.88 1266.48 172.246 1266.48 M172.246 1262.77 Q178.056 1262.77 181.112 1267.38 Q184.19 1271.96 184.19 1280.71 Q184.19 1289.44 181.112 1294.05 Q178.056 1298.63 172.246 1298.63 Q166.436 1298.63 163.357 1294.05 Q160.302 1289.44 160.302 1280.71 Q160.302 1271.96 163.357 1267.38 Q166.436 1262.77 172.246 1262.77 Z" fill="#000000" fill-rule="nonzero" fill-opacity="1" /><path clip-path="url(#clip640)" d="M220.579 1272.49 L210 1283.12 L220.579 1293.7 L217.824 1296.5 L207.199 1285.87 L196.575 1296.5 L193.843 1293.7 L204.399 1283.12 L193.843 1272.49 L196.575 1269.69 L207.199 1280.32 L217.824 1269.69 L220.579 1272.49 Z" fill="#000000" fill-rule="nonzero" fill-opacity="1" /><path clip-path="url(#clip640)" d="M232.94 1294.02 L240.579 1294.02 L240.579 1267.66 L232.269 1269.32 L232.269 1265.06 L240.533 1263.4 L245.209 1263.4 L245.209 1294.02 L252.847 1294.02 L252.847 1297.96 L232.94 1297.96 L232.94 1294.02 Z" fill="#000000" fill-rule="nonzero" fill-opacity="1" /><path clip-path="url(#clip640)" d="M272.292 1266.48 Q268.681 1266.48 266.852 1270.04 Q265.046 1273.58 265.046 1280.71 Q265.046 1287.82 266.852 1291.38 Q268.681 1294.92 272.292 1294.92 Q275.926 1294.92 277.732 1291.38 Q279.56 1287.82 279.56 1280.71 Q279.56 1273.58 277.732 1270.04 Q275.926 1266.48 272.292 1266.48 M272.292 1262.77 Q278.102 1262.77 281.157 1267.38 Q284.236 1271.96 284.236 1280.71 Q284.236 1289.44 281.157 1294.05 Q278.102 1298.63 272.292 1298.63 Q266.482 1298.63 263.403 1294.05 Q260.347 1289.44 260.347 1280.71 Q260.347 1271.96 263.403 1267.38 Q266.482 1262.77 272.292 1262.77 Z" fill="#000000" fill-rule="nonzero" fill-opacity="1" /><path clip-path="url(#clip640)" d="M284.236 1256.87 L308.348 1256.87 L308.348 1260.07 L284.236 1260.07 L284.236 1256.87 Z" fill="#000000" fill-rule="nonzero" fill-opacity="1" /><path clip-path="url(#clip640)" d="M317.206 1267.35 L323.413 1267.35 L323.413 1245.93 L316.661 1247.28 L316.661 1243.82 L323.375 1242.47 L327.174 1242.47 L327.174 1267.35 L333.381 1267.35 L333.381 1270.55 L317.206 1270.55 L317.206 1267.35 Z" fill="#000000" fill-rule="nonzero" fill-opacity="1" /><path clip-path="url(#clip640)" d="M349.179 1244.97 Q346.245 1244.97 344.76 1247.86 Q343.292 1250.74 343.292 1256.53 Q343.292 1262.31 344.76 1265.21 Q346.245 1268.08 349.179 1268.08 Q352.132 1268.08 353.599 1265.21 Q355.085 1262.31 355.085 1256.53 Q355.085 1250.74 353.599 1247.86 Q352.132 1244.97 349.179 1244.97 M349.179 1241.96 Q353.9 1241.96 356.383 1245.7 Q358.884 1249.43 358.884 1256.53 Q358.884 1263.63 356.383 1267.37 Q353.9 1271.09 349.179 1271.09 Q344.459 1271.09 341.957 1267.37 Q339.475 1263.63 339.475 1256.53 Q339.475 1249.43 341.957 1245.7 Q344.459 1241.96 349.179 1241.96 Z" fill="#000000" fill-rule="nonzero" fill-opacity="1" /><path clip-path="url(#clip640)" d="M131.181 1102.27 Q134.538 1102.98 136.413 1105.25 Q138.311 1107.52 138.311 1110.86 Q138.311 1115.97 134.792 1118.77 Q131.274 1121.57 124.793 1121.57 Q122.617 1121.57 120.302 1121.13 Q118.01 1120.72 115.556 1119.86 L115.556 1115.35 Q117.501 1116.48 119.816 1117.06 Q122.13 1117.64 124.654 1117.64 Q129.052 1117.64 131.343 1115.9 Q133.658 1114.17 133.658 1110.86 Q133.658 1107.8 131.505 1106.09 Q129.376 1104.35 125.556 1104.35 L121.529 1104.35 L121.529 1100.51 L125.742 1100.51 Q129.191 1100.51 131.019 1099.14 Q132.848 1097.75 132.848 1095.16 Q132.848 1092.5 130.95 1091.09 Q129.075 1089.65 125.556 1089.65 Q123.635 1089.65 121.436 1090.07 Q119.237 1090.48 116.598 1091.36 L116.598 1087.2 Q119.26 1086.46 121.575 1086.09 Q123.913 1085.72 125.973 1085.72 Q131.297 1085.72 134.399 1088.15 Q137.501 1090.55 137.501 1094.67 Q137.501 1097.55 135.857 1099.54 Q134.214 1101.5 131.181 1102.27 Z" fill="#000000" fill-rule="nonzero" fill-opacity="1" /><path clip-path="url(#clip640)" d="M147.177 1115.02 L152.061 1115.02 L152.061 1120.9 L147.177 1120.9 L147.177 1115.02 Z" fill="#000000" fill-rule="nonzero" fill-opacity="1" /><path clip-path="url(#clip640)" d="M172.246 1089.42 Q168.635 1089.42 166.806 1092.98 Q165.001 1096.53 165.001 1103.66 Q165.001 1110.76 166.806 1114.33 Q168.635 1117.87 172.246 1117.87 Q175.88 1117.87 177.686 1114.33 Q179.514 1110.76 179.514 1103.66 Q179.514 1096.53 177.686 1092.98 Q175.88 1089.42 172.246 1089.42 M172.246 1085.72 Q178.056 1085.72 181.112 1090.32 Q184.19 1094.91 184.19 1103.66 Q184.19 1112.38 181.112 1116.99 Q178.056 1121.57 172.246 1121.57 Q166.436 1121.57 163.357 1116.99 Q160.302 1112.38 160.302 1103.66 Q160.302 1094.91 163.357 1090.32 Q166.436 1085.72 172.246 1085.72 Z" fill="#000000" fill-rule="nonzero" fill-opacity="1" /><path clip-path="url(#clip640)" d="M220.579 1095.44 L210 1106.06 L220.579 1116.64 L217.824 1119.44 L207.199 1108.82 L196.575 1119.44 L193.843 1116.64 L204.399 1106.06 L193.843 1095.44 L196.575 1092.64 L207.199 1103.26 L217.824 1092.64 L220.579 1095.44 Z" fill="#000000" fill-rule="nonzero" fill-opacity="1" /><path clip-path="url(#clip640)" d="M232.94 1116.97 L240.579 1116.97 L240.579 1090.6 L232.269 1092.27 L232.269 1088.01 L240.533 1086.34 L245.209 1086.34 L245.209 1116.97 L252.847 1116.97 L252.847 1120.9 L232.94 1120.9 L232.94 1116.97 Z" fill="#000000" fill-rule="nonzero" fill-opacity="1" /><path clip-path="url(#clip640)" d="M272.292 1089.42 Q268.681 1089.42 266.852 1092.98 Q265.046 1096.53 265.046 1103.66 Q265.046 1110.76 266.852 1114.33 Q268.681 1117.87 272.292 1117.87 Q275.926 1117.87 277.732 1114.33 Q279.56 1110.76 279.56 1103.66 Q279.56 1096.53 277.732 1092.98 Q275.926 1089.42 272.292 1089.42 M272.292 1085.72 Q278.102 1085.72 281.157 1090.32 Q284.236 1094.91 284.236 1103.66 Q284.236 1112.38 281.157 1116.99 Q278.102 1121.57 272.292 1121.57 Q266.482 1121.57 263.403 1116.99 Q260.347 1112.38 260.347 1103.66 Q260.347 1094.91 263.403 1090.32 Q266.482 1085.72 272.292 1085.72 Z" fill="#000000" fill-rule="nonzero" fill-opacity="1" /><path clip-path="url(#clip640)" d="M284.236 1079.82 L308.348 1079.82 L308.348 1083.02 L284.236 1083.02 L284.236 1079.82 Z" fill="#000000" fill-rule="nonzero" fill-opacity="1" /><path clip-path="url(#clip640)" d="M317.206 1090.29 L323.413 1090.29 L323.413 1068.87 L316.661 1070.23 L316.661 1066.77 L323.375 1065.41 L327.174 1065.41 L327.174 1090.29 L333.381 1090.29 L333.381 1093.49 L317.206 1093.49 L317.206 1090.29 Z" fill="#000000" fill-rule="nonzero" fill-opacity="1" /><path clip-path="url(#clip640)" d="M349.179 1067.91 Q346.245 1067.91 344.76 1070.81 Q343.292 1073.69 343.292 1079.48 Q343.292 1085.25 344.76 1088.15 Q346.245 1091.03 349.179 1091.03 Q352.132 1091.03 353.599 1088.15 Q355.085 1085.25 355.085 1079.48 Q355.085 1073.69 353.599 1070.81 Q352.132 1067.91 349.179 1067.91 M349.179 1064.9 Q353.9 1064.9 356.383 1068.65 Q358.884 1072.37 358.884 1079.48 Q358.884 1086.57 356.383 1090.31 Q353.9 1094.04 349.179 1094.04 Q344.459 1094.04 341.957 1090.31 Q339.475 1086.57 339.475 1079.48 Q339.475 1072.37 341.957 1068.65 Q344.459 1064.9 349.179 1064.9 Z" fill="#000000" fill-rule="nonzero" fill-opacity="1" /><path clip-path="url(#clip640)" d="M129.862 913.36 L118.056 931.809 L129.862 931.809 L129.862 913.36 M128.635 909.286 L134.515 909.286 L134.515 931.809 L139.445 931.809 L139.445 935.698 L134.515 935.698 L134.515 943.846 L129.862 943.846 L129.862 935.698 L114.26 935.698 L114.26 931.184 L128.635 909.286 Z" fill="#000000" fill-rule="nonzero" fill-opacity="1" /><path clip-path="url(#clip640)" d="M147.177 937.966 L152.061 937.966 L152.061 943.846 L147.177 943.846 L147.177 937.966 Z" fill="#000000" fill-rule="nonzero" fill-opacity="1" /><path clip-path="url(#clip640)" d="M172.246 912.364 Q168.635 912.364 166.806 915.929 Q165.001 919.471 165.001 926.601 Q165.001 933.707 166.806 937.272 Q168.635 940.813 172.246 940.813 Q175.88 940.813 177.686 937.272 Q179.514 933.707 179.514 926.601 Q179.514 919.471 177.686 915.929 Q175.88 912.364 172.246 912.364 M172.246 908.661 Q178.056 908.661 181.112 913.267 Q184.19 917.851 184.19 926.601 Q184.19 935.327 181.112 939.934 Q178.056 944.517 172.246 944.517 Q166.436 944.517 163.357 939.934 Q160.302 935.327 160.302 926.601 Q160.302 917.851 163.357 913.267 Q166.436 908.661 172.246 908.661 Z" fill="#000000" fill-rule="nonzero" fill-opacity="1" /><path clip-path="url(#clip640)" d="M220.579 918.383 L210 929.008 L220.579 939.587 L217.824 942.387 L207.199 931.763 L196.575 942.387 L193.843 939.587 L204.399 929.008 L193.843 918.383 L196.575 915.582 L207.199 926.207 L217.824 915.582 L220.579 918.383 Z" fill="#000000" fill-rule="nonzero" fill-opacity="1" /><path clip-path="url(#clip640)" d="M232.94 939.911 L240.579 939.911 L240.579 913.545 L232.269 915.212 L232.269 910.952 L240.533 909.286 L245.209 909.286 L245.209 939.911 L252.847 939.911 L252.847 943.846 L232.94 943.846 L232.94 939.911 Z" fill="#000000" fill-rule="nonzero" fill-opacity="1" /><path clip-path="url(#clip640)" d="M272.292 912.364 Q268.681 912.364 266.852 915.929 Q265.046 919.471 265.046 926.601 Q265.046 933.707 266.852 937.272 Q268.681 940.813 272.292 940.813 Q275.926 940.813 277.732 937.272 Q279.56 933.707 279.56 926.601 Q279.56 919.471 277.732 915.929 Q275.926 912.364 272.292 912.364 M272.292 908.661 Q278.102 908.661 281.157 913.267 Q284.236 917.851 284.236 926.601 Q284.236 935.327 281.157 939.934 Q278.102 944.517 272.292 944.517 Q266.482 944.517 263.403 939.934 Q260.347 935.327 260.347 926.601 Q260.347 917.851 263.403 913.267 Q266.482 908.661 272.292 908.661 Z" fill="#000000" fill-rule="nonzero" fill-opacity="1" /><path clip-path="url(#clip640)" d="M284.236 902.762 L308.348 902.762 L308.348 905.959 L284.236 905.959 L284.236 902.762 Z" fill="#000000" fill-rule="nonzero" fill-opacity="1" /><path clip-path="url(#clip640)" d="M317.206 913.238 L323.413 913.238 L323.413 891.816 L316.661 893.17 L316.661 889.71 L323.375 888.355 L327.174 888.355 L327.174 913.238 L333.381 913.238 L333.381 916.435 L317.206 916.435 L317.206 913.238 Z" fill="#000000" fill-rule="nonzero" fill-opacity="1" /><path clip-path="url(#clip640)" d="M349.179 890.857 Q346.245 890.857 344.76 893.753 Q343.292 896.631 343.292 902.424 Q343.292 908.198 344.76 911.094 Q346.245 913.972 349.179 913.972 Q352.132 913.972 353.599 911.094 Q355.085 908.198 355.085 902.424 Q355.085 896.631 353.599 893.753 Q352.132 890.857 349.179 890.857 M349.179 887.848 Q353.9 887.848 356.383 891.59 Q358.884 895.314 358.884 902.424 Q358.884 909.514 356.383 913.257 Q353.9 916.981 349.179 916.981 Q344.459 916.981 341.957 913.257 Q339.475 909.514 339.475 902.424 Q339.475 895.314 341.957 891.59 Q344.459 887.848 349.179 887.848 Z" fill="#000000" fill-rule="nonzero" fill-opacity="1" /><path clip-path="url(#clip640)" d="M117.061 732.23 L135.417 732.23 L135.417 736.165 L121.343 736.165 L121.343 744.637 Q122.362 744.29 123.38 744.128 Q124.399 743.943 125.418 743.943 Q131.205 743.943 134.584 747.114 Q137.964 750.286 137.964 755.702 Q137.964 761.281 134.492 764.383 Q131.019 767.461 124.7 767.461 Q122.524 767.461 120.255 767.091 Q118.01 766.721 115.603 765.98 L115.603 761.281 Q117.686 762.415 119.908 762.971 Q122.13 763.526 124.607 763.526 Q128.612 763.526 130.95 761.42 Q133.288 759.313 133.288 755.702 Q133.288 752.091 130.95 749.985 Q128.612 747.878 124.607 747.878 Q122.732 747.878 120.857 748.295 Q119.006 748.712 117.061 749.591 L117.061 732.23 Z" fill="#000000" fill-rule="nonzero" fill-opacity="1" /><path clip-path="url(#clip640)" d="M147.177 760.911 L152.061 760.911 L152.061 766.79 L147.177 766.79 L147.177 760.911 Z" fill="#000000" fill-rule="nonzero" fill-opacity="1" /><path clip-path="url(#clip640)" d="M172.246 735.309 Q168.635 735.309 166.806 738.874 Q165.001 742.415 165.001 749.545 Q165.001 756.651 166.806 760.216 Q168.635 763.758 172.246 763.758 Q175.88 763.758 177.686 760.216 Q179.514 756.651 179.514 749.545 Q179.514 742.415 177.686 738.874 Q175.88 735.309 172.246 735.309 M172.246 731.605 Q178.056 731.605 181.112 736.212 Q184.19 740.795 184.19 749.545 Q184.19 758.272 181.112 762.878 Q178.056 767.461 172.246 767.461 Q166.436 767.461 163.357 762.878 Q160.302 758.272 160.302 749.545 Q160.302 740.795 163.357 736.212 Q166.436 731.605 172.246 731.605 Z" fill="#000000" fill-rule="nonzero" fill-opacity="1" /><path clip-path="url(#clip640)" d="M220.579 741.327 L210 751.952 L220.579 762.531 L217.824 765.332 L207.199 754.707 L196.575 765.332 L193.843 762.531 L204.399 751.952 L193.843 741.327 L196.575 738.526 L207.199 749.151 L217.824 738.526 L220.579 741.327 Z" fill="#000000" fill-rule="nonzero" fill-opacity="1" /><path clip-path="url(#clip640)" d="M232.94 762.855 L240.579 762.855 L240.579 736.489 L232.269 738.156 L232.269 733.897 L240.533 732.23 L245.209 732.23 L245.209 762.855 L252.847 762.855 L252.847 766.79 L232.94 766.79 L232.94 762.855 Z" fill="#000000" fill-rule="nonzero" fill-opacity="1" /><path clip-path="url(#clip640)" d="M272.292 735.309 Q268.681 735.309 266.852 738.874 Q265.046 742.415 265.046 749.545 Q265.046 756.651 266.852 760.216 Q268.681 763.758 272.292 763.758 Q275.926 763.758 277.732 760.216 Q279.56 756.651 279.56 749.545 Q279.56 742.415 277.732 738.874 Q275.926 735.309 272.292 735.309 M272.292 731.605 Q278.102 731.605 281.157 736.212 Q284.236 740.795 284.236 749.545 Q284.236 758.272 281.157 762.878 Q278.102 767.461 272.292 767.461 Q266.482 767.461 263.403 762.878 Q260.347 758.272 260.347 749.545 Q260.347 740.795 263.403 736.212 Q266.482 731.605 272.292 731.605 Z" fill="#000000" fill-rule="nonzero" fill-opacity="1" /><path clip-path="url(#clip640)" d="M284.236 725.707 L308.348 725.707 L308.348 728.904 L284.236 728.904 L284.236 725.707 Z" fill="#000000" fill-rule="nonzero" fill-opacity="1" /><path clip-path="url(#clip640)" d="M317.206 736.182 L323.413 736.182 L323.413 714.76 L316.661 716.115 L316.661 712.654 L323.375 711.3 L327.174 711.3 L327.174 736.182 L333.381 736.182 L333.381 739.38 L317.206 739.38 L317.206 736.182 Z" fill="#000000" fill-rule="nonzero" fill-opacity="1" /><path clip-path="url(#clip640)" d="M349.179 713.801 Q346.245 713.801 344.76 716.698 Q343.292 719.575 343.292 725.368 Q343.292 731.142 344.76 734.038 Q346.245 736.916 349.179 736.916 Q352.132 736.916 353.599 734.038 Q355.085 731.142 355.085 725.368 Q355.085 719.575 353.599 716.698 Q352.132 713.801 349.179 713.801 M349.179 710.792 Q353.9 710.792 356.383 714.535 Q358.884 718.259 358.884 725.368 Q358.884 732.458 356.383 736.201 Q353.9 739.925 349.179 739.925 Q344.459 739.925 341.957 736.201 Q339.475 732.458 339.475 725.368 Q339.475 718.259 341.957 714.535 Q344.459 710.792 349.179 710.792 Z" fill="#000000" fill-rule="nonzero" fill-opacity="1" /><path clip-path="url(#clip640)" d="M127.593 570.591 Q124.445 570.591 122.593 572.744 Q120.765 574.897 120.765 578.647 Q120.765 582.373 122.593 584.549 Q124.445 586.702 127.593 586.702 Q130.742 586.702 132.57 584.549 Q134.422 582.373 134.422 578.647 Q134.422 574.897 132.57 572.744 Q130.742 570.591 127.593 570.591 M136.876 555.938 L136.876 560.198 Q135.117 559.364 133.311 558.925 Q131.529 558.485 129.769 558.485 Q125.14 558.485 122.686 561.61 Q120.255 564.735 119.908 571.054 Q121.274 569.04 123.334 567.975 Q125.394 566.887 127.871 566.887 Q133.08 566.887 136.089 570.059 Q139.121 573.207 139.121 578.647 Q139.121 583.971 135.973 587.188 Q132.825 590.406 127.593 590.406 Q121.598 590.406 118.427 585.823 Q115.256 581.216 115.256 572.489 Q115.256 564.295 119.144 559.434 Q123.033 554.55 129.584 554.55 Q131.343 554.55 133.126 554.897 Q134.931 555.244 136.876 555.938 Z" fill="#000000" fill-rule="nonzero" fill-opacity="1" /><path clip-path="url(#clip640)" d="M147.177 583.855 L152.061 583.855 L152.061 589.735 L147.177 589.735 L147.177 583.855 Z" fill="#000000" fill-rule="nonzero" fill-opacity="1" /><path clip-path="url(#clip640)" d="M172.246 558.253 Q168.635 558.253 166.806 561.818 Q165.001 565.36 165.001 572.489 Q165.001 579.596 166.806 583.16 Q168.635 586.702 172.246 586.702 Q175.88 586.702 177.686 583.16 Q179.514 579.596 179.514 572.489 Q179.514 565.36 177.686 561.818 Q175.88 558.253 172.246 558.253 M172.246 554.55 Q178.056 554.55 181.112 559.156 Q184.19 563.739 184.19 572.489 Q184.19 581.216 181.112 585.823 Q178.056 590.406 172.246 590.406 Q166.436 590.406 163.357 585.823 Q160.302 581.216 160.302 572.489 Q160.302 563.739 163.357 559.156 Q166.436 554.55 172.246 554.55 Z" fill="#000000" fill-rule="nonzero" fill-opacity="1" /><path clip-path="url(#clip640)" d="M220.579 564.272 L210 574.897 L220.579 585.475 L217.824 588.276 L207.199 577.651 L196.575 588.276 L193.843 585.475 L204.399 574.897 L193.843 564.272 L196.575 561.471 L207.199 572.096 L217.824 561.471 L220.579 564.272 Z" fill="#000000" fill-rule="nonzero" fill-opacity="1" /><path clip-path="url(#clip640)" d="M232.94 585.799 L240.579 585.799 L240.579 559.434 L232.269 561.1 L232.269 556.841 L240.533 555.175 L245.209 555.175 L245.209 585.799 L252.847 585.799 L252.847 589.735 L232.94 589.735 L232.94 585.799 Z" fill="#000000" fill-rule="nonzero" fill-opacity="1" /><path clip-path="url(#clip640)" d="M272.292 558.253 Q268.681 558.253 266.852 561.818 Q265.046 565.36 265.046 572.489 Q265.046 579.596 266.852 583.16 Q268.681 586.702 272.292 586.702 Q275.926 586.702 277.732 583.16 Q279.56 579.596 279.56 572.489 Q279.56 565.36 277.732 561.818 Q275.926 558.253 272.292 558.253 M272.292 554.55 Q278.102 554.55 281.157 559.156 Q284.236 563.739 284.236 572.489 Q284.236 581.216 281.157 585.823 Q278.102 590.406 272.292 590.406 Q266.482 590.406 263.403 585.823 Q260.347 581.216 260.347 572.489 Q260.347 563.739 263.403 559.156 Q266.482 554.55 272.292 554.55 Z" fill="#000000" fill-rule="nonzero" fill-opacity="1" /><path clip-path="url(#clip640)" d="M284.236 548.651 L308.348 548.651 L308.348 551.848 L284.236 551.848 L284.236 548.651 Z" fill="#000000" fill-rule="nonzero" fill-opacity="1" /><path clip-path="url(#clip640)" d="M317.206 559.127 L323.413 559.127 L323.413 537.705 L316.661 539.059 L316.661 535.598 L323.375 534.244 L327.174 534.244 L327.174 559.127 L333.381 559.127 L333.381 562.324 L317.206 562.324 L317.206 559.127 Z" fill="#000000" fill-rule="nonzero" fill-opacity="1" /><path clip-path="url(#clip640)" d="M349.179 536.746 Q346.245 536.746 344.76 539.642 Q343.292 542.52 343.292 548.312 Q343.292 554.086 344.76 556.983 Q346.245 559.86 349.179 559.86 Q352.132 559.86 353.599 556.983 Q355.085 554.086 355.085 548.312 Q355.085 542.52 353.599 539.642 Q352.132 536.746 349.179 536.746 M349.179 533.736 Q353.9 533.736 356.383 537.479 Q358.884 541.203 358.884 548.312 Q358.884 555.403 356.383 559.146 Q353.9 562.87 349.179 562.87 Q344.459 562.87 341.957 559.146 Q339.475 555.403 339.475 548.312 Q339.475 541.203 341.957 537.479 Q344.459 533.736 349.179 533.736 Z" fill="#000000" fill-rule="nonzero" fill-opacity="1" /><path clip-path="url(#clip640)" d="M115.834 378.119 L138.056 378.119 L138.056 380.11 L125.51 412.679 L120.626 412.679 L132.431 382.054 L115.834 382.054 L115.834 378.119 Z" fill="#000000" fill-rule="nonzero" fill-opacity="1" /><path clip-path="url(#clip640)" d="M147.177 406.799 L152.061 406.799 L152.061 412.679 L147.177 412.679 L147.177 406.799 Z" fill="#000000" fill-rule="nonzero" fill-opacity="1" /><path clip-path="url(#clip640)" d="M172.246 381.198 Q168.635 381.198 166.806 384.762 Q165.001 388.304 165.001 395.434 Q165.001 402.54 166.806 406.105 Q168.635 409.647 172.246 409.647 Q175.88 409.647 177.686 406.105 Q179.514 402.54 179.514 395.434 Q179.514 388.304 177.686 384.762 Q175.88 381.198 172.246 381.198 M172.246 377.494 Q178.056 377.494 181.112 382.1 Q184.19 386.684 184.19 395.434 Q184.19 404.16 181.112 408.767 Q178.056 413.35 172.246 413.35 Q166.436 413.35 163.357 408.767 Q160.302 404.16 160.302 395.434 Q160.302 386.684 163.357 382.1 Q166.436 377.494 172.246 377.494 Z" fill="#000000" fill-rule="nonzero" fill-opacity="1" /><path clip-path="url(#clip640)" d="M220.579 387.216 L210 397.841 L220.579 408.42 L217.824 411.221 L207.199 400.596 L196.575 411.221 L193.843 408.42 L204.399 397.841 L193.843 387.216 L196.575 384.415 L207.199 395.04 L217.824 384.415 L220.579 387.216 Z" fill="#000000" fill-rule="nonzero" fill-opacity="1" /><path clip-path="url(#clip640)" d="M232.94 408.744 L240.579 408.744 L240.579 382.378 L232.269 384.045 L232.269 379.786 L240.533 378.119 L245.209 378.119 L245.209 408.744 L252.847 408.744 L252.847 412.679 L232.94 412.679 L232.94 408.744 Z" fill="#000000" fill-rule="nonzero" fill-opacity="1" /><path clip-path="url(#clip640)" d="M272.292 381.198 Q268.681 381.198 266.852 384.762 Q265.046 388.304 265.046 395.434 Q265.046 402.54 266.852 406.105 Q268.681 409.647 272.292 409.647 Q275.926 409.647 277.732 406.105 Q279.56 402.54 279.56 395.434 Q279.56 388.304 277.732 384.762 Q275.926 381.198 272.292 381.198 M272.292 377.494 Q278.102 377.494 281.157 382.1 Q284.236 386.684 284.236 395.434 Q284.236 404.16 281.157 408.767 Q278.102 413.35 272.292 413.35 Q266.482 413.35 263.403 408.767 Q260.347 404.16 260.347 395.434 Q260.347 386.684 263.403 382.1 Q266.482 377.494 272.292 377.494 Z" fill="#000000" fill-rule="nonzero" fill-opacity="1" /><path clip-path="url(#clip640)" d="M284.236 371.595 L308.348 371.595 L308.348 374.793 L284.236 374.793 L284.236 371.595 Z" fill="#000000" fill-rule="nonzero" fill-opacity="1" /><path clip-path="url(#clip640)" d="M317.206 382.071 L323.413 382.071 L323.413 360.649 L316.661 362.003 L316.661 358.543 L323.375 357.188 L327.174 357.188 L327.174 382.071 L333.381 382.071 L333.381 385.268 L317.206 385.268 L317.206 382.071 Z" fill="#000000" fill-rule="nonzero" fill-opacity="1" /><path clip-path="url(#clip640)" d="M349.179 359.69 Q346.245 359.69 344.76 362.586 Q343.292 365.464 343.292 371.257 Q343.292 377.031 344.76 379.927 Q346.245 382.805 349.179 382.805 Q352.132 382.805 353.599 379.927 Q355.085 377.031 355.085 371.257 Q355.085 365.464 353.599 362.586 Q352.132 359.69 349.179 359.69 M349.179 356.681 Q353.9 356.681 356.383 360.423 Q358.884 364.147 358.884 371.257 Q358.884 378.347 356.383 382.09 Q353.9 385.814 349.179 385.814 Q344.459 385.814 341.957 382.09 Q339.475 378.347 339.475 371.257 Q339.475 364.147 341.957 360.423 Q344.459 356.681 349.179 356.681 Z" fill="#000000" fill-rule="nonzero" fill-opacity="1" /><path clip-path="url(#clip640)" d="M127.015 219.211 Q123.681 219.211 121.76 220.994 Q119.862 222.776 119.862 225.901 Q119.862 229.026 121.76 230.808 Q123.681 232.591 127.015 232.591 Q130.348 232.591 132.269 230.808 Q134.191 229.003 134.191 225.901 Q134.191 222.776 132.269 220.994 Q130.371 219.211 127.015 219.211 M122.339 217.221 Q119.33 216.48 117.64 214.42 Q115.973 212.36 115.973 209.397 Q115.973 205.253 118.913 202.846 Q121.876 200.438 127.015 200.438 Q132.177 200.438 135.117 202.846 Q138.056 205.253 138.056 209.397 Q138.056 212.36 136.367 214.42 Q134.7 216.48 131.714 217.221 Q135.093 218.008 136.968 220.299 Q138.867 222.591 138.867 225.901 Q138.867 230.924 135.788 233.609 Q132.732 236.295 127.015 236.295 Q121.297 236.295 118.218 233.609 Q115.163 230.924 115.163 225.901 Q115.163 222.591 117.061 220.299 Q118.959 218.008 122.339 217.221 M120.626 209.836 Q120.626 212.522 122.293 214.026 Q123.982 215.531 127.015 215.531 Q130.024 215.531 131.714 214.026 Q133.427 212.522 133.427 209.836 Q133.427 207.151 131.714 205.647 Q130.024 204.142 127.015 204.142 Q123.982 204.142 122.293 205.647 Q120.626 207.151 120.626 209.836 Z" fill="#000000" fill-rule="nonzero" fill-opacity="1" /><path clip-path="url(#clip640)" d="M147.177 229.744 L152.061 229.744 L152.061 235.623 L147.177 235.623 L147.177 229.744 Z" fill="#000000" fill-rule="nonzero" fill-opacity="1" /><path clip-path="url(#clip640)" d="M172.246 204.142 Q168.635 204.142 166.806 207.707 Q165.001 211.248 165.001 218.378 Q165.001 225.484 166.806 229.049 Q168.635 232.591 172.246 232.591 Q175.88 232.591 177.686 229.049 Q179.514 225.484 179.514 218.378 Q179.514 211.248 177.686 207.707 Q175.88 204.142 172.246 204.142 M172.246 200.438 Q178.056 200.438 181.112 205.045 Q184.19 209.628 184.19 218.378 Q184.19 227.105 181.112 231.711 Q178.056 236.295 172.246 236.295 Q166.436 236.295 163.357 231.711 Q160.302 227.105 160.302 218.378 Q160.302 209.628 163.357 205.045 Q166.436 200.438 172.246 200.438 Z" fill="#000000" fill-rule="nonzero" fill-opacity="1" /><path clip-path="url(#clip640)" d="M220.579 210.16 L210 220.785 L220.579 231.364 L217.824 234.165 L207.199 223.54 L196.575 234.165 L193.843 231.364 L204.399 220.785 L193.843 210.16 L196.575 207.36 L207.199 217.984 L217.824 207.36 L220.579 210.16 Z" fill="#000000" fill-rule="nonzero" fill-opacity="1" /><path clip-path="url(#clip640)" d="M232.94 231.688 L240.579 231.688 L240.579 205.323 L232.269 206.989 L232.269 202.73 L240.533 201.063 L245.209 201.063 L245.209 231.688 L252.847 231.688 L252.847 235.623 L232.94 235.623 L232.94 231.688 Z" fill="#000000" fill-rule="nonzero" fill-opacity="1" /><path clip-path="url(#clip640)" d="M272.292 204.142 Q268.681 204.142 266.852 207.707 Q265.046 211.248 265.046 218.378 Q265.046 225.484 266.852 229.049 Q268.681 232.591 272.292 232.591 Q275.926 232.591 277.732 229.049 Q279.56 225.484 279.56 218.378 Q279.56 211.248 277.732 207.707 Q275.926 204.142 272.292 204.142 M272.292 200.438 Q278.102 200.438 281.157 205.045 Q284.236 209.628 284.236 218.378 Q284.236 227.105 281.157 231.711 Q278.102 236.295 272.292 236.295 Q266.482 236.295 263.403 231.711 Q260.347 227.105 260.347 218.378 Q260.347 209.628 263.403 205.045 Q266.482 200.438 272.292 200.438 Z" fill="#000000" fill-rule="nonzero" fill-opacity="1" /><path clip-path="url(#clip640)" d="M284.236 194.54 L308.348 194.54 L308.348 197.737 L284.236 197.737 L284.236 194.54 Z" fill="#000000" fill-rule="nonzero" fill-opacity="1" /><path clip-path="url(#clip640)" d="M317.206 205.016 L323.413 205.016 L323.413 183.593 L316.661 184.948 L316.661 181.487 L323.375 180.133 L327.174 180.133 L327.174 205.016 L333.381 205.016 L333.381 208.213 L317.206 208.213 L317.206 205.016 Z" fill="#000000" fill-rule="nonzero" fill-opacity="1" /><path clip-path="url(#clip640)" d="M349.179 182.634 Q346.245 182.634 344.76 185.531 Q343.292 188.408 343.292 194.201 Q343.292 199.975 344.76 202.871 Q346.245 205.749 349.179 205.749 Q352.132 205.749 353.599 202.871 Q355.085 199.975 355.085 194.201 Q355.085 188.408 353.599 185.531 Q352.132 182.634 349.179 182.634 M349.179 179.625 Q353.9 179.625 356.383 183.368 Q358.884 187.092 358.884 194.201 Q358.884 201.292 356.383 205.034 Q353.9 208.758 349.179 208.758 Q344.459 208.758 341.957 205.034 Q339.475 201.292 339.475 194.201 Q339.475 187.092 341.957 183.368 Q344.459 179.625 349.179 179.625 Z" fill="#000000" fill-rule="nonzero" fill-opacity="1" /><path clip-path="url(#clip640)" d="M14.479 902.328 L14.479 896.471 L64.0042 896.471 L64.0042 902.328 L14.479 902.328 Z" fill="#000000" fill-rule="nonzero" fill-opacity="1" /><path clip-path="url(#clip640)" d="M14.5426 870.149 Q21.8632 874.414 29.0246 876.483 Q36.186 878.552 43.5384 878.552 Q50.8908 878.552 58.1159 876.483 Q65.3091 874.382 72.5979 870.149 L72.5979 875.242 Q65.1182 880.016 57.8931 882.403 Q50.668 884.758 43.5384 884.758 Q36.4406 884.758 29.2474 882.403 Q22.0542 880.048 14.5426 875.242 L14.5426 870.149 Z" fill="#000000" fill-rule="nonzero" fill-opacity="1" /><path clip-path="url(#clip640)" d="M14.479 858.786 L14.479 852.93 L64.0042 852.93 L64.0042 858.786 L14.479 858.786 Z" fill="#000000" fill-rule="nonzero" fill-opacity="1" /><path clip-path="url(#clip640)" d="M23.1363 816.836 L40.8648 816.836 L40.8648 799.108 L46.2757 799.108 L46.2757 816.836 L64.0042 816.836 L64.0042 822.183 L46.2757 822.183 L46.2757 839.912 L40.8648 839.912 L40.8648 822.183 L23.1363 822.183 L23.1363 816.836 Z" fill="#000000" fill-rule="nonzero" fill-opacity="1" /><path clip-path="url(#clip640)" d="M58.5933 784.117 L58.5933 773.613 L22.3406 773.613 L24.6323 785.04 L18.7758 785.04 L16.4842 773.677 L16.4842 767.247 L58.5933 767.247 L58.5933 756.744 L64.0042 756.744 L64.0042 784.117 L58.5933 784.117 Z" fill="#000000" fill-rule="nonzero" fill-opacity="1" /><path clip-path="url(#clip640)" d="M14.5426 745.508 L14.5426 740.416 Q22.0542 735.642 29.2474 733.286 Q36.4406 730.899 43.5384 730.899 Q50.668 730.899 57.8931 733.286 Q65.1182 735.642 72.5979 740.416 L72.5979 745.508 Q65.3091 741.275 58.1159 739.206 Q50.8908 737.106 43.5384 737.106 Q36.186 737.106 29.0246 739.206 Q21.8632 741.275 14.5426 745.508 Z" fill="#000000" fill-rule="nonzero" fill-opacity="1" /><path clip-path="url(#clip640)" d="M20.1444 683.316 L26.9239 683.316 Q23.9002 686.562 22.4043 690.254 Q20.9083 693.914 20.9083 698.052 Q20.9083 706.2 25.9054 710.529 Q30.8707 714.858 40.2919 714.858 Q49.6813 714.858 54.6784 710.529 Q59.6436 706.2 59.6436 698.052 Q59.6436 693.914 58.1477 690.254 Q56.6518 686.562 53.6281 683.316 L60.3439 683.316 Q62.6355 686.689 63.7814 690.477 Q64.9272 694.233 64.9272 698.434 Q64.9272 709.224 58.3387 715.431 Q51.7183 721.637 40.2919 721.637 Q28.8336 721.637 22.2451 715.431 Q15.6248 709.224 15.6248 698.434 Q15.6248 694.169 16.7706 690.413 Q17.8846 686.626 20.1444 683.316 Z" fill="#000000" fill-rule="nonzero" fill-opacity="1" /><path clip-path="url(#clip640)" d="M36.2815 675.899 L36.2815 672.207 L64.0042 672.207 L64.0042 675.899 L36.2815 675.899 Z" fill="#000000" fill-rule="nonzero" fill-opacity="1" /><path clip-path="url(#clip640)" d="M16.4842 652.41 L16.4842 646.999 L70.0516 663.55 L70.0516 668.961 L16.4842 652.41 Z" fill="#000000" fill-rule="nonzero" fill-opacity="1" /><path clip-path="url(#clip640)" d="M58.5933 634.491 L58.5933 612.051 L64.0042 612.051 L64.0042 642.225 L58.5933 642.225 Q54.8057 638.565 48.44 632.263 Q42.0425 625.929 40.1964 624.305 Q36.7271 621.218 34.34 620.009 Q31.921 618.767 29.5975 618.767 Q25.8099 618.767 23.4228 621.441 Q21.0356 624.083 21.0356 628.348 Q21.0356 631.371 22.086 634.745 Q23.1363 638.087 25.2688 641.907 L18.7758 641.907 Q17.2162 638.024 16.4205 634.65 Q15.6248 631.276 15.6248 628.475 Q15.6248 621.091 19.3169 616.698 Q23.009 612.306 29.1837 612.306 Q32.112 612.306 34.7537 613.42 Q37.3637 614.502 40.9285 617.399 Q41.8515 618.194 46.2757 622.459 Q50.668 626.724 58.5933 634.491 Z" fill="#000000" fill-rule="nonzero" fill-opacity="1" /><path clip-path="url(#clip640)" d="M28.3562 603.171 L28.3562 569.019 L34.2127 569.019 L34.2127 573.507 L56.1107 573.507 Q58.4023 573.507 59.4208 572.743 Q60.4075 571.948 60.4075 570.197 Q60.4075 569.72 60.3439 569.019 Q60.2484 568.319 60.2166 568.096 L64.4498 568.096 Q64.8635 569.21 65.0545 570.388 Q65.2455 571.566 65.2455 572.743 Q65.2455 576.563 63.1766 578.027 Q61.0759 579.491 55.4741 579.491 L34.2127 579.491 L34.2127 592.636 L64.0042 592.636 L64.0042 598.62 L34.2127 598.62 L34.2127 603.171 L28.3562 603.171 Z" fill="#000000" fill-rule="nonzero" fill-opacity="1" /><path clip-path="url(#clip641)" d="M450.296 1384.24 L452.22 1377.26 L454.144 1370.53 L456.068 1364.06 L457.992 1357.85 L459.916 1351.9 L461.84 1346.22 L463.764 1340.81 L465.688 1335.65 L467.612 1330.74 L469.536 1326.06 L471.46 1321.61 L473.384 1317.35 L475.308 1313.28 L477.232 1309.35 L479.156 1305.54 L481.08 1301.82 L483.004 1298.13 L484.928 1294.45 L486.852 1290.72 L488.776 1286.88 L490.7 1282.88 L492.624 1278.71 L494.548 1274.36 L496.472 1269.8 L498.396 1265.05 L500.32 1260.08 L502.244 1254.9 L504.168 1249.51 L506.092 1243.91 L508.016 1238.1 L509.94 1232.1 L511.864 1225.9 L513.788 1219.52 L515.712 1212.99 L517.636 1206.31 L519.56 1199.51 L521.484 1192.63 L523.408 1185.67 L525.332 1178.69 L527.256 1171.72 L529.18 1164.79 L531.104 1157.91 L533.028 1151.08 L534.952 1144.29 L536.876 1137.55 L538.8 1130.84 L540.724 1124.16 L542.648 1117.52 L544.572 1110.9 L546.496 1104.3 L548.42 1097.71 L550.344 1091.13 L552.268 1084.55 L554.192 1077.96 L556.116 1071.36 L558.04 1064.74 L559.964 1058.08 L561.888 1051.39 L563.812 1044.64 L565.736 1037.82 L567.66 1030.94 L569.584 1023.98 L571.508 1016.95 L573.432 1009.85 L575.356 1002.67 L577.28 995.42 L579.204 988.101 L581.128 980.715 L583.052 973.263 L584.976 965.748 L586.9 958.174 L588.824 950.544 L590.748 942.862 L592.672 935.133 L594.596 927.363 L596.52 919.555 L598.444 911.718 L600.368 903.856 L602.292 895.978 L604.216 888.091 L606.14 880.202 L608.064 872.313 L609.988 864.424 L611.912 856.534 L613.836 848.645 L615.76 840.756 L617.684 832.868 L619.608 824.981 L621.532 817.095 L623.456 809.211 L625.38 801.33 L627.304 793.451 L629.228 785.574 L631.152 777.702 L633.076 769.833 L635 761.968 L636.924 754.108 L638.849 746.253 L640.773 738.405 L642.697 730.562 L644.621 722.728 L646.545 714.901 L648.469 707.085 L650.393 699.281 L652.317 691.49 L654.241 683.713 L656.165 675.954 L658.089 668.213 L660.013 660.492 L661.937 652.795 L663.861 645.122 L665.785 637.476 L667.709 629.86 L669.633 622.275 L671.557 614.725 L673.481 607.212 L675.405 599.739 L677.329 592.308 L679.253 584.924 L681.177 577.587 L683.101 570.303 L685.025 563.072 L686.949 555.895 L688.873 548.774 L690.797 541.711 L692.721 534.707 L694.645 527.763 L696.569 520.881 L698.493 514.063 L700.417 507.31 L702.341 500.622 L704.265 494.003 L706.189 487.454 L708.113 480.976 L710.037 474.571 L711.961 468.24 L713.885 461.986 L715.809 455.81 L717.733 449.713 L719.657 443.698 L721.581 437.766 L723.505 431.919 L725.429 426.158 L727.353 420.484 L729.277 414.9 L731.201 409.406 L733.125 404.003 L735.049 398.695 L736.973 393.48 L738.897 388.363 L740.821 383.343 L742.745 378.422 L744.669 373.602 L746.593 368.884 L748.517 364.27 L750.441 359.762 L752.365 355.36 L754.289 351.067 L756.213 346.885 L758.137 342.813 L760.061 338.855 L761.985 335.011 L763.909 331.282 L765.833 327.669 L767.757 324.173 L769.681 320.795 L771.605 317.534 L773.529 314.393 L775.453 311.373 L777.377 308.472 L779.301 305.694 L781.225 303.037 L783.149 300.504 L785.073 298.094 L786.997 295.809 L788.921 293.648 L790.845 291.614 L792.769 289.705 L794.693 287.923 L796.617 286.269 L798.541 284.742 L800.465 283.344 L802.389 282.075 L804.313 280.934 L806.237 279.923 L808.161 279.041 L810.085 278.288 L812.009 277.666 L813.933 277.173 L815.857 276.811 L817.781 276.579 L819.705 276.478 L821.629 276.506 L823.553 276.666 L825.477 276.955 L827.401 277.375 L829.325 277.925 L831.249 278.606 L833.173 279.416 L835.097 280.356 L837.021 281.426 L838.945 282.626 L840.869 283.954 L842.793 285.41 L844.717 286.995 L846.641 288.707 L848.566 290.547 L850.49 292.513 L852.414 294.604 L854.338 296.821 L856.262 299.162 L858.186 301.628 L860.11 304.216 L862.034 306.926 L863.958 309.758 L865.882 312.71 L867.806 315.782 L869.73 318.973 L871.654 322.281 L873.578 325.706 L875.502 329.246 L877.426 332.901 L879.35 336.67 L881.274 340.551 L883.198 344.543 L885.122 348.645 L887.046 352.857 L888.97 357.176 L890.894 361.602 L892.818 366.133 L894.742 370.769 L896.666 375.506 L898.59 380.346 L900.514 385.285 L902.438 390.322 L904.362 395.456 L906.286 400.685 L908.21 406.008 L910.134 411.423 L912.058 416.928 L913.982 422.522 L915.906 428.202 L917.83 433.968 L919.754 439.818 L921.678 445.751 L923.602 451.764 L925.526 457.857 L927.45 464.027 L929.374 470.273 L931.298 476.592 L933.222 482.984 L935.146 489.447 L937.07 495.978 L938.994 502.575 L940.918 509.238 L942.842 515.963 L944.766 522.749 L946.69 529.593 L948.614 536.494 L950.538 543.45 L952.462 550.458 L954.386 557.517 L956.31 564.625 L958.234 571.779 L960.158 578.979 L962.082 586.222 L964.006 593.507 L965.93 600.831 L967.854 608.193 L969.778 615.59 L971.702 623.022 L973.626 630.484 L975.55 637.977 L977.474 645.497 L979.398 653.042 L981.322 660.611 L983.246 668.201 L985.17 675.809 L987.094 683.435 L989.018 691.075 L990.942 698.728 L992.866 706.391 L994.79 714.063 L996.714 721.741 L998.638 729.425 L1000.56 737.111 L1002.49 744.799 L1004.41 752.486 L1006.33 760.171 L1008.26 767.851 L1010.18 775.525 L1012.11 783.19 L1014.03 790.845 L1015.95 798.488 L1017.88 806.116 L1019.8 813.728 L1021.73 821.322 L1023.65 828.895 L1025.57 836.445 L1027.5 843.971 L1029.42 851.471 L1031.35 858.942 L1033.27 866.383 L1035.19 873.793 L1037.12 881.17 L1039.04 888.512 L1040.97 895.818 L1042.89 903.086 L1044.81 910.315 L1046.74 917.502 L1048.66 924.647 L1050.59 931.748 L1052.51 938.803 L1054.43 945.811 L1056.36 952.769 L1058.28 959.677 L1060.21 966.533 L1062.13 973.335 L1064.05 980.081 L1065.98 986.77 L1067.9 993.401 L1069.83 999.971 L1071.75 1006.48 L1073.67 1012.93 L1075.6 1019.31 L1077.52 1025.63 L1079.45 1031.88 L1081.37 1038.07 L1083.29 1044.19 L1085.22 1050.24 L1087.14 1056.21 L1089.07 1062.12 L1090.99 1067.95 L1092.91 1073.71 L1094.84 1079.4 L1096.76 1085.01 L1098.69 1090.54 L1100.61 1096 L1102.53 1101.37 L1104.46 1106.67 L1106.38 1111.88 L1108.31 1117.01 L1110.23 1122.06 L1112.15 1127.03 L1114.08 1131.92 L1116 1136.71 L1117.93 1141.43 L1119.85 1146.06 L1121.77 1150.6 L1123.7 1155.06 L1125.62 1159.43 L1127.55 1163.71 L1129.47 1167.9 L1131.39 1172.01 L1133.32 1176.02 L1135.24 1179.95 L1137.17 1183.79 L1139.09 1187.54 L1141.01 1191.19 L1142.94 1194.76 L1144.86 1198.24 L1146.79 1201.62 L1148.71 1204.92 L1150.63 1208.12 L1152.56 1211.23 L1154.48 1214.25 L1156.41 1217.18 L1158.33 1220.02 L1160.25 1222.77 L1162.18 1225.42 L1164.1 1227.99 L1166.03 1230.46 L1167.95 1232.85 L1169.88 1235.14 L1171.8 1237.34 L1173.72 1239.46 L1175.65 1241.48 L1177.57 1243.42 L1179.5 1245.26 L1181.42 1247.02 L1183.34 1248.69 L1185.27 1250.27 L1187.19 1251.76 L1189.12 1253.17 L1191.04 1254.49 L1192.96 1255.73 L1194.89 1256.88 L1196.81 1257.94 L1198.74 1258.92 L1200.66 1259.82 L1202.58 1260.64 L1204.51 1261.37 L1206.43 1262.02 L1208.36 1262.59 L1210.28 1263.08 L1212.2 1263.5 L1214.13 1263.83 L1216.05 1264.09 L1217.98 1264.27 L1219.9 1264.38 L1221.82 1264.41 L1223.75 1264.37 L1225.67 1264.25 L1227.6 1264.07 L1229.52 1263.81 L1231.44 1263.48 L1233.37 1263.09 L1235.29 1262.62 L1237.22 1262.09 L1239.14 1261.5 L1241.06 1260.84 L1242.99 1260.11 L1244.91 1259.32 L1246.84 1258.47 L1248.76 1257.56 L1250.68 1256.6 L1252.61 1255.57 L1254.53 1254.49 L1256.46 1253.35 L1258.38 1252.16 L1260.3 1250.92 L1262.23 1249.63 L1264.15 1248.28 L1266.08 1246.89 L1268 1245.45 L1269.92 1243.96 L1271.85 1242.43 L1273.77 1240.85 L1275.7 1239.23 L1277.62 1237.57 L1279.54 1235.86 L1281.47 1234.12 L1283.39 1232.34 L1285.32 1230.53 L1287.24 1228.68 L1289.16 1226.79 L1291.09 1224.87 L1293.01 1222.93 L1294.94 1220.95 L1296.86 1218.95 L1298.78 1216.92 L1300.71 1214.86 L1302.63 1212.78 L1304.56 1210.68 L1306.48 1208.56 L1308.4 1206.42 L1310.33 1204.25 L1312.25 1202.08 L1314.18 1199.88 L1316.1 1197.67 L1318.02 1195.44 L1319.95 1193.21 L1321.87 1190.96 L1323.8 1188.7 L1325.72 1186.43 L1327.64 1184.16 L1329.57 1181.88 L1331.49 1179.59 L1333.42 1177.31 L1335.34 1175.02 L1337.26 1172.73 L1339.19 1170.45 L1341.11 1168.16 L1343.04 1165.88 L1344.96 1163.61 L1346.88 1161.34 L1348.81 1159.08 L1350.73 1156.82 L1352.66 1154.57 L1354.58 1152.34 L1356.5 1150.11 L1358.43 1147.89 L1360.35 1145.69 L1362.28 1143.51 L1364.2 1141.34 L1366.12 1139.18 L1368.05 1137.05 L1369.97 1134.93 L1371.9 1132.83 L1373.82 1130.76 L1375.74 1128.71 L1377.67 1126.68 L1379.59 1124.68 L1381.52 1122.7 L1383.44 1120.75 L1385.36 1118.82 L1387.29 1116.92 L1389.21 1115.05 L1391.14 1113.21 L1393.06 1111.4 L1394.98 1109.62 L1396.91 1107.87 L1398.83 1106.16 L1400.76 1104.47 L1402.68 1102.83 L1404.6 1101.21 L1406.53 1099.63 L1408.45 1098.09 L1410.38 1096.58 L1412.3 1095.12 L1414.22 1093.69 L1416.15 1092.3 L1418.07 1090.95 L1420 1089.64 L1421.92 1088.37 L1423.84 1087.14 L1425.77 1085.95 L1427.69 1084.81 L1429.62 1083.7 L1431.54 1082.64 L1433.46 1081.63 L1435.39 1080.65 L1437.31 1079.72 L1439.24 1078.83 L1441.16 1077.98 L1443.08 1077.19 L1445.01 1076.43 L1446.93 1075.72 L1448.86 1075.06 L1450.78 1074.44 L1452.7 1073.87 L1454.63 1073.34 L1456.55 1072.87 L1458.48 1072.43 L1460.4 1072.05 L1462.32 1071.71 L1464.25 1071.42 L1466.17 1071.17 L1468.1 1070.97 L1470.02 1070.82 L1471.94 1070.71 L1473.87 1070.65 L1475.79 1070.63 L1477.72 1070.66 L1479.64 1070.74 L1481.56 1070.86 L1483.49 1071.02 L1485.41 1071.24 L1487.34 1071.5 L1489.26 1071.8 L1491.18 1072.15 L1493.11 1072.54 L1495.03 1072.98 L1496.96 1073.46 L1498.88 1073.99 L1500.8 1074.56 L1502.73 1075.17 L1504.65 1075.83 L1506.58 1076.53 L1508.5 1077.26 L1510.42 1078.05 L1512.35 1078.87 L1514.27 1079.73 L1516.2 1080.63 L1518.12 1081.57 L1520.04 1082.55 L1521.97 1083.57 L1523.89 1084.63 L1525.82 1085.72 L1527.74 1086.85 L1529.66 1088.02 L1531.59 1089.22 L1533.51 1090.46 L1535.44 1091.73 L1537.36 1093.03 L1539.28 1094.37 L1541.21 1095.74 L1543.13 1097.15 L1545.06 1098.58 L1546.98 1100.04 L1548.9 1101.54 L1550.83 1103.06 L1552.75 1104.61 L1554.68 1106.19 L1556.6 1107.79 L1558.52 1109.43 L1560.45 1111.08 L1562.37 1112.76 L1564.3 1114.46 L1566.22 1116.19 L1568.14 1117.94 L1570.07 1119.71 L1571.99 1121.5 L1573.92 1123.31 L1575.84 1125.13 L1577.76 1126.98 L1579.69 1128.84 L1581.61 1130.72 L1583.54 1132.62 L1585.46 1134.52 L1587.39 1136.45 L1589.31 1138.38 L1591.23 1140.33 L1593.16 1142.29 L1595.08 1144.26 L1597.01 1146.23 L1598.93 1148.22 L1600.85 1150.21 L1602.78 1152.21 L1604.7 1154.22 L1606.63 1156.23 L1608.55 1158.24 L1610.47 1160.26 L1612.4 1162.28 L1614.32 1164.3 L1616.25 1166.32 L1618.17 1168.34 L1620.09 1170.35 L1622.02 1172.37 L1623.94 1174.38 L1625.87 1176.4 L1627.79 1178.4 L1629.71 1180.4 L1631.64 1182.4 L1633.56 1184.38 L1635.49 1186.36 L1637.41 1188.33 L1639.33 1190.29 L1641.26 1192.24 L1643.18 1194.18 L1645.11 1196.11 L1647.03 1198.02 L1648.95 1199.91 L1650.88 1201.8 L1652.8 1203.67 L1654.73 1205.52 L1656.65 1207.35 L1658.57 1209.17 L1660.5 1210.97 L1662.42 1212.75 L1664.35 1214.51 L1666.27 1216.25 L1668.19 1217.97 L1670.12 1219.67 L1672.04 1221.35 L1673.97 1223 L1675.89 1224.63 L1677.81 1226.24 L1679.74 1227.82 L1681.66 1229.37 L1683.59 1230.9 L1685.51 1232.39 L1687.43 1233.87 L1689.36 1235.31 L1691.28 1236.72 L1693.21 1238.11 L1695.13 1239.46 L1697.05 1240.79 L1698.98 1242.09 L1700.9 1243.35 L1702.83 1244.58 L1704.75 1245.79 L1706.67 1246.95 L1708.6 1248.09 L1710.52 1249.19 L1712.45 1250.26 L1714.37 1251.3 L1716.29 1252.3 L1718.22 1253.27 L1720.14 1254.2 L1722.07 1255.09 L1723.99 1255.95 L1725.91 1256.77 L1727.84 1257.55 L1729.76 1258.3 L1731.69 1259.01 L1733.61 1259.69 L1735.53 1260.33 L1737.46 1260.93 L1739.38 1261.49 L1741.31 1262.01 L1743.23 1262.5 L1745.15 1262.95 L1747.08 1263.36 L1749 1263.74 L1750.93 1264.07 L1752.85 1264.37 L1754.77 1264.63 L1756.7 1264.85 L1758.62 1265.03 L1760.55 1265.17 L1762.47 1265.27 L1764.39 1265.33 L1766.32 1265.36 L1768.24 1265.35 L1770.17 1265.3 L1772.09 1265.21 L1774.01 1265.08 L1775.94 1264.92 L1777.86 1264.71 L1779.79 1264.47 L1781.71 1264.2 L1783.63 1263.88 L1785.56 1263.53 L1787.48 1263.14 L1789.41 1262.72 L1791.33 1262.26 L1793.25 1261.76 L1795.18 1261.23 L1797.1 1260.66 L1799.03 1260.06 L1800.95 1259.42 L1802.87 1258.74 L1804.8 1258.04 L1806.72 1257.29 L1808.65 1256.52 L1810.57 1255.71 L1812.49 1254.87 L1814.42 1254 L1816.34 1253.09 L1818.27 1252.16 L1820.19 1251.19 L1822.11 1250.19 L1824.04 1249.17 L1825.96 1248.11 L1827.89 1247.02 L1829.81 1245.91 L1831.73 1244.77 L1833.66 1243.6 L1835.58 1242.4 L1837.51 1241.18 L1839.43 1239.93 L1841.35 1238.66 L1843.28 1237.36 L1845.2 1236.04 L1847.13 1234.69 L1849.05 1233.33 L1850.97 1231.94 L1852.9 1230.52 L1854.82 1229.09 L1856.75 1227.64 L1858.67 1226.17 L1860.59 1224.67 L1862.52 1223.16 L1864.44 1221.64 L1866.37 1220.09 L1868.29 1218.53 L1870.21 1216.96 L1872.14 1215.37 L1874.06 1213.76 L1875.99 1212.14 L1877.91 1210.51 L1879.83 1208.87 L1881.76 1207.21 L1883.68 1205.55 L1885.61 1203.88 L1887.53 1202.19 L1889.45 1200.5 L1891.38 1198.8 L1893.3 1197.09 L1895.23 1195.38 L1897.15 1193.66 L1899.07 1191.94 L1901 1190.21 L1902.92 1188.48 L1904.85 1186.75 L1906.77 1185.01 L1908.69 1183.28 L1910.62 1181.54 L1912.54 1179.81 L1914.47 1178.07 L1916.39 1176.34 L1918.31 1174.62 L1920.24 1172.89 L1922.16 1171.17 L1924.09 1169.46 L1926.01 1167.75 L1927.93 1166.05 L1929.86 1164.35 L1931.78 1162.66 L1933.71 1160.98 L1935.63 1159.31 L1937.55 1157.65 L1939.48 1156.01 L1941.4 1154.37 L1943.33 1152.74 L1945.25 1151.13 L1947.17 1149.53 L1949.1 1147.95 L1951.02 1146.38 L1952.95 1144.83 L1954.87 1143.29 L1956.79 1141.77 L1958.72 1140.27 L1960.64 1138.79 L1962.57 1137.33 L1964.49 1135.89 L1966.41 1134.46 L1968.34 1133.06 L1970.26 1131.68 L1972.19 1130.32 L1974.11 1128.98 L1976.03 1127.67 L1977.96 1126.38 L1979.88 1125.11 L1981.81 1123.87 L1983.73 1122.66 L1985.65 1121.47 L1987.58 1120.31 L1989.5 1119.17 L1991.43 1118.07 L1993.35 1116.99 L1995.27 1115.94 L1997.2 1114.92 L1999.12 1113.93 L2001.05 1112.97 L2002.97 1112.04 L2004.9 1111.14 L2006.82 1110.28 L2008.74 1109.44 L2010.67 1108.64 L2012.59 1107.87 L2014.52 1107.13 L2016.44 1106.42 L2018.36 1105.75 L2020.29 1105.11 L2022.21 1104.51 L2024.14 1103.94 L2026.06 1103.41 L2027.98 1102.91 L2029.91 1102.45 L2031.83 1102.03 L2033.76 1101.64 L2035.68 1101.29 L2037.6 1100.97 L2039.53 1100.7 L2041.45 1100.45 L2043.38 1100.25 L2045.3 1100.08 L2047.22 1099.95 L2049.15 1099.86 L2051.07 1099.81 L2053 1099.79 L2054.92 1099.81 L2056.84 1099.87 L2058.77 1099.97 L2060.69 1100.11 L2062.62 1100.28 L2064.54 1100.5 L2066.46 1100.75 L2068.39 1101.04 L2070.31 1101.37 L2072.24 1101.74 L2074.16 1102.15 L2076.08 1102.6 L2078.01 1103.08 L2079.93 1103.61 L2081.86 1104.17 L2083.78 1104.77 L2085.7 1105.41 L2087.63 1106.08 L2089.55 1106.8 L2091.48 1107.55 L2093.4 1108.34 L2095.32 1109.17 L2097.25 1110.03 L2099.17 1110.93 L2101.1 1111.87 L2103.02 1112.84 L2104.94 1113.86 L2106.87 1114.9 L2108.79 1115.99 L2110.72 1117.11 L2112.64 1118.27 L2114.56 1119.46 L2116.49 1120.69 L2118.41 1121.95 L2120.34 1123.25 L2122.26 1124.58 L2124.18 1125.94 L2126.11 1127.34 L2128.03 1128.77 L2129.96 1130.23 L2131.88 1131.73 L2133.8 1133.26 L2135.73 1134.82 L2137.65 1136.41 L2139.58 1138.03 L2141.5 1139.68 L2143.42 1141.37 L2145.35 1143.08 L2147.27 1144.82 L2149.2 1146.59 L2151.12 1148.39 L2153.04 1150.22 L2154.97 1152.08 L2156.89 1153.96 L2158.82 1155.87 L2160.74 1157.8 L2162.66 1159.76 L2164.59 1161.74 L2166.51 1163.75 L2168.44 1165.78 L2170.36 1167.83 L2172.28 1169.91 L2174.21 1172.01 L2176.13 1174.13 L2178.06 1176.27 L2179.98 1178.43 L2181.9 1180.61 L2183.83 1182.8 L2185.75 1185.02 L2187.68 1187.26 L2189.6 1189.51 L2191.52 1191.78 L2193.45 1194.06 L2195.37 1196.37 L2197.3 1198.68 L2199.22 1201.02 L2201.14 1203.37 L2203.07 1205.73 L2204.99 1208.1 L2206.92 1210.49 L2208.84 1212.89 L2210.76 1215.31 L2212.69 1217.73 L2214.61 1220.17 L2216.54 1222.61 L2218.46 1225.07 L2220.38 1227.54 L2222.31 1230.01 L2224.23 1232.49 L2226.16 1234.98 L2228.08 1237.48 L2230 1239.98 L2231.93 1242.49 L2233.85 1244.99 L2235.78 1247.5 L2237.7 1250.01 L2239.62 1252.52 L2241.55 1255.03 L2243.47 1257.54 L2245.4 1260.04 L2247.32 1262.54 L2249.24 1265.04 L2251.17 1267.52 L2253.09 1270 L2255.02 1272.47 L2256.94 1274.93 L2258.86 1277.38 L2260.79 1279.82 L2262.71 1282.24 L2264.64 1284.66 L2266.56 1287.07 L2268.48 1289.47 L2270.41 1291.86 L2272.33 1294.25 L2274.26 1296.63 L2276.18 1299.01 L2278.1 1301.39 L2280.03 1303.76 L2281.95 1306.14 L2283.88 1308.52 L2285.8 1310.9 L2287.72 1313.28 L2289.65 1315.67 L2291.57 1318.07 L2293.5 1320.48 L2295.42 1322.89 L2297.34 1325.31 L2297.34 1305.53 L2295.42 1302.94 L2293.5 1300.35 L2291.57 1297.78 L2289.65 1295.22 L2287.72 1292.66 L2285.8 1290.11 L2283.88 1287.56 L2281.95 1285.01 L2280.03 1282.47 L2278.1 1279.93 L2276.18 1277.38 L2274.26 1274.83 L2272.33 1272.28 L2270.41 1269.73 L2268.48 1267.17 L2266.56 1264.6 L2264.64 1262.02 L2262.71 1259.43 L2260.79 1256.84 L2258.86 1254.23 L2256.94 1251.6 L2255.02 1248.97 L2253.09 1246.32 L2251.17 1243.67 L2249.24 1241 L2247.32 1238.33 L2245.4 1235.65 L2243.47 1232.97 L2241.55 1230.29 L2239.62 1227.6 L2237.7 1224.91 L2235.78 1222.22 L2233.85 1219.53 L2231.93 1216.84 L2230 1214.15 L2228.08 1211.47 L2226.16 1208.79 L2224.23 1206.12 L2222.31 1203.46 L2220.38 1200.81 L2218.46 1198.16 L2216.54 1195.53 L2214.61 1192.9 L2212.69 1190.29 L2210.76 1187.69 L2208.84 1185.1 L2206.92 1182.52 L2204.99 1179.96 L2203.07 1177.41 L2201.14 1174.87 L2199.22 1172.35 L2197.3 1169.85 L2195.37 1167.36 L2193.45 1164.88 L2191.52 1162.43 L2189.6 1159.99 L2187.68 1157.57 L2185.75 1155.17 L2183.83 1152.79 L2181.9 1150.42 L2179.98 1148.08 L2178.06 1145.76 L2176.13 1143.46 L2174.21 1141.18 L2172.28 1138.92 L2170.36 1136.69 L2168.44 1134.48 L2166.51 1132.29 L2164.59 1130.13 L2162.66 1127.99 L2160.74 1125.88 L2158.82 1123.8 L2156.89 1121.75 L2154.97 1119.72 L2153.04 1117.72 L2151.12 1115.75 L2149.2 1113.81 L2147.27 1111.9 L2145.35 1110.02 L2143.42 1108.17 L2141.5 1106.36 L2139.58 1104.57 L2137.65 1102.82 L2135.73 1101.1 L2133.8 1099.41 L2131.88 1097.76 L2129.96 1096.14 L2128.03 1094.56 L2126.11 1093.01 L2124.18 1091.5 L2122.26 1090.02 L2120.34 1088.58 L2118.41 1087.18 L2116.49 1085.81 L2114.56 1084.47 L2112.64 1083.18 L2110.72 1081.92 L2108.79 1080.71 L2106.87 1079.53 L2104.94 1078.38 L2103.02 1077.28 L2101.1 1076.22 L2099.17 1075.2 L2097.25 1074.21 L2095.32 1073.27 L2093.4 1072.36 L2091.48 1071.5 L2089.55 1070.67 L2087.63 1069.89 L2085.7 1069.14 L2083.78 1068.44 L2081.86 1067.78 L2079.93 1067.16 L2078.01 1066.57 L2076.08 1066.03 L2074.16 1065.54 L2072.24 1065.08 L2070.31 1064.66 L2068.39 1064.29 L2066.46 1063.95 L2064.54 1063.66 L2062.62 1063.41 L2060.69 1063.2 L2058.77 1063.03 L2056.84 1062.9 L2054.92 1062.82 L2053 1062.77 L2051.07 1062.77 L2049.15 1062.8 L2047.22 1062.88 L2045.3 1063 L2043.38 1063.15 L2041.45 1063.35 L2039.53 1063.59 L2037.6 1063.86 L2035.68 1064.18 L2033.76 1064.53 L2031.83 1064.92 L2029.91 1065.36 L2027.98 1065.83 L2026.06 1066.34 L2024.14 1066.88 L2022.21 1067.47 L2020.29 1068.09 L2018.36 1068.75 L2016.44 1069.45 L2014.52 1070.18 L2012.59 1070.95 L2010.67 1071.75 L2008.74 1072.59 L2006.82 1073.46 L2004.9 1074.37 L2002.97 1075.31 L2001.05 1076.28 L1999.12 1077.29 L1997.2 1078.33 L1995.27 1079.4 L1993.35 1080.5 L1991.43 1081.63 L1989.5 1082.79 L1987.58 1083.98 L1985.65 1085.21 L1983.73 1086.46 L1981.81 1087.74 L1979.88 1089.05 L1977.96 1090.38 L1976.03 1091.74 L1974.11 1093.13 L1972.19 1094.54 L1970.26 1095.97 L1968.34 1097.43 L1966.41 1098.91 L1964.49 1100.41 L1962.57 1101.94 L1960.64 1103.49 L1958.72 1105.05 L1956.79 1106.64 L1954.87 1108.24 L1952.95 1109.87 L1951.02 1111.51 L1949.1 1113.17 L1947.17 1114.85 L1945.25 1116.54 L1943.33 1118.25 L1941.4 1119.97 L1939.48 1121.7 L1937.55 1123.45 L1935.63 1125.21 L1933.71 1126.98 L1931.78 1128.76 L1929.86 1130.55 L1927.93 1132.34 L1926.01 1134.15 L1924.09 1135.96 L1922.16 1137.78 L1920.24 1139.6 L1918.31 1141.43 L1916.39 1143.26 L1914.47 1145.1 L1912.54 1146.94 L1910.62 1148.78 L1908.69 1150.62 L1906.77 1152.46 L1904.85 1154.3 L1902.92 1156.14 L1901 1157.98 L1899.07 1159.81 L1897.15 1161.64 L1895.23 1163.47 L1893.3 1165.28 L1891.38 1167.1 L1889.45 1168.9 L1887.53 1170.7 L1885.61 1172.48 L1883.68 1174.26 L1881.76 1176.03 L1879.83 1177.79 L1877.91 1179.53 L1875.99 1181.26 L1874.06 1182.98 L1872.14 1184.68 L1870.21 1186.37 L1868.29 1188.04 L1866.37 1189.7 L1864.44 1191.34 L1862.52 1192.96 L1860.59 1194.56 L1858.67 1196.15 L1856.75 1197.71 L1854.82 1199.25 L1852.9 1200.77 L1850.97 1202.27 L1849.05 1203.74 L1847.13 1205.19 L1845.2 1206.62 L1843.28 1208.02 L1841.35 1209.4 L1839.43 1210.74 L1837.51 1212.07 L1835.58 1213.36 L1833.66 1214.63 L1831.73 1215.86 L1829.81 1217.07 L1827.89 1218.25 L1825.96 1219.4 L1824.04 1220.51 L1822.11 1221.6 L1820.19 1222.65 L1818.27 1223.67 L1816.34 1224.66 L1814.42 1225.61 L1812.49 1226.53 L1810.57 1227.42 L1808.65 1228.27 L1806.72 1229.08 L1804.8 1229.86 L1802.87 1230.6 L1800.95 1231.31 L1799.03 1231.98 L1797.1 1232.61 L1795.18 1233.2 L1793.25 1233.75 L1791.33 1234.27 L1789.41 1234.74 L1787.48 1235.18 L1785.56 1235.58 L1783.63 1235.94 L1781.71 1236.25 L1779.79 1236.53 L1777.86 1236.77 L1775.94 1236.97 L1774.01 1237.13 L1772.09 1237.24 L1770.17 1237.32 L1768.24 1237.36 L1766.32 1237.35 L1764.39 1237.3 L1762.47 1237.21 L1760.55 1237.08 L1758.62 1236.91 L1756.7 1236.69 L1754.77 1236.44 L1752.85 1236.14 L1750.93 1235.8 L1749 1235.42 L1747.08 1234.99 L1745.15 1234.53 L1743.23 1234.02 L1741.31 1233.48 L1739.38 1232.89 L1737.46 1232.26 L1735.53 1231.59 L1733.61 1230.89 L1731.69 1230.14 L1729.76 1229.35 L1727.84 1228.52 L1725.91 1227.65 L1723.99 1226.75 L1722.07 1225.8 L1720.14 1224.81 L1718.22 1223.79 L1716.29 1222.72 L1714.37 1221.62 L1712.45 1220.48 L1710.52 1219.31 L1708.6 1218.09 L1706.67 1216.85 L1704.75 1215.56 L1702.83 1214.24 L1700.9 1212.89 L1698.98 1211.5 L1697.05 1210.08 L1695.13 1208.63 L1693.21 1207.14 L1691.28 1205.62 L1689.36 1204.07 L1687.43 1202.49 L1685.51 1200.88 L1683.59 1199.23 L1681.66 1197.56 L1679.74 1195.86 L1677.81 1194.13 L1675.89 1192.37 L1673.97 1190.59 L1672.04 1188.78 L1670.12 1186.94 L1668.19 1185.08 L1666.27 1183.2 L1664.35 1181.29 L1662.42 1179.36 L1660.5 1177.41 L1658.57 1175.44 L1656.65 1173.45 L1654.73 1171.44 L1652.8 1169.41 L1650.88 1167.37 L1648.95 1165.31 L1647.03 1163.23 L1645.11 1161.13 L1643.18 1159.03 L1641.26 1156.9 L1639.33 1154.77 L1637.41 1152.62 L1635.49 1150.46 L1633.56 1148.29 L1631.64 1146.12 L1629.71 1143.93 L1627.79 1141.74 L1625.87 1139.54 L1623.94 1137.33 L1622.02 1135.13 L1620.09 1132.91 L1618.17 1130.7 L1616.25 1128.49 L1614.32 1126.27 L1612.4 1124.05 L1610.47 1121.84 L1608.55 1119.62 L1606.63 1117.41 L1604.7 1115.21 L1602.78 1113.01 L1600.85 1110.81 L1598.93 1108.62 L1597.01 1106.44 L1595.08 1104.26 L1593.16 1102.1 L1591.23 1099.95 L1589.31 1097.8 L1587.39 1095.68 L1585.46 1093.56 L1583.54 1091.46 L1581.61 1089.37 L1579.69 1087.3 L1577.76 1085.25 L1575.84 1083.22 L1573.92 1081.2 L1571.99 1079.21 L1570.07 1077.23 L1568.14 1075.28 L1566.22 1073.35 L1564.3 1071.44 L1562.37 1069.56 L1560.45 1067.7 L1558.52 1065.87 L1556.6 1064.07 L1554.68 1062.29 L1552.75 1060.54 L1550.83 1058.82 L1548.9 1057.13 L1546.98 1055.48 L1545.06 1053.85 L1543.13 1052.26 L1541.21 1050.7 L1539.28 1049.17 L1537.36 1047.68 L1535.44 1046.23 L1533.51 1044.81 L1531.59 1043.42 L1529.66 1042.08 L1527.74 1040.77 L1525.82 1039.51 L1523.89 1038.28 L1521.97 1037.09 L1520.04 1035.95 L1518.12 1034.84 L1516.2 1033.78 L1514.27 1032.76 L1512.35 1031.79 L1510.42 1030.85 L1508.5 1029.96 L1506.58 1029.12 L1504.65 1028.32 L1502.73 1027.56 L1500.8 1026.86 L1498.88 1026.2 L1496.96 1025.58 L1495.03 1025.01 L1493.11 1024.49 L1491.18 1024.02 L1489.26 1023.6 L1487.34 1023.23 L1485.41 1022.9 L1483.49 1022.63 L1481.56 1022.4 L1479.64 1022.23 L1477.72 1022.1 L1475.79 1022.02 L1473.87 1022 L1471.94 1022.02 L1470.02 1022.09 L1468.1 1022.21 L1466.17 1022.39 L1464.25 1022.61 L1462.32 1022.88 L1460.4 1023.21 L1458.48 1023.58 L1456.55 1024.01 L1454.63 1024.48 L1452.7 1025.01 L1450.78 1025.58 L1448.86 1026.21 L1446.93 1026.89 L1445.01 1027.61 L1443.08 1028.39 L1441.16 1029.21 L1439.24 1030.09 L1437.31 1031.01 L1435.39 1031.98 L1433.46 1032.99 L1431.54 1034.06 L1429.62 1035.17 L1427.69 1036.32 L1425.77 1037.52 L1423.84 1038.77 L1421.92 1040.06 L1420 1041.4 L1418.07 1042.78 L1416.15 1044.2 L1414.22 1045.67 L1412.3 1047.18 L1410.38 1048.74 L1408.45 1050.33 L1406.53 1051.97 L1404.6 1053.64 L1402.68 1055.36 L1400.76 1057.11 L1398.83 1058.9 L1396.91 1060.72 L1394.98 1062.58 L1393.06 1064.48 L1391.14 1066.41 L1389.21 1068.37 L1387.29 1070.36 L1385.36 1072.39 L1383.44 1074.44 L1381.52 1076.53 L1379.59 1078.64 L1377.67 1080.78 L1375.74 1082.95 L1373.82 1085.14 L1371.9 1087.36 L1369.97 1089.6 L1368.05 1091.87 L1366.12 1094.15 L1364.2 1096.46 L1362.28 1098.79 L1360.35 1101.13 L1358.43 1103.49 L1356.5 1105.86 L1354.58 1108.25 L1352.66 1110.65 L1350.73 1113.06 L1348.81 1115.48 L1346.88 1117.91 L1344.96 1120.34 L1343.04 1122.79 L1341.11 1125.23 L1339.19 1127.69 L1337.26 1130.14 L1335.34 1132.6 L1333.42 1135.06 L1331.49 1137.51 L1329.57 1139.97 L1327.64 1142.42 L1325.72 1144.86 L1323.8 1147.3 L1321.87 1149.72 L1319.95 1152.14 L1318.02 1154.55 L1316.1 1156.94 L1314.18 1159.31 L1312.25 1161.67 L1310.33 1164.02 L1308.4 1166.34 L1306.48 1168.64 L1304.56 1170.93 L1302.63 1173.18 L1300.71 1175.42 L1298.78 1177.63 L1296.86 1179.81 L1294.94 1181.96 L1293.01 1184.08 L1291.09 1186.18 L1289.16 1188.23 L1287.24 1190.26 L1285.32 1192.24 L1283.39 1194.19 L1281.47 1196.1 L1279.54 1197.97 L1277.62 1199.79 L1275.7 1201.58 L1273.77 1203.31 L1271.85 1205 L1269.92 1206.64 L1268 1208.23 L1266.08 1209.77 L1264.15 1211.25 L1262.23 1212.69 L1260.3 1214.07 L1258.38 1215.39 L1256.46 1216.65 L1254.53 1217.86 L1252.61 1219.01 L1250.68 1220.09 L1248.76 1221.11 L1246.84 1222.07 L1244.91 1222.96 L1242.99 1223.78 L1241.06 1224.54 L1239.14 1225.22 L1237.22 1225.83 L1235.29 1226.37 L1233.37 1226.84 L1231.44 1227.23 L1229.52 1227.55 L1227.6 1227.79 L1225.67 1227.95 L1223.75 1228.03 L1221.82 1228.04 L1219.9 1227.96 L1217.98 1227.8 L1216.05 1227.56 L1214.13 1227.23 L1212.2 1226.82 L1210.28 1226.32 L1208.36 1225.73 L1206.43 1225.06 L1204.51 1224.3 L1202.58 1223.44 L1200.66 1222.5 L1198.74 1221.47 L1196.81 1220.34 L1194.89 1219.12 L1192.96 1217.81 L1191.04 1216.4 L1189.12 1214.89 L1187.19 1213.3 L1185.27 1211.6 L1183.34 1209.81 L1181.42 1207.92 L1179.5 1205.93 L1177.57 1203.85 L1175.65 1201.67 L1173.72 1199.38 L1171.8 1197 L1169.88 1194.52 L1167.95 1191.94 L1166.03 1189.25 L1164.1 1186.47 L1162.18 1183.58 L1160.25 1180.6 L1158.33 1177.51 L1156.41 1174.32 L1154.48 1171.03 L1152.56 1167.64 L1150.63 1164.14 L1148.71 1160.55 L1146.79 1156.85 L1144.86 1153.05 L1142.94 1149.15 L1141.01 1145.15 L1139.09 1141.04 L1137.17 1136.84 L1135.24 1132.53 L1133.32 1128.13 L1131.39 1123.62 L1129.47 1119.01 L1127.55 1114.31 L1125.62 1109.5 L1123.7 1104.6 L1121.77 1099.6 L1119.85 1094.5 L1117.93 1089.31 L1116 1084.02 L1114.08 1078.63 L1112.15 1073.15 L1110.23 1067.58 L1108.31 1061.91 L1106.38 1056.14 L1104.46 1050.29 L1102.53 1044.34 L1100.61 1038.31 L1098.69 1032.18 L1096.76 1025.96 L1094.84 1019.66 L1092.91 1013.27 L1090.99 1006.8 L1089.07 1000.24 L1087.14 993.598 L1085.22 986.876 L1083.29 980.073 L1081.37 973.191 L1079.45 966.231 L1077.52 959.194 L1075.6 952.082 L1073.67 944.896 L1071.75 937.636 L1069.83 930.305 L1067.9 922.903 L1065.98 915.432 L1064.05 907.894 L1062.13 900.289 L1060.21 892.62 L1058.28 884.888 L1056.36 877.095 L1054.43 869.243 L1052.51 861.334 L1050.59 853.369 L1048.66 845.351 L1046.74 837.28 L1044.81 829.158 L1042.89 820.988 L1040.97 812.772 L1039.04 804.509 L1037.12 796.204 L1035.19 787.857 L1033.27 779.47 L1031.35 771.044 L1029.42 762.582 L1027.5 754.086 L1025.57 745.556 L1023.65 736.996 L1021.73 728.407 L1019.8 719.792 L1017.88 711.153 L1015.95 702.492 L1014.03 693.812 L1012.11 685.114 L1010.18 676.401 L1008.26 667.676 L1006.33 658.939 L1004.41 650.194 L1002.49 641.442 L1000.56 632.686 L998.638 623.928 L996.714 615.169 L994.79 606.412 L992.866 597.659 L990.942 588.912 L989.018 580.173 L987.094 571.443 L985.17 562.726 L983.246 554.024 L981.322 545.339 L979.398 536.674 L977.474 528.031 L975.55 519.412 L973.626 510.821 L971.702 502.258 L969.778 493.727 L967.854 485.229 L965.93 476.767 L964.006 468.343 L962.082 459.96 L960.158 451.618 L958.234 443.321 L956.31 435.071 L954.386 426.869 L952.462 418.718 L950.538 410.619 L948.614 402.575 L946.69 394.588 L944.766 386.661 L942.842 378.795 L940.918 370.992 L938.994 363.257 L937.07 355.589 L935.146 347.992 L933.222 340.468 L931.298 333.019 L929.374 325.647 L927.45 318.354 L925.526 311.141 L923.602 304.012 L921.678 296.967 L919.754 290.009 L917.83 283.139 L915.906 276.36 L913.982 269.673 L912.058 263.079 L910.134 256.582 L908.21 250.181 L906.286 243.88 L904.362 237.68 L902.438 231.583 L900.514 225.591 L898.59 219.706 L896.666 213.929 L894.742 208.263 L892.818 202.708 L890.894 197.266 L888.97 191.939 L887.046 186.729 L885.122 181.636 L883.198 176.662 L881.274 171.809 L879.35 167.078 L877.426 162.47 L875.502 157.986 L873.578 153.628 L871.654 149.396 L869.73 145.293 L867.806 141.319 L865.882 137.476 L863.958 133.764 L862.034 130.184 L860.11 126.739 L858.186 123.429 L856.262 120.254 L854.338 117.216 L852.414 114.315 L850.49 111.554 L848.566 108.931 L846.641 106.448 L844.717 104.107 L842.793 101.906 L840.869 99.8478 L838.945 97.9321 L837.021 96.1597 L835.097 94.531 L833.173 93.0465 L831.249 91.7065 L829.325 90.5113 L827.401 89.4612 L825.477 88.5564 L823.553 87.797 L821.629 87.1833 L819.705 86.7152 L817.781 86.3928 L815.857 86.2163 L813.933 86.1857 L812.009 86.3008 L810.085 86.5617 L808.161 86.9682 L806.237 87.5203 L804.313 88.2177 L802.389 89.0604 L800.465 90.048 L798.541 91.1804 L796.617 92.4573 L794.693 93.8783 L792.769 95.4429 L790.845 97.1507 L788.921 99.001 L786.997 100.993 L785.073 103.127 L783.149 105.401 L781.225 107.815 L779.301 110.369 L777.377 113.061 L775.453 115.891 L773.529 118.859 L771.605 121.963 L769.681 125.202 L767.757 128.576 L765.833 132.085 L763.909 135.726 L761.985 139.5 L760.061 143.406 L758.137 147.441 L756.213 151.607 L754.289 155.9 L752.365 160.32 L750.441 164.864 L748.517 169.53 L746.593 174.318 L744.669 179.226 L742.745 184.251 L740.821 189.393 L738.897 194.649 L736.973 200.018 L735.049 205.499 L733.125 211.089 L731.201 216.788 L729.277 222.593 L727.353 228.503 L725.429 234.517 L723.505 240.633 L721.581 246.85 L719.657 253.165 L717.733 259.578 L715.809 266.086 L713.885 272.687 L711.961 279.381 L710.037 286.164 L708.113 293.035 L706.189 299.992 L704.265 307.034 L702.341 314.158 L700.417 321.363 L698.493 328.647 L696.569 336.008 L694.645 343.446 L692.721 350.957 L690.797 358.541 L688.873 366.195 L686.949 373.919 L685.025 381.711 L683.101 389.569 L681.177 397.492 L679.253 405.478 L677.329 413.523 L675.405 421.625 L673.481 429.779 L671.557 437.983 L669.633 446.233 L667.709 454.526 L665.785 462.86 L663.861 471.232 L661.937 479.639 L660.013 488.078 L658.089 496.548 L656.165 505.045 L654.241 513.567 L652.317 522.113 L650.393 530.68 L648.469 539.266 L646.545 547.87 L644.621 556.49 L642.697 565.123 L640.773 573.769 L638.849 582.427 L636.924 591.096 L635 599.776 L633.076 608.466 L631.152 617.164 L629.228 625.872 L627.304 634.588 L625.38 643.313 L623.456 652.044 L621.532 660.783 L619.608 669.529 L617.684 678.281 L615.76 687.039 L613.836 695.803 L611.912 704.573 L609.988 713.348 L608.064 722.128 L606.14 730.914 L604.216 739.704 L602.292 748.497 L600.368 757.285 L598.444 766.059 L596.52 774.809 L594.596 783.529 L592.672 792.211 L590.748 800.848 L588.824 809.433 L586.9 817.962 L584.976 826.429 L583.052 834.83 L581.128 843.161 L579.204 851.418 L577.28 859.598 L575.356 867.7 L573.432 875.72 L571.508 883.657 L569.584 891.51 L567.66 899.279 L565.736 906.962 L563.812 914.563 L561.888 922.093 L559.964 929.564 L558.04 936.989 L556.116 944.38 L554.192 951.748 L552.268 959.102 L550.344 966.454 L548.42 973.811 L546.496 981.183 L544.572 988.577 L542.648 996.002 L540.724 1003.46 L538.8 1010.97 L536.876 1018.52 L534.952 1026.12 L533.028 1033.79 L531.104 1041.51 L529.18 1049.31 L527.256 1057.17 L525.332 1065.09 L523.408 1073.04 L521.484 1080.95 L519.56 1088.8 L517.636 1096.54 L515.712 1104.13 L513.788 1111.56 L511.864 1118.79 L509.94 1125.8 L508.016 1132.58 L506.092 1139.11 L504.168 1145.39 L502.244 1151.4 L500.32 1157.14 L498.396 1162.61 L496.472 1167.82 L494.548 1172.76 L492.624 1177.45 L490.7 1181.9 L488.776 1186.12 L486.852 1190.14 L484.928 1194.01 L483.004 1197.81 L481.08 1201.6 L479.156 1205.44 L477.232 1209.39 L475.308 1213.48 L473.384 1217.77 L471.46 1222.28 L469.536 1227.06 L467.612 1232.12 L465.688 1237.5 L463.764 1243.21 L461.84 1249.26 L459.916 1255.67 L457.992 1262.45 L456.068 1269.6 L454.144 1277.11 L452.22 1284.99 L450.296 1293.22  Z" fill="#009af9" fill-rule="evenodd" fill-opacity="0.5"/>
<polyline clip-path="url(#clip641)" style="stroke:#009af9; stroke-linecap:round; stroke-linejoin:round; stroke-width:4; stroke-opacity:1; fill:none" points="450.296,1338.73 452.22,1331.12 454.144,1323.82 456.068,1316.83 457.992,1310.15 459.916,1303.79 461.84,1297.74 463.764,1292.01 465.688,1286.57 467.612,1281.43 469.536,1276.56 471.46,1271.94 473.384,1267.56 475.308,1263.38 477.232,1259.37 479.156,1255.49 481.08,1251.71 483.004,1247.97 484.928,1244.23 486.852,1240.43 488.776,1236.5 490.7,1232.39 492.624,1228.08 494.548,1223.56 496.472,1218.81 498.396,1213.83 500.32,1208.61 502.244,1203.15 504.168,1197.45 506.092,1191.51 508.016,1185.34 509.94,1178.95 511.864,1172.34 513.788,1165.54 515.712,1158.56 517.636,1151.42 519.56,1144.16 521.484,1136.79 523.408,1129.35 525.332,1121.89 527.256,1114.44 529.18,1107.05 531.104,1099.71 533.028,1092.43 534.952,1085.21 536.876,1078.03 538.8,1070.9 540.724,1063.81 542.648,1056.76 544.572,1049.74 546.496,1042.74 548.42,1035.76 550.344,1028.79 552.268,1021.83 554.192,1014.86 556.116,1007.87 558.04,1000.86 559.964,993.824 561.888,986.74 563.812,979.6 565.736,972.394 567.66,965.11 569.584,957.747 571.508,950.304 573.432,942.783 575.356,935.184 577.28,927.509 579.204,919.76 581.128,911.938 583.052,904.047 584.976,896.089 586.9,888.068 588.824,879.989 590.748,871.855 592.672,863.672 594.596,855.446 596.52,847.182 598.444,838.888 600.368,830.571 602.292,822.238 604.216,813.898 606.14,805.558 608.064,797.221 609.988,788.886 611.912,780.553 613.836,772.224 615.76,763.897 617.684,755.574 619.608,747.255 621.532,738.939 623.456,730.628 625.38,722.321 627.304,714.02 629.228,705.723 631.152,697.433 633.076,689.149 635,680.872 636.924,672.602 638.849,664.34 640.773,656.087 642.697,647.843 644.621,639.609 646.545,631.386 648.469,623.176 650.393,614.98 652.317,606.801 654.241,598.64 656.165,590.499 658.089,582.38 660.013,574.285 661.937,566.217 663.861,558.177 665.785,550.168 667.709,542.193 669.633,534.254 671.557,526.354 673.481,518.496 675.405,510.682 677.329,502.916 679.253,495.201 681.177,487.54 683.101,479.936 685.025,472.391 686.949,464.907 688.873,457.485 690.797,450.126 692.721,442.832 694.645,435.604 696.569,428.445 698.493,421.355 700.417,414.336 702.341,407.39 704.265,400.519 706.189,393.723 708.113,387.006 710.037,380.367 711.961,373.811 713.885,367.337 715.809,360.948 717.733,354.645 719.657,348.431 721.581,342.308 723.505,336.276 725.429,330.338 727.353,324.494 729.277,318.746 731.201,313.097 733.125,307.546 735.049,302.097 736.973,296.749 738.897,291.506 740.821,286.368 742.745,281.336 744.669,276.414 746.593,271.601 748.517,266.9 750.441,262.313 752.365,257.84 754.289,253.484 756.213,249.246 758.137,245.127 760.061,241.13 761.985,237.256 763.909,233.504 765.833,229.877 767.757,226.375 769.681,222.998 771.605,219.748 773.529,216.626 775.453,213.632 777.377,210.767 779.301,208.031 781.225,205.426 783.149,202.953 785.073,200.611 786.997,198.401 788.921,196.325 790.845,194.382 792.769,192.574 794.693,190.901 796.617,189.363 798.541,187.961 800.465,186.696 802.389,185.567 804.313,184.576 806.237,183.721 808.161,183.004 810.085,182.425 812.009,181.983 813.933,181.68 815.857,181.514 817.781,181.486 819.705,181.596 821.629,181.845 823.553,182.231 825.477,182.756 827.401,183.418 829.325,184.218 831.249,185.156 833.173,186.231 835.097,187.444 837.021,188.793 838.945,190.279 840.869,191.901 842.793,193.658 844.717,195.551 846.641,197.578 848.566,199.739 850.49,202.033 852.414,204.46 854.338,207.018 856.262,209.708 858.186,212.528 860.11,215.477 862.034,218.555 863.958,221.761 865.882,225.093 867.806,228.551 869.73,232.133 871.654,235.839 873.578,239.667 875.502,243.616 877.426,247.685 879.35,251.874 881.274,256.18 883.198,260.602 885.122,265.14 887.046,269.793 888.97,274.558 890.894,279.434 892.818,284.42 894.742,289.516 896.666,294.718 898.59,300.026 900.514,305.438 902.438,310.953 904.362,316.568 906.286,322.283 908.21,328.095 910.134,334.002 912.058,340.004 913.982,346.097 915.906,352.281 917.83,358.554 919.754,364.914 921.678,371.359 923.602,377.888 925.526,384.499 927.45,391.19 929.374,397.96 931.298,404.806 933.222,411.726 935.146,418.72 937.07,425.783 938.994,432.916 940.918,440.115 942.842,447.379 944.766,454.705 946.69,462.091 948.614,469.535 950.538,477.035 952.462,484.588 954.386,492.193 956.31,499.848 958.234,507.55 960.158,515.299 962.082,523.091 964.006,530.925 965.93,538.799 967.854,546.711 969.778,554.658 971.702,562.64 973.626,570.652 975.55,578.695 977.474,586.764 979.398,594.858 981.322,602.975 983.246,611.112 985.17,619.268 987.094,627.439 989.018,635.624 990.942,643.82 992.866,652.025 994.79,660.237 996.714,668.455 998.638,676.676 1000.56,684.899 1002.49,693.121 1004.41,701.34 1006.33,709.555 1008.26,717.763 1010.18,725.963 1012.11,734.152 1014.03,742.328 1015.95,750.49 1017.88,758.634 1019.8,766.76 1021.73,774.864 1023.65,782.945 1025.57,791.001 1027.5,799.028 1029.42,807.026 1031.35,814.993 1033.27,822.926 1035.19,830.825 1037.12,838.687 1039.04,846.511 1040.97,854.295 1042.89,862.037 1044.81,869.736 1046.74,877.391 1048.66,884.999 1050.59,892.559 1052.51,900.069 1054.43,907.527 1056.36,914.932 1058.28,922.283 1060.21,929.576 1062.13,936.812 1064.05,943.987 1065.98,951.101 1067.9,958.152 1069.83,965.138 1071.75,972.058 1073.67,978.912 1075.6,985.697 1077.52,992.412 1079.45,999.057 1081.37,1005.63 1083.29,1012.13 1085.22,1018.56 1087.14,1024.91 1089.07,1031.18 1090.99,1037.38 1092.91,1043.49 1094.84,1049.53 1096.76,1055.49 1098.69,1061.36 1100.61,1067.15 1102.53,1072.86 1104.46,1078.48 1106.38,1084.01 1108.31,1089.46 1110.23,1094.82 1112.15,1100.09 1114.08,1105.27 1116,1110.37 1117.93,1115.37 1119.85,1120.28 1121.77,1125.1 1123.7,1129.83 1125.62,1134.47 1127.55,1139.01 1129.47,1143.46 1131.39,1147.81 1133.32,1152.07 1135.24,1156.24 1137.17,1160.31 1139.09,1164.29 1141.01,1168.17 1142.94,1171.96 1144.86,1175.64 1146.79,1179.24 1148.71,1182.73 1150.63,1186.13 1152.56,1189.43 1154.48,1192.64 1156.41,1195.75 1158.33,1198.76 1160.25,1201.68 1162.18,1204.5 1164.1,1207.23 1166.03,1209.86 1167.95,1212.39 1169.88,1214.83 1171.8,1217.17 1173.72,1219.42 1175.65,1221.57 1177.57,1223.63 1179.5,1225.6 1181.42,1227.47 1183.34,1229.25 1185.27,1230.94 1187.19,1232.53 1189.12,1234.03 1191.04,1235.44 1192.96,1236.77 1194.89,1238 1196.81,1239.14 1198.74,1240.2 1200.66,1241.16 1202.58,1242.04 1204.51,1242.83 1206.43,1243.54 1208.36,1244.16 1210.28,1244.7 1212.2,1245.16 1214.13,1245.53 1216.05,1245.82 1217.98,1246.03 1219.9,1246.17 1221.82,1246.22 1223.75,1246.2 1225.67,1246.1 1227.6,1245.93 1229.52,1245.68 1231.44,1245.36 1233.37,1244.96 1235.29,1244.5 1237.22,1243.96 1239.14,1243.36 1241.06,1242.69 1242.99,1241.95 1244.91,1241.14 1246.84,1240.27 1248.76,1239.34 1250.68,1238.34 1252.61,1237.29 1254.53,1236.17 1256.46,1235 1258.38,1233.78 1260.3,1232.49 1262.23,1231.16 1264.15,1229.77 1266.08,1228.33 1268,1226.84 1269.92,1225.3 1271.85,1223.71 1273.77,1222.08 1275.7,1220.4 1277.62,1218.68 1279.54,1216.92 1281.47,1215.11 1283.39,1213.27 1285.32,1211.39 1287.24,1209.47 1289.16,1207.51 1291.09,1205.52 1293.01,1203.51 1294.94,1201.46 1296.86,1199.38 1298.78,1197.27 1300.71,1195.14 1302.63,1192.98 1304.56,1190.8 1306.48,1188.6 1308.4,1186.38 1310.33,1184.14 1312.25,1181.88 1314.18,1179.6 1316.1,1177.3 1318.02,1174.99 1319.95,1172.67 1321.87,1170.34 1323.8,1168 1325.72,1165.65 1327.64,1163.29 1329.57,1160.92 1331.49,1158.55 1333.42,1156.18 1335.34,1153.81 1337.26,1151.44 1339.19,1149.07 1341.11,1146.7 1343.04,1144.34 1344.96,1141.98 1346.88,1139.62 1348.81,1137.28 1350.73,1134.94 1352.66,1132.61 1354.58,1130.29 1356.5,1127.99 1358.43,1125.69 1360.35,1123.41 1362.28,1121.15 1364.2,1118.9 1366.12,1116.67 1368.05,1114.46 1369.97,1112.27 1371.9,1110.1 1373.82,1107.95 1375.74,1105.83 1377.67,1103.73 1379.59,1101.66 1381.52,1099.61 1383.44,1097.59 1385.36,1095.6 1387.29,1093.64 1389.21,1091.71 1391.14,1089.81 1393.06,1087.94 1394.98,1086.1 1396.91,1084.3 1398.83,1082.53 1400.76,1080.79 1402.68,1079.09 1404.6,1077.43 1406.53,1075.8 1408.45,1074.21 1410.38,1072.66 1412.3,1071.15 1414.22,1069.68 1416.15,1068.25 1418.07,1066.86 1420,1065.52 1421.92,1064.22 1423.84,1062.96 1425.77,1061.74 1427.69,1060.57 1429.62,1059.44 1431.54,1058.35 1433.46,1057.31 1435.39,1056.31 1437.31,1055.36 1439.24,1054.46 1441.16,1053.6 1443.08,1052.79 1445.01,1052.02 1446.93,1051.3 1448.86,1050.63 1450.78,1050.01 1452.7,1049.44 1454.63,1048.91 1456.55,1048.44 1458.48,1048.01 1460.4,1047.63 1462.32,1047.3 1464.25,1047.01 1466.17,1046.78 1468.1,1046.59 1470.02,1046.45 1471.94,1046.36 1473.87,1046.32 1475.79,1046.33 1477.72,1046.38 1479.64,1046.48 1481.56,1046.63 1483.49,1046.83 1485.41,1047.07 1487.34,1047.36 1489.26,1047.7 1491.18,1048.09 1493.11,1048.52 1495.03,1049 1496.96,1049.52 1498.88,1050.09 1500.8,1050.71 1502.73,1051.37 1504.65,1052.07 1506.58,1052.82 1508.5,1053.61 1510.42,1054.45 1512.35,1055.33 1514.27,1056.25 1516.2,1057.21 1518.12,1058.21 1520.04,1059.25 1521.97,1060.33 1523.89,1061.45 1525.82,1062.61 1527.74,1063.81 1529.66,1065.05 1531.59,1066.32 1533.51,1067.63 1535.44,1068.98 1537.36,1070.36 1539.28,1071.77 1541.21,1073.22 1543.13,1074.7 1545.06,1076.22 1546.98,1077.76 1548.9,1079.34 1550.83,1080.94 1552.75,1082.58 1554.68,1084.24 1556.6,1085.93 1558.52,1087.65 1560.45,1089.39 1562.37,1091.16 1564.3,1092.95 1566.22,1094.77 1568.14,1096.61 1570.07,1098.47 1571.99,1100.35 1573.92,1102.25 1575.84,1104.18 1577.76,1106.12 1579.69,1108.07 1581.61,1110.05 1583.54,1112.04 1585.46,1114.04 1587.39,1116.06 1589.31,1118.09 1591.23,1120.14 1593.16,1122.19 1595.08,1124.26 1597.01,1126.34 1598.93,1128.42 1600.85,1130.51 1602.78,1132.61 1604.7,1134.71 1606.63,1136.82 1608.55,1138.93 1610.47,1141.05 1612.4,1143.16 1614.32,1145.28 1616.25,1147.4 1618.17,1149.52 1620.09,1151.63 1622.02,1153.75 1623.94,1155.86 1625.87,1157.97 1627.79,1160.07 1629.71,1162.17 1631.64,1164.26 1633.56,1166.34 1635.49,1168.41 1637.41,1170.48 1639.33,1172.53 1641.26,1174.57 1643.18,1176.6 1645.11,1178.62 1647.03,1180.62 1648.95,1182.61 1650.88,1184.58 1652.8,1186.54 1654.73,1188.48 1656.65,1190.4 1658.57,1192.31 1660.5,1194.19 1662.42,1196.06 1664.35,1197.9 1666.27,1199.73 1668.19,1201.53 1670.12,1203.31 1672.04,1205.06 1673.97,1206.79 1675.89,1208.5 1677.81,1210.18 1679.74,1211.84 1681.66,1213.46 1683.59,1215.06 1685.51,1216.64 1687.43,1218.18 1689.36,1219.69 1691.28,1221.17 1693.21,1222.62 1695.13,1224.05 1697.05,1225.44 1698.98,1226.79 1700.9,1228.12 1702.83,1229.41 1704.75,1230.67 1706.67,1231.9 1708.6,1233.09 1710.52,1234.25 1712.45,1235.37 1714.37,1236.46 1716.29,1237.51 1718.22,1238.53 1720.14,1239.5 1722.07,1240.44 1723.99,1241.35 1725.91,1242.21 1727.84,1243.04 1729.76,1243.83 1731.69,1244.58 1733.61,1245.29 1735.53,1245.96 1737.46,1246.59 1739.38,1247.19 1741.31,1247.75 1743.23,1248.26 1745.15,1248.74 1747.08,1249.18 1749,1249.58 1750.93,1249.93 1752.85,1250.25 1754.77,1250.53 1756.7,1250.77 1758.62,1250.97 1760.55,1251.12 1762.47,1251.24 1764.39,1251.32 1766.32,1251.35 1768.24,1251.35 1770.17,1251.31 1772.09,1251.23 1774.01,1251.1 1775.94,1250.94 1777.86,1250.74 1779.79,1250.5 1781.71,1250.23 1783.63,1249.91 1785.56,1249.55 1787.48,1249.16 1789.41,1248.73 1791.33,1248.26 1793.25,1247.76 1795.18,1247.21 1797.1,1246.63 1799.03,1246.02 1800.95,1245.36 1802.87,1244.67 1804.8,1243.95 1806.72,1243.19 1808.65,1242.39 1810.57,1241.56 1812.49,1240.7 1814.42,1239.8 1816.34,1238.88 1818.27,1237.91 1820.19,1236.92 1822.11,1235.9 1824.04,1234.84 1825.96,1233.75 1827.89,1232.64 1829.81,1231.49 1831.73,1230.32 1833.66,1229.11 1835.58,1227.88 1837.51,1226.62 1839.43,1225.34 1841.35,1224.03 1843.28,1222.69 1845.2,1221.33 1847.13,1219.94 1849.05,1218.53 1850.97,1217.1 1852.9,1215.65 1854.82,1214.17 1856.75,1212.67 1858.67,1211.16 1860.59,1209.62 1862.52,1208.06 1864.44,1206.49 1866.37,1204.9 1868.29,1203.29 1870.21,1201.66 1872.14,1200.02 1874.06,1198.37 1875.99,1196.7 1877.91,1195.02 1879.83,1193.33 1881.76,1191.62 1883.68,1189.91 1885.61,1188.18 1887.53,1186.44 1889.45,1184.7 1891.38,1182.95 1893.3,1181.19 1895.23,1179.42 1897.15,1177.65 1899.07,1175.87 1901,1174.09 1902.92,1172.31 1904.85,1170.52 1906.77,1168.74 1908.69,1166.95 1910.62,1165.16 1912.54,1163.37 1914.47,1161.59 1916.39,1159.8 1918.31,1158.02 1920.24,1156.25 1922.16,1154.48 1924.09,1152.71 1926.01,1150.95 1927.93,1149.19 1929.86,1147.45 1931.78,1145.71 1933.71,1143.98 1935.63,1142.26 1937.55,1140.55 1939.48,1138.85 1941.4,1137.17 1943.33,1135.5 1945.25,1133.84 1947.17,1132.19 1949.1,1130.56 1951.02,1128.95 1952.95,1127.35 1954.87,1125.77 1956.79,1124.21 1958.72,1122.66 1960.64,1121.14 1962.57,1119.63 1964.49,1118.15 1966.41,1116.69 1968.34,1115.24 1970.26,1113.82 1972.19,1112.43 1974.11,1111.05 1976.03,1109.7 1977.96,1108.38 1979.88,1107.08 1981.81,1105.81 1983.73,1104.56 1985.65,1103.34 1987.58,1102.15 1989.5,1100.98 1991.43,1099.85 1993.35,1098.74 1995.27,1097.67 1997.2,1096.62 1999.12,1095.61 2001.05,1094.63 2002.97,1093.68 2004.9,1092.76 2006.82,1091.87 2008.74,1091.02 2010.67,1090.2 2012.59,1089.41 2014.52,1088.66 2016.44,1087.94 2018.36,1087.25 2020.29,1086.6 2022.21,1085.99 2024.14,1085.41 2026.06,1084.87 2027.98,1084.37 2029.91,1083.9 2031.83,1083.48 2033.76,1083.09 2035.68,1082.73 2037.6,1082.42 2039.53,1082.14 2041.45,1081.9 2043.38,1081.7 2045.3,1081.54 2047.22,1081.42 2049.15,1081.33 2051.07,1081.29 2053,1081.28 2054.92,1081.32 2056.84,1081.39 2058.77,1081.5 2060.69,1081.65 2062.62,1081.85 2064.54,1082.08 2066.46,1082.35 2068.39,1082.66 2070.31,1083.02 2072.24,1083.41 2074.16,1083.84 2076.08,1084.32 2078.01,1084.83 2079.93,1085.38 2081.86,1085.97 2083.78,1086.61 2085.7,1087.28 2087.63,1087.99 2089.55,1088.74 2091.48,1089.52 2093.4,1090.35 2095.32,1091.22 2097.25,1092.12 2099.17,1093.06 2101.1,1094.04 2103.02,1095.06 2104.94,1096.12 2106.87,1097.22 2108.79,1098.35 2110.72,1099.52 2112.64,1100.72 2114.56,1101.97 2116.49,1103.25 2118.41,1104.56 2120.34,1105.91 2122.26,1107.3 2124.18,1108.72 2126.11,1110.18 2128.03,1111.67 2129.96,1113.19 2131.88,1114.75 2133.8,1116.34 2135.73,1117.96 2137.65,1119.61 2139.58,1121.3 2141.5,1123.02 2143.42,1124.77 2145.35,1126.55 2147.27,1128.36 2149.2,1130.2 2151.12,1132.07 2153.04,1133.97 2154.97,1135.9 2156.89,1137.85 2158.82,1139.83 2160.74,1141.84 2162.66,1143.88 2164.59,1145.93 2166.51,1148.02 2168.44,1150.13 2170.36,1152.26 2172.28,1154.41 2174.21,1156.59 2176.13,1158.79 2178.06,1161.01 2179.98,1163.25 2181.9,1165.51 2183.83,1167.8 2185.75,1170.1 2187.68,1172.41 2189.6,1174.75 2191.52,1177.1 2193.45,1179.47 2195.37,1181.86 2197.3,1184.27 2199.22,1186.68 2201.14,1189.12 2203.07,1191.57 2204.99,1194.03 2206.92,1196.51 2208.84,1198.99 2210.76,1201.5 2212.69,1204.01 2214.61,1206.53 2216.54,1209.07 2218.46,1211.62 2220.38,1214.17 2222.31,1216.74 2224.23,1219.31 2226.16,1221.89 2228.08,1224.47 2230,1227.07 2231.93,1229.66 2233.85,1232.26 2235.78,1234.86 2237.7,1237.46 2239.62,1240.06 2241.55,1242.66 2243.47,1245.26 2245.4,1247.85 2247.32,1250.44 2249.24,1253.02 2251.17,1255.59 2253.09,1258.16 2255.02,1260.72 2256.94,1263.27 2258.86,1265.8 2260.79,1268.33 2262.71,1270.84 2264.64,1273.34 2266.56,1275.83 2268.48,1278.32 2270.41,1280.79 2272.33,1283.26 2274.26,1285.73 2276.18,1288.19 2278.1,1290.66 2280.03,1293.12 2281.95,1295.58 2283.88,1298.04 2285.8,1300.5 2287.72,1302.97 2289.65,1305.45 2291.57,1307.93 2293.5,1310.41 2295.42,1312.91 2297.34,1315.42 "/>
<path clip-path="url(#clip640)" d="M1907.68 196.789 L2287.49 196.789 L2287.49 93.1086 L1907.68 93.1086  Z" fill="#ffffff" fill-rule="evenodd" fill-opacity="1"/>
<polyline clip-path="url(#clip640)" style="stroke:#000000; stroke-linecap:round; stroke-linejoin:round; stroke-width:4; stroke-opacity:1; fill:none" points="1907.68,196.789 2287.49,196.789 2287.49,93.1086 1907.68,93.1086 1907.68,196.789 "/>
<polyline clip-path="url(#clip640)" style="stroke:#009af9; stroke-linecap:round; stroke-linejoin:round; stroke-width:4; stroke-opacity:1; fill:none" points="1929.43,144.949 2059.96,144.949 "/>
<path clip-path="url(#clip640)" d="M2086.39 131.511 L2086.39 158.386 L2092.04 158.386 Q2099.19 158.386 2102.5 155.145 Q2105.83 151.905 2105.83 144.914 Q2105.83 137.969 2102.5 134.752 Q2099.19 131.511 2092.04 131.511 L2086.39 131.511 M2081.71 127.669 L2091.32 127.669 Q2101.37 127.669 2106.06 131.858 Q2110.76 136.025 2110.76 144.914 Q2110.76 153.849 2106.04 158.039 Q2101.32 162.229 2091.32 162.229 L2081.71 162.229 L2081.71 127.669 Z" fill="#000000" fill-rule="nonzero" fill-opacity="1" /><path clip-path="url(#clip640)" d="M2116.39 142.067 L2119.07 142.067 L2119.07 162.229 L2116.39 162.229 L2116.39 142.067 Z" fill="#000000" fill-rule="nonzero" fill-opacity="1" /><path clip-path="url(#clip640)" d="M2158.31 132.507 L2158.31 141.465 L2171.2 141.465 L2171.2 145.4 L2158.31 145.4 L2158.31 154.358 L2154.42 154.358 L2154.42 145.4 L2141.53 145.4 L2141.53 141.465 L2154.42 141.465 L2154.42 132.507 L2158.31 132.507 M2141.53 158.293 L2171.2 158.293 L2171.2 162.229 L2141.53 162.229 L2141.53 158.293 Z" fill="#000000" fill-rule="nonzero" fill-opacity="1" /><path clip-path="url(#clip640)" d="M2207.5 132.275 L2198.01 158.34 L2217.01 158.34 L2207.5 132.275 M2191.67 162.229 L2204.86 127.669 L2210.16 127.669 L2223.33 162.229 L2191.67 162.229 Z" fill="#000000" fill-rule="nonzero" fill-opacity="1" /><path clip-path="url(#clip640)" d="M2233.05 131.511 L2233.05 158.386 L2238.7 158.386 Q2245.86 158.386 2249.17 155.145 Q2252.5 151.905 2252.5 144.914 Q2252.5 137.969 2249.17 134.752 Q2245.86 131.511 2238.7 131.511 L2233.05 131.511 M2228.38 127.669 L2237.98 127.669 Q2248.03 127.669 2252.73 131.858 Q2257.43 136.025 2257.43 144.914 Q2257.43 153.849 2252.71 158.039 Q2247.98 162.229 2237.98 162.229 L2228.38 162.229 L2228.38 127.669 Z" fill="#000000" fill-rule="nonzero" fill-opacity="1" /><path clip-path="url(#clip640)" d="M2263.05 142.067 L2265.74 142.067 L2265.74 162.229 L2263.05 162.229 L2263.05 142.067 Z" fill="#000000" fill-rule="nonzero" fill-opacity="1" /></svg>
