<?xml version="1.0" encoding="utf-8"?>
<svg xmlns="http://www.w3.org/2000/svg" xmlns:xlink="http://www.w3.org/1999/xlink" width="600" height="400" viewBox="0 0 2400 1600">
<defs>
  <clipPath id="clip620">
    <rect x="0" y="0" width="2400" height="1600"/>
  </clipPath>
</defs>
<path clip-path="url(#clip620)" d="M0 1600 L2400 1600 L2400 0 L0 0  Z" fill="#ffffff" fill-rule="evenodd" fill-opacity="1"/>
<defs>
  <clipPath id="clip621">
    <rect x="394" y="47" width="1959" height="1377"/>
  </clipPath>
</defs>
<path clip-path="url(#clip620)" d="M394.884 1423.18 L2352.76 1423.18 L2352.76 47.2441 L394.884 47.2441  Z" fill="#ffffff" fill-rule="evenodd" fill-opacity="1"/>
<polyline clip-path="url(#clip621)" style="stroke:#000000; stroke-linecap:round; stroke-linejoin:round; stroke-width:2; stroke-opacity:0.1; fill:none" points="758.137,1423.18 758.137,47.2441 "/>
<polyline clip-path="url(#clip621)" style="stroke:#000000; stroke-linecap:round; stroke-linejoin:round; stroke-width:2; stroke-opacity:0.1; fill:none" points="1142.94,1423.18 1142.94,47.2441 "/>
<polyline clip-path="url(#clip621)" style="stroke:#000000; stroke-linecap:round; stroke-linejoin:round; stroke-width:2; stroke-opacity:0.1; fill:none" points="1527.74,1423.18 1527.74,47.2441 "/>
<polyline clip-path="url(#clip621)" style="stroke:#000000; stroke-linecap:round; stroke-linejoin:round; stroke-width:2; stroke-opacity:0.1; fill:none" points="1912.54,1423.18 1912.54,47.2441 "/>
<polyline clip-path="url(#clip621)" style="stroke:#000000; stroke-linecap:round; stroke-linejoin:round; stroke-width:2; stroke-opacity:0.1; fill:none" points="2297.34,1423.18 2297.34,47.2441 "/>
<polyline clip-path="url(#clip621)" style="stroke:#000000; stroke-linecap:round; stroke-linejoin:round; stroke-width:2; stroke-opacity:0.1; fill:none" points="394.884,1272.85 2352.76,1272.85 "/>
<polyline clip-path="url(#clip621)" style="stroke:#000000; stroke-linecap:round; stroke-linejoin:round; stroke-width:2; stroke-opacity:0.1; fill:none" points="394.884,1095.56 2352.76,1095.56 "/>
<polyline clip-path="url(#clip621)" style="stroke:#000000; stroke-linecap:round; stroke-linejoin:round; stroke-width:2; stroke-opacity:0.1; fill:none" points="394.884,918.272 2352.76,918.272 "/>
<polyline clip-path="url(#clip621)" style="stroke:#000000; stroke-linecap:round; stroke-linejoin:round; stroke-width:2; stroke-opacity:0.1; fill:none" points="394.884,740.983 2352.76,740.983 "/>
<polyline clip-path="url(#clip621)" style="stroke:#000000; stroke-linecap:round; stroke-linejoin:round; stroke-width:2; stroke-opacity:0.1; fill:none" points="394.884,563.695 2352.76,563.695 "/>
<polyline clip-path="url(#clip621)" style="stroke:#000000; stroke-linecap:round; stroke-linejoin:round; stroke-width:2; stroke-opacity:0.1; fill:none" points="394.884,386.406 2352.76,386.406 "/>
<polyline clip-path="url(#clip621)" style="stroke:#000000; stroke-linecap:round; stroke-linejoin:round; stroke-width:2; stroke-opacity:0.1; fill:none" points="394.884,209.117 2352.76,209.117 "/>
<polyline clip-path="url(#clip620)" style="stroke:#000000; stroke-linecap:round; stroke-linejoin:round; stroke-width:4; stroke-opacity:1; fill:none" points="394.884,1423.18 2352.76,1423.18 "/>
<polyline clip-path="url(#clip620)" style="stroke:#000000; stroke-linecap:round; stroke-linejoin:round; stroke-width:4; stroke-opacity:1; fill:none" points="758.137,1423.18 758.137,1404.28 "/>
<polyline clip-path="url(#clip620)" style="stroke:#000000; stroke-linecap:round; stroke-linejoin:round; stroke-width:4; stroke-opacity:1; fill:none" points="1142.94,1423.18 1142.94,1404.28 "/>
<polyline clip-path="url(#clip620)" style="stroke:#000000; stroke-linecap:round; stroke-linejoin:round; stroke-width:4; stroke-opacity:1; fill:none" points="1527.74,1423.18 1527.74,1404.28 "/>
<polyline clip-path="url(#clip620)" style="stroke:#000000; stroke-linecap:round; stroke-linejoin:round; stroke-width:4; stroke-opacity:1; fill:none" points="1912.54,1423.18 1912.54,1404.28 "/>
<polyline clip-path="url(#clip620)" style="stroke:#000000; stroke-linecap:round; stroke-linejoin:round; stroke-width:4; stroke-opacity:1; fill:none" points="2297.34,1423.18 2297.34,1404.28 "/>
<path clip-path="url(#clip620)" d="M721.829 1481.64 L738.149 1481.64 L738.149 1485.58 L716.204 1485.58 L716.204 1481.64 Q718.866 1478.89 723.45 1474.26 Q728.056 1469.61 729.237 1468.27 Q731.482 1465.74 732.362 1464.01 Q733.265 1462.25 733.265 1460.56 Q733.265 1457.8 731.32 1456.07 Q729.399 1454.33 726.297 1454.33 Q724.098 1454.33 721.644 1455.09 Q719.214 1455.86 716.436 1457.41 L716.436 1452.69 Q719.26 1451.55 721.714 1450.97 Q724.167 1450.39 726.204 1450.39 Q731.575 1450.39 734.769 1453.08 Q737.964 1455.77 737.964 1460.26 Q737.964 1462.39 737.153 1464.31 Q736.366 1466.2 734.26 1468.8 Q733.681 1469.47 730.579 1472.69 Q727.478 1475.88 721.829 1481.64 Z" fill="#000000" fill-rule="nonzero" fill-opacity="1" /><path clip-path="url(#clip620)" d="M757.963 1454.1 Q754.352 1454.1 752.524 1457.66 Q750.718 1461.2 750.718 1468.33 Q750.718 1475.44 752.524 1479.01 Q754.352 1482.55 757.963 1482.55 Q761.598 1482.55 763.403 1479.01 Q765.232 1475.44 765.232 1468.33 Q765.232 1461.2 763.403 1457.66 Q761.598 1454.1 757.963 1454.1 M757.963 1450.39 Q763.774 1450.39 766.829 1455 Q769.908 1459.58 769.908 1468.33 Q769.908 1477.06 766.829 1481.67 Q763.774 1486.25 757.963 1486.25 Q752.153 1486.25 749.075 1481.67 Q746.019 1477.06 746.019 1468.33 Q746.019 1459.58 749.075 1455 Q752.153 1450.39 757.963 1450.39 Z" fill="#000000" fill-rule="nonzero" fill-opacity="1" /><path clip-path="url(#clip620)" d="M788.125 1454.1 Q784.514 1454.1 782.686 1457.66 Q780.88 1461.2 780.88 1468.33 Q780.88 1475.44 782.686 1479.01 Q784.514 1482.55 788.125 1482.55 Q791.76 1482.55 793.565 1479.01 Q795.394 1475.44 795.394 1468.33 Q795.394 1461.2 793.565 1457.66 Q791.76 1454.1 788.125 1454.1 M788.125 1450.39 Q793.935 1450.39 796.991 1455 Q800.07 1459.58 800.07 1468.33 Q800.07 1477.06 796.991 1481.67 Q793.935 1486.25 788.125 1486.25 Q782.315 1486.25 779.236 1481.67 Q776.181 1477.06 776.181 1468.33 Q776.181 1459.58 779.236 1455 Q782.315 1450.39 788.125 1450.39 Z" fill="#000000" fill-rule="nonzero" fill-opacity="1" /><path clip-path="url(#clip620)" d="M1116.03 1455.09 L1104.22 1473.54 L1116.03 1473.54 L1116.03 1455.09 M1114.8 1451.02 L1120.68 1451.02 L1120.68 1473.54 L1125.61 1473.54 L1125.61 1477.43 L1120.68 1477.43 L1120.68 1485.58 L1116.03 1485.58 L1116.03 1477.43 L1100.43 1477.43 L1100.43 1472.92 L1114.8 1451.02 Z" fill="#000000" fill-rule="nonzero" fill-opacity="1" /><path clip-path="url(#clip620)" d="M1143.34 1454.1 Q1139.73 1454.1 1137.9 1457.66 Q1136.1 1461.2 1136.1 1468.33 Q1136.1 1475.44 1137.9 1479.01 Q1139.73 1482.55 1143.34 1482.55 Q1146.98 1482.55 1148.78 1479.01 Q1150.61 1475.44 1150.61 1468.33 Q1150.61 1461.2 1148.78 1457.66 Q1146.98 1454.1 1143.34 1454.1 M1143.34 1450.39 Q1149.15 1450.39 1152.21 1455 Q1155.29 1459.58 1155.29 1468.33 Q1155.29 1477.06 1152.21 1481.67 Q1149.15 1486.25 1143.34 1486.25 Q1137.53 1486.25 1134.46 1481.67 Q1131.4 1477.06 1131.4 1468.33 Q1131.4 1459.58 1134.46 1455 Q1137.53 1450.39 1143.34 1450.39 Z" fill="#000000" fill-rule="nonzero" fill-opacity="1" /><path clip-path="url(#clip620)" d="M1173.51 1454.1 Q1169.89 1454.1 1168.07 1457.66 Q1166.26 1461.2 1166.26 1468.33 Q1166.26 1475.44 1168.07 1479.01 Q1169.89 1482.55 1173.51 1482.55 Q1177.14 1482.55 1178.95 1479.01 Q1180.77 1475.44 1180.77 1468.33 Q1180.77 1461.2 1178.95 1457.66 Q1177.14 1454.1 1173.51 1454.1 M1173.51 1450.39 Q1179.32 1450.39 1182.37 1455 Q1185.45 1459.58 1185.45 1468.33 Q1185.45 1477.06 1182.37 1481.67 Q1179.32 1486.25 1173.51 1486.25 Q1167.7 1486.25 1164.62 1481.67 Q1161.56 1477.06 1161.56 1468.33 Q1161.56 1459.58 1164.62 1455 Q1167.7 1450.39 1173.51 1450.39 Z" fill="#000000" fill-rule="nonzero" fill-opacity="1" /><path clip-path="url(#clip620)" d="M1498.06 1466.44 Q1494.92 1466.44 1493.07 1468.59 Q1491.24 1470.74 1491.24 1474.49 Q1491.24 1478.22 1493.07 1480.39 Q1494.92 1482.55 1498.06 1482.55 Q1501.21 1482.55 1503.04 1480.39 Q1504.89 1478.22 1504.89 1474.49 Q1504.89 1470.74 1503.04 1468.59 Q1501.21 1466.44 1498.06 1466.44 M1507.35 1451.78 L1507.35 1456.04 Q1505.59 1455.21 1503.78 1454.77 Q1502 1454.33 1500.24 1454.33 Q1495.61 1454.33 1493.16 1457.45 Q1490.73 1460.58 1490.38 1466.9 Q1491.75 1464.89 1493.81 1463.82 Q1495.87 1462.73 1498.34 1462.73 Q1503.55 1462.73 1506.56 1465.9 Q1509.59 1469.05 1509.59 1474.49 Q1509.59 1479.82 1506.44 1483.03 Q1503.3 1486.25 1498.06 1486.25 Q1492.07 1486.25 1488.9 1481.67 Q1485.73 1477.06 1485.73 1468.33 Q1485.73 1460.14 1489.62 1455.28 Q1493.5 1450.39 1500.06 1450.39 Q1501.81 1450.39 1503.6 1450.74 Q1505.4 1451.09 1507.35 1451.78 Z" fill="#000000" fill-rule="nonzero" fill-opacity="1" /><path clip-path="url(#clip620)" d="M1527.65 1454.1 Q1524.04 1454.1 1522.21 1457.66 Q1520.4 1461.2 1520.4 1468.33 Q1520.4 1475.44 1522.21 1479.01 Q1524.04 1482.55 1527.65 1482.55 Q1531.28 1482.55 1533.09 1479.01 Q1534.92 1475.44 1534.92 1468.33 Q1534.92 1461.2 1533.09 1457.66 Q1531.28 1454.1 1527.65 1454.1 M1527.65 1450.39 Q1533.46 1450.39 1536.51 1455 Q1539.59 1459.58 1539.59 1468.33 Q1539.59 1477.06 1536.51 1481.67 Q1533.46 1486.25 1527.65 1486.25 Q1521.84 1486.25 1518.76 1481.67 Q1515.7 1477.06 1515.7 1468.33 Q1515.7 1459.58 1518.76 1455 Q1521.84 1450.39 1527.65 1450.39 Z" fill="#000000" fill-rule="nonzero" fill-opacity="1" /><path clip-path="url(#clip620)" d="M1557.81 1454.1 Q1554.2 1454.1 1552.37 1457.66 Q1550.56 1461.2 1550.56 1468.33 Q1550.56 1475.44 1552.37 1479.01 Q1554.2 1482.55 1557.81 1482.55 Q1561.44 1482.55 1563.25 1479.01 Q1565.08 1475.44 1565.08 1468.33 Q1565.08 1461.2 1563.25 1457.66 Q1561.44 1454.1 1557.81 1454.1 M1557.81 1450.39 Q1563.62 1450.39 1566.68 1455 Q1569.75 1459.58 1569.75 1468.33 Q1569.75 1477.06 1566.68 1481.67 Q1563.62 1486.25 1557.81 1486.25 Q1552 1486.25 1548.92 1481.67 Q1545.87 1477.06 1545.87 1468.33 Q1545.87 1459.58 1548.92 1455 Q1552 1450.39 1557.81 1450.39 Z" fill="#000000" fill-rule="nonzero" fill-opacity="1" /><path clip-path="url(#clip620)" d="M1882.33 1469.17 Q1879 1469.17 1877.08 1470.95 Q1875.18 1472.73 1875.18 1475.86 Q1875.18 1478.98 1877.08 1480.77 Q1879 1482.55 1882.33 1482.55 Q1885.67 1482.55 1887.59 1480.77 Q1889.51 1478.96 1889.51 1475.86 Q1889.51 1472.73 1887.59 1470.95 Q1885.69 1469.17 1882.33 1469.17 M1877.66 1467.18 Q1874.65 1466.44 1872.96 1464.38 Q1871.29 1462.32 1871.29 1459.35 Q1871.29 1455.21 1874.23 1452.8 Q1877.2 1450.39 1882.33 1450.39 Q1887.5 1450.39 1890.44 1452.8 Q1893.38 1455.21 1893.38 1459.35 Q1893.38 1462.32 1891.69 1464.38 Q1890.02 1466.44 1887.03 1467.18 Q1890.41 1467.96 1892.29 1470.26 Q1894.19 1472.55 1894.19 1475.86 Q1894.19 1480.88 1891.11 1483.57 Q1888.05 1486.25 1882.33 1486.25 Q1876.62 1486.25 1873.54 1483.57 Q1870.48 1480.88 1870.48 1475.86 Q1870.48 1472.55 1872.38 1470.26 Q1874.28 1467.96 1877.66 1467.18 M1875.95 1459.79 Q1875.95 1462.48 1877.61 1463.98 Q1879.3 1465.49 1882.33 1465.49 Q1885.34 1465.49 1887.03 1463.98 Q1888.75 1462.48 1888.75 1459.79 Q1888.75 1457.11 1887.03 1455.6 Q1885.34 1454.1 1882.33 1454.1 Q1879.3 1454.1 1877.61 1455.6 Q1875.95 1457.11 1875.95 1459.79 Z" fill="#000000" fill-rule="nonzero" fill-opacity="1" /><path clip-path="url(#clip620)" d="M1912.5 1454.1 Q1908.89 1454.1 1907.06 1457.66 Q1905.25 1461.2 1905.25 1468.33 Q1905.25 1475.44 1907.06 1479.01 Q1908.89 1482.55 1912.5 1482.55 Q1916.13 1482.55 1917.94 1479.01 Q1919.76 1475.44 1919.76 1468.33 Q1919.76 1461.2 1917.94 1457.66 Q1916.13 1454.1 1912.5 1454.1 M1912.5 1450.39 Q1918.31 1450.39 1921.36 1455 Q1924.44 1459.58 1924.44 1468.33 Q1924.44 1477.06 1921.36 1481.67 Q1918.31 1486.25 1912.5 1486.25 Q1906.69 1486.25 1903.61 1481.67 Q1900.55 1477.06 1900.55 1468.33 Q1900.55 1459.58 1903.61 1455 Q1906.69 1450.39 1912.5 1450.39 Z" fill="#000000" fill-rule="nonzero" fill-opacity="1" /><path clip-path="url(#clip620)" d="M1942.66 1454.1 Q1939.05 1454.1 1937.22 1457.66 Q1935.41 1461.2 1935.41 1468.33 Q1935.41 1475.44 1937.22 1479.01 Q1939.05 1482.55 1942.66 1482.55 Q1946.29 1482.55 1948.1 1479.01 Q1949.93 1475.44 1949.93 1468.33 Q1949.93 1461.2 1948.1 1457.66 Q1946.29 1454.1 1942.66 1454.1 M1942.66 1450.39 Q1948.47 1450.39 1951.52 1455 Q1954.6 1459.58 1954.6 1468.33 Q1954.6 1477.06 1951.52 1481.67 Q1948.47 1486.25 1942.66 1486.25 Q1936.85 1486.25 1933.77 1481.67 Q1930.71 1477.06 1930.71 1468.33 Q1930.71 1459.58 1933.77 1455 Q1936.85 1450.39 1942.66 1450.39 Z" fill="#000000" fill-rule="nonzero" fill-opacity="1" /><path clip-path="url(#clip620)" d="M2241.87 1481.64 L2249.51 1481.64 L2249.51 1455.28 L2241.2 1456.95 L2241.2 1452.69 L2249.46 1451.02 L2254.14 1451.02 L2254.14 1481.64 L2261.78 1481.64 L2261.78 1485.58 L2241.87 1485.58 L2241.87 1481.64 Z" fill="#000000" fill-rule="nonzero" fill-opacity="1" /><path clip-path="url(#clip620)" d="M2281.22 1454.1 Q2277.61 1454.1 2275.78 1457.66 Q2273.98 1461.2 2273.98 1468.33 Q2273.98 1475.44 2275.78 1479.01 Q2277.61 1482.55 2281.22 1482.55 Q2284.86 1482.55 2286.66 1479.01 Q2288.49 1475.44 2288.49 1468.33 Q2288.49 1461.2 2286.66 1457.66 Q2284.86 1454.1 2281.22 1454.1 M2281.22 1450.39 Q2287.03 1450.39 2290.09 1455 Q2293.17 1459.58 2293.17 1468.33 Q2293.17 1477.06 2290.09 1481.67 Q2287.03 1486.25 2281.22 1486.25 Q2275.41 1486.25 2272.33 1481.67 Q2269.28 1477.06 2269.28 1468.33 Q2269.28 1459.58 2272.33 1455 Q2275.41 1450.39 2281.22 1450.39 Z" fill="#000000" fill-rule="nonzero" fill-opacity="1" /><path clip-path="url(#clip620)" d="M2311.38 1454.1 Q2307.77 1454.1 2305.94 1457.66 Q2304.14 1461.2 2304.14 1468.33 Q2304.14 1475.44 2305.94 1479.01 Q2307.77 1482.55 2311.38 1482.55 Q2315.02 1482.55 2316.82 1479.01 Q2318.65 1475.44 2318.65 1468.33 Q2318.65 1461.2 2316.82 1457.66 Q2315.02 1454.1 2311.38 1454.1 M2311.38 1450.39 Q2317.19 1450.39 2320.25 1455 Q2323.33 1459.58 2323.33 1468.33 Q2323.33 1477.06 2320.25 1481.67 Q2317.19 1486.25 2311.38 1486.25 Q2305.57 1486.25 2302.49 1481.67 Q2299.44 1477.06 2299.44 1468.33 Q2299.44 1459.58 2302.49 1455 Q2305.57 1450.39 2311.38 1450.39 Z" fill="#000000" fill-rule="nonzero" fill-opacity="1" /><path clip-path="url(#clip620)" d="M2341.55 1454.1 Q2337.93 1454.1 2336.11 1457.66 Q2334.3 1461.2 2334.3 1468.33 Q2334.3 1475.44 2336.11 1479.01 Q2337.93 1482.55 2341.55 1482.55 Q2345.18 1482.55 2346.99 1479.01 Q2348.81 1475.44 2348.81 1468.33 Q2348.81 1461.2 2346.99 1457.66 Q2345.18 1454.1 2341.55 1454.1 M2341.55 1450.39 Q2347.36 1450.39 2350.41 1455 Q2353.49 1459.58 2353.49 1468.33 Q2353.49 1477.06 2350.41 1481.67 Q2347.36 1486.25 2341.55 1486.25 Q2335.74 1486.25 2332.66 1481.67 Q2329.6 1477.06 2329.6 1468.33 Q2329.6 1459.58 2332.66 1455 Q2335.74 1450.39 2341.55 1450.39 Z" fill="#000000" fill-rule="nonzero" fill-opacity="1" /><path clip-path="url(#clip620)" d="M1370.89 1518.52 L1376.75 1518.52 L1376.75 1568.04 L1370.89 1568.04 L1370.89 1518.52 Z" fill="#000000" fill-rule="nonzero" fill-opacity="1" /><polyline clip-path="url(#clip620)" style="stroke:#000000; stroke-linecap:round; stroke-linejoin:round; stroke-width:4; stroke-opacity:1; fill:none" points="394.884,1423.18 394.884,47.2441 "/>
<polyline clip-path="url(#clip620)" style="stroke:#000000; stroke-linecap:round; stroke-linejoin:round; stroke-width:4; stroke-opacity:1; fill:none" points="394.884,1272.85 413.782,1272.85 "/>
<polyline clip-path="url(#clip620)" style="stroke:#000000; stroke-linecap:round; stroke-linejoin:round; stroke-width:4; stroke-opacity:1; fill:none" points="394.884,1095.56 413.782,1095.56 "/>
<polyline clip-path="url(#clip620)" style="stroke:#000000; stroke-linecap:round; stroke-linejoin:round; stroke-width:4; stroke-opacity:1; fill:none" points="394.884,918.272 413.782,918.272 "/>
<polyline clip-path="url(#clip620)" style="stroke:#000000; stroke-linecap:round; stroke-linejoin:round; stroke-width:4; stroke-opacity:1; fill:none" points="394.884,740.983 413.782,740.983 "/>
<polyline clip-path="url(#clip620)" style="stroke:#000000; stroke-linecap:round; stroke-linejoin:round; stroke-width:4; stroke-opacity:1; fill:none" points="394.884,563.695 413.782,563.695 "/>
<polyline clip-path="url(#clip620)" style="stroke:#000000; stroke-linecap:round; stroke-linejoin:round; stroke-width:4; stroke-opacity:1; fill:none" points="394.884,386.406 413.782,386.406 "/>
<polyline clip-path="url(#clip620)" style="stroke:#000000; stroke-linecap:round; stroke-linejoin:round; stroke-width:4; stroke-opacity:1; fill:none" points="394.884,209.117 413.782,209.117 "/>
<path clip-path="url(#clip620)" d="M121.043 1292.64 L137.362 1292.64 L137.362 1296.58 L115.418 1296.58 L115.418 1292.64 Q118.08 1289.89 122.663 1285.26 Q127.269 1280.6 128.45 1279.26 Q130.695 1276.74 131.575 1275 Q132.478 1273.24 132.478 1271.55 Q132.478 1268.8 130.533 1267.06 Q128.612 1265.33 125.51 1265.33 Q123.311 1265.33 120.857 1266.09 Q118.427 1266.85 115.649 1268.41 L115.649 1263.68 Q118.473 1262.55 120.927 1261.97 Q123.38 1261.39 125.418 1261.39 Q130.788 1261.39 133.982 1264.08 Q137.177 1266.76 137.177 1271.25 Q137.177 1273.38 136.367 1275.3 Q135.579 1277.2 133.473 1279.79 Q132.894 1280.47 129.792 1283.68 Q126.691 1286.88 121.043 1292.64 Z" fill="#000000" fill-rule="nonzero" fill-opacity="1" /><path clip-path="url(#clip620)" d="M147.177 1290.7 L152.061 1290.7 L152.061 1296.58 L147.177 1296.58 L147.177 1290.7 Z" fill="#000000" fill-rule="nonzero" fill-opacity="1" /><path clip-path="url(#clip620)" d="M172.246 1265.1 Q168.635 1265.1 166.806 1268.66 Q165.001 1272.2 165.001 1279.33 Q165.001 1286.44 166.806 1290 Q168.635 1293.54 172.246 1293.54 Q175.88 1293.54 177.686 1290 Q179.514 1286.44 179.514 1279.33 Q179.514 1272.2 177.686 1268.66 Q175.88 1265.1 172.246 1265.1 M172.246 1261.39 Q178.056 1261.39 181.112 1266 Q184.19 1270.58 184.19 1279.33 Q184.19 1288.06 181.112 1292.66 Q178.056 1297.25 172.246 1297.25 Q166.436 1297.25 163.357 1292.66 Q160.302 1288.06 160.302 1279.33 Q160.302 1270.58 163.357 1266 Q166.436 1261.39 172.246 1261.39 Z" fill="#000000" fill-rule="nonzero" fill-opacity="1" /><path clip-path="url(#clip620)" d="M220.579 1271.11 L210 1281.74 L220.579 1292.32 L217.824 1295.12 L207.199 1284.49 L196.575 1295.12 L193.843 1292.32 L204.399 1281.74 L193.843 1271.11 L196.575 1268.31 L207.199 1278.94 L217.824 1268.31 L220.579 1271.11 Z" fill="#000000" fill-rule="nonzero" fill-opacity="1" /><path clip-path="url(#clip620)" d="M232.94 1292.64 L240.579 1292.64 L240.579 1266.28 L232.269 1267.94 L232.269 1263.68 L240.533 1262.02 L245.209 1262.02 L245.209 1292.64 L252.847 1292.64 L252.847 1296.58 L232.94 1296.58 L232.94 1292.64 Z" fill="#000000" fill-rule="nonzero" fill-opacity="1" /><path clip-path="url(#clip620)" d="M272.292 1265.1 Q268.681 1265.1 266.852 1268.66 Q265.046 1272.2 265.046 1279.33 Q265.046 1286.44 266.852 1290 Q268.681 1293.54 272.292 1293.54 Q275.926 1293.54 277.732 1290 Q279.56 1286.44 279.56 1279.33 Q279.56 1272.2 277.732 1268.66 Q275.926 1265.1 272.292 1265.1 M272.292 1261.39 Q278.102 1261.39 281.157 1266 Q284.236 1270.58 284.236 1279.33 Q284.236 1288.06 281.157 1292.66 Q278.102 1297.25 272.292 1297.25 Q266.482 1297.25 263.403 1292.66 Q260.347 1288.06 260.347 1279.33 Q260.347 1270.58 263.403 1266 Q266.482 1261.39 272.292 1261.39 Z" fill="#000000" fill-rule="nonzero" fill-opacity="1" /><path clip-path="url(#clip620)" d="M284.236 1255.49 L308.348 1255.49 L308.348 1258.69 L284.236 1258.69 L284.236 1255.49 Z" fill="#000000" fill-rule="nonzero" fill-opacity="1" /><path clip-path="url(#clip620)" d="M317.206 1265.97 L323.413 1265.97 L323.413 1244.55 L316.661 1245.9 L316.661 1242.44 L323.375 1241.09 L327.174 1241.09 L327.174 1265.97 L333.381 1265.97 L333.381 1269.17 L317.206 1269.17 L317.206 1265.97 Z" fill="#000000" fill-rule="nonzero" fill-opacity="1" /><path clip-path="url(#clip620)" d="M349.179 1243.59 Q346.245 1243.59 344.76 1246.48 Q343.292 1249.36 343.292 1255.15 Q343.292 1260.93 344.76 1263.83 Q346.245 1266.7 349.179 1266.7 Q352.132 1266.7 353.599 1263.83 Q355.085 1260.93 355.085 1255.15 Q355.085 1249.36 353.599 1246.48 Q352.132 1243.59 349.179 1243.59 M349.179 1240.58 Q353.9 1240.58 356.383 1244.32 Q358.884 1248.05 358.884 1255.15 Q358.884 1262.25 356.383 1265.99 Q353.9 1269.71 349.179 1269.71 Q344.459 1269.71 341.957 1265.99 Q339.475 1262.25 339.475 1255.15 Q339.475 1248.05 341.957 1244.32 Q344.459 1240.58 349.179 1240.58 Z" fill="#000000" fill-rule="nonzero" fill-opacity="1" /><path clip-path="url(#clip620)" d="M131.181 1100.65 Q134.538 1101.37 136.413 1103.64 Q138.311 1105.91 138.311 1109.24 Q138.311 1114.36 134.792 1117.16 Q131.274 1119.96 124.793 1119.96 Q122.617 1119.96 120.302 1119.52 Q118.01 1119.1 115.556 1118.25 L115.556 1113.73 Q117.501 1114.87 119.816 1115.45 Q122.13 1116.02 124.654 1116.02 Q129.052 1116.02 131.343 1114.29 Q133.658 1112.55 133.658 1109.24 Q133.658 1106.19 131.505 1104.47 Q129.376 1102.74 125.556 1102.74 L121.529 1102.74 L121.529 1098.89 L125.742 1098.89 Q129.191 1098.89 131.019 1097.53 Q132.848 1096.14 132.848 1093.55 Q132.848 1090.89 130.95 1089.47 Q129.075 1088.04 125.556 1088.04 Q123.635 1088.04 121.436 1088.46 Q119.237 1088.87 116.598 1089.75 L116.598 1085.58 Q119.26 1084.84 121.575 1084.47 Q123.913 1084.1 125.973 1084.1 Q131.297 1084.1 134.399 1086.53 Q137.501 1088.94 137.501 1093.06 Q137.501 1095.93 135.857 1097.92 Q134.214 1099.89 131.181 1100.65 Z" fill="#000000" fill-rule="nonzero" fill-opacity="1" /><path clip-path="url(#clip620)" d="M147.177 1113.41 L152.061 1113.41 L152.061 1119.29 L147.177 1119.29 L147.177 1113.41 Z" fill="#000000" fill-rule="nonzero" fill-opacity="1" /><path clip-path="url(#clip620)" d="M172.246 1087.81 Q168.635 1087.81 166.806 1091.37 Q165.001 1094.91 165.001 1102.04 Q165.001 1109.15 166.806 1112.71 Q168.635 1116.26 172.246 1116.26 Q175.88 1116.26 177.686 1112.71 Q179.514 1109.15 179.514 1102.04 Q179.514 1094.91 177.686 1091.37 Q175.88 1087.81 172.246 1087.81 M172.246 1084.1 Q178.056 1084.1 181.112 1088.71 Q184.19 1093.29 184.19 1102.04 Q184.19 1110.77 181.112 1115.38 Q178.056 1119.96 172.246 1119.96 Q166.436 1119.96 163.357 1115.38 Q160.302 1110.77 160.302 1102.04 Q160.302 1093.29 163.357 1088.71 Q166.436 1084.1 172.246 1084.1 Z" fill="#000000" fill-rule="nonzero" fill-opacity="1" /><path clip-path="url(#clip620)" d="M220.579 1093.83 L210 1104.45 L220.579 1115.03 L217.824 1117.83 L207.199 1107.2 L196.575 1117.83 L193.843 1115.03 L204.399 1104.45 L193.843 1093.83 L196.575 1091.02 L207.199 1101.65 L217.824 1091.02 L220.579 1093.83 Z" fill="#000000" fill-rule="nonzero" fill-opacity="1" /><path clip-path="url(#clip620)" d="M232.94 1115.35 L240.579 1115.35 L240.579 1088.99 L232.269 1090.65 L232.269 1086.39 L240.533 1084.73 L245.209 1084.73 L245.209 1115.35 L252.847 1115.35 L252.847 1119.29 L232.94 1119.29 L232.94 1115.35 Z" fill="#000000" fill-rule="nonzero" fill-opacity="1" /><path clip-path="url(#clip620)" d="M272.292 1087.81 Q268.681 1087.81 266.852 1091.37 Q265.046 1094.91 265.046 1102.04 Q265.046 1109.15 266.852 1112.71 Q268.681 1116.26 272.292 1116.26 Q275.926 1116.26 277.732 1112.71 Q279.56 1109.15 279.56 1102.04 Q279.56 1094.91 277.732 1091.37 Q275.926 1087.81 272.292 1087.81 M272.292 1084.1 Q278.102 1084.1 281.157 1088.71 Q284.236 1093.29 284.236 1102.04 Q284.236 1110.77 281.157 1115.38 Q278.102 1119.96 272.292 1119.96 Q266.482 1119.96 263.403 1115.38 Q260.347 1110.77 260.347 1102.04 Q260.347 1093.29 263.403 1088.71 Q266.482 1084.1 272.292 1084.1 Z" fill="#000000" fill-rule="nonzero" fill-opacity="1" /><path clip-path="url(#clip620)" d="M284.236 1078.2 L308.348 1078.2 L308.348 1081.4 L284.236 1081.4 L284.236 1078.2 Z" fill="#000000" fill-rule="nonzero" fill-opacity="1" /><path clip-path="url(#clip620)" d="M317.206 1088.68 L323.413 1088.68 L323.413 1067.26 L316.661 1068.61 L316.661 1065.15 L323.375 1063.8 L327.174 1063.8 L327.174 1088.68 L333.381 1088.68 L333.381 1091.88 L317.206 1091.88 L317.206 1088.68 Z" fill="#000000" fill-rule="nonzero" fill-opacity="1" /><path clip-path="url(#clip620)" d="M349.179 1066.3 Q346.245 1066.3 344.76 1069.2 Q343.292 1072.07 343.292 1077.87 Q343.292 1083.64 344.76 1086.54 Q346.245 1089.41 349.179 1089.41 Q352.132 1089.41 353.599 1086.54 Q355.085 1083.64 355.085 1077.87 Q355.085 1072.07 353.599 1069.2 Q352.132 1066.3 349.179 1066.3 M349.179 1063.29 Q353.9 1063.29 356.383 1067.03 Q358.884 1070.76 358.884 1077.87 Q358.884 1084.96 356.383 1088.7 Q353.9 1092.42 349.179 1092.42 Q344.459 1092.42 341.957 1088.7 Q339.475 1084.96 339.475 1077.87 Q339.475 1070.76 341.957 1067.03 Q344.459 1063.29 349.179 1063.29 Z" fill="#000000" fill-rule="nonzero" fill-opacity="1" /><path clip-path="url(#clip620)" d="M129.862 911.514 L118.056 929.963 L129.862 929.963 L129.862 911.514 M128.635 907.44 L134.515 907.44 L134.515 929.963 L139.445 929.963 L139.445 933.851 L134.515 933.851 L134.515 942 L129.862 942 L129.862 933.851 L114.26 933.851 L114.26 929.338 L128.635 907.44 Z" fill="#000000" fill-rule="nonzero" fill-opacity="1" /><path clip-path="url(#clip620)" d="M147.177 936.12 L152.061 936.12 L152.061 942 L147.177 942 L147.177 936.12 Z" fill="#000000" fill-rule="nonzero" fill-opacity="1" /><path clip-path="url(#clip620)" d="M172.246 910.518 Q168.635 910.518 166.806 914.083 Q165.001 917.625 165.001 924.754 Q165.001 931.861 166.806 935.426 Q168.635 938.967 172.246 938.967 Q175.88 938.967 177.686 935.426 Q179.514 931.861 179.514 924.754 Q179.514 917.625 177.686 914.083 Q175.88 910.518 172.246 910.518 M172.246 906.815 Q178.056 906.815 181.112 911.421 Q184.19 916.004 184.19 924.754 Q184.19 933.481 181.112 938.088 Q178.056 942.671 172.246 942.671 Q166.436 942.671 163.357 938.088 Q160.302 933.481 160.302 924.754 Q160.302 916.004 163.357 911.421 Q166.436 906.815 172.246 906.815 Z" fill="#000000" fill-rule="nonzero" fill-opacity="1" /><path clip-path="url(#clip620)" d="M220.579 916.537 L210 927.162 L220.579 937.74 L217.824 940.541 L207.199 929.916 L196.575 940.541 L193.843 937.74 L204.399 927.162 L193.843 916.537 L196.575 913.736 L207.199 924.361 L217.824 913.736 L220.579 916.537 Z" fill="#000000" fill-rule="nonzero" fill-opacity="1" /><path clip-path="url(#clip620)" d="M232.94 938.064 L240.579 938.064 L240.579 911.699 L232.269 913.365 L232.269 909.106 L240.533 907.44 L245.209 907.44 L245.209 938.064 L252.847 938.064 L252.847 942 L232.94 942 L232.94 938.064 Z" fill="#000000" fill-rule="nonzero" fill-opacity="1" /><path clip-path="url(#clip620)" d="M272.292 910.518 Q268.681 910.518 266.852 914.083 Q265.046 917.625 265.046 924.754 Q265.046 931.861 266.852 935.426 Q268.681 938.967 272.292 938.967 Q275.926 938.967 277.732 935.426 Q279.56 931.861 279.56 924.754 Q279.56 917.625 277.732 914.083 Q275.926 910.518 272.292 910.518 M272.292 906.815 Q278.102 906.815 281.157 911.421 Q284.236 916.004 284.236 924.754 Q284.236 933.481 281.157 938.088 Q278.102 942.671 272.292 942.671 Q266.482 942.671 263.403 938.088 Q260.347 933.481 260.347 924.754 Q260.347 916.004 263.403 911.421 Q266.482 906.815 272.292 906.815 Z" fill="#000000" fill-rule="nonzero" fill-opacity="1" /><path clip-path="url(#clip620)" d="M284.236 900.916 L308.348 900.916 L308.348 904.113 L284.236 904.113 L284.236 900.916 Z" fill="#000000" fill-rule="nonzero" fill-opacity="1" /><path clip-path="url(#clip620)" d="M317.206 911.392 L323.413 911.392 L323.413 889.97 L316.661 891.324 L316.661 887.863 L323.375 886.509 L327.174 886.509 L327.174 911.392 L333.381 911.392 L333.381 914.589 L317.206 914.589 L317.206 911.392 Z" fill="#000000" fill-rule="nonzero" fill-opacity="1" /><path clip-path="url(#clip620)" d="M349.179 889.011 Q346.245 889.011 344.76 891.907 Q343.292 894.785 343.292 900.577 Q343.292 906.351 344.76 909.248 Q346.245 912.125 349.179 912.125 Q352.132 912.125 353.599 909.248 Q355.085 906.351 355.085 900.577 Q355.085 894.785 353.599 891.907 Q352.132 889.011 349.179 889.011 M349.179 886.001 Q353.9 886.001 356.383 889.744 Q358.884 893.468 358.884 900.577 Q358.884 907.668 356.383 911.411 Q353.9 915.135 349.179 915.135 Q344.459 915.135 341.957 911.411 Q339.475 907.668 339.475 900.577 Q339.475 893.468 341.957 889.744 Q344.459 886.001 349.179 886.001 Z" fill="#000000" fill-rule="nonzero" fill-opacity="1" /><path clip-path="url(#clip620)" d="M117.061 730.151 L135.417 730.151 L135.417 734.086 L121.343 734.086 L121.343 742.558 Q122.362 742.211 123.38 742.049 Q124.399 741.864 125.418 741.864 Q131.205 741.864 134.584 745.035 Q137.964 748.206 137.964 753.623 Q137.964 759.202 134.492 762.304 Q131.019 765.382 124.7 765.382 Q122.524 765.382 120.255 765.012 Q118.01 764.641 115.603 763.901 L115.603 759.202 Q117.686 760.336 119.908 760.892 Q122.13 761.447 124.607 761.447 Q128.612 761.447 130.95 759.341 Q133.288 757.234 133.288 753.623 Q133.288 750.012 130.95 747.905 Q128.612 745.799 124.607 745.799 Q122.732 745.799 120.857 746.216 Q119.006 746.632 117.061 747.512 L117.061 730.151 Z" fill="#000000" fill-rule="nonzero" fill-opacity="1" /><path clip-path="url(#clip620)" d="M147.177 758.831 L152.061 758.831 L152.061 764.711 L147.177 764.711 L147.177 758.831 Z" fill="#000000" fill-rule="nonzero" fill-opacity="1" /><path clip-path="url(#clip620)" d="M172.246 733.23 Q168.635 733.23 166.806 736.794 Q165.001 740.336 165.001 747.466 Q165.001 754.572 166.806 758.137 Q168.635 761.679 172.246 761.679 Q175.88 761.679 177.686 758.137 Q179.514 754.572 179.514 747.466 Q179.514 740.336 177.686 736.794 Q175.88 733.23 172.246 733.23 M172.246 729.526 Q178.056 729.526 181.112 734.132 Q184.19 738.716 184.19 747.466 Q184.19 756.192 181.112 760.799 Q178.056 765.382 172.246 765.382 Q166.436 765.382 163.357 760.799 Q160.302 756.192 160.302 747.466 Q160.302 738.716 163.357 734.132 Q166.436 729.526 172.246 729.526 Z" fill="#000000" fill-rule="nonzero" fill-opacity="1" /><path clip-path="url(#clip620)" d="M220.579 739.248 L210 749.873 L220.579 760.452 L217.824 763.253 L207.199 752.628 L196.575 763.253 L193.843 760.452 L204.399 749.873 L193.843 739.248 L196.575 736.447 L207.199 747.072 L217.824 736.447 L220.579 739.248 Z" fill="#000000" fill-rule="nonzero" fill-opacity="1" /><path clip-path="url(#clip620)" d="M232.94 760.776 L240.579 760.776 L240.579 734.41 L232.269 736.077 L232.269 731.818 L240.533 730.151 L245.209 730.151 L245.209 760.776 L252.847 760.776 L252.847 764.711 L232.94 764.711 L232.94 760.776 Z" fill="#000000" fill-rule="nonzero" fill-opacity="1" /><path clip-path="url(#clip620)" d="M272.292 733.23 Q268.681 733.23 266.852 736.794 Q265.046 740.336 265.046 747.466 Q265.046 754.572 266.852 758.137 Q268.681 761.679 272.292 761.679 Q275.926 761.679 277.732 758.137 Q279.56 754.572 279.56 747.466 Q279.56 740.336 277.732 736.794 Q275.926 733.23 272.292 733.23 M272.292 729.526 Q278.102 729.526 281.157 734.132 Q284.236 738.716 284.236 747.466 Q284.236 756.192 281.157 760.799 Q278.102 765.382 272.292 765.382 Q266.482 765.382 263.403 760.799 Q260.347 756.192 260.347 747.466 Q260.347 738.716 263.403 734.132 Q266.482 729.526 272.292 729.526 Z" fill="#000000" fill-rule="nonzero" fill-opacity="1" /><path clip-path="url(#clip620)" d="M284.236 723.627 L308.348 723.627 L308.348 726.825 L284.236 726.825 L284.236 723.627 Z" fill="#000000" fill-rule="nonzero" fill-opacity="1" /><path clip-path="url(#clip620)" d="M317.206 734.103 L323.413 734.103 L323.413 712.681 L316.661 714.035 L316.661 710.575 L323.375 709.221 L327.174 709.221 L327.174 734.103 L333.381 734.103 L333.381 737.301 L317.206 737.301 L317.206 734.103 Z" fill="#000000" fill-rule="nonzero" fill-opacity="1" /><path clip-path="url(#clip620)" d="M349.179 711.722 Q346.245 711.722 344.76 714.618 Q343.292 717.496 343.292 723.289 Q343.292 729.063 344.76 731.959 Q346.245 734.837 349.179 734.837 Q352.132 734.837 353.599 731.959 Q355.085 729.063 355.085 723.289 Q355.085 717.496 353.599 714.618 Q352.132 711.722 349.179 711.722 M349.179 708.713 Q353.9 708.713 356.383 712.455 Q358.884 716.179 358.884 723.289 Q358.884 730.379 356.383 734.122 Q353.9 737.846 349.179 737.846 Q344.459 737.846 341.957 734.122 Q339.475 730.379 339.475 723.289 Q339.475 716.179 341.957 712.455 Q344.459 708.713 349.179 708.713 Z" fill="#000000" fill-rule="nonzero" fill-opacity="1" /><path clip-path="url(#clip620)" d="M127.593 568.279 Q124.445 568.279 122.593 570.432 Q120.765 572.584 120.765 576.334 Q120.765 580.061 122.593 582.237 Q124.445 584.39 127.593 584.39 Q130.742 584.39 132.57 582.237 Q134.422 580.061 134.422 576.334 Q134.422 572.584 132.57 570.432 Q130.742 568.279 127.593 568.279 M136.876 553.626 L136.876 557.885 Q135.117 557.052 133.311 556.612 Q131.529 556.172 129.769 556.172 Q125.14 556.172 122.686 559.297 Q120.255 562.422 119.908 568.742 Q121.274 566.728 123.334 565.663 Q125.394 564.575 127.871 564.575 Q133.08 564.575 136.089 567.746 Q139.121 570.895 139.121 576.334 Q139.121 581.658 135.973 584.876 Q132.825 588.094 127.593 588.094 Q121.598 588.094 118.427 583.51 Q115.256 578.904 115.256 570.177 Q115.256 561.983 119.144 557.122 Q123.033 552.237 129.584 552.237 Q131.343 552.237 133.126 552.585 Q134.931 552.932 136.876 553.626 Z" fill="#000000" fill-rule="nonzero" fill-opacity="1" /><path clip-path="url(#clip620)" d="M147.177 581.543 L152.061 581.543 L152.061 587.422 L147.177 587.422 L147.177 581.543 Z" fill="#000000" fill-rule="nonzero" fill-opacity="1" /><path clip-path="url(#clip620)" d="M172.246 555.941 Q168.635 555.941 166.806 559.506 Q165.001 563.047 165.001 570.177 Q165.001 577.283 166.806 580.848 Q168.635 584.39 172.246 584.39 Q175.88 584.39 177.686 580.848 Q179.514 577.283 179.514 570.177 Q179.514 563.047 177.686 559.506 Q175.88 555.941 172.246 555.941 M172.246 552.237 Q178.056 552.237 181.112 556.844 Q184.19 561.427 184.19 570.177 Q184.19 578.904 181.112 583.51 Q178.056 588.094 172.246 588.094 Q166.436 588.094 163.357 583.51 Q160.302 578.904 160.302 570.177 Q160.302 561.427 163.357 556.844 Q166.436 552.237 172.246 552.237 Z" fill="#000000" fill-rule="nonzero" fill-opacity="1" /><path clip-path="url(#clip620)" d="M220.579 561.959 L210 572.584 L220.579 583.163 L217.824 585.964 L207.199 575.339 L196.575 585.964 L193.843 583.163 L204.399 572.584 L193.843 561.959 L196.575 559.159 L207.199 569.783 L217.824 559.159 L220.579 561.959 Z" fill="#000000" fill-rule="nonzero" fill-opacity="1" /><path clip-path="url(#clip620)" d="M232.94 583.487 L240.579 583.487 L240.579 557.122 L232.269 558.788 L232.269 554.529 L240.533 552.862 L245.209 552.862 L245.209 583.487 L252.847 583.487 L252.847 587.422 L232.94 587.422 L232.94 583.487 Z" fill="#000000" fill-rule="nonzero" fill-opacity="1" /><path clip-path="url(#clip620)" d="M272.292 555.941 Q268.681 555.941 266.852 559.506 Q265.046 563.047 265.046 570.177 Q265.046 577.283 266.852 580.848 Q268.681 584.39 272.292 584.39 Q275.926 584.39 277.732 580.848 Q279.56 577.283 279.56 570.177 Q279.56 563.047 277.732 559.506 Q275.926 555.941 272.292 555.941 M272.292 552.237 Q278.102 552.237 281.157 556.844 Q284.236 561.427 284.236 570.177 Q284.236 578.904 281.157 583.51 Q278.102 588.094 272.292 588.094 Q266.482 588.094 263.403 583.51 Q260.347 578.904 260.347 570.177 Q260.347 561.427 263.403 556.844 Q266.482 552.237 272.292 552.237 Z" fill="#000000" fill-rule="nonzero" fill-opacity="1" /><path clip-path="url(#clip620)" d="M284.236 546.339 L308.348 546.339 L308.348 549.536 L284.236 549.536 L284.236 546.339 Z" fill="#000000" fill-rule="nonzero" fill-opacity="1" /><path clip-path="url(#clip620)" d="M317.206 556.815 L323.413 556.815 L323.413 535.393 L316.661 536.747 L316.661 533.286 L323.375 531.932 L327.174 531.932 L327.174 556.815 L333.381 556.815 L333.381 560.012 L317.206 560.012 L317.206 556.815 Z" fill="#000000" fill-rule="nonzero" fill-opacity="1" /><path clip-path="url(#clip620)" d="M349.179 534.433 Q346.245 534.433 344.76 537.33 Q343.292 540.207 343.292 546 Q343.292 551.774 344.76 554.67 Q346.245 557.548 349.179 557.548 Q352.132 557.548 353.599 554.67 Q355.085 551.774 355.085 546 Q355.085 540.207 353.599 537.33 Q352.132 534.433 349.179 534.433 M349.179 531.424 Q353.9 531.424 356.383 535.167 Q358.884 538.891 358.884 546 Q358.884 553.091 356.383 556.833 Q353.9 560.557 349.179 560.557 Q344.459 560.557 341.957 556.833 Q339.475 553.091 339.475 546 Q339.475 538.891 341.957 535.167 Q344.459 531.424 349.179 531.424 Z" fill="#000000" fill-rule="nonzero" fill-opacity="1" /><path clip-path="url(#clip620)" d="M115.834 375.574 L138.056 375.574 L138.056 377.564 L125.51 410.134 L120.626 410.134 L132.431 379.509 L115.834 379.509 L115.834 375.574 Z" fill="#000000" fill-rule="nonzero" fill-opacity="1" /><path clip-path="url(#clip620)" d="M147.177 404.254 L152.061 404.254 L152.061 410.134 L147.177 410.134 L147.177 404.254 Z" fill="#000000" fill-rule="nonzero" fill-opacity="1" /><path clip-path="url(#clip620)" d="M172.246 378.652 Q168.635 378.652 166.806 382.217 Q165.001 385.759 165.001 392.888 Q165.001 399.995 166.806 403.56 Q168.635 407.101 172.246 407.101 Q175.88 407.101 177.686 403.56 Q179.514 399.995 179.514 392.888 Q179.514 385.759 177.686 382.217 Q175.88 378.652 172.246 378.652 M172.246 374.949 Q178.056 374.949 181.112 379.555 Q184.19 384.138 184.19 392.888 Q184.19 401.615 181.112 406.222 Q178.056 410.805 172.246 410.805 Q166.436 410.805 163.357 406.222 Q160.302 401.615 160.302 392.888 Q160.302 384.138 163.357 379.555 Q166.436 374.949 172.246 374.949 Z" fill="#000000" fill-rule="nonzero" fill-opacity="1" /><path clip-path="url(#clip620)" d="M220.579 384.671 L210 395.296 L220.579 405.874 L217.824 408.675 L207.199 398.05 L196.575 408.675 L193.843 405.874 L204.399 395.296 L193.843 384.671 L196.575 381.87 L207.199 392.495 L217.824 381.87 L220.579 384.671 Z" fill="#000000" fill-rule="nonzero" fill-opacity="1" /><path clip-path="url(#clip620)" d="M232.94 406.198 L240.579 406.198 L240.579 379.833 L232.269 381.5 L232.269 377.24 L240.533 375.574 L245.209 375.574 L245.209 406.198 L252.847 406.198 L252.847 410.134 L232.94 410.134 L232.94 406.198 Z" fill="#000000" fill-rule="nonzero" fill-opacity="1" /><path clip-path="url(#clip620)" d="M272.292 378.652 Q268.681 378.652 266.852 382.217 Q265.046 385.759 265.046 392.888 Q265.046 399.995 266.852 403.56 Q268.681 407.101 272.292 407.101 Q275.926 407.101 277.732 403.56 Q279.56 399.995 279.56 392.888 Q279.56 385.759 277.732 382.217 Q275.926 378.652 272.292 378.652 M272.292 374.949 Q278.102 374.949 281.157 379.555 Q284.236 384.138 284.236 392.888 Q284.236 401.615 281.157 406.222 Q278.102 410.805 272.292 410.805 Q266.482 410.805 263.403 406.222 Q260.347 401.615 260.347 392.888 Q260.347 384.138 263.403 379.555 Q266.482 374.949 272.292 374.949 Z" fill="#000000" fill-rule="nonzero" fill-opacity="1" /><path clip-path="url(#clip620)" d="M284.236 369.05 L308.348 369.05 L308.348 372.247 L284.236 372.247 L284.236 369.05 Z" fill="#000000" fill-rule="nonzero" fill-opacity="1" /><path clip-path="url(#clip620)" d="M317.206 379.526 L323.413 379.526 L323.413 358.104 L316.661 359.458 L316.661 355.997 L323.375 354.643 L327.174 354.643 L327.174 379.526 L333.381 379.526 L333.381 382.723 L317.206 382.723 L317.206 379.526 Z" fill="#000000" fill-rule="nonzero" fill-opacity="1" /><path clip-path="url(#clip620)" d="M349.179 357.145 Q346.245 357.145 344.76 360.041 Q343.292 362.919 343.292 368.711 Q343.292 374.485 344.76 377.382 Q346.245 380.259 349.179 380.259 Q352.132 380.259 353.599 377.382 Q355.085 374.485 355.085 368.711 Q355.085 362.919 353.599 360.041 Q352.132 357.145 349.179 357.145 M349.179 354.135 Q353.9 354.135 356.383 357.878 Q358.884 361.602 358.884 368.711 Q358.884 375.802 356.383 379.545 Q353.9 383.269 349.179 383.269 Q344.459 383.269 341.957 379.545 Q339.475 375.802 339.475 368.711 Q339.475 361.602 341.957 357.878 Q344.459 354.135 349.179 354.135 Z" fill="#000000" fill-rule="nonzero" fill-opacity="1" /><path clip-path="url(#clip620)" d="M127.015 216.433 Q123.681 216.433 121.76 218.215 Q119.862 219.998 119.862 223.123 Q119.862 226.248 121.76 228.03 Q123.681 229.813 127.015 229.813 Q130.348 229.813 132.269 228.03 Q134.191 226.225 134.191 223.123 Q134.191 219.998 132.269 218.215 Q130.371 216.433 127.015 216.433 M122.339 214.442 Q119.33 213.702 117.64 211.641 Q115.973 209.581 115.973 206.618 Q115.973 202.475 118.913 200.067 Q121.876 197.66 127.015 197.66 Q132.177 197.66 135.117 200.067 Q138.056 202.475 138.056 206.618 Q138.056 209.581 136.367 211.641 Q134.7 213.702 131.714 214.442 Q135.093 215.229 136.968 217.521 Q138.867 219.813 138.867 223.123 Q138.867 228.146 135.788 230.831 Q132.732 233.516 127.015 233.516 Q121.297 233.516 118.218 230.831 Q115.163 228.146 115.163 223.123 Q115.163 219.813 117.061 217.521 Q118.959 215.229 122.339 214.442 M120.626 207.058 Q120.626 209.743 122.293 211.248 Q123.982 212.752 127.015 212.752 Q130.024 212.752 131.714 211.248 Q133.427 209.743 133.427 207.058 Q133.427 204.373 131.714 202.868 Q130.024 201.364 127.015 201.364 Q123.982 201.364 122.293 202.868 Q120.626 204.373 120.626 207.058 Z" fill="#000000" fill-rule="nonzero" fill-opacity="1" /><path clip-path="url(#clip620)" d="M147.177 226.965 L152.061 226.965 L152.061 232.845 L147.177 232.845 L147.177 226.965 Z" fill="#000000" fill-rule="nonzero" fill-opacity="1" /><path clip-path="url(#clip620)" d="M172.246 201.364 Q168.635 201.364 166.806 204.928 Q165.001 208.47 165.001 215.6 Q165.001 222.706 166.806 226.271 Q168.635 229.813 172.246 229.813 Q175.88 229.813 177.686 226.271 Q179.514 222.706 179.514 215.6 Q179.514 208.47 177.686 204.928 Q175.88 201.364 172.246 201.364 M172.246 197.66 Q178.056 197.66 181.112 202.266 Q184.19 206.85 184.19 215.6 Q184.19 224.327 181.112 228.933 Q178.056 233.516 172.246 233.516 Q166.436 233.516 163.357 228.933 Q160.302 224.327 160.302 215.6 Q160.302 206.85 163.357 202.266 Q166.436 197.66 172.246 197.66 Z" fill="#000000" fill-rule="nonzero" fill-opacity="1" /><path clip-path="url(#clip620)" d="M220.579 207.382 L210 218.007 L220.579 228.586 L217.824 231.387 L207.199 220.762 L196.575 231.387 L193.843 228.586 L204.399 218.007 L193.843 207.382 L196.575 204.581 L207.199 215.206 L217.824 204.581 L220.579 207.382 Z" fill="#000000" fill-rule="nonzero" fill-opacity="1" /><path clip-path="url(#clip620)" d="M232.94 228.91 L240.579 228.91 L240.579 202.544 L232.269 204.211 L232.269 199.952 L240.533 198.285 L245.209 198.285 L245.209 228.91 L252.847 228.91 L252.847 232.845 L232.94 232.845 L232.94 228.91 Z" fill="#000000" fill-rule="nonzero" fill-opacity="1" /><path clip-path="url(#clip620)" d="M272.292 201.364 Q268.681 201.364 266.852 204.928 Q265.046 208.47 265.046 215.6 Q265.046 222.706 266.852 226.271 Q268.681 229.813 272.292 229.813 Q275.926 229.813 277.732 226.271 Q279.56 222.706 279.56 215.6 Q279.56 208.47 277.732 204.928 Q275.926 201.364 272.292 201.364 M272.292 197.66 Q278.102 197.66 281.157 202.266 Q284.236 206.85 284.236 215.6 Q284.236 224.327 281.157 228.933 Q278.102 233.516 272.292 233.516 Q266.482 233.516 263.403 228.933 Q260.347 224.327 260.347 215.6 Q260.347 206.85 263.403 202.266 Q266.482 197.66 272.292 197.66 Z" fill="#000000" fill-rule="nonzero" fill-opacity="1" /><path clip-path="url(#clip620)" d="M284.236 191.761 L308.348 191.761 L308.348 194.959 L284.236 194.959 L284.236 191.761 Z" fill="#000000" fill-rule="nonzero" fill-opacity="1" /><path clip-path="url(#clip620)" d="M317.206 202.237 L323.413 202.237 L323.413 180.815 L316.661 182.169 L316.661 178.709 L323.375 177.355 L327.174 177.355 L327.174 202.237 L333.381 202.237 L333.381 205.435 L317.206 205.435 L317.206 202.237 Z" fill="#000000" fill-rule="nonzero" fill-opacity="1" /><path clip-path="url(#clip620)" d="M349.179 179.856 Q346.245 179.856 344.76 182.752 Q343.292 185.63 343.292 191.423 Q343.292 197.197 344.76 200.093 Q346.245 202.971 349.179 202.971 Q352.132 202.971 353.599 200.093 Q355.085 197.197 355.085 191.423 Q355.085 185.63 353.599 182.752 Q352.132 179.856 349.179 179.856 M349.179 176.847 Q353.9 176.847 356.383 180.59 Q358.884 184.313 358.884 191.423 Q358.884 198.513 356.383 202.256 Q353.9 205.98 349.179 205.98 Q344.459 205.98 341.957 202.256 Q339.475 198.513 339.475 191.423 Q339.475 184.313 341.957 180.59 Q344.459 176.847 349.179 176.847 Z" fill="#000000" fill-rule="nonzero" fill-opacity="1" /><path clip-path="url(#clip620)" d="M14.479 902.328 L14.479 896.471 L64.0042 896.471 L64.0042 902.328 L14.479 902.328 Z" fill="#000000" fill-rule="nonzero" fill-opacity="1" /><path clip-path="url(#clip620)" d="M14.5426 870.149 Q21.8632 874.414 29.0246 876.483 Q36.186 878.552 43.5384 878.552 Q50.8908 878.552 58.1159 876.483 Q65.3091 874.382 72.5979 870.149 L72.5979 875.242 Q65.1182 880.016 57.8931 882.403 Q50.668 884.758 43.5384 884.758 Q36.4406 884.758 29.2474 882.403 Q22.0542 880.048 14.5426 875.242 L14.5426 870.149 Z" fill="#000000" fill-rule="nonzero" fill-opacity="1" /><path clip-path="url(#clip620)" d="M14.479 858.786 L14.479 852.93 L64.0042 852.93 L64.0042 858.786 L14.479 858.786 Z" fill="#000000" fill-rule="nonzero" fill-opacity="1" /><path clip-path="url(#clip620)" d="M23.1363 816.836 L40.8648 816.836 L40.8648 799.108 L46.2757 799.108 L46.2757 816.836 L64.0042 816.836 L64.0042 822.183 L46.2757 822.183 L46.2757 839.912 L40.8648 839.912 L40.8648 822.183 L23.1363 822.183 L23.1363 816.836 Z" fill="#000000" fill-rule="nonzero" fill-opacity="1" /><path clip-path="url(#clip620)" d="M58.5933 784.117 L58.5933 773.613 L22.3406 773.613 L24.6323 785.04 L18.7758 785.04 L16.4842 773.677 L16.4842 767.247 L58.5933 767.247 L58.5933 756.744 L64.0042 756.744 L64.0042 784.117 L58.5933 784.117 Z" fill="#000000" fill-rule="nonzero" fill-opacity="1" /><path clip-path="url(#clip620)" d="M14.5426 745.508 L14.5426 740.416 Q22.0542 735.642 29.2474 733.286 Q36.4406 730.899 43.5384 730.899 Q50.668 730.899 57.8931 733.286 Q65.1182 735.642 72.5979 740.416 L72.5979 745.508 Q65.3091 741.275 58.1159 739.206 Q50.8908 737.106 43.5384 737.106 Q36.186 737.106 29.0246 739.206 Q21.8632 741.275 14.5426 745.508 Z" fill="#000000" fill-rule="nonzero" fill-opacity="1" /><path clip-path="url(#clip620)" d="M20.1444 683.316 L26.9239 683.316 Q23.9002 686.562 22.4043 690.254 Q20.9083 693.914 20.9083 698.052 Q20.9083 706.2 25.9054 710.529 Q30.8707 714.858 40.2919 714.858 Q49.6813 714.858 54.6784 710.529 Q59.6436 706.2 59.6436 698.052 Q59.6436 693.914 58.1477 690.254 Q56.6518 686.562 53.6281 683.316 L60.3439 683.316 Q62.6355 686.689 63.7814 690.477 Q64.9272 694.233 64.9272 698.434 Q64.9272 709.224 58.3387 715.431 Q51.7183 721.637 40.2919 721.637 Q28.8336 721.637 22.2451 715.431 Q15.6248 709.224 15.6248 698.434 Q15.6248 694.169 16.7706 690.413 Q17.8846 686.626 20.1444 683.316 Z" fill="#000000" fill-rule="nonzero" fill-opacity="1" /><path clip-path="url(#clip620)" d="M36.2815 675.899 L36.2815 672.207 L64.0042 672.207 L64.0042 675.899 L36.2815 675.899 Z" fill="#000000" fill-rule="nonzero" fill-opacity="1" /><path clip-path="url(#clip620)" d="M16.4842 652.41 L16.4842 646.999 L70.0516 663.55 L70.0516 668.961 L16.4842 652.41 Z" fill="#000000" fill-rule="nonzero" fill-opacity="1" /><path clip-path="url(#clip620)" d="M58.5933 634.491 L58.5933 612.051 L64.0042 612.051 L64.0042 642.225 L58.5933 642.225 Q54.8057 638.565 48.44 632.263 Q42.0425 625.929 40.1964 624.305 Q36.7271 621.218 34.34 620.009 Q31.921 618.767 29.5975 618.767 Q25.8099 618.767 23.4228 621.441 Q21.0356 624.083 21.0356 628.348 Q21.0356 631.371 22.086 634.745 Q23.1363 638.087 25.2688 641.907 L18.7758 641.907 Q17.2162 638.024 16.4205 634.65 Q15.6248 631.276 15.6248 628.475 Q15.6248 621.091 19.3169 616.698 Q23.009 612.306 29.1837 612.306 Q32.112 612.306 34.7537 613.42 Q37.3637 614.502 40.9285 617.399 Q41.8515 618.194 46.2757 622.459 Q50.668 626.724 58.5933 634.491 Z" fill="#000000" fill-rule="nonzero" fill-opacity="1" /><path clip-path="url(#clip620)" d="M28.3562 603.171 L28.3562 569.019 L34.2127 569.019 L34.2127 573.507 L56.1107 573.507 Q58.4023 573.507 59.4208 572.743 Q60.4075 571.948 60.4075 570.197 Q60.4075 569.72 60.3439 569.019 Q60.2484 568.319 60.2166 568.096 L64.4498 568.096 Q64.8635 569.21 65.0545 570.388 Q65.2455 571.566 65.2455 572.743 Q65.2455 576.563 63.1766 578.027 Q61.0759 579.491 55.4741 579.491 L34.2127 579.491 L34.2127 592.636 L64.0042 592.636 L64.0042 598.62 L34.2127 598.62 L34.2127 603.171 L28.3562 603.171 Z" fill="#000000" fill-rule="nonzero" fill-opacity="1" /><path clip-path="url(#clip621)" d="M450.296 1384.24 L452.22 1378.76 L454.144 1373.45 L456.068 1368.29 L457.992 1363.28 L459.916 1358.4 L461.84 1353.64 L463.764 1348.98 L465.688 1344.4 L467.612 1339.89 L469.536 1335.42 L471.46 1330.97 L473.384 1326.52 L475.308 1322.03 L477.232 1317.49 L479.156 1312.85 L481.08 1308.09 L483.004 1303.17 L484.928 1298.06 L486.852 1292.72 L488.776 1287.1 L490.7 1281.36 L492.624 1275.67 L494.548 1270.02 L496.472 1264.4 L498.396 1258.81 L500.32 1253.24 L502.244 1247.68 L504.168 1242.12 L506.092 1236.55 L508.016 1230.98 L509.94 1225.37 L511.864 1219.73 L513.788 1214.04 L515.712 1208.29 L517.636 1202.47 L519.56 1196.57 L521.484 1190.57 L523.408 1184.46 L525.332 1178.22 L527.256 1171.84 L529.18 1165.39 L531.104 1158.94 L533.028 1152.49 L534.952 1146.03 L536.876 1139.56 L538.8 1133.08 L540.724 1126.58 L542.648 1120.05 L544.572 1113.5 L546.496 1106.91 L548.42 1100.28 L550.344 1093.61 L552.268 1086.88 L554.192 1080.1 L556.116 1073.25 L558.04 1066.34 L559.964 1059.35 L561.888 1052.27 L563.812 1045.1 L565.736 1037.84 L567.66 1030.52 L569.584 1023.19 L571.508 1015.86 L573.432 1008.51 L575.356 1001.16 L577.28 993.794 L579.204 986.413 L581.128 979.014 L583.052 971.595 L584.976 964.155 L586.9 956.691 L588.824 949.201 L590.748 941.681 L592.672 934.129 L594.596 926.543 L596.52 918.92 L598.444 911.256 L600.368 903.548 L602.292 895.795 L604.216 887.991 L606.14 880.162 L608.064 872.334 L609.988 864.506 L611.912 856.679 L613.836 848.85 L615.76 841.019 L617.684 833.185 L619.608 825.348 L621.532 817.506 L623.456 809.659 L625.38 801.806 L627.304 793.945 L629.228 786.076 L631.152 778.196 L633.076 770.306 L635 762.404 L636.924 754.489 L638.849 746.558 L640.773 738.612 L642.697 730.648 L644.621 722.689 L646.545 714.759 L648.469 706.857 L650.393 698.986 L652.317 691.144 L654.241 683.333 L656.165 675.554 L658.089 667.805 L660.013 660.089 L661.937 652.406 L663.861 644.755 L665.785 637.138 L667.709 629.555 L669.633 622.006 L671.557 614.491 L673.481 607.011 L675.405 599.566 L677.329 592.157 L679.253 584.784 L681.177 577.447 L683.101 570.156 L685.025 562.921 L686.949 555.745 L688.873 548.627 L690.797 541.569 L692.721 534.572 L694.645 527.636 L696.569 520.763 L698.493 513.954 L700.417 507.209 L702.341 500.53 L704.265 493.917 L706.189 487.372 L708.113 480.895 L710.037 474.487 L711.961 468.15 L713.885 461.884 L715.809 455.689 L717.733 449.568 L719.657 443.52 L721.581 437.554 L723.505 431.677 L725.429 425.891 L727.353 420.197 L729.277 414.596 L731.201 409.089 L733.125 403.679 L735.049 398.365 L736.973 393.151 L738.897 388.036 L740.821 383.023 L742.745 378.112 L744.669 373.305 L746.593 368.603 L748.517 364.008 L750.441 359.521 L752.365 355.143 L754.289 350.876 L756.213 346.721 L758.137 342.679 L760.061 338.748 L761.985 334.928 L763.909 331.218 L765.833 327.62 L767.757 324.136 L769.681 320.766 L771.605 317.512 L773.529 314.374 L775.453 311.354 L777.377 308.453 L779.301 305.672 L781.225 303.012 L783.149 300.475 L785.073 298.061 L786.997 295.771 L788.921 293.607 L790.845 291.569 L792.769 289.66 L794.693 287.879 L796.617 286.228 L798.541 284.705 L800.465 283.305 L802.389 282.031 L804.313 280.883 L806.237 279.861 L808.161 278.967 L810.085 278.202 L812.009 277.566 L813.933 277.06 L815.857 276.685 L817.781 276.442 L819.705 276.332 L821.629 276.356 L823.553 276.513 L825.477 276.806 L827.401 277.235 L829.325 277.8 L831.249 278.503 L833.173 279.345 L835.097 280.326 L837.021 281.436 L838.945 282.668 L840.869 284.02 L842.793 285.493 L844.717 287.088 L846.641 288.804 L848.566 290.642 L850.49 292.602 L852.414 294.684 L854.338 296.889 L856.262 299.217 L858.186 301.668 L860.11 304.241 L862.034 306.938 L863.958 309.759 L865.882 312.703 L867.806 315.77 L869.73 318.962 L871.654 322.278 L873.578 325.717 L875.502 329.273 L877.426 332.935 L879.35 336.705 L881.274 340.581 L883.198 344.563 L885.122 348.652 L887.046 352.845 L888.97 357.144 L890.894 361.548 L892.818 366.056 L894.742 370.669 L896.666 375.385 L898.59 380.204 L900.514 385.126 L902.438 390.15 L904.362 395.276 L906.286 400.503 L908.21 405.831 L910.134 411.26 L912.058 416.788 L913.982 422.407 L915.906 428.106 L917.83 433.884 L919.754 439.74 L921.678 445.673 L923.602 451.682 L925.526 457.767 L927.45 463.926 L929.374 470.157 L931.298 476.461 L933.222 482.836 L935.146 489.281 L937.07 495.795 L938.994 502.376 L940.918 509.024 L942.842 515.737 L944.766 522.515 L946.69 529.356 L948.614 536.259 L950.538 543.222 L952.462 550.239 L954.386 557.304 L956.31 564.414 L958.234 571.568 L960.158 578.765 L962.082 586.002 L964.006 593.279 L965.93 600.595 L967.854 607.946 L969.778 615.333 L971.702 622.752 L973.626 630.203 L975.55 637.684 L977.474 645.194 L979.398 652.73 L981.322 660.29 L983.246 667.874 L985.17 675.48 L987.094 683.105 L989.018 690.749 L990.942 698.406 L992.866 706.073 L994.79 713.749 L996.714 721.43 L998.638 729.115 L1000.56 736.803 L1002.49 744.491 L1004.41 752.178 L1006.33 759.86 L1008.26 767.537 L1010.18 775.207 L1012.11 782.866 L1014.03 790.514 L1015.95 798.148 L1017.88 805.765 L1019.8 813.365 L1021.73 820.945 L1023.65 828.502 L1025.57 836.034 L1027.5 843.54 L1029.42 851.021 L1031.35 858.479 L1033.27 865.911 L1035.19 873.317 L1037.12 880.692 L1039.04 888.036 L1040.97 895.346 L1042.89 902.621 L1044.81 909.857 L1046.74 917.052 L1048.66 924.206 L1050.59 931.314 L1052.51 938.375 L1054.43 945.387 L1056.36 952.348 L1058.28 959.254 L1060.21 966.104 L1062.13 972.896 L1064.05 979.627 L1065.98 986.294 L1067.9 992.904 L1069.83 999.463 L1071.75 1005.97 L1073.67 1012.42 L1075.6 1018.81 L1077.52 1025.14 L1079.45 1031.41 L1081.37 1037.61 L1083.29 1043.75 L1085.22 1049.82 L1087.14 1055.82 L1089.07 1061.74 L1090.99 1067.59 L1092.91 1073.36 L1094.84 1079.05 L1096.76 1084.66 L1098.69 1090.18 L1100.61 1095.62 L1102.53 1100.96 L1104.46 1106.21 L1106.38 1111.39 L1108.31 1116.49 L1110.23 1121.52 L1112.15 1126.48 L1114.08 1131.37 L1116 1136.18 L1117.93 1140.91 L1119.85 1145.56 L1121.77 1150.13 L1123.7 1154.61 L1125.62 1159.01 L1127.55 1163.32 L1129.47 1167.54 L1131.39 1171.66 L1133.32 1175.69 L1135.24 1179.62 L1137.17 1183.45 L1139.09 1187.18 L1141.01 1190.81 L1142.94 1194.33 L1144.86 1197.75 L1146.79 1201.11 L1148.71 1204.39 L1150.63 1207.58 L1152.56 1210.7 L1154.48 1213.74 L1156.41 1216.69 L1158.33 1219.56 L1160.25 1222.34 L1162.18 1225.03 L1164.1 1227.63 L1166.03 1230.13 L1167.95 1232.55 L1169.88 1234.86 L1171.8 1237.08 L1173.72 1239.2 L1175.65 1241.22 L1177.57 1243.13 L1179.5 1244.94 L1181.42 1246.64 L1183.34 1248.25 L1185.27 1249.8 L1187.19 1251.27 L1189.12 1252.66 L1191.04 1253.99 L1192.96 1255.24 L1194.89 1256.41 L1196.81 1257.5 L1198.74 1258.51 L1200.66 1259.44 L1202.58 1260.29 L1204.51 1261.06 L1206.43 1261.74 L1208.36 1262.34 L1210.28 1262.84 L1212.2 1263.26 L1214.13 1263.59 L1216.05 1263.82 L1217.98 1263.97 L1219.9 1264.01 L1221.82 1263.98 L1223.75 1263.9 L1225.67 1263.76 L1227.6 1263.56 L1229.52 1263.3 L1231.44 1262.99 L1233.37 1262.61 L1235.29 1262.17 L1237.22 1261.67 L1239.14 1261.11 L1241.06 1260.48 L1242.99 1259.79 L1244.91 1259.03 L1246.84 1258.21 L1248.76 1257.32 L1250.68 1256.36 L1252.61 1255.33 L1254.53 1254.23 L1256.46 1253.06 L1258.38 1251.82 L1260.3 1250.53 L1262.23 1249.2 L1264.15 1247.83 L1266.08 1246.42 L1268 1244.98 L1269.92 1243.51 L1271.85 1241.99 L1273.77 1240.44 L1275.7 1238.85 L1277.62 1237.22 L1279.54 1235.54 L1281.47 1233.83 L1283.39 1232.08 L1285.32 1230.29 L1287.24 1228.46 L1289.16 1226.58 L1291.09 1224.66 L1293.01 1222.7 L1294.94 1220.7 L1296.86 1218.65 L1298.78 1216.58 L1300.71 1214.49 L1302.63 1212.39 L1304.56 1210.28 L1306.48 1208.15 L1308.4 1206.01 L1310.33 1203.87 L1312.25 1201.7 L1314.18 1199.53 L1316.1 1197.34 L1318.02 1195.14 L1319.95 1192.93 L1321.87 1190.7 L1323.8 1188.46 L1325.72 1186.21 L1327.64 1183.95 L1329.57 1181.67 L1331.49 1179.37 L1333.42 1177.07 L1335.34 1174.75 L1337.26 1172.43 L1339.19 1170.12 L1341.11 1167.82 L1343.04 1165.53 L1344.96 1163.25 L1346.88 1160.98 L1348.81 1158.73 L1350.73 1156.48 L1352.66 1154.25 L1354.58 1152.03 L1356.5 1149.82 L1358.43 1147.62 L1360.35 1145.44 L1362.28 1143.27 L1364.2 1141.11 L1366.12 1138.96 L1368.05 1136.83 L1369.97 1134.71 L1371.9 1132.61 L1373.82 1130.52 L1375.74 1128.45 L1377.67 1126.41 L1379.59 1124.39 L1381.52 1122.41 L1383.44 1120.45 L1385.36 1118.53 L1387.29 1116.63 L1389.21 1114.76 L1391.14 1112.93 L1393.06 1111.12 L1394.98 1109.35 L1396.91 1107.61 L1398.83 1105.9 L1400.76 1104.22 L1402.68 1102.57 L1404.6 1100.96 L1406.53 1099.38 L1408.45 1097.84 L1410.38 1096.33 L1412.3 1094.86 L1414.22 1093.42 L1416.15 1092.02 L1418.07 1090.66 L1420 1089.35 L1421.92 1088.07 L1423.84 1086.84 L1425.77 1085.65 L1427.69 1084.5 L1429.62 1083.39 L1431.54 1082.33 L1433.46 1081.31 L1435.39 1080.34 L1437.31 1079.41 L1439.24 1078.52 L1441.16 1077.68 L1443.08 1076.89 L1445.01 1076.15 L1446.93 1075.45 L1448.86 1074.8 L1450.78 1074.2 L1452.7 1073.64 L1454.63 1073.12 L1456.55 1072.65 L1458.48 1072.22 L1460.4 1071.84 L1462.32 1071.5 L1464.25 1071.2 L1466.17 1070.95 L1468.1 1070.74 L1470.02 1070.58 L1471.94 1070.46 L1473.87 1070.39 L1475.79 1070.37 L1477.72 1070.39 L1479.64 1070.47 L1481.56 1070.59 L1483.49 1070.75 L1485.41 1070.97 L1487.34 1071.24 L1489.26 1071.56 L1491.18 1071.92 L1493.11 1072.32 L1495.03 1072.76 L1496.96 1073.24 L1498.88 1073.76 L1500.8 1074.32 L1502.73 1074.92 L1504.65 1075.56 L1506.58 1076.24 L1508.5 1076.97 L1510.42 1077.74 L1512.35 1078.55 L1514.27 1079.4 L1516.2 1080.29 L1518.12 1081.23 L1520.04 1082.21 L1521.97 1083.24 L1523.89 1084.31 L1525.82 1085.42 L1527.74 1086.58 L1529.66 1087.78 L1531.59 1089 L1533.51 1090.25 L1535.44 1091.53 L1537.36 1092.84 L1539.28 1094.17 L1541.21 1095.53 L1543.13 1096.92 L1545.06 1098.34 L1546.98 1099.78 L1548.9 1101.26 L1550.83 1102.76 L1552.75 1104.29 L1554.68 1105.85 L1556.6 1107.44 L1558.52 1109.06 L1560.45 1110.7 L1562.37 1112.38 L1564.3 1114.09 L1566.22 1115.82 L1568.14 1117.58 L1570.07 1119.36 L1571.99 1121.15 L1573.92 1122.95 L1575.84 1124.77 L1577.76 1126.6 L1579.69 1128.45 L1581.61 1130.31 L1583.54 1132.18 L1585.46 1134.08 L1587.39 1135.98 L1589.31 1137.9 L1591.23 1139.84 L1593.16 1141.79 L1595.08 1143.75 L1597.01 1145.73 L1598.93 1147.73 L1600.85 1149.74 L1602.78 1151.76 L1604.7 1153.8 L1606.63 1155.84 L1608.55 1157.88 L1610.47 1159.92 L1612.4 1161.95 L1614.32 1163.98 L1616.25 1166 L1618.17 1168.02 L1620.09 1170.03 L1622.02 1172.04 L1623.94 1174.04 L1625.87 1176.04 L1627.79 1178.03 L1629.71 1180.01 L1631.64 1181.99 L1633.56 1183.97 L1635.49 1185.93 L1637.41 1187.89 L1639.33 1189.84 L1641.26 1191.79 L1643.18 1193.73 L1645.11 1195.66 L1647.03 1197.57 L1648.95 1199.46 L1650.88 1201.34 L1652.8 1203.2 L1654.73 1205.04 L1656.65 1206.87 L1658.57 1208.68 L1660.5 1210.47 L1662.42 1212.24 L1664.35 1214 L1666.27 1215.73 L1668.19 1217.45 L1670.12 1219.15 L1672.04 1220.83 L1673.97 1222.49 L1675.89 1224.12 L1677.81 1225.74 L1679.74 1227.34 L1681.66 1228.91 L1683.59 1230.46 L1685.51 1231.98 L1687.43 1233.47 L1689.36 1234.93 L1691.28 1236.35 L1693.21 1237.75 L1695.13 1239.11 L1697.05 1240.44 L1698.98 1241.73 L1700.9 1242.99 L1702.83 1244.22 L1704.75 1245.41 L1706.67 1246.57 L1708.6 1247.69 L1710.52 1248.78 L1712.45 1249.83 L1714.37 1250.84 L1716.29 1251.82 L1718.22 1252.76 L1720.14 1253.66 L1722.07 1254.53 L1723.99 1255.37 L1725.91 1256.17 L1727.84 1256.94 L1729.76 1257.68 L1731.69 1258.38 L1733.61 1259.05 L1735.53 1259.68 L1737.46 1260.28 L1739.38 1260.85 L1741.31 1261.38 L1743.23 1261.87 L1745.15 1262.33 L1747.08 1262.75 L1749 1263.13 L1750.93 1263.47 L1752.85 1263.78 L1754.77 1264.05 L1756.7 1264.28 L1758.62 1264.48 L1760.55 1264.63 L1762.47 1264.75 L1764.39 1264.83 L1766.32 1264.87 L1768.24 1264.87 L1770.17 1264.84 L1772.09 1264.77 L1774.01 1264.65 L1775.94 1264.5 L1777.86 1264.31 L1779.79 1264.07 L1781.71 1263.8 L1783.63 1263.48 L1785.56 1263.13 L1787.48 1262.73 L1789.41 1262.29 L1791.33 1261.81 L1793.25 1261.28 L1795.18 1260.71 L1797.1 1260.1 L1799.03 1259.45 L1800.95 1258.78 L1802.87 1258.08 L1804.8 1257.35 L1806.72 1256.59 L1808.65 1255.81 L1810.57 1255 L1812.49 1254.16 L1814.42 1253.29 L1816.34 1252.4 L1818.27 1251.47 L1820.19 1250.52 L1822.11 1249.54 L1824.04 1248.53 L1825.96 1247.49 L1827.89 1246.42 L1829.81 1245.32 L1831.73 1244.19 L1833.66 1243.03 L1835.58 1241.84 L1837.51 1240.62 L1839.43 1239.38 L1841.35 1238.12 L1843.28 1236.84 L1845.2 1235.54 L1847.13 1234.21 L1849.05 1232.86 L1850.97 1231.49 L1852.9 1230.09 L1854.82 1228.67 L1856.75 1227.23 L1858.67 1225.77 L1860.59 1224.28 L1862.52 1222.77 L1864.44 1221.23 L1866.37 1219.67 L1868.29 1218.09 L1870.21 1216.48 L1872.14 1214.85 L1874.06 1213.19 L1875.99 1211.52 L1877.91 1209.84 L1879.83 1208.17 L1881.76 1206.49 L1883.68 1204.81 L1885.61 1203.12 L1887.53 1201.43 L1889.45 1199.74 L1891.38 1198.05 L1893.3 1196.35 L1895.23 1194.65 L1897.15 1192.95 L1899.07 1191.24 L1901 1189.54 L1902.92 1187.83 L1904.85 1186.11 L1906.77 1184.4 L1908.69 1182.68 L1910.62 1180.96 L1912.54 1179.23 L1914.47 1177.51 L1916.39 1175.79 L1918.31 1174.08 L1920.24 1172.37 L1922.16 1170.67 L1924.09 1168.97 L1926.01 1167.28 L1927.93 1165.59 L1929.86 1163.91 L1931.78 1162.23 L1933.71 1160.56 L1935.63 1158.9 L1937.55 1157.24 L1939.48 1155.59 L1941.4 1153.94 L1943.33 1152.3 L1945.25 1150.66 L1947.17 1149.03 L1949.1 1147.41 L1951.02 1145.79 L1952.95 1144.19 L1954.87 1142.62 L1956.79 1141.06 L1958.72 1139.53 L1960.64 1138.03 L1962.57 1136.55 L1964.49 1135.1 L1966.41 1133.67 L1968.34 1132.27 L1970.26 1130.89 L1972.19 1129.54 L1974.11 1128.22 L1976.03 1126.92 L1977.96 1125.65 L1979.88 1124.41 L1981.81 1123.19 L1983.73 1122 L1985.65 1120.84 L1987.58 1119.7 L1989.5 1118.6 L1991.43 1117.52 L1993.35 1116.47 L1995.27 1115.44 L1997.2 1114.44 L1999.12 1113.47 L2001.05 1112.53 L2002.97 1111.61 L2004.9 1110.73 L2006.82 1109.87 L2008.74 1109.04 L2010.67 1108.24 L2012.59 1107.47 L2014.52 1106.72 L2016.44 1106.01 L2018.36 1105.33 L2020.29 1104.67 L2022.21 1104.05 L2024.14 1103.45 L2026.06 1102.89 L2027.98 1102.36 L2029.91 1101.86 L2031.83 1101.4 L2033.76 1100.98 L2035.68 1100.6 L2037.6 1100.26 L2039.53 1099.96 L2041.45 1099.7 L2043.38 1099.49 L2045.3 1099.31 L2047.22 1099.17 L2049.15 1099.08 L2051.07 1099.03 L2053 1099.02 L2054.92 1099.05 L2056.84 1099.13 L2058.77 1099.25 L2060.69 1099.41 L2062.62 1099.61 L2064.54 1099.86 L2066.46 1100.16 L2068.39 1100.49 L2070.31 1100.85 L2072.24 1101.25 L2074.16 1101.68 L2076.08 1102.15 L2078.01 1102.64 L2079.93 1103.17 L2081.86 1103.74 L2083.78 1104.34 L2085.7 1104.97 L2087.63 1105.64 L2089.55 1106.34 L2091.48 1107.08 L2093.4 1107.85 L2095.32 1108.66 L2097.25 1109.5 L2099.17 1110.38 L2101.1 1111.29 L2103.02 1112.24 L2104.94 1113.23 L2106.87 1114.25 L2108.79 1115.31 L2110.72 1116.4 L2112.64 1117.53 L2114.56 1118.7 L2116.49 1119.9 L2118.41 1121.14 L2120.34 1122.42 L2122.26 1123.74 L2124.18 1125.09 L2126.11 1126.48 L2128.03 1127.91 L2129.96 1129.38 L2131.88 1130.89 L2133.8 1132.43 L2135.73 1134.02 L2137.65 1135.64 L2139.58 1137.3 L2141.5 1139 L2143.42 1140.74 L2145.35 1142.51 L2147.27 1144.3 L2149.2 1146.11 L2151.12 1147.94 L2153.04 1149.79 L2154.97 1151.66 L2156.89 1153.55 L2158.82 1155.46 L2160.74 1157.39 L2162.66 1159.34 L2164.59 1161.31 L2166.51 1163.3 L2168.44 1165.31 L2170.36 1167.34 L2172.28 1169.39 L2174.21 1171.47 L2176.13 1173.56 L2178.06 1175.68 L2179.98 1177.81 L2181.9 1179.97 L2183.83 1182.14 L2185.75 1184.34 L2187.68 1186.55 L2189.6 1188.77 L2191.52 1191.02 L2193.45 1193.28 L2195.37 1195.56 L2197.3 1197.86 L2199.22 1200.18 L2201.14 1202.52 L2203.07 1204.87 L2204.99 1207.24 L2206.92 1209.63 L2208.84 1212.04 L2210.76 1214.46 L2212.69 1216.9 L2214.61 1219.37 L2216.54 1221.85 L2218.46 1224.35 L2220.38 1226.86 L2222.31 1229.39 L2224.23 1231.91 L2226.16 1234.43 L2228.08 1236.94 L2230 1239.46 L2231.93 1241.96 L2233.85 1244.47 L2235.78 1246.97 L2237.7 1249.47 L2239.62 1251.96 L2241.55 1254.45 L2243.47 1256.94 L2245.4 1259.42 L2247.32 1261.9 L2249.24 1264.37 L2251.17 1266.84 L2253.09 1269.31 L2255.02 1271.77 L2256.94 1274.22 L2258.86 1276.67 L2260.79 1279.12 L2262.71 1281.56 L2264.64 1284 L2266.56 1286.43 L2268.48 1288.86 L2270.41 1291.28 L2272.33 1293.7 L2274.26 1296.11 L2276.18 1298.51 L2278.1 1300.92 L2280.03 1303.31 L2281.95 1305.7 L2283.88 1308.08 L2285.8 1310.46 L2287.72 1312.83 L2289.65 1315.2 L2291.57 1317.56 L2293.5 1319.91 L2295.42 1322.26 L2297.34 1324.6 L2297.34 1304.83 L2295.42 1302.32 L2293.5 1299.81 L2291.57 1297.3 L2289.65 1294.77 L2287.72 1292.24 L2285.8 1289.7 L2283.88 1287.16 L2281.95 1284.61 L2280.03 1282.05 L2278.1 1279.49 L2276.18 1276.92 L2274.26 1274.34 L2272.33 1271.76 L2270.41 1269.17 L2268.48 1266.58 L2266.56 1263.98 L2264.64 1261.38 L2262.71 1258.77 L2260.79 1256.15 L2258.86 1253.53 L2256.94 1250.91 L2255.02 1248.28 L2253.09 1245.64 L2251.17 1243 L2249.24 1240.35 L2247.32 1237.7 L2245.4 1235.05 L2243.47 1232.39 L2241.55 1229.73 L2239.62 1227.06 L2237.7 1224.38 L2235.78 1221.71 L2233.85 1219.03 L2231.93 1216.34 L2230 1213.65 L2228.08 1210.96 L2226.16 1208.26 L2224.23 1205.56 L2222.31 1202.86 L2220.38 1200.15 L2218.46 1197.45 L2216.54 1194.77 L2214.61 1192.11 L2212.69 1189.47 L2210.76 1186.85 L2208.84 1184.25 L2206.92 1181.66 L2204.99 1179.1 L2203.07 1176.55 L2201.14 1174.03 L2199.22 1171.52 L2197.3 1169.03 L2195.37 1166.56 L2193.45 1164.11 L2191.52 1161.68 L2189.6 1159.27 L2187.68 1156.87 L2185.75 1154.5 L2183.83 1152.14 L2181.9 1149.8 L2179.98 1147.48 L2178.06 1145.19 L2176.13 1142.91 L2174.21 1140.66 L2172.28 1138.43 L2170.36 1136.22 L2168.44 1134.04 L2166.51 1131.87 L2164.59 1129.73 L2162.66 1127.61 L2160.74 1125.51 L2158.82 1123.43 L2156.89 1121.37 L2154.97 1119.34 L2153.04 1117.32 L2151.12 1115.33 L2149.2 1113.36 L2147.27 1111.41 L2145.35 1109.48 L2143.42 1107.57 L2141.5 1105.69 L2139.58 1103.85 L2137.65 1102.06 L2135.73 1100.3 L2133.8 1098.59 L2131.88 1096.92 L2129.96 1095.3 L2128.03 1093.71 L2126.11 1092.16 L2124.18 1090.66 L2122.26 1089.19 L2120.34 1087.76 L2118.41 1086.38 L2116.49 1085.03 L2114.56 1083.73 L2112.64 1082.46 L2110.72 1081.23 L2108.79 1080.04 L2106.87 1078.89 L2104.94 1077.77 L2103.02 1076.7 L2101.1 1075.66 L2099.17 1074.67 L2097.25 1073.71 L2095.32 1072.78 L2093.4 1071.9 L2091.48 1071.06 L2089.55 1070.25 L2087.63 1069.47 L2085.7 1068.74 L2083.78 1068.04 L2081.86 1067.38 L2079.93 1066.76 L2078.01 1066.17 L2076.08 1065.61 L2074.16 1065.1 L2072.24 1064.61 L2070.31 1064.17 L2068.39 1063.76 L2066.46 1063.38 L2064.54 1063.04 L2062.62 1062.75 L2060.69 1062.51 L2058.77 1062.32 L2056.84 1062.17 L2054.92 1062.07 L2053 1062.01 L2051.07 1062 L2049.15 1062.03 L2047.22 1062.11 L2045.3 1062.23 L2043.38 1062.4 L2041.45 1062.61 L2039.53 1062.86 L2037.6 1063.16 L2035.68 1063.5 L2033.76 1063.89 L2031.83 1064.32 L2029.91 1064.78 L2027.98 1065.3 L2026.06 1065.84 L2024.14 1066.43 L2022.21 1067.04 L2020.29 1067.68 L2018.36 1068.36 L2016.44 1069.07 L2014.52 1069.81 L2012.59 1070.59 L2010.67 1071.39 L2008.74 1072.23 L2006.82 1073.09 L2004.9 1073.99 L2002.97 1074.92 L2001.05 1075.88 L1999.12 1076.86 L1997.2 1077.88 L1995.27 1078.93 L1993.35 1080 L1991.43 1081.11 L1989.5 1082.24 L1987.58 1083.4 L1985.65 1084.6 L1983.73 1085.82 L1981.81 1087.07 L1979.88 1088.35 L1977.96 1089.67 L1976.03 1091 L1974.11 1092.37 L1972.19 1093.77 L1970.26 1095.2 L1968.34 1096.65 L1966.41 1098.13 L1964.49 1099.64 L1962.57 1101.17 L1960.64 1102.74 L1958.72 1104.33 L1956.79 1105.94 L1954.87 1107.58 L1952.95 1109.25 L1951.02 1110.95 L1949.1 1112.66 L1947.17 1114.38 L1945.25 1116.1 L1943.33 1117.84 L1941.4 1119.57 L1939.48 1121.32 L1937.55 1123.07 L1935.63 1124.83 L1933.71 1126.59 L1931.78 1128.36 L1929.86 1130.14 L1927.93 1131.92 L1926.01 1133.71 L1924.09 1135.5 L1922.16 1137.3 L1920.24 1139.11 L1918.31 1140.92 L1916.39 1142.74 L1914.47 1144.56 L1912.54 1146.39 L1910.62 1148.22 L1908.69 1150.04 L1906.77 1151.87 L1904.85 1153.69 L1902.92 1155.51 L1901 1157.32 L1899.07 1159.14 L1897.15 1160.94 L1895.23 1162.75 L1893.3 1164.56 L1891.38 1166.36 L1889.45 1168.15 L1887.53 1169.95 L1885.61 1171.74 L1883.68 1173.53 L1881.76 1175.32 L1879.83 1177.1 L1877.91 1178.88 L1875.99 1180.66 L1874.06 1182.43 L1872.14 1184.19 L1870.21 1185.93 L1868.29 1187.63 L1866.37 1189.32 L1864.44 1190.97 L1862.52 1192.6 L1860.59 1194.21 L1858.67 1195.78 L1856.75 1197.34 L1854.82 1198.87 L1852.9 1200.37 L1850.97 1201.85 L1849.05 1203.31 L1847.13 1204.74 L1845.2 1206.15 L1843.28 1207.53 L1841.35 1208.89 L1839.43 1210.22 L1837.51 1211.53 L1835.58 1212.82 L1833.66 1214.08 L1831.73 1215.31 L1829.81 1216.51 L1827.89 1217.67 L1825.96 1218.8 L1824.04 1219.9 L1822.11 1220.97 L1820.19 1222 L1818.27 1223.01 L1816.34 1223.98 L1814.42 1224.92 L1812.49 1225.84 L1810.57 1226.72 L1808.65 1227.57 L1806.72 1228.4 L1804.8 1229.19 L1802.87 1229.95 L1800.95 1230.69 L1799.03 1231.39 L1797.1 1232.07 L1795.18 1232.71 L1793.25 1233.3 L1791.33 1233.85 L1789.41 1234.35 L1787.48 1234.8 L1785.56 1235.21 L1783.63 1235.58 L1781.71 1235.9 L1779.79 1236.17 L1777.86 1236.4 L1775.94 1236.59 L1774.01 1236.74 L1772.09 1236.84 L1770.17 1236.9 L1768.24 1236.92 L1766.32 1236.89 L1764.39 1236.83 L1762.47 1236.72 L1760.55 1236.57 L1758.62 1236.39 L1756.7 1236.16 L1754.77 1235.89 L1752.85 1235.58 L1750.93 1235.22 L1749 1234.83 L1747.08 1234.4 L1745.15 1233.93 L1743.23 1233.41 L1741.31 1232.86 L1739.38 1232.27 L1737.46 1231.64 L1735.53 1230.97 L1733.61 1230.27 L1731.69 1229.53 L1729.76 1228.75 L1727.84 1227.93 L1725.91 1227.08 L1723.99 1226.19 L1722.07 1225.27 L1720.14 1224.31 L1718.22 1223.32 L1716.29 1222.28 L1714.37 1221.2 L1712.45 1220.09 L1710.52 1218.93 L1708.6 1217.73 L1706.67 1216.5 L1704.75 1215.23 L1702.83 1213.92 L1700.9 1212.57 L1698.98 1211.19 L1697.05 1209.77 L1695.13 1208.31 L1693.21 1206.82 L1691.28 1205.29 L1689.36 1203.73 L1687.43 1202.14 L1685.51 1200.51 L1683.59 1198.84 L1681.66 1197.14 L1679.74 1195.42 L1677.81 1193.67 L1675.89 1191.9 L1673.97 1190.1 L1672.04 1188.29 L1670.12 1186.45 L1668.19 1184.59 L1666.27 1182.71 L1664.35 1180.81 L1662.42 1178.89 L1660.5 1176.95 L1658.57 1174.99 L1656.65 1173 L1654.73 1171 L1652.8 1168.98 L1650.88 1166.95 L1648.95 1164.89 L1647.03 1162.81 L1645.11 1160.72 L1643.18 1158.61 L1641.26 1156.49 L1639.33 1154.36 L1637.41 1152.22 L1635.49 1150.07 L1633.56 1147.92 L1631.64 1145.75 L1629.71 1143.58 L1627.79 1141.41 L1625.87 1139.23 L1623.94 1137.04 L1622.02 1134.84 L1620.09 1132.64 L1618.17 1130.43 L1616.25 1128.22 L1614.32 1126 L1612.4 1123.78 L1610.47 1121.55 L1608.55 1119.31 L1606.63 1117.07 L1604.7 1114.83 L1602.78 1112.59 L1600.85 1110.37 L1598.93 1108.16 L1597.01 1105.97 L1595.08 1103.79 L1593.16 1101.63 L1591.23 1099.49 L1589.31 1097.36 L1587.39 1095.25 L1585.46 1093.15 L1583.54 1091.07 L1581.61 1089 L1579.69 1086.95 L1577.76 1084.92 L1575.84 1082.9 L1573.92 1080.89 L1571.99 1078.9 L1570.07 1076.93 L1568.14 1074.97 L1566.22 1073.03 L1564.3 1071.11 L1562.37 1069.23 L1560.45 1067.37 L1558.52 1065.55 L1556.6 1063.76 L1554.68 1062 L1552.75 1060.27 L1550.83 1058.57 L1548.9 1056.91 L1546.98 1055.27 L1545.06 1053.67 L1543.13 1052.09 L1541.21 1050.55 L1539.28 1049.03 L1537.36 1047.55 L1535.44 1046.09 L1533.51 1044.67 L1531.59 1043.27 L1529.66 1041.9 L1527.74 1040.57 L1525.82 1039.27 L1523.89 1038.02 L1521.97 1036.81 L1520.04 1035.66 L1518.12 1034.55 L1516.2 1033.49 L1514.27 1032.48 L1512.35 1031.52 L1510.42 1030.59 L1508.5 1029.72 L1506.58 1028.89 L1504.65 1028.11 L1502.73 1027.37 L1500.8 1026.67 L1498.88 1026.02 L1496.96 1025.41 L1495.03 1024.85 L1493.11 1024.33 L1491.18 1023.85 L1489.26 1023.42 L1487.34 1023.03 L1485.41 1022.69 L1483.49 1022.41 L1481.56 1022.19 L1479.64 1022.01 L1477.72 1021.89 L1475.79 1021.82 L1473.87 1021.8 L1471.94 1021.83 L1470.02 1021.91 L1468.1 1022.04 L1466.17 1022.22 L1464.25 1022.45 L1462.32 1022.73 L1460.4 1023.06 L1458.48 1023.43 L1456.55 1023.86 L1454.63 1024.32 L1452.7 1024.84 L1450.78 1025.4 L1448.86 1026.01 L1446.93 1026.67 L1445.01 1027.39 L1443.08 1028.15 L1441.16 1028.97 L1439.24 1029.83 L1437.31 1030.75 L1435.39 1031.72 L1433.46 1032.73 L1431.54 1033.8 L1429.62 1034.91 L1427.69 1036.07 L1425.77 1037.27 L1423.84 1038.52 L1421.92 1039.82 L1420 1041.16 L1418.07 1042.55 L1416.15 1043.98 L1414.22 1045.46 L1412.3 1046.98 L1410.38 1048.54 L1408.45 1050.14 L1406.53 1051.78 L1404.6 1053.45 L1402.68 1055.16 L1400.76 1056.91 L1398.83 1058.69 L1396.91 1060.51 L1394.98 1062.37 L1393.06 1064.26 L1391.14 1066.18 L1389.21 1068.14 L1387.29 1070.13 L1385.36 1072.15 L1383.44 1074.2 L1381.52 1076.29 L1379.59 1078.41 L1377.67 1080.56 L1375.74 1082.75 L1373.82 1084.96 L1371.9 1087.2 L1369.97 1089.45 L1368.05 1091.72 L1366.12 1094 L1364.2 1096.3 L1362.28 1098.61 L1360.35 1100.93 L1358.43 1103.28 L1356.5 1105.63 L1354.58 1108 L1352.66 1110.38 L1350.73 1112.78 L1348.81 1115.18 L1346.88 1117.6 L1344.96 1120.04 L1343.04 1122.48 L1341.11 1124.94 L1339.19 1127.41 L1337.26 1129.89 L1335.34 1132.39 L1333.42 1134.88 L1331.49 1137.36 L1329.57 1139.82 L1327.64 1142.27 L1325.72 1144.7 L1323.8 1147.12 L1321.87 1149.53 L1319.95 1151.92 L1318.02 1154.3 L1316.1 1156.67 L1314.18 1159.02 L1312.25 1161.35 L1310.33 1163.68 L1308.4 1165.99 L1306.48 1168.29 L1304.56 1170.57 L1302.63 1172.84 L1300.71 1175.1 L1298.78 1177.34 L1296.86 1179.57 L1294.94 1181.77 L1293.01 1183.93 L1291.09 1186.03 L1289.16 1188.09 L1287.24 1190.11 L1285.32 1192.07 L1283.39 1194 L1281.47 1195.87 L1279.54 1197.71 L1277.62 1199.5 L1275.7 1201.24 L1273.77 1202.95 L1271.85 1204.61 L1269.92 1206.23 L1268 1207.81 L1266.08 1209.35 L1264.15 1210.85 L1262.23 1212.3 L1260.3 1213.72 L1258.38 1215.11 L1256.46 1216.43 L1254.53 1217.67 L1252.61 1218.83 L1250.68 1219.92 L1248.76 1220.93 L1246.84 1221.87 L1244.91 1222.73 L1242.99 1223.52 L1241.06 1224.24 L1239.14 1224.88 L1237.22 1225.46 L1235.29 1225.97 L1233.37 1226.41 L1231.44 1226.78 L1229.52 1227.08 L1227.6 1227.32 L1225.67 1227.5 L1223.75 1227.61 L1221.82 1227.66 L1219.9 1227.65 L1217.98 1227.55 L1216.05 1227.35 L1214.13 1227.05 L1212.2 1226.65 L1210.28 1226.14 L1208.36 1225.54 L1206.43 1224.84 L1204.51 1224.05 L1202.58 1223.16 L1200.66 1222.18 L1198.74 1221.11 L1196.81 1219.94 L1194.89 1218.69 L1192.96 1217.36 L1191.04 1215.94 L1189.12 1214.43 L1187.19 1212.84 L1185.27 1211.17 L1183.34 1209.43 L1181.42 1207.6 L1179.5 1205.67 L1177.57 1203.63 L1175.65 1201.47 L1173.72 1199.2 L1171.8 1196.81 L1169.88 1194.31 L1167.95 1191.7 L1166.03 1188.99 L1164.1 1186.17 L1162.18 1183.24 L1160.25 1180.22 L1158.33 1177.1 L1156.41 1173.88 L1154.48 1170.56 L1152.56 1167.15 L1150.63 1163.65 L1148.71 1160.06 L1146.79 1156.38 L1144.86 1152.61 L1142.94 1148.77 L1141.01 1144.82 L1139.09 1140.75 L1137.17 1136.56 L1135.24 1132.26 L1133.32 1127.85 L1131.39 1123.33 L1129.47 1118.71 L1127.55 1113.98 L1125.62 1109.14 L1123.7 1104.21 L1121.77 1099.18 L1119.85 1094.06 L1117.93 1088.84 L1116 1083.53 L1114.08 1078.13 L1112.15 1072.64 L1110.23 1067.08 L1108.31 1061.43 L1106.38 1055.69 L1104.46 1049.89 L1102.53 1043.99 L1100.61 1037.98 L1098.69 1031.88 L1096.76 1025.67 L1094.84 1019.37 L1092.91 1012.98 L1090.99 1006.49 L1089.07 999.92 L1087.14 993.26 L1085.22 986.516 L1083.29 979.69 L1081.37 972.786 L1079.45 965.806 L1077.52 958.751 L1075.6 951.625 L1073.67 944.43 L1071.75 937.168 L1069.83 929.842 L1067.9 922.454 L1065.98 915.005 L1064.05 907.491 L1062.13 899.903 L1060.21 892.245 L1058.28 884.52 L1056.36 876.729 L1054.43 868.875 L1052.51 860.961 L1050.59 852.989 L1048.66 844.962 L1046.74 836.882 L1044.81 828.752 L1042.89 820.574 L1040.97 812.35 L1039.04 804.084 L1037.12 795.776 L1035.19 787.43 L1033.27 779.049 L1031.35 770.633 L1029.42 762.186 L1027.5 753.71 L1025.57 745.203 L1023.65 736.663 L1021.73 728.092 L1019.8 719.492 L1017.88 710.867 L1015.95 702.218 L1014.03 693.548 L1012.11 684.858 L1010.18 676.152 L1008.26 667.432 L1006.33 658.699 L1004.41 649.956 L1002.49 641.206 L1000.56 632.449 L998.638 623.69 L996.714 614.929 L994.79 606.169 L992.866 597.412 L990.942 588.66 L989.018 579.916 L987.094 571.183 L985.17 562.466 L983.246 553.768 L981.322 545.09 L979.398 536.433 L977.474 527.801 L975.55 519.194 L973.626 510.615 L971.702 502.066 L969.778 493.548 L967.854 485.063 L965.93 476.612 L964.006 468.199 L962.082 459.824 L960.158 451.489 L958.234 443.195 L956.31 434.946 L954.386 426.742 L952.462 418.584 L950.538 410.475 L948.614 402.423 L946.69 394.434 L944.766 386.511 L942.842 378.654 L940.918 370.865 L938.994 363.146 L937.07 355.497 L935.146 347.92 L933.222 340.416 L931.298 332.986 L929.374 325.632 L927.45 318.354 L925.526 311.155 L923.602 304.034 L921.678 296.994 L919.754 290.036 L917.83 283.16 L915.906 276.367 L913.982 269.66 L912.058 263.038 L910.134 256.514 L908.21 250.098 L906.286 243.791 L904.362 237.594 L902.438 231.506 L900.514 225.529 L898.59 219.664 L896.666 213.91 L894.742 208.268 L892.818 202.739 L890.894 197.324 L888.97 192.022 L887.046 186.835 L885.122 181.762 L883.198 176.805 L881.274 171.963 L879.35 167.237 L877.426 162.628 L875.502 158.136 L873.578 153.761 L871.654 149.513 L869.73 145.402 L867.806 141.427 L865.882 137.588 L863.958 133.886 L862.034 130.321 L860.11 126.891 L858.186 123.597 L856.262 120.439 L854.338 117.417 L852.414 114.53 L850.49 111.779 L848.566 109.163 L846.641 106.682 L844.717 104.336 L842.793 102.125 L840.869 100.048 L838.945 98.1052 L837.021 96.2966 L835.097 94.6218 L833.173 93.0916 L831.249 91.7165 L829.325 90.4957 L827.401 89.4284 L825.477 88.5138 L823.553 87.751 L821.629 87.1393 L819.705 86.6777 L817.781 86.3655 L815.857 86.2017 L813.933 86.1857 L812.009 86.3164 L810.085 86.5931 L808.161 87.0148 L806.237 87.5808 L804.313 88.2901 L802.389 89.1418 L800.465 90.1351 L798.541 91.2691 L796.617 92.5429 L794.693 93.96 L792.769 95.5237 L790.845 97.2329 L788.921 99.0865 L786.997 101.083 L785.073 103.222 L783.149 105.502 L781.225 107.921 L779.301 110.479 L777.377 113.174 L775.453 116.006 L773.529 118.972 L771.605 122.073 L769.681 125.306 L767.757 128.671 L765.833 132.166 L763.909 135.79 L761.985 139.542 L760.061 143.421 L758.137 147.425 L756.213 151.557 L754.289 155.819 L752.365 160.209 L750.441 164.726 L748.517 169.369 L746.593 174.135 L744.669 179.025 L742.745 184.035 L740.821 189.165 L738.897 194.414 L736.973 199.78 L735.049 205.261 L733.125 210.857 L731.201 216.565 L729.277 222.385 L727.353 228.315 L725.429 234.353 L723.505 240.499 L721.581 246.75 L719.657 253.106 L717.733 259.556 L715.809 266.094 L713.885 272.717 L711.961 279.425 L710.037 286.216 L708.113 293.091 L706.189 300.047 L704.265 307.084 L702.341 314.202 L700.417 321.398 L698.493 328.672 L696.569 336.023 L694.645 343.451 L692.721 350.953 L690.797 358.529 L688.873 366.178 L686.949 373.899 L685.025 381.691 L683.101 389.553 L681.177 397.484 L679.253 405.471 L677.329 413.503 L675.405 421.58 L673.481 429.701 L671.557 437.867 L669.633 446.076 L667.709 454.328 L665.785 462.624 L663.861 470.963 L661.937 479.343 L660.013 487.766 L658.089 496.231 L656.165 504.737 L654.241 513.283 L652.317 521.87 L650.393 530.497 L648.469 539.163 L646.545 547.868 L644.621 556.612 L642.697 565.393 L640.773 574.184 L638.849 582.959 L636.924 591.719 L635 600.465 L633.076 609.2 L631.152 617.925 L629.228 626.642 L627.304 635.351 L625.38 644.054 L623.456 652.753 L621.532 661.45 L619.608 670.144 L617.684 678.837 L615.76 687.532 L613.836 696.227 L611.912 704.926 L609.988 713.628 L608.064 722.335 L606.14 731.048 L604.216 739.767 L602.292 748.46 L600.368 757.1 L598.444 765.689 L596.52 774.231 L594.596 782.729 L592.672 791.188 L590.748 799.611 L588.824 808.001 L586.9 816.361 L584.976 824.694 L583.052 833.004 L581.128 841.293 L579.204 849.564 L577.28 857.82 L575.356 866.064 L573.432 874.297 L571.508 882.524 L569.584 890.744 L567.66 898.962 L565.736 907.179 L563.812 915.336 L561.888 923.379 L559.964 931.316 L558.04 939.157 L556.116 946.91 L554.192 954.582 L552.268 962.181 L550.344 969.717 L548.42 977.194 L546.496 984.622 L544.572 992.007 L542.648 999.355 L540.724 1006.67 L538.8 1013.97 L536.876 1021.24 L534.952 1028.51 L533.028 1035.76 L531.104 1043.02 L529.18 1050.28 L527.256 1057.55 L525.332 1064.73 L523.408 1071.74 L521.484 1078.6 L519.56 1085.33 L517.636 1091.94 L515.712 1098.45 L513.788 1104.87 L511.864 1111.22 L509.94 1117.52 L508.016 1123.77 L506.092 1130 L504.168 1136.21 L502.244 1142.42 L500.32 1148.64 L498.396 1154.88 L496.472 1161.14 L494.548 1167.45 L492.624 1173.8 L490.7 1180.21 L488.776 1186.69 L486.852 1193.01 L484.928 1198.98 L483.004 1204.66 L481.08 1210.08 L479.156 1215.3 L477.232 1220.36 L475.308 1225.3 L473.384 1230.16 L471.46 1234.98 L469.536 1239.78 L467.612 1244.61 L465.688 1249.49 L463.764 1254.46 L461.84 1259.54 L459.916 1264.75 L457.992 1270.12 L456.068 1275.67 L454.144 1281.42 L452.22 1287.38 L450.296 1293.56  Z" fill="#009af9" fill-rule="evenodd" fill-opacity="0.5"/>
<polyline clip-path="url(#clip621)" style="stroke:#009af9; stroke-linecap:round; stroke-linejoin:round; stroke-width:4; stroke-opacity:1; fill:none" points="450.296,1338.9 452.22,1333.07 454.144,1327.43 456.068,1321.98 457.992,1316.7 459.916,1311.58 461.84,1306.59 463.764,1301.72 465.688,1296.95 467.612,1292.25 469.536,1287.6 471.46,1282.97 473.384,1278.34 475.308,1273.67 477.232,1268.93 479.156,1264.08 481.08,1259.09 483.004,1253.91 484.928,1248.52 486.852,1242.86 488.776,1236.89 490.7,1230.79 492.624,1224.74 494.548,1218.73 496.472,1212.77 498.396,1206.84 500.32,1200.94 502.244,1195.05 504.168,1189.17 506.092,1183.28 508.016,1177.37 509.94,1171.44 511.864,1165.47 513.788,1159.45 515.712,1153.37 517.636,1147.2 519.56,1140.95 521.484,1134.59 523.408,1128.1 525.332,1121.47 527.256,1114.69 529.18,1107.83 531.104,1100.98 533.028,1094.13 534.952,1087.27 536.876,1080.4 538.8,1073.52 540.724,1066.63 542.648,1059.7 544.572,1052.75 546.496,1045.77 548.42,1038.74 550.344,1031.66 552.268,1024.53 554.192,1017.34 556.116,1010.08 558.04,1002.75 559.964,995.331 561.888,987.824 563.812,980.219 565.736,972.508 567.66,964.739 569.584,956.968 571.508,949.191 573.432,941.406 575.356,933.612 577.28,925.807 579.204,917.988 581.128,910.153 583.052,902.299 584.976,894.425 586.9,886.526 588.824,878.601 590.748,870.646 592.672,862.659 594.596,854.636 596.52,846.575 598.444,838.472 600.368,830.324 602.292,822.127 604.216,813.879 606.14,805.605 608.064,797.335 609.988,789.067 611.912,780.802 613.836,772.538 615.76,764.275 617.684,756.011 619.608,747.746 621.532,739.478 623.456,731.206 625.38,722.93 627.304,714.648 629.228,706.359 631.152,698.061 633.076,689.753 635,681.435 636.924,673.104 638.849,664.759 640.773,656.398 642.697,648.021 644.621,639.651 646.545,631.314 648.469,623.01 650.393,614.741 652.317,606.507 654.241,598.308 656.165,590.145 658.089,582.018 660.013,573.928 661.937,565.875 663.861,557.859 665.785,549.881 667.709,541.942 669.633,534.041 671.557,526.179 673.481,518.356 675.405,510.573 677.329,502.83 679.253,495.128 681.177,487.465 683.101,479.854 685.025,472.306 686.949,464.822 688.873,457.403 690.797,450.049 692.721,442.762 694.645,435.543 696.569,428.393 698.493,421.313 700.417,414.304 702.341,407.366 704.265,400.501 706.189,393.71 708.113,386.993 710.037,380.352 711.961,373.787 713.885,367.3 715.809,360.891 717.733,354.562 719.657,348.313 721.581,342.152 723.505,336.088 725.429,330.122 727.353,324.256 729.277,318.49 731.201,312.827 733.125,307.268 735.049,301.813 736.973,296.465 738.897,291.225 740.821,286.094 742.745,281.073 744.669,276.165 746.593,271.369 748.517,266.689 750.441,262.124 752.365,257.676 754.289,253.348 756.213,249.139 758.137,245.052 760.061,241.085 761.985,237.235 763.909,233.504 765.833,229.893 767.757,226.403 769.681,223.036 771.605,219.792 773.529,216.673 775.453,213.68 777.377,210.814 779.301,208.076 781.225,205.467 783.149,202.988 785.073,200.641 786.997,198.427 788.921,196.347 790.845,194.401 792.769,192.592 794.693,190.92 796.617,189.386 798.541,187.987 800.465,186.72 802.389,185.587 804.313,184.586 806.237,183.721 808.161,182.991 810.085,182.398 812.009,181.941 813.933,181.623 815.857,181.444 817.781,181.404 819.705,181.505 821.629,181.747 823.553,182.132 825.477,182.66 827.401,183.332 829.325,184.148 831.249,185.11 833.173,186.218 835.097,187.474 837.021,188.866 838.945,190.386 840.869,192.034 842.793,193.809 844.717,195.712 846.641,197.743 848.566,199.902 850.49,202.191 852.414,204.607 854.338,207.153 856.262,209.828 858.186,212.632 860.11,215.566 862.034,218.629 863.958,221.823 865.882,225.146 867.806,228.599 869.73,232.182 871.654,235.895 873.578,239.739 875.502,243.704 877.426,247.782 879.35,251.971 881.274,256.272 883.198,260.684 885.122,265.207 887.046,269.84 888.97,274.583 890.894,279.436 892.818,284.398 894.742,289.468 896.666,294.647 898.59,299.934 900.514,305.327 902.438,310.828 904.362,316.435 906.286,322.147 908.21,327.965 910.134,333.887 912.058,339.913 913.982,346.034 915.906,352.237 917.83,358.522 919.754,364.888 921.678,371.334 923.602,377.858 925.526,384.461 927.45,391.14 929.374,397.895 931.298,404.724 933.222,411.626 935.146,418.6 937.07,425.646 938.994,432.761 940.918,439.945 942.842,447.196 944.766,454.513 946.69,461.895 948.614,469.341 950.538,476.849 952.462,484.412 954.386,492.023 956.31,499.68 958.234,507.382 960.158,515.127 962.082,522.913 964.006,530.739 965.93,538.603 967.854,546.504 969.778,554.44 971.702,562.409 973.626,570.409 975.55,578.439 977.474,586.497 979.398,594.581 981.322,602.69 983.246,610.821 985.17,618.973 987.094,627.144 989.018,635.332 990.942,643.533 992.866,651.743 994.79,659.959 996.714,668.179 998.638,676.403 1000.56,684.626 1002.49,692.848 1004.41,701.067 1006.33,709.28 1008.26,717.485 1010.18,725.679 1012.11,733.862 1014.03,742.031 1015.95,750.183 1017.88,758.316 1019.8,766.429 1021.73,774.518 1023.65,782.582 1025.57,790.619 1027.5,798.625 1029.42,806.604 1031.35,814.556 1033.27,822.48 1035.19,830.374 1037.12,838.234 1039.04,846.06 1040.97,853.848 1042.89,861.597 1044.81,869.304 1046.74,876.967 1048.66,884.584 1050.59,892.152 1052.51,899.668 1054.43,907.131 1056.36,914.538 1058.28,921.887 1060.21,929.175 1062.13,936.4 1064.05,943.559 1065.98,950.65 1067.9,957.679 1069.83,964.652 1071.75,971.568 1073.67,978.424 1075.6,985.217 1077.52,991.946 1079.45,998.607 1081.37,1005.2 1083.29,1011.72 1085.22,1018.17 1087.14,1024.54 1089.07,1030.83 1090.99,1037.04 1092.91,1043.17 1094.84,1049.21 1096.76,1055.17 1098.69,1061.03 1100.61,1066.8 1102.53,1072.47 1104.46,1078.05 1106.38,1083.54 1108.31,1088.96 1110.23,1094.3 1112.15,1099.56 1114.08,1104.75 1116,1109.85 1117.93,1114.87 1119.85,1119.81 1121.77,1124.66 1123.7,1129.41 1125.62,1134.08 1127.55,1138.65 1129.47,1143.12 1131.39,1147.5 1133.32,1151.77 1135.24,1155.94 1137.17,1160.01 1139.09,1163.96 1141.01,1167.81 1142.94,1171.55 1144.86,1175.18 1146.79,1178.74 1148.71,1182.22 1150.63,1185.62 1152.56,1188.93 1154.48,1192.15 1156.41,1195.28 1158.33,1198.33 1160.25,1201.28 1162.18,1204.14 1164.1,1206.9 1166.03,1209.56 1167.95,1212.12 1169.88,1214.59 1171.8,1216.94 1173.72,1219.2 1175.65,1221.34 1177.57,1223.38 1179.5,1225.31 1181.42,1227.12 1183.34,1228.84 1185.27,1230.49 1187.19,1232.05 1189.12,1233.55 1191.04,1234.96 1192.96,1236.3 1194.89,1237.55 1196.81,1238.72 1198.74,1239.81 1200.66,1240.81 1202.58,1241.73 1204.51,1242.55 1206.43,1243.29 1208.36,1243.94 1210.28,1244.49 1212.2,1244.95 1214.13,1245.32 1216.05,1245.59 1217.98,1245.76 1219.9,1245.83 1221.82,1245.82 1223.75,1245.75 1225.67,1245.63 1227.6,1245.44 1229.52,1245.19 1231.44,1244.88 1233.37,1244.51 1235.29,1244.07 1237.22,1243.57 1239.14,1243 1241.06,1242.36 1242.99,1241.66 1244.91,1240.88 1246.84,1240.04 1248.76,1239.13 1250.68,1238.14 1252.61,1237.08 1254.53,1235.95 1256.46,1234.75 1258.38,1233.46 1260.3,1232.13 1262.23,1230.75 1264.15,1229.34 1266.08,1227.89 1268,1226.4 1269.92,1224.87 1271.85,1223.3 1273.77,1221.69 1275.7,1220.04 1277.62,1218.36 1279.54,1216.63 1281.47,1214.85 1283.39,1213.04 1285.32,1211.18 1287.24,1209.28 1289.16,1207.34 1291.09,1205.35 1293.01,1203.32 1294.94,1201.24 1296.86,1199.11 1298.78,1196.96 1300.71,1194.79 1302.63,1192.61 1304.56,1190.42 1306.48,1188.22 1308.4,1186 1310.33,1183.77 1312.25,1181.53 1314.18,1179.27 1316.1,1177 1318.02,1174.72 1319.95,1172.43 1321.87,1170.12 1323.8,1167.79 1325.72,1165.46 1327.64,1163.11 1329.57,1160.74 1331.49,1158.37 1333.42,1155.97 1335.34,1153.57 1337.26,1151.16 1339.19,1148.77 1341.11,1146.38 1343.04,1144.01 1344.96,1141.64 1346.88,1139.29 1348.81,1136.96 1350.73,1134.63 1352.66,1132.31 1354.58,1130.01 1356.5,1127.72 1358.43,1125.45 1360.35,1123.19 1362.28,1120.94 1364.2,1118.7 1366.12,1116.48 1368.05,1114.27 1369.97,1112.08 1371.9,1109.9 1373.82,1107.74 1375.74,1105.6 1377.67,1103.49 1379.59,1101.4 1381.52,1099.35 1383.44,1097.33 1385.36,1095.34 1387.29,1093.38 1389.21,1091.45 1391.14,1089.55 1393.06,1087.69 1394.98,1085.86 1396.91,1084.06 1398.83,1082.3 1400.76,1080.56 1402.68,1078.87 1404.6,1077.21 1406.53,1075.58 1408.45,1073.99 1410.38,1072.44 1412.3,1070.92 1414.22,1069.44 1416.15,1068 1418.07,1066.61 1420,1065.26 1421.92,1063.95 1423.84,1062.68 1425.77,1061.46 1427.69,1060.28 1429.62,1059.15 1431.54,1058.06 1433.46,1057.02 1435.39,1056.03 1437.31,1055.08 1439.24,1054.18 1441.16,1053.33 1443.08,1052.52 1445.01,1051.77 1446.93,1051.06 1448.86,1050.4 1450.78,1049.8 1452.7,1049.24 1454.63,1048.72 1456.55,1048.25 1458.48,1047.83 1460.4,1047.45 1462.32,1047.11 1464.25,1046.83 1466.17,1046.59 1468.1,1046.39 1470.02,1046.24 1471.94,1046.15 1473.87,1046.1 1475.79,1046.09 1477.72,1046.14 1479.64,1046.24 1481.56,1046.39 1483.49,1046.58 1485.41,1046.83 1487.34,1047.13 1489.26,1047.49 1491.18,1047.88 1493.11,1048.32 1495.03,1048.8 1496.96,1049.33 1498.88,1049.89 1500.8,1050.5 1502.73,1051.14 1504.65,1051.83 1506.58,1052.57 1508.5,1053.34 1510.42,1054.17 1512.35,1055.03 1514.27,1055.94 1516.2,1056.89 1518.12,1057.89 1520.04,1058.94 1521.97,1060.03 1523.89,1061.16 1525.82,1062.35 1527.74,1063.58 1529.66,1064.84 1531.59,1066.14 1533.51,1067.46 1535.44,1068.81 1537.36,1070.19 1539.28,1071.6 1541.21,1073.04 1543.13,1074.51 1545.06,1076 1546.98,1077.53 1548.9,1079.08 1550.83,1080.67 1552.75,1082.28 1554.68,1083.92 1556.6,1085.6 1558.52,1087.3 1560.45,1089.04 1562.37,1090.8 1564.3,1092.6 1566.22,1094.43 1568.14,1096.28 1570.07,1098.14 1571.99,1100.02 1573.92,1101.92 1575.84,1103.83 1577.76,1105.76 1579.69,1107.7 1581.61,1109.65 1583.54,1111.63 1585.46,1113.61 1587.39,1115.61 1589.31,1117.63 1591.23,1119.66 1593.16,1121.71 1595.08,1123.77 1597.01,1125.85 1598.93,1127.94 1600.85,1130.05 1602.78,1132.18 1604.7,1134.31 1606.63,1136.46 1608.55,1138.6 1610.47,1140.73 1612.4,1142.86 1614.32,1144.99 1616.25,1147.11 1618.17,1149.23 1620.09,1151.34 1622.02,1153.44 1623.94,1155.54 1625.87,1157.63 1627.79,1159.72 1629.71,1161.8 1631.64,1163.87 1633.56,1165.94 1635.49,1168 1637.41,1170.05 1639.33,1172.1 1641.26,1174.14 1643.18,1176.17 1645.11,1178.19 1647.03,1180.19 1648.95,1182.18 1650.88,1184.14 1652.8,1186.09 1654.73,1188.02 1656.65,1189.94 1658.57,1191.83 1660.5,1193.71 1662.42,1195.57 1664.35,1197.4 1666.27,1199.22 1668.19,1201.02 1670.12,1202.8 1672.04,1204.56 1673.97,1206.29 1675.89,1208.01 1677.81,1209.7 1679.74,1211.38 1681.66,1213.03 1683.59,1214.65 1685.51,1216.24 1687.43,1217.8 1689.36,1219.33 1691.28,1220.82 1693.21,1222.28 1695.13,1223.71 1697.05,1225.1 1698.98,1226.46 1700.9,1227.78 1702.83,1229.07 1704.75,1230.32 1706.67,1231.53 1708.6,1232.71 1710.52,1233.85 1712.45,1234.96 1714.37,1236.02 1716.29,1237.05 1718.22,1238.04 1720.14,1238.99 1722.07,1239.9 1723.99,1240.78 1725.91,1241.63 1727.84,1242.44 1729.76,1243.21 1731.69,1243.95 1733.61,1244.66 1735.53,1245.33 1737.46,1245.96 1739.38,1246.56 1741.31,1247.12 1743.23,1247.64 1745.15,1248.13 1747.08,1248.57 1749,1248.98 1750.93,1249.35 1752.85,1249.68 1754.77,1249.97 1756.7,1250.22 1758.62,1250.43 1760.55,1250.6 1762.47,1250.73 1764.39,1250.83 1766.32,1250.88 1768.24,1250.9 1770.17,1250.87 1772.09,1250.8 1774.01,1250.69 1775.94,1250.55 1777.86,1250.36 1779.79,1250.12 1781.71,1249.85 1783.63,1249.53 1785.56,1249.17 1787.48,1248.77 1789.41,1248.32 1791.33,1247.83 1793.25,1247.29 1795.18,1246.71 1797.1,1246.08 1799.03,1245.42 1800.95,1244.73 1802.87,1244.01 1804.8,1243.27 1806.72,1242.49 1808.65,1241.69 1810.57,1240.86 1812.49,1240 1814.42,1239.11 1816.34,1238.19 1818.27,1237.24 1820.19,1236.26 1822.11,1235.25 1824.04,1234.21 1825.96,1233.15 1827.89,1232.05 1829.81,1230.91 1831.73,1229.75 1833.66,1228.56 1835.58,1227.33 1837.51,1226.08 1839.43,1224.8 1841.35,1223.51 1843.28,1222.18 1845.2,1220.84 1847.13,1219.47 1849.05,1218.08 1850.97,1216.67 1852.9,1215.23 1854.82,1213.77 1856.75,1212.29 1858.67,1210.78 1860.59,1209.24 1862.52,1207.68 1864.44,1206.1 1866.37,1204.49 1868.29,1202.86 1870.21,1201.2 1872.14,1199.52 1874.06,1197.81 1875.99,1196.09 1877.91,1194.36 1879.83,1192.63 1881.76,1190.9 1883.68,1189.17 1885.61,1187.43 1887.53,1185.69 1889.45,1183.95 1891.38,1182.2 1893.3,1180.45 1895.23,1178.7 1897.15,1176.95 1899.07,1175.19 1901,1173.43 1902.92,1171.67 1904.85,1169.9 1906.77,1168.13 1908.69,1166.36 1910.62,1164.59 1912.54,1162.81 1914.47,1161.03 1916.39,1159.26 1918.31,1157.5 1920.24,1155.74 1922.16,1153.98 1924.09,1152.24 1926.01,1150.49 1927.93,1148.75 1929.86,1147.02 1931.78,1145.3 1933.71,1143.58 1935.63,1141.86 1937.55,1140.15 1939.48,1138.45 1941.4,1136.76 1943.33,1135.07 1945.25,1133.38 1947.17,1131.71 1949.1,1130.04 1951.02,1128.37 1952.95,1126.72 1954.87,1125.1 1956.79,1123.5 1958.72,1121.93 1960.64,1120.38 1962.57,1118.86 1964.49,1117.37 1966.41,1115.9 1968.34,1114.46 1970.26,1113.04 1972.19,1111.66 1974.11,1110.3 1976.03,1108.96 1977.96,1107.66 1979.88,1106.38 1981.81,1105.13 1983.73,1103.91 1985.65,1102.72 1987.58,1101.55 1989.5,1100.42 1991.43,1099.31 1993.35,1098.23 1995.27,1097.18 1997.2,1096.16 1999.12,1095.17 2001.05,1094.2 2002.97,1093.27 2004.9,1092.36 2006.82,1091.48 2008.74,1090.63 2010.67,1089.82 2012.59,1089.03 2014.52,1088.27 2016.44,1087.54 2018.36,1086.85 2020.29,1086.18 2022.21,1085.54 2024.14,1084.94 2026.06,1084.37 2027.98,1083.83 2029.91,1083.32 2031.83,1082.86 2033.76,1082.44 2035.68,1082.05 2037.6,1081.71 2039.53,1081.41 2041.45,1081.16 2043.38,1080.94 2045.3,1080.77 2047.22,1080.64 2049.15,1080.56 2051.07,1080.51 2053,1080.51 2054.92,1080.56 2056.84,1080.65 2058.77,1080.78 2060.69,1080.96 2062.62,1081.18 2064.54,1081.45 2066.46,1081.77 2068.39,1082.12 2070.31,1082.51 2072.24,1082.93 2074.16,1083.39 2076.08,1083.88 2078.01,1084.41 2079.93,1084.96 2081.86,1085.56 2083.78,1086.19 2085.7,1086.86 2087.63,1087.56 2089.55,1088.29 2091.48,1089.07 2093.4,1089.87 2095.32,1090.72 2097.25,1091.6 2099.17,1092.52 2101.1,1093.48 2103.02,1094.47 2104.94,1095.5 2106.87,1096.57 2108.79,1097.67 2110.72,1098.81 2112.64,1099.99 2114.56,1101.21 2116.49,1102.47 2118.41,1103.76 2120.34,1105.09 2122.26,1106.46 2124.18,1107.87 2126.11,1109.32 2128.03,1110.81 2129.96,1112.34 2131.88,1113.91 2133.8,1115.51 2135.73,1117.16 2137.65,1118.85 2139.58,1120.58 2141.5,1122.34 2143.42,1124.15 2145.35,1125.99 2147.27,1127.85 2149.2,1129.73 2151.12,1131.64 2153.04,1133.56 2154.97,1135.5 2156.89,1137.46 2158.82,1139.45 2160.74,1141.45 2162.66,1143.47 2164.59,1145.52 2166.51,1147.59 2168.44,1149.67 2170.36,1151.78 2172.28,1153.91 2174.21,1156.06 2176.13,1158.24 2178.06,1160.43 2179.98,1162.65 2181.9,1164.88 2183.83,1167.14 2185.75,1169.42 2187.68,1171.71 2189.6,1174.02 2191.52,1176.35 2193.45,1178.7 2195.37,1181.06 2197.3,1183.45 2199.22,1185.85 2201.14,1188.27 2203.07,1190.71 2204.99,1193.17 2206.92,1195.65 2208.84,1198.14 2210.76,1200.65 2212.69,1203.19 2214.61,1205.74 2216.54,1208.31 2218.46,1210.9 2220.38,1213.51 2222.31,1216.12 2224.23,1218.74 2226.16,1221.35 2228.08,1223.95 2230,1226.55 2231.93,1229.15 2233.85,1231.75 2235.78,1234.34 2237.7,1236.93 2239.62,1239.51 2241.55,1242.09 2243.47,1244.66 2245.4,1247.23 2247.32,1249.8 2249.24,1252.36 2251.17,1254.92 2253.09,1257.47 2255.02,1260.02 2256.94,1262.56 2258.86,1265.1 2260.79,1267.64 2262.71,1270.16 2264.64,1272.69 2266.56,1275.21 2268.48,1277.72 2270.41,1280.23 2272.33,1282.73 2274.26,1285.22 2276.18,1287.72 2278.1,1290.2 2280.03,1292.68 2281.95,1295.15 2283.88,1297.62 2285.8,1300.08 2287.72,1302.54 2289.65,1304.98 2291.57,1307.43 2293.5,1309.86 2295.42,1312.29 2297.34,1314.71 "/>
<path clip-path="url(#clip620)" d="M1907.68 196.789 L2287.49 196.789 L2287.49 93.1086 L1907.68 93.1086  Z" fill="#ffffff" fill-rule="evenodd" fill-opacity="1"/>
<polyline clip-path="url(#clip620)" style="stroke:#000000; stroke-linecap:round; stroke-linejoin:round; stroke-width:4; stroke-opacity:1; fill:none" points="1907.68,196.789 2287.49,196.789 2287.49,93.1086 1907.68,93.1086 1907.68,196.789 "/>
<polyline clip-path="url(#clip620)" style="stroke:#009af9; stroke-linecap:round; stroke-linejoin:round; stroke-width:4; stroke-opacity:1; fill:none" points="1929.43,144.949 2059.96,144.949 "/>
<path clip-path="url(#clip620)" d="M2086.39 131.511 L2086.39 158.386 L2092.04 158.386 Q2099.19 158.386 2102.5 155.145 Q2105.83 151.905 2105.83 144.914 Q2105.83 137.969 2102.5 134.752 Q2099.19 131.511 2092.04 131.511 L2086.39 131.511 M2081.71 127.669 L2091.32 127.669 Q2101.37 127.669 2106.06 131.858 Q2110.76 136.025 2110.76 144.914 Q2110.76 153.849 2106.04 158.039 Q2101.32 162.229 2091.32 162.229 L2081.71 162.229 L2081.71 127.669 Z" fill="#000000" fill-rule="nonzero" fill-opacity="1" /><path clip-path="url(#clip620)" d="M2116.39 142.067 L2119.07 142.067 L2119.07 162.229 L2116.39 162.229 L2116.39 142.067 Z" fill="#000000" fill-rule="nonzero" fill-opacity="1" /><path clip-path="url(#clip620)" d="M2158.31 132.507 L2158.31 141.465 L2171.2 141.465 L2171.2 145.4 L2158.31 145.4 L2158.31 154.358 L2154.42 154.358 L2154.42 145.4 L2141.53 145.4 L2141.53 141.465 L2154.42 141.465 L2154.42 132.507 L2158.31 132.507 M2141.53 158.293 L2171.2 158.293 L2171.2 162.229 L2141.53 162.229 L2141.53 158.293 Z" fill="#000000" fill-rule="nonzero" fill-opacity="1" /><path clip-path="url(#clip620)" d="M2207.5 132.275 L2198.01 158.34 L2217.01 158.34 L2207.5 132.275 M2191.67 162.229 L2204.86 127.669 L2210.16 127.669 L2223.33 162.229 L2191.67 162.229 Z" fill="#000000" fill-rule="nonzero" fill-opacity="1" /><path clip-path="url(#clip620)" d="M2233.05 131.511 L2233.05 158.386 L2238.7 158.386 Q2245.86 158.386 2249.17 155.145 Q2252.5 151.905 2252.5 144.914 Q2252.5 137.969 2249.17 134.752 Q2245.86 131.511 2238.7 131.511 L2233.05 131.511 M2228.38 127.669 L2237.98 127.669 Q2248.03 127.669 2252.73 131.858 Q2257.43 136.025 2257.43 144.914 Q2257.43 153.849 2252.71 158.039 Q2247.98 162.229 2237.98 162.229 L2228.38 162.229 L2228.38 127.669 Z" fill="#000000" fill-rule="nonzero" fill-opacity="1" /><path clip-path="url(#clip620)" d="M2263.05 142.067 L2265.74 142.067 L2265.74 162.229 L2263.05 162.229 L2263.05 142.067 Z" fill="#000000" fill-rule="nonzero" fill-opacity="1" /></svg>
