<?xml version="1.0" encoding="utf-8"?>
<svg xmlns="http://www.w3.org/2000/svg" xmlns:xlink="http://www.w3.org/1999/xlink" width="600" height="400" viewBox="0 0 2400 1600">
<defs>
  <clipPath id="clip570">
    <rect x="0" y="0" width="2400" height="1600"/>
  </clipPath>
</defs>
<path clip-path="url(#clip570)" d="M0 1600 L2400 1600 L2400 0 L0 0  Z" fill="#ffffff" fill-rule="evenodd" fill-opacity="1"/>
<defs>
  <clipPath id="clip571">
    <rect x="480" y="0" width="1681" height="1600"/>
  </clipPath>
</defs>
<path clip-path="url(#clip570)" d="M184.677 1423.18 L2352.76 1423.18 L2352.76 47.2441 L184.677 47.2441  Z" fill="#ffffff" fill-rule="evenodd" fill-opacity="1"/>
<defs>
  <clipPath id="clip572">
    <rect x="184" y="47" width="2169" height="1377"/>
  </clipPath>
</defs>
<polyline clip-path="url(#clip572)" style="stroke:#000000; stroke-linecap:round; stroke-linejoin:round; stroke-width:2; stroke-opacity:0.1; fill:none" points="246.038,1423.18 246.038,47.2441 "/>
<polyline clip-path="url(#clip572)" style="stroke:#000000; stroke-linecap:round; stroke-linejoin:round; stroke-width:2; stroke-opacity:0.1; fill:none" points="927.823,1423.18 927.823,47.2441 "/>
<polyline clip-path="url(#clip572)" style="stroke:#000000; stroke-linecap:round; stroke-linejoin:round; stroke-width:2; stroke-opacity:0.1; fill:none" points="1609.61,1423.18 1609.61,47.2441 "/>
<polyline clip-path="url(#clip572)" style="stroke:#000000; stroke-linecap:round; stroke-linejoin:round; stroke-width:2; stroke-opacity:0.1; fill:none" points="2291.4,1423.18 2291.4,47.2441 "/>
<polyline clip-path="url(#clip572)" style="stroke:#000000; stroke-linecap:round; stroke-linejoin:round; stroke-width:2; stroke-opacity:0.1; fill:none" points="184.677,1384.24 2352.76,1384.24 "/>
<polyline clip-path="url(#clip572)" style="stroke:#000000; stroke-linecap:round; stroke-linejoin:round; stroke-width:2; stroke-opacity:0.1; fill:none" points="184.677,1097.26 2352.76,1097.26 "/>
<polyline clip-path="url(#clip572)" style="stroke:#000000; stroke-linecap:round; stroke-linejoin:round; stroke-width:2; stroke-opacity:0.1; fill:none" points="184.677,810.273 2352.76,810.273 "/>
<polyline clip-path="url(#clip572)" style="stroke:#000000; stroke-linecap:round; stroke-linejoin:round; stroke-width:2; stroke-opacity:0.1; fill:none" points="184.677,523.291 2352.76,523.291 "/>
<polyline clip-path="url(#clip572)" style="stroke:#000000; stroke-linecap:round; stroke-linejoin:round; stroke-width:2; stroke-opacity:0.1; fill:none" points="184.677,236.308 2352.76,236.308 "/>
<polyline clip-path="url(#clip570)" style="stroke:#000000; stroke-linecap:round; stroke-linejoin:round; stroke-width:4; stroke-opacity:1; fill:none" points="184.677,1423.18 2352.76,1423.18 "/>
<polyline clip-path="url(#clip570)" style="stroke:#000000; stroke-linecap:round; stroke-linejoin:round; stroke-width:4; stroke-opacity:1; fill:none" points="246.038,1423.18 246.038,1404.28 "/>
<polyline clip-path="url(#clip570)" style="stroke:#000000; stroke-linecap:round; stroke-linejoin:round; stroke-width:4; stroke-opacity:1; fill:none" points="927.823,1423.18 927.823,1404.28 "/>
<polyline clip-path="url(#clip570)" style="stroke:#000000; stroke-linecap:round; stroke-linejoin:round; stroke-width:4; stroke-opacity:1; fill:none" points="1609.61,1423.18 1609.61,1404.28 "/>
<polyline clip-path="url(#clip570)" style="stroke:#000000; stroke-linecap:round; stroke-linejoin:round; stroke-width:4; stroke-opacity:1; fill:none" points="2291.4,1423.18 2291.4,1404.28 "/>
<path clip-path="url(#clip570)" d="M215.505 1468.75 L245.181 1468.75 L245.181 1472.69 L215.505 1472.69 L215.505 1468.75 Z" fill="#000000" fill-rule="nonzero" fill-opacity="1" /><path clip-path="url(#clip570)" d="M269.44 1466.95 Q272.797 1467.66 274.672 1469.93 Q276.57 1472.2 276.57 1475.53 Q276.57 1480.65 273.051 1483.45 Q269.533 1486.25 263.051 1486.25 Q260.875 1486.25 258.561 1485.81 Q256.269 1485.39 253.815 1484.54 L253.815 1480.02 Q255.76 1481.16 258.074 1481.74 Q260.389 1482.32 262.912 1482.32 Q267.311 1482.32 269.602 1480.58 Q271.917 1478.84 271.917 1475.53 Q271.917 1472.48 269.764 1470.77 Q267.635 1469.03 263.815 1469.03 L259.787 1469.03 L259.787 1465.19 L264 1465.19 Q267.449 1465.19 269.278 1463.82 Q271.107 1462.43 271.107 1459.84 Q271.107 1457.18 269.209 1455.77 Q267.334 1454.33 263.815 1454.33 Q261.894 1454.33 259.695 1454.75 Q257.496 1455.16 254.857 1456.04 L254.857 1451.88 Q257.519 1451.14 259.834 1450.77 Q262.172 1450.39 264.232 1450.39 Q269.556 1450.39 272.658 1452.83 Q275.76 1455.23 275.76 1459.35 Q275.76 1462.22 274.116 1464.21 Q272.473 1466.18 269.44 1466.95 Z" fill="#000000" fill-rule="nonzero" fill-opacity="1" /><path clip-path="url(#clip570)" d="M897.766 1468.75 L927.441 1468.75 L927.441 1472.69 L897.766 1472.69 L897.766 1468.75 Z" fill="#000000" fill-rule="nonzero" fill-opacity="1" /><path clip-path="url(#clip570)" d="M941.562 1481.64 L957.881 1481.64 L957.881 1485.58 L935.937 1485.58 L935.937 1481.64 Q938.599 1478.89 943.182 1474.26 Q947.789 1469.61 948.969 1468.27 Q951.214 1465.74 952.094 1464.01 Q952.997 1462.25 952.997 1460.56 Q952.997 1457.8 951.052 1456.07 Q949.131 1454.33 946.029 1454.33 Q943.83 1454.33 941.377 1455.09 Q938.946 1455.86 936.168 1457.41 L936.168 1452.69 Q938.992 1451.55 941.446 1450.97 Q943.9 1450.39 945.937 1450.39 Q951.307 1450.39 954.502 1453.08 Q957.696 1455.77 957.696 1460.26 Q957.696 1462.39 956.886 1464.31 Q956.099 1466.2 953.992 1468.8 Q953.414 1469.47 950.312 1472.69 Q947.21 1475.88 941.562 1481.64 Z" fill="#000000" fill-rule="nonzero" fill-opacity="1" /><path clip-path="url(#clip570)" d="M1579.37 1468.75 L1609.04 1468.75 L1609.04 1472.69 L1579.37 1472.69 L1579.37 1468.75 Z" fill="#000000" fill-rule="nonzero" fill-opacity="1" /><path clip-path="url(#clip570)" d="M1619.94 1481.64 L1627.58 1481.64 L1627.58 1455.28 L1619.27 1456.95 L1619.27 1452.69 L1627.54 1451.02 L1632.21 1451.02 L1632.21 1481.64 L1639.85 1481.64 L1639.85 1485.58 L1619.94 1485.58 L1619.94 1481.64 Z" fill="#000000" fill-rule="nonzero" fill-opacity="1" /><path clip-path="url(#clip570)" d="M2291.4 1454.1 Q2287.78 1454.1 2285.96 1457.66 Q2284.15 1461.2 2284.15 1468.33 Q2284.15 1475.44 2285.96 1479.01 Q2287.78 1482.55 2291.4 1482.55 Q2295.03 1482.55 2296.83 1479.01 Q2298.66 1475.44 2298.66 1468.33 Q2298.66 1461.2 2296.83 1457.66 Q2295.03 1454.1 2291.4 1454.1 M2291.4 1450.39 Q2297.21 1450.39 2300.26 1455 Q2303.34 1459.58 2303.34 1468.33 Q2303.34 1477.06 2300.26 1481.67 Q2297.21 1486.25 2291.4 1486.25 Q2285.59 1486.25 2282.51 1481.67 Q2279.45 1477.06 2279.45 1468.33 Q2279.45 1459.58 2282.51 1455 Q2285.59 1450.39 2291.4 1450.39 Z" fill="#000000" fill-rule="nonzero" fill-opacity="1" /><path clip-path="url(#clip570)" d="M1199.44 1518.52 L1205.3 1518.52 L1205.3 1568.04 L1199.44 1568.04 L1199.44 1518.52 Z" fill="#000000" fill-rule="nonzero" fill-opacity="1" /><path clip-path="url(#clip570)" d="M1241.01 1549.81 Q1241.01 1543.44 1238.37 1539.94 Q1235.76 1536.44 1231.02 1536.44 Q1226.3 1536.44 1223.66 1539.94 Q1221.05 1543.44 1221.05 1549.81 Q1221.05 1556.14 1223.66 1559.64 Q1226.3 1563.14 1231.02 1563.14 Q1235.76 1563.14 1238.37 1559.64 Q1241.01 1556.14 1241.01 1549.81 M1246.87 1563.62 Q1246.87 1572.72 1242.82 1577.15 Q1238.78 1581.6 1230.44 1581.6 Q1227.36 1581.6 1224.62 1581.13 Q1221.88 1580.68 1219.3 1579.72 L1219.3 1574.03 Q1221.88 1575.43 1224.4 1576.1 Q1226.91 1576.76 1229.52 1576.76 Q1235.28 1576.76 1238.15 1573.74 Q1241.01 1570.75 1241.01 1564.67 L1241.01 1561.77 Q1239.2 1564.92 1236.36 1566.48 Q1233.53 1568.04 1229.58 1568.04 Q1223.03 1568.04 1219.02 1563.05 Q1215.01 1558.05 1215.01 1549.81 Q1215.01 1541.53 1219.02 1536.53 Q1223.03 1531.54 1229.58 1531.54 Q1233.53 1531.54 1236.36 1533.1 Q1239.2 1534.66 1241.01 1537.81 L1241.01 1532.4 L1246.87 1532.4 L1246.87 1563.62 Z" fill="#000000" fill-rule="nonzero" fill-opacity="1" /><path clip-path="url(#clip570)" d="M1273 1518.58 Q1268.73 1525.9 1266.66 1533.06 Q1264.59 1540.23 1264.59 1547.58 Q1264.59 1554.93 1266.66 1562.16 Q1268.76 1569.35 1273 1576.64 L1267.9 1576.64 Q1263.13 1569.16 1260.74 1561.93 Q1258.39 1554.71 1258.39 1547.58 Q1258.39 1540.48 1260.74 1533.29 Q1263.1 1526.09 1267.9 1518.58 L1273 1518.58 Z" fill="#000000" fill-rule="nonzero" fill-opacity="1" /><path clip-path="url(#clip570)" d="M1300.56 1550.12 Q1293.46 1550.12 1290.73 1551.75 Q1287.99 1553.37 1287.99 1557.29 Q1287.99 1560.4 1290.03 1562.25 Q1292.09 1564.07 1295.63 1564.07 Q1300.5 1564.07 1303.43 1560.63 Q1306.39 1557.16 1306.39 1551.43 L1306.39 1550.12 L1300.56 1550.12 M1312.24 1547.71 L1312.24 1568.04 L1306.39 1568.04 L1306.39 1562.63 Q1304.38 1565.88 1301.39 1567.44 Q1298.4 1568.97 1294.07 1568.97 Q1288.59 1568.97 1285.35 1565.91 Q1282.13 1562.82 1282.13 1557.67 Q1282.13 1551.65 1286.14 1548.6 Q1290.18 1545.54 1298.17 1545.54 L1306.39 1545.54 L1306.39 1544.97 Q1306.39 1540.93 1303.71 1538.73 Q1301.07 1536.5 1296.26 1536.5 Q1293.21 1536.5 1290.31 1537.23 Q1287.42 1537.97 1284.74 1539.43 L1284.74 1534.02 Q1287.96 1532.78 1290.98 1532.17 Q1294 1531.54 1296.87 1531.54 Q1304.6 1531.54 1308.42 1535.55 Q1312.24 1539.56 1312.24 1547.71 Z" fill="#000000" fill-rule="nonzero" fill-opacity="1" /><path clip-path="url(#clip570)" d="M1323.38 1518.58 L1328.47 1518.58 Q1333.25 1526.09 1335.6 1533.29 Q1337.99 1540.48 1337.99 1547.58 Q1337.99 1554.71 1335.6 1561.93 Q1333.25 1569.16 1328.47 1576.64 L1323.38 1576.64 Q1327.62 1569.35 1329.68 1562.16 Q1331.78 1554.93 1331.78 1547.58 Q1331.78 1540.23 1329.68 1533.06 Q1327.62 1525.9 1323.38 1518.58 Z" fill="#000000" fill-rule="nonzero" fill-opacity="1" /><polyline clip-path="url(#clip570)" style="stroke:#000000; stroke-linecap:round; stroke-linejoin:round; stroke-width:4; stroke-opacity:1; fill:none" points="184.677,1423.18 184.677,47.2441 "/>
<polyline clip-path="url(#clip570)" style="stroke:#000000; stroke-linecap:round; stroke-linejoin:round; stroke-width:4; stroke-opacity:1; fill:none" points="184.677,1384.24 203.574,1384.24 "/>
<polyline clip-path="url(#clip570)" style="stroke:#000000; stroke-linecap:round; stroke-linejoin:round; stroke-width:4; stroke-opacity:1; fill:none" points="184.677,1097.26 203.574,1097.26 "/>
<polyline clip-path="url(#clip570)" style="stroke:#000000; stroke-linecap:round; stroke-linejoin:round; stroke-width:4; stroke-opacity:1; fill:none" points="184.677,810.273 203.574,810.273 "/>
<polyline clip-path="url(#clip570)" style="stroke:#000000; stroke-linecap:round; stroke-linejoin:round; stroke-width:4; stroke-opacity:1; fill:none" points="184.677,523.291 203.574,523.291 "/>
<polyline clip-path="url(#clip570)" style="stroke:#000000; stroke-linecap:round; stroke-linejoin:round; stroke-width:4; stroke-opacity:1; fill:none" points="184.677,236.308 203.574,236.308 "/>
<path clip-path="url(#clip570)" d="M52.1495 1397.58 L59.7884 1397.58 L59.7884 1371.22 L51.4782 1372.88 L51.4782 1368.62 L59.7421 1366.96 L64.418 1366.96 L64.418 1397.58 L72.0568 1397.58 L72.0568 1401.52 L52.1495 1401.52 L52.1495 1397.58 Z" fill="#000000" fill-rule="nonzero" fill-opacity="1" /><path clip-path="url(#clip570)" d="M81.5012 1395.64 L86.3855 1395.64 L86.3855 1401.52 L81.5012 1401.52 L81.5012 1395.64 Z" fill="#000000" fill-rule="nonzero" fill-opacity="1" /><path clip-path="url(#clip570)" d="M106.571 1370.04 Q102.959 1370.04 101.131 1373.6 Q99.3252 1377.14 99.3252 1384.27 Q99.3252 1391.38 101.131 1394.94 Q102.959 1398.49 106.571 1398.49 Q110.205 1398.49 112.01 1394.94 Q113.839 1391.38 113.839 1384.27 Q113.839 1377.14 112.01 1373.6 Q110.205 1370.04 106.571 1370.04 M106.571 1366.33 Q112.381 1366.33 115.436 1370.94 Q118.515 1375.52 118.515 1384.27 Q118.515 1393 115.436 1397.61 Q112.381 1402.19 106.571 1402.19 Q100.76 1402.19 97.6817 1397.61 Q94.6262 1393 94.6262 1384.27 Q94.6262 1375.52 97.6817 1370.94 Q100.76 1366.33 106.571 1366.33 Z" fill="#000000" fill-rule="nonzero" fill-opacity="1" /><path clip-path="url(#clip570)" d="M136.732 1370.04 Q133.121 1370.04 131.293 1373.6 Q129.487 1377.14 129.487 1384.27 Q129.487 1391.38 131.293 1394.94 Q133.121 1398.49 136.732 1398.49 Q140.367 1398.49 142.172 1394.94 Q144.001 1391.38 144.001 1384.27 Q144.001 1377.14 142.172 1373.6 Q140.367 1370.04 136.732 1370.04 M136.732 1366.33 Q142.543 1366.33 145.598 1370.94 Q148.677 1375.52 148.677 1384.27 Q148.677 1393 145.598 1397.61 Q142.543 1402.19 136.732 1402.19 Q130.922 1402.19 127.844 1397.61 Q124.788 1393 124.788 1384.27 Q124.788 1375.52 127.844 1370.94 Q130.922 1366.33 136.732 1366.33 Z" fill="#000000" fill-rule="nonzero" fill-opacity="1" /><path clip-path="url(#clip570)" d="M53.7467 1110.6 L61.3856 1110.6 L61.3856 1084.23 L53.0754 1085.9 L53.0754 1081.64 L61.3393 1079.98 L66.0152 1079.98 L66.0152 1110.6 L73.654 1110.6 L73.654 1114.54 L53.7467 1114.54 L53.7467 1110.6 Z" fill="#000000" fill-rule="nonzero" fill-opacity="1" /><path clip-path="url(#clip570)" d="M83.0984 1108.66 L87.9827 1108.66 L87.9827 1114.54 L83.0984 1114.54 L83.0984 1108.66 Z" fill="#000000" fill-rule="nonzero" fill-opacity="1" /><path clip-path="url(#clip570)" d="M108.168 1083.05 Q104.557 1083.05 102.728 1086.62 Q100.922 1090.16 100.922 1097.29 Q100.922 1104.4 102.728 1107.96 Q104.557 1111.5 108.168 1111.5 Q111.802 1111.5 113.608 1107.96 Q115.436 1104.4 115.436 1097.29 Q115.436 1090.16 113.608 1086.62 Q111.802 1083.05 108.168 1083.05 M108.168 1079.35 Q113.978 1079.35 117.033 1083.96 Q120.112 1088.54 120.112 1097.29 Q120.112 1106.02 117.033 1110.62 Q113.978 1115.21 108.168 1115.21 Q102.358 1115.21 99.2789 1110.62 Q96.2234 1106.02 96.2234 1097.29 Q96.2234 1088.54 99.2789 1083.96 Q102.358 1079.35 108.168 1079.35 Z" fill="#000000" fill-rule="nonzero" fill-opacity="1" /><path clip-path="url(#clip570)" d="M132.357 1110.6 L148.677 1110.6 L148.677 1114.54 L126.732 1114.54 L126.732 1110.6 Q129.394 1107.85 133.978 1103.22 Q138.584 1098.56 139.765 1097.22 Q142.01 1094.7 142.89 1092.96 Q143.793 1091.2 143.793 1089.51 Q143.793 1086.76 141.848 1085.02 Q139.927 1083.29 136.825 1083.29 Q134.626 1083.29 132.172 1084.05 Q129.742 1084.81 126.964 1086.36 L126.964 1081.64 Q129.788 1080.51 132.242 1079.93 Q134.695 1079.35 136.732 1079.35 Q142.103 1079.35 145.297 1082.04 Q148.492 1084.72 148.492 1089.21 Q148.492 1091.34 147.681 1093.26 Q146.894 1095.16 144.788 1097.75 Q144.209 1098.42 141.107 1101.64 Q138.006 1104.84 132.357 1110.6 Z" fill="#000000" fill-rule="nonzero" fill-opacity="1" /><path clip-path="url(#clip570)" d="M51.6634 823.618 L59.3023 823.618 L59.3023 797.252 L50.9921 798.919 L50.9921 794.66 L59.256 792.993 L63.9319 792.993 L63.9319 823.618 L71.5707 823.618 L71.5707 827.553 L51.6634 827.553 L51.6634 823.618 Z" fill="#000000" fill-rule="nonzero" fill-opacity="1" /><path clip-path="url(#clip570)" d="M81.0151 821.674 L85.8993 821.674 L85.8993 827.553 L81.0151 827.553 L81.0151 821.674 Z" fill="#000000" fill-rule="nonzero" fill-opacity="1" /><path clip-path="url(#clip570)" d="M106.084 796.072 Q102.473 796.072 100.645 799.637 Q98.8391 803.178 98.8391 810.308 Q98.8391 817.414 100.645 820.979 Q102.473 824.521 106.084 824.521 Q109.719 824.521 111.524 820.979 Q113.353 817.414 113.353 810.308 Q113.353 803.178 111.524 799.637 Q109.719 796.072 106.084 796.072 M106.084 792.368 Q111.895 792.368 114.95 796.975 Q118.029 801.558 118.029 810.308 Q118.029 819.035 114.95 823.641 Q111.895 828.224 106.084 828.224 Q100.274 828.224 97.1956 823.641 Q94.14 819.035 94.14 810.308 Q94.14 801.558 97.1956 796.975 Q100.274 792.368 106.084 792.368 Z" fill="#000000" fill-rule="nonzero" fill-opacity="1" /><path clip-path="url(#clip570)" d="M139.094 797.067 L127.288 815.516 L139.094 815.516 L139.094 797.067 M137.867 792.993 L143.746 792.993 L143.746 815.516 L148.677 815.516 L148.677 819.405 L143.746 819.405 L143.746 827.553 L139.094 827.553 L139.094 819.405 L123.492 819.405 L123.492 814.891 L137.867 792.993 Z" fill="#000000" fill-rule="nonzero" fill-opacity="1" /><path clip-path="url(#clip570)" d="M51.9875 536.635 L59.6263 536.635 L59.6263 510.27 L51.3162 511.937 L51.3162 507.677 L59.58 506.011 L64.2559 506.011 L64.2559 536.635 L71.8948 536.635 L71.8948 540.571 L51.9875 540.571 L51.9875 536.635 Z" fill="#000000" fill-rule="nonzero" fill-opacity="1" /><path clip-path="url(#clip570)" d="M81.3392 534.691 L86.2234 534.691 L86.2234 540.571 L81.3392 540.571 L81.3392 534.691 Z" fill="#000000" fill-rule="nonzero" fill-opacity="1" /><path clip-path="url(#clip570)" d="M106.408 509.089 Q102.797 509.089 100.969 512.654 Q99.1632 516.196 99.1632 523.325 Q99.1632 530.432 100.969 533.997 Q102.797 537.538 106.408 537.538 Q110.043 537.538 111.848 533.997 Q113.677 530.432 113.677 523.325 Q113.677 516.196 111.848 512.654 Q110.043 509.089 106.408 509.089 M106.408 505.386 Q112.219 505.386 115.274 509.992 Q118.353 514.575 118.353 523.325 Q118.353 532.052 115.274 536.659 Q112.219 541.242 106.408 541.242 Q100.598 541.242 97.5197 536.659 Q94.4641 532.052 94.4641 523.325 Q94.4641 514.575 97.5197 509.992 Q100.598 505.386 106.408 505.386 Z" fill="#000000" fill-rule="nonzero" fill-opacity="1" /><path clip-path="url(#clip570)" d="M137.149 521.427 Q134.001 521.427 132.149 523.58 Q130.32 525.733 130.32 529.483 Q130.32 533.21 132.149 535.385 Q134.001 537.538 137.149 537.538 Q140.297 537.538 142.126 535.385 Q143.978 533.21 143.978 529.483 Q143.978 525.733 142.126 523.58 Q140.297 521.427 137.149 521.427 M146.431 506.775 L146.431 511.034 Q144.672 510.2 142.867 509.761 Q141.084 509.321 139.325 509.321 Q134.695 509.321 132.242 512.446 Q129.811 515.571 129.464 521.89 Q130.83 519.876 132.89 518.811 Q134.95 517.724 137.427 517.724 Q142.635 517.724 145.644 520.895 Q148.677 524.043 148.677 529.483 Q148.677 534.807 145.529 538.024 Q142.381 541.242 137.149 541.242 Q131.154 541.242 127.982 536.659 Q124.811 532.052 124.811 523.325 Q124.811 515.131 128.7 510.27 Q132.589 505.386 139.14 505.386 Q140.899 505.386 142.681 505.733 Q144.487 506.08 146.431 506.775 Z" fill="#000000" fill-rule="nonzero" fill-opacity="1" /><path clip-path="url(#clip570)" d="M52.2421 249.653 L59.881 249.653 L59.881 223.287 L51.5708 224.954 L51.5708 220.695 L59.8347 219.028 L64.5106 219.028 L64.5106 249.653 L72.1494 249.653 L72.1494 253.588 L52.2421 253.588 L52.2421 249.653 Z" fill="#000000" fill-rule="nonzero" fill-opacity="1" /><path clip-path="url(#clip570)" d="M81.5938 247.708 L86.478 247.708 L86.478 253.588 L81.5938 253.588 L81.5938 247.708 Z" fill="#000000" fill-rule="nonzero" fill-opacity="1" /><path clip-path="url(#clip570)" d="M106.663 222.107 Q103.052 222.107 101.223 225.672 Q99.4178 229.213 99.4178 236.343 Q99.4178 243.449 101.223 247.014 Q103.052 250.556 106.663 250.556 Q110.297 250.556 112.103 247.014 Q113.932 243.449 113.932 236.343 Q113.932 229.213 112.103 225.672 Q110.297 222.107 106.663 222.107 M106.663 218.403 Q112.473 218.403 115.529 223.01 Q118.608 227.593 118.608 236.343 Q118.608 245.07 115.529 249.676 Q112.473 254.259 106.663 254.259 Q100.853 254.259 97.7743 249.676 Q94.7187 245.07 94.7187 236.343 Q94.7187 227.593 97.7743 223.01 Q100.853 218.403 106.663 218.403 Z" fill="#000000" fill-rule="nonzero" fill-opacity="1" /><path clip-path="url(#clip570)" d="M136.825 237.176 Q133.492 237.176 131.57 238.959 Q129.672 240.741 129.672 243.866 Q129.672 246.991 131.57 248.773 Q133.492 250.556 136.825 250.556 Q140.158 250.556 142.08 248.773 Q144.001 246.968 144.001 243.866 Q144.001 240.741 142.08 238.959 Q140.181 237.176 136.825 237.176 M132.149 235.185 Q129.14 234.445 127.45 232.384 Q125.783 230.324 125.783 227.361 Q125.783 223.218 128.723 220.81 Q131.686 218.403 136.825 218.403 Q141.987 218.403 144.927 220.81 Q147.867 223.218 147.867 227.361 Q147.867 230.324 146.177 232.384 Q144.51 234.445 141.524 235.185 Q144.904 235.972 146.779 238.264 Q148.677 240.556 148.677 243.866 Q148.677 248.889 145.598 251.574 Q142.543 254.259 136.825 254.259 Q131.107 254.259 128.029 251.574 Q124.973 248.889 124.973 243.866 Q124.973 240.556 126.871 238.264 Q128.769 235.972 132.149 235.185 M130.436 227.801 Q130.436 230.486 132.103 231.991 Q133.793 233.496 136.825 233.496 Q139.834 233.496 141.524 231.991 Q143.237 230.486 143.237 227.801 Q143.237 225.116 141.524 223.611 Q139.834 222.107 136.825 222.107 Q133.793 222.107 132.103 223.611 Q130.436 225.116 130.436 227.801 Z" fill="#000000" fill-rule="nonzero" fill-opacity="1" /><polyline clip-path="url(#clip572)" style="stroke:#009af9; stroke-linecap:round; stroke-linejoin:round; stroke-width:4; stroke-opacity:1; fill:none" points="246.038,1384.23 250.136,1384.23 254.235,1384.23 258.334,1384.23 262.433,1384.23 266.532,1384.23 270.631,1384.23 274.73,1384.23 278.829,1384.23 282.928,1384.23 287.027,1384.23 291.126,1384.23 295.224,1384.23 299.323,1384.23 303.422,1384.23 307.521,1384.23 311.62,1384.23 315.719,1384.23 319.818,1384.23 323.917,1384.23 328.016,1384.23 332.115,1384.23 336.214,1384.23 340.313,1384.23 344.411,1384.23 348.51,1384.23 352.609,1384.23 356.708,1384.22 360.807,1384.22 364.906,1384.22 369.005,1384.22 373.104,1384.22 377.203,1384.22 381.302,1384.22 385.401,1384.22 389.499,1384.22 393.598,1384.22 397.697,1384.22 401.796,1384.22 405.895,1384.22 409.994,1384.22 414.093,1384.22 418.192,1384.22 422.291,1384.22 426.39,1384.22 430.489,1384.21 434.588,1384.21 438.686,1384.21 442.785,1384.21 446.884,1384.21 450.983,1384.21 455.082,1384.21 459.181,1384.21 463.28,1384.21 467.379,1384.21 471.478,1384.21 475.577,1384.2 479.676,1384.2 483.774,1384.2 487.873,1384.2 491.972,1384.2 496.071,1384.2 500.17,1384.2 504.269,1384.2 508.368,1384.2 512.467,1384.19 516.566,1384.19 520.665,1384.19 524.764,1384.19 528.863,1384.19 532.961,1384.19 537.06,1384.18 541.159,1384.18 545.258,1384.18 549.357,1384.18 553.456,1384.18 557.555,1384.18 561.654,1384.17 565.753,1384.17 569.852,1384.17 573.951,1384.17 578.049,1384.17 582.148,1384.16 586.247,1384.16 590.346,1384.16 594.445,1384.16 598.544,1384.15 602.643,1384.15 606.742,1384.15 610.841,1384.15 614.94,1384.14 619.039,1384.14 623.138,1384.14 627.236,1384.13 631.335,1384.13 635.434,1384.13 639.533,1384.12 643.632,1384.12 647.731,1384.12 651.83,1384.11 655.929,1384.11 660.028,1384.11 664.127,1384.1 668.226,1384.1 672.324,1384.09 676.423,1384.09 680.522,1384.08 684.621,1384.08 688.72,1384.07 692.819,1384.07 696.918,1384.06 701.017,1384.06 705.116,1384.05 709.215,1384.05 713.314,1384.04 717.413,1384.04 721.511,1384.03 725.61,1384.02 729.709,1384.02 733.808,1384.01 737.907,1384 742.006,1384 746.105,1383.99 750.204,1383.98 754.303,1383.97 758.402,1383.96 762.501,1383.96 766.599,1383.95 770.698,1383.94 774.797,1383.93 778.896,1383.92 782.995,1383.91 787.094,1383.9 791.193,1383.89 795.292,1383.88 799.391,1383.87 803.49,1383.86 807.589,1383.85 811.688,1383.83 815.786,1383.82 819.885,1383.81 823.984,1383.8 828.083,1383.78 832.182,1383.77 836.281,1383.76 840.38,1383.74 844.479,1383.73 848.578,1383.71 852.677,1383.7 856.776,1383.68 860.874,1383.66 864.973,1383.64 869.072,1383.63 873.171,1383.61 877.27,1383.59 881.369,1383.57 885.468,1383.55 889.567,1383.53 893.666,1383.51 897.765,1383.49 901.864,1383.46 905.963,1383.44 910.061,1383.42 914.16,1383.39 918.259,1383.37 922.358,1383.34 926.457,1383.31 930.556,1383.29 934.655,1383.26 938.754,1383.23 942.853,1383.2 946.952,1383.17 951.051,1383.14 955.149,1383.1 959.248,1383.07 963.347,1383.04 967.446,1383 971.545,1382.96 975.644,1382.92 979.743,1382.89 983.842,1382.85 987.941,1382.8 992.04,1382.76 996.139,1382.72 1000.24,1382.67 1004.34,1382.63 1008.44,1382.58 1012.53,1382.53 1016.63,1382.48 1020.73,1382.43 1024.83,1382.37 1028.93,1382.32 1033.03,1382.26 1037.13,1382.2 1041.23,1382.14 1045.33,1382.08 1049.42,1382.02 1053.52,1381.95 1057.62,1381.88 1061.72,1381.81 1065.82,1381.74 1069.92,1381.67 1074.02,1381.59 1078.12,1381.51 1082.22,1381.43 1086.31,1381.35 1090.41,1381.27 1094.51,1381.18 1098.61,1381.09 1102.71,1381 1106.81,1380.9 1110.91,1380.8 1115.01,1380.7 1119.11,1380.6 1123.2,1380.49 1127.3,1380.38 1131.4,1380.27 1135.5,1380.15 1139.6,1380.03 1143.7,1379.91 1147.8,1379.78 1151.9,1379.65 1156,1379.51 1160.1,1379.38 1164.19,1379.23 1168.29,1379.09 1172.39,1378.94 1176.49,1378.78 1180.59,1378.62 1184.69,1378.46 1188.79,1378.29 1192.89,1378.11 1196.99,1377.93 1201.08,1377.75 1205.18,1377.56 1209.28,1377.36 1213.38,1377.16 1217.48,1376.96 1221.58,1376.75 1225.68,1376.53 1229.78,1376.3 1233.88,1376.07 1237.97,1375.83 1242.07,1375.59 1246.17,1375.34 1250.27,1375.08 1254.37,1374.81 1258.47,1374.54 1262.57,1374.25 1266.67,1373.96 1270.77,1373.67 1274.86,1373.36 1278.96,1373.04 1283.06,1372.72 1287.16,1372.38 1291.26,1372.04 1295.36,1371.69 1299.46,1371.32 1303.56,1370.95 1307.66,1370.56 1311.75,1370.17 1315.85,1369.76 1319.95,1369.34 1324.05,1368.91 1328.15,1368.47 1332.25,1368.01 1336.35,1367.55 1340.45,1367.06 1344.55,1366.57 1348.65,1366.06 1352.74,1365.54 1356.84,1365 1360.94,1364.44 1365.04,1363.87 1369.14,1363.29 1373.24,1362.69 1377.34,1362.07 1381.44,1361.43 1385.54,1360.78 1389.63,1360.1 1393.73,1359.41 1397.83,1358.7 1401.93,1357.97 1406.03,1357.21 1410.13,1356.44 1414.23,1355.65 1418.33,1354.83 1422.43,1353.99 1426.52,1353.12 1430.62,1352.24 1434.72,1351.32 1438.82,1350.39 1442.92,1349.42 1447.02,1348.43 1451.12,1347.41 1455.22,1346.36 1459.32,1345.29 1463.41,1344.18 1467.51,1343.04 1471.61,1341.88 1475.71,1340.68 1479.81,1339.44 1483.91,1338.17 1488.01,1336.87 1492.11,1335.53 1496.21,1334.16 1500.3,1332.74 1504.4,1331.29 1508.5,1329.8 1512.6,1328.27 1516.7,1326.69 1520.8,1325.07 1524.9,1323.41 1529,1321.7 1533.1,1319.95 1537.2,1318.15 1541.29,1316.3 1545.39,1314.4 1549.49,1312.45 1553.59,1310.44 1557.69,1308.38 1561.79,1306.27 1565.89,1304.1 1569.99,1301.87 1574.09,1299.58 1578.18,1297.23 1582.28,1294.82 1586.38,1292.34 1590.48,1289.8 1594.58,1287.19 1598.68,1284.51 1602.78,1281.76 1606.88,1278.94 1610.98,1276.04 1615.07,1273.07 1619.17,1270.02 1623.27,1266.89 1627.37,1263.68 1631.47,1260.38 1635.57,1257 1639.67,1253.53 1643.77,1249.97 1647.87,1246.32 1651.96,1242.58 1656.06,1238.74 1660.16,1234.81 1664.26,1230.77 1668.36,1226.63 1672.46,1222.39 1676.56,1218.04 1680.66,1213.58 1684.76,1209 1688.85,1204.32 1692.95,1199.52 1697.05,1194.6 1701.15,1189.55 1705.25,1184.39 1709.35,1179.1 1713.45,1173.67 1717.55,1168.12 1721.65,1162.44 1725.75,1156.61 1729.84,1150.65 1733.94,1144.55 1738.04,1138.3 1742.14,1131.9 1746.24,1125.35 1750.34,1118.66 1754.44,1111.8 1758.54,1104.79 1762.64,1097.62 1766.73,1090.29 1770.83,1082.79 1774.93,1075.12 1779.03,1067.28 1783.13,1059.27 1787.23,1051.08 1791.33,1042.72 1795.43,1034.18 1799.53,1025.45 1803.62,1016.54 1807.72,1007.44 1811.82,998.15 1815.92,988.671 1820.02,979 1824.12,969.134 1828.22,959.073 1832.32,948.813 1836.42,938.355 1840.51,927.697 1844.61,916.838 1848.71,905.777 1852.81,894.514 1856.91,883.048 1861.01,871.379 1865.11,859.507 1869.21,847.433 1873.31,835.156 1877.4,822.679 1881.5,810.002 1885.6,797.127 1889.7,784.055 1893.8,770.79 1897.9,757.333 1902,743.688 1906.1,729.859 1910.2,715.849 1914.3,701.662 1918.39,687.305 1922.49,672.783 1926.59,658.101 1930.69,643.266 1934.79,628.287 1938.89,613.169 1942.99,597.924 1947.09,582.558 1951.19,567.084 1955.28,551.511 1959.38,535.852 1963.48,520.118 1967.58,504.323 1971.68,488.48 1975.78,472.606 1979.88,456.715 1983.98,440.826 1988.08,424.954 1992.17,409.12 1996.27,393.343 2000.37,377.644 2004.47,362.044 2008.57,346.567 2012.67,331.236 2016.77,316.076 2020.87,301.114 2024.97,286.376 2029.06,271.891 2033.16,257.688 2037.26,243.798 2041.36,230.25 2045.46,217.079 2049.56,204.317 2053.66,191.999 2057.76,180.16 2061.86,168.836 2065.95,158.063 2070.05,147.881 2074.15,138.327 2078.25,129.44 2082.35,121.261 2086.45,113.829 2090.55,107.185 2094.65,101.371 2098.75,96.4268 2102.85,92.395 2106.94,89.3166 2111.04,87.2331 2115.14,86.1857 2119.24,86.2151 2123.34,87.3618 2127.44,89.6655 2131.54,93.1654 2135.64,97.8996 2139.74,103.905 2143.83,111.219 2147.93,119.875 2152.03,129.906 2156.13,141.346 2160.23,154.223 2164.33,168.566 2168.43,184.402 2172.53,201.755 2176.63,220.646 2180.72,241.097 2184.82,263.124 2188.92,286.742 2193.02,311.964 2197.12,338.8 2201.22,367.256 2205.32,397.338 2209.42,429.048 2213.52,462.383 2217.61,497.341 2221.71,533.915 2225.81,572.096 2229.91,611.871 2234.01,653.227 2238.11,696.145 2242.21,740.606 2246.31,786.588 2250.41,834.066 2254.5,883.014 2258.6,933.401 2262.7,985.198 2266.8,1038.37 2270.9,1092.88 2275,1148.7 2279.1,1205.79 2283.2,1264.1 2287.3,1323.6 2291.4,1384.24 "/>
<polyline clip-path="url(#clip572)" style="stroke:#e26f46; stroke-linecap:round; stroke-linejoin:round; stroke-width:4; stroke-opacity:1; fill:none" points="246.038,1384.06 250.136,1384.12 254.235,1384.15 258.334,1384.16 262.433,1384.18 266.532,1384.2 270.631,1384.21 274.73,1384.21 278.829,1384.21 282.928,1384.2 287.027,1384.18 291.126,1384.12 295.224,1384.07 299.323,1384.03 303.422,1384.01 307.521,1384 311.62,1384 315.719,1384.01 319.818,1384.02 323.917,1384.04 328.016,1384.06 332.115,1384.08 336.214,1384.11 340.313,1384.14 344.411,1384.16 348.51,1384.16 352.609,1384.16 356.708,1384.17 360.807,1384.17 364.906,1384.18 369.005,1384.18 373.104,1384.18 377.203,1384.19 381.302,1384.19 385.401,1384.2 389.499,1384.2 393.598,1384.2 397.697,1384.2 401.796,1384.19 405.895,1384.19 409.994,1384.19 414.093,1384.2 418.192,1384.2 422.291,1384.2 426.39,1384.2 430.489,1384.21 434.588,1384.21 438.686,1384.22 442.785,1384.22 446.884,1384.22 450.983,1384.22 455.082,1384.22 459.181,1384.22 463.28,1384.22 467.379,1384.22 471.478,1384.21 475.577,1384.21 479.676,1384.21 483.774,1384.21 487.873,1384.21 491.972,1384.21 496.071,1384.21 500.17,1384.21 504.269,1384.21 508.368,1384.21 512.467,1384.21 516.566,1384.21 520.665,1384.21 524.764,1384.21 528.863,1384.21 532.961,1384.22 537.06,1384.22 541.159,1384.22 545.258,1384.22 549.357,1384.22 553.456,1384.22 557.555,1384.22 561.654,1384.22 565.753,1384.22 569.852,1384.21 573.951,1384.21 578.049,1384.21 582.148,1384.2 586.247,1384.2 590.346,1384.2 594.445,1384.19 598.544,1384.19 602.643,1384.19 606.742,1384.19 610.841,1384.19 614.94,1384.19 619.039,1384.2 623.138,1384.2 627.236,1384.2 631.335,1384.2 635.434,1384.21 639.533,1384.21 643.632,1384.21 647.731,1384.2 651.83,1384.2 655.929,1384.2 660.028,1384.2 664.127,1384.19 668.226,1384.19 672.324,1384.19 676.423,1384.18 680.522,1384.18 684.621,1384.18 688.72,1384.18 692.819,1384.17 696.918,1384.17 701.017,1384.17 705.116,1384.17 709.215,1384.17 713.314,1384.16 717.413,1384.16 721.511,1384.16 725.61,1384.16 729.709,1384.16 733.808,1384.15 737.907,1384.15 742.006,1384.15 746.105,1384.14 750.204,1384.14 754.303,1384.14 758.402,1384.14 762.501,1384.13 766.599,1384.13 770.698,1384.12 774.797,1384.12 778.896,1384.12 782.995,1384.11 787.094,1384.11 791.193,1384.1 795.292,1384.1 799.391,1384.09 803.49,1384.09 807.589,1384.08 811.688,1384.08 815.786,1384.07 819.885,1384.07 823.984,1384.06 828.083,1384.06 832.182,1384.06 836.281,1384.05 840.38,1384.05 844.479,1384.04 848.578,1384.03 852.677,1384.03 856.776,1384.02 860.874,1384.01 864.973,1384 869.072,1383.99 873.171,1383.98 877.27,1383.97 881.369,1383.96 885.468,1383.96 889.567,1383.95 893.666,1383.94 897.765,1383.93 901.864,1383.92 905.963,1383.92 910.061,1383.91 914.16,1383.9 918.259,1383.89 922.358,1383.88 926.457,1383.87 930.556,1383.86 934.655,1383.85 938.754,1383.83 942.853,1383.82 946.952,1383.8 951.051,1383.78 955.149,1383.77 959.248,1383.75 963.347,1383.73 967.446,1383.72 971.545,1383.71 975.644,1383.69 979.743,1383.68 983.842,1383.66 987.941,1383.65 992.04,1383.63 996.139,1383.61 1000.24,1383.6 1004.34,1383.58 1008.44,1383.56 1012.53,1383.53 1016.63,1383.51 1020.73,1383.49 1024.83,1383.46 1028.93,1383.43 1033.03,1383.41 1037.13,1383.38 1041.23,1383.35 1045.33,1383.33 1049.42,1383.3 1053.52,1383.27 1057.62,1383.25 1061.72,1383.22 1065.82,1383.19 1069.92,1383.16 1074.02,1383.13 1078.12,1383.1 1082.22,1383.06 1086.31,1383.03 1090.41,1382.99 1094.51,1382.95 1098.61,1382.91 1102.71,1382.86 1106.81,1382.82 1110.91,1382.77 1115.01,1382.73 1119.11,1382.68 1123.2,1382.63 1127.3,1382.59 1131.4,1382.54 1135.5,1382.49 1139.6,1382.44 1143.7,1382.39 1147.8,1382.33 1151.9,1382.28 1156,1382.22 1160.1,1382.16 1164.19,1382.1 1168.29,1382.03 1172.39,1381.97 1176.49,1381.9 1180.59,1381.82 1184.69,1381.75 1188.79,1381.67 1192.89,1381.59 1196.99,1381.51 1201.08,1381.43 1205.18,1381.35 1209.28,1381.26 1213.38,1381.18 1217.48,1381.09 1221.58,1380.99 1225.68,1380.9 1229.78,1380.8 1233.88,1380.7 1237.97,1380.6 1242.07,1380.49 1246.17,1380.37 1250.27,1380.26 1254.37,1380.14 1258.47,1380.01 1262.57,1379.88 1266.67,1379.75 1270.77,1379.62 1274.86,1379.48 1278.96,1379.34 1283.06,1379.2 1287.16,1379.05 1291.26,1378.9 1295.36,1378.74 1299.46,1378.58 1303.56,1378.41 1307.66,1378.24 1311.75,1378.06 1315.85,1377.88 1319.95,1377.69 1324.05,1377.5 1328.15,1377.3 1332.25,1377.09 1336.35,1376.88 1340.45,1376.66 1344.55,1376.44 1348.65,1376.21 1352.74,1375.97 1356.84,1375.73 1360.94,1375.48 1365.04,1375.22 1369.14,1374.96 1373.24,1374.68 1377.34,1374.41 1381.44,1374.12 1385.54,1373.82 1389.63,1373.52 1393.73,1373.2 1397.83,1372.88 1401.93,1372.54 1406.03,1372.2 1410.13,1371.85 1414.23,1371.48 1418.33,1371.11 1422.43,1370.72 1426.52,1370.33 1430.62,1369.92 1434.72,1369.51 1438.82,1369.08 1442.92,1368.64 1447.02,1368.19 1451.12,1367.72 1455.22,1367.24 1459.32,1366.75 1463.41,1366.24 1467.51,1365.72 1471.61,1365.18 1475.71,1364.62 1479.81,1364.05 1483.91,1363.47 1488.01,1362.86 1492.11,1362.24 1496.21,1361.61 1500.3,1360.95 1504.4,1360.28 1508.5,1359.59 1512.6,1358.88 1516.7,1358.15 1520.8,1357.4 1524.9,1356.63 1529,1355.83 1533.1,1355.01 1537.2,1354.17 1541.29,1353.31 1545.39,1352.42 1549.49,1351.51 1553.59,1350.57 1557.69,1349.61 1561.79,1348.61 1565.89,1347.59 1569.99,1346.55 1574.09,1345.47 1578.18,1344.37 1582.28,1343.23 1586.38,1342.06 1590.48,1340.86 1594.58,1339.63 1598.68,1338.36 1602.78,1337.06 1606.88,1335.72 1610.98,1334.35 1615.07,1332.93 1619.17,1331.48 1623.27,1329.99 1627.37,1328.46 1631.47,1326.88 1635.57,1325.26 1639.67,1323.6 1643.77,1321.9 1647.87,1320.14 1651.96,1318.34 1656.06,1316.5 1660.16,1314.6 1664.26,1312.66 1668.36,1310.66 1672.46,1308.61 1676.56,1306.5 1680.66,1304.34 1684.76,1302.12 1688.85,1299.84 1692.95,1297.5 1697.05,1295.1 1701.15,1292.63 1705.25,1290.11 1709.35,1287.51 1713.45,1284.85 1717.55,1282.12 1721.65,1279.31 1725.75,1276.44 1729.84,1273.49 1733.94,1270.46 1738.04,1267.36 1742.14,1264.18 1746.24,1260.92 1750.34,1257.57 1754.44,1254.14 1758.54,1250.63 1762.64,1247.02 1766.73,1243.33 1770.83,1239.54 1774.93,1235.66 1779.03,1231.69 1783.13,1227.61 1787.23,1223.44 1791.33,1219.16 1795.43,1214.78 1799.53,1210.3 1803.62,1205.71 1807.72,1201 1811.82,1196.19 1815.92,1191.26 1820.02,1186.22 1824.12,1181.06 1828.22,1175.78 1832.32,1170.38 1836.42,1164.85 1840.51,1159.2 1844.61,1153.42 1848.71,1147.51 1852.81,1141.47 1856.91,1135.29 1861.01,1128.98 1865.11,1122.53 1869.21,1115.95 1873.31,1109.22 1877.4,1102.35 1881.5,1095.34 1885.6,1088.18 1889.7,1080.88 1893.8,1073.42 1897.9,1065.82 1902,1058.06 1906.1,1050.15 1910.2,1042.09 1914.3,1033.88 1918.39,1025.51 1922.49,1016.98 1926.59,1008.3 1930.69,999.464 1934.79,990.471 1938.89,981.321 1942.99,972.013 1947.09,962.549 1951.19,952.927 1955.28,943.151 1959.38,933.22 1963.48,923.137 1967.58,912.904 1971.68,902.521 1975.78,891.991 1979.88,881.316 1983.98,870.498 1988.08,859.54 1992.17,848.443 1996.27,837.212 2000.37,825.85 2004.47,814.362 2008.57,802.754 2012.67,791.03 2016.77,779.195 2020.87,767.256 2024.97,755.219 2029.06,743.089 2033.16,730.873 2037.26,718.578 2041.36,706.211 2045.46,693.781 2049.56,681.297 2053.66,668.77 2057.76,656.208 2061.86,643.623 2065.95,631.023 2070.05,618.42 2074.15,605.825 2078.25,593.249 2082.35,580.704 2086.45,568.203 2090.55,555.761 2094.65,543.391 2098.75,531.11 2102.85,518.93 2106.94,506.868 2111.04,494.936 2115.14,483.151 2119.24,471.526 2123.34,460.077 2127.44,448.82 2131.54,437.774 2135.64,426.957 2139.74,416.386 2143.83,406.08 2147.93,396.056 2152.03,386.331 2156.13,376.921 2160.23,367.843 2164.33,359.114 2168.43,350.748 2172.53,342.764 2176.63,335.179 2180.72,328.011 2184.82,321.278 2188.92,314.994 2193.02,309.178 2197.12,303.844 2201.22,299.005 2205.32,294.677 2209.42,290.872 2213.52,287.602 2217.61,284.881 2221.71,282.719 2225.81,281.13 2229.91,280.124 2234.01,279.712 2238.11,279.904 2242.21,280.706 2246.31,282.128 2250.41,284.174 2254.5,286.851 2258.6,290.163 2262.7,294.114 2266.8,298.71 2270.9,303.95 2275,309.838 2279.1,316.374 2283.2,323.558 2287.3,331.388 2291.4,339.865 "/>
<path clip-path="url(#clip570)" d="M256.946 248.629 L627.249 248.629 L627.249 93.1086 L256.946 93.1086  Z" fill="#ffffff" fill-rule="evenodd" fill-opacity="1"/>
<polyline clip-path="url(#clip570)" style="stroke:#000000; stroke-linecap:round; stroke-linejoin:round; stroke-width:4; stroke-opacity:1; fill:none" points="256.946,248.629 627.249,248.629 627.249,93.1086 256.946,93.1086 256.946,248.629 "/>
<polyline clip-path="url(#clip570)" style="stroke:#009af9; stroke-linecap:round; stroke-linejoin:round; stroke-width:4; stroke-opacity:1; fill:none" points="281.036,144.949 425.574,144.949 "/>
<path clip-path="url(#clip570)" d="M449.664 127.669 L454.34 127.669 L454.34 141.835 L471.331 141.835 L471.331 127.669 L476.007 127.669 L476.007 162.229 L471.331 162.229 L471.331 145.77 L454.34 145.77 L454.34 162.229 L449.664 162.229 L449.664 127.669 Z" fill="#000000" fill-rule="nonzero" fill-opacity="1" /><path clip-path="url(#clip570)" d="M486.863 159.59 L496.678 159.59 L496.678 162.229 L482.835 162.229 L482.835 159.682 Q483.622 158.965 485.081 157.668 Q493.044 150.608 493.044 148.432 Q493.044 146.905 491.84 145.979 Q490.636 145.03 488.669 145.03 Q487.465 145.03 486.053 145.446 Q484.641 145.84 482.974 146.65 L482.974 143.803 Q484.757 143.155 486.284 142.831 Q487.835 142.507 489.155 142.507 Q492.511 142.507 494.525 144.034 Q496.539 145.562 496.539 148.062 Q496.539 151.28 488.877 157.854 Q487.581 158.965 486.863 159.59 Z" fill="#000000" fill-rule="nonzero" fill-opacity="1" /><path clip-path="url(#clip570)" d="M526.77 127.669 L530.705 127.669 L518.668 166.627 L514.733 166.627 L526.77 127.669 Z" fill="#000000" fill-rule="nonzero" fill-opacity="1" /><path clip-path="url(#clip570)" d="M550.428 127.669 L555.103 127.669 L555.103 141.835 L572.094 141.835 L572.094 127.669 L576.77 127.669 L576.77 162.229 L572.094 162.229 L572.094 145.77 L555.103 145.77 L555.103 162.229 L550.428 162.229 L550.428 127.669 Z" fill="#000000" fill-rule="nonzero" fill-opacity="1" /><path clip-path="url(#clip570)" d="M585.034 159.682 L589.756 159.682 L589.756 145.539 L584.594 146.488 L584.594 143.803 L589.918 142.9 L593.089 142.9 L593.089 159.682 L597.835 159.682 L597.835 162.229 L585.034 162.229 L585.034 159.682 Z" fill="#000000" fill-rule="nonzero" fill-opacity="1" /><polyline clip-path="url(#clip570)" style="stroke:#e26f46; stroke-linecap:round; stroke-linejoin:round; stroke-width:4; stroke-opacity:1; fill:none" points="281.036,196.789 425.574,196.789 "/>
<path clip-path="url(#clip570)" d="M463.345 214.069 Q463.368 210.967 463.345 206.893 Q458.391 206.893 454.039 202.032 Q449.78 197.309 449.664 188.976 L449.664 179.509 L454.595 179.509 L454.595 188.976 Q454.595 195.504 457.604 199.3 Q460.15 202.541 463.345 202.865 L463.345 179.509 L468.021 179.509 L468.021 202.865 Q471.215 202.541 473.761 199.3 Q476.771 195.504 476.771 188.976 L476.771 179.509 L481.701 179.509 L481.701 188.976 Q481.585 197.309 477.326 202.032 Q472.974 206.893 468.021 206.893 Q467.997 208.559 468.021 214.069 L463.345 214.069 Z" fill="#000000" fill-rule="nonzero" fill-opacity="1" /><path clip-path="url(#clip570)" d="M490.52 211.43 L500.335 211.43 L500.335 214.069 L486.493 214.069 L486.493 211.522 Q487.28 210.805 488.738 209.508 Q496.701 202.448 496.701 200.272 Q496.701 198.745 495.497 197.819 Q494.294 196.87 492.326 196.87 Q491.122 196.87 489.71 197.286 Q488.298 197.68 486.632 198.49 L486.632 195.643 Q488.414 194.995 489.942 194.671 Q491.493 194.347 492.812 194.347 Q496.169 194.347 498.182 195.874 Q500.196 197.402 500.196 199.902 Q500.196 203.12 492.534 209.694 Q491.238 210.805 490.52 211.43 Z" fill="#000000" fill-rule="nonzero" fill-opacity="1" /><path clip-path="url(#clip570)" d="M530.428 179.509 L534.363 179.509 L522.326 218.467 L518.391 218.467 L530.428 179.509 Z" fill="#000000" fill-rule="nonzero" fill-opacity="1" /><path clip-path="url(#clip570)" d="M565.775 214.069 Q565.798 210.967 565.775 206.893 Q560.821 206.893 556.469 202.032 Q552.21 197.309 552.094 188.976 L552.094 179.509 L557.025 179.509 L557.025 188.976 Q557.025 195.504 560.034 199.3 Q562.58 202.541 565.775 202.865 L565.775 179.509 L570.451 179.509 L570.451 202.865 Q573.645 202.541 576.191 199.3 Q579.201 195.504 579.201 188.976 L579.201 179.509 L584.131 179.509 L584.131 188.976 Q584.015 197.309 579.756 202.032 Q575.404 206.893 570.451 206.893 Q570.427 208.559 570.451 214.069 L565.775 214.069 Z" fill="#000000" fill-rule="nonzero" fill-opacity="1" /><path clip-path="url(#clip570)" d="M590.358 211.522 L595.08 211.522 L595.08 197.379 L589.918 198.328 L589.918 195.643 L595.242 194.74 L598.413 194.74 L598.413 211.522 L603.159 211.522 L603.159 214.069 L590.358 214.069 L590.358 211.522 Z" fill="#000000" fill-rule="nonzero" fill-opacity="1" /></svg>
