<?xml version="1.0" encoding="utf-8"?>
<svg xmlns="http://www.w3.org/2000/svg" xmlns:xlink="http://www.w3.org/1999/xlink" width="600" height="400" viewBox="0 0 2400 1600">
<defs>
  <clipPath id="clip880">
    <rect x="0" y="0" width="2400" height="1600"/>
  </clipPath>
</defs>
<path clip-path="url(#clip880)" d="M0 1600 L2400 1600 L2400 0 L0 0  Z" fill="#ffffff" fill-rule="evenodd" fill-opacity="1"/>
<defs>
  <clipPath id="clip881">
    <rect x="265" y="47" width="2088" height="1377"/>
  </clipPath>
</defs>
<path clip-path="url(#clip880)" d="M265.445 1423.18 L2352.76 1423.18 L2352.76 47.2441 L265.445 47.2441  Z" fill="#ffffff" fill-rule="evenodd" fill-opacity="1"/>
<polyline clip-path="url(#clip881)" style="stroke:#000000; stroke-linecap:round; stroke-linejoin:round; stroke-width:2; stroke-opacity:0.1; fill:none" points="304.629,1423.18 304.629,47.2441 "/>
<polyline clip-path="url(#clip881)" style="stroke:#000000; stroke-linecap:round; stroke-linejoin:round; stroke-width:2; stroke-opacity:0.1; fill:none" points="801.892,1423.18 801.892,47.2441 "/>
<polyline clip-path="url(#clip881)" style="stroke:#000000; stroke-linecap:round; stroke-linejoin:round; stroke-width:2; stroke-opacity:0.1; fill:none" points="1299.16,1423.18 1299.16,47.2441 "/>
<polyline clip-path="url(#clip881)" style="stroke:#000000; stroke-linecap:round; stroke-linejoin:round; stroke-width:2; stroke-opacity:0.1; fill:none" points="1796.42,1423.18 1796.42,47.2441 "/>
<polyline clip-path="url(#clip881)" style="stroke:#000000; stroke-linecap:round; stroke-linejoin:round; stroke-width:2; stroke-opacity:0.1; fill:none" points="2293.68,1423.18 2293.68,47.2441 "/>
<polyline clip-path="url(#clip881)" style="stroke:#000000; stroke-linecap:round; stroke-linejoin:round; stroke-width:2; stroke-opacity:0.1; fill:none" points="265.445,1336.91 2352.76,1336.91 "/>
<polyline clip-path="url(#clip881)" style="stroke:#000000; stroke-linecap:round; stroke-linejoin:round; stroke-width:2; stroke-opacity:0.1; fill:none" points="265.445,1087.18 2352.76,1087.18 "/>
<polyline clip-path="url(#clip881)" style="stroke:#000000; stroke-linecap:round; stroke-linejoin:round; stroke-width:2; stroke-opacity:0.1; fill:none" points="265.445,837.463 2352.76,837.463 "/>
<polyline clip-path="url(#clip881)" style="stroke:#000000; stroke-linecap:round; stroke-linejoin:round; stroke-width:2; stroke-opacity:0.1; fill:none" points="265.445,587.742 2352.76,587.742 "/>
<polyline clip-path="url(#clip881)" style="stroke:#000000; stroke-linecap:round; stroke-linejoin:round; stroke-width:2; stroke-opacity:0.1; fill:none" points="265.445,338.02 2352.76,338.02 "/>
<polyline clip-path="url(#clip881)" style="stroke:#000000; stroke-linecap:round; stroke-linejoin:round; stroke-width:2; stroke-opacity:0.1; fill:none" points="265.445,88.2986 2352.76,88.2986 "/>
<polyline clip-path="url(#clip880)" style="stroke:#000000; stroke-linecap:round; stroke-linejoin:round; stroke-width:4; stroke-opacity:1; fill:none" points="265.445,1423.18 2352.76,1423.18 "/>
<polyline clip-path="url(#clip880)" style="stroke:#000000; stroke-linecap:round; stroke-linejoin:round; stroke-width:4; stroke-opacity:1; fill:none" points="304.629,1423.18 304.629,1404.28 "/>
<polyline clip-path="url(#clip880)" style="stroke:#000000; stroke-linecap:round; stroke-linejoin:round; stroke-width:4; stroke-opacity:1; fill:none" points="801.892,1423.18 801.892,1404.28 "/>
<polyline clip-path="url(#clip880)" style="stroke:#000000; stroke-linecap:round; stroke-linejoin:round; stroke-width:4; stroke-opacity:1; fill:none" points="1299.16,1423.18 1299.16,1404.28 "/>
<polyline clip-path="url(#clip880)" style="stroke:#000000; stroke-linecap:round; stroke-linejoin:round; stroke-width:4; stroke-opacity:1; fill:none" points="1796.42,1423.18 1796.42,1404.28 "/>
<polyline clip-path="url(#clip880)" style="stroke:#000000; stroke-linecap:round; stroke-linejoin:round; stroke-width:4; stroke-opacity:1; fill:none" points="2293.68,1423.18 2293.68,1404.28 "/>
<path clip-path="url(#clip880)" d="M304.629 1454.1 Q301.018 1454.1 299.189 1457.66 Q297.384 1461.2 297.384 1468.33 Q297.384 1475.44 299.189 1479.01 Q301.018 1482.55 304.629 1482.55 Q308.263 1482.55 310.069 1479.01 Q311.898 1475.44 311.898 1468.33 Q311.898 1461.2 310.069 1457.66 Q308.263 1454.1 304.629 1454.1 M304.629 1450.39 Q310.439 1450.39 313.495 1455 Q316.573 1459.58 316.573 1468.33 Q316.573 1477.06 313.495 1481.67 Q310.439 1486.25 304.629 1486.25 Q298.819 1486.25 295.74 1481.67 Q292.685 1477.06 292.685 1468.33 Q292.685 1459.58 295.74 1455 Q298.819 1450.39 304.629 1450.39 Z" fill="#000000" fill-rule="nonzero" fill-opacity="1" /><path clip-path="url(#clip880)" d="M765.584 1481.64 L781.904 1481.64 L781.904 1485.58 L759.959 1485.58 L759.959 1481.64 Q762.621 1478.89 767.205 1474.26 Q771.811 1469.61 772.992 1468.27 Q775.237 1465.74 776.117 1464.01 Q777.02 1462.25 777.02 1460.56 Q777.02 1457.8 775.075 1456.07 Q773.154 1454.33 770.052 1454.33 Q767.853 1454.33 765.399 1455.09 Q762.969 1455.86 760.191 1457.41 L760.191 1452.69 Q763.015 1451.55 765.469 1450.97 Q767.922 1450.39 769.959 1450.39 Q775.33 1450.39 778.524 1453.08 Q781.719 1455.77 781.719 1460.26 Q781.719 1462.39 780.908 1464.31 Q780.121 1466.2 778.015 1468.8 Q777.436 1469.47 774.334 1472.69 Q771.232 1475.88 765.584 1481.64 Z" fill="#000000" fill-rule="nonzero" fill-opacity="1" /><path clip-path="url(#clip880)" d="M791.765 1451.02 L810.121 1451.02 L810.121 1454.96 L796.047 1454.96 L796.047 1463.43 Q797.066 1463.08 798.084 1462.92 Q799.103 1462.73 800.121 1462.73 Q805.908 1462.73 809.288 1465.9 Q812.667 1469.08 812.667 1474.49 Q812.667 1480.07 809.195 1483.17 Q805.723 1486.25 799.404 1486.25 Q797.228 1486.25 794.959 1485.88 Q792.714 1485.51 790.306 1484.77 L790.306 1480.07 Q792.39 1481.2 794.612 1481.76 Q796.834 1482.32 799.311 1482.32 Q803.316 1482.32 805.654 1480.21 Q807.992 1478.1 807.992 1474.49 Q807.992 1470.88 805.654 1468.77 Q803.316 1466.67 799.311 1466.67 Q797.436 1466.67 795.561 1467.08 Q793.709 1467.5 791.765 1468.38 L791.765 1451.02 Z" fill="#000000" fill-rule="nonzero" fill-opacity="1" /><path clip-path="url(#clip880)" d="M831.88 1454.1 Q828.269 1454.1 826.441 1457.66 Q824.635 1461.2 824.635 1468.33 Q824.635 1475.44 826.441 1479.01 Q828.269 1482.55 831.88 1482.55 Q835.515 1482.55 837.32 1479.01 Q839.149 1475.44 839.149 1468.33 Q839.149 1461.2 837.32 1457.66 Q835.515 1454.1 831.88 1454.1 M831.88 1450.39 Q837.69 1450.39 840.746 1455 Q843.825 1459.58 843.825 1468.33 Q843.825 1477.06 840.746 1481.67 Q837.69 1486.25 831.88 1486.25 Q826.07 1486.25 822.991 1481.67 Q819.936 1477.06 819.936 1468.33 Q819.936 1459.58 822.991 1455 Q826.07 1450.39 831.88 1450.39 Z" fill="#000000" fill-rule="nonzero" fill-opacity="1" /><path clip-path="url(#clip880)" d="M1258.77 1451.02 L1277.13 1451.02 L1277.13 1454.96 L1263.06 1454.96 L1263.06 1463.43 Q1264.07 1463.08 1265.09 1462.92 Q1266.11 1462.73 1267.13 1462.73 Q1272.92 1462.73 1276.3 1465.9 Q1279.68 1469.08 1279.68 1474.49 Q1279.68 1480.07 1276.2 1483.17 Q1272.73 1486.25 1266.41 1486.25 Q1264.24 1486.25 1261.97 1485.88 Q1259.72 1485.51 1257.32 1484.77 L1257.32 1480.07 Q1259.4 1481.2 1261.62 1481.76 Q1263.84 1482.32 1266.32 1482.32 Q1270.32 1482.32 1272.66 1480.21 Q1275 1478.1 1275 1474.49 Q1275 1470.88 1272.66 1468.77 Q1270.32 1466.67 1266.32 1466.67 Q1264.44 1466.67 1262.57 1467.08 Q1260.72 1467.5 1258.77 1468.38 L1258.77 1451.02 Z" fill="#000000" fill-rule="nonzero" fill-opacity="1" /><path clip-path="url(#clip880)" d="M1298.89 1454.1 Q1295.28 1454.1 1293.45 1457.66 Q1291.64 1461.2 1291.64 1468.33 Q1291.64 1475.44 1293.45 1479.01 Q1295.28 1482.55 1298.89 1482.55 Q1302.52 1482.55 1304.33 1479.01 Q1306.16 1475.44 1306.16 1468.33 Q1306.16 1461.2 1304.33 1457.66 Q1302.52 1454.1 1298.89 1454.1 M1298.89 1450.39 Q1304.7 1450.39 1307.75 1455 Q1310.83 1459.58 1310.83 1468.33 Q1310.83 1477.06 1307.75 1481.67 Q1304.7 1486.25 1298.89 1486.25 Q1293.08 1486.25 1290 1481.67 Q1286.94 1477.06 1286.94 1468.33 Q1286.94 1459.58 1290 1455 Q1293.08 1450.39 1298.89 1450.39 Z" fill="#000000" fill-rule="nonzero" fill-opacity="1" /><path clip-path="url(#clip880)" d="M1329.05 1454.1 Q1325.44 1454.1 1323.61 1457.66 Q1321.81 1461.2 1321.81 1468.33 Q1321.81 1475.44 1323.61 1479.01 Q1325.44 1482.55 1329.05 1482.55 Q1332.68 1482.55 1334.49 1479.01 Q1336.32 1475.44 1336.32 1468.33 Q1336.32 1461.2 1334.49 1457.66 Q1332.68 1454.1 1329.05 1454.1 M1329.05 1450.39 Q1334.86 1450.39 1337.92 1455 Q1341 1459.58 1341 1468.33 Q1341 1477.06 1337.92 1481.67 Q1334.86 1486.25 1329.05 1486.25 Q1323.24 1486.25 1320.16 1481.67 Q1317.11 1477.06 1317.11 1468.33 Q1317.11 1459.58 1320.16 1455 Q1323.24 1450.39 1329.05 1450.39 Z" fill="#000000" fill-rule="nonzero" fill-opacity="1" /><path clip-path="url(#clip880)" d="M1754.69 1451.02 L1776.92 1451.02 L1776.92 1453.01 L1764.37 1485.58 L1759.49 1485.58 L1771.29 1454.96 L1754.69 1454.96 L1754.69 1451.02 Z" fill="#000000" fill-rule="nonzero" fill-opacity="1" /><path clip-path="url(#clip880)" d="M1786.08 1451.02 L1804.44 1451.02 L1804.44 1454.96 L1790.36 1454.96 L1790.36 1463.43 Q1791.38 1463.08 1792.4 1462.92 Q1793.42 1462.73 1794.44 1462.73 Q1800.23 1462.73 1803.61 1465.9 Q1806.99 1469.08 1806.99 1474.49 Q1806.99 1480.07 1803.51 1483.17 Q1800.04 1486.25 1793.72 1486.25 Q1791.55 1486.25 1789.28 1485.88 Q1787.03 1485.51 1784.62 1484.77 L1784.62 1480.07 Q1786.71 1481.2 1788.93 1481.76 Q1791.15 1482.32 1793.63 1482.32 Q1797.63 1482.32 1799.97 1480.21 Q1802.31 1478.1 1802.31 1474.49 Q1802.31 1470.88 1799.97 1468.77 Q1797.63 1466.67 1793.63 1466.67 Q1791.75 1466.67 1789.88 1467.08 Q1788.03 1467.5 1786.08 1468.38 L1786.08 1451.02 Z" fill="#000000" fill-rule="nonzero" fill-opacity="1" /><path clip-path="url(#clip880)" d="M1826.2 1454.1 Q1822.59 1454.1 1820.76 1457.66 Q1818.95 1461.2 1818.95 1468.33 Q1818.95 1475.44 1820.76 1479.01 Q1822.59 1482.55 1826.2 1482.55 Q1829.83 1482.55 1831.64 1479.01 Q1833.47 1475.44 1833.47 1468.33 Q1833.47 1461.2 1831.64 1457.66 Q1829.83 1454.1 1826.2 1454.1 M1826.2 1450.39 Q1832.01 1450.39 1835.06 1455 Q1838.14 1459.58 1838.14 1468.33 Q1838.14 1477.06 1835.06 1481.67 Q1832.01 1486.25 1826.2 1486.25 Q1820.39 1486.25 1817.31 1481.67 Q1814.25 1477.06 1814.25 1468.33 Q1814.25 1459.58 1817.31 1455 Q1820.39 1450.39 1826.2 1450.39 Z" fill="#000000" fill-rule="nonzero" fill-opacity="1" /><path clip-path="url(#clip880)" d="M2238.21 1481.64 L2245.85 1481.64 L2245.85 1455.28 L2237.54 1456.95 L2237.54 1452.69 L2245.8 1451.02 L2250.48 1451.02 L2250.48 1481.64 L2258.11 1481.64 L2258.11 1485.58 L2238.21 1485.58 L2238.21 1481.64 Z" fill="#000000" fill-rule="nonzero" fill-opacity="1" /><path clip-path="url(#clip880)" d="M2277.56 1454.1 Q2273.95 1454.1 2272.12 1457.66 Q2270.31 1461.2 2270.31 1468.33 Q2270.31 1475.44 2272.12 1479.01 Q2273.95 1482.55 2277.56 1482.55 Q2281.19 1482.55 2283 1479.01 Q2284.83 1475.44 2284.83 1468.33 Q2284.83 1461.2 2283 1457.66 Q2281.19 1454.1 2277.56 1454.1 M2277.56 1450.39 Q2283.37 1450.39 2286.42 1455 Q2289.5 1459.58 2289.5 1468.33 Q2289.5 1477.06 2286.42 1481.67 Q2283.37 1486.25 2277.56 1486.25 Q2271.75 1486.25 2268.67 1481.67 Q2265.61 1477.06 2265.61 1468.33 Q2265.61 1459.58 2268.67 1455 Q2271.75 1450.39 2277.56 1450.39 Z" fill="#000000" fill-rule="nonzero" fill-opacity="1" /><path clip-path="url(#clip880)" d="M2307.72 1454.1 Q2304.11 1454.1 2302.28 1457.66 Q2300.48 1461.2 2300.48 1468.33 Q2300.48 1475.44 2302.28 1479.01 Q2304.11 1482.55 2307.72 1482.55 Q2311.35 1482.55 2313.16 1479.01 Q2314.99 1475.44 2314.99 1468.33 Q2314.99 1461.2 2313.16 1457.66 Q2311.35 1454.1 2307.72 1454.1 M2307.72 1450.39 Q2313.53 1450.39 2316.59 1455 Q2319.66 1459.58 2319.66 1468.33 Q2319.66 1477.06 2316.59 1481.67 Q2313.53 1486.25 2307.72 1486.25 Q2301.91 1486.25 2298.83 1481.67 Q2295.78 1477.06 2295.78 1468.33 Q2295.78 1459.58 2298.83 1455 Q2301.91 1450.39 2307.72 1450.39 Z" fill="#000000" fill-rule="nonzero" fill-opacity="1" /><path clip-path="url(#clip880)" d="M2337.88 1454.1 Q2334.27 1454.1 2332.44 1457.66 Q2330.64 1461.2 2330.64 1468.33 Q2330.64 1475.44 2332.44 1479.01 Q2334.27 1482.55 2337.88 1482.55 Q2341.52 1482.55 2343.32 1479.01 Q2345.15 1475.44 2345.15 1468.33 Q2345.15 1461.2 2343.32 1457.66 Q2341.52 1454.1 2337.88 1454.1 M2337.88 1450.39 Q2343.69 1450.39 2346.75 1455 Q2349.83 1459.58 2349.83 1468.33 Q2349.83 1477.06 2346.75 1481.67 Q2343.69 1486.25 2337.88 1486.25 Q2332.07 1486.25 2328.99 1481.67 Q2325.94 1477.06 2325.94 1468.33 Q2325.94 1459.58 2328.99 1455 Q2332.07 1450.39 2337.88 1450.39 Z" fill="#000000" fill-rule="nonzero" fill-opacity="1" /><path clip-path="url(#clip880)" d="M1306.17 1518.52 L1312.03 1518.52 L1312.03 1568.04 L1306.17 1568.04 L1306.17 1518.52 Z" fill="#000000" fill-rule="nonzero" fill-opacity="1" /><polyline clip-path="url(#clip880)" style="stroke:#000000; stroke-linecap:round; stroke-linejoin:round; stroke-width:4; stroke-opacity:1; fill:none" points="265.445,1423.18 265.445,47.2441 "/>
<polyline clip-path="url(#clip880)" style="stroke:#000000; stroke-linecap:round; stroke-linejoin:round; stroke-width:4; stroke-opacity:1; fill:none" points="265.445,1336.91 284.342,1336.91 "/>
<polyline clip-path="url(#clip880)" style="stroke:#000000; stroke-linecap:round; stroke-linejoin:round; stroke-width:4; stroke-opacity:1; fill:none" points="265.445,1087.18 284.342,1087.18 "/>
<polyline clip-path="url(#clip880)" style="stroke:#000000; stroke-linecap:round; stroke-linejoin:round; stroke-width:4; stroke-opacity:1; fill:none" points="265.445,837.463 284.342,837.463 "/>
<polyline clip-path="url(#clip880)" style="stroke:#000000; stroke-linecap:round; stroke-linejoin:round; stroke-width:4; stroke-opacity:1; fill:none" points="265.445,587.742 284.342,587.742 "/>
<polyline clip-path="url(#clip880)" style="stroke:#000000; stroke-linecap:round; stroke-linejoin:round; stroke-width:4; stroke-opacity:1; fill:none" points="265.445,338.02 284.342,338.02 "/>
<polyline clip-path="url(#clip880)" style="stroke:#000000; stroke-linecap:round; stroke-linejoin:round; stroke-width:4; stroke-opacity:1; fill:none" points="265.445,88.2986 284.342,88.2986 "/>
<path clip-path="url(#clip880)" d="M117.825 1350.25 L125.464 1350.25 L125.464 1323.89 L117.154 1325.55 L117.154 1321.29 L125.418 1319.63 L130.093 1319.63 L130.093 1350.25 L137.732 1350.25 L137.732 1354.19 L117.825 1354.19 L117.825 1350.25 Z" fill="#000000" fill-rule="nonzero" fill-opacity="1" /><path clip-path="url(#clip880)" d="M157.177 1322.71 Q153.566 1322.71 151.737 1326.27 Q149.931 1329.81 149.931 1336.94 Q149.931 1344.05 151.737 1347.61 Q153.566 1351.15 157.177 1351.15 Q160.811 1351.15 162.616 1347.61 Q164.445 1344.05 164.445 1336.94 Q164.445 1329.81 162.616 1326.27 Q160.811 1322.71 157.177 1322.71 M157.177 1319 Q162.987 1319 166.042 1323.61 Q169.121 1328.19 169.121 1336.94 Q169.121 1345.67 166.042 1350.27 Q162.987 1354.86 157.177 1354.86 Q151.366 1354.86 148.288 1350.27 Q145.232 1345.67 145.232 1336.94 Q145.232 1328.19 148.288 1323.61 Q151.366 1319 157.177 1319 Z" fill="#000000" fill-rule="nonzero" fill-opacity="1" /><path clip-path="url(#clip880)" d="M187.338 1322.71 Q183.727 1322.71 181.899 1326.27 Q180.093 1329.81 180.093 1336.94 Q180.093 1344.05 181.899 1347.61 Q183.727 1351.15 187.338 1351.15 Q190.973 1351.15 192.778 1347.61 Q194.607 1344.05 194.607 1336.94 Q194.607 1329.81 192.778 1326.27 Q190.973 1322.71 187.338 1322.71 M187.338 1319 Q193.149 1319 196.204 1323.61 Q199.283 1328.19 199.283 1336.94 Q199.283 1345.67 196.204 1350.27 Q193.149 1354.86 187.338 1354.86 Q181.528 1354.86 178.45 1350.27 Q175.394 1345.67 175.394 1336.94 Q175.394 1328.19 178.45 1323.61 Q181.528 1319 187.338 1319 Z" fill="#000000" fill-rule="nonzero" fill-opacity="1" /><path clip-path="url(#clip880)" d="M217.5 1322.71 Q213.889 1322.71 212.061 1326.27 Q210.255 1329.81 210.255 1336.94 Q210.255 1344.05 212.061 1347.61 Q213.889 1351.15 217.5 1351.15 Q221.135 1351.15 222.94 1347.61 Q224.769 1344.05 224.769 1336.94 Q224.769 1329.81 222.94 1326.27 Q221.135 1322.71 217.5 1322.71 M217.5 1319 Q223.31 1319 226.366 1323.61 Q229.445 1328.19 229.445 1336.94 Q229.445 1345.67 226.366 1350.27 Q223.31 1354.86 217.5 1354.86 Q211.69 1354.86 208.612 1350.27 Q205.556 1345.67 205.556 1336.94 Q205.556 1328.19 208.612 1323.61 Q211.69 1319 217.5 1319 Z" fill="#000000" fill-rule="nonzero" fill-opacity="1" /><path clip-path="url(#clip880)" d="M121.043 1100.53 L137.362 1100.53 L137.362 1104.46 L115.418 1104.46 L115.418 1100.53 Q118.08 1097.78 122.663 1093.15 Q127.269 1088.49 128.45 1087.15 Q130.695 1084.63 131.575 1082.89 Q132.478 1081.13 132.478 1079.44 Q132.478 1076.69 130.533 1074.95 Q128.612 1073.22 125.51 1073.22 Q123.311 1073.22 120.857 1073.98 Q118.427 1074.74 115.649 1076.29 L115.649 1071.57 Q118.473 1070.44 120.927 1069.86 Q123.38 1069.28 125.418 1069.28 Q130.788 1069.28 133.982 1071.97 Q137.177 1074.65 137.177 1079.14 Q137.177 1081.27 136.367 1083.19 Q135.579 1085.09 133.473 1087.68 Q132.894 1088.35 129.792 1091.57 Q126.691 1094.77 121.043 1100.53 Z" fill="#000000" fill-rule="nonzero" fill-opacity="1" /><path clip-path="url(#clip880)" d="M157.177 1072.98 Q153.566 1072.98 151.737 1076.55 Q149.931 1080.09 149.931 1087.22 Q149.931 1094.33 151.737 1097.89 Q153.566 1101.43 157.177 1101.43 Q160.811 1101.43 162.616 1097.89 Q164.445 1094.33 164.445 1087.22 Q164.445 1080.09 162.616 1076.55 Q160.811 1072.98 157.177 1072.98 M157.177 1069.28 Q162.987 1069.28 166.042 1073.89 Q169.121 1078.47 169.121 1087.22 Q169.121 1095.95 166.042 1100.55 Q162.987 1105.14 157.177 1105.14 Q151.366 1105.14 148.288 1100.55 Q145.232 1095.95 145.232 1087.22 Q145.232 1078.47 148.288 1073.89 Q151.366 1069.28 157.177 1069.28 Z" fill="#000000" fill-rule="nonzero" fill-opacity="1" /><path clip-path="url(#clip880)" d="M187.338 1072.98 Q183.727 1072.98 181.899 1076.55 Q180.093 1080.09 180.093 1087.22 Q180.093 1094.33 181.899 1097.89 Q183.727 1101.43 187.338 1101.43 Q190.973 1101.43 192.778 1097.89 Q194.607 1094.33 194.607 1087.22 Q194.607 1080.09 192.778 1076.55 Q190.973 1072.98 187.338 1072.98 M187.338 1069.28 Q193.149 1069.28 196.204 1073.89 Q199.283 1078.47 199.283 1087.22 Q199.283 1095.95 196.204 1100.55 Q193.149 1105.14 187.338 1105.14 Q181.528 1105.14 178.45 1100.55 Q175.394 1095.95 175.394 1087.22 Q175.394 1078.47 178.45 1073.89 Q181.528 1069.28 187.338 1069.28 Z" fill="#000000" fill-rule="nonzero" fill-opacity="1" /><path clip-path="url(#clip880)" d="M217.5 1072.98 Q213.889 1072.98 212.061 1076.55 Q210.255 1080.09 210.255 1087.22 Q210.255 1094.33 212.061 1097.89 Q213.889 1101.43 217.5 1101.43 Q221.135 1101.43 222.94 1097.89 Q224.769 1094.33 224.769 1087.22 Q224.769 1080.09 222.94 1076.55 Q221.135 1072.98 217.5 1072.98 M217.5 1069.28 Q223.31 1069.28 226.366 1073.89 Q229.445 1078.47 229.445 1087.22 Q229.445 1095.95 226.366 1100.55 Q223.31 1105.14 217.5 1105.14 Q211.69 1105.14 208.612 1100.55 Q205.556 1095.95 205.556 1087.22 Q205.556 1078.47 208.612 1073.89 Q211.69 1069.28 217.5 1069.28 Z" fill="#000000" fill-rule="nonzero" fill-opacity="1" /><path clip-path="url(#clip880)" d="M131.181 836.109 Q134.538 836.827 136.413 839.095 Q138.311 841.364 138.311 844.697 Q138.311 849.813 134.792 852.614 Q131.274 855.415 124.793 855.415 Q122.617 855.415 120.302 854.975 Q118.01 854.558 115.556 853.702 L115.556 849.188 Q117.501 850.322 119.816 850.901 Q122.13 851.479 124.654 851.479 Q129.052 851.479 131.343 849.743 Q133.658 848.007 133.658 844.697 Q133.658 841.641 131.505 839.929 Q129.376 838.192 125.556 838.192 L121.529 838.192 L121.529 834.35 L125.742 834.35 Q129.191 834.35 131.019 832.984 Q132.848 831.595 132.848 829.003 Q132.848 826.341 130.95 824.929 Q129.075 823.493 125.556 823.493 Q123.635 823.493 121.436 823.91 Q119.237 824.327 116.598 825.206 L116.598 821.04 Q119.26 820.299 121.575 819.929 Q123.913 819.558 125.973 819.558 Q131.297 819.558 134.399 821.989 Q137.501 824.396 137.501 828.517 Q137.501 831.387 135.857 833.378 Q134.214 835.345 131.181 836.109 Z" fill="#000000" fill-rule="nonzero" fill-opacity="1" /><path clip-path="url(#clip880)" d="M157.177 823.262 Q153.566 823.262 151.737 826.827 Q149.931 830.368 149.931 837.498 Q149.931 844.604 151.737 848.169 Q153.566 851.711 157.177 851.711 Q160.811 851.711 162.616 848.169 Q164.445 844.604 164.445 837.498 Q164.445 830.368 162.616 826.827 Q160.811 823.262 157.177 823.262 M157.177 819.558 Q162.987 819.558 166.042 824.165 Q169.121 828.748 169.121 837.498 Q169.121 846.225 166.042 850.831 Q162.987 855.415 157.177 855.415 Q151.366 855.415 148.288 850.831 Q145.232 846.225 145.232 837.498 Q145.232 828.748 148.288 824.165 Q151.366 819.558 157.177 819.558 Z" fill="#000000" fill-rule="nonzero" fill-opacity="1" /><path clip-path="url(#clip880)" d="M187.338 823.262 Q183.727 823.262 181.899 826.827 Q180.093 830.368 180.093 837.498 Q180.093 844.604 181.899 848.169 Q183.727 851.711 187.338 851.711 Q190.973 851.711 192.778 848.169 Q194.607 844.604 194.607 837.498 Q194.607 830.368 192.778 826.827 Q190.973 823.262 187.338 823.262 M187.338 819.558 Q193.149 819.558 196.204 824.165 Q199.283 828.748 199.283 837.498 Q199.283 846.225 196.204 850.831 Q193.149 855.415 187.338 855.415 Q181.528 855.415 178.45 850.831 Q175.394 846.225 175.394 837.498 Q175.394 828.748 178.45 824.165 Q181.528 819.558 187.338 819.558 Z" fill="#000000" fill-rule="nonzero" fill-opacity="1" /><path clip-path="url(#clip880)" d="M217.5 823.262 Q213.889 823.262 212.061 826.827 Q210.255 830.368 210.255 837.498 Q210.255 844.604 212.061 848.169 Q213.889 851.711 217.5 851.711 Q221.135 851.711 222.94 848.169 Q224.769 844.604 224.769 837.498 Q224.769 830.368 222.94 826.827 Q221.135 823.262 217.5 823.262 M217.5 819.558 Q223.31 819.558 226.366 824.165 Q229.445 828.748 229.445 837.498 Q229.445 846.225 226.366 850.831 Q223.31 855.415 217.5 855.415 Q211.69 855.415 208.612 850.831 Q205.556 846.225 205.556 837.498 Q205.556 828.748 208.612 824.165 Q211.69 819.558 217.5 819.558 Z" fill="#000000" fill-rule="nonzero" fill-opacity="1" /><path clip-path="url(#clip880)" d="M129.862 574.536 L118.056 592.985 L129.862 592.985 L129.862 574.536 M128.635 570.462 L134.515 570.462 L134.515 592.985 L139.445 592.985 L139.445 596.874 L134.515 596.874 L134.515 605.022 L129.862 605.022 L129.862 596.874 L114.26 596.874 L114.26 592.36 L128.635 570.462 Z" fill="#000000" fill-rule="nonzero" fill-opacity="1" /><path clip-path="url(#clip880)" d="M157.177 573.54 Q153.566 573.54 151.737 577.105 Q149.931 580.647 149.931 587.776 Q149.931 594.883 151.737 598.448 Q153.566 601.989 157.177 601.989 Q160.811 601.989 162.616 598.448 Q164.445 594.883 164.445 587.776 Q164.445 580.647 162.616 577.105 Q160.811 573.54 157.177 573.54 M157.177 569.837 Q162.987 569.837 166.042 574.443 Q169.121 579.026 169.121 587.776 Q169.121 596.503 166.042 601.11 Q162.987 605.693 157.177 605.693 Q151.366 605.693 148.288 601.11 Q145.232 596.503 145.232 587.776 Q145.232 579.026 148.288 574.443 Q151.366 569.837 157.177 569.837 Z" fill="#000000" fill-rule="nonzero" fill-opacity="1" /><path clip-path="url(#clip880)" d="M187.338 573.54 Q183.727 573.54 181.899 577.105 Q180.093 580.647 180.093 587.776 Q180.093 594.883 181.899 598.448 Q183.727 601.989 187.338 601.989 Q190.973 601.989 192.778 598.448 Q194.607 594.883 194.607 587.776 Q194.607 580.647 192.778 577.105 Q190.973 573.54 187.338 573.54 M187.338 569.837 Q193.149 569.837 196.204 574.443 Q199.283 579.026 199.283 587.776 Q199.283 596.503 196.204 601.11 Q193.149 605.693 187.338 605.693 Q181.528 605.693 178.45 601.11 Q175.394 596.503 175.394 587.776 Q175.394 579.026 178.45 574.443 Q181.528 569.837 187.338 569.837 Z" fill="#000000" fill-rule="nonzero" fill-opacity="1" /><path clip-path="url(#clip880)" d="M217.5 573.54 Q213.889 573.54 212.061 577.105 Q210.255 580.647 210.255 587.776 Q210.255 594.883 212.061 598.448 Q213.889 601.989 217.5 601.989 Q221.135 601.989 222.94 598.448 Q224.769 594.883 224.769 587.776 Q224.769 580.647 222.94 577.105 Q221.135 573.54 217.5 573.54 M217.5 569.837 Q223.31 569.837 226.366 574.443 Q229.445 579.026 229.445 587.776 Q229.445 596.503 226.366 601.11 Q223.31 605.693 217.5 605.693 Q211.69 605.693 208.612 601.11 Q205.556 596.503 205.556 587.776 Q205.556 579.026 208.612 574.443 Q211.69 569.837 217.5 569.837 Z" fill="#000000" fill-rule="nonzero" fill-opacity="1" /><path clip-path="url(#clip880)" d="M117.061 320.74 L135.417 320.74 L135.417 324.675 L121.343 324.675 L121.343 333.147 Q122.362 332.8 123.38 332.638 Q124.399 332.453 125.418 332.453 Q131.205 332.453 134.584 335.624 Q137.964 338.796 137.964 344.212 Q137.964 349.791 134.492 352.893 Q131.019 355.971 124.7 355.971 Q122.524 355.971 120.255 355.601 Q118.01 355.231 115.603 354.49 L115.603 349.791 Q117.686 350.925 119.908 351.481 Q122.13 352.036 124.607 352.036 Q128.612 352.036 130.95 349.93 Q133.288 347.823 133.288 344.212 Q133.288 340.601 130.95 338.495 Q128.612 336.388 124.607 336.388 Q122.732 336.388 120.857 336.805 Q119.006 337.222 117.061 338.101 L117.061 320.74 Z" fill="#000000" fill-rule="nonzero" fill-opacity="1" /><path clip-path="url(#clip880)" d="M157.177 323.819 Q153.566 323.819 151.737 327.384 Q149.931 330.925 149.931 338.055 Q149.931 345.161 151.737 348.726 Q153.566 352.268 157.177 352.268 Q160.811 352.268 162.616 348.726 Q164.445 345.161 164.445 338.055 Q164.445 330.925 162.616 327.384 Q160.811 323.819 157.177 323.819 M157.177 320.115 Q162.987 320.115 166.042 324.722 Q169.121 329.305 169.121 338.055 Q169.121 346.782 166.042 351.388 Q162.987 355.971 157.177 355.971 Q151.366 355.971 148.288 351.388 Q145.232 346.782 145.232 338.055 Q145.232 329.305 148.288 324.722 Q151.366 320.115 157.177 320.115 Z" fill="#000000" fill-rule="nonzero" fill-opacity="1" /><path clip-path="url(#clip880)" d="M187.338 323.819 Q183.727 323.819 181.899 327.384 Q180.093 330.925 180.093 338.055 Q180.093 345.161 181.899 348.726 Q183.727 352.268 187.338 352.268 Q190.973 352.268 192.778 348.726 Q194.607 345.161 194.607 338.055 Q194.607 330.925 192.778 327.384 Q190.973 323.819 187.338 323.819 M187.338 320.115 Q193.149 320.115 196.204 324.722 Q199.283 329.305 199.283 338.055 Q199.283 346.782 196.204 351.388 Q193.149 355.971 187.338 355.971 Q181.528 355.971 178.45 351.388 Q175.394 346.782 175.394 338.055 Q175.394 329.305 178.45 324.722 Q181.528 320.115 187.338 320.115 Z" fill="#000000" fill-rule="nonzero" fill-opacity="1" /><path clip-path="url(#clip880)" d="M217.5 323.819 Q213.889 323.819 212.061 327.384 Q210.255 330.925 210.255 338.055 Q210.255 345.161 212.061 348.726 Q213.889 352.268 217.5 352.268 Q221.135 352.268 222.94 348.726 Q224.769 345.161 224.769 338.055 Q224.769 330.925 222.94 327.384 Q221.135 323.819 217.5 323.819 M217.5 320.115 Q223.31 320.115 226.366 324.722 Q229.445 329.305 229.445 338.055 Q229.445 346.782 226.366 351.388 Q223.31 355.971 217.5 355.971 Q211.69 355.971 208.612 351.388 Q205.556 346.782 205.556 338.055 Q205.556 329.305 208.612 324.722 Q211.69 320.115 217.5 320.115 Z" fill="#000000" fill-rule="nonzero" fill-opacity="1" /><path clip-path="url(#clip880)" d="M127.593 86.4352 Q124.445 86.4352 122.593 88.5879 Q120.765 90.7407 120.765 94.4907 Q120.765 98.2175 122.593 100.393 Q124.445 102.546 127.593 102.546 Q130.742 102.546 132.57 100.393 Q134.422 98.2175 134.422 94.4907 Q134.422 90.7407 132.57 88.5879 Q130.742 86.4352 127.593 86.4352 M136.876 71.7825 L136.876 76.0417 Q135.117 75.2084 133.311 74.7686 Q131.529 74.3288 129.769 74.3288 Q125.14 74.3288 122.686 77.4537 Q120.255 80.5787 119.908 86.8981 Q121.274 84.8843 123.334 83.8195 Q125.394 82.7315 127.871 82.7315 Q133.08 82.7315 136.089 85.9028 Q139.121 89.0509 139.121 94.4907 Q139.121 99.8147 135.973 103.032 Q132.825 106.25 127.593 106.25 Q121.598 106.25 118.427 101.667 Q115.256 97.0601 115.256 88.3333 Q115.256 80.1389 119.144 75.2778 Q123.033 70.3936 129.584 70.3936 Q131.343 70.3936 133.126 70.7408 Q134.931 71.088 136.876 71.7825 Z" fill="#000000" fill-rule="nonzero" fill-opacity="1" /><path clip-path="url(#clip880)" d="M157.177 74.0973 Q153.566 74.0973 151.737 77.6621 Q149.931 81.2037 149.931 88.3333 Q149.931 95.4398 151.737 99.0046 Q153.566 102.546 157.177 102.546 Q160.811 102.546 162.616 99.0046 Q164.445 95.4398 164.445 88.3333 Q164.445 81.2037 162.616 77.6621 Q160.811 74.0973 157.177 74.0973 M157.177 70.3936 Q162.987 70.3936 166.042 75.0001 Q169.121 79.5834 169.121 88.3333 Q169.121 97.0601 166.042 101.667 Q162.987 106.25 157.177 106.25 Q151.366 106.25 148.288 101.667 Q145.232 97.0601 145.232 88.3333 Q145.232 79.5834 148.288 75.0001 Q151.366 70.3936 157.177 70.3936 Z" fill="#000000" fill-rule="nonzero" fill-opacity="1" /><path clip-path="url(#clip880)" d="M187.338 74.0973 Q183.727 74.0973 181.899 77.6621 Q180.093 81.2037 180.093 88.3333 Q180.093 95.4398 181.899 99.0046 Q183.727 102.546 187.338 102.546 Q190.973 102.546 192.778 99.0046 Q194.607 95.4398 194.607 88.3333 Q194.607 81.2037 192.778 77.6621 Q190.973 74.0973 187.338 74.0973 M187.338 70.3936 Q193.149 70.3936 196.204 75.0001 Q199.283 79.5834 199.283 88.3333 Q199.283 97.0601 196.204 101.667 Q193.149 106.25 187.338 106.25 Q181.528 106.25 178.45 101.667 Q175.394 97.0601 175.394 88.3333 Q175.394 79.5834 178.45 75.0001 Q181.528 70.3936 187.338 70.3936 Z" fill="#000000" fill-rule="nonzero" fill-opacity="1" /><path clip-path="url(#clip880)" d="M217.5 74.0973 Q213.889 74.0973 212.061 77.6621 Q210.255 81.2037 210.255 88.3333 Q210.255 95.4398 212.061 99.0046 Q213.889 102.546 217.5 102.546 Q221.135 102.546 222.94 99.0046 Q224.769 95.4398 224.769 88.3333 Q224.769 81.2037 222.94 77.6621 Q221.135 74.0973 217.5 74.0973 M217.5 70.3936 Q223.31 70.3936 226.366 75.0001 Q229.445 79.5834 229.445 88.3333 Q229.445 97.0601 226.366 101.667 Q223.31 106.25 217.5 106.25 Q211.69 106.25 208.612 101.667 Q205.556 97.0601 205.556 88.3333 Q205.556 79.5834 208.612 75.0001 Q211.69 70.3936 217.5 70.3936 Z" fill="#000000" fill-rule="nonzero" fill-opacity="1" /><path clip-path="url(#clip880)" d="M14.479 1067.82 L14.479 1061.96 L64.0042 1061.96 L64.0042 1067.82 L14.479 1067.82 Z" fill="#000000" fill-rule="nonzero" fill-opacity="1" /><path clip-path="url(#clip880)" d="M14.5426 1014.92 Q21.8632 1019.19 29.0246 1021.25 Q36.186 1023.32 43.5384 1023.32 Q50.8908 1023.32 58.1159 1021.25 Q65.3091 1019.15 72.5979 1014.92 L72.5979 1020.01 Q65.1182 1024.79 57.8931 1027.18 Q50.668 1029.53 43.5384 1029.53 Q36.4406 1029.53 29.2474 1027.18 Q22.0542 1024.82 14.5426 1020.01 L14.5426 1014.92 Z" fill="#000000" fill-rule="nonzero" fill-opacity="1" /><path clip-path="url(#clip880)" d="M14.479 1003.56 L14.479 997.702 L64.0042 997.702 L64.0042 1003.56 L14.479 1003.56 Z" fill="#000000" fill-rule="nonzero" fill-opacity="1" /><path clip-path="url(#clip880)" d="M23.1363 961.608 L40.8648 961.608 L40.8648 943.88 L46.2757 943.88 L46.2757 961.608 L64.0042 961.608 L64.0042 966.956 L46.2757 966.956 L46.2757 984.684 L40.8648 984.684 L40.8648 966.956 L23.1363 966.956 L23.1363 961.608 Z" fill="#000000" fill-rule="nonzero" fill-opacity="1" /><path clip-path="url(#clip880)" d="M58.5933 928.889 L58.5933 918.385 L22.3406 918.385 L24.6323 929.812 L18.7758 929.812 L16.4842 918.449 L16.4842 912.019 L58.5933 912.019 L58.5933 901.516 L64.0042 901.516 L64.0042 928.889 L58.5933 928.889 Z" fill="#000000" fill-rule="nonzero" fill-opacity="1" /><path clip-path="url(#clip880)" d="M14.5426 890.281 L14.5426 885.188 Q22.0542 880.414 29.2474 878.058 Q36.4406 875.671 43.5384 875.671 Q50.668 875.671 57.8931 878.058 Q65.1182 880.414 72.5979 885.188 L72.5979 890.281 Q65.3091 886.047 58.1159 883.979 Q50.8908 881.878 43.5384 881.878 Q36.186 881.878 29.0246 883.979 Q21.8632 886.047 14.5426 890.281 Z" fill="#000000" fill-rule="nonzero" fill-opacity="1" /><path clip-path="url(#clip880)" d="M20.1444 807.367 L26.9239 807.367 Q23.9002 810.614 22.4043 814.306 Q20.9083 817.966 20.9083 822.104 Q20.9083 830.252 25.9054 834.581 Q30.8707 838.909 40.2919 838.909 Q49.6813 838.909 54.6784 834.581 Q59.6436 830.252 59.6436 822.104 Q59.6436 817.966 58.1477 814.306 Q56.6518 810.614 53.6281 807.367 L60.3439 807.367 Q62.6355 810.741 63.7814 814.529 Q64.9272 818.284 64.9272 822.486 Q64.9272 833.276 58.3387 839.482 Q51.7183 845.689 40.2919 845.689 Q28.8336 845.689 22.2451 839.482 Q15.6248 833.276 15.6248 822.486 Q15.6248 818.221 16.7706 814.465 Q17.8846 810.677 20.1444 807.367 Z" fill="#000000" fill-rule="nonzero" fill-opacity="1" /><path clip-path="url(#clip880)" d="M36.2815 799.951 L36.2815 796.259 L64.0042 796.259 L64.0042 799.951 L36.2815 799.951 Z" fill="#000000" fill-rule="nonzero" fill-opacity="1" /><path clip-path="url(#clip880)" d="M16.4842 755.741 L16.4842 750.331 L70.0516 766.881 L70.0516 772.292 L16.4842 755.741 Z" fill="#000000" fill-rule="nonzero" fill-opacity="1" /><path clip-path="url(#clip880)" d="M58.5933 717.102 L58.5933 694.662 L64.0042 694.662 L64.0042 724.836 L58.5933 724.836 Q54.8057 721.176 48.44 714.874 Q42.0425 708.54 40.1964 706.916 Q36.7271 703.829 34.34 702.62 Q31.921 701.378 29.5975 701.378 Q25.8099 701.378 23.4228 704.052 Q21.0356 706.694 21.0356 710.959 Q21.0356 713.982 22.086 717.356 Q23.1363 720.698 25.2688 724.518 L18.7758 724.518 Q17.2162 720.635 16.4205 717.261 Q15.6248 713.887 15.6248 711.086 Q15.6248 703.702 19.3169 699.309 Q23.009 694.917 29.1837 694.917 Q32.112 694.917 34.7537 696.031 Q37.3637 697.113 40.9285 700.01 Q41.8515 700.805 46.2757 705.07 Q50.668 709.335 58.5933 717.102 Z" fill="#000000" fill-rule="nonzero" fill-opacity="1" /><path clip-path="url(#clip880)" d="M28.3562 685.782 L28.3562 651.63 L34.2127 651.63 L34.2127 656.118 L56.1107 656.118 Q58.4023 656.118 59.4208 655.354 Q60.4075 654.558 60.4075 652.808 Q60.4075 652.33 60.3439 651.63 Q60.2484 650.93 60.2166 650.707 L64.4498 650.707 Q64.8635 651.821 65.0545 652.999 Q65.2455 654.177 65.2455 655.354 Q65.2455 659.174 63.1766 660.638 Q61.0759 662.102 55.4741 662.102 L34.2127 662.102 L34.2127 675.247 L64.0042 675.247 L64.0042 681.231 L34.2127 681.231 L34.2127 685.782 L28.3562 685.782 Z" fill="#000000" fill-rule="nonzero" fill-opacity="1" /><path clip-path="url(#clip880)" d="M14.5426 607.961 Q21.8632 612.227 29.0246 614.295 Q36.186 616.364 43.5384 616.364 Q50.8908 616.364 58.1159 614.295 Q65.3091 612.195 72.5979 607.961 L72.5979 613.054 Q65.1182 617.828 57.8931 620.215 Q50.668 622.571 43.5384 622.571 Q36.4406 622.571 29.2474 620.215 Q22.0542 617.86 14.5426 613.054 L14.5426 607.961 Z" fill="#000000" fill-rule="nonzero" fill-opacity="1" /><path clip-path="url(#clip880)" d="M77.5631 597.203 L28.3562 597.203 L28.3562 591.347 L50.5089 591.347 Q55.124 591.347 57.4793 589.151 Q59.8346 586.955 59.8346 582.658 Q59.8346 577.947 57.161 575.592 Q54.4874 573.205 49.1402 573.205 L28.3562 573.205 L28.3562 567.348 L55.7924 567.348 Q57.7021 567.348 58.6251 566.807 Q59.5163 566.234 59.5163 565.057 Q59.5163 564.77 59.3572 564.261 Q59.1662 563.752 58.7843 562.86 L63.4949 562.86 Q64.227 564.165 64.5771 565.343 Q64.9272 566.489 64.9272 567.603 Q64.9272 569.799 63.6859 571.104 Q62.4446 572.409 59.8983 572.886 Q62.4127 574.478 63.6859 576.801 Q64.9272 579.093 64.9272 582.212 Q64.9272 585.459 63.6859 587.75 Q62.4446 590.01 59.9619 591.347 L77.5631 591.347 L77.5631 597.203 Z" fill="#000000" fill-rule="nonzero" fill-opacity="1" /><path clip-path="url(#clip880)" d="M16.4842 554.871 L16.4842 548.442 L36.568 548.442 L16.4842 527.117 L16.4842 518.842 L38.6368 542.427 L64.0042 517.155 L64.0042 525.621 L41.1194 548.442 L64.0042 548.442 L64.0042 554.871 L16.4842 554.871 Z" fill="#000000" fill-rule="nonzero" fill-opacity="1" /><path clip-path="url(#clip880)" d="M16.4842 488.095 L34.2127 470.812 L34.2127 477.21 L21.6404 491.214 L34.2127 505.219 L34.2127 511.617 L16.4842 494.334 L16.4842 488.095 Z" fill="#000000" fill-rule="nonzero" fill-opacity="1" /><path clip-path="url(#clip880)" d="M58.5933 451.397 L58.5933 428.958 L64.0042 428.958 L64.0042 459.131 L58.5933 459.131 Q54.8057 455.471 48.44 449.169 Q42.0425 442.835 40.1964 441.212 Q36.7271 438.124 34.34 436.915 Q31.921 435.674 29.5975 435.674 Q25.8099 435.674 23.4228 438.347 Q21.0356 440.989 21.0356 445.254 Q21.0356 448.278 22.086 451.652 Q23.1363 454.994 25.2688 458.813 L18.7758 458.813 Q17.2162 454.93 16.4205 451.556 Q15.6248 448.182 15.6248 445.381 Q15.6248 437.997 19.3169 433.605 Q23.009 429.212 29.1837 429.212 Q32.112 429.212 34.7537 430.326 Q37.3637 431.409 40.9285 434.305 Q41.8515 435.101 46.2757 439.366 Q50.668 443.631 58.5933 451.397 Z" fill="#000000" fill-rule="nonzero" fill-opacity="1" /><path clip-path="url(#clip880)" d="M14.5426 417.213 L14.5426 412.121 Q22.0542 407.346 29.2474 404.991 Q36.4406 402.604 43.5384 402.604 Q50.668 402.604 57.8931 404.991 Q65.1182 407.346 72.5979 412.121 L72.5979 417.213 Q65.3091 412.98 58.1159 410.911 Q50.8908 408.81 43.5384 408.81 Q36.186 408.81 29.0246 410.911 Q21.8632 412.98 14.5426 417.213 Z" fill="#000000" fill-rule="nonzero" fill-opacity="1" /><polyline clip-path="url(#clip881)" style="stroke:#009af9; stroke-linecap:round; stroke-linejoin:round; stroke-width:4; stroke-opacity:1; fill:none" points="324.52,1384.24 344.41,1364.89 364.301,1327.78 384.191,1283.08 404.082,1232.67 423.972,1177.13 443.863,1116.45 463.753,1050.51 483.644,979.162 503.534,902.953 523.425,822.531 543.315,738.623 563.206,652.701 583.096,566.464 602.987,481.746 622.877,400.522 642.768,324.9 662.658,256.915 682.549,198.337 702.439,150.749 722.33,115.551 742.22,93.8104 762.111,86.1857 782.002,92.8957 801.892,113.717 821.783,148.037 841.673,194.869 861.564,252.877 881.454,320.402 901.345,395.552 921.235,476.253 941.126,560.344 961.016,645.612 980.907,729.902 1000.8,811.182 1020.69,887.602 1040.58,957.544 1060.47,1019.65 1080.36,1072.89 1100.25,1116.57 1120.14,1150.36 1140.03,1174.25 1159.92,1188.56 1179.81,1193.92 1199.7,1191.21 1219.59,1181.53 1239.48,1166.15 1259.37,1146.45 1279.26,1123.87 1299.16,1099.85 1319.05,1075.77 1338.94,1052.92 1358.83,1032.44 1378.72,1015.29 1398.61,1002.2 1418.5,993.71 1438.39,990.101 1458.28,991.431 1478.17,997.538 1498.06,1008.04 1517.95,1022.38 1537.84,1039.86 1557.73,1059.66 1577.62,1080.88 1597.51,1102.59 1617.4,1123.88 1637.29,1143.85 1657.18,1161.72 1677.07,1176.79 1696.97,1188.49 1716.86,1196.43 1736.75,1200.35 1756.64,1200.2 1776.53,1196.07 1796.42,1188.22 1816.31,1177.07 1836.2,1163.14 1856.09,1147.09 1875.98,1129.63 1895.87,1111.54 1915.76,1093.59 1935.65,1076.59 1955.54,1061.25 1975.43,1048.25 1995.32,1038.18 2015.21,1031.52 2035.1,1028.61 2054.99,1029.66 2074.89,1034.77 2094.78,1043.89 2114.67,1056.82 2134.56,1073.25 2154.45,1092.77 2174.34,1114.88 2194.23,1139 2214.12,1164.49 2234.01,1190.72 2253.9,1217.04 2273.79,1242.8 2293.68,1267.43 "/>
</svg>
