<?xml version="1.0" encoding="utf-8"?>
<svg xmlns="http://www.w3.org/2000/svg" xmlns:xlink="http://www.w3.org/1999/xlink" width="800" height="400" viewBox="0 0 3200 1600">
<defs>
  <clipPath id="clip260">
    <rect x="0" y="0" width="3200" height="1600"/>
  </clipPath>
</defs>
<path clip-path="url(#clip260)" d="M0 1600 L3200 1600 L3200 0 L0 0  Z" fill="#ffffff" fill-rule="evenodd" fill-opacity="1"/>
<defs>
  <clipPath id="clip261">
    <rect x="364" y="47" width="2789" height="1449"/>
  </clipPath>
</defs>
<path clip-path="url(#clip260)" d="M364.733 1495.09 L3152.76 1495.09 L3152.76 47.2441 L364.733 47.2441  Z" fill="#ffffff" fill-rule="evenodd" fill-opacity="1"/>
<polyline clip-path="url(#clip261)" style="stroke:#000000; stroke-linecap:round; stroke-linejoin:round; stroke-width:2; stroke-opacity:0.1; fill:none" points="735.885,1495.09 735.885,47.2441 "/>
<polyline clip-path="url(#clip261)" style="stroke:#000000; stroke-linecap:round; stroke-linejoin:round; stroke-width:2; stroke-opacity:0.1; fill:none" points="1758.74,1495.09 1758.74,47.2441 "/>
<polyline clip-path="url(#clip261)" style="stroke:#000000; stroke-linecap:round; stroke-linejoin:round; stroke-width:2; stroke-opacity:0.1; fill:none" points="2781.6,1495.09 2781.6,47.2441 "/>
<polyline clip-path="url(#clip261)" style="stroke:#000000; stroke-linecap:round; stroke-linejoin:round; stroke-width:2; stroke-opacity:0.1; fill:none" points="364.733,1388.52 3152.76,1388.52 "/>
<polyline clip-path="url(#clip261)" style="stroke:#000000; stroke-linecap:round; stroke-linejoin:round; stroke-width:2; stroke-opacity:0.1; fill:none" points="364.733,1149.95 3152.76,1149.95 "/>
<polyline clip-path="url(#clip261)" style="stroke:#000000; stroke-linecap:round; stroke-linejoin:round; stroke-width:2; stroke-opacity:0.1; fill:none" points="364.733,911.39 3152.76,911.39 "/>
<polyline clip-path="url(#clip261)" style="stroke:#000000; stroke-linecap:round; stroke-linejoin:round; stroke-width:2; stroke-opacity:0.1; fill:none" points="364.733,672.826 3152.76,672.826 "/>
<polyline clip-path="url(#clip261)" style="stroke:#000000; stroke-linecap:round; stroke-linejoin:round; stroke-width:2; stroke-opacity:0.1; fill:none" points="364.733,434.262 3152.76,434.262 "/>
<polyline clip-path="url(#clip261)" style="stroke:#000000; stroke-linecap:round; stroke-linejoin:round; stroke-width:2; stroke-opacity:0.1; fill:none" points="364.733,195.698 3152.76,195.698 "/>
<polyline clip-path="url(#clip260)" style="stroke:#000000; stroke-linecap:round; stroke-linejoin:round; stroke-width:4; stroke-opacity:1; fill:none" points="364.733,1495.09 3152.76,1495.09 "/>
<polyline clip-path="url(#clip260)" style="stroke:#000000; stroke-linecap:round; stroke-linejoin:round; stroke-width:4; stroke-opacity:1; fill:none" points="735.885,1495.09 735.885,1476.19 "/>
<polyline clip-path="url(#clip260)" style="stroke:#000000; stroke-linecap:round; stroke-linejoin:round; stroke-width:4; stroke-opacity:1; fill:none" points="1758.74,1495.09 1758.74,1476.19 "/>
<polyline clip-path="url(#clip260)" style="stroke:#000000; stroke-linecap:round; stroke-linejoin:round; stroke-width:4; stroke-opacity:1; fill:none" points="2781.6,1495.09 2781.6,1476.19 "/>
<path clip-path="url(#clip260)" d="M651.846 1538.73 L651.846 1542.75 Q650.04 1541.83 648.096 1541.36 Q646.151 1540.9 644.068 1540.9 Q640.897 1540.9 639.299 1541.87 Q637.725 1542.85 637.725 1544.79 Q637.725 1546.27 638.86 1547.13 Q639.994 1547.96 643.42 1548.73 L644.878 1549.05 Q649.415 1550.02 651.313 1551.8 Q653.235 1553.56 653.235 1556.74 Q653.235 1560.35 650.364 1562.45 Q647.517 1564.56 642.517 1564.56 Q640.434 1564.56 638.165 1564.14 Q635.92 1563.75 633.42 1562.94 L633.42 1558.54 Q635.781 1559.77 638.073 1560.39 Q640.364 1560.99 642.61 1560.99 Q645.619 1560.99 647.239 1559.98 Q648.86 1558.93 648.86 1557.06 Q648.86 1555.32 647.679 1554.4 Q646.522 1553.47 642.563 1552.61 L641.082 1552.27 Q637.123 1551.43 635.364 1549.72 Q633.605 1547.99 633.605 1544.98 Q633.605 1541.32 636.198 1539.33 Q638.79 1537.34 643.559 1537.34 Q645.92 1537.34 648.003 1537.68 Q650.086 1538.03 651.846 1538.73 Z" fill="#000000" fill-rule="nonzero" fill-opacity="1" /><path clip-path="url(#clip260)" d="M670.804 1566.3 Q668.998 1570.92 667.285 1572.34 Q665.572 1573.75 662.702 1573.75 L659.299 1573.75 L659.299 1570.18 L661.799 1570.18 Q663.559 1570.18 664.531 1569.35 Q665.503 1568.52 666.684 1565.42 L667.447 1563.47 L656.961 1537.96 L661.475 1537.96 L669.577 1558.24 L677.679 1537.96 L682.193 1537.96 L670.804 1566.3 Z" fill="#000000" fill-rule="nonzero" fill-opacity="1" /><path clip-path="url(#clip260)" d="M708.257 1542.94 Q709.855 1540.07 712.077 1538.7 Q714.299 1537.34 717.308 1537.34 Q721.359 1537.34 723.558 1540.18 Q725.757 1543.01 725.757 1548.24 L725.757 1563.89 L721.475 1563.89 L721.475 1548.38 Q721.475 1544.65 720.155 1542.85 Q718.836 1541.04 716.128 1541.04 Q712.818 1541.04 710.896 1543.24 Q708.975 1545.44 708.975 1549.24 L708.975 1563.89 L704.693 1563.89 L704.693 1548.38 Q704.693 1544.63 703.373 1542.85 Q702.054 1541.04 699.299 1541.04 Q696.035 1541.04 694.114 1543.26 Q692.193 1545.46 692.193 1549.24 L692.193 1563.89 L687.91 1563.89 L687.91 1537.96 L692.193 1537.96 L692.193 1541.99 Q693.651 1539.61 695.688 1538.47 Q697.725 1537.34 700.526 1537.34 Q703.35 1537.34 705.318 1538.77 Q707.308 1540.21 708.257 1542.94 Z" fill="#000000" fill-rule="nonzero" fill-opacity="1" /><path clip-path="url(#clip260)" d="M752.864 1550.95 Q752.864 1546.25 750.919 1543.59 Q748.998 1540.9 745.618 1540.9 Q742.239 1540.9 740.294 1543.59 Q738.373 1546.25 738.373 1550.95 Q738.373 1555.65 740.294 1558.33 Q742.239 1560.99 745.618 1560.99 Q748.998 1560.99 750.919 1558.33 Q752.864 1555.65 752.864 1550.95 M738.373 1541.9 Q739.716 1539.58 741.753 1538.47 Q743.813 1537.34 746.66 1537.34 Q751.382 1537.34 754.322 1541.09 Q757.285 1544.84 757.285 1550.95 Q757.285 1557.06 754.322 1560.81 Q751.382 1564.56 746.66 1564.56 Q743.813 1564.56 741.753 1563.45 Q739.716 1562.31 738.373 1560 L738.373 1563.89 L734.091 1563.89 L734.091 1527.87 L738.373 1527.87 L738.373 1541.9 Z" fill="#000000" fill-rule="nonzero" fill-opacity="1" /><path clip-path="url(#clip260)" d="M774.391 1540.95 Q770.965 1540.95 768.975 1543.63 Q766.984 1546.3 766.984 1550.95 Q766.984 1555.6 768.951 1558.29 Q770.942 1560.95 774.391 1560.95 Q777.794 1560.95 779.785 1558.26 Q781.775 1555.58 781.775 1550.95 Q781.775 1546.34 779.785 1543.66 Q777.794 1540.95 774.391 1540.95 M774.391 1537.34 Q779.947 1537.34 783.118 1540.95 Q786.289 1544.56 786.289 1550.95 Q786.289 1557.31 783.118 1560.95 Q779.947 1564.56 774.391 1564.56 Q768.813 1564.56 765.641 1560.95 Q762.493 1557.31 762.493 1550.95 Q762.493 1544.56 765.641 1540.95 Q768.813 1537.34 774.391 1537.34 Z" fill="#000000" fill-rule="nonzero" fill-opacity="1" /><path clip-path="url(#clip260)" d="M793.349 1527.87 L797.609 1527.87 L797.609 1563.89 L793.349 1563.89 L793.349 1527.87 Z" fill="#000000" fill-rule="nonzero" fill-opacity="1" /><path clip-path="url(#clip260)" d="M806.521 1537.96 L810.78 1537.96 L810.78 1563.89 L806.521 1563.89 L806.521 1537.96 M806.521 1527.87 L810.78 1527.87 L810.78 1533.26 L806.521 1533.26 L806.521 1527.87 Z" fill="#000000" fill-rule="nonzero" fill-opacity="1" /><path clip-path="url(#clip260)" d="M838.349 1538.96 L838.349 1542.94 Q836.544 1541.94 834.715 1541.46 Q832.909 1540.95 831.058 1540.95 Q826.914 1540.95 824.622 1543.59 Q822.331 1546.2 822.331 1550.95 Q822.331 1555.69 824.622 1558.33 Q826.914 1560.95 831.058 1560.95 Q832.909 1560.95 834.715 1560.46 Q836.544 1559.95 838.349 1558.96 L838.349 1562.89 Q836.567 1563.73 834.646 1564.14 Q832.747 1564.56 830.595 1564.56 Q824.738 1564.56 821.289 1560.88 Q817.84 1557.2 817.84 1550.95 Q817.84 1544.61 821.312 1540.97 Q824.808 1537.34 830.872 1537.34 Q832.84 1537.34 834.715 1537.75 Q836.59 1538.15 838.349 1538.96 Z" fill="#000000" fill-rule="nonzero" fill-opacity="1" /><path clip-path="url(#clip260)" d="M1669.07 1527.87 L1669.07 1531.41 L1664.99 1531.41 Q1662.7 1531.41 1661.8 1532.34 Q1660.92 1533.26 1660.92 1535.67 L1660.92 1537.96 L1667.93 1537.96 L1667.93 1541.27 L1660.92 1541.27 L1660.92 1563.89 L1656.64 1563.89 L1656.64 1541.27 L1652.56 1541.27 L1652.56 1537.96 L1656.64 1537.96 L1656.64 1536.16 Q1656.64 1531.83 1658.65 1529.86 Q1660.67 1527.87 1665.04 1527.87 L1669.07 1527.87 Z" fill="#000000" fill-rule="nonzero" fill-opacity="1" /><path clip-path="url(#clip260)" d="M1672.63 1537.96 L1676.89 1537.96 L1676.89 1563.89 L1672.63 1563.89 L1672.63 1537.96 M1672.63 1527.87 L1676.89 1527.87 L1676.89 1533.26 L1672.63 1533.26 L1672.63 1527.87 Z" fill="#000000" fill-rule="nonzero" fill-opacity="1" /><path clip-path="url(#clip260)" d="M1707.36 1548.24 L1707.36 1563.89 L1703.1 1563.89 L1703.1 1548.38 Q1703.1 1544.7 1701.66 1542.87 Q1700.23 1541.04 1697.36 1541.04 Q1693.91 1541.04 1691.92 1543.24 Q1689.93 1545.44 1689.93 1549.24 L1689.93 1563.89 L1685.64 1563.89 L1685.64 1537.96 L1689.93 1537.96 L1689.93 1541.99 Q1691.45 1539.65 1693.51 1538.49 Q1695.6 1537.34 1698.3 1537.34 Q1702.77 1537.34 1705.06 1540.11 Q1707.36 1542.87 1707.36 1548.24 Z" fill="#000000" fill-rule="nonzero" fill-opacity="1" /><path clip-path="url(#clip260)" d="M1715.85 1537.96 L1720.11 1537.96 L1720.11 1563.89 L1715.85 1563.89 L1715.85 1537.96 M1715.85 1527.87 L1720.11 1527.87 L1720.11 1533.26 L1715.85 1533.26 L1715.85 1527.87 Z" fill="#000000" fill-rule="nonzero" fill-opacity="1" /><path clip-path="url(#clip260)" d="M1733.24 1530.6 L1733.24 1537.96 L1742.01 1537.96 L1742.01 1541.27 L1733.24 1541.27 L1733.24 1555.35 Q1733.24 1558.52 1734.09 1559.42 Q1734.97 1560.32 1737.63 1560.32 L1742.01 1560.32 L1742.01 1563.89 L1737.63 1563.89 Q1732.7 1563.89 1730.83 1562.06 Q1728.95 1560.21 1728.95 1555.35 L1728.95 1541.27 L1725.83 1541.27 L1725.83 1537.96 L1728.95 1537.96 L1728.95 1530.6 L1733.24 1530.6 Z" fill="#000000" fill-rule="nonzero" fill-opacity="1" /><path clip-path="url(#clip260)" d="M1769.79 1549.86 L1769.79 1551.94 L1750.2 1551.94 Q1750.48 1556.34 1752.84 1558.66 Q1755.23 1560.95 1759.46 1560.95 Q1761.92 1560.95 1764.21 1560.35 Q1766.52 1559.74 1768.79 1558.54 L1768.79 1562.57 Q1766.5 1563.54 1764.09 1564.05 Q1761.68 1564.56 1759.21 1564.56 Q1753 1564.56 1749.37 1560.95 Q1745.76 1557.34 1745.76 1551.18 Q1745.76 1544.81 1749.18 1541.09 Q1752.63 1537.34 1758.47 1537.34 Q1763.7 1537.34 1766.73 1540.72 Q1769.79 1544.07 1769.79 1549.86 M1765.53 1548.61 Q1765.48 1545.11 1763.56 1543.03 Q1761.66 1540.95 1758.51 1540.95 Q1754.95 1540.95 1752.8 1542.96 Q1750.67 1544.98 1750.34 1548.63 L1765.53 1548.61 Z" fill="#000000" fill-rule="nonzero" fill-opacity="1" /><path clip-path="url(#clip260)" d="M1808.91 1541.9 L1808.91 1527.87 L1813.17 1527.87 L1813.17 1563.89 L1808.91 1563.89 L1808.91 1560 Q1807.56 1562.31 1805.5 1563.45 Q1803.47 1564.56 1800.6 1564.56 Q1795.9 1564.56 1792.93 1560.81 Q1789.99 1557.06 1789.99 1550.95 Q1789.99 1544.84 1792.93 1541.09 Q1795.9 1537.34 1800.6 1537.34 Q1803.47 1537.34 1805.5 1538.47 Q1807.56 1539.58 1808.91 1541.9 M1794.39 1550.95 Q1794.39 1555.65 1796.31 1558.33 Q1798.26 1560.99 1801.64 1560.99 Q1805.02 1560.99 1806.96 1558.33 Q1808.91 1555.65 1808.91 1550.95 Q1808.91 1546.25 1806.96 1543.59 Q1805.02 1540.9 1801.64 1540.9 Q1798.26 1540.9 1796.31 1543.59 Q1794.39 1546.25 1794.39 1550.95 Z" fill="#000000" fill-rule="nonzero" fill-opacity="1" /><path clip-path="url(#clip260)" d="M1821.94 1537.96 L1826.2 1537.96 L1826.2 1563.89 L1821.94 1563.89 L1821.94 1537.96 M1821.94 1527.87 L1826.2 1527.87 L1826.2 1533.26 L1821.94 1533.26 L1821.94 1527.87 Z" fill="#000000" fill-rule="nonzero" fill-opacity="1" /><path clip-path="url(#clip260)" d="M1848.23 1527.87 L1848.23 1531.41 L1844.16 1531.41 Q1841.87 1531.41 1840.97 1532.34 Q1840.09 1533.26 1840.09 1535.67 L1840.09 1537.96 L1847.1 1537.96 L1847.1 1541.27 L1840.09 1541.27 L1840.09 1563.89 L1835.8 1563.89 L1835.8 1541.27 L1831.73 1541.27 L1831.73 1537.96 L1835.8 1537.96 L1835.8 1536.16 Q1835.8 1531.83 1837.82 1529.86 Q1839.83 1527.87 1844.21 1527.87 L1848.23 1527.87 Z" fill="#000000" fill-rule="nonzero" fill-opacity="1" /><path clip-path="url(#clip260)" d="M1864.92 1527.87 L1864.92 1531.41 L1860.85 1531.41 Q1858.56 1531.41 1857.66 1532.34 Q1856.78 1533.26 1856.78 1535.67 L1856.78 1537.96 L1863.79 1537.96 L1863.79 1541.27 L1856.78 1541.27 L1856.78 1563.89 L1852.49 1563.89 L1852.49 1541.27 L1848.42 1541.27 L1848.42 1537.96 L1852.49 1537.96 L1852.49 1536.16 Q1852.49 1531.83 1854.51 1529.86 Q1856.52 1527.87 1860.9 1527.87 L1864.92 1527.87 Z" fill="#000000" fill-rule="nonzero" fill-opacity="1" /><path clip-path="url(#clip260)" d="M2661.47 1527.87 L2661.47 1531.41 L2657.39 1531.41 Q2655.1 1531.41 2654.2 1532.34 Q2653.32 1533.26 2653.32 1535.67 L2653.32 1537.96 L2660.33 1537.96 L2660.33 1541.27 L2653.32 1541.27 L2653.32 1563.89 L2649.04 1563.89 L2649.04 1541.27 L2644.96 1541.27 L2644.96 1537.96 L2649.04 1537.96 L2649.04 1536.16 Q2649.04 1531.83 2651.05 1529.86 Q2653.06 1527.87 2657.44 1527.87 L2661.47 1527.87 Z" fill="#000000" fill-rule="nonzero" fill-opacity="1" /><path clip-path="url(#clip260)" d="M2675.08 1540.95 Q2671.65 1540.95 2669.66 1543.63 Q2667.67 1546.3 2667.67 1550.95 Q2667.67 1555.6 2669.64 1558.29 Q2671.63 1560.95 2675.08 1560.95 Q2678.48 1560.95 2680.47 1558.26 Q2682.46 1555.58 2682.46 1550.95 Q2682.46 1546.34 2680.47 1543.66 Q2678.48 1540.95 2675.08 1540.95 M2675.08 1537.34 Q2680.63 1537.34 2683.8 1540.95 Q2686.97 1544.56 2686.97 1550.95 Q2686.97 1557.31 2683.8 1560.95 Q2680.63 1564.56 2675.08 1564.56 Q2669.5 1564.56 2666.33 1560.95 Q2663.18 1557.31 2663.18 1550.95 Q2663.18 1544.56 2666.33 1540.95 Q2669.5 1537.34 2675.08 1537.34 Z" fill="#000000" fill-rule="nonzero" fill-opacity="1" /><path clip-path="url(#clip260)" d="M2709.06 1541.94 Q2708.34 1541.53 2707.48 1541.34 Q2706.65 1541.13 2705.63 1541.13 Q2702.02 1541.13 2700.08 1543.49 Q2698.16 1545.83 2698.16 1550.23 L2698.16 1563.89 L2693.87 1563.89 L2693.87 1537.96 L2698.16 1537.96 L2698.16 1541.99 Q2699.5 1539.63 2701.65 1538.49 Q2703.8 1537.34 2706.88 1537.34 Q2707.32 1537.34 2707.85 1537.41 Q2708.39 1537.45 2709.03 1537.57 L2709.06 1541.94 Z" fill="#000000" fill-rule="nonzero" fill-opacity="1" /><path clip-path="url(#clip260)" d="M2711.05 1537.96 L2715.31 1537.96 L2720.63 1558.19 L2725.93 1537.96 L2730.96 1537.96 L2736.28 1558.19 L2741.58 1537.96 L2745.84 1537.96 L2739.06 1563.89 L2734.03 1563.89 L2728.46 1542.64 L2722.85 1563.89 L2717.83 1563.89 L2711.05 1537.96 Z" fill="#000000" fill-rule="nonzero" fill-opacity="1" /><path clip-path="url(#clip260)" d="M2764.08 1550.86 Q2758.92 1550.86 2756.93 1552.04 Q2754.94 1553.22 2754.94 1556.06 Q2754.94 1558.33 2756.42 1559.67 Q2757.92 1560.99 2760.49 1560.99 Q2764.03 1560.99 2766.16 1558.49 Q2768.32 1555.97 2768.32 1551.8 L2768.32 1550.86 L2764.08 1550.86 M2772.58 1549.1 L2772.58 1563.89 L2768.32 1563.89 L2768.32 1559.95 Q2766.86 1562.31 2764.68 1563.45 Q2762.51 1564.56 2759.36 1564.56 Q2755.38 1564.56 2753.02 1562.34 Q2750.68 1560.09 2750.68 1556.34 Q2750.68 1551.97 2753.59 1549.74 Q2756.53 1547.52 2762.34 1547.52 L2768.32 1547.52 L2768.32 1547.11 Q2768.32 1544.17 2766.37 1542.57 Q2764.45 1540.95 2760.96 1540.95 Q2758.73 1540.95 2756.63 1541.48 Q2754.52 1542.01 2752.58 1543.08 L2752.58 1539.14 Q2754.91 1538.24 2757.11 1537.8 Q2759.31 1537.34 2761.4 1537.34 Q2767.02 1537.34 2769.8 1540.25 Q2772.58 1543.17 2772.58 1549.1 Z" fill="#000000" fill-rule="nonzero" fill-opacity="1" /><path clip-path="url(#clip260)" d="M2796.37 1541.94 Q2795.65 1541.53 2794.8 1541.34 Q2793.96 1541.13 2792.95 1541.13 Q2789.34 1541.13 2787.39 1543.49 Q2785.47 1545.83 2785.47 1550.23 L2785.47 1563.89 L2781.19 1563.89 L2781.19 1537.96 L2785.47 1537.96 L2785.47 1541.99 Q2786.81 1539.63 2788.97 1538.49 Q2791.12 1537.34 2794.2 1537.34 Q2794.64 1537.34 2795.17 1537.41 Q2795.7 1537.45 2796.35 1537.57 L2796.37 1541.94 Z" fill="#000000" fill-rule="nonzero" fill-opacity="1" /><path clip-path="url(#clip260)" d="M2817.07 1541.9 L2817.07 1527.87 L2821.33 1527.87 L2821.33 1563.89 L2817.07 1563.89 L2817.07 1560 Q2815.72 1562.31 2813.66 1563.45 Q2811.63 1564.56 2808.76 1564.56 Q2804.06 1564.56 2801.09 1560.81 Q2798.15 1557.06 2798.15 1550.95 Q2798.15 1544.84 2801.09 1541.09 Q2804.06 1537.34 2808.76 1537.34 Q2811.63 1537.34 2813.66 1538.47 Q2815.72 1539.58 2817.07 1541.9 M2802.55 1550.95 Q2802.55 1555.65 2804.47 1558.33 Q2806.42 1560.99 2809.8 1560.99 Q2813.18 1560.99 2815.12 1558.33 Q2817.07 1555.65 2817.07 1550.95 Q2817.07 1546.25 2815.12 1543.59 Q2813.18 1540.9 2809.8 1540.9 Q2806.42 1540.9 2804.47 1543.59 Q2802.55 1546.25 2802.55 1550.95 Z" fill="#000000" fill-rule="nonzero" fill-opacity="1" /><path clip-path="url(#clip260)" d="M2862.23 1541.9 L2862.23 1527.87 L2866.49 1527.87 L2866.49 1563.89 L2862.23 1563.89 L2862.23 1560 Q2860.89 1562.31 2858.83 1563.45 Q2856.79 1564.56 2853.92 1564.56 Q2849.22 1564.56 2846.26 1560.81 Q2843.32 1557.06 2843.32 1550.95 Q2843.32 1544.84 2846.26 1541.09 Q2849.22 1537.34 2853.92 1537.34 Q2856.79 1537.34 2858.83 1538.47 Q2860.89 1539.58 2862.23 1541.9 M2847.71 1550.95 Q2847.71 1555.65 2849.64 1558.33 Q2851.58 1560.99 2854.96 1560.99 Q2858.34 1560.99 2860.28 1558.33 Q2862.23 1555.65 2862.23 1550.95 Q2862.23 1546.25 2860.28 1543.59 Q2858.34 1540.9 2854.96 1540.9 Q2851.58 1540.9 2849.64 1543.59 Q2847.71 1546.25 2847.71 1550.95 Z" fill="#000000" fill-rule="nonzero" fill-opacity="1" /><path clip-path="url(#clip260)" d="M2875.26 1537.96 L2879.52 1537.96 L2879.52 1563.89 L2875.26 1563.89 L2875.26 1537.96 M2875.26 1527.87 L2879.52 1527.87 L2879.52 1533.26 L2875.26 1533.26 L2875.26 1527.87 Z" fill="#000000" fill-rule="nonzero" fill-opacity="1" /><path clip-path="url(#clip260)" d="M2901.56 1527.87 L2901.56 1531.41 L2897.48 1531.41 Q2895.19 1531.41 2894.29 1532.34 Q2893.41 1533.26 2893.41 1535.67 L2893.41 1537.96 L2900.42 1537.96 L2900.42 1541.27 L2893.41 1541.27 L2893.41 1563.89 L2889.13 1563.89 L2889.13 1541.27 L2885.05 1541.27 L2885.05 1537.96 L2889.13 1537.96 L2889.13 1536.16 Q2889.13 1531.83 2891.14 1529.86 Q2893.15 1527.87 2897.53 1527.87 L2901.56 1527.87 Z" fill="#000000" fill-rule="nonzero" fill-opacity="1" /><path clip-path="url(#clip260)" d="M2918.25 1527.87 L2918.25 1531.41 L2914.17 1531.41 Q2911.88 1531.41 2910.98 1532.34 Q2910.1 1533.26 2910.1 1535.67 L2910.1 1537.96 L2917.11 1537.96 L2917.11 1541.27 L2910.1 1541.27 L2910.1 1563.89 L2905.82 1563.89 L2905.82 1541.27 L2901.74 1541.27 L2901.74 1537.96 L2905.82 1537.96 L2905.82 1536.16 Q2905.82 1531.83 2907.83 1529.86 Q2909.84 1527.87 2914.22 1527.87 L2918.25 1527.87 Z" fill="#000000" fill-rule="nonzero" fill-opacity="1" /><polyline clip-path="url(#clip260)" style="stroke:#000000; stroke-linecap:round; stroke-linejoin:round; stroke-width:4; stroke-opacity:1; fill:none" points="364.733,1495.09 364.733,47.2441 "/>
<polyline clip-path="url(#clip260)" style="stroke:#000000; stroke-linecap:round; stroke-linejoin:round; stroke-width:4; stroke-opacity:1; fill:none" points="364.733,1388.52 383.63,1388.52 "/>
<polyline clip-path="url(#clip260)" style="stroke:#000000; stroke-linecap:round; stroke-linejoin:round; stroke-width:4; stroke-opacity:1; fill:none" points="364.733,1149.95 383.63,1149.95 "/>
<polyline clip-path="url(#clip260)" style="stroke:#000000; stroke-linecap:round; stroke-linejoin:round; stroke-width:4; stroke-opacity:1; fill:none" points="364.733,911.39 383.63,911.39 "/>
<polyline clip-path="url(#clip260)" style="stroke:#000000; stroke-linecap:round; stroke-linejoin:round; stroke-width:4; stroke-opacity:1; fill:none" points="364.733,672.826 383.63,672.826 "/>
<polyline clip-path="url(#clip260)" style="stroke:#000000; stroke-linecap:round; stroke-linejoin:round; stroke-width:4; stroke-opacity:1; fill:none" points="364.733,434.262 383.63,434.262 "/>
<polyline clip-path="url(#clip260)" style="stroke:#000000; stroke-linecap:round; stroke-linejoin:round; stroke-width:4; stroke-opacity:1; fill:none" points="364.733,195.698 383.63,195.698 "/>
<path clip-path="url(#clip260)" d="M100.137 1377.69 L118.493 1377.69 L118.493 1381.62 L104.419 1381.62 L104.419 1390.09 Q105.437 1389.75 106.456 1389.58 Q107.474 1389.4 108.493 1389.4 Q114.28 1389.4 117.66 1392.57 Q121.039 1395.74 121.039 1401.16 Q121.039 1406.74 117.567 1409.84 Q114.095 1412.92 107.775 1412.92 Q105.599 1412.92 103.331 1412.55 Q101.086 1412.18 98.6782 1411.43 L98.6782 1406.74 Q100.762 1407.87 102.984 1408.43 Q105.206 1408.98 107.683 1408.98 Q111.687 1408.98 114.025 1406.87 Q116.363 1404.77 116.363 1401.16 Q116.363 1397.55 114.025 1395.44 Q111.687 1393.33 107.683 1393.33 Q105.808 1393.33 103.933 1393.75 Q102.081 1394.17 100.137 1395.05 L100.137 1377.69 Z" fill="#000000" fill-rule="nonzero" fill-opacity="1" /><path clip-path="url(#clip260)" d="M130.252 1406.37 L135.136 1406.37 L135.136 1412.25 L130.252 1412.25 L130.252 1406.37 Z" fill="#000000" fill-rule="nonzero" fill-opacity="1" /><path clip-path="url(#clip260)" d="M155.321 1380.76 Q151.71 1380.76 149.882 1384.33 Q148.076 1387.87 148.076 1395 Q148.076 1402.11 149.882 1405.67 Q151.71 1409.21 155.321 1409.21 Q158.956 1409.21 160.761 1405.67 Q162.59 1402.11 162.59 1395 Q162.59 1387.87 160.761 1384.33 Q158.956 1380.76 155.321 1380.76 M155.321 1377.06 Q161.132 1377.06 164.187 1381.67 Q167.266 1386.25 167.266 1395 Q167.266 1403.73 164.187 1408.33 Q161.132 1412.92 155.321 1412.92 Q149.511 1412.92 146.433 1408.33 Q143.377 1403.73 143.377 1395 Q143.377 1386.25 146.433 1381.67 Q149.511 1377.06 155.321 1377.06 Z" fill="#000000" fill-rule="nonzero" fill-opacity="1" /><path clip-path="url(#clip260)" d="M185.483 1380.76 Q181.872 1380.76 180.043 1384.33 Q178.238 1387.87 178.238 1395 Q178.238 1402.11 180.043 1405.67 Q181.872 1409.21 185.483 1409.21 Q189.118 1409.21 190.923 1405.67 Q192.752 1402.11 192.752 1395 Q192.752 1387.87 190.923 1384.33 Q189.118 1380.76 185.483 1380.76 M185.483 1377.06 Q191.293 1377.06 194.349 1381.67 Q197.428 1386.25 197.428 1395 Q197.428 1403.73 194.349 1408.33 Q191.293 1412.92 185.483 1412.92 Q179.673 1412.92 176.594 1408.33 Q173.539 1403.73 173.539 1395 Q173.539 1386.25 176.594 1381.67 Q179.673 1377.06 185.483 1377.06 Z" fill="#000000" fill-rule="nonzero" fill-opacity="1" /><path clip-path="url(#clip260)" d="M233.816 1386.78 L223.238 1397.41 L233.816 1407.99 L231.062 1410.79 L220.437 1400.16 L209.812 1410.79 L207.08 1407.99 L217.636 1397.41 L207.08 1386.78 L209.812 1383.98 L220.437 1394.61 L231.062 1383.98 L233.816 1386.78 Z" fill="#000000" fill-rule="nonzero" fill-opacity="1" /><path clip-path="url(#clip260)" d="M246.177 1408.31 L253.816 1408.31 L253.816 1381.94 L245.506 1383.61 L245.506 1379.35 L253.77 1377.69 L258.446 1377.69 L258.446 1408.31 L266.085 1408.31 L266.085 1412.25 L246.177 1412.25 L246.177 1408.31 Z" fill="#000000" fill-rule="nonzero" fill-opacity="1" /><path clip-path="url(#clip260)" d="M285.529 1380.76 Q281.918 1380.76 280.089 1384.33 Q278.284 1387.87 278.284 1395 Q278.284 1402.11 280.089 1405.67 Q281.918 1409.21 285.529 1409.21 Q289.163 1409.21 290.969 1405.67 Q292.798 1402.11 292.798 1395 Q292.798 1387.87 290.969 1384.33 Q289.163 1380.76 285.529 1380.76 M285.529 1377.06 Q291.339 1377.06 294.395 1381.67 Q297.473 1386.25 297.473 1395 Q297.473 1403.73 294.395 1408.33 Q291.339 1412.92 285.529 1412.92 Q279.719 1412.92 276.64 1408.33 Q273.585 1403.73 273.585 1395 Q273.585 1386.25 276.64 1381.67 Q279.719 1377.06 285.529 1377.06 Z" fill="#000000" fill-rule="nonzero" fill-opacity="1" /><path clip-path="url(#clip260)" d="M307.103 1371.5 Q304.395 1371.5 302.834 1372.95 Q301.291 1374.4 301.291 1376.94 Q301.291 1379.47 302.834 1380.92 Q304.395 1382.37 307.103 1382.37 Q309.811 1382.37 311.372 1380.92 Q312.933 1379.46 312.933 1376.94 Q312.933 1374.4 311.372 1372.95 Q309.83 1371.5 307.103 1371.5 M303.304 1369.88 Q300.859 1369.28 299.486 1367.61 Q298.132 1365.93 298.132 1363.53 Q298.132 1360.16 300.52 1358.2 Q302.928 1356.25 307.103 1356.25 Q311.297 1356.25 313.686 1358.2 Q316.074 1360.16 316.074 1363.53 Q316.074 1365.93 314.701 1367.61 Q313.347 1369.28 310.921 1369.88 Q313.667 1370.52 315.19 1372.38 Q316.733 1374.25 316.733 1376.94 Q316.733 1381.02 314.231 1383.2 Q311.749 1385.38 307.103 1385.38 Q302.457 1385.38 299.956 1383.2 Q297.473 1381.02 297.473 1376.94 Q297.473 1374.25 299.016 1372.38 Q300.558 1370.52 303.304 1369.88 M301.912 1363.88 Q301.912 1366.06 303.266 1367.29 Q304.639 1368.51 307.103 1368.51 Q309.548 1368.51 310.921 1367.29 Q312.313 1366.06 312.313 1363.88 Q312.313 1361.7 310.921 1360.48 Q309.548 1359.26 307.103 1359.26 Q304.639 1359.26 303.266 1360.48 Q301.912 1361.7 301.912 1363.88 Z" fill="#000000" fill-rule="nonzero" fill-opacity="1" /><path clip-path="url(#clip260)" d="M100.788 1169.75 L108.426 1169.75 L108.426 1143.38 L100.116 1145.05 L100.116 1140.79 L108.38 1139.12 L113.056 1139.12 L113.056 1169.75 L120.695 1169.75 L120.695 1173.68 L100.788 1173.68 L100.788 1169.75 Z" fill="#000000" fill-rule="nonzero" fill-opacity="1" /><path clip-path="url(#clip260)" d="M130.139 1167.8 L135.023 1167.8 L135.023 1173.68 L130.139 1173.68 L130.139 1167.8 Z" fill="#000000" fill-rule="nonzero" fill-opacity="1" /><path clip-path="url(#clip260)" d="M155.209 1142.2 Q151.597 1142.2 149.769 1145.76 Q147.963 1149.31 147.963 1156.44 Q147.963 1163.54 149.769 1167.11 Q151.597 1170.65 155.209 1170.65 Q158.843 1170.65 160.648 1167.11 Q162.477 1163.54 162.477 1156.44 Q162.477 1149.31 160.648 1145.76 Q158.843 1142.2 155.209 1142.2 M155.209 1138.5 Q161.019 1138.5 164.074 1143.1 Q167.153 1147.69 167.153 1156.44 Q167.153 1165.16 164.074 1169.77 Q161.019 1174.35 155.209 1174.35 Q149.398 1174.35 146.32 1169.77 Q143.264 1165.16 143.264 1156.44 Q143.264 1147.69 146.32 1143.1 Q149.398 1138.5 155.209 1138.5 Z" fill="#000000" fill-rule="nonzero" fill-opacity="1" /><path clip-path="url(#clip260)" d="M185.37 1142.2 Q181.759 1142.2 179.931 1145.76 Q178.125 1149.31 178.125 1156.44 Q178.125 1163.54 179.931 1167.11 Q181.759 1170.65 185.37 1170.65 Q189.005 1170.65 190.81 1167.11 Q192.639 1163.54 192.639 1156.44 Q192.639 1149.31 190.81 1145.76 Q189.005 1142.2 185.37 1142.2 M185.37 1138.5 Q191.181 1138.5 194.236 1143.1 Q197.315 1147.69 197.315 1156.44 Q197.315 1165.16 194.236 1169.77 Q191.181 1174.35 185.37 1174.35 Q179.56 1174.35 176.482 1169.77 Q173.426 1165.16 173.426 1156.44 Q173.426 1147.69 176.482 1143.1 Q179.56 1138.5 185.37 1138.5 Z" fill="#000000" fill-rule="nonzero" fill-opacity="1" /><path clip-path="url(#clip260)" d="M233.704 1148.22 L223.125 1158.84 L233.704 1169.42 L230.949 1172.22 L220.324 1161.6 L209.699 1172.22 L206.968 1169.42 L217.523 1158.84 L206.968 1148.22 L209.699 1145.42 L220.324 1156.04 L230.949 1145.42 L233.704 1148.22 Z" fill="#000000" fill-rule="nonzero" fill-opacity="1" /><path clip-path="url(#clip260)" d="M246.065 1169.75 L253.703 1169.75 L253.703 1143.38 L245.393 1145.05 L245.393 1140.79 L253.657 1139.12 L258.333 1139.12 L258.333 1169.75 L265.972 1169.75 L265.972 1173.68 L246.065 1173.68 L246.065 1169.75 Z" fill="#000000" fill-rule="nonzero" fill-opacity="1" /><path clip-path="url(#clip260)" d="M285.416 1142.2 Q281.805 1142.2 279.976 1145.76 Q278.171 1149.31 278.171 1156.44 Q278.171 1163.54 279.976 1167.11 Q281.805 1170.65 285.416 1170.65 Q289.05 1170.65 290.856 1167.11 Q292.685 1163.54 292.685 1156.44 Q292.685 1149.31 290.856 1145.76 Q289.05 1142.2 285.416 1142.2 M285.416 1138.5 Q291.226 1138.5 294.282 1143.1 Q297.361 1147.69 297.361 1156.44 Q297.361 1165.16 294.282 1169.77 Q291.226 1174.35 285.416 1174.35 Q279.606 1174.35 276.527 1169.77 Q273.472 1165.16 273.472 1156.44 Q273.472 1147.69 276.527 1143.1 Q279.606 1138.5 285.416 1138.5 Z" fill="#000000" fill-rule="nonzero" fill-opacity="1" /><path clip-path="url(#clip260)" d="M299.166 1145.69 L299.166 1142.23 Q300.596 1142.9 302.063 1143.26 Q303.53 1143.62 304.94 1143.62 Q308.702 1143.62 310.676 1141.1 Q312.67 1138.56 312.952 1133.41 Q311.861 1135.02 310.187 1135.89 Q308.514 1136.75 306.482 1136.75 Q302.269 1136.75 299.806 1134.22 Q297.361 1131.66 297.361 1127.24 Q297.361 1122.91 299.918 1120.3 Q302.476 1117.68 306.727 1117.68 Q311.598 1117.68 314.156 1121.43 Q316.733 1125.15 316.733 1132.26 Q316.733 1138.9 313.573 1142.87 Q310.432 1146.82 305.109 1146.82 Q303.68 1146.82 302.213 1146.53 Q300.746 1146.25 299.166 1145.69 M306.727 1133.78 Q309.285 1133.78 310.771 1132.03 Q312.275 1130.28 312.275 1127.24 Q312.275 1124.21 310.771 1122.46 Q309.285 1120.69 306.727 1120.69 Q304.169 1120.69 302.664 1122.46 Q301.179 1124.21 301.179 1127.24 Q301.179 1130.28 302.664 1132.03 Q304.169 1133.78 306.727 1133.78 Z" fill="#000000" fill-rule="nonzero" fill-opacity="1" /><path clip-path="url(#clip260)" d="M100.788 931.182 L108.426 931.182 L108.426 904.817 L100.116 906.483 L100.116 902.224 L108.38 900.557 L113.056 900.557 L113.056 931.182 L120.695 931.182 L120.695 935.117 L100.788 935.117 L100.788 931.182 Z" fill="#000000" fill-rule="nonzero" fill-opacity="1" /><path clip-path="url(#clip260)" d="M130.139 929.238 L135.023 929.238 L135.023 935.117 L130.139 935.117 L130.139 929.238 Z" fill="#000000" fill-rule="nonzero" fill-opacity="1" /><path clip-path="url(#clip260)" d="M145.255 900.557 L163.611 900.557 L163.611 904.493 L149.537 904.493 L149.537 912.965 Q150.556 912.618 151.574 912.455 Q152.593 912.27 153.611 912.27 Q159.398 912.27 162.778 915.442 Q166.158 918.613 166.158 924.029 Q166.158 929.608 162.685 932.71 Q159.213 935.789 152.894 935.789 Q150.718 935.789 148.449 935.418 Q146.204 935.048 143.797 934.307 L143.797 929.608 Q145.88 930.742 148.102 931.298 Q150.324 931.854 152.801 931.854 Q156.806 931.854 159.144 929.747 Q161.482 927.641 161.482 924.029 Q161.482 920.418 159.144 918.312 Q156.806 916.205 152.801 916.205 Q150.926 916.205 149.051 916.622 Q147.199 917.039 145.255 917.918 L145.255 900.557 Z" fill="#000000" fill-rule="nonzero" fill-opacity="1" /><path clip-path="url(#clip260)" d="M185.37 903.636 Q181.759 903.636 179.931 907.201 Q178.125 910.743 178.125 917.872 Q178.125 924.979 179.931 928.543 Q181.759 932.085 185.37 932.085 Q189.005 932.085 190.81 928.543 Q192.639 924.979 192.639 917.872 Q192.639 910.743 190.81 907.201 Q189.005 903.636 185.37 903.636 M185.37 899.932 Q191.181 899.932 194.236 904.539 Q197.315 909.122 197.315 917.872 Q197.315 926.599 194.236 931.205 Q191.181 935.789 185.37 935.789 Q179.56 935.789 176.482 931.205 Q173.426 926.599 173.426 917.872 Q173.426 909.122 176.482 904.539 Q179.56 899.932 185.37 899.932 Z" fill="#000000" fill-rule="nonzero" fill-opacity="1" /><path clip-path="url(#clip260)" d="M233.704 909.655 L223.125 920.28 L233.704 930.858 L230.949 933.659 L220.324 923.034 L209.699 933.659 L206.968 930.858 L217.523 920.28 L206.968 909.655 L209.699 906.854 L220.324 917.479 L230.949 906.854 L233.704 909.655 Z" fill="#000000" fill-rule="nonzero" fill-opacity="1" /><path clip-path="url(#clip260)" d="M246.065 931.182 L253.703 931.182 L253.703 904.817 L245.393 906.483 L245.393 902.224 L253.657 900.557 L258.333 900.557 L258.333 931.182 L265.972 931.182 L265.972 935.117 L246.065 935.117 L246.065 931.182 Z" fill="#000000" fill-rule="nonzero" fill-opacity="1" /><path clip-path="url(#clip260)" d="M285.416 903.636 Q281.805 903.636 279.976 907.201 Q278.171 910.743 278.171 917.872 Q278.171 924.979 279.976 928.543 Q281.805 932.085 285.416 932.085 Q289.05 932.085 290.856 928.543 Q292.685 924.979 292.685 917.872 Q292.685 910.743 290.856 907.201 Q289.05 903.636 285.416 903.636 M285.416 899.932 Q291.226 899.932 294.282 904.539 Q297.361 909.122 297.361 917.872 Q297.361 926.599 294.282 931.205 Q291.226 935.789 285.416 935.789 Q279.606 935.789 276.527 931.205 Q273.472 926.599 273.472 917.872 Q273.472 909.122 276.527 904.539 Q279.606 899.932 285.416 899.932 Z" fill="#000000" fill-rule="nonzero" fill-opacity="1" /><path clip-path="url(#clip260)" d="M299.166 907.124 L299.166 903.663 Q300.596 904.34 302.063 904.698 Q303.53 905.055 304.94 905.055 Q308.702 905.055 310.676 902.535 Q312.67 899.996 312.952 894.842 Q311.861 896.46 310.187 897.325 Q308.514 898.19 306.482 898.19 Q302.269 898.19 299.806 895.651 Q297.361 893.093 297.361 888.674 Q297.361 884.348 299.918 881.733 Q302.476 879.119 306.727 879.119 Q311.598 879.119 314.156 882.862 Q316.733 886.586 316.733 893.695 Q316.733 900.334 313.573 904.303 Q310.432 908.252 305.109 908.252 Q303.68 908.252 302.213 907.97 Q300.746 907.688 299.166 907.124 M306.727 895.219 Q309.285 895.219 310.771 893.47 Q312.275 891.72 312.275 888.674 Q312.275 885.645 310.771 883.896 Q309.285 882.128 306.727 882.128 Q304.169 882.128 302.664 883.896 Q301.179 885.645 301.179 888.674 Q301.179 891.72 302.664 893.47 Q304.169 895.219 306.727 895.219 Z" fill="#000000" fill-rule="nonzero" fill-opacity="1" /><path clip-path="url(#clip260)" d="M104.005 692.618 L120.324 692.618 L120.324 696.554 L98.3802 696.554 L98.3802 692.618 Q101.042 689.864 105.625 685.234 Q110.232 680.581 111.412 679.239 Q113.658 676.716 114.537 674.98 Q115.44 673.22 115.44 671.531 Q115.44 668.776 113.496 667.04 Q111.575 665.304 108.473 665.304 Q106.274 665.304 103.82 666.068 Q101.389 666.832 98.6116 668.382 L98.6116 663.66 Q101.436 662.526 103.889 661.947 Q106.343 661.369 108.38 661.369 Q113.75 661.369 116.945 664.054 Q120.139 666.739 120.139 671.23 Q120.139 673.359 119.329 675.281 Q118.542 677.179 116.436 679.771 Q115.857 680.443 112.755 683.66 Q109.653 686.855 104.005 692.618 Z" fill="#000000" fill-rule="nonzero" fill-opacity="1" /><path clip-path="url(#clip260)" d="M130.139 690.674 L135.023 690.674 L135.023 696.554 L130.139 696.554 L130.139 690.674 Z" fill="#000000" fill-rule="nonzero" fill-opacity="1" /><path clip-path="url(#clip260)" d="M155.209 665.072 Q151.597 665.072 149.769 668.637 Q147.963 672.179 147.963 679.308 Q147.963 686.415 149.769 689.98 Q151.597 693.521 155.209 693.521 Q158.843 693.521 160.648 689.98 Q162.477 686.415 162.477 679.308 Q162.477 672.179 160.648 668.637 Q158.843 665.072 155.209 665.072 M155.209 661.369 Q161.019 661.369 164.074 665.975 Q167.153 670.558 167.153 679.308 Q167.153 688.035 164.074 692.642 Q161.019 697.225 155.209 697.225 Q149.398 697.225 146.32 692.642 Q143.264 688.035 143.264 679.308 Q143.264 670.558 146.32 665.975 Q149.398 661.369 155.209 661.369 Z" fill="#000000" fill-rule="nonzero" fill-opacity="1" /><path clip-path="url(#clip260)" d="M185.37 665.072 Q181.759 665.072 179.931 668.637 Q178.125 672.179 178.125 679.308 Q178.125 686.415 179.931 689.98 Q181.759 693.521 185.37 693.521 Q189.005 693.521 190.81 689.98 Q192.639 686.415 192.639 679.308 Q192.639 672.179 190.81 668.637 Q189.005 665.072 185.37 665.072 M185.37 661.369 Q191.181 661.369 194.236 665.975 Q197.315 670.558 197.315 679.308 Q197.315 688.035 194.236 692.642 Q191.181 697.225 185.37 697.225 Q179.56 697.225 176.482 692.642 Q173.426 688.035 173.426 679.308 Q173.426 670.558 176.482 665.975 Q179.56 661.369 185.37 661.369 Z" fill="#000000" fill-rule="nonzero" fill-opacity="1" /><path clip-path="url(#clip260)" d="M233.704 671.091 L223.125 681.716 L233.704 692.294 L230.949 695.095 L220.324 684.47 L209.699 695.095 L206.968 692.294 L217.523 681.716 L206.968 671.091 L209.699 668.29 L220.324 678.915 L230.949 668.29 L233.704 671.091 Z" fill="#000000" fill-rule="nonzero" fill-opacity="1" /><path clip-path="url(#clip260)" d="M246.065 692.618 L253.703 692.618 L253.703 666.253 L245.393 667.919 L245.393 663.66 L253.657 661.994 L258.333 661.994 L258.333 692.618 L265.972 692.618 L265.972 696.554 L246.065 696.554 L246.065 692.618 Z" fill="#000000" fill-rule="nonzero" fill-opacity="1" /><path clip-path="url(#clip260)" d="M285.416 665.072 Q281.805 665.072 279.976 668.637 Q278.171 672.179 278.171 679.308 Q278.171 686.415 279.976 689.98 Q281.805 693.521 285.416 693.521 Q289.05 693.521 290.856 689.98 Q292.685 686.415 292.685 679.308 Q292.685 672.179 290.856 668.637 Q289.05 665.072 285.416 665.072 M285.416 661.369 Q291.226 661.369 294.282 665.975 Q297.361 670.558 297.361 679.308 Q297.361 688.035 294.282 692.642 Q291.226 697.225 285.416 697.225 Q279.606 697.225 276.527 692.642 Q273.472 688.035 273.472 679.308 Q273.472 670.558 276.527 665.975 Q279.606 661.369 285.416 661.369 Z" fill="#000000" fill-rule="nonzero" fill-opacity="1" /><path clip-path="url(#clip260)" d="M299.166 668.56 L299.166 665.1 Q300.596 665.777 302.063 666.134 Q303.53 666.491 304.94 666.491 Q308.702 666.491 310.676 663.971 Q312.67 661.432 312.952 656.279 Q311.861 657.896 310.187 658.761 Q308.514 659.626 306.482 659.626 Q302.269 659.626 299.806 657.087 Q297.361 654.53 297.361 650.11 Q297.361 645.784 299.918 643.17 Q302.476 640.555 306.727 640.555 Q311.598 640.555 314.156 644.298 Q316.733 648.022 316.733 655.131 Q316.733 661.771 313.573 665.739 Q310.432 669.689 305.109 669.689 Q303.68 669.689 302.213 669.406 Q300.746 669.124 299.166 668.56 M306.727 656.655 Q309.285 656.655 310.771 654.906 Q312.275 653.157 312.275 650.11 Q312.275 647.082 310.771 645.333 Q309.285 643.565 306.727 643.565 Q304.169 643.565 302.664 645.333 Q301.179 647.082 301.179 650.11 Q301.179 653.157 302.664 654.906 Q304.169 656.655 306.727 656.655 Z" fill="#000000" fill-rule="nonzero" fill-opacity="1" /><path clip-path="url(#clip260)" d="M104.005 454.055 L120.324 454.055 L120.324 457.99 L98.3802 457.99 L98.3802 454.055 Q101.042 451.3 105.625 446.67 Q110.232 442.018 111.412 440.675 Q113.658 438.152 114.537 436.416 Q115.44 434.657 115.44 432.967 Q115.44 430.212 113.496 428.476 Q111.575 426.74 108.473 426.74 Q106.274 426.74 103.82 427.504 Q101.389 428.268 98.6116 429.819 L98.6116 425.096 Q101.436 423.962 103.889 423.383 Q106.343 422.805 108.38 422.805 Q113.75 422.805 116.945 425.49 Q120.139 428.175 120.139 432.666 Q120.139 434.795 119.329 436.717 Q118.542 438.615 116.436 441.207 Q115.857 441.879 112.755 445.096 Q109.653 448.291 104.005 454.055 Z" fill="#000000" fill-rule="nonzero" fill-opacity="1" /><path clip-path="url(#clip260)" d="M130.139 452.11 L135.023 452.11 L135.023 457.99 L130.139 457.99 L130.139 452.11 Z" fill="#000000" fill-rule="nonzero" fill-opacity="1" /><path clip-path="url(#clip260)" d="M145.255 423.43 L163.611 423.43 L163.611 427.365 L149.537 427.365 L149.537 435.837 Q150.556 435.49 151.574 435.328 Q152.593 435.143 153.611 435.143 Q159.398 435.143 162.778 438.314 Q166.158 441.485 166.158 446.902 Q166.158 452.481 162.685 455.582 Q159.213 458.661 152.894 458.661 Q150.718 458.661 148.449 458.291 Q146.204 457.92 143.797 457.18 L143.797 452.481 Q145.88 453.615 148.102 454.17 Q150.324 454.726 152.801 454.726 Q156.806 454.726 159.144 452.619 Q161.482 450.513 161.482 446.902 Q161.482 443.291 159.144 441.184 Q156.806 439.078 152.801 439.078 Q150.926 439.078 149.051 439.494 Q147.199 439.911 145.255 440.791 L145.255 423.43 Z" fill="#000000" fill-rule="nonzero" fill-opacity="1" /><path clip-path="url(#clip260)" d="M185.37 426.508 Q181.759 426.508 179.931 430.073 Q178.125 433.615 178.125 440.744 Q178.125 447.851 179.931 451.416 Q181.759 454.957 185.37 454.957 Q189.005 454.957 190.81 451.416 Q192.639 447.851 192.639 440.744 Q192.639 433.615 190.81 430.073 Q189.005 426.508 185.37 426.508 M185.37 422.805 Q191.181 422.805 194.236 427.411 Q197.315 431.995 197.315 440.744 Q197.315 449.471 194.236 454.078 Q191.181 458.661 185.37 458.661 Q179.56 458.661 176.482 454.078 Q173.426 449.471 173.426 440.744 Q173.426 431.995 176.482 427.411 Q179.56 422.805 185.37 422.805 Z" fill="#000000" fill-rule="nonzero" fill-opacity="1" /><path clip-path="url(#clip260)" d="M233.704 432.527 L223.125 443.152 L233.704 453.731 L230.949 456.531 L220.324 445.906 L209.699 456.531 L206.968 453.731 L217.523 443.152 L206.968 432.527 L209.699 429.726 L220.324 440.351 L230.949 429.726 L233.704 432.527 Z" fill="#000000" fill-rule="nonzero" fill-opacity="1" /><path clip-path="url(#clip260)" d="M246.065 454.055 L253.703 454.055 L253.703 427.689 L245.393 429.356 L245.393 425.096 L253.657 423.43 L258.333 423.43 L258.333 454.055 L265.972 454.055 L265.972 457.99 L246.065 457.99 L246.065 454.055 Z" fill="#000000" fill-rule="nonzero" fill-opacity="1" /><path clip-path="url(#clip260)" d="M285.416 426.508 Q281.805 426.508 279.976 430.073 Q278.171 433.615 278.171 440.744 Q278.171 447.851 279.976 451.416 Q281.805 454.957 285.416 454.957 Q289.05 454.957 290.856 451.416 Q292.685 447.851 292.685 440.744 Q292.685 433.615 290.856 430.073 Q289.05 426.508 285.416 426.508 M285.416 422.805 Q291.226 422.805 294.282 427.411 Q297.361 431.995 297.361 440.744 Q297.361 449.471 294.282 454.078 Q291.226 458.661 285.416 458.661 Q279.606 458.661 276.527 454.078 Q273.472 449.471 273.472 440.744 Q273.472 431.995 276.527 427.411 Q279.606 422.805 285.416 422.805 Z" fill="#000000" fill-rule="nonzero" fill-opacity="1" /><path clip-path="url(#clip260)" d="M299.166 429.996 L299.166 426.536 Q300.596 427.213 302.063 427.57 Q303.53 427.927 304.94 427.927 Q308.702 427.927 310.676 425.407 Q312.67 422.868 312.952 417.715 Q311.861 419.332 310.187 420.197 Q308.514 421.063 306.482 421.063 Q302.269 421.063 299.806 418.524 Q297.361 415.966 297.361 411.546 Q297.361 407.22 299.918 404.606 Q302.476 401.992 306.727 401.992 Q311.598 401.992 314.156 405.734 Q316.733 409.458 316.733 416.568 Q316.733 423.207 313.573 427.175 Q310.432 431.125 305.109 431.125 Q303.68 431.125 302.213 430.843 Q300.746 430.561 299.166 429.996 M306.727 418.091 Q309.285 418.091 310.771 416.342 Q312.275 414.593 312.275 411.546 Q312.275 408.518 310.771 406.769 Q309.285 405.001 306.727 405.001 Q304.169 405.001 302.664 406.769 Q301.179 408.518 301.179 411.546 Q301.179 414.593 302.664 416.342 Q304.169 418.091 306.727 418.091 Z" fill="#000000" fill-rule="nonzero" fill-opacity="1" /><path clip-path="url(#clip260)" d="M114.144 200.792 Q117.5 201.509 119.375 203.778 Q121.274 206.046 121.274 209.38 Q121.274 214.495 117.755 217.296 Q114.237 220.097 107.755 220.097 Q105.579 220.097 103.264 219.657 Q100.973 219.241 98.519 218.384 L98.519 213.87 Q100.463 215.005 102.778 215.583 Q105.093 216.162 107.616 216.162 Q112.014 216.162 114.306 214.426 Q116.621 212.69 116.621 209.38 Q116.621 206.324 114.468 204.611 Q112.338 202.875 108.519 202.875 L104.491 202.875 L104.491 199.033 L108.704 199.033 Q112.153 199.033 113.982 197.667 Q115.811 196.278 115.811 193.685 Q115.811 191.023 113.912 189.611 Q112.037 188.176 108.519 188.176 Q106.598 188.176 104.399 188.593 Q102.2 189.009 99.5607 189.889 L99.5607 185.722 Q102.223 184.982 104.538 184.611 Q106.875 184.241 108.936 184.241 Q114.26 184.241 117.362 186.671 Q120.463 189.079 120.463 193.199 Q120.463 196.07 118.82 198.06 Q117.176 200.028 114.144 200.792 Z" fill="#000000" fill-rule="nonzero" fill-opacity="1" /><path clip-path="url(#clip260)" d="M130.139 213.546 L135.023 213.546 L135.023 219.426 L130.139 219.426 L130.139 213.546 Z" fill="#000000" fill-rule="nonzero" fill-opacity="1" /><path clip-path="url(#clip260)" d="M155.209 187.945 Q151.597 187.945 149.769 191.509 Q147.963 195.051 147.963 202.181 Q147.963 209.287 149.769 212.852 Q151.597 216.394 155.209 216.394 Q158.843 216.394 160.648 212.852 Q162.477 209.287 162.477 202.181 Q162.477 195.051 160.648 191.509 Q158.843 187.945 155.209 187.945 M155.209 184.241 Q161.019 184.241 164.074 188.847 Q167.153 193.431 167.153 202.181 Q167.153 210.907 164.074 215.514 Q161.019 220.097 155.209 220.097 Q149.398 220.097 146.32 215.514 Q143.264 210.907 143.264 202.181 Q143.264 193.431 146.32 188.847 Q149.398 184.241 155.209 184.241 Z" fill="#000000" fill-rule="nonzero" fill-opacity="1" /><path clip-path="url(#clip260)" d="M185.37 187.945 Q181.759 187.945 179.931 191.509 Q178.125 195.051 178.125 202.181 Q178.125 209.287 179.931 212.852 Q181.759 216.394 185.37 216.394 Q189.005 216.394 190.81 212.852 Q192.639 209.287 192.639 202.181 Q192.639 195.051 190.81 191.509 Q189.005 187.945 185.37 187.945 M185.37 184.241 Q191.181 184.241 194.236 188.847 Q197.315 193.431 197.315 202.181 Q197.315 210.907 194.236 215.514 Q191.181 220.097 185.37 220.097 Q179.56 220.097 176.482 215.514 Q173.426 210.907 173.426 202.181 Q173.426 193.431 176.482 188.847 Q179.56 184.241 185.37 184.241 Z" fill="#000000" fill-rule="nonzero" fill-opacity="1" /><path clip-path="url(#clip260)" d="M233.704 193.963 L223.125 204.588 L233.704 215.167 L230.949 217.968 L220.324 207.343 L209.699 217.968 L206.968 215.167 L217.523 204.588 L206.968 193.963 L209.699 191.162 L220.324 201.787 L230.949 191.162 L233.704 193.963 Z" fill="#000000" fill-rule="nonzero" fill-opacity="1" /><path clip-path="url(#clip260)" d="M246.065 215.491 L253.703 215.491 L253.703 189.125 L245.393 190.792 L245.393 186.533 L253.657 184.866 L258.333 184.866 L258.333 215.491 L265.972 215.491 L265.972 219.426 L246.065 219.426 L246.065 215.491 Z" fill="#000000" fill-rule="nonzero" fill-opacity="1" /><path clip-path="url(#clip260)" d="M285.416 187.945 Q281.805 187.945 279.976 191.509 Q278.171 195.051 278.171 202.181 Q278.171 209.287 279.976 212.852 Q281.805 216.394 285.416 216.394 Q289.05 216.394 290.856 212.852 Q292.685 209.287 292.685 202.181 Q292.685 195.051 290.856 191.509 Q289.05 187.945 285.416 187.945 M285.416 184.241 Q291.226 184.241 294.282 188.847 Q297.361 193.431 297.361 202.181 Q297.361 210.907 294.282 215.514 Q291.226 220.097 285.416 220.097 Q279.606 220.097 276.527 215.514 Q273.472 210.907 273.472 202.181 Q273.472 193.431 276.527 188.847 Q279.606 184.241 285.416 184.241 Z" fill="#000000" fill-rule="nonzero" fill-opacity="1" /><path clip-path="url(#clip260)" d="M299.166 191.433 L299.166 187.972 Q300.596 188.649 302.063 189.006 Q303.53 189.364 304.94 189.364 Q308.702 189.364 310.676 186.843 Q312.67 184.304 312.952 179.151 Q311.861 180.768 310.187 181.634 Q308.514 182.499 306.482 182.499 Q302.269 182.499 299.806 179.96 Q297.361 177.402 297.361 172.982 Q297.361 168.656 299.918 166.042 Q302.476 163.428 306.727 163.428 Q311.598 163.428 314.156 167.17 Q316.733 170.894 316.733 178.004 Q316.733 184.643 313.573 188.611 Q310.432 192.561 305.109 192.561 Q303.68 192.561 302.213 192.279 Q300.746 191.997 299.166 191.433 M306.727 179.527 Q309.285 179.527 310.771 177.778 Q312.275 176.029 312.275 172.982 Q312.275 169.954 310.771 168.205 Q309.285 166.437 306.727 166.437 Q304.169 166.437 302.664 168.205 Q301.179 169.954 301.179 172.982 Q301.179 176.029 302.664 177.778 Q304.169 179.527 306.727 179.527 Z" fill="#000000" fill-rule="nonzero" fill-opacity="1" /><path clip-path="url(#clip260)" d="M-9.64527 840.632 L0.4762 840.632 L0.4762 828.569 L5.02768 828.569 L5.02768 840.632 L24.3794 840.632 Q28.7399 840.632 29.9813 839.454 Q31.2226 838.245 31.2226 834.584 L31.2226 828.569 L36.1242 828.569 L36.1242 834.584 Q36.1242 841.364 33.6097 843.942 Q31.0634 846.52 24.3794 846.52 L5.02768 846.52 L5.02768 850.817 L0.4762 850.817 L0.4762 846.52 L-9.64527 846.52 L-9.64527 840.632 Z" fill="#000000" fill-rule="nonzero" fill-opacity="1" /><path clip-path="url(#clip260)" d="M-11.3958 789.738 L-11.3958 784.327 L42.1716 800.878 L42.1716 806.289 L-11.3958 789.738 Z" fill="#000000" fill-rule="nonzero" fill-opacity="1" /><path clip-path="url(#clip260)" d="M14.6081 727.831 L36.1242 727.831 L36.1242 733.688 L14.799 733.688 Q9.7383 733.688 7.22385 735.661 Q4.7094 737.635 4.7094 741.581 Q4.7094 746.324 7.73311 749.061 Q10.7568 751.798 15.9767 751.798 L36.1242 751.798 L36.1242 757.687 L0.4762 757.687 L0.4762 751.798 L6.01437 751.798 Q2.79968 749.698 1.20826 746.865 Q-0.38317 744 -0.38317 740.276 Q-0.38317 734.133 3.43625 730.982 Q7.22385 727.831 14.6081 727.831 Z" fill="#000000" fill-rule="nonzero" fill-opacity="1" /><path clip-path="url(#clip260)" d="M1.52654 693.425 L7.06471 693.425 Q5.79157 695.907 5.15499 698.581 Q4.51842 701.255 4.51842 704.119 Q4.51842 708.48 5.85522 710.676 Q7.19202 712.84 9.86562 712.84 Q11.9026 712.84 13.0803 711.281 Q14.2261 709.721 15.2765 705.01 L15.7221 703.005 Q17.0589 696.767 19.5097 694.157 Q21.9286 691.515 26.2891 691.515 Q31.2544 691.515 34.1508 695.462 Q37.0472 699.377 37.0472 706.252 Q37.0472 709.116 36.4743 712.235 Q35.9332 715.323 34.8192 718.76 L28.7718 718.76 Q30.4587 715.514 31.318 712.363 Q32.1456 709.212 32.1456 706.124 Q32.1456 701.987 30.7451 699.759 Q29.3129 697.531 26.7347 697.531 Q24.3476 697.531 23.0745 699.154 Q21.8013 700.745 20.6237 706.188 L20.1462 708.225 Q19.0004 713.668 16.6451 716.087 Q14.258 718.506 10.1202 718.506 Q5.09134 718.506 2.35408 714.941 Q-0.38317 711.376 -0.38317 704.819 Q-0.38317 701.573 0.0942579 698.708 Q0.571686 695.844 1.52654 693.425 Z" fill="#000000" fill-rule="nonzero" fill-opacity="1" /><path clip-path="url(#clip261)" d="M868.724 1454.11 L867.556 1454.01 L865.47 1453.91 L862.509 1453.81 L858.735 1453.7 L854.228 1453.6 L849.077 1453.5 L843.383 1453.4 L837.256 1453.29 L830.806 1453.19 L824.147 1453.09 L817.389 1452.99 L810.638 1452.89 L803.991 1452.78 L797.539 1452.68 L791.36 1452.58 L785.525 1452.48 L780.091 1452.38 L775.105 1452.27 L770.606 1452.17 L766.623 1452.07 L763.178 1451.97 L760.285 1451.87 L757.956 1451.76 L756.198 1451.66 L755.017 1451.56 L754.418 1451.46 L754.404 1451.36 L754.983 1451.25 L756.158 1451.15 L757.938 1451.05 L760.329 1450.95 L763.338 1450.85 L766.971 1450.74 L771.231 1450.64 L776.119 1450.54 L781.631 1450.44 L787.757 1450.34 L794.482 1450.23 L801.783 1450.13 L809.63 1450.03 L817.984 1449.93 L826.799 1449.83 L836.024 1449.72 L845.598 1449.62 L855.457 1449.52 L865.534 1449.42 L875.758 1449.32 L886.058 1449.21 L896.365 1449.11 L906.612 1449.01 L916.734 1448.91 L926.672 1448.81 L936.372 1448.7 L945.785 1448.6 L954.869 1448.5 L963.584 1448.4 L971.896 1448.3 L979.772 1448.19 L987.182 1448.09 L994.094 1447.99 L1000.48 1447.89 L1006.3 1447.79 L1011.53 1447.68 L1016.12 1447.58 L1020.03 1447.48 L1023.23 1447.38 L1025.67 1447.27 L1027.32 1447.17 L1028.13 1447.07 L1028.08 1446.97 L1027.14 1446.87 L1025.32 1446.76 L1022.6 1446.66 L1019.02 1446.56 L1014.6 1446.46 L1009.39 1446.36 L1003.48 1446.25 L996.952 1446.15 L989.9 1446.05 L982.446 1445.95 L974.714 1445.85 L966.838 1445.74 L958.952 1445.64 L951.188 1445.54 L943.674 1445.44 L936.524 1445.34 L929.839 1445.23 L923.701 1445.13 L918.17 1445.03 L913.282 1444.93 L909.051 1444.83 L905.461 1444.72 L902.475 1444.62 L900.033 1444.52 L898.054 1444.42 L896.441 1444.32 L895.084 1444.21 L893.866 1444.11 L892.666 1444.01 L891.365 1443.91 L889.85 1443.81 L888.021 1443.7 L885.788 1443.6 L585.981 1443.6 L583.749 1443.7 L581.919 1443.81 L580.404 1443.91 L579.103 1444.01 L577.903 1444.11 L576.685 1444.21 L575.328 1444.32 L573.715 1444.42 L571.736 1444.52 L569.294 1444.62 L566.308 1444.72 L562.718 1444.83 L558.487 1444.93 L553.599 1445.03 L548.068 1445.13 L541.93 1445.23 L535.245 1445.34 L528.095 1445.44 L520.581 1445.54 L512.818 1445.64 L504.931 1445.74 L497.055 1445.85 L489.323 1445.95 L481.869 1446.05 L474.817 1446.15 L468.285 1446.25 L462.375 1446.36 L457.174 1446.46 L452.754 1446.56 L449.168 1446.66 L446.452 1446.76 L444.624 1446.87 L443.69 1446.97 L443.639 1447.07 L444.45 1447.17 L446.095 1447.27 L448.537 1447.38 L451.736 1447.48 L455.652 1447.58 L460.243 1447.68 L465.469 1447.79 L471.291 1447.89 L477.675 1447.99 L484.588 1448.09 L491.997 1448.19 L499.873 1448.3 L508.185 1448.4 L516.9 1448.5 L525.984 1448.6 L535.397 1448.7 L545.098 1448.81 L555.035 1448.91 L565.157 1449.01 L575.404 1449.11 L585.711 1449.21 L596.011 1449.32 L606.235 1449.42 L616.312 1449.52 L626.171 1449.62 L635.745 1449.72 L644.97 1449.83 L653.785 1449.93 L662.139 1450.03 L669.986 1450.13 L677.287 1450.23 L684.012 1450.34 L690.138 1450.44 L695.65 1450.54 L700.538 1450.64 L704.798 1450.74 L708.431 1450.85 L711.44 1450.95 L713.831 1451.05 L715.611 1451.15 L716.786 1451.25 L717.365 1451.36 L717.351 1451.46 L716.752 1451.56 L715.571 1451.66 L713.813 1451.76 L711.484 1451.87 L708.591 1451.97 L705.146 1452.07 L701.163 1452.17 L696.664 1452.27 L691.679 1452.38 L686.244 1452.48 L680.409 1452.58 L674.23 1452.68 L667.778 1452.78 L661.131 1452.89 L654.38 1452.99 L647.622 1453.09 L640.963 1453.19 L634.513 1453.29 L628.386 1453.4 L622.692 1453.5 L617.541 1453.6 L613.034 1453.7 L609.26 1453.81 L606.299 1453.91 L604.213 1454.01 L603.045 1454.11 L868.724 1454.11  Z" fill="#009af9" fill-rule="evenodd" fill-opacity="1"/>
<polyline clip-path="url(#clip261)" style="stroke:#000000; stroke-linecap:round; stroke-linejoin:round; stroke-width:4; stroke-opacity:1; fill:none" points="868.724,1454.11 867.556,1454.01 865.47,1453.91 862.509,1453.81 858.735,1453.7 854.228,1453.6 849.077,1453.5 843.383,1453.4 837.256,1453.29 830.806,1453.19 824.147,1453.09 817.389,1452.99 810.638,1452.89 803.991,1452.78 797.539,1452.68 791.36,1452.58 785.525,1452.48 780.091,1452.38 775.105,1452.27 770.606,1452.17 766.623,1452.07 763.178,1451.97 760.285,1451.87 757.956,1451.76 756.198,1451.66 755.017,1451.56 754.418,1451.46 754.404,1451.36 754.983,1451.25 756.158,1451.15 757.938,1451.05 760.329,1450.95 763.338,1450.85 766.971,1450.74 771.231,1450.64 776.119,1450.54 781.631,1450.44 787.757,1450.34 794.482,1450.23 801.783,1450.13 809.63,1450.03 817.984,1449.93 826.799,1449.83 836.024,1449.72 845.598,1449.62 855.457,1449.52 865.534,1449.42 875.758,1449.32 886.058,1449.21 896.365,1449.11 906.612,1449.01 916.734,1448.91 926.672,1448.81 936.372,1448.7 945.785,1448.6 954.869,1448.5 963.584,1448.4 971.896,1448.3 979.772,1448.19 987.182,1448.09 994.094,1447.99 1000.48,1447.89 1006.3,1447.79 1011.53,1447.68 1016.12,1447.58 1020.03,1447.48 1023.23,1447.38 1025.67,1447.27 1027.32,1447.17 1028.13,1447.07 1028.08,1446.97 1027.14,1446.87 1025.32,1446.76 1022.6,1446.66 1019.02,1446.56 1014.6,1446.46 1009.39,1446.36 1003.48,1446.25 996.952,1446.15 989.9,1446.05 982.446,1445.95 974.714,1445.85 966.838,1445.74 958.952,1445.64 951.188,1445.54 943.674,1445.44 936.524,1445.34 929.839,1445.23 923.701,1445.13 918.17,1445.03 913.282,1444.93 909.051,1444.83 905.461,1444.72 902.475,1444.62 900.033,1444.52 898.054,1444.42 896.441,1444.32 895.084,1444.21 893.866,1444.11 892.666,1444.01 891.365,1443.91 889.85,1443.81 888.021,1443.7 885.788,1443.6 585.981,1443.6 583.749,1443.7 581.919,1443.81 580.404,1443.91 579.103,1444.01 577.903,1444.11 576.685,1444.21 575.328,1444.32 573.715,1444.42 571.736,1444.52 569.294,1444.62 566.308,1444.72 562.718,1444.83 558.487,1444.93 553.599,1445.03 548.068,1445.13 541.93,1445.23 535.245,1445.34 528.095,1445.44 520.581,1445.54 512.818,1445.64 504.931,1445.74 497.055,1445.85 489.323,1445.95 481.869,1446.05 474.817,1446.15 468.285,1446.25 462.375,1446.36 457.174,1446.46 452.754,1446.56 449.168,1446.66 446.452,1446.76 444.624,1446.87 443.69,1446.97 443.639,1447.07 444.45,1447.17 446.095,1447.27 448.537,1447.38 451.736,1447.48 455.652,1447.58 460.243,1447.68 465.469,1447.79 471.291,1447.89 477.675,1447.99 484.588,1448.09 491.997,1448.19 499.873,1448.3 508.185,1448.4 516.9,1448.5 525.984,1448.6 535.397,1448.7 545.098,1448.81 555.035,1448.91 565.157,1449.01 575.404,1449.11 585.711,1449.21 596.011,1449.32 606.235,1449.42 616.312,1449.52 626.171,1449.62 635.745,1449.72 644.97,1449.83 653.785,1449.93 662.139,1450.03 669.986,1450.13 677.287,1450.23 684.012,1450.34 690.138,1450.44 695.65,1450.54 700.538,1450.64 704.798,1450.74 708.431,1450.85 711.44,1450.95 713.831,1451.05 715.611,1451.15 716.786,1451.25 717.365,1451.36 717.351,1451.46 716.752,1451.56 715.571,1451.66 713.813,1451.76 711.484,1451.87 708.591,1451.97 705.146,1452.07 701.163,1452.17 696.664,1452.27 691.679,1452.38 686.244,1452.48 680.409,1452.58 674.23,1452.68 667.778,1452.78 661.131,1452.89 654.38,1452.99 647.622,1453.09 640.963,1453.19 634.513,1453.29 628.386,1453.4 622.692,1453.5 617.541,1453.6 613.034,1453.7 609.26,1453.81 606.299,1453.91 604.213,1454.01 603.045,1454.11 868.724,1454.11 "/>
<path clip-path="url(#clip261)" d="M1934.46 419.035 L1940.05 417.085 L1945.58 415.136 L1951.03 413.186 L1956.41 411.236 L1961.71 409.287 L1966.93 407.337 L1972.06 405.387 L1977.1 403.438 L1982.05 401.488 L1986.9 399.538 L1991.64 397.588 L1996.26 395.639 L2000.76 393.689 L2005.12 391.739 L2009.33 389.79 L2013.39 387.84 L2017.27 385.89 L2020.97 383.941 L2024.48 381.991 L2027.78 380.041 L2030.86 378.092 L2033.71 376.142 L2036.34 374.192 L2038.73 372.243 L2040.88 370.293 L2042.79 368.343 L2044.47 366.394 L2045.92 364.444 L2047.16 362.494 L2048.18 360.545 L2049.01 358.595 L2049.67 356.645 L2050.17 354.695 L2050.53 352.746 L2050.78 350.796 L2050.92 348.846 L2050.99 346.897 L2050.99 344.947 L2050.95 342.997 L2050.87 341.048 L2050.78 339.098 L2050.67 337.148 L2050.54 335.199 L2050.4 333.249 L2050.24 331.299 L2050.05 329.35 L2049.8 327.4 L2049.49 325.45 L2049.09 323.501 L2048.56 321.551 L2047.88 319.601 L2047.02 317.652 L2045.95 315.702 L2044.62 313.752 L2043 311.803 L2041.06 309.853 L2038.77 307.903 L2036.1 305.953 L2033.02 304.004 L2029.52 302.054 L2025.57 300.104 L2021.17 298.155 L2016.3 296.205 L1501.19 296.205 L1496.32 298.155 L1491.92 300.104 L1487.97 302.054 L1484.46 304.004 L1481.39 305.953 L1478.71 307.903 L1476.42 309.853 L1474.49 311.803 L1472.87 313.752 L1471.54 315.702 L1470.46 317.652 L1469.6 319.601 L1468.93 321.551 L1468.4 323.501 L1468 325.45 L1467.69 327.4 L1467.44 329.35 L1467.25 331.299 L1467.09 333.249 L1466.95 335.199 L1466.82 337.148 L1466.71 339.098 L1466.61 341.048 L1466.54 342.997 L1466.5 344.947 L1466.5 346.897 L1466.57 348.846 L1466.71 350.796 L1466.95 352.746 L1467.32 354.695 L1467.82 356.645 L1468.47 358.595 L1469.31 360.545 L1470.33 362.494 L1471.57 364.444 L1473.02 366.394 L1474.7 368.343 L1476.61 370.293 L1478.76 372.243 L1481.15 374.192 L1483.77 376.142 L1486.63 378.092 L1489.71 380.041 L1493.01 381.991 L1496.52 383.941 L1500.22 385.89 L1504.1 387.84 L1508.16 389.79 L1512.37 391.739 L1516.73 393.689 L1521.23 395.639 L1525.85 397.588 L1530.59 399.538 L1535.44 401.488 L1540.39 403.438 L1545.43 405.387 L1550.56 407.337 L1555.78 409.287 L1561.08 411.236 L1566.46 413.186 L1571.91 415.136 L1577.44 417.085 L1583.03 419.035 L1934.46 419.035  Z" fill="#e26f46" fill-rule="evenodd" fill-opacity="1"/>
<polyline clip-path="url(#clip261)" style="stroke:#000000; stroke-linecap:round; stroke-linejoin:round; stroke-width:4; stroke-opacity:1; fill:none" points="1934.46,419.035 1940.05,417.085 1945.58,415.136 1951.03,413.186 1956.41,411.236 1961.71,409.287 1966.93,407.337 1972.06,405.387 1977.1,403.438 1982.05,401.488 1986.9,399.538 1991.64,397.588 1996.26,395.639 2000.76,393.689 2005.12,391.739 2009.33,389.79 2013.39,387.84 2017.27,385.89 2020.97,383.941 2024.48,381.991 2027.78,380.041 2030.86,378.092 2033.71,376.142 2036.34,374.192 2038.73,372.243 2040.88,370.293 2042.79,368.343 2044.47,366.394 2045.92,364.444 2047.16,362.494 2048.18,360.545 2049.01,358.595 2049.67,356.645 2050.17,354.695 2050.53,352.746 2050.78,350.796 2050.92,348.846 2050.99,346.897 2050.99,344.947 2050.95,342.997 2050.87,341.048 2050.78,339.098 2050.67,337.148 2050.54,335.199 2050.4,333.249 2050.24,331.299 2050.05,329.35 2049.8,327.4 2049.49,325.45 2049.09,323.501 2048.56,321.551 2047.88,319.601 2047.02,317.652 2045.95,315.702 2044.62,313.752 2043,311.803 2041.06,309.853 2038.77,307.903 2036.1,305.953 2033.02,304.004 2029.52,302.054 2025.57,300.104 2021.17,298.155 2016.3,296.205 1501.19,296.205 1496.32,298.155 1491.92,300.104 1487.97,302.054 1484.46,304.004 1481.39,305.953 1478.71,307.903 1476.42,309.853 1474.49,311.803 1472.87,313.752 1471.54,315.702 1470.46,317.652 1469.6,319.601 1468.93,321.551 1468.4,323.501 1468,325.45 1467.69,327.4 1467.44,329.35 1467.25,331.299 1467.09,333.249 1466.95,335.199 1466.82,337.148 1466.71,339.098 1466.61,341.048 1466.54,342.997 1466.5,344.947 1466.5,346.897 1466.57,348.846 1466.71,350.796 1466.95,352.746 1467.32,354.695 1467.82,356.645 1468.47,358.595 1469.31,360.545 1470.33,362.494 1471.57,364.444 1473.02,366.394 1474.7,368.343 1476.61,370.293 1478.76,372.243 1481.15,374.192 1483.77,376.142 1486.63,378.092 1489.71,380.041 1493.01,381.991 1496.52,383.941 1500.22,385.89 1504.1,387.84 1508.16,389.79 1512.37,391.739 1516.73,393.689 1521.23,395.639 1525.85,397.588 1530.59,399.538 1535.44,401.488 1540.39,403.438 1545.43,405.387 1550.56,407.337 1555.78,409.287 1561.08,411.236 1566.46,413.186 1571.91,415.136 1577.44,417.085 1583.03,419.035 1934.46,419.035 "/>
<path clip-path="url(#clip261)" d="M3046.53 149.589 L3052.03 148.583 L3056.95 147.577 L3061.26 146.571 L3064.95 145.564 L3068 144.558 L3070.41 143.552 L3072.18 142.546 L3073.32 141.54 L3073.85 140.534 L3073.78 139.528 L3073.15 138.522 L3071.98 137.516 L3070.31 136.51 L3068.19 135.504 L3065.65 134.498 L3062.75 133.492 L3059.54 132.486 L3056.06 131.48 L3052.38 130.474 L3048.54 129.468 L3044.6 128.462 L3040.61 127.456 L3036.62 126.45 L3032.67 125.444 L3028.81 124.438 L3025.08 123.432 L3021.51 122.426 L3018.14 121.42 L3014.98 120.414 L3012.07 119.408 L3009.41 118.402 L3007.01 117.396 L3004.89 116.39 L3003.02 115.384 L3001.42 114.378 L3000.06 113.372 L2998.93 112.366 L2998.01 111.359 L2997.26 110.353 L2996.67 109.347 L2996.2 108.341 L2995.82 107.335 L2995.48 106.329 L2995.16 105.323 L2994.82 104.317 L2994.41 103.311 L2993.9 102.305 L2993.26 101.299 L2992.45 100.293 L2991.44 99.2871 L2990.2 98.2811 L2988.71 97.2751 L2986.95 96.269 L2984.89 95.263 L2982.52 94.257 L2979.83 93.251 L2976.82 92.2449 L2973.48 91.2389 L2969.82 90.2329 L2965.84 89.2268 L2961.55 88.2208 L2601.66 88.2208 L2597.37 89.2268 L2593.39 90.2329 L2589.73 91.2389 L2586.39 92.2449 L2583.38 93.251 L2580.69 94.257 L2578.32 95.263 L2576.26 96.269 L2574.49 97.2751 L2573 98.2811 L2571.77 99.2871 L2570.76 100.293 L2569.95 101.299 L2569.31 102.305 L2568.8 103.311 L2568.39 104.317 L2568.04 105.323 L2567.72 106.329 L2567.39 107.335 L2567 108.341 L2566.53 109.347 L2565.94 110.353 L2565.2 111.359 L2564.28 112.366 L2563.15 113.372 L2561.79 114.378 L2560.18 115.384 L2558.32 116.39 L2556.19 117.396 L2553.8 118.402 L2551.14 119.408 L2548.23 120.414 L2545.07 121.42 L2541.7 122.426 L2538.13 123.432 L2534.4 124.438 L2530.54 125.444 L2526.59 126.45 L2522.6 127.456 L2518.61 128.462 L2514.67 129.468 L2510.83 130.474 L2507.14 131.48 L2503.67 132.486 L2500.45 133.492 L2497.55 134.498 L2495.02 135.504 L2492.89 136.51 L2491.23 137.516 L2490.06 138.522 L2489.42 139.528 L2489.36 140.534 L2489.89 141.54 L2491.03 142.546 L2492.8 143.552 L2495.21 144.558 L2498.26 145.564 L2501.94 146.571 L2506.26 147.577 L2511.17 148.583 L2516.68 149.589 L3046.53 149.589  Z" fill="#3da44d" fill-rule="evenodd" fill-opacity="1"/>
<polyline clip-path="url(#clip261)" style="stroke:#000000; stroke-linecap:round; stroke-linejoin:round; stroke-width:4; stroke-opacity:1; fill:none" points="3046.53,149.589 3052.03,148.583 3056.95,147.577 3061.26,146.571 3064.95,145.564 3068,144.558 3070.41,143.552 3072.18,142.546 3073.32,141.54 3073.85,140.534 3073.78,139.528 3073.15,138.522 3071.98,137.516 3070.31,136.51 3068.19,135.504 3065.65,134.498 3062.75,133.492 3059.54,132.486 3056.06,131.48 3052.38,130.474 3048.54,129.468 3044.6,128.462 3040.61,127.456 3036.62,126.45 3032.67,125.444 3028.81,124.438 3025.08,123.432 3021.51,122.426 3018.14,121.42 3014.98,120.414 3012.07,119.408 3009.41,118.402 3007.01,117.396 3004.89,116.39 3003.02,115.384 3001.42,114.378 3000.06,113.372 2998.93,112.366 2998.01,111.359 2997.26,110.353 2996.67,109.347 2996.2,108.341 2995.82,107.335 2995.48,106.329 2995.16,105.323 2994.82,104.317 2994.41,103.311 2993.9,102.305 2993.26,101.299 2992.45,100.293 2991.44,99.2871 2990.2,98.2811 2988.71,97.2751 2986.95,96.269 2984.89,95.263 2982.52,94.257 2979.83,93.251 2976.82,92.2449 2973.48,91.2389 2969.82,90.2329 2965.84,89.2268 2961.55,88.2208 2601.66,88.2208 2597.37,89.2268 2593.39,90.2329 2589.73,91.2389 2586.39,92.2449 2583.38,93.251 2580.69,94.257 2578.32,95.263 2576.26,96.269 2574.49,97.2751 2573,98.2811 2571.77,99.2871 2570.76,100.293 2569.95,101.299 2569.31,102.305 2568.8,103.311 2568.39,104.317 2568.04,105.323 2567.72,106.329 2567.39,107.335 2567,108.341 2566.53,109.347 2565.94,110.353 2565.2,111.359 2564.28,112.366 2563.15,113.372 2561.79,114.378 2560.18,115.384 2558.32,116.39 2556.19,117.396 2553.8,118.402 2551.14,119.408 2548.23,120.414 2545.07,121.42 2541.7,122.426 2538.13,123.432 2534.4,124.438 2530.54,125.444 2526.59,126.45 2522.6,127.456 2518.61,128.462 2514.67,129.468 2510.83,130.474 2507.14,131.48 2503.67,132.486 2500.45,133.492 2497.55,134.498 2495.02,135.504 2492.89,136.51 2491.23,137.516 2490.06,138.522 2489.42,139.528 2489.36,140.534 2489.89,141.54 2491.03,142.546 2492.8,143.552 2495.21,144.558 2498.26,145.564 2501.94,146.571 2506.26,147.577 2511.17,148.583 2516.68,149.589 3046.53,149.589 "/>
</svg>
