<?xml version="1.0" encoding="utf-8"?>
<svg xmlns="http://www.w3.org/2000/svg" xmlns:xlink="http://www.w3.org/1999/xlink" width="600" height="700" viewBox="0 0 2400 2800">
<defs>
  <clipPath id="clip830">
    <rect x="0" y="0" width="2400" height="2800"/>
  </clipPath>
</defs>
<path clip-path="url(#clip830)" d="M0 2800 L2400 2800 L2400 0 L0 0  Z" fill="#ffffff" fill-rule="evenodd" fill-opacity="1"/>
<defs>
  <clipPath id="clip831">
    <rect x="560" y="280" width="1961" height="1961"/>
  </clipPath>
</defs>
<path clip-path="url(#clip830)" d="M278.623 761.492 L2352.76 761.492 L2352.76 47.2441 L278.623 47.2441  Z" fill="#ffffff" fill-rule="evenodd" fill-opacity="1"/>
<defs>
  <clipPath id="clip832">
    <rect x="278" y="47" width="2075" height="715"/>
  </clipPath>
</defs>
<polyline clip-path="url(#clip832)" style="stroke:#000000; stroke-linecap:round; stroke-linejoin:round; stroke-width:2; stroke-opacity:0.1; fill:none" points="324.192,761.492 324.192,47.2441 "/>
<polyline clip-path="url(#clip832)" style="stroke:#000000; stroke-linecap:round; stroke-linejoin:round; stroke-width:2; stroke-opacity:0.1; fill:none" points="980.813,761.492 980.813,47.2441 "/>
<polyline clip-path="url(#clip832)" style="stroke:#000000; stroke-linecap:round; stroke-linejoin:round; stroke-width:2; stroke-opacity:0.1; fill:none" points="1637.43,761.492 1637.43,47.2441 "/>
<polyline clip-path="url(#clip832)" style="stroke:#000000; stroke-linecap:round; stroke-linejoin:round; stroke-width:2; stroke-opacity:0.1; fill:none" points="2294.05,761.492 2294.05,47.2441 "/>
<polyline clip-path="url(#clip832)" style="stroke:#000000; stroke-linecap:round; stroke-linejoin:round; stroke-width:2; stroke-opacity:0.1; fill:none" points="278.623,695.113 2352.76,695.113 "/>
<polyline clip-path="url(#clip832)" style="stroke:#000000; stroke-linecap:round; stroke-linejoin:round; stroke-width:2; stroke-opacity:0.1; fill:none" points="278.623,580.595 2352.76,580.595 "/>
<polyline clip-path="url(#clip832)" style="stroke:#000000; stroke-linecap:round; stroke-linejoin:round; stroke-width:2; stroke-opacity:0.1; fill:none" points="278.623,466.076 2352.76,466.076 "/>
<polyline clip-path="url(#clip832)" style="stroke:#000000; stroke-linecap:round; stroke-linejoin:round; stroke-width:2; stroke-opacity:0.1; fill:none" points="278.623,351.558 2352.76,351.558 "/>
<polyline clip-path="url(#clip832)" style="stroke:#000000; stroke-linecap:round; stroke-linejoin:round; stroke-width:2; stroke-opacity:0.1; fill:none" points="278.623,237.039 2352.76,237.039 "/>
<polyline clip-path="url(#clip832)" style="stroke:#000000; stroke-linecap:round; stroke-linejoin:round; stroke-width:2; stroke-opacity:0.1; fill:none" points="278.623,122.52 2352.76,122.52 "/>
<polyline clip-path="url(#clip830)" style="stroke:#000000; stroke-linecap:round; stroke-linejoin:round; stroke-width:4; stroke-opacity:1; fill:none" points="278.623,761.492 2352.76,761.492 "/>
<polyline clip-path="url(#clip830)" style="stroke:#000000; stroke-linecap:round; stroke-linejoin:round; stroke-width:4; stroke-opacity:1; fill:none" points="324.192,761.492 324.192,742.594 "/>
<polyline clip-path="url(#clip830)" style="stroke:#000000; stroke-linecap:round; stroke-linejoin:round; stroke-width:4; stroke-opacity:1; fill:none" points="980.813,761.492 980.813,742.594 "/>
<polyline clip-path="url(#clip830)" style="stroke:#000000; stroke-linecap:round; stroke-linejoin:round; stroke-width:4; stroke-opacity:1; fill:none" points="1637.43,761.492 1637.43,742.594 "/>
<polyline clip-path="url(#clip830)" style="stroke:#000000; stroke-linecap:round; stroke-linejoin:round; stroke-width:4; stroke-opacity:1; fill:none" points="2294.05,761.492 2294.05,742.594 "/>
<path clip-path="url(#clip830)" d="M324.192 795.611 Q320.581 795.611 318.752 799.175 Q316.947 802.717 316.947 809.847 Q316.947 816.953 318.752 820.518 Q320.581 824.059 324.192 824.059 Q327.826 824.059 329.632 820.518 Q331.461 816.953 331.461 809.847 Q331.461 802.717 329.632 799.175 Q327.826 795.611 324.192 795.611 M324.192 791.907 Q330.002 791.907 333.058 796.513 Q336.137 801.097 336.137 809.847 Q336.137 818.573 333.058 823.18 Q330.002 827.763 324.192 827.763 Q318.382 827.763 315.303 823.18 Q312.248 818.573 312.248 809.847 Q312.248 801.097 315.303 796.513 Q318.382 791.907 324.192 791.907 Z" fill="#000000" fill-rule="nonzero" fill-opacity="1" /><path clip-path="url(#clip830)" d="M940.431 792.532 L958.787 792.532 L958.787 796.467 L944.713 796.467 L944.713 804.939 Q945.732 804.592 946.751 804.43 Q947.769 804.245 948.788 804.245 Q954.575 804.245 957.954 807.416 Q961.334 810.587 961.334 816.004 Q961.334 821.583 957.862 824.684 Q954.389 827.763 948.07 827.763 Q945.894 827.763 943.626 827.393 Q941.38 827.022 938.973 826.282 L938.973 821.583 Q941.056 822.717 943.278 823.272 Q945.501 823.828 947.977 823.828 Q951.982 823.828 954.32 821.722 Q956.658 819.615 956.658 816.004 Q956.658 812.393 954.32 810.286 Q951.982 808.18 947.977 808.18 Q946.102 808.18 944.227 808.597 Q942.376 809.013 940.431 809.893 L940.431 792.532 Z" fill="#000000" fill-rule="nonzero" fill-opacity="1" /><path clip-path="url(#clip830)" d="M980.547 795.611 Q976.936 795.611 975.107 799.175 Q973.301 802.717 973.301 809.847 Q973.301 816.953 975.107 820.518 Q976.936 824.059 980.547 824.059 Q984.181 824.059 985.986 820.518 Q987.815 816.953 987.815 809.847 Q987.815 802.717 985.986 799.175 Q984.181 795.611 980.547 795.611 M980.547 791.907 Q986.357 791.907 989.412 796.513 Q992.491 801.097 992.491 809.847 Q992.491 818.573 989.412 823.18 Q986.357 827.763 980.547 827.763 Q974.736 827.763 971.658 823.18 Q968.602 818.573 968.602 809.847 Q968.602 801.097 971.658 796.513 Q974.736 791.907 980.547 791.907 Z" fill="#000000" fill-rule="nonzero" fill-opacity="1" /><path clip-path="url(#clip830)" d="M1010.71 795.611 Q1007.1 795.611 1005.27 799.175 Q1003.46 802.717 1003.46 809.847 Q1003.46 816.953 1005.27 820.518 Q1007.1 824.059 1010.71 824.059 Q1014.34 824.059 1016.15 820.518 Q1017.98 816.953 1017.98 809.847 Q1017.98 802.717 1016.15 799.175 Q1014.34 795.611 1010.71 795.611 M1010.71 791.907 Q1016.52 791.907 1019.57 796.513 Q1022.65 801.097 1022.65 809.847 Q1022.65 818.573 1019.57 823.18 Q1016.52 827.763 1010.71 827.763 Q1004.9 827.763 1001.82 823.18 Q998.764 818.573 998.764 809.847 Q998.764 801.097 1001.82 796.513 Q1004.9 791.907 1010.71 791.907 Z" fill="#000000" fill-rule="nonzero" fill-opacity="1" /><path clip-path="url(#clip830)" d="M1581.96 823.157 L1589.6 823.157 L1589.6 796.791 L1581.29 798.458 L1581.29 794.199 L1589.55 792.532 L1594.23 792.532 L1594.23 823.157 L1601.87 823.157 L1601.87 827.092 L1581.96 827.092 L1581.96 823.157 Z" fill="#000000" fill-rule="nonzero" fill-opacity="1" /><path clip-path="url(#clip830)" d="M1621.31 795.611 Q1617.7 795.611 1615.87 799.175 Q1614.07 802.717 1614.07 809.847 Q1614.07 816.953 1615.87 820.518 Q1617.7 824.059 1621.31 824.059 Q1624.95 824.059 1626.75 820.518 Q1628.58 816.953 1628.58 809.847 Q1628.58 802.717 1626.75 799.175 Q1624.95 795.611 1621.31 795.611 M1621.31 791.907 Q1627.12 791.907 1630.18 796.513 Q1633.26 801.097 1633.26 809.847 Q1633.26 818.573 1630.18 823.18 Q1627.12 827.763 1621.31 827.763 Q1615.5 827.763 1612.42 823.18 Q1609.37 818.573 1609.37 809.847 Q1609.37 801.097 1612.42 796.513 Q1615.5 791.907 1621.31 791.907 Z" fill="#000000" fill-rule="nonzero" fill-opacity="1" /><path clip-path="url(#clip830)" d="M1651.47 795.611 Q1647.86 795.611 1646.03 799.175 Q1644.23 802.717 1644.23 809.847 Q1644.23 816.953 1646.03 820.518 Q1647.86 824.059 1651.47 824.059 Q1655.11 824.059 1656.91 820.518 Q1658.74 816.953 1658.74 809.847 Q1658.74 802.717 1656.91 799.175 Q1655.11 795.611 1651.47 795.611 M1651.47 791.907 Q1657.28 791.907 1660.34 796.513 Q1663.42 801.097 1663.42 809.847 Q1663.42 818.573 1660.34 823.18 Q1657.28 827.763 1651.47 827.763 Q1645.66 827.763 1642.58 823.18 Q1639.53 818.573 1639.53 809.847 Q1639.53 801.097 1642.58 796.513 Q1645.66 791.907 1651.47 791.907 Z" fill="#000000" fill-rule="nonzero" fill-opacity="1" /><path clip-path="url(#clip830)" d="M1681.63 795.611 Q1678.02 795.611 1676.19 799.175 Q1674.39 802.717 1674.39 809.847 Q1674.39 816.953 1676.19 820.518 Q1678.02 824.059 1681.63 824.059 Q1685.27 824.059 1687.07 820.518 Q1688.9 816.953 1688.9 809.847 Q1688.9 802.717 1687.07 799.175 Q1685.27 795.611 1681.63 795.611 M1681.63 791.907 Q1687.44 791.907 1690.5 796.513 Q1693.58 801.097 1693.58 809.847 Q1693.58 818.573 1690.5 823.18 Q1687.44 827.763 1681.63 827.763 Q1675.82 827.763 1672.75 823.18 Q1669.69 818.573 1669.69 809.847 Q1669.69 801.097 1672.75 796.513 Q1675.82 791.907 1681.63 791.907 Z" fill="#000000" fill-rule="nonzero" fill-opacity="1" /><path clip-path="url(#clip830)" d="M2238.58 823.157 L2246.22 823.157 L2246.22 796.791 L2237.91 798.458 L2237.91 794.199 L2246.17 792.532 L2250.85 792.532 L2250.85 823.157 L2258.49 823.157 L2258.49 827.092 L2238.58 827.092 L2238.58 823.157 Z" fill="#000000" fill-rule="nonzero" fill-opacity="1" /><path clip-path="url(#clip830)" d="M2267.98 792.532 L2286.33 792.532 L2286.33 796.467 L2272.26 796.467 L2272.26 804.939 Q2273.28 804.592 2274.3 804.43 Q2275.32 804.245 2276.33 804.245 Q2282.12 804.245 2285.5 807.416 Q2288.88 810.587 2288.88 816.004 Q2288.88 821.583 2285.41 824.684 Q2281.94 827.763 2275.62 827.763 Q2273.44 827.763 2271.17 827.393 Q2268.93 827.022 2266.52 826.282 L2266.52 821.583 Q2268.6 822.717 2270.82 823.272 Q2273.05 823.828 2275.52 823.828 Q2279.53 823.828 2281.87 821.722 Q2284.2 819.615 2284.2 816.004 Q2284.2 812.393 2281.87 810.286 Q2279.53 808.18 2275.52 808.18 Q2273.65 808.18 2271.77 808.597 Q2269.92 809.013 2267.98 809.893 L2267.98 792.532 Z" fill="#000000" fill-rule="nonzero" fill-opacity="1" /><path clip-path="url(#clip830)" d="M2308.09 795.611 Q2304.48 795.611 2302.65 799.175 Q2300.85 802.717 2300.85 809.847 Q2300.85 816.953 2302.65 820.518 Q2304.48 824.059 2308.09 824.059 Q2311.73 824.059 2313.53 820.518 Q2315.36 816.953 2315.36 809.847 Q2315.36 802.717 2313.53 799.175 Q2311.73 795.611 2308.09 795.611 M2308.09 791.907 Q2313.9 791.907 2316.96 796.513 Q2320.04 801.097 2320.04 809.847 Q2320.04 818.573 2316.96 823.18 Q2313.9 827.763 2308.09 827.763 Q2302.28 827.763 2299.2 823.18 Q2296.15 818.573 2296.15 809.847 Q2296.15 801.097 2299.2 796.513 Q2302.28 791.907 2308.09 791.907 Z" fill="#000000" fill-rule="nonzero" fill-opacity="1" /><path clip-path="url(#clip830)" d="M2338.26 795.611 Q2334.64 795.611 2332.82 799.175 Q2331.01 802.717 2331.01 809.847 Q2331.01 816.953 2332.82 820.518 Q2334.64 824.059 2338.26 824.059 Q2341.89 824.059 2343.69 820.518 Q2345.52 816.953 2345.52 809.847 Q2345.52 802.717 2343.69 799.175 Q2341.89 795.611 2338.26 795.611 M2338.26 791.907 Q2344.07 791.907 2347.12 796.513 Q2350.2 801.097 2350.2 809.847 Q2350.2 818.573 2347.12 823.18 Q2344.07 827.763 2338.26 827.763 Q2332.45 827.763 2329.37 823.18 Q2326.31 818.573 2326.31 809.847 Q2326.31 801.097 2329.37 796.513 Q2332.45 791.907 2338.26 791.907 Z" fill="#000000" fill-rule="nonzero" fill-opacity="1" /><polyline clip-path="url(#clip830)" style="stroke:#000000; stroke-linecap:round; stroke-linejoin:round; stroke-width:4; stroke-opacity:1; fill:none" points="278.623,761.492 278.623,47.2441 "/>
<polyline clip-path="url(#clip830)" style="stroke:#000000; stroke-linecap:round; stroke-linejoin:round; stroke-width:4; stroke-opacity:1; fill:none" points="278.623,695.113 297.52,695.113 "/>
<polyline clip-path="url(#clip830)" style="stroke:#000000; stroke-linecap:round; stroke-linejoin:round; stroke-width:4; stroke-opacity:1; fill:none" points="278.623,580.595 297.52,580.595 "/>
<polyline clip-path="url(#clip830)" style="stroke:#000000; stroke-linecap:round; stroke-linejoin:round; stroke-width:4; stroke-opacity:1; fill:none" points="278.623,466.076 297.52,466.076 "/>
<polyline clip-path="url(#clip830)" style="stroke:#000000; stroke-linecap:round; stroke-linejoin:round; stroke-width:4; stroke-opacity:1; fill:none" points="278.623,351.558 297.52,351.558 "/>
<polyline clip-path="url(#clip830)" style="stroke:#000000; stroke-linecap:round; stroke-linejoin:round; stroke-width:4; stroke-opacity:1; fill:none" points="278.623,237.039 297.52,237.039 "/>
<polyline clip-path="url(#clip830)" style="stroke:#000000; stroke-linecap:round; stroke-linejoin:round; stroke-width:4; stroke-opacity:1; fill:none" points="278.623,122.52 297.52,122.52 "/>
<path clip-path="url(#clip830)" d="M125.003 708.458 L132.642 708.458 L132.642 682.092 L124.332 683.759 L124.332 679.5 L132.596 677.833 L137.271 677.833 L137.271 708.458 L144.91 708.458 L144.91 712.393 L125.003 712.393 L125.003 708.458 Z" fill="#000000" fill-rule="nonzero" fill-opacity="1" /><path clip-path="url(#clip830)" d="M164.355 680.912 Q160.744 680.912 158.915 684.477 Q157.109 688.018 157.109 695.148 Q157.109 702.254 158.915 705.819 Q160.744 709.361 164.355 709.361 Q167.989 709.361 169.794 705.819 Q171.623 702.254 171.623 695.148 Q171.623 688.018 169.794 684.477 Q167.989 680.912 164.355 680.912 M164.355 677.208 Q170.165 677.208 173.22 681.815 Q176.299 686.398 176.299 695.148 Q176.299 703.875 173.22 708.481 Q170.165 713.065 164.355 713.065 Q158.544 713.065 155.466 708.481 Q152.41 703.875 152.41 695.148 Q152.41 686.398 155.466 681.815 Q158.544 677.208 164.355 677.208 Z" fill="#000000" fill-rule="nonzero" fill-opacity="1" /><path clip-path="url(#clip830)" d="M194.517 680.912 Q190.905 680.912 189.077 684.477 Q187.271 688.018 187.271 695.148 Q187.271 702.254 189.077 705.819 Q190.905 709.361 194.517 709.361 Q198.151 709.361 199.956 705.819 Q201.785 702.254 201.785 695.148 Q201.785 688.018 199.956 684.477 Q198.151 680.912 194.517 680.912 M194.517 677.208 Q200.327 677.208 203.382 681.815 Q206.461 686.398 206.461 695.148 Q206.461 703.875 203.382 708.481 Q200.327 713.065 194.517 713.065 Q188.706 713.065 185.628 708.481 Q182.572 703.875 182.572 695.148 Q182.572 686.398 185.628 681.815 Q188.706 677.208 194.517 677.208 Z" fill="#000000" fill-rule="nonzero" fill-opacity="1" /><path clip-path="url(#clip830)" d="M224.678 680.912 Q221.067 680.912 219.239 684.477 Q217.433 688.018 217.433 695.148 Q217.433 702.254 219.239 705.819 Q221.067 709.361 224.678 709.361 Q228.313 709.361 230.118 705.819 Q231.947 702.254 231.947 695.148 Q231.947 688.018 230.118 684.477 Q228.313 680.912 224.678 680.912 M224.678 677.208 Q230.489 677.208 233.544 681.815 Q236.623 686.398 236.623 695.148 Q236.623 703.875 233.544 708.481 Q230.489 713.065 224.678 713.065 Q218.868 713.065 215.79 708.481 Q212.734 703.875 212.734 695.148 Q212.734 686.398 215.79 681.815 Q218.868 677.208 224.678 677.208 Z" fill="#000000" fill-rule="nonzero" fill-opacity="1" /><path clip-path="url(#clip830)" d="M128.221 593.939 L144.54 593.939 L144.54 597.875 L122.596 597.875 L122.596 593.939 Q125.258 591.185 129.841 586.555 Q134.447 581.903 135.628 580.56 Q137.873 578.037 138.753 576.301 Q139.656 574.541 139.656 572.852 Q139.656 570.097 137.711 568.361 Q135.79 566.625 132.688 566.625 Q130.489 566.625 128.035 567.389 Q125.605 568.153 122.827 569.703 L122.827 564.981 Q125.651 563.847 128.105 563.268 Q130.559 562.69 132.596 562.69 Q137.966 562.69 141.16 565.375 Q144.355 568.06 144.355 572.551 Q144.355 574.68 143.545 576.602 Q142.758 578.5 140.651 581.092 Q140.072 581.764 136.971 584.981 Q133.869 588.176 128.221 593.939 Z" fill="#000000" fill-rule="nonzero" fill-opacity="1" /><path clip-path="url(#clip830)" d="M164.355 566.393 Q160.744 566.393 158.915 569.958 Q157.109 573.5 157.109 580.629 Q157.109 587.736 158.915 591.301 Q160.744 594.842 164.355 594.842 Q167.989 594.842 169.794 591.301 Q171.623 587.736 171.623 580.629 Q171.623 573.5 169.794 569.958 Q167.989 566.393 164.355 566.393 M164.355 562.69 Q170.165 562.69 173.22 567.296 Q176.299 571.879 176.299 580.629 Q176.299 589.356 173.22 593.963 Q170.165 598.546 164.355 598.546 Q158.544 598.546 155.466 593.963 Q152.41 589.356 152.41 580.629 Q152.41 571.879 155.466 567.296 Q158.544 562.69 164.355 562.69 Z" fill="#000000" fill-rule="nonzero" fill-opacity="1" /><path clip-path="url(#clip830)" d="M194.517 566.393 Q190.905 566.393 189.077 569.958 Q187.271 573.5 187.271 580.629 Q187.271 587.736 189.077 591.301 Q190.905 594.842 194.517 594.842 Q198.151 594.842 199.956 591.301 Q201.785 587.736 201.785 580.629 Q201.785 573.5 199.956 569.958 Q198.151 566.393 194.517 566.393 M194.517 562.69 Q200.327 562.69 203.382 567.296 Q206.461 571.879 206.461 580.629 Q206.461 589.356 203.382 593.963 Q200.327 598.546 194.517 598.546 Q188.706 598.546 185.628 593.963 Q182.572 589.356 182.572 580.629 Q182.572 571.879 185.628 567.296 Q188.706 562.69 194.517 562.69 Z" fill="#000000" fill-rule="nonzero" fill-opacity="1" /><path clip-path="url(#clip830)" d="M224.678 566.393 Q221.067 566.393 219.239 569.958 Q217.433 573.5 217.433 580.629 Q217.433 587.736 219.239 591.301 Q221.067 594.842 224.678 594.842 Q228.313 594.842 230.118 591.301 Q231.947 587.736 231.947 580.629 Q231.947 573.5 230.118 569.958 Q228.313 566.393 224.678 566.393 M224.678 562.69 Q230.489 562.69 233.544 567.296 Q236.623 571.879 236.623 580.629 Q236.623 589.356 233.544 593.963 Q230.489 598.546 224.678 598.546 Q218.868 598.546 215.79 593.963 Q212.734 589.356 212.734 580.629 Q212.734 571.879 215.79 567.296 Q218.868 562.69 224.678 562.69 Z" fill="#000000" fill-rule="nonzero" fill-opacity="1" /><path clip-path="url(#clip830)" d="M138.359 464.722 Q141.716 465.44 143.591 467.708 Q145.489 469.977 145.489 473.31 Q145.489 478.426 141.971 481.226 Q138.452 484.027 131.971 484.027 Q129.795 484.027 127.48 483.588 Q125.188 483.171 122.734 482.314 L122.734 477.801 Q124.679 478.935 126.994 479.514 Q129.309 480.092 131.832 480.092 Q136.23 480.092 138.521 478.356 Q140.836 476.62 140.836 473.31 Q140.836 470.254 138.683 468.541 Q136.554 466.805 132.734 466.805 L128.707 466.805 L128.707 462.963 L132.92 462.963 Q136.369 462.963 138.197 461.597 Q140.026 460.208 140.026 457.615 Q140.026 454.953 138.128 453.541 Q136.253 452.106 132.734 452.106 Q130.813 452.106 128.614 452.523 Q126.415 452.94 123.776 453.819 L123.776 449.653 Q126.438 448.912 128.753 448.541 Q131.091 448.171 133.151 448.171 Q138.475 448.171 141.577 450.602 Q144.679 453.009 144.679 457.129 Q144.679 460 143.035 461.99 Q141.392 463.958 138.359 464.722 Z" fill="#000000" fill-rule="nonzero" fill-opacity="1" /><path clip-path="url(#clip830)" d="M164.355 451.875 Q160.744 451.875 158.915 455.44 Q157.109 458.981 157.109 466.111 Q157.109 473.217 158.915 476.782 Q160.744 480.324 164.355 480.324 Q167.989 480.324 169.794 476.782 Q171.623 473.217 171.623 466.111 Q171.623 458.981 169.794 455.44 Q167.989 451.875 164.355 451.875 M164.355 448.171 Q170.165 448.171 173.22 452.778 Q176.299 457.361 176.299 466.111 Q176.299 474.838 173.22 479.444 Q170.165 484.027 164.355 484.027 Q158.544 484.027 155.466 479.444 Q152.41 474.838 152.41 466.111 Q152.41 457.361 155.466 452.778 Q158.544 448.171 164.355 448.171 Z" fill="#000000" fill-rule="nonzero" fill-opacity="1" /><path clip-path="url(#clip830)" d="M194.517 451.875 Q190.905 451.875 189.077 455.44 Q187.271 458.981 187.271 466.111 Q187.271 473.217 189.077 476.782 Q190.905 480.324 194.517 480.324 Q198.151 480.324 199.956 476.782 Q201.785 473.217 201.785 466.111 Q201.785 458.981 199.956 455.44 Q198.151 451.875 194.517 451.875 M194.517 448.171 Q200.327 448.171 203.382 452.778 Q206.461 457.361 206.461 466.111 Q206.461 474.838 203.382 479.444 Q200.327 484.027 194.517 484.027 Q188.706 484.027 185.628 479.444 Q182.572 474.838 182.572 466.111 Q182.572 457.361 185.628 452.778 Q188.706 448.171 194.517 448.171 Z" fill="#000000" fill-rule="nonzero" fill-opacity="1" /><path clip-path="url(#clip830)" d="M224.678 451.875 Q221.067 451.875 219.239 455.44 Q217.433 458.981 217.433 466.111 Q217.433 473.217 219.239 476.782 Q221.067 480.324 224.678 480.324 Q228.313 480.324 230.118 476.782 Q231.947 473.217 231.947 466.111 Q231.947 458.981 230.118 455.44 Q228.313 451.875 224.678 451.875 M224.678 448.171 Q230.489 448.171 233.544 452.778 Q236.623 457.361 236.623 466.111 Q236.623 474.838 233.544 479.444 Q230.489 484.027 224.678 484.027 Q218.868 484.027 215.79 479.444 Q212.734 474.838 212.734 466.111 Q212.734 457.361 215.79 452.778 Q218.868 448.171 224.678 448.171 Z" fill="#000000" fill-rule="nonzero" fill-opacity="1" /><path clip-path="url(#clip830)" d="M137.04 338.352 L125.234 356.801 L137.04 356.801 L137.04 338.352 M135.813 334.278 L141.693 334.278 L141.693 356.801 L146.623 356.801 L146.623 360.689 L141.693 360.689 L141.693 368.838 L137.04 368.838 L137.04 360.689 L121.438 360.689 L121.438 356.176 L135.813 334.278 Z" fill="#000000" fill-rule="nonzero" fill-opacity="1" /><path clip-path="url(#clip830)" d="M164.355 337.356 Q160.744 337.356 158.915 340.921 Q157.109 344.463 157.109 351.592 Q157.109 358.699 158.915 362.263 Q160.744 365.805 164.355 365.805 Q167.989 365.805 169.794 362.263 Q171.623 358.699 171.623 351.592 Q171.623 344.463 169.794 340.921 Q167.989 337.356 164.355 337.356 M164.355 333.653 Q170.165 333.653 173.22 338.259 Q176.299 342.842 176.299 351.592 Q176.299 360.319 173.22 364.925 Q170.165 369.509 164.355 369.509 Q158.544 369.509 155.466 364.925 Q152.41 360.319 152.41 351.592 Q152.41 342.842 155.466 338.259 Q158.544 333.653 164.355 333.653 Z" fill="#000000" fill-rule="nonzero" fill-opacity="1" /><path clip-path="url(#clip830)" d="M194.517 337.356 Q190.905 337.356 189.077 340.921 Q187.271 344.463 187.271 351.592 Q187.271 358.699 189.077 362.263 Q190.905 365.805 194.517 365.805 Q198.151 365.805 199.956 362.263 Q201.785 358.699 201.785 351.592 Q201.785 344.463 199.956 340.921 Q198.151 337.356 194.517 337.356 M194.517 333.653 Q200.327 333.653 203.382 338.259 Q206.461 342.842 206.461 351.592 Q206.461 360.319 203.382 364.925 Q200.327 369.509 194.517 369.509 Q188.706 369.509 185.628 364.925 Q182.572 360.319 182.572 351.592 Q182.572 342.842 185.628 338.259 Q188.706 333.653 194.517 333.653 Z" fill="#000000" fill-rule="nonzero" fill-opacity="1" /><path clip-path="url(#clip830)" d="M224.678 337.356 Q221.067 337.356 219.239 340.921 Q217.433 344.463 217.433 351.592 Q217.433 358.699 219.239 362.263 Q221.067 365.805 224.678 365.805 Q228.313 365.805 230.118 362.263 Q231.947 358.699 231.947 351.592 Q231.947 344.463 230.118 340.921 Q228.313 337.356 224.678 337.356 M224.678 333.653 Q230.489 333.653 233.544 338.259 Q236.623 342.842 236.623 351.592 Q236.623 360.319 233.544 364.925 Q230.489 369.509 224.678 369.509 Q218.868 369.509 215.79 364.925 Q212.734 360.319 212.734 351.592 Q212.734 342.842 215.79 338.259 Q218.868 333.653 224.678 333.653 Z" fill="#000000" fill-rule="nonzero" fill-opacity="1" /><path clip-path="url(#clip830)" d="M124.239 219.759 L142.595 219.759 L142.595 223.694 L128.521 223.694 L128.521 232.166 Q129.54 231.819 130.559 231.657 Q131.577 231.472 132.596 231.472 Q138.383 231.472 141.762 234.643 Q145.142 237.814 145.142 243.231 Q145.142 248.81 141.67 251.912 Q138.197 254.99 131.878 254.99 Q129.702 254.99 127.434 254.62 Q125.188 254.249 122.781 253.509 L122.781 248.81 Q124.864 249.944 127.086 250.5 Q129.309 251.055 131.785 251.055 Q135.79 251.055 138.128 248.949 Q140.466 246.842 140.466 243.231 Q140.466 239.62 138.128 237.513 Q135.79 235.407 131.785 235.407 Q129.91 235.407 128.035 235.824 Q126.184 236.24 124.239 237.12 L124.239 219.759 Z" fill="#000000" fill-rule="nonzero" fill-opacity="1" /><path clip-path="url(#clip830)" d="M164.355 222.838 Q160.744 222.838 158.915 226.402 Q157.109 229.944 157.109 237.074 Q157.109 244.18 158.915 247.745 Q160.744 251.287 164.355 251.287 Q167.989 251.287 169.794 247.745 Q171.623 244.18 171.623 237.074 Q171.623 229.944 169.794 226.402 Q167.989 222.838 164.355 222.838 M164.355 219.134 Q170.165 219.134 173.22 223.74 Q176.299 228.324 176.299 237.074 Q176.299 245.8 173.22 250.407 Q170.165 254.99 164.355 254.99 Q158.544 254.99 155.466 250.407 Q152.41 245.8 152.41 237.074 Q152.41 228.324 155.466 223.74 Q158.544 219.134 164.355 219.134 Z" fill="#000000" fill-rule="nonzero" fill-opacity="1" /><path clip-path="url(#clip830)" d="M194.517 222.838 Q190.905 222.838 189.077 226.402 Q187.271 229.944 187.271 237.074 Q187.271 244.18 189.077 247.745 Q190.905 251.287 194.517 251.287 Q198.151 251.287 199.956 247.745 Q201.785 244.18 201.785 237.074 Q201.785 229.944 199.956 226.402 Q198.151 222.838 194.517 222.838 M194.517 219.134 Q200.327 219.134 203.382 223.74 Q206.461 228.324 206.461 237.074 Q206.461 245.8 203.382 250.407 Q200.327 254.99 194.517 254.99 Q188.706 254.99 185.628 250.407 Q182.572 245.8 182.572 237.074 Q182.572 228.324 185.628 223.74 Q188.706 219.134 194.517 219.134 Z" fill="#000000" fill-rule="nonzero" fill-opacity="1" /><path clip-path="url(#clip830)" d="M224.678 222.838 Q221.067 222.838 219.239 226.402 Q217.433 229.944 217.433 237.074 Q217.433 244.18 219.239 247.745 Q221.067 251.287 224.678 251.287 Q228.313 251.287 230.118 247.745 Q231.947 244.18 231.947 237.074 Q231.947 229.944 230.118 226.402 Q228.313 222.838 224.678 222.838 M224.678 219.134 Q230.489 219.134 233.544 223.74 Q236.623 228.324 236.623 237.074 Q236.623 245.8 233.544 250.407 Q230.489 254.99 224.678 254.99 Q218.868 254.99 215.79 250.407 Q212.734 245.8 212.734 237.074 Q212.734 228.324 215.79 223.74 Q218.868 219.134 224.678 219.134 Z" fill="#000000" fill-rule="nonzero" fill-opacity="1" /><path clip-path="url(#clip830)" d="M134.771 120.657 Q131.623 120.657 129.771 122.81 Q127.943 124.962 127.943 128.712 Q127.943 132.439 129.771 134.615 Q131.623 136.768 134.771 136.768 Q137.92 136.768 139.748 134.615 Q141.6 132.439 141.6 128.712 Q141.6 124.962 139.748 122.81 Q137.92 120.657 134.771 120.657 M144.054 106.004 L144.054 110.263 Q142.295 109.43 140.489 108.99 Q138.707 108.551 136.947 108.551 Q132.318 108.551 129.864 111.676 Q127.434 114.801 127.086 121.12 Q128.452 119.106 130.512 118.041 Q132.572 116.953 135.049 116.953 Q140.258 116.953 143.267 120.125 Q146.299 123.273 146.299 128.712 Q146.299 134.037 143.151 137.254 Q140.003 140.472 134.771 140.472 Q128.776 140.472 125.605 135.888 Q122.434 131.282 122.434 122.555 Q122.434 114.361 126.322 109.5 Q130.211 104.615 136.762 104.615 Q138.521 104.615 140.304 104.963 Q142.109 105.31 144.054 106.004 Z" fill="#000000" fill-rule="nonzero" fill-opacity="1" /><path clip-path="url(#clip830)" d="M164.355 108.319 Q160.744 108.319 158.915 111.884 Q157.109 115.426 157.109 122.555 Q157.109 129.662 158.915 133.226 Q160.744 136.768 164.355 136.768 Q167.989 136.768 169.794 133.226 Q171.623 129.662 171.623 122.555 Q171.623 115.426 169.794 111.884 Q167.989 108.319 164.355 108.319 M164.355 104.615 Q170.165 104.615 173.22 109.222 Q176.299 113.805 176.299 122.555 Q176.299 131.282 173.22 135.888 Q170.165 140.472 164.355 140.472 Q158.544 140.472 155.466 135.888 Q152.41 131.282 152.41 122.555 Q152.41 113.805 155.466 109.222 Q158.544 104.615 164.355 104.615 Z" fill="#000000" fill-rule="nonzero" fill-opacity="1" /><path clip-path="url(#clip830)" d="M194.517 108.319 Q190.905 108.319 189.077 111.884 Q187.271 115.426 187.271 122.555 Q187.271 129.662 189.077 133.226 Q190.905 136.768 194.517 136.768 Q198.151 136.768 199.956 133.226 Q201.785 129.662 201.785 122.555 Q201.785 115.426 199.956 111.884 Q198.151 108.319 194.517 108.319 M194.517 104.615 Q200.327 104.615 203.382 109.222 Q206.461 113.805 206.461 122.555 Q206.461 131.282 203.382 135.888 Q200.327 140.472 194.517 140.472 Q188.706 140.472 185.628 135.888 Q182.572 131.282 182.572 122.555 Q182.572 113.805 185.628 109.222 Q188.706 104.615 194.517 104.615 Z" fill="#000000" fill-rule="nonzero" fill-opacity="1" /><path clip-path="url(#clip830)" d="M224.678 108.319 Q221.067 108.319 219.239 111.884 Q217.433 115.426 217.433 122.555 Q217.433 129.662 219.239 133.226 Q221.067 136.768 224.678 136.768 Q228.313 136.768 230.118 133.226 Q231.947 129.662 231.947 122.555 Q231.947 115.426 230.118 111.884 Q228.313 108.319 224.678 108.319 M224.678 104.615 Q230.489 104.615 233.544 109.222 Q236.623 113.805 236.623 122.555 Q236.623 131.282 233.544 135.888 Q230.489 140.472 224.678 140.472 Q218.868 140.472 215.79 135.888 Q212.734 131.282 212.734 122.555 Q212.734 113.805 215.79 109.222 Q218.868 104.615 224.678 104.615 Z" fill="#000000" fill-rule="nonzero" fill-opacity="1" /><path clip-path="url(#clip830)" d="M22.9457 573.473 L59.8987 573.473 L59.8987 565.707 Q59.8987 555.872 55.4427 551.32 Q50.9867 546.737 41.3745 546.737 Q31.8259 546.737 27.4017 551.32 Q22.9457 555.872 22.9457 565.707 L22.9457 573.473 M17.6622 579.902 L17.6622 566.693 Q17.6622 552.88 23.4232 546.419 Q29.1523 539.958 41.3745 539.958 Q53.6603 539.958 59.4212 546.451 Q65.1822 552.944 65.1822 566.693 L65.1822 579.902 L17.6622 579.902 Z" fill="#000000" fill-rule="nonzero" fill-opacity="1" /><path clip-path="url(#clip830)" d="M37.4596 532.223 L37.4596 528.531 L65.1822 528.531 L65.1822 532.223 L37.4596 532.223 Z" fill="#000000" fill-rule="nonzero" fill-opacity="1" /><path clip-path="url(#clip830)" d="M17.3121 525.412 L17.3121 500.076 L20.3358 500.076 L20.3358 510.707 L43.9207 510.707 L43.9207 514.781 L20.3358 514.781 L20.3358 525.412 L17.3121 525.412 Z" fill="#000000" fill-rule="nonzero" fill-opacity="1" /><path clip-path="url(#clip830)" d="M17.3121 500.331 L17.3121 474.995 L20.3358 474.995 L20.3358 485.626 L43.9207 485.626 L43.9207 489.7 L20.3358 489.7 L20.3358 500.331 L17.3121 500.331 Z" fill="#000000" fill-rule="nonzero" fill-opacity="1" /><path clip-path="url(#clip830)" d="M15.7207 434.191 Q23.0412 438.456 30.2026 440.525 Q37.3641 442.594 44.7165 442.594 Q52.0688 442.594 59.2939 440.525 Q66.4872 438.425 73.7759 434.191 L73.7759 439.284 Q66.2962 444.058 59.0711 446.445 Q51.846 448.801 44.7165 448.801 Q37.6187 448.801 30.4254 446.445 Q23.2322 444.09 15.7207 439.284 L15.7207 434.191 Z" fill="#000000" fill-rule="nonzero" fill-opacity="1" /><path clip-path="url(#clip830)" d="M78.7412 423.433 L29.5342 423.433 L29.5342 417.577 L51.6869 417.577 Q56.302 417.577 58.6574 415.381 Q61.0127 413.184 61.0127 408.888 Q61.0127 404.177 58.3391 401.822 Q55.6655 399.435 50.3183 399.435 L29.5342 399.435 L29.5342 393.578 L56.9704 393.578 Q58.8802 393.578 59.8032 393.037 Q60.6944 392.464 60.6944 391.286 Q60.6944 391 60.5352 390.491 Q60.3443 389.981 59.9623 389.09 L64.6729 389.09 Q65.405 390.395 65.7551 391.573 Q66.1052 392.719 66.1052 393.833 Q66.1052 396.029 64.8639 397.334 Q63.6226 398.639 61.0763 399.116 Q63.5908 400.708 64.8639 403.031 Q66.1052 405.323 66.1052 408.442 Q66.1052 411.689 64.8639 413.98 Q63.6226 416.24 61.14 417.577 L78.7412 417.577 L78.7412 423.433 Z" fill="#000000" fill-rule="nonzero" fill-opacity="1" /><path clip-path="url(#clip830)" d="M17.6622 381.101 L17.6622 374.672 L37.746 374.672 L17.6622 353.347 L17.6622 345.071 L39.8149 368.656 L65.1822 343.385 L65.1822 351.851 L42.2975 374.672 L65.1822 374.672 L65.1822 381.101 L17.6622 381.101 Z" fill="#000000" fill-rule="nonzero" fill-opacity="1" /><path clip-path="url(#clip830)" d="M17.6622 314.325 L35.3907 297.042 L35.3907 303.44 L22.8184 317.444 L35.3907 331.449 L35.3907 337.846 L17.6622 320.563 L17.6622 314.325 Z" fill="#000000" fill-rule="nonzero" fill-opacity="1" /><path clip-path="url(#clip830)" d="M59.7714 277.627 L59.7714 255.188 L65.1822 255.188 L65.1822 285.361 L59.7714 285.361 Q55.9838 281.701 49.6181 275.399 Q43.2205 269.065 41.3745 267.442 Q37.9052 264.354 35.518 263.145 Q33.099 261.903 30.7756 261.903 Q26.988 261.903 24.6008 264.577 Q22.2137 267.219 22.2137 271.484 Q22.2137 274.508 23.264 277.881 Q24.3144 281.223 26.4469 285.043 L19.9539 285.043 Q18.3943 281.16 17.5985 277.786 Q16.8028 274.412 16.8028 271.611 Q16.8028 264.227 20.4949 259.835 Q24.1871 255.442 30.3618 255.442 Q33.29 255.442 35.9318 256.556 Q38.5417 257.638 42.1065 260.535 Q43.0295 261.331 47.4537 265.596 Q51.846 269.861 59.7714 277.627 Z" fill="#000000" fill-rule="nonzero" fill-opacity="1" /><path clip-path="url(#clip830)" d="M15.7207 243.443 L15.7207 238.35 Q23.2322 233.576 30.4254 231.221 Q37.6187 228.834 44.7165 228.834 Q51.846 228.834 59.0711 231.221 Q66.2962 233.576 73.7759 238.35 L73.7759 243.443 Q66.4872 239.21 59.2939 237.141 Q52.0688 235.04 44.7165 235.04 Q37.3641 235.04 30.2026 237.141 Q23.0412 239.21 15.7207 243.443 Z" fill="#000000" fill-rule="nonzero" fill-opacity="1" /><polyline clip-path="url(#clip832)" style="stroke:#009af9; stroke-linecap:round; stroke-linejoin:round; stroke-width:4; stroke-opacity:1; fill:none" points="337.325,716.137 343.891,711.81 350.457,704.93 357.023,695.999 363.589,686.074 370.156,675.207 376.722,663.582 383.288,651.341 389.854,638.426 396.421,624.897 402.987,610.843 409.553,596.091 416.119,580.812 422.685,564.897 429.252,548.317 435.818,531.219 442.384,513.452 448.95,495.116 455.516,476.271 462.083,456.871 468.649,437.03 475.215,416.819 481.781,396.223 488.347,375.43 494.914,354.47 501.48,333.401 508.046,312.457 514.612,291.601 521.178,271.005 527.745,250.843 534.311,231.13 540.877,212.045 547.443,193.73 554.009,176.214 560.576,159.701 567.142,144.273 573.708,129.958 580.274,117.002 586.84,105.349 593.407,95.1188 599.973,86.4784 606.539,79.3485 613.105,73.8289 619.672,70.0534 626.238,67.9042 632.804,67.4587 639.37,68.7699 645.936,71.7126 652.503,76.3864 659.069,82.6944 665.635,90.5503 672.201,100.004 678.767,110.899 685.334,123.142 691.9,136.757 698.466,151.546 705.032,167.403 711.598,184.332 718.165,202.077 724.731,220.58 731.297,239.753 737.863,259.384 744.429,279.414 750.996,299.679 757.562,320.033 764.128,340.408 770.694,360.629 777.26,380.555 783.827,400.147 790.393,419.212 796.959,437.667 803.525,455.453 810.091,472.413 816.658,488.511 823.224,503.665 829.79,517.783 836.356,530.842 842.923,542.786 849.489,553.553 856.055,563.168 862.621,571.571 869.187,578.768 875.754,584.79 882.32,589.606 888.886,593.282 895.452,595.825 902.018,597.279 908.585,597.709 915.151,597.153 921.717,595.674 928.283,593.369 934.849,590.269 941.416,586.484 947.982,582.1 954.548,577.155 961.114,571.804 967.68,566.086 974.247,560.085 980.813,553.938 987.379,547.679 993.945,541.398 1000.51,535.228 1007.08,529.171 1013.64,523.339 1020.21,517.837 1026.78,512.634 1033.34,507.878 1039.91,503.6 1046.47,499.784 1053.04,496.559 1059.61,493.917 1066.17,491.838 1072.74,490.429 1079.31,489.647 1085.87,489.474 1092.44,489.984 1099,491.086 1105.57,492.799 1112.14,495.129 1118.7,497.981 1125.27,501.376 1131.84,505.274 1138.4,509.584 1144.97,514.312 1151.53,519.398 1158.1,524.75 1164.67,530.367 1171.23,536.162 1177.8,542.073 1184.37,548.066 1190.93,554.057 1197.5,560.008 1204.06,565.859 1210.63,571.541 1217.2,577.026 1223.76,582.254 1230.33,587.166 1236.89,591.752 1243.46,595.942 1250.03,599.721 1256.59,603.062 1263.16,605.919 1269.73,608.304 1276.29,610.18 1282.86,611.535 1289.42,612.392 1295.99,612.724 1302.56,612.54 1309.12,611.88 1315.69,610.718 1322.26,609.099 1328.82,607.059 1335.39,604.586 1341.95,601.756 1348.52,598.584 1355.09,595.098 1361.65,591.37 1368.22,587.419 1374.79,583.289 1381.35,579.054 1387.92,574.725 1394.48,570.371 1401.05,566.054 1407.62,561.775 1414.18,557.628 1420.75,553.644 1427.31,549.838 1433.88,546.298 1440.45,543.033 1447.01,540.072 1453.58,537.486 1460.15,535.262 1466.71,533.447 1473.28,532.081 1479.84,531.135 1486.41,530.672 1492.98,530.694 1499.54,531.167 1506.11,532.152 1512.68,533.624 1519.24,535.548 1525.81,537.971 1532.37,540.844 1538.94,544.142 1545.51,547.889 1552.07,552.015 1558.64,556.516 1565.21,561.381 1571.77,566.534 1578.34,571.982 1584.9,577.688 1591.47,583.579 1598.04,589.662 1604.6,595.886 1611.17,602.184 1617.73,608.561 1624.3,614.953 1630.87,621.318 1637.43,627.643 1644,633.865 1650.57,639.964 1657.13,645.911 1663.7,651.659 1670.26,657.194 1676.83,662.487 1683.4,667.501 1689.96,672.236 1696.53,676.657 1703.1,680.752 1709.66,684.518 1716.23,687.927 1722.79,690.989 1729.36,693.695 1735.93,696.034 1742.49,698.027 1749.06,699.665 1755.63,700.954 1762.19,701.922 1768.76,702.557 1775.32,702.888 1781.89,702.942 1788.46,702.709 1795.02,702.235 1801.59,701.541 1808.15,700.627 1814.72,699.546 1821.29,698.313 1827.85,696.939 1834.42,695.477 1840.99,693.933 1847.55,692.335 1854.12,690.727 1860.68,689.107 1867.25,687.516 1873.82,685.984 1880.38,684.509 1886.95,683.133 1893.52,681.875 1900.08,680.734 1906.65,679.748 1913.21,678.921 1919.78,678.26 1926.35,677.79 1932.91,677.504 1939.48,677.417 1946.05,677.537 1952.61,677.852 1959.18,678.376 1965.74,679.105 1972.31,680.024 1978.88,681.144 1985.44,682.448 1992.01,683.926 1998.57,685.578 2005.14,687.379 2011.71,689.326 2018.27,691.407 2024.84,693.591 2031.41,695.882 2037.97,698.257 2044.54,700.688 2051.1,703.176 2057.67,705.693 2064.24,708.219 2070.8,710.751 2077.37,713.256 2083.94,715.724 2090.5,718.149 2097.07,720.498 2103.63,722.77 2110.2,724.953 2116.77,727.021 2123.33,728.979 2129.9,730.813 2136.47,732.505 2143.03,734.063 2149.6,735.47 2156.16,736.725 2162.73,737.831 2169.3,738.774 2175.86,739.566 2182.43,740.207 2188.99,740.688 2195.56,741.027 2202.13,741.223 2208.69,741.277 2215.26,741.21 2221.83,741.016 2228.39,740.709 2234.96,740.308 2241.52,739.806 2248.09,739.227 2254.66,738.585 2261.22,737.877 2267.79,737.131 2274.36,736.354 2280.92,735.55 2287.49,734.749 2294.05,733.949 "/>
<path clip-path="url(#clip830)" d="M278.623 1665.82 L2352.76 1665.82 L2352.76 951.568 L278.623 951.568  Z" fill="#ffffff" fill-rule="evenodd" fill-opacity="1"/>
<defs>
  <clipPath id="clip833">
    <rect x="278" y="951" width="2075" height="715"/>
  </clipPath>
</defs>
<polyline clip-path="url(#clip833)" style="stroke:#000000; stroke-linecap:round; stroke-linejoin:round; stroke-width:2; stroke-opacity:0.1; fill:none" points="324.192,1665.82 324.192,951.568 "/>
<polyline clip-path="url(#clip833)" style="stroke:#000000; stroke-linecap:round; stroke-linejoin:round; stroke-width:2; stroke-opacity:0.1; fill:none" points="980.813,1665.82 980.813,951.568 "/>
<polyline clip-path="url(#clip833)" style="stroke:#000000; stroke-linecap:round; stroke-linejoin:round; stroke-width:2; stroke-opacity:0.1; fill:none" points="1637.43,1665.82 1637.43,951.568 "/>
<polyline clip-path="url(#clip833)" style="stroke:#000000; stroke-linecap:round; stroke-linejoin:round; stroke-width:2; stroke-opacity:0.1; fill:none" points="2294.05,1665.82 2294.05,951.568 "/>
<polyline clip-path="url(#clip833)" style="stroke:#000000; stroke-linecap:round; stroke-linejoin:round; stroke-width:2; stroke-opacity:0.1; fill:none" points="278.623,1645.63 2352.76,1645.63 "/>
<polyline clip-path="url(#clip833)" style="stroke:#000000; stroke-linecap:round; stroke-linejoin:round; stroke-width:2; stroke-opacity:0.1; fill:none" points="278.623,1492.71 2352.76,1492.71 "/>
<polyline clip-path="url(#clip833)" style="stroke:#000000; stroke-linecap:round; stroke-linejoin:round; stroke-width:2; stroke-opacity:0.1; fill:none" points="278.623,1339.78 2352.76,1339.78 "/>
<polyline clip-path="url(#clip833)" style="stroke:#000000; stroke-linecap:round; stroke-linejoin:round; stroke-width:2; stroke-opacity:0.1; fill:none" points="278.623,1186.86 2352.76,1186.86 "/>
<polyline clip-path="url(#clip833)" style="stroke:#000000; stroke-linecap:round; stroke-linejoin:round; stroke-width:2; stroke-opacity:0.1; fill:none" points="278.623,1033.94 2352.76,1033.94 "/>
<polyline clip-path="url(#clip830)" style="stroke:#000000; stroke-linecap:round; stroke-linejoin:round; stroke-width:4; stroke-opacity:1; fill:none" points="278.623,1665.82 2352.76,1665.82 "/>
<polyline clip-path="url(#clip830)" style="stroke:#000000; stroke-linecap:round; stroke-linejoin:round; stroke-width:4; stroke-opacity:1; fill:none" points="324.192,1665.82 324.192,1646.92 "/>
<polyline clip-path="url(#clip830)" style="stroke:#000000; stroke-linecap:round; stroke-linejoin:round; stroke-width:4; stroke-opacity:1; fill:none" points="980.813,1665.82 980.813,1646.92 "/>
<polyline clip-path="url(#clip830)" style="stroke:#000000; stroke-linecap:round; stroke-linejoin:round; stroke-width:4; stroke-opacity:1; fill:none" points="1637.43,1665.82 1637.43,1646.92 "/>
<polyline clip-path="url(#clip830)" style="stroke:#000000; stroke-linecap:round; stroke-linejoin:round; stroke-width:4; stroke-opacity:1; fill:none" points="2294.05,1665.82 2294.05,1646.92 "/>
<path clip-path="url(#clip830)" d="M324.192 1699.93 Q320.581 1699.93 318.752 1703.5 Q316.947 1707.04 316.947 1714.17 Q316.947 1721.28 318.752 1724.84 Q320.581 1728.38 324.192 1728.38 Q327.826 1728.38 329.632 1724.84 Q331.461 1721.28 331.461 1714.17 Q331.461 1707.04 329.632 1703.5 Q327.826 1699.93 324.192 1699.93 M324.192 1696.23 Q330.002 1696.23 333.058 1700.84 Q336.137 1705.42 336.137 1714.17 Q336.137 1722.9 333.058 1727.5 Q330.002 1732.09 324.192 1732.09 Q318.382 1732.09 315.303 1727.5 Q312.248 1722.9 312.248 1714.17 Q312.248 1705.42 315.303 1700.84 Q318.382 1696.23 324.192 1696.23 Z" fill="#000000" fill-rule="nonzero" fill-opacity="1" /><path clip-path="url(#clip830)" d="M940.431 1696.86 L958.787 1696.86 L958.787 1700.79 L944.713 1700.79 L944.713 1709.26 Q945.732 1708.92 946.751 1708.75 Q947.769 1708.57 948.788 1708.57 Q954.575 1708.57 957.954 1711.74 Q961.334 1714.91 961.334 1720.33 Q961.334 1725.91 957.862 1729.01 Q954.389 1732.09 948.07 1732.09 Q945.894 1732.09 943.626 1731.72 Q941.38 1731.35 938.973 1730.61 L938.973 1725.91 Q941.056 1727.04 943.278 1727.6 Q945.501 1728.15 947.977 1728.15 Q951.982 1728.15 954.32 1726.05 Q956.658 1723.94 956.658 1720.33 Q956.658 1716.72 954.32 1714.61 Q951.982 1712.5 947.977 1712.5 Q946.102 1712.5 944.227 1712.92 Q942.376 1713.34 940.431 1714.22 L940.431 1696.86 Z" fill="#000000" fill-rule="nonzero" fill-opacity="1" /><path clip-path="url(#clip830)" d="M980.547 1699.93 Q976.936 1699.93 975.107 1703.5 Q973.301 1707.04 973.301 1714.17 Q973.301 1721.28 975.107 1724.84 Q976.936 1728.38 980.547 1728.38 Q984.181 1728.38 985.986 1724.84 Q987.815 1721.28 987.815 1714.17 Q987.815 1707.04 985.986 1703.5 Q984.181 1699.93 980.547 1699.93 M980.547 1696.23 Q986.357 1696.23 989.412 1700.84 Q992.491 1705.42 992.491 1714.17 Q992.491 1722.9 989.412 1727.5 Q986.357 1732.09 980.547 1732.09 Q974.736 1732.09 971.658 1727.5 Q968.602 1722.9 968.602 1714.17 Q968.602 1705.42 971.658 1700.84 Q974.736 1696.23 980.547 1696.23 Z" fill="#000000" fill-rule="nonzero" fill-opacity="1" /><path clip-path="url(#clip830)" d="M1010.71 1699.93 Q1007.1 1699.93 1005.27 1703.5 Q1003.46 1707.04 1003.46 1714.17 Q1003.46 1721.28 1005.27 1724.84 Q1007.1 1728.38 1010.71 1728.38 Q1014.34 1728.38 1016.15 1724.84 Q1017.98 1721.28 1017.98 1714.17 Q1017.98 1707.04 1016.15 1703.5 Q1014.34 1699.93 1010.71 1699.93 M1010.71 1696.23 Q1016.52 1696.23 1019.57 1700.84 Q1022.65 1705.42 1022.65 1714.17 Q1022.65 1722.9 1019.57 1727.5 Q1016.52 1732.09 1010.71 1732.09 Q1004.9 1732.09 1001.82 1727.5 Q998.764 1722.9 998.764 1714.17 Q998.764 1705.42 1001.82 1700.84 Q1004.9 1696.23 1010.71 1696.23 Z" fill="#000000" fill-rule="nonzero" fill-opacity="1" /><path clip-path="url(#clip830)" d="M1581.96 1727.48 L1589.6 1727.48 L1589.6 1701.12 L1581.29 1702.78 L1581.29 1698.52 L1589.55 1696.86 L1594.23 1696.86 L1594.23 1727.48 L1601.87 1727.48 L1601.87 1731.42 L1581.96 1731.42 L1581.96 1727.48 Z" fill="#000000" fill-rule="nonzero" fill-opacity="1" /><path clip-path="url(#clip830)" d="M1621.31 1699.93 Q1617.7 1699.93 1615.87 1703.5 Q1614.07 1707.04 1614.07 1714.17 Q1614.07 1721.28 1615.87 1724.84 Q1617.7 1728.38 1621.31 1728.38 Q1624.95 1728.38 1626.75 1724.84 Q1628.58 1721.28 1628.58 1714.17 Q1628.58 1707.04 1626.75 1703.5 Q1624.95 1699.93 1621.31 1699.93 M1621.31 1696.23 Q1627.12 1696.23 1630.18 1700.84 Q1633.26 1705.42 1633.26 1714.17 Q1633.26 1722.9 1630.18 1727.5 Q1627.12 1732.09 1621.31 1732.09 Q1615.5 1732.09 1612.42 1727.5 Q1609.37 1722.9 1609.37 1714.17 Q1609.37 1705.42 1612.42 1700.84 Q1615.5 1696.23 1621.31 1696.23 Z" fill="#000000" fill-rule="nonzero" fill-opacity="1" /><path clip-path="url(#clip830)" d="M1651.47 1699.93 Q1647.86 1699.93 1646.03 1703.5 Q1644.23 1707.04 1644.23 1714.17 Q1644.23 1721.28 1646.03 1724.84 Q1647.86 1728.38 1651.47 1728.38 Q1655.11 1728.38 1656.91 1724.84 Q1658.74 1721.28 1658.74 1714.17 Q1658.74 1707.04 1656.91 1703.5 Q1655.11 1699.93 1651.47 1699.93 M1651.47 1696.23 Q1657.28 1696.23 1660.34 1700.84 Q1663.42 1705.42 1663.42 1714.17 Q1663.42 1722.9 1660.34 1727.5 Q1657.28 1732.09 1651.47 1732.09 Q1645.66 1732.09 1642.58 1727.5 Q1639.53 1722.9 1639.53 1714.17 Q1639.53 1705.42 1642.58 1700.84 Q1645.66 1696.23 1651.47 1696.23 Z" fill="#000000" fill-rule="nonzero" fill-opacity="1" /><path clip-path="url(#clip830)" d="M1681.63 1699.93 Q1678.02 1699.93 1676.19 1703.5 Q1674.39 1707.04 1674.39 1714.17 Q1674.39 1721.28 1676.19 1724.84 Q1678.02 1728.38 1681.63 1728.38 Q1685.27 1728.38 1687.07 1724.84 Q1688.9 1721.28 1688.9 1714.17 Q1688.9 1707.04 1687.07 1703.5 Q1685.27 1699.93 1681.63 1699.93 M1681.63 1696.23 Q1687.44 1696.23 1690.5 1700.84 Q1693.58 1705.42 1693.58 1714.17 Q1693.58 1722.9 1690.5 1727.5 Q1687.44 1732.09 1681.63 1732.09 Q1675.82 1732.09 1672.75 1727.5 Q1669.69 1722.9 1669.69 1714.17 Q1669.69 1705.42 1672.75 1700.84 Q1675.82 1696.23 1681.63 1696.23 Z" fill="#000000" fill-rule="nonzero" fill-opacity="1" /><path clip-path="url(#clip830)" d="M2238.58 1727.48 L2246.22 1727.48 L2246.22 1701.12 L2237.91 1702.78 L2237.91 1698.52 L2246.17 1696.86 L2250.85 1696.86 L2250.85 1727.48 L2258.49 1727.48 L2258.49 1731.42 L2238.58 1731.42 L2238.58 1727.48 Z" fill="#000000" fill-rule="nonzero" fill-opacity="1" /><path clip-path="url(#clip830)" d="M2267.98 1696.86 L2286.33 1696.86 L2286.33 1700.79 L2272.26 1700.79 L2272.26 1709.26 Q2273.28 1708.92 2274.3 1708.75 Q2275.32 1708.57 2276.33 1708.57 Q2282.12 1708.57 2285.5 1711.74 Q2288.88 1714.91 2288.88 1720.33 Q2288.88 1725.91 2285.41 1729.01 Q2281.94 1732.09 2275.62 1732.09 Q2273.44 1732.09 2271.17 1731.72 Q2268.93 1731.35 2266.52 1730.61 L2266.52 1725.91 Q2268.6 1727.04 2270.82 1727.6 Q2273.05 1728.15 2275.52 1728.15 Q2279.53 1728.15 2281.87 1726.05 Q2284.2 1723.94 2284.2 1720.33 Q2284.2 1716.72 2281.87 1714.61 Q2279.53 1712.5 2275.52 1712.5 Q2273.65 1712.5 2271.77 1712.92 Q2269.92 1713.34 2267.98 1714.22 L2267.98 1696.86 Z" fill="#000000" fill-rule="nonzero" fill-opacity="1" /><path clip-path="url(#clip830)" d="M2308.09 1699.93 Q2304.48 1699.93 2302.65 1703.5 Q2300.85 1707.04 2300.85 1714.17 Q2300.85 1721.28 2302.65 1724.84 Q2304.48 1728.38 2308.09 1728.38 Q2311.73 1728.38 2313.53 1724.84 Q2315.36 1721.28 2315.36 1714.17 Q2315.36 1707.04 2313.53 1703.5 Q2311.73 1699.93 2308.09 1699.93 M2308.09 1696.23 Q2313.9 1696.23 2316.96 1700.84 Q2320.04 1705.42 2320.04 1714.17 Q2320.04 1722.9 2316.96 1727.5 Q2313.9 1732.09 2308.09 1732.09 Q2302.28 1732.09 2299.2 1727.5 Q2296.15 1722.9 2296.15 1714.17 Q2296.15 1705.42 2299.2 1700.84 Q2302.28 1696.23 2308.09 1696.23 Z" fill="#000000" fill-rule="nonzero" fill-opacity="1" /><path clip-path="url(#clip830)" d="M2338.26 1699.93 Q2334.64 1699.93 2332.82 1703.5 Q2331.01 1707.04 2331.01 1714.17 Q2331.01 1721.28 2332.82 1724.84 Q2334.64 1728.38 2338.26 1728.38 Q2341.89 1728.38 2343.69 1724.84 Q2345.52 1721.28 2345.52 1714.17 Q2345.52 1707.04 2343.69 1703.5 Q2341.89 1699.93 2338.26 1699.93 M2338.26 1696.23 Q2344.07 1696.23 2347.12 1700.84 Q2350.2 1705.42 2350.2 1714.17 Q2350.2 1722.9 2347.12 1727.5 Q2344.07 1732.09 2338.26 1732.09 Q2332.45 1732.09 2329.37 1727.5 Q2326.31 1722.9 2326.31 1714.17 Q2326.31 1705.42 2329.37 1700.84 Q2332.45 1696.23 2338.26 1696.23 Z" fill="#000000" fill-rule="nonzero" fill-opacity="1" /><polyline clip-path="url(#clip830)" style="stroke:#000000; stroke-linecap:round; stroke-linejoin:round; stroke-width:4; stroke-opacity:1; fill:none" points="278.623,1665.82 278.623,951.568 "/>
<polyline clip-path="url(#clip830)" style="stroke:#000000; stroke-linecap:round; stroke-linejoin:round; stroke-width:4; stroke-opacity:1; fill:none" points="278.623,1645.63 297.52,1645.63 "/>
<polyline clip-path="url(#clip830)" style="stroke:#000000; stroke-linecap:round; stroke-linejoin:round; stroke-width:4; stroke-opacity:1; fill:none" points="278.623,1492.71 297.52,1492.71 "/>
<polyline clip-path="url(#clip830)" style="stroke:#000000; stroke-linecap:round; stroke-linejoin:round; stroke-width:4; stroke-opacity:1; fill:none" points="278.623,1339.78 297.52,1339.78 "/>
<polyline clip-path="url(#clip830)" style="stroke:#000000; stroke-linecap:round; stroke-linejoin:round; stroke-width:4; stroke-opacity:1; fill:none" points="278.623,1186.86 297.52,1186.86 "/>
<polyline clip-path="url(#clip830)" style="stroke:#000000; stroke-linecap:round; stroke-linejoin:round; stroke-width:4; stroke-opacity:1; fill:none" points="278.623,1033.94 297.52,1033.94 "/>
<path clip-path="url(#clip830)" d="M224.678 1631.43 Q221.067 1631.43 219.239 1634.99 Q217.433 1638.53 217.433 1645.66 Q217.433 1652.77 219.239 1656.33 Q221.067 1659.88 224.678 1659.88 Q228.313 1659.88 230.118 1656.33 Q231.947 1652.77 231.947 1645.66 Q231.947 1638.53 230.118 1634.99 Q228.313 1631.43 224.678 1631.43 M224.678 1627.72 Q230.489 1627.72 233.544 1632.33 Q236.623 1636.91 236.623 1645.66 Q236.623 1654.39 233.544 1659 Q230.489 1663.58 224.678 1663.58 Q218.868 1663.58 215.79 1659 Q212.734 1654.39 212.734 1645.66 Q212.734 1636.91 215.79 1632.33 Q218.868 1627.72 224.678 1627.72 Z" fill="#000000" fill-rule="nonzero" fill-opacity="1" /><path clip-path="url(#clip830)" d="M185.327 1506.05 L192.966 1506.05 L192.966 1479.68 L184.655 1481.35 L184.655 1477.09 L192.919 1475.43 L197.595 1475.43 L197.595 1506.05 L205.234 1506.05 L205.234 1509.99 L185.327 1509.99 L185.327 1506.05 Z" fill="#000000" fill-rule="nonzero" fill-opacity="1" /><path clip-path="url(#clip830)" d="M224.678 1478.5 Q221.067 1478.5 219.239 1482.07 Q217.433 1485.61 217.433 1492.74 Q217.433 1499.85 219.239 1503.41 Q221.067 1506.95 224.678 1506.95 Q228.313 1506.95 230.118 1503.41 Q231.947 1499.85 231.947 1492.74 Q231.947 1485.61 230.118 1482.07 Q228.313 1478.5 224.678 1478.5 M224.678 1474.8 Q230.489 1474.8 233.544 1479.41 Q236.623 1483.99 236.623 1492.74 Q236.623 1501.47 233.544 1506.07 Q230.489 1510.66 224.678 1510.66 Q218.868 1510.66 215.79 1506.07 Q212.734 1501.47 212.734 1492.74 Q212.734 1483.99 215.79 1479.41 Q218.868 1474.8 224.678 1474.8 Z" fill="#000000" fill-rule="nonzero" fill-opacity="1" /><path clip-path="url(#clip830)" d="M188.544 1353.13 L204.864 1353.13 L204.864 1357.06 L182.919 1357.06 L182.919 1353.13 Q185.581 1350.37 190.165 1345.74 Q194.771 1341.09 195.952 1339.75 Q198.197 1337.23 199.077 1335.49 Q199.979 1333.73 199.979 1332.04 Q199.979 1329.29 198.035 1327.55 Q196.114 1325.81 193.012 1325.81 Q190.813 1325.81 188.359 1326.58 Q185.929 1327.34 183.151 1328.89 L183.151 1324.17 Q185.975 1323.04 188.429 1322.46 Q190.882 1321.88 192.919 1321.88 Q198.29 1321.88 201.484 1324.56 Q204.678 1327.25 204.678 1331.74 Q204.678 1333.87 203.868 1335.79 Q203.081 1337.69 200.975 1340.28 Q200.396 1340.95 197.294 1344.17 Q194.192 1347.36 188.544 1353.13 Z" fill="#000000" fill-rule="nonzero" fill-opacity="1" /><path clip-path="url(#clip830)" d="M224.678 1325.58 Q221.067 1325.58 219.239 1329.15 Q217.433 1332.69 217.433 1339.82 Q217.433 1346.92 219.239 1350.49 Q221.067 1354.03 224.678 1354.03 Q228.313 1354.03 230.118 1350.49 Q231.947 1346.92 231.947 1339.82 Q231.947 1332.69 230.118 1329.15 Q228.313 1325.58 224.678 1325.58 M224.678 1321.88 Q230.489 1321.88 233.544 1326.48 Q236.623 1331.07 236.623 1339.82 Q236.623 1348.54 233.544 1353.15 Q230.489 1357.73 224.678 1357.73 Q218.868 1357.73 215.79 1353.15 Q212.734 1348.54 212.734 1339.82 Q212.734 1331.07 215.79 1326.48 Q218.868 1321.88 224.678 1321.88 Z" fill="#000000" fill-rule="nonzero" fill-opacity="1" /><path clip-path="url(#clip830)" d="M198.683 1185.51 Q202.04 1186.22 203.915 1188.49 Q205.813 1190.76 205.813 1194.1 Q205.813 1199.21 202.294 1202.01 Q198.776 1204.81 192.294 1204.81 Q190.118 1204.81 187.804 1204.37 Q185.512 1203.96 183.058 1203.1 L183.058 1198.59 Q185.003 1199.72 187.317 1200.3 Q189.632 1200.88 192.155 1200.88 Q196.554 1200.88 198.845 1199.14 Q201.16 1197.41 201.16 1194.1 Q201.16 1191.04 199.007 1189.33 Q196.878 1187.59 193.058 1187.59 L189.03 1187.59 L189.03 1183.75 L193.243 1183.75 Q196.692 1183.75 198.521 1182.38 Q200.35 1180.99 200.35 1178.4 Q200.35 1175.74 198.452 1174.33 Q196.577 1172.89 193.058 1172.89 Q191.137 1172.89 188.938 1173.31 Q186.739 1173.72 184.1 1174.6 L184.1 1170.44 Q186.762 1169.7 189.077 1169.33 Q191.415 1168.96 193.475 1168.96 Q198.799 1168.96 201.901 1171.39 Q205.003 1173.79 205.003 1177.91 Q205.003 1180.78 203.359 1182.78 Q201.716 1184.74 198.683 1185.51 Z" fill="#000000" fill-rule="nonzero" fill-opacity="1" /><path clip-path="url(#clip830)" d="M224.678 1172.66 Q221.067 1172.66 219.239 1176.22 Q217.433 1179.77 217.433 1186.9 Q217.433 1194 219.239 1197.57 Q221.067 1201.11 224.678 1201.11 Q228.313 1201.11 230.118 1197.57 Q231.947 1194 231.947 1186.9 Q231.947 1179.77 230.118 1176.22 Q228.313 1172.66 224.678 1172.66 M224.678 1168.96 Q230.489 1168.96 233.544 1173.56 Q236.623 1178.15 236.623 1186.9 Q236.623 1195.62 233.544 1200.23 Q230.489 1204.81 224.678 1204.81 Q218.868 1204.81 215.79 1200.23 Q212.734 1195.62 212.734 1186.9 Q212.734 1178.15 215.79 1173.56 Q218.868 1168.96 224.678 1168.96 Z" fill="#000000" fill-rule="nonzero" fill-opacity="1" /><path clip-path="url(#clip830)" d="M197.364 1020.73 L185.558 1039.18 L197.364 1039.18 L197.364 1020.73 M196.137 1016.66 L202.016 1016.66 L202.016 1039.18 L206.947 1039.18 L206.947 1043.07 L202.016 1043.07 L202.016 1051.22 L197.364 1051.22 L197.364 1043.07 L181.762 1043.07 L181.762 1038.56 L196.137 1016.66 Z" fill="#000000" fill-rule="nonzero" fill-opacity="1" /><path clip-path="url(#clip830)" d="M224.678 1019.74 Q221.067 1019.74 219.239 1023.3 Q217.433 1026.84 217.433 1033.97 Q217.433 1041.08 219.239 1044.65 Q221.067 1048.19 224.678 1048.19 Q228.313 1048.19 230.118 1044.65 Q231.947 1041.08 231.947 1033.97 Q231.947 1026.84 230.118 1023.3 Q228.313 1019.74 224.678 1019.74 M224.678 1016.03 Q230.489 1016.03 233.544 1020.64 Q236.623 1025.22 236.623 1033.97 Q236.623 1042.7 233.544 1047.31 Q230.489 1051.89 224.678 1051.89 Q218.868 1051.89 215.79 1047.31 Q212.734 1042.7 212.734 1033.97 Q212.734 1025.22 215.79 1020.64 Q218.868 1016.03 224.678 1016.03 Z" fill="#000000" fill-rule="nonzero" fill-opacity="1" /><path clip-path="url(#clip830)" d="M83.2695 1478.66 L120.222 1478.66 L120.222 1470.89 Q120.222 1461.06 115.766 1456.5 Q111.31 1451.92 101.698 1451.92 Q92.1497 1451.92 87.7255 1456.5 Q83.2695 1461.06 83.2695 1470.89 L83.2695 1478.66 M77.986 1485.09 L77.986 1471.88 Q77.986 1458.06 83.7469 1451.6 Q89.4761 1445.14 101.698 1445.14 Q113.984 1445.14 119.745 1451.63 Q125.506 1458.13 125.506 1471.88 L125.506 1485.09 L77.986 1485.09 Z" fill="#000000" fill-rule="nonzero" fill-opacity="1" /><path clip-path="url(#clip830)" d="M97.7833 1437.41 L97.7833 1433.71 L125.506 1433.71 L125.506 1437.41 L97.7833 1437.41 Z" fill="#000000" fill-rule="nonzero" fill-opacity="1" /><path clip-path="url(#clip830)" d="M77.6358 1426.43 L77.6358 1407.52 L80.6596 1407.52 L80.6596 1422.38 L88.553 1422.38 L88.553 1408.12 L91.5767 1408.12 L91.5767 1422.38 L101.221 1422.38 L101.221 1407.14 L104.244 1407.14 L104.244 1426.43 L77.6358 1426.43 Z" fill="#000000" fill-rule="nonzero" fill-opacity="1" /><path clip-path="url(#clip830)" d="M77.6358 1400.49 L77.6358 1381.58 L80.6596 1381.58 L80.6596 1396.44 L88.553 1396.44 L88.553 1382.18 L91.5767 1382.18 L91.5767 1396.44 L101.221 1396.44 L101.221 1381.2 L104.244 1381.2 L104.244 1400.49 L77.6358 1400.49 Z" fill="#000000" fill-rule="nonzero" fill-opacity="1" /><path clip-path="url(#clip830)" d="M76.0444 1337.66 Q83.365 1341.92 90.5264 1343.99 Q97.6878 1346.06 105.04 1346.06 Q112.393 1346.06 119.618 1343.99 Q126.811 1341.89 134.1 1337.66 L134.1 1342.75 Q126.62 1347.52 119.395 1349.91 Q112.17 1352.27 105.04 1352.27 Q97.9424 1352.27 90.7492 1349.91 Q83.5559 1347.55 76.0444 1342.75 L76.0444 1337.66 Z" fill="#000000" fill-rule="nonzero" fill-opacity="1" /><path clip-path="url(#clip830)" d="M139.065 1326.9 L89.858 1326.9 L89.858 1321.04 L112.011 1321.04 Q116.626 1321.04 118.981 1318.85 Q121.336 1316.65 121.336 1312.35 Q121.336 1307.64 118.663 1305.29 Q115.989 1302.9 110.642 1302.9 L89.858 1302.9 L89.858 1297.04 L117.294 1297.04 Q119.204 1297.04 120.127 1296.5 Q121.018 1295.93 121.018 1294.75 Q121.018 1294.46 120.859 1293.96 Q120.668 1293.45 120.286 1292.55 L124.997 1292.55 Q125.729 1293.86 126.079 1295.04 Q126.429 1296.18 126.429 1297.3 Q126.429 1299.49 125.188 1300.8 Q123.946 1302.1 121.4 1302.58 Q123.915 1304.17 125.188 1306.5 Q126.429 1308.79 126.429 1311.91 Q126.429 1315.15 125.188 1317.44 Q123.946 1319.7 121.464 1321.04 L139.065 1321.04 L139.065 1326.9 Z" fill="#000000" fill-rule="nonzero" fill-opacity="1" /><path clip-path="url(#clip830)" d="M77.986 1284.57 L77.986 1278.14 L98.0698 1278.14 L77.986 1256.81 L77.986 1248.54 L100.139 1272.12 L125.506 1246.85 L125.506 1255.32 L102.621 1278.14 L125.506 1278.14 L125.506 1284.57 L77.986 1284.57 Z" fill="#000000" fill-rule="nonzero" fill-opacity="1" /><path clip-path="url(#clip830)" d="M77.986 1217.79 L95.7144 1200.51 L95.7144 1206.9 L83.1422 1220.91 L95.7144 1234.91 L95.7144 1241.31 L77.986 1224.03 L77.986 1217.79 Z" fill="#000000" fill-rule="nonzero" fill-opacity="1" /><path clip-path="url(#clip830)" d="M120.095 1181.09 L120.095 1158.65 L125.506 1158.65 L125.506 1188.83 L120.095 1188.83 Q116.308 1185.17 109.942 1178.86 Q103.544 1172.53 101.698 1170.91 Q98.2289 1167.82 95.8418 1166.61 Q93.4228 1165.37 91.0993 1165.37 Q87.3117 1165.37 84.9246 1168.04 Q82.5374 1170.68 82.5374 1174.95 Q82.5374 1177.97 83.5878 1181.35 Q84.6381 1184.69 86.7706 1188.51 L80.2776 1188.51 Q78.718 1184.62 77.9223 1181.25 Q77.1266 1177.88 77.1266 1175.08 Q77.1266 1167.69 80.8187 1163.3 Q84.5108 1158.91 90.6855 1158.91 Q93.6138 1158.91 96.2555 1160.02 Q98.8655 1161.1 102.43 1164 Q103.353 1164.8 107.777 1169.06 Q112.17 1173.33 120.095 1181.09 Z" fill="#000000" fill-rule="nonzero" fill-opacity="1" /><path clip-path="url(#clip830)" d="M76.0444 1146.91 L76.0444 1141.81 Q83.5559 1137.04 90.7492 1134.69 Q97.9424 1132.3 105.04 1132.3 Q112.17 1132.3 119.395 1134.69 Q126.62 1137.04 134.1 1141.81 L134.1 1146.91 Q126.811 1142.67 119.618 1140.61 Q112.393 1138.5 105.04 1138.5 Q97.6878 1138.5 90.5264 1140.61 Q83.365 1142.67 76.0444 1146.91 Z" fill="#000000" fill-rule="nonzero" fill-opacity="1" /><polyline clip-path="url(#clip833)" style="stroke:#009af9; stroke-linecap:round; stroke-linejoin:round; stroke-width:4; stroke-opacity:1; fill:none" points="337.325,1645.58 343.891,1645.6 350.457,1645.56 357.023,1645.49 363.589,1645.36 370.156,1645.18 376.722,1644.92 383.288,1644.58 389.854,1644.15 396.421,1643.62 402.987,1643 409.553,1642.28 416.119,1641.47 422.685,1640.58 429.252,1639.61 435.818,1638.59 442.384,1637.53 448.95,1636.44 455.516,1635.36 462.083,1634.29 468.649,1633.27 475.215,1632.31 481.781,1631.44 488.347,1630.68 494.914,1630.04 501.48,1629.55 508.046,1629.2 514.612,1629.01 521.178,1628.99 527.745,1629.12 534.311,1629.4 540.877,1629.83 547.443,1630.37 554.009,1631 560.576,1631.71 567.142,1632.43 573.708,1633.15 580.274,1633.81 586.84,1634.35 593.407,1634.73 599.973,1634.88 606.539,1634.75 613.105,1634.28 619.672,1633.39 626.238,1632.04 632.804,1630.15 639.37,1627.67 645.936,1624.55 652.503,1620.72 659.069,1616.15 665.635,1610.8 672.201,1604.62 678.767,1597.61 685.334,1589.73 691.9,1580.99 698.466,1571.38 705.032,1560.91 711.598,1549.62 718.165,1537.53 724.731,1524.68 731.297,1511.14 737.863,1496.98 744.429,1482.24 750.996,1467.04 757.562,1451.47 764.128,1435.6 770.694,1419.58 777.26,1403.5 783.827,1387.47 790.393,1371.65 796.959,1356.13 803.525,1341.03 810.091,1326.54 816.658,1312.7 823.224,1299.67 829.79,1287.62 836.356,1276.57 842.923,1266.65 849.489,1258.03 856.055,1250.68 862.621,1244.73 869.187,1240.29 875.754,1237.3 882.32,1235.87 888.886,1236.03 895.452,1237.7 902.018,1240.97 908.585,1245.77 915.151,1251.99 921.717,1259.72 928.283,1268.78 934.849,1279.05 941.416,1290.57 947.982,1303.1 954.548,1316.52 961.114,1330.78 967.68,1345.66 974.247,1360.98 980.813,1376.66 987.379,1392.45 993.945,1408.21 1000.51,1423.78 1007.08,1438.94 1013.64,1453.55 1020.21,1467.44 1026.78,1480.41 1033.34,1492.34 1039.91,1503.05 1046.47,1512.41 1053.04,1520.29 1059.61,1526.58 1066.17,1531.16 1072.74,1533.96 1079.31,1534.9 1085.87,1533.93 1092.44,1531.01 1099,1526.14 1105.57,1519.3 1112.14,1510.53 1118.7,1499.86 1125.27,1487.34 1131.84,1473.08 1138.4,1457.16 1144.97,1439.66 1151.53,1420.77 1158.1,1400.59 1164.67,1379.27 1171.23,1357.04 1177.8,1333.99 1184.37,1310.36 1190.93,1286.39 1197.5,1262.16 1204.06,1237.96 1210.63,1214.02 1217.2,1190.42 1223.76,1167.48 1230.33,1145.39 1236.89,1124.23 1243.46,1104.33 1250.03,1085.78 1256.59,1068.68 1263.16,1053.35 1269.73,1039.77 1276.29,1028.06 1282.86,1018.48 1289.42,1010.92 1295.99,1005.48 1302.56,1002.36 1309.12,1001.38 1315.69,1002.61 1322.26,1006.13 1328.82,1011.73 1335.39,1019.47 1341.95,1029.28 1348.52,1040.95 1355.09,1054.5 1361.65,1069.75 1368.22,1086.47 1374.79,1104.67 1381.35,1124.05 1387.92,1144.41 1394.48,1165.69 1401.05,1187.58 1407.62,1209.87 1414.18,1232.44 1420.75,1254.98 1427.31,1277.33 1433.88,1299.29 1440.45,1320.61 1447.01,1341.15 1453.58,1360.68 1460.15,1379.01 1466.71,1396.01 1473.28,1411.5 1479.84,1425.33 1486.41,1437.4 1492.98,1447.57 1499.54,1455.75 1506.11,1461.88 1512.68,1465.89 1519.24,1467.75 1525.81,1467.42 1532.37,1464.95 1538.94,1460.32 1545.51,1453.56 1552.07,1444.79 1558.64,1434.04 1565.21,1421.4 1571.77,1407.04 1578.34,1391.01 1584.9,1373.5 1591.47,1354.69 1598.04,1334.67 1604.6,1313.68 1611.17,1291.91 1617.73,1269.47 1624.3,1246.65 1630.87,1223.63 1637.43,1200.53 1644,1177.67 1650.57,1155.18 1657.13,1133.23 1663.7,1112.09 1670.26,1091.87 1676.83,1072.74 1683.4,1054.93 1689.96,1038.52 1696.53,1023.66 1703.1,1010.51 1709.66,999.131 1716.23,989.648 1722.79,982.135 1729.36,976.6 1735.93,973.154 1742.49,971.783 1749.06,972.465 1755.63,975.244 1762.19,980.053 1768.76,986.845 1775.32,995.568 1781.89,1006.14 1788.46,1018.47 1795.02,1032.43 1801.59,1047.91 1808.15,1064.8 1814.72,1082.92 1821.29,1102.12 1827.85,1122.29 1834.42,1143.21 1840.99,1164.71 1847.55,1186.65 1854.12,1208.81 1860.68,1231.05 1867.25,1253.19 1873.82,1275.03 1880.38,1296.45 1886.95,1317.24 1893.52,1337.26 1900.08,1356.41 1906.65,1374.48 1913.21,1391.39 1919.78,1407.03 1926.35,1421.26 1932.91,1434.04 1939.48,1445.26 1946.05,1454.87 1952.61,1462.84 1959.18,1469.1 1965.74,1473.67 1972.31,1476.54 1978.88,1477.7 1985.44,1477.21 1992.01,1475.12 1998.57,1471.42 2005.14,1466.25 2011.71,1459.67 2018.27,1451.72 2024.84,1442.59 2031.41,1432.33 2037.97,1421.05 2044.54,1408.94 2051.1,1396.05 2057.67,1382.55 2064.24,1368.63 2070.8,1354.34 2077.37,1339.87 2083.94,1325.39 2090.5,1310.96 2097.07,1296.79 2103.63,1283.01 2110.2,1269.66 2116.77,1256.98 2123.33,1245.04 2129.9,1233.88 2136.47,1223.7 2143.03,1214.55 2149.6,1206.47 2156.16,1199.6 2162.73,1193.94 2169.3,1189.54 2175.86,1186.48 2182.43,1184.71 2188.99,1184.29 2195.56,1185.23 2202.13,1187.46 2208.69,1191 2215.26,1195.83 2221.83,1201.84 2228.39,1209.03 2234.96,1217.34 2241.52,1226.65 2248.09,1236.91 2254.66,1248.04 2261.22,1259.93 2267.79,1272.49 2274.36,1285.61 2280.92,1299.18 2287.49,1313.11 2294.05,1327.27 "/>
<path clip-path="url(#clip830)" d="M278.623 2570.14 L2352.76 2570.14 L2352.76 1855.89 L278.623 1855.89  Z" fill="#ffffff" fill-rule="evenodd" fill-opacity="1"/>
<defs>
  <clipPath id="clip834">
    <rect x="278" y="1855" width="2075" height="715"/>
  </clipPath>
</defs>
<polyline clip-path="url(#clip834)" style="stroke:#000000; stroke-linecap:round; stroke-linejoin:round; stroke-width:2; stroke-opacity:0.1; fill:none" points="324.192,2570.14 324.192,1855.89 "/>
<polyline clip-path="url(#clip834)" style="stroke:#000000; stroke-linecap:round; stroke-linejoin:round; stroke-width:2; stroke-opacity:0.1; fill:none" points="980.813,2570.14 980.813,1855.89 "/>
<polyline clip-path="url(#clip834)" style="stroke:#000000; stroke-linecap:round; stroke-linejoin:round; stroke-width:2; stroke-opacity:0.1; fill:none" points="1637.43,2570.14 1637.43,1855.89 "/>
<polyline clip-path="url(#clip834)" style="stroke:#000000; stroke-linecap:round; stroke-linejoin:round; stroke-width:2; stroke-opacity:0.1; fill:none" points="2294.05,2570.14 2294.05,1855.89 "/>
<polyline clip-path="url(#clip834)" style="stroke:#000000; stroke-linecap:round; stroke-linejoin:round; stroke-width:2; stroke-opacity:0.1; fill:none" points="278.623,2570.13 2352.76,2570.13 "/>
<polyline clip-path="url(#clip834)" style="stroke:#000000; stroke-linecap:round; stroke-linejoin:round; stroke-width:2; stroke-opacity:0.1; fill:none" points="278.623,2450.69 2352.76,2450.69 "/>
<polyline clip-path="url(#clip834)" style="stroke:#000000; stroke-linecap:round; stroke-linejoin:round; stroke-width:2; stroke-opacity:0.1; fill:none" points="278.623,2331.24 2352.76,2331.24 "/>
<polyline clip-path="url(#clip834)" style="stroke:#000000; stroke-linecap:round; stroke-linejoin:round; stroke-width:2; stroke-opacity:0.1; fill:none" points="278.623,2211.8 2352.76,2211.8 "/>
<polyline clip-path="url(#clip834)" style="stroke:#000000; stroke-linecap:round; stroke-linejoin:round; stroke-width:2; stroke-opacity:0.1; fill:none" points="278.623,2092.35 2352.76,2092.35 "/>
<polyline clip-path="url(#clip834)" style="stroke:#000000; stroke-linecap:round; stroke-linejoin:round; stroke-width:2; stroke-opacity:0.1; fill:none" points="278.623,1972.91 2352.76,1972.91 "/>
<polyline clip-path="url(#clip830)" style="stroke:#000000; stroke-linecap:round; stroke-linejoin:round; stroke-width:4; stroke-opacity:1; fill:none" points="278.623,2570.14 2352.76,2570.14 "/>
<polyline clip-path="url(#clip830)" style="stroke:#000000; stroke-linecap:round; stroke-linejoin:round; stroke-width:4; stroke-opacity:1; fill:none" points="324.192,2570.14 324.192,2551.24 "/>
<polyline clip-path="url(#clip830)" style="stroke:#000000; stroke-linecap:round; stroke-linejoin:round; stroke-width:4; stroke-opacity:1; fill:none" points="980.813,2570.14 980.813,2551.24 "/>
<polyline clip-path="url(#clip830)" style="stroke:#000000; stroke-linecap:round; stroke-linejoin:round; stroke-width:4; stroke-opacity:1; fill:none" points="1637.43,2570.14 1637.43,2551.24 "/>
<polyline clip-path="url(#clip830)" style="stroke:#000000; stroke-linecap:round; stroke-linejoin:round; stroke-width:4; stroke-opacity:1; fill:none" points="2294.05,2570.14 2294.05,2551.24 "/>
<path clip-path="url(#clip830)" d="M324.192 2604.26 Q320.581 2604.26 318.752 2607.82 Q316.947 2611.36 316.947 2618.49 Q316.947 2625.6 318.752 2629.17 Q320.581 2632.71 324.192 2632.71 Q327.826 2632.71 329.632 2629.17 Q331.461 2625.6 331.461 2618.49 Q331.461 2611.36 329.632 2607.82 Q327.826 2604.26 324.192 2604.26 M324.192 2600.55 Q330.002 2600.55 333.058 2605.16 Q336.137 2609.74 336.137 2618.49 Q336.137 2627.22 333.058 2631.83 Q330.002 2636.41 324.192 2636.41 Q318.382 2636.41 315.303 2631.83 Q312.248 2627.22 312.248 2618.49 Q312.248 2609.74 315.303 2605.16 Q318.382 2600.55 324.192 2600.55 Z" fill="#000000" fill-rule="nonzero" fill-opacity="1" /><path clip-path="url(#clip830)" d="M940.431 2601.18 L958.787 2601.18 L958.787 2605.12 L944.713 2605.12 L944.713 2613.59 Q945.732 2613.24 946.751 2613.08 Q947.769 2612.89 948.788 2612.89 Q954.575 2612.89 957.954 2616.06 Q961.334 2619.24 961.334 2624.65 Q961.334 2630.23 957.862 2633.33 Q954.389 2636.41 948.07 2636.41 Q945.894 2636.41 943.626 2636.04 Q941.38 2635.67 938.973 2634.93 L938.973 2630.23 Q941.056 2631.36 943.278 2631.92 Q945.501 2632.48 947.977 2632.48 Q951.982 2632.48 954.32 2630.37 Q956.658 2628.26 956.658 2624.65 Q956.658 2621.04 954.32 2618.93 Q951.982 2616.83 947.977 2616.83 Q946.102 2616.83 944.227 2617.24 Q942.376 2617.66 940.431 2618.54 L940.431 2601.18 Z" fill="#000000" fill-rule="nonzero" fill-opacity="1" /><path clip-path="url(#clip830)" d="M980.547 2604.26 Q976.936 2604.26 975.107 2607.82 Q973.301 2611.36 973.301 2618.49 Q973.301 2625.6 975.107 2629.17 Q976.936 2632.71 980.547 2632.71 Q984.181 2632.71 985.986 2629.17 Q987.815 2625.6 987.815 2618.49 Q987.815 2611.36 985.986 2607.82 Q984.181 2604.26 980.547 2604.26 M980.547 2600.55 Q986.357 2600.55 989.412 2605.16 Q992.491 2609.74 992.491 2618.49 Q992.491 2627.22 989.412 2631.83 Q986.357 2636.41 980.547 2636.41 Q974.736 2636.41 971.658 2631.83 Q968.602 2627.22 968.602 2618.49 Q968.602 2609.74 971.658 2605.16 Q974.736 2600.55 980.547 2600.55 Z" fill="#000000" fill-rule="nonzero" fill-opacity="1" /><path clip-path="url(#clip830)" d="M1010.71 2604.26 Q1007.1 2604.26 1005.27 2607.82 Q1003.46 2611.36 1003.46 2618.49 Q1003.46 2625.6 1005.27 2629.17 Q1007.1 2632.71 1010.71 2632.71 Q1014.34 2632.71 1016.15 2629.17 Q1017.98 2625.6 1017.98 2618.49 Q1017.98 2611.36 1016.15 2607.82 Q1014.34 2604.26 1010.71 2604.26 M1010.71 2600.55 Q1016.52 2600.55 1019.57 2605.16 Q1022.65 2609.74 1022.65 2618.49 Q1022.65 2627.22 1019.57 2631.83 Q1016.52 2636.41 1010.71 2636.41 Q1004.9 2636.41 1001.82 2631.83 Q998.764 2627.22 998.764 2618.49 Q998.764 2609.74 1001.82 2605.16 Q1004.9 2600.55 1010.71 2600.55 Z" fill="#000000" fill-rule="nonzero" fill-opacity="1" /><path clip-path="url(#clip830)" d="M1581.96 2631.8 L1589.6 2631.8 L1589.6 2605.44 L1581.29 2607.11 L1581.29 2602.85 L1589.55 2601.18 L1594.23 2601.18 L1594.23 2631.8 L1601.87 2631.8 L1601.87 2635.74 L1581.96 2635.74 L1581.96 2631.8 Z" fill="#000000" fill-rule="nonzero" fill-opacity="1" /><path clip-path="url(#clip830)" d="M1621.31 2604.26 Q1617.7 2604.26 1615.87 2607.82 Q1614.07 2611.36 1614.07 2618.49 Q1614.07 2625.6 1615.87 2629.17 Q1617.7 2632.71 1621.31 2632.71 Q1624.95 2632.71 1626.75 2629.17 Q1628.58 2625.6 1628.58 2618.49 Q1628.58 2611.36 1626.75 2607.82 Q1624.95 2604.26 1621.31 2604.26 M1621.31 2600.55 Q1627.12 2600.55 1630.18 2605.16 Q1633.26 2609.74 1633.26 2618.49 Q1633.26 2627.22 1630.18 2631.83 Q1627.12 2636.41 1621.31 2636.41 Q1615.5 2636.41 1612.42 2631.83 Q1609.37 2627.22 1609.37 2618.49 Q1609.37 2609.74 1612.42 2605.16 Q1615.5 2600.55 1621.31 2600.55 Z" fill="#000000" fill-rule="nonzero" fill-opacity="1" /><path clip-path="url(#clip830)" d="M1651.47 2604.26 Q1647.86 2604.26 1646.03 2607.82 Q1644.23 2611.36 1644.23 2618.49 Q1644.23 2625.6 1646.03 2629.17 Q1647.86 2632.71 1651.47 2632.71 Q1655.11 2632.71 1656.91 2629.17 Q1658.74 2625.6 1658.74 2618.49 Q1658.74 2611.36 1656.91 2607.82 Q1655.11 2604.26 1651.47 2604.26 M1651.47 2600.55 Q1657.28 2600.55 1660.34 2605.16 Q1663.42 2609.74 1663.42 2618.49 Q1663.42 2627.22 1660.34 2631.83 Q1657.28 2636.41 1651.47 2636.41 Q1645.66 2636.41 1642.58 2631.83 Q1639.53 2627.22 1639.53 2618.49 Q1639.53 2609.74 1642.58 2605.16 Q1645.66 2600.55 1651.47 2600.55 Z" fill="#000000" fill-rule="nonzero" fill-opacity="1" /><path clip-path="url(#clip830)" d="M1681.63 2604.26 Q1678.02 2604.26 1676.19 2607.82 Q1674.39 2611.36 1674.39 2618.49 Q1674.39 2625.6 1676.19 2629.17 Q1678.02 2632.71 1681.63 2632.71 Q1685.27 2632.71 1687.07 2629.17 Q1688.9 2625.6 1688.9 2618.49 Q1688.9 2611.36 1687.07 2607.82 Q1685.27 2604.26 1681.63 2604.26 M1681.63 2600.55 Q1687.44 2600.55 1690.5 2605.16 Q1693.58 2609.74 1693.58 2618.49 Q1693.58 2627.22 1690.5 2631.83 Q1687.44 2636.41 1681.63 2636.41 Q1675.82 2636.41 1672.75 2631.83 Q1669.69 2627.22 1669.69 2618.49 Q1669.69 2609.74 1672.75 2605.16 Q1675.82 2600.55 1681.63 2600.55 Z" fill="#000000" fill-rule="nonzero" fill-opacity="1" /><path clip-path="url(#clip830)" d="M2238.58 2631.8 L2246.22 2631.8 L2246.22 2605.44 L2237.91 2607.11 L2237.91 2602.85 L2246.17 2601.18 L2250.85 2601.18 L2250.85 2631.8 L2258.49 2631.8 L2258.49 2635.74 L2238.58 2635.74 L2238.58 2631.8 Z" fill="#000000" fill-rule="nonzero" fill-opacity="1" /><path clip-path="url(#clip830)" d="M2267.98 2601.18 L2286.33 2601.18 L2286.33 2605.12 L2272.26 2605.12 L2272.26 2613.59 Q2273.28 2613.24 2274.3 2613.08 Q2275.32 2612.89 2276.33 2612.89 Q2282.12 2612.89 2285.5 2616.06 Q2288.88 2619.24 2288.88 2624.65 Q2288.88 2630.23 2285.41 2633.33 Q2281.94 2636.41 2275.62 2636.41 Q2273.44 2636.41 2271.17 2636.04 Q2268.93 2635.67 2266.52 2634.93 L2266.52 2630.23 Q2268.6 2631.36 2270.82 2631.92 Q2273.05 2632.48 2275.52 2632.48 Q2279.53 2632.48 2281.87 2630.37 Q2284.2 2628.26 2284.2 2624.65 Q2284.2 2621.04 2281.87 2618.93 Q2279.53 2616.83 2275.52 2616.83 Q2273.65 2616.83 2271.77 2617.24 Q2269.92 2617.66 2267.98 2618.54 L2267.98 2601.18 Z" fill="#000000" fill-rule="nonzero" fill-opacity="1" /><path clip-path="url(#clip830)" d="M2308.09 2604.26 Q2304.48 2604.26 2302.65 2607.82 Q2300.85 2611.36 2300.85 2618.49 Q2300.85 2625.6 2302.65 2629.17 Q2304.48 2632.71 2308.09 2632.71 Q2311.73 2632.71 2313.53 2629.17 Q2315.36 2625.6 2315.36 2618.49 Q2315.36 2611.36 2313.53 2607.82 Q2311.73 2604.26 2308.09 2604.26 M2308.09 2600.55 Q2313.9 2600.55 2316.96 2605.16 Q2320.04 2609.74 2320.04 2618.49 Q2320.04 2627.22 2316.96 2631.83 Q2313.9 2636.41 2308.09 2636.41 Q2302.28 2636.41 2299.2 2631.83 Q2296.15 2627.22 2296.15 2618.49 Q2296.15 2609.74 2299.2 2605.16 Q2302.28 2600.55 2308.09 2600.55 Z" fill="#000000" fill-rule="nonzero" fill-opacity="1" /><path clip-path="url(#clip830)" d="M2338.26 2604.26 Q2334.64 2604.26 2332.82 2607.82 Q2331.01 2611.36 2331.01 2618.49 Q2331.01 2625.6 2332.82 2629.17 Q2334.64 2632.71 2338.26 2632.71 Q2341.89 2632.71 2343.69 2629.17 Q2345.52 2625.6 2345.52 2618.49 Q2345.52 2611.36 2343.69 2607.82 Q2341.89 2604.26 2338.26 2604.26 M2338.26 2600.55 Q2344.07 2600.55 2347.12 2605.16 Q2350.2 2609.74 2350.2 2618.49 Q2350.2 2627.22 2347.12 2631.83 Q2344.07 2636.41 2338.26 2636.41 Q2332.45 2636.41 2329.37 2631.83 Q2326.31 2627.22 2326.31 2618.49 Q2326.31 2609.74 2329.37 2605.16 Q2332.45 2600.55 2338.26 2600.55 Z" fill="#000000" fill-rule="nonzero" fill-opacity="1" /><path clip-path="url(#clip830)" d="M1312.76 2671.48 L1318.62 2671.48 L1318.62 2721 L1312.76 2721 L1312.76 2671.48 Z" fill="#000000" fill-rule="nonzero" fill-opacity="1" /><polyline clip-path="url(#clip830)" style="stroke:#000000; stroke-linecap:round; stroke-linejoin:round; stroke-width:4; stroke-opacity:1; fill:none" points="278.623,2570.14 278.623,1855.89 "/>
<polyline clip-path="url(#clip830)" style="stroke:#000000; stroke-linecap:round; stroke-linejoin:round; stroke-width:4; stroke-opacity:1; fill:none" points="278.623,2570.13 297.52,2570.13 "/>
<polyline clip-path="url(#clip830)" style="stroke:#000000; stroke-linecap:round; stroke-linejoin:round; stroke-width:4; stroke-opacity:1; fill:none" points="278.623,2450.69 297.52,2450.69 "/>
<polyline clip-path="url(#clip830)" style="stroke:#000000; stroke-linecap:round; stroke-linejoin:round; stroke-width:4; stroke-opacity:1; fill:none" points="278.623,2331.24 297.52,2331.24 "/>
<polyline clip-path="url(#clip830)" style="stroke:#000000; stroke-linecap:round; stroke-linejoin:round; stroke-width:4; stroke-opacity:1; fill:none" points="278.623,2211.8 297.52,2211.8 "/>
<polyline clip-path="url(#clip830)" style="stroke:#000000; stroke-linecap:round; stroke-linejoin:round; stroke-width:4; stroke-opacity:1; fill:none" points="278.623,2092.35 297.52,2092.35 "/>
<polyline clip-path="url(#clip830)" style="stroke:#000000; stroke-linecap:round; stroke-linejoin:round; stroke-width:4; stroke-opacity:1; fill:none" points="278.623,1972.91 297.52,1972.91 "/>
<path clip-path="url(#clip830)" d="M114.586 2570.59 L144.262 2570.59 L144.262 2574.52 L114.586 2574.52 L114.586 2570.59 Z" fill="#000000" fill-rule="nonzero" fill-opacity="1" /><path clip-path="url(#clip830)" d="M155.165 2583.48 L162.804 2583.48 L162.804 2557.11 L154.494 2558.78 L154.494 2554.52 L162.757 2552.85 L167.433 2552.85 L167.433 2583.48 L175.072 2583.48 L175.072 2587.41 L155.165 2587.41 L155.165 2583.48 Z" fill="#000000" fill-rule="nonzero" fill-opacity="1" /><path clip-path="url(#clip830)" d="M184.563 2552.85 L202.919 2552.85 L202.919 2556.79 L188.845 2556.79 L188.845 2565.26 Q189.864 2564.91 190.882 2564.75 Q191.901 2564.57 192.919 2564.57 Q198.706 2564.57 202.086 2567.74 Q205.466 2570.91 205.466 2576.33 Q205.466 2581.9 201.993 2585.01 Q198.521 2588.09 192.202 2588.09 Q190.026 2588.09 187.757 2587.71 Q185.512 2587.34 183.105 2586.6 L183.105 2581.9 Q185.188 2583.04 187.41 2583.59 Q189.632 2584.15 192.109 2584.15 Q196.114 2584.15 198.452 2582.04 Q200.79 2579.94 200.79 2576.33 Q200.79 2572.71 198.452 2570.61 Q196.114 2568.5 192.109 2568.5 Q190.234 2568.5 188.359 2568.92 Q186.507 2569.34 184.563 2570.21 L184.563 2552.85 Z" fill="#000000" fill-rule="nonzero" fill-opacity="1" /><path clip-path="url(#clip830)" d="M224.678 2555.93 Q221.067 2555.93 219.239 2559.5 Q217.433 2563.04 217.433 2570.17 Q217.433 2577.28 219.239 2580.84 Q221.067 2584.38 224.678 2584.38 Q228.313 2584.38 230.118 2580.84 Q231.947 2577.28 231.947 2570.17 Q231.947 2563.04 230.118 2559.5 Q228.313 2555.93 224.678 2555.93 M224.678 2552.23 Q230.489 2552.23 233.544 2556.84 Q236.623 2561.42 236.623 2570.17 Q236.623 2578.9 233.544 2583.5 Q230.489 2588.09 224.678 2588.09 Q218.868 2588.09 215.79 2583.5 Q212.734 2578.9 212.734 2570.17 Q212.734 2561.42 215.79 2556.84 Q218.868 2552.23 224.678 2552.23 Z" fill="#000000" fill-rule="nonzero" fill-opacity="1" /><path clip-path="url(#clip830)" d="M114.586 2451.14 L144.262 2451.14 L144.262 2455.07 L114.586 2455.07 L114.586 2451.14 Z" fill="#000000" fill-rule="nonzero" fill-opacity="1" /><path clip-path="url(#clip830)" d="M155.165 2464.03 L162.804 2464.03 L162.804 2437.67 L154.494 2439.33 L154.494 2435.07 L162.757 2433.41 L167.433 2433.41 L167.433 2464.03 L175.072 2464.03 L175.072 2467.97 L155.165 2467.97 L155.165 2464.03 Z" fill="#000000" fill-rule="nonzero" fill-opacity="1" /><path clip-path="url(#clip830)" d="M194.517 2436.49 Q190.905 2436.49 189.077 2440.05 Q187.271 2443.59 187.271 2450.72 Q187.271 2457.83 189.077 2461.39 Q190.905 2464.94 194.517 2464.94 Q198.151 2464.94 199.956 2461.39 Q201.785 2457.83 201.785 2450.72 Q201.785 2443.59 199.956 2440.05 Q198.151 2436.49 194.517 2436.49 M194.517 2432.78 Q200.327 2432.78 203.382 2437.39 Q206.461 2441.97 206.461 2450.72 Q206.461 2459.45 203.382 2464.06 Q200.327 2468.64 194.517 2468.64 Q188.706 2468.64 185.628 2464.06 Q182.572 2459.45 182.572 2450.72 Q182.572 2441.97 185.628 2437.39 Q188.706 2432.78 194.517 2432.78 Z" fill="#000000" fill-rule="nonzero" fill-opacity="1" /><path clip-path="url(#clip830)" d="M224.678 2436.49 Q221.067 2436.49 219.239 2440.05 Q217.433 2443.59 217.433 2450.72 Q217.433 2457.83 219.239 2461.39 Q221.067 2464.94 224.678 2464.94 Q228.313 2464.94 230.118 2461.39 Q231.947 2457.83 231.947 2450.72 Q231.947 2443.59 230.118 2440.05 Q228.313 2436.49 224.678 2436.49 M224.678 2432.78 Q230.489 2432.78 233.544 2437.39 Q236.623 2441.97 236.623 2450.72 Q236.623 2459.45 233.544 2464.06 Q230.489 2468.64 224.678 2468.64 Q218.868 2468.64 215.79 2464.06 Q212.734 2459.45 212.734 2450.72 Q212.734 2441.97 215.79 2437.39 Q218.868 2432.78 224.678 2432.78 Z" fill="#000000" fill-rule="nonzero" fill-opacity="1" /><path clip-path="url(#clip830)" d="M144.748 2331.69 L174.424 2331.69 L174.424 2335.63 L144.748 2335.63 L144.748 2331.69 Z" fill="#000000" fill-rule="nonzero" fill-opacity="1" /><path clip-path="url(#clip830)" d="M184.563 2313.96 L202.919 2313.96 L202.919 2317.9 L188.845 2317.9 L188.845 2326.37 Q189.864 2326.02 190.882 2325.86 Q191.901 2325.68 192.919 2325.68 Q198.706 2325.68 202.086 2328.85 Q205.466 2332.02 205.466 2337.43 Q205.466 2343.01 201.993 2346.11 Q198.521 2349.19 192.202 2349.19 Q190.026 2349.19 187.757 2348.82 Q185.512 2348.45 183.105 2347.71 L183.105 2343.01 Q185.188 2344.15 187.41 2344.7 Q189.632 2345.26 192.109 2345.26 Q196.114 2345.26 198.452 2343.15 Q200.79 2341.05 200.79 2337.43 Q200.79 2333.82 198.452 2331.72 Q196.114 2329.61 192.109 2329.61 Q190.234 2329.61 188.359 2330.03 Q186.507 2330.44 184.563 2331.32 L184.563 2313.96 Z" fill="#000000" fill-rule="nonzero" fill-opacity="1" /><path clip-path="url(#clip830)" d="M224.678 2317.04 Q221.067 2317.04 219.239 2320.61 Q217.433 2324.15 217.433 2331.28 Q217.433 2338.38 219.239 2341.95 Q221.067 2345.49 224.678 2345.49 Q228.313 2345.49 230.118 2341.95 Q231.947 2338.38 231.947 2331.28 Q231.947 2324.15 230.118 2320.61 Q228.313 2317.04 224.678 2317.04 M224.678 2313.34 Q230.489 2313.34 233.544 2317.94 Q236.623 2322.53 236.623 2331.28 Q236.623 2340 233.544 2344.61 Q230.489 2349.19 224.678 2349.19 Q218.868 2349.19 215.79 2344.61 Q212.734 2340 212.734 2331.28 Q212.734 2322.53 215.79 2317.94 Q218.868 2313.34 224.678 2313.34 Z" fill="#000000" fill-rule="nonzero" fill-opacity="1" /><path clip-path="url(#clip830)" d="M224.678 2197.6 Q221.067 2197.6 219.239 2201.16 Q217.433 2204.7 217.433 2211.83 Q217.433 2218.94 219.239 2222.5 Q221.067 2226.04 224.678 2226.04 Q228.313 2226.04 230.118 2222.5 Q231.947 2218.94 231.947 2211.83 Q231.947 2204.7 230.118 2201.16 Q228.313 2197.6 224.678 2197.6 M224.678 2193.89 Q230.489 2193.89 233.544 2198.5 Q236.623 2203.08 236.623 2211.83 Q236.623 2220.56 233.544 2225.16 Q230.489 2229.75 224.678 2229.75 Q218.868 2229.75 215.79 2225.16 Q212.734 2220.56 212.734 2211.83 Q212.734 2203.08 215.79 2198.5 Q218.868 2193.89 224.678 2193.89 Z" fill="#000000" fill-rule="nonzero" fill-opacity="1" /><path clip-path="url(#clip830)" d="M184.563 2075.07 L202.919 2075.07 L202.919 2079.01 L188.845 2079.01 L188.845 2087.48 Q189.864 2087.13 190.882 2086.97 Q191.901 2086.78 192.919 2086.78 Q198.706 2086.78 202.086 2089.96 Q205.466 2093.13 205.466 2098.54 Q205.466 2104.12 201.993 2107.22 Q198.521 2110.3 192.202 2110.3 Q190.026 2110.3 187.757 2109.93 Q185.512 2109.56 183.105 2108.82 L183.105 2104.12 Q185.188 2105.26 187.41 2105.81 Q189.632 2106.37 192.109 2106.37 Q196.114 2106.37 198.452 2104.26 Q200.79 2102.15 200.79 2098.54 Q200.79 2094.93 198.452 2092.83 Q196.114 2090.72 192.109 2090.72 Q190.234 2090.72 188.359 2091.14 Q186.507 2091.55 184.563 2092.43 L184.563 2075.07 Z" fill="#000000" fill-rule="nonzero" fill-opacity="1" /><path clip-path="url(#clip830)" d="M224.678 2078.15 Q221.067 2078.15 219.239 2081.71 Q217.433 2085.26 217.433 2092.39 Q217.433 2099.49 219.239 2103.06 Q221.067 2106.6 224.678 2106.6 Q228.313 2106.6 230.118 2103.06 Q231.947 2099.49 231.947 2092.39 Q231.947 2085.26 230.118 2081.71 Q228.313 2078.15 224.678 2078.15 M224.678 2074.45 Q230.489 2074.45 233.544 2079.05 Q236.623 2083.64 236.623 2092.39 Q236.623 2101.11 233.544 2105.72 Q230.489 2110.3 224.678 2110.3 Q218.868 2110.3 215.79 2105.72 Q212.734 2101.11 212.734 2092.39 Q212.734 2083.64 215.79 2079.05 Q218.868 2074.45 224.678 2074.45 Z" fill="#000000" fill-rule="nonzero" fill-opacity="1" /><path clip-path="url(#clip830)" d="M155.165 1986.25 L162.804 1986.25 L162.804 1959.88 L154.494 1961.55 L154.494 1957.29 L162.757 1955.63 L167.433 1955.63 L167.433 1986.25 L175.072 1986.25 L175.072 1990.19 L155.165 1990.19 L155.165 1986.25 Z" fill="#000000" fill-rule="nonzero" fill-opacity="1" /><path clip-path="url(#clip830)" d="M194.517 1958.7 Q190.905 1958.7 189.077 1962.27 Q187.271 1965.81 187.271 1972.94 Q187.271 1980.05 189.077 1983.61 Q190.905 1987.15 194.517 1987.15 Q198.151 1987.15 199.956 1983.61 Q201.785 1980.05 201.785 1972.94 Q201.785 1965.81 199.956 1962.27 Q198.151 1958.7 194.517 1958.7 M194.517 1955 Q200.327 1955 203.382 1959.61 Q206.461 1964.19 206.461 1972.94 Q206.461 1981.67 203.382 1986.27 Q200.327 1990.86 194.517 1990.86 Q188.706 1990.86 185.628 1986.27 Q182.572 1981.67 182.572 1972.94 Q182.572 1964.19 185.628 1959.61 Q188.706 1955 194.517 1955 Z" fill="#000000" fill-rule="nonzero" fill-opacity="1" /><path clip-path="url(#clip830)" d="M224.678 1958.7 Q221.067 1958.7 219.239 1962.27 Q217.433 1965.81 217.433 1972.94 Q217.433 1980.05 219.239 1983.61 Q221.067 1987.15 224.678 1987.15 Q228.313 1987.15 230.118 1983.61 Q231.947 1980.05 231.947 1972.94 Q231.947 1965.81 230.118 1962.27 Q228.313 1958.7 224.678 1958.7 M224.678 1955 Q230.489 1955 233.544 1959.61 Q236.623 1964.19 236.623 1972.94 Q236.623 1981.67 233.544 1986.27 Q230.489 1990.86 224.678 1990.86 Q218.868 1990.86 215.79 1986.27 Q212.734 1981.67 212.734 1972.94 Q212.734 1964.19 215.79 1959.61 Q218.868 1955 224.678 1955 Z" fill="#000000" fill-rule="nonzero" fill-opacity="1" /><path clip-path="url(#clip830)" d="M16.0939 2382.55 L53.0469 2382.55 L53.0469 2374.78 Q53.0469 2364.95 48.5909 2360.4 Q44.1349 2355.81 34.5226 2355.81 Q24.9741 2355.81 20.5499 2360.4 Q16.0939 2364.95 16.0939 2374.78 L16.0939 2382.55 M10.8104 2388.98 L10.8104 2375.77 Q10.8104 2361.96 16.5714 2355.5 Q22.3005 2349.04 34.5226 2349.04 Q46.8085 2349.04 52.5694 2355.53 Q58.3304 2362.02 58.3304 2375.77 L58.3304 2388.98 L10.8104 2388.98 Z" fill="#000000" fill-rule="nonzero" fill-opacity="1" /><path clip-path="url(#clip830)" d="M30.6077 2341.3 L30.6077 2337.61 L58.3304 2337.61 L58.3304 2341.3 L30.6077 2341.3 Z" fill="#000000" fill-rule="nonzero" fill-opacity="1" /><path clip-path="url(#clip830)" d="M10.4603 2334.49 L10.4603 2309.15 L13.484 2309.15 L13.484 2319.78 L37.0689 2319.78 L37.0689 2323.86 L13.484 2323.86 L13.484 2334.49 L10.4603 2334.49 Z" fill="#000000" fill-rule="nonzero" fill-opacity="1" /><path clip-path="url(#clip830)" d="M10.4603 2305.24 L10.4603 2286.33 L13.484 2286.33 L13.484 2301.2 L21.3775 2301.2 L21.3775 2286.94 L24.4012 2286.94 L24.4012 2301.2 L34.0452 2301.2 L34.0452 2285.95 L37.0689 2285.95 L37.0689 2305.24 L10.4603 2305.24 Z" fill="#000000" fill-rule="nonzero" fill-opacity="1" /><path clip-path="url(#clip830)" d="M8.86885 2242.41 Q16.1894 2246.67 23.3508 2248.74 Q30.5123 2250.81 37.8646 2250.81 Q45.217 2250.81 52.4421 2248.74 Q59.6354 2246.64 66.9241 2242.41 L66.9241 2247.5 Q59.4444 2252.28 52.2193 2254.66 Q44.9942 2257.02 37.8646 2257.02 Q30.7669 2257.02 23.5736 2254.66 Q16.3804 2252.31 8.86885 2247.5 L8.86885 2242.41 Z" fill="#000000" fill-rule="nonzero" fill-opacity="1" /><path clip-path="url(#clip830)" d="M71.8893 2231.65 L22.6824 2231.65 L22.6824 2225.8 L44.8351 2225.8 Q49.4502 2225.8 51.8055 2223.6 Q54.1609 2221.4 54.1609 2217.11 Q54.1609 2212.4 51.4873 2210.04 Q48.8137 2207.65 43.4665 2207.65 L22.6824 2207.65 L22.6824 2201.8 L50.1186 2201.8 Q52.0283 2201.8 52.9514 2201.26 Q53.8426 2200.68 53.8426 2199.5 Q53.8426 2199.22 53.6834 2198.71 Q53.4925 2198.2 53.1105 2197.31 L57.8211 2197.31 Q58.5532 2198.61 58.9033 2199.79 Q59.2534 2200.94 59.2534 2202.05 Q59.2534 2204.25 58.0121 2205.55 Q56.7708 2206.86 54.2245 2207.33 Q56.739 2208.93 58.0121 2211.25 Q59.2534 2213.54 59.2534 2216.66 Q59.2534 2219.91 58.0121 2222.2 Q56.7708 2224.46 54.2882 2225.8 L71.8893 2225.8 L71.8893 2231.65 Z" fill="#000000" fill-rule="nonzero" fill-opacity="1" /><path clip-path="url(#clip830)" d="M10.8104 2189.32 L10.8104 2182.89 L30.8942 2182.89 L10.8104 2161.57 L10.8104 2153.29 L32.963 2176.87 L58.3304 2151.6 L58.3304 2160.07 L35.4457 2182.89 L58.3304 2182.89 L58.3304 2189.32 L10.8104 2189.32 Z" fill="#000000" fill-rule="nonzero" fill-opacity="1" /><path clip-path="url(#clip830)" d="M10.8104 2122.54 L28.5389 2105.26 L28.5389 2111.66 L15.9666 2125.66 L28.5389 2139.67 L28.5389 2146.06 L10.8104 2128.78 L10.8104 2122.54 Z" fill="#000000" fill-rule="nonzero" fill-opacity="1" /><path clip-path="url(#clip830)" d="M52.9195 2085.85 L52.9195 2063.41 L58.3304 2063.41 L58.3304 2093.58 L52.9195 2093.58 Q49.1319 2089.92 42.7662 2083.62 Q36.3687 2077.28 34.5226 2075.66 Q31.0533 2072.57 28.6662 2071.36 Q26.2472 2070.12 23.9237 2070.12 Q20.1361 2070.12 17.749 2072.8 Q15.3619 2075.44 15.3619 2079.7 Q15.3619 2082.73 16.4122 2086.1 Q17.4626 2089.44 19.5951 2093.26 L13.102 2093.26 Q11.5424 2089.38 10.7467 2086 Q9.95102 2082.63 9.95102 2079.83 Q9.95102 2072.45 13.6431 2068.05 Q17.3352 2063.66 23.51 2063.66 Q26.4382 2063.66 29.08 2064.77 Q31.6899 2065.86 35.2547 2068.75 Q36.1777 2069.55 40.6019 2073.81 Q44.9942 2078.08 52.9195 2085.85 Z" fill="#000000" fill-rule="nonzero" fill-opacity="1" /><path clip-path="url(#clip830)" d="M8.86885 2051.66 L8.86885 2046.57 Q16.3804 2041.79 23.5736 2039.44 Q30.7669 2037.05 37.8646 2037.05 Q44.9942 2037.05 52.2193 2039.44 Q59.4444 2041.79 66.9241 2046.57 L66.9241 2051.66 Q59.6354 2047.43 52.4421 2045.36 Q45.217 2043.26 37.8646 2043.26 Q30.5123 2043.26 23.3508 2045.36 Q16.1894 2047.43 8.86885 2051.66 Z" fill="#000000" fill-rule="nonzero" fill-opacity="1" /><polyline clip-path="url(#clip834)" style="stroke:#009af9; stroke-linecap:round; stroke-linejoin:round; stroke-width:4; stroke-opacity:1; fill:none" points="337.325,2209.58 343.891,2209.74 350.457,2209.1 357.023,2208.26 363.589,2207.79 370.156,2207.71 376.722,2208.12 383.288,2209.1 389.854,2210.76 396.421,2213.1 402.987,2216.15 409.553,2219.97 416.119,2224.49 422.685,2229.72 429.252,2235.58 435.818,2242 442.384,2248.94 448.95,2256.25 455.516,2263.84 462.083,2271.61 468.649,2279.37 475.215,2287.05 481.781,2294.48 488.347,2301.48 494.914,2307.98 501.48,2313.79 508.046,2318.74 514.612,2322.79 521.178,2325.75 527.745,2327.5 534.311,2328 540.877,2327.11 547.443,2324.77 554.009,2320.96 560.576,2315.58 567.142,2308.66 573.708,2300.2 580.274,2290.16 586.84,2278.63 593.407,2265.67 599.973,2251.28 606.539,2235.63 613.105,2218.79 619.672,2200.85 626.238,2182 632.804,2162.36 639.37,2142.09 645.936,2121.37 652.503,2100.37 659.069,2079.3 665.635,2058.33 672.201,2037.64 678.767,2017.46 685.334,1997.95 691.9,1979.32 698.466,1961.75 705.032,1945.39 711.598,1930.44 718.165,1917.05 724.731,1905.32 731.297,1895.45 737.863,1887.5 744.429,1881.56 750.996,1877.76 757.562,1876.11 764.128,1876.65 770.694,1879.45 777.26,1884.42 783.827,1891.61 790.393,1900.96 796.959,1912.35 803.525,1925.77 810.091,1941.11 816.658,1958.17 823.224,1976.92 829.79,1997.14 836.356,2018.65 842.923,2041.35 849.489,2064.97 856.055,2089.35 862.621,2114.3 869.187,2139.55 875.754,2164.96 882.32,2190.3 888.886,2215.27 895.452,2239.81 902.018,2263.62 908.585,2286.48 915.151,2308.32 921.717,2328.84 928.283,2347.93 934.849,2365.5 941.416,2381.29 947.982,2395.27 954.548,2407.39 961.114,2417.42 967.68,2425.44 974.247,2431.4 980.813,2435.16 987.379,2436.88 993.945,2436.51 1000.51,2434.04 1007.08,2429.66 1013.64,2423.35 1020.21,2415.22 1026.78,2405.46 1033.34,2394.11 1039.91,2381.36 1046.47,2367.4 1053.04,2352.34 1059.61,2336.39 1066.17,2319.76 1072.74,2302.61 1079.31,2285.15 1085.87,2267.57 1092.44,2250.1 1099,2232.92 1105.57,2216.19 1112.14,2200.16 1118.7,2184.96 1125.27,2170.76 1131.84,2157.79 1138.4,2146.09 1144.97,2135.85 1151.53,2127.23 1158.1,2120.23 1164.67,2115.01 1171.23,2111.66 1177.8,2110.11 1184.37,2110.52 1190.93,2112.85 1197.5,2117.03 1204.06,2123.17 1210.63,2131.11 1217.2,2140.79 1223.76,2152.24 1230.33,2165.21 1236.89,2179.67 1243.46,2195.54 1250.03,2212.55 1256.59,2230.64 1263.16,2249.67 1269.73,2269.36 1276.29,2289.64 1282.86,2310.29 1289.42,2331.08 1295.99,2351.92 1302.56,2372.53 1309.12,2392.75 1315.69,2412.46 1322.26,2431.37 1328.82,2449.39 1335.39,2466.38 1341.95,2482.08 1348.52,2496.46 1355.09,2509.34 1361.65,2520.59 1368.22,2530.17 1374.79,2537.93 1381.35,2543.82 1387.92,2547.85 1394.48,2549.86 1401.05,2549.93 1407.62,2548.06 1414.18,2544.19 1420.75,2538.42 1427.31,2530.8 1433.88,2521.33 1440.45,2510.18 1447.01,2497.37 1453.58,2483.03 1460.15,2467.33 1466.71,2450.31 1473.28,2432.18 1479.84,2413.1 1486.41,2393.15 1492.98,2372.57 1499.54,2351.52 1506.11,2330.11 1512.68,2308.59 1519.24,2287.09 1525.81,2265.76 1532.37,2244.84 1538.94,2224.4 1545.51,2204.66 1552.07,2185.77 1558.64,2167.81 1565.21,2150.98 1571.77,2135.37 1578.34,2121.06 1584.9,2108.22 1591.47,2096.86 1598.04,2087.07 1604.6,2078.96 1611.17,2072.47 1617.73,2067.7 1624.3,2064.69 1630.87,2063.33 1637.43,2063.7 1644,2065.75 1650.57,2069.37 1657.13,2074.6 1663.7,2081.31 1670.26,2089.41 1676.83,2098.89 1683.4,2109.54 1689.96,2121.3 1696.53,2134.11 1703.1,2147.73 1709.66,2162.09 1716.23,2177.12 1722.79,2192.55 1729.36,2208.34 1735.93,2224.34 1742.49,2240.35 1749.06,2256.32 1755.63,2272.07 1762.19,2287.45 1768.76,2302.4 1775.32,2316.74 1781.89,2330.38 1788.46,2343.25 1795.02,2355.21 1801.59,2366.19 1808.15,2376.15 1814.72,2384.97 1821.29,2392.63 1827.85,2399.09 1834.42,2404.29 1840.99,2408.26 1847.55,2410.95 1854.12,2412.37 1860.68,2412.55 1867.25,2411.5 1873.82,2409.26 1880.38,2405.88 1886.95,2401.4 1893.52,2395.9 1900.08,2389.43 1906.65,2382.08 1913.21,2373.95 1919.78,2365.08 1926.35,2355.6 1932.91,2345.63 1939.48,2335.2 1946.05,2324.49 1952.61,2313.56 1959.18,2302.49 1965.74,2291.46 1972.31,2280.49 1978.88,2269.71 1985.44,2259.24 1992.01,2249.12 1998.57,2239.45 2005.14,2230.35 2011.71,2221.82 2018.27,2213.98 2024.84,2206.9 2031.41,2200.57 2037.97,2195.09 2044.54,2190.47 2051.1,2186.73 2057.67,2183.92 2064.24,2182.01 2070.8,2181.02 2077.37,2180.97 2083.94,2181.79 2090.5,2183.5 2097.07,2186.07 2103.63,2189.43 2110.2,2193.56 2116.77,2198.42 2123.33,2203.92 2129.9,2210.05 2136.47,2216.69 2143.03,2223.8 2149.6,2231.34 2156.16,2239.16 2162.73,2247.25 2169.3,2255.52 2175.86,2263.85 2182.43,2272.22 2188.99,2280.54 2195.56,2288.7 2202.13,2296.68 2208.69,2304.38 2215.26,2311.72 2221.83,2318.69 2228.39,2325.19 2234.96,2331.17 2241.52,2336.62 2248.09,2341.44 2254.66,2345.64 2261.22,2349.19 2267.79,2352.02 2274.36,2354.17 2280.92,2355.6 2287.49,2356.29 2294.05,2356.28 "/>
</svg>
