<?xml version="1.0" encoding="utf-8"?>
<svg xmlns="http://www.w3.org/2000/svg" xmlns:xlink="http://www.w3.org/1999/xlink" width="600" height="400" viewBox="0 0 2400 1600">
<defs>
  <clipPath id="clip950">
    <rect x="0" y="0" width="2400" height="1600"/>
  </clipPath>
</defs>
<path clip-path="url(#clip950)" d="M0 1600 L2400 1600 L2400 0 L0 0  Z" fill="#ffffff" fill-rule="evenodd" fill-opacity="1"/>
<defs>
  <clipPath id="clip951">
    <rect x="480" y="0" width="1681" height="1600"/>
  </clipPath>
</defs>
<path clip-path="url(#clip950)" d="M249.542 1423.18 L2352.76 1423.18 L2352.76 47.2441 L249.542 47.2441  Z" fill="#ffffff" fill-rule="evenodd" fill-opacity="1"/>
<defs>
  <clipPath id="clip952">
    <rect x="249" y="47" width="2104" height="1377"/>
  </clipPath>
</defs>
<polyline clip-path="url(#clip952)" style="stroke:#000000; stroke-linecap:round; stroke-linejoin:round; stroke-width:2; stroke-opacity:0.1; fill:none" points="309.066,1423.18 309.066,47.2441 "/>
<polyline clip-path="url(#clip952)" style="stroke:#000000; stroke-linecap:round; stroke-linejoin:round; stroke-width:2; stroke-opacity:0.1; fill:none" points="935.035,1423.18 935.035,47.2441 "/>
<polyline clip-path="url(#clip952)" style="stroke:#000000; stroke-linecap:round; stroke-linejoin:round; stroke-width:2; stroke-opacity:0.1; fill:none" points="1561,1423.18 1561,47.2441 "/>
<polyline clip-path="url(#clip952)" style="stroke:#000000; stroke-linecap:round; stroke-linejoin:round; stroke-width:2; stroke-opacity:0.1; fill:none" points="2186.97,1423.18 2186.97,47.2441 "/>
<polyline clip-path="url(#clip952)" style="stroke:#000000; stroke-linecap:round; stroke-linejoin:round; stroke-width:2; stroke-opacity:0.1; fill:none" points="249.542,1384.24 2352.76,1384.24 "/>
<polyline clip-path="url(#clip952)" style="stroke:#000000; stroke-linecap:round; stroke-linejoin:round; stroke-width:2; stroke-opacity:0.1; fill:none" points="249.542,1144.07 2352.76,1144.07 "/>
<polyline clip-path="url(#clip952)" style="stroke:#000000; stroke-linecap:round; stroke-linejoin:round; stroke-width:2; stroke-opacity:0.1; fill:none" points="249.542,903.905 2352.76,903.905 "/>
<polyline clip-path="url(#clip952)" style="stroke:#000000; stroke-linecap:round; stroke-linejoin:round; stroke-width:2; stroke-opacity:0.1; fill:none" points="249.542,663.738 2352.76,663.738 "/>
<polyline clip-path="url(#clip952)" style="stroke:#000000; stroke-linecap:round; stroke-linejoin:round; stroke-width:2; stroke-opacity:0.1; fill:none" points="249.542,423.571 2352.76,423.571 "/>
<polyline clip-path="url(#clip952)" style="stroke:#000000; stroke-linecap:round; stroke-linejoin:round; stroke-width:2; stroke-opacity:0.1; fill:none" points="249.542,183.405 2352.76,183.405 "/>
<polyline clip-path="url(#clip950)" style="stroke:#000000; stroke-linecap:round; stroke-linejoin:round; stroke-width:4; stroke-opacity:1; fill:none" points="249.542,1423.18 2352.76,1423.18 "/>
<polyline clip-path="url(#clip950)" style="stroke:#000000; stroke-linecap:round; stroke-linejoin:round; stroke-width:4; stroke-opacity:1; fill:none" points="309.066,1423.18 309.066,1404.28 "/>
<polyline clip-path="url(#clip950)" style="stroke:#000000; stroke-linecap:round; stroke-linejoin:round; stroke-width:4; stroke-opacity:1; fill:none" points="935.035,1423.18 935.035,1404.28 "/>
<polyline clip-path="url(#clip950)" style="stroke:#000000; stroke-linecap:round; stroke-linejoin:round; stroke-width:4; stroke-opacity:1; fill:none" points="1561,1423.18 1561,1404.28 "/>
<polyline clip-path="url(#clip950)" style="stroke:#000000; stroke-linecap:round; stroke-linejoin:round; stroke-width:4; stroke-opacity:1; fill:none" points="2186.97,1423.18 2186.97,1404.28 "/>
<path clip-path="url(#clip950)" d="M309.066 1454.1 Q305.455 1454.1 303.627 1457.66 Q301.821 1461.2 301.821 1468.33 Q301.821 1475.44 303.627 1479.01 Q305.455 1482.55 309.066 1482.55 Q312.701 1482.55 314.506 1479.01 Q316.335 1475.44 316.335 1468.33 Q316.335 1461.2 314.506 1457.66 Q312.701 1454.1 309.066 1454.1 M309.066 1450.39 Q314.876 1450.39 317.932 1455 Q321.011 1459.58 321.011 1468.33 Q321.011 1477.06 317.932 1481.67 Q314.876 1486.25 309.066 1486.25 Q303.256 1486.25 300.177 1481.67 Q297.122 1477.06 297.122 1468.33 Q297.122 1459.58 300.177 1455 Q303.256 1450.39 309.066 1450.39 Z" fill="#000000" fill-rule="nonzero" fill-opacity="1" /><path clip-path="url(#clip950)" d="M925.417 1481.64 L933.056 1481.64 L933.056 1455.28 L924.746 1456.95 L924.746 1452.69 L933.01 1451.02 L937.686 1451.02 L937.686 1481.64 L945.325 1481.64 L945.325 1485.58 L925.417 1485.58 L925.417 1481.64 Z" fill="#000000" fill-rule="nonzero" fill-opacity="1" /><path clip-path="url(#clip950)" d="M1555.66 1481.64 L1571.98 1481.64 L1571.98 1485.58 L1550.03 1485.58 L1550.03 1481.64 Q1552.69 1478.89 1557.28 1474.26 Q1561.88 1469.61 1563.06 1468.27 Q1565.31 1465.74 1566.19 1464.01 Q1567.09 1462.25 1567.09 1460.56 Q1567.09 1457.8 1565.15 1456.07 Q1563.23 1454.33 1560.12 1454.33 Q1557.93 1454.33 1555.47 1455.09 Q1553.04 1455.86 1550.26 1457.41 L1550.26 1452.69 Q1553.09 1451.55 1555.54 1450.97 Q1558 1450.39 1560.03 1450.39 Q1565.4 1450.39 1568.6 1453.08 Q1571.79 1455.77 1571.79 1460.26 Q1571.79 1462.39 1570.98 1464.31 Q1570.19 1466.2 1568.09 1468.8 Q1567.51 1469.47 1564.41 1472.69 Q1561.31 1475.88 1555.66 1481.64 Z" fill="#000000" fill-rule="nonzero" fill-opacity="1" /><path clip-path="url(#clip950)" d="M2191.22 1466.95 Q2194.58 1467.66 2196.45 1469.93 Q2198.35 1472.2 2198.35 1475.53 Q2198.35 1480.65 2194.83 1483.45 Q2191.31 1486.25 2184.83 1486.25 Q2182.66 1486.25 2180.34 1485.81 Q2178.05 1485.39 2175.6 1484.54 L2175.6 1480.02 Q2177.54 1481.16 2179.86 1481.74 Q2182.17 1482.32 2184.69 1482.32 Q2189.09 1482.32 2191.38 1480.58 Q2193.7 1478.84 2193.7 1475.53 Q2193.7 1472.48 2191.55 1470.77 Q2189.42 1469.03 2185.6 1469.03 L2181.57 1469.03 L2181.57 1465.19 L2185.78 1465.19 Q2189.23 1465.19 2191.06 1463.82 Q2192.89 1462.43 2192.89 1459.84 Q2192.89 1457.18 2190.99 1455.77 Q2189.11 1454.33 2185.6 1454.33 Q2183.67 1454.33 2181.48 1454.75 Q2179.28 1455.16 2176.64 1456.04 L2176.64 1451.88 Q2179.3 1451.14 2181.61 1450.77 Q2183.95 1450.39 2186.01 1450.39 Q2191.34 1450.39 2194.44 1452.83 Q2197.54 1455.23 2197.54 1459.35 Q2197.54 1462.22 2195.9 1464.21 Q2194.25 1466.18 2191.22 1466.95 Z" fill="#000000" fill-rule="nonzero" fill-opacity="1" /><path clip-path="url(#clip950)" d="M1205.79 1561.55 Q1206.94 1563.08 1210.37 1563.08 L1213.21 1563.08 L1213.21 1568.04 L1209.67 1568.04 Q1203.94 1568.04 1201.33 1564.99 Q1198.72 1561.87 1198.72 1555.12 L1198.72 1538.25 L1185.36 1538.25 L1185.36 1532.4 L1218.24 1532.4 L1218.24 1538.25 L1204.71 1538.25 L1204.71 1555.47 Q1204.71 1560.09 1205.79 1561.55 Z" fill="#000000" fill-rule="nonzero" fill-opacity="1" /><path clip-path="url(#clip950)" d="M1258.69 1520.52 L1264.1 1520.52 L1247.55 1574.09 L1242.14 1574.09 L1258.69 1520.52 Z" fill="#000000" fill-rule="nonzero" fill-opacity="1" /><path clip-path="url(#clip950)" d="M1291.22 1520.52 L1297.65 1520.52 L1297.65 1540 L1321.01 1540 L1321.01 1520.52 L1327.44 1520.52 L1327.44 1568.04 L1321.01 1568.04 L1321.01 1545.41 L1297.65 1545.41 L1297.65 1568.04 L1291.22 1568.04 L1291.22 1520.52 Z" fill="#000000" fill-rule="nonzero" fill-opacity="1" /><path clip-path="url(#clip950)" d="M1351.98 1546.5 Q1350.39 1543.76 1347.17 1543.76 Q1343.96 1543.76 1342.37 1546.5 Q1340.74 1549.23 1340.74 1554.71 Q1340.74 1560.21 1342.37 1562.95 Q1343.96 1565.69 1347.17 1565.69 Q1350.39 1565.69 1351.98 1562.95 Q1353.6 1560.21 1353.6 1554.71 Q1353.6 1549.23 1351.98 1546.5 M1347.17 1540.93 Q1352.3 1540.93 1355 1544.46 Q1357.71 1547.99 1357.71 1554.71 Q1357.71 1561.46 1355 1564.99 Q1352.3 1568.52 1347.17 1568.52 Q1342.02 1568.52 1339.31 1564.99 Q1336.61 1561.46 1336.61 1554.71 Q1336.61 1547.99 1339.31 1544.46 Q1342.02 1540.93 1347.17 1540.93 Z" fill="#000000" fill-rule="nonzero" fill-opacity="1" /><path clip-path="url(#clip950)" d="M1364.33 1533.83 L1390.01 1533.83 L1390.01 1536.85 L1364.33 1536.85 L1364.33 1533.83 Z" fill="#000000" fill-rule="nonzero" fill-opacity="1" /><path clip-path="url(#clip950)" d="M1399.34 1543.28 L1405.83 1543.28 L1405.83 1523.83 L1398.74 1525.14 L1398.74 1521.45 L1406.06 1520.21 L1410.42 1520.21 L1410.42 1543.28 L1416.94 1543.28 L1416.94 1546.78 L1399.34 1546.78 L1399.34 1543.28 Z" fill="#000000" fill-rule="nonzero" fill-opacity="1" /><polyline clip-path="url(#clip950)" style="stroke:#000000; stroke-linecap:round; stroke-linejoin:round; stroke-width:4; stroke-opacity:1; fill:none" points="249.542,1423.18 249.542,47.2441 "/>
<polyline clip-path="url(#clip950)" style="stroke:#000000; stroke-linecap:round; stroke-linejoin:round; stroke-width:4; stroke-opacity:1; fill:none" points="249.542,1384.24 268.44,1384.24 "/>
<polyline clip-path="url(#clip950)" style="stroke:#000000; stroke-linecap:round; stroke-linejoin:round; stroke-width:4; stroke-opacity:1; fill:none" points="249.542,1144.07 268.44,1144.07 "/>
<polyline clip-path="url(#clip950)" style="stroke:#000000; stroke-linecap:round; stroke-linejoin:round; stroke-width:4; stroke-opacity:1; fill:none" points="249.542,903.905 268.44,903.905 "/>
<polyline clip-path="url(#clip950)" style="stroke:#000000; stroke-linecap:round; stroke-linejoin:round; stroke-width:4; stroke-opacity:1; fill:none" points="249.542,663.738 268.44,663.738 "/>
<polyline clip-path="url(#clip950)" style="stroke:#000000; stroke-linecap:round; stroke-linejoin:round; stroke-width:4; stroke-opacity:1; fill:none" points="249.542,423.571 268.44,423.571 "/>
<polyline clip-path="url(#clip950)" style="stroke:#000000; stroke-linecap:round; stroke-linejoin:round; stroke-width:4; stroke-opacity:1; fill:none" points="249.542,183.405 268.44,183.405 "/>
<path clip-path="url(#clip950)" d="M126.205 1370.04 Q122.593 1370.04 120.765 1373.6 Q118.959 1377.14 118.959 1384.27 Q118.959 1391.38 120.765 1394.94 Q122.593 1398.49 126.205 1398.49 Q129.839 1398.49 131.644 1394.94 Q133.473 1391.38 133.473 1384.27 Q133.473 1377.14 131.644 1373.6 Q129.839 1370.04 126.205 1370.04 M126.205 1366.33 Q132.015 1366.33 135.07 1370.94 Q138.149 1375.52 138.149 1384.27 Q138.149 1393 135.07 1397.61 Q132.015 1402.19 126.205 1402.19 Q120.394 1402.19 117.316 1397.61 Q114.26 1393 114.26 1384.27 Q114.26 1375.52 117.316 1370.94 Q120.394 1366.33 126.205 1366.33 Z" fill="#000000" fill-rule="nonzero" fill-opacity="1" /><path clip-path="url(#clip950)" d="M146.366 1395.64 L151.251 1395.64 L151.251 1401.52 L146.366 1401.52 L146.366 1395.64 Z" fill="#000000" fill-rule="nonzero" fill-opacity="1" /><path clip-path="url(#clip950)" d="M171.436 1370.04 Q167.825 1370.04 165.996 1373.6 Q164.19 1377.14 164.19 1384.27 Q164.19 1391.38 165.996 1394.94 Q167.825 1398.49 171.436 1398.49 Q175.07 1398.49 176.876 1394.94 Q178.704 1391.38 178.704 1384.27 Q178.704 1377.14 176.876 1373.6 Q175.07 1370.04 171.436 1370.04 M171.436 1366.33 Q177.246 1366.33 180.301 1370.94 Q183.38 1375.52 183.38 1384.27 Q183.38 1393 180.301 1397.61 Q177.246 1402.19 171.436 1402.19 Q165.626 1402.19 162.547 1397.61 Q159.491 1393 159.491 1384.27 Q159.491 1375.52 162.547 1370.94 Q165.626 1366.33 171.436 1366.33 Z" fill="#000000" fill-rule="nonzero" fill-opacity="1" /><path clip-path="url(#clip950)" d="M201.598 1370.04 Q197.987 1370.04 196.158 1373.6 Q194.352 1377.14 194.352 1384.27 Q194.352 1391.38 196.158 1394.94 Q197.987 1398.49 201.598 1398.49 Q205.232 1398.49 207.037 1394.94 Q208.866 1391.38 208.866 1384.27 Q208.866 1377.14 207.037 1373.6 Q205.232 1370.04 201.598 1370.04 M201.598 1366.33 Q207.408 1366.33 210.463 1370.94 Q213.542 1375.52 213.542 1384.27 Q213.542 1393 210.463 1397.61 Q207.408 1402.19 201.598 1402.19 Q195.787 1402.19 192.709 1397.61 Q189.653 1393 189.653 1384.27 Q189.653 1375.52 192.709 1370.94 Q195.787 1366.33 201.598 1366.33 Z" fill="#000000" fill-rule="nonzero" fill-opacity="1" /><path clip-path="url(#clip950)" d="M127.2 1129.87 Q123.589 1129.87 121.76 1133.44 Q119.955 1136.98 119.955 1144.11 Q119.955 1151.21 121.76 1154.78 Q123.589 1158.32 127.2 1158.32 Q130.834 1158.32 132.64 1154.78 Q134.468 1151.21 134.468 1144.11 Q134.468 1136.98 132.64 1133.44 Q130.834 1129.87 127.2 1129.87 M127.2 1126.17 Q133.01 1126.17 136.066 1130.77 Q139.144 1135.36 139.144 1144.11 Q139.144 1152.83 136.066 1157.44 Q133.01 1162.02 127.2 1162.02 Q121.39 1162.02 118.311 1157.44 Q115.256 1152.83 115.256 1144.11 Q115.256 1135.36 118.311 1130.77 Q121.39 1126.17 127.2 1126.17 Z" fill="#000000" fill-rule="nonzero" fill-opacity="1" /><path clip-path="url(#clip950)" d="M147.362 1155.47 L152.246 1155.47 L152.246 1161.35 L147.362 1161.35 L147.362 1155.47 Z" fill="#000000" fill-rule="nonzero" fill-opacity="1" /><path clip-path="url(#clip950)" d="M172.431 1129.87 Q168.82 1129.87 166.991 1133.44 Q165.186 1136.98 165.186 1144.11 Q165.186 1151.21 166.991 1154.78 Q168.82 1158.32 172.431 1158.32 Q176.065 1158.32 177.871 1154.78 Q179.7 1151.21 179.7 1144.11 Q179.7 1136.98 177.871 1133.44 Q176.065 1129.87 172.431 1129.87 M172.431 1126.17 Q178.241 1126.17 181.297 1130.77 Q184.376 1135.36 184.376 1144.11 Q184.376 1152.83 181.297 1157.44 Q178.241 1162.02 172.431 1162.02 Q166.621 1162.02 163.542 1157.44 Q160.487 1152.83 160.487 1144.11 Q160.487 1135.36 163.542 1130.77 Q166.621 1126.17 172.431 1126.17 Z" fill="#000000" fill-rule="nonzero" fill-opacity="1" /><path clip-path="url(#clip950)" d="M192.639 1126.79 L210.996 1126.79 L210.996 1130.73 L196.922 1130.73 L196.922 1139.2 Q197.94 1138.85 198.959 1138.69 Q199.977 1138.5 200.996 1138.5 Q206.783 1138.5 210.162 1141.68 Q213.542 1144.85 213.542 1150.26 Q213.542 1155.84 210.07 1158.94 Q206.598 1162.02 200.278 1162.02 Q198.102 1162.02 195.834 1161.65 Q193.588 1161.28 191.181 1160.54 L191.181 1155.84 Q193.264 1156.98 195.487 1157.53 Q197.709 1158.09 200.186 1158.09 Q204.19 1158.09 206.528 1155.98 Q208.866 1153.87 208.866 1150.26 Q208.866 1146.65 206.528 1144.55 Q204.19 1142.44 200.186 1142.44 Q198.311 1142.44 196.436 1142.86 Q194.584 1143.27 192.639 1144.15 L192.639 1126.79 Z" fill="#000000" fill-rule="nonzero" fill-opacity="1" /><path clip-path="url(#clip950)" d="M126.205 889.703 Q122.593 889.703 120.765 893.268 Q118.959 896.81 118.959 903.94 Q118.959 911.046 120.765 914.611 Q122.593 918.152 126.205 918.152 Q129.839 918.152 131.644 914.611 Q133.473 911.046 133.473 903.94 Q133.473 896.81 131.644 893.268 Q129.839 889.703 126.205 889.703 M126.205 886 Q132.015 886 135.07 890.606 Q138.149 895.19 138.149 903.94 Q138.149 912.666 135.07 917.273 Q132.015 921.856 126.205 921.856 Q120.394 921.856 117.316 917.273 Q114.26 912.666 114.26 903.94 Q114.26 895.19 117.316 890.606 Q120.394 886 126.205 886 Z" fill="#000000" fill-rule="nonzero" fill-opacity="1" /><path clip-path="url(#clip950)" d="M146.366 915.305 L151.251 915.305 L151.251 921.185 L146.366 921.185 L146.366 915.305 Z" fill="#000000" fill-rule="nonzero" fill-opacity="1" /><path clip-path="url(#clip950)" d="M162.246 917.25 L169.885 917.25 L169.885 890.884 L161.575 892.551 L161.575 888.291 L169.839 886.625 L174.514 886.625 L174.514 917.25 L182.153 917.25 L182.153 921.185 L162.246 921.185 L162.246 917.25 Z" fill="#000000" fill-rule="nonzero" fill-opacity="1" /><path clip-path="url(#clip950)" d="M201.598 889.703 Q197.987 889.703 196.158 893.268 Q194.352 896.81 194.352 903.94 Q194.352 911.046 196.158 914.611 Q197.987 918.152 201.598 918.152 Q205.232 918.152 207.037 914.611 Q208.866 911.046 208.866 903.94 Q208.866 896.81 207.037 893.268 Q205.232 889.703 201.598 889.703 M201.598 886 Q207.408 886 210.463 890.606 Q213.542 895.19 213.542 903.94 Q213.542 912.666 210.463 917.273 Q207.408 921.856 201.598 921.856 Q195.787 921.856 192.709 917.273 Q189.653 912.666 189.653 903.94 Q189.653 895.19 192.709 890.606 Q195.787 886 201.598 886 Z" fill="#000000" fill-rule="nonzero" fill-opacity="1" /><path clip-path="url(#clip950)" d="M127.2 649.537 Q123.589 649.537 121.76 653.102 Q119.955 656.643 119.955 663.773 Q119.955 670.879 121.76 674.444 Q123.589 677.986 127.2 677.986 Q130.834 677.986 132.64 674.444 Q134.468 670.879 134.468 663.773 Q134.468 656.643 132.64 653.102 Q130.834 649.537 127.2 649.537 M127.2 645.833 Q133.01 645.833 136.066 650.44 Q139.144 655.023 139.144 663.773 Q139.144 672.5 136.066 677.106 Q133.01 681.689 127.2 681.689 Q121.39 681.689 118.311 677.106 Q115.256 672.5 115.256 663.773 Q115.256 655.023 118.311 650.44 Q121.39 645.833 127.2 645.833 Z" fill="#000000" fill-rule="nonzero" fill-opacity="1" /><path clip-path="url(#clip950)" d="M147.362 675.138 L152.246 675.138 L152.246 681.018 L147.362 681.018 L147.362 675.138 Z" fill="#000000" fill-rule="nonzero" fill-opacity="1" /><path clip-path="url(#clip950)" d="M163.241 677.083 L170.88 677.083 L170.88 650.717 L162.57 652.384 L162.57 648.125 L170.834 646.458 L175.51 646.458 L175.51 677.083 L183.149 677.083 L183.149 681.018 L163.241 681.018 L163.241 677.083 Z" fill="#000000" fill-rule="nonzero" fill-opacity="1" /><path clip-path="url(#clip950)" d="M192.639 646.458 L210.996 646.458 L210.996 650.393 L196.922 650.393 L196.922 658.865 Q197.94 658.518 198.959 658.356 Q199.977 658.171 200.996 658.171 Q206.783 658.171 210.162 661.342 Q213.542 664.514 213.542 669.93 Q213.542 675.509 210.07 678.611 Q206.598 681.689 200.278 681.689 Q198.102 681.689 195.834 681.319 Q193.588 680.949 191.181 680.208 L191.181 675.509 Q193.264 676.643 195.487 677.199 Q197.709 677.754 200.186 677.754 Q204.19 677.754 206.528 675.648 Q208.866 673.541 208.866 669.93 Q208.866 666.319 206.528 664.213 Q204.19 662.106 200.186 662.106 Q198.311 662.106 196.436 662.523 Q194.584 662.939 192.639 663.819 L192.639 646.458 Z" fill="#000000" fill-rule="nonzero" fill-opacity="1" /><path clip-path="url(#clip950)" d="M126.205 409.37 Q122.593 409.37 120.765 412.935 Q118.959 416.476 118.959 423.606 Q118.959 430.712 120.765 434.277 Q122.593 437.819 126.205 437.819 Q129.839 437.819 131.644 434.277 Q133.473 430.712 133.473 423.606 Q133.473 416.476 131.644 412.935 Q129.839 409.37 126.205 409.37 M126.205 405.666 Q132.015 405.666 135.07 410.273 Q138.149 414.856 138.149 423.606 Q138.149 432.333 135.07 436.939 Q132.015 441.523 126.205 441.523 Q120.394 441.523 117.316 436.939 Q114.26 432.333 114.26 423.606 Q114.26 414.856 117.316 410.273 Q120.394 405.666 126.205 405.666 Z" fill="#000000" fill-rule="nonzero" fill-opacity="1" /><path clip-path="url(#clip950)" d="M146.366 434.972 L151.251 434.972 L151.251 440.851 L146.366 440.851 L146.366 434.972 Z" fill="#000000" fill-rule="nonzero" fill-opacity="1" /><path clip-path="url(#clip950)" d="M165.464 436.916 L181.783 436.916 L181.783 440.851 L159.839 440.851 L159.839 436.916 Q162.501 434.162 167.084 429.532 Q171.69 424.879 172.871 423.537 Q175.116 421.013 175.996 419.277 Q176.899 417.518 176.899 415.828 Q176.899 413.074 174.954 411.338 Q173.033 409.601 169.931 409.601 Q167.732 409.601 165.278 410.365 Q162.848 411.129 160.07 412.68 L160.07 407.958 Q162.894 406.824 165.348 406.245 Q167.802 405.666 169.839 405.666 Q175.209 405.666 178.403 408.352 Q181.598 411.037 181.598 415.527 Q181.598 417.657 180.788 419.578 Q180.001 421.476 177.894 424.069 Q177.315 424.74 174.214 427.958 Q171.112 431.152 165.464 436.916 Z" fill="#000000" fill-rule="nonzero" fill-opacity="1" /><path clip-path="url(#clip950)" d="M201.598 409.37 Q197.987 409.37 196.158 412.935 Q194.352 416.476 194.352 423.606 Q194.352 430.712 196.158 434.277 Q197.987 437.819 201.598 437.819 Q205.232 437.819 207.037 434.277 Q208.866 430.712 208.866 423.606 Q208.866 416.476 207.037 412.935 Q205.232 409.37 201.598 409.37 M201.598 405.666 Q207.408 405.666 210.463 410.273 Q213.542 414.856 213.542 423.606 Q213.542 432.333 210.463 436.939 Q207.408 441.523 201.598 441.523 Q195.787 441.523 192.709 436.939 Q189.653 432.333 189.653 423.606 Q189.653 414.856 192.709 410.273 Q195.787 405.666 201.598 405.666 Z" fill="#000000" fill-rule="nonzero" fill-opacity="1" /><path clip-path="url(#clip950)" d="M127.2 169.203 Q123.589 169.203 121.76 172.768 Q119.955 176.31 119.955 183.439 Q119.955 190.546 121.76 194.111 Q123.589 197.652 127.2 197.652 Q130.834 197.652 132.64 194.111 Q134.468 190.546 134.468 183.439 Q134.468 176.31 132.64 172.768 Q130.834 169.203 127.2 169.203 M127.2 165.5 Q133.01 165.5 136.066 170.106 Q139.144 174.689 139.144 183.439 Q139.144 192.166 136.066 196.773 Q133.01 201.356 127.2 201.356 Q121.39 201.356 118.311 196.773 Q115.256 192.166 115.256 183.439 Q115.256 174.689 118.311 170.106 Q121.39 165.5 127.2 165.5 Z" fill="#000000" fill-rule="nonzero" fill-opacity="1" /><path clip-path="url(#clip950)" d="M147.362 194.805 L152.246 194.805 L152.246 200.685 L147.362 200.685 L147.362 194.805 Z" fill="#000000" fill-rule="nonzero" fill-opacity="1" /><path clip-path="url(#clip950)" d="M166.459 196.749 L182.778 196.749 L182.778 200.685 L160.834 200.685 L160.834 196.749 Q163.496 193.995 168.079 189.365 Q172.686 184.712 173.866 183.37 Q176.112 180.847 176.991 179.111 Q177.894 177.351 177.894 175.662 Q177.894 172.907 175.95 171.171 Q174.028 169.435 170.927 169.435 Q168.727 169.435 166.274 170.199 Q163.843 170.963 161.065 172.513 L161.065 167.791 Q163.89 166.657 166.343 166.078 Q168.797 165.5 170.834 165.5 Q176.204 165.5 179.399 168.185 Q182.593 170.87 182.593 175.361 Q182.593 177.49 181.783 179.412 Q180.996 181.31 178.889 183.902 Q178.311 184.574 175.209 187.791 Q172.107 190.986 166.459 196.749 Z" fill="#000000" fill-rule="nonzero" fill-opacity="1" /><path clip-path="url(#clip950)" d="M192.639 166.125 L210.996 166.125 L210.996 170.06 L196.922 170.06 L196.922 178.532 Q197.94 178.185 198.959 178.023 Q199.977 177.837 200.996 177.837 Q206.783 177.837 210.162 181.009 Q213.542 184.18 213.542 189.597 Q213.542 195.175 210.07 198.277 Q206.598 201.356 200.278 201.356 Q198.102 201.356 195.834 200.986 Q193.588 200.615 191.181 199.874 L191.181 195.175 Q193.264 196.31 195.487 196.865 Q197.709 197.421 200.186 197.421 Q204.19 197.421 206.528 195.314 Q208.866 193.208 208.866 189.597 Q208.866 185.986 206.528 183.879 Q204.19 181.773 200.186 181.773 Q198.311 181.773 196.436 182.189 Q194.584 182.606 192.639 183.486 L192.639 166.125 Z" fill="#000000" fill-rule="nonzero" fill-opacity="1" /><path clip-path="url(#clip950)" d="M33.8307 857.736 Q33.2578 858.723 33.0032 859.9 Q32.7167 861.046 32.7167 862.447 Q32.7167 867.412 35.9632 870.085 Q39.1779 872.727 45.2253 872.727 L64.0042 872.727 L64.0042 878.615 L28.3562 878.615 L28.3562 872.727 L33.8944 872.727 Q30.6479 870.881 29.0883 867.921 Q27.4968 864.961 27.4968 860.728 Q27.4968 860.123 27.5923 859.391 Q27.656 858.659 27.8151 857.768 L33.8307 857.736 Z" fill="#000000" fill-rule="nonzero" fill-opacity="1" /><path clip-path="url(#clip950)" d="M44.1113 838.066 L47.1987 838.066 Q46.4985 839.625 46.1484 841.312 Q45.7982 842.967 45.7982 844.782 Q45.7982 847.551 46.5303 848.919 Q47.2942 850.288 48.7901 850.288 Q49.9359 850.288 50.5725 849.301 Q51.2409 848.315 51.8138 845.355 L52.0685 844.081 Q52.8323 840.103 54.1691 838.511 Q55.5378 836.856 57.9886 836.856 Q60.7576 836.856 62.3809 839.339 Q64.0042 841.79 64.0042 846.118 Q64.0042 847.933 63.6859 849.906 Q63.3676 851.848 62.7628 854.012 L59.3572 854.012 Q60.312 851.975 60.7895 849.97 Q61.2669 847.996 61.2669 846.055 Q61.2669 843.445 60.4712 842.044 Q59.6755 840.644 58.2432 840.644 Q56.9064 840.644 56.1743 841.662 Q55.5378 842.554 54.8057 846.087 L54.5511 847.36 Q53.8827 850.797 52.5777 852.325 Q51.2409 853.853 48.9174 853.853 Q46.1165 853.853 44.5888 851.593 Q43.0292 849.365 43.0292 845.227 Q43.0292 843.19 43.3156 841.376 Q43.5702 839.562 44.1113 838.066 Z" fill="#000000" fill-rule="nonzero" fill-opacity="1" /><path clip-path="url(#clip950)" d="M16.4842 796.148 L16.4842 790.737 L70.0516 807.288 L70.0516 812.699 L16.4842 796.148 Z" fill="#000000" fill-rule="nonzero" fill-opacity="1" /><path clip-path="url(#clip950)" d="M14.5426 749.805 Q21.8632 754.07 29.0246 756.139 Q36.186 758.208 43.5384 758.208 Q50.8908 758.208 58.1159 756.139 Q65.3091 754.039 72.5979 749.805 L72.5979 754.898 Q65.1182 759.672 57.8931 762.059 Q50.668 764.415 43.5384 764.415 Q36.4406 764.415 29.2474 762.059 Q22.0542 759.704 14.5426 754.898 L14.5426 749.805 Z" fill="#000000" fill-rule="nonzero" fill-opacity="1" /><path clip-path="url(#clip950)" d="M29.7248 712.789 L35.1993 712.789 Q33.8307 715.271 33.1623 717.786 Q32.4621 720.268 32.4621 722.815 Q32.4621 728.512 36.0905 731.663 Q39.6872 734.814 46.212 734.814 Q52.7369 734.814 56.3653 731.663 Q59.9619 728.512 59.9619 722.815 Q59.9619 720.268 59.2935 717.786 Q58.5933 715.271 57.2247 712.789 L62.6355 712.789 Q63.7814 715.24 64.3543 717.881 Q64.9272 720.491 64.9272 723.451 Q64.9272 731.504 59.8664 736.246 Q54.8057 740.989 46.212 740.989 Q37.491 740.989 32.4939 736.215 Q27.4968 731.408 27.4968 723.069 Q27.4968 720.364 28.0697 717.786 Q28.6108 715.208 29.7248 712.789 Z" fill="#000000" fill-rule="nonzero" fill-opacity="1" /><path clip-path="url(#clip950)" d="M16.4842 692.196 L16.4842 686.785 L70.0516 703.336 L70.0516 708.747 L16.4842 692.196 Z" fill="#000000" fill-rule="nonzero" fill-opacity="1" /><path clip-path="url(#clip950)" d="M16.4842 680.387 L16.4842 673.958 L35.9632 673.958 L35.9632 650.596 L16.4842 650.596 L16.4842 644.166 L64.0042 644.166 L64.0042 650.596 L41.3741 650.596 L41.3741 673.958 L64.0042 673.958 L64.0042 680.387 L16.4842 680.387 Z" fill="#000000" fill-rule="nonzero" fill-opacity="1" /><path clip-path="url(#clip950)" d="M42.4562 619.627 Q39.719 621.218 39.719 624.433 Q39.719 627.647 42.4562 629.239 Q45.1935 630.862 50.668 630.862 Q56.1743 630.862 58.9116 629.239 Q61.6488 627.647 61.6488 624.433 Q61.6488 621.218 58.9116 619.627 Q56.1743 618.003 50.668 618.003 Q45.1935 618.003 42.4562 619.627 M36.8862 624.433 Q36.8862 619.308 40.4192 616.603 Q43.9522 613.898 50.668 613.898 Q57.4157 613.898 60.9486 616.603 Q64.4816 619.308 64.4816 624.433 Q64.4816 629.589 60.9486 632.294 Q57.4157 635 50.668 635 Q43.9522 635 40.4192 632.294 Q36.8862 629.589 36.8862 624.433 Z" fill="#000000" fill-rule="nonzero" fill-opacity="1" /><path clip-path="url(#clip950)" d="M14.5426 606.418 L14.5426 601.325 Q22.0542 596.551 29.2474 594.196 Q36.4406 591.809 43.5384 591.809 Q50.668 591.809 57.8931 594.196 Q65.1182 596.551 72.5979 601.325 L72.5979 606.418 Q65.3091 602.185 58.1159 600.116 Q50.8908 598.015 43.5384 598.015 Q36.186 598.015 29.0246 600.116 Q21.8632 602.185 14.5426 606.418 Z" fill="#000000" fill-rule="nonzero" fill-opacity="1" /><polyline clip-path="url(#clip952)" style="stroke:#009af9; stroke-linecap:round; stroke-linejoin:round; stroke-width:4; stroke-opacity:1; fill:none" points="309.067,1384.24 309.067,1384.24 309.067,1384.24 309.067,1384.24 309.067,1384.24 309.067,1384.24 309.067,1384.24 309.067,1384.24 309.067,1384.24 309.067,1384.24 309.067,1384.24 309.067,1384.24 309.067,1384.24 309.067,1384.24 309.067,1384.24 309.067,1384.24 309.067,1384.24 309.067,1384.24 309.067,1384.24 309.067,1384.24 309.067,1384.24 309.067,1384.24 309.067,1384.24 309.067,1384.24 309.067,1384.24 309.067,1384.24 309.067,1384.24 309.067,1384.24 309.067,1384.24 309.067,1384.24 309.067,1384.24 309.067,1384.24 309.067,1384.24 309.067,1384.24 309.067,1384.24 309.067,1384.24 309.067,1384.24 309.067,1384.24 309.067,1384.24 309.067,1384.24 309.067,1384.24 309.067,1384.24 309.067,1384.24 309.067,1384.24 309.067,1384.24 309.067,1384.24 309.067,1384.24 309.067,1384.24 309.067,1384.24 309.067,1384.24 309.067,1384.24 309.067,1384.24 309.067,1384.24 309.067,1384.24 309.067,1384.24 309.067,1384.24 309.067,1384.24 309.067,1384.24 309.067,1384.24 309.067,1384.24 309.067,1384.24 309.067,1384.24 309.067,1384.24 309.067,1384.24 309.067,1384.24 309.067,1384.24 309.067,1384.24 309.067,1384.24 309.067,1384.24 309.067,1384.24 309.067,1384.24 309.067,1384.24 309.067,1384.24 309.067,1384.24 309.067,1384.24 309.067,1384.24 309.067,1384.24 309.067,1384.24 309.067,1384.24 309.067,1384.24 309.067,1384.24 309.067,1384.24 309.067,1384.24 309.067,1384.24 309.067,1384.24 309.067,1384.24 309.067,1384.24 309.067,1384.24 309.067,1384.24 309.067,1384.24 309.067,1384.24 309.067,1384.24 309.067,1384.24 309.067,1384.24 309.067,1384.24 309.067,1384.24 309.067,1384.24 309.067,1384.24 309.067,1384.24 309.067,1384.24 309.067,1384.24 309.067,1384.24 309.067,1384.24 309.067,1384.24 309.067,1384.24 309.067,1384.24 309.067,1384.24 309.067,1384.24 309.067,1384.24 309.067,1384.24 309.067,1384.24 309.068,1384.24 309.068,1384.24 309.068,1384.24 309.068,1384.24 309.068,1384.24 309.068,1384.24 309.068,1384.24 309.068,1384.24 309.068,1384.24 309.068,1384.24 309.068,1384.24 309.068,1384.24 309.068,1384.24 309.068,1384.24 309.068,1384.24 309.068,1384.24 309.068,1384.24 309.068,1384.24 309.068,1384.23 309.068,1384.23 309.068,1384.23 309.068,1384.23 309.068,1384.23 309.068,1384.23 309.068,1384.23 309.068,1384.23 309.068,1384.23 309.068,1384.23 309.068,1384.23 309.068,1384.23 309.068,1384.23 309.068,1384.23 309.068,1384.23 309.068,1384.23 309.068,1384.23 309.068,1384.23 309.068,1384.23 309.068,1384.23 309.068,1384.23 309.068,1384.23 309.068,1384.23 309.068,1384.23 309.068,1384.23 309.068,1384.23 309.068,1384.23 309.068,1384.23 309.068,1384.23 309.068,1384.23 309.068,1384.23 309.068,1384.23 309.068,1384.23 309.068,1384.23 309.068,1384.23 309.068,1384.23 309.068,1384.23 309.068,1384.23 309.068,1384.23 309.068,1384.23 309.068,1384.23 309.068,1384.23 309.068,1384.23 309.068,1384.23 309.068,1384.23 309.068,1384.23 309.068,1384.23 309.068,1384.23 309.068,1384.23 309.069,1384.23 309.069,1384.23 309.069,1384.23 309.069,1384.23 309.069,1384.23 309.069,1384.23 309.069,1384.23 309.069,1384.23 309.069,1384.23 309.069,1384.23 309.069,1384.23 309.069,1384.23 309.069,1384.23 309.069,1384.23 309.069,1384.23 309.069,1384.23 309.069,1384.23 309.069,1384.23 309.069,1384.23 309.069,1384.23 309.069,1384.23 309.069,1384.23 309.069,1384.23 309.069,1384.23 309.069,1384.23 309.069,1384.23 309.069,1384.23 309.069,1384.23 309.069,1384.23 309.069,1384.23 309.069,1384.23 309.069,1384.23 309.069,1384.23 309.069,1384.23 309.07,1384.23 309.07,1384.23 309.07,1384.23 309.07,1384.23 309.07,1384.23 309.07,1384.23 309.07,1384.23 309.07,1384.23 309.07,1384.23 309.07,1384.23 309.07,1384.23 309.07,1384.22 309.07,1384.22 309.07,1384.22 309.07,1384.22 309.07,1384.22 309.07,1384.22 309.07,1384.22 309.07,1384.22 309.07,1384.22 309.07,1384.22 309.07,1384.22 309.071,1384.22 309.071,1384.22 309.071,1384.22 309.071,1384.22 309.071,1384.22 309.071,1384.22 309.071,1384.22 309.071,1384.22 309.071,1384.22 309.071,1384.22 309.071,1384.22 309.071,1384.22 309.071,1384.22 309.071,1384.22 309.071,1384.22 309.071,1384.22 309.071,1384.22 309.072,1384.22 309.072,1384.22 309.072,1384.22 309.072,1384.22 309.072,1384.22 309.072,1384.22 309.072,1384.22 309.072,1384.22 309.072,1384.22 309.072,1384.21 309.072,1384.21 309.072,1384.21 309.073,1384.21 309.073,1384.21 309.073,1384.21 309.073,1384.21 309.073,1384.21 309.073,1384.21 309.073,1384.21 309.073,1384.21 309.073,1384.21 309.073,1384.21 309.073,1384.21 309.074,1384.21 309.074,1384.21 309.074,1384.21 309.074,1384.21 309.074,1384.21 309.074,1384.21 309.074,1384.21 309.074,1384.21 309.074,1384.2 309.075,1384.2 309.075,1384.2 309.075,1384.2 309.075,1384.2 309.075,1384.2 309.075,1384.2 309.075,1384.2 309.076,1384.2 309.076,1384.2 309.076,1384.2 309.076,1384.2 309.076,1384.2 309.076,1384.2 309.076,1384.2 309.077,1384.2 309.077,1384.19 309.077,1384.19 309.077,1384.19 309.077,1384.19 309.078,1384.19 309.078,1384.19 309.078,1384.19 309.078,1384.19 309.078,1384.19 309.078,1384.19 309.079,1384.19 309.079,1384.19 309.079,1384.18 309.079,1384.18 309.08,1384.18 309.08,1384.18 309.08,1384.18 309.08,1384.18 309.08,1384.18 309.081,1384.18 309.081,1384.18 309.081,1384.17 309.082,1384.17 309.082,1384.17 309.082,1384.17 309.082,1384.17 309.083,1384.17 309.083,1384.17 309.083,1384.17 309.084,1384.16 309.084,1384.16 309.084,1384.16 309.085,1384.16 309.085,1384.16 309.085,1384.16 309.086,1384.16 309.086,1384.15 309.086,1384.15 309.087,1384.15 309.087,1384.15 309.087,1384.15 309.088,1384.15 309.088,1384.14 309.089,1384.14 309.089,1384.14 309.09,1384.14 309.09,1384.14 309.091,1384.13 309.091,1384.13 309.092,1384.13 309.092,1384.13 309.093,1384.12 309.093,1384.12 309.094,1384.12 309.094,1384.12 309.095,1384.11 309.095,1384.11 309.096,1384.11 309.097,1384.11 309.097,1384.1 309.098,1384.1 309.099,1384.1 309.099,1384.1 309.1,1384.09 309.101,1384.09 309.101,1384.09 309.102,1384.08 309.103,1384.08 309.104,1384.07 309.105,1384.07 309.105,1384.07 309.106,1384.06 309.107,1384.06 309.108,1384.06 309.109,1384.05 309.11,1384.05 309.111,1384.04 309.112,1384.04 309.113,1384.03 309.114,1384.03 309.115,1384.02 309.117,1384.02 309.118,1384.01 309.119,1384.01 309.12,1384 309.122,1384 309.123,1383.99 309.124,1383.98 309.126,1383.98 309.127,1383.97 309.129,1383.96 309.13,1383.96 309.132,1383.95 309.134,1383.94 309.135,1383.94 309.137,1383.93 309.139,1383.92 309.141,1383.91 309.143,1383.9 309.145,1383.89 309.147,1383.89 309.149,1383.88 309.151,1383.87 309.153,1383.86 309.156,1383.85 309.158,1383.83 309.161,1383.82 309.163,1383.81 309.166,1383.8 309.169,1383.79 309.171,1383.78 309.174,1383.76 309.177,1383.75 309.181,1383.73 309.184,1383.72 309.187,1383.71 309.191,1383.69 309.194,1383.67 309.198,1383.66 309.202,1383.64 309.206,1383.62 309.21,1383.6 309.215,1383.58 309.219,1383.56 309.224,1383.54 309.229,1383.52 309.234,1383.5 309.239,1383.48 309.244,1383.45 309.25,1383.43 309.256,1383.4 309.262,1383.38 309.268,1383.35 309.275,1383.32 309.282,1383.29 309.289,1383.26 309.296,1383.22 309.304,1383.19 309.312,1383.15 309.32,1383.12 309.329,1383.08 309.338,1383.04 309.347,1383 309.357,1382.95 309.367,1382.91 309.378,1382.86 309.389,1382.81 309.401,1382.76 309.413,1382.71 309.426,1382.65 309.439,1382.59 309.453,1382.53 309.467,1382.47 309.483,1382.4 309.498,1382.33 309.515,1382.26 309.532,1382.18 309.551,1382.1 309.57,1382.01 309.59,1381.93 309.611,1381.83 309.633,1381.74 309.656,1381.63 309.68,1381.53 309.705,1381.42 309.732,1381.3 309.76,1381.17 309.789,1381.04 309.82,1380.91 309.853,1380.76 309.887,1380.61 309.924,1380.45 309.962,1380.29 310.002,1380.11 310.044,1379.92 310.089,1379.73 310.136,1379.52 310.186,1379.3 310.238,1379.07 310.294,1378.82 310.352,1378.57 310.414,1378.29 310.48,1378.01 310.55,1377.7 310.623,1377.38 310.701,1377.03 310.784,1376.67 310.872,1376.28 310.966,1375.88 311.065,1375.44 311.17,1374.98 311.282,1374.49 311.401,1373.97 311.528,1373.42 311.663,1372.83 311.807,1372.2 311.961,1371.53 312.125,1370.82 312.3,1370.06 312.486,1369.25 312.686,1368.38 312.9,1367.46 313.129,1366.47 313.373,1365.41 313.636,1364.28 313.917,1363.07 314.219,1361.78 314.543,1360.39 314.891,1358.9 315.266,1357.3 315.668,1355.59 316.101,1353.75 316.568,1351.78 317.067,1349.67 317.574,1347.54 318.082,1345.42 318.589,1343.3 319.116,1341.11 319.784,1338.33 319.931,1337.73 320.392,1335.83 320.768,1334.28 321.307,1332.07 321.867,1329.78 322.427,1327.5 322.921,1325.5 323.214,1324.31 323.475,1323.26 323.698,1322.36 323.886,1321.6 324.047,1320.95 324.188,1320.39 324.312,1319.89 324.437,1319.39 324.544,1318.96 324.639,1318.58 324.735,1318.2 324.819,1317.86 324.904,1317.52 324.978,1317.22 325.053,1316.92 325.12,1316.66 325.187,1316.39 325.254,1316.12 325.313,1315.89 325.372,1315.65 325.432,1315.42 325.484,1315.21 325.536,1315 325.58,1314.83 325.613,1314.69 325.635,1314.6 325.655,1314.53 325.674,1314.45 325.693,1314.38 325.714,1314.29 325.734,1314.21 325.755,1314.13 325.781,1314.03 325.809,1313.92 325.837,1313.8 325.865,1313.69 325.896,1313.57 325.932,1313.43 325.972,1313.27 326.016,1313.09 326.062,1312.91 326.112,1312.71 326.165,1312.5 326.22,1312.28 326.28,1312.05 326.342,1311.8 326.409,1311.54 326.48,1311.25 326.557,1310.95 326.638,1310.63 326.726,1310.28 326.822,1309.91 326.926,1309.49 327.04,1309.04 327.166,1308.55 327.307,1307.99 327.465,1307.37 327.642,1306.68 327.837,1305.92 328.045,1305.1 328.261,1304.26 328.477,1303.41 328.694,1302.57 328.91,1301.73 329.127,1300.88 329.344,1300.04 329.56,1299.2 329.777,1298.37 329.994,1297.53 330.182,1296.8 330.348,1296.16 330.515,1295.52 330.661,1294.96 330.807,1294.4 330.938,1293.9 331.068,1293.4 331.198,1292.9 331.315,1292.45 331.432,1292 331.549,1291.55 331.666,1291.11 331.783,1290.66 331.9,1290.22 332.017,1289.77 332.134,1289.32 332.251,1288.88 332.368,1288.44 332.485,1287.99 332.602,1287.55 332.719,1287.1 332.836,1286.66 332.953,1286.22 333.07,1285.78 333.187,1285.33 333.291,1284.94 333.395,1284.55 333.499,1284.16 333.589,1283.82 333.679,1283.48 333.77,1283.14 333.86,1282.8 333.95,1282.46 334.041,1282.12 334.131,1281.78 334.222,1281.44 334.317,1281.09 334.416,1280.71 334.519,1280.33 334.622,1279.94 334.725,1279.56 334.828,1279.17 334.931,1278.79 335.033,1278.41 335.136,1278.02 335.239,1277.64 335.342,1277.26 335.445,1276.87 335.536,1276.53 335.628,1276.19 335.72,1275.85 335.802,1275.55 335.883,1275.25 335.954,1274.98 336.009,1274.78 336.045,1274.65 336.076,1274.53 336.102,1274.43 336.129,1274.34 336.155,1274.24 336.182,1274.14 336.212,1274.03 336.25,1273.89 336.281,1273.77 336.324,1273.61 336.367,1273.45 336.412,1273.29 336.459,1273.11 336.508,1272.93 336.558,1272.75 336.609,1272.56 336.661,1272.37 336.714,1272.17 336.768,1271.98 336.822,1271.78 336.877,1271.57 336.933,1271.37 336.99,1271.16 337.049,1270.94 337.108,1270.72 337.168,1270.5 337.23,1270.27 337.294,1270.04 337.359,1269.8 337.426,1269.56 337.495,1269.3 337.566,1269.04 337.64,1268.77 337.717,1268.49 337.796,1268.2 337.879,1267.9 337.965,1267.58 338.055,1267.25 338.15,1266.91 338.249,1266.55 338.354,1266.16 338.465,1265.76 338.583,1265.33 338.71,1264.87 338.846,1264.37 338.994,1263.83 339.158,1263.24 339.344,1262.56 339.571,1261.75 339.827,1260.82 340.084,1259.89 340.341,1258.97 340.604,1258.03 340.871,1257.07 341.142,1256.1 341.416,1255.12 341.689,1254.14 341.963,1253.17 342.236,1252.2 342.51,1251.23 342.783,1250.26 343.057,1249.29 343.33,1248.33 343.576,1247.46 343.823,1246.6 344.069,1245.74 344.286,1244.97 344.504,1244.21 344.721,1243.45 344.915,1242.78 345.108,1242.1 345.302,1241.43 345.496,1240.76 345.667,1240.16 345.838,1239.57 346.009,1238.98 346.18,1238.39 346.333,1237.86 346.486,1237.33 346.639,1236.81 346.792,1236.28 346.945,1235.75 347.083,1235.28 347.22,1234.81 347.358,1234.33 347.495,1233.86 347.633,1233.39 347.771,1232.92 347.908,1232.45 348.046,1231.98 348.169,1231.56 348.292,1231.14 348.414,1230.73 348.537,1230.31 348.66,1229.89 348.783,1229.47 348.906,1229.06 349.028,1228.64 349.151,1228.23 349.274,1227.81 349.397,1227.39 349.52,1226.98 349.642,1226.56 349.765,1226.15 349.888,1225.74 350.011,1225.32 350.134,1224.91 350.256,1224.5 350.379,1224.08 350.502,1223.67 350.625,1223.26 350.748,1222.85 350.87,1222.44 350.996,1222.02 351.122,1221.6 351.26,1221.14 351.398,1220.68 351.539,1220.2 351.681,1219.73 351.816,1219.28 351.952,1218.83 352.088,1218.38 352.224,1217.93 352.318,1217.62 352.412,1217.31 352.505,1217 352.599,1216.69 352.693,1216.38 352.787,1216.07 352.88,1215.76 352.974,1215.45 353.068,1215.14 353.162,1214.83 353.255,1214.52 353.349,1214.21 353.443,1213.9 353.537,1213.59 353.631,1213.29 353.724,1212.98 353.818,1212.67 353.912,1212.36 354.006,1212.06 354.099,1211.75 354.193,1211.44 354.287,1211.13 354.381,1210.83 354.475,1210.52 354.568,1210.21 354.662,1209.91 354.756,1209.6 354.85,1209.3 354.943,1208.99 355.037,1208.69 355.131,1208.38 355.225,1208.08 355.319,1207.77 355.412,1207.47 355.506,1207.16 355.6,1206.86 355.694,1206.56 355.787,1206.25 355.881,1205.95 355.975,1205.64 356.069,1205.34 356.162,1205.04 356.256,1204.74 356.35,1204.43 356.444,1204.13 356.538,1203.83 356.631,1203.53 356.725,1203.22 356.819,1202.92 356.913,1202.62 357.006,1202.32 357.1,1202.02 357.194,1201.72 357.289,1201.41 357.383,1201.11 357.479,1200.8 357.575,1200.5 357.672,1200.19 357.77,1199.87 357.869,1199.56 357.969,1199.24 358.07,1198.92 358.171,1198.59 358.274,1198.27 358.378,1197.93 358.483,1197.6 358.589,1197.26 358.696,1196.92 358.805,1196.58 358.914,1196.23 359.025,1195.88 359.136,1195.53 359.249,1195.17 359.363,1194.81 359.478,1194.45 359.594,1194.08 359.712,1193.71 359.83,1193.33 359.95,1192.96 360.071,1192.58 360.193,1192.19 360.317,1191.8 360.441,1191.41 360.567,1191.02 360.694,1190.62 360.822,1190.22 360.952,1189.81 361.082,1189.41 361.214,1188.99 361.347,1188.58 361.481,1188.16 361.617,1187.74 361.753,1187.31 361.891,1186.88 362.03,1186.45 362.171,1186.01 362.312,1185.58 362.455,1185.13 362.599,1184.69 362.745,1184.24 362.891,1183.78 363.039,1183.33 363.188,1182.87 363.339,1182.4 363.49,1181.94 363.643,1181.47 363.798,1180.99 363.953,1180.51 364.11,1180.03 364.268,1179.55 364.428,1179.06 364.589,1178.57 364.751,1178.07 364.915,1177.57 365.079,1177.07 365.246,1176.57 365.413,1176.06 365.582,1175.54 365.753,1175.03 365.925,1174.5 366.098,1173.98 366.273,1173.45 366.449,1172.92 366.626,1172.38 366.806,1171.84 366.986,1171.3 367.168,1170.75 367.352,1170.2 367.537,1169.65 367.723,1169.09 367.911,1168.53 368.101,1167.96 368.292,1167.39 368.485,1166.81 368.679,1166.24 368.875,1165.65 369.073,1165.07 369.272,1164.47 369.473,1163.88 369.676,1163.28 369.881,1162.68 370.087,1162.07 370.295,1161.45 370.504,1160.84 370.716,1160.22 370.929,1159.59 371.144,1158.96 371.361,1158.33 371.58,1157.69 371.801,1157.04 372.024,1156.39 372.248,1155.74 372.475,1155.08 372.704,1154.42 372.934,1153.75 373.167,1153.07 373.402,1152.4 373.639,1151.71 373.878,1151.02 374.119,1150.33 374.363,1149.63 374.609,1148.92 374.857,1148.21 375.107,1147.5 375.36,1146.78 375.616,1146.05 375.873,1145.32 376.133,1144.58 376.396,1143.83 376.661,1143.08 376.929,1142.32 377.2,1141.56 377.473,1140.79 377.75,1140.01 378.029,1139.23 378.31,1138.44 378.595,1137.64 378.883,1136.84 379.174,1136.03 379.468,1135.21 379.765,1134.39 380.066,1133.55 380.37,1132.71 380.677,1131.86 380.988,1131.01 381.302,1130.14 381.621,1129.27 381.943,1128.39 382.268,1127.5 382.598,1126.6 382.932,1125.69 383.27,1124.77 383.613,1123.84 383.96,1122.9 384.311,1121.95 384.668,1120.99 385.029,1120.02 385.395,1119.04 385.767,1118.04 386.144,1117.03 386.527,1116.01 386.915,1114.98 387.31,1113.93 387.711,1112.87 388.119,1111.8 388.533,1110.7 388.955,1109.6 389.385,1108.47 389.822,1107.33 390.268,1106.16 390.723,1104.98 391.188,1103.78 391.663,1102.55 392.149,1101.3 392.646,1100.02 393.156,1098.71 393.681,1097.37 394.22,1096 394.776,1094.58 395.352,1093.13 395.949,1091.62 396.572,1090.06 397.226,1088.42 397.919,1086.69 398.664,1084.84 399.494,1082.79 400.536,1080.22 401.579,1077.68 402.621,1075.14 403.663,1072.62 404.706,1070.12 405.64,1067.89 406.575,1065.67 407.51,1063.46 408.445,1061.26 409.38,1059.07 410.315,1056.89 411.249,1054.73 412.184,1052.58 413.119,1050.43 414.054,1048.3 414.989,1046.18 415.923,1044.07 416.858,1041.97 417.793,1039.88 418.728,1037.8 419.663,1035.73 420.597,1033.67 421.532,1031.62 422.467,1029.58 423.402,1027.55 424.337,1025.53 425.271,1023.52 426.206,1021.52 427.141,1019.53 428.076,1017.55 429.011,1015.58 429.945,1013.62 430.88,1011.67 431.815,1009.72 432.75,1007.79 433.685,1005.86 434.619,1003.95 435.554,1002.04 436.489,1000.14 437.424,998.249 438.359,996.367 439.293,994.494 440.228,992.63 441.163,990.773 442.098,988.926 443.033,987.086 443.967,985.255 444.902,983.431 445.837,981.616 446.772,979.809 447.71,978.004 448.653,976.198 449.601,974.388 450.557,972.572 451.522,970.749 452.495,968.916 453.479,967.073 454.474,965.218 455.48,963.35 456.498,961.468 457.529,959.571 458.574,957.658 459.632,955.729 460.705,953.783 461.794,951.818 462.898,949.834 464.019,947.831 465.158,945.806 466.314,943.76 467.489,941.692 468.684,939.6 469.899,937.482 471.135,935.339 472.394,933.169 473.676,930.971 474.984,928.742 476.317,926.482 477.677,924.188 479.066,921.859 480.486,919.492 481.939,917.086 483.427,914.637 484.951,912.142 486.516,909.597 488.124,906.999 489.779,904.342 491.486,901.621 493.25,898.828 495.078,895.954 496.978,892.988 498.963,889.915 501.046,886.713 503.252,883.351 505.619,879.775 508.223,875.878 511.297,871.327 514.867,866.106 517.712,861.994 520.721,857.691 523.73,853.434 526.739,849.222 529.748,845.055 532.758,840.932 535.767,836.852 538.776,832.813 541.785,828.816 544.794,824.858 547.804,820.941 550.813,817.062 553.822,813.221 556.831,809.418 559.84,805.651 562.85,801.92 565.859,798.225 568.868,794.564 571.877,790.937 574.886,787.344 577.896,783.783 580.905,780.255 583.914,776.758 586.923,773.292 589.932,769.857 592.942,766.453 595.951,763.077 598.96,759.731 601.969,756.413 604.978,753.124 607.988,749.862 610.997,746.627 614.006,743.419 617.024,740.228 620.055,737.05 623.104,733.879 626.173,730.713 629.265,727.549 632.384,724.384 635.531,721.216 638.708,718.045 641.917,714.867 645.159,711.683 648.436,708.492 651.748,705.292 655.098,702.083 658.485,698.865 661.912,695.636 665.379,692.397 668.888,689.147 672.438,685.885 676.032,682.611 679.67,679.325 683.354,676.027 687.083,672.716 690.86,669.391 694.685,666.053 698.559,662.702 702.483,659.337 706.459,655.957 710.487,652.563 714.568,649.154 718.704,645.731 722.896,642.292 727.144,638.837 731.45,635.367 735.815,631.882 740.241,628.38 744.728,624.861 749.278,621.326 753.892,617.774 758.571,614.206 763.318,610.62 768.132,607.016 773.016,603.395 777.97,599.755 782.997,596.098 788.098,592.422 793.275,588.728 798.528,585.014 803.86,581.282 809.272,577.53 814.767,573.759 820.345,569.968 826.008,566.157 831.759,562.325 837.598,558.474 843.529,554.601 849.553,550.708 855.671,546.793 861.887,542.857 868.202,538.899 874.618,534.92 881.138,530.918 887.763,526.894 894.496,522.848 901.339,518.779 908.293,514.688 915.356,510.577 922.519,506.453 929.75,502.334 936.982,498.259 944.214,494.227 951.446,490.237 957.748,486.794 963.191,483.845 967.955,481.283 972.206,479.011 976.456,476.753 980.121,474.817 983.786,472.89 987.072,471.171 990.358,469.459 993.645,467.755 996.931,466.059 1000.3,464.328 1003.53,462.676 1005.99,461.42 1008.46,460.168 1010.92,458.92 1013.39,457.676 1015.85,456.436 1018.32,455.201 1020.78,453.969 1023.34,452.697 1026.7,451.03 1029.12,449.829 1031.57,448.626 1034.01,447.426 1036.45,446.23 1038.9,445.037 1041.34,443.848 1043.78,442.663 1046.23,441.482 1048.67,440.304 1051.13,439.122 1053.64,437.92 1056.21,436.691 1058.87,435.423 1061.65,434.108 1064.56,432.733 1067.62,431.289 1070.88,429.762 1074.36,428.136 1078.11,426.392 1082.19,424.504 1086.69,422.431 1091.78,420.102 1097.86,417.338 1107.31,413.077 1113.26,410.425 1120.9,407.039 1128.55,403.683 1136.2,400.35 1143.94,397.015 1151.76,393.668 1159.72,390.298 1167.82,386.897 1176.08,383.456 1184.53,379.971 1193.19,376.434 1202.06,372.842 1211.18,369.189 1220.54,365.471 1230.18,361.683 1240.09,357.824 1250.31,353.891 1260.82,349.884 1271.63,345.808 1282.72,341.673 1294.07,337.487 1305.69,333.249 1317.66,328.93 1330.17,324.472 1343.5,319.779 1358.02,314.733 1374.04,309.241 1391.47,303.36 1409.85,297.255 1429.07,290.974 1449.28,284.484 1470.77,277.708 1494.02,270.511 1520.04,262.62 1552.51,253.006 1584.98,243.638 1617.45,234.507 1649.92,225.601 1682.39,216.913 1714.86,208.432 1747.33,200.153 1779.8,192.067 1812.27,184.168 1844.74,176.45 1877.21,168.907 1909.68,161.535 1942.16,154.329 1974.63,147.285 2007.1,140.4 2039.57,133.67 2072.04,127.092 2104.51,120.664 2136.98,114.384 2169.45,108.25 2201.92,102.26 2234.39,96.4147 2266.86,90.7122 2293.23,86.1857 "/>
<path clip-path="url(#clip950)" d="M319.649 196.789 L582.401 196.789 L582.401 93.1086 L319.649 93.1086  Z" fill="#ffffff" fill-rule="evenodd" fill-opacity="1"/>
<polyline clip-path="url(#clip950)" style="stroke:#000000; stroke-linecap:round; stroke-linejoin:round; stroke-width:4; stroke-opacity:1; fill:none" points="319.649,196.789 582.401,196.789 582.401,93.1086 319.649,93.1086 319.649,196.789 "/>
<polyline clip-path="url(#clip950)" style="stroke:#009af9; stroke-linecap:round; stroke-linejoin:round; stroke-width:4; stroke-opacity:1; fill:none" points="343.018,144.949 483.232,144.949 "/>
<path clip-path="url(#clip950)" d="M520.444 164.636 Q518.638 169.266 516.926 170.678 Q515.213 172.09 512.342 172.09 L508.939 172.09 L508.939 168.525 L511.439 168.525 Q513.199 168.525 514.171 167.692 Q515.143 166.858 516.324 163.756 L517.088 161.812 L506.602 136.303 L511.115 136.303 L519.217 156.581 L527.319 136.303 L531.833 136.303 L520.444 164.636 Z" fill="#000000" fill-rule="nonzero" fill-opacity="1" /><path clip-path="url(#clip950)" d="M539.124 158.293 L546.763 158.293 L546.763 131.928 L538.453 133.595 L538.453 129.335 L546.717 127.669 L551.393 127.669 L551.393 158.293 L559.032 158.293 L559.032 162.229 L539.124 162.229 L539.124 158.293 Z" fill="#000000" fill-rule="nonzero" fill-opacity="1" /></svg>
