<?xml version="1.0" encoding="utf-8"?>
<svg xmlns="http://www.w3.org/2000/svg" xmlns:xlink="http://www.w3.org/1999/xlink" width="800" height="400" viewBox="0 0 3200 1600">
<defs>
  <clipPath id="clip130">
    <rect x="0" y="0" width="3200" height="1600"/>
  </clipPath>
</defs>
<path clip-path="url(#clip130)" d="M0 1600 L3200 1600 L3200 0 L0 0  Z" fill="#ffffff" fill-rule="evenodd" fill-opacity="1"/>
<defs>
  <clipPath id="clip131">
    <rect x="364" y="47" width="2789" height="1449"/>
  </clipPath>
</defs>
<path clip-path="url(#clip130)" d="M364.733 1495.09 L3152.76 1495.09 L3152.76 47.2441 L364.733 47.2441  Z" fill="#ffffff" fill-rule="evenodd" fill-opacity="1"/>
<polyline clip-path="url(#clip131)" style="stroke:#000000; stroke-linecap:round; stroke-linejoin:round; stroke-width:2; stroke-opacity:0.1; fill:none" points="735.885,1495.09 735.885,47.2441 "/>
<polyline clip-path="url(#clip131)" style="stroke:#000000; stroke-linecap:round; stroke-linejoin:round; stroke-width:2; stroke-opacity:0.1; fill:none" points="1758.74,1495.09 1758.74,47.2441 "/>
<polyline clip-path="url(#clip131)" style="stroke:#000000; stroke-linecap:round; stroke-linejoin:round; stroke-width:2; stroke-opacity:0.1; fill:none" points="2781.6,1495.09 2781.6,47.2441 "/>
<polyline clip-path="url(#clip131)" style="stroke:#000000; stroke-linecap:round; stroke-linejoin:round; stroke-width:2; stroke-opacity:0.1; fill:none" points="364.733,1384.04 3152.76,1384.04 "/>
<polyline clip-path="url(#clip131)" style="stroke:#000000; stroke-linecap:round; stroke-linejoin:round; stroke-width:2; stroke-opacity:0.1; fill:none" points="364.733,1133.84 3152.76,1133.84 "/>
<polyline clip-path="url(#clip131)" style="stroke:#000000; stroke-linecap:round; stroke-linejoin:round; stroke-width:2; stroke-opacity:0.1; fill:none" points="364.733,883.632 3152.76,883.632 "/>
<polyline clip-path="url(#clip131)" style="stroke:#000000; stroke-linecap:round; stroke-linejoin:round; stroke-width:2; stroke-opacity:0.1; fill:none" points="364.733,633.427 3152.76,633.427 "/>
<polyline clip-path="url(#clip131)" style="stroke:#000000; stroke-linecap:round; stroke-linejoin:round; stroke-width:2; stroke-opacity:0.1; fill:none" points="364.733,383.222 3152.76,383.222 "/>
<polyline clip-path="url(#clip131)" style="stroke:#000000; stroke-linecap:round; stroke-linejoin:round; stroke-width:2; stroke-opacity:0.1; fill:none" points="364.733,133.017 3152.76,133.017 "/>
<polyline clip-path="url(#clip130)" style="stroke:#000000; stroke-linecap:round; stroke-linejoin:round; stroke-width:4; stroke-opacity:1; fill:none" points="364.733,1495.09 3152.76,1495.09 "/>
<polyline clip-path="url(#clip130)" style="stroke:#000000; stroke-linecap:round; stroke-linejoin:round; stroke-width:4; stroke-opacity:1; fill:none" points="735.885,1495.09 735.885,1476.19 "/>
<polyline clip-path="url(#clip130)" style="stroke:#000000; stroke-linecap:round; stroke-linejoin:round; stroke-width:4; stroke-opacity:1; fill:none" points="1758.74,1495.09 1758.74,1476.19 "/>
<polyline clip-path="url(#clip130)" style="stroke:#000000; stroke-linecap:round; stroke-linejoin:round; stroke-width:4; stroke-opacity:1; fill:none" points="2781.6,1495.09 2781.6,1476.19 "/>
<path clip-path="url(#clip130)" d="M651.846 1538.73 L651.846 1542.75 Q650.04 1541.83 648.096 1541.36 Q646.151 1540.9 644.068 1540.9 Q640.897 1540.9 639.299 1541.87 Q637.725 1542.85 637.725 1544.79 Q637.725 1546.27 638.86 1547.13 Q639.994 1547.96 643.42 1548.73 L644.878 1549.05 Q649.415 1550.02 651.313 1551.8 Q653.235 1553.56 653.235 1556.74 Q653.235 1560.35 650.364 1562.45 Q647.517 1564.56 642.517 1564.56 Q640.434 1564.56 638.165 1564.14 Q635.92 1563.75 633.42 1562.94 L633.42 1558.54 Q635.781 1559.77 638.073 1560.39 Q640.364 1560.99 642.61 1560.99 Q645.619 1560.99 647.239 1559.98 Q648.86 1558.93 648.86 1557.06 Q648.86 1555.32 647.679 1554.4 Q646.522 1553.47 642.563 1552.61 L641.082 1552.27 Q637.123 1551.43 635.364 1549.72 Q633.605 1547.99 633.605 1544.98 Q633.605 1541.32 636.198 1539.33 Q638.79 1537.34 643.559 1537.34 Q645.92 1537.34 648.003 1537.68 Q650.086 1538.03 651.846 1538.73 Z" fill="#000000" fill-rule="nonzero" fill-opacity="1" /><path clip-path="url(#clip130)" d="M670.804 1566.3 Q668.998 1570.92 667.285 1572.34 Q665.572 1573.75 662.702 1573.75 L659.299 1573.75 L659.299 1570.18 L661.799 1570.18 Q663.559 1570.18 664.531 1569.35 Q665.503 1568.52 666.684 1565.42 L667.447 1563.47 L656.961 1537.96 L661.475 1537.96 L669.577 1558.24 L677.679 1537.96 L682.193 1537.96 L670.804 1566.3 Z" fill="#000000" fill-rule="nonzero" fill-opacity="1" /><path clip-path="url(#clip130)" d="M708.257 1542.94 Q709.855 1540.07 712.077 1538.7 Q714.299 1537.34 717.308 1537.34 Q721.359 1537.34 723.558 1540.18 Q725.757 1543.01 725.757 1548.24 L725.757 1563.89 L721.475 1563.89 L721.475 1548.38 Q721.475 1544.65 720.155 1542.85 Q718.836 1541.04 716.128 1541.04 Q712.818 1541.04 710.896 1543.24 Q708.975 1545.44 708.975 1549.24 L708.975 1563.89 L704.693 1563.89 L704.693 1548.38 Q704.693 1544.63 703.373 1542.85 Q702.054 1541.04 699.299 1541.04 Q696.035 1541.04 694.114 1543.26 Q692.193 1545.46 692.193 1549.24 L692.193 1563.89 L687.91 1563.89 L687.91 1537.96 L692.193 1537.96 L692.193 1541.99 Q693.651 1539.61 695.688 1538.47 Q697.725 1537.34 700.526 1537.34 Q703.35 1537.34 705.318 1538.77 Q707.308 1540.21 708.257 1542.94 Z" fill="#000000" fill-rule="nonzero" fill-opacity="1" /><path clip-path="url(#clip130)" d="M752.864 1550.95 Q752.864 1546.25 750.919 1543.59 Q748.998 1540.9 745.618 1540.9 Q742.239 1540.9 740.294 1543.59 Q738.373 1546.25 738.373 1550.95 Q738.373 1555.65 740.294 1558.33 Q742.239 1560.99 745.618 1560.99 Q748.998 1560.99 750.919 1558.33 Q752.864 1555.65 752.864 1550.95 M738.373 1541.9 Q739.716 1539.58 741.753 1538.47 Q743.813 1537.34 746.66 1537.34 Q751.382 1537.34 754.322 1541.09 Q757.285 1544.84 757.285 1550.95 Q757.285 1557.06 754.322 1560.81 Q751.382 1564.56 746.66 1564.56 Q743.813 1564.56 741.753 1563.45 Q739.716 1562.31 738.373 1560 L738.373 1563.89 L734.091 1563.89 L734.091 1527.87 L738.373 1527.87 L738.373 1541.9 Z" fill="#000000" fill-rule="nonzero" fill-opacity="1" /><path clip-path="url(#clip130)" d="M774.391 1540.95 Q770.965 1540.95 768.975 1543.63 Q766.984 1546.3 766.984 1550.95 Q766.984 1555.6 768.951 1558.29 Q770.942 1560.95 774.391 1560.95 Q777.794 1560.95 779.785 1558.26 Q781.775 1555.58 781.775 1550.95 Q781.775 1546.34 779.785 1543.66 Q777.794 1540.95 774.391 1540.95 M774.391 1537.34 Q779.947 1537.34 783.118 1540.95 Q786.289 1544.56 786.289 1550.95 Q786.289 1557.31 783.118 1560.95 Q779.947 1564.56 774.391 1564.56 Q768.813 1564.56 765.641 1560.95 Q762.493 1557.31 762.493 1550.95 Q762.493 1544.56 765.641 1540.95 Q768.813 1537.34 774.391 1537.34 Z" fill="#000000" fill-rule="nonzero" fill-opacity="1" /><path clip-path="url(#clip130)" d="M793.349 1527.87 L797.609 1527.87 L797.609 1563.89 L793.349 1563.89 L793.349 1527.87 Z" fill="#000000" fill-rule="nonzero" fill-opacity="1" /><path clip-path="url(#clip130)" d="M806.521 1537.96 L810.78 1537.96 L810.78 1563.89 L806.521 1563.89 L806.521 1537.96 M806.521 1527.87 L810.78 1527.87 L810.78 1533.26 L806.521 1533.26 L806.521 1527.87 Z" fill="#000000" fill-rule="nonzero" fill-opacity="1" /><path clip-path="url(#clip130)" d="M838.349 1538.96 L838.349 1542.94 Q836.544 1541.94 834.715 1541.46 Q832.909 1540.95 831.058 1540.95 Q826.914 1540.95 824.622 1543.59 Q822.331 1546.2 822.331 1550.95 Q822.331 1555.69 824.622 1558.33 Q826.914 1560.95 831.058 1560.95 Q832.909 1560.95 834.715 1560.46 Q836.544 1559.95 838.349 1558.96 L838.349 1562.89 Q836.567 1563.73 834.646 1564.14 Q832.747 1564.56 830.595 1564.56 Q824.738 1564.56 821.289 1560.88 Q817.84 1557.2 817.84 1550.95 Q817.84 1544.61 821.312 1540.97 Q824.808 1537.34 830.872 1537.34 Q832.84 1537.34 834.715 1537.75 Q836.59 1538.15 838.349 1538.96 Z" fill="#000000" fill-rule="nonzero" fill-opacity="1" /><path clip-path="url(#clip130)" d="M1669.07 1527.87 L1669.07 1531.41 L1664.99 1531.41 Q1662.7 1531.41 1661.8 1532.34 Q1660.92 1533.26 1660.92 1535.67 L1660.92 1537.96 L1667.93 1537.96 L1667.93 1541.27 L1660.92 1541.27 L1660.92 1563.89 L1656.64 1563.89 L1656.64 1541.27 L1652.56 1541.27 L1652.56 1537.96 L1656.64 1537.96 L1656.64 1536.16 Q1656.64 1531.83 1658.65 1529.86 Q1660.67 1527.87 1665.04 1527.87 L1669.07 1527.87 Z" fill="#000000" fill-rule="nonzero" fill-opacity="1" /><path clip-path="url(#clip130)" d="M1672.63 1537.96 L1676.89 1537.96 L1676.89 1563.89 L1672.63 1563.89 L1672.63 1537.96 M1672.63 1527.87 L1676.89 1527.87 L1676.89 1533.26 L1672.63 1533.26 L1672.63 1527.87 Z" fill="#000000" fill-rule="nonzero" fill-opacity="1" /><path clip-path="url(#clip130)" d="M1707.36 1548.24 L1707.36 1563.89 L1703.1 1563.89 L1703.1 1548.38 Q1703.1 1544.7 1701.66 1542.87 Q1700.23 1541.04 1697.36 1541.04 Q1693.91 1541.04 1691.92 1543.24 Q1689.93 1545.44 1689.93 1549.24 L1689.93 1563.89 L1685.64 1563.89 L1685.64 1537.96 L1689.93 1537.96 L1689.93 1541.99 Q1691.45 1539.65 1693.51 1538.49 Q1695.6 1537.34 1698.3 1537.34 Q1702.77 1537.34 1705.06 1540.11 Q1707.36 1542.87 1707.36 1548.24 Z" fill="#000000" fill-rule="nonzero" fill-opacity="1" /><path clip-path="url(#clip130)" d="M1715.85 1537.96 L1720.11 1537.96 L1720.11 1563.89 L1715.85 1563.89 L1715.85 1537.96 M1715.85 1527.87 L1720.11 1527.87 L1720.11 1533.26 L1715.85 1533.26 L1715.85 1527.87 Z" fill="#000000" fill-rule="nonzero" fill-opacity="1" /><path clip-path="url(#clip130)" d="M1733.24 1530.6 L1733.24 1537.96 L1742.01 1537.96 L1742.01 1541.27 L1733.24 1541.27 L1733.24 1555.35 Q1733.24 1558.52 1734.09 1559.42 Q1734.97 1560.32 1737.63 1560.32 L1742.01 1560.32 L1742.01 1563.89 L1737.63 1563.89 Q1732.7 1563.89 1730.83 1562.06 Q1728.95 1560.21 1728.95 1555.35 L1728.95 1541.27 L1725.83 1541.27 L1725.83 1537.96 L1728.95 1537.96 L1728.95 1530.6 L1733.24 1530.6 Z" fill="#000000" fill-rule="nonzero" fill-opacity="1" /><path clip-path="url(#clip130)" d="M1769.79 1549.86 L1769.79 1551.94 L1750.2 1551.94 Q1750.48 1556.34 1752.84 1558.66 Q1755.23 1560.95 1759.46 1560.95 Q1761.92 1560.95 1764.21 1560.35 Q1766.52 1559.74 1768.79 1558.54 L1768.79 1562.57 Q1766.5 1563.54 1764.09 1564.05 Q1761.68 1564.56 1759.21 1564.56 Q1753 1564.56 1749.37 1560.95 Q1745.76 1557.34 1745.76 1551.18 Q1745.76 1544.81 1749.18 1541.09 Q1752.63 1537.34 1758.47 1537.34 Q1763.7 1537.34 1766.73 1540.72 Q1769.79 1544.07 1769.79 1549.86 M1765.53 1548.61 Q1765.48 1545.11 1763.56 1543.03 Q1761.66 1540.95 1758.51 1540.95 Q1754.95 1540.95 1752.8 1542.96 Q1750.67 1544.98 1750.34 1548.63 L1765.53 1548.61 Z" fill="#000000" fill-rule="nonzero" fill-opacity="1" /><path clip-path="url(#clip130)" d="M1808.91 1541.9 L1808.91 1527.87 L1813.17 1527.87 L1813.17 1563.89 L1808.91 1563.89 L1808.91 1560 Q1807.56 1562.31 1805.5 1563.45 Q1803.47 1564.56 1800.6 1564.56 Q1795.9 1564.56 1792.93 1560.81 Q1789.99 1557.06 1789.99 1550.95 Q1789.99 1544.84 1792.93 1541.09 Q1795.9 1537.34 1800.6 1537.34 Q1803.47 1537.34 1805.5 1538.47 Q1807.56 1539.58 1808.91 1541.9 M1794.39 1550.95 Q1794.39 1555.65 1796.31 1558.33 Q1798.26 1560.99 1801.64 1560.99 Q1805.02 1560.99 1806.96 1558.33 Q1808.91 1555.65 1808.91 1550.95 Q1808.91 1546.25 1806.96 1543.59 Q1805.02 1540.9 1801.64 1540.9 Q1798.26 1540.9 1796.31 1543.59 Q1794.39 1546.25 1794.39 1550.95 Z" fill="#000000" fill-rule="nonzero" fill-opacity="1" /><path clip-path="url(#clip130)" d="M1821.94 1537.96 L1826.2 1537.96 L1826.2 1563.89 L1821.94 1563.89 L1821.94 1537.96 M1821.94 1527.87 L1826.2 1527.87 L1826.2 1533.26 L1821.94 1533.26 L1821.94 1527.87 Z" fill="#000000" fill-rule="nonzero" fill-opacity="1" /><path clip-path="url(#clip130)" d="M1848.23 1527.87 L1848.23 1531.41 L1844.16 1531.41 Q1841.87 1531.41 1840.97 1532.34 Q1840.09 1533.26 1840.09 1535.67 L1840.09 1537.96 L1847.1 1537.96 L1847.1 1541.27 L1840.09 1541.27 L1840.09 1563.89 L1835.8 1563.89 L1835.8 1541.27 L1831.73 1541.27 L1831.73 1537.96 L1835.8 1537.96 L1835.8 1536.16 Q1835.8 1531.83 1837.82 1529.86 Q1839.83 1527.87 1844.21 1527.87 L1848.23 1527.87 Z" fill="#000000" fill-rule="nonzero" fill-opacity="1" /><path clip-path="url(#clip130)" d="M1864.92 1527.87 L1864.92 1531.41 L1860.85 1531.41 Q1858.56 1531.41 1857.66 1532.34 Q1856.78 1533.26 1856.78 1535.67 L1856.78 1537.96 L1863.79 1537.96 L1863.79 1541.27 L1856.78 1541.27 L1856.78 1563.89 L1852.49 1563.89 L1852.49 1541.27 L1848.42 1541.27 L1848.42 1537.96 L1852.49 1537.96 L1852.49 1536.16 Q1852.49 1531.83 1854.51 1529.86 Q1856.52 1527.87 1860.9 1527.87 L1864.92 1527.87 Z" fill="#000000" fill-rule="nonzero" fill-opacity="1" /><path clip-path="url(#clip130)" d="M2661.47 1527.87 L2661.47 1531.41 L2657.39 1531.41 Q2655.1 1531.41 2654.2 1532.34 Q2653.32 1533.26 2653.32 1535.67 L2653.32 1537.96 L2660.33 1537.96 L2660.33 1541.27 L2653.32 1541.27 L2653.32 1563.89 L2649.04 1563.89 L2649.04 1541.27 L2644.96 1541.27 L2644.96 1537.96 L2649.04 1537.96 L2649.04 1536.16 Q2649.04 1531.83 2651.05 1529.86 Q2653.06 1527.87 2657.44 1527.87 L2661.47 1527.87 Z" fill="#000000" fill-rule="nonzero" fill-opacity="1" /><path clip-path="url(#clip130)" d="M2675.08 1540.95 Q2671.65 1540.95 2669.66 1543.63 Q2667.67 1546.3 2667.67 1550.95 Q2667.67 1555.6 2669.64 1558.29 Q2671.63 1560.95 2675.08 1560.95 Q2678.48 1560.95 2680.47 1558.26 Q2682.46 1555.58 2682.46 1550.95 Q2682.46 1546.34 2680.47 1543.66 Q2678.48 1540.95 2675.08 1540.95 M2675.08 1537.34 Q2680.63 1537.34 2683.8 1540.95 Q2686.97 1544.56 2686.97 1550.95 Q2686.97 1557.31 2683.8 1560.95 Q2680.63 1564.56 2675.08 1564.56 Q2669.5 1564.56 2666.33 1560.95 Q2663.18 1557.31 2663.18 1550.95 Q2663.18 1544.56 2666.33 1540.95 Q2669.5 1537.34 2675.08 1537.34 Z" fill="#000000" fill-rule="nonzero" fill-opacity="1" /><path clip-path="url(#clip130)" d="M2709.06 1541.94 Q2708.34 1541.53 2707.48 1541.34 Q2706.65 1541.13 2705.63 1541.13 Q2702.02 1541.13 2700.08 1543.49 Q2698.16 1545.83 2698.16 1550.23 L2698.16 1563.89 L2693.87 1563.89 L2693.87 1537.96 L2698.16 1537.96 L2698.16 1541.99 Q2699.5 1539.63 2701.65 1538.49 Q2703.8 1537.34 2706.88 1537.34 Q2707.32 1537.34 2707.85 1537.41 Q2708.39 1537.45 2709.03 1537.57 L2709.06 1541.94 Z" fill="#000000" fill-rule="nonzero" fill-opacity="1" /><path clip-path="url(#clip130)" d="M2711.05 1537.96 L2715.31 1537.96 L2720.63 1558.19 L2725.93 1537.96 L2730.96 1537.96 L2736.28 1558.19 L2741.58 1537.96 L2745.84 1537.96 L2739.06 1563.89 L2734.03 1563.89 L2728.46 1542.64 L2722.85 1563.89 L2717.83 1563.89 L2711.05 1537.96 Z" fill="#000000" fill-rule="nonzero" fill-opacity="1" /><path clip-path="url(#clip130)" d="M2764.08 1550.86 Q2758.92 1550.86 2756.93 1552.04 Q2754.94 1553.22 2754.94 1556.06 Q2754.94 1558.33 2756.42 1559.67 Q2757.92 1560.99 2760.49 1560.99 Q2764.03 1560.99 2766.16 1558.49 Q2768.32 1555.97 2768.32 1551.8 L2768.32 1550.86 L2764.08 1550.86 M2772.58 1549.1 L2772.58 1563.89 L2768.32 1563.89 L2768.32 1559.95 Q2766.86 1562.31 2764.68 1563.45 Q2762.51 1564.56 2759.36 1564.56 Q2755.38 1564.56 2753.02 1562.34 Q2750.68 1560.09 2750.68 1556.34 Q2750.68 1551.97 2753.59 1549.74 Q2756.53 1547.52 2762.34 1547.52 L2768.32 1547.52 L2768.32 1547.11 Q2768.32 1544.17 2766.37 1542.57 Q2764.45 1540.95 2760.96 1540.95 Q2758.73 1540.95 2756.63 1541.48 Q2754.52 1542.01 2752.58 1543.08 L2752.58 1539.14 Q2754.91 1538.24 2757.11 1537.8 Q2759.31 1537.34 2761.4 1537.34 Q2767.02 1537.34 2769.8 1540.25 Q2772.58 1543.17 2772.58 1549.1 Z" fill="#000000" fill-rule="nonzero" fill-opacity="1" /><path clip-path="url(#clip130)" d="M2796.37 1541.94 Q2795.65 1541.53 2794.8 1541.34 Q2793.96 1541.13 2792.95 1541.13 Q2789.34 1541.13 2787.39 1543.49 Q2785.47 1545.83 2785.47 1550.23 L2785.47 1563.89 L2781.19 1563.89 L2781.19 1537.96 L2785.47 1537.96 L2785.47 1541.99 Q2786.81 1539.63 2788.97 1538.49 Q2791.12 1537.34 2794.2 1537.34 Q2794.64 1537.34 2795.17 1537.41 Q2795.7 1537.45 2796.35 1537.57 L2796.37 1541.94 Z" fill="#000000" fill-rule="nonzero" fill-opacity="1" /><path clip-path="url(#clip130)" d="M2817.07 1541.9 L2817.07 1527.87 L2821.33 1527.87 L2821.33 1563.89 L2817.07 1563.89 L2817.07 1560 Q2815.72 1562.31 2813.66 1563.45 Q2811.63 1564.56 2808.76 1564.56 Q2804.06 1564.56 2801.09 1560.81 Q2798.15 1557.06 2798.15 1550.95 Q2798.15 1544.84 2801.09 1541.09 Q2804.06 1537.34 2808.76 1537.34 Q2811.63 1537.34 2813.66 1538.47 Q2815.72 1539.58 2817.07 1541.9 M2802.55 1550.95 Q2802.55 1555.65 2804.47 1558.33 Q2806.42 1560.99 2809.8 1560.99 Q2813.18 1560.99 2815.12 1558.33 Q2817.07 1555.65 2817.07 1550.95 Q2817.07 1546.25 2815.12 1543.59 Q2813.18 1540.9 2809.8 1540.9 Q2806.42 1540.9 2804.47 1543.59 Q2802.55 1546.25 2802.55 1550.95 Z" fill="#000000" fill-rule="nonzero" fill-opacity="1" /><path clip-path="url(#clip130)" d="M2862.23 1541.9 L2862.23 1527.87 L2866.49 1527.87 L2866.49 1563.89 L2862.23 1563.89 L2862.23 1560 Q2860.89 1562.31 2858.83 1563.45 Q2856.79 1564.56 2853.92 1564.56 Q2849.22 1564.56 2846.26 1560.81 Q2843.32 1557.06 2843.32 1550.95 Q2843.32 1544.84 2846.26 1541.09 Q2849.22 1537.34 2853.92 1537.34 Q2856.79 1537.34 2858.83 1538.47 Q2860.89 1539.58 2862.23 1541.9 M2847.71 1550.95 Q2847.71 1555.65 2849.64 1558.33 Q2851.58 1560.99 2854.96 1560.99 Q2858.34 1560.99 2860.28 1558.33 Q2862.23 1555.65 2862.23 1550.95 Q2862.23 1546.25 2860.28 1543.59 Q2858.34 1540.9 2854.96 1540.9 Q2851.58 1540.9 2849.64 1543.59 Q2847.71 1546.25 2847.71 1550.95 Z" fill="#000000" fill-rule="nonzero" fill-opacity="1" /><path clip-path="url(#clip130)" d="M2875.26 1537.96 L2879.52 1537.96 L2879.52 1563.89 L2875.26 1563.89 L2875.26 1537.96 M2875.26 1527.87 L2879.52 1527.87 L2879.52 1533.26 L2875.26 1533.26 L2875.26 1527.87 Z" fill="#000000" fill-rule="nonzero" fill-opacity="1" /><path clip-path="url(#clip130)" d="M2901.56 1527.87 L2901.56 1531.41 L2897.48 1531.41 Q2895.19 1531.41 2894.29 1532.34 Q2893.41 1533.26 2893.41 1535.67 L2893.41 1537.96 L2900.42 1537.96 L2900.42 1541.27 L2893.41 1541.27 L2893.41 1563.89 L2889.13 1563.89 L2889.13 1541.27 L2885.05 1541.27 L2885.05 1537.96 L2889.13 1537.96 L2889.13 1536.16 Q2889.13 1531.83 2891.14 1529.86 Q2893.15 1527.87 2897.53 1527.87 L2901.56 1527.87 Z" fill="#000000" fill-rule="nonzero" fill-opacity="1" /><path clip-path="url(#clip130)" d="M2918.25 1527.87 L2918.25 1531.41 L2914.17 1531.41 Q2911.88 1531.41 2910.98 1532.34 Q2910.1 1533.26 2910.1 1535.67 L2910.1 1537.96 L2917.11 1537.96 L2917.11 1541.27 L2910.1 1541.27 L2910.1 1563.89 L2905.82 1563.89 L2905.82 1541.27 L2901.74 1541.27 L2901.74 1537.96 L2905.82 1537.96 L2905.82 1536.16 Q2905.82 1531.83 2907.83 1529.86 Q2909.84 1527.87 2914.22 1527.87 L2918.25 1527.87 Z" fill="#000000" fill-rule="nonzero" fill-opacity="1" /><polyline clip-path="url(#clip130)" style="stroke:#000000; stroke-linecap:round; stroke-linejoin:round; stroke-width:4; stroke-opacity:1; fill:none" points="364.733,1495.09 364.733,47.2441 "/>
<polyline clip-path="url(#clip130)" style="stroke:#000000; stroke-linecap:round; stroke-linejoin:round; stroke-width:4; stroke-opacity:1; fill:none" points="364.733,1384.04 383.63,1384.04 "/>
<polyline clip-path="url(#clip130)" style="stroke:#000000; stroke-linecap:round; stroke-linejoin:round; stroke-width:4; stroke-opacity:1; fill:none" points="364.733,1133.84 383.63,1133.84 "/>
<polyline clip-path="url(#clip130)" style="stroke:#000000; stroke-linecap:round; stroke-linejoin:round; stroke-width:4; stroke-opacity:1; fill:none" points="364.733,883.632 383.63,883.632 "/>
<polyline clip-path="url(#clip130)" style="stroke:#000000; stroke-linecap:round; stroke-linejoin:round; stroke-width:4; stroke-opacity:1; fill:none" points="364.733,633.427 383.63,633.427 "/>
<polyline clip-path="url(#clip130)" style="stroke:#000000; stroke-linecap:round; stroke-linejoin:round; stroke-width:4; stroke-opacity:1; fill:none" points="364.733,383.222 383.63,383.222 "/>
<polyline clip-path="url(#clip130)" style="stroke:#000000; stroke-linecap:round; stroke-linejoin:round; stroke-width:4; stroke-opacity:1; fill:none" points="364.733,133.017 383.63,133.017 "/>
<path clip-path="url(#clip130)" d="M100.137 1373.21 L118.493 1373.21 L118.493 1377.14 L104.419 1377.14 L104.419 1385.62 Q105.437 1385.27 106.456 1385.11 Q107.474 1384.92 108.493 1384.92 Q114.28 1384.92 117.66 1388.09 Q121.039 1391.27 121.039 1396.68 Q121.039 1402.26 117.567 1405.36 Q114.095 1408.44 107.775 1408.44 Q105.599 1408.44 103.331 1408.07 Q101.086 1407.7 98.6782 1406.96 L98.6782 1402.26 Q100.762 1403.39 102.984 1403.95 Q105.206 1404.51 107.683 1404.51 Q111.687 1404.51 114.025 1402.4 Q116.363 1400.29 116.363 1396.68 Q116.363 1393.07 114.025 1390.96 Q111.687 1388.86 107.683 1388.86 Q105.808 1388.86 103.933 1389.27 Q102.081 1389.69 100.137 1390.57 L100.137 1373.21 Z" fill="#000000" fill-rule="nonzero" fill-opacity="1" /><path clip-path="url(#clip130)" d="M130.252 1401.89 L135.136 1401.89 L135.136 1407.77 L130.252 1407.77 L130.252 1401.89 Z" fill="#000000" fill-rule="nonzero" fill-opacity="1" /><path clip-path="url(#clip130)" d="M155.321 1376.29 Q151.71 1376.29 149.882 1379.85 Q148.076 1383.39 148.076 1390.52 Q148.076 1397.63 149.882 1401.2 Q151.71 1404.74 155.321 1404.74 Q158.956 1404.74 160.761 1401.2 Q162.59 1397.63 162.59 1390.52 Q162.59 1383.39 160.761 1379.85 Q158.956 1376.29 155.321 1376.29 M155.321 1372.58 Q161.132 1372.58 164.187 1377.19 Q167.266 1381.77 167.266 1390.52 Q167.266 1399.25 164.187 1403.86 Q161.132 1408.44 155.321 1408.44 Q149.511 1408.44 146.433 1403.86 Q143.377 1399.25 143.377 1390.52 Q143.377 1381.77 146.433 1377.19 Q149.511 1372.58 155.321 1372.58 Z" fill="#000000" fill-rule="nonzero" fill-opacity="1" /><path clip-path="url(#clip130)" d="M185.483 1376.29 Q181.872 1376.29 180.043 1379.85 Q178.238 1383.39 178.238 1390.52 Q178.238 1397.63 180.043 1401.2 Q181.872 1404.74 185.483 1404.74 Q189.118 1404.74 190.923 1401.2 Q192.752 1397.63 192.752 1390.52 Q192.752 1383.39 190.923 1379.85 Q189.118 1376.29 185.483 1376.29 M185.483 1372.58 Q191.293 1372.58 194.349 1377.19 Q197.428 1381.77 197.428 1390.52 Q197.428 1399.25 194.349 1403.86 Q191.293 1408.44 185.483 1408.44 Q179.673 1408.44 176.594 1403.86 Q173.539 1399.25 173.539 1390.52 Q173.539 1381.77 176.594 1377.19 Q179.673 1372.58 185.483 1372.58 Z" fill="#000000" fill-rule="nonzero" fill-opacity="1" /><path clip-path="url(#clip130)" d="M233.816 1382.31 L223.238 1392.93 L233.816 1403.51 L231.062 1406.31 L220.437 1395.69 L209.812 1406.31 L207.08 1403.51 L217.636 1392.93 L207.08 1382.31 L209.812 1379.51 L220.437 1390.13 L231.062 1379.51 L233.816 1382.31 Z" fill="#000000" fill-rule="nonzero" fill-opacity="1" /><path clip-path="url(#clip130)" d="M246.177 1403.83 L253.816 1403.83 L253.816 1377.47 L245.506 1379.14 L245.506 1374.88 L253.77 1373.21 L258.446 1373.21 L258.446 1403.83 L266.085 1403.83 L266.085 1407.77 L246.177 1407.77 L246.177 1403.83 Z" fill="#000000" fill-rule="nonzero" fill-opacity="1" /><path clip-path="url(#clip130)" d="M285.529 1376.29 Q281.918 1376.29 280.089 1379.85 Q278.284 1383.39 278.284 1390.52 Q278.284 1397.63 280.089 1401.2 Q281.918 1404.74 285.529 1404.74 Q289.163 1404.74 290.969 1401.2 Q292.798 1397.63 292.798 1390.52 Q292.798 1383.39 290.969 1379.85 Q289.163 1376.29 285.529 1376.29 M285.529 1372.58 Q291.339 1372.58 294.395 1377.19 Q297.473 1381.77 297.473 1390.52 Q297.473 1399.25 294.395 1403.86 Q291.339 1408.44 285.529 1408.44 Q279.719 1408.44 276.64 1403.86 Q273.585 1399.25 273.585 1390.52 Q273.585 1381.77 276.64 1377.19 Q279.719 1372.58 285.529 1372.58 Z" fill="#000000" fill-rule="nonzero" fill-opacity="1" /><path clip-path="url(#clip130)" d="M307.103 1367.02 Q304.395 1367.02 302.834 1368.47 Q301.291 1369.92 301.291 1372.46 Q301.291 1375 302.834 1376.45 Q304.395 1377.9 307.103 1377.9 Q309.811 1377.9 311.372 1376.45 Q312.933 1374.98 312.933 1372.46 Q312.933 1369.92 311.372 1368.47 Q309.83 1367.02 307.103 1367.02 M303.304 1365.41 Q300.859 1364.81 299.486 1363.13 Q298.132 1361.46 298.132 1359.05 Q298.132 1355.68 300.52 1353.73 Q302.928 1351.77 307.103 1351.77 Q311.297 1351.77 313.686 1353.73 Q316.074 1355.68 316.074 1359.05 Q316.074 1361.46 314.701 1363.13 Q313.347 1364.81 310.921 1365.41 Q313.667 1366.05 315.19 1367.91 Q316.733 1369.77 316.733 1372.46 Q316.733 1376.54 314.231 1378.72 Q311.749 1380.9 307.103 1380.9 Q302.457 1380.9 299.956 1378.72 Q297.473 1376.54 297.473 1372.46 Q297.473 1369.77 299.016 1367.91 Q300.558 1366.05 303.304 1365.41 M301.912 1359.41 Q301.912 1361.59 303.266 1362.81 Q304.639 1364.03 307.103 1364.03 Q309.548 1364.03 310.921 1362.81 Q312.313 1361.59 312.313 1359.41 Q312.313 1357.23 310.921 1356 Q309.548 1354.78 307.103 1354.78 Q304.639 1354.78 303.266 1356 Q301.912 1357.23 301.912 1359.41 Z" fill="#000000" fill-rule="nonzero" fill-opacity="1" /><path clip-path="url(#clip130)" d="M100.788 1153.63 L108.426 1153.63 L108.426 1127.26 L100.116 1128.93 L100.116 1124.67 L108.38 1123 L113.056 1123 L113.056 1153.63 L120.695 1153.63 L120.695 1157.56 L100.788 1157.56 L100.788 1153.63 Z" fill="#000000" fill-rule="nonzero" fill-opacity="1" /><path clip-path="url(#clip130)" d="M130.139 1151.68 L135.023 1151.68 L135.023 1157.56 L130.139 1157.56 L130.139 1151.68 Z" fill="#000000" fill-rule="nonzero" fill-opacity="1" /><path clip-path="url(#clip130)" d="M155.209 1126.08 Q151.597 1126.08 149.769 1129.65 Q147.963 1133.19 147.963 1140.32 Q147.963 1147.43 149.769 1150.99 Q151.597 1154.53 155.209 1154.53 Q158.843 1154.53 160.648 1150.99 Q162.477 1147.43 162.477 1140.32 Q162.477 1133.19 160.648 1129.65 Q158.843 1126.08 155.209 1126.08 M155.209 1122.38 Q161.019 1122.38 164.074 1126.99 Q167.153 1131.57 167.153 1140.32 Q167.153 1149.05 164.074 1153.65 Q161.019 1158.24 155.209 1158.24 Q149.398 1158.24 146.32 1153.65 Q143.264 1149.05 143.264 1140.32 Q143.264 1131.57 146.32 1126.99 Q149.398 1122.38 155.209 1122.38 Z" fill="#000000" fill-rule="nonzero" fill-opacity="1" /><path clip-path="url(#clip130)" d="M185.37 1126.08 Q181.759 1126.08 179.931 1129.65 Q178.125 1133.19 178.125 1140.32 Q178.125 1147.43 179.931 1150.99 Q181.759 1154.53 185.37 1154.53 Q189.005 1154.53 190.81 1150.99 Q192.639 1147.43 192.639 1140.32 Q192.639 1133.19 190.81 1129.65 Q189.005 1126.08 185.37 1126.08 M185.37 1122.38 Q191.181 1122.38 194.236 1126.99 Q197.315 1131.57 197.315 1140.32 Q197.315 1149.05 194.236 1153.65 Q191.181 1158.24 185.37 1158.24 Q179.56 1158.24 176.482 1153.65 Q173.426 1149.05 173.426 1140.32 Q173.426 1131.57 176.482 1126.99 Q179.56 1122.38 185.37 1122.38 Z" fill="#000000" fill-rule="nonzero" fill-opacity="1" /><path clip-path="url(#clip130)" d="M233.704 1132.1 L223.125 1142.73 L233.704 1153.31 L230.949 1156.11 L220.324 1145.48 L209.699 1156.11 L206.968 1153.31 L217.523 1142.73 L206.968 1132.1 L209.699 1129.3 L220.324 1139.93 L230.949 1129.3 L233.704 1132.1 Z" fill="#000000" fill-rule="nonzero" fill-opacity="1" /><path clip-path="url(#clip130)" d="M246.065 1153.63 L253.703 1153.63 L253.703 1127.26 L245.393 1128.93 L245.393 1124.67 L253.657 1123 L258.333 1123 L258.333 1153.63 L265.972 1153.63 L265.972 1157.56 L246.065 1157.56 L246.065 1153.63 Z" fill="#000000" fill-rule="nonzero" fill-opacity="1" /><path clip-path="url(#clip130)" d="M285.416 1126.08 Q281.805 1126.08 279.976 1129.65 Q278.171 1133.19 278.171 1140.32 Q278.171 1147.43 279.976 1150.99 Q281.805 1154.53 285.416 1154.53 Q289.05 1154.53 290.856 1150.99 Q292.685 1147.43 292.685 1140.32 Q292.685 1133.19 290.856 1129.65 Q289.05 1126.08 285.416 1126.08 M285.416 1122.38 Q291.226 1122.38 294.282 1126.99 Q297.361 1131.57 297.361 1140.32 Q297.361 1149.05 294.282 1153.65 Q291.226 1158.24 285.416 1158.24 Q279.606 1158.24 276.527 1153.65 Q273.472 1149.05 273.472 1140.32 Q273.472 1131.57 276.527 1126.99 Q279.606 1122.38 285.416 1122.38 Z" fill="#000000" fill-rule="nonzero" fill-opacity="1" /><path clip-path="url(#clip130)" d="M299.166 1129.57 L299.166 1126.11 Q300.596 1126.79 302.063 1127.14 Q303.53 1127.5 304.94 1127.5 Q308.702 1127.5 310.676 1124.98 Q312.67 1122.44 312.952 1117.29 Q311.861 1118.91 310.187 1119.77 Q308.514 1120.64 306.482 1120.64 Q302.269 1120.64 299.806 1118.1 Q297.361 1115.54 297.361 1111.12 Q297.361 1106.79 299.918 1104.18 Q302.476 1101.57 306.727 1101.57 Q311.598 1101.57 314.156 1105.31 Q316.733 1109.03 316.733 1116.14 Q316.733 1122.78 313.573 1126.75 Q310.432 1130.7 305.109 1130.7 Q303.68 1130.7 302.213 1130.42 Q300.746 1130.14 299.166 1129.57 M306.727 1117.67 Q309.285 1117.67 310.771 1115.92 Q312.275 1114.17 312.275 1111.12 Q312.275 1108.09 310.771 1106.34 Q309.285 1104.58 306.727 1104.58 Q304.169 1104.58 302.664 1106.34 Q301.179 1108.09 301.179 1111.12 Q301.179 1114.17 302.664 1115.92 Q304.169 1117.67 306.727 1117.67 Z" fill="#000000" fill-rule="nonzero" fill-opacity="1" /><path clip-path="url(#clip130)" d="M100.788 903.424 L108.426 903.424 L108.426 877.059 L100.116 878.726 L100.116 874.466 L108.38 872.8 L113.056 872.8 L113.056 903.424 L120.695 903.424 L120.695 907.36 L100.788 907.36 L100.788 903.424 Z" fill="#000000" fill-rule="nonzero" fill-opacity="1" /><path clip-path="url(#clip130)" d="M130.139 901.48 L135.023 901.48 L135.023 907.36 L130.139 907.36 L130.139 901.48 Z" fill="#000000" fill-rule="nonzero" fill-opacity="1" /><path clip-path="url(#clip130)" d="M145.255 872.8 L163.611 872.8 L163.611 876.735 L149.537 876.735 L149.537 885.207 Q150.556 884.86 151.574 884.698 Q152.593 884.513 153.611 884.513 Q159.398 884.513 162.778 887.684 Q166.158 890.855 166.158 896.272 Q166.158 901.85 162.685 904.952 Q159.213 908.031 152.894 908.031 Q150.718 908.031 148.449 907.661 Q146.204 907.29 143.797 906.549 L143.797 901.85 Q145.88 902.985 148.102 903.54 Q150.324 904.096 152.801 904.096 Q156.806 904.096 159.144 901.989 Q161.482 899.883 161.482 896.272 Q161.482 892.661 159.144 890.554 Q156.806 888.448 152.801 888.448 Q150.926 888.448 149.051 888.864 Q147.199 889.281 145.255 890.161 L145.255 872.8 Z" fill="#000000" fill-rule="nonzero" fill-opacity="1" /><path clip-path="url(#clip130)" d="M185.37 875.878 Q181.759 875.878 179.931 879.443 Q178.125 882.985 178.125 890.114 Q178.125 897.221 179.931 900.786 Q181.759 904.327 185.37 904.327 Q189.005 904.327 190.81 900.786 Q192.639 897.221 192.639 890.114 Q192.639 882.985 190.81 879.443 Q189.005 875.878 185.37 875.878 M185.37 872.175 Q191.181 872.175 194.236 876.781 Q197.315 881.364 197.315 890.114 Q197.315 898.841 194.236 903.448 Q191.181 908.031 185.37 908.031 Q179.56 908.031 176.482 903.448 Q173.426 898.841 173.426 890.114 Q173.426 881.364 176.482 876.781 Q179.56 872.175 185.37 872.175 Z" fill="#000000" fill-rule="nonzero" fill-opacity="1" /><path clip-path="url(#clip130)" d="M233.704 881.897 L223.125 892.522 L233.704 903.1 L230.949 905.901 L220.324 895.276 L209.699 905.901 L206.968 903.1 L217.523 892.522 L206.968 881.897 L209.699 879.096 L220.324 889.721 L230.949 879.096 L233.704 881.897 Z" fill="#000000" fill-rule="nonzero" fill-opacity="1" /><path clip-path="url(#clip130)" d="M246.065 903.424 L253.703 903.424 L253.703 877.059 L245.393 878.726 L245.393 874.466 L253.657 872.8 L258.333 872.8 L258.333 903.424 L265.972 903.424 L265.972 907.36 L246.065 907.36 L246.065 903.424 Z" fill="#000000" fill-rule="nonzero" fill-opacity="1" /><path clip-path="url(#clip130)" d="M285.416 875.878 Q281.805 875.878 279.976 879.443 Q278.171 882.985 278.171 890.114 Q278.171 897.221 279.976 900.786 Q281.805 904.327 285.416 904.327 Q289.05 904.327 290.856 900.786 Q292.685 897.221 292.685 890.114 Q292.685 882.985 290.856 879.443 Q289.05 875.878 285.416 875.878 M285.416 872.175 Q291.226 872.175 294.282 876.781 Q297.361 881.364 297.361 890.114 Q297.361 898.841 294.282 903.448 Q291.226 908.031 285.416 908.031 Q279.606 908.031 276.527 903.448 Q273.472 898.841 273.472 890.114 Q273.472 881.364 276.527 876.781 Q279.606 872.175 285.416 872.175 Z" fill="#000000" fill-rule="nonzero" fill-opacity="1" /><path clip-path="url(#clip130)" d="M299.166 879.366 L299.166 875.906 Q300.596 876.583 302.063 876.94 Q303.53 877.297 304.94 877.297 Q308.702 877.297 310.676 874.777 Q312.67 872.238 312.952 867.085 Q311.861 868.702 310.187 869.567 Q308.514 870.432 306.482 870.432 Q302.269 870.432 299.806 867.893 Q297.361 865.336 297.361 860.916 Q297.361 856.59 299.918 853.976 Q302.476 851.361 306.727 851.361 Q311.598 851.361 314.156 855.104 Q316.733 858.828 316.733 865.937 Q316.733 872.577 313.573 876.545 Q310.432 880.495 305.109 880.495 Q303.68 880.495 302.213 880.213 Q300.746 879.93 299.166 879.366 M306.727 867.461 Q309.285 867.461 310.771 865.712 Q312.275 863.963 312.275 860.916 Q312.275 857.888 310.771 856.139 Q309.285 854.371 306.727 854.371 Q304.169 854.371 302.664 856.139 Q301.179 857.888 301.179 860.916 Q301.179 863.963 302.664 865.712 Q304.169 867.461 306.727 867.461 Z" fill="#000000" fill-rule="nonzero" fill-opacity="1" /><path clip-path="url(#clip130)" d="M104.005 653.219 L120.324 653.219 L120.324 657.155 L98.3802 657.155 L98.3802 653.219 Q101.042 650.465 105.625 645.835 Q110.232 641.183 111.412 639.84 Q113.658 637.317 114.537 635.581 Q115.44 633.821 115.44 632.132 Q115.44 629.377 113.496 627.641 Q111.575 625.905 108.473 625.905 Q106.274 625.905 103.82 626.669 Q101.389 627.433 98.6116 628.984 L98.6116 624.261 Q101.436 623.127 103.889 622.548 Q106.343 621.97 108.38 621.97 Q113.75 621.97 116.945 624.655 Q120.139 627.34 120.139 631.831 Q120.139 633.96 119.329 635.882 Q118.542 637.78 116.436 640.372 Q115.857 641.044 112.755 644.261 Q109.653 647.456 104.005 653.219 Z" fill="#000000" fill-rule="nonzero" fill-opacity="1" /><path clip-path="url(#clip130)" d="M130.139 651.275 L135.023 651.275 L135.023 657.155 L130.139 657.155 L130.139 651.275 Z" fill="#000000" fill-rule="nonzero" fill-opacity="1" /><path clip-path="url(#clip130)" d="M155.209 625.673 Q151.597 625.673 149.769 629.238 Q147.963 632.78 147.963 639.909 Q147.963 647.016 149.769 650.581 Q151.597 654.122 155.209 654.122 Q158.843 654.122 160.648 650.581 Q162.477 647.016 162.477 639.909 Q162.477 632.78 160.648 629.238 Q158.843 625.673 155.209 625.673 M155.209 621.97 Q161.019 621.97 164.074 626.576 Q167.153 631.159 167.153 639.909 Q167.153 648.636 164.074 653.243 Q161.019 657.826 155.209 657.826 Q149.398 657.826 146.32 653.243 Q143.264 648.636 143.264 639.909 Q143.264 631.159 146.32 626.576 Q149.398 621.97 155.209 621.97 Z" fill="#000000" fill-rule="nonzero" fill-opacity="1" /><path clip-path="url(#clip130)" d="M185.37 625.673 Q181.759 625.673 179.931 629.238 Q178.125 632.78 178.125 639.909 Q178.125 647.016 179.931 650.581 Q181.759 654.122 185.37 654.122 Q189.005 654.122 190.81 650.581 Q192.639 647.016 192.639 639.909 Q192.639 632.78 190.81 629.238 Q189.005 625.673 185.37 625.673 M185.37 621.97 Q191.181 621.97 194.236 626.576 Q197.315 631.159 197.315 639.909 Q197.315 648.636 194.236 653.243 Q191.181 657.826 185.37 657.826 Q179.56 657.826 176.482 653.243 Q173.426 648.636 173.426 639.909 Q173.426 631.159 176.482 626.576 Q179.56 621.97 185.37 621.97 Z" fill="#000000" fill-rule="nonzero" fill-opacity="1" /><path clip-path="url(#clip130)" d="M233.704 631.692 L223.125 642.317 L233.704 652.895 L230.949 655.696 L220.324 645.071 L209.699 655.696 L206.968 652.895 L217.523 642.317 L206.968 631.692 L209.699 628.891 L220.324 639.516 L230.949 628.891 L233.704 631.692 Z" fill="#000000" fill-rule="nonzero" fill-opacity="1" /><path clip-path="url(#clip130)" d="M246.065 653.219 L253.703 653.219 L253.703 626.854 L245.393 628.521 L245.393 624.261 L253.657 622.595 L258.333 622.595 L258.333 653.219 L265.972 653.219 L265.972 657.155 L246.065 657.155 L246.065 653.219 Z" fill="#000000" fill-rule="nonzero" fill-opacity="1" /><path clip-path="url(#clip130)" d="M285.416 625.673 Q281.805 625.673 279.976 629.238 Q278.171 632.78 278.171 639.909 Q278.171 647.016 279.976 650.581 Q281.805 654.122 285.416 654.122 Q289.05 654.122 290.856 650.581 Q292.685 647.016 292.685 639.909 Q292.685 632.78 290.856 629.238 Q289.05 625.673 285.416 625.673 M285.416 621.97 Q291.226 621.97 294.282 626.576 Q297.361 631.159 297.361 639.909 Q297.361 648.636 294.282 653.243 Q291.226 657.826 285.416 657.826 Q279.606 657.826 276.527 653.243 Q273.472 648.636 273.472 639.909 Q273.472 631.159 276.527 626.576 Q279.606 621.97 285.416 621.97 Z" fill="#000000" fill-rule="nonzero" fill-opacity="1" /><path clip-path="url(#clip130)" d="M299.166 629.161 L299.166 625.701 Q300.596 626.378 302.063 626.735 Q303.53 627.092 304.94 627.092 Q308.702 627.092 310.676 624.572 Q312.67 622.033 312.952 616.88 Q311.861 618.497 310.187 619.362 Q308.514 620.228 306.482 620.228 Q302.269 620.228 299.806 617.688 Q297.361 615.131 297.361 610.711 Q297.361 606.385 299.918 603.771 Q302.476 601.156 306.727 601.156 Q311.598 601.156 314.156 604.899 Q316.733 608.623 316.733 615.732 Q316.733 622.372 313.573 626.34 Q310.432 630.29 305.109 630.29 Q303.68 630.29 302.213 630.008 Q300.746 629.725 299.166 629.161 M306.727 617.256 Q309.285 617.256 310.771 615.507 Q312.275 613.758 312.275 610.711 Q312.275 607.683 310.771 605.934 Q309.285 604.166 306.727 604.166 Q304.169 604.166 302.664 605.934 Q301.179 607.683 301.179 610.711 Q301.179 613.758 302.664 615.507 Q304.169 617.256 306.727 617.256 Z" fill="#000000" fill-rule="nonzero" fill-opacity="1" /><path clip-path="url(#clip130)" d="M104.005 403.015 L120.324 403.015 L120.324 406.95 L98.3802 406.95 L98.3802 403.015 Q101.042 400.26 105.625 395.63 Q110.232 390.978 111.412 389.635 Q113.658 387.112 114.537 385.376 Q115.44 383.616 115.44 381.927 Q115.44 379.172 113.496 377.436 Q111.575 375.7 108.473 375.7 Q106.274 375.7 103.82 376.464 Q101.389 377.228 98.6116 378.779 L98.6116 374.056 Q101.436 372.922 103.889 372.343 Q106.343 371.765 108.38 371.765 Q113.75 371.765 116.945 374.45 Q120.139 377.135 120.139 381.626 Q120.139 383.755 119.329 385.677 Q118.542 387.575 116.436 390.167 Q115.857 390.839 112.755 394.056 Q109.653 397.251 104.005 403.015 Z" fill="#000000" fill-rule="nonzero" fill-opacity="1" /><path clip-path="url(#clip130)" d="M130.139 401.07 L135.023 401.07 L135.023 406.95 L130.139 406.95 L130.139 401.07 Z" fill="#000000" fill-rule="nonzero" fill-opacity="1" /><path clip-path="url(#clip130)" d="M145.255 372.39 L163.611 372.39 L163.611 376.325 L149.537 376.325 L149.537 384.797 Q150.556 384.45 151.574 384.288 Q152.593 384.103 153.611 384.103 Q159.398 384.103 162.778 387.274 Q166.158 390.445 166.158 395.862 Q166.158 401.44 162.685 404.542 Q159.213 407.621 152.894 407.621 Q150.718 407.621 148.449 407.251 Q146.204 406.88 143.797 406.14 L143.797 401.44 Q145.88 402.575 148.102 403.13 Q150.324 403.686 152.801 403.686 Q156.806 403.686 159.144 401.579 Q161.482 399.473 161.482 395.862 Q161.482 392.251 159.144 390.144 Q156.806 388.038 152.801 388.038 Q150.926 388.038 149.051 388.454 Q147.199 388.871 145.255 389.751 L145.255 372.39 Z" fill="#000000" fill-rule="nonzero" fill-opacity="1" /><path clip-path="url(#clip130)" d="M185.37 375.468 Q181.759 375.468 179.931 379.033 Q178.125 382.575 178.125 389.704 Q178.125 396.811 179.931 400.376 Q181.759 403.917 185.37 403.917 Q189.005 403.917 190.81 400.376 Q192.639 396.811 192.639 389.704 Q192.639 382.575 190.81 379.033 Q189.005 375.468 185.37 375.468 M185.37 371.765 Q191.181 371.765 194.236 376.371 Q197.315 380.954 197.315 389.704 Q197.315 398.431 194.236 403.038 Q191.181 407.621 185.37 407.621 Q179.56 407.621 176.482 403.038 Q173.426 398.431 173.426 389.704 Q173.426 380.954 176.482 376.371 Q179.56 371.765 185.37 371.765 Z" fill="#000000" fill-rule="nonzero" fill-opacity="1" /><path clip-path="url(#clip130)" d="M233.704 381.487 L223.125 392.112 L233.704 402.69 L230.949 405.491 L220.324 394.866 L209.699 405.491 L206.968 402.69 L217.523 392.112 L206.968 381.487 L209.699 378.686 L220.324 389.311 L230.949 378.686 L233.704 381.487 Z" fill="#000000" fill-rule="nonzero" fill-opacity="1" /><path clip-path="url(#clip130)" d="M246.065 403.015 L253.703 403.015 L253.703 376.649 L245.393 378.316 L245.393 374.056 L253.657 372.39 L258.333 372.39 L258.333 403.015 L265.972 403.015 L265.972 406.95 L246.065 406.95 L246.065 403.015 Z" fill="#000000" fill-rule="nonzero" fill-opacity="1" /><path clip-path="url(#clip130)" d="M285.416 375.468 Q281.805 375.468 279.976 379.033 Q278.171 382.575 278.171 389.704 Q278.171 396.811 279.976 400.376 Q281.805 403.917 285.416 403.917 Q289.05 403.917 290.856 400.376 Q292.685 396.811 292.685 389.704 Q292.685 382.575 290.856 379.033 Q289.05 375.468 285.416 375.468 M285.416 371.765 Q291.226 371.765 294.282 376.371 Q297.361 380.954 297.361 389.704 Q297.361 398.431 294.282 403.038 Q291.226 407.621 285.416 407.621 Q279.606 407.621 276.527 403.038 Q273.472 398.431 273.472 389.704 Q273.472 380.954 276.527 376.371 Q279.606 371.765 285.416 371.765 Z" fill="#000000" fill-rule="nonzero" fill-opacity="1" /><path clip-path="url(#clip130)" d="M299.166 378.956 L299.166 375.496 Q300.596 376.173 302.063 376.53 Q303.53 376.887 304.94 376.887 Q308.702 376.887 310.676 374.367 Q312.67 371.828 312.952 366.675 Q311.861 368.292 310.187 369.157 Q308.514 370.023 306.482 370.023 Q302.269 370.023 299.806 367.484 Q297.361 364.926 297.361 360.506 Q297.361 356.18 299.918 353.566 Q302.476 350.951 306.727 350.951 Q311.598 350.951 314.156 354.694 Q316.733 358.418 316.733 365.527 Q316.733 372.167 313.573 376.135 Q310.432 380.085 305.109 380.085 Q303.68 380.085 302.213 379.803 Q300.746 379.52 299.166 378.956 M306.727 367.051 Q309.285 367.051 310.771 365.302 Q312.275 363.553 312.275 360.506 Q312.275 357.478 310.771 355.729 Q309.285 353.961 306.727 353.961 Q304.169 353.961 302.664 355.729 Q301.179 357.478 301.179 360.506 Q301.179 363.553 302.664 365.302 Q304.169 367.051 306.727 367.051 Z" fill="#000000" fill-rule="nonzero" fill-opacity="1" /><path clip-path="url(#clip130)" d="M114.144 138.111 Q117.5 138.828 119.375 141.097 Q121.274 143.365 121.274 146.698 Q121.274 151.814 117.755 154.615 Q114.237 157.416 107.755 157.416 Q105.579 157.416 103.264 156.976 Q100.973 156.56 98.519 155.703 L98.519 151.189 Q100.463 152.323 102.778 152.902 Q105.093 153.481 107.616 153.481 Q112.014 153.481 114.306 151.745 Q116.621 150.009 116.621 146.698 Q116.621 143.643 114.468 141.93 Q112.338 140.194 108.519 140.194 L104.491 140.194 L104.491 136.351 L108.704 136.351 Q112.153 136.351 113.982 134.986 Q115.811 133.597 115.811 131.004 Q115.811 128.342 113.912 126.93 Q112.037 125.495 108.519 125.495 Q106.598 125.495 104.399 125.912 Q102.2 126.328 99.5607 127.208 L99.5607 123.041 Q102.223 122.3 104.538 121.93 Q106.875 121.56 108.936 121.56 Q114.26 121.56 117.362 123.99 Q120.463 126.398 120.463 130.518 Q120.463 133.388 118.82 135.379 Q117.176 137.347 114.144 138.111 Z" fill="#000000" fill-rule="nonzero" fill-opacity="1" /><path clip-path="url(#clip130)" d="M130.139 150.865 L135.023 150.865 L135.023 156.745 L130.139 156.745 L130.139 150.865 Z" fill="#000000" fill-rule="nonzero" fill-opacity="1" /><path clip-path="url(#clip130)" d="M155.209 125.263 Q151.597 125.263 149.769 128.828 Q147.963 132.37 147.963 139.499 Q147.963 146.606 149.769 150.171 Q151.597 153.712 155.209 153.712 Q158.843 153.712 160.648 150.171 Q162.477 146.606 162.477 139.499 Q162.477 132.37 160.648 128.828 Q158.843 125.263 155.209 125.263 M155.209 121.56 Q161.019 121.56 164.074 126.166 Q167.153 130.749 167.153 139.499 Q167.153 148.226 164.074 152.833 Q161.019 157.416 155.209 157.416 Q149.398 157.416 146.32 152.833 Q143.264 148.226 143.264 139.499 Q143.264 130.749 146.32 126.166 Q149.398 121.56 155.209 121.56 Z" fill="#000000" fill-rule="nonzero" fill-opacity="1" /><path clip-path="url(#clip130)" d="M185.37 125.263 Q181.759 125.263 179.931 128.828 Q178.125 132.37 178.125 139.499 Q178.125 146.606 179.931 150.171 Q181.759 153.712 185.37 153.712 Q189.005 153.712 190.81 150.171 Q192.639 146.606 192.639 139.499 Q192.639 132.37 190.81 128.828 Q189.005 125.263 185.37 125.263 M185.37 121.56 Q191.181 121.56 194.236 126.166 Q197.315 130.749 197.315 139.499 Q197.315 148.226 194.236 152.833 Q191.181 157.416 185.37 157.416 Q179.56 157.416 176.482 152.833 Q173.426 148.226 173.426 139.499 Q173.426 130.749 176.482 126.166 Q179.56 121.56 185.37 121.56 Z" fill="#000000" fill-rule="nonzero" fill-opacity="1" /><path clip-path="url(#clip130)" d="M233.704 131.282 L223.125 141.907 L233.704 152.485 L230.949 155.286 L220.324 144.661 L209.699 155.286 L206.968 152.485 L217.523 141.907 L206.968 131.282 L209.699 128.481 L220.324 139.106 L230.949 128.481 L233.704 131.282 Z" fill="#000000" fill-rule="nonzero" fill-opacity="1" /><path clip-path="url(#clip130)" d="M246.065 152.81 L253.703 152.81 L253.703 126.444 L245.393 128.111 L245.393 123.851 L253.657 122.185 L258.333 122.185 L258.333 152.81 L265.972 152.81 L265.972 156.745 L246.065 156.745 L246.065 152.81 Z" fill="#000000" fill-rule="nonzero" fill-opacity="1" /><path clip-path="url(#clip130)" d="M285.416 125.263 Q281.805 125.263 279.976 128.828 Q278.171 132.37 278.171 139.499 Q278.171 146.606 279.976 150.171 Q281.805 153.712 285.416 153.712 Q289.05 153.712 290.856 150.171 Q292.685 146.606 292.685 139.499 Q292.685 132.37 290.856 128.828 Q289.05 125.263 285.416 125.263 M285.416 121.56 Q291.226 121.56 294.282 126.166 Q297.361 130.749 297.361 139.499 Q297.361 148.226 294.282 152.833 Q291.226 157.416 285.416 157.416 Q279.606 157.416 276.527 152.833 Q273.472 148.226 273.472 139.499 Q273.472 130.749 276.527 126.166 Q279.606 121.56 285.416 121.56 Z" fill="#000000" fill-rule="nonzero" fill-opacity="1" /><path clip-path="url(#clip130)" d="M299.166 128.751 L299.166 125.291 Q300.596 125.968 302.063 126.325 Q303.53 126.682 304.94 126.682 Q308.702 126.682 310.676 124.162 Q312.67 121.623 312.952 116.47 Q311.861 118.087 310.187 118.952 Q308.514 119.818 306.482 119.818 Q302.269 119.818 299.806 117.279 Q297.361 114.721 297.361 110.301 Q297.361 105.975 299.918 103.361 Q302.476 100.747 306.727 100.747 Q311.598 100.747 314.156 104.489 Q316.733 108.213 316.733 115.323 Q316.733 121.962 313.573 125.93 Q310.432 129.88 305.109 129.88 Q303.68 129.88 302.213 129.598 Q300.746 129.316 299.166 128.751 M306.727 116.846 Q309.285 116.846 310.771 115.097 Q312.275 113.348 312.275 110.301 Q312.275 107.273 310.771 105.524 Q309.285 103.756 306.727 103.756 Q304.169 103.756 302.664 105.524 Q301.179 107.273 301.179 110.301 Q301.179 113.348 302.664 115.097 Q304.169 116.846 306.727 116.846 Z" fill="#000000" fill-rule="nonzero" fill-opacity="1" /><path clip-path="url(#clip130)" d="M-9.64527 840.632 L0.4762 840.632 L0.4762 828.569 L5.02768 828.569 L5.02768 840.632 L24.3794 840.632 Q28.7399 840.632 29.9813 839.454 Q31.2226 838.245 31.2226 834.584 L31.2226 828.569 L36.1242 828.569 L36.1242 834.584 Q36.1242 841.364 33.6097 843.942 Q31.0634 846.52 24.3794 846.52 L5.02768 846.52 L5.02768 850.817 L0.4762 850.817 L0.4762 846.52 L-9.64527 846.52 L-9.64527 840.632 Z" fill="#000000" fill-rule="nonzero" fill-opacity="1" /><path clip-path="url(#clip130)" d="M-11.3958 789.738 L-11.3958 784.327 L42.1716 800.878 L42.1716 806.289 L-11.3958 789.738 Z" fill="#000000" fill-rule="nonzero" fill-opacity="1" /><path clip-path="url(#clip130)" d="M14.6081 727.831 L36.1242 727.831 L36.1242 733.688 L14.799 733.688 Q9.7383 733.688 7.22385 735.661 Q4.7094 737.635 4.7094 741.581 Q4.7094 746.324 7.73311 749.061 Q10.7568 751.798 15.9767 751.798 L36.1242 751.798 L36.1242 757.687 L0.4762 757.687 L0.4762 751.798 L6.01437 751.798 Q2.79968 749.698 1.20826 746.865 Q-0.38317 744 -0.38317 740.276 Q-0.38317 734.133 3.43625 730.982 Q7.22385 727.831 14.6081 727.831 Z" fill="#000000" fill-rule="nonzero" fill-opacity="1" /><path clip-path="url(#clip130)" d="M1.52654 693.425 L7.06471 693.425 Q5.79157 695.907 5.15499 698.581 Q4.51842 701.255 4.51842 704.119 Q4.51842 708.48 5.85522 710.676 Q7.19202 712.84 9.86562 712.84 Q11.9026 712.84 13.0803 711.281 Q14.2261 709.721 15.2765 705.01 L15.7221 703.005 Q17.0589 696.767 19.5097 694.157 Q21.9286 691.515 26.2891 691.515 Q31.2544 691.515 34.1508 695.462 Q37.0472 699.377 37.0472 706.252 Q37.0472 709.116 36.4743 712.235 Q35.9332 715.323 34.8192 718.76 L28.7718 718.76 Q30.4587 715.514 31.318 712.363 Q32.1456 709.212 32.1456 706.124 Q32.1456 701.987 30.7451 699.759 Q29.3129 697.531 26.7347 697.531 Q24.3476 697.531 23.0745 699.154 Q21.8013 700.745 20.6237 706.188 L20.1462 708.225 Q19.0004 713.668 16.6451 716.087 Q14.258 718.506 10.1202 718.506 Q5.09134 718.506 2.35408 714.941 Q-0.38317 711.376 -0.38317 704.819 Q-0.38317 701.573 0.0942579 698.708 Q0.571686 695.844 1.52654 693.425 Z" fill="#000000" fill-rule="nonzero" fill-opacity="1" /><path clip-path="url(#clip131)" d="M888.083 1454.11 L891.545 1454.07 L894.837 1454.03 L897.978 1454 L900.987 1453.96 L903.886 1453.92 L906.7 1453.88 L909.456 1453.84 L912.178 1453.8 L914.895 1453.77 L917.63 1453.73 L920.408 1453.69 L923.25 1453.65 L926.175 1453.61 L929.196 1453.57 L932.327 1453.54 L935.574 1453.5 L938.94 1453.46 L942.425 1453.42 L946.023 1453.38 L949.726 1453.34 L953.521 1453.31 L957.391 1453.27 L961.32 1453.23 L965.286 1453.19 L969.267 1453.15 L973.24 1453.11 L977.182 1453.08 L981.069 1453.04 L984.879 1453 L988.591 1452.96 L992.185 1452.92 L995.644 1452.89 L998.953 1452.85 L1002.1 1452.81 L1005.07 1452.77 L1007.86 1452.73 L1010.47 1452.69 L1012.89 1452.66 L1015.12 1452.62 L1017.17 1452.58 L1019.03 1452.54 L1020.7 1452.5 L1022.2 1452.46 L1023.53 1452.43 L1024.69 1452.39 L1025.68 1452.35 L1026.5 1452.31 L1027.16 1452.27 L1027.66 1452.23 L1027.98 1452.2 L1028.13 1452.16 L1028.09 1452.12 L1027.87 1452.08 L1027.43 1452.04 L1026.77 1452 L1025.88 1451.97 L1024.74 1451.93 L1023.32 1451.89 L1021.61 1451.85 L1019.59 1451.81 L1017.24 1451.77 L1014.55 1451.74 L1011.5 1451.7 L1008.07 1451.66 L1004.26 1451.62 L1000.05 1451.58 L995.447 1451.54 L990.44 1451.51 L985.036 1451.47 L979.242 1451.43 L973.07 1451.39 L966.535 1451.35 L959.658 1451.31 L512.112 1451.31 L505.234 1451.35 L498.699 1451.39 L492.527 1451.43 L486.733 1451.47 L481.329 1451.51 L476.322 1451.54 L471.716 1451.58 L467.508 1451.62 L463.695 1451.66 L460.268 1451.7 L457.216 1451.74 L454.524 1451.77 L452.178 1451.81 L450.16 1451.85 L448.452 1451.89 L447.034 1451.93 L445.888 1451.97 L444.995 1452 L444.339 1452.04 L443.904 1452.08 L443.674 1452.12 L443.639 1452.16 L443.787 1452.2 L444.111 1452.23 L444.605 1452.27 L445.266 1452.31 L446.091 1452.35 L447.081 1452.39 L448.238 1452.43 L449.565 1452.46 L451.065 1452.5 L452.743 1452.54 L454.602 1452.58 L456.646 1452.62 L458.877 1452.66 L461.297 1452.69 L463.904 1452.73 L466.697 1452.77 L469.67 1452.81 L472.816 1452.85 L476.125 1452.89 L479.584 1452.92 L483.178 1452.96 L486.89 1453 L490.7 1453.04 L494.587 1453.08 L498.529 1453.11 L502.502 1453.15 L506.483 1453.19 L510.449 1453.23 L514.378 1453.27 L518.248 1453.31 L522.043 1453.34 L525.746 1453.38 L529.344 1453.42 L532.829 1453.46 L536.195 1453.5 L539.442 1453.54 L542.573 1453.57 L545.595 1453.61 L548.519 1453.65 L551.361 1453.69 L554.139 1453.73 L556.874 1453.77 L559.591 1453.8 L562.313 1453.84 L565.069 1453.88 L567.883 1453.92 L570.782 1453.96 L573.791 1454 L576.932 1454.03 L580.224 1454.07 L583.686 1454.11 L888.083 1454.11  Z" fill="#009af9" fill-rule="evenodd" fill-opacity="1"/>
<polyline clip-path="url(#clip131)" style="stroke:#000000; stroke-linecap:round; stroke-linejoin:round; stroke-width:4; stroke-opacity:1; fill:none" points="888.083,1454.11 891.545,1454.07 894.837,1454.03 897.978,1454 900.987,1453.96 903.886,1453.92 906.7,1453.88 909.456,1453.84 912.178,1453.8 914.895,1453.77 917.63,1453.73 920.408,1453.69 923.25,1453.65 926.175,1453.61 929.196,1453.57 932.327,1453.54 935.574,1453.5 938.94,1453.46 942.425,1453.42 946.023,1453.38 949.726,1453.34 953.521,1453.31 957.391,1453.27 961.32,1453.23 965.286,1453.19 969.267,1453.15 973.24,1453.11 977.182,1453.08 981.069,1453.04 984.879,1453 988.591,1452.96 992.185,1452.92 995.644,1452.89 998.953,1452.85 1002.1,1452.81 1005.07,1452.77 1007.86,1452.73 1010.47,1452.69 1012.89,1452.66 1015.12,1452.62 1017.17,1452.58 1019.03,1452.54 1020.7,1452.5 1022.2,1452.46 1023.53,1452.43 1024.69,1452.39 1025.68,1452.35 1026.5,1452.31 1027.16,1452.27 1027.66,1452.23 1027.98,1452.2 1028.13,1452.16 1028.09,1452.12 1027.87,1452.08 1027.43,1452.04 1026.77,1452 1025.88,1451.97 1024.74,1451.93 1023.32,1451.89 1021.61,1451.85 1019.59,1451.81 1017.24,1451.77 1014.55,1451.74 1011.5,1451.7 1008.07,1451.66 1004.26,1451.62 1000.05,1451.58 995.447,1451.54 990.44,1451.51 985.036,1451.47 979.242,1451.43 973.07,1451.39 966.535,1451.35 959.658,1451.31 512.112,1451.31 505.234,1451.35 498.699,1451.39 492.527,1451.43 486.733,1451.47 481.329,1451.51 476.322,1451.54 471.716,1451.58 467.508,1451.62 463.695,1451.66 460.268,1451.7 457.216,1451.74 454.524,1451.77 452.178,1451.81 450.16,1451.85 448.452,1451.89 447.034,1451.93 445.888,1451.97 444.995,1452 444.339,1452.04 443.904,1452.08 443.674,1452.12 443.639,1452.16 443.787,1452.2 444.111,1452.23 444.605,1452.27 445.266,1452.31 446.091,1452.35 447.081,1452.39 448.238,1452.43 449.565,1452.46 451.065,1452.5 452.743,1452.54 454.602,1452.58 456.646,1452.62 458.877,1452.66 461.297,1452.69 463.904,1452.73 466.697,1452.77 469.67,1452.81 472.816,1452.85 476.125,1452.89 479.584,1452.92 483.178,1452.96 486.89,1453 490.7,1453.04 494.587,1453.08 498.529,1453.11 502.502,1453.15 506.483,1453.19 510.449,1453.23 514.378,1453.27 518.248,1453.31 522.043,1453.34 525.746,1453.38 529.344,1453.42 532.829,1453.46 536.195,1453.5 539.442,1453.54 542.573,1453.57 545.595,1453.61 548.519,1453.65 551.361,1453.69 554.139,1453.73 556.874,1453.77 559.591,1453.8 562.313,1453.84 565.069,1453.88 567.883,1453.92 570.782,1453.96 573.791,1454 576.932,1454.03 580.224,1454.07 583.686,1454.11 888.083,1454.11 "/>
<path clip-path="url(#clip131)" d="M2025.15 400.269 L2031.65 399.622 L2037.05 398.976 L2041.41 398.329 L2044.8 397.683 L2047.33 397.036 L2049.1 396.39 L2050.23 395.743 L2050.83 395.097 L2050.99 394.45 L2050.78 393.804 L2050.25 393.157 L2049.43 392.511 L2048.3 391.864 L2046.83 391.218 L2044.96 390.571 L2042.62 389.924 L2039.72 389.278 L2036.15 388.631 L2031.83 387.985 L2026.67 387.338 L2020.59 386.692 L2013.57 386.045 L2005.57 385.399 L1996.6 384.752 L1986.72 384.106 L1975.98 383.459 L1964.5 382.813 L1952.39 382.166 L1939.8 381.52 L1926.89 380.873 L1913.81 380.226 L1900.74 379.58 L1887.83 378.933 L1875.23 378.287 L1863.09 377.64 L1851.5 376.994 L1840.58 376.347 L1830.39 375.701 L1820.98 375.054 L1812.39 374.408 L1804.63 373.761 L1797.68 373.115 L1791.52 372.468 L1786.12 371.821 L1781.43 371.175 L1777.39 370.528 L1773.95 369.882 L1771.05 369.235 L1768.62 368.589 L1766.61 367.942 L1764.95 367.296 L1763.61 366.649 L1762.52 366.003 L1761.66 365.356 L1760.97 364.71 L1760.43 364.063 L1760.02 363.417 L1759.69 362.77 L1759.45 362.123 L1759.26 361.477 L1759.12 360.83 L1759.02 360.184 L1758.95 359.537 L1758.89 358.891 L1758.86 358.244 L1758.83 357.598 L1758.82 356.951 L1758.82 356.305 L1758.83 355.658 L1758.85 355.012 L1758.88 354.365 L1758.93 353.719 L1758.99 353.072 L1759.09 352.425 L1759.21 351.779 L1759.37 351.132 L1759.58 350.486 L1759.85 349.839 L1760.19 349.193 L1760.64 348.546 L1761.19 347.9 L1761.89 347.253 L1762.74 346.607 L1763.79 345.96 L1765.06 345.314 L1766.58 344.667 L1768.39 344.021 L1770.52 343.374 L1773 342.727 L1775.85 342.081 L1779.1 341.434 L1782.77 340.788 L1786.87 340.141 L1791.39 339.495 L1796.32 338.848 L1801.63 338.202 L1807.29 337.555 L1813.24 336.909 L1819.41 336.262 L1825.71 335.616 L1832.05 334.969 L1838.32 334.323 L1844.41 333.676 L1850.19 333.029 L1855.56 332.383 L1860.38 331.736 L1864.56 331.09 L1867.98 330.443 L1870.58 329.797 L1872.29 329.15 L1873.06 328.504 L1644.43 328.504 L1645.2 329.15 L1646.91 329.797 L1649.51 330.443 L1652.93 331.09 L1657.11 331.736 L1661.93 332.383 L1667.29 333.029 L1673.08 333.676 L1679.17 334.323 L1685.44 334.969 L1691.78 335.616 L1698.08 336.262 L1704.25 336.909 L1710.19 337.555 L1715.85 338.202 L1721.17 338.848 L1726.1 339.495 L1730.62 340.141 L1734.72 340.788 L1738.39 341.434 L1741.64 342.081 L1744.49 342.727 L1746.97 343.374 L1749.1 344.021 L1750.91 344.667 L1752.43 345.314 L1753.7 345.96 L1754.75 346.607 L1755.6 347.253 L1756.3 347.9 L1756.85 348.546 L1757.29 349.193 L1757.64 349.839 L1757.91 350.486 L1758.12 351.132 L1758.28 351.779 L1758.4 352.425 L1758.49 353.072 L1758.56 353.719 L1758.61 354.365 L1758.64 355.012 L1758.66 355.658 L1758.67 356.305 L1758.67 356.951 L1758.65 357.598 L1758.63 358.244 L1758.6 358.891 L1758.54 359.537 L1758.47 360.184 L1758.37 360.83 L1758.23 361.477 L1758.04 362.123 L1757.79 362.77 L1757.47 363.417 L1757.05 364.063 L1756.52 364.71 L1755.83 365.356 L1754.96 366.003 L1753.88 366.649 L1752.54 367.296 L1750.88 367.942 L1748.87 368.589 L1746.44 369.235 L1743.54 369.882 L1740.1 370.528 L1736.06 371.175 L1731.37 371.821 L1725.97 372.468 L1719.81 373.115 L1712.86 373.761 L1705.1 374.408 L1696.51 375.054 L1687.1 375.701 L1676.91 376.347 L1665.99 376.994 L1654.4 377.64 L1642.25 378.287 L1629.66 378.933 L1616.75 379.58 L1603.68 380.226 L1590.6 380.873 L1577.69 381.52 L1565.1 382.166 L1552.99 382.813 L1541.51 383.459 L1530.77 384.106 L1520.89 384.752 L1511.92 385.399 L1503.92 386.045 L1496.89 386.692 L1490.82 387.338 L1485.66 387.985 L1481.34 388.631 L1477.77 389.278 L1474.86 389.924 L1472.52 390.571 L1470.66 391.218 L1469.19 391.864 L1468.06 392.511 L1467.24 393.157 L1466.71 393.804 L1466.5 394.45 L1466.66 395.097 L1467.26 395.743 L1468.39 396.39 L1470.16 397.036 L1472.69 397.683 L1476.08 398.329 L1480.44 398.976 L1485.84 399.622 L1492.34 400.269 L2025.15 400.269  Z" fill="#e26f46" fill-rule="evenodd" fill-opacity="1"/>
<polyline clip-path="url(#clip131)" style="stroke:#000000; stroke-linecap:round; stroke-linejoin:round; stroke-width:4; stroke-opacity:1; fill:none" points="2025.15,400.269 2031.65,399.622 2037.05,398.976 2041.41,398.329 2044.8,397.683 2047.33,397.036 2049.1,396.39 2050.23,395.743 2050.83,395.097 2050.99,394.45 2050.78,393.804 2050.25,393.157 2049.43,392.511 2048.3,391.864 2046.83,391.218 2044.96,390.571 2042.62,389.924 2039.72,389.278 2036.15,388.631 2031.83,387.985 2026.67,387.338 2020.59,386.692 2013.57,386.045 2005.57,385.399 1996.6,384.752 1986.72,384.106 1975.98,383.459 1964.5,382.813 1952.39,382.166 1939.8,381.52 1926.89,380.873 1913.81,380.226 1900.74,379.58 1887.83,378.933 1875.23,378.287 1863.09,377.64 1851.5,376.994 1840.58,376.347 1830.39,375.701 1820.98,375.054 1812.39,374.408 1804.63,373.761 1797.68,373.115 1791.52,372.468 1786.12,371.821 1781.43,371.175 1777.39,370.528 1773.95,369.882 1771.05,369.235 1768.62,368.589 1766.61,367.942 1764.95,367.296 1763.61,366.649 1762.52,366.003 1761.66,365.356 1760.97,364.71 1760.43,364.063 1760.02,363.417 1759.69,362.77 1759.45,362.123 1759.26,361.477 1759.12,360.83 1759.02,360.184 1758.95,359.537 1758.89,358.891 1758.86,358.244 1758.83,357.598 1758.82,356.951 1758.82,356.305 1758.83,355.658 1758.85,355.012 1758.88,354.365 1758.93,353.719 1758.99,353.072 1759.09,352.425 1759.21,351.779 1759.37,351.132 1759.58,350.486 1759.85,349.839 1760.19,349.193 1760.64,348.546 1761.19,347.9 1761.89,347.253 1762.74,346.607 1763.79,345.96 1765.06,345.314 1766.58,344.667 1768.39,344.021 1770.52,343.374 1773,342.727 1775.85,342.081 1779.1,341.434 1782.77,340.788 1786.87,340.141 1791.39,339.495 1796.32,338.848 1801.63,338.202 1807.29,337.555 1813.24,336.909 1819.41,336.262 1825.71,335.616 1832.05,334.969 1838.32,334.323 1844.41,333.676 1850.19,333.029 1855.56,332.383 1860.38,331.736 1864.56,331.09 1867.98,330.443 1870.58,329.797 1872.29,329.15 1873.06,328.504 1644.43,328.504 1645.2,329.15 1646.91,329.797 1649.51,330.443 1652.93,331.09 1657.11,331.736 1661.93,332.383 1667.29,333.029 1673.08,333.676 1679.17,334.323 1685.44,334.969 1691.78,335.616 1698.08,336.262 1704.25,336.909 1710.19,337.555 1715.85,338.202 1721.17,338.848 1726.1,339.495 1730.62,340.141 1734.72,340.788 1738.39,341.434 1741.64,342.081 1744.49,342.727 1746.97,343.374 1749.1,344.021 1750.91,344.667 1752.43,345.314 1753.7,345.96 1754.75,346.607 1755.6,347.253 1756.3,347.9 1756.85,348.546 1757.29,349.193 1757.64,349.839 1757.91,350.486 1758.12,351.132 1758.28,351.779 1758.4,352.425 1758.49,353.072 1758.56,353.719 1758.61,354.365 1758.64,355.012 1758.66,355.658 1758.67,356.305 1758.67,356.951 1758.65,357.598 1758.63,358.244 1758.6,358.891 1758.54,359.537 1758.47,360.184 1758.37,360.83 1758.23,361.477 1758.04,362.123 1757.79,362.77 1757.47,363.417 1757.05,364.063 1756.52,364.71 1755.83,365.356 1754.96,366.003 1753.88,366.649 1752.54,367.296 1750.88,367.942 1748.87,368.589 1746.44,369.235 1743.54,369.882 1740.1,370.528 1736.06,371.175 1731.37,371.821 1725.97,372.468 1719.81,373.115 1712.86,373.761 1705.1,374.408 1696.51,375.054 1687.1,375.701 1676.91,376.347 1665.99,376.994 1654.4,377.64 1642.25,378.287 1629.66,378.933 1616.75,379.58 1603.68,380.226 1590.6,380.873 1577.69,381.52 1565.1,382.166 1552.99,382.813 1541.51,383.459 1530.77,384.106 1520.89,384.752 1511.92,385.399 1503.92,386.045 1496.89,386.692 1490.82,387.338 1485.66,387.985 1481.34,388.631 1477.77,389.278 1474.86,389.924 1472.52,390.571 1470.66,391.218 1469.19,391.864 1468.06,392.511 1467.24,393.157 1466.71,393.804 1466.5,394.45 1466.66,395.097 1467.26,395.743 1468.39,396.39 1470.16,397.036 1472.69,397.683 1476.08,398.329 1480.44,398.976 1485.84,399.622 1492.34,400.269 2025.15,400.269 "/>
<path clip-path="url(#clip131)" d="M3054.95 114.287 L3063.06 114.102 L3068.24 113.917 L3070.93 113.732 L3071.71 113.547 L3071.26 113.362 L3070.27 113.177 L3069.37 112.993 L3068.99 112.808 L3069.35 112.623 L3070.41 112.438 L3071.88 112.253 L3073.24 112.068 L3073.85 111.883 L3072.98 111.699 L3069.96 111.514 L3064.22 111.329 L3055.38 111.144 L3043.33 110.959 L3028.17 110.774 L3010.29 110.589 L2990.22 110.405 L2968.68 110.22 L2946.42 110.035 L2924.22 109.85 L2902.77 109.665 L2882.65 109.48 L2864.32 109.295 L2848.04 109.11 L2833.97 108.926 L2822.11 108.741 L2812.34 108.556 L2804.48 108.371 L2798.32 108.186 L2793.58 108.001 L2790.02 107.816 L2787.41 107.632 L2785.53 107.447 L2784.21 107.262 L2783.3 107.077 L2782.69 106.892 L2782.28 106.707 L2782.02 106.522 L2781.86 106.338 L2781.75 106.153 L2781.69 105.968 L2781.65 105.783 L2781.63 105.598 L2781.62 105.413 L2781.61 105.228 L2781.61 105.043 L2781.61 104.859 L2781.61 104.674 L2781.6 104.489 L2781.6 104.304 L2781.6 104.119 L2781.6 103.934 L2781.6 103.749 L2781.6 103.565 L2781.6 103.38 L2781.6 103.195 L2781.6 103.01 L2781.6 102.825 L2781.6 102.64 L2781.6 102.455 L2781.6 102.27 L2781.6 102.086 L2781.6 101.901 L2781.6 101.716 L2781.6 101.531 L2781.6 101.346 L2781.6 101.161 L2781.6 100.976 L2781.6 100.792 L2781.6 100.607 L2781.6 100.422 L2781.6 100.237 L2781.6 100.052 L2781.6 99.8673 L2781.6 99.6824 L2781.6 99.4975 L2781.6 99.3127 L2781.6 99.1278 L2781.6 98.9429 L2781.6 98.7581 L2781.6 98.5732 L2781.6 98.3883 L2781.6 98.2035 L2781.6 98.0186 L2781.6 97.8337 L2781.6 97.6489 L2781.6 97.464 L2781.6 97.2792 L2781.6 97.0943 L2781.6 96.9094 L2781.6 96.7246 L2781.6 96.5397 L2781.6 96.3548 L2781.6 96.17 L2781.6 95.9851 L2781.6 95.8002 L2781.6 95.6154 L2781.6 95.4305 L2781.6 95.2456 L2781.6 95.0608 L2781.6 94.8759 L2781.6 94.6911 L2781.61 94.5062 L2781.61 94.3213 L2781.61 94.1365 L2781.62 93.9516 L2781.62 93.7667 L2781.64 93.5819 L2781.67 93.397 L2781.71 93.2121 L2781.78 93.0273 L2781.9 92.8424 L2782.07 92.6575 L2782.34 92.4727 L2782.75 92.2878 L2783.33 92.103 L2784.18 91.9181 L2785.36 91.7332 L2786.98 91.5484 L2789.15 91.3635 L2791.99 91.1786 L2795.64 90.9938 L2800.2 90.8089 L2805.78 90.624 L2812.43 90.4392 L2820.17 90.2543 L2828.94 90.0694 L2838.59 89.8846 L2848.9 89.6997 L2859.57 89.5149 L2870.22 89.33 L2880.4 89.1451 L2889.66 88.9603 L2897.54 88.7754 L2903.62 88.5905 L2907.59 88.4057 L2909.21 88.2208 L2654 88.2208 L2655.62 88.4057 L2659.58 88.5905 L2665.67 88.7754 L2673.55 88.9603 L2682.81 89.1451 L2692.99 89.33 L2703.63 89.5149 L2714.3 89.6997 L2724.62 89.8846 L2734.27 90.0694 L2743.03 90.2543 L2750.77 90.4392 L2757.43 90.624 L2763.01 90.8089 L2767.57 90.9938 L2771.22 91.1786 L2774.06 91.3635 L2776.23 91.5484 L2777.85 91.7332 L2779.03 91.9181 L2779.87 92.103 L2780.46 92.2878 L2780.87 92.4727 L2781.13 92.6575 L2781.31 92.8424 L2781.43 93.0273 L2781.5 93.2121 L2781.54 93.397 L2781.57 93.5819 L2781.58 93.7667 L2781.59 93.9516 L2781.6 94.1365 L2781.6 94.3213 L2781.6 94.5062 L2781.6 94.6911 L2781.6 94.8759 L2781.6 95.0608 L2781.6 95.2456 L2781.6 95.4305 L2781.6 95.6154 L2781.6 95.8002 L2781.6 95.9851 L2781.6 96.17 L2781.6 96.3548 L2781.6 96.5397 L2781.6 96.7246 L2781.6 96.9094 L2781.6 97.0943 L2781.6 97.2792 L2781.6 97.464 L2781.6 97.6489 L2781.6 97.8337 L2781.6 98.0186 L2781.6 98.2035 L2781.6 98.3883 L2781.6 98.5732 L2781.6 98.7581 L2781.6 98.9429 L2781.6 99.1278 L2781.6 99.3127 L2781.6 99.4975 L2781.6 99.6824 L2781.6 99.8673 L2781.6 100.052 L2781.6 100.237 L2781.6 100.422 L2781.6 100.607 L2781.6 100.792 L2781.6 100.976 L2781.6 101.161 L2781.6 101.346 L2781.6 101.531 L2781.6 101.716 L2781.6 101.901 L2781.6 102.086 L2781.6 102.27 L2781.6 102.455 L2781.6 102.64 L2781.6 102.825 L2781.6 103.01 L2781.6 103.195 L2781.6 103.38 L2781.6 103.565 L2781.6 103.749 L2781.6 103.934 L2781.6 104.119 L2781.6 104.304 L2781.6 104.489 L2781.6 104.674 L2781.6 104.859 L2781.6 105.043 L2781.6 105.228 L2781.59 105.413 L2781.58 105.598 L2781.55 105.783 L2781.52 105.968 L2781.45 106.153 L2781.35 106.338 L2781.19 106.522 L2780.92 106.707 L2780.52 106.892 L2779.91 107.077 L2779 107.262 L2777.68 107.447 L2775.8 107.632 L2773.19 107.816 L2769.63 108.001 L2764.89 108.186 L2758.72 108.371 L2750.87 108.556 L2741.1 108.741 L2729.23 108.926 L2715.16 109.11 L2698.89 109.295 L2680.55 109.48 L2660.44 109.665 L2638.99 109.85 L2616.78 110.035 L2594.53 110.22 L2572.99 110.405 L2552.92 110.589 L2535.03 110.774 L2519.88 110.959 L2507.83 111.144 L2498.99 111.329 L2493.25 111.514 L2490.22 111.699 L2489.36 111.883 L2489.97 112.068 L2491.33 112.253 L2492.8 112.438 L2493.86 112.623 L2494.22 112.808 L2493.84 112.993 L2492.93 113.177 L2491.95 113.362 L2491.5 113.547 L2492.28 113.732 L2494.96 113.917 L2500.15 114.102 L2508.25 114.287 L3054.95 114.287  Z" fill="#3da44d" fill-rule="evenodd" fill-opacity="1"/>
<polyline clip-path="url(#clip131)" style="stroke:#000000; stroke-linecap:round; stroke-linejoin:round; stroke-width:4; stroke-opacity:1; fill:none" points="3054.95,114.287 3063.06,114.102 3068.24,113.917 3070.93,113.732 3071.71,113.547 3071.26,113.362 3070.27,113.177 3069.37,112.993 3068.99,112.808 3069.35,112.623 3070.41,112.438 3071.88,112.253 3073.24,112.068 3073.85,111.883 3072.98,111.699 3069.96,111.514 3064.22,111.329 3055.38,111.144 3043.33,110.959 3028.17,110.774 3010.29,110.589 2990.22,110.405 2968.68,110.22 2946.42,110.035 2924.22,109.85 2902.77,109.665 2882.65,109.48 2864.32,109.295 2848.04,109.11 2833.97,108.926 2822.11,108.741 2812.34,108.556 2804.48,108.371 2798.32,108.186 2793.58,108.001 2790.02,107.816 2787.41,107.632 2785.53,107.447 2784.21,107.262 2783.3,107.077 2782.69,106.892 2782.28,106.707 2782.02,106.522 2781.86,106.338 2781.75,106.153 2781.69,105.968 2781.65,105.783 2781.63,105.598 2781.62,105.413 2781.61,105.228 2781.61,105.043 2781.61,104.859 2781.61,104.674 2781.6,104.489 2781.6,104.304 2781.6,104.119 2781.6,103.934 2781.6,103.749 2781.6,103.565 2781.6,103.38 2781.6,103.195 2781.6,103.01 2781.6,102.825 2781.6,102.64 2781.6,102.455 2781.6,102.27 2781.6,102.086 2781.6,101.901 2781.6,101.716 2781.6,101.531 2781.6,101.346 2781.6,101.161 2781.6,100.976 2781.6,100.792 2781.6,100.607 2781.6,100.422 2781.6,100.237 2781.6,100.052 2781.6,99.8673 2781.6,99.6824 2781.6,99.4975 2781.6,99.3127 2781.6,99.1278 2781.6,98.9429 2781.6,98.7581 2781.6,98.5732 2781.6,98.3883 2781.6,98.2035 2781.6,98.0186 2781.6,97.8337 2781.6,97.6489 2781.6,97.464 2781.6,97.2792 2781.6,97.0943 2781.6,96.9094 2781.6,96.7246 2781.6,96.5397 2781.6,96.3548 2781.6,96.17 2781.6,95.9851 2781.6,95.8002 2781.6,95.6154 2781.6,95.4305 2781.6,95.2456 2781.6,95.0608 2781.6,94.8759 2781.6,94.6911 2781.61,94.5062 2781.61,94.3213 2781.61,94.1365 2781.62,93.9516 2781.62,93.7667 2781.64,93.5819 2781.67,93.397 2781.71,93.2121 2781.78,93.0273 2781.9,92.8424 2782.07,92.6575 2782.34,92.4727 2782.75,92.2878 2783.33,92.103 2784.18,91.9181 2785.36,91.7332 2786.98,91.5484 2789.15,91.3635 2791.99,91.1786 2795.64,90.9938 2800.2,90.8089 2805.78,90.624 2812.43,90.4392 2820.17,90.2543 2828.94,90.0694 2838.59,89.8846 2848.9,89.6997 2859.57,89.5149 2870.22,89.33 2880.4,89.1451 2889.66,88.9603 2897.54,88.7754 2903.62,88.5905 2907.59,88.4057 2909.21,88.2208 2654,88.2208 2655.62,88.4057 2659.58,88.5905 2665.67,88.7754 2673.55,88.9603 2682.81,89.1451 2692.99,89.33 2703.63,89.5149 2714.3,89.6997 2724.62,89.8846 2734.27,90.0694 2743.03,90.2543 2750.77,90.4392 2757.43,90.624 2763.01,90.8089 2767.57,90.9938 2771.22,91.1786 2774.06,91.3635 2776.23,91.5484 2777.85,91.7332 2779.03,91.9181 2779.87,92.103 2780.46,92.2878 2780.87,92.4727 2781.13,92.6575 2781.31,92.8424 2781.43,93.0273 2781.5,93.2121 2781.54,93.397 2781.57,93.5819 2781.58,93.7667 2781.59,93.9516 2781.6,94.1365 2781.6,94.3213 2781.6,94.5062 2781.6,94.6911 2781.6,94.8759 2781.6,95.0608 2781.6,95.2456 2781.6,95.4305 2781.6,95.6154 2781.6,95.8002 2781.6,95.9851 2781.6,96.17 2781.6,96.3548 2781.6,96.5397 2781.6,96.7246 2781.6,96.9094 2781.6,97.0943 2781.6,97.2792 2781.6,97.464 2781.6,97.6489 2781.6,97.8337 2781.6,98.0186 2781.6,98.2035 2781.6,98.3883 2781.6,98.5732 2781.6,98.7581 2781.6,98.9429 2781.6,99.1278 2781.6,99.3127 2781.6,99.4975 2781.6,99.6824 2781.6,99.8673 2781.6,100.052 2781.6,100.237 2781.6,100.422 2781.6,100.607 2781.6,100.792 2781.6,100.976 2781.6,101.161 2781.6,101.346 2781.6,101.531 2781.6,101.716 2781.6,101.901 2781.6,102.086 2781.6,102.27 2781.6,102.455 2781.6,102.64 2781.6,102.825 2781.6,103.01 2781.6,103.195 2781.6,103.38 2781.6,103.565 2781.6,103.749 2781.6,103.934 2781.6,104.119 2781.6,104.304 2781.6,104.489 2781.6,104.674 2781.6,104.859 2781.6,105.043 2781.6,105.228 2781.59,105.413 2781.58,105.598 2781.55,105.783 2781.52,105.968 2781.45,106.153 2781.35,106.338 2781.19,106.522 2780.92,106.707 2780.52,106.892 2779.91,107.077 2779,107.262 2777.68,107.447 2775.8,107.632 2773.19,107.816 2769.63,108.001 2764.89,108.186 2758.72,108.371 2750.87,108.556 2741.1,108.741 2729.23,108.926 2715.16,109.11 2698.89,109.295 2680.55,109.48 2660.44,109.665 2638.99,109.85 2616.78,110.035 2594.53,110.22 2572.99,110.405 2552.92,110.589 2535.03,110.774 2519.88,110.959 2507.83,111.144 2498.99,111.329 2493.25,111.514 2490.22,111.699 2489.36,111.883 2489.97,112.068 2491.33,112.253 2492.8,112.438 2493.86,112.623 2494.22,112.808 2493.84,112.993 2492.93,113.177 2491.95,113.362 2491.5,113.547 2492.28,113.732 2494.96,113.917 2500.15,114.102 2508.25,114.287 3054.95,114.287 "/>
</svg>
