<?xml version="1.0" encoding="utf-8"?>
<svg xmlns="http://www.w3.org/2000/svg" xmlns:xlink="http://www.w3.org/1999/xlink" width="800" height="400" viewBox="0 0 3200 1600">
<defs>
  <clipPath id="clip680">
    <rect x="0" y="0" width="3200" height="1600"/>
  </clipPath>
</defs>
<path clip-path="url(#clip680)" d="M0 1600 L3200 1600 L3200 0 L0 0  Z" fill="#ffffff" fill-rule="evenodd" fill-opacity="1"/>
<defs>
  <clipPath id="clip681">
    <rect x="365" y="47" width="2789" height="1449"/>
  </clipPath>
</defs>
<path clip-path="url(#clip680)" d="M365.106 1495.09 L3152.76 1495.09 L3152.76 47.2441 L365.106 47.2441  Z" fill="#ffffff" fill-rule="evenodd" fill-opacity="1"/>
<polyline clip-path="url(#clip681)" style="stroke:#000000; stroke-linecap:round; stroke-linejoin:round; stroke-width:2; stroke-opacity:0.1; fill:none" points="922.158,1495.09 922.158,47.2441 "/>
<polyline clip-path="url(#clip681)" style="stroke:#000000; stroke-linecap:round; stroke-linejoin:round; stroke-width:2; stroke-opacity:0.1; fill:none" points="2595.7,1495.09 2595.7,47.2441 "/>
<polyline clip-path="url(#clip681)" style="stroke:#000000; stroke-linecap:round; stroke-linejoin:round; stroke-width:2; stroke-opacity:0.1; fill:none" points="365.106,1436.04 3152.76,1436.04 "/>
<polyline clip-path="url(#clip681)" style="stroke:#000000; stroke-linecap:round; stroke-linejoin:round; stroke-width:2; stroke-opacity:0.1; fill:none" points="365.106,1212.05 3152.76,1212.05 "/>
<polyline clip-path="url(#clip681)" style="stroke:#000000; stroke-linecap:round; stroke-linejoin:round; stroke-width:2; stroke-opacity:0.1; fill:none" points="365.106,988.049 3152.76,988.049 "/>
<polyline clip-path="url(#clip681)" style="stroke:#000000; stroke-linecap:round; stroke-linejoin:round; stroke-width:2; stroke-opacity:0.1; fill:none" points="365.106,764.053 3152.76,764.053 "/>
<polyline clip-path="url(#clip681)" style="stroke:#000000; stroke-linecap:round; stroke-linejoin:round; stroke-width:2; stroke-opacity:0.1; fill:none" points="365.106,540.057 3152.76,540.057 "/>
<polyline clip-path="url(#clip681)" style="stroke:#000000; stroke-linecap:round; stroke-linejoin:round; stroke-width:2; stroke-opacity:0.1; fill:none" points="365.106,316.061 3152.76,316.061 "/>
<polyline clip-path="url(#clip681)" style="stroke:#000000; stroke-linecap:round; stroke-linejoin:round; stroke-width:2; stroke-opacity:0.1; fill:none" points="365.106,92.065 3152.76,92.065 "/>
<polyline clip-path="url(#clip680)" style="stroke:#000000; stroke-linecap:round; stroke-linejoin:round; stroke-width:4; stroke-opacity:1; fill:none" points="365.106,1495.09 3152.76,1495.09 "/>
<polyline clip-path="url(#clip680)" style="stroke:#000000; stroke-linecap:round; stroke-linejoin:round; stroke-width:4; stroke-opacity:1; fill:none" points="922.158,1495.09 922.158,1476.19 "/>
<polyline clip-path="url(#clip680)" style="stroke:#000000; stroke-linecap:round; stroke-linejoin:round; stroke-width:4; stroke-opacity:1; fill:none" points="2595.7,1495.09 2595.7,1476.19 "/>
<path clip-path="url(#clip680)" d="M827.413 1533.4 L815.607 1551.85 L827.413 1551.85 L827.413 1533.4 M826.186 1529.33 L832.066 1529.33 L832.066 1551.85 L836.996 1551.85 L836.996 1555.74 L832.066 1555.74 L832.066 1563.89 L827.413 1563.89 L827.413 1555.74 L811.811 1555.74 L811.811 1551.23 L826.186 1529.33 Z" fill="#000000" fill-rule="nonzero" fill-opacity="1" /><path clip-path="url(#clip680)" d="M863.408 1530.6 L863.408 1537.96 L872.181 1537.96 L872.181 1541.27 L863.408 1541.27 L863.408 1555.35 Q863.408 1558.52 864.264 1559.42 Q865.144 1560.32 867.806 1560.32 L872.181 1560.32 L872.181 1563.89 L867.806 1563.89 Q862.876 1563.89 861.001 1562.06 Q859.126 1560.21 859.126 1555.35 L859.126 1541.27 L856.001 1541.27 L856.001 1537.96 L859.126 1537.96 L859.126 1530.6 L863.408 1530.6 Z" fill="#000000" fill-rule="nonzero" fill-opacity="1" /><path clip-path="url(#clip680)" d="M899.334 1548.24 L899.334 1563.89 L895.075 1563.89 L895.075 1548.38 Q895.075 1544.7 893.639 1542.87 Q892.204 1541.04 889.334 1541.04 Q885.885 1541.04 883.894 1543.24 Q881.903 1545.44 881.903 1549.24 L881.903 1563.89 L877.621 1563.89 L877.621 1527.87 L881.903 1527.87 L881.903 1541.99 Q883.431 1539.65 885.491 1538.49 Q887.575 1537.34 890.283 1537.34 Q894.75 1537.34 897.042 1540.11 Q899.334 1542.87 899.334 1548.24 Z" fill="#000000" fill-rule="nonzero" fill-opacity="1" /><path clip-path="url(#clip680)" d="M922.852 1541.94 Q922.135 1541.53 921.278 1541.34 Q920.445 1541.13 919.426 1541.13 Q915.815 1541.13 913.871 1543.49 Q911.949 1545.83 911.949 1550.23 L911.949 1563.89 L907.667 1563.89 L907.667 1537.96 L911.949 1537.96 L911.949 1541.99 Q913.292 1539.63 915.445 1538.49 Q917.598 1537.34 920.676 1537.34 Q921.116 1537.34 921.648 1537.41 Q922.181 1537.45 922.829 1537.57 L922.852 1541.94 Z" fill="#000000" fill-rule="nonzero" fill-opacity="1" /><path clip-path="url(#clip680)" d="M948.454 1549.86 L948.454 1551.94 L928.871 1551.94 Q929.148 1556.34 931.509 1558.66 Q933.894 1560.95 938.13 1560.95 Q940.584 1560.95 942.875 1560.35 Q945.19 1559.74 947.458 1558.54 L947.458 1562.57 Q945.167 1563.54 942.759 1564.05 Q940.352 1564.56 937.875 1564.56 Q931.672 1564.56 928.037 1560.95 Q924.426 1557.34 924.426 1551.18 Q924.426 1544.81 927.852 1541.09 Q931.301 1537.34 937.134 1537.34 Q942.366 1537.34 945.398 1540.72 Q948.454 1544.07 948.454 1549.86 M944.195 1548.61 Q944.148 1545.11 942.227 1543.03 Q940.329 1540.95 937.181 1540.95 Q933.616 1540.95 931.463 1542.96 Q929.334 1544.98 929.01 1548.63 L944.195 1548.61 Z" fill="#000000" fill-rule="nonzero" fill-opacity="1" /><path clip-path="url(#clip680)" d="M967.227 1550.86 Q962.065 1550.86 960.074 1552.04 Q958.083 1553.22 958.083 1556.06 Q958.083 1558.33 959.565 1559.67 Q961.07 1560.99 963.639 1560.99 Q967.181 1560.99 969.31 1558.49 Q971.463 1555.97 971.463 1551.8 L971.463 1550.86 L967.227 1550.86 M975.722 1549.1 L975.722 1563.89 L971.463 1563.89 L971.463 1559.95 Q970.005 1562.31 967.829 1563.45 Q965.653 1564.56 962.505 1564.56 Q958.523 1564.56 956.162 1562.34 Q953.824 1560.09 953.824 1556.34 Q953.824 1551.97 956.741 1549.74 Q959.681 1547.52 965.491 1547.52 L971.463 1547.52 L971.463 1547.11 Q971.463 1544.17 969.519 1542.57 Q967.597 1540.95 964.102 1540.95 Q961.88 1540.95 959.773 1541.48 Q957.667 1542.01 955.722 1543.08 L955.722 1539.14 Q958.06 1538.24 960.259 1537.8 Q962.458 1537.34 964.542 1537.34 Q970.167 1537.34 972.944 1540.25 Q975.722 1543.17 975.722 1549.1 Z" fill="#000000" fill-rule="nonzero" fill-opacity="1" /><path clip-path="url(#clip680)" d="M1001.56 1541.9 L1001.56 1527.87 L1005.81 1527.87 L1005.81 1563.89 L1001.56 1563.89 L1001.56 1560 Q1000.21 1562.31 998.153 1563.45 Q996.116 1564.56 993.245 1564.56 Q988.546 1564.56 985.583 1560.81 Q982.643 1557.06 982.643 1550.95 Q982.643 1544.84 985.583 1541.09 Q988.546 1537.34 993.245 1537.34 Q996.116 1537.34 998.153 1538.47 Q1000.21 1539.58 1001.56 1541.9 M987.042 1550.95 Q987.042 1555.65 988.963 1558.33 Q990.907 1560.99 994.287 1560.99 Q997.667 1560.99 999.611 1558.33 Q1001.56 1555.65 1001.56 1550.95 Q1001.56 1546.25 999.611 1543.59 Q997.667 1540.9 994.287 1540.9 Q990.907 1540.9 988.963 1543.59 Q987.042 1546.25 987.042 1550.95 Z" fill="#000000" fill-rule="nonzero" fill-opacity="1" /><path clip-path="url(#clip680)" d="M1031.12 1538.73 L1031.12 1542.75 Q1029.31 1541.83 1027.37 1541.36 Q1025.42 1540.9 1023.34 1540.9 Q1020.17 1540.9 1018.57 1541.87 Q1017 1542.85 1017 1544.79 Q1017 1546.27 1018.13 1547.13 Q1019.26 1547.96 1022.69 1548.73 L1024.15 1549.05 Q1028.68 1550.02 1030.58 1551.8 Q1032.5 1553.56 1032.5 1556.74 Q1032.5 1560.35 1029.63 1562.45 Q1026.79 1564.56 1021.79 1564.56 Q1019.7 1564.56 1017.43 1564.14 Q1015.19 1563.75 1012.69 1562.94 L1012.69 1558.54 Q1015.05 1559.77 1017.34 1560.39 Q1019.63 1560.99 1021.88 1560.99 Q1024.89 1560.99 1026.51 1559.98 Q1028.13 1558.93 1028.13 1557.06 Q1028.13 1555.32 1026.95 1554.4 Q1025.79 1553.47 1021.83 1552.61 L1020.35 1552.27 Q1016.39 1551.43 1014.63 1549.72 Q1012.87 1547.99 1012.87 1544.98 Q1012.87 1541.32 1015.47 1539.33 Q1018.06 1537.34 1022.83 1537.34 Q1025.19 1537.34 1027.27 1537.68 Q1029.36 1538.03 1031.12 1538.73 Z" fill="#000000" fill-rule="nonzero" fill-opacity="1" /><path clip-path="url(#clip680)" d="M2500.82 1559.95 L2508.46 1559.95 L2508.46 1533.59 L2500.15 1535.25 L2500.15 1530.99 L2508.41 1529.33 L2513.09 1529.33 L2513.09 1559.95 L2520.73 1559.95 L2520.73 1563.89 L2500.82 1563.89 L2500.82 1559.95 Z" fill="#000000" fill-rule="nonzero" fill-opacity="1" /><path clip-path="url(#clip680)" d="M2548.85 1530.6 L2548.85 1537.96 L2557.63 1537.96 L2557.63 1541.27 L2548.85 1541.27 L2548.85 1555.35 Q2548.85 1558.52 2549.71 1559.42 Q2550.59 1560.32 2553.25 1560.32 L2557.63 1560.32 L2557.63 1563.89 L2553.25 1563.89 Q2548.32 1563.89 2546.45 1562.06 Q2544.57 1560.21 2544.57 1555.35 L2544.57 1541.27 L2541.45 1541.27 L2541.45 1537.96 L2544.57 1537.96 L2544.57 1530.6 L2548.85 1530.6 Z" fill="#000000" fill-rule="nonzero" fill-opacity="1" /><path clip-path="url(#clip680)" d="M2584.78 1548.24 L2584.78 1563.89 L2580.52 1563.89 L2580.52 1548.38 Q2580.52 1544.7 2579.08 1542.87 Q2577.65 1541.04 2574.78 1541.04 Q2571.33 1541.04 2569.34 1543.24 Q2567.35 1545.44 2567.35 1549.24 L2567.35 1563.89 L2563.07 1563.89 L2563.07 1527.87 L2567.35 1527.87 L2567.35 1541.99 Q2568.88 1539.65 2570.94 1538.49 Q2573.02 1537.34 2575.73 1537.34 Q2580.19 1537.34 2582.49 1540.11 Q2584.78 1542.87 2584.78 1548.24 Z" fill="#000000" fill-rule="nonzero" fill-opacity="1" /><path clip-path="url(#clip680)" d="M2608.3 1541.94 Q2607.58 1541.53 2606.72 1541.34 Q2605.89 1541.13 2604.87 1541.13 Q2601.26 1541.13 2599.32 1543.49 Q2597.39 1545.83 2597.39 1550.23 L2597.39 1563.89 L2593.11 1563.89 L2593.11 1537.96 L2597.39 1537.96 L2597.39 1541.99 Q2598.74 1539.63 2600.89 1538.49 Q2603.04 1537.34 2606.12 1537.34 Q2606.56 1537.34 2607.09 1537.41 Q2607.63 1537.45 2608.27 1537.57 L2608.3 1541.94 Z" fill="#000000" fill-rule="nonzero" fill-opacity="1" /><path clip-path="url(#clip680)" d="M2633.9 1549.86 L2633.9 1551.94 L2614.32 1551.94 Q2614.59 1556.34 2616.95 1558.66 Q2619.34 1560.95 2623.57 1560.95 Q2626.03 1560.95 2628.32 1560.35 Q2630.63 1559.74 2632.9 1558.54 L2632.9 1562.57 Q2630.61 1563.54 2628.2 1564.05 Q2625.8 1564.56 2623.32 1564.56 Q2617.12 1564.56 2613.48 1560.95 Q2609.87 1557.34 2609.87 1551.18 Q2609.87 1544.81 2613.3 1541.09 Q2616.75 1537.34 2622.58 1537.34 Q2627.81 1537.34 2630.84 1540.72 Q2633.9 1544.07 2633.9 1549.86 M2629.64 1548.61 Q2629.59 1545.11 2627.67 1543.03 Q2625.77 1540.95 2622.63 1540.95 Q2619.06 1540.95 2616.91 1542.96 Q2614.78 1544.98 2614.45 1548.63 L2629.64 1548.61 Z" fill="#000000" fill-rule="nonzero" fill-opacity="1" /><path clip-path="url(#clip680)" d="M2652.67 1550.86 Q2647.51 1550.86 2645.52 1552.04 Q2643.53 1553.22 2643.53 1556.06 Q2643.53 1558.33 2645.01 1559.67 Q2646.51 1560.99 2649.08 1560.99 Q2652.63 1560.99 2654.75 1558.49 Q2656.91 1555.97 2656.91 1551.8 L2656.91 1550.86 L2652.67 1550.86 M2661.17 1549.1 L2661.17 1563.89 L2656.91 1563.89 L2656.91 1559.95 Q2655.45 1562.31 2653.27 1563.45 Q2651.1 1564.56 2647.95 1564.56 Q2643.97 1564.56 2641.61 1562.34 Q2639.27 1560.09 2639.27 1556.34 Q2639.27 1551.97 2642.19 1549.74 Q2645.13 1547.52 2650.94 1547.52 L2656.91 1547.52 L2656.91 1547.11 Q2656.91 1544.17 2654.96 1542.57 Q2653.04 1540.95 2649.55 1540.95 Q2647.32 1540.95 2645.22 1541.48 Q2643.11 1542.01 2641.17 1543.08 L2641.17 1539.14 Q2643.5 1538.24 2645.7 1537.8 Q2647.9 1537.34 2649.99 1537.34 Q2655.61 1537.34 2658.39 1540.25 Q2661.17 1543.17 2661.17 1549.1 Z" fill="#000000" fill-rule="nonzero" fill-opacity="1" /><path clip-path="url(#clip680)" d="M2687 1541.9 L2687 1527.87 L2691.26 1527.87 L2691.26 1563.89 L2687 1563.89 L2687 1560 Q2685.66 1562.31 2683.6 1563.45 Q2681.56 1564.56 2678.69 1564.56 Q2673.99 1564.56 2671.03 1560.81 Q2668.09 1557.06 2668.09 1550.95 Q2668.09 1544.84 2671.03 1541.09 Q2673.99 1537.34 2678.69 1537.34 Q2681.56 1537.34 2683.6 1538.47 Q2685.66 1539.58 2687 1541.9 M2672.49 1550.95 Q2672.49 1555.65 2674.41 1558.33 Q2676.35 1560.99 2679.73 1560.99 Q2683.11 1560.99 2685.06 1558.33 Q2687 1555.65 2687 1550.95 Q2687 1546.25 2685.06 1543.59 Q2683.11 1540.9 2679.73 1540.9 Q2676.35 1540.9 2674.41 1543.59 Q2672.49 1546.25 2672.49 1550.95 Z" fill="#000000" fill-rule="nonzero" fill-opacity="1" /><polyline clip-path="url(#clip680)" style="stroke:#000000; stroke-linecap:round; stroke-linejoin:round; stroke-width:4; stroke-opacity:1; fill:none" points="365.106,1495.09 365.106,47.2441 "/>
<polyline clip-path="url(#clip680)" style="stroke:#000000; stroke-linecap:round; stroke-linejoin:round; stroke-width:4; stroke-opacity:1; fill:none" points="365.106,1436.04 384.003,1436.04 "/>
<polyline clip-path="url(#clip680)" style="stroke:#000000; stroke-linecap:round; stroke-linejoin:round; stroke-width:4; stroke-opacity:1; fill:none" points="365.106,1212.05 384.003,1212.05 "/>
<polyline clip-path="url(#clip680)" style="stroke:#000000; stroke-linecap:round; stroke-linejoin:round; stroke-width:4; stroke-opacity:1; fill:none" points="365.106,988.049 384.003,988.049 "/>
<polyline clip-path="url(#clip680)" style="stroke:#000000; stroke-linecap:round; stroke-linejoin:round; stroke-width:4; stroke-opacity:1; fill:none" points="365.106,764.053 384.003,764.053 "/>
<polyline clip-path="url(#clip680)" style="stroke:#000000; stroke-linecap:round; stroke-linejoin:round; stroke-width:4; stroke-opacity:1; fill:none" points="365.106,540.057 384.003,540.057 "/>
<polyline clip-path="url(#clip680)" style="stroke:#000000; stroke-linecap:round; stroke-linejoin:round; stroke-width:4; stroke-opacity:1; fill:none" points="365.106,316.061 384.003,316.061 "/>
<polyline clip-path="url(#clip680)" style="stroke:#000000; stroke-linecap:round; stroke-linejoin:round; stroke-width:4; stroke-opacity:1; fill:none" points="365.106,92.065 384.003,92.065 "/>
<path clip-path="url(#clip680)" d="M100.51 1425.21 L118.866 1425.21 L118.866 1429.14 L104.792 1429.14 L104.792 1437.62 Q105.811 1437.27 106.829 1437.11 Q107.848 1436.92 108.866 1436.92 Q114.653 1436.92 118.033 1440.09 Q121.412 1443.26 121.412 1448.68 Q121.412 1454.26 117.94 1457.36 Q114.468 1460.44 108.149 1460.44 Q105.973 1460.44 103.704 1460.07 Q101.459 1459.7 99.0515 1458.96 L99.0515 1454.26 Q101.135 1455.39 103.357 1455.95 Q105.579 1456.5 108.056 1456.5 Q112.061 1456.5 114.399 1454.4 Q116.737 1452.29 116.737 1448.68 Q116.737 1445.07 114.399 1442.96 Q112.061 1440.86 108.056 1440.86 Q106.181 1440.86 104.306 1441.27 Q102.454 1441.69 100.51 1442.57 L100.51 1425.21 Z" fill="#000000" fill-rule="nonzero" fill-opacity="1" /><path clip-path="url(#clip680)" d="M130.625 1453.89 L135.51 1453.89 L135.51 1459.77 L130.625 1459.77 L130.625 1453.89 Z" fill="#000000" fill-rule="nonzero" fill-opacity="1" /><path clip-path="url(#clip680)" d="M155.695 1428.29 Q152.084 1428.29 150.255 1431.85 Q148.449 1435.39 148.449 1442.52 Q148.449 1449.63 150.255 1453.19 Q152.084 1456.74 155.695 1456.74 Q159.329 1456.74 161.134 1453.19 Q162.963 1449.63 162.963 1442.52 Q162.963 1435.39 161.134 1431.85 Q159.329 1428.29 155.695 1428.29 M155.695 1424.58 Q161.505 1424.58 164.56 1429.19 Q167.639 1433.77 167.639 1442.52 Q167.639 1451.25 164.56 1455.86 Q161.505 1460.44 155.695 1460.44 Q149.885 1460.44 146.806 1455.86 Q143.75 1451.25 143.75 1442.52 Q143.75 1433.77 146.806 1429.19 Q149.885 1424.58 155.695 1424.58 Z" fill="#000000" fill-rule="nonzero" fill-opacity="1" /><path clip-path="url(#clip680)" d="M185.857 1428.29 Q182.245 1428.29 180.417 1431.85 Q178.611 1435.39 178.611 1442.52 Q178.611 1449.63 180.417 1453.19 Q182.245 1456.74 185.857 1456.74 Q189.491 1456.74 191.296 1453.19 Q193.125 1449.63 193.125 1442.52 Q193.125 1435.39 191.296 1431.85 Q189.491 1428.29 185.857 1428.29 M185.857 1424.58 Q191.667 1424.58 194.722 1429.19 Q197.801 1433.77 197.801 1442.52 Q197.801 1451.25 194.722 1455.86 Q191.667 1460.44 185.857 1460.44 Q180.046 1460.44 176.968 1455.86 Q173.912 1451.25 173.912 1442.52 Q173.912 1433.77 176.968 1429.19 Q180.046 1424.58 185.857 1424.58 Z" fill="#000000" fill-rule="nonzero" fill-opacity="1" /><path clip-path="url(#clip680)" d="M234.19 1434.31 L223.611 1444.93 L234.19 1455.51 L231.435 1458.31 L220.81 1447.69 L210.185 1458.31 L207.454 1455.51 L218.009 1444.93 L207.454 1434.31 L210.185 1431.5 L220.81 1442.13 L231.435 1431.5 L234.19 1434.31 Z" fill="#000000" fill-rule="nonzero" fill-opacity="1" /><path clip-path="url(#clip680)" d="M246.551 1455.83 L254.19 1455.83 L254.19 1429.47 L245.879 1431.13 L245.879 1426.88 L254.143 1425.21 L258.819 1425.21 L258.819 1455.83 L266.458 1455.83 L266.458 1459.77 L246.551 1459.77 L246.551 1455.83 Z" fill="#000000" fill-rule="nonzero" fill-opacity="1" /><path clip-path="url(#clip680)" d="M285.902 1428.29 Q282.291 1428.29 280.463 1431.85 Q278.657 1435.39 278.657 1442.52 Q278.657 1449.63 280.463 1453.19 Q282.291 1456.74 285.902 1456.74 Q289.537 1456.74 291.342 1453.19 Q293.171 1449.63 293.171 1442.52 Q293.171 1435.39 291.342 1431.85 Q289.537 1428.29 285.902 1428.29 M285.902 1424.58 Q291.712 1424.58 294.768 1429.19 Q297.847 1433.77 297.847 1442.52 Q297.847 1451.25 294.768 1455.86 Q291.712 1460.44 285.902 1460.44 Q280.092 1460.44 277.013 1455.86 Q273.958 1451.25 273.958 1442.52 Q273.958 1433.77 277.013 1429.19 Q280.092 1424.58 285.902 1424.58 Z" fill="#000000" fill-rule="nonzero" fill-opacity="1" /><path clip-path="url(#clip680)" d="M307.476 1419.02 Q304.768 1419.02 303.207 1420.47 Q301.665 1421.92 301.665 1424.46 Q301.665 1427 303.207 1428.45 Q304.768 1429.89 307.476 1429.89 Q310.185 1429.89 311.746 1428.45 Q313.307 1426.98 313.307 1424.46 Q313.307 1421.92 311.746 1420.47 Q310.203 1419.02 307.476 1419.02 M303.677 1417.41 Q301.232 1416.8 299.859 1415.13 Q298.505 1413.46 298.505 1411.05 Q298.505 1407.68 300.894 1405.73 Q303.301 1403.77 307.476 1403.77 Q311.67 1403.77 314.059 1405.73 Q316.448 1407.68 316.448 1411.05 Q316.448 1413.46 315.075 1415.13 Q313.72 1416.8 311.294 1417.41 Q314.04 1418.05 315.564 1419.91 Q317.106 1421.77 317.106 1424.46 Q317.106 1428.54 314.604 1430.72 Q312.122 1432.9 307.476 1432.9 Q302.831 1432.9 300.329 1430.72 Q297.847 1428.54 297.847 1424.46 Q297.847 1421.77 299.389 1419.91 Q300.931 1418.05 303.677 1417.41 M302.285 1411.41 Q302.285 1413.59 303.639 1414.81 Q305.012 1416.03 307.476 1416.03 Q309.921 1416.03 311.294 1414.81 Q312.686 1413.59 312.686 1411.41 Q312.686 1409.22 311.294 1408 Q309.921 1406.78 307.476 1406.78 Q305.012 1406.78 303.639 1408 Q302.285 1409.22 302.285 1411.41 Z" fill="#000000" fill-rule="nonzero" fill-opacity="1" /><path clip-path="url(#clip680)" d="M111.042 1216.63 Q107.894 1216.63 106.042 1218.78 Q104.213 1220.93 104.213 1224.68 Q104.213 1228.41 106.042 1230.59 Q107.894 1232.74 111.042 1232.74 Q114.19 1232.74 116.019 1230.59 Q117.871 1228.41 117.871 1224.68 Q117.871 1220.93 116.019 1218.78 Q114.19 1216.63 111.042 1216.63 M120.324 1201.98 L120.324 1206.24 Q118.565 1205.4 116.76 1204.96 Q114.977 1204.52 113.218 1204.52 Q108.588 1204.52 106.135 1207.65 Q103.704 1210.77 103.357 1217.09 Q104.723 1215.08 106.783 1214.01 Q108.843 1212.93 111.32 1212.93 Q116.528 1212.93 119.537 1216.1 Q122.57 1219.24 122.57 1224.68 Q122.57 1230.01 119.422 1233.23 Q116.274 1236.44 111.042 1236.44 Q105.047 1236.44 101.876 1231.86 Q98.7042 1227.25 98.7042 1218.53 Q98.7042 1210.33 102.593 1205.47 Q106.482 1200.59 113.033 1200.59 Q114.792 1200.59 116.575 1200.93 Q118.38 1201.28 120.324 1201.98 Z" fill="#000000" fill-rule="nonzero" fill-opacity="1" /><path clip-path="url(#clip680)" d="M130.625 1229.89 L135.51 1229.89 L135.51 1235.77 L130.625 1235.77 L130.625 1229.89 Z" fill="#000000" fill-rule="nonzero" fill-opacity="1" /><path clip-path="url(#clip680)" d="M155.695 1204.29 Q152.084 1204.29 150.255 1207.86 Q148.449 1211.4 148.449 1218.53 Q148.449 1225.63 150.255 1229.2 Q152.084 1232.74 155.695 1232.74 Q159.329 1232.74 161.134 1229.2 Q162.963 1225.63 162.963 1218.53 Q162.963 1211.4 161.134 1207.86 Q159.329 1204.29 155.695 1204.29 M155.695 1200.59 Q161.505 1200.59 164.56 1205.19 Q167.639 1209.78 167.639 1218.53 Q167.639 1227.25 164.56 1231.86 Q161.505 1236.44 155.695 1236.44 Q149.885 1236.44 146.806 1231.86 Q143.75 1227.25 143.75 1218.53 Q143.75 1209.78 146.806 1205.19 Q149.885 1200.59 155.695 1200.59 Z" fill="#000000" fill-rule="nonzero" fill-opacity="1" /><path clip-path="url(#clip680)" d="M185.857 1204.29 Q182.245 1204.29 180.417 1207.86 Q178.611 1211.4 178.611 1218.53 Q178.611 1225.63 180.417 1229.2 Q182.245 1232.74 185.857 1232.74 Q189.491 1232.74 191.296 1229.2 Q193.125 1225.63 193.125 1218.53 Q193.125 1211.4 191.296 1207.86 Q189.491 1204.29 185.857 1204.29 M185.857 1200.59 Q191.667 1200.59 194.722 1205.19 Q197.801 1209.78 197.801 1218.53 Q197.801 1227.25 194.722 1231.86 Q191.667 1236.44 185.857 1236.44 Q180.046 1236.44 176.968 1231.86 Q173.912 1227.25 173.912 1218.53 Q173.912 1209.78 176.968 1205.19 Q180.046 1200.59 185.857 1200.59 Z" fill="#000000" fill-rule="nonzero" fill-opacity="1" /><path clip-path="url(#clip680)" d="M234.19 1210.31 L223.611 1220.93 L234.19 1231.51 L231.435 1234.31 L220.81 1223.69 L210.185 1234.31 L207.454 1231.51 L218.009 1220.93 L207.454 1210.31 L210.185 1207.51 L220.81 1218.13 L231.435 1207.51 L234.19 1210.31 Z" fill="#000000" fill-rule="nonzero" fill-opacity="1" /><path clip-path="url(#clip680)" d="M246.551 1231.84 L254.19 1231.84 L254.19 1205.47 L245.879 1207.14 L245.879 1202.88 L254.143 1201.21 L258.819 1201.21 L258.819 1231.84 L266.458 1231.84 L266.458 1235.77 L246.551 1235.77 L246.551 1231.84 Z" fill="#000000" fill-rule="nonzero" fill-opacity="1" /><path clip-path="url(#clip680)" d="M285.902 1204.29 Q282.291 1204.29 280.463 1207.86 Q278.657 1211.4 278.657 1218.53 Q278.657 1225.63 280.463 1229.2 Q282.291 1232.74 285.902 1232.74 Q289.537 1232.74 291.342 1229.2 Q293.171 1225.63 293.171 1218.53 Q293.171 1211.4 291.342 1207.86 Q289.537 1204.29 285.902 1204.29 M285.902 1200.59 Q291.712 1200.59 294.768 1205.19 Q297.847 1209.78 297.847 1218.53 Q297.847 1227.25 294.768 1231.86 Q291.712 1236.44 285.902 1236.44 Q280.092 1236.44 277.013 1231.86 Q273.958 1227.25 273.958 1218.53 Q273.958 1209.78 277.013 1205.19 Q280.092 1200.59 285.902 1200.59 Z" fill="#000000" fill-rule="nonzero" fill-opacity="1" /><path clip-path="url(#clip680)" d="M307.476 1195.03 Q304.768 1195.03 303.207 1196.48 Q301.665 1197.92 301.665 1200.46 Q301.665 1203 303.207 1204.45 Q304.768 1205.9 307.476 1205.9 Q310.185 1205.9 311.746 1204.45 Q313.307 1202.98 313.307 1200.46 Q313.307 1197.92 311.746 1196.48 Q310.203 1195.03 307.476 1195.03 M303.677 1193.41 Q301.232 1192.81 299.859 1191.13 Q298.505 1189.46 298.505 1187.05 Q298.505 1183.69 300.894 1181.73 Q303.301 1179.77 307.476 1179.77 Q311.67 1179.77 314.059 1181.73 Q316.448 1183.69 316.448 1187.05 Q316.448 1189.46 315.075 1191.13 Q313.72 1192.81 311.294 1193.41 Q314.04 1194.05 315.564 1195.91 Q317.106 1197.77 317.106 1200.46 Q317.106 1204.54 314.604 1206.73 Q312.122 1208.91 307.476 1208.91 Q302.831 1208.91 300.329 1206.73 Q297.847 1204.54 297.847 1200.46 Q297.847 1197.77 299.389 1195.91 Q300.931 1194.05 303.677 1193.41 M302.285 1187.41 Q302.285 1189.59 303.639 1190.81 Q305.012 1192.04 307.476 1192.04 Q309.921 1192.04 311.294 1190.81 Q312.686 1189.59 312.686 1187.41 Q312.686 1185.23 311.294 1184.01 Q309.921 1182.78 307.476 1182.78 Q305.012 1182.78 303.639 1184.01 Q302.285 1185.23 302.285 1187.41 Z" fill="#000000" fill-rule="nonzero" fill-opacity="1" /><path clip-path="url(#clip680)" d="M99.2829 977.217 L121.505 977.217 L121.505 979.207 L108.959 1011.78 L104.075 1011.78 L115.88 981.152 L99.2829 981.152 L99.2829 977.217 Z" fill="#000000" fill-rule="nonzero" fill-opacity="1" /><path clip-path="url(#clip680)" d="M130.625 1005.9 L135.51 1005.9 L135.51 1011.78 L130.625 1011.78 L130.625 1005.9 Z" fill="#000000" fill-rule="nonzero" fill-opacity="1" /><path clip-path="url(#clip680)" d="M155.695 980.295 Q152.084 980.295 150.255 983.86 Q148.449 987.402 148.449 994.531 Q148.449 1001.64 150.255 1005.2 Q152.084 1008.74 155.695 1008.74 Q159.329 1008.74 161.134 1005.2 Q162.963 1001.64 162.963 994.531 Q162.963 987.402 161.134 983.86 Q159.329 980.295 155.695 980.295 M155.695 976.592 Q161.505 976.592 164.56 981.198 Q167.639 985.781 167.639 994.531 Q167.639 1003.26 164.56 1007.86 Q161.505 1012.45 155.695 1012.45 Q149.885 1012.45 146.806 1007.86 Q143.75 1003.26 143.75 994.531 Q143.75 985.781 146.806 981.198 Q149.885 976.592 155.695 976.592 Z" fill="#000000" fill-rule="nonzero" fill-opacity="1" /><path clip-path="url(#clip680)" d="M185.857 980.295 Q182.245 980.295 180.417 983.86 Q178.611 987.402 178.611 994.531 Q178.611 1001.64 180.417 1005.2 Q182.245 1008.74 185.857 1008.74 Q189.491 1008.74 191.296 1005.2 Q193.125 1001.64 193.125 994.531 Q193.125 987.402 191.296 983.86 Q189.491 980.295 185.857 980.295 M185.857 976.592 Q191.667 976.592 194.722 981.198 Q197.801 985.781 197.801 994.531 Q197.801 1003.26 194.722 1007.86 Q191.667 1012.45 185.857 1012.45 Q180.046 1012.45 176.968 1007.86 Q173.912 1003.26 173.912 994.531 Q173.912 985.781 176.968 981.198 Q180.046 976.592 185.857 976.592 Z" fill="#000000" fill-rule="nonzero" fill-opacity="1" /><path clip-path="url(#clip680)" d="M234.19 986.314 L223.611 996.939 L234.19 1007.52 L231.435 1010.32 L220.81 999.693 L210.185 1010.32 L207.454 1007.52 L218.009 996.939 L207.454 986.314 L210.185 983.513 L220.81 994.138 L231.435 983.513 L234.19 986.314 Z" fill="#000000" fill-rule="nonzero" fill-opacity="1" /><path clip-path="url(#clip680)" d="M246.551 1007.84 L254.19 1007.84 L254.19 981.476 L245.879 983.143 L245.879 978.883 L254.143 977.217 L258.819 977.217 L258.819 1007.84 L266.458 1007.84 L266.458 1011.78 L246.551 1011.78 L246.551 1007.84 Z" fill="#000000" fill-rule="nonzero" fill-opacity="1" /><path clip-path="url(#clip680)" d="M285.902 980.295 Q282.291 980.295 280.463 983.86 Q278.657 987.402 278.657 994.531 Q278.657 1001.64 280.463 1005.2 Q282.291 1008.74 285.902 1008.74 Q289.537 1008.74 291.342 1005.2 Q293.171 1001.64 293.171 994.531 Q293.171 987.402 291.342 983.86 Q289.537 980.295 285.902 980.295 M285.902 976.592 Q291.712 976.592 294.768 981.198 Q297.847 985.781 297.847 994.531 Q297.847 1003.26 294.768 1007.86 Q291.712 1012.45 285.902 1012.45 Q280.092 1012.45 277.013 1007.86 Q273.958 1003.26 273.958 994.531 Q273.958 985.781 277.013 981.198 Q280.092 976.592 285.902 976.592 Z" fill="#000000" fill-rule="nonzero" fill-opacity="1" /><path clip-path="url(#clip680)" d="M307.476 971.032 Q304.768 971.032 303.207 972.48 Q301.665 973.928 301.665 976.467 Q301.665 979.006 303.207 980.454 Q304.768 981.902 307.476 981.902 Q310.185 981.902 311.746 980.454 Q313.307 978.987 313.307 976.467 Q313.307 973.928 311.746 972.48 Q310.203 971.032 307.476 971.032 M303.677 969.414 Q301.232 968.812 299.859 967.138 Q298.505 965.464 298.505 963.057 Q298.505 959.69 300.894 957.734 Q303.301 955.778 307.476 955.778 Q311.67 955.778 314.059 957.734 Q316.448 959.69 316.448 963.057 Q316.448 965.464 315.075 967.138 Q313.72 968.812 311.294 969.414 Q314.04 970.054 315.564 971.915 Q317.106 973.777 317.106 976.467 Q317.106 980.548 314.604 982.73 Q312.122 984.912 307.476 984.912 Q302.831 984.912 300.329 982.73 Q297.847 980.548 297.847 976.467 Q297.847 973.777 299.389 971.915 Q300.931 970.054 303.677 969.414 M302.285 963.414 Q302.285 965.596 303.639 966.819 Q305.012 968.041 307.476 968.041 Q309.921 968.041 311.294 966.819 Q312.686 965.596 312.686 963.414 Q312.686 961.233 311.294 960.01 Q309.921 958.788 307.476 958.788 Q305.012 958.788 303.639 960.01 Q302.285 961.233 302.285 963.414 Z" fill="#000000" fill-rule="nonzero" fill-opacity="1" /><path clip-path="url(#clip680)" d="M110.463 771.369 Q107.13 771.369 105.209 773.151 Q103.311 774.933 103.311 778.058 Q103.311 781.183 105.209 782.966 Q107.13 784.748 110.463 784.748 Q113.797 784.748 115.718 782.966 Q117.639 781.16 117.639 778.058 Q117.639 774.933 115.718 773.151 Q113.82 771.369 110.463 771.369 M105.788 769.378 Q102.778 768.637 101.088 766.577 Q99.4218 764.517 99.4218 761.554 Q99.4218 757.41 102.362 755.003 Q105.325 752.596 110.463 752.596 Q115.625 752.596 118.565 755.003 Q121.505 757.41 121.505 761.554 Q121.505 764.517 119.815 766.577 Q118.149 768.637 115.162 769.378 Q118.542 770.165 120.417 772.457 Q122.315 774.748 122.315 778.058 Q122.315 783.082 119.237 785.767 Q116.181 788.452 110.463 788.452 Q104.746 788.452 101.667 785.767 Q98.6116 783.082 98.6116 778.058 Q98.6116 774.748 100.51 772.457 Q102.408 770.165 105.788 769.378 M104.075 761.994 Q104.075 764.679 105.741 766.184 Q107.431 767.688 110.463 767.688 Q113.473 767.688 115.162 766.184 Q116.875 764.679 116.875 761.994 Q116.875 759.309 115.162 757.804 Q113.473 756.299 110.463 756.299 Q107.431 756.299 105.741 757.804 Q104.075 759.309 104.075 761.994 Z" fill="#000000" fill-rule="nonzero" fill-opacity="1" /><path clip-path="url(#clip680)" d="M130.625 781.901 L135.51 781.901 L135.51 787.781 L130.625 787.781 L130.625 781.901 Z" fill="#000000" fill-rule="nonzero" fill-opacity="1" /><path clip-path="url(#clip680)" d="M155.695 756.299 Q152.084 756.299 150.255 759.864 Q148.449 763.406 148.449 770.535 Q148.449 777.642 150.255 781.207 Q152.084 784.748 155.695 784.748 Q159.329 784.748 161.134 781.207 Q162.963 777.642 162.963 770.535 Q162.963 763.406 161.134 759.864 Q159.329 756.299 155.695 756.299 M155.695 752.596 Q161.505 752.596 164.56 757.202 Q167.639 761.785 167.639 770.535 Q167.639 779.262 164.56 783.869 Q161.505 788.452 155.695 788.452 Q149.885 788.452 146.806 783.869 Q143.75 779.262 143.75 770.535 Q143.75 761.785 146.806 757.202 Q149.885 752.596 155.695 752.596 Z" fill="#000000" fill-rule="nonzero" fill-opacity="1" /><path clip-path="url(#clip680)" d="M185.857 756.299 Q182.245 756.299 180.417 759.864 Q178.611 763.406 178.611 770.535 Q178.611 777.642 180.417 781.207 Q182.245 784.748 185.857 784.748 Q189.491 784.748 191.296 781.207 Q193.125 777.642 193.125 770.535 Q193.125 763.406 191.296 759.864 Q189.491 756.299 185.857 756.299 M185.857 752.596 Q191.667 752.596 194.722 757.202 Q197.801 761.785 197.801 770.535 Q197.801 779.262 194.722 783.869 Q191.667 788.452 185.857 788.452 Q180.046 788.452 176.968 783.869 Q173.912 779.262 173.912 770.535 Q173.912 761.785 176.968 757.202 Q180.046 752.596 185.857 752.596 Z" fill="#000000" fill-rule="nonzero" fill-opacity="1" /><path clip-path="url(#clip680)" d="M234.19 762.318 L223.611 772.943 L234.19 783.521 L231.435 786.322 L220.81 775.697 L210.185 786.322 L207.454 783.521 L218.009 772.943 L207.454 762.318 L210.185 759.517 L220.81 770.142 L231.435 759.517 L234.19 762.318 Z" fill="#000000" fill-rule="nonzero" fill-opacity="1" /><path clip-path="url(#clip680)" d="M246.551 783.845 L254.19 783.845 L254.19 757.48 L245.879 759.147 L245.879 754.887 L254.143 753.221 L258.819 753.221 L258.819 783.845 L266.458 783.845 L266.458 787.781 L246.551 787.781 L246.551 783.845 Z" fill="#000000" fill-rule="nonzero" fill-opacity="1" /><path clip-path="url(#clip680)" d="M285.902 756.299 Q282.291 756.299 280.463 759.864 Q278.657 763.406 278.657 770.535 Q278.657 777.642 280.463 781.207 Q282.291 784.748 285.902 784.748 Q289.537 784.748 291.342 781.207 Q293.171 777.642 293.171 770.535 Q293.171 763.406 291.342 759.864 Q289.537 756.299 285.902 756.299 M285.902 752.596 Q291.712 752.596 294.768 757.202 Q297.847 761.785 297.847 770.535 Q297.847 779.262 294.768 783.869 Q291.712 788.452 285.902 788.452 Q280.092 788.452 277.013 783.869 Q273.958 779.262 273.958 770.535 Q273.958 761.785 277.013 757.202 Q280.092 752.596 285.902 752.596 Z" fill="#000000" fill-rule="nonzero" fill-opacity="1" /><path clip-path="url(#clip680)" d="M307.476 747.036 Q304.768 747.036 303.207 748.484 Q301.665 749.932 301.665 752.471 Q301.665 755.01 303.207 756.458 Q304.768 757.906 307.476 757.906 Q310.185 757.906 311.746 756.458 Q313.307 754.991 313.307 752.471 Q313.307 749.932 311.746 748.484 Q310.203 747.036 307.476 747.036 M303.677 745.418 Q301.232 744.816 299.859 743.142 Q298.505 741.468 298.505 739.061 Q298.505 735.694 300.894 733.738 Q303.301 731.782 307.476 731.782 Q311.67 731.782 314.059 733.738 Q316.448 735.694 316.448 739.061 Q316.448 741.468 315.075 743.142 Q313.72 744.816 311.294 745.418 Q314.04 746.058 315.564 747.919 Q317.106 749.781 317.106 752.471 Q317.106 756.552 314.604 758.734 Q312.122 760.916 307.476 760.916 Q302.831 760.916 300.329 758.734 Q297.847 756.552 297.847 752.471 Q297.847 749.781 299.389 747.919 Q300.931 746.058 303.677 745.418 M302.285 739.418 Q302.285 741.6 303.639 742.823 Q305.012 744.045 307.476 744.045 Q309.921 744.045 311.294 742.823 Q312.686 741.6 312.686 739.418 Q312.686 737.237 311.294 736.014 Q309.921 734.792 307.476 734.792 Q305.012 734.792 303.639 736.014 Q302.285 737.237 302.285 739.418 Z" fill="#000000" fill-rule="nonzero" fill-opacity="1" /><path clip-path="url(#clip680)" d="M100.602 563.067 L100.602 558.808 Q102.362 559.641 104.167 560.081 Q105.973 560.521 107.709 560.521 Q112.338 560.521 114.769 557.419 Q117.223 554.294 117.57 547.951 Q116.227 549.942 114.167 551.007 Q112.107 552.072 109.607 552.072 Q104.422 552.072 101.389 548.947 Q98.3802 545.799 98.3802 540.359 Q98.3802 535.035 101.528 531.817 Q104.676 528.6 109.908 528.6 Q115.903 528.6 119.051 533.206 Q122.223 537.789 122.223 546.539 Q122.223 554.711 118.334 559.595 Q114.468 564.456 107.917 564.456 Q106.158 564.456 104.352 564.109 Q102.547 563.761 100.602 563.067 M109.908 548.414 Q113.056 548.414 114.885 546.262 Q116.737 544.109 116.737 540.359 Q116.737 536.632 114.885 534.479 Q113.056 532.303 109.908 532.303 Q106.76 532.303 104.908 534.479 Q103.079 536.632 103.079 540.359 Q103.079 544.109 104.908 546.262 Q106.76 548.414 109.908 548.414 Z" fill="#000000" fill-rule="nonzero" fill-opacity="1" /><path clip-path="url(#clip680)" d="M130.625 557.905 L135.51 557.905 L135.51 563.785 L130.625 563.785 L130.625 557.905 Z" fill="#000000" fill-rule="nonzero" fill-opacity="1" /><path clip-path="url(#clip680)" d="M155.695 532.303 Q152.084 532.303 150.255 535.868 Q148.449 539.41 148.449 546.539 Q148.449 553.646 150.255 557.211 Q152.084 560.752 155.695 560.752 Q159.329 560.752 161.134 557.211 Q162.963 553.646 162.963 546.539 Q162.963 539.41 161.134 535.868 Q159.329 532.303 155.695 532.303 M155.695 528.6 Q161.505 528.6 164.56 533.206 Q167.639 537.789 167.639 546.539 Q167.639 555.266 164.56 559.873 Q161.505 564.456 155.695 564.456 Q149.885 564.456 146.806 559.873 Q143.75 555.266 143.75 546.539 Q143.75 537.789 146.806 533.206 Q149.885 528.6 155.695 528.6 Z" fill="#000000" fill-rule="nonzero" fill-opacity="1" /><path clip-path="url(#clip680)" d="M185.857 532.303 Q182.245 532.303 180.417 535.868 Q178.611 539.41 178.611 546.539 Q178.611 553.646 180.417 557.211 Q182.245 560.752 185.857 560.752 Q189.491 560.752 191.296 557.211 Q193.125 553.646 193.125 546.539 Q193.125 539.41 191.296 535.868 Q189.491 532.303 185.857 532.303 M185.857 528.6 Q191.667 528.6 194.722 533.206 Q197.801 537.789 197.801 546.539 Q197.801 555.266 194.722 559.873 Q191.667 564.456 185.857 564.456 Q180.046 564.456 176.968 559.873 Q173.912 555.266 173.912 546.539 Q173.912 537.789 176.968 533.206 Q180.046 528.6 185.857 528.6 Z" fill="#000000" fill-rule="nonzero" fill-opacity="1" /><path clip-path="url(#clip680)" d="M234.19 538.322 L223.611 548.947 L234.19 559.525 L231.435 562.326 L220.81 551.701 L210.185 562.326 L207.454 559.525 L218.009 548.947 L207.454 538.322 L210.185 535.521 L220.81 546.146 L231.435 535.521 L234.19 538.322 Z" fill="#000000" fill-rule="nonzero" fill-opacity="1" /><path clip-path="url(#clip680)" d="M246.551 559.849 L254.19 559.849 L254.19 533.484 L245.879 535.15 L245.879 530.891 L254.143 529.225 L258.819 529.225 L258.819 559.849 L266.458 559.849 L266.458 563.785 L246.551 563.785 L246.551 559.849 Z" fill="#000000" fill-rule="nonzero" fill-opacity="1" /><path clip-path="url(#clip680)" d="M285.902 532.303 Q282.291 532.303 280.463 535.868 Q278.657 539.41 278.657 546.539 Q278.657 553.646 280.463 557.211 Q282.291 560.752 285.902 560.752 Q289.537 560.752 291.342 557.211 Q293.171 553.646 293.171 546.539 Q293.171 539.41 291.342 535.868 Q289.537 532.303 285.902 532.303 M285.902 528.6 Q291.712 528.6 294.768 533.206 Q297.847 537.789 297.847 546.539 Q297.847 555.266 294.768 559.873 Q291.712 564.456 285.902 564.456 Q280.092 564.456 277.013 559.873 Q273.958 555.266 273.958 546.539 Q273.958 537.789 277.013 533.206 Q280.092 528.6 285.902 528.6 Z" fill="#000000" fill-rule="nonzero" fill-opacity="1" /><path clip-path="url(#clip680)" d="M307.476 523.039 Q304.768 523.039 303.207 524.488 Q301.665 525.936 301.665 528.475 Q301.665 531.014 303.207 532.462 Q304.768 533.91 307.476 533.91 Q310.185 533.91 311.746 532.462 Q313.307 530.995 313.307 528.475 Q313.307 525.936 311.746 524.488 Q310.203 523.039 307.476 523.039 M303.677 521.422 Q301.232 520.82 299.859 519.146 Q298.505 517.472 298.505 515.065 Q298.505 511.698 300.894 509.742 Q303.301 507.786 307.476 507.786 Q311.67 507.786 314.059 509.742 Q316.448 511.698 316.448 515.065 Q316.448 517.472 315.075 519.146 Q313.72 520.82 311.294 521.422 Q314.04 522.061 315.564 523.923 Q317.106 525.785 317.106 528.475 Q317.106 532.556 314.604 534.738 Q312.122 536.92 307.476 536.92 Q302.831 536.92 300.329 534.738 Q297.847 532.556 297.847 528.475 Q297.847 525.785 299.389 523.923 Q300.931 522.061 303.677 521.422 M302.285 515.422 Q302.285 517.604 303.639 518.827 Q305.012 520.049 307.476 520.049 Q309.921 520.049 311.294 518.827 Q312.686 517.604 312.686 515.422 Q312.686 513.241 311.294 512.018 Q309.921 510.796 307.476 510.796 Q305.012 510.796 303.639 512.018 Q302.285 513.241 302.285 515.422 Z" fill="#000000" fill-rule="nonzero" fill-opacity="1" /><path clip-path="url(#clip680)" d="M101.161 335.853 L108.8 335.853 L108.8 309.488 L100.49 311.154 L100.49 306.895 L108.753 305.229 L113.429 305.229 L113.429 335.853 L121.068 335.853 L121.068 339.789 L101.161 339.789 L101.161 335.853 Z" fill="#000000" fill-rule="nonzero" fill-opacity="1" /><path clip-path="url(#clip680)" d="M130.513 333.909 L135.397 333.909 L135.397 339.789 L130.513 339.789 L130.513 333.909 Z" fill="#000000" fill-rule="nonzero" fill-opacity="1" /><path clip-path="url(#clip680)" d="M155.582 308.307 Q151.971 308.307 150.142 311.872 Q148.336 315.414 148.336 322.543 Q148.336 329.65 150.142 333.215 Q151.971 336.756 155.582 336.756 Q159.216 336.756 161.022 333.215 Q162.85 329.65 162.85 322.543 Q162.85 315.414 161.022 311.872 Q159.216 308.307 155.582 308.307 M155.582 304.604 Q161.392 304.604 164.448 309.21 Q167.526 313.793 167.526 322.543 Q167.526 331.27 164.448 335.877 Q161.392 340.46 155.582 340.46 Q149.772 340.46 146.693 335.877 Q143.637 331.27 143.637 322.543 Q143.637 313.793 146.693 309.21 Q149.772 304.604 155.582 304.604 Z" fill="#000000" fill-rule="nonzero" fill-opacity="1" /><path clip-path="url(#clip680)" d="M185.744 308.307 Q182.133 308.307 180.304 311.872 Q178.498 315.414 178.498 322.543 Q178.498 329.65 180.304 333.215 Q182.133 336.756 185.744 336.756 Q189.378 336.756 191.183 333.215 Q193.012 329.65 193.012 322.543 Q193.012 315.414 191.183 311.872 Q189.378 308.307 185.744 308.307 M185.744 304.604 Q191.554 304.604 194.609 309.21 Q197.688 313.793 197.688 322.543 Q197.688 331.27 194.609 335.877 Q191.554 340.46 185.744 340.46 Q179.934 340.46 176.855 335.877 Q173.799 331.27 173.799 322.543 Q173.799 313.793 176.855 309.21 Q179.934 304.604 185.744 304.604 Z" fill="#000000" fill-rule="nonzero" fill-opacity="1" /><path clip-path="url(#clip680)" d="M234.077 314.326 L223.498 324.951 L234.077 335.529 L231.322 338.33 L220.697 327.705 L210.072 338.33 L207.341 335.529 L217.896 324.951 L207.341 314.326 L210.072 311.525 L220.697 322.15 L231.322 311.525 L234.077 314.326 Z" fill="#000000" fill-rule="nonzero" fill-opacity="1" /><path clip-path="url(#clip680)" d="M246.438 335.853 L254.077 335.853 L254.077 309.488 L245.767 311.154 L245.767 306.895 L254.03 305.229 L258.706 305.229 L258.706 335.853 L266.345 335.853 L266.345 339.789 L246.438 339.789 L246.438 335.853 Z" fill="#000000" fill-rule="nonzero" fill-opacity="1" /><path clip-path="url(#clip680)" d="M285.789 308.307 Q282.178 308.307 280.35 311.872 Q278.544 315.414 278.544 322.543 Q278.544 329.65 280.35 333.215 Q282.178 336.756 285.789 336.756 Q289.424 336.756 291.229 333.215 Q293.058 329.65 293.058 322.543 Q293.058 315.414 291.229 311.872 Q289.424 308.307 285.789 308.307 M285.789 304.604 Q291.6 304.604 294.655 309.21 Q297.734 313.793 297.734 322.543 Q297.734 331.27 294.655 335.877 Q291.6 340.46 285.789 340.46 Q279.979 340.46 276.901 335.877 Q273.845 331.27 273.845 322.543 Q273.845 313.793 276.901 309.21 Q279.979 304.604 285.789 304.604 Z" fill="#000000" fill-rule="nonzero" fill-opacity="1" /><path clip-path="url(#clip680)" d="M299.539 311.795 L299.539 308.335 Q300.969 309.012 302.436 309.369 Q303.903 309.726 305.313 309.726 Q309.075 309.726 311.05 307.206 Q313.043 304.667 313.325 299.514 Q312.235 301.131 310.561 301.996 Q308.887 302.861 306.856 302.861 Q302.643 302.861 300.179 300.322 Q297.734 297.765 297.734 293.345 Q297.734 289.019 300.292 286.405 Q302.85 283.79 307.1 283.79 Q311.971 283.79 314.529 287.533 Q317.106 291.257 317.106 298.366 Q317.106 305.006 313.946 308.974 Q310.805 312.924 305.483 312.924 Q304.053 312.924 302.586 312.641 Q301.119 312.359 299.539 311.795 M307.1 299.89 Q309.658 299.89 311.144 298.141 Q312.648 296.392 312.648 293.345 Q312.648 290.317 311.144 288.568 Q309.658 286.8 307.1 286.8 Q304.542 286.8 303.038 288.568 Q301.552 290.317 301.552 293.345 Q301.552 296.392 303.038 298.141 Q304.542 299.89 307.1 299.89 Z" fill="#000000" fill-rule="nonzero" fill-opacity="1" /><path clip-path="url(#clip680)" d="M101.161 111.857 L108.8 111.857 L108.8 85.4918 L100.49 87.1585 L100.49 82.8992 L108.753 81.2326 L113.429 81.2326 L113.429 111.857 L121.068 111.857 L121.068 115.793 L101.161 115.793 L101.161 111.857 Z" fill="#000000" fill-rule="nonzero" fill-opacity="1" /><path clip-path="url(#clip680)" d="M130.513 109.913 L135.397 109.913 L135.397 115.793 L130.513 115.793 L130.513 109.913 Z" fill="#000000" fill-rule="nonzero" fill-opacity="1" /><path clip-path="url(#clip680)" d="M146.392 111.857 L154.031 111.857 L154.031 85.4918 L145.721 87.1585 L145.721 82.8992 L153.985 81.2326 L158.661 81.2326 L158.661 111.857 L166.299 111.857 L166.299 115.793 L146.392 115.793 L146.392 111.857 Z" fill="#000000" fill-rule="nonzero" fill-opacity="1" /><path clip-path="url(#clip680)" d="M185.744 84.3113 Q182.133 84.3113 180.304 87.876 Q178.498 91.4177 178.498 98.5473 Q178.498 105.654 180.304 109.219 Q182.133 112.76 185.744 112.76 Q189.378 112.76 191.183 109.219 Q193.012 105.654 193.012 98.5473 Q193.012 91.4177 191.183 87.876 Q189.378 84.3113 185.744 84.3113 M185.744 80.6076 Q191.554 80.6076 194.609 85.214 Q197.688 89.7973 197.688 98.5473 Q197.688 107.274 194.609 111.881 Q191.554 116.464 185.744 116.464 Q179.934 116.464 176.855 111.881 Q173.799 107.274 173.799 98.5473 Q173.799 89.7973 176.855 85.214 Q179.934 80.6076 185.744 80.6076 Z" fill="#000000" fill-rule="nonzero" fill-opacity="1" /><path clip-path="url(#clip680)" d="M234.077 90.3297 L223.498 100.955 L234.077 111.533 L231.322 114.334 L220.697 103.709 L210.072 114.334 L207.341 111.533 L217.896 100.955 L207.341 90.3297 L210.072 87.5288 L220.697 98.1538 L231.322 87.5288 L234.077 90.3297 Z" fill="#000000" fill-rule="nonzero" fill-opacity="1" /><path clip-path="url(#clip680)" d="M246.438 111.857 L254.077 111.857 L254.077 85.4918 L245.767 87.1585 L245.767 82.8992 L254.03 81.2326 L258.706 81.2326 L258.706 111.857 L266.345 111.857 L266.345 115.793 L246.438 115.793 L246.438 111.857 Z" fill="#000000" fill-rule="nonzero" fill-opacity="1" /><path clip-path="url(#clip680)" d="M285.789 84.3113 Q282.178 84.3113 280.35 87.876 Q278.544 91.4177 278.544 98.5473 Q278.544 105.654 280.35 109.219 Q282.178 112.76 285.789 112.76 Q289.424 112.76 291.229 109.219 Q293.058 105.654 293.058 98.5473 Q293.058 91.4177 291.229 87.876 Q289.424 84.3113 285.789 84.3113 M285.789 80.6076 Q291.6 80.6076 294.655 85.214 Q297.734 89.7973 297.734 98.5473 Q297.734 107.274 294.655 111.881 Q291.6 116.464 285.789 116.464 Q279.979 116.464 276.901 111.881 Q273.845 107.274 273.845 98.5473 Q273.845 89.7973 276.901 85.214 Q279.979 80.6076 285.789 80.6076 Z" fill="#000000" fill-rule="nonzero" fill-opacity="1" /><path clip-path="url(#clip680)" d="M299.539 87.7991 L299.539 84.3385 Q300.969 85.0156 302.436 85.3729 Q303.903 85.7303 305.313 85.7303 Q309.075 85.7303 311.05 83.21 Q313.043 80.671 313.325 75.5177 Q312.235 77.1351 310.561 78.0003 Q308.887 78.8654 306.856 78.8654 Q302.643 78.8654 300.179 76.3264 Q297.734 73.7685 297.734 69.3487 Q297.734 65.0229 300.292 62.4086 Q302.85 59.7944 307.1 59.7944 Q311.971 59.7944 314.529 63.5371 Q317.106 67.261 317.106 74.3704 Q317.106 81.0095 313.946 84.978 Q310.805 88.9276 305.483 88.9276 Q304.053 88.9276 302.586 88.6455 Q301.119 88.3634 299.539 87.7991 M307.1 75.8938 Q309.658 75.8938 311.144 74.1447 Q312.648 72.3956 312.648 69.3487 Q312.648 66.3207 311.144 64.5715 Q309.658 62.8036 307.1 62.8036 Q304.542 62.8036 303.038 64.5715 Q301.552 66.3207 301.552 69.3487 Q301.552 72.3956 303.038 74.1447 Q304.542 75.8938 307.1 75.8938 Z" fill="#000000" fill-rule="nonzero" fill-opacity="1" /><path clip-path="url(#clip680)" d="M-9.64527 840.632 L0.4762 840.632 L0.4762 828.569 L5.02768 828.569 L5.02768 840.632 L24.3794 840.632 Q28.7399 840.632 29.9813 839.454 Q31.2226 838.245 31.2226 834.584 L31.2226 828.569 L36.1242 828.569 L36.1242 834.584 Q36.1242 841.364 33.6097 843.942 Q31.0634 846.52 24.3794 846.52 L5.02768 846.52 L5.02768 850.817 L0.4762 850.817 L0.4762 846.52 L-9.64527 846.52 L-9.64527 840.632 Z" fill="#000000" fill-rule="nonzero" fill-opacity="1" /><path clip-path="url(#clip680)" d="M-11.3958 789.738 L-11.3958 784.327 L42.1716 800.878 L42.1716 806.289 L-11.3958 789.738 Z" fill="#000000" fill-rule="nonzero" fill-opacity="1" /><path clip-path="url(#clip680)" d="M14.6081 727.831 L36.1242 727.831 L36.1242 733.688 L14.799 733.688 Q9.7383 733.688 7.22385 735.661 Q4.7094 737.635 4.7094 741.581 Q4.7094 746.324 7.73311 749.061 Q10.7568 751.798 15.9767 751.798 L36.1242 751.798 L36.1242 757.687 L0.4762 757.687 L0.4762 751.798 L6.01437 751.798 Q2.79968 749.698 1.20826 746.865 Q-0.38317 744 -0.38317 740.276 Q-0.38317 734.133 3.43625 730.982 Q7.22385 727.831 14.6081 727.831 Z" fill="#000000" fill-rule="nonzero" fill-opacity="1" /><path clip-path="url(#clip680)" d="M1.52654 693.425 L7.06471 693.425 Q5.79157 695.907 5.15499 698.581 Q4.51842 701.255 4.51842 704.119 Q4.51842 708.48 5.85522 710.676 Q7.19202 712.84 9.86562 712.84 Q11.9026 712.84 13.0803 711.281 Q14.2261 709.721 15.2765 705.01 L15.7221 703.005 Q17.0589 696.767 19.5097 694.157 Q21.9286 691.515 26.2891 691.515 Q31.2544 691.515 34.1508 695.462 Q37.0472 699.377 37.0472 706.252 Q37.0472 709.116 36.4743 712.235 Q35.9332 715.323 34.8192 718.76 L28.7718 718.76 Q30.4587 715.514 31.318 712.363 Q32.1456 709.212 32.1456 706.124 Q32.1456 701.987 30.7451 699.759 Q29.3129 697.531 26.7347 697.531 Q24.3476 697.531 23.0745 699.154 Q21.8013 700.745 20.6237 706.188 L20.1462 708.225 Q19.0004 713.668 16.6451 716.087 Q14.258 718.506 10.1202 718.506 Q5.09134 718.506 2.35408 714.941 Q-0.38317 711.376 -0.38317 704.819 Q-0.38317 701.573 0.0942579 698.708 Q0.571686 695.844 1.52654 693.425 Z" fill="#000000" fill-rule="nonzero" fill-opacity="1" /><path clip-path="url(#clip681)" d="M1356.9 1454.11 L1368.03 1440.31 L1377.53 1426.52 L1385.37 1412.72 L1391.54 1398.92 L1396.05 1385.13 L1398.96 1371.33 L1400.31 1357.53 L1400.2 1343.74 L1398.69 1329.94 L1395.9 1316.14 L1391.92 1302.35 L1386.85 1288.55 L1380.78 1274.75 L1373.81 1260.95 L1366.03 1247.16 L1357.49 1233.36 L1348.27 1219.56 L1338.42 1205.77 L1327.99 1191.97 L1317.01 1178.17 L1305.51 1164.38 L1293.52 1150.58 L1281.06 1136.78 L1268.16 1122.99 L1254.85 1109.19 L1241.16 1095.39 L1227.13 1081.6 L1212.8 1067.8 L1198.22 1054 L1183.45 1040.2 L1168.56 1026.41 L1153.62 1012.61 L1138.71 998.814 L1123.91 985.018 L1109.3 971.221 L1094.96 957.424 L1080.98 943.627 L1067.43 929.83 L1054.38 916.033 L1041.9 902.236 L1030.04 888.439 L1018.84 874.643 L1008.34 860.846 L998.569 847.049 L989.531 833.252 L981.232 819.455 L973.664 805.658 L966.813 791.861 L960.655 778.064 L955.16 764.268 L950.295 750.471 L946.019 736.674 L942.293 722.877 L939.075 709.08 L936.323 695.283 L933.997 681.486 L932.058 667.689 L930.471 653.893 L929.205 640.096 L928.234 626.299 L927.534 612.502 L927.09 598.705 L926.889 584.908 L926.926 571.111 L927.199 557.314 L927.714 543.518 L928.481 529.721 L929.512 515.924 L930.828 502.127 L932.45 488.33 L934.403 474.533 L936.714 460.736 L939.41 446.939 L942.518 433.143 L946.065 419.346 L950.071 405.549 L954.554 391.752 L959.526 377.955 L964.991 364.158 L970.942 350.361 L977.363 336.565 L984.228 322.768 L991.494 308.971 L999.11 295.174 L1007.01 281.377 L1015.11 267.58 L1023.32 253.783 L1031.55 239.986 L1039.68 226.19 L1047.59 212.393 L1055.16 198.596 L1062.27 184.799 L1068.81 171.002 L1074.65 157.205 L1079.69 143.408 L1083.85 129.611 L1087.04 115.815 L1089.19 102.018 L1090.28 88.2208 L754.037 88.2208 L755.123 102.018 L757.28 115.815 L760.466 129.611 L764.621 143.408 L769.666 157.205 L775.509 171.002 L782.044 184.799 L789.157 198.596 L796.73 212.393 L804.639 226.19 L812.765 239.986 L820.991 253.783 L829.205 267.58 L837.307 281.377 L845.206 295.174 L852.821 308.971 L860.088 322.768 L866.952 336.565 L873.374 350.361 L879.325 364.158 L884.789 377.955 L889.761 391.752 L894.245 405.549 L898.251 419.346 L901.797 433.143 L904.905 446.939 L907.601 460.736 L909.912 474.533 L911.865 488.33 L913.487 502.127 L914.803 515.924 L915.835 529.721 L916.601 543.518 L917.116 557.314 L917.389 571.111 L917.426 584.908 L917.225 598.705 L916.781 612.502 L916.081 626.299 L915.11 640.096 L913.844 653.893 L912.258 667.689 L910.319 681.486 L907.992 695.283 L905.24 709.08 L902.022 722.877 L898.296 736.674 L894.021 750.471 L889.155 764.268 L883.66 778.064 L877.502 791.861 L870.651 805.658 L863.084 819.455 L854.784 833.252 L845.746 847.049 L835.972 860.846 L825.475 874.643 L814.279 888.439 L802.417 902.236 L789.935 916.033 L776.888 929.83 L763.338 943.627 L749.357 957.424 L735.02 971.221 L720.409 985.018 L705.605 998.814 L690.693 1012.61 L675.753 1026.41 L660.863 1040.2 L646.095 1054 L631.516 1067.8 L617.184 1081.6 L603.151 1095.39 L589.461 1109.19 L576.152 1122.99 L563.256 1136.78 L550.8 1150.58 L538.81 1164.38 L527.31 1178.17 L516.328 1191.97 L505.894 1205.77 L496.045 1219.56 L486.826 1233.36 L478.29 1247.16 L470.502 1260.95 L463.534 1274.75 L457.468 1288.55 L452.397 1302.35 L448.415 1316.14 L445.622 1329.94 L444.119 1343.74 L444.002 1357.53 L445.357 1371.33 L448.263 1385.13 L452.778 1398.92 L458.946 1412.72 L466.783 1426.52 L476.284 1440.31 L487.415 1454.11 L1356.9 1454.11  Z" fill="#009af9" fill-rule="evenodd" fill-opacity="1"/>
<polyline clip-path="url(#clip681)" style="stroke:#000000; stroke-linecap:round; stroke-linejoin:round; stroke-width:4; stroke-opacity:1; fill:none" points="1356.9,1454.11 1368.03,1440.31 1377.53,1426.52 1385.37,1412.72 1391.54,1398.92 1396.05,1385.13 1398.96,1371.33 1400.31,1357.53 1400.2,1343.74 1398.69,1329.94 1395.9,1316.14 1391.92,1302.35 1386.85,1288.55 1380.78,1274.75 1373.81,1260.95 1366.03,1247.16 1357.49,1233.36 1348.27,1219.56 1338.42,1205.77 1327.99,1191.97 1317.01,1178.17 1305.51,1164.38 1293.52,1150.58 1281.06,1136.78 1268.16,1122.99 1254.85,1109.19 1241.16,1095.39 1227.13,1081.6 1212.8,1067.8 1198.22,1054 1183.45,1040.2 1168.56,1026.41 1153.62,1012.61 1138.71,998.814 1123.91,985.018 1109.3,971.221 1094.96,957.424 1080.98,943.627 1067.43,929.83 1054.38,916.033 1041.9,902.236 1030.04,888.439 1018.84,874.643 1008.34,860.846 998.569,847.049 989.531,833.252 981.232,819.455 973.664,805.658 966.813,791.861 960.655,778.064 955.16,764.268 950.295,750.471 946.019,736.674 942.293,722.877 939.075,709.08 936.323,695.283 933.997,681.486 932.058,667.689 930.471,653.893 929.205,640.096 928.234,626.299 927.534,612.502 927.09,598.705 926.889,584.908 926.926,571.111 927.199,557.314 927.714,543.518 928.481,529.721 929.512,515.924 930.828,502.127 932.45,488.33 934.403,474.533 936.714,460.736 939.41,446.939 942.518,433.143 946.065,419.346 950.071,405.549 954.554,391.752 959.526,377.955 964.991,364.158 970.942,350.361 977.363,336.565 984.228,322.768 991.494,308.971 999.11,295.174 1007.01,281.377 1015.11,267.58 1023.32,253.783 1031.55,239.986 1039.68,226.19 1047.59,212.393 1055.16,198.596 1062.27,184.799 1068.81,171.002 1074.65,157.205 1079.69,143.408 1083.85,129.611 1087.04,115.815 1089.19,102.018 1090.28,88.2208 754.037,88.2208 755.123,102.018 757.28,115.815 760.466,129.611 764.621,143.408 769.666,157.205 775.509,171.002 782.044,184.799 789.157,198.596 796.73,212.393 804.639,226.19 812.765,239.986 820.991,253.783 829.205,267.58 837.307,281.377 845.206,295.174 852.821,308.971 860.088,322.768 866.952,336.565 873.374,350.361 879.325,364.158 884.789,377.955 889.761,391.752 894.245,405.549 898.251,419.346 901.797,433.143 904.905,446.939 907.601,460.736 909.912,474.533 911.865,488.33 913.487,502.127 914.803,515.924 915.835,529.721 916.601,543.518 917.116,557.314 917.389,571.111 917.426,584.908 917.225,598.705 916.781,612.502 916.081,626.299 915.11,640.096 913.844,653.893 912.258,667.689 910.319,681.486 907.992,695.283 905.24,709.08 902.022,722.877 898.296,736.674 894.021,750.471 889.155,764.268 883.66,778.064 877.502,791.861 870.651,805.658 863.084,819.455 854.784,833.252 845.746,847.049 835.972,860.846 825.475,874.643 814.279,888.439 802.417,902.236 789.935,916.033 776.888,929.83 763.338,943.627 749.357,957.424 735.02,971.221 720.409,985.018 705.605,998.814 690.693,1012.61 675.753,1026.41 660.863,1040.2 646.095,1054 631.516,1067.8 617.184,1081.6 603.151,1095.39 589.461,1109.19 576.152,1122.99 563.256,1136.78 550.8,1150.58 538.81,1164.38 527.31,1178.17 516.328,1191.97 505.894,1205.77 496.045,1219.56 486.826,1233.36 478.29,1247.16 470.502,1260.95 463.534,1274.75 457.468,1288.55 452.397,1302.35 448.415,1316.14 445.622,1329.94 444.119,1343.74 444.002,1357.53 445.357,1371.33 448.263,1385.13 452.778,1398.92 458.946,1412.72 466.783,1426.52 476.284,1440.31 487.415,1454.11 1356.9,1454.11 "/>
<path clip-path="url(#clip681)" d="M3012.05 418.79 L3021.7 415.502 L3030.58 412.214 L3038.65 408.926 L3045.88 405.638 L3052.27 402.35 L3057.81 399.062 L3062.5 395.774 L3066.35 392.486 L3069.38 389.198 L3071.61 385.91 L3073.07 382.622 L3073.81 379.334 L3073.86 376.046 L3073.28 372.759 L3072.12 369.471 L3070.44 366.183 L3068.29 362.895 L3065.75 359.607 L3062.87 356.319 L3059.72 353.031 L3056.35 349.743 L3052.84 346.455 L3049.24 343.167 L3045.6 339.879 L3041.99 336.591 L3038.44 333.303 L3035.01 330.015 L3031.72 326.727 L3028.62 323.44 L3025.72 320.152 L3023.06 316.864 L3020.63 313.576 L3018.46 310.288 L3016.53 307 L3014.84 303.712 L3013.38 300.424 L3012.13 297.136 L3011.06 293.848 L3010.13 290.56 L3009.32 287.272 L3008.58 283.984 L3007.86 280.696 L3007.12 277.408 L3006.3 274.121 L3005.36 270.833 L3004.24 267.545 L3002.88 264.257 L3001.24 260.969 L2999.26 257.681 L2996.9 254.393 L2994.11 251.105 L2990.85 247.817 L2987.1 244.529 L2982.81 241.241 L2977.97 237.953 L2972.55 234.665 L2966.56 231.377 L2959.98 228.09 L2952.82 224.802 L2945.09 221.514 L2936.81 218.226 L2254.6 218.226 L2246.32 221.514 L2238.59 224.802 L2231.43 228.09 L2224.85 231.377 L2218.85 234.665 L2213.44 237.953 L2208.6 241.241 L2204.31 244.529 L2200.55 247.817 L2197.3 251.105 L2194.51 254.393 L2192.15 257.681 L2190.17 260.969 L2188.53 264.257 L2187.17 267.545 L2186.05 270.833 L2185.1 274.121 L2184.29 277.408 L2183.55 280.696 L2182.83 283.984 L2182.09 287.272 L2181.28 290.56 L2180.35 293.848 L2179.28 297.136 L2178.03 300.424 L2176.57 303.712 L2174.88 307 L2172.95 310.288 L2170.78 313.576 L2168.35 316.864 L2165.69 320.152 L2162.79 323.44 L2159.69 326.727 L2156.4 330.015 L2152.97 333.303 L2149.42 336.591 L2145.8 339.879 L2142.17 343.167 L2138.57 346.455 L2135.06 349.743 L2131.69 353.031 L2128.54 356.319 L2125.66 359.607 L2123.11 362.895 L2120.97 366.183 L2119.29 369.471 L2118.13 372.759 L2117.55 376.046 L2117.6 379.334 L2118.34 382.622 L2119.8 385.91 L2122.03 389.198 L2125.05 392.486 L2128.9 395.774 L2133.59 399.062 L2139.13 402.35 L2145.53 405.638 L2152.76 408.926 L2160.83 412.214 L2169.71 415.502 L2179.36 418.79 L3012.05 418.79  Z" fill="#e26f46" fill-rule="evenodd" fill-opacity="1"/>
<polyline clip-path="url(#clip681)" style="stroke:#000000; stroke-linecap:round; stroke-linejoin:round; stroke-width:4; stroke-opacity:1; fill:none" points="3012.05,418.79 3021.7,415.502 3030.58,412.214 3038.65,408.926 3045.88,405.638 3052.27,402.35 3057.81,399.062 3062.5,395.774 3066.35,392.486 3069.38,389.198 3071.61,385.91 3073.07,382.622 3073.81,379.334 3073.86,376.046 3073.28,372.759 3072.12,369.471 3070.44,366.183 3068.29,362.895 3065.75,359.607 3062.87,356.319 3059.72,353.031 3056.35,349.743 3052.84,346.455 3049.24,343.167 3045.6,339.879 3041.99,336.591 3038.44,333.303 3035.01,330.015 3031.72,326.727 3028.62,323.44 3025.72,320.152 3023.06,316.864 3020.63,313.576 3018.46,310.288 3016.53,307 3014.84,303.712 3013.38,300.424 3012.13,297.136 3011.06,293.848 3010.13,290.56 3009.32,287.272 3008.58,283.984 3007.86,280.696 3007.12,277.408 3006.3,274.121 3005.36,270.833 3004.24,267.545 3002.88,264.257 3001.24,260.969 2999.26,257.681 2996.9,254.393 2994.11,251.105 2990.85,247.817 2987.1,244.529 2982.81,241.241 2977.97,237.953 2972.55,234.665 2966.56,231.377 2959.98,228.09 2952.82,224.802 2945.09,221.514 2936.81,218.226 2254.6,218.226 2246.32,221.514 2238.59,224.802 2231.43,228.09 2224.85,231.377 2218.85,234.665 2213.44,237.953 2208.6,241.241 2204.31,244.529 2200.55,247.817 2197.3,251.105 2194.51,254.393 2192.15,257.681 2190.17,260.969 2188.53,264.257 2187.17,267.545 2186.05,270.833 2185.1,274.121 2184.29,277.408 2183.55,280.696 2182.83,283.984 2182.09,287.272 2181.28,290.56 2180.35,293.848 2179.28,297.136 2178.03,300.424 2176.57,303.712 2174.88,307 2172.95,310.288 2170.78,313.576 2168.35,316.864 2165.69,320.152 2162.79,323.44 2159.69,326.727 2156.4,330.015 2152.97,333.303 2149.42,336.591 2145.8,339.879 2142.17,343.167 2138.57,346.455 2135.06,349.743 2131.69,353.031 2128.54,356.319 2125.66,359.607 2123.11,362.895 2120.97,366.183 2119.29,369.471 2118.13,372.759 2117.55,376.046 2117.6,379.334 2118.34,382.622 2119.8,385.91 2122.03,389.198 2125.05,392.486 2128.9,395.774 2133.59,399.062 2139.13,402.35 2145.53,405.638 2152.76,408.926 2160.83,412.214 2169.71,415.502 2179.36,418.79 3012.05,418.79 "/>
</svg>
