<?xml version="1.0" encoding="utf-8"?>
<svg xmlns="http://www.w3.org/2000/svg" xmlns:xlink="http://www.w3.org/1999/xlink" width="600" height="400" viewBox="0 0 2400 1600">
<defs>
  <clipPath id="clip960">
    <rect x="0" y="0" width="2400" height="1600"/>
  </clipPath>
</defs>
<path clip-path="url(#clip960)" d="M0 1600 L2400 1600 L2400 0 L0 0  Z" fill="#ffffff" fill-rule="evenodd" fill-opacity="1"/>
<defs>
  <clipPath id="clip961">
    <rect x="394" y="47" width="1959" height="1377"/>
  </clipPath>
</defs>
<path clip-path="url(#clip960)" d="M394.884 1423.18 L2352.76 1423.18 L2352.76 47.2441 L394.884 47.2441  Z" fill="#ffffff" fill-rule="evenodd" fill-opacity="1"/>
<polyline clip-path="url(#clip961)" style="stroke:#000000; stroke-linecap:round; stroke-linejoin:round; stroke-width:2; stroke-opacity:0.1; fill:none" points="758.137,1423.18 758.137,47.2441 "/>
<polyline clip-path="url(#clip961)" style="stroke:#000000; stroke-linecap:round; stroke-linejoin:round; stroke-width:2; stroke-opacity:0.1; fill:none" points="1142.94,1423.18 1142.94,47.2441 "/>
<polyline clip-path="url(#clip961)" style="stroke:#000000; stroke-linecap:round; stroke-linejoin:round; stroke-width:2; stroke-opacity:0.1; fill:none" points="1527.74,1423.18 1527.74,47.2441 "/>
<polyline clip-path="url(#clip961)" style="stroke:#000000; stroke-linecap:round; stroke-linejoin:round; stroke-width:2; stroke-opacity:0.1; fill:none" points="1912.54,1423.18 1912.54,47.2441 "/>
<polyline clip-path="url(#clip961)" style="stroke:#000000; stroke-linecap:round; stroke-linejoin:round; stroke-width:2; stroke-opacity:0.1; fill:none" points="2297.34,1423.18 2297.34,47.2441 "/>
<polyline clip-path="url(#clip961)" style="stroke:#000000; stroke-linecap:round; stroke-linejoin:round; stroke-width:2; stroke-opacity:0.1; fill:none" points="394.884,1272.84 2352.76,1272.84 "/>
<polyline clip-path="url(#clip961)" style="stroke:#000000; stroke-linecap:round; stroke-linejoin:round; stroke-width:2; stroke-opacity:0.1; fill:none" points="394.884,1095.55 2352.76,1095.55 "/>
<polyline clip-path="url(#clip961)" style="stroke:#000000; stroke-linecap:round; stroke-linejoin:round; stroke-width:2; stroke-opacity:0.1; fill:none" points="394.884,918.266 2352.76,918.266 "/>
<polyline clip-path="url(#clip961)" style="stroke:#000000; stroke-linecap:round; stroke-linejoin:round; stroke-width:2; stroke-opacity:0.1; fill:none" points="394.884,740.978 2352.76,740.978 "/>
<polyline clip-path="url(#clip961)" style="stroke:#000000; stroke-linecap:round; stroke-linejoin:round; stroke-width:2; stroke-opacity:0.1; fill:none" points="394.884,563.69 2352.76,563.69 "/>
<polyline clip-path="url(#clip961)" style="stroke:#000000; stroke-linecap:round; stroke-linejoin:round; stroke-width:2; stroke-opacity:0.1; fill:none" points="394.884,386.402 2352.76,386.402 "/>
<polyline clip-path="url(#clip961)" style="stroke:#000000; stroke-linecap:round; stroke-linejoin:round; stroke-width:2; stroke-opacity:0.1; fill:none" points="394.884,209.114 2352.76,209.114 "/>
<polyline clip-path="url(#clip960)" style="stroke:#000000; stroke-linecap:round; stroke-linejoin:round; stroke-width:4; stroke-opacity:1; fill:none" points="394.884,1423.18 2352.76,1423.18 "/>
<polyline clip-path="url(#clip960)" style="stroke:#000000; stroke-linecap:round; stroke-linejoin:round; stroke-width:4; stroke-opacity:1; fill:none" points="758.137,1423.18 758.137,1404.28 "/>
<polyline clip-path="url(#clip960)" style="stroke:#000000; stroke-linecap:round; stroke-linejoin:round; stroke-width:4; stroke-opacity:1; fill:none" points="1142.94,1423.18 1142.94,1404.28 "/>
<polyline clip-path="url(#clip960)" style="stroke:#000000; stroke-linecap:round; stroke-linejoin:round; stroke-width:4; stroke-opacity:1; fill:none" points="1527.74,1423.18 1527.74,1404.28 "/>
<polyline clip-path="url(#clip960)" style="stroke:#000000; stroke-linecap:round; stroke-linejoin:round; stroke-width:4; stroke-opacity:1; fill:none" points="1912.54,1423.18 1912.54,1404.28 "/>
<polyline clip-path="url(#clip960)" style="stroke:#000000; stroke-linecap:round; stroke-linejoin:round; stroke-width:4; stroke-opacity:1; fill:none" points="2297.34,1423.18 2297.34,1404.28 "/>
<path clip-path="url(#clip960)" d="M721.829 1481.64 L738.149 1481.64 L738.149 1485.58 L716.204 1485.58 L716.204 1481.64 Q718.866 1478.89 723.45 1474.26 Q728.056 1469.61 729.237 1468.27 Q731.482 1465.74 732.362 1464.01 Q733.265 1462.25 733.265 1460.56 Q733.265 1457.8 731.32 1456.07 Q729.399 1454.33 726.297 1454.33 Q724.098 1454.33 721.644 1455.09 Q719.214 1455.86 716.436 1457.41 L716.436 1452.69 Q719.26 1451.55 721.714 1450.97 Q724.167 1450.39 726.204 1450.39 Q731.575 1450.39 734.769 1453.08 Q737.964 1455.77 737.964 1460.26 Q737.964 1462.39 737.153 1464.31 Q736.366 1466.2 734.26 1468.8 Q733.681 1469.47 730.579 1472.69 Q727.478 1475.88 721.829 1481.64 Z" fill="#000000" fill-rule="nonzero" fill-opacity="1" /><path clip-path="url(#clip960)" d="M757.963 1454.1 Q754.352 1454.1 752.524 1457.66 Q750.718 1461.2 750.718 1468.33 Q750.718 1475.44 752.524 1479.01 Q754.352 1482.55 757.963 1482.55 Q761.598 1482.55 763.403 1479.01 Q765.232 1475.44 765.232 1468.33 Q765.232 1461.2 763.403 1457.66 Q761.598 1454.1 757.963 1454.1 M757.963 1450.39 Q763.774 1450.39 766.829 1455 Q769.908 1459.58 769.908 1468.33 Q769.908 1477.06 766.829 1481.67 Q763.774 1486.25 757.963 1486.25 Q752.153 1486.25 749.075 1481.67 Q746.019 1477.06 746.019 1468.33 Q746.019 1459.58 749.075 1455 Q752.153 1450.39 757.963 1450.39 Z" fill="#000000" fill-rule="nonzero" fill-opacity="1" /><path clip-path="url(#clip960)" d="M788.125 1454.1 Q784.514 1454.1 782.686 1457.66 Q780.88 1461.2 780.88 1468.33 Q780.88 1475.44 782.686 1479.01 Q784.514 1482.55 788.125 1482.55 Q791.76 1482.55 793.565 1479.01 Q795.394 1475.44 795.394 1468.33 Q795.394 1461.2 793.565 1457.66 Q791.76 1454.1 788.125 1454.1 M788.125 1450.39 Q793.935 1450.39 796.991 1455 Q800.07 1459.58 800.07 1468.33 Q800.07 1477.06 796.991 1481.67 Q793.935 1486.25 788.125 1486.25 Q782.315 1486.25 779.236 1481.67 Q776.181 1477.06 776.181 1468.33 Q776.181 1459.58 779.236 1455 Q782.315 1450.39 788.125 1450.39 Z" fill="#000000" fill-rule="nonzero" fill-opacity="1" /><path clip-path="url(#clip960)" d="M1116.03 1455.09 L1104.22 1473.54 L1116.03 1473.54 L1116.03 1455.09 M1114.8 1451.02 L1120.68 1451.02 L1120.68 1473.54 L1125.61 1473.54 L1125.61 1477.43 L1120.68 1477.43 L1120.68 1485.58 L1116.03 1485.58 L1116.03 1477.43 L1100.43 1477.43 L1100.43 1472.92 L1114.8 1451.02 Z" fill="#000000" fill-rule="nonzero" fill-opacity="1" /><path clip-path="url(#clip960)" d="M1143.34 1454.1 Q1139.73 1454.1 1137.9 1457.66 Q1136.1 1461.2 1136.1 1468.33 Q1136.1 1475.44 1137.9 1479.01 Q1139.73 1482.55 1143.34 1482.55 Q1146.98 1482.55 1148.78 1479.01 Q1150.61 1475.44 1150.61 1468.33 Q1150.61 1461.2 1148.78 1457.66 Q1146.98 1454.1 1143.34 1454.1 M1143.34 1450.39 Q1149.15 1450.39 1152.21 1455 Q1155.29 1459.58 1155.29 1468.33 Q1155.29 1477.06 1152.21 1481.67 Q1149.15 1486.25 1143.34 1486.25 Q1137.53 1486.25 1134.46 1481.67 Q1131.4 1477.06 1131.4 1468.33 Q1131.4 1459.58 1134.46 1455 Q1137.53 1450.39 1143.34 1450.39 Z" fill="#000000" fill-rule="nonzero" fill-opacity="1" /><path clip-path="url(#clip960)" d="M1173.51 1454.1 Q1169.89 1454.1 1168.07 1457.66 Q1166.26 1461.2 1166.26 1468.33 Q1166.26 1475.44 1168.07 1479.01 Q1169.89 1482.55 1173.51 1482.55 Q1177.14 1482.55 1178.95 1479.01 Q1180.77 1475.44 1180.77 1468.33 Q1180.77 1461.2 1178.95 1457.66 Q1177.14 1454.1 1173.51 1454.1 M1173.51 1450.39 Q1179.32 1450.39 1182.37 1455 Q1185.45 1459.58 1185.45 1468.33 Q1185.45 1477.06 1182.37 1481.67 Q1179.32 1486.25 1173.51 1486.25 Q1167.7 1486.25 1164.62 1481.67 Q1161.56 1477.06 1161.56 1468.33 Q1161.56 1459.58 1164.62 1455 Q1167.7 1450.39 1173.51 1450.39 Z" fill="#000000" fill-rule="nonzero" fill-opacity="1" /><path clip-path="url(#clip960)" d="M1498.06 1466.44 Q1494.92 1466.44 1493.07 1468.59 Q1491.24 1470.74 1491.24 1474.49 Q1491.24 1478.22 1493.07 1480.39 Q1494.92 1482.55 1498.06 1482.55 Q1501.21 1482.55 1503.04 1480.39 Q1504.89 1478.22 1504.89 1474.49 Q1504.89 1470.74 1503.04 1468.59 Q1501.21 1466.44 1498.06 1466.44 M1507.35 1451.78 L1507.35 1456.04 Q1505.59 1455.21 1503.78 1454.77 Q1502 1454.33 1500.24 1454.33 Q1495.61 1454.33 1493.16 1457.45 Q1490.73 1460.58 1490.38 1466.9 Q1491.75 1464.89 1493.81 1463.82 Q1495.87 1462.73 1498.34 1462.73 Q1503.55 1462.73 1506.56 1465.9 Q1509.59 1469.05 1509.59 1474.49 Q1509.59 1479.82 1506.44 1483.03 Q1503.3 1486.25 1498.06 1486.25 Q1492.07 1486.25 1488.9 1481.67 Q1485.73 1477.06 1485.73 1468.33 Q1485.73 1460.14 1489.62 1455.28 Q1493.5 1450.39 1500.06 1450.39 Q1501.81 1450.39 1503.6 1450.74 Q1505.4 1451.09 1507.35 1451.78 Z" fill="#000000" fill-rule="nonzero" fill-opacity="1" /><path clip-path="url(#clip960)" d="M1527.65 1454.1 Q1524.04 1454.1 1522.21 1457.66 Q1520.4 1461.2 1520.4 1468.33 Q1520.4 1475.44 1522.21 1479.01 Q1524.04 1482.55 1527.65 1482.55 Q1531.28 1482.55 1533.09 1479.01 Q1534.92 1475.44 1534.92 1468.33 Q1534.92 1461.2 1533.09 1457.66 Q1531.28 1454.1 1527.65 1454.1 M1527.65 1450.39 Q1533.46 1450.39 1536.51 1455 Q1539.59 1459.58 1539.59 1468.33 Q1539.59 1477.06 1536.51 1481.67 Q1533.46 1486.25 1527.65 1486.25 Q1521.84 1486.25 1518.76 1481.67 Q1515.7 1477.06 1515.7 1468.33 Q1515.7 1459.58 1518.76 1455 Q1521.84 1450.39 1527.65 1450.39 Z" fill="#000000" fill-rule="nonzero" fill-opacity="1" /><path clip-path="url(#clip960)" d="M1557.81 1454.1 Q1554.2 1454.1 1552.37 1457.66 Q1550.56 1461.2 1550.56 1468.33 Q1550.56 1475.44 1552.37 1479.01 Q1554.2 1482.55 1557.81 1482.55 Q1561.44 1482.55 1563.25 1479.01 Q1565.08 1475.44 1565.08 1468.33 Q1565.08 1461.2 1563.25 1457.66 Q1561.44 1454.1 1557.81 1454.1 M1557.81 1450.39 Q1563.62 1450.39 1566.68 1455 Q1569.75 1459.58 1569.75 1468.33 Q1569.75 1477.06 1566.68 1481.67 Q1563.62 1486.25 1557.81 1486.25 Q1552 1486.25 1548.92 1481.67 Q1545.87 1477.06 1545.87 1468.33 Q1545.87 1459.58 1548.92 1455 Q1552 1450.39 1557.81 1450.39 Z" fill="#000000" fill-rule="nonzero" fill-opacity="1" /><path clip-path="url(#clip960)" d="M1882.33 1469.17 Q1879 1469.17 1877.08 1470.95 Q1875.18 1472.73 1875.18 1475.86 Q1875.18 1478.98 1877.08 1480.77 Q1879 1482.55 1882.33 1482.55 Q1885.67 1482.55 1887.59 1480.77 Q1889.51 1478.96 1889.51 1475.86 Q1889.51 1472.73 1887.59 1470.95 Q1885.69 1469.17 1882.33 1469.17 M1877.66 1467.18 Q1874.65 1466.44 1872.96 1464.38 Q1871.29 1462.32 1871.29 1459.35 Q1871.29 1455.21 1874.23 1452.8 Q1877.2 1450.39 1882.33 1450.39 Q1887.5 1450.39 1890.44 1452.8 Q1893.38 1455.21 1893.38 1459.35 Q1893.38 1462.32 1891.69 1464.38 Q1890.02 1466.44 1887.03 1467.18 Q1890.41 1467.96 1892.29 1470.26 Q1894.19 1472.55 1894.19 1475.86 Q1894.19 1480.88 1891.11 1483.57 Q1888.05 1486.25 1882.33 1486.25 Q1876.62 1486.25 1873.54 1483.57 Q1870.48 1480.88 1870.48 1475.86 Q1870.48 1472.55 1872.38 1470.26 Q1874.28 1467.96 1877.66 1467.18 M1875.95 1459.79 Q1875.95 1462.48 1877.61 1463.98 Q1879.3 1465.49 1882.33 1465.49 Q1885.34 1465.49 1887.03 1463.98 Q1888.75 1462.48 1888.75 1459.79 Q1888.75 1457.11 1887.03 1455.6 Q1885.34 1454.1 1882.33 1454.1 Q1879.3 1454.1 1877.61 1455.6 Q1875.95 1457.11 1875.95 1459.79 Z" fill="#000000" fill-rule="nonzero" fill-opacity="1" /><path clip-path="url(#clip960)" d="M1912.5 1454.1 Q1908.89 1454.1 1907.06 1457.66 Q1905.25 1461.2 1905.25 1468.33 Q1905.25 1475.44 1907.06 1479.01 Q1908.89 1482.55 1912.5 1482.55 Q1916.13 1482.55 1917.94 1479.01 Q1919.76 1475.44 1919.76 1468.33 Q1919.76 1461.2 1917.94 1457.66 Q1916.13 1454.1 1912.5 1454.1 M1912.5 1450.39 Q1918.31 1450.39 1921.36 1455 Q1924.44 1459.58 1924.44 1468.33 Q1924.44 1477.06 1921.36 1481.67 Q1918.31 1486.25 1912.5 1486.25 Q1906.69 1486.25 1903.61 1481.67 Q1900.55 1477.06 1900.55 1468.33 Q1900.55 1459.58 1903.61 1455 Q1906.69 1450.39 1912.5 1450.39 Z" fill="#000000" fill-rule="nonzero" fill-opacity="1" /><path clip-path="url(#clip960)" d="M1942.66 1454.1 Q1939.05 1454.1 1937.22 1457.66 Q1935.41 1461.2 1935.41 1468.33 Q1935.41 1475.44 1937.22 1479.01 Q1939.05 1482.55 1942.66 1482.55 Q1946.29 1482.55 1948.1 1479.01 Q1949.93 1475.44 1949.93 1468.33 Q1949.93 1461.2 1948.1 1457.66 Q1946.29 1454.1 1942.66 1454.1 M1942.66 1450.39 Q1948.47 1450.39 1951.52 1455 Q1954.6 1459.58 1954.6 1468.33 Q1954.6 1477.06 1951.52 1481.67 Q1948.47 1486.25 1942.66 1486.25 Q1936.85 1486.25 1933.77 1481.67 Q1930.71 1477.06 1930.71 1468.33 Q1930.71 1459.58 1933.77 1455 Q1936.85 1450.39 1942.66 1450.39 Z" fill="#000000" fill-rule="nonzero" fill-opacity="1" /><path clip-path="url(#clip960)" d="M2241.87 1481.64 L2249.51 1481.64 L2249.51 1455.28 L2241.2 1456.95 L2241.2 1452.69 L2249.46 1451.02 L2254.14 1451.02 L2254.14 1481.64 L2261.78 1481.64 L2261.78 1485.58 L2241.87 1485.58 L2241.87 1481.64 Z" fill="#000000" fill-rule="nonzero" fill-opacity="1" /><path clip-path="url(#clip960)" d="M2281.22 1454.1 Q2277.61 1454.1 2275.78 1457.66 Q2273.98 1461.2 2273.98 1468.33 Q2273.98 1475.44 2275.78 1479.01 Q2277.61 1482.55 2281.22 1482.55 Q2284.86 1482.55 2286.66 1479.01 Q2288.49 1475.44 2288.49 1468.33 Q2288.49 1461.2 2286.66 1457.66 Q2284.86 1454.1 2281.22 1454.1 M2281.22 1450.39 Q2287.03 1450.39 2290.09 1455 Q2293.17 1459.58 2293.17 1468.33 Q2293.17 1477.06 2290.09 1481.67 Q2287.03 1486.25 2281.22 1486.25 Q2275.41 1486.25 2272.33 1481.67 Q2269.28 1477.06 2269.28 1468.33 Q2269.28 1459.58 2272.33 1455 Q2275.41 1450.39 2281.22 1450.39 Z" fill="#000000" fill-rule="nonzero" fill-opacity="1" /><path clip-path="url(#clip960)" d="M2311.38 1454.1 Q2307.77 1454.1 2305.94 1457.66 Q2304.14 1461.2 2304.14 1468.33 Q2304.14 1475.44 2305.94 1479.01 Q2307.77 1482.55 2311.38 1482.55 Q2315.02 1482.55 2316.82 1479.01 Q2318.65 1475.44 2318.65 1468.33 Q2318.65 1461.2 2316.82 1457.66 Q2315.02 1454.1 2311.38 1454.1 M2311.38 1450.39 Q2317.19 1450.39 2320.25 1455 Q2323.33 1459.58 2323.33 1468.33 Q2323.33 1477.06 2320.25 1481.67 Q2317.19 1486.25 2311.38 1486.25 Q2305.57 1486.25 2302.49 1481.67 Q2299.44 1477.06 2299.44 1468.33 Q2299.44 1459.58 2302.49 1455 Q2305.57 1450.39 2311.38 1450.39 Z" fill="#000000" fill-rule="nonzero" fill-opacity="1" /><path clip-path="url(#clip960)" d="M2341.55 1454.1 Q2337.93 1454.1 2336.11 1457.66 Q2334.3 1461.2 2334.3 1468.33 Q2334.3 1475.44 2336.11 1479.01 Q2337.93 1482.55 2341.55 1482.55 Q2345.18 1482.55 2346.99 1479.01 Q2348.81 1475.44 2348.81 1468.33 Q2348.81 1461.2 2346.99 1457.66 Q2345.18 1454.1 2341.55 1454.1 M2341.55 1450.39 Q2347.36 1450.39 2350.41 1455 Q2353.49 1459.58 2353.49 1468.33 Q2353.49 1477.06 2350.41 1481.67 Q2347.36 1486.25 2341.55 1486.25 Q2335.74 1486.25 2332.66 1481.67 Q2329.6 1477.06 2329.6 1468.33 Q2329.6 1459.58 2332.66 1455 Q2335.74 1450.39 2341.55 1450.39 Z" fill="#000000" fill-rule="nonzero" fill-opacity="1" /><path clip-path="url(#clip960)" d="M1370.89 1518.52 L1376.75 1518.52 L1376.75 1568.04 L1370.89 1568.04 L1370.89 1518.52 Z" fill="#000000" fill-rule="nonzero" fill-opacity="1" /><polyline clip-path="url(#clip960)" style="stroke:#000000; stroke-linecap:round; stroke-linejoin:round; stroke-width:4; stroke-opacity:1; fill:none" points="394.884,1423.18 394.884,47.2441 "/>
<polyline clip-path="url(#clip960)" style="stroke:#000000; stroke-linecap:round; stroke-linejoin:round; stroke-width:4; stroke-opacity:1; fill:none" points="394.884,1272.84 413.782,1272.84 "/>
<polyline clip-path="url(#clip960)" style="stroke:#000000; stroke-linecap:round; stroke-linejoin:round; stroke-width:4; stroke-opacity:1; fill:none" points="394.884,1095.55 413.782,1095.55 "/>
<polyline clip-path="url(#clip960)" style="stroke:#000000; stroke-linecap:round; stroke-linejoin:round; stroke-width:4; stroke-opacity:1; fill:none" points="394.884,918.266 413.782,918.266 "/>
<polyline clip-path="url(#clip960)" style="stroke:#000000; stroke-linecap:round; stroke-linejoin:round; stroke-width:4; stroke-opacity:1; fill:none" points="394.884,740.978 413.782,740.978 "/>
<polyline clip-path="url(#clip960)" style="stroke:#000000; stroke-linecap:round; stroke-linejoin:round; stroke-width:4; stroke-opacity:1; fill:none" points="394.884,563.69 413.782,563.69 "/>
<polyline clip-path="url(#clip960)" style="stroke:#000000; stroke-linecap:round; stroke-linejoin:round; stroke-width:4; stroke-opacity:1; fill:none" points="394.884,386.402 413.782,386.402 "/>
<polyline clip-path="url(#clip960)" style="stroke:#000000; stroke-linecap:round; stroke-linejoin:round; stroke-width:4; stroke-opacity:1; fill:none" points="394.884,209.114 413.782,209.114 "/>
<path clip-path="url(#clip960)" d="M121.043 1292.63 L137.362 1292.63 L137.362 1296.57 L115.418 1296.57 L115.418 1292.63 Q118.08 1289.88 122.663 1285.25 Q127.269 1280.6 128.45 1279.25 Q130.695 1276.73 131.575 1275 Q132.478 1273.24 132.478 1271.55 Q132.478 1268.79 130.533 1267.06 Q128.612 1265.32 125.51 1265.32 Q123.311 1265.32 120.857 1266.08 Q118.427 1266.85 115.649 1268.4 L115.649 1263.68 Q118.473 1262.54 120.927 1261.96 Q123.38 1261.38 125.418 1261.38 Q130.788 1261.38 133.982 1264.07 Q137.177 1266.75 137.177 1271.25 Q137.177 1273.38 136.367 1275.3 Q135.579 1277.19 133.473 1279.79 Q132.894 1280.46 129.792 1283.68 Q126.691 1286.87 121.043 1292.63 Z" fill="#000000" fill-rule="nonzero" fill-opacity="1" /><path clip-path="url(#clip960)" d="M147.177 1290.69 L152.061 1290.69 L152.061 1296.57 L147.177 1296.57 L147.177 1290.69 Z" fill="#000000" fill-rule="nonzero" fill-opacity="1" /><path clip-path="url(#clip960)" d="M172.246 1265.09 Q168.635 1265.09 166.806 1268.65 Q165.001 1272.19 165.001 1279.32 Q165.001 1286.43 166.806 1290 Q168.635 1293.54 172.246 1293.54 Q175.88 1293.54 177.686 1290 Q179.514 1286.43 179.514 1279.32 Q179.514 1272.19 177.686 1268.65 Q175.88 1265.09 172.246 1265.09 M172.246 1261.38 Q178.056 1261.38 181.112 1265.99 Q184.19 1270.57 184.19 1279.32 Q184.19 1288.05 181.112 1292.66 Q178.056 1297.24 172.246 1297.24 Q166.436 1297.24 163.357 1292.66 Q160.302 1288.05 160.302 1279.32 Q160.302 1270.57 163.357 1265.99 Q166.436 1261.38 172.246 1261.38 Z" fill="#000000" fill-rule="nonzero" fill-opacity="1" /><path clip-path="url(#clip960)" d="M220.579 1271.11 L210 1281.73 L220.579 1292.31 L217.824 1295.11 L207.199 1284.49 L196.575 1295.11 L193.843 1292.31 L204.399 1281.73 L193.843 1271.11 L196.575 1268.31 L207.199 1278.93 L217.824 1268.31 L220.579 1271.11 Z" fill="#000000" fill-rule="nonzero" fill-opacity="1" /><path clip-path="url(#clip960)" d="M232.94 1292.63 L240.579 1292.63 L240.579 1266.27 L232.269 1267.94 L232.269 1263.68 L240.533 1262.01 L245.209 1262.01 L245.209 1292.63 L252.847 1292.63 L252.847 1296.57 L232.94 1296.57 L232.94 1292.63 Z" fill="#000000" fill-rule="nonzero" fill-opacity="1" /><path clip-path="url(#clip960)" d="M272.292 1265.09 Q268.681 1265.09 266.852 1268.65 Q265.046 1272.19 265.046 1279.32 Q265.046 1286.43 266.852 1290 Q268.681 1293.54 272.292 1293.54 Q275.926 1293.54 277.732 1290 Q279.56 1286.43 279.56 1279.32 Q279.56 1272.19 277.732 1268.65 Q275.926 1265.09 272.292 1265.09 M272.292 1261.38 Q278.102 1261.38 281.157 1265.99 Q284.236 1270.57 284.236 1279.32 Q284.236 1288.05 281.157 1292.66 Q278.102 1297.24 272.292 1297.24 Q266.482 1297.24 263.403 1292.66 Q260.347 1288.05 260.347 1279.32 Q260.347 1270.57 263.403 1265.99 Q266.482 1261.38 272.292 1261.38 Z" fill="#000000" fill-rule="nonzero" fill-opacity="1" /><path clip-path="url(#clip960)" d="M284.236 1255.49 L308.348 1255.49 L308.348 1258.68 L284.236 1258.68 L284.236 1255.49 Z" fill="#000000" fill-rule="nonzero" fill-opacity="1" /><path clip-path="url(#clip960)" d="M317.206 1265.96 L323.413 1265.96 L323.413 1244.54 L316.661 1245.89 L316.661 1242.43 L323.375 1241.08 L327.174 1241.08 L327.174 1265.96 L333.381 1265.96 L333.381 1269.16 L317.206 1269.16 L317.206 1265.96 Z" fill="#000000" fill-rule="nonzero" fill-opacity="1" /><path clip-path="url(#clip960)" d="M349.179 1243.58 Q346.245 1243.58 344.76 1246.48 Q343.292 1249.35 343.292 1255.15 Q343.292 1260.92 344.76 1263.82 Q346.245 1266.7 349.179 1266.7 Q352.132 1266.7 353.599 1263.82 Q355.085 1260.92 355.085 1255.15 Q355.085 1249.35 353.599 1246.48 Q352.132 1243.58 349.179 1243.58 M349.179 1240.57 Q353.9 1240.57 356.383 1244.31 Q358.884 1248.04 358.884 1255.15 Q358.884 1262.24 356.383 1265.98 Q353.9 1269.7 349.179 1269.7 Q344.459 1269.7 341.957 1265.98 Q339.475 1262.24 339.475 1255.15 Q339.475 1248.04 341.957 1244.31 Q344.459 1240.57 349.179 1240.57 Z" fill="#000000" fill-rule="nonzero" fill-opacity="1" /><path clip-path="url(#clip960)" d="M131.181 1100.65 Q134.538 1101.36 136.413 1103.63 Q138.311 1105.9 138.311 1109.24 Q138.311 1114.35 134.792 1117.15 Q131.274 1119.95 124.793 1119.95 Q122.617 1119.95 120.302 1119.51 Q118.01 1119.1 115.556 1118.24 L115.556 1113.73 Q117.501 1114.86 119.816 1115.44 Q122.13 1116.02 124.654 1116.02 Q129.052 1116.02 131.343 1114.28 Q133.658 1112.55 133.658 1109.24 Q133.658 1106.18 131.505 1104.47 Q129.376 1102.73 125.556 1102.73 L121.529 1102.73 L121.529 1098.89 L125.742 1098.89 Q129.191 1098.89 131.019 1097.52 Q132.848 1096.13 132.848 1093.54 Q132.848 1090.88 130.95 1089.47 Q129.075 1088.03 125.556 1088.03 Q123.635 1088.03 121.436 1088.45 Q119.237 1088.86 116.598 1089.74 L116.598 1085.58 Q119.26 1084.84 121.575 1084.47 Q123.913 1084.1 125.973 1084.1 Q131.297 1084.1 134.399 1086.53 Q137.501 1088.93 137.501 1093.05 Q137.501 1095.93 135.857 1097.92 Q134.214 1099.88 131.181 1100.65 Z" fill="#000000" fill-rule="nonzero" fill-opacity="1" /><path clip-path="url(#clip960)" d="M147.177 1113.4 L152.061 1113.4 L152.061 1119.28 L147.177 1119.28 L147.177 1113.4 Z" fill="#000000" fill-rule="nonzero" fill-opacity="1" /><path clip-path="url(#clip960)" d="M172.246 1087.8 Q168.635 1087.8 166.806 1091.36 Q165.001 1094.91 165.001 1102.04 Q165.001 1109.14 166.806 1112.71 Q168.635 1116.25 172.246 1116.25 Q175.88 1116.25 177.686 1112.71 Q179.514 1109.14 179.514 1102.04 Q179.514 1094.91 177.686 1091.36 Q175.88 1087.8 172.246 1087.8 M172.246 1084.1 Q178.056 1084.1 181.112 1088.7 Q184.19 1093.29 184.19 1102.04 Q184.19 1110.76 181.112 1115.37 Q178.056 1119.95 172.246 1119.95 Q166.436 1119.95 163.357 1115.37 Q160.302 1110.76 160.302 1102.04 Q160.302 1093.29 163.357 1088.7 Q166.436 1084.1 172.246 1084.1 Z" fill="#000000" fill-rule="nonzero" fill-opacity="1" /><path clip-path="url(#clip960)" d="M220.579 1093.82 L210 1104.44 L220.579 1115.02 L217.824 1117.82 L207.199 1107.2 L196.575 1117.82 L193.843 1115.02 L204.399 1104.44 L193.843 1093.82 L196.575 1091.02 L207.199 1101.64 L217.824 1091.02 L220.579 1093.82 Z" fill="#000000" fill-rule="nonzero" fill-opacity="1" /><path clip-path="url(#clip960)" d="M232.94 1115.35 L240.579 1115.35 L240.579 1088.98 L232.269 1090.65 L232.269 1086.39 L240.533 1084.72 L245.209 1084.72 L245.209 1115.35 L252.847 1115.35 L252.847 1119.28 L232.94 1119.28 L232.94 1115.35 Z" fill="#000000" fill-rule="nonzero" fill-opacity="1" /><path clip-path="url(#clip960)" d="M272.292 1087.8 Q268.681 1087.8 266.852 1091.36 Q265.046 1094.91 265.046 1102.04 Q265.046 1109.14 266.852 1112.71 Q268.681 1116.25 272.292 1116.25 Q275.926 1116.25 277.732 1112.71 Q279.56 1109.14 279.56 1102.04 Q279.56 1094.91 277.732 1091.36 Q275.926 1087.8 272.292 1087.8 M272.292 1084.1 Q278.102 1084.1 281.157 1088.7 Q284.236 1093.29 284.236 1102.04 Q284.236 1110.76 281.157 1115.37 Q278.102 1119.95 272.292 1119.95 Q266.482 1119.95 263.403 1115.37 Q260.347 1110.76 260.347 1102.04 Q260.347 1093.29 263.403 1088.7 Q266.482 1084.1 272.292 1084.1 Z" fill="#000000" fill-rule="nonzero" fill-opacity="1" /><path clip-path="url(#clip960)" d="M284.236 1078.2 L308.348 1078.2 L308.348 1081.4 L284.236 1081.4 L284.236 1078.2 Z" fill="#000000" fill-rule="nonzero" fill-opacity="1" /><path clip-path="url(#clip960)" d="M317.206 1088.67 L323.413 1088.67 L323.413 1067.25 L316.661 1068.61 L316.661 1065.15 L323.375 1063.79 L327.174 1063.79 L327.174 1088.67 L333.381 1088.67 L333.381 1091.87 L317.206 1091.87 L317.206 1088.67 Z" fill="#000000" fill-rule="nonzero" fill-opacity="1" /><path clip-path="url(#clip960)" d="M349.179 1066.29 Q346.245 1066.29 344.76 1069.19 Q343.292 1072.07 343.292 1077.86 Q343.292 1083.63 344.76 1086.53 Q346.245 1089.41 349.179 1089.41 Q352.132 1089.41 353.599 1086.53 Q355.085 1083.63 355.085 1077.86 Q355.085 1072.07 353.599 1069.19 Q352.132 1066.29 349.179 1066.29 M349.179 1063.28 Q353.9 1063.28 356.383 1067.03 Q358.884 1070.75 358.884 1077.86 Q358.884 1084.95 356.383 1088.69 Q353.9 1092.42 349.179 1092.42 Q344.459 1092.42 341.957 1088.69 Q339.475 1084.95 339.475 1077.86 Q339.475 1070.75 341.957 1067.03 Q344.459 1063.28 349.179 1063.28 Z" fill="#000000" fill-rule="nonzero" fill-opacity="1" /><path clip-path="url(#clip960)" d="M129.862 911.508 L118.056 929.957 L129.862 929.957 L129.862 911.508 M128.635 907.434 L134.515 907.434 L134.515 929.957 L139.445 929.957 L139.445 933.846 L134.515 933.846 L134.515 941.994 L129.862 941.994 L129.862 933.846 L114.26 933.846 L114.26 929.332 L128.635 907.434 Z" fill="#000000" fill-rule="nonzero" fill-opacity="1" /><path clip-path="url(#clip960)" d="M147.177 936.114 L152.061 936.114 L152.061 941.994 L147.177 941.994 L147.177 936.114 Z" fill="#000000" fill-rule="nonzero" fill-opacity="1" /><path clip-path="url(#clip960)" d="M172.246 910.512 Q168.635 910.512 166.806 914.077 Q165.001 917.619 165.001 924.748 Q165.001 931.855 166.806 935.42 Q168.635 938.961 172.246 938.961 Q175.88 938.961 177.686 935.42 Q179.514 931.855 179.514 924.748 Q179.514 917.619 177.686 914.077 Q175.88 910.512 172.246 910.512 M172.246 906.809 Q178.056 906.809 181.112 911.415 Q184.19 915.998 184.19 924.748 Q184.19 933.475 181.112 938.082 Q178.056 942.665 172.246 942.665 Q166.436 942.665 163.357 938.082 Q160.302 933.475 160.302 924.748 Q160.302 915.998 163.357 911.415 Q166.436 906.809 172.246 906.809 Z" fill="#000000" fill-rule="nonzero" fill-opacity="1" /><path clip-path="url(#clip960)" d="M220.579 916.531 L210 927.156 L220.579 937.734 L217.824 940.535 L207.199 929.91 L196.575 940.535 L193.843 937.734 L204.399 927.156 L193.843 916.531 L196.575 913.73 L207.199 924.355 L217.824 913.73 L220.579 916.531 Z" fill="#000000" fill-rule="nonzero" fill-opacity="1" /><path clip-path="url(#clip960)" d="M232.94 938.058 L240.579 938.058 L240.579 911.693 L232.269 913.36 L232.269 909.1 L240.533 907.434 L245.209 907.434 L245.209 938.058 L252.847 938.058 L252.847 941.994 L232.94 941.994 L232.94 938.058 Z" fill="#000000" fill-rule="nonzero" fill-opacity="1" /><path clip-path="url(#clip960)" d="M272.292 910.512 Q268.681 910.512 266.852 914.077 Q265.046 917.619 265.046 924.748 Q265.046 931.855 266.852 935.42 Q268.681 938.961 272.292 938.961 Q275.926 938.961 277.732 935.42 Q279.56 931.855 279.56 924.748 Q279.56 917.619 277.732 914.077 Q275.926 910.512 272.292 910.512 M272.292 906.809 Q278.102 906.809 281.157 911.415 Q284.236 915.998 284.236 924.748 Q284.236 933.475 281.157 938.082 Q278.102 942.665 272.292 942.665 Q266.482 942.665 263.403 938.082 Q260.347 933.475 260.347 924.748 Q260.347 915.998 263.403 911.415 Q266.482 906.809 272.292 906.809 Z" fill="#000000" fill-rule="nonzero" fill-opacity="1" /><path clip-path="url(#clip960)" d="M284.236 900.91 L308.348 900.91 L308.348 904.107 L284.236 904.107 L284.236 900.91 Z" fill="#000000" fill-rule="nonzero" fill-opacity="1" /><path clip-path="url(#clip960)" d="M317.206 911.386 L323.413 911.386 L323.413 889.964 L316.661 891.318 L316.661 887.857 L323.375 886.503 L327.174 886.503 L327.174 911.386 L333.381 911.386 L333.381 914.583 L317.206 914.583 L317.206 911.386 Z" fill="#000000" fill-rule="nonzero" fill-opacity="1" /><path clip-path="url(#clip960)" d="M349.179 889.005 Q346.245 889.005 344.76 891.901 Q343.292 894.779 343.292 900.571 Q343.292 906.345 344.76 909.242 Q346.245 912.119 349.179 912.119 Q352.132 912.119 353.599 909.242 Q355.085 906.345 355.085 900.571 Q355.085 894.779 353.599 891.901 Q352.132 889.005 349.179 889.005 M349.179 885.995 Q353.9 885.995 356.383 889.738 Q358.884 893.462 358.884 900.571 Q358.884 907.662 356.383 911.405 Q353.9 915.129 349.179 915.129 Q344.459 915.129 341.957 911.405 Q339.475 907.662 339.475 900.571 Q339.475 893.462 341.957 889.738 Q344.459 885.995 349.179 885.995 Z" fill="#000000" fill-rule="nonzero" fill-opacity="1" /><path clip-path="url(#clip960)" d="M117.061 730.146 L135.417 730.146 L135.417 734.081 L121.343 734.081 L121.343 742.553 Q122.362 742.206 123.38 742.044 Q124.399 741.859 125.418 741.859 Q131.205 741.859 134.584 745.03 Q137.964 748.201 137.964 753.618 Q137.964 759.196 134.492 762.298 Q131.019 765.377 124.7 765.377 Q122.524 765.377 120.255 765.007 Q118.01 764.636 115.603 763.896 L115.603 759.196 Q117.686 760.331 119.908 760.886 Q122.13 761.442 124.607 761.442 Q128.612 761.442 130.95 759.335 Q133.288 757.229 133.288 753.618 Q133.288 750.007 130.95 747.9 Q128.612 745.794 124.607 745.794 Q122.732 745.794 120.857 746.21 Q119.006 746.627 117.061 747.507 L117.061 730.146 Z" fill="#000000" fill-rule="nonzero" fill-opacity="1" /><path clip-path="url(#clip960)" d="M147.177 758.826 L152.061 758.826 L152.061 764.706 L147.177 764.706 L147.177 758.826 Z" fill="#000000" fill-rule="nonzero" fill-opacity="1" /><path clip-path="url(#clip960)" d="M172.246 733.224 Q168.635 733.224 166.806 736.789 Q165.001 740.331 165.001 747.46 Q165.001 754.567 166.806 758.132 Q168.635 761.673 172.246 761.673 Q175.88 761.673 177.686 758.132 Q179.514 754.567 179.514 747.46 Q179.514 740.331 177.686 736.789 Q175.88 733.224 172.246 733.224 M172.246 729.521 Q178.056 729.521 181.112 734.127 Q184.19 738.71 184.19 747.46 Q184.19 756.187 181.112 760.794 Q178.056 765.377 172.246 765.377 Q166.436 765.377 163.357 760.794 Q160.302 756.187 160.302 747.46 Q160.302 738.71 163.357 734.127 Q166.436 729.521 172.246 729.521 Z" fill="#000000" fill-rule="nonzero" fill-opacity="1" /><path clip-path="url(#clip960)" d="M220.579 739.243 L210 749.868 L220.579 760.446 L217.824 763.247 L207.199 752.622 L196.575 763.247 L193.843 760.446 L204.399 749.868 L193.843 739.243 L196.575 736.442 L207.199 747.067 L217.824 736.442 L220.579 739.243 Z" fill="#000000" fill-rule="nonzero" fill-opacity="1" /><path clip-path="url(#clip960)" d="M232.94 760.771 L240.579 760.771 L240.579 734.405 L232.269 736.072 L232.269 731.812 L240.533 730.146 L245.209 730.146 L245.209 760.771 L252.847 760.771 L252.847 764.706 L232.94 764.706 L232.94 760.771 Z" fill="#000000" fill-rule="nonzero" fill-opacity="1" /><path clip-path="url(#clip960)" d="M272.292 733.224 Q268.681 733.224 266.852 736.789 Q265.046 740.331 265.046 747.46 Q265.046 754.567 266.852 758.132 Q268.681 761.673 272.292 761.673 Q275.926 761.673 277.732 758.132 Q279.56 754.567 279.56 747.46 Q279.56 740.331 277.732 736.789 Q275.926 733.224 272.292 733.224 M272.292 729.521 Q278.102 729.521 281.157 734.127 Q284.236 738.71 284.236 747.46 Q284.236 756.187 281.157 760.794 Q278.102 765.377 272.292 765.377 Q266.482 765.377 263.403 760.794 Q260.347 756.187 260.347 747.46 Q260.347 738.71 263.403 734.127 Q266.482 729.521 272.292 729.521 Z" fill="#000000" fill-rule="nonzero" fill-opacity="1" /><path clip-path="url(#clip960)" d="M284.236 723.622 L308.348 723.622 L308.348 726.819 L284.236 726.819 L284.236 723.622 Z" fill="#000000" fill-rule="nonzero" fill-opacity="1" /><path clip-path="url(#clip960)" d="M317.206 734.098 L323.413 734.098 L323.413 712.676 L316.661 714.03 L316.661 710.569 L323.375 709.215 L327.174 709.215 L327.174 734.098 L333.381 734.098 L333.381 737.295 L317.206 737.295 L317.206 734.098 Z" fill="#000000" fill-rule="nonzero" fill-opacity="1" /><path clip-path="url(#clip960)" d="M349.179 711.717 Q346.245 711.717 344.76 714.613 Q343.292 717.491 343.292 723.284 Q343.292 729.058 344.76 731.954 Q346.245 734.832 349.179 734.832 Q352.132 734.832 353.599 731.954 Q355.085 729.058 355.085 723.284 Q355.085 717.491 353.599 714.613 Q352.132 711.717 349.179 711.717 M349.179 708.708 Q353.9 708.708 356.383 712.45 Q358.884 716.174 358.884 723.284 Q358.884 730.374 356.383 734.117 Q353.9 737.841 349.179 737.841 Q344.459 737.841 341.957 734.117 Q339.475 730.374 339.475 723.284 Q339.475 716.174 341.957 712.45 Q344.459 708.708 349.179 708.708 Z" fill="#000000" fill-rule="nonzero" fill-opacity="1" /><path clip-path="url(#clip960)" d="M127.593 568.274 Q124.445 568.274 122.593 570.427 Q120.765 572.58 120.765 576.33 Q120.765 580.057 122.593 582.233 Q124.445 584.385 127.593 584.385 Q130.742 584.385 132.57 582.233 Q134.422 580.057 134.422 576.33 Q134.422 572.58 132.57 570.427 Q130.742 568.274 127.593 568.274 M136.876 553.622 L136.876 557.881 Q135.117 557.048 133.311 556.608 Q131.529 556.168 129.769 556.168 Q125.14 556.168 122.686 559.293 Q120.255 562.418 119.908 568.737 Q121.274 566.724 123.334 565.659 Q125.394 564.571 127.871 564.571 Q133.08 564.571 136.089 567.742 Q139.121 570.89 139.121 576.33 Q139.121 581.654 135.973 584.872 Q132.825 588.089 127.593 588.089 Q121.598 588.089 118.427 583.506 Q115.256 578.899 115.256 570.173 Q115.256 561.978 119.144 557.117 Q123.033 552.233 129.584 552.233 Q131.343 552.233 133.126 552.58 Q134.931 552.927 136.876 553.622 Z" fill="#000000" fill-rule="nonzero" fill-opacity="1" /><path clip-path="url(#clip960)" d="M147.177 581.538 L152.061 581.538 L152.061 587.418 L147.177 587.418 L147.177 581.538 Z" fill="#000000" fill-rule="nonzero" fill-opacity="1" /><path clip-path="url(#clip960)" d="M172.246 555.937 Q168.635 555.937 166.806 559.501 Q165.001 563.043 165.001 570.173 Q165.001 577.279 166.806 580.844 Q168.635 584.385 172.246 584.385 Q175.88 584.385 177.686 580.844 Q179.514 577.279 179.514 570.173 Q179.514 563.043 177.686 559.501 Q175.88 555.937 172.246 555.937 M172.246 552.233 Q178.056 552.233 181.112 556.839 Q184.19 561.423 184.19 570.173 Q184.19 578.899 181.112 583.506 Q178.056 588.089 172.246 588.089 Q166.436 588.089 163.357 583.506 Q160.302 578.899 160.302 570.173 Q160.302 561.423 163.357 556.839 Q166.436 552.233 172.246 552.233 Z" fill="#000000" fill-rule="nonzero" fill-opacity="1" /><path clip-path="url(#clip960)" d="M220.579 561.955 L210 572.58 L220.579 583.159 L217.824 585.96 L207.199 575.335 L196.575 585.96 L193.843 583.159 L204.399 572.58 L193.843 561.955 L196.575 559.154 L207.199 569.779 L217.824 559.154 L220.579 561.955 Z" fill="#000000" fill-rule="nonzero" fill-opacity="1" /><path clip-path="url(#clip960)" d="M232.94 583.483 L240.579 583.483 L240.579 557.117 L232.269 558.784 L232.269 554.524 L240.533 552.858 L245.209 552.858 L245.209 583.483 L252.847 583.483 L252.847 587.418 L232.94 587.418 L232.94 583.483 Z" fill="#000000" fill-rule="nonzero" fill-opacity="1" /><path clip-path="url(#clip960)" d="M272.292 555.937 Q268.681 555.937 266.852 559.501 Q265.046 563.043 265.046 570.173 Q265.046 577.279 266.852 580.844 Q268.681 584.385 272.292 584.385 Q275.926 584.385 277.732 580.844 Q279.56 577.279 279.56 570.173 Q279.56 563.043 277.732 559.501 Q275.926 555.937 272.292 555.937 M272.292 552.233 Q278.102 552.233 281.157 556.839 Q284.236 561.423 284.236 570.173 Q284.236 578.899 281.157 583.506 Q278.102 588.089 272.292 588.089 Q266.482 588.089 263.403 583.506 Q260.347 578.899 260.347 570.173 Q260.347 561.423 263.403 556.839 Q266.482 552.233 272.292 552.233 Z" fill="#000000" fill-rule="nonzero" fill-opacity="1" /><path clip-path="url(#clip960)" d="M284.236 546.334 L308.348 546.334 L308.348 549.532 L284.236 549.532 L284.236 546.334 Z" fill="#000000" fill-rule="nonzero" fill-opacity="1" /><path clip-path="url(#clip960)" d="M317.206 556.81 L323.413 556.81 L323.413 535.388 L316.661 536.742 L316.661 533.282 L323.375 531.927 L327.174 531.927 L327.174 556.81 L333.381 556.81 L333.381 560.007 L317.206 560.007 L317.206 556.81 Z" fill="#000000" fill-rule="nonzero" fill-opacity="1" /><path clip-path="url(#clip960)" d="M349.179 534.429 Q346.245 534.429 344.76 537.325 Q343.292 540.203 343.292 545.996 Q343.292 551.77 344.76 554.666 Q346.245 557.544 349.179 557.544 Q352.132 557.544 353.599 554.666 Q355.085 551.77 355.085 545.996 Q355.085 540.203 353.599 537.325 Q352.132 534.429 349.179 534.429 M349.179 531.42 Q353.9 531.42 356.383 535.162 Q358.884 538.886 358.884 545.996 Q358.884 553.086 356.383 556.829 Q353.9 560.553 349.179 560.553 Q344.459 560.553 341.957 556.829 Q339.475 553.086 339.475 545.996 Q339.475 538.886 341.957 535.162 Q344.459 531.42 349.179 531.42 Z" fill="#000000" fill-rule="nonzero" fill-opacity="1" /><path clip-path="url(#clip960)" d="M115.834 375.57 L138.056 375.57 L138.056 377.561 L125.51 410.13 L120.626 410.13 L132.431 379.505 L115.834 379.505 L115.834 375.57 Z" fill="#000000" fill-rule="nonzero" fill-opacity="1" /><path clip-path="url(#clip960)" d="M147.177 404.25 L152.061 404.25 L152.061 410.13 L147.177 410.13 L147.177 404.25 Z" fill="#000000" fill-rule="nonzero" fill-opacity="1" /><path clip-path="url(#clip960)" d="M172.246 378.649 Q168.635 378.649 166.806 382.213 Q165.001 385.755 165.001 392.885 Q165.001 399.991 166.806 403.556 Q168.635 407.098 172.246 407.098 Q175.88 407.098 177.686 403.556 Q179.514 399.991 179.514 392.885 Q179.514 385.755 177.686 382.213 Q175.88 378.649 172.246 378.649 M172.246 374.945 Q178.056 374.945 181.112 379.551 Q184.19 384.135 184.19 392.885 Q184.19 401.611 181.112 406.218 Q178.056 410.801 172.246 410.801 Q166.436 410.801 163.357 406.218 Q160.302 401.611 160.302 392.885 Q160.302 384.135 163.357 379.551 Q166.436 374.945 172.246 374.945 Z" fill="#000000" fill-rule="nonzero" fill-opacity="1" /><path clip-path="url(#clip960)" d="M220.579 384.667 L210 395.292 L220.579 405.871 L217.824 408.672 L207.199 398.047 L196.575 408.672 L193.843 405.871 L204.399 395.292 L193.843 384.667 L196.575 381.866 L207.199 392.491 L217.824 381.866 L220.579 384.667 Z" fill="#000000" fill-rule="nonzero" fill-opacity="1" /><path clip-path="url(#clip960)" d="M232.94 406.195 L240.579 406.195 L240.579 379.829 L232.269 381.496 L232.269 377.237 L240.533 375.57 L245.209 375.57 L245.209 406.195 L252.847 406.195 L252.847 410.13 L232.94 410.13 L232.94 406.195 Z" fill="#000000" fill-rule="nonzero" fill-opacity="1" /><path clip-path="url(#clip960)" d="M272.292 378.649 Q268.681 378.649 266.852 382.213 Q265.046 385.755 265.046 392.885 Q265.046 399.991 266.852 403.556 Q268.681 407.098 272.292 407.098 Q275.926 407.098 277.732 403.556 Q279.56 399.991 279.56 392.885 Q279.56 385.755 277.732 382.213 Q275.926 378.649 272.292 378.649 M272.292 374.945 Q278.102 374.945 281.157 379.551 Q284.236 384.135 284.236 392.885 Q284.236 401.611 281.157 406.218 Q278.102 410.801 272.292 410.801 Q266.482 410.801 263.403 406.218 Q260.347 401.611 260.347 392.885 Q260.347 384.135 263.403 379.551 Q266.482 374.945 272.292 374.945 Z" fill="#000000" fill-rule="nonzero" fill-opacity="1" /><path clip-path="url(#clip960)" d="M284.236 369.046 L308.348 369.046 L308.348 372.244 L284.236 372.244 L284.236 369.046 Z" fill="#000000" fill-rule="nonzero" fill-opacity="1" /><path clip-path="url(#clip960)" d="M317.206 379.522 L323.413 379.522 L323.413 358.1 L316.661 359.454 L316.661 355.994 L323.375 354.64 L327.174 354.64 L327.174 379.522 L333.381 379.522 L333.381 382.72 L317.206 382.72 L317.206 379.522 Z" fill="#000000" fill-rule="nonzero" fill-opacity="1" /><path clip-path="url(#clip960)" d="M349.179 357.141 Q346.245 357.141 344.76 360.037 Q343.292 362.915 343.292 368.708 Q343.292 374.482 344.76 377.378 Q346.245 380.256 349.179 380.256 Q352.132 380.256 353.599 377.378 Q355.085 374.482 355.085 368.708 Q355.085 362.915 353.599 360.037 Q352.132 357.141 349.179 357.141 M349.179 354.132 Q353.9 354.132 356.383 357.874 Q358.884 361.598 358.884 368.708 Q358.884 375.798 356.383 379.541 Q353.9 383.265 349.179 383.265 Q344.459 383.265 341.957 379.541 Q339.475 375.798 339.475 368.708 Q339.475 361.598 341.957 357.874 Q344.459 354.132 349.179 354.132 Z" fill="#000000" fill-rule="nonzero" fill-opacity="1" /><path clip-path="url(#clip960)" d="M127.015 216.43 Q123.681 216.43 121.76 218.213 Q119.862 219.995 119.862 223.12 Q119.862 226.245 121.76 228.027 Q123.681 229.81 127.015 229.81 Q130.348 229.81 132.269 228.027 Q134.191 226.222 134.191 223.12 Q134.191 219.995 132.269 218.213 Q130.371 216.43 127.015 216.43 M122.339 214.439 Q119.33 213.699 117.64 211.638 Q115.973 209.578 115.973 206.615 Q115.973 202.472 118.913 200.064 Q121.876 197.657 127.015 197.657 Q132.177 197.657 135.117 200.064 Q138.056 202.472 138.056 206.615 Q138.056 209.578 136.367 211.638 Q134.7 213.699 131.714 214.439 Q135.093 215.226 136.968 217.518 Q138.867 219.81 138.867 223.12 Q138.867 228.143 135.788 230.828 Q132.732 233.513 127.015 233.513 Q121.297 233.513 118.218 230.828 Q115.163 228.143 115.163 223.12 Q115.163 219.81 117.061 217.518 Q118.959 215.226 122.339 214.439 M120.626 207.055 Q120.626 209.74 122.293 211.245 Q123.982 212.75 127.015 212.75 Q130.024 212.75 131.714 211.245 Q133.427 209.74 133.427 207.055 Q133.427 204.37 131.714 202.865 Q130.024 201.361 127.015 201.361 Q123.982 201.361 122.293 202.865 Q120.626 204.37 120.626 207.055 Z" fill="#000000" fill-rule="nonzero" fill-opacity="1" /><path clip-path="url(#clip960)" d="M147.177 226.962 L152.061 226.962 L152.061 232.842 L147.177 232.842 L147.177 226.962 Z" fill="#000000" fill-rule="nonzero" fill-opacity="1" /><path clip-path="url(#clip960)" d="M172.246 201.361 Q168.635 201.361 166.806 204.926 Q165.001 208.467 165.001 215.597 Q165.001 222.703 166.806 226.268 Q168.635 229.81 172.246 229.81 Q175.88 229.81 177.686 226.268 Q179.514 222.703 179.514 215.597 Q179.514 208.467 177.686 204.926 Q175.88 201.361 172.246 201.361 M172.246 197.657 Q178.056 197.657 181.112 202.264 Q184.19 206.847 184.19 215.597 Q184.19 224.324 181.112 228.93 Q178.056 233.513 172.246 233.513 Q166.436 233.513 163.357 228.93 Q160.302 224.324 160.302 215.597 Q160.302 206.847 163.357 202.264 Q166.436 197.657 172.246 197.657 Z" fill="#000000" fill-rule="nonzero" fill-opacity="1" /><path clip-path="url(#clip960)" d="M220.579 207.379 L210 218.004 L220.579 228.583 L217.824 231.384 L207.199 220.759 L196.575 231.384 L193.843 228.583 L204.399 218.004 L193.843 207.379 L196.575 204.578 L207.199 215.203 L217.824 204.578 L220.579 207.379 Z" fill="#000000" fill-rule="nonzero" fill-opacity="1" /><path clip-path="url(#clip960)" d="M232.94 228.907 L240.579 228.907 L240.579 202.541 L232.269 204.208 L232.269 199.949 L240.533 198.282 L245.209 198.282 L245.209 228.907 L252.847 228.907 L252.847 232.842 L232.94 232.842 L232.94 228.907 Z" fill="#000000" fill-rule="nonzero" fill-opacity="1" /><path clip-path="url(#clip960)" d="M272.292 201.361 Q268.681 201.361 266.852 204.926 Q265.046 208.467 265.046 215.597 Q265.046 222.703 266.852 226.268 Q268.681 229.81 272.292 229.81 Q275.926 229.81 277.732 226.268 Q279.56 222.703 279.56 215.597 Q279.56 208.467 277.732 204.926 Q275.926 201.361 272.292 201.361 M272.292 197.657 Q278.102 197.657 281.157 202.264 Q284.236 206.847 284.236 215.597 Q284.236 224.324 281.157 228.93 Q278.102 233.513 272.292 233.513 Q266.482 233.513 263.403 228.93 Q260.347 224.324 260.347 215.597 Q260.347 206.847 263.403 202.264 Q266.482 197.657 272.292 197.657 Z" fill="#000000" fill-rule="nonzero" fill-opacity="1" /><path clip-path="url(#clip960)" d="M284.236 191.758 L308.348 191.758 L308.348 194.956 L284.236 194.956 L284.236 191.758 Z" fill="#000000" fill-rule="nonzero" fill-opacity="1" /><path clip-path="url(#clip960)" d="M317.206 202.234 L323.413 202.234 L323.413 180.812 L316.661 182.166 L316.661 178.706 L323.375 177.352 L327.174 177.352 L327.174 202.234 L333.381 202.234 L333.381 205.432 L317.206 205.432 L317.206 202.234 Z" fill="#000000" fill-rule="nonzero" fill-opacity="1" /><path clip-path="url(#clip960)" d="M349.179 179.853 Q346.245 179.853 344.76 182.749 Q343.292 185.627 343.292 191.42 Q343.292 197.194 344.76 200.09 Q346.245 202.968 349.179 202.968 Q352.132 202.968 353.599 200.09 Q355.085 197.194 355.085 191.42 Q355.085 185.627 353.599 182.749 Q352.132 179.853 349.179 179.853 M349.179 176.844 Q353.9 176.844 356.383 180.587 Q358.884 184.311 358.884 191.42 Q358.884 198.51 356.383 202.253 Q353.9 205.977 349.179 205.977 Q344.459 205.977 341.957 202.253 Q339.475 198.51 339.475 191.42 Q339.475 184.311 341.957 180.587 Q344.459 176.844 349.179 176.844 Z" fill="#000000" fill-rule="nonzero" fill-opacity="1" /><path clip-path="url(#clip960)" d="M14.479 902.328 L14.479 896.471 L64.0042 896.471 L64.0042 902.328 L14.479 902.328 Z" fill="#000000" fill-rule="nonzero" fill-opacity="1" /><path clip-path="url(#clip960)" d="M14.5426 870.149 Q21.8632 874.414 29.0246 876.483 Q36.186 878.552 43.5384 878.552 Q50.8908 878.552 58.1159 876.483 Q65.3091 874.382 72.5979 870.149 L72.5979 875.242 Q65.1182 880.016 57.8931 882.403 Q50.668 884.758 43.5384 884.758 Q36.4406 884.758 29.2474 882.403 Q22.0542 880.048 14.5426 875.242 L14.5426 870.149 Z" fill="#000000" fill-rule="nonzero" fill-opacity="1" /><path clip-path="url(#clip960)" d="M14.479 858.786 L14.479 852.93 L64.0042 852.93 L64.0042 858.786 L14.479 858.786 Z" fill="#000000" fill-rule="nonzero" fill-opacity="1" /><path clip-path="url(#clip960)" d="M23.1363 816.836 L40.8648 816.836 L40.8648 799.108 L46.2757 799.108 L46.2757 816.836 L64.0042 816.836 L64.0042 822.183 L46.2757 822.183 L46.2757 839.912 L40.8648 839.912 L40.8648 822.183 L23.1363 822.183 L23.1363 816.836 Z" fill="#000000" fill-rule="nonzero" fill-opacity="1" /><path clip-path="url(#clip960)" d="M58.5933 784.117 L58.5933 773.613 L22.3406 773.613 L24.6323 785.04 L18.7758 785.04 L16.4842 773.677 L16.4842 767.247 L58.5933 767.247 L58.5933 756.744 L64.0042 756.744 L64.0042 784.117 L58.5933 784.117 Z" fill="#000000" fill-rule="nonzero" fill-opacity="1" /><path clip-path="url(#clip960)" d="M14.5426 745.508 L14.5426 740.416 Q22.0542 735.642 29.2474 733.286 Q36.4406 730.899 43.5384 730.899 Q50.668 730.899 57.8931 733.286 Q65.1182 735.642 72.5979 740.416 L72.5979 745.508 Q65.3091 741.275 58.1159 739.206 Q50.8908 737.106 43.5384 737.106 Q36.186 737.106 29.0246 739.206 Q21.8632 741.275 14.5426 745.508 Z" fill="#000000" fill-rule="nonzero" fill-opacity="1" /><path clip-path="url(#clip960)" d="M20.1444 683.316 L26.9239 683.316 Q23.9002 686.562 22.4043 690.254 Q20.9083 693.914 20.9083 698.052 Q20.9083 706.2 25.9054 710.529 Q30.8707 714.858 40.2919 714.858 Q49.6813 714.858 54.6784 710.529 Q59.6436 706.2 59.6436 698.052 Q59.6436 693.914 58.1477 690.254 Q56.6518 686.562 53.6281 683.316 L60.3439 683.316 Q62.6355 686.689 63.7814 690.477 Q64.9272 694.233 64.9272 698.434 Q64.9272 709.224 58.3387 715.431 Q51.7183 721.637 40.2919 721.637 Q28.8336 721.637 22.2451 715.431 Q15.6248 709.224 15.6248 698.434 Q15.6248 694.169 16.7706 690.413 Q17.8846 686.626 20.1444 683.316 Z" fill="#000000" fill-rule="nonzero" fill-opacity="1" /><path clip-path="url(#clip960)" d="M36.2815 675.899 L36.2815 672.207 L64.0042 672.207 L64.0042 675.899 L36.2815 675.899 Z" fill="#000000" fill-rule="nonzero" fill-opacity="1" /><path clip-path="url(#clip960)" d="M16.4842 652.41 L16.4842 646.999 L70.0516 663.55 L70.0516 668.961 L16.4842 652.41 Z" fill="#000000" fill-rule="nonzero" fill-opacity="1" /><path clip-path="url(#clip960)" d="M58.5933 634.491 L58.5933 612.051 L64.0042 612.051 L64.0042 642.225 L58.5933 642.225 Q54.8057 638.565 48.44 632.263 Q42.0425 625.929 40.1964 624.305 Q36.7271 621.218 34.34 620.009 Q31.921 618.767 29.5975 618.767 Q25.8099 618.767 23.4228 621.441 Q21.0356 624.083 21.0356 628.348 Q21.0356 631.371 22.086 634.745 Q23.1363 638.087 25.2688 641.907 L18.7758 641.907 Q17.2162 638.024 16.4205 634.65 Q15.6248 631.276 15.6248 628.475 Q15.6248 621.091 19.3169 616.698 Q23.009 612.306 29.1837 612.306 Q32.112 612.306 34.7537 613.42 Q37.3637 614.502 40.9285 617.399 Q41.8515 618.194 46.2757 622.459 Q50.668 626.724 58.5933 634.491 Z" fill="#000000" fill-rule="nonzero" fill-opacity="1" /><path clip-path="url(#clip960)" d="M28.3562 603.171 L28.3562 569.019 L34.2127 569.019 L34.2127 573.507 L56.1107 573.507 Q58.4023 573.507 59.4208 572.743 Q60.4075 571.948 60.4075 570.197 Q60.4075 569.72 60.3439 569.019 Q60.2484 568.319 60.2166 568.096 L64.4498 568.096 Q64.8635 569.21 65.0545 570.388 Q65.2455 571.566 65.2455 572.743 Q65.2455 576.563 63.1766 578.027 Q61.0759 579.491 55.4741 579.491 L34.2127 579.491 L34.2127 592.636 L64.0042 592.636 L64.0042 598.62 L34.2127 598.62 L34.2127 603.171 L28.3562 603.171 Z" fill="#000000" fill-rule="nonzero" fill-opacity="1" /><path clip-path="url(#clip961)" d="M450.296 1384.24 L452.22 1378.76 L454.144 1373.45 L456.068 1368.29 L457.992 1363.28 L459.916 1358.4 L461.84 1353.64 L463.764 1348.98 L465.688 1344.4 L467.612 1339.89 L469.536 1335.42 L471.46 1330.97 L473.384 1326.52 L475.308 1322.03 L477.232 1317.48 L479.156 1312.85 L481.08 1308.08 L483.004 1303.17 L484.928 1298.05 L486.852 1292.71 L488.776 1287.1 L490.7 1281.36 L492.624 1275.67 L494.548 1270.01 L496.472 1264.39 L498.396 1258.8 L500.32 1253.23 L502.244 1247.67 L504.168 1242.11 L506.092 1236.55 L508.016 1230.97 L509.94 1225.36 L511.864 1219.72 L513.788 1214.03 L515.712 1208.28 L517.636 1202.46 L519.56 1196.56 L521.484 1190.56 L523.408 1184.45 L525.332 1178.22 L527.256 1171.84 L529.18 1165.39 L531.104 1158.94 L533.028 1152.49 L534.952 1146.03 L536.876 1139.57 L538.8 1133.08 L540.724 1126.58 L542.648 1120.06 L544.572 1113.5 L546.496 1106.92 L548.42 1100.29 L550.344 1093.62 L552.268 1086.89 L554.192 1080.11 L556.116 1073.26 L558.04 1066.35 L559.964 1059.35 L561.888 1052.28 L563.812 1045.11 L565.736 1037.84 L567.66 1030.52 L569.584 1023.19 L571.508 1015.85 L573.432 1008.51 L575.356 1001.15 L577.28 993.786 L579.204 986.403 L581.128 979.002 L583.052 971.583 L584.976 964.142 L586.9 956.677 L588.824 949.185 L590.748 941.665 L592.672 934.113 L594.596 926.527 L596.52 918.903 L598.444 911.239 L600.368 903.533 L602.292 895.779 L604.216 887.977 L606.14 880.149 L608.064 872.322 L609.988 864.495 L611.912 856.668 L613.836 848.84 L615.76 841.009 L617.684 833.176 L619.608 825.34 L621.532 817.498 L623.456 809.652 L625.38 801.798 L627.304 793.938 L629.228 786.068 L631.152 778.189 L633.076 770.298 L635 762.396 L636.924 754.48 L638.849 746.548 L640.773 738.601 L642.697 730.636 L644.621 722.676 L646.545 714.745 L648.469 706.842 L650.393 698.97 L652.317 691.127 L654.241 683.316 L656.165 675.535 L658.089 667.787 L660.013 660.07 L661.937 652.386 L663.861 644.736 L665.785 637.118 L667.709 629.535 L669.633 621.985 L671.557 614.471 L673.481 606.991 L675.405 599.547 L677.329 592.138 L679.253 584.766 L681.177 577.429 L683.101 570.139 L685.025 562.906 L686.949 555.73 L688.873 548.613 L690.797 541.556 L692.721 534.56 L694.645 527.625 L696.569 520.753 L698.493 513.944 L700.417 507.2 L702.341 500.522 L704.265 493.909 L706.189 487.365 L708.113 480.888 L710.037 474.481 L711.961 468.144 L713.885 461.878 L715.809 455.685 L717.733 449.564 L719.657 443.516 L721.581 437.551 L723.505 431.674 L725.429 425.888 L727.353 420.194 L729.277 414.593 L731.201 409.087 L733.125 403.676 L735.049 398.363 L736.973 393.149 L738.897 388.034 L740.821 383.021 L742.745 378.11 L744.669 373.303 L746.593 368.601 L748.517 364.006 L750.441 359.519 L752.365 355.14 L754.289 350.873 L756.213 346.717 L758.137 342.675 L760.061 338.744 L761.985 334.923 L763.909 331.212 L765.833 327.615 L767.757 324.13 L769.681 320.76 L771.605 317.505 L773.529 314.367 L775.453 311.347 L777.377 308.446 L779.301 305.665 L781.225 303.006 L783.149 300.468 L785.073 298.054 L786.997 295.765 L788.921 293.601 L790.845 291.564 L792.769 289.655 L794.693 287.874 L796.617 286.224 L798.541 284.701 L800.465 283.302 L802.389 282.029 L804.313 280.881 L806.237 279.859 L808.161 278.966 L810.085 278.201 L812.009 277.565 L813.933 277.059 L815.857 276.684 L817.781 276.441 L819.705 276.331 L821.629 276.354 L823.553 276.512 L825.477 276.804 L827.401 277.232 L829.325 277.798 L831.249 278.5 L833.173 279.341 L835.097 280.321 L837.021 281.431 L838.945 282.662 L840.869 284.013 L842.793 285.486 L844.717 287.08 L846.641 288.796 L848.566 290.634 L850.49 292.594 L852.414 294.676 L854.338 296.881 L856.262 299.209 L858.186 301.659 L860.11 304.233 L862.034 306.93 L863.958 309.751 L865.882 312.695 L867.806 315.764 L869.73 318.956 L871.654 322.272 L873.578 325.712 L875.502 329.269 L877.426 332.932 L879.35 336.702 L881.274 340.579 L883.198 344.562 L885.122 348.651 L887.046 352.845 L888.97 357.144 L890.894 361.548 L892.818 366.056 L894.742 370.668 L896.666 375.384 L898.59 380.203 L900.514 385.124 L902.438 390.148 L904.362 395.273 L906.286 400.5 L908.21 405.827 L910.134 411.255 L912.058 416.783 L913.982 422.4 L915.906 428.098 L917.83 433.875 L919.754 439.73 L921.678 445.663 L923.602 451.672 L925.526 457.756 L927.45 463.914 L929.374 470.146 L931.298 476.45 L933.222 482.824 L935.146 489.269 L937.07 495.783 L938.994 502.365 L940.918 509.013 L942.842 515.727 L944.766 522.506 L946.69 529.347 L948.614 536.251 L950.538 543.215 L952.462 550.234 L954.386 557.299 L956.31 564.41 L958.234 571.565 L960.158 578.762 L962.082 586 L964.006 593.278 L965.93 600.593 L967.854 607.945 L969.778 615.331 L971.702 622.75 L973.626 630.201 L975.55 637.682 L977.474 645.19 L979.398 652.725 L981.322 660.285 L983.246 667.868 L985.17 675.472 L987.094 683.096 L989.018 690.738 L990.942 698.394 L992.866 706.06 L994.79 713.733 L996.714 721.413 L998.638 729.098 L1000.56 736.785 L1002.49 744.472 L1004.41 752.157 L1006.33 759.84 L1008.26 767.516 L1010.18 775.185 L1012.11 782.844 L1014.03 790.492 L1015.95 798.126 L1017.88 805.744 L1019.8 813.344 L1021.73 820.924 L1023.65 828.482 L1025.57 836.016 L1027.5 843.523 L1029.42 851.005 L1031.35 858.463 L1033.27 865.897 L1035.19 873.303 L1037.12 880.679 L1039.04 888.024 L1040.97 895.335 L1042.89 902.61 L1044.81 909.847 L1046.74 917.043 L1048.66 924.197 L1050.59 931.305 L1052.51 938.367 L1054.43 945.379 L1056.36 952.34 L1058.28 959.246 L1060.21 966.096 L1062.13 972.888 L1064.05 979.619 L1065.98 986.286 L1067.9 992.896 L1069.83 999.454 L1071.75 1005.96 L1073.67 1012.41 L1075.6 1018.8 L1077.52 1025.13 L1079.45 1031.4 L1081.37 1037.6 L1083.29 1043.74 L1085.22 1049.81 L1087.14 1055.81 L1089.07 1061.73 L1090.99 1067.58 L1092.91 1073.35 L1094.84 1079.04 L1096.76 1084.65 L1098.69 1090.17 L1100.61 1095.61 L1102.53 1100.95 L1104.46 1106.2 L1106.38 1111.38 L1108.31 1116.48 L1110.23 1121.51 L1112.15 1126.48 L1114.08 1131.36 L1116 1136.17 L1117.93 1140.9 L1119.85 1145.56 L1121.77 1150.12 L1123.7 1154.61 L1125.62 1159 L1127.55 1163.31 L1129.47 1167.53 L1131.39 1171.65 L1133.32 1175.68 L1135.24 1179.61 L1137.17 1183.44 L1139.09 1187.17 L1141.01 1190.8 L1142.94 1194.32 L1144.86 1197.75 L1146.79 1201.1 L1148.71 1204.38 L1150.63 1207.58 L1152.56 1210.69 L1154.48 1213.73 L1156.41 1216.68 L1158.33 1219.55 L1160.25 1222.33 L1162.18 1225.02 L1164.1 1227.62 L1166.03 1230.13 L1167.95 1232.54 L1169.88 1234.86 L1171.8 1237.08 L1173.72 1239.19 L1175.65 1241.21 L1177.57 1243.13 L1179.5 1244.93 L1181.42 1246.64 L1183.34 1248.25 L1185.27 1249.79 L1187.19 1251.26 L1189.12 1252.66 L1191.04 1253.98 L1192.96 1255.23 L1194.89 1256.4 L1196.81 1257.49 L1198.74 1258.51 L1200.66 1259.44 L1202.58 1260.29 L1204.51 1261.05 L1206.43 1261.73 L1208.36 1262.33 L1210.28 1262.84 L1212.2 1263.25 L1214.13 1263.58 L1216.05 1263.82 L1217.98 1263.96 L1219.9 1264 L1221.82 1263.98 L1223.75 1263.89 L1225.67 1263.75 L1227.6 1263.55 L1229.52 1263.29 L1231.44 1262.98 L1233.37 1262.6 L1235.29 1262.16 L1237.22 1261.66 L1239.14 1261.1 L1241.06 1260.47 L1242.99 1259.78 L1244.91 1259.03 L1246.84 1258.2 L1248.76 1257.31 L1250.68 1256.35 L1252.61 1255.33 L1254.53 1254.23 L1256.46 1253.06 L1258.38 1251.82 L1260.3 1250.52 L1262.23 1249.19 L1264.15 1247.82 L1266.08 1246.42 L1268 1244.98 L1269.92 1243.5 L1271.85 1241.98 L1273.77 1240.43 L1275.7 1238.84 L1277.62 1237.21 L1279.54 1235.54 L1281.47 1233.83 L1283.39 1232.08 L1285.32 1230.28 L1287.24 1228.45 L1289.16 1226.58 L1291.09 1224.66 L1293.01 1222.7 L1294.94 1220.69 L1296.86 1218.65 L1298.78 1216.57 L1300.71 1214.48 L1302.63 1212.38 L1304.56 1210.27 L1306.48 1208.14 L1308.4 1206.01 L1310.33 1203.86 L1312.25 1201.7 L1314.18 1199.52 L1316.1 1197.33 L1318.02 1195.13 L1319.95 1192.92 L1321.87 1190.69 L1323.8 1188.46 L1325.72 1186.2 L1327.64 1183.94 L1329.57 1181.66 L1331.49 1179.37 L1333.42 1177.06 L1335.34 1174.74 L1337.26 1172.42 L1339.19 1170.11 L1341.11 1167.81 L1343.04 1165.52 L1344.96 1163.24 L1346.88 1160.98 L1348.81 1158.72 L1350.73 1156.48 L1352.66 1154.24 L1354.58 1152.02 L1356.5 1149.81 L1358.43 1147.62 L1360.35 1145.43 L1362.28 1143.26 L1364.2 1141.1 L1366.12 1138.96 L1368.05 1136.83 L1369.97 1134.71 L1371.9 1132.6 L1373.82 1130.51 L1375.74 1128.44 L1377.67 1126.4 L1379.59 1124.39 L1381.52 1122.4 L1383.44 1120.45 L1385.36 1118.52 L1387.29 1116.62 L1389.21 1114.76 L1391.14 1112.92 L1393.06 1111.12 L1394.98 1109.34 L1396.91 1107.6 L1398.83 1105.89 L1400.76 1104.21 L1402.68 1102.57 L1404.6 1100.96 L1406.53 1099.38 L1408.45 1097.83 L1410.38 1096.32 L1412.3 1094.85 L1414.22 1093.41 L1416.15 1092.02 L1418.07 1090.66 L1420 1089.34 L1421.92 1088.07 L1423.84 1086.83 L1425.77 1085.64 L1427.69 1084.49 L1429.62 1083.39 L1431.54 1082.32 L1433.46 1081.3 L1435.39 1080.33 L1437.31 1079.4 L1439.24 1078.52 L1441.16 1077.68 L1443.08 1076.89 L1445.01 1076.14 L1446.93 1075.44 L1448.86 1074.79 L1450.78 1074.19 L1452.7 1073.63 L1454.63 1073.12 L1456.55 1072.65 L1458.48 1072.22 L1460.4 1071.83 L1462.32 1071.49 L1464.25 1071.19 L1466.17 1070.94 L1468.1 1070.73 L1470.02 1070.57 L1471.94 1070.45 L1473.87 1070.39 L1475.79 1070.36 L1477.72 1070.39 L1479.64 1070.46 L1481.56 1070.58 L1483.49 1070.75 L1485.41 1070.97 L1487.34 1071.23 L1489.26 1071.55 L1491.18 1071.91 L1493.11 1072.31 L1495.03 1072.75 L1496.96 1073.23 L1498.88 1073.75 L1500.8 1074.31 L1502.73 1074.91 L1504.65 1075.55 L1506.58 1076.24 L1508.5 1076.96 L1510.42 1077.73 L1512.35 1078.54 L1514.27 1079.39 L1516.2 1080.29 L1518.12 1081.22 L1520.04 1082.21 L1521.97 1083.23 L1523.89 1084.3 L1525.82 1085.42 L1527.74 1086.58 L1529.66 1087.77 L1531.59 1089 L1533.51 1090.25 L1535.44 1091.53 L1537.36 1092.83 L1539.28 1094.16 L1541.21 1095.52 L1543.13 1096.91 L1545.06 1098.33 L1546.98 1099.78 L1548.9 1101.25 L1550.83 1102.75 L1552.75 1104.28 L1554.68 1105.84 L1556.6 1107.43 L1558.52 1109.05 L1560.45 1110.7 L1562.37 1112.37 L1564.3 1114.08 L1566.22 1115.82 L1568.14 1117.58 L1570.07 1119.35 L1571.99 1121.14 L1573.92 1122.94 L1575.84 1124.76 L1577.76 1126.59 L1579.69 1128.44 L1581.61 1130.3 L1583.54 1132.18 L1585.46 1134.07 L1587.39 1135.97 L1589.31 1137.9 L1591.23 1139.83 L1593.16 1141.78 L1595.08 1143.75 L1597.01 1145.73 L1598.93 1147.72 L1600.85 1149.73 L1602.78 1151.75 L1604.7 1153.79 L1606.63 1155.84 L1608.55 1157.88 L1610.47 1159.91 L1612.4 1161.94 L1614.32 1163.97 L1616.25 1165.99 L1618.17 1168.01 L1620.09 1170.02 L1622.02 1172.03 L1623.94 1174.03 L1625.87 1176.03 L1627.79 1178.02 L1629.71 1180.01 L1631.64 1181.99 L1633.56 1183.96 L1635.49 1185.92 L1637.41 1187.88 L1639.33 1189.84 L1641.26 1191.78 L1643.18 1193.72 L1645.11 1195.65 L1647.03 1197.56 L1648.95 1199.45 L1650.88 1201.33 L1652.8 1203.19 L1654.73 1205.04 L1656.65 1206.86 L1658.57 1208.67 L1660.5 1210.46 L1662.42 1212.24 L1664.35 1213.99 L1666.27 1215.73 L1668.19 1217.44 L1670.12 1219.14 L1672.04 1220.82 L1673.97 1222.48 L1675.89 1224.12 L1677.81 1225.73 L1679.74 1227.33 L1681.66 1228.91 L1683.59 1230.46 L1685.51 1231.98 L1687.43 1233.47 L1689.36 1234.92 L1691.28 1236.35 L1693.21 1237.74 L1695.13 1239.1 L1697.05 1240.43 L1698.98 1241.72 L1700.9 1242.98 L1702.83 1244.21 L1704.75 1245.4 L1706.67 1246.56 L1708.6 1247.68 L1710.52 1248.77 L1712.45 1249.82 L1714.37 1250.83 L1716.29 1251.81 L1718.22 1252.75 L1720.14 1253.66 L1722.07 1254.53 L1723.99 1255.36 L1725.91 1256.16 L1727.84 1256.93 L1729.76 1257.67 L1731.69 1258.37 L1733.61 1259.04 L1735.53 1259.68 L1737.46 1260.28 L1739.38 1260.84 L1741.31 1261.37 L1743.23 1261.86 L1745.15 1262.32 L1747.08 1262.74 L1749 1263.12 L1750.93 1263.47 L1752.85 1263.77 L1754.77 1264.04 L1756.7 1264.28 L1758.62 1264.47 L1760.55 1264.62 L1762.47 1264.74 L1764.39 1264.82 L1766.32 1264.86 L1768.24 1264.87 L1770.17 1264.83 L1772.09 1264.76 L1774.01 1264.65 L1775.94 1264.49 L1777.86 1264.3 L1779.79 1264.07 L1781.71 1263.79 L1783.63 1263.48 L1785.56 1263.12 L1787.48 1262.72 L1789.41 1262.28 L1791.33 1261.8 L1793.25 1261.27 L1795.18 1260.7 L1797.1 1260.09 L1799.03 1259.44 L1800.95 1258.77 L1802.87 1258.07 L1804.8 1257.34 L1806.72 1256.58 L1808.65 1255.8 L1810.57 1254.99 L1812.49 1254.15 L1814.42 1253.29 L1816.34 1252.39 L1818.27 1251.47 L1820.19 1250.51 L1822.11 1249.53 L1824.04 1248.52 L1825.96 1247.48 L1827.89 1246.41 L1829.81 1245.31 L1831.73 1244.18 L1833.66 1243.02 L1835.58 1241.83 L1837.51 1240.62 L1839.43 1239.38 L1841.35 1238.12 L1843.28 1236.83 L1845.2 1235.53 L1847.13 1234.2 L1849.05 1232.85 L1850.97 1231.48 L1852.9 1230.08 L1854.82 1228.67 L1856.75 1227.22 L1858.67 1225.76 L1860.59 1224.27 L1862.52 1222.76 L1864.44 1221.22 L1866.37 1219.66 L1868.29 1218.08 L1870.21 1216.47 L1872.14 1214.84 L1874.06 1213.18 L1875.99 1211.51 L1877.91 1209.84 L1879.83 1208.16 L1881.76 1206.48 L1883.68 1204.8 L1885.61 1203.11 L1887.53 1201.42 L1889.45 1199.73 L1891.38 1198.04 L1893.3 1196.34 L1895.23 1194.64 L1897.15 1192.94 L1899.07 1191.24 L1901 1189.53 L1902.92 1187.82 L1904.85 1186.11 L1906.77 1184.39 L1908.69 1182.67 L1910.62 1180.95 L1912.54 1179.22 L1914.47 1177.5 L1916.39 1175.78 L1918.31 1174.07 L1920.24 1172.36 L1922.16 1170.66 L1924.09 1168.96 L1926.01 1167.27 L1927.93 1165.58 L1929.86 1163.9 L1931.78 1162.23 L1933.71 1160.56 L1935.63 1158.89 L1937.55 1157.23 L1939.48 1155.58 L1941.4 1153.93 L1943.33 1152.29 L1945.25 1150.66 L1947.17 1149.03 L1949.1 1147.4 L1951.02 1145.79 L1952.95 1144.19 L1954.87 1142.61 L1956.79 1141.06 L1958.72 1139.53 L1960.64 1138.02 L1962.57 1136.55 L1964.49 1135.09 L1966.41 1133.66 L1968.34 1132.26 L1970.26 1130.89 L1972.19 1129.54 L1974.11 1128.21 L1976.03 1126.91 L1977.96 1125.64 L1979.88 1124.4 L1981.81 1123.18 L1983.73 1121.99 L1985.65 1120.83 L1987.58 1119.7 L1989.5 1118.59 L1991.43 1117.51 L1993.35 1116.46 L1995.27 1115.43 L1997.2 1114.44 L1999.12 1113.47 L2001.05 1112.52 L2002.97 1111.61 L2004.9 1110.72 L2006.82 1109.86 L2008.74 1109.03 L2010.67 1108.23 L2012.59 1107.46 L2014.52 1106.72 L2016.44 1106 L2018.36 1105.32 L2020.29 1104.67 L2022.21 1104.04 L2024.14 1103.45 L2026.06 1102.88 L2027.98 1102.35 L2029.91 1101.85 L2031.83 1101.39 L2033.76 1100.97 L2035.68 1100.6 L2037.6 1100.26 L2039.53 1099.96 L2041.45 1099.7 L2043.38 1099.48 L2045.3 1099.3 L2047.22 1099.17 L2049.15 1099.07 L2051.07 1099.02 L2053 1099.01 L2054.92 1099.05 L2056.84 1099.12 L2058.77 1099.24 L2060.69 1099.4 L2062.62 1099.61 L2064.54 1099.86 L2066.46 1100.15 L2068.39 1100.48 L2070.31 1100.85 L2072.24 1101.24 L2074.16 1101.68 L2076.08 1102.14 L2078.01 1102.64 L2079.93 1103.17 L2081.86 1103.73 L2083.78 1104.33 L2085.7 1104.96 L2087.63 1105.63 L2089.55 1106.33 L2091.48 1107.07 L2093.4 1107.84 L2095.32 1108.65 L2097.25 1109.49 L2099.17 1110.37 L2101.1 1111.28 L2103.02 1112.23 L2104.94 1113.22 L2106.87 1114.24 L2108.79 1115.3 L2110.72 1116.39 L2112.64 1117.53 L2114.56 1118.69 L2116.49 1119.9 L2118.41 1121.14 L2120.34 1122.42 L2122.26 1123.73 L2124.18 1125.09 L2126.11 1126.48 L2128.03 1127.91 L2129.96 1129.37 L2131.88 1130.88 L2133.8 1132.42 L2135.73 1134.01 L2137.65 1135.63 L2139.58 1137.29 L2141.5 1138.99 L2143.42 1140.73 L2145.35 1142.51 L2147.27 1144.3 L2149.2 1146.11 L2151.12 1147.94 L2153.04 1149.78 L2154.97 1151.65 L2156.89 1153.54 L2158.82 1155.45 L2160.74 1157.38 L2162.66 1159.33 L2164.59 1161.3 L2166.51 1163.29 L2168.44 1165.3 L2170.36 1167.34 L2172.28 1169.39 L2174.21 1171.46 L2176.13 1173.55 L2178.06 1175.67 L2179.98 1177.8 L2181.9 1179.96 L2183.83 1182.14 L2185.75 1184.33 L2187.68 1186.54 L2189.6 1188.77 L2191.52 1191.01 L2193.45 1193.28 L2195.37 1195.56 L2197.3 1197.86 L2199.22 1200.17 L2201.14 1202.51 L2203.07 1204.86 L2204.99 1207.23 L2206.92 1209.62 L2208.84 1212.03 L2210.76 1214.45 L2212.69 1216.9 L2214.61 1219.36 L2216.54 1221.84 L2218.46 1224.34 L2220.38 1226.86 L2222.31 1229.38 L2224.23 1231.9 L2226.16 1234.42 L2228.08 1236.94 L2230 1239.45 L2231.93 1241.96 L2233.85 1244.46 L2235.78 1246.96 L2237.7 1249.46 L2239.62 1251.95 L2241.55 1254.44 L2243.47 1256.93 L2245.4 1259.41 L2247.32 1261.89 L2249.24 1264.36 L2251.17 1266.83 L2253.09 1269.3 L2255.02 1271.76 L2256.94 1274.21 L2258.86 1276.67 L2260.79 1279.11 L2262.71 1281.56 L2264.64 1283.99 L2266.56 1286.42 L2268.48 1288.85 L2270.41 1291.27 L2272.33 1293.69 L2274.26 1296.1 L2276.18 1298.51 L2278.1 1300.91 L2280.03 1303.3 L2281.95 1305.69 L2283.88 1308.08 L2285.8 1310.45 L2287.72 1312.83 L2289.65 1315.19 L2291.57 1317.55 L2293.5 1319.91 L2295.42 1322.25 L2297.34 1324.59 L2297.34 1304.82 L2295.42 1302.32 L2293.5 1299.81 L2291.57 1297.29 L2289.65 1294.76 L2287.72 1292.23 L2285.8 1289.69 L2283.88 1287.15 L2281.95 1284.6 L2280.03 1282.04 L2278.1 1279.48 L2276.18 1276.91 L2274.26 1274.33 L2272.33 1271.75 L2270.41 1269.16 L2268.48 1266.57 L2266.56 1263.97 L2264.64 1261.37 L2262.71 1258.76 L2260.79 1256.14 L2258.86 1253.52 L2256.94 1250.9 L2255.02 1248.27 L2253.09 1245.63 L2251.17 1242.99 L2249.24 1240.35 L2247.32 1237.7 L2245.4 1235.04 L2243.47 1232.38 L2241.55 1229.72 L2239.62 1227.05 L2237.7 1224.38 L2235.78 1221.7 L2233.85 1219.02 L2231.93 1216.33 L2230 1213.65 L2228.08 1210.95 L2226.16 1208.26 L2224.23 1205.56 L2222.31 1202.85 L2220.38 1200.14 L2218.46 1197.44 L2216.54 1194.76 L2214.61 1192.1 L2212.69 1189.46 L2210.76 1186.84 L2208.84 1184.24 L2206.92 1181.66 L2204.99 1179.09 L2203.07 1176.55 L2201.14 1174.02 L2199.22 1171.51 L2197.3 1169.02 L2195.37 1166.56 L2193.45 1164.11 L2191.52 1161.67 L2189.6 1159.26 L2187.68 1156.87 L2185.75 1154.49 L2183.83 1152.13 L2181.9 1149.8 L2179.98 1147.48 L2178.06 1145.18 L2176.13 1142.91 L2174.21 1140.65 L2172.28 1138.42 L2170.36 1136.22 L2168.44 1134.03 L2166.51 1131.87 L2164.59 1129.72 L2162.66 1127.6 L2160.74 1125.5 L2158.82 1123.42 L2156.89 1121.37 L2154.97 1119.33 L2153.04 1117.32 L2151.12 1115.32 L2149.2 1113.35 L2147.27 1111.4 L2145.35 1109.47 L2143.42 1107.56 L2141.5 1105.68 L2139.58 1103.84 L2137.65 1102.05 L2135.73 1100.3 L2133.8 1098.59 L2131.88 1096.92 L2129.96 1095.29 L2128.03 1093.7 L2126.11 1092.16 L2124.18 1090.65 L2122.26 1089.18 L2120.34 1087.76 L2118.41 1086.37 L2116.49 1085.03 L2114.56 1083.72 L2112.64 1082.45 L2110.72 1081.22 L2108.79 1080.03 L2106.87 1078.88 L2104.94 1077.77 L2103.02 1076.69 L2101.1 1075.66 L2099.17 1074.66 L2097.25 1073.7 L2095.32 1072.78 L2093.4 1071.89 L2091.48 1071.05 L2089.55 1070.24 L2087.63 1069.47 L2085.7 1068.73 L2083.78 1068.04 L2081.86 1067.37 L2079.93 1066.75 L2078.01 1066.16 L2076.08 1065.61 L2074.16 1065.09 L2072.24 1064.61 L2070.31 1064.16 L2068.39 1063.75 L2066.46 1063.37 L2064.54 1063.04 L2062.62 1062.75 L2060.69 1062.51 L2058.77 1062.31 L2056.84 1062.16 L2054.92 1062.06 L2053 1062 L2051.07 1061.99 L2049.15 1062.02 L2047.22 1062.1 L2045.3 1062.23 L2043.38 1062.39 L2041.45 1062.6 L2039.53 1062.86 L2037.6 1063.16 L2035.68 1063.5 L2033.76 1063.88 L2031.83 1064.31 L2029.91 1064.78 L2027.98 1065.29 L2026.06 1065.84 L2024.14 1066.42 L2022.21 1067.03 L2020.29 1067.68 L2018.36 1068.36 L2016.44 1069.07 L2014.52 1069.81 L2012.59 1070.58 L2010.67 1071.39 L2008.74 1072.22 L2006.82 1073.09 L2004.9 1073.98 L2002.97 1074.91 L2001.05 1075.87 L1999.12 1076.86 L1997.2 1077.87 L1995.27 1078.92 L1993.35 1080 L1991.43 1081.1 L1989.5 1082.23 L1987.58 1083.4 L1985.65 1084.59 L1983.73 1085.81 L1981.81 1087.07 L1979.88 1088.35 L1977.96 1089.66 L1976.03 1091 L1974.11 1092.37 L1972.19 1093.76 L1970.26 1095.19 L1968.34 1096.64 L1966.41 1098.12 L1964.49 1099.63 L1962.57 1101.17 L1960.64 1102.73 L1958.72 1104.32 L1956.79 1105.93 L1954.87 1107.58 L1952.95 1109.25 L1951.02 1110.94 L1949.1 1112.65 L1947.17 1114.37 L1945.25 1116.1 L1943.33 1117.83 L1941.4 1119.57 L1939.48 1121.31 L1937.55 1123.06 L1935.63 1124.82 L1933.71 1126.59 L1931.78 1128.36 L1929.86 1130.13 L1927.93 1131.91 L1926.01 1133.7 L1924.09 1135.5 L1922.16 1137.3 L1920.24 1139.1 L1918.31 1140.91 L1916.39 1142.73 L1914.47 1144.55 L1912.54 1146.38 L1910.62 1148.21 L1908.69 1150.04 L1906.77 1151.86 L1904.85 1153.68 L1902.92 1155.5 L1901 1157.32 L1899.07 1159.13 L1897.15 1160.94 L1895.23 1162.74 L1893.3 1164.55 L1891.38 1166.35 L1889.45 1168.15 L1887.53 1169.94 L1885.61 1171.73 L1883.68 1173.52 L1881.76 1175.31 L1879.83 1177.09 L1877.91 1178.87 L1875.99 1180.65 L1874.06 1182.43 L1872.14 1184.19 L1870.21 1185.92 L1868.29 1187.63 L1866.37 1189.31 L1864.44 1190.96 L1862.52 1192.59 L1860.59 1194.2 L1858.67 1195.78 L1856.75 1197.33 L1854.82 1198.86 L1852.9 1200.37 L1850.97 1201.85 L1849.05 1203.3 L1847.13 1204.73 L1845.2 1206.14 L1843.28 1207.52 L1841.35 1208.88 L1839.43 1210.22 L1837.51 1211.53 L1835.58 1212.82 L1833.66 1214.08 L1831.73 1215.3 L1829.81 1216.5 L1827.89 1217.66 L1825.96 1218.79 L1824.04 1219.89 L1822.11 1220.96 L1820.19 1222 L1818.27 1223 L1816.34 1223.97 L1814.42 1224.92 L1812.49 1225.83 L1810.57 1226.71 L1808.65 1227.57 L1806.72 1228.39 L1804.8 1229.18 L1802.87 1229.95 L1800.95 1230.68 L1799.03 1231.39 L1797.1 1232.06 L1795.18 1232.7 L1793.25 1233.3 L1791.33 1233.84 L1789.41 1234.34 L1787.48 1234.8 L1785.56 1235.21 L1783.63 1235.57 L1781.71 1235.89 L1779.79 1236.17 L1777.86 1236.4 L1775.94 1236.58 L1774.01 1236.73 L1772.09 1236.83 L1770.17 1236.89 L1768.24 1236.91 L1766.32 1236.88 L1764.39 1236.82 L1762.47 1236.71 L1760.55 1236.57 L1758.62 1236.38 L1756.7 1236.15 L1754.77 1235.88 L1752.85 1235.57 L1750.93 1235.22 L1749 1234.82 L1747.08 1234.39 L1745.15 1233.92 L1743.23 1233.41 L1741.31 1232.85 L1739.38 1232.26 L1737.46 1231.63 L1735.53 1230.97 L1733.61 1230.26 L1731.69 1229.52 L1729.76 1228.74 L1727.84 1227.93 L1725.91 1227.07 L1723.99 1226.19 L1722.07 1225.26 L1720.14 1224.3 L1718.22 1223.31 L1716.29 1222.27 L1714.37 1221.19 L1712.45 1220.08 L1710.52 1218.92 L1708.6 1217.73 L1706.67 1216.49 L1704.75 1215.22 L1702.83 1213.91 L1700.9 1212.57 L1698.98 1211.18 L1697.05 1209.76 L1695.13 1208.31 L1693.21 1206.82 L1691.28 1205.29 L1689.36 1203.73 L1687.43 1202.13 L1685.51 1200.5 L1683.59 1198.83 L1681.66 1197.14 L1679.74 1195.41 L1677.81 1193.66 L1675.89 1191.89 L1673.97 1190.1 L1672.04 1188.28 L1670.12 1186.44 L1668.19 1184.58 L1666.27 1182.7 L1664.35 1180.8 L1662.42 1178.88 L1660.5 1176.94 L1658.57 1174.98 L1656.65 1173 L1654.73 1171 L1652.8 1168.98 L1650.88 1166.94 L1648.95 1164.88 L1647.03 1162.81 L1645.11 1160.71 L1643.18 1158.6 L1641.26 1156.48 L1639.33 1154.35 L1637.41 1152.21 L1635.49 1150.06 L1633.56 1147.91 L1631.64 1145.75 L1629.71 1143.58 L1627.79 1141.4 L1625.87 1139.22 L1623.94 1137.03 L1622.02 1134.84 L1620.09 1132.63 L1618.17 1130.43 L1616.25 1128.21 L1614.32 1125.99 L1612.4 1123.77 L1610.47 1121.54 L1608.55 1119.31 L1606.63 1117.07 L1604.7 1114.82 L1602.78 1112.58 L1600.85 1110.36 L1598.93 1108.16 L1597.01 1105.96 L1595.08 1103.79 L1593.16 1101.63 L1591.23 1099.48 L1589.31 1097.35 L1587.39 1095.24 L1585.46 1093.14 L1583.54 1091.06 L1581.61 1088.99 L1579.69 1086.94 L1577.76 1084.91 L1575.84 1082.89 L1573.92 1080.88 L1571.99 1078.9 L1570.07 1076.92 L1568.14 1074.97 L1566.22 1073.02 L1564.3 1071.11 L1562.37 1069.22 L1560.45 1067.37 L1558.52 1065.54 L1556.6 1063.75 L1554.68 1061.99 L1552.75 1060.26 L1550.83 1058.57 L1548.9 1056.9 L1546.98 1055.26 L1545.06 1053.66 L1543.13 1052.08 L1541.21 1050.54 L1539.28 1049.02 L1537.36 1047.54 L1535.44 1046.09 L1533.51 1044.66 L1531.59 1043.26 L1529.66 1041.9 L1527.74 1040.56 L1525.82 1039.26 L1523.89 1038.01 L1521.97 1036.81 L1520.04 1035.65 L1518.12 1034.55 L1516.2 1033.49 L1514.27 1032.47 L1512.35 1031.51 L1510.42 1030.59 L1508.5 1029.71 L1506.58 1028.88 L1504.65 1028.1 L1502.73 1027.36 L1500.8 1026.67 L1498.88 1026.02 L1496.96 1025.41 L1495.03 1024.84 L1493.11 1024.32 L1491.18 1023.85 L1489.26 1023.41 L1487.34 1023.02 L1485.41 1022.69 L1483.49 1022.41 L1481.56 1022.18 L1479.64 1022.01 L1477.72 1021.88 L1475.79 1021.81 L1473.87 1021.79 L1471.94 1021.82 L1470.02 1021.91 L1468.1 1022.04 L1466.17 1022.22 L1464.25 1022.45 L1462.32 1022.73 L1460.4 1023.05 L1458.48 1023.43 L1456.55 1023.85 L1454.63 1024.32 L1452.7 1024.83 L1450.78 1025.39 L1448.86 1026 L1446.93 1026.67 L1445.01 1027.38 L1443.08 1028.15 L1441.16 1028.96 L1439.24 1029.83 L1437.31 1030.75 L1435.39 1031.71 L1433.46 1032.73 L1431.54 1033.79 L1429.62 1034.9 L1427.69 1036.06 L1425.77 1037.27 L1423.84 1038.52 L1421.92 1039.82 L1420 1041.16 L1418.07 1042.55 L1416.15 1043.98 L1414.22 1045.46 L1412.3 1046.98 L1410.38 1048.54 L1408.45 1050.14 L1406.53 1051.77 L1404.6 1053.45 L1402.68 1055.16 L1400.76 1056.9 L1398.83 1058.69 L1396.91 1060.51 L1394.98 1062.36 L1393.06 1064.25 L1391.14 1066.17 L1389.21 1068.13 L1387.29 1070.12 L1385.36 1072.14 L1383.44 1074.2 L1381.52 1076.29 L1379.59 1078.41 L1377.67 1080.56 L1375.74 1082.74 L1373.82 1084.95 L1371.9 1087.19 L1369.97 1089.44 L1368.05 1091.71 L1366.12 1093.99 L1364.2 1096.29 L1362.28 1098.6 L1360.35 1100.93 L1358.43 1103.27 L1356.5 1105.62 L1354.58 1107.99 L1352.66 1110.37 L1350.73 1112.77 L1348.81 1115.18 L1346.88 1117.6 L1344.96 1120.03 L1343.04 1122.48 L1341.11 1124.94 L1339.19 1127.41 L1337.26 1129.89 L1335.34 1132.38 L1333.42 1134.87 L1331.49 1137.35 L1329.57 1139.81 L1327.64 1142.26 L1325.72 1144.7 L1323.8 1147.12 L1321.87 1149.52 L1319.95 1151.92 L1318.02 1154.29 L1316.1 1156.66 L1314.18 1159.01 L1312.25 1161.35 L1310.33 1163.67 L1308.4 1165.98 L1306.48 1168.28 L1304.56 1170.56 L1302.63 1172.83 L1300.71 1175.09 L1298.78 1177.33 L1296.86 1179.57 L1294.94 1181.77 L1293.01 1183.92 L1291.09 1186.03 L1289.16 1188.09 L1287.24 1190.1 L1285.32 1192.07 L1283.39 1193.99 L1281.47 1195.87 L1279.54 1197.7 L1277.62 1199.49 L1275.7 1201.24 L1273.77 1202.94 L1271.85 1204.6 L1269.92 1206.22 L1268 1207.8 L1266.08 1209.34 L1264.15 1210.84 L1262.23 1212.3 L1260.3 1213.72 L1258.38 1215.1 L1256.46 1216.42 L1254.53 1217.66 L1252.61 1218.83 L1250.68 1219.91 L1248.76 1220.93 L1246.84 1221.86 L1244.91 1222.72 L1242.99 1223.51 L1241.06 1224.23 L1239.14 1224.88 L1237.22 1225.45 L1235.29 1225.96 L1233.37 1226.4 L1231.44 1226.77 L1229.52 1227.08 L1227.6 1227.32 L1225.67 1227.49 L1223.75 1227.6 L1221.82 1227.65 L1219.9 1227.64 L1217.98 1227.55 L1216.05 1227.35 L1214.13 1227.04 L1212.2 1226.64 L1210.28 1226.14 L1208.36 1225.53 L1206.43 1224.84 L1204.51 1224.04 L1202.58 1223.15 L1200.66 1222.17 L1198.74 1221.1 L1196.81 1219.94 L1194.89 1218.69 L1192.96 1217.35 L1191.04 1215.93 L1189.12 1214.42 L1187.19 1212.84 L1185.27 1211.17 L1183.34 1209.42 L1181.42 1207.59 L1179.5 1205.67 L1177.57 1203.62 L1175.65 1201.46 L1173.72 1199.19 L1171.8 1196.8 L1169.88 1194.3 L1167.95 1191.69 L1166.03 1188.98 L1164.1 1186.16 L1162.18 1183.24 L1160.25 1180.21 L1158.33 1177.09 L1156.41 1173.87 L1154.48 1170.55 L1152.56 1167.14 L1150.63 1163.64 L1148.71 1160.05 L1146.79 1156.37 L1144.86 1152.61 L1142.94 1148.76 L1141.01 1144.81 L1139.09 1140.74 L1137.17 1136.55 L1135.24 1132.26 L1133.32 1127.84 L1131.39 1123.33 L1129.47 1118.7 L1127.55 1113.97 L1125.62 1109.14 L1123.7 1104.2 L1121.77 1099.17 L1119.85 1094.05 L1117.93 1088.83 L1116 1083.52 L1114.08 1078.12 L1112.15 1072.64 L1110.23 1067.07 L1108.31 1061.42 L1106.38 1055.69 L1104.46 1049.88 L1102.53 1043.98 L1100.61 1037.97 L1098.69 1031.87 L1096.76 1025.66 L1094.84 1019.36 L1092.91 1012.97 L1090.99 1006.48 L1089.07 999.909 L1087.14 993.249 L1085.22 986.505 L1083.29 979.68 L1081.37 972.776 L1079.45 965.795 L1077.52 958.741 L1075.6 951.615 L1073.67 944.42 L1071.75 937.159 L1069.83 929.833 L1067.9 922.445 L1065.98 914.997 L1064.05 907.483 L1062.13 899.895 L1060.21 892.238 L1058.28 884.512 L1056.36 876.721 L1054.43 868.867 L1052.51 860.952 L1050.59 852.98 L1048.66 844.953 L1046.74 836.873 L1044.81 828.742 L1042.89 820.563 L1040.97 812.339 L1039.04 804.071 L1037.12 795.763 L1035.19 787.416 L1033.27 779.033 L1031.35 770.617 L1029.42 762.169 L1027.5 753.691 L1025.57 745.183 L1023.65 736.642 L1021.73 728.07 L1019.8 719.47 L1017.88 710.844 L1015.95 702.195 L1014.03 693.525 L1012.11 684.835 L1010.18 676.129 L1008.26 667.409 L1006.33 658.677 L1004.41 649.935 L1002.49 641.185 L1000.56 632.43 L998.638 623.671 L996.714 614.912 L994.79 606.153 L992.866 597.398 L990.942 588.648 L989.018 579.905 L987.094 571.174 L985.17 562.459 L983.246 553.762 L981.322 545.085 L979.398 536.43 L977.474 527.798 L975.55 519.192 L973.626 510.614 L971.702 502.065 L969.778 493.547 L967.854 485.062 L965.93 476.612 L964.006 468.198 L962.082 459.822 L960.158 451.487 L958.234 443.193 L956.31 434.943 L954.386 426.737 L952.462 418.579 L950.538 410.469 L948.614 402.415 L946.69 394.425 L944.766 386.501 L942.842 378.644 L940.918 370.854 L938.994 363.134 L937.07 355.485 L935.146 347.908 L933.222 340.403 L931.298 332.974 L929.374 325.62 L927.45 318.343 L925.526 311.143 L923.602 304.024 L921.678 296.984 L919.754 290.026 L917.83 283.151 L915.906 276.36 L913.982 269.654 L912.058 263.033 L910.134 256.51 L908.21 250.095 L906.286 243.789 L904.362 237.592 L902.438 231.505 L900.514 225.529 L898.59 219.664 L896.666 213.91 L894.742 208.269 L892.818 202.74 L890.894 197.325 L888.97 192.023 L887.046 186.835 L885.122 181.762 L883.198 176.804 L881.274 171.962 L879.35 167.236 L877.426 162.626 L875.502 158.133 L873.578 153.757 L871.654 149.508 L869.73 145.396 L867.806 141.42 L865.882 137.581 L863.958 133.879 L862.034 130.312 L860.11 126.882 L858.186 123.589 L856.262 120.431 L854.338 117.408 L852.414 114.522 L850.49 111.771 L848.566 109.155 L846.641 106.674 L844.717 104.329 L842.793 102.118 L840.869 100.042 L838.945 98.0997 L837.021 96.2919 L835.097 94.6178 L833.173 93.0884 L831.249 91.714 L829.325 90.4939 L827.401 89.4271 L825.477 88.5129 L823.553 87.7505 L821.629 87.139 L819.705 86.6776 L817.781 86.3655 L815.857 86.2018 L813.933 86.1857 L812.009 86.3163 L810.085 86.5928 L808.161 87.0143 L806.237 87.5799 L804.313 88.2888 L802.389 89.1401 L800.465 90.1329 L798.541 91.2663 L796.617 92.5395 L794.693 93.9559 L792.769 95.5191 L790.845 97.2278 L788.921 99.081 L786.997 101.077 L785.073 103.216 L783.149 105.495 L781.225 107.915 L779.301 110.473 L777.377 113.168 L775.453 116 L773.529 118.966 L771.605 122.067 L769.681 125.3 L767.757 128.665 L765.833 132.161 L763.909 135.785 L761.985 139.538 L760.061 143.417 L758.137 147.422 L756.213 151.555 L754.289 155.817 L752.365 160.207 L750.441 164.725 L748.517 169.367 L746.593 174.134 L744.669 179.023 L742.745 184.034 L740.821 189.164 L738.897 194.413 L736.973 199.779 L735.049 205.26 L733.125 210.856 L731.201 216.564 L729.277 222.384 L727.353 228.313 L725.429 234.351 L723.505 240.497 L721.581 246.747 L719.657 253.102 L717.733 259.553 L715.809 266.09 L713.885 272.712 L711.961 279.419 L710.037 286.21 L708.113 293.084 L706.189 300.04 L704.265 307.077 L702.341 314.193 L700.417 321.389 L698.493 328.662 L696.569 336.012 L694.645 343.439 L692.721 350.94 L690.797 358.515 L688.873 366.164 L686.949 373.884 L685.025 381.675 L683.101 389.536 L681.177 397.465 L679.253 405.452 L677.329 413.483 L675.405 421.559 L673.481 429.68 L671.557 437.845 L669.633 446.054 L667.709 454.306 L665.785 462.602 L663.861 470.941 L661.937 479.322 L660.013 487.745 L658.089 496.211 L656.165 504.717 L654.241 513.264 L652.317 521.852 L650.393 530.48 L648.469 539.147 L646.545 547.853 L644.621 556.598 L642.697 565.381 L640.773 574.173 L638.849 582.949 L636.924 591.71 L635 600.457 L633.076 609.192 L631.152 617.918 L629.228 626.634 L627.304 635.344 L625.38 644.047 L623.456 652.746 L621.532 661.442 L619.608 670.136 L617.684 678.829 L615.76 687.522 L613.836 696.217 L611.912 704.915 L609.988 713.616 L608.064 722.322 L606.14 731.034 L604.216 739.751 L602.292 748.444 L600.368 757.083 L598.444 765.671 L596.52 774.213 L594.596 782.711 L592.672 791.171 L590.748 799.594 L588.824 807.984 L586.9 816.345 L584.976 824.679 L583.052 832.99 L581.128 841.281 L579.204 849.554 L577.28 857.812 L575.356 866.057 L573.432 874.293 L571.508 882.521 L569.584 890.744 L567.66 898.964 L565.736 907.183 L563.812 915.343 L561.888 923.387 L559.964 931.326 L558.04 939.168 L556.116 946.922 L554.192 954.595 L552.268 962.195 L550.344 969.73 L548.42 977.208 L546.496 984.635 L544.572 992.019 L542.648 999.366 L540.724 1006.68 L538.8 1013.98 L536.876 1021.25 L534.952 1028.51 L533.028 1035.77 L531.104 1043.02 L529.18 1050.28 L527.256 1057.55 L525.332 1064.73 L523.408 1071.74 L521.484 1078.6 L519.56 1085.32 L517.636 1091.93 L515.712 1098.44 L513.788 1104.86 L511.864 1111.21 L509.94 1117.51 L508.016 1123.76 L506.092 1129.99 L504.168 1136.2 L502.244 1142.41 L500.32 1148.63 L498.396 1154.87 L496.472 1161.13 L494.548 1167.44 L492.624 1173.79 L490.7 1180.2 L488.776 1186.68 L486.852 1193 L484.928 1198.97 L483.004 1204.65 L481.08 1210.08 L479.156 1215.3 L477.232 1220.36 L475.308 1225.3 L473.384 1230.16 L471.46 1234.98 L469.536 1239.78 L467.612 1244.61 L465.688 1249.5 L463.764 1254.46 L461.84 1259.54 L459.916 1264.75 L457.992 1270.13 L456.068 1275.67 L454.144 1281.42 L452.22 1287.38 L450.296 1293.57  Z" fill="#009af9" fill-rule="evenodd" fill-opacity="0.5"/>
<polyline clip-path="url(#clip961)" style="stroke:#009af9; stroke-linecap:round; stroke-linejoin:round; stroke-width:4; stroke-opacity:1; fill:none" points="450.296,1338.9 452.22,1333.07 454.144,1327.44 456.068,1321.98 457.992,1316.7 459.916,1311.58 461.84,1306.59 463.764,1301.72 465.688,1296.95 467.612,1292.25 469.536,1287.6 471.46,1282.97 473.384,1278.34 475.308,1273.67 477.232,1268.92 479.156,1264.07 481.08,1259.08 483.004,1253.91 484.928,1248.51 486.852,1242.86 488.776,1236.89 490.7,1230.78 492.624,1224.73 494.548,1218.73 496.472,1212.76 498.396,1206.83 500.32,1200.93 502.244,1195.04 504.168,1189.16 506.092,1183.27 508.016,1177.36 509.94,1171.43 511.864,1165.47 513.788,1159.45 515.712,1153.36 517.636,1147.2 519.56,1140.94 521.484,1134.58 523.408,1128.09 525.332,1121.47 527.256,1114.69 529.18,1107.84 531.104,1100.98 533.028,1094.13 534.952,1087.27 536.876,1080.41 538.8,1073.53 540.724,1066.63 542.648,1059.71 544.572,1052.76 546.496,1045.78 548.42,1038.75 550.344,1031.67 552.268,1024.54 554.192,1017.35 556.116,1010.09 558.04,1002.76 559.964,995.34 561.888,987.831 563.812,980.224 565.736,972.511 567.66,964.74 569.584,956.966 571.508,949.187 573.432,941.401 575.356,933.606 577.28,925.799 579.204,917.978 581.128,910.142 583.052,902.287 584.976,894.411 586.9,886.511 588.824,878.585 590.748,870.629 592.672,862.642 594.596,854.619 596.52,846.558 598.444,838.455 600.368,830.308 602.292,822.112 604.216,813.864 606.14,805.591 608.064,797.322 609.988,789.056 611.912,780.791 613.836,772.528 615.76,764.266 617.684,756.003 619.608,747.738 621.532,739.47 623.456,731.199 625.38,722.923 627.304,714.641 629.228,706.351 631.152,698.053 633.076,689.745 635,681.426 636.924,673.095 638.849,664.749 640.773,656.387 642.697,648.009 644.621,639.637 646.545,631.299 648.469,622.995 650.393,614.725 652.317,606.49 654.241,598.29 656.165,590.126 658.089,581.999 660.013,573.908 661.937,565.854 663.861,557.838 665.785,549.86 667.709,541.921 669.633,534.02 671.557,526.158 673.481,518.336 675.405,510.553 677.329,502.811 679.253,495.109 681.177,487.447 683.101,479.838 685.025,472.29 686.949,464.807 688.873,457.389 690.797,450.036 692.721,442.75 694.645,435.532 696.569,428.383 698.493,421.303 700.417,414.294 702.341,407.357 704.265,400.493 706.189,393.702 708.113,386.986 710.037,380.346 711.961,373.782 713.885,367.295 715.809,360.887 717.733,354.558 719.657,348.309 721.581,342.149 723.505,336.085 725.429,330.12 727.353,324.254 729.277,318.488 731.201,312.826 733.125,307.266 735.049,301.812 736.973,296.464 738.897,291.224 740.821,286.093 742.745,281.072 744.669,276.163 746.593,271.368 748.517,266.687 750.441,262.122 752.365,257.674 754.289,253.345 756.213,249.136 758.137,245.048 760.061,241.08 761.985,237.23 763.909,233.499 765.833,229.888 767.757,226.398 769.681,223.03 771.605,219.786 773.529,216.667 775.453,213.673 777.377,210.807 779.301,208.069 781.225,205.46 783.149,202.982 785.073,200.635 786.997,198.421 788.921,196.341 790.845,194.396 792.769,192.587 794.693,190.915 796.617,189.382 798.541,187.984 800.465,186.718 802.389,185.584 804.313,184.585 806.237,183.72 808.161,182.99 810.085,182.397 812.009,181.941 813.933,181.622 815.857,181.443 817.781,181.403 819.705,181.504 821.629,181.747 823.553,182.131 825.477,182.658 827.401,183.33 829.325,184.146 831.249,185.107 833.173,186.215 835.097,187.469 837.021,188.861 838.945,190.381 840.869,192.027 842.793,193.802 844.717,195.704 846.641,197.735 848.566,199.894 850.49,202.182 852.414,204.599 854.338,207.145 856.262,209.82 858.186,212.624 860.11,215.558 862.034,218.621 863.958,221.815 865.882,225.138 867.806,228.592 869.73,232.176 871.654,235.89 873.578,239.735 875.502,243.701 877.426,247.779 879.35,251.969 881.274,256.271 883.198,260.683 885.122,265.206 887.046,269.84 888.97,274.583 890.894,279.436 892.818,284.398 894.742,289.469 896.666,294.647 898.59,299.933 900.514,305.327 902.438,310.827 904.362,316.433 906.286,322.144 908.21,327.961 910.134,333.883 912.058,339.908 913.982,346.027 915.906,352.229 917.83,358.513 919.754,364.878 921.678,371.324 923.602,377.848 925.526,384.45 927.45,391.128 929.374,397.883 931.298,404.712 933.222,411.614 935.146,418.589 937.07,425.634 938.994,432.75 940.918,439.934 942.842,447.185 944.766,454.503 946.69,461.886 948.614,469.333 950.538,476.842 952.462,484.406 954.386,492.018 956.31,499.676 958.234,507.379 960.158,515.124 962.082,522.911 964.006,530.738 965.93,538.602 967.854,546.503 969.778,554.439 971.702,562.408 973.626,570.407 975.55,578.437 977.474,586.494 979.398,594.578 981.322,602.685 983.246,610.815 985.17,618.966 987.094,627.135 989.018,635.322 990.942,643.521 992.866,651.729 994.79,659.943 996.714,668.163 998.638,676.385 1000.56,684.607 1002.49,692.828 1004.41,701.046 1006.33,709.258 1008.26,717.463 1010.18,725.657 1012.11,733.84 1014.03,742.008 1015.95,750.16 1017.88,758.294 1019.8,766.407 1021.73,774.497 1023.65,782.562 1025.57,790.599 1027.5,798.607 1029.42,806.587 1031.35,814.54 1033.27,822.465 1035.19,830.36 1037.12,838.221 1039.04,846.048 1040.97,853.837 1042.89,861.587 1044.81,869.294 1046.74,876.958 1048.66,884.575 1050.59,892.143 1052.51,899.66 1054.43,907.123 1056.36,914.53 1058.28,921.879 1060.21,929.167 1062.13,936.392 1064.05,943.551 1065.98,950.641 1067.9,957.67 1069.83,964.643 1071.75,971.559 1073.67,978.414 1075.6,985.207 1077.52,991.936 1079.45,998.597 1081.37,1005.19 1083.29,1011.71 1085.22,1018.16 1087.14,1024.53 1089.07,1030.82 1090.99,1037.03 1092.91,1043.16 1094.84,1049.2 1096.76,1055.16 1098.69,1061.02 1100.61,1066.79 1102.53,1072.46 1104.46,1078.04 1106.38,1083.53 1108.31,1088.95 1110.23,1094.29 1112.15,1099.56 1114.08,1104.74 1116,1109.85 1117.93,1114.87 1119.85,1119.8 1121.77,1124.65 1123.7,1129.41 1125.62,1134.07 1127.55,1138.64 1129.47,1143.11 1131.39,1147.49 1133.32,1151.76 1135.24,1155.93 1137.17,1160 1139.09,1163.96 1141.01,1167.8 1142.94,1171.54 1144.86,1175.18 1146.79,1178.74 1148.71,1182.21 1150.63,1185.61 1152.56,1188.92 1154.48,1192.14 1156.41,1195.28 1158.33,1198.32 1160.25,1201.27 1162.18,1204.13 1164.1,1206.89 1166.03,1209.55 1167.95,1212.12 1169.88,1214.58 1171.8,1216.94 1173.72,1219.19 1175.65,1221.34 1177.57,1223.37 1179.5,1225.3 1181.42,1227.11 1183.34,1228.83 1185.27,1230.48 1187.19,1232.05 1189.12,1233.54 1191.04,1234.95 1192.96,1236.29 1194.89,1237.54 1196.81,1238.71 1198.74,1239.8 1200.66,1240.8 1202.58,1241.72 1204.51,1242.55 1206.43,1243.29 1208.36,1243.93 1210.28,1244.49 1212.2,1244.95 1214.13,1245.31 1216.05,1245.58 1217.98,1245.75 1219.9,1245.82 1221.82,1245.81 1223.75,1245.75 1225.67,1245.62 1227.6,1245.43 1229.52,1245.19 1231.44,1244.87 1233.37,1244.5 1235.29,1244.06 1237.22,1243.56 1239.14,1242.99 1241.06,1242.35 1242.99,1241.65 1244.91,1240.88 1246.84,1240.03 1248.76,1239.12 1250.68,1238.13 1252.61,1237.08 1254.53,1235.94 1256.46,1234.74 1258.38,1233.46 1260.3,1232.12 1262.23,1230.74 1264.15,1229.33 1266.08,1227.88 1268,1226.39 1269.92,1224.86 1271.85,1223.29 1273.77,1221.69 1275.7,1220.04 1277.62,1218.35 1279.54,1216.62 1281.47,1214.85 1283.39,1213.03 1285.32,1211.18 1287.24,1209.27 1289.16,1207.33 1291.09,1205.34 1293.01,1203.31 1294.94,1201.23 1296.86,1199.11 1298.78,1196.95 1300.71,1194.79 1302.63,1192.61 1304.56,1190.42 1306.48,1188.21 1308.4,1185.99 1310.33,1183.76 1312.25,1181.52 1314.18,1179.27 1316.1,1177 1318.02,1174.71 1319.95,1172.42 1321.87,1170.11 1323.8,1167.79 1325.72,1165.45 1327.64,1163.1 1329.57,1160.74 1331.49,1158.36 1333.42,1155.97 1335.34,1153.56 1337.26,1151.16 1339.19,1148.76 1341.11,1146.37 1343.04,1144 1344.96,1141.64 1346.88,1139.29 1348.81,1136.95 1350.73,1134.62 1352.66,1132.31 1354.58,1130.01 1356.5,1127.72 1358.43,1125.44 1360.35,1123.18 1362.28,1120.93 1364.2,1118.7 1366.12,1116.48 1368.05,1114.27 1369.97,1112.08 1371.9,1109.9 1373.82,1107.73 1375.74,1105.59 1377.67,1103.48 1379.59,1101.4 1381.52,1099.34 1383.44,1097.32 1385.36,1095.33 1387.29,1093.37 1389.21,1091.44 1391.14,1089.55 1393.06,1087.68 1394.98,1085.85 1396.91,1084.05 1398.83,1082.29 1400.76,1080.56 1402.68,1078.86 1404.6,1077.2 1406.53,1075.58 1408.45,1073.98 1410.38,1072.43 1412.3,1070.91 1414.22,1069.43 1416.15,1068 1418.07,1066.6 1420,1065.25 1421.92,1063.94 1423.84,1062.67 1425.77,1061.45 1427.69,1060.28 1429.62,1059.14 1431.54,1058.06 1433.46,1057.02 1435.39,1056.02 1437.31,1055.07 1439.24,1054.17 1441.16,1053.32 1443.08,1052.52 1445.01,1051.76 1446.93,1051.05 1448.86,1050.4 1450.78,1049.79 1452.7,1049.23 1454.63,1048.72 1456.55,1048.25 1458.48,1047.82 1460.4,1047.44 1462.32,1047.11 1464.25,1046.82 1466.17,1046.58 1468.1,1046.39 1470.02,1046.24 1471.94,1046.14 1473.87,1046.09 1475.79,1046.09 1477.72,1046.14 1479.64,1046.23 1481.56,1046.38 1483.49,1046.58 1485.41,1046.83 1487.34,1047.13 1489.26,1047.48 1491.18,1047.88 1493.11,1048.32 1495.03,1048.8 1496.96,1049.32 1498.88,1049.88 1500.8,1050.49 1502.73,1051.14 1504.65,1051.83 1506.58,1052.56 1508.5,1053.34 1510.42,1054.16 1512.35,1055.02 1514.27,1055.93 1516.2,1056.89 1518.12,1057.89 1520.04,1058.93 1521.97,1060.02 1523.89,1061.16 1525.82,1062.34 1527.74,1063.57 1529.66,1064.84 1531.59,1066.13 1533.51,1067.45 1535.44,1068.81 1537.36,1070.19 1539.28,1071.59 1541.21,1073.03 1543.13,1074.5 1545.06,1075.99 1546.98,1077.52 1548.9,1079.07 1550.83,1080.66 1552.75,1082.27 1554.68,1083.92 1556.6,1085.59 1558.52,1087.3 1560.45,1089.03 1562.37,1090.8 1564.3,1092.59 1566.22,1094.42 1568.14,1096.27 1570.07,1098.14 1571.99,1100.02 1573.92,1101.91 1575.84,1103.82 1577.76,1105.75 1579.69,1107.69 1581.61,1109.65 1583.54,1111.62 1585.46,1113.61 1587.39,1115.61 1589.31,1117.62 1591.23,1119.66 1593.16,1121.7 1595.08,1123.77 1597.01,1125.84 1598.93,1127.94 1600.85,1130.05 1602.78,1132.17 1604.7,1134.31 1606.63,1136.45 1608.55,1138.59 1610.47,1140.73 1612.4,1142.86 1614.32,1144.98 1616.25,1147.1 1618.17,1149.22 1620.09,1151.33 1622.02,1153.43 1623.94,1155.53 1625.87,1157.63 1627.79,1159.71 1629.71,1161.79 1631.64,1163.87 1633.56,1165.93 1635.49,1167.99 1637.41,1170.05 1639.33,1172.09 1641.26,1174.13 1643.18,1176.16 1645.11,1178.18 1647.03,1180.18 1648.95,1182.17 1650.88,1184.14 1652.8,1186.09 1654.73,1188.02 1656.65,1189.93 1658.57,1191.83 1660.5,1193.7 1662.42,1195.56 1664.35,1197.4 1666.27,1199.22 1668.19,1201.01 1670.12,1202.79 1672.04,1204.55 1673.97,1206.29 1675.89,1208 1677.81,1209.7 1679.74,1211.37 1681.66,1213.02 1683.59,1214.65 1685.51,1216.24 1687.43,1217.8 1689.36,1219.32 1691.28,1220.82 1693.21,1222.28 1695.13,1223.7 1697.05,1225.1 1698.98,1226.45 1700.9,1227.78 1702.83,1229.06 1704.75,1230.31 1706.67,1231.53 1708.6,1232.7 1710.52,1233.85 1712.45,1234.95 1714.37,1236.01 1716.29,1237.04 1718.22,1238.03 1720.14,1238.98 1722.07,1239.89 1723.99,1240.77 1725.91,1241.62 1727.84,1242.43 1729.76,1243.21 1731.69,1243.95 1733.61,1244.65 1735.53,1245.32 1737.46,1245.96 1739.38,1246.55 1741.31,1247.11 1743.23,1247.63 1745.15,1248.12 1747.08,1248.56 1749,1248.97 1750.93,1249.34 1752.85,1249.67 1754.77,1249.96 1756.7,1250.21 1758.62,1250.42 1760.55,1250.59 1762.47,1250.73 1764.39,1250.82 1766.32,1250.87 1768.24,1250.89 1770.17,1250.86 1772.09,1250.79 1774.01,1250.69 1775.94,1250.54 1777.86,1250.35 1779.79,1250.12 1781.71,1249.84 1783.63,1249.52 1785.56,1249.16 1787.48,1248.76 1789.41,1248.31 1791.33,1247.82 1793.25,1247.28 1795.18,1246.7 1797.1,1246.08 1799.03,1245.41 1800.95,1244.72 1802.87,1244.01 1804.8,1243.26 1806.72,1242.49 1808.65,1241.68 1810.57,1240.85 1812.49,1239.99 1814.42,1239.1 1816.34,1238.18 1818.27,1237.23 1820.19,1236.26 1822.11,1235.25 1824.04,1234.21 1825.96,1233.14 1827.89,1232.04 1829.81,1230.91 1831.73,1229.74 1833.66,1228.55 1835.58,1227.32 1837.51,1226.07 1839.43,1224.8 1841.35,1223.5 1843.28,1222.18 1845.2,1220.83 1847.13,1219.47 1849.05,1218.08 1850.97,1216.66 1852.9,1215.22 1854.82,1213.76 1856.75,1212.28 1858.67,1210.77 1860.59,1209.23 1862.52,1207.68 1864.44,1206.09 1866.37,1204.49 1868.29,1202.85 1870.21,1201.2 1872.14,1199.51 1874.06,1197.8 1875.99,1196.08 1877.91,1194.36 1879.83,1192.63 1881.76,1190.9 1883.68,1189.16 1885.61,1187.42 1887.53,1185.68 1889.45,1183.94 1891.38,1182.19 1893.3,1180.45 1895.23,1178.69 1897.15,1176.94 1899.07,1175.18 1901,1173.42 1902.92,1171.66 1904.85,1169.89 1906.77,1168.13 1908.69,1166.35 1910.62,1164.58 1912.54,1162.8 1914.47,1161.03 1916.39,1159.26 1918.31,1157.49 1920.24,1155.73 1922.16,1153.98 1924.09,1152.23 1926.01,1150.49 1927.93,1148.75 1929.86,1147.02 1931.78,1145.29 1933.71,1143.57 1935.63,1141.86 1937.55,1140.15 1939.48,1138.45 1941.4,1136.75 1943.33,1135.06 1945.25,1133.38 1947.17,1131.7 1949.1,1130.03 1951.02,1128.36 1952.95,1126.72 1954.87,1125.09 1956.79,1123.5 1958.72,1121.92 1960.64,1120.38 1962.57,1118.86 1964.49,1117.36 1966.41,1115.89 1968.34,1114.45 1970.26,1113.04 1972.19,1111.65 1974.11,1110.29 1976.03,1108.96 1977.96,1107.65 1979.88,1106.37 1981.81,1105.12 1983.73,1103.9 1985.65,1102.71 1987.58,1101.55 1989.5,1100.41 1991.43,1099.31 1993.35,1098.23 1995.27,1097.18 1997.2,1096.15 1999.12,1095.16 2001.05,1094.2 2002.97,1093.26 2004.9,1092.35 2006.82,1091.48 2008.74,1090.63 2010.67,1089.81 2012.59,1089.02 2014.52,1088.26 2016.44,1087.54 2018.36,1086.84 2020.29,1086.17 2022.21,1085.54 2024.14,1084.93 2026.06,1084.36 2027.98,1083.82 2029.91,1083.32 2031.83,1082.85 2033.76,1082.43 2035.68,1082.05 2037.6,1081.71 2039.53,1081.41 2041.45,1081.15 2043.38,1080.94 2045.3,1080.76 2047.22,1080.63 2049.15,1080.55 2051.07,1080.51 2053,1080.51 2054.92,1080.55 2056.84,1080.64 2058.77,1080.78 2060.69,1080.95 2062.62,1081.18 2064.54,1081.45 2066.46,1081.76 2068.39,1082.12 2070.31,1082.5 2072.24,1082.93 2074.16,1083.38 2076.08,1083.87 2078.01,1084.4 2079.93,1084.96 2081.86,1085.55 2083.78,1086.18 2085.7,1086.85 2087.63,1087.55 2089.55,1088.29 2091.48,1089.06 2093.4,1089.87 2095.32,1090.71 2097.25,1091.6 2099.17,1092.51 2101.1,1093.47 2103.02,1094.46 2104.94,1095.49 2106.87,1096.56 2108.79,1097.67 2110.72,1098.81 2112.64,1099.99 2114.56,1101.21 2116.49,1102.46 2118.41,1103.75 2120.34,1105.09 2122.26,1106.46 2124.18,1107.87 2126.11,1109.32 2128.03,1110.8 2129.96,1112.33 2131.88,1113.9 2133.8,1115.51 2135.73,1117.15 2137.65,1118.84 2139.58,1120.57 2141.5,1122.34 2143.42,1124.15 2145.35,1125.99 2147.27,1127.85 2149.2,1129.73 2151.12,1131.63 2153.04,1133.55 2154.97,1135.49 2156.89,1137.46 2158.82,1139.44 2160.74,1141.44 2162.66,1143.47 2164.59,1145.51 2166.51,1147.58 2168.44,1149.67 2170.36,1151.78 2172.28,1153.91 2174.21,1156.06 2176.13,1158.23 2178.06,1160.42 2179.98,1162.64 2181.9,1164.88 2183.83,1167.13 2185.75,1169.41 2187.68,1171.7 2189.6,1174.01 2191.52,1176.34 2193.45,1178.69 2195.37,1181.06 2197.3,1183.44 2199.22,1185.84 2201.14,1188.26 2203.07,1190.7 2204.99,1193.16 2206.92,1195.64 2208.84,1198.13 2210.76,1200.65 2212.69,1203.18 2214.61,1205.73 2216.54,1208.3 2218.46,1210.89 2220.38,1213.5 2222.31,1216.12 2224.23,1218.73 2226.16,1221.34 2228.08,1223.94 2230,1226.55 2231.93,1229.15 2233.85,1231.74 2235.78,1234.33 2237.7,1236.92 2239.62,1239.5 2241.55,1242.08 2243.47,1244.66 2245.4,1247.23 2247.32,1249.79 2249.24,1252.36 2251.17,1254.91 2253.09,1257.47 2255.02,1260.01 2256.94,1262.56 2258.86,1265.1 2260.79,1267.63 2262.71,1270.16 2264.64,1272.68 2266.56,1275.2 2268.48,1277.71 2270.41,1280.22 2272.33,1282.72 2274.26,1285.22 2276.18,1287.71 2278.1,1290.19 2280.03,1292.67 2281.95,1295.15 2283.88,1297.61 2285.8,1300.07 2287.72,1302.53 2289.65,1304.98 2291.57,1307.42 2293.5,1309.86 2295.42,1312.28 2297.34,1314.71 "/>
<path clip-path="url(#clip960)" d="M1907.68 196.789 L2287.49 196.789 L2287.49 93.1086 L1907.68 93.1086  Z" fill="#ffffff" fill-rule="evenodd" fill-opacity="1"/>
<polyline clip-path="url(#clip960)" style="stroke:#000000; stroke-linecap:round; stroke-linejoin:round; stroke-width:4; stroke-opacity:1; fill:none" points="1907.68,196.789 2287.49,196.789 2287.49,93.1086 1907.68,93.1086 1907.68,196.789 "/>
<polyline clip-path="url(#clip960)" style="stroke:#009af9; stroke-linecap:round; stroke-linejoin:round; stroke-width:4; stroke-opacity:1; fill:none" points="1929.43,144.949 2059.96,144.949 "/>
<path clip-path="url(#clip960)" d="M2086.39 131.511 L2086.39 158.386 L2092.04 158.386 Q2099.19 158.386 2102.5 155.145 Q2105.83 151.905 2105.83 144.914 Q2105.83 137.969 2102.5 134.752 Q2099.19 131.511 2092.04 131.511 L2086.39 131.511 M2081.71 127.669 L2091.32 127.669 Q2101.37 127.669 2106.06 131.858 Q2110.76 136.025 2110.76 144.914 Q2110.76 153.849 2106.04 158.039 Q2101.32 162.229 2091.32 162.229 L2081.71 162.229 L2081.71 127.669 Z" fill="#000000" fill-rule="nonzero" fill-opacity="1" /><path clip-path="url(#clip960)" d="M2116.39 142.067 L2119.07 142.067 L2119.07 162.229 L2116.39 162.229 L2116.39 142.067 Z" fill="#000000" fill-rule="nonzero" fill-opacity="1" /><path clip-path="url(#clip960)" d="M2158.31 132.507 L2158.31 141.465 L2171.2 141.465 L2171.2 145.4 L2158.31 145.4 L2158.31 154.358 L2154.42 154.358 L2154.42 145.4 L2141.53 145.4 L2141.53 141.465 L2154.42 141.465 L2154.42 132.507 L2158.31 132.507 M2141.53 158.293 L2171.2 158.293 L2171.2 162.229 L2141.53 162.229 L2141.53 158.293 Z" fill="#000000" fill-rule="nonzero" fill-opacity="1" /><path clip-path="url(#clip960)" d="M2207.5 132.275 L2198.01 158.34 L2217.01 158.34 L2207.5 132.275 M2191.67 162.229 L2204.86 127.669 L2210.16 127.669 L2223.33 162.229 L2191.67 162.229 Z" fill="#000000" fill-rule="nonzero" fill-opacity="1" /><path clip-path="url(#clip960)" d="M2233.05 131.511 L2233.05 158.386 L2238.7 158.386 Q2245.86 158.386 2249.17 155.145 Q2252.5 151.905 2252.5 144.914 Q2252.5 137.969 2249.17 134.752 Q2245.86 131.511 2238.7 131.511 L2233.05 131.511 M2228.38 127.669 L2237.98 127.669 Q2248.03 127.669 2252.73 131.858 Q2257.43 136.025 2257.43 144.914 Q2257.43 153.849 2252.71 158.039 Q2247.98 162.229 2237.98 162.229 L2228.38 162.229 L2228.38 127.669 Z" fill="#000000" fill-rule="nonzero" fill-opacity="1" /><path clip-path="url(#clip960)" d="M2263.05 142.067 L2265.74 142.067 L2265.74 162.229 L2263.05 162.229 L2263.05 142.067 Z" fill="#000000" fill-rule="nonzero" fill-opacity="1" /></svg>
