<?xml version="1.0" encoding="utf-8"?>
<svg xmlns="http://www.w3.org/2000/svg" xmlns:xlink="http://www.w3.org/1999/xlink" width="800" height="400" viewBox="0 0 3200 1600">
<defs>
  <clipPath id="clip980">
    <rect x="0" y="0" width="3200" height="1600"/>
  </clipPath>
</defs>
<path clip-path="url(#clip980)" d="M0 1600 L3200 1600 L3200 0 L0 0  Z" fill="#ffffff" fill-rule="evenodd" fill-opacity="1"/>
<defs>
  <clipPath id="clip981">
    <rect x="640" y="0" width="2241" height="1600"/>
  </clipPath>
</defs>
<path clip-path="url(#clip980)" d="M365.777 1495.09 L3152.76 1495.09 L3152.76 47.2441 L365.777 47.2441  Z" fill="#ffffff" fill-rule="evenodd" fill-opacity="1"/>
<defs>
  <clipPath id="clip982">
    <rect x="365" y="47" width="2788" height="1449"/>
  </clipPath>
</defs>
<polyline clip-path="url(#clip982)" style="stroke:#000000; stroke-linecap:round; stroke-linejoin:round; stroke-width:2; stroke-opacity:0.1; fill:none" points="654.992,1495.09 654.992,47.2441 "/>
<polyline clip-path="url(#clip982)" style="stroke:#000000; stroke-linecap:round; stroke-linejoin:round; stroke-width:2; stroke-opacity:0.1; fill:none" points="1391.17,1495.09 1391.17,47.2441 "/>
<polyline clip-path="url(#clip982)" style="stroke:#000000; stroke-linecap:round; stroke-linejoin:round; stroke-width:2; stroke-opacity:0.1; fill:none" points="2127.36,1495.09 2127.36,47.2441 "/>
<polyline clip-path="url(#clip982)" style="stroke:#000000; stroke-linecap:round; stroke-linejoin:round; stroke-width:2; stroke-opacity:0.1; fill:none" points="2863.54,1495.09 2863.54,47.2441 "/>
<polyline clip-path="url(#clip982)" style="stroke:#000000; stroke-linecap:round; stroke-linejoin:round; stroke-width:2; stroke-opacity:0.1; fill:none" points="365.777,1399.72 3152.76,1399.72 "/>
<polyline clip-path="url(#clip982)" style="stroke:#000000; stroke-linecap:round; stroke-linejoin:round; stroke-width:2; stroke-opacity:0.1; fill:none" points="365.777,1088.75 3152.76,1088.75 "/>
<polyline clip-path="url(#clip982)" style="stroke:#000000; stroke-linecap:round; stroke-linejoin:round; stroke-width:2; stroke-opacity:0.1; fill:none" points="365.777,777.781 3152.76,777.781 "/>
<polyline clip-path="url(#clip982)" style="stroke:#000000; stroke-linecap:round; stroke-linejoin:round; stroke-width:2; stroke-opacity:0.1; fill:none" points="365.777,466.814 3152.76,466.814 "/>
<polyline clip-path="url(#clip982)" style="stroke:#000000; stroke-linecap:round; stroke-linejoin:round; stroke-width:2; stroke-opacity:0.1; fill:none" points="365.777,155.847 3152.76,155.847 "/>
<polyline clip-path="url(#clip980)" style="stroke:#000000; stroke-linecap:round; stroke-linejoin:round; stroke-width:4; stroke-opacity:1; fill:none" points="365.777,1495.09 3152.76,1495.09 "/>
<polyline clip-path="url(#clip980)" style="stroke:#000000; stroke-linecap:round; stroke-linejoin:round; stroke-width:4; stroke-opacity:1; fill:none" points="654.992,1495.09 654.992,1476.19 "/>
<polyline clip-path="url(#clip980)" style="stroke:#000000; stroke-linecap:round; stroke-linejoin:round; stroke-width:4; stroke-opacity:1; fill:none" points="1391.17,1495.09 1391.17,1476.19 "/>
<polyline clip-path="url(#clip980)" style="stroke:#000000; stroke-linecap:round; stroke-linejoin:round; stroke-width:4; stroke-opacity:1; fill:none" points="2127.36,1495.09 2127.36,1476.19 "/>
<polyline clip-path="url(#clip980)" style="stroke:#000000; stroke-linecap:round; stroke-linejoin:round; stroke-width:4; stroke-opacity:1; fill:none" points="2863.54,1495.09 2863.54,1476.19 "/>
<path clip-path="url(#clip980)" d="M464.727 1547.68 Q466.231 1548.19 467.643 1549.86 Q469.079 1551.53 470.514 1554.44 L475.259 1563.89 L470.236 1563.89 L465.815 1555.02 Q464.102 1551.55 462.481 1550.42 Q460.884 1549.28 458.106 1549.28 L453.014 1549.28 L453.014 1563.89 L448.338 1563.89 L448.338 1529.33 L458.893 1529.33 Q464.819 1529.33 467.736 1531.8 Q470.653 1534.28 470.653 1539.28 Q470.653 1542.55 469.125 1544.7 Q467.62 1546.85 464.727 1547.68 M453.014 1533.17 L453.014 1545.44 L458.893 1545.44 Q462.273 1545.44 463.986 1543.89 Q465.722 1542.31 465.722 1539.28 Q465.722 1536.25 463.986 1534.72 Q462.273 1533.17 458.893 1533.17 L453.014 1533.17 Z" fill="#000000" fill-rule="nonzero" fill-opacity="1" /><path clip-path="url(#clip980)" d="M481.278 1529.33 L501.139 1529.33 L501.139 1533.26 L485.953 1533.26 L485.953 1543.45 L499.657 1543.45 L499.657 1547.38 L485.953 1547.38 L485.953 1563.89 L481.278 1563.89 L481.278 1529.33 Z" fill="#000000" fill-rule="nonzero" fill-opacity="1" /><path clip-path="url(#clip980)" d="M508.546 1529.33 L513.222 1529.33 L513.222 1559.95 L530.05 1559.95 L530.05 1563.89 L508.546 1563.89 L508.546 1529.33 Z" fill="#000000" fill-rule="nonzero" fill-opacity="1" /><path clip-path="url(#clip980)" d="M532.064 1529.33 L536.763 1529.33 L536.763 1550.32 Q536.763 1555.88 538.777 1558.33 Q540.791 1560.76 545.305 1560.76 Q549.796 1560.76 551.81 1558.33 Q553.823 1555.88 553.823 1550.32 L553.823 1529.33 L558.523 1529.33 L558.523 1550.9 Q558.523 1557.66 555.166 1561.11 Q551.833 1564.56 545.305 1564.56 Q538.754 1564.56 535.398 1561.11 Q532.064 1557.66 532.064 1550.9 L532.064 1529.33 Z" fill="#000000" fill-rule="nonzero" fill-opacity="1" /><path clip-path="url(#clip980)" d="M567.296 1529.33 L587.157 1529.33 L587.157 1533.26 L571.972 1533.26 L571.972 1543.45 L585.675 1543.45 L585.675 1547.38 L571.972 1547.38 L571.972 1563.89 L567.296 1563.89 L567.296 1529.33 Z" fill="#000000" fill-rule="nonzero" fill-opacity="1" /><path clip-path="url(#clip980)" d="M601.809 1550.86 Q596.647 1550.86 594.657 1552.04 Q592.666 1553.22 592.666 1556.06 Q592.666 1558.33 594.147 1559.67 Q595.652 1560.99 598.221 1560.99 Q601.763 1560.99 603.893 1558.49 Q606.045 1555.97 606.045 1551.8 L606.045 1550.86 L601.809 1550.86 M610.305 1549.1 L610.305 1563.89 L606.045 1563.89 L606.045 1559.95 Q604.587 1562.31 602.411 1563.45 Q600.235 1564.56 597.087 1564.56 Q593.106 1564.56 590.745 1562.34 Q588.407 1560.09 588.407 1556.34 Q588.407 1551.97 591.323 1549.74 Q594.263 1547.52 600.073 1547.52 L606.045 1547.52 L606.045 1547.11 Q606.045 1544.17 604.101 1542.57 Q602.18 1540.95 598.684 1540.95 Q596.462 1540.95 594.356 1541.48 Q592.249 1542.01 590.305 1543.08 L590.305 1539.14 Q592.643 1538.24 594.842 1537.8 Q597.041 1537.34 599.124 1537.34 Q604.749 1537.34 607.527 1540.25 Q610.305 1543.17 610.305 1549.1 Z" fill="#000000" fill-rule="nonzero" fill-opacity="1" /><path clip-path="url(#clip980)" d="M637.735 1538.96 L637.735 1542.94 Q635.93 1541.94 634.101 1541.46 Q632.295 1540.95 630.443 1540.95 Q626.3 1540.95 624.008 1543.59 Q621.717 1546.2 621.717 1550.95 Q621.717 1555.69 624.008 1558.33 Q626.3 1560.95 630.443 1560.95 Q632.295 1560.95 634.101 1560.46 Q635.93 1559.95 637.735 1558.96 L637.735 1562.89 Q635.953 1563.73 634.031 1564.14 Q632.133 1564.56 629.98 1564.56 Q624.124 1564.56 620.675 1560.88 Q617.226 1557.2 617.226 1550.95 Q617.226 1544.61 620.698 1540.97 Q624.193 1537.34 630.258 1537.34 Q632.226 1537.34 634.101 1537.75 Q635.976 1538.15 637.735 1538.96 Z" fill="#000000" fill-rule="nonzero" fill-opacity="1" /><path clip-path="url(#clip980)" d="M649.355 1530.6 L649.355 1537.96 L658.128 1537.96 L658.128 1541.27 L649.355 1541.27 L649.355 1555.35 Q649.355 1558.52 650.212 1559.42 Q651.091 1560.32 653.753 1560.32 L658.128 1560.32 L658.128 1563.89 L653.753 1563.89 Q648.823 1563.89 646.948 1562.06 Q645.073 1560.21 645.073 1555.35 L645.073 1541.27 L641.948 1541.27 L641.948 1537.96 L645.073 1537.96 L645.073 1530.6 L649.355 1530.6 Z" fill="#000000" fill-rule="nonzero" fill-opacity="1" /><path clip-path="url(#clip980)" d="M673.777 1540.95 Q670.351 1540.95 668.36 1543.63 Q666.369 1546.3 666.369 1550.95 Q666.369 1555.6 668.337 1558.29 Q670.327 1560.95 673.777 1560.95 Q677.179 1560.95 679.17 1558.26 Q681.161 1555.58 681.161 1550.95 Q681.161 1546.34 679.17 1543.66 Q677.179 1540.95 673.777 1540.95 M673.777 1537.34 Q679.332 1537.34 682.503 1540.95 Q685.675 1544.56 685.675 1550.95 Q685.675 1557.31 682.503 1560.95 Q679.332 1564.56 673.777 1564.56 Q668.198 1564.56 665.027 1560.95 Q661.878 1557.31 661.878 1550.95 Q661.878 1544.56 665.027 1540.95 Q668.198 1537.34 673.777 1537.34 Z" fill="#000000" fill-rule="nonzero" fill-opacity="1" /><path clip-path="url(#clip980)" d="M707.758 1541.94 Q707.04 1541.53 706.184 1541.34 Q705.35 1541.13 704.332 1541.13 Q700.721 1541.13 698.776 1543.49 Q696.855 1545.83 696.855 1550.23 L696.855 1563.89 L692.573 1563.89 L692.573 1537.96 L696.855 1537.96 L696.855 1541.99 Q698.198 1539.63 700.35 1538.49 Q702.503 1537.34 705.582 1537.34 Q706.022 1537.34 706.554 1537.41 Q707.087 1537.45 707.735 1537.57 L707.758 1541.94 Z" fill="#000000" fill-rule="nonzero" fill-opacity="1" /><path clip-path="url(#clip980)" d="M712.225 1537.96 L716.485 1537.96 L716.485 1563.89 L712.225 1563.89 L712.225 1537.96 M712.225 1527.87 L716.485 1527.87 L716.485 1533.26 L712.225 1533.26 L712.225 1527.87 Z" fill="#000000" fill-rule="nonzero" fill-opacity="1" /><path clip-path="url(#clip980)" d="M723.545 1537.96 L743.776 1537.96 L743.776 1541.85 L727.758 1560.49 L743.776 1560.49 L743.776 1563.89 L722.966 1563.89 L722.966 1560 L738.985 1541.36 L723.545 1541.36 L723.545 1537.96 Z" fill="#000000" fill-rule="nonzero" fill-opacity="1" /><path clip-path="url(#clip980)" d="M762.063 1550.86 Q756.901 1550.86 754.91 1552.04 Q752.92 1553.22 752.92 1556.06 Q752.92 1558.33 754.401 1559.67 Q755.906 1560.99 758.475 1560.99 Q762.017 1560.99 764.146 1558.49 Q766.299 1555.97 766.299 1551.8 L766.299 1550.86 L762.063 1550.86 M770.558 1549.1 L770.558 1563.89 L766.299 1563.89 L766.299 1559.95 Q764.841 1562.31 762.665 1563.45 Q760.489 1564.56 757.341 1564.56 Q753.359 1564.56 750.998 1562.34 Q748.66 1560.09 748.66 1556.34 Q748.66 1551.97 751.577 1549.74 Q754.517 1547.52 760.327 1547.52 L766.299 1547.52 L766.299 1547.11 Q766.299 1544.17 764.355 1542.57 Q762.433 1540.95 758.938 1540.95 Q756.716 1540.95 754.609 1541.48 Q752.503 1542.01 750.559 1543.08 L750.559 1539.14 Q752.896 1538.24 755.096 1537.8 Q757.295 1537.34 759.378 1537.34 Q765.003 1537.34 767.781 1540.25 Q770.558 1543.17 770.558 1549.1 Z" fill="#000000" fill-rule="nonzero" fill-opacity="1" /><path clip-path="url(#clip980)" d="M783.544 1530.6 L783.544 1537.96 L792.318 1537.96 L792.318 1541.27 L783.544 1541.27 L783.544 1555.35 Q783.544 1558.52 784.401 1559.42 Q785.281 1560.32 787.943 1560.32 L792.318 1560.32 L792.318 1563.89 L787.943 1563.89 Q783.012 1563.89 781.137 1562.06 Q779.262 1560.21 779.262 1555.35 L779.262 1541.27 L776.137 1541.27 L776.137 1537.96 L779.262 1537.96 L779.262 1530.6 L783.544 1530.6 Z" fill="#000000" fill-rule="nonzero" fill-opacity="1" /><path clip-path="url(#clip980)" d="M797.919 1537.96 L802.179 1537.96 L802.179 1563.89 L797.919 1563.89 L797.919 1537.96 M797.919 1527.87 L802.179 1527.87 L802.179 1533.26 L797.919 1533.26 L797.919 1527.87 Z" fill="#000000" fill-rule="nonzero" fill-opacity="1" /><path clip-path="url(#clip980)" d="M821.137 1540.95 Q817.711 1540.95 815.72 1543.63 Q813.729 1546.3 813.729 1550.95 Q813.729 1555.6 815.697 1558.29 Q817.688 1560.95 821.137 1560.95 Q824.54 1560.95 826.53 1558.26 Q828.521 1555.58 828.521 1550.95 Q828.521 1546.34 826.53 1543.66 Q824.54 1540.95 821.137 1540.95 M821.137 1537.34 Q826.692 1537.34 829.864 1540.95 Q833.035 1544.56 833.035 1550.95 Q833.035 1557.31 829.864 1560.95 Q826.692 1564.56 821.137 1564.56 Q815.558 1564.56 812.387 1560.95 Q809.239 1557.31 809.239 1550.95 Q809.239 1544.56 812.387 1540.95 Q815.558 1537.34 821.137 1537.34 Z" fill="#000000" fill-rule="nonzero" fill-opacity="1" /><path clip-path="url(#clip980)" d="M861.646 1548.24 L861.646 1563.89 L857.387 1563.89 L857.387 1548.38 Q857.387 1544.7 855.951 1542.87 Q854.516 1541.04 851.646 1541.04 Q848.197 1541.04 846.206 1543.24 Q844.215 1545.44 844.215 1549.24 L844.215 1563.89 L839.933 1563.89 L839.933 1537.96 L844.215 1537.96 L844.215 1541.99 Q845.743 1539.65 847.803 1538.49 Q849.887 1537.34 852.595 1537.34 Q857.063 1537.34 859.354 1540.11 Q861.646 1542.87 861.646 1548.24 Z" fill="#000000" fill-rule="nonzero" fill-opacity="1" /><path clip-path="url(#clip980)" d="M1165.42 1529.33 L1172.39 1529.33 L1181.21 1552.85 L1190.08 1529.33 L1197.04 1529.33 L1197.04 1563.89 L1192.48 1563.89 L1192.48 1533.54 L1183.57 1557.24 L1178.87 1557.24 L1169.96 1533.54 L1169.96 1563.89 L1165.42 1563.89 L1165.42 1529.33 Z" fill="#000000" fill-rule="nonzero" fill-opacity="1" /><path clip-path="url(#clip980)" d="M1206.33 1529.33 L1211 1529.33 L1211 1543.93 L1226.51 1529.33 L1232.53 1529.33 L1215.38 1545.44 L1233.76 1563.89 L1227.6 1563.89 L1211 1547.24 L1211 1563.89 L1206.33 1563.89 L1206.33 1529.33 Z" fill="#000000" fill-rule="nonzero" fill-opacity="1" /><path clip-path="url(#clip980)" d="M1237.41 1529.33 L1242.09 1529.33 L1242.09 1559.95 L1258.92 1559.95 L1258.92 1563.89 L1237.41 1563.89 L1237.41 1529.33 Z" fill="#000000" fill-rule="nonzero" fill-opacity="1" /><path clip-path="url(#clip980)" d="M1263.83 1529.33 L1268.5 1529.33 L1268.5 1559.95 L1285.33 1559.95 L1285.33 1563.89 L1263.83 1563.89 L1263.83 1529.33 Z" fill="#000000" fill-rule="nonzero" fill-opacity="1" /><path clip-path="url(#clip980)" d="M1287.34 1529.33 L1292.04 1529.33 L1292.04 1550.32 Q1292.04 1555.88 1294.06 1558.33 Q1296.07 1560.76 1300.59 1560.76 Q1305.08 1560.76 1307.09 1558.33 Q1309.1 1555.88 1309.1 1550.32 L1309.1 1529.33 L1313.8 1529.33 L1313.8 1550.9 Q1313.8 1557.66 1310.45 1561.11 Q1307.11 1564.56 1300.59 1564.56 Q1294.03 1564.56 1290.68 1561.11 Q1287.34 1557.66 1287.34 1550.9 L1287.34 1529.33 Z" fill="#000000" fill-rule="nonzero" fill-opacity="1" /><path clip-path="url(#clip980)" d="M1322.58 1529.33 L1342.44 1529.33 L1342.44 1533.26 L1327.25 1533.26 L1327.25 1543.45 L1340.96 1543.45 L1340.96 1547.38 L1327.25 1547.38 L1327.25 1563.89 L1322.58 1563.89 L1322.58 1529.33 Z" fill="#000000" fill-rule="nonzero" fill-opacity="1" /><path clip-path="url(#clip980)" d="M1357.09 1550.86 Q1351.93 1550.86 1349.94 1552.04 Q1347.95 1553.22 1347.95 1556.06 Q1347.95 1558.33 1349.43 1559.67 Q1350.93 1560.99 1353.5 1560.99 Q1357.04 1560.99 1359.17 1558.49 Q1361.33 1555.97 1361.33 1551.8 L1361.33 1550.86 L1357.09 1550.86 M1365.58 1549.1 L1365.58 1563.89 L1361.33 1563.89 L1361.33 1559.95 Q1359.87 1562.31 1357.69 1563.45 Q1355.52 1564.56 1352.37 1564.56 Q1348.39 1564.56 1346.02 1562.34 Q1343.69 1560.09 1343.69 1556.34 Q1343.69 1551.97 1346.6 1549.74 Q1349.54 1547.52 1355.35 1547.52 L1361.33 1547.52 L1361.33 1547.11 Q1361.33 1544.17 1359.38 1542.57 Q1357.46 1540.95 1353.96 1540.95 Q1351.74 1540.95 1349.64 1541.48 Q1347.53 1542.01 1345.58 1543.08 L1345.58 1539.14 Q1347.92 1538.24 1350.12 1537.8 Q1352.32 1537.34 1354.4 1537.34 Q1360.03 1537.34 1362.81 1540.25 Q1365.58 1543.17 1365.58 1549.1 Z" fill="#000000" fill-rule="nonzero" fill-opacity="1" /><path clip-path="url(#clip980)" d="M1393.02 1538.96 L1393.02 1542.94 Q1391.21 1541.94 1389.38 1541.46 Q1387.58 1540.95 1385.72 1540.95 Q1381.58 1540.95 1379.29 1543.59 Q1377 1546.2 1377 1550.95 Q1377 1555.69 1379.29 1558.33 Q1381.58 1560.95 1385.72 1560.95 Q1387.58 1560.95 1389.38 1560.46 Q1391.21 1559.95 1393.02 1558.96 L1393.02 1562.89 Q1391.23 1563.73 1389.31 1564.14 Q1387.41 1564.56 1385.26 1564.56 Q1379.4 1564.56 1375.96 1560.88 Q1372.51 1557.2 1372.51 1550.95 Q1372.51 1544.61 1375.98 1540.97 Q1379.47 1537.34 1385.54 1537.34 Q1387.51 1537.34 1389.38 1537.75 Q1391.26 1538.15 1393.02 1538.96 Z" fill="#000000" fill-rule="nonzero" fill-opacity="1" /><path clip-path="url(#clip980)" d="M1404.64 1530.6 L1404.64 1537.96 L1413.41 1537.96 L1413.41 1541.27 L1404.64 1541.27 L1404.64 1555.35 Q1404.64 1558.52 1405.49 1559.42 Q1406.37 1560.32 1409.03 1560.32 L1413.41 1560.32 L1413.41 1563.89 L1409.03 1563.89 Q1404.1 1563.89 1402.23 1562.06 Q1400.35 1560.21 1400.35 1555.35 L1400.35 1541.27 L1397.23 1541.27 L1397.23 1537.96 L1400.35 1537.96 L1400.35 1530.6 L1404.64 1530.6 Z" fill="#000000" fill-rule="nonzero" fill-opacity="1" /><path clip-path="url(#clip980)" d="M1429.06 1540.95 Q1425.63 1540.95 1423.64 1543.63 Q1421.65 1546.3 1421.65 1550.95 Q1421.65 1555.6 1423.62 1558.29 Q1425.61 1560.95 1429.06 1560.95 Q1432.46 1560.95 1434.45 1558.26 Q1436.44 1555.58 1436.44 1550.95 Q1436.44 1546.34 1434.45 1543.66 Q1432.46 1540.95 1429.06 1540.95 M1429.06 1537.34 Q1434.61 1537.34 1437.78 1540.95 Q1440.95 1544.56 1440.95 1550.95 Q1440.95 1557.31 1437.78 1560.95 Q1434.61 1564.56 1429.06 1564.56 Q1423.48 1564.56 1420.31 1560.95 Q1417.16 1557.31 1417.16 1550.95 Q1417.16 1544.56 1420.31 1540.95 Q1423.48 1537.34 1429.06 1537.34 Z" fill="#000000" fill-rule="nonzero" fill-opacity="1" /><path clip-path="url(#clip980)" d="M1463.04 1541.94 Q1462.32 1541.53 1461.46 1541.34 Q1460.63 1541.13 1459.61 1541.13 Q1456 1541.13 1454.06 1543.49 Q1452.14 1545.83 1452.14 1550.23 L1452.14 1563.89 L1447.85 1563.89 L1447.85 1537.96 L1452.14 1537.96 L1452.14 1541.99 Q1453.48 1539.63 1455.63 1538.49 Q1457.78 1537.34 1460.86 1537.34 Q1461.3 1537.34 1461.83 1537.41 Q1462.37 1537.45 1463.01 1537.57 L1463.04 1541.94 Z" fill="#000000" fill-rule="nonzero" fill-opacity="1" /><path clip-path="url(#clip980)" d="M1467.51 1537.96 L1471.76 1537.96 L1471.76 1563.89 L1467.51 1563.89 L1467.51 1537.96 M1467.51 1527.87 L1471.76 1527.87 L1471.76 1533.26 L1467.51 1533.26 L1467.51 1527.87 Z" fill="#000000" fill-rule="nonzero" fill-opacity="1" /><path clip-path="url(#clip980)" d="M1478.82 1537.96 L1499.06 1537.96 L1499.06 1541.85 L1483.04 1560.49 L1499.06 1560.49 L1499.06 1563.89 L1478.25 1563.89 L1478.25 1560 L1494.26 1541.36 L1478.82 1541.36 L1478.82 1537.96 Z" fill="#000000" fill-rule="nonzero" fill-opacity="1" /><path clip-path="url(#clip980)" d="M1517.34 1550.86 Q1512.18 1550.86 1510.19 1552.04 Q1508.2 1553.22 1508.2 1556.06 Q1508.2 1558.33 1509.68 1559.67 Q1511.19 1560.99 1513.76 1560.99 Q1517.3 1560.99 1519.43 1558.49 Q1521.58 1555.97 1521.58 1551.8 L1521.58 1550.86 L1517.34 1550.86 M1525.84 1549.1 L1525.84 1563.89 L1521.58 1563.89 L1521.58 1559.95 Q1520.12 1562.31 1517.95 1563.45 Q1515.77 1564.56 1512.62 1564.56 Q1508.64 1564.56 1506.28 1562.34 Q1503.94 1560.09 1503.94 1556.34 Q1503.94 1551.97 1506.86 1549.74 Q1509.8 1547.52 1515.61 1547.52 L1521.58 1547.52 L1521.58 1547.11 Q1521.58 1544.17 1519.63 1542.57 Q1517.71 1540.95 1514.22 1540.95 Q1512 1540.95 1509.89 1541.48 Q1507.78 1542.01 1505.84 1543.08 L1505.84 1539.14 Q1508.18 1538.24 1510.38 1537.8 Q1512.57 1537.34 1514.66 1537.34 Q1520.28 1537.34 1523.06 1540.25 Q1525.84 1543.17 1525.84 1549.1 Z" fill="#000000" fill-rule="nonzero" fill-opacity="1" /><path clip-path="url(#clip980)" d="M1538.82 1530.6 L1538.82 1537.96 L1547.6 1537.96 L1547.6 1541.27 L1538.82 1541.27 L1538.82 1555.35 Q1538.82 1558.52 1539.68 1559.42 Q1540.56 1560.32 1543.22 1560.32 L1547.6 1560.32 L1547.6 1563.89 L1543.22 1563.89 Q1538.29 1563.89 1536.42 1562.06 Q1534.54 1560.21 1534.54 1555.35 L1534.54 1541.27 L1531.42 1541.27 L1531.42 1537.96 L1534.54 1537.96 L1534.54 1530.6 L1538.82 1530.6 Z" fill="#000000" fill-rule="nonzero" fill-opacity="1" /><path clip-path="url(#clip980)" d="M1553.2 1537.96 L1557.46 1537.96 L1557.46 1563.89 L1553.2 1563.89 L1553.2 1537.96 M1553.2 1527.87 L1557.46 1527.87 L1557.46 1533.26 L1553.2 1533.26 L1553.2 1527.87 Z" fill="#000000" fill-rule="nonzero" fill-opacity="1" /><path clip-path="url(#clip980)" d="M1576.42 1540.95 Q1572.99 1540.95 1571 1543.63 Q1569.01 1546.3 1569.01 1550.95 Q1569.01 1555.6 1570.98 1558.29 Q1572.97 1560.95 1576.42 1560.95 Q1579.82 1560.95 1581.81 1558.26 Q1583.8 1555.58 1583.8 1550.95 Q1583.8 1546.34 1581.81 1543.66 Q1579.82 1540.95 1576.42 1540.95 M1576.42 1537.34 Q1581.97 1537.34 1585.14 1540.95 Q1588.32 1544.56 1588.32 1550.95 Q1588.32 1557.31 1585.14 1560.95 Q1581.97 1564.56 1576.42 1564.56 Q1570.84 1564.56 1567.67 1560.95 Q1564.52 1557.31 1564.52 1550.95 Q1564.52 1544.56 1567.67 1540.95 Q1570.84 1537.34 1576.42 1537.34 Z" fill="#000000" fill-rule="nonzero" fill-opacity="1" /><path clip-path="url(#clip980)" d="M1616.93 1548.24 L1616.93 1563.89 L1612.67 1563.89 L1612.67 1548.38 Q1612.67 1544.7 1611.23 1542.87 Q1609.8 1541.04 1606.93 1541.04 Q1603.48 1541.04 1601.49 1543.24 Q1599.5 1545.44 1599.5 1549.24 L1599.5 1563.89 L1595.21 1563.89 L1595.21 1537.96 L1599.5 1537.96 L1599.5 1541.99 Q1601.02 1539.65 1603.08 1538.49 Q1605.17 1537.34 1607.88 1537.34 Q1612.34 1537.34 1614.63 1540.11 Q1616.93 1542.87 1616.93 1548.24 Z" fill="#000000" fill-rule="nonzero" fill-opacity="1" /><path clip-path="url(#clip980)" d="M1950.81 1529.33 L1955.48 1529.33 L1955.48 1559.95 L1972.31 1559.95 L1972.31 1563.89 L1950.81 1563.89 L1950.81 1529.33 Z" fill="#000000" fill-rule="nonzero" fill-opacity="1" /><path clip-path="url(#clip980)" d="M1974.33 1529.33 L1979.03 1529.33 L1979.03 1550.32 Q1979.03 1555.88 1981.04 1558.33 Q1983.05 1560.76 1987.57 1560.76 Q1992.06 1560.76 1994.07 1558.33 Q1996.09 1555.88 1996.09 1550.32 L1996.09 1529.33 L2000.78 1529.33 L2000.78 1550.9 Q2000.78 1557.66 1997.43 1561.11 Q1994.09 1564.56 1987.57 1564.56 Q1981.02 1564.56 1977.66 1561.11 Q1974.33 1557.66 1974.33 1550.9 L1974.33 1529.33 Z" fill="#000000" fill-rule="nonzero" fill-opacity="1" /><path clip-path="url(#clip980)" d="M2009.56 1529.33 L2029.42 1529.33 L2029.42 1533.26 L2014.23 1533.26 L2014.23 1543.45 L2027.94 1543.45 L2027.94 1547.38 L2014.23 1547.38 L2014.23 1563.89 L2009.56 1563.89 L2009.56 1529.33 Z" fill="#000000" fill-rule="nonzero" fill-opacity="1" /><path clip-path="url(#clip980)" d="M2044.07 1550.86 Q2038.91 1550.86 2036.92 1552.04 Q2034.93 1553.22 2034.93 1556.06 Q2034.93 1558.33 2036.41 1559.67 Q2037.91 1560.99 2040.48 1560.99 Q2044.03 1560.99 2046.15 1558.49 Q2048.31 1555.97 2048.31 1551.8 L2048.31 1550.86 L2044.07 1550.86 M2052.57 1549.1 L2052.57 1563.89 L2048.31 1563.89 L2048.31 1559.95 Q2046.85 1562.31 2044.67 1563.45 Q2042.5 1564.56 2039.35 1564.56 Q2035.37 1564.56 2033.01 1562.34 Q2030.67 1560.09 2030.67 1556.34 Q2030.67 1551.97 2033.59 1549.74 Q2036.53 1547.52 2042.34 1547.52 L2048.31 1547.52 L2048.31 1547.11 Q2048.31 1544.17 2046.36 1542.57 Q2044.44 1540.95 2040.95 1540.95 Q2038.72 1540.95 2036.62 1541.48 Q2034.51 1542.01 2032.57 1543.08 L2032.57 1539.14 Q2034.9 1538.24 2037.1 1537.8 Q2039.3 1537.34 2041.39 1537.34 Q2047.01 1537.34 2049.79 1540.25 Q2052.57 1543.17 2052.57 1549.1 Z" fill="#000000" fill-rule="nonzero" fill-opacity="1" /><path clip-path="url(#clip980)" d="M2080 1538.96 L2080 1542.94 Q2078.19 1541.94 2076.36 1541.46 Q2074.56 1540.95 2072.71 1540.95 Q2068.56 1540.95 2066.27 1543.59 Q2063.98 1546.2 2063.98 1550.95 Q2063.98 1555.69 2066.27 1558.33 Q2068.56 1560.95 2072.71 1560.95 Q2074.56 1560.95 2076.36 1560.46 Q2078.19 1559.95 2080 1558.96 L2080 1562.89 Q2078.21 1563.73 2076.29 1564.14 Q2074.4 1564.56 2072.24 1564.56 Q2066.39 1564.56 2062.94 1560.88 Q2059.49 1557.2 2059.49 1550.95 Q2059.49 1544.61 2062.96 1540.97 Q2066.46 1537.34 2072.52 1537.34 Q2074.49 1537.34 2076.36 1537.75 Q2078.24 1538.15 2080 1538.96 Z" fill="#000000" fill-rule="nonzero" fill-opacity="1" /><path clip-path="url(#clip980)" d="M2091.62 1530.6 L2091.62 1537.96 L2100.39 1537.96 L2100.39 1541.27 L2091.62 1541.27 L2091.62 1555.35 Q2091.62 1558.52 2092.47 1559.42 Q2093.35 1560.32 2096.02 1560.32 L2100.39 1560.32 L2100.39 1563.89 L2096.02 1563.89 Q2091.09 1563.89 2089.21 1562.06 Q2087.34 1560.21 2087.34 1555.35 L2087.34 1541.27 L2084.21 1541.27 L2084.21 1537.96 L2087.34 1537.96 L2087.34 1530.6 L2091.62 1530.6 Z" fill="#000000" fill-rule="nonzero" fill-opacity="1" /><path clip-path="url(#clip980)" d="M2116.04 1540.95 Q2112.61 1540.95 2110.62 1543.63 Q2108.63 1546.3 2108.63 1550.95 Q2108.63 1555.6 2110.6 1558.29 Q2112.59 1560.95 2116.04 1560.95 Q2119.44 1560.95 2121.43 1558.26 Q2123.42 1555.58 2123.42 1550.95 Q2123.42 1546.34 2121.43 1543.66 Q2119.44 1540.95 2116.04 1540.95 M2116.04 1537.34 Q2121.59 1537.34 2124.77 1540.95 Q2127.94 1544.56 2127.94 1550.95 Q2127.94 1557.31 2124.77 1560.95 Q2121.59 1564.56 2116.04 1564.56 Q2110.46 1564.56 2107.29 1560.95 Q2104.14 1557.31 2104.14 1550.95 Q2104.14 1544.56 2107.29 1540.95 Q2110.46 1537.34 2116.04 1537.34 Z" fill="#000000" fill-rule="nonzero" fill-opacity="1" /><path clip-path="url(#clip980)" d="M2150.02 1541.94 Q2149.3 1541.53 2148.45 1541.34 Q2147.61 1541.13 2146.59 1541.13 Q2142.98 1541.13 2141.04 1543.49 Q2139.12 1545.83 2139.12 1550.23 L2139.12 1563.89 L2134.83 1563.89 L2134.83 1537.96 L2139.12 1537.96 L2139.12 1541.99 Q2140.46 1539.63 2142.61 1538.49 Q2144.77 1537.34 2147.84 1537.34 Q2148.28 1537.34 2148.82 1537.41 Q2149.35 1537.45 2150 1537.57 L2150.02 1541.94 Z" fill="#000000" fill-rule="nonzero" fill-opacity="1" /><path clip-path="url(#clip980)" d="M2154.49 1537.96 L2158.75 1537.96 L2158.75 1563.89 L2154.49 1563.89 L2154.49 1537.96 M2154.49 1527.87 L2158.75 1527.87 L2158.75 1533.26 L2154.49 1533.26 L2154.49 1527.87 Z" fill="#000000" fill-rule="nonzero" fill-opacity="1" /><path clip-path="url(#clip980)" d="M2165.81 1537.96 L2186.04 1537.96 L2186.04 1541.85 L2170.02 1560.49 L2186.04 1560.49 L2186.04 1563.89 L2165.23 1563.89 L2165.23 1560 L2181.25 1541.36 L2165.81 1541.36 L2165.81 1537.96 Z" fill="#000000" fill-rule="nonzero" fill-opacity="1" /><path clip-path="url(#clip980)" d="M2204.33 1550.86 Q2199.16 1550.86 2197.17 1552.04 Q2195.18 1553.22 2195.18 1556.06 Q2195.18 1558.33 2196.66 1559.67 Q2198.17 1560.99 2200.74 1560.99 Q2204.28 1560.99 2206.41 1558.49 Q2208.56 1555.97 2208.56 1551.8 L2208.56 1550.86 L2204.33 1550.86 M2212.82 1549.1 L2212.82 1563.89 L2208.56 1563.89 L2208.56 1559.95 Q2207.1 1562.31 2204.93 1563.45 Q2202.75 1564.56 2199.6 1564.56 Q2195.62 1564.56 2193.26 1562.34 Q2190.92 1560.09 2190.92 1556.34 Q2190.92 1551.97 2193.84 1549.74 Q2196.78 1547.52 2202.59 1547.52 L2208.56 1547.52 L2208.56 1547.11 Q2208.56 1544.17 2206.62 1542.57 Q2204.7 1540.95 2201.2 1540.95 Q2198.98 1540.95 2196.87 1541.48 Q2194.77 1542.01 2192.82 1543.08 L2192.82 1539.14 Q2195.16 1538.24 2197.36 1537.8 Q2199.56 1537.34 2201.64 1537.34 Q2207.27 1537.34 2210.04 1540.25 Q2212.82 1543.17 2212.82 1549.1 Z" fill="#000000" fill-rule="nonzero" fill-opacity="1" /><path clip-path="url(#clip980)" d="M2225.81 1530.6 L2225.81 1537.96 L2234.58 1537.96 L2234.58 1541.27 L2225.81 1541.27 L2225.81 1555.35 Q2225.81 1558.52 2226.66 1559.42 Q2227.54 1560.32 2230.2 1560.32 L2234.58 1560.32 L2234.58 1563.89 L2230.2 1563.89 Q2225.27 1563.89 2223.4 1562.06 Q2221.52 1560.21 2221.52 1555.35 L2221.52 1541.27 L2218.4 1541.27 L2218.4 1537.96 L2221.52 1537.96 L2221.52 1530.6 L2225.81 1530.6 Z" fill="#000000" fill-rule="nonzero" fill-opacity="1" /><path clip-path="url(#clip980)" d="M2240.18 1537.96 L2244.44 1537.96 L2244.44 1563.89 L2240.18 1563.89 L2240.18 1537.96 M2240.18 1527.87 L2244.44 1527.87 L2244.44 1533.26 L2240.18 1533.26 L2240.18 1527.87 Z" fill="#000000" fill-rule="nonzero" fill-opacity="1" /><path clip-path="url(#clip980)" d="M2263.4 1540.95 Q2259.97 1540.95 2257.98 1543.63 Q2255.99 1546.3 2255.99 1550.95 Q2255.99 1555.6 2257.96 1558.29 Q2259.95 1560.95 2263.4 1560.95 Q2266.8 1560.95 2268.79 1558.26 Q2270.78 1555.58 2270.78 1550.95 Q2270.78 1546.34 2268.79 1543.66 Q2266.8 1540.95 2263.4 1540.95 M2263.4 1537.34 Q2268.95 1537.34 2272.13 1540.95 Q2275.3 1544.56 2275.3 1550.95 Q2275.3 1557.31 2272.13 1560.95 Q2268.95 1564.56 2263.4 1564.56 Q2257.82 1564.56 2254.65 1560.95 Q2251.5 1557.31 2251.5 1550.95 Q2251.5 1544.56 2254.65 1540.95 Q2257.82 1537.34 2263.4 1537.34 Z" fill="#000000" fill-rule="nonzero" fill-opacity="1" /><path clip-path="url(#clip980)" d="M2303.91 1548.24 L2303.91 1563.89 L2299.65 1563.89 L2299.65 1548.38 Q2299.65 1544.7 2298.21 1542.87 Q2296.78 1541.04 2293.91 1541.04 Q2290.46 1541.04 2288.47 1543.24 Q2286.48 1545.44 2286.48 1549.24 L2286.48 1563.89 L2282.2 1563.89 L2282.2 1537.96 L2286.48 1537.96 L2286.48 1541.99 Q2288.01 1539.65 2290.07 1538.49 Q2292.15 1537.34 2294.86 1537.34 Q2299.32 1537.34 2301.62 1540.11 Q2303.91 1542.87 2303.91 1548.24 Z" fill="#000000" fill-rule="nonzero" fill-opacity="1" /><path clip-path="url(#clip980)" d="M2771.37 1529.33 L2776.04 1529.33 L2776.04 1543.93 L2791.55 1529.33 L2797.57 1529.33 L2780.42 1545.44 L2798.8 1563.89 L2792.64 1563.89 L2776.04 1547.24 L2776.04 1563.89 L2771.37 1563.89 L2771.37 1529.33 Z" fill="#000000" fill-rule="nonzero" fill-opacity="1" /><path clip-path="url(#clip980)" d="M2817.29 1541.94 Q2816.57 1541.53 2815.72 1541.34 Q2814.88 1541.13 2813.87 1541.13 Q2810.25 1541.13 2808.31 1543.49 Q2806.39 1545.83 2806.39 1550.23 L2806.39 1563.89 L2802.11 1563.89 L2802.11 1537.96 L2806.39 1537.96 L2806.39 1541.99 Q2807.73 1539.63 2809.88 1538.49 Q2812.04 1537.34 2815.12 1537.34 Q2815.56 1537.34 2816.09 1537.41 Q2816.62 1537.45 2817.27 1537.57 L2817.29 1541.94 Z" fill="#000000" fill-rule="nonzero" fill-opacity="1" /><path clip-path="url(#clip980)" d="M2832.55 1566.3 Q2830.74 1570.92 2829.03 1572.34 Q2827.31 1573.75 2824.44 1573.75 L2821.04 1573.75 L2821.04 1570.18 L2823.54 1570.18 Q2825.3 1570.18 2826.27 1569.35 Q2827.25 1568.52 2828.43 1565.42 L2829.19 1563.47 L2818.7 1537.96 L2823.22 1537.96 L2831.32 1558.24 L2839.42 1537.96 L2843.93 1537.96 L2832.55 1566.3 Z" fill="#000000" fill-rule="nonzero" fill-opacity="1" /><path clip-path="url(#clip980)" d="M2849.81 1527.87 L2854.07 1527.87 L2854.07 1563.89 L2849.81 1563.89 L2849.81 1527.87 Z" fill="#000000" fill-rule="nonzero" fill-opacity="1" /><path clip-path="url(#clip980)" d="M2873.03 1540.95 Q2869.61 1540.95 2867.62 1543.63 Q2865.62 1546.3 2865.62 1550.95 Q2865.62 1555.6 2867.59 1558.29 Q2869.58 1560.95 2873.03 1560.95 Q2876.43 1560.95 2878.43 1558.26 Q2880.42 1555.58 2880.42 1550.95 Q2880.42 1546.34 2878.43 1543.66 Q2876.43 1540.95 2873.03 1540.95 M2873.03 1537.34 Q2878.59 1537.34 2881.76 1540.95 Q2884.93 1544.56 2884.93 1550.95 Q2884.93 1557.31 2881.76 1560.95 Q2878.59 1564.56 2873.03 1564.56 Q2867.45 1564.56 2864.28 1560.95 Q2861.13 1557.31 2861.13 1550.95 Q2861.13 1544.56 2864.28 1540.95 Q2867.45 1537.34 2873.03 1537.34 Z" fill="#000000" fill-rule="nonzero" fill-opacity="1" /><path clip-path="url(#clip980)" d="M2888.93 1537.96 L2893.45 1537.96 L2901.55 1559.72 L2909.65 1537.96 L2914.17 1537.96 L2904.44 1563.89 L2898.66 1563.89 L2888.93 1537.96 Z" fill="#000000" fill-rule="nonzero" fill-opacity="1" /><path clip-path="url(#clip980)" d="M2920.23 1529.33 L2924.91 1529.33 L2924.91 1561.48 Q2924.91 1567.73 2922.52 1570.55 Q2920.16 1573.38 2914.91 1573.38 L2913.12 1573.38 L2913.12 1569.44 L2914.58 1569.44 Q2917.68 1569.44 2918.96 1567.71 Q2920.23 1565.97 2920.23 1561.48 L2920.23 1529.33 Z" fill="#000000" fill-rule="nonzero" fill-opacity="1" /><path clip-path="url(#clip980)" d="M2934.21 1529.33 L2938.89 1529.33 L2938.89 1559.95 L2955.72 1559.95 L2955.72 1563.89 L2934.21 1563.89 L2934.21 1529.33 Z" fill="#000000" fill-rule="nonzero" fill-opacity="1" /><polyline clip-path="url(#clip980)" style="stroke:#000000; stroke-linecap:round; stroke-linejoin:round; stroke-width:4; stroke-opacity:1; fill:none" points="365.777,1495.09 365.777,47.2441 "/>
<polyline clip-path="url(#clip980)" style="stroke:#000000; stroke-linecap:round; stroke-linejoin:round; stroke-width:4; stroke-opacity:1; fill:none" points="365.777,1399.72 384.675,1399.72 "/>
<polyline clip-path="url(#clip980)" style="stroke:#000000; stroke-linecap:round; stroke-linejoin:round; stroke-width:4; stroke-opacity:1; fill:none" points="365.777,1088.75 384.675,1088.75 "/>
<polyline clip-path="url(#clip980)" style="stroke:#000000; stroke-linecap:round; stroke-linejoin:round; stroke-width:4; stroke-opacity:1; fill:none" points="365.777,777.781 384.675,777.781 "/>
<polyline clip-path="url(#clip980)" style="stroke:#000000; stroke-linecap:round; stroke-linejoin:round; stroke-width:4; stroke-opacity:1; fill:none" points="365.777,466.814 384.675,466.814 "/>
<polyline clip-path="url(#clip980)" style="stroke:#000000; stroke-linecap:round; stroke-linejoin:round; stroke-width:4; stroke-opacity:1; fill:none" points="365.777,155.847 384.675,155.847 "/>
<path clip-path="url(#clip980)" d="M113.982 1392.96 L102.176 1411.41 L113.982 1411.41 L113.982 1392.96 M112.755 1388.88 L118.635 1388.88 L118.635 1411.41 L123.565 1411.41 L123.565 1415.3 L118.635 1415.3 L118.635 1423.44 L113.982 1423.44 L113.982 1415.3 L98.3802 1415.3 L98.3802 1410.78 L112.755 1388.88 Z" fill="#000000" fill-rule="nonzero" fill-opacity="1" /><path clip-path="url(#clip980)" d="M131.297 1417.56 L136.181 1417.56 L136.181 1423.44 L131.297 1423.44 L131.297 1417.56 Z" fill="#000000" fill-rule="nonzero" fill-opacity="1" /><path clip-path="url(#clip980)" d="M156.366 1391.96 Q152.755 1391.96 150.926 1395.53 Q149.121 1399.07 149.121 1406.2 Q149.121 1413.3 150.926 1416.87 Q152.755 1420.41 156.366 1420.41 Q160 1420.41 161.806 1416.87 Q163.634 1413.3 163.634 1406.2 Q163.634 1399.07 161.806 1395.53 Q160 1391.96 156.366 1391.96 M156.366 1388.26 Q162.176 1388.26 165.232 1392.86 Q168.31 1397.45 168.31 1406.2 Q168.31 1414.92 165.232 1419.53 Q162.176 1424.11 156.366 1424.11 Q150.556 1424.11 147.477 1419.53 Q144.422 1414.92 144.422 1406.2 Q144.422 1397.45 147.477 1392.86 Q150.556 1388.26 156.366 1388.26 Z" fill="#000000" fill-rule="nonzero" fill-opacity="1" /><path clip-path="url(#clip980)" d="M186.528 1391.96 Q182.917 1391.96 181.088 1395.53 Q179.283 1399.07 179.283 1406.2 Q179.283 1413.3 181.088 1416.87 Q182.917 1420.41 186.528 1420.41 Q190.162 1420.41 191.968 1416.87 Q193.796 1413.3 193.796 1406.2 Q193.796 1399.07 191.968 1395.53 Q190.162 1391.96 186.528 1391.96 M186.528 1388.26 Q192.338 1388.26 195.394 1392.86 Q198.472 1397.45 198.472 1406.2 Q198.472 1414.92 195.394 1419.53 Q192.338 1424.11 186.528 1424.11 Q180.718 1424.11 177.639 1419.53 Q174.583 1414.92 174.583 1406.2 Q174.583 1397.45 177.639 1392.86 Q180.718 1388.26 186.528 1388.26 Z" fill="#000000" fill-rule="nonzero" fill-opacity="1" /><path clip-path="url(#clip980)" d="M234.861 1397.98 L224.282 1408.61 L234.861 1419.18 L232.106 1421.98 L221.481 1411.36 L210.856 1421.98 L208.125 1419.18 L218.68 1408.61 L208.125 1397.98 L210.856 1395.18 L221.481 1405.8 L232.106 1395.18 L234.861 1397.98 Z" fill="#000000" fill-rule="nonzero" fill-opacity="1" /><path clip-path="url(#clip980)" d="M247.222 1419.51 L254.861 1419.51 L254.861 1393.14 L246.551 1394.81 L246.551 1390.55 L254.815 1388.88 L259.49 1388.88 L259.49 1419.51 L267.129 1419.51 L267.129 1423.44 L247.222 1423.44 L247.222 1419.51 Z" fill="#000000" fill-rule="nonzero" fill-opacity="1" /><path clip-path="url(#clip980)" d="M286.574 1391.96 Q282.963 1391.96 281.134 1395.53 Q279.328 1399.07 279.328 1406.2 Q279.328 1413.3 281.134 1416.87 Q282.963 1420.41 286.574 1420.41 Q290.208 1420.41 292.013 1416.87 Q293.842 1413.3 293.842 1406.2 Q293.842 1399.07 292.013 1395.53 Q290.208 1391.96 286.574 1391.96 M286.574 1388.26 Q292.384 1388.26 295.439 1392.86 Q298.518 1397.45 298.518 1406.2 Q298.518 1414.92 295.439 1419.53 Q292.384 1424.11 286.574 1424.11 Q280.763 1424.11 277.685 1419.53 Q274.629 1414.92 274.629 1406.2 Q274.629 1397.45 277.685 1392.86 Q280.763 1388.26 286.574 1388.26 Z" fill="#000000" fill-rule="nonzero" fill-opacity="1" /><path clip-path="url(#clip980)" d="M308.148 1382.7 Q305.439 1382.7 303.878 1384.15 Q302.336 1385.59 302.336 1388.13 Q302.336 1390.67 303.878 1392.12 Q305.439 1393.57 308.148 1393.57 Q310.856 1393.57 312.417 1392.12 Q313.978 1390.65 313.978 1388.13 Q313.978 1385.59 312.417 1384.15 Q310.875 1382.7 308.148 1382.7 M304.348 1381.08 Q301.903 1380.48 300.53 1378.8 Q299.176 1377.13 299.176 1374.72 Q299.176 1371.36 301.565 1369.4 Q303.972 1367.45 308.148 1367.45 Q312.342 1367.45 314.73 1369.4 Q317.119 1371.36 317.119 1374.72 Q317.119 1377.13 315.746 1378.8 Q314.392 1380.48 311.966 1381.08 Q314.711 1381.72 316.235 1383.58 Q317.777 1385.44 317.777 1388.13 Q317.777 1392.21 315.276 1394.4 Q312.793 1396.58 308.148 1396.58 Q303.502 1396.58 301.001 1394.4 Q298.518 1392.21 298.518 1388.13 Q298.518 1385.44 300.06 1383.58 Q301.602 1381.72 304.348 1381.08 M302.957 1375.08 Q302.957 1377.26 304.311 1378.49 Q305.684 1379.71 308.148 1379.71 Q310.593 1379.71 311.966 1378.49 Q313.357 1377.26 313.357 1375.08 Q313.357 1372.9 311.966 1371.68 Q310.593 1370.45 308.148 1370.45 Q305.684 1370.45 304.311 1371.68 Q302.957 1372.9 302.957 1375.08 Z" fill="#000000" fill-rule="nonzero" fill-opacity="1" /><path clip-path="url(#clip980)" d="M111.713 1093.33 Q108.565 1093.33 106.713 1095.49 Q104.885 1097.64 104.885 1101.39 Q104.885 1105.12 106.713 1107.29 Q108.565 1109.44 111.713 1109.44 Q114.862 1109.44 116.69 1107.29 Q118.542 1105.12 118.542 1101.39 Q118.542 1097.64 116.69 1095.49 Q114.862 1093.33 111.713 1093.33 M120.996 1078.68 L120.996 1082.94 Q119.237 1082.11 117.431 1081.67 Q115.649 1081.23 113.889 1081.23 Q109.26 1081.23 106.806 1084.35 Q104.375 1087.48 104.028 1093.8 Q105.394 1091.78 107.454 1090.72 Q109.514 1089.63 111.991 1089.63 Q117.2 1089.63 120.209 1092.8 Q123.241 1095.95 123.241 1101.39 Q123.241 1106.71 120.093 1109.93 Q116.945 1113.15 111.713 1113.15 Q105.718 1113.15 102.547 1108.56 Q99.3755 1103.96 99.3755 1095.23 Q99.3755 1087.04 103.264 1082.18 Q107.153 1077.29 113.704 1077.29 Q115.463 1077.29 117.246 1077.64 Q119.051 1077.99 120.996 1078.68 Z" fill="#000000" fill-rule="nonzero" fill-opacity="1" /><path clip-path="url(#clip980)" d="M131.297 1106.6 L136.181 1106.6 L136.181 1112.48 L131.297 1112.48 L131.297 1106.6 Z" fill="#000000" fill-rule="nonzero" fill-opacity="1" /><path clip-path="url(#clip980)" d="M156.366 1080.99 Q152.755 1080.99 150.926 1084.56 Q149.121 1088.1 149.121 1095.23 Q149.121 1102.34 150.926 1105.9 Q152.755 1109.44 156.366 1109.44 Q160 1109.44 161.806 1105.9 Q163.634 1102.34 163.634 1095.23 Q163.634 1088.1 161.806 1084.56 Q160 1080.99 156.366 1080.99 M156.366 1077.29 Q162.176 1077.29 165.232 1081.9 Q168.31 1086.48 168.31 1095.23 Q168.31 1103.96 165.232 1108.56 Q162.176 1113.15 156.366 1113.15 Q150.556 1113.15 147.477 1108.56 Q144.422 1103.96 144.422 1095.23 Q144.422 1086.48 147.477 1081.9 Q150.556 1077.29 156.366 1077.29 Z" fill="#000000" fill-rule="nonzero" fill-opacity="1" /><path clip-path="url(#clip980)" d="M186.528 1080.99 Q182.917 1080.99 181.088 1084.56 Q179.283 1088.1 179.283 1095.23 Q179.283 1102.34 181.088 1105.9 Q182.917 1109.44 186.528 1109.44 Q190.162 1109.44 191.968 1105.9 Q193.796 1102.34 193.796 1095.23 Q193.796 1088.1 191.968 1084.56 Q190.162 1080.99 186.528 1080.99 M186.528 1077.29 Q192.338 1077.29 195.394 1081.9 Q198.472 1086.48 198.472 1095.23 Q198.472 1103.96 195.394 1108.56 Q192.338 1113.15 186.528 1113.15 Q180.718 1113.15 177.639 1108.56 Q174.583 1103.96 174.583 1095.23 Q174.583 1086.48 177.639 1081.9 Q180.718 1077.29 186.528 1077.29 Z" fill="#000000" fill-rule="nonzero" fill-opacity="1" /><path clip-path="url(#clip980)" d="M234.861 1087.01 L224.282 1097.64 L234.861 1108.22 L232.106 1111.02 L221.481 1100.39 L210.856 1111.02 L208.125 1108.22 L218.68 1097.64 L208.125 1087.01 L210.856 1084.21 L221.481 1094.84 L232.106 1084.21 L234.861 1087.01 Z" fill="#000000" fill-rule="nonzero" fill-opacity="1" /><path clip-path="url(#clip980)" d="M247.222 1108.54 L254.861 1108.54 L254.861 1082.18 L246.551 1083.84 L246.551 1079.58 L254.815 1077.92 L259.49 1077.92 L259.49 1108.54 L267.129 1108.54 L267.129 1112.48 L247.222 1112.48 L247.222 1108.54 Z" fill="#000000" fill-rule="nonzero" fill-opacity="1" /><path clip-path="url(#clip980)" d="M286.574 1080.99 Q282.963 1080.99 281.134 1084.56 Q279.328 1088.1 279.328 1095.23 Q279.328 1102.34 281.134 1105.9 Q282.963 1109.44 286.574 1109.44 Q290.208 1109.44 292.013 1105.9 Q293.842 1102.34 293.842 1095.23 Q293.842 1088.1 292.013 1084.56 Q290.208 1080.99 286.574 1080.99 M286.574 1077.29 Q292.384 1077.29 295.439 1081.9 Q298.518 1086.48 298.518 1095.23 Q298.518 1103.96 295.439 1108.56 Q292.384 1113.15 286.574 1113.15 Q280.763 1113.15 277.685 1108.56 Q274.629 1103.96 274.629 1095.23 Q274.629 1086.48 277.685 1081.9 Q280.763 1077.29 286.574 1077.29 Z" fill="#000000" fill-rule="nonzero" fill-opacity="1" /><path clip-path="url(#clip980)" d="M308.148 1071.73 Q305.439 1071.73 303.878 1073.18 Q302.336 1074.63 302.336 1077.17 Q302.336 1079.71 303.878 1081.15 Q305.439 1082.6 308.148 1082.6 Q310.856 1082.6 312.417 1081.15 Q313.978 1079.69 313.978 1077.17 Q313.978 1074.63 312.417 1073.18 Q310.875 1071.73 308.148 1071.73 M304.348 1070.11 Q301.903 1069.51 300.53 1067.84 Q299.176 1066.16 299.176 1063.76 Q299.176 1060.39 301.565 1058.43 Q303.972 1056.48 308.148 1056.48 Q312.342 1056.48 314.73 1058.43 Q317.119 1060.39 317.119 1063.76 Q317.119 1066.16 315.746 1067.84 Q314.392 1069.51 311.966 1070.11 Q314.711 1070.75 316.235 1072.61 Q317.777 1074.48 317.777 1077.17 Q317.777 1081.25 315.276 1083.43 Q312.793 1085.61 308.148 1085.61 Q303.502 1085.61 301.001 1083.43 Q298.518 1081.25 298.518 1077.17 Q298.518 1074.48 300.06 1072.61 Q301.602 1070.75 304.348 1070.11 M302.957 1064.11 Q302.957 1066.3 304.311 1067.52 Q305.684 1068.74 308.148 1068.74 Q310.593 1068.74 311.966 1067.52 Q313.357 1066.3 313.357 1064.11 Q313.357 1061.93 311.966 1060.71 Q310.593 1059.49 308.148 1059.49 Q305.684 1059.49 304.311 1060.71 Q302.957 1061.93 302.957 1064.11 Z" fill="#000000" fill-rule="nonzero" fill-opacity="1" /><path clip-path="url(#clip980)" d="M111.135 785.097 Q107.801 785.097 105.88 786.879 Q103.982 788.662 103.982 791.787 Q103.982 794.912 105.88 796.694 Q107.801 798.477 111.135 798.477 Q114.468 798.477 116.389 796.694 Q118.311 794.889 118.311 791.787 Q118.311 788.662 116.389 786.879 Q114.491 785.097 111.135 785.097 M106.459 783.106 Q103.45 782.366 101.76 780.305 Q100.093 778.245 100.093 775.282 Q100.093 771.139 103.033 768.731 Q105.996 766.324 111.135 766.324 Q116.297 766.324 119.237 768.731 Q122.176 771.139 122.176 775.282 Q122.176 778.245 120.487 780.305 Q118.82 782.366 115.834 783.106 Q119.213 783.893 121.088 786.185 Q122.987 788.477 122.987 791.787 Q122.987 796.81 119.908 799.495 Q116.852 802.18 111.135 802.18 Q105.417 802.18 102.338 799.495 Q99.2829 796.81 99.2829 791.787 Q99.2829 788.477 101.181 786.185 Q103.079 783.893 106.459 783.106 M104.746 775.722 Q104.746 778.407 106.413 779.912 Q108.102 781.416 111.135 781.416 Q114.144 781.416 115.834 779.912 Q117.547 778.407 117.547 775.722 Q117.547 773.037 115.834 771.532 Q114.144 770.028 111.135 770.028 Q108.102 770.028 106.413 771.532 Q104.746 773.037 104.746 775.722 Z" fill="#000000" fill-rule="nonzero" fill-opacity="1" /><path clip-path="url(#clip980)" d="M131.297 795.629 L136.181 795.629 L136.181 801.509 L131.297 801.509 L131.297 795.629 Z" fill="#000000" fill-rule="nonzero" fill-opacity="1" /><path clip-path="url(#clip980)" d="M156.366 770.028 Q152.755 770.028 150.926 773.592 Q149.121 777.134 149.121 784.264 Q149.121 791.37 150.926 794.935 Q152.755 798.477 156.366 798.477 Q160 798.477 161.806 794.935 Q163.634 791.37 163.634 784.264 Q163.634 777.134 161.806 773.592 Q160 770.028 156.366 770.028 M156.366 766.324 Q162.176 766.324 165.232 770.93 Q168.31 775.514 168.31 784.264 Q168.31 792.991 165.232 797.597 Q162.176 802.18 156.366 802.18 Q150.556 802.18 147.477 797.597 Q144.422 792.991 144.422 784.264 Q144.422 775.514 147.477 770.93 Q150.556 766.324 156.366 766.324 Z" fill="#000000" fill-rule="nonzero" fill-opacity="1" /><path clip-path="url(#clip980)" d="M186.528 770.028 Q182.917 770.028 181.088 773.592 Q179.283 777.134 179.283 784.264 Q179.283 791.37 181.088 794.935 Q182.917 798.477 186.528 798.477 Q190.162 798.477 191.968 794.935 Q193.796 791.37 193.796 784.264 Q193.796 777.134 191.968 773.592 Q190.162 770.028 186.528 770.028 M186.528 766.324 Q192.338 766.324 195.394 770.93 Q198.472 775.514 198.472 784.264 Q198.472 792.991 195.394 797.597 Q192.338 802.18 186.528 802.18 Q180.718 802.18 177.639 797.597 Q174.583 792.991 174.583 784.264 Q174.583 775.514 177.639 770.93 Q180.718 766.324 186.528 766.324 Z" fill="#000000" fill-rule="nonzero" fill-opacity="1" /><path clip-path="url(#clip980)" d="M234.861 776.046 L224.282 786.671 L234.861 797.25 L232.106 800.051 L221.481 789.426 L210.856 800.051 L208.125 797.25 L218.68 786.671 L208.125 776.046 L210.856 773.245 L221.481 783.87 L232.106 773.245 L234.861 776.046 Z" fill="#000000" fill-rule="nonzero" fill-opacity="1" /><path clip-path="url(#clip980)" d="M247.222 797.574 L254.861 797.574 L254.861 771.208 L246.551 772.875 L246.551 768.616 L254.815 766.949 L259.49 766.949 L259.49 797.574 L267.129 797.574 L267.129 801.509 L247.222 801.509 L247.222 797.574 Z" fill="#000000" fill-rule="nonzero" fill-opacity="1" /><path clip-path="url(#clip980)" d="M286.574 770.028 Q282.963 770.028 281.134 773.592 Q279.328 777.134 279.328 784.264 Q279.328 791.37 281.134 794.935 Q282.963 798.477 286.574 798.477 Q290.208 798.477 292.013 794.935 Q293.842 791.37 293.842 784.264 Q293.842 777.134 292.013 773.592 Q290.208 770.028 286.574 770.028 M286.574 766.324 Q292.384 766.324 295.439 770.93 Q298.518 775.514 298.518 784.264 Q298.518 792.991 295.439 797.597 Q292.384 802.18 286.574 802.18 Q280.763 802.18 277.685 797.597 Q274.629 792.991 274.629 784.264 Q274.629 775.514 277.685 770.93 Q280.763 766.324 286.574 766.324 Z" fill="#000000" fill-rule="nonzero" fill-opacity="1" /><path clip-path="url(#clip980)" d="M308.148 760.764 Q305.439 760.764 303.878 762.212 Q302.336 763.66 302.336 766.199 Q302.336 768.738 303.878 770.187 Q305.439 771.635 308.148 771.635 Q310.856 771.635 312.417 770.187 Q313.978 768.72 313.978 766.199 Q313.978 763.66 312.417 762.212 Q310.875 760.764 308.148 760.764 M304.348 759.146 Q301.903 758.545 300.53 756.871 Q299.176 755.197 299.176 752.789 Q299.176 749.423 301.565 747.467 Q303.972 745.511 308.148 745.511 Q312.342 745.511 314.73 747.467 Q317.119 749.423 317.119 752.789 Q317.119 755.197 315.746 756.871 Q314.392 758.545 311.966 759.146 Q314.711 759.786 316.235 761.648 Q317.777 763.51 317.777 766.199 Q317.777 770.281 315.276 772.462 Q312.793 774.644 308.148 774.644 Q303.502 774.644 301.001 772.462 Q298.518 770.281 298.518 766.199 Q298.518 763.51 300.06 761.648 Q301.602 759.786 304.348 759.146 M302.957 753.147 Q302.957 755.328 304.311 756.551 Q305.684 757.773 308.148 757.773 Q310.593 757.773 311.966 756.551 Q313.357 755.328 313.357 753.147 Q313.357 750.965 311.966 749.743 Q310.593 748.52 308.148 748.52 Q305.684 748.52 304.311 749.743 Q302.957 750.965 302.957 753.147 Z" fill="#000000" fill-rule="nonzero" fill-opacity="1" /><path clip-path="url(#clip980)" d="M101.832 486.607 L109.471 486.607 L109.471 460.241 L101.161 461.908 L101.161 457.649 L109.425 455.982 L114.101 455.982 L114.101 486.607 L121.739 486.607 L121.739 490.542 L101.832 490.542 L101.832 486.607 Z" fill="#000000" fill-rule="nonzero" fill-opacity="1" /><path clip-path="url(#clip980)" d="M131.184 484.662 L136.068 484.662 L136.068 490.542 L131.184 490.542 L131.184 484.662 Z" fill="#000000" fill-rule="nonzero" fill-opacity="1" /><path clip-path="url(#clip980)" d="M156.253 459.061 Q152.642 459.061 150.813 462.625 Q149.008 466.167 149.008 473.297 Q149.008 480.403 150.813 483.968 Q152.642 487.509 156.253 487.509 Q159.887 487.509 161.693 483.968 Q163.522 480.403 163.522 473.297 Q163.522 466.167 161.693 462.625 Q159.887 459.061 156.253 459.061 M156.253 455.357 Q162.063 455.357 165.119 459.963 Q168.197 464.547 168.197 473.297 Q168.197 482.023 165.119 486.63 Q162.063 491.213 156.253 491.213 Q150.443 491.213 147.364 486.63 Q144.309 482.023 144.309 473.297 Q144.309 464.547 147.364 459.963 Q150.443 455.357 156.253 455.357 Z" fill="#000000" fill-rule="nonzero" fill-opacity="1" /><path clip-path="url(#clip980)" d="M186.415 459.061 Q182.804 459.061 180.975 462.625 Q179.17 466.167 179.17 473.297 Q179.17 480.403 180.975 483.968 Q182.804 487.509 186.415 487.509 Q190.049 487.509 191.855 483.968 Q193.683 480.403 193.683 473.297 Q193.683 466.167 191.855 462.625 Q190.049 459.061 186.415 459.061 M186.415 455.357 Q192.225 455.357 195.281 459.963 Q198.359 464.547 198.359 473.297 Q198.359 482.023 195.281 486.63 Q192.225 491.213 186.415 491.213 Q180.605 491.213 177.526 486.63 Q174.471 482.023 174.471 473.297 Q174.471 464.547 177.526 459.963 Q180.605 455.357 186.415 455.357 Z" fill="#000000" fill-rule="nonzero" fill-opacity="1" /><path clip-path="url(#clip980)" d="M234.748 465.079 L224.169 475.704 L234.748 486.283 L231.993 489.084 L221.369 478.459 L210.744 489.084 L208.012 486.283 L218.568 475.704 L208.012 465.079 L210.744 462.278 L221.369 472.903 L231.993 462.278 L234.748 465.079 Z" fill="#000000" fill-rule="nonzero" fill-opacity="1" /><path clip-path="url(#clip980)" d="M247.109 486.607 L254.748 486.607 L254.748 460.241 L246.438 461.908 L246.438 457.649 L254.702 455.982 L259.378 455.982 L259.378 486.607 L267.016 486.607 L267.016 490.542 L247.109 490.542 L247.109 486.607 Z" fill="#000000" fill-rule="nonzero" fill-opacity="1" /><path clip-path="url(#clip980)" d="M286.461 459.061 Q282.85 459.061 281.021 462.625 Q279.215 466.167 279.215 473.297 Q279.215 480.403 281.021 483.968 Q282.85 487.509 286.461 487.509 Q290.095 487.509 291.901 483.968 Q293.729 480.403 293.729 473.297 Q293.729 466.167 291.901 462.625 Q290.095 459.061 286.461 459.061 M286.461 455.357 Q292.271 455.357 295.326 459.963 Q298.405 464.547 298.405 473.297 Q298.405 482.023 295.326 486.63 Q292.271 491.213 286.461 491.213 Q280.651 491.213 277.572 486.63 Q274.516 482.023 274.516 473.297 Q274.516 464.547 277.572 459.963 Q280.651 455.357 286.461 455.357 Z" fill="#000000" fill-rule="nonzero" fill-opacity="1" /><path clip-path="url(#clip980)" d="M300.211 462.548 L300.211 459.088 Q301.64 459.765 303.107 460.122 Q304.574 460.48 305.985 460.48 Q309.746 460.48 311.721 457.959 Q313.715 455.42 313.997 450.267 Q312.906 451.884 311.232 452.75 Q309.558 453.615 307.527 453.615 Q303.314 453.615 300.85 451.076 Q298.405 448.518 298.405 444.098 Q298.405 439.772 300.963 437.158 Q303.521 434.544 307.771 434.544 Q312.643 434.544 315.2 438.286 Q317.777 442.01 317.777 449.12 Q317.777 455.759 314.617 459.727 Q311.477 463.677 306.154 463.677 Q304.725 463.677 303.258 463.395 Q301.791 463.113 300.211 462.548 M307.771 450.643 Q310.329 450.643 311.815 448.894 Q313.32 447.145 313.32 444.098 Q313.32 441.07 311.815 439.321 Q310.329 437.553 307.771 437.553 Q305.214 437.553 303.709 439.321 Q302.223 441.07 302.223 444.098 Q302.223 447.145 303.709 448.894 Q305.214 450.643 307.771 450.643 Z" fill="#000000" fill-rule="nonzero" fill-opacity="1" /><path clip-path="url(#clip980)" d="M101.832 175.64 L109.471 175.64 L109.471 149.274 L101.161 150.941 L101.161 146.681 L109.425 145.015 L114.101 145.015 L114.101 175.64 L121.739 175.64 L121.739 179.575 L101.832 179.575 L101.832 175.64 Z" fill="#000000" fill-rule="nonzero" fill-opacity="1" /><path clip-path="url(#clip980)" d="M131.184 173.695 L136.068 173.695 L136.068 179.575 L131.184 179.575 L131.184 173.695 Z" fill="#000000" fill-rule="nonzero" fill-opacity="1" /><path clip-path="url(#clip980)" d="M150.281 175.64 L166.6 175.64 L166.6 179.575 L144.656 179.575 L144.656 175.64 Q147.318 172.885 151.901 168.255 Q156.508 163.603 157.688 162.26 Q159.934 159.737 160.813 158.001 Q161.716 156.242 161.716 154.552 Q161.716 151.797 159.772 150.061 Q157.85 148.325 154.748 148.325 Q152.549 148.325 150.096 149.089 Q147.665 149.853 144.887 151.404 L144.887 146.681 Q147.711 145.547 150.165 144.968 Q152.619 144.39 154.656 144.39 Q160.026 144.39 163.221 147.075 Q166.415 149.76 166.415 154.251 Q166.415 156.38 165.605 158.302 Q164.818 160.2 162.711 162.792 Q162.133 163.464 159.031 166.681 Q155.929 169.876 150.281 175.64 Z" fill="#000000" fill-rule="nonzero" fill-opacity="1" /><path clip-path="url(#clip980)" d="M186.415 148.093 Q182.804 148.093 180.975 151.658 Q179.17 155.2 179.17 162.329 Q179.17 169.436 180.975 173.001 Q182.804 176.542 186.415 176.542 Q190.049 176.542 191.855 173.001 Q193.683 169.436 193.683 162.329 Q193.683 155.2 191.855 151.658 Q190.049 148.093 186.415 148.093 M186.415 144.39 Q192.225 144.39 195.281 148.996 Q198.359 153.579 198.359 162.329 Q198.359 171.056 195.281 175.663 Q192.225 180.246 186.415 180.246 Q180.605 180.246 177.526 175.663 Q174.471 171.056 174.471 162.329 Q174.471 153.579 177.526 148.996 Q180.605 144.39 186.415 144.39 Z" fill="#000000" fill-rule="nonzero" fill-opacity="1" /><path clip-path="url(#clip980)" d="M234.748 154.112 L224.169 164.737 L234.748 175.315 L231.993 178.116 L221.369 167.491 L210.744 178.116 L208.012 175.315 L218.568 164.737 L208.012 154.112 L210.744 151.311 L221.369 161.936 L231.993 151.311 L234.748 154.112 Z" fill="#000000" fill-rule="nonzero" fill-opacity="1" /><path clip-path="url(#clip980)" d="M247.109 175.64 L254.748 175.64 L254.748 149.274 L246.438 150.941 L246.438 146.681 L254.702 145.015 L259.378 145.015 L259.378 175.64 L267.016 175.64 L267.016 179.575 L247.109 179.575 L247.109 175.64 Z" fill="#000000" fill-rule="nonzero" fill-opacity="1" /><path clip-path="url(#clip980)" d="M286.461 148.093 Q282.85 148.093 281.021 151.658 Q279.215 155.2 279.215 162.329 Q279.215 169.436 281.021 173.001 Q282.85 176.542 286.461 176.542 Q290.095 176.542 291.901 173.001 Q293.729 169.436 293.729 162.329 Q293.729 155.2 291.901 151.658 Q290.095 148.093 286.461 148.093 M286.461 144.39 Q292.271 144.39 295.326 148.996 Q298.405 153.579 298.405 162.329 Q298.405 171.056 295.326 175.663 Q292.271 180.246 286.461 180.246 Q280.651 180.246 277.572 175.663 Q274.516 171.056 274.516 162.329 Q274.516 153.579 277.572 148.996 Q280.651 144.39 286.461 144.39 Z" fill="#000000" fill-rule="nonzero" fill-opacity="1" /><path clip-path="url(#clip980)" d="M300.211 151.581 L300.211 148.121 Q301.64 148.798 303.107 149.155 Q304.574 149.512 305.985 149.512 Q309.746 149.512 311.721 146.992 Q313.715 144.453 313.997 139.3 Q312.906 140.917 311.232 141.782 Q309.558 142.648 307.527 142.648 Q303.314 142.648 300.85 140.109 Q298.405 137.551 298.405 133.131 Q298.405 128.805 300.963 126.191 Q303.521 123.576 307.771 123.576 Q312.643 123.576 315.2 127.319 Q317.777 131.043 317.777 138.153 Q317.777 144.792 314.617 148.76 Q311.477 152.71 306.154 152.71 Q304.725 152.71 303.258 152.428 Q301.791 152.146 300.211 151.581 M307.771 139.676 Q310.329 139.676 311.815 137.927 Q313.32 136.178 313.32 133.131 Q313.32 130.103 311.815 128.354 Q310.329 126.586 307.771 126.586 Q305.214 126.586 303.709 128.354 Q302.223 130.103 302.223 133.131 Q302.223 136.178 303.709 137.927 Q305.214 139.676 307.771 139.676 Z" fill="#000000" fill-rule="nonzero" fill-opacity="1" /><path clip-path="url(#clip980)" d="M-9.64527 840.632 L0.4762 840.632 L0.4762 828.569 L5.02768 828.569 L5.02768 840.632 L24.3794 840.632 Q28.7399 840.632 29.9813 839.454 Q31.2226 838.245 31.2226 834.584 L31.2226 828.569 L36.1242 828.569 L36.1242 834.584 Q36.1242 841.364 33.6097 843.942 Q31.0634 846.52 24.3794 846.52 L5.02768 846.52 L5.02768 850.817 L0.4762 850.817 L0.4762 846.52 L-9.64527 846.52 L-9.64527 840.632 Z" fill="#000000" fill-rule="nonzero" fill-opacity="1" /><path clip-path="url(#clip980)" d="M-11.3958 789.738 L-11.3958 784.327 L42.1716 800.878 L42.1716 806.289 L-11.3958 789.738 Z" fill="#000000" fill-rule="nonzero" fill-opacity="1" /><path clip-path="url(#clip980)" d="M14.6081 727.831 L36.1242 727.831 L36.1242 733.688 L14.799 733.688 Q9.7383 733.688 7.22385 735.661 Q4.7094 737.635 4.7094 741.581 Q4.7094 746.324 7.73311 749.061 Q10.7568 751.798 15.9767 751.798 L36.1242 751.798 L36.1242 757.687 L0.4762 757.687 L0.4762 751.798 L6.01437 751.798 Q2.79968 749.698 1.20826 746.865 Q-0.38317 744 -0.38317 740.276 Q-0.38317 734.133 3.43625 730.982 Q7.22385 727.831 14.6081 727.831 Z" fill="#000000" fill-rule="nonzero" fill-opacity="1" /><path clip-path="url(#clip980)" d="M1.52654 693.425 L7.06471 693.425 Q5.79157 695.907 5.15499 698.581 Q4.51842 701.255 4.51842 704.119 Q4.51842 708.48 5.85522 710.676 Q7.19202 712.84 9.86562 712.84 Q11.9026 712.84 13.0803 711.281 Q14.2261 709.721 15.2765 705.01 L15.7221 703.005 Q17.0589 696.767 19.5097 694.157 Q21.9286 691.515 26.2891 691.515 Q31.2544 691.515 34.1508 695.462 Q37.0472 699.377 37.0472 706.252 Q37.0472 709.116 36.4743 712.235 Q35.9332 715.323 34.8192 718.76 L28.7718 718.76 Q30.4587 715.514 31.318 712.363 Q32.1456 709.212 32.1456 706.124 Q32.1456 701.987 30.7451 699.759 Q29.3129 697.531 26.7347 697.531 Q24.3476 697.531 23.0745 699.154 Q21.8013 700.745 20.6237 706.188 L20.1462 708.225 Q19.0004 713.668 16.6451 716.087 Q14.258 718.506 10.1202 718.506 Q5.09134 718.506 2.35408 714.941 Q-0.38317 711.376 -0.38317 704.819 Q-0.38317 701.573 0.0942579 698.708 Q0.571686 695.844 1.52654 693.425 Z" fill="#000000" fill-rule="nonzero" fill-opacity="1" /><path clip-path="url(#clip982)" d="M701.95 1454.11 L704.805 1453.55 L707.476 1452.99 L709.959 1452.42 L712.251 1451.86 L714.339 1451.3 L716.2 1450.73 L717.798 1450.17 L719.086 1449.61 L720.003 1449.05 L720.484 1448.48 L720.467 1447.92 L719.897 1447.36 L718.737 1446.79 L716.974 1446.23 L714.626 1445.67 L711.742 1445.11 L708.407 1444.54 L704.739 1443.98 L700.885 1443.42 L697.018 1442.85 L693.332 1442.29 L690.035 1441.73 L687.346 1441.17 L685.484 1440.6 L684.671 1440.04 L685.118 1439.48 L687.02 1438.91 L690.551 1438.35 L695.847 1437.79 L702.998 1437.23 L712.032 1436.66 L722.902 1436.1 L735.471 1435.54 L749.504 1434.97 L764.664 1434.41 L780.518 1433.85 L796.546 1433.29 L812.164 1432.72 L826.756 1432.16 L839.71 1431.6 L850.459 1431.03 L858.524 1430.47 L863.549 1429.91 L865.33 1429.35 L863.836 1428.78 L859.21 1428.22 L851.763 1427.66 L841.948 1427.09 L830.327 1426.53 L817.53 1425.97 L804.204 1425.41 L790.973 1424.84 L778.39 1424.28 L766.909 1423.72 L756.855 1423.16 L748.416 1422.59 L741.64 1422.03 L736.448 1421.47 L732.65 1420.9 L729.975 1420.34 L728.103 1419.78 L726.694 1419.22 L725.419 1418.65 L723.988 1418.09 L722.172 1417.53 L719.81 1416.96 L716.821 1416.4 L713.197 1415.84 L708.998 1415.28 L704.332 1414.71 L699.348 1414.15 L694.208 1413.59 L689.079 1413.02 L684.113 1412.46 L679.44 1411.9 L675.159 1411.34 L671.336 1410.77 L668.005 1410.21 L665.17 1409.65 L662.812 1409.08 L660.894 1408.52 L659.367 1407.96 L658.178 1407.4 L657.27 1406.83 L656.593 1406.27 L656.097 1405.71 L655.741 1405.14 L655.49 1404.58 L655.318 1404.02 L655.201 1403.46 L655.124 1402.89 L655.074 1402.33 L655.042 1401.77 L655.022 1401.2 L655.01 1400.64 L655.004 1400.08 L655.001 1399.52 L655.001 1398.95 L655.004 1398.39 L655.01 1397.83 L655.022 1397.26 L655.04 1396.7 L655.07 1396.14 L655.115 1395.58 L655.183 1395.01 L655.284 1394.45 L655.429 1393.89 L655.636 1393.32 L655.923 1392.76 L656.314 1392.2 L656.836 1391.64 L657.519 1391.07 L658.393 1390.51 L659.491 1389.95 L660.84 1389.38 L662.463 1388.82 L664.374 1388.26 L666.575 1387.7 L669.057 1387.13 L671.792 1386.57 L674.74 1386.01 L677.844 1385.44 L681.038 1384.88 L684.247 1384.32 L687.39 1383.76 L690.393 1383.19 L693.183 1382.63 L695.699 1382.07 L697.892 1381.5 L699.725 1380.94 L701.173 1380.38 L702.22 1379.82 L702.858 1379.25 L703.082 1378.69 L702.893 1378.13 L702.291 1377.57 L701.28 1377 L699.867 1376.44 L698.067 1375.88 L611.916 1375.88 L610.117 1376.44 L608.704 1377 L607.693 1377.57 L607.091 1378.13 L606.901 1378.69 L607.126 1379.25 L607.764 1379.82 L608.811 1380.38 L610.259 1380.94 L612.092 1381.5 L614.285 1382.07 L616.801 1382.63 L619.591 1383.19 L622.593 1383.76 L625.737 1384.32 L628.945 1384.88 L632.139 1385.44 L635.244 1386.01 L638.192 1386.57 L640.927 1387.13 L643.408 1387.7 L645.61 1388.26 L647.521 1388.82 L649.144 1389.38 L650.493 1389.95 L651.59 1390.51 L652.465 1391.07 L653.148 1391.64 L653.67 1392.2 L654.061 1392.76 L654.348 1393.32 L654.555 1393.89 L654.7 1394.45 L654.801 1395.01 L654.869 1395.58 L654.914 1396.14 L654.943 1396.7 L654.962 1397.26 L654.973 1397.83 L654.98 1398.39 L654.983 1398.95 L654.983 1399.52 L654.98 1400.08 L654.973 1400.64 L654.962 1401.2 L654.942 1401.77 L654.91 1402.33 L654.86 1402.89 L654.783 1403.46 L654.666 1404.02 L654.493 1404.58 L654.243 1405.14 L653.887 1405.71 L653.391 1406.27 L652.713 1406.83 L651.806 1407.4 L650.617 1407.96 L649.09 1408.52 L647.172 1409.08 L644.814 1409.65 L641.979 1410.21 L638.647 1410.77 L634.825 1411.34 L630.544 1411.9 L625.871 1412.46 L620.905 1413.02 L615.776 1413.59 L610.636 1414.15 L605.651 1414.71 L600.986 1415.28 L596.786 1415.84 L593.163 1416.4 L590.174 1416.96 L587.812 1417.53 L585.996 1418.09 L584.565 1418.65 L583.29 1419.22 L581.88 1419.78 L580.008 1420.34 L577.334 1420.9 L573.536 1421.47 L568.343 1422.03 L561.568 1422.59 L553.129 1423.16 L543.075 1423.72 L531.593 1424.28 L519.011 1424.84 L505.78 1425.41 L492.454 1425.97 L479.657 1426.53 L468.036 1427.09 L458.221 1427.66 L450.774 1428.22 L446.148 1428.78 L444.654 1429.35 L446.435 1429.91 L451.46 1430.47 L459.525 1431.03 L470.274 1431.6 L483.228 1432.16 L497.82 1432.72 L513.438 1433.29 L529.466 1433.85 L545.32 1434.41 L560.48 1434.97 L574.513 1435.54 L587.082 1436.1 L597.951 1436.66 L606.986 1437.23 L614.137 1437.79 L619.433 1438.35 L622.964 1438.91 L624.866 1439.48 L625.313 1440.04 L624.499 1440.6 L622.638 1441.17 L619.948 1441.73 L616.652 1442.29 L612.966 1442.85 L609.099 1443.42 L605.245 1443.98 L601.576 1444.54 L598.242 1445.11 L595.358 1445.67 L593.01 1446.23 L591.247 1446.79 L590.087 1447.36 L589.517 1447.92 L589.5 1448.48 L589.981 1449.05 L590.898 1449.61 L592.185 1450.17 L593.784 1450.73 L595.645 1451.3 L597.733 1451.86 L600.024 1452.42 L602.508 1452.99 L605.179 1453.55 L608.034 1454.11 L701.95 1454.11  Z" fill="#009af9" fill-rule="evenodd" fill-opacity="1"/>
<polyline clip-path="url(#clip982)" style="stroke:#000000; stroke-linecap:round; stroke-linejoin:round; stroke-width:4; stroke-opacity:1; fill:none" points="701.95,1454.11 704.805,1453.55 707.476,1452.99 709.959,1452.42 712.251,1451.86 714.339,1451.3 716.2,1450.73 717.798,1450.17 719.086,1449.61 720.003,1449.05 720.484,1448.48 720.467,1447.92 719.897,1447.36 718.737,1446.79 716.974,1446.23 714.626,1445.67 711.742,1445.11 708.407,1444.54 704.739,1443.98 700.885,1443.42 697.018,1442.85 693.332,1442.29 690.035,1441.73 687.346,1441.17 685.484,1440.6 684.671,1440.04 685.118,1439.48 687.02,1438.91 690.551,1438.35 695.847,1437.79 702.998,1437.23 712.032,1436.66 722.902,1436.1 735.471,1435.54 749.504,1434.97 764.664,1434.41 780.518,1433.85 796.546,1433.29 812.164,1432.72 826.756,1432.16 839.71,1431.6 850.459,1431.03 858.524,1430.47 863.549,1429.91 865.33,1429.35 863.836,1428.78 859.21,1428.22 851.763,1427.66 841.948,1427.09 830.327,1426.53 817.53,1425.97 804.204,1425.41 790.973,1424.84 778.39,1424.28 766.909,1423.72 756.855,1423.16 748.416,1422.59 741.64,1422.03 736.448,1421.47 732.65,1420.9 729.975,1420.34 728.103,1419.78 726.694,1419.22 725.419,1418.65 723.988,1418.09 722.172,1417.53 719.81,1416.96 716.821,1416.4 713.197,1415.84 708.998,1415.28 704.332,1414.71 699.348,1414.15 694.208,1413.59 689.079,1413.02 684.113,1412.46 679.44,1411.9 675.159,1411.34 671.336,1410.77 668.005,1410.21 665.17,1409.65 662.812,1409.08 660.894,1408.52 659.367,1407.96 658.178,1407.4 657.27,1406.83 656.593,1406.27 656.097,1405.71 655.741,1405.14 655.49,1404.58 655.318,1404.02 655.201,1403.46 655.124,1402.89 655.074,1402.33 655.042,1401.77 655.022,1401.2 655.01,1400.64 655.004,1400.08 655.001,1399.52 655.001,1398.95 655.004,1398.39 655.01,1397.83 655.022,1397.26 655.04,1396.7 655.07,1396.14 655.115,1395.58 655.183,1395.01 655.284,1394.45 655.429,1393.89 655.636,1393.32 655.923,1392.76 656.314,1392.2 656.836,1391.64 657.519,1391.07 658.393,1390.51 659.491,1389.95 660.84,1389.38 662.463,1388.82 664.374,1388.26 666.575,1387.7 669.057,1387.13 671.792,1386.57 674.74,1386.01 677.844,1385.44 681.038,1384.88 684.247,1384.32 687.39,1383.76 690.393,1383.19 693.183,1382.63 695.699,1382.07 697.892,1381.5 699.725,1380.94 701.173,1380.38 702.22,1379.82 702.858,1379.25 703.082,1378.69 702.893,1378.13 702.291,1377.57 701.28,1377 699.867,1376.44 698.067,1375.88 611.916,1375.88 610.117,1376.44 608.704,1377 607.693,1377.57 607.091,1378.13 606.901,1378.69 607.126,1379.25 607.764,1379.82 608.811,1380.38 610.259,1380.94 612.092,1381.5 614.285,1382.07 616.801,1382.63 619.591,1383.19 622.593,1383.76 625.737,1384.32 628.945,1384.88 632.139,1385.44 635.244,1386.01 638.192,1386.57 640.927,1387.13 643.408,1387.7 645.61,1388.26 647.521,1388.82 649.144,1389.38 650.493,1389.95 651.59,1390.51 652.465,1391.07 653.148,1391.64 653.67,1392.2 654.061,1392.76 654.348,1393.32 654.555,1393.89 654.7,1394.45 654.801,1395.01 654.869,1395.58 654.914,1396.14 654.943,1396.7 654.962,1397.26 654.973,1397.83 654.98,1398.39 654.983,1398.95 654.983,1399.52 654.98,1400.08 654.973,1400.64 654.962,1401.2 654.942,1401.77 654.91,1402.33 654.86,1402.89 654.783,1403.46 654.666,1404.02 654.493,1404.58 654.243,1405.14 653.887,1405.71 653.391,1406.27 652.713,1406.83 651.806,1407.4 650.617,1407.96 649.09,1408.52 647.172,1409.08 644.814,1409.65 641.979,1410.21 638.647,1410.77 634.825,1411.34 630.544,1411.9 625.871,1412.46 620.905,1413.02 615.776,1413.59 610.636,1414.15 605.651,1414.71 600.986,1415.28 596.786,1415.84 593.163,1416.4 590.174,1416.96 587.812,1417.53 585.996,1418.09 584.565,1418.65 583.29,1419.22 581.88,1419.78 580.008,1420.34 577.334,1420.9 573.536,1421.47 568.343,1422.03 561.568,1422.59 553.129,1423.16 543.075,1423.72 531.593,1424.28 519.011,1424.84 505.78,1425.41 492.454,1425.97 479.657,1426.53 468.036,1427.09 458.221,1427.66 450.774,1428.22 446.148,1428.78 444.654,1429.35 446.435,1429.91 451.46,1430.47 459.525,1431.03 470.274,1431.6 483.228,1432.16 497.82,1432.72 513.438,1433.29 529.466,1433.85 545.32,1434.41 560.48,1434.97 574.513,1435.54 587.082,1436.1 597.951,1436.66 606.986,1437.23 614.137,1437.79 619.433,1438.35 622.964,1438.91 624.866,1439.48 625.313,1440.04 624.499,1440.6 622.638,1441.17 619.948,1441.73 616.652,1442.29 612.966,1442.85 609.099,1443.42 605.245,1443.98 601.576,1444.54 598.242,1445.11 595.358,1445.67 593.01,1446.23 591.247,1446.79 590.087,1447.36 589.517,1447.92 589.5,1448.48 589.981,1449.05 590.898,1449.61 592.185,1450.17 593.784,1450.73 595.645,1451.3 597.733,1451.86 600.024,1452.42 602.508,1452.99 605.179,1453.55 608.034,1454.11 701.95,1454.11 "/>
<path clip-path="url(#clip982)" d="M1429.74 1421.22 L1430.47 1420.95 L1431.04 1420.67 L1431.45 1420.4 L1431.74 1420.12 L1431.92 1419.85 L1432.03 1419.57 L1432.08 1419.3 L1432.11 1419.03 L1432.12 1418.75 L1432.12 1418.48 L1432.11 1418.2 L1432.1 1417.93 L1432.05 1417.65 L1431.96 1417.38 L1431.81 1417.1 L1431.56 1416.83 L1431.18 1416.56 L1430.67 1416.28 L1429.98 1416.01 L1429.11 1415.73 L1428.05 1415.46 L1426.79 1415.18 L1425.34 1414.91 L1423.71 1414.63 L1421.93 1414.36 L1420.01 1414.09 L1417.99 1413.81 L1415.91 1413.54 L1413.79 1413.26 L1411.67 1412.99 L1409.6 1412.71 L1407.59 1412.44 L1405.69 1412.16 L1403.91 1411.89 L1402.28 1411.62 L1400.82 1411.34 L1399.54 1411.07 L1398.46 1410.79 L1397.58 1410.52 L1396.93 1410.24 L1396.51 1409.97 L1396.35 1409.69 L1396.47 1409.42 L1396.89 1409.15 L1397.65 1408.87 L1398.78 1408.6 L1400.32 1408.32 L1402.34 1408.05 L1404.89 1407.77 L1408.02 1407.5 L1411.8 1407.22 L1416.29 1406.95 L1421.53 1406.68 L1427.57 1406.4 L1434.44 1406.13 L1442.15 1405.85 L1450.71 1405.58 L1460.06 1405.3 L1470.16 1405.03 L1480.91 1404.75 L1492.2 1404.48 L1503.86 1404.21 L1515.73 1403.93 L1527.61 1403.66 L1539.28 1403.38 L1550.52 1403.11 L1561.1 1402.83 L1570.8 1402.56 L1579.42 1402.28 L1586.79 1402.01 L1592.76 1401.74 L1597.23 1401.46 L1600.15 1401.19 L1601.51 1400.91 L1601.35 1400.64 L1599.74 1400.36 L1596.82 1400.09 L1592.75 1399.81 L1587.71 1399.54 L1581.9 1399.27 L1575.53 1398.99 L1568.82 1398.72 L1561.96 1398.44 L1555.14 1398.17 L1548.51 1397.89 L1542.2 1397.62 L1536.31 1397.34 L1530.91 1397.07 L1526.04 1396.8 L1521.71 1396.52 L1517.91 1396.25 L1514.61 1395.97 L1511.76 1395.7 L1509.32 1395.42 L1507.22 1395.15 L1505.42 1394.87 L1503.86 1394.6 L1502.49 1394.32 L1501.27 1394.05 L1500.16 1393.78 L1499.15 1393.5 L1498.2 1393.23 L1497.3 1392.95 L1496.43 1392.68 L1495.56 1392.4 L1494.68 1392.13 L1493.77 1391.85 L1492.79 1391.58 L1491.71 1391.31 L1490.49 1391.03 L1489.1 1390.76 L1487.51 1390.48 L1485.66 1390.21 L1483.53 1389.93 L1481.09 1389.66 L1478.33 1389.38 L1475.23 1389.11 L1307.12 1389.11 L1304.02 1389.38 L1301.26 1389.66 L1298.82 1389.93 L1296.69 1390.21 L1294.84 1390.48 L1293.25 1390.76 L1291.86 1391.03 L1290.64 1391.31 L1289.56 1391.58 L1288.58 1391.85 L1287.67 1392.13 L1286.79 1392.4 L1285.92 1392.68 L1285.05 1392.95 L1284.15 1393.23 L1283.2 1393.5 L1282.19 1393.78 L1281.08 1394.05 L1279.86 1394.32 L1278.49 1394.6 L1276.93 1394.87 L1275.13 1395.15 L1273.03 1395.42 L1270.59 1395.7 L1267.74 1395.97 L1264.44 1396.25 L1260.64 1396.52 L1256.31 1396.8 L1251.44 1397.07 L1246.04 1397.34 L1240.15 1397.62 L1233.84 1397.89 L1227.21 1398.17 L1220.39 1398.44 L1213.53 1398.72 L1206.82 1398.99 L1200.45 1399.27 L1194.64 1399.54 L1189.6 1399.81 L1185.53 1400.09 L1182.61 1400.36 L1181 1400.64 L1180.84 1400.91 L1182.2 1401.19 L1185.12 1401.46 L1189.59 1401.74 L1195.56 1402.01 L1202.93 1402.28 L1211.55 1402.56 L1221.25 1402.83 L1231.83 1403.11 L1243.07 1403.38 L1254.74 1403.66 L1266.62 1403.93 L1278.49 1404.21 L1290.15 1404.48 L1301.44 1404.75 L1312.19 1405.03 L1322.29 1405.3 L1331.64 1405.58 L1340.2 1405.85 L1347.91 1406.13 L1354.78 1406.4 L1360.82 1406.68 L1366.06 1406.95 L1370.55 1407.22 L1374.33 1407.5 L1377.46 1407.77 L1380.01 1408.05 L1382.03 1408.32 L1383.57 1408.6 L1384.7 1408.87 L1385.46 1409.15 L1385.88 1409.42 L1386 1409.69 L1385.84 1409.97 L1385.42 1410.24 L1384.77 1410.52 L1383.89 1410.79 L1382.81 1411.07 L1381.53 1411.34 L1380.07 1411.62 L1378.44 1411.89 L1376.66 1412.16 L1374.76 1412.44 L1372.75 1412.71 L1370.68 1412.99 L1368.56 1413.26 L1366.44 1413.54 L1364.36 1413.81 L1362.34 1414.09 L1360.42 1414.36 L1358.64 1414.63 L1357.01 1414.91 L1355.56 1415.18 L1354.3 1415.46 L1353.24 1415.73 L1352.37 1416.01 L1351.68 1416.28 L1351.17 1416.56 L1350.79 1416.83 L1350.54 1417.1 L1350.39 1417.38 L1350.3 1417.65 L1350.25 1417.93 L1350.24 1418.2 L1350.23 1418.48 L1350.23 1418.75 L1350.24 1419.03 L1350.27 1419.3 L1350.32 1419.57 L1350.43 1419.85 L1350.61 1420.12 L1350.9 1420.4 L1351.31 1420.67 L1351.87 1420.95 L1352.61 1421.22 L1429.74 1421.22  Z" fill="#e26f46" fill-rule="evenodd" fill-opacity="1"/>
<polyline clip-path="url(#clip982)" style="stroke:#000000; stroke-linecap:round; stroke-linejoin:round; stroke-width:4; stroke-opacity:1; fill:none" points="1429.74,1421.22 1430.47,1420.95 1431.04,1420.67 1431.45,1420.4 1431.74,1420.12 1431.92,1419.85 1432.03,1419.57 1432.08,1419.3 1432.11,1419.03 1432.12,1418.75 1432.12,1418.48 1432.11,1418.2 1432.1,1417.93 1432.05,1417.65 1431.96,1417.38 1431.81,1417.1 1431.56,1416.83 1431.18,1416.56 1430.67,1416.28 1429.98,1416.01 1429.11,1415.73 1428.05,1415.46 1426.79,1415.18 1425.34,1414.91 1423.71,1414.63 1421.93,1414.36 1420.01,1414.09 1417.99,1413.81 1415.91,1413.54 1413.79,1413.26 1411.67,1412.99 1409.6,1412.71 1407.59,1412.44 1405.69,1412.16 1403.91,1411.89 1402.28,1411.62 1400.82,1411.34 1399.54,1411.07 1398.46,1410.79 1397.58,1410.52 1396.93,1410.24 1396.51,1409.97 1396.35,1409.69 1396.47,1409.42 1396.89,1409.15 1397.65,1408.87 1398.78,1408.6 1400.32,1408.32 1402.34,1408.05 1404.89,1407.77 1408.02,1407.5 1411.8,1407.22 1416.29,1406.95 1421.53,1406.68 1427.57,1406.4 1434.44,1406.13 1442.15,1405.85 1450.71,1405.58 1460.06,1405.3 1470.16,1405.03 1480.91,1404.75 1492.2,1404.48 1503.86,1404.21 1515.73,1403.93 1527.61,1403.66 1539.28,1403.38 1550.52,1403.11 1561.1,1402.83 1570.8,1402.56 1579.42,1402.28 1586.79,1402.01 1592.76,1401.74 1597.23,1401.46 1600.15,1401.19 1601.51,1400.91 1601.35,1400.64 1599.74,1400.36 1596.82,1400.09 1592.75,1399.81 1587.71,1399.54 1581.9,1399.27 1575.53,1398.99 1568.82,1398.72 1561.96,1398.44 1555.14,1398.17 1548.51,1397.89 1542.2,1397.62 1536.31,1397.34 1530.91,1397.07 1526.04,1396.8 1521.71,1396.52 1517.91,1396.25 1514.61,1395.97 1511.76,1395.7 1509.32,1395.42 1507.22,1395.15 1505.42,1394.87 1503.86,1394.6 1502.49,1394.32 1501.27,1394.05 1500.16,1393.78 1499.15,1393.5 1498.2,1393.23 1497.3,1392.95 1496.43,1392.68 1495.56,1392.4 1494.68,1392.13 1493.77,1391.85 1492.79,1391.58 1491.71,1391.31 1490.49,1391.03 1489.1,1390.76 1487.51,1390.48 1485.66,1390.21 1483.53,1389.93 1481.09,1389.66 1478.33,1389.38 1475.23,1389.11 1307.12,1389.11 1304.02,1389.38 1301.26,1389.66 1298.82,1389.93 1296.69,1390.21 1294.84,1390.48 1293.25,1390.76 1291.86,1391.03 1290.64,1391.31 1289.56,1391.58 1288.58,1391.85 1287.67,1392.13 1286.79,1392.4 1285.92,1392.68 1285.05,1392.95 1284.15,1393.23 1283.2,1393.5 1282.19,1393.78 1281.08,1394.05 1279.86,1394.32 1278.49,1394.6 1276.93,1394.87 1275.13,1395.15 1273.03,1395.42 1270.59,1395.7 1267.74,1395.97 1264.44,1396.25 1260.64,1396.52 1256.31,1396.8 1251.44,1397.07 1246.04,1397.34 1240.15,1397.62 1233.84,1397.89 1227.21,1398.17 1220.39,1398.44 1213.53,1398.72 1206.82,1398.99 1200.45,1399.27 1194.64,1399.54 1189.6,1399.81 1185.53,1400.09 1182.61,1400.36 1181,1400.64 1180.84,1400.91 1182.2,1401.19 1185.12,1401.46 1189.59,1401.74 1195.56,1402.01 1202.93,1402.28 1211.55,1402.56 1221.25,1402.83 1231.83,1403.11 1243.07,1403.38 1254.74,1403.66 1266.62,1403.93 1278.49,1404.21 1290.15,1404.48 1301.44,1404.75 1312.19,1405.03 1322.29,1405.3 1331.64,1405.58 1340.2,1405.85 1347.91,1406.13 1354.78,1406.4 1360.82,1406.68 1366.06,1406.95 1370.55,1407.22 1374.33,1407.5 1377.46,1407.77 1380.01,1408.05 1382.03,1408.32 1383.57,1408.6 1384.7,1408.87 1385.46,1409.15 1385.88,1409.42 1386,1409.69 1385.84,1409.97 1385.42,1410.24 1384.77,1410.52 1383.89,1410.79 1382.81,1411.07 1381.53,1411.34 1380.07,1411.62 1378.44,1411.89 1376.66,1412.16 1374.76,1412.44 1372.75,1412.71 1370.68,1412.99 1368.56,1413.26 1366.44,1413.54 1364.36,1413.81 1362.34,1414.09 1360.42,1414.36 1358.64,1414.63 1357.01,1414.91 1355.56,1415.18 1354.3,1415.46 1353.24,1415.73 1352.37,1416.01 1351.68,1416.28 1351.17,1416.56 1350.79,1416.83 1350.54,1417.1 1350.39,1417.38 1350.3,1417.65 1350.25,1417.93 1350.24,1418.2 1350.23,1418.48 1350.23,1418.75 1350.24,1419.03 1350.27,1419.3 1350.32,1419.57 1350.43,1419.85 1350.61,1420.12 1350.9,1420.4 1351.31,1420.67 1351.87,1420.95 1352.61,1421.22 1429.74,1421.22 "/>
<path clip-path="url(#clip982)" d="M2240.5 1413.05 L2247.59 1411.92 L2254.71 1410.8 L2261.83 1409.68 L2268.89 1408.55 L2275.85 1407.43 L2282.64 1406.3 L2289.23 1405.18 L2295.55 1404.06 L2301.57 1402.93 L2307.22 1401.81 L2312.48 1400.69 L2317.29 1399.56 L2321.63 1398.44 L2325.47 1397.32 L2328.79 1396.19 L2331.58 1395.07 L2333.83 1393.94 L2335.56 1392.82 L2336.76 1391.7 L2337.46 1390.57 L2337.7 1389.45 L2337.49 1388.33 L2336.89 1387.2 L2335.93 1386.08 L2334.66 1384.96 L2333.14 1383.83 L2331.41 1382.71 L2329.52 1381.58 L2327.52 1380.46 L2325.45 1379.34 L2323.36 1378.21 L2321.28 1377.09 L2319.23 1375.97 L2317.26 1374.84 L2315.36 1373.72 L2313.55 1372.59 L2311.83 1371.47 L2310.19 1370.35 L2308.64 1369.22 L2307.14 1368.1 L2305.68 1366.98 L2304.22 1365.85 L2302.75 1364.73 L2301.23 1363.61 L2299.62 1362.48 L2297.89 1361.36 L2296.01 1360.23 L2293.94 1359.11 L2291.67 1357.99 L2289.17 1356.86 L2286.41 1355.74 L2283.38 1354.62 L2280.09 1353.49 L2276.52 1352.37 L2272.67 1351.24 L2268.58 1350.12 L2264.24 1349 L2259.69 1347.87 L2254.95 1346.75 L2250.06 1345.63 L2245.05 1344.5 L2239.97 1343.38 L2234.87 1342.26 L2229.77 1341.13 L2224.74 1340.01 L2219.81 1338.88 L2215.01 1337.76 L2210.4 1336.64 L2205.99 1335.51 L2201.83 1334.39 L2197.93 1333.27 L2194.31 1332.14 L2190.98 1331.02 L2187.94 1329.9 L2185.2 1328.77 L2182.75 1327.65 L2180.58 1326.52 L2178.67 1325.4 L2176.99 1324.28 L2175.53 1323.15 L2174.25 1322.03 L2173.13 1320.91 L2172.14 1319.78 L2171.24 1318.66 L2170.41 1317.53 L2169.61 1316.41 L2168.83 1315.29 L2168.03 1314.16 L2167.2 1313.04 L2087.52 1313.04 L2086.69 1314.16 L2085.89 1315.29 L2085.1 1316.41 L2084.31 1317.53 L2083.47 1318.66 L2082.57 1319.78 L2081.58 1320.91 L2080.46 1322.03 L2079.19 1323.15 L2077.72 1324.28 L2076.05 1325.4 L2074.13 1326.52 L2071.96 1327.65 L2069.51 1328.77 L2066.77 1329.9 L2063.74 1331.02 L2060.41 1332.14 L2056.79 1333.27 L2052.89 1334.39 L2048.72 1335.51 L2044.32 1336.64 L2039.7 1337.76 L2034.91 1338.88 L2029.98 1340.01 L2024.94 1341.13 L2019.85 1342.26 L2014.74 1343.38 L2009.66 1344.5 L2004.66 1345.63 L1999.77 1346.75 L1995.03 1347.87 L1990.48 1349 L1986.14 1350.12 L1982.04 1351.24 L1978.2 1352.37 L1974.63 1353.49 L1971.33 1354.62 L1968.31 1355.74 L1965.55 1356.86 L1963.04 1357.99 L1960.77 1359.11 L1958.71 1360.23 L1956.83 1361.36 L1955.1 1362.48 L1953.49 1363.61 L1951.97 1364.73 L1950.49 1365.85 L1949.04 1366.98 L1947.58 1368.1 L1946.08 1369.22 L1944.52 1370.35 L1942.89 1371.47 L1941.17 1372.59 L1939.36 1373.72 L1937.46 1374.84 L1935.48 1375.97 L1933.44 1377.09 L1931.36 1378.21 L1929.27 1379.34 L1927.2 1380.46 L1925.2 1381.58 L1923.31 1382.71 L1921.58 1383.83 L1920.05 1384.96 L1918.79 1386.08 L1917.83 1387.2 L1917.23 1388.33 L1917.02 1389.45 L1917.25 1390.57 L1917.96 1391.7 L1919.16 1392.82 L1920.88 1393.94 L1923.13 1395.07 L1925.92 1396.19 L1929.24 1397.32 L1933.08 1398.44 L1937.42 1399.56 L1942.24 1400.69 L1947.49 1401.81 L1953.15 1402.93 L1959.16 1404.06 L1965.49 1405.18 L1972.07 1406.3 L1978.87 1407.43 L1985.82 1408.55 L1992.89 1409.68 L2000 1410.8 L2007.13 1411.92 L2014.22 1413.05 L2240.5 1413.05  Z" fill="#3da44d" fill-rule="evenodd" fill-opacity="1"/>
<polyline clip-path="url(#clip982)" style="stroke:#000000; stroke-linecap:round; stroke-linejoin:round; stroke-width:4; stroke-opacity:1; fill:none" points="2240.5,1413.05 2247.59,1411.92 2254.71,1410.8 2261.83,1409.68 2268.89,1408.55 2275.85,1407.43 2282.64,1406.3 2289.23,1405.18 2295.55,1404.06 2301.57,1402.93 2307.22,1401.81 2312.48,1400.69 2317.29,1399.56 2321.63,1398.44 2325.47,1397.32 2328.79,1396.19 2331.58,1395.07 2333.83,1393.94 2335.56,1392.82 2336.76,1391.7 2337.46,1390.57 2337.7,1389.45 2337.49,1388.33 2336.89,1387.2 2335.93,1386.08 2334.66,1384.96 2333.14,1383.83 2331.41,1382.71 2329.52,1381.58 2327.52,1380.46 2325.45,1379.34 2323.36,1378.21 2321.28,1377.09 2319.23,1375.97 2317.26,1374.84 2315.36,1373.72 2313.55,1372.59 2311.83,1371.47 2310.19,1370.35 2308.64,1369.22 2307.14,1368.1 2305.68,1366.98 2304.22,1365.85 2302.75,1364.73 2301.23,1363.61 2299.62,1362.48 2297.89,1361.36 2296.01,1360.23 2293.94,1359.11 2291.67,1357.99 2289.17,1356.86 2286.41,1355.74 2283.38,1354.62 2280.09,1353.49 2276.52,1352.37 2272.67,1351.24 2268.58,1350.12 2264.24,1349 2259.69,1347.87 2254.95,1346.75 2250.06,1345.63 2245.05,1344.5 2239.97,1343.38 2234.87,1342.26 2229.77,1341.13 2224.74,1340.01 2219.81,1338.88 2215.01,1337.76 2210.4,1336.64 2205.99,1335.51 2201.83,1334.39 2197.93,1333.27 2194.31,1332.14 2190.98,1331.02 2187.94,1329.9 2185.2,1328.77 2182.75,1327.65 2180.58,1326.52 2178.67,1325.4 2176.99,1324.28 2175.53,1323.15 2174.25,1322.03 2173.13,1320.91 2172.14,1319.78 2171.24,1318.66 2170.41,1317.53 2169.61,1316.41 2168.83,1315.29 2168.03,1314.16 2167.2,1313.04 2087.52,1313.04 2086.69,1314.16 2085.89,1315.29 2085.1,1316.41 2084.31,1317.53 2083.47,1318.66 2082.57,1319.78 2081.58,1320.91 2080.46,1322.03 2079.19,1323.15 2077.72,1324.28 2076.05,1325.4 2074.13,1326.52 2071.96,1327.65 2069.51,1328.77 2066.77,1329.9 2063.74,1331.02 2060.41,1332.14 2056.79,1333.27 2052.89,1334.39 2048.72,1335.51 2044.32,1336.64 2039.7,1337.76 2034.91,1338.88 2029.98,1340.01 2024.94,1341.13 2019.85,1342.26 2014.74,1343.38 2009.66,1344.5 2004.66,1345.63 1999.77,1346.75 1995.03,1347.87 1990.48,1349 1986.14,1350.12 1982.04,1351.24 1978.2,1352.37 1974.63,1353.49 1971.33,1354.62 1968.31,1355.74 1965.55,1356.86 1963.04,1357.99 1960.77,1359.11 1958.71,1360.23 1956.83,1361.36 1955.1,1362.48 1953.49,1363.61 1951.97,1364.73 1950.49,1365.85 1949.04,1366.98 1947.58,1368.1 1946.08,1369.22 1944.52,1370.35 1942.89,1371.47 1941.17,1372.59 1939.36,1373.72 1937.46,1374.84 1935.48,1375.97 1933.44,1377.09 1931.36,1378.21 1929.27,1379.34 1927.2,1380.46 1925.2,1381.58 1923.31,1382.71 1921.58,1383.83 1920.05,1384.96 1918.79,1386.08 1917.83,1387.2 1917.23,1388.33 1917.02,1389.45 1917.25,1390.57 1917.96,1391.7 1919.16,1392.82 1920.88,1393.94 1923.13,1395.07 1925.92,1396.19 1929.24,1397.32 1933.08,1398.44 1937.42,1399.56 1942.24,1400.69 1947.49,1401.81 1953.15,1402.93 1959.16,1404.06 1965.49,1405.18 1972.07,1406.3 1978.87,1407.43 1985.82,1408.55 1992.89,1409.68 2000,1410.8 2007.13,1411.92 2014.22,1413.05 2240.5,1413.05 "/>
<path clip-path="url(#clip982)" d="M2967.56 121.513 L2970.1 121.001 L2972.58 120.489 L2975 119.976 L2977.39 119.464 L2979.76 118.952 L2982.11 118.44 L2984.46 117.928 L2986.82 117.415 L2989.21 116.903 L2991.63 116.391 L2994.1 115.879 L2996.62 115.367 L2999.2 114.854 L3001.85 114.342 L3004.55 113.83 L3007.32 113.318 L3010.15 112.806 L3013.03 112.294 L3015.96 111.781 L3018.92 111.269 L3021.91 110.757 L3024.9 110.245 L3027.89 109.733 L3030.86 109.22 L3033.79 108.708 L3036.67 108.196 L3039.49 107.684 L3042.23 107.172 L3044.87 106.66 L3047.42 106.147 L3049.85 105.635 L3052.17 105.123 L3054.36 104.611 L3056.42 104.099 L3058.36 103.586 L3060.16 103.074 L3061.85 102.562 L3063.41 102.05 L3064.85 101.538 L3066.17 101.025 L3067.39 100.513 L3068.5 100.001 L3069.51 99.4889 L3070.43 98.9767 L3071.24 98.4645 L3071.96 97.9523 L3072.57 97.4402 L3073.08 96.928 L3073.48 96.4158 L3073.75 95.9036 L3073.88 95.3914 L3073.86 94.8792 L3073.68 94.367 L3073.31 93.8549 L3072.73 93.3427 L3071.93 92.8305 L3070.89 92.3183 L3069.58 91.8061 L3068 91.2939 L3066.11 90.7817 L3063.91 90.2695 L3061.38 89.7574 L3058.52 89.2452 L3055.32 88.733 L3051.77 88.2208 L2675.31 88.2208 L2671.77 88.733 L2668.56 89.2452 L2665.7 89.7574 L2663.17 90.2695 L2660.97 90.7817 L2659.09 91.2939 L2657.5 91.8061 L2656.19 92.3183 L2655.15 92.8305 L2654.35 93.3427 L2653.78 93.8549 L2653.41 94.367 L2653.22 94.8792 L2653.2 95.3914 L2653.34 95.9036 L2653.61 96.4158 L2654 96.928 L2654.51 97.4402 L2655.12 97.9523 L2655.84 98.4645 L2656.66 98.9767 L2657.57 99.4889 L2658.58 100.001 L2659.69 100.513 L2660.91 101.025 L2662.24 101.538 L2663.68 102.05 L2665.24 102.562 L2666.92 103.074 L2668.73 103.586 L2670.66 104.099 L2672.72 104.611 L2674.92 105.123 L2677.23 105.635 L2679.66 106.147 L2682.21 106.66 L2684.86 107.172 L2687.59 107.684 L2690.41 108.196 L2693.29 108.708 L2696.23 109.22 L2699.19 109.733 L2702.18 110.245 L2705.18 110.757 L2708.16 111.269 L2711.12 111.781 L2714.05 112.294 L2716.93 112.806 L2719.76 113.318 L2722.53 113.83 L2725.24 114.342 L2727.88 114.854 L2730.46 115.367 L2732.98 115.879 L2735.45 116.391 L2737.87 116.903 L2740.26 117.415 L2742.62 117.928 L2744.97 118.44 L2747.32 118.952 L2749.69 119.464 L2752.08 119.976 L2754.51 120.489 L2756.98 121.001 L2759.52 121.513 L2967.56 121.513  Z" fill="#c271d2" fill-rule="evenodd" fill-opacity="1"/>
<polyline clip-path="url(#clip982)" style="stroke:#000000; stroke-linecap:round; stroke-linejoin:round; stroke-width:4; stroke-opacity:1; fill:none" points="2967.56,121.513 2970.1,121.001 2972.58,120.489 2975,119.976 2977.39,119.464 2979.76,118.952 2982.11,118.44 2984.46,117.928 2986.82,117.415 2989.21,116.903 2991.63,116.391 2994.1,115.879 2996.62,115.367 2999.2,114.854 3001.85,114.342 3004.55,113.83 3007.32,113.318 3010.15,112.806 3013.03,112.294 3015.96,111.781 3018.92,111.269 3021.91,110.757 3024.9,110.245 3027.89,109.733 3030.86,109.22 3033.79,108.708 3036.67,108.196 3039.49,107.684 3042.23,107.172 3044.87,106.66 3047.42,106.147 3049.85,105.635 3052.17,105.123 3054.36,104.611 3056.42,104.099 3058.36,103.586 3060.16,103.074 3061.85,102.562 3063.41,102.05 3064.85,101.538 3066.17,101.025 3067.39,100.513 3068.5,100.001 3069.51,99.4889 3070.43,98.9767 3071.24,98.4645 3071.96,97.9523 3072.57,97.4402 3073.08,96.928 3073.48,96.4158 3073.75,95.9036 3073.88,95.3914 3073.86,94.8792 3073.68,94.367 3073.31,93.8549 3072.73,93.3427 3071.93,92.8305 3070.89,92.3183 3069.58,91.8061 3068,91.2939 3066.11,90.7817 3063.91,90.2695 3061.38,89.7574 3058.52,89.2452 3055.32,88.733 3051.77,88.2208 2675.31,88.2208 2671.77,88.733 2668.56,89.2452 2665.7,89.7574 2663.17,90.2695 2660.97,90.7817 2659.09,91.2939 2657.5,91.8061 2656.19,92.3183 2655.15,92.8305 2654.35,93.3427 2653.78,93.8549 2653.41,94.367 2653.22,94.8792 2653.2,95.3914 2653.34,95.9036 2653.61,96.4158 2654,96.928 2654.51,97.4402 2655.12,97.9523 2655.84,98.4645 2656.66,98.9767 2657.57,99.4889 2658.58,100.001 2659.69,100.513 2660.91,101.025 2662.24,101.538 2663.68,102.05 2665.24,102.562 2666.92,103.074 2668.73,103.586 2670.66,104.099 2672.72,104.611 2674.92,105.123 2677.23,105.635 2679.66,106.147 2682.21,106.66 2684.86,107.172 2687.59,107.684 2690.41,108.196 2693.29,108.708 2696.23,109.22 2699.19,109.733 2702.18,110.245 2705.18,110.757 2708.16,111.269 2711.12,111.781 2714.05,112.294 2716.93,112.806 2719.76,113.318 2722.53,113.83 2725.24,114.342 2727.88,114.854 2730.46,115.367 2732.98,115.879 2735.45,116.391 2737.87,116.903 2740.26,117.415 2742.62,117.928 2744.97,118.44 2747.32,118.952 2749.69,119.464 2752.08,119.976 2754.51,120.489 2756.98,121.001 2759.52,121.513 2967.56,121.513 "/>
</svg>
