<?xml version="1.0" encoding="utf-8"?>
<svg xmlns="http://www.w3.org/2000/svg" xmlns:xlink="http://www.w3.org/1999/xlink" width="800" height="400" viewBox="0 0 3200 1600">
<defs>
  <clipPath id="clip160">
    <rect x="0" y="0" width="3200" height="1600"/>
  </clipPath>
</defs>
<path clip-path="url(#clip160)" d="M0 1600 L3200 1600 L3200 0 L0 0  Z" fill="#ffffff" fill-rule="evenodd" fill-opacity="1"/>
<defs>
  <clipPath id="clip161">
    <rect x="640" y="0" width="2241" height="1600"/>
  </clipPath>
</defs>
<path clip-path="url(#clip160)" d="M365.777 1495.09 L3152.76 1495.09 L3152.76 47.2441 L365.777 47.2441  Z" fill="#ffffff" fill-rule="evenodd" fill-opacity="1"/>
<defs>
  <clipPath id="clip162">
    <rect x="365" y="47" width="2788" height="1449"/>
  </clipPath>
</defs>
<polyline clip-path="url(#clip162)" style="stroke:#000000; stroke-linecap:round; stroke-linejoin:round; stroke-width:2; stroke-opacity:0.1; fill:none" points="654.992,1495.09 654.992,47.2441 "/>
<polyline clip-path="url(#clip162)" style="stroke:#000000; stroke-linecap:round; stroke-linejoin:round; stroke-width:2; stroke-opacity:0.1; fill:none" points="1391.17,1495.09 1391.17,47.2441 "/>
<polyline clip-path="url(#clip162)" style="stroke:#000000; stroke-linecap:round; stroke-linejoin:round; stroke-width:2; stroke-opacity:0.1; fill:none" points="2127.36,1495.09 2127.36,47.2441 "/>
<polyline clip-path="url(#clip162)" style="stroke:#000000; stroke-linecap:round; stroke-linejoin:round; stroke-width:2; stroke-opacity:0.1; fill:none" points="2863.54,1495.09 2863.54,47.2441 "/>
<polyline clip-path="url(#clip162)" style="stroke:#000000; stroke-linecap:round; stroke-linejoin:round; stroke-width:2; stroke-opacity:0.1; fill:none" points="365.777,1416.4 3152.76,1416.4 "/>
<polyline clip-path="url(#clip162)" style="stroke:#000000; stroke-linecap:round; stroke-linejoin:round; stroke-width:2; stroke-opacity:0.1; fill:none" points="365.777,1120.67 3152.76,1120.67 "/>
<polyline clip-path="url(#clip162)" style="stroke:#000000; stroke-linecap:round; stroke-linejoin:round; stroke-width:2; stroke-opacity:0.1; fill:none" points="365.777,824.929 3152.76,824.929 "/>
<polyline clip-path="url(#clip162)" style="stroke:#000000; stroke-linecap:round; stroke-linejoin:round; stroke-width:2; stroke-opacity:0.1; fill:none" points="365.777,529.192 3152.76,529.192 "/>
<polyline clip-path="url(#clip162)" style="stroke:#000000; stroke-linecap:round; stroke-linejoin:round; stroke-width:2; stroke-opacity:0.1; fill:none" points="365.777,233.455 3152.76,233.455 "/>
<polyline clip-path="url(#clip160)" style="stroke:#000000; stroke-linecap:round; stroke-linejoin:round; stroke-width:4; stroke-opacity:1; fill:none" points="365.777,1495.09 3152.76,1495.09 "/>
<polyline clip-path="url(#clip160)" style="stroke:#000000; stroke-linecap:round; stroke-linejoin:round; stroke-width:4; stroke-opacity:1; fill:none" points="654.992,1495.09 654.992,1476.19 "/>
<polyline clip-path="url(#clip160)" style="stroke:#000000; stroke-linecap:round; stroke-linejoin:round; stroke-width:4; stroke-opacity:1; fill:none" points="1391.17,1495.09 1391.17,1476.19 "/>
<polyline clip-path="url(#clip160)" style="stroke:#000000; stroke-linecap:round; stroke-linejoin:round; stroke-width:4; stroke-opacity:1; fill:none" points="2127.36,1495.09 2127.36,1476.19 "/>
<polyline clip-path="url(#clip160)" style="stroke:#000000; stroke-linecap:round; stroke-linejoin:round; stroke-width:4; stroke-opacity:1; fill:none" points="2863.54,1495.09 2863.54,1476.19 "/>
<path clip-path="url(#clip160)" d="M434.762 1530.46 L434.762 1535.02 Q432.1 1533.75 429.738 1533.12 Q427.377 1532.5 425.178 1532.5 Q421.359 1532.5 419.276 1533.98 Q417.215 1535.46 417.215 1538.19 Q417.215 1540.49 418.581 1541.67 Q419.97 1542.82 423.813 1543.54 L426.637 1544.12 Q431.868 1545.11 434.345 1547.64 Q436.845 1550.14 436.845 1554.35 Q436.845 1559.37 433.465 1561.97 Q430.109 1564.56 423.604 1564.56 Q421.151 1564.56 418.373 1564 Q415.618 1563.45 412.655 1562.36 L412.655 1557.55 Q415.502 1559.14 418.234 1559.95 Q420.965 1560.76 423.604 1560.76 Q427.609 1560.76 429.785 1559.19 Q431.961 1557.61 431.961 1554.7 Q431.961 1552.15 430.387 1550.72 Q428.836 1549.28 425.271 1548.56 L422.424 1548.01 Q417.192 1546.97 414.854 1544.74 Q412.516 1542.52 412.516 1538.56 Q412.516 1533.98 415.734 1531.34 Q418.975 1528.7 424.646 1528.7 Q427.076 1528.7 429.6 1529.14 Q432.123 1529.58 434.762 1530.46 Z" fill="#000000" fill-rule="nonzero" fill-opacity="1" /><path clip-path="url(#clip160)" d="M454.738 1566.3 Q452.933 1570.92 451.22 1572.34 Q449.507 1573.75 446.637 1573.75 L443.234 1573.75 L443.234 1570.18 L445.734 1570.18 Q447.493 1570.18 448.465 1569.35 Q449.437 1568.52 450.618 1565.42 L451.382 1563.47 L440.896 1537.96 L445.41 1537.96 L453.512 1558.24 L461.613 1537.96 L466.127 1537.96 L454.738 1566.3 Z" fill="#000000" fill-rule="nonzero" fill-opacity="1" /><path clip-path="url(#clip160)" d="M492.192 1542.94 Q493.789 1540.07 496.011 1538.7 Q498.233 1537.34 501.243 1537.34 Q505.294 1537.34 507.493 1540.18 Q509.692 1543.01 509.692 1548.24 L509.692 1563.89 L505.409 1563.89 L505.409 1548.38 Q505.409 1544.65 504.09 1542.85 Q502.771 1541.04 500.062 1541.04 Q496.752 1541.04 494.831 1543.24 Q492.909 1545.44 492.909 1549.24 L492.909 1563.89 L488.627 1563.89 L488.627 1548.38 Q488.627 1544.63 487.308 1542.85 Q485.988 1541.04 483.234 1541.04 Q479.97 1541.04 478.048 1543.26 Q476.127 1545.46 476.127 1549.24 L476.127 1563.89 L471.845 1563.89 L471.845 1537.96 L476.127 1537.96 L476.127 1541.99 Q477.585 1539.61 479.622 1538.47 Q481.66 1537.34 484.46 1537.34 Q487.284 1537.34 489.252 1538.77 Q491.243 1540.21 492.192 1542.94 Z" fill="#000000" fill-rule="nonzero" fill-opacity="1" /><path clip-path="url(#clip160)" d="M536.798 1550.95 Q536.798 1546.25 534.854 1543.59 Q532.932 1540.9 529.553 1540.9 Q526.173 1540.9 524.229 1543.59 Q522.307 1546.25 522.307 1550.95 Q522.307 1555.65 524.229 1558.33 Q526.173 1560.99 529.553 1560.99 Q532.932 1560.99 534.854 1558.33 Q536.798 1555.65 536.798 1550.95 M522.307 1541.9 Q523.65 1539.58 525.687 1538.47 Q527.747 1537.34 530.594 1537.34 Q535.317 1537.34 538.256 1541.09 Q541.219 1544.84 541.219 1550.95 Q541.219 1557.06 538.256 1560.81 Q535.317 1564.56 530.594 1564.56 Q527.747 1564.56 525.687 1563.45 Q523.65 1562.31 522.307 1560 L522.307 1563.89 L518.025 1563.89 L518.025 1527.87 L522.307 1527.87 L522.307 1541.9 Z" fill="#000000" fill-rule="nonzero" fill-opacity="1" /><path clip-path="url(#clip160)" d="M558.326 1540.95 Q554.9 1540.95 552.909 1543.63 Q550.918 1546.3 550.918 1550.95 Q550.918 1555.6 552.886 1558.29 Q554.877 1560.95 558.326 1560.95 Q561.729 1560.95 563.719 1558.26 Q565.71 1555.58 565.71 1550.95 Q565.71 1546.34 563.719 1543.66 Q561.729 1540.95 558.326 1540.95 M558.326 1537.34 Q563.881 1537.34 567.053 1540.95 Q570.224 1544.56 570.224 1550.95 Q570.224 1557.31 567.053 1560.95 Q563.881 1564.56 558.326 1564.56 Q552.747 1564.56 549.576 1560.95 Q546.428 1557.31 546.428 1550.95 Q546.428 1544.56 549.576 1540.95 Q552.747 1537.34 558.326 1537.34 Z" fill="#000000" fill-rule="nonzero" fill-opacity="1" /><path clip-path="url(#clip160)" d="M577.284 1527.87 L581.543 1527.87 L581.543 1563.89 L577.284 1563.89 L577.284 1527.87 Z" fill="#000000" fill-rule="nonzero" fill-opacity="1" /><path clip-path="url(#clip160)" d="M590.455 1537.96 L594.714 1537.96 L594.714 1563.89 L590.455 1563.89 L590.455 1537.96 M590.455 1527.87 L594.714 1527.87 L594.714 1533.26 L590.455 1533.26 L590.455 1527.87 Z" fill="#000000" fill-rule="nonzero" fill-opacity="1" /><path clip-path="url(#clip160)" d="M622.284 1538.96 L622.284 1542.94 Q620.478 1541.94 618.65 1541.46 Q616.844 1540.95 614.992 1540.95 Q610.849 1540.95 608.557 1543.59 Q606.265 1546.2 606.265 1550.95 Q606.265 1555.69 608.557 1558.33 Q610.849 1560.95 614.992 1560.95 Q616.844 1560.95 618.65 1560.46 Q620.478 1559.95 622.284 1558.96 L622.284 1562.89 Q620.501 1563.73 618.58 1564.14 Q616.682 1564.56 614.529 1564.56 Q608.673 1564.56 605.224 1560.88 Q601.775 1557.2 601.775 1550.95 Q601.775 1544.61 605.247 1540.97 Q608.742 1537.34 614.807 1537.34 Q616.775 1537.34 618.65 1537.75 Q620.525 1538.15 622.284 1538.96 Z" fill="#000000" fill-rule="nonzero" fill-opacity="1" /><path clip-path="url(#clip160)" d="M654.992 1527.92 Q651.89 1533.24 650.385 1538.45 Q648.881 1543.66 648.881 1549 Q648.881 1554.35 650.385 1559.61 Q651.913 1564.84 654.992 1570.14 L651.288 1570.14 Q647.816 1564.7 646.08 1559.44 Q644.367 1554.19 644.367 1549 Q644.367 1543.84 646.08 1538.61 Q647.793 1533.38 651.288 1527.92 L654.992 1527.92 Z" fill="#000000" fill-rule="nonzero" fill-opacity="1" /><path clip-path="url(#clip160)" d="M675.038 1550.86 Q669.876 1550.86 667.885 1552.04 Q665.895 1553.22 665.895 1556.06 Q665.895 1558.33 667.376 1559.67 Q668.881 1560.99 671.45 1560.99 Q674.992 1560.99 677.121 1558.49 Q679.274 1555.97 679.274 1551.8 L679.274 1550.86 L675.038 1550.86 M683.533 1549.1 L683.533 1563.89 L679.274 1563.89 L679.274 1559.95 Q677.816 1562.31 675.64 1563.45 Q673.464 1564.56 670.316 1564.56 Q666.334 1564.56 663.973 1562.34 Q661.635 1560.09 661.635 1556.34 Q661.635 1551.97 664.552 1549.74 Q667.492 1547.52 673.302 1547.52 L679.274 1547.52 L679.274 1547.11 Q679.274 1544.17 677.33 1542.57 Q675.408 1540.95 671.913 1540.95 Q669.691 1540.95 667.584 1541.48 Q665.478 1542.01 663.534 1543.08 L663.534 1539.14 Q665.871 1538.24 668.071 1537.8 Q670.27 1537.34 672.353 1537.34 Q677.978 1537.34 680.756 1540.25 Q683.533 1543.17 683.533 1549.1 Z" fill="#000000" fill-rule="nonzero" fill-opacity="1" /><path clip-path="url(#clip160)" d="M691.867 1553.66 L691.867 1537.96 L696.126 1537.96 L696.126 1553.49 Q696.126 1557.17 697.561 1559.03 Q698.996 1560.86 701.867 1560.86 Q705.316 1560.86 707.306 1558.66 Q709.32 1556.46 709.32 1552.66 L709.32 1537.96 L713.58 1537.96 L713.58 1563.89 L709.32 1563.89 L709.32 1559.91 Q707.769 1562.27 705.709 1563.42 Q703.672 1564.56 700.964 1564.56 Q696.496 1564.56 694.182 1561.78 Q691.867 1559 691.867 1553.66 M702.584 1537.34 L702.584 1537.34 Z" fill="#000000" fill-rule="nonzero" fill-opacity="1" /><path clip-path="url(#clip160)" d="M726.566 1530.6 L726.566 1537.96 L735.339 1537.96 L735.339 1541.27 L726.566 1541.27 L726.566 1555.35 Q726.566 1558.52 727.422 1559.42 Q728.302 1560.32 730.964 1560.32 L735.339 1560.32 L735.339 1563.89 L730.964 1563.89 Q726.033 1563.89 724.158 1562.06 Q722.283 1560.21 722.283 1555.35 L722.283 1541.27 L719.158 1541.27 L719.158 1537.96 L722.283 1537.96 L722.283 1530.6 L726.566 1530.6 Z" fill="#000000" fill-rule="nonzero" fill-opacity="1" /><path clip-path="url(#clip160)" d="M750.987 1540.95 Q747.561 1540.95 745.57 1543.63 Q743.579 1546.3 743.579 1550.95 Q743.579 1555.6 745.547 1558.29 Q747.538 1560.95 750.987 1560.95 Q754.39 1560.95 756.38 1558.26 Q758.371 1555.58 758.371 1550.95 Q758.371 1546.34 756.38 1543.66 Q754.39 1540.95 750.987 1540.95 M750.987 1537.34 Q756.542 1537.34 759.714 1540.95 Q762.885 1544.56 762.885 1550.95 Q762.885 1557.31 759.714 1560.95 Q756.542 1564.56 750.987 1564.56 Q745.408 1564.56 742.237 1560.95 Q739.089 1557.31 739.089 1550.95 Q739.089 1544.56 742.237 1540.95 Q745.408 1537.34 750.987 1537.34 Z" fill="#000000" fill-rule="nonzero" fill-opacity="1" /><path clip-path="url(#clip160)" d="M769.714 1558.01 L774.598 1558.01 L774.598 1563.89 L769.714 1563.89 L769.714 1558.01 Z" fill="#000000" fill-rule="nonzero" fill-opacity="1" /><path clip-path="url(#clip160)" d="M816.31 1541.9 L816.31 1527.87 L820.57 1527.87 L820.57 1563.89 L816.31 1563.89 L816.31 1560 Q814.968 1562.31 812.908 1563.45 Q810.871 1564.56 808 1564.56 Q803.301 1564.56 800.338 1560.81 Q797.399 1557.06 797.399 1550.95 Q797.399 1544.84 800.338 1541.09 Q803.301 1537.34 808 1537.34 Q810.871 1537.34 812.908 1538.47 Q814.968 1539.58 816.31 1541.9 M801.797 1550.95 Q801.797 1555.65 803.718 1558.33 Q805.662 1560.99 809.042 1560.99 Q812.422 1560.99 814.366 1558.33 Q816.31 1555.65 816.31 1550.95 Q816.31 1546.25 814.366 1543.59 Q812.422 1540.9 809.042 1540.9 Q805.662 1540.9 803.718 1543.59 Q801.797 1546.25 801.797 1550.95 Z" fill="#000000" fill-rule="nonzero" fill-opacity="1" /><path clip-path="url(#clip160)" d="M829.343 1537.96 L833.602 1537.96 L833.602 1563.89 L829.343 1563.89 L829.343 1537.96 M829.343 1527.87 L833.602 1527.87 L833.602 1533.26 L829.343 1533.26 L829.343 1527.87 Z" fill="#000000" fill-rule="nonzero" fill-opacity="1" /><path clip-path="url(#clip160)" d="M855.639 1527.87 L855.639 1531.41 L851.565 1531.41 Q849.273 1531.41 848.371 1532.34 Q847.491 1533.26 847.491 1535.67 L847.491 1537.96 L854.505 1537.96 L854.505 1541.27 L847.491 1541.27 L847.491 1563.89 L843.208 1563.89 L843.208 1541.27 L839.134 1541.27 L839.134 1537.96 L843.208 1537.96 L843.208 1536.16 Q843.208 1531.83 845.222 1529.86 Q847.236 1527.87 851.611 1527.87 L855.639 1527.87 Z" fill="#000000" fill-rule="nonzero" fill-opacity="1" /><path clip-path="url(#clip160)" d="M872.329 1527.87 L872.329 1531.41 L868.255 1531.41 Q865.963 1531.41 865.06 1532.34 Q864.181 1533.26 864.181 1535.67 L864.181 1537.96 L871.194 1537.96 L871.194 1541.27 L864.181 1541.27 L864.181 1563.89 L859.898 1563.89 L859.898 1541.27 L855.824 1541.27 L855.824 1537.96 L859.898 1537.96 L859.898 1536.16 Q859.898 1531.83 861.912 1529.86 Q863.926 1527.87 868.301 1527.87 L872.329 1527.87 Z" fill="#000000" fill-rule="nonzero" fill-opacity="1" /><path clip-path="url(#clip160)" d="M873.046 1558.01 L877.931 1558.01 L877.931 1563.89 L873.046 1563.89 L873.046 1558.01 Z" fill="#000000" fill-rule="nonzero" fill-opacity="1" /><path clip-path="url(#clip160)" d="M886.843 1527.92 L890.546 1527.92 Q894.018 1533.38 895.731 1538.61 Q897.467 1543.84 897.467 1549 Q897.467 1554.19 895.731 1559.44 Q894.018 1564.7 890.546 1570.14 L886.843 1570.14 Q889.921 1564.84 891.426 1559.61 Q892.954 1554.35 892.954 1549 Q892.954 1543.66 891.426 1538.45 Q889.921 1533.24 886.843 1527.92 Z" fill="#000000" fill-rule="nonzero" fill-opacity="1" /><path clip-path="url(#clip160)" d="M1193.92 1530.46 L1193.92 1535.02 Q1191.26 1533.75 1188.9 1533.12 Q1186.53 1532.5 1184.34 1532.5 Q1180.52 1532.5 1178.43 1533.98 Q1176.37 1535.46 1176.37 1538.19 Q1176.37 1540.49 1177.74 1541.67 Q1179.13 1542.82 1182.97 1543.54 L1185.79 1544.12 Q1191.03 1545.11 1193.5 1547.64 Q1196 1550.14 1196 1554.35 Q1196 1559.37 1192.62 1561.97 Q1189.27 1564.56 1182.76 1564.56 Q1180.31 1564.56 1177.53 1564 Q1174.78 1563.45 1171.81 1562.36 L1171.81 1557.55 Q1174.66 1559.14 1177.39 1559.95 Q1180.12 1560.76 1182.76 1560.76 Q1186.77 1560.76 1188.94 1559.19 Q1191.12 1557.61 1191.12 1554.7 Q1191.12 1552.15 1189.54 1550.72 Q1187.99 1549.28 1184.43 1548.56 L1181.58 1548.01 Q1176.35 1546.97 1174.01 1544.74 Q1171.67 1542.52 1171.67 1538.56 Q1171.67 1533.98 1174.89 1531.34 Q1178.13 1528.7 1183.8 1528.7 Q1186.23 1528.7 1188.76 1529.14 Q1191.28 1529.58 1193.92 1530.46 Z" fill="#000000" fill-rule="nonzero" fill-opacity="1" /><path clip-path="url(#clip160)" d="M1213.9 1566.3 Q1212.09 1570.92 1210.38 1572.34 Q1208.66 1573.75 1205.79 1573.75 L1202.39 1573.75 L1202.39 1570.18 L1204.89 1570.18 Q1206.65 1570.18 1207.62 1569.35 Q1208.59 1568.52 1209.78 1565.42 L1210.54 1563.47 L1200.05 1537.96 L1204.57 1537.96 L1212.67 1558.24 L1220.77 1537.96 L1225.28 1537.96 L1213.9 1566.3 Z" fill="#000000" fill-rule="nonzero" fill-opacity="1" /><path clip-path="url(#clip160)" d="M1251.35 1542.94 Q1252.95 1540.07 1255.17 1538.7 Q1257.39 1537.34 1260.4 1537.34 Q1264.45 1537.34 1266.65 1540.18 Q1268.85 1543.01 1268.85 1548.24 L1268.85 1563.89 L1264.57 1563.89 L1264.57 1548.38 Q1264.57 1544.65 1263.25 1542.85 Q1261.93 1541.04 1259.22 1541.04 Q1255.91 1541.04 1253.99 1543.24 Q1252.07 1545.44 1252.07 1549.24 L1252.07 1563.89 L1247.78 1563.89 L1247.78 1548.38 Q1247.78 1544.63 1246.47 1542.85 Q1245.15 1541.04 1242.39 1541.04 Q1239.13 1541.04 1237.21 1543.26 Q1235.28 1545.46 1235.28 1549.24 L1235.28 1563.89 L1231 1563.89 L1231 1537.96 L1235.28 1537.96 L1235.28 1541.99 Q1236.74 1539.61 1238.78 1538.47 Q1240.82 1537.34 1243.62 1537.34 Q1246.44 1537.34 1248.41 1538.77 Q1250.4 1540.21 1251.35 1542.94 Z" fill="#000000" fill-rule="nonzero" fill-opacity="1" /><path clip-path="url(#clip160)" d="M1295.96 1550.95 Q1295.96 1546.25 1294.01 1543.59 Q1292.09 1540.9 1288.71 1540.9 Q1285.33 1540.9 1283.39 1543.59 Q1281.46 1546.25 1281.46 1550.95 Q1281.46 1555.65 1283.39 1558.33 Q1285.33 1560.99 1288.71 1560.99 Q1292.09 1560.99 1294.01 1558.33 Q1295.96 1555.65 1295.96 1550.95 M1281.46 1541.9 Q1282.81 1539.58 1284.84 1538.47 Q1286.9 1537.34 1289.75 1537.34 Q1294.47 1537.34 1297.41 1541.09 Q1300.38 1544.84 1300.38 1550.95 Q1300.38 1557.06 1297.41 1560.81 Q1294.47 1564.56 1289.75 1564.56 Q1286.9 1564.56 1284.84 1563.45 Q1282.81 1562.31 1281.46 1560 L1281.46 1563.89 L1277.18 1563.89 L1277.18 1527.87 L1281.46 1527.87 L1281.46 1541.9 Z" fill="#000000" fill-rule="nonzero" fill-opacity="1" /><path clip-path="url(#clip160)" d="M1317.48 1540.95 Q1314.06 1540.95 1312.07 1543.63 Q1310.08 1546.3 1310.08 1550.95 Q1310.08 1555.6 1312.04 1558.29 Q1314.03 1560.95 1317.48 1560.95 Q1320.89 1560.95 1322.88 1558.26 Q1324.87 1555.58 1324.87 1550.95 Q1324.87 1546.34 1322.88 1543.66 Q1320.89 1540.95 1317.48 1540.95 M1317.48 1537.34 Q1323.04 1537.34 1326.21 1540.95 Q1329.38 1544.56 1329.38 1550.95 Q1329.38 1557.31 1326.21 1560.95 Q1323.04 1564.56 1317.48 1564.56 Q1311.9 1564.56 1308.73 1560.95 Q1305.59 1557.31 1305.59 1550.95 Q1305.59 1544.56 1308.73 1540.95 Q1311.9 1537.34 1317.48 1537.34 Z" fill="#000000" fill-rule="nonzero" fill-opacity="1" /><path clip-path="url(#clip160)" d="M1336.44 1527.87 L1340.7 1527.87 L1340.7 1563.89 L1336.44 1563.89 L1336.44 1527.87 Z" fill="#000000" fill-rule="nonzero" fill-opacity="1" /><path clip-path="url(#clip160)" d="M1349.61 1537.96 L1353.87 1537.96 L1353.87 1563.89 L1349.61 1563.89 L1349.61 1537.96 M1349.61 1527.87 L1353.87 1527.87 L1353.87 1533.26 L1349.61 1533.26 L1349.61 1527.87 Z" fill="#000000" fill-rule="nonzero" fill-opacity="1" /><path clip-path="url(#clip160)" d="M1381.44 1538.96 L1381.44 1542.94 Q1379.64 1541.94 1377.81 1541.46 Q1376 1540.95 1374.15 1540.95 Q1370.01 1540.95 1367.71 1543.59 Q1365.42 1546.2 1365.42 1550.95 Q1365.42 1555.69 1367.71 1558.33 Q1370.01 1560.95 1374.15 1560.95 Q1376 1560.95 1377.81 1560.46 Q1379.64 1559.95 1381.44 1558.96 L1381.44 1562.89 Q1379.66 1563.73 1377.74 1564.14 Q1375.84 1564.56 1373.69 1564.56 Q1367.83 1564.56 1364.38 1560.88 Q1360.93 1557.2 1360.93 1550.95 Q1360.93 1544.61 1364.4 1540.97 Q1367.9 1537.34 1373.96 1537.34 Q1375.93 1537.34 1377.81 1537.75 Q1379.68 1538.15 1381.44 1538.96 Z" fill="#000000" fill-rule="nonzero" fill-opacity="1" /><path clip-path="url(#clip160)" d="M1414.15 1527.92 Q1411.05 1533.24 1409.54 1538.45 Q1408.04 1543.66 1408.04 1549 Q1408.04 1554.35 1409.54 1559.61 Q1411.07 1564.84 1414.15 1570.14 L1410.45 1570.14 Q1406.97 1564.7 1405.24 1559.44 Q1403.52 1554.19 1403.52 1549 Q1403.52 1543.84 1405.24 1538.61 Q1406.95 1533.38 1410.45 1527.92 L1414.15 1527.92 Z" fill="#000000" fill-rule="nonzero" fill-opacity="1" /><path clip-path="url(#clip160)" d="M1435.54 1527.87 L1435.54 1531.41 L1431.46 1531.41 Q1429.17 1531.41 1428.27 1532.34 Q1427.39 1533.26 1427.39 1535.67 L1427.39 1537.96 L1434.4 1537.96 L1434.4 1541.27 L1427.39 1541.27 L1427.39 1563.89 L1423.11 1563.89 L1423.11 1541.27 L1419.03 1541.27 L1419.03 1537.96 L1423.11 1537.96 L1423.11 1536.16 Q1423.11 1531.83 1425.12 1529.86 Q1427.14 1527.87 1431.51 1527.87 L1435.54 1527.87 Z" fill="#000000" fill-rule="nonzero" fill-opacity="1" /><path clip-path="url(#clip160)" d="M1439.1 1537.96 L1443.36 1537.96 L1443.36 1563.89 L1439.1 1563.89 L1439.1 1537.96 M1439.1 1527.87 L1443.36 1527.87 L1443.36 1533.26 L1439.1 1533.26 L1439.1 1527.87 Z" fill="#000000" fill-rule="nonzero" fill-opacity="1" /><path clip-path="url(#clip160)" d="M1473.83 1548.24 L1473.83 1563.89 L1469.57 1563.89 L1469.57 1548.38 Q1469.57 1544.7 1468.13 1542.87 Q1466.7 1541.04 1463.83 1541.04 Q1460.38 1541.04 1458.39 1543.24 Q1456.39 1545.44 1456.39 1549.24 L1456.39 1563.89 L1452.11 1563.89 L1452.11 1537.96 L1456.39 1537.96 L1456.39 1541.99 Q1457.92 1539.65 1459.98 1538.49 Q1462.07 1537.34 1464.77 1537.34 Q1469.24 1537.34 1471.53 1540.11 Q1473.83 1542.87 1473.83 1548.24 Z" fill="#000000" fill-rule="nonzero" fill-opacity="1" /><path clip-path="url(#clip160)" d="M1482.92 1558.01 L1487.81 1558.01 L1487.81 1563.89 L1482.92 1563.89 L1482.92 1558.01 Z" fill="#000000" fill-rule="nonzero" fill-opacity="1" /><path clip-path="url(#clip160)" d="M1529.52 1541.9 L1529.52 1527.87 L1533.78 1527.87 L1533.78 1563.89 L1529.52 1563.89 L1529.52 1560 Q1528.18 1562.31 1526.12 1563.45 Q1524.08 1564.56 1521.21 1564.56 Q1516.51 1564.56 1513.55 1560.81 Q1510.61 1557.06 1510.61 1550.95 Q1510.61 1544.84 1513.55 1541.09 Q1516.51 1537.34 1521.21 1537.34 Q1524.08 1537.34 1526.12 1538.47 Q1528.18 1539.58 1529.52 1541.9 M1515.01 1550.95 Q1515.01 1555.65 1516.93 1558.33 Q1518.87 1560.99 1522.25 1560.99 Q1525.63 1560.99 1527.57 1558.33 Q1529.52 1555.65 1529.52 1550.95 Q1529.52 1546.25 1527.57 1543.59 Q1525.63 1540.9 1522.25 1540.9 Q1518.87 1540.9 1516.93 1543.59 Q1515.01 1546.25 1515.01 1550.95 Z" fill="#000000" fill-rule="nonzero" fill-opacity="1" /><path clip-path="url(#clip160)" d="M1542.55 1537.96 L1546.81 1537.96 L1546.81 1563.89 L1542.55 1563.89 L1542.55 1537.96 M1542.55 1527.87 L1546.81 1527.87 L1546.81 1533.26 L1542.55 1533.26 L1542.55 1527.87 Z" fill="#000000" fill-rule="nonzero" fill-opacity="1" /><path clip-path="url(#clip160)" d="M1568.85 1527.87 L1568.85 1531.41 L1564.77 1531.41 Q1562.48 1531.41 1561.58 1532.34 Q1560.7 1533.26 1560.7 1535.67 L1560.7 1537.96 L1567.71 1537.96 L1567.71 1541.27 L1560.7 1541.27 L1560.7 1563.89 L1556.42 1563.89 L1556.42 1541.27 L1552.34 1541.27 L1552.34 1537.96 L1556.42 1537.96 L1556.42 1536.16 Q1556.42 1531.83 1558.43 1529.86 Q1560.44 1527.87 1564.82 1527.87 L1568.85 1527.87 Z" fill="#000000" fill-rule="nonzero" fill-opacity="1" /><path clip-path="url(#clip160)" d="M1585.54 1527.87 L1585.54 1531.41 L1581.46 1531.41 Q1579.17 1531.41 1578.27 1532.34 Q1577.39 1533.26 1577.39 1535.67 L1577.39 1537.96 L1584.4 1537.96 L1584.4 1541.27 L1577.39 1541.27 L1577.39 1563.89 L1573.11 1563.89 L1573.11 1541.27 L1569.03 1541.27 L1569.03 1537.96 L1573.11 1537.96 L1573.11 1536.16 Q1573.11 1531.83 1575.12 1529.86 Q1577.13 1527.87 1581.51 1527.87 L1585.54 1527.87 Z" fill="#000000" fill-rule="nonzero" fill-opacity="1" /><path clip-path="url(#clip160)" d="M1586.25 1558.01 L1591.14 1558.01 L1591.14 1563.89 L1586.25 1563.89 L1586.25 1558.01 Z" fill="#000000" fill-rule="nonzero" fill-opacity="1" /><path clip-path="url(#clip160)" d="M1600.05 1527.92 L1603.75 1527.92 Q1607.23 1533.38 1608.94 1538.61 Q1610.68 1543.84 1610.68 1549 Q1610.68 1554.19 1608.94 1559.44 Q1607.23 1564.7 1603.75 1570.14 L1600.05 1570.14 Q1603.13 1564.84 1604.63 1559.61 Q1606.16 1554.35 1606.16 1549 Q1606.16 1543.66 1604.63 1538.45 Q1603.13 1533.24 1600.05 1527.92 Z" fill="#000000" fill-rule="nonzero" fill-opacity="1" /><path clip-path="url(#clip160)" d="M1895.63 1529.33 L1901.93 1529.33 L1917.26 1558.24 L1917.26 1529.33 L1921.79 1529.33 L1921.79 1563.89 L1915.5 1563.89 L1900.17 1534.98 L1900.17 1563.89 L1895.63 1563.89 L1895.63 1529.33 Z" fill="#000000" fill-rule="nonzero" fill-opacity="1" /><path clip-path="url(#clip160)" d="M1930.47 1553.66 L1930.47 1537.96 L1934.73 1537.96 L1934.73 1553.49 Q1934.73 1557.17 1936.17 1559.03 Q1937.6 1560.86 1940.47 1560.86 Q1943.92 1560.86 1945.91 1558.66 Q1947.93 1556.46 1947.93 1552.66 L1947.93 1537.96 L1952.19 1537.96 L1952.19 1563.89 L1947.93 1563.89 L1947.93 1559.91 Q1946.38 1562.27 1944.32 1563.42 Q1942.28 1564.56 1939.57 1564.56 Q1935.1 1564.56 1932.79 1561.78 Q1930.47 1559 1930.47 1553.66 M1941.19 1537.34 L1941.19 1537.34 Z" fill="#000000" fill-rule="nonzero" fill-opacity="1" /><path clip-path="url(#clip160)" d="M1981.14 1542.94 Q1982.74 1540.07 1984.96 1538.7 Q1987.19 1537.34 1990.19 1537.34 Q1994.25 1537.34 1996.44 1540.18 Q1998.64 1543.01 1998.64 1548.24 L1998.64 1563.89 L1994.36 1563.89 L1994.36 1548.38 Q1994.36 1544.65 1993.04 1542.85 Q1991.72 1541.04 1989.01 1541.04 Q1985.7 1541.04 1983.78 1543.24 Q1981.86 1545.44 1981.86 1549.24 L1981.86 1563.89 L1977.58 1563.89 L1977.58 1548.38 Q1977.58 1544.63 1976.26 1542.85 Q1974.94 1541.04 1972.19 1541.04 Q1968.92 1541.04 1967 1543.26 Q1965.08 1545.46 1965.08 1549.24 L1965.08 1563.89 L1960.8 1563.89 L1960.8 1537.96 L1965.08 1537.96 L1965.08 1541.99 Q1966.54 1539.61 1968.57 1538.47 Q1970.61 1537.34 1973.41 1537.34 Q1976.24 1537.34 1978.2 1538.77 Q1980.19 1540.21 1981.14 1542.94 Z" fill="#000000" fill-rule="nonzero" fill-opacity="1" /><path clip-path="url(#clip160)" d="M2029.31 1549.86 L2029.31 1551.94 L2009.73 1551.94 Q2010.01 1556.34 2012.37 1558.66 Q2014.75 1560.95 2018.99 1560.95 Q2021.44 1560.95 2023.74 1560.35 Q2026.05 1559.74 2028.32 1558.54 L2028.32 1562.57 Q2026.03 1563.54 2023.62 1564.05 Q2021.21 1564.56 2018.74 1564.56 Q2012.53 1564.56 2008.9 1560.95 Q2005.29 1557.34 2005.29 1551.18 Q2005.29 1544.81 2008.71 1541.09 Q2012.16 1537.34 2018 1537.34 Q2023.23 1537.34 2026.26 1540.72 Q2029.31 1544.07 2029.31 1549.86 M2025.06 1548.61 Q2025.01 1545.11 2023.09 1543.03 Q2021.19 1540.95 2018.04 1540.95 Q2014.48 1540.95 2012.32 1542.96 Q2010.19 1544.98 2009.87 1548.63 L2025.06 1548.61 Z" fill="#000000" fill-rule="nonzero" fill-opacity="1" /><path clip-path="url(#clip160)" d="M2051.33 1541.94 Q2050.61 1541.53 2049.75 1541.34 Q2048.92 1541.13 2047.9 1541.13 Q2044.29 1541.13 2042.35 1543.49 Q2040.43 1545.83 2040.43 1550.23 L2040.43 1563.89 L2036.14 1563.89 L2036.14 1537.96 L2040.43 1537.96 L2040.43 1541.99 Q2041.77 1539.63 2043.92 1538.49 Q2046.07 1537.34 2049.15 1537.34 Q2049.59 1537.34 2050.12 1537.41 Q2050.66 1537.45 2051.31 1537.57 L2051.33 1541.94 Z" fill="#000000" fill-rule="nonzero" fill-opacity="1" /><path clip-path="url(#clip160)" d="M2055.8 1537.96 L2060.06 1537.96 L2060.06 1563.89 L2055.8 1563.89 L2055.8 1537.96 M2055.8 1527.87 L2060.06 1527.87 L2060.06 1533.26 L2055.8 1533.26 L2055.8 1527.87 Z" fill="#000000" fill-rule="nonzero" fill-opacity="1" /><path clip-path="url(#clip160)" d="M2087.62 1538.96 L2087.62 1542.94 Q2085.82 1541.94 2083.99 1541.46 Q2082.18 1540.95 2080.33 1540.95 Q2076.19 1540.95 2073.9 1543.59 Q2071.61 1546.2 2071.61 1550.95 Q2071.61 1555.69 2073.9 1558.33 Q2076.19 1560.95 2080.33 1560.95 Q2082.18 1560.95 2083.99 1560.46 Q2085.82 1559.95 2087.62 1558.96 L2087.62 1562.89 Q2085.84 1563.73 2083.92 1564.14 Q2082.02 1564.56 2079.87 1564.56 Q2074.01 1564.56 2070.56 1560.88 Q2067.12 1557.2 2067.12 1550.95 Q2067.12 1544.61 2070.59 1540.97 Q2074.08 1537.34 2080.15 1537.34 Q2082.12 1537.34 2083.99 1537.75 Q2085.87 1538.15 2087.62 1538.96 Z" fill="#000000" fill-rule="nonzero" fill-opacity="1" /><path clip-path="url(#clip160)" d="M2106.81 1550.86 Q2101.65 1550.86 2099.66 1552.04 Q2097.67 1553.22 2097.67 1556.06 Q2097.67 1558.33 2099.15 1559.67 Q2100.66 1560.99 2103.23 1560.99 Q2106.77 1560.99 2108.9 1558.49 Q2111.05 1555.97 2111.05 1551.8 L2111.05 1550.86 L2106.81 1550.86 M2115.31 1549.1 L2115.31 1563.89 L2111.05 1563.89 L2111.05 1559.95 Q2109.59 1562.31 2107.42 1563.45 Q2105.24 1564.56 2102.09 1564.56 Q2098.11 1564.56 2095.75 1562.34 Q2093.41 1560.09 2093.41 1556.34 Q2093.41 1551.97 2096.33 1549.74 Q2099.27 1547.52 2105.08 1547.52 L2111.05 1547.52 L2111.05 1547.11 Q2111.05 1544.17 2109.11 1542.57 Q2107.18 1540.95 2103.69 1540.95 Q2101.47 1540.95 2099.36 1541.48 Q2097.25 1542.01 2095.31 1543.08 L2095.31 1539.14 Q2097.65 1538.24 2099.85 1537.8 Q2102.05 1537.34 2104.13 1537.34 Q2109.75 1537.34 2112.53 1540.25 Q2115.31 1543.17 2115.31 1549.1 Z" fill="#000000" fill-rule="nonzero" fill-opacity="1" /><path clip-path="url(#clip160)" d="M2124.08 1527.87 L2128.34 1527.87 L2128.34 1563.89 L2124.08 1563.89 L2124.08 1527.87 Z" fill="#000000" fill-rule="nonzero" fill-opacity="1" /><path clip-path="url(#clip160)" d="M2162.55 1527.92 Q2159.45 1533.24 2157.95 1538.45 Q2156.44 1543.66 2156.44 1549 Q2156.44 1554.35 2157.95 1559.61 Q2159.48 1564.84 2162.55 1570.14 L2158.85 1570.14 Q2155.38 1564.7 2153.64 1559.44 Q2151.93 1554.19 2151.93 1549 Q2151.93 1543.84 2153.64 1538.61 Q2155.36 1533.38 2158.85 1527.92 L2162.55 1527.92 Z" fill="#000000" fill-rule="nonzero" fill-opacity="1" /><path clip-path="url(#clip160)" d="M2183.94 1527.87 L2183.94 1531.41 L2179.87 1531.41 Q2177.58 1531.41 2176.67 1532.34 Q2175.8 1533.26 2175.8 1535.67 L2175.8 1537.96 L2182.81 1537.96 L2182.81 1541.27 L2175.8 1541.27 L2175.8 1563.89 L2171.51 1563.89 L2171.51 1541.27 L2167.44 1541.27 L2167.44 1537.96 L2171.51 1537.96 L2171.51 1536.16 Q2171.51 1531.83 2173.53 1529.86 Q2175.54 1527.87 2179.92 1527.87 L2183.94 1527.87 Z" fill="#000000" fill-rule="nonzero" fill-opacity="1" /><path clip-path="url(#clip160)" d="M2187.51 1537.96 L2191.77 1537.96 L2191.77 1563.89 L2187.51 1563.89 L2187.51 1537.96 M2187.51 1527.87 L2191.77 1527.87 L2191.77 1533.26 L2187.51 1533.26 L2187.51 1527.87 Z" fill="#000000" fill-rule="nonzero" fill-opacity="1" /><path clip-path="url(#clip160)" d="M2222.23 1548.24 L2222.23 1563.89 L2217.97 1563.89 L2217.97 1548.38 Q2217.97 1544.7 2216.54 1542.87 Q2215.1 1541.04 2212.23 1541.04 Q2208.78 1541.04 2206.79 1543.24 Q2204.8 1545.44 2204.8 1549.24 L2204.8 1563.89 L2200.52 1563.89 L2200.52 1537.96 L2204.8 1537.96 L2204.8 1541.99 Q2206.33 1539.65 2208.39 1538.49 Q2210.47 1537.34 2213.18 1537.34 Q2217.65 1537.34 2219.94 1540.11 Q2222.23 1542.87 2222.23 1548.24 Z" fill="#000000" fill-rule="nonzero" fill-opacity="1" /><path clip-path="url(#clip160)" d="M2231.33 1558.01 L2236.21 1558.01 L2236.21 1563.89 L2231.33 1563.89 L2231.33 1558.01 Z" fill="#000000" fill-rule="nonzero" fill-opacity="1" /><path clip-path="url(#clip160)" d="M2277.92 1541.9 L2277.92 1527.87 L2282.18 1527.87 L2282.18 1563.89 L2277.92 1563.89 L2277.92 1560 Q2276.58 1562.31 2274.52 1563.45 Q2272.48 1564.56 2269.61 1564.56 Q2264.92 1564.56 2261.95 1560.81 Q2259.01 1557.06 2259.01 1550.95 Q2259.01 1544.84 2261.95 1541.09 Q2264.92 1537.34 2269.61 1537.34 Q2272.48 1537.34 2274.52 1538.47 Q2276.58 1539.58 2277.92 1541.9 M2263.41 1550.95 Q2263.41 1555.65 2265.33 1558.33 Q2267.28 1560.99 2270.66 1560.99 Q2274.04 1560.99 2275.98 1558.33 Q2277.92 1555.65 2277.92 1550.95 Q2277.92 1546.25 2275.98 1543.59 Q2274.04 1540.9 2270.66 1540.9 Q2267.28 1540.9 2265.33 1543.59 Q2263.41 1546.25 2263.41 1550.95 Z" fill="#000000" fill-rule="nonzero" fill-opacity="1" /><path clip-path="url(#clip160)" d="M2290.96 1537.96 L2295.22 1537.96 L2295.22 1563.89 L2290.96 1563.89 L2290.96 1537.96 M2290.96 1527.87 L2295.22 1527.87 L2295.22 1533.26 L2290.96 1533.26 L2290.96 1527.87 Z" fill="#000000" fill-rule="nonzero" fill-opacity="1" /><path clip-path="url(#clip160)" d="M2317.25 1527.87 L2317.25 1531.41 L2313.18 1531.41 Q2310.89 1531.41 2309.98 1532.34 Q2309.1 1533.26 2309.1 1535.67 L2309.1 1537.96 L2316.12 1537.96 L2316.12 1541.27 L2309.1 1541.27 L2309.1 1563.89 L2304.82 1563.89 L2304.82 1541.27 L2300.75 1541.27 L2300.75 1537.96 L2304.82 1537.96 L2304.82 1536.16 Q2304.82 1531.83 2306.84 1529.86 Q2308.85 1527.87 2313.23 1527.87 L2317.25 1527.87 Z" fill="#000000" fill-rule="nonzero" fill-opacity="1" /><path clip-path="url(#clip160)" d="M2333.94 1527.87 L2333.94 1531.41 L2329.87 1531.41 Q2327.58 1531.41 2326.67 1532.34 Q2325.79 1533.26 2325.79 1535.67 L2325.79 1537.96 L2332.81 1537.96 L2332.81 1541.27 L2325.79 1541.27 L2325.79 1563.89 L2321.51 1563.89 L2321.51 1541.27 L2317.44 1541.27 L2317.44 1537.96 L2321.51 1537.96 L2321.51 1536.16 Q2321.51 1531.83 2323.53 1529.86 Q2325.54 1527.87 2329.91 1527.87 L2333.94 1527.87 Z" fill="#000000" fill-rule="nonzero" fill-opacity="1" /><path clip-path="url(#clip160)" d="M2334.66 1558.01 L2339.54 1558.01 L2339.54 1563.89 L2334.66 1563.89 L2334.66 1558.01 Z" fill="#000000" fill-rule="nonzero" fill-opacity="1" /><path clip-path="url(#clip160)" d="M2348.46 1527.92 L2352.16 1527.92 Q2355.63 1533.38 2357.35 1538.61 Q2359.08 1543.84 2359.08 1549 Q2359.08 1554.19 2357.35 1559.44 Q2355.63 1564.7 2352.16 1570.14 L2348.46 1570.14 Q2351.54 1564.84 2353.04 1559.61 Q2354.57 1554.35 2354.57 1549 Q2354.57 1543.66 2353.04 1538.45 Q2351.54 1533.24 2348.46 1527.92 Z" fill="#000000" fill-rule="nonzero" fill-opacity="1" /><path clip-path="url(#clip160)" d="M2608.84 1529.33 L2615.14 1529.33 L2630.46 1558.24 L2630.46 1529.33 L2635 1529.33 L2635 1563.89 L2628.7 1563.89 L2613.38 1534.98 L2613.38 1563.89 L2608.84 1563.89 L2608.84 1529.33 Z" fill="#000000" fill-rule="nonzero" fill-opacity="1" /><path clip-path="url(#clip160)" d="M2643.68 1553.66 L2643.68 1537.96 L2647.94 1537.96 L2647.94 1553.49 Q2647.94 1557.17 2649.38 1559.03 Q2650.81 1560.86 2653.68 1560.86 Q2657.13 1560.86 2659.12 1558.66 Q2661.13 1556.46 2661.13 1552.66 L2661.13 1537.96 L2665.39 1537.96 L2665.39 1563.89 L2661.13 1563.89 L2661.13 1559.91 Q2659.58 1562.27 2657.52 1563.42 Q2655.49 1564.56 2652.78 1564.56 Q2648.31 1564.56 2646 1561.78 Q2643.68 1559 2643.68 1553.66 M2654.4 1537.34 L2654.4 1537.34 Z" fill="#000000" fill-rule="nonzero" fill-opacity="1" /><path clip-path="url(#clip160)" d="M2694.35 1542.94 Q2695.95 1540.07 2698.17 1538.7 Q2700.39 1537.34 2703.4 1537.34 Q2707.45 1537.34 2709.65 1540.18 Q2711.85 1543.01 2711.85 1548.24 L2711.85 1563.89 L2707.57 1563.89 L2707.57 1548.38 Q2707.57 1544.65 2706.25 1542.85 Q2704.93 1541.04 2702.22 1541.04 Q2698.91 1541.04 2696.99 1543.24 Q2695.07 1545.44 2695.07 1549.24 L2695.07 1563.89 L2690.79 1563.89 L2690.79 1548.38 Q2690.79 1544.63 2689.47 1542.85 Q2688.15 1541.04 2685.39 1541.04 Q2682.13 1541.04 2680.21 1543.26 Q2678.29 1545.46 2678.29 1549.24 L2678.29 1563.89 L2674.01 1563.89 L2674.01 1537.96 L2678.29 1537.96 L2678.29 1541.99 Q2679.75 1539.61 2681.78 1538.47 Q2683.82 1537.34 2686.62 1537.34 Q2689.44 1537.34 2691.41 1538.77 Q2693.4 1540.21 2694.35 1542.94 Z" fill="#000000" fill-rule="nonzero" fill-opacity="1" /><path clip-path="url(#clip160)" d="M2742.52 1549.86 L2742.52 1551.94 L2722.94 1551.94 Q2723.22 1556.34 2725.58 1558.66 Q2727.96 1560.95 2732.2 1560.95 Q2734.65 1560.95 2736.94 1560.35 Q2739.26 1559.74 2741.53 1558.54 L2741.53 1562.57 Q2739.24 1563.54 2736.83 1564.05 Q2734.42 1564.56 2731.94 1564.56 Q2725.74 1564.56 2722.11 1560.95 Q2718.5 1557.34 2718.5 1551.18 Q2718.5 1544.81 2721.92 1541.09 Q2725.37 1537.34 2731.2 1537.34 Q2736.44 1537.34 2739.47 1540.72 Q2742.52 1544.07 2742.52 1549.86 M2738.26 1548.61 Q2738.22 1545.11 2736.3 1543.03 Q2734.4 1540.95 2731.25 1540.95 Q2727.69 1540.95 2725.53 1542.96 Q2723.4 1544.98 2723.08 1548.63 L2738.26 1548.61 Z" fill="#000000" fill-rule="nonzero" fill-opacity="1" /><path clip-path="url(#clip160)" d="M2764.54 1541.94 Q2763.82 1541.53 2762.96 1541.34 Q2762.13 1541.13 2761.11 1541.13 Q2757.5 1541.13 2755.56 1543.49 Q2753.63 1545.83 2753.63 1550.23 L2753.63 1563.89 L2749.35 1563.89 L2749.35 1537.96 L2753.63 1537.96 L2753.63 1541.99 Q2754.98 1539.63 2757.13 1538.49 Q2759.28 1537.34 2762.36 1537.34 Q2762.8 1537.34 2763.33 1537.41 Q2763.87 1537.45 2764.51 1537.57 L2764.54 1541.94 Z" fill="#000000" fill-rule="nonzero" fill-opacity="1" /><path clip-path="url(#clip160)" d="M2769 1537.96 L2773.26 1537.96 L2773.26 1563.89 L2769 1563.89 L2769 1537.96 M2769 1527.87 L2773.26 1527.87 L2773.26 1533.26 L2769 1533.26 L2769 1527.87 Z" fill="#000000" fill-rule="nonzero" fill-opacity="1" /><path clip-path="url(#clip160)" d="M2800.83 1538.96 L2800.83 1542.94 Q2799.03 1541.94 2797.2 1541.46 Q2795.39 1540.95 2793.54 1540.95 Q2789.4 1540.95 2787.11 1543.59 Q2784.81 1546.2 2784.81 1550.95 Q2784.81 1555.69 2787.11 1558.33 Q2789.4 1560.95 2793.54 1560.95 Q2795.39 1560.95 2797.2 1560.46 Q2799.03 1559.95 2800.83 1558.96 L2800.83 1562.89 Q2799.05 1563.73 2797.13 1564.14 Q2795.23 1564.56 2793.08 1564.56 Q2787.22 1564.56 2783.77 1560.88 Q2780.32 1557.2 2780.32 1550.95 Q2780.32 1544.61 2783.8 1540.97 Q2787.29 1537.34 2793.36 1537.34 Q2795.32 1537.34 2797.2 1537.75 Q2799.07 1538.15 2800.83 1538.96 Z" fill="#000000" fill-rule="nonzero" fill-opacity="1" /><path clip-path="url(#clip160)" d="M2820.02 1550.86 Q2814.86 1550.86 2812.87 1552.04 Q2810.88 1553.22 2810.88 1556.06 Q2810.88 1558.33 2812.36 1559.67 Q2813.87 1560.99 2816.43 1560.99 Q2819.98 1560.99 2822.11 1558.49 Q2824.26 1555.97 2824.26 1551.8 L2824.26 1550.86 L2820.02 1550.86 M2828.52 1549.1 L2828.52 1563.89 L2824.26 1563.89 L2824.26 1559.95 Q2822.8 1562.31 2820.62 1563.45 Q2818.45 1564.56 2815.3 1564.56 Q2811.32 1564.56 2808.96 1562.34 Q2806.62 1560.09 2806.62 1556.34 Q2806.62 1551.97 2809.54 1549.74 Q2812.48 1547.52 2818.29 1547.52 L2824.26 1547.52 L2824.26 1547.11 Q2824.26 1544.17 2822.31 1542.57 Q2820.39 1540.95 2816.9 1540.95 Q2814.68 1540.95 2812.57 1541.48 Q2810.46 1542.01 2808.52 1543.08 L2808.52 1539.14 Q2810.86 1538.24 2813.06 1537.8 Q2815.25 1537.34 2817.34 1537.34 Q2822.96 1537.34 2825.74 1540.25 Q2828.52 1543.17 2828.52 1549.1 Z" fill="#000000" fill-rule="nonzero" fill-opacity="1" /><path clip-path="url(#clip160)" d="M2837.29 1527.87 L2841.55 1527.87 L2841.55 1563.89 L2837.29 1563.89 L2837.29 1527.87 Z" fill="#000000" fill-rule="nonzero" fill-opacity="1" /><path clip-path="url(#clip160)" d="M2875.76 1527.92 Q2872.66 1533.24 2871.16 1538.45 Q2869.65 1543.66 2869.65 1549 Q2869.65 1554.35 2871.16 1559.61 Q2872.68 1564.84 2875.76 1570.14 L2872.06 1570.14 Q2868.59 1564.7 2866.85 1559.44 Q2865.14 1554.19 2865.14 1549 Q2865.14 1543.84 2866.85 1538.61 Q2868.56 1533.38 2872.06 1527.92 L2875.76 1527.92 Z" fill="#000000" fill-rule="nonzero" fill-opacity="1" /><path clip-path="url(#clip160)" d="M2895.81 1550.86 Q2890.65 1550.86 2888.66 1552.04 Q2886.67 1553.22 2886.67 1556.06 Q2886.67 1558.33 2888.15 1559.67 Q2889.65 1560.99 2892.22 1560.99 Q2895.76 1560.99 2897.89 1558.49 Q2900.05 1555.97 2900.05 1551.8 L2900.05 1550.86 L2895.81 1550.86 M2904.3 1549.1 L2904.3 1563.89 L2900.05 1563.89 L2900.05 1559.95 Q2898.59 1562.31 2896.41 1563.45 Q2894.24 1564.56 2891.09 1564.56 Q2887.11 1564.56 2884.74 1562.34 Q2882.41 1560.09 2882.41 1556.34 Q2882.41 1551.97 2885.32 1549.74 Q2888.26 1547.52 2894.07 1547.52 L2900.05 1547.52 L2900.05 1547.11 Q2900.05 1544.17 2898.1 1542.57 Q2896.18 1540.95 2892.68 1540.95 Q2890.46 1540.95 2888.36 1541.48 Q2886.25 1542.01 2884.3 1543.08 L2884.3 1539.14 Q2886.64 1538.24 2888.84 1537.8 Q2891.04 1537.34 2893.12 1537.34 Q2898.75 1537.34 2901.53 1540.25 Q2904.3 1543.17 2904.3 1549.1 Z" fill="#000000" fill-rule="nonzero" fill-opacity="1" /><path clip-path="url(#clip160)" d="M2912.64 1553.66 L2912.64 1537.96 L2916.9 1537.96 L2916.9 1553.49 Q2916.9 1557.17 2918.33 1559.03 Q2919.77 1560.86 2922.64 1560.86 Q2926.09 1560.86 2928.08 1558.66 Q2930.09 1556.46 2930.09 1552.66 L2930.09 1537.96 L2934.35 1537.96 L2934.35 1563.89 L2930.09 1563.89 L2930.09 1559.91 Q2928.54 1562.27 2926.48 1563.42 Q2924.44 1564.56 2921.74 1564.56 Q2917.27 1564.56 2914.95 1561.78 Q2912.64 1559 2912.64 1553.66 M2923.36 1537.34 L2923.36 1537.34 Z" fill="#000000" fill-rule="nonzero" fill-opacity="1" /><path clip-path="url(#clip160)" d="M2947.34 1530.6 L2947.34 1537.96 L2956.11 1537.96 L2956.11 1541.27 L2947.34 1541.27 L2947.34 1555.35 Q2947.34 1558.52 2948.19 1559.42 Q2949.07 1560.32 2951.74 1560.32 L2956.11 1560.32 L2956.11 1563.89 L2951.74 1563.89 Q2946.8 1563.89 2944.93 1562.06 Q2943.05 1560.21 2943.05 1555.35 L2943.05 1541.27 L2939.93 1541.27 L2939.93 1537.96 L2943.05 1537.96 L2943.05 1530.6 L2947.34 1530.6 Z" fill="#000000" fill-rule="nonzero" fill-opacity="1" /><path clip-path="url(#clip160)" d="M2971.76 1540.95 Q2968.33 1540.95 2966.34 1543.63 Q2964.35 1546.3 2964.35 1550.95 Q2964.35 1555.6 2966.32 1558.29 Q2968.31 1560.95 2971.76 1560.95 Q2975.16 1560.95 2977.15 1558.26 Q2979.14 1555.58 2979.14 1550.95 Q2979.14 1546.34 2977.15 1543.66 Q2975.16 1540.95 2971.76 1540.95 M2971.76 1537.34 Q2977.31 1537.34 2980.48 1540.95 Q2983.66 1544.56 2983.66 1550.95 Q2983.66 1557.31 2980.48 1560.95 Q2977.31 1564.56 2971.76 1564.56 Q2966.18 1564.56 2963.01 1560.95 Q2959.86 1557.31 2959.86 1550.95 Q2959.86 1544.56 2963.01 1540.95 Q2966.18 1537.34 2971.76 1537.34 Z" fill="#000000" fill-rule="nonzero" fill-opacity="1" /><path clip-path="url(#clip160)" d="M2990.48 1558.01 L2995.37 1558.01 L2995.37 1563.89 L2990.48 1563.89 L2990.48 1558.01 Z" fill="#000000" fill-rule="nonzero" fill-opacity="1" /><path clip-path="url(#clip160)" d="M3037.08 1541.9 L3037.08 1527.87 L3041.34 1527.87 L3041.34 1563.89 L3037.08 1563.89 L3037.08 1560 Q3035.74 1562.31 3033.68 1563.45 Q3031.64 1564.56 3028.77 1564.56 Q3024.07 1564.56 3021.11 1560.81 Q3018.17 1557.06 3018.17 1550.95 Q3018.17 1544.84 3021.11 1541.09 Q3024.07 1537.34 3028.77 1537.34 Q3031.64 1537.34 3033.68 1538.47 Q3035.74 1539.58 3037.08 1541.9 M3022.57 1550.95 Q3022.57 1555.65 3024.49 1558.33 Q3026.43 1560.99 3029.81 1560.99 Q3033.19 1560.99 3035.14 1558.33 Q3037.08 1555.65 3037.08 1550.95 Q3037.08 1546.25 3035.14 1543.59 Q3033.19 1540.9 3029.81 1540.9 Q3026.43 1540.9 3024.49 1543.59 Q3022.57 1546.25 3022.57 1550.95 Z" fill="#000000" fill-rule="nonzero" fill-opacity="1" /><path clip-path="url(#clip160)" d="M3050.11 1537.96 L3054.37 1537.96 L3054.37 1563.89 L3050.11 1563.89 L3050.11 1537.96 M3050.11 1527.87 L3054.37 1527.87 L3054.37 1533.26 L3050.11 1533.26 L3050.11 1527.87 Z" fill="#000000" fill-rule="nonzero" fill-opacity="1" /><path clip-path="url(#clip160)" d="M3076.41 1527.87 L3076.41 1531.41 L3072.34 1531.41 Q3070.04 1531.41 3069.14 1532.34 Q3068.26 1533.26 3068.26 1535.67 L3068.26 1537.96 L3075.28 1537.96 L3075.28 1541.27 L3068.26 1541.27 L3068.26 1563.89 L3063.98 1563.89 L3063.98 1541.27 L3059.91 1541.27 L3059.91 1537.96 L3063.98 1537.96 L3063.98 1536.16 Q3063.98 1531.83 3065.99 1529.86 Q3068.01 1527.87 3072.38 1527.87 L3076.41 1527.87 Z" fill="#000000" fill-rule="nonzero" fill-opacity="1" /><path clip-path="url(#clip160)" d="M3093.1 1527.87 L3093.1 1531.41 L3089.03 1531.41 Q3086.73 1531.41 3085.83 1532.34 Q3084.95 1533.26 3084.95 1535.67 L3084.95 1537.96 L3091.97 1537.96 L3091.97 1541.27 L3084.95 1541.27 L3084.95 1563.89 L3080.67 1563.89 L3080.67 1541.27 L3076.6 1541.27 L3076.6 1537.96 L3080.67 1537.96 L3080.67 1536.16 Q3080.67 1531.83 3082.68 1529.86 Q3084.7 1527.87 3089.07 1527.87 L3093.1 1527.87 Z" fill="#000000" fill-rule="nonzero" fill-opacity="1" /><path clip-path="url(#clip160)" d="M3093.82 1558.01 L3098.7 1558.01 L3098.7 1563.89 L3093.82 1563.89 L3093.82 1558.01 Z" fill="#000000" fill-rule="nonzero" fill-opacity="1" /><path clip-path="url(#clip160)" d="M3107.61 1527.92 L3111.32 1527.92 Q3114.79 1533.38 3116.5 1538.61 Q3118.24 1543.84 3118.24 1549 Q3118.24 1554.19 3116.5 1559.44 Q3114.79 1564.7 3111.32 1570.14 L3107.61 1570.14 Q3110.69 1564.84 3112.2 1559.61 Q3113.72 1554.35 3113.72 1549 Q3113.72 1543.66 3112.2 1538.45 Q3110.69 1533.24 3107.61 1527.92 Z" fill="#000000" fill-rule="nonzero" fill-opacity="1" /><polyline clip-path="url(#clip160)" style="stroke:#000000; stroke-linecap:round; stroke-linejoin:round; stroke-width:4; stroke-opacity:1; fill:none" points="365.777,1495.09 365.777,47.2441 "/>
<polyline clip-path="url(#clip160)" style="stroke:#000000; stroke-linecap:round; stroke-linejoin:round; stroke-width:4; stroke-opacity:1; fill:none" points="365.777,1416.4 384.675,1416.4 "/>
<polyline clip-path="url(#clip160)" style="stroke:#000000; stroke-linecap:round; stroke-linejoin:round; stroke-width:4; stroke-opacity:1; fill:none" points="365.777,1120.67 384.675,1120.67 "/>
<polyline clip-path="url(#clip160)" style="stroke:#000000; stroke-linecap:round; stroke-linejoin:round; stroke-width:4; stroke-opacity:1; fill:none" points="365.777,824.929 384.675,824.929 "/>
<polyline clip-path="url(#clip160)" style="stroke:#000000; stroke-linecap:round; stroke-linejoin:round; stroke-width:4; stroke-opacity:1; fill:none" points="365.777,529.192 384.675,529.192 "/>
<polyline clip-path="url(#clip160)" style="stroke:#000000; stroke-linecap:round; stroke-linejoin:round; stroke-width:4; stroke-opacity:1; fill:none" points="365.777,233.455 384.675,233.455 "/>
<path clip-path="url(#clip160)" d="M105.163 1436.19 L121.482 1436.19 L121.482 1440.13 L99.5376 1440.13 L99.5376 1436.19 Q102.2 1433.44 106.783 1428.81 Q111.389 1424.16 112.57 1422.82 Q114.815 1420.29 115.695 1418.56 Q116.598 1416.8 116.598 1415.11 Q116.598 1412.35 114.653 1410.62 Q112.732 1408.88 109.63 1408.88 Q107.431 1408.88 104.977 1409.64 Q102.547 1410.41 99.769 1411.96 L99.769 1407.24 Q102.593 1406.1 105.047 1405.52 Q107.5 1404.94 109.538 1404.94 Q114.908 1404.94 118.102 1407.63 Q121.297 1410.32 121.297 1414.81 Q121.297 1416.94 120.487 1418.86 Q119.699 1420.76 117.593 1423.35 Q117.014 1424.02 113.912 1427.24 Q110.811 1430.43 105.163 1436.19 Z" fill="#000000" fill-rule="nonzero" fill-opacity="1" /><path clip-path="url(#clip160)" d="M131.297 1434.25 L136.181 1434.25 L136.181 1440.13 L131.297 1440.13 L131.297 1434.25 Z" fill="#000000" fill-rule="nonzero" fill-opacity="1" /><path clip-path="url(#clip160)" d="M146.412 1405.57 L164.769 1405.57 L164.769 1409.51 L150.695 1409.51 L150.695 1417.98 Q151.713 1417.63 152.732 1417.47 Q153.75 1417.28 154.769 1417.28 Q160.556 1417.28 163.935 1420.45 Q167.315 1423.63 167.315 1429.04 Q167.315 1434.62 163.843 1437.72 Q160.371 1440.8 154.051 1440.8 Q151.875 1440.8 149.607 1440.43 Q147.361 1440.06 144.954 1439.32 L144.954 1434.62 Q147.037 1435.75 149.26 1436.31 Q151.482 1436.87 153.959 1436.87 Q157.963 1436.87 160.301 1434.76 Q162.639 1432.65 162.639 1429.04 Q162.639 1425.43 160.301 1423.32 Q157.963 1421.22 153.959 1421.22 Q152.084 1421.22 150.209 1421.63 Q148.357 1422.05 146.412 1422.93 L146.412 1405.57 Z" fill="#000000" fill-rule="nonzero" fill-opacity="1" /><path clip-path="url(#clip160)" d="M186.528 1408.65 Q182.917 1408.65 181.088 1412.21 Q179.283 1415.76 179.283 1422.88 Q179.283 1429.99 181.088 1433.56 Q182.917 1437.1 186.528 1437.1 Q190.162 1437.1 191.968 1433.56 Q193.796 1429.99 193.796 1422.88 Q193.796 1415.76 191.968 1412.21 Q190.162 1408.65 186.528 1408.65 M186.528 1404.94 Q192.338 1404.94 195.394 1409.55 Q198.472 1414.13 198.472 1422.88 Q198.472 1431.61 195.394 1436.22 Q192.338 1440.8 186.528 1440.8 Q180.718 1440.8 177.639 1436.22 Q174.583 1431.61 174.583 1422.88 Q174.583 1414.13 177.639 1409.55 Q180.718 1404.94 186.528 1404.94 Z" fill="#000000" fill-rule="nonzero" fill-opacity="1" /><path clip-path="url(#clip160)" d="M234.861 1414.67 L224.282 1425.29 L234.861 1435.87 L232.106 1438.67 L221.481 1428.05 L210.856 1438.67 L208.125 1435.87 L218.68 1425.29 L208.125 1414.67 L210.856 1411.87 L221.481 1422.49 L232.106 1411.87 L234.861 1414.67 Z" fill="#000000" fill-rule="nonzero" fill-opacity="1" /><path clip-path="url(#clip160)" d="M247.222 1436.19 L254.861 1436.19 L254.861 1409.83 L246.551 1411.5 L246.551 1407.24 L254.815 1405.57 L259.49 1405.57 L259.49 1436.19 L267.129 1436.19 L267.129 1440.13 L247.222 1440.13 L247.222 1436.19 Z" fill="#000000" fill-rule="nonzero" fill-opacity="1" /><path clip-path="url(#clip160)" d="M286.574 1408.65 Q282.963 1408.65 281.134 1412.21 Q279.328 1415.76 279.328 1422.88 Q279.328 1429.99 281.134 1433.56 Q282.963 1437.1 286.574 1437.1 Q290.208 1437.1 292.013 1433.56 Q293.842 1429.99 293.842 1422.88 Q293.842 1415.76 292.013 1412.21 Q290.208 1408.65 286.574 1408.65 M286.574 1404.94 Q292.384 1404.94 295.439 1409.55 Q298.518 1414.13 298.518 1422.88 Q298.518 1431.61 295.439 1436.22 Q292.384 1440.8 286.574 1440.8 Q280.763 1440.8 277.685 1436.22 Q274.629 1431.61 274.629 1422.88 Q274.629 1414.13 277.685 1409.55 Q280.763 1404.94 286.574 1404.94 Z" fill="#000000" fill-rule="nonzero" fill-opacity="1" /><path clip-path="url(#clip160)" d="M308.148 1399.38 Q305.439 1399.38 303.878 1400.83 Q302.336 1402.28 302.336 1404.82 Q302.336 1407.36 303.878 1408.81 Q305.439 1410.26 308.148 1410.26 Q310.856 1410.26 312.417 1408.81 Q313.978 1407.34 313.978 1404.82 Q313.978 1402.28 312.417 1400.83 Q310.875 1399.38 308.148 1399.38 M304.348 1397.77 Q301.903 1397.17 300.53 1395.49 Q299.176 1393.82 299.176 1391.41 Q299.176 1388.04 301.565 1386.09 Q303.972 1384.13 308.148 1384.13 Q312.342 1384.13 314.73 1386.09 Q317.119 1388.04 317.119 1391.41 Q317.119 1393.82 315.746 1395.49 Q314.392 1397.17 311.966 1397.77 Q314.711 1398.41 316.235 1400.27 Q317.777 1402.13 317.777 1404.82 Q317.777 1408.9 315.276 1411.08 Q312.793 1413.26 308.148 1413.26 Q303.502 1413.26 301.001 1411.08 Q298.518 1408.9 298.518 1404.82 Q298.518 1402.13 300.06 1400.27 Q301.602 1398.41 304.348 1397.77 M302.957 1391.77 Q302.957 1393.95 304.311 1395.17 Q305.684 1396.39 308.148 1396.39 Q310.593 1396.39 311.966 1395.17 Q313.357 1393.95 313.357 1391.77 Q313.357 1389.59 311.966 1388.36 Q310.593 1387.14 308.148 1387.14 Q305.684 1387.14 304.311 1388.36 Q302.957 1389.59 302.957 1391.77 Z" fill="#000000" fill-rule="nonzero" fill-opacity="1" /><path clip-path="url(#clip160)" d="M115.301 1125.76 Q118.658 1126.48 120.533 1128.74 Q122.431 1131.01 122.431 1134.35 Q122.431 1139.46 118.912 1142.26 Q115.394 1145.06 108.913 1145.06 Q106.737 1145.06 104.422 1144.62 Q102.13 1144.21 99.6764 1143.35 L99.6764 1138.84 Q101.621 1139.97 103.936 1140.55 Q106.25 1141.13 108.774 1141.13 Q113.172 1141.13 115.463 1139.39 Q117.778 1137.66 117.778 1134.35 Q117.778 1131.29 115.625 1129.58 Q113.496 1127.84 109.676 1127.84 L105.649 1127.84 L105.649 1124 L109.862 1124 Q113.311 1124 115.139 1122.63 Q116.968 1121.25 116.968 1118.65 Q116.968 1115.99 115.07 1114.58 Q113.195 1113.14 109.676 1113.14 Q107.755 1113.14 105.556 1113.56 Q103.357 1113.98 100.718 1114.86 L100.718 1110.69 Q103.38 1109.95 105.695 1109.58 Q108.033 1109.21 110.093 1109.21 Q115.417 1109.21 118.519 1111.64 Q121.621 1114.05 121.621 1118.17 Q121.621 1121.04 119.977 1123.03 Q118.334 1124.99 115.301 1125.76 Z" fill="#000000" fill-rule="nonzero" fill-opacity="1" /><path clip-path="url(#clip160)" d="M131.297 1138.51 L136.181 1138.51 L136.181 1144.39 L131.297 1144.39 L131.297 1138.51 Z" fill="#000000" fill-rule="nonzero" fill-opacity="1" /><path clip-path="url(#clip160)" d="M156.366 1112.91 Q152.755 1112.91 150.926 1116.48 Q149.121 1120.02 149.121 1127.15 Q149.121 1134.25 150.926 1137.82 Q152.755 1141.36 156.366 1141.36 Q160 1141.36 161.806 1137.82 Q163.634 1134.25 163.634 1127.15 Q163.634 1120.02 161.806 1116.48 Q160 1112.91 156.366 1112.91 M156.366 1109.21 Q162.176 1109.21 165.232 1113.81 Q168.31 1118.4 168.31 1127.15 Q168.31 1135.87 165.232 1140.48 Q162.176 1145.06 156.366 1145.06 Q150.556 1145.06 147.477 1140.48 Q144.422 1135.87 144.422 1127.15 Q144.422 1118.4 147.477 1113.81 Q150.556 1109.21 156.366 1109.21 Z" fill="#000000" fill-rule="nonzero" fill-opacity="1" /><path clip-path="url(#clip160)" d="M186.528 1112.91 Q182.917 1112.91 181.088 1116.48 Q179.283 1120.02 179.283 1127.15 Q179.283 1134.25 181.088 1137.82 Q182.917 1141.36 186.528 1141.36 Q190.162 1141.36 191.968 1137.82 Q193.796 1134.25 193.796 1127.15 Q193.796 1120.02 191.968 1116.48 Q190.162 1112.91 186.528 1112.91 M186.528 1109.21 Q192.338 1109.21 195.394 1113.81 Q198.472 1118.4 198.472 1127.15 Q198.472 1135.87 195.394 1140.48 Q192.338 1145.06 186.528 1145.06 Q180.718 1145.06 177.639 1140.48 Q174.583 1135.87 174.583 1127.15 Q174.583 1118.4 177.639 1113.81 Q180.718 1109.21 186.528 1109.21 Z" fill="#000000" fill-rule="nonzero" fill-opacity="1" /><path clip-path="url(#clip160)" d="M234.861 1118.93 L224.282 1129.56 L234.861 1140.13 L232.106 1142.93 L221.481 1132.31 L210.856 1142.93 L208.125 1140.13 L218.68 1129.56 L208.125 1118.93 L210.856 1116.13 L221.481 1126.75 L232.106 1116.13 L234.861 1118.93 Z" fill="#000000" fill-rule="nonzero" fill-opacity="1" /><path clip-path="url(#clip160)" d="M247.222 1140.46 L254.861 1140.46 L254.861 1114.09 L246.551 1115.76 L246.551 1111.5 L254.815 1109.83 L259.49 1109.83 L259.49 1140.46 L267.129 1140.46 L267.129 1144.39 L247.222 1144.39 L247.222 1140.46 Z" fill="#000000" fill-rule="nonzero" fill-opacity="1" /><path clip-path="url(#clip160)" d="M286.574 1112.91 Q282.963 1112.91 281.134 1116.48 Q279.328 1120.02 279.328 1127.15 Q279.328 1134.25 281.134 1137.82 Q282.963 1141.36 286.574 1141.36 Q290.208 1141.36 292.013 1137.82 Q293.842 1134.25 293.842 1127.15 Q293.842 1120.02 292.013 1116.48 Q290.208 1112.91 286.574 1112.91 M286.574 1109.21 Q292.384 1109.21 295.439 1113.81 Q298.518 1118.4 298.518 1127.15 Q298.518 1135.87 295.439 1140.48 Q292.384 1145.06 286.574 1145.06 Q280.763 1145.06 277.685 1140.48 Q274.629 1135.87 274.629 1127.15 Q274.629 1118.4 277.685 1113.81 Q280.763 1109.21 286.574 1109.21 Z" fill="#000000" fill-rule="nonzero" fill-opacity="1" /><path clip-path="url(#clip160)" d="M308.148 1103.65 Q305.439 1103.65 303.878 1105.1 Q302.336 1106.54 302.336 1109.08 Q302.336 1111.62 303.878 1113.07 Q305.439 1114.52 308.148 1114.52 Q310.856 1114.52 312.417 1113.07 Q313.978 1111.6 313.978 1109.08 Q313.978 1106.54 312.417 1105.1 Q310.875 1103.65 308.148 1103.65 M304.348 1102.03 Q301.903 1101.43 300.53 1099.75 Q299.176 1098.08 299.176 1095.67 Q299.176 1092.31 301.565 1090.35 Q303.972 1088.39 308.148 1088.39 Q312.342 1088.39 314.73 1090.35 Q317.119 1092.31 317.119 1095.67 Q317.119 1098.08 315.746 1099.75 Q314.392 1101.43 311.966 1102.03 Q314.711 1102.67 316.235 1104.53 Q317.777 1106.39 317.777 1109.08 Q317.777 1113.16 315.276 1115.35 Q312.793 1117.53 308.148 1117.53 Q303.502 1117.53 301.001 1115.35 Q298.518 1113.16 298.518 1109.08 Q298.518 1106.39 300.06 1104.53 Q301.602 1102.67 304.348 1102.03 M302.957 1096.03 Q302.957 1098.21 304.311 1099.43 Q305.684 1100.66 308.148 1100.66 Q310.593 1100.66 311.966 1099.43 Q313.357 1098.21 313.357 1096.03 Q313.357 1093.85 311.966 1092.63 Q310.593 1091.4 308.148 1091.4 Q305.684 1091.4 304.311 1092.63 Q302.957 1093.85 302.957 1096.03 Z" fill="#000000" fill-rule="nonzero" fill-opacity="1" /><path clip-path="url(#clip160)" d="M115.301 830.022 Q118.658 830.74 120.533 833.008 Q122.431 835.277 122.431 838.61 Q122.431 843.726 118.912 846.526 Q115.394 849.327 108.913 849.327 Q106.737 849.327 104.422 848.888 Q102.13 848.471 99.6764 847.614 L99.6764 843.101 Q101.621 844.235 103.936 844.814 Q106.25 845.392 108.774 845.392 Q113.172 845.392 115.463 843.656 Q117.778 841.92 117.778 838.61 Q117.778 835.554 115.625 833.841 Q113.496 832.105 109.676 832.105 L105.649 832.105 L105.649 828.263 L109.862 828.263 Q113.311 828.263 115.139 826.897 Q116.968 825.508 116.968 822.915 Q116.968 820.253 115.07 818.841 Q113.195 817.406 109.676 817.406 Q107.755 817.406 105.556 817.823 Q103.357 818.24 100.718 819.119 L100.718 814.953 Q103.38 814.212 105.695 813.841 Q108.033 813.471 110.093 813.471 Q115.417 813.471 118.519 815.902 Q121.621 818.309 121.621 822.429 Q121.621 825.3 119.977 827.29 Q118.334 829.258 115.301 830.022 Z" fill="#000000" fill-rule="nonzero" fill-opacity="1" /><path clip-path="url(#clip160)" d="M131.297 842.777 L136.181 842.777 L136.181 848.656 L131.297 848.656 L131.297 842.777 Z" fill="#000000" fill-rule="nonzero" fill-opacity="1" /><path clip-path="url(#clip160)" d="M146.412 814.096 L164.769 814.096 L164.769 818.031 L150.695 818.031 L150.695 826.503 Q151.713 826.156 152.732 825.994 Q153.75 825.809 154.769 825.809 Q160.556 825.809 163.935 828.98 Q167.315 832.152 167.315 837.568 Q167.315 843.147 163.843 846.249 Q160.371 849.327 154.051 849.327 Q151.875 849.327 149.607 848.957 Q147.361 848.587 144.954 847.846 L144.954 843.147 Q147.037 844.281 149.26 844.837 Q151.482 845.392 153.959 845.392 Q157.963 845.392 160.301 843.286 Q162.639 841.179 162.639 837.568 Q162.639 833.957 160.301 831.851 Q157.963 829.744 153.959 829.744 Q152.084 829.744 150.209 830.161 Q148.357 830.577 146.412 831.457 L146.412 814.096 Z" fill="#000000" fill-rule="nonzero" fill-opacity="1" /><path clip-path="url(#clip160)" d="M186.528 817.175 Q182.917 817.175 181.088 820.74 Q179.283 824.281 179.283 831.411 Q179.283 838.517 181.088 842.082 Q182.917 845.624 186.528 845.624 Q190.162 845.624 191.968 842.082 Q193.796 838.517 193.796 831.411 Q193.796 824.281 191.968 820.74 Q190.162 817.175 186.528 817.175 M186.528 813.471 Q192.338 813.471 195.394 818.078 Q198.472 822.661 198.472 831.411 Q198.472 840.138 195.394 844.744 Q192.338 849.327 186.528 849.327 Q180.718 849.327 177.639 844.744 Q174.583 840.138 174.583 831.411 Q174.583 822.661 177.639 818.078 Q180.718 813.471 186.528 813.471 Z" fill="#000000" fill-rule="nonzero" fill-opacity="1" /><path clip-path="url(#clip160)" d="M234.861 823.193 L224.282 833.818 L234.861 844.397 L232.106 847.198 L221.481 836.573 L210.856 847.198 L208.125 844.397 L218.68 833.818 L208.125 823.193 L210.856 820.392 L221.481 831.017 L232.106 820.392 L234.861 823.193 Z" fill="#000000" fill-rule="nonzero" fill-opacity="1" /><path clip-path="url(#clip160)" d="M247.222 844.721 L254.861 844.721 L254.861 818.355 L246.551 820.022 L246.551 815.763 L254.815 814.096 L259.49 814.096 L259.49 844.721 L267.129 844.721 L267.129 848.656 L247.222 848.656 L247.222 844.721 Z" fill="#000000" fill-rule="nonzero" fill-opacity="1" /><path clip-path="url(#clip160)" d="M286.574 817.175 Q282.963 817.175 281.134 820.74 Q279.328 824.281 279.328 831.411 Q279.328 838.517 281.134 842.082 Q282.963 845.624 286.574 845.624 Q290.208 845.624 292.013 842.082 Q293.842 838.517 293.842 831.411 Q293.842 824.281 292.013 820.74 Q290.208 817.175 286.574 817.175 M286.574 813.471 Q292.384 813.471 295.439 818.078 Q298.518 822.661 298.518 831.411 Q298.518 840.138 295.439 844.744 Q292.384 849.327 286.574 849.327 Q280.763 849.327 277.685 844.744 Q274.629 840.138 274.629 831.411 Q274.629 822.661 277.685 818.078 Q280.763 813.471 286.574 813.471 Z" fill="#000000" fill-rule="nonzero" fill-opacity="1" /><path clip-path="url(#clip160)" d="M308.148 807.911 Q305.439 807.911 303.878 809.359 Q302.336 810.807 302.336 813.346 Q302.336 815.885 303.878 817.334 Q305.439 818.782 308.148 818.782 Q310.856 818.782 312.417 817.334 Q313.978 815.867 313.978 813.346 Q313.978 810.807 312.417 809.359 Q310.875 807.911 308.148 807.911 M304.348 806.294 Q301.903 805.692 300.53 804.018 Q299.176 802.344 299.176 799.936 Q299.176 796.57 301.565 794.614 Q303.972 792.658 308.148 792.658 Q312.342 792.658 314.73 794.614 Q317.119 796.57 317.119 799.936 Q317.119 802.344 315.746 804.018 Q314.392 805.692 311.966 806.294 Q314.711 806.933 316.235 808.795 Q317.777 810.657 317.777 813.346 Q317.777 817.428 315.276 819.609 Q312.793 821.791 308.148 821.791 Q303.502 821.791 301.001 819.609 Q298.518 817.428 298.518 813.346 Q298.518 810.657 300.06 808.795 Q301.602 806.933 304.348 806.294 M302.957 800.294 Q302.957 802.476 304.311 803.698 Q305.684 804.921 308.148 804.921 Q310.593 804.921 311.966 803.698 Q313.357 802.476 313.357 800.294 Q313.357 798.112 311.966 796.89 Q310.593 795.667 308.148 795.667 Q305.684 795.667 304.311 796.89 Q302.957 798.112 302.957 800.294 Z" fill="#000000" fill-rule="nonzero" fill-opacity="1" /><path clip-path="url(#clip160)" d="M113.982 522.433 L102.176 540.882 L113.982 540.882 L113.982 522.433 M112.755 518.359 L118.635 518.359 L118.635 540.882 L123.565 540.882 L123.565 544.771 L118.635 544.771 L118.635 552.919 L113.982 552.919 L113.982 544.771 L98.3802 544.771 L98.3802 540.257 L112.755 518.359 Z" fill="#000000" fill-rule="nonzero" fill-opacity="1" /><path clip-path="url(#clip160)" d="M131.297 547.04 L136.181 547.04 L136.181 552.919 L131.297 552.919 L131.297 547.04 Z" fill="#000000" fill-rule="nonzero" fill-opacity="1" /><path clip-path="url(#clip160)" d="M156.366 521.438 Q152.755 521.438 150.926 525.003 Q149.121 528.544 149.121 535.674 Q149.121 542.78 150.926 546.345 Q152.755 549.887 156.366 549.887 Q160 549.887 161.806 546.345 Q163.634 542.78 163.634 535.674 Q163.634 528.544 161.806 525.003 Q160 521.438 156.366 521.438 M156.366 517.734 Q162.176 517.734 165.232 522.341 Q168.31 526.924 168.31 535.674 Q168.31 544.401 165.232 549.007 Q162.176 553.59 156.366 553.59 Q150.556 553.59 147.477 549.007 Q144.422 544.401 144.422 535.674 Q144.422 526.924 147.477 522.341 Q150.556 517.734 156.366 517.734 Z" fill="#000000" fill-rule="nonzero" fill-opacity="1" /><path clip-path="url(#clip160)" d="M186.528 521.438 Q182.917 521.438 181.088 525.003 Q179.283 528.544 179.283 535.674 Q179.283 542.78 181.088 546.345 Q182.917 549.887 186.528 549.887 Q190.162 549.887 191.968 546.345 Q193.796 542.78 193.796 535.674 Q193.796 528.544 191.968 525.003 Q190.162 521.438 186.528 521.438 M186.528 517.734 Q192.338 517.734 195.394 522.341 Q198.472 526.924 198.472 535.674 Q198.472 544.401 195.394 549.007 Q192.338 553.59 186.528 553.59 Q180.718 553.59 177.639 549.007 Q174.583 544.401 174.583 535.674 Q174.583 526.924 177.639 522.341 Q180.718 517.734 186.528 517.734 Z" fill="#000000" fill-rule="nonzero" fill-opacity="1" /><path clip-path="url(#clip160)" d="M234.861 527.456 L224.282 538.081 L234.861 548.66 L232.106 551.461 L221.481 540.836 L210.856 551.461 L208.125 548.66 L218.68 538.081 L208.125 527.456 L210.856 524.655 L221.481 535.28 L232.106 524.655 L234.861 527.456 Z" fill="#000000" fill-rule="nonzero" fill-opacity="1" /><path clip-path="url(#clip160)" d="M247.222 548.984 L254.861 548.984 L254.861 522.618 L246.551 524.285 L246.551 520.026 L254.815 518.359 L259.49 518.359 L259.49 548.984 L267.129 548.984 L267.129 552.919 L247.222 552.919 L247.222 548.984 Z" fill="#000000" fill-rule="nonzero" fill-opacity="1" /><path clip-path="url(#clip160)" d="M286.574 521.438 Q282.963 521.438 281.134 525.003 Q279.328 528.544 279.328 535.674 Q279.328 542.78 281.134 546.345 Q282.963 549.887 286.574 549.887 Q290.208 549.887 292.013 546.345 Q293.842 542.78 293.842 535.674 Q293.842 528.544 292.013 525.003 Q290.208 521.438 286.574 521.438 M286.574 517.734 Q292.384 517.734 295.439 522.341 Q298.518 526.924 298.518 535.674 Q298.518 544.401 295.439 549.007 Q292.384 553.59 286.574 553.59 Q280.763 553.59 277.685 549.007 Q274.629 544.401 274.629 535.674 Q274.629 526.924 277.685 522.341 Q280.763 517.734 286.574 517.734 Z" fill="#000000" fill-rule="nonzero" fill-opacity="1" /><path clip-path="url(#clip160)" d="M308.148 512.174 Q305.439 512.174 303.878 513.622 Q302.336 515.07 302.336 517.61 Q302.336 520.149 303.878 521.597 Q305.439 523.045 308.148 523.045 Q310.856 523.045 312.417 521.597 Q313.978 520.13 313.978 517.61 Q313.978 515.07 312.417 513.622 Q310.875 512.174 308.148 512.174 M304.348 510.557 Q301.903 509.955 300.53 508.281 Q299.176 506.607 299.176 504.2 Q299.176 500.833 301.565 498.877 Q303.972 496.921 308.148 496.921 Q312.342 496.921 314.73 498.877 Q317.119 500.833 317.119 504.2 Q317.119 506.607 315.746 508.281 Q314.392 509.955 311.966 510.557 Q314.711 511.196 316.235 513.058 Q317.777 514.92 317.777 517.61 Q317.777 521.691 315.276 523.872 Q312.793 526.054 308.148 526.054 Q303.502 526.054 301.001 523.872 Q298.518 521.691 298.518 517.61 Q298.518 514.92 300.06 513.058 Q301.602 511.196 304.348 510.557 M302.957 504.557 Q302.957 506.739 304.311 507.961 Q305.684 509.184 308.148 509.184 Q310.593 509.184 311.966 507.961 Q313.357 506.739 313.357 504.557 Q313.357 502.375 311.966 501.153 Q310.593 499.93 308.148 499.93 Q305.684 499.93 304.311 501.153 Q302.957 502.375 302.957 504.557 Z" fill="#000000" fill-rule="nonzero" fill-opacity="1" /><path clip-path="url(#clip160)" d="M113.982 226.696 L102.176 245.145 L113.982 245.145 L113.982 226.696 M112.755 222.622 L118.635 222.622 L118.635 245.145 L123.565 245.145 L123.565 249.034 L118.635 249.034 L118.635 257.182 L113.982 257.182 L113.982 249.034 L98.3802 249.034 L98.3802 244.52 L112.755 222.622 Z" fill="#000000" fill-rule="nonzero" fill-opacity="1" /><path clip-path="url(#clip160)" d="M131.297 251.303 L136.181 251.303 L136.181 257.182 L131.297 257.182 L131.297 251.303 Z" fill="#000000" fill-rule="nonzero" fill-opacity="1" /><path clip-path="url(#clip160)" d="M146.412 222.622 L164.769 222.622 L164.769 226.557 L150.695 226.557 L150.695 235.03 Q151.713 234.682 152.732 234.52 Q153.75 234.335 154.769 234.335 Q160.556 234.335 163.935 237.506 Q167.315 240.678 167.315 246.094 Q167.315 251.673 163.843 254.775 Q160.371 257.854 154.051 257.854 Q151.875 257.854 149.607 257.483 Q147.361 257.113 144.954 256.372 L144.954 251.673 Q147.037 252.807 149.26 253.363 Q151.482 253.918 153.959 253.918 Q157.963 253.918 160.301 251.812 Q162.639 249.705 162.639 246.094 Q162.639 242.483 160.301 240.377 Q157.963 238.27 153.959 238.27 Q152.084 238.27 150.209 238.687 Q148.357 239.104 146.412 239.983 L146.412 222.622 Z" fill="#000000" fill-rule="nonzero" fill-opacity="1" /><path clip-path="url(#clip160)" d="M186.528 225.701 Q182.917 225.701 181.088 229.266 Q179.283 232.807 179.283 239.937 Q179.283 247.043 181.088 250.608 Q182.917 254.15 186.528 254.15 Q190.162 254.15 191.968 250.608 Q193.796 247.043 193.796 239.937 Q193.796 232.807 191.968 229.266 Q190.162 225.701 186.528 225.701 M186.528 221.997 Q192.338 221.997 195.394 226.604 Q198.472 231.187 198.472 239.937 Q198.472 248.664 195.394 253.27 Q192.338 257.854 186.528 257.854 Q180.718 257.854 177.639 253.27 Q174.583 248.664 174.583 239.937 Q174.583 231.187 177.639 226.604 Q180.718 221.997 186.528 221.997 Z" fill="#000000" fill-rule="nonzero" fill-opacity="1" /><path clip-path="url(#clip160)" d="M234.861 231.719 L224.282 242.344 L234.861 252.923 L232.106 255.724 L221.481 245.099 L210.856 255.724 L208.125 252.923 L218.68 242.344 L208.125 231.719 L210.856 228.918 L221.481 239.543 L232.106 228.918 L234.861 231.719 Z" fill="#000000" fill-rule="nonzero" fill-opacity="1" /><path clip-path="url(#clip160)" d="M247.222 253.247 L254.861 253.247 L254.861 226.881 L246.551 228.548 L246.551 224.289 L254.815 222.622 L259.49 222.622 L259.49 253.247 L267.129 253.247 L267.129 257.182 L247.222 257.182 L247.222 253.247 Z" fill="#000000" fill-rule="nonzero" fill-opacity="1" /><path clip-path="url(#clip160)" d="M286.574 225.701 Q282.963 225.701 281.134 229.266 Q279.328 232.807 279.328 239.937 Q279.328 247.043 281.134 250.608 Q282.963 254.15 286.574 254.15 Q290.208 254.15 292.013 250.608 Q293.842 247.043 293.842 239.937 Q293.842 232.807 292.013 229.266 Q290.208 225.701 286.574 225.701 M286.574 221.997 Q292.384 221.997 295.439 226.604 Q298.518 231.187 298.518 239.937 Q298.518 248.664 295.439 253.27 Q292.384 257.854 286.574 257.854 Q280.763 257.854 277.685 253.27 Q274.629 248.664 274.629 239.937 Q274.629 231.187 277.685 226.604 Q280.763 221.997 286.574 221.997 Z" fill="#000000" fill-rule="nonzero" fill-opacity="1" /><path clip-path="url(#clip160)" d="M308.148 216.437 Q305.439 216.437 303.878 217.885 Q302.336 219.334 302.336 221.873 Q302.336 224.412 303.878 225.86 Q305.439 227.308 308.148 227.308 Q310.856 227.308 312.417 225.86 Q313.978 224.393 313.978 221.873 Q313.978 219.334 312.417 217.885 Q310.875 216.437 308.148 216.437 M304.348 214.82 Q301.903 214.218 300.53 212.544 Q299.176 210.87 299.176 208.463 Q299.176 205.096 301.565 203.14 Q303.972 201.184 308.148 201.184 Q312.342 201.184 314.73 203.14 Q317.119 205.096 317.119 208.463 Q317.119 210.87 315.746 212.544 Q314.392 214.218 311.966 214.82 Q314.711 215.459 316.235 217.321 Q317.777 219.183 317.777 221.873 Q317.777 225.954 315.276 228.136 Q312.793 230.317 308.148 230.317 Q303.502 230.317 301.001 228.136 Q298.518 225.954 298.518 221.873 Q298.518 219.183 300.06 217.321 Q301.602 215.459 304.348 214.82 M302.957 208.82 Q302.957 211.002 304.311 212.224 Q305.684 213.447 308.148 213.447 Q310.593 213.447 311.966 212.224 Q313.357 211.002 313.357 208.82 Q313.357 206.638 311.966 205.416 Q310.593 204.193 308.148 204.193 Q305.684 204.193 304.311 205.416 Q302.957 206.638 302.957 208.82 Z" fill="#000000" fill-rule="nonzero" fill-opacity="1" /><path clip-path="url(#clip160)" d="M-9.64527 840.632 L0.4762 840.632 L0.4762 828.569 L5.02768 828.569 L5.02768 840.632 L24.3794 840.632 Q28.7399 840.632 29.9813 839.454 Q31.2226 838.245 31.2226 834.584 L31.2226 828.569 L36.1242 828.569 L36.1242 834.584 Q36.1242 841.364 33.6097 843.942 Q31.0634 846.52 24.3794 846.52 L5.02768 846.52 L5.02768 850.817 L0.4762 850.817 L0.4762 846.52 L-9.64527 846.52 L-9.64527 840.632 Z" fill="#000000" fill-rule="nonzero" fill-opacity="1" /><path clip-path="url(#clip160)" d="M-11.3958 789.738 L-11.3958 784.327 L42.1716 800.878 L42.1716 806.289 L-11.3958 789.738 Z" fill="#000000" fill-rule="nonzero" fill-opacity="1" /><path clip-path="url(#clip160)" d="M14.6081 727.831 L36.1242 727.831 L36.1242 733.688 L14.799 733.688 Q9.7383 733.688 7.22385 735.661 Q4.7094 737.635 4.7094 741.581 Q4.7094 746.324 7.73311 749.061 Q10.7568 751.798 15.9767 751.798 L36.1242 751.798 L36.1242 757.687 L0.4762 757.687 L0.4762 751.798 L6.01437 751.798 Q2.79968 749.698 1.20826 746.865 Q-0.38317 744 -0.38317 740.276 Q-0.38317 734.133 3.43625 730.982 Q7.22385 727.831 14.6081 727.831 Z" fill="#000000" fill-rule="nonzero" fill-opacity="1" /><path clip-path="url(#clip160)" d="M1.52654 693.425 L7.06471 693.425 Q5.79157 695.907 5.15499 698.581 Q4.51842 701.255 4.51842 704.119 Q4.51842 708.48 5.85522 710.676 Q7.19202 712.84 9.86562 712.84 Q11.9026 712.84 13.0803 711.281 Q14.2261 709.721 15.2765 705.01 L15.7221 703.005 Q17.0589 696.767 19.5097 694.157 Q21.9286 691.515 26.2891 691.515 Q31.2544 691.515 34.1508 695.462 Q37.0472 699.377 37.0472 706.252 Q37.0472 709.116 36.4743 712.235 Q35.9332 715.323 34.8192 718.76 L28.7718 718.76 Q30.4587 715.514 31.318 712.363 Q32.1456 709.212 32.1456 706.124 Q32.1456 701.987 30.7451 699.759 Q29.3129 697.531 26.7347 697.531 Q24.3476 697.531 23.0745 699.154 Q21.8013 700.745 20.6237 706.188 L20.1462 708.225 Q19.0004 713.668 16.6451 716.087 Q14.258 718.506 10.1202 718.506 Q5.09134 718.506 2.35408 714.941 Q-0.38317 711.376 -0.38317 704.819 Q-0.38317 701.573 0.0942579 698.708 Q0.571686 695.844 1.52654 693.425 Z" fill="#000000" fill-rule="nonzero" fill-opacity="1" /><path clip-path="url(#clip162)" d="M765.997 707.483 L767.278 705.597 L768.148 703.711 L768.627 701.825 L768.742 699.939 L768.53 698.053 L768.037 696.166 L767.313 694.28 L766.415 692.394 L765.407 690.508 L764.353 688.622 L763.32 686.736 L762.376 684.85 L761.589 682.964 L761.021 681.078 L760.735 679.192 L760.786 677.306 L761.223 675.42 L762.089 673.534 L763.419 671.648 L765.238 669.762 L767.562 667.876 L770.398 665.99 L773.743 664.104 L777.581 662.217 L781.89 660.331 L786.633 658.445 L791.767 656.559 L797.236 654.673 L802.98 652.787 L808.925 650.901 L814.995 649.015 L821.104 647.129 L827.164 645.243 L833.083 643.357 L838.768 641.471 L844.123 639.585 L849.057 637.699 L853.482 635.813 L857.313 633.927 L860.476 632.041 L862.902 630.155 L864.535 628.269 L865.33 626.382 L865.253 624.496 L864.287 622.61 L862.426 620.724 L859.68 618.838 L856.072 616.952 L851.64 615.066 L846.434 613.18 L840.517 611.294 L833.96 609.408 L826.844 607.522 L819.259 605.636 L811.295 603.75 L803.05 601.864 L794.62 599.978 L786.101 598.092 L777.587 596.206 L769.165 594.32 L760.918 592.433 L752.922 590.547 L745.244 588.661 L737.941 586.775 L731.061 584.889 L724.643 583.003 L718.715 581.117 L713.295 579.231 L708.393 577.345 L704.008 575.459 L700.132 573.573 L696.751 571.687 L693.842 569.801 L691.378 567.915 L689.326 566.029 L687.651 564.143 L686.314 562.257 L685.275 560.371 L684.492 558.485 L683.924 556.598 L683.53 554.712 L683.271 552.826 L683.109 550.94 L683.009 549.054 L682.94 547.168 L682.871 545.282 L682.779 543.396 L682.641 541.51 L682.439 539.624 L627.545 539.624 L627.343 541.51 L627.205 543.396 L627.112 545.282 L627.044 547.168 L626.975 549.054 L626.875 550.94 L626.713 552.826 L626.454 554.712 L626.06 556.598 L625.492 558.485 L624.709 560.371 L623.67 562.257 L622.333 564.143 L620.657 566.029 L618.606 567.915 L616.141 569.801 L613.232 571.687 L609.851 573.573 L605.976 575.459 L601.591 577.345 L596.689 579.231 L591.269 581.117 L585.341 583.003 L578.923 584.889 L572.043 586.775 L564.74 588.661 L557.062 590.547 L549.066 592.433 L540.819 594.32 L532.397 596.206 L523.882 598.092 L515.364 599.978 L506.934 601.864 L498.689 603.75 L490.725 605.636 L483.139 607.522 L476.024 609.408 L469.467 611.294 L463.55 613.18 L458.344 615.066 L453.912 616.952 L450.304 618.838 L447.558 620.724 L445.697 622.61 L444.73 624.496 L444.654 626.382 L445.448 628.269 L447.082 630.155 L449.508 632.041 L452.671 633.927 L456.502 635.813 L460.927 637.699 L465.861 639.585 L471.216 641.471 L476.9 643.357 L482.82 645.243 L488.88 647.129 L494.989 649.015 L501.059 650.901 L507.004 652.787 L512.747 654.673 L518.217 656.559 L523.351 658.445 L528.094 660.331 L532.402 662.217 L536.241 664.104 L539.585 665.99 L542.422 667.876 L544.746 669.762 L546.565 671.648 L547.895 673.534 L548.761 675.42 L549.198 677.306 L549.249 679.192 L548.962 681.078 L548.395 682.964 L547.608 684.85 L546.664 686.736 L545.631 688.622 L544.577 690.508 L543.569 692.394 L542.671 694.28 L541.947 696.166 L541.453 698.053 L541.242 699.939 L541.357 701.825 L541.836 703.711 L542.706 705.597 L543.987 707.483 L765.997 707.483  Z" fill="#009af9" fill-rule="evenodd" fill-opacity="1"/>
<polyline clip-path="url(#clip162)" style="stroke:#000000; stroke-linecap:round; stroke-linejoin:round; stroke-width:4; stroke-opacity:1; fill:none" points="765.997,707.483 767.278,705.597 768.148,703.711 768.627,701.825 768.742,699.939 768.53,698.053 768.037,696.166 767.313,694.28 766.415,692.394 765.407,690.508 764.353,688.622 763.32,686.736 762.376,684.85 761.589,682.964 761.021,681.078 760.735,679.192 760.786,677.306 761.223,675.42 762.089,673.534 763.419,671.648 765.238,669.762 767.562,667.876 770.398,665.99 773.743,664.104 777.581,662.217 781.89,660.331 786.633,658.445 791.767,656.559 797.236,654.673 802.98,652.787 808.925,650.901 814.995,649.015 821.104,647.129 827.164,645.243 833.083,643.357 838.768,641.471 844.123,639.585 849.057,637.699 853.482,635.813 857.313,633.927 860.476,632.041 862.902,630.155 864.535,628.269 865.33,626.382 865.253,624.496 864.287,622.61 862.426,620.724 859.68,618.838 856.072,616.952 851.64,615.066 846.434,613.18 840.517,611.294 833.96,609.408 826.844,607.522 819.259,605.636 811.295,603.75 803.05,601.864 794.62,599.978 786.101,598.092 777.587,596.206 769.165,594.32 760.918,592.433 752.922,590.547 745.244,588.661 737.941,586.775 731.061,584.889 724.643,583.003 718.715,581.117 713.295,579.231 708.393,577.345 704.008,575.459 700.132,573.573 696.751,571.687 693.842,569.801 691.378,567.915 689.326,566.029 687.651,564.143 686.314,562.257 685.275,560.371 684.492,558.485 683.924,556.598 683.53,554.712 683.271,552.826 683.109,550.94 683.009,549.054 682.94,547.168 682.871,545.282 682.779,543.396 682.641,541.51 682.439,539.624 627.545,539.624 627.343,541.51 627.205,543.396 627.112,545.282 627.044,547.168 626.975,549.054 626.875,550.94 626.713,552.826 626.454,554.712 626.06,556.598 625.492,558.485 624.709,560.371 623.67,562.257 622.333,564.143 620.657,566.029 618.606,567.915 616.141,569.801 613.232,571.687 609.851,573.573 605.976,575.459 601.591,577.345 596.689,579.231 591.269,581.117 585.341,583.003 578.923,584.889 572.043,586.775 564.74,588.661 557.062,590.547 549.066,592.433 540.819,594.32 532.397,596.206 523.882,598.092 515.364,599.978 506.934,601.864 498.689,603.75 490.725,605.636 483.139,607.522 476.024,609.408 469.467,611.294 463.55,613.18 458.344,615.066 453.912,616.952 450.304,618.838 447.558,620.724 445.697,622.61 444.73,624.496 444.654,626.382 445.448,628.269 447.082,630.155 449.508,632.041 452.671,633.927 456.502,635.813 460.927,637.699 465.861,639.585 471.216,641.471 476.9,643.357 482.82,645.243 488.88,647.129 494.989,649.015 501.059,650.901 507.004,652.787 512.747,654.673 518.217,656.559 523.351,658.445 528.094,660.331 532.402,662.217 536.241,664.104 539.585,665.99 542.422,667.876 544.746,669.762 546.565,671.648 547.895,673.534 548.761,675.42 549.198,677.306 549.249,679.192 548.962,681.078 548.395,682.964 547.608,684.85 546.664,686.736 545.631,688.622 544.577,690.508 543.569,692.394 542.671,694.28 541.947,696.166 541.453,698.053 541.242,699.939 541.357,701.825 541.836,703.711 542.706,705.597 543.987,707.483 765.997,707.483 "/>
<path clip-path="url(#clip162)" d="M1581.56 706.254 L1583.87 704.084 L1585.4 701.914 L1586.17 699.744 L1586.18 697.574 L1585.5 695.403 L1584.15 693.233 L1582.23 691.063 L1579.79 688.893 L1576.93 686.723 L1573.75 684.553 L1570.35 682.383 L1566.82 680.212 L1563.29 678.042 L1559.84 675.872 L1556.59 673.702 L1553.62 671.532 L1551.03 669.362 L1548.89 667.191 L1547.27 665.021 L1546.2 662.851 L1545.74 660.681 L1545.9 658.511 L1546.68 656.341 L1548.08 654.17 L1550.06 652 L1552.59 649.83 L1555.61 647.66 L1559.05 645.49 L1562.85 643.32 L1566.9 641.15 L1571.12 638.979 L1575.41 636.809 L1579.67 634.639 L1583.8 632.469 L1587.7 630.299 L1591.27 628.129 L1594.43 625.958 L1597.09 623.788 L1599.19 621.618 L1600.65 619.448 L1601.44 617.278 L1601.51 615.108 L1600.84 612.937 L1599.42 610.767 L1597.24 608.597 L1594.33 606.427 L1590.71 604.257 L1586.41 602.087 L1581.48 599.917 L1575.97 597.746 L1569.96 595.576 L1563.51 593.406 L1556.69 591.236 L1549.58 589.066 L1542.25 586.896 L1534.79 584.725 L1527.28 582.555 L1519.78 580.385 L1512.36 578.215 L1505.1 576.045 L1498.05 573.875 L1491.26 571.705 L1484.78 569.534 L1478.65 567.364 L1472.89 565.194 L1467.54 563.024 L1462.59 560.854 L1458.07 558.684 L1453.98 556.513 L1450.29 554.343 L1447.01 552.173 L1444.11 550.003 L1441.58 547.833 L1439.37 545.663 L1437.47 543.492 L1435.84 541.322 L1434.45 539.152 L1433.26 536.982 L1432.23 534.812 L1431.33 532.642 L1430.53 530.472 L1429.8 528.301 L1429.1 526.131 L1428.42 523.961 L1427.72 521.791 L1354.63 521.791 L1353.93 523.961 L1353.25 526.131 L1352.55 528.301 L1351.82 530.472 L1351.02 532.642 L1350.12 534.812 L1349.09 536.982 L1347.9 539.152 L1346.51 541.322 L1344.88 543.492 L1342.98 545.663 L1340.77 547.833 L1338.24 550.003 L1335.34 552.173 L1332.06 554.343 L1328.37 556.513 L1324.28 558.684 L1319.76 560.854 L1314.81 563.024 L1309.46 565.194 L1303.7 567.364 L1297.57 569.534 L1291.09 571.705 L1284.3 573.875 L1277.25 576.045 L1269.99 578.215 L1262.57 580.385 L1255.07 582.555 L1247.56 584.725 L1240.1 586.896 L1232.77 589.066 L1225.66 591.236 L1218.84 593.406 L1212.39 595.576 L1206.38 597.746 L1200.87 599.917 L1195.94 602.087 L1191.64 604.257 L1188.02 606.427 L1185.11 608.597 L1182.93 610.767 L1181.51 612.937 L1180.84 615.108 L1180.91 617.278 L1181.7 619.448 L1183.16 621.618 L1185.26 623.788 L1187.92 625.958 L1191.08 628.129 L1194.65 630.299 L1198.55 632.469 L1202.68 634.639 L1206.94 636.809 L1211.23 638.979 L1215.45 641.15 L1219.5 643.32 L1223.3 645.49 L1226.74 647.66 L1229.76 649.83 L1232.29 652 L1234.27 654.17 L1235.67 656.341 L1236.45 658.511 L1236.61 660.681 L1236.15 662.851 L1235.08 665.021 L1233.46 667.191 L1231.32 669.362 L1228.73 671.532 L1225.76 673.702 L1222.51 675.872 L1219.06 678.042 L1215.53 680.212 L1212 682.383 L1208.6 684.553 L1205.41 686.723 L1202.56 688.893 L1200.12 691.063 L1198.2 693.233 L1196.85 695.403 L1196.17 697.574 L1196.18 699.744 L1196.95 701.914 L1198.48 704.084 L1200.79 706.254 L1581.56 706.254  Z" fill="#e26f46" fill-rule="evenodd" fill-opacity="1"/>
<polyline clip-path="url(#clip162)" style="stroke:#000000; stroke-linecap:round; stroke-linejoin:round; stroke-width:4; stroke-opacity:1; fill:none" points="1581.56,706.254 1583.87,704.084 1585.4,701.914 1586.17,699.744 1586.18,697.574 1585.5,695.403 1584.15,693.233 1582.23,691.063 1579.79,688.893 1576.93,686.723 1573.75,684.553 1570.35,682.383 1566.82,680.212 1563.29,678.042 1559.84,675.872 1556.59,673.702 1553.62,671.532 1551.03,669.362 1548.89,667.191 1547.27,665.021 1546.2,662.851 1545.74,660.681 1545.9,658.511 1546.68,656.341 1548.08,654.17 1550.06,652 1552.59,649.83 1555.61,647.66 1559.05,645.49 1562.85,643.32 1566.9,641.15 1571.12,638.979 1575.41,636.809 1579.67,634.639 1583.8,632.469 1587.7,630.299 1591.27,628.129 1594.43,625.958 1597.09,623.788 1599.19,621.618 1600.65,619.448 1601.44,617.278 1601.51,615.108 1600.84,612.937 1599.42,610.767 1597.24,608.597 1594.33,606.427 1590.71,604.257 1586.41,602.087 1581.48,599.917 1575.97,597.746 1569.96,595.576 1563.51,593.406 1556.69,591.236 1549.58,589.066 1542.25,586.896 1534.79,584.725 1527.28,582.555 1519.78,580.385 1512.36,578.215 1505.1,576.045 1498.05,573.875 1491.26,571.705 1484.78,569.534 1478.65,567.364 1472.89,565.194 1467.54,563.024 1462.59,560.854 1458.07,558.684 1453.98,556.513 1450.29,554.343 1447.01,552.173 1444.11,550.003 1441.58,547.833 1439.37,545.663 1437.47,543.492 1435.84,541.322 1434.45,539.152 1433.26,536.982 1432.23,534.812 1431.33,532.642 1430.53,530.472 1429.8,528.301 1429.1,526.131 1428.42,523.961 1427.72,521.791 1354.63,521.791 1353.93,523.961 1353.25,526.131 1352.55,528.301 1351.82,530.472 1351.02,532.642 1350.12,534.812 1349.09,536.982 1347.9,539.152 1346.51,541.322 1344.88,543.492 1342.98,545.663 1340.77,547.833 1338.24,550.003 1335.34,552.173 1332.06,554.343 1328.37,556.513 1324.28,558.684 1319.76,560.854 1314.81,563.024 1309.46,565.194 1303.7,567.364 1297.57,569.534 1291.09,571.705 1284.3,573.875 1277.25,576.045 1269.99,578.215 1262.57,580.385 1255.07,582.555 1247.56,584.725 1240.1,586.896 1232.77,589.066 1225.66,591.236 1218.84,593.406 1212.39,595.576 1206.38,597.746 1200.87,599.917 1195.94,602.087 1191.64,604.257 1188.02,606.427 1185.11,608.597 1182.93,610.767 1181.51,612.937 1180.84,615.108 1180.91,617.278 1181.7,619.448 1183.16,621.618 1185.26,623.788 1187.92,625.958 1191.08,628.129 1194.65,630.299 1198.55,632.469 1202.68,634.639 1206.94,636.809 1211.23,638.979 1215.45,641.15 1219.5,643.32 1223.3,645.49 1226.74,647.66 1229.76,649.83 1232.29,652 1234.27,654.17 1235.67,656.341 1236.45,658.511 1236.61,660.681 1236.15,662.851 1235.08,665.021 1233.46,667.191 1231.32,669.362 1228.73,671.532 1225.76,673.702 1222.51,675.872 1219.06,678.042 1215.53,680.212 1212,682.383 1208.6,684.553 1205.41,686.723 1202.56,688.893 1200.12,691.063 1198.2,693.233 1196.85,695.403 1196.17,697.574 1196.18,699.744 1196.95,701.914 1198.48,704.084 1200.79,706.254 1581.56,706.254 "/>
<path clip-path="url(#clip162)" d="M2296.92 1454.11 L2304.85 1449.31 L2311.7 1444.51 L2317.46 1439.71 L2322.22 1434.92 L2326.08 1430.12 L2329.16 1425.32 L2331.6 1420.52 L2333.51 1415.72 L2335 1410.92 L2336.14 1406.12 L2336.98 1401.32 L2337.51 1396.52 L2337.7 1391.72 L2337.49 1386.93 L2336.82 1382.13 L2335.59 1377.33 L2333.74 1372.53 L2331.18 1367.73 L2327.87 1362.93 L2323.77 1358.13 L2318.88 1353.33 L2313.23 1348.53 L2306.85 1343.73 L2299.81 1338.94 L2292.21 1334.14 L2284.14 1329.34 L2275.72 1324.54 L2267.07 1319.74 L2258.3 1314.94 L2249.55 1310.14 L2240.92 1305.34 L2232.51 1300.54 L2224.42 1295.74 L2216.72 1290.95 L2209.46 1286.15 L2202.67 1281.35 L2196.38 1276.55 L2190.57 1271.75 L2185.24 1266.95 L2180.34 1262.15 L2175.84 1257.35 L2171.68 1252.55 L2167.82 1247.75 L2164.21 1242.96 L2160.81 1238.16 L2157.6 1233.36 L2154.55 1228.56 L2151.65 1223.76 L2148.9 1218.96 L2146.29 1214.16 L2143.84 1209.36 L2141.57 1204.56 L2139.47 1199.76 L2137.56 1194.97 L2135.85 1190.17 L2134.34 1185.37 L2133.02 1180.57 L2131.89 1175.77 L2130.93 1170.97 L2130.14 1166.17 L2129.5 1161.37 L2128.98 1156.57 L2128.56 1151.77 L2128.24 1146.98 L2128 1142.18 L2127.82 1137.38 L2127.68 1132.58 L2127.58 1127.78 L2127.51 1122.98 L2127.46 1118.18 L2127.43 1113.38 L2127.4 1108.58 L2127.39 1103.78 L2127.38 1098.98 L2127.37 1094.19 L2127.36 1089.39 L2127.36 1084.59 L2127.36 1079.79 L2127.36 1074.99 L2127.36 1070.19 L2127.36 1065.39 L2127.36 1060.59 L2127.36 1055.79 L2127.36 1050.99 L2127.36 1046.2 L2127.36 1041.4 L2127.36 1036.6 L2127.36 1031.8 L2127.36 1027 L2127.36 1022.2 L2127.36 1017.4 L2127.36 1012.6 L2127.36 1007.8 L2127.36 1003 L2127.36 998.206 L2127.36 993.407 L2127.36 988.608 L2127.36 983.809 L2127.36 979.01 L2127.36 974.211 L2127.37 969.412 L2127.37 964.613 L2127.38 959.814 L2127.39 955.015 L2127.4 950.216 L2127.43 945.417 L2127.46 940.618 L2127.51 935.819 L2127.58 931.02 L2127.68 926.221 L2127.81 921.422 L2127.99 916.623 L2128.23 911.824 L2128.54 907.025 L2128.94 902.226 L2129.44 897.427 L2130.05 892.628 L2130.8 887.829 L2131.68 883.03 L2132.71 878.231 L2133.88 873.432 L2135.2 868.633 L2136.63 863.834 L2138.16 859.035 L2139.75 854.236 L2141.36 849.437 L2142.95 844.638 L2144.45 839.839 L2145.82 835.04 L2147 830.241 L2147.94 825.442 L2148.59 820.643 L2148.94 815.844 L2105.77 815.844 L2106.12 820.643 L2106.78 825.442 L2107.72 830.241 L2108.89 835.04 L2110.26 839.839 L2111.77 844.638 L2113.35 849.437 L2114.96 854.236 L2116.56 859.035 L2118.09 863.834 L2119.52 868.633 L2120.83 873.432 L2122 878.231 L2123.03 883.03 L2123.92 887.829 L2124.66 892.628 L2125.28 897.427 L2125.78 902.226 L2126.17 907.025 L2126.48 911.824 L2126.72 916.623 L2126.9 921.422 L2127.04 926.221 L2127.14 931.02 L2127.21 935.819 L2127.26 940.618 L2127.29 945.417 L2127.31 950.216 L2127.33 955.015 L2127.34 959.814 L2127.35 964.613 L2127.35 969.412 L2127.35 974.211 L2127.36 979.01 L2127.36 983.809 L2127.36 988.608 L2127.36 993.407 L2127.36 998.206 L2127.36 1003 L2127.36 1007.8 L2127.36 1012.6 L2127.36 1017.4 L2127.36 1022.2 L2127.36 1027 L2127.36 1031.8 L2127.36 1036.6 L2127.36 1041.4 L2127.36 1046.2 L2127.36 1050.99 L2127.36 1055.79 L2127.36 1060.59 L2127.36 1065.39 L2127.36 1070.19 L2127.36 1074.99 L2127.36 1079.79 L2127.35 1084.59 L2127.35 1089.39 L2127.35 1094.19 L2127.34 1098.98 L2127.33 1103.78 L2127.31 1108.58 L2127.29 1113.38 L2127.26 1118.18 L2127.21 1122.98 L2127.13 1127.78 L2127.04 1132.58 L2126.9 1137.38 L2126.72 1142.18 L2126.47 1146.98 L2126.15 1151.77 L2125.74 1156.57 L2125.22 1161.37 L2124.57 1166.17 L2123.78 1170.97 L2122.83 1175.77 L2121.7 1180.57 L2120.38 1185.37 L2118.87 1190.17 L2117.16 1194.97 L2115.25 1199.76 L2113.15 1204.56 L2110.87 1209.36 L2108.42 1214.16 L2105.82 1218.96 L2103.06 1223.76 L2100.16 1228.56 L2097.11 1233.36 L2093.9 1238.16 L2090.51 1242.96 L2086.9 1247.75 L2083.04 1252.55 L2078.88 1257.35 L2074.38 1262.15 L2069.48 1266.95 L2064.14 1271.75 L2058.34 1276.55 L2052.05 1281.35 L2045.26 1286.15 L2038 1290.95 L2030.3 1295.74 L2022.21 1300.54 L2013.8 1305.34 L2005.17 1310.14 L1996.41 1314.94 L1987.65 1319.74 L1978.99 1324.54 L1970.57 1329.34 L1962.5 1334.14 L1954.9 1338.94 L1947.87 1343.73 L1941.49 1348.53 L1935.83 1353.33 L1930.95 1358.13 L1926.85 1362.93 L1923.54 1367.73 L1920.98 1372.53 L1919.12 1377.33 L1917.9 1382.13 L1917.22 1386.93 L1917.02 1391.72 L1917.21 1396.52 L1917.74 1401.32 L1918.57 1406.12 L1919.72 1410.92 L1921.21 1415.72 L1923.12 1420.52 L1925.55 1425.32 L1928.63 1430.12 L1932.49 1434.92 L1937.25 1439.71 L1943.02 1444.51 L1949.86 1449.31 L1957.8 1454.11 L2296.92 1454.11  Z" fill="#3da44d" fill-rule="evenodd" fill-opacity="1"/>
<polyline clip-path="url(#clip162)" style="stroke:#000000; stroke-linecap:round; stroke-linejoin:round; stroke-width:4; stroke-opacity:1; fill:none" points="2296.92,1454.11 2304.85,1449.31 2311.7,1444.51 2317.46,1439.71 2322.22,1434.92 2326.08,1430.12 2329.16,1425.32 2331.6,1420.52 2333.51,1415.72 2335,1410.92 2336.14,1406.12 2336.98,1401.32 2337.51,1396.52 2337.7,1391.72 2337.49,1386.93 2336.82,1382.13 2335.59,1377.33 2333.74,1372.53 2331.18,1367.73 2327.87,1362.93 2323.77,1358.13 2318.88,1353.33 2313.23,1348.53 2306.85,1343.73 2299.81,1338.94 2292.21,1334.14 2284.14,1329.34 2275.72,1324.54 2267.07,1319.74 2258.3,1314.94 2249.55,1310.14 2240.92,1305.34 2232.51,1300.54 2224.42,1295.74 2216.72,1290.95 2209.46,1286.15 2202.67,1281.35 2196.38,1276.55 2190.57,1271.75 2185.24,1266.95 2180.34,1262.15 2175.84,1257.35 2171.68,1252.55 2167.82,1247.75 2164.21,1242.96 2160.81,1238.16 2157.6,1233.36 2154.55,1228.56 2151.65,1223.76 2148.9,1218.96 2146.29,1214.16 2143.84,1209.36 2141.57,1204.56 2139.47,1199.76 2137.56,1194.97 2135.85,1190.17 2134.34,1185.37 2133.02,1180.57 2131.89,1175.77 2130.93,1170.97 2130.14,1166.17 2129.5,1161.37 2128.98,1156.57 2128.56,1151.77 2128.24,1146.98 2128,1142.18 2127.82,1137.38 2127.68,1132.58 2127.58,1127.78 2127.51,1122.98 2127.46,1118.18 2127.43,1113.38 2127.4,1108.58 2127.39,1103.78 2127.38,1098.98 2127.37,1094.19 2127.36,1089.39 2127.36,1084.59 2127.36,1079.79 2127.36,1074.99 2127.36,1070.19 2127.36,1065.39 2127.36,1060.59 2127.36,1055.79 2127.36,1050.99 2127.36,1046.2 2127.36,1041.4 2127.36,1036.6 2127.36,1031.8 2127.36,1027 2127.36,1022.2 2127.36,1017.4 2127.36,1012.6 2127.36,1007.8 2127.36,1003 2127.36,998.206 2127.36,993.407 2127.36,988.608 2127.36,983.809 2127.36,979.01 2127.36,974.211 2127.37,969.412 2127.37,964.613 2127.38,959.814 2127.39,955.015 2127.4,950.216 2127.43,945.417 2127.46,940.618 2127.51,935.819 2127.58,931.02 2127.68,926.221 2127.81,921.422 2127.99,916.623 2128.23,911.824 2128.54,907.025 2128.94,902.226 2129.44,897.427 2130.05,892.628 2130.8,887.829 2131.68,883.03 2132.71,878.231 2133.88,873.432 2135.2,868.633 2136.63,863.834 2138.16,859.035 2139.75,854.236 2141.36,849.437 2142.95,844.638 2144.45,839.839 2145.82,835.04 2147,830.241 2147.94,825.442 2148.59,820.643 2148.94,815.844 2105.77,815.844 2106.12,820.643 2106.78,825.442 2107.72,830.241 2108.89,835.04 2110.26,839.839 2111.77,844.638 2113.35,849.437 2114.96,854.236 2116.56,859.035 2118.09,863.834 2119.52,868.633 2120.83,873.432 2122,878.231 2123.03,883.03 2123.92,887.829 2124.66,892.628 2125.28,897.427 2125.78,902.226 2126.17,907.025 2126.48,911.824 2126.72,916.623 2126.9,921.422 2127.04,926.221 2127.14,931.02 2127.21,935.819 2127.26,940.618 2127.29,945.417 2127.31,950.216 2127.33,955.015 2127.34,959.814 2127.35,964.613 2127.35,969.412 2127.35,974.211 2127.36,979.01 2127.36,983.809 2127.36,988.608 2127.36,993.407 2127.36,998.206 2127.36,1003 2127.36,1007.8 2127.36,1012.6 2127.36,1017.4 2127.36,1022.2 2127.36,1027 2127.36,1031.8 2127.36,1036.6 2127.36,1041.4 2127.36,1046.2 2127.36,1050.99 2127.36,1055.79 2127.36,1060.59 2127.36,1065.39 2127.36,1070.19 2127.36,1074.99 2127.36,1079.79 2127.35,1084.59 2127.35,1089.39 2127.35,1094.19 2127.34,1098.98 2127.33,1103.78 2127.31,1108.58 2127.29,1113.38 2127.26,1118.18 2127.21,1122.98 2127.13,1127.78 2127.04,1132.58 2126.9,1137.38 2126.72,1142.18 2126.47,1146.98 2126.15,1151.77 2125.74,1156.57 2125.22,1161.37 2124.57,1166.17 2123.78,1170.97 2122.83,1175.77 2121.7,1180.57 2120.38,1185.37 2118.87,1190.17 2117.16,1194.97 2115.25,1199.76 2113.15,1204.56 2110.87,1209.36 2108.42,1214.16 2105.82,1218.96 2103.06,1223.76 2100.16,1228.56 2097.11,1233.36 2093.9,1238.16 2090.51,1242.96 2086.9,1247.75 2083.04,1252.55 2078.88,1257.35 2074.38,1262.15 2069.48,1266.95 2064.14,1271.75 2058.34,1276.55 2052.05,1281.35 2045.26,1286.15 2038,1290.95 2030.3,1295.74 2022.21,1300.54 2013.8,1305.34 2005.17,1310.14 1996.41,1314.94 1987.65,1319.74 1978.99,1324.54 1970.57,1329.34 1962.5,1334.14 1954.9,1338.94 1947.87,1343.73 1941.49,1348.53 1935.83,1353.33 1930.95,1358.13 1926.85,1362.93 1923.54,1367.73 1920.98,1372.53 1919.12,1377.33 1917.9,1382.13 1917.22,1386.93 1917.02,1391.72 1917.21,1396.52 1917.74,1401.32 1918.57,1406.12 1919.72,1410.92 1921.21,1415.72 1923.12,1420.52 1925.55,1425.32 1928.63,1430.12 1932.49,1434.92 1937.25,1439.71 1943.02,1444.51 1949.86,1449.31 1957.8,1454.11 2296.92,1454.11 "/>
<path clip-path="url(#clip162)" d="M2900.23 286.094 L2900.29 284.458 L2900.12 282.823 L2899.77 281.188 L2899.32 279.552 L2898.85 277.917 L2898.43 276.282 L2898.17 274.646 L2898.15 273.011 L2898.47 271.376 L2899.22 269.741 L2900.47 268.105 L2902.3 266.47 L2904.76 264.835 L2907.9 263.199 L2911.74 261.564 L2916.29 259.929 L2921.55 258.293 L2927.5 256.658 L2934.1 255.023 L2941.3 253.387 L2949.03 251.752 L2957.23 250.117 L2965.8 248.481 L2974.67 246.846 L2983.73 245.211 L2992.88 243.576 L3002.02 241.94 L3011.04 240.305 L3019.84 238.67 L3028.31 237.034 L3036.35 235.399 L3043.85 233.764 L3050.72 232.128 L3056.87 230.493 L3062.19 228.858 L3066.62 227.222 L3070.06 225.587 L3072.46 223.952 L3073.75 222.316 L3073.88 220.681 L3072.83 219.046 L3070.57 217.411 L3067.12 215.775 L3062.5 214.14 L3056.75 212.505 L3049.93 210.869 L3042.15 209.234 L3033.5 207.599 L3024.12 205.963 L3014.15 204.328 L3003.74 202.693 L2993.06 201.057 L2982.26 199.422 L2971.52 197.787 L2960.99 196.151 L2950.81 194.516 L2941.12 192.881 L2932.02 191.246 L2923.62 189.61 L2915.98 187.975 L2909.15 186.34 L2903.17 184.704 L2898.05 183.069 L2893.79 181.434 L2890.36 179.798 L2887.74 178.163 L2885.87 176.528 L2884.7 174.892 L2884.17 173.257 L2884.21 171.622 L2884.74 169.986 L2885.69 168.351 L2886.97 166.716 L2888.51 165.08 L2890.21 163.445 L2892.01 161.81 L2893.82 160.175 L2895.58 158.539 L2897.23 156.904 L2898.71 155.269 L2899.99 153.633 L2901.05 151.998 L2901.86 150.363 L2902.44 148.727 L2902.8 147.092 L2902.96 145.457 L2902.96 143.821 L2902.85 142.186 L2902.67 140.551 L2902.48 138.915 L2902.31 137.28 L2902.21 135.645 L2902.22 134.01 L2902.34 132.374 L2902.6 130.739 L2902.99 129.104 L2903.5 127.468 L2904.11 125.833 L2904.8 124.198 L2905.54 122.562 L2906.29 120.927 L2907.02 119.292 L2907.71 117.656 L2908.33 116.021 L2908.88 114.386 L2909.33 112.75 L2909.69 111.115 L2909.96 109.48 L2910.16 107.845 L2910.27 106.209 L2910.33 104.574 L2910.33 102.939 L2910.27 101.303 L2910.14 99.668 L2909.95 98.0327 L2909.68 96.3974 L2909.29 94.7621 L2908.78 93.1267 L2908.12 91.4914 L2907.29 89.8561 L2906.26 88.2208 L2820.82 88.2208 L2819.79 89.8561 L2818.96 91.4914 L2818.3 93.1267 L2817.79 94.7621 L2817.41 96.3974 L2817.13 98.0327 L2816.94 99.668 L2816.82 101.303 L2816.76 102.939 L2816.75 104.574 L2816.81 106.209 L2816.93 107.845 L2817.12 109.48 L2817.39 111.115 L2817.75 112.75 L2818.21 114.386 L2818.75 116.021 L2819.37 117.656 L2820.06 119.292 L2820.79 120.927 L2821.54 122.562 L2822.28 124.198 L2822.97 125.833 L2823.58 127.468 L2824.1 129.104 L2824.49 130.739 L2824.74 132.374 L2824.87 134.01 L2824.87 135.645 L2824.77 137.28 L2824.6 138.915 L2824.41 140.551 L2824.23 142.186 L2824.12 143.821 L2824.13 145.457 L2824.29 147.092 L2824.64 148.727 L2825.22 150.363 L2826.03 151.998 L2827.09 153.633 L2828.37 155.269 L2829.85 156.904 L2831.5 158.539 L2833.26 160.175 L2835.07 161.81 L2836.87 163.445 L2838.57 165.08 L2840.11 166.716 L2841.39 168.351 L2842.34 169.986 L2842.87 171.622 L2842.91 173.257 L2842.38 174.892 L2841.22 176.528 L2839.35 178.163 L2836.72 179.798 L2833.29 181.434 L2829.03 183.069 L2823.91 184.704 L2817.93 186.34 L2811.11 187.975 L2803.46 189.61 L2795.06 191.246 L2785.96 192.881 L2776.27 194.516 L2766.09 196.151 L2755.56 197.787 L2744.82 199.422 L2734.02 201.057 L2723.34 202.693 L2712.93 204.328 L2702.96 205.963 L2693.58 207.599 L2684.93 209.234 L2677.15 210.869 L2670.34 212.505 L2664.58 214.14 L2659.96 215.775 L2656.51 217.411 L2654.26 219.046 L2653.2 220.681 L2653.34 222.316 L2654.62 223.952 L2657.02 225.587 L2660.46 227.222 L2664.89 228.858 L2670.22 230.493 L2676.36 232.128 L2683.23 233.764 L2690.74 235.399 L2698.78 237.034 L2707.25 238.67 L2716.04 240.305 L2725.06 241.94 L2734.2 243.576 L2743.35 245.211 L2752.41 246.846 L2761.28 248.481 L2769.86 250.117 L2778.05 251.752 L2785.79 253.387 L2792.98 255.023 L2799.58 256.658 L2805.53 258.293 L2810.79 259.929 L2815.34 261.564 L2819.18 263.199 L2822.32 264.835 L2824.78 266.47 L2826.61 268.105 L2827.86 269.741 L2828.61 271.376 L2828.93 273.011 L2828.91 274.646 L2828.65 276.282 L2828.23 277.917 L2827.76 279.552 L2827.31 281.188 L2826.97 282.823 L2826.8 284.458 L2826.85 286.094 L2900.23 286.094  Z" fill="#c271d2" fill-rule="evenodd" fill-opacity="1"/>
<polyline clip-path="url(#clip162)" style="stroke:#000000; stroke-linecap:round; stroke-linejoin:round; stroke-width:4; stroke-opacity:1; fill:none" points="2900.23,286.094 2900.29,284.458 2900.12,282.823 2899.77,281.188 2899.32,279.552 2898.85,277.917 2898.43,276.282 2898.17,274.646 2898.15,273.011 2898.47,271.376 2899.22,269.741 2900.47,268.105 2902.3,266.47 2904.76,264.835 2907.9,263.199 2911.74,261.564 2916.29,259.929 2921.55,258.293 2927.5,256.658 2934.1,255.023 2941.3,253.387 2949.03,251.752 2957.23,250.117 2965.8,248.481 2974.67,246.846 2983.73,245.211 2992.88,243.576 3002.02,241.94 3011.04,240.305 3019.84,238.67 3028.31,237.034 3036.35,235.399 3043.85,233.764 3050.72,232.128 3056.87,230.493 3062.19,228.858 3066.62,227.222 3070.06,225.587 3072.46,223.952 3073.75,222.316 3073.88,220.681 3072.83,219.046 3070.57,217.411 3067.12,215.775 3062.5,214.14 3056.75,212.505 3049.93,210.869 3042.15,209.234 3033.5,207.599 3024.12,205.963 3014.15,204.328 3003.74,202.693 2993.06,201.057 2982.26,199.422 2971.52,197.787 2960.99,196.151 2950.81,194.516 2941.12,192.881 2932.02,191.246 2923.62,189.61 2915.98,187.975 2909.15,186.34 2903.17,184.704 2898.05,183.069 2893.79,181.434 2890.36,179.798 2887.74,178.163 2885.87,176.528 2884.7,174.892 2884.17,173.257 2884.21,171.622 2884.74,169.986 2885.69,168.351 2886.97,166.716 2888.51,165.08 2890.21,163.445 2892.01,161.81 2893.82,160.175 2895.58,158.539 2897.23,156.904 2898.71,155.269 2899.99,153.633 2901.05,151.998 2901.86,150.363 2902.44,148.727 2902.8,147.092 2902.96,145.457 2902.96,143.821 2902.85,142.186 2902.67,140.551 2902.48,138.915 2902.31,137.28 2902.21,135.645 2902.22,134.01 2902.34,132.374 2902.6,130.739 2902.99,129.104 2903.5,127.468 2904.11,125.833 2904.8,124.198 2905.54,122.562 2906.29,120.927 2907.02,119.292 2907.71,117.656 2908.33,116.021 2908.88,114.386 2909.33,112.75 2909.69,111.115 2909.96,109.48 2910.16,107.845 2910.27,106.209 2910.33,104.574 2910.33,102.939 2910.27,101.303 2910.14,99.668 2909.95,98.0327 2909.68,96.3974 2909.29,94.7621 2908.78,93.1267 2908.12,91.4914 2907.29,89.8561 2906.26,88.2208 2820.82,88.2208 2819.79,89.8561 2818.96,91.4914 2818.3,93.1267 2817.79,94.7621 2817.41,96.3974 2817.13,98.0327 2816.94,99.668 2816.82,101.303 2816.76,102.939 2816.75,104.574 2816.81,106.209 2816.93,107.845 2817.12,109.48 2817.39,111.115 2817.75,112.75 2818.21,114.386 2818.75,116.021 2819.37,117.656 2820.06,119.292 2820.79,120.927 2821.54,122.562 2822.28,124.198 2822.97,125.833 2823.58,127.468 2824.1,129.104 2824.49,130.739 2824.74,132.374 2824.87,134.01 2824.87,135.645 2824.77,137.28 2824.6,138.915 2824.41,140.551 2824.23,142.186 2824.12,143.821 2824.13,145.457 2824.29,147.092 2824.64,148.727 2825.22,150.363 2826.03,151.998 2827.09,153.633 2828.37,155.269 2829.85,156.904 2831.5,158.539 2833.26,160.175 2835.07,161.81 2836.87,163.445 2838.57,165.08 2840.11,166.716 2841.39,168.351 2842.34,169.986 2842.87,171.622 2842.91,173.257 2842.38,174.892 2841.22,176.528 2839.35,178.163 2836.72,179.798 2833.29,181.434 2829.03,183.069 2823.91,184.704 2817.93,186.34 2811.11,187.975 2803.46,189.61 2795.06,191.246 2785.96,192.881 2776.27,194.516 2766.09,196.151 2755.56,197.787 2744.82,199.422 2734.02,201.057 2723.34,202.693 2712.93,204.328 2702.96,205.963 2693.58,207.599 2684.93,209.234 2677.15,210.869 2670.34,212.505 2664.58,214.14 2659.96,215.775 2656.51,217.411 2654.26,219.046 2653.2,220.681 2653.34,222.316 2654.62,223.952 2657.02,225.587 2660.46,227.222 2664.89,228.858 2670.22,230.493 2676.36,232.128 2683.23,233.764 2690.74,235.399 2698.78,237.034 2707.25,238.67 2716.04,240.305 2725.06,241.94 2734.2,243.576 2743.35,245.211 2752.41,246.846 2761.28,248.481 2769.86,250.117 2778.05,251.752 2785.79,253.387 2792.98,255.023 2799.58,256.658 2805.53,258.293 2810.79,259.929 2815.34,261.564 2819.18,263.199 2822.32,264.835 2824.78,266.47 2826.61,268.105 2827.86,269.741 2828.61,271.376 2828.93,273.011 2828.91,274.646 2828.65,276.282 2828.23,277.917 2827.76,279.552 2827.31,281.188 2826.97,282.823 2826.8,284.458 2826.85,286.094 2900.23,286.094 "/>
</svg>
