<?xml version="1.0" encoding="utf-8"?>
<svg xmlns="http://www.w3.org/2000/svg" xmlns:xlink="http://www.w3.org/1999/xlink" width="800" height="400" viewBox="0 0 3200 1600">
<defs>
  <clipPath id="clip330">
    <rect x="0" y="0" width="3200" height="1600"/>
  </clipPath>
</defs>
<path clip-path="url(#clip330)" d="M0 1600 L3200 1600 L3200 0 L0 0  Z" fill="#ffffff" fill-rule="evenodd" fill-opacity="1"/>
<defs>
  <clipPath id="clip331">
    <rect x="335" y="171" width="2755" height="1201"/>
  </clipPath>
</defs>
<path clip-path="url(#clip330)" d="M335.988 1371.5 L3089.76 1371.5 L3089.76 171.344 L335.988 171.344  Z" fill="#ffffff" fill-rule="evenodd" fill-opacity="1"/>
<polyline clip-path="url(#clip331)" style="stroke:#000000; stroke-linecap:round; stroke-linejoin:round; stroke-width:2; stroke-opacity:0.1; fill:none" points="797.289,1371.5 797.289,171.344 "/>
<polyline clip-path="url(#clip331)" style="stroke:#000000; stroke-linecap:round; stroke-linejoin:round; stroke-width:2; stroke-opacity:0.1; fill:none" points="1715.09,1371.5 1715.09,171.344 "/>
<polyline clip-path="url(#clip331)" style="stroke:#000000; stroke-linecap:round; stroke-linejoin:round; stroke-width:2; stroke-opacity:0.1; fill:none" points="2632.9,1371.5 2632.9,171.344 "/>
<polyline clip-path="url(#clip331)" style="stroke:#000000; stroke-linecap:round; stroke-linejoin:round; stroke-width:2; stroke-opacity:0.1; fill:none" points="335.988,1296.32 3089.76,1296.32 "/>
<polyline clip-path="url(#clip331)" style="stroke:#000000; stroke-linecap:round; stroke-linejoin:round; stroke-width:2; stroke-opacity:0.1; fill:none" points="335.988,669.859 3089.76,669.859 "/>
<polyline clip-path="url(#clip330)" style="stroke:#000000; stroke-linecap:round; stroke-linejoin:round; stroke-width:4; stroke-opacity:1; fill:none" points="335.988,1371.5 3089.76,1371.5 "/>
<polyline clip-path="url(#clip330)" style="stroke:#000000; stroke-linecap:round; stroke-linejoin:round; stroke-width:4; stroke-opacity:1; fill:none" points="797.289,1371.5 797.289,1352.6 "/>
<polyline clip-path="url(#clip330)" style="stroke:#000000; stroke-linecap:round; stroke-linejoin:round; stroke-width:4; stroke-opacity:1; fill:none" points="1715.09,1371.5 1715.09,1352.6 "/>
<polyline clip-path="url(#clip330)" style="stroke:#000000; stroke-linecap:round; stroke-linejoin:round; stroke-width:4; stroke-opacity:1; fill:none" points="2632.9,1371.5 2632.9,1352.6 "/>
<path clip-path="url(#clip330)" d="M747.554 1452.02 L755.193 1452.02 L755.193 1425.65 L746.883 1427.32 L746.883 1423.06 L755.147 1421.4 L759.823 1421.4 L759.823 1452.02 L767.462 1452.02 L767.462 1455.96 L747.554 1455.96 L747.554 1452.02 Z" fill="#000000" fill-rule="nonzero" fill-opacity="1" /><path clip-path="url(#clip330)" d="M786.906 1424.47 Q783.295 1424.47 781.466 1428.04 Q779.661 1431.58 779.661 1438.71 Q779.661 1445.82 781.466 1449.38 Q783.295 1452.92 786.906 1452.92 Q790.54 1452.92 792.346 1449.38 Q794.175 1445.82 794.175 1438.71 Q794.175 1431.58 792.346 1428.04 Q790.54 1424.47 786.906 1424.47 M786.906 1420.77 Q792.716 1420.77 795.772 1425.38 Q798.851 1429.96 798.851 1438.71 Q798.851 1447.44 795.772 1452.04 Q792.716 1456.63 786.906 1456.63 Q781.096 1456.63 778.017 1452.04 Q774.962 1447.44 774.962 1438.71 Q774.962 1429.96 778.017 1425.38 Q781.096 1420.77 786.906 1420.77 Z" fill="#000000" fill-rule="nonzero" fill-opacity="1" /><path clip-path="url(#clip330)" d="M798.851 1414.87 L822.962 1414.87 L822.962 1418.07 L798.851 1418.07 L798.851 1414.87 Z" fill="#000000" fill-rule="nonzero" fill-opacity="1" /><path clip-path="url(#clip330)" d="M834.435 1425.35 L847.694 1425.35 L847.694 1428.54 L829.865 1428.54 L829.865 1425.35 Q832.027 1423.11 835.751 1419.35 Q839.494 1415.57 840.453 1414.48 Q842.278 1412.43 842.992 1411.02 Q843.726 1409.59 843.726 1408.21 Q843.726 1405.98 842.146 1404.57 Q840.585 1403.15 838.065 1403.15 Q836.278 1403.15 834.284 1403.78 Q832.31 1404.4 830.053 1405.66 L830.053 1401.82 Q832.347 1400.9 834.341 1400.43 Q836.334 1399.96 837.989 1399.96 Q842.353 1399.96 844.948 1402.14 Q847.544 1404.32 847.544 1407.97 Q847.544 1409.7 846.886 1411.26 Q846.246 1412.8 844.535 1414.91 Q844.064 1415.45 841.544 1418.07 Q839.024 1420.66 834.435 1425.35 Z" fill="#000000" fill-rule="nonzero" fill-opacity="1" /><path clip-path="url(#clip330)" d="M1665.21 1452.02 L1672.85 1452.02 L1672.85 1425.65 L1664.54 1427.32 L1664.54 1423.06 L1672.8 1421.4 L1677.48 1421.4 L1677.48 1452.02 L1685.12 1452.02 L1685.12 1455.96 L1665.21 1455.96 L1665.21 1452.02 Z" fill="#000000" fill-rule="nonzero" fill-opacity="1" /><path clip-path="url(#clip330)" d="M1704.56 1424.47 Q1700.95 1424.47 1699.12 1428.04 Q1697.31 1431.58 1697.31 1438.71 Q1697.31 1445.82 1699.12 1449.38 Q1700.95 1452.92 1704.56 1452.92 Q1708.19 1452.92 1710 1449.38 Q1711.83 1445.82 1711.83 1438.71 Q1711.83 1431.58 1710 1428.04 Q1708.19 1424.47 1704.56 1424.47 M1704.56 1420.77 Q1710.37 1420.77 1713.43 1425.38 Q1716.5 1429.96 1716.5 1438.71 Q1716.5 1447.44 1713.43 1452.04 Q1710.37 1456.63 1704.56 1456.63 Q1698.75 1456.63 1695.67 1452.04 Q1692.62 1447.44 1692.62 1438.71 Q1692.62 1429.96 1695.67 1425.38 Q1698.75 1420.77 1704.56 1420.77 Z" fill="#000000" fill-rule="nonzero" fill-opacity="1" /><path clip-path="url(#clip330)" d="M1716.5 1414.87 L1740.62 1414.87 L1740.62 1418.07 L1716.5 1418.07 L1716.5 1414.87 Z" fill="#000000" fill-rule="nonzero" fill-opacity="1" /><path clip-path="url(#clip330)" d="M1749.47 1425.35 L1755.68 1425.35 L1755.68 1403.93 L1748.93 1405.28 L1748.93 1401.82 L1755.64 1400.46 L1759.44 1400.46 L1759.44 1425.35 L1765.65 1425.35 L1765.65 1428.54 L1749.47 1428.54 L1749.47 1425.35 Z" fill="#000000" fill-rule="nonzero" fill-opacity="1" /><path clip-path="url(#clip330)" d="M2597.88 1452.02 L2605.52 1452.02 L2605.52 1425.65 L2597.21 1427.32 L2597.21 1423.06 L2605.47 1421.4 L2610.15 1421.4 L2610.15 1452.02 L2617.79 1452.02 L2617.79 1455.96 L2597.88 1455.96 L2597.88 1452.02 Z" fill="#000000" fill-rule="nonzero" fill-opacity="1" /><path clip-path="url(#clip330)" d="M2637.23 1424.47 Q2633.62 1424.47 2631.79 1428.04 Q2629.99 1431.58 2629.99 1438.71 Q2629.99 1445.82 2631.79 1449.38 Q2633.62 1452.92 2637.23 1452.92 Q2640.87 1452.92 2642.67 1449.38 Q2644.5 1445.82 2644.5 1438.71 Q2644.5 1431.58 2642.67 1428.04 Q2640.87 1424.47 2637.23 1424.47 M2637.23 1420.77 Q2643.04 1420.77 2646.1 1425.38 Q2649.18 1429.96 2649.18 1438.71 Q2649.18 1447.44 2646.1 1452.04 Q2643.04 1456.63 2637.23 1456.63 Q2631.42 1456.63 2628.34 1452.04 Q2625.29 1447.44 2625.29 1438.71 Q2625.29 1429.96 2628.34 1425.38 Q2631.42 1420.77 2637.23 1420.77 Z" fill="#000000" fill-rule="nonzero" fill-opacity="1" /><path clip-path="url(#clip330)" d="M2658.88 1402.97 Q2655.95 1402.97 2654.46 1405.86 Q2652.99 1408.74 2652.99 1414.53 Q2652.99 1420.31 2654.46 1423.2 Q2655.95 1426.08 2658.88 1426.08 Q2661.83 1426.08 2663.3 1423.2 Q2664.79 1420.31 2664.79 1414.53 Q2664.79 1408.74 2663.3 1405.86 Q2661.83 1402.97 2658.88 1402.97 M2658.88 1399.96 Q2663.6 1399.96 2666.08 1403.7 Q2668.58 1407.42 2668.58 1414.53 Q2668.58 1421.62 2666.08 1425.37 Q2663.6 1429.09 2658.88 1429.09 Q2654.16 1429.09 2651.66 1425.37 Q2649.18 1421.62 2649.18 1414.53 Q2649.18 1407.42 2651.66 1403.7 Q2654.16 1399.96 2658.88 1399.96 Z" fill="#000000" fill-rule="nonzero" fill-opacity="1" /><path clip-path="url(#clip330)" d="M1603.21 1501.01 L1603.21 1511.14 L1615.27 1511.14 L1615.27 1515.69 L1603.21 1515.69 L1603.21 1535.04 Q1603.21 1539.4 1604.39 1540.64 Q1605.6 1541.88 1609.26 1541.88 L1615.27 1541.88 L1615.27 1546.78 L1609.26 1546.78 Q1602.48 1546.78 1599.9 1544.27 Q1597.32 1541.72 1597.32 1535.04 L1597.32 1515.69 L1593.03 1515.69 L1593.03 1511.14 L1597.32 1511.14 L1597.32 1501.01 L1603.21 1501.01 Z" fill="#000000" fill-rule="nonzero" fill-opacity="1" /><path clip-path="url(#clip330)" d="M1622.98 1511.14 L1628.83 1511.14 L1628.83 1546.78 L1622.98 1546.78 L1622.98 1511.14 M1622.98 1497.26 L1628.83 1497.26 L1628.83 1504.67 L1622.98 1504.67 L1622.98 1497.26 Z" fill="#000000" fill-rule="nonzero" fill-opacity="1" /><path clip-path="url(#clip330)" d="M1668.84 1517.98 Q1671.04 1514.03 1674.09 1512.15 Q1677.15 1510.28 1681.29 1510.28 Q1686.86 1510.28 1689.88 1514.19 Q1692.9 1518.07 1692.9 1525.27 L1692.9 1546.78 L1687.02 1546.78 L1687.02 1525.46 Q1687.02 1520.33 1685.2 1517.85 Q1683.39 1515.37 1679.66 1515.37 Q1675.11 1515.37 1672.47 1518.39 Q1669.83 1521.42 1669.83 1526.64 L1669.83 1546.78 L1663.94 1546.78 L1663.94 1525.46 Q1663.94 1520.3 1662.13 1517.85 Q1660.31 1515.37 1656.52 1515.37 Q1652.04 1515.37 1649.39 1518.42 Q1646.75 1521.45 1646.75 1526.64 L1646.75 1546.78 L1640.86 1546.78 L1640.86 1511.14 L1646.75 1511.14 L1646.75 1516.67 Q1648.76 1513.4 1651.56 1511.84 Q1654.36 1510.28 1658.21 1510.28 Q1662.09 1510.28 1664.8 1512.25 Q1667.54 1514.22 1668.84 1517.98 Z" fill="#000000" fill-rule="nonzero" fill-opacity="1" /><path clip-path="url(#clip330)" d="M1735.08 1527.5 L1735.08 1530.36 L1708.15 1530.36 Q1708.53 1536.41 1711.78 1539.59 Q1715.06 1542.74 1720.88 1542.74 Q1724.25 1542.74 1727.41 1541.91 Q1730.59 1541.09 1733.71 1539.43 L1733.71 1544.97 Q1730.56 1546.31 1727.25 1547.01 Q1723.94 1547.71 1720.53 1547.71 Q1712 1547.71 1707 1542.74 Q1702.04 1537.78 1702.04 1529.31 Q1702.04 1520.56 1706.75 1515.43 Q1711.49 1510.28 1719.51 1510.28 Q1726.71 1510.28 1730.87 1514.92 Q1735.08 1519.54 1735.08 1527.5 M1729.22 1525.78 Q1729.16 1520.97 1726.51 1518.11 Q1723.9 1515.24 1719.58 1515.24 Q1714.67 1515.24 1711.71 1518.01 Q1708.79 1520.78 1708.34 1525.81 L1729.22 1525.78 Z" fill="#000000" fill-rule="nonzero" fill-opacity="1" /><path clip-path="url(#clip330)" d="M1775.82 1499.26 L1781.23 1499.26 L1764.68 1552.83 L1759.27 1552.83 L1775.82 1499.26 Z" fill="#000000" fill-rule="nonzero" fill-opacity="1" /><path clip-path="url(#clip330)" d="M1830.82 1512.19 L1830.82 1517.72 Q1828.33 1516.45 1825.66 1515.81 Q1822.99 1515.18 1820.12 1515.18 Q1815.76 1515.18 1813.57 1516.52 Q1811.4 1517.85 1811.4 1520.53 Q1811.4 1522.56 1812.96 1523.74 Q1814.52 1524.89 1819.23 1525.94 L1821.24 1526.38 Q1827.47 1527.72 1830.08 1530.17 Q1832.73 1532.59 1832.73 1536.95 Q1832.73 1541.91 1828.78 1544.81 Q1824.86 1547.71 1817.99 1547.71 Q1815.12 1547.71 1812.01 1547.13 Q1808.92 1546.59 1805.48 1545.48 L1805.48 1539.43 Q1808.73 1541.12 1811.88 1541.98 Q1815.03 1542.81 1818.12 1542.81 Q1822.25 1542.81 1824.48 1541.41 Q1826.71 1539.97 1826.71 1537.39 Q1826.71 1535.01 1825.09 1533.73 Q1823.5 1532.46 1818.05 1531.28 L1816.02 1530.81 Q1810.57 1529.66 1808.15 1527.31 Q1805.74 1524.92 1805.74 1520.78 Q1805.74 1515.75 1809.3 1513.01 Q1812.87 1510.28 1819.42 1510.28 Q1822.67 1510.28 1825.53 1510.75 Q1828.4 1511.23 1830.82 1512.19 Z" fill="#000000" fill-rule="nonzero" fill-opacity="1" /><polyline clip-path="url(#clip330)" style="stroke:#000000; stroke-linecap:round; stroke-linejoin:round; stroke-width:4; stroke-opacity:1; fill:none" points="335.988,1371.5 335.988,171.344 "/>
<polyline clip-path="url(#clip330)" style="stroke:#000000; stroke-linecap:round; stroke-linejoin:round; stroke-width:4; stroke-opacity:1; fill:none" points="335.988,1296.32 354.885,1296.32 "/>
<polyline clip-path="url(#clip330)" style="stroke:#000000; stroke-linecap:round; stroke-linejoin:round; stroke-width:4; stroke-opacity:1; fill:none" points="335.988,669.859 354.885,669.859 "/>
<path clip-path="url(#clip330)" d="M162.044 1316.12 L169.682 1316.12 L169.682 1289.75 L161.372 1291.42 L161.372 1287.16 L169.636 1285.49 L174.312 1285.49 L174.312 1316.12 L181.951 1316.12 L181.951 1320.05 L162.044 1320.05 L162.044 1316.12 Z" fill="#000000" fill-rule="nonzero" fill-opacity="1" /><path clip-path="url(#clip330)" d="M201.395 1288.57 Q197.784 1288.57 195.955 1292.14 Q194.15 1295.68 194.15 1302.81 Q194.15 1309.91 195.955 1313.48 Q197.784 1317.02 201.395 1317.02 Q205.029 1317.02 206.835 1313.48 Q208.664 1309.91 208.664 1302.81 Q208.664 1295.68 206.835 1292.14 Q205.029 1288.57 201.395 1288.57 M201.395 1284.87 Q207.205 1284.87 210.261 1289.47 Q213.34 1294.06 213.34 1302.81 Q213.34 1311.53 210.261 1316.14 Q207.205 1320.72 201.395 1320.72 Q195.585 1320.72 192.506 1316.14 Q189.451 1311.53 189.451 1302.81 Q189.451 1294.06 192.506 1289.47 Q195.585 1284.87 201.395 1284.87 Z" fill="#000000" fill-rule="nonzero" fill-opacity="1" /><path clip-path="url(#clip330)" d="M213.34 1278.97 L237.451 1278.97 L237.451 1282.17 L213.34 1282.17 L213.34 1278.97 Z" fill="#000000" fill-rule="nonzero" fill-opacity="1" /><path clip-path="url(#clip330)" d="M246.31 1289.44 L252.516 1289.44 L252.516 1268.02 L245.764 1269.38 L245.764 1265.92 L252.479 1264.56 L256.278 1264.56 L256.278 1289.44 L262.484 1289.44 L262.484 1292.64 L246.31 1292.64 L246.31 1289.44 Z" fill="#000000" fill-rule="nonzero" fill-opacity="1" /><path clip-path="url(#clip330)" d="M278.283 1267.06 Q275.349 1267.06 273.863 1269.96 Q272.396 1272.84 272.396 1278.63 Q272.396 1284.4 273.863 1287.3 Q275.349 1290.18 278.283 1290.18 Q281.236 1290.18 282.703 1287.3 Q284.188 1284.4 284.188 1278.63 Q284.188 1272.84 282.703 1269.96 Q281.236 1267.06 278.283 1267.06 M278.283 1264.05 Q283.004 1264.05 285.486 1267.8 Q287.988 1271.52 287.988 1278.63 Q287.988 1285.72 285.486 1289.46 Q283.004 1293.19 278.283 1293.19 Q273.562 1293.19 271.061 1289.46 Q268.578 1285.72 268.578 1278.63 Q268.578 1271.52 271.061 1267.8 Q273.562 1264.05 278.283 1264.05 Z" fill="#000000" fill-rule="nonzero" fill-opacity="1" /><path clip-path="url(#clip330)" d="M187.359 689.652 L194.998 689.652 L194.998 663.286 L186.688 664.953 L186.688 660.693 L194.951 659.027 L199.627 659.027 L199.627 689.652 L207.266 689.652 L207.266 693.587 L187.359 693.587 L187.359 689.652 Z" fill="#000000" fill-rule="nonzero" fill-opacity="1" /><path clip-path="url(#clip330)" d="M226.71 662.105 Q223.099 662.105 221.271 665.67 Q219.465 669.212 219.465 676.342 Q219.465 683.448 221.271 687.013 Q223.099 690.554 226.71 690.554 Q230.345 690.554 232.15 687.013 Q233.979 683.448 233.979 676.342 Q233.979 669.212 232.15 665.67 Q230.345 662.105 226.71 662.105 M226.71 658.402 Q232.521 658.402 235.576 663.008 Q238.655 667.592 238.655 676.342 Q238.655 685.068 235.576 689.675 Q232.521 694.258 226.71 694.258 Q220.9 694.258 217.822 689.675 Q214.766 685.068 214.766 676.342 Q214.766 667.592 217.822 663.008 Q220.9 658.402 226.71 658.402 Z" fill="#000000" fill-rule="nonzero" fill-opacity="1" /><path clip-path="url(#clip330)" d="M238.655 652.503 L262.766 652.503 L262.766 655.7 L238.655 655.7 L238.655 652.503 Z" fill="#000000" fill-rule="nonzero" fill-opacity="1" /><path clip-path="url(#clip330)" d="M271.004 638.096 L285.919 638.096 L285.919 641.294 L274.484 641.294 L274.484 648.177 Q275.311 647.895 276.139 647.764 Q276.966 647.613 277.794 647.613 Q282.496 647.613 285.242 650.19 Q287.988 652.766 287.988 657.167 Q287.988 661.7 285.166 664.22 Q282.345 666.722 277.211 666.722 Q275.443 666.722 273.6 666.421 Q271.775 666.12 269.819 665.518 L269.819 661.7 Q271.512 662.622 273.318 663.073 Q275.123 663.524 277.136 663.524 Q280.389 663.524 282.289 661.813 Q284.188 660.101 284.188 657.167 Q284.188 654.233 282.289 652.522 Q280.389 650.81 277.136 650.81 Q275.612 650.81 274.089 651.149 Q272.584 651.488 271.004 652.202 L271.004 638.096 Z" fill="#000000" fill-rule="nonzero" fill-opacity="1" /><path clip-path="url(#clip330)" d="M51.5963 888.708 L51.5963 882.279 L93.7054 882.279 L93.7054 859.139 L99.1163 859.139 L99.1163 888.708 L51.5963 888.708 Z" fill="#000000" fill-rule="nonzero" fill-opacity="1" /><path clip-path="url(#clip330)" d="M95.4878 850.259 L95.4878 836.764 L99.1163 836.764 L99.1163 855.797 L95.6151 855.797 Q94.6285 854.715 92.8461 852.71 Q83.1384 841.761 80.1465 841.761 Q78.0458 841.761 76.7727 843.416 Q75.4677 845.071 75.4677 847.776 Q75.4677 849.432 76.0406 851.373 Q76.5817 853.315 77.6957 855.606 L73.7808 855.606 Q72.8896 853.155 72.444 851.055 Q71.9984 848.922 71.9984 847.108 Q71.9984 842.493 74.0991 839.724 Q76.1997 836.955 79.6372 836.955 Q84.0614 836.955 93.1007 847.49 Q94.6285 849.272 95.4878 850.259 Z" fill="#000000" fill-rule="nonzero" fill-opacity="1" /><path clip-path="url(#clip330)" d="M79.8282 775.303 L82.6928 775.303 L82.6928 802.23 Q88.7402 801.848 91.923 798.601 Q95.0741 795.323 95.0741 789.498 Q95.0741 786.125 94.2465 782.974 Q93.419 779.791 91.7639 776.671 L97.3021 776.671 Q98.6389 779.823 99.3391 783.133 Q100.039 786.443 100.039 789.849 Q100.039 798.379 95.0741 803.376 Q90.1088 808.341 81.6424 808.341 Q72.8896 808.341 67.7652 803.63 Q62.609 798.888 62.609 790.867 Q62.609 783.674 67.2559 779.504 Q71.8711 775.303 79.8282 775.303 M78.1095 781.159 Q73.3033 781.223 70.4388 783.865 Q67.5742 786.475 67.5742 790.803 Q67.5742 795.705 70.3433 798.665 Q73.1124 801.593 78.1413 802.039 L78.1095 781.159 Z" fill="#000000" fill-rule="nonzero" fill-opacity="1" /><path clip-path="url(#clip330)" d="M68.9428 745.034 Q68.3699 746.021 68.1153 747.198 Q67.8288 748.344 67.8288 749.745 Q67.8288 754.71 71.0753 757.383 Q74.29 760.025 80.3374 760.025 L99.1163 760.025 L99.1163 765.913 L63.4683 765.913 L63.4683 760.025 L69.0065 760.025 Q65.76 758.179 64.2004 755.219 Q62.609 752.259 62.609 748.026 Q62.609 747.421 62.7044 746.689 Q62.7681 745.957 62.9272 745.066 L68.9428 745.034 Z" fill="#000000" fill-rule="nonzero" fill-opacity="1" /><path clip-path="url(#clip330)" d="M68.9428 719.38 Q68.3699 720.367 68.1153 721.544 Q67.8288 722.69 67.8288 724.091 Q67.8288 729.056 71.0753 731.73 Q74.29 734.371 80.3374 734.371 L99.1163 734.371 L99.1163 740.26 L63.4683 740.26 L63.4683 734.371 L69.0065 734.371 Q65.76 732.525 64.2004 729.565 Q62.609 726.605 62.609 722.372 Q62.609 721.767 62.7044 721.035 Q62.7681 720.303 62.9272 719.412 L68.9428 719.38 Z" fill="#000000" fill-rule="nonzero" fill-opacity="1" /><path clip-path="url(#clip330)" d="M67.5742 700.856 Q67.5742 705.567 71.2663 708.304 Q74.9266 711.041 81.3241 711.041 Q87.7217 711.041 91.4138 708.336 Q95.0741 705.598 95.0741 700.856 Q95.0741 696.177 91.3819 693.44 Q87.6898 690.703 81.3241 690.703 Q74.9903 690.703 71.2981 693.44 Q67.5742 696.177 67.5742 700.856 M62.609 700.856 Q62.609 693.217 67.5742 688.857 Q72.5395 684.496 81.3241 684.496 Q90.077 684.496 95.0741 688.857 Q100.039 693.217 100.039 700.856 Q100.039 708.527 95.0741 712.887 Q90.077 717.216 81.3241 717.216 Q72.5395 717.216 67.5742 712.887 Q62.609 708.527 62.609 700.856 Z" fill="#000000" fill-rule="nonzero" fill-opacity="1" /><path clip-path="url(#clip330)" d="M68.9428 654.132 Q68.3699 655.118 68.1153 656.296 Q67.8288 657.442 67.8288 658.842 Q67.8288 663.808 71.0753 666.481 Q74.29 669.123 80.3374 669.123 L99.1163 669.123 L99.1163 675.011 L63.4683 675.011 L63.4683 669.123 L69.0065 669.123 Q65.76 667.277 64.2004 664.317 Q62.609 661.357 62.609 657.124 Q62.609 656.519 62.7044 655.787 Q62.7681 655.055 62.9272 654.163 L68.9428 654.132 Z" fill="#000000" fill-rule="nonzero" fill-opacity="1" /><path clip-path="url(#clip330)" d="M954.202 44.2197 Q956.835 45.1109 959.306 48.0275 Q961.818 50.9442 964.329 56.0483 L972.634 72.576 L963.843 72.576 L956.106 57.061 Q953.108 50.9847 950.273 48.9997 Q947.478 47.0148 942.617 47.0148 L933.705 47.0148 L933.705 72.576 L925.522 72.576 L925.522 12.096 L943.994 12.096 Q954.364 12.096 959.468 16.4305 Q964.572 20.7649 964.572 29.5149 Q964.572 35.2267 961.899 38.994 Q959.266 42.7613 954.202 44.2197 M933.705 18.8205 L933.705 40.2903 L943.994 40.2903 Q949.908 40.2903 952.906 37.5762 Q955.944 34.8216 955.944 29.5149 Q955.944 24.2082 952.906 21.5346 Q949.908 18.8205 943.994 18.8205 L933.705 18.8205 Z" fill="#000000" fill-rule="nonzero" fill-opacity="1" /><path clip-path="url(#clip330)" d="M1017.92 48.0275 L1017.92 51.6733 L983.652 51.6733 Q984.138 59.3701 988.27 63.421 Q992.443 67.4314 999.856 67.4314 Q1004.15 67.4314 1008.16 66.3781 Q1012.21 65.3249 1016.18 63.2184 L1016.18 70.267 Q1012.17 71.9684 1007.96 72.8596 Q1003.74 73.7508 999.41 73.7508 Q988.554 73.7508 982.194 67.4314 Q975.874 61.1119 975.874 50.3365 Q975.874 39.1965 981.87 32.6746 Q987.906 26.1121 998.114 26.1121 Q1007.27 26.1121 1012.58 32.0264 Q1017.92 37.9003 1017.92 48.0275 M1010.47 45.84 Q1010.39 39.7232 1007.03 36.0774 Q1003.7 32.4315 998.195 32.4315 Q991.957 32.4315 988.189 35.9558 Q984.462 39.4801 983.895 45.8805 L1010.47 45.84 Z" fill="#000000" fill-rule="nonzero" fill-opacity="1" /><path clip-path="url(#clip330)" d="M1053.13 9.54393 L1053.13 15.7418 L1046 15.7418 Q1041.99 15.7418 1040.41 17.3622 Q1038.87 18.9825 1038.87 23.1955 L1038.87 27.2059 L1051.14 27.2059 L1051.14 32.9987 L1038.87 32.9987 L1038.87 72.576 L1031.37 72.576 L1031.37 32.9987 L1024.24 32.9987 L1024.24 27.2059 L1031.37 27.2059 L1031.37 24.0462 Q1031.37 16.471 1034.9 13.0277 Q1038.42 9.54393 1046.08 9.54393 L1053.13 9.54393 Z" fill="#000000" fill-rule="nonzero" fill-opacity="1" /><path clip-path="url(#clip330)" d="M1098.17 48.0275 L1098.17 51.6733 L1063.9 51.6733 Q1064.39 59.3701 1068.52 63.421 Q1072.69 67.4314 1080.1 67.4314 Q1084.4 67.4314 1088.41 66.3781 Q1092.46 65.3249 1096.43 63.2184 L1096.43 70.267 Q1092.42 71.9684 1088.21 72.8596 Q1083.99 73.7508 1079.66 73.7508 Q1068.8 73.7508 1062.44 67.4314 Q1056.12 61.1119 1056.12 50.3365 Q1056.12 39.1965 1062.12 32.6746 Q1068.15 26.1121 1078.36 26.1121 Q1087.52 26.1121 1092.82 32.0264 Q1098.17 37.9003 1098.17 48.0275 M1090.72 45.84 Q1090.64 39.7232 1087.27 36.0774 Q1083.95 32.4315 1078.44 32.4315 Q1072.2 32.4315 1068.44 35.9558 Q1064.71 39.4801 1064.14 45.8805 L1090.72 45.84 Z" fill="#000000" fill-rule="nonzero" fill-opacity="1" /><path clip-path="url(#clip330)" d="M1136.7 34.1734 Q1135.44 33.4443 1133.94 33.1202 Q1132.48 32.7556 1130.7 32.7556 Q1124.38 32.7556 1120.98 36.8875 Q1117.62 40.9789 1117.62 48.6757 L1117.62 72.576 L1110.12 72.576 L1110.12 27.2059 L1117.62 27.2059 L1117.62 34.2544 Q1119.97 30.1225 1123.73 28.1376 Q1127.5 26.1121 1132.89 26.1121 Q1133.66 26.1121 1134.59 26.2337 Q1135.52 26.3147 1136.65 26.5172 L1136.7 34.1734 Z" fill="#000000" fill-rule="nonzero" fill-opacity="1" /><path clip-path="url(#clip330)" d="M1181.5 48.0275 L1181.5 51.6733 L1147.23 51.6733 Q1147.71 59.3701 1151.85 63.421 Q1156.02 67.4314 1163.43 67.4314 Q1167.73 67.4314 1171.74 66.3781 Q1175.79 65.3249 1179.76 63.2184 L1179.76 70.267 Q1175.75 71.9684 1171.53 72.8596 Q1167.32 73.7508 1162.99 73.7508 Q1152.13 73.7508 1145.77 67.4314 Q1139.45 61.1119 1139.45 50.3365 Q1139.45 39.1965 1145.45 32.6746 Q1151.48 26.1121 1161.69 26.1121 Q1170.84 26.1121 1176.15 32.0264 Q1181.5 37.9003 1181.5 48.0275 M1174.04 45.84 Q1173.96 39.7232 1170.6 36.0774 Q1167.28 32.4315 1161.77 32.4315 Q1155.53 32.4315 1151.76 35.9558 Q1148.04 39.4801 1147.47 45.8805 L1174.04 45.84 Z" fill="#000000" fill-rule="nonzero" fill-opacity="1" /><path clip-path="url(#clip330)" d="M1231.45 45.1919 L1231.45 72.576 L1223.99 72.576 L1223.99 45.4349 Q1223.99 38.994 1221.48 35.7938 Q1218.97 32.5936 1213.95 32.5936 Q1207.91 32.5936 1204.43 36.4419 Q1200.94 40.2903 1200.94 46.9338 L1200.94 72.576 L1193.45 72.576 L1193.45 27.2059 L1200.94 27.2059 L1200.94 34.2544 Q1203.62 30.163 1207.22 28.1376 Q1210.87 26.1121 1215.61 26.1121 Q1223.43 26.1121 1227.44 30.9732 Q1231.45 35.7938 1231.45 45.1919 Z" fill="#000000" fill-rule="nonzero" fill-opacity="1" /><path clip-path="url(#clip330)" d="M1278.96 28.9478 L1278.96 35.9153 Q1275.8 34.1734 1272.6 33.3227 Q1269.44 32.4315 1266.2 32.4315 Q1258.95 32.4315 1254.94 37.0496 Q1250.93 41.6271 1250.93 49.9314 Q1250.93 58.2358 1254.94 62.8538 Q1258.95 67.4314 1266.2 67.4314 Q1269.44 67.4314 1272.6 66.5807 Q1275.8 65.6895 1278.96 63.9476 L1278.96 70.8341 Q1275.84 72.2924 1272.48 73.0216 Q1269.16 73.7508 1265.39 73.7508 Q1255.14 73.7508 1249.11 67.3098 Q1243.07 60.8689 1243.07 49.9314 Q1243.07 38.832 1249.15 32.472 Q1255.27 26.1121 1265.88 26.1121 Q1269.32 26.1121 1272.6 26.8413 Q1275.88 27.5299 1278.96 28.9478 Z" fill="#000000" fill-rule="nonzero" fill-opacity="1" /><path clip-path="url(#clip330)" d="M1330.73 48.0275 L1330.73 51.6733 L1296.46 51.6733 Q1296.95 59.3701 1301.08 63.421 Q1305.25 67.4314 1312.67 67.4314 Q1316.96 67.4314 1320.97 66.3781 Q1325.02 65.3249 1328.99 63.2184 L1328.99 70.267 Q1324.98 71.9684 1320.77 72.8596 Q1316.56 73.7508 1312.22 73.7508 Q1301.36 73.7508 1295 67.4314 Q1288.69 61.1119 1288.69 50.3365 Q1288.69 39.1965 1294.68 32.6746 Q1300.72 26.1121 1310.92 26.1121 Q1320.08 26.1121 1325.39 32.0264 Q1330.73 37.9003 1330.73 48.0275 M1323.28 45.84 Q1323.2 39.7232 1319.84 36.0774 Q1316.51 32.4315 1311.01 32.4315 Q1304.77 32.4315 1301 35.9558 Q1297.27 39.4801 1296.71 45.8805 L1323.28 45.84 Z" fill="#000000" fill-rule="nonzero" fill-opacity="1" /><path clip-path="url(#clip330)" d="M1344.87 62.2867 L1353.42 62.2867 L1353.42 72.576 L1344.87 72.576 L1344.87 62.2867 M1344.87 29.6769 L1353.42 29.6769 L1353.42 39.9662 L1344.87 39.9662 L1344.87 29.6769 Z" fill="#000000" fill-rule="nonzero" fill-opacity="1" /><path clip-path="url(#clip330)" d="M1426.29 44.2197 Q1428.93 45.1109 1431.4 48.0275 Q1433.91 50.9442 1436.42 56.0483 L1444.73 72.576 L1435.94 72.576 L1428.2 57.061 Q1425.2 50.9847 1422.37 48.9997 Q1419.57 47.0148 1414.71 47.0148 L1405.8 47.0148 L1405.8 72.576 L1397.61 72.576 L1397.61 12.096 L1416.09 12.096 Q1426.46 12.096 1431.56 16.4305 Q1436.66 20.7649 1436.66 29.5149 Q1436.66 35.2267 1433.99 38.994 Q1431.36 42.7613 1426.29 44.2197 M1405.8 18.8205 L1405.8 40.2903 L1416.09 40.2903 Q1422 40.2903 1425 37.5762 Q1428.04 34.8216 1428.04 29.5149 Q1428.04 24.2082 1425 21.5346 Q1422 18.8205 1416.09 18.8205 L1405.8 18.8205 Z" fill="#000000" fill-rule="nonzero" fill-opacity="1" /><path clip-path="url(#clip330)" d="M1468.79 32.4315 Q1462.79 32.4315 1459.31 37.1306 Q1455.83 41.7891 1455.83 49.9314 Q1455.83 58.0738 1459.27 62.7728 Q1462.75 67.4314 1468.79 67.4314 Q1474.74 67.4314 1478.23 62.7323 Q1481.71 58.0333 1481.71 49.9314 Q1481.71 41.8701 1478.23 37.1711 Q1474.74 32.4315 1468.79 32.4315 M1468.79 26.1121 Q1478.51 26.1121 1484.06 32.4315 Q1489.61 38.7509 1489.61 49.9314 Q1489.61 61.0714 1484.06 67.4314 Q1478.51 73.7508 1468.79 73.7508 Q1459.03 73.7508 1453.48 67.4314 Q1447.97 61.0714 1447.97 49.9314 Q1447.97 38.7509 1453.48 32.4315 Q1459.03 26.1121 1468.79 26.1121 Z" fill="#000000" fill-rule="nonzero" fill-opacity="1" /><path clip-path="url(#clip330)" d="M1531.82 34.0924 L1531.82 9.54393 L1539.27 9.54393 L1539.27 72.576 L1531.82 72.576 L1531.82 65.7705 Q1529.47 69.8214 1525.87 71.8063 Q1522.3 73.7508 1517.28 73.7508 Q1509.05 73.7508 1503.87 67.1883 Q1498.72 60.6258 1498.72 49.9314 Q1498.72 39.2371 1503.87 32.6746 Q1509.05 26.1121 1517.28 26.1121 Q1522.3 26.1121 1525.87 28.0971 Q1529.47 30.0415 1531.82 34.0924 M1506.42 49.9314 Q1506.42 58.1548 1509.78 62.8538 Q1513.19 67.5124 1519.1 67.5124 Q1525.02 67.5124 1528.42 62.8538 Q1531.82 58.1548 1531.82 49.9314 Q1531.82 41.7081 1528.42 37.0496 Q1525.02 32.3505 1519.1 32.3505 Q1513.19 32.3505 1509.78 37.0496 Q1506.42 41.7081 1506.42 49.9314 Z" fill="#000000" fill-rule="nonzero" fill-opacity="1" /><path clip-path="url(#clip330)" d="M1575.25 49.7694 Q1566.21 49.7694 1562.73 51.8354 Q1559.25 53.9013 1559.25 58.8839 Q1559.25 62.8538 1561.84 65.2034 Q1564.47 67.5124 1568.97 67.5124 Q1575.17 67.5124 1578.89 63.1374 Q1582.66 58.7219 1582.66 51.4303 L1582.66 49.7694 L1575.25 49.7694 M1590.11 46.6907 L1590.11 72.576 L1582.66 72.576 L1582.66 65.6895 Q1580.11 69.8214 1576.3 71.8063 Q1572.49 73.7508 1566.98 73.7508 Q1560.01 73.7508 1555.88 69.8619 Q1551.79 65.9325 1551.79 59.3701 Q1551.79 51.7138 1556.9 47.825 Q1562.04 43.9361 1572.21 43.9361 L1582.66 43.9361 L1582.66 43.2069 Q1582.66 38.0623 1579.26 35.2672 Q1575.89 32.4315 1569.78 32.4315 Q1565.89 32.4315 1562.2 33.3632 Q1558.52 34.295 1555.11 36.1584 L1555.11 29.2718 Q1559.2 27.692 1563.05 26.9223 Q1566.9 26.1121 1570.55 26.1121 Q1580.39 26.1121 1585.25 31.2163 Q1590.11 36.3204 1590.11 46.6907 Z" fill="#000000" fill-rule="nonzero" fill-opacity="1" /><path clip-path="url(#clip330)" d="M1634.39 28.5427 L1634.39 35.5912 Q1631.23 33.9709 1627.83 33.1607 Q1624.42 32.3505 1620.78 32.3505 Q1615.23 32.3505 1612.43 34.0519 Q1609.68 35.7533 1609.68 39.156 Q1609.68 41.7486 1611.66 43.2475 Q1613.65 44.7058 1619.64 46.0426 L1622.2 46.6097 Q1630.14 48.3111 1633.46 51.4303 Q1636.82 54.509 1636.82 60.0587 Q1636.82 66.3781 1631.8 70.0644 Q1626.81 73.7508 1618.06 73.7508 Q1614.42 73.7508 1610.45 73.0216 Q1606.52 72.3329 1602.14 70.9151 L1602.14 63.2184 Q1606.28 65.3654 1610.29 66.4591 Q1614.3 67.5124 1618.23 67.5124 Q1623.49 67.5124 1626.33 65.73 Q1629.16 63.9071 1629.16 60.6258 Q1629.16 57.5877 1627.1 55.9673 Q1625.07 54.3469 1618.15 52.8481 L1615.55 52.2405 Q1608.63 50.7821 1605.55 47.7845 Q1602.47 44.7463 1602.47 39.4801 Q1602.47 33.0797 1607.01 29.5959 Q1611.54 26.1121 1619.89 26.1121 Q1624.02 26.1121 1627.66 26.7198 Q1631.31 27.3274 1634.39 28.5427 Z" fill="#000000" fill-rule="nonzero" fill-opacity="1" /><path clip-path="url(#clip330)" d="M1649.82 12.096 L1681.95 12.096 L1681.95 18.9825 L1657.32 18.9825 L1657.32 33.8088 Q1659.1 33.2012 1660.88 32.9176 Q1662.66 32.5936 1664.45 32.5936 Q1674.57 32.5936 1680.49 38.1433 Q1686.4 43.6931 1686.4 53.1722 Q1686.4 62.9348 1680.33 68.3631 Q1674.25 73.7508 1663.19 73.7508 Q1659.38 73.7508 1655.41 73.1026 Q1651.48 72.4545 1647.27 71.1582 L1647.27 62.9348 Q1650.92 64.9198 1654.81 65.892 Q1658.69 66.8642 1663.03 66.8642 Q1670.04 66.8642 1674.13 63.1779 Q1678.22 59.4916 1678.22 53.1722 Q1678.22 46.8528 1674.13 43.1664 Q1670.04 39.4801 1663.03 39.4801 Q1659.75 39.4801 1656.47 40.2093 Q1653.23 40.9384 1649.82 42.4778 L1649.82 12.096 Z" fill="#000000" fill-rule="nonzero" fill-opacity="1" /><path clip-path="url(#clip330)" d="M1709.98 18.8205 L1709.98 41.5461 L1720.27 41.5461 Q1725.98 41.5461 1729.1 38.5889 Q1732.22 35.6318 1732.22 30.163 Q1732.22 24.7348 1729.1 21.7777 Q1725.98 18.8205 1720.27 18.8205 L1709.98 18.8205 M1701.8 12.096 L1720.27 12.096 Q1730.44 12.096 1735.62 16.714 Q1740.85 21.2916 1740.85 30.163 Q1740.85 39.1155 1735.62 43.6931 Q1730.44 48.2706 1720.27 48.2706 L1709.98 48.2706 L1709.98 72.576 L1701.8 72.576 L1701.8 12.096 Z" fill="#000000" fill-rule="nonzero" fill-opacity="1" /><path clip-path="url(#clip330)" d="M1753.41 62.2867 L1761.95 62.2867 L1761.95 69.2543 L1755.31 82.2172 L1750.08 82.2172 L1753.41 69.2543 L1753.41 62.2867 Z" fill="#000000" fill-rule="nonzero" fill-opacity="1" /><path clip-path="url(#clip330)" d="M1803.96 9.54393 L1811.45 9.54393 L1811.45 46.7717 L1833.69 27.2059 L1843.21 27.2059 L1819.15 48.4326 L1844.23 72.576 L1834.5 72.576 L1811.45 50.4176 L1811.45 72.576 L1803.96 72.576 L1803.96 9.54393 Z" fill="#000000" fill-rule="nonzero" fill-opacity="1" /><path clip-path="url(#clip330)" d="M1879.63 34.9026 L1931.56 34.9026 L1931.56 41.7081 L1879.63 41.7081 L1879.63 34.9026 M1879.63 51.4303 L1931.56 51.4303 L1931.56 58.3168 L1879.63 58.3168 L1879.63 51.4303 Z" fill="#000000" fill-rule="nonzero" fill-opacity="1" /><path clip-path="url(#clip330)" d="M1977.01 65.6895 L1990.38 65.6895 L1990.38 19.5497 L1975.84 22.4663 L1975.84 15.0127 L1990.3 12.096 L1998.48 12.096 L1998.48 65.6895 L2011.85 65.6895 L2011.85 72.576 L1977.01 72.576 L1977.01 65.6895 Z" fill="#000000" fill-rule="nonzero" fill-opacity="1" /><path clip-path="url(#clip330)" d="M2045.88 17.4837 Q2039.56 17.4837 2036.36 23.7221 Q2033.2 29.92 2033.2 42.3968 Q2033.2 54.833 2036.36 61.0714 Q2039.56 67.2693 2045.88 67.2693 Q2052.24 67.2693 2055.4 61.0714 Q2058.6 54.833 2058.6 42.3968 Q2058.6 29.92 2055.4 23.7221 Q2052.24 17.4837 2045.88 17.4837 M2045.88 11.0023 Q2056.05 11.0023 2061.4 19.0636 Q2066.78 27.0843 2066.78 42.3968 Q2066.78 57.6687 2061.4 65.73 Q2056.05 73.7508 2045.88 73.7508 Q2035.71 73.7508 2030.32 65.73 Q2024.98 57.6687 2024.98 42.3968 Q2024.98 27.0843 2030.32 19.0636 Q2035.71 11.0023 2045.88 11.0023 Z" fill="#000000" fill-rule="nonzero" fill-opacity="1" /><path clip-path="url(#clip330)" d="M2098.66 17.4837 Q2092.34 17.4837 2089.14 23.7221 Q2085.98 29.92 2085.98 42.3968 Q2085.98 54.833 2089.14 61.0714 Q2092.34 67.2693 2098.66 67.2693 Q2105.02 67.2693 2108.18 61.0714 Q2111.38 54.833 2111.38 42.3968 Q2111.38 29.92 2108.18 23.7221 Q2105.02 17.4837 2098.66 17.4837 M2098.66 11.0023 Q2108.83 11.0023 2114.18 19.0636 Q2119.57 27.0843 2119.57 42.3968 Q2119.57 57.6687 2114.18 65.73 Q2108.83 73.7508 2098.66 73.7508 Q2088.5 73.7508 2083.11 65.73 Q2077.76 57.6687 2077.76 42.3968 Q2077.76 27.0843 2083.11 19.0636 Q2088.5 11.0023 2098.66 11.0023 Z" fill="#000000" fill-rule="nonzero" fill-opacity="1" /><path clip-path="url(#clip330)" d="M2151.45 17.4837 Q2145.13 17.4837 2141.93 23.7221 Q2138.77 29.92 2138.77 42.3968 Q2138.77 54.833 2141.93 61.0714 Q2145.13 67.2693 2151.45 67.2693 Q2157.81 67.2693 2160.97 61.0714 Q2164.17 54.833 2164.17 42.3968 Q2164.17 29.92 2160.97 23.7221 Q2157.81 17.4837 2151.45 17.4837 M2151.45 11.0023 Q2161.61 11.0023 2166.96 19.0636 Q2172.35 27.0843 2172.35 42.3968 Q2172.35 57.6687 2166.96 65.73 Q2161.61 73.7508 2151.45 73.7508 Q2141.28 73.7508 2135.89 65.73 Q2130.54 57.6687 2130.54 42.3968 Q2130.54 27.0843 2135.89 19.0636 Q2141.28 11.0023 2151.45 11.0023 Z" fill="#000000" fill-rule="nonzero" fill-opacity="1" /><path clip-path="url(#clip330)" d="M2204.23 17.4837 Q2197.91 17.4837 2194.71 23.7221 Q2191.55 29.92 2191.55 42.3968 Q2191.55 54.833 2194.71 61.0714 Q2197.91 67.2693 2204.23 67.2693 Q2210.59 67.2693 2213.75 61.0714 Q2216.95 54.833 2216.95 42.3968 Q2216.95 29.92 2213.75 23.7221 Q2210.59 17.4837 2204.23 17.4837 M2204.23 11.0023 Q2214.4 11.0023 2219.75 19.0636 Q2225.13 27.0843 2225.13 42.3968 Q2225.13 57.6687 2219.75 65.73 Q2214.4 73.7508 2204.23 73.7508 Q2194.06 73.7508 2188.67 65.73 Q2183.33 57.6687 2183.33 42.3968 Q2183.33 27.0843 2188.67 19.0636 Q2194.06 11.0023 2204.23 11.0023 Z" fill="#000000" fill-rule="nonzero" fill-opacity="1" /><path clip-path="url(#clip330)" d="M2239.51 62.2867 L2248.06 62.2867 L2248.06 72.576 L2239.51 72.576 L2239.51 62.2867 Z" fill="#000000" fill-rule="nonzero" fill-opacity="1" /><path clip-path="url(#clip330)" d="M2283.38 17.4837 Q2277.07 17.4837 2273.87 23.7221 Q2270.71 29.92 2270.71 42.3968 Q2270.71 54.833 2273.87 61.0714 Q2277.07 67.2693 2283.38 67.2693 Q2289.74 67.2693 2292.9 61.0714 Q2296.1 54.833 2296.1 42.3968 Q2296.1 29.92 2292.9 23.7221 Q2289.74 17.4837 2283.38 17.4837 M2283.38 11.0023 Q2293.55 11.0023 2298.9 19.0636 Q2304.29 27.0843 2304.29 42.3968 Q2304.29 57.6687 2298.9 65.73 Q2293.55 73.7508 2283.38 73.7508 Q2273.22 73.7508 2267.83 65.73 Q2262.48 57.6687 2262.48 42.3968 Q2262.48 27.0843 2267.83 19.0636 Q2273.22 11.0023 2283.38 11.0023 Z" fill="#000000" fill-rule="nonzero" fill-opacity="1" /><path clip-path="url(#clip330)" d="M2344.31 12.096 L2352.49 12.096 L2352.49 36.8875 L2382.23 36.8875 L2382.23 12.096 L2390.41 12.096 L2390.41 72.576 L2382.23 72.576 L2382.23 43.7741 L2352.49 43.7741 L2352.49 72.576 L2344.31 72.576 L2344.31 12.096 Z" fill="#000000" fill-rule="nonzero" fill-opacity="1" /><path clip-path="url(#clip330)" d="M2421.64 45.1514 Q2419.62 41.6676 2415.53 41.6676 Q2411.43 41.6676 2409.41 45.1514 Q2407.34 48.6352 2407.34 55.6027 Q2407.34 62.6108 2409.41 66.0946 Q2411.43 69.5783 2415.53 69.5783 Q2419.62 69.5783 2421.64 66.0946 Q2423.71 62.6108 2423.71 55.6027 Q2423.71 48.6352 2421.64 45.1514 M2415.53 38.0623 Q2422.05 38.0623 2425.49 42.5588 Q2428.93 47.0553 2428.93 55.6027 Q2428.93 64.1906 2425.49 68.6871 Q2422.05 73.1836 2415.53 73.1836 Q2408.96 73.1836 2405.52 68.6871 Q2402.08 64.1906 2402.08 55.6027 Q2402.08 47.0553 2405.52 42.5588 Q2408.96 38.0623 2415.53 38.0623 Z" fill="#000000" fill-rule="nonzero" fill-opacity="1" /><path clip-path="url(#clip330)" d="M2452.87 12.096 L2459.76 12.096 L2438.7 80.2727 L2431.81 80.2727 L2452.87 12.096 Z" fill="#000000" fill-rule="nonzero" fill-opacity="1" /><path clip-path="url(#clip330)" d="M2500.23 28.9478 L2500.23 35.9153 Q2497.07 34.1734 2493.87 33.3227 Q2490.71 32.4315 2487.47 32.4315 Q2480.22 32.4315 2476.21 37.0496 Q2472.2 41.6271 2472.2 49.9314 Q2472.2 58.2358 2476.21 62.8538 Q2480.22 67.4314 2487.47 67.4314 Q2490.71 67.4314 2493.87 66.5807 Q2497.07 65.6895 2500.23 63.9476 L2500.23 70.8341 Q2497.11 72.2924 2493.75 73.0216 Q2490.43 73.7508 2486.66 73.7508 Q2476.41 73.7508 2470.37 67.3098 Q2464.34 60.8689 2464.34 49.9314 Q2464.34 38.832 2470.42 32.472 Q2476.53 26.1121 2487.15 26.1121 Q2490.59 26.1121 2493.87 26.8413 Q2497.15 27.5299 2500.23 28.9478 Z" fill="#000000" fill-rule="nonzero" fill-opacity="1" /><polyline clip-path="url(#clip331)" style="stroke:#009af9; stroke-linecap:round; stroke-linejoin:round; stroke-width:8; stroke-opacity:1; fill:none" points="413.925,206.225 585.932,205.311 804.868,246.087 1150.82,311.901 1580.72,379.327 "/>
<circle clip-path="url(#clip331)" cx="413.925" cy="206.225" r="14.4" fill="#009af9" fill-rule="evenodd" fill-opacity="1" stroke="#000000" stroke-opacity="1" stroke-width="3.2"/>
<circle clip-path="url(#clip331)" cx="585.932" cy="205.311" r="14.4" fill="#009af9" fill-rule="evenodd" fill-opacity="1" stroke="#000000" stroke-opacity="1" stroke-width="3.2"/>
<circle clip-path="url(#clip331)" cx="804.868" cy="246.087" r="14.4" fill="#009af9" fill-rule="evenodd" fill-opacity="1" stroke="#000000" stroke-opacity="1" stroke-width="3.2"/>
<circle clip-path="url(#clip331)" cx="1150.82" cy="311.901" r="14.4" fill="#009af9" fill-rule="evenodd" fill-opacity="1" stroke="#000000" stroke-opacity="1" stroke-width="3.2"/>
<circle clip-path="url(#clip331)" cx="1580.72" cy="379.327" r="14.4" fill="#009af9" fill-rule="evenodd" fill-opacity="1" stroke="#000000" stroke-opacity="1" stroke-width="3.2"/>
<polyline clip-path="url(#clip331)" style="stroke:#e26f46; stroke-linecap:round; stroke-linejoin:round; stroke-width:8; stroke-opacity:1; fill:none" points="532.322,211.724 663.206,222.428 846.068,307.42 1254.68,409.539 1780.24,509.021 "/>
<path clip-path="url(#clip331)" d="M516.322 195.724 L516.322 227.724 L548.322 227.724 L548.322 195.724 L516.322 195.724 Z" fill="#e26f46" fill-rule="evenodd" fill-opacity="1" stroke="#000000" stroke-opacity="1" stroke-width="3.2"/>
<path clip-path="url(#clip331)" d="M647.206 206.428 L647.206 238.428 L679.206 238.428 L679.206 206.428 L647.206 206.428 Z" fill="#e26f46" fill-rule="evenodd" fill-opacity="1" stroke="#000000" stroke-opacity="1" stroke-width="3.2"/>
<path clip-path="url(#clip331)" d="M830.068 291.42 L830.068 323.42 L862.068 323.42 L862.068 291.42 L830.068 291.42 Z" fill="#e26f46" fill-rule="evenodd" fill-opacity="1" stroke="#000000" stroke-opacity="1" stroke-width="3.2"/>
<path clip-path="url(#clip331)" d="M1238.68 393.539 L1238.68 425.539 L1270.68 425.539 L1270.68 393.539 L1238.68 393.539 Z" fill="#e26f46" fill-rule="evenodd" fill-opacity="1" stroke="#000000" stroke-opacity="1" stroke-width="3.2"/>
<path clip-path="url(#clip331)" d="M1764.24 493.021 L1764.24 525.021 L1796.24 525.021 L1796.24 493.021 L1764.24 493.021 Z" fill="#e26f46" fill-rule="evenodd" fill-opacity="1" stroke="#000000" stroke-opacity="1" stroke-width="3.2"/>
<polyline clip-path="url(#clip331)" style="stroke:#3da44d; stroke-linecap:round; stroke-linejoin:round; stroke-width:8; stroke-opacity:1; fill:none" points="617.736,229.517 714.316,257.611 848.073,319.529 1100.05,411.322 1575.15,509.124 "/>
<path clip-path="url(#clip331)" d="M617.736 213.517 L613.976 224.333 L602.52 224.573 L611.656 231.501 L608.328 242.461 L617.736 235.917 L627.144 242.461 L623.816 231.501 L632.952 224.573 L621.496 224.333 L617.736 213.517 Z" fill="#3da44d" fill-rule="evenodd" fill-opacity="1" stroke="#000000" stroke-opacity="1" stroke-width="3.2"/>
<path clip-path="url(#clip331)" d="M714.316 241.611 L710.556 252.427 L699.1 252.667 L708.236 259.595 L704.908 270.555 L714.316 264.011 L723.724 270.555 L720.396 259.595 L729.532 252.667 L718.076 252.427 L714.316 241.611 Z" fill="#3da44d" fill-rule="evenodd" fill-opacity="1" stroke="#000000" stroke-opacity="1" stroke-width="3.2"/>
<path clip-path="url(#clip331)" d="M848.073 303.529 L844.313 314.345 L832.857 314.585 L841.993 321.513 L838.665 332.473 L848.073 325.929 L857.481 332.473 L854.153 321.513 L863.289 314.585 L851.833 314.345 L848.073 303.529 Z" fill="#3da44d" fill-rule="evenodd" fill-opacity="1" stroke="#000000" stroke-opacity="1" stroke-width="3.2"/>
<path clip-path="url(#clip331)" d="M1100.05 395.322 L1096.29 406.138 L1084.83 406.378 L1093.97 413.306 L1090.64 424.266 L1100.05 417.722 L1109.46 424.266 L1106.13 413.306 L1115.27 406.378 L1103.81 406.138 L1100.05 395.322 Z" fill="#3da44d" fill-rule="evenodd" fill-opacity="1" stroke="#000000" stroke-opacity="1" stroke-width="3.2"/>
<path clip-path="url(#clip331)" d="M1575.15 493.124 L1571.39 503.94 L1559.94 504.18 L1569.07 511.108 L1565.75 522.068 L1575.15 515.524 L1584.56 522.068 L1581.23 511.108 L1590.37 504.18 L1578.91 503.94 L1575.15 493.124 Z" fill="#3da44d" fill-rule="evenodd" fill-opacity="1" stroke="#000000" stroke-opacity="1" stroke-width="3.2"/>
<polyline clip-path="url(#clip331)" style="stroke:#c271d2; stroke-linecap:round; stroke-linejoin:round; stroke-width:8; stroke-opacity:1; fill:none" points="704.766,238.142 780.233,262.422 908.722,327.181 1091.01,423.722 1373.93,515.336 "/>
<path clip-path="url(#clip331)" d="M704.766 222.142 L688.766 238.142 L704.766 254.142 L720.766 238.142 L704.766 222.142 Z" fill="#c271d2" fill-rule="evenodd" fill-opacity="1" stroke="#000000" stroke-opacity="1" stroke-width="3.2"/>
<path clip-path="url(#clip331)" d="M780.233 246.422 L764.233 262.422 L780.233 278.422 L796.233 262.422 L780.233 246.422 Z" fill="#c271d2" fill-rule="evenodd" fill-opacity="1" stroke="#000000" stroke-opacity="1" stroke-width="3.2"/>
<path clip-path="url(#clip331)" d="M908.722 311.181 L892.722 327.181 L908.722 343.181 L924.722 327.181 L908.722 311.181 Z" fill="#c271d2" fill-rule="evenodd" fill-opacity="1" stroke="#000000" stroke-opacity="1" stroke-width="3.2"/>
<path clip-path="url(#clip331)" d="M1091.01 407.722 L1075.01 423.722 L1091.01 439.722 L1107.01 423.722 L1091.01 407.722 Z" fill="#c271d2" fill-rule="evenodd" fill-opacity="1" stroke="#000000" stroke-opacity="1" stroke-width="3.2"/>
<path clip-path="url(#clip331)" d="M1373.93 499.336 L1357.93 515.336 L1373.93 531.336 L1389.93 515.336 L1373.93 499.336 Z" fill="#c271d2" fill-rule="evenodd" fill-opacity="1" stroke="#000000" stroke-opacity="1" stroke-width="3.2"/>
<polyline clip-path="url(#clip331)" style="stroke:#ac8d18; stroke-linecap:round; stroke-linejoin:round; stroke-width:8; stroke-opacity:1; fill:none" points="725.317,237.108 892.64,289.274 1147.48,385.673 1407.41,490.331 1763.02,592.466 "/>
<path clip-path="url(#clip331)" d="M725.317 253.108 L711.461 245.108 L711.461 229.108 L725.317 221.108 L739.173 229.108 L739.173 245.108 Z" fill="#ac8d18" fill-rule="evenodd" fill-opacity="1" stroke="#000000" stroke-opacity="1" stroke-width="3.2"/>
<path clip-path="url(#clip331)" d="M892.64 305.274 L878.784 297.274 L878.784 281.274 L892.64 273.274 L906.496 281.274 L906.496 297.274 Z" fill="#ac8d18" fill-rule="evenodd" fill-opacity="1" stroke="#000000" stroke-opacity="1" stroke-width="3.2"/>
<path clip-path="url(#clip331)" d="M1147.48 401.673 L1133.62 393.673 L1133.62 377.673 L1147.48 369.673 L1161.33 377.673 L1161.33 393.673 Z" fill="#ac8d18" fill-rule="evenodd" fill-opacity="1" stroke="#000000" stroke-opacity="1" stroke-width="3.2"/>
<path clip-path="url(#clip331)" d="M1407.41 506.331 L1393.55 498.331 L1393.55 482.331 L1407.41 474.331 L1421.26 482.331 L1421.26 498.331 Z" fill="#ac8d18" fill-rule="evenodd" fill-opacity="1" stroke="#000000" stroke-opacity="1" stroke-width="3.2"/>
<path clip-path="url(#clip331)" d="M1763.02 608.466 L1749.17 600.466 L1749.17 584.466 L1763.02 576.466 L1776.88 584.466 L1776.88 600.466 Z" fill="#ac8d18" fill-rule="evenodd" fill-opacity="1" stroke="#000000" stroke-opacity="1" stroke-width="3.2"/>
<polyline clip-path="url(#clip331)" style="stroke:#00a9ad; stroke-linecap:round; stroke-linejoin:round; stroke-width:8; stroke-opacity:1; fill:none" points="1862.63,734.19 2232.8,859.509 2540.82,983.51 2778.32,1105.27 3011.83,1229.46 "/>
<line clip-path="url(#clip331)" x1="1862.63" y1="734.19" x2="1862.63" y2="718.19" style="stroke:#00a9ad; stroke-width:8; stroke-opacity:1"/>
<line clip-path="url(#clip331)" x1="1862.63" y1="734.19" x2="1846.63" y2="734.19" style="stroke:#00a9ad; stroke-width:8; stroke-opacity:1"/>
<line clip-path="url(#clip331)" x1="1862.63" y1="734.19" x2="1862.63" y2="750.19" style="stroke:#00a9ad; stroke-width:8; stroke-opacity:1"/>
<line clip-path="url(#clip331)" x1="1862.63" y1="734.19" x2="1878.63" y2="734.19" style="stroke:#00a9ad; stroke-width:8; stroke-opacity:1"/>
<line clip-path="url(#clip331)" x1="2232.8" y1="859.509" x2="2232.8" y2="843.509" style="stroke:#00a9ad; stroke-width:8; stroke-opacity:1"/>
<line clip-path="url(#clip331)" x1="2232.8" y1="859.509" x2="2216.8" y2="859.509" style="stroke:#00a9ad; stroke-width:8; stroke-opacity:1"/>
<line clip-path="url(#clip331)" x1="2232.8" y1="859.509" x2="2232.8" y2="875.509" style="stroke:#00a9ad; stroke-width:8; stroke-opacity:1"/>
<line clip-path="url(#clip331)" x1="2232.8" y1="859.509" x2="2248.8" y2="859.509" style="stroke:#00a9ad; stroke-width:8; stroke-opacity:1"/>
<line clip-path="url(#clip331)" x1="2540.82" y1="983.51" x2="2540.82" y2="967.51" style="stroke:#00a9ad; stroke-width:8; stroke-opacity:1"/>
<line clip-path="url(#clip331)" x1="2540.82" y1="983.51" x2="2524.82" y2="983.51" style="stroke:#00a9ad; stroke-width:8; stroke-opacity:1"/>
<line clip-path="url(#clip331)" x1="2540.82" y1="983.51" x2="2540.82" y2="999.51" style="stroke:#00a9ad; stroke-width:8; stroke-opacity:1"/>
<line clip-path="url(#clip331)" x1="2540.82" y1="983.51" x2="2556.82" y2="983.51" style="stroke:#00a9ad; stroke-width:8; stroke-opacity:1"/>
<line clip-path="url(#clip331)" x1="2778.32" y1="1105.27" x2="2778.32" y2="1089.27" style="stroke:#00a9ad; stroke-width:8; stroke-opacity:1"/>
<line clip-path="url(#clip331)" x1="2778.32" y1="1105.27" x2="2762.32" y2="1105.27" style="stroke:#00a9ad; stroke-width:8; stroke-opacity:1"/>
<line clip-path="url(#clip331)" x1="2778.32" y1="1105.27" x2="2778.32" y2="1121.27" style="stroke:#00a9ad; stroke-width:8; stroke-opacity:1"/>
<line clip-path="url(#clip331)" x1="2778.32" y1="1105.27" x2="2794.32" y2="1105.27" style="stroke:#00a9ad; stroke-width:8; stroke-opacity:1"/>
<line clip-path="url(#clip331)" x1="3011.83" y1="1229.46" x2="3011.83" y2="1213.46" style="stroke:#00a9ad; stroke-width:8; stroke-opacity:1"/>
<line clip-path="url(#clip331)" x1="3011.83" y1="1229.46" x2="2995.83" y2="1229.46" style="stroke:#00a9ad; stroke-width:8; stroke-opacity:1"/>
<line clip-path="url(#clip331)" x1="3011.83" y1="1229.46" x2="3011.83" y2="1245.46" style="stroke:#00a9ad; stroke-width:8; stroke-opacity:1"/>
<line clip-path="url(#clip331)" x1="3011.83" y1="1229.46" x2="3027.83" y2="1229.46" style="stroke:#00a9ad; stroke-width:8; stroke-opacity:1"/>
<polyline clip-path="url(#clip331)" style="stroke:#ed5d92; stroke-linecap:round; stroke-linejoin:round; stroke-width:8; stroke-opacity:1; fill:none" points="1605.66,803.422 2000.88,916.165 2325.07,1030.81 2535,1142.55 2708.74,1316.85 "/>
<line clip-path="url(#clip331)" x1="1605.66" y1="803.422" x2="1589.66" y2="787.422" style="stroke:#ed5d92; stroke-width:8; stroke-opacity:1"/>
<line clip-path="url(#clip331)" x1="1605.66" y1="803.422" x2="1589.66" y2="819.422" style="stroke:#ed5d92; stroke-width:8; stroke-opacity:1"/>
<line clip-path="url(#clip331)" x1="1605.66" y1="803.422" x2="1621.66" y2="819.422" style="stroke:#ed5d92; stroke-width:8; stroke-opacity:1"/>
<line clip-path="url(#clip331)" x1="1605.66" y1="803.422" x2="1621.66" y2="787.422" style="stroke:#ed5d92; stroke-width:8; stroke-opacity:1"/>
<line clip-path="url(#clip331)" x1="2000.88" y1="916.165" x2="1984.88" y2="900.165" style="stroke:#ed5d92; stroke-width:8; stroke-opacity:1"/>
<line clip-path="url(#clip331)" x1="2000.88" y1="916.165" x2="1984.88" y2="932.165" style="stroke:#ed5d92; stroke-width:8; stroke-opacity:1"/>
<line clip-path="url(#clip331)" x1="2000.88" y1="916.165" x2="2016.88" y2="932.165" style="stroke:#ed5d92; stroke-width:8; stroke-opacity:1"/>
<line clip-path="url(#clip331)" x1="2000.88" y1="916.165" x2="2016.88" y2="900.165" style="stroke:#ed5d92; stroke-width:8; stroke-opacity:1"/>
<line clip-path="url(#clip331)" x1="2325.07" y1="1030.81" x2="2309.07" y2="1014.81" style="stroke:#ed5d92; stroke-width:8; stroke-opacity:1"/>
<line clip-path="url(#clip331)" x1="2325.07" y1="1030.81" x2="2309.07" y2="1046.81" style="stroke:#ed5d92; stroke-width:8; stroke-opacity:1"/>
<line clip-path="url(#clip331)" x1="2325.07" y1="1030.81" x2="2341.07" y2="1046.81" style="stroke:#ed5d92; stroke-width:8; stroke-opacity:1"/>
<line clip-path="url(#clip331)" x1="2325.07" y1="1030.81" x2="2341.07" y2="1014.81" style="stroke:#ed5d92; stroke-width:8; stroke-opacity:1"/>
<line clip-path="url(#clip331)" x1="2535" y1="1142.55" x2="2519" y2="1126.55" style="stroke:#ed5d92; stroke-width:8; stroke-opacity:1"/>
<line clip-path="url(#clip331)" x1="2535" y1="1142.55" x2="2519" y2="1158.55" style="stroke:#ed5d92; stroke-width:8; stroke-opacity:1"/>
<line clip-path="url(#clip331)" x1="2535" y1="1142.55" x2="2551" y2="1158.55" style="stroke:#ed5d92; stroke-width:8; stroke-opacity:1"/>
<line clip-path="url(#clip331)" x1="2535" y1="1142.55" x2="2551" y2="1126.55" style="stroke:#ed5d92; stroke-width:8; stroke-opacity:1"/>
<line clip-path="url(#clip331)" x1="2708.74" y1="1316.85" x2="2692.74" y2="1300.85" style="stroke:#ed5d92; stroke-width:8; stroke-opacity:1"/>
<line clip-path="url(#clip331)" x1="2708.74" y1="1316.85" x2="2692.74" y2="1332.85" style="stroke:#ed5d92; stroke-width:8; stroke-opacity:1"/>
<line clip-path="url(#clip331)" x1="2708.74" y1="1316.85" x2="2724.74" y2="1332.85" style="stroke:#ed5d92; stroke-width:8; stroke-opacity:1"/>
<line clip-path="url(#clip331)" x1="2708.74" y1="1316.85" x2="2724.74" y2="1300.85" style="stroke:#ed5d92; stroke-width:8; stroke-opacity:1"/>
<polyline clip-path="url(#clip331)" style="stroke:#c68125; stroke-linecap:round; stroke-linejoin:round; stroke-width:8; stroke-opacity:1; fill:none" points="1723.55,847.992 2162.24,954.479 2483.23,1055.95 2740.26,1145.83 2905.62,1337.53 "/>
<path clip-path="url(#clip331)" d="M1723.55 831.992 L1707.55 863.992 L1739.55 863.992 L1723.55 831.992 Z" fill="#c68125" fill-rule="evenodd" fill-opacity="1" stroke="#000000" stroke-opacity="1" stroke-width="3.2"/>
<path clip-path="url(#clip331)" d="M2162.24 938.479 L2146.24 970.479 L2178.24 970.479 L2162.24 938.479 Z" fill="#c68125" fill-rule="evenodd" fill-opacity="1" stroke="#000000" stroke-opacity="1" stroke-width="3.2"/>
<path clip-path="url(#clip331)" d="M2483.23 1039.95 L2467.23 1071.95 L2499.23 1071.95 L2483.23 1039.95 Z" fill="#c68125" fill-rule="evenodd" fill-opacity="1" stroke="#000000" stroke-opacity="1" stroke-width="3.2"/>
<path clip-path="url(#clip331)" d="M2740.26 1129.83 L2724.26 1161.83 L2756.26 1161.83 L2740.26 1129.83 Z" fill="#c68125" fill-rule="evenodd" fill-opacity="1" stroke="#000000" stroke-opacity="1" stroke-width="3.2"/>
<path clip-path="url(#clip331)" d="M2905.62 1321.53 L2889.62 1353.53 L2921.62 1353.53 L2905.62 1321.53 Z" fill="#c68125" fill-rule="evenodd" fill-opacity="1" stroke="#000000" stroke-opacity="1" stroke-width="3.2"/>
<polyline clip-path="url(#clip331)" style="stroke:#00a98d; stroke-linecap:round; stroke-linejoin:round; stroke-width:8; stroke-opacity:1; fill:none" points="2354.28,608.535 2307.52,724.735 2428.74,785.012 2353,916.711 2551.94,1022.17 "/>
<path clip-path="url(#clip331)" d="M2370.28 592.535 L2338.28 592.535 L2354.28 624.535 L2370.28 592.535 Z" fill="#00a98d" fill-rule="evenodd" fill-opacity="1" stroke="#000000" stroke-opacity="1" stroke-width="3.2"/>
<path clip-path="url(#clip331)" d="M2323.52 708.735 L2291.52 708.735 L2307.52 740.735 L2323.52 708.735 Z" fill="#00a98d" fill-rule="evenodd" fill-opacity="1" stroke="#000000" stroke-opacity="1" stroke-width="3.2"/>
<path clip-path="url(#clip331)" d="M2444.74 769.012 L2412.74 769.012 L2428.74 801.012 L2444.74 769.012 Z" fill="#00a98d" fill-rule="evenodd" fill-opacity="1" stroke="#000000" stroke-opacity="1" stroke-width="3.2"/>
<path clip-path="url(#clip331)" d="M2369 900.711 L2337 900.711 L2353 932.711 L2369 900.711 Z" fill="#00a98d" fill-rule="evenodd" fill-opacity="1" stroke="#000000" stroke-opacity="1" stroke-width="3.2"/>
<path clip-path="url(#clip331)" d="M2567.94 1006.17 L2535.94 1006.17 L2551.94 1038.17 L2567.94 1006.17 Z" fill="#00a98d" fill-rule="evenodd" fill-opacity="1" stroke="#000000" stroke-opacity="1" stroke-width="3.2"/>
<polyline clip-path="url(#clip331)" style="stroke:#8e971d; stroke-linecap:round; stroke-linejoin:round; stroke-width:8; stroke-opacity:1; fill:none" points="2168.91,637.639 2207.78,773.468 2339.83,913.375 2551.09,995.35 2785.28,1138.65 "/>
<path clip-path="url(#clip331)" d="M2181.71 637.639 L2162.51 626.439 L2162.51 648.839 L2181.71 637.639 Z" fill="#8e971d" fill-rule="evenodd" fill-opacity="1" stroke="#000000" stroke-opacity="1" stroke-width="3.2"/>
<path clip-path="url(#clip331)" d="M2220.58 773.468 L2201.38 762.268 L2201.38 784.668 L2220.58 773.468 Z" fill="#8e971d" fill-rule="evenodd" fill-opacity="1" stroke="#000000" stroke-opacity="1" stroke-width="3.2"/>
<path clip-path="url(#clip331)" d="M2352.63 913.375 L2333.43 902.175 L2333.43 924.575 L2352.63 913.375 Z" fill="#8e971d" fill-rule="evenodd" fill-opacity="1" stroke="#000000" stroke-opacity="1" stroke-width="3.2"/>
<path clip-path="url(#clip331)" d="M2563.89 995.35 L2544.69 984.15 L2544.69 1006.55 L2563.89 995.35 Z" fill="#8e971d" fill-rule="evenodd" fill-opacity="1" stroke="#000000" stroke-opacity="1" stroke-width="3.2"/>
<path clip-path="url(#clip331)" d="M2798.08 1138.65 L2778.88 1127.45 L2778.88 1149.85 L2798.08 1138.65 Z" fill="#8e971d" fill-rule="evenodd" fill-opacity="1" stroke="#000000" stroke-opacity="1" stroke-width="3.2"/>
<path clip-path="url(#clip330)" d="M2471.3 781.589 L2997.97 781.589 L2997.97 211.349 L2471.3 211.349  Z" fill="#ffffff" fill-rule="evenodd" fill-opacity="1"/>
<polyline clip-path="url(#clip330)" style="stroke:#000000; stroke-linecap:round; stroke-linejoin:round; stroke-width:4; stroke-opacity:1; fill:none" points="2471.3,781.589 2997.97,781.589 2997.97,211.349 2471.3,211.349 2471.3,781.589 "/>
<polyline clip-path="url(#clip330)" style="stroke:#009af9; stroke-linecap:round; stroke-linejoin:round; stroke-width:8; stroke-opacity:1; fill:none" points="2501.9,263.189 2685.48,263.189 "/>
<circle clip-path="url(#clip330)" cx="2593.69" cy="263.189" r="20.48" fill="#009af9" fill-rule="evenodd" fill-opacity="1" stroke="#000000" stroke-opacity="1" stroke-width="4.55111"/>
<path clip-path="url(#clip330)" d="M2716.08 245.909 L2745.31 245.909 L2745.31 249.844 L2733.05 249.844 L2733.05 280.469 L2728.35 280.469 L2728.35 249.844 L2716.08 249.844 L2716.08 245.909 Z" fill="#000000" fill-rule="nonzero" fill-opacity="1" /><path clip-path="url(#clip330)" d="M2766.22 264.266 Q2767.72 264.775 2769.13 266.442 Q2770.57 268.108 2772 271.025 L2776.75 280.469 L2771.73 280.469 L2767.31 271.604 Q2765.59 268.131 2763.97 266.997 Q2762.37 265.863 2759.6 265.863 L2754.5 265.863 L2754.5 280.469 L2749.83 280.469 L2749.83 245.909 L2760.38 245.909 Q2766.31 245.909 2769.23 248.386 Q2772.14 250.863 2772.14 255.863 Q2772.14 259.127 2770.62 261.28 Q2769.11 263.432 2766.22 264.266 M2754.5 249.752 L2754.5 262.02 L2760.38 262.02 Q2763.76 262.02 2765.48 260.469 Q2767.21 258.895 2767.21 255.863 Q2767.21 252.831 2765.48 251.303 Q2763.76 249.752 2760.38 249.752 L2754.5 249.752 Z" fill="#000000" fill-rule="nonzero" fill-opacity="1" /><path clip-path="url(#clip330)" d="M2787.44 263.965 L2787.44 276.627 L2794.94 276.627 Q2798.72 276.627 2800.52 275.076 Q2802.35 273.502 2802.35 270.284 Q2802.35 267.043 2800.52 265.516 Q2798.72 263.965 2794.94 263.965 L2787.44 263.965 M2787.44 249.752 L2787.44 260.168 L2794.37 260.168 Q2797.79 260.168 2799.46 258.895 Q2801.15 257.599 2801.15 254.96 Q2801.15 252.344 2799.46 251.048 Q2797.79 249.752 2794.37 249.752 L2787.44 249.752 M2782.77 245.909 L2794.71 245.909 Q2800.06 245.909 2802.95 248.131 Q2805.85 250.354 2805.85 254.451 Q2805.85 257.622 2804.37 259.497 Q2802.88 261.372 2800.01 261.835 Q2803.46 262.576 2805.36 264.937 Q2807.28 267.275 2807.28 270.793 Q2807.28 275.423 2804.13 277.946 Q2800.99 280.469 2795.18 280.469 L2782.77 280.469 L2782.77 245.909 Z" fill="#000000" fill-rule="nonzero" fill-opacity="1" /><path clip-path="url(#clip330)" d="M2819.97 249.752 L2819.97 276.627 L2825.62 276.627 Q2832.77 276.627 2836.08 273.386 Q2839.41 270.145 2839.41 263.155 Q2839.41 256.21 2836.08 252.993 Q2832.77 249.752 2825.62 249.752 L2819.97 249.752 M2815.29 245.909 L2824.9 245.909 Q2834.94 245.909 2839.64 250.099 Q2844.34 254.266 2844.34 263.155 Q2844.34 272.09 2839.62 276.279 Q2834.9 280.469 2824.9 280.469 L2815.29 280.469 L2815.29 245.909 Z" fill="#000000" fill-rule="nonzero" fill-opacity="1" /><path clip-path="url(#clip330)" d="M2851.8 245.909 L2871.66 245.909 L2871.66 249.844 L2856.47 249.844 L2856.47 260.03 L2870.18 260.03 L2870.18 263.965 L2856.47 263.965 L2856.47 280.469 L2851.8 280.469 L2851.8 245.909 Z" fill="#000000" fill-rule="nonzero" fill-opacity="1" /><path clip-path="url(#clip330)" d="M2883.51 276.534 L2899.83 276.534 L2899.83 280.469 L2877.88 280.469 L2877.88 276.534 Q2880.55 273.78 2885.13 269.15 Q2889.74 264.497 2890.92 263.155 Q2893.16 260.631 2894.04 258.895 Q2894.94 257.136 2894.94 255.446 Q2894.94 252.692 2893 250.956 Q2891.08 249.219 2887.98 249.219 Q2885.78 249.219 2883.32 249.983 Q2880.89 250.747 2878.11 252.298 L2878.11 247.576 Q2880.94 246.442 2883.39 245.863 Q2885.85 245.284 2887.88 245.284 Q2893.25 245.284 2896.45 247.969 Q2899.64 250.655 2899.64 255.145 Q2899.64 257.275 2898.83 259.196 Q2898.05 261.094 2895.94 263.687 Q2895.36 264.358 2892.26 267.576 Q2889.16 270.77 2883.51 276.534 Z" fill="#000000" fill-rule="nonzero" fill-opacity="1" /><polyline clip-path="url(#clip330)" style="stroke:#e26f46; stroke-linecap:round; stroke-linejoin:round; stroke-width:8; stroke-opacity:1; fill:none" points="2501.9,315.029 2685.48,315.029 "/>
<path clip-path="url(#clip330)" d="M2570.93 292.274 L2570.93 337.785 L2616.44 337.785 L2616.44 292.274 L2570.93 292.274 Z" fill="#e26f46" fill-rule="evenodd" fill-opacity="1" stroke="#000000" stroke-opacity="1" stroke-width="4.55111"/>
<path clip-path="url(#clip330)" d="M2716.08 297.749 L2720.75 297.749 L2720.75 312.356 L2736.26 297.749 L2742.28 297.749 L2725.13 313.86 L2743.51 332.309 L2737.35 332.309 L2720.75 315.666 L2720.75 332.309 L2716.08 332.309 L2716.08 297.749 Z" fill="#000000" fill-rule="nonzero" fill-opacity="1" /><path clip-path="url(#clip330)" d="M2766.8 318.282 L2766.8 320.365 L2747.21 320.365 Q2747.49 324.763 2749.85 327.078 Q2752.24 329.369 2756.47 329.369 Q2758.93 329.369 2761.22 328.768 Q2763.53 328.166 2765.8 326.962 L2765.8 330.99 Q2763.51 331.962 2761.1 332.471 Q2758.69 332.981 2756.22 332.981 Q2750.01 332.981 2746.38 329.369 Q2742.77 325.758 2742.77 319.601 Q2742.77 313.235 2746.19 309.508 Q2749.64 305.759 2755.48 305.759 Q2760.71 305.759 2763.74 309.138 Q2766.8 312.495 2766.8 318.282 M2762.54 317.032 Q2762.49 313.536 2760.57 311.453 Q2758.67 309.37 2755.52 309.37 Q2751.96 309.37 2749.81 311.383 Q2747.68 313.397 2747.35 317.055 L2762.54 317.032 Z" fill="#000000" fill-rule="nonzero" fill-opacity="1" /><path clip-path="url(#clip330)" d="M2795.34 316.661 L2795.34 332.309 L2791.08 332.309 L2791.08 316.8 Q2791.08 313.12 2789.64 311.291 Q2788.21 309.462 2785.34 309.462 Q2781.89 309.462 2779.9 311.661 Q2777.91 313.86 2777.91 317.657 L2777.91 332.309 L2773.62 332.309 L2773.62 306.384 L2777.91 306.384 L2777.91 310.411 Q2779.43 308.073 2781.5 306.916 Q2783.58 305.759 2786.29 305.759 Q2790.75 305.759 2793.05 308.536 Q2795.34 311.291 2795.34 316.661 Z" fill="#000000" fill-rule="nonzero" fill-opacity="1" /><path clip-path="url(#clip330)" d="M2829.9 300.411 L2829.9 305.342 Q2827.54 303.143 2824.85 302.055 Q2822.19 300.967 2819.18 300.967 Q2813.25 300.967 2810.11 304.601 Q2806.96 308.212 2806.96 315.064 Q2806.96 321.893 2810.11 325.527 Q2813.25 329.138 2819.18 329.138 Q2822.19 329.138 2824.85 328.05 Q2827.54 326.962 2829.9 324.763 L2829.9 329.647 Q2827.44 331.314 2824.69 332.147 Q2821.96 332.981 2818.9 332.981 Q2811.06 332.981 2806.54 328.189 Q2802.03 323.374 2802.03 315.064 Q2802.03 306.731 2806.54 301.939 Q2811.06 297.124 2818.9 297.124 Q2822 297.124 2824.74 297.958 Q2827.49 298.768 2829.9 300.411 Z" fill="#000000" fill-rule="nonzero" fill-opacity="1" /><path clip-path="url(#clip330)" d="M2848.72 319.277 Q2843.55 319.277 2841.56 320.457 Q2839.57 321.638 2839.57 324.485 Q2839.57 326.754 2841.05 328.096 Q2842.56 329.416 2845.13 329.416 Q2848.67 329.416 2850.8 326.916 Q2852.95 324.393 2852.95 320.226 L2852.95 319.277 L2848.72 319.277 M2857.21 317.518 L2857.21 332.309 L2852.95 332.309 L2852.95 328.374 Q2851.49 330.735 2849.32 331.869 Q2847.14 332.981 2843.99 332.981 Q2840.01 332.981 2837.65 330.758 Q2835.31 328.513 2835.31 324.763 Q2835.31 320.388 2838.23 318.166 Q2841.17 315.944 2846.98 315.944 L2852.95 315.944 L2852.95 315.527 Q2852.95 312.587 2851.01 310.99 Q2849.09 309.37 2845.59 309.37 Q2843.37 309.37 2841.26 309.902 Q2839.16 310.434 2837.21 311.499 L2837.21 307.564 Q2839.55 306.661 2841.75 306.221 Q2843.95 305.759 2846.03 305.759 Q2851.66 305.759 2854.43 308.675 Q2857.21 311.592 2857.21 317.518 Z" fill="#000000" fill-rule="nonzero" fill-opacity="1" /><path clip-path="url(#clip330)" d="M2881.01 310.365 Q2880.29 309.948 2879.43 309.763 Q2878.6 309.555 2877.58 309.555 Q2873.97 309.555 2872.03 311.916 Q2870.11 314.254 2870.11 318.652 L2870.11 332.309 L2865.82 332.309 L2865.82 306.384 L2870.11 306.384 L2870.11 310.411 Q2871.45 308.05 2873.6 306.916 Q2875.75 305.759 2878.83 305.759 Q2879.27 305.759 2879.8 305.828 Q2880.34 305.874 2880.99 305.99 L2881.01 310.365 Z" fill="#000000" fill-rule="nonzero" fill-opacity="1" /><path clip-path="url(#clip330)" d="M2889.6 328.42 L2889.6 342.17 L2885.31 342.17 L2885.31 306.384 L2889.6 306.384 L2889.6 310.319 Q2890.94 308.004 2892.98 306.893 Q2895.04 305.759 2897.88 305.759 Q2902.61 305.759 2905.55 309.508 Q2908.51 313.258 2908.51 319.37 Q2908.51 325.481 2905.55 329.231 Q2902.61 332.981 2897.88 332.981 Q2895.04 332.981 2892.98 331.869 Q2890.94 330.735 2889.6 328.42 M2904.09 319.37 Q2904.09 314.67 2902.14 312.008 Q2900.22 309.323 2896.84 309.323 Q2893.46 309.323 2891.52 312.008 Q2889.6 314.67 2889.6 319.37 Q2889.6 324.069 2891.52 326.754 Q2893.46 329.416 2896.84 329.416 Q2900.22 329.416 2902.14 326.754 Q2904.09 324.069 2904.09 319.37 Z" fill="#000000" fill-rule="nonzero" fill-opacity="1" /><path clip-path="url(#clip330)" d="M2929.02 301.823 L2917.21 320.272 L2929.02 320.272 L2929.02 301.823 M2927.79 297.749 L2933.67 297.749 L2933.67 320.272 L2938.6 320.272 L2938.6 324.161 L2933.67 324.161 L2933.67 332.309 L2929.02 332.309 L2929.02 324.161 L2913.42 324.161 L2913.42 319.647 L2927.79 297.749 Z" fill="#000000" fill-rule="nonzero" fill-opacity="1" /><polyline clip-path="url(#clip330)" style="stroke:#3da44d; stroke-linecap:round; stroke-linejoin:round; stroke-width:8; stroke-opacity:1; fill:none" points="2501.9,366.869 2685.48,366.869 "/>
<path clip-path="url(#clip330)" d="M2593.69 344.114 L2588.34 359.496 L2572.05 359.838 L2585.04 369.691 L2580.31 385.279 L2593.69 375.972 L2607.07 385.279 L2602.34 369.691 L2615.33 359.838 L2599.04 359.496 L2593.69 344.114 Z" fill="#3da44d" fill-rule="evenodd" fill-opacity="1" stroke="#000000" stroke-opacity="1" stroke-width="4.55111"/>
<path clip-path="url(#clip330)" d="M2716.08 349.589 L2720.75 349.589 L2720.75 364.196 L2736.26 349.589 L2742.28 349.589 L2725.13 365.7 L2743.51 384.149 L2737.35 384.149 L2720.75 367.506 L2720.75 384.149 L2716.08 384.149 L2716.08 349.589 Z" fill="#000000" fill-rule="nonzero" fill-opacity="1" /><path clip-path="url(#clip330)" d="M2766.8 370.122 L2766.8 372.205 L2747.21 372.205 Q2747.49 376.603 2749.85 378.918 Q2752.24 381.209 2756.47 381.209 Q2758.93 381.209 2761.22 380.608 Q2763.53 380.006 2765.8 378.802 L2765.8 382.83 Q2763.51 383.802 2761.1 384.311 Q2758.69 384.821 2756.22 384.821 Q2750.01 384.821 2746.38 381.209 Q2742.77 377.598 2742.77 371.441 Q2742.77 365.075 2746.19 361.348 Q2749.64 357.599 2755.48 357.599 Q2760.71 357.599 2763.74 360.978 Q2766.8 364.335 2766.8 370.122 M2762.54 368.872 Q2762.49 365.376 2760.57 363.293 Q2758.67 361.21 2755.52 361.21 Q2751.96 361.21 2749.81 363.223 Q2747.68 365.237 2747.35 368.895 L2762.54 368.872 Z" fill="#000000" fill-rule="nonzero" fill-opacity="1" /><path clip-path="url(#clip330)" d="M2795.34 368.501 L2795.34 384.149 L2791.08 384.149 L2791.08 368.64 Q2791.08 364.96 2789.64 363.131 Q2788.21 361.302 2785.34 361.302 Q2781.89 361.302 2779.9 363.501 Q2777.91 365.7 2777.91 369.497 L2777.91 384.149 L2773.62 384.149 L2773.62 358.224 L2777.91 358.224 L2777.91 362.251 Q2779.43 359.913 2781.5 358.756 Q2783.58 357.599 2786.29 357.599 Q2790.75 357.599 2793.05 360.376 Q2795.34 363.131 2795.34 368.501 Z" fill="#000000" fill-rule="nonzero" fill-opacity="1" /><path clip-path="url(#clip330)" d="M2829.9 352.251 L2829.9 357.182 Q2827.54 354.983 2824.85 353.895 Q2822.19 352.807 2819.18 352.807 Q2813.25 352.807 2810.11 356.441 Q2806.96 360.052 2806.96 366.904 Q2806.96 373.733 2810.11 377.367 Q2813.25 380.978 2819.18 380.978 Q2822.19 380.978 2824.85 379.89 Q2827.54 378.802 2829.9 376.603 L2829.9 381.487 Q2827.44 383.154 2824.69 383.987 Q2821.96 384.821 2818.9 384.821 Q2811.06 384.821 2806.54 380.029 Q2802.03 375.214 2802.03 366.904 Q2802.03 358.571 2806.54 353.779 Q2811.06 348.964 2818.9 348.964 Q2822 348.964 2824.74 349.798 Q2827.49 350.608 2829.9 352.251 Z" fill="#000000" fill-rule="nonzero" fill-opacity="1" /><path clip-path="url(#clip330)" d="M2848.72 371.117 Q2843.55 371.117 2841.56 372.297 Q2839.57 373.478 2839.57 376.325 Q2839.57 378.594 2841.05 379.936 Q2842.56 381.256 2845.13 381.256 Q2848.67 381.256 2850.8 378.756 Q2852.95 376.233 2852.95 372.066 L2852.95 371.117 L2848.72 371.117 M2857.21 369.358 L2857.21 384.149 L2852.95 384.149 L2852.95 380.214 Q2851.49 382.575 2849.32 383.709 Q2847.14 384.821 2843.99 384.821 Q2840.01 384.821 2837.65 382.598 Q2835.31 380.353 2835.31 376.603 Q2835.31 372.228 2838.23 370.006 Q2841.17 367.784 2846.98 367.784 L2852.95 367.784 L2852.95 367.367 Q2852.95 364.427 2851.01 362.83 Q2849.09 361.21 2845.59 361.21 Q2843.37 361.21 2841.26 361.742 Q2839.16 362.274 2837.21 363.339 L2837.21 359.404 Q2839.55 358.501 2841.75 358.061 Q2843.95 357.599 2846.03 357.599 Q2851.66 357.599 2854.43 360.515 Q2857.21 363.432 2857.21 369.358 Z" fill="#000000" fill-rule="nonzero" fill-opacity="1" /><path clip-path="url(#clip330)" d="M2881.01 362.205 Q2880.29 361.788 2879.43 361.603 Q2878.6 361.395 2877.58 361.395 Q2873.97 361.395 2872.03 363.756 Q2870.11 366.094 2870.11 370.492 L2870.11 384.149 L2865.82 384.149 L2865.82 358.224 L2870.11 358.224 L2870.11 362.251 Q2871.45 359.89 2873.6 358.756 Q2875.75 357.599 2878.83 357.599 Q2879.27 357.599 2879.8 357.668 Q2880.34 357.714 2880.99 357.83 L2881.01 362.205 Z" fill="#000000" fill-rule="nonzero" fill-opacity="1" /><path clip-path="url(#clip330)" d="M2889.6 380.26 L2889.6 394.01 L2885.31 394.01 L2885.31 358.224 L2889.6 358.224 L2889.6 362.159 Q2890.94 359.844 2892.98 358.733 Q2895.04 357.599 2897.88 357.599 Q2902.61 357.599 2905.55 361.348 Q2908.51 365.098 2908.51 371.21 Q2908.51 377.321 2905.55 381.071 Q2902.61 384.821 2897.88 384.821 Q2895.04 384.821 2892.98 383.709 Q2890.94 382.575 2889.6 380.26 M2904.09 371.21 Q2904.09 366.51 2902.14 363.848 Q2900.22 361.163 2896.84 361.163 Q2893.46 361.163 2891.52 363.848 Q2889.6 366.51 2889.6 371.21 Q2889.6 375.909 2891.52 378.594 Q2893.46 381.256 2896.84 381.256 Q2900.22 381.256 2902.14 378.594 Q2904.09 375.909 2904.09 371.21 Z" fill="#000000" fill-rule="nonzero" fill-opacity="1" /><path clip-path="url(#clip330)" d="M2929.02 353.663 L2917.21 372.112 L2929.02 372.112 L2929.02 353.663 M2927.79 349.589 L2933.67 349.589 L2933.67 372.112 L2938.6 372.112 L2938.6 376.001 L2933.67 376.001 L2933.67 384.149 L2929.02 384.149 L2929.02 376.001 L2913.42 376.001 L2913.42 371.487 L2927.79 349.589 Z" fill="#000000" fill-rule="nonzero" fill-opacity="1" /><path clip-path="url(#clip330)" d="M2945.15 349.589 L2967.37 349.589 L2967.37 351.58 L2954.83 384.149 L2949.94 384.149 L2961.75 353.524 L2945.15 353.524 L2945.15 349.589 Z" fill="#000000" fill-rule="nonzero" fill-opacity="1" /><polyline clip-path="url(#clip330)" style="stroke:#c271d2; stroke-linecap:round; stroke-linejoin:round; stroke-width:8; stroke-opacity:1; fill:none" points="2501.9,418.709 2685.48,418.709 "/>
<path clip-path="url(#clip330)" d="M2593.69 395.954 L2570.93 418.709 L2593.69 441.465 L2616.44 418.709 L2593.69 395.954 Z" fill="#c271d2" fill-rule="evenodd" fill-opacity="1" stroke="#000000" stroke-opacity="1" stroke-width="4.55111"/>
<path clip-path="url(#clip330)" d="M2716.08 401.429 L2720.75 401.429 L2720.75 416.036 L2736.26 401.429 L2742.28 401.429 L2725.13 417.54 L2743.51 435.989 L2737.35 435.989 L2720.75 419.346 L2720.75 435.989 L2716.08 435.989 L2716.08 401.429 Z" fill="#000000" fill-rule="nonzero" fill-opacity="1" /><path clip-path="url(#clip330)" d="M2766.8 421.962 L2766.8 424.045 L2747.21 424.045 Q2747.49 428.443 2749.85 430.758 Q2752.24 433.049 2756.47 433.049 Q2758.93 433.049 2761.22 432.448 Q2763.53 431.846 2765.8 430.642 L2765.8 434.67 Q2763.51 435.642 2761.1 436.151 Q2758.69 436.661 2756.22 436.661 Q2750.01 436.661 2746.38 433.049 Q2742.77 429.438 2742.77 423.281 Q2742.77 416.915 2746.19 413.188 Q2749.64 409.439 2755.48 409.439 Q2760.71 409.439 2763.74 412.818 Q2766.8 416.175 2766.8 421.962 M2762.54 420.712 Q2762.49 417.216 2760.57 415.133 Q2758.67 413.05 2755.52 413.05 Q2751.96 413.05 2749.81 415.063 Q2747.68 417.077 2747.35 420.735 L2762.54 420.712 Z" fill="#000000" fill-rule="nonzero" fill-opacity="1" /><path clip-path="url(#clip330)" d="M2795.34 420.341 L2795.34 435.989 L2791.08 435.989 L2791.08 420.48 Q2791.08 416.8 2789.64 414.971 Q2788.21 413.142 2785.34 413.142 Q2781.89 413.142 2779.9 415.341 Q2777.91 417.54 2777.91 421.337 L2777.91 435.989 L2773.62 435.989 L2773.62 410.064 L2777.91 410.064 L2777.91 414.091 Q2779.43 411.753 2781.5 410.596 Q2783.58 409.439 2786.29 409.439 Q2790.75 409.439 2793.05 412.216 Q2795.34 414.971 2795.34 420.341 Z" fill="#000000" fill-rule="nonzero" fill-opacity="1" /><path clip-path="url(#clip330)" d="M2829.9 404.091 L2829.9 409.022 Q2827.54 406.823 2824.85 405.735 Q2822.19 404.647 2819.18 404.647 Q2813.25 404.647 2810.11 408.281 Q2806.96 411.892 2806.96 418.744 Q2806.96 425.573 2810.11 429.207 Q2813.25 432.818 2819.18 432.818 Q2822.19 432.818 2824.85 431.73 Q2827.54 430.642 2829.9 428.443 L2829.9 433.327 Q2827.44 434.994 2824.69 435.827 Q2821.96 436.661 2818.9 436.661 Q2811.06 436.661 2806.54 431.869 Q2802.03 427.054 2802.03 418.744 Q2802.03 410.411 2806.54 405.619 Q2811.06 400.804 2818.9 400.804 Q2822 400.804 2824.74 401.638 Q2827.49 402.448 2829.9 404.091 Z" fill="#000000" fill-rule="nonzero" fill-opacity="1" /><path clip-path="url(#clip330)" d="M2848.72 422.957 Q2843.55 422.957 2841.56 424.137 Q2839.57 425.318 2839.57 428.165 Q2839.57 430.434 2841.05 431.776 Q2842.56 433.096 2845.13 433.096 Q2848.67 433.096 2850.8 430.596 Q2852.95 428.073 2852.95 423.906 L2852.95 422.957 L2848.72 422.957 M2857.21 421.198 L2857.21 435.989 L2852.95 435.989 L2852.95 432.054 Q2851.49 434.415 2849.32 435.549 Q2847.14 436.661 2843.99 436.661 Q2840.01 436.661 2837.65 434.438 Q2835.31 432.193 2835.31 428.443 Q2835.31 424.068 2838.23 421.846 Q2841.17 419.624 2846.98 419.624 L2852.95 419.624 L2852.95 419.207 Q2852.95 416.267 2851.01 414.67 Q2849.09 413.05 2845.59 413.05 Q2843.37 413.05 2841.26 413.582 Q2839.16 414.114 2837.21 415.179 L2837.21 411.244 Q2839.55 410.341 2841.75 409.901 Q2843.95 409.439 2846.03 409.439 Q2851.66 409.439 2854.43 412.355 Q2857.21 415.272 2857.21 421.198 Z" fill="#000000" fill-rule="nonzero" fill-opacity="1" /><path clip-path="url(#clip330)" d="M2881.01 414.045 Q2880.29 413.628 2879.43 413.443 Q2878.6 413.235 2877.58 413.235 Q2873.97 413.235 2872.03 415.596 Q2870.11 417.934 2870.11 422.332 L2870.11 435.989 L2865.82 435.989 L2865.82 410.064 L2870.11 410.064 L2870.11 414.091 Q2871.45 411.73 2873.6 410.596 Q2875.75 409.439 2878.83 409.439 Q2879.27 409.439 2879.8 409.508 Q2880.34 409.554 2880.99 409.67 L2881.01 414.045 Z" fill="#000000" fill-rule="nonzero" fill-opacity="1" /><path clip-path="url(#clip330)" d="M2889.6 432.1 L2889.6 445.85 L2885.31 445.85 L2885.31 410.064 L2889.6 410.064 L2889.6 413.999 Q2890.94 411.684 2892.98 410.573 Q2895.04 409.439 2897.88 409.439 Q2902.61 409.439 2905.55 413.188 Q2908.51 416.938 2908.51 423.05 Q2908.51 429.161 2905.55 432.911 Q2902.61 436.661 2897.88 436.661 Q2895.04 436.661 2892.98 435.549 Q2890.94 434.415 2889.6 432.1 M2904.09 423.05 Q2904.09 418.35 2902.14 415.688 Q2900.22 413.003 2896.84 413.003 Q2893.46 413.003 2891.52 415.688 Q2889.6 418.35 2889.6 423.05 Q2889.6 427.749 2891.52 430.434 Q2893.46 433.096 2896.84 433.096 Q2900.22 433.096 2902.14 430.434 Q2904.09 427.749 2904.09 423.05 Z" fill="#000000" fill-rule="nonzero" fill-opacity="1" /><path clip-path="url(#clip330)" d="M2916.22 401.429 L2934.57 401.429 L2934.57 405.364 L2920.5 405.364 L2920.5 413.837 Q2921.52 413.489 2922.54 413.327 Q2923.55 413.142 2924.57 413.142 Q2930.36 413.142 2933.74 416.313 Q2937.12 419.485 2937.12 424.901 Q2937.12 430.48 2933.65 433.582 Q2930.17 436.661 2923.86 436.661 Q2921.68 436.661 2919.41 436.29 Q2917.17 435.92 2914.76 435.179 L2914.76 430.48 Q2916.84 431.614 2919.06 432.17 Q2921.29 432.725 2923.76 432.725 Q2927.77 432.725 2930.11 430.619 Q2932.44 428.512 2932.44 424.901 Q2932.44 421.29 2930.11 419.184 Q2927.77 417.077 2923.76 417.077 Q2921.89 417.077 2920.01 417.494 Q2918.16 417.911 2916.22 418.79 L2916.22 401.429 Z" fill="#000000" fill-rule="nonzero" fill-opacity="1" /><polyline clip-path="url(#clip330)" style="stroke:#ac8d18; stroke-linecap:round; stroke-linejoin:round; stroke-width:8; stroke-opacity:1; fill:none" points="2501.9,470.549 2685.48,470.549 "/>
<path clip-path="url(#clip330)" d="M2593.69 493.305 L2573.98 481.927 L2573.98 459.172 L2593.69 447.794 L2613.4 459.172 L2613.4 481.927 Z" fill="#ac8d18" fill-rule="evenodd" fill-opacity="1" stroke="#000000" stroke-opacity="1" stroke-width="4.55111"/>
<path clip-path="url(#clip330)" d="M2716.08 453.269 L2720.75 453.269 L2720.75 467.876 L2736.26 453.269 L2742.28 453.269 L2725.13 469.38 L2743.51 487.829 L2737.35 487.829 L2720.75 471.186 L2720.75 487.829 L2716.08 487.829 L2716.08 453.269 Z" fill="#000000" fill-rule="nonzero" fill-opacity="1" /><path clip-path="url(#clip330)" d="M2743.93 461.904 L2748.44 461.904 L2756.54 483.663 L2764.64 461.904 L2769.16 461.904 L2759.44 487.829 L2753.65 487.829 L2743.93 461.904 Z" fill="#000000" fill-rule="nonzero" fill-opacity="1" /><path clip-path="url(#clip330)" d="M2786.82 474.797 Q2781.66 474.797 2779.67 475.977 Q2777.68 477.158 2777.68 480.005 Q2777.68 482.274 2779.16 483.616 Q2780.66 484.936 2783.23 484.936 Q2786.77 484.936 2788.9 482.436 Q2791.06 479.913 2791.06 475.746 L2791.06 474.797 L2786.82 474.797 M2795.31 473.038 L2795.31 487.829 L2791.06 487.829 L2791.06 483.894 Q2789.6 486.255 2787.42 487.389 Q2785.25 488.501 2782.1 488.501 Q2778.12 488.501 2775.75 486.278 Q2773.42 484.033 2773.42 480.283 Q2773.42 475.908 2776.33 473.686 Q2779.27 471.464 2785.08 471.464 L2791.06 471.464 L2791.06 471.047 Q2791.06 468.107 2789.11 466.51 Q2787.19 464.89 2783.69 464.89 Q2781.47 464.89 2779.37 465.422 Q2777.26 465.954 2775.31 467.019 L2775.31 463.084 Q2777.65 462.181 2779.85 461.741 Q2782.05 461.279 2784.13 461.279 Q2789.76 461.279 2792.54 464.195 Q2795.31 467.112 2795.31 473.038 Z" fill="#000000" fill-rule="nonzero" fill-opacity="1" /><path clip-path="url(#clip330)" d="M2826.26 473.802 L2826.26 475.885 L2806.68 475.885 Q2806.96 480.283 2809.32 482.598 Q2811.7 484.889 2815.94 484.889 Q2818.39 484.889 2820.68 484.288 Q2823 483.686 2825.27 482.482 L2825.27 486.51 Q2822.98 487.482 2820.57 487.991 Q2818.16 488.501 2815.68 488.501 Q2809.48 488.501 2805.85 484.889 Q2802.24 481.278 2802.24 475.121 Q2802.24 468.755 2805.66 465.028 Q2809.11 461.279 2814.94 461.279 Q2820.18 461.279 2823.21 464.658 Q2826.26 468.015 2826.26 473.802 M2822 472.552 Q2821.96 469.056 2820.04 466.973 Q2818.14 464.89 2814.99 464.89 Q2811.43 464.89 2809.27 466.903 Q2807.14 468.917 2806.82 472.575 L2822 472.552 Z" fill="#000000" fill-rule="nonzero" fill-opacity="1" /><path clip-path="url(#clip330)" d="M2848.28 465.885 Q2847.56 465.468 2846.7 465.283 Q2845.87 465.075 2844.85 465.075 Q2841.24 465.075 2839.3 467.436 Q2837.37 469.774 2837.37 474.172 L2837.37 487.829 L2833.09 487.829 L2833.09 461.904 L2837.37 461.904 L2837.37 465.931 Q2838.72 463.57 2840.87 462.436 Q2843.02 461.279 2846.1 461.279 Q2846.54 461.279 2847.07 461.348 Q2847.61 461.394 2848.25 461.51 L2848.28 465.885 Z" fill="#000000" fill-rule="nonzero" fill-opacity="1" /><path clip-path="url(#clip330)" d="M2873.46 472.181 L2873.46 487.829 L2869.2 487.829 L2869.2 472.32 Q2869.2 468.64 2867.77 466.811 Q2866.33 464.982 2863.46 464.982 Q2860.01 464.982 2858.02 467.181 Q2856.03 469.38 2856.03 473.177 L2856.03 487.829 L2851.75 487.829 L2851.75 461.904 L2856.03 461.904 L2856.03 465.931 Q2857.56 463.593 2859.62 462.436 Q2861.7 461.279 2864.41 461.279 Q2868.88 461.279 2871.17 464.056 Q2873.46 466.811 2873.46 472.181 Z" fill="#000000" fill-rule="nonzero" fill-opacity="1" /><path clip-path="url(#clip330)" d="M2892 464.89 Q2888.58 464.89 2886.59 467.575 Q2884.6 470.237 2884.6 474.89 Q2884.6 479.542 2886.56 482.227 Q2888.55 484.889 2892 484.889 Q2895.41 484.889 2897.4 482.204 Q2899.39 479.519 2899.39 474.89 Q2899.39 470.283 2897.4 467.598 Q2895.41 464.89 2892 464.89 M2892 461.279 Q2897.56 461.279 2900.73 464.89 Q2903.9 468.501 2903.9 474.89 Q2903.9 481.255 2900.73 484.889 Q2897.56 488.501 2892 488.501 Q2886.43 488.501 2883.25 484.889 Q2880.11 481.255 2880.11 474.89 Q2880.11 468.501 2883.25 464.89 Q2886.43 461.279 2892 461.279 Z" fill="#000000" fill-rule="nonzero" fill-opacity="1" /><path clip-path="url(#clip330)" d="M2911.61 453.269 L2929.97 453.269 L2929.97 457.204 L2915.89 457.204 L2915.89 465.677 Q2916.91 465.329 2917.93 465.167 Q2918.95 464.982 2919.97 464.982 Q2925.75 464.982 2929.13 468.153 Q2932.51 471.325 2932.51 476.741 Q2932.51 482.32 2929.04 485.422 Q2925.57 488.501 2919.25 488.501 Q2917.07 488.501 2914.8 488.13 Q2912.56 487.76 2910.15 487.019 L2910.15 482.32 Q2912.24 483.454 2914.46 484.01 Q2916.68 484.565 2919.16 484.565 Q2923.16 484.565 2925.5 482.459 Q2927.84 480.352 2927.84 476.741 Q2927.84 473.13 2925.5 471.024 Q2923.16 468.917 2919.16 468.917 Q2917.28 468.917 2915.41 469.334 Q2913.55 469.751 2911.61 470.63 L2911.61 453.269 Z" fill="#000000" fill-rule="nonzero" fill-opacity="1" /><polyline clip-path="url(#clip330)" style="stroke:#00a9ad; stroke-linecap:round; stroke-linejoin:round; stroke-width:8; stroke-opacity:1; fill:none" points="2501.9,522.389 2685.48,522.389 "/>
<line clip-path="url(#clip330)" x1="2593.69" y1="522.389" x2="2593.69" y2="499.634" style="stroke:#00a9ad; stroke-width:8; stroke-opacity:1"/>
<line clip-path="url(#clip330)" x1="2593.69" y1="522.389" x2="2570.93" y2="522.389" style="stroke:#00a9ad; stroke-width:8; stroke-opacity:1"/>
<line clip-path="url(#clip330)" x1="2593.69" y1="522.389" x2="2593.69" y2="545.145" style="stroke:#00a9ad; stroke-width:8; stroke-opacity:1"/>
<line clip-path="url(#clip330)" x1="2593.69" y1="522.389" x2="2616.44" y2="522.389" style="stroke:#00a9ad; stroke-width:8; stroke-opacity:1"/>
<path clip-path="url(#clip330)" d="M2732.47 523.466 Q2733.97 523.975 2735.38 525.642 Q2736.82 527.308 2738.25 530.225 L2743 539.669 L2737.98 539.669 L2733.56 530.804 Q2731.84 527.331 2730.22 526.197 Q2728.63 525.063 2725.85 525.063 L2720.75 525.063 L2720.75 539.669 L2716.08 539.669 L2716.08 505.109 L2726.63 505.109 Q2732.56 505.109 2735.48 507.586 Q2738.39 510.063 2738.39 515.063 Q2738.39 518.327 2736.87 520.48 Q2735.36 522.632 2732.47 523.466 M2720.75 508.952 L2720.75 521.22 L2726.63 521.22 Q2730.01 521.22 2731.73 519.669 Q2733.46 518.095 2733.46 515.063 Q2733.46 512.031 2731.73 510.503 Q2730.01 508.952 2726.63 508.952 L2720.75 508.952 Z" fill="#000000" fill-rule="nonzero" fill-opacity="1" /><path clip-path="url(#clip330)" d="M2756.75 516.73 Q2753.32 516.73 2751.33 519.415 Q2749.34 522.077 2749.34 526.73 Q2749.34 531.382 2751.31 534.067 Q2753.3 536.729 2756.75 536.729 Q2760.15 536.729 2762.14 534.044 Q2764.13 531.359 2764.13 526.73 Q2764.13 522.123 2762.14 519.438 Q2760.15 516.73 2756.75 516.73 M2756.75 513.119 Q2762.31 513.119 2765.48 516.73 Q2768.65 520.341 2768.65 526.73 Q2768.65 533.095 2765.48 536.729 Q2762.31 540.341 2756.75 540.341 Q2751.17 540.341 2748 536.729 Q2744.85 533.095 2744.85 526.73 Q2744.85 520.341 2748 516.73 Q2751.17 513.119 2756.75 513.119 Z" fill="#000000" fill-rule="nonzero" fill-opacity="1" /><path clip-path="url(#clip330)" d="M2792.77 517.679 L2792.77 503.651 L2797.03 503.651 L2797.03 539.669 L2792.77 539.669 L2792.77 535.78 Q2791.43 538.095 2789.37 539.229 Q2787.33 540.341 2784.46 540.341 Q2779.76 540.341 2776.8 536.591 Q2773.86 532.841 2773.86 526.73 Q2773.86 520.618 2776.8 516.868 Q2779.76 513.119 2784.46 513.119 Q2787.33 513.119 2789.37 514.253 Q2791.43 515.364 2792.77 517.679 M2778.25 526.73 Q2778.25 531.429 2780.18 534.114 Q2782.12 536.776 2785.5 536.776 Q2788.88 536.776 2790.82 534.114 Q2792.77 531.429 2792.77 526.73 Q2792.77 522.03 2790.82 519.368 Q2788.88 516.683 2785.5 516.683 Q2782.12 516.683 2780.18 519.368 Q2778.25 522.03 2778.25 526.73 Z" fill="#000000" fill-rule="nonzero" fill-opacity="1" /><path clip-path="url(#clip330)" d="M2817.58 526.637 Q2812.42 526.637 2810.43 527.817 Q2808.44 528.998 2808.44 531.845 Q2808.44 534.114 2809.92 535.456 Q2811.43 536.776 2813.99 536.776 Q2817.54 536.776 2819.67 534.276 Q2821.82 531.753 2821.82 527.586 L2821.82 526.637 L2817.58 526.637 M2826.08 524.878 L2826.08 539.669 L2821.82 539.669 L2821.82 535.734 Q2820.36 538.095 2818.18 539.229 Q2816.01 540.341 2812.86 540.341 Q2808.88 540.341 2806.52 538.118 Q2804.18 535.873 2804.18 532.123 Q2804.18 527.748 2807.1 525.526 Q2810.04 523.304 2815.85 523.304 L2821.82 523.304 L2821.82 522.887 Q2821.82 519.947 2819.87 518.35 Q2817.95 516.73 2814.46 516.73 Q2812.24 516.73 2810.13 517.262 Q2808.02 517.794 2806.08 518.859 L2806.08 514.924 Q2808.42 514.021 2810.62 513.581 Q2812.81 513.119 2814.9 513.119 Q2820.52 513.119 2823.3 516.035 Q2826.08 518.952 2826.08 524.878 Z" fill="#000000" fill-rule="nonzero" fill-opacity="1" /><path clip-path="url(#clip330)" d="M2851.38 514.507 L2851.38 518.535 Q2849.57 517.609 2847.63 517.146 Q2845.68 516.683 2843.6 516.683 Q2840.43 516.683 2838.83 517.656 Q2837.26 518.628 2837.26 520.572 Q2837.26 522.054 2838.39 522.91 Q2839.53 523.743 2842.95 524.507 L2844.41 524.831 Q2848.95 525.804 2850.85 527.586 Q2852.77 529.345 2852.77 532.517 Q2852.77 536.128 2849.9 538.234 Q2847.05 540.341 2842.05 540.341 Q2839.97 540.341 2837.7 539.924 Q2835.45 539.53 2832.95 538.72 L2832.95 534.322 Q2835.31 535.549 2837.61 536.174 Q2839.9 536.776 2842.14 536.776 Q2845.15 536.776 2846.77 535.757 Q2848.39 534.716 2848.39 532.841 Q2848.39 531.105 2847.21 530.179 Q2846.05 529.253 2842.1 528.396 L2840.62 528.049 Q2836.66 527.216 2834.9 525.503 Q2833.14 523.767 2833.14 520.757 Q2833.14 517.1 2835.73 515.109 Q2838.32 513.119 2843.09 513.119 Q2845.45 513.119 2847.54 513.466 Q2849.62 513.813 2851.38 514.507 Z" fill="#000000" fill-rule="nonzero" fill-opacity="1" /><path clip-path="url(#clip330)" d="M2873 509.183 L2861.19 527.632 L2873 527.632 L2873 509.183 M2871.77 505.109 L2877.65 505.109 L2877.65 527.632 L2882.58 527.632 L2882.58 531.521 L2877.65 531.521 L2877.65 539.669 L2873 539.669 L2873 531.521 L2857.4 531.521 L2857.4 527.007 L2871.77 505.109 Z" fill="#000000" fill-rule="nonzero" fill-opacity="1" /><path clip-path="url(#clip330)" d="M2894.57 508.952 L2894.57 521.938 L2900.45 521.938 Q2903.72 521.938 2905.5 520.248 Q2907.28 518.558 2907.28 515.433 Q2907.28 512.331 2905.5 510.642 Q2903.72 508.952 2900.45 508.952 L2894.57 508.952 M2889.9 505.109 L2900.45 505.109 Q2906.26 505.109 2909.23 507.748 Q2912.21 510.364 2912.21 515.433 Q2912.21 520.549 2909.23 523.165 Q2906.26 525.78 2900.45 525.78 L2894.57 525.78 L2894.57 539.669 L2889.9 539.669 L2889.9 505.109 Z" fill="#000000" fill-rule="nonzero" fill-opacity="1" /><polyline clip-path="url(#clip330)" style="stroke:#ed5d92; stroke-linecap:round; stroke-linejoin:round; stroke-width:8; stroke-opacity:1; fill:none" points="2501.9,574.229 2685.48,574.229 "/>
<line clip-path="url(#clip330)" x1="2593.69" y1="574.229" x2="2570.93" y2="551.474" style="stroke:#ed5d92; stroke-width:8; stroke-opacity:1"/>
<line clip-path="url(#clip330)" x1="2593.69" y1="574.229" x2="2570.93" y2="596.985" style="stroke:#ed5d92; stroke-width:8; stroke-opacity:1"/>
<line clip-path="url(#clip330)" x1="2593.69" y1="574.229" x2="2616.44" y2="596.985" style="stroke:#ed5d92; stroke-width:8; stroke-opacity:1"/>
<line clip-path="url(#clip330)" x1="2593.69" y1="574.229" x2="2616.44" y2="551.474" style="stroke:#ed5d92; stroke-width:8; stroke-opacity:1"/>
<path clip-path="url(#clip330)" d="M2732.47 575.306 Q2733.97 575.815 2735.38 577.482 Q2736.82 579.148 2738.25 582.065 L2743 591.509 L2737.98 591.509 L2733.56 582.644 Q2731.84 579.171 2730.22 578.037 Q2728.63 576.903 2725.85 576.903 L2720.75 576.903 L2720.75 591.509 L2716.08 591.509 L2716.08 556.949 L2726.63 556.949 Q2732.56 556.949 2735.48 559.426 Q2738.39 561.903 2738.39 566.903 Q2738.39 570.167 2736.87 572.32 Q2735.36 574.472 2732.47 575.306 M2720.75 560.792 L2720.75 573.06 L2726.63 573.06 Q2730.01 573.06 2731.73 571.509 Q2733.46 569.935 2733.46 566.903 Q2733.46 563.871 2731.73 562.343 Q2730.01 560.792 2726.63 560.792 L2720.75 560.792 Z" fill="#000000" fill-rule="nonzero" fill-opacity="1" /><path clip-path="url(#clip330)" d="M2756.75 568.57 Q2753.32 568.57 2751.33 571.255 Q2749.34 573.917 2749.34 578.57 Q2749.34 583.222 2751.31 585.907 Q2753.3 588.569 2756.75 588.569 Q2760.15 588.569 2762.14 585.884 Q2764.13 583.199 2764.13 578.57 Q2764.13 573.963 2762.14 571.278 Q2760.15 568.57 2756.75 568.57 M2756.75 564.959 Q2762.31 564.959 2765.48 568.57 Q2768.65 572.181 2768.65 578.57 Q2768.65 584.935 2765.48 588.569 Q2762.31 592.181 2756.75 592.181 Q2751.17 592.181 2748 588.569 Q2744.85 584.935 2744.85 578.57 Q2744.85 572.181 2748 568.57 Q2751.17 564.959 2756.75 564.959 Z" fill="#000000" fill-rule="nonzero" fill-opacity="1" /><path clip-path="url(#clip330)" d="M2792.77 569.519 L2792.77 555.491 L2797.03 555.491 L2797.03 591.509 L2792.77 591.509 L2792.77 587.62 Q2791.43 589.935 2789.37 591.069 Q2787.33 592.181 2784.46 592.181 Q2779.76 592.181 2776.8 588.431 Q2773.86 584.681 2773.86 578.57 Q2773.86 572.458 2776.8 568.708 Q2779.76 564.959 2784.46 564.959 Q2787.33 564.959 2789.37 566.093 Q2791.43 567.204 2792.77 569.519 M2778.25 578.57 Q2778.25 583.269 2780.18 585.954 Q2782.12 588.616 2785.5 588.616 Q2788.88 588.616 2790.82 585.954 Q2792.77 583.269 2792.77 578.57 Q2792.77 573.87 2790.82 571.208 Q2788.88 568.523 2785.5 568.523 Q2782.12 568.523 2780.18 571.208 Q2778.25 573.87 2778.25 578.57 Z" fill="#000000" fill-rule="nonzero" fill-opacity="1" /><path clip-path="url(#clip330)" d="M2817.58 578.477 Q2812.42 578.477 2810.43 579.657 Q2808.44 580.838 2808.44 583.685 Q2808.44 585.954 2809.92 587.296 Q2811.43 588.616 2813.99 588.616 Q2817.54 588.616 2819.67 586.116 Q2821.82 583.593 2821.82 579.426 L2821.82 578.477 L2817.58 578.477 M2826.08 576.718 L2826.08 591.509 L2821.82 591.509 L2821.82 587.574 Q2820.36 589.935 2818.18 591.069 Q2816.01 592.181 2812.86 592.181 Q2808.88 592.181 2806.52 589.958 Q2804.18 587.713 2804.18 583.963 Q2804.18 579.588 2807.1 577.366 Q2810.04 575.144 2815.85 575.144 L2821.82 575.144 L2821.82 574.727 Q2821.82 571.787 2819.87 570.19 Q2817.95 568.57 2814.46 568.57 Q2812.24 568.57 2810.13 569.102 Q2808.02 569.634 2806.08 570.699 L2806.08 566.764 Q2808.42 565.861 2810.62 565.421 Q2812.81 564.959 2814.9 564.959 Q2820.52 564.959 2823.3 567.875 Q2826.08 570.792 2826.08 576.718 Z" fill="#000000" fill-rule="nonzero" fill-opacity="1" /><path clip-path="url(#clip330)" d="M2851.38 566.347 L2851.38 570.375 Q2849.57 569.449 2847.63 568.986 Q2845.68 568.523 2843.6 568.523 Q2840.43 568.523 2838.83 569.496 Q2837.26 570.468 2837.26 572.412 Q2837.26 573.894 2838.39 574.75 Q2839.53 575.583 2842.95 576.347 L2844.41 576.671 Q2848.95 577.644 2850.85 579.426 Q2852.77 581.185 2852.77 584.357 Q2852.77 587.968 2849.9 590.074 Q2847.05 592.181 2842.05 592.181 Q2839.97 592.181 2837.7 591.764 Q2835.45 591.37 2832.95 590.56 L2832.95 586.162 Q2835.31 587.389 2837.61 588.014 Q2839.9 588.616 2842.14 588.616 Q2845.15 588.616 2846.77 587.597 Q2848.39 586.556 2848.39 584.681 Q2848.39 582.945 2847.21 582.019 Q2846.05 581.093 2842.1 580.236 L2840.62 579.889 Q2836.66 579.056 2834.9 577.343 Q2833.14 575.607 2833.14 572.597 Q2833.14 568.94 2835.73 566.949 Q2838.32 564.959 2843.09 564.959 Q2845.45 564.959 2847.54 565.306 Q2849.62 565.653 2851.38 566.347 Z" fill="#000000" fill-rule="nonzero" fill-opacity="1" /><path clip-path="url(#clip330)" d="M2860.2 556.949 L2878.55 556.949 L2878.55 560.884 L2864.48 560.884 L2864.48 569.357 Q2865.5 569.009 2866.52 568.847 Q2867.54 568.662 2868.55 568.662 Q2874.34 568.662 2877.72 571.833 Q2881.1 575.005 2881.1 580.421 Q2881.1 586 2877.63 589.102 Q2874.16 592.181 2867.84 592.181 Q2865.66 592.181 2863.39 591.81 Q2861.15 591.44 2858.74 590.699 L2858.74 586 Q2860.82 587.134 2863.05 587.69 Q2865.27 588.245 2867.74 588.245 Q2871.75 588.245 2874.09 586.139 Q2876.43 584.032 2876.43 580.421 Q2876.43 576.81 2874.09 574.704 Q2871.75 572.597 2867.74 572.597 Q2865.87 572.597 2863.99 573.014 Q2862.14 573.431 2860.2 574.31 L2860.2 556.949 Z" fill="#000000" fill-rule="nonzero" fill-opacity="1" /><path clip-path="url(#clip330)" d="M2894.57 560.792 L2894.57 573.778 L2900.45 573.778 Q2903.72 573.778 2905.5 572.088 Q2907.28 570.398 2907.28 567.273 Q2907.28 564.171 2905.5 562.482 Q2903.72 560.792 2900.45 560.792 L2894.57 560.792 M2889.9 556.949 L2900.45 556.949 Q2906.26 556.949 2909.23 559.588 Q2912.21 562.204 2912.21 567.273 Q2912.21 572.389 2909.23 575.005 Q2906.26 577.62 2900.45 577.62 L2894.57 577.62 L2894.57 591.509 L2889.9 591.509 L2889.9 556.949 Z" fill="#000000" fill-rule="nonzero" fill-opacity="1" /><polyline clip-path="url(#clip330)" style="stroke:#c68125; stroke-linecap:round; stroke-linejoin:round; stroke-width:8; stroke-opacity:1; fill:none" points="2501.9,626.069 2685.48,626.069 "/>
<path clip-path="url(#clip330)" d="M2593.69 603.314 L2570.93 648.825 L2616.44 648.825 L2593.69 603.314 Z" fill="#c68125" fill-rule="evenodd" fill-opacity="1" stroke="#000000" stroke-opacity="1" stroke-width="4.55111"/>
<path clip-path="url(#clip330)" d="M2732.47 627.146 Q2733.97 627.655 2735.38 629.322 Q2736.82 630.988 2738.25 633.905 L2743 643.349 L2737.98 643.349 L2733.56 634.484 Q2731.84 631.011 2730.22 629.877 Q2728.63 628.743 2725.85 628.743 L2720.75 628.743 L2720.75 643.349 L2716.08 643.349 L2716.08 608.789 L2726.63 608.789 Q2732.56 608.789 2735.48 611.266 Q2738.39 613.743 2738.39 618.743 Q2738.39 622.007 2736.87 624.16 Q2735.36 626.312 2732.47 627.146 M2720.75 612.632 L2720.75 624.9 L2726.63 624.9 Q2730.01 624.9 2731.73 623.349 Q2733.46 621.775 2733.46 618.743 Q2733.46 615.711 2731.73 614.183 Q2730.01 612.632 2726.63 612.632 L2720.75 612.632 Z" fill="#000000" fill-rule="nonzero" fill-opacity="1" /><path clip-path="url(#clip330)" d="M2756.75 620.41 Q2753.32 620.41 2751.33 623.095 Q2749.34 625.757 2749.34 630.41 Q2749.34 635.062 2751.31 637.747 Q2753.3 640.409 2756.75 640.409 Q2760.15 640.409 2762.14 637.724 Q2764.13 635.039 2764.13 630.41 Q2764.13 625.803 2762.14 623.118 Q2760.15 620.41 2756.75 620.41 M2756.75 616.799 Q2762.31 616.799 2765.48 620.41 Q2768.65 624.021 2768.65 630.41 Q2768.65 636.775 2765.48 640.409 Q2762.31 644.021 2756.75 644.021 Q2751.17 644.021 2748 640.409 Q2744.85 636.775 2744.85 630.41 Q2744.85 624.021 2748 620.41 Q2751.17 616.799 2756.75 616.799 Z" fill="#000000" fill-rule="nonzero" fill-opacity="1" /><path clip-path="url(#clip330)" d="M2792.77 621.359 L2792.77 607.331 L2797.03 607.331 L2797.03 643.349 L2792.77 643.349 L2792.77 639.46 Q2791.43 641.775 2789.37 642.909 Q2787.33 644.021 2784.46 644.021 Q2779.76 644.021 2776.8 640.271 Q2773.86 636.521 2773.86 630.41 Q2773.86 624.298 2776.8 620.548 Q2779.76 616.799 2784.46 616.799 Q2787.33 616.799 2789.37 617.933 Q2791.43 619.044 2792.77 621.359 M2778.25 630.41 Q2778.25 635.109 2780.18 637.794 Q2782.12 640.456 2785.5 640.456 Q2788.88 640.456 2790.82 637.794 Q2792.77 635.109 2792.77 630.41 Q2792.77 625.71 2790.82 623.048 Q2788.88 620.363 2785.5 620.363 Q2782.12 620.363 2780.18 623.048 Q2778.25 625.71 2778.25 630.41 Z" fill="#000000" fill-rule="nonzero" fill-opacity="1" /><path clip-path="url(#clip330)" d="M2817.58 630.317 Q2812.42 630.317 2810.43 631.497 Q2808.44 632.678 2808.44 635.525 Q2808.44 637.794 2809.92 639.136 Q2811.43 640.456 2813.99 640.456 Q2817.54 640.456 2819.67 637.956 Q2821.82 635.433 2821.82 631.266 L2821.82 630.317 L2817.58 630.317 M2826.08 628.558 L2826.08 643.349 L2821.82 643.349 L2821.82 639.414 Q2820.36 641.775 2818.18 642.909 Q2816.01 644.021 2812.86 644.021 Q2808.88 644.021 2806.52 641.798 Q2804.18 639.553 2804.18 635.803 Q2804.18 631.428 2807.1 629.206 Q2810.04 626.984 2815.85 626.984 L2821.82 626.984 L2821.82 626.567 Q2821.82 623.627 2819.87 622.03 Q2817.95 620.41 2814.46 620.41 Q2812.24 620.41 2810.13 620.942 Q2808.02 621.474 2806.08 622.539 L2806.08 618.604 Q2808.42 617.701 2810.62 617.261 Q2812.81 616.799 2814.9 616.799 Q2820.52 616.799 2823.3 619.715 Q2826.08 622.632 2826.08 628.558 Z" fill="#000000" fill-rule="nonzero" fill-opacity="1" /><path clip-path="url(#clip330)" d="M2851.38 618.187 L2851.38 622.215 Q2849.57 621.289 2847.63 620.826 Q2845.68 620.363 2843.6 620.363 Q2840.43 620.363 2838.83 621.336 Q2837.26 622.308 2837.26 624.252 Q2837.26 625.734 2838.39 626.59 Q2839.53 627.423 2842.95 628.187 L2844.41 628.511 Q2848.95 629.484 2850.85 631.266 Q2852.77 633.025 2852.77 636.197 Q2852.77 639.808 2849.9 641.914 Q2847.05 644.021 2842.05 644.021 Q2839.97 644.021 2837.7 643.604 Q2835.45 643.21 2832.95 642.4 L2832.95 638.002 Q2835.31 639.229 2837.61 639.854 Q2839.9 640.456 2842.14 640.456 Q2845.15 640.456 2846.77 639.437 Q2848.39 638.396 2848.39 636.521 Q2848.39 634.785 2847.21 633.859 Q2846.05 632.933 2842.1 632.076 L2840.62 631.729 Q2836.66 630.896 2834.9 629.183 Q2833.14 627.447 2833.14 624.437 Q2833.14 620.78 2835.73 618.789 Q2838.32 616.799 2843.09 616.799 Q2845.45 616.799 2847.54 617.146 Q2849.62 617.493 2851.38 618.187 Z" fill="#000000" fill-rule="nonzero" fill-opacity="1" /><path clip-path="url(#clip330)" d="M2870.73 624.206 Q2867.58 624.206 2865.73 626.359 Q2863.9 628.511 2863.9 632.261 Q2863.9 635.988 2865.73 638.164 Q2867.58 640.317 2870.73 640.317 Q2873.88 640.317 2875.71 638.164 Q2877.56 635.988 2877.56 632.261 Q2877.56 628.511 2875.71 626.359 Q2873.88 624.206 2870.73 624.206 M2880.01 609.553 L2880.01 613.812 Q2878.25 612.979 2876.45 612.539 Q2874.67 612.099 2872.91 612.099 Q2868.28 612.099 2865.82 615.224 Q2863.39 618.349 2863.05 624.669 Q2864.41 622.655 2866.47 621.59 Q2868.53 620.502 2871.01 620.502 Q2876.22 620.502 2879.23 623.673 Q2882.26 626.822 2882.26 632.261 Q2882.26 637.585 2879.11 640.803 Q2875.96 644.021 2870.73 644.021 Q2864.74 644.021 2861.56 639.437 Q2858.39 634.831 2858.39 626.104 Q2858.39 617.91 2862.28 613.049 Q2866.17 608.164 2872.72 608.164 Q2874.48 608.164 2876.26 608.512 Q2878.07 608.859 2880.01 609.553 Z" fill="#000000" fill-rule="nonzero" fill-opacity="1" /><path clip-path="url(#clip330)" d="M2894.57 612.632 L2894.57 625.618 L2900.45 625.618 Q2903.72 625.618 2905.5 623.928 Q2907.28 622.238 2907.28 619.113 Q2907.28 616.011 2905.5 614.322 Q2903.72 612.632 2900.45 612.632 L2894.57 612.632 M2889.9 608.789 L2900.45 608.789 Q2906.26 608.789 2909.23 611.428 Q2912.21 614.044 2912.21 619.113 Q2912.21 624.229 2909.23 626.845 Q2906.26 629.46 2900.45 629.46 L2894.57 629.46 L2894.57 643.349 L2889.9 643.349 L2889.9 608.789 Z" fill="#000000" fill-rule="nonzero" fill-opacity="1" /><polyline clip-path="url(#clip330)" style="stroke:#00a98d; stroke-linecap:round; stroke-linejoin:round; stroke-width:8; stroke-opacity:1; fill:none" points="2501.9,677.909 2685.48,677.909 "/>
<path clip-path="url(#clip330)" d="M2616.44 655.154 L2570.93 655.154 L2593.69 700.665 L2616.44 655.154 Z" fill="#00a98d" fill-rule="evenodd" fill-opacity="1" stroke="#000000" stroke-opacity="1" stroke-width="4.55111"/>
<path clip-path="url(#clip330)" d="M2732.1 663.801 Q2727 663.801 2724 667.597 Q2721.01 671.393 2721.01 677.944 Q2721.01 684.472 2724 688.268 Q2727 692.064 2732.1 692.064 Q2737.19 692.064 2740.15 688.268 Q2743.14 684.472 2743.14 677.944 Q2743.14 671.393 2740.15 667.597 Q2737.19 663.801 2732.1 663.801 M2738.65 694.564 L2744.81 701.3 L2739.16 701.3 L2734.04 695.768 Q2733.28 695.814 2732.86 695.837 Q2732.47 695.861 2732.1 695.861 Q2724.81 695.861 2720.43 690.999 Q2716.08 686.115 2716.08 677.944 Q2716.08 669.75 2720.43 664.889 Q2724.81 660.004 2732.1 660.004 Q2739.37 660.004 2743.72 664.889 Q2748.07 669.75 2748.07 677.944 Q2748.07 683.962 2745.64 688.245 Q2743.23 692.527 2738.65 694.564 Z" fill="#000000" fill-rule="nonzero" fill-opacity="1" /><path clip-path="url(#clip330)" d="M2755.38 660.629 L2761.68 660.629 L2777 689.541 L2777 660.629 L2781.54 660.629 L2781.54 695.189 L2775.25 695.189 L2759.92 666.277 L2759.92 695.189 L2755.38 695.189 L2755.38 660.629 Z" fill="#000000" fill-rule="nonzero" fill-opacity="1" /><path clip-path="url(#clip330)" d="M2795.52 664.472 L2795.52 691.347 L2801.17 691.347 Q2808.32 691.347 2811.63 688.106 Q2814.97 684.865 2814.97 677.875 Q2814.97 670.93 2811.63 667.713 Q2808.32 664.472 2801.17 664.472 L2795.52 664.472 M2790.85 660.629 L2800.45 660.629 Q2810.5 660.629 2815.2 664.819 Q2819.9 668.986 2819.9 677.875 Q2819.9 686.81 2815.18 690.999 Q2810.45 695.189 2800.45 695.189 L2790.85 695.189 L2790.85 660.629 Z" fill="#000000" fill-rule="nonzero" fill-opacity="1" /><path clip-path="url(#clip330)" d="M2827.35 660.629 L2847.21 660.629 L2847.21 664.564 L2832.03 664.564 L2832.03 674.75 L2845.73 674.75 L2845.73 678.685 L2832.03 678.685 L2832.03 695.189 L2827.35 695.189 L2827.35 660.629 Z" fill="#000000" fill-rule="nonzero" fill-opacity="1" /><polyline clip-path="url(#clip330)" style="stroke:#8e971d; stroke-linecap:round; stroke-linejoin:round; stroke-width:8; stroke-opacity:1; fill:none" points="2501.9,729.749 2685.48,729.749 "/>
<path clip-path="url(#clip330)" d="M2611.89 729.749 L2584.59 713.82 L2584.59 745.678 L2611.89 729.749 Z" fill="#8e971d" fill-rule="evenodd" fill-opacity="1" stroke="#000000" stroke-opacity="1" stroke-width="4.55111"/>
<path clip-path="url(#clip330)" d="M2716.08 712.469 L2735.94 712.469 L2735.94 716.404 L2720.75 716.404 L2720.75 726.59 L2734.46 726.59 L2734.46 730.525 L2720.75 730.525 L2720.75 747.029 L2716.08 747.029 L2716.08 712.469 Z" fill="#000000" fill-rule="nonzero" fill-opacity="1" /><path clip-path="url(#clip330)" d="M2748.02 730.525 L2748.02 743.187 L2755.52 743.187 Q2759.3 743.187 2761.1 741.636 Q2762.93 740.062 2762.93 736.844 Q2762.93 733.603 2761.1 732.076 Q2759.3 730.525 2755.52 730.525 L2748.02 730.525 M2748.02 716.312 L2748.02 726.728 L2754.94 726.728 Q2758.37 726.728 2760.04 725.455 Q2761.73 724.159 2761.73 721.52 Q2761.73 718.904 2760.04 717.608 Q2758.37 716.312 2754.94 716.312 L2748.02 716.312 M2743.35 712.469 L2755.29 712.469 Q2760.64 712.469 2763.53 714.691 Q2766.43 716.914 2766.43 721.011 Q2766.43 724.182 2764.94 726.057 Q2763.46 727.932 2760.59 728.395 Q2764.04 729.136 2765.94 731.497 Q2767.86 733.835 2767.86 737.353 Q2767.86 741.983 2764.71 744.506 Q2761.56 747.029 2755.75 747.029 L2743.35 747.029 L2743.35 712.469 Z" fill="#000000" fill-rule="nonzero" fill-opacity="1" /><path clip-path="url(#clip330)" d="M2780.55 716.312 L2780.55 743.187 L2786.19 743.187 Q2793.35 743.187 2796.66 739.946 Q2799.99 736.705 2799.99 729.715 Q2799.99 722.77 2796.66 719.553 Q2793.35 716.312 2786.19 716.312 L2780.55 716.312 M2775.87 712.469 L2785.48 712.469 Q2795.52 712.469 2800.22 716.659 Q2804.92 720.826 2804.92 729.715 Q2804.92 738.65 2800.2 742.839 Q2795.48 747.029 2785.48 747.029 L2775.87 747.029 L2775.87 712.469 Z" fill="#000000" fill-rule="nonzero" fill-opacity="1" /><path clip-path="url(#clip330)" d="M2812.37 712.469 L2832.24 712.469 L2832.24 716.404 L2817.05 716.404 L2817.05 726.59 L2830.75 726.59 L2830.75 730.525 L2817.05 730.525 L2817.05 747.029 L2812.37 747.029 L2812.37 712.469 Z" fill="#000000" fill-rule="nonzero" fill-opacity="1" /></svg>
