<?xml version="1.0" encoding="utf-8"?>
<svg xmlns="http://www.w3.org/2000/svg" xmlns:xlink="http://www.w3.org/1999/xlink" width="600" height="400" viewBox="0 0 2400 1600">
<defs>
  <clipPath id="clip600">
    <rect x="0" y="0" width="2400" height="1600"/>
  </clipPath>
</defs>
<path clip-path="url(#clip600)" d="M0 1600 L2400 1600 L2400 0 L0 0  Z" fill="#ffffff" fill-rule="evenodd" fill-opacity="1"/>
<defs>
  <clipPath id="clip601">
    <rect x="480" y="0" width="1681" height="1600"/>
  </clipPath>
</defs>
<path clip-path="url(#clip600)" d="M394.884 1423.18 L2352.76 1423.18 L2352.76 47.2441 L394.884 47.2441  Z" fill="#ffffff" fill-rule="evenodd" fill-opacity="1"/>
<defs>
  <clipPath id="clip602">
    <rect x="394" y="47" width="1959" height="1377"/>
  </clipPath>
</defs>
<polyline clip-path="url(#clip602)" style="stroke:#000000; stroke-linecap:round; stroke-linejoin:round; stroke-width:2; stroke-opacity:0.1; fill:none" points="758.137,1423.18 758.137,47.2441 "/>
<polyline clip-path="url(#clip602)" style="stroke:#000000; stroke-linecap:round; stroke-linejoin:round; stroke-width:2; stroke-opacity:0.1; fill:none" points="1142.94,1423.18 1142.94,47.2441 "/>
<polyline clip-path="url(#clip602)" style="stroke:#000000; stroke-linecap:round; stroke-linejoin:round; stroke-width:2; stroke-opacity:0.1; fill:none" points="1527.74,1423.18 1527.74,47.2441 "/>
<polyline clip-path="url(#clip602)" style="stroke:#000000; stroke-linecap:round; stroke-linejoin:round; stroke-width:2; stroke-opacity:0.1; fill:none" points="1912.54,1423.18 1912.54,47.2441 "/>
<polyline clip-path="url(#clip602)" style="stroke:#000000; stroke-linecap:round; stroke-linejoin:round; stroke-width:2; stroke-opacity:0.1; fill:none" points="2297.34,1423.18 2297.34,47.2441 "/>
<polyline clip-path="url(#clip602)" style="stroke:#000000; stroke-linecap:round; stroke-linejoin:round; stroke-width:2; stroke-opacity:0.1; fill:none" points="394.884,1273 2352.76,1273 "/>
<polyline clip-path="url(#clip602)" style="stroke:#000000; stroke-linecap:round; stroke-linejoin:round; stroke-width:2; stroke-opacity:0.1; fill:none" points="394.884,1095.68 2352.76,1095.68 "/>
<polyline clip-path="url(#clip602)" style="stroke:#000000; stroke-linecap:round; stroke-linejoin:round; stroke-width:2; stroke-opacity:0.1; fill:none" points="394.884,918.364 2352.76,918.364 "/>
<polyline clip-path="url(#clip602)" style="stroke:#000000; stroke-linecap:round; stroke-linejoin:round; stroke-width:2; stroke-opacity:0.1; fill:none" points="394.884,741.048 2352.76,741.048 "/>
<polyline clip-path="url(#clip602)" style="stroke:#000000; stroke-linecap:round; stroke-linejoin:round; stroke-width:2; stroke-opacity:0.1; fill:none" points="394.884,563.733 2352.76,563.733 "/>
<polyline clip-path="url(#clip602)" style="stroke:#000000; stroke-linecap:round; stroke-linejoin:round; stroke-width:2; stroke-opacity:0.1; fill:none" points="394.884,386.417 2352.76,386.417 "/>
<polyline clip-path="url(#clip602)" style="stroke:#000000; stroke-linecap:round; stroke-linejoin:round; stroke-width:2; stroke-opacity:0.1; fill:none" points="394.884,209.102 2352.76,209.102 "/>
<polyline clip-path="url(#clip600)" style="stroke:#000000; stroke-linecap:round; stroke-linejoin:round; stroke-width:4; stroke-opacity:1; fill:none" points="394.884,1423.18 2352.76,1423.18 "/>
<polyline clip-path="url(#clip600)" style="stroke:#000000; stroke-linecap:round; stroke-linejoin:round; stroke-width:4; stroke-opacity:1; fill:none" points="758.137,1423.18 758.137,1404.28 "/>
<polyline clip-path="url(#clip600)" style="stroke:#000000; stroke-linecap:round; stroke-linejoin:round; stroke-width:4; stroke-opacity:1; fill:none" points="1142.94,1423.18 1142.94,1404.28 "/>
<polyline clip-path="url(#clip600)" style="stroke:#000000; stroke-linecap:round; stroke-linejoin:round; stroke-width:4; stroke-opacity:1; fill:none" points="1527.74,1423.18 1527.74,1404.28 "/>
<polyline clip-path="url(#clip600)" style="stroke:#000000; stroke-linecap:round; stroke-linejoin:round; stroke-width:4; stroke-opacity:1; fill:none" points="1912.54,1423.18 1912.54,1404.28 "/>
<polyline clip-path="url(#clip600)" style="stroke:#000000; stroke-linecap:round; stroke-linejoin:round; stroke-width:4; stroke-opacity:1; fill:none" points="2297.34,1423.18 2297.34,1404.28 "/>
<path clip-path="url(#clip600)" d="M721.829 1481.64 L738.149 1481.64 L738.149 1485.58 L716.204 1485.58 L716.204 1481.64 Q718.866 1478.89 723.45 1474.26 Q728.056 1469.61 729.237 1468.27 Q731.482 1465.74 732.362 1464.01 Q733.265 1462.25 733.265 1460.56 Q733.265 1457.8 731.32 1456.07 Q729.399 1454.33 726.297 1454.33 Q724.098 1454.33 721.644 1455.09 Q719.214 1455.86 716.436 1457.41 L716.436 1452.69 Q719.26 1451.55 721.714 1450.97 Q724.167 1450.39 726.204 1450.39 Q731.575 1450.39 734.769 1453.08 Q737.964 1455.77 737.964 1460.26 Q737.964 1462.39 737.153 1464.31 Q736.366 1466.2 734.26 1468.8 Q733.681 1469.47 730.579 1472.69 Q727.478 1475.88 721.829 1481.64 Z" fill="#000000" fill-rule="nonzero" fill-opacity="1" /><path clip-path="url(#clip600)" d="M757.963 1454.1 Q754.352 1454.1 752.524 1457.66 Q750.718 1461.2 750.718 1468.33 Q750.718 1475.44 752.524 1479.01 Q754.352 1482.55 757.963 1482.55 Q761.598 1482.55 763.403 1479.01 Q765.232 1475.44 765.232 1468.33 Q765.232 1461.2 763.403 1457.66 Q761.598 1454.1 757.963 1454.1 M757.963 1450.39 Q763.774 1450.39 766.829 1455 Q769.908 1459.58 769.908 1468.33 Q769.908 1477.06 766.829 1481.67 Q763.774 1486.25 757.963 1486.25 Q752.153 1486.25 749.075 1481.67 Q746.019 1477.06 746.019 1468.33 Q746.019 1459.58 749.075 1455 Q752.153 1450.39 757.963 1450.39 Z" fill="#000000" fill-rule="nonzero" fill-opacity="1" /><path clip-path="url(#clip600)" d="M788.125 1454.1 Q784.514 1454.1 782.686 1457.66 Q780.88 1461.2 780.88 1468.33 Q780.88 1475.44 782.686 1479.01 Q784.514 1482.55 788.125 1482.55 Q791.76 1482.55 793.565 1479.01 Q795.394 1475.44 795.394 1468.33 Q795.394 1461.2 793.565 1457.66 Q791.76 1454.1 788.125 1454.1 M788.125 1450.39 Q793.935 1450.39 796.991 1455 Q800.07 1459.58 800.07 1468.33 Q800.07 1477.06 796.991 1481.67 Q793.935 1486.25 788.125 1486.25 Q782.315 1486.25 779.236 1481.67 Q776.181 1477.06 776.181 1468.33 Q776.181 1459.58 779.236 1455 Q782.315 1450.39 788.125 1450.39 Z" fill="#000000" fill-rule="nonzero" fill-opacity="1" /><path clip-path="url(#clip600)" d="M1116.03 1455.09 L1104.22 1473.54 L1116.03 1473.54 L1116.03 1455.09 M1114.8 1451.02 L1120.68 1451.02 L1120.68 1473.54 L1125.61 1473.54 L1125.61 1477.43 L1120.68 1477.43 L1120.68 1485.58 L1116.03 1485.58 L1116.03 1477.43 L1100.43 1477.43 L1100.43 1472.92 L1114.8 1451.02 Z" fill="#000000" fill-rule="nonzero" fill-opacity="1" /><path clip-path="url(#clip600)" d="M1143.34 1454.1 Q1139.73 1454.1 1137.9 1457.66 Q1136.1 1461.2 1136.1 1468.33 Q1136.1 1475.44 1137.9 1479.01 Q1139.73 1482.55 1143.34 1482.55 Q1146.98 1482.55 1148.78 1479.01 Q1150.61 1475.44 1150.61 1468.33 Q1150.61 1461.2 1148.78 1457.66 Q1146.98 1454.1 1143.34 1454.1 M1143.34 1450.39 Q1149.15 1450.39 1152.21 1455 Q1155.29 1459.58 1155.29 1468.33 Q1155.29 1477.06 1152.21 1481.67 Q1149.15 1486.25 1143.34 1486.25 Q1137.53 1486.25 1134.46 1481.67 Q1131.4 1477.06 1131.4 1468.33 Q1131.4 1459.58 1134.46 1455 Q1137.53 1450.39 1143.34 1450.39 Z" fill="#000000" fill-rule="nonzero" fill-opacity="1" /><path clip-path="url(#clip600)" d="M1173.51 1454.1 Q1169.89 1454.1 1168.07 1457.66 Q1166.26 1461.2 1166.26 1468.33 Q1166.26 1475.44 1168.07 1479.01 Q1169.89 1482.55 1173.51 1482.55 Q1177.14 1482.55 1178.95 1479.01 Q1180.77 1475.44 1180.77 1468.33 Q1180.77 1461.2 1178.95 1457.66 Q1177.14 1454.1 1173.51 1454.1 M1173.51 1450.39 Q1179.32 1450.39 1182.37 1455 Q1185.45 1459.58 1185.45 1468.33 Q1185.45 1477.06 1182.37 1481.67 Q1179.32 1486.25 1173.51 1486.25 Q1167.7 1486.25 1164.62 1481.67 Q1161.56 1477.06 1161.56 1468.33 Q1161.56 1459.58 1164.62 1455 Q1167.7 1450.39 1173.51 1450.39 Z" fill="#000000" fill-rule="nonzero" fill-opacity="1" /><path clip-path="url(#clip600)" d="M1498.06 1466.44 Q1494.92 1466.44 1493.07 1468.59 Q1491.24 1470.74 1491.24 1474.49 Q1491.24 1478.22 1493.07 1480.39 Q1494.92 1482.55 1498.06 1482.55 Q1501.21 1482.55 1503.04 1480.39 Q1504.89 1478.22 1504.89 1474.49 Q1504.89 1470.74 1503.04 1468.59 Q1501.21 1466.44 1498.06 1466.44 M1507.35 1451.78 L1507.35 1456.04 Q1505.59 1455.21 1503.78 1454.77 Q1502 1454.33 1500.24 1454.33 Q1495.61 1454.33 1493.16 1457.45 Q1490.73 1460.58 1490.38 1466.9 Q1491.75 1464.89 1493.81 1463.82 Q1495.87 1462.73 1498.34 1462.73 Q1503.55 1462.73 1506.56 1465.9 Q1509.59 1469.05 1509.59 1474.49 Q1509.59 1479.82 1506.44 1483.03 Q1503.3 1486.25 1498.06 1486.25 Q1492.07 1486.25 1488.9 1481.67 Q1485.73 1477.06 1485.73 1468.33 Q1485.73 1460.14 1489.62 1455.28 Q1493.5 1450.39 1500.06 1450.39 Q1501.81 1450.39 1503.6 1450.74 Q1505.4 1451.09 1507.35 1451.78 Z" fill="#000000" fill-rule="nonzero" fill-opacity="1" /><path clip-path="url(#clip600)" d="M1527.65 1454.1 Q1524.04 1454.1 1522.21 1457.66 Q1520.4 1461.2 1520.4 1468.33 Q1520.4 1475.44 1522.21 1479.01 Q1524.04 1482.55 1527.65 1482.55 Q1531.28 1482.55 1533.09 1479.01 Q1534.92 1475.44 1534.92 1468.33 Q1534.92 1461.2 1533.09 1457.66 Q1531.28 1454.1 1527.65 1454.1 M1527.65 1450.39 Q1533.46 1450.39 1536.51 1455 Q1539.59 1459.58 1539.59 1468.33 Q1539.59 1477.06 1536.51 1481.67 Q1533.46 1486.25 1527.65 1486.25 Q1521.84 1486.25 1518.76 1481.67 Q1515.7 1477.06 1515.7 1468.33 Q1515.7 1459.58 1518.76 1455 Q1521.84 1450.39 1527.65 1450.39 Z" fill="#000000" fill-rule="nonzero" fill-opacity="1" /><path clip-path="url(#clip600)" d="M1557.81 1454.1 Q1554.2 1454.1 1552.37 1457.66 Q1550.56 1461.2 1550.56 1468.33 Q1550.56 1475.44 1552.37 1479.01 Q1554.2 1482.55 1557.81 1482.55 Q1561.44 1482.55 1563.25 1479.01 Q1565.08 1475.44 1565.08 1468.33 Q1565.08 1461.2 1563.25 1457.66 Q1561.44 1454.1 1557.81 1454.1 M1557.81 1450.39 Q1563.62 1450.39 1566.68 1455 Q1569.75 1459.58 1569.75 1468.33 Q1569.75 1477.06 1566.68 1481.67 Q1563.62 1486.25 1557.81 1486.25 Q1552 1486.25 1548.92 1481.67 Q1545.87 1477.06 1545.87 1468.33 Q1545.87 1459.58 1548.92 1455 Q1552 1450.39 1557.81 1450.39 Z" fill="#000000" fill-rule="nonzero" fill-opacity="1" /><path clip-path="url(#clip600)" d="M1882.33 1469.17 Q1879 1469.17 1877.08 1470.95 Q1875.18 1472.73 1875.18 1475.86 Q1875.18 1478.98 1877.08 1480.77 Q1879 1482.55 1882.33 1482.55 Q1885.67 1482.55 1887.59 1480.77 Q1889.51 1478.96 1889.51 1475.86 Q1889.51 1472.73 1887.59 1470.95 Q1885.69 1469.17 1882.33 1469.17 M1877.66 1467.18 Q1874.65 1466.44 1872.96 1464.38 Q1871.29 1462.32 1871.29 1459.35 Q1871.29 1455.21 1874.23 1452.8 Q1877.2 1450.39 1882.33 1450.39 Q1887.5 1450.39 1890.44 1452.8 Q1893.38 1455.21 1893.38 1459.35 Q1893.38 1462.32 1891.69 1464.38 Q1890.02 1466.44 1887.03 1467.18 Q1890.41 1467.96 1892.29 1470.26 Q1894.19 1472.55 1894.19 1475.86 Q1894.19 1480.88 1891.11 1483.57 Q1888.05 1486.25 1882.33 1486.25 Q1876.62 1486.25 1873.54 1483.57 Q1870.48 1480.88 1870.48 1475.86 Q1870.48 1472.55 1872.38 1470.26 Q1874.28 1467.96 1877.66 1467.18 M1875.95 1459.79 Q1875.95 1462.48 1877.61 1463.98 Q1879.3 1465.49 1882.33 1465.49 Q1885.34 1465.49 1887.03 1463.98 Q1888.75 1462.48 1888.75 1459.79 Q1888.75 1457.11 1887.03 1455.6 Q1885.34 1454.1 1882.33 1454.1 Q1879.3 1454.1 1877.61 1455.6 Q1875.95 1457.11 1875.95 1459.79 Z" fill="#000000" fill-rule="nonzero" fill-opacity="1" /><path clip-path="url(#clip600)" d="M1912.5 1454.1 Q1908.89 1454.1 1907.06 1457.66 Q1905.25 1461.2 1905.25 1468.33 Q1905.25 1475.44 1907.06 1479.01 Q1908.89 1482.55 1912.5 1482.55 Q1916.13 1482.55 1917.94 1479.01 Q1919.76 1475.44 1919.76 1468.33 Q1919.76 1461.2 1917.94 1457.66 Q1916.13 1454.1 1912.5 1454.1 M1912.5 1450.39 Q1918.31 1450.39 1921.36 1455 Q1924.44 1459.58 1924.44 1468.33 Q1924.44 1477.06 1921.36 1481.67 Q1918.31 1486.25 1912.5 1486.25 Q1906.69 1486.25 1903.61 1481.67 Q1900.55 1477.06 1900.55 1468.33 Q1900.55 1459.58 1903.61 1455 Q1906.69 1450.39 1912.5 1450.39 Z" fill="#000000" fill-rule="nonzero" fill-opacity="1" /><path clip-path="url(#clip600)" d="M1942.66 1454.1 Q1939.05 1454.1 1937.22 1457.66 Q1935.41 1461.2 1935.41 1468.33 Q1935.41 1475.44 1937.22 1479.01 Q1939.05 1482.55 1942.66 1482.55 Q1946.29 1482.55 1948.1 1479.01 Q1949.93 1475.44 1949.93 1468.33 Q1949.93 1461.2 1948.1 1457.66 Q1946.29 1454.1 1942.66 1454.1 M1942.66 1450.39 Q1948.47 1450.39 1951.52 1455 Q1954.6 1459.58 1954.6 1468.33 Q1954.6 1477.06 1951.52 1481.67 Q1948.47 1486.25 1942.66 1486.25 Q1936.85 1486.25 1933.77 1481.67 Q1930.71 1477.06 1930.71 1468.33 Q1930.71 1459.58 1933.77 1455 Q1936.85 1450.39 1942.66 1450.39 Z" fill="#000000" fill-rule="nonzero" fill-opacity="1" /><path clip-path="url(#clip600)" d="M2241.87 1481.64 L2249.51 1481.64 L2249.51 1455.28 L2241.2 1456.95 L2241.2 1452.69 L2249.46 1451.02 L2254.14 1451.02 L2254.14 1481.64 L2261.78 1481.64 L2261.78 1485.58 L2241.87 1485.58 L2241.87 1481.64 Z" fill="#000000" fill-rule="nonzero" fill-opacity="1" /><path clip-path="url(#clip600)" d="M2281.22 1454.1 Q2277.61 1454.1 2275.78 1457.66 Q2273.98 1461.2 2273.98 1468.33 Q2273.98 1475.44 2275.78 1479.01 Q2277.61 1482.55 2281.22 1482.55 Q2284.86 1482.55 2286.66 1479.01 Q2288.49 1475.44 2288.49 1468.33 Q2288.49 1461.2 2286.66 1457.66 Q2284.86 1454.1 2281.22 1454.1 M2281.22 1450.39 Q2287.03 1450.39 2290.09 1455 Q2293.17 1459.58 2293.17 1468.33 Q2293.17 1477.06 2290.09 1481.67 Q2287.03 1486.25 2281.22 1486.25 Q2275.41 1486.25 2272.33 1481.67 Q2269.28 1477.06 2269.28 1468.33 Q2269.28 1459.58 2272.33 1455 Q2275.41 1450.39 2281.22 1450.39 Z" fill="#000000" fill-rule="nonzero" fill-opacity="1" /><path clip-path="url(#clip600)" d="M2311.38 1454.1 Q2307.77 1454.1 2305.94 1457.66 Q2304.14 1461.2 2304.14 1468.33 Q2304.14 1475.44 2305.94 1479.01 Q2307.77 1482.55 2311.38 1482.55 Q2315.02 1482.55 2316.82 1479.01 Q2318.65 1475.44 2318.65 1468.33 Q2318.65 1461.2 2316.82 1457.66 Q2315.02 1454.1 2311.38 1454.1 M2311.38 1450.39 Q2317.19 1450.39 2320.25 1455 Q2323.33 1459.58 2323.33 1468.33 Q2323.33 1477.06 2320.25 1481.67 Q2317.19 1486.25 2311.38 1486.25 Q2305.57 1486.25 2302.49 1481.67 Q2299.44 1477.06 2299.44 1468.33 Q2299.44 1459.58 2302.49 1455 Q2305.57 1450.39 2311.38 1450.39 Z" fill="#000000" fill-rule="nonzero" fill-opacity="1" /><path clip-path="url(#clip600)" d="M2341.55 1454.1 Q2337.93 1454.1 2336.11 1457.66 Q2334.3 1461.2 2334.3 1468.33 Q2334.3 1475.44 2336.11 1479.01 Q2337.93 1482.55 2341.55 1482.55 Q2345.18 1482.55 2346.99 1479.01 Q2348.81 1475.44 2348.81 1468.33 Q2348.81 1461.2 2346.99 1457.66 Q2345.18 1454.1 2341.55 1454.1 M2341.55 1450.39 Q2347.36 1450.39 2350.41 1455 Q2353.49 1459.58 2353.49 1468.33 Q2353.49 1477.06 2350.41 1481.67 Q2347.36 1486.25 2341.55 1486.25 Q2335.74 1486.25 2332.66 1481.67 Q2329.6 1477.06 2329.6 1468.33 Q2329.6 1459.58 2332.66 1455 Q2335.74 1450.39 2341.55 1450.39 Z" fill="#000000" fill-rule="nonzero" fill-opacity="1" /><path clip-path="url(#clip600)" d="M1370.89 1518.52 L1376.75 1518.52 L1376.75 1568.04 L1370.89 1568.04 L1370.89 1518.52 Z" fill="#000000" fill-rule="nonzero" fill-opacity="1" /><polyline clip-path="url(#clip600)" style="stroke:#000000; stroke-linecap:round; stroke-linejoin:round; stroke-width:4; stroke-opacity:1; fill:none" points="394.884,1423.18 394.884,47.2441 "/>
<polyline clip-path="url(#clip600)" style="stroke:#000000; stroke-linecap:round; stroke-linejoin:round; stroke-width:4; stroke-opacity:1; fill:none" points="394.884,1273 413.782,1273 "/>
<polyline clip-path="url(#clip600)" style="stroke:#000000; stroke-linecap:round; stroke-linejoin:round; stroke-width:4; stroke-opacity:1; fill:none" points="394.884,1095.68 413.782,1095.68 "/>
<polyline clip-path="url(#clip600)" style="stroke:#000000; stroke-linecap:round; stroke-linejoin:round; stroke-width:4; stroke-opacity:1; fill:none" points="394.884,918.364 413.782,918.364 "/>
<polyline clip-path="url(#clip600)" style="stroke:#000000; stroke-linecap:round; stroke-linejoin:round; stroke-width:4; stroke-opacity:1; fill:none" points="394.884,741.048 413.782,741.048 "/>
<polyline clip-path="url(#clip600)" style="stroke:#000000; stroke-linecap:round; stroke-linejoin:round; stroke-width:4; stroke-opacity:1; fill:none" points="394.884,563.733 413.782,563.733 "/>
<polyline clip-path="url(#clip600)" style="stroke:#000000; stroke-linecap:round; stroke-linejoin:round; stroke-width:4; stroke-opacity:1; fill:none" points="394.884,386.417 413.782,386.417 "/>
<polyline clip-path="url(#clip600)" style="stroke:#000000; stroke-linecap:round; stroke-linejoin:round; stroke-width:4; stroke-opacity:1; fill:none" points="394.884,209.102 413.782,209.102 "/>
<path clip-path="url(#clip600)" d="M121.043 1292.79 L137.362 1292.79 L137.362 1296.72 L115.418 1296.72 L115.418 1292.79 Q118.08 1290.03 122.663 1285.4 Q127.269 1280.75 128.45 1279.41 Q130.695 1276.88 131.575 1275.15 Q132.478 1273.39 132.478 1271.7 Q132.478 1268.95 130.533 1267.21 Q128.612 1265.47 125.51 1265.47 Q123.311 1265.47 120.857 1266.24 Q118.427 1267 115.649 1268.55 L115.649 1263.83 Q118.473 1262.7 120.927 1262.12 Q123.38 1261.54 125.418 1261.54 Q130.788 1261.54 133.982 1264.22 Q137.177 1266.91 137.177 1271.4 Q137.177 1273.53 136.367 1275.45 Q135.579 1277.35 133.473 1279.94 Q132.894 1280.61 129.792 1283.83 Q126.691 1287.02 121.043 1292.79 Z" fill="#000000" fill-rule="nonzero" fill-opacity="1" /><path clip-path="url(#clip600)" d="M147.177 1290.84 L152.061 1290.84 L152.061 1296.72 L147.177 1296.72 L147.177 1290.84 Z" fill="#000000" fill-rule="nonzero" fill-opacity="1" /><path clip-path="url(#clip600)" d="M172.246 1265.24 Q168.635 1265.24 166.806 1268.81 Q165.001 1272.35 165.001 1279.48 Q165.001 1286.58 166.806 1290.15 Q168.635 1293.69 172.246 1293.69 Q175.88 1293.69 177.686 1290.15 Q179.514 1286.58 179.514 1279.48 Q179.514 1272.35 177.686 1268.81 Q175.88 1265.24 172.246 1265.24 M172.246 1261.54 Q178.056 1261.54 181.112 1266.14 Q184.19 1270.73 184.19 1279.48 Q184.19 1288.2 181.112 1292.81 Q178.056 1297.39 172.246 1297.39 Q166.436 1297.39 163.357 1292.81 Q160.302 1288.2 160.302 1279.48 Q160.302 1270.73 163.357 1266.14 Q166.436 1261.54 172.246 1261.54 Z" fill="#000000" fill-rule="nonzero" fill-opacity="1" /><path clip-path="url(#clip600)" d="M220.579 1271.26 L210 1281.88 L220.579 1292.46 L217.824 1295.26 L207.199 1284.64 L196.575 1295.26 L193.843 1292.46 L204.399 1281.88 L193.843 1271.26 L196.575 1268.46 L207.199 1279.08 L217.824 1268.46 L220.579 1271.26 Z" fill="#000000" fill-rule="nonzero" fill-opacity="1" /><path clip-path="url(#clip600)" d="M232.94 1292.79 L240.579 1292.79 L240.579 1266.42 L232.269 1268.09 L232.269 1263.83 L240.533 1262.16 L245.209 1262.16 L245.209 1292.79 L252.847 1292.79 L252.847 1296.72 L232.94 1296.72 L232.94 1292.79 Z" fill="#000000" fill-rule="nonzero" fill-opacity="1" /><path clip-path="url(#clip600)" d="M272.292 1265.24 Q268.681 1265.24 266.852 1268.81 Q265.046 1272.35 265.046 1279.48 Q265.046 1286.58 266.852 1290.15 Q268.681 1293.69 272.292 1293.69 Q275.926 1293.69 277.732 1290.15 Q279.56 1286.58 279.56 1279.48 Q279.56 1272.35 277.732 1268.81 Q275.926 1265.24 272.292 1265.24 M272.292 1261.54 Q278.102 1261.54 281.157 1266.14 Q284.236 1270.73 284.236 1279.48 Q284.236 1288.2 281.157 1292.81 Q278.102 1297.39 272.292 1297.39 Q266.482 1297.39 263.403 1292.81 Q260.347 1288.2 260.347 1279.48 Q260.347 1270.73 263.403 1266.14 Q266.482 1261.54 272.292 1261.54 Z" fill="#000000" fill-rule="nonzero" fill-opacity="1" /><path clip-path="url(#clip600)" d="M284.236 1255.64 L308.348 1255.64 L308.348 1258.84 L284.236 1258.84 L284.236 1255.64 Z" fill="#000000" fill-rule="nonzero" fill-opacity="1" /><path clip-path="url(#clip600)" d="M317.206 1266.11 L323.413 1266.11 L323.413 1244.69 L316.661 1246.05 L316.661 1242.59 L323.375 1241.23 L327.174 1241.23 L327.174 1266.11 L333.381 1266.11 L333.381 1269.31 L317.206 1269.31 L317.206 1266.11 Z" fill="#000000" fill-rule="nonzero" fill-opacity="1" /><path clip-path="url(#clip600)" d="M349.179 1243.73 Q346.245 1243.73 344.76 1246.63 Q343.292 1249.51 343.292 1255.3 Q343.292 1261.07 344.76 1263.97 Q346.245 1266.85 349.179 1266.85 Q352.132 1266.85 353.599 1263.97 Q355.085 1261.07 355.085 1255.3 Q355.085 1249.51 353.599 1246.63 Q352.132 1243.73 349.179 1243.73 M349.179 1240.72 Q353.9 1240.72 356.383 1244.47 Q358.884 1248.19 358.884 1255.3 Q358.884 1262.39 356.383 1266.13 Q353.9 1269.86 349.179 1269.86 Q344.459 1269.86 341.957 1266.13 Q339.475 1262.39 339.475 1255.3 Q339.475 1248.19 341.957 1244.47 Q344.459 1240.72 349.179 1240.72 Z" fill="#000000" fill-rule="nonzero" fill-opacity="1" /><path clip-path="url(#clip600)" d="M131.181 1100.77 Q134.538 1101.49 136.413 1103.76 Q138.311 1106.03 138.311 1109.36 Q138.311 1114.48 134.792 1117.28 Q131.274 1120.08 124.793 1120.08 Q122.617 1120.08 120.302 1119.64 Q118.01 1119.22 115.556 1118.37 L115.556 1113.85 Q117.501 1114.99 119.816 1115.56 Q122.13 1116.14 124.654 1116.14 Q129.052 1116.14 131.343 1114.41 Q133.658 1112.67 133.658 1109.36 Q133.658 1106.31 131.505 1104.59 Q129.376 1102.86 125.556 1102.86 L121.529 1102.86 L121.529 1099.01 L125.742 1099.01 Q129.191 1099.01 131.019 1097.65 Q132.848 1096.26 132.848 1093.67 Q132.848 1091 130.95 1089.59 Q129.075 1088.16 125.556 1088.16 Q123.635 1088.16 121.436 1088.57 Q119.237 1088.99 116.598 1089.87 L116.598 1085.7 Q119.26 1084.96 121.575 1084.59 Q123.913 1084.22 125.973 1084.22 Q131.297 1084.22 134.399 1086.65 Q137.501 1089.06 137.501 1093.18 Q137.501 1096.05 135.857 1098.04 Q134.214 1100.01 131.181 1100.77 Z" fill="#000000" fill-rule="nonzero" fill-opacity="1" /><path clip-path="url(#clip600)" d="M147.177 1113.53 L152.061 1113.53 L152.061 1119.41 L147.177 1119.41 L147.177 1113.53 Z" fill="#000000" fill-rule="nonzero" fill-opacity="1" /><path clip-path="url(#clip600)" d="M172.246 1087.93 Q168.635 1087.93 166.806 1091.49 Q165.001 1095.03 165.001 1102.16 Q165.001 1109.27 166.806 1112.83 Q168.635 1116.37 172.246 1116.37 Q175.88 1116.37 177.686 1112.83 Q179.514 1109.27 179.514 1102.16 Q179.514 1095.03 177.686 1091.49 Q175.88 1087.93 172.246 1087.93 M172.246 1084.22 Q178.056 1084.22 181.112 1088.83 Q184.19 1093.41 184.19 1102.16 Q184.19 1110.89 181.112 1115.5 Q178.056 1120.08 172.246 1120.08 Q166.436 1120.08 163.357 1115.5 Q160.302 1110.89 160.302 1102.16 Q160.302 1093.41 163.357 1088.83 Q166.436 1084.22 172.246 1084.22 Z" fill="#000000" fill-rule="nonzero" fill-opacity="1" /><path clip-path="url(#clip600)" d="M220.579 1093.94 L210 1104.57 L220.579 1115.15 L217.824 1117.95 L207.199 1107.32 L196.575 1117.95 L193.843 1115.15 L204.399 1104.57 L193.843 1093.94 L196.575 1091.14 L207.199 1101.77 L217.824 1091.14 L220.579 1093.94 Z" fill="#000000" fill-rule="nonzero" fill-opacity="1" /><path clip-path="url(#clip600)" d="M232.94 1115.47 L240.579 1115.47 L240.579 1089.11 L232.269 1090.77 L232.269 1086.51 L240.533 1084.85 L245.209 1084.85 L245.209 1115.47 L252.847 1115.47 L252.847 1119.41 L232.94 1119.41 L232.94 1115.47 Z" fill="#000000" fill-rule="nonzero" fill-opacity="1" /><path clip-path="url(#clip600)" d="M272.292 1087.93 Q268.681 1087.93 266.852 1091.49 Q265.046 1095.03 265.046 1102.16 Q265.046 1109.27 266.852 1112.83 Q268.681 1116.37 272.292 1116.37 Q275.926 1116.37 277.732 1112.83 Q279.56 1109.27 279.56 1102.16 Q279.56 1095.03 277.732 1091.49 Q275.926 1087.93 272.292 1087.93 M272.292 1084.22 Q278.102 1084.22 281.157 1088.83 Q284.236 1093.41 284.236 1102.16 Q284.236 1110.89 281.157 1115.5 Q278.102 1120.08 272.292 1120.08 Q266.482 1120.08 263.403 1115.5 Q260.347 1110.89 260.347 1102.16 Q260.347 1093.41 263.403 1088.83 Q266.482 1084.22 272.292 1084.22 Z" fill="#000000" fill-rule="nonzero" fill-opacity="1" /><path clip-path="url(#clip600)" d="M284.236 1078.32 L308.348 1078.32 L308.348 1081.52 L284.236 1081.52 L284.236 1078.32 Z" fill="#000000" fill-rule="nonzero" fill-opacity="1" /><path clip-path="url(#clip600)" d="M317.206 1088.8 L323.413 1088.8 L323.413 1067.38 L316.661 1068.73 L316.661 1065.27 L323.375 1063.92 L327.174 1063.92 L327.174 1088.8 L333.381 1088.8 L333.381 1092 L317.206 1092 L317.206 1088.8 Z" fill="#000000" fill-rule="nonzero" fill-opacity="1" /><path clip-path="url(#clip600)" d="M349.179 1066.42 Q346.245 1066.42 344.76 1069.31 Q343.292 1072.19 343.292 1077.98 Q343.292 1083.76 344.76 1086.66 Q346.245 1089.53 349.179 1089.53 Q352.132 1089.53 353.599 1086.66 Q355.085 1083.76 355.085 1077.98 Q355.085 1072.19 353.599 1069.31 Q352.132 1066.42 349.179 1066.42 M349.179 1063.41 Q353.9 1063.41 356.383 1067.15 Q358.884 1070.88 358.884 1077.98 Q358.884 1085.08 356.383 1088.82 Q353.9 1092.54 349.179 1092.54 Q344.459 1092.54 341.957 1088.82 Q339.475 1085.08 339.475 1077.98 Q339.475 1070.88 341.957 1067.15 Q344.459 1063.41 349.179 1063.41 Z" fill="#000000" fill-rule="nonzero" fill-opacity="1" /><path clip-path="url(#clip600)" d="M129.862 911.606 L118.056 930.055 L129.862 930.055 L129.862 911.606 M128.635 907.532 L134.515 907.532 L134.515 930.055 L139.445 930.055 L139.445 933.943 L134.515 933.943 L134.515 942.092 L129.862 942.092 L129.862 933.943 L114.26 933.943 L114.26 929.43 L128.635 907.532 Z" fill="#000000" fill-rule="nonzero" fill-opacity="1" /><path clip-path="url(#clip600)" d="M147.177 936.212 L152.061 936.212 L152.061 942.092 L147.177 942.092 L147.177 936.212 Z" fill="#000000" fill-rule="nonzero" fill-opacity="1" /><path clip-path="url(#clip600)" d="M172.246 910.61 Q168.635 910.61 166.806 914.175 Q165.001 917.717 165.001 924.846 Q165.001 931.953 166.806 935.517 Q168.635 939.059 172.246 939.059 Q175.88 939.059 177.686 935.517 Q179.514 931.953 179.514 924.846 Q179.514 917.717 177.686 914.175 Q175.88 910.61 172.246 910.61 M172.246 906.907 Q178.056 906.907 181.112 911.513 Q184.19 916.096 184.19 924.846 Q184.19 933.573 181.112 938.18 Q178.056 942.763 172.246 942.763 Q166.436 942.763 163.357 938.18 Q160.302 933.573 160.302 924.846 Q160.302 916.096 163.357 911.513 Q166.436 906.907 172.246 906.907 Z" fill="#000000" fill-rule="nonzero" fill-opacity="1" /><path clip-path="url(#clip600)" d="M220.579 916.629 L210 927.254 L220.579 937.832 L217.824 940.633 L207.199 930.008 L196.575 940.633 L193.843 937.832 L204.399 927.254 L193.843 916.629 L196.575 913.828 L207.199 924.453 L217.824 913.828 L220.579 916.629 Z" fill="#000000" fill-rule="nonzero" fill-opacity="1" /><path clip-path="url(#clip600)" d="M232.94 938.156 L240.579 938.156 L240.579 911.791 L232.269 913.457 L232.269 909.198 L240.533 907.532 L245.209 907.532 L245.209 938.156 L252.847 938.156 L252.847 942.092 L232.94 942.092 L232.94 938.156 Z" fill="#000000" fill-rule="nonzero" fill-opacity="1" /><path clip-path="url(#clip600)" d="M272.292 910.61 Q268.681 910.61 266.852 914.175 Q265.046 917.717 265.046 924.846 Q265.046 931.953 266.852 935.517 Q268.681 939.059 272.292 939.059 Q275.926 939.059 277.732 935.517 Q279.56 931.953 279.56 924.846 Q279.56 917.717 277.732 914.175 Q275.926 910.61 272.292 910.61 M272.292 906.907 Q278.102 906.907 281.157 911.513 Q284.236 916.096 284.236 924.846 Q284.236 933.573 281.157 938.18 Q278.102 942.763 272.292 942.763 Q266.482 942.763 263.403 938.18 Q260.347 933.573 260.347 924.846 Q260.347 916.096 263.403 911.513 Q266.482 906.907 272.292 906.907 Z" fill="#000000" fill-rule="nonzero" fill-opacity="1" /><path clip-path="url(#clip600)" d="M284.236 901.008 L308.348 901.008 L308.348 904.205 L284.236 904.205 L284.236 901.008 Z" fill="#000000" fill-rule="nonzero" fill-opacity="1" /><path clip-path="url(#clip600)" d="M317.206 911.484 L323.413 911.484 L323.413 890.062 L316.661 891.416 L316.661 887.955 L323.375 886.601 L327.174 886.601 L327.174 911.484 L333.381 911.484 L333.381 914.681 L317.206 914.681 L317.206 911.484 Z" fill="#000000" fill-rule="nonzero" fill-opacity="1" /><path clip-path="url(#clip600)" d="M349.179 889.103 Q346.245 889.103 344.76 891.999 Q343.292 894.877 343.292 900.669 Q343.292 906.443 344.76 909.34 Q346.245 912.217 349.179 912.217 Q352.132 912.217 353.599 909.34 Q355.085 906.443 355.085 900.669 Q355.085 894.877 353.599 891.999 Q352.132 889.103 349.179 889.103 M349.179 886.093 Q353.9 886.093 356.383 889.836 Q358.884 893.56 358.884 900.669 Q358.884 907.76 356.383 911.503 Q353.9 915.227 349.179 915.227 Q344.459 915.227 341.957 911.503 Q339.475 907.76 339.475 900.669 Q339.475 893.56 341.957 889.836 Q344.459 886.093 349.179 886.093 Z" fill="#000000" fill-rule="nonzero" fill-opacity="1" /><path clip-path="url(#clip600)" d="M117.061 730.216 L135.417 730.216 L135.417 734.151 L121.343 734.151 L121.343 742.623 Q122.362 742.276 123.38 742.114 Q124.399 741.929 125.418 741.929 Q131.205 741.929 134.584 745.1 Q137.964 748.271 137.964 753.688 Q137.964 759.267 134.492 762.369 Q131.019 765.447 124.7 765.447 Q122.524 765.447 120.255 765.077 Q118.01 764.707 115.603 763.966 L115.603 759.267 Q117.686 760.401 119.908 760.957 Q122.13 761.512 124.607 761.512 Q128.612 761.512 130.95 759.406 Q133.288 757.299 133.288 753.688 Q133.288 750.077 130.95 747.97 Q128.612 745.864 124.607 745.864 Q122.732 745.864 120.857 746.281 Q119.006 746.697 117.061 747.577 L117.061 730.216 Z" fill="#000000" fill-rule="nonzero" fill-opacity="1" /><path clip-path="url(#clip600)" d="M147.177 758.896 L152.061 758.896 L152.061 764.776 L147.177 764.776 L147.177 758.896 Z" fill="#000000" fill-rule="nonzero" fill-opacity="1" /><path clip-path="url(#clip600)" d="M172.246 733.295 Q168.635 733.295 166.806 736.859 Q165.001 740.401 165.001 747.531 Q165.001 754.637 166.806 758.202 Q168.635 761.744 172.246 761.744 Q175.88 761.744 177.686 758.202 Q179.514 754.637 179.514 747.531 Q179.514 740.401 177.686 736.859 Q175.88 733.295 172.246 733.295 M172.246 729.591 Q178.056 729.591 181.112 734.197 Q184.19 738.781 184.19 747.531 Q184.19 756.257 181.112 760.864 Q178.056 765.447 172.246 765.447 Q166.436 765.447 163.357 760.864 Q160.302 756.257 160.302 747.531 Q160.302 738.781 163.357 734.197 Q166.436 729.591 172.246 729.591 Z" fill="#000000" fill-rule="nonzero" fill-opacity="1" /><path clip-path="url(#clip600)" d="M220.579 739.313 L210 749.938 L220.579 760.517 L217.824 763.318 L207.199 752.693 L196.575 763.318 L193.843 760.517 L204.399 749.938 L193.843 739.313 L196.575 736.512 L207.199 747.137 L217.824 736.512 L220.579 739.313 Z" fill="#000000" fill-rule="nonzero" fill-opacity="1" /><path clip-path="url(#clip600)" d="M232.94 760.841 L240.579 760.841 L240.579 734.475 L232.269 736.142 L232.269 731.883 L240.533 730.216 L245.209 730.216 L245.209 760.841 L252.847 760.841 L252.847 764.776 L232.94 764.776 L232.94 760.841 Z" fill="#000000" fill-rule="nonzero" fill-opacity="1" /><path clip-path="url(#clip600)" d="M272.292 733.295 Q268.681 733.295 266.852 736.859 Q265.046 740.401 265.046 747.531 Q265.046 754.637 266.852 758.202 Q268.681 761.744 272.292 761.744 Q275.926 761.744 277.732 758.202 Q279.56 754.637 279.56 747.531 Q279.56 740.401 277.732 736.859 Q275.926 733.295 272.292 733.295 M272.292 729.591 Q278.102 729.591 281.157 734.197 Q284.236 738.781 284.236 747.531 Q284.236 756.257 281.157 760.864 Q278.102 765.447 272.292 765.447 Q266.482 765.447 263.403 760.864 Q260.347 756.257 260.347 747.531 Q260.347 738.781 263.403 734.197 Q266.482 729.591 272.292 729.591 Z" fill="#000000" fill-rule="nonzero" fill-opacity="1" /><path clip-path="url(#clip600)" d="M284.236 723.692 L308.348 723.692 L308.348 726.89 L284.236 726.89 L284.236 723.692 Z" fill="#000000" fill-rule="nonzero" fill-opacity="1" /><path clip-path="url(#clip600)" d="M317.206 734.168 L323.413 734.168 L323.413 712.746 L316.661 714.1 L316.661 710.64 L323.375 709.286 L327.174 709.286 L327.174 734.168 L333.381 734.168 L333.381 737.366 L317.206 737.366 L317.206 734.168 Z" fill="#000000" fill-rule="nonzero" fill-opacity="1" /><path clip-path="url(#clip600)" d="M349.179 711.787 Q346.245 711.787 344.76 714.683 Q343.292 717.561 343.292 723.354 Q343.292 729.128 344.76 732.024 Q346.245 734.902 349.179 734.902 Q352.132 734.902 353.599 732.024 Q355.085 729.128 355.085 723.354 Q355.085 717.561 353.599 714.683 Q352.132 711.787 349.179 711.787 M349.179 708.778 Q353.9 708.778 356.383 712.52 Q358.884 716.244 358.884 723.354 Q358.884 730.444 356.383 734.187 Q353.9 737.911 349.179 737.911 Q344.459 737.911 341.957 734.187 Q339.475 730.444 339.475 723.354 Q339.475 716.244 341.957 712.52 Q344.459 708.778 349.179 708.778 Z" fill="#000000" fill-rule="nonzero" fill-opacity="1" /><path clip-path="url(#clip600)" d="M127.593 568.317 Q124.445 568.317 122.593 570.47 Q120.765 572.622 120.765 576.372 Q120.765 580.099 122.593 582.275 Q124.445 584.428 127.593 584.428 Q130.742 584.428 132.57 582.275 Q134.422 580.099 134.422 576.372 Q134.422 572.622 132.57 570.47 Q130.742 568.317 127.593 568.317 M136.876 553.664 L136.876 557.923 Q135.117 557.09 133.311 556.65 Q131.529 556.211 129.769 556.211 Q125.14 556.211 122.686 559.336 Q120.255 562.461 119.908 568.78 Q121.274 566.766 123.334 565.701 Q125.394 564.613 127.871 564.613 Q133.08 564.613 136.089 567.785 Q139.121 570.933 139.121 576.372 Q139.121 581.697 135.973 584.914 Q132.825 588.132 127.593 588.132 Q121.598 588.132 118.427 583.548 Q115.256 578.942 115.256 570.215 Q115.256 562.021 119.144 557.16 Q123.033 552.275 129.584 552.275 Q131.343 552.275 133.126 552.623 Q134.931 552.97 136.876 553.664 Z" fill="#000000" fill-rule="nonzero" fill-opacity="1" /><path clip-path="url(#clip600)" d="M147.177 581.581 L152.061 581.581 L152.061 587.46 L147.177 587.46 L147.177 581.581 Z" fill="#000000" fill-rule="nonzero" fill-opacity="1" /><path clip-path="url(#clip600)" d="M172.246 555.979 Q168.635 555.979 166.806 559.544 Q165.001 563.086 165.001 570.215 Q165.001 577.322 166.806 580.886 Q168.635 584.428 172.246 584.428 Q175.88 584.428 177.686 580.886 Q179.514 577.322 179.514 570.215 Q179.514 563.086 177.686 559.544 Q175.88 555.979 172.246 555.979 M172.246 552.275 Q178.056 552.275 181.112 556.882 Q184.19 561.465 184.19 570.215 Q184.19 578.942 181.112 583.548 Q178.056 588.132 172.246 588.132 Q166.436 588.132 163.357 583.548 Q160.302 578.942 160.302 570.215 Q160.302 561.465 163.357 556.882 Q166.436 552.275 172.246 552.275 Z" fill="#000000" fill-rule="nonzero" fill-opacity="1" /><path clip-path="url(#clip600)" d="M220.579 561.998 L210 572.622 L220.579 583.201 L217.824 586.002 L207.199 575.377 L196.575 586.002 L193.843 583.201 L204.399 572.622 L193.843 561.998 L196.575 559.197 L207.199 569.822 L217.824 559.197 L220.579 561.998 Z" fill="#000000" fill-rule="nonzero" fill-opacity="1" /><path clip-path="url(#clip600)" d="M232.94 583.525 L240.579 583.525 L240.579 557.16 L232.269 558.826 L232.269 554.567 L240.533 552.9 L245.209 552.9 L245.209 583.525 L252.847 583.525 L252.847 587.46 L232.94 587.46 L232.94 583.525 Z" fill="#000000" fill-rule="nonzero" fill-opacity="1" /><path clip-path="url(#clip600)" d="M272.292 555.979 Q268.681 555.979 266.852 559.544 Q265.046 563.086 265.046 570.215 Q265.046 577.322 266.852 580.886 Q268.681 584.428 272.292 584.428 Q275.926 584.428 277.732 580.886 Q279.56 577.322 279.56 570.215 Q279.56 563.086 277.732 559.544 Q275.926 555.979 272.292 555.979 M272.292 552.275 Q278.102 552.275 281.157 556.882 Q284.236 561.465 284.236 570.215 Q284.236 578.942 281.157 583.548 Q278.102 588.132 272.292 588.132 Q266.482 588.132 263.403 583.548 Q260.347 578.942 260.347 570.215 Q260.347 561.465 263.403 556.882 Q266.482 552.275 272.292 552.275 Z" fill="#000000" fill-rule="nonzero" fill-opacity="1" /><path clip-path="url(#clip600)" d="M284.236 546.377 L308.348 546.377 L308.348 549.574 L284.236 549.574 L284.236 546.377 Z" fill="#000000" fill-rule="nonzero" fill-opacity="1" /><path clip-path="url(#clip600)" d="M317.206 556.853 L323.413 556.853 L323.413 535.431 L316.661 536.785 L316.661 533.324 L323.375 531.97 L327.174 531.97 L327.174 556.853 L333.381 556.853 L333.381 560.05 L317.206 560.05 L317.206 556.853 Z" fill="#000000" fill-rule="nonzero" fill-opacity="1" /><path clip-path="url(#clip600)" d="M349.179 534.471 Q346.245 534.471 344.76 537.368 Q343.292 540.245 343.292 546.038 Q343.292 551.812 344.76 554.709 Q346.245 557.586 349.179 557.586 Q352.132 557.586 353.599 554.709 Q355.085 551.812 355.085 546.038 Q355.085 540.245 353.599 537.368 Q352.132 534.471 349.179 534.471 M349.179 531.462 Q353.9 531.462 356.383 535.205 Q358.884 538.929 358.884 546.038 Q358.884 553.129 356.383 556.871 Q353.9 560.595 349.179 560.595 Q344.459 560.595 341.957 556.871 Q339.475 553.129 339.475 546.038 Q339.475 538.929 341.957 535.205 Q344.459 531.462 349.179 531.462 Z" fill="#000000" fill-rule="nonzero" fill-opacity="1" /><path clip-path="url(#clip600)" d="M115.834 375.585 L138.056 375.585 L138.056 377.576 L125.51 410.145 L120.626 410.145 L132.431 379.52 L115.834 379.52 L115.834 375.585 Z" fill="#000000" fill-rule="nonzero" fill-opacity="1" /><path clip-path="url(#clip600)" d="M147.177 404.265 L152.061 404.265 L152.061 410.145 L147.177 410.145 L147.177 404.265 Z" fill="#000000" fill-rule="nonzero" fill-opacity="1" /><path clip-path="url(#clip600)" d="M172.246 378.663 Q168.635 378.663 166.806 382.228 Q165.001 385.77 165.001 392.9 Q165.001 400.006 166.806 403.571 Q168.635 407.112 172.246 407.112 Q175.88 407.112 177.686 403.571 Q179.514 400.006 179.514 392.9 Q179.514 385.77 177.686 382.228 Q175.88 378.663 172.246 378.663 M172.246 374.96 Q178.056 374.96 181.112 379.566 Q184.19 384.15 184.19 392.9 Q184.19 401.626 181.112 406.233 Q178.056 410.816 172.246 410.816 Q166.436 410.816 163.357 406.233 Q160.302 401.626 160.302 392.9 Q160.302 384.15 163.357 379.566 Q166.436 374.96 172.246 374.96 Z" fill="#000000" fill-rule="nonzero" fill-opacity="1" /><path clip-path="url(#clip600)" d="M220.579 384.682 L210 395.307 L220.579 405.886 L217.824 408.686 L207.199 398.062 L196.575 408.686 L193.843 405.886 L204.399 395.307 L193.843 384.682 L196.575 381.881 L207.199 392.506 L217.824 381.881 L220.579 384.682 Z" fill="#000000" fill-rule="nonzero" fill-opacity="1" /><path clip-path="url(#clip600)" d="M232.94 406.21 L240.579 406.21 L240.579 379.844 L232.269 381.511 L232.269 377.251 L240.533 375.585 L245.209 375.585 L245.209 406.21 L252.847 406.21 L252.847 410.145 L232.94 410.145 L232.94 406.21 Z" fill="#000000" fill-rule="nonzero" fill-opacity="1" /><path clip-path="url(#clip600)" d="M272.292 378.663 Q268.681 378.663 266.852 382.228 Q265.046 385.77 265.046 392.9 Q265.046 400.006 266.852 403.571 Q268.681 407.112 272.292 407.112 Q275.926 407.112 277.732 403.571 Q279.56 400.006 279.56 392.9 Q279.56 385.77 277.732 382.228 Q275.926 378.663 272.292 378.663 M272.292 374.96 Q278.102 374.96 281.157 379.566 Q284.236 384.15 284.236 392.9 Q284.236 401.626 281.157 406.233 Q278.102 410.816 272.292 410.816 Q266.482 410.816 263.403 406.233 Q260.347 401.626 260.347 392.9 Q260.347 384.15 263.403 379.566 Q266.482 374.96 272.292 374.96 Z" fill="#000000" fill-rule="nonzero" fill-opacity="1" /><path clip-path="url(#clip600)" d="M284.236 369.061 L308.348 369.061 L308.348 372.258 L284.236 372.258 L284.236 369.061 Z" fill="#000000" fill-rule="nonzero" fill-opacity="1" /><path clip-path="url(#clip600)" d="M317.206 379.537 L323.413 379.537 L323.413 358.115 L316.661 359.469 L316.661 356.009 L323.375 354.654 L327.174 354.654 L327.174 379.537 L333.381 379.537 L333.381 382.734 L317.206 382.734 L317.206 379.537 Z" fill="#000000" fill-rule="nonzero" fill-opacity="1" /><path clip-path="url(#clip600)" d="M349.179 357.156 Q346.245 357.156 344.76 360.052 Q343.292 362.93 343.292 368.723 Q343.292 374.497 344.76 377.393 Q346.245 380.271 349.179 380.271 Q352.132 380.271 353.599 377.393 Q355.085 374.497 355.085 368.723 Q355.085 362.93 353.599 360.052 Q352.132 357.156 349.179 357.156 M349.179 354.147 Q353.9 354.147 356.383 357.889 Q358.884 361.613 358.884 368.723 Q358.884 375.813 356.383 379.556 Q353.9 383.28 349.179 383.28 Q344.459 383.28 341.957 379.556 Q339.475 375.813 339.475 368.723 Q339.475 361.613 341.957 357.889 Q344.459 354.147 349.179 354.147 Z" fill="#000000" fill-rule="nonzero" fill-opacity="1" /><path clip-path="url(#clip600)" d="M127.015 216.417 Q123.681 216.417 121.76 218.2 Q119.862 219.982 119.862 223.107 Q119.862 226.232 121.76 228.014 Q123.681 229.797 127.015 229.797 Q130.348 229.797 132.269 228.014 Q134.191 226.209 134.191 223.107 Q134.191 219.982 132.269 218.2 Q130.371 216.417 127.015 216.417 M122.339 214.427 Q119.33 213.686 117.64 211.626 Q115.973 209.565 115.973 206.602 Q115.973 202.459 118.913 200.052 Q121.876 197.644 127.015 197.644 Q132.177 197.644 135.117 200.052 Q138.056 202.459 138.056 206.602 Q138.056 209.565 136.367 211.626 Q134.7 213.686 131.714 214.427 Q135.093 215.214 136.968 217.505 Q138.867 219.797 138.867 223.107 Q138.867 228.13 135.788 230.815 Q132.732 233.501 127.015 233.501 Q121.297 233.501 118.218 230.815 Q115.163 228.13 115.163 223.107 Q115.163 219.797 117.061 217.505 Q118.959 215.214 122.339 214.427 M120.626 207.042 Q120.626 209.727 122.293 211.232 Q123.982 212.737 127.015 212.737 Q130.024 212.737 131.714 211.232 Q133.427 209.727 133.427 207.042 Q133.427 204.357 131.714 202.853 Q130.024 201.348 127.015 201.348 Q123.982 201.348 122.293 202.853 Q120.626 204.357 120.626 207.042 Z" fill="#000000" fill-rule="nonzero" fill-opacity="1" /><path clip-path="url(#clip600)" d="M147.177 226.95 L152.061 226.95 L152.061 232.829 L147.177 232.829 L147.177 226.95 Z" fill="#000000" fill-rule="nonzero" fill-opacity="1" /><path clip-path="url(#clip600)" d="M172.246 201.348 Q168.635 201.348 166.806 204.913 Q165.001 208.454 165.001 215.584 Q165.001 222.69 166.806 226.255 Q168.635 229.797 172.246 229.797 Q175.88 229.797 177.686 226.255 Q179.514 222.69 179.514 215.584 Q179.514 208.454 177.686 204.913 Q175.88 201.348 172.246 201.348 M172.246 197.644 Q178.056 197.644 181.112 202.251 Q184.19 206.834 184.19 215.584 Q184.19 224.311 181.112 228.917 Q178.056 233.501 172.246 233.501 Q166.436 233.501 163.357 228.917 Q160.302 224.311 160.302 215.584 Q160.302 206.834 163.357 202.251 Q166.436 197.644 172.246 197.644 Z" fill="#000000" fill-rule="nonzero" fill-opacity="1" /><path clip-path="url(#clip600)" d="M220.579 207.366 L210 217.991 L220.579 228.57 L217.824 231.371 L207.199 220.746 L196.575 231.371 L193.843 228.57 L204.399 217.991 L193.843 207.366 L196.575 204.565 L207.199 215.19 L217.824 204.565 L220.579 207.366 Z" fill="#000000" fill-rule="nonzero" fill-opacity="1" /><path clip-path="url(#clip600)" d="M232.94 228.894 L240.579 228.894 L240.579 202.528 L232.269 204.195 L232.269 199.936 L240.533 198.269 L245.209 198.269 L245.209 228.894 L252.847 228.894 L252.847 232.829 L232.94 232.829 L232.94 228.894 Z" fill="#000000" fill-rule="nonzero" fill-opacity="1" /><path clip-path="url(#clip600)" d="M272.292 201.348 Q268.681 201.348 266.852 204.913 Q265.046 208.454 265.046 215.584 Q265.046 222.69 266.852 226.255 Q268.681 229.797 272.292 229.797 Q275.926 229.797 277.732 226.255 Q279.56 222.69 279.56 215.584 Q279.56 208.454 277.732 204.913 Q275.926 201.348 272.292 201.348 M272.292 197.644 Q278.102 197.644 281.157 202.251 Q284.236 206.834 284.236 215.584 Q284.236 224.311 281.157 228.917 Q278.102 233.501 272.292 233.501 Q266.482 233.501 263.403 228.917 Q260.347 224.311 260.347 215.584 Q260.347 206.834 263.403 202.251 Q266.482 197.644 272.292 197.644 Z" fill="#000000" fill-rule="nonzero" fill-opacity="1" /><path clip-path="url(#clip600)" d="M284.236 191.746 L308.348 191.746 L308.348 194.943 L284.236 194.943 L284.236 191.746 Z" fill="#000000" fill-rule="nonzero" fill-opacity="1" /><path clip-path="url(#clip600)" d="M317.206 202.221 L323.413 202.221 L323.413 180.799 L316.661 182.154 L316.661 178.693 L323.375 177.339 L327.174 177.339 L327.174 202.221 L333.381 202.221 L333.381 205.419 L317.206 205.419 L317.206 202.221 Z" fill="#000000" fill-rule="nonzero" fill-opacity="1" /><path clip-path="url(#clip600)" d="M349.179 179.84 Q346.245 179.84 344.76 182.737 Q343.292 185.614 343.292 191.407 Q343.292 197.181 344.76 200.077 Q346.245 202.955 349.179 202.955 Q352.132 202.955 353.599 200.077 Q355.085 197.181 355.085 191.407 Q355.085 185.614 353.599 182.737 Q352.132 179.84 349.179 179.84 M349.179 176.831 Q353.9 176.831 356.383 180.574 Q358.884 184.298 358.884 191.407 Q358.884 198.498 356.383 202.24 Q353.9 205.964 349.179 205.964 Q344.459 205.964 341.957 202.24 Q339.475 198.498 339.475 191.407 Q339.475 184.298 341.957 180.574 Q344.459 176.831 349.179 176.831 Z" fill="#000000" fill-rule="nonzero" fill-opacity="1" /><path clip-path="url(#clip600)" d="M14.479 902.328 L14.479 896.471 L64.0042 896.471 L64.0042 902.328 L14.479 902.328 Z" fill="#000000" fill-rule="nonzero" fill-opacity="1" /><path clip-path="url(#clip600)" d="M14.5426 870.149 Q21.8632 874.414 29.0246 876.483 Q36.186 878.552 43.5384 878.552 Q50.8908 878.552 58.1159 876.483 Q65.3091 874.382 72.5979 870.149 L72.5979 875.242 Q65.1182 880.016 57.8931 882.403 Q50.668 884.758 43.5384 884.758 Q36.4406 884.758 29.2474 882.403 Q22.0542 880.048 14.5426 875.242 L14.5426 870.149 Z" fill="#000000" fill-rule="nonzero" fill-opacity="1" /><path clip-path="url(#clip600)" d="M14.479 858.786 L14.479 852.93 L64.0042 852.93 L64.0042 858.786 L14.479 858.786 Z" fill="#000000" fill-rule="nonzero" fill-opacity="1" /><path clip-path="url(#clip600)" d="M23.1363 816.836 L40.8648 816.836 L40.8648 799.108 L46.2757 799.108 L46.2757 816.836 L64.0042 816.836 L64.0042 822.183 L46.2757 822.183 L46.2757 839.912 L40.8648 839.912 L40.8648 822.183 L23.1363 822.183 L23.1363 816.836 Z" fill="#000000" fill-rule="nonzero" fill-opacity="1" /><path clip-path="url(#clip600)" d="M58.5933 784.117 L58.5933 773.613 L22.3406 773.613 L24.6323 785.04 L18.7758 785.04 L16.4842 773.677 L16.4842 767.247 L58.5933 767.247 L58.5933 756.744 L64.0042 756.744 L64.0042 784.117 L58.5933 784.117 Z" fill="#000000" fill-rule="nonzero" fill-opacity="1" /><path clip-path="url(#clip600)" d="M14.5426 745.508 L14.5426 740.416 Q22.0542 735.642 29.2474 733.286 Q36.4406 730.899 43.5384 730.899 Q50.668 730.899 57.8931 733.286 Q65.1182 735.642 72.5979 740.416 L72.5979 745.508 Q65.3091 741.275 58.1159 739.206 Q50.8908 737.106 43.5384 737.106 Q36.186 737.106 29.0246 739.206 Q21.8632 741.275 14.5426 745.508 Z" fill="#000000" fill-rule="nonzero" fill-opacity="1" /><path clip-path="url(#clip600)" d="M20.1444 683.316 L26.9239 683.316 Q23.9002 686.562 22.4043 690.254 Q20.9083 693.914 20.9083 698.052 Q20.9083 706.2 25.9054 710.529 Q30.8707 714.858 40.2919 714.858 Q49.6813 714.858 54.6784 710.529 Q59.6436 706.2 59.6436 698.052 Q59.6436 693.914 58.1477 690.254 Q56.6518 686.562 53.6281 683.316 L60.3439 683.316 Q62.6355 686.689 63.7814 690.477 Q64.9272 694.233 64.9272 698.434 Q64.9272 709.224 58.3387 715.431 Q51.7183 721.637 40.2919 721.637 Q28.8336 721.637 22.2451 715.431 Q15.6248 709.224 15.6248 698.434 Q15.6248 694.169 16.7706 690.413 Q17.8846 686.626 20.1444 683.316 Z" fill="#000000" fill-rule="nonzero" fill-opacity="1" /><path clip-path="url(#clip600)" d="M36.2815 675.899 L36.2815 672.207 L64.0042 672.207 L64.0042 675.899 L36.2815 675.899 Z" fill="#000000" fill-rule="nonzero" fill-opacity="1" /><path clip-path="url(#clip600)" d="M16.4842 652.41 L16.4842 646.999 L70.0516 663.55 L70.0516 668.961 L16.4842 652.41 Z" fill="#000000" fill-rule="nonzero" fill-opacity="1" /><path clip-path="url(#clip600)" d="M58.5933 634.491 L58.5933 612.051 L64.0042 612.051 L64.0042 642.225 L58.5933 642.225 Q54.8057 638.565 48.44 632.263 Q42.0425 625.929 40.1964 624.305 Q36.7271 621.218 34.34 620.009 Q31.921 618.767 29.5975 618.767 Q25.8099 618.767 23.4228 621.441 Q21.0356 624.083 21.0356 628.348 Q21.0356 631.371 22.086 634.745 Q23.1363 638.087 25.2688 641.907 L18.7758 641.907 Q17.2162 638.024 16.4205 634.65 Q15.6248 631.276 15.6248 628.475 Q15.6248 621.091 19.3169 616.698 Q23.009 612.306 29.1837 612.306 Q32.112 612.306 34.7537 613.42 Q37.3637 614.502 40.9285 617.399 Q41.8515 618.194 46.2757 622.459 Q50.668 626.724 58.5933 634.491 Z" fill="#000000" fill-rule="nonzero" fill-opacity="1" /><path clip-path="url(#clip600)" d="M28.3562 603.171 L28.3562 569.019 L34.2127 569.019 L34.2127 573.507 L56.1107 573.507 Q58.4023 573.507 59.4208 572.743 Q60.4075 571.948 60.4075 570.197 Q60.4075 569.72 60.3439 569.019 Q60.2484 568.319 60.2166 568.096 L64.4498 568.096 Q64.8635 569.21 65.0545 570.388 Q65.2455 571.566 65.2455 572.743 Q65.2455 576.563 63.1766 578.027 Q61.0759 579.491 55.4741 579.491 L34.2127 579.491 L34.2127 592.636 L64.0042 592.636 L64.0042 598.62 L34.2127 598.62 L34.2127 603.171 L28.3562 603.171 Z" fill="#000000" fill-rule="nonzero" fill-opacity="1" /><path clip-path="url(#clip602)" d="M450.296 1384.24 L452.22 1378.77 L454.144 1373.46 L456.068 1368.31 L457.992 1363.3 L459.916 1358.43 L461.84 1353.67 L463.764 1349.02 L465.688 1344.45 L467.612 1339.94 L469.536 1335.48 L471.46 1331.04 L473.384 1326.59 L475.308 1322.12 L477.232 1317.58 L479.156 1312.95 L481.08 1308.19 L483.004 1303.28 L484.928 1298.18 L486.852 1292.84 L488.776 1287.23 L490.7 1281.5 L492.624 1275.81 L494.548 1270.16 L496.472 1264.55 L498.396 1258.96 L500.32 1253.4 L502.244 1247.84 L504.168 1242.29 L506.092 1236.73 L508.016 1231.15 L509.94 1225.55 L511.864 1219.91 L513.788 1214.22 L515.712 1208.48 L517.636 1202.66 L519.56 1196.76 L521.484 1190.76 L523.408 1184.65 L525.332 1178.41 L527.256 1172.03 L529.18 1165.58 L531.104 1159.13 L533.028 1152.67 L534.952 1146.21 L536.876 1139.74 L538.8 1133.26 L540.724 1126.76 L542.648 1120.23 L544.572 1113.67 L546.496 1107.08 L548.42 1100.46 L550.344 1093.78 L552.268 1087.06 L554.192 1080.28 L556.116 1073.43 L558.04 1066.52 L559.964 1059.53 L561.888 1052.45 L563.812 1045.29 L565.736 1038.02 L567.66 1030.7 L569.584 1023.38 L571.508 1016.05 L573.432 1008.71 L575.356 1001.35 L577.28 993.989 L579.204 986.608 L581.128 979.209 L583.052 971.791 L584.976 964.351 L586.9 956.886 L588.824 949.394 L590.748 941.873 L592.672 934.319 L594.596 926.731 L596.52 919.104 L598.444 911.437 L600.368 903.726 L602.292 895.967 L604.216 888.158 L606.14 880.324 L608.064 872.492 L609.988 864.659 L611.912 856.827 L613.836 848.995 L615.76 841.161 L617.684 833.324 L619.608 825.485 L621.532 817.641 L623.456 809.793 L625.38 801.939 L627.304 794.078 L629.228 786.209 L631.152 778.332 L633.076 770.443 L635 762.544 L636.924 754.632 L638.849 746.706 L640.773 738.765 L642.697 730.807 L644.621 722.854 L646.545 714.929 L648.469 707.032 L650.393 699.164 L652.317 691.326 L654.241 683.518 L656.165 675.74 L658.089 667.993 L660.013 660.278 L661.937 652.594 L663.861 644.942 L665.785 637.322 L667.709 629.735 L669.633 622.182 L671.557 614.661 L673.481 607.175 L675.405 599.723 L677.329 592.305 L679.253 584.921 L681.177 577.573 L683.101 570.27 L685.025 563.025 L686.949 555.839 L688.873 548.711 L690.797 541.645 L692.721 534.64 L694.645 527.697 L696.569 520.818 L698.493 514.004 L700.417 507.255 L702.341 500.573 L704.265 493.959 L706.189 487.413 L708.113 480.936 L710.037 474.53 L711.961 468.195 L713.885 461.933 L715.809 455.744 L717.733 449.63 L719.657 443.59 L721.581 437.633 L723.505 431.764 L725.429 425.984 L727.353 420.296 L729.277 414.7 L731.201 409.198 L733.125 403.791 L735.049 398.48 L736.973 393.266 L738.897 388.152 L740.821 383.138 L742.745 378.225 L744.669 373.415 L746.593 368.709 L748.517 364.109 L750.441 359.615 L752.365 355.229 L754.289 350.952 L756.213 346.786 L758.137 342.732 L760.061 338.789 L761.985 334.956 L763.909 331.235 L765.833 327.627 L767.757 324.134 L769.681 320.755 L771.605 317.493 L773.529 314.349 L775.453 311.323 L777.377 308.417 L779.301 305.632 L781.225 302.97 L783.149 300.43 L785.073 298.016 L786.997 295.726 L788.921 293.564 L790.845 291.529 L792.769 289.624 L794.693 287.848 L796.617 286.204 L798.541 284.688 L800.465 283.295 L802.389 282.027 L804.313 280.885 L806.237 279.869 L808.161 278.98 L810.085 278.219 L812.009 277.587 L813.933 277.085 L815.857 276.713 L817.781 276.473 L819.705 276.364 L821.629 276.389 L823.553 276.548 L825.477 276.841 L827.401 277.269 L829.325 277.834 L831.249 278.535 L833.173 279.374 L835.097 280.352 L837.021 281.46 L838.945 282.688 L840.869 284.037 L842.793 285.508 L844.717 287.101 L846.641 288.815 L848.566 290.651 L850.49 292.61 L852.414 294.691 L854.338 296.895 L856.262 299.223 L858.186 301.673 L860.11 304.247 L862.034 306.944 L863.958 309.765 L865.882 312.71 L867.806 315.779 L869.73 318.972 L871.654 322.29 L873.578 325.732 L875.502 329.29 L877.426 332.955 L879.35 336.726 L881.274 340.605 L883.198 344.589 L885.122 348.679 L887.046 352.874 L888.97 357.174 L890.894 361.579 L892.818 366.088 L894.742 370.701 L896.666 375.417 L898.59 380.236 L900.514 385.158 L902.438 390.182 L904.362 395.308 L906.286 400.534 L908.21 405.862 L910.134 411.289 L912.058 416.816 L913.982 422.433 L915.906 428.131 L917.83 433.907 L919.754 439.762 L921.678 445.694 L923.602 451.703 L925.526 457.787 L927.45 463.945 L929.374 470.176 L931.298 476.48 L933.222 482.855 L935.146 489.299 L937.07 495.813 L938.994 502.395 L940.918 509.043 L942.842 515.757 L944.766 522.536 L946.69 529.378 L948.614 536.281 L950.538 543.246 L952.462 550.265 L954.386 557.331 L956.31 564.442 L958.234 571.598 L960.158 578.796 L962.082 586.035 L964.006 593.313 L965.93 600.629 L967.854 607.982 L969.778 615.37 L971.702 622.79 L973.626 630.243 L975.55 637.725 L977.474 645.235 L979.398 652.772 L981.322 660.334 L983.246 667.919 L985.17 675.525 L987.094 683.151 L989.018 690.795 L990.942 698.453 L992.866 706.121 L994.79 713.798 L996.714 721.48 L998.638 729.167 L1000.56 736.855 L1002.49 744.545 L1004.41 752.232 L1006.33 759.917 L1008.26 767.595 L1010.18 775.266 L1012.11 782.927 L1014.03 790.576 L1015.95 798.212 L1017.88 805.832 L1019.8 813.434 L1021.73 821.015 L1023.65 828.575 L1025.57 836.109 L1027.5 843.618 L1029.42 851.101 L1031.35 858.561 L1033.27 865.996 L1035.19 873.403 L1037.12 880.78 L1039.04 888.126 L1040.97 895.438 L1042.89 902.714 L1044.81 909.951 L1046.74 917.148 L1048.66 924.302 L1050.59 931.412 L1052.51 938.474 L1054.43 945.487 L1056.36 952.448 L1058.28 959.355 L1060.21 966.205 L1062.13 972.997 L1064.05 979.728 L1065.98 986.395 L1067.9 993.005 L1069.83 999.563 L1071.75 1006.07 L1073.67 1012.52 L1075.6 1018.91 L1077.52 1025.24 L1079.45 1031.51 L1081.37 1037.71 L1083.29 1043.85 L1085.22 1049.92 L1087.14 1055.92 L1089.07 1061.84 L1090.99 1067.69 L1092.91 1073.46 L1094.84 1079.15 L1096.76 1084.76 L1098.69 1090.29 L1100.61 1095.72 L1102.53 1101.07 L1104.46 1106.32 L1106.38 1111.49 L1108.31 1116.6 L1110.23 1121.63 L1112.15 1126.6 L1114.08 1131.48 L1116 1136.29 L1117.93 1141.03 L1119.85 1145.68 L1121.77 1150.25 L1123.7 1154.73 L1125.62 1159.13 L1127.55 1163.44 L1129.47 1167.66 L1131.39 1171.78 L1133.32 1175.81 L1135.24 1179.75 L1137.17 1183.58 L1139.09 1187.31 L1141.01 1190.94 L1142.94 1194.46 L1144.86 1197.89 L1146.79 1201.24 L1148.71 1204.52 L1150.63 1207.72 L1152.56 1210.84 L1154.48 1213.88 L1156.41 1216.83 L1158.33 1219.7 L1160.25 1222.48 L1162.18 1225.17 L1164.1 1227.77 L1166.03 1230.28 L1167.95 1232.69 L1169.88 1235.01 L1171.8 1237.23 L1173.72 1239.34 L1175.65 1241.36 L1177.57 1243.27 L1179.5 1245.08 L1181.42 1246.78 L1183.34 1248.39 L1185.27 1249.93 L1187.19 1251.4 L1189.12 1252.8 L1191.04 1254.12 L1192.96 1255.37 L1194.89 1256.54 L1196.81 1257.63 L1198.74 1258.65 L1200.66 1259.58 L1202.58 1260.43 L1204.51 1261.2 L1206.43 1261.88 L1208.36 1262.47 L1210.28 1262.98 L1212.2 1263.4 L1214.13 1263.73 L1216.05 1263.96 L1217.98 1264.11 L1219.9 1264.15 L1221.82 1264.13 L1223.75 1264.04 L1225.67 1263.9 L1227.6 1263.71 L1229.52 1263.45 L1231.44 1263.13 L1233.37 1262.76 L1235.29 1262.32 L1237.22 1261.82 L1239.14 1261.26 L1241.06 1260.63 L1242.99 1259.94 L1244.91 1259.18 L1246.84 1258.36 L1248.76 1257.47 L1250.68 1256.51 L1252.61 1255.48 L1254.53 1254.38 L1256.46 1253.21 L1258.38 1251.97 L1260.3 1250.67 L1262.23 1249.34 L1264.15 1247.97 L1266.08 1246.56 L1268 1245.12 L1269.92 1243.64 L1271.85 1242.13 L1273.77 1240.57 L1275.7 1238.98 L1277.62 1237.35 L1279.54 1235.68 L1281.47 1233.97 L1283.39 1232.22 L1285.32 1230.43 L1287.24 1228.59 L1289.16 1226.72 L1291.09 1224.8 L1293.01 1222.84 L1294.94 1220.84 L1296.86 1218.79 L1298.78 1216.72 L1300.71 1214.63 L1302.63 1212.53 L1304.56 1210.42 L1306.48 1208.3 L1308.4 1206.16 L1310.33 1204.01 L1312.25 1201.85 L1314.18 1199.67 L1316.1 1197.49 L1318.02 1195.29 L1319.95 1193.07 L1321.87 1190.85 L1323.8 1188.61 L1325.72 1186.35 L1327.64 1184.09 L1329.57 1181.81 L1331.49 1179.51 L1333.42 1177.2 L1335.34 1174.88 L1337.26 1172.56 L1339.19 1170.25 L1341.11 1167.95 L1343.04 1165.66 L1344.96 1163.38 L1346.88 1161.11 L1348.81 1158.85 L1350.73 1156.6 L1352.66 1154.37 L1354.58 1152.15 L1356.5 1149.94 L1358.43 1147.74 L1360.35 1145.56 L1362.28 1143.39 L1364.2 1141.23 L1366.12 1139.09 L1368.05 1136.95 L1369.97 1134.84 L1371.9 1132.73 L1373.82 1130.65 L1375.74 1128.58 L1377.67 1126.54 L1379.59 1124.53 L1381.52 1122.54 L1383.44 1120.59 L1385.36 1118.66 L1387.29 1116.76 L1389.21 1114.9 L1391.14 1113.06 L1393.06 1111.26 L1394.98 1109.48 L1396.91 1107.74 L1398.83 1106.03 L1400.76 1104.35 L1402.68 1102.7 L1404.6 1101.09 L1406.53 1099.51 L1408.45 1097.96 L1410.38 1096.45 L1412.3 1094.98 L1414.22 1093.54 L1416.15 1092.14 L1418.07 1090.78 L1420 1089.46 L1421.92 1088.18 L1423.84 1086.95 L1425.77 1085.75 L1427.69 1084.6 L1429.62 1083.5 L1431.54 1082.43 L1433.46 1081.41 L1435.39 1080.44 L1437.31 1079.51 L1439.24 1078.62 L1441.16 1077.79 L1443.08 1076.99 L1445.01 1076.25 L1446.93 1075.55 L1448.86 1074.9 L1450.78 1074.3 L1452.7 1073.75 L1454.63 1073.23 L1456.55 1072.76 L1458.48 1072.34 L1460.4 1071.95 L1462.32 1071.61 L1464.25 1071.31 L1466.17 1071.06 L1468.1 1070.85 L1470.02 1070.69 L1471.94 1070.57 L1473.87 1070.5 L1475.79 1070.48 L1477.72 1070.5 L1479.64 1070.57 L1481.56 1070.69 L1483.49 1070.86 L1485.41 1071.08 L1487.34 1071.34 L1489.26 1071.66 L1491.18 1072.02 L1493.11 1072.41 L1495.03 1072.85 L1496.96 1073.33 L1498.88 1073.85 L1500.8 1074.41 L1502.73 1075.01 L1504.65 1075.65 L1506.58 1076.33 L1508.5 1077.06 L1510.42 1077.82 L1512.35 1078.63 L1514.27 1079.49 L1516.2 1080.38 L1518.12 1081.32 L1520.04 1082.3 L1521.97 1083.33 L1523.89 1084.4 L1525.82 1085.52 L1527.74 1086.68 L1529.66 1087.88 L1531.59 1089.1 L1533.51 1090.35 L1535.44 1091.63 L1537.36 1092.94 L1539.28 1094.27 L1541.21 1095.63 L1543.13 1097.02 L1545.06 1098.44 L1546.98 1099.89 L1548.9 1101.36 L1550.83 1102.86 L1552.75 1104.39 L1554.68 1105.95 L1556.6 1107.54 L1558.52 1109.16 L1560.45 1110.81 L1562.37 1112.48 L1564.3 1114.19 L1566.22 1115.92 L1568.14 1117.68 L1570.07 1119.45 L1571.99 1121.24 L1573.92 1123.04 L1575.84 1124.86 L1577.76 1126.69 L1579.69 1128.54 L1581.61 1130.4 L1583.54 1132.28 L1585.46 1134.17 L1587.39 1136.07 L1589.31 1137.99 L1591.23 1139.93 L1593.16 1141.88 L1595.08 1143.85 L1597.01 1145.83 L1598.93 1147.82 L1600.85 1149.83 L1602.78 1151.86 L1604.7 1153.9 L1606.63 1155.94 L1608.55 1157.99 L1610.47 1160.02 L1612.4 1162.06 L1614.32 1164.08 L1616.25 1166.11 L1618.17 1168.13 L1620.09 1170.14 L1622.02 1172.15 L1623.94 1174.15 L1625.87 1176.15 L1627.79 1178.14 L1629.71 1180.13 L1631.64 1182.1 L1633.56 1184.08 L1635.49 1186.04 L1637.41 1188 L1639.33 1189.96 L1641.26 1191.9 L1643.18 1193.84 L1645.11 1195.77 L1647.03 1197.68 L1648.95 1199.57 L1650.88 1201.45 L1652.8 1203.31 L1654.73 1205.16 L1656.65 1206.98 L1658.57 1208.79 L1660.5 1210.58 L1662.42 1212.36 L1664.35 1214.11 L1666.27 1215.85 L1668.19 1217.56 L1670.12 1219.26 L1672.04 1220.94 L1673.97 1222.6 L1675.89 1224.24 L1677.81 1225.86 L1679.74 1227.46 L1681.66 1229.03 L1683.59 1230.58 L1685.51 1232.1 L1687.43 1233.59 L1689.36 1235.05 L1691.28 1236.48 L1693.21 1237.87 L1695.13 1239.23 L1697.05 1240.56 L1698.98 1241.86 L1700.9 1243.12 L1702.83 1244.34 L1704.75 1245.54 L1706.67 1246.69 L1708.6 1247.82 L1710.52 1248.9 L1712.45 1249.96 L1714.37 1250.97 L1716.29 1251.95 L1718.22 1252.89 L1720.14 1253.79 L1722.07 1254.66 L1723.99 1255.5 L1725.91 1256.3 L1727.84 1257.07 L1729.76 1257.81 L1731.69 1258.51 L1733.61 1259.18 L1735.53 1259.81 L1737.46 1260.41 L1739.38 1260.98 L1741.31 1261.51 L1743.23 1262 L1745.15 1262.46 L1747.08 1262.88 L1749 1263.26 L1750.93 1263.61 L1752.85 1263.91 L1754.77 1264.18 L1756.7 1264.42 L1758.62 1264.61 L1760.55 1264.77 L1762.47 1264.88 L1764.39 1264.97 L1766.32 1265.01 L1768.24 1265.01 L1770.17 1264.98 L1772.09 1264.9 L1774.01 1264.79 L1775.94 1264.64 L1777.86 1264.45 L1779.79 1264.21 L1781.71 1263.94 L1783.63 1263.62 L1785.56 1263.27 L1787.48 1262.87 L1789.41 1262.43 L1791.33 1261.94 L1793.25 1261.42 L1795.18 1260.85 L1797.1 1260.24 L1799.03 1259.59 L1800.95 1258.91 L1802.87 1258.21 L1804.8 1257.48 L1806.72 1256.73 L1808.65 1255.94 L1810.57 1255.13 L1812.49 1254.29 L1814.42 1253.43 L1816.34 1252.53 L1818.27 1251.61 L1820.19 1250.66 L1822.11 1249.68 L1824.04 1248.67 L1825.96 1247.63 L1827.89 1246.56 L1829.81 1245.46 L1831.73 1244.33 L1833.66 1243.17 L1835.58 1241.98 L1837.51 1240.76 L1839.43 1239.52 L1841.35 1238.26 L1843.28 1236.98 L1845.2 1235.68 L1847.13 1234.35 L1849.05 1233 L1850.97 1231.63 L1852.9 1230.23 L1854.82 1228.81 L1856.75 1227.37 L1858.67 1225.91 L1860.59 1224.42 L1862.52 1222.91 L1864.44 1221.37 L1866.37 1219.81 L1868.29 1218.22 L1870.21 1216.62 L1872.14 1214.98 L1874.06 1213.32 L1875.99 1211.65 L1877.91 1209.98 L1879.83 1208.3 L1881.76 1206.62 L1883.68 1204.94 L1885.61 1203.25 L1887.53 1201.56 L1889.45 1199.87 L1891.38 1198.18 L1893.3 1196.48 L1895.23 1194.78 L1897.15 1193.08 L1899.07 1191.37 L1901 1189.66 L1902.92 1187.95 L1904.85 1186.24 L1906.77 1184.52 L1908.69 1182.81 L1910.62 1181.08 L1912.54 1179.36 L1914.47 1177.64 L1916.39 1175.92 L1918.31 1174.21 L1920.24 1172.5 L1922.16 1170.8 L1924.09 1169.1 L1926.01 1167.41 L1927.93 1165.72 L1929.86 1164.04 L1931.78 1162.36 L1933.71 1160.69 L1935.63 1159.03 L1937.55 1157.37 L1939.48 1155.72 L1941.4 1154.07 L1943.33 1152.43 L1945.25 1150.79 L1947.17 1149.16 L1949.1 1147.54 L1951.02 1145.92 L1952.95 1144.31 L1954.87 1142.74 L1956.79 1141.18 L1958.72 1139.65 L1960.64 1138.15 L1962.57 1136.67 L1964.49 1135.21 L1966.41 1133.79 L1968.34 1132.38 L1970.26 1131.01 L1972.19 1129.66 L1974.11 1128.33 L1976.03 1127.03 L1977.96 1125.76 L1979.88 1124.52 L1981.81 1123.3 L1983.73 1122.11 L1985.65 1120.95 L1987.58 1119.81 L1989.5 1118.71 L1991.43 1117.63 L1993.35 1116.58 L1995.27 1115.55 L1997.2 1114.55 L1999.12 1113.58 L2001.05 1112.64 L2002.97 1111.73 L2004.9 1110.84 L2006.82 1109.98 L2008.74 1109.15 L2010.67 1108.35 L2012.59 1107.58 L2014.52 1106.84 L2016.44 1106.12 L2018.36 1105.44 L2020.29 1104.78 L2022.21 1104.16 L2024.14 1103.56 L2026.06 1103 L2027.98 1102.47 L2029.91 1101.97 L2031.83 1101.51 L2033.76 1101.09 L2035.68 1100.71 L2037.6 1100.37 L2039.53 1100.07 L2041.45 1099.81 L2043.38 1099.59 L2045.3 1099.41 L2047.22 1099.28 L2049.15 1099.18 L2051.07 1099.13 L2053 1099.12 L2054.92 1099.15 L2056.84 1099.23 L2058.77 1099.34 L2060.69 1099.51 L2062.62 1099.71 L2064.54 1099.96 L2066.46 1100.25 L2068.39 1100.58 L2070.31 1100.95 L2072.24 1101.34 L2074.16 1101.77 L2076.08 1102.24 L2078.01 1102.73 L2079.93 1103.26 L2081.86 1103.83 L2083.78 1104.43 L2085.7 1105.06 L2087.63 1105.73 L2089.55 1106.43 L2091.48 1107.16 L2093.4 1107.94 L2095.32 1108.74 L2097.25 1109.59 L2099.17 1110.46 L2101.1 1111.38 L2103.02 1112.33 L2104.94 1113.32 L2106.87 1114.34 L2108.79 1115.4 L2110.72 1116.49 L2112.64 1117.62 L2114.56 1118.79 L2116.49 1120 L2118.41 1121.24 L2120.34 1122.52 L2122.26 1123.83 L2124.18 1125.19 L2126.11 1126.58 L2128.03 1128.01 L2129.96 1129.48 L2131.88 1130.98 L2133.8 1132.53 L2135.73 1134.11 L2137.65 1135.73 L2139.58 1137.39 L2141.5 1139.09 L2143.42 1140.83 L2145.35 1142.6 L2147.27 1144.39 L2149.2 1146.2 L2151.12 1148.03 L2153.04 1149.88 L2154.97 1151.75 L2156.89 1153.64 L2158.82 1155.55 L2160.74 1157.48 L2162.66 1159.43 L2164.59 1161.4 L2166.51 1163.39 L2168.44 1165.4 L2170.36 1167.43 L2172.28 1169.48 L2174.21 1171.56 L2176.13 1173.65 L2178.06 1175.77 L2179.98 1177.9 L2181.9 1180.06 L2183.83 1182.23 L2185.75 1184.43 L2187.68 1186.64 L2189.6 1188.86 L2191.52 1191.11 L2193.45 1193.37 L2195.37 1195.66 L2197.3 1197.96 L2199.22 1200.27 L2201.14 1202.61 L2203.07 1204.96 L2204.99 1207.33 L2206.92 1209.72 L2208.84 1212.13 L2210.76 1214.55 L2212.69 1217 L2214.61 1219.46 L2216.54 1221.94 L2218.46 1224.44 L2220.38 1226.96 L2222.31 1229.48 L2224.23 1232 L2226.16 1234.52 L2228.08 1237.04 L2230 1239.55 L2231.93 1242.06 L2233.85 1244.56 L2235.78 1247.07 L2237.7 1249.56 L2239.62 1252.06 L2241.55 1254.55 L2243.47 1257.03 L2245.4 1259.52 L2247.32 1261.99 L2249.24 1264.47 L2251.17 1266.94 L2253.09 1269.4 L2255.02 1271.86 L2256.94 1274.32 L2258.86 1276.77 L2260.79 1279.22 L2262.71 1281.66 L2264.64 1284.1 L2266.56 1286.53 L2268.48 1288.96 L2270.41 1291.38 L2272.33 1293.8 L2274.26 1296.21 L2276.18 1298.62 L2278.1 1301.02 L2280.03 1303.41 L2281.95 1305.8 L2283.88 1308.19 L2285.8 1310.57 L2287.72 1312.94 L2289.65 1315.31 L2291.57 1317.67 L2293.5 1320.02 L2295.42 1322.37 L2297.34 1324.71 L2297.34 1304.93 L2295.42 1302.43 L2293.5 1299.91 L2291.57 1297.4 L2289.65 1294.87 L2287.72 1292.34 L2285.8 1289.8 L2283.88 1287.26 L2281.95 1284.7 L2280.03 1282.15 L2278.1 1279.58 L2276.18 1277.01 L2274.26 1274.44 L2272.33 1271.86 L2270.41 1269.27 L2268.48 1266.67 L2266.56 1264.08 L2264.64 1261.47 L2262.71 1258.86 L2260.79 1256.25 L2258.86 1253.62 L2256.94 1251 L2255.02 1248.37 L2253.09 1245.73 L2251.17 1243.09 L2249.24 1240.44 L2247.32 1237.79 L2245.4 1235.14 L2243.47 1232.48 L2241.55 1229.82 L2239.62 1227.15 L2237.7 1224.47 L2235.78 1221.8 L2233.85 1219.12 L2231.93 1216.43 L2230 1213.74 L2228.08 1211.05 L2226.16 1208.35 L2224.23 1205.65 L2222.31 1202.95 L2220.38 1200.24 L2218.46 1197.54 L2216.54 1194.86 L2214.61 1192.2 L2212.69 1189.56 L2210.76 1186.93 L2208.84 1184.33 L2206.92 1181.75 L2204.99 1179.18 L2203.07 1176.64 L2201.14 1174.11 L2199.22 1171.6 L2197.3 1169.12 L2195.37 1166.65 L2193.45 1164.2 L2191.52 1161.76 L2189.6 1159.35 L2187.68 1156.96 L2185.75 1154.58 L2183.83 1152.22 L2181.9 1149.88 L2179.98 1147.57 L2178.06 1145.27 L2176.13 1143 L2174.21 1140.74 L2172.28 1138.51 L2170.36 1136.31 L2168.44 1134.12 L2166.51 1131.96 L2164.59 1129.81 L2162.66 1127.69 L2160.74 1125.59 L2158.82 1123.51 L2156.89 1121.46 L2154.97 1119.42 L2153.04 1117.41 L2151.12 1115.41 L2149.2 1113.44 L2147.27 1111.49 L2145.35 1109.56 L2143.42 1107.65 L2141.5 1105.77 L2139.58 1103.94 L2137.65 1102.14 L2135.73 1100.39 L2133.8 1098.68 L2131.88 1097.01 L2129.96 1095.38 L2128.03 1093.8 L2126.11 1092.25 L2124.18 1090.74 L2122.26 1089.28 L2120.34 1087.85 L2118.41 1086.46 L2116.49 1085.12 L2114.56 1083.81 L2112.64 1082.54 L2110.72 1081.31 L2108.79 1080.12 L2106.87 1078.97 L2104.94 1077.86 L2103.02 1076.78 L2101.1 1075.74 L2099.17 1074.75 L2097.25 1073.79 L2095.32 1072.87 L2093.4 1071.98 L2091.48 1071.14 L2089.55 1070.33 L2087.63 1069.56 L2085.7 1068.82 L2083.78 1068.12 L2081.86 1067.46 L2079.93 1066.84 L2078.01 1066.25 L2076.08 1065.7 L2074.16 1065.18 L2072.24 1064.7 L2070.31 1064.25 L2068.39 1063.84 L2066.46 1063.47 L2064.54 1063.13 L2062.62 1062.84 L2060.69 1062.6 L2058.77 1062.41 L2056.84 1062.26 L2054.92 1062.16 L2053 1062.1 L2051.07 1062.09 L2049.15 1062.13 L2047.22 1062.21 L2045.3 1062.33 L2043.38 1062.5 L2041.45 1062.71 L2039.53 1062.96 L2037.6 1063.26 L2035.68 1063.61 L2033.76 1063.99 L2031.83 1064.42 L2029.91 1064.89 L2027.98 1065.4 L2026.06 1065.95 L2024.14 1066.53 L2022.21 1067.14 L2020.29 1067.79 L2018.36 1068.47 L2016.44 1069.18 L2014.52 1069.92 L2012.59 1070.69 L2010.67 1071.5 L2008.74 1072.33 L2006.82 1073.2 L2004.9 1074.1 L2002.97 1075.02 L2001.05 1075.98 L1999.12 1076.97 L1997.2 1077.99 L1995.27 1079.03 L1993.35 1080.11 L1991.43 1081.21 L1989.5 1082.35 L1987.58 1083.51 L1985.65 1084.7 L1983.73 1085.92 L1981.81 1087.18 L1979.88 1088.46 L1977.96 1089.77 L1976.03 1091.11 L1974.11 1092.48 L1972.19 1093.88 L1970.26 1095.3 L1968.34 1096.76 L1966.41 1098.24 L1964.49 1099.75 L1962.57 1101.28 L1960.64 1102.85 L1958.72 1104.44 L1956.79 1106.06 L1954.87 1107.7 L1952.95 1109.37 L1951.02 1111.07 L1949.1 1112.78 L1947.17 1114.5 L1945.25 1116.23 L1943.33 1117.96 L1941.4 1119.7 L1939.48 1121.44 L1937.55 1123.2 L1935.63 1124.95 L1933.71 1126.72 L1931.78 1128.49 L1929.86 1130.27 L1927.93 1132.05 L1926.01 1133.84 L1924.09 1135.63 L1922.16 1137.43 L1920.24 1139.24 L1918.31 1141.05 L1916.39 1142.86 L1914.47 1144.69 L1912.54 1146.51 L1910.62 1148.34 L1908.69 1150.17 L1906.77 1151.99 L1904.85 1153.81 L1902.92 1155.63 L1901 1157.44 L1899.07 1159.26 L1897.15 1161.07 L1895.23 1162.87 L1893.3 1164.68 L1891.38 1166.48 L1889.45 1168.28 L1887.53 1170.07 L1885.61 1171.87 L1883.68 1173.66 L1881.76 1175.44 L1879.83 1177.23 L1877.91 1179.01 L1875.99 1180.79 L1874.06 1182.56 L1872.14 1184.32 L1870.21 1186.06 L1868.29 1187.77 L1866.37 1189.45 L1864.44 1191.11 L1862.52 1192.74 L1860.59 1194.34 L1858.67 1195.92 L1856.75 1197.48 L1854.82 1199.01 L1852.9 1200.51 L1850.97 1201.99 L1849.05 1203.44 L1847.13 1204.88 L1845.2 1206.28 L1843.28 1207.66 L1841.35 1209.02 L1839.43 1210.36 L1837.51 1211.67 L1835.58 1212.96 L1833.66 1214.22 L1831.73 1215.45 L1829.81 1216.64 L1827.89 1217.8 L1825.96 1218.93 L1824.04 1220.03 L1822.11 1221.1 L1820.19 1222.13 L1818.27 1223.14 L1816.34 1224.11 L1814.42 1225.06 L1812.49 1225.97 L1810.57 1226.85 L1808.65 1227.7 L1806.72 1228.53 L1804.8 1229.32 L1802.87 1230.08 L1800.95 1230.82 L1799.03 1231.53 L1797.1 1232.2 L1795.18 1232.84 L1793.25 1233.44 L1791.33 1233.98 L1789.41 1234.48 L1787.48 1234.94 L1785.56 1235.35 L1783.63 1235.71 L1781.71 1236.03 L1779.79 1236.31 L1777.86 1236.54 L1775.94 1236.73 L1774.01 1236.87 L1772.09 1236.97 L1770.17 1237.03 L1768.24 1237.05 L1766.32 1237.02 L1764.39 1236.96 L1762.47 1236.85 L1760.55 1236.7 L1758.62 1236.52 L1756.7 1236.29 L1754.77 1236.02 L1752.85 1235.7 L1750.93 1235.35 L1749 1234.96 L1747.08 1234.52 L1745.15 1234.05 L1743.23 1233.54 L1741.31 1232.98 L1739.38 1232.39 L1737.46 1231.76 L1735.53 1231.1 L1733.61 1230.39 L1731.69 1229.65 L1729.76 1228.87 L1727.84 1228.06 L1725.91 1227.2 L1723.99 1226.32 L1722.07 1225.39 L1720.14 1224.43 L1718.22 1223.44 L1716.29 1222.4 L1714.37 1221.32 L1712.45 1220.21 L1710.52 1219.05 L1708.6 1217.86 L1706.67 1216.62 L1704.75 1215.35 L1702.83 1214.04 L1700.9 1212.69 L1698.98 1211.31 L1697.05 1209.89 L1695.13 1208.43 L1693.21 1206.94 L1691.28 1205.41 L1689.36 1203.85 L1687.43 1202.25 L1685.51 1200.62 L1683.59 1198.95 L1681.66 1197.25 L1679.74 1195.53 L1677.81 1193.78 L1675.89 1192.01 L1673.97 1190.21 L1672.04 1188.39 L1670.12 1186.56 L1668.19 1184.7 L1666.27 1182.82 L1664.35 1180.92 L1662.42 1178.99 L1660.5 1177.05 L1658.57 1175.09 L1656.65 1173.11 L1654.73 1171.11 L1652.8 1169.09 L1650.88 1167.05 L1648.95 1164.99 L1647.03 1162.92 L1645.11 1160.83 L1643.18 1158.72 L1641.26 1156.59 L1639.33 1154.46 L1637.41 1152.32 L1635.49 1150.18 L1633.56 1148.02 L1631.64 1145.86 L1629.71 1143.69 L1627.79 1141.51 L1625.87 1139.33 L1623.94 1137.14 L1622.02 1134.94 L1620.09 1132.74 L1618.17 1130.53 L1616.25 1128.32 L1614.32 1126.1 L1612.4 1123.87 L1610.47 1121.64 L1608.55 1119.41 L1606.63 1117.17 L1604.7 1114.92 L1602.78 1112.68 L1600.85 1110.46 L1598.93 1108.25 L1597.01 1106.06 L1595.08 1103.88 L1593.16 1101.72 L1591.23 1099.57 L1589.31 1097.44 L1587.39 1095.33 L1585.46 1093.23 L1583.54 1091.15 L1581.61 1089.08 L1579.69 1087.03 L1577.76 1085 L1575.84 1082.98 L1573.92 1080.98 L1571.99 1078.99 L1570.07 1077.02 L1568.14 1075.06 L1566.22 1073.12 L1564.3 1071.2 L1562.37 1069.32 L1560.45 1067.47 L1558.52 1065.64 L1556.6 1063.85 L1554.68 1062.09 L1552.75 1060.37 L1550.83 1058.67 L1548.9 1057 L1546.98 1055.37 L1545.06 1053.76 L1543.13 1052.18 L1541.21 1050.64 L1539.28 1049.12 L1537.36 1047.64 L1535.44 1046.18 L1533.51 1044.76 L1531.59 1043.36 L1529.66 1041.99 L1527.74 1040.65 L1525.82 1039.35 L1523.89 1038.1 L1521.97 1036.89 L1520.04 1035.74 L1518.12 1034.63 L1516.2 1033.57 L1514.27 1032.56 L1512.35 1031.59 L1510.42 1030.67 L1508.5 1029.8 L1506.58 1028.97 L1504.65 1028.19 L1502.73 1027.45 L1500.8 1026.75 L1498.88 1026.1 L1496.96 1025.5 L1495.03 1024.94 L1493.11 1024.42 L1491.18 1023.94 L1489.26 1023.51 L1487.34 1023.12 L1485.41 1022.79 L1483.49 1022.51 L1481.56 1022.29 L1479.64 1022.11 L1477.72 1021.99 L1475.79 1021.92 L1473.87 1021.9 L1471.94 1021.94 L1470.02 1022.02 L1468.1 1022.15 L1466.17 1022.33 L1464.25 1022.56 L1462.32 1022.84 L1460.4 1023.16 L1458.48 1023.54 L1456.55 1023.96 L1454.63 1024.43 L1452.7 1024.94 L1450.78 1025.5 L1448.86 1026.11 L1446.93 1026.77 L1445.01 1027.48 L1443.08 1028.25 L1441.16 1029.06 L1439.24 1029.93 L1437.31 1030.84 L1435.39 1031.81 L1433.46 1032.83 L1431.54 1033.89 L1429.62 1035 L1427.69 1036.16 L1425.77 1037.37 L1423.84 1038.62 L1421.92 1039.92 L1420 1041.27 L1418.07 1042.66 L1416.15 1044.09 L1414.22 1045.57 L1412.3 1047.09 L1410.38 1048.66 L1408.45 1050.26 L1406.53 1051.9 L1404.6 1053.57 L1402.68 1055.29 L1400.76 1057.04 L1398.83 1058.82 L1396.91 1060.64 L1394.98 1062.49 L1393.06 1064.38 L1391.14 1066.31 L1389.21 1068.26 L1387.29 1070.25 L1385.36 1072.28 L1383.44 1074.33 L1381.52 1076.42 L1379.59 1078.54 L1377.67 1080.69 L1375.74 1082.87 L1373.82 1085.08 L1371.9 1087.32 L1369.97 1089.57 L1368.05 1091.83 L1366.12 1094.11 L1364.2 1096.41 L1362.28 1098.72 L1360.35 1101.05 L1358.43 1103.39 L1356.5 1105.74 L1354.58 1108.11 L1352.66 1110.49 L1350.73 1112.89 L1348.81 1115.3 L1346.88 1117.72 L1344.96 1120.16 L1343.04 1122.6 L1341.11 1125.06 L1339.19 1127.54 L1337.26 1130.02 L1335.34 1132.52 L1333.42 1135.01 L1331.49 1137.49 L1329.57 1139.95 L1327.64 1142.4 L1325.72 1144.84 L1323.8 1147.26 L1321.87 1149.67 L1319.95 1152.06 L1318.02 1154.44 L1316.1 1156.81 L1314.18 1159.16 L1312.25 1161.5 L1310.33 1163.82 L1308.4 1166.13 L1306.48 1168.43 L1304.56 1170.71 L1302.63 1172.98 L1300.71 1175.23 L1298.78 1177.48 L1296.86 1179.71 L1294.94 1181.91 L1293.01 1184.06 L1291.09 1186.17 L1289.16 1188.22 L1287.24 1190.24 L1285.32 1192.2 L1283.39 1194.13 L1281.47 1196 L1279.54 1197.84 L1277.62 1199.63 L1275.7 1201.37 L1273.77 1203.08 L1271.85 1204.74 L1269.92 1206.36 L1268 1207.94 L1266.08 1209.48 L1264.15 1210.98 L1262.23 1212.44 L1260.3 1213.86 L1258.38 1215.24 L1256.46 1216.57 L1254.53 1217.81 L1252.61 1218.98 L1250.68 1220.06 L1248.76 1221.08 L1246.84 1222.01 L1244.91 1222.88 L1242.99 1223.67 L1241.06 1224.38 L1239.14 1225.03 L1237.22 1225.61 L1235.29 1226.11 L1233.37 1226.55 L1231.44 1226.92 L1229.52 1227.23 L1227.6 1227.46 L1225.67 1227.64 L1223.75 1227.75 L1221.82 1227.8 L1219.9 1227.79 L1217.98 1227.69 L1216.05 1227.49 L1214.13 1227.18 L1212.2 1226.78 L1210.28 1226.27 L1208.36 1225.67 L1206.43 1224.97 L1204.51 1224.18 L1202.58 1223.29 L1200.66 1222.31 L1198.74 1221.23 L1196.81 1220.07 L1194.89 1218.82 L1192.96 1217.49 L1191.04 1216.06 L1189.12 1214.56 L1187.19 1212.97 L1185.27 1211.31 L1183.34 1209.56 L1181.42 1207.73 L1179.5 1205.81 L1177.57 1203.77 L1175.65 1201.61 L1173.72 1199.33 L1171.8 1196.95 L1169.88 1194.45 L1167.95 1191.84 L1166.03 1189.12 L1164.1 1186.3 L1162.18 1183.38 L1160.25 1180.36 L1158.33 1177.23 L1156.41 1174.01 L1154.48 1170.69 L1152.56 1167.28 L1150.63 1163.78 L1148.71 1160.19 L1146.79 1156.51 L1144.86 1152.74 L1142.94 1148.89 L1141.01 1144.94 L1139.09 1140.87 L1137.17 1136.68 L1135.24 1132.38 L1133.32 1127.97 L1131.39 1123.45 L1129.47 1118.82 L1127.55 1114.09 L1125.62 1109.25 L1123.7 1104.32 L1121.77 1099.29 L1119.85 1094.16 L1117.93 1088.94 L1116 1083.63 L1114.08 1078.23 L1112.15 1072.75 L1110.23 1067.18 L1108.31 1061.52 L1106.38 1055.79 L1104.46 1049.98 L1102.53 1044.08 L1100.61 1038.08 L1098.69 1031.97 L1096.76 1025.77 L1094.84 1019.47 L1092.91 1013.07 L1090.99 1006.59 L1089.07 1000.01 L1087.14 993.35 L1085.22 986.605 L1083.29 979.78 L1081.37 972.875 L1079.45 965.895 L1077.52 958.84 L1075.6 951.714 L1073.67 944.519 L1071.75 937.257 L1069.83 929.931 L1067.9 922.543 L1065.98 915.095 L1064.05 907.581 L1062.13 899.993 L1060.21 892.335 L1058.28 884.609 L1056.36 876.817 L1054.43 868.963 L1052.51 861.048 L1050.59 853.075 L1048.66 845.047 L1046.74 836.966 L1044.81 828.835 L1042.89 820.655 L1040.97 812.43 L1039.04 804.161 L1037.12 795.852 L1035.19 787.504 L1033.27 779.12 L1031.35 770.702 L1029.42 762.252 L1027.5 753.774 L1025.57 745.264 L1023.65 736.721 L1021.73 728.147 L1019.8 719.546 L1017.88 710.918 L1015.95 702.267 L1014.03 693.595 L1012.11 684.903 L1010.18 676.195 L1008.26 667.473 L1006.33 658.738 L1004.41 649.994 L1002.49 641.242 L1000.56 632.484 L998.638 623.724 L996.714 614.961 L994.79 606.2 L992.866 597.442 L990.942 588.69 L989.018 579.944 L987.094 571.21 L985.17 562.493 L983.246 553.794 L981.322 545.114 L979.398 536.457 L977.474 527.823 L975.55 519.216 L973.626 510.635 L971.702 502.085 L969.778 493.565 L967.854 485.079 L965.93 476.627 L964.006 468.212 L962.082 459.836 L960.158 451.499 L958.234 443.204 L956.31 434.953 L954.386 426.747 L952.462 418.588 L950.538 410.478 L948.614 402.424 L946.69 394.434 L944.766 386.509 L942.842 378.652 L940.918 370.862 L938.994 363.142 L937.07 355.493 L935.146 347.915 L933.222 340.411 L931.298 332.982 L929.374 325.628 L927.45 318.351 L925.526 311.152 L923.602 304.032 L921.678 296.993 L919.754 290.036 L917.83 283.161 L915.906 276.37 L913.982 269.664 L912.058 263.044 L910.134 256.522 L908.21 250.107 L906.286 243.801 L904.362 237.604 L902.438 231.517 L900.514 225.541 L898.59 219.675 L896.666 213.921 L894.742 208.279 L892.818 202.749 L890.894 197.333 L888.97 192.03 L887.046 186.841 L885.122 181.767 L883.198 176.807 L881.274 171.964 L879.35 167.236 L877.426 162.624 L875.502 158.129 L873.578 153.751 L871.654 149.5 L869.73 145.387 L867.806 141.41 L865.882 137.57 L863.958 133.867 L862.034 130.3 L860.11 126.87 L858.186 123.576 L856.262 120.418 L854.338 117.397 L852.414 114.511 L850.49 111.761 L848.566 109.147 L846.641 106.668 L844.717 104.324 L842.793 102.115 L840.869 100.041 L838.945 98.101 L837.021 96.2957 L835.097 94.6245 L833.173 93.0976 L831.249 91.725 L829.325 90.506 L827.401 89.4398 L825.477 88.5256 L823.553 87.7624 L821.629 87.1497 L819.705 86.6864 L817.781 86.3719 L815.857 86.2053 L813.933 86.1857 L812.009 86.3123 L810.085 86.5843 L808.161 87.0008 L806.237 87.561 L804.313 88.264 L802.389 89.1089 L800.465 90.0949 L798.541 91.2212 L796.617 92.4867 L794.693 93.8961 L792.769 95.4536 L790.845 97.158 L788.921 99.0082 L786.997 101.003 L785.073 103.141 L783.149 105.421 L781.225 107.843 L779.301 110.404 L777.377 113.103 L775.453 115.94 L773.529 118.914 L771.605 122.022 L769.681 125.264 L767.757 128.638 L765.833 132.144 L763.909 135.78 L761.985 139.545 L760.061 143.437 L758.137 147.456 L756.213 151.602 L754.289 155.876 L752.365 160.277 L750.441 164.804 L748.517 169.454 L746.593 174.227 L744.669 179.121 L742.745 184.135 L740.821 189.267 L738.897 194.517 L736.973 199.882 L735.049 205.362 L733.125 210.955 L731.201 216.66 L729.277 222.475 L727.353 228.398 L725.429 234.43 L723.505 240.567 L721.581 246.809 L719.657 253.155 L717.733 259.596 L715.809 266.125 L713.885 272.742 L711.961 279.445 L710.037 286.233 L708.113 293.106 L706.189 300.061 L704.265 307.1 L702.341 314.219 L700.417 321.418 L698.493 328.697 L696.569 336.054 L694.645 343.488 L692.721 350.998 L690.797 358.584 L688.873 366.243 L686.949 373.975 L685.025 381.779 L683.101 389.653 L681.177 397.598 L679.253 405.598 L677.329 413.642 L675.405 421.729 L673.481 429.859 L671.557 438.032 L669.633 446.248 L667.709 454.505 L665.785 462.805 L663.861 471.146 L661.937 479.529 L660.013 487.953 L658.089 496.417 L656.165 504.921 L654.241 513.466 L652.317 522.049 L650.393 530.672 L648.469 539.333 L646.545 548.033 L644.621 556.77 L642.697 565.544 L640.773 574.328 L638.849 583.097 L636.924 591.852 L635 600.594 L633.076 609.326 L631.152 618.048 L629.228 626.763 L627.304 635.471 L625.38 644.175 L623.456 652.875 L621.532 661.572 L619.608 670.268 L617.684 678.965 L615.76 687.662 L613.836 696.362 L611.912 705.065 L609.988 713.772 L608.064 722.484 L606.14 731.203 L604.216 739.928 L602.292 748.628 L600.368 757.273 L598.444 765.866 L596.52 774.412 L594.596 782.914 L592.672 791.376 L590.748 799.801 L588.824 808.193 L586.9 816.554 L584.976 824.888 L583.052 833.199 L581.128 841.488 L579.204 849.759 L577.28 858.014 L575.356 866.256 L573.432 874.488 L571.508 882.713 L569.584 890.931 L567.66 899.147 L565.736 907.361 L563.812 915.515 L561.888 923.556 L559.964 931.492 L558.04 939.331 L556.116 947.082 L554.192 954.753 L552.268 962.353 L550.344 969.888 L548.42 977.366 L546.496 984.794 L544.572 992.179 L542.648 999.528 L540.724 1006.85 L538.8 1014.14 L536.876 1021.42 L534.952 1028.69 L533.028 1035.94 L531.104 1043.2 L529.18 1050.46 L527.256 1057.73 L525.332 1064.92 L523.408 1071.93 L521.484 1078.79 L519.56 1085.52 L517.636 1092.12 L515.712 1098.63 L513.788 1105.05 L511.864 1111.4 L509.94 1117.69 L508.016 1123.94 L506.092 1130.17 L504.168 1136.37 L502.244 1142.57 L500.32 1148.79 L498.396 1155.02 L496.472 1161.27 L494.548 1167.57 L492.624 1173.92 L490.7 1180.32 L488.776 1186.79 L486.852 1193.11 L484.928 1199.07 L483.004 1204.74 L481.08 1210.16 L479.156 1215.37 L477.232 1220.42 L475.308 1225.35 L473.384 1230.2 L471.46 1235 L469.536 1239.79 L467.612 1244.61 L465.688 1249.49 L463.764 1254.44 L461.84 1259.51 L459.916 1264.71 L457.992 1270.08 L456.068 1275.62 L454.144 1281.36 L452.22 1287.31 L450.296 1293.49  Z" fill="#009af9" fill-rule="evenodd" fill-opacity="0.5"/>
<polyline clip-path="url(#clip602)" style="stroke:#009af9; stroke-linecap:round; stroke-linejoin:round; stroke-width:4; stroke-opacity:1; fill:none" points="450.296,1338.86 452.22,1333.04 454.144,1327.41 456.068,1321.96 457.992,1316.69 459.916,1311.57 461.84,1306.59 463.764,1301.73 465.688,1296.97 467.612,1292.28 469.536,1287.64 471.46,1283.02 473.384,1278.39 475.308,1273.73 477.232,1269 479.156,1264.16 481.08,1259.17 483.004,1254.01 484.928,1248.62 486.852,1242.97 488.776,1237.01 490.7,1230.91 492.624,1224.87 494.548,1218.87 496.472,1212.91 498.396,1206.99 500.32,1201.09 502.244,1195.21 504.168,1189.33 506.092,1183.45 508.016,1177.55 509.94,1171.62 511.864,1165.65 513.788,1159.64 515.712,1153.55 517.636,1147.39 519.56,1141.14 521.484,1134.78 523.408,1128.29 525.332,1121.66 527.256,1114.88 529.18,1108.02 531.104,1101.16 533.028,1094.31 534.952,1087.45 536.876,1080.58 538.8,1073.7 540.724,1066.8 542.648,1059.88 544.572,1052.93 546.496,1045.94 548.42,1038.91 550.344,1031.84 552.268,1024.71 554.192,1017.51 556.116,1010.26 558.04,1002.92 559.964,995.509 561.888,988.003 563.812,980.4 565.736,972.691 567.66,964.925 569.584,957.156 571.508,949.381 573.432,941.598 575.356,933.806 577.28,926.002 579.204,918.183 581.128,910.349 583.052,902.495 584.976,894.62 586.9,886.72 588.824,878.794 590.748,870.837 592.672,862.848 594.596,854.823 596.52,846.758 598.444,838.652 600.368,830.499 602.292,822.297 604.216,814.043 606.14,805.763 608.064,797.488 609.988,789.216 611.912,780.946 613.836,772.678 615.76,764.411 617.684,756.144 619.608,747.877 621.532,739.607 623.456,731.334 625.38,723.057 627.304,714.775 629.228,706.486 631.152,698.19 633.076,689.885 635,681.569 636.924,673.242 638.849,664.901 640.773,656.546 642.697,648.175 644.621,639.812 646.545,631.481 648.469,623.183 650.393,614.918 652.317,606.688 654.241,598.492 656.165,590.331 658.089,582.205 660.013,574.115 661.937,566.061 663.861,558.044 665.785,550.064 667.709,542.12 669.633,534.215 671.557,526.347 673.481,518.517 675.405,510.726 677.329,502.973 679.253,495.26 681.177,487.585 683.101,479.962 685.025,472.402 686.949,464.907 688.873,457.477 690.797,450.114 692.721,442.819 694.645,435.593 696.569,428.436 698.493,421.351 700.417,414.337 702.341,407.396 704.265,400.529 706.189,393.737 708.113,387.021 710.037,380.382 711.961,373.82 713.885,367.338 715.809,360.935 717.733,354.613 719.657,348.372 721.581,342.221 723.505,336.165 725.429,330.207 727.353,324.347 729.277,318.587 731.201,312.929 733.125,307.373 735.049,301.921 736.973,296.574 738.897,291.335 740.821,286.203 742.745,281.18 744.669,276.268 746.593,271.468 748.517,266.781 750.441,262.209 752.365,257.753 754.289,253.414 756.213,249.194 758.137,245.094 760.061,241.113 761.985,237.25 763.909,233.508 765.833,229.886 767.757,226.386 769.681,223.009 771.605,219.757 773.529,216.631 775.453,213.632 777.377,210.76 779.301,208.018 781.225,205.406 783.149,202.926 785.073,200.578 786.997,198.365 788.921,196.286 790.845,194.344 792.769,192.539 794.693,190.872 796.617,189.346 798.541,187.955 800.465,186.695 802.389,185.568 804.313,184.574 806.237,183.715 808.161,182.99 810.085,182.402 812.009,181.95 813.933,181.635 815.857,181.459 817.781,181.422 819.705,181.525 821.629,181.769 823.553,182.155 825.477,182.683 827.401,183.354 829.325,184.17 831.249,185.13 833.173,186.236 835.097,187.488 837.021,188.878 838.945,190.395 840.869,192.039 842.793,193.811 844.717,195.712 846.641,197.741 848.566,199.899 850.49,202.186 852.414,204.601 854.338,207.146 856.262,209.82 858.186,212.624 860.11,215.558 862.034,218.622 863.958,221.816 865.882,225.14 867.806,228.594 869.73,232.179 871.654,235.895 873.578,239.741 875.502,243.709 877.426,247.789 879.35,251.981 881.274,256.284 883.198,260.698 885.122,265.223 887.046,269.857 888.97,274.602 890.894,279.456 892.818,284.419 894.742,289.49 896.666,294.669 898.59,299.956 900.514,305.349 902.438,310.85 904.362,316.456 906.286,322.168 908.21,327.984 910.134,333.905 912.058,339.93 913.982,346.049 915.906,352.25 917.83,358.534 919.754,364.899 921.678,371.344 923.602,377.868 925.526,384.469 927.45,391.148 929.374,397.902 931.298,404.731 933.222,411.633 935.146,418.607 937.07,425.653 938.994,432.768 940.918,439.953 942.842,447.205 944.766,454.523 946.69,461.906 948.614,469.353 950.538,476.862 952.462,484.427 954.386,492.039 956.31,499.698 958.234,507.401 960.158,515.147 962.082,522.935 964.006,530.763 965.93,538.628 967.854,546.53 969.778,554.467 971.702,562.437 973.626,570.439 975.55,578.47 977.474,586.529 979.398,594.614 981.322,602.724 983.246,610.856 985.17,619.009 987.094,627.181 989.018,635.37 990.942,643.572 992.866,651.782 994.79,659.999 996.714,668.221 998.638,676.445 1000.56,684.67 1002.49,692.893 1004.41,701.113 1006.33,709.327 1008.26,717.534 1010.18,725.731 1012.11,733.915 1014.03,742.086 1015.95,750.24 1017.88,758.375 1019.8,766.49 1021.73,774.581 1023.65,782.648 1025.57,790.687 1027.5,798.696 1029.42,806.677 1031.35,814.631 1033.27,822.558 1035.19,830.453 1037.12,838.316 1039.04,846.143 1040.97,853.934 1042.89,861.684 1044.81,869.393 1046.74,877.057 1048.66,884.675 1050.59,892.244 1052.51,899.761 1054.43,907.225 1056.36,914.633 1058.28,921.982 1060.21,929.27 1062.13,936.495 1064.05,943.654 1065.98,950.745 1067.9,957.774 1069.83,964.747 1071.75,971.663 1073.67,978.518 1075.6,985.311 1077.52,992.04 1079.45,998.702 1081.37,1005.29 1083.29,1011.82 1085.22,1018.26 1087.14,1024.63 1089.07,1030.93 1090.99,1037.14 1092.91,1043.27 1094.84,1049.31 1096.76,1055.26 1098.69,1061.13 1100.61,1066.9 1102.53,1072.57 1104.46,1078.15 1106.38,1083.64 1108.31,1089.06 1110.23,1094.41 1112.15,1099.67 1114.08,1104.86 1116,1109.96 1117.93,1114.98 1119.85,1119.92 1121.77,1124.77 1123.7,1129.53 1125.62,1134.19 1127.55,1138.76 1129.47,1143.24 1131.39,1147.62 1133.32,1151.89 1135.24,1156.06 1137.17,1160.13 1139.09,1164.09 1141.01,1167.94 1142.94,1171.68 1144.86,1175.32 1146.79,1178.88 1148.71,1182.36 1150.63,1185.75 1152.56,1189.06 1154.48,1192.29 1156.41,1195.42 1158.33,1198.47 1160.25,1201.42 1162.18,1204.28 1164.1,1207.04 1166.03,1209.7 1167.95,1212.26 1169.88,1214.73 1171.8,1217.09 1173.72,1219.34 1175.65,1221.48 1177.57,1223.52 1179.5,1225.45 1181.42,1227.26 1183.34,1228.98 1185.27,1230.62 1187.19,1232.19 1189.12,1233.68 1191.04,1235.09 1192.96,1236.43 1194.89,1237.68 1196.81,1238.85 1198.74,1239.94 1200.66,1240.94 1202.58,1241.86 1204.51,1242.69 1206.43,1243.42 1208.36,1244.07 1210.28,1244.63 1212.2,1245.09 1214.13,1245.46 1216.05,1245.73 1217.98,1245.9 1219.9,1245.97 1221.82,1245.96 1223.75,1245.9 1225.67,1245.77 1227.6,1245.59 1229.52,1245.34 1231.44,1245.03 1233.37,1244.65 1235.29,1244.22 1237.22,1243.71 1239.14,1243.14 1241.06,1242.51 1242.99,1241.8 1244.91,1241.03 1246.84,1240.19 1248.76,1239.27 1250.68,1238.29 1252.61,1237.23 1254.53,1236.1 1256.46,1234.89 1258.38,1233.6 1260.3,1232.27 1262.23,1230.89 1264.15,1229.47 1266.08,1228.02 1268,1226.53 1269.92,1225 1271.85,1223.43 1273.77,1221.83 1275.7,1220.18 1277.62,1218.49 1279.54,1216.76 1281.47,1214.99 1283.39,1213.17 1285.32,1211.32 1287.24,1209.42 1289.16,1207.47 1291.09,1205.48 1293.01,1203.45 1294.94,1201.37 1296.86,1199.25 1298.78,1197.1 1300.71,1194.93 1302.63,1192.76 1304.56,1190.56 1306.48,1188.36 1308.4,1186.14 1310.33,1183.91 1312.25,1181.67 1314.18,1179.42 1316.1,1177.15 1318.02,1174.86 1319.95,1172.57 1321.87,1170.26 1323.8,1167.93 1325.72,1165.6 1327.64,1163.24 1329.57,1160.88 1331.49,1158.5 1333.42,1156.11 1335.34,1153.7 1337.26,1151.29 1339.19,1148.89 1341.11,1146.51 1343.04,1144.13 1344.96,1141.77 1346.88,1139.41 1348.81,1137.07 1350.73,1134.75 1352.66,1132.43 1354.58,1130.13 1356.5,1127.84 1358.43,1125.57 1360.35,1123.3 1362.28,1121.05 1364.2,1118.82 1366.12,1116.6 1368.05,1114.39 1369.97,1112.2 1371.9,1110.03 1373.82,1107.86 1375.74,1105.72 1377.67,1103.61 1379.59,1101.53 1381.52,1099.48 1383.44,1097.46 1385.36,1095.47 1387.29,1093.51 1389.21,1091.58 1391.14,1089.68 1393.06,1087.82 1394.98,1085.99 1396.91,1084.19 1398.83,1082.42 1400.76,1080.69 1402.68,1079 1404.6,1077.33 1406.53,1075.7 1408.45,1074.11 1410.38,1072.56 1412.3,1071.04 1414.22,1069.55 1416.15,1068.11 1418.07,1066.72 1420,1065.36 1421.92,1064.05 1423.84,1062.78 1425.77,1061.56 1427.69,1060.38 1429.62,1059.25 1431.54,1058.16 1433.46,1057.12 1435.39,1056.12 1437.31,1055.18 1439.24,1054.28 1441.16,1053.42 1443.08,1052.62 1445.01,1051.87 1446.93,1051.16 1448.86,1050.51 1450.78,1049.9 1452.7,1049.34 1454.63,1048.83 1456.55,1048.36 1458.48,1047.94 1460.4,1047.56 1462.32,1047.22 1464.25,1046.94 1466.17,1046.7 1468.1,1046.5 1470.02,1046.35 1471.94,1046.25 1473.87,1046.2 1475.79,1046.2 1477.72,1046.25 1479.64,1046.34 1481.56,1046.49 1483.49,1046.69 1485.41,1046.93 1487.34,1047.23 1489.26,1047.58 1491.18,1047.98 1493.11,1048.42 1495.03,1048.89 1496.96,1049.41 1498.88,1049.98 1500.8,1050.58 1502.73,1051.23 1504.65,1051.92 1506.58,1052.65 1508.5,1053.43 1510.42,1054.25 1512.35,1055.11 1514.27,1056.02 1516.2,1056.98 1518.12,1057.98 1520.04,1059.02 1521.97,1060.11 1523.89,1061.25 1525.82,1062.43 1527.74,1063.66 1529.66,1064.93 1531.59,1066.23 1533.51,1067.55 1535.44,1068.91 1537.36,1070.29 1539.28,1071.7 1541.21,1073.14 1543.13,1074.6 1545.06,1076.1 1546.98,1077.63 1548.9,1079.18 1550.83,1080.77 1552.75,1082.38 1554.68,1084.02 1556.6,1085.7 1558.52,1087.4 1560.45,1089.14 1562.37,1090.9 1564.3,1092.7 1566.22,1094.52 1568.14,1096.37 1570.07,1098.24 1571.99,1100.12 1573.92,1102.01 1575.84,1103.92 1577.76,1105.85 1579.69,1107.79 1581.61,1109.74 1583.54,1111.71 1585.46,1113.7 1587.39,1115.7 1589.31,1117.72 1591.23,1119.75 1593.16,1121.8 1595.08,1123.86 1597.01,1125.94 1598.93,1128.04 1600.85,1130.15 1602.78,1132.27 1604.7,1134.41 1606.63,1136.56 1608.55,1138.7 1610.47,1140.83 1612.4,1142.96 1614.32,1145.09 1616.25,1147.21 1618.17,1149.33 1620.09,1151.44 1622.02,1153.55 1623.94,1155.65 1625.87,1157.74 1627.79,1159.83 1629.71,1161.91 1631.64,1163.98 1633.56,1166.05 1635.49,1168.11 1637.41,1170.16 1639.33,1172.21 1641.26,1174.25 1643.18,1176.28 1645.11,1178.3 1647.03,1180.3 1648.95,1182.28 1650.88,1184.25 1652.8,1186.2 1654.73,1188.13 1656.65,1190.05 1658.57,1191.94 1660.5,1193.82 1662.42,1195.67 1664.35,1197.51 1666.27,1199.33 1668.19,1201.13 1670.12,1202.91 1672.04,1204.67 1673.97,1206.41 1675.89,1208.12 1677.81,1209.82 1679.74,1211.49 1681.66,1213.14 1683.59,1214.77 1685.51,1216.36 1687.43,1217.92 1689.36,1219.45 1691.28,1220.94 1693.21,1222.41 1695.13,1223.83 1697.05,1225.22 1698.98,1226.58 1700.9,1227.91 1702.83,1229.19 1704.75,1230.44 1706.67,1231.66 1708.6,1232.84 1710.52,1233.98 1712.45,1235.08 1714.37,1236.15 1716.29,1237.17 1718.22,1238.16 1720.14,1239.11 1722.07,1240.03 1723.99,1240.91 1725.91,1241.75 1727.84,1242.56 1729.76,1243.34 1731.69,1244.08 1733.61,1244.79 1735.53,1245.45 1737.46,1246.09 1739.38,1246.69 1741.31,1247.25 1743.23,1247.77 1745.15,1248.25 1747.08,1248.7 1749,1249.11 1750.93,1249.48 1752.85,1249.81 1754.77,1250.1 1756.7,1250.35 1758.62,1250.56 1760.55,1250.73 1762.47,1250.87 1764.39,1250.96 1766.32,1251.02 1768.24,1251.03 1770.17,1251 1772.09,1250.94 1774.01,1250.83 1775.94,1250.68 1777.86,1250.49 1779.79,1250.26 1781.71,1249.99 1783.63,1249.67 1785.56,1249.31 1787.48,1248.9 1789.41,1248.46 1791.33,1247.96 1793.25,1247.43 1795.18,1246.85 1797.1,1246.22 1799.03,1245.56 1800.95,1244.87 1802.87,1244.15 1804.8,1243.4 1806.72,1242.63 1808.65,1241.82 1810.57,1240.99 1812.49,1240.13 1814.42,1239.24 1816.34,1238.32 1818.27,1237.37 1820.19,1236.4 1822.11,1235.39 1824.04,1234.35 1825.96,1233.28 1827.89,1232.18 1829.81,1231.05 1831.73,1229.89 1833.66,1228.69 1835.58,1227.47 1837.51,1226.22 1839.43,1224.94 1841.35,1223.64 1843.28,1222.32 1845.2,1220.98 1847.13,1219.61 1849.05,1218.22 1850.97,1216.81 1852.9,1215.37 1854.82,1213.91 1856.75,1212.42 1858.67,1210.91 1860.59,1209.38 1862.52,1207.82 1864.44,1206.24 1866.37,1204.63 1868.29,1203 1870.21,1201.34 1872.14,1199.65 1874.06,1197.94 1875.99,1196.22 1877.91,1194.49 1879.83,1192.76 1881.76,1191.03 1883.68,1189.3 1885.61,1187.56 1887.53,1185.82 1889.45,1184.07 1891.38,1182.33 1893.3,1180.58 1895.23,1178.83 1897.15,1177.07 1899.07,1175.31 1901,1173.55 1902.92,1171.79 1904.85,1170.03 1906.77,1168.26 1908.69,1166.49 1910.62,1164.71 1912.54,1162.94 1914.47,1161.16 1916.39,1159.39 1918.31,1157.63 1920.24,1155.87 1922.16,1154.11 1924.09,1152.37 1926.01,1150.62 1927.93,1148.88 1929.86,1147.15 1931.78,1145.43 1933.71,1143.71 1935.63,1141.99 1937.55,1140.28 1939.48,1138.58 1941.4,1136.88 1943.33,1135.19 1945.25,1133.51 1947.17,1131.83 1949.1,1130.16 1951.02,1128.49 1952.95,1126.84 1954.87,1125.22 1956.79,1123.62 1958.72,1122.05 1960.64,1120.5 1962.57,1118.98 1964.49,1117.48 1966.41,1116.01 1968.34,1114.57 1970.26,1113.15 1972.19,1111.77 1974.11,1110.41 1976.03,1109.07 1977.96,1107.77 1979.88,1106.49 1981.81,1105.24 1983.73,1104.02 1985.65,1102.83 1987.58,1101.66 1989.5,1100.53 1991.43,1099.42 1993.35,1098.34 1995.27,1097.29 1997.2,1096.27 1999.12,1095.28 2001.05,1094.31 2002.97,1093.38 2004.9,1092.47 2006.82,1091.59 2008.74,1090.74 2010.67,1089.92 2012.59,1089.14 2014.52,1088.38 2016.44,1087.65 2018.36,1086.95 2020.29,1086.29 2022.21,1085.65 2024.14,1085.05 2026.06,1084.47 2027.98,1083.93 2029.91,1083.43 2031.83,1082.96 2033.76,1082.54 2035.68,1082.16 2037.6,1081.82 2039.53,1081.52 2041.45,1081.26 2043.38,1081.04 2045.3,1080.87 2047.22,1080.74 2049.15,1080.65 2051.07,1080.61 2053,1080.61 2054.92,1080.66 2056.84,1080.74 2058.77,1080.88 2060.69,1081.05 2062.62,1081.28 2064.54,1081.55 2066.46,1081.86 2068.39,1082.21 2070.31,1082.6 2072.24,1083.02 2074.16,1083.48 2076.08,1083.97 2078.01,1084.49 2079.93,1085.05 2081.86,1085.65 2083.78,1086.28 2085.7,1086.94 2087.63,1087.64 2089.55,1088.38 2091.48,1089.15 2093.4,1089.96 2095.32,1090.8 2097.25,1091.69 2099.17,1092.61 2101.1,1093.56 2103.02,1094.56 2104.94,1095.59 2106.87,1096.65 2108.79,1097.76 2110.72,1098.9 2112.64,1100.08 2114.56,1101.3 2116.49,1102.56 2118.41,1103.85 2120.34,1105.18 2122.26,1106.55 2124.18,1107.96 2126.11,1109.41 2128.03,1110.9 2129.96,1112.43 2131.88,1114 2133.8,1115.6 2135.73,1117.25 2137.65,1118.94 2139.58,1120.67 2141.5,1122.43 2143.42,1124.24 2145.35,1126.08 2147.27,1127.94 2149.2,1129.82 2151.12,1131.72 2153.04,1133.64 2154.97,1135.59 2156.89,1137.55 2158.82,1139.53 2160.74,1141.54 2162.66,1143.56 2164.59,1145.61 2166.51,1147.67 2168.44,1149.76 2170.36,1151.87 2172.28,1154 2174.21,1156.15 2176.13,1158.32 2178.06,1160.52 2179.98,1162.73 2181.9,1164.97 2183.83,1167.23 2185.75,1169.5 2187.68,1171.8 2189.6,1174.11 2191.52,1176.44 2193.45,1178.79 2195.37,1181.15 2197.3,1183.54 2199.22,1185.94 2201.14,1188.36 2203.07,1190.8 2204.99,1193.26 2206.92,1195.73 2208.84,1198.23 2210.76,1200.74 2212.69,1203.28 2214.61,1205.83 2216.54,1208.4 2218.46,1210.99 2220.38,1213.6 2222.31,1216.21 2224.23,1218.83 2226.16,1221.44 2228.08,1224.04 2230,1226.65 2231.93,1229.24 2233.85,1231.84 2235.78,1234.43 2237.7,1237.02 2239.62,1239.6 2241.55,1242.18 2243.47,1244.76 2245.4,1247.33 2247.32,1249.89 2249.24,1252.46 2251.17,1255.01 2253.09,1257.57 2255.02,1260.12 2256.94,1262.66 2258.86,1265.2 2260.79,1267.73 2262.71,1270.26 2264.64,1272.79 2266.56,1275.3 2268.48,1277.82 2270.41,1280.32 2272.33,1282.83 2274.26,1285.32 2276.18,1287.82 2278.1,1290.3 2280.03,1292.78 2281.95,1295.25 2283.88,1297.72 2285.8,1300.18 2287.72,1302.64 2289.65,1305.09 2291.57,1307.53 2293.5,1309.97 2295.42,1312.4 2297.34,1314.82 "/>
<path clip-path="url(#clip600)" d="M1907.68 196.789 L2287.49 196.789 L2287.49 93.1086 L1907.68 93.1086  Z" fill="#ffffff" fill-rule="evenodd" fill-opacity="1"/>
<polyline clip-path="url(#clip600)" style="stroke:#000000; stroke-linecap:round; stroke-linejoin:round; stroke-width:4; stroke-opacity:1; fill:none" points="1907.68,196.789 2287.49,196.789 2287.49,93.1086 1907.68,93.1086 1907.68,196.789 "/>
<polyline clip-path="url(#clip600)" style="stroke:#009af9; stroke-linecap:round; stroke-linejoin:round; stroke-width:4; stroke-opacity:1; fill:none" points="1929.43,144.949 2059.96,144.949 "/>
<path clip-path="url(#clip600)" d="M2086.39 131.511 L2086.39 158.386 L2092.04 158.386 Q2099.19 158.386 2102.5 155.145 Q2105.83 151.905 2105.83 144.914 Q2105.83 137.969 2102.5 134.752 Q2099.19 131.511 2092.04 131.511 L2086.39 131.511 M2081.71 127.669 L2091.32 127.669 Q2101.37 127.669 2106.06 131.858 Q2110.76 136.025 2110.76 144.914 Q2110.76 153.849 2106.04 158.039 Q2101.32 162.229 2091.32 162.229 L2081.71 162.229 L2081.71 127.669 Z" fill="#000000" fill-rule="nonzero" fill-opacity="1" /><path clip-path="url(#clip600)" d="M2116.39 142.067 L2119.07 142.067 L2119.07 162.229 L2116.39 162.229 L2116.39 142.067 Z" fill="#000000" fill-rule="nonzero" fill-opacity="1" /><path clip-path="url(#clip600)" d="M2158.31 132.507 L2158.31 141.465 L2171.2 141.465 L2171.2 145.4 L2158.31 145.4 L2158.31 154.358 L2154.42 154.358 L2154.42 145.4 L2141.53 145.4 L2141.53 141.465 L2154.42 141.465 L2154.42 132.507 L2158.31 132.507 M2141.53 158.293 L2171.2 158.293 L2171.2 162.229 L2141.53 162.229 L2141.53 158.293 Z" fill="#000000" fill-rule="nonzero" fill-opacity="1" /><path clip-path="url(#clip600)" d="M2207.5 132.275 L2198.01 158.34 L2217.01 158.34 L2207.5 132.275 M2191.67 162.229 L2204.86 127.669 L2210.16 127.669 L2223.33 162.229 L2191.67 162.229 Z" fill="#000000" fill-rule="nonzero" fill-opacity="1" /><path clip-path="url(#clip600)" d="M2233.05 131.511 L2233.05 158.386 L2238.7 158.386 Q2245.86 158.386 2249.17 155.145 Q2252.5 151.905 2252.5 144.914 Q2252.5 137.969 2249.17 134.752 Q2245.86 131.511 2238.7 131.511 L2233.05 131.511 M2228.38 127.669 L2237.98 127.669 Q2248.03 127.669 2252.73 131.858 Q2257.43 136.025 2257.43 144.914 Q2257.43 153.849 2252.71 158.039 Q2247.98 162.229 2237.98 162.229 L2228.38 162.229 L2228.38 127.669 Z" fill="#000000" fill-rule="nonzero" fill-opacity="1" /><path clip-path="url(#clip600)" d="M2263.05 142.067 L2265.74 142.067 L2265.74 162.229 L2263.05 162.229 L2263.05 142.067 Z" fill="#000000" fill-rule="nonzero" fill-opacity="1" /></svg>
