<?xml version="1.0" encoding="utf-8"?>
<svg xmlns="http://www.w3.org/2000/svg" xmlns:xlink="http://www.w3.org/1999/xlink" width="800" height="400" viewBox="0 0 3200 1600">
<defs>
  <clipPath id="clip090">
    <rect x="0" y="0" width="3200" height="1600"/>
  </clipPath>
</defs>
<path clip-path="url(#clip090)" d="M0 1600 L3200 1600 L3200 0 L0 0  Z" fill="#ffffff" fill-rule="evenodd" fill-opacity="1"/>
<defs>
  <clipPath id="clip091">
    <rect x="364" y="47" width="2789" height="1449"/>
  </clipPath>
</defs>
<path clip-path="url(#clip090)" d="M364.733 1495.09 L3152.76 1495.09 L3152.76 47.2441 L364.733 47.2441  Z" fill="#ffffff" fill-rule="evenodd" fill-opacity="1"/>
<polyline clip-path="url(#clip091)" style="stroke:#000000; stroke-linecap:round; stroke-linejoin:round; stroke-width:2; stroke-opacity:0.1; fill:none" points="735.885,1495.09 735.885,47.2441 "/>
<polyline clip-path="url(#clip091)" style="stroke:#000000; stroke-linecap:round; stroke-linejoin:round; stroke-width:2; stroke-opacity:0.1; fill:none" points="1758.74,1495.09 1758.74,47.2441 "/>
<polyline clip-path="url(#clip091)" style="stroke:#000000; stroke-linecap:round; stroke-linejoin:round; stroke-width:2; stroke-opacity:0.1; fill:none" points="2781.6,1495.09 2781.6,47.2441 "/>
<polyline clip-path="url(#clip091)" style="stroke:#000000; stroke-linecap:round; stroke-linejoin:round; stroke-width:2; stroke-opacity:0.1; fill:none" points="364.733,1378.41 3152.76,1378.41 "/>
<polyline clip-path="url(#clip091)" style="stroke:#000000; stroke-linecap:round; stroke-linejoin:round; stroke-width:2; stroke-opacity:0.1; fill:none" points="364.733,1115.08 3152.76,1115.08 "/>
<polyline clip-path="url(#clip091)" style="stroke:#000000; stroke-linecap:round; stroke-linejoin:round; stroke-width:2; stroke-opacity:0.1; fill:none" points="364.733,851.759 3152.76,851.759 "/>
<polyline clip-path="url(#clip091)" style="stroke:#000000; stroke-linecap:round; stroke-linejoin:round; stroke-width:2; stroke-opacity:0.1; fill:none" points="364.733,588.433 3152.76,588.433 "/>
<polyline clip-path="url(#clip091)" style="stroke:#000000; stroke-linecap:round; stroke-linejoin:round; stroke-width:2; stroke-opacity:0.1; fill:none" points="364.733,325.108 3152.76,325.108 "/>
<polyline clip-path="url(#clip091)" style="stroke:#000000; stroke-linecap:round; stroke-linejoin:round; stroke-width:2; stroke-opacity:0.1; fill:none" points="364.733,61.7825 3152.76,61.7825 "/>
<polyline clip-path="url(#clip090)" style="stroke:#000000; stroke-linecap:round; stroke-linejoin:round; stroke-width:4; stroke-opacity:1; fill:none" points="364.733,1495.09 3152.76,1495.09 "/>
<polyline clip-path="url(#clip090)" style="stroke:#000000; stroke-linecap:round; stroke-linejoin:round; stroke-width:4; stroke-opacity:1; fill:none" points="735.885,1495.09 735.885,1476.19 "/>
<polyline clip-path="url(#clip090)" style="stroke:#000000; stroke-linecap:round; stroke-linejoin:round; stroke-width:4; stroke-opacity:1; fill:none" points="1758.74,1495.09 1758.74,1476.19 "/>
<polyline clip-path="url(#clip090)" style="stroke:#000000; stroke-linecap:round; stroke-linejoin:round; stroke-width:4; stroke-opacity:1; fill:none" points="2781.6,1495.09 2781.6,1476.19 "/>
<path clip-path="url(#clip090)" d="M651.846 1538.73 L651.846 1542.75 Q650.04 1541.83 648.096 1541.36 Q646.151 1540.9 644.068 1540.9 Q640.897 1540.9 639.299 1541.87 Q637.725 1542.85 637.725 1544.79 Q637.725 1546.27 638.86 1547.13 Q639.994 1547.96 643.42 1548.73 L644.878 1549.05 Q649.415 1550.02 651.313 1551.8 Q653.235 1553.56 653.235 1556.74 Q653.235 1560.35 650.364 1562.45 Q647.517 1564.56 642.517 1564.56 Q640.434 1564.56 638.165 1564.14 Q635.92 1563.75 633.42 1562.94 L633.42 1558.54 Q635.781 1559.77 638.073 1560.39 Q640.364 1560.99 642.61 1560.99 Q645.619 1560.99 647.239 1559.98 Q648.86 1558.93 648.86 1557.06 Q648.86 1555.32 647.679 1554.4 Q646.522 1553.47 642.563 1552.61 L641.082 1552.27 Q637.123 1551.43 635.364 1549.72 Q633.605 1547.99 633.605 1544.98 Q633.605 1541.32 636.198 1539.33 Q638.79 1537.34 643.559 1537.34 Q645.92 1537.34 648.003 1537.68 Q650.086 1538.03 651.846 1538.73 Z" fill="#000000" fill-rule="nonzero" fill-opacity="1" /><path clip-path="url(#clip090)" d="M670.804 1566.3 Q668.998 1570.92 667.285 1572.34 Q665.572 1573.75 662.702 1573.75 L659.299 1573.75 L659.299 1570.18 L661.799 1570.18 Q663.559 1570.18 664.531 1569.35 Q665.503 1568.52 666.684 1565.42 L667.447 1563.47 L656.961 1537.96 L661.475 1537.96 L669.577 1558.24 L677.679 1537.96 L682.193 1537.96 L670.804 1566.3 Z" fill="#000000" fill-rule="nonzero" fill-opacity="1" /><path clip-path="url(#clip090)" d="M708.257 1542.94 Q709.855 1540.07 712.077 1538.7 Q714.299 1537.34 717.308 1537.34 Q721.359 1537.34 723.558 1540.18 Q725.757 1543.01 725.757 1548.24 L725.757 1563.89 L721.475 1563.89 L721.475 1548.38 Q721.475 1544.65 720.155 1542.85 Q718.836 1541.04 716.128 1541.04 Q712.818 1541.04 710.896 1543.24 Q708.975 1545.44 708.975 1549.24 L708.975 1563.89 L704.693 1563.89 L704.693 1548.38 Q704.693 1544.63 703.373 1542.85 Q702.054 1541.04 699.299 1541.04 Q696.035 1541.04 694.114 1543.26 Q692.193 1545.46 692.193 1549.24 L692.193 1563.89 L687.91 1563.89 L687.91 1537.96 L692.193 1537.96 L692.193 1541.99 Q693.651 1539.61 695.688 1538.47 Q697.725 1537.34 700.526 1537.34 Q703.35 1537.34 705.318 1538.77 Q707.308 1540.21 708.257 1542.94 Z" fill="#000000" fill-rule="nonzero" fill-opacity="1" /><path clip-path="url(#clip090)" d="M752.864 1550.95 Q752.864 1546.25 750.919 1543.59 Q748.998 1540.9 745.618 1540.9 Q742.239 1540.9 740.294 1543.59 Q738.373 1546.25 738.373 1550.95 Q738.373 1555.65 740.294 1558.33 Q742.239 1560.99 745.618 1560.99 Q748.998 1560.99 750.919 1558.33 Q752.864 1555.65 752.864 1550.95 M738.373 1541.9 Q739.716 1539.58 741.753 1538.47 Q743.813 1537.34 746.66 1537.34 Q751.382 1537.34 754.322 1541.09 Q757.285 1544.84 757.285 1550.95 Q757.285 1557.06 754.322 1560.81 Q751.382 1564.56 746.66 1564.56 Q743.813 1564.56 741.753 1563.45 Q739.716 1562.31 738.373 1560 L738.373 1563.89 L734.091 1563.89 L734.091 1527.87 L738.373 1527.87 L738.373 1541.9 Z" fill="#000000" fill-rule="nonzero" fill-opacity="1" /><path clip-path="url(#clip090)" d="M774.391 1540.95 Q770.965 1540.95 768.975 1543.63 Q766.984 1546.3 766.984 1550.95 Q766.984 1555.6 768.951 1558.29 Q770.942 1560.95 774.391 1560.95 Q777.794 1560.95 779.785 1558.26 Q781.775 1555.58 781.775 1550.95 Q781.775 1546.34 779.785 1543.66 Q777.794 1540.95 774.391 1540.95 M774.391 1537.34 Q779.947 1537.34 783.118 1540.95 Q786.289 1544.56 786.289 1550.95 Q786.289 1557.31 783.118 1560.95 Q779.947 1564.56 774.391 1564.56 Q768.813 1564.56 765.641 1560.95 Q762.493 1557.31 762.493 1550.95 Q762.493 1544.56 765.641 1540.95 Q768.813 1537.34 774.391 1537.34 Z" fill="#000000" fill-rule="nonzero" fill-opacity="1" /><path clip-path="url(#clip090)" d="M793.349 1527.87 L797.609 1527.87 L797.609 1563.89 L793.349 1563.89 L793.349 1527.87 Z" fill="#000000" fill-rule="nonzero" fill-opacity="1" /><path clip-path="url(#clip090)" d="M806.521 1537.96 L810.78 1537.96 L810.78 1563.89 L806.521 1563.89 L806.521 1537.96 M806.521 1527.87 L810.78 1527.87 L810.78 1533.26 L806.521 1533.26 L806.521 1527.87 Z" fill="#000000" fill-rule="nonzero" fill-opacity="1" /><path clip-path="url(#clip090)" d="M838.349 1538.96 L838.349 1542.94 Q836.544 1541.94 834.715 1541.46 Q832.909 1540.95 831.058 1540.95 Q826.914 1540.95 824.622 1543.59 Q822.331 1546.2 822.331 1550.95 Q822.331 1555.69 824.622 1558.33 Q826.914 1560.95 831.058 1560.95 Q832.909 1560.95 834.715 1560.46 Q836.544 1559.95 838.349 1558.96 L838.349 1562.89 Q836.567 1563.73 834.646 1564.14 Q832.747 1564.56 830.595 1564.56 Q824.738 1564.56 821.289 1560.88 Q817.84 1557.2 817.84 1550.95 Q817.84 1544.61 821.312 1540.97 Q824.808 1537.34 830.872 1537.34 Q832.84 1537.34 834.715 1537.75 Q836.59 1538.15 838.349 1538.96 Z" fill="#000000" fill-rule="nonzero" fill-opacity="1" /><path clip-path="url(#clip090)" d="M1669.07 1527.87 L1669.07 1531.41 L1664.99 1531.41 Q1662.7 1531.41 1661.8 1532.34 Q1660.92 1533.26 1660.92 1535.67 L1660.92 1537.96 L1667.93 1537.96 L1667.93 1541.27 L1660.92 1541.27 L1660.92 1563.89 L1656.64 1563.89 L1656.64 1541.27 L1652.56 1541.27 L1652.56 1537.96 L1656.64 1537.96 L1656.64 1536.16 Q1656.64 1531.83 1658.65 1529.86 Q1660.67 1527.87 1665.04 1527.87 L1669.07 1527.87 Z" fill="#000000" fill-rule="nonzero" fill-opacity="1" /><path clip-path="url(#clip090)" d="M1672.63 1537.96 L1676.89 1537.96 L1676.89 1563.89 L1672.63 1563.89 L1672.63 1537.96 M1672.63 1527.87 L1676.89 1527.87 L1676.89 1533.26 L1672.63 1533.26 L1672.63 1527.87 Z" fill="#000000" fill-rule="nonzero" fill-opacity="1" /><path clip-path="url(#clip090)" d="M1707.36 1548.24 L1707.36 1563.89 L1703.1 1563.89 L1703.1 1548.38 Q1703.1 1544.7 1701.66 1542.87 Q1700.23 1541.04 1697.36 1541.04 Q1693.91 1541.04 1691.92 1543.24 Q1689.93 1545.44 1689.93 1549.24 L1689.93 1563.89 L1685.64 1563.89 L1685.64 1537.96 L1689.93 1537.96 L1689.93 1541.99 Q1691.45 1539.65 1693.51 1538.49 Q1695.6 1537.34 1698.3 1537.34 Q1702.77 1537.34 1705.06 1540.11 Q1707.36 1542.87 1707.36 1548.24 Z" fill="#000000" fill-rule="nonzero" fill-opacity="1" /><path clip-path="url(#clip090)" d="M1715.85 1537.96 L1720.11 1537.96 L1720.11 1563.89 L1715.85 1563.89 L1715.85 1537.96 M1715.85 1527.87 L1720.11 1527.87 L1720.11 1533.26 L1715.85 1533.26 L1715.85 1527.87 Z" fill="#000000" fill-rule="nonzero" fill-opacity="1" /><path clip-path="url(#clip090)" d="M1733.24 1530.6 L1733.24 1537.96 L1742.01 1537.96 L1742.01 1541.27 L1733.24 1541.27 L1733.24 1555.35 Q1733.24 1558.52 1734.09 1559.42 Q1734.97 1560.32 1737.63 1560.32 L1742.01 1560.32 L1742.01 1563.89 L1737.63 1563.89 Q1732.7 1563.89 1730.83 1562.06 Q1728.95 1560.21 1728.95 1555.35 L1728.95 1541.27 L1725.83 1541.27 L1725.83 1537.96 L1728.95 1537.96 L1728.95 1530.6 L1733.24 1530.6 Z" fill="#000000" fill-rule="nonzero" fill-opacity="1" /><path clip-path="url(#clip090)" d="M1769.79 1549.86 L1769.79 1551.94 L1750.2 1551.94 Q1750.48 1556.34 1752.84 1558.66 Q1755.23 1560.95 1759.46 1560.95 Q1761.92 1560.95 1764.21 1560.35 Q1766.52 1559.74 1768.79 1558.54 L1768.79 1562.57 Q1766.5 1563.54 1764.09 1564.05 Q1761.68 1564.56 1759.21 1564.56 Q1753 1564.56 1749.37 1560.95 Q1745.76 1557.34 1745.76 1551.18 Q1745.76 1544.81 1749.18 1541.09 Q1752.63 1537.34 1758.47 1537.34 Q1763.7 1537.34 1766.73 1540.72 Q1769.79 1544.07 1769.79 1549.86 M1765.53 1548.61 Q1765.48 1545.11 1763.56 1543.03 Q1761.66 1540.95 1758.51 1540.95 Q1754.95 1540.95 1752.8 1542.96 Q1750.67 1544.98 1750.34 1548.63 L1765.53 1548.61 Z" fill="#000000" fill-rule="nonzero" fill-opacity="1" /><path clip-path="url(#clip090)" d="M1808.91 1541.9 L1808.91 1527.87 L1813.17 1527.87 L1813.17 1563.89 L1808.91 1563.89 L1808.91 1560 Q1807.56 1562.31 1805.5 1563.45 Q1803.47 1564.56 1800.6 1564.56 Q1795.9 1564.56 1792.93 1560.81 Q1789.99 1557.06 1789.99 1550.95 Q1789.99 1544.84 1792.93 1541.09 Q1795.9 1537.34 1800.6 1537.34 Q1803.47 1537.34 1805.5 1538.47 Q1807.56 1539.58 1808.91 1541.9 M1794.39 1550.95 Q1794.39 1555.65 1796.31 1558.33 Q1798.26 1560.99 1801.64 1560.99 Q1805.02 1560.99 1806.96 1558.33 Q1808.91 1555.65 1808.91 1550.95 Q1808.91 1546.25 1806.96 1543.59 Q1805.02 1540.9 1801.64 1540.9 Q1798.26 1540.9 1796.31 1543.59 Q1794.39 1546.25 1794.39 1550.95 Z" fill="#000000" fill-rule="nonzero" fill-opacity="1" /><path clip-path="url(#clip090)" d="M1821.94 1537.96 L1826.2 1537.96 L1826.2 1563.89 L1821.94 1563.89 L1821.94 1537.96 M1821.94 1527.87 L1826.2 1527.87 L1826.2 1533.26 L1821.94 1533.26 L1821.94 1527.87 Z" fill="#000000" fill-rule="nonzero" fill-opacity="1" /><path clip-path="url(#clip090)" d="M1848.23 1527.87 L1848.23 1531.41 L1844.16 1531.41 Q1841.87 1531.41 1840.97 1532.34 Q1840.09 1533.26 1840.09 1535.67 L1840.09 1537.96 L1847.1 1537.96 L1847.1 1541.27 L1840.09 1541.27 L1840.09 1563.89 L1835.8 1563.89 L1835.8 1541.27 L1831.73 1541.27 L1831.73 1537.96 L1835.8 1537.96 L1835.8 1536.16 Q1835.8 1531.83 1837.82 1529.86 Q1839.83 1527.87 1844.21 1527.87 L1848.23 1527.87 Z" fill="#000000" fill-rule="nonzero" fill-opacity="1" /><path clip-path="url(#clip090)" d="M1864.92 1527.87 L1864.92 1531.41 L1860.85 1531.41 Q1858.56 1531.41 1857.66 1532.34 Q1856.78 1533.26 1856.78 1535.67 L1856.78 1537.96 L1863.79 1537.96 L1863.79 1541.27 L1856.78 1541.27 L1856.78 1563.89 L1852.49 1563.89 L1852.49 1541.27 L1848.42 1541.27 L1848.42 1537.96 L1852.49 1537.96 L1852.49 1536.16 Q1852.49 1531.83 1854.51 1529.86 Q1856.52 1527.87 1860.9 1527.87 L1864.92 1527.87 Z" fill="#000000" fill-rule="nonzero" fill-opacity="1" /><path clip-path="url(#clip090)" d="M2661.47 1527.87 L2661.47 1531.41 L2657.39 1531.41 Q2655.1 1531.41 2654.2 1532.34 Q2653.32 1533.26 2653.32 1535.67 L2653.32 1537.96 L2660.33 1537.96 L2660.33 1541.27 L2653.32 1541.27 L2653.32 1563.89 L2649.04 1563.89 L2649.04 1541.27 L2644.96 1541.27 L2644.96 1537.96 L2649.04 1537.96 L2649.04 1536.16 Q2649.04 1531.83 2651.05 1529.86 Q2653.06 1527.87 2657.44 1527.87 L2661.47 1527.87 Z" fill="#000000" fill-rule="nonzero" fill-opacity="1" /><path clip-path="url(#clip090)" d="M2675.08 1540.95 Q2671.65 1540.95 2669.66 1543.63 Q2667.67 1546.3 2667.67 1550.95 Q2667.67 1555.6 2669.64 1558.29 Q2671.63 1560.95 2675.08 1560.95 Q2678.48 1560.95 2680.47 1558.26 Q2682.46 1555.58 2682.46 1550.95 Q2682.46 1546.34 2680.47 1543.66 Q2678.48 1540.95 2675.08 1540.95 M2675.08 1537.34 Q2680.63 1537.34 2683.8 1540.95 Q2686.97 1544.56 2686.97 1550.95 Q2686.97 1557.31 2683.8 1560.95 Q2680.63 1564.56 2675.08 1564.56 Q2669.5 1564.56 2666.33 1560.95 Q2663.18 1557.31 2663.18 1550.95 Q2663.18 1544.56 2666.33 1540.95 Q2669.5 1537.34 2675.08 1537.34 Z" fill="#000000" fill-rule="nonzero" fill-opacity="1" /><path clip-path="url(#clip090)" d="M2709.06 1541.94 Q2708.34 1541.53 2707.48 1541.34 Q2706.65 1541.13 2705.63 1541.13 Q2702.02 1541.13 2700.08 1543.49 Q2698.16 1545.83 2698.16 1550.23 L2698.16 1563.89 L2693.87 1563.89 L2693.87 1537.96 L2698.16 1537.96 L2698.16 1541.99 Q2699.5 1539.63 2701.65 1538.49 Q2703.8 1537.34 2706.88 1537.34 Q2707.32 1537.34 2707.85 1537.41 Q2708.39 1537.45 2709.03 1537.57 L2709.06 1541.94 Z" fill="#000000" fill-rule="nonzero" fill-opacity="1" /><path clip-path="url(#clip090)" d="M2711.05 1537.96 L2715.31 1537.96 L2720.63 1558.19 L2725.93 1537.96 L2730.96 1537.96 L2736.28 1558.19 L2741.58 1537.96 L2745.84 1537.96 L2739.06 1563.89 L2734.03 1563.89 L2728.46 1542.64 L2722.85 1563.89 L2717.83 1563.89 L2711.05 1537.96 Z" fill="#000000" fill-rule="nonzero" fill-opacity="1" /><path clip-path="url(#clip090)" d="M2764.08 1550.86 Q2758.92 1550.86 2756.93 1552.04 Q2754.94 1553.22 2754.94 1556.06 Q2754.94 1558.33 2756.42 1559.67 Q2757.92 1560.99 2760.49 1560.99 Q2764.03 1560.99 2766.16 1558.49 Q2768.32 1555.97 2768.32 1551.8 L2768.32 1550.86 L2764.08 1550.86 M2772.58 1549.1 L2772.58 1563.89 L2768.32 1563.89 L2768.32 1559.95 Q2766.86 1562.31 2764.68 1563.45 Q2762.51 1564.56 2759.36 1564.56 Q2755.38 1564.56 2753.02 1562.34 Q2750.68 1560.09 2750.68 1556.34 Q2750.68 1551.97 2753.59 1549.74 Q2756.53 1547.52 2762.34 1547.52 L2768.32 1547.52 L2768.32 1547.11 Q2768.32 1544.17 2766.37 1542.57 Q2764.45 1540.95 2760.96 1540.95 Q2758.73 1540.95 2756.63 1541.48 Q2754.52 1542.01 2752.58 1543.08 L2752.58 1539.14 Q2754.91 1538.24 2757.11 1537.8 Q2759.31 1537.34 2761.4 1537.34 Q2767.02 1537.34 2769.8 1540.25 Q2772.58 1543.17 2772.58 1549.1 Z" fill="#000000" fill-rule="nonzero" fill-opacity="1" /><path clip-path="url(#clip090)" d="M2796.37 1541.94 Q2795.65 1541.53 2794.8 1541.34 Q2793.96 1541.13 2792.95 1541.13 Q2789.34 1541.13 2787.39 1543.49 Q2785.47 1545.83 2785.47 1550.23 L2785.47 1563.89 L2781.19 1563.89 L2781.19 1537.96 L2785.47 1537.96 L2785.47 1541.99 Q2786.81 1539.63 2788.97 1538.49 Q2791.12 1537.34 2794.2 1537.34 Q2794.64 1537.34 2795.17 1537.41 Q2795.7 1537.45 2796.35 1537.57 L2796.37 1541.94 Z" fill="#000000" fill-rule="nonzero" fill-opacity="1" /><path clip-path="url(#clip090)" d="M2817.07 1541.9 L2817.07 1527.87 L2821.33 1527.87 L2821.33 1563.89 L2817.07 1563.89 L2817.07 1560 Q2815.72 1562.31 2813.66 1563.45 Q2811.63 1564.56 2808.76 1564.56 Q2804.06 1564.56 2801.09 1560.81 Q2798.15 1557.06 2798.15 1550.95 Q2798.15 1544.84 2801.09 1541.09 Q2804.06 1537.34 2808.76 1537.34 Q2811.63 1537.34 2813.66 1538.47 Q2815.72 1539.58 2817.07 1541.9 M2802.55 1550.95 Q2802.55 1555.65 2804.47 1558.33 Q2806.42 1560.99 2809.8 1560.99 Q2813.18 1560.99 2815.12 1558.33 Q2817.07 1555.65 2817.07 1550.95 Q2817.07 1546.25 2815.12 1543.59 Q2813.18 1540.9 2809.8 1540.9 Q2806.42 1540.9 2804.47 1543.59 Q2802.55 1546.25 2802.55 1550.95 Z" fill="#000000" fill-rule="nonzero" fill-opacity="1" /><path clip-path="url(#clip090)" d="M2862.23 1541.9 L2862.23 1527.87 L2866.49 1527.87 L2866.49 1563.89 L2862.23 1563.89 L2862.23 1560 Q2860.89 1562.31 2858.83 1563.45 Q2856.79 1564.56 2853.92 1564.56 Q2849.22 1564.56 2846.26 1560.81 Q2843.32 1557.06 2843.32 1550.95 Q2843.32 1544.84 2846.26 1541.09 Q2849.22 1537.34 2853.92 1537.34 Q2856.79 1537.34 2858.83 1538.47 Q2860.89 1539.58 2862.23 1541.9 M2847.71 1550.95 Q2847.71 1555.65 2849.64 1558.33 Q2851.58 1560.99 2854.96 1560.99 Q2858.34 1560.99 2860.28 1558.33 Q2862.23 1555.65 2862.23 1550.95 Q2862.23 1546.25 2860.28 1543.59 Q2858.34 1540.9 2854.96 1540.9 Q2851.58 1540.9 2849.64 1543.59 Q2847.71 1546.25 2847.71 1550.95 Z" fill="#000000" fill-rule="nonzero" fill-opacity="1" /><path clip-path="url(#clip090)" d="M2875.26 1537.96 L2879.52 1537.96 L2879.52 1563.89 L2875.26 1563.89 L2875.26 1537.96 M2875.26 1527.87 L2879.52 1527.87 L2879.52 1533.26 L2875.26 1533.26 L2875.26 1527.87 Z" fill="#000000" fill-rule="nonzero" fill-opacity="1" /><path clip-path="url(#clip090)" d="M2901.56 1527.87 L2901.56 1531.41 L2897.48 1531.41 Q2895.19 1531.41 2894.29 1532.34 Q2893.41 1533.26 2893.41 1535.67 L2893.41 1537.96 L2900.42 1537.96 L2900.42 1541.27 L2893.41 1541.27 L2893.41 1563.89 L2889.13 1563.89 L2889.13 1541.27 L2885.05 1541.27 L2885.05 1537.96 L2889.13 1537.96 L2889.13 1536.16 Q2889.13 1531.83 2891.14 1529.86 Q2893.15 1527.87 2897.53 1527.87 L2901.56 1527.87 Z" fill="#000000" fill-rule="nonzero" fill-opacity="1" /><path clip-path="url(#clip090)" d="M2918.25 1527.87 L2918.25 1531.41 L2914.17 1531.41 Q2911.88 1531.41 2910.98 1532.34 Q2910.1 1533.26 2910.1 1535.67 L2910.1 1537.96 L2917.11 1537.96 L2917.11 1541.27 L2910.1 1541.27 L2910.1 1563.89 L2905.82 1563.89 L2905.82 1541.27 L2901.74 1541.27 L2901.74 1537.96 L2905.82 1537.96 L2905.82 1536.16 Q2905.82 1531.83 2907.83 1529.86 Q2909.84 1527.87 2914.22 1527.87 L2918.25 1527.87 Z" fill="#000000" fill-rule="nonzero" fill-opacity="1" /><polyline clip-path="url(#clip090)" style="stroke:#000000; stroke-linecap:round; stroke-linejoin:round; stroke-width:4; stroke-opacity:1; fill:none" points="364.733,1495.09 364.733,47.2441 "/>
<polyline clip-path="url(#clip090)" style="stroke:#000000; stroke-linecap:round; stroke-linejoin:round; stroke-width:4; stroke-opacity:1; fill:none" points="364.733,1378.41 383.63,1378.41 "/>
<polyline clip-path="url(#clip090)" style="stroke:#000000; stroke-linecap:round; stroke-linejoin:round; stroke-width:4; stroke-opacity:1; fill:none" points="364.733,1115.08 383.63,1115.08 "/>
<polyline clip-path="url(#clip090)" style="stroke:#000000; stroke-linecap:round; stroke-linejoin:round; stroke-width:4; stroke-opacity:1; fill:none" points="364.733,851.759 383.63,851.759 "/>
<polyline clip-path="url(#clip090)" style="stroke:#000000; stroke-linecap:round; stroke-linejoin:round; stroke-width:4; stroke-opacity:1; fill:none" points="364.733,588.433 383.63,588.433 "/>
<polyline clip-path="url(#clip090)" style="stroke:#000000; stroke-linecap:round; stroke-linejoin:round; stroke-width:4; stroke-opacity:1; fill:none" points="364.733,325.108 383.63,325.108 "/>
<polyline clip-path="url(#clip090)" style="stroke:#000000; stroke-linecap:round; stroke-linejoin:round; stroke-width:4; stroke-opacity:1; fill:none" points="364.733,61.7825 383.63,61.7825 "/>
<path clip-path="url(#clip090)" d="M100.137 1367.58 L118.493 1367.58 L118.493 1371.51 L104.419 1371.51 L104.419 1379.98 Q105.437 1379.64 106.456 1379.48 Q107.474 1379.29 108.493 1379.29 Q114.28 1379.29 117.66 1382.46 Q121.039 1385.63 121.039 1391.05 Q121.039 1396.63 117.567 1399.73 Q114.095 1402.81 107.775 1402.81 Q105.599 1402.81 103.331 1402.44 Q101.086 1402.07 98.6782 1401.33 L98.6782 1396.63 Q100.762 1397.76 102.984 1398.32 Q105.206 1398.87 107.683 1398.87 Q111.687 1398.87 114.025 1396.77 Q116.363 1394.66 116.363 1391.05 Q116.363 1387.44 114.025 1385.33 Q111.687 1383.23 107.683 1383.23 Q105.808 1383.23 103.933 1383.64 Q102.081 1384.06 100.137 1384.94 L100.137 1367.58 Z" fill="#000000" fill-rule="nonzero" fill-opacity="1" /><path clip-path="url(#clip090)" d="M130.252 1396.26 L135.136 1396.26 L135.136 1402.14 L130.252 1402.14 L130.252 1396.26 Z" fill="#000000" fill-rule="nonzero" fill-opacity="1" /><path clip-path="url(#clip090)" d="M155.321 1370.66 Q151.71 1370.66 149.882 1374.22 Q148.076 1377.76 148.076 1384.89 Q148.076 1392 149.882 1395.56 Q151.71 1399.11 155.321 1399.11 Q158.956 1399.11 160.761 1395.56 Q162.59 1392 162.59 1384.89 Q162.59 1377.76 160.761 1374.22 Q158.956 1370.66 155.321 1370.66 M155.321 1366.95 Q161.132 1366.95 164.187 1371.56 Q167.266 1376.14 167.266 1384.89 Q167.266 1393.62 164.187 1398.23 Q161.132 1402.81 155.321 1402.81 Q149.511 1402.81 146.433 1398.23 Q143.377 1393.62 143.377 1384.89 Q143.377 1376.14 146.433 1371.56 Q149.511 1366.95 155.321 1366.95 Z" fill="#000000" fill-rule="nonzero" fill-opacity="1" /><path clip-path="url(#clip090)" d="M185.483 1370.66 Q181.872 1370.66 180.043 1374.22 Q178.238 1377.76 178.238 1384.89 Q178.238 1392 180.043 1395.56 Q181.872 1399.11 185.483 1399.11 Q189.118 1399.11 190.923 1395.56 Q192.752 1392 192.752 1384.89 Q192.752 1377.76 190.923 1374.22 Q189.118 1370.66 185.483 1370.66 M185.483 1366.95 Q191.293 1366.95 194.349 1371.56 Q197.428 1376.14 197.428 1384.89 Q197.428 1393.62 194.349 1398.23 Q191.293 1402.81 185.483 1402.81 Q179.673 1402.81 176.594 1398.23 Q173.539 1393.62 173.539 1384.89 Q173.539 1376.14 176.594 1371.56 Q179.673 1366.95 185.483 1366.95 Z" fill="#000000" fill-rule="nonzero" fill-opacity="1" /><path clip-path="url(#clip090)" d="M233.816 1376.67 L223.238 1387.3 L233.816 1397.88 L231.062 1400.68 L220.437 1390.05 L209.812 1400.68 L207.08 1397.88 L217.636 1387.3 L207.08 1376.67 L209.812 1373.87 L220.437 1384.5 L231.062 1373.87 L233.816 1376.67 Z" fill="#000000" fill-rule="nonzero" fill-opacity="1" /><path clip-path="url(#clip090)" d="M246.177 1398.2 L253.816 1398.2 L253.816 1371.84 L245.506 1373.5 L245.506 1369.24 L253.77 1367.58 L258.446 1367.58 L258.446 1398.2 L266.085 1398.2 L266.085 1402.14 L246.177 1402.14 L246.177 1398.2 Z" fill="#000000" fill-rule="nonzero" fill-opacity="1" /><path clip-path="url(#clip090)" d="M285.529 1370.66 Q281.918 1370.66 280.089 1374.22 Q278.284 1377.76 278.284 1384.89 Q278.284 1392 280.089 1395.56 Q281.918 1399.11 285.529 1399.11 Q289.163 1399.11 290.969 1395.56 Q292.798 1392 292.798 1384.89 Q292.798 1377.76 290.969 1374.22 Q289.163 1370.66 285.529 1370.66 M285.529 1366.95 Q291.339 1366.95 294.395 1371.56 Q297.473 1376.14 297.473 1384.89 Q297.473 1393.62 294.395 1398.23 Q291.339 1402.81 285.529 1402.81 Q279.719 1402.81 276.64 1398.23 Q273.585 1393.62 273.585 1384.89 Q273.585 1376.14 276.64 1371.56 Q279.719 1366.95 285.529 1366.95 Z" fill="#000000" fill-rule="nonzero" fill-opacity="1" /><path clip-path="url(#clip090)" d="M307.103 1361.39 Q304.395 1361.39 302.834 1362.84 Q301.291 1364.29 301.291 1366.83 Q301.291 1369.37 302.834 1370.81 Q304.395 1372.26 307.103 1372.26 Q309.811 1372.26 311.372 1370.81 Q312.933 1369.35 312.933 1366.83 Q312.933 1364.29 311.372 1362.84 Q309.83 1361.39 307.103 1361.39 M303.304 1359.77 Q300.859 1359.17 299.486 1357.5 Q298.132 1355.83 298.132 1353.42 Q298.132 1350.05 300.52 1348.1 Q302.928 1346.14 307.103 1346.14 Q311.297 1346.14 313.686 1348.1 Q316.074 1350.05 316.074 1353.42 Q316.074 1355.83 314.701 1357.5 Q313.347 1359.17 310.921 1359.77 Q313.667 1360.41 315.19 1362.28 Q316.733 1364.14 316.733 1366.83 Q316.733 1370.91 314.231 1373.09 Q311.749 1375.27 307.103 1375.27 Q302.457 1375.27 299.956 1373.09 Q297.473 1370.91 297.473 1366.83 Q297.473 1364.14 299.016 1362.28 Q300.558 1360.41 303.304 1359.77 M301.912 1353.78 Q301.912 1355.96 303.266 1357.18 Q304.639 1358.4 307.103 1358.4 Q309.548 1358.4 310.921 1357.18 Q312.313 1355.96 312.313 1353.78 Q312.313 1351.59 310.921 1350.37 Q309.548 1349.15 307.103 1349.15 Q304.639 1349.15 303.266 1350.37 Q301.912 1351.59 301.912 1353.78 Z" fill="#000000" fill-rule="nonzero" fill-opacity="1" /><path clip-path="url(#clip090)" d="M100.788 1134.88 L108.426 1134.88 L108.426 1108.51 L100.116 1110.18 L100.116 1105.92 L108.38 1104.25 L113.056 1104.25 L113.056 1134.88 L120.695 1134.88 L120.695 1138.81 L100.788 1138.81 L100.788 1134.88 Z" fill="#000000" fill-rule="nonzero" fill-opacity="1" /><path clip-path="url(#clip090)" d="M130.139 1132.93 L135.023 1132.93 L135.023 1138.81 L130.139 1138.81 L130.139 1132.93 Z" fill="#000000" fill-rule="nonzero" fill-opacity="1" /><path clip-path="url(#clip090)" d="M155.209 1107.33 Q151.597 1107.33 149.769 1110.9 Q147.963 1114.44 147.963 1121.57 Q147.963 1128.67 149.769 1132.24 Q151.597 1135.78 155.209 1135.78 Q158.843 1135.78 160.648 1132.24 Q162.477 1128.67 162.477 1121.57 Q162.477 1114.44 160.648 1110.9 Q158.843 1107.33 155.209 1107.33 M155.209 1103.63 Q161.019 1103.63 164.074 1108.23 Q167.153 1112.82 167.153 1121.57 Q167.153 1130.29 164.074 1134.9 Q161.019 1139.48 155.209 1139.48 Q149.398 1139.48 146.32 1134.9 Q143.264 1130.29 143.264 1121.57 Q143.264 1112.82 146.32 1108.23 Q149.398 1103.63 155.209 1103.63 Z" fill="#000000" fill-rule="nonzero" fill-opacity="1" /><path clip-path="url(#clip090)" d="M185.37 1107.33 Q181.759 1107.33 179.931 1110.9 Q178.125 1114.44 178.125 1121.57 Q178.125 1128.67 179.931 1132.24 Q181.759 1135.78 185.37 1135.78 Q189.005 1135.78 190.81 1132.24 Q192.639 1128.67 192.639 1121.57 Q192.639 1114.44 190.81 1110.9 Q189.005 1107.33 185.37 1107.33 M185.37 1103.63 Q191.181 1103.63 194.236 1108.23 Q197.315 1112.82 197.315 1121.57 Q197.315 1130.29 194.236 1134.9 Q191.181 1139.48 185.37 1139.48 Q179.56 1139.48 176.482 1134.9 Q173.426 1130.29 173.426 1121.57 Q173.426 1112.82 176.482 1108.23 Q179.56 1103.63 185.37 1103.63 Z" fill="#000000" fill-rule="nonzero" fill-opacity="1" /><path clip-path="url(#clip090)" d="M233.704 1113.35 L223.125 1123.97 L233.704 1134.55 L230.949 1137.35 L220.324 1126.73 L209.699 1137.35 L206.968 1134.55 L217.523 1123.97 L206.968 1113.35 L209.699 1110.55 L220.324 1121.17 L230.949 1110.55 L233.704 1113.35 Z" fill="#000000" fill-rule="nonzero" fill-opacity="1" /><path clip-path="url(#clip090)" d="M246.065 1134.88 L253.703 1134.88 L253.703 1108.51 L245.393 1110.18 L245.393 1105.92 L253.657 1104.25 L258.333 1104.25 L258.333 1134.88 L265.972 1134.88 L265.972 1138.81 L246.065 1138.81 L246.065 1134.88 Z" fill="#000000" fill-rule="nonzero" fill-opacity="1" /><path clip-path="url(#clip090)" d="M285.416 1107.33 Q281.805 1107.33 279.976 1110.9 Q278.171 1114.44 278.171 1121.57 Q278.171 1128.67 279.976 1132.24 Q281.805 1135.78 285.416 1135.78 Q289.05 1135.78 290.856 1132.24 Q292.685 1128.67 292.685 1121.57 Q292.685 1114.44 290.856 1110.9 Q289.05 1107.33 285.416 1107.33 M285.416 1103.63 Q291.226 1103.63 294.282 1108.23 Q297.361 1112.82 297.361 1121.57 Q297.361 1130.29 294.282 1134.9 Q291.226 1139.48 285.416 1139.48 Q279.606 1139.48 276.527 1134.9 Q273.472 1130.29 273.472 1121.57 Q273.472 1112.82 276.527 1108.23 Q279.606 1103.63 285.416 1103.63 Z" fill="#000000" fill-rule="nonzero" fill-opacity="1" /><path clip-path="url(#clip090)" d="M299.166 1110.82 L299.166 1107.36 Q300.596 1108.03 302.063 1108.39 Q303.53 1108.75 304.94 1108.75 Q308.702 1108.75 310.676 1106.23 Q312.67 1103.69 312.952 1098.54 Q311.861 1100.15 310.187 1101.02 Q308.514 1101.88 306.482 1101.88 Q302.269 1101.88 299.806 1099.35 Q297.361 1096.79 297.361 1092.37 Q297.361 1088.04 299.918 1085.43 Q302.476 1082.81 306.727 1082.81 Q311.598 1082.81 314.156 1086.56 Q316.733 1090.28 316.733 1097.39 Q316.733 1104.03 313.573 1108 Q310.432 1111.95 305.109 1111.95 Q303.68 1111.95 302.213 1111.66 Q300.746 1111.38 299.166 1110.82 M306.727 1098.91 Q309.285 1098.91 310.771 1097.16 Q312.275 1095.41 312.275 1092.37 Q312.275 1089.34 310.771 1087.59 Q309.285 1085.82 306.727 1085.82 Q304.169 1085.82 302.664 1087.59 Q301.179 1089.34 301.179 1092.37 Q301.179 1095.41 302.664 1097.16 Q304.169 1098.91 306.727 1098.91 Z" fill="#000000" fill-rule="nonzero" fill-opacity="1" /><path clip-path="url(#clip090)" d="M100.788 871.551 L108.426 871.551 L108.426 845.186 L100.116 846.852 L100.116 842.593 L108.38 840.926 L113.056 840.926 L113.056 871.551 L120.695 871.551 L120.695 875.486 L100.788 875.486 L100.788 871.551 Z" fill="#000000" fill-rule="nonzero" fill-opacity="1" /><path clip-path="url(#clip090)" d="M130.139 869.607 L135.023 869.607 L135.023 875.486 L130.139 875.486 L130.139 869.607 Z" fill="#000000" fill-rule="nonzero" fill-opacity="1" /><path clip-path="url(#clip090)" d="M145.255 840.926 L163.611 840.926 L163.611 844.862 L149.537 844.862 L149.537 853.334 Q150.556 852.987 151.574 852.825 Q152.593 852.639 153.611 852.639 Q159.398 852.639 162.778 855.811 Q166.158 858.982 166.158 864.399 Q166.158 869.977 162.685 873.079 Q159.213 876.158 152.894 876.158 Q150.718 876.158 148.449 875.787 Q146.204 875.417 143.797 874.676 L143.797 869.977 Q145.88 871.111 148.102 871.667 Q150.324 872.223 152.801 872.223 Q156.806 872.223 159.144 870.116 Q161.482 868.01 161.482 864.399 Q161.482 860.787 159.144 858.681 Q156.806 856.575 152.801 856.575 Q150.926 856.575 149.051 856.991 Q147.199 857.408 145.255 858.287 L145.255 840.926 Z" fill="#000000" fill-rule="nonzero" fill-opacity="1" /><path clip-path="url(#clip090)" d="M185.37 844.005 Q181.759 844.005 179.931 847.57 Q178.125 851.112 178.125 858.241 Q178.125 865.348 179.931 868.912 Q181.759 872.454 185.37 872.454 Q189.005 872.454 190.81 868.912 Q192.639 865.348 192.639 858.241 Q192.639 851.112 190.81 847.57 Q189.005 844.005 185.37 844.005 M185.37 840.301 Q191.181 840.301 194.236 844.908 Q197.315 849.491 197.315 858.241 Q197.315 866.968 194.236 871.574 Q191.181 876.158 185.37 876.158 Q179.56 876.158 176.482 871.574 Q173.426 866.968 173.426 858.241 Q173.426 849.491 176.482 844.908 Q179.56 840.301 185.37 840.301 Z" fill="#000000" fill-rule="nonzero" fill-opacity="1" /><path clip-path="url(#clip090)" d="M233.704 850.024 L223.125 860.649 L233.704 871.227 L230.949 874.028 L220.324 863.403 L209.699 874.028 L206.968 871.227 L217.523 860.649 L206.968 850.024 L209.699 847.223 L220.324 857.848 L230.949 847.223 L233.704 850.024 Z" fill="#000000" fill-rule="nonzero" fill-opacity="1" /><path clip-path="url(#clip090)" d="M246.065 871.551 L253.703 871.551 L253.703 845.186 L245.393 846.852 L245.393 842.593 L253.657 840.926 L258.333 840.926 L258.333 871.551 L265.972 871.551 L265.972 875.486 L246.065 875.486 L246.065 871.551 Z" fill="#000000" fill-rule="nonzero" fill-opacity="1" /><path clip-path="url(#clip090)" d="M285.416 844.005 Q281.805 844.005 279.976 847.57 Q278.171 851.112 278.171 858.241 Q278.171 865.348 279.976 868.912 Q281.805 872.454 285.416 872.454 Q289.05 872.454 290.856 868.912 Q292.685 865.348 292.685 858.241 Q292.685 851.112 290.856 847.57 Q289.05 844.005 285.416 844.005 M285.416 840.301 Q291.226 840.301 294.282 844.908 Q297.361 849.491 297.361 858.241 Q297.361 866.968 294.282 871.574 Q291.226 876.158 285.416 876.158 Q279.606 876.158 276.527 871.574 Q273.472 866.968 273.472 858.241 Q273.472 849.491 276.527 844.908 Q279.606 840.301 285.416 840.301 Z" fill="#000000" fill-rule="nonzero" fill-opacity="1" /><path clip-path="url(#clip090)" d="M299.166 847.493 L299.166 844.032 Q300.596 844.709 302.063 845.067 Q303.53 845.424 304.94 845.424 Q308.702 845.424 310.676 842.904 Q312.67 840.365 312.952 835.212 Q311.861 836.829 310.187 837.694 Q308.514 838.559 306.482 838.559 Q302.269 838.559 299.806 836.02 Q297.361 833.462 297.361 829.043 Q297.361 824.717 299.918 822.103 Q302.476 819.488 306.727 819.488 Q311.598 819.488 314.156 823.231 Q316.733 826.955 316.733 834.064 Q316.733 840.703 313.573 844.672 Q310.432 848.621 305.109 848.621 Q303.68 848.621 302.213 848.339 Q300.746 848.057 299.166 847.493 M306.727 835.588 Q309.285 835.588 310.771 833.839 Q312.275 832.089 312.275 829.043 Q312.275 826.015 310.771 824.265 Q309.285 822.497 306.727 822.497 Q304.169 822.497 302.664 824.265 Q301.179 826.015 301.179 829.043 Q301.179 832.089 302.664 833.839 Q304.169 835.588 306.727 835.588 Z" fill="#000000" fill-rule="nonzero" fill-opacity="1" /><path clip-path="url(#clip090)" d="M104.005 608.226 L120.324 608.226 L120.324 612.161 L98.3802 612.161 L98.3802 608.226 Q101.042 605.471 105.625 600.842 Q110.232 596.189 111.412 594.846 Q113.658 592.323 114.537 590.587 Q115.44 588.828 115.44 587.138 Q115.44 584.383 113.496 582.647 Q111.575 580.911 108.473 580.911 Q106.274 580.911 103.82 581.675 Q101.389 582.439 98.6116 583.99 L98.6116 579.268 Q101.436 578.133 103.889 577.555 Q106.343 576.976 108.38 576.976 Q113.75 576.976 116.945 579.661 Q120.139 582.346 120.139 586.837 Q120.139 588.967 119.329 590.888 Q118.542 592.786 116.436 595.379 Q115.857 596.05 112.755 599.268 Q109.653 602.462 104.005 608.226 Z" fill="#000000" fill-rule="nonzero" fill-opacity="1" /><path clip-path="url(#clip090)" d="M130.139 606.281 L135.023 606.281 L135.023 612.161 L130.139 612.161 L130.139 606.281 Z" fill="#000000" fill-rule="nonzero" fill-opacity="1" /><path clip-path="url(#clip090)" d="M155.209 580.68 Q151.597 580.68 149.769 584.244 Q147.963 587.786 147.963 594.916 Q147.963 602.022 149.769 605.587 Q151.597 609.129 155.209 609.129 Q158.843 609.129 160.648 605.587 Q162.477 602.022 162.477 594.916 Q162.477 587.786 160.648 584.244 Q158.843 580.68 155.209 580.68 M155.209 576.976 Q161.019 576.976 164.074 581.582 Q167.153 586.166 167.153 594.916 Q167.153 603.643 164.074 608.249 Q161.019 612.832 155.209 612.832 Q149.398 612.832 146.32 608.249 Q143.264 603.643 143.264 594.916 Q143.264 586.166 146.32 581.582 Q149.398 576.976 155.209 576.976 Z" fill="#000000" fill-rule="nonzero" fill-opacity="1" /><path clip-path="url(#clip090)" d="M185.37 580.68 Q181.759 580.68 179.931 584.244 Q178.125 587.786 178.125 594.916 Q178.125 602.022 179.931 605.587 Q181.759 609.129 185.37 609.129 Q189.005 609.129 190.81 605.587 Q192.639 602.022 192.639 594.916 Q192.639 587.786 190.81 584.244 Q189.005 580.68 185.37 580.68 M185.37 576.976 Q191.181 576.976 194.236 581.582 Q197.315 586.166 197.315 594.916 Q197.315 603.643 194.236 608.249 Q191.181 612.832 185.37 612.832 Q179.56 612.832 176.482 608.249 Q173.426 603.643 173.426 594.916 Q173.426 586.166 176.482 581.582 Q179.56 576.976 185.37 576.976 Z" fill="#000000" fill-rule="nonzero" fill-opacity="1" /><path clip-path="url(#clip090)" d="M233.704 586.698 L223.125 597.323 L233.704 607.902 L230.949 610.703 L220.324 600.078 L209.699 610.703 L206.968 607.902 L217.523 597.323 L206.968 586.698 L209.699 583.897 L220.324 594.522 L230.949 583.897 L233.704 586.698 Z" fill="#000000" fill-rule="nonzero" fill-opacity="1" /><path clip-path="url(#clip090)" d="M246.065 608.226 L253.703 608.226 L253.703 581.86 L245.393 583.527 L245.393 579.268 L253.657 577.601 L258.333 577.601 L258.333 608.226 L265.972 608.226 L265.972 612.161 L246.065 612.161 L246.065 608.226 Z" fill="#000000" fill-rule="nonzero" fill-opacity="1" /><path clip-path="url(#clip090)" d="M285.416 580.68 Q281.805 580.68 279.976 584.244 Q278.171 587.786 278.171 594.916 Q278.171 602.022 279.976 605.587 Q281.805 609.129 285.416 609.129 Q289.05 609.129 290.856 605.587 Q292.685 602.022 292.685 594.916 Q292.685 587.786 290.856 584.244 Q289.05 580.68 285.416 580.68 M285.416 576.976 Q291.226 576.976 294.282 581.582 Q297.361 586.166 297.361 594.916 Q297.361 603.643 294.282 608.249 Q291.226 612.832 285.416 612.832 Q279.606 612.832 276.527 608.249 Q273.472 603.643 273.472 594.916 Q273.472 586.166 276.527 581.582 Q279.606 576.976 285.416 576.976 Z" fill="#000000" fill-rule="nonzero" fill-opacity="1" /><path clip-path="url(#clip090)" d="M299.166 584.168 L299.166 580.707 Q300.596 581.384 302.063 581.741 Q303.53 582.099 304.94 582.099 Q308.702 582.099 310.676 579.578 Q312.67 577.039 312.952 571.886 Q311.861 573.504 310.187 574.369 Q308.514 575.234 306.482 575.234 Q302.269 575.234 299.806 572.695 Q297.361 570.137 297.361 565.717 Q297.361 561.391 299.918 558.777 Q302.476 556.163 306.727 556.163 Q311.598 556.163 314.156 559.906 Q316.733 563.629 316.733 570.739 Q316.733 577.378 313.573 581.346 Q310.432 585.296 305.109 585.296 Q303.68 585.296 302.213 585.014 Q300.746 584.732 299.166 584.168 M306.727 572.262 Q309.285 572.262 310.771 570.513 Q312.275 568.764 312.275 565.717 Q312.275 562.689 310.771 560.94 Q309.285 559.172 306.727 559.172 Q304.169 559.172 302.664 560.94 Q301.179 562.689 301.179 565.717 Q301.179 568.764 302.664 570.513 Q304.169 572.262 306.727 572.262 Z" fill="#000000" fill-rule="nonzero" fill-opacity="1" /><path clip-path="url(#clip090)" d="M104.005 344.9 L120.324 344.9 L120.324 348.836 L98.3802 348.836 L98.3802 344.9 Q101.042 342.146 105.625 337.516 Q110.232 332.863 111.412 331.521 Q113.658 328.998 114.537 327.262 Q115.44 325.502 115.44 323.813 Q115.44 321.058 113.496 319.322 Q111.575 317.586 108.473 317.586 Q106.274 317.586 103.82 318.35 Q101.389 319.113 98.6116 320.664 L98.6116 315.942 Q101.436 314.808 103.889 314.229 Q106.343 313.651 108.38 313.651 Q113.75 313.651 116.945 316.336 Q120.139 319.021 120.139 323.512 Q120.139 325.641 119.329 327.562 Q118.542 329.461 116.436 332.053 Q115.857 332.725 112.755 335.942 Q109.653 339.137 104.005 344.9 Z" fill="#000000" fill-rule="nonzero" fill-opacity="1" /><path clip-path="url(#clip090)" d="M130.139 342.956 L135.023 342.956 L135.023 348.836 L130.139 348.836 L130.139 342.956 Z" fill="#000000" fill-rule="nonzero" fill-opacity="1" /><path clip-path="url(#clip090)" d="M145.255 314.276 L163.611 314.276 L163.611 318.211 L149.537 318.211 L149.537 326.683 Q150.556 326.336 151.574 326.174 Q152.593 325.988 153.611 325.988 Q159.398 325.988 162.778 329.16 Q166.158 332.331 166.158 337.748 Q166.158 343.326 162.685 346.428 Q159.213 349.507 152.894 349.507 Q150.718 349.507 148.449 349.136 Q146.204 348.766 143.797 348.025 L143.797 343.326 Q145.88 344.461 148.102 345.016 Q150.324 345.572 152.801 345.572 Q156.806 345.572 159.144 343.465 Q161.482 341.359 161.482 337.748 Q161.482 334.137 159.144 332.03 Q156.806 329.924 152.801 329.924 Q150.926 329.924 149.051 330.34 Q147.199 330.757 145.255 331.637 L145.255 314.276 Z" fill="#000000" fill-rule="nonzero" fill-opacity="1" /><path clip-path="url(#clip090)" d="M185.37 317.354 Q181.759 317.354 179.931 320.919 Q178.125 324.461 178.125 331.59 Q178.125 338.697 179.931 342.261 Q181.759 345.803 185.37 345.803 Q189.005 345.803 190.81 342.261 Q192.639 338.697 192.639 331.59 Q192.639 324.461 190.81 320.919 Q189.005 317.354 185.37 317.354 M185.37 313.651 Q191.181 313.651 194.236 318.257 Q197.315 322.84 197.315 331.59 Q197.315 340.317 194.236 344.924 Q191.181 349.507 185.37 349.507 Q179.56 349.507 176.482 344.924 Q173.426 340.317 173.426 331.59 Q173.426 322.84 176.482 318.257 Q179.56 313.651 185.37 313.651 Z" fill="#000000" fill-rule="nonzero" fill-opacity="1" /><path clip-path="url(#clip090)" d="M233.704 323.373 L223.125 333.998 L233.704 344.576 L230.949 347.377 L220.324 336.752 L209.699 347.377 L206.968 344.576 L217.523 333.998 L206.968 323.373 L209.699 320.572 L220.324 331.197 L230.949 320.572 L233.704 323.373 Z" fill="#000000" fill-rule="nonzero" fill-opacity="1" /><path clip-path="url(#clip090)" d="M246.065 344.9 L253.703 344.9 L253.703 318.535 L245.393 320.201 L245.393 315.942 L253.657 314.276 L258.333 314.276 L258.333 344.9 L265.972 344.9 L265.972 348.836 L246.065 348.836 L246.065 344.9 Z" fill="#000000" fill-rule="nonzero" fill-opacity="1" /><path clip-path="url(#clip090)" d="M285.416 317.354 Q281.805 317.354 279.976 320.919 Q278.171 324.461 278.171 331.59 Q278.171 338.697 279.976 342.261 Q281.805 345.803 285.416 345.803 Q289.05 345.803 290.856 342.261 Q292.685 338.697 292.685 331.59 Q292.685 324.461 290.856 320.919 Q289.05 317.354 285.416 317.354 M285.416 313.651 Q291.226 313.651 294.282 318.257 Q297.361 322.84 297.361 331.59 Q297.361 340.317 294.282 344.924 Q291.226 349.507 285.416 349.507 Q279.606 349.507 276.527 344.924 Q273.472 340.317 273.472 331.59 Q273.472 322.84 276.527 318.257 Q279.606 313.651 285.416 313.651 Z" fill="#000000" fill-rule="nonzero" fill-opacity="1" /><path clip-path="url(#clip090)" d="M299.166 320.842 L299.166 317.381 Q300.596 318.059 302.063 318.416 Q303.53 318.773 304.94 318.773 Q308.702 318.773 310.676 316.253 Q312.67 313.714 312.952 308.561 Q311.861 310.178 310.187 311.043 Q308.514 311.908 306.482 311.908 Q302.269 311.908 299.806 309.369 Q297.361 306.811 297.361 302.392 Q297.361 298.066 299.918 295.452 Q302.476 292.837 306.727 292.837 Q311.598 292.837 314.156 296.58 Q316.733 300.304 316.733 307.413 Q316.733 314.052 313.573 318.021 Q310.432 321.971 305.109 321.971 Q303.68 321.971 302.213 321.688 Q300.746 321.406 299.166 320.842 M306.727 308.937 Q309.285 308.937 310.771 307.188 Q312.275 305.439 312.275 302.392 Q312.275 299.364 310.771 297.614 Q309.285 295.847 306.727 295.847 Q304.169 295.847 302.664 297.614 Q301.179 299.364 301.179 302.392 Q301.179 305.439 302.664 307.188 Q304.169 308.937 306.727 308.937 Z" fill="#000000" fill-rule="nonzero" fill-opacity="1" /><path clip-path="url(#clip090)" d="M114.144 66.8759 Q117.5 67.5935 119.375 69.862 Q121.274 72.1305 121.274 75.4638 Q121.274 80.5795 117.755 83.3804 Q114.237 86.1813 107.755 86.1813 Q105.579 86.1813 103.264 85.7415 Q100.973 85.3249 98.519 84.4684 L98.519 79.9545 Q100.463 81.0888 102.778 81.6675 Q105.093 82.2462 107.616 82.2462 Q112.014 82.2462 114.306 80.5101 Q116.621 78.774 116.621 75.4638 Q116.621 72.4083 114.468 70.6953 Q112.338 68.9592 108.519 68.9592 L104.491 68.9592 L104.491 65.1166 L108.704 65.1166 Q112.153 65.1166 113.982 63.7509 Q115.811 62.362 115.811 59.7695 Q115.811 57.1074 113.912 55.6954 Q112.037 54.2602 108.519 54.2602 Q106.598 54.2602 104.399 54.6769 Q102.2 55.0936 99.5607 55.9732 L99.5607 51.8065 Q102.223 51.0658 104.538 50.6954 Q106.875 50.3251 108.936 50.3251 Q114.26 50.3251 117.362 52.7556 Q120.463 55.163 120.463 59.2833 Q120.463 62.1537 118.82 64.1444 Q117.176 66.112 114.144 66.8759 Z" fill="#000000" fill-rule="nonzero" fill-opacity="1" /><path clip-path="url(#clip090)" d="M130.139 79.6305 L135.023 79.6305 L135.023 85.5101 L130.139 85.5101 L130.139 79.6305 Z" fill="#000000" fill-rule="nonzero" fill-opacity="1" /><path clip-path="url(#clip090)" d="M155.209 54.0287 Q151.597 54.0287 149.769 57.5935 Q147.963 61.1352 147.963 68.2648 Q147.963 75.3712 149.769 78.936 Q151.597 82.4777 155.209 82.4777 Q158.843 82.4777 160.648 78.936 Q162.477 75.3712 162.477 68.2648 Q162.477 61.1352 160.648 57.5935 Q158.843 54.0287 155.209 54.0287 M155.209 50.3251 Q161.019 50.3251 164.074 54.9315 Q167.153 59.5148 167.153 68.2648 Q167.153 76.9916 164.074 81.598 Q161.019 86.1813 155.209 86.1813 Q149.398 86.1813 146.32 81.598 Q143.264 76.9916 143.264 68.2648 Q143.264 59.5148 146.32 54.9315 Q149.398 50.3251 155.209 50.3251 Z" fill="#000000" fill-rule="nonzero" fill-opacity="1" /><path clip-path="url(#clip090)" d="M185.37 54.0287 Q181.759 54.0287 179.931 57.5935 Q178.125 61.1352 178.125 68.2648 Q178.125 75.3712 179.931 78.936 Q181.759 82.4777 185.37 82.4777 Q189.005 82.4777 190.81 78.936 Q192.639 75.3712 192.639 68.2648 Q192.639 61.1352 190.81 57.5935 Q189.005 54.0287 185.37 54.0287 M185.37 50.3251 Q191.181 50.3251 194.236 54.9315 Q197.315 59.5148 197.315 68.2648 Q197.315 76.9916 194.236 81.598 Q191.181 86.1813 185.37 86.1813 Q179.56 86.1813 176.482 81.598 Q173.426 76.9916 173.426 68.2648 Q173.426 59.5148 176.482 54.9315 Q179.56 50.3251 185.37 50.3251 Z" fill="#000000" fill-rule="nonzero" fill-opacity="1" /><path clip-path="url(#clip090)" d="M233.704 60.0472 L223.125 70.6722 L233.704 81.2508 L230.949 84.0517 L220.324 73.4268 L209.699 84.0517 L206.968 81.2508 L217.523 70.6722 L206.968 60.0472 L209.699 57.2463 L220.324 67.8713 L230.949 57.2463 L233.704 60.0472 Z" fill="#000000" fill-rule="nonzero" fill-opacity="1" /><path clip-path="url(#clip090)" d="M246.065 81.5749 L253.703 81.5749 L253.703 55.2093 L245.393 56.876 L245.393 52.6167 L253.657 50.9501 L258.333 50.9501 L258.333 81.5749 L265.972 81.5749 L265.972 85.5101 L246.065 85.5101 L246.065 81.5749 Z" fill="#000000" fill-rule="nonzero" fill-opacity="1" /><path clip-path="url(#clip090)" d="M285.416 54.0287 Q281.805 54.0287 279.976 57.5935 Q278.171 61.1352 278.171 68.2648 Q278.171 75.3712 279.976 78.936 Q281.805 82.4777 285.416 82.4777 Q289.05 82.4777 290.856 78.936 Q292.685 75.3712 292.685 68.2648 Q292.685 61.1352 290.856 57.5935 Q289.05 54.0287 285.416 54.0287 M285.416 50.3251 Q291.226 50.3251 294.282 54.9315 Q297.361 59.5148 297.361 68.2648 Q297.361 76.9916 294.282 81.598 Q291.226 86.1813 285.416 86.1813 Q279.606 86.1813 276.527 81.598 Q273.472 76.9916 273.472 68.2648 Q273.472 59.5148 276.527 54.9315 Q279.606 50.3251 285.416 50.3251 Z" fill="#000000" fill-rule="nonzero" fill-opacity="1" /><path clip-path="url(#clip090)" d="M299.166 57.5166 L299.166 54.056 Q300.596 54.7331 302.063 55.0904 Q303.53 55.4478 304.94 55.4478 Q308.702 55.4478 310.676 52.9275 Q312.67 50.3885 312.952 45.2351 Q311.861 46.8526 310.187 47.7178 Q308.514 48.5829 306.482 48.5829 Q302.269 48.5829 299.806 46.0439 Q297.361 43.486 297.361 39.0662 Q297.361 34.7404 299.918 32.1261 Q302.476 29.5118 306.727 29.5118 Q311.598 29.5118 314.156 33.2546 Q316.733 36.9785 316.733 44.0879 Q316.733 50.727 313.573 54.6955 Q310.432 58.6451 305.109 58.6451 Q303.68 58.6451 302.213 58.363 Q300.746 58.0808 299.166 57.5166 M306.727 45.6113 Q309.285 45.6113 310.771 43.8622 Q312.275 42.1131 312.275 39.0662 Q312.275 36.0381 310.771 34.289 Q309.285 32.5211 306.727 32.5211 Q304.169 32.5211 302.664 34.289 Q301.179 36.0381 301.179 39.0662 Q301.179 42.1131 302.664 43.8622 Q304.169 45.6113 306.727 45.6113 Z" fill="#000000" fill-rule="nonzero" fill-opacity="1" /><path clip-path="url(#clip090)" d="M-9.64527 840.632 L0.4762 840.632 L0.4762 828.569 L5.02768 828.569 L5.02768 840.632 L24.3794 840.632 Q28.7399 840.632 29.9813 839.454 Q31.2226 838.245 31.2226 834.584 L31.2226 828.569 L36.1242 828.569 L36.1242 834.584 Q36.1242 841.364 33.6097 843.942 Q31.0634 846.52 24.3794 846.52 L5.02768 846.52 L5.02768 850.817 L0.4762 850.817 L0.4762 846.52 L-9.64527 846.52 L-9.64527 840.632 Z" fill="#000000" fill-rule="nonzero" fill-opacity="1" /><path clip-path="url(#clip090)" d="M-11.3958 789.738 L-11.3958 784.327 L42.1716 800.878 L42.1716 806.289 L-11.3958 789.738 Z" fill="#000000" fill-rule="nonzero" fill-opacity="1" /><path clip-path="url(#clip090)" d="M14.6081 727.831 L36.1242 727.831 L36.1242 733.688 L14.799 733.688 Q9.7383 733.688 7.22385 735.661 Q4.7094 737.635 4.7094 741.581 Q4.7094 746.324 7.73311 749.061 Q10.7568 751.798 15.9767 751.798 L36.1242 751.798 L36.1242 757.687 L0.4762 757.687 L0.4762 751.798 L6.01437 751.798 Q2.79968 749.698 1.20826 746.865 Q-0.38317 744 -0.38317 740.276 Q-0.38317 734.133 3.43625 730.982 Q7.22385 727.831 14.6081 727.831 Z" fill="#000000" fill-rule="nonzero" fill-opacity="1" /><path clip-path="url(#clip090)" d="M1.52654 693.425 L7.06471 693.425 Q5.79157 695.907 5.15499 698.581 Q4.51842 701.255 4.51842 704.119 Q4.51842 708.48 5.85522 710.676 Q7.19202 712.84 9.86562 712.84 Q11.9026 712.84 13.0803 711.281 Q14.2261 709.721 15.2765 705.01 L15.7221 703.005 Q17.0589 696.767 19.5097 694.157 Q21.9286 691.515 26.2891 691.515 Q31.2544 691.515 34.1508 695.462 Q37.0472 699.377 37.0472 706.252 Q37.0472 709.116 36.4743 712.235 Q35.9332 715.323 34.8192 718.76 L28.7718 718.76 Q30.4587 715.514 31.318 712.363 Q32.1456 709.212 32.1456 706.124 Q32.1456 701.987 30.7451 699.759 Q29.3129 697.531 26.7347 697.531 Q24.3476 697.531 23.0745 699.154 Q21.8013 700.745 20.6237 706.188 L20.1462 708.225 Q19.0004 713.668 16.6451 716.087 Q14.258 718.506 10.1202 718.506 Q5.09134 718.506 2.35408 714.941 Q-0.38317 711.376 -0.38317 704.819 Q-0.38317 701.573 0.0942579 698.708 Q0.571686 695.844 1.52654 693.425 Z" fill="#000000" fill-rule="nonzero" fill-opacity="1" /><path clip-path="url(#clip091)" d="M1001.42 1454.11 L1006.5 1453.8 L1011.04 1453.48 L1015.02 1453.16 L1018.46 1452.85 L1021.36 1452.53 L1023.72 1452.22 L1025.56 1451.9 L1026.9 1451.58 L1027.74 1451.27 L1028.13 1450.95 L1028.08 1450.64 L1027.61 1450.32 L1026.75 1450.01 L1025.53 1449.69 L1023.96 1449.37 L1022.08 1449.06 L1019.91 1448.74 L1017.47 1448.43 L1014.77 1448.11 L1011.83 1447.79 L1008.67 1447.48 L1005.31 1447.16 L1001.75 1446.85 L998.005 1446.53 L994.093 1446.21 L990.02 1445.9 L985.798 1445.58 L981.437 1445.27 L976.948 1444.95 L972.346 1444.64 L967.642 1444.32 L962.853 1444 L957.996 1443.69 L953.089 1443.37 L948.151 1443.06 L943.205 1442.74 L938.273 1442.42 L933.379 1442.11 L928.548 1441.79 L923.804 1441.48 L919.171 1441.16 L914.674 1440.85 L910.335 1440.53 L906.174 1440.21 L902.21 1439.9 L898.459 1439.58 L894.933 1439.27 L891.642 1438.95 L888.59 1438.63 L885.778 1438.32 L883.203 1438 L880.857 1437.69 L878.729 1437.37 L876.802 1437.06 L875.057 1436.74 L873.47 1436.42 L872.016 1436.11 L870.667 1435.79 L869.391 1435.48 L868.157 1435.16 L866.934 1434.84 L865.689 1434.53 L864.39 1434.21 L863.01 1433.9 L861.518 1433.58 L859.892 1433.26 L858.109 1432.95 L613.66 1432.95 L611.877 1433.26 L610.251 1433.58 L608.76 1433.9 L607.379 1434.21 L606.08 1434.53 L604.835 1434.84 L603.612 1435.16 L602.378 1435.48 L601.102 1435.79 L599.753 1436.11 L598.299 1436.42 L596.712 1436.74 L594.967 1437.06 L593.04 1437.37 L590.912 1437.69 L588.566 1438 L585.991 1438.32 L583.179 1438.63 L580.127 1438.95 L576.836 1439.27 L573.31 1439.58 L569.559 1439.9 L565.595 1440.21 L561.434 1440.53 L557.095 1440.85 L552.598 1441.16 L547.965 1441.48 L543.221 1441.79 L538.39 1442.11 L533.496 1442.42 L528.564 1442.74 L523.618 1443.06 L518.681 1443.37 L513.773 1443.69 L508.916 1444 L504.127 1444.32 L499.423 1444.64 L494.821 1444.95 L490.332 1445.27 L485.971 1445.58 L481.749 1445.9 L477.676 1446.21 L473.764 1446.53 L470.023 1446.85 L466.464 1447.16 L463.099 1447.48 L459.941 1447.79 L457.003 1448.11 L454.303 1448.43 L451.857 1448.74 L449.684 1449.06 L447.805 1449.37 L446.243 1449.69 L445.02 1450.01 L444.161 1450.32 L443.693 1450.64 L443.639 1450.95 L444.025 1451.27 L444.874 1451.58 L446.208 1451.9 L448.047 1452.22 L450.409 1452.53 L453.305 1452.85 L456.745 1453.16 L460.734 1453.48 L465.271 1453.8 L470.35 1454.11 L1001.42 1454.11  Z" fill="#009af9" fill-rule="evenodd" fill-opacity="1"/>
<polyline clip-path="url(#clip091)" style="stroke:#000000; stroke-linecap:round; stroke-linejoin:round; stroke-width:4; stroke-opacity:1; fill:none" points="1001.42,1454.11 1006.5,1453.8 1011.04,1453.48 1015.02,1453.16 1018.46,1452.85 1021.36,1452.53 1023.72,1452.22 1025.56,1451.9 1026.9,1451.58 1027.74,1451.27 1028.13,1450.95 1028.08,1450.64 1027.61,1450.32 1026.75,1450.01 1025.53,1449.69 1023.96,1449.37 1022.08,1449.06 1019.91,1448.74 1017.47,1448.43 1014.77,1448.11 1011.83,1447.79 1008.67,1447.48 1005.31,1447.16 1001.75,1446.85 998.005,1446.53 994.093,1446.21 990.02,1445.9 985.798,1445.58 981.437,1445.27 976.948,1444.95 972.346,1444.64 967.642,1444.32 962.853,1444 957.996,1443.69 953.089,1443.37 948.151,1443.06 943.205,1442.74 938.273,1442.42 933.379,1442.11 928.548,1441.79 923.804,1441.48 919.171,1441.16 914.674,1440.85 910.335,1440.53 906.174,1440.21 902.21,1439.9 898.459,1439.58 894.933,1439.27 891.642,1438.95 888.59,1438.63 885.778,1438.32 883.203,1438 880.857,1437.69 878.729,1437.37 876.802,1437.06 875.057,1436.74 873.47,1436.42 872.016,1436.11 870.667,1435.79 869.391,1435.48 868.157,1435.16 866.934,1434.84 865.689,1434.53 864.39,1434.21 863.01,1433.9 861.518,1433.58 859.892,1433.26 858.109,1432.95 613.66,1432.95 611.877,1433.26 610.251,1433.58 608.76,1433.9 607.379,1434.21 606.08,1434.53 604.835,1434.84 603.612,1435.16 602.378,1435.48 601.102,1435.79 599.753,1436.11 598.299,1436.42 596.712,1436.74 594.967,1437.06 593.04,1437.37 590.912,1437.69 588.566,1438 585.991,1438.32 583.179,1438.63 580.127,1438.95 576.836,1439.27 573.31,1439.58 569.559,1439.9 565.595,1440.21 561.434,1440.53 557.095,1440.85 552.598,1441.16 547.965,1441.48 543.221,1441.79 538.39,1442.11 533.496,1442.42 528.564,1442.74 523.618,1443.06 518.681,1443.37 513.773,1443.69 508.916,1444 504.127,1444.32 499.423,1444.64 494.821,1444.95 490.332,1445.27 485.971,1445.58 481.749,1445.9 477.676,1446.21 473.764,1446.53 470.023,1446.85 466.464,1447.16 463.099,1447.48 459.941,1447.79 457.003,1448.11 454.303,1448.43 451.857,1448.74 449.684,1449.06 447.805,1449.37 446.243,1449.69 445.02,1450.01 444.161,1450.32 443.693,1450.64 443.639,1450.95 444.025,1451.27 444.874,1451.58 446.208,1451.9 448.047,1452.22 450.409,1452.53 453.305,1452.85 456.745,1453.16 460.734,1453.48 465.271,1453.8 470.35,1454.11 1001.42,1454.11 "/>
<path clip-path="url(#clip091)" d="M1982.27 434.047 L1991.08 433.925 L1999.5 433.804 L2007.49 433.682 L2014.96 433.561 L2021.87 433.439 L2028.16 433.317 L2033.77 433.196 L2038.66 433.074 L2042.77 432.952 L2046.09 432.831 L2048.57 432.709 L2050.21 432.588 L2050.99 432.466 L2050.91 432.344 L2050 432.223 L2048.26 432.101 L2045.75 431.979 L2042.5 431.858 L2038.56 431.736 L2034.01 431.615 L2028.92 431.493 L2023.36 431.371 L2017.41 431.25 L2011.16 431.128 L2004.7 431.007 L1998.1 430.885 L1991.45 430.763 L1984.81 430.642 L1978.25 430.52 L1971.83 430.398 L1965.59 430.277 L1959.57 430.155 L1953.8 430.034 L1948.28 429.912 L1943.02 429.79 L1938.02 429.669 L1933.26 429.547 L1928.71 429.425 L1924.34 429.304 L1920.13 429.182 L1916.04 429.061 L1912.03 428.939 L1908.06 428.817 L1904.11 428.696 L1900.15 428.574 L1896.16 428.452 L1892.12 428.331 L1888.03 428.209 L1883.89 428.088 L1879.7 427.966 L1875.5 427.844 L1871.3 427.723 L1867.13 427.601 L1863.04 427.479 L1859.06 427.358 L1855.24 427.236 L1851.62 427.115 L1848.26 426.993 L1845.2 426.871 L1842.49 426.75 L1840.15 426.628 L1838.23 426.507 L1836.76 426.385 L1835.74 426.263 L1835.2 426.142 L1835.13 426.02 L1835.53 425.898 L1836.39 425.777 L1837.66 425.655 L1839.33 425.534 L1841.35 425.412 L1843.67 425.29 L1846.22 425.169 L1848.96 425.047 L1851.8 424.925 L1854.69 424.804 L1857.55 424.682 L1860.32 424.561 L1862.91 424.439 L1865.27 424.317 L1867.34 424.196 L1869.05 424.074 L1870.37 423.952 L1871.25 423.831 L1871.65 423.709 L1645.84 423.709 L1646.24 423.831 L1647.12 423.952 L1648.44 424.074 L1650.15 424.196 L1652.22 424.317 L1654.58 424.439 L1657.17 424.561 L1659.93 424.682 L1662.8 424.804 L1665.69 424.925 L1668.53 425.047 L1671.27 425.169 L1673.82 425.29 L1676.14 425.412 L1678.16 425.534 L1679.82 425.655 L1681.1 425.777 L1681.95 425.898 L1682.36 426.02 L1682.29 426.142 L1681.75 426.263 L1680.73 426.385 L1679.25 426.507 L1677.34 426.628 L1675 426.75 L1672.28 426.871 L1669.22 426.993 L1665.86 427.115 L1662.25 427.236 L1658.43 427.358 L1654.45 427.479 L1650.36 427.601 L1646.19 427.723 L1641.99 427.844 L1637.78 427.966 L1633.6 428.088 L1629.46 428.209 L1625.37 428.331 L1621.33 428.452 L1617.34 428.574 L1613.38 428.696 L1609.43 428.817 L1605.46 428.939 L1601.45 429.061 L1597.36 429.182 L1593.14 429.304 L1588.78 429.425 L1584.23 429.547 L1579.47 429.669 L1574.46 429.79 L1569.21 429.912 L1563.69 430.034 L1557.92 430.155 L1551.9 430.277 L1545.66 430.398 L1539.24 430.52 L1532.68 430.642 L1526.04 430.763 L1519.39 430.885 L1512.79 431.007 L1506.32 431.128 L1500.08 431.25 L1494.13 431.371 L1488.57 431.493 L1483.48 431.615 L1478.93 431.736 L1474.99 431.858 L1471.74 431.979 L1469.22 432.101 L1467.49 432.223 L1466.57 432.344 L1466.5 432.466 L1467.28 432.588 L1468.91 432.709 L1471.4 432.831 L1474.71 432.952 L1478.83 433.074 L1483.72 433.196 L1489.33 433.317 L1495.62 433.439 L1502.53 433.561 L1510 433.682 L1517.98 433.804 L1526.41 433.925 L1535.21 434.047 L1982.27 434.047  Z" fill="#e26f46" fill-rule="evenodd" fill-opacity="1"/>
<polyline clip-path="url(#clip091)" style="stroke:#000000; stroke-linecap:round; stroke-linejoin:round; stroke-width:4; stroke-opacity:1; fill:none" points="1982.27,434.047 1991.08,433.925 1999.5,433.804 2007.49,433.682 2014.96,433.561 2021.87,433.439 2028.16,433.317 2033.77,433.196 2038.66,433.074 2042.77,432.952 2046.09,432.831 2048.57,432.709 2050.21,432.588 2050.99,432.466 2050.91,432.344 2050,432.223 2048.26,432.101 2045.75,431.979 2042.5,431.858 2038.56,431.736 2034.01,431.615 2028.92,431.493 2023.36,431.371 2017.41,431.25 2011.16,431.128 2004.7,431.007 1998.1,430.885 1991.45,430.763 1984.81,430.642 1978.25,430.52 1971.83,430.398 1965.59,430.277 1959.57,430.155 1953.8,430.034 1948.28,429.912 1943.02,429.79 1938.02,429.669 1933.26,429.547 1928.71,429.425 1924.34,429.304 1920.13,429.182 1916.04,429.061 1912.03,428.939 1908.06,428.817 1904.11,428.696 1900.15,428.574 1896.16,428.452 1892.12,428.331 1888.03,428.209 1883.89,428.088 1879.7,427.966 1875.5,427.844 1871.3,427.723 1867.13,427.601 1863.04,427.479 1859.06,427.358 1855.24,427.236 1851.62,427.115 1848.26,426.993 1845.2,426.871 1842.49,426.75 1840.15,426.628 1838.23,426.507 1836.76,426.385 1835.74,426.263 1835.2,426.142 1835.13,426.02 1835.53,425.898 1836.39,425.777 1837.66,425.655 1839.33,425.534 1841.35,425.412 1843.67,425.29 1846.22,425.169 1848.96,425.047 1851.8,424.925 1854.69,424.804 1857.55,424.682 1860.32,424.561 1862.91,424.439 1865.27,424.317 1867.34,424.196 1869.05,424.074 1870.37,423.952 1871.25,423.831 1871.65,423.709 1645.84,423.709 1646.24,423.831 1647.12,423.952 1648.44,424.074 1650.15,424.196 1652.22,424.317 1654.58,424.439 1657.17,424.561 1659.93,424.682 1662.8,424.804 1665.69,424.925 1668.53,425.047 1671.27,425.169 1673.82,425.29 1676.14,425.412 1678.16,425.534 1679.82,425.655 1681.1,425.777 1681.95,425.898 1682.36,426.02 1682.29,426.142 1681.75,426.263 1680.73,426.385 1679.25,426.507 1677.34,426.628 1675,426.75 1672.28,426.871 1669.22,426.993 1665.86,427.115 1662.25,427.236 1658.43,427.358 1654.45,427.479 1650.36,427.601 1646.19,427.723 1641.99,427.844 1637.78,427.966 1633.6,428.088 1629.46,428.209 1625.37,428.331 1621.33,428.452 1617.34,428.574 1613.38,428.696 1609.43,428.817 1605.46,428.939 1601.45,429.061 1597.36,429.182 1593.14,429.304 1588.78,429.425 1584.23,429.547 1579.47,429.669 1574.46,429.79 1569.21,429.912 1563.69,430.034 1557.92,430.155 1551.9,430.277 1545.66,430.398 1539.24,430.52 1532.68,430.642 1526.04,430.763 1519.39,430.885 1512.79,431.007 1506.32,431.128 1500.08,431.25 1494.13,431.371 1488.57,431.493 1483.48,431.615 1478.93,431.736 1474.99,431.858 1471.74,431.979 1469.22,432.101 1467.49,432.223 1466.57,432.344 1466.5,432.466 1467.28,432.588 1468.91,432.709 1471.4,432.831 1474.71,432.952 1478.83,433.074 1483.72,433.196 1489.33,433.317 1495.62,433.439 1502.53,433.561 1510,433.682 1517.98,433.804 1526.41,433.925 1535.21,434.047 1982.27,434.047 "/>
<path clip-path="url(#clip091)" d="M3013.53 181.307 L3017.2 179.729 L3020.39 178.151 L3023.12 176.573 L3025.4 174.996 L3027.23 173.418 L3028.65 171.84 L3029.69 170.263 L3030.38 168.685 L3030.75 167.107 L3030.84 165.529 L3030.72 163.952 L3030.4 162.374 L3029.96 160.796 L3029.43 159.218 L3028.87 157.641 L3028.31 156.063 L3027.82 154.485 L3027.41 152.908 L3027.15 151.33 L3027.05 149.752 L3027.16 148.174 L3027.49 146.597 L3028.06 145.019 L3028.89 143.441 L3029.98 141.863 L3031.33 140.286 L3032.95 138.708 L3034.81 137.13 L3036.9 135.553 L3039.2 133.975 L3041.69 132.397 L3044.32 130.819 L3047.08 129.242 L3049.9 127.664 L3052.77 126.086 L3055.63 124.508 L3058.43 122.931 L3061.14 121.353 L3063.7 119.775 L3066.06 118.198 L3068.2 116.62 L3070.05 115.042 L3071.57 113.464 L3072.74 111.887 L3073.51 110.309 L3073.85 108.731 L3073.73 107.154 L3073.13 105.576 L3072.02 103.998 L3070.39 102.42 L3068.23 100.843 L3065.53 99.2649 L3062.3 97.6872 L3058.53 96.1094 L3054.23 94.5317 L3049.43 92.954 L3044.12 91.3763 L3038.35 89.7985 L3032.12 88.2208 L2531.09 88.2208 L2524.86 89.7985 L2519.09 91.3763 L2513.78 92.954 L2508.97 94.5317 L2504.68 96.1094 L2500.91 97.6872 L2497.67 99.2649 L2494.98 100.843 L2492.82 102.42 L2491.19 103.998 L2490.08 105.576 L2489.48 107.154 L2489.36 108.731 L2489.7 110.309 L2490.47 111.887 L2491.63 113.464 L2493.16 115.042 L2495.01 116.62 L2497.14 118.198 L2499.51 119.775 L2502.07 121.353 L2504.78 122.931 L2507.58 124.508 L2510.44 126.086 L2513.3 127.664 L2516.13 129.242 L2518.88 130.819 L2521.52 132.397 L2524 133.975 L2526.31 135.553 L2528.4 137.13 L2530.26 138.708 L2531.87 140.286 L2533.23 141.863 L2534.32 143.441 L2535.15 145.019 L2535.72 146.597 L2536.05 148.174 L2536.15 149.752 L2536.06 151.33 L2535.79 152.908 L2535.39 154.485 L2534.89 156.063 L2534.34 157.641 L2533.78 159.218 L2533.25 160.796 L2532.8 162.374 L2532.49 163.952 L2532.36 165.529 L2532.46 167.107 L2532.83 168.685 L2533.52 170.263 L2534.55 171.84 L2535.98 173.418 L2537.81 174.996 L2540.09 176.573 L2542.81 178.151 L2546.01 179.729 L2549.67 181.307 L3013.53 181.307  Z" fill="#3da44d" fill-rule="evenodd" fill-opacity="1"/>
<polyline clip-path="url(#clip091)" style="stroke:#000000; stroke-linecap:round; stroke-linejoin:round; stroke-width:4; stroke-opacity:1; fill:none" points="3013.53,181.307 3017.2,179.729 3020.39,178.151 3023.12,176.573 3025.4,174.996 3027.23,173.418 3028.65,171.84 3029.69,170.263 3030.38,168.685 3030.75,167.107 3030.84,165.529 3030.72,163.952 3030.4,162.374 3029.96,160.796 3029.43,159.218 3028.87,157.641 3028.31,156.063 3027.82,154.485 3027.41,152.908 3027.15,151.33 3027.05,149.752 3027.16,148.174 3027.49,146.597 3028.06,145.019 3028.89,143.441 3029.98,141.863 3031.33,140.286 3032.95,138.708 3034.81,137.13 3036.9,135.553 3039.2,133.975 3041.69,132.397 3044.32,130.819 3047.08,129.242 3049.9,127.664 3052.77,126.086 3055.63,124.508 3058.43,122.931 3061.14,121.353 3063.7,119.775 3066.06,118.198 3068.2,116.62 3070.05,115.042 3071.57,113.464 3072.74,111.887 3073.51,110.309 3073.85,108.731 3073.73,107.154 3073.13,105.576 3072.02,103.998 3070.39,102.42 3068.23,100.843 3065.53,99.2649 3062.3,97.6872 3058.53,96.1094 3054.23,94.5317 3049.43,92.954 3044.12,91.3763 3038.35,89.7985 3032.12,88.2208 2531.09,88.2208 2524.86,89.7985 2519.09,91.3763 2513.78,92.954 2508.97,94.5317 2504.68,96.1094 2500.91,97.6872 2497.67,99.2649 2494.98,100.843 2492.82,102.42 2491.19,103.998 2490.08,105.576 2489.48,107.154 2489.36,108.731 2489.7,110.309 2490.47,111.887 2491.63,113.464 2493.16,115.042 2495.01,116.62 2497.14,118.198 2499.51,119.775 2502.07,121.353 2504.78,122.931 2507.58,124.508 2510.44,126.086 2513.3,127.664 2516.13,129.242 2518.88,130.819 2521.52,132.397 2524,133.975 2526.31,135.553 2528.4,137.13 2530.26,138.708 2531.87,140.286 2533.23,141.863 2534.32,143.441 2535.15,145.019 2535.72,146.597 2536.05,148.174 2536.15,149.752 2536.06,151.33 2535.79,152.908 2535.39,154.485 2534.89,156.063 2534.34,157.641 2533.78,159.218 2533.25,160.796 2532.8,162.374 2532.49,163.952 2532.36,165.529 2532.46,167.107 2532.83,168.685 2533.52,170.263 2534.55,171.84 2535.98,173.418 2537.81,174.996 2540.09,176.573 2542.81,178.151 2546.01,179.729 2549.67,181.307 3013.53,181.307 "/>
</svg>
