<?xml version="1.0" encoding="utf-8"?>
<svg xmlns="http://www.w3.org/2000/svg" xmlns:xlink="http://www.w3.org/1999/xlink" width="600" height="400" viewBox="0 0 2400 1600">
<defs>
  <clipPath id="clip980">
    <rect x="0" y="0" width="2400" height="1600"/>
  </clipPath>
</defs>
<path clip-path="url(#clip980)" d="M0 1600 L2400 1600 L2400 0 L0 0  Z" fill="#ffffff" fill-rule="evenodd" fill-opacity="1"/>
<defs>
  <clipPath id="clip981">
    <rect x="257" y="47" width="2097" height="1377"/>
  </clipPath>
</defs>
<path clip-path="url(#clip980)" d="M257.204 1423.18 L2352.76 1423.18 L2352.76 47.2441 L257.204 47.2441  Z" fill="#ffffff" fill-rule="evenodd" fill-opacity="1"/>
<polyline clip-path="url(#clip981)" style="stroke:#000000; stroke-linecap:round; stroke-linejoin:round; stroke-width:2; stroke-opacity:0.1; fill:none" points="598.931,1423.18 598.931,47.2441 "/>
<polyline clip-path="url(#clip981)" style="stroke:#000000; stroke-linecap:round; stroke-linejoin:round; stroke-width:2; stroke-opacity:0.1; fill:none" points="1163.77,1423.18 1163.77,47.2441 "/>
<polyline clip-path="url(#clip981)" style="stroke:#000000; stroke-linecap:round; stroke-linejoin:round; stroke-width:2; stroke-opacity:0.1; fill:none" points="1728.61,1423.18 1728.61,47.2441 "/>
<polyline clip-path="url(#clip981)" style="stroke:#000000; stroke-linecap:round; stroke-linejoin:round; stroke-width:2; stroke-opacity:0.1; fill:none" points="2293.45,1423.18 2293.45,47.2441 "/>
<polyline clip-path="url(#clip981)" style="stroke:#000000; stroke-linecap:round; stroke-linejoin:round; stroke-width:2; stroke-opacity:0.1; fill:none" points="257.204,1214.61 2352.76,1214.61 "/>
<polyline clip-path="url(#clip981)" style="stroke:#000000; stroke-linecap:round; stroke-linejoin:round; stroke-width:2; stroke-opacity:0.1; fill:none" points="257.204,927.689 2352.76,927.689 "/>
<polyline clip-path="url(#clip981)" style="stroke:#000000; stroke-linecap:round; stroke-linejoin:round; stroke-width:2; stroke-opacity:0.1; fill:none" points="257.204,640.766 2352.76,640.766 "/>
<polyline clip-path="url(#clip981)" style="stroke:#000000; stroke-linecap:round; stroke-linejoin:round; stroke-width:2; stroke-opacity:0.1; fill:none" points="257.204,353.842 2352.76,353.842 "/>
<polyline clip-path="url(#clip981)" style="stroke:#000000; stroke-linecap:round; stroke-linejoin:round; stroke-width:2; stroke-opacity:0.1; fill:none" points="257.204,66.9189 2352.76,66.9189 "/>
<polyline clip-path="url(#clip980)" style="stroke:#000000; stroke-linecap:round; stroke-linejoin:round; stroke-width:4; stroke-opacity:1; fill:none" points="257.204,1423.18 2352.76,1423.18 "/>
<polyline clip-path="url(#clip980)" style="stroke:#000000; stroke-linecap:round; stroke-linejoin:round; stroke-width:4; stroke-opacity:1; fill:none" points="598.931,1423.18 598.931,1404.28 "/>
<polyline clip-path="url(#clip980)" style="stroke:#000000; stroke-linecap:round; stroke-linejoin:round; stroke-width:4; stroke-opacity:1; fill:none" points="1163.77,1423.18 1163.77,1404.28 "/>
<polyline clip-path="url(#clip980)" style="stroke:#000000; stroke-linecap:round; stroke-linejoin:round; stroke-width:4; stroke-opacity:1; fill:none" points="1728.61,1423.18 1728.61,1404.28 "/>
<polyline clip-path="url(#clip980)" style="stroke:#000000; stroke-linecap:round; stroke-linejoin:round; stroke-width:4; stroke-opacity:1; fill:none" points="2293.45,1423.18 2293.45,1404.28 "/>
<path clip-path="url(#clip980)" d="M567.832 1468.75 L597.508 1468.75 L597.508 1472.69 L567.832 1472.69 L567.832 1468.75 Z" fill="#000000" fill-rule="nonzero" fill-opacity="1" /><path clip-path="url(#clip980)" d="M620.448 1455.09 L608.642 1473.54 L620.448 1473.54 L620.448 1455.09 M619.221 1451.02 L625.1 1451.02 L625.1 1473.54 L630.031 1473.54 L630.031 1477.43 L625.1 1477.43 L625.1 1485.58 L620.448 1485.58 L620.448 1477.43 L604.846 1477.43 L604.846 1472.92 L619.221 1451.02 Z" fill="#000000" fill-rule="nonzero" fill-opacity="1" /><path clip-path="url(#clip980)" d="M1133.71 1468.75 L1163.39 1468.75 L1163.39 1472.69 L1133.71 1472.69 L1133.71 1468.75 Z" fill="#000000" fill-rule="nonzero" fill-opacity="1" /><path clip-path="url(#clip980)" d="M1177.51 1481.64 L1193.83 1481.64 L1193.83 1485.58 L1171.88 1485.58 L1171.88 1481.64 Q1174.55 1478.89 1179.13 1474.26 Q1183.74 1469.61 1184.92 1468.27 Q1187.16 1465.74 1188.04 1464.01 Q1188.94 1462.25 1188.94 1460.56 Q1188.94 1457.8 1187 1456.07 Q1185.08 1454.33 1181.98 1454.33 Q1179.78 1454.33 1177.32 1455.09 Q1174.89 1455.86 1172.12 1457.41 L1172.12 1452.69 Q1174.94 1451.55 1177.39 1450.97 Q1179.85 1450.39 1181.88 1450.39 Q1187.25 1450.39 1190.45 1453.08 Q1193.64 1455.77 1193.64 1460.26 Q1193.64 1462.39 1192.83 1464.31 Q1192.05 1466.2 1189.94 1468.8 Q1189.36 1469.47 1186.26 1472.69 Q1183.16 1475.88 1177.51 1481.64 Z" fill="#000000" fill-rule="nonzero" fill-opacity="1" /><path clip-path="url(#clip980)" d="M1728.61 1454.1 Q1725 1454.1 1723.17 1457.66 Q1721.36 1461.2 1721.36 1468.33 Q1721.36 1475.44 1723.17 1479.01 Q1725 1482.55 1728.61 1482.55 Q1732.24 1482.55 1734.05 1479.01 Q1735.88 1475.44 1735.88 1468.33 Q1735.88 1461.2 1734.05 1457.66 Q1732.24 1454.1 1728.61 1454.1 M1728.61 1450.39 Q1734.42 1450.39 1737.47 1455 Q1740.55 1459.58 1740.55 1468.33 Q1740.55 1477.06 1737.47 1481.67 Q1734.42 1486.25 1728.61 1486.25 Q1722.8 1486.25 1719.72 1481.67 Q1716.66 1477.06 1716.66 1468.33 Q1716.66 1459.58 1719.72 1455 Q1722.8 1450.39 1728.61 1450.39 Z" fill="#000000" fill-rule="nonzero" fill-opacity="1" /><path clip-path="url(#clip980)" d="M2288.1 1481.64 L2304.42 1481.64 L2304.42 1485.58 L2282.48 1485.58 L2282.48 1481.64 Q2285.14 1478.89 2289.72 1474.26 Q2294.33 1469.61 2295.51 1468.27 Q2297.75 1465.74 2298.63 1464.01 Q2299.54 1462.25 2299.54 1460.56 Q2299.54 1457.8 2297.59 1456.07 Q2295.67 1454.33 2292.57 1454.33 Q2290.37 1454.33 2287.92 1455.09 Q2285.48 1455.86 2282.71 1457.41 L2282.71 1452.69 Q2285.53 1451.55 2287.98 1450.97 Q2290.44 1450.39 2292.48 1450.39 Q2297.85 1450.39 2301.04 1453.08 Q2304.23 1455.77 2304.23 1460.26 Q2304.23 1462.39 2303.42 1464.31 Q2302.64 1466.2 2300.53 1468.8 Q2299.95 1469.47 2296.85 1472.69 Q2293.75 1475.88 2288.1 1481.64 Z" fill="#000000" fill-rule="nonzero" fill-opacity="1" /><path clip-path="url(#clip980)" d="M1067.41 1518.52 L1073.27 1518.52 L1073.27 1568.04 L1067.41 1568.04 L1067.41 1518.52 Z" fill="#000000" fill-rule="nonzero" fill-opacity="1" /><path clip-path="url(#clip980)" d="M1099.34 1536.5 Q1094.63 1536.5 1091.89 1540.19 Q1089.15 1543.85 1089.15 1550.25 Q1089.15 1556.65 1091.86 1560.34 Q1094.59 1564 1099.34 1564 Q1104.01 1564 1106.75 1560.31 Q1109.49 1556.62 1109.49 1550.25 Q1109.49 1543.92 1106.75 1540.23 Q1104.01 1536.5 1099.34 1536.5 M1099.34 1531.54 Q1106.97 1531.54 1111.34 1536.5 Q1115.7 1541.47 1115.7 1550.25 Q1115.7 1559 1111.34 1564 Q1106.97 1568.97 1099.34 1568.97 Q1091.67 1568.97 1087.3 1564 Q1082.98 1559 1082.98 1550.25 Q1082.98 1541.47 1087.3 1536.5 Q1091.67 1531.54 1099.34 1531.54 Z" fill="#000000" fill-rule="nonzero" fill-opacity="1" /><path clip-path="url(#clip980)" d="M1148.86 1549.81 Q1148.86 1543.44 1146.22 1539.94 Q1143.61 1536.44 1138.87 1536.44 Q1134.16 1536.44 1131.51 1539.94 Q1128.9 1543.44 1128.9 1549.81 Q1128.9 1556.14 1131.51 1559.64 Q1134.16 1563.14 1138.87 1563.14 Q1143.61 1563.14 1146.22 1559.64 Q1148.86 1556.14 1148.86 1549.81 M1154.72 1563.62 Q1154.72 1572.72 1150.68 1577.15 Q1146.63 1581.6 1138.29 1581.6 Q1135.21 1581.6 1132.47 1581.13 Q1129.73 1580.68 1127.15 1579.72 L1127.15 1574.03 Q1129.73 1575.43 1132.25 1576.1 Q1134.76 1576.76 1137.37 1576.76 Q1143.13 1576.76 1146 1573.74 Q1148.86 1570.75 1148.86 1564.67 L1148.86 1561.77 Q1147.05 1564.92 1144.21 1566.48 Q1141.38 1568.04 1137.43 1568.04 Q1130.88 1568.04 1126.87 1563.05 Q1122.86 1558.05 1122.86 1549.81 Q1122.86 1541.53 1126.87 1536.53 Q1130.88 1531.54 1137.43 1531.54 Q1141.38 1531.54 1144.21 1533.1 Q1147.05 1534.66 1148.86 1537.81 L1148.86 1532.4 L1154.72 1532.4 L1154.72 1563.62 Z" fill="#000000" fill-rule="nonzero" fill-opacity="1" /><path clip-path="url(#clip980)" d="M1168.72 1562.63 L1179.23 1562.63 L1179.23 1526.38 L1167.8 1528.67 L1167.8 1522.82 L1179.16 1520.52 L1185.59 1520.52 L1185.59 1562.63 L1196.09 1562.63 L1196.09 1568.04 L1168.72 1568.04 L1168.72 1562.63 Z" fill="#000000" fill-rule="nonzero" fill-opacity="1" /><path clip-path="url(#clip980)" d="M1222.83 1524.76 Q1217.87 1524.76 1215.35 1529.66 Q1212.87 1534.53 1212.87 1544.33 Q1212.87 1554.1 1215.35 1559 Q1217.87 1563.87 1222.83 1563.87 Q1227.83 1563.87 1230.31 1559 Q1232.82 1554.1 1232.82 1544.33 Q1232.82 1534.53 1230.31 1529.66 Q1227.83 1524.76 1222.83 1524.76 M1222.83 1519.66 Q1230.82 1519.66 1235.02 1526 Q1239.25 1532.3 1239.25 1544.33 Q1239.25 1556.33 1235.02 1562.66 Q1230.82 1568.97 1222.83 1568.97 Q1214.84 1568.97 1210.61 1562.66 Q1206.41 1556.33 1206.41 1544.33 Q1206.41 1532.3 1210.61 1526 Q1214.84 1519.66 1222.83 1519.66 Z" fill="#000000" fill-rule="nonzero" fill-opacity="1" /><path clip-path="url(#clip980)" d="M1263.79 1518.58 Q1259.53 1525.9 1257.46 1533.06 Q1255.39 1540.23 1255.39 1547.58 Q1255.39 1554.93 1257.46 1562.16 Q1259.56 1569.35 1263.79 1576.64 L1258.7 1576.64 Q1253.93 1569.16 1251.54 1561.93 Q1249.18 1554.71 1249.18 1547.58 Q1249.18 1540.48 1251.54 1533.29 Q1253.9 1526.09 1258.7 1518.58 L1263.79 1518.58 Z" fill="#000000" fill-rule="nonzero" fill-opacity="1" /><path clip-path="url(#clip980)" d="M1274.93 1518.52 L1280.82 1518.52 L1280.82 1547.77 L1298.3 1532.4 L1305.78 1532.4 L1286.87 1549.07 L1306.57 1568.04 L1298.93 1568.04 L1280.82 1550.63 L1280.82 1568.04 L1274.93 1568.04 L1274.93 1518.52 Z" fill="#000000" fill-rule="nonzero" fill-opacity="1" /><path clip-path="url(#clip980)" d="M1323.31 1520.52 L1328.72 1520.52 L1312.17 1574.09 L1306.76 1574.09 L1323.31 1520.52 Z" fill="#000000" fill-rule="nonzero" fill-opacity="1" /><path clip-path="url(#clip980)" d="M1335.12 1520.52 L1344.7 1520.52 L1356.83 1552.86 L1369.02 1520.52 L1378.6 1520.52 L1378.6 1568.04 L1372.33 1568.04 L1372.33 1526.32 L1360.08 1558.91 L1353.61 1558.91 L1341.36 1526.32 L1341.36 1568.04 L1335.12 1568.04 L1335.12 1520.52 Z" fill="#000000" fill-rule="nonzero" fill-opacity="1" /><path clip-path="url(#clip980)" d="M1396.77 1562.7 L1396.77 1581.6 L1390.89 1581.6 L1390.89 1532.4 L1396.77 1532.4 L1396.77 1537.81 Q1398.62 1534.62 1401.42 1533.1 Q1404.25 1531.54 1408.17 1531.54 Q1414.66 1531.54 1418.7 1536.69 Q1422.78 1541.85 1422.78 1550.25 Q1422.78 1558.65 1418.7 1563.81 Q1414.66 1568.97 1408.17 1568.97 Q1404.25 1568.97 1401.42 1567.44 Q1398.62 1565.88 1396.77 1562.7 M1416.7 1550.25 Q1416.7 1543.79 1414.02 1540.13 Q1411.38 1536.44 1406.74 1536.44 Q1402.09 1536.44 1399.42 1540.13 Q1396.77 1543.79 1396.77 1550.25 Q1396.77 1556.71 1399.42 1560.4 Q1402.09 1564.07 1406.74 1564.07 Q1411.38 1564.07 1414.02 1560.4 Q1416.7 1556.71 1416.7 1550.25 Z" fill="#000000" fill-rule="nonzero" fill-opacity="1" /><path clip-path="url(#clip980)" d="M1458.14 1533.76 L1458.14 1539.24 Q1455.66 1537.87 1453.14 1537.2 Q1450.66 1536.5 1448.11 1536.5 Q1442.42 1536.5 1439.26 1540.13 Q1436.11 1543.73 1436.11 1550.25 Q1436.11 1556.78 1439.26 1560.4 Q1442.42 1564 1448.11 1564 Q1450.66 1564 1453.14 1563.33 Q1455.66 1562.63 1458.14 1561.26 L1458.14 1566.68 Q1455.69 1567.82 1453.05 1568.39 Q1450.44 1568.97 1447.48 1568.97 Q1439.42 1568.97 1434.68 1563.91 Q1429.94 1558.85 1429.94 1550.25 Q1429.94 1541.53 1434.71 1536.53 Q1439.52 1531.54 1447.86 1531.54 Q1450.56 1531.54 1453.14 1532.11 Q1455.72 1532.65 1458.14 1533.76 Z" fill="#000000" fill-rule="nonzero" fill-opacity="1" /><path clip-path="url(#clip980)" d="M1466.54 1533.83 L1492.23 1533.83 L1492.23 1536.85 L1466.54 1536.85 L1466.54 1533.83 Z" fill="#000000" fill-rule="nonzero" fill-opacity="1" /><path clip-path="url(#clip980)" d="M1501.55 1543.28 L1508.05 1543.28 L1508.05 1523.83 L1500.95 1525.14 L1500.95 1521.45 L1508.27 1520.21 L1512.63 1520.21 L1512.63 1543.28 L1519.15 1543.28 L1519.15 1546.78 L1501.55 1546.78 L1501.55 1543.28 Z" fill="#000000" fill-rule="nonzero" fill-opacity="1" /><path clip-path="url(#clip980)" d="M1527.94 1518.58 L1533.03 1518.58 Q1537.81 1526.09 1540.16 1533.29 Q1542.55 1540.48 1542.55 1547.58 Q1542.55 1554.71 1540.16 1561.93 Q1537.81 1569.16 1533.03 1576.64 L1527.94 1576.64 Q1532.17 1569.35 1534.24 1562.16 Q1536.34 1554.93 1536.34 1547.58 Q1536.34 1540.23 1534.24 1533.06 Q1532.17 1525.9 1527.94 1518.58 Z" fill="#000000" fill-rule="nonzero" fill-opacity="1" /><polyline clip-path="url(#clip980)" style="stroke:#000000; stroke-linecap:round; stroke-linejoin:round; stroke-width:4; stroke-opacity:1; fill:none" points="257.204,1423.18 257.204,47.2441 "/>
<polyline clip-path="url(#clip980)" style="stroke:#000000; stroke-linecap:round; stroke-linejoin:round; stroke-width:4; stroke-opacity:1; fill:none" points="257.204,1214.61 276.102,1214.61 "/>
<polyline clip-path="url(#clip980)" style="stroke:#000000; stroke-linecap:round; stroke-linejoin:round; stroke-width:4; stroke-opacity:1; fill:none" points="257.204,927.689 276.102,927.689 "/>
<polyline clip-path="url(#clip980)" style="stroke:#000000; stroke-linecap:round; stroke-linejoin:round; stroke-width:4; stroke-opacity:1; fill:none" points="257.204,640.766 276.102,640.766 "/>
<polyline clip-path="url(#clip980)" style="stroke:#000000; stroke-linecap:round; stroke-linejoin:round; stroke-width:4; stroke-opacity:1; fill:none" points="257.204,353.842 276.102,353.842 "/>
<polyline clip-path="url(#clip980)" style="stroke:#000000; stroke-linecap:round; stroke-linejoin:round; stroke-width:4; stroke-opacity:1; fill:none" points="257.204,66.9189 276.102,66.9189 "/>
<path clip-path="url(#clip980)" d="M114.26 1215.06 L143.936 1215.06 L143.936 1219 L114.26 1219 L114.26 1215.06 Z" fill="#000000" fill-rule="nonzero" fill-opacity="1" /><path clip-path="url(#clip980)" d="M154.075 1197.33 L172.431 1197.33 L172.431 1201.27 L158.357 1201.27 L158.357 1209.74 Q159.376 1209.39 160.394 1209.23 Q161.413 1209.05 162.431 1209.05 Q168.218 1209.05 171.598 1212.22 Q174.977 1215.39 174.977 1220.8 Q174.977 1226.38 171.505 1229.49 Q168.033 1232.56 161.714 1232.56 Q159.538 1232.56 157.269 1232.19 Q155.024 1231.82 152.616 1231.08 L152.616 1226.38 Q154.7 1227.52 156.922 1228.07 Q159.144 1228.63 161.621 1228.63 Q165.626 1228.63 167.964 1226.52 Q170.302 1224.42 170.302 1220.8 Q170.302 1217.19 167.964 1215.09 Q165.626 1212.98 161.621 1212.98 Q159.746 1212.98 157.871 1213.4 Q156.019 1213.81 154.075 1214.69 L154.075 1197.33 Z" fill="#000000" fill-rule="nonzero" fill-opacity="1" /><path clip-path="url(#clip980)" d="M184.19 1226.01 L189.075 1226.01 L189.075 1231.89 L184.19 1231.89 L184.19 1226.01 Z" fill="#000000" fill-rule="nonzero" fill-opacity="1" /><path clip-path="url(#clip980)" d="M209.26 1200.41 Q205.649 1200.41 203.82 1203.98 Q202.014 1207.52 202.014 1214.65 Q202.014 1221.75 203.82 1225.32 Q205.649 1228.86 209.26 1228.86 Q212.894 1228.86 214.699 1225.32 Q216.528 1221.75 216.528 1214.65 Q216.528 1207.52 214.699 1203.98 Q212.894 1200.41 209.26 1200.41 M209.26 1196.71 Q215.07 1196.71 218.125 1201.31 Q221.204 1205.9 221.204 1214.65 Q221.204 1223.37 218.125 1227.98 Q215.07 1232.56 209.26 1232.56 Q203.449 1232.56 200.371 1227.98 Q197.315 1223.37 197.315 1214.65 Q197.315 1205.9 200.371 1201.31 Q203.449 1196.71 209.26 1196.71 Z" fill="#000000" fill-rule="nonzero" fill-opacity="1" /><path clip-path="url(#clip980)" d="M115.256 928.141 L144.931 928.141 L144.931 932.076 L115.256 932.076 L115.256 928.141 Z" fill="#000000" fill-rule="nonzero" fill-opacity="1" /><path clip-path="url(#clip980)" d="M159.052 941.034 L175.371 941.034 L175.371 944.969 L153.427 944.969 L153.427 941.034 Q156.089 938.279 160.672 933.65 Q165.278 928.997 166.459 927.654 Q168.704 925.131 169.584 923.395 Q170.487 921.636 170.487 919.946 Q170.487 917.192 168.542 915.455 Q166.621 913.719 163.519 913.719 Q161.32 913.719 158.866 914.483 Q156.436 915.247 153.658 916.798 L153.658 912.076 Q156.482 910.942 158.936 910.363 Q161.39 909.784 163.427 909.784 Q168.797 909.784 171.991 912.469 Q175.186 915.155 175.186 919.645 Q175.186 921.775 174.376 923.696 Q173.589 925.594 171.482 928.187 Q170.903 928.858 167.802 932.076 Q164.7 935.27 159.052 941.034 Z" fill="#000000" fill-rule="nonzero" fill-opacity="1" /><path clip-path="url(#clip980)" d="M185.186 939.09 L190.07 939.09 L190.07 944.969 L185.186 944.969 L185.186 939.09 Z" fill="#000000" fill-rule="nonzero" fill-opacity="1" /><path clip-path="url(#clip980)" d="M200.301 910.409 L218.658 910.409 L218.658 914.344 L204.584 914.344 L204.584 922.817 Q205.602 922.469 206.621 922.307 Q207.639 922.122 208.658 922.122 Q214.445 922.122 217.824 925.293 Q221.204 928.465 221.204 933.881 Q221.204 939.46 217.732 942.562 Q214.26 945.64 207.94 945.64 Q205.764 945.64 203.496 945.27 Q201.25 944.9 198.843 944.159 L198.843 939.46 Q200.926 940.594 203.149 941.15 Q205.371 941.705 207.848 941.705 Q211.852 941.705 214.19 939.599 Q216.528 937.492 216.528 933.881 Q216.528 930.27 214.19 928.164 Q211.852 926.057 207.848 926.057 Q205.973 926.057 204.098 926.474 Q202.246 926.891 200.301 927.77 L200.301 910.409 Z" fill="#000000" fill-rule="nonzero" fill-opacity="1" /><path clip-path="url(#clip980)" d="M164.028 626.564 Q160.417 626.564 158.589 630.129 Q156.783 633.671 156.783 640.8 Q156.783 647.907 158.589 651.472 Q160.417 655.013 164.028 655.013 Q167.663 655.013 169.468 651.472 Q171.297 647.907 171.297 640.8 Q171.297 633.671 169.468 630.129 Q167.663 626.564 164.028 626.564 M164.028 622.861 Q169.839 622.861 172.894 627.467 Q175.973 632.051 175.973 640.8 Q175.973 649.527 172.894 654.134 Q169.839 658.717 164.028 658.717 Q158.218 658.717 155.14 654.134 Q152.084 649.527 152.084 640.8 Q152.084 632.051 155.14 627.467 Q158.218 622.861 164.028 622.861 Z" fill="#000000" fill-rule="nonzero" fill-opacity="1" /><path clip-path="url(#clip980)" d="M184.19 652.166 L189.075 652.166 L189.075 658.046 L184.19 658.046 L184.19 652.166 Z" fill="#000000" fill-rule="nonzero" fill-opacity="1" /><path clip-path="url(#clip980)" d="M209.26 626.564 Q205.649 626.564 203.82 630.129 Q202.014 633.671 202.014 640.8 Q202.014 647.907 203.82 651.472 Q205.649 655.013 209.26 655.013 Q212.894 655.013 214.699 651.472 Q216.528 647.907 216.528 640.8 Q216.528 633.671 214.699 630.129 Q212.894 626.564 209.26 626.564 M209.26 622.861 Q215.07 622.861 218.125 627.467 Q221.204 632.051 221.204 640.8 Q221.204 649.527 218.125 654.134 Q215.07 658.717 209.26 658.717 Q203.449 658.717 200.371 654.134 Q197.315 649.527 197.315 640.8 Q197.315 632.051 200.371 627.467 Q203.449 622.861 209.26 622.861 Z" fill="#000000" fill-rule="nonzero" fill-opacity="1" /><path clip-path="url(#clip980)" d="M159.052 367.187 L175.371 367.187 L175.371 371.122 L153.427 371.122 L153.427 367.187 Q156.089 364.433 160.672 359.803 Q165.278 355.15 166.459 353.808 Q168.704 351.284 169.584 349.548 Q170.487 347.789 170.487 346.099 Q170.487 343.345 168.542 341.609 Q166.621 339.873 163.519 339.873 Q161.32 339.873 158.866 340.636 Q156.436 341.4 153.658 342.951 L153.658 338.229 Q156.482 337.095 158.936 336.516 Q161.39 335.937 163.427 335.937 Q168.797 335.937 171.991 338.623 Q175.186 341.308 175.186 345.798 Q175.186 347.928 174.376 349.849 Q173.589 351.747 171.482 354.34 Q170.903 355.011 167.802 358.229 Q164.7 361.423 159.052 367.187 Z" fill="#000000" fill-rule="nonzero" fill-opacity="1" /><path clip-path="url(#clip980)" d="M185.186 365.243 L190.07 365.243 L190.07 371.122 L185.186 371.122 L185.186 365.243 Z" fill="#000000" fill-rule="nonzero" fill-opacity="1" /><path clip-path="url(#clip980)" d="M200.301 336.562 L218.658 336.562 L218.658 340.498 L204.584 340.498 L204.584 348.97 Q205.602 348.622 206.621 348.46 Q207.639 348.275 208.658 348.275 Q214.445 348.275 217.824 351.447 Q221.204 354.618 221.204 360.034 Q221.204 365.613 217.732 368.715 Q214.26 371.794 207.94 371.794 Q205.764 371.794 203.496 371.423 Q201.25 371.053 198.843 370.312 L198.843 365.613 Q200.926 366.747 203.149 367.303 Q205.371 367.858 207.848 367.858 Q211.852 367.858 214.19 365.752 Q216.528 363.646 216.528 360.034 Q216.528 356.423 214.19 354.317 Q211.852 352.21 207.848 352.21 Q205.973 352.21 204.098 352.627 Q202.246 353.044 200.301 353.923 L200.301 336.562 Z" fill="#000000" fill-rule="nonzero" fill-opacity="1" /><path clip-path="url(#clip980)" d="M154.075 49.6389 L172.431 49.6389 L172.431 53.5741 L158.357 53.5741 L158.357 62.0463 Q159.376 61.699 160.394 61.537 Q161.413 61.3518 162.431 61.3518 Q168.218 61.3518 171.598 64.5231 Q174.977 67.6944 174.977 73.111 Q174.977 78.6897 171.505 81.7915 Q168.033 84.8702 161.714 84.8702 Q159.538 84.8702 157.269 84.4998 Q155.024 84.1295 152.616 83.3887 L152.616 78.6897 Q154.7 79.8239 156.922 80.3795 Q159.144 80.935 161.621 80.935 Q165.626 80.935 167.964 78.8286 Q170.302 76.7221 170.302 73.111 Q170.302 69.4999 167.964 67.3934 Q165.626 65.287 161.621 65.287 Q159.746 65.287 157.871 65.7036 Q156.019 66.1203 154.075 66.9999 L154.075 49.6389 Z" fill="#000000" fill-rule="nonzero" fill-opacity="1" /><path clip-path="url(#clip980)" d="M184.19 78.3193 L189.075 78.3193 L189.075 84.1989 L184.19 84.1989 L184.19 78.3193 Z" fill="#000000" fill-rule="nonzero" fill-opacity="1" /><path clip-path="url(#clip980)" d="M209.26 52.7176 Q205.649 52.7176 203.82 56.2824 Q202.014 59.824 202.014 66.9536 Q202.014 74.0601 203.82 77.6249 Q205.649 81.1665 209.26 81.1665 Q212.894 81.1665 214.699 77.6249 Q216.528 74.0601 216.528 66.9536 Q216.528 59.824 214.699 56.2824 Q212.894 52.7176 209.26 52.7176 M209.26 49.0139 Q215.07 49.0139 218.125 53.6204 Q221.204 58.2037 221.204 66.9536 Q221.204 75.6804 218.125 80.2869 Q215.07 84.8702 209.26 84.8702 Q203.449 84.8702 200.371 80.2869 Q197.315 75.6804 197.315 66.9536 Q197.315 58.2037 200.371 53.6204 Q203.449 49.0139 209.26 49.0139 Z" fill="#000000" fill-rule="nonzero" fill-opacity="1" /><path clip-path="url(#clip980)" d="M14.479 956.357 L14.479 950.5 L64.0042 950.5 L64.0042 956.357 L14.479 956.357 Z" fill="#000000" fill-rule="nonzero" fill-opacity="1" /><path clip-path="url(#clip980)" d="M32.4621 924.433 Q32.4621 929.143 36.1542 931.88 Q39.8145 934.618 46.212 934.618 Q52.6095 934.618 56.3017 931.912 Q59.9619 929.175 59.9619 924.433 Q59.9619 919.754 56.2698 917.017 Q52.5777 914.279 46.212 914.279 Q39.8781 914.279 36.186 917.017 Q32.4621 919.754 32.4621 924.433 M27.4968 924.433 Q27.4968 916.794 32.4621 912.433 Q37.4273 908.073 46.212 908.073 Q54.9649 908.073 59.9619 912.433 Q64.9272 916.794 64.9272 924.433 Q64.9272 932.103 59.9619 936.464 Q54.9649 940.792 46.212 940.792 Q37.4273 940.792 32.4621 936.464 Q27.4968 932.103 27.4968 924.433 Z" fill="#000000" fill-rule="nonzero" fill-opacity="1" /><path clip-path="url(#clip980)" d="M45.7664 874.907 Q39.4007 874.907 35.8996 877.549 Q32.3984 880.159 32.3984 884.902 Q32.3984 889.612 35.8996 892.254 Q39.4007 894.864 45.7664 894.864 Q52.1003 894.864 55.6014 892.254 Q59.1026 889.612 59.1026 884.902 Q59.1026 880.159 55.6014 877.549 Q52.1003 874.907 45.7664 874.907 M59.58 869.051 Q68.683 869.051 73.1071 873.093 Q77.5631 877.135 77.5631 885.474 Q77.5631 888.562 77.0857 891.299 Q76.6401 894.036 75.6852 896.614 L69.9879 896.614 Q71.3884 894.036 72.0568 891.522 Q72.7252 889.007 72.7252 886.398 Q72.7252 880.637 69.7015 877.772 Q66.7096 874.907 60.6303 874.907 L57.7339 874.907 Q60.885 876.722 62.4446 879.554 Q64.0042 882.387 64.0042 886.334 Q64.0042 892.891 59.0071 896.901 Q54.01 900.911 45.7664 900.911 Q37.491 900.911 32.4939 896.901 Q27.4968 892.891 27.4968 886.334 Q27.4968 882.387 29.0564 879.554 Q30.616 876.722 33.7671 874.907 L28.3562 874.907 L28.3562 869.051 L59.58 869.051 Z" fill="#000000" fill-rule="nonzero" fill-opacity="1" /><path clip-path="url(#clip980)" d="M58.5933 855.046 L58.5933 844.543 L22.3406 844.543 L24.6323 855.969 L18.7758 855.969 L16.4842 844.607 L16.4842 838.177 L58.5933 838.177 L58.5933 827.674 L64.0042 827.674 L64.0042 855.046 L58.5933 855.046 Z" fill="#000000" fill-rule="nonzero" fill-opacity="1" /><path clip-path="url(#clip980)" d="M20.7174 800.938 Q20.7174 805.903 25.6189 808.418 Q30.4887 810.9 40.2919 810.9 Q50.0633 810.9 54.9649 808.418 Q59.8346 805.903 59.8346 800.938 Q59.8346 795.941 54.9649 793.458 Q50.0633 790.944 40.2919 790.944 Q30.4887 790.944 25.6189 793.458 Q20.7174 795.941 20.7174 800.938 M15.6248 800.938 Q15.6248 792.949 21.9587 788.748 Q28.2607 784.514 40.2919 784.514 Q52.2913 784.514 58.6251 788.748 Q64.9272 792.949 64.9272 800.938 Q64.9272 808.927 58.6251 813.16 Q52.2913 817.361 40.2919 817.361 Q28.2607 817.361 21.9587 813.16 Q15.6248 808.927 15.6248 800.938 Z" fill="#000000" fill-rule="nonzero" fill-opacity="1" /><path clip-path="url(#clip980)" d="M14.5426 759.975 Q21.8632 764.24 29.0246 766.308 Q36.186 768.377 43.5384 768.377 Q50.8908 768.377 58.1159 766.308 Q65.3091 764.208 72.5979 759.975 L72.5979 765.067 Q65.1182 769.841 57.8931 772.229 Q50.668 774.584 43.5384 774.584 Q36.4406 774.584 29.2474 772.229 Q22.0542 769.873 14.5426 765.067 L14.5426 759.975 Z" fill="#000000" fill-rule="nonzero" fill-opacity="1" /><path clip-path="url(#clip980)" d="M21.7677 741.928 L39.6235 741.928 L39.6235 733.843 Q39.6235 729.356 37.3 726.905 Q34.9765 724.454 30.6797 724.454 Q26.4147 724.454 24.0912 726.905 Q21.7677 729.356 21.7677 733.843 L21.7677 741.928 M16.4842 748.357 L16.4842 733.843 Q16.4842 725.854 20.1126 721.78 Q23.7092 717.674 30.6797 717.674 Q37.7138 717.674 41.3104 721.78 Q44.907 725.854 44.907 733.843 L44.907 741.928 L64.0042 741.928 L64.0042 748.357 L16.4842 748.357 Z" fill="#000000" fill-rule="nonzero" fill-opacity="1" /><path clip-path="url(#clip980)" d="M16.4842 698.896 L16.4842 693.485 L70.0516 710.036 L70.0516 715.446 L16.4842 698.896 Z" fill="#000000" fill-rule="nonzero" fill-opacity="1" /><path clip-path="url(#clip980)" d="M16.4842 687.087 L16.4842 677.507 L48.8219 665.38 L16.4842 653.19 L16.4842 643.609 L64.0042 643.609 L64.0042 649.88 L22.277 649.88 L54.8694 662.134 L54.8694 668.595 L22.277 680.849 L64.0042 680.849 L64.0042 687.087 L16.4842 687.087 Z" fill="#000000" fill-rule="nonzero" fill-opacity="1" /><path clip-path="url(#clip980)" d="M58.657 625.435 L77.5631 625.435 L77.5631 631.324 L28.3562 631.324 L28.3562 625.435 L33.7671 625.435 Q30.5842 623.589 29.0564 620.788 Q27.4968 617.956 27.4968 614.041 Q27.4968 607.548 32.6531 603.505 Q37.8093 599.431 46.212 599.431 Q54.6147 599.431 59.771 603.505 Q64.9272 607.548 64.9272 614.041 Q64.9272 617.956 63.3994 620.788 Q61.8398 623.589 58.657 625.435 M46.212 605.511 Q39.7508 605.511 36.0905 608.184 Q32.3984 610.826 32.3984 615.473 Q32.3984 620.12 36.0905 622.794 Q39.7508 625.435 46.212 625.435 Q52.6732 625.435 56.3653 622.794 Q60.0256 620.12 60.0256 615.473 Q60.0256 610.826 56.3653 608.184 Q52.6732 605.511 46.212 605.511 Z" fill="#000000" fill-rule="nonzero" fill-opacity="1" /><path clip-path="url(#clip980)" d="M29.7248 564.07 L35.1993 564.07 Q33.8307 566.553 33.1623 569.067 Q32.4621 571.55 32.4621 574.096 Q32.4621 579.793 36.0905 582.944 Q39.6872 586.095 46.212 586.095 Q52.7369 586.095 56.3653 582.944 Q59.9619 579.793 59.9619 574.096 Q59.9619 571.55 59.2935 569.067 Q58.5933 566.553 57.2247 564.07 L62.6355 564.07 Q63.7814 566.521 64.3543 569.163 Q64.9272 571.772 64.9272 574.733 Q64.9272 582.785 59.8664 587.528 Q54.8057 592.27 46.212 592.27 Q37.491 592.27 32.4939 587.496 Q27.4968 582.69 27.4968 574.351 Q27.4968 571.645 28.0697 569.067 Q28.6108 566.489 29.7248 564.07 Z" fill="#000000" fill-rule="nonzero" fill-opacity="1" /><path clip-path="url(#clip980)" d="M28.3562 543.35 Q28.9291 540.421 30.6797 538.83 Q32.3984 537.207 35.0084 537.207 Q38.9551 537.207 41.0876 540.23 Q43.2201 543.254 43.2201 548.888 Q43.2201 550.702 42.9018 552.707 Q42.5517 554.681 41.9152 556.909 L38.0639 556.909 Q38.9233 555.253 39.337 553.376 Q39.7508 551.466 39.7508 549.333 Q39.7508 545.864 38.5095 543.954 Q37.2364 542.045 35.0084 542.045 Q32.6531 542.045 31.4436 543.827 Q30.2341 545.578 30.2341 549.015 L30.2341 551.752 L26.7966 551.752 L26.7966 548.76 Q26.7966 545.769 25.8099 544.241 Q24.7914 542.681 22.8817 542.681 Q21.0356 542.681 20.0808 544.273 Q19.0941 545.864 19.0941 548.888 Q19.0941 550.161 19.3806 551.784 Q19.667 553.407 20.3991 555.985 L16.7388 555.985 Q16.1977 553.662 15.9112 551.625 Q15.6248 549.588 15.6248 547.837 Q15.6248 543.254 17.5027 540.58 Q19.3806 537.875 22.5316 537.875 Q24.7277 537.875 26.2555 539.307 Q27.7833 540.74 28.3562 543.35 Z" fill="#000000" fill-rule="nonzero" fill-opacity="1" /><path clip-path="url(#clip980)" d="M14.5426 528.677 L14.5426 523.584 Q22.0542 518.81 29.2474 516.454 Q36.4406 514.067 43.5384 514.067 Q50.668 514.067 57.8931 516.454 Q65.1182 518.81 72.5979 523.584 L72.5979 528.677 Q65.3091 524.443 58.1159 522.375 Q50.8908 520.274 43.5384 520.274 Q36.186 520.274 29.0246 522.375 Q21.8632 524.443 14.5426 528.677 Z" fill="#000000" fill-rule="nonzero" fill-opacity="1" /><polyline clip-path="url(#clip981)" style="stroke:#009af9; stroke-linecap:round; stroke-linejoin:round; stroke-width:4; stroke-opacity:1; fill:none" points="316.512,372.313 336.481,364.457 356.45,356.609 376.419,348.768 396.388,340.931 416.357,333.094 436.326,325.258 456.295,317.424 476.264,309.593 496.234,301.762 516.203,293.932 536.172,286.104 556.141,278.277 576.11,270.452 596.079,262.63 616.048,254.811 636.017,246.997 655.986,239.189 675.955,231.39 695.924,223.603 715.893,215.832 735.862,208.083 755.831,200.362 775.8,192.677 795.769,185.04 815.738,177.463 835.707,169.961 855.676,162.551 875.645,155.256 895.614,148.099 915.584,141.107 935.553,134.311 955.522,127.747 975.491,121.452 995.46,115.47 1015.43,109.851 1035.4,104.648 1055.37,99.9199 1075.34,95.7347 1095.3,92.1686 1115.27,89.3119 1135.24,87.273 1155.21,86.1857 1175.18,86.2165 1195.15,87.5692 1215.12,90.4794 1235.09,95.1802 1255.06,101.809 1275.03,110.213 1295,119.668 1314.96,128.756 1334.93,136.115 1354.9,142.405 1374.87,151.341 1394.84,166.114 1414.81,181.798 1434.78,190.647 1454.75,203.658 1474.72,221.506 1494.69,232.68 1514.65,250.74 1534.62,265.364 1554.59,281.546 1574.56,298.634 1594.53,315.87 1614.5,333.451 1634.47,351.385 1654.44,369.611 1674.41,388.138 1694.38,406.941 1714.35,426 1734.31,445.298 1754.28,464.818 1774.25,484.547 1794.22,504.469 1814.19,524.573 1834.16,544.847 1854.13,565.281 1874.1,585.864 1894.07,606.589 1914.04,627.447 1934,648.431 1953.97,669.533 1973.94,690.748 1993.91,712.07 2013.88,733.494 2033.85,755.017 2053.82,776.634 2073.79,798.343 2093.76,820.143 2113.73,842.033 2133.7,864.014 2153.66,886.091 2173.63,908.27 2193.6,930.56 2213.57,952.977 2233.54,975.54 2253.51,998.277 2273.48,1021.22 2293.45,1044.43 "/>
<polyline clip-path="url(#clip981)" style="stroke:#e26f46; stroke-linecap:round; stroke-linejoin:round; stroke-width:4; stroke-opacity:1; fill:none" points="316.512,389.349 336.481,381.5 356.45,373.657 376.419,365.817 396.388,357.98 416.357,350.144 436.326,342.311 456.295,334.477 476.264,326.643 496.234,318.811 516.203,310.981 536.172,303.153 556.141,295.326 576.11,287.501 596.079,279.678 616.048,271.858 636.017,264.044 655.986,256.236 675.955,248.436 695.924,240.648 715.893,232.876 735.862,225.125 755.831,217.402 775.8,209.716 795.769,202.076 815.738,194.498 835.707,186.994 855.676,179.584 875.645,172.287 895.614,165.129 915.584,158.136 935.553,151.34 955.522,144.774 975.491,138.477 995.46,132.494 1015.43,126.873 1035.4,121.668 1055.37,116.938 1075.34,112.75 1095.3,109.182 1115.27,106.323 1135.24,104.281 1155.21,103.191 1175.18,103.22 1195.15,104.57 1215.12,107.478 1235.09,112.177 1255.06,118.804 1275.03,127.207 1295,136.661 1314.96,145.747 1334.93,153.106 1354.9,159.394 1374.87,168.33 1394.84,183.102 1414.81,198.785 1434.78,207.634 1454.75,220.645 1474.72,238.492 1494.69,249.666 1514.65,267.727 1534.62,282.35 1554.59,298.533 1574.56,315.62 1594.53,332.857 1614.5,350.437 1634.47,368.371 1654.44,386.598 1674.41,405.124 1694.38,423.927 1714.35,442.986 1734.31,462.284 1754.28,481.804 1774.25,501.533 1794.22,521.455 1814.19,541.559 1834.16,561.833 1854.13,582.267 1874.1,602.85 1894.07,623.575 1914.04,644.433 1934,665.417 1953.97,686.519 1973.94,707.734 1993.91,729.055 2013.88,750.479 2033.85,772.001 2053.82,793.618 2073.79,815.326 2093.76,837.125 2113.73,859.013 2133.7,880.993 2153.66,903.067 2173.63,925.242 2193.6,947.526 2213.57,969.935 2233.54,992.487 2253.51,1015.21 2273.48,1038.14 2293.45,1061.32 "/>
<polyline clip-path="url(#clip981)" style="stroke:#3da44d; stroke-linecap:round; stroke-linejoin:round; stroke-width:4; stroke-opacity:1; fill:none" points="316.512,409.321 336.481,401.459 356.45,393.606 376.419,385.76 396.388,377.917 416.357,370.078 436.326,362.242 456.295,354.409 476.264,346.577 496.234,338.747 516.203,330.918 536.172,323.088 556.141,315.261 576.11,307.436 596.079,299.613 616.048,291.793 636.017,283.978 655.986,276.169 675.955,268.369 695.924,260.579 715.893,252.806 735.862,245.053 755.831,237.327 775.8,229.638 795.769,221.996 815.738,214.415 835.707,206.909 855.676,199.497 875.645,192.199 895.614,185.039 915.584,178.045 935.553,171.247 955.522,164.679 975.491,158.38 995.46,152.395 1015.43,146.772 1035.4,141.564 1055.37,136.831 1075.34,132.641 1095.3,129.07 1115.27,126.208 1135.24,124.163 1155.21,123.071 1175.18,123.096 1195.15,124.444 1215.12,127.35 1235.09,132.047 1255.06,138.672 1275.03,147.073 1295,156.525 1314.96,165.61 1334.93,172.968 1354.9,179.256 1374.87,188.191 1394.84,202.963 1414.81,218.645 1434.78,227.494 1454.75,240.504 1474.72,258.352 1494.69,269.525 1514.65,287.585 1534.62,302.209 1554.59,318.391 1574.56,335.479 1594.53,352.715 1614.5,370.296 1634.47,388.23 1654.44,406.456 1674.41,424.982 1694.38,443.785 1714.35,462.845 1734.31,482.142 1754.28,501.663 1774.25,521.391 1794.22,541.313 1814.19,561.417 1834.16,581.691 1854.13,602.125 1874.1,622.709 1894.07,643.434 1914.04,664.291 1934,685.275 1953.97,706.377 1973.94,727.591 1993.91,748.913 2013.88,770.337 2033.85,791.858 2053.82,813.474 2073.79,835.181 2093.76,856.978 2113.73,878.864 2133.7,900.841 2153.66,922.911 2173.63,945.081 2193.6,967.358 2213.57,989.756 2233.54,1012.29 2253.51,1035 2273.48,1057.9 2293.45,1081.05 "/>
<polyline clip-path="url(#clip981)" style="stroke:#c271d2; stroke-linecap:round; stroke-linejoin:round; stroke-width:4; stroke-opacity:1; fill:none" points="316.512,432.384 336.481,424.509 356.45,416.646 376.419,408.792 396.388,400.945 416.357,393.103 436.326,385.264 456.295,377.428 476.264,369.597 496.234,361.765 516.203,353.935 536.172,346.105 556.141,338.277 576.11,330.451 596.079,322.628 616.048,314.808 636.017,306.992 655.986,299.182 675.955,291.38 695.924,283.59 715.893,275.814 735.862,268.058 755.831,260.329 775.8,252.637 795.769,244.991 815.738,237.405 835.707,229.896 855.676,222.48 875.645,215.18 895.614,208.018 915.584,201.022 935.553,194.221 955.522,187.651 975.491,181.35 995.46,175.362 1015.43,169.735 1035.4,164.525 1055.37,159.789 1075.34,155.595 1095.3,152.02 1115.27,149.155 1135.24,147.107 1155.21,146.011 1175.18,146.034 1195.15,147.379 1215.12,150.282 1235.09,154.977 1255.06,161.6 1275.03,170 1295,179.451 1314.96,188.535 1334.93,195.891 1354.9,202.178 1374.87,211.113 1394.84,225.884 1414.81,241.566 1434.78,250.414 1454.75,263.424 1474.72,281.272 1494.69,292.445 1514.65,310.505 1534.62,325.129 1554.59,341.311 1574.56,358.398 1594.53,375.635 1614.5,393.216 1634.47,411.15 1654.44,429.376 1674.41,447.902 1694.38,466.705 1714.35,485.764 1734.31,505.062 1754.28,524.583 1774.25,544.311 1794.22,564.233 1814.19,584.337 1834.16,604.611 1854.13,625.045 1874.1,645.628 1894.07,666.353 1914.04,687.211 1934,708.194 1953.97,729.296 1973.94,750.51 1993.91,771.831 2013.88,793.254 2033.85,814.775 2053.82,836.39 2073.79,858.096 2093.76,879.891 2113.73,901.775 2133.7,923.748 2153.66,945.813 2173.63,967.976 2193.6,990.243 2213.57,1012.63 2233.54,1035.15 2253.51,1057.83 2273.48,1080.7 2293.45,1103.8 "/>
<polyline clip-path="url(#clip981)" style="stroke:#ac8d18; stroke-linecap:round; stroke-linejoin:round; stroke-width:4; stroke-opacity:1; fill:none" points="316.512,458.958 336.481,451.087 356.45,443.227 376.419,435.375 396.388,427.528 416.357,419.686 436.326,411.847 456.295,404.01 476.264,396.176 496.234,388.343 516.203,380.512 536.172,372.682 556.141,364.854 576.11,357.027 596.079,349.203 616.048,341.382 636.017,333.566 655.986,325.755 675.955,317.952 695.924,310.159 715.893,302.381 735.862,294.622 755.831,286.889 775.8,279.192 795.769,271.54 815.738,263.948 835.707,256.433 855.676,249.012 875.645,241.707 895.614,234.542 915.584,227.542 935.553,220.738 955.522,214.165 975.491,207.86 995.46,201.868 1015.43,196.238 1035.4,191.024 1055.37,186.284 1075.34,182.086 1095.3,178.507 1115.27,175.638 1135.24,173.586 1155.21,172.487 1175.18,172.506 1195.15,173.849 1215.12,176.749 1235.09,181.441 1255.06,188.063 1275.03,196.461 1295,205.91 1314.96,214.993 1334.93,222.349 1354.9,228.635 1374.87,237.569 1394.84,252.34 1414.81,268.021 1434.78,276.869 1454.75,289.879 1474.72,307.726 1494.69,318.9 1514.65,336.96 1534.62,351.583 1554.59,367.766 1574.56,384.853 1594.53,402.089 1614.5,419.67 1634.47,437.604 1654.44,455.83 1674.41,474.356 1694.38,493.159 1714.35,512.219 1734.31,531.516 1754.28,551.037 1774.25,570.765 1794.22,590.687 1814.19,610.791 1834.16,631.065 1854.13,651.499 1874.1,672.082 1894.07,692.807 1914.04,713.664 1934,734.647 1953.97,755.749 1973.94,776.963 1993.91,798.284 2013.88,819.706 2033.85,841.226 2053.82,862.84 2073.79,884.544 2093.76,906.337 2113.73,928.218 2133.7,950.186 2153.66,972.246 2173.63,994.4 2193.6,1016.66 2213.57,1039.03 2233.54,1061.52 2253.51,1084.17 2273.48,1107 2293.45,1130.04 "/>
<polyline clip-path="url(#clip981)" style="stroke:#00a9ad; stroke-linecap:round; stroke-linejoin:round; stroke-width:4; stroke-opacity:1; fill:none" points="316.512,489.938 336.481,482.075 356.45,474.222 376.419,466.374 396.388,458.532 416.357,450.692 436.326,442.856 456.295,435.021 476.264,427.186 496.234,419.354 516.203,411.522 536.172,403.693 556.141,395.865 576.11,388.038 596.079,380.214 616.048,372.392 636.017,364.574 655.986,356.762 675.955,348.957 695.924,341.162 715.893,333.381 735.862,325.618 755.831,317.88 775.8,310.176 795.769,302.517 815.738,294.916 835.707,287.391 855.676,279.96 875.645,272.647 895.614,265.476 915.584,258.471 935.553,251.662 955.522,245.083 975.491,238.774 995.46,232.777 1015.43,227.141 1035.4,221.922 1055.37,217.177 1075.34,212.974 1095.3,209.391 1115.27,206.517 1135.24,204.461 1155.21,203.358 1175.18,203.374 1195.15,204.713 1215.12,207.611 1235.09,212.301 1255.06,218.92 1275.03,227.317 1295,236.765 1314.96,245.846 1334.93,253.201 1354.9,259.487 1374.87,268.42 1394.84,283.191 1414.81,298.872 1434.78,307.72 1454.75,320.73 1474.72,338.577 1494.69,349.75 1514.65,367.81 1534.62,382.433 1554.59,398.615 1574.56,415.703 1594.53,432.939 1614.5,450.52 1634.47,468.454 1654.44,486.68 1674.41,505.206 1694.38,524.009 1714.35,543.068 1734.31,562.366 1754.28,581.887 1774.25,601.615 1794.22,621.537 1814.19,641.641 1834.16,661.915 1854.13,682.348 1874.1,702.932 1894.07,723.656 1914.04,744.514 1934,765.497 1953.97,786.598 1973.94,807.812 1993.91,829.132 2013.88,850.554 2033.85,872.073 2053.82,893.685 2073.79,915.387 2093.76,937.178 2113.73,959.055 2133.7,981.019 2153.66,1003.07 2173.63,1025.22 2193.6,1047.46 2213.57,1069.81 2233.54,1092.29 2253.51,1114.9 2273.48,1137.69 2293.45,1160.67 "/>
<polyline clip-path="url(#clip981)" style="stroke:#ed5d92; stroke-linecap:round; stroke-linejoin:round; stroke-width:4; stroke-opacity:1; fill:none" points="316.512,527.018 336.481,519.117 356.45,511.235 376.419,503.368 396.388,495.511 416.357,487.661 436.326,479.817 456.295,471.977 476.264,464.141 496.234,456.307 516.203,448.473 536.172,440.641 556.141,432.812 576.11,424.984 596.079,417.159 616.048,409.336 636.017,401.517 655.986,393.704 675.955,385.897 695.924,378.098 715.893,370.313 735.862,362.545 755.831,354.801 775.8,347.088 795.769,339.418 815.738,331.804 835.707,324.263 855.676,316.817 875.645,309.488 895.614,302.303 915.584,295.288 935.553,288.471 955.522,281.885 975.491,275.567 995.46,269.562 1015.43,263.919 1035.4,258.693 1055.37,253.942 1075.34,249.733 1095.3,246.144 1115.27,243.264 1135.24,241.204 1155.21,240.097 1175.18,240.109 1195.15,241.445 1215.12,244.34 1235.09,249.027 1255.06,255.645 1275.03,264.039 1295,273.486 1314.96,282.567 1334.93,289.921 1354.9,296.206 1374.87,305.139 1394.84,319.909 1414.81,335.59 1434.78,344.437 1454.75,357.447 1474.72,375.294 1494.69,386.467 1514.65,404.527 1534.62,419.15 1554.59,435.333 1574.56,452.42 1594.53,469.656 1614.5,487.237 1634.47,505.171 1654.44,523.397 1674.41,541.923 1694.38,560.726 1714.35,579.785 1734.31,599.083 1754.28,618.604 1774.25,638.332 1794.22,658.254 1814.19,678.358 1834.16,698.632 1854.13,719.065 1874.1,739.649 1894.07,760.373 1914.04,781.231 1934,802.213 1953.97,823.314 1973.94,844.528 1993.91,865.848 2013.88,887.269 2033.85,908.787 2053.82,930.398 2073.79,952.099 2093.76,973.888 2113.73,995.763 2133.7,1017.72 2153.66,1039.77 2173.63,1061.91 2193.6,1084.14 2213.57,1106.48 2233.54,1128.94 2253.51,1151.53 2273.48,1174.27 2293.45,1197.21 "/>
<polyline clip-path="url(#clip981)" style="stroke:#c68125; stroke-linecap:round; stroke-linejoin:round; stroke-width:4; stroke-opacity:1; fill:none" points="316.512,572.9 336.481,564.902 356.45,556.951 376.419,549.034 396.388,541.14 416.357,533.265 436.326,525.402 456.295,517.548 476.264,509.701 496.234,501.859 516.203,494.021 536.172,486.187 556.141,478.354 576.11,470.524 596.079,462.696 616.048,454.871 636.017,447.05 655.986,439.234 675.955,431.424 695.924,423.622 715.893,415.832 735.862,408.057 755.831,400.304 775.8,392.579 795.769,384.894 815.738,377.26 835.707,369.696 855.676,362.223 875.645,354.864 895.614,347.65 915.584,340.609 935.553,333.773 955.522,327.172 975.491,320.841 995.46,314.821 1015.43,309.166 1035.4,303.929 1055.37,299.169 1075.34,294.952 1095.3,291.355 1115.27,288.469 1135.24,286.403 1155.21,285.29 1175.18,285.298 1195.15,286.631 1215.12,289.523 1235.09,294.208 1255.06,300.823 1275.03,309.217 1295,318.662 1314.96,327.742 1334.93,335.095 1354.9,341.379 1374.87,350.312 1394.84,365.082 1414.81,380.762 1434.78,389.61 1454.75,402.619 1474.72,420.466 1494.69,431.639 1514.65,449.699 1534.62,464.322 1554.59,480.504 1574.56,497.592 1594.53,514.828 1614.5,532.409 1634.47,550.343 1654.44,568.569 1674.41,587.095 1694.38,605.898 1714.35,624.957 1734.31,644.255 1754.28,663.775 1774.25,683.503 1794.22,703.425 1814.19,723.529 1834.16,743.803 1854.13,764.237 1874.1,784.82 1894.07,805.545 1914.04,826.402 1934,847.385 1953.97,868.486 1973.94,889.699 1993.91,911.019 2013.88,932.44 2033.85,953.958 2053.82,975.569 2073.79,997.27 2093.76,1019.06 2113.73,1040.93 2133.7,1062.89 2153.66,1084.94 2173.63,1107.07 2193.6,1129.3 2213.57,1151.64 2233.54,1174.09 2253.51,1196.67 2273.48,1219.41 2293.45,1242.33 "/>
<polyline clip-path="url(#clip981)" style="stroke:#00a98d; stroke-linecap:round; stroke-linejoin:round; stroke-width:4; stroke-opacity:1; fill:none" points="316.512,633.78 336.481,625.339 356.45,617.071 376.419,608.925 396.388,600.867 416.357,592.873 436.326,584.924 456.295,577.009 476.264,569.117 496.234,561.242 516.203,553.38 536.172,545.527 556.141,537.682 576.11,529.842 596.079,522.008 616.048,514.177 636.017,506.351 655.986,498.529 675.955,490.714 695.924,482.907 715.893,475.109 735.862,467.325 755.831,459.559 775.8,451.818 795.769,444.111 815.738,436.449 835.707,428.85 855.676,421.331 875.645,413.92 895.614,406.647 915.584,399.545 935.553,392.653 955.522,386.008 975.491,379.644 995.46,373.598 1015.43,367.915 1035.4,362.652 1055.37,357.873 1075.34,353.641 1095.3,350.031 1115.27,347.135 1135.24,345.059 1155.21,343.94 1175.18,343.942 1195.15,345.27 1215.12,348.158 1235.09,352.84 1255.06,359.453 1275.03,367.845 1295,377.289 1314.96,386.367 1334.93,393.72 1354.9,400.003 1374.87,408.936 1394.84,423.705 1414.81,439.385 1434.78,448.233 1454.75,461.242 1474.72,479.089 1494.69,490.262 1514.65,508.321 1534.62,522.944 1554.59,539.127 1574.56,556.214 1594.53,573.45 1614.5,591.031 1634.47,608.965 1654.44,627.191 1674.41,645.717 1694.38,664.52 1714.35,683.579 1734.31,702.877 1754.28,722.398 1774.25,742.126 1794.22,762.048 1814.19,782.152 1834.16,802.426 1854.13,822.859 1874.1,843.443 1894.07,864.167 1914.04,885.024 1934,906.007 1953.97,927.108 1973.94,948.321 1993.91,969.64 2013.88,991.061 2033.85,1012.58 2053.82,1034.19 2073.79,1055.89 2093.76,1077.68 2113.73,1099.55 2133.7,1121.5 2153.66,1143.55 2173.63,1165.68 2193.6,1187.9 2213.57,1210.23 2233.54,1232.67 2253.51,1255.24 2273.48,1277.95 2293.45,1300.84 "/>
<polyline clip-path="url(#clip981)" style="stroke:#8e971d; stroke-linecap:round; stroke-linejoin:round; stroke-width:4; stroke-opacity:1; fill:none" points="316.512,736.177 336.481,722.643 356.45,710.888 376.419,700.317 396.388,690.553 416.357,681.35 436.326,672.539 456.295,664.007 476.264,655.673 496.234,647.481 516.203,639.391 536.172,631.373 556.141,623.409 576.11,615.483 596.079,607.585 616.048,599.708 636.017,591.847 655.986,583.999 675.955,576.163 695.924,568.336 715.893,560.52 735.862,552.717 755.831,544.929 775.8,537.161 795.769,529.419 815.738,521.712 835.707,514.053 855.676,506.458 875.645,498.95 895.614,491.556 915.584,484.313 935.553,477.264 955.522,470.458 975.491,463.948 995.46,457.785 1015.43,452.012 1035.4,446.672 1055.37,441.815 1075.34,437.513 1095.3,433.857 1115.27,430.928 1135.24,428.821 1155.21,427.682 1175.18,427.666 1195.15,428.981 1215.12,431.86 1235.09,436.533 1255.06,443.14 1275.03,451.526 1295,460.966 1314.96,470.042 1334.93,477.393 1354.9,483.677 1374.87,492.608 1394.84,507.375 1414.81,523.054 1434.78,531.903 1454.75,544.911 1474.72,562.757 1494.69,573.931 1514.65,591.989 1534.62,606.613 1554.59,622.795 1574.56,639.882 1594.53,657.118 1614.5,674.699 1634.47,692.633 1654.44,710.859 1674.41,729.385 1694.38,748.188 1714.35,767.247 1734.31,786.545 1754.28,806.065 1774.25,825.793 1794.22,845.715 1814.19,865.819 1834.16,886.093 1854.13,906.527 1874.1,927.11 1894.07,947.834 1914.04,968.691 1934,989.674 1953.97,1010.77 1973.94,1031.99 1993.91,1053.31 2013.88,1074.73 2033.85,1096.24 2053.82,1117.85 2073.79,1139.55 2093.76,1161.33 2113.73,1183.2 2133.7,1205.15 2153.66,1227.19 2173.63,1249.31 2193.6,1271.52 2213.57,1293.82 2233.54,1316.23 2253.51,1338.76 2273.48,1361.42 2293.45,1384.24 "/>
<path clip-path="url(#clip980)" d="M327.056 1377.32 L701.587 1377.32 L701.587 807.075 L327.056 807.075  Z" fill="#ffffff" fill-rule="evenodd" fill-opacity="1"/>
<polyline clip-path="url(#clip980)" style="stroke:#000000; stroke-linecap:round; stroke-linejoin:round; stroke-width:4; stroke-opacity:1; fill:none" points="327.056,1377.32 701.587,1377.32 701.587,807.075 327.056,807.075 327.056,1377.32 "/>
<polyline clip-path="url(#clip980)" style="stroke:#009af9; stroke-linecap:round; stroke-linejoin:round; stroke-width:4; stroke-opacity:1; fill:none" points="350.34,858.915 490.043,858.915 "/>
<path clip-path="url(#clip980)" d="M513.906 850.27 L534.137 850.27 L534.137 854.158 L518.119 872.793 L534.137 872.793 L534.137 876.195 L513.327 876.195 L513.327 872.306 L529.345 853.672 L513.906 853.672 L513.906 850.27 Z" fill="#000000" fill-rule="nonzero" fill-opacity="1" /><path clip-path="url(#clip980)" d="M541.197 854.668 L570.873 854.668 L570.873 858.557 L541.197 858.557 L541.197 854.668 M541.197 864.112 L570.873 864.112 L570.873 868.047 L541.197 868.047 L541.197 864.112 Z" fill="#000000" fill-rule="nonzero" fill-opacity="1" /><path clip-path="url(#clip980)" d="M590.966 844.714 Q587.354 844.714 585.526 848.279 Q583.72 851.82 583.72 858.95 Q583.72 866.056 585.526 869.621 Q587.354 873.163 590.966 873.163 Q594.6 873.163 596.405 869.621 Q598.234 866.056 598.234 858.95 Q598.234 851.82 596.405 848.279 Q594.6 844.714 590.966 844.714 M590.966 841.01 Q596.776 841.01 599.831 845.617 Q602.91 850.2 602.91 858.95 Q602.91 867.677 599.831 872.283 Q596.776 876.867 590.966 876.867 Q585.155 876.867 582.077 872.283 Q579.021 867.677 579.021 858.95 Q579.021 850.2 582.077 845.617 Q585.155 841.01 590.966 841.01 Z" fill="#000000" fill-rule="nonzero" fill-opacity="1" /><path clip-path="url(#clip980)" d="M611.127 870.316 L616.012 870.316 L616.012 876.195 L611.127 876.195 L611.127 870.316 Z" fill="#000000" fill-rule="nonzero" fill-opacity="1" /><path clip-path="url(#clip980)" d="M636.197 844.714 Q632.586 844.714 630.757 848.279 Q628.951 851.82 628.951 858.95 Q628.951 866.056 630.757 869.621 Q632.586 873.163 636.197 873.163 Q639.831 873.163 641.637 869.621 Q643.465 866.056 643.465 858.95 Q643.465 851.82 641.637 848.279 Q639.831 844.714 636.197 844.714 M636.197 841.01 Q642.007 841.01 645.062 845.617 Q648.141 850.2 648.141 858.95 Q648.141 867.677 645.062 872.283 Q642.007 876.867 636.197 876.867 Q630.387 876.867 627.308 872.283 Q624.252 867.677 624.252 858.95 Q624.252 850.2 627.308 845.617 Q630.387 841.01 636.197 841.01 Z" fill="#000000" fill-rule="nonzero" fill-opacity="1" /><polyline clip-path="url(#clip980)" style="stroke:#e26f46; stroke-linecap:round; stroke-linejoin:round; stroke-width:4; stroke-opacity:1; fill:none" points="350.34,910.755 490.043,910.755 "/>
<path clip-path="url(#clip980)" d="M513.906 902.11 L534.137 902.11 L534.137 905.998 L518.119 924.633 L534.137 924.633 L534.137 928.035 L513.327 928.035 L513.327 924.146 L529.345 905.512 L513.906 905.512 L513.906 902.11 Z" fill="#000000" fill-rule="nonzero" fill-opacity="1" /><path clip-path="url(#clip980)" d="M541.197 906.508 L570.873 906.508 L570.873 910.397 L541.197 910.397 L541.197 906.508 M541.197 915.952 L570.873 915.952 L570.873 919.887 L541.197 919.887 L541.197 915.952 Z" fill="#000000" fill-rule="nonzero" fill-opacity="1" /><path clip-path="url(#clip980)" d="M590.966 896.554 Q587.354 896.554 585.526 900.119 Q583.72 903.66 583.72 910.79 Q583.72 917.896 585.526 921.461 Q587.354 925.003 590.966 925.003 Q594.6 925.003 596.405 921.461 Q598.234 917.896 598.234 910.79 Q598.234 903.66 596.405 900.119 Q594.6 896.554 590.966 896.554 M590.966 892.85 Q596.776 892.85 599.831 897.457 Q602.91 902.04 602.91 910.79 Q602.91 919.517 599.831 924.123 Q596.776 928.707 590.966 928.707 Q585.155 928.707 582.077 924.123 Q579.021 919.517 579.021 910.79 Q579.021 902.04 582.077 897.457 Q585.155 892.85 590.966 892.85 Z" fill="#000000" fill-rule="nonzero" fill-opacity="1" /><path clip-path="url(#clip980)" d="M611.127 922.156 L616.012 922.156 L616.012 928.035 L611.127 928.035 L611.127 922.156 Z" fill="#000000" fill-rule="nonzero" fill-opacity="1" /><path clip-path="url(#clip980)" d="M640.363 909.401 Q643.72 910.119 645.595 912.387 Q647.493 914.656 647.493 917.989 Q647.493 923.105 643.974 925.906 Q640.456 928.707 633.975 928.707 Q631.799 928.707 629.484 928.267 Q627.192 927.85 624.738 926.994 L624.738 922.48 Q626.683 923.614 628.998 924.193 Q631.313 924.771 633.836 924.771 Q638.234 924.771 640.525 923.035 Q642.84 921.299 642.84 917.989 Q642.84 914.934 640.687 913.221 Q638.558 911.484 634.738 911.484 L630.711 911.484 L630.711 907.642 L634.924 907.642 Q638.373 907.642 640.201 906.276 Q642.03 904.887 642.03 902.295 Q642.03 899.633 640.132 898.221 Q638.257 896.785 634.738 896.785 Q632.817 896.785 630.618 897.202 Q628.419 897.619 625.78 898.498 L625.78 894.332 Q628.442 893.591 630.757 893.221 Q633.095 892.85 635.155 892.85 Q640.479 892.85 643.581 895.281 Q646.683 897.688 646.683 901.809 Q646.683 904.679 645.039 906.67 Q643.396 908.637 640.363 909.401 Z" fill="#000000" fill-rule="nonzero" fill-opacity="1" /><polyline clip-path="url(#clip980)" style="stroke:#3da44d; stroke-linecap:round; stroke-linejoin:round; stroke-width:4; stroke-opacity:1; fill:none" points="350.34,962.595 490.043,962.595 "/>
<path clip-path="url(#clip980)" d="M513.906 953.95 L534.137 953.95 L534.137 957.838 L518.119 976.473 L534.137 976.473 L534.137 979.875 L513.327 979.875 L513.327 975.986 L529.345 957.352 L513.906 957.352 L513.906 953.95 Z" fill="#000000" fill-rule="nonzero" fill-opacity="1" /><path clip-path="url(#clip980)" d="M541.197 958.348 L570.873 958.348 L570.873 962.237 L541.197 962.237 L541.197 958.348 M541.197 967.792 L570.873 967.792 L570.873 971.727 L541.197 971.727 L541.197 967.792 Z" fill="#000000" fill-rule="nonzero" fill-opacity="1" /><path clip-path="url(#clip980)" d="M590.966 948.394 Q587.354 948.394 585.526 951.959 Q583.72 955.5 583.72 962.63 Q583.72 969.736 585.526 973.301 Q587.354 976.843 590.966 976.843 Q594.6 976.843 596.405 973.301 Q598.234 969.736 598.234 962.63 Q598.234 955.5 596.405 951.959 Q594.6 948.394 590.966 948.394 M590.966 944.69 Q596.776 944.69 599.831 949.297 Q602.91 953.88 602.91 962.63 Q602.91 971.357 599.831 975.963 Q596.776 980.547 590.966 980.547 Q585.155 980.547 582.077 975.963 Q579.021 971.357 579.021 962.63 Q579.021 953.88 582.077 949.297 Q585.155 944.69 590.966 944.69 Z" fill="#000000" fill-rule="nonzero" fill-opacity="1" /><path clip-path="url(#clip980)" d="M611.127 973.996 L616.012 973.996 L616.012 979.875 L611.127 979.875 L611.127 973.996 Z" fill="#000000" fill-rule="nonzero" fill-opacity="1" /><path clip-path="url(#clip980)" d="M625.016 945.315 L647.238 945.315 L647.238 947.306 L634.692 979.875 L629.808 979.875 L641.613 949.25 L625.016 949.25 L625.016 945.315 Z" fill="#000000" fill-rule="nonzero" fill-opacity="1" /><polyline clip-path="url(#clip980)" style="stroke:#c271d2; stroke-linecap:round; stroke-linejoin:round; stroke-width:4; stroke-opacity:1; fill:none" points="350.34,1014.44 490.043,1014.44 "/>
<path clip-path="url(#clip980)" d="M513.906 1005.79 L534.137 1005.79 L534.137 1009.68 L518.119 1028.31 L534.137 1028.31 L534.137 1031.72 L513.327 1031.72 L513.327 1027.83 L529.345 1009.19 L513.906 1009.19 L513.906 1005.79 Z" fill="#000000" fill-rule="nonzero" fill-opacity="1" /><path clip-path="url(#clip980)" d="M541.197 1010.19 L570.873 1010.19 L570.873 1014.08 L541.197 1014.08 L541.197 1010.19 M541.197 1019.63 L570.873 1019.63 L570.873 1023.57 L541.197 1023.57 L541.197 1019.63 Z" fill="#000000" fill-rule="nonzero" fill-opacity="1" /><path clip-path="url(#clip980)" d="M581.776 1027.78 L589.415 1027.78 L589.415 1001.41 L581.104 1003.08 L581.104 998.822 L589.368 997.155 L594.044 997.155 L594.044 1027.78 L601.683 1027.78 L601.683 1031.72 L581.776 1031.72 L581.776 1027.78 Z" fill="#000000" fill-rule="nonzero" fill-opacity="1" /><path clip-path="url(#clip980)" d="M611.127 1025.84 L616.012 1025.84 L616.012 1031.72 L611.127 1031.72 L611.127 1025.84 Z" fill="#000000" fill-rule="nonzero" fill-opacity="1" /><path clip-path="url(#clip980)" d="M630.225 1027.78 L646.544 1027.78 L646.544 1031.72 L624.6 1031.72 L624.6 1027.78 Q627.262 1025.03 631.845 1020.4 Q636.451 1015.74 637.632 1014.4 Q639.877 1011.88 640.757 1010.14 Q641.66 1008.38 641.66 1006.69 Q641.66 1003.94 639.715 1002.2 Q637.794 1000.47 634.692 1000.47 Q632.493 1000.47 630.039 1001.23 Q627.609 1001.99 624.831 1003.54 L624.831 998.822 Q627.655 997.688 630.109 997.109 Q632.563 996.53 634.6 996.53 Q639.97 996.53 643.164 999.215 Q646.359 1001.9 646.359 1006.39 Q646.359 1008.52 645.549 1010.44 Q644.762 1012.34 642.655 1014.93 Q642.076 1015.6 638.975 1018.82 Q635.873 1022.02 630.225 1027.78 Z" fill="#000000" fill-rule="nonzero" fill-opacity="1" /><polyline clip-path="url(#clip980)" style="stroke:#ac8d18; stroke-linecap:round; stroke-linejoin:round; stroke-width:4; stroke-opacity:1; fill:none" points="350.34,1066.28 490.043,1066.28 "/>
<path clip-path="url(#clip980)" d="M513.906 1057.63 L534.137 1057.63 L534.137 1061.52 L518.119 1080.15 L534.137 1080.15 L534.137 1083.56 L513.327 1083.56 L513.327 1079.67 L529.345 1061.03 L513.906 1061.03 L513.906 1057.63 Z" fill="#000000" fill-rule="nonzero" fill-opacity="1" /><path clip-path="url(#clip980)" d="M541.197 1062.03 L570.873 1062.03 L570.873 1065.92 L541.197 1065.92 L541.197 1062.03 M541.197 1071.47 L570.873 1071.47 L570.873 1075.41 L541.197 1075.41 L541.197 1071.47 Z" fill="#000000" fill-rule="nonzero" fill-opacity="1" /><path clip-path="url(#clip980)" d="M584.993 1079.62 L601.313 1079.62 L601.313 1083.56 L579.368 1083.56 L579.368 1079.62 Q582.03 1076.87 586.614 1072.24 Q591.22 1067.58 592.401 1066.24 Q594.646 1063.72 595.526 1061.98 Q596.428 1060.22 596.428 1058.53 Q596.428 1055.78 594.484 1054.04 Q592.563 1052.31 589.461 1052.31 Q587.262 1052.31 584.808 1053.07 Q582.378 1053.83 579.6 1055.38 L579.6 1050.66 Q582.424 1049.53 584.878 1048.95 Q587.331 1048.37 589.368 1048.37 Q594.739 1048.37 597.933 1051.06 Q601.127 1053.74 601.127 1058.23 Q601.127 1060.36 600.317 1062.28 Q599.53 1064.18 597.424 1066.77 Q596.845 1067.44 593.743 1070.66 Q590.641 1073.86 584.993 1079.62 Z" fill="#000000" fill-rule="nonzero" fill-opacity="1" /><path clip-path="url(#clip980)" d="M611.127 1077.68 L616.012 1077.68 L616.012 1083.56 L611.127 1083.56 L611.127 1077.68 Z" fill="#000000" fill-rule="nonzero" fill-opacity="1" /><path clip-path="url(#clip980)" d="M636.197 1052.07 Q632.586 1052.07 630.757 1055.64 Q628.951 1059.18 628.951 1066.31 Q628.951 1073.42 630.757 1076.98 Q632.586 1080.52 636.197 1080.52 Q639.831 1080.52 641.637 1076.98 Q643.465 1073.42 643.465 1066.31 Q643.465 1059.18 641.637 1055.64 Q639.831 1052.07 636.197 1052.07 M636.197 1048.37 Q642.007 1048.37 645.062 1052.98 Q648.141 1057.56 648.141 1066.31 Q648.141 1075.04 645.062 1079.64 Q642.007 1084.23 636.197 1084.23 Q630.387 1084.23 627.308 1079.64 Q624.252 1075.04 624.252 1066.31 Q624.252 1057.56 627.308 1052.98 Q630.387 1048.37 636.197 1048.37 Z" fill="#000000" fill-rule="nonzero" fill-opacity="1" /><polyline clip-path="url(#clip980)" style="stroke:#00a9ad; stroke-linecap:round; stroke-linejoin:round; stroke-width:4; stroke-opacity:1; fill:none" points="350.34,1118.12 490.043,1118.12 "/>
<path clip-path="url(#clip980)" d="M513.906 1109.47 L534.137 1109.47 L534.137 1113.36 L518.119 1131.99 L534.137 1131.99 L534.137 1135.4 L513.327 1135.4 L513.327 1131.51 L529.345 1112.87 L513.906 1112.87 L513.906 1109.47 Z" fill="#000000" fill-rule="nonzero" fill-opacity="1" /><path clip-path="url(#clip980)" d="M541.197 1113.87 L570.873 1113.87 L570.873 1117.76 L541.197 1117.76 L541.197 1113.87 M541.197 1123.31 L570.873 1123.31 L570.873 1127.25 L541.197 1127.25 L541.197 1123.31 Z" fill="#000000" fill-rule="nonzero" fill-opacity="1" /><path clip-path="url(#clip980)" d="M595.132 1116.76 Q598.489 1117.48 600.364 1119.75 Q602.262 1122.02 602.262 1125.35 Q602.262 1130.46 598.743 1133.27 Q595.225 1136.07 588.743 1136.07 Q586.567 1136.07 584.253 1135.63 Q581.961 1135.21 579.507 1134.35 L579.507 1129.84 Q581.452 1130.97 583.766 1131.55 Q586.081 1132.13 588.604 1132.13 Q593.003 1132.13 595.294 1130.4 Q597.609 1128.66 597.609 1125.35 Q597.609 1122.29 595.456 1120.58 Q593.327 1118.84 589.507 1118.84 L585.479 1118.84 L585.479 1115 L589.692 1115 Q593.141 1115 594.97 1113.64 Q596.799 1112.25 596.799 1109.65 Q596.799 1106.99 594.901 1105.58 Q593.026 1104.15 589.507 1104.15 Q587.586 1104.15 585.387 1104.56 Q583.188 1104.98 580.549 1105.86 L580.549 1101.69 Q583.211 1100.95 585.526 1100.58 Q587.864 1100.21 589.924 1100.21 Q595.248 1100.21 598.35 1102.64 Q601.452 1105.05 601.452 1109.17 Q601.452 1112.04 599.808 1114.03 Q598.165 1116 595.132 1116.76 Z" fill="#000000" fill-rule="nonzero" fill-opacity="1" /><path clip-path="url(#clip980)" d="M611.127 1129.52 L616.012 1129.52 L616.012 1135.4 L611.127 1135.4 L611.127 1129.52 Z" fill="#000000" fill-rule="nonzero" fill-opacity="1" /><path clip-path="url(#clip980)" d="M627.007 1131.46 L634.646 1131.46 L634.646 1105.09 L626.336 1106.76 L626.336 1102.5 L634.6 1100.84 L639.275 1100.84 L639.275 1131.46 L646.914 1131.46 L646.914 1135.4 L627.007 1135.4 L627.007 1131.46 Z" fill="#000000" fill-rule="nonzero" fill-opacity="1" /><polyline clip-path="url(#clip980)" style="stroke:#ed5d92; stroke-linecap:round; stroke-linejoin:round; stroke-width:4; stroke-opacity:1; fill:none" points="350.34,1169.96 490.043,1169.96 "/>
<path clip-path="url(#clip980)" d="M513.906 1161.31 L534.137 1161.31 L534.137 1165.2 L518.119 1183.83 L534.137 1183.83 L534.137 1187.24 L513.327 1187.24 L513.327 1183.35 L529.345 1164.71 L513.906 1164.71 L513.906 1161.31 Z" fill="#000000" fill-rule="nonzero" fill-opacity="1" /><path clip-path="url(#clip980)" d="M541.197 1165.71 L570.873 1165.71 L570.873 1169.6 L541.197 1169.6 L541.197 1165.71 M541.197 1175.15 L570.873 1175.15 L570.873 1179.09 L541.197 1179.09 L541.197 1175.15 Z" fill="#000000" fill-rule="nonzero" fill-opacity="1" /><path clip-path="url(#clip980)" d="M581.012 1152.68 L599.368 1152.68 L599.368 1156.61 L585.294 1156.61 L585.294 1165.08 Q586.313 1164.74 587.331 1164.57 Q588.35 1164.39 589.368 1164.39 Q595.155 1164.39 598.535 1167.56 Q601.915 1170.73 601.915 1176.15 Q601.915 1181.73 598.442 1184.83 Q594.97 1187.91 588.651 1187.91 Q586.475 1187.91 584.206 1187.54 Q581.961 1187.17 579.554 1186.43 L579.554 1181.73 Q581.637 1182.86 583.859 1183.42 Q586.081 1183.97 588.558 1183.97 Q592.563 1183.97 594.901 1181.86 Q597.239 1179.76 597.239 1176.15 Q597.239 1172.54 594.901 1170.43 Q592.563 1168.32 588.558 1168.32 Q586.683 1168.32 584.808 1168.74 Q582.956 1169.16 581.012 1170.04 L581.012 1152.68 Z" fill="#000000" fill-rule="nonzero" fill-opacity="1" /><path clip-path="url(#clip980)" d="M611.127 1181.36 L616.012 1181.36 L616.012 1187.24 L611.127 1187.24 L611.127 1181.36 Z" fill="#000000" fill-rule="nonzero" fill-opacity="1" /><path clip-path="url(#clip980)" d="M636.197 1155.75 Q632.586 1155.75 630.757 1159.32 Q628.951 1162.86 628.951 1169.99 Q628.951 1177.1 630.757 1180.66 Q632.586 1184.2 636.197 1184.2 Q639.831 1184.2 641.637 1180.66 Q643.465 1177.1 643.465 1169.99 Q643.465 1162.86 641.637 1159.32 Q639.831 1155.75 636.197 1155.75 M636.197 1152.05 Q642.007 1152.05 645.062 1156.66 Q648.141 1161.24 648.141 1169.99 Q648.141 1178.72 645.062 1183.32 Q642.007 1187.91 636.197 1187.91 Q630.387 1187.91 627.308 1183.32 Q624.252 1178.72 624.252 1169.99 Q624.252 1161.24 627.308 1156.66 Q630.387 1152.05 636.197 1152.05 Z" fill="#000000" fill-rule="nonzero" fill-opacity="1" /><polyline clip-path="url(#clip980)" style="stroke:#c68125; stroke-linecap:round; stroke-linejoin:round; stroke-width:4; stroke-opacity:1; fill:none" points="350.34,1221.8 490.043,1221.8 "/>
<path clip-path="url(#clip980)" d="M513.906 1213.15 L534.137 1213.15 L534.137 1217.04 L518.119 1235.67 L534.137 1235.67 L534.137 1239.08 L513.327 1239.08 L513.327 1235.19 L529.345 1216.55 L513.906 1216.55 L513.906 1213.15 Z" fill="#000000" fill-rule="nonzero" fill-opacity="1" /><path clip-path="url(#clip980)" d="M541.197 1217.55 L570.873 1217.55 L570.873 1221.44 L541.197 1221.44 L541.197 1217.55 M541.197 1226.99 L570.873 1226.99 L570.873 1230.93 L541.197 1230.93 L541.197 1226.99 Z" fill="#000000" fill-rule="nonzero" fill-opacity="1" /><path clip-path="url(#clip980)" d="M590.966 1222.66 Q587.632 1222.66 585.711 1224.45 Q583.813 1226.23 583.813 1229.35 Q583.813 1232.48 585.711 1234.26 Q587.632 1236.04 590.966 1236.04 Q594.299 1236.04 596.22 1234.26 Q598.141 1232.45 598.141 1229.35 Q598.141 1226.23 596.22 1224.45 Q594.322 1222.66 590.966 1222.66 M586.29 1220.67 Q583.28 1219.93 581.591 1217.87 Q579.924 1215.81 579.924 1212.85 Q579.924 1208.71 582.864 1206.3 Q585.827 1203.89 590.966 1203.89 Q596.128 1203.89 599.067 1206.3 Q602.007 1208.71 602.007 1212.85 Q602.007 1215.81 600.317 1217.87 Q598.651 1219.93 595.665 1220.67 Q599.044 1221.46 600.919 1223.75 Q602.817 1226.04 602.817 1229.35 Q602.817 1234.38 599.739 1237.06 Q596.683 1239.75 590.966 1239.75 Q585.248 1239.75 582.169 1237.06 Q579.114 1234.38 579.114 1229.35 Q579.114 1226.04 581.012 1223.75 Q582.91 1221.46 586.29 1220.67 M584.577 1213.29 Q584.577 1215.97 586.243 1217.48 Q587.933 1218.98 590.966 1218.98 Q593.975 1218.98 595.665 1217.48 Q597.378 1215.97 597.378 1213.29 Q597.378 1210.6 595.665 1209.1 Q593.975 1207.59 590.966 1207.59 Q587.933 1207.59 586.243 1209.1 Q584.577 1210.6 584.577 1213.29 Z" fill="#000000" fill-rule="nonzero" fill-opacity="1" /><path clip-path="url(#clip980)" d="M611.127 1233.2 L616.012 1233.2 L616.012 1239.08 L611.127 1239.08 L611.127 1233.2 Z" fill="#000000" fill-rule="nonzero" fill-opacity="1" /><path clip-path="url(#clip980)" d="M639.044 1208.59 L627.238 1227.04 L639.044 1227.04 L639.044 1208.59 M637.817 1204.52 L643.697 1204.52 L643.697 1227.04 L648.627 1227.04 L648.627 1230.93 L643.697 1230.93 L643.697 1239.08 L639.044 1239.08 L639.044 1230.93 L623.442 1230.93 L623.442 1226.41 L637.817 1204.52 Z" fill="#000000" fill-rule="nonzero" fill-opacity="1" /><polyline clip-path="url(#clip980)" style="stroke:#00a98d; stroke-linecap:round; stroke-linejoin:round; stroke-width:4; stroke-opacity:1; fill:none" points="350.34,1273.64 490.043,1273.64 "/>
<path clip-path="url(#clip980)" d="M513.906 1264.99 L534.137 1264.99 L534.137 1268.88 L518.119 1287.51 L534.137 1287.51 L534.137 1290.92 L513.327 1290.92 L513.327 1287.03 L529.345 1268.39 L513.906 1268.39 L513.906 1264.99 Z" fill="#000000" fill-rule="nonzero" fill-opacity="1" /><path clip-path="url(#clip980)" d="M541.197 1269.39 L570.873 1269.39 L570.873 1273.28 L541.197 1273.28 L541.197 1269.39 M541.197 1278.83 L570.873 1278.83 L570.873 1282.77 L541.197 1282.77 L541.197 1278.83 Z" fill="#000000" fill-rule="nonzero" fill-opacity="1" /><path clip-path="url(#clip980)" d="M581.776 1286.98 L589.415 1286.98 L589.415 1260.61 L581.104 1262.28 L581.104 1258.02 L589.368 1256.36 L594.044 1256.36 L594.044 1286.98 L601.683 1286.98 L601.683 1290.92 L581.776 1290.92 L581.776 1286.98 Z" fill="#000000" fill-rule="nonzero" fill-opacity="1" /><path clip-path="url(#clip980)" d="M621.706 1271.77 Q618.558 1271.77 616.706 1273.92 Q614.877 1276.08 614.877 1279.83 Q614.877 1283.55 616.706 1285.73 Q618.558 1287.88 621.706 1287.88 Q624.854 1287.88 626.683 1285.73 Q628.535 1283.55 628.535 1279.83 Q628.535 1276.08 626.683 1273.92 Q624.854 1271.77 621.706 1271.77 M630.988 1257.12 L630.988 1261.38 Q629.229 1260.55 627.424 1260.11 Q625.641 1259.67 623.882 1259.67 Q619.252 1259.67 616.799 1262.79 Q614.368 1265.92 614.021 1272.23 Q615.387 1270.22 617.447 1269.16 Q619.507 1268.07 621.984 1268.07 Q627.192 1268.07 630.201 1271.24 Q633.234 1274.39 633.234 1279.83 Q633.234 1285.15 630.086 1288.37 Q626.938 1291.59 621.706 1291.59 Q615.711 1291.59 612.539 1287 Q609.368 1282.4 609.368 1273.67 Q609.368 1265.48 613.257 1260.61 Q617.146 1255.73 623.697 1255.73 Q625.456 1255.73 627.238 1256.08 Q629.044 1256.42 630.988 1257.12 Z" fill="#000000" fill-rule="nonzero" fill-opacity="1" /><path clip-path="url(#clip980)" d="M641.289 1285.04 L646.174 1285.04 L646.174 1290.92 L641.289 1290.92 L641.289 1285.04 Z" fill="#000000" fill-rule="nonzero" fill-opacity="1" /><path clip-path="url(#clip980)" d="M666.359 1259.43 Q662.748 1259.43 660.919 1263 Q659.113 1266.54 659.113 1273.67 Q659.113 1280.78 660.919 1284.34 Q662.748 1287.88 666.359 1287.88 Q669.993 1287.88 671.798 1284.34 Q673.627 1280.78 673.627 1273.67 Q673.627 1266.54 671.798 1263 Q669.993 1259.43 666.359 1259.43 M666.359 1255.73 Q672.169 1255.73 675.224 1260.34 Q678.303 1264.92 678.303 1273.67 Q678.303 1282.4 675.224 1287 Q672.169 1291.59 666.359 1291.59 Q660.548 1291.59 657.47 1287 Q654.414 1282.4 654.414 1273.67 Q654.414 1264.92 657.47 1260.34 Q660.548 1255.73 666.359 1255.73 Z" fill="#000000" fill-rule="nonzero" fill-opacity="1" /><polyline clip-path="url(#clip980)" style="stroke:#8e971d; stroke-linecap:round; stroke-linejoin:round; stroke-width:4; stroke-opacity:1; fill:none" points="350.34,1325.48 490.043,1325.48 "/>
<path clip-path="url(#clip980)" d="M513.906 1316.83 L534.137 1316.83 L534.137 1320.72 L518.119 1339.35 L534.137 1339.35 L534.137 1342.76 L513.327 1342.76 L513.327 1338.87 L529.345 1320.23 L513.906 1320.23 L513.906 1316.83 Z" fill="#000000" fill-rule="nonzero" fill-opacity="1" /><path clip-path="url(#clip980)" d="M541.197 1321.23 L570.873 1321.23 L570.873 1325.12 L541.197 1325.12 L541.197 1321.23 M541.197 1330.67 L570.873 1330.67 L570.873 1334.61 L541.197 1334.61 L541.197 1330.67 Z" fill="#000000" fill-rule="nonzero" fill-opacity="1" /><path clip-path="url(#clip980)" d="M595.132 1324.12 Q598.489 1324.84 600.364 1327.11 Q602.262 1329.38 602.262 1332.71 Q602.262 1337.82 598.743 1340.63 Q595.225 1343.43 588.743 1343.43 Q586.567 1343.43 584.253 1342.99 Q581.961 1342.57 579.507 1341.71 L579.507 1337.2 Q581.452 1338.33 583.766 1338.91 Q586.081 1339.49 588.604 1339.49 Q593.003 1339.49 595.294 1337.76 Q597.609 1336.02 597.609 1332.71 Q597.609 1329.65 595.456 1327.94 Q593.327 1326.2 589.507 1326.2 L585.479 1326.2 L585.479 1322.36 L589.692 1322.36 Q593.141 1322.36 594.97 1321 Q596.799 1319.61 596.799 1317.01 Q596.799 1314.35 594.901 1312.94 Q593.026 1311.51 589.507 1311.51 Q587.586 1311.51 585.387 1311.92 Q583.188 1312.34 580.549 1313.22 L580.549 1309.05 Q583.211 1308.31 585.526 1307.94 Q587.864 1307.57 589.924 1307.57 Q595.248 1307.57 598.35 1310 Q601.452 1312.41 601.452 1316.53 Q601.452 1319.4 599.808 1321.39 Q598.165 1323.36 595.132 1324.12 Z" fill="#000000" fill-rule="nonzero" fill-opacity="1" /><path clip-path="url(#clip980)" d="M621.127 1326.34 Q617.794 1326.34 615.873 1328.13 Q613.975 1329.91 613.975 1333.03 Q613.975 1336.16 615.873 1337.94 Q617.794 1339.72 621.127 1339.72 Q624.461 1339.72 626.382 1337.94 Q628.303 1336.13 628.303 1333.03 Q628.303 1329.91 626.382 1328.13 Q624.484 1326.34 621.127 1326.34 M616.451 1324.35 Q613.442 1323.61 611.752 1321.55 Q610.086 1319.49 610.086 1316.53 Q610.086 1312.39 613.026 1309.98 Q615.989 1307.57 621.127 1307.57 Q626.289 1307.57 629.229 1309.98 Q632.169 1312.39 632.169 1316.53 Q632.169 1319.49 630.479 1321.55 Q628.813 1323.61 625.826 1324.35 Q629.206 1325.14 631.081 1327.43 Q632.979 1329.72 632.979 1333.03 Q632.979 1338.06 629.9 1340.74 Q626.845 1343.43 621.127 1343.43 Q615.41 1343.43 612.331 1340.74 Q609.276 1338.06 609.276 1333.03 Q609.276 1329.72 611.174 1327.43 Q613.072 1325.14 616.451 1324.35 M614.739 1316.97 Q614.739 1319.65 616.405 1321.16 Q618.095 1322.66 621.127 1322.66 Q624.137 1322.66 625.826 1321.16 Q627.539 1319.65 627.539 1316.97 Q627.539 1314.28 625.826 1312.78 Q624.137 1311.27 621.127 1311.27 Q618.095 1311.27 616.405 1312.78 Q614.739 1314.28 614.739 1316.97 Z" fill="#000000" fill-rule="nonzero" fill-opacity="1" /><path clip-path="url(#clip980)" d="M641.289 1336.88 L646.174 1336.88 L646.174 1342.76 L641.289 1342.76 L641.289 1336.88 Z" fill="#000000" fill-rule="nonzero" fill-opacity="1" /><path clip-path="url(#clip980)" d="M656.405 1308.2 L674.761 1308.2 L674.761 1312.13 L660.687 1312.13 L660.687 1320.6 Q661.706 1320.26 662.724 1320.09 Q663.743 1319.91 664.761 1319.91 Q670.548 1319.91 673.928 1323.08 Q677.308 1326.25 677.308 1331.67 Q677.308 1337.25 673.835 1340.35 Q670.363 1343.43 664.044 1343.43 Q661.868 1343.43 659.599 1343.06 Q657.354 1342.69 654.947 1341.95 L654.947 1337.25 Q657.03 1338.38 659.252 1338.94 Q661.474 1339.49 663.951 1339.49 Q667.956 1339.49 670.294 1337.38 Q672.632 1335.28 672.632 1331.67 Q672.632 1328.06 670.294 1325.95 Q667.956 1323.84 663.951 1323.84 Q662.076 1323.84 660.201 1324.26 Q658.349 1324.68 656.405 1325.56 L656.405 1308.2 Z" fill="#000000" fill-rule="nonzero" fill-opacity="1" /></svg>
