<?xml version="1.0" encoding="utf-8"?>
<svg xmlns="http://www.w3.org/2000/svg" xmlns:xlink="http://www.w3.org/1999/xlink" width="600" height="400" viewBox="0 0 2400 1600">
<defs>
  <clipPath id="clip610">
    <rect x="0" y="0" width="2400" height="1600"/>
  </clipPath>
</defs>
<path clip-path="url(#clip610)" d="M0 1600 L2400 1600 L2400 0 L0 0  Z" fill="#ffffff" fill-rule="evenodd" fill-opacity="1"/>
<defs>
  <clipPath id="clip611">
    <rect x="265" y="47" width="2088" height="1377"/>
  </clipPath>
</defs>
<path clip-path="url(#clip610)" d="M265.445 1423.18 L2352.76 1423.18 L2352.76 47.2441 L265.445 47.2441  Z" fill="#ffffff" fill-rule="evenodd" fill-opacity="1"/>
<polyline clip-path="url(#clip611)" style="stroke:#000000; stroke-linecap:round; stroke-linejoin:round; stroke-width:2; stroke-opacity:0.1; fill:none" points="304.629,1423.18 304.629,47.2441 "/>
<polyline clip-path="url(#clip611)" style="stroke:#000000; stroke-linecap:round; stroke-linejoin:round; stroke-width:2; stroke-opacity:0.1; fill:none" points="801.892,1423.18 801.892,47.2441 "/>
<polyline clip-path="url(#clip611)" style="stroke:#000000; stroke-linecap:round; stroke-linejoin:round; stroke-width:2; stroke-opacity:0.1; fill:none" points="1299.16,1423.18 1299.16,47.2441 "/>
<polyline clip-path="url(#clip611)" style="stroke:#000000; stroke-linecap:round; stroke-linejoin:round; stroke-width:2; stroke-opacity:0.1; fill:none" points="1796.42,1423.18 1796.42,47.2441 "/>
<polyline clip-path="url(#clip611)" style="stroke:#000000; stroke-linecap:round; stroke-linejoin:round; stroke-width:2; stroke-opacity:0.1; fill:none" points="2293.68,1423.18 2293.68,47.2441 "/>
<polyline clip-path="url(#clip611)" style="stroke:#000000; stroke-linecap:round; stroke-linejoin:round; stroke-width:2; stroke-opacity:0.1; fill:none" points="265.445,1336.68 2352.76,1336.68 "/>
<polyline clip-path="url(#clip611)" style="stroke:#000000; stroke-linecap:round; stroke-linejoin:round; stroke-width:2; stroke-opacity:0.1; fill:none" points="265.445,1087.01 2352.76,1087.01 "/>
<polyline clip-path="url(#clip611)" style="stroke:#000000; stroke-linecap:round; stroke-linejoin:round; stroke-width:2; stroke-opacity:0.1; fill:none" points="265.445,837.33 2352.76,837.33 "/>
<polyline clip-path="url(#clip611)" style="stroke:#000000; stroke-linecap:round; stroke-linejoin:round; stroke-width:2; stroke-opacity:0.1; fill:none" points="265.445,587.652 2352.76,587.652 "/>
<polyline clip-path="url(#clip611)" style="stroke:#000000; stroke-linecap:round; stroke-linejoin:round; stroke-width:2; stroke-opacity:0.1; fill:none" points="265.445,337.975 2352.76,337.975 "/>
<polyline clip-path="url(#clip611)" style="stroke:#000000; stroke-linecap:round; stroke-linejoin:round; stroke-width:2; stroke-opacity:0.1; fill:none" points="265.445,88.2974 2352.76,88.2974 "/>
<polyline clip-path="url(#clip610)" style="stroke:#000000; stroke-linecap:round; stroke-linejoin:round; stroke-width:4; stroke-opacity:1; fill:none" points="265.445,1423.18 2352.76,1423.18 "/>
<polyline clip-path="url(#clip610)" style="stroke:#000000; stroke-linecap:round; stroke-linejoin:round; stroke-width:4; stroke-opacity:1; fill:none" points="304.629,1423.18 304.629,1404.28 "/>
<polyline clip-path="url(#clip610)" style="stroke:#000000; stroke-linecap:round; stroke-linejoin:round; stroke-width:4; stroke-opacity:1; fill:none" points="801.892,1423.18 801.892,1404.28 "/>
<polyline clip-path="url(#clip610)" style="stroke:#000000; stroke-linecap:round; stroke-linejoin:round; stroke-width:4; stroke-opacity:1; fill:none" points="1299.16,1423.18 1299.16,1404.28 "/>
<polyline clip-path="url(#clip610)" style="stroke:#000000; stroke-linecap:round; stroke-linejoin:round; stroke-width:4; stroke-opacity:1; fill:none" points="1796.42,1423.18 1796.42,1404.28 "/>
<polyline clip-path="url(#clip610)" style="stroke:#000000; stroke-linecap:round; stroke-linejoin:round; stroke-width:4; stroke-opacity:1; fill:none" points="2293.68,1423.18 2293.68,1404.28 "/>
<path clip-path="url(#clip610)" d="M304.629 1454.1 Q301.018 1454.1 299.189 1457.66 Q297.384 1461.2 297.384 1468.33 Q297.384 1475.44 299.189 1479.01 Q301.018 1482.55 304.629 1482.55 Q308.263 1482.55 310.069 1479.01 Q311.898 1475.44 311.898 1468.33 Q311.898 1461.2 310.069 1457.66 Q308.263 1454.1 304.629 1454.1 M304.629 1450.39 Q310.439 1450.39 313.495 1455 Q316.573 1459.58 316.573 1468.33 Q316.573 1477.06 313.495 1481.67 Q310.439 1486.25 304.629 1486.25 Q298.819 1486.25 295.74 1481.67 Q292.685 1477.06 292.685 1468.33 Q292.685 1459.58 295.74 1455 Q298.819 1450.39 304.629 1450.39 Z" fill="#000000" fill-rule="nonzero" fill-opacity="1" /><path clip-path="url(#clip610)" d="M765.584 1481.64 L781.904 1481.64 L781.904 1485.58 L759.959 1485.58 L759.959 1481.64 Q762.621 1478.89 767.205 1474.26 Q771.811 1469.61 772.992 1468.27 Q775.237 1465.74 776.117 1464.01 Q777.02 1462.25 777.02 1460.56 Q777.02 1457.8 775.075 1456.07 Q773.154 1454.33 770.052 1454.33 Q767.853 1454.33 765.399 1455.09 Q762.969 1455.86 760.191 1457.41 L760.191 1452.69 Q763.015 1451.55 765.469 1450.97 Q767.922 1450.39 769.959 1450.39 Q775.33 1450.39 778.524 1453.08 Q781.719 1455.77 781.719 1460.26 Q781.719 1462.39 780.908 1464.31 Q780.121 1466.2 778.015 1468.8 Q777.436 1469.47 774.334 1472.69 Q771.232 1475.88 765.584 1481.64 Z" fill="#000000" fill-rule="nonzero" fill-opacity="1" /><path clip-path="url(#clip610)" d="M791.765 1451.02 L810.121 1451.02 L810.121 1454.96 L796.047 1454.96 L796.047 1463.43 Q797.066 1463.08 798.084 1462.92 Q799.103 1462.73 800.121 1462.73 Q805.908 1462.73 809.288 1465.9 Q812.667 1469.08 812.667 1474.49 Q812.667 1480.07 809.195 1483.17 Q805.723 1486.25 799.404 1486.25 Q797.228 1486.25 794.959 1485.88 Q792.714 1485.51 790.306 1484.77 L790.306 1480.07 Q792.39 1481.2 794.612 1481.76 Q796.834 1482.32 799.311 1482.32 Q803.316 1482.32 805.654 1480.21 Q807.992 1478.1 807.992 1474.49 Q807.992 1470.88 805.654 1468.77 Q803.316 1466.67 799.311 1466.67 Q797.436 1466.67 795.561 1467.08 Q793.709 1467.5 791.765 1468.38 L791.765 1451.02 Z" fill="#000000" fill-rule="nonzero" fill-opacity="1" /><path clip-path="url(#clip610)" d="M831.88 1454.1 Q828.269 1454.1 826.441 1457.66 Q824.635 1461.2 824.635 1468.33 Q824.635 1475.44 826.441 1479.01 Q828.269 1482.55 831.88 1482.55 Q835.515 1482.55 837.32 1479.01 Q839.149 1475.44 839.149 1468.33 Q839.149 1461.2 837.32 1457.66 Q835.515 1454.1 831.88 1454.1 M831.88 1450.39 Q837.69 1450.39 840.746 1455 Q843.825 1459.58 843.825 1468.33 Q843.825 1477.06 840.746 1481.67 Q837.69 1486.25 831.88 1486.25 Q826.07 1486.25 822.991 1481.67 Q819.936 1477.06 819.936 1468.33 Q819.936 1459.58 822.991 1455 Q826.07 1450.39 831.88 1450.39 Z" fill="#000000" fill-rule="nonzero" fill-opacity="1" /><path clip-path="url(#clip610)" d="M1258.77 1451.02 L1277.13 1451.02 L1277.13 1454.96 L1263.06 1454.96 L1263.06 1463.43 Q1264.07 1463.08 1265.09 1462.92 Q1266.11 1462.73 1267.13 1462.73 Q1272.92 1462.73 1276.3 1465.9 Q1279.68 1469.08 1279.68 1474.49 Q1279.68 1480.07 1276.2 1483.17 Q1272.73 1486.25 1266.41 1486.25 Q1264.24 1486.25 1261.97 1485.88 Q1259.72 1485.51 1257.32 1484.77 L1257.32 1480.07 Q1259.4 1481.2 1261.62 1481.76 Q1263.84 1482.32 1266.32 1482.32 Q1270.32 1482.32 1272.66 1480.21 Q1275 1478.1 1275 1474.49 Q1275 1470.88 1272.66 1468.77 Q1270.32 1466.67 1266.32 1466.67 Q1264.44 1466.67 1262.57 1467.08 Q1260.72 1467.5 1258.77 1468.38 L1258.77 1451.02 Z" fill="#000000" fill-rule="nonzero" fill-opacity="1" /><path clip-path="url(#clip610)" d="M1298.89 1454.1 Q1295.28 1454.1 1293.45 1457.66 Q1291.64 1461.2 1291.64 1468.33 Q1291.64 1475.44 1293.45 1479.01 Q1295.28 1482.55 1298.89 1482.55 Q1302.52 1482.55 1304.33 1479.01 Q1306.16 1475.44 1306.16 1468.33 Q1306.16 1461.2 1304.33 1457.66 Q1302.52 1454.1 1298.89 1454.1 M1298.89 1450.39 Q1304.7 1450.39 1307.75 1455 Q1310.83 1459.58 1310.83 1468.33 Q1310.83 1477.06 1307.75 1481.67 Q1304.7 1486.25 1298.89 1486.25 Q1293.08 1486.25 1290 1481.67 Q1286.94 1477.06 1286.94 1468.33 Q1286.94 1459.58 1290 1455 Q1293.08 1450.39 1298.89 1450.39 Z" fill="#000000" fill-rule="nonzero" fill-opacity="1" /><path clip-path="url(#clip610)" d="M1329.05 1454.1 Q1325.44 1454.1 1323.61 1457.66 Q1321.81 1461.2 1321.81 1468.33 Q1321.81 1475.44 1323.61 1479.01 Q1325.44 1482.55 1329.05 1482.55 Q1332.68 1482.55 1334.49 1479.01 Q1336.32 1475.44 1336.32 1468.33 Q1336.32 1461.2 1334.49 1457.66 Q1332.68 1454.1 1329.05 1454.1 M1329.05 1450.39 Q1334.86 1450.39 1337.92 1455 Q1341 1459.58 1341 1468.33 Q1341 1477.06 1337.92 1481.67 Q1334.86 1486.25 1329.05 1486.25 Q1323.24 1486.25 1320.16 1481.67 Q1317.11 1477.06 1317.11 1468.33 Q1317.11 1459.58 1320.16 1455 Q1323.24 1450.39 1329.05 1450.39 Z" fill="#000000" fill-rule="nonzero" fill-opacity="1" /><path clip-path="url(#clip610)" d="M1754.69 1451.02 L1776.92 1451.02 L1776.92 1453.01 L1764.37 1485.58 L1759.49 1485.58 L1771.29 1454.96 L1754.69 1454.96 L1754.69 1451.02 Z" fill="#000000" fill-rule="nonzero" fill-opacity="1" /><path clip-path="url(#clip610)" d="M1786.08 1451.02 L1804.44 1451.02 L1804.44 1454.96 L1790.36 1454.96 L1790.36 1463.43 Q1791.38 1463.08 1792.4 1462.92 Q1793.42 1462.73 1794.44 1462.73 Q1800.23 1462.73 1803.61 1465.9 Q1806.99 1469.08 1806.99 1474.49 Q1806.99 1480.07 1803.51 1483.17 Q1800.04 1486.25 1793.72 1486.25 Q1791.55 1486.25 1789.28 1485.88 Q1787.03 1485.51 1784.62 1484.77 L1784.62 1480.07 Q1786.71 1481.2 1788.93 1481.76 Q1791.15 1482.32 1793.63 1482.32 Q1797.63 1482.32 1799.97 1480.21 Q1802.31 1478.1 1802.31 1474.49 Q1802.31 1470.88 1799.97 1468.77 Q1797.63 1466.67 1793.63 1466.67 Q1791.75 1466.67 1789.88 1467.08 Q1788.03 1467.5 1786.08 1468.38 L1786.08 1451.02 Z" fill="#000000" fill-rule="nonzero" fill-opacity="1" /><path clip-path="url(#clip610)" d="M1826.2 1454.1 Q1822.59 1454.1 1820.76 1457.66 Q1818.95 1461.2 1818.95 1468.33 Q1818.95 1475.44 1820.76 1479.01 Q1822.59 1482.55 1826.2 1482.55 Q1829.83 1482.55 1831.64 1479.01 Q1833.47 1475.44 1833.47 1468.33 Q1833.47 1461.2 1831.64 1457.66 Q1829.83 1454.1 1826.2 1454.1 M1826.2 1450.39 Q1832.01 1450.39 1835.06 1455 Q1838.14 1459.58 1838.14 1468.33 Q1838.14 1477.06 1835.06 1481.67 Q1832.01 1486.25 1826.2 1486.25 Q1820.39 1486.25 1817.31 1481.67 Q1814.25 1477.06 1814.25 1468.33 Q1814.25 1459.58 1817.31 1455 Q1820.39 1450.39 1826.2 1450.39 Z" fill="#000000" fill-rule="nonzero" fill-opacity="1" /><path clip-path="url(#clip610)" d="M2238.21 1481.64 L2245.85 1481.64 L2245.85 1455.28 L2237.54 1456.95 L2237.54 1452.69 L2245.8 1451.02 L2250.48 1451.02 L2250.48 1481.64 L2258.11 1481.64 L2258.11 1485.58 L2238.21 1485.58 L2238.21 1481.64 Z" fill="#000000" fill-rule="nonzero" fill-opacity="1" /><path clip-path="url(#clip610)" d="M2277.56 1454.1 Q2273.95 1454.1 2272.12 1457.66 Q2270.31 1461.2 2270.31 1468.33 Q2270.31 1475.44 2272.12 1479.01 Q2273.95 1482.55 2277.56 1482.55 Q2281.19 1482.55 2283 1479.01 Q2284.83 1475.44 2284.83 1468.33 Q2284.83 1461.2 2283 1457.66 Q2281.19 1454.1 2277.56 1454.1 M2277.56 1450.39 Q2283.37 1450.39 2286.42 1455 Q2289.5 1459.58 2289.5 1468.33 Q2289.5 1477.06 2286.42 1481.67 Q2283.37 1486.25 2277.56 1486.25 Q2271.75 1486.25 2268.67 1481.67 Q2265.61 1477.06 2265.61 1468.33 Q2265.61 1459.58 2268.67 1455 Q2271.75 1450.39 2277.56 1450.39 Z" fill="#000000" fill-rule="nonzero" fill-opacity="1" /><path clip-path="url(#clip610)" d="M2307.72 1454.1 Q2304.11 1454.1 2302.28 1457.66 Q2300.48 1461.2 2300.48 1468.33 Q2300.48 1475.44 2302.28 1479.01 Q2304.11 1482.55 2307.72 1482.55 Q2311.35 1482.55 2313.16 1479.01 Q2314.99 1475.44 2314.99 1468.33 Q2314.99 1461.2 2313.16 1457.66 Q2311.35 1454.1 2307.72 1454.1 M2307.72 1450.39 Q2313.53 1450.39 2316.59 1455 Q2319.66 1459.58 2319.66 1468.33 Q2319.66 1477.06 2316.59 1481.67 Q2313.53 1486.25 2307.72 1486.25 Q2301.91 1486.25 2298.83 1481.67 Q2295.78 1477.06 2295.78 1468.33 Q2295.78 1459.58 2298.83 1455 Q2301.91 1450.39 2307.72 1450.39 Z" fill="#000000" fill-rule="nonzero" fill-opacity="1" /><path clip-path="url(#clip610)" d="M2337.88 1454.1 Q2334.27 1454.1 2332.44 1457.66 Q2330.64 1461.2 2330.64 1468.33 Q2330.64 1475.44 2332.44 1479.01 Q2334.27 1482.55 2337.88 1482.55 Q2341.52 1482.55 2343.32 1479.01 Q2345.15 1475.44 2345.15 1468.33 Q2345.15 1461.2 2343.32 1457.66 Q2341.52 1454.1 2337.88 1454.1 M2337.88 1450.39 Q2343.69 1450.39 2346.75 1455 Q2349.83 1459.58 2349.83 1468.33 Q2349.83 1477.06 2346.75 1481.67 Q2343.69 1486.25 2337.88 1486.25 Q2332.07 1486.25 2328.99 1481.67 Q2325.94 1477.06 2325.94 1468.33 Q2325.94 1459.58 2328.99 1455 Q2332.07 1450.39 2337.88 1450.39 Z" fill="#000000" fill-rule="nonzero" fill-opacity="1" /><path clip-path="url(#clip610)" d="M1306.17 1518.52 L1312.03 1518.52 L1312.03 1568.04 L1306.17 1568.04 L1306.17 1518.52 Z" fill="#000000" fill-rule="nonzero" fill-opacity="1" /><polyline clip-path="url(#clip610)" style="stroke:#000000; stroke-linecap:round; stroke-linejoin:round; stroke-width:4; stroke-opacity:1; fill:none" points="265.445,1423.18 265.445,47.2441 "/>
<polyline clip-path="url(#clip610)" style="stroke:#000000; stroke-linecap:round; stroke-linejoin:round; stroke-width:4; stroke-opacity:1; fill:none" points="265.445,1336.68 284.342,1336.68 "/>
<polyline clip-path="url(#clip610)" style="stroke:#000000; stroke-linecap:round; stroke-linejoin:round; stroke-width:4; stroke-opacity:1; fill:none" points="265.445,1087.01 284.342,1087.01 "/>
<polyline clip-path="url(#clip610)" style="stroke:#000000; stroke-linecap:round; stroke-linejoin:round; stroke-width:4; stroke-opacity:1; fill:none" points="265.445,837.33 284.342,837.33 "/>
<polyline clip-path="url(#clip610)" style="stroke:#000000; stroke-linecap:round; stroke-linejoin:round; stroke-width:4; stroke-opacity:1; fill:none" points="265.445,587.652 284.342,587.652 "/>
<polyline clip-path="url(#clip610)" style="stroke:#000000; stroke-linecap:round; stroke-linejoin:round; stroke-width:4; stroke-opacity:1; fill:none" points="265.445,337.975 284.342,337.975 "/>
<polyline clip-path="url(#clip610)" style="stroke:#000000; stroke-linecap:round; stroke-linejoin:round; stroke-width:4; stroke-opacity:1; fill:none" points="265.445,88.2974 284.342,88.2974 "/>
<path clip-path="url(#clip610)" d="M117.825 1350.03 L125.464 1350.03 L125.464 1323.66 L117.154 1325.33 L117.154 1321.07 L125.418 1319.4 L130.093 1319.4 L130.093 1350.03 L137.732 1350.03 L137.732 1353.96 L117.825 1353.96 L117.825 1350.03 Z" fill="#000000" fill-rule="nonzero" fill-opacity="1" /><path clip-path="url(#clip610)" d="M157.177 1322.48 Q153.566 1322.48 151.737 1326.05 Q149.931 1329.59 149.931 1336.72 Q149.931 1343.83 151.737 1347.39 Q153.566 1350.93 157.177 1350.93 Q160.811 1350.93 162.616 1347.39 Q164.445 1343.83 164.445 1336.72 Q164.445 1329.59 162.616 1326.05 Q160.811 1322.48 157.177 1322.48 M157.177 1318.78 Q162.987 1318.78 166.042 1323.39 Q169.121 1327.97 169.121 1336.72 Q169.121 1345.45 166.042 1350.05 Q162.987 1354.64 157.177 1354.64 Q151.366 1354.64 148.288 1350.05 Q145.232 1345.45 145.232 1336.72 Q145.232 1327.97 148.288 1323.39 Q151.366 1318.78 157.177 1318.78 Z" fill="#000000" fill-rule="nonzero" fill-opacity="1" /><path clip-path="url(#clip610)" d="M187.338 1322.48 Q183.727 1322.48 181.899 1326.05 Q180.093 1329.59 180.093 1336.72 Q180.093 1343.83 181.899 1347.39 Q183.727 1350.93 187.338 1350.93 Q190.973 1350.93 192.778 1347.39 Q194.607 1343.83 194.607 1336.72 Q194.607 1329.59 192.778 1326.05 Q190.973 1322.48 187.338 1322.48 M187.338 1318.78 Q193.149 1318.78 196.204 1323.39 Q199.283 1327.97 199.283 1336.72 Q199.283 1345.45 196.204 1350.05 Q193.149 1354.64 187.338 1354.64 Q181.528 1354.64 178.45 1350.05 Q175.394 1345.45 175.394 1336.72 Q175.394 1327.97 178.45 1323.39 Q181.528 1318.78 187.338 1318.78 Z" fill="#000000" fill-rule="nonzero" fill-opacity="1" /><path clip-path="url(#clip610)" d="M217.5 1322.48 Q213.889 1322.48 212.061 1326.05 Q210.255 1329.59 210.255 1336.72 Q210.255 1343.83 212.061 1347.39 Q213.889 1350.93 217.5 1350.93 Q221.135 1350.93 222.94 1347.39 Q224.769 1343.83 224.769 1336.72 Q224.769 1329.59 222.94 1326.05 Q221.135 1322.48 217.5 1322.48 M217.5 1318.78 Q223.31 1318.78 226.366 1323.39 Q229.445 1327.97 229.445 1336.72 Q229.445 1345.45 226.366 1350.05 Q223.31 1354.64 217.5 1354.64 Q211.69 1354.64 208.612 1350.05 Q205.556 1345.45 205.556 1336.72 Q205.556 1327.97 208.612 1323.39 Q211.69 1318.78 217.5 1318.78 Z" fill="#000000" fill-rule="nonzero" fill-opacity="1" /><path clip-path="url(#clip610)" d="M121.043 1100.35 L137.362 1100.35 L137.362 1104.29 L115.418 1104.29 L115.418 1100.35 Q118.08 1097.6 122.663 1092.97 Q127.269 1088.32 128.45 1086.97 Q130.695 1084.45 131.575 1082.71 Q132.478 1080.95 132.478 1079.26 Q132.478 1076.51 130.533 1074.77 Q128.612 1073.04 125.51 1073.04 Q123.311 1073.04 120.857 1073.8 Q118.427 1074.57 115.649 1076.12 L115.649 1071.39 Q118.473 1070.26 120.927 1069.68 Q123.38 1069.1 125.418 1069.1 Q130.788 1069.1 133.982 1071.79 Q137.177 1074.47 137.177 1078.96 Q137.177 1081.09 136.367 1083.01 Q135.579 1084.91 133.473 1087.5 Q132.894 1088.18 129.792 1091.39 Q126.691 1094.59 121.043 1100.35 Z" fill="#000000" fill-rule="nonzero" fill-opacity="1" /><path clip-path="url(#clip610)" d="M157.177 1072.81 Q153.566 1072.81 151.737 1076.37 Q149.931 1079.91 149.931 1087.04 Q149.931 1094.15 151.737 1097.71 Q153.566 1101.25 157.177 1101.25 Q160.811 1101.25 162.616 1097.71 Q164.445 1094.15 164.445 1087.04 Q164.445 1079.91 162.616 1076.37 Q160.811 1072.81 157.177 1072.81 M157.177 1069.1 Q162.987 1069.1 166.042 1073.71 Q169.121 1078.29 169.121 1087.04 Q169.121 1095.77 166.042 1100.38 Q162.987 1104.96 157.177 1104.96 Q151.366 1104.96 148.288 1100.38 Q145.232 1095.77 145.232 1087.04 Q145.232 1078.29 148.288 1073.71 Q151.366 1069.1 157.177 1069.1 Z" fill="#000000" fill-rule="nonzero" fill-opacity="1" /><path clip-path="url(#clip610)" d="M187.338 1072.81 Q183.727 1072.81 181.899 1076.37 Q180.093 1079.91 180.093 1087.04 Q180.093 1094.15 181.899 1097.71 Q183.727 1101.25 187.338 1101.25 Q190.973 1101.25 192.778 1097.71 Q194.607 1094.15 194.607 1087.04 Q194.607 1079.91 192.778 1076.37 Q190.973 1072.81 187.338 1072.81 M187.338 1069.1 Q193.149 1069.1 196.204 1073.71 Q199.283 1078.29 199.283 1087.04 Q199.283 1095.77 196.204 1100.38 Q193.149 1104.96 187.338 1104.96 Q181.528 1104.96 178.45 1100.38 Q175.394 1095.77 175.394 1087.04 Q175.394 1078.29 178.45 1073.71 Q181.528 1069.1 187.338 1069.1 Z" fill="#000000" fill-rule="nonzero" fill-opacity="1" /><path clip-path="url(#clip610)" d="M217.5 1072.81 Q213.889 1072.81 212.061 1076.37 Q210.255 1079.91 210.255 1087.04 Q210.255 1094.15 212.061 1097.71 Q213.889 1101.25 217.5 1101.25 Q221.135 1101.25 222.94 1097.71 Q224.769 1094.15 224.769 1087.04 Q224.769 1079.91 222.94 1076.37 Q221.135 1072.81 217.5 1072.81 M217.5 1069.1 Q223.31 1069.1 226.366 1073.71 Q229.445 1078.29 229.445 1087.04 Q229.445 1095.77 226.366 1100.38 Q223.31 1104.96 217.5 1104.96 Q211.69 1104.96 208.612 1100.38 Q205.556 1095.77 205.556 1087.04 Q205.556 1078.29 208.612 1073.71 Q211.69 1069.1 217.5 1069.1 Z" fill="#000000" fill-rule="nonzero" fill-opacity="1" /><path clip-path="url(#clip610)" d="M131.181 835.976 Q134.538 836.693 136.413 838.962 Q138.311 841.23 138.311 844.564 Q138.311 849.679 134.792 852.48 Q131.274 855.281 124.793 855.281 Q122.617 855.281 120.302 854.841 Q118.01 854.425 115.556 853.568 L115.556 849.054 Q117.501 850.188 119.816 850.767 Q122.13 851.346 124.654 851.346 Q129.052 851.346 131.343 849.61 Q133.658 847.874 133.658 844.564 Q133.658 841.508 131.505 839.795 Q129.376 838.059 125.556 838.059 L121.529 838.059 L121.529 834.216 L125.742 834.216 Q129.191 834.216 131.019 832.851 Q132.848 831.462 132.848 828.869 Q132.848 826.207 130.95 824.795 Q129.075 823.36 125.556 823.36 Q123.635 823.36 121.436 823.777 Q119.237 824.193 116.598 825.073 L116.598 820.906 Q119.26 820.165 121.575 819.795 Q123.913 819.425 125.973 819.425 Q131.297 819.425 134.399 821.855 Q137.501 824.263 137.501 828.383 Q137.501 831.253 135.857 833.244 Q134.214 835.212 131.181 835.976 Z" fill="#000000" fill-rule="nonzero" fill-opacity="1" /><path clip-path="url(#clip610)" d="M157.177 823.128 Q153.566 823.128 151.737 826.693 Q149.931 830.235 149.931 837.364 Q149.931 844.471 151.737 848.036 Q153.566 851.577 157.177 851.577 Q160.811 851.577 162.616 848.036 Q164.445 844.471 164.445 837.364 Q164.445 830.235 162.616 826.693 Q160.811 823.128 157.177 823.128 M157.177 819.425 Q162.987 819.425 166.042 824.031 Q169.121 828.615 169.121 837.364 Q169.121 846.091 166.042 850.698 Q162.987 855.281 157.177 855.281 Q151.366 855.281 148.288 850.698 Q145.232 846.091 145.232 837.364 Q145.232 828.615 148.288 824.031 Q151.366 819.425 157.177 819.425 Z" fill="#000000" fill-rule="nonzero" fill-opacity="1" /><path clip-path="url(#clip610)" d="M187.338 823.128 Q183.727 823.128 181.899 826.693 Q180.093 830.235 180.093 837.364 Q180.093 844.471 181.899 848.036 Q183.727 851.577 187.338 851.577 Q190.973 851.577 192.778 848.036 Q194.607 844.471 194.607 837.364 Q194.607 830.235 192.778 826.693 Q190.973 823.128 187.338 823.128 M187.338 819.425 Q193.149 819.425 196.204 824.031 Q199.283 828.615 199.283 837.364 Q199.283 846.091 196.204 850.698 Q193.149 855.281 187.338 855.281 Q181.528 855.281 178.45 850.698 Q175.394 846.091 175.394 837.364 Q175.394 828.615 178.45 824.031 Q181.528 819.425 187.338 819.425 Z" fill="#000000" fill-rule="nonzero" fill-opacity="1" /><path clip-path="url(#clip610)" d="M217.5 823.128 Q213.889 823.128 212.061 826.693 Q210.255 830.235 210.255 837.364 Q210.255 844.471 212.061 848.036 Q213.889 851.577 217.5 851.577 Q221.135 851.577 222.94 848.036 Q224.769 844.471 224.769 837.364 Q224.769 830.235 222.94 826.693 Q221.135 823.128 217.5 823.128 M217.5 819.425 Q223.31 819.425 226.366 824.031 Q229.445 828.615 229.445 837.364 Q229.445 846.091 226.366 850.698 Q223.31 855.281 217.5 855.281 Q211.69 855.281 208.612 850.698 Q205.556 846.091 205.556 837.364 Q205.556 828.615 208.612 824.031 Q211.69 819.425 217.5 819.425 Z" fill="#000000" fill-rule="nonzero" fill-opacity="1" /><path clip-path="url(#clip610)" d="M129.862 574.446 L118.056 592.895 L129.862 592.895 L129.862 574.446 M128.635 570.372 L134.515 570.372 L134.515 592.895 L139.445 592.895 L139.445 596.784 L134.515 596.784 L134.515 604.932 L129.862 604.932 L129.862 596.784 L114.26 596.784 L114.26 592.27 L128.635 570.372 Z" fill="#000000" fill-rule="nonzero" fill-opacity="1" /><path clip-path="url(#clip610)" d="M157.177 573.451 Q153.566 573.451 151.737 577.016 Q149.931 580.557 149.931 587.687 Q149.931 594.793 151.737 598.358 Q153.566 601.9 157.177 601.9 Q160.811 601.9 162.616 598.358 Q164.445 594.793 164.445 587.687 Q164.445 580.557 162.616 577.016 Q160.811 573.451 157.177 573.451 M157.177 569.747 Q162.987 569.747 166.042 574.354 Q169.121 578.937 169.121 587.687 Q169.121 596.414 166.042 601.02 Q162.987 605.604 157.177 605.604 Q151.366 605.604 148.288 601.02 Q145.232 596.414 145.232 587.687 Q145.232 578.937 148.288 574.354 Q151.366 569.747 157.177 569.747 Z" fill="#000000" fill-rule="nonzero" fill-opacity="1" /><path clip-path="url(#clip610)" d="M187.338 573.451 Q183.727 573.451 181.899 577.016 Q180.093 580.557 180.093 587.687 Q180.093 594.793 181.899 598.358 Q183.727 601.9 187.338 601.9 Q190.973 601.9 192.778 598.358 Q194.607 594.793 194.607 587.687 Q194.607 580.557 192.778 577.016 Q190.973 573.451 187.338 573.451 M187.338 569.747 Q193.149 569.747 196.204 574.354 Q199.283 578.937 199.283 587.687 Q199.283 596.414 196.204 601.02 Q193.149 605.604 187.338 605.604 Q181.528 605.604 178.45 601.02 Q175.394 596.414 175.394 587.687 Q175.394 578.937 178.45 574.354 Q181.528 569.747 187.338 569.747 Z" fill="#000000" fill-rule="nonzero" fill-opacity="1" /><path clip-path="url(#clip610)" d="M217.5 573.451 Q213.889 573.451 212.061 577.016 Q210.255 580.557 210.255 587.687 Q210.255 594.793 212.061 598.358 Q213.889 601.9 217.5 601.9 Q221.135 601.9 222.94 598.358 Q224.769 594.793 224.769 587.687 Q224.769 580.557 222.94 577.016 Q221.135 573.451 217.5 573.451 M217.5 569.747 Q223.31 569.747 226.366 574.354 Q229.445 578.937 229.445 587.687 Q229.445 596.414 226.366 601.02 Q223.31 605.604 217.5 605.604 Q211.69 605.604 208.612 601.02 Q205.556 596.414 205.556 587.687 Q205.556 578.937 208.612 574.354 Q211.69 569.747 217.5 569.747 Z" fill="#000000" fill-rule="nonzero" fill-opacity="1" /><path clip-path="url(#clip610)" d="M117.061 320.695 L135.417 320.695 L135.417 324.63 L121.343 324.63 L121.343 333.102 Q122.362 332.755 123.38 332.593 Q124.399 332.408 125.418 332.408 Q131.205 332.408 134.584 335.579 Q137.964 338.75 137.964 344.167 Q137.964 349.746 134.492 352.847 Q131.019 355.926 124.7 355.926 Q122.524 355.926 120.255 355.556 Q118.01 355.185 115.603 354.445 L115.603 349.746 Q117.686 350.88 119.908 351.435 Q122.13 351.991 124.607 351.991 Q128.612 351.991 130.95 349.885 Q133.288 347.778 133.288 344.167 Q133.288 340.556 130.95 338.449 Q128.612 336.343 124.607 336.343 Q122.732 336.343 120.857 336.76 Q119.006 337.176 117.061 338.056 L117.061 320.695 Z" fill="#000000" fill-rule="nonzero" fill-opacity="1" /><path clip-path="url(#clip610)" d="M157.177 323.774 Q153.566 323.774 151.737 327.338 Q149.931 330.88 149.931 338.01 Q149.931 345.116 151.737 348.681 Q153.566 352.222 157.177 352.222 Q160.811 352.222 162.616 348.681 Q164.445 345.116 164.445 338.01 Q164.445 330.88 162.616 327.338 Q160.811 323.774 157.177 323.774 M157.177 320.07 Q162.987 320.07 166.042 324.676 Q169.121 329.26 169.121 338.01 Q169.121 346.736 166.042 351.343 Q162.987 355.926 157.177 355.926 Q151.366 355.926 148.288 351.343 Q145.232 346.736 145.232 338.01 Q145.232 329.26 148.288 324.676 Q151.366 320.07 157.177 320.07 Z" fill="#000000" fill-rule="nonzero" fill-opacity="1" /><path clip-path="url(#clip610)" d="M187.338 323.774 Q183.727 323.774 181.899 327.338 Q180.093 330.88 180.093 338.01 Q180.093 345.116 181.899 348.681 Q183.727 352.222 187.338 352.222 Q190.973 352.222 192.778 348.681 Q194.607 345.116 194.607 338.01 Q194.607 330.88 192.778 327.338 Q190.973 323.774 187.338 323.774 M187.338 320.07 Q193.149 320.07 196.204 324.676 Q199.283 329.26 199.283 338.01 Q199.283 346.736 196.204 351.343 Q193.149 355.926 187.338 355.926 Q181.528 355.926 178.45 351.343 Q175.394 346.736 175.394 338.01 Q175.394 329.26 178.45 324.676 Q181.528 320.07 187.338 320.07 Z" fill="#000000" fill-rule="nonzero" fill-opacity="1" /><path clip-path="url(#clip610)" d="M217.5 323.774 Q213.889 323.774 212.061 327.338 Q210.255 330.88 210.255 338.01 Q210.255 345.116 212.061 348.681 Q213.889 352.222 217.5 352.222 Q221.135 352.222 222.94 348.681 Q224.769 345.116 224.769 338.01 Q224.769 330.88 222.94 327.338 Q221.135 323.774 217.5 323.774 M217.5 320.07 Q223.31 320.07 226.366 324.676 Q229.445 329.26 229.445 338.01 Q229.445 346.736 226.366 351.343 Q223.31 355.926 217.5 355.926 Q211.69 355.926 208.612 351.343 Q205.556 346.736 205.556 338.01 Q205.556 329.26 208.612 324.676 Q211.69 320.07 217.5 320.07 Z" fill="#000000" fill-rule="nonzero" fill-opacity="1" /><path clip-path="url(#clip610)" d="M127.593 86.434 Q124.445 86.434 122.593 88.5867 Q120.765 90.7395 120.765 94.4895 Q120.765 98.2163 122.593 100.392 Q124.445 102.545 127.593 102.545 Q130.742 102.545 132.57 100.392 Q134.422 98.2163 134.422 94.4895 Q134.422 90.7395 132.57 88.5867 Q130.742 86.434 127.593 86.434 M136.876 71.7813 L136.876 76.0405 Q135.117 75.2072 133.311 74.7674 Q131.529 74.3276 129.769 74.3276 Q125.14 74.3276 122.686 77.4525 Q120.255 80.5775 119.908 86.8969 Q121.274 84.8831 123.334 83.8183 Q125.394 82.7303 127.871 82.7303 Q133.08 82.7303 136.089 85.9016 Q139.121 89.0497 139.121 94.4895 Q139.121 99.8135 135.973 103.031 Q132.825 106.249 127.593 106.249 Q121.598 106.249 118.427 101.665 Q115.256 97.0589 115.256 88.3321 Q115.256 80.1377 119.144 75.2766 Q123.033 70.3924 129.584 70.3924 Q131.343 70.3924 133.126 70.7396 Q134.931 71.0868 136.876 71.7813 Z" fill="#000000" fill-rule="nonzero" fill-opacity="1" /><path clip-path="url(#clip610)" d="M157.177 74.0961 Q153.566 74.0961 151.737 77.6609 Q149.931 81.2025 149.931 88.3321 Q149.931 95.4386 151.737 99.0034 Q153.566 102.545 157.177 102.545 Q160.811 102.545 162.616 99.0034 Q164.445 95.4386 164.445 88.3321 Q164.445 81.2025 162.616 77.6609 Q160.811 74.0961 157.177 74.0961 M157.177 70.3924 Q162.987 70.3924 166.042 74.9989 Q169.121 79.5822 169.121 88.3321 Q169.121 97.0589 166.042 101.665 Q162.987 106.249 157.177 106.249 Q151.366 106.249 148.288 101.665 Q145.232 97.0589 145.232 88.3321 Q145.232 79.5822 148.288 74.9989 Q151.366 70.3924 157.177 70.3924 Z" fill="#000000" fill-rule="nonzero" fill-opacity="1" /><path clip-path="url(#clip610)" d="M187.338 74.0961 Q183.727 74.0961 181.899 77.6609 Q180.093 81.2025 180.093 88.3321 Q180.093 95.4386 181.899 99.0034 Q183.727 102.545 187.338 102.545 Q190.973 102.545 192.778 99.0034 Q194.607 95.4386 194.607 88.3321 Q194.607 81.2025 192.778 77.6609 Q190.973 74.0961 187.338 74.0961 M187.338 70.3924 Q193.149 70.3924 196.204 74.9989 Q199.283 79.5822 199.283 88.3321 Q199.283 97.0589 196.204 101.665 Q193.149 106.249 187.338 106.249 Q181.528 106.249 178.45 101.665 Q175.394 97.0589 175.394 88.3321 Q175.394 79.5822 178.45 74.9989 Q181.528 70.3924 187.338 70.3924 Z" fill="#000000" fill-rule="nonzero" fill-opacity="1" /><path clip-path="url(#clip610)" d="M217.5 74.0961 Q213.889 74.0961 212.061 77.6609 Q210.255 81.2025 210.255 88.3321 Q210.255 95.4386 212.061 99.0034 Q213.889 102.545 217.5 102.545 Q221.135 102.545 222.94 99.0034 Q224.769 95.4386 224.769 88.3321 Q224.769 81.2025 222.94 77.6609 Q221.135 74.0961 217.5 74.0961 M217.5 70.3924 Q223.31 70.3924 226.366 74.9989 Q229.445 79.5822 229.445 88.3321 Q229.445 97.0589 226.366 101.665 Q223.31 106.249 217.5 106.249 Q211.69 106.249 208.612 101.665 Q205.556 97.0589 205.556 88.3321 Q205.556 79.5822 208.612 74.9989 Q211.69 70.3924 217.5 70.3924 Z" fill="#000000" fill-rule="nonzero" fill-opacity="1" /><path clip-path="url(#clip610)" d="M14.479 1067.82 L14.479 1061.96 L64.0042 1061.96 L64.0042 1067.82 L14.479 1067.82 Z" fill="#000000" fill-rule="nonzero" fill-opacity="1" /><path clip-path="url(#clip610)" d="M14.5426 1014.92 Q21.8632 1019.19 29.0246 1021.25 Q36.186 1023.32 43.5384 1023.32 Q50.8908 1023.32 58.1159 1021.25 Q65.3091 1019.15 72.5979 1014.92 L72.5979 1020.01 Q65.1182 1024.79 57.8931 1027.18 Q50.668 1029.53 43.5384 1029.53 Q36.4406 1029.53 29.2474 1027.18 Q22.0542 1024.82 14.5426 1020.01 L14.5426 1014.92 Z" fill="#000000" fill-rule="nonzero" fill-opacity="1" /><path clip-path="url(#clip610)" d="M14.479 1003.56 L14.479 997.702 L64.0042 997.702 L64.0042 1003.56 L14.479 1003.56 Z" fill="#000000" fill-rule="nonzero" fill-opacity="1" /><path clip-path="url(#clip610)" d="M23.1363 961.608 L40.8648 961.608 L40.8648 943.88 L46.2757 943.88 L46.2757 961.608 L64.0042 961.608 L64.0042 966.956 L46.2757 966.956 L46.2757 984.684 L40.8648 984.684 L40.8648 966.956 L23.1363 966.956 L23.1363 961.608 Z" fill="#000000" fill-rule="nonzero" fill-opacity="1" /><path clip-path="url(#clip610)" d="M58.5933 928.889 L58.5933 918.385 L22.3406 918.385 L24.6323 929.812 L18.7758 929.812 L16.4842 918.449 L16.4842 912.019 L58.5933 912.019 L58.5933 901.516 L64.0042 901.516 L64.0042 928.889 L58.5933 928.889 Z" fill="#000000" fill-rule="nonzero" fill-opacity="1" /><path clip-path="url(#clip610)" d="M14.5426 890.281 L14.5426 885.188 Q22.0542 880.414 29.2474 878.058 Q36.4406 875.671 43.5384 875.671 Q50.668 875.671 57.8931 878.058 Q65.1182 880.414 72.5979 885.188 L72.5979 890.281 Q65.3091 886.047 58.1159 883.979 Q50.8908 881.878 43.5384 881.878 Q36.186 881.878 29.0246 883.979 Q21.8632 886.047 14.5426 890.281 Z" fill="#000000" fill-rule="nonzero" fill-opacity="1" /><path clip-path="url(#clip610)" d="M20.1444 807.367 L26.9239 807.367 Q23.9002 810.614 22.4043 814.306 Q20.9083 817.966 20.9083 822.104 Q20.9083 830.252 25.9054 834.581 Q30.8707 838.909 40.2919 838.909 Q49.6813 838.909 54.6784 834.581 Q59.6436 830.252 59.6436 822.104 Q59.6436 817.966 58.1477 814.306 Q56.6518 810.614 53.6281 807.367 L60.3439 807.367 Q62.6355 810.741 63.7814 814.529 Q64.9272 818.284 64.9272 822.486 Q64.9272 833.276 58.3387 839.482 Q51.7183 845.689 40.2919 845.689 Q28.8336 845.689 22.2451 839.482 Q15.6248 833.276 15.6248 822.486 Q15.6248 818.221 16.7706 814.465 Q17.8846 810.677 20.1444 807.367 Z" fill="#000000" fill-rule="nonzero" fill-opacity="1" /><path clip-path="url(#clip610)" d="M36.2815 799.951 L36.2815 796.259 L64.0042 796.259 L64.0042 799.951 L36.2815 799.951 Z" fill="#000000" fill-rule="nonzero" fill-opacity="1" /><path clip-path="url(#clip610)" d="M16.4842 755.741 L16.4842 750.331 L70.0516 766.881 L70.0516 772.292 L16.4842 755.741 Z" fill="#000000" fill-rule="nonzero" fill-opacity="1" /><path clip-path="url(#clip610)" d="M58.5933 717.102 L58.5933 694.662 L64.0042 694.662 L64.0042 724.836 L58.5933 724.836 Q54.8057 721.176 48.44 714.874 Q42.0425 708.54 40.1964 706.916 Q36.7271 703.829 34.34 702.62 Q31.921 701.378 29.5975 701.378 Q25.8099 701.378 23.4228 704.052 Q21.0356 706.694 21.0356 710.959 Q21.0356 713.982 22.086 717.356 Q23.1363 720.698 25.2688 724.518 L18.7758 724.518 Q17.2162 720.635 16.4205 717.261 Q15.6248 713.887 15.6248 711.086 Q15.6248 703.702 19.3169 699.309 Q23.009 694.917 29.1837 694.917 Q32.112 694.917 34.7537 696.031 Q37.3637 697.113 40.9285 700.01 Q41.8515 700.805 46.2757 705.07 Q50.668 709.335 58.5933 717.102 Z" fill="#000000" fill-rule="nonzero" fill-opacity="1" /><path clip-path="url(#clip610)" d="M28.3562 685.782 L28.3562 651.63 L34.2127 651.63 L34.2127 656.118 L56.1107 656.118 Q58.4023 656.118 59.4208 655.354 Q60.4075 654.558 60.4075 652.808 Q60.4075 652.33 60.3439 651.63 Q60.2484 650.93 60.2166 650.707 L64.4498 650.707 Q64.8635 651.821 65.0545 652.999 Q65.2455 654.177 65.2455 655.354 Q65.2455 659.174 63.1766 660.638 Q61.0759 662.102 55.4741 662.102 L34.2127 662.102 L34.2127 675.247 L64.0042 675.247 L64.0042 681.231 L34.2127 681.231 L34.2127 685.782 L28.3562 685.782 Z" fill="#000000" fill-rule="nonzero" fill-opacity="1" /><path clip-path="url(#clip610)" d="M14.5426 607.961 Q21.8632 612.227 29.0246 614.295 Q36.186 616.364 43.5384 616.364 Q50.8908 616.364 58.1159 614.295 Q65.3091 612.195 72.5979 607.961 L72.5979 613.054 Q65.1182 617.828 57.8931 620.215 Q50.668 622.571 43.5384 622.571 Q36.4406 622.571 29.2474 620.215 Q22.0542 617.86 14.5426 613.054 L14.5426 607.961 Z" fill="#000000" fill-rule="nonzero" fill-opacity="1" /><path clip-path="url(#clip610)" d="M77.5631 597.203 L28.3562 597.203 L28.3562 591.347 L50.5089 591.347 Q55.124 591.347 57.4793 589.151 Q59.8346 586.955 59.8346 582.658 Q59.8346 577.947 57.161 575.592 Q54.4874 573.205 49.1402 573.205 L28.3562 573.205 L28.3562 567.348 L55.7924 567.348 Q57.7021 567.348 58.6251 566.807 Q59.5163 566.234 59.5163 565.057 Q59.5163 564.77 59.3572 564.261 Q59.1662 563.752 58.7843 562.86 L63.4949 562.86 Q64.227 564.165 64.5771 565.343 Q64.9272 566.489 64.9272 567.603 Q64.9272 569.799 63.6859 571.104 Q62.4446 572.409 59.8983 572.886 Q62.4127 574.478 63.6859 576.801 Q64.9272 579.093 64.9272 582.212 Q64.9272 585.459 63.6859 587.75 Q62.4446 590.01 59.9619 591.347 L77.5631 591.347 L77.5631 597.203 Z" fill="#000000" fill-rule="nonzero" fill-opacity="1" /><path clip-path="url(#clip610)" d="M16.4842 554.871 L16.4842 548.442 L36.568 548.442 L16.4842 527.117 L16.4842 518.842 L38.6368 542.427 L64.0042 517.155 L64.0042 525.621 L41.1194 548.442 L64.0042 548.442 L64.0042 554.871 L16.4842 554.871 Z" fill="#000000" fill-rule="nonzero" fill-opacity="1" /><path clip-path="url(#clip610)" d="M16.4842 488.095 L34.2127 470.812 L34.2127 477.21 L21.6404 491.214 L34.2127 505.219 L34.2127 511.617 L16.4842 494.334 L16.4842 488.095 Z" fill="#000000" fill-rule="nonzero" fill-opacity="1" /><path clip-path="url(#clip610)" d="M58.5933 451.397 L58.5933 428.958 L64.0042 428.958 L64.0042 459.131 L58.5933 459.131 Q54.8057 455.471 48.44 449.169 Q42.0425 442.835 40.1964 441.212 Q36.7271 438.124 34.34 436.915 Q31.921 435.674 29.5975 435.674 Q25.8099 435.674 23.4228 438.347 Q21.0356 440.989 21.0356 445.254 Q21.0356 448.278 22.086 451.652 Q23.1363 454.994 25.2688 458.813 L18.7758 458.813 Q17.2162 454.93 16.4205 451.556 Q15.6248 448.182 15.6248 445.381 Q15.6248 437.997 19.3169 433.605 Q23.009 429.212 29.1837 429.212 Q32.112 429.212 34.7537 430.326 Q37.3637 431.409 40.9285 434.305 Q41.8515 435.101 46.2757 439.366 Q50.668 443.631 58.5933 451.397 Z" fill="#000000" fill-rule="nonzero" fill-opacity="1" /><path clip-path="url(#clip610)" d="M14.5426 417.213 L14.5426 412.121 Q22.0542 407.346 29.2474 404.991 Q36.4406 402.604 43.5384 402.604 Q50.668 402.604 57.8931 404.991 Q65.1182 407.346 72.5979 412.121 L72.5979 417.213 Q65.3091 412.98 58.1159 410.911 Q50.8908 408.81 43.5384 408.81 Q36.186 408.81 29.0246 410.911 Q21.8632 412.98 14.5426 417.213 Z" fill="#000000" fill-rule="nonzero" fill-opacity="1" /><polyline clip-path="url(#clip611)" style="stroke:#009af9; stroke-linecap:round; stroke-linejoin:round; stroke-width:4; stroke-opacity:1; fill:none" points="324.52,1384.24 344.41,1364.7 364.301,1327.54 384.191,1282.87 404.082,1232.46 423.972,1176.93 443.863,1116.26 463.753,1050.34 483.644,978.997 503.534,902.802 523.425,822.399 543.315,738.504 563.206,652.594 583.096,566.372 602.987,481.664 622.877,400.433 642.768,324.813 662.658,256.866 682.549,198.325 702.439,150.743 722.33,115.544 742.22,93.8068 762.111,86.1857 782.002,92.8947 801.892,113.712 821.783,148.026 841.673,194.85 861.564,252.848 881.454,320.362 901.345,395.5 921.235,476.186 941.126,560.26 961.016,645.516 980.907,729.8 1000.8,811.074 1020.69,887.474 1040.58,957.385 1060.47,1019.46 1080.36,1072.69 1100.25,1116.38 1120.14,1150.16 1140.03,1174.05 1159.92,1188.37 1179.81,1193.73 1199.7,1191.01 1219.59,1181.33 1239.48,1165.95 1259.37,1146.26 1279.26,1123.68 1299.16,1099.67 1319.05,1075.6 1338.94,1052.75 1358.83,1032.28 1378.72,1015.12 1398.61,1002.04 1418.5,993.549 1438.39,989.941 1458.28,991.27 1478.17,997.377 1498.06,1007.88 1517.95,1022.22 1537.84,1039.69 1557.73,1059.49 1577.62,1080.7 1597.51,1102.41 1617.4,1123.69 1637.29,1143.66 1657.18,1161.53 1677.07,1176.59 1696.97,1188.3 1716.86,1196.23 1736.75,1200.16 1756.64,1200 1776.53,1195.87 1796.42,1188.03 1816.31,1176.87 1836.2,1162.95 1856.09,1146.9 1875.98,1129.45 1895.87,1111.35 1915.76,1093.42 1935.65,1076.41 1955.54,1061.08 1975.43,1048.08 1995.32,1038.01 2015.21,1031.35 2035.1,1028.44 2054.99,1029.49 2074.89,1034.6 2094.78,1043.73 2114.67,1056.65 2134.56,1073.08 2154.45,1092.6 2174.34,1114.7 2194.23,1138.81 2214.12,1164.3 2234.01,1190.52 2253.9,1216.84 2273.79,1242.6 2293.68,1267.22 "/>
</svg>
