<?xml version="1.0" encoding="utf-8"?>
<svg xmlns="http://www.w3.org/2000/svg" xmlns:xlink="http://www.w3.org/1999/xlink" width="600" height="400" viewBox="0 0 2400 1600">
<defs>
  <clipPath id="clip130">
    <rect x="0" y="0" width="2400" height="1600"/>
  </clipPath>
</defs>
<path clip-path="url(#clip130)" d="M0 1600 L2400 1600 L2400 0 L0 0  Z" fill="#ffffff" fill-rule="evenodd" fill-opacity="1"/>
<defs>
  <clipPath id="clip131">
    <rect x="265" y="47" width="2088" height="1377"/>
  </clipPath>
</defs>
<path clip-path="url(#clip130)" d="M265.445 1423.18 L2352.76 1423.18 L2352.76 47.2441 L265.445 47.2441  Z" fill="#ffffff" fill-rule="evenodd" fill-opacity="1"/>
<polyline clip-path="url(#clip131)" style="stroke:#000000; stroke-linecap:round; stroke-linejoin:round; stroke-width:2; stroke-opacity:0.1; fill:none" points="304.629,1423.18 304.629,47.2441 "/>
<polyline clip-path="url(#clip131)" style="stroke:#000000; stroke-linecap:round; stroke-linejoin:round; stroke-width:2; stroke-opacity:0.1; fill:none" points="801.892,1423.18 801.892,47.2441 "/>
<polyline clip-path="url(#clip131)" style="stroke:#000000; stroke-linecap:round; stroke-linejoin:round; stroke-width:2; stroke-opacity:0.1; fill:none" points="1299.16,1423.18 1299.16,47.2441 "/>
<polyline clip-path="url(#clip131)" style="stroke:#000000; stroke-linecap:round; stroke-linejoin:round; stroke-width:2; stroke-opacity:0.1; fill:none" points="1796.42,1423.18 1796.42,47.2441 "/>
<polyline clip-path="url(#clip131)" style="stroke:#000000; stroke-linecap:round; stroke-linejoin:round; stroke-width:2; stroke-opacity:0.1; fill:none" points="2293.68,1423.18 2293.68,47.2441 "/>
<polyline clip-path="url(#clip131)" style="stroke:#000000; stroke-linecap:round; stroke-linejoin:round; stroke-width:2; stroke-opacity:0.1; fill:none" points="265.445,1334.91 2352.76,1334.91 "/>
<polyline clip-path="url(#clip131)" style="stroke:#000000; stroke-linecap:round; stroke-linejoin:round; stroke-width:2; stroke-opacity:0.1; fill:none" points="265.445,1085.01 2352.76,1085.01 "/>
<polyline clip-path="url(#clip131)" style="stroke:#000000; stroke-linecap:round; stroke-linejoin:round; stroke-width:2; stroke-opacity:0.1; fill:none" points="265.445,835.115 2352.76,835.115 "/>
<polyline clip-path="url(#clip131)" style="stroke:#000000; stroke-linecap:round; stroke-linejoin:round; stroke-width:2; stroke-opacity:0.1; fill:none" points="265.445,585.215 2352.76,585.215 "/>
<polyline clip-path="url(#clip131)" style="stroke:#000000; stroke-linecap:round; stroke-linejoin:round; stroke-width:2; stroke-opacity:0.1; fill:none" points="265.445,335.316 2352.76,335.316 "/>
<polyline clip-path="url(#clip131)" style="stroke:#000000; stroke-linecap:round; stroke-linejoin:round; stroke-width:2; stroke-opacity:0.1; fill:none" points="265.445,85.4162 2352.76,85.4162 "/>
<polyline clip-path="url(#clip130)" style="stroke:#000000; stroke-linecap:round; stroke-linejoin:round; stroke-width:4; stroke-opacity:1; fill:none" points="265.445,1423.18 2352.76,1423.18 "/>
<polyline clip-path="url(#clip130)" style="stroke:#000000; stroke-linecap:round; stroke-linejoin:round; stroke-width:4; stroke-opacity:1; fill:none" points="304.629,1423.18 304.629,1404.28 "/>
<polyline clip-path="url(#clip130)" style="stroke:#000000; stroke-linecap:round; stroke-linejoin:round; stroke-width:4; stroke-opacity:1; fill:none" points="801.892,1423.18 801.892,1404.28 "/>
<polyline clip-path="url(#clip130)" style="stroke:#000000; stroke-linecap:round; stroke-linejoin:round; stroke-width:4; stroke-opacity:1; fill:none" points="1299.16,1423.18 1299.16,1404.28 "/>
<polyline clip-path="url(#clip130)" style="stroke:#000000; stroke-linecap:round; stroke-linejoin:round; stroke-width:4; stroke-opacity:1; fill:none" points="1796.42,1423.18 1796.42,1404.28 "/>
<polyline clip-path="url(#clip130)" style="stroke:#000000; stroke-linecap:round; stroke-linejoin:round; stroke-width:4; stroke-opacity:1; fill:none" points="2293.68,1423.18 2293.68,1404.28 "/>
<path clip-path="url(#clip130)" d="M304.629 1454.1 Q301.018 1454.1 299.189 1457.66 Q297.384 1461.2 297.384 1468.33 Q297.384 1475.44 299.189 1479.01 Q301.018 1482.55 304.629 1482.55 Q308.263 1482.55 310.069 1479.01 Q311.898 1475.44 311.898 1468.33 Q311.898 1461.2 310.069 1457.66 Q308.263 1454.1 304.629 1454.1 M304.629 1450.39 Q310.439 1450.39 313.495 1455 Q316.573 1459.58 316.573 1468.33 Q316.573 1477.06 313.495 1481.67 Q310.439 1486.25 304.629 1486.25 Q298.819 1486.25 295.74 1481.67 Q292.685 1477.06 292.685 1468.33 Q292.685 1459.58 295.74 1455 Q298.819 1450.39 304.629 1450.39 Z" fill="#000000" fill-rule="nonzero" fill-opacity="1" /><path clip-path="url(#clip130)" d="M765.584 1481.64 L781.904 1481.64 L781.904 1485.58 L759.959 1485.58 L759.959 1481.64 Q762.621 1478.89 767.205 1474.26 Q771.811 1469.61 772.992 1468.27 Q775.237 1465.74 776.117 1464.01 Q777.02 1462.25 777.02 1460.56 Q777.02 1457.8 775.075 1456.07 Q773.154 1454.33 770.052 1454.33 Q767.853 1454.33 765.399 1455.09 Q762.969 1455.86 760.191 1457.41 L760.191 1452.69 Q763.015 1451.55 765.469 1450.97 Q767.922 1450.39 769.959 1450.39 Q775.33 1450.39 778.524 1453.08 Q781.719 1455.77 781.719 1460.26 Q781.719 1462.39 780.908 1464.31 Q780.121 1466.2 778.015 1468.8 Q777.436 1469.47 774.334 1472.69 Q771.232 1475.88 765.584 1481.64 Z" fill="#000000" fill-rule="nonzero" fill-opacity="1" /><path clip-path="url(#clip130)" d="M791.765 1451.02 L810.121 1451.02 L810.121 1454.96 L796.047 1454.96 L796.047 1463.43 Q797.066 1463.08 798.084 1462.92 Q799.103 1462.73 800.121 1462.73 Q805.908 1462.73 809.288 1465.9 Q812.667 1469.08 812.667 1474.49 Q812.667 1480.07 809.195 1483.17 Q805.723 1486.25 799.404 1486.25 Q797.228 1486.25 794.959 1485.88 Q792.714 1485.51 790.306 1484.77 L790.306 1480.07 Q792.39 1481.2 794.612 1481.76 Q796.834 1482.32 799.311 1482.32 Q803.316 1482.32 805.654 1480.21 Q807.992 1478.1 807.992 1474.49 Q807.992 1470.88 805.654 1468.77 Q803.316 1466.67 799.311 1466.67 Q797.436 1466.67 795.561 1467.08 Q793.709 1467.5 791.765 1468.38 L791.765 1451.02 Z" fill="#000000" fill-rule="nonzero" fill-opacity="1" /><path clip-path="url(#clip130)" d="M831.88 1454.1 Q828.269 1454.1 826.441 1457.66 Q824.635 1461.2 824.635 1468.33 Q824.635 1475.44 826.441 1479.01 Q828.269 1482.55 831.88 1482.55 Q835.515 1482.55 837.32 1479.01 Q839.149 1475.44 839.149 1468.33 Q839.149 1461.2 837.32 1457.66 Q835.515 1454.1 831.88 1454.1 M831.88 1450.39 Q837.69 1450.39 840.746 1455 Q843.825 1459.58 843.825 1468.33 Q843.825 1477.06 840.746 1481.67 Q837.69 1486.25 831.88 1486.25 Q826.07 1486.25 822.991 1481.67 Q819.936 1477.06 819.936 1468.33 Q819.936 1459.58 822.991 1455 Q826.07 1450.39 831.88 1450.39 Z" fill="#000000" fill-rule="nonzero" fill-opacity="1" /><path clip-path="url(#clip130)" d="M1258.77 1451.02 L1277.13 1451.02 L1277.13 1454.96 L1263.06 1454.96 L1263.06 1463.43 Q1264.07 1463.08 1265.09 1462.92 Q1266.11 1462.73 1267.13 1462.73 Q1272.92 1462.73 1276.3 1465.9 Q1279.68 1469.08 1279.68 1474.49 Q1279.68 1480.07 1276.2 1483.17 Q1272.73 1486.25 1266.41 1486.25 Q1264.24 1486.25 1261.97 1485.88 Q1259.72 1485.51 1257.32 1484.77 L1257.32 1480.07 Q1259.4 1481.2 1261.62 1481.76 Q1263.84 1482.32 1266.32 1482.32 Q1270.32 1482.32 1272.66 1480.21 Q1275 1478.1 1275 1474.49 Q1275 1470.88 1272.66 1468.77 Q1270.32 1466.67 1266.32 1466.67 Q1264.44 1466.67 1262.57 1467.08 Q1260.72 1467.5 1258.77 1468.38 L1258.77 1451.02 Z" fill="#000000" fill-rule="nonzero" fill-opacity="1" /><path clip-path="url(#clip130)" d="M1298.89 1454.1 Q1295.28 1454.1 1293.45 1457.66 Q1291.64 1461.2 1291.64 1468.33 Q1291.64 1475.44 1293.45 1479.01 Q1295.28 1482.55 1298.89 1482.55 Q1302.52 1482.55 1304.33 1479.01 Q1306.16 1475.44 1306.16 1468.33 Q1306.16 1461.2 1304.33 1457.66 Q1302.52 1454.1 1298.89 1454.1 M1298.89 1450.39 Q1304.7 1450.39 1307.75 1455 Q1310.83 1459.58 1310.83 1468.33 Q1310.83 1477.06 1307.75 1481.67 Q1304.7 1486.25 1298.89 1486.25 Q1293.08 1486.25 1290 1481.67 Q1286.94 1477.06 1286.94 1468.33 Q1286.94 1459.58 1290 1455 Q1293.08 1450.39 1298.89 1450.39 Z" fill="#000000" fill-rule="nonzero" fill-opacity="1" /><path clip-path="url(#clip130)" d="M1329.05 1454.1 Q1325.44 1454.1 1323.61 1457.66 Q1321.81 1461.2 1321.81 1468.33 Q1321.81 1475.44 1323.61 1479.01 Q1325.44 1482.55 1329.05 1482.55 Q1332.68 1482.55 1334.49 1479.01 Q1336.32 1475.44 1336.32 1468.33 Q1336.32 1461.2 1334.49 1457.66 Q1332.68 1454.1 1329.05 1454.1 M1329.05 1450.39 Q1334.86 1450.39 1337.92 1455 Q1341 1459.58 1341 1468.33 Q1341 1477.06 1337.92 1481.67 Q1334.86 1486.25 1329.05 1486.25 Q1323.24 1486.25 1320.16 1481.67 Q1317.11 1477.06 1317.11 1468.33 Q1317.11 1459.58 1320.16 1455 Q1323.24 1450.39 1329.05 1450.39 Z" fill="#000000" fill-rule="nonzero" fill-opacity="1" /><path clip-path="url(#clip130)" d="M1754.69 1451.02 L1776.92 1451.02 L1776.92 1453.01 L1764.37 1485.58 L1759.49 1485.58 L1771.29 1454.96 L1754.69 1454.96 L1754.69 1451.02 Z" fill="#000000" fill-rule="nonzero" fill-opacity="1" /><path clip-path="url(#clip130)" d="M1786.08 1451.02 L1804.44 1451.02 L1804.44 1454.96 L1790.36 1454.96 L1790.36 1463.43 Q1791.38 1463.08 1792.4 1462.92 Q1793.42 1462.73 1794.44 1462.73 Q1800.23 1462.73 1803.61 1465.9 Q1806.99 1469.08 1806.99 1474.49 Q1806.99 1480.07 1803.51 1483.17 Q1800.04 1486.25 1793.72 1486.25 Q1791.55 1486.25 1789.28 1485.88 Q1787.03 1485.51 1784.62 1484.77 L1784.62 1480.07 Q1786.71 1481.2 1788.93 1481.76 Q1791.15 1482.32 1793.63 1482.32 Q1797.63 1482.32 1799.97 1480.21 Q1802.31 1478.1 1802.31 1474.49 Q1802.31 1470.88 1799.97 1468.77 Q1797.63 1466.67 1793.63 1466.67 Q1791.75 1466.67 1789.88 1467.08 Q1788.03 1467.5 1786.08 1468.38 L1786.08 1451.02 Z" fill="#000000" fill-rule="nonzero" fill-opacity="1" /><path clip-path="url(#clip130)" d="M1826.2 1454.1 Q1822.59 1454.1 1820.76 1457.66 Q1818.95 1461.2 1818.95 1468.33 Q1818.95 1475.44 1820.76 1479.01 Q1822.59 1482.55 1826.2 1482.55 Q1829.83 1482.55 1831.64 1479.01 Q1833.47 1475.44 1833.47 1468.33 Q1833.47 1461.2 1831.64 1457.66 Q1829.83 1454.1 1826.2 1454.1 M1826.2 1450.39 Q1832.01 1450.39 1835.06 1455 Q1838.14 1459.58 1838.14 1468.33 Q1838.14 1477.06 1835.06 1481.67 Q1832.01 1486.25 1826.2 1486.25 Q1820.39 1486.25 1817.31 1481.67 Q1814.25 1477.06 1814.25 1468.33 Q1814.25 1459.58 1817.31 1455 Q1820.39 1450.39 1826.2 1450.39 Z" fill="#000000" fill-rule="nonzero" fill-opacity="1" /><path clip-path="url(#clip130)" d="M2238.21 1481.64 L2245.85 1481.64 L2245.85 1455.28 L2237.54 1456.95 L2237.54 1452.69 L2245.8 1451.02 L2250.48 1451.02 L2250.48 1481.64 L2258.11 1481.64 L2258.11 1485.58 L2238.21 1485.58 L2238.21 1481.64 Z" fill="#000000" fill-rule="nonzero" fill-opacity="1" /><path clip-path="url(#clip130)" d="M2277.56 1454.1 Q2273.95 1454.1 2272.12 1457.66 Q2270.31 1461.2 2270.31 1468.33 Q2270.31 1475.44 2272.12 1479.01 Q2273.95 1482.55 2277.56 1482.55 Q2281.19 1482.55 2283 1479.01 Q2284.83 1475.44 2284.83 1468.33 Q2284.83 1461.2 2283 1457.66 Q2281.19 1454.1 2277.56 1454.1 M2277.56 1450.39 Q2283.37 1450.39 2286.42 1455 Q2289.5 1459.58 2289.5 1468.33 Q2289.5 1477.06 2286.42 1481.67 Q2283.37 1486.25 2277.56 1486.25 Q2271.75 1486.25 2268.67 1481.67 Q2265.61 1477.06 2265.61 1468.33 Q2265.61 1459.58 2268.67 1455 Q2271.75 1450.39 2277.56 1450.39 Z" fill="#000000" fill-rule="nonzero" fill-opacity="1" /><path clip-path="url(#clip130)" d="M2307.72 1454.1 Q2304.11 1454.1 2302.28 1457.66 Q2300.48 1461.2 2300.48 1468.33 Q2300.48 1475.44 2302.28 1479.01 Q2304.11 1482.55 2307.72 1482.55 Q2311.35 1482.55 2313.16 1479.01 Q2314.99 1475.44 2314.99 1468.33 Q2314.99 1461.2 2313.16 1457.66 Q2311.35 1454.1 2307.72 1454.1 M2307.72 1450.39 Q2313.53 1450.39 2316.59 1455 Q2319.66 1459.58 2319.66 1468.33 Q2319.66 1477.06 2316.59 1481.67 Q2313.53 1486.25 2307.72 1486.25 Q2301.91 1486.25 2298.83 1481.67 Q2295.78 1477.06 2295.78 1468.33 Q2295.78 1459.58 2298.83 1455 Q2301.91 1450.39 2307.72 1450.39 Z" fill="#000000" fill-rule="nonzero" fill-opacity="1" /><path clip-path="url(#clip130)" d="M2337.88 1454.1 Q2334.27 1454.1 2332.44 1457.66 Q2330.64 1461.2 2330.64 1468.33 Q2330.64 1475.44 2332.44 1479.01 Q2334.27 1482.55 2337.88 1482.55 Q2341.52 1482.55 2343.32 1479.01 Q2345.15 1475.44 2345.15 1468.33 Q2345.15 1461.2 2343.32 1457.66 Q2341.52 1454.1 2337.88 1454.1 M2337.88 1450.39 Q2343.69 1450.39 2346.75 1455 Q2349.83 1459.58 2349.83 1468.33 Q2349.83 1477.06 2346.75 1481.67 Q2343.69 1486.25 2337.88 1486.25 Q2332.07 1486.25 2328.99 1481.67 Q2325.94 1477.06 2325.94 1468.33 Q2325.94 1459.58 2328.99 1455 Q2332.07 1450.39 2337.88 1450.39 Z" fill="#000000" fill-rule="nonzero" fill-opacity="1" /><path clip-path="url(#clip130)" d="M1306.17 1518.52 L1312.03 1518.52 L1312.03 1568.04 L1306.17 1568.04 L1306.17 1518.52 Z" fill="#000000" fill-rule="nonzero" fill-opacity="1" /><polyline clip-path="url(#clip130)" style="stroke:#000000; stroke-linecap:round; stroke-linejoin:round; stroke-width:4; stroke-opacity:1; fill:none" points="265.445,1423.18 265.445,47.2441 "/>
<polyline clip-path="url(#clip130)" style="stroke:#000000; stroke-linecap:round; stroke-linejoin:round; stroke-width:4; stroke-opacity:1; fill:none" points="265.445,1334.91 284.342,1334.91 "/>
<polyline clip-path="url(#clip130)" style="stroke:#000000; stroke-linecap:round; stroke-linejoin:round; stroke-width:4; stroke-opacity:1; fill:none" points="265.445,1085.01 284.342,1085.01 "/>
<polyline clip-path="url(#clip130)" style="stroke:#000000; stroke-linecap:round; stroke-linejoin:round; stroke-width:4; stroke-opacity:1; fill:none" points="265.445,835.115 284.342,835.115 "/>
<polyline clip-path="url(#clip130)" style="stroke:#000000; stroke-linecap:round; stroke-linejoin:round; stroke-width:4; stroke-opacity:1; fill:none" points="265.445,585.215 284.342,585.215 "/>
<polyline clip-path="url(#clip130)" style="stroke:#000000; stroke-linecap:round; stroke-linejoin:round; stroke-width:4; stroke-opacity:1; fill:none" points="265.445,335.316 284.342,335.316 "/>
<polyline clip-path="url(#clip130)" style="stroke:#000000; stroke-linecap:round; stroke-linejoin:round; stroke-width:4; stroke-opacity:1; fill:none" points="265.445,85.4162 284.342,85.4162 "/>
<path clip-path="url(#clip130)" d="M117.825 1348.26 L125.464 1348.26 L125.464 1321.89 L117.154 1323.56 L117.154 1319.3 L125.418 1317.63 L130.093 1317.63 L130.093 1348.26 L137.732 1348.26 L137.732 1352.19 L117.825 1352.19 L117.825 1348.26 Z" fill="#000000" fill-rule="nonzero" fill-opacity="1" /><path clip-path="url(#clip130)" d="M157.177 1320.71 Q153.566 1320.71 151.737 1324.28 Q149.931 1327.82 149.931 1334.95 Q149.931 1342.05 151.737 1345.62 Q153.566 1349.16 157.177 1349.16 Q160.811 1349.16 162.616 1345.62 Q164.445 1342.05 164.445 1334.95 Q164.445 1327.82 162.616 1324.28 Q160.811 1320.71 157.177 1320.71 M157.177 1317.01 Q162.987 1317.01 166.042 1321.61 Q169.121 1326.2 169.121 1334.95 Q169.121 1343.67 166.042 1348.28 Q162.987 1352.86 157.177 1352.86 Q151.366 1352.86 148.288 1348.28 Q145.232 1343.67 145.232 1334.95 Q145.232 1326.2 148.288 1321.61 Q151.366 1317.01 157.177 1317.01 Z" fill="#000000" fill-rule="nonzero" fill-opacity="1" /><path clip-path="url(#clip130)" d="M187.338 1320.71 Q183.727 1320.71 181.899 1324.28 Q180.093 1327.82 180.093 1334.95 Q180.093 1342.05 181.899 1345.62 Q183.727 1349.16 187.338 1349.16 Q190.973 1349.16 192.778 1345.62 Q194.607 1342.05 194.607 1334.95 Q194.607 1327.82 192.778 1324.28 Q190.973 1320.71 187.338 1320.71 M187.338 1317.01 Q193.149 1317.01 196.204 1321.61 Q199.283 1326.2 199.283 1334.95 Q199.283 1343.67 196.204 1348.28 Q193.149 1352.86 187.338 1352.86 Q181.528 1352.86 178.45 1348.28 Q175.394 1343.67 175.394 1334.95 Q175.394 1326.2 178.45 1321.61 Q181.528 1317.01 187.338 1317.01 Z" fill="#000000" fill-rule="nonzero" fill-opacity="1" /><path clip-path="url(#clip130)" d="M217.5 1320.71 Q213.889 1320.71 212.061 1324.28 Q210.255 1327.82 210.255 1334.95 Q210.255 1342.05 212.061 1345.62 Q213.889 1349.16 217.5 1349.16 Q221.135 1349.16 222.94 1345.62 Q224.769 1342.05 224.769 1334.95 Q224.769 1327.82 222.94 1324.28 Q221.135 1320.71 217.5 1320.71 M217.5 1317.01 Q223.31 1317.01 226.366 1321.61 Q229.445 1326.2 229.445 1334.95 Q229.445 1343.67 226.366 1348.28 Q223.31 1352.86 217.5 1352.86 Q211.69 1352.86 208.612 1348.28 Q205.556 1343.67 205.556 1334.95 Q205.556 1326.2 208.612 1321.61 Q211.69 1317.01 217.5 1317.01 Z" fill="#000000" fill-rule="nonzero" fill-opacity="1" /><path clip-path="url(#clip130)" d="M121.043 1098.36 L137.362 1098.36 L137.362 1102.29 L115.418 1102.29 L115.418 1098.36 Q118.08 1095.6 122.663 1090.97 Q127.269 1086.32 128.45 1084.98 Q130.695 1082.46 131.575 1080.72 Q132.478 1078.96 132.478 1077.27 Q132.478 1074.52 130.533 1072.78 Q128.612 1071.04 125.51 1071.04 Q123.311 1071.04 120.857 1071.81 Q118.427 1072.57 115.649 1074.12 L115.649 1069.4 Q118.473 1068.27 120.927 1067.69 Q123.38 1067.11 125.418 1067.11 Q130.788 1067.11 133.982 1069.79 Q137.177 1072.48 137.177 1076.97 Q137.177 1079.1 136.367 1081.02 Q135.579 1082.92 133.473 1085.51 Q132.894 1086.18 129.792 1089.4 Q126.691 1092.59 121.043 1098.36 Z" fill="#000000" fill-rule="nonzero" fill-opacity="1" /><path clip-path="url(#clip130)" d="M157.177 1070.81 Q153.566 1070.81 151.737 1074.38 Q149.931 1077.92 149.931 1085.05 Q149.931 1092.16 151.737 1095.72 Q153.566 1099.26 157.177 1099.26 Q160.811 1099.26 162.616 1095.72 Q164.445 1092.16 164.445 1085.05 Q164.445 1077.92 162.616 1074.38 Q160.811 1070.81 157.177 1070.81 M157.177 1067.11 Q162.987 1067.11 166.042 1071.72 Q169.121 1076.3 169.121 1085.05 Q169.121 1093.78 166.042 1098.38 Q162.987 1102.97 157.177 1102.97 Q151.366 1102.97 148.288 1098.38 Q145.232 1093.78 145.232 1085.05 Q145.232 1076.3 148.288 1071.72 Q151.366 1067.11 157.177 1067.11 Z" fill="#000000" fill-rule="nonzero" fill-opacity="1" /><path clip-path="url(#clip130)" d="M187.338 1070.81 Q183.727 1070.81 181.899 1074.38 Q180.093 1077.92 180.093 1085.05 Q180.093 1092.16 181.899 1095.72 Q183.727 1099.26 187.338 1099.26 Q190.973 1099.26 192.778 1095.72 Q194.607 1092.16 194.607 1085.05 Q194.607 1077.92 192.778 1074.38 Q190.973 1070.81 187.338 1070.81 M187.338 1067.11 Q193.149 1067.11 196.204 1071.72 Q199.283 1076.3 199.283 1085.05 Q199.283 1093.78 196.204 1098.38 Q193.149 1102.97 187.338 1102.97 Q181.528 1102.97 178.45 1098.38 Q175.394 1093.78 175.394 1085.05 Q175.394 1076.3 178.45 1071.72 Q181.528 1067.11 187.338 1067.11 Z" fill="#000000" fill-rule="nonzero" fill-opacity="1" /><path clip-path="url(#clip130)" d="M217.5 1070.81 Q213.889 1070.81 212.061 1074.38 Q210.255 1077.92 210.255 1085.05 Q210.255 1092.16 212.061 1095.72 Q213.889 1099.26 217.5 1099.26 Q221.135 1099.26 222.94 1095.72 Q224.769 1092.16 224.769 1085.05 Q224.769 1077.92 222.94 1074.38 Q221.135 1070.81 217.5 1070.81 M217.5 1067.11 Q223.31 1067.11 226.366 1071.72 Q229.445 1076.3 229.445 1085.05 Q229.445 1093.78 226.366 1098.38 Q223.31 1102.97 217.5 1102.97 Q211.69 1102.97 208.612 1098.38 Q205.556 1093.78 205.556 1085.05 Q205.556 1076.3 208.612 1071.72 Q211.69 1067.11 217.5 1067.11 Z" fill="#000000" fill-rule="nonzero" fill-opacity="1" /><path clip-path="url(#clip130)" d="M131.181 833.76 Q134.538 834.478 136.413 836.746 Q138.311 839.015 138.311 842.348 Q138.311 847.464 134.792 850.265 Q131.274 853.066 124.793 853.066 Q122.617 853.066 120.302 852.626 Q118.01 852.209 115.556 851.353 L115.556 846.839 Q117.501 847.973 119.816 848.552 Q122.13 849.131 124.654 849.131 Q129.052 849.131 131.343 847.395 Q133.658 845.658 133.658 842.348 Q133.658 839.293 131.505 837.58 Q129.376 835.844 125.556 835.844 L121.529 835.844 L121.529 832.001 L125.742 832.001 Q129.191 832.001 131.019 830.635 Q132.848 829.247 132.848 826.654 Q132.848 823.992 130.95 822.58 Q129.075 821.145 125.556 821.145 Q123.635 821.145 121.436 821.561 Q119.237 821.978 116.598 822.858 L116.598 818.691 Q119.26 817.95 121.575 817.58 Q123.913 817.21 125.973 817.21 Q131.297 817.21 134.399 819.64 Q137.501 822.047 137.501 826.168 Q137.501 829.038 135.857 831.029 Q134.214 832.997 131.181 833.76 Z" fill="#000000" fill-rule="nonzero" fill-opacity="1" /><path clip-path="url(#clip130)" d="M157.177 820.913 Q153.566 820.913 151.737 824.478 Q149.931 828.02 149.931 835.149 Q149.931 842.256 151.737 845.821 Q153.566 849.362 157.177 849.362 Q160.811 849.362 162.616 845.821 Q164.445 842.256 164.445 835.149 Q164.445 828.02 162.616 824.478 Q160.811 820.913 157.177 820.913 M157.177 817.21 Q162.987 817.21 166.042 821.816 Q169.121 826.399 169.121 835.149 Q169.121 843.876 166.042 848.483 Q162.987 853.066 157.177 853.066 Q151.366 853.066 148.288 848.483 Q145.232 843.876 145.232 835.149 Q145.232 826.399 148.288 821.816 Q151.366 817.21 157.177 817.21 Z" fill="#000000" fill-rule="nonzero" fill-opacity="1" /><path clip-path="url(#clip130)" d="M187.338 820.913 Q183.727 820.913 181.899 824.478 Q180.093 828.02 180.093 835.149 Q180.093 842.256 181.899 845.821 Q183.727 849.362 187.338 849.362 Q190.973 849.362 192.778 845.821 Q194.607 842.256 194.607 835.149 Q194.607 828.02 192.778 824.478 Q190.973 820.913 187.338 820.913 M187.338 817.21 Q193.149 817.21 196.204 821.816 Q199.283 826.399 199.283 835.149 Q199.283 843.876 196.204 848.483 Q193.149 853.066 187.338 853.066 Q181.528 853.066 178.45 848.483 Q175.394 843.876 175.394 835.149 Q175.394 826.399 178.45 821.816 Q181.528 817.21 187.338 817.21 Z" fill="#000000" fill-rule="nonzero" fill-opacity="1" /><path clip-path="url(#clip130)" d="M217.5 820.913 Q213.889 820.913 212.061 824.478 Q210.255 828.02 210.255 835.149 Q210.255 842.256 212.061 845.821 Q213.889 849.362 217.5 849.362 Q221.135 849.362 222.94 845.821 Q224.769 842.256 224.769 835.149 Q224.769 828.02 222.94 824.478 Q221.135 820.913 217.5 820.913 M217.5 817.21 Q223.31 817.21 226.366 821.816 Q229.445 826.399 229.445 835.149 Q229.445 843.876 226.366 848.483 Q223.31 853.066 217.5 853.066 Q211.69 853.066 208.612 848.483 Q205.556 843.876 205.556 835.149 Q205.556 826.399 208.612 821.816 Q211.69 817.21 217.5 817.21 Z" fill="#000000" fill-rule="nonzero" fill-opacity="1" /><path clip-path="url(#clip130)" d="M129.862 572.009 L118.056 590.458 L129.862 590.458 L129.862 572.009 M128.635 567.935 L134.515 567.935 L134.515 590.458 L139.445 590.458 L139.445 594.347 L134.515 594.347 L134.515 602.495 L129.862 602.495 L129.862 594.347 L114.26 594.347 L114.26 589.833 L128.635 567.935 Z" fill="#000000" fill-rule="nonzero" fill-opacity="1" /><path clip-path="url(#clip130)" d="M157.177 571.014 Q153.566 571.014 151.737 574.579 Q149.931 578.12 149.931 585.25 Q149.931 592.356 151.737 595.921 Q153.566 599.463 157.177 599.463 Q160.811 599.463 162.616 595.921 Q164.445 592.356 164.445 585.25 Q164.445 578.12 162.616 574.579 Q160.811 571.014 157.177 571.014 M157.177 567.31 Q162.987 567.31 166.042 571.917 Q169.121 576.5 169.121 585.25 Q169.121 593.977 166.042 598.583 Q162.987 603.166 157.177 603.166 Q151.366 603.166 148.288 598.583 Q145.232 593.977 145.232 585.25 Q145.232 576.5 148.288 571.917 Q151.366 567.31 157.177 567.31 Z" fill="#000000" fill-rule="nonzero" fill-opacity="1" /><path clip-path="url(#clip130)" d="M187.338 571.014 Q183.727 571.014 181.899 574.579 Q180.093 578.12 180.093 585.25 Q180.093 592.356 181.899 595.921 Q183.727 599.463 187.338 599.463 Q190.973 599.463 192.778 595.921 Q194.607 592.356 194.607 585.25 Q194.607 578.12 192.778 574.579 Q190.973 571.014 187.338 571.014 M187.338 567.31 Q193.149 567.31 196.204 571.917 Q199.283 576.5 199.283 585.25 Q199.283 593.977 196.204 598.583 Q193.149 603.166 187.338 603.166 Q181.528 603.166 178.45 598.583 Q175.394 593.977 175.394 585.25 Q175.394 576.5 178.45 571.917 Q181.528 567.31 187.338 567.31 Z" fill="#000000" fill-rule="nonzero" fill-opacity="1" /><path clip-path="url(#clip130)" d="M217.5 571.014 Q213.889 571.014 212.061 574.579 Q210.255 578.12 210.255 585.25 Q210.255 592.356 212.061 595.921 Q213.889 599.463 217.5 599.463 Q221.135 599.463 222.94 595.921 Q224.769 592.356 224.769 585.25 Q224.769 578.12 222.94 574.579 Q221.135 571.014 217.5 571.014 M217.5 567.31 Q223.31 567.31 226.366 571.917 Q229.445 576.5 229.445 585.25 Q229.445 593.977 226.366 598.583 Q223.31 603.166 217.5 603.166 Q211.69 603.166 208.612 598.583 Q205.556 593.977 205.556 585.25 Q205.556 576.5 208.612 571.917 Q211.69 567.31 217.5 567.31 Z" fill="#000000" fill-rule="nonzero" fill-opacity="1" /><path clip-path="url(#clip130)" d="M117.061 318.036 L135.417 318.036 L135.417 321.971 L121.343 321.971 L121.343 330.443 Q122.362 330.096 123.38 329.934 Q124.399 329.749 125.418 329.749 Q131.205 329.749 134.584 332.92 Q137.964 336.091 137.964 341.508 Q137.964 347.086 134.492 350.188 Q131.019 353.267 124.7 353.267 Q122.524 353.267 120.255 352.897 Q118.01 352.526 115.603 351.785 L115.603 347.086 Q117.686 348.221 119.908 348.776 Q122.13 349.332 124.607 349.332 Q128.612 349.332 130.95 347.225 Q133.288 345.119 133.288 341.508 Q133.288 337.897 130.95 335.79 Q128.612 333.684 124.607 333.684 Q122.732 333.684 120.857 334.1 Q119.006 334.517 117.061 335.397 L117.061 318.036 Z" fill="#000000" fill-rule="nonzero" fill-opacity="1" /><path clip-path="url(#clip130)" d="M157.177 321.114 Q153.566 321.114 151.737 324.679 Q149.931 328.221 149.931 335.35 Q149.931 342.457 151.737 346.022 Q153.566 349.563 157.177 349.563 Q160.811 349.563 162.616 346.022 Q164.445 342.457 164.445 335.35 Q164.445 328.221 162.616 324.679 Q160.811 321.114 157.177 321.114 M157.177 317.411 Q162.987 317.411 166.042 322.017 Q169.121 326.6 169.121 335.35 Q169.121 344.077 166.042 348.684 Q162.987 353.267 157.177 353.267 Q151.366 353.267 148.288 348.684 Q145.232 344.077 145.232 335.35 Q145.232 326.6 148.288 322.017 Q151.366 317.411 157.177 317.411 Z" fill="#000000" fill-rule="nonzero" fill-opacity="1" /><path clip-path="url(#clip130)" d="M187.338 321.114 Q183.727 321.114 181.899 324.679 Q180.093 328.221 180.093 335.35 Q180.093 342.457 181.899 346.022 Q183.727 349.563 187.338 349.563 Q190.973 349.563 192.778 346.022 Q194.607 342.457 194.607 335.35 Q194.607 328.221 192.778 324.679 Q190.973 321.114 187.338 321.114 M187.338 317.411 Q193.149 317.411 196.204 322.017 Q199.283 326.6 199.283 335.35 Q199.283 344.077 196.204 348.684 Q193.149 353.267 187.338 353.267 Q181.528 353.267 178.45 348.684 Q175.394 344.077 175.394 335.35 Q175.394 326.6 178.45 322.017 Q181.528 317.411 187.338 317.411 Z" fill="#000000" fill-rule="nonzero" fill-opacity="1" /><path clip-path="url(#clip130)" d="M217.5 321.114 Q213.889 321.114 212.061 324.679 Q210.255 328.221 210.255 335.35 Q210.255 342.457 212.061 346.022 Q213.889 349.563 217.5 349.563 Q221.135 349.563 222.94 346.022 Q224.769 342.457 224.769 335.35 Q224.769 328.221 222.94 324.679 Q221.135 321.114 217.5 321.114 M217.5 317.411 Q223.31 317.411 226.366 322.017 Q229.445 326.6 229.445 335.35 Q229.445 344.077 226.366 348.684 Q223.31 353.267 217.5 353.267 Q211.69 353.267 208.612 348.684 Q205.556 344.077 205.556 335.35 Q205.556 326.6 208.612 322.017 Q211.69 317.411 217.5 317.411 Z" fill="#000000" fill-rule="nonzero" fill-opacity="1" /><path clip-path="url(#clip130)" d="M127.593 83.5528 Q124.445 83.5528 122.593 85.7055 Q120.765 87.8583 120.765 91.6083 Q120.765 95.3351 122.593 97.511 Q124.445 99.6638 127.593 99.6638 Q130.742 99.6638 132.57 97.511 Q134.422 95.3351 134.422 91.6083 Q134.422 87.8583 132.57 85.7055 Q130.742 83.5528 127.593 83.5528 M136.876 68.9001 L136.876 73.1593 Q135.117 72.326 133.311 71.8861 Q131.529 71.4463 129.769 71.4463 Q125.14 71.4463 122.686 74.5713 Q120.255 77.6963 119.908 84.0157 Q121.274 82.0018 123.334 80.937 Q125.394 79.8491 127.871 79.8491 Q133.08 79.8491 136.089 83.0203 Q139.121 86.1685 139.121 91.6083 Q139.121 96.9323 135.973 100.15 Q132.825 103.367 127.593 103.367 Q121.598 103.367 118.427 98.7842 Q115.256 94.1777 115.256 85.4509 Q115.256 77.2565 119.144 72.3954 Q123.033 67.5112 129.584 67.5112 Q131.343 67.5112 133.126 67.8584 Q134.931 68.2056 136.876 68.9001 Z" fill="#000000" fill-rule="nonzero" fill-opacity="1" /><path clip-path="url(#clip130)" d="M157.177 71.2149 Q153.566 71.2149 151.737 74.7797 Q149.931 78.3213 149.931 85.4509 Q149.931 92.5573 151.737 96.1221 Q153.566 99.6638 157.177 99.6638 Q160.811 99.6638 162.616 96.1221 Q164.445 92.5573 164.445 85.4509 Q164.445 78.3213 162.616 74.7797 Q160.811 71.2149 157.177 71.2149 M157.177 67.5112 Q162.987 67.5112 166.042 72.1176 Q169.121 76.7009 169.121 85.4509 Q169.121 94.1777 166.042 98.7842 Q162.987 103.367 157.177 103.367 Q151.366 103.367 148.288 98.7842 Q145.232 94.1777 145.232 85.4509 Q145.232 76.7009 148.288 72.1176 Q151.366 67.5112 157.177 67.5112 Z" fill="#000000" fill-rule="nonzero" fill-opacity="1" /><path clip-path="url(#clip130)" d="M187.338 71.2149 Q183.727 71.2149 181.899 74.7797 Q180.093 78.3213 180.093 85.4509 Q180.093 92.5573 181.899 96.1221 Q183.727 99.6638 187.338 99.6638 Q190.973 99.6638 192.778 96.1221 Q194.607 92.5573 194.607 85.4509 Q194.607 78.3213 192.778 74.7797 Q190.973 71.2149 187.338 71.2149 M187.338 67.5112 Q193.149 67.5112 196.204 72.1176 Q199.283 76.7009 199.283 85.4509 Q199.283 94.1777 196.204 98.7842 Q193.149 103.367 187.338 103.367 Q181.528 103.367 178.45 98.7842 Q175.394 94.1777 175.394 85.4509 Q175.394 76.7009 178.45 72.1176 Q181.528 67.5112 187.338 67.5112 Z" fill="#000000" fill-rule="nonzero" fill-opacity="1" /><path clip-path="url(#clip130)" d="M217.5 71.2149 Q213.889 71.2149 212.061 74.7797 Q210.255 78.3213 210.255 85.4509 Q210.255 92.5573 212.061 96.1221 Q213.889 99.6638 217.5 99.6638 Q221.135 99.6638 222.94 96.1221 Q224.769 92.5573 224.769 85.4509 Q224.769 78.3213 222.94 74.7797 Q221.135 71.2149 217.5 71.2149 M217.5 67.5112 Q223.31 67.5112 226.366 72.1176 Q229.445 76.7009 229.445 85.4509 Q229.445 94.1777 226.366 98.7842 Q223.31 103.367 217.5 103.367 Q211.69 103.367 208.612 98.7842 Q205.556 94.1777 205.556 85.4509 Q205.556 76.7009 208.612 72.1176 Q211.69 67.5112 217.5 67.5112 Z" fill="#000000" fill-rule="nonzero" fill-opacity="1" /><path clip-path="url(#clip130)" d="M14.479 1067.82 L14.479 1061.96 L64.0042 1061.96 L64.0042 1067.82 L14.479 1067.82 Z" fill="#000000" fill-rule="nonzero" fill-opacity="1" /><path clip-path="url(#clip130)" d="M14.5426 1014.92 Q21.8632 1019.19 29.0246 1021.25 Q36.186 1023.32 43.5384 1023.32 Q50.8908 1023.32 58.1159 1021.25 Q65.3091 1019.15 72.5979 1014.92 L72.5979 1020.01 Q65.1182 1024.79 57.8931 1027.18 Q50.668 1029.53 43.5384 1029.53 Q36.4406 1029.53 29.2474 1027.18 Q22.0542 1024.82 14.5426 1020.01 L14.5426 1014.92 Z" fill="#000000" fill-rule="nonzero" fill-opacity="1" /><path clip-path="url(#clip130)" d="M14.479 1003.56 L14.479 997.702 L64.0042 997.702 L64.0042 1003.56 L14.479 1003.56 Z" fill="#000000" fill-rule="nonzero" fill-opacity="1" /><path clip-path="url(#clip130)" d="M23.1363 961.608 L40.8648 961.608 L40.8648 943.88 L46.2757 943.88 L46.2757 961.608 L64.0042 961.608 L64.0042 966.956 L46.2757 966.956 L46.2757 984.684 L40.8648 984.684 L40.8648 966.956 L23.1363 966.956 L23.1363 961.608 Z" fill="#000000" fill-rule="nonzero" fill-opacity="1" /><path clip-path="url(#clip130)" d="M58.5933 928.889 L58.5933 918.385 L22.3406 918.385 L24.6323 929.812 L18.7758 929.812 L16.4842 918.449 L16.4842 912.019 L58.5933 912.019 L58.5933 901.516 L64.0042 901.516 L64.0042 928.889 L58.5933 928.889 Z" fill="#000000" fill-rule="nonzero" fill-opacity="1" /><path clip-path="url(#clip130)" d="M14.5426 890.281 L14.5426 885.188 Q22.0542 880.414 29.2474 878.058 Q36.4406 875.671 43.5384 875.671 Q50.668 875.671 57.8931 878.058 Q65.1182 880.414 72.5979 885.188 L72.5979 890.281 Q65.3091 886.047 58.1159 883.979 Q50.8908 881.878 43.5384 881.878 Q36.186 881.878 29.0246 883.979 Q21.8632 886.047 14.5426 890.281 Z" fill="#000000" fill-rule="nonzero" fill-opacity="1" /><path clip-path="url(#clip130)" d="M20.1444 807.367 L26.9239 807.367 Q23.9002 810.614 22.4043 814.306 Q20.9083 817.966 20.9083 822.104 Q20.9083 830.252 25.9054 834.581 Q30.8707 838.909 40.2919 838.909 Q49.6813 838.909 54.6784 834.581 Q59.6436 830.252 59.6436 822.104 Q59.6436 817.966 58.1477 814.306 Q56.6518 810.614 53.6281 807.367 L60.3439 807.367 Q62.6355 810.741 63.7814 814.529 Q64.9272 818.284 64.9272 822.486 Q64.9272 833.276 58.3387 839.482 Q51.7183 845.689 40.2919 845.689 Q28.8336 845.689 22.2451 839.482 Q15.6248 833.276 15.6248 822.486 Q15.6248 818.221 16.7706 814.465 Q17.8846 810.677 20.1444 807.367 Z" fill="#000000" fill-rule="nonzero" fill-opacity="1" /><path clip-path="url(#clip130)" d="M36.2815 799.951 L36.2815 796.259 L64.0042 796.259 L64.0042 799.951 L36.2815 799.951 Z" fill="#000000" fill-rule="nonzero" fill-opacity="1" /><path clip-path="url(#clip130)" d="M16.4842 755.741 L16.4842 750.331 L70.0516 766.881 L70.0516 772.292 L16.4842 755.741 Z" fill="#000000" fill-rule="nonzero" fill-opacity="1" /><path clip-path="url(#clip130)" d="M58.5933 717.102 L58.5933 694.662 L64.0042 694.662 L64.0042 724.836 L58.5933 724.836 Q54.8057 721.176 48.44 714.874 Q42.0425 708.54 40.1964 706.916 Q36.7271 703.829 34.34 702.62 Q31.921 701.378 29.5975 701.378 Q25.8099 701.378 23.4228 704.052 Q21.0356 706.694 21.0356 710.959 Q21.0356 713.982 22.086 717.356 Q23.1363 720.698 25.2688 724.518 L18.7758 724.518 Q17.2162 720.635 16.4205 717.261 Q15.6248 713.887 15.6248 711.086 Q15.6248 703.702 19.3169 699.309 Q23.009 694.917 29.1837 694.917 Q32.112 694.917 34.7537 696.031 Q37.3637 697.113 40.9285 700.01 Q41.8515 700.805 46.2757 705.07 Q50.668 709.335 58.5933 717.102 Z" fill="#000000" fill-rule="nonzero" fill-opacity="1" /><path clip-path="url(#clip130)" d="M28.3562 685.782 L28.3562 651.63 L34.2127 651.63 L34.2127 656.118 L56.1107 656.118 Q58.4023 656.118 59.4208 655.354 Q60.4075 654.558 60.4075 652.808 Q60.4075 652.33 60.3439 651.63 Q60.2484 650.93 60.2166 650.707 L64.4498 650.707 Q64.8635 651.821 65.0545 652.999 Q65.2455 654.177 65.2455 655.354 Q65.2455 659.174 63.1766 660.638 Q61.0759 662.102 55.4741 662.102 L34.2127 662.102 L34.2127 675.247 L64.0042 675.247 L64.0042 681.231 L34.2127 681.231 L34.2127 685.782 L28.3562 685.782 Z" fill="#000000" fill-rule="nonzero" fill-opacity="1" /><path clip-path="url(#clip130)" d="M14.5426 607.961 Q21.8632 612.227 29.0246 614.295 Q36.186 616.364 43.5384 616.364 Q50.8908 616.364 58.1159 614.295 Q65.3091 612.195 72.5979 607.961 L72.5979 613.054 Q65.1182 617.828 57.8931 620.215 Q50.668 622.571 43.5384 622.571 Q36.4406 622.571 29.2474 620.215 Q22.0542 617.86 14.5426 613.054 L14.5426 607.961 Z" fill="#000000" fill-rule="nonzero" fill-opacity="1" /><path clip-path="url(#clip130)" d="M77.5631 597.203 L28.3562 597.203 L28.3562 591.347 L50.5089 591.347 Q55.124 591.347 57.4793 589.151 Q59.8346 586.955 59.8346 582.658 Q59.8346 577.947 57.161 575.592 Q54.4874 573.205 49.1402 573.205 L28.3562 573.205 L28.3562 567.348 L55.7924 567.348 Q57.7021 567.348 58.6251 566.807 Q59.5163 566.234 59.5163 565.057 Q59.5163 564.77 59.3572 564.261 Q59.1662 563.752 58.7843 562.86 L63.4949 562.86 Q64.227 564.165 64.5771 565.343 Q64.9272 566.489 64.9272 567.603 Q64.9272 569.799 63.6859 571.104 Q62.4446 572.409 59.8983 572.886 Q62.4127 574.478 63.6859 576.801 Q64.9272 579.093 64.9272 582.212 Q64.9272 585.459 63.6859 587.75 Q62.4446 590.01 59.9619 591.347 L77.5631 591.347 L77.5631 597.203 Z" fill="#000000" fill-rule="nonzero" fill-opacity="1" /><path clip-path="url(#clip130)" d="M16.4842 554.871 L16.4842 548.442 L36.568 548.442 L16.4842 527.117 L16.4842 518.842 L38.6368 542.427 L64.0042 517.155 L64.0042 525.621 L41.1194 548.442 L64.0042 548.442 L64.0042 554.871 L16.4842 554.871 Z" fill="#000000" fill-rule="nonzero" fill-opacity="1" /><path clip-path="url(#clip130)" d="M16.4842 488.095 L34.2127 470.812 L34.2127 477.21 L21.6404 491.214 L34.2127 505.219 L34.2127 511.617 L16.4842 494.334 L16.4842 488.095 Z" fill="#000000" fill-rule="nonzero" fill-opacity="1" /><path clip-path="url(#clip130)" d="M58.5933 451.397 L58.5933 428.958 L64.0042 428.958 L64.0042 459.131 L58.5933 459.131 Q54.8057 455.471 48.44 449.169 Q42.0425 442.835 40.1964 441.212 Q36.7271 438.124 34.34 436.915 Q31.921 435.674 29.5975 435.674 Q25.8099 435.674 23.4228 438.347 Q21.0356 440.989 21.0356 445.254 Q21.0356 448.278 22.086 451.652 Q23.1363 454.994 25.2688 458.813 L18.7758 458.813 Q17.2162 454.93 16.4205 451.556 Q15.6248 448.182 15.6248 445.381 Q15.6248 437.997 19.3169 433.605 Q23.009 429.212 29.1837 429.212 Q32.112 429.212 34.7537 430.326 Q37.3637 431.409 40.9285 434.305 Q41.8515 435.101 46.2757 439.366 Q50.668 443.631 58.5933 451.397 Z" fill="#000000" fill-rule="nonzero" fill-opacity="1" /><path clip-path="url(#clip130)" d="M14.5426 417.213 L14.5426 412.121 Q22.0542 407.346 29.2474 404.991 Q36.4406 402.604 43.5384 402.604 Q50.668 402.604 57.8931 404.991 Q65.1182 407.346 72.5979 412.121 L72.5979 417.213 Q65.3091 412.98 58.1159 410.911 Q50.8908 408.81 43.5384 408.81 Q36.186 408.81 29.0246 410.911 Q21.8632 412.98 14.5426 417.213 Z" fill="#000000" fill-rule="nonzero" fill-opacity="1" /><polyline clip-path="url(#clip131)" style="stroke:#009af9; stroke-linecap:round; stroke-linejoin:round; stroke-width:4; stroke-opacity:1; fill:none" points="324.52,1384.24 344.41,1363.15 364.301,1325.93 384.191,1281.32 404.082,1231.19 423.972,1175.77 443.863,1115.1 463.753,1049.11 483.644,977.88 503.534,901.779 523.425,821.261 543.315,737.359 563.206,651.586 583.096,565.665 602.987,480.976 622.877,399.814 642.768,324.408 662.658,256.501 682.549,198.039 702.439,150.64 722.33,115.387 742.22,93.8106 762.111,86.1857 782.002,92.9026 801.892,113.68 821.783,147.831 841.673,194.699 861.564,252.641 881.454,320.116 901.345,395.182 921.235,475.795 941.126,559.772 961.016,644.966 980.907,729.18 1000.8,810.455 1020.69,886.822 1040.58,956.695 1060.47,1018.76 1080.36,1071.92 1100.25,1115.58 1120.14,1149.4 1140.03,1173.24 1159.92,1187.57 1179.81,1192.91 1199.7,1190.22 1219.59,1180.58 1239.48,1165.18 1259.37,1145.54 1279.26,1122.99 1299.16,1099 1319.05,1074.98 1338.94,1052.13 1358.83,1031.7 1378.72,1014.54 1398.61,1001.46 1418.5,992.997 1438.39,989.36 1458.28,990.685 1478.17,996.739 1498.06,1007.18 1517.95,1021.52 1537.84,1038.95 1557.73,1058.73 1577.62,1079.93 1597.51,1101.58 1617.4,1122.86 1637.29,1142.78 1657.18,1160.64 1677.07,1175.68 1696.97,1187.32 1716.86,1195.26 1736.75,1199.15 1756.64,1198.99 1776.53,1194.85 1796.42,1186.98 1816.31,1175.82 1836.2,1161.91 1856.09,1145.85 1875.98,1128.42 1895.87,1110.32 1915.76,1092.39 1935.65,1075.42 1955.54,1060.06 1975.43,1047.1 1995.32,1037 2015.21,1030.34 2035.1,1027.42 2054.99,1028.46 2074.89,1033.57 2094.78,1042.69 2114.67,1055.6 2134.56,1072.02 2154.45,1091.51 2174.34,1113.6 2194.23,1137.71 2214.12,1163.18 2234.01,1189.39 2253.9,1215.69 2273.79,1241.44 2293.68,1266.07 "/>
</svg>
