<?xml version="1.0" encoding="utf-8"?>
<svg xmlns="http://www.w3.org/2000/svg" xmlns:xlink="http://www.w3.org/1999/xlink" width="600" height="400" viewBox="0 0 2400 1600">
<defs>
  <clipPath id="clip950">
    <rect x="0" y="0" width="2400" height="1600"/>
  </clipPath>
</defs>
<path clip-path="url(#clip950)" d="M0 1600 L2400 1600 L2400 0 L0 0  Z" fill="#ffffff" fill-rule="evenodd" fill-opacity="1"/>
<defs>
  <clipPath id="clip951">
    <rect x="480" y="0" width="1681" height="1600"/>
  </clipPath>
</defs>
<path clip-path="url(#clip950)" d="M178.867 1423.18 L2352.76 1423.18 L2352.76 47.2441 L178.867 47.2441  Z" fill="#ffffff" fill-rule="evenodd" fill-opacity="1"/>
<defs>
  <clipPath id="clip952">
    <rect x="178" y="47" width="2175" height="1377"/>
  </clipPath>
</defs>
<polyline clip-path="url(#clip952)" style="stroke:#000000; stroke-linecap:round; stroke-linejoin:round; stroke-width:2; stroke-opacity:0.1; fill:none" points="238.339,1423.18 238.339,47.2441 "/>
<polyline clip-path="url(#clip952)" style="stroke:#000000; stroke-linecap:round; stroke-linejoin:round; stroke-width:2; stroke-opacity:0.1; fill:none" points="751.562,1423.18 751.562,47.2441 "/>
<polyline clip-path="url(#clip952)" style="stroke:#000000; stroke-linecap:round; stroke-linejoin:round; stroke-width:2; stroke-opacity:0.1; fill:none" points="1264.78,1423.18 1264.78,47.2441 "/>
<polyline clip-path="url(#clip952)" style="stroke:#000000; stroke-linecap:round; stroke-linejoin:round; stroke-width:2; stroke-opacity:0.1; fill:none" points="1778.01,1423.18 1778.01,47.2441 "/>
<polyline clip-path="url(#clip952)" style="stroke:#000000; stroke-linecap:round; stroke-linejoin:round; stroke-width:2; stroke-opacity:0.1; fill:none" points="2291.23,1423.18 2291.23,47.2441 "/>
<polyline clip-path="url(#clip952)" style="stroke:#000000; stroke-linecap:round; stroke-linejoin:round; stroke-width:2; stroke-opacity:0.1; fill:none" points="178.867,1358.09 2352.76,1358.09 "/>
<polyline clip-path="url(#clip952)" style="stroke:#000000; stroke-linecap:round; stroke-linejoin:round; stroke-width:2; stroke-opacity:0.1; fill:none" points="178.867,1082.31 2352.76,1082.31 "/>
<polyline clip-path="url(#clip952)" style="stroke:#000000; stroke-linecap:round; stroke-linejoin:round; stroke-width:2; stroke-opacity:0.1; fill:none" points="178.867,806.527 2352.76,806.527 "/>
<polyline clip-path="url(#clip952)" style="stroke:#000000; stroke-linecap:round; stroke-linejoin:round; stroke-width:2; stroke-opacity:0.1; fill:none" points="178.867,530.743 2352.76,530.743 "/>
<polyline clip-path="url(#clip952)" style="stroke:#000000; stroke-linecap:round; stroke-linejoin:round; stroke-width:2; stroke-opacity:0.1; fill:none" points="178.867,254.959 2352.76,254.959 "/>
<polyline clip-path="url(#clip950)" style="stroke:#000000; stroke-linecap:round; stroke-linejoin:round; stroke-width:4; stroke-opacity:1; fill:none" points="178.867,1423.18 2352.76,1423.18 "/>
<polyline clip-path="url(#clip950)" style="stroke:#000000; stroke-linecap:round; stroke-linejoin:round; stroke-width:4; stroke-opacity:1; fill:none" points="238.339,1423.18 238.339,1404.28 "/>
<polyline clip-path="url(#clip950)" style="stroke:#000000; stroke-linecap:round; stroke-linejoin:round; stroke-width:4; stroke-opacity:1; fill:none" points="751.562,1423.18 751.562,1404.28 "/>
<polyline clip-path="url(#clip950)" style="stroke:#000000; stroke-linecap:round; stroke-linejoin:round; stroke-width:4; stroke-opacity:1; fill:none" points="1264.78,1423.18 1264.78,1404.28 "/>
<polyline clip-path="url(#clip950)" style="stroke:#000000; stroke-linecap:round; stroke-linejoin:round; stroke-width:4; stroke-opacity:1; fill:none" points="1778.01,1423.18 1778.01,1404.28 "/>
<polyline clip-path="url(#clip950)" style="stroke:#000000; stroke-linecap:round; stroke-linejoin:round; stroke-width:4; stroke-opacity:1; fill:none" points="2291.23,1423.18 2291.23,1404.28 "/>
<path clip-path="url(#clip950)" d="M238.339 1454.1 Q234.728 1454.1 232.899 1457.66 Q231.094 1461.2 231.094 1468.33 Q231.094 1475.44 232.899 1479.01 Q234.728 1482.55 238.339 1482.55 Q241.973 1482.55 243.779 1479.01 Q245.607 1475.44 245.607 1468.33 Q245.607 1461.2 243.779 1457.66 Q241.973 1454.1 238.339 1454.1 M238.339 1450.39 Q244.149 1450.39 247.205 1455 Q250.283 1459.58 250.283 1468.33 Q250.283 1477.06 247.205 1481.67 Q244.149 1486.25 238.339 1486.25 Q232.529 1486.25 229.45 1481.67 Q226.395 1477.06 226.395 1468.33 Q226.395 1459.58 229.45 1455 Q232.529 1450.39 238.339 1450.39 Z" fill="#000000" fill-rule="nonzero" fill-opacity="1" /><path clip-path="url(#clip950)" d="M715.254 1481.64 L731.574 1481.64 L731.574 1485.58 L709.629 1485.58 L709.629 1481.64 Q712.291 1478.89 716.875 1474.26 Q721.481 1469.61 722.662 1468.27 Q724.907 1465.74 725.787 1464.01 Q726.689 1462.25 726.689 1460.56 Q726.689 1457.8 724.745 1456.07 Q722.824 1454.33 719.722 1454.33 Q717.523 1454.33 715.069 1455.09 Q712.638 1455.86 709.861 1457.41 L709.861 1452.69 Q712.685 1451.55 715.138 1450.97 Q717.592 1450.39 719.629 1450.39 Q725 1450.39 728.194 1453.08 Q731.388 1455.77 731.388 1460.26 Q731.388 1462.39 730.578 1464.31 Q729.791 1466.2 727.685 1468.8 Q727.106 1469.47 724.004 1472.69 Q720.902 1475.88 715.254 1481.64 Z" fill="#000000" fill-rule="nonzero" fill-opacity="1" /><path clip-path="url(#clip950)" d="M741.435 1451.02 L759.791 1451.02 L759.791 1454.96 L745.717 1454.96 L745.717 1463.43 Q746.736 1463.08 747.754 1462.92 Q748.773 1462.73 749.791 1462.73 Q755.578 1462.73 758.958 1465.9 Q762.337 1469.08 762.337 1474.49 Q762.337 1480.07 758.865 1483.17 Q755.393 1486.25 749.073 1486.25 Q746.898 1486.25 744.629 1485.88 Q742.384 1485.51 739.976 1484.77 L739.976 1480.07 Q742.06 1481.2 744.282 1481.76 Q746.504 1482.32 748.981 1482.32 Q752.985 1482.32 755.323 1480.21 Q757.661 1478.1 757.661 1474.49 Q757.661 1470.88 755.323 1468.77 Q752.985 1466.67 748.981 1466.67 Q747.106 1466.67 745.231 1467.08 Q743.379 1467.5 741.435 1468.38 L741.435 1451.02 Z" fill="#000000" fill-rule="nonzero" fill-opacity="1" /><path clip-path="url(#clip950)" d="M781.55 1454.1 Q777.939 1454.1 776.11 1457.66 Q774.305 1461.2 774.305 1468.33 Q774.305 1475.44 776.11 1479.01 Q777.939 1482.55 781.55 1482.55 Q785.184 1482.55 786.99 1479.01 Q788.819 1475.44 788.819 1468.33 Q788.819 1461.2 786.99 1457.66 Q785.184 1454.1 781.55 1454.1 M781.55 1450.39 Q787.36 1450.39 790.416 1455 Q793.495 1459.58 793.495 1468.33 Q793.495 1477.06 790.416 1481.67 Q787.36 1486.25 781.55 1486.25 Q775.74 1486.25 772.661 1481.67 Q769.606 1477.06 769.606 1468.33 Q769.606 1459.58 772.661 1455 Q775.74 1450.39 781.55 1450.39 Z" fill="#000000" fill-rule="nonzero" fill-opacity="1" /><path clip-path="url(#clip950)" d="M1224.4 1451.02 L1242.76 1451.02 L1242.76 1454.96 L1228.69 1454.96 L1228.69 1463.43 Q1229.7 1463.08 1230.72 1462.92 Q1231.74 1462.73 1232.76 1462.73 Q1238.55 1462.73 1241.93 1465.9 Q1245.31 1469.08 1245.31 1474.49 Q1245.31 1480.07 1241.83 1483.17 Q1238.36 1486.25 1232.04 1486.25 Q1229.87 1486.25 1227.6 1485.88 Q1225.35 1485.51 1222.94 1484.77 L1222.94 1480.07 Q1225.03 1481.2 1227.25 1481.76 Q1229.47 1482.32 1231.95 1482.32 Q1235.95 1482.32 1238.29 1480.21 Q1240.63 1478.1 1240.63 1474.49 Q1240.63 1470.88 1238.29 1468.77 Q1235.95 1466.67 1231.95 1466.67 Q1230.07 1466.67 1228.2 1467.08 Q1226.35 1467.5 1224.4 1468.38 L1224.4 1451.02 Z" fill="#000000" fill-rule="nonzero" fill-opacity="1" /><path clip-path="url(#clip950)" d="M1264.52 1454.1 Q1260.91 1454.1 1259.08 1457.66 Q1257.27 1461.2 1257.27 1468.33 Q1257.27 1475.44 1259.08 1479.01 Q1260.91 1482.55 1264.52 1482.55 Q1268.15 1482.55 1269.96 1479.01 Q1271.79 1475.44 1271.79 1468.33 Q1271.79 1461.2 1269.96 1457.66 Q1268.15 1454.1 1264.52 1454.1 M1264.52 1450.39 Q1270.33 1450.39 1273.38 1455 Q1276.46 1459.58 1276.46 1468.33 Q1276.46 1477.06 1273.38 1481.67 Q1270.33 1486.25 1264.52 1486.25 Q1258.71 1486.25 1255.63 1481.67 Q1252.57 1477.06 1252.57 1468.33 Q1252.57 1459.58 1255.63 1455 Q1258.71 1450.39 1264.52 1450.39 Z" fill="#000000" fill-rule="nonzero" fill-opacity="1" /><path clip-path="url(#clip950)" d="M1294.68 1454.1 Q1291.07 1454.1 1289.24 1457.66 Q1287.44 1461.2 1287.44 1468.33 Q1287.44 1475.44 1289.24 1479.01 Q1291.07 1482.55 1294.68 1482.55 Q1298.31 1482.55 1300.12 1479.01 Q1301.95 1475.44 1301.95 1468.33 Q1301.95 1461.2 1300.12 1457.66 Q1298.31 1454.1 1294.68 1454.1 M1294.68 1450.39 Q1300.49 1450.39 1303.55 1455 Q1306.62 1459.58 1306.62 1468.33 Q1306.62 1477.06 1303.55 1481.67 Q1300.49 1486.25 1294.68 1486.25 Q1288.87 1486.25 1285.79 1481.67 Q1282.74 1477.06 1282.74 1468.33 Q1282.74 1459.58 1285.79 1455 Q1288.87 1450.39 1294.68 1450.39 Z" fill="#000000" fill-rule="nonzero" fill-opacity="1" /><path clip-path="url(#clip950)" d="M1736.28 1451.02 L1758.51 1451.02 L1758.51 1453.01 L1745.96 1485.58 L1741.08 1485.58 L1752.88 1454.96 L1736.28 1454.96 L1736.28 1451.02 Z" fill="#000000" fill-rule="nonzero" fill-opacity="1" /><path clip-path="url(#clip950)" d="M1767.67 1451.02 L1786.03 1451.02 L1786.03 1454.96 L1771.95 1454.96 L1771.95 1463.43 Q1772.97 1463.08 1773.99 1462.92 Q1775.01 1462.73 1776.03 1462.73 Q1781.82 1462.73 1785.2 1465.9 Q1788.57 1469.08 1788.57 1474.49 Q1788.57 1480.07 1785.1 1483.17 Q1781.63 1486.25 1775.31 1486.25 Q1773.14 1486.25 1770.87 1485.88 Q1768.62 1485.51 1766.21 1484.77 L1766.21 1480.07 Q1768.3 1481.2 1770.52 1481.76 Q1772.74 1482.32 1775.22 1482.32 Q1779.22 1482.32 1781.56 1480.21 Q1783.9 1478.1 1783.9 1474.49 Q1783.9 1470.88 1781.56 1468.77 Q1779.22 1466.67 1775.22 1466.67 Q1773.34 1466.67 1771.47 1467.08 Q1769.62 1467.5 1767.67 1468.38 L1767.67 1451.02 Z" fill="#000000" fill-rule="nonzero" fill-opacity="1" /><path clip-path="url(#clip950)" d="M1807.79 1454.1 Q1804.18 1454.1 1802.35 1457.66 Q1800.54 1461.2 1800.54 1468.33 Q1800.54 1475.44 1802.35 1479.01 Q1804.18 1482.55 1807.79 1482.55 Q1811.42 1482.55 1813.23 1479.01 Q1815.06 1475.44 1815.06 1468.33 Q1815.06 1461.2 1813.23 1457.66 Q1811.42 1454.1 1807.79 1454.1 M1807.79 1450.39 Q1813.6 1450.39 1816.65 1455 Q1819.73 1459.58 1819.73 1468.33 Q1819.73 1477.06 1816.65 1481.67 Q1813.6 1486.25 1807.79 1486.25 Q1801.98 1486.25 1798.9 1481.67 Q1795.84 1477.06 1795.84 1468.33 Q1795.84 1459.58 1798.9 1455 Q1801.98 1450.39 1807.79 1450.39 Z" fill="#000000" fill-rule="nonzero" fill-opacity="1" /><path clip-path="url(#clip950)" d="M2235.76 1481.64 L2243.4 1481.64 L2243.4 1455.28 L2235.09 1456.95 L2235.09 1452.69 L2243.35 1451.02 L2248.02 1451.02 L2248.02 1481.64 L2255.66 1481.64 L2255.66 1485.58 L2235.76 1485.58 L2235.76 1481.64 Z" fill="#000000" fill-rule="nonzero" fill-opacity="1" /><path clip-path="url(#clip950)" d="M2275.11 1454.1 Q2271.5 1454.1 2269.67 1457.66 Q2267.86 1461.2 2267.86 1468.33 Q2267.86 1475.44 2269.67 1479.01 Q2271.5 1482.55 2275.11 1482.55 Q2278.74 1482.55 2280.55 1479.01 Q2282.38 1475.44 2282.38 1468.33 Q2282.38 1461.2 2280.55 1457.66 Q2278.74 1454.1 2275.11 1454.1 M2275.11 1450.39 Q2280.92 1450.39 2283.97 1455 Q2287.05 1459.58 2287.05 1468.33 Q2287.05 1477.06 2283.97 1481.67 Q2280.92 1486.25 2275.11 1486.25 Q2269.3 1486.25 2266.22 1481.67 Q2263.16 1477.06 2263.16 1468.33 Q2263.16 1459.58 2266.22 1455 Q2269.3 1450.39 2275.11 1450.39 Z" fill="#000000" fill-rule="nonzero" fill-opacity="1" /><path clip-path="url(#clip950)" d="M2305.27 1454.1 Q2301.66 1454.1 2299.83 1457.66 Q2298.02 1461.2 2298.02 1468.33 Q2298.02 1475.44 2299.83 1479.01 Q2301.66 1482.55 2305.27 1482.55 Q2308.9 1482.55 2310.71 1479.01 Q2312.54 1475.44 2312.54 1468.33 Q2312.54 1461.2 2310.71 1457.66 Q2308.9 1454.1 2305.27 1454.1 M2305.27 1450.39 Q2311.08 1450.39 2314.14 1455 Q2317.21 1459.58 2317.21 1468.33 Q2317.21 1477.06 2314.14 1481.67 Q2311.08 1486.25 2305.27 1486.25 Q2299.46 1486.25 2296.38 1481.67 Q2293.33 1477.06 2293.33 1468.33 Q2293.33 1459.58 2296.38 1455 Q2299.46 1450.39 2305.27 1450.39 Z" fill="#000000" fill-rule="nonzero" fill-opacity="1" /><path clip-path="url(#clip950)" d="M2335.43 1454.1 Q2331.82 1454.1 2329.99 1457.66 Q2328.19 1461.2 2328.19 1468.33 Q2328.19 1475.44 2329.99 1479.01 Q2331.82 1482.55 2335.43 1482.55 Q2339.07 1482.55 2340.87 1479.01 Q2342.7 1475.44 2342.7 1468.33 Q2342.7 1461.2 2340.87 1457.66 Q2339.07 1454.1 2335.43 1454.1 M2335.43 1450.39 Q2341.24 1450.39 2344.3 1455 Q2347.38 1459.58 2347.38 1468.33 Q2347.38 1477.06 2344.3 1481.67 Q2341.24 1486.25 2335.43 1486.25 Q2329.62 1486.25 2326.54 1481.67 Q2323.49 1477.06 2323.49 1468.33 Q2323.49 1459.58 2326.54 1455 Q2329.62 1450.39 2335.43 1450.39 Z" fill="#000000" fill-rule="nonzero" fill-opacity="1" /><path clip-path="url(#clip950)" d="M1262.88 1518.52 L1268.74 1518.52 L1268.74 1568.04 L1262.88 1568.04 L1262.88 1518.52 Z" fill="#000000" fill-rule="nonzero" fill-opacity="1" /><polyline clip-path="url(#clip950)" style="stroke:#000000; stroke-linecap:round; stroke-linejoin:round; stroke-width:4; stroke-opacity:1; fill:none" points="178.867,1423.18 178.867,47.2441 "/>
<polyline clip-path="url(#clip950)" style="stroke:#000000; stroke-linecap:round; stroke-linejoin:round; stroke-width:4; stroke-opacity:1; fill:none" points="178.867,1358.09 197.764,1358.09 "/>
<polyline clip-path="url(#clip950)" style="stroke:#000000; stroke-linecap:round; stroke-linejoin:round; stroke-width:4; stroke-opacity:1; fill:none" points="178.867,1082.31 197.764,1082.31 "/>
<polyline clip-path="url(#clip950)" style="stroke:#000000; stroke-linecap:round; stroke-linejoin:round; stroke-width:4; stroke-opacity:1; fill:none" points="178.867,806.527 197.764,806.527 "/>
<polyline clip-path="url(#clip950)" style="stroke:#000000; stroke-linecap:round; stroke-linejoin:round; stroke-width:4; stroke-opacity:1; fill:none" points="178.867,530.743 197.764,530.743 "/>
<polyline clip-path="url(#clip950)" style="stroke:#000000; stroke-linecap:round; stroke-linejoin:round; stroke-width:4; stroke-opacity:1; fill:none" points="178.867,254.959 197.764,254.959 "/>
<path clip-path="url(#clip950)" d="M51.9875 1358.55 L81.6633 1358.55 L81.6633 1362.48 L51.9875 1362.48 L51.9875 1358.55 Z" fill="#000000" fill-rule="nonzero" fill-opacity="1" /><path clip-path="url(#clip950)" d="M92.566 1371.44 L100.205 1371.44 L100.205 1345.07 L91.8947 1346.74 L91.8947 1342.48 L100.159 1340.81 L104.834 1340.81 L104.834 1371.44 L112.473 1371.44 L112.473 1375.37 L92.566 1375.37 L92.566 1371.44 Z" fill="#000000" fill-rule="nonzero" fill-opacity="1" /><path clip-path="url(#clip950)" d="M121.964 1340.81 L140.32 1340.81 L140.32 1344.75 L126.246 1344.75 L126.246 1353.22 Q127.265 1352.87 128.283 1352.71 Q129.302 1352.53 130.32 1352.53 Q136.107 1352.53 139.487 1355.7 Q142.867 1358.87 142.867 1364.29 Q142.867 1369.86 139.394 1372.97 Q135.922 1376.04 129.603 1376.04 Q127.427 1376.04 125.158 1375.67 Q122.913 1375.3 120.506 1374.56 L120.506 1369.86 Q122.589 1371 124.811 1371.55 Q127.033 1372.11 129.51 1372.11 Q133.515 1372.11 135.853 1370 Q138.191 1367.9 138.191 1364.29 Q138.191 1360.67 135.853 1358.57 Q133.515 1356.46 129.51 1356.46 Q127.635 1356.46 125.76 1356.88 Q123.908 1357.3 121.964 1358.17 L121.964 1340.81 Z" fill="#000000" fill-rule="nonzero" fill-opacity="1" /><path clip-path="url(#clip950)" d="M50.9921 1082.76 L80.6679 1082.76 L80.6679 1086.7 L50.9921 1086.7 L50.9921 1082.76 Z" fill="#000000" fill-rule="nonzero" fill-opacity="1" /><path clip-path="url(#clip950)" d="M91.5706 1095.65 L99.2095 1095.65 L99.2095 1069.29 L90.8993 1070.96 L90.8993 1066.7 L99.1632 1065.03 L103.839 1065.03 L103.839 1095.65 L111.478 1095.65 L111.478 1099.59 L91.5706 1099.59 L91.5706 1095.65 Z" fill="#000000" fill-rule="nonzero" fill-opacity="1" /><path clip-path="url(#clip950)" d="M130.922 1068.11 Q127.311 1068.11 125.482 1071.67 Q123.677 1075.22 123.677 1082.34 Q123.677 1089.45 125.482 1093.02 Q127.311 1096.56 130.922 1096.56 Q134.556 1096.56 136.362 1093.02 Q138.191 1089.45 138.191 1082.34 Q138.191 1075.22 136.362 1071.67 Q134.556 1068.11 130.922 1068.11 M130.922 1064.41 Q136.732 1064.41 139.788 1069.01 Q142.867 1073.59 142.867 1082.34 Q142.867 1091.07 139.788 1095.68 Q136.732 1100.26 130.922 1100.26 Q125.112 1100.26 122.033 1095.68 Q118.978 1091.07 118.978 1082.34 Q118.978 1073.59 122.033 1069.01 Q125.112 1064.41 130.922 1064.41 Z" fill="#000000" fill-rule="nonzero" fill-opacity="1" /><path clip-path="url(#clip950)" d="M82.1494 806.978 L111.825 806.978 L111.825 810.913 L82.1494 810.913 L82.1494 806.978 Z" fill="#000000" fill-rule="nonzero" fill-opacity="1" /><path clip-path="url(#clip950)" d="M121.964 789.247 L140.32 789.247 L140.32 793.182 L126.246 793.182 L126.246 801.654 Q127.265 801.307 128.283 801.145 Q129.302 800.959 130.32 800.959 Q136.107 800.959 139.487 804.131 Q142.867 807.302 142.867 812.719 Q142.867 818.297 139.394 821.399 Q135.922 824.478 129.603 824.478 Q127.427 824.478 125.158 824.107 Q122.913 823.737 120.506 822.996 L120.506 818.297 Q122.589 819.432 124.811 819.987 Q127.033 820.543 129.51 820.543 Q133.515 820.543 135.853 818.436 Q138.191 816.33 138.191 812.719 Q138.191 809.108 135.853 807.001 Q133.515 804.895 129.51 804.895 Q127.635 804.895 125.76 805.311 Q123.908 805.728 121.964 806.608 L121.964 789.247 Z" fill="#000000" fill-rule="nonzero" fill-opacity="1" /><path clip-path="url(#clip950)" d="M130.922 516.542 Q127.311 516.542 125.482 520.106 Q123.677 523.648 123.677 530.778 Q123.677 537.884 125.482 541.449 Q127.311 544.991 130.922 544.991 Q134.556 544.991 136.362 541.449 Q138.191 537.884 138.191 530.778 Q138.191 523.648 136.362 520.106 Q134.556 516.542 130.922 516.542 M130.922 512.838 Q136.732 512.838 139.788 517.444 Q142.867 522.028 142.867 530.778 Q142.867 539.504 139.788 544.111 Q136.732 548.694 130.922 548.694 Q125.112 548.694 122.033 544.111 Q118.978 539.504 118.978 530.778 Q118.978 522.028 122.033 517.444 Q125.112 512.838 130.922 512.838 Z" fill="#000000" fill-rule="nonzero" fill-opacity="1" /><path clip-path="url(#clip950)" d="M121.964 237.679 L140.32 237.679 L140.32 241.614 L126.246 241.614 L126.246 250.087 Q127.265 249.739 128.283 249.577 Q129.302 249.392 130.32 249.392 Q136.107 249.392 139.487 252.563 Q142.867 255.735 142.867 261.151 Q142.867 266.73 139.394 269.832 Q135.922 272.911 129.603 272.911 Q127.427 272.911 125.158 272.54 Q122.913 272.17 120.506 271.429 L120.506 266.73 Q122.589 267.864 124.811 268.42 Q127.033 268.975 129.51 268.975 Q133.515 268.975 135.853 266.869 Q138.191 264.763 138.191 261.151 Q138.191 257.54 135.853 255.434 Q133.515 253.327 129.51 253.327 Q127.635 253.327 125.76 253.744 Q123.908 254.161 121.964 255.04 L121.964 237.679 Z" fill="#000000" fill-rule="nonzero" fill-opacity="1" /><polyline clip-path="url(#clip952)" style="stroke:#009af9; stroke-linecap:round; stroke-linejoin:round; stroke-width:4; stroke-opacity:1; fill:none" points="289.661,538.879 340.984,544.121 392.306,545.249 443.628,542.878 494.95,540.528 546.273,540.54 597.595,543.801 648.917,550.474 700.24,560.591 751.562,574.343 802.884,592.074 854.206,614.107 905.529,640.23 956.851,667.997 1008.17,689.696 1059.5,692.494 1110.82,673.483 1162.14,650.252 1213.46,639.327 1264.78,642.745 1316.11,655.952 1367.43,673.891 1418.75,691.361 1470.07,701.613 1521.4,695.571 1572.72,664.445 1624.04,608.611 1675.36,545.486 1726.69,499.201 1778.01,481.436 1829.33,489.607 1880.65,515.711 1931.97,553.026 1983.3,597.136 2034.62,644.881 2085.94,692.87 2137.26,735.461 2188.59,762.371 2239.91,758.456 2291.23,712.476 "/>
<polyline clip-path="url(#clip952)" style="stroke:#e26f46; stroke-linecap:round; stroke-linejoin:round; stroke-width:4; stroke-opacity:1; fill:none" points="289.661,556.22 340.984,577.091 392.306,594.05 443.628,601.842 494.95,604.414 546.273,606.01 597.595,609.24 648.917,615.296 700.24,624.659 751.562,637.514 802.884,653.743 854.206,672.65 905.529,691.754 956.851,704.714 1008.17,699.235 1059.5,664.125 1110.82,611.477 1162.14,573.348 1213.46,563.765 1264.78,575.428 1316.11,597.947 1367.43,623.922 1418.75,647.403 1470.07,661.451 1521.4,657.075 1572.72,626.056 1624.04,570.204 1675.36,508.573 1726.69,465.916 1778.01,453.39 1829.33,467.259 1880.65,498.803 1931.97,540.861 1983.3,588.733 2034.62,638.996 2085.94,687.744 2137.26,728.465 2188.59,749.761 2239.91,735.853 2291.23,676.969 "/>
<polyline clip-path="url(#clip952)" style="stroke:#3da44d; stroke-linecap:round; stroke-linejoin:round; stroke-width:4; stroke-opacity:1; fill:none" points="289.661,566.932 340.984,472.31 392.306,400.75 443.628,356.911 494.95,331.973 546.273,313.637 597.595,293.096 648.917,265.631 700.24,229.624 751.562,185.925 802.884,138.514 854.206,97.5518 905.529,86.1857 956.851,151.735 1008.17,363.553 1059.5,742.352 1110.82,1142.79 1162.14,1364.58 1213.46,1384.24 1264.78,1290.44 1316.11,1155.04 1367.43,1014.16 1418.75,886.48 1470.07,787.119 1521.4,734.324 1572.72,744.789 1624.04,813.978 1675.36,900.879 1726.69,951.697 1778.01,940.123 1829.33,873.571 1880.65,770.262 1931.97,646.353 1983.3,513.509 2034.62,381.664 2085.94,264.349 2137.26,184.438 2188.59,178.812 2239.91,291.986 2291.23,538.005 "/>
<polyline clip-path="url(#clip952)" style="stroke:#c271d2; stroke-linecap:round; stroke-linejoin:round; stroke-width:4; stroke-opacity:1; fill:none" points="289.661,527.506 340.984,527.33 392.306,527.485 443.628,527.775 494.95,528.014 546.273,528.101 597.595,528.01 648.917,527.743 700.24,527.313 751.562,526.734 802.884,526.033 854.206,525.286 905.529,524.69 956.851,524.692 1008.17,526.057 1059.5,529.298 1110.82,533.307 1162.14,535.984 1213.46,536.702 1264.78,536.128 1316.11,534.976 1367.43,533.691 1418.75,532.591 1470.07,532.037 1521.4,532.494 1572.72,534.398 1624.04,537.665 1675.36,541.296 1726.69,543.981 1778.01,545.113 1829.33,544.873 1880.65,543.712 1931.97,542.013 1983.3,540.033 2034.62,537.979 2085.94,536.103 2137.26,534.827 2188.59,534.873 2239.91,537.19 2291.23,542.268 "/>
<polyline clip-path="url(#clip952)" style="stroke:#009af9; stroke-linecap:round; stroke-linejoin:round; stroke-width:4; stroke-opacity:1; fill:none" stroke-dasharray="16, 10" points="289.661,546.142 340.984,544.438 392.306,542.731 443.628,539.799 494.95,537.902 546.273,538.586 597.595,542.611 648.917,549.822 700.24,560.354 751.562,574.551 802.884,592.537 854.206,614.736 905.529,640.884 956.851,668.628 1008.17,690.104 1059.5,692.546 1110.82,673.234 1162.14,649.923 1213.46,639.085 1264.78,642.659 1316.11,656.004 1367.43,674.044 1418.75,691.553 1470.07,701.779 1521.4,695.634 1572.72,664.334 1624.04,608.318 1675.36,545.073 1726.69,498.779 1778.01,481.09 1829.33,489.38 1880.65,515.602 1931.97,553.035 1983.3,597.235 2034.62,645.049 2085.94,693.084 2137.26,735.692 2188.59,762.572 2239.91,758.597 2291.23,712.544 "/>
<polyline clip-path="url(#clip952)" style="stroke:#e26f46; stroke-linecap:round; stroke-linejoin:round; stroke-width:4; stroke-opacity:1; fill:none" stroke-dasharray="16, 10" points="289.661,580.097 340.984,580.74 392.306,588.703 443.628,594.033 494.95,597.253 546.273,600.585 597.595,605.734 648.917,613.518 700.24,624.368 751.562,638.473 802.884,655.773 854.206,675.389 905.529,695 956.851,708.047 1008.17,701.897 1059.5,665.328 1110.82,611.107 1162.14,572.155 1213.46,562.568 1264.78,574.674 1316.11,597.741 1367.43,624.223 1418.75,648.081 1470.07,662.316 1521.4,657.838 1572.72,626.392 1624.04,569.875 1675.36,507.586 1726.69,464.545 1778.01,451.967 1829.33,466.038 1880.65,497.909 1931.97,540.34 1983.3,588.592 2034.62,639.214 2085.94,688.278 2137.26,729.247 2188.59,750.619 2239.91,736.615 2291.23,677.375 "/>
<polyline clip-path="url(#clip952)" style="stroke:#3da44d; stroke-linecap:round; stroke-linejoin:round; stroke-width:4; stroke-opacity:1; fill:none" stroke-dasharray="16, 10" points="289.661,580.446 340.984,474.733 392.306,397.951 443.628,352.431 494.95,327.624 546.273,310.164 597.595,290.686 648.917,264.32 700.24,229.279 751.562,186.621 802.884,140.202 854.206,100.177 905.529,89.4696 956.851,155.641 1008.17,367.246 1059.5,744.761 1110.82,1143.06 1162.14,1363.14 1213.46,1382.04 1264.78,1288.23 1316.11,1153.23 1367.43,1012.95 1418.75,885.912 1470.07,787.106 1521.4,734.506 1572.72,744.627 1624.04,812.881 1675.36,898.54 1726.69,948.273 1778.01,936.194 1829.33,869.636 1880.65,766.778 1931.97,643.618 1983.3,511.701 2034.62,380.888 2085.94,264.616 2137.26,185.5 2188.59,180.127 2239.91,292.52 2291.23,536.504 "/>
<polyline clip-path="url(#clip952)" style="stroke:#c271d2; stroke-linecap:round; stroke-linejoin:round; stroke-width:4; stroke-opacity:1; fill:none" stroke-dasharray="16, 10" points="289.661,530.512 340.984,527.751 392.306,526.775 443.628,526.786 494.95,527.129 546.273,527.456 597.595,527.595 648.917,527.574 700.24,527.312 751.562,526.86 802.884,526.192 854.206,525.7 905.529,525.118 956.851,525.139 1008.17,526.388 1059.5,529.42 1110.82,533.206 1162.14,535.772 1213.46,536.513 1264.78,536.013 1316.11,534.948 1367.43,533.735 1418.75,532.696 1470.07,532.156 1521.4,532.578 1572.72,534.41 1624.04,537.569 1675.36,541.105 1726.69,543.745 1778.01,544.89 1829.33,544.705 1880.65,543.611 1931.97,541.981 1983.3,540.068 2034.62,538.073 2085.94,536.241 2137.26,534.991 2188.59,535.037 2239.91,537.296 2291.23,542.28 "/>
<path clip-path="url(#clip950)" d="M1696.26 1377.32 L2280.29 1377.32 L2280.29 1014.44 L1696.26 1014.44  Z" fill="#ffffff" fill-rule="evenodd" fill-opacity="1"/>
<polyline clip-path="url(#clip950)" style="stroke:#000000; stroke-linecap:round; stroke-linejoin:round; stroke-width:4; stroke-opacity:1; fill:none" points="1696.26,1377.32 2280.29,1377.32 2280.29,1014.44 1696.26,1014.44 1696.26,1377.32 "/>
<polyline clip-path="url(#clip950)" style="stroke:#000000; stroke-linecap:round; stroke-linejoin:round; stroke-width:4; stroke-opacity:1; fill:none" points="1720.42,1066.28 1865.34,1066.28 "/>
<path clip-path="url(#clip950)" d="M1905.33 1053.6 L1898.99 1070.8 L1911.7 1070.8 L1905.33 1053.6 M1902.69 1049 L1907.99 1049 L1921.16 1083.56 L1916.3 1083.56 L1913.15 1074.69 L1897.58 1074.69 L1894.43 1083.56 L1889.5 1083.56 L1902.69 1049 Z" fill="#000000" fill-rule="nonzero" fill-opacity="1" /><path clip-path="url(#clip950)" d="M1930.89 1052.84 L1930.89 1079.71 L1936.53 1079.71 Q1943.69 1079.71 1947 1076.47 Q1950.33 1073.23 1950.33 1066.24 Q1950.33 1059.3 1947 1056.08 Q1943.69 1052.84 1936.53 1052.84 L1930.89 1052.84 M1926.21 1049 L1935.82 1049 Q1945.86 1049 1950.56 1053.19 Q1955.26 1057.35 1955.26 1066.24 Q1955.26 1075.18 1950.54 1079.37 Q1945.82 1083.56 1935.82 1083.56 L1926.21 1083.56 L1926.21 1049 Z" fill="#000000" fill-rule="nonzero" fill-opacity="1" /><polyline clip-path="url(#clip950)" style="stroke:#000000; stroke-linecap:round; stroke-linejoin:round; stroke-width:4; stroke-opacity:1; fill:none" stroke-dasharray="16, 10" points="1720.42,1118.12 1865.34,1118.12 "/>
<path clip-path="url(#clip950)" d="M1889.5 1100.84 L1909.36 1100.84 L1909.36 1104.77 L1894.17 1104.77 L1894.17 1114.96 L1907.88 1114.96 L1907.88 1118.89 L1894.17 1118.89 L1894.17 1135.4 L1889.5 1135.4 L1889.5 1100.84 Z" fill="#000000" fill-rule="nonzero" fill-opacity="1" /><path clip-path="url(#clip950)" d="M1921.44 1104.68 L1921.44 1131.55 L1927.09 1131.55 Q1934.24 1131.55 1937.55 1128.31 Q1940.89 1125.07 1940.89 1118.08 Q1940.89 1111.14 1937.55 1107.92 Q1934.24 1104.68 1927.09 1104.68 L1921.44 1104.68 M1916.77 1100.84 L1926.37 1100.84 Q1936.42 1100.84 1941.12 1105.03 Q1945.82 1109.19 1945.82 1118.08 Q1945.82 1127.02 1941.09 1131.21 Q1936.37 1135.4 1926.37 1135.4 L1916.77 1135.4 L1916.77 1100.84 Z" fill="#000000" fill-rule="nonzero" fill-opacity="1" /><polyline clip-path="url(#clip950)" style="stroke:#009af9; stroke-linecap:round; stroke-linejoin:round; stroke-width:4; stroke-opacity:1; fill:none" points="1720.42,1169.96 1865.34,1169.96 "/>
<path clip-path="url(#clip950)" d="M1897.41 1187.91 Q1894.15 1187.91 1892.02 1185.94 Q1889.5 1183.6 1889.5 1179.36 Q1889.5 1174.97 1891.72 1171.54 Q1894.01 1168.02 1898.13 1168.02 Q1900.84 1168.02 1902.97 1169.71 Q1904.22 1170.71 1905.08 1172.37 Q1905.38 1170.5 1905.38 1168.37 Q1905.38 1165.24 1904.64 1163.44 Q1902.99 1159.43 1898.64 1159.43 Q1897 1159.43 1894.45 1160.45 L1894.45 1156.56 Q1897.14 1155.85 1899.54 1155.85 Q1905.75 1155.85 1908.39 1161.54 Q1909.61 1164.23 1909.61 1168.23 Q1909.61 1170.85 1909.03 1173.88 Q1907.58 1181.47 1903.8 1185.08 Q1900.84 1187.91 1897.41 1187.91 M1893.46 1180.06 Q1893.46 1182.37 1894.47 1183.62 Q1895.56 1184.94 1897.23 1184.94 Q1898.71 1184.94 1899.89 1183.9 Q1901.56 1182.47 1902.78 1180.13 Q1903.8 1178.21 1904.31 1176.15 Q1902.25 1171.17 1898.69 1171.17 Q1895.63 1171.17 1894.29 1175.2 Q1893.46 1177.7 1893.46 1180.06 Z" fill="#000000" fill-rule="nonzero" fill-opacity="1" /><path clip-path="url(#clip950)" d="M1926.51 1151.26 Q1923.41 1156.59 1921.9 1161.8 Q1920.4 1167 1920.4 1172.35 Q1920.4 1177.7 1921.9 1182.95 Q1923.43 1188.18 1926.51 1193.49 L1922.81 1193.49 Q1919.33 1188.05 1917.6 1182.79 Q1915.89 1177.54 1915.89 1172.35 Q1915.89 1167.19 1917.6 1161.96 Q1919.31 1156.73 1922.81 1151.26 L1926.51 1151.26 Z" fill="#000000" fill-rule="nonzero" fill-opacity="1" /><path clip-path="url(#clip950)" d="M1960.84 1155.34 L1960.84 1160.27 Q1958.48 1158.07 1955.79 1156.98 Q1953.13 1155.89 1950.12 1155.89 Q1944.2 1155.89 1941.05 1159.53 Q1937.9 1163.14 1937.9 1169.99 Q1937.9 1176.82 1941.05 1180.45 Q1944.2 1184.06 1950.12 1184.06 Q1953.13 1184.06 1955.79 1182.98 Q1958.48 1181.89 1960.84 1179.69 L1960.84 1184.57 Q1958.39 1186.24 1955.63 1187.07 Q1952.9 1187.91 1949.84 1187.91 Q1942 1187.91 1937.48 1183.11 Q1932.97 1178.3 1932.97 1169.99 Q1932.97 1161.66 1937.48 1156.87 Q1942 1152.05 1949.84 1152.05 Q1952.95 1152.05 1955.68 1152.88 Q1958.43 1153.69 1960.84 1155.34 Z" fill="#000000" fill-rule="nonzero" fill-opacity="1" /><path clip-path="url(#clip950)" d="M1966.23 1167.07 L1968.92 1167.07 L1968.92 1187.24 L1966.23 1187.24 L1966.23 1167.07 Z" fill="#000000" fill-rule="nonzero" fill-opacity="1" /><path clip-path="url(#clip950)" d="M1975.08 1151.26 L1978.78 1151.26 Q1982.25 1156.73 1983.96 1161.96 Q1985.7 1167.19 1985.7 1172.35 Q1985.7 1177.54 1983.96 1182.79 Q1982.25 1188.05 1978.78 1193.49 L1975.08 1193.49 Q1978.15 1188.18 1979.66 1182.95 Q1981.19 1177.7 1981.19 1172.35 Q1981.19 1167 1979.66 1161.8 Q1978.15 1156.59 1975.08 1151.26 Z" fill="#000000" fill-rule="nonzero" fill-opacity="1" /><path clip-path="url(#clip950)" d="M2001.81 1152.68 L2005.75 1152.68 L1993.71 1191.63 L1989.77 1191.63 L2001.81 1152.68 Z" fill="#000000" fill-rule="nonzero" fill-opacity="1" /><path clip-path="url(#clip950)" d="M2015.86 1187.91 Q2012.6 1187.91 2010.47 1185.94 Q2007.95 1183.6 2007.95 1179.36 Q2007.95 1174.97 2010.17 1171.54 Q2012.46 1168.02 2016.58 1168.02 Q2019.29 1168.02 2021.42 1169.71 Q2022.67 1170.71 2023.52 1172.37 Q2023.83 1170.5 2023.83 1168.37 Q2023.83 1165.24 2023.08 1163.44 Q2021.44 1159.43 2017.09 1159.43 Q2015.45 1159.43 2012.9 1160.45 L2012.9 1156.56 Q2015.58 1155.85 2017.99 1155.85 Q2024.2 1155.85 2026.83 1161.54 Q2028.06 1164.23 2028.06 1168.23 Q2028.06 1170.85 2027.48 1173.88 Q2026.02 1181.47 2022.25 1185.08 Q2019.29 1187.91 2015.86 1187.91 M2011.9 1180.06 Q2011.9 1182.37 2012.92 1183.62 Q2014.01 1184.94 2015.68 1184.94 Q2017.16 1184.94 2018.34 1183.9 Q2020.01 1182.47 2021.23 1180.13 Q2022.25 1178.21 2022.76 1176.15 Q2020.7 1171.17 2017.14 1171.17 Q2014.08 1171.17 2012.74 1175.2 Q2011.9 1177.7 2011.9 1180.06 Z" fill="#000000" fill-rule="nonzero" fill-opacity="1" /><path clip-path="url(#clip950)" d="M2044.96 1151.26 Q2041.86 1156.59 2040.35 1161.8 Q2038.85 1167 2038.85 1172.35 Q2038.85 1177.7 2040.35 1182.95 Q2041.88 1188.18 2044.96 1193.49 L2041.26 1193.49 Q2037.78 1188.05 2036.05 1182.79 Q2034.33 1177.54 2034.33 1172.35 Q2034.33 1167.19 2036.05 1161.96 Q2037.76 1156.73 2041.26 1151.26 L2044.96 1151.26 Z" fill="#000000" fill-rule="nonzero" fill-opacity="1" /><path clip-path="url(#clip950)" d="M2074.77 1171.59 L2074.77 1187.24 L2070.51 1187.24 L2070.51 1171.73 Q2070.51 1168.05 2069.08 1166.22 Q2067.64 1164.39 2064.77 1164.39 Q2061.32 1164.39 2059.33 1166.59 Q2057.34 1168.79 2057.34 1172.58 L2057.34 1187.24 L2053.06 1187.24 L2053.06 1151.22 L2057.34 1151.22 L2057.34 1165.34 Q2058.87 1163 2060.93 1161.84 Q2063.01 1160.68 2065.72 1160.68 Q2070.19 1160.68 2072.48 1163.46 Q2074.77 1166.22 2074.77 1171.59 Z" fill="#000000" fill-rule="nonzero" fill-opacity="1" /><path clip-path="url(#clip950)" d="M2082.6 1151.26 L2086.3 1151.26 Q2089.77 1156.73 2091.49 1161.96 Q2093.22 1167.19 2093.22 1172.35 Q2093.22 1177.54 2091.49 1182.79 Q2089.77 1188.05 2086.3 1193.49 L2082.6 1193.49 Q2085.68 1188.18 2087.18 1182.95 Q2088.71 1177.7 2088.71 1172.35 Q2088.71 1167 2087.18 1161.8 Q2085.68 1156.59 2082.6 1151.26 Z" fill="#000000" fill-rule="nonzero" fill-opacity="1" /><polyline clip-path="url(#clip950)" style="stroke:#e26f46; stroke-linecap:round; stroke-linejoin:round; stroke-width:4; stroke-opacity:1; fill:none" points="1720.42,1221.8 1865.34,1221.8 "/>
<path clip-path="url(#clip950)" d="M1897.41 1239.75 Q1894.15 1239.75 1892.02 1237.78 Q1889.5 1235.44 1889.5 1231.2 Q1889.5 1226.81 1891.72 1223.38 Q1894.01 1219.86 1898.13 1219.86 Q1900.84 1219.86 1902.97 1221.55 Q1904.22 1222.55 1905.08 1224.21 Q1905.38 1222.34 1905.38 1220.21 Q1905.38 1217.08 1904.64 1215.28 Q1902.99 1211.27 1898.64 1211.27 Q1897 1211.27 1894.45 1212.29 L1894.45 1208.4 Q1897.14 1207.69 1899.54 1207.69 Q1905.75 1207.69 1908.39 1213.38 Q1909.61 1216.07 1909.61 1220.07 Q1909.61 1222.69 1909.03 1225.72 Q1907.58 1233.31 1903.8 1236.92 Q1900.84 1239.75 1897.41 1239.75 M1893.46 1231.9 Q1893.46 1234.21 1894.47 1235.46 Q1895.56 1236.78 1897.23 1236.78 Q1898.71 1236.78 1899.89 1235.74 Q1901.56 1234.31 1902.78 1231.97 Q1903.8 1230.05 1904.31 1227.99 Q1902.25 1223.01 1898.69 1223.01 Q1895.63 1223.01 1894.29 1227.04 Q1893.46 1229.54 1893.46 1231.9 Z" fill="#000000" fill-rule="nonzero" fill-opacity="1" /><path clip-path="url(#clip950)" d="M1926.51 1203.1 Q1923.41 1208.43 1921.9 1213.64 Q1920.4 1218.84 1920.4 1224.19 Q1920.4 1229.54 1921.9 1234.79 Q1923.43 1240.02 1926.51 1245.33 L1922.81 1245.33 Q1919.33 1239.89 1917.6 1234.63 Q1915.89 1229.38 1915.89 1224.19 Q1915.89 1219.03 1917.6 1213.8 Q1919.31 1208.57 1922.81 1203.1 L1926.51 1203.1 Z" fill="#000000" fill-rule="nonzero" fill-opacity="1" /><path clip-path="url(#clip950)" d="M1960.84 1207.18 L1960.84 1212.11 Q1958.48 1209.91 1955.79 1208.82 Q1953.13 1207.73 1950.12 1207.73 Q1944.2 1207.73 1941.05 1211.37 Q1937.9 1214.98 1937.9 1221.83 Q1937.9 1228.66 1941.05 1232.29 Q1944.2 1235.9 1950.12 1235.9 Q1953.13 1235.9 1955.79 1234.82 Q1958.48 1233.73 1960.84 1231.53 L1960.84 1236.41 Q1958.39 1238.08 1955.63 1238.91 Q1952.9 1239.75 1949.84 1239.75 Q1942 1239.75 1937.48 1234.95 Q1932.97 1230.14 1932.97 1221.83 Q1932.97 1213.5 1937.48 1208.71 Q1942 1203.89 1949.84 1203.89 Q1952.95 1203.89 1955.68 1204.72 Q1958.43 1205.53 1960.84 1207.18 Z" fill="#000000" fill-rule="nonzero" fill-opacity="1" /><path clip-path="url(#clip950)" d="M1966.23 1218.91 L1968.92 1218.91 L1968.92 1239.08 L1966.23 1239.08 L1966.23 1218.91 Z" fill="#000000" fill-rule="nonzero" fill-opacity="1" /><path clip-path="url(#clip950)" d="M1975.08 1203.1 L1978.78 1203.1 Q1982.25 1208.57 1983.96 1213.8 Q1985.7 1219.03 1985.7 1224.19 Q1985.7 1229.38 1983.96 1234.63 Q1982.25 1239.89 1978.78 1245.33 L1975.08 1245.33 Q1978.15 1240.02 1979.66 1234.79 Q1981.19 1229.54 1981.19 1224.19 Q1981.19 1218.84 1979.66 1213.64 Q1978.15 1208.43 1975.08 1203.1 Z" fill="#000000" fill-rule="nonzero" fill-opacity="1" /><path clip-path="url(#clip950)" d="M2001.81 1204.52 L2005.75 1204.52 L1993.71 1243.47 L1989.77 1243.47 L2001.81 1204.52 Z" fill="#000000" fill-rule="nonzero" fill-opacity="1" /><path clip-path="url(#clip950)" d="M2015.86 1239.75 Q2012.6 1239.75 2010.47 1237.78 Q2007.95 1235.44 2007.95 1231.2 Q2007.95 1226.81 2010.17 1223.38 Q2012.46 1219.86 2016.58 1219.86 Q2019.29 1219.86 2021.42 1221.55 Q2022.67 1222.55 2023.52 1224.21 Q2023.83 1222.34 2023.83 1220.21 Q2023.83 1217.08 2023.08 1215.28 Q2021.44 1211.27 2017.09 1211.27 Q2015.45 1211.27 2012.9 1212.29 L2012.9 1208.4 Q2015.58 1207.69 2017.99 1207.69 Q2024.2 1207.69 2026.83 1213.38 Q2028.06 1216.07 2028.06 1220.07 Q2028.06 1222.69 2027.48 1225.72 Q2026.02 1233.31 2022.25 1236.92 Q2019.29 1239.75 2015.86 1239.75 M2011.9 1231.9 Q2011.9 1234.21 2012.92 1235.46 Q2014.01 1236.78 2015.68 1236.78 Q2017.16 1236.78 2018.34 1235.74 Q2020.01 1234.31 2021.23 1231.97 Q2022.25 1230.05 2022.76 1227.99 Q2020.7 1223.01 2017.14 1223.01 Q2014.08 1223.01 2012.74 1227.04 Q2011.9 1229.54 2011.9 1231.9 Z" fill="#000000" fill-rule="nonzero" fill-opacity="1" /><path clip-path="url(#clip950)" d="M2044.96 1203.1 Q2041.86 1208.43 2040.35 1213.64 Q2038.85 1218.84 2038.85 1224.19 Q2038.85 1229.54 2040.35 1234.79 Q2041.88 1240.02 2044.96 1245.33 L2041.26 1245.33 Q2037.78 1239.89 2036.05 1234.63 Q2034.33 1229.38 2034.33 1224.19 Q2034.33 1219.03 2036.05 1213.8 Q2037.76 1208.57 2041.26 1203.1 L2044.96 1203.1 Z" fill="#000000" fill-rule="nonzero" fill-opacity="1" /><path clip-path="url(#clip950)" d="M2071.88 1214.14 L2071.88 1218.13 Q2070.07 1217.13 2068.25 1216.64 Q2066.44 1216.14 2064.59 1216.14 Q2060.45 1216.14 2058.15 1218.77 Q2055.86 1221.39 2055.86 1226.14 Q2055.86 1230.88 2058.15 1233.52 Q2060.45 1236.14 2064.59 1236.14 Q2066.44 1236.14 2068.25 1235.65 Q2070.07 1235.14 2071.88 1234.14 L2071.88 1238.08 Q2070.1 1238.91 2068.18 1239.33 Q2066.28 1239.75 2064.13 1239.75 Q2058.27 1239.75 2054.82 1236.07 Q2051.37 1232.39 2051.37 1226.14 Q2051.37 1219.79 2054.84 1216.16 Q2058.34 1212.52 2064.4 1212.52 Q2066.37 1212.52 2068.25 1212.94 Q2070.12 1213.33 2071.88 1214.14 Z" fill="#000000" fill-rule="nonzero" fill-opacity="1" /><path clip-path="url(#clip950)" d="M2079.89 1233.2 L2084.77 1233.2 L2084.77 1239.08 L2079.89 1239.08 L2079.89 1233.2 Z" fill="#000000" fill-rule="nonzero" fill-opacity="1" /><path clip-path="url(#clip950)" d="M2124.31 1234.95 L2124.31 1239.08 L2110.42 1239.08 L2110.42 1234.95 Q2114.52 1232.71 2116.81 1228.87 Q2119.1 1225.02 2119.1 1220.35 Q2119.1 1214.79 2116.05 1211.44 Q2112.99 1208.08 2107.99 1208.08 Q2102.99 1208.08 2099.91 1211.46 Q2096.86 1214.82 2096.86 1220.35 Q2096.86 1225.02 2099.15 1228.87 Q2101.46 1232.71 2105.58 1234.95 L2105.58 1239.08 L2091.7 1239.08 L2091.7 1234.95 L2099.08 1234.95 Q2095.42 1231.74 2093.73 1228.29 Q2092.07 1224.84 2092.07 1220.58 Q2092.07 1213.22 2096.51 1208.66 Q2100.93 1204.1 2107.99 1204.1 Q2115.01 1204.1 2119.47 1208.66 Q2123.92 1213.2 2123.92 1220.35 Q2123.92 1224.84 2122.27 1228.27 Q2120.63 1231.69 2116.9 1234.95 L2124.31 1234.95 Z" fill="#000000" fill-rule="nonzero" fill-opacity="1" /><path clip-path="url(#clip950)" d="M2139.31 1223.4 Q2138.15 1221.41 2135.82 1221.41 Q2133.48 1221.41 2132.32 1223.4 Q2131.14 1225.39 2131.14 1229.38 Q2131.14 1233.38 2132.32 1235.37 Q2133.48 1237.36 2135.82 1237.36 Q2138.15 1237.36 2139.31 1235.37 Q2140.49 1233.38 2140.49 1229.38 Q2140.49 1225.39 2139.31 1223.4 M2135.82 1219.35 Q2139.54 1219.35 2141.51 1221.92 Q2143.48 1224.49 2143.48 1229.38 Q2143.48 1234.28 2141.51 1236.85 Q2139.54 1239.42 2135.82 1239.42 Q2132.07 1239.42 2130.1 1236.85 Q2128.13 1234.28 2128.13 1229.38 Q2128.13 1224.49 2130.1 1221.92 Q2132.07 1219.35 2135.82 1219.35 Z" fill="#000000" fill-rule="nonzero" fill-opacity="1" /><path clip-path="url(#clip950)" d="M2148.92 1203.1 L2152.62 1203.1 Q2156.09 1208.57 2157.81 1213.8 Q2159.54 1219.03 2159.54 1224.19 Q2159.54 1229.38 2157.81 1234.63 Q2156.09 1239.89 2152.62 1245.33 L2148.92 1245.33 Q2152 1240.02 2153.5 1234.79 Q2155.03 1229.54 2155.03 1224.19 Q2155.03 1218.84 2153.5 1213.64 Q2152 1208.43 2148.92 1203.1 Z" fill="#000000" fill-rule="nonzero" fill-opacity="1" /><polyline clip-path="url(#clip950)" style="stroke:#3da44d; stroke-linecap:round; stroke-linejoin:round; stroke-width:4; stroke-opacity:1; fill:none" points="1720.42,1273.64 1865.34,1273.64 "/>
<path clip-path="url(#clip950)" d="M1897.41 1291.59 Q1894.15 1291.59 1892.02 1289.62 Q1889.5 1287.28 1889.5 1283.04 Q1889.5 1278.65 1891.72 1275.22 Q1894.01 1271.7 1898.13 1271.7 Q1900.84 1271.7 1902.97 1273.39 Q1904.22 1274.39 1905.08 1276.05 Q1905.38 1274.18 1905.38 1272.05 Q1905.38 1268.92 1904.64 1267.12 Q1902.99 1263.11 1898.64 1263.11 Q1897 1263.11 1894.45 1264.13 L1894.45 1260.24 Q1897.14 1259.53 1899.54 1259.53 Q1905.75 1259.53 1908.39 1265.22 Q1909.61 1267.91 1909.61 1271.91 Q1909.61 1274.53 1909.03 1277.56 Q1907.58 1285.15 1903.8 1288.76 Q1900.84 1291.59 1897.41 1291.59 M1893.46 1283.74 Q1893.46 1286.05 1894.47 1287.3 Q1895.56 1288.62 1897.23 1288.62 Q1898.71 1288.62 1899.89 1287.58 Q1901.56 1286.15 1902.78 1283.81 Q1903.8 1281.89 1904.31 1279.83 Q1902.25 1274.85 1898.69 1274.85 Q1895.63 1274.85 1894.29 1278.88 Q1893.46 1281.38 1893.46 1283.74 Z" fill="#000000" fill-rule="nonzero" fill-opacity="1" /><path clip-path="url(#clip950)" d="M1926.51 1254.94 Q1923.41 1260.27 1921.9 1265.48 Q1920.4 1270.68 1920.4 1276.03 Q1920.4 1281.38 1921.9 1286.63 Q1923.43 1291.86 1926.51 1297.17 L1922.81 1297.17 Q1919.33 1291.73 1917.6 1286.47 Q1915.89 1281.22 1915.89 1276.03 Q1915.89 1270.87 1917.6 1265.64 Q1919.31 1260.41 1922.81 1254.94 L1926.51 1254.94 Z" fill="#000000" fill-rule="nonzero" fill-opacity="1" /><path clip-path="url(#clip950)" d="M1960.84 1259.02 L1960.84 1263.95 Q1958.48 1261.75 1955.79 1260.66 Q1953.13 1259.57 1950.12 1259.57 Q1944.2 1259.57 1941.05 1263.21 Q1937.9 1266.82 1937.9 1273.67 Q1937.9 1280.5 1941.05 1284.13 Q1944.2 1287.74 1950.12 1287.74 Q1953.13 1287.74 1955.79 1286.66 Q1958.48 1285.57 1960.84 1283.37 L1960.84 1288.25 Q1958.39 1289.92 1955.63 1290.75 Q1952.9 1291.59 1949.84 1291.59 Q1942 1291.59 1937.48 1286.79 Q1932.97 1281.98 1932.97 1273.67 Q1932.97 1265.34 1937.48 1260.55 Q1942 1255.73 1949.84 1255.73 Q1952.95 1255.73 1955.68 1256.56 Q1958.43 1257.37 1960.84 1259.02 Z" fill="#000000" fill-rule="nonzero" fill-opacity="1" /><path clip-path="url(#clip950)" d="M1966.23 1270.75 L1968.92 1270.75 L1968.92 1290.92 L1966.23 1290.92 L1966.23 1270.75 Z" fill="#000000" fill-rule="nonzero" fill-opacity="1" /><path clip-path="url(#clip950)" d="M1975.08 1254.94 L1978.78 1254.94 Q1982.25 1260.41 1983.96 1265.64 Q1985.7 1270.87 1985.7 1276.03 Q1985.7 1281.22 1983.96 1286.47 Q1982.25 1291.73 1978.78 1297.17 L1975.08 1297.17 Q1978.15 1291.86 1979.66 1286.63 Q1981.19 1281.38 1981.19 1276.03 Q1981.19 1270.68 1979.66 1265.48 Q1978.15 1260.27 1975.08 1254.94 Z" fill="#000000" fill-rule="nonzero" fill-opacity="1" /><path clip-path="url(#clip950)" d="M2001.81 1256.36 L2005.75 1256.36 L1993.71 1295.31 L1989.77 1295.31 L2001.81 1256.36 Z" fill="#000000" fill-rule="nonzero" fill-opacity="1" /><path clip-path="url(#clip950)" d="M2015.86 1291.59 Q2012.6 1291.59 2010.47 1289.62 Q2007.95 1287.28 2007.95 1283.04 Q2007.95 1278.65 2010.17 1275.22 Q2012.46 1271.7 2016.58 1271.7 Q2019.29 1271.7 2021.42 1273.39 Q2022.67 1274.39 2023.52 1276.05 Q2023.83 1274.18 2023.83 1272.05 Q2023.83 1268.92 2023.08 1267.12 Q2021.44 1263.11 2017.09 1263.11 Q2015.45 1263.11 2012.9 1264.13 L2012.9 1260.24 Q2015.58 1259.53 2017.99 1259.53 Q2024.2 1259.53 2026.83 1265.22 Q2028.06 1267.91 2028.06 1271.91 Q2028.06 1274.53 2027.48 1277.56 Q2026.02 1285.15 2022.25 1288.76 Q2019.29 1291.59 2015.86 1291.59 M2011.9 1283.74 Q2011.9 1286.05 2012.92 1287.3 Q2014.01 1288.62 2015.68 1288.62 Q2017.16 1288.62 2018.34 1287.58 Q2020.01 1286.15 2021.23 1283.81 Q2022.25 1281.89 2022.76 1279.83 Q2020.7 1274.85 2017.14 1274.85 Q2014.08 1274.85 2012.74 1278.88 Q2011.9 1281.38 2011.9 1283.74 Z" fill="#000000" fill-rule="nonzero" fill-opacity="1" /><path clip-path="url(#clip950)" d="M2044.96 1254.94 Q2041.86 1260.27 2040.35 1265.48 Q2038.85 1270.68 2038.85 1276.03 Q2038.85 1281.38 2040.35 1286.63 Q2041.88 1291.86 2044.96 1297.17 L2041.26 1297.17 Q2037.78 1291.73 2036.05 1286.47 Q2034.33 1281.22 2034.33 1276.03 Q2034.33 1270.87 2036.05 1265.64 Q2037.76 1260.41 2041.26 1254.94 L2044.96 1254.94 Z" fill="#000000" fill-rule="nonzero" fill-opacity="1" /><path clip-path="url(#clip950)" d="M2071.83 1277.98 Q2071.83 1273.28 2069.89 1270.61 Q2067.97 1267.93 2064.59 1267.93 Q2061.21 1267.93 2059.26 1270.61 Q2057.34 1273.28 2057.34 1277.98 Q2057.34 1282.67 2059.26 1285.36 Q2061.21 1288.02 2064.59 1288.02 Q2067.97 1288.02 2069.89 1285.36 Q2071.83 1282.67 2071.83 1277.98 M2057.34 1268.92 Q2058.69 1266.61 2060.72 1265.5 Q2062.78 1264.36 2065.63 1264.36 Q2070.35 1264.36 2073.29 1268.11 Q2076.26 1271.86 2076.26 1277.98 Q2076.26 1284.09 2073.29 1287.84 Q2070.35 1291.59 2065.63 1291.59 Q2062.78 1291.59 2060.72 1290.48 Q2058.69 1289.34 2057.34 1287.03 L2057.34 1290.92 L2053.06 1290.92 L2053.06 1254.9 L2057.34 1254.9 L2057.34 1268.92 Z" fill="#000000" fill-rule="nonzero" fill-opacity="1" /><path clip-path="url(#clip950)" d="M2083.92 1285.04 L2088.8 1285.04 L2088.8 1290.92 L2083.92 1290.92 L2083.92 1285.04 Z" fill="#000000" fill-rule="nonzero" fill-opacity="1" /><path clip-path="url(#clip950)" d="M2128.34 1286.79 L2128.34 1290.92 L2114.45 1290.92 L2114.45 1286.79 Q2118.55 1284.55 2120.84 1280.71 Q2123.13 1276.86 2123.13 1272.19 Q2123.13 1266.63 2120.07 1263.28 Q2117.02 1259.92 2112.02 1259.92 Q2107.02 1259.92 2103.94 1263.3 Q2100.88 1266.66 2100.88 1272.19 Q2100.88 1276.86 2103.18 1280.71 Q2105.49 1284.55 2109.61 1286.79 L2109.61 1290.92 L2095.72 1290.92 L2095.72 1286.79 L2103.11 1286.79 Q2099.45 1283.58 2097.76 1280.13 Q2096.09 1276.68 2096.09 1272.42 Q2096.09 1265.06 2100.54 1260.5 Q2104.96 1255.94 2112.02 1255.94 Q2119.03 1255.94 2123.5 1260.5 Q2127.94 1265.04 2127.94 1272.19 Q2127.94 1276.68 2126.3 1280.11 Q2124.66 1283.53 2120.93 1286.79 L2128.34 1286.79 Z" fill="#000000" fill-rule="nonzero" fill-opacity="1" /><path clip-path="url(#clip950)" d="M2143.34 1275.24 Q2142.18 1273.25 2139.84 1273.25 Q2137.5 1273.25 2136.35 1275.24 Q2135.17 1277.23 2135.17 1281.22 Q2135.17 1285.22 2136.35 1287.21 Q2137.5 1289.2 2139.84 1289.2 Q2142.18 1289.2 2143.34 1287.21 Q2144.52 1285.22 2144.52 1281.22 Q2144.52 1277.23 2143.34 1275.24 M2139.84 1271.19 Q2143.57 1271.19 2145.54 1273.76 Q2147.5 1276.33 2147.5 1281.22 Q2147.5 1286.12 2145.54 1288.69 Q2143.57 1291.26 2139.84 1291.26 Q2136.09 1291.26 2134.13 1288.69 Q2132.16 1286.12 2132.16 1281.22 Q2132.16 1276.33 2134.13 1273.76 Q2136.09 1271.19 2139.84 1271.19 Z" fill="#000000" fill-rule="nonzero" fill-opacity="1" /><path clip-path="url(#clip950)" d="M2152.94 1254.94 L2156.65 1254.94 Q2160.12 1260.41 2161.83 1265.64 Q2163.57 1270.87 2163.57 1276.03 Q2163.57 1281.22 2161.83 1286.47 Q2160.12 1291.73 2156.65 1297.17 L2152.94 1297.17 Q2156.02 1291.86 2157.53 1286.63 Q2159.06 1281.38 2159.06 1276.03 Q2159.06 1270.68 2157.53 1265.48 Q2156.02 1260.27 2152.94 1254.94 Z" fill="#000000" fill-rule="nonzero" fill-opacity="1" /><polyline clip-path="url(#clip950)" style="stroke:#c271d2; stroke-linecap:round; stroke-linejoin:round; stroke-width:4; stroke-opacity:1; fill:none" points="1720.42,1325.48 1865.34,1325.48 "/>
<path clip-path="url(#clip950)" d="M1897.41 1343.43 Q1894.15 1343.43 1892.02 1341.46 Q1889.5 1339.12 1889.5 1334.88 Q1889.5 1330.49 1891.72 1327.06 Q1894.01 1323.54 1898.13 1323.54 Q1900.84 1323.54 1902.97 1325.23 Q1904.22 1326.23 1905.08 1327.89 Q1905.38 1326.02 1905.38 1323.89 Q1905.38 1320.76 1904.64 1318.96 Q1902.99 1314.95 1898.64 1314.95 Q1897 1314.95 1894.45 1315.97 L1894.45 1312.08 Q1897.14 1311.37 1899.54 1311.37 Q1905.75 1311.37 1908.39 1317.06 Q1909.61 1319.75 1909.61 1323.75 Q1909.61 1326.37 1909.03 1329.4 Q1907.58 1336.99 1903.8 1340.6 Q1900.84 1343.43 1897.41 1343.43 M1893.46 1335.58 Q1893.46 1337.89 1894.47 1339.14 Q1895.56 1340.46 1897.23 1340.46 Q1898.71 1340.46 1899.89 1339.42 Q1901.56 1337.99 1902.78 1335.65 Q1903.8 1333.73 1904.31 1331.67 Q1902.25 1326.69 1898.69 1326.69 Q1895.63 1326.69 1894.29 1330.72 Q1893.46 1333.22 1893.46 1335.58 Z" fill="#000000" fill-rule="nonzero" fill-opacity="1" /><path clip-path="url(#clip950)" d="M1926.51 1306.78 Q1923.41 1312.11 1921.9 1317.32 Q1920.4 1322.52 1920.4 1327.87 Q1920.4 1333.22 1921.9 1338.47 Q1923.43 1343.7 1926.51 1349.01 L1922.81 1349.01 Q1919.33 1343.57 1917.6 1338.31 Q1915.89 1333.06 1915.89 1327.87 Q1915.89 1322.71 1917.6 1317.48 Q1919.31 1312.25 1922.81 1306.78 L1926.51 1306.78 Z" fill="#000000" fill-rule="nonzero" fill-opacity="1" /><path clip-path="url(#clip950)" d="M1960.84 1310.86 L1960.84 1315.79 Q1958.48 1313.59 1955.79 1312.5 Q1953.13 1311.41 1950.12 1311.41 Q1944.2 1311.41 1941.05 1315.05 Q1937.9 1318.66 1937.9 1325.51 Q1937.9 1332.34 1941.05 1335.97 Q1944.2 1339.58 1950.12 1339.58 Q1953.13 1339.58 1955.79 1338.5 Q1958.48 1337.41 1960.84 1335.21 L1960.84 1340.09 Q1958.39 1341.76 1955.63 1342.59 Q1952.9 1343.43 1949.84 1343.43 Q1942 1343.43 1937.48 1338.63 Q1932.97 1333.82 1932.97 1325.51 Q1932.97 1317.18 1937.48 1312.39 Q1942 1307.57 1949.84 1307.57 Q1952.95 1307.57 1955.68 1308.4 Q1958.43 1309.21 1960.84 1310.86 Z" fill="#000000" fill-rule="nonzero" fill-opacity="1" /><path clip-path="url(#clip950)" d="M1966.23 1322.59 L1968.92 1322.59 L1968.92 1342.76 L1966.23 1342.76 L1966.23 1322.59 Z" fill="#000000" fill-rule="nonzero" fill-opacity="1" /><path clip-path="url(#clip950)" d="M1975.08 1306.78 L1978.78 1306.78 Q1982.25 1312.25 1983.96 1317.48 Q1985.7 1322.71 1985.7 1327.87 Q1985.7 1333.06 1983.96 1338.31 Q1982.25 1343.57 1978.78 1349.01 L1975.08 1349.01 Q1978.15 1343.7 1979.66 1338.47 Q1981.19 1333.22 1981.19 1327.87 Q1981.19 1322.52 1979.66 1317.32 Q1978.15 1312.11 1975.08 1306.78 Z" fill="#000000" fill-rule="nonzero" fill-opacity="1" /><path clip-path="url(#clip950)" d="M2001.81 1308.2 L2005.75 1308.2 L1993.71 1347.15 L1989.77 1347.15 L2001.81 1308.2 Z" fill="#000000" fill-rule="nonzero" fill-opacity="1" /><path clip-path="url(#clip950)" d="M2015.86 1343.43 Q2012.6 1343.43 2010.47 1341.46 Q2007.95 1339.12 2007.95 1334.88 Q2007.95 1330.49 2010.17 1327.06 Q2012.46 1323.54 2016.58 1323.54 Q2019.29 1323.54 2021.42 1325.23 Q2022.67 1326.23 2023.52 1327.89 Q2023.83 1326.02 2023.83 1323.89 Q2023.83 1320.76 2023.08 1318.96 Q2021.44 1314.95 2017.09 1314.95 Q2015.45 1314.95 2012.9 1315.97 L2012.9 1312.08 Q2015.58 1311.37 2017.99 1311.37 Q2024.2 1311.37 2026.83 1317.06 Q2028.06 1319.75 2028.06 1323.75 Q2028.06 1326.37 2027.48 1329.4 Q2026.02 1336.99 2022.25 1340.6 Q2019.29 1343.43 2015.86 1343.43 M2011.9 1335.58 Q2011.9 1337.89 2012.92 1339.14 Q2014.01 1340.46 2015.68 1340.46 Q2017.16 1340.46 2018.34 1339.42 Q2020.01 1337.99 2021.23 1335.65 Q2022.25 1333.73 2022.76 1331.67 Q2020.7 1326.69 2017.14 1326.69 Q2014.08 1326.69 2012.74 1330.72 Q2011.9 1333.22 2011.9 1335.58 Z" fill="#000000" fill-rule="nonzero" fill-opacity="1" /><path clip-path="url(#clip950)" d="M2044.96 1306.78 Q2041.86 1312.11 2040.35 1317.32 Q2038.85 1322.52 2038.85 1327.87 Q2038.85 1333.22 2040.35 1338.47 Q2041.88 1343.7 2044.96 1349.01 L2041.26 1349.01 Q2037.78 1343.57 2036.05 1338.31 Q2034.33 1333.06 2034.33 1327.87 Q2034.33 1322.71 2036.05 1317.48 Q2037.76 1312.25 2041.26 1306.78 L2044.96 1306.78 Z" fill="#000000" fill-rule="nonzero" fill-opacity="1" /><path clip-path="url(#clip950)" d="M2071.83 1329.82 Q2071.83 1325.12 2069.89 1322.45 Q2067.97 1319.77 2064.59 1319.77 Q2061.21 1319.77 2059.26 1322.45 Q2057.34 1325.12 2057.34 1329.82 Q2057.34 1334.51 2059.26 1337.2 Q2061.21 1339.86 2064.59 1339.86 Q2067.97 1339.86 2069.89 1337.2 Q2071.83 1334.51 2071.83 1329.82 M2057.34 1320.76 Q2058.69 1318.45 2060.72 1317.34 Q2062.78 1316.2 2065.63 1316.2 Q2070.35 1316.2 2073.29 1319.95 Q2076.26 1323.7 2076.26 1329.82 Q2076.26 1335.93 2073.29 1339.68 Q2070.35 1343.43 2065.63 1343.43 Q2062.78 1343.43 2060.72 1342.32 Q2058.69 1341.18 2057.34 1338.87 L2057.34 1342.76 L2053.06 1342.76 L2053.06 1306.74 L2057.34 1306.74 L2057.34 1320.76 Z" fill="#000000" fill-rule="nonzero" fill-opacity="1" /><path clip-path="url(#clip950)" d="M2083.92 1336.88 L2088.8 1336.88 L2088.8 1342.76 L2083.92 1342.76 L2083.92 1336.88 Z" fill="#000000" fill-rule="nonzero" fill-opacity="1" /><path clip-path="url(#clip950)" d="M2113.41 1320.81 Q2112.69 1320.39 2111.83 1320.21 Q2111 1320 2109.98 1320 Q2106.37 1320 2104.43 1322.36 Q2102.51 1324.7 2102.51 1329.1 L2102.51 1342.76 L2098.22 1342.76 L2098.22 1316.83 L2102.51 1316.83 L2102.51 1320.86 Q2103.85 1318.5 2106 1317.36 Q2108.15 1316.2 2111.23 1316.2 Q2111.67 1316.2 2112.2 1316.27 Q2112.74 1316.32 2113.38 1316.44 L2113.41 1320.81 Z" fill="#000000" fill-rule="nonzero" fill-opacity="1" /><path clip-path="url(#clip950)" d="M2139.01 1328.73 L2139.01 1330.81 L2119.43 1330.81 Q2119.7 1335.21 2122.07 1337.52 Q2124.45 1339.82 2128.69 1339.82 Q2131.14 1339.82 2133.43 1339.21 Q2135.75 1338.61 2138.01 1337.41 L2138.01 1341.44 Q2135.72 1342.41 2133.32 1342.92 Q2130.91 1343.43 2128.43 1343.43 Q2122.23 1343.43 2118.59 1339.82 Q2114.98 1336.2 2114.98 1330.05 Q2114.98 1323.68 2118.41 1319.95 Q2121.86 1316.2 2127.69 1316.2 Q2132.92 1316.2 2135.95 1319.58 Q2139.01 1322.94 2139.01 1328.73 M2134.75 1327.48 Q2134.7 1323.98 2132.78 1321.9 Q2130.88 1319.82 2127.74 1319.82 Q2124.17 1319.82 2122.02 1321.83 Q2119.89 1323.84 2119.57 1327.5 L2134.75 1327.48 Z" fill="#000000" fill-rule="nonzero" fill-opacity="1" /><path clip-path="url(#clip950)" d="M2164.66 1317.82 L2164.66 1321.81 Q2162.85 1320.81 2161.02 1320.32 Q2159.22 1319.82 2157.37 1319.82 Q2153.22 1319.82 2150.93 1322.45 Q2148.64 1325.07 2148.64 1329.82 Q2148.64 1334.56 2150.93 1337.2 Q2153.22 1339.82 2157.37 1339.82 Q2159.22 1339.82 2161.02 1339.33 Q2162.85 1338.82 2164.66 1337.82 L2164.66 1341.76 Q2162.88 1342.59 2160.95 1343.01 Q2159.06 1343.43 2156.9 1343.43 Q2151.05 1343.43 2147.6 1339.75 Q2144.15 1336.07 2144.15 1329.82 Q2144.15 1323.47 2147.62 1319.84 Q2151.12 1316.2 2157.18 1316.2 Q2159.15 1316.2 2161.02 1316.62 Q2162.9 1317.01 2164.66 1317.82 Z" fill="#000000" fill-rule="nonzero" fill-opacity="1" /><path clip-path="url(#clip950)" d="M2172.67 1336.88 L2177.55 1336.88 L2177.55 1342.76 L2172.67 1342.76 L2172.67 1336.88 Z" fill="#000000" fill-rule="nonzero" fill-opacity="1" /><path clip-path="url(#clip950)" d="M2182.57 1308.2 L2187.6 1308.2 L2197.18 1322.41 L2206.69 1308.2 L2211.72 1308.2 L2199.5 1326.3 L2199.5 1342.76 L2194.8 1342.76 L2194.8 1326.3 L2182.57 1308.2 Z" fill="#000000" fill-rule="nonzero" fill-opacity="1" /><path clip-path="url(#clip950)" d="M2220.21 1338.87 L2220.21 1352.62 L2215.93 1352.62 L2215.93 1316.83 L2220.21 1316.83 L2220.21 1320.76 Q2221.56 1318.45 2223.59 1317.34 Q2225.65 1316.2 2228.5 1316.2 Q2233.22 1316.2 2236.16 1319.95 Q2239.12 1323.7 2239.12 1329.82 Q2239.12 1335.93 2236.16 1339.68 Q2233.22 1343.43 2228.5 1343.43 Q2225.65 1343.43 2223.59 1342.32 Q2221.56 1341.18 2220.21 1338.87 M2234.7 1329.82 Q2234.7 1325.12 2232.76 1322.45 Q2230.84 1319.77 2227.46 1319.77 Q2224.08 1319.77 2222.13 1322.45 Q2220.21 1325.12 2220.21 1329.82 Q2220.21 1334.51 2222.13 1337.2 Q2224.08 1339.86 2227.46 1339.86 Q2230.84 1339.86 2232.76 1337.2 Q2234.7 1334.51 2234.7 1329.82 Z" fill="#000000" fill-rule="nonzero" fill-opacity="1" /><path clip-path="url(#clip950)" d="M2245.51 1306.78 L2249.22 1306.78 Q2252.69 1312.25 2254.4 1317.48 Q2256.14 1322.71 2256.14 1327.87 Q2256.14 1333.06 2254.4 1338.31 Q2252.69 1343.57 2249.22 1349.01 L2245.51 1349.01 Q2248.59 1343.7 2250.1 1338.47 Q2251.62 1333.22 2251.62 1327.87 Q2251.62 1322.52 2250.1 1317.32 Q2248.59 1312.11 2245.51 1306.78 Z" fill="#000000" fill-rule="nonzero" fill-opacity="1" /></svg>
