<?xml version="1.0" encoding="utf-8"?>
<svg xmlns="http://www.w3.org/2000/svg" xmlns:xlink="http://www.w3.org/1999/xlink" width="800" height="400" viewBox="0 0 3200 1600">
<defs>
  <clipPath id="clip890">
    <rect x="0" y="0" width="3200" height="1600"/>
  </clipPath>
</defs>
<path clip-path="url(#clip890)" d="M0 1600 L3200 1600 L3200 0 L0 0  Z" fill="#ffffff" fill-rule="evenodd" fill-opacity="1"/>
<defs>
  <clipPath id="clip891">
    <rect x="365" y="47" width="2789" height="1449"/>
  </clipPath>
</defs>
<path clip-path="url(#clip890)" d="M365.106 1495.09 L3152.76 1495.09 L3152.76 47.2441 L365.106 47.2441  Z" fill="#ffffff" fill-rule="evenodd" fill-opacity="1"/>
<polyline clip-path="url(#clip891)" style="stroke:#000000; stroke-linecap:round; stroke-linejoin:round; stroke-width:2; stroke-opacity:0.1; fill:none" points="922.158,1495.09 922.158,47.2441 "/>
<polyline clip-path="url(#clip891)" style="stroke:#000000; stroke-linecap:round; stroke-linejoin:round; stroke-width:2; stroke-opacity:0.1; fill:none" points="2595.7,1495.09 2595.7,47.2441 "/>
<polyline clip-path="url(#clip891)" style="stroke:#000000; stroke-linecap:round; stroke-linejoin:round; stroke-width:2; stroke-opacity:0.1; fill:none" points="365.106,1337.8 3152.76,1337.8 "/>
<polyline clip-path="url(#clip891)" style="stroke:#000000; stroke-linecap:round; stroke-linejoin:round; stroke-width:2; stroke-opacity:0.1; fill:none" points="365.106,1133.93 3152.76,1133.93 "/>
<polyline clip-path="url(#clip891)" style="stroke:#000000; stroke-linecap:round; stroke-linejoin:round; stroke-width:2; stroke-opacity:0.1; fill:none" points="365.106,930.068 3152.76,930.068 "/>
<polyline clip-path="url(#clip891)" style="stroke:#000000; stroke-linecap:round; stroke-linejoin:round; stroke-width:2; stroke-opacity:0.1; fill:none" points="365.106,726.204 3152.76,726.204 "/>
<polyline clip-path="url(#clip891)" style="stroke:#000000; stroke-linecap:round; stroke-linejoin:round; stroke-width:2; stroke-opacity:0.1; fill:none" points="365.106,522.34 3152.76,522.34 "/>
<polyline clip-path="url(#clip891)" style="stroke:#000000; stroke-linecap:round; stroke-linejoin:round; stroke-width:2; stroke-opacity:0.1; fill:none" points="365.106,318.475 3152.76,318.475 "/>
<polyline clip-path="url(#clip891)" style="stroke:#000000; stroke-linecap:round; stroke-linejoin:round; stroke-width:2; stroke-opacity:0.1; fill:none" points="365.106,114.611 3152.76,114.611 "/>
<polyline clip-path="url(#clip890)" style="stroke:#000000; stroke-linecap:round; stroke-linejoin:round; stroke-width:4; stroke-opacity:1; fill:none" points="365.106,1495.09 3152.76,1495.09 "/>
<polyline clip-path="url(#clip890)" style="stroke:#000000; stroke-linecap:round; stroke-linejoin:round; stroke-width:4; stroke-opacity:1; fill:none" points="922.158,1495.09 922.158,1476.19 "/>
<polyline clip-path="url(#clip890)" style="stroke:#000000; stroke-linecap:round; stroke-linejoin:round; stroke-width:4; stroke-opacity:1; fill:none" points="2595.7,1495.09 2595.7,1476.19 "/>
<path clip-path="url(#clip890)" d="M827.413 1533.4 L815.607 1551.85 L827.413 1551.85 L827.413 1533.4 M826.186 1529.33 L832.066 1529.33 L832.066 1551.85 L836.996 1551.85 L836.996 1555.74 L832.066 1555.74 L832.066 1563.89 L827.413 1563.89 L827.413 1555.74 L811.811 1555.74 L811.811 1551.23 L826.186 1529.33 Z" fill="#000000" fill-rule="nonzero" fill-opacity="1" /><path clip-path="url(#clip890)" d="M863.408 1530.6 L863.408 1537.96 L872.181 1537.96 L872.181 1541.27 L863.408 1541.27 L863.408 1555.35 Q863.408 1558.52 864.264 1559.42 Q865.144 1560.32 867.806 1560.32 L872.181 1560.32 L872.181 1563.89 L867.806 1563.89 Q862.876 1563.89 861.001 1562.06 Q859.126 1560.21 859.126 1555.35 L859.126 1541.27 L856.001 1541.27 L856.001 1537.96 L859.126 1537.96 L859.126 1530.6 L863.408 1530.6 Z" fill="#000000" fill-rule="nonzero" fill-opacity="1" /><path clip-path="url(#clip890)" d="M899.334 1548.24 L899.334 1563.89 L895.075 1563.89 L895.075 1548.38 Q895.075 1544.7 893.639 1542.87 Q892.204 1541.04 889.334 1541.04 Q885.885 1541.04 883.894 1543.24 Q881.903 1545.44 881.903 1549.24 L881.903 1563.89 L877.621 1563.89 L877.621 1527.87 L881.903 1527.87 L881.903 1541.99 Q883.431 1539.65 885.491 1538.49 Q887.575 1537.34 890.283 1537.34 Q894.75 1537.34 897.042 1540.11 Q899.334 1542.87 899.334 1548.24 Z" fill="#000000" fill-rule="nonzero" fill-opacity="1" /><path clip-path="url(#clip890)" d="M922.852 1541.94 Q922.135 1541.53 921.278 1541.34 Q920.445 1541.13 919.426 1541.13 Q915.815 1541.13 913.871 1543.49 Q911.949 1545.83 911.949 1550.23 L911.949 1563.89 L907.667 1563.89 L907.667 1537.96 L911.949 1537.96 L911.949 1541.99 Q913.292 1539.63 915.445 1538.49 Q917.598 1537.34 920.676 1537.34 Q921.116 1537.34 921.648 1537.41 Q922.181 1537.45 922.829 1537.57 L922.852 1541.94 Z" fill="#000000" fill-rule="nonzero" fill-opacity="1" /><path clip-path="url(#clip890)" d="M948.454 1549.86 L948.454 1551.94 L928.871 1551.94 Q929.148 1556.34 931.509 1558.66 Q933.894 1560.95 938.13 1560.95 Q940.584 1560.95 942.875 1560.35 Q945.19 1559.74 947.458 1558.54 L947.458 1562.57 Q945.167 1563.54 942.759 1564.05 Q940.352 1564.56 937.875 1564.56 Q931.672 1564.56 928.037 1560.95 Q924.426 1557.34 924.426 1551.18 Q924.426 1544.81 927.852 1541.09 Q931.301 1537.34 937.134 1537.34 Q942.366 1537.34 945.398 1540.72 Q948.454 1544.07 948.454 1549.86 M944.195 1548.61 Q944.148 1545.11 942.227 1543.03 Q940.329 1540.95 937.181 1540.95 Q933.616 1540.95 931.463 1542.96 Q929.334 1544.98 929.01 1548.63 L944.195 1548.61 Z" fill="#000000" fill-rule="nonzero" fill-opacity="1" /><path clip-path="url(#clip890)" d="M967.227 1550.86 Q962.065 1550.86 960.074 1552.04 Q958.083 1553.22 958.083 1556.06 Q958.083 1558.33 959.565 1559.67 Q961.07 1560.99 963.639 1560.99 Q967.181 1560.99 969.31 1558.49 Q971.463 1555.97 971.463 1551.8 L971.463 1550.86 L967.227 1550.86 M975.722 1549.1 L975.722 1563.89 L971.463 1563.89 L971.463 1559.95 Q970.005 1562.31 967.829 1563.45 Q965.653 1564.56 962.505 1564.56 Q958.523 1564.56 956.162 1562.34 Q953.824 1560.09 953.824 1556.34 Q953.824 1551.97 956.741 1549.74 Q959.681 1547.52 965.491 1547.52 L971.463 1547.52 L971.463 1547.11 Q971.463 1544.17 969.519 1542.57 Q967.597 1540.95 964.102 1540.95 Q961.88 1540.95 959.773 1541.48 Q957.667 1542.01 955.722 1543.08 L955.722 1539.14 Q958.06 1538.24 960.259 1537.8 Q962.458 1537.34 964.542 1537.34 Q970.167 1537.34 972.944 1540.25 Q975.722 1543.17 975.722 1549.1 Z" fill="#000000" fill-rule="nonzero" fill-opacity="1" /><path clip-path="url(#clip890)" d="M1001.56 1541.9 L1001.56 1527.87 L1005.81 1527.87 L1005.81 1563.89 L1001.56 1563.89 L1001.56 1560 Q1000.21 1562.31 998.153 1563.45 Q996.116 1564.56 993.245 1564.56 Q988.546 1564.56 985.583 1560.81 Q982.643 1557.06 982.643 1550.95 Q982.643 1544.84 985.583 1541.09 Q988.546 1537.34 993.245 1537.34 Q996.116 1537.34 998.153 1538.47 Q1000.21 1539.58 1001.56 1541.9 M987.042 1550.95 Q987.042 1555.65 988.963 1558.33 Q990.907 1560.99 994.287 1560.99 Q997.667 1560.99 999.611 1558.33 Q1001.56 1555.65 1001.56 1550.95 Q1001.56 1546.25 999.611 1543.59 Q997.667 1540.9 994.287 1540.9 Q990.907 1540.9 988.963 1543.59 Q987.042 1546.25 987.042 1550.95 Z" fill="#000000" fill-rule="nonzero" fill-opacity="1" /><path clip-path="url(#clip890)" d="M1031.12 1538.73 L1031.12 1542.75 Q1029.31 1541.83 1027.37 1541.36 Q1025.42 1540.9 1023.34 1540.9 Q1020.17 1540.9 1018.57 1541.87 Q1017 1542.85 1017 1544.79 Q1017 1546.27 1018.13 1547.13 Q1019.26 1547.96 1022.69 1548.73 L1024.15 1549.05 Q1028.68 1550.02 1030.58 1551.8 Q1032.5 1553.56 1032.5 1556.74 Q1032.5 1560.35 1029.63 1562.45 Q1026.79 1564.56 1021.79 1564.56 Q1019.7 1564.56 1017.43 1564.14 Q1015.19 1563.75 1012.69 1562.94 L1012.69 1558.54 Q1015.05 1559.77 1017.34 1560.39 Q1019.63 1560.99 1021.88 1560.99 Q1024.89 1560.99 1026.51 1559.98 Q1028.13 1558.93 1028.13 1557.06 Q1028.13 1555.32 1026.95 1554.4 Q1025.79 1553.47 1021.83 1552.61 L1020.35 1552.27 Q1016.39 1551.43 1014.63 1549.72 Q1012.87 1547.99 1012.87 1544.98 Q1012.87 1541.32 1015.47 1539.33 Q1018.06 1537.34 1022.83 1537.34 Q1025.19 1537.34 1027.27 1537.68 Q1029.36 1538.03 1031.12 1538.73 Z" fill="#000000" fill-rule="nonzero" fill-opacity="1" /><path clip-path="url(#clip890)" d="M2500.82 1559.95 L2508.46 1559.95 L2508.46 1533.59 L2500.15 1535.25 L2500.15 1530.99 L2508.41 1529.33 L2513.09 1529.33 L2513.09 1559.95 L2520.73 1559.95 L2520.73 1563.89 L2500.82 1563.89 L2500.82 1559.95 Z" fill="#000000" fill-rule="nonzero" fill-opacity="1" /><path clip-path="url(#clip890)" d="M2548.85 1530.6 L2548.85 1537.96 L2557.63 1537.96 L2557.63 1541.27 L2548.85 1541.27 L2548.85 1555.35 Q2548.85 1558.52 2549.71 1559.42 Q2550.59 1560.32 2553.25 1560.32 L2557.63 1560.32 L2557.63 1563.89 L2553.25 1563.89 Q2548.32 1563.89 2546.45 1562.06 Q2544.57 1560.21 2544.57 1555.35 L2544.57 1541.27 L2541.45 1541.27 L2541.45 1537.96 L2544.57 1537.96 L2544.57 1530.6 L2548.85 1530.6 Z" fill="#000000" fill-rule="nonzero" fill-opacity="1" /><path clip-path="url(#clip890)" d="M2584.78 1548.24 L2584.78 1563.89 L2580.52 1563.89 L2580.52 1548.38 Q2580.52 1544.7 2579.08 1542.87 Q2577.65 1541.04 2574.78 1541.04 Q2571.33 1541.04 2569.34 1543.24 Q2567.35 1545.44 2567.35 1549.24 L2567.35 1563.89 L2563.07 1563.89 L2563.07 1527.87 L2567.35 1527.87 L2567.35 1541.99 Q2568.88 1539.65 2570.94 1538.49 Q2573.02 1537.34 2575.73 1537.34 Q2580.19 1537.34 2582.49 1540.11 Q2584.78 1542.87 2584.78 1548.24 Z" fill="#000000" fill-rule="nonzero" fill-opacity="1" /><path clip-path="url(#clip890)" d="M2608.3 1541.94 Q2607.58 1541.53 2606.72 1541.34 Q2605.89 1541.13 2604.87 1541.13 Q2601.26 1541.13 2599.32 1543.49 Q2597.39 1545.83 2597.39 1550.23 L2597.39 1563.89 L2593.11 1563.89 L2593.11 1537.96 L2597.39 1537.96 L2597.39 1541.99 Q2598.74 1539.63 2600.89 1538.49 Q2603.04 1537.34 2606.12 1537.34 Q2606.56 1537.34 2607.09 1537.41 Q2607.63 1537.45 2608.27 1537.57 L2608.3 1541.94 Z" fill="#000000" fill-rule="nonzero" fill-opacity="1" /><path clip-path="url(#clip890)" d="M2633.9 1549.86 L2633.9 1551.94 L2614.32 1551.94 Q2614.59 1556.34 2616.95 1558.66 Q2619.34 1560.95 2623.57 1560.95 Q2626.03 1560.95 2628.32 1560.35 Q2630.63 1559.74 2632.9 1558.54 L2632.9 1562.57 Q2630.61 1563.54 2628.2 1564.05 Q2625.8 1564.56 2623.32 1564.56 Q2617.12 1564.56 2613.48 1560.95 Q2609.87 1557.34 2609.87 1551.18 Q2609.87 1544.81 2613.3 1541.09 Q2616.75 1537.34 2622.58 1537.34 Q2627.81 1537.34 2630.84 1540.72 Q2633.9 1544.07 2633.9 1549.86 M2629.64 1548.61 Q2629.59 1545.11 2627.67 1543.03 Q2625.77 1540.95 2622.63 1540.95 Q2619.06 1540.95 2616.91 1542.96 Q2614.78 1544.98 2614.45 1548.63 L2629.64 1548.61 Z" fill="#000000" fill-rule="nonzero" fill-opacity="1" /><path clip-path="url(#clip890)" d="M2652.67 1550.86 Q2647.51 1550.86 2645.52 1552.04 Q2643.53 1553.22 2643.53 1556.06 Q2643.53 1558.33 2645.01 1559.67 Q2646.51 1560.99 2649.08 1560.99 Q2652.63 1560.99 2654.75 1558.49 Q2656.91 1555.97 2656.91 1551.8 L2656.91 1550.86 L2652.67 1550.86 M2661.17 1549.1 L2661.17 1563.89 L2656.91 1563.89 L2656.91 1559.95 Q2655.45 1562.31 2653.27 1563.45 Q2651.1 1564.56 2647.95 1564.56 Q2643.97 1564.56 2641.61 1562.34 Q2639.27 1560.09 2639.27 1556.34 Q2639.27 1551.97 2642.19 1549.74 Q2645.13 1547.52 2650.94 1547.52 L2656.91 1547.52 L2656.91 1547.11 Q2656.91 1544.17 2654.96 1542.57 Q2653.04 1540.95 2649.55 1540.95 Q2647.32 1540.95 2645.22 1541.48 Q2643.11 1542.01 2641.17 1543.08 L2641.17 1539.14 Q2643.5 1538.24 2645.7 1537.8 Q2647.9 1537.34 2649.99 1537.34 Q2655.61 1537.34 2658.39 1540.25 Q2661.17 1543.17 2661.17 1549.1 Z" fill="#000000" fill-rule="nonzero" fill-opacity="1" /><path clip-path="url(#clip890)" d="M2687 1541.9 L2687 1527.87 L2691.26 1527.87 L2691.26 1563.89 L2687 1563.89 L2687 1560 Q2685.66 1562.31 2683.6 1563.45 Q2681.56 1564.56 2678.69 1564.56 Q2673.99 1564.56 2671.03 1560.81 Q2668.09 1557.06 2668.09 1550.95 Q2668.09 1544.84 2671.03 1541.09 Q2673.99 1537.34 2678.69 1537.34 Q2681.56 1537.34 2683.6 1538.47 Q2685.66 1539.58 2687 1541.9 M2672.49 1550.95 Q2672.49 1555.65 2674.41 1558.33 Q2676.35 1560.99 2679.73 1560.99 Q2683.11 1560.99 2685.06 1558.33 Q2687 1555.65 2687 1550.95 Q2687 1546.25 2685.06 1543.59 Q2683.11 1540.9 2679.73 1540.9 Q2676.35 1540.9 2674.41 1543.59 Q2672.49 1546.25 2672.49 1550.95 Z" fill="#000000" fill-rule="nonzero" fill-opacity="1" /><polyline clip-path="url(#clip890)" style="stroke:#000000; stroke-linecap:round; stroke-linejoin:round; stroke-width:4; stroke-opacity:1; fill:none" points="365.106,1495.09 365.106,47.2441 "/>
<polyline clip-path="url(#clip890)" style="stroke:#000000; stroke-linecap:round; stroke-linejoin:round; stroke-width:4; stroke-opacity:1; fill:none" points="365.106,1337.8 384.003,1337.8 "/>
<polyline clip-path="url(#clip890)" style="stroke:#000000; stroke-linecap:round; stroke-linejoin:round; stroke-width:4; stroke-opacity:1; fill:none" points="365.106,1133.93 384.003,1133.93 "/>
<polyline clip-path="url(#clip890)" style="stroke:#000000; stroke-linecap:round; stroke-linejoin:round; stroke-width:4; stroke-opacity:1; fill:none" points="365.106,930.068 384.003,930.068 "/>
<polyline clip-path="url(#clip890)" style="stroke:#000000; stroke-linecap:round; stroke-linejoin:round; stroke-width:4; stroke-opacity:1; fill:none" points="365.106,726.204 384.003,726.204 "/>
<polyline clip-path="url(#clip890)" style="stroke:#000000; stroke-linecap:round; stroke-linejoin:round; stroke-width:4; stroke-opacity:1; fill:none" points="365.106,522.34 384.003,522.34 "/>
<polyline clip-path="url(#clip890)" style="stroke:#000000; stroke-linecap:round; stroke-linejoin:round; stroke-width:4; stroke-opacity:1; fill:none" points="365.106,318.475 384.003,318.475 "/>
<polyline clip-path="url(#clip890)" style="stroke:#000000; stroke-linecap:round; stroke-linejoin:round; stroke-width:4; stroke-opacity:1; fill:none" points="365.106,114.611 384.003,114.611 "/>
<path clip-path="url(#clip890)" d="M100.51 1326.96 L118.866 1326.96 L118.866 1330.9 L104.792 1330.9 L104.792 1339.37 Q105.811 1339.02 106.829 1338.86 Q107.848 1338.68 108.866 1338.68 Q114.653 1338.68 118.033 1341.85 Q121.412 1345.02 121.412 1350.44 Q121.412 1356.01 117.94 1359.12 Q114.468 1362.2 108.149 1362.2 Q105.973 1362.2 103.704 1361.83 Q101.459 1361.45 99.0515 1360.71 L99.0515 1356.01 Q101.135 1357.15 103.357 1357.7 Q105.579 1358.26 108.056 1358.26 Q112.061 1358.26 114.399 1356.15 Q116.737 1354.05 116.737 1350.44 Q116.737 1346.83 114.399 1344.72 Q112.061 1342.61 108.056 1342.61 Q106.181 1342.61 104.306 1343.03 Q102.454 1343.45 100.51 1344.33 L100.51 1326.96 Z" fill="#000000" fill-rule="nonzero" fill-opacity="1" /><path clip-path="url(#clip890)" d="M130.625 1355.64 L135.51 1355.64 L135.51 1361.52 L130.625 1361.52 L130.625 1355.64 Z" fill="#000000" fill-rule="nonzero" fill-opacity="1" /><path clip-path="url(#clip890)" d="M155.695 1330.04 Q152.084 1330.04 150.255 1333.61 Q148.449 1337.15 148.449 1344.28 Q148.449 1351.39 150.255 1354.95 Q152.084 1358.49 155.695 1358.49 Q159.329 1358.49 161.134 1354.95 Q162.963 1351.39 162.963 1344.28 Q162.963 1337.15 161.134 1333.61 Q159.329 1330.04 155.695 1330.04 M155.695 1326.34 Q161.505 1326.34 164.56 1330.95 Q167.639 1335.53 167.639 1344.28 Q167.639 1353.01 164.56 1357.61 Q161.505 1362.2 155.695 1362.2 Q149.885 1362.2 146.806 1357.61 Q143.75 1353.01 143.75 1344.28 Q143.75 1335.53 146.806 1330.95 Q149.885 1326.34 155.695 1326.34 Z" fill="#000000" fill-rule="nonzero" fill-opacity="1" /><path clip-path="url(#clip890)" d="M185.857 1330.04 Q182.245 1330.04 180.417 1333.61 Q178.611 1337.15 178.611 1344.28 Q178.611 1351.39 180.417 1354.95 Q182.245 1358.49 185.857 1358.49 Q189.491 1358.49 191.296 1354.95 Q193.125 1351.39 193.125 1344.28 Q193.125 1337.15 191.296 1333.61 Q189.491 1330.04 185.857 1330.04 M185.857 1326.34 Q191.667 1326.34 194.722 1330.95 Q197.801 1335.53 197.801 1344.28 Q197.801 1353.01 194.722 1357.61 Q191.667 1362.2 185.857 1362.2 Q180.046 1362.2 176.968 1357.61 Q173.912 1353.01 173.912 1344.28 Q173.912 1335.53 176.968 1330.95 Q180.046 1326.34 185.857 1326.34 Z" fill="#000000" fill-rule="nonzero" fill-opacity="1" /><path clip-path="url(#clip890)" d="M234.19 1336.06 L223.611 1346.69 L234.19 1357.26 L231.435 1360.07 L220.81 1349.44 L210.185 1360.07 L207.454 1357.26 L218.009 1346.69 L207.454 1336.06 L210.185 1333.26 L220.81 1343.89 L231.435 1333.26 L234.19 1336.06 Z" fill="#000000" fill-rule="nonzero" fill-opacity="1" /><path clip-path="url(#clip890)" d="M246.551 1357.59 L254.19 1357.59 L254.19 1331.22 L245.879 1332.89 L245.879 1328.63 L254.143 1326.96 L258.819 1326.96 L258.819 1357.59 L266.458 1357.59 L266.458 1361.52 L246.551 1361.52 L246.551 1357.59 Z" fill="#000000" fill-rule="nonzero" fill-opacity="1" /><path clip-path="url(#clip890)" d="M285.902 1330.04 Q282.291 1330.04 280.463 1333.61 Q278.657 1337.15 278.657 1344.28 Q278.657 1351.39 280.463 1354.95 Q282.291 1358.49 285.902 1358.49 Q289.537 1358.49 291.342 1354.95 Q293.171 1351.39 293.171 1344.28 Q293.171 1337.15 291.342 1333.61 Q289.537 1330.04 285.902 1330.04 M285.902 1326.34 Q291.712 1326.34 294.768 1330.95 Q297.847 1335.53 297.847 1344.28 Q297.847 1353.01 294.768 1357.61 Q291.712 1362.2 285.902 1362.2 Q280.092 1362.2 277.013 1357.61 Q273.958 1353.01 273.958 1344.28 Q273.958 1335.53 277.013 1330.95 Q280.092 1326.34 285.902 1326.34 Z" fill="#000000" fill-rule="nonzero" fill-opacity="1" /><path clip-path="url(#clip890)" d="M307.476 1320.78 Q304.768 1320.78 303.207 1322.23 Q301.665 1323.68 301.665 1326.21 Q301.665 1328.75 303.207 1330.2 Q304.768 1331.65 307.476 1331.65 Q310.185 1331.65 311.746 1330.2 Q313.307 1328.73 313.307 1326.21 Q313.307 1323.68 311.746 1322.23 Q310.203 1320.78 307.476 1320.78 M303.677 1319.16 Q301.232 1318.56 299.859 1316.89 Q298.505 1315.21 298.505 1312.8 Q298.505 1309.44 300.894 1307.48 Q303.301 1305.53 307.476 1305.53 Q311.67 1305.53 314.059 1307.48 Q316.448 1309.44 316.448 1312.8 Q316.448 1315.21 315.075 1316.89 Q313.72 1318.56 311.294 1319.16 Q314.04 1319.8 315.564 1321.66 Q317.106 1323.52 317.106 1326.21 Q317.106 1330.3 314.604 1332.48 Q312.122 1334.66 307.476 1334.66 Q302.831 1334.66 300.329 1332.48 Q297.847 1330.3 297.847 1326.21 Q297.847 1323.52 299.389 1321.66 Q300.931 1319.8 303.677 1319.16 M302.285 1313.16 Q302.285 1315.34 303.639 1316.57 Q305.012 1317.79 307.476 1317.79 Q309.921 1317.79 311.294 1316.57 Q312.686 1315.34 312.686 1313.16 Q312.686 1310.98 311.294 1309.76 Q309.921 1308.54 307.476 1308.54 Q305.012 1308.54 303.639 1309.76 Q302.285 1310.98 302.285 1313.16 Z" fill="#000000" fill-rule="nonzero" fill-opacity="1" /><path clip-path="url(#clip890)" d="M111.042 1138.52 Q107.894 1138.52 106.042 1140.67 Q104.213 1142.82 104.213 1146.57 Q104.213 1150.3 106.042 1152.47 Q107.894 1154.63 111.042 1154.63 Q114.19 1154.63 116.019 1152.47 Q117.871 1150.3 117.871 1146.57 Q117.871 1142.82 116.019 1140.67 Q114.19 1138.52 111.042 1138.52 M120.324 1123.86 L120.324 1128.12 Q118.565 1127.29 116.76 1126.85 Q114.977 1126.41 113.218 1126.41 Q108.588 1126.41 106.135 1129.54 Q103.704 1132.66 103.357 1138.98 Q104.723 1136.97 106.783 1135.9 Q108.843 1134.81 111.32 1134.81 Q116.528 1134.81 119.537 1137.98 Q122.57 1141.13 122.57 1146.57 Q122.57 1151.9 119.422 1155.11 Q116.274 1158.33 111.042 1158.33 Q105.047 1158.33 101.876 1153.75 Q98.7042 1149.14 98.7042 1140.41 Q98.7042 1132.22 102.593 1127.36 Q106.482 1122.47 113.033 1122.47 Q114.792 1122.47 116.575 1122.82 Q118.38 1123.17 120.324 1123.86 Z" fill="#000000" fill-rule="nonzero" fill-opacity="1" /><path clip-path="url(#clip890)" d="M130.625 1151.78 L135.51 1151.78 L135.51 1157.66 L130.625 1157.66 L130.625 1151.78 Z" fill="#000000" fill-rule="nonzero" fill-opacity="1" /><path clip-path="url(#clip890)" d="M155.695 1126.18 Q152.084 1126.18 150.255 1129.74 Q148.449 1133.29 148.449 1140.41 Q148.449 1147.52 150.255 1151.09 Q152.084 1154.63 155.695 1154.63 Q159.329 1154.63 161.134 1151.09 Q162.963 1147.52 162.963 1140.41 Q162.963 1133.29 161.134 1129.74 Q159.329 1126.18 155.695 1126.18 M155.695 1122.47 Q161.505 1122.47 164.56 1127.08 Q167.639 1131.66 167.639 1140.41 Q167.639 1149.14 164.56 1153.75 Q161.505 1158.33 155.695 1158.33 Q149.885 1158.33 146.806 1153.75 Q143.75 1149.14 143.75 1140.41 Q143.75 1131.66 146.806 1127.08 Q149.885 1122.47 155.695 1122.47 Z" fill="#000000" fill-rule="nonzero" fill-opacity="1" /><path clip-path="url(#clip890)" d="M185.857 1126.18 Q182.245 1126.18 180.417 1129.74 Q178.611 1133.29 178.611 1140.41 Q178.611 1147.52 180.417 1151.09 Q182.245 1154.63 185.857 1154.63 Q189.491 1154.63 191.296 1151.09 Q193.125 1147.52 193.125 1140.41 Q193.125 1133.29 191.296 1129.74 Q189.491 1126.18 185.857 1126.18 M185.857 1122.47 Q191.667 1122.47 194.722 1127.08 Q197.801 1131.66 197.801 1140.41 Q197.801 1149.14 194.722 1153.75 Q191.667 1158.33 185.857 1158.33 Q180.046 1158.33 176.968 1153.75 Q173.912 1149.14 173.912 1140.41 Q173.912 1131.66 176.968 1127.08 Q180.046 1122.47 185.857 1122.47 Z" fill="#000000" fill-rule="nonzero" fill-opacity="1" /><path clip-path="url(#clip890)" d="M234.19 1132.2 L223.611 1142.82 L234.19 1153.4 L231.435 1156.2 L220.81 1145.58 L210.185 1156.2 L207.454 1153.4 L218.009 1142.82 L207.454 1132.2 L210.185 1129.4 L220.81 1140.02 L231.435 1129.4 L234.19 1132.2 Z" fill="#000000" fill-rule="nonzero" fill-opacity="1" /><path clip-path="url(#clip890)" d="M246.551 1153.72 L254.19 1153.72 L254.19 1127.36 L245.879 1129.03 L245.879 1124.77 L254.143 1123.1 L258.819 1123.1 L258.819 1153.72 L266.458 1153.72 L266.458 1157.66 L246.551 1157.66 L246.551 1153.72 Z" fill="#000000" fill-rule="nonzero" fill-opacity="1" /><path clip-path="url(#clip890)" d="M285.902 1126.18 Q282.291 1126.18 280.463 1129.74 Q278.657 1133.29 278.657 1140.41 Q278.657 1147.52 280.463 1151.09 Q282.291 1154.63 285.902 1154.63 Q289.537 1154.63 291.342 1151.09 Q293.171 1147.52 293.171 1140.41 Q293.171 1133.29 291.342 1129.74 Q289.537 1126.18 285.902 1126.18 M285.902 1122.47 Q291.712 1122.47 294.768 1127.08 Q297.847 1131.66 297.847 1140.41 Q297.847 1149.14 294.768 1153.75 Q291.712 1158.33 285.902 1158.33 Q280.092 1158.33 277.013 1153.75 Q273.958 1149.14 273.958 1140.41 Q273.958 1131.66 277.013 1127.08 Q280.092 1122.47 285.902 1122.47 Z" fill="#000000" fill-rule="nonzero" fill-opacity="1" /><path clip-path="url(#clip890)" d="M307.476 1116.91 Q304.768 1116.91 303.207 1118.36 Q301.665 1119.81 301.665 1122.35 Q301.665 1124.89 303.207 1126.34 Q304.768 1127.79 307.476 1127.79 Q310.185 1127.79 311.746 1126.34 Q313.307 1124.87 313.307 1122.35 Q313.307 1119.81 311.746 1118.36 Q310.203 1116.91 307.476 1116.91 M303.677 1115.3 Q301.232 1114.7 299.859 1113.02 Q298.505 1111.35 298.505 1108.94 Q298.505 1105.57 300.894 1103.62 Q303.301 1101.66 307.476 1101.66 Q311.67 1101.66 314.059 1103.62 Q316.448 1105.57 316.448 1108.94 Q316.448 1111.35 315.075 1113.02 Q313.72 1114.7 311.294 1115.3 Q314.04 1115.94 315.564 1117.8 Q317.106 1119.66 317.106 1122.35 Q317.106 1126.43 314.604 1128.61 Q312.122 1130.79 307.476 1130.79 Q302.831 1130.79 300.329 1128.61 Q297.847 1126.43 297.847 1122.35 Q297.847 1119.66 299.389 1117.8 Q300.931 1115.94 303.677 1115.3 M302.285 1109.3 Q302.285 1111.48 303.639 1112.7 Q305.012 1113.92 307.476 1113.92 Q309.921 1113.92 311.294 1112.7 Q312.686 1111.48 312.686 1109.3 Q312.686 1107.12 311.294 1105.89 Q309.921 1104.67 307.476 1104.67 Q305.012 1104.67 303.639 1105.89 Q302.285 1107.12 302.285 1109.3 Z" fill="#000000" fill-rule="nonzero" fill-opacity="1" /><path clip-path="url(#clip890)" d="M99.2829 919.236 L121.505 919.236 L121.505 921.226 L108.959 953.796 L104.075 953.796 L115.88 923.171 L99.2829 923.171 L99.2829 919.236 Z" fill="#000000" fill-rule="nonzero" fill-opacity="1" /><path clip-path="url(#clip890)" d="M130.625 947.916 L135.51 947.916 L135.51 953.796 L130.625 953.796 L130.625 947.916 Z" fill="#000000" fill-rule="nonzero" fill-opacity="1" /><path clip-path="url(#clip890)" d="M155.695 922.314 Q152.084 922.314 150.255 925.879 Q148.449 929.421 148.449 936.55 Q148.449 943.657 150.255 947.222 Q152.084 950.763 155.695 950.763 Q159.329 950.763 161.134 947.222 Q162.963 943.657 162.963 936.55 Q162.963 929.421 161.134 925.879 Q159.329 922.314 155.695 922.314 M155.695 918.611 Q161.505 918.611 164.56 923.217 Q167.639 927.8 167.639 936.55 Q167.639 945.277 164.56 949.884 Q161.505 954.467 155.695 954.467 Q149.885 954.467 146.806 949.884 Q143.75 945.277 143.75 936.55 Q143.75 927.8 146.806 923.217 Q149.885 918.611 155.695 918.611 Z" fill="#000000" fill-rule="nonzero" fill-opacity="1" /><path clip-path="url(#clip890)" d="M185.857 922.314 Q182.245 922.314 180.417 925.879 Q178.611 929.421 178.611 936.55 Q178.611 943.657 180.417 947.222 Q182.245 950.763 185.857 950.763 Q189.491 950.763 191.296 947.222 Q193.125 943.657 193.125 936.55 Q193.125 929.421 191.296 925.879 Q189.491 922.314 185.857 922.314 M185.857 918.611 Q191.667 918.611 194.722 923.217 Q197.801 927.8 197.801 936.55 Q197.801 945.277 194.722 949.884 Q191.667 954.467 185.857 954.467 Q180.046 954.467 176.968 949.884 Q173.912 945.277 173.912 936.55 Q173.912 927.8 176.968 923.217 Q180.046 918.611 185.857 918.611 Z" fill="#000000" fill-rule="nonzero" fill-opacity="1" /><path clip-path="url(#clip890)" d="M234.19 928.333 L223.611 938.958 L234.19 949.536 L231.435 952.337 L220.81 941.712 L210.185 952.337 L207.454 949.536 L218.009 938.958 L207.454 928.333 L210.185 925.532 L220.81 936.157 L231.435 925.532 L234.19 928.333 Z" fill="#000000" fill-rule="nonzero" fill-opacity="1" /><path clip-path="url(#clip890)" d="M246.551 949.861 L254.19 949.861 L254.19 923.495 L245.879 925.162 L245.879 920.902 L254.143 919.236 L258.819 919.236 L258.819 949.861 L266.458 949.861 L266.458 953.796 L246.551 953.796 L246.551 949.861 Z" fill="#000000" fill-rule="nonzero" fill-opacity="1" /><path clip-path="url(#clip890)" d="M285.902 922.314 Q282.291 922.314 280.463 925.879 Q278.657 929.421 278.657 936.55 Q278.657 943.657 280.463 947.222 Q282.291 950.763 285.902 950.763 Q289.537 950.763 291.342 947.222 Q293.171 943.657 293.171 936.55 Q293.171 929.421 291.342 925.879 Q289.537 922.314 285.902 922.314 M285.902 918.611 Q291.712 918.611 294.768 923.217 Q297.847 927.8 297.847 936.55 Q297.847 945.277 294.768 949.884 Q291.712 954.467 285.902 954.467 Q280.092 954.467 277.013 949.884 Q273.958 945.277 273.958 936.55 Q273.958 927.8 277.013 923.217 Q280.092 918.611 285.902 918.611 Z" fill="#000000" fill-rule="nonzero" fill-opacity="1" /><path clip-path="url(#clip890)" d="M307.476 913.051 Q304.768 913.051 303.207 914.499 Q301.665 915.947 301.665 918.486 Q301.665 921.025 303.207 922.473 Q304.768 923.921 307.476 923.921 Q310.185 923.921 311.746 922.473 Q313.307 921.006 313.307 918.486 Q313.307 915.947 311.746 914.499 Q310.203 913.051 307.476 913.051 M303.677 911.433 Q301.232 910.831 299.859 909.157 Q298.505 907.483 298.505 905.076 Q298.505 901.71 300.894 899.754 Q303.301 897.797 307.476 897.797 Q311.67 897.797 314.059 899.754 Q316.448 901.71 316.448 905.076 Q316.448 907.483 315.075 909.157 Q313.72 910.831 311.294 911.433 Q314.04 912.073 315.564 913.935 Q317.106 915.797 317.106 918.486 Q317.106 922.567 314.604 924.749 Q312.122 926.931 307.476 926.931 Q302.831 926.931 300.329 924.749 Q297.847 922.567 297.847 918.486 Q297.847 915.797 299.389 913.935 Q300.931 912.073 303.677 911.433 M302.285 905.433 Q302.285 907.615 303.639 908.838 Q305.012 910.06 307.476 910.06 Q309.921 910.06 311.294 908.838 Q312.686 907.615 312.686 905.433 Q312.686 903.252 311.294 902.029 Q309.921 900.807 307.476 900.807 Q305.012 900.807 303.639 902.029 Q302.285 903.252 302.285 905.433 Z" fill="#000000" fill-rule="nonzero" fill-opacity="1" /><path clip-path="url(#clip890)" d="M110.463 733.52 Q107.13 733.52 105.209 735.302 Q103.311 737.084 103.311 740.209 Q103.311 743.334 105.209 745.117 Q107.13 746.899 110.463 746.899 Q113.797 746.899 115.718 745.117 Q117.639 743.311 117.639 740.209 Q117.639 737.084 115.718 735.302 Q113.82 733.52 110.463 733.52 M105.788 731.529 Q102.778 730.788 101.088 728.728 Q99.4218 726.668 99.4218 723.705 Q99.4218 719.561 102.362 717.154 Q105.325 714.747 110.463 714.747 Q115.625 714.747 118.565 717.154 Q121.505 719.561 121.505 723.705 Q121.505 726.668 119.815 728.728 Q118.149 730.788 115.162 731.529 Q118.542 732.316 120.417 734.608 Q122.315 736.899 122.315 740.209 Q122.315 745.232 119.237 747.918 Q116.181 750.603 110.463 750.603 Q104.746 750.603 101.667 747.918 Q98.6116 745.232 98.6116 740.209 Q98.6116 736.899 100.51 734.608 Q102.408 732.316 105.788 731.529 M104.075 724.145 Q104.075 726.83 105.741 728.334 Q107.431 729.839 110.463 729.839 Q113.473 729.839 115.162 728.334 Q116.875 726.83 116.875 724.145 Q116.875 721.459 115.162 719.955 Q113.473 718.45 110.463 718.45 Q107.431 718.45 105.741 719.955 Q104.075 721.459 104.075 724.145 Z" fill="#000000" fill-rule="nonzero" fill-opacity="1" /><path clip-path="url(#clip890)" d="M130.625 744.052 L135.51 744.052 L135.51 749.931 L130.625 749.931 L130.625 744.052 Z" fill="#000000" fill-rule="nonzero" fill-opacity="1" /><path clip-path="url(#clip890)" d="M155.695 718.45 Q152.084 718.45 150.255 722.015 Q148.449 725.557 148.449 732.686 Q148.449 739.793 150.255 743.357 Q152.084 746.899 155.695 746.899 Q159.329 746.899 161.134 743.357 Q162.963 739.793 162.963 732.686 Q162.963 725.557 161.134 722.015 Q159.329 718.45 155.695 718.45 M155.695 714.747 Q161.505 714.747 164.56 719.353 Q167.639 723.936 167.639 732.686 Q167.639 741.413 164.56 746.019 Q161.505 750.603 155.695 750.603 Q149.885 750.603 146.806 746.019 Q143.75 741.413 143.75 732.686 Q143.75 723.936 146.806 719.353 Q149.885 714.747 155.695 714.747 Z" fill="#000000" fill-rule="nonzero" fill-opacity="1" /><path clip-path="url(#clip890)" d="M185.857 718.45 Q182.245 718.45 180.417 722.015 Q178.611 725.557 178.611 732.686 Q178.611 739.793 180.417 743.357 Q182.245 746.899 185.857 746.899 Q189.491 746.899 191.296 743.357 Q193.125 739.793 193.125 732.686 Q193.125 725.557 191.296 722.015 Q189.491 718.45 185.857 718.45 M185.857 714.747 Q191.667 714.747 194.722 719.353 Q197.801 723.936 197.801 732.686 Q197.801 741.413 194.722 746.019 Q191.667 750.603 185.857 750.603 Q180.046 750.603 176.968 746.019 Q173.912 741.413 173.912 732.686 Q173.912 723.936 176.968 719.353 Q180.046 714.747 185.857 714.747 Z" fill="#000000" fill-rule="nonzero" fill-opacity="1" /><path clip-path="url(#clip890)" d="M234.19 724.469 L223.611 735.094 L234.19 745.672 L231.435 748.473 L220.81 737.848 L210.185 748.473 L207.454 745.672 L218.009 735.094 L207.454 724.469 L210.185 721.668 L220.81 732.293 L231.435 721.668 L234.19 724.469 Z" fill="#000000" fill-rule="nonzero" fill-opacity="1" /><path clip-path="url(#clip890)" d="M246.551 745.996 L254.19 745.996 L254.19 719.631 L245.879 721.297 L245.879 717.038 L254.143 715.371 L258.819 715.371 L258.819 745.996 L266.458 745.996 L266.458 749.931 L246.551 749.931 L246.551 745.996 Z" fill="#000000" fill-rule="nonzero" fill-opacity="1" /><path clip-path="url(#clip890)" d="M285.902 718.45 Q282.291 718.45 280.463 722.015 Q278.657 725.557 278.657 732.686 Q278.657 739.793 280.463 743.357 Q282.291 746.899 285.902 746.899 Q289.537 746.899 291.342 743.357 Q293.171 739.793 293.171 732.686 Q293.171 725.557 291.342 722.015 Q289.537 718.45 285.902 718.45 M285.902 714.747 Q291.712 714.747 294.768 719.353 Q297.847 723.936 297.847 732.686 Q297.847 741.413 294.768 746.019 Q291.712 750.603 285.902 750.603 Q280.092 750.603 277.013 746.019 Q273.958 741.413 273.958 732.686 Q273.958 723.936 277.013 719.353 Q280.092 714.747 285.902 714.747 Z" fill="#000000" fill-rule="nonzero" fill-opacity="1" /><path clip-path="url(#clip890)" d="M307.476 709.186 Q304.768 709.186 303.207 710.635 Q301.665 712.083 301.665 714.622 Q301.665 717.161 303.207 718.609 Q304.768 720.057 307.476 720.057 Q310.185 720.057 311.746 718.609 Q313.307 717.142 313.307 714.622 Q313.307 712.083 311.746 710.635 Q310.203 709.186 307.476 709.186 M303.677 707.569 Q301.232 706.967 299.859 705.293 Q298.505 703.619 298.505 701.212 Q298.505 697.845 300.894 695.889 Q303.301 693.933 307.476 693.933 Q311.67 693.933 314.059 695.889 Q316.448 697.845 316.448 701.212 Q316.448 703.619 315.075 705.293 Q313.72 706.967 311.294 707.569 Q314.04 708.208 315.564 710.07 Q317.106 711.932 317.106 714.622 Q317.106 718.703 314.604 720.885 Q312.122 723.067 307.476 723.067 Q302.831 723.067 300.329 720.885 Q297.847 718.703 297.847 714.622 Q297.847 711.932 299.389 710.07 Q300.931 708.208 303.677 707.569 M302.285 701.569 Q302.285 703.751 303.639 704.973 Q305.012 706.196 307.476 706.196 Q309.921 706.196 311.294 704.973 Q312.686 703.751 312.686 701.569 Q312.686 699.388 311.294 698.165 Q309.921 696.943 307.476 696.943 Q305.012 696.943 303.639 698.165 Q302.285 699.388 302.285 701.569 Z" fill="#000000" fill-rule="nonzero" fill-opacity="1" /><path clip-path="url(#clip890)" d="M100.602 545.35 L100.602 541.09 Q102.362 541.924 104.167 542.364 Q105.973 542.803 107.709 542.803 Q112.338 542.803 114.769 539.702 Q117.223 536.577 117.57 530.234 Q116.227 532.225 114.167 533.29 Q112.107 534.354 109.607 534.354 Q104.422 534.354 101.389 531.229 Q98.3802 528.081 98.3802 522.641 Q98.3802 517.317 101.528 514.1 Q104.676 510.882 109.908 510.882 Q115.903 510.882 119.051 515.489 Q122.223 520.072 122.223 528.822 Q122.223 536.993 118.334 541.877 Q114.468 546.739 107.917 546.739 Q106.158 546.739 104.352 546.391 Q102.547 546.044 100.602 545.35 M109.908 530.697 Q113.056 530.697 114.885 528.544 Q116.737 526.391 116.737 522.641 Q116.737 518.915 114.885 516.762 Q113.056 514.586 109.908 514.586 Q106.76 514.586 104.908 516.762 Q103.079 518.915 103.079 522.641 Q103.079 526.391 104.908 528.544 Q106.76 530.697 109.908 530.697 Z" fill="#000000" fill-rule="nonzero" fill-opacity="1" /><path clip-path="url(#clip890)" d="M130.625 540.188 L135.51 540.188 L135.51 546.067 L130.625 546.067 L130.625 540.188 Z" fill="#000000" fill-rule="nonzero" fill-opacity="1" /><path clip-path="url(#clip890)" d="M155.695 514.586 Q152.084 514.586 150.255 518.151 Q148.449 521.692 148.449 528.822 Q148.449 535.928 150.255 539.493 Q152.084 543.035 155.695 543.035 Q159.329 543.035 161.134 539.493 Q162.963 535.928 162.963 528.822 Q162.963 521.692 161.134 518.151 Q159.329 514.586 155.695 514.586 M155.695 510.882 Q161.505 510.882 164.56 515.489 Q167.639 520.072 167.639 528.822 Q167.639 537.549 164.56 542.155 Q161.505 546.739 155.695 546.739 Q149.885 546.739 146.806 542.155 Q143.75 537.549 143.75 528.822 Q143.75 520.072 146.806 515.489 Q149.885 510.882 155.695 510.882 Z" fill="#000000" fill-rule="nonzero" fill-opacity="1" /><path clip-path="url(#clip890)" d="M185.857 514.586 Q182.245 514.586 180.417 518.151 Q178.611 521.692 178.611 528.822 Q178.611 535.928 180.417 539.493 Q182.245 543.035 185.857 543.035 Q189.491 543.035 191.296 539.493 Q193.125 535.928 193.125 528.822 Q193.125 521.692 191.296 518.151 Q189.491 514.586 185.857 514.586 M185.857 510.882 Q191.667 510.882 194.722 515.489 Q197.801 520.072 197.801 528.822 Q197.801 537.549 194.722 542.155 Q191.667 546.739 185.857 546.739 Q180.046 546.739 176.968 542.155 Q173.912 537.549 173.912 528.822 Q173.912 520.072 176.968 515.489 Q180.046 510.882 185.857 510.882 Z" fill="#000000" fill-rule="nonzero" fill-opacity="1" /><path clip-path="url(#clip890)" d="M234.19 520.604 L223.611 531.229 L234.19 541.808 L231.435 544.609 L220.81 533.984 L210.185 544.609 L207.454 541.808 L218.009 531.229 L207.454 520.604 L210.185 517.804 L220.81 528.428 L231.435 517.804 L234.19 520.604 Z" fill="#000000" fill-rule="nonzero" fill-opacity="1" /><path clip-path="url(#clip890)" d="M246.551 542.132 L254.19 542.132 L254.19 515.767 L245.879 517.433 L245.879 513.174 L254.143 511.507 L258.819 511.507 L258.819 542.132 L266.458 542.132 L266.458 546.067 L246.551 546.067 L246.551 542.132 Z" fill="#000000" fill-rule="nonzero" fill-opacity="1" /><path clip-path="url(#clip890)" d="M285.902 514.586 Q282.291 514.586 280.463 518.151 Q278.657 521.692 278.657 528.822 Q278.657 535.928 280.463 539.493 Q282.291 543.035 285.902 543.035 Q289.537 543.035 291.342 539.493 Q293.171 535.928 293.171 528.822 Q293.171 521.692 291.342 518.151 Q289.537 514.586 285.902 514.586 M285.902 510.882 Q291.712 510.882 294.768 515.489 Q297.847 520.072 297.847 528.822 Q297.847 537.549 294.768 542.155 Q291.712 546.739 285.902 546.739 Q280.092 546.739 277.013 542.155 Q273.958 537.549 273.958 528.822 Q273.958 520.072 277.013 515.489 Q280.092 510.882 285.902 510.882 Z" fill="#000000" fill-rule="nonzero" fill-opacity="1" /><path clip-path="url(#clip890)" d="M307.476 505.322 Q304.768 505.322 303.207 506.77 Q301.665 508.219 301.665 510.758 Q301.665 513.297 303.207 514.745 Q304.768 516.193 307.476 516.193 Q310.185 516.193 311.746 514.745 Q313.307 513.278 313.307 510.758 Q313.307 508.219 311.746 506.77 Q310.203 505.322 307.476 505.322 M303.677 503.705 Q301.232 503.103 299.859 501.429 Q298.505 499.755 298.505 497.348 Q298.505 493.981 300.894 492.025 Q303.301 490.069 307.476 490.069 Q311.67 490.069 314.059 492.025 Q316.448 493.981 316.448 497.348 Q316.448 499.755 315.075 501.429 Q313.72 503.103 311.294 503.705 Q314.04 504.344 315.564 506.206 Q317.106 508.068 317.106 510.758 Q317.106 514.839 314.604 517.021 Q312.122 519.202 307.476 519.202 Q302.831 519.202 300.329 517.021 Q297.847 514.839 297.847 510.758 Q297.847 508.068 299.389 506.206 Q300.931 504.344 303.677 503.705 M302.285 497.705 Q302.285 499.887 303.639 501.109 Q305.012 502.332 307.476 502.332 Q309.921 502.332 311.294 501.109 Q312.686 499.887 312.686 497.705 Q312.686 495.523 311.294 494.301 Q309.921 493.078 307.476 493.078 Q305.012 493.078 303.639 494.301 Q302.285 495.523 302.285 497.705 Z" fill="#000000" fill-rule="nonzero" fill-opacity="1" /><path clip-path="url(#clip890)" d="M101.161 338.268 L108.8 338.268 L108.8 311.902 L100.49 313.569 L100.49 309.31 L108.753 307.643 L113.429 307.643 L113.429 338.268 L121.068 338.268 L121.068 342.203 L101.161 342.203 L101.161 338.268 Z" fill="#000000" fill-rule="nonzero" fill-opacity="1" /><path clip-path="url(#clip890)" d="M130.513 336.323 L135.397 336.323 L135.397 342.203 L130.513 342.203 L130.513 336.323 Z" fill="#000000" fill-rule="nonzero" fill-opacity="1" /><path clip-path="url(#clip890)" d="M155.582 310.722 Q151.971 310.722 150.142 314.287 Q148.336 317.828 148.336 324.958 Q148.336 332.064 150.142 335.629 Q151.971 339.171 155.582 339.171 Q159.216 339.171 161.022 335.629 Q162.85 332.064 162.85 324.958 Q162.85 317.828 161.022 314.287 Q159.216 310.722 155.582 310.722 M155.582 307.018 Q161.392 307.018 164.448 311.625 Q167.526 316.208 167.526 324.958 Q167.526 333.685 164.448 338.291 Q161.392 342.874 155.582 342.874 Q149.772 342.874 146.693 338.291 Q143.637 333.685 143.637 324.958 Q143.637 316.208 146.693 311.625 Q149.772 307.018 155.582 307.018 Z" fill="#000000" fill-rule="nonzero" fill-opacity="1" /><path clip-path="url(#clip890)" d="M185.744 310.722 Q182.133 310.722 180.304 314.287 Q178.498 317.828 178.498 324.958 Q178.498 332.064 180.304 335.629 Q182.133 339.171 185.744 339.171 Q189.378 339.171 191.183 335.629 Q193.012 332.064 193.012 324.958 Q193.012 317.828 191.183 314.287 Q189.378 310.722 185.744 310.722 M185.744 307.018 Q191.554 307.018 194.609 311.625 Q197.688 316.208 197.688 324.958 Q197.688 333.685 194.609 338.291 Q191.554 342.874 185.744 342.874 Q179.934 342.874 176.855 338.291 Q173.799 333.685 173.799 324.958 Q173.799 316.208 176.855 311.625 Q179.934 307.018 185.744 307.018 Z" fill="#000000" fill-rule="nonzero" fill-opacity="1" /><path clip-path="url(#clip890)" d="M234.077 316.74 L223.498 327.365 L234.077 337.944 L231.322 340.745 L220.697 330.12 L210.072 340.745 L207.341 337.944 L217.896 327.365 L207.341 316.74 L210.072 313.939 L220.697 324.564 L231.322 313.939 L234.077 316.74 Z" fill="#000000" fill-rule="nonzero" fill-opacity="1" /><path clip-path="url(#clip890)" d="M246.438 338.268 L254.077 338.268 L254.077 311.902 L245.767 313.569 L245.767 309.31 L254.03 307.643 L258.706 307.643 L258.706 338.268 L266.345 338.268 L266.345 342.203 L246.438 342.203 L246.438 338.268 Z" fill="#000000" fill-rule="nonzero" fill-opacity="1" /><path clip-path="url(#clip890)" d="M285.789 310.722 Q282.178 310.722 280.35 314.287 Q278.544 317.828 278.544 324.958 Q278.544 332.064 280.35 335.629 Q282.178 339.171 285.789 339.171 Q289.424 339.171 291.229 335.629 Q293.058 332.064 293.058 324.958 Q293.058 317.828 291.229 314.287 Q289.424 310.722 285.789 310.722 M285.789 307.018 Q291.6 307.018 294.655 311.625 Q297.734 316.208 297.734 324.958 Q297.734 333.685 294.655 338.291 Q291.6 342.874 285.789 342.874 Q279.979 342.874 276.901 338.291 Q273.845 333.685 273.845 324.958 Q273.845 316.208 276.901 311.625 Q279.979 307.018 285.789 307.018 Z" fill="#000000" fill-rule="nonzero" fill-opacity="1" /><path clip-path="url(#clip890)" d="M299.539 314.21 L299.539 310.749 Q300.969 311.426 302.436 311.783 Q303.903 312.141 305.313 312.141 Q309.075 312.141 311.05 309.621 Q313.043 307.081 313.325 301.928 Q312.235 303.546 310.561 304.411 Q308.887 305.276 306.856 305.276 Q302.643 305.276 300.179 302.737 Q297.734 300.179 297.734 295.759 Q297.734 291.433 300.292 288.819 Q302.85 286.205 307.1 286.205 Q311.971 286.205 314.529 289.948 Q317.106 293.672 317.106 300.781 Q317.106 307.42 313.946 311.388 Q310.805 315.338 305.483 315.338 Q304.053 315.338 302.586 315.056 Q301.119 314.774 299.539 314.21 M307.1 302.304 Q309.658 302.304 311.144 300.555 Q312.648 298.806 312.648 295.759 Q312.648 292.731 311.144 290.982 Q309.658 289.214 307.1 289.214 Q304.542 289.214 303.038 290.982 Q301.552 292.731 301.552 295.759 Q301.552 298.806 303.038 300.555 Q304.542 302.304 307.1 302.304 Z" fill="#000000" fill-rule="nonzero" fill-opacity="1" /><path clip-path="url(#clip890)" d="M101.161 134.404 L108.8 134.404 L108.8 108.038 L100.49 109.705 L100.49 105.446 L108.753 103.779 L113.429 103.779 L113.429 134.404 L121.068 134.404 L121.068 138.339 L101.161 138.339 L101.161 134.404 Z" fill="#000000" fill-rule="nonzero" fill-opacity="1" /><path clip-path="url(#clip890)" d="M130.513 132.459 L135.397 132.459 L135.397 138.339 L130.513 138.339 L130.513 132.459 Z" fill="#000000" fill-rule="nonzero" fill-opacity="1" /><path clip-path="url(#clip890)" d="M146.392 134.404 L154.031 134.404 L154.031 108.038 L145.721 109.705 L145.721 105.446 L153.985 103.779 L158.661 103.779 L158.661 134.404 L166.299 134.404 L166.299 138.339 L146.392 138.339 L146.392 134.404 Z" fill="#000000" fill-rule="nonzero" fill-opacity="1" /><path clip-path="url(#clip890)" d="M185.744 106.858 Q182.133 106.858 180.304 110.422 Q178.498 113.964 178.498 121.094 Q178.498 128.2 180.304 131.765 Q182.133 135.306 185.744 135.306 Q189.378 135.306 191.183 131.765 Q193.012 128.2 193.012 121.094 Q193.012 113.964 191.183 110.422 Q189.378 106.858 185.744 106.858 M185.744 103.154 Q191.554 103.154 194.609 107.76 Q197.688 112.344 197.688 121.094 Q197.688 129.82 194.609 134.427 Q191.554 139.01 185.744 139.01 Q179.934 139.01 176.855 134.427 Q173.799 129.82 173.799 121.094 Q173.799 112.344 176.855 107.76 Q179.934 103.154 185.744 103.154 Z" fill="#000000" fill-rule="nonzero" fill-opacity="1" /><path clip-path="url(#clip890)" d="M234.077 112.876 L223.498 123.501 L234.077 134.08 L231.322 136.881 L220.697 126.256 L210.072 136.881 L207.341 134.08 L217.896 123.501 L207.341 112.876 L210.072 110.075 L220.697 120.7 L231.322 110.075 L234.077 112.876 Z" fill="#000000" fill-rule="nonzero" fill-opacity="1" /><path clip-path="url(#clip890)" d="M246.438 134.404 L254.077 134.404 L254.077 108.038 L245.767 109.705 L245.767 105.446 L254.03 103.779 L258.706 103.779 L258.706 134.404 L266.345 134.404 L266.345 138.339 L246.438 138.339 L246.438 134.404 Z" fill="#000000" fill-rule="nonzero" fill-opacity="1" /><path clip-path="url(#clip890)" d="M285.789 106.858 Q282.178 106.858 280.35 110.422 Q278.544 113.964 278.544 121.094 Q278.544 128.2 280.35 131.765 Q282.178 135.306 285.789 135.306 Q289.424 135.306 291.229 131.765 Q293.058 128.2 293.058 121.094 Q293.058 113.964 291.229 110.422 Q289.424 106.858 285.789 106.858 M285.789 103.154 Q291.6 103.154 294.655 107.76 Q297.734 112.344 297.734 121.094 Q297.734 129.82 294.655 134.427 Q291.6 139.01 285.789 139.01 Q279.979 139.01 276.901 134.427 Q273.845 129.82 273.845 121.094 Q273.845 112.344 276.901 107.76 Q279.979 103.154 285.789 103.154 Z" fill="#000000" fill-rule="nonzero" fill-opacity="1" /><path clip-path="url(#clip890)" d="M299.539 110.345 L299.539 106.885 Q300.969 107.562 302.436 107.919 Q303.903 108.277 305.313 108.277 Q309.075 108.277 311.05 105.756 Q313.043 103.217 313.325 98.064 Q312.235 99.6814 310.561 100.547 Q308.887 101.412 306.856 101.412 Q302.643 101.412 300.179 98.8727 Q297.734 96.3148 297.734 91.895 Q297.734 87.5692 300.292 84.9549 Q302.85 82.3407 307.1 82.3407 Q311.971 82.3407 314.529 86.0834 Q317.106 89.8073 317.106 96.9167 Q317.106 103.556 313.946 107.524 Q310.805 111.474 305.483 111.474 Q304.053 111.474 302.586 111.192 Q301.119 110.91 299.539 110.345 M307.1 98.4401 Q309.658 98.4401 311.144 96.691 Q312.648 94.9419 312.648 91.895 Q312.648 88.867 311.144 87.1178 Q309.658 85.3499 307.1 85.3499 Q304.542 85.3499 303.038 87.1178 Q301.552 88.867 301.552 91.895 Q301.552 94.9419 303.038 96.691 Q304.542 98.4401 307.1 98.4401 Z" fill="#000000" fill-rule="nonzero" fill-opacity="1" /><path clip-path="url(#clip890)" d="M-9.64527 840.632 L0.4762 840.632 L0.4762 828.569 L5.02768 828.569 L5.02768 840.632 L24.3794 840.632 Q28.7399 840.632 29.9813 839.454 Q31.2226 838.245 31.2226 834.584 L31.2226 828.569 L36.1242 828.569 L36.1242 834.584 Q36.1242 841.364 33.6097 843.942 Q31.0634 846.52 24.3794 846.52 L5.02768 846.52 L5.02768 850.817 L0.4762 850.817 L0.4762 846.52 L-9.64527 846.52 L-9.64527 840.632 Z" fill="#000000" fill-rule="nonzero" fill-opacity="1" /><path clip-path="url(#clip890)" d="M-11.3958 789.738 L-11.3958 784.327 L42.1716 800.878 L42.1716 806.289 L-11.3958 789.738 Z" fill="#000000" fill-rule="nonzero" fill-opacity="1" /><path clip-path="url(#clip890)" d="M14.6081 727.831 L36.1242 727.831 L36.1242 733.688 L14.799 733.688 Q9.7383 733.688 7.22385 735.661 Q4.7094 737.635 4.7094 741.581 Q4.7094 746.324 7.73311 749.061 Q10.7568 751.798 15.9767 751.798 L36.1242 751.798 L36.1242 757.687 L0.4762 757.687 L0.4762 751.798 L6.01437 751.798 Q2.79968 749.698 1.20826 746.865 Q-0.38317 744 -0.38317 740.276 Q-0.38317 734.133 3.43625 730.982 Q7.22385 727.831 14.6081 727.831 Z" fill="#000000" fill-rule="nonzero" fill-opacity="1" /><path clip-path="url(#clip890)" d="M1.52654 693.425 L7.06471 693.425 Q5.79157 695.907 5.15499 698.581 Q4.51842 701.255 4.51842 704.119 Q4.51842 708.48 5.85522 710.676 Q7.19202 712.84 9.86562 712.84 Q11.9026 712.84 13.0803 711.281 Q14.2261 709.721 15.2765 705.01 L15.7221 703.005 Q17.0589 696.767 19.5097 694.157 Q21.9286 691.515 26.2891 691.515 Q31.2544 691.515 34.1508 695.462 Q37.0472 699.377 37.0472 706.252 Q37.0472 709.116 36.4743 712.235 Q35.9332 715.323 34.8192 718.76 L28.7718 718.76 Q30.4587 715.514 31.318 712.363 Q32.1456 709.212 32.1456 706.124 Q32.1456 701.987 30.7451 699.759 Q29.3129 697.531 26.7347 697.531 Q24.3476 697.531 23.0745 699.154 Q21.8013 700.745 20.6237 706.188 L20.1462 708.225 Q19.0004 713.668 16.6451 716.087 Q14.258 718.506 10.1202 718.506 Q5.09134 718.506 2.35408 714.941 Q-0.38317 711.376 -0.38317 704.819 Q-0.38317 701.573 0.0942579 698.708 Q0.571686 695.844 1.52654 693.425 Z" fill="#000000" fill-rule="nonzero" fill-opacity="1" /><path clip-path="url(#clip891)" d="M1235.73 1454.11 L1246.95 1452.42 L1258.06 1450.73 L1269.03 1449.05 L1279.84 1447.36 L1290.49 1445.67 L1300.93 1443.98 L1311.13 1442.29 L1321.07 1440.61 L1330.69 1438.92 L1339.94 1437.23 L1348.78 1435.54 L1357.13 1433.85 L1364.94 1432.16 L1372.14 1430.48 L1378.66 1428.79 L1384.44 1427.1 L1389.4 1425.41 L1393.5 1423.72 L1396.68 1422.04 L1398.89 1420.35 L1400.11 1418.66 L1400.31 1416.97 L1399.5 1415.28 L1397.67 1413.59 L1394.85 1411.91 L1391.08 1410.22 L1386.42 1408.53 L1380.93 1406.84 L1374.69 1405.15 L1367.8 1403.47 L1360.35 1401.78 L1352.45 1400.09 L1344.21 1398.4 L1335.75 1396.71 L1327.18 1395.02 L1318.61 1393.34 L1310.13 1391.65 L1301.85 1389.96 L1293.86 1388.27 L1286.22 1386.58 L1278.99 1384.9 L1272.24 1383.21 L1265.99 1381.52 L1260.27 1379.83 L1255.09 1378.14 L1250.45 1376.45 L1246.33 1374.77 L1242.72 1373.08 L1239.59 1371.39 L1236.9 1369.7 L1234.62 1368.01 L1232.69 1366.33 L1231.08 1364.64 L1229.74 1362.95 L1228.61 1361.26 L1227.66 1359.57 L1226.84 1357.88 L1226.11 1356.2 L1225.43 1354.51 L1224.75 1352.82 L1224.04 1351.13 L1223.27 1349.44 L1222.4 1347.75 L1221.4 1346.07 L1220.23 1344.38 L1218.87 1342.69 L1217.28 1341 L1215.43 1339.31 L1213.29 1337.63 L1210.84 1335.94 L1208.03 1334.25 L1204.85 1332.56 L1201.27 1330.87 L1197.26 1329.18 L1192.81 1327.5 L1187.91 1325.81 L1182.54 1324.12 L661.776 1324.12 L656.406 1325.81 L651.502 1327.5 L647.054 1329.18 L643.048 1330.87 L639.466 1332.56 L636.284 1334.25 L633.479 1335.94 L631.022 1337.63 L628.884 1339.31 L627.036 1341 L625.447 1342.69 L624.085 1344.38 L622.919 1346.07 L621.917 1347.75 L621.047 1349.44 L620.275 1351.13 L619.568 1352.82 L618.89 1354.51 L618.204 1356.2 L617.471 1357.88 L616.651 1359.57 L615.701 1361.26 L614.577 1362.95 L613.232 1364.64 L611.621 1366.33 L609.696 1368.01 L607.411 1369.7 L604.723 1371.39 L601.593 1373.08 L597.984 1374.77 L593.869 1376.45 L589.226 1378.14 L584.045 1379.83 L578.324 1381.52 L572.075 1383.21 L565.321 1384.9 L558.099 1386.58 L550.458 1388.27 L542.461 1389.96 L534.183 1391.65 L525.709 1393.34 L517.135 1395.02 L508.563 1396.71 L500.103 1398.4 L491.867 1400.09 L483.969 1401.78 L476.519 1403.47 L469.624 1405.15 L463.386 1406.84 L457.895 1408.53 L453.232 1410.22 L449.465 1411.91 L446.648 1413.59 L444.819 1415.28 L444.002 1416.97 L444.206 1418.66 L445.424 1420.35 L447.638 1422.04 L450.816 1423.72 L454.913 1425.41 L459.878 1427.1 L465.653 1428.79 L472.174 1430.48 L479.373 1432.16 L487.183 1433.85 L495.538 1435.54 L504.373 1437.23 L513.628 1438.92 L523.248 1440.61 L533.183 1442.29 L543.389 1443.98 L553.829 1445.67 L564.47 1447.36 L575.287 1449.05 L586.257 1450.73 L597.363 1452.42 L608.588 1454.11 L1235.73 1454.11  Z" fill="#009af9" fill-rule="evenodd" fill-opacity="1"/>
<polyline clip-path="url(#clip891)" style="stroke:#000000; stroke-linecap:round; stroke-linejoin:round; stroke-width:4; stroke-opacity:1; fill:none" points="1235.73,1454.11 1246.95,1452.42 1258.06,1450.73 1269.03,1449.05 1279.84,1447.36 1290.49,1445.67 1300.93,1443.98 1311.13,1442.29 1321.07,1440.61 1330.69,1438.92 1339.94,1437.23 1348.78,1435.54 1357.13,1433.85 1364.94,1432.16 1372.14,1430.48 1378.66,1428.79 1384.44,1427.1 1389.4,1425.41 1393.5,1423.72 1396.68,1422.04 1398.89,1420.35 1400.11,1418.66 1400.31,1416.97 1399.5,1415.28 1397.67,1413.59 1394.85,1411.91 1391.08,1410.22 1386.42,1408.53 1380.93,1406.84 1374.69,1405.15 1367.8,1403.47 1360.35,1401.78 1352.45,1400.09 1344.21,1398.4 1335.75,1396.71 1327.18,1395.02 1318.61,1393.34 1310.13,1391.65 1301.85,1389.96 1293.86,1388.27 1286.22,1386.58 1278.99,1384.9 1272.24,1383.21 1265.99,1381.52 1260.27,1379.83 1255.09,1378.14 1250.45,1376.45 1246.33,1374.77 1242.72,1373.08 1239.59,1371.39 1236.9,1369.7 1234.62,1368.01 1232.69,1366.33 1231.08,1364.64 1229.74,1362.95 1228.61,1361.26 1227.66,1359.57 1226.84,1357.88 1226.11,1356.2 1225.43,1354.51 1224.75,1352.82 1224.04,1351.13 1223.27,1349.44 1222.4,1347.75 1221.4,1346.07 1220.23,1344.38 1218.87,1342.69 1217.28,1341 1215.43,1339.31 1213.29,1337.63 1210.84,1335.94 1208.03,1334.25 1204.85,1332.56 1201.27,1330.87 1197.26,1329.18 1192.81,1327.5 1187.91,1325.81 1182.54,1324.12 661.776,1324.12 656.406,1325.81 651.502,1327.5 647.054,1329.18 643.048,1330.87 639.466,1332.56 636.284,1334.25 633.479,1335.94 631.022,1337.63 628.884,1339.31 627.036,1341 625.447,1342.69 624.085,1344.38 622.919,1346.07 621.917,1347.75 621.047,1349.44 620.275,1351.13 619.568,1352.82 618.89,1354.51 618.204,1356.2 617.471,1357.88 616.651,1359.57 615.701,1361.26 614.577,1362.95 613.232,1364.64 611.621,1366.33 609.696,1368.01 607.411,1369.7 604.723,1371.39 601.593,1373.08 597.984,1374.77 593.869,1376.45 589.226,1378.14 584.045,1379.83 578.324,1381.52 572.075,1383.21 565.321,1384.9 558.099,1386.58 550.458,1388.27 542.461,1389.96 534.183,1391.65 525.709,1393.34 517.135,1395.02 508.563,1396.71 500.103,1398.4 491.867,1400.09 483.969,1401.78 476.519,1403.47 469.624,1405.15 463.386,1406.84 457.895,1408.53 453.232,1410.22 449.465,1411.91 446.648,1413.59 444.819,1415.28 444.002,1416.97 444.206,1418.66 445.424,1420.35 447.638,1422.04 450.816,1423.72 454.913,1425.41 459.878,1427.1 465.653,1428.79 472.174,1430.48 479.373,1432.16 487.183,1433.85 495.538,1435.54 504.373,1437.23 513.628,1438.92 523.248,1440.61 533.183,1442.29 543.389,1443.98 553.829,1445.67 564.47,1447.36 575.287,1449.05 586.257,1450.73 597.363,1452.42 608.588,1454.11 1235.73,1454.11 "/>
<path clip-path="url(#clip891)" d="M3027.93 244.182 L3036.55 242.207 L3044.12 240.233 L3050.65 238.259 L3056.19 236.285 L3060.78 234.311 L3064.51 232.336 L3067.44 230.362 L3069.68 228.388 L3071.32 226.414 L3072.46 224.44 L3073.19 222.465 L3073.61 220.491 L3073.81 218.517 L3073.86 216.543 L3073.83 214.569 L3073.76 212.595 L3073.68 210.62 L3073.62 208.646 L3073.56 206.672 L3073.47 204.698 L3073.33 202.724 L3073.07 200.749 L3072.63 198.775 L3071.92 196.801 L3070.86 194.827 L3069.35 192.853 L3067.29 190.879 L3064.61 188.904 L3061.19 186.93 L3056.98 184.956 L3051.89 182.982 L3045.88 181.008 L3038.91 179.033 L3030.96 177.059 L3022.02 175.085 L3012.14 173.111 L3001.33 171.137 L2989.66 169.162 L2977.22 167.188 L2964.09 165.214 L2950.39 163.24 L2936.25 161.266 L2921.79 159.292 L2907.16 157.317 L2892.51 155.343 L2877.98 153.369 L2863.72 151.395 L2849.87 149.421 L2836.57 147.446 L2823.96 145.472 L2812.13 143.498 L2801.2 141.524 L2791.25 139.55 L2782.36 137.575 L2774.58 135.601 L2767.94 133.627 L2762.46 131.653 L2758.15 129.679 L2754.98 127.705 L2752.92 125.73 L2751.92 123.756 L2751.92 121.782 L2752.82 119.808 L2754.54 117.834 L2756.98 115.859 L2760.02 113.885 L2763.55 111.911 L2767.43 109.937 L2771.54 107.963 L2775.76 105.988 L2779.96 104.014 L2784.01 102.04 L2787.8 100.066 L2791.22 98.0917 L2794.17 96.1176 L2796.56 94.1434 L2798.32 92.1692 L2799.38 90.195 L2799.69 88.2208 L2391.72 88.2208 L2392.03 90.195 L2393.09 92.1692 L2394.85 94.1434 L2397.24 96.1176 L2400.19 98.0917 L2403.61 100.066 L2407.4 102.04 L2411.45 104.014 L2415.65 105.988 L2419.87 107.963 L2423.98 109.937 L2427.86 111.911 L2431.39 113.885 L2434.43 115.859 L2436.86 117.834 L2438.59 119.808 L2439.49 121.782 L2439.49 123.756 L2438.49 125.73 L2436.43 127.705 L2433.26 129.679 L2428.95 131.653 L2423.47 133.627 L2416.83 135.601 L2409.05 137.575 L2400.15 139.55 L2390.21 141.524 L2379.28 143.498 L2367.45 145.472 L2354.83 147.446 L2341.54 149.421 L2327.69 151.395 L2313.43 153.369 L2298.9 155.343 L2284.25 157.317 L2269.62 159.292 L2255.16 161.266 L2241.01 163.24 L2227.32 165.214 L2214.19 167.188 L2201.75 169.162 L2190.08 171.137 L2179.27 173.111 L2169.38 175.085 L2160.45 177.059 L2152.5 179.033 L2145.53 181.008 L2139.52 182.982 L2134.43 184.956 L2130.22 186.93 L2126.8 188.904 L2124.11 190.879 L2122.06 192.853 L2120.55 194.827 L2119.49 196.801 L2118.78 198.775 L2118.34 200.749 L2118.08 202.724 L2117.93 204.698 L2117.85 206.672 L2117.79 208.646 L2117.72 210.62 L2117.65 212.595 L2117.58 214.569 L2117.55 216.543 L2117.6 218.517 L2117.8 220.491 L2118.22 222.465 L2118.95 224.44 L2120.09 226.414 L2121.73 228.388 L2123.96 230.362 L2126.9 232.336 L2130.63 234.311 L2135.22 236.285 L2140.76 238.259 L2147.29 240.233 L2154.86 242.207 L2163.48 244.182 L3027.93 244.182  Z" fill="#e26f46" fill-rule="evenodd" fill-opacity="1"/>
<polyline clip-path="url(#clip891)" style="stroke:#000000; stroke-linecap:round; stroke-linejoin:round; stroke-width:4; stroke-opacity:1; fill:none" points="3027.93,244.182 3036.55,242.207 3044.12,240.233 3050.65,238.259 3056.19,236.285 3060.78,234.311 3064.51,232.336 3067.44,230.362 3069.68,228.388 3071.32,226.414 3072.46,224.44 3073.19,222.465 3073.61,220.491 3073.81,218.517 3073.86,216.543 3073.83,214.569 3073.76,212.595 3073.68,210.62 3073.62,208.646 3073.56,206.672 3073.47,204.698 3073.33,202.724 3073.07,200.749 3072.63,198.775 3071.92,196.801 3070.86,194.827 3069.35,192.853 3067.29,190.879 3064.61,188.904 3061.19,186.93 3056.98,184.956 3051.89,182.982 3045.88,181.008 3038.91,179.033 3030.96,177.059 3022.02,175.085 3012.14,173.111 3001.33,171.137 2989.66,169.162 2977.22,167.188 2964.09,165.214 2950.39,163.24 2936.25,161.266 2921.79,159.292 2907.16,157.317 2892.51,155.343 2877.98,153.369 2863.72,151.395 2849.87,149.421 2836.57,147.446 2823.96,145.472 2812.13,143.498 2801.2,141.524 2791.25,139.55 2782.36,137.575 2774.58,135.601 2767.94,133.627 2762.46,131.653 2758.15,129.679 2754.98,127.705 2752.92,125.73 2751.92,123.756 2751.92,121.782 2752.82,119.808 2754.54,117.834 2756.98,115.859 2760.02,113.885 2763.55,111.911 2767.43,109.937 2771.54,107.963 2775.76,105.988 2779.96,104.014 2784.01,102.04 2787.8,100.066 2791.22,98.0917 2794.17,96.1176 2796.56,94.1434 2798.32,92.1692 2799.38,90.195 2799.69,88.2208 2391.72,88.2208 2392.03,90.195 2393.09,92.1692 2394.85,94.1434 2397.24,96.1176 2400.19,98.0917 2403.61,100.066 2407.4,102.04 2411.45,104.014 2415.65,105.988 2419.87,107.963 2423.98,109.937 2427.86,111.911 2431.39,113.885 2434.43,115.859 2436.86,117.834 2438.59,119.808 2439.49,121.782 2439.49,123.756 2438.49,125.73 2436.43,127.705 2433.26,129.679 2428.95,131.653 2423.47,133.627 2416.83,135.601 2409.05,137.575 2400.15,139.55 2390.21,141.524 2379.28,143.498 2367.45,145.472 2354.83,147.446 2341.54,149.421 2327.69,151.395 2313.43,153.369 2298.9,155.343 2284.25,157.317 2269.62,159.292 2255.16,161.266 2241.01,163.24 2227.32,165.214 2214.19,167.188 2201.75,169.162 2190.08,171.137 2179.27,173.111 2169.38,175.085 2160.45,177.059 2152.5,179.033 2145.53,181.008 2139.52,182.982 2134.43,184.956 2130.22,186.93 2126.8,188.904 2124.11,190.879 2122.06,192.853 2120.55,194.827 2119.49,196.801 2118.78,198.775 2118.34,200.749 2118.08,202.724 2117.93,204.698 2117.85,206.672 2117.79,208.646 2117.72,210.62 2117.65,212.595 2117.58,214.569 2117.55,216.543 2117.6,218.517 2117.8,220.491 2118.22,222.465 2118.95,224.44 2120.09,226.414 2121.73,228.388 2123.96,230.362 2126.9,232.336 2130.63,234.311 2135.22,236.285 2140.76,238.259 2147.29,240.233 2154.86,242.207 2163.48,244.182 3027.93,244.182 "/>
</svg>
