<?xml version="1.0" encoding="utf-8"?>
<svg xmlns="http://www.w3.org/2000/svg" xmlns:xlink="http://www.w3.org/1999/xlink" width="600" height="400" viewBox="0 0 2400 1600">
<defs>
  <clipPath id="clip190">
    <rect x="0" y="0" width="2400" height="1600"/>
  </clipPath>
</defs>
<path clip-path="url(#clip190)" d="M0 1600 L2400 1600 L2400 0 L0 0  Z" fill="#ffffff" fill-rule="evenodd" fill-opacity="1"/>
<defs>
  <clipPath id="clip191">
    <rect x="242" y="47" width="2111" height="1377"/>
  </clipPath>
</defs>
<path clip-path="url(#clip190)" d="M242.621 1423.18 L2352.76 1423.18 L2352.76 47.2441 L242.621 47.2441  Z" fill="#ffffff" fill-rule="evenodd" fill-opacity="1"/>
<polyline clip-path="url(#clip191)" style="stroke:#000000; stroke-linecap:round; stroke-linejoin:round; stroke-width:2; stroke-opacity:0.1; fill:none" points="285.613,1423.18 285.613,47.2441 "/>
<polyline clip-path="url(#clip191)" style="stroke:#000000; stroke-linecap:round; stroke-linejoin:round; stroke-width:2; stroke-opacity:0.1; fill:none" points="954.754,1423.18 954.754,47.2441 "/>
<polyline clip-path="url(#clip191)" style="stroke:#000000; stroke-linecap:round; stroke-linejoin:round; stroke-width:2; stroke-opacity:0.1; fill:none" points="1623.89,1423.18 1623.89,47.2441 "/>
<polyline clip-path="url(#clip191)" style="stroke:#000000; stroke-linecap:round; stroke-linejoin:round; stroke-width:2; stroke-opacity:0.1; fill:none" points="2293.04,1423.18 2293.04,47.2441 "/>
<polyline clip-path="url(#clip191)" style="stroke:#000000; stroke-linecap:round; stroke-linejoin:round; stroke-width:2; stroke-opacity:0.1; fill:none" points="242.621,1234.26 2352.76,1234.26 "/>
<polyline clip-path="url(#clip191)" style="stroke:#000000; stroke-linecap:round; stroke-linejoin:round; stroke-width:2; stroke-opacity:0.1; fill:none" points="242.621,977.385 2352.76,977.385 "/>
<polyline clip-path="url(#clip191)" style="stroke:#000000; stroke-linecap:round; stroke-linejoin:round; stroke-width:2; stroke-opacity:0.1; fill:none" points="242.621,720.509 2352.76,720.509 "/>
<polyline clip-path="url(#clip191)" style="stroke:#000000; stroke-linecap:round; stroke-linejoin:round; stroke-width:2; stroke-opacity:0.1; fill:none" points="242.621,463.632 2352.76,463.632 "/>
<polyline clip-path="url(#clip191)" style="stroke:#000000; stroke-linecap:round; stroke-linejoin:round; stroke-width:2; stroke-opacity:0.1; fill:none" points="242.621,206.755 2352.76,206.755 "/>
<polyline clip-path="url(#clip190)" style="stroke:#000000; stroke-linecap:round; stroke-linejoin:round; stroke-width:4; stroke-opacity:1; fill:none" points="242.621,1423.18 2352.76,1423.18 "/>
<polyline clip-path="url(#clip190)" style="stroke:#000000; stroke-linecap:round; stroke-linejoin:round; stroke-width:4; stroke-opacity:1; fill:none" points="285.613,1423.18 285.613,1404.28 "/>
<polyline clip-path="url(#clip190)" style="stroke:#000000; stroke-linecap:round; stroke-linejoin:round; stroke-width:4; stroke-opacity:1; fill:none" points="954.754,1423.18 954.754,1404.28 "/>
<polyline clip-path="url(#clip190)" style="stroke:#000000; stroke-linecap:round; stroke-linejoin:round; stroke-width:4; stroke-opacity:1; fill:none" points="1623.89,1423.18 1623.89,1404.28 "/>
<polyline clip-path="url(#clip190)" style="stroke:#000000; stroke-linecap:round; stroke-linejoin:round; stroke-width:4; stroke-opacity:1; fill:none" points="2293.04,1423.18 2293.04,1404.28 "/>
<path clip-path="url(#clip190)" d="M285.613 1454.1 Q282.002 1454.1 280.173 1457.66 Q278.368 1461.2 278.368 1468.33 Q278.368 1475.44 280.173 1479.01 Q282.002 1482.55 285.613 1482.55 Q289.247 1482.55 291.053 1479.01 Q292.882 1475.44 292.882 1468.33 Q292.882 1461.2 291.053 1457.66 Q289.247 1454.1 285.613 1454.1 M285.613 1450.39 Q291.423 1450.39 294.479 1455 Q297.557 1459.58 297.557 1468.33 Q297.557 1477.06 294.479 1481.67 Q291.423 1486.25 285.613 1486.25 Q279.803 1486.25 276.724 1481.67 Q273.669 1477.06 273.669 1468.33 Q273.669 1459.58 276.724 1455 Q279.803 1450.39 285.613 1450.39 Z" fill="#000000" fill-rule="nonzero" fill-opacity="1" /><path clip-path="url(#clip190)" d="M899.28 1481.64 L906.918 1481.64 L906.918 1455.28 L898.608 1456.95 L898.608 1452.69 L906.872 1451.02 L911.548 1451.02 L911.548 1481.64 L919.187 1481.64 L919.187 1485.58 L899.28 1485.58 L899.28 1481.64 Z" fill="#000000" fill-rule="nonzero" fill-opacity="1" /><path clip-path="url(#clip190)" d="M938.631 1454.1 Q935.02 1454.1 933.191 1457.66 Q931.386 1461.2 931.386 1468.33 Q931.386 1475.44 933.191 1479.01 Q935.02 1482.55 938.631 1482.55 Q942.265 1482.55 944.071 1479.01 Q945.9 1475.44 945.9 1468.33 Q945.9 1461.2 944.071 1457.66 Q942.265 1454.1 938.631 1454.1 M938.631 1450.39 Q944.441 1450.39 947.497 1455 Q950.576 1459.58 950.576 1468.33 Q950.576 1477.06 947.497 1481.67 Q944.441 1486.25 938.631 1486.25 Q932.821 1486.25 929.742 1481.67 Q926.687 1477.06 926.687 1468.33 Q926.687 1459.58 929.742 1455 Q932.821 1450.39 938.631 1450.39 Z" fill="#000000" fill-rule="nonzero" fill-opacity="1" /><path clip-path="url(#clip190)" d="M968.793 1454.1 Q965.182 1454.1 963.353 1457.66 Q961.548 1461.2 961.548 1468.33 Q961.548 1475.44 963.353 1479.01 Q965.182 1482.55 968.793 1482.55 Q972.427 1482.55 974.233 1479.01 Q976.061 1475.44 976.061 1468.33 Q976.061 1461.2 974.233 1457.66 Q972.427 1454.1 968.793 1454.1 M968.793 1450.39 Q974.603 1450.39 977.659 1455 Q980.737 1459.58 980.737 1468.33 Q980.737 1477.06 977.659 1481.67 Q974.603 1486.25 968.793 1486.25 Q962.983 1486.25 959.904 1481.67 Q956.849 1477.06 956.849 1468.33 Q956.849 1459.58 959.904 1455 Q962.983 1450.39 968.793 1450.39 Z" fill="#000000" fill-rule="nonzero" fill-opacity="1" /><path clip-path="url(#clip190)" d="M998.955 1454.1 Q995.344 1454.1 993.515 1457.66 Q991.71 1461.2 991.71 1468.33 Q991.71 1475.44 993.515 1479.01 Q995.344 1482.55 998.955 1482.55 Q1002.59 1482.55 1004.39 1479.01 Q1006.22 1475.44 1006.22 1468.33 Q1006.22 1461.2 1004.39 1457.66 Q1002.59 1454.1 998.955 1454.1 M998.955 1450.39 Q1004.77 1450.39 1007.82 1455 Q1010.9 1459.58 1010.9 1468.33 Q1010.9 1477.06 1007.82 1481.67 Q1004.77 1486.25 998.955 1486.25 Q993.145 1486.25 990.066 1481.67 Q987.011 1477.06 987.011 1468.33 Q987.011 1459.58 990.066 1455 Q993.145 1450.39 998.955 1450.39 Z" fill="#000000" fill-rule="nonzero" fill-opacity="1" /><path clip-path="url(#clip190)" d="M1572.51 1481.64 L1588.83 1481.64 L1588.83 1485.58 L1566.88 1485.58 L1566.88 1481.64 Q1569.54 1478.89 1574.13 1474.26 Q1578.73 1469.61 1579.91 1468.27 Q1582.16 1465.74 1583.04 1464.01 Q1583.94 1462.25 1583.94 1460.56 Q1583.94 1457.8 1582 1456.07 Q1580.08 1454.33 1576.97 1454.33 Q1574.77 1454.33 1572.32 1455.09 Q1569.89 1455.86 1567.11 1457.41 L1567.11 1452.69 Q1569.94 1451.55 1572.39 1450.97 Q1574.84 1450.39 1576.88 1450.39 Q1582.25 1450.39 1585.45 1453.08 Q1588.64 1455.77 1588.64 1460.26 Q1588.64 1462.39 1587.83 1464.31 Q1587.04 1466.2 1584.94 1468.8 Q1584.36 1469.47 1581.26 1472.69 Q1578.15 1475.88 1572.51 1481.64 Z" fill="#000000" fill-rule="nonzero" fill-opacity="1" /><path clip-path="url(#clip190)" d="M1608.64 1454.1 Q1605.03 1454.1 1603.2 1457.66 Q1601.39 1461.2 1601.39 1468.33 Q1601.39 1475.44 1603.2 1479.01 Q1605.03 1482.55 1608.64 1482.55 Q1612.27 1482.55 1614.08 1479.01 Q1615.91 1475.44 1615.91 1468.33 Q1615.91 1461.2 1614.08 1457.66 Q1612.27 1454.1 1608.64 1454.1 M1608.64 1450.39 Q1614.45 1450.39 1617.51 1455 Q1620.58 1459.58 1620.58 1468.33 Q1620.58 1477.06 1617.51 1481.67 Q1614.45 1486.25 1608.64 1486.25 Q1602.83 1486.25 1599.75 1481.67 Q1596.7 1477.06 1596.7 1468.33 Q1596.7 1459.58 1599.75 1455 Q1602.83 1450.39 1608.64 1450.39 Z" fill="#000000" fill-rule="nonzero" fill-opacity="1" /><path clip-path="url(#clip190)" d="M1638.8 1454.1 Q1635.19 1454.1 1633.36 1457.66 Q1631.56 1461.2 1631.56 1468.33 Q1631.56 1475.44 1633.36 1479.01 Q1635.19 1482.55 1638.8 1482.55 Q1642.44 1482.55 1644.24 1479.01 Q1646.07 1475.44 1646.07 1468.33 Q1646.07 1461.2 1644.24 1457.66 Q1642.44 1454.1 1638.8 1454.1 M1638.8 1450.39 Q1644.61 1450.39 1647.67 1455 Q1650.75 1459.58 1650.75 1468.33 Q1650.75 1477.06 1647.67 1481.67 Q1644.61 1486.25 1638.8 1486.25 Q1632.99 1486.25 1629.91 1481.67 Q1626.86 1477.06 1626.86 1468.33 Q1626.86 1459.58 1629.91 1455 Q1632.99 1450.39 1638.8 1450.39 Z" fill="#000000" fill-rule="nonzero" fill-opacity="1" /><path clip-path="url(#clip190)" d="M1668.96 1454.1 Q1665.35 1454.1 1663.52 1457.66 Q1661.72 1461.2 1661.72 1468.33 Q1661.72 1475.44 1663.52 1479.01 Q1665.35 1482.55 1668.96 1482.55 Q1672.6 1482.55 1674.4 1479.01 Q1676.23 1475.44 1676.23 1468.33 Q1676.23 1461.2 1674.4 1457.66 Q1672.6 1454.1 1668.96 1454.1 M1668.96 1450.39 Q1674.77 1450.39 1677.83 1455 Q1680.91 1459.58 1680.91 1468.33 Q1680.91 1477.06 1677.83 1481.67 Q1674.77 1486.25 1668.96 1486.25 Q1663.15 1486.25 1660.07 1481.67 Q1657.02 1477.06 1657.02 1468.33 Q1657.02 1459.58 1660.07 1455 Q1663.15 1450.39 1668.96 1450.39 Z" fill="#000000" fill-rule="nonzero" fill-opacity="1" /><path clip-path="url(#clip190)" d="M2251.72 1466.95 Q2255.07 1467.66 2256.95 1469.93 Q2258.85 1472.2 2258.85 1475.53 Q2258.85 1480.65 2255.33 1483.45 Q2251.81 1486.25 2245.33 1486.25 Q2243.15 1486.25 2240.84 1485.81 Q2238.54 1485.39 2236.09 1484.54 L2236.09 1480.02 Q2238.04 1481.16 2240.35 1481.74 Q2242.66 1482.32 2245.19 1482.32 Q2249.59 1482.32 2251.88 1480.58 Q2254.19 1478.84 2254.19 1475.53 Q2254.19 1472.48 2252.04 1470.77 Q2249.91 1469.03 2246.09 1469.03 L2242.06 1469.03 L2242.06 1465.19 L2246.28 1465.19 Q2249.73 1465.19 2251.55 1463.82 Q2253.38 1462.43 2253.38 1459.84 Q2253.38 1457.18 2251.48 1455.77 Q2249.61 1454.33 2246.09 1454.33 Q2244.17 1454.33 2241.97 1454.75 Q2239.77 1455.16 2237.13 1456.04 L2237.13 1451.88 Q2239.79 1451.14 2242.11 1450.77 Q2244.45 1450.39 2246.51 1450.39 Q2251.83 1450.39 2254.93 1452.83 Q2258.04 1455.23 2258.04 1459.35 Q2258.04 1462.22 2256.39 1464.21 Q2254.75 1466.18 2251.72 1466.95 Z" fill="#000000" fill-rule="nonzero" fill-opacity="1" /><path clip-path="url(#clip190)" d="M2277.71 1454.1 Q2274.1 1454.1 2272.27 1457.66 Q2270.47 1461.2 2270.47 1468.33 Q2270.47 1475.44 2272.27 1479.01 Q2274.1 1482.55 2277.71 1482.55 Q2281.35 1482.55 2283.15 1479.01 Q2284.98 1475.44 2284.98 1468.33 Q2284.98 1461.2 2283.15 1457.66 Q2281.35 1454.1 2277.71 1454.1 M2277.71 1450.39 Q2283.52 1450.39 2286.58 1455 Q2289.66 1459.58 2289.66 1468.33 Q2289.66 1477.06 2286.58 1481.67 Q2283.52 1486.25 2277.71 1486.25 Q2271.9 1486.25 2268.82 1481.67 Q2265.77 1477.06 2265.77 1468.33 Q2265.77 1459.58 2268.82 1455 Q2271.9 1450.39 2277.71 1450.39 Z" fill="#000000" fill-rule="nonzero" fill-opacity="1" /><path clip-path="url(#clip190)" d="M2307.87 1454.1 Q2304.26 1454.1 2302.43 1457.66 Q2300.63 1461.2 2300.63 1468.33 Q2300.63 1475.44 2302.43 1479.01 Q2304.26 1482.55 2307.87 1482.55 Q2311.51 1482.55 2313.31 1479.01 Q2315.14 1475.44 2315.14 1468.33 Q2315.14 1461.2 2313.31 1457.66 Q2311.51 1454.1 2307.87 1454.1 M2307.87 1450.39 Q2313.68 1450.39 2316.74 1455 Q2319.82 1459.58 2319.82 1468.33 Q2319.82 1477.06 2316.74 1481.67 Q2313.68 1486.25 2307.87 1486.25 Q2302.06 1486.25 2298.98 1481.67 Q2295.93 1477.06 2295.93 1468.33 Q2295.93 1459.58 2298.98 1455 Q2302.06 1450.39 2307.87 1450.39 Z" fill="#000000" fill-rule="nonzero" fill-opacity="1" /><path clip-path="url(#clip190)" d="M2338.03 1454.1 Q2334.42 1454.1 2332.6 1457.66 Q2330.79 1461.2 2330.79 1468.33 Q2330.79 1475.44 2332.6 1479.01 Q2334.42 1482.55 2338.03 1482.55 Q2341.67 1482.55 2343.47 1479.01 Q2345.3 1475.44 2345.3 1468.33 Q2345.3 1461.2 2343.47 1457.66 Q2341.67 1454.1 2338.03 1454.1 M2338.03 1450.39 Q2343.85 1450.39 2346.9 1455 Q2349.98 1459.58 2349.98 1468.33 Q2349.98 1477.06 2346.9 1481.67 Q2343.85 1486.25 2338.03 1486.25 Q2332.22 1486.25 2329.15 1481.67 Q2326.09 1477.06 2326.09 1468.33 Q2326.09 1459.58 2329.15 1455 Q2332.22 1450.39 2338.03 1450.39 Z" fill="#000000" fill-rule="nonzero" fill-opacity="1" /><path clip-path="url(#clip190)" d="M1294.76 1518.52 L1300.62 1518.52 L1300.62 1568.04 L1294.76 1568.04 L1294.76 1518.52 Z" fill="#000000" fill-rule="nonzero" fill-opacity="1" /><polyline clip-path="url(#clip190)" style="stroke:#000000; stroke-linecap:round; stroke-linejoin:round; stroke-width:4; stroke-opacity:1; fill:none" points="242.621,1423.18 242.621,47.2441 "/>
<polyline clip-path="url(#clip190)" style="stroke:#000000; stroke-linecap:round; stroke-linejoin:round; stroke-width:4; stroke-opacity:1; fill:none" points="242.621,1234.26 261.518,1234.26 "/>
<polyline clip-path="url(#clip190)" style="stroke:#000000; stroke-linecap:round; stroke-linejoin:round; stroke-width:4; stroke-opacity:1; fill:none" points="242.621,977.385 261.518,977.385 "/>
<polyline clip-path="url(#clip190)" style="stroke:#000000; stroke-linecap:round; stroke-linejoin:round; stroke-width:4; stroke-opacity:1; fill:none" points="242.621,720.509 261.518,720.509 "/>
<polyline clip-path="url(#clip190)" style="stroke:#000000; stroke-linecap:round; stroke-linejoin:round; stroke-width:4; stroke-opacity:1; fill:none" points="242.621,463.632 261.518,463.632 "/>
<polyline clip-path="url(#clip190)" style="stroke:#000000; stroke-linecap:round; stroke-linejoin:round; stroke-width:4; stroke-opacity:1; fill:none" points="242.621,206.755 261.518,206.755 "/>
<path clip-path="url(#clip190)" d="M114.839 1234.71 L144.515 1234.71 L144.515 1238.65 L114.839 1238.65 L114.839 1234.71 Z" fill="#000000" fill-rule="nonzero" fill-opacity="1" /><path clip-path="url(#clip190)" d="M155.417 1247.61 L163.056 1247.61 L163.056 1221.24 L154.746 1222.91 L154.746 1218.65 L163.01 1216.98 L167.686 1216.98 L167.686 1247.61 L175.325 1247.61 L175.325 1251.54 L155.417 1251.54 L155.417 1247.61 Z" fill="#000000" fill-rule="nonzero" fill-opacity="1" /><path clip-path="url(#clip190)" d="M194.769 1235.13 Q191.436 1235.13 189.514 1236.91 Q187.616 1238.69 187.616 1241.82 Q187.616 1244.94 189.514 1246.73 Q191.436 1248.51 194.769 1248.51 Q198.102 1248.51 200.024 1246.73 Q201.945 1244.92 201.945 1241.82 Q201.945 1238.69 200.024 1236.91 Q198.125 1235.13 194.769 1235.13 M190.093 1233.14 Q187.084 1232.4 185.394 1230.34 Q183.727 1228.28 183.727 1225.32 Q183.727 1221.17 186.667 1218.76 Q189.63 1216.36 194.769 1216.36 Q199.931 1216.36 202.871 1218.76 Q205.811 1221.17 205.811 1225.32 Q205.811 1228.28 204.121 1230.34 Q202.454 1232.4 199.468 1233.14 Q202.848 1233.93 204.723 1236.22 Q206.621 1238.51 206.621 1241.82 Q206.621 1246.84 203.542 1249.53 Q200.487 1252.21 194.769 1252.21 Q189.051 1252.21 185.973 1249.53 Q182.917 1246.84 182.917 1241.82 Q182.917 1238.51 184.815 1236.22 Q186.713 1233.93 190.093 1233.14 M188.38 1225.76 Q188.38 1228.44 190.047 1229.95 Q191.737 1231.45 194.769 1231.45 Q197.778 1231.45 199.468 1229.95 Q201.181 1228.44 201.181 1225.76 Q201.181 1223.07 199.468 1221.57 Q197.778 1220.06 194.769 1220.06 Q191.737 1220.06 190.047 1221.57 Q188.38 1223.07 188.38 1225.76 Z" fill="#000000" fill-rule="nonzero" fill-opacity="1" /><path clip-path="url(#clip190)" d="M114.584 977.837 L144.26 977.837 L144.26 981.772 L114.584 981.772 L114.584 977.837 Z" fill="#000000" fill-rule="nonzero" fill-opacity="1" /><path clip-path="url(#clip190)" d="M155.163 990.73 L162.802 990.73 L162.802 964.365 L154.491 966.031 L154.491 961.772 L162.755 960.105 L167.431 960.105 L167.431 990.73 L175.07 990.73 L175.07 994.665 L155.163 994.665 L155.163 990.73 Z" fill="#000000" fill-rule="nonzero" fill-opacity="1" /><path clip-path="url(#clip190)" d="M195.093 975.522 Q191.945 975.522 190.093 977.675 Q188.264 979.827 188.264 983.577 Q188.264 987.304 190.093 989.48 Q191.945 991.633 195.093 991.633 Q198.241 991.633 200.07 989.48 Q201.922 987.304 201.922 983.577 Q201.922 979.827 200.07 977.675 Q198.241 975.522 195.093 975.522 M204.375 960.869 L204.375 965.128 Q202.616 964.295 200.811 963.855 Q199.028 963.415 197.269 963.415 Q192.639 963.415 190.186 966.54 Q187.755 969.665 187.408 975.985 Q188.774 973.971 190.834 972.906 Q192.894 971.818 195.371 971.818 Q200.579 971.818 203.588 974.989 Q206.621 978.138 206.621 983.577 Q206.621 988.901 203.473 992.119 Q200.325 995.337 195.093 995.337 Q189.098 995.337 185.926 990.753 Q182.755 986.147 182.755 977.42 Q182.755 969.226 186.644 964.365 Q190.533 959.48 197.084 959.48 Q198.843 959.48 200.625 959.828 Q202.431 960.175 204.375 960.869 Z" fill="#000000" fill-rule="nonzero" fill-opacity="1" /><path clip-path="url(#clip190)" d="M114.26 720.96 L143.936 720.96 L143.936 724.895 L114.26 724.895 L114.26 720.96 Z" fill="#000000" fill-rule="nonzero" fill-opacity="1" /><path clip-path="url(#clip190)" d="M154.839 733.853 L162.477 733.853 L162.477 707.488 L154.167 709.154 L154.167 704.895 L162.431 703.229 L167.107 703.229 L167.107 733.853 L174.746 733.853 L174.746 737.789 L154.839 737.789 L154.839 733.853 Z" fill="#000000" fill-rule="nonzero" fill-opacity="1" /><path clip-path="url(#clip190)" d="M197.037 707.303 L185.232 725.752 L197.037 725.752 L197.037 707.303 M195.811 703.229 L201.69 703.229 L201.69 725.752 L206.621 725.752 L206.621 729.64 L201.69 729.64 L201.69 737.789 L197.037 737.789 L197.037 729.64 L181.436 729.64 L181.436 725.127 L195.811 703.229 Z" fill="#000000" fill-rule="nonzero" fill-opacity="1" /><path clip-path="url(#clip190)" d="M116.343 464.083 L146.019 464.083 L146.019 468.018 L116.343 468.018 L116.343 464.083 Z" fill="#000000" fill-rule="nonzero" fill-opacity="1" /><path clip-path="url(#clip190)" d="M156.922 476.977 L164.561 476.977 L164.561 450.611 L156.251 452.278 L156.251 448.018 L164.515 446.352 L169.19 446.352 L169.19 476.977 L176.829 476.977 L176.829 480.912 L156.922 480.912 L156.922 476.977 Z" fill="#000000" fill-rule="nonzero" fill-opacity="1" /><path clip-path="url(#clip190)" d="M190.301 476.977 L206.621 476.977 L206.621 480.912 L184.676 480.912 L184.676 476.977 Q187.338 474.222 191.922 469.592 Q196.528 464.94 197.709 463.597 Q199.954 461.074 200.834 459.338 Q201.737 457.579 201.737 455.889 Q201.737 453.134 199.792 451.398 Q197.871 449.662 194.769 449.662 Q192.57 449.662 190.116 450.426 Q187.686 451.19 184.908 452.741 L184.908 448.018 Q187.732 446.884 190.186 446.305 Q192.639 445.727 194.676 445.727 Q200.047 445.727 203.241 448.412 Q206.436 451.097 206.436 455.588 Q206.436 457.717 205.625 459.639 Q204.838 461.537 202.732 464.129 Q202.153 464.801 199.051 468.018 Q195.95 471.213 190.301 476.977 Z" fill="#000000" fill-rule="nonzero" fill-opacity="1" /><path clip-path="url(#clip190)" d="M114.746 207.206 L144.422 207.206 L144.422 211.142 L114.746 211.142 L114.746 207.206 Z" fill="#000000" fill-rule="nonzero" fill-opacity="1" /><path clip-path="url(#clip190)" d="M155.325 220.1 L162.964 220.1 L162.964 193.734 L154.653 195.401 L154.653 191.142 L162.917 189.475 L167.593 189.475 L167.593 220.1 L175.232 220.1 L175.232 224.035 L155.325 224.035 L155.325 220.1 Z" fill="#000000" fill-rule="nonzero" fill-opacity="1" /><path clip-path="url(#clip190)" d="M194.676 192.554 Q191.065 192.554 189.237 196.118 Q187.431 199.66 187.431 206.79 Q187.431 213.896 189.237 217.461 Q191.065 221.003 194.676 221.003 Q198.311 221.003 200.116 217.461 Q201.945 213.896 201.945 206.79 Q201.945 199.66 200.116 196.118 Q198.311 192.554 194.676 192.554 M194.676 188.85 Q200.487 188.85 203.542 193.456 Q206.621 198.04 206.621 206.79 Q206.621 215.516 203.542 220.123 Q200.487 224.706 194.676 224.706 Q188.866 224.706 185.788 220.123 Q182.732 215.516 182.732 206.79 Q182.732 198.04 185.788 193.456 Q188.866 188.85 194.676 188.85 Z" fill="#000000" fill-rule="nonzero" fill-opacity="1" /><path clip-path="url(#clip190)" d="M14.479 815.022 L14.479 809.166 L64.0042 809.166 L64.0042 815.022 L14.479 815.022 Z" fill="#000000" fill-rule="nonzero" fill-opacity="1" /><path clip-path="url(#clip190)" d="M45.7664 773.454 Q39.4007 773.454 35.8996 776.096 Q32.3984 778.706 32.3984 783.448 Q32.3984 788.159 35.8996 790.801 Q39.4007 793.41 45.7664 793.41 Q52.1003 793.41 55.6014 790.801 Q59.1026 788.159 59.1026 783.448 Q59.1026 778.706 55.6014 776.096 Q52.1003 773.454 45.7664 773.454 M59.58 767.598 Q68.683 767.598 73.1071 771.64 Q77.5631 775.682 77.5631 784.021 Q77.5631 787.108 77.0857 789.846 Q76.6401 792.583 75.6852 795.161 L69.9879 795.161 Q71.3884 792.583 72.0568 790.068 Q72.7252 787.554 72.7252 784.944 Q72.7252 779.183 69.7015 776.319 Q66.7096 773.454 60.6303 773.454 L57.7339 773.454 Q60.885 775.268 62.4446 778.101 Q64.0042 780.934 64.0042 784.88 Q64.0042 791.437 59.0071 795.447 Q54.01 799.458 45.7664 799.458 Q37.491 799.458 32.4939 795.447 Q27.4968 791.437 27.4968 784.88 Q27.4968 780.934 29.0564 778.101 Q30.616 775.268 33.7671 773.454 L28.3562 773.454 L28.3562 767.598 L59.58 767.598 Z" fill="#000000" fill-rule="nonzero" fill-opacity="1" /><path clip-path="url(#clip190)" d="M14.5426 741.466 Q21.8632 745.731 29.0246 747.8 Q36.186 749.869 43.5384 749.869 Q50.8908 749.869 58.1159 747.8 Q65.3091 745.699 72.5979 741.466 L72.5979 746.559 Q65.1182 751.333 57.8931 753.72 Q50.668 756.076 43.5384 756.076 Q36.4406 756.076 29.2474 753.72 Q22.0542 751.365 14.5426 746.559 L14.5426 741.466 Z" fill="#000000" fill-rule="nonzero" fill-opacity="1" /><path clip-path="url(#clip190)" d="M21.7677 723.419 L58.7206 723.419 L58.7206 715.653 Q58.7206 705.818 54.2646 701.267 Q49.8086 696.684 40.1964 696.684 Q30.6479 696.684 26.2237 701.267 Q21.7677 705.818 21.7677 715.653 L21.7677 723.419 M16.4842 729.849 L16.4842 716.64 Q16.4842 702.826 22.2451 696.365 Q27.9743 689.904 40.1964 689.904 Q52.4822 689.904 58.2432 696.397 Q64.0042 702.89 64.0042 716.64 L64.0042 729.849 L16.4842 729.849 Z" fill="#000000" fill-rule="nonzero" fill-opacity="1" /><path clip-path="url(#clip190)" d="M36.2815 682.17 L36.2815 678.478 L64.0042 678.478 L64.0042 682.17 L36.2815 682.17 Z" fill="#000000" fill-rule="nonzero" fill-opacity="1" /><path clip-path="url(#clip190)" d="M14.5426 670.011 L14.5426 664.919 Q22.0542 660.144 29.2474 657.789 Q36.4406 655.402 43.5384 655.402 Q50.668 655.402 57.8931 657.789 Q65.1182 660.144 72.5979 664.919 L72.5979 670.011 Q65.3091 665.778 58.1159 663.709 Q50.8908 661.608 43.5384 661.608 Q36.186 661.608 29.0246 663.709 Q21.8632 665.778 14.5426 670.011 Z" fill="#000000" fill-rule="nonzero" fill-opacity="1" /><polyline clip-path="url(#clip191)" style="stroke:#009af9; stroke-linecap:round; stroke-linejoin:round; stroke-width:4; stroke-opacity:1; fill:none" points="302.342,190.99 319.07,167.884 335.799,147.891 352.527,130.652 369.256,115.918 385.984,103.93 402.713,94.8724 419.441,88.9282 436.17,86.1857 452.898,86.6397 469.627,90.3166 486.355,97.1293 503.084,106.904 519.812,119.146 536.541,132.719 553.269,145.352 569.998,153.822 586.726,155.763 603.455,151.941 620.183,145.421 636.912,139.115 653.64,134.695 670.369,132.899 687.097,133.857 703.826,137.376 720.555,142.884 737.283,149.402 754.012,155.437 770.74,159.284 787.469,159.754 804.197,156.968 820.926,152.218 837.654,147.148 854.383,143.075 871.111,140.826 887.84,140.841 904.568,143.305 921.297,148.225 938.025,155.405 954.754,164.386 971.482,174.281 988.211,183.663 1004.94,190.717 1021.67,194.02 1038.4,193.486 1055.12,190.445 1071.85,186.684 1088.58,183.665 1105.31,182.28 1122.04,182.961 1138.77,185.806 1155.5,190.657 1172.22,197.093 1188.95,204.3 1205.68,211.148 1222.41,216.36 1239.14,218.898 1255.87,218.643 1272.6,216.399 1289.32,213.421 1306.05,210.871 1322.78,209.614 1339.51,210.097 1356.24,212.538 1372.97,216.966 1389.7,223.189 1406.42,230.752 1423.15,238.953 1439.88,246.735 1456.61,252.885 1473.34,256.514 1490.07,257.473 1506.79,256.472 1523.52,254.68 1540.25,253.176 1556.98,252.705 1573.71,253.741 1590.44,256.438 1607.17,260.705 1623.89,266.242 1640.62,272.541 1657.35,278.79 1674.08,284.11 1690.81,287.745 1707.54,289.368 1724.27,289.291 1740.99,288.289 1757.72,287.189 1774.45,286.757 1791.18,287.503 1807.91,289.686 1824.64,293.383 1841.37,298.519 1858.09,304.772 1874.82,311.654 1891.55,318.472 1908.28,324.419 1925.01,328.794 1941.74,331.33 1958.46,332.238 1975.19,332.158 1991.92,331.884 2008.65,332.075 2025.38,333.174 2042.11,335.456 2058.84,338.953 2075.56,343.496 2092.29,348.79 2109.02,354.341 2125.75,359.539 2142.48,363.826 2159.21,366.837 2175.94,368.51 2192.66,369.207 2209.39,369.457 2226.12,369.827 2242.85,370.807 2259.58,372.746 2276.31,375.775 2293.04,379.928 "/>
<polyline clip-path="url(#clip191)" style="stroke:#e26f46; stroke-linecap:round; stroke-linejoin:round; stroke-width:4; stroke-opacity:1; fill:none" points="302.342,837.523 319.07,705.855 335.799,637.327 352.527,597.736 369.256,576.85 385.984,571.188 402.713,578.362 419.441,592.765 436.17,588.111 452.898,548.361 469.627,503.245 486.355,466.44 503.084,438.425 519.812,417.862 536.541,403.667 553.269,395.187 569.998,392.079 586.726,394.319 603.455,402.071 620.183,415.557 636.912,434.349 653.64,454.775 670.369,465.102 687.097,454.008 703.826,430.476 720.555,407.367 737.283,389.184 754.012,376.552 770.74,369.201 787.469,366.835 804.197,369.302 820.926,376.579 837.654,388.649 854.383,405.006 871.111,423.316 887.84,436.842 904.568,436.372 921.297,422.273 938.025,403.844 954.754,387.477 971.482,375.287 988.211,367.636 1004.94,364.451 1021.67,365.595 1038.4,371.026 1055.12,380.718 1071.85,394.51 1088.58,411.555 1105.31,429.027 1122.04,440.631 1138.77,439.94 1155.5,428.638 1172.22,414.054 1188.95,401.196 1205.68,391.955 1222.41,386.764 1239.14,385.691 1255.87,388.668 1272.6,395.58 1289.32,406.266 1306.05,420.247 1322.78,435.971 1339.51,449.824 1356.24,456.373 1372.97,452.739 1389.7,442.307 1406.42,430.453 1423.15,420.456 1439.88,413.669 1456.61,410.523 1473.34,411.041 1490.07,415.189 1506.79,422.915 1523.52,434.018 1540.25,447.863 1556.98,462.949 1573.71,476.054 1590.44,482.746 1607.17,480.842 1623.89,472.899 1640.62,463.295 1657.35,455.103 1674.08,449.674 1690.81,447.49 1707.54,448.704 1724.27,453.306 1740.99,461.13 1757.72,471.849 1774.45,484.717 1791.18,497.983 1807.91,508.688 1824.64,513.541 1841.37,511.455 1858.09,504.804 1874.82,496.978 1891.55,490.35 1908.28,486.133 1925.01,484.855 1941.74,486.636 1958.46,491.465 1975.19,499.254 1991.92,509.662 2008.65,521.942 2025.38,534.627 2042.11,545.263 2058.84,551.067 2075.56,550.948 2092.29,546.418 2109.02,540.287 2125.75,534.862 2142.48,531.419 2159.21,530.512 2175.94,532.411 2192.66,537.125 2209.39,544.47 2226.12,554.068 2242.85,565.176 2259.58,576.338 2276.31,585.443 2293.04,590.41 "/>
<polyline clip-path="url(#clip191)" style="stroke:#3da44d; stroke-linecap:round; stroke-linejoin:round; stroke-width:4; stroke-opacity:1; fill:none" points="302.342,553.472 319.07,622.81 335.799,463.026 352.527,403.649 369.256,373.323 385.984,360.193 402.713,362.603 419.441,389.969 436.17,489.578 452.898,361.208 469.627,324.819 486.355,306.908 503.084,299.927 519.812,302.283 536.541,315.288 553.269,345.774 569.998,452.939 586.726,369.161 603.455,333.331 620.183,322.353 636.912,325.395 653.64,342.526 670.369,384.477 687.097,486.969 703.826,382.497 720.555,366.236 737.283,379.091 754.012,468.274 770.74,381.209 787.469,334.11 804.197,311.734 820.926,301.25 837.654,299.548 854.383,306.211 871.111,323.116 887.84,357.805 904.568,482.874 921.297,382.131 938.025,351.295 954.754,345.251 971.482,355.877 988.211,391.946 1004.94,483.55 1021.67,372.763 1038.4,342.99 1055.12,330.68 1071.85,328.631 1088.58,335.166 1105.31,350.975 1122.04,379.93 1138.77,439.043 1155.5,488.815 1172.22,434.733 1188.95,442.994 1205.68,591.149 1222.41,425.311 1239.14,381.977 1255.87,360.328 1272.6,349.625 1289.32,346.786 1306.05,350.96 1322.78,362.546 1339.51,383.504 1356.24,420.513 1372.97,516.73 1389.7,473.638 1406.42,447.239 1423.15,456.912 1439.88,527.154 1456.61,473.23 1473.34,422.756 1490.07,399.804 1506.79,388.842 1523.52,385.986 1540.25,389.811 1556.98,400.172 1573.71,417.8 1590.44,444.531 1607.17,484.182 1623.89,542.523 1640.62,582.659 1657.35,530.838 1674.08,482.955 1690.81,452.17 1707.54,432.842 1724.27,421.733 1740.99,417.115 1757.72,418.156 1774.45,424.764 1791.18,437.243 1807.91,456.6 1824.64,485.129 1841.37,527.694 1858.09,594.851 1874.82,660.699 1891.55,588.704 1908.28,533.138 1925.01,500.229 1941.74,480.179 1958.46,468.588 1975.19,463.532 1991.92,464.009 2008.65,469.525 2025.38,479.95 2042.11,495.363 2058.84,515.419 2075.56,538.391 2092.29,558.099 2109.02,563.493 2125.75,552.448 2142.48,535.486 2159.21,520.197 2175.94,509.205 2192.66,502.925 2209.39,501.167 2226.12,503.775 2242.85,510.803 2259.58,522.348 2276.31,538.574 2293.04,559.65 "/>
<polyline clip-path="url(#clip191)" style="stroke:#c271d2; stroke-linecap:round; stroke-linejoin:round; stroke-width:4; stroke-opacity:1; fill:none" points="302.342,172.993 319.07,252.464 335.799,306.016 352.527,347.746 369.256,382.34 385.984,411.988 402.713,437.923 419.441,460.936 436.17,481.587 452.898,500.297 469.627,517.4 486.355,533.163 503.084,547.804 519.812,561.498 536.541,574.388 553.269,586.586 569.998,598.182 586.726,609.248 603.455,619.84 620.183,630 636.912,639.763 653.64,649.156 670.369,658.202 687.097,666.918 703.826,675.322 720.555,683.429 737.283,691.253 754.012,698.81 770.74,706.114 787.469,713.18 804.197,720.024 820.926,726.66 837.654,733.103 854.383,739.367 871.111,745.464 887.84,751.406 904.568,757.205 921.297,762.869 938.025,768.407 954.754,773.826 971.482,779.131 988.211,784.329 1004.94,789.422 1021.67,794.415 1038.4,799.31 1055.12,804.111 1071.85,808.819 1088.58,813.436 1105.31,817.966 1122.04,822.409 1138.77,826.769 1155.5,831.048 1172.22,835.249 1188.95,839.374 1205.68,843.426 1222.41,847.408 1239.14,851.323 1255.87,855.174 1272.6,858.964 1289.32,862.694 1306.05,866.369 1322.78,869.989 1339.51,873.556 1356.24,877.074 1372.97,880.543 1389.7,883.965 1406.42,887.341 1423.15,890.672 1439.88,893.959 1456.61,897.204 1473.34,900.406 1490.07,903.567 1506.79,906.688 1523.52,909.769 1540.25,912.811 1556.98,915.814 1573.71,918.78 1590.44,921.71 1607.17,924.604 1623.89,927.463 1640.62,930.289 1657.35,933.081 1674.08,935.841 1690.81,938.57 1707.54,941.269 1724.27,943.938 1740.99,946.579 1757.72,949.192 1774.45,951.777 1791.18,954.336 1807.91,956.868 1824.64,959.376 1841.37,961.858 1858.09,964.315 1874.82,966.749 1891.55,969.159 1908.28,971.546 1925.01,973.91 1941.74,976.251 1958.46,978.57 1975.19,980.867 1991.92,983.143 2008.65,985.398 2025.38,987.632 2042.11,989.846 2058.84,992.04 2075.56,994.214 2092.29,996.37 2109.02,998.506 2125.75,1000.62 2142.48,1002.72 2159.21,1004.81 2175.94,1006.87 2192.66,1008.92 2209.39,1010.95 2226.12,1012.97 2242.85,1014.96 2259.58,1016.95 2276.31,1018.91 2293.04,1020.87 "/>
<polyline clip-path="url(#clip191)" style="stroke:#ac8d18; stroke-linecap:round; stroke-linejoin:round; stroke-width:4; stroke-opacity:1; fill:none" points="302.342,301.216 319.07,370.877 335.799,414.716 352.527,447.008 369.256,472.845 385.984,494.649 402.713,513.576 419.441,530.786 436.17,547.32 452.898,563.427 469.627,579.998 486.355,596.718 503.084,614.605 519.812,633.77 536.541,654.116 553.269,675.468 569.998,697.831 586.726,722.821 603.455,751.6 620.183,786.154 636.912,824.638 653.64,865.491 670.369,872.502 687.097,859.33 703.826,840.02 720.555,821.672 737.283,807.146 754.012,794.214 770.74,785.476 787.469,779.686 804.197,776.158 820.926,774.275 837.654,775.044 854.383,777.191 871.111,781.201 887.84,785.969 904.568,792.14 921.297,800.024 938.025,809.822 954.754,821.829 971.482,835.831 988.211,852.1 1004.94,870.841 1021.67,893.948 1038.4,922.299 1055.12,965.833 1071.85,1040.5 1088.58,1083.13 1105.31,1031.39 1122.04,1186.72 1138.77,1050.75 1155.5,1003.91 1172.22,967.139 1188.95,941.004 1205.68,926.739 1222.41,918.134 1239.14,911.417 1255.87,904.266 1272.6,900.679 1289.32,901.371 1306.05,903.109 1322.78,905.055 1339.51,908.089 1356.24,914.128 1372.97,921.788 1389.7,929.326 1406.42,938.242 1423.15,951.08 1439.88,966.584 1456.61,980.069 1473.34,993.836 1490.07,1013.67 1506.79,1039.87 1523.52,1054.58 1540.25,1054.95 1556.98,1059.63 1573.71,1060.47 1590.44,1047.76 1607.17,1030.57 1623.89,1020.96 1640.62,1015.43 1657.35,1007.42 1674.08,999.001 1690.81,994.582 1707.54,993.745 1724.27,992.83 1740.99,991.172 1757.72,991.707 1774.45,995.478 1791.18,999.812 1807.91,1003 1824.64,1007.95 1841.37,1015.89 1858.09,1024.62 1874.82,1031.66 1891.55,1039.94 1908.28,1050.79 1925.01,1061.27 1941.74,1069.21 1958.46,1075.12 1975.19,1082.61 1991.92,1087.62 2008.65,1085.76 2025.38,1081.8 2042.11,1080.89 2058.84,1079.07 2075.56,1072.97 2092.29,1067.95 2109.02,1066.38 2125.75,1065.97 2142.48,1063.25 2159.21,1060.36 2175.94,1060.73 2192.66,1063.41 2209.39,1064.83 2226.12,1065.23 2242.85,1067.84 2259.58,1073.22 2276.31,1078.06 2293.04,1081.3 "/>
<polyline clip-path="url(#clip191)" style="stroke:#00a9ad; stroke-linecap:round; stroke-linejoin:round; stroke-width:4; stroke-opacity:1; fill:none" points="302.342,737.355 319.07,874.285 335.799,814.643 352.527,795.523 369.256,797.997 385.984,818.052 402.713,842.65 419.441,884.861 436.17,962.704 452.898,867.388 469.627,839.075 486.355,824.69 503.084,817.444 519.812,814.423 536.541,814.872 553.269,816.889 569.998,820.925 586.726,827.395 603.455,836.588 620.183,849.103 636.912,866.227 653.64,889.895 670.369,928.238 687.097,1047.28 703.826,955.035 720.555,917.232 737.283,900.056 754.012,891.43 770.74,887.924 787.469,888.425 804.197,892.367 820.926,899.686 837.654,911.293 854.383,927.53 871.111,950.657 887.84,990.146 904.568,1140.01 921.297,1006.28 938.025,971.06 954.754,954.298 971.482,945.742 988.211,942.318 1004.94,942.906 1021.67,946.044 1038.4,951.793 1055.12,960.681 1071.85,972.983 1088.58,990.651 1105.31,1018.2 1122.04,1070.44 1138.77,1158.36 1155.5,1056.27 1172.22,1024.24 1188.95,1008.64 1205.68,1002.67 1222.41,1000.95 1239.14,1000.97 1255.87,1004.05 1272.6,1011.71 1289.32,1023.58 1306.05,1038.14 1322.78,1059.53 1339.51,1099.88 1356.24,1339.7 1372.97,1112.62 1389.7,1081.75 1406.42,1063.04 1423.15,1051.73 1439.88,1047.54 1456.61,1048.3 1473.34,1050.65 1490.07,1054.35 1506.79,1062.63 1523.52,1075.87 1540.25,1092.17 1556.98,1112.73 1573.71,1151.93 1590.44,1288.8 1607.17,1156.2 1623.89,1130.43 1640.62,1115.43 1657.35,1104.25 1674.08,1099.68 1690.81,1101.04 1707.54,1104.93 1724.27,1109.81 1740.99,1118.74 1757.72,1135.12 1774.45,1158.99 1791.18,1191.01 1807.91,1263.85 1824.64,1222.35 1841.37,1176.69 1858.09,1160.55 1874.82,1151.91 1891.55,1145.33 1908.28,1142.54 1925.01,1145.02 1941.74,1150.35 1958.46,1156.87 1975.19,1165.33 1991.92,1181.24 2008.65,1205.65 2025.38,1237.5 2042.11,1303.66 2058.84,1278.68 2075.56,1227.05 2092.29,1211.22 2109.02,1205.27 2125.75,1199.05 2142.48,1194.6 2159.21,1196.62 2175.94,1205.83 2192.66,1215.41 2209.39,1224.45 2226.12,1240.99 2242.85,1278.37 2259.58,1384.24 2276.31,1326.9 2293.04,1280.52 "/>
<path clip-path="url(#clip190)" d="M312.959 1377.32 L581.75 1377.32 L581.75 1014.44 L312.959 1014.44  Z" fill="#ffffff" fill-rule="evenodd" fill-opacity="1"/>
<polyline clip-path="url(#clip190)" style="stroke:#000000; stroke-linecap:round; stroke-linejoin:round; stroke-width:4; stroke-opacity:1; fill:none" points="312.959,1377.32 581.75,1377.32 581.75,1014.44 312.959,1014.44 312.959,1377.32 "/>
<polyline clip-path="url(#clip190)" style="stroke:#009af9; stroke-linecap:round; stroke-linejoin:round; stroke-width:4; stroke-opacity:1; fill:none" points="336.405,1066.28 477.08,1066.28 "/>
<path clip-path="url(#clip190)" d="M500.526 1049 L529.762 1049 L529.762 1052.93 L517.494 1052.93 L517.494 1083.56 L512.795 1083.56 L512.795 1052.93 L500.526 1052.93 L500.526 1049 Z" fill="#000000" fill-rule="nonzero" fill-opacity="1" /><path clip-path="url(#clip190)" d="M528.651 1049 L557.887 1049 L557.887 1052.93 L545.619 1052.93 L545.619 1083.56 L540.919 1083.56 L540.919 1052.93 L528.651 1052.93 L528.651 1049 Z" fill="#000000" fill-rule="nonzero" fill-opacity="1" /><polyline clip-path="url(#clip190)" style="stroke:#e26f46; stroke-linecap:round; stroke-linejoin:round; stroke-width:4; stroke-opacity:1; fill:none" points="336.405,1118.12 477.08,1118.12 "/>
<path clip-path="url(#clip190)" d="M500.526 1100.84 L522.378 1100.84 L522.378 1104.77 L505.202 1104.77 L505.202 1115 L521.66 1115 L521.66 1118.94 L505.202 1118.94 L505.202 1131.46 L522.795 1131.46 L522.795 1135.4 L500.526 1135.4 L500.526 1100.84 Z" fill="#000000" fill-rule="nonzero" fill-opacity="1" /><path clip-path="url(#clip190)" d="M530.48 1100.84 L552.331 1100.84 L552.331 1104.77 L535.156 1104.77 L535.156 1115 L551.614 1115 L551.614 1118.94 L535.156 1118.94 L535.156 1131.46 L552.748 1131.46 L552.748 1135.4 L530.48 1135.4 L530.48 1100.84 Z" fill="#000000" fill-rule="nonzero" fill-opacity="1" /><polyline clip-path="url(#clip190)" style="stroke:#3da44d; stroke-linecap:round; stroke-linejoin:round; stroke-width:4; stroke-opacity:1; fill:none" points="336.405,1169.96 477.08,1169.96 "/>
<path clip-path="url(#clip190)" d="M500.526 1152.68 L529.762 1152.68 L529.762 1156.61 L517.494 1156.61 L517.494 1187.24 L512.795 1187.24 L512.795 1156.61 L500.526 1156.61 L500.526 1152.68 Z" fill="#000000" fill-rule="nonzero" fill-opacity="1" /><path clip-path="url(#clip190)" d="M534.276 1152.68 L556.128 1152.68 L556.128 1156.61 L538.952 1156.61 L538.952 1166.84 L555.41 1166.84 L555.41 1170.78 L538.952 1170.78 L538.952 1183.3 L556.544 1183.3 L556.544 1187.24 L534.276 1187.24 L534.276 1152.68 Z" fill="#000000" fill-rule="nonzero" fill-opacity="1" /><polyline clip-path="url(#clip190)" style="stroke:#c271d2; stroke-linecap:round; stroke-linejoin:round; stroke-width:4; stroke-opacity:1; fill:none" points="336.405,1221.8 477.08,1221.8 "/>
<path clip-path="url(#clip190)" d="M511.383 1239.65 Q506.035 1238.8 503.559 1236.55 Q500.526 1233.8 500.526 1228.17 L500.526 1213.15 L504.832 1213.15 L504.832 1228.01 Q504.832 1232.25 506.799 1234.01 Q508.512 1235.53 511.383 1235.86 L511.383 1213.15 L515.619 1213.15 L515.619 1235.83 Q518.651 1235.51 520.202 1233.98 Q522.17 1232.04 522.17 1227.99 L522.17 1213.15 L526.475 1213.15 L526.475 1228.15 Q526.475 1233.98 523.443 1236.53 Q520.711 1238.82 515.619 1239.63 L515.619 1248.94 L511.383 1248.94 L511.383 1239.65 Z" fill="#000000" fill-rule="nonzero" fill-opacity="1" /><path clip-path="url(#clip190)" d="M542.656 1239.65 Q537.308 1238.8 534.832 1236.55 Q531.799 1233.8 531.799 1228.17 L531.799 1213.15 L536.105 1213.15 L536.105 1228.01 Q536.105 1232.25 538.072 1234.01 Q539.785 1235.53 542.656 1235.86 L542.656 1213.15 L546.892 1213.15 L546.892 1235.83 Q549.924 1235.51 551.475 1233.98 Q553.443 1232.04 553.443 1227.99 L553.443 1213.15 L557.748 1213.15 L557.748 1228.15 Q557.748 1233.98 554.716 1236.53 Q551.984 1238.82 546.892 1239.63 L546.892 1248.94 L542.656 1248.94 L542.656 1239.65 Z" fill="#000000" fill-rule="nonzero" fill-opacity="1" /><polyline clip-path="url(#clip190)" style="stroke:#ac8d18; stroke-linecap:round; stroke-linejoin:round; stroke-width:4; stroke-opacity:1; fill:none" points="336.405,1273.64 477.08,1273.64 "/>
<path clip-path="url(#clip190)" d="M511.383 1291.49 Q506.035 1290.64 503.559 1288.39 Q500.526 1285.64 500.526 1280.01 L500.526 1264.99 L504.832 1264.99 L504.832 1279.85 Q504.832 1284.09 506.799 1285.85 Q508.512 1287.37 511.383 1287.7 L511.383 1264.99 L515.619 1264.99 L515.619 1287.67 Q518.651 1287.35 520.202 1285.82 Q522.17 1283.88 522.17 1279.83 L522.17 1264.99 L526.475 1264.99 L526.475 1279.99 Q526.475 1285.82 523.443 1288.37 Q520.711 1290.66 515.619 1291.47 L515.619 1300.78 L511.383 1300.78 L511.383 1291.49 Z" fill="#000000" fill-rule="nonzero" fill-opacity="1" /><path clip-path="url(#clip190)" d="M529.068 1256.36 L558.304 1256.36 L558.304 1260.29 L546.035 1260.29 L546.035 1290.92 L541.336 1290.92 L541.336 1260.29 L529.068 1260.29 L529.068 1256.36 Z" fill="#000000" fill-rule="nonzero" fill-opacity="1" /><polyline clip-path="url(#clip190)" style="stroke:#00a9ad; stroke-linecap:round; stroke-linejoin:round; stroke-width:4; stroke-opacity:1; fill:none" points="336.405,1325.48 477.08,1325.48 "/>
<path clip-path="url(#clip190)" d="M511.383 1343.33 Q506.035 1342.48 503.559 1340.23 Q500.526 1337.48 500.526 1331.85 L500.526 1316.83 L504.832 1316.83 L504.832 1331.69 Q504.832 1335.93 506.799 1337.69 Q508.512 1339.21 511.383 1339.54 L511.383 1316.83 L515.619 1316.83 L515.619 1339.51 Q518.651 1339.19 520.202 1337.66 Q522.17 1335.72 522.17 1331.67 L522.17 1316.83 L526.475 1316.83 L526.475 1331.83 Q526.475 1337.66 523.443 1340.21 Q520.711 1342.5 515.619 1343.31 L515.619 1352.62 L511.383 1352.62 L511.383 1343.33 Z" fill="#000000" fill-rule="nonzero" fill-opacity="1" /><path clip-path="url(#clip190)" d="M533.859 1308.2 L555.711 1308.2 L555.711 1312.13 L538.535 1312.13 L538.535 1322.36 L554.993 1322.36 L554.993 1326.3 L538.535 1326.3 L538.535 1338.82 L556.128 1338.82 L556.128 1342.76 L533.859 1342.76 L533.859 1308.2 Z" fill="#000000" fill-rule="nonzero" fill-opacity="1" /></svg>
