<?xml version="1.0" encoding="utf-8"?>
<svg xmlns="http://www.w3.org/2000/svg" xmlns:xlink="http://www.w3.org/1999/xlink" width="800" height="400" viewBox="0 0 3200 1600">
<defs>
  <clipPath id="clip710">
    <rect x="0" y="0" width="3200" height="1600"/>
  </clipPath>
</defs>
<path clip-path="url(#clip710)" d="M0 1600 L3200 1600 L3200 0 L0 0  Z" fill="#ffffff" fill-rule="evenodd" fill-opacity="1"/>
<defs>
  <clipPath id="clip711">
    <rect x="365" y="47" width="2789" height="1449"/>
  </clipPath>
</defs>
<path clip-path="url(#clip710)" d="M365.106 1495.09 L3152.76 1495.09 L3152.76 47.2441 L365.106 47.2441  Z" fill="#ffffff" fill-rule="evenodd" fill-opacity="1"/>
<polyline clip-path="url(#clip711)" style="stroke:#000000; stroke-linecap:round; stroke-linejoin:round; stroke-width:2; stroke-opacity:0.1; fill:none" points="922.158,1495.09 922.158,47.2441 "/>
<polyline clip-path="url(#clip711)" style="stroke:#000000; stroke-linecap:round; stroke-linejoin:round; stroke-width:2; stroke-opacity:0.1; fill:none" points="2595.7,1495.09 2595.7,47.2441 "/>
<polyline clip-path="url(#clip711)" style="stroke:#000000; stroke-linecap:round; stroke-linejoin:round; stroke-width:2; stroke-opacity:0.1; fill:none" points="365.106,1332.46 3152.76,1332.46 "/>
<polyline clip-path="url(#clip711)" style="stroke:#000000; stroke-linecap:round; stroke-linejoin:round; stroke-width:2; stroke-opacity:0.1; fill:none" points="365.106,1142.32 3152.76,1142.32 "/>
<polyline clip-path="url(#clip711)" style="stroke:#000000; stroke-linecap:round; stroke-linejoin:round; stroke-width:2; stroke-opacity:0.1; fill:none" points="365.106,952.188 3152.76,952.188 "/>
<polyline clip-path="url(#clip711)" style="stroke:#000000; stroke-linecap:round; stroke-linejoin:round; stroke-width:2; stroke-opacity:0.1; fill:none" points="365.106,762.054 3152.76,762.054 "/>
<polyline clip-path="url(#clip711)" style="stroke:#000000; stroke-linecap:round; stroke-linejoin:round; stroke-width:2; stroke-opacity:0.1; fill:none" points="365.106,571.92 3152.76,571.92 "/>
<polyline clip-path="url(#clip711)" style="stroke:#000000; stroke-linecap:round; stroke-linejoin:round; stroke-width:2; stroke-opacity:0.1; fill:none" points="365.106,381.786 3152.76,381.786 "/>
<polyline clip-path="url(#clip711)" style="stroke:#000000; stroke-linecap:round; stroke-linejoin:round; stroke-width:2; stroke-opacity:0.1; fill:none" points="365.106,191.653 3152.76,191.653 "/>
<polyline clip-path="url(#clip710)" style="stroke:#000000; stroke-linecap:round; stroke-linejoin:round; stroke-width:4; stroke-opacity:1; fill:none" points="365.106,1495.09 3152.76,1495.09 "/>
<polyline clip-path="url(#clip710)" style="stroke:#000000; stroke-linecap:round; stroke-linejoin:round; stroke-width:4; stroke-opacity:1; fill:none" points="922.158,1495.09 922.158,1476.19 "/>
<polyline clip-path="url(#clip710)" style="stroke:#000000; stroke-linecap:round; stroke-linejoin:round; stroke-width:4; stroke-opacity:1; fill:none" points="2595.7,1495.09 2595.7,1476.19 "/>
<path clip-path="url(#clip710)" d="M827.413 1533.4 L815.607 1551.85 L827.413 1551.85 L827.413 1533.4 M826.186 1529.33 L832.066 1529.33 L832.066 1551.85 L836.996 1551.85 L836.996 1555.74 L832.066 1555.74 L832.066 1563.89 L827.413 1563.89 L827.413 1555.74 L811.811 1555.74 L811.811 1551.23 L826.186 1529.33 Z" fill="#000000" fill-rule="nonzero" fill-opacity="1" /><path clip-path="url(#clip710)" d="M863.408 1530.6 L863.408 1537.96 L872.181 1537.96 L872.181 1541.27 L863.408 1541.27 L863.408 1555.35 Q863.408 1558.52 864.264 1559.42 Q865.144 1560.32 867.806 1560.32 L872.181 1560.32 L872.181 1563.89 L867.806 1563.89 Q862.876 1563.89 861.001 1562.06 Q859.126 1560.21 859.126 1555.35 L859.126 1541.27 L856.001 1541.27 L856.001 1537.96 L859.126 1537.96 L859.126 1530.6 L863.408 1530.6 Z" fill="#000000" fill-rule="nonzero" fill-opacity="1" /><path clip-path="url(#clip710)" d="M899.334 1548.24 L899.334 1563.89 L895.075 1563.89 L895.075 1548.38 Q895.075 1544.7 893.639 1542.87 Q892.204 1541.04 889.334 1541.04 Q885.885 1541.04 883.894 1543.24 Q881.903 1545.44 881.903 1549.24 L881.903 1563.89 L877.621 1563.89 L877.621 1527.87 L881.903 1527.87 L881.903 1541.99 Q883.431 1539.65 885.491 1538.49 Q887.575 1537.34 890.283 1537.34 Q894.75 1537.34 897.042 1540.11 Q899.334 1542.87 899.334 1548.24 Z" fill="#000000" fill-rule="nonzero" fill-opacity="1" /><path clip-path="url(#clip710)" d="M922.852 1541.94 Q922.135 1541.53 921.278 1541.34 Q920.445 1541.13 919.426 1541.13 Q915.815 1541.13 913.871 1543.49 Q911.949 1545.83 911.949 1550.23 L911.949 1563.89 L907.667 1563.89 L907.667 1537.96 L911.949 1537.96 L911.949 1541.99 Q913.292 1539.63 915.445 1538.49 Q917.598 1537.34 920.676 1537.34 Q921.116 1537.34 921.648 1537.41 Q922.181 1537.45 922.829 1537.57 L922.852 1541.94 Z" fill="#000000" fill-rule="nonzero" fill-opacity="1" /><path clip-path="url(#clip710)" d="M948.454 1549.86 L948.454 1551.94 L928.871 1551.94 Q929.148 1556.34 931.509 1558.66 Q933.894 1560.95 938.13 1560.95 Q940.584 1560.95 942.875 1560.35 Q945.19 1559.74 947.458 1558.54 L947.458 1562.57 Q945.167 1563.54 942.759 1564.05 Q940.352 1564.56 937.875 1564.56 Q931.672 1564.56 928.037 1560.95 Q924.426 1557.34 924.426 1551.18 Q924.426 1544.81 927.852 1541.09 Q931.301 1537.34 937.134 1537.34 Q942.366 1537.34 945.398 1540.72 Q948.454 1544.07 948.454 1549.86 M944.195 1548.61 Q944.148 1545.11 942.227 1543.03 Q940.329 1540.95 937.181 1540.95 Q933.616 1540.95 931.463 1542.96 Q929.334 1544.98 929.01 1548.63 L944.195 1548.61 Z" fill="#000000" fill-rule="nonzero" fill-opacity="1" /><path clip-path="url(#clip710)" d="M967.227 1550.86 Q962.065 1550.86 960.074 1552.04 Q958.083 1553.22 958.083 1556.06 Q958.083 1558.33 959.565 1559.67 Q961.07 1560.99 963.639 1560.99 Q967.181 1560.99 969.31 1558.49 Q971.463 1555.97 971.463 1551.8 L971.463 1550.86 L967.227 1550.86 M975.722 1549.1 L975.722 1563.89 L971.463 1563.89 L971.463 1559.95 Q970.005 1562.31 967.829 1563.45 Q965.653 1564.56 962.505 1564.56 Q958.523 1564.56 956.162 1562.34 Q953.824 1560.09 953.824 1556.34 Q953.824 1551.97 956.741 1549.74 Q959.681 1547.52 965.491 1547.52 L971.463 1547.52 L971.463 1547.11 Q971.463 1544.17 969.519 1542.57 Q967.597 1540.95 964.102 1540.95 Q961.88 1540.95 959.773 1541.48 Q957.667 1542.01 955.722 1543.08 L955.722 1539.14 Q958.06 1538.24 960.259 1537.8 Q962.458 1537.34 964.542 1537.34 Q970.167 1537.34 972.944 1540.25 Q975.722 1543.17 975.722 1549.1 Z" fill="#000000" fill-rule="nonzero" fill-opacity="1" /><path clip-path="url(#clip710)" d="M1001.56 1541.9 L1001.56 1527.87 L1005.81 1527.87 L1005.81 1563.89 L1001.56 1563.89 L1001.56 1560 Q1000.21 1562.31 998.153 1563.45 Q996.116 1564.56 993.245 1564.56 Q988.546 1564.56 985.583 1560.81 Q982.643 1557.06 982.643 1550.95 Q982.643 1544.84 985.583 1541.09 Q988.546 1537.34 993.245 1537.34 Q996.116 1537.34 998.153 1538.47 Q1000.21 1539.58 1001.56 1541.9 M987.042 1550.95 Q987.042 1555.65 988.963 1558.33 Q990.907 1560.99 994.287 1560.99 Q997.667 1560.99 999.611 1558.33 Q1001.56 1555.65 1001.56 1550.95 Q1001.56 1546.25 999.611 1543.59 Q997.667 1540.9 994.287 1540.9 Q990.907 1540.9 988.963 1543.59 Q987.042 1546.25 987.042 1550.95 Z" fill="#000000" fill-rule="nonzero" fill-opacity="1" /><path clip-path="url(#clip710)" d="M1031.12 1538.73 L1031.12 1542.75 Q1029.31 1541.83 1027.37 1541.36 Q1025.42 1540.9 1023.34 1540.9 Q1020.17 1540.9 1018.57 1541.87 Q1017 1542.85 1017 1544.79 Q1017 1546.27 1018.13 1547.13 Q1019.26 1547.96 1022.69 1548.73 L1024.15 1549.05 Q1028.68 1550.02 1030.58 1551.8 Q1032.5 1553.56 1032.5 1556.74 Q1032.5 1560.35 1029.63 1562.45 Q1026.79 1564.56 1021.79 1564.56 Q1019.7 1564.56 1017.43 1564.14 Q1015.19 1563.75 1012.69 1562.94 L1012.69 1558.54 Q1015.05 1559.77 1017.34 1560.39 Q1019.63 1560.99 1021.88 1560.99 Q1024.89 1560.99 1026.51 1559.98 Q1028.13 1558.93 1028.13 1557.06 Q1028.13 1555.32 1026.95 1554.4 Q1025.79 1553.47 1021.83 1552.61 L1020.35 1552.27 Q1016.39 1551.43 1014.63 1549.72 Q1012.87 1547.99 1012.87 1544.98 Q1012.87 1541.32 1015.47 1539.33 Q1018.06 1537.34 1022.83 1537.34 Q1025.19 1537.34 1027.27 1537.68 Q1029.36 1538.03 1031.12 1538.73 Z" fill="#000000" fill-rule="nonzero" fill-opacity="1" /><path clip-path="url(#clip710)" d="M2500.82 1559.95 L2508.46 1559.95 L2508.46 1533.59 L2500.15 1535.25 L2500.15 1530.99 L2508.41 1529.33 L2513.09 1529.33 L2513.09 1559.95 L2520.73 1559.95 L2520.73 1563.89 L2500.82 1563.89 L2500.82 1559.95 Z" fill="#000000" fill-rule="nonzero" fill-opacity="1" /><path clip-path="url(#clip710)" d="M2548.85 1530.6 L2548.85 1537.96 L2557.63 1537.96 L2557.63 1541.27 L2548.85 1541.27 L2548.85 1555.35 Q2548.85 1558.52 2549.71 1559.42 Q2550.59 1560.32 2553.25 1560.32 L2557.63 1560.32 L2557.63 1563.89 L2553.25 1563.89 Q2548.32 1563.89 2546.45 1562.06 Q2544.57 1560.21 2544.57 1555.35 L2544.57 1541.27 L2541.45 1541.27 L2541.45 1537.96 L2544.57 1537.96 L2544.57 1530.6 L2548.85 1530.6 Z" fill="#000000" fill-rule="nonzero" fill-opacity="1" /><path clip-path="url(#clip710)" d="M2584.78 1548.24 L2584.78 1563.89 L2580.52 1563.89 L2580.52 1548.38 Q2580.52 1544.7 2579.08 1542.87 Q2577.65 1541.04 2574.78 1541.04 Q2571.33 1541.04 2569.34 1543.24 Q2567.35 1545.44 2567.35 1549.24 L2567.35 1563.89 L2563.07 1563.89 L2563.07 1527.87 L2567.35 1527.87 L2567.35 1541.99 Q2568.88 1539.65 2570.94 1538.49 Q2573.02 1537.34 2575.73 1537.34 Q2580.19 1537.34 2582.49 1540.11 Q2584.78 1542.87 2584.78 1548.24 Z" fill="#000000" fill-rule="nonzero" fill-opacity="1" /><path clip-path="url(#clip710)" d="M2608.3 1541.94 Q2607.58 1541.53 2606.72 1541.34 Q2605.89 1541.13 2604.87 1541.13 Q2601.26 1541.13 2599.32 1543.49 Q2597.39 1545.83 2597.39 1550.23 L2597.39 1563.89 L2593.11 1563.89 L2593.11 1537.96 L2597.39 1537.96 L2597.39 1541.99 Q2598.74 1539.63 2600.89 1538.49 Q2603.04 1537.34 2606.12 1537.34 Q2606.56 1537.34 2607.09 1537.41 Q2607.63 1537.45 2608.27 1537.57 L2608.3 1541.94 Z" fill="#000000" fill-rule="nonzero" fill-opacity="1" /><path clip-path="url(#clip710)" d="M2633.9 1549.86 L2633.9 1551.94 L2614.32 1551.94 Q2614.59 1556.34 2616.95 1558.66 Q2619.34 1560.95 2623.57 1560.95 Q2626.03 1560.95 2628.32 1560.35 Q2630.63 1559.74 2632.9 1558.54 L2632.9 1562.57 Q2630.61 1563.54 2628.2 1564.05 Q2625.8 1564.56 2623.32 1564.56 Q2617.12 1564.56 2613.48 1560.95 Q2609.87 1557.34 2609.87 1551.18 Q2609.87 1544.81 2613.3 1541.09 Q2616.75 1537.34 2622.58 1537.34 Q2627.81 1537.34 2630.84 1540.72 Q2633.9 1544.07 2633.9 1549.86 M2629.64 1548.61 Q2629.59 1545.11 2627.67 1543.03 Q2625.77 1540.95 2622.63 1540.95 Q2619.06 1540.95 2616.91 1542.96 Q2614.78 1544.98 2614.45 1548.63 L2629.64 1548.61 Z" fill="#000000" fill-rule="nonzero" fill-opacity="1" /><path clip-path="url(#clip710)" d="M2652.67 1550.86 Q2647.51 1550.86 2645.52 1552.04 Q2643.53 1553.22 2643.53 1556.06 Q2643.53 1558.33 2645.01 1559.67 Q2646.51 1560.99 2649.08 1560.99 Q2652.63 1560.99 2654.75 1558.49 Q2656.91 1555.97 2656.91 1551.8 L2656.91 1550.86 L2652.67 1550.86 M2661.17 1549.1 L2661.17 1563.89 L2656.91 1563.89 L2656.91 1559.95 Q2655.45 1562.31 2653.27 1563.45 Q2651.1 1564.56 2647.95 1564.56 Q2643.97 1564.56 2641.61 1562.34 Q2639.27 1560.09 2639.27 1556.34 Q2639.27 1551.97 2642.19 1549.74 Q2645.13 1547.52 2650.94 1547.52 L2656.91 1547.52 L2656.91 1547.11 Q2656.91 1544.17 2654.96 1542.57 Q2653.04 1540.95 2649.55 1540.95 Q2647.32 1540.95 2645.22 1541.48 Q2643.11 1542.01 2641.17 1543.08 L2641.17 1539.14 Q2643.5 1538.24 2645.7 1537.8 Q2647.9 1537.34 2649.99 1537.34 Q2655.61 1537.34 2658.39 1540.25 Q2661.17 1543.17 2661.17 1549.1 Z" fill="#000000" fill-rule="nonzero" fill-opacity="1" /><path clip-path="url(#clip710)" d="M2687 1541.9 L2687 1527.87 L2691.26 1527.87 L2691.26 1563.89 L2687 1563.89 L2687 1560 Q2685.66 1562.31 2683.6 1563.45 Q2681.56 1564.56 2678.69 1564.56 Q2673.99 1564.56 2671.03 1560.81 Q2668.09 1557.06 2668.09 1550.95 Q2668.09 1544.84 2671.03 1541.09 Q2673.99 1537.34 2678.69 1537.34 Q2681.56 1537.34 2683.6 1538.47 Q2685.66 1539.58 2687 1541.9 M2672.49 1550.95 Q2672.49 1555.65 2674.41 1558.33 Q2676.35 1560.99 2679.73 1560.99 Q2683.11 1560.99 2685.06 1558.33 Q2687 1555.65 2687 1550.95 Q2687 1546.25 2685.06 1543.59 Q2683.11 1540.9 2679.73 1540.9 Q2676.35 1540.9 2674.41 1543.59 Q2672.49 1546.25 2672.49 1550.95 Z" fill="#000000" fill-rule="nonzero" fill-opacity="1" /><polyline clip-path="url(#clip710)" style="stroke:#000000; stroke-linecap:round; stroke-linejoin:round; stroke-width:4; stroke-opacity:1; fill:none" points="365.106,1495.09 365.106,47.2441 "/>
<polyline clip-path="url(#clip710)" style="stroke:#000000; stroke-linecap:round; stroke-linejoin:round; stroke-width:4; stroke-opacity:1; fill:none" points="365.106,1332.46 384.003,1332.46 "/>
<polyline clip-path="url(#clip710)" style="stroke:#000000; stroke-linecap:round; stroke-linejoin:round; stroke-width:4; stroke-opacity:1; fill:none" points="365.106,1142.32 384.003,1142.32 "/>
<polyline clip-path="url(#clip710)" style="stroke:#000000; stroke-linecap:round; stroke-linejoin:round; stroke-width:4; stroke-opacity:1; fill:none" points="365.106,952.188 384.003,952.188 "/>
<polyline clip-path="url(#clip710)" style="stroke:#000000; stroke-linecap:round; stroke-linejoin:round; stroke-width:4; stroke-opacity:1; fill:none" points="365.106,762.054 384.003,762.054 "/>
<polyline clip-path="url(#clip710)" style="stroke:#000000; stroke-linecap:round; stroke-linejoin:round; stroke-width:4; stroke-opacity:1; fill:none" points="365.106,571.92 384.003,571.92 "/>
<polyline clip-path="url(#clip710)" style="stroke:#000000; stroke-linecap:round; stroke-linejoin:round; stroke-width:4; stroke-opacity:1; fill:none" points="365.106,381.786 384.003,381.786 "/>
<polyline clip-path="url(#clip710)" style="stroke:#000000; stroke-linecap:round; stroke-linejoin:round; stroke-width:4; stroke-opacity:1; fill:none" points="365.106,191.653 384.003,191.653 "/>
<path clip-path="url(#clip710)" d="M100.51 1321.62 L118.866 1321.62 L118.866 1325.56 L104.792 1325.56 L104.792 1334.03 Q105.811 1333.68 106.829 1333.52 Q107.848 1333.34 108.866 1333.34 Q114.653 1333.34 118.033 1336.51 Q121.412 1339.68 121.412 1345.1 Q121.412 1350.67 117.94 1353.78 Q114.468 1356.85 108.149 1356.85 Q105.973 1356.85 103.704 1356.48 Q101.459 1356.11 99.0515 1355.37 L99.0515 1350.67 Q101.135 1351.81 103.357 1352.36 Q105.579 1352.92 108.056 1352.92 Q112.061 1352.92 114.399 1350.81 Q116.737 1348.71 116.737 1345.1 Q116.737 1341.48 114.399 1339.38 Q112.061 1337.27 108.056 1337.27 Q106.181 1337.27 104.306 1337.69 Q102.454 1338.1 100.51 1338.98 L100.51 1321.62 Z" fill="#000000" fill-rule="nonzero" fill-opacity="1" /><path clip-path="url(#clip710)" d="M130.625 1350.3 L135.51 1350.3 L135.51 1356.18 L130.625 1356.18 L130.625 1350.3 Z" fill="#000000" fill-rule="nonzero" fill-opacity="1" /><path clip-path="url(#clip710)" d="M155.695 1324.7 Q152.084 1324.7 150.255 1328.27 Q148.449 1331.81 148.449 1338.94 Q148.449 1346.04 150.255 1349.61 Q152.084 1353.15 155.695 1353.15 Q159.329 1353.15 161.134 1349.61 Q162.963 1346.04 162.963 1338.94 Q162.963 1331.81 161.134 1328.27 Q159.329 1324.7 155.695 1324.7 M155.695 1321 Q161.505 1321 164.56 1325.6 Q167.639 1330.19 167.639 1338.94 Q167.639 1347.66 164.56 1352.27 Q161.505 1356.85 155.695 1356.85 Q149.885 1356.85 146.806 1352.27 Q143.75 1347.66 143.75 1338.94 Q143.75 1330.19 146.806 1325.6 Q149.885 1321 155.695 1321 Z" fill="#000000" fill-rule="nonzero" fill-opacity="1" /><path clip-path="url(#clip710)" d="M185.857 1324.7 Q182.245 1324.7 180.417 1328.27 Q178.611 1331.81 178.611 1338.94 Q178.611 1346.04 180.417 1349.61 Q182.245 1353.15 185.857 1353.15 Q189.491 1353.15 191.296 1349.61 Q193.125 1346.04 193.125 1338.94 Q193.125 1331.81 191.296 1328.27 Q189.491 1324.7 185.857 1324.7 M185.857 1321 Q191.667 1321 194.722 1325.6 Q197.801 1330.19 197.801 1338.94 Q197.801 1347.66 194.722 1352.27 Q191.667 1356.85 185.857 1356.85 Q180.046 1356.85 176.968 1352.27 Q173.912 1347.66 173.912 1338.94 Q173.912 1330.19 176.968 1325.6 Q180.046 1321 185.857 1321 Z" fill="#000000" fill-rule="nonzero" fill-opacity="1" /><path clip-path="url(#clip710)" d="M234.19 1330.72 L223.611 1341.35 L234.19 1351.92 L231.435 1354.72 L220.81 1344.1 L210.185 1354.72 L207.454 1351.92 L218.009 1341.35 L207.454 1330.72 L210.185 1327.92 L220.81 1338.54 L231.435 1327.92 L234.19 1330.72 Z" fill="#000000" fill-rule="nonzero" fill-opacity="1" /><path clip-path="url(#clip710)" d="M246.551 1352.25 L254.19 1352.25 L254.19 1325.88 L245.879 1327.55 L245.879 1323.29 L254.143 1321.62 L258.819 1321.62 L258.819 1352.25 L266.458 1352.25 L266.458 1356.18 L246.551 1356.18 L246.551 1352.25 Z" fill="#000000" fill-rule="nonzero" fill-opacity="1" /><path clip-path="url(#clip710)" d="M285.902 1324.7 Q282.291 1324.7 280.463 1328.27 Q278.657 1331.81 278.657 1338.94 Q278.657 1346.04 280.463 1349.61 Q282.291 1353.15 285.902 1353.15 Q289.537 1353.15 291.342 1349.61 Q293.171 1346.04 293.171 1338.94 Q293.171 1331.81 291.342 1328.27 Q289.537 1324.7 285.902 1324.7 M285.902 1321 Q291.712 1321 294.768 1325.6 Q297.847 1330.19 297.847 1338.94 Q297.847 1347.66 294.768 1352.27 Q291.712 1356.85 285.902 1356.85 Q280.092 1356.85 277.013 1352.27 Q273.958 1347.66 273.958 1338.94 Q273.958 1330.19 277.013 1325.6 Q280.092 1321 285.902 1321 Z" fill="#000000" fill-rule="nonzero" fill-opacity="1" /><path clip-path="url(#clip710)" d="M307.476 1315.44 Q304.768 1315.44 303.207 1316.89 Q301.665 1318.33 301.665 1320.87 Q301.665 1323.41 303.207 1324.86 Q304.768 1326.31 307.476 1326.31 Q310.185 1326.31 311.746 1324.86 Q313.307 1323.39 313.307 1320.87 Q313.307 1318.33 311.746 1316.89 Q310.203 1315.44 307.476 1315.44 M303.677 1313.82 Q301.232 1313.22 299.859 1311.54 Q298.505 1309.87 298.505 1307.46 Q298.505 1304.1 300.894 1302.14 Q303.301 1300.19 307.476 1300.19 Q311.67 1300.19 314.059 1302.14 Q316.448 1304.1 316.448 1307.46 Q316.448 1309.87 315.075 1311.54 Q313.72 1313.22 311.294 1313.82 Q314.04 1314.46 315.564 1316.32 Q317.106 1318.18 317.106 1320.87 Q317.106 1324.95 314.604 1327.14 Q312.122 1329.32 307.476 1329.32 Q302.831 1329.32 300.329 1327.14 Q297.847 1324.95 297.847 1320.87 Q297.847 1318.18 299.389 1316.32 Q300.931 1314.46 303.677 1313.82 M302.285 1307.82 Q302.285 1310 303.639 1311.23 Q305.012 1312.45 307.476 1312.45 Q309.921 1312.45 311.294 1311.23 Q312.686 1310 312.686 1307.82 Q312.686 1305.64 311.294 1304.42 Q309.921 1303.19 307.476 1303.19 Q305.012 1303.19 303.639 1304.42 Q302.285 1305.64 302.285 1307.82 Z" fill="#000000" fill-rule="nonzero" fill-opacity="1" /><path clip-path="url(#clip710)" d="M111.042 1146.91 Q107.894 1146.91 106.042 1149.06 Q104.213 1151.21 104.213 1154.96 Q104.213 1158.69 106.042 1160.86 Q107.894 1163.02 111.042 1163.02 Q114.19 1163.02 116.019 1160.86 Q117.871 1158.69 117.871 1154.96 Q117.871 1151.21 116.019 1149.06 Q114.19 1146.91 111.042 1146.91 M120.324 1132.25 L120.324 1136.51 Q118.565 1135.68 116.76 1135.24 Q114.977 1134.8 113.218 1134.8 Q108.588 1134.8 106.135 1137.92 Q103.704 1141.05 103.357 1147.37 Q104.723 1145.36 106.783 1144.29 Q108.843 1143.2 111.32 1143.2 Q116.528 1143.2 119.537 1146.37 Q122.57 1149.52 122.57 1154.96 Q122.57 1160.29 119.422 1163.5 Q116.274 1166.72 111.042 1166.72 Q105.047 1166.72 101.876 1162.14 Q98.7042 1157.53 98.7042 1148.8 Q98.7042 1140.61 102.593 1135.75 Q106.482 1130.86 113.033 1130.86 Q114.792 1130.86 116.575 1131.21 Q118.38 1131.56 120.324 1132.25 Z" fill="#000000" fill-rule="nonzero" fill-opacity="1" /><path clip-path="url(#clip710)" d="M130.625 1160.17 L135.51 1160.17 L135.51 1166.05 L130.625 1166.05 L130.625 1160.17 Z" fill="#000000" fill-rule="nonzero" fill-opacity="1" /><path clip-path="url(#clip710)" d="M155.695 1134.57 Q152.084 1134.57 150.255 1138.13 Q148.449 1141.67 148.449 1148.8 Q148.449 1155.91 150.255 1159.48 Q152.084 1163.02 155.695 1163.02 Q159.329 1163.02 161.134 1159.48 Q162.963 1155.91 162.963 1148.8 Q162.963 1141.67 161.134 1138.13 Q159.329 1134.57 155.695 1134.57 M155.695 1130.86 Q161.505 1130.86 164.56 1135.47 Q167.639 1140.05 167.639 1148.8 Q167.639 1157.53 164.56 1162.14 Q161.505 1166.72 155.695 1166.72 Q149.885 1166.72 146.806 1162.14 Q143.75 1157.53 143.75 1148.8 Q143.75 1140.05 146.806 1135.47 Q149.885 1130.86 155.695 1130.86 Z" fill="#000000" fill-rule="nonzero" fill-opacity="1" /><path clip-path="url(#clip710)" d="M185.857 1134.57 Q182.245 1134.57 180.417 1138.13 Q178.611 1141.67 178.611 1148.8 Q178.611 1155.91 180.417 1159.48 Q182.245 1163.02 185.857 1163.02 Q189.491 1163.02 191.296 1159.48 Q193.125 1155.91 193.125 1148.8 Q193.125 1141.67 191.296 1138.13 Q189.491 1134.57 185.857 1134.57 M185.857 1130.86 Q191.667 1130.86 194.722 1135.47 Q197.801 1140.05 197.801 1148.8 Q197.801 1157.53 194.722 1162.14 Q191.667 1166.72 185.857 1166.72 Q180.046 1166.72 176.968 1162.14 Q173.912 1157.53 173.912 1148.8 Q173.912 1140.05 176.968 1135.47 Q180.046 1130.86 185.857 1130.86 Z" fill="#000000" fill-rule="nonzero" fill-opacity="1" /><path clip-path="url(#clip710)" d="M234.19 1140.59 L223.611 1151.21 L234.19 1161.79 L231.435 1164.59 L220.81 1153.97 L210.185 1164.59 L207.454 1161.79 L218.009 1151.21 L207.454 1140.59 L210.185 1137.79 L220.81 1148.41 L231.435 1137.79 L234.19 1140.59 Z" fill="#000000" fill-rule="nonzero" fill-opacity="1" /><path clip-path="url(#clip710)" d="M246.551 1162.11 L254.19 1162.11 L254.19 1135.75 L245.879 1137.42 L245.879 1133.16 L254.143 1131.49 L258.819 1131.49 L258.819 1162.11 L266.458 1162.11 L266.458 1166.05 L246.551 1166.05 L246.551 1162.11 Z" fill="#000000" fill-rule="nonzero" fill-opacity="1" /><path clip-path="url(#clip710)" d="M285.902 1134.57 Q282.291 1134.57 280.463 1138.13 Q278.657 1141.67 278.657 1148.8 Q278.657 1155.91 280.463 1159.48 Q282.291 1163.02 285.902 1163.02 Q289.537 1163.02 291.342 1159.48 Q293.171 1155.91 293.171 1148.8 Q293.171 1141.67 291.342 1138.13 Q289.537 1134.57 285.902 1134.57 M285.902 1130.86 Q291.712 1130.86 294.768 1135.47 Q297.847 1140.05 297.847 1148.8 Q297.847 1157.53 294.768 1162.14 Q291.712 1166.72 285.902 1166.72 Q280.092 1166.72 277.013 1162.14 Q273.958 1157.53 273.958 1148.8 Q273.958 1140.05 277.013 1135.47 Q280.092 1130.86 285.902 1130.86 Z" fill="#000000" fill-rule="nonzero" fill-opacity="1" /><path clip-path="url(#clip710)" d="M307.476 1125.3 Q304.768 1125.3 303.207 1126.75 Q301.665 1128.2 301.665 1130.74 Q301.665 1133.28 303.207 1134.73 Q304.768 1136.18 307.476 1136.18 Q310.185 1136.18 311.746 1134.73 Q313.307 1133.26 313.307 1130.74 Q313.307 1128.2 311.746 1126.75 Q310.203 1125.3 307.476 1125.3 M303.677 1123.69 Q301.232 1123.08 299.859 1121.41 Q298.505 1119.74 298.505 1117.33 Q298.505 1113.96 300.894 1112.01 Q303.301 1110.05 307.476 1110.05 Q311.67 1110.05 314.059 1112.01 Q316.448 1113.96 316.448 1117.33 Q316.448 1119.74 315.075 1121.41 Q313.72 1123.08 311.294 1123.69 Q314.04 1124.33 315.564 1126.19 Q317.106 1128.05 317.106 1130.74 Q317.106 1134.82 314.604 1137 Q312.122 1139.18 307.476 1139.18 Q302.831 1139.18 300.329 1137 Q297.847 1134.82 297.847 1130.74 Q297.847 1128.05 299.389 1126.19 Q300.931 1124.33 303.677 1123.69 M302.285 1117.69 Q302.285 1119.87 303.639 1121.09 Q305.012 1122.31 307.476 1122.31 Q309.921 1122.31 311.294 1121.09 Q312.686 1119.87 312.686 1117.69 Q312.686 1115.51 311.294 1114.28 Q309.921 1113.06 307.476 1113.06 Q305.012 1113.06 303.639 1114.28 Q302.285 1115.51 302.285 1117.69 Z" fill="#000000" fill-rule="nonzero" fill-opacity="1" /><path clip-path="url(#clip710)" d="M99.2829 941.356 L121.505 941.356 L121.505 943.346 L108.959 975.916 L104.075 975.916 L115.88 945.291 L99.2829 945.291 L99.2829 941.356 Z" fill="#000000" fill-rule="nonzero" fill-opacity="1" /><path clip-path="url(#clip710)" d="M130.625 970.036 L135.51 970.036 L135.51 975.916 L130.625 975.916 L130.625 970.036 Z" fill="#000000" fill-rule="nonzero" fill-opacity="1" /><path clip-path="url(#clip710)" d="M155.695 944.434 Q152.084 944.434 150.255 947.999 Q148.449 951.541 148.449 958.67 Q148.449 965.777 150.255 969.342 Q152.084 972.883 155.695 972.883 Q159.329 972.883 161.134 969.342 Q162.963 965.777 162.963 958.67 Q162.963 951.541 161.134 947.999 Q159.329 944.434 155.695 944.434 M155.695 940.731 Q161.505 940.731 164.56 945.337 Q167.639 949.92 167.639 958.67 Q167.639 967.397 164.56 972.004 Q161.505 976.587 155.695 976.587 Q149.885 976.587 146.806 972.004 Q143.75 967.397 143.75 958.67 Q143.75 949.92 146.806 945.337 Q149.885 940.731 155.695 940.731 Z" fill="#000000" fill-rule="nonzero" fill-opacity="1" /><path clip-path="url(#clip710)" d="M185.857 944.434 Q182.245 944.434 180.417 947.999 Q178.611 951.541 178.611 958.67 Q178.611 965.777 180.417 969.342 Q182.245 972.883 185.857 972.883 Q189.491 972.883 191.296 969.342 Q193.125 965.777 193.125 958.67 Q193.125 951.541 191.296 947.999 Q189.491 944.434 185.857 944.434 M185.857 940.731 Q191.667 940.731 194.722 945.337 Q197.801 949.92 197.801 958.67 Q197.801 967.397 194.722 972.004 Q191.667 976.587 185.857 976.587 Q180.046 976.587 176.968 972.004 Q173.912 967.397 173.912 958.67 Q173.912 949.92 176.968 945.337 Q180.046 940.731 185.857 940.731 Z" fill="#000000" fill-rule="nonzero" fill-opacity="1" /><path clip-path="url(#clip710)" d="M234.19 950.453 L223.611 961.078 L234.19 971.656 L231.435 974.457 L220.81 963.832 L210.185 974.457 L207.454 971.656 L218.009 961.078 L207.454 950.453 L210.185 947.652 L220.81 958.277 L231.435 947.652 L234.19 950.453 Z" fill="#000000" fill-rule="nonzero" fill-opacity="1" /><path clip-path="url(#clip710)" d="M246.551 971.98 L254.19 971.98 L254.19 945.615 L245.879 947.281 L245.879 943.022 L254.143 941.356 L258.819 941.356 L258.819 971.98 L266.458 971.98 L266.458 975.916 L246.551 975.916 L246.551 971.98 Z" fill="#000000" fill-rule="nonzero" fill-opacity="1" /><path clip-path="url(#clip710)" d="M285.902 944.434 Q282.291 944.434 280.463 947.999 Q278.657 951.541 278.657 958.67 Q278.657 965.777 280.463 969.342 Q282.291 972.883 285.902 972.883 Q289.537 972.883 291.342 969.342 Q293.171 965.777 293.171 958.67 Q293.171 951.541 291.342 947.999 Q289.537 944.434 285.902 944.434 M285.902 940.731 Q291.712 940.731 294.768 945.337 Q297.847 949.92 297.847 958.67 Q297.847 967.397 294.768 972.004 Q291.712 976.587 285.902 976.587 Q280.092 976.587 277.013 972.004 Q273.958 967.397 273.958 958.67 Q273.958 949.92 277.013 945.337 Q280.092 940.731 285.902 940.731 Z" fill="#000000" fill-rule="nonzero" fill-opacity="1" /><path clip-path="url(#clip710)" d="M307.476 935.17 Q304.768 935.17 303.207 936.619 Q301.665 938.067 301.665 940.606 Q301.665 943.145 303.207 944.593 Q304.768 946.041 307.476 946.041 Q310.185 946.041 311.746 944.593 Q313.307 943.126 313.307 940.606 Q313.307 938.067 311.746 936.619 Q310.203 935.17 307.476 935.17 M303.677 933.553 Q301.232 932.951 299.859 931.277 Q298.505 929.603 298.505 927.196 Q298.505 923.829 300.894 921.873 Q303.301 919.917 307.476 919.917 Q311.67 919.917 314.059 921.873 Q316.448 923.829 316.448 927.196 Q316.448 929.603 315.075 931.277 Q313.72 932.951 311.294 933.553 Q314.04 934.192 315.564 936.054 Q317.106 937.916 317.106 940.606 Q317.106 944.687 314.604 946.869 Q312.122 949.051 307.476 949.051 Q302.831 949.051 300.329 946.869 Q297.847 944.687 297.847 940.606 Q297.847 937.916 299.389 936.054 Q300.931 934.192 303.677 933.553 M302.285 927.553 Q302.285 929.735 303.639 930.957 Q305.012 932.18 307.476 932.18 Q309.921 932.18 311.294 930.957 Q312.686 929.735 312.686 927.553 Q312.686 925.372 311.294 924.149 Q309.921 922.927 307.476 922.927 Q305.012 922.927 303.639 924.149 Q302.285 925.372 302.285 927.553 Z" fill="#000000" fill-rule="nonzero" fill-opacity="1" /><path clip-path="url(#clip710)" d="M110.463 769.37 Q107.13 769.37 105.209 771.152 Q103.311 772.935 103.311 776.06 Q103.311 779.185 105.209 780.967 Q107.13 782.749 110.463 782.749 Q113.797 782.749 115.718 780.967 Q117.639 779.161 117.639 776.06 Q117.639 772.935 115.718 771.152 Q113.82 769.37 110.463 769.37 M105.788 767.379 Q102.778 766.638 101.088 764.578 Q99.4218 762.518 99.4218 759.555 Q99.4218 755.411 102.362 753.004 Q105.325 750.597 110.463 750.597 Q115.625 750.597 118.565 753.004 Q121.505 755.411 121.505 759.555 Q121.505 762.518 119.815 764.578 Q118.149 766.638 115.162 767.379 Q118.542 768.166 120.417 770.458 Q122.315 772.749 122.315 776.06 Q122.315 781.083 119.237 783.768 Q116.181 786.453 110.463 786.453 Q104.746 786.453 101.667 783.768 Q98.6116 781.083 98.6116 776.06 Q98.6116 772.749 100.51 770.458 Q102.408 768.166 105.788 767.379 M104.075 759.995 Q104.075 762.68 105.741 764.185 Q107.431 765.689 110.463 765.689 Q113.473 765.689 115.162 764.185 Q116.875 762.68 116.875 759.995 Q116.875 757.31 115.162 755.805 Q113.473 754.3 110.463 754.3 Q107.431 754.3 105.741 755.805 Q104.075 757.31 104.075 759.995 Z" fill="#000000" fill-rule="nonzero" fill-opacity="1" /><path clip-path="url(#clip710)" d="M130.625 779.902 L135.51 779.902 L135.51 785.782 L130.625 785.782 L130.625 779.902 Z" fill="#000000" fill-rule="nonzero" fill-opacity="1" /><path clip-path="url(#clip710)" d="M155.695 754.3 Q152.084 754.3 150.255 757.865 Q148.449 761.407 148.449 768.536 Q148.449 775.643 150.255 779.208 Q152.084 782.749 155.695 782.749 Q159.329 782.749 161.134 779.208 Q162.963 775.643 162.963 768.536 Q162.963 761.407 161.134 757.865 Q159.329 754.3 155.695 754.3 M155.695 750.597 Q161.505 750.597 164.56 755.203 Q167.639 759.786 167.639 768.536 Q167.639 777.263 164.56 781.87 Q161.505 786.453 155.695 786.453 Q149.885 786.453 146.806 781.87 Q143.75 777.263 143.75 768.536 Q143.75 759.786 146.806 755.203 Q149.885 750.597 155.695 750.597 Z" fill="#000000" fill-rule="nonzero" fill-opacity="1" /><path clip-path="url(#clip710)" d="M185.857 754.3 Q182.245 754.3 180.417 757.865 Q178.611 761.407 178.611 768.536 Q178.611 775.643 180.417 779.208 Q182.245 782.749 185.857 782.749 Q189.491 782.749 191.296 779.208 Q193.125 775.643 193.125 768.536 Q193.125 761.407 191.296 757.865 Q189.491 754.3 185.857 754.3 M185.857 750.597 Q191.667 750.597 194.722 755.203 Q197.801 759.786 197.801 768.536 Q197.801 777.263 194.722 781.87 Q191.667 786.453 185.857 786.453 Q180.046 786.453 176.968 781.87 Q173.912 777.263 173.912 768.536 Q173.912 759.786 176.968 755.203 Q180.046 750.597 185.857 750.597 Z" fill="#000000" fill-rule="nonzero" fill-opacity="1" /><path clip-path="url(#clip710)" d="M234.19 760.319 L223.611 770.944 L234.19 781.522 L231.435 784.323 L220.81 773.698 L210.185 784.323 L207.454 781.522 L218.009 770.944 L207.454 760.319 L210.185 757.518 L220.81 768.143 L231.435 757.518 L234.19 760.319 Z" fill="#000000" fill-rule="nonzero" fill-opacity="1" /><path clip-path="url(#clip710)" d="M246.551 781.847 L254.19 781.847 L254.19 755.481 L245.879 757.148 L245.879 752.888 L254.143 751.222 L258.819 751.222 L258.819 781.847 L266.458 781.847 L266.458 785.782 L246.551 785.782 L246.551 781.847 Z" fill="#000000" fill-rule="nonzero" fill-opacity="1" /><path clip-path="url(#clip710)" d="M285.902 754.3 Q282.291 754.3 280.463 757.865 Q278.657 761.407 278.657 768.536 Q278.657 775.643 280.463 779.208 Q282.291 782.749 285.902 782.749 Q289.537 782.749 291.342 779.208 Q293.171 775.643 293.171 768.536 Q293.171 761.407 291.342 757.865 Q289.537 754.3 285.902 754.3 M285.902 750.597 Q291.712 750.597 294.768 755.203 Q297.847 759.786 297.847 768.536 Q297.847 777.263 294.768 781.87 Q291.712 786.453 285.902 786.453 Q280.092 786.453 277.013 781.87 Q273.958 777.263 273.958 768.536 Q273.958 759.786 277.013 755.203 Q280.092 750.597 285.902 750.597 Z" fill="#000000" fill-rule="nonzero" fill-opacity="1" /><path clip-path="url(#clip710)" d="M307.476 745.037 Q304.768 745.037 303.207 746.485 Q301.665 747.933 301.665 750.472 Q301.665 753.011 303.207 754.459 Q304.768 755.907 307.476 755.907 Q310.185 755.907 311.746 754.459 Q313.307 752.992 313.307 750.472 Q313.307 747.933 311.746 746.485 Q310.203 745.037 307.476 745.037 M303.677 743.419 Q301.232 742.817 299.859 741.143 Q298.505 739.469 298.505 737.062 Q298.505 733.696 300.894 731.74 Q303.301 729.783 307.476 729.783 Q311.67 729.783 314.059 731.74 Q316.448 733.696 316.448 737.062 Q316.448 739.469 315.075 741.143 Q313.72 742.817 311.294 743.419 Q314.04 744.059 315.564 745.921 Q317.106 747.783 317.106 750.472 Q317.106 754.553 314.604 756.735 Q312.122 758.917 307.476 758.917 Q302.831 758.917 300.329 756.735 Q297.847 754.553 297.847 750.472 Q297.847 747.783 299.389 745.921 Q300.931 744.059 303.677 743.419 M302.285 737.419 Q302.285 739.601 303.639 740.824 Q305.012 742.046 307.476 742.046 Q309.921 742.046 311.294 740.824 Q312.686 739.601 312.686 737.419 Q312.686 735.238 311.294 734.015 Q309.921 732.793 307.476 732.793 Q305.012 732.793 303.639 734.015 Q302.285 735.238 302.285 737.419 Z" fill="#000000" fill-rule="nonzero" fill-opacity="1" /><path clip-path="url(#clip710)" d="M100.602 594.93 L100.602 590.671 Q102.362 591.504 104.167 591.944 Q105.973 592.384 107.709 592.384 Q112.338 592.384 114.769 589.282 Q117.223 586.157 117.57 579.815 Q116.227 581.805 114.167 582.87 Q112.107 583.935 109.607 583.935 Q104.422 583.935 101.389 580.81 Q98.3802 577.662 98.3802 572.222 Q98.3802 566.898 101.528 563.68 Q104.676 560.463 109.908 560.463 Q115.903 560.463 119.051 565.069 Q122.223 569.653 122.223 578.403 Q122.223 586.574 118.334 591.458 Q114.468 596.319 107.917 596.319 Q106.158 596.319 104.352 595.972 Q102.547 595.625 100.602 594.93 M109.908 580.278 Q113.056 580.278 114.885 578.125 Q116.737 575.972 116.737 572.222 Q116.737 568.495 114.885 566.342 Q113.056 564.167 109.908 564.167 Q106.76 564.167 104.908 566.342 Q103.079 568.495 103.079 572.222 Q103.079 575.972 104.908 578.125 Q106.76 580.278 109.908 580.278 Z" fill="#000000" fill-rule="nonzero" fill-opacity="1" /><path clip-path="url(#clip710)" d="M130.625 589.768 L135.51 589.768 L135.51 595.648 L130.625 595.648 L130.625 589.768 Z" fill="#000000" fill-rule="nonzero" fill-opacity="1" /><path clip-path="url(#clip710)" d="M155.695 564.167 Q152.084 564.167 150.255 567.731 Q148.449 571.273 148.449 578.403 Q148.449 585.509 150.255 589.074 Q152.084 592.615 155.695 592.615 Q159.329 592.615 161.134 589.074 Q162.963 585.509 162.963 578.403 Q162.963 571.273 161.134 567.731 Q159.329 564.167 155.695 564.167 M155.695 560.463 Q161.505 560.463 164.56 565.069 Q167.639 569.653 167.639 578.403 Q167.639 587.129 164.56 591.736 Q161.505 596.319 155.695 596.319 Q149.885 596.319 146.806 591.736 Q143.75 587.129 143.75 578.403 Q143.75 569.653 146.806 565.069 Q149.885 560.463 155.695 560.463 Z" fill="#000000" fill-rule="nonzero" fill-opacity="1" /><path clip-path="url(#clip710)" d="M185.857 564.167 Q182.245 564.167 180.417 567.731 Q178.611 571.273 178.611 578.403 Q178.611 585.509 180.417 589.074 Q182.245 592.615 185.857 592.615 Q189.491 592.615 191.296 589.074 Q193.125 585.509 193.125 578.403 Q193.125 571.273 191.296 567.731 Q189.491 564.167 185.857 564.167 M185.857 560.463 Q191.667 560.463 194.722 565.069 Q197.801 569.653 197.801 578.403 Q197.801 587.129 194.722 591.736 Q191.667 596.319 185.857 596.319 Q180.046 596.319 176.968 591.736 Q173.912 587.129 173.912 578.403 Q173.912 569.653 176.968 565.069 Q180.046 560.463 185.857 560.463 Z" fill="#000000" fill-rule="nonzero" fill-opacity="1" /><path clip-path="url(#clip710)" d="M234.19 570.185 L223.611 580.81 L234.19 591.389 L231.435 594.19 L220.81 583.565 L210.185 594.19 L207.454 591.389 L218.009 580.81 L207.454 570.185 L210.185 567.384 L220.81 578.009 L231.435 567.384 L234.19 570.185 Z" fill="#000000" fill-rule="nonzero" fill-opacity="1" /><path clip-path="url(#clip710)" d="M246.551 591.713 L254.19 591.713 L254.19 565.347 L245.879 567.014 L245.879 562.755 L254.143 561.088 L258.819 561.088 L258.819 591.713 L266.458 591.713 L266.458 595.648 L246.551 595.648 L246.551 591.713 Z" fill="#000000" fill-rule="nonzero" fill-opacity="1" /><path clip-path="url(#clip710)" d="M285.902 564.167 Q282.291 564.167 280.463 567.731 Q278.657 571.273 278.657 578.403 Q278.657 585.509 280.463 589.074 Q282.291 592.615 285.902 592.615 Q289.537 592.615 291.342 589.074 Q293.171 585.509 293.171 578.403 Q293.171 571.273 291.342 567.731 Q289.537 564.167 285.902 564.167 M285.902 560.463 Q291.712 560.463 294.768 565.069 Q297.847 569.653 297.847 578.403 Q297.847 587.129 294.768 591.736 Q291.712 596.319 285.902 596.319 Q280.092 596.319 277.013 591.736 Q273.958 587.129 273.958 578.403 Q273.958 569.653 277.013 565.069 Q280.092 560.463 285.902 560.463 Z" fill="#000000" fill-rule="nonzero" fill-opacity="1" /><path clip-path="url(#clip710)" d="M307.476 554.903 Q304.768 554.903 303.207 556.351 Q301.665 557.799 301.665 560.338 Q301.665 562.877 303.207 564.325 Q304.768 565.774 307.476 565.774 Q310.185 565.774 311.746 564.325 Q313.307 562.858 313.307 560.338 Q313.307 557.799 311.746 556.351 Q310.203 554.903 307.476 554.903 M303.677 553.285 Q301.232 552.683 299.859 551.01 Q298.505 549.336 298.505 546.928 Q298.505 543.562 300.894 541.606 Q303.301 539.65 307.476 539.65 Q311.67 539.65 314.059 541.606 Q316.448 543.562 316.448 546.928 Q316.448 549.336 315.075 551.01 Q313.72 552.683 311.294 553.285 Q314.04 553.925 315.564 555.787 Q317.106 557.649 317.106 560.338 Q317.106 564.419 314.604 566.601 Q312.122 568.783 307.476 568.783 Q302.831 568.783 300.329 566.601 Q297.847 564.419 297.847 560.338 Q297.847 557.649 299.389 555.787 Q300.931 553.925 303.677 553.285 M302.285 547.286 Q302.285 549.467 303.639 550.69 Q305.012 551.912 307.476 551.912 Q309.921 551.912 311.294 550.69 Q312.686 549.467 312.686 547.286 Q312.686 545.104 311.294 543.881 Q309.921 542.659 307.476 542.659 Q305.012 542.659 303.639 543.881 Q302.285 545.104 302.285 547.286 Z" fill="#000000" fill-rule="nonzero" fill-opacity="1" /><path clip-path="url(#clip710)" d="M101.161 401.579 L108.8 401.579 L108.8 375.213 L100.49 376.88 L100.49 372.621 L108.753 370.954 L113.429 370.954 L113.429 401.579 L121.068 401.579 L121.068 405.514 L101.161 405.514 L101.161 401.579 Z" fill="#000000" fill-rule="nonzero" fill-opacity="1" /><path clip-path="url(#clip710)" d="M130.513 399.634 L135.397 399.634 L135.397 405.514 L130.513 405.514 L130.513 399.634 Z" fill="#000000" fill-rule="nonzero" fill-opacity="1" /><path clip-path="url(#clip710)" d="M155.582 374.033 Q151.971 374.033 150.142 377.598 Q148.336 381.139 148.336 388.269 Q148.336 395.375 150.142 398.94 Q151.971 402.482 155.582 402.482 Q159.216 402.482 161.022 398.94 Q162.85 395.375 162.85 388.269 Q162.85 381.139 161.022 377.598 Q159.216 374.033 155.582 374.033 M155.582 370.329 Q161.392 370.329 164.448 374.935 Q167.526 379.519 167.526 388.269 Q167.526 396.996 164.448 401.602 Q161.392 406.185 155.582 406.185 Q149.772 406.185 146.693 401.602 Q143.637 396.996 143.637 388.269 Q143.637 379.519 146.693 374.935 Q149.772 370.329 155.582 370.329 Z" fill="#000000" fill-rule="nonzero" fill-opacity="1" /><path clip-path="url(#clip710)" d="M185.744 374.033 Q182.133 374.033 180.304 377.598 Q178.498 381.139 178.498 388.269 Q178.498 395.375 180.304 398.94 Q182.133 402.482 185.744 402.482 Q189.378 402.482 191.183 398.94 Q193.012 395.375 193.012 388.269 Q193.012 381.139 191.183 377.598 Q189.378 374.033 185.744 374.033 M185.744 370.329 Q191.554 370.329 194.609 374.935 Q197.688 379.519 197.688 388.269 Q197.688 396.996 194.609 401.602 Q191.554 406.185 185.744 406.185 Q179.934 406.185 176.855 401.602 Q173.799 396.996 173.799 388.269 Q173.799 379.519 176.855 374.935 Q179.934 370.329 185.744 370.329 Z" fill="#000000" fill-rule="nonzero" fill-opacity="1" /><path clip-path="url(#clip710)" d="M234.077 380.051 L223.498 390.676 L234.077 401.255 L231.322 404.056 L220.697 393.431 L210.072 404.056 L207.341 401.255 L217.896 390.676 L207.341 380.051 L210.072 377.25 L220.697 387.875 L231.322 377.25 L234.077 380.051 Z" fill="#000000" fill-rule="nonzero" fill-opacity="1" /><path clip-path="url(#clip710)" d="M246.438 401.579 L254.077 401.579 L254.077 375.213 L245.767 376.88 L245.767 372.621 L254.03 370.954 L258.706 370.954 L258.706 401.579 L266.345 401.579 L266.345 405.514 L246.438 405.514 L246.438 401.579 Z" fill="#000000" fill-rule="nonzero" fill-opacity="1" /><path clip-path="url(#clip710)" d="M285.789 374.033 Q282.178 374.033 280.35 377.598 Q278.544 381.139 278.544 388.269 Q278.544 395.375 280.35 398.94 Q282.178 402.482 285.789 402.482 Q289.424 402.482 291.229 398.94 Q293.058 395.375 293.058 388.269 Q293.058 381.139 291.229 377.598 Q289.424 374.033 285.789 374.033 M285.789 370.329 Q291.6 370.329 294.655 374.935 Q297.734 379.519 297.734 388.269 Q297.734 396.996 294.655 401.602 Q291.6 406.185 285.789 406.185 Q279.979 406.185 276.901 401.602 Q273.845 396.996 273.845 388.269 Q273.845 379.519 276.901 374.935 Q279.979 370.329 285.789 370.329 Z" fill="#000000" fill-rule="nonzero" fill-opacity="1" /><path clip-path="url(#clip710)" d="M299.539 377.521 L299.539 374.06 Q300.969 374.737 302.436 375.094 Q303.903 375.452 305.313 375.452 Q309.075 375.452 311.05 372.931 Q313.043 370.392 313.325 365.239 Q312.235 366.857 310.561 367.722 Q308.887 368.587 306.856 368.587 Q302.643 368.587 300.179 366.048 Q297.734 363.49 297.734 359.07 Q297.734 354.744 300.292 352.13 Q302.85 349.516 307.1 349.516 Q311.971 349.516 314.529 353.259 Q317.106 356.982 317.106 364.092 Q317.106 370.731 313.946 374.699 Q310.805 378.649 305.483 378.649 Q304.053 378.649 302.586 378.367 Q301.119 378.085 299.539 377.521 M307.1 365.615 Q309.658 365.615 311.144 363.866 Q312.648 362.117 312.648 359.07 Q312.648 356.042 311.144 354.293 Q309.658 352.525 307.1 352.525 Q304.542 352.525 303.038 354.293 Q301.552 356.042 301.552 359.07 Q301.552 362.117 303.038 363.866 Q304.542 365.615 307.1 365.615 Z" fill="#000000" fill-rule="nonzero" fill-opacity="1" /><path clip-path="url(#clip710)" d="M101.161 211.445 L108.8 211.445 L108.8 185.079 L100.49 186.746 L100.49 182.487 L108.753 180.82 L113.429 180.82 L113.429 211.445 L121.068 211.445 L121.068 215.38 L101.161 215.38 L101.161 211.445 Z" fill="#000000" fill-rule="nonzero" fill-opacity="1" /><path clip-path="url(#clip710)" d="M130.513 209.501 L135.397 209.501 L135.397 215.38 L130.513 215.38 L130.513 209.501 Z" fill="#000000" fill-rule="nonzero" fill-opacity="1" /><path clip-path="url(#clip710)" d="M146.392 211.445 L154.031 211.445 L154.031 185.079 L145.721 186.746 L145.721 182.487 L153.985 180.82 L158.661 180.82 L158.661 211.445 L166.299 211.445 L166.299 215.38 L146.392 215.38 L146.392 211.445 Z" fill="#000000" fill-rule="nonzero" fill-opacity="1" /><path clip-path="url(#clip710)" d="M185.744 183.899 Q182.133 183.899 180.304 187.464 Q178.498 191.005 178.498 198.135 Q178.498 205.241 180.304 208.806 Q182.133 212.348 185.744 212.348 Q189.378 212.348 191.183 208.806 Q193.012 205.241 193.012 198.135 Q193.012 191.005 191.183 187.464 Q189.378 183.899 185.744 183.899 M185.744 180.195 Q191.554 180.195 194.609 184.802 Q197.688 189.385 197.688 198.135 Q197.688 206.862 194.609 211.468 Q191.554 216.051 185.744 216.051 Q179.934 216.051 176.855 211.468 Q173.799 206.862 173.799 198.135 Q173.799 189.385 176.855 184.802 Q179.934 180.195 185.744 180.195 Z" fill="#000000" fill-rule="nonzero" fill-opacity="1" /><path clip-path="url(#clip710)" d="M234.077 189.917 L223.498 200.542 L234.077 211.121 L231.322 213.922 L220.697 203.297 L210.072 213.922 L207.341 211.121 L217.896 200.542 L207.341 189.917 L210.072 187.116 L220.697 197.741 L231.322 187.116 L234.077 189.917 Z" fill="#000000" fill-rule="nonzero" fill-opacity="1" /><path clip-path="url(#clip710)" d="M246.438 211.445 L254.077 211.445 L254.077 185.079 L245.767 186.746 L245.767 182.487 L254.03 180.82 L258.706 180.82 L258.706 211.445 L266.345 211.445 L266.345 215.38 L246.438 215.38 L246.438 211.445 Z" fill="#000000" fill-rule="nonzero" fill-opacity="1" /><path clip-path="url(#clip710)" d="M285.789 183.899 Q282.178 183.899 280.35 187.464 Q278.544 191.005 278.544 198.135 Q278.544 205.241 280.35 208.806 Q282.178 212.348 285.789 212.348 Q289.424 212.348 291.229 208.806 Q293.058 205.241 293.058 198.135 Q293.058 191.005 291.229 187.464 Q289.424 183.899 285.789 183.899 M285.789 180.195 Q291.6 180.195 294.655 184.802 Q297.734 189.385 297.734 198.135 Q297.734 206.862 294.655 211.468 Q291.6 216.051 285.789 216.051 Q279.979 216.051 276.901 211.468 Q273.845 206.862 273.845 198.135 Q273.845 189.385 276.901 184.802 Q279.979 180.195 285.789 180.195 Z" fill="#000000" fill-rule="nonzero" fill-opacity="1" /><path clip-path="url(#clip710)" d="M299.539 187.387 L299.539 183.926 Q300.969 184.603 302.436 184.961 Q303.903 185.318 305.313 185.318 Q309.075 185.318 311.05 182.798 Q313.043 180.259 313.325 175.105 Q312.235 176.723 310.561 177.588 Q308.887 178.453 306.856 178.453 Q302.643 178.453 300.179 175.914 Q297.734 173.356 297.734 168.936 Q297.734 164.611 300.292 161.996 Q302.85 159.382 307.1 159.382 Q311.971 159.382 314.529 163.125 Q317.106 166.849 317.106 173.958 Q317.106 180.597 313.946 184.566 Q310.805 188.515 305.483 188.515 Q304.053 188.515 302.586 188.233 Q301.119 187.951 299.539 187.387 M307.1 175.481 Q309.658 175.481 311.144 173.732 Q312.648 171.983 312.648 168.936 Q312.648 165.908 311.144 164.159 Q309.658 162.391 307.1 162.391 Q304.542 162.391 303.038 164.159 Q301.552 165.908 301.552 168.936 Q301.552 171.983 303.038 173.732 Q304.542 175.481 307.1 175.481 Z" fill="#000000" fill-rule="nonzero" fill-opacity="1" /><path clip-path="url(#clip710)" d="M-9.64527 840.632 L0.4762 840.632 L0.4762 828.569 L5.02768 828.569 L5.02768 840.632 L24.3794 840.632 Q28.7399 840.632 29.9813 839.454 Q31.2226 838.245 31.2226 834.584 L31.2226 828.569 L36.1242 828.569 L36.1242 834.584 Q36.1242 841.364 33.6097 843.942 Q31.0634 846.52 24.3794 846.52 L5.02768 846.52 L5.02768 850.817 L0.4762 850.817 L0.4762 846.52 L-9.64527 846.52 L-9.64527 840.632 Z" fill="#000000" fill-rule="nonzero" fill-opacity="1" /><path clip-path="url(#clip710)" d="M-11.3958 789.738 L-11.3958 784.327 L42.1716 800.878 L42.1716 806.289 L-11.3958 789.738 Z" fill="#000000" fill-rule="nonzero" fill-opacity="1" /><path clip-path="url(#clip710)" d="M14.6081 727.831 L36.1242 727.831 L36.1242 733.688 L14.799 733.688 Q9.7383 733.688 7.22385 735.661 Q4.7094 737.635 4.7094 741.581 Q4.7094 746.324 7.73311 749.061 Q10.7568 751.798 15.9767 751.798 L36.1242 751.798 L36.1242 757.687 L0.4762 757.687 L0.4762 751.798 L6.01437 751.798 Q2.79968 749.698 1.20826 746.865 Q-0.38317 744 -0.38317 740.276 Q-0.38317 734.133 3.43625 730.982 Q7.22385 727.831 14.6081 727.831 Z" fill="#000000" fill-rule="nonzero" fill-opacity="1" /><path clip-path="url(#clip710)" d="M1.52654 693.425 L7.06471 693.425 Q5.79157 695.907 5.15499 698.581 Q4.51842 701.255 4.51842 704.119 Q4.51842 708.48 5.85522 710.676 Q7.19202 712.84 9.86562 712.84 Q11.9026 712.84 13.0803 711.281 Q14.2261 709.721 15.2765 705.01 L15.7221 703.005 Q17.0589 696.767 19.5097 694.157 Q21.9286 691.515 26.2891 691.515 Q31.2544 691.515 34.1508 695.462 Q37.0472 699.377 37.0472 706.252 Q37.0472 709.116 36.4743 712.235 Q35.9332 715.323 34.8192 718.76 L28.7718 718.76 Q30.4587 715.514 31.318 712.363 Q32.1456 709.212 32.1456 706.124 Q32.1456 701.987 30.7451 699.759 Q29.3129 697.531 26.7347 697.531 Q24.3476 697.531 23.0745 699.154 Q21.8013 700.745 20.6237 706.188 L20.1462 708.225 Q19.0004 713.668 16.6451 716.087 Q14.258 718.506 10.1202 718.506 Q5.09134 718.506 2.35408 714.941 Q-0.38317 711.376 -0.38317 704.819 Q-0.38317 701.573 0.0942579 698.708 Q0.571686 695.844 1.52654 693.425 Z" fill="#000000" fill-rule="nonzero" fill-opacity="1" /><path clip-path="url(#clip711)" d="M1394.83 1454.11 L1397.97 1451.42 L1399.79 1448.73 L1400.31 1446.04 L1399.56 1443.35 L1397.55 1440.66 L1394.36 1437.97 L1390.03 1435.28 L1384.66 1432.59 L1378.31 1429.9 L1371.1 1427.21 L1363.12 1424.52 L1354.49 1421.83 L1345.32 1419.14 L1335.75 1416.45 L1325.9 1413.76 L1315.88 1411.07 L1305.83 1408.38 L1295.87 1405.69 L1286.1 1403 L1276.64 1400.31 L1267.59 1397.62 L1259.05 1394.93 L1251.09 1392.24 L1243.78 1389.55 L1237.18 1386.86 L1231.34 1384.17 L1226.3 1381.48 L1222.06 1378.79 L1218.63 1376.1 L1216.02 1373.41 L1214.19 1370.72 L1213.11 1368.03 L1212.75 1365.34 L1213.04 1362.65 L1213.93 1359.96 L1215.34 1357.27 L1217.19 1354.58 L1219.4 1351.89 L1221.88 1349.2 L1224.53 1346.51 L1227.28 1343.82 L1230.01 1341.13 L1232.64 1338.44 L1235.08 1335.75 L1237.25 1333.06 L1239.05 1330.37 L1240.43 1327.68 L1241.31 1324.99 L1241.64 1322.3 L1241.35 1319.61 L1240.42 1316.92 L1238.8 1314.23 L1236.48 1311.54 L1233.44 1308.85 L1229.67 1306.16 L614.646 1306.16 L610.88 1308.85 L607.837 1311.54 L605.514 1314.23 L603.896 1316.92 L602.961 1319.61 L602.677 1322.3 L603.001 1324.99 L603.882 1327.68 L605.261 1330.37 L607.07 1333.06 L609.235 1335.75 L611.677 1338.44 L614.308 1341.13 L617.04 1343.82 L619.781 1346.51 L622.438 1349.2 L624.917 1351.89 L627.127 1354.58 L628.978 1357.27 L630.387 1359.96 L631.274 1362.65 L631.567 1365.34 L631.203 1368.03 L630.128 1370.72 L628.298 1373.41 L625.682 1376.1 L622.257 1378.79 L618.019 1381.48 L612.971 1384.17 L607.133 1386.86 L600.538 1389.55 L593.23 1392.24 L585.268 1394.93 L576.722 1397.62 L567.674 1400.31 L558.217 1403 L548.45 1405.69 L538.483 1408.38 L528.432 1411.07 L518.417 1413.76 L508.561 1416.45 L498.991 1419.14 L489.829 1421.83 L481.199 1424.52 L473.22 1427.21 L466.005 1429.9 L459.659 1432.59 L454.281 1435.28 L449.956 1437.97 L446.761 1440.66 L444.759 1443.35 L444.002 1446.04 L444.524 1448.73 L446.349 1451.42 L449.485 1454.11 L1394.83 1454.11  Z" fill="#009af9" fill-rule="evenodd" fill-opacity="1"/>
<polyline clip-path="url(#clip711)" style="stroke:#000000; stroke-linecap:round; stroke-linejoin:round; stroke-width:4; stroke-opacity:1; fill:none" points="1394.83,1454.11 1397.97,1451.42 1399.79,1448.73 1400.31,1446.04 1399.56,1443.35 1397.55,1440.66 1394.36,1437.97 1390.03,1435.28 1384.66,1432.59 1378.31,1429.9 1371.1,1427.21 1363.12,1424.52 1354.49,1421.83 1345.32,1419.14 1335.75,1416.45 1325.9,1413.76 1315.88,1411.07 1305.83,1408.38 1295.87,1405.69 1286.1,1403 1276.64,1400.31 1267.59,1397.62 1259.05,1394.93 1251.09,1392.24 1243.78,1389.55 1237.18,1386.86 1231.34,1384.17 1226.3,1381.48 1222.06,1378.79 1218.63,1376.1 1216.02,1373.41 1214.19,1370.72 1213.11,1368.03 1212.75,1365.34 1213.04,1362.65 1213.93,1359.96 1215.34,1357.27 1217.19,1354.58 1219.4,1351.89 1221.88,1349.2 1224.53,1346.51 1227.28,1343.82 1230.01,1341.13 1232.64,1338.44 1235.08,1335.75 1237.25,1333.06 1239.05,1330.37 1240.43,1327.68 1241.31,1324.99 1241.64,1322.3 1241.35,1319.61 1240.42,1316.92 1238.8,1314.23 1236.48,1311.54 1233.44,1308.85 1229.67,1306.16 614.646,1306.16 610.88,1308.85 607.837,1311.54 605.514,1314.23 603.896,1316.92 602.961,1319.61 602.677,1322.3 603.001,1324.99 603.882,1327.68 605.261,1330.37 607.07,1333.06 609.235,1335.75 611.677,1338.44 614.308,1341.13 617.04,1343.82 619.781,1346.51 622.438,1349.2 624.917,1351.89 627.127,1354.58 628.978,1357.27 630.387,1359.96 631.274,1362.65 631.567,1365.34 631.203,1368.03 630.128,1370.72 628.298,1373.41 625.682,1376.1 622.257,1378.79 618.019,1381.48 612.971,1384.17 607.133,1386.86 600.538,1389.55 593.23,1392.24 585.268,1394.93 576.722,1397.62 567.674,1400.31 558.217,1403 548.45,1405.69 538.483,1408.38 528.432,1411.07 518.417,1413.76 508.561,1416.45 498.991,1419.14 489.829,1421.83 481.199,1424.52 473.22,1427.21 466.005,1429.9 459.659,1432.59 454.281,1435.28 449.956,1437.97 446.761,1440.66 444.759,1443.35 444.002,1446.04 444.524,1448.73 446.349,1451.42 449.485,1454.11 1394.83,1454.11 "/>
<path clip-path="url(#clip711)" d="M2885.57 236.917 L2894.32 234.823 L2902.92 232.729 L2911.4 230.634 L2919.75 228.54 L2928.01 226.446 L2936.17 224.351 L2944.25 222.257 L2952.25 220.163 L2960.19 218.068 L2968.06 215.974 L2975.85 213.88 L2983.56 211.785 L2991.17 209.691 L2998.67 207.597 L3006.01 205.503 L3013.18 203.408 L3020.13 201.314 L3026.84 199.22 L3033.24 197.125 L3039.31 195.031 L3044.99 192.937 L3050.26 190.842 L3055.06 188.748 L3059.36 186.654 L3063.13 184.559 L3066.35 182.465 L3069 180.371 L3071.07 178.276 L3072.56 176.182 L3073.49 174.088 L3073.86 171.993 L3073.71 169.899 L3073.07 167.805 L3071.99 165.711 L3070.5 163.616 L3068.67 161.522 L3066.56 159.428 L3064.21 157.333 L3061.7 155.239 L3059.08 153.145 L3056.41 151.05 L3053.75 148.956 L3051.13 146.862 L3048.6 144.767 L3046.19 142.673 L3043.93 140.579 L3041.83 138.484 L3039.9 136.39 L3038.12 134.296 L3036.48 132.201 L3034.96 130.107 L3033.53 128.013 L3032.13 125.919 L3030.73 123.824 L3029.26 121.73 L3027.67 119.636 L3025.9 117.541 L3023.88 115.447 L3021.54 113.353 L3018.83 111.258 L3015.68 109.164 L3012.04 107.07 L3007.87 104.975 L3003.11 102.881 L2997.73 100.787 L2991.71 98.6924 L2985.02 96.5981 L2977.66 94.5038 L2969.62 92.4094 L2960.93 90.3151 L2951.59 88.2208 L2239.82 88.2208 L2230.48 90.3151 L2221.79 92.4094 L2213.75 94.5038 L2206.39 96.5981 L2199.7 98.6924 L2193.68 100.787 L2188.3 102.881 L2183.54 104.975 L2179.36 107.07 L2175.73 109.164 L2172.58 111.258 L2169.87 113.353 L2167.53 115.447 L2165.51 117.541 L2163.74 119.636 L2162.15 121.73 L2160.68 123.824 L2159.28 125.919 L2157.88 128.013 L2156.44 130.107 L2154.93 132.201 L2153.29 134.296 L2151.51 136.39 L2149.57 138.484 L2147.47 140.579 L2145.21 142.673 L2142.81 144.767 L2140.28 146.862 L2137.66 148.956 L2134.99 151.05 L2132.33 153.145 L2129.71 155.239 L2127.2 157.333 L2124.85 159.428 L2122.74 161.522 L2120.91 163.616 L2119.42 165.711 L2118.34 167.805 L2117.7 169.899 L2117.55 171.993 L2117.92 174.088 L2118.85 176.182 L2120.34 178.276 L2122.41 180.371 L2125.06 182.465 L2128.28 184.559 L2132.05 186.654 L2136.35 188.748 L2141.15 190.842 L2146.41 192.937 L2152.1 195.031 L2158.17 197.125 L2164.57 199.22 L2171.27 201.314 L2178.23 203.408 L2185.4 205.503 L2192.74 207.597 L2200.23 209.691 L2207.85 211.785 L2215.56 213.88 L2223.35 215.974 L2231.22 218.068 L2239.16 220.163 L2247.16 222.257 L2255.24 224.351 L2263.4 226.446 L2271.65 228.54 L2280.01 230.634 L2288.49 232.729 L2297.09 234.823 L2305.84 236.917 L2885.57 236.917  Z" fill="#e26f46" fill-rule="evenodd" fill-opacity="1"/>
<polyline clip-path="url(#clip711)" style="stroke:#000000; stroke-linecap:round; stroke-linejoin:round; stroke-width:4; stroke-opacity:1; fill:none" points="2885.57,236.917 2894.32,234.823 2902.92,232.729 2911.4,230.634 2919.75,228.54 2928.01,226.446 2936.17,224.351 2944.25,222.257 2952.25,220.163 2960.19,218.068 2968.06,215.974 2975.85,213.88 2983.56,211.785 2991.17,209.691 2998.67,207.597 3006.01,205.503 3013.18,203.408 3020.13,201.314 3026.84,199.22 3033.24,197.125 3039.31,195.031 3044.99,192.937 3050.26,190.842 3055.06,188.748 3059.36,186.654 3063.13,184.559 3066.35,182.465 3069,180.371 3071.07,178.276 3072.56,176.182 3073.49,174.088 3073.86,171.993 3073.71,169.899 3073.07,167.805 3071.99,165.711 3070.5,163.616 3068.67,161.522 3066.56,159.428 3064.21,157.333 3061.7,155.239 3059.08,153.145 3056.41,151.05 3053.75,148.956 3051.13,146.862 3048.6,144.767 3046.19,142.673 3043.93,140.579 3041.83,138.484 3039.9,136.39 3038.12,134.296 3036.48,132.201 3034.96,130.107 3033.53,128.013 3032.13,125.919 3030.73,123.824 3029.26,121.73 3027.67,119.636 3025.9,117.541 3023.88,115.447 3021.54,113.353 3018.83,111.258 3015.68,109.164 3012.04,107.07 3007.87,104.975 3003.11,102.881 2997.73,100.787 2991.71,98.6924 2985.02,96.5981 2977.66,94.5038 2969.62,92.4094 2960.93,90.3151 2951.59,88.2208 2239.82,88.2208 2230.48,90.3151 2221.79,92.4094 2213.75,94.5038 2206.39,96.5981 2199.7,98.6924 2193.68,100.787 2188.3,102.881 2183.54,104.975 2179.36,107.07 2175.73,109.164 2172.58,111.258 2169.87,113.353 2167.53,115.447 2165.51,117.541 2163.74,119.636 2162.15,121.73 2160.68,123.824 2159.28,125.919 2157.88,128.013 2156.44,130.107 2154.93,132.201 2153.29,134.296 2151.51,136.39 2149.57,138.484 2147.47,140.579 2145.21,142.673 2142.81,144.767 2140.28,146.862 2137.66,148.956 2134.99,151.05 2132.33,153.145 2129.71,155.239 2127.2,157.333 2124.85,159.428 2122.74,161.522 2120.91,163.616 2119.42,165.711 2118.34,167.805 2117.7,169.899 2117.55,171.993 2117.92,174.088 2118.85,176.182 2120.34,178.276 2122.41,180.371 2125.06,182.465 2128.28,184.559 2132.05,186.654 2136.35,188.748 2141.15,190.842 2146.41,192.937 2152.1,195.031 2158.17,197.125 2164.57,199.22 2171.27,201.314 2178.23,203.408 2185.4,205.503 2192.74,207.597 2200.23,209.691 2207.85,211.785 2215.56,213.88 2223.35,215.974 2231.22,218.068 2239.16,220.163 2247.16,222.257 2255.24,224.351 2263.4,226.446 2271.65,228.54 2280.01,230.634 2288.49,232.729 2297.09,234.823 2305.84,236.917 2885.57,236.917 "/>
</svg>
