<?xml version="1.0" encoding="utf-8"?>
<svg xmlns="http://www.w3.org/2000/svg" xmlns:xlink="http://www.w3.org/1999/xlink" width="800" height="400" viewBox="0 0 3200 1600">
<defs>
  <clipPath id="clip670">
    <rect x="0" y="0" width="3200" height="1600"/>
  </clipPath>
</defs>
<path clip-path="url(#clip670)" d="M0 1600 L3200 1600 L3200 0 L0 0  Z" fill="#ffffff" fill-rule="evenodd" fill-opacity="1"/>
<defs>
  <clipPath id="clip671">
    <rect x="640" y="0" width="2241" height="1600"/>
  </clipPath>
</defs>
<path clip-path="url(#clip670)" d="M348.231 1371.5 L2528.09 1371.5 L2528.09 171.344 L348.231 171.344  Z" fill="#ffffff" fill-rule="evenodd" fill-opacity="1"/>
<defs>
  <clipPath id="clip672">
    <rect x="348" y="171" width="2181" height="1201"/>
  </clipPath>
</defs>
<polyline clip-path="url(#clip672)" style="stroke:#000000; stroke-linecap:round; stroke-linejoin:round; stroke-width:2; stroke-opacity:0.1; fill:none" points="522.767,1371.5 522.767,171.344 "/>
<polyline clip-path="url(#clip672)" style="stroke:#000000; stroke-linecap:round; stroke-linejoin:round; stroke-width:2; stroke-opacity:0.1; fill:none" points="1003.95,1371.5 1003.95,171.344 "/>
<polyline clip-path="url(#clip672)" style="stroke:#000000; stroke-linecap:round; stroke-linejoin:round; stroke-width:2; stroke-opacity:0.1; fill:none" points="1485.14,1371.5 1485.14,171.344 "/>
<polyline clip-path="url(#clip672)" style="stroke:#000000; stroke-linecap:round; stroke-linejoin:round; stroke-width:2; stroke-opacity:0.1; fill:none" points="1966.33,1371.5 1966.33,171.344 "/>
<polyline clip-path="url(#clip672)" style="stroke:#000000; stroke-linecap:round; stroke-linejoin:round; stroke-width:2; stroke-opacity:0.1; fill:none" points="2447.52,1371.5 2447.52,171.344 "/>
<polyline clip-path="url(#clip672)" style="stroke:#000000; stroke-linecap:round; stroke-linejoin:round; stroke-width:2; stroke-opacity:0.1; fill:none" points="348.231,962.063 2528.09,962.063 "/>
<polyline clip-path="url(#clip672)" style="stroke:#000000; stroke-linecap:round; stroke-linejoin:round; stroke-width:2; stroke-opacity:0.1; fill:none" points="348.231,521.727 2528.09,521.727 "/>
<polyline clip-path="url(#clip670)" style="stroke:#000000; stroke-linecap:round; stroke-linejoin:round; stroke-width:4; stroke-opacity:1; fill:none" points="348.231,1371.5 2528.09,1371.5 "/>
<polyline clip-path="url(#clip670)" style="stroke:#000000; stroke-linecap:round; stroke-linejoin:round; stroke-width:4; stroke-opacity:1; fill:none" points="522.767,1371.5 522.767,1352.6 "/>
<polyline clip-path="url(#clip670)" style="stroke:#000000; stroke-linecap:round; stroke-linejoin:round; stroke-width:4; stroke-opacity:1; fill:none" points="1003.95,1371.5 1003.95,1352.6 "/>
<polyline clip-path="url(#clip670)" style="stroke:#000000; stroke-linecap:round; stroke-linejoin:round; stroke-width:4; stroke-opacity:1; fill:none" points="1485.14,1371.5 1485.14,1352.6 "/>
<polyline clip-path="url(#clip670)" style="stroke:#000000; stroke-linecap:round; stroke-linejoin:round; stroke-width:4; stroke-opacity:1; fill:none" points="1966.33,1371.5 1966.33,1352.6 "/>
<polyline clip-path="url(#clip670)" style="stroke:#000000; stroke-linecap:round; stroke-linejoin:round; stroke-width:4; stroke-opacity:1; fill:none" points="2447.52,1371.5 2447.52,1352.6 "/>
<path clip-path="url(#clip670)" d="M472.186 1452.02 L479.825 1452.02 L479.825 1425.65 L471.515 1427.32 L471.515 1423.06 L479.779 1421.4 L484.454 1421.4 L484.454 1452.02 L492.093 1452.02 L492.093 1455.96 L472.186 1455.96 L472.186 1452.02 Z" fill="#000000" fill-rule="nonzero" fill-opacity="1" /><path clip-path="url(#clip670)" d="M511.538 1424.47 Q507.927 1424.47 506.098 1428.04 Q504.292 1431.58 504.292 1438.71 Q504.292 1445.82 506.098 1449.38 Q507.927 1452.92 511.538 1452.92 Q515.172 1452.92 516.977 1449.38 Q518.806 1445.82 518.806 1438.71 Q518.806 1431.58 516.977 1428.04 Q515.172 1424.47 511.538 1424.47 M511.538 1420.77 Q517.348 1420.77 520.403 1425.38 Q523.482 1429.96 523.482 1438.71 Q523.482 1447.44 520.403 1452.04 Q517.348 1456.63 511.538 1456.63 Q505.728 1456.63 502.649 1452.04 Q499.593 1447.44 499.593 1438.71 Q499.593 1429.96 502.649 1425.38 Q505.728 1420.77 511.538 1420.77 Z" fill="#000000" fill-rule="nonzero" fill-opacity="1" /><path clip-path="url(#clip670)" d="M523.482 1414.87 L547.594 1414.87 L547.594 1418.07 L523.482 1418.07 L523.482 1414.87 Z" fill="#000000" fill-rule="nonzero" fill-opacity="1" /><path clip-path="url(#clip670)" d="M566.232 1403.78 L556.64 1418.76 L566.232 1418.76 L566.232 1403.78 M565.235 1400.46 L570.012 1400.46 L570.012 1418.76 L574.019 1418.76 L574.019 1421.92 L570.012 1421.92 L570.012 1428.54 L566.232 1428.54 L566.232 1421.92 L553.556 1421.92 L553.556 1418.26 L565.235 1400.46 Z" fill="#000000" fill-rule="nonzero" fill-opacity="1" /><path clip-path="url(#clip670)" d="M954.22 1452.02 L961.859 1452.02 L961.859 1425.65 L953.549 1427.32 L953.549 1423.06 L961.813 1421.4 L966.488 1421.4 L966.488 1452.02 L974.127 1452.02 L974.127 1455.96 L954.22 1455.96 L954.22 1452.02 Z" fill="#000000" fill-rule="nonzero" fill-opacity="1" /><path clip-path="url(#clip670)" d="M993.572 1424.47 Q989.961 1424.47 988.132 1428.04 Q986.326 1431.58 986.326 1438.71 Q986.326 1445.82 988.132 1449.38 Q989.961 1452.92 993.572 1452.92 Q997.206 1452.92 999.011 1449.38 Q1000.84 1445.82 1000.84 1438.71 Q1000.84 1431.58 999.011 1428.04 Q997.206 1424.47 993.572 1424.47 M993.572 1420.77 Q999.382 1420.77 1002.44 1425.38 Q1005.52 1429.96 1005.52 1438.71 Q1005.52 1447.44 1002.44 1452.04 Q999.382 1456.63 993.572 1456.63 Q987.761 1456.63 984.683 1452.04 Q981.627 1447.44 981.627 1438.71 Q981.627 1429.96 984.683 1425.38 Q987.761 1420.77 993.572 1420.77 Z" fill="#000000" fill-rule="nonzero" fill-opacity="1" /><path clip-path="url(#clip670)" d="M1005.52 1414.87 L1029.63 1414.87 L1029.63 1418.07 L1005.52 1418.07 L1005.52 1414.87 Z" fill="#000000" fill-rule="nonzero" fill-opacity="1" /><path clip-path="url(#clip670)" d="M1041.1 1425.35 L1054.36 1425.35 L1054.36 1428.54 L1036.53 1428.54 L1036.53 1425.35 Q1038.69 1423.11 1042.42 1419.35 Q1046.16 1415.57 1047.12 1414.48 Q1048.94 1412.43 1049.66 1411.02 Q1050.39 1409.59 1050.39 1408.21 Q1050.39 1405.98 1048.81 1404.57 Q1047.25 1403.15 1044.73 1403.15 Q1042.94 1403.15 1040.95 1403.78 Q1038.98 1404.4 1036.72 1405.66 L1036.72 1401.82 Q1039.01 1400.9 1041.01 1400.43 Q1043 1399.96 1044.65 1399.96 Q1049.02 1399.96 1051.61 1402.14 Q1054.21 1404.32 1054.21 1407.97 Q1054.21 1409.7 1053.55 1411.26 Q1052.91 1412.8 1051.2 1414.91 Q1050.73 1415.45 1048.21 1418.07 Q1045.69 1420.66 1041.1 1425.35 Z" fill="#000000" fill-rule="nonzero" fill-opacity="1" /><path clip-path="url(#clip670)" d="M1450.12 1452.02 L1457.76 1452.02 L1457.76 1425.65 L1449.45 1427.32 L1449.45 1423.06 L1457.72 1421.4 L1462.39 1421.4 L1462.39 1452.02 L1470.03 1452.02 L1470.03 1455.96 L1450.12 1455.96 L1450.12 1452.02 Z" fill="#000000" fill-rule="nonzero" fill-opacity="1" /><path clip-path="url(#clip670)" d="M1489.48 1424.47 Q1485.87 1424.47 1484.04 1428.04 Q1482.23 1431.58 1482.23 1438.71 Q1482.23 1445.82 1484.04 1449.38 Q1485.87 1452.92 1489.48 1452.92 Q1493.11 1452.92 1494.92 1449.38 Q1496.74 1445.82 1496.74 1438.71 Q1496.74 1431.58 1494.92 1428.04 Q1493.11 1424.47 1489.48 1424.47 M1489.48 1420.77 Q1495.29 1420.77 1498.34 1425.38 Q1501.42 1429.96 1501.42 1438.71 Q1501.42 1447.44 1498.34 1452.04 Q1495.29 1456.63 1489.48 1456.63 Q1483.67 1456.63 1480.59 1452.04 Q1477.53 1447.44 1477.53 1438.71 Q1477.53 1429.96 1480.59 1425.38 Q1483.67 1420.77 1489.48 1420.77 Z" fill="#000000" fill-rule="nonzero" fill-opacity="1" /><path clip-path="url(#clip670)" d="M1511.13 1402.97 Q1508.19 1402.97 1506.71 1405.86 Q1505.24 1408.74 1505.24 1414.53 Q1505.24 1420.31 1506.71 1423.2 Q1508.19 1426.08 1511.13 1426.08 Q1514.08 1426.08 1515.55 1423.2 Q1517.03 1420.31 1517.03 1414.53 Q1517.03 1408.74 1515.55 1405.86 Q1514.08 1402.97 1511.13 1402.97 M1511.13 1399.96 Q1515.85 1399.96 1518.33 1403.7 Q1520.83 1407.42 1520.83 1414.53 Q1520.83 1421.62 1518.33 1425.37 Q1515.85 1429.09 1511.13 1429.09 Q1506.4 1429.09 1503.9 1425.37 Q1501.42 1421.62 1501.42 1414.53 Q1501.42 1407.42 1503.9 1403.7 Q1506.4 1399.96 1511.13 1399.96 Z" fill="#000000" fill-rule="nonzero" fill-opacity="1" /><path clip-path="url(#clip670)" d="M1932.1 1452.02 L1939.74 1452.02 L1939.74 1425.65 L1931.43 1427.32 L1931.43 1423.06 L1939.69 1421.4 L1944.37 1421.4 L1944.37 1452.02 L1952.01 1452.02 L1952.01 1455.96 L1932.1 1455.96 L1932.1 1452.02 Z" fill="#000000" fill-rule="nonzero" fill-opacity="1" /><path clip-path="url(#clip670)" d="M1971.45 1424.47 Q1967.84 1424.47 1966.01 1428.04 Q1964.21 1431.58 1964.21 1438.71 Q1964.21 1445.82 1966.01 1449.38 Q1967.84 1452.92 1971.45 1452.92 Q1975.09 1452.92 1976.89 1449.38 Q1978.72 1445.82 1978.72 1438.71 Q1978.72 1431.58 1976.89 1428.04 Q1975.09 1424.47 1971.45 1424.47 M1971.45 1420.77 Q1977.26 1420.77 1980.32 1425.38 Q1983.4 1429.96 1983.4 1438.71 Q1983.4 1447.44 1980.32 1452.04 Q1977.26 1456.63 1971.45 1456.63 Q1965.64 1456.63 1962.56 1452.04 Q1959.51 1447.44 1959.51 1438.71 Q1959.51 1429.96 1962.56 1425.38 Q1965.64 1420.77 1971.45 1420.77 Z" fill="#000000" fill-rule="nonzero" fill-opacity="1" /><path clip-path="url(#clip670)" d="M1987.97 1425.35 L2001.23 1425.35 L2001.23 1428.54 L1983.4 1428.54 L1983.4 1425.35 Q1985.56 1423.11 1989.28 1419.35 Q1993.03 1415.57 1993.99 1414.48 Q1995.81 1412.43 1996.53 1411.02 Q1997.26 1409.59 1997.26 1408.21 Q1997.26 1405.98 1995.68 1404.57 Q1994.12 1403.15 1991.6 1403.15 Q1989.81 1403.15 1987.82 1403.78 Q1985.84 1404.4 1983.59 1405.66 L1983.59 1401.82 Q1985.88 1400.9 1987.87 1400.43 Q1989.87 1399.96 1991.52 1399.96 Q1995.89 1399.96 1998.48 1402.14 Q2001.08 1404.32 2001.08 1407.97 Q2001.08 1409.7 2000.42 1411.26 Q1999.78 1412.8 1998.07 1414.91 Q1997.6 1415.45 1995.08 1418.07 Q1992.56 1420.66 1987.97 1425.35 Z" fill="#000000" fill-rule="nonzero" fill-opacity="1" /><path clip-path="url(#clip670)" d="M2411.97 1452.02 L2419.61 1452.02 L2419.61 1425.65 L2411.3 1427.32 L2411.3 1423.06 L2419.57 1421.4 L2424.24 1421.4 L2424.24 1452.02 L2431.88 1452.02 L2431.88 1455.96 L2411.97 1455.96 L2411.97 1452.02 Z" fill="#000000" fill-rule="nonzero" fill-opacity="1" /><path clip-path="url(#clip670)" d="M2451.32 1424.47 Q2447.71 1424.47 2445.89 1428.04 Q2444.08 1431.58 2444.08 1438.71 Q2444.08 1445.82 2445.89 1449.38 Q2447.71 1452.92 2451.32 1452.92 Q2454.96 1452.92 2456.76 1449.38 Q2458.59 1445.82 2458.59 1438.71 Q2458.59 1431.58 2456.76 1428.04 Q2454.96 1424.47 2451.32 1424.47 M2451.32 1420.77 Q2457.13 1420.77 2460.19 1425.38 Q2463.27 1429.96 2463.27 1438.71 Q2463.27 1447.44 2460.19 1452.04 Q2457.13 1456.63 2451.32 1456.63 Q2445.51 1456.63 2442.44 1452.04 Q2439.38 1447.44 2439.38 1438.71 Q2439.38 1429.96 2442.44 1425.38 Q2445.51 1420.77 2451.32 1420.77 Z" fill="#000000" fill-rule="nonzero" fill-opacity="1" /><path clip-path="url(#clip670)" d="M2475.95 1403.78 L2466.35 1418.76 L2475.95 1418.76 L2475.95 1403.78 M2474.95 1400.46 L2479.73 1400.46 L2479.73 1418.76 L2483.73 1418.76 L2483.73 1421.92 L2479.73 1421.92 L2479.73 1428.54 L2475.95 1428.54 L2475.95 1421.92 L2463.27 1421.92 L2463.27 1418.26 L2474.95 1400.46 Z" fill="#000000" fill-rule="nonzero" fill-opacity="1" /><path clip-path="url(#clip670)" d="M1299.14 1499.26 L1329.18 1499.26 L1329.18 1504.67 L1305.56 1504.67 L1305.56 1518.74 L1328.19 1518.74 L1328.19 1524.15 L1305.56 1524.15 L1305.56 1541.37 L1329.75 1541.37 L1329.75 1546.78 L1299.14 1546.78 L1299.14 1499.26 Z" fill="#000000" fill-rule="nonzero" fill-opacity="1" /><path clip-path="url(#clip670)" d="M1360.72 1516.61 Q1359.74 1516.04 1358.56 1515.78 Q1357.41 1515.5 1356.01 1515.5 Q1351.05 1515.5 1348.37 1518.74 Q1345.73 1521.96 1345.73 1528.01 L1345.73 1546.78 L1339.84 1546.78 L1339.84 1511.14 L1345.73 1511.14 L1345.73 1516.67 Q1347.58 1513.43 1350.54 1511.87 Q1353.5 1510.28 1357.73 1510.28 Q1358.34 1510.28 1359.07 1510.37 Q1359.8 1510.44 1360.69 1510.6 L1360.72 1516.61 Z" fill="#000000" fill-rule="nonzero" fill-opacity="1" /><path clip-path="url(#clip670)" d="M1386.38 1516.61 Q1385.39 1516.04 1384.21 1515.78 Q1383.07 1515.5 1381.67 1515.5 Q1376.7 1515.5 1374.03 1518.74 Q1371.39 1521.96 1371.39 1528.01 L1371.39 1546.78 L1365.5 1546.78 L1365.5 1511.14 L1371.39 1511.14 L1371.39 1516.67 Q1373.23 1513.43 1376.19 1511.87 Q1379.15 1510.28 1383.39 1510.28 Q1383.99 1510.28 1384.72 1510.37 Q1385.45 1510.44 1386.35 1510.6 L1386.38 1516.61 Z" fill="#000000" fill-rule="nonzero" fill-opacity="1" /><path clip-path="url(#clip670)" d="M1404.9 1515.24 Q1400.19 1515.24 1397.45 1518.93 Q1394.72 1522.59 1394.72 1528.99 Q1394.72 1535.39 1397.42 1539.08 Q1400.16 1542.74 1404.9 1542.74 Q1409.58 1542.74 1412.32 1539.05 Q1415.05 1535.36 1415.05 1528.99 Q1415.05 1522.66 1412.32 1518.97 Q1409.58 1515.24 1404.9 1515.24 M1404.9 1510.28 Q1412.54 1510.28 1416.9 1515.24 Q1421.26 1520.21 1421.26 1528.99 Q1421.26 1537.74 1416.9 1542.74 Q1412.54 1547.71 1404.9 1547.71 Q1397.23 1547.71 1392.87 1542.74 Q1388.54 1537.74 1388.54 1528.99 Q1388.54 1520.21 1392.87 1515.24 Q1397.23 1510.28 1404.9 1510.28 Z" fill="#000000" fill-rule="nonzero" fill-opacity="1" /><path clip-path="url(#clip670)" d="M1451.63 1516.61 Q1450.64 1516.04 1449.46 1515.78 Q1448.32 1515.5 1446.92 1515.5 Q1441.95 1515.5 1439.28 1518.74 Q1436.63 1521.96 1436.63 1528.01 L1436.63 1546.78 L1430.75 1546.78 L1430.75 1511.14 L1436.63 1511.14 L1436.63 1516.67 Q1438.48 1513.43 1441.44 1511.87 Q1444.4 1510.28 1448.63 1510.28 Q1449.24 1510.28 1449.97 1510.37 Q1450.7 1510.44 1451.59 1510.6 L1451.63 1516.61 Z" fill="#000000" fill-rule="nonzero" fill-opacity="1" /><path clip-path="url(#clip670)" d="M1492.56 1497.32 Q1488.29 1504.64 1486.22 1511.8 Q1484.15 1518.97 1484.15 1526.32 Q1484.15 1533.67 1486.22 1540.9 Q1488.32 1548.09 1492.56 1555.38 L1487.46 1555.38 Q1482.69 1547.9 1480.3 1540.67 Q1477.95 1533.45 1477.95 1526.32 Q1477.95 1519.22 1480.3 1512.03 Q1482.66 1504.83 1487.46 1497.32 L1492.56 1497.32 Z" fill="#000000" fill-rule="nonzero" fill-opacity="1" /><path clip-path="url(#clip670)" d="M1503.92 1497.26 L1509.78 1497.26 L1509.78 1546.78 L1503.92 1546.78 L1503.92 1497.26 Z" fill="#000000" fill-rule="nonzero" fill-opacity="1" /><path clip-path="url(#clip670)" d="M1528.4 1541.37 L1550.84 1541.37 L1550.84 1546.78 L1520.66 1546.78 L1520.66 1541.37 Q1524.32 1537.59 1530.62 1531.22 Q1536.96 1524.82 1538.58 1522.98 Q1541.67 1519.51 1542.88 1517.12 Q1544.12 1514.7 1544.12 1512.38 Q1544.12 1508.59 1541.45 1506.2 Q1538.8 1503.82 1534.54 1503.82 Q1531.52 1503.82 1528.14 1504.87 Q1524.8 1505.92 1520.98 1508.05 L1520.98 1501.56 Q1524.86 1500 1528.24 1499.2 Q1531.61 1498.4 1534.41 1498.4 Q1541.8 1498.4 1546.19 1502.1 Q1550.58 1505.79 1550.58 1511.96 Q1550.58 1514.89 1549.47 1517.53 Q1548.38 1520.14 1545.49 1523.71 Q1544.69 1524.63 1540.43 1529.06 Q1536.16 1533.45 1528.4 1541.37 Z" fill="#000000" fill-rule="nonzero" fill-opacity="1" /><path clip-path="url(#clip670)" d="M1562.58 1497.32 L1567.67 1497.32 Q1572.45 1504.83 1574.8 1512.03 Q1577.19 1519.22 1577.19 1526.32 Q1577.19 1533.45 1574.8 1540.67 Q1572.45 1547.9 1567.67 1555.38 L1562.58 1555.38 Q1566.81 1548.09 1568.88 1540.9 Q1570.98 1533.67 1570.98 1526.32 Q1570.98 1518.97 1568.88 1511.8 Q1566.81 1504.64 1562.58 1497.32 Z" fill="#000000" fill-rule="nonzero" fill-opacity="1" /><polyline clip-path="url(#clip670)" style="stroke:#000000; stroke-linecap:round; stroke-linejoin:round; stroke-width:4; stroke-opacity:1; fill:none" points="348.231,1371.5 348.231,171.344 "/>
<polyline clip-path="url(#clip670)" style="stroke:#000000; stroke-linecap:round; stroke-linejoin:round; stroke-width:4; stroke-opacity:1; fill:none" points="348.231,962.063 363.257,962.063 "/>
<polyline clip-path="url(#clip670)" style="stroke:#000000; stroke-linecap:round; stroke-linejoin:round; stroke-width:4; stroke-opacity:1; fill:none" points="348.231,521.727 363.257,521.727 "/>
<path clip-path="url(#clip670)" d="M162.044 981.855 L169.682 981.855 L169.682 955.49 L161.372 957.157 L161.372 952.897 L169.636 951.231 L174.312 951.231 L174.312 981.855 L181.951 981.855 L181.951 985.791 L162.044 985.791 L162.044 981.855 Z" fill="#000000" fill-rule="nonzero" fill-opacity="1" /><path clip-path="url(#clip670)" d="M201.395 954.309 Q197.784 954.309 195.955 957.874 Q194.15 961.416 194.15 968.545 Q194.15 975.652 195.955 979.217 Q197.784 982.758 201.395 982.758 Q205.029 982.758 206.835 979.217 Q208.664 975.652 208.664 968.545 Q208.664 961.416 206.835 957.874 Q205.029 954.309 201.395 954.309 M201.395 950.606 Q207.205 950.606 210.261 955.212 Q213.34 959.795 213.34 968.545 Q213.34 977.272 210.261 981.879 Q207.205 986.462 201.395 986.462 Q195.585 986.462 192.506 981.879 Q189.451 977.272 189.451 968.545 Q189.451 959.795 192.506 955.212 Q195.585 950.606 201.395 950.606 Z" fill="#000000" fill-rule="nonzero" fill-opacity="1" /><path clip-path="url(#clip670)" d="M213.34 944.707 L237.451 944.707 L237.451 947.904 L213.34 947.904 L213.34 944.707 Z" fill="#000000" fill-rule="nonzero" fill-opacity="1" /><path clip-path="url(#clip670)" d="M248.924 955.183 L262.183 955.183 L262.183 958.38 L244.354 958.38 L244.354 955.183 Q246.517 952.945 250.24 949.183 Q253.983 945.403 254.942 944.312 Q256.767 942.262 257.481 940.851 Q258.215 939.422 258.215 938.049 Q258.215 935.811 256.635 934.4 Q255.074 932.99 252.554 932.99 Q250.767 932.99 248.773 933.61 Q246.799 934.231 244.542 935.491 L244.542 931.654 Q246.836 930.733 248.83 930.263 Q250.823 929.792 252.479 929.792 Q256.842 929.792 259.437 931.974 Q262.033 934.156 262.033 937.805 Q262.033 939.535 261.375 941.096 Q260.735 942.638 259.024 944.745 Q258.553 945.29 256.033 947.904 Q253.513 950.5 248.924 955.183 Z" fill="#000000" fill-rule="nonzero" fill-opacity="1" /><path clip-path="url(#clip670)" d="M270.158 953.603 L274.126 953.603 L274.126 958.38 L270.158 958.38 L270.158 953.603 Z" fill="#000000" fill-rule="nonzero" fill-opacity="1" /><path clip-path="url(#clip670)" d="M290.527 932.802 Q287.593 932.802 286.107 935.698 Q284.64 938.576 284.64 944.368 Q284.64 950.142 286.107 953.039 Q287.593 955.916 290.527 955.916 Q293.48 955.916 294.947 953.039 Q296.432 950.142 296.432 944.368 Q296.432 938.576 294.947 935.698 Q293.48 932.802 290.527 932.802 M290.527 929.792 Q295.247 929.792 297.73 933.535 Q300.231 937.259 300.231 944.368 Q300.231 951.459 297.73 955.202 Q295.247 958.926 290.527 958.926 Q285.806 958.926 283.305 955.202 Q280.822 951.459 280.822 944.368 Q280.822 937.259 283.305 933.535 Q285.806 929.792 290.527 929.792 Z" fill="#000000" fill-rule="nonzero" fill-opacity="1" /><path clip-path="url(#clip670)" d="M162.852 541.519 L170.491 541.519 L170.491 515.153 L162.181 516.82 L162.181 512.561 L170.445 510.894 L175.121 510.894 L175.121 541.519 L182.76 541.519 L182.76 545.454 L162.852 545.454 L162.852 541.519 Z" fill="#000000" fill-rule="nonzero" fill-opacity="1" /><path clip-path="url(#clip670)" d="M202.204 513.973 Q198.593 513.973 196.764 517.538 Q194.959 521.079 194.959 528.209 Q194.959 535.315 196.764 538.88 Q198.593 542.422 202.204 542.422 Q205.838 542.422 207.644 538.88 Q209.472 535.315 209.472 528.209 Q209.472 521.079 207.644 517.538 Q205.838 513.973 202.204 513.973 M202.204 510.269 Q208.014 510.269 211.07 514.876 Q214.148 519.459 214.148 528.209 Q214.148 536.936 211.07 541.542 Q208.014 546.125 202.204 546.125 Q196.394 546.125 193.315 541.542 Q190.26 536.936 190.26 528.209 Q190.26 519.459 193.315 514.876 Q196.394 510.269 202.204 510.269 Z" fill="#000000" fill-rule="nonzero" fill-opacity="1" /><path clip-path="url(#clip670)" d="M214.148 504.371 L238.26 504.371 L238.26 507.568 L214.148 507.568 L214.148 504.371 Z" fill="#000000" fill-rule="nonzero" fill-opacity="1" /><path clip-path="url(#clip670)" d="M247.118 514.846 L253.325 514.846 L253.325 493.424 L246.573 494.779 L246.573 491.318 L253.287 489.964 L257.086 489.964 L257.086 514.846 L263.293 514.846 L263.293 518.044 L247.118 518.044 L247.118 514.846 Z" fill="#000000" fill-rule="nonzero" fill-opacity="1" /><path clip-path="url(#clip670)" d="M270.967 513.267 L274.935 513.267 L274.935 518.044 L270.967 518.044 L270.967 513.267 Z" fill="#000000" fill-rule="nonzero" fill-opacity="1" /><path clip-path="url(#clip670)" d="M283.248 489.964 L298.163 489.964 L298.163 493.161 L286.728 493.161 L286.728 500.045 Q287.555 499.763 288.383 499.631 Q289.21 499.48 290.038 499.48 Q294.74 499.48 297.486 502.057 Q300.231 504.634 300.231 509.035 Q300.231 513.568 297.41 516.088 Q294.589 518.589 289.455 518.589 Q287.687 518.589 285.844 518.288 Q284.019 517.987 282.063 517.385 L282.063 513.568 Q283.756 514.489 285.561 514.94 Q287.367 515.392 289.379 515.392 Q292.633 515.392 294.533 513.68 Q296.432 511.969 296.432 509.035 Q296.432 506.101 294.533 504.389 Q292.633 502.678 289.379 502.678 Q287.856 502.678 286.333 503.016 Q284.828 503.355 283.248 504.07 L283.248 489.964 Z" fill="#000000" fill-rule="nonzero" fill-opacity="1" /><path clip-path="url(#clip670)" d="M51.5963 901.248 L51.5963 861.049 L57.0071 861.049 L57.0071 877.918 L99.1163 877.918 L99.1163 884.379 L57.0071 884.379 L57.0071 901.248 L51.5963 901.248 Z" fill="#000000" fill-rule="nonzero" fill-opacity="1" /><path clip-path="url(#clip670)" d="M63.4683 857.102 L63.4683 851.246 L99.1163 851.246 L99.1163 857.102 L63.4683 857.102 M49.5911 857.102 L49.5911 851.246 L57.0071 851.246 L57.0071 857.102 L49.5911 857.102 Z" fill="#000000" fill-rule="nonzero" fill-opacity="1" /><path clip-path="url(#clip670)" d="M70.3115 811.237 Q66.3647 809.041 64.4868 805.986 Q62.609 802.93 62.609 798.792 Q62.609 793.222 66.5239 790.199 Q70.4069 787.175 77.6002 787.175 L99.1163 787.175 L99.1163 793.063 L77.7912 793.063 Q72.6668 793.063 70.1841 794.877 Q67.7015 796.692 67.7015 800.416 Q67.7015 804.967 70.7252 807.609 Q73.7489 810.251 78.9688 810.251 L99.1163 810.251 L99.1163 816.139 L77.7912 816.139 Q72.6349 816.139 70.1841 817.953 Q67.7015 819.767 67.7015 823.555 Q67.7015 828.043 70.7571 830.685 Q73.7808 833.326 78.9688 833.326 L99.1163 833.326 L99.1163 839.215 L63.4683 839.215 L63.4683 833.326 L69.0065 833.326 Q65.7282 831.321 64.1686 828.52 Q62.609 825.719 62.609 821.868 Q62.609 817.985 64.5823 815.28 Q66.5557 812.542 70.3115 811.237 Z" fill="#000000" fill-rule="nonzero" fill-opacity="1" /><path clip-path="url(#clip670)" d="M79.8282 745.002 L82.6928 745.002 L82.6928 771.929 Q88.7402 771.547 91.923 768.301 Q95.0741 765.022 95.0741 759.198 Q95.0741 755.824 94.2465 752.673 Q93.419 749.49 91.7639 746.371 L97.3021 746.371 Q98.6389 749.522 99.3391 752.832 Q100.039 756.142 100.039 759.548 Q100.039 768.078 95.0741 773.075 Q90.1088 778.04 81.6424 778.04 Q72.8896 778.04 67.7652 773.329 Q62.609 768.587 62.609 760.566 Q62.609 753.373 67.2559 749.203 Q71.8711 745.002 79.8282 745.002 M78.1095 750.859 Q73.3033 750.922 70.4388 753.564 Q67.5742 756.174 67.5742 760.503 Q67.5742 765.404 70.3433 768.364 Q73.1124 771.292 78.1413 771.738 L78.1095 750.859 Z" fill="#000000" fill-rule="nonzero" fill-opacity="1" /><path clip-path="url(#clip670)" d="M49.6547 700.601 Q56.9753 704.866 64.1367 706.935 Q71.2981 709.004 78.6505 709.004 Q86.0029 709.004 93.228 706.935 Q100.421 704.834 107.71 700.601 L107.71 705.694 Q100.23 710.468 93.0052 712.855 Q85.7801 715.211 78.6505 715.211 Q71.5528 715.211 64.3595 712.855 Q57.1663 710.5 49.6547 705.694 L49.6547 700.601 Z" fill="#000000" fill-rule="nonzero" fill-opacity="1" /><path clip-path="url(#clip670)" d="M64.5187 666.513 L70.0568 666.513 Q68.7837 668.996 68.1471 671.669 Q67.5106 674.343 67.5106 677.207 Q67.5106 681.568 68.8473 683.764 Q70.1841 685.928 72.8577 685.928 Q74.8948 685.928 76.0724 684.369 Q77.2183 682.809 78.2686 678.099 L78.7142 676.093 Q80.051 669.855 82.5018 667.245 Q84.9208 664.603 89.2813 664.603 Q94.2465 664.603 97.1429 668.55 Q100.039 672.465 100.039 679.34 Q100.039 682.204 99.4664 685.324 Q98.9253 688.411 97.8113 691.848 L91.7639 691.848 Q93.4508 688.602 94.3102 685.451 Q95.1377 682.3 95.1377 679.213 Q95.1377 675.075 93.7373 672.847 Q92.305 670.619 89.7269 670.619 Q87.3397 670.619 86.0666 672.242 Q84.7934 673.834 83.6158 679.276 L83.1384 681.313 Q81.9925 686.756 79.6372 689.175 Q77.2501 691.594 73.1124 691.594 Q68.0835 691.594 65.3462 688.029 Q62.609 684.464 62.609 677.908 Q62.609 674.661 63.0864 671.796 Q63.5638 668.932 64.5187 666.513 Z" fill="#000000" fill-rule="nonzero" fill-opacity="1" /><path clip-path="url(#clip670)" d="M49.6547 656.2 L49.6547 651.108 Q57.1663 646.334 64.3595 643.978 Q71.5528 641.591 78.6505 641.591 Q85.7801 641.591 93.0052 643.978 Q100.23 646.334 107.71 651.108 L107.71 656.2 Q100.421 651.967 93.228 649.898 Q86.0029 647.798 78.6505 647.798 Q71.2981 647.798 64.1367 649.898 Q56.9753 651.967 49.6547 656.2 Z" fill="#000000" fill-rule="nonzero" fill-opacity="1" /><path clip-path="url(#clip670)" d="M1059.18 44.2197 Q1061.81 45.1109 1064.28 48.0275 Q1066.8 50.9442 1069.31 56.0483 L1077.61 72.576 L1068.82 72.576 L1061.08 57.061 Q1058.09 50.9847 1055.25 48.9997 Q1052.46 47.0148 1047.59 47.0148 L1038.68 47.0148 L1038.68 72.576 L1030.5 72.576 L1030.5 12.096 L1048.97 12.096 Q1059.34 12.096 1064.45 16.4305 Q1069.55 20.7649 1069.55 29.5149 Q1069.55 35.2267 1066.88 38.994 Q1064.24 42.7613 1059.18 44.2197 M1038.68 18.8205 L1038.68 40.2903 L1048.97 40.2903 Q1054.89 40.2903 1057.88 37.5762 Q1060.92 34.8216 1060.92 29.5149 Q1060.92 24.2082 1057.88 21.5346 Q1054.89 18.8205 1048.97 18.8205 L1038.68 18.8205 Z" fill="#000000" fill-rule="nonzero" fill-opacity="1" /><path clip-path="url(#clip670)" d="M1122.9 48.0275 L1122.9 51.6733 L1088.63 51.6733 Q1089.12 59.3701 1093.25 63.421 Q1097.42 67.4314 1104.83 67.4314 Q1109.13 67.4314 1113.14 66.3781 Q1117.19 65.3249 1121.16 63.2184 L1121.16 70.267 Q1117.15 71.9684 1112.94 72.8596 Q1108.72 73.7508 1104.39 73.7508 Q1093.53 73.7508 1087.17 67.4314 Q1080.85 61.1119 1080.85 50.3365 Q1080.85 39.1965 1086.85 32.6746 Q1092.88 26.1121 1103.09 26.1121 Q1112.25 26.1121 1117.55 32.0264 Q1122.9 37.9003 1122.9 48.0275 M1115.45 45.84 Q1115.37 39.7232 1112 36.0774 Q1108.68 32.4315 1103.17 32.4315 Q1096.93 32.4315 1093.17 35.9558 Q1089.44 39.4801 1088.87 45.8805 L1115.45 45.84 Z" fill="#000000" fill-rule="nonzero" fill-opacity="1" /><path clip-path="url(#clip670)" d="M1158.1 9.54393 L1158.1 15.7418 L1150.97 15.7418 Q1146.96 15.7418 1145.38 17.3622 Q1143.84 18.9825 1143.84 23.1955 L1143.84 27.2059 L1156.12 27.2059 L1156.12 32.9987 L1143.84 32.9987 L1143.84 72.576 L1136.35 72.576 L1136.35 32.9987 L1129.22 32.9987 L1129.22 27.2059 L1136.35 27.2059 L1136.35 24.0462 Q1136.35 16.471 1139.87 13.0277 Q1143.4 9.54393 1151.05 9.54393 L1158.1 9.54393 Z" fill="#000000" fill-rule="nonzero" fill-opacity="1" /><path clip-path="url(#clip670)" d="M1203.15 48.0275 L1203.15 51.6733 L1168.88 51.6733 Q1169.36 59.3701 1173.5 63.421 Q1177.67 67.4314 1185.08 67.4314 Q1189.38 67.4314 1193.39 66.3781 Q1197.44 65.3249 1201.41 63.2184 L1201.41 70.267 Q1197.4 71.9684 1193.18 72.8596 Q1188.97 73.7508 1184.64 73.7508 Q1173.78 73.7508 1167.42 67.4314 Q1161.1 61.1119 1161.1 50.3365 Q1161.1 39.1965 1167.1 32.6746 Q1173.13 26.1121 1183.34 26.1121 Q1192.5 26.1121 1197.8 32.0264 Q1203.15 37.9003 1203.15 48.0275 M1195.7 45.84 Q1195.61 39.7232 1192.25 36.0774 Q1188.93 32.4315 1183.42 32.4315 Q1177.18 32.4315 1173.42 35.9558 Q1169.69 39.4801 1169.12 45.8805 L1195.7 45.84 Z" fill="#000000" fill-rule="nonzero" fill-opacity="1" /><path clip-path="url(#clip670)" d="M1241.67 34.1734 Q1240.42 33.4443 1238.92 33.1202 Q1237.46 32.7556 1235.68 32.7556 Q1229.36 32.7556 1225.96 36.8875 Q1222.59 40.9789 1222.59 48.6757 L1222.59 72.576 L1215.1 72.576 L1215.1 27.2059 L1222.59 27.2059 L1222.59 34.2544 Q1224.94 30.1225 1228.71 28.1376 Q1232.48 26.1121 1237.87 26.1121 Q1238.63 26.1121 1239.57 26.2337 Q1240.5 26.3147 1241.63 26.5172 L1241.67 34.1734 Z" fill="#000000" fill-rule="nonzero" fill-opacity="1" /><path clip-path="url(#clip670)" d="M1286.48 48.0275 L1286.48 51.6733 L1252.21 51.6733 Q1252.69 59.3701 1256.82 63.421 Q1261 67.4314 1268.41 67.4314 Q1272.7 67.4314 1276.71 66.3781 Q1280.76 65.3249 1284.73 63.2184 L1284.73 70.267 Q1280.72 71.9684 1276.51 72.8596 Q1272.3 73.7508 1267.96 73.7508 Q1257.11 73.7508 1250.75 67.4314 Q1244.43 61.1119 1244.43 50.3365 Q1244.43 39.1965 1250.42 32.6746 Q1256.46 26.1121 1266.67 26.1121 Q1275.82 26.1121 1281.13 32.0264 Q1286.48 37.9003 1286.48 48.0275 M1279.02 45.84 Q1278.94 39.7232 1275.58 36.0774 Q1272.26 32.4315 1266.75 32.4315 Q1260.51 32.4315 1256.74 35.9558 Q1253.02 39.4801 1252.45 45.8805 L1279.02 45.84 Z" fill="#000000" fill-rule="nonzero" fill-opacity="1" /><path clip-path="url(#clip670)" d="M1336.42 45.1919 L1336.42 72.576 L1328.97 72.576 L1328.97 45.4349 Q1328.97 38.994 1326.46 35.7938 Q1323.95 32.5936 1318.92 32.5936 Q1312.89 32.5936 1309.4 36.4419 Q1305.92 40.2903 1305.92 46.9338 L1305.92 72.576 L1298.43 72.576 L1298.43 27.2059 L1305.92 27.2059 L1305.92 34.2544 Q1308.59 30.163 1312.2 28.1376 Q1315.85 26.1121 1320.58 26.1121 Q1328.4 26.1121 1332.41 30.9732 Q1336.42 35.7938 1336.42 45.1919 Z" fill="#000000" fill-rule="nonzero" fill-opacity="1" /><path clip-path="url(#clip670)" d="M1383.94 28.9478 L1383.94 35.9153 Q1380.78 34.1734 1377.58 33.3227 Q1374.42 32.4315 1371.18 32.4315 Q1363.93 32.4315 1359.92 37.0496 Q1355.91 41.6271 1355.91 49.9314 Q1355.91 58.2358 1359.92 62.8538 Q1363.93 67.4314 1371.18 67.4314 Q1374.42 67.4314 1377.58 66.5807 Q1380.78 65.6895 1383.94 63.9476 L1383.94 70.8341 Q1380.82 72.2924 1377.46 73.0216 Q1374.14 73.7508 1370.37 73.7508 Q1360.12 73.7508 1354.09 67.3098 Q1348.05 60.8689 1348.05 49.9314 Q1348.05 38.832 1354.13 32.472 Q1360.24 26.1121 1370.86 26.1121 Q1374.3 26.1121 1377.58 26.8413 Q1380.86 27.5299 1383.94 28.9478 Z" fill="#000000" fill-rule="nonzero" fill-opacity="1" /><path clip-path="url(#clip670)" d="M1435.71 48.0275 L1435.71 51.6733 L1401.44 51.6733 Q1401.93 59.3701 1406.06 63.421 Q1410.23 67.4314 1417.64 67.4314 Q1421.94 67.4314 1425.95 66.3781 Q1430 65.3249 1433.97 63.2184 L1433.97 70.267 Q1429.96 71.9684 1425.75 72.8596 Q1421.53 73.7508 1417.2 73.7508 Q1406.34 73.7508 1399.98 67.4314 Q1393.66 61.1119 1393.66 50.3365 Q1393.66 39.1965 1399.66 32.6746 Q1405.69 26.1121 1415.9 26.1121 Q1425.06 26.1121 1430.36 32.0264 Q1435.71 37.9003 1435.71 48.0275 M1428.26 45.84 Q1428.18 39.7232 1424.81 36.0774 Q1421.49 32.4315 1415.98 32.4315 Q1409.75 32.4315 1405.98 35.9558 Q1402.25 39.4801 1401.68 45.8805 L1428.26 45.84 Z" fill="#000000" fill-rule="nonzero" fill-opacity="1" /><path clip-path="url(#clip670)" d="M1449.85 62.2867 L1458.4 62.2867 L1458.4 72.576 L1449.85 72.576 L1449.85 62.2867 M1449.85 29.6769 L1458.4 29.6769 L1458.4 39.9662 L1449.85 39.9662 L1449.85 29.6769 Z" fill="#000000" fill-rule="nonzero" fill-opacity="1" /><path clip-path="url(#clip670)" d="M1531.27 44.2197 Q1533.91 45.1109 1536.38 48.0275 Q1538.89 50.9442 1541.4 56.0483 L1549.7 72.576 L1540.91 72.576 L1533.18 57.061 Q1530.18 50.9847 1527.34 48.9997 Q1524.55 47.0148 1519.69 47.0148 L1510.77 47.0148 L1510.77 72.576 L1502.59 72.576 L1502.59 12.096 L1521.06 12.096 Q1531.43 12.096 1536.54 16.4305 Q1541.64 20.7649 1541.64 29.5149 Q1541.64 35.2267 1538.97 38.994 Q1536.34 42.7613 1531.27 44.2197 M1510.77 18.8205 L1510.77 40.2903 L1521.06 40.2903 Q1526.98 40.2903 1529.98 37.5762 Q1533.01 34.8216 1533.01 29.5149 Q1533.01 24.2082 1529.98 21.5346 Q1526.98 18.8205 1521.06 18.8205 L1510.77 18.8205 Z" fill="#000000" fill-rule="nonzero" fill-opacity="1" /><path clip-path="url(#clip670)" d="M1573.77 32.4315 Q1567.77 32.4315 1564.29 37.1306 Q1560.8 41.7891 1560.8 49.9314 Q1560.8 58.0738 1564.25 62.7728 Q1567.73 67.4314 1573.77 67.4314 Q1579.72 67.4314 1583.2 62.7323 Q1586.69 58.0333 1586.69 49.9314 Q1586.69 41.8701 1583.2 37.1711 Q1579.72 32.4315 1573.77 32.4315 M1573.77 26.1121 Q1583.49 26.1121 1589.04 32.4315 Q1594.59 38.7509 1594.59 49.9314 Q1594.59 61.0714 1589.04 67.4314 Q1583.49 73.7508 1573.77 73.7508 Q1564 73.7508 1558.45 67.4314 Q1552.94 61.0714 1552.94 49.9314 Q1552.94 38.7509 1558.45 32.4315 Q1564 26.1121 1573.77 26.1121 Z" fill="#000000" fill-rule="nonzero" fill-opacity="1" /><path clip-path="url(#clip670)" d="M1636.8 34.0924 L1636.8 9.54393 L1644.25 9.54393 L1644.25 72.576 L1636.8 72.576 L1636.8 65.7705 Q1634.45 69.8214 1630.84 71.8063 Q1627.28 73.7508 1622.26 73.7508 Q1614.03 73.7508 1608.85 67.1883 Q1603.7 60.6258 1603.7 49.9314 Q1603.7 39.2371 1608.85 32.6746 Q1614.03 26.1121 1622.26 26.1121 Q1627.28 26.1121 1630.84 28.0971 Q1634.45 30.0415 1636.8 34.0924 M1611.4 49.9314 Q1611.4 58.1548 1614.76 62.8538 Q1618.16 67.5124 1624.08 67.5124 Q1629.99 67.5124 1633.4 62.8538 Q1636.8 58.1548 1636.8 49.9314 Q1636.8 41.7081 1633.4 37.0496 Q1629.99 32.3505 1624.08 32.3505 Q1618.16 32.3505 1614.76 37.0496 Q1611.4 41.7081 1611.4 49.9314 Z" fill="#000000" fill-rule="nonzero" fill-opacity="1" /><path clip-path="url(#clip670)" d="M1680.22 49.7694 Q1671.19 49.7694 1667.71 51.8354 Q1664.22 53.9013 1664.22 58.8839 Q1664.22 62.8538 1666.82 65.2034 Q1669.45 67.5124 1673.95 67.5124 Q1680.14 67.5124 1683.87 63.1374 Q1687.64 58.7219 1687.64 51.4303 L1687.64 49.7694 L1680.22 49.7694 M1695.09 46.6907 L1695.09 72.576 L1687.64 72.576 L1687.64 65.6895 Q1685.09 69.8214 1681.28 71.8063 Q1677.47 73.7508 1671.96 73.7508 Q1664.99 73.7508 1660.86 69.8619 Q1656.77 65.9325 1656.77 59.3701 Q1656.77 51.7138 1661.87 47.825 Q1667.02 43.9361 1677.19 43.9361 L1687.64 43.9361 L1687.64 43.2069 Q1687.64 38.0623 1684.23 35.2672 Q1680.87 32.4315 1674.76 32.4315 Q1670.87 32.4315 1667.18 33.3632 Q1663.49 34.295 1660.09 36.1584 L1660.09 29.2718 Q1664.18 27.692 1668.03 26.9223 Q1671.88 26.1121 1675.52 26.1121 Q1685.37 26.1121 1690.23 31.2163 Q1695.09 36.3204 1695.09 46.6907 Z" fill="#000000" fill-rule="nonzero" fill-opacity="1" /><path clip-path="url(#clip670)" d="M1739.37 28.5427 L1739.37 35.5912 Q1736.21 33.9709 1732.8 33.1607 Q1729.4 32.3505 1725.76 32.3505 Q1720.21 32.3505 1717.41 34.0519 Q1714.66 35.7533 1714.66 39.156 Q1714.66 41.7486 1716.64 43.2475 Q1718.63 44.7058 1724.62 46.0426 L1727.17 46.6097 Q1735.11 48.3111 1738.44 51.4303 Q1741.8 54.509 1741.8 60.0587 Q1741.8 66.3781 1736.77 70.0644 Q1731.79 73.7508 1723.04 73.7508 Q1719.4 73.7508 1715.43 73.0216 Q1711.5 72.3329 1707.12 70.9151 L1707.12 63.2184 Q1711.25 65.3654 1715.26 66.4591 Q1719.27 67.5124 1723.2 67.5124 Q1728.47 67.5124 1731.31 65.73 Q1734.14 63.9071 1734.14 60.6258 Q1734.14 57.5877 1732.08 55.9673 Q1730.05 54.3469 1723.12 52.8481 L1720.53 52.2405 Q1713.6 50.7821 1710.52 47.7845 Q1707.45 44.7463 1707.45 39.4801 Q1707.45 33.0797 1711.98 29.5959 Q1716.52 26.1121 1724.86 26.1121 Q1729 26.1121 1732.64 26.7198 Q1736.29 27.3274 1739.37 28.5427 Z" fill="#000000" fill-rule="nonzero" fill-opacity="1" /><path clip-path="url(#clip670)" d="M1777.2 19.2256 L1756.54 51.5113 L1777.2 51.5113 L1777.2 19.2256 M1775.06 12.096 L1785.34 12.096 L1785.34 51.5113 L1793.97 51.5113 L1793.97 58.3168 L1785.34 58.3168 L1785.34 72.576 L1777.2 72.576 L1777.2 58.3168 L1749.9 58.3168 L1749.9 50.4176 L1775.06 12.096 Z" fill="#000000" fill-rule="nonzero" fill-opacity="1" /><path clip-path="url(#clip670)" d="M1814.96 18.8205 L1814.96 41.5461 L1825.25 41.5461 Q1830.96 41.5461 1834.08 38.5889 Q1837.2 35.6318 1837.2 30.163 Q1837.2 24.7348 1834.08 21.7777 Q1830.96 18.8205 1825.25 18.8205 L1814.96 18.8205 M1806.77 12.096 L1825.25 12.096 Q1835.41 12.096 1840.6 16.714 Q1845.82 21.2916 1845.82 30.163 Q1845.82 39.1155 1840.6 43.6931 Q1835.41 48.2706 1825.25 48.2706 L1814.96 48.2706 L1814.96 72.576 L1806.77 72.576 L1806.77 12.096 Z" fill="#000000" fill-rule="nonzero" fill-opacity="1" /><polyline clip-path="url(#clip672)" style="stroke:#009af9; stroke-linecap:round; stroke-linejoin:round; stroke-width:12; stroke-opacity:1; fill:none" points="1328.01,1216.33 1115.2,975.753 899.82,729.951 649.082,472.672 409.926,205.311 "/>
<line clip-path="url(#clip672)" x1="1328.01" y1="1216.33" x2="1328.01" y2="1200.33" style="stroke:#009af9; stroke-width:12; stroke-opacity:1"/>
<line clip-path="url(#clip672)" x1="1328.01" y1="1216.33" x2="1312.01" y2="1216.33" style="stroke:#009af9; stroke-width:12; stroke-opacity:1"/>
<line clip-path="url(#clip672)" x1="1328.01" y1="1216.33" x2="1328.01" y2="1232.33" style="stroke:#009af9; stroke-width:12; stroke-opacity:1"/>
<line clip-path="url(#clip672)" x1="1328.01" y1="1216.33" x2="1344.01" y2="1216.33" style="stroke:#009af9; stroke-width:12; stroke-opacity:1"/>
<line clip-path="url(#clip672)" x1="1115.2" y1="975.753" x2="1115.2" y2="959.753" style="stroke:#009af9; stroke-width:12; stroke-opacity:1"/>
<line clip-path="url(#clip672)" x1="1115.2" y1="975.753" x2="1099.2" y2="975.753" style="stroke:#009af9; stroke-width:12; stroke-opacity:1"/>
<line clip-path="url(#clip672)" x1="1115.2" y1="975.753" x2="1115.2" y2="991.753" style="stroke:#009af9; stroke-width:12; stroke-opacity:1"/>
<line clip-path="url(#clip672)" x1="1115.2" y1="975.753" x2="1131.2" y2="975.753" style="stroke:#009af9; stroke-width:12; stroke-opacity:1"/>
<line clip-path="url(#clip672)" x1="899.82" y1="729.951" x2="899.82" y2="713.951" style="stroke:#009af9; stroke-width:12; stroke-opacity:1"/>
<line clip-path="url(#clip672)" x1="899.82" y1="729.951" x2="883.82" y2="729.951" style="stroke:#009af9; stroke-width:12; stroke-opacity:1"/>
<line clip-path="url(#clip672)" x1="899.82" y1="729.951" x2="899.82" y2="745.951" style="stroke:#009af9; stroke-width:12; stroke-opacity:1"/>
<line clip-path="url(#clip672)" x1="899.82" y1="729.951" x2="915.82" y2="729.951" style="stroke:#009af9; stroke-width:12; stroke-opacity:1"/>
<line clip-path="url(#clip672)" x1="649.082" y1="472.672" x2="649.082" y2="456.672" style="stroke:#009af9; stroke-width:12; stroke-opacity:1"/>
<line clip-path="url(#clip672)" x1="649.082" y1="472.672" x2="633.082" y2="472.672" style="stroke:#009af9; stroke-width:12; stroke-opacity:1"/>
<line clip-path="url(#clip672)" x1="649.082" y1="472.672" x2="649.082" y2="488.672" style="stroke:#009af9; stroke-width:12; stroke-opacity:1"/>
<line clip-path="url(#clip672)" x1="649.082" y1="472.672" x2="665.082" y2="472.672" style="stroke:#009af9; stroke-width:12; stroke-opacity:1"/>
<line clip-path="url(#clip672)" x1="409.926" y1="205.311" x2="409.926" y2="189.311" style="stroke:#009af9; stroke-width:12; stroke-opacity:1"/>
<line clip-path="url(#clip672)" x1="409.926" y1="205.311" x2="393.926" y2="205.311" style="stroke:#009af9; stroke-width:12; stroke-opacity:1"/>
<line clip-path="url(#clip672)" x1="409.926" y1="205.311" x2="409.926" y2="221.311" style="stroke:#009af9; stroke-width:12; stroke-opacity:1"/>
<line clip-path="url(#clip672)" x1="409.926" y1="205.311" x2="425.926" y2="205.311" style="stroke:#009af9; stroke-width:12; stroke-opacity:1"/>
<polyline clip-path="url(#clip672)" style="stroke:#e26f46; stroke-linecap:round; stroke-linejoin:round; stroke-width:12; stroke-opacity:1; fill:none" points="2465.84,1337.53 2466.4,1187.8 2436.87,1013.31 2442.83,790.843 2221.92,538.801 "/>
<circle clip-path="url(#clip672)" cx="2465.84" cy="1337.53" r="14.4" fill="#e26f46" fill-rule="evenodd" fill-opacity="1" stroke="#000000" stroke-opacity="1" stroke-width="3.2"/>
<circle clip-path="url(#clip672)" cx="2466.4" cy="1187.8" r="14.4" fill="#e26f46" fill-rule="evenodd" fill-opacity="1" stroke="#000000" stroke-opacity="1" stroke-width="3.2"/>
<circle clip-path="url(#clip672)" cx="2436.87" cy="1013.31" r="14.4" fill="#e26f46" fill-rule="evenodd" fill-opacity="1" stroke="#000000" stroke-opacity="1" stroke-width="3.2"/>
<circle clip-path="url(#clip672)" cx="2442.83" cy="790.843" r="14.4" fill="#e26f46" fill-rule="evenodd" fill-opacity="1" stroke="#000000" stroke-opacity="1" stroke-width="3.2"/>
<circle clip-path="url(#clip672)" cx="2221.92" cy="538.801" r="14.4" fill="#e26f46" fill-rule="evenodd" fill-opacity="1" stroke="#000000" stroke-opacity="1" stroke-width="3.2"/>
<polyline clip-path="url(#clip672)" style="stroke:#3da44d; stroke-linecap:round; stroke-linejoin:round; stroke-width:12; stroke-opacity:1; fill:none" points="1733.71,1217.1 1559.14,1035.56 1370.56,824.954 1167.93,613.302 953.367,401.828 "/>
<line clip-path="url(#clip672)" x1="1733.71" y1="1217.1" x2="1733.71" y2="1201.1" style="stroke:#3da44d; stroke-width:12; stroke-opacity:1"/>
<line clip-path="url(#clip672)" x1="1733.71" y1="1217.1" x2="1717.71" y2="1217.1" style="stroke:#3da44d; stroke-width:12; stroke-opacity:1"/>
<line clip-path="url(#clip672)" x1="1733.71" y1="1217.1" x2="1733.71" y2="1233.1" style="stroke:#3da44d; stroke-width:12; stroke-opacity:1"/>
<line clip-path="url(#clip672)" x1="1733.71" y1="1217.1" x2="1749.71" y2="1217.1" style="stroke:#3da44d; stroke-width:12; stroke-opacity:1"/>
<line clip-path="url(#clip672)" x1="1559.14" y1="1035.56" x2="1559.14" y2="1019.56" style="stroke:#3da44d; stroke-width:12; stroke-opacity:1"/>
<line clip-path="url(#clip672)" x1="1559.14" y1="1035.56" x2="1543.14" y2="1035.56" style="stroke:#3da44d; stroke-width:12; stroke-opacity:1"/>
<line clip-path="url(#clip672)" x1="1559.14" y1="1035.56" x2="1559.14" y2="1051.56" style="stroke:#3da44d; stroke-width:12; stroke-opacity:1"/>
<line clip-path="url(#clip672)" x1="1559.14" y1="1035.56" x2="1575.14" y2="1035.56" style="stroke:#3da44d; stroke-width:12; stroke-opacity:1"/>
<line clip-path="url(#clip672)" x1="1370.56" y1="824.954" x2="1370.56" y2="808.954" style="stroke:#3da44d; stroke-width:12; stroke-opacity:1"/>
<line clip-path="url(#clip672)" x1="1370.56" y1="824.954" x2="1354.56" y2="824.954" style="stroke:#3da44d; stroke-width:12; stroke-opacity:1"/>
<line clip-path="url(#clip672)" x1="1370.56" y1="824.954" x2="1370.56" y2="840.954" style="stroke:#3da44d; stroke-width:12; stroke-opacity:1"/>
<line clip-path="url(#clip672)" x1="1370.56" y1="824.954" x2="1386.56" y2="824.954" style="stroke:#3da44d; stroke-width:12; stroke-opacity:1"/>
<line clip-path="url(#clip672)" x1="1167.93" y1="613.302" x2="1167.93" y2="597.302" style="stroke:#3da44d; stroke-width:12; stroke-opacity:1"/>
<line clip-path="url(#clip672)" x1="1167.93" y1="613.302" x2="1151.93" y2="613.302" style="stroke:#3da44d; stroke-width:12; stroke-opacity:1"/>
<line clip-path="url(#clip672)" x1="1167.93" y1="613.302" x2="1167.93" y2="629.302" style="stroke:#3da44d; stroke-width:12; stroke-opacity:1"/>
<line clip-path="url(#clip672)" x1="1167.93" y1="613.302" x2="1183.93" y2="613.302" style="stroke:#3da44d; stroke-width:12; stroke-opacity:1"/>
<line clip-path="url(#clip672)" x1="953.367" y1="401.828" x2="953.367" y2="385.828" style="stroke:#3da44d; stroke-width:12; stroke-opacity:1"/>
<line clip-path="url(#clip672)" x1="953.367" y1="401.828" x2="937.367" y2="401.828" style="stroke:#3da44d; stroke-width:12; stroke-opacity:1"/>
<line clip-path="url(#clip672)" x1="953.367" y1="401.828" x2="953.367" y2="417.828" style="stroke:#3da44d; stroke-width:12; stroke-opacity:1"/>
<line clip-path="url(#clip672)" x1="953.367" y1="401.828" x2="969.367" y2="401.828" style="stroke:#3da44d; stroke-width:12; stroke-opacity:1"/>
<polyline clip-path="url(#clip672)" style="stroke:#c271d2; stroke-linecap:round; stroke-linejoin:round; stroke-width:12; stroke-opacity:1; fill:none" points="1672,1220.7 1477.17,1052.43 1295.83,873.963 1108.78,689.984 909.464,495.614 "/>
<path clip-path="url(#clip672)" d="M1672 1204.7 L1656 1220.7 L1672 1236.7 L1688 1220.7 L1672 1204.7 Z" fill="#c271d2" fill-rule="evenodd" fill-opacity="1" stroke="#000000" stroke-opacity="1" stroke-width="3.2"/>
<path clip-path="url(#clip672)" d="M1477.17 1036.43 L1461.17 1052.43 L1477.17 1068.43 L1493.17 1052.43 L1477.17 1036.43 Z" fill="#c271d2" fill-rule="evenodd" fill-opacity="1" stroke="#000000" stroke-opacity="1" stroke-width="3.2"/>
<path clip-path="url(#clip672)" d="M1295.83 857.963 L1279.83 873.963 L1295.83 889.963 L1311.83 873.963 L1295.83 857.963 Z" fill="#c271d2" fill-rule="evenodd" fill-opacity="1" stroke="#000000" stroke-opacity="1" stroke-width="3.2"/>
<path clip-path="url(#clip672)" d="M1108.78 673.984 L1092.78 689.984 L1108.78 705.984 L1124.78 689.984 L1108.78 673.984 Z" fill="#c271d2" fill-rule="evenodd" fill-opacity="1" stroke="#000000" stroke-opacity="1" stroke-width="3.2"/>
<path clip-path="url(#clip672)" d="M909.464 479.614 L893.464 495.614 L909.464 511.614 L925.464 495.614 L909.464 479.614 Z" fill="#c271d2" fill-rule="evenodd" fill-opacity="1" stroke="#000000" stroke-opacity="1" stroke-width="3.2"/>
<path clip-path="url(#clip670)" d="M2619.48 915.105 L3089.76 915.105 L3089.76 655.905 L2619.48 655.905  Z" fill="#ffffff" fill-rule="evenodd" fill-opacity="1"/>
<polyline clip-path="url(#clip670)" style="stroke:#000000; stroke-linecap:round; stroke-linejoin:round; stroke-width:4; stroke-opacity:1; fill:none" points="2619.48,915.105 3089.76,915.105 3089.76,655.905 2619.48,655.905 2619.48,915.105 "/>
<polyline clip-path="url(#clip670)" style="stroke:#009af9; stroke-linecap:round; stroke-linejoin:round; stroke-width:12; stroke-opacity:1; fill:none" points="2649.94,707.745 2832.71,707.745 "/>
<line clip-path="url(#clip670)" x1="2741.32" y1="707.745" x2="2741.32" y2="684.989" style="stroke:#009af9; stroke-width:12; stroke-opacity:1"/>
<line clip-path="url(#clip670)" x1="2741.32" y1="707.745" x2="2718.57" y2="707.745" style="stroke:#009af9; stroke-width:12; stroke-opacity:1"/>
<line clip-path="url(#clip670)" x1="2741.32" y1="707.745" x2="2741.32" y2="730.5" style="stroke:#009af9; stroke-width:12; stroke-opacity:1"/>
<line clip-path="url(#clip670)" x1="2741.32" y1="707.745" x2="2764.08" y2="707.745" style="stroke:#009af9; stroke-width:12; stroke-opacity:1"/>
<path clip-path="url(#clip670)" d="M2879.56 708.821 Q2881.06 709.33 2882.47 710.997 Q2883.91 712.664 2885.34 715.58 L2890.09 725.025 L2885.07 725.025 L2880.65 716.159 Q2878.93 712.687 2877.31 711.553 Q2875.72 710.418 2872.94 710.418 L2867.85 710.418 L2867.85 725.025 L2863.17 725.025 L2863.17 690.465 L2873.72 690.465 Q2879.65 690.465 2882.57 692.942 Q2885.48 695.418 2885.48 700.418 Q2885.48 703.682 2883.96 705.835 Q2882.45 707.988 2879.56 708.821 M2867.85 694.307 L2867.85 706.576 L2873.72 706.576 Q2877.1 706.576 2878.82 705.025 Q2880.55 703.451 2880.55 700.418 Q2880.55 697.386 2878.82 695.858 Q2877.1 694.307 2873.72 694.307 L2867.85 694.307 Z" fill="#000000" fill-rule="nonzero" fill-opacity="1" /><path clip-path="url(#clip670)" d="M2903.84 702.085 Q2900.41 702.085 2898.42 704.77 Q2896.43 707.432 2896.43 712.085 Q2896.43 716.738 2898.4 719.423 Q2900.39 722.085 2903.84 722.085 Q2907.24 722.085 2909.23 719.4 Q2911.22 716.715 2911.22 712.085 Q2911.22 707.479 2909.23 704.793 Q2907.24 702.085 2903.84 702.085 M2903.84 698.474 Q2909.4 698.474 2912.57 702.085 Q2915.74 705.696 2915.74 712.085 Q2915.74 718.451 2912.57 722.085 Q2909.4 725.696 2903.84 725.696 Q2898.26 725.696 2895.09 722.085 Q2891.94 718.451 2891.94 712.085 Q2891.94 705.696 2895.09 702.085 Q2898.26 698.474 2903.84 698.474 Z" fill="#000000" fill-rule="nonzero" fill-opacity="1" /><path clip-path="url(#clip670)" d="M2939.86 703.034 L2939.86 689.006 L2944.12 689.006 L2944.12 725.025 L2939.86 725.025 L2939.86 721.136 Q2938.52 723.451 2936.46 724.585 Q2934.42 725.696 2931.55 725.696 Q2926.85 725.696 2923.89 721.946 Q2920.95 718.196 2920.95 712.085 Q2920.95 705.974 2923.89 702.224 Q2926.85 698.474 2931.55 698.474 Q2934.42 698.474 2936.46 699.608 Q2938.52 700.719 2939.86 703.034 M2925.34 712.085 Q2925.34 716.784 2927.27 719.469 Q2929.21 722.131 2932.59 722.131 Q2935.97 722.131 2937.91 719.469 Q2939.86 716.784 2939.86 712.085 Q2939.86 707.386 2937.91 704.724 Q2935.97 702.039 2932.59 702.039 Q2929.21 702.039 2927.27 704.724 Q2925.34 707.386 2925.34 712.085 Z" fill="#000000" fill-rule="nonzero" fill-opacity="1" /><path clip-path="url(#clip670)" d="M2964.67 711.992 Q2959.51 711.992 2957.52 713.173 Q2955.53 714.354 2955.53 717.201 Q2955.53 719.469 2957.01 720.812 Q2958.52 722.131 2961.09 722.131 Q2964.63 722.131 2966.76 719.631 Q2968.91 717.108 2968.91 712.942 L2968.91 711.992 L2964.67 711.992 M2973.17 710.233 L2973.17 725.025 L2968.91 725.025 L2968.91 721.09 Q2967.45 723.451 2965.28 724.585 Q2963.1 725.696 2959.95 725.696 Q2955.97 725.696 2953.61 723.474 Q2951.27 721.229 2951.27 717.479 Q2951.27 713.104 2954.19 710.881 Q2957.13 708.659 2962.94 708.659 L2968.91 708.659 L2968.91 708.243 Q2968.91 705.303 2966.96 703.705 Q2965.04 702.085 2961.55 702.085 Q2959.33 702.085 2957.22 702.618 Q2955.11 703.15 2953.17 704.215 L2953.17 700.28 Q2955.51 699.377 2957.71 698.937 Q2959.9 698.474 2961.99 698.474 Q2967.61 698.474 2970.39 701.391 Q2973.17 704.307 2973.17 710.233 Z" fill="#000000" fill-rule="nonzero" fill-opacity="1" /><path clip-path="url(#clip670)" d="M2998.47 699.863 L2998.47 703.891 Q2996.66 702.965 2994.72 702.502 Q2992.77 702.039 2990.69 702.039 Q2987.52 702.039 2985.92 703.011 Q2984.35 703.983 2984.35 705.928 Q2984.35 707.409 2985.48 708.266 Q2986.62 709.099 2990.04 709.863 L2991.5 710.187 Q2996.04 711.159 2997.94 712.942 Q2999.86 714.701 2999.86 717.872 Q2999.86 721.483 2996.99 723.59 Q2994.14 725.696 2989.14 725.696 Q2987.06 725.696 2984.79 725.279 Q2982.54 724.886 2980.04 724.076 L2980.04 719.678 Q2982.4 720.904 2984.7 721.529 Q2986.99 722.131 2989.23 722.131 Q2992.24 722.131 2993.86 721.113 Q2995.48 720.071 2995.48 718.196 Q2995.48 716.46 2994.3 715.534 Q2993.15 714.608 2989.19 713.752 L2987.71 713.405 Q2983.75 712.571 2981.99 710.858 Q2980.23 709.122 2980.23 706.113 Q2980.23 702.455 2982.82 700.465 Q2985.41 698.474 2990.18 698.474 Q2992.54 698.474 2994.63 698.821 Q2996.71 699.168 2998.47 699.863 Z" fill="#000000" fill-rule="nonzero" fill-opacity="1" /><path clip-path="url(#clip670)" d="M3020.09 694.539 L3008.28 712.988 L3020.09 712.988 L3020.09 694.539 M3018.86 690.465 L3024.74 690.465 L3024.74 712.988 L3029.67 712.988 L3029.67 716.877 L3024.74 716.877 L3024.74 725.025 L3020.09 725.025 L3020.09 716.877 L3004.49 716.877 L3004.49 712.363 L3018.86 690.465 Z" fill="#000000" fill-rule="nonzero" fill-opacity="1" /><polyline clip-path="url(#clip670)" style="stroke:#e26f46; stroke-linecap:round; stroke-linejoin:round; stroke-width:12; stroke-opacity:1; fill:none" points="2649.94,759.585 2832.71,759.585 "/>
<circle clip-path="url(#clip670)" cx="2741.32" cy="759.585" r="20.48" fill="#e26f46" fill-rule="evenodd" fill-opacity="1" stroke="#000000" stroke-opacity="1" stroke-width="4.55111"/>
<path clip-path="url(#clip670)" d="M2879.56 760.661 Q2881.06 761.17 2882.47 762.837 Q2883.91 764.504 2885.34 767.42 L2890.09 776.865 L2885.07 776.865 L2880.65 767.999 Q2878.93 764.527 2877.31 763.393 Q2875.72 762.258 2872.94 762.258 L2867.85 762.258 L2867.85 776.865 L2863.17 776.865 L2863.17 742.305 L2873.72 742.305 Q2879.65 742.305 2882.57 744.782 Q2885.48 747.258 2885.48 752.258 Q2885.48 755.522 2883.96 757.675 Q2882.45 759.828 2879.56 760.661 M2867.85 746.147 L2867.85 758.416 L2873.72 758.416 Q2877.1 758.416 2878.82 756.865 Q2880.55 755.291 2880.55 752.258 Q2880.55 749.226 2878.82 747.698 Q2877.1 746.147 2873.72 746.147 L2867.85 746.147 Z" fill="#000000" fill-rule="nonzero" fill-opacity="1" /><path clip-path="url(#clip670)" d="M2903.84 753.925 Q2900.41 753.925 2898.42 756.61 Q2896.43 759.272 2896.43 763.925 Q2896.43 768.578 2898.4 771.263 Q2900.39 773.925 2903.84 773.925 Q2907.24 773.925 2909.23 771.24 Q2911.22 768.555 2911.22 763.925 Q2911.22 759.319 2909.23 756.633 Q2907.24 753.925 2903.84 753.925 M2903.84 750.314 Q2909.4 750.314 2912.57 753.925 Q2915.74 757.536 2915.74 763.925 Q2915.74 770.291 2912.57 773.925 Q2909.4 777.536 2903.84 777.536 Q2898.26 777.536 2895.09 773.925 Q2891.94 770.291 2891.94 763.925 Q2891.94 757.536 2895.09 753.925 Q2898.26 750.314 2903.84 750.314 Z" fill="#000000" fill-rule="nonzero" fill-opacity="1" /><path clip-path="url(#clip670)" d="M2939.86 754.874 L2939.86 740.846 L2944.12 740.846 L2944.12 776.865 L2939.86 776.865 L2939.86 772.976 Q2938.52 775.291 2936.46 776.425 Q2934.42 777.536 2931.55 777.536 Q2926.85 777.536 2923.89 773.786 Q2920.95 770.036 2920.95 763.925 Q2920.95 757.814 2923.89 754.064 Q2926.85 750.314 2931.55 750.314 Q2934.42 750.314 2936.46 751.448 Q2938.52 752.559 2939.86 754.874 M2925.34 763.925 Q2925.34 768.624 2927.27 771.309 Q2929.21 773.971 2932.59 773.971 Q2935.97 773.971 2937.91 771.309 Q2939.86 768.624 2939.86 763.925 Q2939.86 759.226 2937.91 756.564 Q2935.97 753.879 2932.59 753.879 Q2929.21 753.879 2927.27 756.564 Q2925.34 759.226 2925.34 763.925 Z" fill="#000000" fill-rule="nonzero" fill-opacity="1" /><path clip-path="url(#clip670)" d="M2964.67 763.832 Q2959.51 763.832 2957.52 765.013 Q2955.53 766.194 2955.53 769.041 Q2955.53 771.309 2957.01 772.652 Q2958.52 773.971 2961.09 773.971 Q2964.63 773.971 2966.76 771.471 Q2968.91 768.948 2968.91 764.782 L2968.91 763.832 L2964.67 763.832 M2973.17 762.073 L2973.17 776.865 L2968.91 776.865 L2968.91 772.93 Q2967.45 775.291 2965.28 776.425 Q2963.1 777.536 2959.95 777.536 Q2955.97 777.536 2953.61 775.314 Q2951.27 773.069 2951.27 769.319 Q2951.27 764.944 2954.19 762.721 Q2957.13 760.499 2962.94 760.499 L2968.91 760.499 L2968.91 760.083 Q2968.91 757.143 2966.96 755.545 Q2965.04 753.925 2961.55 753.925 Q2959.33 753.925 2957.22 754.458 Q2955.11 754.99 2953.17 756.055 L2953.17 752.12 Q2955.51 751.217 2957.71 750.777 Q2959.9 750.314 2961.99 750.314 Q2967.61 750.314 2970.39 753.231 Q2973.17 756.147 2973.17 762.073 Z" fill="#000000" fill-rule="nonzero" fill-opacity="1" /><path clip-path="url(#clip670)" d="M2998.47 751.703 L2998.47 755.731 Q2996.66 754.805 2994.72 754.342 Q2992.77 753.879 2990.69 753.879 Q2987.52 753.879 2985.92 754.851 Q2984.35 755.823 2984.35 757.768 Q2984.35 759.249 2985.48 760.106 Q2986.62 760.939 2990.04 761.703 L2991.5 762.027 Q2996.04 762.999 2997.94 764.782 Q2999.86 766.541 2999.86 769.712 Q2999.86 773.323 2996.99 775.43 Q2994.14 777.536 2989.14 777.536 Q2987.06 777.536 2984.79 777.119 Q2982.54 776.726 2980.04 775.916 L2980.04 771.518 Q2982.4 772.744 2984.7 773.369 Q2986.99 773.971 2989.23 773.971 Q2992.24 773.971 2993.86 772.953 Q2995.48 771.911 2995.48 770.036 Q2995.48 768.3 2994.3 767.374 Q2993.15 766.448 2989.19 765.592 L2987.71 765.245 Q2983.75 764.411 2981.99 762.698 Q2980.23 760.962 2980.23 757.953 Q2980.23 754.295 2982.82 752.305 Q2985.41 750.314 2990.18 750.314 Q2992.54 750.314 2994.63 750.661 Q2996.71 751.008 2998.47 751.703 Z" fill="#000000" fill-rule="nonzero" fill-opacity="1" /><path clip-path="url(#clip670)" d="M3007.29 742.305 L3025.65 742.305 L3025.65 746.24 L3011.57 746.24 L3011.57 754.712 Q3012.59 754.365 3013.61 754.203 Q3014.63 754.018 3015.65 754.018 Q3021.43 754.018 3024.81 757.189 Q3028.19 760.36 3028.19 765.777 Q3028.19 771.356 3024.72 774.457 Q3021.25 777.536 3014.93 777.536 Q3012.75 777.536 3010.48 777.166 Q3008.24 776.795 3005.83 776.055 L3005.83 771.356 Q3007.91 772.49 3010.14 773.045 Q3012.36 773.601 3014.83 773.601 Q3018.84 773.601 3021.18 771.494 Q3023.52 769.388 3023.52 765.777 Q3023.52 762.166 3021.18 760.059 Q3018.84 757.953 3014.83 757.953 Q3012.96 757.953 3011.08 758.37 Q3009.23 758.786 3007.29 759.666 L3007.29 742.305 Z" fill="#000000" fill-rule="nonzero" fill-opacity="1" /><polyline clip-path="url(#clip670)" style="stroke:#3da44d; stroke-linecap:round; stroke-linejoin:round; stroke-width:12; stroke-opacity:1; fill:none" points="2649.94,811.425 2832.71,811.425 "/>
<line clip-path="url(#clip670)" x1="2741.32" y1="811.425" x2="2741.32" y2="788.669" style="stroke:#3da44d; stroke-width:12; stroke-opacity:1"/>
<line clip-path="url(#clip670)" x1="2741.32" y1="811.425" x2="2718.57" y2="811.425" style="stroke:#3da44d; stroke-width:12; stroke-opacity:1"/>
<line clip-path="url(#clip670)" x1="2741.32" y1="811.425" x2="2741.32" y2="834.18" style="stroke:#3da44d; stroke-width:12; stroke-opacity:1"/>
<line clip-path="url(#clip670)" x1="2741.32" y1="811.425" x2="2764.08" y2="811.425" style="stroke:#3da44d; stroke-width:12; stroke-opacity:1"/>
<path clip-path="url(#clip670)" d="M2879.56 812.501 Q2881.06 813.01 2882.47 814.677 Q2883.91 816.344 2885.34 819.26 L2890.09 828.705 L2885.07 828.705 L2880.65 819.839 Q2878.93 816.367 2877.31 815.233 Q2875.72 814.098 2872.94 814.098 L2867.85 814.098 L2867.85 828.705 L2863.17 828.705 L2863.17 794.145 L2873.72 794.145 Q2879.65 794.145 2882.57 796.622 Q2885.48 799.098 2885.48 804.098 Q2885.48 807.362 2883.96 809.515 Q2882.45 811.668 2879.56 812.501 M2867.85 797.987 L2867.85 810.256 L2873.72 810.256 Q2877.1 810.256 2878.82 808.705 Q2880.55 807.131 2880.55 804.098 Q2880.55 801.066 2878.82 799.538 Q2877.1 797.987 2873.72 797.987 L2867.85 797.987 Z" fill="#000000" fill-rule="nonzero" fill-opacity="1" /><path clip-path="url(#clip670)" d="M2903.84 805.765 Q2900.41 805.765 2898.42 808.45 Q2896.43 811.112 2896.43 815.765 Q2896.43 820.418 2898.4 823.103 Q2900.39 825.765 2903.84 825.765 Q2907.24 825.765 2909.23 823.08 Q2911.22 820.395 2911.22 815.765 Q2911.22 811.159 2909.23 808.473 Q2907.24 805.765 2903.84 805.765 M2903.84 802.154 Q2909.4 802.154 2912.57 805.765 Q2915.74 809.376 2915.74 815.765 Q2915.74 822.131 2912.57 825.765 Q2909.4 829.376 2903.84 829.376 Q2898.26 829.376 2895.09 825.765 Q2891.94 822.131 2891.94 815.765 Q2891.94 809.376 2895.09 805.765 Q2898.26 802.154 2903.84 802.154 Z" fill="#000000" fill-rule="nonzero" fill-opacity="1" /><path clip-path="url(#clip670)" d="M2939.86 806.714 L2939.86 792.686 L2944.12 792.686 L2944.12 828.705 L2939.86 828.705 L2939.86 824.816 Q2938.52 827.131 2936.46 828.265 Q2934.42 829.376 2931.55 829.376 Q2926.85 829.376 2923.89 825.626 Q2920.95 821.876 2920.95 815.765 Q2920.95 809.654 2923.89 805.904 Q2926.85 802.154 2931.55 802.154 Q2934.42 802.154 2936.46 803.288 Q2938.52 804.399 2939.86 806.714 M2925.34 815.765 Q2925.34 820.464 2927.27 823.149 Q2929.21 825.811 2932.59 825.811 Q2935.97 825.811 2937.91 823.149 Q2939.86 820.464 2939.86 815.765 Q2939.86 811.066 2937.91 808.404 Q2935.97 805.719 2932.59 805.719 Q2929.21 805.719 2927.27 808.404 Q2925.34 811.066 2925.34 815.765 Z" fill="#000000" fill-rule="nonzero" fill-opacity="1" /><path clip-path="url(#clip670)" d="M2964.67 815.672 Q2959.51 815.672 2957.52 816.853 Q2955.53 818.034 2955.53 820.881 Q2955.53 823.149 2957.01 824.492 Q2958.52 825.811 2961.09 825.811 Q2964.63 825.811 2966.76 823.311 Q2968.91 820.788 2968.91 816.622 L2968.91 815.672 L2964.67 815.672 M2973.17 813.913 L2973.17 828.705 L2968.91 828.705 L2968.91 824.77 Q2967.45 827.131 2965.28 828.265 Q2963.1 829.376 2959.95 829.376 Q2955.97 829.376 2953.61 827.154 Q2951.27 824.909 2951.27 821.159 Q2951.27 816.784 2954.19 814.561 Q2957.13 812.339 2962.94 812.339 L2968.91 812.339 L2968.91 811.923 Q2968.91 808.983 2966.96 807.385 Q2965.04 805.765 2961.55 805.765 Q2959.33 805.765 2957.22 806.298 Q2955.11 806.83 2953.17 807.895 L2953.17 803.96 Q2955.51 803.057 2957.71 802.617 Q2959.9 802.154 2961.99 802.154 Q2967.61 802.154 2970.39 805.071 Q2973.17 807.987 2973.17 813.913 Z" fill="#000000" fill-rule="nonzero" fill-opacity="1" /><path clip-path="url(#clip670)" d="M2998.47 803.543 L2998.47 807.571 Q2996.66 806.645 2994.72 806.182 Q2992.77 805.719 2990.69 805.719 Q2987.52 805.719 2985.92 806.691 Q2984.35 807.663 2984.35 809.608 Q2984.35 811.089 2985.48 811.946 Q2986.62 812.779 2990.04 813.543 L2991.5 813.867 Q2996.04 814.839 2997.94 816.622 Q2999.86 818.381 2999.86 821.552 Q2999.86 825.163 2996.99 827.27 Q2994.14 829.376 2989.14 829.376 Q2987.06 829.376 2984.79 828.959 Q2982.54 828.566 2980.04 827.756 L2980.04 823.358 Q2982.4 824.584 2984.7 825.209 Q2986.99 825.811 2989.23 825.811 Q2992.24 825.811 2993.86 824.793 Q2995.48 823.751 2995.48 821.876 Q2995.48 820.14 2994.3 819.214 Q2993.15 818.288 2989.19 817.432 L2987.71 817.085 Q2983.75 816.251 2981.99 814.538 Q2980.23 812.802 2980.23 809.793 Q2980.23 806.135 2982.82 804.145 Q2985.41 802.154 2990.18 802.154 Q2992.54 802.154 2994.63 802.501 Q2996.71 802.848 2998.47 803.543 Z" fill="#000000" fill-rule="nonzero" fill-opacity="1" /><path clip-path="url(#clip670)" d="M3020.09 798.219 L3008.28 816.668 L3020.09 816.668 L3020.09 798.219 M3018.86 794.145 L3024.74 794.145 L3024.74 816.668 L3029.67 816.668 L3029.67 820.557 L3024.74 820.557 L3024.74 828.705 L3020.09 828.705 L3020.09 820.557 L3004.49 820.557 L3004.49 816.043 L3018.86 794.145 Z" fill="#000000" fill-rule="nonzero" fill-opacity="1" /><path clip-path="url(#clip670)" d="M3041.66 797.987 L3041.66 810.973 L3047.54 810.973 Q3050.81 810.973 3052.59 809.284 Q3054.37 807.594 3054.37 804.469 Q3054.37 801.367 3052.59 799.677 Q3050.81 797.987 3047.54 797.987 L3041.66 797.987 M3036.99 794.145 L3047.54 794.145 Q3053.35 794.145 3056.32 796.784 Q3059.3 799.399 3059.3 804.469 Q3059.3 809.585 3056.32 812.2 Q3053.35 814.816 3047.54 814.816 L3041.66 814.816 L3041.66 828.705 L3036.99 828.705 L3036.99 794.145 Z" fill="#000000" fill-rule="nonzero" fill-opacity="1" /><polyline clip-path="url(#clip670)" style="stroke:#c271d2; stroke-linecap:round; stroke-linejoin:round; stroke-width:12; stroke-opacity:1; fill:none" points="2649.94,863.265 2832.71,863.265 "/>
<path clip-path="url(#clip670)" d="M2741.32 840.509 L2718.57 863.265 L2741.32 886.02 L2764.08 863.265 L2741.32 840.509 Z" fill="#c271d2" fill-rule="evenodd" fill-opacity="1" stroke="#000000" stroke-opacity="1" stroke-width="4.55111"/>
<path clip-path="url(#clip670)" d="M2879.56 864.341 Q2881.06 864.85 2882.47 866.517 Q2883.91 868.184 2885.34 871.1 L2890.09 880.545 L2885.07 880.545 L2880.65 871.679 Q2878.93 868.207 2877.31 867.073 Q2875.72 865.938 2872.94 865.938 L2867.85 865.938 L2867.85 880.545 L2863.17 880.545 L2863.17 845.985 L2873.72 845.985 Q2879.65 845.985 2882.57 848.462 Q2885.48 850.938 2885.48 855.938 Q2885.48 859.202 2883.96 861.355 Q2882.45 863.508 2879.56 864.341 M2867.85 849.827 L2867.85 862.096 L2873.72 862.096 Q2877.1 862.096 2878.82 860.545 Q2880.55 858.971 2880.55 855.938 Q2880.55 852.906 2878.82 851.378 Q2877.1 849.827 2873.72 849.827 L2867.85 849.827 Z" fill="#000000" fill-rule="nonzero" fill-opacity="1" /><path clip-path="url(#clip670)" d="M2903.84 857.605 Q2900.41 857.605 2898.42 860.29 Q2896.43 862.952 2896.43 867.605 Q2896.43 872.258 2898.4 874.943 Q2900.39 877.605 2903.84 877.605 Q2907.24 877.605 2909.23 874.92 Q2911.22 872.235 2911.22 867.605 Q2911.22 862.999 2909.23 860.313 Q2907.24 857.605 2903.84 857.605 M2903.84 853.994 Q2909.4 853.994 2912.57 857.605 Q2915.74 861.216 2915.74 867.605 Q2915.74 873.971 2912.57 877.605 Q2909.4 881.216 2903.84 881.216 Q2898.26 881.216 2895.09 877.605 Q2891.94 873.971 2891.94 867.605 Q2891.94 861.216 2895.09 857.605 Q2898.26 853.994 2903.84 853.994 Z" fill="#000000" fill-rule="nonzero" fill-opacity="1" /><path clip-path="url(#clip670)" d="M2939.86 858.554 L2939.86 844.526 L2944.12 844.526 L2944.12 880.545 L2939.86 880.545 L2939.86 876.656 Q2938.52 878.971 2936.46 880.105 Q2934.42 881.216 2931.55 881.216 Q2926.85 881.216 2923.89 877.466 Q2920.95 873.716 2920.95 867.605 Q2920.95 861.494 2923.89 857.744 Q2926.85 853.994 2931.55 853.994 Q2934.42 853.994 2936.46 855.128 Q2938.52 856.239 2939.86 858.554 M2925.34 867.605 Q2925.34 872.304 2927.27 874.989 Q2929.21 877.651 2932.59 877.651 Q2935.97 877.651 2937.91 874.989 Q2939.86 872.304 2939.86 867.605 Q2939.86 862.906 2937.91 860.244 Q2935.97 857.559 2932.59 857.559 Q2929.21 857.559 2927.27 860.244 Q2925.34 862.906 2925.34 867.605 Z" fill="#000000" fill-rule="nonzero" fill-opacity="1" /><path clip-path="url(#clip670)" d="M2964.67 867.512 Q2959.51 867.512 2957.52 868.693 Q2955.53 869.874 2955.53 872.721 Q2955.53 874.989 2957.01 876.332 Q2958.52 877.651 2961.09 877.651 Q2964.63 877.651 2966.76 875.151 Q2968.91 872.628 2968.91 868.462 L2968.91 867.512 L2964.67 867.512 M2973.17 865.753 L2973.17 880.545 L2968.91 880.545 L2968.91 876.61 Q2967.45 878.971 2965.28 880.105 Q2963.1 881.216 2959.95 881.216 Q2955.97 881.216 2953.61 878.994 Q2951.27 876.749 2951.27 872.999 Q2951.27 868.624 2954.19 866.401 Q2957.13 864.179 2962.94 864.179 L2968.91 864.179 L2968.91 863.763 Q2968.91 860.823 2966.96 859.225 Q2965.04 857.605 2961.55 857.605 Q2959.33 857.605 2957.22 858.138 Q2955.11 858.67 2953.17 859.735 L2953.17 855.8 Q2955.51 854.897 2957.71 854.457 Q2959.9 853.994 2961.99 853.994 Q2967.61 853.994 2970.39 856.911 Q2973.17 859.827 2973.17 865.753 Z" fill="#000000" fill-rule="nonzero" fill-opacity="1" /><path clip-path="url(#clip670)" d="M2998.47 855.383 L2998.47 859.411 Q2996.66 858.485 2994.72 858.022 Q2992.77 857.559 2990.69 857.559 Q2987.52 857.559 2985.92 858.531 Q2984.35 859.503 2984.35 861.448 Q2984.35 862.929 2985.48 863.786 Q2986.62 864.619 2990.04 865.383 L2991.5 865.707 Q2996.04 866.679 2997.94 868.462 Q2999.86 870.221 2999.86 873.392 Q2999.86 877.003 2996.99 879.11 Q2994.14 881.216 2989.14 881.216 Q2987.06 881.216 2984.79 880.799 Q2982.54 880.406 2980.04 879.596 L2980.04 875.198 Q2982.4 876.424 2984.7 877.049 Q2986.99 877.651 2989.23 877.651 Q2992.24 877.651 2993.86 876.633 Q2995.48 875.591 2995.48 873.716 Q2995.48 871.98 2994.3 871.054 Q2993.15 870.128 2989.19 869.272 L2987.71 868.925 Q2983.75 868.091 2981.99 866.378 Q2980.23 864.642 2980.23 861.633 Q2980.23 857.975 2982.82 855.985 Q2985.41 853.994 2990.18 853.994 Q2992.54 853.994 2994.63 854.341 Q2996.71 854.688 2998.47 855.383 Z" fill="#000000" fill-rule="nonzero" fill-opacity="1" /><path clip-path="url(#clip670)" d="M3007.29 845.985 L3025.65 845.985 L3025.65 849.92 L3011.57 849.92 L3011.57 858.392 Q3012.59 858.045 3013.61 857.883 Q3014.63 857.698 3015.65 857.698 Q3021.43 857.698 3024.81 860.869 Q3028.19 864.04 3028.19 869.457 Q3028.19 875.036 3024.72 878.137 Q3021.25 881.216 3014.93 881.216 Q3012.75 881.216 3010.48 880.846 Q3008.24 880.475 3005.83 879.735 L3005.83 875.036 Q3007.91 876.17 3010.14 876.725 Q3012.36 877.281 3014.83 877.281 Q3018.84 877.281 3021.18 875.174 Q3023.52 873.068 3023.52 869.457 Q3023.52 865.846 3021.18 863.739 Q3018.84 861.633 3014.83 861.633 Q3012.96 861.633 3011.08 862.05 Q3009.23 862.466 3007.29 863.346 L3007.29 845.985 Z" fill="#000000" fill-rule="nonzero" fill-opacity="1" /><path clip-path="url(#clip670)" d="M3041.66 849.827 L3041.66 862.813 L3047.54 862.813 Q3050.81 862.813 3052.59 861.124 Q3054.37 859.434 3054.37 856.309 Q3054.37 853.207 3052.59 851.517 Q3050.81 849.827 3047.54 849.827 L3041.66 849.827 M3036.99 845.985 L3047.54 845.985 Q3053.35 845.985 3056.32 848.624 Q3059.3 851.239 3059.3 856.309 Q3059.3 861.425 3056.32 864.04 Q3053.35 866.656 3047.54 866.656 L3041.66 866.656 L3041.66 880.545 L3036.99 880.545 L3036.99 845.985 Z" fill="#000000" fill-rule="nonzero" fill-opacity="1" /></svg>
