<?xml version="1.0" encoding="utf-8"?>
<svg xmlns="http://www.w3.org/2000/svg" xmlns:xlink="http://www.w3.org/1999/xlink" width="800" height="400" viewBox="0 0 3200 1600">
<defs>
  <clipPath id="clip550">
    <rect x="0" y="0" width="3200" height="1600"/>
  </clipPath>
</defs>
<path clip-path="url(#clip550)" d="M0 1600 L3200 1600 L3200 0 L0 0  Z" fill="#ffffff" fill-rule="evenodd" fill-opacity="1"/>
<defs>
  <clipPath id="clip551">
    <rect x="640" y="0" width="2241" height="1600"/>
  </clipPath>
</defs>
<path clip-path="url(#clip550)" d="M364.733 1495.09 L3152.76 1495.09 L3152.76 47.2441 L364.733 47.2441  Z" fill="#ffffff" fill-rule="evenodd" fill-opacity="1"/>
<defs>
  <clipPath id="clip552">
    <rect x="364" y="47" width="2789" height="1449"/>
  </clipPath>
</defs>
<polyline clip-path="url(#clip552)" style="stroke:#000000; stroke-linecap:round; stroke-linejoin:round; stroke-width:2; stroke-opacity:0.1; fill:none" points="735.885,1495.09 735.885,47.2441 "/>
<polyline clip-path="url(#clip552)" style="stroke:#000000; stroke-linecap:round; stroke-linejoin:round; stroke-width:2; stroke-opacity:0.1; fill:none" points="1758.74,1495.09 1758.74,47.2441 "/>
<polyline clip-path="url(#clip552)" style="stroke:#000000; stroke-linecap:round; stroke-linejoin:round; stroke-width:2; stroke-opacity:0.1; fill:none" points="2781.6,1495.09 2781.6,47.2441 "/>
<polyline clip-path="url(#clip552)" style="stroke:#000000; stroke-linecap:round; stroke-linejoin:round; stroke-width:2; stroke-opacity:0.1; fill:none" points="364.733,1184.9 3152.76,1184.9 "/>
<polyline clip-path="url(#clip552)" style="stroke:#000000; stroke-linecap:round; stroke-linejoin:round; stroke-width:2; stroke-opacity:0.1; fill:none" points="364.733,831.526 3152.76,831.526 "/>
<polyline clip-path="url(#clip552)" style="stroke:#000000; stroke-linecap:round; stroke-linejoin:round; stroke-width:2; stroke-opacity:0.1; fill:none" points="364.733,478.15 3152.76,478.15 "/>
<polyline clip-path="url(#clip552)" style="stroke:#000000; stroke-linecap:round; stroke-linejoin:round; stroke-width:2; stroke-opacity:0.1; fill:none" points="364.733,124.775 3152.76,124.775 "/>
<polyline clip-path="url(#clip550)" style="stroke:#000000; stroke-linecap:round; stroke-linejoin:round; stroke-width:4; stroke-opacity:1; fill:none" points="364.733,1495.09 3152.76,1495.09 "/>
<polyline clip-path="url(#clip550)" style="stroke:#000000; stroke-linecap:round; stroke-linejoin:round; stroke-width:4; stroke-opacity:1; fill:none" points="735.885,1495.09 735.885,1476.19 "/>
<polyline clip-path="url(#clip550)" style="stroke:#000000; stroke-linecap:round; stroke-linejoin:round; stroke-width:4; stroke-opacity:1; fill:none" points="1758.74,1495.09 1758.74,1476.19 "/>
<polyline clip-path="url(#clip550)" style="stroke:#000000; stroke-linecap:round; stroke-linejoin:round; stroke-width:4; stroke-opacity:1; fill:none" points="2781.6,1495.09 2781.6,1476.19 "/>
<path clip-path="url(#clip550)" d="M545.619 1547.68 Q547.124 1548.19 548.536 1549.86 Q549.971 1551.53 551.406 1554.44 L556.152 1563.89 L551.129 1563.89 L546.707 1555.02 Q544.994 1551.55 543.374 1550.42 Q541.777 1549.28 538.999 1549.28 L533.906 1549.28 L533.906 1563.89 L529.231 1563.89 L529.231 1529.33 L539.786 1529.33 Q545.712 1529.33 548.629 1531.8 Q551.545 1534.28 551.545 1539.28 Q551.545 1542.55 550.017 1544.7 Q548.513 1546.85 545.619 1547.68 M533.906 1533.17 L533.906 1545.44 L539.786 1545.44 Q543.166 1545.44 544.879 1543.89 Q546.615 1542.31 546.615 1539.28 Q546.615 1536.25 544.879 1534.72 Q543.166 1533.17 539.786 1533.17 L533.906 1533.17 Z" fill="#000000" fill-rule="nonzero" fill-opacity="1" /><path clip-path="url(#clip550)" d="M562.17 1529.33 L582.031 1529.33 L582.031 1533.26 L566.846 1533.26 L566.846 1543.45 L580.55 1543.45 L580.55 1547.38 L566.846 1547.38 L566.846 1563.89 L562.17 1563.89 L562.17 1529.33 Z" fill="#000000" fill-rule="nonzero" fill-opacity="1" /><path clip-path="url(#clip550)" d="M589.439 1529.33 L594.114 1529.33 L594.114 1559.95 L610.943 1559.95 L610.943 1563.89 L589.439 1563.89 L589.439 1529.33 Z" fill="#000000" fill-rule="nonzero" fill-opacity="1" /><path clip-path="url(#clip550)" d="M612.957 1529.33 L617.656 1529.33 L617.656 1550.32 Q617.656 1555.88 619.67 1558.33 Q621.684 1560.76 626.198 1560.76 Q630.688 1560.76 632.702 1558.33 Q634.716 1555.88 634.716 1550.32 L634.716 1529.33 L639.415 1529.33 L639.415 1550.9 Q639.415 1557.66 636.059 1561.11 Q632.725 1564.56 626.198 1564.56 Q619.647 1564.56 616.29 1561.11 Q612.957 1557.66 612.957 1550.9 L612.957 1529.33 Z" fill="#000000" fill-rule="nonzero" fill-opacity="1" /><path clip-path="url(#clip550)" d="M648.188 1529.33 L668.049 1529.33 L668.049 1533.26 L652.864 1533.26 L652.864 1543.45 L666.568 1543.45 L666.568 1547.38 L652.864 1547.38 L652.864 1563.89 L648.188 1563.89 L648.188 1529.33 Z" fill="#000000" fill-rule="nonzero" fill-opacity="1" /><path clip-path="url(#clip550)" d="M682.702 1550.86 Q677.54 1550.86 675.549 1552.04 Q673.558 1553.22 673.558 1556.06 Q673.558 1558.33 675.04 1559.67 Q676.545 1560.99 679.114 1560.99 Q682.656 1560.99 684.785 1558.49 Q686.938 1555.97 686.938 1551.8 L686.938 1550.86 L682.702 1550.86 M691.197 1549.1 L691.197 1563.89 L686.938 1563.89 L686.938 1559.95 Q685.48 1562.31 683.304 1563.45 Q681.128 1564.56 677.98 1564.56 Q673.998 1564.56 671.637 1562.34 Q669.299 1560.09 669.299 1556.34 Q669.299 1551.97 672.216 1549.74 Q675.156 1547.52 680.966 1547.52 L686.938 1547.52 L686.938 1547.11 Q686.938 1544.17 684.994 1542.57 Q683.072 1540.95 679.577 1540.95 Q677.355 1540.95 675.248 1541.48 Q673.142 1542.01 671.197 1543.08 L671.197 1539.14 Q673.535 1538.24 675.734 1537.8 Q677.933 1537.34 680.017 1537.34 Q685.642 1537.34 688.42 1540.25 Q691.197 1543.17 691.197 1549.1 Z" fill="#000000" fill-rule="nonzero" fill-opacity="1" /><path clip-path="url(#clip550)" d="M718.628 1538.96 L718.628 1542.94 Q716.822 1541.94 714.993 1541.46 Q713.188 1540.95 711.336 1540.95 Q707.193 1540.95 704.901 1543.59 Q702.609 1546.2 702.609 1550.95 Q702.609 1555.69 704.901 1558.33 Q707.193 1560.95 711.336 1560.95 Q713.188 1560.95 714.993 1560.46 Q716.822 1559.95 718.628 1558.96 L718.628 1562.89 Q716.845 1563.73 714.924 1564.14 Q713.026 1564.56 710.873 1564.56 Q705.017 1564.56 701.568 1560.88 Q698.119 1557.2 698.119 1550.95 Q698.119 1544.61 701.591 1540.97 Q705.086 1537.34 711.151 1537.34 Q713.118 1537.34 714.993 1537.75 Q716.868 1538.15 718.628 1538.96 Z" fill="#000000" fill-rule="nonzero" fill-opacity="1" /><path clip-path="url(#clip550)" d="M730.248 1530.6 L730.248 1537.96 L739.021 1537.96 L739.021 1541.27 L730.248 1541.27 L730.248 1555.35 Q730.248 1558.52 731.104 1559.42 Q731.984 1560.32 734.646 1560.32 L739.021 1560.32 L739.021 1563.89 L734.646 1563.89 Q729.716 1563.89 727.841 1562.06 Q725.966 1560.21 725.966 1555.35 L725.966 1541.27 L722.841 1541.27 L722.841 1537.96 L725.966 1537.96 L725.966 1530.6 L730.248 1530.6 Z" fill="#000000" fill-rule="nonzero" fill-opacity="1" /><path clip-path="url(#clip550)" d="M754.669 1540.95 Q751.243 1540.95 749.253 1543.63 Q747.262 1546.3 747.262 1550.95 Q747.262 1555.6 749.229 1558.29 Q751.22 1560.95 754.669 1560.95 Q758.072 1560.95 760.063 1558.26 Q762.053 1555.58 762.053 1550.95 Q762.053 1546.34 760.063 1543.66 Q758.072 1540.95 754.669 1540.95 M754.669 1537.34 Q760.225 1537.34 763.396 1540.95 Q766.567 1544.56 766.567 1550.95 Q766.567 1557.31 763.396 1560.95 Q760.225 1564.56 754.669 1564.56 Q749.09 1564.56 745.919 1560.95 Q742.771 1557.31 742.771 1550.95 Q742.771 1544.56 745.919 1540.95 Q749.09 1537.34 754.669 1537.34 Z" fill="#000000" fill-rule="nonzero" fill-opacity="1" /><path clip-path="url(#clip550)" d="M788.65 1541.94 Q787.933 1541.53 787.076 1541.34 Q786.243 1541.13 785.225 1541.13 Q781.613 1541.13 779.669 1543.49 Q777.748 1545.83 777.748 1550.23 L777.748 1563.89 L773.465 1563.89 L773.465 1537.96 L777.748 1537.96 L777.748 1541.99 Q779.09 1539.63 781.243 1538.49 Q783.396 1537.34 786.475 1537.34 Q786.914 1537.34 787.447 1537.41 Q787.979 1537.45 788.627 1537.57 L788.65 1541.94 Z" fill="#000000" fill-rule="nonzero" fill-opacity="1" /><path clip-path="url(#clip550)" d="M793.118 1537.96 L797.377 1537.96 L797.377 1563.89 L793.118 1563.89 L793.118 1537.96 M793.118 1527.87 L797.377 1527.87 L797.377 1533.26 L793.118 1533.26 L793.118 1527.87 Z" fill="#000000" fill-rule="nonzero" fill-opacity="1" /><path clip-path="url(#clip550)" d="M804.437 1537.96 L824.669 1537.96 L824.669 1541.85 L808.65 1560.49 L824.669 1560.49 L824.669 1563.89 L803.859 1563.89 L803.859 1560 L819.877 1541.36 L804.437 1541.36 L804.437 1537.96 Z" fill="#000000" fill-rule="nonzero" fill-opacity="1" /><path clip-path="url(#clip550)" d="M842.956 1550.86 Q837.794 1550.86 835.803 1552.04 Q833.812 1553.22 833.812 1556.06 Q833.812 1558.33 835.294 1559.67 Q836.798 1560.99 839.368 1560.99 Q842.909 1560.99 845.039 1558.49 Q847.192 1555.97 847.192 1551.8 L847.192 1550.86 L842.956 1550.86 M851.451 1549.1 L851.451 1563.89 L847.192 1563.89 L847.192 1559.95 Q845.733 1562.31 843.558 1563.45 Q841.382 1564.56 838.234 1564.56 Q834.252 1564.56 831.891 1562.34 Q829.553 1560.09 829.553 1556.34 Q829.553 1551.97 832.47 1549.74 Q835.409 1547.52 841.22 1547.52 L847.192 1547.52 L847.192 1547.11 Q847.192 1544.17 845.247 1542.57 Q843.326 1540.95 839.831 1540.95 Q837.609 1540.95 835.502 1541.48 Q833.396 1542.01 831.451 1543.08 L831.451 1539.14 Q833.789 1538.24 835.988 1537.8 Q838.187 1537.34 840.271 1537.34 Q845.896 1537.34 848.673 1540.25 Q851.451 1543.17 851.451 1549.1 Z" fill="#000000" fill-rule="nonzero" fill-opacity="1" /><path clip-path="url(#clip550)" d="M864.437 1530.6 L864.437 1537.96 L873.21 1537.96 L873.21 1541.27 L864.437 1541.27 L864.437 1555.35 Q864.437 1558.52 865.294 1559.42 Q866.173 1560.32 868.835 1560.32 L873.21 1560.32 L873.21 1563.89 L868.835 1563.89 Q863.905 1563.89 862.03 1562.06 Q860.155 1560.21 860.155 1555.35 L860.155 1541.27 L857.03 1541.27 L857.03 1537.96 L860.155 1537.96 L860.155 1530.6 L864.437 1530.6 Z" fill="#000000" fill-rule="nonzero" fill-opacity="1" /><path clip-path="url(#clip550)" d="M878.812 1537.96 L883.071 1537.96 L883.071 1563.89 L878.812 1563.89 L878.812 1537.96 M878.812 1527.87 L883.071 1527.87 L883.071 1533.26 L878.812 1533.26 L878.812 1527.87 Z" fill="#000000" fill-rule="nonzero" fill-opacity="1" /><path clip-path="url(#clip550)" d="M902.029 1540.95 Q898.604 1540.95 896.613 1543.63 Q894.622 1546.3 894.622 1550.95 Q894.622 1555.6 896.59 1558.29 Q898.58 1560.95 902.029 1560.95 Q905.432 1560.95 907.423 1558.26 Q909.414 1555.58 909.414 1550.95 Q909.414 1546.34 907.423 1543.66 Q905.432 1540.95 902.029 1540.95 M902.029 1537.34 Q907.585 1537.34 910.756 1540.95 Q913.928 1544.56 913.928 1550.95 Q913.928 1557.31 910.756 1560.95 Q907.585 1564.56 902.029 1564.56 Q896.451 1564.56 893.28 1560.95 Q890.131 1557.31 890.131 1550.95 Q890.131 1544.56 893.28 1540.95 Q896.451 1537.34 902.029 1537.34 Z" fill="#000000" fill-rule="nonzero" fill-opacity="1" /><path clip-path="url(#clip550)" d="M942.539 1548.24 L942.539 1563.89 L938.279 1563.89 L938.279 1548.38 Q938.279 1544.7 936.844 1542.87 Q935.409 1541.04 932.539 1541.04 Q929.09 1541.04 927.099 1543.24 Q925.108 1545.44 925.108 1549.24 L925.108 1563.89 L920.826 1563.89 L920.826 1537.96 L925.108 1537.96 L925.108 1541.99 Q926.636 1539.65 928.696 1538.49 Q930.779 1537.34 933.488 1537.34 Q937.955 1537.34 940.247 1540.11 Q942.539 1542.87 942.539 1548.24 Z" fill="#000000" fill-rule="nonzero" fill-opacity="1" /><path clip-path="url(#clip550)" d="M1582.19 1529.33 L1586.87 1529.33 L1586.87 1559.95 L1603.7 1559.95 L1603.7 1563.89 L1582.19 1563.89 L1582.19 1529.33 Z" fill="#000000" fill-rule="nonzero" fill-opacity="1" /><path clip-path="url(#clip550)" d="M1605.71 1529.33 L1610.41 1529.33 L1610.41 1550.32 Q1610.41 1555.88 1612.43 1558.33 Q1614.44 1560.76 1618.95 1560.76 Q1623.44 1560.76 1625.46 1558.33 Q1627.47 1555.88 1627.47 1550.32 L1627.47 1529.33 L1632.17 1529.33 L1632.17 1550.9 Q1632.17 1557.66 1628.81 1561.11 Q1625.48 1564.56 1618.95 1564.56 Q1612.4 1564.56 1609.05 1561.11 Q1605.71 1557.66 1605.71 1550.9 L1605.71 1529.33 Z" fill="#000000" fill-rule="nonzero" fill-opacity="1" /><path clip-path="url(#clip550)" d="M1640.94 1529.33 L1660.8 1529.33 L1660.8 1533.26 L1645.62 1533.26 L1645.62 1543.45 L1659.32 1543.45 L1659.32 1547.38 L1645.62 1547.38 L1645.62 1563.89 L1640.94 1563.89 L1640.94 1529.33 Z" fill="#000000" fill-rule="nonzero" fill-opacity="1" /><path clip-path="url(#clip550)" d="M1675.46 1550.86 Q1670.3 1550.86 1668.3 1552.04 Q1666.31 1553.22 1666.31 1556.06 Q1666.31 1558.33 1667.8 1559.67 Q1669.3 1560.99 1671.87 1560.99 Q1675.41 1560.99 1677.54 1558.49 Q1679.69 1555.97 1679.69 1551.8 L1679.69 1550.86 L1675.46 1550.86 M1683.95 1549.1 L1683.95 1563.89 L1679.69 1563.89 L1679.69 1559.95 Q1678.24 1562.31 1676.06 1563.45 Q1673.88 1564.56 1670.74 1564.56 Q1666.75 1564.56 1664.39 1562.34 Q1662.05 1560.09 1662.05 1556.34 Q1662.05 1551.97 1664.97 1549.74 Q1667.91 1547.52 1673.72 1547.52 L1679.69 1547.52 L1679.69 1547.11 Q1679.69 1544.17 1677.75 1542.57 Q1675.83 1540.95 1672.33 1540.95 Q1670.11 1540.95 1668 1541.48 Q1665.9 1542.01 1663.95 1543.08 L1663.95 1539.14 Q1666.29 1538.24 1668.49 1537.8 Q1670.69 1537.34 1672.77 1537.34 Q1678.4 1537.34 1681.18 1540.25 Q1683.95 1543.17 1683.95 1549.1 Z" fill="#000000" fill-rule="nonzero" fill-opacity="1" /><path clip-path="url(#clip550)" d="M1711.38 1538.96 L1711.38 1542.94 Q1709.58 1541.94 1707.75 1541.46 Q1705.94 1540.95 1704.09 1540.95 Q1699.95 1540.95 1697.66 1543.59 Q1695.36 1546.2 1695.36 1550.95 Q1695.36 1555.69 1697.66 1558.33 Q1699.95 1560.95 1704.09 1560.95 Q1705.94 1560.95 1707.75 1560.46 Q1709.58 1559.95 1711.38 1558.96 L1711.38 1562.89 Q1709.6 1563.73 1707.68 1564.14 Q1705.78 1564.56 1703.63 1564.56 Q1697.77 1564.56 1694.32 1560.88 Q1690.87 1557.2 1690.87 1550.95 Q1690.87 1544.61 1694.35 1540.97 Q1697.84 1537.34 1703.91 1537.34 Q1705.87 1537.34 1707.75 1537.75 Q1709.62 1538.15 1711.38 1538.96 Z" fill="#000000" fill-rule="nonzero" fill-opacity="1" /><path clip-path="url(#clip550)" d="M1723 1530.6 L1723 1537.96 L1731.78 1537.96 L1731.78 1541.27 L1723 1541.27 L1723 1555.35 Q1723 1558.52 1723.86 1559.42 Q1724.74 1560.32 1727.4 1560.32 L1731.78 1560.32 L1731.78 1563.89 L1727.4 1563.89 Q1722.47 1563.89 1720.6 1562.06 Q1718.72 1560.21 1718.72 1555.35 L1718.72 1541.27 L1715.6 1541.27 L1715.6 1537.96 L1718.72 1537.96 L1718.72 1530.6 L1723 1530.6 Z" fill="#000000" fill-rule="nonzero" fill-opacity="1" /><path clip-path="url(#clip550)" d="M1747.42 1540.95 Q1744 1540.95 1742.01 1543.63 Q1740.02 1546.3 1740.02 1550.95 Q1740.02 1555.6 1741.99 1558.29 Q1743.98 1560.95 1747.42 1560.95 Q1750.83 1560.95 1752.82 1558.26 Q1754.81 1555.58 1754.81 1550.95 Q1754.81 1546.34 1752.82 1543.66 Q1750.83 1540.95 1747.42 1540.95 M1747.42 1537.34 Q1752.98 1537.34 1756.15 1540.95 Q1759.32 1544.56 1759.32 1550.95 Q1759.32 1557.31 1756.15 1560.95 Q1752.98 1564.56 1747.42 1564.56 Q1741.85 1564.56 1738.67 1560.95 Q1735.53 1557.31 1735.53 1550.95 Q1735.53 1544.56 1738.67 1540.95 Q1741.85 1537.34 1747.42 1537.34 Z" fill="#000000" fill-rule="nonzero" fill-opacity="1" /><path clip-path="url(#clip550)" d="M1781.41 1541.94 Q1780.69 1541.53 1779.83 1541.34 Q1779 1541.13 1777.98 1541.13 Q1774.37 1541.13 1772.42 1543.49 Q1770.5 1545.83 1770.5 1550.23 L1770.5 1563.89 L1766.22 1563.89 L1766.22 1537.96 L1770.5 1537.96 L1770.5 1541.99 Q1771.85 1539.63 1774 1538.49 Q1776.15 1537.34 1779.23 1537.34 Q1779.67 1537.34 1780.2 1537.41 Q1780.73 1537.45 1781.38 1537.57 L1781.41 1541.94 Z" fill="#000000" fill-rule="nonzero" fill-opacity="1" /><path clip-path="url(#clip550)" d="M1785.87 1537.96 L1790.13 1537.96 L1790.13 1563.89 L1785.87 1563.89 L1785.87 1537.96 M1785.87 1527.87 L1790.13 1527.87 L1790.13 1533.26 L1785.87 1533.26 L1785.87 1527.87 Z" fill="#000000" fill-rule="nonzero" fill-opacity="1" /><path clip-path="url(#clip550)" d="M1797.19 1537.96 L1817.42 1537.96 L1817.42 1541.85 L1801.41 1560.49 L1817.42 1560.49 L1817.42 1563.89 L1796.61 1563.89 L1796.61 1560 L1812.63 1541.36 L1797.19 1541.36 L1797.19 1537.96 Z" fill="#000000" fill-rule="nonzero" fill-opacity="1" /><path clip-path="url(#clip550)" d="M1835.71 1550.86 Q1830.55 1550.86 1828.56 1552.04 Q1826.57 1553.22 1826.57 1556.06 Q1826.57 1558.33 1828.05 1559.67 Q1829.55 1560.99 1832.12 1560.99 Q1835.67 1560.99 1837.79 1558.49 Q1839.95 1555.97 1839.95 1551.8 L1839.95 1550.86 L1835.71 1550.86 M1844.21 1549.1 L1844.21 1563.89 L1839.95 1563.89 L1839.95 1559.95 Q1838.49 1562.31 1836.31 1563.45 Q1834.14 1564.56 1830.99 1564.56 Q1827.01 1564.56 1824.65 1562.34 Q1822.31 1560.09 1822.31 1556.34 Q1822.31 1551.97 1825.23 1549.74 Q1828.17 1547.52 1833.98 1547.52 L1839.95 1547.52 L1839.95 1547.11 Q1839.95 1544.17 1838 1542.57 Q1836.08 1540.95 1832.59 1540.95 Q1830.36 1540.95 1828.26 1541.48 Q1826.15 1542.01 1824.21 1543.08 L1824.21 1539.14 Q1826.54 1538.24 1828.74 1537.8 Q1830.94 1537.34 1833.03 1537.34 Q1838.65 1537.34 1841.43 1540.25 Q1844.21 1543.17 1844.21 1549.1 Z" fill="#000000" fill-rule="nonzero" fill-opacity="1" /><path clip-path="url(#clip550)" d="M1857.19 1530.6 L1857.19 1537.96 L1865.97 1537.96 L1865.97 1541.27 L1857.19 1541.27 L1857.19 1555.35 Q1857.19 1558.52 1858.05 1559.42 Q1858.93 1560.32 1861.59 1560.32 L1865.97 1560.32 L1865.97 1563.89 L1861.59 1563.89 Q1856.66 1563.89 1854.79 1562.06 Q1852.91 1560.21 1852.91 1555.35 L1852.91 1541.27 L1849.79 1541.27 L1849.79 1537.96 L1852.91 1537.96 L1852.91 1530.6 L1857.19 1530.6 Z" fill="#000000" fill-rule="nonzero" fill-opacity="1" /><path clip-path="url(#clip550)" d="M1871.57 1537.96 L1875.83 1537.96 L1875.83 1563.89 L1871.57 1563.89 L1871.57 1537.96 M1871.57 1527.87 L1875.83 1527.87 L1875.83 1533.26 L1871.57 1533.26 L1871.57 1527.87 Z" fill="#000000" fill-rule="nonzero" fill-opacity="1" /><path clip-path="url(#clip550)" d="M1894.79 1540.95 Q1891.36 1540.95 1889.37 1543.63 Q1887.38 1546.3 1887.38 1550.95 Q1887.38 1555.6 1889.35 1558.29 Q1891.34 1560.95 1894.79 1560.95 Q1898.19 1560.95 1900.18 1558.26 Q1902.17 1555.58 1902.17 1550.95 Q1902.17 1546.34 1900.18 1543.66 Q1898.19 1540.95 1894.79 1540.95 M1894.79 1537.34 Q1900.34 1537.34 1903.51 1540.95 Q1906.68 1544.56 1906.68 1550.95 Q1906.68 1557.31 1903.51 1560.95 Q1900.34 1564.56 1894.79 1564.56 Q1889.21 1564.56 1886.04 1560.95 Q1882.89 1557.31 1882.89 1550.95 Q1882.89 1544.56 1886.04 1540.95 Q1889.21 1537.34 1894.79 1537.34 Z" fill="#000000" fill-rule="nonzero" fill-opacity="1" /><path clip-path="url(#clip550)" d="M1935.29 1548.24 L1935.29 1563.89 L1931.03 1563.89 L1931.03 1548.38 Q1931.03 1544.7 1929.6 1542.87 Q1928.16 1541.04 1925.29 1541.04 Q1921.85 1541.04 1919.85 1543.24 Q1917.86 1545.44 1917.86 1549.24 L1917.86 1563.89 L1913.58 1563.89 L1913.58 1537.96 L1917.86 1537.96 L1917.86 1541.99 Q1919.39 1539.65 1921.45 1538.49 Q1923.54 1537.34 1926.24 1537.34 Q1930.71 1537.34 1933 1540.11 Q1935.29 1542.87 1935.29 1548.24 Z" fill="#000000" fill-rule="nonzero" fill-opacity="1" /><path clip-path="url(#clip550)" d="M2689.43 1529.33 L2694.1 1529.33 L2694.1 1543.93 L2709.61 1529.33 L2715.63 1529.33 L2698.48 1545.44 L2716.86 1563.89 L2710.7 1563.89 L2694.1 1547.24 L2694.1 1563.89 L2689.43 1563.89 L2689.43 1529.33 Z" fill="#000000" fill-rule="nonzero" fill-opacity="1" /><path clip-path="url(#clip550)" d="M2735.35 1541.94 Q2734.64 1541.53 2733.78 1541.34 Q2732.95 1541.13 2731.93 1541.13 Q2728.32 1541.13 2726.37 1543.49 Q2724.45 1545.83 2724.45 1550.23 L2724.45 1563.89 L2720.17 1563.89 L2720.17 1537.96 L2724.45 1537.96 L2724.45 1541.99 Q2725.79 1539.63 2727.95 1538.49 Q2730.1 1537.34 2733.18 1537.34 Q2733.62 1537.34 2734.15 1537.41 Q2734.68 1537.45 2735.33 1537.57 L2735.35 1541.94 Z" fill="#000000" fill-rule="nonzero" fill-opacity="1" /><path clip-path="url(#clip550)" d="M2750.61 1566.3 Q2748.8 1570.92 2747.09 1572.34 Q2745.38 1573.75 2742.51 1573.75 L2739.1 1573.75 L2739.1 1570.18 L2741.6 1570.18 Q2743.36 1570.18 2744.34 1569.35 Q2745.31 1568.52 2746.49 1565.42 L2747.25 1563.47 L2736.77 1537.96 L2741.28 1537.96 L2749.38 1558.24 L2757.48 1537.96 L2762 1537.96 L2750.61 1566.3 Z" fill="#000000" fill-rule="nonzero" fill-opacity="1" /><path clip-path="url(#clip550)" d="M2767.88 1527.87 L2772.14 1527.87 L2772.14 1563.89 L2767.88 1563.89 L2767.88 1527.87 Z" fill="#000000" fill-rule="nonzero" fill-opacity="1" /><path clip-path="url(#clip550)" d="M2791.09 1540.95 Q2787.67 1540.95 2785.68 1543.63 Q2783.69 1546.3 2783.69 1550.95 Q2783.69 1555.6 2785.65 1558.29 Q2787.65 1560.95 2791.09 1560.95 Q2794.5 1560.95 2796.49 1558.26 Q2798.48 1555.58 2798.48 1550.95 Q2798.48 1546.34 2796.49 1543.66 Q2794.5 1540.95 2791.09 1540.95 M2791.09 1537.34 Q2796.65 1537.34 2799.82 1540.95 Q2802.99 1544.56 2802.99 1550.95 Q2802.99 1557.31 2799.82 1560.95 Q2796.65 1564.56 2791.09 1564.56 Q2785.52 1564.56 2782.34 1560.95 Q2779.2 1557.31 2779.2 1550.95 Q2779.2 1544.56 2782.34 1540.95 Q2785.52 1537.34 2791.09 1537.34 Z" fill="#000000" fill-rule="nonzero" fill-opacity="1" /><path clip-path="url(#clip550)" d="M2807 1537.96 L2811.51 1537.96 L2819.61 1559.72 L2827.71 1537.96 L2832.23 1537.96 L2822.51 1563.89 L2816.72 1563.89 L2807 1537.96 Z" fill="#000000" fill-rule="nonzero" fill-opacity="1" /><path clip-path="url(#clip550)" d="M2838.29 1529.33 L2842.97 1529.33 L2842.97 1561.48 Q2842.97 1567.73 2840.59 1570.55 Q2838.22 1573.38 2832.97 1573.38 L2831.19 1573.38 L2831.19 1569.44 L2832.65 1569.44 Q2835.75 1569.44 2837.02 1567.71 Q2838.29 1565.97 2838.29 1561.48 L2838.29 1529.33 Z" fill="#000000" fill-rule="nonzero" fill-opacity="1" /><path clip-path="url(#clip550)" d="M2852.27 1529.33 L2856.95 1529.33 L2856.95 1559.95 L2873.78 1559.95 L2873.78 1563.89 L2852.27 1563.89 L2852.27 1529.33 Z" fill="#000000" fill-rule="nonzero" fill-opacity="1" /><polyline clip-path="url(#clip550)" style="stroke:#000000; stroke-linecap:round; stroke-linejoin:round; stroke-width:4; stroke-opacity:1; fill:none" points="364.733,1495.09 364.733,47.2441 "/>
<polyline clip-path="url(#clip550)" style="stroke:#000000; stroke-linecap:round; stroke-linejoin:round; stroke-width:4; stroke-opacity:1; fill:none" points="364.733,1184.9 383.63,1184.9 "/>
<polyline clip-path="url(#clip550)" style="stroke:#000000; stroke-linecap:round; stroke-linejoin:round; stroke-width:4; stroke-opacity:1; fill:none" points="364.733,831.526 383.63,831.526 "/>
<polyline clip-path="url(#clip550)" style="stroke:#000000; stroke-linecap:round; stroke-linejoin:round; stroke-width:4; stroke-opacity:1; fill:none" points="364.733,478.15 383.63,478.15 "/>
<polyline clip-path="url(#clip550)" style="stroke:#000000; stroke-linecap:round; stroke-linejoin:round; stroke-width:4; stroke-opacity:1; fill:none" points="364.733,124.775 383.63,124.775 "/>
<path clip-path="url(#clip550)" d="M100.788 1204.69 L108.426 1204.69 L108.426 1178.33 L100.116 1179.99 L100.116 1175.73 L108.38 1174.07 L113.056 1174.07 L113.056 1204.69 L120.695 1204.69 L120.695 1208.63 L100.788 1208.63 L100.788 1204.69 Z" fill="#000000" fill-rule="nonzero" fill-opacity="1" /><path clip-path="url(#clip550)" d="M130.139 1202.75 L135.023 1202.75 L135.023 1208.63 L130.139 1208.63 L130.139 1202.75 Z" fill="#000000" fill-rule="nonzero" fill-opacity="1" /><path clip-path="url(#clip550)" d="M155.209 1177.15 Q151.597 1177.15 149.769 1180.71 Q147.963 1184.25 147.963 1191.38 Q147.963 1198.49 149.769 1202.05 Q151.597 1205.6 155.209 1205.6 Q158.843 1205.6 160.648 1202.05 Q162.477 1198.49 162.477 1191.38 Q162.477 1184.25 160.648 1180.71 Q158.843 1177.15 155.209 1177.15 M155.209 1173.44 Q161.019 1173.44 164.074 1178.05 Q167.153 1182.63 167.153 1191.38 Q167.153 1200.11 164.074 1204.72 Q161.019 1209.3 155.209 1209.3 Q149.398 1209.3 146.32 1204.72 Q143.264 1200.11 143.264 1191.38 Q143.264 1182.63 146.32 1178.05 Q149.398 1173.44 155.209 1173.44 Z" fill="#000000" fill-rule="nonzero" fill-opacity="1" /><path clip-path="url(#clip550)" d="M185.37 1177.15 Q181.759 1177.15 179.931 1180.71 Q178.125 1184.25 178.125 1191.38 Q178.125 1198.49 179.931 1202.05 Q181.759 1205.6 185.37 1205.6 Q189.005 1205.6 190.81 1202.05 Q192.639 1198.49 192.639 1191.38 Q192.639 1184.25 190.81 1180.71 Q189.005 1177.15 185.37 1177.15 M185.37 1173.44 Q191.181 1173.44 194.236 1178.05 Q197.315 1182.63 197.315 1191.38 Q197.315 1200.11 194.236 1204.72 Q191.181 1209.3 185.37 1209.3 Q179.56 1209.3 176.482 1204.72 Q173.426 1200.11 173.426 1191.38 Q173.426 1182.63 176.482 1178.05 Q179.56 1173.44 185.37 1173.44 Z" fill="#000000" fill-rule="nonzero" fill-opacity="1" /><path clip-path="url(#clip550)" d="M233.704 1183.17 L223.125 1193.79 L233.704 1204.37 L230.949 1207.17 L220.324 1196.55 L209.699 1207.17 L206.968 1204.37 L217.523 1193.79 L206.968 1183.17 L209.699 1180.36 L220.324 1190.99 L230.949 1180.36 L233.704 1183.17 Z" fill="#000000" fill-rule="nonzero" fill-opacity="1" /><path clip-path="url(#clip550)" d="M246.065 1204.69 L253.703 1204.69 L253.703 1178.33 L245.393 1179.99 L245.393 1175.73 L253.657 1174.07 L258.333 1174.07 L258.333 1204.69 L265.972 1204.69 L265.972 1208.63 L246.065 1208.63 L246.065 1204.69 Z" fill="#000000" fill-rule="nonzero" fill-opacity="1" /><path clip-path="url(#clip550)" d="M285.416 1177.15 Q281.805 1177.15 279.976 1180.71 Q278.171 1184.25 278.171 1191.38 Q278.171 1198.49 279.976 1202.05 Q281.805 1205.6 285.416 1205.6 Q289.05 1205.6 290.856 1202.05 Q292.685 1198.49 292.685 1191.38 Q292.685 1184.25 290.856 1180.71 Q289.05 1177.15 285.416 1177.15 M285.416 1173.44 Q291.226 1173.44 294.282 1178.05 Q297.361 1182.63 297.361 1191.38 Q297.361 1200.11 294.282 1204.72 Q291.226 1209.3 285.416 1209.3 Q279.606 1209.3 276.527 1204.72 Q273.472 1200.11 273.472 1191.38 Q273.472 1182.63 276.527 1178.05 Q279.606 1173.44 285.416 1173.44 Z" fill="#000000" fill-rule="nonzero" fill-opacity="1" /><path clip-path="url(#clip550)" d="M299.166 1180.63 L299.166 1177.17 Q300.596 1177.85 302.063 1178.21 Q303.53 1178.57 304.94 1178.57 Q308.702 1178.57 310.676 1176.05 Q312.67 1173.51 312.952 1168.35 Q311.861 1169.97 310.187 1170.84 Q308.514 1171.7 306.482 1171.7 Q302.269 1171.7 299.806 1169.16 Q297.361 1166.6 297.361 1162.18 Q297.361 1157.86 299.918 1155.24 Q302.476 1152.63 306.727 1152.63 Q311.598 1152.63 314.156 1156.37 Q316.733 1160.1 316.733 1167.21 Q316.733 1173.85 313.573 1177.81 Q310.432 1181.76 305.109 1181.76 Q303.68 1181.76 302.213 1181.48 Q300.746 1181.2 299.166 1180.63 M306.727 1168.73 Q309.285 1168.73 310.771 1166.98 Q312.275 1165.23 312.275 1162.18 Q312.275 1159.16 310.771 1157.41 Q309.285 1155.64 306.727 1155.64 Q304.169 1155.64 302.664 1157.41 Q301.179 1159.16 301.179 1162.18 Q301.179 1165.23 302.664 1166.98 Q304.169 1168.73 306.727 1168.73 Z" fill="#000000" fill-rule="nonzero" fill-opacity="1" /><path clip-path="url(#clip550)" d="M100.788 851.318 L108.426 851.318 L108.426 824.952 L100.116 826.619 L100.116 822.36 L108.38 820.693 L113.056 820.693 L113.056 851.318 L120.695 851.318 L120.695 855.253 L100.788 855.253 L100.788 851.318 Z" fill="#000000" fill-rule="nonzero" fill-opacity="1" /><path clip-path="url(#clip550)" d="M130.139 849.374 L135.023 849.374 L135.023 855.253 L130.139 855.253 L130.139 849.374 Z" fill="#000000" fill-rule="nonzero" fill-opacity="1" /><path clip-path="url(#clip550)" d="M145.255 820.693 L163.611 820.693 L163.611 824.628 L149.537 824.628 L149.537 833.1 Q150.556 832.753 151.574 832.591 Q152.593 832.406 153.611 832.406 Q159.398 832.406 162.778 835.577 Q166.158 838.749 166.158 844.165 Q166.158 849.744 162.685 852.846 Q159.213 855.924 152.894 855.924 Q150.718 855.924 148.449 855.554 Q146.204 855.184 143.797 854.443 L143.797 849.744 Q145.88 850.878 148.102 851.434 Q150.324 851.989 152.801 851.989 Q156.806 851.989 159.144 849.883 Q161.482 847.776 161.482 844.165 Q161.482 840.554 159.144 838.448 Q156.806 836.341 152.801 836.341 Q150.926 836.341 149.051 836.758 Q147.199 837.175 145.255 838.054 L145.255 820.693 Z" fill="#000000" fill-rule="nonzero" fill-opacity="1" /><path clip-path="url(#clip550)" d="M185.37 823.772 Q181.759 823.772 179.931 827.337 Q178.125 830.878 178.125 838.008 Q178.125 845.114 179.931 848.679 Q181.759 852.221 185.37 852.221 Q189.005 852.221 190.81 848.679 Q192.639 845.114 192.639 838.008 Q192.639 830.878 190.81 827.337 Q189.005 823.772 185.37 823.772 M185.37 820.068 Q191.181 820.068 194.236 824.675 Q197.315 829.258 197.315 838.008 Q197.315 846.735 194.236 851.341 Q191.181 855.924 185.37 855.924 Q179.56 855.924 176.482 851.341 Q173.426 846.735 173.426 838.008 Q173.426 829.258 176.482 824.675 Q179.56 820.068 185.37 820.068 Z" fill="#000000" fill-rule="nonzero" fill-opacity="1" /><path clip-path="url(#clip550)" d="M233.704 829.79 L223.125 840.415 L233.704 850.994 L230.949 853.795 L220.324 843.17 L209.699 853.795 L206.968 850.994 L217.523 840.415 L206.968 829.79 L209.699 826.989 L220.324 837.614 L230.949 826.989 L233.704 829.79 Z" fill="#000000" fill-rule="nonzero" fill-opacity="1" /><path clip-path="url(#clip550)" d="M246.065 851.318 L253.703 851.318 L253.703 824.952 L245.393 826.619 L245.393 822.36 L253.657 820.693 L258.333 820.693 L258.333 851.318 L265.972 851.318 L265.972 855.253 L246.065 855.253 L246.065 851.318 Z" fill="#000000" fill-rule="nonzero" fill-opacity="1" /><path clip-path="url(#clip550)" d="M285.416 823.772 Q281.805 823.772 279.976 827.337 Q278.171 830.878 278.171 838.008 Q278.171 845.114 279.976 848.679 Q281.805 852.221 285.416 852.221 Q289.05 852.221 290.856 848.679 Q292.685 845.114 292.685 838.008 Q292.685 830.878 290.856 827.337 Q289.05 823.772 285.416 823.772 M285.416 820.068 Q291.226 820.068 294.282 824.675 Q297.361 829.258 297.361 838.008 Q297.361 846.735 294.282 851.341 Q291.226 855.924 285.416 855.924 Q279.606 855.924 276.527 851.341 Q273.472 846.735 273.472 838.008 Q273.472 829.258 276.527 824.675 Q279.606 820.068 285.416 820.068 Z" fill="#000000" fill-rule="nonzero" fill-opacity="1" /><path clip-path="url(#clip550)" d="M299.166 827.26 L299.166 823.799 Q300.596 824.476 302.063 824.833 Q303.53 825.191 304.94 825.191 Q308.702 825.191 310.676 822.671 Q312.67 820.132 312.952 814.978 Q311.861 816.596 310.187 817.461 Q308.514 818.326 306.482 818.326 Q302.269 818.326 299.806 815.787 Q297.361 813.229 297.361 808.809 Q297.361 804.483 299.918 801.869 Q302.476 799.255 306.727 799.255 Q311.598 799.255 314.156 802.998 Q316.733 806.722 316.733 813.831 Q316.733 820.47 313.573 824.439 Q310.432 828.388 305.109 828.388 Q303.68 828.388 302.213 828.106 Q300.746 827.824 299.166 827.26 M306.727 815.354 Q309.285 815.354 310.771 813.605 Q312.275 811.856 312.275 808.809 Q312.275 805.781 310.771 804.032 Q309.285 802.264 306.727 802.264 Q304.169 802.264 302.664 804.032 Q301.179 805.781 301.179 808.809 Q301.179 811.856 302.664 813.605 Q304.169 815.354 306.727 815.354 Z" fill="#000000" fill-rule="nonzero" fill-opacity="1" /><path clip-path="url(#clip550)" d="M104.005 497.943 L120.324 497.943 L120.324 501.878 L98.3802 501.878 L98.3802 497.943 Q101.042 495.188 105.625 490.559 Q110.232 485.906 111.412 484.563 Q113.658 482.04 114.537 480.304 Q115.44 478.545 115.44 476.855 Q115.44 474.1 113.496 472.364 Q111.575 470.628 108.473 470.628 Q106.274 470.628 103.82 471.392 Q101.389 472.156 98.6116 473.707 L98.6116 468.985 Q101.436 467.85 103.889 467.272 Q106.343 466.693 108.38 466.693 Q113.75 466.693 116.945 469.378 Q120.139 472.063 120.139 476.554 Q120.139 478.684 119.329 480.605 Q118.542 482.503 116.436 485.096 Q115.857 485.767 112.755 488.984 Q109.653 492.179 104.005 497.943 Z" fill="#000000" fill-rule="nonzero" fill-opacity="1" /><path clip-path="url(#clip550)" d="M130.139 495.998 L135.023 495.998 L135.023 501.878 L130.139 501.878 L130.139 495.998 Z" fill="#000000" fill-rule="nonzero" fill-opacity="1" /><path clip-path="url(#clip550)" d="M155.209 470.397 Q151.597 470.397 149.769 473.961 Q147.963 477.503 147.963 484.633 Q147.963 491.739 149.769 495.304 Q151.597 498.846 155.209 498.846 Q158.843 498.846 160.648 495.304 Q162.477 491.739 162.477 484.633 Q162.477 477.503 160.648 473.961 Q158.843 470.397 155.209 470.397 M155.209 466.693 Q161.019 466.693 164.074 471.299 Q167.153 475.883 167.153 484.633 Q167.153 493.359 164.074 497.966 Q161.019 502.549 155.209 502.549 Q149.398 502.549 146.32 497.966 Q143.264 493.359 143.264 484.633 Q143.264 475.883 146.32 471.299 Q149.398 466.693 155.209 466.693 Z" fill="#000000" fill-rule="nonzero" fill-opacity="1" /><path clip-path="url(#clip550)" d="M185.37 470.397 Q181.759 470.397 179.931 473.961 Q178.125 477.503 178.125 484.633 Q178.125 491.739 179.931 495.304 Q181.759 498.846 185.37 498.846 Q189.005 498.846 190.81 495.304 Q192.639 491.739 192.639 484.633 Q192.639 477.503 190.81 473.961 Q189.005 470.397 185.37 470.397 M185.37 466.693 Q191.181 466.693 194.236 471.299 Q197.315 475.883 197.315 484.633 Q197.315 493.359 194.236 497.966 Q191.181 502.549 185.37 502.549 Q179.56 502.549 176.482 497.966 Q173.426 493.359 173.426 484.633 Q173.426 475.883 176.482 471.299 Q179.56 466.693 185.37 466.693 Z" fill="#000000" fill-rule="nonzero" fill-opacity="1" /><path clip-path="url(#clip550)" d="M233.704 476.415 L223.125 487.04 L233.704 497.619 L230.949 500.42 L220.324 489.795 L209.699 500.42 L206.968 497.619 L217.523 487.04 L206.968 476.415 L209.699 473.614 L220.324 484.239 L230.949 473.614 L233.704 476.415 Z" fill="#000000" fill-rule="nonzero" fill-opacity="1" /><path clip-path="url(#clip550)" d="M246.065 497.943 L253.703 497.943 L253.703 471.577 L245.393 473.244 L245.393 468.985 L253.657 467.318 L258.333 467.318 L258.333 497.943 L265.972 497.943 L265.972 501.878 L246.065 501.878 L246.065 497.943 Z" fill="#000000" fill-rule="nonzero" fill-opacity="1" /><path clip-path="url(#clip550)" d="M285.416 470.397 Q281.805 470.397 279.976 473.961 Q278.171 477.503 278.171 484.633 Q278.171 491.739 279.976 495.304 Q281.805 498.846 285.416 498.846 Q289.05 498.846 290.856 495.304 Q292.685 491.739 292.685 484.633 Q292.685 477.503 290.856 473.961 Q289.05 470.397 285.416 470.397 M285.416 466.693 Q291.226 466.693 294.282 471.299 Q297.361 475.883 297.361 484.633 Q297.361 493.359 294.282 497.966 Q291.226 502.549 285.416 502.549 Q279.606 502.549 276.527 497.966 Q273.472 493.359 273.472 484.633 Q273.472 475.883 276.527 471.299 Q279.606 466.693 285.416 466.693 Z" fill="#000000" fill-rule="nonzero" fill-opacity="1" /><path clip-path="url(#clip550)" d="M299.166 473.884 L299.166 470.424 Q300.596 471.101 302.063 471.458 Q303.53 471.816 304.94 471.816 Q308.702 471.816 310.676 469.295 Q312.67 466.756 312.952 461.603 Q311.861 463.22 310.187 464.086 Q308.514 464.951 306.482 464.951 Q302.269 464.951 299.806 462.412 Q297.361 459.854 297.361 455.434 Q297.361 451.108 299.918 448.494 Q302.476 445.88 306.727 445.88 Q311.598 445.88 314.156 449.622 Q316.733 453.346 316.733 460.456 Q316.733 467.095 313.573 471.063 Q310.432 475.013 305.109 475.013 Q303.68 475.013 302.213 474.731 Q300.746 474.449 299.166 473.884 M306.727 461.979 Q309.285 461.979 310.771 460.23 Q312.275 458.481 312.275 455.434 Q312.275 452.406 310.771 450.657 Q309.285 448.889 306.727 448.889 Q304.169 448.889 302.664 450.657 Q301.179 452.406 301.179 455.434 Q301.179 458.481 302.664 460.23 Q304.169 461.979 306.727 461.979 Z" fill="#000000" fill-rule="nonzero" fill-opacity="1" /><path clip-path="url(#clip550)" d="M104.005 144.568 L120.324 144.568 L120.324 148.503 L98.3802 148.503 L98.3802 144.568 Q101.042 141.813 105.625 137.183 Q110.232 132.531 111.412 131.188 Q113.658 128.665 114.537 126.929 Q115.44 125.17 115.44 123.48 Q115.44 120.725 113.496 118.989 Q111.575 117.253 108.473 117.253 Q106.274 117.253 103.82 118.017 Q101.389 118.781 98.6116 120.332 L98.6116 115.609 Q101.436 114.475 103.889 113.896 Q106.343 113.318 108.38 113.318 Q113.75 113.318 116.945 116.003 Q120.139 118.688 120.139 123.179 Q120.139 125.308 119.329 127.23 Q118.542 129.128 116.436 131.72 Q115.857 132.392 112.755 135.609 Q109.653 138.804 104.005 144.568 Z" fill="#000000" fill-rule="nonzero" fill-opacity="1" /><path clip-path="url(#clip550)" d="M130.139 142.623 L135.023 142.623 L135.023 148.503 L130.139 148.503 L130.139 142.623 Z" fill="#000000" fill-rule="nonzero" fill-opacity="1" /><path clip-path="url(#clip550)" d="M145.255 113.943 L163.611 113.943 L163.611 117.878 L149.537 117.878 L149.537 126.35 Q150.556 126.003 151.574 125.841 Q152.593 125.656 153.611 125.656 Q159.398 125.656 162.778 128.827 Q166.158 131.998 166.158 137.415 Q166.158 142.994 162.685 146.095 Q159.213 149.174 152.894 149.174 Q150.718 149.174 148.449 148.804 Q146.204 148.433 143.797 147.693 L143.797 142.994 Q145.88 144.128 148.102 144.683 Q150.324 145.239 152.801 145.239 Q156.806 145.239 159.144 143.132 Q161.482 141.026 161.482 137.415 Q161.482 133.804 159.144 131.697 Q156.806 129.591 152.801 129.591 Q150.926 129.591 149.051 130.007 Q147.199 130.424 145.255 131.304 L145.255 113.943 Z" fill="#000000" fill-rule="nonzero" fill-opacity="1" /><path clip-path="url(#clip550)" d="M185.37 117.021 Q181.759 117.021 179.931 120.586 Q178.125 124.128 178.125 131.257 Q178.125 138.364 179.931 141.929 Q181.759 145.47 185.37 145.47 Q189.005 145.47 190.81 141.929 Q192.639 138.364 192.639 131.257 Q192.639 124.128 190.81 120.586 Q189.005 117.021 185.37 117.021 M185.37 113.318 Q191.181 113.318 194.236 117.924 Q197.315 122.507 197.315 131.257 Q197.315 139.984 194.236 144.591 Q191.181 149.174 185.37 149.174 Q179.56 149.174 176.482 144.591 Q173.426 139.984 173.426 131.257 Q173.426 122.507 176.482 117.924 Q179.56 113.318 185.37 113.318 Z" fill="#000000" fill-rule="nonzero" fill-opacity="1" /><path clip-path="url(#clip550)" d="M233.704 123.04 L223.125 133.665 L233.704 144.243 L230.949 147.044 L220.324 136.419 L209.699 147.044 L206.968 144.243 L217.523 133.665 L206.968 123.04 L209.699 120.239 L220.324 130.864 L230.949 120.239 L233.704 123.04 Z" fill="#000000" fill-rule="nonzero" fill-opacity="1" /><path clip-path="url(#clip550)" d="M246.065 144.568 L253.703 144.568 L253.703 118.202 L245.393 119.869 L245.393 115.609 L253.657 113.943 L258.333 113.943 L258.333 144.568 L265.972 144.568 L265.972 148.503 L246.065 148.503 L246.065 144.568 Z" fill="#000000" fill-rule="nonzero" fill-opacity="1" /><path clip-path="url(#clip550)" d="M285.416 117.021 Q281.805 117.021 279.976 120.586 Q278.171 124.128 278.171 131.257 Q278.171 138.364 279.976 141.929 Q281.805 145.47 285.416 145.47 Q289.05 145.47 290.856 141.929 Q292.685 138.364 292.685 131.257 Q292.685 124.128 290.856 120.586 Q289.05 117.021 285.416 117.021 M285.416 113.318 Q291.226 113.318 294.282 117.924 Q297.361 122.507 297.361 131.257 Q297.361 139.984 294.282 144.591 Q291.226 149.174 285.416 149.174 Q279.606 149.174 276.527 144.591 Q273.472 139.984 273.472 131.257 Q273.472 122.507 276.527 117.924 Q279.606 113.318 285.416 113.318 Z" fill="#000000" fill-rule="nonzero" fill-opacity="1" /><path clip-path="url(#clip550)" d="M299.166 120.509 L299.166 117.049 Q300.596 117.726 302.063 118.083 Q303.53 118.44 304.94 118.44 Q308.702 118.44 310.676 115.92 Q312.67 113.381 312.952 108.228 Q311.861 109.845 310.187 110.71 Q308.514 111.576 306.482 111.576 Q302.269 111.576 299.806 109.037 Q297.361 106.479 297.361 102.059 Q297.361 97.7331 299.918 95.1188 Q302.476 92.5045 306.727 92.5045 Q311.598 92.5045 314.156 96.2473 Q316.733 99.9712 316.733 107.081 Q316.733 113.72 313.573 117.688 Q310.432 121.638 305.109 121.638 Q303.68 121.638 302.213 121.356 Q300.746 121.074 299.166 120.509 M306.727 108.604 Q309.285 108.604 310.771 106.855 Q312.275 105.106 312.275 102.059 Q312.275 99.0308 310.771 97.2817 Q309.285 95.5138 306.727 95.5138 Q304.169 95.5138 302.664 97.2817 Q301.179 99.0308 301.179 102.059 Q301.179 105.106 302.664 106.855 Q304.169 108.604 306.727 108.604 Z" fill="#000000" fill-rule="nonzero" fill-opacity="1" /><path clip-path="url(#clip550)" d="M-9.64527 840.632 L0.4762 840.632 L0.4762 828.569 L5.02768 828.569 L5.02768 840.632 L24.3794 840.632 Q28.7399 840.632 29.9813 839.454 Q31.2226 838.245 31.2226 834.584 L31.2226 828.569 L36.1242 828.569 L36.1242 834.584 Q36.1242 841.364 33.6097 843.942 Q31.0634 846.52 24.3794 846.52 L5.02768 846.52 L5.02768 850.817 L0.4762 850.817 L0.4762 846.52 L-9.64527 846.52 L-9.64527 840.632 Z" fill="#000000" fill-rule="nonzero" fill-opacity="1" /><path clip-path="url(#clip550)" d="M-11.3958 789.738 L-11.3958 784.327 L42.1716 800.878 L42.1716 806.289 L-11.3958 789.738 Z" fill="#000000" fill-rule="nonzero" fill-opacity="1" /><path clip-path="url(#clip550)" d="M14.6081 727.831 L36.1242 727.831 L36.1242 733.688 L14.799 733.688 Q9.7383 733.688 7.22385 735.661 Q4.7094 737.635 4.7094 741.581 Q4.7094 746.324 7.73311 749.061 Q10.7568 751.798 15.9767 751.798 L36.1242 751.798 L36.1242 757.687 L0.4762 757.687 L0.4762 751.798 L6.01437 751.798 Q2.79968 749.698 1.20826 746.865 Q-0.38317 744 -0.38317 740.276 Q-0.38317 734.133 3.43625 730.982 Q7.22385 727.831 14.6081 727.831 Z" fill="#000000" fill-rule="nonzero" fill-opacity="1" /><path clip-path="url(#clip550)" d="M1.52654 693.425 L7.06471 693.425 Q5.79157 695.907 5.15499 698.581 Q4.51842 701.255 4.51842 704.119 Q4.51842 708.48 5.85522 710.676 Q7.19202 712.84 9.86562 712.84 Q11.9026 712.84 13.0803 711.281 Q14.2261 709.721 15.2765 705.01 L15.7221 703.005 Q17.0589 696.767 19.5097 694.157 Q21.9286 691.515 26.2891 691.515 Q31.2544 691.515 34.1508 695.462 Q37.0472 699.377 37.0472 706.252 Q37.0472 709.116 36.4743 712.235 Q35.9332 715.323 34.8192 718.76 L28.7718 718.76 Q30.4587 715.514 31.318 712.363 Q32.1456 709.212 32.1456 706.124 Q32.1456 701.987 30.7451 699.759 Q29.3129 697.531 26.7347 697.531 Q24.3476 697.531 23.0745 699.154 Q21.8013 700.745 20.6237 706.188 L20.1462 708.225 Q19.0004 713.668 16.6451 716.087 Q14.258 718.506 10.1202 718.506 Q5.09134 718.506 2.35408 714.941 Q-0.38317 711.376 -0.38317 704.819 Q-0.38317 701.573 0.0942579 698.708 Q0.571686 695.844 1.52654 693.425 Z" fill="#000000" fill-rule="nonzero" fill-opacity="1" /><path clip-path="url(#clip552)" d="M816.182 1454.11 L815.476 1454.02 L814.299 1453.93 L812.673 1453.85 L810.632 1453.76 L808.212 1453.67 L805.46 1453.58 L802.426 1453.49 L799.166 1453.4 L795.737 1453.32 L792.199 1453.23 L788.611 1453.14 L785.034 1453.05 L781.525 1452.96 L778.141 1452.87 L774.935 1452.79 L771.957 1452.7 L769.253 1452.61 L766.866 1452.52 L764.836 1452.43 L763.2 1452.34 L761.99 1452.26 L761.236 1452.17 L760.966 1452.08 L761.205 1451.99 L761.976 1451.9 L763.3 1451.81 L765.194 1451.73 L767.674 1451.64 L770.754 1451.55 L774.442 1451.46 L778.746 1451.37 L783.666 1451.28 L789.2 1451.2 L795.339 1451.11 L802.068 1451.02 L809.365 1450.93 L817.201 1450.84 L825.541 1450.75 L834.34 1450.67 L843.546 1450.58 L853.102 1450.49 L862.943 1450.4 L872.996 1450.31 L883.188 1450.22 L893.438 1450.14 L903.665 1450.05 L913.789 1449.96 L923.729 1449.87 L933.408 1449.78 L942.753 1449.69 L951.698 1449.6 L960.184 1449.52 L968.163 1449.43 L975.595 1449.34 L982.45 1449.25 L988.713 1449.16 L994.376 1449.07 L999.443 1448.99 L1003.93 1448.9 L1007.86 1448.81 L1011.27 1448.72 L1014.2 1448.63 L1016.68 1448.54 L1018.77 1448.46 L1020.51 1448.37 L1021.96 1448.28 L1023.16 1448.19 L1024.15 1448.1 L1024.98 1448.01 L1025.67 1447.93 L1026.26 1447.84 L1026.76 1447.75 L1027.18 1447.66 L1027.54 1447.57 L1027.82 1447.48 L1028.02 1447.4 L1028.13 1447.31 L1028.12 1447.22 L1027.96 1447.13 L1027.62 1447.04 L1027.07 1446.95 L1026.26 1446.87 L1025.16 1446.78 L1023.73 1446.69 L1021.92 1446.6 L1019.69 1446.51 L1017 1446.42 L1013.82 1446.34 L1010.11 1446.25 L1005.85 1446.16 L1001.01 1446.07 L995.582 1445.98 L989.556 1445.89 L982.934 1445.81 L975.729 1445.72 L496.04 1445.72 L488.835 1445.81 L482.213 1445.89 L476.187 1445.98 L470.758 1446.07 L465.919 1446.16 L461.656 1446.25 L457.947 1446.34 L454.766 1446.42 L452.078 1446.51 L449.849 1446.6 L448.038 1446.69 L446.604 1446.78 L445.506 1446.87 L444.701 1446.95 L444.149 1447.04 L443.811 1447.13 L443.652 1447.22 L443.639 1447.31 L443.745 1447.4 L443.948 1447.48 L444.233 1447.57 L444.589 1447.66 L445.014 1447.75 L445.513 1447.84 L446.099 1447.93 L446.792 1448.01 L447.618 1448.1 L448.611 1448.19 L449.81 1448.28 L451.258 1448.37 L453.002 1448.46 L455.091 1448.54 L457.574 1448.63 L460.498 1448.72 L463.906 1448.81 L467.838 1448.9 L472.326 1448.99 L477.393 1449.07 L483.056 1449.16 L489.319 1449.25 L496.174 1449.34 L503.606 1449.43 L511.585 1449.52 L520.071 1449.6 L529.016 1449.69 L538.361 1449.78 L548.04 1449.87 L557.98 1449.96 L568.104 1450.05 L578.331 1450.14 L588.581 1450.22 L598.773 1450.31 L608.826 1450.4 L618.667 1450.49 L628.223 1450.58 L637.429 1450.67 L646.228 1450.75 L654.568 1450.84 L662.404 1450.93 L669.702 1451.02 L676.43 1451.11 L682.569 1451.2 L688.103 1451.28 L693.024 1451.37 L697.327 1451.46 L701.016 1451.55 L704.095 1451.64 L706.575 1451.73 L708.469 1451.81 L709.793 1451.9 L710.564 1451.99 L710.803 1452.08 L710.533 1452.17 L709.779 1452.26 L708.569 1452.34 L706.933 1452.43 L704.903 1452.52 L702.517 1452.61 L699.813 1452.7 L696.834 1452.79 L693.628 1452.87 L690.244 1452.96 L686.735 1453.05 L683.158 1453.14 L679.57 1453.23 L676.032 1453.32 L672.603 1453.4 L669.343 1453.49 L666.309 1453.58 L663.557 1453.67 L661.137 1453.76 L659.096 1453.85 L657.47 1453.93 L656.293 1454.02 L655.587 1454.11 L816.182 1454.11  Z" fill="#009af9" fill-rule="evenodd" fill-opacity="1"/>
<polyline clip-path="url(#clip552)" style="stroke:#000000; stroke-linecap:round; stroke-linejoin:round; stroke-width:4; stroke-opacity:1; fill:none" points="816.182,1454.11 815.476,1454.02 814.299,1453.93 812.673,1453.85 810.632,1453.76 808.212,1453.67 805.46,1453.58 802.426,1453.49 799.166,1453.4 795.737,1453.32 792.199,1453.23 788.611,1453.14 785.034,1453.05 781.525,1452.96 778.141,1452.87 774.935,1452.79 771.957,1452.7 769.253,1452.61 766.866,1452.52 764.836,1452.43 763.2,1452.34 761.99,1452.26 761.236,1452.17 760.966,1452.08 761.205,1451.99 761.976,1451.9 763.3,1451.81 765.194,1451.73 767.674,1451.64 770.754,1451.55 774.442,1451.46 778.746,1451.37 783.666,1451.28 789.2,1451.2 795.339,1451.11 802.068,1451.02 809.365,1450.93 817.201,1450.84 825.541,1450.75 834.34,1450.67 843.546,1450.58 853.102,1450.49 862.943,1450.4 872.996,1450.31 883.188,1450.22 893.438,1450.14 903.665,1450.05 913.789,1449.96 923.729,1449.87 933.408,1449.78 942.753,1449.69 951.698,1449.6 960.184,1449.52 968.163,1449.43 975.595,1449.34 982.45,1449.25 988.713,1449.16 994.376,1449.07 999.443,1448.99 1003.93,1448.9 1007.86,1448.81 1011.27,1448.72 1014.2,1448.63 1016.68,1448.54 1018.77,1448.46 1020.51,1448.37 1021.96,1448.28 1023.16,1448.19 1024.15,1448.1 1024.98,1448.01 1025.67,1447.93 1026.26,1447.84 1026.76,1447.75 1027.18,1447.66 1027.54,1447.57 1027.82,1447.48 1028.02,1447.4 1028.13,1447.31 1028.12,1447.22 1027.96,1447.13 1027.62,1447.04 1027.07,1446.95 1026.26,1446.87 1025.16,1446.78 1023.73,1446.69 1021.92,1446.6 1019.69,1446.51 1017,1446.42 1013.82,1446.34 1010.11,1446.25 1005.85,1446.16 1001.01,1446.07 995.582,1445.98 989.556,1445.89 982.934,1445.81 975.729,1445.72 496.04,1445.72 488.835,1445.81 482.213,1445.89 476.187,1445.98 470.758,1446.07 465.919,1446.16 461.656,1446.25 457.947,1446.34 454.766,1446.42 452.078,1446.51 449.849,1446.6 448.038,1446.69 446.604,1446.78 445.506,1446.87 444.701,1446.95 444.149,1447.04 443.811,1447.13 443.652,1447.22 443.639,1447.31 443.745,1447.4 443.948,1447.48 444.233,1447.57 444.589,1447.66 445.014,1447.75 445.513,1447.84 446.099,1447.93 446.792,1448.01 447.618,1448.1 448.611,1448.19 449.81,1448.28 451.258,1448.37 453.002,1448.46 455.091,1448.54 457.574,1448.63 460.498,1448.72 463.906,1448.81 467.838,1448.9 472.326,1448.99 477.393,1449.07 483.056,1449.16 489.319,1449.25 496.174,1449.34 503.606,1449.43 511.585,1449.52 520.071,1449.6 529.016,1449.69 538.361,1449.78 548.04,1449.87 557.98,1449.96 568.104,1450.05 578.331,1450.14 588.581,1450.22 598.773,1450.31 608.826,1450.4 618.667,1450.49 628.223,1450.58 637.429,1450.67 646.228,1450.75 654.568,1450.84 662.404,1450.93 669.702,1451.02 676.43,1451.11 682.569,1451.2 688.103,1451.28 693.024,1451.37 697.327,1451.46 701.016,1451.55 704.095,1451.64 706.575,1451.73 708.469,1451.81 709.793,1451.9 710.564,1451.99 710.803,1452.08 710.533,1452.17 709.779,1452.26 708.569,1452.34 706.933,1452.43 704.903,1452.52 702.517,1452.61 699.813,1452.7 696.834,1452.79 693.628,1452.87 690.244,1452.96 686.735,1453.05 683.158,1453.14 679.57,1453.23 676.032,1453.32 672.603,1453.4 669.343,1453.49 666.309,1453.58 663.557,1453.67 661.137,1453.76 659.096,1453.85 657.47,1453.93 656.293,1454.02 655.587,1454.11 816.182,1454.11 "/>
<path clip-path="url(#clip552)" d="M1964.77 1437.78 L1973.65 1437.5 L1982.25 1437.23 L1990.5 1436.95 L1998.36 1436.68 L2005.79 1436.4 L2012.72 1436.12 L2019.14 1435.85 L2025 1435.57 L2030.28 1435.3 L2034.96 1435.02 L2039.02 1434.75 L2042.48 1434.47 L2045.32 1434.2 L2047.56 1433.92 L2049.22 1433.65 L2050.33 1433.37 L2050.9 1433.1 L2050.99 1432.82 L2050.63 1432.54 L2049.86 1432.27 L2048.74 1431.99 L2047.3 1431.72 L2045.59 1431.44 L2043.67 1431.17 L2041.57 1430.89 L2039.34 1430.62 L2037 1430.34 L2034.6 1430.07 L2032.14 1429.79 L2029.65 1429.51 L2027.15 1429.24 L2024.62 1428.96 L2022.08 1428.69 L2019.51 1428.41 L2016.9 1428.14 L2014.23 1427.86 L2011.48 1427.59 L2008.63 1427.31 L2005.63 1427.04 L2002.48 1426.76 L1999.14 1426.48 L1995.6 1426.21 L1991.82 1425.93 L1987.79 1425.66 L1983.5 1425.38 L1978.95 1425.11 L1974.13 1424.83 L1969.06 1424.56 L1963.74 1424.28 L1958.2 1424.01 L1952.46 1423.73 L1946.56 1423.45 L1940.53 1423.18 L1934.42 1422.9 L1928.27 1422.63 L1922.13 1422.35 L1916.05 1422.08 L1910.08 1421.8 L1904.25 1421.53 L1898.62 1421.25 L1893.23 1420.98 L1888.1 1420.7 L1883.28 1420.43 L1878.77 1420.15 L1874.6 1419.87 L1870.78 1419.6 L1867.31 1419.32 L1864.17 1419.05 L1861.36 1418.77 L1858.86 1418.5 L1856.64 1418.22 L1854.67 1417.95 L1852.92 1417.67 L1851.34 1417.4 L1849.91 1417.12 L1848.57 1416.84 L1847.29 1416.57 L1846.02 1416.29 L1844.74 1416.02 L1843.4 1415.74 L1841.97 1415.47 L1675.52 1415.47 L1674.09 1415.74 L1672.75 1416.02 L1671.47 1416.29 L1670.2 1416.57 L1668.92 1416.84 L1667.58 1417.12 L1666.15 1417.4 L1664.57 1417.67 L1662.82 1417.95 L1660.85 1418.22 L1658.63 1418.5 L1656.13 1418.77 L1653.32 1419.05 L1650.18 1419.32 L1646.71 1419.6 L1642.88 1419.87 L1638.72 1420.15 L1634.21 1420.43 L1629.39 1420.7 L1624.26 1420.98 L1618.87 1421.25 L1613.24 1421.53 L1607.41 1421.8 L1601.44 1422.08 L1595.35 1422.35 L1589.21 1422.63 L1583.07 1422.9 L1576.96 1423.18 L1570.93 1423.45 L1565.03 1423.73 L1559.29 1424.01 L1553.75 1424.28 L1548.43 1424.56 L1543.36 1424.83 L1538.54 1425.11 L1533.99 1425.38 L1529.7 1425.66 L1525.67 1425.93 L1521.89 1426.21 L1518.34 1426.48 L1515.01 1426.76 L1511.85 1427.04 L1508.86 1427.31 L1506 1427.59 L1503.25 1427.86 L1500.58 1428.14 L1497.97 1428.41 L1495.41 1428.69 L1492.86 1428.96 L1490.34 1429.24 L1487.83 1429.51 L1485.35 1429.79 L1482.89 1430.07 L1480.48 1430.34 L1478.15 1430.62 L1475.91 1430.89 L1473.82 1431.17 L1471.89 1431.44 L1470.19 1431.72 L1468.75 1431.99 L1467.63 1432.27 L1466.86 1432.54 L1466.5 1432.82 L1466.59 1433.1 L1467.16 1433.37 L1468.27 1433.65 L1469.93 1433.92 L1472.17 1434.2 L1475.01 1434.47 L1478.46 1434.75 L1482.53 1435.02 L1487.21 1435.3 L1492.49 1435.57 L1498.35 1435.85 L1504.77 1436.12 L1511.7 1436.4 L1519.12 1436.68 L1526.99 1436.95 L1535.24 1437.23 L1543.84 1437.5 L1552.72 1437.78 L1964.77 1437.78  Z" fill="#e26f46" fill-rule="evenodd" fill-opacity="1"/>
<polyline clip-path="url(#clip552)" style="stroke:#000000; stroke-linecap:round; stroke-linejoin:round; stroke-width:4; stroke-opacity:1; fill:none" points="1964.77,1437.78 1973.65,1437.5 1982.25,1437.23 1990.5,1436.95 1998.36,1436.68 2005.79,1436.4 2012.72,1436.12 2019.14,1435.85 2025,1435.57 2030.28,1435.3 2034.96,1435.02 2039.02,1434.75 2042.48,1434.47 2045.32,1434.2 2047.56,1433.92 2049.22,1433.65 2050.33,1433.37 2050.9,1433.1 2050.99,1432.82 2050.63,1432.54 2049.86,1432.27 2048.74,1431.99 2047.3,1431.72 2045.59,1431.44 2043.67,1431.17 2041.57,1430.89 2039.34,1430.62 2037,1430.34 2034.6,1430.07 2032.14,1429.79 2029.65,1429.51 2027.15,1429.24 2024.62,1428.96 2022.08,1428.69 2019.51,1428.41 2016.9,1428.14 2014.23,1427.86 2011.48,1427.59 2008.63,1427.31 2005.63,1427.04 2002.48,1426.76 1999.14,1426.48 1995.6,1426.21 1991.82,1425.93 1987.79,1425.66 1983.5,1425.38 1978.95,1425.11 1974.13,1424.83 1969.06,1424.56 1963.74,1424.28 1958.2,1424.01 1952.46,1423.73 1946.56,1423.45 1940.53,1423.18 1934.42,1422.9 1928.27,1422.63 1922.13,1422.35 1916.05,1422.08 1910.08,1421.8 1904.25,1421.53 1898.62,1421.25 1893.23,1420.98 1888.1,1420.7 1883.28,1420.43 1878.77,1420.15 1874.6,1419.87 1870.78,1419.6 1867.31,1419.32 1864.17,1419.05 1861.36,1418.77 1858.86,1418.5 1856.64,1418.22 1854.67,1417.95 1852.92,1417.67 1851.34,1417.4 1849.91,1417.12 1848.57,1416.84 1847.29,1416.57 1846.02,1416.29 1844.74,1416.02 1843.4,1415.74 1841.97,1415.47 1675.52,1415.47 1674.09,1415.74 1672.75,1416.02 1671.47,1416.29 1670.2,1416.57 1668.92,1416.84 1667.58,1417.12 1666.15,1417.4 1664.57,1417.67 1662.82,1417.95 1660.85,1418.22 1658.63,1418.5 1656.13,1418.77 1653.32,1419.05 1650.18,1419.32 1646.71,1419.6 1642.88,1419.87 1638.72,1420.15 1634.21,1420.43 1629.39,1420.7 1624.26,1420.98 1618.87,1421.25 1613.24,1421.53 1607.41,1421.8 1601.44,1422.08 1595.35,1422.35 1589.21,1422.63 1583.07,1422.9 1576.96,1423.18 1570.93,1423.45 1565.03,1423.73 1559.29,1424.01 1553.75,1424.28 1548.43,1424.56 1543.36,1424.83 1538.54,1425.11 1533.99,1425.38 1529.7,1425.66 1525.67,1425.93 1521.89,1426.21 1518.34,1426.48 1515.01,1426.76 1511.85,1427.04 1508.86,1427.31 1506,1427.59 1503.25,1427.86 1500.58,1428.14 1497.97,1428.41 1495.41,1428.69 1492.86,1428.96 1490.34,1429.24 1487.83,1429.51 1485.35,1429.79 1482.89,1430.07 1480.48,1430.34 1478.15,1430.62 1475.91,1430.89 1473.82,1431.17 1471.89,1431.44 1470.19,1431.72 1468.75,1431.99 1467.63,1432.27 1466.86,1432.54 1466.5,1432.82 1466.59,1433.1 1467.16,1433.37 1468.27,1433.65 1469.93,1433.92 1472.17,1434.2 1475.01,1434.47 1478.46,1434.75 1482.53,1435.02 1487.21,1435.3 1492.49,1435.57 1498.35,1435.85 1504.77,1436.12 1511.7,1436.4 1519.12,1436.68 1526.99,1436.95 1535.24,1437.23 1543.84,1437.5 1552.72,1437.78 1964.77,1437.78 "/>
<path clip-path="url(#clip552)" d="M3073.85 121.772 L3073.27 121.203 L3071.78 120.634 L3069.4 120.066 L3066.16 119.497 L3062.11 118.928 L3057.29 118.36 L3051.76 117.791 L3045.59 117.222 L3038.86 116.654 L3031.65 116.085 L3024.03 115.517 L3016.1 114.948 L3007.95 114.379 L2999.67 113.811 L2991.36 113.242 L2983.1 112.673 L2974.99 112.105 L2967.12 111.536 L2959.57 110.967 L2952.43 110.399 L2945.77 109.83 L2939.66 109.261 L2934.17 108.693 L2929.35 108.124 L2925.25 107.555 L2921.93 106.987 L2919.4 106.418 L2917.7 105.849 L2916.85 105.281 L2916.85 104.712 L2917.7 104.143 L2919.4 103.575 L2921.93 103.006 L2925.25 102.437 L2929.35 101.869 L2934.17 101.3 L2939.66 100.731 L2945.77 100.163 L2952.43 99.594 L2959.57 99.0254 L2967.12 98.4567 L2974.99 97.888 L2983.1 97.3194 L2991.36 96.7507 L2999.67 96.1821 L3007.95 95.6134 L3016.1 95.0447 L3024.03 94.4761 L3031.65 93.9074 L3038.86 93.3388 L3045.59 92.7701 L3051.76 92.2014 L3057.29 91.6328 L3062.11 91.0641 L3066.16 90.4954 L3069.4 89.9268 L3071.78 89.3581 L3073.27 88.7895 L3073.85 88.2208 L2489.36 88.2208 L2489.93 88.7895 L2491.42 89.3581 L2493.81 89.9268 L2497.05 90.4954 L2501.1 91.0641 L2505.92 91.6328 L2511.45 92.2014 L2517.61 92.7701 L2524.34 93.3388 L2531.56 93.9074 L2539.18 94.4761 L2547.11 95.0447 L2555.26 95.6134 L2563.54 96.1821 L2571.85 96.7507 L2580.11 97.3194 L2588.22 97.888 L2596.09 98.4567 L2603.64 99.0254 L2610.78 99.594 L2617.44 100.163 L2623.55 100.731 L2629.04 101.3 L2633.86 101.869 L2637.95 102.437 L2641.28 103.006 L2643.81 103.575 L2645.5 104.143 L2646.36 104.712 L2646.36 105.281 L2645.5 105.849 L2643.81 106.418 L2641.28 106.987 L2637.95 107.555 L2633.86 108.124 L2629.04 108.693 L2623.55 109.261 L2617.44 109.83 L2610.78 110.399 L2603.64 110.967 L2596.09 111.536 L2588.22 112.105 L2580.11 112.673 L2571.85 113.242 L2563.54 113.811 L2555.26 114.379 L2547.11 114.948 L2539.18 115.517 L2531.56 116.085 L2524.34 116.654 L2517.61 117.222 L2511.45 117.791 L2505.92 118.36 L2501.1 118.928 L2497.05 119.497 L2493.81 120.066 L2491.42 120.634 L2489.93 121.203 L2489.36 121.772 L3073.85 121.772  Z" fill="#3da44d" fill-rule="evenodd" fill-opacity="1"/>
<polyline clip-path="url(#clip552)" style="stroke:#000000; stroke-linecap:round; stroke-linejoin:round; stroke-width:4; stroke-opacity:1; fill:none" points="3073.85,121.772 3073.27,121.203 3071.78,120.634 3069.4,120.066 3066.16,119.497 3062.11,118.928 3057.29,118.36 3051.76,117.791 3045.59,117.222 3038.86,116.654 3031.65,116.085 3024.03,115.517 3016.1,114.948 3007.95,114.379 2999.67,113.811 2991.36,113.242 2983.1,112.673 2974.99,112.105 2967.12,111.536 2959.57,110.967 2952.43,110.399 2945.77,109.83 2939.66,109.261 2934.17,108.693 2929.35,108.124 2925.25,107.555 2921.93,106.987 2919.4,106.418 2917.7,105.849 2916.85,105.281 2916.85,104.712 2917.7,104.143 2919.4,103.575 2921.93,103.006 2925.25,102.437 2929.35,101.869 2934.17,101.3 2939.66,100.731 2945.77,100.163 2952.43,99.594 2959.57,99.0254 2967.12,98.4567 2974.99,97.888 2983.1,97.3194 2991.36,96.7507 2999.67,96.1821 3007.95,95.6134 3016.1,95.0447 3024.03,94.4761 3031.65,93.9074 3038.86,93.3388 3045.59,92.7701 3051.76,92.2014 3057.29,91.6328 3062.11,91.0641 3066.16,90.4954 3069.4,89.9268 3071.78,89.3581 3073.27,88.7895 3073.85,88.2208 2489.36,88.2208 2489.93,88.7895 2491.42,89.3581 2493.81,89.9268 2497.05,90.4954 2501.1,91.0641 2505.92,91.6328 2511.45,92.2014 2517.61,92.7701 2524.34,93.3388 2531.56,93.9074 2539.18,94.4761 2547.11,95.0447 2555.26,95.6134 2563.54,96.1821 2571.85,96.7507 2580.11,97.3194 2588.22,97.888 2596.09,98.4567 2603.64,99.0254 2610.78,99.594 2617.44,100.163 2623.55,100.731 2629.04,101.3 2633.86,101.869 2637.95,102.437 2641.28,103.006 2643.81,103.575 2645.5,104.143 2646.36,104.712 2646.36,105.281 2645.5,105.849 2643.81,106.418 2641.28,106.987 2637.95,107.555 2633.86,108.124 2629.04,108.693 2623.55,109.261 2617.44,109.83 2610.78,110.399 2603.64,110.967 2596.09,111.536 2588.22,112.105 2580.11,112.673 2571.85,113.242 2563.54,113.811 2555.26,114.379 2547.11,114.948 2539.18,115.517 2531.56,116.085 2524.34,116.654 2517.61,117.222 2511.45,117.791 2505.92,118.36 2501.1,118.928 2497.05,119.497 2493.81,120.066 2491.42,120.634 2489.93,121.203 2489.36,121.772 3073.85,121.772 "/>
</svg>
