<?xml version="1.0" encoding="utf-8"?>
<svg xmlns="http://www.w3.org/2000/svg" xmlns:xlink="http://www.w3.org/1999/xlink" width="800" height="400" viewBox="0 0 3200 1600">
<defs>
  <clipPath id="clip840">
    <rect x="0" y="0" width="3200" height="1600"/>
  </clipPath>
</defs>
<path clip-path="url(#clip840)" d="M0 1600 L3200 1600 L3200 0 L0 0  Z" fill="#ffffff" fill-rule="evenodd" fill-opacity="1"/>
<defs>
  <clipPath id="clip841">
    <rect x="394" y="47" width="2759" height="1449"/>
  </clipPath>
</defs>
<path clip-path="url(#clip840)" d="M394.894 1495.09 L3152.76 1495.09 L3152.76 47.2441 L394.894 47.2441  Z" fill="#ffffff" fill-rule="evenodd" fill-opacity="1"/>
<polyline clip-path="url(#clip841)" style="stroke:#000000; stroke-linecap:round; stroke-linejoin:round; stroke-width:2; stroke-opacity:0.1; fill:none" points="945.994,1495.09 945.994,47.2441 "/>
<polyline clip-path="url(#clip841)" style="stroke:#000000; stroke-linecap:round; stroke-linejoin:round; stroke-width:2; stroke-opacity:0.1; fill:none" points="2601.66,1495.09 2601.66,47.2441 "/>
<polyline clip-path="url(#clip841)" style="stroke:#000000; stroke-linecap:round; stroke-linejoin:round; stroke-width:2; stroke-opacity:0.1; fill:none" points="394.894,1332.45 3152.76,1332.45 "/>
<polyline clip-path="url(#clip841)" style="stroke:#000000; stroke-linecap:round; stroke-linejoin:round; stroke-width:2; stroke-opacity:0.1; fill:none" points="394.894,1107.25 3152.76,1107.25 "/>
<polyline clip-path="url(#clip841)" style="stroke:#000000; stroke-linecap:round; stroke-linejoin:round; stroke-width:2; stroke-opacity:0.1; fill:none" points="394.894,882.044 3152.76,882.044 "/>
<polyline clip-path="url(#clip841)" style="stroke:#000000; stroke-linecap:round; stroke-linejoin:round; stroke-width:2; stroke-opacity:0.1; fill:none" points="394.894,656.843 3152.76,656.843 "/>
<polyline clip-path="url(#clip841)" style="stroke:#000000; stroke-linecap:round; stroke-linejoin:round; stroke-width:2; stroke-opacity:0.1; fill:none" points="394.894,431.642 3152.76,431.642 "/>
<polyline clip-path="url(#clip841)" style="stroke:#000000; stroke-linecap:round; stroke-linejoin:round; stroke-width:2; stroke-opacity:0.1; fill:none" points="394.894,206.44 3152.76,206.44 "/>
<polyline clip-path="url(#clip840)" style="stroke:#000000; stroke-linecap:round; stroke-linejoin:round; stroke-width:4; stroke-opacity:1; fill:none" points="394.894,1495.09 3152.76,1495.09 "/>
<polyline clip-path="url(#clip840)" style="stroke:#000000; stroke-linecap:round; stroke-linejoin:round; stroke-width:4; stroke-opacity:1; fill:none" points="945.994,1495.09 945.994,1476.19 "/>
<polyline clip-path="url(#clip840)" style="stroke:#000000; stroke-linecap:round; stroke-linejoin:round; stroke-width:4; stroke-opacity:1; fill:none" points="2601.66,1495.09 2601.66,1476.19 "/>
<path clip-path="url(#clip840)" d="M851.249 1533.4 L839.443 1551.85 L851.249 1551.85 L851.249 1533.4 M850.022 1529.33 L855.902 1529.33 L855.902 1551.85 L860.832 1551.85 L860.832 1555.74 L855.902 1555.74 L855.902 1563.89 L851.249 1563.89 L851.249 1555.74 L835.647 1555.74 L835.647 1551.23 L850.022 1529.33 Z" fill="#000000" fill-rule="nonzero" fill-opacity="1" /><path clip-path="url(#clip840)" d="M887.244 1530.6 L887.244 1537.96 L896.017 1537.96 L896.017 1541.27 L887.244 1541.27 L887.244 1555.35 Q887.244 1558.52 888.1 1559.42 Q888.98 1560.32 891.642 1560.32 L896.017 1560.32 L896.017 1563.89 L891.642 1563.89 Q886.712 1563.89 884.837 1562.06 Q882.962 1560.21 882.962 1555.35 L882.962 1541.27 L879.837 1541.27 L879.837 1537.96 L882.962 1537.96 L882.962 1530.6 L887.244 1530.6 Z" fill="#000000" fill-rule="nonzero" fill-opacity="1" /><path clip-path="url(#clip840)" d="M923.17 1548.24 L923.17 1563.89 L918.911 1563.89 L918.911 1548.38 Q918.911 1544.7 917.475 1542.87 Q916.04 1541.04 913.17 1541.04 Q909.721 1541.04 907.73 1543.24 Q905.739 1545.44 905.739 1549.24 L905.739 1563.89 L901.457 1563.89 L901.457 1527.87 L905.739 1527.87 L905.739 1541.99 Q907.267 1539.65 909.327 1538.49 Q911.411 1537.34 914.119 1537.34 Q918.586 1537.34 920.878 1540.11 Q923.17 1542.87 923.17 1548.24 Z" fill="#000000" fill-rule="nonzero" fill-opacity="1" /><path clip-path="url(#clip840)" d="M946.688 1541.94 Q945.971 1541.53 945.114 1541.34 Q944.281 1541.13 943.262 1541.13 Q939.651 1541.13 937.707 1543.49 Q935.785 1545.83 935.785 1550.23 L935.785 1563.89 L931.503 1563.89 L931.503 1537.96 L935.785 1537.96 L935.785 1541.99 Q937.128 1539.63 939.281 1538.49 Q941.434 1537.34 944.512 1537.34 Q944.952 1537.34 945.484 1537.41 Q946.017 1537.45 946.665 1537.57 L946.688 1541.94 Z" fill="#000000" fill-rule="nonzero" fill-opacity="1" /><path clip-path="url(#clip840)" d="M972.29 1549.86 L972.29 1551.94 L952.707 1551.94 Q952.984 1556.34 955.345 1558.66 Q957.73 1560.95 961.966 1560.95 Q964.42 1560.95 966.711 1560.35 Q969.026 1559.74 971.294 1558.54 L971.294 1562.57 Q969.003 1563.54 966.595 1564.05 Q964.188 1564.56 961.711 1564.56 Q955.508 1564.56 951.873 1560.95 Q948.262 1557.34 948.262 1551.18 Q948.262 1544.81 951.688 1541.09 Q955.137 1537.34 960.97 1537.34 Q966.202 1537.34 969.234 1540.72 Q972.29 1544.07 972.29 1549.86 M968.031 1548.61 Q967.984 1545.11 966.063 1543.03 Q964.165 1540.95 961.017 1540.95 Q957.452 1540.95 955.299 1542.96 Q953.17 1544.98 952.846 1548.63 L968.031 1548.61 Z" fill="#000000" fill-rule="nonzero" fill-opacity="1" /><path clip-path="url(#clip840)" d="M991.063 1550.86 Q985.901 1550.86 983.91 1552.04 Q981.919 1553.22 981.919 1556.06 Q981.919 1558.33 983.401 1559.67 Q984.906 1560.99 987.475 1560.99 Q991.017 1560.99 993.146 1558.49 Q995.299 1555.97 995.299 1551.8 L995.299 1550.86 L991.063 1550.86 M999.558 1549.1 L999.558 1563.89 L995.299 1563.89 L995.299 1559.95 Q993.841 1562.31 991.665 1563.45 Q989.489 1564.56 986.341 1564.56 Q982.359 1564.56 979.998 1562.34 Q977.66 1560.09 977.66 1556.34 Q977.66 1551.97 980.577 1549.74 Q983.517 1547.52 989.327 1547.52 L995.299 1547.52 L995.299 1547.11 Q995.299 1544.17 993.355 1542.57 Q991.433 1540.95 987.938 1540.95 Q985.716 1540.95 983.609 1541.48 Q981.503 1542.01 979.558 1543.08 L979.558 1539.14 Q981.896 1538.24 984.095 1537.8 Q986.294 1537.34 988.378 1537.34 Q994.003 1537.34 996.78 1540.25 Q999.558 1543.17 999.558 1549.1 Z" fill="#000000" fill-rule="nonzero" fill-opacity="1" /><path clip-path="url(#clip840)" d="M1025.39 1541.9 L1025.39 1527.87 L1029.65 1527.87 L1029.65 1563.89 L1025.39 1563.89 L1025.39 1560 Q1024.05 1562.31 1021.99 1563.45 Q1019.95 1564.56 1017.08 1564.56 Q1012.38 1564.56 1009.42 1560.81 Q1006.48 1557.06 1006.48 1550.95 Q1006.48 1544.84 1009.42 1541.09 Q1012.38 1537.34 1017.08 1537.34 Q1019.95 1537.34 1021.99 1538.47 Q1024.05 1539.58 1025.39 1541.9 M1010.88 1550.95 Q1010.88 1555.65 1012.8 1558.33 Q1014.74 1560.99 1018.12 1560.99 Q1021.5 1560.99 1023.45 1558.33 Q1025.39 1555.65 1025.39 1550.95 Q1025.39 1546.25 1023.45 1543.59 Q1021.5 1540.9 1018.12 1540.9 Q1014.74 1540.9 1012.8 1543.59 Q1010.88 1546.25 1010.88 1550.95 Z" fill="#000000" fill-rule="nonzero" fill-opacity="1" /><path clip-path="url(#clip840)" d="M1054.95 1538.73 L1054.95 1542.75 Q1053.15 1541.83 1051.2 1541.36 Q1049.26 1540.9 1047.17 1540.9 Q1044 1540.9 1042.41 1541.87 Q1040.83 1542.85 1040.83 1544.79 Q1040.83 1546.27 1041.97 1547.13 Q1043.1 1547.96 1046.53 1548.73 L1047.98 1549.05 Q1052.52 1550.02 1054.42 1551.8 Q1056.34 1553.56 1056.34 1556.74 Q1056.34 1560.35 1053.47 1562.45 Q1050.62 1564.56 1045.62 1564.56 Q1043.54 1564.56 1041.27 1564.14 Q1039.03 1563.75 1036.53 1562.94 L1036.53 1558.54 Q1038.89 1559.77 1041.18 1560.39 Q1043.47 1560.99 1045.72 1560.99 Q1048.72 1560.99 1050.34 1559.98 Q1051.97 1558.93 1051.97 1557.06 Q1051.97 1555.32 1050.78 1554.4 Q1049.63 1553.47 1045.67 1552.61 L1044.19 1552.27 Q1040.23 1551.43 1038.47 1549.72 Q1036.71 1547.99 1036.71 1544.98 Q1036.71 1541.32 1039.3 1539.33 Q1041.9 1537.34 1046.66 1537.34 Q1049.03 1537.34 1051.11 1537.68 Q1053.19 1538.03 1054.95 1538.73 Z" fill="#000000" fill-rule="nonzero" fill-opacity="1" /><path clip-path="url(#clip840)" d="M2506.77 1559.95 L2514.41 1559.95 L2514.41 1533.59 L2506.1 1535.25 L2506.1 1530.99 L2514.37 1529.33 L2519.04 1529.33 L2519.04 1559.95 L2526.68 1559.95 L2526.68 1563.89 L2506.77 1563.89 L2506.77 1559.95 Z" fill="#000000" fill-rule="nonzero" fill-opacity="1" /><path clip-path="url(#clip840)" d="M2554.81 1530.6 L2554.81 1537.96 L2563.58 1537.96 L2563.58 1541.27 L2554.81 1541.27 L2554.81 1555.35 Q2554.81 1558.52 2555.66 1559.42 Q2556.54 1560.32 2559.2 1560.32 L2563.58 1560.32 L2563.58 1563.89 L2559.2 1563.89 Q2554.27 1563.89 2552.4 1562.06 Q2550.52 1560.21 2550.52 1555.35 L2550.52 1541.27 L2547.4 1541.27 L2547.4 1537.96 L2550.52 1537.96 L2550.52 1530.6 L2554.81 1530.6 Z" fill="#000000" fill-rule="nonzero" fill-opacity="1" /><path clip-path="url(#clip840)" d="M2590.73 1548.24 L2590.73 1563.89 L2586.47 1563.89 L2586.47 1548.38 Q2586.47 1544.7 2585.04 1542.87 Q2583.6 1541.04 2580.73 1541.04 Q2577.28 1541.04 2575.29 1543.24 Q2573.3 1545.44 2573.3 1549.24 L2573.3 1563.89 L2569.02 1563.89 L2569.02 1527.87 L2573.3 1527.87 L2573.3 1541.99 Q2574.83 1539.65 2576.89 1538.49 Q2578.97 1537.34 2581.68 1537.34 Q2586.15 1537.34 2588.44 1540.11 Q2590.73 1542.87 2590.73 1548.24 Z" fill="#000000" fill-rule="nonzero" fill-opacity="1" /><path clip-path="url(#clip840)" d="M2614.25 1541.94 Q2613.53 1541.53 2612.68 1541.34 Q2611.84 1541.13 2610.82 1541.13 Q2607.21 1541.13 2605.27 1543.49 Q2603.35 1545.83 2603.35 1550.23 L2603.35 1563.89 L2599.06 1563.89 L2599.06 1537.96 L2603.35 1537.96 L2603.35 1541.99 Q2604.69 1539.63 2606.84 1538.49 Q2608.99 1537.34 2612.07 1537.34 Q2612.51 1537.34 2613.05 1537.41 Q2613.58 1537.45 2614.23 1537.57 L2614.25 1541.94 Z" fill="#000000" fill-rule="nonzero" fill-opacity="1" /><path clip-path="url(#clip840)" d="M2639.85 1549.86 L2639.85 1551.94 L2620.27 1551.94 Q2620.55 1556.34 2622.91 1558.66 Q2625.29 1560.95 2629.53 1560.95 Q2631.98 1560.95 2634.27 1560.35 Q2636.59 1559.74 2638.86 1558.54 L2638.86 1562.57 Q2636.56 1563.54 2634.16 1564.05 Q2631.75 1564.56 2629.27 1564.56 Q2623.07 1564.56 2619.43 1560.95 Q2615.82 1557.34 2615.82 1551.18 Q2615.82 1544.81 2619.25 1541.09 Q2622.7 1537.34 2628.53 1537.34 Q2633.76 1537.34 2636.8 1540.72 Q2639.85 1544.07 2639.85 1549.86 M2635.59 1548.61 Q2635.55 1545.11 2633.62 1543.03 Q2631.73 1540.95 2628.58 1540.95 Q2625.01 1540.95 2622.86 1542.96 Q2620.73 1544.98 2620.41 1548.63 L2635.59 1548.61 Z" fill="#000000" fill-rule="nonzero" fill-opacity="1" /><path clip-path="url(#clip840)" d="M2658.62 1550.86 Q2653.46 1550.86 2651.47 1552.04 Q2649.48 1553.22 2649.48 1556.06 Q2649.48 1558.33 2650.96 1559.67 Q2652.47 1560.99 2655.04 1560.99 Q2658.58 1560.99 2660.71 1558.49 Q2662.86 1555.97 2662.86 1551.8 L2662.86 1550.86 L2658.62 1550.86 M2667.12 1549.1 L2667.12 1563.89 L2662.86 1563.89 L2662.86 1559.95 Q2661.4 1562.31 2659.23 1563.45 Q2657.05 1564.56 2653.9 1564.56 Q2649.92 1564.56 2647.56 1562.34 Q2645.22 1560.09 2645.22 1556.34 Q2645.22 1551.97 2648.14 1549.74 Q2651.08 1547.52 2656.89 1547.52 L2662.86 1547.52 L2662.86 1547.11 Q2662.86 1544.17 2660.92 1542.57 Q2658.99 1540.95 2655.5 1540.95 Q2653.28 1540.95 2651.17 1541.48 Q2649.06 1542.01 2647.12 1543.08 L2647.12 1539.14 Q2649.46 1538.24 2651.66 1537.8 Q2653.86 1537.34 2655.94 1537.34 Q2661.56 1537.34 2664.34 1540.25 Q2667.12 1543.17 2667.12 1549.1 Z" fill="#000000" fill-rule="nonzero" fill-opacity="1" /><path clip-path="url(#clip840)" d="M2692.95 1541.9 L2692.95 1527.87 L2697.21 1527.87 L2697.21 1563.89 L2692.95 1563.89 L2692.95 1560 Q2691.61 1562.31 2689.55 1563.45 Q2687.51 1564.56 2684.64 1564.56 Q2679.94 1564.56 2676.98 1560.81 Q2674.04 1557.06 2674.04 1550.95 Q2674.04 1544.84 2676.98 1541.09 Q2679.94 1537.34 2684.64 1537.34 Q2687.51 1537.34 2689.55 1538.47 Q2691.61 1539.58 2692.95 1541.9 M2678.44 1550.95 Q2678.44 1555.65 2680.36 1558.33 Q2682.3 1560.99 2685.68 1560.99 Q2689.06 1560.99 2691.01 1558.33 Q2692.95 1555.65 2692.95 1550.95 Q2692.95 1546.25 2691.01 1543.59 Q2689.06 1540.9 2685.68 1540.9 Q2682.3 1540.9 2680.36 1543.59 Q2678.44 1546.25 2678.44 1550.95 Z" fill="#000000" fill-rule="nonzero" fill-opacity="1" /><polyline clip-path="url(#clip840)" style="stroke:#000000; stroke-linecap:round; stroke-linejoin:round; stroke-width:4; stroke-opacity:1; fill:none" points="394.894,1495.09 394.894,47.2441 "/>
<polyline clip-path="url(#clip840)" style="stroke:#000000; stroke-linecap:round; stroke-linejoin:round; stroke-width:4; stroke-opacity:1; fill:none" points="394.894,1332.45 413.792,1332.45 "/>
<polyline clip-path="url(#clip840)" style="stroke:#000000; stroke-linecap:round; stroke-linejoin:round; stroke-width:4; stroke-opacity:1; fill:none" points="394.894,1107.25 413.792,1107.25 "/>
<polyline clip-path="url(#clip840)" style="stroke:#000000; stroke-linecap:round; stroke-linejoin:round; stroke-width:4; stroke-opacity:1; fill:none" points="394.894,882.044 413.792,882.044 "/>
<polyline clip-path="url(#clip840)" style="stroke:#000000; stroke-linecap:round; stroke-linejoin:round; stroke-width:4; stroke-opacity:1; fill:none" points="394.894,656.843 413.792,656.843 "/>
<polyline clip-path="url(#clip840)" style="stroke:#000000; stroke-linecap:round; stroke-linejoin:round; stroke-width:4; stroke-opacity:1; fill:none" points="394.894,431.642 413.792,431.642 "/>
<polyline clip-path="url(#clip840)" style="stroke:#000000; stroke-linecap:round; stroke-linejoin:round; stroke-width:4; stroke-opacity:1; fill:none" points="394.894,206.44 413.792,206.44 "/>
<path clip-path="url(#clip840)" d="M100.788 1352.24 L108.426 1352.24 L108.426 1325.87 L100.116 1327.54 L100.116 1323.28 L108.38 1321.61 L113.056 1321.61 L113.056 1352.24 L120.695 1352.24 L120.695 1356.17 L100.788 1356.17 L100.788 1352.24 Z" fill="#000000" fill-rule="nonzero" fill-opacity="1" /><path clip-path="url(#clip840)" d="M130.139 1350.29 L135.023 1350.29 L135.023 1356.17 L130.139 1356.17 L130.139 1350.29 Z" fill="#000000" fill-rule="nonzero" fill-opacity="1" /><path clip-path="url(#clip840)" d="M155.209 1324.69 Q151.597 1324.69 149.769 1328.26 Q147.963 1331.8 147.963 1338.93 Q147.963 1346.04 149.769 1349.6 Q151.597 1353.14 155.209 1353.14 Q158.843 1353.14 160.648 1349.6 Q162.477 1346.04 162.477 1338.93 Q162.477 1331.8 160.648 1328.26 Q158.843 1324.69 155.209 1324.69 M155.209 1320.99 Q161.019 1320.99 164.074 1325.6 Q167.153 1330.18 167.153 1338.93 Q167.153 1347.66 164.074 1352.26 Q161.019 1356.85 155.209 1356.85 Q149.398 1356.85 146.32 1352.26 Q143.264 1347.66 143.264 1338.93 Q143.264 1330.18 146.32 1325.6 Q149.398 1320.99 155.209 1320.99 Z" fill="#000000" fill-rule="nonzero" fill-opacity="1" /><path clip-path="url(#clip840)" d="M185.37 1324.69 Q181.759 1324.69 179.931 1328.26 Q178.125 1331.8 178.125 1338.93 Q178.125 1346.04 179.931 1349.6 Q181.759 1353.14 185.37 1353.14 Q189.005 1353.14 190.81 1349.6 Q192.639 1346.04 192.639 1338.93 Q192.639 1331.8 190.81 1328.26 Q189.005 1324.69 185.37 1324.69 M185.37 1320.99 Q191.181 1320.99 194.236 1325.6 Q197.315 1330.18 197.315 1338.93 Q197.315 1347.66 194.236 1352.26 Q191.181 1356.85 185.37 1356.85 Q179.56 1356.85 176.482 1352.26 Q173.426 1347.66 173.426 1338.93 Q173.426 1330.18 176.482 1325.6 Q179.56 1320.99 185.37 1320.99 Z" fill="#000000" fill-rule="nonzero" fill-opacity="1" /><path clip-path="url(#clip840)" d="M215.532 1324.69 Q211.921 1324.69 210.093 1328.26 Q208.287 1331.8 208.287 1338.93 Q208.287 1346.04 210.093 1349.6 Q211.921 1353.14 215.532 1353.14 Q219.167 1353.14 220.972 1349.6 Q222.801 1346.04 222.801 1338.93 Q222.801 1331.8 220.972 1328.26 Q219.167 1324.69 215.532 1324.69 M215.532 1320.99 Q221.342 1320.99 224.398 1325.6 Q227.477 1330.18 227.477 1338.93 Q227.477 1347.66 224.398 1352.26 Q221.342 1356.85 215.532 1356.85 Q209.722 1356.85 206.643 1352.26 Q203.588 1347.66 203.588 1338.93 Q203.588 1330.18 206.643 1325.6 Q209.722 1320.99 215.532 1320.99 Z" fill="#000000" fill-rule="nonzero" fill-opacity="1" /><path clip-path="url(#clip840)" d="M263.865 1330.71 L253.287 1341.34 L263.865 1351.92 L261.111 1354.72 L250.486 1344.09 L239.861 1354.72 L237.129 1351.92 L247.685 1341.34 L237.129 1330.71 L239.861 1327.91 L250.486 1338.54 L261.111 1327.91 L263.865 1330.71 Z" fill="#000000" fill-rule="nonzero" fill-opacity="1" /><path clip-path="url(#clip840)" d="M276.226 1352.24 L283.865 1352.24 L283.865 1325.87 L275.555 1327.54 L275.555 1323.28 L283.819 1321.61 L288.495 1321.61 L288.495 1352.24 L296.134 1352.24 L296.134 1356.17 L276.226 1356.17 L276.226 1352.24 Z" fill="#000000" fill-rule="nonzero" fill-opacity="1" /><path clip-path="url(#clip840)" d="M315.578 1324.69 Q311.967 1324.69 310.138 1328.26 Q308.333 1331.8 308.333 1338.93 Q308.333 1346.04 310.138 1349.6 Q311.967 1353.14 315.578 1353.14 Q319.212 1353.14 321.018 1349.6 Q322.847 1346.04 322.847 1338.93 Q322.847 1331.8 321.018 1328.26 Q319.212 1324.69 315.578 1324.69 M315.578 1320.99 Q321.388 1320.99 324.444 1325.6 Q327.522 1330.18 327.522 1338.93 Q327.522 1347.66 324.444 1352.26 Q321.388 1356.85 315.578 1356.85 Q309.768 1356.85 306.689 1352.26 Q303.634 1347.66 303.634 1338.93 Q303.634 1330.18 306.689 1325.6 Q309.768 1320.99 315.578 1320.99 Z" fill="#000000" fill-rule="nonzero" fill-opacity="1" /><path clip-path="url(#clip840)" d="M329.328 1328.18 L329.328 1324.72 Q330.757 1325.4 332.224 1325.75 Q333.691 1326.11 335.102 1326.11 Q338.864 1326.11 340.838 1323.59 Q342.832 1321.05 343.114 1315.9 Q342.023 1317.52 340.349 1318.38 Q338.675 1319.25 336.644 1319.25 Q332.431 1319.25 329.967 1316.71 Q327.522 1314.15 327.522 1309.73 Q327.522 1305.4 330.08 1302.79 Q332.638 1300.18 336.889 1300.18 Q341.76 1300.18 344.318 1303.92 Q346.894 1307.64 346.894 1314.75 Q346.894 1321.39 343.735 1325.36 Q340.594 1329.31 335.271 1329.31 Q333.842 1329.31 332.375 1329.03 Q330.908 1328.75 329.328 1328.18 M336.889 1316.28 Q339.447 1316.28 340.932 1314.53 Q342.437 1312.78 342.437 1309.73 Q342.437 1306.7 340.932 1304.95 Q339.447 1303.19 336.889 1303.19 Q334.331 1303.19 332.826 1304.95 Q331.34 1306.7 331.34 1309.73 Q331.34 1312.78 332.826 1314.53 Q334.331 1316.28 336.889 1316.28 Z" fill="#000000" fill-rule="nonzero" fill-opacity="1" /><path clip-path="url(#clip840)" d="M100.788 1127.04 L108.426 1127.04 L108.426 1100.67 L100.116 1102.34 L100.116 1098.08 L108.38 1096.41 L113.056 1096.41 L113.056 1127.04 L120.695 1127.04 L120.695 1130.97 L100.788 1130.97 L100.788 1127.04 Z" fill="#000000" fill-rule="nonzero" fill-opacity="1" /><path clip-path="url(#clip840)" d="M130.139 1125.09 L135.023 1125.09 L135.023 1130.97 L130.139 1130.97 L130.139 1125.09 Z" fill="#000000" fill-rule="nonzero" fill-opacity="1" /><path clip-path="url(#clip840)" d="M149.236 1127.04 L165.556 1127.04 L165.556 1130.97 L143.611 1130.97 L143.611 1127.04 Q146.273 1124.28 150.857 1119.65 Q155.463 1115 156.644 1113.66 Q158.889 1111.14 159.769 1109.4 Q160.671 1107.64 160.671 1105.95 Q160.671 1103.2 158.727 1101.46 Q156.806 1099.72 153.704 1099.72 Q151.505 1099.72 149.051 1100.49 Q146.621 1101.25 143.843 1102.8 L143.843 1098.08 Q146.667 1096.95 149.121 1096.37 Q151.574 1095.79 153.611 1095.79 Q158.982 1095.79 162.176 1098.47 Q165.371 1101.16 165.371 1105.65 Q165.371 1107.78 164.56 1109.7 Q163.773 1111.6 161.667 1114.19 Q161.088 1114.86 157.986 1118.08 Q154.884 1121.27 149.236 1127.04 Z" fill="#000000" fill-rule="nonzero" fill-opacity="1" /><path clip-path="url(#clip840)" d="M175.417 1096.41 L193.773 1096.41 L193.773 1100.35 L179.699 1100.35 L179.699 1108.82 Q180.718 1108.47 181.736 1108.31 Q182.755 1108.13 183.773 1108.13 Q189.56 1108.13 192.94 1111.3 Q196.319 1114.47 196.319 1119.89 Q196.319 1125.46 192.847 1128.57 Q189.375 1131.64 183.056 1131.64 Q180.88 1131.64 178.611 1131.27 Q176.366 1130.9 173.958 1130.16 L173.958 1125.46 Q176.042 1126.6 178.264 1127.15 Q180.486 1127.71 182.963 1127.71 Q186.968 1127.71 189.306 1125.6 Q191.644 1123.5 191.644 1119.89 Q191.644 1116.27 189.306 1114.17 Q186.968 1112.06 182.963 1112.06 Q181.088 1112.06 179.213 1112.48 Q177.361 1112.89 175.417 1113.77 L175.417 1096.41 Z" fill="#000000" fill-rule="nonzero" fill-opacity="1" /><path clip-path="url(#clip840)" d="M215.532 1099.49 Q211.921 1099.49 210.093 1103.06 Q208.287 1106.6 208.287 1113.73 Q208.287 1120.83 210.093 1124.4 Q211.921 1127.94 215.532 1127.94 Q219.167 1127.94 220.972 1124.4 Q222.801 1120.83 222.801 1113.73 Q222.801 1106.6 220.972 1103.06 Q219.167 1099.49 215.532 1099.49 M215.532 1095.79 Q221.342 1095.79 224.398 1100.39 Q227.477 1104.98 227.477 1113.73 Q227.477 1122.45 224.398 1127.06 Q221.342 1131.64 215.532 1131.64 Q209.722 1131.64 206.643 1127.06 Q203.588 1122.45 203.588 1113.73 Q203.588 1104.98 206.643 1100.39 Q209.722 1095.79 215.532 1095.79 Z" fill="#000000" fill-rule="nonzero" fill-opacity="1" /><path clip-path="url(#clip840)" d="M263.865 1105.51 L253.287 1116.14 L263.865 1126.71 L261.111 1129.51 L250.486 1118.89 L239.861 1129.51 L237.129 1126.71 L247.685 1116.14 L237.129 1105.51 L239.861 1102.71 L250.486 1113.33 L261.111 1102.71 L263.865 1105.51 Z" fill="#000000" fill-rule="nonzero" fill-opacity="1" /><path clip-path="url(#clip840)" d="M276.226 1127.04 L283.865 1127.04 L283.865 1100.67 L275.555 1102.34 L275.555 1098.08 L283.819 1096.41 L288.495 1096.41 L288.495 1127.04 L296.134 1127.04 L296.134 1130.97 L276.226 1130.97 L276.226 1127.04 Z" fill="#000000" fill-rule="nonzero" fill-opacity="1" /><path clip-path="url(#clip840)" d="M315.578 1099.49 Q311.967 1099.49 310.138 1103.06 Q308.333 1106.6 308.333 1113.73 Q308.333 1120.83 310.138 1124.4 Q311.967 1127.94 315.578 1127.94 Q319.212 1127.94 321.018 1124.4 Q322.847 1120.83 322.847 1113.73 Q322.847 1106.6 321.018 1103.06 Q319.212 1099.49 315.578 1099.49 M315.578 1095.79 Q321.388 1095.79 324.444 1100.39 Q327.522 1104.98 327.522 1113.73 Q327.522 1122.45 324.444 1127.06 Q321.388 1131.64 315.578 1131.64 Q309.768 1131.64 306.689 1127.06 Q303.634 1122.45 303.634 1113.73 Q303.634 1104.98 306.689 1100.39 Q309.768 1095.79 315.578 1095.79 Z" fill="#000000" fill-rule="nonzero" fill-opacity="1" /><path clip-path="url(#clip840)" d="M329.328 1102.98 L329.328 1099.52 Q330.757 1100.2 332.224 1100.55 Q333.691 1100.91 335.102 1100.91 Q338.864 1100.91 340.838 1098.39 Q342.832 1095.85 343.114 1090.7 Q342.023 1092.32 340.349 1093.18 Q338.675 1094.05 336.644 1094.05 Q332.431 1094.05 329.967 1091.51 Q327.522 1088.95 327.522 1084.53 Q327.522 1080.2 330.08 1077.59 Q332.638 1074.97 336.889 1074.97 Q341.76 1074.97 344.318 1078.72 Q346.894 1082.44 346.894 1089.55 Q346.894 1096.19 343.735 1100.16 Q340.594 1104.11 335.271 1104.11 Q333.842 1104.11 332.375 1103.83 Q330.908 1103.54 329.328 1102.98 M336.889 1091.07 Q339.447 1091.07 340.932 1089.33 Q342.437 1087.58 342.437 1084.53 Q342.437 1081.5 340.932 1079.75 Q339.447 1077.98 336.889 1077.98 Q334.331 1077.98 332.826 1079.75 Q331.34 1081.5 331.34 1084.53 Q331.34 1087.58 332.826 1089.33 Q334.331 1091.07 336.889 1091.07 Z" fill="#000000" fill-rule="nonzero" fill-opacity="1" /><path clip-path="url(#clip840)" d="M100.788 901.837 L108.426 901.837 L108.426 875.471 L100.116 877.138 L100.116 872.879 L108.38 871.212 L113.056 871.212 L113.056 901.837 L120.695 901.837 L120.695 905.772 L100.788 905.772 L100.788 901.837 Z" fill="#000000" fill-rule="nonzero" fill-opacity="1" /><path clip-path="url(#clip840)" d="M130.139 899.892 L135.023 899.892 L135.023 905.772 L130.139 905.772 L130.139 899.892 Z" fill="#000000" fill-rule="nonzero" fill-opacity="1" /><path clip-path="url(#clip840)" d="M145.255 871.212 L163.611 871.212 L163.611 875.147 L149.537 875.147 L149.537 883.619 Q150.556 883.272 151.574 883.11 Q152.593 882.925 153.611 882.925 Q159.398 882.925 162.778 886.096 Q166.158 889.267 166.158 894.684 Q166.158 900.263 162.685 903.364 Q159.213 906.443 152.894 906.443 Q150.718 906.443 148.449 906.073 Q146.204 905.702 143.797 904.962 L143.797 900.263 Q145.88 901.397 148.102 901.952 Q150.324 902.508 152.801 902.508 Q156.806 902.508 159.144 900.402 Q161.482 898.295 161.482 894.684 Q161.482 891.073 159.144 888.966 Q156.806 886.86 152.801 886.86 Q150.926 886.86 149.051 887.277 Q147.199 887.693 145.255 888.573 L145.255 871.212 Z" fill="#000000" fill-rule="nonzero" fill-opacity="1" /><path clip-path="url(#clip840)" d="M185.37 874.291 Q181.759 874.291 179.931 877.855 Q178.125 881.397 178.125 888.527 Q178.125 895.633 179.931 899.198 Q181.759 902.74 185.37 902.74 Q189.005 902.74 190.81 899.198 Q192.639 895.633 192.639 888.527 Q192.639 881.397 190.81 877.855 Q189.005 874.291 185.37 874.291 M185.37 870.587 Q191.181 870.587 194.236 875.193 Q197.315 879.777 197.315 888.527 Q197.315 897.253 194.236 901.86 Q191.181 906.443 185.37 906.443 Q179.56 906.443 176.482 901.86 Q173.426 897.253 173.426 888.527 Q173.426 879.777 176.482 875.193 Q179.56 870.587 185.37 870.587 Z" fill="#000000" fill-rule="nonzero" fill-opacity="1" /><path clip-path="url(#clip840)" d="M215.532 874.291 Q211.921 874.291 210.093 877.855 Q208.287 881.397 208.287 888.527 Q208.287 895.633 210.093 899.198 Q211.921 902.74 215.532 902.74 Q219.167 902.74 220.972 899.198 Q222.801 895.633 222.801 888.527 Q222.801 881.397 220.972 877.855 Q219.167 874.291 215.532 874.291 M215.532 870.587 Q221.342 870.587 224.398 875.193 Q227.477 879.777 227.477 888.527 Q227.477 897.253 224.398 901.86 Q221.342 906.443 215.532 906.443 Q209.722 906.443 206.643 901.86 Q203.588 897.253 203.588 888.527 Q203.588 879.777 206.643 875.193 Q209.722 870.587 215.532 870.587 Z" fill="#000000" fill-rule="nonzero" fill-opacity="1" /><path clip-path="url(#clip840)" d="M263.865 880.309 L253.287 890.934 L263.865 901.513 L261.111 904.314 L250.486 893.689 L239.861 904.314 L237.129 901.513 L247.685 890.934 L237.129 880.309 L239.861 877.508 L250.486 888.133 L261.111 877.508 L263.865 880.309 Z" fill="#000000" fill-rule="nonzero" fill-opacity="1" /><path clip-path="url(#clip840)" d="M276.226 901.837 L283.865 901.837 L283.865 875.471 L275.555 877.138 L275.555 872.879 L283.819 871.212 L288.495 871.212 L288.495 901.837 L296.134 901.837 L296.134 905.772 L276.226 905.772 L276.226 901.837 Z" fill="#000000" fill-rule="nonzero" fill-opacity="1" /><path clip-path="url(#clip840)" d="M315.578 874.291 Q311.967 874.291 310.138 877.855 Q308.333 881.397 308.333 888.527 Q308.333 895.633 310.138 899.198 Q311.967 902.74 315.578 902.74 Q319.212 902.74 321.018 899.198 Q322.847 895.633 322.847 888.527 Q322.847 881.397 321.018 877.855 Q319.212 874.291 315.578 874.291 M315.578 870.587 Q321.388 870.587 324.444 875.193 Q327.522 879.777 327.522 888.527 Q327.522 897.253 324.444 901.86 Q321.388 906.443 315.578 906.443 Q309.768 906.443 306.689 901.86 Q303.634 897.253 303.634 888.527 Q303.634 879.777 306.689 875.193 Q309.768 870.587 315.578 870.587 Z" fill="#000000" fill-rule="nonzero" fill-opacity="1" /><path clip-path="url(#clip840)" d="M329.328 877.778 L329.328 874.318 Q330.757 874.995 332.224 875.352 Q333.691 875.71 335.102 875.71 Q338.864 875.71 340.838 873.189 Q342.832 870.65 343.114 865.497 Q342.023 867.114 340.349 867.98 Q338.675 868.845 336.644 868.845 Q332.431 868.845 329.967 866.306 Q327.522 863.748 327.522 859.328 Q327.522 855.002 330.08 852.388 Q332.638 849.774 336.889 849.774 Q341.76 849.774 344.318 853.516 Q346.894 857.24 346.894 864.35 Q346.894 870.989 343.735 874.957 Q340.594 878.907 335.271 878.907 Q333.842 878.907 332.375 878.625 Q330.908 878.343 329.328 877.778 M336.889 865.873 Q339.447 865.873 340.932 864.124 Q342.437 862.375 342.437 859.328 Q342.437 856.3 340.932 854.551 Q339.447 852.783 336.889 852.783 Q334.331 852.783 332.826 854.551 Q331.34 856.3 331.34 859.328 Q331.34 862.375 332.826 864.124 Q334.331 865.873 336.889 865.873 Z" fill="#000000" fill-rule="nonzero" fill-opacity="1" /><path clip-path="url(#clip840)" d="M100.788 676.635 L108.426 676.635 L108.426 650.27 L100.116 651.936 L100.116 647.677 L108.38 646.011 L113.056 646.011 L113.056 676.635 L120.695 676.635 L120.695 680.571 L100.788 680.571 L100.788 676.635 Z" fill="#000000" fill-rule="nonzero" fill-opacity="1" /><path clip-path="url(#clip840)" d="M130.139 674.691 L135.023 674.691 L135.023 680.571 L130.139 680.571 L130.139 674.691 Z" fill="#000000" fill-rule="nonzero" fill-opacity="1" /><path clip-path="url(#clip840)" d="M144.028 646.011 L166.25 646.011 L166.25 648.001 L153.704 680.571 L148.82 680.571 L160.625 649.946 L144.028 649.946 L144.028 646.011 Z" fill="#000000" fill-rule="nonzero" fill-opacity="1" /><path clip-path="url(#clip840)" d="M175.417 646.011 L193.773 646.011 L193.773 649.946 L179.699 649.946 L179.699 658.418 Q180.718 658.071 181.736 657.909 Q182.755 657.723 183.773 657.723 Q189.56 657.723 192.94 660.895 Q196.319 664.066 196.319 669.483 Q196.319 675.061 192.847 678.163 Q189.375 681.242 183.056 681.242 Q180.88 681.242 178.611 680.872 Q176.366 680.501 173.958 679.76 L173.958 675.061 Q176.042 676.196 178.264 676.751 Q180.486 677.307 182.963 677.307 Q186.968 677.307 189.306 675.2 Q191.644 673.094 191.644 669.483 Q191.644 665.872 189.306 663.765 Q186.968 661.659 182.963 661.659 Q181.088 661.659 179.213 662.075 Q177.361 662.492 175.417 663.372 L175.417 646.011 Z" fill="#000000" fill-rule="nonzero" fill-opacity="1" /><path clip-path="url(#clip840)" d="M215.532 649.089 Q211.921 649.089 210.093 652.654 Q208.287 656.196 208.287 663.325 Q208.287 670.432 210.093 673.997 Q211.921 677.538 215.532 677.538 Q219.167 677.538 220.972 673.997 Q222.801 670.432 222.801 663.325 Q222.801 656.196 220.972 652.654 Q219.167 649.089 215.532 649.089 M215.532 645.386 Q221.342 645.386 224.398 649.992 Q227.477 654.575 227.477 663.325 Q227.477 672.052 224.398 676.659 Q221.342 681.242 215.532 681.242 Q209.722 681.242 206.643 676.659 Q203.588 672.052 203.588 663.325 Q203.588 654.575 206.643 649.992 Q209.722 645.386 215.532 645.386 Z" fill="#000000" fill-rule="nonzero" fill-opacity="1" /><path clip-path="url(#clip840)" d="M263.865 655.108 L253.287 665.733 L263.865 676.311 L261.111 679.112 L250.486 668.487 L239.861 679.112 L237.129 676.311 L247.685 665.733 L237.129 655.108 L239.861 652.307 L250.486 662.932 L261.111 652.307 L263.865 655.108 Z" fill="#000000" fill-rule="nonzero" fill-opacity="1" /><path clip-path="url(#clip840)" d="M276.226 676.635 L283.865 676.635 L283.865 650.27 L275.555 651.936 L275.555 647.677 L283.819 646.011 L288.495 646.011 L288.495 676.635 L296.134 676.635 L296.134 680.571 L276.226 680.571 L276.226 676.635 Z" fill="#000000" fill-rule="nonzero" fill-opacity="1" /><path clip-path="url(#clip840)" d="M315.578 649.089 Q311.967 649.089 310.138 652.654 Q308.333 656.196 308.333 663.325 Q308.333 670.432 310.138 673.997 Q311.967 677.538 315.578 677.538 Q319.212 677.538 321.018 673.997 Q322.847 670.432 322.847 663.325 Q322.847 656.196 321.018 652.654 Q319.212 649.089 315.578 649.089 M315.578 645.386 Q321.388 645.386 324.444 649.992 Q327.522 654.575 327.522 663.325 Q327.522 672.052 324.444 676.659 Q321.388 681.242 315.578 681.242 Q309.768 681.242 306.689 676.659 Q303.634 672.052 303.634 663.325 Q303.634 654.575 306.689 649.992 Q309.768 645.386 315.578 645.386 Z" fill="#000000" fill-rule="nonzero" fill-opacity="1" /><path clip-path="url(#clip840)" d="M329.328 652.577 L329.328 649.117 Q330.757 649.794 332.224 650.151 Q333.691 650.508 335.102 650.508 Q338.864 650.508 340.838 647.988 Q342.832 645.449 343.114 640.296 Q342.023 641.913 340.349 642.778 Q338.675 643.643 336.644 643.643 Q332.431 643.643 329.967 641.104 Q327.522 638.547 327.522 634.127 Q327.522 629.801 330.08 627.187 Q332.638 624.572 336.889 624.572 Q341.76 624.572 344.318 628.315 Q346.894 632.039 346.894 639.148 Q346.894 645.788 343.735 649.756 Q340.594 653.706 335.271 653.706 Q333.842 653.706 332.375 653.424 Q330.908 653.141 329.328 652.577 M336.889 640.672 Q339.447 640.672 340.932 638.923 Q342.437 637.174 342.437 634.127 Q342.437 631.099 340.932 629.35 Q339.447 627.582 336.889 627.582 Q334.331 627.582 332.826 629.35 Q331.34 631.099 331.34 634.127 Q331.34 637.174 332.826 638.923 Q334.331 640.672 336.889 640.672 Z" fill="#000000" fill-rule="nonzero" fill-opacity="1" /><path clip-path="url(#clip840)" d="M104.005 451.434 L120.324 451.434 L120.324 455.369 L98.3802 455.369 L98.3802 451.434 Q101.042 448.68 105.625 444.05 Q110.232 439.397 111.412 438.055 Q113.658 435.531 114.537 433.795 Q115.44 432.036 115.44 430.346 Q115.44 427.592 113.496 425.856 Q111.575 424.119 108.473 424.119 Q106.274 424.119 103.82 424.883 Q101.389 425.647 98.6116 427.198 L98.6116 422.476 Q101.436 421.342 103.889 420.763 Q106.343 420.184 108.38 420.184 Q113.75 420.184 116.945 422.869 Q120.139 425.555 120.139 430.045 Q120.139 432.175 119.329 434.096 Q118.542 435.994 116.436 438.587 Q115.857 439.258 112.755 442.476 Q109.653 445.67 104.005 451.434 Z" fill="#000000" fill-rule="nonzero" fill-opacity="1" /><path clip-path="url(#clip840)" d="M130.139 449.49 L135.023 449.49 L135.023 455.369 L130.139 455.369 L130.139 449.49 Z" fill="#000000" fill-rule="nonzero" fill-opacity="1" /><path clip-path="url(#clip840)" d="M155.209 423.888 Q151.597 423.888 149.769 427.453 Q147.963 430.994 147.963 438.124 Q147.963 445.23 149.769 448.795 Q151.597 452.337 155.209 452.337 Q158.843 452.337 160.648 448.795 Q162.477 445.23 162.477 438.124 Q162.477 430.994 160.648 427.453 Q158.843 423.888 155.209 423.888 M155.209 420.184 Q161.019 420.184 164.074 424.791 Q167.153 429.374 167.153 438.124 Q167.153 446.851 164.074 451.457 Q161.019 456.041 155.209 456.041 Q149.398 456.041 146.32 451.457 Q143.264 446.851 143.264 438.124 Q143.264 429.374 146.32 424.791 Q149.398 420.184 155.209 420.184 Z" fill="#000000" fill-rule="nonzero" fill-opacity="1" /><path clip-path="url(#clip840)" d="M185.37 423.888 Q181.759 423.888 179.931 427.453 Q178.125 430.994 178.125 438.124 Q178.125 445.23 179.931 448.795 Q181.759 452.337 185.37 452.337 Q189.005 452.337 190.81 448.795 Q192.639 445.23 192.639 438.124 Q192.639 430.994 190.81 427.453 Q189.005 423.888 185.37 423.888 M185.37 420.184 Q191.181 420.184 194.236 424.791 Q197.315 429.374 197.315 438.124 Q197.315 446.851 194.236 451.457 Q191.181 456.041 185.37 456.041 Q179.56 456.041 176.482 451.457 Q173.426 446.851 173.426 438.124 Q173.426 429.374 176.482 424.791 Q179.56 420.184 185.37 420.184 Z" fill="#000000" fill-rule="nonzero" fill-opacity="1" /><path clip-path="url(#clip840)" d="M215.532 423.888 Q211.921 423.888 210.093 427.453 Q208.287 430.994 208.287 438.124 Q208.287 445.23 210.093 448.795 Q211.921 452.337 215.532 452.337 Q219.167 452.337 220.972 448.795 Q222.801 445.23 222.801 438.124 Q222.801 430.994 220.972 427.453 Q219.167 423.888 215.532 423.888 M215.532 420.184 Q221.342 420.184 224.398 424.791 Q227.477 429.374 227.477 438.124 Q227.477 446.851 224.398 451.457 Q221.342 456.041 215.532 456.041 Q209.722 456.041 206.643 451.457 Q203.588 446.851 203.588 438.124 Q203.588 429.374 206.643 424.791 Q209.722 420.184 215.532 420.184 Z" fill="#000000" fill-rule="nonzero" fill-opacity="1" /><path clip-path="url(#clip840)" d="M263.865 429.906 L253.287 440.531 L263.865 451.11 L261.111 453.911 L250.486 443.286 L239.861 453.911 L237.129 451.11 L247.685 440.531 L237.129 429.906 L239.861 427.106 L250.486 437.73 L261.111 427.106 L263.865 429.906 Z" fill="#000000" fill-rule="nonzero" fill-opacity="1" /><path clip-path="url(#clip840)" d="M276.226 451.434 L283.865 451.434 L283.865 425.069 L275.555 426.735 L275.555 422.476 L283.819 420.809 L288.495 420.809 L288.495 451.434 L296.134 451.434 L296.134 455.369 L276.226 455.369 L276.226 451.434 Z" fill="#000000" fill-rule="nonzero" fill-opacity="1" /><path clip-path="url(#clip840)" d="M315.578 423.888 Q311.967 423.888 310.138 427.453 Q308.333 430.994 308.333 438.124 Q308.333 445.23 310.138 448.795 Q311.967 452.337 315.578 452.337 Q319.212 452.337 321.018 448.795 Q322.847 445.23 322.847 438.124 Q322.847 430.994 321.018 427.453 Q319.212 423.888 315.578 423.888 M315.578 420.184 Q321.388 420.184 324.444 424.791 Q327.522 429.374 327.522 438.124 Q327.522 446.851 324.444 451.457 Q321.388 456.041 315.578 456.041 Q309.768 456.041 306.689 451.457 Q303.634 446.851 303.634 438.124 Q303.634 429.374 306.689 424.791 Q309.768 420.184 315.578 420.184 Z" fill="#000000" fill-rule="nonzero" fill-opacity="1" /><path clip-path="url(#clip840)" d="M329.328 427.376 L329.328 423.915 Q330.757 424.592 332.224 424.95 Q333.691 425.307 335.102 425.307 Q338.864 425.307 340.838 422.787 Q342.832 420.248 343.114 415.094 Q342.023 416.712 340.349 417.577 Q338.675 418.442 336.644 418.442 Q332.431 418.442 329.967 415.903 Q327.522 413.345 327.522 408.925 Q327.522 404.6 330.08 401.985 Q332.638 399.371 336.889 399.371 Q341.76 399.371 344.318 403.114 Q346.894 406.838 346.894 413.947 Q346.894 420.586 343.735 424.555 Q340.594 428.504 335.271 428.504 Q333.842 428.504 332.375 428.222 Q330.908 427.94 329.328 427.376 M336.889 415.471 Q339.447 415.471 340.932 413.721 Q342.437 411.972 342.437 408.925 Q342.437 405.897 340.932 404.148 Q339.447 402.38 336.889 402.38 Q334.331 402.38 332.826 404.148 Q331.34 405.897 331.34 408.925 Q331.34 411.972 332.826 413.721 Q334.331 415.471 336.889 415.471 Z" fill="#000000" fill-rule="nonzero" fill-opacity="1" /><path clip-path="url(#clip840)" d="M104.005 226.233 L120.324 226.233 L120.324 230.168 L98.3802 230.168 L98.3802 226.233 Q101.042 223.478 105.625 218.849 Q110.232 214.196 111.412 212.853 Q113.658 210.33 114.537 208.594 Q115.44 206.835 115.44 205.145 Q115.44 202.39 113.496 200.654 Q111.575 198.918 108.473 198.918 Q106.274 198.918 103.82 199.682 Q101.389 200.446 98.6116 201.997 L98.6116 197.275 Q101.436 196.14 103.889 195.562 Q106.343 194.983 108.38 194.983 Q113.75 194.983 116.945 197.668 Q120.139 200.353 120.139 204.844 Q120.139 206.974 119.329 208.895 Q118.542 210.793 116.436 213.386 Q115.857 214.057 112.755 217.275 Q109.653 220.469 104.005 226.233 Z" fill="#000000" fill-rule="nonzero" fill-opacity="1" /><path clip-path="url(#clip840)" d="M130.139 224.288 L135.023 224.288 L135.023 230.168 L130.139 230.168 L130.139 224.288 Z" fill="#000000" fill-rule="nonzero" fill-opacity="1" /><path clip-path="url(#clip840)" d="M149.236 226.233 L165.556 226.233 L165.556 230.168 L143.611 230.168 L143.611 226.233 Q146.273 223.478 150.857 218.849 Q155.463 214.196 156.644 212.853 Q158.889 210.33 159.769 208.594 Q160.671 206.835 160.671 205.145 Q160.671 202.39 158.727 200.654 Q156.806 198.918 153.704 198.918 Q151.505 198.918 149.051 199.682 Q146.621 200.446 143.843 201.997 L143.843 197.275 Q146.667 196.14 149.121 195.562 Q151.574 194.983 153.611 194.983 Q158.982 194.983 162.176 197.668 Q165.371 200.353 165.371 204.844 Q165.371 206.974 164.56 208.895 Q163.773 210.793 161.667 213.386 Q161.088 214.057 157.986 217.275 Q154.884 220.469 149.236 226.233 Z" fill="#000000" fill-rule="nonzero" fill-opacity="1" /><path clip-path="url(#clip840)" d="M175.417 195.608 L193.773 195.608 L193.773 199.543 L179.699 199.543 L179.699 208.015 Q180.718 207.668 181.736 207.506 Q182.755 207.321 183.773 207.321 Q189.56 207.321 192.94 210.492 Q196.319 213.663 196.319 219.08 Q196.319 224.659 192.847 227.761 Q189.375 230.839 183.056 230.839 Q180.88 230.839 178.611 230.469 Q176.366 230.099 173.958 229.358 L173.958 224.659 Q176.042 225.793 178.264 226.349 Q180.486 226.904 182.963 226.904 Q186.968 226.904 189.306 224.798 Q191.644 222.691 191.644 219.08 Q191.644 215.469 189.306 213.363 Q186.968 211.256 182.963 211.256 Q181.088 211.256 179.213 211.673 Q177.361 212.089 175.417 212.969 L175.417 195.608 Z" fill="#000000" fill-rule="nonzero" fill-opacity="1" /><path clip-path="url(#clip840)" d="M215.532 198.687 Q211.921 198.687 210.093 202.251 Q208.287 205.793 208.287 212.923 Q208.287 220.029 210.093 223.594 Q211.921 227.136 215.532 227.136 Q219.167 227.136 220.972 223.594 Q222.801 220.029 222.801 212.923 Q222.801 205.793 220.972 202.251 Q219.167 198.687 215.532 198.687 M215.532 194.983 Q221.342 194.983 224.398 199.589 Q227.477 204.173 227.477 212.923 Q227.477 221.65 224.398 226.256 Q221.342 230.839 215.532 230.839 Q209.722 230.839 206.643 226.256 Q203.588 221.65 203.588 212.923 Q203.588 204.173 206.643 199.589 Q209.722 194.983 215.532 194.983 Z" fill="#000000" fill-rule="nonzero" fill-opacity="1" /><path clip-path="url(#clip840)" d="M263.865 204.705 L253.287 215.33 L263.865 225.909 L261.111 228.71 L250.486 218.085 L239.861 228.71 L237.129 225.909 L247.685 215.33 L237.129 204.705 L239.861 201.904 L250.486 212.529 L261.111 201.904 L263.865 204.705 Z" fill="#000000" fill-rule="nonzero" fill-opacity="1" /><path clip-path="url(#clip840)" d="M276.226 226.233 L283.865 226.233 L283.865 199.867 L275.555 201.534 L275.555 197.275 L283.819 195.608 L288.495 195.608 L288.495 226.233 L296.134 226.233 L296.134 230.168 L276.226 230.168 L276.226 226.233 Z" fill="#000000" fill-rule="nonzero" fill-opacity="1" /><path clip-path="url(#clip840)" d="M315.578 198.687 Q311.967 198.687 310.138 202.251 Q308.333 205.793 308.333 212.923 Q308.333 220.029 310.138 223.594 Q311.967 227.136 315.578 227.136 Q319.212 227.136 321.018 223.594 Q322.847 220.029 322.847 212.923 Q322.847 205.793 321.018 202.251 Q319.212 198.687 315.578 198.687 M315.578 194.983 Q321.388 194.983 324.444 199.589 Q327.522 204.173 327.522 212.923 Q327.522 221.65 324.444 226.256 Q321.388 230.839 315.578 230.839 Q309.768 230.839 306.689 226.256 Q303.634 221.65 303.634 212.923 Q303.634 204.173 306.689 199.589 Q309.768 194.983 315.578 194.983 Z" fill="#000000" fill-rule="nonzero" fill-opacity="1" /><path clip-path="url(#clip840)" d="M329.328 202.175 L329.328 198.714 Q330.757 199.391 332.224 199.748 Q333.691 200.106 335.102 200.106 Q338.864 200.106 340.838 197.585 Q342.832 195.046 343.114 189.893 Q342.023 191.511 340.349 192.376 Q338.675 193.241 336.644 193.241 Q332.431 193.241 329.967 190.702 Q327.522 188.144 327.522 183.724 Q327.522 179.398 330.08 176.784 Q332.638 174.17 336.889 174.17 Q341.76 174.17 344.318 177.913 Q346.894 181.636 346.894 188.746 Q346.894 195.385 343.735 199.353 Q340.594 203.303 335.271 203.303 Q333.842 203.303 332.375 203.021 Q330.908 202.739 329.328 202.175 M336.889 190.269 Q339.447 190.269 340.932 188.52 Q342.437 186.771 342.437 183.724 Q342.437 180.696 340.932 178.947 Q339.447 177.179 336.889 177.179 Q334.331 177.179 332.826 178.947 Q331.34 180.696 331.34 183.724 Q331.34 186.771 332.826 188.52 Q334.331 190.269 336.889 190.269 Z" fill="#000000" fill-rule="nonzero" fill-opacity="1" /><path clip-path="url(#clip840)" d="M-9.64527 840.632 L0.4762 840.632 L0.4762 828.569 L5.02768 828.569 L5.02768 840.632 L24.3794 840.632 Q28.7399 840.632 29.9813 839.454 Q31.2226 838.245 31.2226 834.584 L31.2226 828.569 L36.1242 828.569 L36.1242 834.584 Q36.1242 841.364 33.6097 843.942 Q31.0634 846.52 24.3794 846.52 L5.02768 846.52 L5.02768 850.817 L0.4762 850.817 L0.4762 846.52 L-9.64527 846.52 L-9.64527 840.632 Z" fill="#000000" fill-rule="nonzero" fill-opacity="1" /><path clip-path="url(#clip840)" d="M-11.3958 789.738 L-11.3958 784.327 L42.1716 800.878 L42.1716 806.289 L-11.3958 789.738 Z" fill="#000000" fill-rule="nonzero" fill-opacity="1" /><path clip-path="url(#clip840)" d="M14.6081 727.831 L36.1242 727.831 L36.1242 733.688 L14.799 733.688 Q9.7383 733.688 7.22385 735.661 Q4.7094 737.635 4.7094 741.581 Q4.7094 746.324 7.73311 749.061 Q10.7568 751.798 15.9767 751.798 L36.1242 751.798 L36.1242 757.687 L0.4762 757.687 L0.4762 751.798 L6.01437 751.798 Q2.79968 749.698 1.20826 746.865 Q-0.38317 744 -0.38317 740.276 Q-0.38317 734.133 3.43625 730.982 Q7.22385 727.831 14.6081 727.831 Z" fill="#000000" fill-rule="nonzero" fill-opacity="1" /><path clip-path="url(#clip840)" d="M1.52654 693.425 L7.06471 693.425 Q5.79157 695.907 5.15499 698.581 Q4.51842 701.255 4.51842 704.119 Q4.51842 708.48 5.85522 710.676 Q7.19202 712.84 9.86562 712.84 Q11.9026 712.84 13.0803 711.281 Q14.2261 709.721 15.2765 705.01 L15.7221 703.005 Q17.0589 696.767 19.5097 694.157 Q21.9286 691.515 26.2891 691.515 Q31.2544 691.515 34.1508 695.462 Q37.0472 699.377 37.0472 706.252 Q37.0472 709.116 36.4743 712.235 Q35.9332 715.323 34.8192 718.76 L28.7718 718.76 Q30.4587 715.514 31.318 712.363 Q32.1456 709.212 32.1456 706.124 Q32.1456 701.987 30.7451 699.759 Q29.3129 697.531 26.7347 697.531 Q24.3476 697.531 23.0745 699.154 Q21.8013 700.745 20.6237 706.188 L20.1462 708.225 Q19.0004 713.668 16.6451 716.087 Q14.258 718.506 10.1202 718.506 Q5.09134 718.506 2.35408 714.941 Q-0.38317 711.376 -0.38317 704.819 Q-0.38317 701.573 0.0942579 698.708 Q0.571686 695.844 1.52654 693.425 Z" fill="#000000" fill-rule="nonzero" fill-opacity="1" /><path clip-path="url(#clip841)" d="M1369.34 1454.11 L1388.7 1449.86 L1402.86 1445.61 L1412.2 1441.36 L1417.34 1437.11 L1419.04 1432.86 L1417.99 1428.6 L1414.71 1424.35 L1409.47 1420.1 L1402.25 1415.85 L1392.78 1411.6 L1380.62 1407.35 L1365.3 1403.1 L1346.44 1398.85 L1323.87 1394.6 L1297.69 1390.34 L1268.33 1386.09 L1236.5 1381.84 L1203.15 1377.59 L1169.34 1373.34 L1136.15 1369.09 L1104.6 1364.84 L1075.5 1360.59 L1049.47 1356.34 L1026.86 1352.08 L1007.79 1347.83 L992.145 1343.58 L979.673 1339.33 L970.004 1335.08 L962.712 1330.83 L957.361 1326.58 L953.539 1322.33 L950.883 1318.08 L949.086 1313.82 L947.902 1309.57 L947.143 1305.32 L946.669 1301.07 L946.381 1296.82 L946.21 1292.57 L946.112 1288.32 L946.057 1284.07 L946.026 1279.81 L946.01 1275.56 L946.002 1271.31 L945.998 1267.06 L945.996 1262.81 L945.995 1258.56 L945.994 1254.31 L945.994 1250.06 L945.994 1245.81 L945.994 1241.55 L945.994 1237.3 L945.994 1233.05 L945.994 1228.8 L945.994 1224.55 L945.994 1220.3 L945.994 1216.05 L945.994 1211.8 L945.994 1207.55 L945.994 1203.29 L945.994 1199.04 L945.994 1194.79 L945.994 1190.54 L945.994 1186.29 L945.994 1182.04 L945.994 1177.79 L945.994 1173.54 L945.994 1169.29 L945.994 1165.03 L945.994 1160.78 L945.994 1156.53 L945.994 1152.28 L945.994 1148.03 L945.994 1143.78 L945.994 1139.53 L945.994 1135.28 L945.994 1131.03 L945.994 1126.77 L945.994 1122.52 L945.994 1118.27 L945.994 1114.02 L945.994 1109.77 L945.994 1105.52 L945.994 1101.27 L945.994 1097.02 L945.994 1092.77 L945.994 1088.51 L945.994 1084.26 L945.994 1080.01 L945.994 1075.76 L945.994 1071.51 L945.994 1067.26 L945.994 1063.01 L945.994 1058.76 L945.994 1054.5 L945.994 1050.25 L945.994 1046 L945.994 1041.75 L945.994 1037.5 L945.994 1033.25 L945.994 1029 L945.994 1024.75 L945.994 1020.5 L945.994 1016.24 L945.994 1011.99 L945.994 1007.74 L945.994 1003.49 L945.994 999.24 L945.994 994.989 L945.994 990.738 L945.994 986.487 L945.994 982.236 L945.994 977.985 L945.994 973.733 L945.994 969.482 L945.994 965.231 L945.994 960.98 L945.995 956.729 L945.996 952.478 L945.998 948.227 L946.002 943.976 L946.011 939.724 L946.028 935.473 L946.06 931.222 L946.118 926.971 L946.219 922.72 L946.393 918.469 L946.684 914.218 L947.157 909.967 L947.903 905.715 L949.05 901.464 L950.763 897.213 L953.249 892.962 L956.752 888.711 L961.545 884.46 L967.909 880.209 L976.1 875.958 L986.311 871.706 L998.627 867.455 L1012.98 863.204 L1029.09 858.953 L1046.5 854.702 L1064.48 850.451 L1082.17 846.2 L1098.56 841.948 L1112.63 837.697 L1123.41 833.446 L1130.13 829.195 L761.857 829.195 L768.581 833.446 L779.36 837.697 L793.424 841.948 L809.816 846.2 L827.506 850.451 L845.492 854.702 L862.893 858.953 L879.01 863.204 L893.36 867.455 L905.676 871.706 L915.888 875.958 L924.078 880.209 L930.442 884.46 L935.236 888.711 L938.739 892.962 L941.224 897.213 L942.937 901.464 L944.084 905.715 L944.831 909.967 L945.303 914.218 L945.594 918.469 L945.768 922.72 L945.87 926.971 L945.927 931.222 L945.959 935.473 L945.976 939.724 L945.985 943.976 L945.989 948.227 L945.992 952.478 L945.993 956.729 L945.993 960.98 L945.994 965.231 L945.994 969.482 L945.994 973.733 L945.994 977.985 L945.994 982.236 L945.994 986.487 L945.994 990.738 L945.994 994.989 L945.994 999.24 L945.994 1003.49 L945.994 1007.74 L945.994 1011.99 L945.994 1016.24 L945.994 1020.5 L945.994 1024.75 L945.994 1029 L945.994 1033.25 L945.994 1037.5 L945.994 1041.75 L945.994 1046 L945.994 1050.25 L945.994 1054.5 L945.994 1058.76 L945.994 1063.01 L945.994 1067.26 L945.994 1071.51 L945.994 1075.76 L945.994 1080.01 L945.994 1084.26 L945.994 1088.51 L945.994 1092.77 L945.994 1097.02 L945.994 1101.27 L945.994 1105.52 L945.994 1109.77 L945.994 1114.02 L945.994 1118.27 L945.994 1122.52 L945.994 1126.77 L945.994 1131.03 L945.994 1135.28 L945.994 1139.53 L945.994 1143.78 L945.994 1148.03 L945.994 1152.28 L945.994 1156.53 L945.994 1160.78 L945.994 1165.03 L945.994 1169.29 L945.994 1173.54 L945.994 1177.79 L945.994 1182.04 L945.994 1186.29 L945.994 1190.54 L945.994 1194.79 L945.994 1199.04 L945.994 1203.29 L945.994 1207.55 L945.994 1211.8 L945.994 1216.05 L945.994 1220.3 L945.994 1224.55 L945.994 1228.8 L945.994 1233.05 L945.994 1237.3 L945.994 1241.55 L945.994 1245.81 L945.994 1250.06 L945.993 1254.31 L945.993 1258.56 L945.992 1262.81 L945.99 1267.06 L945.986 1271.31 L945.977 1275.56 L945.961 1279.81 L945.931 1284.07 L945.876 1288.32 L945.777 1292.57 L945.606 1296.82 L945.318 1301.07 L944.844 1305.32 L944.085 1309.57 L942.901 1313.82 L941.104 1318.08 L938.448 1322.33 L934.627 1326.58 L929.275 1330.83 L921.983 1335.08 L912.314 1339.33 L899.843 1343.58 L884.199 1347.83 L865.123 1352.08 L842.513 1356.34 L816.484 1360.59 L787.39 1364.84 L755.834 1369.09 L722.649 1373.34 L688.836 1377.59 L655.483 1381.84 L623.656 1386.09 L594.296 1390.34 L568.117 1394.6 L545.543 1398.85 L526.683 1403.1 L511.364 1407.35 L499.205 1411.6 L489.734 1415.85 L482.516 1420.1 L477.279 1424.35 L474.001 1428.6 L472.947 1432.86 L474.643 1437.11 L479.789 1441.36 L489.126 1445.61 L503.287 1449.86 L522.646 1454.11 L1369.34 1454.11  Z" fill="#009af9" fill-rule="evenodd" fill-opacity="1"/>
<polyline clip-path="url(#clip841)" style="stroke:#000000; stroke-linecap:round; stroke-linejoin:round; stroke-width:4; stroke-opacity:1; fill:none" points="1369.34,1454.11 1388.7,1449.86 1402.86,1445.61 1412.2,1441.36 1417.34,1437.11 1419.04,1432.86 1417.99,1428.6 1414.71,1424.35 1409.47,1420.1 1402.25,1415.85 1392.78,1411.6 1380.62,1407.35 1365.3,1403.1 1346.44,1398.85 1323.87,1394.6 1297.69,1390.34 1268.33,1386.09 1236.5,1381.84 1203.15,1377.59 1169.34,1373.34 1136.15,1369.09 1104.6,1364.84 1075.5,1360.59 1049.47,1356.34 1026.86,1352.08 1007.79,1347.83 992.145,1343.58 979.673,1339.33 970.004,1335.08 962.712,1330.83 957.361,1326.58 953.539,1322.33 950.883,1318.08 949.086,1313.82 947.902,1309.57 947.143,1305.32 946.669,1301.07 946.381,1296.82 946.21,1292.57 946.112,1288.32 946.057,1284.07 946.026,1279.81 946.01,1275.56 946.002,1271.31 945.998,1267.06 945.996,1262.81 945.995,1258.56 945.994,1254.31 945.994,1250.06 945.994,1245.81 945.994,1241.55 945.994,1237.3 945.994,1233.05 945.994,1228.8 945.994,1224.55 945.994,1220.3 945.994,1216.05 945.994,1211.8 945.994,1207.55 945.994,1203.29 945.994,1199.04 945.994,1194.79 945.994,1190.54 945.994,1186.29 945.994,1182.04 945.994,1177.79 945.994,1173.54 945.994,1169.29 945.994,1165.03 945.994,1160.78 945.994,1156.53 945.994,1152.28 945.994,1148.03 945.994,1143.78 945.994,1139.53 945.994,1135.28 945.994,1131.03 945.994,1126.77 945.994,1122.52 945.994,1118.27 945.994,1114.02 945.994,1109.77 945.994,1105.52 945.994,1101.27 945.994,1097.02 945.994,1092.77 945.994,1088.51 945.994,1084.26 945.994,1080.01 945.994,1075.76 945.994,1071.51 945.994,1067.26 945.994,1063.01 945.994,1058.76 945.994,1054.5 945.994,1050.25 945.994,1046 945.994,1041.75 945.994,1037.5 945.994,1033.25 945.994,1029 945.994,1024.75 945.994,1020.5 945.994,1016.24 945.994,1011.99 945.994,1007.74 945.994,1003.49 945.994,999.24 945.994,994.989 945.994,990.738 945.994,986.487 945.994,982.236 945.994,977.985 945.994,973.733 945.994,969.482 945.994,965.231 945.994,960.98 945.995,956.729 945.996,952.478 945.998,948.227 946.002,943.976 946.011,939.724 946.028,935.473 946.06,931.222 946.118,926.971 946.219,922.72 946.393,918.469 946.684,914.218 947.157,909.967 947.903,905.715 949.05,901.464 950.763,897.213 953.249,892.962 956.752,888.711 961.545,884.46 967.909,880.209 976.1,875.958 986.311,871.706 998.627,867.455 1012.98,863.204 1029.09,858.953 1046.5,854.702 1064.48,850.451 1082.17,846.2 1098.56,841.948 1112.63,837.697 1123.41,833.446 1130.13,829.195 761.857,829.195 768.581,833.446 779.36,837.697 793.424,841.948 809.816,846.2 827.506,850.451 845.492,854.702 862.893,858.953 879.01,863.204 893.36,867.455 905.676,871.706 915.888,875.958 924.078,880.209 930.442,884.46 935.236,888.711 938.739,892.962 941.224,897.213 942.937,901.464 944.084,905.715 944.831,909.967 945.303,914.218 945.594,918.469 945.768,922.72 945.87,926.971 945.927,931.222 945.959,935.473 945.976,939.724 945.985,943.976 945.989,948.227 945.992,952.478 945.993,956.729 945.993,960.98 945.994,965.231 945.994,969.482 945.994,973.733 945.994,977.985 945.994,982.236 945.994,986.487 945.994,990.738 945.994,994.989 945.994,999.24 945.994,1003.49 945.994,1007.74 945.994,1011.99 945.994,1016.24 945.994,1020.5 945.994,1024.75 945.994,1029 945.994,1033.25 945.994,1037.5 945.994,1041.75 945.994,1046 945.994,1050.25 945.994,1054.5 945.994,1058.76 945.994,1063.01 945.994,1067.26 945.994,1071.51 945.994,1075.76 945.994,1080.01 945.994,1084.26 945.994,1088.51 945.994,1092.77 945.994,1097.02 945.994,1101.27 945.994,1105.52 945.994,1109.77 945.994,1114.02 945.994,1118.27 945.994,1122.52 945.994,1126.77 945.994,1131.03 945.994,1135.28 945.994,1139.53 945.994,1143.78 945.994,1148.03 945.994,1152.28 945.994,1156.53 945.994,1160.78 945.994,1165.03 945.994,1169.29 945.994,1173.54 945.994,1177.79 945.994,1182.04 945.994,1186.29 945.994,1190.54 945.994,1194.79 945.994,1199.04 945.994,1203.29 945.994,1207.55 945.994,1211.8 945.994,1216.05 945.994,1220.3 945.994,1224.55 945.994,1228.8 945.994,1233.05 945.994,1237.3 945.994,1241.55 945.994,1245.81 945.994,1250.06 945.993,1254.31 945.993,1258.56 945.992,1262.81 945.99,1267.06 945.986,1271.31 945.977,1275.56 945.961,1279.81 945.931,1284.07 945.876,1288.32 945.777,1292.57 945.606,1296.82 945.318,1301.07 944.844,1305.32 944.085,1309.57 942.901,1313.82 941.104,1318.08 938.448,1322.33 934.627,1326.58 929.275,1330.83 921.983,1335.08 912.314,1339.33 899.843,1343.58 884.199,1347.83 865.123,1352.08 842.513,1356.34 816.484,1360.59 787.39,1364.84 755.834,1369.09 722.649,1373.34 688.836,1377.59 655.483,1381.84 623.656,1386.09 594.296,1390.34 568.117,1394.6 545.543,1398.85 526.683,1403.1 511.364,1407.35 499.205,1411.6 489.734,1415.85 482.516,1420.1 477.279,1424.35 474.001,1428.6 472.947,1432.86 474.643,1437.11 479.789,1441.36 489.126,1445.61 503.287,1449.86 522.646,1454.11 1369.34,1454.11 "/>
<path clip-path="url(#clip841)" d="M3067.9 634.033 L3071.72 625.369 L3073.99 616.706 L3074.7 608.042 L3073.84 599.378 L3071.43 590.715 L3067.49 582.051 L3062.08 573.387 L3055.24 564.724 L3047.06 556.06 L3037.63 547.396 L3027.04 538.732 L3015.4 530.069 L3002.85 521.405 L2989.5 512.741 L2975.49 504.078 L2960.96 495.414 L2946.05 486.75 L2930.89 478.087 L2915.63 469.423 L2900.4 460.759 L2885.34 452.096 L2870.57 443.432 L2856.21 434.768 L2842.38 426.105 L2829.17 417.441 L2816.68 408.777 L2805 400.113 L2794.19 391.45 L2784.32 382.786 L2775.44 374.122 L2767.58 365.459 L2760.78 356.795 L2755.05 348.131 L2750.4 339.468 L2746.82 330.804 L2744.3 322.14 L2742.81 313.477 L2742.33 304.813 L2742.79 296.149 L2744.17 287.486 L2746.39 278.822 L2749.39 270.158 L2753.1 261.495 L2757.44 252.831 L2762.33 244.167 L2767.67 235.503 L2773.38 226.84 L2779.37 218.176 L2785.54 209.512 L2791.8 200.849 L2798.04 192.185 L2804.19 183.521 L2810.14 174.858 L2815.81 166.194 L2821.11 157.53 L2825.97 148.867 L2830.32 140.203 L2834.09 131.539 L2837.22 122.876 L2839.67 114.212 L2841.4 105.548 L2842.37 96.8845 L2842.56 88.2208 L2360.76 88.2208 L2360.95 96.8845 L2361.92 105.548 L2363.64 114.212 L2366.09 122.876 L2369.22 131.539 L2372.99 140.203 L2377.34 148.867 L2382.2 157.53 L2387.51 166.194 L2393.18 174.858 L2399.13 183.521 L2405.27 192.185 L2411.52 200.849 L2417.77 209.512 L2423.94 218.176 L2429.93 226.84 L2435.64 235.503 L2440.99 244.167 L2445.87 252.831 L2450.21 261.495 L2453.92 270.158 L2456.92 278.822 L2459.14 287.486 L2460.52 296.149 L2460.99 304.813 L2460.5 313.477 L2459.01 322.14 L2456.49 330.804 L2452.92 339.468 L2448.26 348.131 L2442.53 356.795 L2435.73 365.459 L2427.88 374.122 L2418.99 382.786 L2409.12 391.45 L2398.31 400.113 L2386.63 408.777 L2374.14 417.441 L2360.93 426.105 L2347.1 434.768 L2332.74 443.432 L2317.97 452.096 L2302.91 460.759 L2287.68 469.423 L2272.42 478.087 L2257.27 486.75 L2242.35 495.414 L2227.82 504.078 L2213.81 512.741 L2200.46 521.405 L2187.91 530.069 L2176.28 538.732 L2165.69 547.396 L2156.25 556.06 L2148.07 564.724 L2141.24 573.387 L2135.82 582.051 L2131.88 590.715 L2129.47 599.378 L2128.61 608.042 L2129.32 616.706 L2131.59 625.369 L2135.41 634.033 L3067.9 634.033  Z" fill="#e26f46" fill-rule="evenodd" fill-opacity="1"/>
<polyline clip-path="url(#clip841)" style="stroke:#000000; stroke-linecap:round; stroke-linejoin:round; stroke-width:4; stroke-opacity:1; fill:none" points="3067.9,634.033 3071.72,625.369 3073.99,616.706 3074.7,608.042 3073.84,599.378 3071.43,590.715 3067.49,582.051 3062.08,573.387 3055.24,564.724 3047.06,556.06 3037.63,547.396 3027.04,538.732 3015.4,530.069 3002.85,521.405 2989.5,512.741 2975.49,504.078 2960.96,495.414 2946.05,486.75 2930.89,478.087 2915.63,469.423 2900.4,460.759 2885.34,452.096 2870.57,443.432 2856.21,434.768 2842.38,426.105 2829.17,417.441 2816.68,408.777 2805,400.113 2794.19,391.45 2784.32,382.786 2775.44,374.122 2767.58,365.459 2760.78,356.795 2755.05,348.131 2750.4,339.468 2746.82,330.804 2744.3,322.14 2742.81,313.477 2742.33,304.813 2742.79,296.149 2744.17,287.486 2746.39,278.822 2749.39,270.158 2753.1,261.495 2757.44,252.831 2762.33,244.167 2767.67,235.503 2773.38,226.84 2779.37,218.176 2785.54,209.512 2791.8,200.849 2798.04,192.185 2804.19,183.521 2810.14,174.858 2815.81,166.194 2821.11,157.53 2825.97,148.867 2830.32,140.203 2834.09,131.539 2837.22,122.876 2839.67,114.212 2841.4,105.548 2842.37,96.8845 2842.56,88.2208 2360.76,88.2208 2360.95,96.8845 2361.92,105.548 2363.64,114.212 2366.09,122.876 2369.22,131.539 2372.99,140.203 2377.34,148.867 2382.2,157.53 2387.51,166.194 2393.18,174.858 2399.13,183.521 2405.27,192.185 2411.52,200.849 2417.77,209.512 2423.94,218.176 2429.93,226.84 2435.64,235.503 2440.99,244.167 2445.87,252.831 2450.21,261.495 2453.92,270.158 2456.92,278.822 2459.14,287.486 2460.52,296.149 2460.99,304.813 2460.5,313.477 2459.01,322.14 2456.49,330.804 2452.92,339.468 2448.26,348.131 2442.53,356.795 2435.73,365.459 2427.88,374.122 2418.99,382.786 2409.12,391.45 2398.31,400.113 2386.63,408.777 2374.14,417.441 2360.93,426.105 2347.1,434.768 2332.74,443.432 2317.97,452.096 2302.91,460.759 2287.68,469.423 2272.42,478.087 2257.27,486.75 2242.35,495.414 2227.82,504.078 2213.81,512.741 2200.46,521.405 2187.91,530.069 2176.28,538.732 2165.69,547.396 2156.25,556.06 2148.07,564.724 2141.24,573.387 2135.82,582.051 2131.88,590.715 2129.47,599.378 2128.61,608.042 2129.32,616.706 2131.59,625.369 2135.41,634.033 3067.9,634.033 "/>
</svg>
