<?xml version="1.0" encoding="utf-8"?>
<svg xmlns="http://www.w3.org/2000/svg" xmlns:xlink="http://www.w3.org/1999/xlink" width="800" height="400" viewBox="0 0 3200 1600">
<defs>
  <clipPath id="clip860">
    <rect x="0" y="0" width="3200" height="1600"/>
  </clipPath>
</defs>
<path clip-path="url(#clip860)" d="M0 1600 L3200 1600 L3200 0 L0 0  Z" fill="#ffffff" fill-rule="evenodd" fill-opacity="1"/>
<defs>
  <clipPath id="clip861">
    <rect x="640" y="0" width="2241" height="1600"/>
  </clipPath>
</defs>
<path clip-path="url(#clip860)" d="M394.643 1495.09 L3152.76 1495.09 L3152.76 47.2441 L394.643 47.2441  Z" fill="#ffffff" fill-rule="evenodd" fill-opacity="1"/>
<defs>
  <clipPath id="clip862">
    <rect x="394" y="47" width="2759" height="1449"/>
  </clipPath>
</defs>
<polyline clip-path="url(#clip862)" style="stroke:#000000; stroke-linecap:round; stroke-linejoin:round; stroke-width:2; stroke-opacity:0.1; fill:none" points="761.813,1495.09 761.813,47.2441 "/>
<polyline clip-path="url(#clip862)" style="stroke:#000000; stroke-linecap:round; stroke-linejoin:round; stroke-width:2; stroke-opacity:0.1; fill:none" points="1773.7,1495.09 1773.7,47.2441 "/>
<polyline clip-path="url(#clip862)" style="stroke:#000000; stroke-linecap:round; stroke-linejoin:round; stroke-width:2; stroke-opacity:0.1; fill:none" points="2785.59,1495.09 2785.59,47.2441 "/>
<polyline clip-path="url(#clip862)" style="stroke:#000000; stroke-linecap:round; stroke-linejoin:round; stroke-width:2; stroke-opacity:0.1; fill:none" points="394.643,1457.2 3152.76,1457.2 "/>
<polyline clip-path="url(#clip862)" style="stroke:#000000; stroke-linecap:round; stroke-linejoin:round; stroke-width:2; stroke-opacity:0.1; fill:none" points="394.643,1206.82 3152.76,1206.82 "/>
<polyline clip-path="url(#clip862)" style="stroke:#000000; stroke-linecap:round; stroke-linejoin:round; stroke-width:2; stroke-opacity:0.1; fill:none" points="394.643,956.433 3152.76,956.433 "/>
<polyline clip-path="url(#clip862)" style="stroke:#000000; stroke-linecap:round; stroke-linejoin:round; stroke-width:2; stroke-opacity:0.1; fill:none" points="394.643,706.048 3152.76,706.048 "/>
<polyline clip-path="url(#clip862)" style="stroke:#000000; stroke-linecap:round; stroke-linejoin:round; stroke-width:2; stroke-opacity:0.1; fill:none" points="394.643,455.663 3152.76,455.663 "/>
<polyline clip-path="url(#clip862)" style="stroke:#000000; stroke-linecap:round; stroke-linejoin:round; stroke-width:2; stroke-opacity:0.1; fill:none" points="394.643,205.278 3152.76,205.278 "/>
<polyline clip-path="url(#clip860)" style="stroke:#000000; stroke-linecap:round; stroke-linejoin:round; stroke-width:4; stroke-opacity:1; fill:none" points="394.643,1495.09 3152.76,1495.09 "/>
<polyline clip-path="url(#clip860)" style="stroke:#000000; stroke-linecap:round; stroke-linejoin:round; stroke-width:4; stroke-opacity:1; fill:none" points="761.813,1495.09 761.813,1476.19 "/>
<polyline clip-path="url(#clip860)" style="stroke:#000000; stroke-linecap:round; stroke-linejoin:round; stroke-width:4; stroke-opacity:1; fill:none" points="1773.7,1495.09 1773.7,1476.19 "/>
<polyline clip-path="url(#clip860)" style="stroke:#000000; stroke-linecap:round; stroke-linejoin:round; stroke-width:4; stroke-opacity:1; fill:none" points="2785.59,1495.09 2785.59,1476.19 "/>
<path clip-path="url(#clip860)" d="M541.583 1530.46 L541.583 1535.02 Q538.921 1533.75 536.559 1533.12 Q534.198 1532.5 531.999 1532.5 Q528.18 1532.5 526.097 1533.98 Q524.036 1535.46 524.036 1538.19 Q524.036 1540.49 525.402 1541.67 Q526.791 1542.82 530.634 1543.54 L533.458 1544.12 Q538.689 1545.11 541.166 1547.64 Q543.666 1550.14 543.666 1554.35 Q543.666 1559.37 540.286 1561.97 Q536.93 1564.56 530.425 1564.56 Q527.972 1564.56 525.194 1564 Q522.439 1563.45 519.476 1562.36 L519.476 1557.55 Q522.323 1559.14 525.055 1559.95 Q527.786 1560.76 530.425 1560.76 Q534.43 1560.76 536.606 1559.19 Q538.782 1557.61 538.782 1554.7 Q538.782 1552.15 537.208 1550.72 Q535.657 1549.28 532.092 1548.56 L529.245 1548.01 Q524.013 1546.97 521.675 1544.74 Q519.337 1542.52 519.337 1538.56 Q519.337 1533.98 522.555 1531.34 Q525.796 1528.7 531.467 1528.7 Q533.897 1528.7 536.421 1529.14 Q538.944 1529.58 541.583 1530.46 Z" fill="#000000" fill-rule="nonzero" fill-opacity="1" /><path clip-path="url(#clip860)" d="M561.559 1566.3 Q559.754 1570.92 558.041 1572.34 Q556.328 1573.75 553.458 1573.75 L550.055 1573.75 L550.055 1570.18 L552.555 1570.18 Q554.314 1570.18 555.286 1569.35 Q556.258 1568.52 557.439 1565.42 L558.203 1563.47 L547.717 1537.96 L552.231 1537.96 L560.333 1558.24 L568.434 1537.96 L572.948 1537.96 L561.559 1566.3 Z" fill="#000000" fill-rule="nonzero" fill-opacity="1" /><path clip-path="url(#clip860)" d="M599.013 1542.94 Q600.61 1540.07 602.832 1538.7 Q605.055 1537.34 608.064 1537.34 Q612.115 1537.34 614.314 1540.18 Q616.513 1543.01 616.513 1548.24 L616.513 1563.89 L612.23 1563.89 L612.23 1548.38 Q612.23 1544.65 610.911 1542.85 Q609.592 1541.04 606.883 1541.04 Q603.573 1541.04 601.652 1543.24 Q599.73 1545.44 599.73 1549.24 L599.73 1563.89 L595.448 1563.89 L595.448 1548.38 Q595.448 1544.63 594.129 1542.85 Q592.809 1541.04 590.055 1541.04 Q586.791 1541.04 584.869 1543.26 Q582.948 1545.46 582.948 1549.24 L582.948 1563.89 L578.666 1563.89 L578.666 1537.96 L582.948 1537.96 L582.948 1541.99 Q584.406 1539.61 586.443 1538.47 Q588.481 1537.34 591.281 1537.34 Q594.105 1537.34 596.073 1538.77 Q598.064 1540.21 599.013 1542.94 Z" fill="#000000" fill-rule="nonzero" fill-opacity="1" /><path clip-path="url(#clip860)" d="M643.619 1550.95 Q643.619 1546.25 641.675 1543.59 Q639.753 1540.9 636.374 1540.9 Q632.994 1540.9 631.05 1543.59 Q629.128 1546.25 629.128 1550.95 Q629.128 1555.65 631.05 1558.33 Q632.994 1560.99 636.374 1560.99 Q639.753 1560.99 641.675 1558.33 Q643.619 1555.65 643.619 1550.95 M629.128 1541.9 Q630.471 1539.58 632.508 1538.47 Q634.568 1537.34 637.415 1537.34 Q642.138 1537.34 645.077 1541.09 Q648.04 1544.84 648.04 1550.95 Q648.04 1557.06 645.077 1560.81 Q642.138 1564.56 637.415 1564.56 Q634.568 1564.56 632.508 1563.45 Q630.471 1562.31 629.128 1560 L629.128 1563.89 L624.846 1563.89 L624.846 1527.87 L629.128 1527.87 L629.128 1541.9 Z" fill="#000000" fill-rule="nonzero" fill-opacity="1" /><path clip-path="url(#clip860)" d="M665.147 1540.95 Q661.721 1540.95 659.73 1543.63 Q657.739 1546.3 657.739 1550.95 Q657.739 1555.6 659.707 1558.29 Q661.698 1560.95 665.147 1560.95 Q668.55 1560.95 670.54 1558.26 Q672.531 1555.58 672.531 1550.95 Q672.531 1546.34 670.54 1543.66 Q668.55 1540.95 665.147 1540.95 M665.147 1537.34 Q670.702 1537.34 673.874 1540.95 Q677.045 1544.56 677.045 1550.95 Q677.045 1557.31 673.874 1560.95 Q670.702 1564.56 665.147 1564.56 Q659.568 1564.56 656.397 1560.95 Q653.249 1557.31 653.249 1550.95 Q653.249 1544.56 656.397 1540.95 Q659.568 1537.34 665.147 1537.34 Z" fill="#000000" fill-rule="nonzero" fill-opacity="1" /><path clip-path="url(#clip860)" d="M684.105 1527.87 L688.364 1527.87 L688.364 1563.89 L684.105 1563.89 L684.105 1527.87 Z" fill="#000000" fill-rule="nonzero" fill-opacity="1" /><path clip-path="url(#clip860)" d="M697.276 1537.96 L701.535 1537.96 L701.535 1563.89 L697.276 1563.89 L697.276 1537.96 M697.276 1527.87 L701.535 1527.87 L701.535 1533.26 L697.276 1533.26 L697.276 1527.87 Z" fill="#000000" fill-rule="nonzero" fill-opacity="1" /><path clip-path="url(#clip860)" d="M729.105 1538.96 L729.105 1542.94 Q727.299 1541.94 725.471 1541.46 Q723.665 1540.95 721.813 1540.95 Q717.67 1540.95 715.378 1543.59 Q713.086 1546.2 713.086 1550.95 Q713.086 1555.69 715.378 1558.33 Q717.67 1560.95 721.813 1560.95 Q723.665 1560.95 725.471 1560.46 Q727.299 1559.95 729.105 1558.96 L729.105 1562.89 Q727.322 1563.73 725.401 1564.14 Q723.503 1564.56 721.35 1564.56 Q715.494 1564.56 712.045 1560.88 Q708.596 1557.2 708.596 1550.95 Q708.596 1544.61 712.068 1540.97 Q715.563 1537.34 721.628 1537.34 Q723.596 1537.34 725.471 1537.75 Q727.346 1538.15 729.105 1538.96 Z" fill="#000000" fill-rule="nonzero" fill-opacity="1" /><path clip-path="url(#clip860)" d="M761.813 1527.92 Q758.711 1533.24 757.206 1538.45 Q755.702 1543.66 755.702 1549 Q755.702 1554.35 757.206 1559.61 Q758.734 1564.84 761.813 1570.14 L758.109 1570.14 Q754.637 1564.7 752.901 1559.44 Q751.188 1554.19 751.188 1549 Q751.188 1543.84 752.901 1538.61 Q754.614 1533.38 758.109 1527.92 L761.813 1527.92 Z" fill="#000000" fill-rule="nonzero" fill-opacity="1" /><path clip-path="url(#clip860)" d="M781.859 1550.86 Q776.697 1550.86 774.706 1552.04 Q772.716 1553.22 772.716 1556.06 Q772.716 1558.33 774.197 1559.67 Q775.702 1560.99 778.271 1560.99 Q781.813 1560.99 783.942 1558.49 Q786.095 1555.97 786.095 1551.8 L786.095 1550.86 L781.859 1550.86 M790.354 1549.1 L790.354 1563.89 L786.095 1563.89 L786.095 1559.95 Q784.637 1562.31 782.461 1563.45 Q780.285 1564.56 777.137 1564.56 Q773.155 1564.56 770.794 1562.34 Q768.456 1560.09 768.456 1556.34 Q768.456 1551.97 771.373 1549.74 Q774.313 1547.52 780.123 1547.52 L786.095 1547.52 L786.095 1547.11 Q786.095 1544.17 784.151 1542.57 Q782.229 1540.95 778.734 1540.95 Q776.512 1540.95 774.405 1541.48 Q772.299 1542.01 770.355 1543.08 L770.355 1539.14 Q772.692 1538.24 774.892 1537.8 Q777.091 1537.34 779.174 1537.34 Q784.799 1537.34 787.577 1540.25 Q790.354 1543.17 790.354 1549.1 Z" fill="#000000" fill-rule="nonzero" fill-opacity="1" /><path clip-path="url(#clip860)" d="M798.688 1553.66 L798.688 1537.96 L802.947 1537.96 L802.947 1553.49 Q802.947 1557.17 804.382 1559.03 Q805.817 1560.86 808.688 1560.86 Q812.137 1560.86 814.127 1558.66 Q816.141 1556.46 816.141 1552.66 L816.141 1537.96 L820.401 1537.96 L820.401 1563.89 L816.141 1563.89 L816.141 1559.91 Q814.59 1562.27 812.53 1563.42 Q810.493 1564.56 807.785 1564.56 Q803.317 1564.56 801.003 1561.78 Q798.688 1559 798.688 1553.66 M809.405 1537.34 L809.405 1537.34 Z" fill="#000000" fill-rule="nonzero" fill-opacity="1" /><path clip-path="url(#clip860)" d="M833.387 1530.6 L833.387 1537.96 L842.16 1537.96 L842.16 1541.27 L833.387 1541.27 L833.387 1555.35 Q833.387 1558.52 834.243 1559.42 Q835.123 1560.32 837.785 1560.32 L842.16 1560.32 L842.16 1563.89 L837.785 1563.89 Q832.854 1563.89 830.979 1562.06 Q829.104 1560.21 829.104 1555.35 L829.104 1541.27 L825.979 1541.27 L825.979 1537.96 L829.104 1537.96 L829.104 1530.6 L833.387 1530.6 Z" fill="#000000" fill-rule="nonzero" fill-opacity="1" /><path clip-path="url(#clip860)" d="M857.808 1540.95 Q854.382 1540.95 852.391 1543.63 Q850.4 1546.3 850.4 1550.95 Q850.4 1555.6 852.368 1558.29 Q854.359 1560.95 857.808 1560.95 Q861.211 1560.95 863.201 1558.26 Q865.192 1555.58 865.192 1550.95 Q865.192 1546.34 863.201 1543.66 Q861.211 1540.95 857.808 1540.95 M857.808 1537.34 Q863.363 1537.34 866.535 1540.95 Q869.706 1544.56 869.706 1550.95 Q869.706 1557.31 866.535 1560.95 Q863.363 1564.56 857.808 1564.56 Q852.229 1564.56 849.058 1560.95 Q845.91 1557.31 845.91 1550.95 Q845.91 1544.56 849.058 1540.95 Q852.229 1537.34 857.808 1537.34 Z" fill="#000000" fill-rule="nonzero" fill-opacity="1" /><path clip-path="url(#clip860)" d="M876.535 1558.01 L881.419 1558.01 L881.419 1563.89 L876.535 1563.89 L876.535 1558.01 Z" fill="#000000" fill-rule="nonzero" fill-opacity="1" /><path clip-path="url(#clip860)" d="M923.132 1541.9 L923.132 1527.87 L927.391 1527.87 L927.391 1563.89 L923.132 1563.89 L923.132 1560 Q921.789 1562.31 919.729 1563.45 Q917.692 1564.56 914.821 1564.56 Q910.122 1564.56 907.159 1560.81 Q904.22 1557.06 904.22 1550.95 Q904.22 1544.84 907.159 1541.09 Q910.122 1537.34 914.821 1537.34 Q917.692 1537.34 919.729 1538.47 Q921.789 1539.58 923.132 1541.9 M908.618 1550.95 Q908.618 1555.65 910.539 1558.33 Q912.483 1560.99 915.863 1560.99 Q919.243 1560.99 921.187 1558.33 Q923.132 1555.65 923.132 1550.95 Q923.132 1546.25 921.187 1543.59 Q919.243 1540.9 915.863 1540.9 Q912.483 1540.9 910.539 1543.59 Q908.618 1546.25 908.618 1550.95 Z" fill="#000000" fill-rule="nonzero" fill-opacity="1" /><path clip-path="url(#clip860)" d="M936.164 1537.96 L940.423 1537.96 L940.423 1563.89 L936.164 1563.89 L936.164 1537.96 M936.164 1527.87 L940.423 1527.87 L940.423 1533.26 L936.164 1533.26 L936.164 1527.87 Z" fill="#000000" fill-rule="nonzero" fill-opacity="1" /><path clip-path="url(#clip860)" d="M962.46 1527.87 L962.46 1531.41 L958.386 1531.41 Q956.094 1531.41 955.192 1532.34 Q954.312 1533.26 954.312 1535.67 L954.312 1537.96 L961.326 1537.96 L961.326 1541.27 L954.312 1541.27 L954.312 1563.89 L950.03 1563.89 L950.03 1541.27 L945.955 1541.27 L945.955 1537.96 L950.03 1537.96 L950.03 1536.16 Q950.03 1531.83 952.043 1529.86 Q954.057 1527.87 958.432 1527.87 L962.46 1527.87 Z" fill="#000000" fill-rule="nonzero" fill-opacity="1" /><path clip-path="url(#clip860)" d="M979.15 1527.87 L979.15 1531.41 L975.076 1531.41 Q972.784 1531.41 971.881 1532.34 Q971.002 1533.26 971.002 1535.67 L971.002 1537.96 L978.015 1537.96 L978.015 1541.27 L971.002 1541.27 L971.002 1563.89 L966.719 1563.89 L966.719 1541.27 L962.645 1541.27 L962.645 1537.96 L966.719 1537.96 L966.719 1536.16 Q966.719 1531.83 968.733 1529.86 Q970.747 1527.87 975.122 1527.87 L979.15 1527.87 Z" fill="#000000" fill-rule="nonzero" fill-opacity="1" /><path clip-path="url(#clip860)" d="M979.867 1558.01 L984.752 1558.01 L984.752 1563.89 L979.867 1563.89 L979.867 1558.01 Z" fill="#000000" fill-rule="nonzero" fill-opacity="1" /><path clip-path="url(#clip860)" d="M993.664 1527.92 L997.367 1527.92 Q1000.84 1533.38 1002.55 1538.61 Q1004.29 1543.84 1004.29 1549 Q1004.29 1554.19 1002.55 1559.44 Q1000.84 1564.7 997.367 1570.14 L993.664 1570.14 Q996.742 1564.84 998.247 1559.61 Q999.775 1554.35 999.775 1549 Q999.775 1543.66 998.247 1538.45 Q996.742 1533.24 993.664 1527.92 Z" fill="#000000" fill-rule="nonzero" fill-opacity="1" /><path clip-path="url(#clip860)" d="M1576.44 1530.46 L1576.44 1535.02 Q1573.78 1533.75 1571.42 1533.12 Q1569.06 1532.5 1566.86 1532.5 Q1563.04 1532.5 1560.96 1533.98 Q1558.9 1535.46 1558.9 1538.19 Q1558.9 1540.49 1560.26 1541.67 Q1561.65 1542.82 1565.49 1543.54 L1568.32 1544.12 Q1573.55 1545.11 1576.03 1547.64 Q1578.53 1550.14 1578.53 1554.35 Q1578.53 1559.37 1575.15 1561.97 Q1571.79 1564.56 1565.29 1564.56 Q1562.83 1564.56 1560.05 1564 Q1557.3 1563.45 1554.34 1562.36 L1554.34 1557.55 Q1557.18 1559.14 1559.92 1559.95 Q1562.65 1560.76 1565.29 1560.76 Q1569.29 1560.76 1571.47 1559.19 Q1573.64 1557.61 1573.64 1554.7 Q1573.64 1552.15 1572.07 1550.72 Q1570.52 1549.28 1566.95 1548.56 L1564.11 1548.01 Q1558.87 1546.97 1556.54 1544.74 Q1554.2 1542.52 1554.2 1538.56 Q1554.2 1533.98 1557.42 1531.34 Q1560.66 1528.7 1566.33 1528.7 Q1568.76 1528.7 1571.28 1529.14 Q1573.8 1529.58 1576.44 1530.46 Z" fill="#000000" fill-rule="nonzero" fill-opacity="1" /><path clip-path="url(#clip860)" d="M1596.42 1566.3 Q1594.61 1570.92 1592.9 1572.34 Q1591.19 1573.75 1588.32 1573.75 L1584.92 1573.75 L1584.92 1570.18 L1587.42 1570.18 Q1589.17 1570.18 1590.15 1569.35 Q1591.12 1568.52 1592.3 1565.42 L1593.06 1563.47 L1582.58 1537.96 L1587.09 1537.96 L1595.19 1558.24 L1603.3 1537.96 L1607.81 1537.96 L1596.42 1566.3 Z" fill="#000000" fill-rule="nonzero" fill-opacity="1" /><path clip-path="url(#clip860)" d="M1633.87 1542.94 Q1635.47 1540.07 1637.69 1538.7 Q1639.92 1537.34 1642.92 1537.34 Q1646.98 1537.34 1649.17 1540.18 Q1651.37 1543.01 1651.37 1548.24 L1651.37 1563.89 L1647.09 1563.89 L1647.09 1548.38 Q1647.09 1544.65 1645.77 1542.85 Q1644.45 1541.04 1641.74 1541.04 Q1638.43 1541.04 1636.51 1543.24 Q1634.59 1545.44 1634.59 1549.24 L1634.59 1563.89 L1630.31 1563.89 L1630.31 1548.38 Q1630.31 1544.63 1628.99 1542.85 Q1627.67 1541.04 1624.92 1541.04 Q1621.65 1541.04 1619.73 1543.26 Q1617.81 1545.46 1617.81 1549.24 L1617.81 1563.89 L1613.53 1563.89 L1613.53 1537.96 L1617.81 1537.96 L1617.81 1541.99 Q1619.27 1539.61 1621.3 1538.47 Q1623.34 1537.34 1626.14 1537.34 Q1628.97 1537.34 1630.93 1538.77 Q1632.92 1540.21 1633.87 1542.94 Z" fill="#000000" fill-rule="nonzero" fill-opacity="1" /><path clip-path="url(#clip860)" d="M1678.48 1550.95 Q1678.48 1546.25 1676.54 1543.59 Q1674.61 1540.9 1671.23 1540.9 Q1667.85 1540.9 1665.91 1543.59 Q1663.99 1546.25 1663.99 1550.95 Q1663.99 1555.65 1665.91 1558.33 Q1667.85 1560.99 1671.23 1560.99 Q1674.61 1560.99 1676.54 1558.33 Q1678.48 1555.65 1678.48 1550.95 M1663.99 1541.9 Q1665.33 1539.58 1667.37 1538.47 Q1669.43 1537.34 1672.28 1537.34 Q1677 1537.34 1679.94 1541.09 Q1682.9 1544.84 1682.9 1550.95 Q1682.9 1557.06 1679.94 1560.81 Q1677 1564.56 1672.28 1564.56 Q1669.43 1564.56 1667.37 1563.45 Q1665.33 1562.31 1663.99 1560 L1663.99 1563.89 L1659.71 1563.89 L1659.71 1527.87 L1663.99 1527.87 L1663.99 1541.9 Z" fill="#000000" fill-rule="nonzero" fill-opacity="1" /><path clip-path="url(#clip860)" d="M1700.01 1540.95 Q1696.58 1540.95 1694.59 1543.63 Q1692.6 1546.3 1692.6 1550.95 Q1692.6 1555.6 1694.57 1558.29 Q1696.56 1560.95 1700.01 1560.95 Q1703.41 1560.95 1705.4 1558.26 Q1707.39 1555.58 1707.39 1550.95 Q1707.39 1546.34 1705.4 1543.66 Q1703.41 1540.95 1700.01 1540.95 M1700.01 1537.34 Q1705.56 1537.34 1708.73 1540.95 Q1711.91 1544.56 1711.91 1550.95 Q1711.91 1557.31 1708.73 1560.95 Q1705.56 1564.56 1700.01 1564.56 Q1694.43 1564.56 1691.26 1560.95 Q1688.11 1557.31 1688.11 1550.95 Q1688.11 1544.56 1691.26 1540.95 Q1694.43 1537.34 1700.01 1537.34 Z" fill="#000000" fill-rule="nonzero" fill-opacity="1" /><path clip-path="url(#clip860)" d="M1718.97 1527.87 L1723.23 1527.87 L1723.23 1563.89 L1718.97 1563.89 L1718.97 1527.87 Z" fill="#000000" fill-rule="nonzero" fill-opacity="1" /><path clip-path="url(#clip860)" d="M1732.14 1537.96 L1736.4 1537.96 L1736.4 1563.89 L1732.14 1563.89 L1732.14 1537.96 M1732.14 1527.87 L1736.4 1527.87 L1736.4 1533.26 L1732.14 1533.26 L1732.14 1527.87 Z" fill="#000000" fill-rule="nonzero" fill-opacity="1" /><path clip-path="url(#clip860)" d="M1763.97 1538.96 L1763.97 1542.94 Q1762.16 1541.94 1760.33 1541.46 Q1758.53 1540.95 1756.67 1540.95 Q1752.53 1540.95 1750.24 1543.59 Q1747.95 1546.2 1747.95 1550.95 Q1747.95 1555.69 1750.24 1558.33 Q1752.53 1560.95 1756.67 1560.95 Q1758.53 1560.95 1760.33 1560.46 Q1762.16 1559.95 1763.97 1558.96 L1763.97 1562.89 Q1762.18 1563.73 1760.26 1564.14 Q1758.36 1564.56 1756.21 1564.56 Q1750.35 1564.56 1746.91 1560.88 Q1743.46 1557.2 1743.46 1550.95 Q1743.46 1544.61 1746.93 1540.97 Q1750.42 1537.34 1756.49 1537.34 Q1758.46 1537.34 1760.33 1537.75 Q1762.21 1538.15 1763.97 1538.96 Z" fill="#000000" fill-rule="nonzero" fill-opacity="1" /><path clip-path="url(#clip860)" d="M1796.67 1527.92 Q1793.57 1533.24 1792.07 1538.45 Q1790.56 1543.66 1790.56 1549 Q1790.56 1554.35 1792.07 1559.61 Q1793.6 1564.84 1796.67 1570.14 L1792.97 1570.14 Q1789.5 1564.7 1787.76 1559.44 Q1786.05 1554.19 1786.05 1549 Q1786.05 1543.84 1787.76 1538.61 Q1789.47 1533.38 1792.97 1527.92 L1796.67 1527.92 Z" fill="#000000" fill-rule="nonzero" fill-opacity="1" /><path clip-path="url(#clip860)" d="M1818.06 1527.87 L1818.06 1531.41 L1813.99 1531.41 Q1811.7 1531.41 1810.79 1532.34 Q1809.91 1533.26 1809.91 1535.67 L1809.91 1537.96 L1816.93 1537.96 L1816.93 1541.27 L1809.91 1541.27 L1809.91 1563.89 L1805.63 1563.89 L1805.63 1541.27 L1801.56 1541.27 L1801.56 1537.96 L1805.63 1537.96 L1805.63 1536.16 Q1805.63 1531.83 1807.65 1529.86 Q1809.66 1527.87 1814.03 1527.87 L1818.06 1527.87 Z" fill="#000000" fill-rule="nonzero" fill-opacity="1" /><path clip-path="url(#clip860)" d="M1821.63 1537.96 L1825.89 1537.96 L1825.89 1563.89 L1821.63 1563.89 L1821.63 1537.96 M1821.63 1527.87 L1825.89 1527.87 L1825.89 1533.26 L1821.63 1533.26 L1821.63 1527.87 Z" fill="#000000" fill-rule="nonzero" fill-opacity="1" /><path clip-path="url(#clip860)" d="M1856.35 1548.24 L1856.35 1563.89 L1852.09 1563.89 L1852.09 1548.38 Q1852.09 1544.7 1850.65 1542.87 Q1849.22 1541.04 1846.35 1541.04 Q1842.9 1541.04 1840.91 1543.24 Q1838.92 1545.44 1838.92 1549.24 L1838.92 1563.89 L1834.64 1563.89 L1834.64 1537.96 L1838.92 1537.96 L1838.92 1541.99 Q1840.45 1539.65 1842.51 1538.49 Q1844.59 1537.34 1847.3 1537.34 Q1851.77 1537.34 1854.06 1540.11 Q1856.35 1542.87 1856.35 1548.24 Z" fill="#000000" fill-rule="nonzero" fill-opacity="1" /><path clip-path="url(#clip860)" d="M1865.45 1558.01 L1870.33 1558.01 L1870.33 1563.89 L1865.45 1563.89 L1865.45 1558.01 Z" fill="#000000" fill-rule="nonzero" fill-opacity="1" /><path clip-path="url(#clip860)" d="M1912.04 1541.9 L1912.04 1527.87 L1916.3 1527.87 L1916.3 1563.89 L1912.04 1563.89 L1912.04 1560 Q1910.7 1562.31 1908.64 1563.45 Q1906.6 1564.56 1903.73 1564.56 Q1899.03 1564.56 1896.07 1560.81 Q1893.13 1557.06 1893.13 1550.95 Q1893.13 1544.84 1896.07 1541.09 Q1899.03 1537.34 1903.73 1537.34 Q1906.6 1537.34 1908.64 1538.47 Q1910.7 1539.58 1912.04 1541.9 M1897.53 1550.95 Q1897.53 1555.65 1899.45 1558.33 Q1901.4 1560.99 1904.77 1560.99 Q1908.15 1560.99 1910.1 1558.33 Q1912.04 1555.65 1912.04 1550.95 Q1912.04 1546.25 1910.1 1543.59 Q1908.15 1540.9 1904.77 1540.9 Q1901.4 1540.9 1899.45 1543.59 Q1897.53 1546.25 1897.53 1550.95 Z" fill="#000000" fill-rule="nonzero" fill-opacity="1" /><path clip-path="url(#clip860)" d="M1925.08 1537.96 L1929.34 1537.96 L1929.34 1563.89 L1925.08 1563.89 L1925.08 1537.96 M1925.08 1527.87 L1929.34 1527.87 L1929.34 1533.26 L1925.08 1533.26 L1925.08 1527.87 Z" fill="#000000" fill-rule="nonzero" fill-opacity="1" /><path clip-path="url(#clip860)" d="M1951.37 1527.87 L1951.37 1531.41 L1947.3 1531.41 Q1945.01 1531.41 1944.1 1532.34 Q1943.22 1533.26 1943.22 1535.67 L1943.22 1537.96 L1950.24 1537.96 L1950.24 1541.27 L1943.22 1541.27 L1943.22 1563.89 L1938.94 1563.89 L1938.94 1541.27 L1934.87 1541.27 L1934.87 1537.96 L1938.94 1537.96 L1938.94 1536.16 Q1938.94 1531.83 1940.96 1529.86 Q1942.97 1527.87 1947.34 1527.87 L1951.37 1527.87 Z" fill="#000000" fill-rule="nonzero" fill-opacity="1" /><path clip-path="url(#clip860)" d="M1968.06 1527.87 L1968.06 1531.41 L1963.99 1531.41 Q1961.7 1531.41 1960.79 1532.34 Q1959.91 1533.26 1959.91 1535.67 L1959.91 1537.96 L1966.93 1537.96 L1966.93 1541.27 L1959.91 1541.27 L1959.91 1563.89 L1955.63 1563.89 L1955.63 1541.27 L1951.56 1541.27 L1951.56 1537.96 L1955.63 1537.96 L1955.63 1536.16 Q1955.63 1531.83 1957.65 1529.86 Q1959.66 1527.87 1964.03 1527.87 L1968.06 1527.87 Z" fill="#000000" fill-rule="nonzero" fill-opacity="1" /><path clip-path="url(#clip860)" d="M1968.78 1558.01 L1973.66 1558.01 L1973.66 1563.89 L1968.78 1563.89 L1968.78 1558.01 Z" fill="#000000" fill-rule="nonzero" fill-opacity="1" /><path clip-path="url(#clip860)" d="M1982.58 1527.92 L1986.28 1527.92 Q1989.75 1533.38 1991.46 1538.61 Q1993.2 1543.84 1993.2 1549 Q1993.2 1554.19 1991.46 1559.44 Q1989.75 1564.7 1986.28 1570.14 L1982.58 1570.14 Q1985.65 1564.84 1987.16 1559.61 Q1988.69 1554.35 1988.69 1549 Q1988.69 1543.66 1987.16 1538.45 Q1985.65 1533.24 1982.58 1527.92 Z" fill="#000000" fill-rule="nonzero" fill-opacity="1" /><path clip-path="url(#clip860)" d="M2530.89 1529.33 L2537.18 1529.33 L2552.51 1558.24 L2552.51 1529.33 L2557.05 1529.33 L2557.05 1563.89 L2550.75 1563.89 L2535.43 1534.98 L2535.43 1563.89 L2530.89 1563.89 L2530.89 1529.33 Z" fill="#000000" fill-rule="nonzero" fill-opacity="1" /><path clip-path="url(#clip860)" d="M2565.73 1553.66 L2565.73 1537.96 L2569.99 1537.96 L2569.99 1553.49 Q2569.99 1557.17 2571.42 1559.03 Q2572.86 1560.86 2575.73 1560.86 Q2579.17 1560.86 2581.17 1558.66 Q2583.18 1556.46 2583.18 1552.66 L2583.18 1537.96 L2587.44 1537.96 L2587.44 1563.89 L2583.18 1563.89 L2583.18 1559.91 Q2581.63 1562.27 2579.57 1563.42 Q2577.53 1564.56 2574.82 1564.56 Q2570.36 1564.56 2568.04 1561.78 Q2565.73 1559 2565.73 1553.66 M2576.44 1537.34 L2576.44 1537.34 Z" fill="#000000" fill-rule="nonzero" fill-opacity="1" /><path clip-path="url(#clip860)" d="M2616.4 1542.94 Q2617.99 1540.07 2620.22 1538.7 Q2622.44 1537.34 2625.45 1537.34 Q2629.5 1537.34 2631.7 1540.18 Q2633.9 1543.01 2633.9 1548.24 L2633.9 1563.89 L2629.61 1563.89 L2629.61 1548.38 Q2629.61 1544.65 2628.29 1542.85 Q2626.98 1541.04 2624.27 1541.04 Q2620.96 1541.04 2619.04 1543.24 Q2617.11 1545.44 2617.11 1549.24 L2617.11 1563.89 L2612.83 1563.89 L2612.83 1548.38 Q2612.83 1544.63 2611.51 1542.85 Q2610.19 1541.04 2607.44 1541.04 Q2604.17 1541.04 2602.25 1543.26 Q2600.33 1545.46 2600.33 1549.24 L2600.33 1563.89 L2596.05 1563.89 L2596.05 1537.96 L2600.33 1537.96 L2600.33 1541.99 Q2601.79 1539.61 2603.83 1538.47 Q2605.86 1537.34 2608.67 1537.34 Q2611.49 1537.34 2613.46 1538.77 Q2615.45 1540.21 2616.4 1542.94 Z" fill="#000000" fill-rule="nonzero" fill-opacity="1" /><path clip-path="url(#clip860)" d="M2664.57 1549.86 L2664.57 1551.94 L2644.98 1551.94 Q2645.26 1556.34 2647.62 1558.66 Q2650.01 1560.95 2654.24 1560.95 Q2656.7 1560.95 2658.99 1560.35 Q2661.3 1559.74 2663.57 1558.54 L2663.57 1562.57 Q2661.28 1563.54 2658.87 1564.05 Q2656.47 1564.56 2653.99 1564.56 Q2647.79 1564.56 2644.15 1560.95 Q2640.54 1557.34 2640.54 1551.18 Q2640.54 1544.81 2643.97 1541.09 Q2647.42 1537.34 2653.25 1537.34 Q2658.48 1537.34 2661.51 1540.72 Q2664.57 1544.07 2664.57 1549.86 M2660.31 1548.61 Q2660.26 1545.11 2658.34 1543.03 Q2656.44 1540.95 2653.29 1540.95 Q2649.73 1540.95 2647.58 1542.96 Q2645.45 1544.98 2645.12 1548.63 L2660.31 1548.61 Z" fill="#000000" fill-rule="nonzero" fill-opacity="1" /><path clip-path="url(#clip860)" d="M2686.58 1541.94 Q2685.86 1541.53 2685.01 1541.34 Q2684.17 1541.13 2683.16 1541.13 Q2679.54 1541.13 2677.6 1543.49 Q2675.68 1545.83 2675.68 1550.23 L2675.68 1563.89 L2671.4 1563.89 L2671.4 1537.96 L2675.68 1537.96 L2675.68 1541.99 Q2677.02 1539.63 2679.17 1538.49 Q2681.33 1537.34 2684.41 1537.34 Q2684.85 1537.34 2685.38 1537.41 Q2685.91 1537.45 2686.56 1537.57 L2686.58 1541.94 Z" fill="#000000" fill-rule="nonzero" fill-opacity="1" /><path clip-path="url(#clip860)" d="M2691.05 1537.96 L2695.31 1537.96 L2695.31 1563.89 L2691.05 1563.89 L2691.05 1537.96 M2691.05 1527.87 L2695.31 1527.87 L2695.31 1533.26 L2691.05 1533.26 L2691.05 1527.87 Z" fill="#000000" fill-rule="nonzero" fill-opacity="1" /><path clip-path="url(#clip860)" d="M2722.88 1538.96 L2722.88 1542.94 Q2721.07 1541.94 2719.24 1541.46 Q2717.44 1540.95 2715.59 1540.95 Q2711.44 1540.95 2709.15 1543.59 Q2706.86 1546.2 2706.86 1550.95 Q2706.86 1555.69 2709.15 1558.33 Q2711.44 1560.95 2715.59 1560.95 Q2717.44 1560.95 2719.24 1560.46 Q2721.07 1559.95 2722.88 1558.96 L2722.88 1562.89 Q2721.1 1563.73 2719.17 1564.14 Q2717.28 1564.56 2715.12 1564.56 Q2709.27 1564.56 2705.82 1560.88 Q2702.37 1557.2 2702.37 1550.95 Q2702.37 1544.61 2705.84 1540.97 Q2709.34 1537.34 2715.4 1537.34 Q2717.37 1537.34 2719.24 1537.75 Q2721.12 1538.15 2722.88 1538.96 Z" fill="#000000" fill-rule="nonzero" fill-opacity="1" /><path clip-path="url(#clip860)" d="M2742.07 1550.86 Q2736.91 1550.86 2734.91 1552.04 Q2732.92 1553.22 2732.92 1556.06 Q2732.92 1558.33 2734.41 1559.67 Q2735.91 1560.99 2738.48 1560.99 Q2742.02 1560.99 2744.15 1558.49 Q2746.3 1555.97 2746.3 1551.8 L2746.3 1550.86 L2742.07 1550.86 M2750.56 1549.1 L2750.56 1563.89 L2746.3 1563.89 L2746.3 1559.95 Q2744.85 1562.31 2742.67 1563.45 Q2740.49 1564.56 2737.35 1564.56 Q2733.36 1564.56 2731 1562.34 Q2728.66 1560.09 2728.66 1556.34 Q2728.66 1551.97 2731.58 1549.74 Q2734.52 1547.52 2740.33 1547.52 L2746.3 1547.52 L2746.3 1547.11 Q2746.3 1544.17 2744.36 1542.57 Q2742.44 1540.95 2738.94 1540.95 Q2736.72 1540.95 2734.61 1541.48 Q2732.51 1542.01 2730.56 1543.08 L2730.56 1539.14 Q2732.9 1538.24 2735.1 1537.8 Q2737.3 1537.34 2739.38 1537.34 Q2745.01 1537.34 2747.78 1540.25 Q2750.56 1543.17 2750.56 1549.1 Z" fill="#000000" fill-rule="nonzero" fill-opacity="1" /><path clip-path="url(#clip860)" d="M2759.34 1527.87 L2763.6 1527.87 L2763.6 1563.89 L2759.34 1563.89 L2759.34 1527.87 Z" fill="#000000" fill-rule="nonzero" fill-opacity="1" /><path clip-path="url(#clip860)" d="M2797.81 1527.92 Q2794.71 1533.24 2793.2 1538.45 Q2791.7 1543.66 2791.7 1549 Q2791.7 1554.35 2793.2 1559.61 Q2794.73 1564.84 2797.81 1570.14 L2794.1 1570.14 Q2790.63 1564.7 2788.9 1559.44 Q2787.18 1554.19 2787.18 1549 Q2787.18 1543.84 2788.9 1538.61 Q2790.61 1533.38 2794.1 1527.92 L2797.81 1527.92 Z" fill="#000000" fill-rule="nonzero" fill-opacity="1" /><path clip-path="url(#clip860)" d="M2817.85 1550.86 Q2812.69 1550.86 2810.7 1552.04 Q2808.71 1553.22 2808.71 1556.06 Q2808.71 1558.33 2810.19 1559.67 Q2811.7 1560.99 2814.27 1560.99 Q2817.81 1560.99 2819.94 1558.49 Q2822.09 1555.97 2822.09 1551.8 L2822.09 1550.86 L2817.85 1550.86 M2826.35 1549.1 L2826.35 1563.89 L2822.09 1563.89 L2822.09 1559.95 Q2820.63 1562.31 2818.46 1563.45 Q2816.28 1564.56 2813.13 1564.56 Q2809.15 1564.56 2806.79 1562.34 Q2804.45 1560.09 2804.45 1556.34 Q2804.45 1551.97 2807.37 1549.74 Q2810.31 1547.52 2816.12 1547.52 L2822.09 1547.52 L2822.09 1547.11 Q2822.09 1544.17 2820.15 1542.57 Q2818.22 1540.95 2814.73 1540.95 Q2812.51 1540.95 2810.4 1541.48 Q2808.29 1542.01 2806.35 1543.08 L2806.35 1539.14 Q2808.69 1538.24 2810.89 1537.8 Q2813.09 1537.34 2815.17 1537.34 Q2820.79 1537.34 2823.57 1540.25 Q2826.35 1543.17 2826.35 1549.1 Z" fill="#000000" fill-rule="nonzero" fill-opacity="1" /><path clip-path="url(#clip860)" d="M2834.68 1553.66 L2834.68 1537.96 L2838.94 1537.96 L2838.94 1553.49 Q2838.94 1557.17 2840.38 1559.03 Q2841.81 1560.86 2844.68 1560.86 Q2848.13 1560.86 2850.12 1558.66 Q2852.14 1556.46 2852.14 1552.66 L2852.14 1537.96 L2856.4 1537.96 L2856.4 1563.89 L2852.14 1563.89 L2852.14 1559.91 Q2850.59 1562.27 2848.53 1563.42 Q2846.49 1564.56 2843.78 1564.56 Q2839.31 1564.56 2837 1561.78 Q2834.68 1559 2834.68 1553.66 M2845.4 1537.34 L2845.4 1537.34 Z" fill="#000000" fill-rule="nonzero" fill-opacity="1" /><path clip-path="url(#clip860)" d="M2869.38 1530.6 L2869.38 1537.96 L2878.15 1537.96 L2878.15 1541.27 L2869.38 1541.27 L2869.38 1555.35 Q2869.38 1558.52 2870.24 1559.42 Q2871.12 1560.32 2873.78 1560.32 L2878.15 1560.32 L2878.15 1563.89 L2873.78 1563.89 Q2868.85 1563.89 2866.97 1562.06 Q2865.1 1560.21 2865.1 1555.35 L2865.1 1541.27 L2861.97 1541.27 L2861.97 1537.96 L2865.1 1537.96 L2865.1 1530.6 L2869.38 1530.6 Z" fill="#000000" fill-rule="nonzero" fill-opacity="1" /><path clip-path="url(#clip860)" d="M2893.8 1540.95 Q2890.38 1540.95 2888.39 1543.63 Q2886.4 1546.3 2886.4 1550.95 Q2886.4 1555.6 2888.36 1558.29 Q2890.35 1560.95 2893.8 1560.95 Q2897.21 1560.95 2899.2 1558.26 Q2901.19 1555.58 2901.19 1550.95 Q2901.19 1546.34 2899.2 1543.66 Q2897.21 1540.95 2893.8 1540.95 M2893.8 1537.34 Q2899.36 1537.34 2902.53 1540.95 Q2905.7 1544.56 2905.7 1550.95 Q2905.7 1557.31 2902.53 1560.95 Q2899.36 1564.56 2893.8 1564.56 Q2888.22 1564.56 2885.05 1560.95 Q2881.9 1557.31 2881.9 1550.95 Q2881.9 1544.56 2885.05 1540.95 Q2888.22 1537.34 2893.8 1537.34 Z" fill="#000000" fill-rule="nonzero" fill-opacity="1" /><path clip-path="url(#clip860)" d="M2912.53 1558.01 L2917.41 1558.01 L2917.41 1563.89 L2912.53 1563.89 L2912.53 1558.01 Z" fill="#000000" fill-rule="nonzero" fill-opacity="1" /><path clip-path="url(#clip860)" d="M2959.13 1541.9 L2959.13 1527.87 L2963.39 1527.87 L2963.39 1563.89 L2959.13 1563.89 L2959.13 1560 Q2957.78 1562.31 2955.72 1563.45 Q2953.69 1564.56 2950.82 1564.56 Q2946.12 1564.56 2943.15 1560.81 Q2940.21 1557.06 2940.21 1550.95 Q2940.21 1544.84 2943.15 1541.09 Q2946.12 1537.34 2950.82 1537.34 Q2953.69 1537.34 2955.72 1538.47 Q2957.78 1539.58 2959.13 1541.9 M2944.61 1550.95 Q2944.61 1555.65 2946.53 1558.33 Q2948.48 1560.99 2951.86 1560.99 Q2955.24 1560.99 2957.18 1558.33 Q2959.13 1555.65 2959.13 1550.95 Q2959.13 1546.25 2957.18 1543.59 Q2955.24 1540.9 2951.86 1540.9 Q2948.48 1540.9 2946.53 1543.59 Q2944.61 1546.25 2944.61 1550.95 Z" fill="#000000" fill-rule="nonzero" fill-opacity="1" /><path clip-path="url(#clip860)" d="M2972.16 1537.96 L2976.42 1537.96 L2976.42 1563.89 L2972.16 1563.89 L2972.16 1537.96 M2972.16 1527.87 L2976.42 1527.87 L2976.42 1533.26 L2972.16 1533.26 L2972.16 1527.87 Z" fill="#000000" fill-rule="nonzero" fill-opacity="1" /><path clip-path="url(#clip860)" d="M2998.45 1527.87 L2998.45 1531.41 L2994.38 1531.41 Q2992.09 1531.41 2991.19 1532.34 Q2990.31 1533.26 2990.31 1535.67 L2990.31 1537.96 L2997.32 1537.96 L2997.32 1541.27 L2990.31 1541.27 L2990.31 1563.89 L2986.02 1563.89 L2986.02 1541.27 L2981.95 1541.27 L2981.95 1537.96 L2986.02 1537.96 L2986.02 1536.16 Q2986.02 1531.83 2988.04 1529.86 Q2990.05 1527.87 2994.43 1527.87 L2998.45 1527.87 Z" fill="#000000" fill-rule="nonzero" fill-opacity="1" /><path clip-path="url(#clip860)" d="M3015.14 1527.87 L3015.14 1531.41 L3011.07 1531.41 Q3008.78 1531.41 3007.88 1532.34 Q3007 1533.26 3007 1535.67 L3007 1537.96 L3014.01 1537.96 L3014.01 1541.27 L3007 1541.27 L3007 1563.89 L3002.71 1563.89 L3002.71 1541.27 L2998.64 1541.27 L2998.64 1537.96 L3002.71 1537.96 L3002.71 1536.16 Q3002.71 1531.83 3004.73 1529.86 Q3006.74 1527.87 3011.12 1527.87 L3015.14 1527.87 Z" fill="#000000" fill-rule="nonzero" fill-opacity="1" /><path clip-path="url(#clip860)" d="M3015.86 1558.01 L3020.75 1558.01 L3020.75 1563.89 L3015.86 1563.89 L3015.86 1558.01 Z" fill="#000000" fill-rule="nonzero" fill-opacity="1" /><path clip-path="url(#clip860)" d="M3029.66 1527.92 L3033.36 1527.92 Q3036.83 1533.38 3038.55 1538.61 Q3040.28 1543.84 3040.28 1549 Q3040.28 1554.19 3038.55 1559.44 Q3036.83 1564.7 3033.36 1570.14 L3029.66 1570.14 Q3032.74 1564.84 3034.24 1559.61 Q3035.77 1554.35 3035.77 1549 Q3035.77 1543.66 3034.24 1538.45 Q3032.74 1533.24 3029.66 1527.92 Z" fill="#000000" fill-rule="nonzero" fill-opacity="1" /><polyline clip-path="url(#clip860)" style="stroke:#000000; stroke-linecap:round; stroke-linejoin:round; stroke-width:4; stroke-opacity:1; fill:none" points="394.643,1495.09 394.643,47.2441 "/>
<polyline clip-path="url(#clip860)" style="stroke:#000000; stroke-linecap:round; stroke-linejoin:round; stroke-width:4; stroke-opacity:1; fill:none" points="394.643,1457.2 413.54,1457.2 "/>
<polyline clip-path="url(#clip860)" style="stroke:#000000; stroke-linecap:round; stroke-linejoin:round; stroke-width:4; stroke-opacity:1; fill:none" points="394.643,1206.82 413.54,1206.82 "/>
<polyline clip-path="url(#clip860)" style="stroke:#000000; stroke-linecap:round; stroke-linejoin:round; stroke-width:4; stroke-opacity:1; fill:none" points="394.643,956.433 413.54,956.433 "/>
<polyline clip-path="url(#clip860)" style="stroke:#000000; stroke-linecap:round; stroke-linejoin:round; stroke-width:4; stroke-opacity:1; fill:none" points="394.643,706.048 413.54,706.048 "/>
<polyline clip-path="url(#clip860)" style="stroke:#000000; stroke-linecap:round; stroke-linejoin:round; stroke-width:4; stroke-opacity:1; fill:none" points="394.643,455.663 413.54,455.663 "/>
<polyline clip-path="url(#clip860)" style="stroke:#000000; stroke-linecap:round; stroke-linejoin:round; stroke-width:4; stroke-opacity:1; fill:none" points="394.643,205.278 413.54,205.278 "/>
<path clip-path="url(#clip860)" d="M114.005 1462.3 Q117.362 1463.01 119.237 1465.28 Q121.135 1467.55 121.135 1470.88 Q121.135 1476 117.616 1478.8 Q114.098 1481.6 107.616 1481.6 Q105.44 1481.6 103.126 1481.16 Q100.834 1480.75 98.3802 1479.89 L98.3802 1475.37 Q100.325 1476.51 102.639 1477.09 Q104.954 1477.67 107.477 1477.67 Q111.875 1477.67 114.167 1475.93 Q116.482 1474.19 116.482 1470.88 Q116.482 1467.83 114.329 1466.12 Q112.2 1464.38 108.38 1464.38 L104.352 1464.38 L104.352 1460.54 L108.565 1460.54 Q112.014 1460.54 113.843 1459.17 Q115.672 1457.78 115.672 1455.19 Q115.672 1452.53 113.774 1451.12 Q111.899 1449.68 108.38 1449.68 Q106.459 1449.68 104.26 1450.1 Q102.061 1450.51 99.4218 1451.39 L99.4218 1447.23 Q102.084 1446.49 104.399 1446.12 Q106.737 1445.75 108.797 1445.75 Q114.121 1445.75 117.223 1448.18 Q120.324 1450.58 120.324 1454.7 Q120.324 1457.57 118.681 1459.56 Q117.037 1461.53 114.005 1462.3 Z" fill="#000000" fill-rule="nonzero" fill-opacity="1" /><path clip-path="url(#clip860)" d="M130 1475.05 L134.885 1475.05 L134.885 1480.93 L130 1480.93 L130 1475.05 Z" fill="#000000" fill-rule="nonzero" fill-opacity="1" /><path clip-path="url(#clip860)" d="M143.889 1446.37 L166.111 1446.37 L166.111 1448.36 L153.565 1480.93 L148.681 1480.93 L160.486 1450.31 L143.889 1450.31 L143.889 1446.37 Z" fill="#000000" fill-rule="nonzero" fill-opacity="1" /><path clip-path="url(#clip860)" d="M185.232 1449.45 Q181.62 1449.45 179.792 1453.01 Q177.986 1456.56 177.986 1463.68 Q177.986 1470.79 179.792 1474.36 Q181.62 1477.9 185.232 1477.9 Q188.866 1477.9 190.671 1474.36 Q192.5 1470.79 192.5 1463.68 Q192.5 1456.56 190.671 1453.01 Q188.866 1449.45 185.232 1449.45 M185.232 1445.75 Q191.042 1445.75 194.097 1450.35 Q197.176 1454.93 197.176 1463.68 Q197.176 1472.41 194.097 1477.02 Q191.042 1481.6 185.232 1481.6 Q179.421 1481.6 176.343 1477.02 Q173.287 1472.41 173.287 1463.68 Q173.287 1454.93 176.343 1450.35 Q179.421 1445.75 185.232 1445.75 Z" fill="#000000" fill-rule="nonzero" fill-opacity="1" /><path clip-path="url(#clip860)" d="M215.393 1449.45 Q211.782 1449.45 209.954 1453.01 Q208.148 1456.56 208.148 1463.68 Q208.148 1470.79 209.954 1474.36 Q211.782 1477.9 215.393 1477.9 Q219.028 1477.9 220.833 1474.36 Q222.662 1470.79 222.662 1463.68 Q222.662 1456.56 220.833 1453.01 Q219.028 1449.45 215.393 1449.45 M215.393 1445.75 Q221.204 1445.75 224.259 1450.35 Q227.338 1454.93 227.338 1463.68 Q227.338 1472.41 224.259 1477.02 Q221.204 1481.6 215.393 1481.6 Q209.583 1481.6 206.505 1477.02 Q203.449 1472.41 203.449 1463.68 Q203.449 1454.93 206.505 1450.35 Q209.583 1445.75 215.393 1445.75 Z" fill="#000000" fill-rule="nonzero" fill-opacity="1" /><path clip-path="url(#clip860)" d="M263.726 1455.47 L253.148 1466.09 L263.726 1476.67 L260.972 1479.47 L250.347 1468.85 L239.722 1479.47 L236.991 1476.67 L247.546 1466.09 L236.991 1455.47 L239.722 1452.67 L250.347 1463.29 L260.972 1452.67 L263.726 1455.47 Z" fill="#000000" fill-rule="nonzero" fill-opacity="1" /><path clip-path="url(#clip860)" d="M276.088 1477 L283.726 1477 L283.726 1450.63 L275.416 1452.3 L275.416 1448.04 L283.68 1446.37 L288.356 1446.37 L288.356 1477 L295.995 1477 L295.995 1480.93 L276.088 1480.93 L276.088 1477 Z" fill="#000000" fill-rule="nonzero" fill-opacity="1" /><path clip-path="url(#clip860)" d="M315.439 1449.45 Q311.828 1449.45 309.999 1453.01 Q308.194 1456.56 308.194 1463.68 Q308.194 1470.79 309.999 1474.36 Q311.828 1477.9 315.439 1477.9 Q319.073 1477.9 320.879 1474.36 Q322.708 1470.79 322.708 1463.68 Q322.708 1456.56 320.879 1453.01 Q319.073 1449.45 315.439 1449.45 M315.439 1445.75 Q321.249 1445.75 324.305 1450.35 Q327.384 1454.93 327.384 1463.68 Q327.384 1472.41 324.305 1477.02 Q321.249 1481.6 315.439 1481.6 Q309.629 1481.6 306.55 1477.02 Q303.495 1472.41 303.495 1463.68 Q303.495 1454.93 306.55 1450.35 Q309.629 1445.75 315.439 1445.75 Z" fill="#000000" fill-rule="nonzero" fill-opacity="1" /><path clip-path="url(#clip860)" d="M337.013 1440.19 Q334.305 1440.19 332.744 1441.63 Q331.202 1443.08 331.202 1445.62 Q331.202 1448.16 332.744 1449.61 Q334.305 1451.06 337.013 1451.06 Q339.721 1451.06 341.283 1449.61 Q342.844 1448.14 342.844 1445.62 Q342.844 1443.08 341.283 1441.63 Q339.74 1440.19 337.013 1440.19 M333.214 1438.57 Q330.769 1437.97 329.396 1436.29 Q328.042 1434.62 328.042 1432.21 Q328.042 1428.84 330.43 1426.89 Q332.838 1424.93 337.013 1424.93 Q341.207 1424.93 343.596 1426.89 Q345.984 1428.84 345.984 1432.21 Q345.984 1434.62 344.611 1436.29 Q343.257 1437.97 340.831 1438.57 Q343.577 1439.21 345.1 1441.07 Q346.643 1442.93 346.643 1445.62 Q346.643 1449.7 344.141 1451.88 Q341.659 1454.07 337.013 1454.07 Q332.368 1454.07 329.866 1451.88 Q327.384 1449.7 327.384 1445.62 Q327.384 1442.93 328.926 1441.07 Q330.468 1439.21 333.214 1438.57 M331.822 1432.57 Q331.822 1434.75 333.176 1435.97 Q334.549 1437.19 337.013 1437.19 Q339.458 1437.19 340.831 1435.97 Q342.223 1434.75 342.223 1432.57 Q342.223 1430.39 340.831 1429.16 Q339.458 1427.94 337.013 1427.94 Q334.549 1427.94 333.176 1429.16 Q331.822 1430.39 331.822 1432.57 Z" fill="#000000" fill-rule="nonzero" fill-opacity="1" /><path clip-path="url(#clip860)" d="M114.005 1211.91 Q117.362 1212.63 119.237 1214.9 Q121.135 1217.17 121.135 1220.5 Q121.135 1225.61 117.616 1228.42 Q114.098 1231.22 107.616 1231.22 Q105.44 1231.22 103.126 1230.78 Q100.834 1230.36 98.3802 1229.5 L98.3802 1224.99 Q100.325 1226.12 102.639 1226.7 Q104.954 1227.28 107.477 1227.28 Q111.875 1227.28 114.167 1225.55 Q116.482 1223.81 116.482 1220.5 Q116.482 1217.44 114.329 1215.73 Q112.2 1213.99 108.38 1213.99 L104.352 1213.99 L104.352 1210.15 L108.565 1210.15 Q112.014 1210.15 113.843 1208.79 Q115.672 1207.4 115.672 1204.8 Q115.672 1202.14 113.774 1200.73 Q111.899 1199.3 108.38 1199.3 Q106.459 1199.3 104.26 1199.71 Q102.061 1200.13 99.4218 1201.01 L99.4218 1196.84 Q102.084 1196.1 104.399 1195.73 Q106.737 1195.36 108.797 1195.36 Q114.121 1195.36 117.223 1197.79 Q120.324 1200.2 120.324 1204.32 Q120.324 1207.19 118.681 1209.18 Q117.037 1211.15 114.005 1211.91 Z" fill="#000000" fill-rule="nonzero" fill-opacity="1" /><path clip-path="url(#clip860)" d="M130 1224.67 L134.885 1224.67 L134.885 1230.55 L130 1230.55 L130 1224.67 Z" fill="#000000" fill-rule="nonzero" fill-opacity="1" /><path clip-path="url(#clip860)" d="M143.889 1195.99 L166.111 1195.99 L166.111 1197.98 L153.565 1230.55 L148.681 1230.55 L160.486 1199.92 L143.889 1199.92 L143.889 1195.99 Z" fill="#000000" fill-rule="nonzero" fill-opacity="1" /><path clip-path="url(#clip860)" d="M175.278 1195.99 L193.634 1195.99 L193.634 1199.92 L179.56 1199.92 L179.56 1208.39 Q180.579 1208.05 181.597 1207.88 Q182.616 1207.7 183.634 1207.7 Q189.421 1207.7 192.801 1210.87 Q196.181 1214.04 196.181 1219.46 Q196.181 1225.04 192.708 1228.14 Q189.236 1231.22 182.917 1231.22 Q180.741 1231.22 178.472 1230.85 Q176.227 1230.48 173.82 1229.74 L173.82 1225.04 Q175.903 1226.17 178.125 1226.73 Q180.347 1227.28 182.824 1227.28 Q186.829 1227.28 189.167 1225.17 Q191.505 1223.07 191.505 1219.46 Q191.505 1215.85 189.167 1213.74 Q186.829 1211.63 182.824 1211.63 Q180.949 1211.63 179.074 1212.05 Q177.222 1212.47 175.278 1213.35 L175.278 1195.99 Z" fill="#000000" fill-rule="nonzero" fill-opacity="1" /><path clip-path="url(#clip860)" d="M215.393 1199.06 Q211.782 1199.06 209.954 1202.63 Q208.148 1206.17 208.148 1213.3 Q208.148 1220.41 209.954 1223.97 Q211.782 1227.51 215.393 1227.51 Q219.028 1227.51 220.833 1223.97 Q222.662 1220.41 222.662 1213.3 Q222.662 1206.17 220.833 1202.63 Q219.028 1199.06 215.393 1199.06 M215.393 1195.36 Q221.204 1195.36 224.259 1199.97 Q227.338 1204.55 227.338 1213.3 Q227.338 1222.03 224.259 1226.63 Q221.204 1231.22 215.393 1231.22 Q209.583 1231.22 206.505 1226.63 Q203.449 1222.03 203.449 1213.3 Q203.449 1204.55 206.505 1199.97 Q209.583 1195.36 215.393 1195.36 Z" fill="#000000" fill-rule="nonzero" fill-opacity="1" /><path clip-path="url(#clip860)" d="M263.726 1205.08 L253.148 1215.71 L263.726 1226.29 L260.972 1229.09 L250.347 1218.46 L239.722 1229.09 L236.991 1226.29 L247.546 1215.71 L236.991 1205.08 L239.722 1202.28 L250.347 1212.91 L260.972 1202.28 L263.726 1205.08 Z" fill="#000000" fill-rule="nonzero" fill-opacity="1" /><path clip-path="url(#clip860)" d="M276.088 1226.61 L283.726 1226.61 L283.726 1200.24 L275.416 1201.91 L275.416 1197.65 L283.68 1195.99 L288.356 1195.99 L288.356 1226.61 L295.995 1226.61 L295.995 1230.55 L276.088 1230.55 L276.088 1226.61 Z" fill="#000000" fill-rule="nonzero" fill-opacity="1" /><path clip-path="url(#clip860)" d="M315.439 1199.06 Q311.828 1199.06 309.999 1202.63 Q308.194 1206.17 308.194 1213.3 Q308.194 1220.41 309.999 1223.97 Q311.828 1227.51 315.439 1227.51 Q319.073 1227.51 320.879 1223.97 Q322.708 1220.41 322.708 1213.3 Q322.708 1206.17 320.879 1202.63 Q319.073 1199.06 315.439 1199.06 M315.439 1195.36 Q321.249 1195.36 324.305 1199.97 Q327.384 1204.55 327.384 1213.3 Q327.384 1222.03 324.305 1226.63 Q321.249 1231.22 315.439 1231.22 Q309.629 1231.22 306.55 1226.63 Q303.495 1222.03 303.495 1213.3 Q303.495 1204.55 306.55 1199.97 Q309.629 1195.36 315.439 1195.36 Z" fill="#000000" fill-rule="nonzero" fill-opacity="1" /><path clip-path="url(#clip860)" d="M337.013 1189.8 Q334.305 1189.8 332.744 1191.25 Q331.202 1192.7 331.202 1195.24 Q331.202 1197.77 332.744 1199.22 Q334.305 1200.67 337.013 1200.67 Q339.721 1200.67 341.283 1199.22 Q342.844 1197.76 342.844 1195.24 Q342.844 1192.7 341.283 1191.25 Q339.74 1189.8 337.013 1189.8 M333.214 1188.18 Q330.769 1187.58 329.396 1185.91 Q328.042 1184.23 328.042 1181.83 Q328.042 1178.46 330.43 1176.5 Q332.838 1174.55 337.013 1174.55 Q341.207 1174.55 343.596 1176.5 Q345.984 1178.46 345.984 1181.83 Q345.984 1184.23 344.611 1185.91 Q343.257 1187.58 340.831 1188.18 Q343.577 1188.82 345.1 1190.68 Q346.643 1192.55 346.643 1195.24 Q346.643 1199.32 344.141 1201.5 Q341.659 1203.68 337.013 1203.68 Q332.368 1203.68 329.866 1201.5 Q327.384 1199.32 327.384 1195.24 Q327.384 1192.55 328.926 1190.68 Q330.468 1188.82 333.214 1188.18 M331.822 1182.18 Q331.822 1184.36 333.176 1185.59 Q334.549 1186.81 337.013 1186.81 Q339.458 1186.81 340.831 1185.59 Q342.223 1184.36 342.223 1182.18 Q342.223 1180 340.831 1178.78 Q339.458 1177.56 337.013 1177.56 Q334.549 1177.56 333.176 1178.78 Q331.822 1180 331.822 1182.18 Z" fill="#000000" fill-rule="nonzero" fill-opacity="1" /><path clip-path="url(#clip860)" d="M114.005 961.526 Q117.362 962.244 119.237 964.512 Q121.135 966.781 121.135 970.114 Q121.135 975.23 117.616 978.031 Q114.098 980.832 107.616 980.832 Q105.44 980.832 103.126 980.392 Q100.834 979.975 98.3802 979.119 L98.3802 974.605 Q100.325 975.739 102.639 976.318 Q104.954 976.897 107.477 976.897 Q111.875 976.897 114.167 975.16 Q116.482 973.424 116.482 970.114 Q116.482 967.059 114.329 965.346 Q112.2 963.61 108.38 963.61 L104.352 963.61 L104.352 959.767 L108.565 959.767 Q112.014 959.767 113.843 958.401 Q115.672 957.012 115.672 954.42 Q115.672 951.758 113.774 950.346 Q111.899 948.911 108.38 948.911 Q106.459 948.911 104.26 949.327 Q102.061 949.744 99.4218 950.623 L99.4218 946.457 Q102.084 945.716 104.399 945.346 Q106.737 944.975 108.797 944.975 Q114.121 944.975 117.223 947.406 Q120.324 949.813 120.324 953.934 Q120.324 956.804 118.681 958.795 Q117.037 960.762 114.005 961.526 Z" fill="#000000" fill-rule="nonzero" fill-opacity="1" /><path clip-path="url(#clip860)" d="M130 974.281 L134.885 974.281 L134.885 980.16 L130 980.16 L130 974.281 Z" fill="#000000" fill-rule="nonzero" fill-opacity="1" /><path clip-path="url(#clip860)" d="M155.07 963.748 Q151.736 963.748 149.815 965.531 Q147.917 967.313 147.917 970.438 Q147.917 973.563 149.815 975.346 Q151.736 977.128 155.07 977.128 Q158.403 977.128 160.324 975.346 Q162.246 973.54 162.246 970.438 Q162.246 967.313 160.324 965.531 Q158.426 963.748 155.07 963.748 M150.394 961.758 Q147.385 961.017 145.695 958.957 Q144.028 956.897 144.028 953.934 Q144.028 949.79 146.968 947.383 Q149.931 944.975 155.07 944.975 Q160.232 944.975 163.171 947.383 Q166.111 949.79 166.111 953.934 Q166.111 956.897 164.421 958.957 Q162.755 961.017 159.769 961.758 Q163.148 962.545 165.023 964.836 Q166.921 967.128 166.921 970.438 Q166.921 975.461 163.843 978.146 Q160.787 980.832 155.07 980.832 Q149.352 980.832 146.273 978.146 Q143.218 975.461 143.218 970.438 Q143.218 967.128 145.116 964.836 Q147.014 962.545 150.394 961.758 M148.681 954.373 Q148.681 957.059 150.347 958.563 Q152.037 960.068 155.07 960.068 Q158.079 960.068 159.769 958.563 Q161.482 957.059 161.482 954.373 Q161.482 951.688 159.769 950.184 Q158.079 948.679 155.07 948.679 Q152.037 948.679 150.347 950.184 Q148.681 951.688 148.681 954.373 Z" fill="#000000" fill-rule="nonzero" fill-opacity="1" /><path clip-path="url(#clip860)" d="M185.232 948.679 Q181.62 948.679 179.792 952.244 Q177.986 955.786 177.986 962.915 Q177.986 970.022 179.792 973.586 Q181.62 977.128 185.232 977.128 Q188.866 977.128 190.671 973.586 Q192.5 970.022 192.5 962.915 Q192.5 955.786 190.671 952.244 Q188.866 948.679 185.232 948.679 M185.232 944.975 Q191.042 944.975 194.097 949.582 Q197.176 954.165 197.176 962.915 Q197.176 971.642 194.097 976.248 Q191.042 980.832 185.232 980.832 Q179.421 980.832 176.343 976.248 Q173.287 971.642 173.287 962.915 Q173.287 954.165 176.343 949.582 Q179.421 944.975 185.232 944.975 Z" fill="#000000" fill-rule="nonzero" fill-opacity="1" /><path clip-path="url(#clip860)" d="M215.393 948.679 Q211.782 948.679 209.954 952.244 Q208.148 955.786 208.148 962.915 Q208.148 970.022 209.954 973.586 Q211.782 977.128 215.393 977.128 Q219.028 977.128 220.833 973.586 Q222.662 970.022 222.662 962.915 Q222.662 955.786 220.833 952.244 Q219.028 948.679 215.393 948.679 M215.393 944.975 Q221.204 944.975 224.259 949.582 Q227.338 954.165 227.338 962.915 Q227.338 971.642 224.259 976.248 Q221.204 980.832 215.393 980.832 Q209.583 980.832 206.505 976.248 Q203.449 971.642 203.449 962.915 Q203.449 954.165 206.505 949.582 Q209.583 944.975 215.393 944.975 Z" fill="#000000" fill-rule="nonzero" fill-opacity="1" /><path clip-path="url(#clip860)" d="M263.726 954.698 L253.148 965.322 L263.726 975.901 L260.972 978.702 L250.347 968.077 L239.722 978.702 L236.991 975.901 L247.546 965.322 L236.991 954.698 L239.722 951.897 L250.347 962.522 L260.972 951.897 L263.726 954.698 Z" fill="#000000" fill-rule="nonzero" fill-opacity="1" /><path clip-path="url(#clip860)" d="M276.088 976.225 L283.726 976.225 L283.726 949.86 L275.416 951.526 L275.416 947.267 L283.68 945.6 L288.356 945.6 L288.356 976.225 L295.995 976.225 L295.995 980.16 L276.088 980.16 L276.088 976.225 Z" fill="#000000" fill-rule="nonzero" fill-opacity="1" /><path clip-path="url(#clip860)" d="M315.439 948.679 Q311.828 948.679 309.999 952.244 Q308.194 955.786 308.194 962.915 Q308.194 970.022 309.999 973.586 Q311.828 977.128 315.439 977.128 Q319.073 977.128 320.879 973.586 Q322.708 970.022 322.708 962.915 Q322.708 955.786 320.879 952.244 Q319.073 948.679 315.439 948.679 M315.439 944.975 Q321.249 944.975 324.305 949.582 Q327.384 954.165 327.384 962.915 Q327.384 971.642 324.305 976.248 Q321.249 980.832 315.439 980.832 Q309.629 980.832 306.55 976.248 Q303.495 971.642 303.495 962.915 Q303.495 954.165 306.55 949.582 Q309.629 944.975 315.439 944.975 Z" fill="#000000" fill-rule="nonzero" fill-opacity="1" /><path clip-path="url(#clip860)" d="M337.013 939.415 Q334.305 939.415 332.744 940.863 Q331.202 942.312 331.202 944.851 Q331.202 947.39 332.744 948.838 Q334.305 950.286 337.013 950.286 Q339.721 950.286 341.283 948.838 Q342.844 947.371 342.844 944.851 Q342.844 942.312 341.283 940.863 Q339.74 939.415 337.013 939.415 M333.214 937.798 Q330.769 937.196 329.396 935.522 Q328.042 933.848 328.042 931.441 Q328.042 928.074 330.43 926.118 Q332.838 924.162 337.013 924.162 Q341.207 924.162 343.596 926.118 Q345.984 928.074 345.984 931.441 Q345.984 933.848 344.611 935.522 Q343.257 937.196 340.831 937.798 Q343.577 938.437 345.1 940.299 Q346.643 942.161 346.643 944.851 Q346.643 948.932 344.141 951.114 Q341.659 953.295 337.013 953.295 Q332.368 953.295 329.866 951.114 Q327.384 948.932 327.384 944.851 Q327.384 942.161 328.926 940.299 Q330.468 938.437 333.214 937.798 M331.822 931.798 Q331.822 933.98 333.176 935.202 Q334.549 936.425 337.013 936.425 Q339.458 936.425 340.831 935.202 Q342.223 933.98 342.223 931.798 Q342.223 929.616 340.831 928.394 Q339.458 927.171 337.013 927.171 Q334.549 927.171 333.176 928.394 Q331.822 929.616 331.822 931.798 Z" fill="#000000" fill-rule="nonzero" fill-opacity="1" /><path clip-path="url(#clip860)" d="M114.005 711.141 Q117.362 711.859 119.237 714.127 Q121.135 716.396 121.135 719.729 Q121.135 724.845 117.616 727.646 Q114.098 730.447 107.616 730.447 Q105.44 730.447 103.126 730.007 Q100.834 729.59 98.3802 728.734 L98.3802 724.22 Q100.325 725.354 102.639 725.933 Q104.954 726.512 107.477 726.512 Q111.875 726.512 114.167 724.775 Q116.482 723.039 116.482 719.729 Q116.482 716.674 114.329 714.961 Q112.2 713.225 108.38 713.225 L104.352 713.225 L104.352 709.382 L108.565 709.382 Q112.014 709.382 113.843 708.016 Q115.672 706.627 115.672 704.035 Q115.672 701.373 113.774 699.961 Q111.899 698.526 108.38 698.526 Q106.459 698.526 104.26 698.942 Q102.061 699.359 99.4218 700.239 L99.4218 696.072 Q102.084 695.331 104.399 694.961 Q106.737 694.59 108.797 694.59 Q114.121 694.59 117.223 697.021 Q120.324 699.428 120.324 703.549 Q120.324 706.419 118.681 708.41 Q117.037 710.377 114.005 711.141 Z" fill="#000000" fill-rule="nonzero" fill-opacity="1" /><path clip-path="url(#clip860)" d="M130 723.896 L134.885 723.896 L134.885 729.775 L130 729.775 L130 723.896 Z" fill="#000000" fill-rule="nonzero" fill-opacity="1" /><path clip-path="url(#clip860)" d="M155.07 713.363 Q151.736 713.363 149.815 715.146 Q147.917 716.928 147.917 720.053 Q147.917 723.178 149.815 724.961 Q151.736 726.743 155.07 726.743 Q158.403 726.743 160.324 724.961 Q162.246 723.155 162.246 720.053 Q162.246 716.928 160.324 715.146 Q158.426 713.363 155.07 713.363 M150.394 711.373 Q147.385 710.632 145.695 708.572 Q144.028 706.512 144.028 703.549 Q144.028 699.405 146.968 696.998 Q149.931 694.59 155.07 694.59 Q160.232 694.59 163.171 696.998 Q166.111 699.405 166.111 703.549 Q166.111 706.512 164.421 708.572 Q162.755 710.632 159.769 711.373 Q163.148 712.16 165.023 714.451 Q166.921 716.743 166.921 720.053 Q166.921 725.076 163.843 727.762 Q160.787 730.447 155.07 730.447 Q149.352 730.447 146.273 727.762 Q143.218 725.076 143.218 720.053 Q143.218 716.743 145.116 714.451 Q147.014 712.16 150.394 711.373 M148.681 703.989 Q148.681 706.674 150.347 708.178 Q152.037 709.683 155.07 709.683 Q158.079 709.683 159.769 708.178 Q161.482 706.674 161.482 703.989 Q161.482 701.303 159.769 699.799 Q158.079 698.294 155.07 698.294 Q152.037 698.294 150.347 699.799 Q148.681 701.303 148.681 703.989 Z" fill="#000000" fill-rule="nonzero" fill-opacity="1" /><path clip-path="url(#clip860)" d="M175.278 695.215 L193.634 695.215 L193.634 699.151 L179.56 699.151 L179.56 707.623 Q180.579 707.276 181.597 707.114 Q182.616 706.928 183.634 706.928 Q189.421 706.928 192.801 710.1 Q196.181 713.271 196.181 718.688 Q196.181 724.266 192.708 727.368 Q189.236 730.447 182.917 730.447 Q180.741 730.447 178.472 730.076 Q176.227 729.706 173.82 728.965 L173.82 724.266 Q175.903 725.4 178.125 725.956 Q180.347 726.512 182.824 726.512 Q186.829 726.512 189.167 724.405 Q191.505 722.299 191.505 718.688 Q191.505 715.076 189.167 712.97 Q186.829 710.864 182.824 710.864 Q180.949 710.864 179.074 711.28 Q177.222 711.697 175.278 712.576 L175.278 695.215 Z" fill="#000000" fill-rule="nonzero" fill-opacity="1" /><path clip-path="url(#clip860)" d="M215.393 698.294 Q211.782 698.294 209.954 701.859 Q208.148 705.401 208.148 712.53 Q208.148 719.637 209.954 723.201 Q211.782 726.743 215.393 726.743 Q219.028 726.743 220.833 723.201 Q222.662 719.637 222.662 712.53 Q222.662 705.401 220.833 701.859 Q219.028 698.294 215.393 698.294 M215.393 694.59 Q221.204 694.59 224.259 699.197 Q227.338 703.78 227.338 712.53 Q227.338 721.257 224.259 725.863 Q221.204 730.447 215.393 730.447 Q209.583 730.447 206.505 725.863 Q203.449 721.257 203.449 712.53 Q203.449 703.78 206.505 699.197 Q209.583 694.59 215.393 694.59 Z" fill="#000000" fill-rule="nonzero" fill-opacity="1" /><path clip-path="url(#clip860)" d="M263.726 704.313 L253.148 714.938 L263.726 725.516 L260.972 728.317 L250.347 717.692 L239.722 728.317 L236.991 725.516 L247.546 714.938 L236.991 704.313 L239.722 701.512 L250.347 712.137 L260.972 701.512 L263.726 704.313 Z" fill="#000000" fill-rule="nonzero" fill-opacity="1" /><path clip-path="url(#clip860)" d="M276.088 725.84 L283.726 725.84 L283.726 699.475 L275.416 701.141 L275.416 696.882 L283.68 695.215 L288.356 695.215 L288.356 725.84 L295.995 725.84 L295.995 729.775 L276.088 729.775 L276.088 725.84 Z" fill="#000000" fill-rule="nonzero" fill-opacity="1" /><path clip-path="url(#clip860)" d="M315.439 698.294 Q311.828 698.294 309.999 701.859 Q308.194 705.401 308.194 712.53 Q308.194 719.637 309.999 723.201 Q311.828 726.743 315.439 726.743 Q319.073 726.743 320.879 723.201 Q322.708 719.637 322.708 712.53 Q322.708 705.401 320.879 701.859 Q319.073 698.294 315.439 698.294 M315.439 694.59 Q321.249 694.59 324.305 699.197 Q327.384 703.78 327.384 712.53 Q327.384 721.257 324.305 725.863 Q321.249 730.447 315.439 730.447 Q309.629 730.447 306.55 725.863 Q303.495 721.257 303.495 712.53 Q303.495 703.78 306.55 699.197 Q309.629 694.59 315.439 694.59 Z" fill="#000000" fill-rule="nonzero" fill-opacity="1" /><path clip-path="url(#clip860)" d="M337.013 689.03 Q334.305 689.03 332.744 690.479 Q331.202 691.927 331.202 694.466 Q331.202 697.005 332.744 698.453 Q334.305 699.901 337.013 699.901 Q339.721 699.901 341.283 698.453 Q342.844 696.986 342.844 694.466 Q342.844 691.927 341.283 690.479 Q339.74 689.03 337.013 689.03 M333.214 687.413 Q330.769 686.811 329.396 685.137 Q328.042 683.463 328.042 681.056 Q328.042 677.689 330.43 675.733 Q332.838 673.777 337.013 673.777 Q341.207 673.777 343.596 675.733 Q345.984 677.689 345.984 681.056 Q345.984 683.463 344.611 685.137 Q343.257 686.811 340.831 687.413 Q343.577 688.052 345.1 689.914 Q346.643 691.776 346.643 694.466 Q346.643 698.547 344.141 700.729 Q341.659 702.91 337.013 702.91 Q332.368 702.91 329.866 700.729 Q327.384 698.547 327.384 694.466 Q327.384 691.776 328.926 689.914 Q330.468 688.052 333.214 687.413 M331.822 681.413 Q331.822 683.595 333.176 684.817 Q334.549 686.04 337.013 686.04 Q339.458 686.04 340.831 684.817 Q342.223 683.595 342.223 681.413 Q342.223 679.231 340.831 678.009 Q339.458 676.786 337.013 676.786 Q334.549 676.786 333.176 678.009 Q331.822 679.231 331.822 681.413 Z" fill="#000000" fill-rule="nonzero" fill-opacity="1" /><path clip-path="url(#clip860)" d="M114.005 460.756 Q117.362 461.474 119.237 463.742 Q121.135 466.011 121.135 469.344 Q121.135 474.46 117.616 477.261 Q114.098 480.062 107.616 480.062 Q105.44 480.062 103.126 479.622 Q100.834 479.205 98.3802 478.349 L98.3802 473.835 Q100.325 474.969 102.639 475.548 Q104.954 476.127 107.477 476.127 Q111.875 476.127 114.167 474.391 Q116.482 472.654 116.482 469.344 Q116.482 466.289 114.329 464.576 Q112.2 462.84 108.38 462.84 L104.352 462.84 L104.352 458.997 L108.565 458.997 Q112.014 458.997 113.843 457.631 Q115.672 456.242 115.672 453.65 Q115.672 450.988 113.774 449.576 Q111.899 448.141 108.38 448.141 Q106.459 448.141 104.26 448.557 Q102.061 448.974 99.4218 449.854 L99.4218 445.687 Q102.084 444.946 104.399 444.576 Q106.737 444.206 108.797 444.206 Q114.121 444.206 117.223 446.636 Q120.324 449.043 120.324 453.164 Q120.324 456.034 118.681 458.025 Q117.037 459.992 114.005 460.756 Z" fill="#000000" fill-rule="nonzero" fill-opacity="1" /><path clip-path="url(#clip860)" d="M130 473.511 L134.885 473.511 L134.885 479.391 L130 479.391 L130 473.511 Z" fill="#000000" fill-rule="nonzero" fill-opacity="1" /><path clip-path="url(#clip860)" d="M145.209 478.673 L145.209 474.414 Q146.968 475.247 148.773 475.687 Q150.579 476.127 152.315 476.127 Q156.945 476.127 159.375 473.025 Q161.829 469.9 162.176 463.557 Q160.834 465.548 158.773 466.613 Q156.713 467.678 154.213 467.678 Q149.028 467.678 145.996 464.553 Q142.986 461.405 142.986 455.965 Q142.986 450.641 146.135 447.423 Q149.283 444.206 154.514 444.206 Q160.509 444.206 163.658 448.812 Q166.829 453.395 166.829 462.145 Q166.829 470.316 162.94 475.201 Q159.074 480.062 152.523 480.062 Q150.764 480.062 148.959 479.715 Q147.153 479.367 145.209 478.673 M154.514 464.02 Q157.662 464.02 159.491 461.867 Q161.343 459.715 161.343 455.965 Q161.343 452.238 159.491 450.085 Q157.662 447.909 154.514 447.909 Q151.366 447.909 149.514 450.085 Q147.685 452.238 147.685 455.965 Q147.685 459.715 149.514 461.867 Q151.366 464.02 154.514 464.02 Z" fill="#000000" fill-rule="nonzero" fill-opacity="1" /><path clip-path="url(#clip860)" d="M185.232 447.909 Q181.62 447.909 179.792 451.474 Q177.986 455.016 177.986 462.145 Q177.986 469.252 179.792 472.816 Q181.62 476.358 185.232 476.358 Q188.866 476.358 190.671 472.816 Q192.5 469.252 192.5 462.145 Q192.5 455.016 190.671 451.474 Q188.866 447.909 185.232 447.909 M185.232 444.206 Q191.042 444.206 194.097 448.812 Q197.176 453.395 197.176 462.145 Q197.176 470.872 194.097 475.479 Q191.042 480.062 185.232 480.062 Q179.421 480.062 176.343 475.479 Q173.287 470.872 173.287 462.145 Q173.287 453.395 176.343 448.812 Q179.421 444.206 185.232 444.206 Z" fill="#000000" fill-rule="nonzero" fill-opacity="1" /><path clip-path="url(#clip860)" d="M215.393 447.909 Q211.782 447.909 209.954 451.474 Q208.148 455.016 208.148 462.145 Q208.148 469.252 209.954 472.816 Q211.782 476.358 215.393 476.358 Q219.028 476.358 220.833 472.816 Q222.662 469.252 222.662 462.145 Q222.662 455.016 220.833 451.474 Q219.028 447.909 215.393 447.909 M215.393 444.206 Q221.204 444.206 224.259 448.812 Q227.338 453.395 227.338 462.145 Q227.338 470.872 224.259 475.479 Q221.204 480.062 215.393 480.062 Q209.583 480.062 206.505 475.479 Q203.449 470.872 203.449 462.145 Q203.449 453.395 206.505 448.812 Q209.583 444.206 215.393 444.206 Z" fill="#000000" fill-rule="nonzero" fill-opacity="1" /><path clip-path="url(#clip860)" d="M263.726 453.928 L253.148 464.553 L263.726 475.131 L260.972 477.932 L250.347 467.307 L239.722 477.932 L236.991 475.131 L247.546 464.553 L236.991 453.928 L239.722 451.127 L250.347 461.752 L260.972 451.127 L263.726 453.928 Z" fill="#000000" fill-rule="nonzero" fill-opacity="1" /><path clip-path="url(#clip860)" d="M276.088 475.455 L283.726 475.455 L283.726 449.09 L275.416 450.756 L275.416 446.497 L283.68 444.831 L288.356 444.831 L288.356 475.455 L295.995 475.455 L295.995 479.391 L276.088 479.391 L276.088 475.455 Z" fill="#000000" fill-rule="nonzero" fill-opacity="1" /><path clip-path="url(#clip860)" d="M315.439 447.909 Q311.828 447.909 309.999 451.474 Q308.194 455.016 308.194 462.145 Q308.194 469.252 309.999 472.816 Q311.828 476.358 315.439 476.358 Q319.073 476.358 320.879 472.816 Q322.708 469.252 322.708 462.145 Q322.708 455.016 320.879 451.474 Q319.073 447.909 315.439 447.909 M315.439 444.206 Q321.249 444.206 324.305 448.812 Q327.384 453.395 327.384 462.145 Q327.384 470.872 324.305 475.479 Q321.249 480.062 315.439 480.062 Q309.629 480.062 306.55 475.479 Q303.495 470.872 303.495 462.145 Q303.495 453.395 306.55 448.812 Q309.629 444.206 315.439 444.206 Z" fill="#000000" fill-rule="nonzero" fill-opacity="1" /><path clip-path="url(#clip860)" d="M337.013 438.645 Q334.305 438.645 332.744 440.094 Q331.202 441.542 331.202 444.081 Q331.202 446.62 332.744 448.068 Q334.305 449.516 337.013 449.516 Q339.721 449.516 341.283 448.068 Q342.844 446.601 342.844 444.081 Q342.844 441.542 341.283 440.094 Q339.74 438.645 337.013 438.645 M333.214 437.028 Q330.769 436.426 329.396 434.752 Q328.042 433.078 328.042 430.671 Q328.042 427.304 330.43 425.348 Q332.838 423.392 337.013 423.392 Q341.207 423.392 343.596 425.348 Q345.984 427.304 345.984 430.671 Q345.984 433.078 344.611 434.752 Q343.257 436.426 340.831 437.028 Q343.577 437.667 345.1 439.529 Q346.643 441.391 346.643 444.081 Q346.643 448.162 344.141 450.344 Q341.659 452.526 337.013 452.526 Q332.368 452.526 329.866 450.344 Q327.384 448.162 327.384 444.081 Q327.384 441.391 328.926 439.529 Q330.468 437.667 333.214 437.028 M331.822 431.028 Q331.822 433.21 333.176 434.432 Q334.549 435.655 337.013 435.655 Q339.458 435.655 340.831 434.432 Q342.223 433.21 342.223 431.028 Q342.223 428.847 340.831 427.624 Q339.458 426.402 337.013 426.402 Q334.549 426.402 333.176 427.624 Q331.822 428.847 331.822 431.028 Z" fill="#000000" fill-rule="nonzero" fill-opacity="1" /><path clip-path="url(#clip860)" d="M114.005 210.371 Q117.362 211.089 119.237 213.358 Q121.135 215.626 121.135 218.959 Q121.135 224.075 117.616 226.876 Q114.098 229.677 107.616 229.677 Q105.44 229.677 103.126 229.237 Q100.834 228.82 98.3802 227.964 L98.3802 223.45 Q100.325 224.584 102.639 225.163 Q104.954 225.742 107.477 225.742 Q111.875 225.742 114.167 224.006 Q116.482 222.27 116.482 218.959 Q116.482 215.904 114.329 214.191 Q112.2 212.455 108.38 212.455 L104.352 212.455 L104.352 208.612 L108.565 208.612 Q112.014 208.612 113.843 207.246 Q115.672 205.858 115.672 203.265 Q115.672 200.603 113.774 199.191 Q111.899 197.756 108.38 197.756 Q106.459 197.756 104.26 198.172 Q102.061 198.589 99.4218 199.469 L99.4218 195.302 Q102.084 194.561 104.399 194.191 Q106.737 193.821 108.797 193.821 Q114.121 193.821 117.223 196.251 Q120.324 198.659 120.324 202.779 Q120.324 205.649 118.681 207.64 Q117.037 209.608 114.005 210.371 Z" fill="#000000" fill-rule="nonzero" fill-opacity="1" /><path clip-path="url(#clip860)" d="M130 223.126 L134.885 223.126 L134.885 229.006 L130 229.006 L130 223.126 Z" fill="#000000" fill-rule="nonzero" fill-opacity="1" /><path clip-path="url(#clip860)" d="M145.209 228.288 L145.209 224.029 Q146.968 224.862 148.773 225.302 Q150.579 225.742 152.315 225.742 Q156.945 225.742 159.375 222.64 Q161.829 219.515 162.176 213.172 Q160.834 215.163 158.773 216.228 Q156.713 217.293 154.213 217.293 Q149.028 217.293 145.996 214.168 Q142.986 211.02 142.986 205.58 Q142.986 200.256 146.135 197.038 Q149.283 193.821 154.514 193.821 Q160.509 193.821 163.658 198.427 Q166.829 203.01 166.829 211.76 Q166.829 219.932 162.94 224.816 Q159.074 229.677 152.523 229.677 Q150.764 229.677 148.959 229.33 Q147.153 228.982 145.209 228.288 M154.514 213.635 Q157.662 213.635 159.491 211.483 Q161.343 209.33 161.343 205.58 Q161.343 201.853 159.491 199.7 Q157.662 197.524 154.514 197.524 Q151.366 197.524 149.514 199.7 Q147.685 201.853 147.685 205.58 Q147.685 209.33 149.514 211.483 Q151.366 213.635 154.514 213.635 Z" fill="#000000" fill-rule="nonzero" fill-opacity="1" /><path clip-path="url(#clip860)" d="M175.278 194.446 L193.634 194.446 L193.634 198.381 L179.56 198.381 L179.56 206.853 Q180.579 206.506 181.597 206.344 Q182.616 206.158 183.634 206.158 Q189.421 206.158 192.801 209.33 Q196.181 212.501 196.181 217.918 Q196.181 223.496 192.708 226.598 Q189.236 229.677 182.917 229.677 Q180.741 229.677 178.472 229.307 Q176.227 228.936 173.82 228.195 L173.82 223.496 Q175.903 224.631 178.125 225.186 Q180.347 225.742 182.824 225.742 Q186.829 225.742 189.167 223.635 Q191.505 221.529 191.505 217.918 Q191.505 214.307 189.167 212.2 Q186.829 210.094 182.824 210.094 Q180.949 210.094 179.074 210.51 Q177.222 210.927 175.278 211.807 L175.278 194.446 Z" fill="#000000" fill-rule="nonzero" fill-opacity="1" /><path clip-path="url(#clip860)" d="M215.393 197.524 Q211.782 197.524 209.954 201.089 Q208.148 204.631 208.148 211.76 Q208.148 218.867 209.954 222.432 Q211.782 225.973 215.393 225.973 Q219.028 225.973 220.833 222.432 Q222.662 218.867 222.662 211.76 Q222.662 204.631 220.833 201.089 Q219.028 197.524 215.393 197.524 M215.393 193.821 Q221.204 193.821 224.259 198.427 Q227.338 203.01 227.338 211.76 Q227.338 220.487 224.259 225.094 Q221.204 229.677 215.393 229.677 Q209.583 229.677 206.505 225.094 Q203.449 220.487 203.449 211.76 Q203.449 203.01 206.505 198.427 Q209.583 193.821 215.393 193.821 Z" fill="#000000" fill-rule="nonzero" fill-opacity="1" /><path clip-path="url(#clip860)" d="M263.726 203.543 L253.148 214.168 L263.726 224.746 L260.972 227.547 L250.347 216.922 L239.722 227.547 L236.991 224.746 L247.546 214.168 L236.991 203.543 L239.722 200.742 L250.347 211.367 L260.972 200.742 L263.726 203.543 Z" fill="#000000" fill-rule="nonzero" fill-opacity="1" /><path clip-path="url(#clip860)" d="M276.088 225.07 L283.726 225.07 L283.726 198.705 L275.416 200.371 L275.416 196.112 L283.68 194.446 L288.356 194.446 L288.356 225.07 L295.995 225.07 L295.995 229.006 L276.088 229.006 L276.088 225.07 Z" fill="#000000" fill-rule="nonzero" fill-opacity="1" /><path clip-path="url(#clip860)" d="M315.439 197.524 Q311.828 197.524 309.999 201.089 Q308.194 204.631 308.194 211.76 Q308.194 218.867 309.999 222.432 Q311.828 225.973 315.439 225.973 Q319.073 225.973 320.879 222.432 Q322.708 218.867 322.708 211.76 Q322.708 204.631 320.879 201.089 Q319.073 197.524 315.439 197.524 M315.439 193.821 Q321.249 193.821 324.305 198.427 Q327.384 203.01 327.384 211.76 Q327.384 220.487 324.305 225.094 Q321.249 229.677 315.439 229.677 Q309.629 229.677 306.55 225.094 Q303.495 220.487 303.495 211.76 Q303.495 203.01 306.55 198.427 Q309.629 193.821 315.439 193.821 Z" fill="#000000" fill-rule="nonzero" fill-opacity="1" /><path clip-path="url(#clip860)" d="M337.013 188.26 Q334.305 188.26 332.744 189.709 Q331.202 191.157 331.202 193.696 Q331.202 196.235 332.744 197.683 Q334.305 199.131 337.013 199.131 Q339.721 199.131 341.283 197.683 Q342.844 196.216 342.844 193.696 Q342.844 191.157 341.283 189.709 Q339.74 188.26 337.013 188.26 M333.214 186.643 Q330.769 186.041 329.396 184.367 Q328.042 182.693 328.042 180.286 Q328.042 176.919 330.43 174.963 Q332.838 173.007 337.013 173.007 Q341.207 173.007 343.596 174.963 Q345.984 176.919 345.984 180.286 Q345.984 182.693 344.611 184.367 Q343.257 186.041 340.831 186.643 Q343.577 187.282 345.1 189.144 Q346.643 191.006 346.643 193.696 Q346.643 197.777 344.141 199.959 Q341.659 202.141 337.013 202.141 Q332.368 202.141 329.866 199.959 Q327.384 197.777 327.384 193.696 Q327.384 191.006 328.926 189.144 Q330.468 187.282 333.214 186.643 M331.822 180.643 Q331.822 182.825 333.176 184.048 Q334.549 185.27 337.013 185.27 Q339.458 185.27 340.831 184.048 Q342.223 182.825 342.223 180.643 Q342.223 178.462 340.831 177.239 Q339.458 176.017 337.013 176.017 Q334.549 176.017 333.176 177.239 Q331.822 178.462 331.822 180.643 Z" fill="#000000" fill-rule="nonzero" fill-opacity="1" /><path clip-path="url(#clip860)" d="M-9.64527 840.632 L0.4762 840.632 L0.4762 828.569 L5.02768 828.569 L5.02768 840.632 L24.3794 840.632 Q28.7399 840.632 29.9813 839.454 Q31.2226 838.245 31.2226 834.584 L31.2226 828.569 L36.1242 828.569 L36.1242 834.584 Q36.1242 841.364 33.6097 843.942 Q31.0634 846.52 24.3794 846.52 L5.02768 846.52 L5.02768 850.817 L0.4762 850.817 L0.4762 846.52 L-9.64527 846.52 L-9.64527 840.632 Z" fill="#000000" fill-rule="nonzero" fill-opacity="1" /><path clip-path="url(#clip860)" d="M-11.3958 789.738 L-11.3958 784.327 L42.1716 800.878 L42.1716 806.289 L-11.3958 789.738 Z" fill="#000000" fill-rule="nonzero" fill-opacity="1" /><path clip-path="url(#clip860)" d="M14.6081 727.831 L36.1242 727.831 L36.1242 733.688 L14.799 733.688 Q9.7383 733.688 7.22385 735.661 Q4.7094 737.635 4.7094 741.581 Q4.7094 746.324 7.73311 749.061 Q10.7568 751.798 15.9767 751.798 L36.1242 751.798 L36.1242 757.687 L0.4762 757.687 L0.4762 751.798 L6.01437 751.798 Q2.79968 749.698 1.20826 746.865 Q-0.38317 744 -0.38317 740.276 Q-0.38317 734.133 3.43625 730.982 Q7.22385 727.831 14.6081 727.831 Z" fill="#000000" fill-rule="nonzero" fill-opacity="1" /><path clip-path="url(#clip860)" d="M1.52654 693.425 L7.06471 693.425 Q5.79157 695.907 5.15499 698.581 Q4.51842 701.255 4.51842 704.119 Q4.51842 708.48 5.85522 710.676 Q7.19202 712.84 9.86562 712.84 Q11.9026 712.84 13.0803 711.281 Q14.2261 709.721 15.2765 705.01 L15.7221 703.005 Q17.0589 696.767 19.5097 694.157 Q21.9286 691.515 26.2891 691.515 Q31.2544 691.515 34.1508 695.462 Q37.0472 699.377 37.0472 706.252 Q37.0472 709.116 36.4743 712.235 Q35.9332 715.323 34.8192 718.76 L28.7718 718.76 Q30.4587 715.514 31.318 712.363 Q32.1456 709.212 32.1456 706.124 Q32.1456 701.987 30.7451 699.759 Q29.3129 697.531 26.7347 697.531 Q24.3476 697.531 23.0745 699.154 Q21.8013 700.745 20.6237 706.188 L20.1462 708.225 Q19.0004 713.668 16.6451 716.087 Q14.258 718.506 10.1202 718.506 Q5.09134 718.506 2.35408 714.941 Q-0.38317 711.376 -0.38317 704.819 Q-0.38317 701.573 0.0942579 698.708 Q0.571686 695.844 1.52654 693.425 Z" fill="#000000" fill-rule="nonzero" fill-opacity="1" /><path clip-path="url(#clip862)" d="M957.185 1373.19 L967.704 1368.2 L977.879 1363.21 L987.627 1358.22 L996.869 1353.23 L1005.53 1348.24 L1013.55 1343.25 L1020.87 1338.26 L1027.44 1333.27 L1033.23 1328.28 L1038.2 1323.29 L1042.34 1318.3 L1045.65 1313.31 L1048.14 1308.32 L1049.83 1303.33 L1050.74 1298.34 L1050.92 1293.35 L1050.42 1288.36 L1049.3 1283.37 L1047.63 1278.38 L1045.47 1273.4 L1042.89 1268.41 L1039.97 1263.42 L1036.8 1258.43 L1033.42 1253.44 L1029.92 1248.45 L1026.36 1243.46 L1022.78 1238.47 L1019.23 1233.48 L1015.75 1228.49 L1012.36 1223.5 L1009.07 1218.51 L1005.89 1213.52 L1002.81 1208.53 L999.816 1203.54 L996.873 1198.55 L993.952 1193.56 L991.012 1188.57 L988.008 1183.58 L984.892 1178.59 L981.615 1173.6 L978.128 1168.61 L974.383 1163.62 L970.337 1158.63 L965.954 1153.64 L961.201 1148.65 L956.057 1143.66 L950.507 1138.67 L944.548 1133.68 L938.186 1128.69 L931.437 1123.7 L924.326 1118.71 L916.889 1113.72 L909.171 1108.73 L901.222 1103.74 L893.1 1098.75 L884.867 1093.76 L876.588 1088.77 L868.33 1083.78 L860.158 1078.79 L852.137 1073.8 L844.328 1068.81 L836.785 1063.82 L829.561 1058.83 L822.697 1053.84 L816.231 1048.85 L810.192 1043.86 L804.601 1038.87 L799.471 1033.88 L794.811 1028.9 L790.622 1023.91 L786.899 1018.92 L783.634 1013.93 L780.814 1008.94 L778.424 1003.95 L776.446 998.956 L774.863 993.967 L773.656 988.977 L772.804 983.987 L772.291 978.997 L772.097 974.007 L772.205 969.018 L772.597 964.028 L773.257 959.038 L774.165 954.048 L775.305 949.058 L776.656 944.069 L778.198 939.079 L779.907 934.089 L781.759 929.099 L783.726 924.109 L785.778 919.12 L787.882 914.13 L790.003 909.14 L792.104 904.15 L794.15 899.16 L796.1 894.171 L797.919 889.181 L799.569 884.191 L801.018 879.201 L802.235 874.211 L803.195 869.222 L803.877 864.232 L804.266 859.242 L719.36 859.242 L719.749 864.232 L720.43 869.222 L721.39 874.211 L722.608 879.201 L724.057 884.191 L725.707 889.181 L727.526 894.171 L729.476 899.16 L731.521 904.15 L733.623 909.14 L735.744 914.13 L737.848 919.12 L739.899 924.109 L741.866 929.099 L743.718 934.089 L745.428 939.079 L746.97 944.069 L748.321 949.058 L749.461 954.048 L750.369 959.038 L751.028 964.028 L751.421 969.018 L751.529 974.007 L751.335 978.997 L750.821 983.987 L749.97 988.977 L748.763 993.967 L747.18 998.956 L745.202 1003.95 L742.812 1008.94 L739.992 1013.93 L736.727 1018.92 L733.004 1023.91 L728.815 1028.9 L724.155 1033.88 L719.025 1038.87 L713.434 1043.86 L707.394 1048.85 L700.929 1053.84 L694.065 1058.83 L686.84 1063.82 L679.298 1068.81 L671.489 1073.8 L663.468 1078.79 L655.296 1083.78 L647.038 1088.77 L638.759 1093.76 L630.526 1098.75 L622.404 1103.74 L614.455 1108.73 L606.737 1113.72 L599.3 1118.71 L592.189 1123.7 L585.44 1128.69 L579.077 1133.68 L573.118 1138.67 L567.569 1143.66 L562.425 1148.65 L557.672 1153.64 L553.289 1158.63 L549.243 1163.62 L545.498 1168.61 L542.01 1173.6 L538.733 1178.59 L535.618 1183.58 L532.614 1188.57 L529.674 1193.56 L526.753 1198.55 L523.81 1203.54 L520.811 1208.53 L517.731 1213.52 L514.551 1218.51 L511.265 1223.5 L507.875 1228.49 L504.394 1233.48 L500.847 1238.47 L497.268 1243.46 L493.703 1248.45 L490.203 1253.44 L486.83 1258.43 L483.651 1263.42 L480.736 1268.41 L478.16 1273.4 L475.997 1278.38 L474.321 1283.37 L473.201 1288.36 L472.703 1293.35 L472.885 1298.34 L473.798 1303.33 L475.483 1308.32 L477.971 1313.31 L481.283 1318.3 L485.427 1323.29 L490.398 1328.28 L496.182 1333.27 L502.753 1338.26 L510.072 1343.25 L518.093 1348.24 L526.756 1353.23 L535.999 1358.22 L545.747 1363.21 L555.922 1368.2 L566.441 1373.19 L957.185 1373.19  Z" fill="#009af9" fill-rule="evenodd" fill-opacity="1"/>
<polyline clip-path="url(#clip862)" style="stroke:#000000; stroke-linecap:round; stroke-linejoin:round; stroke-width:4; stroke-opacity:1; fill:none" points="957.185,1373.19 967.704,1368.2 977.879,1363.21 987.627,1358.22 996.869,1353.23 1005.53,1348.24 1013.55,1343.25 1020.87,1338.26 1027.44,1333.27 1033.23,1328.28 1038.2,1323.29 1042.34,1318.3 1045.65,1313.31 1048.14,1308.32 1049.83,1303.33 1050.74,1298.34 1050.92,1293.35 1050.42,1288.36 1049.3,1283.37 1047.63,1278.38 1045.47,1273.4 1042.89,1268.41 1039.97,1263.42 1036.8,1258.43 1033.42,1253.44 1029.92,1248.45 1026.36,1243.46 1022.78,1238.47 1019.23,1233.48 1015.75,1228.49 1012.36,1223.5 1009.07,1218.51 1005.89,1213.52 1002.81,1208.53 999.816,1203.54 996.873,1198.55 993.952,1193.56 991.012,1188.57 988.008,1183.58 984.892,1178.59 981.615,1173.6 978.128,1168.61 974.383,1163.62 970.337,1158.63 965.954,1153.64 961.201,1148.65 956.057,1143.66 950.507,1138.67 944.548,1133.68 938.186,1128.69 931.437,1123.7 924.326,1118.71 916.889,1113.72 909.171,1108.73 901.222,1103.74 893.1,1098.75 884.867,1093.76 876.588,1088.77 868.33,1083.78 860.158,1078.79 852.137,1073.8 844.328,1068.81 836.785,1063.82 829.561,1058.83 822.697,1053.84 816.231,1048.85 810.192,1043.86 804.601,1038.87 799.471,1033.88 794.811,1028.9 790.622,1023.91 786.899,1018.92 783.634,1013.93 780.814,1008.94 778.424,1003.95 776.446,998.956 774.863,993.967 773.656,988.977 772.804,983.987 772.291,978.997 772.097,974.007 772.205,969.018 772.597,964.028 773.257,959.038 774.165,954.048 775.305,949.058 776.656,944.069 778.198,939.079 779.907,934.089 781.759,929.099 783.726,924.109 785.778,919.12 787.882,914.13 790.003,909.14 792.104,904.15 794.15,899.16 796.1,894.171 797.919,889.181 799.569,884.191 801.018,879.201 802.235,874.211 803.195,869.222 803.877,864.232 804.266,859.242 719.36,859.242 719.749,864.232 720.43,869.222 721.39,874.211 722.608,879.201 724.057,884.191 725.707,889.181 727.526,894.171 729.476,899.16 731.521,904.15 733.623,909.14 735.744,914.13 737.848,919.12 739.899,924.109 741.866,929.099 743.718,934.089 745.428,939.079 746.97,944.069 748.321,949.058 749.461,954.048 750.369,959.038 751.028,964.028 751.421,969.018 751.529,974.007 751.335,978.997 750.821,983.987 749.97,988.977 748.763,993.967 747.18,998.956 745.202,1003.95 742.812,1008.94 739.992,1013.93 736.727,1018.92 733.004,1023.91 728.815,1028.9 724.155,1033.88 719.025,1038.87 713.434,1043.86 707.394,1048.85 700.929,1053.84 694.065,1058.83 686.84,1063.82 679.298,1068.81 671.489,1073.8 663.468,1078.79 655.296,1083.78 647.038,1088.77 638.759,1093.76 630.526,1098.75 622.404,1103.74 614.455,1108.73 606.737,1113.72 599.3,1118.71 592.189,1123.7 585.44,1128.69 579.077,1133.68 573.118,1138.67 567.569,1143.66 562.425,1148.65 557.672,1153.64 553.289,1158.63 549.243,1163.62 545.498,1168.61 542.01,1173.6 538.733,1178.59 535.618,1183.58 532.614,1188.57 529.674,1193.56 526.753,1198.55 523.81,1203.54 520.811,1208.53 517.731,1213.52 514.551,1218.51 511.265,1223.5 507.875,1228.49 504.394,1233.48 500.847,1238.47 497.268,1243.46 493.703,1248.45 490.203,1253.44 486.83,1258.43 483.651,1263.42 480.736,1268.41 478.16,1273.4 475.997,1278.38 474.321,1283.37 473.201,1288.36 472.703,1293.35 472.885,1298.34 473.798,1303.33 475.483,1308.32 477.971,1313.31 481.283,1318.3 485.427,1323.29 490.398,1328.28 496.182,1333.27 502.753,1338.26 510.072,1343.25 518.093,1348.24 526.756,1353.23 535.999,1358.22 545.747,1363.21 555.922,1368.2 566.441,1373.19 957.185,1373.19 "/>
<path clip-path="url(#clip862)" d="M1876.26 1454.11 L1880.66 1448.58 L1885.03 1443.04 L1889.39 1437.5 L1893.72 1431.97 L1898.06 1426.43 L1902.41 1420.9 L1906.78 1415.36 L1911.21 1409.83 L1915.69 1404.29 L1920.27 1398.75 L1924.94 1393.22 L1929.72 1387.68 L1934.64 1382.15 L1939.69 1376.61 L1944.88 1371.08 L1950.21 1365.54 L1955.69 1360 L1961.29 1354.47 L1967.01 1348.93 L1972.83 1343.4 L1978.73 1337.86 L1984.66 1332.33 L1990.62 1326.79 L1996.55 1321.25 L2002.43 1315.72 L2008.21 1310.18 L2013.87 1304.65 L2019.35 1299.11 L2024.62 1293.58 L2029.64 1288.04 L2034.39 1282.51 L2038.84 1276.97 L2042.94 1271.43 L2046.7 1265.9 L2050.07 1260.36 L2053.06 1254.83 L2055.65 1249.29 L2057.84 1243.76 L2059.62 1238.22 L2060.99 1232.68 L2061.98 1227.15 L2062.58 1221.61 L2062.81 1216.08 L2062.69 1210.54 L2062.23 1205.01 L2061.47 1199.47 L2060.42 1193.93 L2059.11 1188.4 L2057.58 1182.86 L2055.84 1177.33 L2053.92 1171.79 L2051.87 1166.26 L2049.7 1160.72 L2047.45 1155.18 L2045.15 1149.65 L2042.81 1144.11 L2040.46 1138.58 L2038.12 1133.04 L2035.8 1127.51 L2033.52 1121.97 L2031.28 1116.43 L2029.08 1110.9 L2026.92 1105.36 L2024.78 1099.83 L2022.66 1094.29 L2020.52 1088.76 L2018.36 1083.22 L2016.13 1077.69 L2013.81 1072.15 L2011.36 1066.61 L2008.75 1061.08 L2005.93 1055.54 L2002.89 1050.01 L1999.58 1044.47 L1995.98 1038.94 L1992.06 1033.4 L1987.8 1027.86 L1983.18 1022.33 L1978.21 1016.79 L1972.87 1011.26 L1967.18 1005.72 L1961.14 1000.19 L1954.78 994.65 L1948.11 989.114 L1941.18 983.579 L1934.02 978.043 L1926.66 972.507 L1620.74 972.507 L1613.38 978.043 L1606.22 983.579 L1599.28 989.114 L1592.62 994.65 L1586.26 1000.19 L1580.22 1005.72 L1574.53 1011.26 L1569.19 1016.79 L1564.22 1022.33 L1559.6 1027.86 L1555.34 1033.4 L1551.42 1038.94 L1547.82 1044.47 L1544.51 1050.01 L1541.46 1055.54 L1538.65 1061.08 L1536.04 1066.61 L1533.59 1072.15 L1531.27 1077.69 L1529.04 1083.22 L1526.87 1088.76 L1524.74 1094.29 L1522.62 1099.83 L1520.48 1105.36 L1518.32 1110.9 L1516.12 1116.43 L1513.88 1121.97 L1511.6 1127.51 L1509.28 1133.04 L1506.94 1138.58 L1504.59 1144.11 L1502.25 1149.65 L1499.95 1155.18 L1497.7 1160.72 L1495.53 1166.26 L1493.47 1171.79 L1491.56 1177.33 L1489.82 1182.86 L1488.29 1188.4 L1486.98 1193.93 L1485.93 1199.47 L1485.16 1205.01 L1484.71 1210.54 L1484.59 1216.08 L1484.82 1221.61 L1485.42 1227.15 L1486.4 1232.68 L1487.78 1238.22 L1489.56 1243.76 L1491.75 1249.29 L1494.34 1254.83 L1497.33 1260.36 L1500.7 1265.9 L1504.45 1271.43 L1508.56 1276.97 L1513 1282.51 L1517.75 1288.04 L1522.78 1293.58 L1528.05 1299.11 L1533.53 1304.65 L1539.18 1310.18 L1544.97 1315.72 L1550.85 1321.25 L1556.78 1326.79 L1562.73 1332.33 L1568.67 1337.86 L1574.57 1343.4 L1580.38 1348.93 L1586.11 1354.47 L1591.71 1360 L1597.19 1365.54 L1602.52 1371.08 L1607.71 1376.61 L1612.76 1382.15 L1617.68 1387.68 L1622.46 1393.22 L1627.13 1398.75 L1631.7 1404.29 L1636.19 1409.83 L1640.62 1415.36 L1644.99 1420.9 L1649.34 1426.43 L1653.68 1431.97 L1658.01 1437.5 L1662.36 1443.04 L1666.74 1448.58 L1671.14 1454.11 L1876.26 1454.11  Z" fill="#e26f46" fill-rule="evenodd" fill-opacity="1"/>
<polyline clip-path="url(#clip862)" style="stroke:#000000; stroke-linecap:round; stroke-linejoin:round; stroke-width:4; stroke-opacity:1; fill:none" points="1876.26,1454.11 1880.66,1448.58 1885.03,1443.04 1889.39,1437.5 1893.72,1431.97 1898.06,1426.43 1902.41,1420.9 1906.78,1415.36 1911.21,1409.83 1915.69,1404.29 1920.27,1398.75 1924.94,1393.22 1929.72,1387.68 1934.64,1382.15 1939.69,1376.61 1944.88,1371.08 1950.21,1365.54 1955.69,1360 1961.29,1354.47 1967.01,1348.93 1972.83,1343.4 1978.73,1337.86 1984.66,1332.33 1990.62,1326.79 1996.55,1321.25 2002.43,1315.72 2008.21,1310.18 2013.87,1304.65 2019.35,1299.11 2024.62,1293.58 2029.64,1288.04 2034.39,1282.51 2038.84,1276.97 2042.94,1271.43 2046.7,1265.9 2050.07,1260.36 2053.06,1254.83 2055.65,1249.29 2057.84,1243.76 2059.62,1238.22 2060.99,1232.68 2061.98,1227.15 2062.58,1221.61 2062.81,1216.08 2062.69,1210.54 2062.23,1205.01 2061.47,1199.47 2060.42,1193.93 2059.11,1188.4 2057.58,1182.86 2055.84,1177.33 2053.92,1171.79 2051.87,1166.26 2049.7,1160.72 2047.45,1155.18 2045.15,1149.65 2042.81,1144.11 2040.46,1138.58 2038.12,1133.04 2035.8,1127.51 2033.52,1121.97 2031.28,1116.43 2029.08,1110.9 2026.92,1105.36 2024.78,1099.83 2022.66,1094.29 2020.52,1088.76 2018.36,1083.22 2016.13,1077.69 2013.81,1072.15 2011.36,1066.61 2008.75,1061.08 2005.93,1055.54 2002.89,1050.01 1999.58,1044.47 1995.98,1038.94 1992.06,1033.4 1987.8,1027.86 1983.18,1022.33 1978.21,1016.79 1972.87,1011.26 1967.18,1005.72 1961.14,1000.19 1954.78,994.65 1948.11,989.114 1941.18,983.579 1934.02,978.043 1926.66,972.507 1620.74,972.507 1613.38,978.043 1606.22,983.579 1599.28,989.114 1592.62,994.65 1586.26,1000.19 1580.22,1005.72 1574.53,1011.26 1569.19,1016.79 1564.22,1022.33 1559.6,1027.86 1555.34,1033.4 1551.42,1038.94 1547.82,1044.47 1544.51,1050.01 1541.46,1055.54 1538.65,1061.08 1536.04,1066.61 1533.59,1072.15 1531.27,1077.69 1529.04,1083.22 1526.87,1088.76 1524.74,1094.29 1522.62,1099.83 1520.48,1105.36 1518.32,1110.9 1516.12,1116.43 1513.88,1121.97 1511.6,1127.51 1509.28,1133.04 1506.94,1138.58 1504.59,1144.11 1502.25,1149.65 1499.95,1155.18 1497.7,1160.72 1495.53,1166.26 1493.47,1171.79 1491.56,1177.33 1489.82,1182.86 1488.29,1188.4 1486.98,1193.93 1485.93,1199.47 1485.16,1205.01 1484.71,1210.54 1484.59,1216.08 1484.82,1221.61 1485.42,1227.15 1486.4,1232.68 1487.78,1238.22 1489.56,1243.76 1491.75,1249.29 1494.34,1254.83 1497.33,1260.36 1500.7,1265.9 1504.45,1271.43 1508.56,1276.97 1513,1282.51 1517.75,1288.04 1522.78,1293.58 1528.05,1299.11 1533.53,1304.65 1539.18,1310.18 1544.97,1315.72 1550.85,1321.25 1556.78,1326.79 1562.73,1332.33 1568.67,1337.86 1574.57,1343.4 1580.38,1348.93 1586.11,1354.47 1591.71,1360 1597.19,1365.54 1602.52,1371.08 1607.71,1376.61 1612.76,1382.15 1617.68,1387.68 1622.46,1393.22 1627.13,1398.75 1631.7,1404.29 1636.19,1409.83 1640.62,1415.36 1644.99,1420.9 1649.34,1426.43 1653.68,1431.97 1658.01,1437.5 1662.36,1443.04 1666.74,1448.58 1671.14,1454.11 1876.26,1454.11 "/>
<path clip-path="url(#clip862)" d="M2905.65 392.473 L2908.82 389.629 L2911.36 386.786 L2913.22 383.943 L2914.4 381.099 L2914.88 378.256 L2914.67 375.412 L2913.8 372.569 L2912.27 369.725 L2910.13 366.882 L2907.42 364.038 L2904.19 361.195 L2900.48 358.351 L2896.36 355.508 L2891.87 352.664 L2887.08 349.821 L2882.05 346.977 L2876.83 344.134 L2871.49 341.29 L2866.07 338.447 L2860.63 335.603 L2855.22 332.76 L2849.89 329.916 L2844.69 327.073 L2839.66 324.229 L2834.83 321.386 L2830.24 318.543 L2825.94 315.699 L2821.93 312.856 L2818.27 310.012 L2814.96 307.169 L2812.04 304.325 L2809.53 301.482 L2807.45 298.638 L2805.82 295.795 L2804.66 292.951 L2804 290.108 L2803.87 287.264 L2804.28 284.421 L2805.27 281.577 L2806.87 278.734 L2809.1 275.89 L2811.99 273.047 L2815.58 270.203 L2819.88 267.36 L2824.93 264.516 L2830.74 261.673 L2837.32 258.829 L2844.66 255.986 L2852.77 253.143 L2861.63 250.299 L2871.18 247.456 L2881.4 244.612 L2892.22 241.769 L2903.55 238.925 L2915.3 236.082 L2927.38 233.238 L2939.67 230.395 L2952.04 227.551 L2964.37 224.708 L2976.51 221.864 L2988.35 219.021 L2999.75 216.177 L3010.59 213.334 L3020.77 210.49 L3030.19 207.647 L3038.77 204.803 L3046.45 201.96 L3053.2 199.116 L3058.99 196.273 L3063.82 193.429 L3067.7 190.586 L3070.68 187.743 L3072.8 184.899 L3074.11 182.056 L3074.7 179.212 L3074.62 176.369 L3073.96 173.525 L3072.79 170.682 L3071.18 167.838 L3069.19 164.995 L3066.89 162.151 L3064.33 159.308 L3061.53 156.464 L3058.52 153.621 L3055.34 150.777 L3051.98 147.934 L3048.44 145.09 L3044.72 142.247 L3040.81 139.403 L3036.69 136.56 L3032.34 133.716 L3027.75 130.873 L3022.89 128.029 L3017.76 125.186 L3012.33 122.343 L3006.6 119.499 L3000.55 116.656 L2994.2 113.812 L2987.54 110.969 L2980.59 108.125 L2973.35 105.282 L2965.84 102.438 L2958.1 99.5947 L2950.15 96.7512 L2942.02 93.9078 L2933.75 91.0643 L2925.39 88.2208 L2645.78 88.2208 L2637.42 91.0643 L2629.15 93.9078 L2621.02 96.7512 L2613.07 99.5947 L2605.33 102.438 L2597.82 105.282 L2590.58 108.125 L2583.63 110.969 L2576.97 113.812 L2570.62 116.656 L2564.57 119.499 L2558.84 122.343 L2553.41 125.186 L2548.28 128.029 L2543.42 130.873 L2538.83 133.716 L2534.48 136.56 L2530.36 139.403 L2526.45 142.247 L2522.73 145.09 L2519.2 147.934 L2515.83 150.777 L2512.65 153.621 L2509.64 156.464 L2506.85 159.308 L2504.28 162.151 L2501.98 164.995 L2499.99 167.838 L2498.38 170.682 L2497.21 173.525 L2496.55 176.369 L2496.48 179.212 L2497.06 182.056 L2498.37 184.899 L2500.49 187.743 L2503.47 190.586 L2507.36 193.429 L2512.19 196.273 L2517.97 199.116 L2524.72 201.96 L2532.4 204.803 L2540.98 207.647 L2550.4 210.49 L2560.58 213.334 L2571.42 216.177 L2582.82 219.021 L2594.66 221.864 L2606.8 224.708 L2619.13 227.551 L2631.5 230.395 L2643.79 233.238 L2655.87 236.082 L2667.62 238.925 L2678.96 241.769 L2689.77 244.612 L2699.99 247.456 L2709.55 250.299 L2718.4 253.143 L2726.51 255.986 L2733.86 258.829 L2740.43 261.673 L2746.24 264.516 L2751.29 267.36 L2755.59 270.203 L2759.18 273.047 L2762.07 275.89 L2764.3 278.734 L2765.9 281.577 L2766.89 284.421 L2767.3 287.264 L2767.17 290.108 L2766.51 292.951 L2765.35 295.795 L2763.72 298.638 L2761.64 301.482 L2759.13 304.325 L2756.21 307.169 L2752.9 310.012 L2749.24 312.856 L2745.24 315.699 L2740.93 318.543 L2736.34 321.386 L2731.51 324.229 L2726.48 327.073 L2721.28 329.916 L2715.95 332.76 L2710.54 335.603 L2705.1 338.447 L2699.68 341.29 L2694.34 344.134 L2689.12 346.977 L2684.09 349.821 L2679.3 352.664 L2674.82 355.508 L2670.69 358.351 L2666.98 361.195 L2663.75 364.038 L2661.04 366.882 L2658.9 369.725 L2657.38 372.569 L2656.5 375.412 L2656.29 378.256 L2656.77 381.099 L2657.95 383.943 L2659.81 386.786 L2662.35 389.629 L2665.52 392.473 L2905.65 392.473  Z" fill="#3da44d" fill-rule="evenodd" fill-opacity="1"/>
<polyline clip-path="url(#clip862)" style="stroke:#000000; stroke-linecap:round; stroke-linejoin:round; stroke-width:4; stroke-opacity:1; fill:none" points="2905.65,392.473 2908.82,389.629 2911.36,386.786 2913.22,383.943 2914.4,381.099 2914.88,378.256 2914.67,375.412 2913.8,372.569 2912.27,369.725 2910.13,366.882 2907.42,364.038 2904.19,361.195 2900.48,358.351 2896.36,355.508 2891.87,352.664 2887.08,349.821 2882.05,346.977 2876.83,344.134 2871.49,341.29 2866.07,338.447 2860.63,335.603 2855.22,332.76 2849.89,329.916 2844.69,327.073 2839.66,324.229 2834.83,321.386 2830.24,318.543 2825.94,315.699 2821.93,312.856 2818.27,310.012 2814.96,307.169 2812.04,304.325 2809.53,301.482 2807.45,298.638 2805.82,295.795 2804.66,292.951 2804,290.108 2803.87,287.264 2804.28,284.421 2805.27,281.577 2806.87,278.734 2809.1,275.89 2811.99,273.047 2815.58,270.203 2819.88,267.36 2824.93,264.516 2830.74,261.673 2837.32,258.829 2844.66,255.986 2852.77,253.143 2861.63,250.299 2871.18,247.456 2881.4,244.612 2892.22,241.769 2903.55,238.925 2915.3,236.082 2927.38,233.238 2939.67,230.395 2952.04,227.551 2964.37,224.708 2976.51,221.864 2988.35,219.021 2999.75,216.177 3010.59,213.334 3020.77,210.49 3030.19,207.647 3038.77,204.803 3046.45,201.96 3053.2,199.116 3058.99,196.273 3063.82,193.429 3067.7,190.586 3070.68,187.743 3072.8,184.899 3074.11,182.056 3074.7,179.212 3074.62,176.369 3073.96,173.525 3072.79,170.682 3071.18,167.838 3069.19,164.995 3066.89,162.151 3064.33,159.308 3061.53,156.464 3058.52,153.621 3055.34,150.777 3051.98,147.934 3048.44,145.09 3044.72,142.247 3040.81,139.403 3036.69,136.56 3032.34,133.716 3027.75,130.873 3022.89,128.029 3017.76,125.186 3012.33,122.343 3006.6,119.499 3000.55,116.656 2994.2,113.812 2987.54,110.969 2980.59,108.125 2973.35,105.282 2965.84,102.438 2958.1,99.5947 2950.15,96.7512 2942.02,93.9078 2933.75,91.0643 2925.39,88.2208 2645.78,88.2208 2637.42,91.0643 2629.15,93.9078 2621.02,96.7512 2613.07,99.5947 2605.33,102.438 2597.82,105.282 2590.58,108.125 2583.63,110.969 2576.97,113.812 2570.62,116.656 2564.57,119.499 2558.84,122.343 2553.41,125.186 2548.28,128.029 2543.42,130.873 2538.83,133.716 2534.48,136.56 2530.36,139.403 2526.45,142.247 2522.73,145.09 2519.2,147.934 2515.83,150.777 2512.65,153.621 2509.64,156.464 2506.85,159.308 2504.28,162.151 2501.98,164.995 2499.99,167.838 2498.38,170.682 2497.21,173.525 2496.55,176.369 2496.48,179.212 2497.06,182.056 2498.37,184.899 2500.49,187.743 2503.47,190.586 2507.36,193.429 2512.19,196.273 2517.97,199.116 2524.72,201.96 2532.4,204.803 2540.98,207.647 2550.4,210.49 2560.58,213.334 2571.42,216.177 2582.82,219.021 2594.66,221.864 2606.8,224.708 2619.13,227.551 2631.5,230.395 2643.79,233.238 2655.87,236.082 2667.62,238.925 2678.96,241.769 2689.77,244.612 2699.99,247.456 2709.55,250.299 2718.4,253.143 2726.51,255.986 2733.86,258.829 2740.43,261.673 2746.24,264.516 2751.29,267.36 2755.59,270.203 2759.18,273.047 2762.07,275.89 2764.3,278.734 2765.9,281.577 2766.89,284.421 2767.3,287.264 2767.17,290.108 2766.51,292.951 2765.35,295.795 2763.72,298.638 2761.64,301.482 2759.13,304.325 2756.21,307.169 2752.9,310.012 2749.24,312.856 2745.24,315.699 2740.93,318.543 2736.34,321.386 2731.51,324.229 2726.48,327.073 2721.28,329.916 2715.95,332.76 2710.54,335.603 2705.1,338.447 2699.68,341.29 2694.34,344.134 2689.12,346.977 2684.09,349.821 2679.3,352.664 2674.82,355.508 2670.69,358.351 2666.98,361.195 2663.75,364.038 2661.04,366.882 2658.9,369.725 2657.38,372.569 2656.5,375.412 2656.29,378.256 2656.77,381.099 2657.95,383.943 2659.81,386.786 2662.35,389.629 2665.52,392.473 2905.65,392.473 "/>
</svg>
