<?xml version="1.0" encoding="utf-8"?>
<svg xmlns="http://www.w3.org/2000/svg" xmlns:xlink="http://www.w3.org/1999/xlink" width="800" height="400" viewBox="0 0 3200 1600">
<defs>
  <clipPath id="clip060">
    <rect x="0" y="0" width="3200" height="1600"/>
  </clipPath>
</defs>
<path clip-path="url(#clip060)" d="M0 1600 L3200 1600 L3200 0 L0 0  Z" fill="#ffffff" fill-rule="evenodd" fill-opacity="1"/>
<defs>
  <clipPath id="clip061">
    <rect x="364" y="47" width="2789" height="1449"/>
  </clipPath>
</defs>
<path clip-path="url(#clip060)" d="M364.733 1495.09 L3152.76 1495.09 L3152.76 47.2441 L364.733 47.2441  Z" fill="#ffffff" fill-rule="evenodd" fill-opacity="1"/>
<polyline clip-path="url(#clip061)" style="stroke:#000000; stroke-linecap:round; stroke-linejoin:round; stroke-width:2; stroke-opacity:0.1; fill:none" points="735.885,1495.09 735.885,47.2441 "/>
<polyline clip-path="url(#clip061)" style="stroke:#000000; stroke-linecap:round; stroke-linejoin:round; stroke-width:2; stroke-opacity:0.1; fill:none" points="1758.74,1495.09 1758.74,47.2441 "/>
<polyline clip-path="url(#clip061)" style="stroke:#000000; stroke-linecap:round; stroke-linejoin:round; stroke-width:2; stroke-opacity:0.1; fill:none" points="2781.6,1495.09 2781.6,47.2441 "/>
<polyline clip-path="url(#clip061)" style="stroke:#000000; stroke-linecap:round; stroke-linejoin:round; stroke-width:2; stroke-opacity:0.1; fill:none" points="364.733,1392.52 3152.76,1392.52 "/>
<polyline clip-path="url(#clip061)" style="stroke:#000000; stroke-linecap:round; stroke-linejoin:round; stroke-width:2; stroke-opacity:0.1; fill:none" points="364.733,1143.55 3152.76,1143.55 "/>
<polyline clip-path="url(#clip061)" style="stroke:#000000; stroke-linecap:round; stroke-linejoin:round; stroke-width:2; stroke-opacity:0.1; fill:none" points="364.733,894.581 3152.76,894.581 "/>
<polyline clip-path="url(#clip061)" style="stroke:#000000; stroke-linecap:round; stroke-linejoin:round; stroke-width:2; stroke-opacity:0.1; fill:none" points="364.733,645.612 3152.76,645.612 "/>
<polyline clip-path="url(#clip061)" style="stroke:#000000; stroke-linecap:round; stroke-linejoin:round; stroke-width:2; stroke-opacity:0.1; fill:none" points="364.733,396.643 3152.76,396.643 "/>
<polyline clip-path="url(#clip061)" style="stroke:#000000; stroke-linecap:round; stroke-linejoin:round; stroke-width:2; stroke-opacity:0.1; fill:none" points="364.733,147.675 3152.76,147.675 "/>
<polyline clip-path="url(#clip060)" style="stroke:#000000; stroke-linecap:round; stroke-linejoin:round; stroke-width:4; stroke-opacity:1; fill:none" points="364.733,1495.09 3152.76,1495.09 "/>
<polyline clip-path="url(#clip060)" style="stroke:#000000; stroke-linecap:round; stroke-linejoin:round; stroke-width:4; stroke-opacity:1; fill:none" points="735.885,1495.09 735.885,1476.19 "/>
<polyline clip-path="url(#clip060)" style="stroke:#000000; stroke-linecap:round; stroke-linejoin:round; stroke-width:4; stroke-opacity:1; fill:none" points="1758.74,1495.09 1758.74,1476.19 "/>
<polyline clip-path="url(#clip060)" style="stroke:#000000; stroke-linecap:round; stroke-linejoin:round; stroke-width:4; stroke-opacity:1; fill:none" points="2781.6,1495.09 2781.6,1476.19 "/>
<path clip-path="url(#clip060)" d="M651.846 1538.73 L651.846 1542.75 Q650.04 1541.83 648.096 1541.36 Q646.151 1540.9 644.068 1540.9 Q640.897 1540.9 639.299 1541.87 Q637.725 1542.85 637.725 1544.79 Q637.725 1546.27 638.86 1547.13 Q639.994 1547.96 643.42 1548.73 L644.878 1549.05 Q649.415 1550.02 651.313 1551.8 Q653.235 1553.56 653.235 1556.74 Q653.235 1560.35 650.364 1562.45 Q647.517 1564.56 642.517 1564.56 Q640.434 1564.56 638.165 1564.14 Q635.92 1563.75 633.42 1562.94 L633.42 1558.54 Q635.781 1559.77 638.073 1560.39 Q640.364 1560.99 642.61 1560.99 Q645.619 1560.99 647.239 1559.98 Q648.86 1558.93 648.86 1557.06 Q648.86 1555.32 647.679 1554.4 Q646.522 1553.47 642.563 1552.61 L641.082 1552.27 Q637.123 1551.43 635.364 1549.72 Q633.605 1547.99 633.605 1544.98 Q633.605 1541.32 636.198 1539.33 Q638.79 1537.34 643.559 1537.34 Q645.92 1537.34 648.003 1537.68 Q650.086 1538.03 651.846 1538.73 Z" fill="#000000" fill-rule="nonzero" fill-opacity="1" /><path clip-path="url(#clip060)" d="M670.804 1566.3 Q668.998 1570.92 667.285 1572.34 Q665.572 1573.75 662.702 1573.75 L659.299 1573.75 L659.299 1570.18 L661.799 1570.18 Q663.559 1570.18 664.531 1569.35 Q665.503 1568.52 666.684 1565.42 L667.447 1563.47 L656.961 1537.96 L661.475 1537.96 L669.577 1558.24 L677.679 1537.96 L682.193 1537.96 L670.804 1566.3 Z" fill="#000000" fill-rule="nonzero" fill-opacity="1" /><path clip-path="url(#clip060)" d="M708.257 1542.94 Q709.855 1540.07 712.077 1538.7 Q714.299 1537.34 717.308 1537.34 Q721.359 1537.34 723.558 1540.18 Q725.757 1543.01 725.757 1548.24 L725.757 1563.89 L721.475 1563.89 L721.475 1548.38 Q721.475 1544.65 720.155 1542.85 Q718.836 1541.04 716.128 1541.04 Q712.818 1541.04 710.896 1543.24 Q708.975 1545.44 708.975 1549.24 L708.975 1563.89 L704.693 1563.89 L704.693 1548.38 Q704.693 1544.63 703.373 1542.85 Q702.054 1541.04 699.299 1541.04 Q696.035 1541.04 694.114 1543.26 Q692.193 1545.46 692.193 1549.24 L692.193 1563.89 L687.91 1563.89 L687.91 1537.96 L692.193 1537.96 L692.193 1541.99 Q693.651 1539.61 695.688 1538.47 Q697.725 1537.34 700.526 1537.34 Q703.35 1537.34 705.318 1538.77 Q707.308 1540.21 708.257 1542.94 Z" fill="#000000" fill-rule="nonzero" fill-opacity="1" /><path clip-path="url(#clip060)" d="M752.864 1550.95 Q752.864 1546.25 750.919 1543.59 Q748.998 1540.9 745.618 1540.9 Q742.239 1540.9 740.294 1543.59 Q738.373 1546.25 738.373 1550.95 Q738.373 1555.65 740.294 1558.33 Q742.239 1560.99 745.618 1560.99 Q748.998 1560.99 750.919 1558.33 Q752.864 1555.65 752.864 1550.95 M738.373 1541.9 Q739.716 1539.58 741.753 1538.47 Q743.813 1537.34 746.66 1537.34 Q751.382 1537.34 754.322 1541.09 Q757.285 1544.84 757.285 1550.95 Q757.285 1557.06 754.322 1560.81 Q751.382 1564.56 746.66 1564.56 Q743.813 1564.56 741.753 1563.45 Q739.716 1562.31 738.373 1560 L738.373 1563.89 L734.091 1563.89 L734.091 1527.87 L738.373 1527.87 L738.373 1541.9 Z" fill="#000000" fill-rule="nonzero" fill-opacity="1" /><path clip-path="url(#clip060)" d="M774.391 1540.95 Q770.965 1540.95 768.975 1543.63 Q766.984 1546.3 766.984 1550.95 Q766.984 1555.6 768.951 1558.29 Q770.942 1560.95 774.391 1560.95 Q777.794 1560.95 779.785 1558.26 Q781.775 1555.58 781.775 1550.95 Q781.775 1546.34 779.785 1543.66 Q777.794 1540.95 774.391 1540.95 M774.391 1537.34 Q779.947 1537.34 783.118 1540.95 Q786.289 1544.56 786.289 1550.95 Q786.289 1557.31 783.118 1560.95 Q779.947 1564.56 774.391 1564.56 Q768.813 1564.56 765.641 1560.95 Q762.493 1557.31 762.493 1550.95 Q762.493 1544.56 765.641 1540.95 Q768.813 1537.34 774.391 1537.34 Z" fill="#000000" fill-rule="nonzero" fill-opacity="1" /><path clip-path="url(#clip060)" d="M793.349 1527.87 L797.609 1527.87 L797.609 1563.89 L793.349 1563.89 L793.349 1527.87 Z" fill="#000000" fill-rule="nonzero" fill-opacity="1" /><path clip-path="url(#clip060)" d="M806.521 1537.96 L810.78 1537.96 L810.78 1563.89 L806.521 1563.89 L806.521 1537.96 M806.521 1527.87 L810.78 1527.87 L810.78 1533.26 L806.521 1533.26 L806.521 1527.87 Z" fill="#000000" fill-rule="nonzero" fill-opacity="1" /><path clip-path="url(#clip060)" d="M838.349 1538.96 L838.349 1542.94 Q836.544 1541.94 834.715 1541.46 Q832.909 1540.95 831.058 1540.95 Q826.914 1540.95 824.622 1543.59 Q822.331 1546.2 822.331 1550.95 Q822.331 1555.69 824.622 1558.33 Q826.914 1560.95 831.058 1560.95 Q832.909 1560.95 834.715 1560.46 Q836.544 1559.95 838.349 1558.96 L838.349 1562.89 Q836.567 1563.73 834.646 1564.14 Q832.747 1564.56 830.595 1564.56 Q824.738 1564.56 821.289 1560.88 Q817.84 1557.2 817.84 1550.95 Q817.84 1544.61 821.312 1540.97 Q824.808 1537.34 830.872 1537.34 Q832.84 1537.34 834.715 1537.75 Q836.59 1538.15 838.349 1538.96 Z" fill="#000000" fill-rule="nonzero" fill-opacity="1" /><path clip-path="url(#clip060)" d="M1669.07 1527.87 L1669.07 1531.41 L1664.99 1531.41 Q1662.7 1531.41 1661.8 1532.34 Q1660.92 1533.26 1660.92 1535.67 L1660.92 1537.96 L1667.93 1537.96 L1667.93 1541.27 L1660.92 1541.27 L1660.92 1563.89 L1656.64 1563.89 L1656.64 1541.27 L1652.56 1541.27 L1652.56 1537.96 L1656.64 1537.96 L1656.64 1536.16 Q1656.64 1531.83 1658.65 1529.86 Q1660.67 1527.87 1665.04 1527.87 L1669.07 1527.87 Z" fill="#000000" fill-rule="nonzero" fill-opacity="1" /><path clip-path="url(#clip060)" d="M1672.63 1537.96 L1676.89 1537.96 L1676.89 1563.89 L1672.63 1563.89 L1672.63 1537.96 M1672.63 1527.87 L1676.89 1527.87 L1676.89 1533.26 L1672.63 1533.26 L1672.63 1527.87 Z" fill="#000000" fill-rule="nonzero" fill-opacity="1" /><path clip-path="url(#clip060)" d="M1707.36 1548.24 L1707.36 1563.89 L1703.1 1563.89 L1703.1 1548.38 Q1703.1 1544.7 1701.66 1542.87 Q1700.23 1541.04 1697.36 1541.04 Q1693.91 1541.04 1691.92 1543.24 Q1689.93 1545.44 1689.93 1549.24 L1689.93 1563.89 L1685.64 1563.89 L1685.64 1537.96 L1689.93 1537.96 L1689.93 1541.99 Q1691.45 1539.65 1693.51 1538.49 Q1695.6 1537.34 1698.3 1537.34 Q1702.77 1537.34 1705.06 1540.11 Q1707.36 1542.87 1707.36 1548.24 Z" fill="#000000" fill-rule="nonzero" fill-opacity="1" /><path clip-path="url(#clip060)" d="M1715.85 1537.96 L1720.11 1537.96 L1720.11 1563.89 L1715.85 1563.89 L1715.85 1537.96 M1715.85 1527.87 L1720.11 1527.87 L1720.11 1533.26 L1715.85 1533.26 L1715.85 1527.87 Z" fill="#000000" fill-rule="nonzero" fill-opacity="1" /><path clip-path="url(#clip060)" d="M1733.24 1530.6 L1733.24 1537.96 L1742.01 1537.96 L1742.01 1541.27 L1733.24 1541.27 L1733.24 1555.35 Q1733.24 1558.52 1734.09 1559.42 Q1734.97 1560.32 1737.63 1560.32 L1742.01 1560.32 L1742.01 1563.89 L1737.63 1563.89 Q1732.7 1563.89 1730.83 1562.06 Q1728.95 1560.21 1728.95 1555.35 L1728.95 1541.27 L1725.83 1541.27 L1725.83 1537.96 L1728.95 1537.96 L1728.95 1530.6 L1733.24 1530.6 Z" fill="#000000" fill-rule="nonzero" fill-opacity="1" /><path clip-path="url(#clip060)" d="M1769.79 1549.86 L1769.79 1551.94 L1750.2 1551.94 Q1750.48 1556.34 1752.84 1558.66 Q1755.23 1560.95 1759.46 1560.95 Q1761.92 1560.95 1764.21 1560.35 Q1766.52 1559.74 1768.79 1558.54 L1768.79 1562.57 Q1766.5 1563.54 1764.09 1564.05 Q1761.68 1564.56 1759.21 1564.56 Q1753 1564.56 1749.37 1560.95 Q1745.76 1557.34 1745.76 1551.18 Q1745.76 1544.81 1749.18 1541.09 Q1752.63 1537.34 1758.47 1537.34 Q1763.7 1537.34 1766.73 1540.72 Q1769.79 1544.07 1769.79 1549.86 M1765.53 1548.61 Q1765.48 1545.11 1763.56 1543.03 Q1761.66 1540.95 1758.51 1540.95 Q1754.95 1540.95 1752.8 1542.96 Q1750.67 1544.98 1750.34 1548.63 L1765.53 1548.61 Z" fill="#000000" fill-rule="nonzero" fill-opacity="1" /><path clip-path="url(#clip060)" d="M1808.91 1541.9 L1808.91 1527.87 L1813.17 1527.87 L1813.17 1563.89 L1808.91 1563.89 L1808.91 1560 Q1807.56 1562.31 1805.5 1563.45 Q1803.47 1564.56 1800.6 1564.56 Q1795.9 1564.56 1792.93 1560.81 Q1789.99 1557.06 1789.99 1550.95 Q1789.99 1544.84 1792.93 1541.09 Q1795.9 1537.34 1800.6 1537.34 Q1803.47 1537.34 1805.5 1538.47 Q1807.56 1539.58 1808.91 1541.9 M1794.39 1550.95 Q1794.39 1555.65 1796.31 1558.33 Q1798.26 1560.99 1801.64 1560.99 Q1805.02 1560.99 1806.96 1558.33 Q1808.91 1555.65 1808.91 1550.95 Q1808.91 1546.25 1806.96 1543.59 Q1805.02 1540.9 1801.64 1540.9 Q1798.26 1540.9 1796.31 1543.59 Q1794.39 1546.25 1794.39 1550.95 Z" fill="#000000" fill-rule="nonzero" fill-opacity="1" /><path clip-path="url(#clip060)" d="M1821.94 1537.96 L1826.2 1537.96 L1826.2 1563.89 L1821.94 1563.89 L1821.94 1537.96 M1821.94 1527.87 L1826.2 1527.87 L1826.2 1533.26 L1821.94 1533.26 L1821.94 1527.87 Z" fill="#000000" fill-rule="nonzero" fill-opacity="1" /><path clip-path="url(#clip060)" d="M1848.23 1527.87 L1848.23 1531.41 L1844.16 1531.41 Q1841.87 1531.41 1840.97 1532.34 Q1840.09 1533.26 1840.09 1535.67 L1840.09 1537.96 L1847.1 1537.96 L1847.1 1541.27 L1840.09 1541.27 L1840.09 1563.89 L1835.8 1563.89 L1835.8 1541.27 L1831.73 1541.27 L1831.73 1537.96 L1835.8 1537.96 L1835.8 1536.16 Q1835.8 1531.83 1837.82 1529.86 Q1839.83 1527.87 1844.21 1527.87 L1848.23 1527.87 Z" fill="#000000" fill-rule="nonzero" fill-opacity="1" /><path clip-path="url(#clip060)" d="M1864.92 1527.87 L1864.92 1531.41 L1860.85 1531.41 Q1858.56 1531.41 1857.66 1532.34 Q1856.78 1533.26 1856.78 1535.67 L1856.78 1537.96 L1863.79 1537.96 L1863.79 1541.27 L1856.78 1541.27 L1856.78 1563.89 L1852.49 1563.89 L1852.49 1541.27 L1848.42 1541.27 L1848.42 1537.96 L1852.49 1537.96 L1852.49 1536.16 Q1852.49 1531.83 1854.51 1529.86 Q1856.52 1527.87 1860.9 1527.87 L1864.92 1527.87 Z" fill="#000000" fill-rule="nonzero" fill-opacity="1" /><path clip-path="url(#clip060)" d="M2661.47 1527.87 L2661.47 1531.41 L2657.39 1531.41 Q2655.1 1531.41 2654.2 1532.34 Q2653.32 1533.26 2653.32 1535.67 L2653.32 1537.96 L2660.33 1537.96 L2660.33 1541.27 L2653.32 1541.27 L2653.32 1563.89 L2649.04 1563.89 L2649.04 1541.27 L2644.96 1541.27 L2644.96 1537.96 L2649.04 1537.96 L2649.04 1536.16 Q2649.04 1531.83 2651.05 1529.86 Q2653.06 1527.87 2657.44 1527.87 L2661.47 1527.87 Z" fill="#000000" fill-rule="nonzero" fill-opacity="1" /><path clip-path="url(#clip060)" d="M2675.08 1540.95 Q2671.65 1540.95 2669.66 1543.63 Q2667.67 1546.3 2667.67 1550.95 Q2667.67 1555.6 2669.64 1558.29 Q2671.63 1560.95 2675.08 1560.95 Q2678.48 1560.95 2680.47 1558.26 Q2682.46 1555.58 2682.46 1550.95 Q2682.46 1546.34 2680.47 1543.66 Q2678.48 1540.95 2675.08 1540.95 M2675.08 1537.34 Q2680.63 1537.34 2683.8 1540.95 Q2686.97 1544.56 2686.97 1550.95 Q2686.97 1557.31 2683.8 1560.95 Q2680.63 1564.56 2675.08 1564.56 Q2669.5 1564.56 2666.33 1560.95 Q2663.18 1557.31 2663.18 1550.95 Q2663.18 1544.56 2666.33 1540.95 Q2669.5 1537.34 2675.08 1537.34 Z" fill="#000000" fill-rule="nonzero" fill-opacity="1" /><path clip-path="url(#clip060)" d="M2709.06 1541.94 Q2708.34 1541.53 2707.48 1541.34 Q2706.65 1541.13 2705.63 1541.13 Q2702.02 1541.13 2700.08 1543.49 Q2698.16 1545.83 2698.16 1550.23 L2698.16 1563.89 L2693.87 1563.89 L2693.87 1537.96 L2698.16 1537.96 L2698.16 1541.99 Q2699.5 1539.63 2701.65 1538.49 Q2703.8 1537.34 2706.88 1537.34 Q2707.32 1537.34 2707.85 1537.41 Q2708.39 1537.45 2709.03 1537.57 L2709.06 1541.94 Z" fill="#000000" fill-rule="nonzero" fill-opacity="1" /><path clip-path="url(#clip060)" d="M2711.05 1537.96 L2715.31 1537.96 L2720.63 1558.19 L2725.93 1537.96 L2730.96 1537.96 L2736.28 1558.19 L2741.58 1537.96 L2745.84 1537.96 L2739.06 1563.89 L2734.03 1563.89 L2728.46 1542.64 L2722.85 1563.89 L2717.83 1563.89 L2711.05 1537.96 Z" fill="#000000" fill-rule="nonzero" fill-opacity="1" /><path clip-path="url(#clip060)" d="M2764.08 1550.86 Q2758.92 1550.86 2756.93 1552.04 Q2754.94 1553.22 2754.94 1556.06 Q2754.94 1558.33 2756.42 1559.67 Q2757.92 1560.99 2760.49 1560.99 Q2764.03 1560.99 2766.16 1558.49 Q2768.32 1555.97 2768.32 1551.8 L2768.32 1550.86 L2764.08 1550.86 M2772.58 1549.1 L2772.58 1563.89 L2768.32 1563.89 L2768.32 1559.95 Q2766.86 1562.31 2764.68 1563.45 Q2762.51 1564.56 2759.36 1564.56 Q2755.38 1564.56 2753.02 1562.34 Q2750.68 1560.09 2750.68 1556.34 Q2750.68 1551.97 2753.59 1549.74 Q2756.53 1547.52 2762.34 1547.52 L2768.32 1547.52 L2768.32 1547.11 Q2768.32 1544.17 2766.37 1542.57 Q2764.45 1540.95 2760.96 1540.95 Q2758.73 1540.95 2756.63 1541.48 Q2754.52 1542.01 2752.58 1543.08 L2752.58 1539.14 Q2754.91 1538.24 2757.11 1537.8 Q2759.31 1537.34 2761.4 1537.34 Q2767.02 1537.34 2769.8 1540.25 Q2772.58 1543.17 2772.58 1549.1 Z" fill="#000000" fill-rule="nonzero" fill-opacity="1" /><path clip-path="url(#clip060)" d="M2796.37 1541.94 Q2795.65 1541.53 2794.8 1541.34 Q2793.96 1541.13 2792.95 1541.13 Q2789.34 1541.13 2787.39 1543.49 Q2785.47 1545.83 2785.47 1550.23 L2785.47 1563.89 L2781.19 1563.89 L2781.19 1537.96 L2785.47 1537.96 L2785.47 1541.99 Q2786.81 1539.63 2788.97 1538.49 Q2791.12 1537.34 2794.2 1537.34 Q2794.64 1537.34 2795.17 1537.41 Q2795.7 1537.45 2796.35 1537.57 L2796.37 1541.94 Z" fill="#000000" fill-rule="nonzero" fill-opacity="1" /><path clip-path="url(#clip060)" d="M2817.07 1541.9 L2817.07 1527.87 L2821.33 1527.87 L2821.33 1563.89 L2817.07 1563.89 L2817.07 1560 Q2815.72 1562.31 2813.66 1563.45 Q2811.63 1564.56 2808.76 1564.56 Q2804.06 1564.56 2801.09 1560.81 Q2798.15 1557.06 2798.15 1550.95 Q2798.15 1544.84 2801.09 1541.09 Q2804.06 1537.34 2808.76 1537.34 Q2811.63 1537.34 2813.66 1538.47 Q2815.72 1539.58 2817.07 1541.9 M2802.55 1550.95 Q2802.55 1555.65 2804.47 1558.33 Q2806.42 1560.99 2809.8 1560.99 Q2813.18 1560.99 2815.12 1558.33 Q2817.07 1555.65 2817.07 1550.95 Q2817.07 1546.25 2815.12 1543.59 Q2813.18 1540.9 2809.8 1540.9 Q2806.42 1540.9 2804.47 1543.59 Q2802.55 1546.25 2802.55 1550.95 Z" fill="#000000" fill-rule="nonzero" fill-opacity="1" /><path clip-path="url(#clip060)" d="M2862.23 1541.9 L2862.23 1527.87 L2866.49 1527.87 L2866.49 1563.89 L2862.23 1563.89 L2862.23 1560 Q2860.89 1562.31 2858.83 1563.45 Q2856.79 1564.56 2853.92 1564.56 Q2849.22 1564.56 2846.26 1560.81 Q2843.32 1557.06 2843.32 1550.95 Q2843.32 1544.84 2846.26 1541.09 Q2849.22 1537.34 2853.92 1537.34 Q2856.79 1537.34 2858.83 1538.47 Q2860.89 1539.58 2862.23 1541.9 M2847.71 1550.95 Q2847.71 1555.65 2849.64 1558.33 Q2851.58 1560.99 2854.96 1560.99 Q2858.34 1560.99 2860.28 1558.33 Q2862.23 1555.65 2862.23 1550.95 Q2862.23 1546.25 2860.28 1543.59 Q2858.34 1540.9 2854.96 1540.9 Q2851.58 1540.9 2849.64 1543.59 Q2847.71 1546.25 2847.71 1550.95 Z" fill="#000000" fill-rule="nonzero" fill-opacity="1" /><path clip-path="url(#clip060)" d="M2875.26 1537.96 L2879.52 1537.96 L2879.52 1563.89 L2875.26 1563.89 L2875.26 1537.96 M2875.26 1527.87 L2879.52 1527.87 L2879.52 1533.26 L2875.26 1533.26 L2875.26 1527.87 Z" fill="#000000" fill-rule="nonzero" fill-opacity="1" /><path clip-path="url(#clip060)" d="M2901.56 1527.87 L2901.56 1531.41 L2897.48 1531.41 Q2895.19 1531.41 2894.29 1532.34 Q2893.41 1533.26 2893.41 1535.67 L2893.41 1537.96 L2900.42 1537.96 L2900.42 1541.27 L2893.41 1541.27 L2893.41 1563.89 L2889.13 1563.89 L2889.13 1541.27 L2885.05 1541.27 L2885.05 1537.96 L2889.13 1537.96 L2889.13 1536.16 Q2889.13 1531.83 2891.14 1529.86 Q2893.15 1527.87 2897.53 1527.87 L2901.56 1527.87 Z" fill="#000000" fill-rule="nonzero" fill-opacity="1" /><path clip-path="url(#clip060)" d="M2918.25 1527.87 L2918.25 1531.41 L2914.17 1531.41 Q2911.88 1531.41 2910.98 1532.34 Q2910.1 1533.26 2910.1 1535.67 L2910.1 1537.96 L2917.11 1537.96 L2917.11 1541.27 L2910.1 1541.27 L2910.1 1563.89 L2905.82 1563.89 L2905.82 1541.27 L2901.74 1541.27 L2901.74 1537.96 L2905.82 1537.96 L2905.82 1536.16 Q2905.82 1531.83 2907.83 1529.86 Q2909.84 1527.87 2914.22 1527.87 L2918.25 1527.87 Z" fill="#000000" fill-rule="nonzero" fill-opacity="1" /><polyline clip-path="url(#clip060)" style="stroke:#000000; stroke-linecap:round; stroke-linejoin:round; stroke-width:4; stroke-opacity:1; fill:none" points="364.733,1495.09 364.733,47.2441 "/>
<polyline clip-path="url(#clip060)" style="stroke:#000000; stroke-linecap:round; stroke-linejoin:round; stroke-width:4; stroke-opacity:1; fill:none" points="364.733,1392.52 383.63,1392.52 "/>
<polyline clip-path="url(#clip060)" style="stroke:#000000; stroke-linecap:round; stroke-linejoin:round; stroke-width:4; stroke-opacity:1; fill:none" points="364.733,1143.55 383.63,1143.55 "/>
<polyline clip-path="url(#clip060)" style="stroke:#000000; stroke-linecap:round; stroke-linejoin:round; stroke-width:4; stroke-opacity:1; fill:none" points="364.733,894.581 383.63,894.581 "/>
<polyline clip-path="url(#clip060)" style="stroke:#000000; stroke-linecap:round; stroke-linejoin:round; stroke-width:4; stroke-opacity:1; fill:none" points="364.733,645.612 383.63,645.612 "/>
<polyline clip-path="url(#clip060)" style="stroke:#000000; stroke-linecap:round; stroke-linejoin:round; stroke-width:4; stroke-opacity:1; fill:none" points="364.733,396.643 383.63,396.643 "/>
<polyline clip-path="url(#clip060)" style="stroke:#000000; stroke-linecap:round; stroke-linejoin:round; stroke-width:4; stroke-opacity:1; fill:none" points="364.733,147.675 383.63,147.675 "/>
<path clip-path="url(#clip060)" d="M100.137 1381.69 L118.493 1381.69 L118.493 1385.62 L104.419 1385.62 L104.419 1394.09 Q105.437 1393.75 106.456 1393.58 Q107.474 1393.4 108.493 1393.4 Q114.28 1393.4 117.66 1396.57 Q121.039 1399.74 121.039 1405.16 Q121.039 1410.74 117.567 1413.84 Q114.095 1416.92 107.775 1416.92 Q105.599 1416.92 103.331 1416.55 Q101.086 1416.18 98.6782 1415.44 L98.6782 1410.74 Q100.762 1411.87 102.984 1412.43 Q105.206 1412.98 107.683 1412.98 Q111.687 1412.98 114.025 1410.87 Q116.363 1408.77 116.363 1405.16 Q116.363 1401.55 114.025 1399.44 Q111.687 1397.33 107.683 1397.33 Q105.808 1397.33 103.933 1397.75 Q102.081 1398.17 100.137 1399.05 L100.137 1381.69 Z" fill="#000000" fill-rule="nonzero" fill-opacity="1" /><path clip-path="url(#clip060)" d="M130.252 1410.37 L135.136 1410.37 L135.136 1416.25 L130.252 1416.25 L130.252 1410.37 Z" fill="#000000" fill-rule="nonzero" fill-opacity="1" /><path clip-path="url(#clip060)" d="M155.321 1384.76 Q151.71 1384.76 149.882 1388.33 Q148.076 1391.87 148.076 1399 Q148.076 1406.11 149.882 1409.67 Q151.71 1413.21 155.321 1413.21 Q158.956 1413.21 160.761 1409.67 Q162.59 1406.11 162.59 1399 Q162.59 1391.87 160.761 1388.33 Q158.956 1384.76 155.321 1384.76 M155.321 1381.06 Q161.132 1381.06 164.187 1385.67 Q167.266 1390.25 167.266 1399 Q167.266 1407.73 164.187 1412.33 Q161.132 1416.92 155.321 1416.92 Q149.511 1416.92 146.433 1412.33 Q143.377 1407.73 143.377 1399 Q143.377 1390.25 146.433 1385.67 Q149.511 1381.06 155.321 1381.06 Z" fill="#000000" fill-rule="nonzero" fill-opacity="1" /><path clip-path="url(#clip060)" d="M185.483 1384.76 Q181.872 1384.76 180.043 1388.33 Q178.238 1391.87 178.238 1399 Q178.238 1406.11 180.043 1409.67 Q181.872 1413.21 185.483 1413.21 Q189.118 1413.21 190.923 1409.67 Q192.752 1406.11 192.752 1399 Q192.752 1391.87 190.923 1388.33 Q189.118 1384.76 185.483 1384.76 M185.483 1381.06 Q191.293 1381.06 194.349 1385.67 Q197.428 1390.25 197.428 1399 Q197.428 1407.73 194.349 1412.33 Q191.293 1416.92 185.483 1416.92 Q179.673 1416.92 176.594 1412.33 Q173.539 1407.73 173.539 1399 Q173.539 1390.25 176.594 1385.67 Q179.673 1381.06 185.483 1381.06 Z" fill="#000000" fill-rule="nonzero" fill-opacity="1" /><path clip-path="url(#clip060)" d="M233.816 1390.78 L223.238 1401.41 L233.816 1411.99 L231.062 1414.79 L220.437 1404.16 L209.812 1414.79 L207.08 1411.99 L217.636 1401.41 L207.08 1390.78 L209.812 1387.98 L220.437 1398.61 L231.062 1387.98 L233.816 1390.78 Z" fill="#000000" fill-rule="nonzero" fill-opacity="1" /><path clip-path="url(#clip060)" d="M246.177 1412.31 L253.816 1412.31 L253.816 1385.94 L245.506 1387.61 L245.506 1383.35 L253.77 1381.69 L258.446 1381.69 L258.446 1412.31 L266.085 1412.31 L266.085 1416.25 L246.177 1416.25 L246.177 1412.31 Z" fill="#000000" fill-rule="nonzero" fill-opacity="1" /><path clip-path="url(#clip060)" d="M285.529 1384.76 Q281.918 1384.76 280.089 1388.33 Q278.284 1391.87 278.284 1399 Q278.284 1406.11 280.089 1409.67 Q281.918 1413.21 285.529 1413.21 Q289.163 1413.21 290.969 1409.67 Q292.798 1406.11 292.798 1399 Q292.798 1391.87 290.969 1388.33 Q289.163 1384.76 285.529 1384.76 M285.529 1381.06 Q291.339 1381.06 294.395 1385.67 Q297.473 1390.25 297.473 1399 Q297.473 1407.73 294.395 1412.33 Q291.339 1416.92 285.529 1416.92 Q279.719 1416.92 276.64 1412.33 Q273.585 1407.73 273.585 1399 Q273.585 1390.25 276.64 1385.67 Q279.719 1381.06 285.529 1381.06 Z" fill="#000000" fill-rule="nonzero" fill-opacity="1" /><path clip-path="url(#clip060)" d="M307.103 1375.5 Q304.395 1375.5 302.834 1376.95 Q301.291 1378.4 301.291 1380.94 Q301.291 1383.47 302.834 1384.92 Q304.395 1386.37 307.103 1386.37 Q309.811 1386.37 311.372 1384.92 Q312.933 1383.46 312.933 1380.94 Q312.933 1378.4 311.372 1376.95 Q309.83 1375.5 307.103 1375.5 M303.304 1373.88 Q300.859 1373.28 299.486 1371.61 Q298.132 1369.93 298.132 1367.53 Q298.132 1364.16 300.52 1362.2 Q302.928 1360.25 307.103 1360.25 Q311.297 1360.25 313.686 1362.2 Q316.074 1364.16 316.074 1367.53 Q316.074 1369.93 314.701 1371.61 Q313.347 1373.28 310.921 1373.88 Q313.667 1374.52 315.19 1376.38 Q316.733 1378.25 316.733 1380.94 Q316.733 1385.02 314.231 1387.2 Q311.749 1389.38 307.103 1389.38 Q302.457 1389.38 299.956 1387.2 Q297.473 1385.02 297.473 1380.94 Q297.473 1378.25 299.016 1376.38 Q300.558 1374.52 303.304 1373.88 M301.912 1367.88 Q301.912 1370.06 303.266 1371.29 Q304.639 1372.51 307.103 1372.51 Q309.548 1372.51 310.921 1371.29 Q312.313 1370.06 312.313 1367.88 Q312.313 1365.7 310.921 1364.48 Q309.548 1363.26 307.103 1363.26 Q304.639 1363.26 303.266 1364.48 Q301.912 1365.7 301.912 1367.88 Z" fill="#000000" fill-rule="nonzero" fill-opacity="1" /><path clip-path="url(#clip060)" d="M100.788 1163.34 L108.426 1163.34 L108.426 1136.98 L100.116 1138.64 L100.116 1134.38 L108.38 1132.72 L113.056 1132.72 L113.056 1163.34 L120.695 1163.34 L120.695 1167.28 L100.788 1167.28 L100.788 1163.34 Z" fill="#000000" fill-rule="nonzero" fill-opacity="1" /><path clip-path="url(#clip060)" d="M130.139 1161.4 L135.023 1161.4 L135.023 1167.28 L130.139 1167.28 L130.139 1161.4 Z" fill="#000000" fill-rule="nonzero" fill-opacity="1" /><path clip-path="url(#clip060)" d="M155.209 1135.8 Q151.597 1135.8 149.769 1139.36 Q147.963 1142.9 147.963 1150.03 Q147.963 1157.14 149.769 1160.7 Q151.597 1164.24 155.209 1164.24 Q158.843 1164.24 160.648 1160.7 Q162.477 1157.14 162.477 1150.03 Q162.477 1142.9 160.648 1139.36 Q158.843 1135.8 155.209 1135.8 M155.209 1132.09 Q161.019 1132.09 164.074 1136.7 Q167.153 1141.28 167.153 1150.03 Q167.153 1158.76 164.074 1163.36 Q161.019 1167.95 155.209 1167.95 Q149.398 1167.95 146.32 1163.36 Q143.264 1158.76 143.264 1150.03 Q143.264 1141.28 146.32 1136.7 Q149.398 1132.09 155.209 1132.09 Z" fill="#000000" fill-rule="nonzero" fill-opacity="1" /><path clip-path="url(#clip060)" d="M185.37 1135.8 Q181.759 1135.8 179.931 1139.36 Q178.125 1142.9 178.125 1150.03 Q178.125 1157.14 179.931 1160.7 Q181.759 1164.24 185.37 1164.24 Q189.005 1164.24 190.81 1160.7 Q192.639 1157.14 192.639 1150.03 Q192.639 1142.9 190.81 1139.36 Q189.005 1135.8 185.37 1135.8 M185.37 1132.09 Q191.181 1132.09 194.236 1136.7 Q197.315 1141.28 197.315 1150.03 Q197.315 1158.76 194.236 1163.36 Q191.181 1167.95 185.37 1167.95 Q179.56 1167.95 176.482 1163.36 Q173.426 1158.76 173.426 1150.03 Q173.426 1141.28 176.482 1136.7 Q179.56 1132.09 185.37 1132.09 Z" fill="#000000" fill-rule="nonzero" fill-opacity="1" /><path clip-path="url(#clip060)" d="M233.704 1141.81 L223.125 1152.44 L233.704 1163.02 L230.949 1165.82 L220.324 1155.19 L209.699 1165.82 L206.968 1163.02 L217.523 1152.44 L206.968 1141.81 L209.699 1139.01 L220.324 1149.64 L230.949 1139.01 L233.704 1141.81 Z" fill="#000000" fill-rule="nonzero" fill-opacity="1" /><path clip-path="url(#clip060)" d="M246.065 1163.34 L253.703 1163.34 L253.703 1136.98 L245.393 1138.64 L245.393 1134.38 L253.657 1132.72 L258.333 1132.72 L258.333 1163.34 L265.972 1163.34 L265.972 1167.28 L246.065 1167.28 L246.065 1163.34 Z" fill="#000000" fill-rule="nonzero" fill-opacity="1" /><path clip-path="url(#clip060)" d="M285.416 1135.8 Q281.805 1135.8 279.976 1139.36 Q278.171 1142.9 278.171 1150.03 Q278.171 1157.14 279.976 1160.7 Q281.805 1164.24 285.416 1164.24 Q289.05 1164.24 290.856 1160.7 Q292.685 1157.14 292.685 1150.03 Q292.685 1142.9 290.856 1139.36 Q289.05 1135.8 285.416 1135.8 M285.416 1132.09 Q291.226 1132.09 294.282 1136.7 Q297.361 1141.28 297.361 1150.03 Q297.361 1158.76 294.282 1163.36 Q291.226 1167.95 285.416 1167.95 Q279.606 1167.95 276.527 1163.36 Q273.472 1158.76 273.472 1150.03 Q273.472 1141.28 276.527 1136.7 Q279.606 1132.09 285.416 1132.09 Z" fill="#000000" fill-rule="nonzero" fill-opacity="1" /><path clip-path="url(#clip060)" d="M299.166 1139.28 L299.166 1135.82 Q300.596 1136.5 302.063 1136.86 Q303.53 1137.21 304.94 1137.21 Q308.702 1137.21 310.676 1134.69 Q312.67 1132.16 312.952 1127 Q311.861 1128.62 310.187 1129.48 Q308.514 1130.35 306.482 1130.35 Q302.269 1130.35 299.806 1127.81 Q297.361 1125.25 297.361 1120.83 Q297.361 1116.51 299.918 1113.89 Q302.476 1111.28 306.727 1111.28 Q311.598 1111.28 314.156 1115.02 Q316.733 1118.75 316.733 1125.85 Q316.733 1132.49 313.573 1136.46 Q310.432 1140.41 305.109 1140.41 Q303.68 1140.41 302.213 1140.13 Q300.746 1139.85 299.166 1139.28 M306.727 1127.38 Q309.285 1127.38 310.771 1125.63 Q312.275 1123.88 312.275 1120.83 Q312.275 1117.8 310.771 1116.06 Q309.285 1114.29 306.727 1114.29 Q304.169 1114.29 302.664 1116.06 Q301.179 1117.8 301.179 1120.83 Q301.179 1123.88 302.664 1125.63 Q304.169 1127.38 306.727 1127.38 Z" fill="#000000" fill-rule="nonzero" fill-opacity="1" /><path clip-path="url(#clip060)" d="M100.788 914.373 L108.426 914.373 L108.426 888.007 L100.116 889.674 L100.116 885.415 L108.38 883.748 L113.056 883.748 L113.056 914.373 L120.695 914.373 L120.695 918.308 L100.788 918.308 L100.788 914.373 Z" fill="#000000" fill-rule="nonzero" fill-opacity="1" /><path clip-path="url(#clip060)" d="M130.139 912.429 L135.023 912.429 L135.023 918.308 L130.139 918.308 L130.139 912.429 Z" fill="#000000" fill-rule="nonzero" fill-opacity="1" /><path clip-path="url(#clip060)" d="M145.255 883.748 L163.611 883.748 L163.611 887.683 L149.537 887.683 L149.537 896.155 Q150.556 895.808 151.574 895.646 Q152.593 895.461 153.611 895.461 Q159.398 895.461 162.778 898.632 Q166.158 901.804 166.158 907.22 Q166.158 912.799 162.685 915.901 Q159.213 918.979 152.894 918.979 Q150.718 918.979 148.449 918.609 Q146.204 918.239 143.797 917.498 L143.797 912.799 Q145.88 913.933 148.102 914.489 Q150.324 915.044 152.801 915.044 Q156.806 915.044 159.144 912.938 Q161.482 910.831 161.482 907.22 Q161.482 903.609 159.144 901.503 Q156.806 899.396 152.801 899.396 Q150.926 899.396 149.051 899.813 Q147.199 900.23 145.255 901.109 L145.255 883.748 Z" fill="#000000" fill-rule="nonzero" fill-opacity="1" /><path clip-path="url(#clip060)" d="M185.37 886.827 Q181.759 886.827 179.931 890.392 Q178.125 893.933 178.125 901.063 Q178.125 908.169 179.931 911.734 Q181.759 915.276 185.37 915.276 Q189.005 915.276 190.81 911.734 Q192.639 908.169 192.639 901.063 Q192.639 893.933 190.81 890.392 Q189.005 886.827 185.37 886.827 M185.37 883.123 Q191.181 883.123 194.236 887.73 Q197.315 892.313 197.315 901.063 Q197.315 909.79 194.236 914.396 Q191.181 918.979 185.37 918.979 Q179.56 918.979 176.482 914.396 Q173.426 909.79 173.426 901.063 Q173.426 892.313 176.482 887.73 Q179.56 883.123 185.37 883.123 Z" fill="#000000" fill-rule="nonzero" fill-opacity="1" /><path clip-path="url(#clip060)" d="M233.704 892.845 L223.125 903.47 L233.704 914.049 L230.949 916.85 L220.324 906.225 L209.699 916.85 L206.968 914.049 L217.523 903.47 L206.968 892.845 L209.699 890.044 L220.324 900.669 L230.949 890.044 L233.704 892.845 Z" fill="#000000" fill-rule="nonzero" fill-opacity="1" /><path clip-path="url(#clip060)" d="M246.065 914.373 L253.703 914.373 L253.703 888.007 L245.393 889.674 L245.393 885.415 L253.657 883.748 L258.333 883.748 L258.333 914.373 L265.972 914.373 L265.972 918.308 L246.065 918.308 L246.065 914.373 Z" fill="#000000" fill-rule="nonzero" fill-opacity="1" /><path clip-path="url(#clip060)" d="M285.416 886.827 Q281.805 886.827 279.976 890.392 Q278.171 893.933 278.171 901.063 Q278.171 908.169 279.976 911.734 Q281.805 915.276 285.416 915.276 Q289.05 915.276 290.856 911.734 Q292.685 908.169 292.685 901.063 Q292.685 893.933 290.856 890.392 Q289.05 886.827 285.416 886.827 M285.416 883.123 Q291.226 883.123 294.282 887.73 Q297.361 892.313 297.361 901.063 Q297.361 909.79 294.282 914.396 Q291.226 918.979 285.416 918.979 Q279.606 918.979 276.527 914.396 Q273.472 909.79 273.472 901.063 Q273.472 892.313 276.527 887.73 Q279.606 883.123 285.416 883.123 Z" fill="#000000" fill-rule="nonzero" fill-opacity="1" /><path clip-path="url(#clip060)" d="M299.166 890.315 L299.166 886.854 Q300.596 887.531 302.063 887.888 Q303.53 888.246 304.94 888.246 Q308.702 888.246 310.676 885.726 Q312.67 883.187 312.952 878.033 Q311.861 879.651 310.187 880.516 Q308.514 881.381 306.482 881.381 Q302.269 881.381 299.806 878.842 Q297.361 876.284 297.361 871.864 Q297.361 867.538 299.918 864.924 Q302.476 862.31 306.727 862.31 Q311.598 862.31 314.156 866.053 Q316.733 869.777 316.733 876.886 Q316.733 883.525 313.573 887.494 Q310.432 891.443 305.109 891.443 Q303.68 891.443 302.213 891.161 Q300.746 890.879 299.166 890.315 M306.727 878.409 Q309.285 878.409 310.771 876.66 Q312.275 874.911 312.275 871.864 Q312.275 868.836 310.771 867.087 Q309.285 865.319 306.727 865.319 Q304.169 865.319 302.664 867.087 Q301.179 868.836 301.179 871.864 Q301.179 874.911 302.664 876.66 Q304.169 878.409 306.727 878.409 Z" fill="#000000" fill-rule="nonzero" fill-opacity="1" /><path clip-path="url(#clip060)" d="M104.005 665.404 L120.324 665.404 L120.324 669.34 L98.3802 669.34 L98.3802 665.404 Q101.042 662.65 105.625 658.02 Q110.232 653.367 111.412 652.025 Q113.658 649.502 114.537 647.766 Q115.44 646.006 115.44 644.317 Q115.44 641.562 113.496 639.826 Q111.575 638.09 108.473 638.09 Q106.274 638.09 103.82 638.854 Q101.389 639.617 98.6116 641.168 L98.6116 636.446 Q101.436 635.312 103.889 634.733 Q106.343 634.155 108.38 634.155 Q113.75 634.155 116.945 636.84 Q120.139 639.525 120.139 644.016 Q120.139 646.145 119.329 648.067 Q118.542 649.965 116.436 652.557 Q115.857 653.229 112.755 656.446 Q109.653 659.641 104.005 665.404 Z" fill="#000000" fill-rule="nonzero" fill-opacity="1" /><path clip-path="url(#clip060)" d="M130.139 663.46 L135.023 663.46 L135.023 669.34 L130.139 669.34 L130.139 663.46 Z" fill="#000000" fill-rule="nonzero" fill-opacity="1" /><path clip-path="url(#clip060)" d="M155.209 637.858 Q151.597 637.858 149.769 641.423 Q147.963 644.965 147.963 652.094 Q147.963 659.201 149.769 662.766 Q151.597 666.307 155.209 666.307 Q158.843 666.307 160.648 662.766 Q162.477 659.201 162.477 652.094 Q162.477 644.965 160.648 641.423 Q158.843 637.858 155.209 637.858 M155.209 634.155 Q161.019 634.155 164.074 638.761 Q167.153 643.344 167.153 652.094 Q167.153 660.821 164.074 665.428 Q161.019 670.011 155.209 670.011 Q149.398 670.011 146.32 665.428 Q143.264 660.821 143.264 652.094 Q143.264 643.344 146.32 638.761 Q149.398 634.155 155.209 634.155 Z" fill="#000000" fill-rule="nonzero" fill-opacity="1" /><path clip-path="url(#clip060)" d="M185.37 637.858 Q181.759 637.858 179.931 641.423 Q178.125 644.965 178.125 652.094 Q178.125 659.201 179.931 662.766 Q181.759 666.307 185.37 666.307 Q189.005 666.307 190.81 662.766 Q192.639 659.201 192.639 652.094 Q192.639 644.965 190.81 641.423 Q189.005 637.858 185.37 637.858 M185.37 634.155 Q191.181 634.155 194.236 638.761 Q197.315 643.344 197.315 652.094 Q197.315 660.821 194.236 665.428 Q191.181 670.011 185.37 670.011 Q179.56 670.011 176.482 665.428 Q173.426 660.821 173.426 652.094 Q173.426 643.344 176.482 638.761 Q179.56 634.155 185.37 634.155 Z" fill="#000000" fill-rule="nonzero" fill-opacity="1" /><path clip-path="url(#clip060)" d="M233.704 643.877 L223.125 654.502 L233.704 665.08 L230.949 667.881 L220.324 657.256 L209.699 667.881 L206.968 665.08 L217.523 654.502 L206.968 643.877 L209.699 641.076 L220.324 651.701 L230.949 641.076 L233.704 643.877 Z" fill="#000000" fill-rule="nonzero" fill-opacity="1" /><path clip-path="url(#clip060)" d="M246.065 665.404 L253.703 665.404 L253.703 639.039 L245.393 640.705 L245.393 636.446 L253.657 634.78 L258.333 634.78 L258.333 665.404 L265.972 665.404 L265.972 669.34 L246.065 669.34 L246.065 665.404 Z" fill="#000000" fill-rule="nonzero" fill-opacity="1" /><path clip-path="url(#clip060)" d="M285.416 637.858 Q281.805 637.858 279.976 641.423 Q278.171 644.965 278.171 652.094 Q278.171 659.201 279.976 662.766 Q281.805 666.307 285.416 666.307 Q289.05 666.307 290.856 662.766 Q292.685 659.201 292.685 652.094 Q292.685 644.965 290.856 641.423 Q289.05 637.858 285.416 637.858 M285.416 634.155 Q291.226 634.155 294.282 638.761 Q297.361 643.344 297.361 652.094 Q297.361 660.821 294.282 665.428 Q291.226 670.011 285.416 670.011 Q279.606 670.011 276.527 665.428 Q273.472 660.821 273.472 652.094 Q273.472 643.344 276.527 638.761 Q279.606 634.155 285.416 634.155 Z" fill="#000000" fill-rule="nonzero" fill-opacity="1" /><path clip-path="url(#clip060)" d="M299.166 641.346 L299.166 637.885 Q300.596 638.563 302.063 638.92 Q303.53 639.277 304.94 639.277 Q308.702 639.277 310.676 636.757 Q312.67 634.218 312.952 629.065 Q311.861 630.682 310.187 631.547 Q308.514 632.412 306.482 632.412 Q302.269 632.412 299.806 629.873 Q297.361 627.316 297.361 622.896 Q297.361 618.57 299.918 615.956 Q302.476 613.341 306.727 613.341 Q311.598 613.341 314.156 617.084 Q316.733 620.808 316.733 627.917 Q316.733 634.556 313.573 638.525 Q310.432 642.475 305.109 642.475 Q303.68 642.475 302.213 642.192 Q300.746 641.91 299.166 641.346 M306.727 629.441 Q309.285 629.441 310.771 627.692 Q312.275 625.943 312.275 622.896 Q312.275 619.868 310.771 618.119 Q309.285 616.351 306.727 616.351 Q304.169 616.351 302.664 618.119 Q301.179 619.868 301.179 622.896 Q301.179 625.943 302.664 627.692 Q304.169 629.441 306.727 629.441 Z" fill="#000000" fill-rule="nonzero" fill-opacity="1" /><path clip-path="url(#clip060)" d="M104.005 416.436 L120.324 416.436 L120.324 420.371 L98.3802 420.371 L98.3802 416.436 Q101.042 413.681 105.625 409.052 Q110.232 404.399 111.412 403.056 Q113.658 400.533 114.537 398.797 Q115.44 397.038 115.44 395.348 Q115.44 392.593 113.496 390.857 Q111.575 389.121 108.473 389.121 Q106.274 389.121 103.82 389.885 Q101.389 390.649 98.6116 392.2 L98.6116 387.478 Q101.436 386.343 103.889 385.765 Q106.343 385.186 108.38 385.186 Q113.75 385.186 116.945 387.871 Q120.139 390.556 120.139 395.047 Q120.139 397.177 119.329 399.098 Q118.542 400.996 116.436 403.589 Q115.857 404.26 112.755 407.477 Q109.653 410.672 104.005 416.436 Z" fill="#000000" fill-rule="nonzero" fill-opacity="1" /><path clip-path="url(#clip060)" d="M130.139 414.491 L135.023 414.491 L135.023 420.371 L130.139 420.371 L130.139 414.491 Z" fill="#000000" fill-rule="nonzero" fill-opacity="1" /><path clip-path="url(#clip060)" d="M145.255 385.811 L163.611 385.811 L163.611 389.746 L149.537 389.746 L149.537 398.218 Q150.556 397.871 151.574 397.709 Q152.593 397.524 153.611 397.524 Q159.398 397.524 162.778 400.695 Q166.158 403.866 166.158 409.283 Q166.158 414.862 162.685 417.964 Q159.213 421.042 152.894 421.042 Q150.718 421.042 148.449 420.672 Q146.204 420.302 143.797 419.561 L143.797 414.862 Q145.88 415.996 148.102 416.552 Q150.324 417.107 152.801 417.107 Q156.806 417.107 159.144 415.001 Q161.482 412.894 161.482 409.283 Q161.482 405.672 159.144 403.565 Q156.806 401.459 152.801 401.459 Q150.926 401.459 149.051 401.876 Q147.199 402.292 145.255 403.172 L145.255 385.811 Z" fill="#000000" fill-rule="nonzero" fill-opacity="1" /><path clip-path="url(#clip060)" d="M185.37 388.89 Q181.759 388.89 179.931 392.454 Q178.125 395.996 178.125 403.126 Q178.125 410.232 179.931 413.797 Q181.759 417.339 185.37 417.339 Q189.005 417.339 190.81 413.797 Q192.639 410.232 192.639 403.126 Q192.639 395.996 190.81 392.454 Q189.005 388.89 185.37 388.89 M185.37 385.186 Q191.181 385.186 194.236 389.792 Q197.315 394.376 197.315 403.126 Q197.315 411.852 194.236 416.459 Q191.181 421.042 185.37 421.042 Q179.56 421.042 176.482 416.459 Q173.426 411.852 173.426 403.126 Q173.426 394.376 176.482 389.792 Q179.56 385.186 185.37 385.186 Z" fill="#000000" fill-rule="nonzero" fill-opacity="1" /><path clip-path="url(#clip060)" d="M233.704 394.908 L223.125 405.533 L233.704 416.112 L230.949 418.913 L220.324 408.288 L209.699 418.913 L206.968 416.112 L217.523 405.533 L206.968 394.908 L209.699 392.107 L220.324 402.732 L230.949 392.107 L233.704 394.908 Z" fill="#000000" fill-rule="nonzero" fill-opacity="1" /><path clip-path="url(#clip060)" d="M246.065 416.436 L253.703 416.436 L253.703 390.07 L245.393 391.737 L245.393 387.478 L253.657 385.811 L258.333 385.811 L258.333 416.436 L265.972 416.436 L265.972 420.371 L246.065 420.371 L246.065 416.436 Z" fill="#000000" fill-rule="nonzero" fill-opacity="1" /><path clip-path="url(#clip060)" d="M285.416 388.89 Q281.805 388.89 279.976 392.454 Q278.171 395.996 278.171 403.126 Q278.171 410.232 279.976 413.797 Q281.805 417.339 285.416 417.339 Q289.05 417.339 290.856 413.797 Q292.685 410.232 292.685 403.126 Q292.685 395.996 290.856 392.454 Q289.05 388.89 285.416 388.89 M285.416 385.186 Q291.226 385.186 294.282 389.792 Q297.361 394.376 297.361 403.126 Q297.361 411.852 294.282 416.459 Q291.226 421.042 285.416 421.042 Q279.606 421.042 276.527 416.459 Q273.472 411.852 273.472 403.126 Q273.472 394.376 276.527 389.792 Q279.606 385.186 285.416 385.186 Z" fill="#000000" fill-rule="nonzero" fill-opacity="1" /><path clip-path="url(#clip060)" d="M299.166 392.378 L299.166 388.917 Q300.596 389.594 302.063 389.951 Q303.53 390.309 304.94 390.309 Q308.702 390.309 310.676 387.788 Q312.67 385.249 312.952 380.096 Q311.861 381.713 310.187 382.579 Q308.514 383.444 306.482 383.444 Q302.269 383.444 299.806 380.905 Q297.361 378.347 297.361 373.927 Q297.361 369.601 299.918 366.987 Q302.476 364.373 306.727 364.373 Q311.598 364.373 314.156 368.115 Q316.733 371.839 316.733 378.949 Q316.733 385.588 313.573 389.556 Q310.432 393.506 305.109 393.506 Q303.68 393.506 302.213 393.224 Q300.746 392.942 299.166 392.378 M306.727 380.472 Q309.285 380.472 310.771 378.723 Q312.275 376.974 312.275 373.927 Q312.275 370.899 310.771 369.15 Q309.285 367.382 306.727 367.382 Q304.169 367.382 302.664 369.15 Q301.179 370.899 301.179 373.927 Q301.179 376.974 302.664 378.723 Q304.169 380.472 306.727 380.472 Z" fill="#000000" fill-rule="nonzero" fill-opacity="1" /><path clip-path="url(#clip060)" d="M114.144 152.768 Q117.5 153.486 119.375 155.754 Q121.274 158.023 121.274 161.356 Q121.274 166.472 117.755 169.273 Q114.237 172.074 107.755 172.074 Q105.579 172.074 103.264 171.634 Q100.973 171.217 98.519 170.361 L98.519 165.847 Q100.463 166.981 102.778 167.56 Q105.093 168.138 107.616 168.138 Q112.014 168.138 114.306 166.402 Q116.621 164.666 116.621 161.356 Q116.621 158.301 114.468 156.588 Q112.338 154.852 108.519 154.852 L104.491 154.852 L104.491 151.009 L108.704 151.009 Q112.153 151.009 113.982 149.643 Q115.811 148.254 115.811 145.662 Q115.811 143 113.912 141.588 Q112.037 140.153 108.519 140.153 Q106.598 140.153 104.399 140.569 Q102.2 140.986 99.5607 141.865 L99.5607 137.699 Q102.223 136.958 104.538 136.588 Q106.875 136.217 108.936 136.217 Q114.26 136.217 117.362 138.648 Q120.463 141.055 120.463 145.176 Q120.463 148.046 118.82 150.037 Q117.176 152.004 114.144 152.768 Z" fill="#000000" fill-rule="nonzero" fill-opacity="1" /><path clip-path="url(#clip060)" d="M130.139 165.523 L135.023 165.523 L135.023 171.402 L130.139 171.402 L130.139 165.523 Z" fill="#000000" fill-rule="nonzero" fill-opacity="1" /><path clip-path="url(#clip060)" d="M155.209 139.921 Q151.597 139.921 149.769 143.486 Q147.963 147.027 147.963 154.157 Q147.963 161.264 149.769 164.828 Q151.597 168.37 155.209 168.37 Q158.843 168.37 160.648 164.828 Q162.477 161.264 162.477 154.157 Q162.477 147.027 160.648 143.486 Q158.843 139.921 155.209 139.921 M155.209 136.217 Q161.019 136.217 164.074 140.824 Q167.153 145.407 167.153 154.157 Q167.153 162.884 164.074 167.49 Q161.019 172.074 155.209 172.074 Q149.398 172.074 146.32 167.49 Q143.264 162.884 143.264 154.157 Q143.264 145.407 146.32 140.824 Q149.398 136.217 155.209 136.217 Z" fill="#000000" fill-rule="nonzero" fill-opacity="1" /><path clip-path="url(#clip060)" d="M185.37 139.921 Q181.759 139.921 179.931 143.486 Q178.125 147.027 178.125 154.157 Q178.125 161.264 179.931 164.828 Q181.759 168.37 185.37 168.37 Q189.005 168.37 190.81 164.828 Q192.639 161.264 192.639 154.157 Q192.639 147.027 190.81 143.486 Q189.005 139.921 185.37 139.921 M185.37 136.217 Q191.181 136.217 194.236 140.824 Q197.315 145.407 197.315 154.157 Q197.315 162.884 194.236 167.49 Q191.181 172.074 185.37 172.074 Q179.56 172.074 176.482 167.49 Q173.426 162.884 173.426 154.157 Q173.426 145.407 176.482 140.824 Q179.56 136.217 185.37 136.217 Z" fill="#000000" fill-rule="nonzero" fill-opacity="1" /><path clip-path="url(#clip060)" d="M233.704 145.94 L223.125 156.564 L233.704 167.143 L230.949 169.944 L220.324 159.319 L209.699 169.944 L206.968 167.143 L217.523 156.564 L206.968 145.94 L209.699 143.139 L220.324 153.764 L230.949 143.139 L233.704 145.94 Z" fill="#000000" fill-rule="nonzero" fill-opacity="1" /><path clip-path="url(#clip060)" d="M246.065 167.467 L253.703 167.467 L253.703 141.102 L245.393 142.768 L245.393 138.509 L253.657 136.842 L258.333 136.842 L258.333 167.467 L265.972 167.467 L265.972 171.402 L246.065 171.402 L246.065 167.467 Z" fill="#000000" fill-rule="nonzero" fill-opacity="1" /><path clip-path="url(#clip060)" d="M285.416 139.921 Q281.805 139.921 279.976 143.486 Q278.171 147.027 278.171 154.157 Q278.171 161.264 279.976 164.828 Q281.805 168.37 285.416 168.37 Q289.05 168.37 290.856 164.828 Q292.685 161.264 292.685 154.157 Q292.685 147.027 290.856 143.486 Q289.05 139.921 285.416 139.921 M285.416 136.217 Q291.226 136.217 294.282 140.824 Q297.361 145.407 297.361 154.157 Q297.361 162.884 294.282 167.49 Q291.226 172.074 285.416 172.074 Q279.606 172.074 276.527 167.49 Q273.472 162.884 273.472 154.157 Q273.472 145.407 276.527 140.824 Q279.606 136.217 285.416 136.217 Z" fill="#000000" fill-rule="nonzero" fill-opacity="1" /><path clip-path="url(#clip060)" d="M299.166 143.409 L299.166 139.948 Q300.596 140.625 302.063 140.983 Q303.53 141.34 304.94 141.34 Q308.702 141.34 310.676 138.82 Q312.67 136.281 312.952 131.127 Q311.861 132.745 310.187 133.61 Q308.514 134.475 306.482 134.475 Q302.269 134.475 299.806 131.936 Q297.361 129.378 297.361 124.958 Q297.361 120.633 299.918 118.018 Q302.476 115.404 306.727 115.404 Q311.598 115.404 314.156 119.147 Q316.733 122.871 316.733 129.98 Q316.733 136.619 313.573 140.588 Q310.432 144.537 305.109 144.537 Q303.68 144.537 302.213 144.255 Q300.746 143.973 299.166 143.409 M306.727 131.504 Q309.285 131.504 310.771 129.754 Q312.275 128.005 312.275 124.958 Q312.275 121.93 310.771 120.181 Q309.285 118.413 306.727 118.413 Q304.169 118.413 302.664 120.181 Q301.179 121.93 301.179 124.958 Q301.179 128.005 302.664 129.754 Q304.169 131.504 306.727 131.504 Z" fill="#000000" fill-rule="nonzero" fill-opacity="1" /><path clip-path="url(#clip060)" d="M-9.64527 840.632 L0.4762 840.632 L0.4762 828.569 L5.02768 828.569 L5.02768 840.632 L24.3794 840.632 Q28.7399 840.632 29.9813 839.454 Q31.2226 838.245 31.2226 834.584 L31.2226 828.569 L36.1242 828.569 L36.1242 834.584 Q36.1242 841.364 33.6097 843.942 Q31.0634 846.52 24.3794 846.52 L5.02768 846.52 L5.02768 850.817 L0.4762 850.817 L0.4762 846.52 L-9.64527 846.52 L-9.64527 840.632 Z" fill="#000000" fill-rule="nonzero" fill-opacity="1" /><path clip-path="url(#clip060)" d="M-11.3958 789.738 L-11.3958 784.327 L42.1716 800.878 L42.1716 806.289 L-11.3958 789.738 Z" fill="#000000" fill-rule="nonzero" fill-opacity="1" /><path clip-path="url(#clip060)" d="M14.6081 727.831 L36.1242 727.831 L36.1242 733.688 L14.799 733.688 Q9.7383 733.688 7.22385 735.661 Q4.7094 737.635 4.7094 741.581 Q4.7094 746.324 7.73311 749.061 Q10.7568 751.798 15.9767 751.798 L36.1242 751.798 L36.1242 757.687 L0.4762 757.687 L0.4762 751.798 L6.01437 751.798 Q2.79968 749.698 1.20826 746.865 Q-0.38317 744 -0.38317 740.276 Q-0.38317 734.133 3.43625 730.982 Q7.22385 727.831 14.6081 727.831 Z" fill="#000000" fill-rule="nonzero" fill-opacity="1" /><path clip-path="url(#clip060)" d="M1.52654 693.425 L7.06471 693.425 Q5.79157 695.907 5.15499 698.581 Q4.51842 701.255 4.51842 704.119 Q4.51842 708.48 5.85522 710.676 Q7.19202 712.84 9.86562 712.84 Q11.9026 712.84 13.0803 711.281 Q14.2261 709.721 15.2765 705.01 L15.7221 703.005 Q17.0589 696.767 19.5097 694.157 Q21.9286 691.515 26.2891 691.515 Q31.2544 691.515 34.1508 695.462 Q37.0472 699.377 37.0472 706.252 Q37.0472 709.116 36.4743 712.235 Q35.9332 715.323 34.8192 718.76 L28.7718 718.76 Q30.4587 715.514 31.318 712.363 Q32.1456 709.212 32.1456 706.124 Q32.1456 701.987 30.7451 699.759 Q29.3129 697.531 26.7347 697.531 Q24.3476 697.531 23.0745 699.154 Q21.8013 700.745 20.6237 706.188 L20.1462 708.225 Q19.0004 713.668 16.6451 716.087 Q14.258 718.506 10.1202 718.506 Q5.09134 718.506 2.35408 714.941 Q-0.38317 711.376 -0.38317 704.819 Q-0.38317 701.573 0.0942579 698.708 Q0.571686 695.844 1.52654 693.425 Z" fill="#000000" fill-rule="nonzero" fill-opacity="1" /><path clip-path="url(#clip061)" d="M985.97 1454.11 L991.907 1453.12 L997.403 1452.13 L1002.44 1451.13 L1007.02 1450.14 L1011.12 1449.15 L1014.74 1448.15 L1017.9 1447.16 L1020.59 1446.17 L1022.84 1445.17 L1024.66 1444.18 L1026.06 1443.19 L1027.08 1442.2 L1027.75 1441.2 L1028.08 1440.21 L1028.13 1439.22 L1027.92 1438.22 L1027.49 1437.23 L1026.87 1436.24 L1026.1 1435.24 L1025.22 1434.25 L1024.26 1433.26 L1023.26 1432.27 L1022.25 1431.27 L1021.26 1430.28 L1020.31 1429.29 L1019.44 1428.29 L1018.66 1427.3 L1017.99 1426.31 L1017.45 1425.32 L1017.04 1424.32 L1016.78 1423.33 L1016.67 1422.34 L1016.7 1421.34 L1016.87 1420.35 L1017.17 1419.36 L1017.59 1418.36 L1018.11 1417.37 L1018.71 1416.38 L1019.37 1415.39 L1020.06 1414.39 L1020.75 1413.4 L1021.4 1412.41 L1021.99 1411.41 L1022.47 1410.42 L1022.81 1409.43 L1022.98 1408.43 L1022.93 1407.44 L1022.62 1406.45 L1022.03 1405.46 L1021.12 1404.46 L1019.86 1403.47 L1018.21 1402.48 L1016.16 1401.48 L1013.68 1400.49 L1010.76 1399.5 L1007.37 1398.5 L1003.53 1397.51 L999.213 1396.52 L994.434 1395.53 L989.199 1394.53 L983.52 1393.54 L488.249 1393.54 L482.57 1394.53 L477.335 1395.53 L472.556 1396.52 L468.242 1397.51 L464.395 1398.5 L461.013 1399.5 L458.089 1400.49 L455.609 1401.48 L453.556 1402.48 L451.911 1403.47 L450.646 1404.46 L449.735 1405.46 L449.145 1406.45 L448.842 1407.44 L448.791 1408.43 L448.956 1409.43 L449.299 1410.42 L449.781 1411.41 L450.368 1412.41 L451.022 1413.4 L451.708 1414.39 L452.396 1415.39 L453.055 1416.38 L453.657 1417.37 L454.178 1418.36 L454.599 1419.36 L454.902 1420.35 L455.073 1421.34 L455.104 1422.34 L454.989 1423.33 L454.728 1424.32 L454.322 1425.32 L453.779 1426.31 L453.111 1427.3 L452.331 1428.29 L451.457 1429.29 L450.512 1430.28 L449.52 1431.27 L448.509 1432.27 L447.508 1433.26 L446.551 1434.25 L445.671 1435.24 L444.903 1436.24 L444.284 1437.23 L443.851 1438.22 L443.639 1439.22 L443.685 1440.21 L444.024 1441.2 L444.688 1442.2 L445.708 1443.19 L447.114 1444.18 L448.928 1445.17 L451.174 1446.17 L453.868 1447.16 L457.024 1448.15 L460.651 1449.15 L464.751 1450.14 L469.325 1451.13 L474.366 1452.13 L479.862 1453.12 L485.799 1454.11 L985.97 1454.11  Z" fill="#009af9" fill-rule="evenodd" fill-opacity="1"/>
<polyline clip-path="url(#clip061)" style="stroke:#000000; stroke-linecap:round; stroke-linejoin:round; stroke-width:4; stroke-opacity:1; fill:none" points="985.97,1454.11 991.907,1453.12 997.403,1452.13 1002.44,1451.13 1007.02,1450.14 1011.12,1449.15 1014.74,1448.15 1017.9,1447.16 1020.59,1446.17 1022.84,1445.17 1024.66,1444.18 1026.06,1443.19 1027.08,1442.2 1027.75,1441.2 1028.08,1440.21 1028.13,1439.22 1027.92,1438.22 1027.49,1437.23 1026.87,1436.24 1026.1,1435.24 1025.22,1434.25 1024.26,1433.26 1023.26,1432.27 1022.25,1431.27 1021.26,1430.28 1020.31,1429.29 1019.44,1428.29 1018.66,1427.3 1017.99,1426.31 1017.45,1425.32 1017.04,1424.32 1016.78,1423.33 1016.67,1422.34 1016.7,1421.34 1016.87,1420.35 1017.17,1419.36 1017.59,1418.36 1018.11,1417.37 1018.71,1416.38 1019.37,1415.39 1020.06,1414.39 1020.75,1413.4 1021.4,1412.41 1021.99,1411.41 1022.47,1410.42 1022.81,1409.43 1022.98,1408.43 1022.93,1407.44 1022.62,1406.45 1022.03,1405.46 1021.12,1404.46 1019.86,1403.47 1018.21,1402.48 1016.16,1401.48 1013.68,1400.49 1010.76,1399.5 1007.37,1398.5 1003.53,1397.51 999.213,1396.52 994.434,1395.53 989.199,1394.53 983.52,1393.54 488.249,1393.54 482.57,1394.53 477.335,1395.53 472.556,1396.52 468.242,1397.51 464.395,1398.5 461.013,1399.5 458.089,1400.49 455.609,1401.48 453.556,1402.48 451.911,1403.47 450.646,1404.46 449.735,1405.46 449.145,1406.45 448.842,1407.44 448.791,1408.43 448.956,1409.43 449.299,1410.42 449.781,1411.41 450.368,1412.41 451.022,1413.4 451.708,1414.39 452.396,1415.39 453.055,1416.38 453.657,1417.37 454.178,1418.36 454.599,1419.36 454.902,1420.35 455.073,1421.34 455.104,1422.34 454.989,1423.33 454.728,1424.32 454.322,1425.32 453.779,1426.31 453.111,1427.3 452.331,1428.29 451.457,1429.29 450.512,1430.28 449.52,1431.27 448.509,1432.27 447.508,1433.26 446.551,1434.25 445.671,1435.24 444.903,1436.24 444.284,1437.23 443.851,1438.22 443.639,1439.22 443.685,1440.21 444.024,1441.2 444.688,1442.2 445.708,1443.19 447.114,1444.18 448.928,1445.17 451.174,1446.17 453.868,1447.16 457.024,1448.15 460.651,1449.15 464.751,1450.14 469.325,1451.13 474.366,1452.13 479.862,1453.12 485.799,1454.11 985.97,1454.11 "/>
<path clip-path="url(#clip061)" d="M2014.35 344.771 L2020.86 343.217 L2026.83 341.664 L2032.2 340.11 L2036.94 338.556 L2041.03 337.002 L2044.43 335.449 L2047.13 333.895 L2049.13 332.341 L2050.41 330.787 L2050.99 329.233 L2050.87 327.68 L2050.08 326.126 L2048.64 324.572 L2046.59 323.018 L2043.97 321.465 L2040.82 319.911 L2037.2 318.357 L2033.16 316.803 L2028.78 315.249 L2024.1 313.696 L2019.21 312.142 L2014.17 310.588 L2009.05 309.034 L2003.91 307.48 L1998.83 305.927 L1993.87 304.373 L1989.1 302.819 L1984.56 301.265 L1980.31 299.712 L1976.39 298.158 L1972.84 296.604 L1969.7 295.05 L1966.99 293.496 L1964.71 291.943 L1962.88 290.389 L1961.5 288.835 L1960.55 287.281 L1960.02 285.728 L1959.89 284.174 L1960.11 282.62 L1960.66 281.066 L1961.48 279.512 L1962.53 277.959 L1963.76 276.405 L1965.1 274.851 L1966.5 273.297 L1967.9 271.744 L1969.24 270.19 L1970.45 268.636 L1971.49 267.082 L1972.3 265.528 L1972.82 263.975 L1973.01 262.421 L1972.84 260.867 L1972.25 259.313 L1971.23 257.759 L1969.75 256.206 L1967.8 254.652 L1965.37 253.098 L1552.12 253.098 L1549.69 254.652 L1547.73 256.206 L1546.26 257.759 L1545.24 259.313 L1544.65 260.867 L1544.48 262.421 L1544.67 263.975 L1545.19 265.528 L1546 267.082 L1547.04 268.636 L1548.25 270.19 L1549.59 271.744 L1550.99 273.297 L1552.39 274.851 L1553.73 276.405 L1554.96 277.959 L1556.01 279.512 L1556.83 281.066 L1557.38 282.62 L1557.6 284.174 L1557.47 285.728 L1556.94 287.281 L1555.99 288.835 L1554.61 290.389 L1552.78 291.943 L1550.5 293.496 L1547.79 295.05 L1544.64 296.604 L1541.1 298.158 L1537.18 299.712 L1532.93 301.265 L1528.39 302.819 L1523.61 304.373 L1518.66 305.927 L1513.58 307.48 L1508.44 309.034 L1503.32 310.588 L1498.28 312.142 L1493.38 313.696 L1488.71 315.249 L1484.32 316.803 L1480.29 318.357 L1476.67 319.911 L1473.52 321.465 L1470.9 323.018 L1468.85 324.572 L1467.41 326.126 L1466.62 327.68 L1466.5 329.233 L1467.08 330.787 L1468.36 332.341 L1470.36 333.895 L1473.06 335.449 L1476.46 337.002 L1480.55 338.556 L1485.29 340.11 L1490.66 341.664 L1496.63 343.217 L1503.14 344.771 L2014.35 344.771  Z" fill="#e26f46" fill-rule="evenodd" fill-opacity="1"/>
<polyline clip-path="url(#clip061)" style="stroke:#000000; stroke-linecap:round; stroke-linejoin:round; stroke-width:4; stroke-opacity:1; fill:none" points="2014.35,344.771 2020.86,343.217 2026.83,341.664 2032.2,340.11 2036.94,338.556 2041.03,337.002 2044.43,335.449 2047.13,333.895 2049.13,332.341 2050.41,330.787 2050.99,329.233 2050.87,327.68 2050.08,326.126 2048.64,324.572 2046.59,323.018 2043.97,321.465 2040.82,319.911 2037.2,318.357 2033.16,316.803 2028.78,315.249 2024.1,313.696 2019.21,312.142 2014.17,310.588 2009.05,309.034 2003.91,307.48 1998.83,305.927 1993.87,304.373 1989.1,302.819 1984.56,301.265 1980.31,299.712 1976.39,298.158 1972.84,296.604 1969.7,295.05 1966.99,293.496 1964.71,291.943 1962.88,290.389 1961.5,288.835 1960.55,287.281 1960.02,285.728 1959.89,284.174 1960.11,282.62 1960.66,281.066 1961.48,279.512 1962.53,277.959 1963.76,276.405 1965.1,274.851 1966.5,273.297 1967.9,271.744 1969.24,270.19 1970.45,268.636 1971.49,267.082 1972.3,265.528 1972.82,263.975 1973.01,262.421 1972.84,260.867 1972.25,259.313 1971.23,257.759 1969.75,256.206 1967.8,254.652 1965.37,253.098 1552.12,253.098 1549.69,254.652 1547.73,256.206 1546.26,257.759 1545.24,259.313 1544.65,260.867 1544.48,262.421 1544.67,263.975 1545.19,265.528 1546,267.082 1547.04,268.636 1548.25,270.19 1549.59,271.744 1550.99,273.297 1552.39,274.851 1553.73,276.405 1554.96,277.959 1556.01,279.512 1556.83,281.066 1557.38,282.62 1557.6,284.174 1557.47,285.728 1556.94,287.281 1555.99,288.835 1554.61,290.389 1552.78,291.943 1550.5,293.496 1547.79,295.05 1544.64,296.604 1541.1,298.158 1537.18,299.712 1532.93,301.265 1528.39,302.819 1523.61,304.373 1518.66,305.927 1513.58,307.48 1508.44,309.034 1503.32,310.588 1498.28,312.142 1493.38,313.696 1488.71,315.249 1484.32,316.803 1480.29,318.357 1476.67,319.911 1473.52,321.465 1470.9,323.018 1468.85,324.572 1467.41,326.126 1466.62,327.68 1466.5,329.233 1467.08,330.787 1468.36,332.341 1470.36,333.895 1473.06,335.449 1476.46,337.002 1480.55,338.556 1485.29,340.11 1490.66,341.664 1496.63,343.217 1503.14,344.771 2014.35,344.771 "/>
<path clip-path="url(#clip061)" d="M3044.66 130.815 L3049.46 130.179 L3053.75 129.544 L3057.53 128.908 L3060.83 128.272 L3063.67 127.636 L3066.07 127.001 L3068.06 126.365 L3069.69 125.729 L3070.98 125.093 L3071.98 124.458 L3072.72 123.822 L3073.24 123.186 L3073.58 122.551 L3073.78 121.915 L3073.85 121.279 L3073.83 120.643 L3073.73 120.008 L3073.58 119.372 L3073.37 118.736 L3073.11 118.1 L3072.79 117.465 L3072.42 116.829 L3071.97 116.193 L3071.43 115.557 L3070.78 114.922 L3069.99 114.286 L3069.05 113.65 L3067.93 113.014 L3066.6 112.379 L3065.04 111.743 L3063.24 111.107 L3061.18 110.472 L3058.85 109.836 L3056.23 109.2 L3053.34 108.564 L3050.16 107.929 L3046.72 107.293 L3043.02 106.657 L3039.09 106.021 L3034.94 105.386 L3030.62 104.75 L3026.13 104.114 L3021.53 103.478 L3016.84 102.843 L3012.1 102.207 L3007.35 101.571 L3002.61 100.936 L2997.92 100.3 L2993.32 99.664 L2988.81 99.0283 L2984.43 98.3926 L2980.19 97.7568 L2976.1 97.1211 L2972.16 96.4854 L2968.38 95.8496 L2964.75 95.2139 L2961.26 94.5782 L2957.9 93.9424 L2954.64 93.3067 L2951.48 92.671 L2948.38 92.0352 L2945.31 91.3995 L2942.26 90.7637 L2939.2 90.128 L2936.09 89.4923 L2932.92 88.8565 L2929.66 88.2208 L2633.54 88.2208 L2630.29 88.8565 L2627.12 89.4923 L2624.01 90.128 L2620.94 90.7637 L2617.89 91.3995 L2614.83 92.0352 L2611.73 92.671 L2608.56 93.3067 L2605.31 93.9424 L2601.95 94.5782 L2598.46 95.2139 L2594.83 95.8496 L2591.05 96.4854 L2587.11 97.1211 L2583.02 97.7568 L2578.78 98.3926 L2574.4 99.0283 L2569.89 99.664 L2565.28 100.3 L2560.6 100.936 L2555.86 101.571 L2551.11 102.207 L2546.37 102.843 L2541.68 103.478 L2537.08 104.114 L2532.59 104.75 L2528.26 105.386 L2524.12 106.021 L2520.19 106.657 L2516.49 107.293 L2513.05 107.929 L2509.87 108.564 L2506.98 109.2 L2504.36 109.836 L2502.03 110.472 L2499.97 111.107 L2498.17 111.743 L2496.61 112.379 L2495.28 113.014 L2494.16 113.65 L2493.21 114.286 L2492.43 114.922 L2491.78 115.557 L2491.24 116.193 L2490.79 116.829 L2490.41 117.465 L2490.1 118.1 L2489.84 118.736 L2489.63 119.372 L2489.47 120.008 L2489.38 120.643 L2489.36 121.279 L2489.43 121.915 L2489.63 122.551 L2489.97 123.186 L2490.49 123.822 L2491.23 124.458 L2492.23 125.093 L2493.52 125.729 L2495.14 126.365 L2497.14 127.001 L2499.54 127.636 L2502.37 128.272 L2505.67 128.908 L2509.46 129.544 L2513.75 130.179 L2518.55 130.815 L3044.66 130.815  Z" fill="#3da44d" fill-rule="evenodd" fill-opacity="1"/>
<polyline clip-path="url(#clip061)" style="stroke:#000000; stroke-linecap:round; stroke-linejoin:round; stroke-width:4; stroke-opacity:1; fill:none" points="3044.66,130.815 3049.46,130.179 3053.75,129.544 3057.53,128.908 3060.83,128.272 3063.67,127.636 3066.07,127.001 3068.06,126.365 3069.69,125.729 3070.98,125.093 3071.98,124.458 3072.72,123.822 3073.24,123.186 3073.58,122.551 3073.78,121.915 3073.85,121.279 3073.83,120.643 3073.73,120.008 3073.58,119.372 3073.37,118.736 3073.11,118.1 3072.79,117.465 3072.42,116.829 3071.97,116.193 3071.43,115.557 3070.78,114.922 3069.99,114.286 3069.05,113.65 3067.93,113.014 3066.6,112.379 3065.04,111.743 3063.24,111.107 3061.18,110.472 3058.85,109.836 3056.23,109.2 3053.34,108.564 3050.16,107.929 3046.72,107.293 3043.02,106.657 3039.09,106.021 3034.94,105.386 3030.62,104.75 3026.13,104.114 3021.53,103.478 3016.84,102.843 3012.1,102.207 3007.35,101.571 3002.61,100.936 2997.92,100.3 2993.32,99.664 2988.81,99.0283 2984.43,98.3926 2980.19,97.7568 2976.1,97.1211 2972.16,96.4854 2968.38,95.8496 2964.75,95.2139 2961.26,94.5782 2957.9,93.9424 2954.64,93.3067 2951.48,92.671 2948.38,92.0352 2945.31,91.3995 2942.26,90.7637 2939.2,90.128 2936.09,89.4923 2932.92,88.8565 2929.66,88.2208 2633.54,88.2208 2630.29,88.8565 2627.12,89.4923 2624.01,90.128 2620.94,90.7637 2617.89,91.3995 2614.83,92.0352 2611.73,92.671 2608.56,93.3067 2605.31,93.9424 2601.95,94.5782 2598.46,95.2139 2594.83,95.8496 2591.05,96.4854 2587.11,97.1211 2583.02,97.7568 2578.78,98.3926 2574.4,99.0283 2569.89,99.664 2565.28,100.3 2560.6,100.936 2555.86,101.571 2551.11,102.207 2546.37,102.843 2541.68,103.478 2537.08,104.114 2532.59,104.75 2528.26,105.386 2524.12,106.021 2520.19,106.657 2516.49,107.293 2513.05,107.929 2509.87,108.564 2506.98,109.2 2504.36,109.836 2502.03,110.472 2499.97,111.107 2498.17,111.743 2496.61,112.379 2495.28,113.014 2494.16,113.65 2493.21,114.286 2492.43,114.922 2491.78,115.557 2491.24,116.193 2490.79,116.829 2490.41,117.465 2490.1,118.1 2489.84,118.736 2489.63,119.372 2489.47,120.008 2489.38,120.643 2489.36,121.279 2489.43,121.915 2489.63,122.551 2489.97,123.186 2490.49,123.822 2491.23,124.458 2492.23,125.093 2493.52,125.729 2495.14,126.365 2497.14,127.001 2499.54,127.636 2502.37,128.272 2505.67,128.908 2509.46,129.544 2513.75,130.179 2518.55,130.815 3044.66,130.815 "/>
</svg>
