<?xml version="1.0" encoding="utf-8"?>
<svg xmlns="http://www.w3.org/2000/svg" xmlns:xlink="http://www.w3.org/1999/xlink" width="600" height="400" viewBox="0 0 2400 1600">
<defs>
  <clipPath id="clip770">
    <rect x="0" y="0" width="2400" height="1600"/>
  </clipPath>
</defs>
<path clip-path="url(#clip770)" d="M0 1600 L2400 1600 L2400 0 L0 0  Z" fill="#ffffff" fill-rule="evenodd" fill-opacity="1"/>
<defs>
  <clipPath id="clip771">
    <rect x="265" y="47" width="2088" height="1377"/>
  </clipPath>
</defs>
<path clip-path="url(#clip770)" d="M265.445 1423.18 L2352.76 1423.18 L2352.76 47.2441 L265.445 47.2441  Z" fill="#ffffff" fill-rule="evenodd" fill-opacity="1"/>
<polyline clip-path="url(#clip771)" style="stroke:#000000; stroke-linecap:round; stroke-linejoin:round; stroke-width:2; stroke-opacity:0.1; fill:none" points="304.629,1423.18 304.629,47.2441 "/>
<polyline clip-path="url(#clip771)" style="stroke:#000000; stroke-linecap:round; stroke-linejoin:round; stroke-width:2; stroke-opacity:0.1; fill:none" points="801.892,1423.18 801.892,47.2441 "/>
<polyline clip-path="url(#clip771)" style="stroke:#000000; stroke-linecap:round; stroke-linejoin:round; stroke-width:2; stroke-opacity:0.1; fill:none" points="1299.16,1423.18 1299.16,47.2441 "/>
<polyline clip-path="url(#clip771)" style="stroke:#000000; stroke-linecap:round; stroke-linejoin:round; stroke-width:2; stroke-opacity:0.1; fill:none" points="1796.42,1423.18 1796.42,47.2441 "/>
<polyline clip-path="url(#clip771)" style="stroke:#000000; stroke-linecap:round; stroke-linejoin:round; stroke-width:2; stroke-opacity:0.1; fill:none" points="2293.68,1423.18 2293.68,47.2441 "/>
<polyline clip-path="url(#clip771)" style="stroke:#000000; stroke-linecap:round; stroke-linejoin:round; stroke-width:2; stroke-opacity:0.1; fill:none" points="265.445,1334.08 2352.76,1334.08 "/>
<polyline clip-path="url(#clip771)" style="stroke:#000000; stroke-linecap:round; stroke-linejoin:round; stroke-width:2; stroke-opacity:0.1; fill:none" points="265.445,1084.34 2352.76,1084.34 "/>
<polyline clip-path="url(#clip771)" style="stroke:#000000; stroke-linecap:round; stroke-linejoin:round; stroke-width:2; stroke-opacity:0.1; fill:none" points="265.445,834.588 2352.76,834.588 "/>
<polyline clip-path="url(#clip771)" style="stroke:#000000; stroke-linecap:round; stroke-linejoin:round; stroke-width:2; stroke-opacity:0.1; fill:none" points="265.445,584.84 2352.76,584.84 "/>
<polyline clip-path="url(#clip771)" style="stroke:#000000; stroke-linecap:round; stroke-linejoin:round; stroke-width:2; stroke-opacity:0.1; fill:none" points="265.445,335.093 2352.76,335.093 "/>
<polyline clip-path="url(#clip771)" style="stroke:#000000; stroke-linecap:round; stroke-linejoin:round; stroke-width:2; stroke-opacity:0.1; fill:none" points="265.445,85.3459 2352.76,85.3459 "/>
<polyline clip-path="url(#clip770)" style="stroke:#000000; stroke-linecap:round; stroke-linejoin:round; stroke-width:4; stroke-opacity:1; fill:none" points="265.445,1423.18 2352.76,1423.18 "/>
<polyline clip-path="url(#clip770)" style="stroke:#000000; stroke-linecap:round; stroke-linejoin:round; stroke-width:4; stroke-opacity:1; fill:none" points="304.629,1423.18 304.629,1404.28 "/>
<polyline clip-path="url(#clip770)" style="stroke:#000000; stroke-linecap:round; stroke-linejoin:round; stroke-width:4; stroke-opacity:1; fill:none" points="801.892,1423.18 801.892,1404.28 "/>
<polyline clip-path="url(#clip770)" style="stroke:#000000; stroke-linecap:round; stroke-linejoin:round; stroke-width:4; stroke-opacity:1; fill:none" points="1299.16,1423.18 1299.16,1404.28 "/>
<polyline clip-path="url(#clip770)" style="stroke:#000000; stroke-linecap:round; stroke-linejoin:round; stroke-width:4; stroke-opacity:1; fill:none" points="1796.42,1423.18 1796.42,1404.28 "/>
<polyline clip-path="url(#clip770)" style="stroke:#000000; stroke-linecap:round; stroke-linejoin:round; stroke-width:4; stroke-opacity:1; fill:none" points="2293.68,1423.18 2293.68,1404.28 "/>
<path clip-path="url(#clip770)" d="M304.629 1454.1 Q301.018 1454.1 299.189 1457.66 Q297.384 1461.2 297.384 1468.33 Q297.384 1475.44 299.189 1479.01 Q301.018 1482.55 304.629 1482.55 Q308.263 1482.55 310.069 1479.01 Q311.898 1475.44 311.898 1468.33 Q311.898 1461.2 310.069 1457.66 Q308.263 1454.1 304.629 1454.1 M304.629 1450.39 Q310.439 1450.39 313.495 1455 Q316.573 1459.58 316.573 1468.33 Q316.573 1477.06 313.495 1481.67 Q310.439 1486.25 304.629 1486.25 Q298.819 1486.25 295.74 1481.67 Q292.685 1477.06 292.685 1468.33 Q292.685 1459.58 295.74 1455 Q298.819 1450.39 304.629 1450.39 Z" fill="#000000" fill-rule="nonzero" fill-opacity="1" /><path clip-path="url(#clip770)" d="M765.584 1481.64 L781.904 1481.64 L781.904 1485.58 L759.959 1485.58 L759.959 1481.64 Q762.621 1478.89 767.205 1474.26 Q771.811 1469.61 772.992 1468.27 Q775.237 1465.74 776.117 1464.01 Q777.02 1462.25 777.02 1460.56 Q777.02 1457.8 775.075 1456.07 Q773.154 1454.33 770.052 1454.33 Q767.853 1454.33 765.399 1455.09 Q762.969 1455.86 760.191 1457.41 L760.191 1452.69 Q763.015 1451.55 765.469 1450.97 Q767.922 1450.39 769.959 1450.39 Q775.33 1450.39 778.524 1453.08 Q781.719 1455.77 781.719 1460.26 Q781.719 1462.39 780.908 1464.31 Q780.121 1466.2 778.015 1468.8 Q777.436 1469.47 774.334 1472.69 Q771.232 1475.88 765.584 1481.64 Z" fill="#000000" fill-rule="nonzero" fill-opacity="1" /><path clip-path="url(#clip770)" d="M791.765 1451.02 L810.121 1451.02 L810.121 1454.96 L796.047 1454.96 L796.047 1463.43 Q797.066 1463.08 798.084 1462.92 Q799.103 1462.73 800.121 1462.73 Q805.908 1462.73 809.288 1465.9 Q812.667 1469.08 812.667 1474.49 Q812.667 1480.07 809.195 1483.17 Q805.723 1486.25 799.404 1486.25 Q797.228 1486.25 794.959 1485.88 Q792.714 1485.51 790.306 1484.77 L790.306 1480.07 Q792.39 1481.2 794.612 1481.76 Q796.834 1482.32 799.311 1482.32 Q803.316 1482.32 805.654 1480.21 Q807.992 1478.1 807.992 1474.49 Q807.992 1470.88 805.654 1468.77 Q803.316 1466.67 799.311 1466.67 Q797.436 1466.67 795.561 1467.08 Q793.709 1467.5 791.765 1468.38 L791.765 1451.02 Z" fill="#000000" fill-rule="nonzero" fill-opacity="1" /><path clip-path="url(#clip770)" d="M831.88 1454.1 Q828.269 1454.1 826.441 1457.66 Q824.635 1461.2 824.635 1468.33 Q824.635 1475.44 826.441 1479.01 Q828.269 1482.55 831.88 1482.55 Q835.515 1482.55 837.32 1479.01 Q839.149 1475.44 839.149 1468.33 Q839.149 1461.2 837.32 1457.66 Q835.515 1454.1 831.88 1454.1 M831.88 1450.39 Q837.69 1450.39 840.746 1455 Q843.825 1459.58 843.825 1468.33 Q843.825 1477.06 840.746 1481.67 Q837.69 1486.25 831.88 1486.25 Q826.07 1486.25 822.991 1481.67 Q819.936 1477.06 819.936 1468.33 Q819.936 1459.58 822.991 1455 Q826.07 1450.39 831.88 1450.39 Z" fill="#000000" fill-rule="nonzero" fill-opacity="1" /><path clip-path="url(#clip770)" d="M1258.77 1451.02 L1277.13 1451.02 L1277.13 1454.96 L1263.06 1454.96 L1263.06 1463.43 Q1264.07 1463.08 1265.09 1462.92 Q1266.11 1462.73 1267.13 1462.73 Q1272.92 1462.73 1276.3 1465.9 Q1279.68 1469.08 1279.68 1474.49 Q1279.68 1480.07 1276.2 1483.17 Q1272.73 1486.25 1266.41 1486.25 Q1264.24 1486.25 1261.97 1485.88 Q1259.72 1485.51 1257.32 1484.77 L1257.32 1480.07 Q1259.4 1481.2 1261.62 1481.76 Q1263.84 1482.32 1266.32 1482.32 Q1270.32 1482.32 1272.66 1480.21 Q1275 1478.1 1275 1474.49 Q1275 1470.88 1272.66 1468.77 Q1270.32 1466.67 1266.32 1466.67 Q1264.44 1466.67 1262.57 1467.08 Q1260.72 1467.5 1258.77 1468.38 L1258.77 1451.02 Z" fill="#000000" fill-rule="nonzero" fill-opacity="1" /><path clip-path="url(#clip770)" d="M1298.89 1454.1 Q1295.28 1454.1 1293.45 1457.66 Q1291.64 1461.2 1291.64 1468.33 Q1291.64 1475.44 1293.45 1479.01 Q1295.28 1482.55 1298.89 1482.55 Q1302.52 1482.55 1304.33 1479.01 Q1306.16 1475.44 1306.16 1468.33 Q1306.16 1461.2 1304.33 1457.66 Q1302.52 1454.1 1298.89 1454.1 M1298.89 1450.39 Q1304.7 1450.39 1307.75 1455 Q1310.83 1459.58 1310.83 1468.33 Q1310.83 1477.06 1307.75 1481.67 Q1304.7 1486.25 1298.89 1486.25 Q1293.08 1486.25 1290 1481.67 Q1286.94 1477.06 1286.94 1468.33 Q1286.94 1459.58 1290 1455 Q1293.08 1450.39 1298.89 1450.39 Z" fill="#000000" fill-rule="nonzero" fill-opacity="1" /><path clip-path="url(#clip770)" d="M1329.05 1454.1 Q1325.44 1454.1 1323.61 1457.66 Q1321.81 1461.2 1321.81 1468.33 Q1321.81 1475.44 1323.61 1479.01 Q1325.44 1482.55 1329.05 1482.55 Q1332.68 1482.55 1334.49 1479.01 Q1336.32 1475.44 1336.32 1468.33 Q1336.32 1461.2 1334.49 1457.66 Q1332.68 1454.1 1329.05 1454.1 M1329.05 1450.39 Q1334.86 1450.39 1337.92 1455 Q1341 1459.58 1341 1468.33 Q1341 1477.06 1337.92 1481.67 Q1334.86 1486.25 1329.05 1486.25 Q1323.24 1486.25 1320.16 1481.67 Q1317.11 1477.06 1317.11 1468.33 Q1317.11 1459.58 1320.16 1455 Q1323.24 1450.39 1329.05 1450.39 Z" fill="#000000" fill-rule="nonzero" fill-opacity="1" /><path clip-path="url(#clip770)" d="M1754.69 1451.02 L1776.92 1451.02 L1776.92 1453.01 L1764.37 1485.58 L1759.49 1485.58 L1771.29 1454.96 L1754.69 1454.96 L1754.69 1451.02 Z" fill="#000000" fill-rule="nonzero" fill-opacity="1" /><path clip-path="url(#clip770)" d="M1786.08 1451.02 L1804.44 1451.02 L1804.44 1454.96 L1790.36 1454.96 L1790.36 1463.43 Q1791.38 1463.08 1792.4 1462.92 Q1793.42 1462.73 1794.44 1462.73 Q1800.23 1462.73 1803.61 1465.9 Q1806.99 1469.08 1806.99 1474.49 Q1806.99 1480.07 1803.51 1483.17 Q1800.04 1486.25 1793.72 1486.25 Q1791.55 1486.25 1789.28 1485.88 Q1787.03 1485.51 1784.62 1484.77 L1784.62 1480.07 Q1786.71 1481.2 1788.93 1481.76 Q1791.15 1482.32 1793.63 1482.32 Q1797.63 1482.32 1799.97 1480.21 Q1802.31 1478.1 1802.31 1474.49 Q1802.31 1470.88 1799.97 1468.77 Q1797.63 1466.67 1793.63 1466.67 Q1791.75 1466.67 1789.88 1467.08 Q1788.03 1467.5 1786.08 1468.38 L1786.08 1451.02 Z" fill="#000000" fill-rule="nonzero" fill-opacity="1" /><path clip-path="url(#clip770)" d="M1826.2 1454.1 Q1822.59 1454.1 1820.76 1457.66 Q1818.95 1461.2 1818.95 1468.33 Q1818.95 1475.44 1820.76 1479.01 Q1822.59 1482.55 1826.2 1482.55 Q1829.83 1482.55 1831.64 1479.01 Q1833.47 1475.44 1833.47 1468.33 Q1833.47 1461.2 1831.64 1457.66 Q1829.83 1454.1 1826.2 1454.1 M1826.2 1450.39 Q1832.01 1450.39 1835.06 1455 Q1838.14 1459.58 1838.14 1468.33 Q1838.14 1477.06 1835.06 1481.67 Q1832.01 1486.25 1826.2 1486.25 Q1820.39 1486.25 1817.31 1481.67 Q1814.25 1477.06 1814.25 1468.33 Q1814.25 1459.58 1817.31 1455 Q1820.39 1450.39 1826.2 1450.39 Z" fill="#000000" fill-rule="nonzero" fill-opacity="1" /><path clip-path="url(#clip770)" d="M2238.21 1481.64 L2245.85 1481.64 L2245.85 1455.28 L2237.54 1456.95 L2237.54 1452.69 L2245.8 1451.02 L2250.48 1451.02 L2250.48 1481.64 L2258.11 1481.64 L2258.11 1485.58 L2238.21 1485.58 L2238.21 1481.64 Z" fill="#000000" fill-rule="nonzero" fill-opacity="1" /><path clip-path="url(#clip770)" d="M2277.56 1454.1 Q2273.95 1454.1 2272.12 1457.66 Q2270.31 1461.2 2270.31 1468.33 Q2270.31 1475.44 2272.12 1479.01 Q2273.95 1482.55 2277.56 1482.55 Q2281.19 1482.55 2283 1479.01 Q2284.83 1475.44 2284.83 1468.33 Q2284.83 1461.2 2283 1457.66 Q2281.19 1454.1 2277.56 1454.1 M2277.56 1450.39 Q2283.37 1450.39 2286.42 1455 Q2289.5 1459.58 2289.5 1468.33 Q2289.5 1477.06 2286.42 1481.67 Q2283.37 1486.25 2277.56 1486.25 Q2271.75 1486.25 2268.67 1481.67 Q2265.61 1477.06 2265.61 1468.33 Q2265.61 1459.58 2268.67 1455 Q2271.75 1450.39 2277.56 1450.39 Z" fill="#000000" fill-rule="nonzero" fill-opacity="1" /><path clip-path="url(#clip770)" d="M2307.72 1454.1 Q2304.11 1454.1 2302.28 1457.66 Q2300.48 1461.2 2300.48 1468.33 Q2300.48 1475.44 2302.28 1479.01 Q2304.11 1482.55 2307.72 1482.55 Q2311.35 1482.55 2313.16 1479.01 Q2314.99 1475.44 2314.99 1468.33 Q2314.99 1461.2 2313.16 1457.66 Q2311.35 1454.1 2307.72 1454.1 M2307.72 1450.39 Q2313.53 1450.39 2316.59 1455 Q2319.66 1459.58 2319.66 1468.33 Q2319.66 1477.06 2316.59 1481.67 Q2313.53 1486.25 2307.72 1486.25 Q2301.91 1486.25 2298.83 1481.67 Q2295.78 1477.06 2295.78 1468.33 Q2295.78 1459.58 2298.83 1455 Q2301.91 1450.39 2307.72 1450.39 Z" fill="#000000" fill-rule="nonzero" fill-opacity="1" /><path clip-path="url(#clip770)" d="M2337.88 1454.1 Q2334.27 1454.1 2332.44 1457.66 Q2330.64 1461.2 2330.64 1468.33 Q2330.64 1475.44 2332.44 1479.01 Q2334.27 1482.55 2337.88 1482.55 Q2341.52 1482.55 2343.32 1479.01 Q2345.15 1475.44 2345.15 1468.33 Q2345.15 1461.2 2343.32 1457.66 Q2341.52 1454.1 2337.88 1454.1 M2337.88 1450.39 Q2343.69 1450.39 2346.75 1455 Q2349.83 1459.58 2349.83 1468.33 Q2349.83 1477.06 2346.75 1481.67 Q2343.69 1486.25 2337.88 1486.25 Q2332.07 1486.25 2328.99 1481.67 Q2325.94 1477.06 2325.94 1468.33 Q2325.94 1459.58 2328.99 1455 Q2332.07 1450.39 2337.88 1450.39 Z" fill="#000000" fill-rule="nonzero" fill-opacity="1" /><path clip-path="url(#clip770)" d="M1306.17 1518.52 L1312.03 1518.52 L1312.03 1568.04 L1306.17 1568.04 L1306.17 1518.52 Z" fill="#000000" fill-rule="nonzero" fill-opacity="1" /><polyline clip-path="url(#clip770)" style="stroke:#000000; stroke-linecap:round; stroke-linejoin:round; stroke-width:4; stroke-opacity:1; fill:none" points="265.445,1423.18 265.445,47.2441 "/>
<polyline clip-path="url(#clip770)" style="stroke:#000000; stroke-linecap:round; stroke-linejoin:round; stroke-width:4; stroke-opacity:1; fill:none" points="265.445,1334.08 284.342,1334.08 "/>
<polyline clip-path="url(#clip770)" style="stroke:#000000; stroke-linecap:round; stroke-linejoin:round; stroke-width:4; stroke-opacity:1; fill:none" points="265.445,1084.34 284.342,1084.34 "/>
<polyline clip-path="url(#clip770)" style="stroke:#000000; stroke-linecap:round; stroke-linejoin:round; stroke-width:4; stroke-opacity:1; fill:none" points="265.445,834.588 284.342,834.588 "/>
<polyline clip-path="url(#clip770)" style="stroke:#000000; stroke-linecap:round; stroke-linejoin:round; stroke-width:4; stroke-opacity:1; fill:none" points="265.445,584.84 284.342,584.84 "/>
<polyline clip-path="url(#clip770)" style="stroke:#000000; stroke-linecap:round; stroke-linejoin:round; stroke-width:4; stroke-opacity:1; fill:none" points="265.445,335.093 284.342,335.093 "/>
<polyline clip-path="url(#clip770)" style="stroke:#000000; stroke-linecap:round; stroke-linejoin:round; stroke-width:4; stroke-opacity:1; fill:none" points="265.445,85.3459 284.342,85.3459 "/>
<path clip-path="url(#clip770)" d="M117.825 1347.43 L125.464 1347.43 L125.464 1321.06 L117.154 1322.73 L117.154 1318.47 L125.418 1316.8 L130.093 1316.8 L130.093 1347.43 L137.732 1347.43 L137.732 1351.36 L117.825 1351.36 L117.825 1347.43 Z" fill="#000000" fill-rule="nonzero" fill-opacity="1" /><path clip-path="url(#clip770)" d="M157.177 1319.88 Q153.566 1319.88 151.737 1323.45 Q149.931 1326.99 149.931 1334.12 Q149.931 1341.22 151.737 1344.79 Q153.566 1348.33 157.177 1348.33 Q160.811 1348.33 162.616 1344.79 Q164.445 1341.22 164.445 1334.12 Q164.445 1326.99 162.616 1323.45 Q160.811 1319.88 157.177 1319.88 M157.177 1316.18 Q162.987 1316.18 166.042 1320.78 Q169.121 1325.37 169.121 1334.12 Q169.121 1342.84 166.042 1347.45 Q162.987 1352.03 157.177 1352.03 Q151.366 1352.03 148.288 1347.45 Q145.232 1342.84 145.232 1334.12 Q145.232 1325.37 148.288 1320.78 Q151.366 1316.18 157.177 1316.18 Z" fill="#000000" fill-rule="nonzero" fill-opacity="1" /><path clip-path="url(#clip770)" d="M187.338 1319.88 Q183.727 1319.88 181.899 1323.45 Q180.093 1326.99 180.093 1334.12 Q180.093 1341.22 181.899 1344.79 Q183.727 1348.33 187.338 1348.33 Q190.973 1348.33 192.778 1344.79 Q194.607 1341.22 194.607 1334.12 Q194.607 1326.99 192.778 1323.45 Q190.973 1319.88 187.338 1319.88 M187.338 1316.18 Q193.149 1316.18 196.204 1320.78 Q199.283 1325.37 199.283 1334.12 Q199.283 1342.84 196.204 1347.45 Q193.149 1352.03 187.338 1352.03 Q181.528 1352.03 178.45 1347.45 Q175.394 1342.84 175.394 1334.12 Q175.394 1325.37 178.45 1320.78 Q181.528 1316.18 187.338 1316.18 Z" fill="#000000" fill-rule="nonzero" fill-opacity="1" /><path clip-path="url(#clip770)" d="M217.5 1319.88 Q213.889 1319.88 212.061 1323.45 Q210.255 1326.99 210.255 1334.12 Q210.255 1341.22 212.061 1344.79 Q213.889 1348.33 217.5 1348.33 Q221.135 1348.33 222.94 1344.79 Q224.769 1341.22 224.769 1334.12 Q224.769 1326.99 222.94 1323.45 Q221.135 1319.88 217.5 1319.88 M217.5 1316.18 Q223.31 1316.18 226.366 1320.78 Q229.445 1325.37 229.445 1334.12 Q229.445 1342.84 226.366 1347.45 Q223.31 1352.03 217.5 1352.03 Q211.69 1352.03 208.612 1347.45 Q205.556 1342.84 205.556 1334.12 Q205.556 1325.37 208.612 1320.78 Q211.69 1316.18 217.5 1316.18 Z" fill="#000000" fill-rule="nonzero" fill-opacity="1" /><path clip-path="url(#clip770)" d="M121.043 1097.68 L137.362 1097.68 L137.362 1101.62 L115.418 1101.62 L115.418 1097.68 Q118.08 1094.93 122.663 1090.3 Q127.269 1085.64 128.45 1084.3 Q130.695 1081.78 131.575 1080.04 Q132.478 1078.28 132.478 1076.59 Q132.478 1073.84 130.533 1072.1 Q128.612 1070.37 125.51 1070.37 Q123.311 1070.37 120.857 1071.13 Q118.427 1071.89 115.649 1073.44 L115.649 1068.72 Q118.473 1067.59 120.927 1067.01 Q123.38 1066.43 125.418 1066.43 Q130.788 1066.43 133.982 1069.12 Q137.177 1071.8 137.177 1076.29 Q137.177 1078.42 136.367 1080.34 Q135.579 1082.24 133.473 1084.83 Q132.894 1085.5 129.792 1088.72 Q126.691 1091.92 121.043 1097.68 Z" fill="#000000" fill-rule="nonzero" fill-opacity="1" /><path clip-path="url(#clip770)" d="M157.177 1070.13 Q153.566 1070.13 151.737 1073.7 Q149.931 1077.24 149.931 1084.37 Q149.931 1091.48 151.737 1095.04 Q153.566 1098.58 157.177 1098.58 Q160.811 1098.58 162.616 1095.04 Q164.445 1091.48 164.445 1084.37 Q164.445 1077.24 162.616 1073.7 Q160.811 1070.13 157.177 1070.13 M157.177 1066.43 Q162.987 1066.43 166.042 1071.04 Q169.121 1075.62 169.121 1084.37 Q169.121 1093.1 166.042 1097.7 Q162.987 1102.29 157.177 1102.29 Q151.366 1102.29 148.288 1097.7 Q145.232 1093.1 145.232 1084.37 Q145.232 1075.62 148.288 1071.04 Q151.366 1066.43 157.177 1066.43 Z" fill="#000000" fill-rule="nonzero" fill-opacity="1" /><path clip-path="url(#clip770)" d="M187.338 1070.13 Q183.727 1070.13 181.899 1073.7 Q180.093 1077.24 180.093 1084.37 Q180.093 1091.48 181.899 1095.04 Q183.727 1098.58 187.338 1098.58 Q190.973 1098.58 192.778 1095.04 Q194.607 1091.48 194.607 1084.37 Q194.607 1077.24 192.778 1073.7 Q190.973 1070.13 187.338 1070.13 M187.338 1066.43 Q193.149 1066.43 196.204 1071.04 Q199.283 1075.62 199.283 1084.37 Q199.283 1093.1 196.204 1097.7 Q193.149 1102.29 187.338 1102.29 Q181.528 1102.29 178.45 1097.7 Q175.394 1093.1 175.394 1084.37 Q175.394 1075.62 178.45 1071.04 Q181.528 1066.43 187.338 1066.43 Z" fill="#000000" fill-rule="nonzero" fill-opacity="1" /><path clip-path="url(#clip770)" d="M217.5 1070.13 Q213.889 1070.13 212.061 1073.7 Q210.255 1077.24 210.255 1084.37 Q210.255 1091.48 212.061 1095.04 Q213.889 1098.58 217.5 1098.58 Q221.135 1098.58 222.94 1095.04 Q224.769 1091.48 224.769 1084.37 Q224.769 1077.24 222.94 1073.7 Q221.135 1070.13 217.5 1070.13 M217.5 1066.43 Q223.31 1066.43 226.366 1071.04 Q229.445 1075.62 229.445 1084.37 Q229.445 1093.1 226.366 1097.7 Q223.31 1102.29 217.5 1102.29 Q211.69 1102.29 208.612 1097.7 Q205.556 1093.1 205.556 1084.37 Q205.556 1075.62 208.612 1071.04 Q211.69 1066.43 217.5 1066.43 Z" fill="#000000" fill-rule="nonzero" fill-opacity="1" /><path clip-path="url(#clip770)" d="M131.181 833.234 Q134.538 833.951 136.413 836.22 Q138.311 838.488 138.311 841.822 Q138.311 846.937 134.792 849.738 Q131.274 852.539 124.793 852.539 Q122.617 852.539 120.302 852.099 Q118.01 851.683 115.556 850.826 L115.556 846.312 Q117.501 847.446 119.816 848.025 Q122.13 848.604 124.654 848.604 Q129.052 848.604 131.343 846.868 Q133.658 845.132 133.658 841.822 Q133.658 838.766 131.505 837.053 Q129.376 835.317 125.556 835.317 L121.529 835.317 L121.529 831.474 L125.742 831.474 Q129.191 831.474 131.019 830.109 Q132.848 828.72 132.848 826.127 Q132.848 823.465 130.95 822.053 Q129.075 820.618 125.556 820.618 Q123.635 820.618 121.436 821.035 Q119.237 821.451 116.598 822.331 L116.598 818.164 Q119.26 817.423 121.575 817.053 Q123.913 816.683 125.973 816.683 Q131.297 816.683 134.399 819.113 Q137.501 821.521 137.501 825.641 Q137.501 828.511 135.857 830.502 Q134.214 832.47 131.181 833.234 Z" fill="#000000" fill-rule="nonzero" fill-opacity="1" /><path clip-path="url(#clip770)" d="M157.177 820.386 Q153.566 820.386 151.737 823.951 Q149.931 827.493 149.931 834.622 Q149.931 841.729 151.737 845.294 Q153.566 848.835 157.177 848.835 Q160.811 848.835 162.616 845.294 Q164.445 841.729 164.445 834.622 Q164.445 827.493 162.616 823.951 Q160.811 820.386 157.177 820.386 M157.177 816.683 Q162.987 816.683 166.042 821.289 Q169.121 825.873 169.121 834.622 Q169.121 843.349 166.042 847.956 Q162.987 852.539 157.177 852.539 Q151.366 852.539 148.288 847.956 Q145.232 843.349 145.232 834.622 Q145.232 825.873 148.288 821.289 Q151.366 816.683 157.177 816.683 Z" fill="#000000" fill-rule="nonzero" fill-opacity="1" /><path clip-path="url(#clip770)" d="M187.338 820.386 Q183.727 820.386 181.899 823.951 Q180.093 827.493 180.093 834.622 Q180.093 841.729 181.899 845.294 Q183.727 848.835 187.338 848.835 Q190.973 848.835 192.778 845.294 Q194.607 841.729 194.607 834.622 Q194.607 827.493 192.778 823.951 Q190.973 820.386 187.338 820.386 M187.338 816.683 Q193.149 816.683 196.204 821.289 Q199.283 825.873 199.283 834.622 Q199.283 843.349 196.204 847.956 Q193.149 852.539 187.338 852.539 Q181.528 852.539 178.45 847.956 Q175.394 843.349 175.394 834.622 Q175.394 825.873 178.45 821.289 Q181.528 816.683 187.338 816.683 Z" fill="#000000" fill-rule="nonzero" fill-opacity="1" /><path clip-path="url(#clip770)" d="M217.5 820.386 Q213.889 820.386 212.061 823.951 Q210.255 827.493 210.255 834.622 Q210.255 841.729 212.061 845.294 Q213.889 848.835 217.5 848.835 Q221.135 848.835 222.94 845.294 Q224.769 841.729 224.769 834.622 Q224.769 827.493 222.94 823.951 Q221.135 820.386 217.5 820.386 M217.5 816.683 Q223.31 816.683 226.366 821.289 Q229.445 825.873 229.445 834.622 Q229.445 843.349 226.366 847.956 Q223.31 852.539 217.5 852.539 Q211.69 852.539 208.612 847.956 Q205.556 843.349 205.556 834.622 Q205.556 825.873 208.612 821.289 Q211.69 816.683 217.5 816.683 Z" fill="#000000" fill-rule="nonzero" fill-opacity="1" /><path clip-path="url(#clip770)" d="M129.862 571.635 L118.056 590.083 L129.862 590.083 L129.862 571.635 M128.635 567.56 L134.515 567.56 L134.515 590.083 L139.445 590.083 L139.445 593.972 L134.515 593.972 L134.515 602.12 L129.862 602.12 L129.862 593.972 L114.26 593.972 L114.26 589.458 L128.635 567.56 Z" fill="#000000" fill-rule="nonzero" fill-opacity="1" /><path clip-path="url(#clip770)" d="M157.177 570.639 Q153.566 570.639 151.737 574.204 Q149.931 577.746 149.931 584.875 Q149.931 591.982 151.737 595.546 Q153.566 599.088 157.177 599.088 Q160.811 599.088 162.616 595.546 Q164.445 591.982 164.445 584.875 Q164.445 577.746 162.616 574.204 Q160.811 570.639 157.177 570.639 M157.177 566.935 Q162.987 566.935 166.042 571.542 Q169.121 576.125 169.121 584.875 Q169.121 593.602 166.042 598.208 Q162.987 602.792 157.177 602.792 Q151.366 602.792 148.288 598.208 Q145.232 593.602 145.232 584.875 Q145.232 576.125 148.288 571.542 Q151.366 566.935 157.177 566.935 Z" fill="#000000" fill-rule="nonzero" fill-opacity="1" /><path clip-path="url(#clip770)" d="M187.338 570.639 Q183.727 570.639 181.899 574.204 Q180.093 577.746 180.093 584.875 Q180.093 591.982 181.899 595.546 Q183.727 599.088 187.338 599.088 Q190.973 599.088 192.778 595.546 Q194.607 591.982 194.607 584.875 Q194.607 577.746 192.778 574.204 Q190.973 570.639 187.338 570.639 M187.338 566.935 Q193.149 566.935 196.204 571.542 Q199.283 576.125 199.283 584.875 Q199.283 593.602 196.204 598.208 Q193.149 602.792 187.338 602.792 Q181.528 602.792 178.45 598.208 Q175.394 593.602 175.394 584.875 Q175.394 576.125 178.45 571.542 Q181.528 566.935 187.338 566.935 Z" fill="#000000" fill-rule="nonzero" fill-opacity="1" /><path clip-path="url(#clip770)" d="M217.5 570.639 Q213.889 570.639 212.061 574.204 Q210.255 577.746 210.255 584.875 Q210.255 591.982 212.061 595.546 Q213.889 599.088 217.5 599.088 Q221.135 599.088 222.94 595.546 Q224.769 591.982 224.769 584.875 Q224.769 577.746 222.94 574.204 Q221.135 570.639 217.5 570.639 M217.5 566.935 Q223.31 566.935 226.366 571.542 Q229.445 576.125 229.445 584.875 Q229.445 593.602 226.366 598.208 Q223.31 602.792 217.5 602.792 Q211.69 602.792 208.612 598.208 Q205.556 593.602 205.556 584.875 Q205.556 576.125 208.612 571.542 Q211.69 566.935 217.5 566.935 Z" fill="#000000" fill-rule="nonzero" fill-opacity="1" /><path clip-path="url(#clip770)" d="M117.061 317.813 L135.417 317.813 L135.417 321.748 L121.343 321.748 L121.343 330.22 Q122.362 329.873 123.38 329.711 Q124.399 329.526 125.418 329.526 Q131.205 329.526 134.584 332.697 Q137.964 335.869 137.964 341.285 Q137.964 346.864 134.492 349.966 Q131.019 353.044 124.7 353.044 Q122.524 353.044 120.255 352.674 Q118.01 352.304 115.603 351.563 L115.603 346.864 Q117.686 347.998 119.908 348.554 Q122.13 349.109 124.607 349.109 Q128.612 349.109 130.95 347.003 Q133.288 344.896 133.288 341.285 Q133.288 337.674 130.95 335.568 Q128.612 333.461 124.607 333.461 Q122.732 333.461 120.857 333.878 Q119.006 334.295 117.061 335.174 L117.061 317.813 Z" fill="#000000" fill-rule="nonzero" fill-opacity="1" /><path clip-path="url(#clip770)" d="M157.177 320.892 Q153.566 320.892 151.737 324.457 Q149.931 327.998 149.931 335.128 Q149.931 342.234 151.737 345.799 Q153.566 349.341 157.177 349.341 Q160.811 349.341 162.616 345.799 Q164.445 342.234 164.445 335.128 Q164.445 327.998 162.616 324.457 Q160.811 320.892 157.177 320.892 M157.177 317.188 Q162.987 317.188 166.042 321.795 Q169.121 326.378 169.121 335.128 Q169.121 343.855 166.042 348.461 Q162.987 353.044 157.177 353.044 Q151.366 353.044 148.288 348.461 Q145.232 343.855 145.232 335.128 Q145.232 326.378 148.288 321.795 Q151.366 317.188 157.177 317.188 Z" fill="#000000" fill-rule="nonzero" fill-opacity="1" /><path clip-path="url(#clip770)" d="M187.338 320.892 Q183.727 320.892 181.899 324.457 Q180.093 327.998 180.093 335.128 Q180.093 342.234 181.899 345.799 Q183.727 349.341 187.338 349.341 Q190.973 349.341 192.778 345.799 Q194.607 342.234 194.607 335.128 Q194.607 327.998 192.778 324.457 Q190.973 320.892 187.338 320.892 M187.338 317.188 Q193.149 317.188 196.204 321.795 Q199.283 326.378 199.283 335.128 Q199.283 343.855 196.204 348.461 Q193.149 353.044 187.338 353.044 Q181.528 353.044 178.45 348.461 Q175.394 343.855 175.394 335.128 Q175.394 326.378 178.45 321.795 Q181.528 317.188 187.338 317.188 Z" fill="#000000" fill-rule="nonzero" fill-opacity="1" /><path clip-path="url(#clip770)" d="M217.5 320.892 Q213.889 320.892 212.061 324.457 Q210.255 327.998 210.255 335.128 Q210.255 342.234 212.061 345.799 Q213.889 349.341 217.5 349.341 Q221.135 349.341 222.94 345.799 Q224.769 342.234 224.769 335.128 Q224.769 327.998 222.94 324.457 Q221.135 320.892 217.5 320.892 M217.5 317.188 Q223.31 317.188 226.366 321.795 Q229.445 326.378 229.445 335.128 Q229.445 343.855 226.366 348.461 Q223.31 353.044 217.5 353.044 Q211.69 353.044 208.612 348.461 Q205.556 343.855 205.556 335.128 Q205.556 326.378 208.612 321.795 Q211.69 317.188 217.5 317.188 Z" fill="#000000" fill-rule="nonzero" fill-opacity="1" /><path clip-path="url(#clip770)" d="M127.593 83.4824 Q124.445 83.4824 122.593 85.6352 Q120.765 87.788 120.765 91.538 Q120.765 95.2648 122.593 97.4407 Q124.445 99.5935 127.593 99.5935 Q130.742 99.5935 132.57 97.4407 Q134.422 95.2648 134.422 91.538 Q134.422 87.788 132.57 85.6352 Q130.742 83.4824 127.593 83.4824 M136.876 68.8297 L136.876 73.089 Q135.117 72.2556 133.311 71.8158 Q131.529 71.376 129.769 71.376 Q125.14 71.376 122.686 74.501 Q120.255 77.626 119.908 83.9454 Q121.274 81.9315 123.334 80.8667 Q125.394 79.7788 127.871 79.7788 Q133.08 79.7788 136.089 82.95 Q139.121 86.0982 139.121 91.538 Q139.121 96.862 135.973 100.08 Q132.825 103.297 127.593 103.297 Q121.598 103.297 118.427 98.7138 Q115.256 94.1074 115.256 85.3806 Q115.256 77.1862 119.144 72.3251 Q123.033 67.4409 129.584 67.4409 Q131.343 67.4409 133.126 67.7881 Q134.931 68.1353 136.876 68.8297 Z" fill="#000000" fill-rule="nonzero" fill-opacity="1" /><path clip-path="url(#clip770)" d="M157.177 71.1445 Q153.566 71.1445 151.737 74.7093 Q149.931 78.251 149.931 85.3806 Q149.931 92.487 151.737 96.0518 Q153.566 99.5935 157.177 99.5935 Q160.811 99.5935 162.616 96.0518 Q164.445 92.487 164.445 85.3806 Q164.445 78.251 162.616 74.7093 Q160.811 71.1445 157.177 71.1445 M157.177 67.4409 Q162.987 67.4409 166.042 72.0473 Q169.121 76.6306 169.121 85.3806 Q169.121 94.1074 166.042 98.7138 Q162.987 103.297 157.177 103.297 Q151.366 103.297 148.288 98.7138 Q145.232 94.1074 145.232 85.3806 Q145.232 76.6306 148.288 72.0473 Q151.366 67.4409 157.177 67.4409 Z" fill="#000000" fill-rule="nonzero" fill-opacity="1" /><path clip-path="url(#clip770)" d="M187.338 71.1445 Q183.727 71.1445 181.899 74.7093 Q180.093 78.251 180.093 85.3806 Q180.093 92.487 181.899 96.0518 Q183.727 99.5935 187.338 99.5935 Q190.973 99.5935 192.778 96.0518 Q194.607 92.487 194.607 85.3806 Q194.607 78.251 192.778 74.7093 Q190.973 71.1445 187.338 71.1445 M187.338 67.4409 Q193.149 67.4409 196.204 72.0473 Q199.283 76.6306 199.283 85.3806 Q199.283 94.1074 196.204 98.7138 Q193.149 103.297 187.338 103.297 Q181.528 103.297 178.45 98.7138 Q175.394 94.1074 175.394 85.3806 Q175.394 76.6306 178.45 72.0473 Q181.528 67.4409 187.338 67.4409 Z" fill="#000000" fill-rule="nonzero" fill-opacity="1" /><path clip-path="url(#clip770)" d="M217.5 71.1445 Q213.889 71.1445 212.061 74.7093 Q210.255 78.251 210.255 85.3806 Q210.255 92.487 212.061 96.0518 Q213.889 99.5935 217.5 99.5935 Q221.135 99.5935 222.94 96.0518 Q224.769 92.487 224.769 85.3806 Q224.769 78.251 222.94 74.7093 Q221.135 71.1445 217.5 71.1445 M217.5 67.4409 Q223.31 67.4409 226.366 72.0473 Q229.445 76.6306 229.445 85.3806 Q229.445 94.1074 226.366 98.7138 Q223.31 103.297 217.5 103.297 Q211.69 103.297 208.612 98.7138 Q205.556 94.1074 205.556 85.3806 Q205.556 76.6306 208.612 72.0473 Q211.69 67.4409 217.5 67.4409 Z" fill="#000000" fill-rule="nonzero" fill-opacity="1" /><path clip-path="url(#clip770)" d="M14.479 1067.82 L14.479 1061.96 L64.0042 1061.96 L64.0042 1067.82 L14.479 1067.82 Z" fill="#000000" fill-rule="nonzero" fill-opacity="1" /><path clip-path="url(#clip770)" d="M14.5426 1014.92 Q21.8632 1019.19 29.0246 1021.25 Q36.186 1023.32 43.5384 1023.32 Q50.8908 1023.32 58.1159 1021.25 Q65.3091 1019.15 72.5979 1014.92 L72.5979 1020.01 Q65.1182 1024.79 57.8931 1027.18 Q50.668 1029.53 43.5384 1029.53 Q36.4406 1029.53 29.2474 1027.18 Q22.0542 1024.82 14.5426 1020.01 L14.5426 1014.92 Z" fill="#000000" fill-rule="nonzero" fill-opacity="1" /><path clip-path="url(#clip770)" d="M14.479 1003.56 L14.479 997.702 L64.0042 997.702 L64.0042 1003.56 L14.479 1003.56 Z" fill="#000000" fill-rule="nonzero" fill-opacity="1" /><path clip-path="url(#clip770)" d="M23.1363 961.608 L40.8648 961.608 L40.8648 943.88 L46.2757 943.88 L46.2757 961.608 L64.0042 961.608 L64.0042 966.956 L46.2757 966.956 L46.2757 984.684 L40.8648 984.684 L40.8648 966.956 L23.1363 966.956 L23.1363 961.608 Z" fill="#000000" fill-rule="nonzero" fill-opacity="1" /><path clip-path="url(#clip770)" d="M58.5933 928.889 L58.5933 918.385 L22.3406 918.385 L24.6323 929.812 L18.7758 929.812 L16.4842 918.449 L16.4842 912.019 L58.5933 912.019 L58.5933 901.516 L64.0042 901.516 L64.0042 928.889 L58.5933 928.889 Z" fill="#000000" fill-rule="nonzero" fill-opacity="1" /><path clip-path="url(#clip770)" d="M14.5426 890.281 L14.5426 885.188 Q22.0542 880.414 29.2474 878.058 Q36.4406 875.671 43.5384 875.671 Q50.668 875.671 57.8931 878.058 Q65.1182 880.414 72.5979 885.188 L72.5979 890.281 Q65.3091 886.047 58.1159 883.979 Q50.8908 881.878 43.5384 881.878 Q36.186 881.878 29.0246 883.979 Q21.8632 886.047 14.5426 890.281 Z" fill="#000000" fill-rule="nonzero" fill-opacity="1" /><path clip-path="url(#clip770)" d="M20.1444 807.367 L26.9239 807.367 Q23.9002 810.614 22.4043 814.306 Q20.9083 817.966 20.9083 822.104 Q20.9083 830.252 25.9054 834.581 Q30.8707 838.909 40.2919 838.909 Q49.6813 838.909 54.6784 834.581 Q59.6436 830.252 59.6436 822.104 Q59.6436 817.966 58.1477 814.306 Q56.6518 810.614 53.6281 807.367 L60.3439 807.367 Q62.6355 810.741 63.7814 814.529 Q64.9272 818.284 64.9272 822.486 Q64.9272 833.276 58.3387 839.482 Q51.7183 845.689 40.2919 845.689 Q28.8336 845.689 22.2451 839.482 Q15.6248 833.276 15.6248 822.486 Q15.6248 818.221 16.7706 814.465 Q17.8846 810.677 20.1444 807.367 Z" fill="#000000" fill-rule="nonzero" fill-opacity="1" /><path clip-path="url(#clip770)" d="M36.2815 799.951 L36.2815 796.259 L64.0042 796.259 L64.0042 799.951 L36.2815 799.951 Z" fill="#000000" fill-rule="nonzero" fill-opacity="1" /><path clip-path="url(#clip770)" d="M16.4842 755.741 L16.4842 750.331 L70.0516 766.881 L70.0516 772.292 L16.4842 755.741 Z" fill="#000000" fill-rule="nonzero" fill-opacity="1" /><path clip-path="url(#clip770)" d="M58.5933 717.102 L58.5933 694.662 L64.0042 694.662 L64.0042 724.836 L58.5933 724.836 Q54.8057 721.176 48.44 714.874 Q42.0425 708.54 40.1964 706.916 Q36.7271 703.829 34.34 702.62 Q31.921 701.378 29.5975 701.378 Q25.8099 701.378 23.4228 704.052 Q21.0356 706.694 21.0356 710.959 Q21.0356 713.982 22.086 717.356 Q23.1363 720.698 25.2688 724.518 L18.7758 724.518 Q17.2162 720.635 16.4205 717.261 Q15.6248 713.887 15.6248 711.086 Q15.6248 703.702 19.3169 699.309 Q23.009 694.917 29.1837 694.917 Q32.112 694.917 34.7537 696.031 Q37.3637 697.113 40.9285 700.01 Q41.8515 700.805 46.2757 705.07 Q50.668 709.335 58.5933 717.102 Z" fill="#000000" fill-rule="nonzero" fill-opacity="1" /><path clip-path="url(#clip770)" d="M28.3562 685.782 L28.3562 651.63 L34.2127 651.63 L34.2127 656.118 L56.1107 656.118 Q58.4023 656.118 59.4208 655.354 Q60.4075 654.558 60.4075 652.808 Q60.4075 652.33 60.3439 651.63 Q60.2484 650.93 60.2166 650.707 L64.4498 650.707 Q64.8635 651.821 65.0545 652.999 Q65.2455 654.177 65.2455 655.354 Q65.2455 659.174 63.1766 660.638 Q61.0759 662.102 55.4741 662.102 L34.2127 662.102 L34.2127 675.247 L64.0042 675.247 L64.0042 681.231 L34.2127 681.231 L34.2127 685.782 L28.3562 685.782 Z" fill="#000000" fill-rule="nonzero" fill-opacity="1" /><path clip-path="url(#clip770)" d="M14.5426 607.961 Q21.8632 612.227 29.0246 614.295 Q36.186 616.364 43.5384 616.364 Q50.8908 616.364 58.1159 614.295 Q65.3091 612.195 72.5979 607.961 L72.5979 613.054 Q65.1182 617.828 57.8931 620.215 Q50.668 622.571 43.5384 622.571 Q36.4406 622.571 29.2474 620.215 Q22.0542 617.86 14.5426 613.054 L14.5426 607.961 Z" fill="#000000" fill-rule="nonzero" fill-opacity="1" /><path clip-path="url(#clip770)" d="M77.5631 597.203 L28.3562 597.203 L28.3562 591.347 L50.5089 591.347 Q55.124 591.347 57.4793 589.151 Q59.8346 586.955 59.8346 582.658 Q59.8346 577.947 57.161 575.592 Q54.4874 573.205 49.1402 573.205 L28.3562 573.205 L28.3562 567.348 L55.7924 567.348 Q57.7021 567.348 58.6251 566.807 Q59.5163 566.234 59.5163 565.057 Q59.5163 564.77 59.3572 564.261 Q59.1662 563.752 58.7843 562.86 L63.4949 562.86 Q64.227 564.165 64.5771 565.343 Q64.9272 566.489 64.9272 567.603 Q64.9272 569.799 63.6859 571.104 Q62.4446 572.409 59.8983 572.886 Q62.4127 574.478 63.6859 576.801 Q64.9272 579.093 64.9272 582.212 Q64.9272 585.459 63.6859 587.75 Q62.4446 590.01 59.9619 591.347 L77.5631 591.347 L77.5631 597.203 Z" fill="#000000" fill-rule="nonzero" fill-opacity="1" /><path clip-path="url(#clip770)" d="M16.4842 554.871 L16.4842 548.442 L36.568 548.442 L16.4842 527.117 L16.4842 518.842 L38.6368 542.427 L64.0042 517.155 L64.0042 525.621 L41.1194 548.442 L64.0042 548.442 L64.0042 554.871 L16.4842 554.871 Z" fill="#000000" fill-rule="nonzero" fill-opacity="1" /><path clip-path="url(#clip770)" d="M16.4842 488.095 L34.2127 470.812 L34.2127 477.21 L21.6404 491.214 L34.2127 505.219 L34.2127 511.617 L16.4842 494.334 L16.4842 488.095 Z" fill="#000000" fill-rule="nonzero" fill-opacity="1" /><path clip-path="url(#clip770)" d="M58.5933 451.397 L58.5933 428.958 L64.0042 428.958 L64.0042 459.131 L58.5933 459.131 Q54.8057 455.471 48.44 449.169 Q42.0425 442.835 40.1964 441.212 Q36.7271 438.124 34.34 436.915 Q31.921 435.674 29.5975 435.674 Q25.8099 435.674 23.4228 438.347 Q21.0356 440.989 21.0356 445.254 Q21.0356 448.278 22.086 451.652 Q23.1363 454.994 25.2688 458.813 L18.7758 458.813 Q17.2162 454.93 16.4205 451.556 Q15.6248 448.182 15.6248 445.381 Q15.6248 437.997 19.3169 433.605 Q23.009 429.212 29.1837 429.212 Q32.112 429.212 34.7537 430.326 Q37.3637 431.409 40.9285 434.305 Q41.8515 435.101 46.2757 439.366 Q50.668 443.631 58.5933 451.397 Z" fill="#000000" fill-rule="nonzero" fill-opacity="1" /><path clip-path="url(#clip770)" d="M14.5426 417.213 L14.5426 412.121 Q22.0542 407.346 29.2474 404.991 Q36.4406 402.604 43.5384 402.604 Q50.668 402.604 57.8931 404.991 Q65.1182 407.346 72.5979 412.121 L72.5979 417.213 Q65.3091 412.98 58.1159 410.911 Q50.8908 408.81 43.5384 408.81 Q36.186 408.81 29.0246 410.911 Q21.8632 412.98 14.5426 417.213 Z" fill="#000000" fill-rule="nonzero" fill-opacity="1" /><polyline clip-path="url(#clip771)" style="stroke:#009af9; stroke-linecap:round; stroke-linejoin:round; stroke-width:4; stroke-opacity:1; fill:none" points="324.52,1384.24 344.41,1363.25 364.301,1326 384.191,1281.23 404.082,1231.03 423.972,1175.58 443.863,1114.87 463.753,1048.8 483.644,977.619 503.534,901.521 523.425,821.045 543.315,737.162 563.206,651.357 583.096,565.545 602.987,480.907 622.877,399.782 642.768,324.436 662.658,256.531 682.549,198.041 702.439,150.648 722.33,115.398 742.22,93.8186 762.111,86.1857 782.002,92.8915 801.892,113.648 821.783,147.77 841.673,194.602 861.564,252.504 881.454,319.933 901.345,394.948 921.235,475.509 941.126,559.431 961.016,644.569 980.907,728.72 1000.8,809.954 1020.69,886.265 1040.58,956.105 1060.47,1018.14 1080.36,1071.27 1100.25,1114.9 1120.14,1148.7 1140.03,1172.52 1159.92,1186.84 1179.81,1192.18 1199.7,1189.49 1219.59,1179.85 1239.48,1164.46 1259.37,1144.84 1279.26,1122.3 1299.16,1098.32 1319.05,1074.32 1338.94,1051.48 1358.83,1031.06 1378.72,1013.91 1398.61,1000.84 1418.5,992.381 1438.39,988.745 1458.28,990.07 1478.17,996.119 1498.06,1006.56 1517.95,1020.89 1537.84,1038.31 1557.73,1058.07 1577.62,1079.26 1597.51,1100.9 1617.4,1122.16 1637.29,1142.07 1657.18,1159.91 1677.07,1174.95 1696.97,1186.58 1716.86,1194.52 1736.75,1198.4 1756.64,1198.24 1776.53,1194.11 1796.42,1186.24 1816.31,1175.09 1836.2,1161.18 1856.09,1145.14 1875.98,1127.72 1895.87,1109.63 1915.76,1091.71 1935.65,1074.74 1955.54,1059.4 1975.43,1046.45 1995.32,1036.35 2015.21,1029.7 2035.1,1026.78 2054.99,1027.82 2074.89,1032.92 2094.78,1042.04 2114.67,1054.94 2134.56,1071.35 2154.45,1090.83 2174.34,1112.9 2194.23,1137 2214.12,1162.46 2234.01,1188.65 2253.9,1214.93 2273.79,1240.67 2293.68,1265.28 "/>
</svg>
