<?xml version="1.0" encoding="utf-8"?>
<svg xmlns="http://www.w3.org/2000/svg" xmlns:xlink="http://www.w3.org/1999/xlink" width="600" height="400" viewBox="0 0 2400 1600">
<defs>
  <clipPath id="clip520">
    <rect x="0" y="0" width="2400" height="1600"/>
  </clipPath>
</defs>
<path clip-path="url(#clip520)" d="M0 1600 L2400 1600 L2400 0 L0 0  Z" fill="#ffffff" fill-rule="evenodd" fill-opacity="1"/>
<defs>
  <clipPath id="clip521">
    <rect x="480" y="0" width="1681" height="1600"/>
  </clipPath>
</defs>
<path clip-path="url(#clip520)" d="M205.121 1423.18 L2352.76 1423.18 L2352.76 47.2441 L205.121 47.2441  Z" fill="#ffffff" fill-rule="evenodd" fill-opacity="1"/>
<defs>
  <clipPath id="clip522">
    <rect x="205" y="47" width="2149" height="1377"/>
  </clipPath>
</defs>
<polyline clip-path="url(#clip522)" style="stroke:#000000; stroke-linecap:round; stroke-linejoin:round; stroke-width:2; stroke-opacity:0.1; fill:none" points="205.121,1423.18 205.121,47.2441 "/>
<polyline clip-path="url(#clip522)" style="stroke:#000000; stroke-linecap:round; stroke-linejoin:round; stroke-width:2; stroke-opacity:0.1; fill:none" points="742.03,1423.18 742.03,47.2441 "/>
<polyline clip-path="url(#clip522)" style="stroke:#000000; stroke-linecap:round; stroke-linejoin:round; stroke-width:2; stroke-opacity:0.1; fill:none" points="1278.94,1423.18 1278.94,47.2441 "/>
<polyline clip-path="url(#clip522)" style="stroke:#000000; stroke-linecap:round; stroke-linejoin:round; stroke-width:2; stroke-opacity:0.1; fill:none" points="1815.85,1423.18 1815.85,47.2441 "/>
<polyline clip-path="url(#clip522)" style="stroke:#000000; stroke-linecap:round; stroke-linejoin:round; stroke-width:2; stroke-opacity:0.1; fill:none" points="2352.76,1423.18 2352.76,47.2441 "/>
<polyline clip-path="url(#clip522)" style="stroke:#000000; stroke-linecap:round; stroke-linejoin:round; stroke-width:2; stroke-opacity:0.1; fill:none" points="205.121,1200.1 2352.76,1200.1 "/>
<polyline clip-path="url(#clip522)" style="stroke:#000000; stroke-linecap:round; stroke-linejoin:round; stroke-width:2; stroke-opacity:0.1; fill:none" points="205.121,840.916 2352.76,840.916 "/>
<polyline clip-path="url(#clip522)" style="stroke:#000000; stroke-linecap:round; stroke-linejoin:round; stroke-width:2; stroke-opacity:0.1; fill:none" points="205.121,481.732 2352.76,481.732 "/>
<polyline clip-path="url(#clip522)" style="stroke:#000000; stroke-linecap:round; stroke-linejoin:round; stroke-width:2; stroke-opacity:0.1; fill:none" points="205.121,122.549 2352.76,122.549 "/>
<polyline clip-path="url(#clip520)" style="stroke:#000000; stroke-linecap:round; stroke-linejoin:round; stroke-width:4; stroke-opacity:1; fill:none" points="205.121,1423.18 2352.76,1423.18 "/>
<polyline clip-path="url(#clip520)" style="stroke:#000000; stroke-linecap:round; stroke-linejoin:round; stroke-width:4; stroke-opacity:1; fill:none" points="205.121,1423.18 205.121,1404.28 "/>
<polyline clip-path="url(#clip520)" style="stroke:#000000; stroke-linecap:round; stroke-linejoin:round; stroke-width:4; stroke-opacity:1; fill:none" points="742.03,1423.18 742.03,1404.28 "/>
<polyline clip-path="url(#clip520)" style="stroke:#000000; stroke-linecap:round; stroke-linejoin:round; stroke-width:4; stroke-opacity:1; fill:none" points="1278.94,1423.18 1278.94,1404.28 "/>
<polyline clip-path="url(#clip520)" style="stroke:#000000; stroke-linecap:round; stroke-linejoin:round; stroke-width:4; stroke-opacity:1; fill:none" points="1815.85,1423.18 1815.85,1404.28 "/>
<polyline clip-path="url(#clip520)" style="stroke:#000000; stroke-linecap:round; stroke-linejoin:round; stroke-width:4; stroke-opacity:1; fill:none" points="2352.76,1423.18 2352.76,1404.28 "/>
<path clip-path="url(#clip520)" d="M205.121 1454.1 Q201.51 1454.1 199.681 1457.66 Q197.876 1461.2 197.876 1468.33 Q197.876 1475.44 199.681 1479.01 Q201.51 1482.55 205.121 1482.55 Q208.755 1482.55 210.561 1479.01 Q212.389 1475.44 212.389 1468.33 Q212.389 1461.2 210.561 1457.66 Q208.755 1454.1 205.121 1454.1 M205.121 1450.39 Q210.931 1450.39 213.987 1455 Q217.065 1459.58 217.065 1468.33 Q217.065 1477.06 213.987 1481.67 Q210.931 1486.25 205.121 1486.25 Q199.311 1486.25 196.232 1481.67 Q193.177 1477.06 193.177 1468.33 Q193.177 1459.58 196.232 1455 Q199.311 1450.39 205.121 1450.39 Z" fill="#000000" fill-rule="nonzero" fill-opacity="1" /><path clip-path="url(#clip520)" d="M716.729 1451.02 L735.085 1451.02 L735.085 1454.96 L721.011 1454.96 L721.011 1463.43 Q722.03 1463.08 723.048 1462.92 Q724.067 1462.73 725.085 1462.73 Q730.872 1462.73 734.252 1465.9 Q737.632 1469.08 737.632 1474.49 Q737.632 1480.07 734.159 1483.17 Q730.687 1486.25 724.368 1486.25 Q722.192 1486.25 719.923 1485.88 Q717.678 1485.51 715.271 1484.77 L715.271 1480.07 Q717.354 1481.2 719.576 1481.76 Q721.798 1482.32 724.275 1482.32 Q728.28 1482.32 730.618 1480.21 Q732.956 1478.1 732.956 1474.49 Q732.956 1470.88 730.618 1468.77 Q728.28 1466.67 724.275 1466.67 Q722.4 1466.67 720.525 1467.08 Q718.673 1467.5 716.729 1468.38 L716.729 1451.02 Z" fill="#000000" fill-rule="nonzero" fill-opacity="1" /><path clip-path="url(#clip520)" d="M756.844 1454.1 Q753.233 1454.1 751.405 1457.66 Q749.599 1461.2 749.599 1468.33 Q749.599 1475.44 751.405 1479.01 Q753.233 1482.55 756.844 1482.55 Q760.479 1482.55 762.284 1479.01 Q764.113 1475.44 764.113 1468.33 Q764.113 1461.2 762.284 1457.66 Q760.479 1454.1 756.844 1454.1 M756.844 1450.39 Q762.655 1450.39 765.71 1455 Q768.789 1459.58 768.789 1468.33 Q768.789 1477.06 765.71 1481.67 Q762.655 1486.25 756.844 1486.25 Q751.034 1486.25 747.956 1481.67 Q744.9 1477.06 744.9 1468.33 Q744.9 1459.58 747.956 1455 Q751.034 1450.39 756.844 1450.39 Z" fill="#000000" fill-rule="nonzero" fill-opacity="1" /><path clip-path="url(#clip520)" d="M1238.55 1481.64 L1246.18 1481.64 L1246.18 1455.28 L1237.87 1456.95 L1237.87 1452.69 L1246.14 1451.02 L1250.81 1451.02 L1250.81 1481.64 L1258.45 1481.64 L1258.45 1485.58 L1238.55 1485.58 L1238.55 1481.64 Z" fill="#000000" fill-rule="nonzero" fill-opacity="1" /><path clip-path="url(#clip520)" d="M1277.9 1454.1 Q1274.29 1454.1 1272.46 1457.66 Q1270.65 1461.2 1270.65 1468.33 Q1270.65 1475.44 1272.46 1479.01 Q1274.29 1482.55 1277.9 1482.55 Q1281.53 1482.55 1283.34 1479.01 Q1285.17 1475.44 1285.17 1468.33 Q1285.17 1461.2 1283.34 1457.66 Q1281.53 1454.1 1277.9 1454.1 M1277.9 1450.39 Q1283.71 1450.39 1286.76 1455 Q1289.84 1459.58 1289.84 1468.33 Q1289.84 1477.06 1286.76 1481.67 Q1283.71 1486.25 1277.9 1486.25 Q1272.09 1486.25 1269.01 1481.67 Q1265.95 1477.06 1265.95 1468.33 Q1265.95 1459.58 1269.01 1455 Q1272.09 1450.39 1277.9 1450.39 Z" fill="#000000" fill-rule="nonzero" fill-opacity="1" /><path clip-path="url(#clip520)" d="M1308.06 1454.1 Q1304.45 1454.1 1302.62 1457.66 Q1300.81 1461.2 1300.81 1468.33 Q1300.81 1475.44 1302.62 1479.01 Q1304.45 1482.55 1308.06 1482.55 Q1311.69 1482.55 1313.5 1479.01 Q1315.33 1475.44 1315.33 1468.33 Q1315.33 1461.2 1313.5 1457.66 Q1311.69 1454.1 1308.06 1454.1 M1308.06 1450.39 Q1313.87 1450.39 1316.92 1455 Q1320 1459.58 1320 1468.33 Q1320 1477.06 1316.92 1481.67 Q1313.87 1486.25 1308.06 1486.25 Q1302.25 1486.25 1299.17 1481.67 Q1296.11 1477.06 1296.11 1468.33 Q1296.11 1459.58 1299.17 1455 Q1302.25 1450.39 1308.06 1450.39 Z" fill="#000000" fill-rule="nonzero" fill-opacity="1" /><path clip-path="url(#clip520)" d="M1775.45 1481.64 L1783.09 1481.64 L1783.09 1455.28 L1774.78 1456.95 L1774.78 1452.69 L1783.05 1451.02 L1787.72 1451.02 L1787.72 1481.64 L1795.36 1481.64 L1795.36 1485.58 L1775.45 1485.58 L1775.45 1481.64 Z" fill="#000000" fill-rule="nonzero" fill-opacity="1" /><path clip-path="url(#clip520)" d="M1804.85 1451.02 L1823.21 1451.02 L1823.21 1454.96 L1809.13 1454.96 L1809.13 1463.43 Q1810.15 1463.08 1811.17 1462.92 Q1812.19 1462.73 1813.21 1462.73 Q1819 1462.73 1822.37 1465.9 Q1825.75 1469.08 1825.75 1474.49 Q1825.75 1480.07 1822.28 1483.17 Q1818.81 1486.25 1812.49 1486.25 Q1810.31 1486.25 1808.05 1485.88 Q1805.8 1485.51 1803.39 1484.77 L1803.39 1480.07 Q1805.48 1481.2 1807.7 1481.76 Q1809.92 1482.32 1812.4 1482.32 Q1816.4 1482.32 1818.74 1480.21 Q1821.08 1478.1 1821.08 1474.49 Q1821.08 1470.88 1818.74 1468.77 Q1816.4 1466.67 1812.4 1466.67 Q1810.52 1466.67 1808.65 1467.08 Q1806.8 1467.5 1804.85 1468.38 L1804.85 1451.02 Z" fill="#000000" fill-rule="nonzero" fill-opacity="1" /><path clip-path="url(#clip520)" d="M1844.97 1454.1 Q1841.36 1454.1 1839.53 1457.66 Q1837.72 1461.2 1837.72 1468.33 Q1837.72 1475.44 1839.53 1479.01 Q1841.36 1482.55 1844.97 1482.55 Q1848.6 1482.55 1850.41 1479.01 Q1852.24 1475.44 1852.24 1468.33 Q1852.24 1461.2 1850.41 1457.66 Q1848.6 1454.1 1844.97 1454.1 M1844.97 1450.39 Q1850.78 1450.39 1853.83 1455 Q1856.91 1459.58 1856.91 1468.33 Q1856.91 1477.06 1853.83 1481.67 Q1850.78 1486.25 1844.97 1486.25 Q1839.16 1486.25 1836.08 1481.67 Q1833.02 1477.06 1833.02 1468.33 Q1833.02 1459.58 1836.08 1455 Q1839.16 1450.39 1844.97 1450.39 Z" fill="#000000" fill-rule="nonzero" fill-opacity="1" /><path clip-path="url(#clip520)" d="M2316.45 1481.64 L2332.77 1481.64 L2332.77 1485.58 L2310.82 1485.58 L2310.82 1481.64 Q2313.49 1478.89 2318.07 1474.26 Q2322.68 1469.61 2323.86 1468.27 Q2326.1 1465.74 2326.98 1464.01 Q2327.88 1462.25 2327.88 1460.56 Q2327.88 1457.8 2325.94 1456.07 Q2324.02 1454.33 2320.92 1454.33 Q2318.72 1454.33 2316.26 1455.09 Q2313.83 1455.86 2311.05 1457.41 L2311.05 1452.69 Q2313.88 1451.55 2316.33 1450.97 Q2318.79 1450.39 2320.82 1450.39 Q2326.19 1450.39 2329.39 1453.08 Q2332.58 1455.77 2332.58 1460.26 Q2332.58 1462.39 2331.77 1464.31 Q2330.99 1466.2 2328.88 1468.8 Q2328.3 1469.47 2325.2 1472.69 Q2322.1 1475.88 2316.45 1481.64 Z" fill="#000000" fill-rule="nonzero" fill-opacity="1" /><path clip-path="url(#clip520)" d="M2352.58 1454.1 Q2348.97 1454.1 2347.14 1457.66 Q2345.34 1461.2 2345.34 1468.33 Q2345.34 1475.44 2347.14 1479.01 Q2348.97 1482.55 2352.58 1482.55 Q2356.22 1482.55 2358.02 1479.01 Q2359.85 1475.44 2359.85 1468.33 Q2359.85 1461.2 2358.02 1457.66 Q2356.22 1454.1 2352.58 1454.1 M2352.58 1450.39 Q2358.39 1450.39 2361.45 1455 Q2364.53 1459.58 2364.53 1468.33 Q2364.53 1477.06 2361.45 1481.67 Q2358.39 1486.25 2352.58 1486.25 Q2346.77 1486.25 2343.69 1481.67 Q2340.64 1477.06 2340.64 1468.33 Q2340.64 1459.58 2343.69 1455 Q2346.77 1450.39 2352.58 1450.39 Z" fill="#000000" fill-rule="nonzero" fill-opacity="1" /><path clip-path="url(#clip520)" d="M2382.74 1454.1 Q2379.13 1454.1 2377.3 1457.66 Q2375.5 1461.2 2375.5 1468.33 Q2375.5 1475.44 2377.3 1479.01 Q2379.13 1482.55 2382.74 1482.55 Q2386.38 1482.55 2388.18 1479.01 Q2390.01 1475.44 2390.01 1468.33 Q2390.01 1461.2 2388.18 1457.66 Q2386.38 1454.1 2382.74 1454.1 M2382.74 1450.39 Q2388.55 1450.39 2391.61 1455 Q2394.69 1459.58 2394.69 1468.33 Q2394.69 1477.06 2391.61 1481.67 Q2388.55 1486.25 2382.74 1486.25 Q2376.93 1486.25 2373.86 1481.67 Q2370.8 1477.06 2370.8 1468.33 Q2370.8 1459.58 2373.86 1455 Q2376.93 1450.39 2382.74 1450.39 Z" fill="#000000" fill-rule="nonzero" fill-opacity="1" /><path clip-path="url(#clip520)" d="M1189.66 1537.87 Q1188.67 1537.3 1187.5 1537.04 Q1186.35 1536.76 1184.95 1536.76 Q1179.98 1536.76 1177.31 1540 Q1174.67 1543.22 1174.67 1549.27 L1174.67 1568.04 L1168.78 1568.04 L1168.78 1532.4 L1174.67 1532.4 L1174.67 1537.93 Q1176.51 1534.69 1179.47 1533.13 Q1182.43 1531.54 1186.67 1531.54 Q1187.27 1531.54 1188 1531.63 Q1188.74 1531.7 1189.63 1531.85 L1189.66 1537.87 Z" fill="#000000" fill-rule="nonzero" fill-opacity="1" /><path clip-path="url(#clip520)" d="M1230.59 1518.58 Q1226.33 1525.9 1224.26 1533.06 Q1222.19 1540.23 1222.19 1547.58 Q1222.19 1554.93 1224.26 1562.16 Q1226.36 1569.35 1230.59 1576.64 L1225.5 1576.64 Q1220.72 1569.16 1218.34 1561.93 Q1215.98 1554.71 1215.98 1547.58 Q1215.98 1540.48 1218.34 1533.29 Q1220.69 1526.09 1225.5 1518.58 L1230.59 1518.58 Z" fill="#000000" fill-rule="nonzero" fill-opacity="1" /><path clip-path="url(#clip520)" d="M1242.21 1520.52 L1251.79 1520.52 L1263.92 1552.86 L1276.11 1520.52 L1285.69 1520.52 L1285.69 1568.04 L1279.42 1568.04 L1279.42 1526.32 L1267.16 1558.91 L1260.7 1558.91 L1248.45 1526.32 L1248.45 1568.04 L1242.21 1568.04 L1242.21 1520.52 Z" fill="#000000" fill-rule="nonzero" fill-opacity="1" /><path clip-path="url(#clip520)" d="M1303.86 1562.7 L1303.86 1581.6 L1297.97 1581.6 L1297.97 1532.4 L1303.86 1532.4 L1303.86 1537.81 Q1305.71 1534.62 1308.51 1533.1 Q1311.34 1531.54 1315.25 1531.54 Q1321.75 1531.54 1325.79 1536.69 Q1329.86 1541.85 1329.86 1550.25 Q1329.86 1558.65 1325.79 1563.81 Q1321.75 1568.97 1315.25 1568.97 Q1311.34 1568.97 1308.51 1567.44 Q1305.71 1565.88 1303.86 1562.7 M1323.78 1550.25 Q1323.78 1543.79 1321.11 1540.13 Q1318.47 1536.44 1313.82 1536.44 Q1309.18 1536.44 1306.5 1540.13 Q1303.86 1543.79 1303.86 1550.25 Q1303.86 1556.71 1306.5 1560.4 Q1309.18 1564.07 1313.82 1564.07 Q1318.47 1564.07 1321.11 1560.4 Q1323.78 1556.71 1323.78 1550.25 Z" fill="#000000" fill-rule="nonzero" fill-opacity="1" /><path clip-path="url(#clip520)" d="M1365.23 1533.76 L1365.23 1539.24 Q1362.74 1537.87 1360.23 1537.2 Q1357.75 1536.5 1355.2 1536.5 Q1349.5 1536.5 1346.35 1540.13 Q1343.2 1543.73 1343.2 1550.25 Q1343.2 1556.78 1346.35 1560.4 Q1349.5 1564 1355.2 1564 Q1357.75 1564 1360.23 1563.33 Q1362.74 1562.63 1365.23 1561.26 L1365.23 1566.68 Q1362.77 1567.82 1360.13 1568.39 Q1357.52 1568.97 1354.56 1568.97 Q1346.51 1568.97 1341.77 1563.91 Q1337.03 1558.85 1337.03 1550.25 Q1337.03 1541.53 1341.8 1536.53 Q1346.61 1531.54 1354.94 1531.54 Q1357.65 1531.54 1360.23 1532.11 Q1362.81 1532.65 1365.23 1533.76 Z" fill="#000000" fill-rule="nonzero" fill-opacity="1" /><path clip-path="url(#clip520)" d="M1374.49 1518.58 L1379.58 1518.58 Q1384.35 1526.09 1386.71 1533.29 Q1389.1 1540.48 1389.1 1547.58 Q1389.1 1554.71 1386.71 1561.93 Q1384.35 1569.16 1379.58 1576.64 L1374.49 1576.64 Q1378.72 1569.35 1380.79 1562.16 Q1382.89 1554.93 1382.89 1547.58 Q1382.89 1540.23 1380.79 1533.06 Q1378.72 1525.9 1374.49 1518.58 Z" fill="#000000" fill-rule="nonzero" fill-opacity="1" /><polyline clip-path="url(#clip520)" style="stroke:#000000; stroke-linecap:round; stroke-linejoin:round; stroke-width:4; stroke-opacity:1; fill:none" points="205.121,1423.18 205.121,47.2441 "/>
<polyline clip-path="url(#clip520)" style="stroke:#000000; stroke-linecap:round; stroke-linejoin:round; stroke-width:4; stroke-opacity:1; fill:none" points="205.121,1200.1 224.019,1200.1 "/>
<polyline clip-path="url(#clip520)" style="stroke:#000000; stroke-linecap:round; stroke-linejoin:round; stroke-width:4; stroke-opacity:1; fill:none" points="205.121,840.916 224.019,840.916 "/>
<polyline clip-path="url(#clip520)" style="stroke:#000000; stroke-linecap:round; stroke-linejoin:round; stroke-width:4; stroke-opacity:1; fill:none" points="205.121,481.732 224.019,481.732 "/>
<polyline clip-path="url(#clip520)" style="stroke:#000000; stroke-linecap:round; stroke-linejoin:round; stroke-width:4; stroke-opacity:1; fill:none" points="205.121,122.549 224.019,122.549 "/>
<path clip-path="url(#clip520)" d="M157.177 1185.9 Q153.566 1185.9 151.737 1189.46 Q149.931 1193.01 149.931 1200.13 Q149.931 1207.24 151.737 1210.81 Q153.566 1214.35 157.177 1214.35 Q160.811 1214.35 162.616 1210.81 Q164.445 1207.24 164.445 1200.13 Q164.445 1193.01 162.616 1189.46 Q160.811 1185.9 157.177 1185.9 M157.177 1182.2 Q162.987 1182.2 166.042 1186.8 Q169.121 1191.38 169.121 1200.13 Q169.121 1208.86 166.042 1213.47 Q162.987 1218.05 157.177 1218.05 Q151.366 1218.05 148.288 1213.47 Q145.232 1208.86 145.232 1200.13 Q145.232 1191.38 148.288 1186.8 Q151.366 1182.2 157.177 1182.2 Z" fill="#000000" fill-rule="nonzero" fill-opacity="1" /><path clip-path="url(#clip520)" d="M121.043 854.261 L137.362 854.261 L137.362 858.196 L115.418 858.196 L115.418 854.261 Q118.08 851.507 122.663 846.877 Q127.269 842.224 128.45 840.882 Q130.695 838.358 131.575 836.622 Q132.478 834.863 132.478 833.173 Q132.478 830.419 130.533 828.683 Q128.612 826.947 125.51 826.947 Q123.311 826.947 120.857 827.71 Q118.427 828.474 115.649 830.025 L115.649 825.303 Q118.473 824.169 120.927 823.59 Q123.38 823.011 125.418 823.011 Q130.788 823.011 133.982 825.697 Q137.177 828.382 137.177 832.872 Q137.177 835.002 136.367 836.923 Q135.579 838.821 133.473 841.414 Q132.894 842.085 129.792 845.303 Q126.691 848.497 121.043 854.261 Z" fill="#000000" fill-rule="nonzero" fill-opacity="1" /><path clip-path="url(#clip520)" d="M157.177 826.715 Q153.566 826.715 151.737 830.28 Q149.931 833.821 149.931 840.951 Q149.931 848.058 151.737 851.622 Q153.566 855.164 157.177 855.164 Q160.811 855.164 162.616 851.622 Q164.445 848.058 164.445 840.951 Q164.445 833.821 162.616 830.28 Q160.811 826.715 157.177 826.715 M157.177 823.011 Q162.987 823.011 166.042 827.618 Q169.121 832.201 169.121 840.951 Q169.121 849.678 166.042 854.284 Q162.987 858.868 157.177 858.868 Q151.366 858.868 148.288 854.284 Q145.232 849.678 145.232 840.951 Q145.232 832.201 148.288 827.618 Q151.366 823.011 157.177 823.011 Z" fill="#000000" fill-rule="nonzero" fill-opacity="1" /><path clip-path="url(#clip520)" d="M129.862 468.527 L118.056 486.976 L129.862 486.976 L129.862 468.527 M128.635 464.452 L134.515 464.452 L134.515 486.976 L139.445 486.976 L139.445 490.864 L134.515 490.864 L134.515 499.012 L129.862 499.012 L129.862 490.864 L114.26 490.864 L114.26 486.351 L128.635 464.452 Z" fill="#000000" fill-rule="nonzero" fill-opacity="1" /><path clip-path="url(#clip520)" d="M157.177 467.531 Q153.566 467.531 151.737 471.096 Q149.931 474.638 149.931 481.767 Q149.931 488.874 151.737 492.438 Q153.566 495.98 157.177 495.98 Q160.811 495.98 162.616 492.438 Q164.445 488.874 164.445 481.767 Q164.445 474.638 162.616 471.096 Q160.811 467.531 157.177 467.531 M157.177 463.827 Q162.987 463.827 166.042 468.434 Q169.121 473.017 169.121 481.767 Q169.121 490.494 166.042 495.1 Q162.987 499.684 157.177 499.684 Q151.366 499.684 148.288 495.1 Q145.232 490.494 145.232 481.767 Q145.232 473.017 148.288 468.434 Q151.366 463.827 157.177 463.827 Z" fill="#000000" fill-rule="nonzero" fill-opacity="1" /><path clip-path="url(#clip520)" d="M127.593 120.685 Q124.445 120.685 122.593 122.838 Q120.765 124.991 120.765 128.741 Q120.765 132.468 122.593 134.643 Q124.445 136.796 127.593 136.796 Q130.742 136.796 132.57 134.643 Q134.422 132.468 134.422 128.741 Q134.422 124.991 132.57 122.838 Q130.742 120.685 127.593 120.685 M136.876 106.032 L136.876 110.292 Q135.117 109.458 133.311 109.019 Q131.529 108.579 129.769 108.579 Q125.14 108.579 122.686 111.704 Q120.255 114.829 119.908 121.148 Q121.274 119.134 123.334 118.069 Q125.394 116.982 127.871 116.982 Q133.08 116.982 136.089 120.153 Q139.121 123.301 139.121 128.741 Q139.121 134.065 135.973 137.282 Q132.825 140.5 127.593 140.5 Q121.598 140.5 118.427 135.917 Q115.256 131.31 115.256 122.583 Q115.256 114.389 119.144 109.528 Q123.033 104.644 129.584 104.644 Q131.343 104.644 133.126 104.991 Q134.931 105.338 136.876 106.032 Z" fill="#000000" fill-rule="nonzero" fill-opacity="1" /><path clip-path="url(#clip520)" d="M157.177 108.347 Q153.566 108.347 151.737 111.912 Q149.931 115.454 149.931 122.583 Q149.931 129.69 151.737 133.255 Q153.566 136.796 157.177 136.796 Q160.811 136.796 162.616 133.255 Q164.445 129.69 164.445 122.583 Q164.445 115.454 162.616 111.912 Q160.811 108.347 157.177 108.347 M157.177 104.644 Q162.987 104.644 166.042 109.25 Q169.121 113.833 169.121 122.583 Q169.121 131.31 166.042 135.917 Q162.987 140.5 157.177 140.5 Q151.366 140.5 148.288 135.917 Q145.232 131.31 145.232 122.583 Q145.232 113.833 148.288 109.25 Q151.366 104.644 157.177 104.644 Z" fill="#000000" fill-rule="nonzero" fill-opacity="1" /><path clip-path="url(#clip520)" d="M33.8307 914.136 Q33.2578 915.123 33.0032 916.3 Q32.7167 917.446 32.7167 918.847 Q32.7167 923.812 35.9632 926.486 Q39.1779 929.127 45.2253 929.127 L64.0042 929.127 L64.0042 935.016 L28.3562 935.016 L28.3562 929.127 L33.8944 929.127 Q30.6479 927.281 29.0883 924.321 Q27.4968 921.361 27.4968 917.128 Q27.4968 916.523 27.5923 915.791 Q27.656 915.059 27.8151 914.168 L33.8307 914.136 Z" fill="#000000" fill-rule="nonzero" fill-opacity="1" /><path clip-path="url(#clip520)" d="M39.1142 905.606 L39.1142 892.111 L42.7427 892.111 L42.7427 911.144 L39.2416 911.144 Q38.2549 910.062 36.4725 908.057 Q26.7648 897.108 23.7729 897.108 Q21.6722 897.108 20.3991 898.763 Q19.0941 900.418 19.0941 903.123 Q19.0941 904.778 19.667 906.72 Q20.2081 908.662 21.3221 910.953 L17.4072 910.953 Q16.516 908.502 16.0704 906.402 Q15.6248 904.269 15.6248 902.455 Q15.6248 897.84 17.7255 895.071 Q19.8262 892.302 23.2636 892.302 Q27.6878 892.302 36.7271 902.837 Q38.2549 904.619 39.1142 905.606 Z" fill="#000000" fill-rule="nonzero" fill-opacity="1" /><path clip-path="url(#clip520)" d="M59.9619 844.05 Q59.9938 839.848 62.3809 837.334 Q64.8954 834.66 68.7148 834.66 Q72.3751 834.66 74.9213 837.016 Q77.6904 839.562 77.6904 844.75 Q75.3033 844.75 72.8843 844.75 Q73.0435 842.554 71.643 841.217 Q70.529 840.198 69.3514 840.198 Q67.6644 840.198 66.264 841.217 Q64.9272 842.204 64.9272 844.05 Q64.9272 863.879 51.0181 863.879 Q41.4696 863.879 38.6686 853.28 Q37.5228 862.192 29.2474 862.192 Q22.9772 862.192 20.3672 855.19 L20.3672 861.81 L14.479 861.81 L14.479 836.697 L20.3672 836.697 Q20.3672 856.717 29.6293 856.717 Q35.7086 856.717 35.995 839.912 L41.4059 839.912 Q40.7057 858.054 51.0181 857.991 Q59.6436 857.959 59.9619 844.05 Z" fill="#000000" fill-rule="nonzero" fill-opacity="1" /><path clip-path="url(#clip520)" d="M14.5426 790.005 Q21.8632 794.27 29.0246 796.339 Q36.186 798.408 43.5384 798.408 Q50.8908 798.408 58.1159 796.339 Q65.3091 794.238 72.5979 790.005 L72.5979 795.097 Q65.1182 799.872 57.8931 802.259 Q50.668 804.614 43.5384 804.614 Q36.4406 804.614 29.2474 802.259 Q22.0542 799.903 14.5426 795.097 L14.5426 790.005 Z" fill="#000000" fill-rule="nonzero" fill-opacity="1" /><path clip-path="url(#clip520)" d="M16.4842 778.387 L16.4842 768.807 L48.8219 756.68 L16.4842 744.49 L16.4842 734.91 L64.0042 734.91 L64.0042 741.18 L22.277 741.18 L54.8694 753.434 L54.8694 759.895 L22.277 772.149 L64.0042 772.149 L64.0042 778.387 L16.4842 778.387 Z" fill="#000000" fill-rule="nonzero" fill-opacity="1" /><path clip-path="url(#clip520)" d="M58.657 716.736 L77.5631 716.736 L77.5631 722.624 L28.3562 722.624 L28.3562 716.736 L33.7671 716.736 Q30.5842 714.889 29.0564 712.089 Q27.4968 709.256 27.4968 705.341 Q27.4968 698.848 32.6531 694.806 Q37.8093 690.732 46.212 690.732 Q54.6147 690.732 59.771 694.806 Q64.9272 698.848 64.9272 705.341 Q64.9272 709.256 63.3994 712.089 Q61.8398 714.889 58.657 716.736 M46.212 696.811 Q39.7508 696.811 36.0905 699.484 Q32.3984 702.126 32.3984 706.773 Q32.3984 711.42 36.0905 714.094 Q39.7508 716.736 46.212 716.736 Q52.6732 716.736 56.3653 714.094 Q60.0256 711.42 60.0256 706.773 Q60.0256 702.126 56.3653 699.484 Q52.6732 696.811 46.212 696.811 Z" fill="#000000" fill-rule="nonzero" fill-opacity="1" /><path clip-path="url(#clip520)" d="M29.7248 655.37 L35.1993 655.37 Q33.8307 657.853 33.1623 660.367 Q32.4621 662.85 32.4621 665.396 Q32.4621 671.093 36.0905 674.244 Q39.6872 677.395 46.212 677.395 Q52.7369 677.395 56.3653 674.244 Q59.9619 671.093 59.9619 665.396 Q59.9619 662.85 59.2935 660.367 Q58.5933 657.853 57.2247 655.37 L62.6355 655.37 Q63.7814 657.821 64.3543 660.463 Q64.9272 663.073 64.9272 666.033 Q64.9272 674.085 59.8664 678.828 Q54.8057 683.57 46.212 683.57 Q37.491 683.57 32.4939 678.796 Q27.4968 673.99 27.4968 665.651 Q27.4968 662.945 28.0697 660.367 Q28.6108 657.789 29.7248 655.37 Z" fill="#000000" fill-rule="nonzero" fill-opacity="1" /><path clip-path="url(#clip520)" d="M16.4842 620.9 L34.2127 603.617 L34.2127 610.014 L21.6404 624.019 L34.2127 638.024 L34.2127 644.421 L16.4842 627.138 L16.4842 620.9 Z" fill="#000000" fill-rule="nonzero" fill-opacity="1" /><path clip-path="url(#clip520)" d="M58.5933 584.201 L58.5933 561.762 L64.0042 561.762 L64.0042 591.936 L58.5933 591.936 Q54.8057 588.276 48.44 581.973 Q42.0425 575.64 40.1964 574.016 Q36.7271 570.929 34.34 569.72 Q31.921 568.478 29.5975 568.478 Q25.8099 568.478 23.4228 571.152 Q21.0356 573.794 21.0356 578.059 Q21.0356 581.082 22.086 584.456 Q23.1363 587.798 25.2688 591.618 L18.7758 591.618 Q17.2162 587.734 16.4205 584.361 Q15.6248 580.987 15.6248 578.186 Q15.6248 570.802 19.3169 566.409 Q23.009 562.017 29.1837 562.017 Q32.112 562.017 34.7537 563.131 Q37.3637 564.213 40.9285 567.11 Q41.8515 567.905 46.2757 572.17 Q50.668 576.435 58.5933 584.201 Z" fill="#000000" fill-rule="nonzero" fill-opacity="1" /><path clip-path="url(#clip520)" d="M14.5426 550.018 L14.5426 544.925 Q22.0542 540.151 29.2474 537.795 Q36.4406 535.408 43.5384 535.408 Q50.668 535.408 57.8931 537.795 Q65.1182 540.151 72.5979 544.925 L72.5979 550.018 Q65.3091 545.784 58.1159 543.716 Q50.8908 541.615 43.5384 541.615 Q36.186 541.615 29.0246 543.716 Q21.8632 545.784 14.5426 550.018 Z" fill="#000000" fill-rule="nonzero" fill-opacity="1" /><polyline clip-path="url(#clip522)" style="stroke:#009af9; stroke-linecap:round; stroke-linejoin:round; stroke-width:4; stroke-opacity:1; fill:none" points="205.188,1200.06 205.189,1200.06 205.19,1200.06 205.19,1200.06 205.191,1200.05 205.192,1200.05 205.192,1200.05 205.193,1200.05 205.193,1200.05 205.194,1200.05 205.195,1200.05 205.195,1200.05 205.196,1200.05 205.197,1200.05 205.197,1200.05 205.198,1200.05 205.199,1200.05 205.2,1200.04 205.2,1200.04 205.201,1200.04 205.202,1200.04 205.202,1200.04 205.203,1200.04 205.204,1200.04 205.205,1200.04 205.205,1200.04 205.206,1200.04 205.207,1200.03 205.208,1200.03 205.209,1200.03 205.209,1200.03 205.21,1200.03 205.211,1200.03 205.212,1200.03 205.213,1200.03 205.213,1200.03 205.214,1200.02 205.215,1200.02 205.216,1200.02 205.217,1200.02 205.218,1200.02 205.219,1200.02 205.219,1200.02 205.22,1200.01 205.221,1200.01 205.222,1200.01 205.223,1200.01 205.224,1200.01 205.225,1200.01 205.226,1200.01 205.227,1200.01 205.228,1200 205.229,1200 205.23,1200 205.231,1200 205.232,1200 205.233,1200 205.234,1200 205.235,1199.99 205.236,1199.99 205.237,1199.99 205.238,1199.99 205.239,1199.99 205.24,1199.99 205.241,1199.98 205.242,1199.98 205.243,1199.98 205.244,1199.98 205.245,1199.98 205.246,1199.97 205.248,1199.97 205.249,1199.97 205.25,1199.97 205.251,1199.97 205.252,1199.96 205.253,1199.96 205.255,1199.96 205.256,1199.96 205.257,1199.96 205.258,1199.95 205.26,1199.95 205.261,1199.95 205.262,1199.95 205.263,1199.95 205.265,1199.94 205.266,1199.94 205.267,1199.94 205.269,1199.94 205.27,1199.93 205.271,1199.93 205.273,1199.93 205.274,1199.93 205.275,1199.92 205.277,1199.92 205.278,1199.92 205.28,1199.91 205.281,1199.91 205.282,1199.91 205.284,1199.91 205.285,1199.9 205.287,1199.9 205.288,1199.9 205.29,1199.9 205.291,1199.89 205.293,1199.89 205.294,1199.89 205.296,1199.88 205.298,1199.88 205.299,1199.88 205.301,1199.87 205.302,1199.87 205.304,1199.87 205.306,1199.86 205.307,1199.86 205.309,1199.86 205.311,1199.85 205.313,1199.85 205.314,1199.84 205.316,1199.84 205.318,1199.84 205.32,1199.83 205.321,1199.83 205.323,1199.82 205.325,1199.82 205.327,1199.82 205.329,1199.81 205.331,1199.81 205.332,1199.8 205.334,1199.8 205.336,1199.79 205.338,1199.79 205.34,1199.79 205.342,1199.78 205.344,1199.78 205.346,1199.77 205.348,1199.77 205.35,1199.76 205.352,1199.76 205.354,1199.75 205.357,1199.75 205.359,1199.74 205.361,1199.74 205.363,1199.73 205.365,1199.73 205.367,1199.72 205.37,1199.72 205.372,1199.71 205.374,1199.7 205.376,1199.7 205.379,1199.69 205.381,1199.69 205.383,1199.68 205.386,1199.67 205.388,1199.67 205.391,1199.66 205.393,1199.66 205.395,1199.65 205.398,1199.64 205.4,1199.64 205.403,1199.63 205.405,1199.62 205.408,1199.62 205.411,1199.61 205.413,1199.6 205.416,1199.59 205.419,1199.59 205.421,1199.58 205.424,1199.57 205.427,1199.56 205.429,1199.56 205.432,1199.55 205.435,1199.54 205.438,1199.53 205.441,1199.52 205.444,1199.52 205.447,1199.51 205.45,1199.5 205.452,1199.49 205.455,1199.48 205.459,1199.47 205.462,1199.46 205.465,1199.45 205.468,1199.45 205.471,1199.44 205.474,1199.43 205.477,1199.42 205.48,1199.41 205.484,1199.4 205.487,1199.39 205.49,1199.38 205.494,1199.37 205.497,1199.36 205.5,1199.35 205.504,1199.33 205.507,1199.32 205.511,1199.31 205.514,1199.3 205.518,1199.29 205.521,1199.28 205.525,1199.27 205.529,1199.25 205.532,1199.24 205.536,1199.23 205.54,1199.22 205.544,1199.21 205.547,1199.19 205.551,1199.18 205.555,1199.17 205.559,1199.15 205.563,1199.14 205.567,1199.13 205.571,1199.11 205.575,1199.1 205.579,1199.08 205.583,1199.07 205.588,1199.05 205.592,1199.04 205.596,1199.03 205.6,1199.01 205.605,1198.99 205.609,1198.98 205.613,1198.96 205.618,1198.95 205.622,1198.93 205.627,1198.91 205.631,1198.9 205.636,1198.88 205.641,1198.86 205.645,1198.85 205.65,1198.83 205.655,1198.81 205.66,1198.79 205.665,1198.77 205.67,1198.75 205.675,1198.74 205.68,1198.72 205.685,1198.7 205.69,1198.68 205.695,1198.66 205.7,1198.64 205.705,1198.62 205.711,1198.6 205.716,1198.57 205.721,1198.55 205.727,1198.53 205.732,1198.51 205.738,1198.49 205.743,1198.47 205.749,1198.44 205.755,1198.42 205.76,1198.4 205.766,1198.37 205.772,1198.35 205.778,1198.32 205.784,1198.3 205.79,1198.27 205.796,1198.25 205.802,1198.22 205.808,1198.2 205.814,1198.17 205.82,1198.14 205.827,1198.12 205.833,1198.09 205.84,1198.06 205.846,1198.03 205.853,1198 205.859,1197.97 205.866,1197.94 205.873,1197.91 205.879,1197.88 205.886,1197.85 205.893,1197.82 205.9,1197.79 205.907,1197.76 205.914,1197.73 205.921,1197.69 205.929,1197.66 205.936,1197.63 205.943,1197.59 205.951,1197.56 205.958,1197.52 205.966,1197.49 205.973,1197.45 205.981,1197.41 205.989,1197.38 205.997,1197.34 206.005,1197.3 206.013,1197.26 206.021,1197.23 206.029,1197.19 206.037,1197.15 206.045,1197.11 206.054,1197.06 206.062,1197.02 206.071,1196.98 206.079,1196.94 206.088,1196.89 206.097,1196.85 206.105,1196.81 206.114,1196.76 206.123,1196.72 206.132,1196.67 206.141,1196.62 206.151,1196.58 206.16,1196.53 206.169,1196.48 206.179,1196.43 206.188,1196.38 206.198,1196.33 206.208,1196.28 206.218,1196.23 206.227,1196.17 206.237,1196.12 206.248,1196.07 206.258,1196.01 206.268,1195.96 206.278,1195.9 206.289,1195.84 206.299,1195.78 206.31,1195.73 206.321,1195.67 206.332,1195.61 206.343,1195.55 206.354,1195.49 206.365,1195.42 206.376,1195.36 206.387,1195.3 206.399,1195.23 206.41,1195.17 206.422,1195.1 206.434,1195.03 206.446,1194.96 206.458,1194.9 206.47,1194.83 206.482,1194.75 206.494,1194.68 206.506,1194.61 206.519,1194.54 206.532,1194.46 206.544,1194.39 206.557,1194.31 206.57,1194.23 206.583,1194.15 206.597,1194.08 206.61,1194 206.623,1193.91 206.637,1193.83 206.651,1193.75 206.664,1193.66 206.678,1193.58 206.692,1193.49 206.707,1193.4 206.721,1193.31 206.735,1193.22 206.75,1193.13 206.765,1193.04 206.78,1192.95 206.795,1192.85 206.81,1192.76 206.825,1192.66 206.84,1192.56 206.856,1192.46 206.872,1192.36 206.887,1192.26 206.903,1192.15 206.919,1192.05 206.936,1191.94 206.952,1191.84 206.969,1191.73 206.985,1191.62 207.002,1191.51 207.019,1191.39 207.036,1191.28 207.054,1191.16 207.071,1191.05 207.089,1190.93 207.106,1190.81 207.124,1190.69 207.142,1190.56 207.161,1190.44 207.179,1190.31 207.198,1190.18 207.217,1190.05 207.235,1189.92 207.255,1189.79 207.274,1189.66 207.293,1189.52 207.313,1189.38 207.333,1189.24 207.353,1189.1 207.373,1188.96 207.393,1188.82 207.414,1188.67 207.434,1188.52 207.455,1188.37 207.476,1188.22 207.498,1188.07 207.519,1187.91 207.541,1187.75 207.563,1187.59 207.585,1187.43 207.607,1187.27 207.63,1187.1 207.652,1186.94 207.675,1186.77 207.698,1186.6 207.721,1186.42 207.745,1186.25 207.769,1186.07 207.793,1185.89 207.817,1185.71 207.841,1185.52 207.866,1185.34 207.89,1185.15 207.915,1184.96 207.941,1184.76 207.966,1184.57 207.992,1184.37 208.018,1184.17 208.044,1183.97 208.07,1183.76 208.097,1183.56 208.124,1183.35 208.151,1183.13 208.178,1182.92 208.206,1182.7 208.234,1182.48 208.262,1182.26 208.29,1182.03 208.319,1181.8 208.348,1181.57 208.377,1181.34 208.407,1181.1 208.436,1180.86 208.466,1180.62 208.496,1180.37 208.527,1180.13 208.558,1179.88 208.589,1179.62 208.62,1179.37 208.652,1179.11 208.684,1178.84 208.716,1178.58 208.748,1178.31 208.781,1178.04 208.814,1177.76 208.847,1177.48 208.881,1177.2 208.915,1176.91 208.949,1176.63 208.984,1176.33 209.019,1176.04 209.054,1175.74 209.09,1175.44 209.125,1175.13 209.162,1174.82 209.198,1174.51 209.235,1174.19 209.272,1173.87 209.31,1173.55 209.348,1173.22 209.386,1172.89 209.424,1172.56 209.463,1172.22 209.502,1171.88 209.542,1171.53 209.582,1171.18 209.622,1170.82 209.663,1170.47 209.704,1170.1 209.745,1169.74 209.787,1169.37 209.829,1168.99 209.872,1168.61 209.915,1168.23 209.958,1167.84 210.002,1167.45 210.046,1167.05 210.09,1166.65 210.135,1166.24 210.181,1165.83 210.226,1165.42 210.272,1165 210.319,1164.57 210.366,1164.14 210.413,1163.71 210.461,1163.27 210.509,1162.83 210.558,1162.38 210.607,1161.93 210.657,1161.47 210.707,1161 210.757,1160.53 210.808,1160.06 210.859,1159.58 210.911,1159.1 210.964,1158.61 211.016,1158.11 211.07,1157.61 211.123,1157.11 211.178,1156.59 211.232,1156.08 211.288,1155.55 211.343,1155.03 211.4,1154.49 211.456,1153.95 211.514,1153.4 211.571,1152.85 211.63,1152.3 211.688,1151.73 211.748,1151.16 211.808,1150.59 211.868,1150 211.929,1149.41 211.99,1148.82 212.053,1148.22 212.115,1147.61 212.178,1147 212.242,1146.38 212.306,1145.75 212.371,1145.12 212.437,1144.48 212.503,1143.83 212.57,1143.17 212.637,1142.51 212.705,1141.84 212.773,1141.17 212.843,1140.49 212.912,1139.8 212.983,1139.1 213.054,1138.4 213.125,1137.69 213.198,1136.97 213.271,1136.24 213.344,1135.51 213.419,1134.77 213.494,1134.02 213.569,1133.26 213.646,1132.5 213.723,1131.72 213.8,1130.94 213.879,1130.16 213.958,1129.36 214.038,1128.56 214.118,1127.74 214.2,1126.92 214.282,1126.09 214.364,1125.25 214.448,1124.41 214.532,1123.55 214.617,1122.69 214.703,1121.82 214.79,1120.94 214.877,1120.05 214.965,1119.15 215.054,1118.24 215.144,1117.33 215.234,1116.4 215.326,1115.46 215.418,1114.52 215.511,1113.57 215.605,1112.6 215.699,1111.63 215.795,1110.65 215.891,1109.66 215.989,1108.66 216.087,1107.64 216.186,1106.62 216.286,1105.59 216.387,1104.55 216.489,1103.5 216.591,1102.44 216.695,1101.37 216.8,1100.28 216.905,1099.19 217.012,1098.09 217.119,1096.98 217.227,1095.85 217.337,1094.72 217.447,1093.57 217.559,1092.41 217.671,1091.25 217.784,1090.07 217.899,1088.88 218.014,1087.68 218.131,1086.47 218.248,1085.24 218.367,1084.01 218.486,1082.76 218.607,1081.5 218.729,1080.23 218.852,1078.95 218.976,1077.66 219.101,1076.35 219.228,1075.03 219.355,1073.7 219.484,1072.36 219.613,1071.01 219.744,1069.64 219.876,1068.26 220.01,1066.87 220.144,1065.47 220.28,1064.05 220.417,1062.62 220.555,1061.18 220.695,1059.73 220.835,1058.26 220.977,1056.78 221.121,1055.28 221.265,1053.78 221.411,1052.26 221.558,1050.72 221.707,1049.18 221.857,1047.61 222.008,1046.04 222.16,1044.45 222.314,1042.85 222.47,1041.23 222.626,1039.6 222.785,1037.96 222.944,1036.3 223.105,1034.63 223.268,1032.94 223.432,1031.24 223.597,1029.53 223.764,1027.8 223.932,1026.05 224.102,1024.29 224.274,1022.52 224.447,1020.73 224.622,1018.93 224.798,1017.11 224.976,1015.28 225.155,1013.43 225.336,1011.56 225.519,1009.69 225.703,1007.79 225.889,1005.88 226.076,1003.96 226.266,1002.02 226.457,1000.06 226.65,998.086 226.844,996.099 227.04,994.095 227.238,992.075 227.438,990.04 227.64,987.988 227.843,985.92 228.049,983.836 228.256,981.736 228.465,979.619 228.676,977.486 228.889,975.337 229.103,973.171 229.32,970.988 229.539,968.789 229.759,966.574 229.982,964.341 230.206,962.092 230.433,959.825 230.662,957.542 230.893,955.242 231.125,952.925 231.36,950.591 231.597,948.239 231.837,945.871 232.078,943.485 232.322,941.082 232.567,938.661 232.815,936.223 233.066,933.768 233.318,931.295 233.573,928.805 233.83,926.297 234.089,923.771 234.351,921.228 234.615,918.667 234.882,916.089 235.15,913.492 235.422,910.878 235.696,908.246 235.972,905.596 236.251,902.929 236.532,900.243 236.816,897.539 237.102,894.818 237.391,892.078 237.682,889.321 237.977,886.545 238.273,883.751 238.573,880.94 238.875,878.11 239.18,875.262 239.488,872.396 239.798,869.512 240.112,866.61 240.428,863.689 240.747,860.751 241.069,857.794 241.394,854.819 241.721,851.827 242.052,848.816 242.386,845.786 242.722,842.739 243.062,839.674 243.405,836.591 243.751,833.489 244.1,830.37 244.452,827.232 244.807,824.077 245.166,820.903 245.528,817.712 245.893,814.503 246.261,811.276 246.633,808.031 247.008,804.768 247.386,801.487 247.768,798.189 248.154,794.873 248.542,791.539 248.935,788.188 249.331,784.82 249.73,781.433 250.133,778.03 250.54,774.609 250.95,771.171 251.364,767.716 251.782,764.243 252.204,760.754 252.629,757.247 253.058,753.724 253.491,750.184 253.928,746.627 254.369,743.054 254.814,739.464 255.263,735.857 255.716,732.234 256.173,728.596 256.635,724.94 257.1,721.269 257.57,717.582 258.044,713.879 258.522,710.161 259.004,706.427 259.491,702.677 259.982,698.913 260.478,695.133 260.978,691.338 261.483,687.528 261.992,683.704 262.506,679.865 263.024,676.012 263.548,672.144 264.075,668.262 264.608,664.367 265.146,660.457 265.688,656.534 266.235,652.598 266.787,648.648 267.344,644.686 267.907,640.71 268.474,636.722 269.046,632.722 269.624,628.709 270.207,624.684 270.795,620.647 271.388,616.599 271.987,612.539 272.591,608.468 273.201,604.387 273.816,600.294 274.436,596.191 275.063,592.078 275.694,587.955 276.332,583.822 276.975,579.679 277.625,575.528 278.28,571.367 278.941,567.198 279.608,563.02 280.281,558.834 280.96,554.64 281.645,550.438 282.336,546.229 283.034,542.014 283.738,537.791 284.448,533.562 285.165,529.327 285.888,525.086 286.618,520.84 287.354,516.588 288.097,512.332 288.847,508.071 289.603,503.806 290.367,499.537 291.137,495.264 291.914,490.989 292.698,486.711 293.49,482.43 294.288,478.147 295.094,473.863 295.906,469.577 296.727,465.29 297.554,461.003 298.39,456.716 299.232,452.428 300.083,448.142 300.941,443.856 301.806,439.572 302.68,435.289 303.561,431.009 304.451,426.731 305.348,422.457 306.254,418.186 307.167,413.919 308.089,409.656 309.02,405.398 309.958,401.145 310.906,396.898 311.861,392.657 312.826,388.423 313.799,384.196 314.781,379.976 315.772,375.765 316.771,371.561 317.78,367.367 318.798,363.183 319.825,359.008 320.861,354.843 321.907,350.69 322.962,346.547 324.027,342.417 325.101,338.299 326.185,334.195 327.279,330.103 328.383,326.025 329.497,321.962 330.62,317.914 331.754,313.882 332.898,309.866 334.053,305.866 335.218,301.883 336.393,297.918 337.579,293.972 338.776,290.044 339.984,286.135 341.202,282.247 342.432,278.378 343.672,274.531 344.924,270.705 346.187,266.901 347.462,263.12 348.748,259.363 350.045,255.629 351.355,251.919 352.676,248.235 354.009,244.576 355.354,240.943 356.712,237.337 358.081,233.758 359.463,230.208 360.858,226.686 362.265,223.192 363.685,219.729 365.117,216.296 366.563,212.894 368.022,209.523 369.493,206.185 370.979,202.879 372.477,199.606 373.989,196.367 375.515,193.163 377.054,189.994 378.608,186.86 380.175,183.763 381.757,180.703 383.353,177.68 384.963,174.695 386.588,171.749 388.228,168.842 389.882,165.976 391.551,163.15 393.236,160.364 394.935,157.621 396.65,154.92 398.381,152.262 400.127,149.647 401.889,147.077 403.667,144.551 405.46,142.071 407.271,139.636 409.097,137.248 410.94,134.907 412.799,132.614 414.676,130.369 416.569,128.173 418.48,126.026 420.407,123.929 422.352,121.882 424.315,119.887 426.296,117.944 428.294,116.052 430.31,114.214 432.345,112.428 434.398,110.697 436.469,109.02 438.56,107.398 440.669,105.832 442.797,104.323 444.944,102.869 447.111,101.472 449.298,100.133 451.504,98.8528 453.73,97.6309 455.976,96.4683 458.243,95.3652 460.529,94.3219 462.837,93.3391 465.166,92.4174 467.515,91.5575 469.886,90.76 472.278,90.025 474.692,89.3529 477.127,88.7438 479.585,88.1985 482.065,87.7175 484.567,87.3014 487.092,86.9507 489.639,86.6655 492.21,86.446 494.804,86.2925 497.421,86.2055 500.062,86.1857 502.727,86.2335 505.416,86.3495 508.129,86.5336 510.867,86.7859 513.629,87.1067 516.416,87.4966 519.229,87.9561 522.067,88.4857 524.931,89.0856 527.82,89.7558 530.736,90.4962 533.678,91.3072 536.646,92.1893 539.642,93.1431 542.664,94.1688 545.714,95.2669 548.791,96.4371 551.896,97.6795 555.029,98.9944 558.191,100.382 561.381,101.844 564.599,103.38 567.847,104.989 571.125,106.672 574.431,108.428 577.768,110.258 581.135,112.162 584.532,114.139 587.96,116.191 591.419,118.316 594.91,120.515 598.431,122.786 601.985,125.131 605.571,127.55 609.189,130.042 612.839,132.608 616.523,135.247 620.24,137.96 623.991,140.745 627.775,143.603 631.594,146.534 635.447,149.539 639.335,152.617 643.258,155.768 647.217,158.992 651.211,162.288 655.242,165.656 659.309,169.096 663.412,172.609 667.553,176.195 671.731,179.852 675.947,183.58 680.201,187.378 684.493,191.247 688.824,195.187 693.195,199.199 697.604,203.28 702.054,207.431 706.544,211.652 711.074,215.94 715.645,220.298 720.258,224.723 724.912,229.218 729.609,233.78 734.347,238.409 739.129,243.104 743.954,247.865 748.822,252.691 753.735,257.583 758.691,262.539 763.693,267.561 768.74,272.645 773.832,277.791 778.97,282.999 784.155,288.268 789.387,293.599 794.665,298.992 799.992,304.445 805.367,309.957 810.79,315.527 816.262,321.155 821.784,326.841 827.355,332.584 832.977,338.385 838.65,344.242 844.374,350.152 850.15,356.116 855.978,362.132 861.858,368.201 867.792,374.321 873.779,380.493 879.82,386.714 885.916,392.983 892.067,399.298 898.274,405.66 904.537,412.068 910.856,418.522 917.232,425.021 923.666,431.565 930.158,438.152 936.709,444.781 943.319,451.452 949.989,458.165 956.718,464.921 963.509,471.718 970.361,478.554 977.275,485.426 984.252,492.335 991.291,499.279 998.394,506.258 1005.56,513.271 1012.79,520.317 1020.09,527.394 1027.45,534.501 1034.88,541.638 1042.38,548.805 1049.95,556.004 1057.58,563.237 1065.28,570.503 1073.05,577.803 1080.89,585.136 1088.81,592.505 1096.79,599.91 1104.85,607.352 1112.98,614.833 1121.18,622.351 1129.46,629.904 1137.81,637.492 1146.23,645.117 1154.74,652.779 1163.32,660.483 1171.97,668.229 1180.71,676.022 1189.52,683.863 1198.42,691.757 1207.39,699.708 1216.45,707.723 1225.59,715.804 1234.81,723.95 1244.11,732.16 1253.5,740.425 1262.97,748.737 1272.53,757.083 1282.17,765.449 1291.9,773.817 1301.72,782.162 1311.63,790.458 1321.63,798.673 1331.71,806.771 1341.89,814.708 1352.16,822.43 1362.53,829.866 1372.98,836.923 1383.53,843.479 1394.18,849.381 1404.93,854.441 1415.77,858.437 1426.7,861.106 1437.74,862.155 1448.88,861.267 1460.11,858.115 1471.45,852.386 1482.9,843.803 1494.44,832.151 1506.09,817.306 1517.84,799.254 1529.7,778.121 1541.67,754.18 1553.75,727.867 1565.93,699.777 1578.23,670.649 1590.63,641.337 1603.15,612.777 1615.78,585.942 1628.53,561.793 1641.39,541.228 1654.37,525.037 1667.46,513.859 1680.67,508.142 1694,508.127 1707.46,513.839 1721.03,525.099 1734.73,541.545 1748.55,562.672 1762.49,587.865 1776.56,616.449 1790.76,647.728 1805.09,681.022 1819.54,715.7 1834.13,751.194 1848.85,787.013 1863.7,822.734 1878.68,857.997 1893.8,892.493 1909.06,925.957 1924.46,958.164 1939.99,988.934 1955.66,1018.13 1971.48,1045.68 1987.44,1071.55 2003.54,1095.76 2019.79,1118.38 2036.19,1139.5 2052.73,1159.24 2069.42,1177.7 2086.27,1194.98 2103.26,1211.11 2120.41,1226.13 2137.72,1240.04 2155.18,1252.82 2172.8,1264.52 2190.58,1275.18 2208.52,1284.89 2226.62,1293.79 2244.88,1301.99 2263.31,1309.64 2281.91,1316.82 2300.67,1323.57 2319.6,1329.91 2338.71,1335.78 2357.98,1341.14 2377.44,1345.93 2397.06,1350.15 2416.87,1353.85 2436.85,1357.12 2457.01,1360.09 2477.36,1362.9 2497.89,1365.63 2518.61,1368.31 2539.51,1370.9 2560.6,1373.31 2581.88,1375.45 2603.36,1377.22 2625.02,1378.59 2646.89,1379.6 2668.95,1380.33 2691.21,1380.92 2713.67,1381.49 2736.34,1382.12 2759.21,1382.81 2782.28,1383.48 2805.57,1384 2829.06,1384.24 2852.77,1384.09 2876.69,1383.56 2900.83,1382.73 2925.18,1381.79 2949.76,1380.92 2974.56,1380.29 2999.58,1379.97 3024.83,1379.94 3050.3,1380.1 3076.01,1380.29 3101.95,1380.39 3128.12,1380.33 3154.53,1380.14 3181.18,1379.92 3208.07,1379.8 3235.2,1379.89 3262.58,1380.2 3290.2,1380.65 3318.08,1381.05 3346.2,1381.2 3374.58,1380.91 3403.22,1380.13 3432.11,1378.93 3461.27,1377.49 3490.69,1376.02 3520.37,1374.72 3550.33,1373.63 3580.55,1372.69 3611.05,1371.74 3641.82,1370.59 3672.87,1369.09 3704.2,1367.23 3735.82,1365.13 3767.72,1362.98 3799.91,1361 3832.38,1359.35 3865.16,1358.04 3898.23,1356.93 3931.59,1355.82 3965.26,1354.51 3999.23,1352.88 4033.51,1350.94 4068.1,1348.86 4103.01,1346.87 4138.22,1345.17 4173.76,1343.82 4209.62,1342.75 4245.8,1341.74 4282.31,1340.58 4319.14,1339.13 4356.31,1337.4 4393.82,1335.49 4431.66,1333.62 4469.85,1331.99 4508.38,1330.71 4547.26,1329.7 4586.5,1328.76 4626.08,1327.67 4666.02,1326.3 4706.33,1324.65 4747,1322.85 4788.03,1321.09 4829.44,1319.54 4871.22,1318.32 4913.38,1317.42 4955.92,1316.62 4998.84,1315.63 5042.15,1314.28 5085.86,1312.62 5129.95,1310.88 5174.45,1309.25 5219.35,1307.84 5264.65,1306.69 5310.37,1305.83 5356.49,1305.12 5403.03,1304.26 5450,1302.97 5497.39,1301.29 5545.2,1299.55 5593.45,1298.05 5642.13,1296.88 5691.26,1295.93 5740.82,1295.08 5790.84,1294.25 5841.31,1293.33 5892.23,1292.14 5943.61,1290.67 5995.46,1289.06 6047.78,1287.61 6100.57,1286.53 6153.83,1285.79 6207.58,1285.16 6261.81,1284.31 6316.53,1283.12 6371.75,1281.78 6427.47,1280.5 6483.69,1279.33 6540.41,1278.18 6597.65,1277.12 6655.41,1276.3 6713.69,1275.69 6772.49,1274.96 6831.83,1273.84 6891.7,1272.42 6952.12,1271.05 7013.07,1269.99 7074.58,1269.26 7136.65,1268.68 7199.28,1267.99 7262.47,1267.05 7326.23,1265.91 7390.57,1264.81 7455.49,1263.84 7521,1262.88 7587.1,1261.89 7653.8,1261.07 7721.1,1260.51 7789,1260.01 7857.52,1259.21 7926.66,1258.04 7996.43,1256.8 8066.82,1255.76 8137.85,1255.04 8209.53,1254.59 8281.85,1254.15 8354.82,1253.46 8428.45,1252.47 8502.75,1251.42 8577.72,1250.57 8653.37,1249.88 8729.7,1249.11 8806.72,1248.35 8884.43,1247.75 8962.85,1247.24 9041.98,1246.67 9121.82,1245.92 9202.38,1245 9283.67,1244.07 9365.7,1243.23 9448.46,1242.68 9531.98,1242.44 9616.25,1242.08 9701.28,1241.34 9787.07,1240.39 9873.65,1239.55 9961,1238.92 10049.1,1238.42 10138.1,1237.97 10227.8,1237.48 10318.4,1236.91 10409.8,1236.24 10502,1235.59 10595,1235.1 10688.9,1234.53 10783.6,1233.83 10879.2,1233.29 10975.6,1232.89 11072.9,1232.51 11171.1,1232.06 11270.2,1231.45 11370.2,1230.81 11471,1230.18 11572.8,1229.63 11675.5,1229.33 11779.2,1229.13 11883.7,1228.7 11989.3,1228.03 12095.7,1227.42 12203.2,1226.92 12311.6,1226.49 12420.9,1226.21 12531.3,1225.94 12642.7,1225.5 12755.1,1224.98 12868.4,1224.41 12982.9,1224.02 13098.3,1223.75 13214.8,1223.36 13332.3,1222.93 13450.9,1222.6 13570.6,1222.24 13691.4,1221.82 13813.2,1221.49 13936.2,1221.17 14060.2,1220.71 14185.4,1220.3 14311.7,1220.03 14439.2,1219.77 14567.8,1219.54 14697.6,1219.16 14828.5,1218.75 14960.6,1218.38 15093.9,1218.01 15228.5,1217.74 15364.2,1217.58 15501.2,1217.39 15639.4,1217.01 15778.8,1216.61 15919.5,1216.32 16061.5,1215.99 16204.8,1215.74 16349.3,1215.61 16495.2,1215.38 16642.4,1215.07 16790.9,1214.76 16940.7,1214.46 17091.9,1214.23 17244.5,1213.99 17398.5,1213.81 17553.8,1213.57 17710.6,1213.37 17868.7,1213.09 18028.3,1212.82 18189.3,1212.66 18351.8,1212.44 18515.8,1212.17 18681.2,1211.99 18848.2,1211.83 19016.6,1211.59 19186.6,1211.4 19358.1,1211.23 19531.1,1211.02 19705.7,1210.74 19881.9,1210.59 20059.7,1210.43 20239.1,1210.29 20420.1,1210.12 20602.7,1209.94 20787,1209.73 20973,1209.51 21160.6,1209.36 21349.9,1209.22 21541,1209.13 21733.8,1208.98 21928.3,1208.77 22124.5,1208.6 22322.6,1208.43 22522.4,1208.27 22724.1,1208.17 22927.5,1208.08 23132.8,1207.94 23340,1207.73 23549,1207.61 23759.9,1207.46 23972.7,1207.32 24187.5,1207.24 24404.1,1207.14 24622.8,1206.99 24843.4,1206.84 25066,1206.73 25290.6,1206.6 25517.3,1206.49 25746,1206.4 25976.7,1206.3 26209.6,1206.17 26444.5,1206.07 26681.6,1205.94 26920.8,1205.85 27162.2,1205.75 27405.8,1205.66 27651.5,1205.56 27899.5,1205.46 28149.7,1205.37 28402.2,1205.25 28657,1205.18 28914,1205.09 29173.4,1204.99 29435.1,1204.9 29699.2,1204.83 29965.7,1204.74 30234.6,1204.65 30505.9,1204.59 30779.7,1204.5 31055.9,1204.41 31334.7,1204.34 31615.9,1204.28 31899.7,1204.19 32186.1,1204.12 32475,1204.06 32766.6,1203.98 33060.8,1203.89 33357.6,1203.84 33657.2,1203.78 33959.4,1203.72 34264.4,1203.65 34572.1,1203.59 34882.6,1203.52 35195.9,1203.45 35512.1,1203.4 35831.1,1203.34 36153,1203.29 36477.8,1203.23 36805.5,1203.17 37136.2,1203.11 37469.8,1203.06 37806.5,1203 38146.3,1202.96 38489.1,1202.92 38835,1202.86 39184,1202.81 39536.2,1202.76 39891.5,1202.71 40250.1,1202.66 40611.9,1202.62 40977,1202.59 41345.3,1202.54 41717,1202.48 42092.1,1202.45 42470.6,1202.4 42852.4,1202.36 43237.7,1202.33 43626.5,1202.29 44018.9,1202.25 44414.7,1202.2 44814.2,1202.17 45217.2,1202.13 45623.9,1202.09 46034.2,1202.06 46448.3,1202.03 46866.1,1201.99 47287.7,1201.95 47713.1,1201.92 48142.3,1201.88 48575.5,1201.85 49012.5,1201.83 49453.5,1201.8 49898.4,1201.77 50347.4,1201.73 50800.4,1201.7 51257.6,1201.67 51718.8,1201.65 52184.3,1201.62 52653.9,1201.6 53127.8,1201.57 53605.9,1201.54 54088.4,1201.51 54575.2,1201.49 55066.5,1201.46 55562.2,1201.44 56062.3,1201.42 56567,1201.39 57076.2,1201.37 57590,1201.35 58108.5,1201.33 58631.7,1201.31 59159.6,1201.29 59692.2,1201.26 60229.7,1201.24 60772,1201.22 61319.2,1201.2 61871.4,1201.18 62428.6,1201.16 62990.8,1201.15 63558,1201.12 64130.4,1201.11 64708,1201.09 65290.8,1201.07 65878.8,1201.05 66472.2,1201.04 67070.9,1201.02 67675.1,1201 68284.7,1200.99 68899.8,1200.97 69520.4,1200.95 70146.7,1200.94 70778.6,1200.93 71416.2,1200.91 72059.6,1200.9 72708.8,1200.88 73363.9,1200.87 74024.9,1200.85 74691.9,1200.84 75364.9,1200.83 76043.9,1200.82 76729.2,1200.8 77420.5,1200.79 78118.2,1200.78 78822.1,1200.77 79532.5,1200.75 80249.2,1200.74 80972.4,1200.73 81702.1,1200.72 82438.4,1200.71 83181.4,1200.7 83931.1,1200.69 84687.6,1200.68 85450.9,1200.67 86221.1,1200.66 86998.2,1200.65 87782.4,1200.64 88573.7,1200.63 89372.1,1200.62 90177.7,1200.61 90990.6,1200.6 91810.9,1200.59 92638.6,1200.58 93473.7,1200.57 94316.4,1200.57 95166.7,1200.56 96024.7,1200.55 96890.4,1200.54 97764,1200.53 98645.4,1200.53 99534.8,1200.52 100432,1200.51 101338,1200.5 102252,1200.5 103174,1200.49 104104,1200.48 105043,1200.48 105990,1200.47 106946,1200.46 107910,1200.46 108883,1200.45 109865,1200.44 110856,1200.44 111856,1200.43 112864,1200.43 113882,1200.42 114909,1200.42 115946,1200.41 116991,1200.4 118047,1200.4 119111,1200.39 120186,1200.39 121270,1200.38 122363,1200.38 123467,1200.37 124581,1200.37 125705,1200.36 126838,1200.36 127983,1200.35 129137,1200.35 130302,1200.35 131477,1200.34 132663,1200.34 133860,1200.33 135068,1200.33 136286,1200.32 137516,1200.32 138756,1200.32 140008,1200.31 141271,1200.31 142546,1200.31 143832,1200.3 145130,1200.3 146439,1200.29 147760,1200.29 149093,1200.29 150439,1200.28 151796,1200.28 153166,1200.28 154548,1200.27 155942,1200.27 157349,1200.27 158769,1200.27 160202,1200.26 161647,1200.26 163106,1200.26 164578,1200.25 166063,1200.25 167561,1200.25 169073,1200.25 170599,1200.24 172139,1200.24 173692,1200.24 175259,1200.24 176841,1200.23 178437,1200.23 180047,1200.23 181672,1200.23 183312,1200.22 184966,1200.22 186635,1200.22 188320,1200.22 190019,1200.22 191734,1200.21 193465,1200.21 195211,1200.21 196973,1200.21 198751,1200.21 200545,1200.2 202355,1200.2 204181,1200.2 206024,1200.2 207884,1200.2 209760,1200.2 211653,1200.19 213564,1200.19 215492,1200.19 217437,1200.19 219399,1200.19 221380,1200.19 223378,1200.18 225394,1200.18 227429,1200.18 229482,1200.18 231554,1200.18 233644,1200.18 235753,1200.18 237881,1200.17 240029,1200.17 242195,1200.17 244382,1200.17 246588,1200.17 248814,1200.17 251060,1200.17 253327,1200.17 255614,1200.16 257921,1200.16 260250,1200.16 262599,1200.16 264970,1200.16 267362,1200.16 269776,1200.16 272211,1200.16 274669,1200.16 277149,1200.16 279651,1200.15 282176,1200.15 284724,1200.15 287294,1200.15 289888,1200.15 292505,1200.15 295146,1200.15 297811,1200.15 300500,1200.15 303213,1200.15 305951,1200.15 308713,1200.14 311501,1200.14 314313,1200.14 317151,1200.14 320015,1200.14 322904,1200.14 325820,1200.14 328762,1200.14 331730,1200.14 334726,1200.14 337748,1200.14 340798,1200.14 343875,1200.14 346980,1200.14 350113,1200.13 353275,1200.13 356465,1200.13 359684,1200.13 362931,1200.13 366209,1200.13 369516,1200.13 372852,1200.13 376219,1200.13 379616,1200.13 383044,1200.13 386503,1200.13 389994,1200.13 393515,1200.13 397069,1200.13 400655,1200.13 404273,1200.13 407924,1200.13 411607,1200.13 415324,1200.12 419075,1200.12 422859,1200.12 426678,1200.12 430531,1200.12 434419,1200.12 438343,1200.12 442301,1200.12 446295,1200.12 450326,1200.12 454393,1200.12 458496,1200.12 462637,1200.12 466815,1200.12 471031,1200.12 475285,1200.12 479577,1200.12 483908,1200.12 488279,1200.12 492689,1200.12 497138,1200.12 501628,1200.12 506158,1200.12 510730,1200.12 515342,1200.12 519997,1200.12 524693,1200.12 529432,1200.12 534213,1200.11 539038,1200.11 543906,1200.11 548819,1200.11 553775,1200.11 558777,1200.11 563824,1200.11 568916,1200.11 574054,1200.11 579239,1200.11 584471,1200.11 589750,1200.11 595076,1200.11 600451,1200.11 605874,1200.11 611346,1200.11 616868,1200.11 622440,1200.11 628062,1200.11 633734,1200.11 639458,1200.11 645234,1200.11 651062,1200.11 656942,1200.11 662876,1200.11 668863,1200.11 674905,1200.11 681000,1200.11 687151,1200.11 693358,1200.11 699621,1200.11 705940,1200.11 712316,1200.11 718750,1200.11 725242,1200.11 731793,1200.11 738403,1200.11 745073,1200.11 751803,1200.11 758593,1200.11 765445,1200.11 772359,1200.11 779336,1200.11 786375,1200.11 793478,1200.11 800646,1200.11 807878,1200.11 815175,1200.11 822538,1200.11 829968,1200.11 837465,1200.11 845030,1200.1 852663,1200.1 860365,1200.1 868136,1200.1 875978,1200.1 883891,1200.1 891875,1200.1 899931,1200.1 908060,1200.1 916263,1200.1 924539,1200.1 932891,1200.1 941318,1200.1 949821,1200.1 958401,1200.1 967058,1200.1 975793,1200.1 984608,1200.1 993502,1200.1 1.00248e+06,1200.1 1.01153e+06,1200.1 1.02067e+06,1200.1 1.02989e+06,1200.1 1.03919e+06,1200.1 1.04858e+06,1200.1 1.05805e+06,1200.1 1.06761e+06,1200.1 1.07725e+06,1200.1 1.08698e+06,1200.1 1.0968e+06,1200.1 1.10671e+06,1200.1 1.11671e+06,1200.1 1.1268e+06,1200.1 1.13698e+06,1200.1 1.14725e+06,1200.1 1.15761e+06,1200.1 1.16807e+06,1200.1 1.17862e+06,1200.1 1.18927e+06,1200.1 1.20001e+06,1200.1 1.21085e+06,1200.1 1.22179e+06,1200.1 1.23282e+06,1200.1 1.24396e+06,1200.1 1.2552e+06,1200.1 1.26654e+06,1200.1 1.27798e+06,1200.1 1.28952e+06,1200.1 1.30117e+06,1200.1 1.31293e+06,1200.1 1.32479e+06,1200.1 1.33676e+06,1200.1 1.34883e+06,1200.1 1.36102e+06,1200.1 1.37331e+06,1200.1 1.38572e+06,1200.1 1.39824e+06,1200.1 1.41087e+06,1200.1 1.42361e+06,1200.1 1.43647e+06,1200.1 1.44945e+06,1200.1 1.46254e+06,1200.1 1.47576e+06,1200.1 1.48909e+06,1200.1 1.50254e+06,1200.1 1.51611e+06,1200.1 1.52981e+06,1200.1 1.54363e+06,1200.1 1.55757e+06,1200.1 1.57165e+06,1200.1 1.58584e+06,1200.1 1.60017e+06,1200.1 1.61463e+06,1200.1 1.62921e+06,1200.1 1.64393e+06,1200.1 1.65878e+06,1200.1 1.67377e+06,1200.1 1.68889e+06,1200.1 1.70414e+06,1200.1 1.71954e+06,1200.09 1.73507e+06,1200.09 1.75075e+06,1200.09 1.76656e+06,1200.09 1.78252e+06,1200.09 1.79863e+06,1200.09 1.81488e+06,1200.09 1.83127e+06,1200.09 1.84782e+06,1200.09 1.86451e+06,1200.09 1.88135e+06,1200.09 1.89835e+06,1200.09 1.9155e+06,1200.09 1.9328e+06,1200.09 1.95026e+06,1200.09 1.96788e+06,1200.09 1.98566e+06,1200.09 2.0036e+06,1200.09 2.0217e+06,1200.09 2.03997e+06,1200.09 2.05839e+06,1200.09 2.07699e+06,1200.09 2.09575e+06,1200.09 2.11469e+06,1200.09 2.13379e+06,1200.09 2.15307e+06,1200.09 2.17252e+06,1200.09 2.19215e+06,1200.09 2.21195e+06,1200.09 2.23193e+06,1200.09 2.2521e+06,1200.09 2.27244e+06,1200.09 2.29297e+06,1200.09 2.31369e+06,1200.09 2.33459e+06,1200.09 2.35568e+06,1200.09 2.37697e+06,1200.09 2.39844e+06,1200.09 2.42011e+06,1200.09 2.44197e+06,1200.09 2.46403e+06,1200.09 2.48629e+06,1200.08 2.50876e+06,1200.08 2.53142e+06,1200.08 2.55429e+06,1200.08 2.57737e+06,1200.08 2.60065e+06,1200.08 2.62415e+06,1200.08 2.64785e+06,1200.08 2.67178e+06,1200.08 2.69591e+06,1200.08 2.72027e+06,1200.08 2.74484e+06,1200.08 2.76964e+06,1200.08 2.79466e+06,1200.08 2.81991e+06,1200.08 2.84539e+06,1200.08 2.8711e+06,1200.08 2.89703e+06,1200.08 2.92321e+06,1200.08 2.94962e+06,1200.08 2.97626e+06,1200.08 3.00315e+06,1200.08 3.03029e+06,1200.08 3.05766e+06,1200.07 3.08529e+06,1200.07 3.11316e+06,1200.07 3.14129e+06,1200.07 3.16967e+06,1200.07 3.1983e+06,1200.07 3.2272e+06,1200.07 3.25635e+06,1200.07 3.28577e+06,1200.07 3.31546e+06,1200.07 3.34541e+06,1200.07 3.37563e+06,1200.07 3.40613e+06,1200.07 3.4369e+06,1200.07 3.46796e+06,1200.07 3.49929e+06,1200.07 3.5309e+06,1200.07 3.5628e+06,1200.06 3.59499e+06,1200.06 3.62747e+06,1200.06 3.66024e+06,1200.06 3.69331e+06,1200.06 3.72668e+06,1200.06 3.76035e+06,1200.06 3.79432e+06,1200.06 3.8286e+06,1200.06 3.86319e+06,1200.06 3.89809e+06,1200.06 3.93331e+06,1200.06 3.96884e+06,1200.06 4.0047e+06,1200.05 4.04088e+06,1200.05 4.07739e+06,1200.05 4.11423e+06,1200.05 4.1514e+06,1200.05 4.1889e+06,1200.05 4.1943e+06,1200.05 4.1943e+06,1200.05 4.1943e+06,1200.05 4.1943e+06,1200.05 4.1943e+06,1200.05 4.1943e+06,1200.05 4.1943e+06,1200.04 4.1943e+06,1200.04 4.1943e+06,1200.04 4.1943e+06,1200.04 4.1943e+06,1200.04 4.1943e+06,1200.04 4.1943e+06,1200.04 4.1943e+06,1200.04 4.1943e+06,1200.04 4.1943e+06,1200.04 4.1943e+06,1200.03 4.1943e+06,1200.03 4.1943e+06,1200.03 4.1943e+06,1200.03 4.1943e+06,1200.03 4.1943e+06,1200.03 4.1943e+06,1200.03 4.1943e+06,1200.03 4.1943e+06,1200.03 4.1943e+06,1200.03 4.1943e+06,1200.02 4.1943e+06,1200.02 4.1943e+06,1200.02 4.1943e+06,1200.02 4.1943e+06,1200.02 4.1943e+06,1200.02 4.1943e+06,1200.02 4.1943e+06,1200.02 4.1943e+06,1200.02 4.1943e+06,1200.02 4.1943e+06,1200.01 4.1943e+06,1200.01 4.1943e+06,1200.01 4.1943e+06,1200.01 4.1943e+06,1200.01 4.1943e+06,1200.01 4.1943e+06,1200.01 4.1943e+06,1200.01 4.1943e+06,1200 4.1943e+06,1200 4.1943e+06,1200 4.1943e+06,1200 4.1943e+06,1200 4.1943e+06,1200 4.1943e+06,1200 4.1943e+06,1199.99 "/>
<path clip-path="url(#clip520)" d="M2013.97 196.789 L2281.17 196.789 L2281.17 93.1086 L2013.97 93.1086  Z" fill="#ffffff" fill-rule="evenodd" fill-opacity="1"/>
<polyline clip-path="url(#clip520)" style="stroke:#000000; stroke-linecap:round; stroke-linejoin:round; stroke-width:4; stroke-opacity:1; fill:none" points="2013.97,196.789 2281.17,196.789 2281.17,93.1086 2013.97,93.1086 2013.97,196.789 "/>
<polyline clip-path="url(#clip520)" style="stroke:#009af9; stroke-linecap:round; stroke-linejoin:round; stroke-width:4; stroke-opacity:1; fill:none" points="2037.84,144.949 2181.01,144.949 "/>
<path clip-path="url(#clip520)" d="M2218.72 164.636 Q2216.91 169.266 2215.2 170.678 Q2213.49 172.09 2210.62 172.09 L2207.21 172.09 L2207.21 168.525 L2209.71 168.525 Q2211.47 168.525 2212.44 167.692 Q2213.42 166.858 2214.6 163.756 L2215.36 161.812 L2204.88 136.303 L2209.39 136.303 L2217.49 156.581 L2225.59 136.303 L2230.11 136.303 L2218.72 164.636 Z" fill="#000000" fill-rule="nonzero" fill-opacity="1" /><path clip-path="url(#clip520)" d="M2237.4 158.293 L2245.04 158.293 L2245.04 131.928 L2236.73 133.595 L2236.73 129.335 L2244.99 127.669 L2249.67 127.669 L2249.67 158.293 L2257.31 158.293 L2257.31 162.229 L2237.4 162.229 L2237.4 158.293 Z" fill="#000000" fill-rule="nonzero" fill-opacity="1" /></svg>
