<?xml version="1.0" encoding="utf-8"?>
<svg xmlns="http://www.w3.org/2000/svg" xmlns:xlink="http://www.w3.org/1999/xlink" width="600" height="400" viewBox="0 0 2400 1600">
<defs>
  <clipPath id="clip280">
    <rect x="0" y="0" width="2400" height="1600"/>
  </clipPath>
</defs>
<path clip-path="url(#clip280)" d="M0 1600 L2400 1600 L2400 0 L0 0  Z" fill="#ffffff" fill-rule="evenodd" fill-opacity="1"/>
<defs>
  <clipPath id="clip281">
    <rect x="242" y="47" width="2111" height="1377"/>
  </clipPath>
</defs>
<path clip-path="url(#clip280)" d="M242.621 1423.18 L2352.76 1423.18 L2352.76 47.2441 L242.621 47.2441  Z" fill="#ffffff" fill-rule="evenodd" fill-opacity="1"/>
<polyline clip-path="url(#clip281)" style="stroke:#000000; stroke-linecap:round; stroke-linejoin:round; stroke-width:2; stroke-opacity:0.1; fill:none" points="285.613,1423.18 285.613,47.2441 "/>
<polyline clip-path="url(#clip281)" style="stroke:#000000; stroke-linecap:round; stroke-linejoin:round; stroke-width:2; stroke-opacity:0.1; fill:none" points="954.754,1423.18 954.754,47.2441 "/>
<polyline clip-path="url(#clip281)" style="stroke:#000000; stroke-linecap:round; stroke-linejoin:round; stroke-width:2; stroke-opacity:0.1; fill:none" points="1623.89,1423.18 1623.89,47.2441 "/>
<polyline clip-path="url(#clip281)" style="stroke:#000000; stroke-linecap:round; stroke-linejoin:round; stroke-width:2; stroke-opacity:0.1; fill:none" points="2293.04,1423.18 2293.04,47.2441 "/>
<polyline clip-path="url(#clip281)" style="stroke:#000000; stroke-linecap:round; stroke-linejoin:round; stroke-width:2; stroke-opacity:0.1; fill:none" points="242.621,1400.51 2352.76,1400.51 "/>
<polyline clip-path="url(#clip281)" style="stroke:#000000; stroke-linecap:round; stroke-linejoin:round; stroke-width:2; stroke-opacity:0.1; fill:none" points="242.621,1179.35 2352.76,1179.35 "/>
<polyline clip-path="url(#clip281)" style="stroke:#000000; stroke-linecap:round; stroke-linejoin:round; stroke-width:2; stroke-opacity:0.1; fill:none" points="242.621,958.187 2352.76,958.187 "/>
<polyline clip-path="url(#clip281)" style="stroke:#000000; stroke-linecap:round; stroke-linejoin:round; stroke-width:2; stroke-opacity:0.1; fill:none" points="242.621,737.027 2352.76,737.027 "/>
<polyline clip-path="url(#clip281)" style="stroke:#000000; stroke-linecap:round; stroke-linejoin:round; stroke-width:2; stroke-opacity:0.1; fill:none" points="242.621,515.868 2352.76,515.868 "/>
<polyline clip-path="url(#clip281)" style="stroke:#000000; stroke-linecap:round; stroke-linejoin:round; stroke-width:2; stroke-opacity:0.1; fill:none" points="242.621,294.708 2352.76,294.708 "/>
<polyline clip-path="url(#clip281)" style="stroke:#000000; stroke-linecap:round; stroke-linejoin:round; stroke-width:2; stroke-opacity:0.1; fill:none" points="242.621,73.5481 2352.76,73.5481 "/>
<polyline clip-path="url(#clip280)" style="stroke:#000000; stroke-linecap:round; stroke-linejoin:round; stroke-width:4; stroke-opacity:1; fill:none" points="242.621,1423.18 2352.76,1423.18 "/>
<polyline clip-path="url(#clip280)" style="stroke:#000000; stroke-linecap:round; stroke-linejoin:round; stroke-width:4; stroke-opacity:1; fill:none" points="285.613,1423.18 285.613,1404.28 "/>
<polyline clip-path="url(#clip280)" style="stroke:#000000; stroke-linecap:round; stroke-linejoin:round; stroke-width:4; stroke-opacity:1; fill:none" points="954.754,1423.18 954.754,1404.28 "/>
<polyline clip-path="url(#clip280)" style="stroke:#000000; stroke-linecap:round; stroke-linejoin:round; stroke-width:4; stroke-opacity:1; fill:none" points="1623.89,1423.18 1623.89,1404.28 "/>
<polyline clip-path="url(#clip280)" style="stroke:#000000; stroke-linecap:round; stroke-linejoin:round; stroke-width:4; stroke-opacity:1; fill:none" points="2293.04,1423.18 2293.04,1404.28 "/>
<path clip-path="url(#clip280)" d="M285.613 1454.1 Q282.002 1454.1 280.173 1457.66 Q278.368 1461.2 278.368 1468.33 Q278.368 1475.44 280.173 1479.01 Q282.002 1482.55 285.613 1482.55 Q289.247 1482.55 291.053 1479.01 Q292.882 1475.44 292.882 1468.33 Q292.882 1461.2 291.053 1457.66 Q289.247 1454.1 285.613 1454.1 M285.613 1450.39 Q291.423 1450.39 294.479 1455 Q297.557 1459.58 297.557 1468.33 Q297.557 1477.06 294.479 1481.67 Q291.423 1486.25 285.613 1486.25 Q279.803 1486.25 276.724 1481.67 Q273.669 1477.06 273.669 1468.33 Q273.669 1459.58 276.724 1455 Q279.803 1450.39 285.613 1450.39 Z" fill="#000000" fill-rule="nonzero" fill-opacity="1" /><path clip-path="url(#clip280)" d="M899.28 1481.64 L906.918 1481.64 L906.918 1455.28 L898.608 1456.95 L898.608 1452.69 L906.872 1451.02 L911.548 1451.02 L911.548 1481.64 L919.187 1481.64 L919.187 1485.58 L899.28 1485.58 L899.28 1481.64 Z" fill="#000000" fill-rule="nonzero" fill-opacity="1" /><path clip-path="url(#clip280)" d="M938.631 1454.1 Q935.02 1454.1 933.191 1457.66 Q931.386 1461.2 931.386 1468.33 Q931.386 1475.44 933.191 1479.01 Q935.02 1482.55 938.631 1482.55 Q942.265 1482.55 944.071 1479.01 Q945.9 1475.44 945.9 1468.33 Q945.9 1461.2 944.071 1457.66 Q942.265 1454.1 938.631 1454.1 M938.631 1450.39 Q944.441 1450.39 947.497 1455 Q950.576 1459.58 950.576 1468.33 Q950.576 1477.06 947.497 1481.67 Q944.441 1486.25 938.631 1486.25 Q932.821 1486.25 929.742 1481.67 Q926.687 1477.06 926.687 1468.33 Q926.687 1459.58 929.742 1455 Q932.821 1450.39 938.631 1450.39 Z" fill="#000000" fill-rule="nonzero" fill-opacity="1" /><path clip-path="url(#clip280)" d="M968.793 1454.1 Q965.182 1454.1 963.353 1457.66 Q961.548 1461.2 961.548 1468.33 Q961.548 1475.44 963.353 1479.01 Q965.182 1482.55 968.793 1482.55 Q972.427 1482.55 974.233 1479.01 Q976.061 1475.44 976.061 1468.33 Q976.061 1461.2 974.233 1457.66 Q972.427 1454.1 968.793 1454.1 M968.793 1450.39 Q974.603 1450.39 977.659 1455 Q980.737 1459.58 980.737 1468.33 Q980.737 1477.06 977.659 1481.67 Q974.603 1486.25 968.793 1486.25 Q962.983 1486.25 959.904 1481.67 Q956.849 1477.06 956.849 1468.33 Q956.849 1459.58 959.904 1455 Q962.983 1450.39 968.793 1450.39 Z" fill="#000000" fill-rule="nonzero" fill-opacity="1" /><path clip-path="url(#clip280)" d="M998.955 1454.1 Q995.344 1454.1 993.515 1457.66 Q991.71 1461.2 991.71 1468.33 Q991.71 1475.44 993.515 1479.01 Q995.344 1482.55 998.955 1482.55 Q1002.59 1482.55 1004.39 1479.01 Q1006.22 1475.44 1006.22 1468.33 Q1006.22 1461.2 1004.39 1457.66 Q1002.59 1454.1 998.955 1454.1 M998.955 1450.39 Q1004.77 1450.39 1007.82 1455 Q1010.9 1459.58 1010.9 1468.33 Q1010.9 1477.06 1007.82 1481.67 Q1004.77 1486.25 998.955 1486.25 Q993.145 1486.25 990.066 1481.67 Q987.011 1477.06 987.011 1468.33 Q987.011 1459.58 990.066 1455 Q993.145 1450.39 998.955 1450.39 Z" fill="#000000" fill-rule="nonzero" fill-opacity="1" /><path clip-path="url(#clip280)" d="M1572.51 1481.64 L1588.83 1481.64 L1588.83 1485.58 L1566.88 1485.58 L1566.88 1481.64 Q1569.54 1478.89 1574.13 1474.26 Q1578.73 1469.61 1579.91 1468.27 Q1582.16 1465.74 1583.04 1464.01 Q1583.94 1462.25 1583.94 1460.56 Q1583.94 1457.8 1582 1456.07 Q1580.08 1454.33 1576.97 1454.33 Q1574.77 1454.33 1572.32 1455.09 Q1569.89 1455.86 1567.11 1457.41 L1567.11 1452.69 Q1569.94 1451.55 1572.39 1450.97 Q1574.84 1450.39 1576.88 1450.39 Q1582.25 1450.39 1585.45 1453.08 Q1588.64 1455.77 1588.64 1460.26 Q1588.64 1462.39 1587.83 1464.31 Q1587.04 1466.2 1584.94 1468.8 Q1584.36 1469.47 1581.26 1472.69 Q1578.15 1475.88 1572.51 1481.64 Z" fill="#000000" fill-rule="nonzero" fill-opacity="1" /><path clip-path="url(#clip280)" d="M1608.64 1454.1 Q1605.03 1454.1 1603.2 1457.66 Q1601.39 1461.2 1601.39 1468.33 Q1601.39 1475.44 1603.2 1479.01 Q1605.03 1482.55 1608.64 1482.55 Q1612.27 1482.55 1614.08 1479.01 Q1615.91 1475.44 1615.91 1468.33 Q1615.91 1461.2 1614.08 1457.66 Q1612.27 1454.1 1608.64 1454.1 M1608.64 1450.39 Q1614.45 1450.39 1617.51 1455 Q1620.58 1459.58 1620.58 1468.33 Q1620.58 1477.06 1617.51 1481.67 Q1614.45 1486.25 1608.64 1486.25 Q1602.83 1486.25 1599.75 1481.67 Q1596.7 1477.06 1596.7 1468.33 Q1596.7 1459.58 1599.75 1455 Q1602.83 1450.39 1608.64 1450.39 Z" fill="#000000" fill-rule="nonzero" fill-opacity="1" /><path clip-path="url(#clip280)" d="M1638.8 1454.1 Q1635.19 1454.1 1633.36 1457.66 Q1631.56 1461.2 1631.56 1468.33 Q1631.56 1475.44 1633.36 1479.01 Q1635.19 1482.55 1638.8 1482.55 Q1642.44 1482.55 1644.24 1479.01 Q1646.07 1475.44 1646.07 1468.33 Q1646.07 1461.2 1644.24 1457.66 Q1642.44 1454.1 1638.8 1454.1 M1638.8 1450.39 Q1644.61 1450.39 1647.67 1455 Q1650.75 1459.58 1650.75 1468.33 Q1650.75 1477.06 1647.67 1481.67 Q1644.61 1486.25 1638.8 1486.25 Q1632.99 1486.25 1629.91 1481.67 Q1626.86 1477.06 1626.86 1468.33 Q1626.86 1459.58 1629.91 1455 Q1632.99 1450.39 1638.8 1450.39 Z" fill="#000000" fill-rule="nonzero" fill-opacity="1" /><path clip-path="url(#clip280)" d="M1668.96 1454.1 Q1665.35 1454.1 1663.52 1457.66 Q1661.72 1461.2 1661.72 1468.33 Q1661.72 1475.44 1663.52 1479.01 Q1665.35 1482.55 1668.96 1482.55 Q1672.6 1482.55 1674.4 1479.01 Q1676.23 1475.44 1676.23 1468.33 Q1676.23 1461.2 1674.4 1457.66 Q1672.6 1454.1 1668.96 1454.1 M1668.96 1450.39 Q1674.77 1450.39 1677.83 1455 Q1680.91 1459.58 1680.91 1468.33 Q1680.91 1477.06 1677.83 1481.67 Q1674.77 1486.25 1668.96 1486.25 Q1663.15 1486.25 1660.07 1481.67 Q1657.02 1477.06 1657.02 1468.33 Q1657.02 1459.58 1660.07 1455 Q1663.15 1450.39 1668.96 1450.39 Z" fill="#000000" fill-rule="nonzero" fill-opacity="1" /><path clip-path="url(#clip280)" d="M2251.72 1466.95 Q2255.07 1467.66 2256.95 1469.93 Q2258.85 1472.2 2258.85 1475.53 Q2258.85 1480.65 2255.33 1483.45 Q2251.81 1486.25 2245.33 1486.25 Q2243.15 1486.25 2240.84 1485.81 Q2238.54 1485.39 2236.09 1484.54 L2236.09 1480.02 Q2238.04 1481.16 2240.35 1481.74 Q2242.66 1482.32 2245.19 1482.32 Q2249.59 1482.32 2251.88 1480.58 Q2254.19 1478.84 2254.19 1475.53 Q2254.19 1472.48 2252.04 1470.77 Q2249.91 1469.03 2246.09 1469.03 L2242.06 1469.03 L2242.06 1465.19 L2246.28 1465.19 Q2249.73 1465.19 2251.55 1463.82 Q2253.38 1462.43 2253.38 1459.84 Q2253.38 1457.18 2251.48 1455.77 Q2249.61 1454.33 2246.09 1454.33 Q2244.17 1454.33 2241.97 1454.75 Q2239.77 1455.16 2237.13 1456.04 L2237.13 1451.88 Q2239.79 1451.14 2242.11 1450.77 Q2244.45 1450.39 2246.51 1450.39 Q2251.83 1450.39 2254.93 1452.83 Q2258.04 1455.23 2258.04 1459.35 Q2258.04 1462.22 2256.39 1464.21 Q2254.75 1466.18 2251.72 1466.95 Z" fill="#000000" fill-rule="nonzero" fill-opacity="1" /><path clip-path="url(#clip280)" d="M2277.71 1454.1 Q2274.1 1454.1 2272.27 1457.66 Q2270.47 1461.2 2270.47 1468.33 Q2270.47 1475.44 2272.27 1479.01 Q2274.1 1482.55 2277.71 1482.55 Q2281.35 1482.55 2283.15 1479.01 Q2284.98 1475.44 2284.98 1468.33 Q2284.98 1461.2 2283.15 1457.66 Q2281.35 1454.1 2277.71 1454.1 M2277.71 1450.39 Q2283.52 1450.39 2286.58 1455 Q2289.66 1459.58 2289.66 1468.33 Q2289.66 1477.06 2286.58 1481.67 Q2283.52 1486.25 2277.71 1486.25 Q2271.9 1486.25 2268.82 1481.67 Q2265.77 1477.06 2265.77 1468.33 Q2265.77 1459.58 2268.82 1455 Q2271.9 1450.39 2277.71 1450.39 Z" fill="#000000" fill-rule="nonzero" fill-opacity="1" /><path clip-path="url(#clip280)" d="M2307.87 1454.1 Q2304.26 1454.1 2302.43 1457.66 Q2300.63 1461.2 2300.63 1468.33 Q2300.63 1475.44 2302.43 1479.01 Q2304.26 1482.55 2307.87 1482.55 Q2311.51 1482.55 2313.31 1479.01 Q2315.14 1475.44 2315.14 1468.33 Q2315.14 1461.2 2313.31 1457.66 Q2311.51 1454.1 2307.87 1454.1 M2307.87 1450.39 Q2313.68 1450.39 2316.74 1455 Q2319.82 1459.58 2319.82 1468.33 Q2319.82 1477.06 2316.74 1481.67 Q2313.68 1486.25 2307.87 1486.25 Q2302.06 1486.25 2298.98 1481.67 Q2295.93 1477.06 2295.93 1468.33 Q2295.93 1459.58 2298.98 1455 Q2302.06 1450.39 2307.87 1450.39 Z" fill="#000000" fill-rule="nonzero" fill-opacity="1" /><path clip-path="url(#clip280)" d="M2338.03 1454.1 Q2334.42 1454.1 2332.6 1457.66 Q2330.79 1461.2 2330.79 1468.33 Q2330.79 1475.44 2332.6 1479.01 Q2334.42 1482.55 2338.03 1482.55 Q2341.67 1482.55 2343.47 1479.01 Q2345.3 1475.44 2345.3 1468.33 Q2345.3 1461.2 2343.47 1457.66 Q2341.67 1454.1 2338.03 1454.1 M2338.03 1450.39 Q2343.85 1450.39 2346.9 1455 Q2349.98 1459.58 2349.98 1468.33 Q2349.98 1477.06 2346.9 1481.67 Q2343.85 1486.25 2338.03 1486.25 Q2332.22 1486.25 2329.15 1481.67 Q2326.09 1477.06 2326.09 1468.33 Q2326.09 1459.58 2329.15 1455 Q2332.22 1450.39 2338.03 1450.39 Z" fill="#000000" fill-rule="nonzero" fill-opacity="1" /><path clip-path="url(#clip280)" d="M1294.76 1518.52 L1300.62 1518.52 L1300.62 1568.04 L1294.76 1568.04 L1294.76 1518.52 Z" fill="#000000" fill-rule="nonzero" fill-opacity="1" /><polyline clip-path="url(#clip280)" style="stroke:#000000; stroke-linecap:round; stroke-linejoin:round; stroke-width:4; stroke-opacity:1; fill:none" points="242.621,1423.18 242.621,47.2441 "/>
<polyline clip-path="url(#clip280)" style="stroke:#000000; stroke-linecap:round; stroke-linejoin:round; stroke-width:4; stroke-opacity:1; fill:none" points="242.621,1400.51 261.518,1400.51 "/>
<polyline clip-path="url(#clip280)" style="stroke:#000000; stroke-linecap:round; stroke-linejoin:round; stroke-width:4; stroke-opacity:1; fill:none" points="242.621,1179.35 261.518,1179.35 "/>
<polyline clip-path="url(#clip280)" style="stroke:#000000; stroke-linecap:round; stroke-linejoin:round; stroke-width:4; stroke-opacity:1; fill:none" points="242.621,958.187 261.518,958.187 "/>
<polyline clip-path="url(#clip280)" style="stroke:#000000; stroke-linecap:round; stroke-linejoin:round; stroke-width:4; stroke-opacity:1; fill:none" points="242.621,737.027 261.518,737.027 "/>
<polyline clip-path="url(#clip280)" style="stroke:#000000; stroke-linecap:round; stroke-linejoin:round; stroke-width:4; stroke-opacity:1; fill:none" points="242.621,515.868 261.518,515.868 "/>
<polyline clip-path="url(#clip280)" style="stroke:#000000; stroke-linecap:round; stroke-linejoin:round; stroke-width:4; stroke-opacity:1; fill:none" points="242.621,294.708 261.518,294.708 "/>
<polyline clip-path="url(#clip280)" style="stroke:#000000; stroke-linecap:round; stroke-linejoin:round; stroke-width:4; stroke-opacity:1; fill:none" points="242.621,73.5481 261.518,73.5481 "/>
<path clip-path="url(#clip280)" d="M115.742 1400.96 L145.417 1400.96 L145.417 1404.89 L115.742 1404.89 L115.742 1400.96 Z" fill="#000000" fill-rule="nonzero" fill-opacity="1" /><path clip-path="url(#clip280)" d="M156.32 1413.85 L163.959 1413.85 L163.959 1387.49 L155.649 1389.15 L155.649 1384.89 L163.913 1383.23 L168.589 1383.23 L168.589 1413.85 L176.227 1413.85 L176.227 1417.79 L156.32 1417.79 L156.32 1413.85 Z" fill="#000000" fill-rule="nonzero" fill-opacity="1" /><path clip-path="url(#clip280)" d="M185.718 1383.23 L204.074 1383.23 L204.074 1387.16 L190 1387.16 L190 1395.63 Q191.019 1395.29 192.038 1395.12 Q193.056 1394.94 194.075 1394.94 Q199.862 1394.94 203.241 1398.11 Q206.621 1401.28 206.621 1406.7 Q206.621 1412.28 203.149 1415.38 Q199.676 1418.46 193.357 1418.46 Q191.181 1418.46 188.913 1418.09 Q186.667 1417.72 184.26 1416.98 L184.26 1412.28 Q186.343 1413.41 188.565 1413.97 Q190.788 1414.52 193.264 1414.52 Q197.269 1414.52 199.607 1412.42 Q201.945 1410.31 201.945 1406.7 Q201.945 1403.09 199.607 1400.98 Q197.269 1398.87 193.264 1398.87 Q191.389 1398.87 189.514 1399.29 Q187.663 1399.71 185.718 1400.59 L185.718 1383.23 Z" fill="#000000" fill-rule="nonzero" fill-opacity="1" /><path clip-path="url(#clip280)" d="M114.26 1179.8 L143.936 1179.8 L143.936 1183.73 L114.26 1183.73 L114.26 1179.8 Z" fill="#000000" fill-rule="nonzero" fill-opacity="1" /><path clip-path="url(#clip280)" d="M154.839 1192.69 L162.477 1192.69 L162.477 1166.33 L154.167 1167.99 L154.167 1163.73 L162.431 1162.07 L167.107 1162.07 L167.107 1192.69 L174.746 1192.69 L174.746 1196.63 L154.839 1196.63 L154.839 1192.69 Z" fill="#000000" fill-rule="nonzero" fill-opacity="1" /><path clip-path="url(#clip280)" d="M197.037 1166.14 L185.232 1184.59 L197.037 1184.59 L197.037 1166.14 M195.811 1162.07 L201.69 1162.07 L201.69 1184.59 L206.621 1184.59 L206.621 1188.48 L201.69 1188.48 L201.69 1196.63 L197.037 1196.63 L197.037 1188.48 L181.436 1188.48 L181.436 1183.97 L195.811 1162.07 Z" fill="#000000" fill-rule="nonzero" fill-opacity="1" /><path clip-path="url(#clip280)" d="M115.394 958.639 L145.07 958.639 L145.07 962.574 L115.394 962.574 L115.394 958.639 Z" fill="#000000" fill-rule="nonzero" fill-opacity="1" /><path clip-path="url(#clip280)" d="M155.973 971.532 L163.612 971.532 L163.612 945.167 L155.302 946.833 L155.302 942.574 L163.565 940.907 L168.241 940.907 L168.241 971.532 L175.88 971.532 L175.88 975.467 L155.973 975.467 L155.973 971.532 Z" fill="#000000" fill-rule="nonzero" fill-opacity="1" /><path clip-path="url(#clip280)" d="M199.491 956.833 Q202.848 957.551 204.723 959.819 Q206.621 962.088 206.621 965.421 Q206.621 970.537 203.102 973.338 Q199.584 976.139 193.102 976.139 Q190.926 976.139 188.612 975.699 Q186.32 975.282 183.866 974.426 L183.866 969.912 Q185.811 971.046 188.126 971.625 Q190.44 972.203 192.963 972.203 Q197.362 972.203 199.653 970.467 Q201.968 968.731 201.968 965.421 Q201.968 962.365 199.815 960.653 Q197.686 958.916 193.866 958.916 L189.838 958.916 L189.838 955.074 L194.051 955.074 Q197.5 955.074 199.329 953.708 Q201.158 952.319 201.158 949.727 Q201.158 947.065 199.26 945.653 Q197.385 944.217 193.866 944.217 Q191.945 944.217 189.746 944.634 Q187.547 945.051 184.908 945.93 L184.908 941.764 Q187.57 941.023 189.885 940.653 Q192.223 940.282 194.283 940.282 Q199.607 940.282 202.709 942.713 Q205.811 945.12 205.811 949.241 Q205.811 952.111 204.167 954.102 Q202.524 956.069 199.491 956.833 Z" fill="#000000" fill-rule="nonzero" fill-opacity="1" /><path clip-path="url(#clip280)" d="M116.343 737.479 L146.019 737.479 L146.019 741.414 L116.343 741.414 L116.343 737.479 Z" fill="#000000" fill-rule="nonzero" fill-opacity="1" /><path clip-path="url(#clip280)" d="M156.922 750.372 L164.561 750.372 L164.561 724.007 L156.251 725.673 L156.251 721.414 L164.515 719.747 L169.19 719.747 L169.19 750.372 L176.829 750.372 L176.829 754.307 L156.922 754.307 L156.922 750.372 Z" fill="#000000" fill-rule="nonzero" fill-opacity="1" /><path clip-path="url(#clip280)" d="M190.301 750.372 L206.621 750.372 L206.621 754.307 L184.676 754.307 L184.676 750.372 Q187.338 747.618 191.922 742.988 Q196.528 738.335 197.709 736.993 Q199.954 734.47 200.834 732.734 Q201.737 730.974 201.737 729.284 Q201.737 726.53 199.792 724.794 Q197.871 723.058 194.769 723.058 Q192.57 723.058 190.116 723.822 Q187.686 724.585 184.908 726.136 L184.908 721.414 Q187.732 720.28 190.186 719.701 Q192.639 719.122 194.676 719.122 Q200.047 719.122 203.241 721.808 Q206.436 724.493 206.436 728.984 Q206.436 731.113 205.625 733.034 Q204.838 734.933 202.732 737.525 Q202.153 738.196 199.051 741.414 Q195.95 744.608 190.301 750.372 Z" fill="#000000" fill-rule="nonzero" fill-opacity="1" /><path clip-path="url(#clip280)" d="M115.973 516.319 L145.649 516.319 L145.649 520.254 L115.973 520.254 L115.973 516.319 Z" fill="#000000" fill-rule="nonzero" fill-opacity="1" /><path clip-path="url(#clip280)" d="M156.552 529.213 L164.19 529.213 L164.19 502.847 L155.88 504.514 L155.88 500.254 L164.144 498.588 L168.82 498.588 L168.82 529.213 L176.459 529.213 L176.459 533.148 L156.552 533.148 L156.552 529.213 Z" fill="#000000" fill-rule="nonzero" fill-opacity="1" /><path clip-path="url(#clip280)" d="M186.713 529.213 L194.352 529.213 L194.352 502.847 L186.042 504.514 L186.042 500.254 L194.306 498.588 L198.982 498.588 L198.982 529.213 L206.621 529.213 L206.621 533.148 L186.713 533.148 L186.713 529.213 Z" fill="#000000" fill-rule="nonzero" fill-opacity="1" /><path clip-path="url(#clip280)" d="M114.746 295.159 L144.422 295.159 L144.422 299.094 L114.746 299.094 L114.746 295.159 Z" fill="#000000" fill-rule="nonzero" fill-opacity="1" /><path clip-path="url(#clip280)" d="M155.325 308.053 L162.964 308.053 L162.964 281.687 L154.653 283.354 L154.653 279.095 L162.917 277.428 L167.593 277.428 L167.593 308.053 L175.232 308.053 L175.232 311.988 L155.325 311.988 L155.325 308.053 Z" fill="#000000" fill-rule="nonzero" fill-opacity="1" /><path clip-path="url(#clip280)" d="M194.676 280.507 Q191.065 280.507 189.237 284.071 Q187.431 287.613 187.431 294.743 Q187.431 301.849 189.237 305.414 Q191.065 308.956 194.676 308.956 Q198.311 308.956 200.116 305.414 Q201.945 301.849 201.945 294.743 Q201.945 287.613 200.116 284.071 Q198.311 280.507 194.676 280.507 M194.676 276.803 Q200.487 276.803 203.542 281.409 Q206.621 285.993 206.621 294.743 Q206.621 303.469 203.542 308.076 Q200.487 312.659 194.676 312.659 Q188.866 312.659 185.788 308.076 Q182.732 303.469 182.732 294.743 Q182.732 285.993 185.788 281.409 Q188.866 276.803 194.676 276.803 Z" fill="#000000" fill-rule="nonzero" fill-opacity="1" /><path clip-path="url(#clip280)" d="M145.093 73.9995 L174.769 73.9995 L174.769 77.9346 L145.093 77.9346 L145.093 73.9995 Z" fill="#000000" fill-rule="nonzero" fill-opacity="1" /><path clip-path="url(#clip280)" d="M185.001 90.1105 L185.001 85.8513 Q186.76 86.6846 188.565 87.1244 Q190.371 87.5642 192.107 87.5642 Q196.737 87.5642 199.167 84.4624 Q201.621 81.3374 201.968 74.9948 Q200.625 76.9856 198.565 78.0504 Q196.505 79.1152 194.005 79.1152 Q188.82 79.1152 185.788 75.9902 Q182.778 72.8421 182.778 67.4023 Q182.778 62.0783 185.926 58.8607 Q189.075 55.6431 194.306 55.6431 Q200.301 55.6431 203.449 60.2496 Q206.621 64.8329 206.621 73.5828 Q206.621 81.7541 202.732 86.6383 Q198.866 91.4994 192.315 91.4994 Q190.556 91.4994 188.75 91.1522 Q186.945 90.8049 185.001 90.1105 M194.306 75.4578 Q197.454 75.4578 199.283 73.305 Q201.135 71.1523 201.135 67.4023 Q201.135 63.6755 199.283 61.5227 Q197.454 59.3468 194.306 59.3468 Q191.158 59.3468 189.306 61.5227 Q187.477 63.6755 187.477 67.4023 Q187.477 71.1523 189.306 73.305 Q191.158 75.4578 194.306 75.4578 Z" fill="#000000" fill-rule="nonzero" fill-opacity="1" /><path clip-path="url(#clip280)" d="M14.479 815.022 L14.479 809.166 L64.0042 809.166 L64.0042 815.022 L14.479 815.022 Z" fill="#000000" fill-rule="nonzero" fill-opacity="1" /><path clip-path="url(#clip280)" d="M45.7664 773.454 Q39.4007 773.454 35.8996 776.096 Q32.3984 778.706 32.3984 783.448 Q32.3984 788.159 35.8996 790.801 Q39.4007 793.41 45.7664 793.41 Q52.1003 793.41 55.6014 790.801 Q59.1026 788.159 59.1026 783.448 Q59.1026 778.706 55.6014 776.096 Q52.1003 773.454 45.7664 773.454 M59.58 767.598 Q68.683 767.598 73.1071 771.64 Q77.5631 775.682 77.5631 784.021 Q77.5631 787.108 77.0857 789.846 Q76.6401 792.583 75.6852 795.161 L69.9879 795.161 Q71.3884 792.583 72.0568 790.068 Q72.7252 787.554 72.7252 784.944 Q72.7252 779.183 69.7015 776.319 Q66.7096 773.454 60.6303 773.454 L57.7339 773.454 Q60.885 775.268 62.4446 778.101 Q64.0042 780.934 64.0042 784.88 Q64.0042 791.437 59.0071 795.447 Q54.01 799.458 45.7664 799.458 Q37.491 799.458 32.4939 795.447 Q27.4968 791.437 27.4968 784.88 Q27.4968 780.934 29.0564 778.101 Q30.616 775.268 33.7671 773.454 L28.3562 773.454 L28.3562 767.598 L59.58 767.598 Z" fill="#000000" fill-rule="nonzero" fill-opacity="1" /><path clip-path="url(#clip280)" d="M14.5426 741.466 Q21.8632 745.731 29.0246 747.8 Q36.186 749.869 43.5384 749.869 Q50.8908 749.869 58.1159 747.8 Q65.3091 745.699 72.5979 741.466 L72.5979 746.559 Q65.1182 751.333 57.8931 753.72 Q50.668 756.076 43.5384 756.076 Q36.4406 756.076 29.2474 753.72 Q22.0542 751.365 14.5426 746.559 L14.5426 741.466 Z" fill="#000000" fill-rule="nonzero" fill-opacity="1" /><path clip-path="url(#clip280)" d="M21.7677 723.419 L58.7206 723.419 L58.7206 715.653 Q58.7206 705.818 54.2646 701.267 Q49.8086 696.684 40.1964 696.684 Q30.6479 696.684 26.2237 701.267 Q21.7677 705.818 21.7677 715.653 L21.7677 723.419 M16.4842 729.849 L16.4842 716.64 Q16.4842 702.826 22.2451 696.365 Q27.9743 689.904 40.1964 689.904 Q52.4822 689.904 58.2432 696.397 Q64.0042 702.89 64.0042 716.64 L64.0042 729.849 L16.4842 729.849 Z" fill="#000000" fill-rule="nonzero" fill-opacity="1" /><path clip-path="url(#clip280)" d="M36.2815 682.17 L36.2815 678.478 L64.0042 678.478 L64.0042 682.17 L36.2815 682.17 Z" fill="#000000" fill-rule="nonzero" fill-opacity="1" /><path clip-path="url(#clip280)" d="M14.5426 670.011 L14.5426 664.919 Q22.0542 660.144 29.2474 657.789 Q36.4406 655.402 43.5384 655.402 Q50.668 655.402 57.8931 657.789 Q65.1182 660.144 72.5979 664.919 L72.5979 670.011 Q65.3091 665.778 58.1159 663.709 Q50.8908 661.608 43.5384 661.608 Q36.186 661.608 29.0246 663.709 Q21.8632 665.778 14.5426 670.011 Z" fill="#000000" fill-rule="nonzero" fill-opacity="1" /><polyline clip-path="url(#clip281)" style="stroke:#009af9; stroke-linecap:round; stroke-linejoin:round; stroke-width:4; stroke-opacity:1; fill:none" points="302.342,268.731 319.07,215.564 335.799,179.854 352.527,155.4 369.256,136.59 385.984,120.131 402.713,105.392 419.441,93.6237 436.17,86.7285 452.898,86.1857 469.627,92.6649 486.355,106.002 503.084,125.061 519.812,147.571 536.541,170.083 553.269,188.586 569.998,199.962 586.726,203.179 603.455,199.256 620.183,190.61 636.912,180.416 653.64,171.811 670.369,167.183 687.097,167.839 703.826,173.928 720.555,184.375 737.283,196.769 754.012,207.606 770.74,213.53 787.469,213.199 804.197,207.87 820.926,200.057 837.654,192.066 854.383,185.567 871.111,181.747 887.84,181.489 904.568,185.393 921.297,193.71 938.025,206.195 954.754,221.927 971.482,239.089 988.211,254.941 1004.94,266.41 1021.67,271.471 1038.4,270.37 1055.12,265.32 1071.85,259.104 1088.58,254.028 1105.31,251.622 1122.04,252.728 1138.77,257.621 1155.5,266.052 1172.22,277.208 1188.95,289.643 1205.68,301.316 1222.41,309.982 1239.14,314.05 1255.87,313.427 1272.6,309.533 1289.32,304.469 1306.05,300.165 1322.78,298.021 1339.51,298.899 1356.24,303.208 1372.97,310.959 1389.7,321.779 1406.42,334.875 1423.15,348.965 1439.88,362.246 1456.61,372.672 1473.34,378.705 1490.07,380.161 1506.79,378.323 1523.52,375.185 1540.25,372.593 1556.98,371.853 1573.71,373.717 1590.44,378.454 1607.17,385.924 1623.89,395.574 1640.62,406.442 1657.35,417.183 1674.08,426.26 1690.81,432.379 1707.54,435.041 1724.27,434.802 1740.99,432.983 1757.72,431.102 1774.45,430.425 1791.18,431.807 1807.91,435.707 1824.64,442.243 1841.37,451.222 1858.09,462.121 1874.82,474.051 1891.55,485.777 1908.28,495.893 1925.01,503.226 1941.74,507.32 1958.46,508.647 1975.19,508.362 1991.92,507.811 2008.65,508.139 2025.38,510.125 2042.11,514.161 2058.84,520.291 2075.56,528.238 2092.29,537.409 2109.02,546.936 2125.75,555.776 2142.48,562.948 2159.21,567.853 2175.94,570.509 2192.66,571.534 2209.39,571.894 2226.12,572.587 2242.85,574.428 2259.58,577.962 2276.31,583.451 2293.04,590.885 "/>
<polyline clip-path="url(#clip281)" style="stroke:#e26f46; stroke-linecap:round; stroke-linejoin:round; stroke-width:4; stroke-opacity:1; fill:none" points="302.342,1384.24 319.07,1154.79 335.799,1036.16 352.527,967.886 369.256,931.313 385.984,919.396 402.713,929.362 419.441,952.553 436.17,947.489 452.898,882.446 469.627,805.286 486.355,741.798 503.084,693.443 519.812,657.974 536.541,633.532 553.269,618.973 569.998,613.727 586.726,617.684 603.455,631.099 620.183,654.315 636.912,686.576 653.64,721.617 670.369,739.419 687.097,720.499 703.826,680.081 720.555,640.274 737.283,608.943 754.012,587.187 770.74,574.564 787.469,570.56 804.197,574.902 820.926,587.537 837.654,608.394 854.383,636.569 871.111,667.93 887.84,690.815 904.568,689.579 921.297,665.187 938.025,633.576 954.754,605.567 971.482,584.749 988.211,571.753 1004.94,566.433 1021.67,568.582 1038.4,578.094 1055.12,594.914 1071.85,618.708 1088.58,647.899 1105.31,677.416 1122.04,696.366 1138.77,694.236 1155.5,674.554 1172.22,649.687 1188.95,627.916 1205.68,612.364 1222.41,603.802 1239.14,602.261 1255.87,607.617 1272.6,619.715 1289.32,638.237 1306.05,662.205 1322.78,688.831 1339.51,711.799 1356.24,721.979 1372.97,715.152 1389.7,697.318 1406.42,677.369 1423.15,660.715 1439.88,649.549 1456.61,644.533 1473.34,645.773 1490.07,653.208 1506.79,666.675 1523.52,685.758 1540.25,709.328 1556.98,734.59 1573.71,755.991 1590.44,766.35 1607.17,762.595 1623.89,749.259 1640.62,733.482 1657.35,720.117 1674.08,711.424 1690.81,708.228 1707.54,710.735 1724.27,718.885 1740.99,732.41 1757.72,750.662 1774.45,772.162 1791.18,793.886 1807.91,810.902 1824.64,818.137 1841.37,814.432 1858.09,803.694 1874.82,791.258 1891.55,780.893 1908.28,774.536 1925.01,773.003 1941.74,776.547 1958.46,785.137 1975.19,798.494 1991.92,815.955 2008.65,836.123 2025.38,856.381 2042.11,872.762 2058.84,881.286 2075.56,880.748 2092.29,873.782 2109.02,864.615 2125.75,856.655 2142.48,851.891 2159.21,851.266 2175.94,855.119 2192.66,863.424 2209.39,875.841 2226.12,891.599 2242.85,909.241 2259.58,926.367 2276.31,939.805 2293.04,946.808 "/>
<polyline clip-path="url(#clip281)" style="stroke:#3da44d; stroke-linecap:round; stroke-linejoin:round; stroke-width:4; stroke-opacity:1; fill:none" points="302.342,920.814 319.07,1000.9 335.799,725.037 352.527,632.915 369.256,582.963 385.984,559.552 402.713,561.738 419.441,604.509 436.17,838.271 452.898,563.23 469.627,497.572 486.355,465.645 503.084,453.498 519.812,458.146 536.541,481.634 553.269,535.708 569.998,727.501 586.726,575.182 603.455,514.497 620.183,495.557 636.912,500.103 653.64,528.28 670.369,597.657 687.097,801.701 703.826,599.174 720.555,569.422 737.283,591.175 754.012,747.364 770.74,593.443 787.469,513.184 804.197,475.212 820.926,457.639 837.654,455.017 854.383,466.613 871.111,495.594 887.84,554.823 904.568,762.671 921.297,598.783 938.025,545.119 954.754,534.85 971.482,554.025 988.211,619.392 1004.94,744.571 1021.67,576.796 1038.4,527.599 1055.12,507.268 1071.85,504.243 1088.58,515.852 1105.31,543.399 1122.04,593.767 1138.77,697.167 1155.5,776.576 1172.22,687.245 1188.95,704.011 1205.68,1130.92 1222.41,665.168 1239.14,593.326 1255.87,557.016 1272.6,539.173 1289.32,534.788 1306.05,542.419 1322.78,562.8 1339.51,599.599 1356.24,664.768 1372.97,841.168 1389.7,750.141 1406.42,708.026 1423.15,727.671 1439.88,865.265 1456.61,744.5 1473.34,662.134 1490.07,624.098 1506.79,606.095 1523.52,601.753 1540.25,608.93 1556.98,627.412 1573.71,658.543 1590.44,705.778 1607.17,776.426 1623.89,881.812 1640.62,949.827 1657.35,851.126 1674.08,767.602 1690.81,714.966 1707.54,682.221 1724.27,663.522 1740.99,655.989 1757.72,658.31 1774.45,670.2 1791.18,692.302 1807.91,726.465 1824.64,776.642 1841.37,851.348 1858.09,968.164 1874.82,1058.73 1891.55,938.637 1908.28,849.109 1925.01,795.108 1941.74,762.054 1958.46,743.252 1975.19,735.467 1991.92,737.101 2008.65,747.454 2025.38,766.375 2042.11,793.95 2058.84,829.77 2075.56,870.545 2092.29,904.46 2109.02,911.638 2125.75,890.357 2142.48,860.031 2159.21,833.708 2175.94,815.19 2192.66,804.893 2209.39,802.507 2226.12,807.764 2242.85,820.635 2259.58,841.337 2276.31,870.209 2293.04,907.149 "/>
<path clip-path="url(#clip280)" d="M2013.63 455.989 L2282.42 455.989 L2282.42 93.1086 L2013.63 93.1086  Z" fill="#ffffff" fill-rule="evenodd" fill-opacity="1"/>
<polyline clip-path="url(#clip280)" style="stroke:#000000; stroke-linecap:round; stroke-linejoin:round; stroke-width:4; stroke-opacity:1; fill:none" points="2013.63,455.989 2282.42,455.989 2282.42,93.1086 2013.63,93.1086 2013.63,455.989 "/>
<polyline clip-path="url(#clip280)" style="stroke:#009af9; stroke-linecap:round; stroke-linejoin:round; stroke-width:4; stroke-opacity:1; fill:none" points="2037.07,144.949 2177.75,144.949 "/>
<path clip-path="url(#clip280)" d="M2201.19 127.669 L2230.43 127.669 L2230.43 131.604 L2218.16 131.604 L2218.16 162.229 L2213.46 162.229 L2213.46 131.604 L2201.19 131.604 L2201.19 127.669 Z" fill="#000000" fill-rule="nonzero" fill-opacity="1" /><path clip-path="url(#clip280)" d="M2229.32 127.669 L2258.56 127.669 L2258.56 131.604 L2246.29 131.604 L2246.29 162.229 L2241.59 162.229 L2241.59 131.604 L2229.32 131.604 L2229.32 127.669 Z" fill="#000000" fill-rule="nonzero" fill-opacity="1" /><polyline clip-path="url(#clip280)" style="stroke:#e26f46; stroke-linecap:round; stroke-linejoin:round; stroke-width:4; stroke-opacity:1; fill:none" points="2037.07,196.789 2177.75,196.789 "/>
<path clip-path="url(#clip280)" d="M2201.19 179.509 L2223.05 179.509 L2223.05 183.444 L2205.87 183.444 L2205.87 193.675 L2222.33 193.675 L2222.33 197.61 L2205.87 197.61 L2205.87 210.133 L2223.46 210.133 L2223.46 214.069 L2201.19 214.069 L2201.19 179.509 Z" fill="#000000" fill-rule="nonzero" fill-opacity="1" /><path clip-path="url(#clip280)" d="M2231.15 179.509 L2253 179.509 L2253 183.444 L2235.82 183.444 L2235.82 193.675 L2252.28 193.675 L2252.28 197.61 L2235.82 197.61 L2235.82 210.133 L2253.42 210.133 L2253.42 214.069 L2231.15 214.069 L2231.15 179.509 Z" fill="#000000" fill-rule="nonzero" fill-opacity="1" /><polyline clip-path="url(#clip280)" style="stroke:#3da44d; stroke-linecap:round; stroke-linejoin:round; stroke-width:4; stroke-opacity:1; fill:none" points="2037.07,248.629 2177.75,248.629 "/>
<path clip-path="url(#clip280)" d="M2201.19 231.349 L2230.43 231.349 L2230.43 235.284 L2218.16 235.284 L2218.16 265.909 L2213.46 265.909 L2213.46 235.284 L2201.19 235.284 L2201.19 231.349 Z" fill="#000000" fill-rule="nonzero" fill-opacity="1" /><path clip-path="url(#clip280)" d="M2234.94 231.349 L2256.8 231.349 L2256.8 235.284 L2239.62 235.284 L2239.62 245.515 L2256.08 245.515 L2256.08 249.45 L2239.62 249.45 L2239.62 261.973 L2257.21 261.973 L2257.21 265.909 L2234.94 265.909 L2234.94 231.349 Z" fill="#000000" fill-rule="nonzero" fill-opacity="1" /><polyline clip-path="url(#clip280)" style="stroke:#c271d2; stroke-linecap:round; stroke-linejoin:round; stroke-width:4; stroke-opacity:1; fill:none" points="2037.07,300.469 2177.75,300.469 "/>
<path clip-path="url(#clip280)" d="M2212.05 318.327 Q2206.7 317.471 2204.23 315.225 Q2201.19 312.471 2201.19 306.846 L2201.19 291.823 L2205.5 291.823 L2205.5 306.684 Q2205.5 310.92 2207.47 312.679 Q2209.18 314.207 2212.05 314.531 L2212.05 291.823 L2216.29 291.823 L2216.29 314.508 Q2219.32 314.184 2220.87 312.656 Q2222.84 310.712 2222.84 306.661 L2222.84 291.823 L2227.14 291.823 L2227.14 306.823 Q2227.14 312.656 2224.11 315.202 Q2221.38 317.494 2216.29 318.304 L2216.29 327.61 L2212.05 327.61 L2212.05 318.327 Z" fill="#000000" fill-rule="nonzero" fill-opacity="1" /><path clip-path="url(#clip280)" d="M2243.32 318.327 Q2237.98 317.471 2235.5 315.225 Q2232.47 312.471 2232.47 306.846 L2232.47 291.823 L2236.77 291.823 L2236.77 306.684 Q2236.77 310.92 2238.74 312.679 Q2240.45 314.207 2243.32 314.531 L2243.32 291.823 L2247.56 291.823 L2247.56 314.508 Q2250.59 314.184 2252.14 312.656 Q2254.11 310.712 2254.11 306.661 L2254.11 291.823 L2258.42 291.823 L2258.42 306.823 Q2258.42 312.656 2255.38 315.202 Q2252.65 317.494 2247.56 318.304 L2247.56 327.61 L2243.32 327.61 L2243.32 318.327 Z" fill="#000000" fill-rule="nonzero" fill-opacity="1" /><polyline clip-path="url(#clip280)" style="stroke:#ac8d18; stroke-linecap:round; stroke-linejoin:round; stroke-width:4; stroke-opacity:1; fill:none" points="2037.07,352.309 2177.75,352.309 "/>
<path clip-path="url(#clip280)" d="M2212.05 370.167 Q2206.7 369.311 2204.23 367.065 Q2201.19 364.311 2201.19 358.686 L2201.19 343.663 L2205.5 343.663 L2205.5 358.524 Q2205.5 362.76 2207.47 364.519 Q2209.18 366.047 2212.05 366.371 L2212.05 343.663 L2216.29 343.663 L2216.29 366.348 Q2219.32 366.024 2220.87 364.496 Q2222.84 362.552 2222.84 358.501 L2222.84 343.663 L2227.14 343.663 L2227.14 358.663 Q2227.14 364.496 2224.11 367.042 Q2221.38 369.334 2216.29 370.144 L2216.29 379.45 L2212.05 379.45 L2212.05 370.167 Z" fill="#000000" fill-rule="nonzero" fill-opacity="1" /><path clip-path="url(#clip280)" d="M2229.74 335.029 L2258.97 335.029 L2258.97 338.964 L2246.7 338.964 L2246.7 369.589 L2242 369.589 L2242 338.964 L2229.74 338.964 L2229.74 335.029 Z" fill="#000000" fill-rule="nonzero" fill-opacity="1" /><polyline clip-path="url(#clip280)" style="stroke:#00a9ad; stroke-linecap:round; stroke-linejoin:round; stroke-width:4; stroke-opacity:1; fill:none" points="2037.07,404.149 2177.75,404.149 "/>
<path clip-path="url(#clip280)" d="M2212.05 422.007 Q2206.7 421.151 2204.23 418.905 Q2201.19 416.151 2201.19 410.526 L2201.19 395.503 L2205.5 395.503 L2205.5 410.364 Q2205.5 414.6 2207.47 416.359 Q2209.18 417.887 2212.05 418.211 L2212.05 395.503 L2216.29 395.503 L2216.29 418.188 Q2219.32 417.864 2220.87 416.336 Q2222.84 414.392 2222.84 410.341 L2222.84 395.503 L2227.14 395.503 L2227.14 410.503 Q2227.14 416.336 2224.11 418.882 Q2221.38 421.174 2216.29 421.984 L2216.29 431.29 L2212.05 431.29 L2212.05 422.007 Z" fill="#000000" fill-rule="nonzero" fill-opacity="1" /><path clip-path="url(#clip280)" d="M2234.53 386.869 L2256.38 386.869 L2256.38 390.804 L2239.2 390.804 L2239.2 401.035 L2255.66 401.035 L2255.66 404.97 L2239.2 404.97 L2239.2 417.493 L2256.8 417.493 L2256.8 421.429 L2234.53 421.429 L2234.53 386.869 Z" fill="#000000" fill-rule="nonzero" fill-opacity="1" /></svg>
