<?xml version="1.0" encoding="utf-8"?>
<svg xmlns="http://www.w3.org/2000/svg" xmlns:xlink="http://www.w3.org/1999/xlink" width="600" height="400" viewBox="0 0 2400 1600">
<defs>
  <clipPath id="clip770">
    <rect x="0" y="0" width="2400" height="1600"/>
  </clipPath>
</defs>
<path clip-path="url(#clip770)" d="M0 1600 L2400 1600 L2400 0 L0 0  Z" fill="#ffffff" fill-rule="evenodd" fill-opacity="1"/>
<defs>
  <clipPath id="clip771">
    <rect x="394" y="47" width="1959" height="1377"/>
  </clipPath>
</defs>
<path clip-path="url(#clip770)" d="M394.884 1423.18 L2352.76 1423.18 L2352.76 47.2441 L394.884 47.2441  Z" fill="#ffffff" fill-rule="evenodd" fill-opacity="1"/>
<polyline clip-path="url(#clip771)" style="stroke:#000000; stroke-linecap:round; stroke-linejoin:round; stroke-width:2; stroke-opacity:0.1; fill:none" points="758.137,1423.18 758.137,47.2441 "/>
<polyline clip-path="url(#clip771)" style="stroke:#000000; stroke-linecap:round; stroke-linejoin:round; stroke-width:2; stroke-opacity:0.1; fill:none" points="1142.94,1423.18 1142.94,47.2441 "/>
<polyline clip-path="url(#clip771)" style="stroke:#000000; stroke-linecap:round; stroke-linejoin:round; stroke-width:2; stroke-opacity:0.1; fill:none" points="1527.74,1423.18 1527.74,47.2441 "/>
<polyline clip-path="url(#clip771)" style="stroke:#000000; stroke-linecap:round; stroke-linejoin:round; stroke-width:2; stroke-opacity:0.1; fill:none" points="1912.54,1423.18 1912.54,47.2441 "/>
<polyline clip-path="url(#clip771)" style="stroke:#000000; stroke-linecap:round; stroke-linejoin:round; stroke-width:2; stroke-opacity:0.1; fill:none" points="2297.34,1423.18 2297.34,47.2441 "/>
<polyline clip-path="url(#clip771)" style="stroke:#000000; stroke-linecap:round; stroke-linejoin:round; stroke-width:2; stroke-opacity:0.1; fill:none" points="394.884,1273.77 2352.76,1273.77 "/>
<polyline clip-path="url(#clip771)" style="stroke:#000000; stroke-linecap:round; stroke-linejoin:round; stroke-width:2; stroke-opacity:0.1; fill:none" points="394.884,1096.78 2352.76,1096.78 "/>
<polyline clip-path="url(#clip771)" style="stroke:#000000; stroke-linecap:round; stroke-linejoin:round; stroke-width:2; stroke-opacity:0.1; fill:none" points="394.884,919.782 2352.76,919.782 "/>
<polyline clip-path="url(#clip771)" style="stroke:#000000; stroke-linecap:round; stroke-linejoin:round; stroke-width:2; stroke-opacity:0.1; fill:none" points="394.884,742.787 2352.76,742.787 "/>
<polyline clip-path="url(#clip771)" style="stroke:#000000; stroke-linecap:round; stroke-linejoin:round; stroke-width:2; stroke-opacity:0.1; fill:none" points="394.884,565.792 2352.76,565.792 "/>
<polyline clip-path="url(#clip771)" style="stroke:#000000; stroke-linecap:round; stroke-linejoin:round; stroke-width:2; stroke-opacity:0.1; fill:none" points="394.884,388.797 2352.76,388.797 "/>
<polyline clip-path="url(#clip771)" style="stroke:#000000; stroke-linecap:round; stroke-linejoin:round; stroke-width:2; stroke-opacity:0.1; fill:none" points="394.884,211.802 2352.76,211.802 "/>
<polyline clip-path="url(#clip770)" style="stroke:#000000; stroke-linecap:round; stroke-linejoin:round; stroke-width:4; stroke-opacity:1; fill:none" points="394.884,1423.18 2352.76,1423.18 "/>
<polyline clip-path="url(#clip770)" style="stroke:#000000; stroke-linecap:round; stroke-linejoin:round; stroke-width:4; stroke-opacity:1; fill:none" points="758.137,1423.18 758.137,1404.28 "/>
<polyline clip-path="url(#clip770)" style="stroke:#000000; stroke-linecap:round; stroke-linejoin:round; stroke-width:4; stroke-opacity:1; fill:none" points="1142.94,1423.18 1142.94,1404.28 "/>
<polyline clip-path="url(#clip770)" style="stroke:#000000; stroke-linecap:round; stroke-linejoin:round; stroke-width:4; stroke-opacity:1; fill:none" points="1527.74,1423.18 1527.74,1404.28 "/>
<polyline clip-path="url(#clip770)" style="stroke:#000000; stroke-linecap:round; stroke-linejoin:round; stroke-width:4; stroke-opacity:1; fill:none" points="1912.54,1423.18 1912.54,1404.28 "/>
<polyline clip-path="url(#clip770)" style="stroke:#000000; stroke-linecap:round; stroke-linejoin:round; stroke-width:4; stroke-opacity:1; fill:none" points="2297.34,1423.18 2297.34,1404.28 "/>
<path clip-path="url(#clip770)" d="M721.829 1481.64 L738.149 1481.64 L738.149 1485.58 L716.204 1485.58 L716.204 1481.64 Q718.866 1478.89 723.45 1474.26 Q728.056 1469.61 729.237 1468.27 Q731.482 1465.74 732.362 1464.01 Q733.265 1462.25 733.265 1460.56 Q733.265 1457.8 731.32 1456.07 Q729.399 1454.33 726.297 1454.33 Q724.098 1454.33 721.644 1455.09 Q719.214 1455.86 716.436 1457.41 L716.436 1452.69 Q719.26 1451.55 721.714 1450.97 Q724.167 1450.39 726.204 1450.39 Q731.575 1450.39 734.769 1453.08 Q737.964 1455.77 737.964 1460.26 Q737.964 1462.39 737.153 1464.31 Q736.366 1466.2 734.26 1468.8 Q733.681 1469.47 730.579 1472.69 Q727.478 1475.88 721.829 1481.64 Z" fill="#000000" fill-rule="nonzero" fill-opacity="1" /><path clip-path="url(#clip770)" d="M757.963 1454.1 Q754.352 1454.1 752.524 1457.66 Q750.718 1461.2 750.718 1468.33 Q750.718 1475.44 752.524 1479.01 Q754.352 1482.55 757.963 1482.55 Q761.598 1482.55 763.403 1479.01 Q765.232 1475.44 765.232 1468.33 Q765.232 1461.2 763.403 1457.66 Q761.598 1454.1 757.963 1454.1 M757.963 1450.39 Q763.774 1450.39 766.829 1455 Q769.908 1459.58 769.908 1468.33 Q769.908 1477.06 766.829 1481.67 Q763.774 1486.25 757.963 1486.25 Q752.153 1486.25 749.075 1481.67 Q746.019 1477.06 746.019 1468.33 Q746.019 1459.58 749.075 1455 Q752.153 1450.39 757.963 1450.39 Z" fill="#000000" fill-rule="nonzero" fill-opacity="1" /><path clip-path="url(#clip770)" d="M788.125 1454.1 Q784.514 1454.1 782.686 1457.66 Q780.88 1461.2 780.88 1468.33 Q780.88 1475.44 782.686 1479.01 Q784.514 1482.55 788.125 1482.55 Q791.76 1482.55 793.565 1479.01 Q795.394 1475.44 795.394 1468.33 Q795.394 1461.2 793.565 1457.66 Q791.76 1454.1 788.125 1454.1 M788.125 1450.39 Q793.935 1450.39 796.991 1455 Q800.07 1459.58 800.07 1468.33 Q800.07 1477.06 796.991 1481.67 Q793.935 1486.25 788.125 1486.25 Q782.315 1486.25 779.236 1481.67 Q776.181 1477.06 776.181 1468.33 Q776.181 1459.58 779.236 1455 Q782.315 1450.39 788.125 1450.39 Z" fill="#000000" fill-rule="nonzero" fill-opacity="1" /><path clip-path="url(#clip770)" d="M1116.03 1455.09 L1104.22 1473.54 L1116.03 1473.54 L1116.03 1455.09 M1114.8 1451.02 L1120.68 1451.02 L1120.68 1473.54 L1125.61 1473.54 L1125.61 1477.43 L1120.68 1477.43 L1120.68 1485.58 L1116.03 1485.58 L1116.03 1477.43 L1100.43 1477.43 L1100.43 1472.92 L1114.8 1451.02 Z" fill="#000000" fill-rule="nonzero" fill-opacity="1" /><path clip-path="url(#clip770)" d="M1143.34 1454.1 Q1139.73 1454.1 1137.9 1457.66 Q1136.1 1461.2 1136.1 1468.33 Q1136.1 1475.44 1137.9 1479.01 Q1139.73 1482.55 1143.34 1482.55 Q1146.98 1482.55 1148.78 1479.01 Q1150.61 1475.44 1150.61 1468.33 Q1150.61 1461.2 1148.78 1457.66 Q1146.98 1454.1 1143.34 1454.1 M1143.34 1450.39 Q1149.15 1450.39 1152.21 1455 Q1155.29 1459.58 1155.29 1468.33 Q1155.29 1477.06 1152.21 1481.67 Q1149.15 1486.25 1143.34 1486.25 Q1137.53 1486.25 1134.46 1481.67 Q1131.4 1477.06 1131.4 1468.33 Q1131.4 1459.58 1134.46 1455 Q1137.53 1450.39 1143.34 1450.39 Z" fill="#000000" fill-rule="nonzero" fill-opacity="1" /><path clip-path="url(#clip770)" d="M1173.51 1454.1 Q1169.89 1454.1 1168.07 1457.66 Q1166.26 1461.2 1166.26 1468.33 Q1166.26 1475.44 1168.07 1479.01 Q1169.89 1482.55 1173.51 1482.55 Q1177.14 1482.55 1178.95 1479.01 Q1180.77 1475.44 1180.77 1468.33 Q1180.77 1461.2 1178.95 1457.66 Q1177.14 1454.1 1173.51 1454.1 M1173.51 1450.39 Q1179.32 1450.39 1182.37 1455 Q1185.45 1459.58 1185.45 1468.33 Q1185.45 1477.06 1182.37 1481.67 Q1179.32 1486.25 1173.51 1486.25 Q1167.7 1486.25 1164.62 1481.67 Q1161.56 1477.06 1161.56 1468.33 Q1161.56 1459.58 1164.62 1455 Q1167.7 1450.39 1173.51 1450.39 Z" fill="#000000" fill-rule="nonzero" fill-opacity="1" /><path clip-path="url(#clip770)" d="M1498.06 1466.44 Q1494.92 1466.44 1493.07 1468.59 Q1491.24 1470.74 1491.24 1474.49 Q1491.24 1478.22 1493.07 1480.39 Q1494.92 1482.55 1498.06 1482.55 Q1501.21 1482.55 1503.04 1480.39 Q1504.89 1478.22 1504.89 1474.49 Q1504.89 1470.74 1503.04 1468.59 Q1501.21 1466.44 1498.06 1466.44 M1507.35 1451.78 L1507.35 1456.04 Q1505.59 1455.21 1503.78 1454.77 Q1502 1454.33 1500.24 1454.33 Q1495.61 1454.33 1493.16 1457.45 Q1490.73 1460.58 1490.38 1466.9 Q1491.75 1464.89 1493.81 1463.82 Q1495.87 1462.73 1498.34 1462.73 Q1503.55 1462.73 1506.56 1465.9 Q1509.59 1469.05 1509.59 1474.49 Q1509.59 1479.82 1506.44 1483.03 Q1503.3 1486.25 1498.06 1486.25 Q1492.07 1486.25 1488.9 1481.67 Q1485.73 1477.06 1485.73 1468.33 Q1485.73 1460.14 1489.62 1455.28 Q1493.5 1450.39 1500.06 1450.39 Q1501.81 1450.39 1503.6 1450.74 Q1505.4 1451.09 1507.35 1451.78 Z" fill="#000000" fill-rule="nonzero" fill-opacity="1" /><path clip-path="url(#clip770)" d="M1527.65 1454.1 Q1524.04 1454.1 1522.21 1457.66 Q1520.4 1461.2 1520.4 1468.33 Q1520.4 1475.44 1522.21 1479.01 Q1524.04 1482.55 1527.65 1482.55 Q1531.28 1482.55 1533.09 1479.01 Q1534.92 1475.44 1534.92 1468.33 Q1534.92 1461.2 1533.09 1457.66 Q1531.28 1454.1 1527.65 1454.1 M1527.65 1450.39 Q1533.46 1450.39 1536.51 1455 Q1539.59 1459.58 1539.59 1468.33 Q1539.59 1477.06 1536.51 1481.67 Q1533.46 1486.25 1527.65 1486.25 Q1521.84 1486.25 1518.76 1481.67 Q1515.7 1477.06 1515.7 1468.33 Q1515.7 1459.58 1518.76 1455 Q1521.84 1450.39 1527.65 1450.39 Z" fill="#000000" fill-rule="nonzero" fill-opacity="1" /><path clip-path="url(#clip770)" d="M1557.81 1454.1 Q1554.2 1454.1 1552.37 1457.66 Q1550.56 1461.2 1550.56 1468.33 Q1550.56 1475.44 1552.37 1479.01 Q1554.2 1482.55 1557.81 1482.55 Q1561.44 1482.55 1563.25 1479.01 Q1565.08 1475.44 1565.08 1468.33 Q1565.08 1461.2 1563.25 1457.66 Q1561.44 1454.1 1557.81 1454.1 M1557.81 1450.39 Q1563.62 1450.39 1566.68 1455 Q1569.75 1459.58 1569.75 1468.33 Q1569.75 1477.06 1566.68 1481.67 Q1563.62 1486.25 1557.81 1486.25 Q1552 1486.25 1548.92 1481.67 Q1545.87 1477.06 1545.87 1468.33 Q1545.87 1459.58 1548.92 1455 Q1552 1450.39 1557.81 1450.39 Z" fill="#000000" fill-rule="nonzero" fill-opacity="1" /><path clip-path="url(#clip770)" d="M1882.33 1469.17 Q1879 1469.17 1877.08 1470.95 Q1875.18 1472.73 1875.18 1475.86 Q1875.18 1478.98 1877.08 1480.77 Q1879 1482.55 1882.33 1482.55 Q1885.67 1482.55 1887.59 1480.77 Q1889.51 1478.96 1889.51 1475.86 Q1889.51 1472.73 1887.59 1470.95 Q1885.69 1469.17 1882.33 1469.17 M1877.66 1467.18 Q1874.65 1466.44 1872.96 1464.38 Q1871.29 1462.32 1871.29 1459.35 Q1871.29 1455.21 1874.23 1452.8 Q1877.2 1450.39 1882.33 1450.39 Q1887.5 1450.39 1890.44 1452.8 Q1893.38 1455.21 1893.38 1459.35 Q1893.38 1462.32 1891.69 1464.38 Q1890.02 1466.44 1887.03 1467.18 Q1890.41 1467.96 1892.29 1470.26 Q1894.19 1472.55 1894.19 1475.86 Q1894.19 1480.88 1891.11 1483.57 Q1888.05 1486.25 1882.33 1486.25 Q1876.62 1486.25 1873.54 1483.57 Q1870.48 1480.88 1870.48 1475.86 Q1870.48 1472.55 1872.38 1470.26 Q1874.28 1467.96 1877.66 1467.18 M1875.95 1459.79 Q1875.95 1462.48 1877.61 1463.98 Q1879.3 1465.49 1882.33 1465.49 Q1885.34 1465.49 1887.03 1463.98 Q1888.75 1462.48 1888.75 1459.79 Q1888.75 1457.11 1887.03 1455.6 Q1885.34 1454.1 1882.33 1454.1 Q1879.3 1454.1 1877.61 1455.6 Q1875.95 1457.11 1875.95 1459.79 Z" fill="#000000" fill-rule="nonzero" fill-opacity="1" /><path clip-path="url(#clip770)" d="M1912.5 1454.1 Q1908.89 1454.1 1907.06 1457.66 Q1905.25 1461.2 1905.25 1468.33 Q1905.25 1475.44 1907.06 1479.01 Q1908.89 1482.55 1912.5 1482.55 Q1916.13 1482.55 1917.94 1479.01 Q1919.76 1475.44 1919.76 1468.33 Q1919.76 1461.2 1917.94 1457.66 Q1916.13 1454.1 1912.5 1454.1 M1912.5 1450.39 Q1918.31 1450.39 1921.36 1455 Q1924.44 1459.58 1924.44 1468.33 Q1924.44 1477.06 1921.36 1481.67 Q1918.31 1486.25 1912.5 1486.25 Q1906.69 1486.25 1903.61 1481.67 Q1900.55 1477.06 1900.55 1468.33 Q1900.55 1459.58 1903.61 1455 Q1906.69 1450.39 1912.5 1450.39 Z" fill="#000000" fill-rule="nonzero" fill-opacity="1" /><path clip-path="url(#clip770)" d="M1942.66 1454.1 Q1939.05 1454.1 1937.22 1457.66 Q1935.41 1461.2 1935.41 1468.33 Q1935.41 1475.44 1937.22 1479.01 Q1939.05 1482.55 1942.66 1482.55 Q1946.29 1482.55 1948.1 1479.01 Q1949.93 1475.44 1949.93 1468.33 Q1949.93 1461.2 1948.1 1457.66 Q1946.29 1454.1 1942.66 1454.1 M1942.66 1450.39 Q1948.47 1450.39 1951.52 1455 Q1954.6 1459.58 1954.6 1468.33 Q1954.6 1477.06 1951.52 1481.67 Q1948.47 1486.25 1942.66 1486.25 Q1936.85 1486.25 1933.77 1481.67 Q1930.71 1477.06 1930.71 1468.33 Q1930.71 1459.58 1933.77 1455 Q1936.85 1450.39 1942.66 1450.39 Z" fill="#000000" fill-rule="nonzero" fill-opacity="1" /><path clip-path="url(#clip770)" d="M2241.87 1481.64 L2249.51 1481.64 L2249.51 1455.28 L2241.2 1456.95 L2241.2 1452.69 L2249.46 1451.02 L2254.14 1451.02 L2254.14 1481.64 L2261.78 1481.64 L2261.78 1485.58 L2241.87 1485.58 L2241.87 1481.64 Z" fill="#000000" fill-rule="nonzero" fill-opacity="1" /><path clip-path="url(#clip770)" d="M2281.22 1454.1 Q2277.61 1454.1 2275.78 1457.66 Q2273.98 1461.2 2273.98 1468.33 Q2273.98 1475.44 2275.78 1479.01 Q2277.61 1482.55 2281.22 1482.55 Q2284.86 1482.55 2286.66 1479.01 Q2288.49 1475.44 2288.49 1468.33 Q2288.49 1461.2 2286.66 1457.66 Q2284.86 1454.1 2281.22 1454.1 M2281.22 1450.39 Q2287.03 1450.39 2290.09 1455 Q2293.17 1459.58 2293.17 1468.33 Q2293.17 1477.06 2290.09 1481.67 Q2287.03 1486.25 2281.22 1486.25 Q2275.41 1486.25 2272.33 1481.67 Q2269.28 1477.06 2269.28 1468.33 Q2269.28 1459.58 2272.33 1455 Q2275.41 1450.39 2281.22 1450.39 Z" fill="#000000" fill-rule="nonzero" fill-opacity="1" /><path clip-path="url(#clip770)" d="M2311.38 1454.1 Q2307.77 1454.1 2305.94 1457.66 Q2304.14 1461.2 2304.14 1468.33 Q2304.14 1475.44 2305.94 1479.01 Q2307.77 1482.55 2311.38 1482.55 Q2315.02 1482.55 2316.82 1479.01 Q2318.65 1475.44 2318.65 1468.33 Q2318.65 1461.2 2316.82 1457.66 Q2315.02 1454.1 2311.38 1454.1 M2311.38 1450.39 Q2317.19 1450.39 2320.25 1455 Q2323.33 1459.58 2323.33 1468.33 Q2323.33 1477.06 2320.25 1481.67 Q2317.19 1486.25 2311.38 1486.25 Q2305.57 1486.25 2302.49 1481.67 Q2299.44 1477.06 2299.44 1468.33 Q2299.44 1459.58 2302.49 1455 Q2305.57 1450.39 2311.38 1450.39 Z" fill="#000000" fill-rule="nonzero" fill-opacity="1" /><path clip-path="url(#clip770)" d="M2341.55 1454.1 Q2337.93 1454.1 2336.11 1457.66 Q2334.3 1461.2 2334.3 1468.33 Q2334.3 1475.44 2336.11 1479.01 Q2337.93 1482.55 2341.55 1482.55 Q2345.18 1482.55 2346.99 1479.01 Q2348.81 1475.44 2348.81 1468.33 Q2348.81 1461.2 2346.99 1457.66 Q2345.18 1454.1 2341.55 1454.1 M2341.55 1450.39 Q2347.36 1450.39 2350.41 1455 Q2353.49 1459.58 2353.49 1468.33 Q2353.49 1477.06 2350.41 1481.67 Q2347.36 1486.25 2341.55 1486.25 Q2335.74 1486.25 2332.66 1481.67 Q2329.6 1477.06 2329.6 1468.33 Q2329.6 1459.58 2332.66 1455 Q2335.74 1450.39 2341.55 1450.39 Z" fill="#000000" fill-rule="nonzero" fill-opacity="1" /><path clip-path="url(#clip770)" d="M1370.89 1518.52 L1376.75 1518.52 L1376.75 1568.04 L1370.89 1568.04 L1370.89 1518.52 Z" fill="#000000" fill-rule="nonzero" fill-opacity="1" /><polyline clip-path="url(#clip770)" style="stroke:#000000; stroke-linecap:round; stroke-linejoin:round; stroke-width:4; stroke-opacity:1; fill:none" points="394.884,1423.18 394.884,47.2441 "/>
<polyline clip-path="url(#clip770)" style="stroke:#000000; stroke-linecap:round; stroke-linejoin:round; stroke-width:4; stroke-opacity:1; fill:none" points="394.884,1273.77 413.782,1273.77 "/>
<polyline clip-path="url(#clip770)" style="stroke:#000000; stroke-linecap:round; stroke-linejoin:round; stroke-width:4; stroke-opacity:1; fill:none" points="394.884,1096.78 413.782,1096.78 "/>
<polyline clip-path="url(#clip770)" style="stroke:#000000; stroke-linecap:round; stroke-linejoin:round; stroke-width:4; stroke-opacity:1; fill:none" points="394.884,919.782 413.782,919.782 "/>
<polyline clip-path="url(#clip770)" style="stroke:#000000; stroke-linecap:round; stroke-linejoin:round; stroke-width:4; stroke-opacity:1; fill:none" points="394.884,742.787 413.782,742.787 "/>
<polyline clip-path="url(#clip770)" style="stroke:#000000; stroke-linecap:round; stroke-linejoin:round; stroke-width:4; stroke-opacity:1; fill:none" points="394.884,565.792 413.782,565.792 "/>
<polyline clip-path="url(#clip770)" style="stroke:#000000; stroke-linecap:round; stroke-linejoin:round; stroke-width:4; stroke-opacity:1; fill:none" points="394.884,388.797 413.782,388.797 "/>
<polyline clip-path="url(#clip770)" style="stroke:#000000; stroke-linecap:round; stroke-linejoin:round; stroke-width:4; stroke-opacity:1; fill:none" points="394.884,211.802 413.782,211.802 "/>
<path clip-path="url(#clip770)" d="M121.043 1293.56 L137.362 1293.56 L137.362 1297.5 L115.418 1297.5 L115.418 1293.56 Q118.08 1290.81 122.663 1286.18 Q127.269 1281.53 128.45 1280.18 Q130.695 1277.66 131.575 1275.93 Q132.478 1274.17 132.478 1272.48 Q132.478 1269.72 130.533 1267.99 Q128.612 1266.25 125.51 1266.25 Q123.311 1266.25 120.857 1267.01 Q118.427 1267.78 115.649 1269.33 L115.649 1264.61 Q118.473 1263.47 120.927 1262.89 Q123.38 1262.31 125.418 1262.31 Q130.788 1262.31 133.982 1265 Q137.177 1267.68 137.177 1272.18 Q137.177 1274.3 136.367 1276.23 Q135.579 1278.12 133.473 1280.72 Q132.894 1281.39 129.792 1284.61 Q126.691 1287.8 121.043 1293.56 Z" fill="#000000" fill-rule="nonzero" fill-opacity="1" /><path clip-path="url(#clip770)" d="M147.177 1291.62 L152.061 1291.62 L152.061 1297.5 L147.177 1297.5 L147.177 1291.62 Z" fill="#000000" fill-rule="nonzero" fill-opacity="1" /><path clip-path="url(#clip770)" d="M172.246 1266.02 Q168.635 1266.02 166.806 1269.58 Q165.001 1273.12 165.001 1280.25 Q165.001 1287.36 166.806 1290.93 Q168.635 1294.47 172.246 1294.47 Q175.88 1294.47 177.686 1290.93 Q179.514 1287.36 179.514 1280.25 Q179.514 1273.12 177.686 1269.58 Q175.88 1266.02 172.246 1266.02 M172.246 1262.31 Q178.056 1262.31 181.112 1266.92 Q184.19 1271.5 184.19 1280.25 Q184.19 1288.98 181.112 1293.59 Q178.056 1298.17 172.246 1298.17 Q166.436 1298.17 163.357 1293.59 Q160.302 1288.98 160.302 1280.25 Q160.302 1271.5 163.357 1266.92 Q166.436 1262.31 172.246 1262.31 Z" fill="#000000" fill-rule="nonzero" fill-opacity="1" /><path clip-path="url(#clip770)" d="M220.579 1272.04 L210 1282.66 L220.579 1293.24 L217.824 1296.04 L207.199 1285.42 L196.575 1296.04 L193.843 1293.24 L204.399 1282.66 L193.843 1272.04 L196.575 1269.24 L207.199 1279.86 L217.824 1269.24 L220.579 1272.04 Z" fill="#000000" fill-rule="nonzero" fill-opacity="1" /><path clip-path="url(#clip770)" d="M232.94 1293.56 L240.579 1293.56 L240.579 1267.2 L232.269 1268.86 L232.269 1264.61 L240.533 1262.94 L245.209 1262.94 L245.209 1293.56 L252.847 1293.56 L252.847 1297.5 L232.94 1297.5 L232.94 1293.56 Z" fill="#000000" fill-rule="nonzero" fill-opacity="1" /><path clip-path="url(#clip770)" d="M272.292 1266.02 Q268.681 1266.02 266.852 1269.58 Q265.046 1273.12 265.046 1280.25 Q265.046 1287.36 266.852 1290.93 Q268.681 1294.47 272.292 1294.47 Q275.926 1294.47 277.732 1290.93 Q279.56 1287.36 279.56 1280.25 Q279.56 1273.12 277.732 1269.58 Q275.926 1266.02 272.292 1266.02 M272.292 1262.31 Q278.102 1262.31 281.157 1266.92 Q284.236 1271.5 284.236 1280.25 Q284.236 1288.98 281.157 1293.59 Q278.102 1298.17 272.292 1298.17 Q266.482 1298.17 263.403 1293.59 Q260.347 1288.98 260.347 1280.25 Q260.347 1271.5 263.403 1266.92 Q266.482 1262.31 272.292 1262.31 Z" fill="#000000" fill-rule="nonzero" fill-opacity="1" /><path clip-path="url(#clip770)" d="M284.236 1256.42 L308.348 1256.42 L308.348 1259.61 L284.236 1259.61 L284.236 1256.42 Z" fill="#000000" fill-rule="nonzero" fill-opacity="1" /><path clip-path="url(#clip770)" d="M317.206 1266.89 L323.413 1266.89 L323.413 1245.47 L316.661 1246.82 L316.661 1243.36 L323.375 1242.01 L327.174 1242.01 L327.174 1266.89 L333.381 1266.89 L333.381 1270.09 L317.206 1270.09 L317.206 1266.89 Z" fill="#000000" fill-rule="nonzero" fill-opacity="1" /><path clip-path="url(#clip770)" d="M349.179 1244.51 Q346.245 1244.51 344.76 1247.41 Q343.292 1250.28 343.292 1256.08 Q343.292 1261.85 344.76 1264.75 Q346.245 1267.62 349.179 1267.62 Q352.132 1267.62 353.599 1264.75 Q355.085 1261.85 355.085 1256.08 Q355.085 1250.28 353.599 1247.41 Q352.132 1244.51 349.179 1244.51 M349.179 1241.5 Q353.9 1241.5 356.383 1245.24 Q358.884 1248.97 358.884 1256.08 Q358.884 1263.17 356.383 1266.91 Q353.9 1270.63 349.179 1270.63 Q344.459 1270.63 341.957 1266.91 Q339.475 1263.17 339.475 1256.08 Q339.475 1248.97 341.957 1245.24 Q344.459 1241.5 349.179 1241.5 Z" fill="#000000" fill-rule="nonzero" fill-opacity="1" /><path clip-path="url(#clip770)" d="M131.181 1101.87 Q134.538 1102.59 136.413 1104.86 Q138.311 1107.12 138.311 1110.46 Q138.311 1115.57 134.792 1118.37 Q131.274 1121.18 124.793 1121.18 Q122.617 1121.18 120.302 1120.74 Q118.01 1120.32 115.556 1119.46 L115.556 1114.95 Q117.501 1116.08 119.816 1116.66 Q122.13 1117.24 124.654 1117.24 Q129.052 1117.24 131.343 1115.5 Q133.658 1113.77 133.658 1110.46 Q133.658 1107.4 131.505 1105.69 Q129.376 1103.95 125.556 1103.95 L121.529 1103.95 L121.529 1100.11 L125.742 1100.11 Q129.191 1100.11 131.019 1098.75 Q132.848 1097.36 132.848 1094.76 Q132.848 1092.1 130.95 1090.69 Q129.075 1089.25 125.556 1089.25 Q123.635 1089.25 121.436 1089.67 Q119.237 1090.09 116.598 1090.97 L116.598 1086.8 Q119.26 1086.06 121.575 1085.69 Q123.913 1085.32 125.973 1085.32 Q131.297 1085.32 134.399 1087.75 Q137.501 1090.16 137.501 1094.28 Q137.501 1097.15 135.857 1099.14 Q134.214 1101.11 131.181 1101.87 Z" fill="#000000" fill-rule="nonzero" fill-opacity="1" /><path clip-path="url(#clip770)" d="M147.177 1114.62 L152.061 1114.62 L152.061 1120.5 L147.177 1120.5 L147.177 1114.62 Z" fill="#000000" fill-rule="nonzero" fill-opacity="1" /><path clip-path="url(#clip770)" d="M172.246 1089.02 Q168.635 1089.02 166.806 1092.59 Q165.001 1096.13 165.001 1103.26 Q165.001 1110.37 166.806 1113.93 Q168.635 1117.47 172.246 1117.47 Q175.88 1117.47 177.686 1113.93 Q179.514 1110.37 179.514 1103.26 Q179.514 1096.13 177.686 1092.59 Q175.88 1089.02 172.246 1089.02 M172.246 1085.32 Q178.056 1085.32 181.112 1089.93 Q184.19 1094.51 184.19 1103.26 Q184.19 1111.99 181.112 1116.59 Q178.056 1121.18 172.246 1121.18 Q166.436 1121.18 163.357 1116.59 Q160.302 1111.99 160.302 1103.26 Q160.302 1094.51 163.357 1089.93 Q166.436 1085.32 172.246 1085.32 Z" fill="#000000" fill-rule="nonzero" fill-opacity="1" /><path clip-path="url(#clip770)" d="M220.579 1095.04 L210 1105.67 L220.579 1116.24 L217.824 1119.05 L207.199 1108.42 L196.575 1119.05 L193.843 1116.24 L204.399 1105.67 L193.843 1095.04 L196.575 1092.24 L207.199 1102.87 L217.824 1092.24 L220.579 1095.04 Z" fill="#000000" fill-rule="nonzero" fill-opacity="1" /><path clip-path="url(#clip770)" d="M232.94 1116.57 L240.579 1116.57 L240.579 1090.2 L232.269 1091.87 L232.269 1087.61 L240.533 1085.94 L245.209 1085.94 L245.209 1116.57 L252.847 1116.57 L252.847 1120.5 L232.94 1120.5 L232.94 1116.57 Z" fill="#000000" fill-rule="nonzero" fill-opacity="1" /><path clip-path="url(#clip770)" d="M272.292 1089.02 Q268.681 1089.02 266.852 1092.59 Q265.046 1096.13 265.046 1103.26 Q265.046 1110.37 266.852 1113.93 Q268.681 1117.47 272.292 1117.47 Q275.926 1117.47 277.732 1113.93 Q279.56 1110.37 279.56 1103.26 Q279.56 1096.13 277.732 1092.59 Q275.926 1089.02 272.292 1089.02 M272.292 1085.32 Q278.102 1085.32 281.157 1089.93 Q284.236 1094.51 284.236 1103.26 Q284.236 1111.99 281.157 1116.59 Q278.102 1121.18 272.292 1121.18 Q266.482 1121.18 263.403 1116.59 Q260.347 1111.99 260.347 1103.26 Q260.347 1094.51 263.403 1089.93 Q266.482 1085.32 272.292 1085.32 Z" fill="#000000" fill-rule="nonzero" fill-opacity="1" /><path clip-path="url(#clip770)" d="M284.236 1079.42 L308.348 1079.42 L308.348 1082.62 L284.236 1082.62 L284.236 1079.42 Z" fill="#000000" fill-rule="nonzero" fill-opacity="1" /><path clip-path="url(#clip770)" d="M317.206 1089.9 L323.413 1089.9 L323.413 1068.47 L316.661 1069.83 L316.661 1066.37 L323.375 1065.01 L327.174 1065.01 L327.174 1089.9 L333.381 1089.9 L333.381 1093.09 L317.206 1093.09 L317.206 1089.9 Z" fill="#000000" fill-rule="nonzero" fill-opacity="1" /><path clip-path="url(#clip770)" d="M349.179 1067.52 Q346.245 1067.52 344.76 1070.41 Q343.292 1073.29 343.292 1079.08 Q343.292 1084.86 344.76 1087.75 Q346.245 1090.63 349.179 1090.63 Q352.132 1090.63 353.599 1087.75 Q355.085 1084.86 355.085 1079.08 Q355.085 1073.29 353.599 1070.41 Q352.132 1067.52 349.179 1067.52 M349.179 1064.51 Q353.9 1064.51 356.383 1068.25 Q358.884 1071.97 358.884 1079.08 Q358.884 1086.17 356.383 1089.92 Q353.9 1093.64 349.179 1093.64 Q344.459 1093.64 341.957 1089.92 Q339.475 1086.17 339.475 1079.08 Q339.475 1071.97 341.957 1068.25 Q344.459 1064.51 349.179 1064.51 Z" fill="#000000" fill-rule="nonzero" fill-opacity="1" /><path clip-path="url(#clip770)" d="M129.862 913.023 L118.056 931.472 L129.862 931.472 L129.862 913.023 M128.635 908.949 L134.515 908.949 L134.515 931.472 L139.445 931.472 L139.445 935.361 L134.515 935.361 L134.515 943.509 L129.862 943.509 L129.862 935.361 L114.26 935.361 L114.26 930.847 L128.635 908.949 Z" fill="#000000" fill-rule="nonzero" fill-opacity="1" /><path clip-path="url(#clip770)" d="M147.177 937.63 L152.061 937.63 L152.061 943.509 L147.177 943.509 L147.177 937.63 Z" fill="#000000" fill-rule="nonzero" fill-opacity="1" /><path clip-path="url(#clip770)" d="M172.246 912.028 Q168.635 912.028 166.806 915.593 Q165.001 919.134 165.001 926.264 Q165.001 933.37 166.806 936.935 Q168.635 940.477 172.246 940.477 Q175.88 940.477 177.686 936.935 Q179.514 933.37 179.514 926.264 Q179.514 919.134 177.686 915.593 Q175.88 912.028 172.246 912.028 M172.246 908.324 Q178.056 908.324 181.112 912.931 Q184.19 917.514 184.19 926.264 Q184.19 934.991 181.112 939.597 Q178.056 944.181 172.246 944.181 Q166.436 944.181 163.357 939.597 Q160.302 934.991 160.302 926.264 Q160.302 917.514 163.357 912.931 Q166.436 908.324 172.246 908.324 Z" fill="#000000" fill-rule="nonzero" fill-opacity="1" /><path clip-path="url(#clip770)" d="M220.579 918.046 L210 928.671 L220.579 939.25 L217.824 942.051 L207.199 931.426 L196.575 942.051 L193.843 939.25 L204.399 928.671 L193.843 918.046 L196.575 915.246 L207.199 925.87 L217.824 915.246 L220.579 918.046 Z" fill="#000000" fill-rule="nonzero" fill-opacity="1" /><path clip-path="url(#clip770)" d="M232.94 939.574 L240.579 939.574 L240.579 913.209 L232.269 914.875 L232.269 910.616 L240.533 908.949 L245.209 908.949 L245.209 939.574 L252.847 939.574 L252.847 943.509 L232.94 943.509 L232.94 939.574 Z" fill="#000000" fill-rule="nonzero" fill-opacity="1" /><path clip-path="url(#clip770)" d="M272.292 912.028 Q268.681 912.028 266.852 915.593 Q265.046 919.134 265.046 926.264 Q265.046 933.37 266.852 936.935 Q268.681 940.477 272.292 940.477 Q275.926 940.477 277.732 936.935 Q279.56 933.37 279.56 926.264 Q279.56 919.134 277.732 915.593 Q275.926 912.028 272.292 912.028 M272.292 908.324 Q278.102 908.324 281.157 912.931 Q284.236 917.514 284.236 926.264 Q284.236 934.991 281.157 939.597 Q278.102 944.181 272.292 944.181 Q266.482 944.181 263.403 939.597 Q260.347 934.991 260.347 926.264 Q260.347 917.514 263.403 912.931 Q266.482 908.324 272.292 908.324 Z" fill="#000000" fill-rule="nonzero" fill-opacity="1" /><path clip-path="url(#clip770)" d="M284.236 902.426 L308.348 902.426 L308.348 905.623 L284.236 905.623 L284.236 902.426 Z" fill="#000000" fill-rule="nonzero" fill-opacity="1" /><path clip-path="url(#clip770)" d="M317.206 912.902 L323.413 912.902 L323.413 891.479 L316.661 892.834 L316.661 889.373 L323.375 888.019 L327.174 888.019 L327.174 912.902 L333.381 912.902 L333.381 916.099 L317.206 916.099 L317.206 912.902 Z" fill="#000000" fill-rule="nonzero" fill-opacity="1" /><path clip-path="url(#clip770)" d="M349.179 890.52 Q346.245 890.52 344.76 893.417 Q343.292 896.294 343.292 902.087 Q343.292 907.861 344.76 910.757 Q346.245 913.635 349.179 913.635 Q352.132 913.635 353.599 910.757 Q355.085 907.861 355.085 902.087 Q355.085 896.294 353.599 893.417 Q352.132 890.52 349.179 890.52 M349.179 887.511 Q353.9 887.511 356.383 891.254 Q358.884 894.978 358.884 902.087 Q358.884 909.178 356.383 912.92 Q353.9 916.644 349.179 916.644 Q344.459 916.644 341.957 912.92 Q339.475 909.178 339.475 902.087 Q339.475 894.978 341.957 891.254 Q344.459 887.511 349.179 887.511 Z" fill="#000000" fill-rule="nonzero" fill-opacity="1" /><path clip-path="url(#clip770)" d="M117.061 731.954 L135.417 731.954 L135.417 735.89 L121.343 735.89 L121.343 744.362 Q122.362 744.014 123.38 743.852 Q124.399 743.667 125.418 743.667 Q131.205 743.667 134.584 746.839 Q137.964 750.01 137.964 755.426 Q137.964 761.005 134.492 764.107 Q131.019 767.186 124.7 767.186 Q122.524 767.186 120.255 766.815 Q118.01 766.445 115.603 765.704 L115.603 761.005 Q117.686 762.139 119.908 762.695 Q122.13 763.251 124.607 763.251 Q128.612 763.251 130.95 761.144 Q133.288 759.038 133.288 755.426 Q133.288 751.815 130.95 749.709 Q128.612 747.602 124.607 747.602 Q122.732 747.602 120.857 748.019 Q119.006 748.436 117.061 749.315 L117.061 731.954 Z" fill="#000000" fill-rule="nonzero" fill-opacity="1" /><path clip-path="url(#clip770)" d="M147.177 760.635 L152.061 760.635 L152.061 766.514 L147.177 766.514 L147.177 760.635 Z" fill="#000000" fill-rule="nonzero" fill-opacity="1" /><path clip-path="url(#clip770)" d="M172.246 735.033 Q168.635 735.033 166.806 738.598 Q165.001 742.14 165.001 749.269 Q165.001 756.376 166.806 759.94 Q168.635 763.482 172.246 763.482 Q175.88 763.482 177.686 759.94 Q179.514 756.376 179.514 749.269 Q179.514 742.14 177.686 738.598 Q175.88 735.033 172.246 735.033 M172.246 731.329 Q178.056 731.329 181.112 735.936 Q184.19 740.519 184.19 749.269 Q184.19 757.996 181.112 762.602 Q178.056 767.186 172.246 767.186 Q166.436 767.186 163.357 762.602 Q160.302 757.996 160.302 749.269 Q160.302 740.519 163.357 735.936 Q166.436 731.329 172.246 731.329 Z" fill="#000000" fill-rule="nonzero" fill-opacity="1" /><path clip-path="url(#clip770)" d="M220.579 741.052 L210 751.676 L220.579 762.255 L217.824 765.056 L207.199 754.431 L196.575 765.056 L193.843 762.255 L204.399 751.676 L193.843 741.052 L196.575 738.251 L207.199 748.876 L217.824 738.251 L220.579 741.052 Z" fill="#000000" fill-rule="nonzero" fill-opacity="1" /><path clip-path="url(#clip770)" d="M232.94 762.579 L240.579 762.579 L240.579 736.214 L232.269 737.88 L232.269 733.621 L240.533 731.954 L245.209 731.954 L245.209 762.579 L252.847 762.579 L252.847 766.514 L232.94 766.514 L232.94 762.579 Z" fill="#000000" fill-rule="nonzero" fill-opacity="1" /><path clip-path="url(#clip770)" d="M272.292 735.033 Q268.681 735.033 266.852 738.598 Q265.046 742.14 265.046 749.269 Q265.046 756.376 266.852 759.94 Q268.681 763.482 272.292 763.482 Q275.926 763.482 277.732 759.94 Q279.56 756.376 279.56 749.269 Q279.56 742.14 277.732 738.598 Q275.926 735.033 272.292 735.033 M272.292 731.329 Q278.102 731.329 281.157 735.936 Q284.236 740.519 284.236 749.269 Q284.236 757.996 281.157 762.602 Q278.102 767.186 272.292 767.186 Q266.482 767.186 263.403 762.602 Q260.347 757.996 260.347 749.269 Q260.347 740.519 263.403 735.936 Q266.482 731.329 272.292 731.329 Z" fill="#000000" fill-rule="nonzero" fill-opacity="1" /><path clip-path="url(#clip770)" d="M284.236 725.431 L308.348 725.431 L308.348 728.628 L284.236 728.628 L284.236 725.431 Z" fill="#000000" fill-rule="nonzero" fill-opacity="1" /><path clip-path="url(#clip770)" d="M317.206 735.907 L323.413 735.907 L323.413 714.485 L316.661 715.839 L316.661 712.378 L323.375 711.024 L327.174 711.024 L327.174 735.907 L333.381 735.907 L333.381 739.104 L317.206 739.104 L317.206 735.907 Z" fill="#000000" fill-rule="nonzero" fill-opacity="1" /><path clip-path="url(#clip770)" d="M349.179 713.525 Q346.245 713.525 344.76 716.422 Q343.292 719.299 343.292 725.092 Q343.292 730.866 344.76 733.763 Q346.245 736.64 349.179 736.64 Q352.132 736.64 353.599 733.763 Q355.085 730.866 355.085 725.092 Q355.085 719.299 353.599 716.422 Q352.132 713.525 349.179 713.525 M349.179 710.516 Q353.9 710.516 356.383 714.259 Q358.884 717.983 358.884 725.092 Q358.884 732.183 356.383 735.925 Q353.9 739.649 349.179 739.649 Q344.459 739.649 341.957 735.925 Q339.475 732.183 339.475 725.092 Q339.475 717.983 341.957 714.259 Q344.459 710.516 349.179 710.516 Z" fill="#000000" fill-rule="nonzero" fill-opacity="1" /><path clip-path="url(#clip770)" d="M127.593 570.376 Q124.445 570.376 122.593 572.529 Q120.765 574.682 120.765 578.432 Q120.765 582.158 122.593 584.334 Q124.445 586.487 127.593 586.487 Q130.742 586.487 132.57 584.334 Q134.422 582.158 134.422 578.432 Q134.422 574.682 132.57 572.529 Q130.742 570.376 127.593 570.376 M136.876 555.723 L136.876 559.983 Q135.117 559.149 133.311 558.709 Q131.529 558.27 129.769 558.27 Q125.14 558.27 122.686 561.395 Q120.255 564.52 119.908 570.839 Q121.274 568.825 123.334 567.76 Q125.394 566.672 127.871 566.672 Q133.08 566.672 136.089 569.844 Q139.121 572.992 139.121 578.432 Q139.121 583.756 135.973 586.973 Q132.825 590.191 127.593 590.191 Q121.598 590.191 118.427 585.607 Q115.256 581.001 115.256 572.274 Q115.256 564.08 119.144 559.219 Q123.033 554.334 129.584 554.334 Q131.343 554.334 133.126 554.682 Q134.931 555.029 136.876 555.723 Z" fill="#000000" fill-rule="nonzero" fill-opacity="1" /><path clip-path="url(#clip770)" d="M147.177 583.64 L152.061 583.64 L152.061 589.519 L147.177 589.519 L147.177 583.64 Z" fill="#000000" fill-rule="nonzero" fill-opacity="1" /><path clip-path="url(#clip770)" d="M172.246 558.038 Q168.635 558.038 166.806 561.603 Q165.001 565.145 165.001 572.274 Q165.001 579.381 166.806 582.945 Q168.635 586.487 172.246 586.487 Q175.88 586.487 177.686 582.945 Q179.514 579.381 179.514 572.274 Q179.514 565.145 177.686 561.603 Q175.88 558.038 172.246 558.038 M172.246 554.334 Q178.056 554.334 181.112 558.941 Q184.19 563.524 184.19 572.274 Q184.19 581.001 181.112 585.607 Q178.056 590.191 172.246 590.191 Q166.436 590.191 163.357 585.607 Q160.302 581.001 160.302 572.274 Q160.302 563.524 163.357 558.941 Q166.436 554.334 172.246 554.334 Z" fill="#000000" fill-rule="nonzero" fill-opacity="1" /><path clip-path="url(#clip770)" d="M220.579 564.057 L210 574.682 L220.579 585.26 L217.824 588.061 L207.199 577.436 L196.575 588.061 L193.843 585.26 L204.399 574.682 L193.843 564.057 L196.575 561.256 L207.199 571.881 L217.824 561.256 L220.579 564.057 Z" fill="#000000" fill-rule="nonzero" fill-opacity="1" /><path clip-path="url(#clip770)" d="M232.94 585.584 L240.579 585.584 L240.579 559.219 L232.269 560.885 L232.269 556.626 L240.533 554.959 L245.209 554.959 L245.209 585.584 L252.847 585.584 L252.847 589.519 L232.94 589.519 L232.94 585.584 Z" fill="#000000" fill-rule="nonzero" fill-opacity="1" /><path clip-path="url(#clip770)" d="M272.292 558.038 Q268.681 558.038 266.852 561.603 Q265.046 565.145 265.046 572.274 Q265.046 579.381 266.852 582.945 Q268.681 586.487 272.292 586.487 Q275.926 586.487 277.732 582.945 Q279.56 579.381 279.56 572.274 Q279.56 565.145 277.732 561.603 Q275.926 558.038 272.292 558.038 M272.292 554.334 Q278.102 554.334 281.157 558.941 Q284.236 563.524 284.236 572.274 Q284.236 581.001 281.157 585.607 Q278.102 590.191 272.292 590.191 Q266.482 590.191 263.403 585.607 Q260.347 581.001 260.347 572.274 Q260.347 563.524 263.403 558.941 Q266.482 554.334 272.292 554.334 Z" fill="#000000" fill-rule="nonzero" fill-opacity="1" /><path clip-path="url(#clip770)" d="M284.236 548.436 L308.348 548.436 L308.348 551.633 L284.236 551.633 L284.236 548.436 Z" fill="#000000" fill-rule="nonzero" fill-opacity="1" /><path clip-path="url(#clip770)" d="M317.206 558.912 L323.413 558.912 L323.413 537.49 L316.661 538.844 L316.661 535.383 L323.375 534.029 L327.174 534.029 L327.174 558.912 L333.381 558.912 L333.381 562.109 L317.206 562.109 L317.206 558.912 Z" fill="#000000" fill-rule="nonzero" fill-opacity="1" /><path clip-path="url(#clip770)" d="M349.179 536.531 Q346.245 536.531 344.76 539.427 Q343.292 542.305 343.292 548.097 Q343.292 553.871 344.76 556.768 Q346.245 559.645 349.179 559.645 Q352.132 559.645 353.599 556.768 Q355.085 553.871 355.085 548.097 Q355.085 542.305 353.599 539.427 Q352.132 536.531 349.179 536.531 M349.179 533.521 Q353.9 533.521 356.383 537.264 Q358.884 540.988 358.884 548.097 Q358.884 555.188 356.383 558.931 Q353.9 562.655 349.179 562.655 Q344.459 562.655 341.957 558.931 Q339.475 555.188 339.475 548.097 Q339.475 540.988 341.957 537.264 Q344.459 533.521 349.179 533.521 Z" fill="#000000" fill-rule="nonzero" fill-opacity="1" /><path clip-path="url(#clip770)" d="M115.834 377.965 L138.056 377.965 L138.056 379.955 L125.51 412.525 L120.626 412.525 L132.431 381.9 L115.834 381.9 L115.834 377.965 Z" fill="#000000" fill-rule="nonzero" fill-opacity="1" /><path clip-path="url(#clip770)" d="M147.177 406.645 L152.061 406.645 L152.061 412.525 L147.177 412.525 L147.177 406.645 Z" fill="#000000" fill-rule="nonzero" fill-opacity="1" /><path clip-path="url(#clip770)" d="M172.246 381.043 Q168.635 381.043 166.806 384.608 Q165.001 388.15 165.001 395.279 Q165.001 402.386 166.806 405.951 Q168.635 409.492 172.246 409.492 Q175.88 409.492 177.686 405.951 Q179.514 402.386 179.514 395.279 Q179.514 388.15 177.686 384.608 Q175.88 381.043 172.246 381.043 M172.246 377.34 Q178.056 377.34 181.112 381.946 Q184.19 386.529 184.19 395.279 Q184.19 404.006 181.112 408.613 Q178.056 413.196 172.246 413.196 Q166.436 413.196 163.357 408.613 Q160.302 404.006 160.302 395.279 Q160.302 386.529 163.357 381.946 Q166.436 377.34 172.246 377.34 Z" fill="#000000" fill-rule="nonzero" fill-opacity="1" /><path clip-path="url(#clip770)" d="M220.579 387.062 L210 397.687 L220.579 408.265 L217.824 411.066 L207.199 400.441 L196.575 411.066 L193.843 408.265 L204.399 397.687 L193.843 387.062 L196.575 384.261 L207.199 394.886 L217.824 384.261 L220.579 387.062 Z" fill="#000000" fill-rule="nonzero" fill-opacity="1" /><path clip-path="url(#clip770)" d="M232.94 408.589 L240.579 408.589 L240.579 382.224 L232.269 383.89 L232.269 379.631 L240.533 377.965 L245.209 377.965 L245.209 408.589 L252.847 408.589 L252.847 412.525 L232.94 412.525 L232.94 408.589 Z" fill="#000000" fill-rule="nonzero" fill-opacity="1" /><path clip-path="url(#clip770)" d="M272.292 381.043 Q268.681 381.043 266.852 384.608 Q265.046 388.15 265.046 395.279 Q265.046 402.386 266.852 405.951 Q268.681 409.492 272.292 409.492 Q275.926 409.492 277.732 405.951 Q279.56 402.386 279.56 395.279 Q279.56 388.15 277.732 384.608 Q275.926 381.043 272.292 381.043 M272.292 377.34 Q278.102 377.34 281.157 381.946 Q284.236 386.529 284.236 395.279 Q284.236 404.006 281.157 408.613 Q278.102 413.196 272.292 413.196 Q266.482 413.196 263.403 408.613 Q260.347 404.006 260.347 395.279 Q260.347 386.529 263.403 381.946 Q266.482 377.34 272.292 377.34 Z" fill="#000000" fill-rule="nonzero" fill-opacity="1" /><path clip-path="url(#clip770)" d="M284.236 371.441 L308.348 371.441 L308.348 374.638 L284.236 374.638 L284.236 371.441 Z" fill="#000000" fill-rule="nonzero" fill-opacity="1" /><path clip-path="url(#clip770)" d="M317.206 381.917 L323.413 381.917 L323.413 360.495 L316.661 361.849 L316.661 358.388 L323.375 357.034 L327.174 357.034 L327.174 381.917 L333.381 381.917 L333.381 385.114 L317.206 385.114 L317.206 381.917 Z" fill="#000000" fill-rule="nonzero" fill-opacity="1" /><path clip-path="url(#clip770)" d="M349.179 359.536 Q346.245 359.536 344.76 362.432 Q343.292 365.31 343.292 371.102 Q343.292 376.876 344.76 379.773 Q346.245 382.65 349.179 382.65 Q352.132 382.65 353.599 379.773 Q355.085 376.876 355.085 371.102 Q355.085 365.31 353.599 362.432 Q352.132 359.536 349.179 359.536 M349.179 356.526 Q353.9 356.526 356.383 360.269 Q358.884 363.993 358.884 371.102 Q358.884 378.193 356.383 381.936 Q353.9 385.66 349.179 385.66 Q344.459 385.66 341.957 381.936 Q339.475 378.193 339.475 371.102 Q339.475 363.993 341.957 360.269 Q344.459 356.526 349.179 356.526 Z" fill="#000000" fill-rule="nonzero" fill-opacity="1" /><path clip-path="url(#clip770)" d="M127.015 219.118 Q123.681 219.118 121.76 220.9 Q119.862 222.683 119.862 225.808 Q119.862 228.933 121.76 230.715 Q123.681 232.497 127.015 232.497 Q130.348 232.497 132.269 230.715 Q134.191 228.909 134.191 225.808 Q134.191 222.683 132.269 220.9 Q130.371 219.118 127.015 219.118 M122.339 217.127 Q119.33 216.386 117.64 214.326 Q115.973 212.266 115.973 209.303 Q115.973 205.159 118.913 202.752 Q121.876 200.345 127.015 200.345 Q132.177 200.345 135.117 202.752 Q138.056 205.159 138.056 209.303 Q138.056 212.266 136.367 214.326 Q134.7 216.386 131.714 217.127 Q135.093 217.914 136.968 220.206 Q138.867 222.497 138.867 225.808 Q138.867 230.831 135.788 233.516 Q132.732 236.201 127.015 236.201 Q121.297 236.201 118.218 233.516 Q115.163 230.831 115.163 225.808 Q115.163 222.497 117.061 220.206 Q118.959 217.914 122.339 217.127 M120.626 209.743 Q120.626 212.428 122.293 213.933 Q123.982 215.437 127.015 215.437 Q130.024 215.437 131.714 213.933 Q133.427 212.428 133.427 209.743 Q133.427 207.058 131.714 205.553 Q130.024 204.048 127.015 204.048 Q123.982 204.048 122.293 205.553 Q120.626 207.058 120.626 209.743 Z" fill="#000000" fill-rule="nonzero" fill-opacity="1" /><path clip-path="url(#clip770)" d="M147.177 229.65 L152.061 229.65 L152.061 235.53 L147.177 235.53 L147.177 229.65 Z" fill="#000000" fill-rule="nonzero" fill-opacity="1" /><path clip-path="url(#clip770)" d="M172.246 204.048 Q168.635 204.048 166.806 207.613 Q165.001 211.155 165.001 218.284 Q165.001 225.391 166.806 228.956 Q168.635 232.497 172.246 232.497 Q175.88 232.497 177.686 228.956 Q179.514 225.391 179.514 218.284 Q179.514 211.155 177.686 207.613 Q175.88 204.048 172.246 204.048 M172.246 200.345 Q178.056 200.345 181.112 204.951 Q184.19 209.534 184.19 218.284 Q184.19 227.011 181.112 231.618 Q178.056 236.201 172.246 236.201 Q166.436 236.201 163.357 231.618 Q160.302 227.011 160.302 218.284 Q160.302 209.534 163.357 204.951 Q166.436 200.345 172.246 200.345 Z" fill="#000000" fill-rule="nonzero" fill-opacity="1" /><path clip-path="url(#clip770)" d="M220.579 210.067 L210 220.692 L220.579 231.27 L217.824 234.071 L207.199 223.446 L196.575 234.071 L193.843 231.27 L204.399 220.692 L193.843 210.067 L196.575 207.266 L207.199 217.891 L217.824 207.266 L220.579 210.067 Z" fill="#000000" fill-rule="nonzero" fill-opacity="1" /><path clip-path="url(#clip770)" d="M232.94 231.595 L240.579 231.595 L240.579 205.229 L232.269 206.896 L232.269 202.636 L240.533 200.97 L245.209 200.97 L245.209 231.595 L252.847 231.595 L252.847 235.53 L232.94 235.53 L232.94 231.595 Z" fill="#000000" fill-rule="nonzero" fill-opacity="1" /><path clip-path="url(#clip770)" d="M272.292 204.048 Q268.681 204.048 266.852 207.613 Q265.046 211.155 265.046 218.284 Q265.046 225.391 266.852 228.956 Q268.681 232.497 272.292 232.497 Q275.926 232.497 277.732 228.956 Q279.56 225.391 279.56 218.284 Q279.56 211.155 277.732 207.613 Q275.926 204.048 272.292 204.048 M272.292 200.345 Q278.102 200.345 281.157 204.951 Q284.236 209.534 284.236 218.284 Q284.236 227.011 281.157 231.618 Q278.102 236.201 272.292 236.201 Q266.482 236.201 263.403 231.618 Q260.347 227.011 260.347 218.284 Q260.347 209.534 263.403 204.951 Q266.482 200.345 272.292 200.345 Z" fill="#000000" fill-rule="nonzero" fill-opacity="1" /><path clip-path="url(#clip770)" d="M284.236 194.446 L308.348 194.446 L308.348 197.643 L284.236 197.643 L284.236 194.446 Z" fill="#000000" fill-rule="nonzero" fill-opacity="1" /><path clip-path="url(#clip770)" d="M317.206 204.922 L323.413 204.922 L323.413 183.5 L316.661 184.854 L316.661 181.393 L323.375 180.039 L327.174 180.039 L327.174 204.922 L333.381 204.922 L333.381 208.119 L317.206 208.119 L317.206 204.922 Z" fill="#000000" fill-rule="nonzero" fill-opacity="1" /><path clip-path="url(#clip770)" d="M349.179 182.541 Q346.245 182.541 344.76 185.437 Q343.292 188.315 343.292 194.108 Q343.292 199.881 344.76 202.778 Q346.245 205.655 349.179 205.655 Q352.132 205.655 353.599 202.778 Q355.085 199.881 355.085 194.108 Q355.085 188.315 353.599 185.437 Q352.132 182.541 349.179 182.541 M349.179 179.531 Q353.9 179.531 356.383 183.274 Q358.884 186.998 358.884 194.108 Q358.884 201.198 356.383 204.941 Q353.9 208.665 349.179 208.665 Q344.459 208.665 341.957 204.941 Q339.475 201.198 339.475 194.108 Q339.475 186.998 341.957 183.274 Q344.459 179.531 349.179 179.531 Z" fill="#000000" fill-rule="nonzero" fill-opacity="1" /><path clip-path="url(#clip770)" d="M14.479 902.328 L14.479 896.471 L64.0042 896.471 L64.0042 902.328 L14.479 902.328 Z" fill="#000000" fill-rule="nonzero" fill-opacity="1" /><path clip-path="url(#clip770)" d="M14.5426 870.149 Q21.8632 874.414 29.0246 876.483 Q36.186 878.552 43.5384 878.552 Q50.8908 878.552 58.1159 876.483 Q65.3091 874.382 72.5979 870.149 L72.5979 875.242 Q65.1182 880.016 57.8931 882.403 Q50.668 884.758 43.5384 884.758 Q36.4406 884.758 29.2474 882.403 Q22.0542 880.048 14.5426 875.242 L14.5426 870.149 Z" fill="#000000" fill-rule="nonzero" fill-opacity="1" /><path clip-path="url(#clip770)" d="M14.479 858.786 L14.479 852.93 L64.0042 852.93 L64.0042 858.786 L14.479 858.786 Z" fill="#000000" fill-rule="nonzero" fill-opacity="1" /><path clip-path="url(#clip770)" d="M23.1363 816.836 L40.8648 816.836 L40.8648 799.108 L46.2757 799.108 L46.2757 816.836 L64.0042 816.836 L64.0042 822.183 L46.2757 822.183 L46.2757 839.912 L40.8648 839.912 L40.8648 822.183 L23.1363 822.183 L23.1363 816.836 Z" fill="#000000" fill-rule="nonzero" fill-opacity="1" /><path clip-path="url(#clip770)" d="M58.5933 784.117 L58.5933 773.613 L22.3406 773.613 L24.6323 785.04 L18.7758 785.04 L16.4842 773.677 L16.4842 767.247 L58.5933 767.247 L58.5933 756.744 L64.0042 756.744 L64.0042 784.117 L58.5933 784.117 Z" fill="#000000" fill-rule="nonzero" fill-opacity="1" /><path clip-path="url(#clip770)" d="M14.5426 745.508 L14.5426 740.416 Q22.0542 735.642 29.2474 733.286 Q36.4406 730.899 43.5384 730.899 Q50.668 730.899 57.8931 733.286 Q65.1182 735.642 72.5979 740.416 L72.5979 745.508 Q65.3091 741.275 58.1159 739.206 Q50.8908 737.106 43.5384 737.106 Q36.186 737.106 29.0246 739.206 Q21.8632 741.275 14.5426 745.508 Z" fill="#000000" fill-rule="nonzero" fill-opacity="1" /><path clip-path="url(#clip770)" d="M20.1444 683.316 L26.9239 683.316 Q23.9002 686.562 22.4043 690.254 Q20.9083 693.914 20.9083 698.052 Q20.9083 706.2 25.9054 710.529 Q30.8707 714.858 40.2919 714.858 Q49.6813 714.858 54.6784 710.529 Q59.6436 706.2 59.6436 698.052 Q59.6436 693.914 58.1477 690.254 Q56.6518 686.562 53.6281 683.316 L60.3439 683.316 Q62.6355 686.689 63.7814 690.477 Q64.9272 694.233 64.9272 698.434 Q64.9272 709.224 58.3387 715.431 Q51.7183 721.637 40.2919 721.637 Q28.8336 721.637 22.2451 715.431 Q15.6248 709.224 15.6248 698.434 Q15.6248 694.169 16.7706 690.413 Q17.8846 686.626 20.1444 683.316 Z" fill="#000000" fill-rule="nonzero" fill-opacity="1" /><path clip-path="url(#clip770)" d="M36.2815 675.899 L36.2815 672.207 L64.0042 672.207 L64.0042 675.899 L36.2815 675.899 Z" fill="#000000" fill-rule="nonzero" fill-opacity="1" /><path clip-path="url(#clip770)" d="M16.4842 652.41 L16.4842 646.999 L70.0516 663.55 L70.0516 668.961 L16.4842 652.41 Z" fill="#000000" fill-rule="nonzero" fill-opacity="1" /><path clip-path="url(#clip770)" d="M58.5933 634.491 L58.5933 612.051 L64.0042 612.051 L64.0042 642.225 L58.5933 642.225 Q54.8057 638.565 48.44 632.263 Q42.0425 625.929 40.1964 624.305 Q36.7271 621.218 34.34 620.009 Q31.921 618.767 29.5975 618.767 Q25.8099 618.767 23.4228 621.441 Q21.0356 624.083 21.0356 628.348 Q21.0356 631.371 22.086 634.745 Q23.1363 638.087 25.2688 641.907 L18.7758 641.907 Q17.2162 638.024 16.4205 634.65 Q15.6248 631.276 15.6248 628.475 Q15.6248 621.091 19.3169 616.698 Q23.009 612.306 29.1837 612.306 Q32.112 612.306 34.7537 613.42 Q37.3637 614.502 40.9285 617.399 Q41.8515 618.194 46.2757 622.459 Q50.668 626.724 58.5933 634.491 Z" fill="#000000" fill-rule="nonzero" fill-opacity="1" /><path clip-path="url(#clip770)" d="M28.3562 603.171 L28.3562 569.019 L34.2127 569.019 L34.2127 573.507 L56.1107 573.507 Q58.4023 573.507 59.4208 572.743 Q60.4075 571.948 60.4075 570.197 Q60.4075 569.72 60.3439 569.019 Q60.2484 568.319 60.2166 568.096 L64.4498 568.096 Q64.8635 569.21 65.0545 570.388 Q65.2455 571.566 65.2455 572.743 Q65.2455 576.563 63.1766 578.027 Q61.0759 579.491 55.4741 579.491 L34.2127 579.491 L34.2127 592.636 L64.0042 592.636 L64.0042 598.62 L34.2127 598.62 L34.2127 603.171 L28.3562 603.171 Z" fill="#000000" fill-rule="nonzero" fill-opacity="1" /><path clip-path="url(#clip771)" d="M450.296 1384.24 L452.22 1377.27 L454.144 1370.55 L456.068 1364.08 L457.992 1357.88 L459.916 1351.94 L461.84 1346.26 L463.764 1340.85 L465.688 1335.69 L467.612 1330.77 L469.536 1326.1 L471.46 1321.64 L473.384 1317.38 L475.308 1313.3 L477.232 1309.36 L479.156 1305.55 L481.08 1301.82 L483.004 1298.13 L484.928 1294.44 L486.852 1290.69 L488.776 1286.85 L490.7 1282.85 L492.624 1278.67 L494.548 1274.31 L496.472 1269.75 L498.396 1264.99 L500.32 1260.02 L502.244 1254.84 L504.168 1249.44 L506.092 1243.84 L508.016 1238.03 L509.94 1232.02 L511.864 1225.83 L513.788 1219.45 L515.712 1212.92 L517.636 1206.24 L519.56 1199.45 L521.484 1192.56 L523.408 1185.61 L525.332 1178.64 L527.256 1171.67 L529.18 1164.74 L531.104 1157.87 L533.028 1151.04 L534.952 1144.25 L536.876 1137.51 L538.8 1130.81 L540.724 1124.13 L542.648 1117.49 L544.572 1110.87 L546.496 1104.27 L548.42 1097.69 L550.344 1091.11 L552.268 1084.53 L554.192 1077.95 L556.116 1071.35 L558.04 1064.73 L559.964 1058.08 L561.888 1051.38 L563.812 1044.63 L565.736 1037.82 L567.66 1030.94 L569.584 1023.98 L571.508 1016.95 L573.432 1009.85 L575.356 1002.67 L577.28 995.421 L579.204 988.103 L581.128 980.717 L583.052 973.265 L584.976 965.75 L586.9 958.176 L588.824 950.545 L590.748 942.863 L592.672 935.133 L594.596 927.361 L596.52 919.552 L598.444 911.712 L600.368 903.848 L602.292 895.967 L604.216 888.078 L606.14 880.185 L608.064 872.292 L609.988 864.398 L611.912 856.504 L613.836 848.61 L615.76 840.716 L617.684 832.823 L619.608 824.931 L621.532 817.04 L623.456 809.151 L625.38 801.265 L627.304 793.381 L629.228 785.501 L631.152 777.624 L633.076 769.752 L635 761.884 L636.924 754.022 L638.849 746.167 L640.773 738.318 L642.697 730.476 L644.621 722.644 L646.545 714.82 L648.469 707.008 L650.393 699.209 L652.317 691.424 L654.241 683.654 L656.165 675.902 L658.089 668.17 L660.013 660.458 L661.937 652.769 L663.861 645.106 L665.785 637.47 L667.709 629.863 L669.633 622.288 L671.557 614.748 L673.481 607.244 L675.405 599.779 L677.329 592.356 L679.253 584.979 L681.177 577.648 L683.101 570.369 L685.025 563.141 L686.949 555.967 L688.873 548.847 L690.797 541.785 L692.721 534.78 L694.645 527.835 L696.569 520.951 L698.493 514.13 L700.417 507.373 L702.341 500.681 L704.265 494.058 L706.189 487.504 L708.113 481.021 L710.037 474.61 L711.961 468.275 L713.885 462.015 L715.809 455.834 L717.733 449.733 L719.657 443.714 L721.581 437.779 L723.505 431.93 L725.429 426.167 L727.353 420.492 L729.277 414.906 L731.201 409.411 L733.125 404.009 L735.049 398.701 L736.973 393.487 L738.897 388.37 L740.821 383.351 L742.745 378.432 L744.669 373.613 L746.593 368.896 L748.517 364.284 L750.441 359.776 L752.365 355.376 L754.289 351.083 L756.213 346.901 L758.137 342.829 L760.061 338.87 L761.985 335.025 L763.909 331.294 L765.833 327.679 L767.757 324.18 L769.681 320.799 L771.605 317.535 L773.529 314.39 L775.453 311.366 L777.377 308.461 L779.301 305.678 L781.225 303.017 L783.149 300.479 L785.073 298.065 L786.997 295.775 L788.921 293.61 L790.845 291.571 L792.769 289.658 L794.693 287.873 L796.617 286.215 L798.541 284.685 L800.465 283.284 L802.389 282.012 L804.313 280.869 L806.237 279.856 L808.161 278.972 L810.085 278.218 L812.009 277.595 L813.933 277.102 L815.857 276.739 L817.781 276.506 L819.705 276.404 L821.629 276.433 L823.553 276.591 L825.477 276.881 L827.401 277.3 L829.325 277.85 L831.249 278.53 L833.173 279.34 L835.097 280.28 L837.021 281.348 L838.945 282.547 L840.869 283.873 L842.793 285.329 L844.717 286.912 L846.641 288.622 L848.566 290.459 L850.49 292.423 L852.414 294.512 L854.338 296.727 L856.262 299.065 L858.186 301.528 L860.11 304.114 L862.034 306.821 L863.958 309.65 L865.882 312.6 L867.806 315.669 L869.73 318.856 L871.654 322.162 L873.578 325.584 L875.502 329.121 L877.426 332.773 L879.35 336.538 L881.274 340.416 L883.198 344.406 L885.122 348.505 L887.046 352.714 L888.97 357.03 L890.894 361.454 L892.818 365.982 L894.742 370.615 L896.666 375.35 L898.59 380.186 L900.514 385.122 L902.438 390.157 L904.362 395.288 L906.286 400.514 L908.21 405.834 L910.134 411.246 L912.058 416.748 L913.982 422.339 L915.906 428.017 L917.83 433.78 L919.754 439.627 L921.678 445.557 L923.602 451.567 L925.526 457.657 L927.45 463.824 L929.374 470.066 L931.298 476.383 L933.222 482.772 L935.146 489.232 L937.07 495.759 L938.994 502.354 L940.918 509.013 L942.842 515.736 L944.766 522.518 L946.69 529.36 L948.614 536.258 L950.538 543.211 L952.462 550.217 L954.386 557.273 L956.31 564.377 L958.234 571.529 L960.158 578.726 L962.082 585.967 L964.006 593.249 L965.93 600.57 L967.854 607.93 L969.778 615.324 L971.702 622.753 L973.626 630.213 L975.55 637.703 L977.474 645.22 L979.398 652.763 L981.322 660.329 L983.246 667.916 L985.17 675.522 L987.094 683.145 L989.018 690.782 L990.942 698.432 L992.866 706.092 L994.79 713.761 L996.714 721.436 L998.638 729.117 L1000.56 736.8 L1002.49 744.485 L1004.41 752.169 L1006.33 759.851 L1008.26 767.528 L1010.18 775.199 L1012.11 782.862 L1014.03 790.514 L1015.95 798.154 L1017.88 805.779 L1019.8 813.389 L1021.73 820.98 L1023.65 828.551 L1025.57 836.099 L1027.5 843.623 L1029.42 851.121 L1031.35 858.59 L1033.27 866.03 L1035.19 873.438 L1037.12 880.813 L1039.04 888.154 L1040.97 895.459 L1042.89 902.726 L1044.81 909.954 L1046.74 917.14 L1048.66 924.284 L1050.59 931.384 L1052.51 938.438 L1054.43 945.445 L1056.36 952.402 L1058.28 959.309 L1060.21 966.163 L1062.13 972.964 L1064.05 979.709 L1065.98 986.396 L1067.9 993.025 L1069.83 999.594 L1071.75 1006.1 L1073.67 1012.55 L1075.6 1018.93 L1077.52 1025.24 L1079.45 1031.49 L1081.37 1037.68 L1083.29 1043.79 L1085.22 1049.84 L1087.14 1055.82 L1089.07 1061.72 L1090.99 1067.55 L1092.91 1073.31 L1094.84 1078.99 L1096.76 1084.6 L1098.69 1090.13 L1100.61 1095.58 L1102.53 1100.95 L1104.46 1106.25 L1106.38 1111.46 L1108.31 1116.59 L1110.23 1121.64 L1112.15 1126.61 L1114.08 1131.49 L1116 1136.28 L1117.93 1141 L1119.85 1145.63 L1121.77 1150.17 L1123.7 1154.62 L1125.62 1158.99 L1127.55 1163.27 L1129.47 1167.46 L1131.39 1171.57 L1133.32 1175.58 L1135.24 1179.51 L1137.17 1183.35 L1139.09 1187.1 L1141.01 1190.75 L1142.94 1194.32 L1144.86 1197.79 L1146.79 1201.18 L1148.71 1204.47 L1150.63 1207.67 L1152.56 1210.79 L1154.48 1213.81 L1156.41 1216.73 L1158.33 1219.57 L1160.25 1222.32 L1162.18 1224.97 L1164.1 1227.54 L1166.03 1230.01 L1167.95 1232.4 L1169.88 1234.69 L1171.8 1236.89 L1173.72 1239 L1175.65 1241.03 L1177.57 1242.96 L1179.5 1244.81 L1181.42 1246.57 L1183.34 1248.23 L1185.27 1249.82 L1187.19 1251.31 L1189.12 1252.72 L1191.04 1254.04 L1192.96 1255.27 L1194.89 1256.42 L1196.81 1257.49 L1198.74 1258.47 L1200.66 1259.37 L1202.58 1260.18 L1204.51 1260.92 L1206.43 1261.57 L1208.36 1262.14 L1210.28 1262.63 L1212.2 1263.05 L1214.13 1263.38 L1216.05 1263.64 L1217.98 1263.82 L1219.9 1263.93 L1221.82 1263.96 L1223.75 1263.92 L1225.67 1263.81 L1227.6 1263.62 L1229.52 1263.36 L1231.44 1263.04 L1233.37 1262.64 L1235.29 1262.18 L1237.22 1261.65 L1239.14 1261.05 L1241.06 1260.39 L1242.99 1259.67 L1244.91 1258.88 L1246.84 1258.03 L1248.76 1257.13 L1250.68 1256.16 L1252.61 1255.13 L1254.53 1254.05 L1256.46 1252.92 L1258.38 1251.73 L1260.3 1250.48 L1262.23 1249.19 L1264.15 1247.85 L1266.08 1246.46 L1268 1245.02 L1269.92 1243.53 L1271.85 1242 L1273.77 1240.42 L1275.7 1238.8 L1277.62 1237.14 L1279.54 1235.44 L1281.47 1233.7 L1283.39 1231.92 L1285.32 1230.1 L1287.24 1228.25 L1289.16 1226.37 L1291.09 1224.45 L1293.01 1222.5 L1294.94 1220.53 L1296.86 1218.53 L1298.78 1216.5 L1300.71 1214.44 L1302.63 1212.36 L1304.56 1210.26 L1306.48 1208.14 L1308.4 1206 L1310.33 1203.84 L1312.25 1201.66 L1314.18 1199.47 L1316.1 1197.26 L1318.02 1195.03 L1319.95 1192.79 L1321.87 1190.55 L1323.8 1188.29 L1325.72 1186.02 L1327.64 1183.75 L1329.57 1181.47 L1331.49 1179.19 L1333.42 1176.9 L1335.34 1174.61 L1337.26 1172.33 L1339.19 1170.04 L1341.11 1167.76 L1343.04 1165.48 L1344.96 1163.21 L1346.88 1160.94 L1348.81 1158.67 L1350.73 1156.42 L1352.66 1154.17 L1354.58 1151.94 L1356.5 1149.71 L1358.43 1147.5 L1360.35 1145.3 L1362.28 1143.11 L1364.2 1140.94 L1366.12 1138.79 L1368.05 1136.65 L1369.97 1134.54 L1371.9 1132.44 L1373.82 1130.37 L1375.74 1128.32 L1377.67 1126.29 L1379.59 1124.29 L1381.52 1122.31 L1383.44 1120.36 L1385.36 1118.43 L1387.29 1116.53 L1389.21 1114.66 L1391.14 1112.82 L1393.06 1111.01 L1394.98 1109.23 L1396.91 1107.48 L1398.83 1105.77 L1400.76 1104.08 L1402.68 1102.44 L1404.6 1100.82 L1406.53 1099.24 L1408.45 1097.7 L1410.38 1096.19 L1412.3 1094.72 L1414.22 1093.3 L1416.15 1091.91 L1418.07 1090.56 L1420 1089.25 L1421.92 1087.98 L1423.84 1086.75 L1425.77 1085.56 L1427.69 1084.42 L1429.62 1083.31 L1431.54 1082.25 L1433.46 1081.23 L1435.39 1080.26 L1437.31 1079.33 L1439.24 1078.44 L1441.16 1077.59 L1443.08 1076.79 L1445.01 1076.04 L1446.93 1075.33 L1448.86 1074.67 L1450.78 1074.05 L1452.7 1073.48 L1454.63 1072.95 L1456.55 1072.47 L1458.48 1072.04 L1460.4 1071.66 L1462.32 1071.32 L1464.25 1071.02 L1466.17 1070.78 L1468.1 1070.58 L1470.02 1070.42 L1471.94 1070.31 L1473.87 1070.25 L1475.79 1070.24 L1477.72 1070.27 L1479.64 1070.34 L1481.56 1070.46 L1483.49 1070.63 L1485.41 1070.84 L1487.34 1071.1 L1489.26 1071.4 L1491.18 1071.75 L1493.11 1072.15 L1495.03 1072.58 L1496.96 1073.07 L1498.88 1073.59 L1500.8 1074.16 L1502.73 1074.77 L1504.65 1075.43 L1506.58 1076.12 L1508.5 1076.86 L1510.42 1077.64 L1512.35 1078.46 L1514.27 1079.32 L1516.2 1080.22 L1518.12 1081.16 L1520.04 1082.14 L1521.97 1083.16 L1523.89 1084.21 L1525.82 1085.31 L1527.74 1086.44 L1529.66 1087.6 L1531.59 1088.8 L1533.51 1090.04 L1535.44 1091.31 L1537.36 1092.62 L1539.28 1093.95 L1541.21 1095.32 L1543.13 1096.73 L1545.06 1098.16 L1546.98 1099.62 L1548.9 1101.12 L1550.83 1102.64 L1552.75 1104.19 L1554.68 1105.77 L1556.6 1107.37 L1558.52 1109 L1560.45 1110.66 L1562.37 1112.34 L1564.3 1114.04 L1566.22 1115.76 L1568.14 1117.51 L1570.07 1119.28 L1571.99 1121.07 L1573.92 1122.88 L1575.84 1124.7 L1577.76 1126.55 L1579.69 1128.41 L1581.61 1130.29 L1583.54 1132.18 L1585.46 1134.09 L1587.39 1136.01 L1589.31 1137.95 L1591.23 1139.89 L1593.16 1141.85 L1595.08 1143.82 L1597.01 1145.79 L1598.93 1147.78 L1600.85 1149.77 L1602.78 1151.77 L1604.7 1153.78 L1606.63 1155.78 L1608.55 1157.8 L1610.47 1159.81 L1612.4 1161.83 L1614.32 1163.85 L1616.25 1165.87 L1618.17 1167.89 L1620.09 1169.91 L1622.02 1171.92 L1623.94 1173.94 L1625.87 1175.95 L1627.79 1177.95 L1629.71 1179.95 L1631.64 1181.94 L1633.56 1183.93 L1635.49 1185.91 L1637.41 1187.88 L1639.33 1189.84 L1641.26 1191.79 L1643.18 1193.73 L1645.11 1195.65 L1647.03 1197.56 L1648.95 1199.46 L1650.88 1201.34 L1652.8 1203.21 L1654.73 1205.06 L1656.65 1206.89 L1658.57 1208.71 L1660.5 1210.51 L1662.42 1212.29 L1664.35 1214.05 L1666.27 1215.79 L1668.19 1217.51 L1670.12 1219.21 L1672.04 1220.89 L1673.97 1222.54 L1675.89 1224.17 L1677.81 1225.77 L1679.74 1227.35 L1681.66 1228.91 L1683.59 1230.43 L1685.51 1231.93 L1687.43 1233.4 L1689.36 1234.85 L1691.28 1236.26 L1693.21 1237.65 L1695.13 1239 L1697.05 1240.33 L1698.98 1241.62 L1700.9 1242.89 L1702.83 1244.12 L1704.75 1245.32 L1706.67 1246.49 L1708.6 1247.63 L1710.52 1248.73 L1712.45 1249.8 L1714.37 1250.84 L1716.29 1251.84 L1718.22 1252.8 L1720.14 1253.73 L1722.07 1254.63 L1723.99 1255.48 L1725.91 1256.31 L1727.84 1257.09 L1729.76 1257.84 L1731.69 1258.55 L1733.61 1259.23 L1735.53 1259.86 L1737.46 1260.46 L1739.38 1261.03 L1741.31 1261.55 L1743.23 1262.04 L1745.15 1262.49 L1747.08 1262.9 L1749 1263.28 L1750.93 1263.61 L1752.85 1263.91 L1754.77 1264.17 L1756.7 1264.39 L1758.62 1264.57 L1760.55 1264.71 L1762.47 1264.81 L1764.39 1264.88 L1766.32 1264.9 L1768.24 1264.89 L1770.17 1264.84 L1772.09 1264.75 L1774.01 1264.63 L1775.94 1264.46 L1777.86 1264.26 L1779.79 1264.02 L1781.71 1263.74 L1783.63 1263.43 L1785.56 1263.08 L1787.48 1262.69 L1789.41 1262.27 L1791.33 1261.81 L1793.25 1261.31 L1795.18 1260.78 L1797.1 1260.21 L1799.03 1259.61 L1800.95 1258.97 L1802.87 1258.3 L1804.8 1257.59 L1806.72 1256.85 L1808.65 1256.07 L1810.57 1255.27 L1812.49 1254.43 L1814.42 1253.55 L1816.34 1252.65 L1818.27 1251.71 L1820.19 1250.75 L1822.11 1249.75 L1824.04 1248.73 L1825.96 1247.67 L1827.89 1246.59 L1829.81 1245.47 L1831.73 1244.33 L1833.66 1243.16 L1835.58 1241.97 L1837.51 1240.75 L1839.43 1239.5 L1841.35 1238.23 L1843.28 1236.93 L1845.2 1235.61 L1847.13 1234.26 L1849.05 1232.9 L1850.97 1231.51 L1852.9 1230.09 L1854.82 1228.66 L1856.75 1227.21 L1858.67 1225.74 L1860.59 1224.25 L1862.52 1222.74 L1864.44 1221.21 L1866.37 1219.67 L1868.29 1218.11 L1870.21 1216.53 L1872.14 1214.94 L1874.06 1213.34 L1875.99 1211.72 L1877.91 1210.09 L1879.83 1208.45 L1881.76 1206.8 L1883.68 1205.14 L1885.61 1203.46 L1887.53 1201.78 L1889.45 1200.09 L1891.38 1198.39 L1893.3 1196.68 L1895.23 1194.97 L1897.15 1193.25 L1899.07 1191.53 L1901 1189.81 L1902.92 1188.08 L1904.85 1186.34 L1906.77 1184.61 L1908.69 1182.88 L1910.62 1181.14 L1912.54 1179.41 L1914.47 1177.68 L1916.39 1175.95 L1918.31 1174.22 L1920.24 1172.5 L1922.16 1170.78 L1924.09 1169.06 L1926.01 1167.36 L1927.93 1165.65 L1929.86 1163.96 L1931.78 1162.27 L1933.71 1160.59 L1935.63 1158.92 L1937.55 1157.27 L1939.48 1155.62 L1941.4 1153.98 L1943.33 1152.36 L1945.25 1150.74 L1947.17 1149.15 L1949.1 1147.56 L1951.02 1146 L1952.95 1144.44 L1954.87 1142.91 L1956.79 1141.39 L1958.72 1139.89 L1960.64 1138.41 L1962.57 1136.95 L1964.49 1135.5 L1966.41 1134.08 L1968.34 1132.68 L1970.26 1131.3 L1972.19 1129.94 L1974.11 1128.6 L1976.03 1127.29 L1977.96 1126 L1979.88 1124.73 L1981.81 1123.49 L1983.73 1122.28 L1985.65 1121.09 L1987.58 1119.93 L1989.5 1118.79 L1991.43 1117.69 L1993.35 1116.61 L1995.27 1115.56 L1997.2 1114.54 L1999.12 1113.55 L2001.05 1112.59 L2002.97 1111.66 L2004.9 1110.76 L2006.82 1109.9 L2008.74 1109.06 L2010.67 1108.26 L2012.59 1107.49 L2014.52 1106.75 L2016.44 1106.05 L2018.36 1105.37 L2020.29 1104.74 L2022.21 1104.13 L2024.14 1103.57 L2026.06 1103.03 L2027.98 1102.54 L2029.91 1102.08 L2031.83 1101.65 L2033.76 1101.26 L2035.68 1100.91 L2037.6 1100.6 L2039.53 1100.32 L2041.45 1100.08 L2043.38 1099.87 L2045.3 1099.7 L2047.22 1099.57 L2049.15 1099.48 L2051.07 1099.43 L2053 1099.41 L2054.92 1099.43 L2056.84 1099.49 L2058.77 1099.59 L2060.69 1099.73 L2062.62 1099.9 L2064.54 1100.11 L2066.46 1100.37 L2068.39 1100.66 L2070.31 1100.99 L2072.24 1101.36 L2074.16 1101.76 L2076.08 1102.21 L2078.01 1102.69 L2079.93 1103.22 L2081.86 1103.78 L2083.78 1104.38 L2085.7 1105.02 L2087.63 1105.69 L2089.55 1106.4 L2091.48 1107.15 L2093.4 1107.94 L2095.32 1108.77 L2097.25 1109.63 L2099.17 1110.53 L2101.1 1111.47 L2103.02 1112.44 L2104.94 1113.46 L2106.87 1114.5 L2108.79 1115.59 L2110.72 1116.71 L2112.64 1117.86 L2114.56 1119.06 L2116.49 1120.28 L2118.41 1121.54 L2120.34 1122.84 L2122.26 1124.17 L2124.18 1125.53 L2126.11 1126.93 L2128.03 1128.36 L2129.96 1129.82 L2131.88 1131.32 L2133.8 1132.84 L2135.73 1134.4 L2137.65 1135.99 L2139.58 1137.61 L2141.5 1139.27 L2143.42 1140.95 L2145.35 1142.66 L2147.27 1144.4 L2149.2 1146.17 L2151.12 1147.97 L2153.04 1149.8 L2154.97 1151.65 L2156.89 1153.53 L2158.82 1155.44 L2160.74 1157.37 L2162.66 1159.33 L2164.59 1161.31 L2166.51 1163.32 L2168.44 1165.34 L2170.36 1167.4 L2172.28 1169.47 L2174.21 1171.57 L2176.13 1173.69 L2178.06 1175.83 L2179.98 1177.99 L2181.9 1180.16 L2183.83 1182.36 L2185.75 1184.58 L2187.68 1186.81 L2189.6 1189.06 L2191.52 1191.33 L2193.45 1193.62 L2195.37 1195.92 L2197.3 1198.23 L2199.22 1200.57 L2201.14 1202.91 L2203.07 1205.27 L2204.99 1207.65 L2206.92 1210.03 L2208.84 1212.43 L2210.76 1214.85 L2212.69 1217.27 L2214.61 1219.7 L2216.54 1222.15 L2218.46 1224.61 L2220.38 1227.07 L2222.31 1229.54 L2224.23 1232.03 L2226.16 1234.52 L2228.08 1237.01 L2230 1239.51 L2231.93 1242.01 L2233.85 1244.52 L2235.78 1247.03 L2237.7 1249.54 L2239.62 1252.05 L2241.55 1254.56 L2243.47 1257.06 L2245.4 1259.56 L2247.32 1262.06 L2249.24 1264.56 L2251.17 1267.04 L2253.09 1269.52 L2255.02 1271.99 L2256.94 1274.45 L2258.86 1276.9 L2260.79 1279.33 L2262.71 1281.76 L2264.64 1284.17 L2266.56 1286.58 L2268.48 1288.98 L2270.41 1291.37 L2272.33 1293.75 L2274.26 1296.14 L2276.18 1298.51 L2278.1 1300.89 L2280.03 1303.27 L2281.95 1305.64 L2283.88 1308.02 L2285.8 1310.4 L2287.72 1312.78 L2289.65 1315.17 L2291.57 1317.57 L2293.5 1319.97 L2295.42 1322.39 L2297.34 1324.81 L2297.34 1305.03 L2295.42 1302.44 L2293.5 1299.86 L2291.57 1297.28 L2289.65 1294.72 L2287.72 1292.16 L2285.8 1289.61 L2283.88 1287.07 L2281.95 1284.52 L2280.03 1281.98 L2278.1 1279.44 L2276.18 1276.89 L2274.26 1274.35 L2272.33 1271.8 L2270.41 1269.24 L2268.48 1266.68 L2266.56 1264.11 L2264.64 1261.54 L2262.71 1258.95 L2260.79 1256.36 L2258.86 1253.75 L2256.94 1251.12 L2255.02 1248.49 L2253.09 1245.85 L2251.17 1243.19 L2249.24 1240.53 L2247.32 1237.86 L2245.4 1235.18 L2243.47 1232.5 L2241.55 1229.82 L2239.62 1227.13 L2237.7 1224.44 L2235.78 1221.75 L2233.85 1219.06 L2231.93 1216.37 L2230 1213.69 L2228.08 1211.01 L2226.16 1208.33 L2224.23 1205.67 L2222.31 1203 L2220.38 1200.35 L2218.46 1197.71 L2216.54 1195.07 L2214.61 1192.45 L2212.69 1189.84 L2210.76 1187.24 L2208.84 1184.65 L2206.92 1182.07 L2204.99 1179.51 L2203.07 1176.96 L2201.14 1174.43 L2199.22 1171.91 L2197.3 1169.4 L2195.37 1166.92 L2193.45 1164.45 L2191.52 1161.99 L2189.6 1159.55 L2187.68 1157.13 L2185.75 1154.73 L2183.83 1152.35 L2181.9 1149.99 L2179.98 1147.65 L2178.06 1145.33 L2176.13 1143.03 L2174.21 1140.75 L2172.28 1138.49 L2170.36 1136.26 L2168.44 1134.05 L2166.51 1131.87 L2164.59 1129.71 L2162.66 1127.57 L2160.74 1125.46 L2158.82 1123.38 L2156.89 1121.33 L2154.97 1119.3 L2153.04 1117.31 L2151.12 1115.34 L2149.2 1113.4 L2147.27 1111.49 L2145.35 1109.61 L2143.42 1107.76 L2141.5 1105.95 L2139.58 1104.16 L2137.65 1102.41 L2135.73 1100.7 L2133.8 1099.01 L2131.88 1097.36 L2129.96 1095.74 L2128.03 1094.16 L2126.11 1092.61 L2124.18 1091.1 L2122.26 1089.63 L2120.34 1088.18 L2118.41 1086.78 L2116.49 1085.41 L2114.56 1084.08 L2112.64 1082.79 L2110.72 1081.53 L2108.79 1080.32 L2106.87 1079.14 L2104.94 1078 L2103.02 1076.9 L2101.1 1075.83 L2099.17 1074.81 L2097.25 1073.83 L2095.32 1072.88 L2093.4 1071.98 L2091.48 1071.12 L2089.55 1070.29 L2087.63 1069.51 L2085.7 1068.77 L2083.78 1068.06 L2081.86 1067.4 L2079.93 1066.78 L2078.01 1066.2 L2076.08 1065.66 L2074.16 1065.16 L2072.24 1064.7 L2070.31 1064.29 L2068.39 1063.91 L2066.46 1063.58 L2064.54 1063.29 L2062.62 1063.04 L2060.69 1062.83 L2058.77 1062.66 L2056.84 1062.54 L2054.92 1062.45 L2053 1062.4 L2051.07 1062.4 L2049.15 1062.44 L2047.22 1062.51 L2045.3 1062.63 L2043.38 1062.79 L2041.45 1062.98 L2039.53 1063.22 L2037.6 1063.5 L2035.68 1063.81 L2033.76 1064.17 L2031.83 1064.56 L2029.91 1064.99 L2027.98 1065.46 L2026.06 1065.97 L2024.14 1066.52 L2022.21 1067.11 L2020.29 1067.73 L2018.36 1068.39 L2016.44 1069.09 L2014.52 1069.82 L2012.59 1070.59 L2010.67 1071.39 L2008.74 1072.23 L2006.82 1073.1 L2004.9 1074.01 L2002.97 1074.95 L2001.05 1075.92 L1999.12 1076.92 L1997.2 1077.96 L1995.27 1079.03 L1993.35 1080.13 L1991.43 1081.26 L1989.5 1082.43 L1987.58 1083.62 L1985.65 1084.84 L1983.73 1086.09 L1981.81 1087.37 L1979.88 1088.68 L1977.96 1090.01 L1976.03 1091.37 L1974.11 1092.76 L1972.19 1094.17 L1970.26 1095.6 L1968.34 1097.06 L1966.41 1098.54 L1964.49 1100.05 L1962.57 1101.57 L1960.64 1103.12 L1958.72 1104.68 L1956.79 1106.27 L1954.87 1107.87 L1952.95 1109.5 L1951.02 1111.14 L1949.1 1112.8 L1947.17 1114.48 L1945.25 1116.17 L1943.33 1117.87 L1941.4 1119.6 L1939.48 1121.33 L1937.55 1123.08 L1935.63 1124.83 L1933.71 1126.6 L1931.78 1128.38 L1929.86 1130.17 L1927.93 1131.97 L1926.01 1133.77 L1924.09 1135.58 L1922.16 1137.4 L1920.24 1139.22 L1918.31 1141.05 L1916.39 1142.88 L1914.47 1144.72 L1912.54 1146.55 L1910.62 1148.39 L1908.69 1150.23 L1906.77 1152.07 L1904.85 1153.91 L1902.92 1155.75 L1901 1157.59 L1899.07 1159.42 L1897.15 1161.25 L1895.23 1163.07 L1893.3 1164.89 L1891.38 1166.7 L1889.45 1168.5 L1887.53 1170.3 L1885.61 1172.08 L1883.68 1173.86 L1881.76 1175.63 L1879.83 1177.38 L1877.91 1179.12 L1875.99 1180.86 L1874.06 1182.57 L1872.14 1184.27 L1870.21 1185.96 L1868.29 1187.63 L1866.37 1189.29 L1864.44 1190.93 L1862.52 1192.55 L1860.59 1194.15 L1858.67 1195.73 L1856.75 1197.29 L1854.82 1198.83 L1852.9 1200.35 L1850.97 1201.85 L1849.05 1203.32 L1847.13 1204.77 L1845.2 1206.2 L1843.28 1207.6 L1841.35 1208.97 L1839.43 1210.32 L1837.51 1211.64 L1835.58 1212.94 L1833.66 1214.2 L1831.73 1215.44 L1829.81 1216.64 L1827.89 1217.82 L1825.96 1218.97 L1824.04 1220.08 L1822.11 1221.17 L1820.19 1222.22 L1818.27 1223.24 L1816.34 1224.23 L1814.42 1225.18 L1812.49 1226.1 L1810.57 1226.98 L1808.65 1227.83 L1806.72 1228.65 L1804.8 1229.42 L1802.87 1230.17 L1800.95 1230.87 L1799.03 1231.54 L1797.1 1232.17 L1795.18 1232.76 L1793.25 1233.31 L1791.33 1233.83 L1789.41 1234.3 L1787.48 1234.74 L1785.56 1235.14 L1783.63 1235.49 L1781.71 1235.81 L1779.79 1236.09 L1777.86 1236.33 L1775.94 1236.53 L1774.01 1236.68 L1772.09 1236.8 L1770.17 1236.87 L1768.24 1236.91 L1766.32 1236.9 L1764.39 1236.85 L1762.47 1236.76 L1760.55 1236.63 L1758.62 1236.46 L1756.7 1236.24 L1754.77 1235.99 L1752.85 1235.69 L1750.93 1235.35 L1749 1234.97 L1747.08 1234.54 L1745.15 1234.08 L1743.23 1233.57 L1741.31 1233.03 L1739.38 1232.44 L1737.46 1231.81 L1735.53 1231.14 L1733.61 1230.43 L1731.69 1229.68 L1729.76 1228.9 L1727.84 1228.07 L1725.91 1227.2 L1723.99 1226.29 L1722.07 1225.34 L1720.14 1224.36 L1718.22 1223.33 L1716.29 1222.27 L1714.37 1221.17 L1712.45 1220.03 L1710.52 1218.85 L1708.6 1217.64 L1706.67 1216.39 L1704.75 1215.11 L1702.83 1213.79 L1700.9 1212.43 L1698.98 1211.05 L1697.05 1209.63 L1695.13 1208.17 L1693.21 1206.69 L1691.28 1205.17 L1689.36 1203.62 L1687.43 1202.03 L1685.51 1200.42 L1683.59 1198.78 L1681.66 1197.11 L1679.74 1195.41 L1677.81 1193.68 L1675.89 1191.92 L1673.97 1190.14 L1672.04 1188.33 L1670.12 1186.49 L1668.19 1184.63 L1666.27 1182.75 L1664.35 1180.84 L1662.42 1178.91 L1660.5 1176.96 L1658.57 1174.99 L1656.65 1173 L1654.73 1170.99 L1652.8 1168.97 L1650.88 1166.92 L1648.95 1164.86 L1647.03 1162.78 L1645.11 1160.69 L1643.18 1158.58 L1641.26 1156.46 L1639.33 1154.32 L1637.41 1152.18 L1635.49 1150.02 L1633.56 1147.85 L1631.64 1145.67 L1629.71 1143.49 L1627.79 1141.3 L1625.87 1139.1 L1623.94 1136.9 L1622.02 1134.69 L1620.09 1132.48 L1618.17 1130.26 L1616.25 1128.05 L1614.32 1125.83 L1612.4 1123.62 L1610.47 1121.4 L1608.55 1119.19 L1606.63 1116.98 L1604.7 1114.78 L1602.78 1112.58 L1600.85 1110.38 L1598.93 1108.19 L1597.01 1106.01 L1595.08 1103.84 L1593.16 1101.67 L1591.23 1099.52 L1589.31 1097.38 L1587.39 1095.25 L1585.46 1093.14 L1583.54 1091.04 L1581.61 1088.95 L1579.69 1086.88 L1577.76 1084.83 L1575.84 1082.8 L1573.92 1080.79 L1571.99 1078.79 L1570.07 1076.82 L1568.14 1074.87 L1566.22 1072.94 L1564.3 1071.03 L1562.37 1069.15 L1560.45 1067.29 L1558.52 1065.46 L1556.6 1063.66 L1554.68 1061.88 L1552.75 1060.13 L1550.83 1058.41 L1548.9 1056.73 L1546.98 1055.07 L1545.06 1053.44 L1543.13 1051.85 L1541.21 1050.29 L1539.28 1048.77 L1537.36 1047.28 L1535.44 1045.82 L1533.51 1044.4 L1531.59 1043.02 L1529.66 1041.68 L1527.74 1040.38 L1525.82 1039.11 L1523.89 1037.88 L1521.97 1036.7 L1520.04 1035.55 L1518.12 1034.45 L1516.2 1033.39 L1514.27 1032.37 L1512.35 1031.39 L1510.42 1030.46 L1508.5 1029.57 L1506.58 1028.73 L1504.65 1027.93 L1502.73 1027.18 L1500.8 1026.47 L1498.88 1025.81 L1496.96 1025.2 L1495.03 1024.63 L1493.11 1024.11 L1491.18 1023.64 L1489.26 1023.22 L1487.34 1022.85 L1485.41 1022.52 L1483.49 1022.25 L1481.56 1022.02 L1479.64 1021.85 L1477.72 1021.72 L1475.79 1021.65 L1473.87 1021.62 L1471.94 1021.64 L1470.02 1021.72 L1468.1 1021.84 L1466.17 1022.01 L1464.25 1022.24 L1462.32 1022.51 L1460.4 1022.83 L1458.48 1023.21 L1456.55 1023.63 L1454.63 1024.11 L1452.7 1024.63 L1450.78 1025.21 L1448.86 1025.84 L1446.93 1026.51 L1445.01 1027.24 L1443.08 1028.01 L1441.16 1028.84 L1439.24 1029.71 L1437.31 1030.63 L1435.39 1031.6 L1433.46 1032.62 L1431.54 1033.68 L1429.62 1034.79 L1427.69 1035.95 L1425.77 1037.15 L1423.84 1038.4 L1421.92 1039.69 L1420 1041.03 L1418.07 1042.41 L1416.15 1043.83 L1414.22 1045.3 L1412.3 1046.81 L1410.38 1048.36 L1408.45 1049.96 L1406.53 1051.59 L1404.6 1053.27 L1402.68 1054.98 L1400.76 1056.73 L1398.83 1058.52 L1396.91 1060.35 L1394.98 1062.21 L1393.06 1064.11 L1391.14 1066.03 L1389.21 1068 L1387.29 1069.99 L1385.36 1072.01 L1383.44 1074.07 L1381.52 1076.15 L1379.59 1078.26 L1377.67 1080.4 L1375.74 1082.57 L1373.82 1084.76 L1371.9 1086.98 L1369.97 1089.23 L1368.05 1091.49 L1366.12 1093.78 L1364.2 1096.08 L1362.28 1098.41 L1360.35 1100.75 L1358.43 1103.11 L1356.5 1105.48 L1354.58 1107.87 L1352.66 1110.27 L1350.73 1112.68 L1348.81 1115.09 L1346.88 1117.52 L1344.96 1119.96 L1343.04 1122.4 L1341.11 1124.85 L1339.19 1127.3 L1337.26 1129.75 L1335.34 1132.21 L1333.42 1134.66 L1331.49 1137.12 L1329.57 1139.57 L1327.64 1142.02 L1325.72 1144.47 L1323.8 1146.9 L1321.87 1149.33 L1319.95 1151.74 L1318.02 1154.15 L1316.1 1156.54 L1314.18 1158.92 L1312.25 1161.28 L1310.33 1163.62 L1308.4 1165.94 L1306.48 1168.24 L1304.56 1170.52 L1302.63 1172.78 L1300.71 1175.01 L1298.78 1177.22 L1296.86 1179.4 L1294.94 1181.55 L1293.01 1183.68 L1291.09 1185.77 L1289.16 1187.83 L1287.24 1189.85 L1285.32 1191.83 L1283.39 1193.78 L1281.47 1195.69 L1279.54 1197.56 L1277.62 1199.38 L1275.7 1201.16 L1273.77 1202.9 L1271.85 1204.58 L1269.92 1206.22 L1268 1207.81 L1266.08 1209.35 L1264.15 1210.84 L1262.23 1212.27 L1260.3 1213.65 L1258.38 1214.97 L1256.46 1216.23 L1254.53 1217.44 L1252.61 1218.58 L1250.68 1219.67 L1248.76 1220.69 L1246.84 1221.64 L1244.91 1222.53 L1242.99 1223.35 L1241.06 1224.11 L1239.14 1224.79 L1237.22 1225.4 L1235.29 1225.94 L1233.37 1226.41 L1231.44 1226.8 L1229.52 1227.12 L1227.6 1227.36 L1225.67 1227.52 L1223.75 1227.6 L1221.82 1227.6 L1219.9 1227.52 L1217.98 1227.36 L1216.05 1227.12 L1214.13 1226.79 L1212.2 1226.38 L1210.28 1225.88 L1208.36 1225.29 L1206.43 1224.62 L1204.51 1223.86 L1202.58 1223 L1200.66 1222.06 L1198.74 1221.03 L1196.81 1219.9 L1194.89 1218.68 L1192.96 1217.37 L1191.04 1215.96 L1189.12 1214.45 L1187.19 1212.86 L1185.27 1211.16 L1183.34 1209.37 L1181.42 1207.48 L1179.5 1205.49 L1177.57 1203.41 L1175.65 1201.23 L1173.72 1198.94 L1171.8 1196.56 L1169.88 1194.08 L1167.95 1191.5 L1166.03 1188.82 L1164.1 1186.03 L1162.18 1183.15 L1160.25 1180.16 L1158.33 1177.08 L1156.41 1173.89 L1154.48 1170.6 L1152.56 1167.21 L1150.63 1163.71 L1148.71 1160.12 L1146.79 1156.42 L1144.86 1152.62 L1142.94 1148.72 L1141.01 1144.72 L1139.09 1140.62 L1137.17 1136.41 L1135.24 1132.11 L1133.32 1127.7 L1131.39 1123.2 L1129.47 1118.59 L1127.55 1113.89 L1125.62 1109.09 L1123.7 1104.18 L1121.77 1099.18 L1119.85 1094.09 L1117.93 1088.9 L1116 1083.61 L1114.08 1078.22 L1112.15 1072.74 L1110.23 1067.17 L1108.31 1061.5 L1106.38 1055.74 L1104.46 1049.89 L1102.53 1043.94 L1100.61 1037.91 L1098.69 1031.78 L1096.76 1025.57 L1094.84 1019.27 L1092.91 1012.88 L1090.99 1006.41 L1089.07 999.858 L1087.14 993.22 L1085.22 986.5 L1083.29 979.7 L1081.37 972.821 L1079.45 965.864 L1077.52 958.83 L1075.6 951.72 L1073.67 944.536 L1071.75 937.279 L1069.83 929.95 L1067.9 922.55 L1065.98 915.081 L1064.05 907.544 L1062.13 899.941 L1060.21 892.273 L1058.28 884.543 L1056.36 876.752 L1054.43 868.901 L1052.51 860.993 L1050.59 853.029 L1048.66 845.012 L1046.74 836.942 L1044.81 828.822 L1042.89 820.653 L1040.97 812.438 L1039.04 804.177 L1037.12 795.873 L1035.19 787.528 L1033.27 779.142 L1031.35 770.719 L1029.42 762.259 L1027.5 753.764 L1025.57 745.237 L1023.65 736.679 L1021.73 728.093 L1019.8 719.48 L1017.88 710.844 L1015.95 702.186 L1014.03 693.509 L1012.11 684.815 L1010.18 676.105 L1008.26 667.383 L1006.33 658.65 L1004.41 649.908 L1002.49 641.16 L1000.56 632.407 L998.638 623.652 L996.714 614.897 L994.79 606.143 L992.866 597.394 L990.942 588.65 L989.018 579.914 L987.094 571.187 L985.17 562.474 L983.246 553.775 L981.322 545.093 L979.398 536.431 L977.474 527.791 L975.55 519.175 L973.626 510.586 L971.702 502.027 L969.778 493.498 L967.854 485.004 L965.93 476.545 L964.006 468.124 L962.082 459.743 L960.158 451.405 L958.234 443.112 L956.31 434.864 L954.386 426.666 L952.462 418.518 L950.538 410.422 L948.614 402.382 L946.69 394.398 L944.766 386.473 L942.842 378.611 L940.918 370.812 L938.994 363.08 L937.07 355.416 L935.146 347.822 L933.222 340.302 L931.298 332.856 L929.374 325.487 L927.45 318.198 L925.526 310.989 L923.602 303.863 L921.678 296.821 L919.754 289.867 L917.83 283.001 L915.906 276.225 L913.982 269.541 L912.058 262.951 L910.134 256.456 L908.21 250.059 L906.286 243.761 L904.362 237.565 L902.438 231.471 L900.514 225.483 L898.59 219.601 L896.666 213.827 L894.742 208.164 L892.818 202.612 L890.894 197.174 L888.97 191.85 L887.046 186.643 L885.122 181.553 L883.198 176.583 L881.274 171.733 L879.35 167.005 L877.426 162.4 L875.502 157.92 L873.578 153.566 L871.654 149.338 L869.73 145.238 L867.806 141.267 L865.882 137.427 L863.958 133.719 L862.034 130.143 L860.11 126.701 L858.186 123.394 L856.262 120.222 L854.338 117.187 L852.414 114.289 L850.49 111.53 L848.566 108.91 L846.641 106.43 L844.717 104.091 L842.793 101.892 L840.869 99.8357 L838.945 97.9217 L837.021 96.1507 L835.097 94.5233 L833.173 93.0398 L831.249 91.7006 L829.325 90.5061 L827.401 89.4566 L825.477 88.5523 L823.553 87.7934 L821.629 87.1802 L819.705 86.7127 L817.781 86.391 L815.857 86.2154 L813.933 86.1857 L812.009 86.302 L810.085 86.5643 L808.161 86.9725 L806.237 87.5266 L804.313 88.2263 L802.389 89.0716 L800.465 90.0623 L798.541 91.1982 L796.617 92.4789 L794.693 93.9042 L792.769 95.4735 L790.845 97.1862 L788.921 99.0416 L786.997 101.039 L785.073 103.178 L783.149 105.458 L781.225 107.878 L779.301 110.437 L777.377 113.134 L775.453 115.969 L773.529 118.942 L771.605 122.05 L769.681 125.293 L767.757 128.672 L765.833 132.183 L763.909 135.828 L761.985 139.604 L760.061 143.511 L758.137 147.548 L756.213 151.714 L754.289 156.007 L752.365 160.426 L750.441 164.969 L748.517 169.635 L746.593 174.422 L744.669 179.328 L742.745 184.352 L740.821 189.493 L738.897 194.748 L736.973 200.117 L735.049 205.597 L733.125 211.187 L731.201 216.886 L729.277 222.692 L727.353 228.604 L725.429 234.62 L723.505 240.738 L721.581 246.958 L719.657 253.277 L717.733 259.695 L715.809 266.208 L713.885 272.816 L711.961 279.515 L710.037 286.305 L708.113 293.182 L706.189 300.146 L704.265 307.193 L702.341 314.323 L700.417 321.533 L698.493 328.821 L696.569 336.186 L694.645 343.626 L692.721 351.14 L690.797 358.724 L688.873 366.379 L686.949 374.102 L685.025 381.891 L683.101 389.745 L681.177 397.663 L679.253 405.642 L677.329 413.679 L675.405 421.772 L673.481 429.917 L671.557 438.11 L669.633 446.35 L667.709 454.632 L665.785 462.955 L663.861 471.316 L661.937 479.712 L660.013 488.141 L658.089 496.6 L656.165 505.088 L654.241 513.602 L652.317 522.14 L650.393 530.7 L648.469 539.281 L646.545 547.88 L644.621 556.496 L642.697 565.128 L640.773 573.774 L638.849 582.432 L636.924 591.103 L635 599.785 L633.076 608.478 L631.152 617.182 L629.228 625.894 L627.304 634.616 L625.38 643.346 L623.456 652.084 L621.532 660.829 L619.608 669.581 L617.684 678.34 L615.76 687.104 L613.836 695.875 L611.912 704.651 L609.988 713.432 L608.064 722.218 L606.14 731.009 L604.216 739.803 L602.292 748.601 L600.368 757.393 L598.444 766.17 L596.52 774.923 L594.596 783.646 L592.672 792.33 L590.748 800.968 L588.824 809.555 L586.9 818.085 L584.976 826.554 L583.052 834.955 L581.128 843.287 L579.204 851.544 L577.28 859.724 L575.356 867.826 L573.432 875.845 L571.508 883.782 L569.584 891.635 L567.66 899.403 L565.736 907.086 L563.812 914.685 L561.888 922.214 L559.964 929.684 L558.04 937.108 L556.116 944.497 L554.192 951.864 L552.268 959.217 L550.344 966.566 L548.42 973.922 L546.496 981.292 L544.572 988.684 L542.648 996.106 L540.724 1003.56 L538.8 1011.06 L536.876 1018.61 L534.952 1026.22 L533.028 1033.88 L531.104 1041.6 L529.18 1049.39 L527.256 1057.25 L525.332 1065.17 L523.408 1073.11 L521.484 1081.02 L519.56 1088.87 L517.636 1096.6 L515.712 1104.2 L513.788 1111.62 L511.864 1118.85 L509.94 1125.87 L508.016 1132.65 L506.092 1139.18 L504.168 1145.46 L502.244 1151.47 L500.32 1157.22 L498.396 1162.7 L496.472 1167.91 L494.548 1172.86 L492.624 1177.57 L490.7 1182.03 L488.776 1186.26 L486.852 1190.28 L484.928 1194.17 L483.004 1197.98 L481.08 1201.78 L479.156 1205.64 L477.232 1209.59 L475.308 1213.69 L473.384 1217.99 L471.46 1222.51 L469.536 1227.29 L467.612 1232.36 L465.688 1237.74 L463.764 1243.45 L461.84 1249.51 L459.916 1255.92 L457.992 1262.7 L456.068 1269.84 L454.144 1277.34 L452.22 1285.21 L450.296 1293.44  Z" fill="#009af9" fill-rule="evenodd" fill-opacity="0.5"/>
<polyline clip-path="url(#clip771)" style="stroke:#009af9; stroke-linecap:round; stroke-linejoin:round; stroke-width:4; stroke-opacity:1; fill:none" points="450.296,1338.84 452.22,1331.24 454.144,1323.95 456.068,1316.96 457.992,1310.29 459.916,1303.93 461.84,1297.89 463.764,1292.15 465.688,1286.72 467.612,1281.57 469.536,1276.7 471.46,1272.07 473.384,1267.68 475.308,1263.5 477.232,1259.48 479.156,1255.59 481.08,1251.8 483.004,1248.05 484.928,1244.3 486.852,1240.49 488.776,1236.55 490.7,1232.44 492.624,1228.12 494.548,1223.58 496.472,1218.83 498.396,1213.84 500.32,1208.62 502.244,1203.15 504.168,1197.45 506.092,1191.51 508.016,1185.34 509.94,1178.95 511.864,1172.34 513.788,1165.54 515.712,1158.56 517.636,1151.42 519.56,1144.16 521.484,1136.79 523.408,1129.36 525.332,1121.9 527.256,1114.46 529.18,1107.07 531.104,1099.74 533.028,1092.46 534.952,1085.24 536.876,1078.06 538.8,1070.94 540.724,1063.85 542.648,1056.8 544.572,1049.78 546.496,1042.78 548.42,1035.81 550.344,1028.84 552.268,1021.88 554.192,1014.91 556.116,1007.92 558.04,1000.92 559.964,993.88 561.888,986.797 563.812,979.658 565.736,972.453 567.66,965.17 569.584,957.808 571.508,950.366 573.432,942.846 575.356,935.248 577.28,927.573 579.204,919.824 581.128,912.002 583.052,904.11 584.976,896.152 586.9,888.131 588.824,880.05 590.748,871.915 592.672,863.731 594.596,855.503 596.52,847.237 598.444,838.941 600.368,830.62 602.292,822.284 604.216,813.94 606.14,805.597 608.064,797.255 609.988,788.915 611.912,780.577 613.836,772.242 615.76,763.91 617.684,755.581 619.608,747.256 621.532,738.935 623.456,730.618 625.38,722.305 627.304,713.999 629.228,705.698 631.152,697.403 633.076,689.115 635,680.835 636.924,672.563 638.849,664.299 640.773,656.046 642.697,647.802 644.621,639.57 646.545,631.35 648.469,623.145 650.393,614.955 652.317,606.782 654.241,598.628 656.165,590.495 658.089,582.385 660.013,574.299 661.937,566.241 663.861,558.211 665.785,550.213 667.709,542.248 669.633,534.319 671.557,526.429 673.481,518.58 675.405,510.776 677.329,503.018 679.253,495.31 681.177,487.656 683.101,480.057 685.025,472.516 686.949,465.034 688.873,457.613 690.797,450.255 692.721,442.96 694.645,435.731 696.569,428.569 698.493,421.475 700.417,414.453 702.341,407.502 704.265,400.625 706.189,393.825 708.113,387.101 710.037,380.458 711.961,373.895 713.885,367.416 715.809,361.021 717.733,354.714 719.657,348.496 721.581,342.369 723.505,336.334 725.429,330.393 727.353,324.548 729.277,318.799 731.201,313.149 733.125,307.598 735.049,302.149 736.973,296.802 738.897,291.559 740.821,286.422 742.745,281.392 744.669,276.471 746.593,271.659 748.517,266.96 750.441,262.373 752.365,257.901 754.289,253.545 756.213,249.307 758.137,245.189 760.061,241.191 761.985,237.314 763.909,233.561 765.833,229.931 767.757,226.426 769.681,223.046 771.605,219.792 773.529,216.666 775.453,213.667 777.377,210.798 779.301,208.057 781.225,205.448 783.149,202.969 785.073,200.622 786.997,198.407 788.921,196.326 790.845,194.379 792.769,192.566 794.693,190.888 796.617,189.347 798.541,187.942 800.465,186.673 802.389,185.542 804.313,184.548 806.237,183.691 808.161,182.972 810.085,182.391 812.009,181.948 813.933,181.644 815.857,181.477 817.781,181.449 819.705,181.558 821.629,181.806 823.553,182.192 825.477,182.717 827.401,183.378 829.325,184.178 831.249,185.115 833.173,186.19 835.097,187.401 837.021,188.75 838.945,190.234 840.869,191.855 842.793,193.61 844.717,195.501 846.641,197.526 848.566,199.685 850.49,201.977 852.414,204.401 854.338,206.957 856.262,209.644 858.186,212.461 860.11,215.407 862.034,218.482 863.958,221.684 865.882,225.013 867.806,228.468 869.73,232.047 871.654,235.75 873.578,239.575 875.502,243.521 877.426,247.587 879.35,251.772 881.274,256.075 883.198,260.494 885.122,265.029 887.046,269.678 888.97,274.44 890.894,279.314 892.818,284.297 894.742,289.389 896.666,294.588 898.59,299.893 900.514,305.302 902.438,310.814 904.362,316.426 906.286,322.138 908.21,327.947 910.134,333.851 912.058,339.85 913.982,345.94 915.906,352.121 917.83,358.39 919.754,364.747 921.678,371.189 923.602,377.715 925.526,384.323 927.45,391.011 929.374,397.777 931.298,404.62 933.222,411.537 935.146,418.527 937.07,425.588 938.994,432.717 940.918,439.913 942.842,447.173 944.766,454.496 946.69,461.879 948.614,469.32 950.538,476.817 952.462,484.367 954.386,491.969 956.31,499.621 958.234,507.32 960.158,515.066 962.082,522.855 964.006,530.686 965.93,538.558 967.854,546.467 969.778,554.411 971.702,562.39 973.626,570.4 975.55,578.439 977.474,586.505 979.398,594.597 981.322,602.711 983.246,610.845 985.17,618.998 987.094,627.166 989.018,635.348 990.942,643.541 992.866,651.743 994.79,659.952 996.714,668.166 998.638,676.384 1000.56,684.604 1002.49,692.822 1004.41,701.039 1006.33,709.25 1008.26,717.456 1010.18,725.652 1012.11,733.838 1014.03,742.011 1015.95,750.17 1017.88,758.312 1019.8,766.435 1021.73,774.536 1023.65,782.615 1025.57,790.668 1027.5,798.694 1029.42,806.69 1031.35,814.654 1033.27,822.586 1035.19,830.483 1037.12,838.343 1039.04,846.166 1040.97,853.948 1042.89,861.69 1044.81,869.388 1046.74,877.041 1048.66,884.648 1050.59,892.207 1052.51,899.716 1054.43,907.173 1056.36,914.577 1058.28,921.926 1060.21,929.218 1062.13,936.452 1064.05,943.626 1065.98,950.739 1067.9,957.788 1069.83,964.772 1071.75,971.69 1073.67,978.541 1075.6,985.324 1077.52,992.037 1079.45,998.679 1081.37,1005.25 1083.29,1011.75 1085.22,1018.17 1087.14,1024.52 1089.07,1030.79 1090.99,1036.98 1092.91,1043.1 1094.84,1049.13 1096.76,1055.08 1098.69,1060.96 1100.61,1066.74 1102.53,1072.45 1104.46,1078.07 1106.38,1083.6 1108.31,1089.05 1110.23,1094.4 1112.15,1099.67 1114.08,1104.85 1116,1109.95 1117.93,1114.95 1119.85,1119.86 1121.77,1124.68 1123.7,1129.4 1125.62,1134.04 1127.55,1138.58 1129.47,1143.03 1131.39,1147.38 1133.32,1151.64 1135.24,1155.81 1137.17,1159.88 1139.09,1163.86 1141.01,1167.74 1142.94,1171.52 1144.86,1175.21 1146.79,1178.8 1148.71,1182.3 1150.63,1185.69 1152.56,1189 1154.48,1192.2 1156.41,1195.31 1158.33,1198.32 1160.25,1201.24 1162.18,1204.06 1164.1,1206.79 1166.03,1209.41 1167.95,1211.95 1169.88,1214.38 1171.8,1216.73 1173.72,1218.97 1175.65,1221.13 1177.57,1223.19 1179.5,1225.15 1181.42,1227.02 1183.34,1228.8 1185.27,1230.49 1187.19,1232.08 1189.12,1233.59 1191.04,1235 1192.96,1236.32 1194.89,1237.55 1196.81,1238.69 1198.74,1239.75 1200.66,1240.72 1202.58,1241.59 1204.51,1242.39 1206.43,1243.09 1208.36,1243.72 1210.28,1244.26 1212.2,1244.71 1214.13,1245.09 1216.05,1245.38 1217.98,1245.59 1219.9,1245.73 1221.82,1245.78 1223.75,1245.76 1225.67,1245.66 1227.6,1245.49 1229.52,1245.24 1231.44,1244.92 1233.37,1244.53 1235.29,1244.06 1237.22,1243.53 1239.14,1242.92 1241.06,1242.25 1242.99,1241.51 1244.91,1240.71 1246.84,1239.84 1248.76,1238.91 1250.68,1237.91 1252.61,1236.86 1254.53,1235.74 1256.46,1234.57 1258.38,1233.35 1260.3,1232.06 1262.23,1230.73 1264.15,1229.34 1266.08,1227.9 1268,1226.41 1269.92,1224.88 1271.85,1223.29 1273.77,1221.66 1275.7,1219.98 1277.62,1218.26 1279.54,1216.5 1281.47,1214.69 1283.39,1212.85 1285.32,1210.97 1287.24,1209.05 1289.16,1207.1 1291.09,1205.11 1293.01,1203.09 1294.94,1201.04 1296.86,1198.96 1298.78,1196.86 1300.71,1194.73 1302.63,1192.57 1304.56,1190.39 1306.48,1188.19 1308.4,1185.97 1310.33,1183.73 1312.25,1181.47 1314.18,1179.19 1316.1,1176.9 1318.02,1174.59 1319.95,1172.27 1321.87,1169.94 1323.8,1167.59 1325.72,1165.24 1327.64,1162.89 1329.57,1160.52 1331.49,1158.15 1333.42,1155.78 1335.34,1153.41 1337.26,1151.04 1339.19,1148.67 1341.11,1146.3 1343.04,1143.94 1344.96,1141.58 1346.88,1139.23 1348.81,1136.88 1350.73,1134.55 1352.66,1132.22 1354.58,1129.9 1356.5,1127.6 1358.43,1125.3 1360.35,1123.02 1362.28,1120.76 1364.2,1118.51 1366.12,1116.28 1368.05,1114.07 1369.97,1111.88 1371.9,1109.71 1373.82,1107.57 1375.74,1105.44 1377.67,1103.35 1379.59,1101.27 1381.52,1099.23 1383.44,1097.21 1385.36,1095.22 1387.29,1093.26 1389.21,1091.33 1391.14,1089.43 1393.06,1087.56 1394.98,1085.72 1396.91,1083.92 1398.83,1082.15 1400.76,1080.41 1402.68,1078.71 1404.6,1077.04 1406.53,1075.42 1408.45,1073.83 1410.38,1072.28 1412.3,1070.77 1414.22,1069.3 1416.15,1067.87 1418.07,1066.48 1420,1065.14 1421.92,1063.83 1423.84,1062.57 1425.77,1061.36 1427.69,1060.18 1429.62,1059.05 1431.54,1057.97 1433.46,1056.93 1435.39,1055.93 1437.31,1054.98 1439.24,1054.07 1441.16,1053.22 1443.08,1052.4 1445.01,1051.64 1446.93,1050.92 1448.86,1050.25 1450.78,1049.63 1452.7,1049.05 1454.63,1048.53 1456.55,1048.05 1458.48,1047.62 1460.4,1047.24 1462.32,1046.91 1464.25,1046.63 1466.17,1046.39 1468.1,1046.21 1470.02,1046.07 1471.94,1045.98 1473.87,1045.94 1475.79,1045.94 1477.72,1045.99 1479.64,1046.09 1481.56,1046.24 1483.49,1046.44 1485.41,1046.68 1487.34,1046.97 1489.26,1047.31 1491.18,1047.7 1493.11,1048.13 1495.03,1048.61 1496.96,1049.13 1498.88,1049.7 1500.8,1050.32 1502.73,1050.98 1504.65,1051.68 1506.58,1052.43 1508.5,1053.22 1510.42,1054.05 1512.35,1054.93 1514.27,1055.85 1516.2,1056.81 1518.12,1057.81 1520.04,1058.85 1521.97,1059.93 1523.89,1061.05 1525.82,1062.21 1527.74,1063.41 1529.66,1064.64 1531.59,1065.91 1533.51,1067.22 1535.44,1068.57 1537.36,1069.95 1539.28,1071.36 1541.21,1072.81 1543.13,1074.29 1545.06,1075.8 1546.98,1077.35 1548.9,1078.92 1550.83,1080.53 1552.75,1082.16 1554.68,1083.82 1556.6,1085.51 1558.52,1087.23 1560.45,1088.97 1562.37,1090.74 1564.3,1092.53 1566.22,1094.35 1568.14,1096.19 1570.07,1098.05 1571.99,1099.93 1573.92,1101.83 1575.84,1103.75 1577.76,1105.69 1579.69,1107.65 1581.61,1109.62 1583.54,1111.61 1585.46,1113.61 1587.39,1115.63 1589.31,1117.66 1591.23,1119.71 1593.16,1121.76 1595.08,1123.83 1597.01,1125.9 1598.93,1127.99 1600.85,1130.08 1602.78,1132.17 1604.7,1134.28 1606.63,1136.38 1608.55,1138.49 1610.47,1140.61 1612.4,1142.72 1614.32,1144.84 1616.25,1146.96 1618.17,1149.08 1620.09,1151.19 1622.02,1153.31 1623.94,1155.42 1625.87,1157.52 1627.79,1159.62 1629.71,1161.72 1631.64,1163.81 1633.56,1165.89 1635.49,1167.96 1637.41,1170.03 1639.33,1172.08 1641.26,1174.12 1643.18,1176.15 1645.11,1178.17 1647.03,1180.17 1648.95,1182.16 1650.88,1184.13 1652.8,1186.09 1654.73,1188.03 1656.65,1189.95 1658.57,1191.85 1660.5,1193.74 1662.42,1195.6 1664.35,1197.45 1666.27,1199.27 1668.19,1201.07 1670.12,1202.85 1672.04,1204.61 1673.97,1206.34 1675.89,1208.04 1677.81,1209.73 1679.74,1211.38 1681.66,1213.01 1683.59,1214.61 1685.51,1216.18 1687.43,1217.72 1689.36,1219.23 1691.28,1220.71 1693.21,1222.17 1695.13,1223.59 1697.05,1224.98 1698.98,1226.33 1700.9,1227.66 1702.83,1228.95 1704.75,1230.21 1706.67,1231.44 1708.6,1232.63 1710.52,1233.79 1712.45,1234.91 1714.37,1236 1716.29,1237.05 1718.22,1238.07 1720.14,1239.05 1722.07,1239.99 1723.99,1240.89 1725.91,1241.75 1727.84,1242.58 1729.76,1243.37 1731.69,1244.12 1733.61,1244.83 1735.53,1245.5 1737.46,1246.14 1739.38,1246.73 1741.31,1247.29 1743.23,1247.81 1745.15,1248.28 1747.08,1248.72 1749,1249.12 1750.93,1249.48 1752.85,1249.8 1754.77,1250.08 1756.7,1250.32 1758.62,1250.51 1760.55,1250.67 1762.47,1250.79 1764.39,1250.87 1766.32,1250.9 1768.24,1250.9 1770.17,1250.86 1772.09,1250.78 1774.01,1250.65 1775.94,1250.49 1777.86,1250.29 1779.79,1250.05 1781.71,1249.78 1783.63,1249.46 1785.56,1249.11 1787.48,1248.72 1789.41,1248.29 1791.33,1247.82 1793.25,1247.31 1795.18,1246.77 1797.1,1246.19 1799.03,1245.57 1800.95,1244.92 1802.87,1244.23 1804.8,1243.51 1806.72,1242.75 1808.65,1241.95 1810.57,1241.12 1812.49,1240.26 1814.42,1239.37 1816.34,1238.44 1818.27,1237.48 1820.19,1236.48 1822.11,1235.46 1824.04,1234.41 1825.96,1233.32 1827.89,1232.2 1829.81,1231.06 1831.73,1229.88 1833.66,1228.68 1835.58,1227.45 1837.51,1226.19 1839.43,1224.91 1841.35,1223.6 1843.28,1222.26 1845.2,1220.9 1847.13,1219.52 1849.05,1218.11 1850.97,1216.68 1852.9,1215.22 1854.82,1213.75 1856.75,1212.25 1858.67,1210.73 1860.59,1209.2 1862.52,1207.64 1864.44,1206.07 1866.37,1204.48 1868.29,1202.87 1870.21,1201.25 1872.14,1199.61 1874.06,1197.96 1875.99,1196.29 1877.91,1194.61 1879.83,1192.92 1881.76,1191.21 1883.68,1189.5 1885.61,1187.77 1887.53,1186.04 1889.45,1184.3 1891.38,1182.54 1893.3,1180.79 1895.23,1179.02 1897.15,1177.25 1899.07,1175.48 1901,1173.7 1902.92,1171.91 1904.85,1170.13 1906.77,1168.34 1908.69,1166.56 1910.62,1164.77 1912.54,1162.98 1914.47,1161.2 1916.39,1159.41 1918.31,1157.63 1920.24,1155.86 1922.16,1154.09 1924.09,1152.32 1926.01,1150.56 1927.93,1148.81 1929.86,1147.06 1931.78,1145.33 1933.71,1143.6 1935.63,1141.88 1937.55,1140.17 1939.48,1138.47 1941.4,1136.79 1943.33,1135.12 1945.25,1133.46 1947.17,1131.81 1949.1,1130.18 1951.02,1128.57 1952.95,1126.97 1954.87,1125.39 1956.79,1123.83 1958.72,1122.29 1960.64,1120.76 1962.57,1119.26 1964.49,1117.77 1966.41,1116.31 1968.34,1114.87 1970.26,1113.45 1972.19,1112.05 1974.11,1110.68 1976.03,1109.33 1977.96,1108 1979.88,1106.7 1981.81,1105.43 1983.73,1104.18 1985.65,1102.96 1987.58,1101.77 1989.5,1100.61 1991.43,1099.47 1993.35,1098.37 1995.27,1097.3 1997.2,1096.25 1999.12,1095.24 2001.05,1094.26 2002.97,1093.3 2004.9,1092.39 2006.82,1091.5 2008.74,1090.65 2010.67,1089.82 2012.59,1089.04 2014.52,1088.28 2016.44,1087.57 2018.36,1086.88 2020.29,1086.23 2022.21,1085.62 2024.14,1085.04 2026.06,1084.5 2027.98,1084 2029.91,1083.53 2031.83,1083.11 2033.76,1082.71 2035.68,1082.36 2037.6,1082.05 2039.53,1081.77 2041.45,1081.53 2043.38,1081.33 2045.3,1081.17 2047.22,1081.04 2049.15,1080.96 2051.07,1080.91 2053,1080.91 2054.92,1080.94 2056.84,1081.01 2058.77,1081.13 2060.69,1081.28 2062.62,1081.47 2064.54,1081.7 2066.46,1081.97 2068.39,1082.28 2070.31,1082.64 2072.24,1083.03 2074.16,1083.46 2076.08,1083.93 2078.01,1084.45 2079.93,1085 2081.86,1085.59 2083.78,1086.22 2085.7,1086.89 2087.63,1087.6 2089.55,1088.35 2091.48,1089.14 2093.4,1089.96 2095.32,1090.83 2097.25,1091.73 2099.17,1092.67 2101.1,1093.65 2103.02,1094.67 2104.94,1095.73 2106.87,1096.82 2108.79,1097.95 2110.72,1099.12 2112.64,1100.33 2114.56,1101.57 2116.49,1102.85 2118.41,1104.16 2120.34,1105.51 2122.26,1106.9 2124.18,1108.32 2126.11,1109.77 2128.03,1111.26 2129.96,1112.78 2131.88,1114.34 2133.8,1115.93 2135.73,1117.55 2137.65,1119.2 2139.58,1120.89 2141.5,1122.61 2143.42,1124.36 2145.35,1126.13 2147.27,1127.94 2149.2,1129.78 2151.12,1131.65 2153.04,1133.55 2154.97,1135.48 2156.89,1137.43 2158.82,1139.41 2160.74,1141.42 2162.66,1143.45 2164.59,1145.51 2166.51,1147.59 2168.44,1149.7 2170.36,1151.83 2172.28,1153.98 2174.21,1156.16 2176.13,1158.36 2178.06,1160.58 2179.98,1162.82 2181.9,1165.08 2183.83,1167.36 2185.75,1169.66 2187.68,1171.97 2189.6,1174.31 2191.52,1176.66 2193.45,1179.03 2195.37,1181.42 2197.3,1183.82 2199.22,1186.24 2201.14,1188.67 2203.07,1191.12 2204.99,1193.58 2206.92,1196.05 2208.84,1198.54 2210.76,1201.04 2212.69,1203.55 2214.61,1206.08 2216.54,1208.61 2218.46,1211.16 2220.38,1213.71 2222.31,1216.27 2224.23,1218.85 2226.16,1221.42 2228.08,1224.01 2230,1226.6 2231.93,1229.19 2233.85,1231.79 2235.78,1234.39 2237.7,1236.99 2239.62,1239.59 2241.55,1242.19 2243.47,1244.78 2245.4,1247.37 2247.32,1249.96 2249.24,1252.54 2251.17,1255.12 2253.09,1257.68 2255.02,1260.24 2256.94,1262.79 2258.86,1265.32 2260.79,1267.84 2262.71,1270.35 2264.64,1272.86 2266.56,1275.35 2268.48,1277.83 2270.41,1280.31 2272.33,1282.78 2274.26,1285.24 2276.18,1287.7 2278.1,1290.16 2280.03,1292.62 2281.95,1295.08 2283.88,1297.54 2285.8,1300.01 2287.72,1302.47 2289.65,1304.95 2291.57,1307.43 2293.5,1309.92 2295.42,1312.41 2297.34,1314.92 "/>
<path clip-path="url(#clip770)" d="M1907.68 196.789 L2287.49 196.789 L2287.49 93.1086 L1907.68 93.1086  Z" fill="#ffffff" fill-rule="evenodd" fill-opacity="1"/>
<polyline clip-path="url(#clip770)" style="stroke:#000000; stroke-linecap:round; stroke-linejoin:round; stroke-width:4; stroke-opacity:1; fill:none" points="1907.68,196.789 2287.49,196.789 2287.49,93.1086 1907.68,93.1086 1907.68,196.789 "/>
<polyline clip-path="url(#clip770)" style="stroke:#009af9; stroke-linecap:round; stroke-linejoin:round; stroke-width:4; stroke-opacity:1; fill:none" points="1929.43,144.949 2059.96,144.949 "/>
<path clip-path="url(#clip770)" d="M2086.39 131.511 L2086.39 158.386 L2092.04 158.386 Q2099.19 158.386 2102.5 155.145 Q2105.83 151.905 2105.83 144.914 Q2105.83 137.969 2102.5 134.752 Q2099.19 131.511 2092.04 131.511 L2086.39 131.511 M2081.71 127.669 L2091.32 127.669 Q2101.37 127.669 2106.06 131.858 Q2110.76 136.025 2110.76 144.914 Q2110.76 153.849 2106.04 158.039 Q2101.32 162.229 2091.32 162.229 L2081.71 162.229 L2081.71 127.669 Z" fill="#000000" fill-rule="nonzero" fill-opacity="1" /><path clip-path="url(#clip770)" d="M2116.39 142.067 L2119.07 142.067 L2119.07 162.229 L2116.39 162.229 L2116.39 142.067 Z" fill="#000000" fill-rule="nonzero" fill-opacity="1" /><path clip-path="url(#clip770)" d="M2158.31 132.507 L2158.31 141.465 L2171.2 141.465 L2171.2 145.4 L2158.31 145.4 L2158.31 154.358 L2154.42 154.358 L2154.42 145.4 L2141.53 145.4 L2141.53 141.465 L2154.42 141.465 L2154.42 132.507 L2158.31 132.507 M2141.53 158.293 L2171.2 158.293 L2171.2 162.229 L2141.53 162.229 L2141.53 158.293 Z" fill="#000000" fill-rule="nonzero" fill-opacity="1" /><path clip-path="url(#clip770)" d="M2207.5 132.275 L2198.01 158.34 L2217.01 158.34 L2207.5 132.275 M2191.67 162.229 L2204.86 127.669 L2210.16 127.669 L2223.33 162.229 L2191.67 162.229 Z" fill="#000000" fill-rule="nonzero" fill-opacity="1" /><path clip-path="url(#clip770)" d="M2233.05 131.511 L2233.05 158.386 L2238.7 158.386 Q2245.86 158.386 2249.17 155.145 Q2252.5 151.905 2252.5 144.914 Q2252.5 137.969 2249.17 134.752 Q2245.86 131.511 2238.7 131.511 L2233.05 131.511 M2228.38 127.669 L2237.98 127.669 Q2248.03 127.669 2252.73 131.858 Q2257.43 136.025 2257.43 144.914 Q2257.43 153.849 2252.71 158.039 Q2247.98 162.229 2237.98 162.229 L2228.38 162.229 L2228.38 127.669 Z" fill="#000000" fill-rule="nonzero" fill-opacity="1" /><path clip-path="url(#clip770)" d="M2263.05 142.067 L2265.74 142.067 L2265.74 162.229 L2263.05 162.229 L2263.05 142.067 Z" fill="#000000" fill-rule="nonzero" fill-opacity="1" /></svg>
