<?xml version="1.0" encoding="utf-8"?>
<svg xmlns="http://www.w3.org/2000/svg" xmlns:xlink="http://www.w3.org/1999/xlink" width="600" height="400" viewBox="0 0 2400 1600">
<defs>
  <clipPath id="clip210">
    <rect x="0" y="0" width="2400" height="1600"/>
  </clipPath>
</defs>
<path clip-path="url(#clip210)" d="M0 1600 L2400 1600 L2400 0 L0 0  Z" fill="#ffffff" fill-rule="evenodd" fill-opacity="1"/>
<defs>
  <clipPath id="clip211">
    <rect x="394" y="47" width="1959" height="1377"/>
  </clipPath>
</defs>
<path clip-path="url(#clip210)" d="M394.884 1423.18 L2352.76 1423.18 L2352.76 47.2441 L394.884 47.2441  Z" fill="#ffffff" fill-rule="evenodd" fill-opacity="1"/>
<polyline clip-path="url(#clip211)" style="stroke:#000000; stroke-linecap:round; stroke-linejoin:round; stroke-width:2; stroke-opacity:0.1; fill:none" points="758.137,1423.18 758.137,47.2441 "/>
<polyline clip-path="url(#clip211)" style="stroke:#000000; stroke-linecap:round; stroke-linejoin:round; stroke-width:2; stroke-opacity:0.1; fill:none" points="1142.94,1423.18 1142.94,47.2441 "/>
<polyline clip-path="url(#clip211)" style="stroke:#000000; stroke-linecap:round; stroke-linejoin:round; stroke-width:2; stroke-opacity:0.1; fill:none" points="1527.74,1423.18 1527.74,47.2441 "/>
<polyline clip-path="url(#clip211)" style="stroke:#000000; stroke-linecap:round; stroke-linejoin:round; stroke-width:2; stroke-opacity:0.1; fill:none" points="1912.54,1423.18 1912.54,47.2441 "/>
<polyline clip-path="url(#clip211)" style="stroke:#000000; stroke-linecap:round; stroke-linejoin:round; stroke-width:2; stroke-opacity:0.1; fill:none" points="2297.34,1423.18 2297.34,47.2441 "/>
<polyline clip-path="url(#clip211)" style="stroke:#000000; stroke-linecap:round; stroke-linejoin:round; stroke-width:2; stroke-opacity:0.1; fill:none" points="394.884,1272.93 2352.76,1272.93 "/>
<polyline clip-path="url(#clip211)" style="stroke:#000000; stroke-linecap:round; stroke-linejoin:round; stroke-width:2; stroke-opacity:0.1; fill:none" points="394.884,1095.63 2352.76,1095.63 "/>
<polyline clip-path="url(#clip211)" style="stroke:#000000; stroke-linecap:round; stroke-linejoin:round; stroke-width:2; stroke-opacity:0.1; fill:none" points="394.884,918.33 2352.76,918.33 "/>
<polyline clip-path="url(#clip211)" style="stroke:#000000; stroke-linecap:round; stroke-linejoin:round; stroke-width:2; stroke-opacity:0.1; fill:none" points="394.884,741.029 2352.76,741.029 "/>
<polyline clip-path="url(#clip211)" style="stroke:#000000; stroke-linecap:round; stroke-linejoin:round; stroke-width:2; stroke-opacity:0.1; fill:none" points="394.884,563.728 2352.76,563.728 "/>
<polyline clip-path="url(#clip211)" style="stroke:#000000; stroke-linecap:round; stroke-linejoin:round; stroke-width:2; stroke-opacity:0.1; fill:none" points="394.884,386.426 2352.76,386.426 "/>
<polyline clip-path="url(#clip211)" style="stroke:#000000; stroke-linecap:round; stroke-linejoin:round; stroke-width:2; stroke-opacity:0.1; fill:none" points="394.884,209.125 2352.76,209.125 "/>
<polyline clip-path="url(#clip210)" style="stroke:#000000; stroke-linecap:round; stroke-linejoin:round; stroke-width:4; stroke-opacity:1; fill:none" points="394.884,1423.18 2352.76,1423.18 "/>
<polyline clip-path="url(#clip210)" style="stroke:#000000; stroke-linecap:round; stroke-linejoin:round; stroke-width:4; stroke-opacity:1; fill:none" points="758.137,1423.18 758.137,1404.28 "/>
<polyline clip-path="url(#clip210)" style="stroke:#000000; stroke-linecap:round; stroke-linejoin:round; stroke-width:4; stroke-opacity:1; fill:none" points="1142.94,1423.18 1142.94,1404.28 "/>
<polyline clip-path="url(#clip210)" style="stroke:#000000; stroke-linecap:round; stroke-linejoin:round; stroke-width:4; stroke-opacity:1; fill:none" points="1527.74,1423.18 1527.74,1404.28 "/>
<polyline clip-path="url(#clip210)" style="stroke:#000000; stroke-linecap:round; stroke-linejoin:round; stroke-width:4; stroke-opacity:1; fill:none" points="1912.54,1423.18 1912.54,1404.28 "/>
<polyline clip-path="url(#clip210)" style="stroke:#000000; stroke-linecap:round; stroke-linejoin:round; stroke-width:4; stroke-opacity:1; fill:none" points="2297.34,1423.18 2297.34,1404.28 "/>
<path clip-path="url(#clip210)" d="M721.829 1481.64 L738.149 1481.64 L738.149 1485.58 L716.204 1485.58 L716.204 1481.64 Q718.866 1478.89 723.45 1474.26 Q728.056 1469.61 729.237 1468.27 Q731.482 1465.74 732.362 1464.01 Q733.265 1462.25 733.265 1460.56 Q733.265 1457.8 731.32 1456.07 Q729.399 1454.33 726.297 1454.33 Q724.098 1454.33 721.644 1455.09 Q719.214 1455.86 716.436 1457.41 L716.436 1452.69 Q719.26 1451.55 721.714 1450.97 Q724.167 1450.39 726.204 1450.39 Q731.575 1450.39 734.769 1453.08 Q737.964 1455.77 737.964 1460.26 Q737.964 1462.39 737.153 1464.31 Q736.366 1466.2 734.26 1468.8 Q733.681 1469.47 730.579 1472.69 Q727.478 1475.88 721.829 1481.64 Z" fill="#000000" fill-rule="nonzero" fill-opacity="1" /><path clip-path="url(#clip210)" d="M757.963 1454.1 Q754.352 1454.1 752.524 1457.66 Q750.718 1461.2 750.718 1468.33 Q750.718 1475.44 752.524 1479.01 Q754.352 1482.55 757.963 1482.55 Q761.598 1482.55 763.403 1479.01 Q765.232 1475.44 765.232 1468.33 Q765.232 1461.2 763.403 1457.66 Q761.598 1454.1 757.963 1454.1 M757.963 1450.39 Q763.774 1450.39 766.829 1455 Q769.908 1459.58 769.908 1468.33 Q769.908 1477.06 766.829 1481.67 Q763.774 1486.25 757.963 1486.25 Q752.153 1486.25 749.075 1481.67 Q746.019 1477.06 746.019 1468.33 Q746.019 1459.58 749.075 1455 Q752.153 1450.39 757.963 1450.39 Z" fill="#000000" fill-rule="nonzero" fill-opacity="1" /><path clip-path="url(#clip210)" d="M788.125 1454.1 Q784.514 1454.1 782.686 1457.66 Q780.88 1461.2 780.88 1468.33 Q780.88 1475.44 782.686 1479.01 Q784.514 1482.55 788.125 1482.55 Q791.76 1482.55 793.565 1479.01 Q795.394 1475.44 795.394 1468.33 Q795.394 1461.2 793.565 1457.66 Q791.76 1454.1 788.125 1454.1 M788.125 1450.39 Q793.935 1450.39 796.991 1455 Q800.07 1459.58 800.07 1468.33 Q800.07 1477.06 796.991 1481.67 Q793.935 1486.25 788.125 1486.25 Q782.315 1486.25 779.236 1481.67 Q776.181 1477.06 776.181 1468.33 Q776.181 1459.58 779.236 1455 Q782.315 1450.39 788.125 1450.39 Z" fill="#000000" fill-rule="nonzero" fill-opacity="1" /><path clip-path="url(#clip210)" d="M1116.03 1455.09 L1104.22 1473.54 L1116.03 1473.54 L1116.03 1455.09 M1114.8 1451.02 L1120.68 1451.02 L1120.68 1473.54 L1125.61 1473.54 L1125.61 1477.43 L1120.68 1477.43 L1120.68 1485.58 L1116.03 1485.58 L1116.03 1477.43 L1100.43 1477.43 L1100.43 1472.92 L1114.8 1451.02 Z" fill="#000000" fill-rule="nonzero" fill-opacity="1" /><path clip-path="url(#clip210)" d="M1143.34 1454.1 Q1139.73 1454.1 1137.9 1457.66 Q1136.1 1461.2 1136.1 1468.33 Q1136.1 1475.44 1137.9 1479.01 Q1139.73 1482.55 1143.34 1482.55 Q1146.98 1482.55 1148.78 1479.01 Q1150.61 1475.44 1150.61 1468.33 Q1150.61 1461.2 1148.78 1457.66 Q1146.98 1454.1 1143.34 1454.1 M1143.34 1450.39 Q1149.15 1450.39 1152.21 1455 Q1155.29 1459.58 1155.29 1468.33 Q1155.29 1477.06 1152.21 1481.67 Q1149.15 1486.25 1143.34 1486.25 Q1137.53 1486.25 1134.46 1481.67 Q1131.4 1477.06 1131.4 1468.33 Q1131.4 1459.58 1134.46 1455 Q1137.53 1450.39 1143.34 1450.39 Z" fill="#000000" fill-rule="nonzero" fill-opacity="1" /><path clip-path="url(#clip210)" d="M1173.51 1454.1 Q1169.89 1454.1 1168.07 1457.66 Q1166.26 1461.2 1166.26 1468.33 Q1166.26 1475.44 1168.07 1479.01 Q1169.89 1482.55 1173.51 1482.55 Q1177.14 1482.55 1178.95 1479.01 Q1180.77 1475.44 1180.77 1468.33 Q1180.77 1461.2 1178.95 1457.66 Q1177.14 1454.1 1173.51 1454.1 M1173.51 1450.39 Q1179.32 1450.39 1182.37 1455 Q1185.45 1459.58 1185.45 1468.33 Q1185.45 1477.06 1182.37 1481.67 Q1179.32 1486.25 1173.51 1486.25 Q1167.7 1486.25 1164.62 1481.67 Q1161.56 1477.06 1161.56 1468.33 Q1161.56 1459.58 1164.62 1455 Q1167.7 1450.39 1173.51 1450.39 Z" fill="#000000" fill-rule="nonzero" fill-opacity="1" /><path clip-path="url(#clip210)" d="M1498.06 1466.44 Q1494.92 1466.44 1493.07 1468.59 Q1491.24 1470.74 1491.24 1474.49 Q1491.24 1478.22 1493.07 1480.39 Q1494.92 1482.55 1498.06 1482.55 Q1501.21 1482.55 1503.04 1480.39 Q1504.89 1478.22 1504.89 1474.49 Q1504.89 1470.74 1503.04 1468.59 Q1501.21 1466.44 1498.06 1466.44 M1507.35 1451.78 L1507.35 1456.04 Q1505.59 1455.21 1503.78 1454.77 Q1502 1454.33 1500.24 1454.33 Q1495.61 1454.33 1493.16 1457.45 Q1490.73 1460.58 1490.38 1466.9 Q1491.75 1464.89 1493.81 1463.82 Q1495.87 1462.73 1498.34 1462.73 Q1503.55 1462.73 1506.56 1465.9 Q1509.59 1469.05 1509.59 1474.49 Q1509.59 1479.82 1506.44 1483.03 Q1503.3 1486.25 1498.06 1486.25 Q1492.07 1486.25 1488.9 1481.67 Q1485.73 1477.06 1485.73 1468.33 Q1485.73 1460.14 1489.62 1455.28 Q1493.5 1450.39 1500.06 1450.39 Q1501.81 1450.39 1503.6 1450.74 Q1505.4 1451.09 1507.35 1451.78 Z" fill="#000000" fill-rule="nonzero" fill-opacity="1" /><path clip-path="url(#clip210)" d="M1527.65 1454.1 Q1524.04 1454.1 1522.21 1457.66 Q1520.4 1461.2 1520.4 1468.33 Q1520.4 1475.44 1522.21 1479.01 Q1524.04 1482.55 1527.65 1482.55 Q1531.28 1482.55 1533.09 1479.01 Q1534.92 1475.44 1534.92 1468.33 Q1534.92 1461.2 1533.09 1457.66 Q1531.28 1454.1 1527.65 1454.1 M1527.65 1450.39 Q1533.46 1450.39 1536.51 1455 Q1539.59 1459.58 1539.59 1468.33 Q1539.59 1477.06 1536.51 1481.67 Q1533.46 1486.25 1527.65 1486.25 Q1521.84 1486.25 1518.76 1481.67 Q1515.7 1477.06 1515.7 1468.33 Q1515.7 1459.58 1518.76 1455 Q1521.84 1450.39 1527.65 1450.39 Z" fill="#000000" fill-rule="nonzero" fill-opacity="1" /><path clip-path="url(#clip210)" d="M1557.81 1454.1 Q1554.2 1454.1 1552.37 1457.66 Q1550.56 1461.2 1550.56 1468.33 Q1550.56 1475.44 1552.37 1479.01 Q1554.2 1482.55 1557.81 1482.55 Q1561.44 1482.55 1563.25 1479.01 Q1565.08 1475.44 1565.08 1468.33 Q1565.08 1461.2 1563.25 1457.66 Q1561.44 1454.1 1557.81 1454.1 M1557.81 1450.39 Q1563.62 1450.39 1566.68 1455 Q1569.75 1459.58 1569.75 1468.33 Q1569.75 1477.06 1566.68 1481.67 Q1563.62 1486.25 1557.81 1486.25 Q1552 1486.25 1548.92 1481.67 Q1545.87 1477.06 1545.87 1468.33 Q1545.87 1459.58 1548.92 1455 Q1552 1450.39 1557.81 1450.39 Z" fill="#000000" fill-rule="nonzero" fill-opacity="1" /><path clip-path="url(#clip210)" d="M1882.33 1469.17 Q1879 1469.17 1877.08 1470.95 Q1875.18 1472.73 1875.18 1475.86 Q1875.18 1478.98 1877.08 1480.77 Q1879 1482.55 1882.33 1482.55 Q1885.67 1482.55 1887.59 1480.77 Q1889.51 1478.96 1889.51 1475.86 Q1889.51 1472.73 1887.59 1470.95 Q1885.69 1469.17 1882.33 1469.17 M1877.66 1467.18 Q1874.65 1466.44 1872.96 1464.38 Q1871.29 1462.32 1871.29 1459.35 Q1871.29 1455.21 1874.23 1452.8 Q1877.2 1450.39 1882.33 1450.39 Q1887.5 1450.39 1890.44 1452.8 Q1893.38 1455.21 1893.38 1459.35 Q1893.38 1462.32 1891.69 1464.38 Q1890.02 1466.44 1887.03 1467.18 Q1890.41 1467.96 1892.29 1470.26 Q1894.19 1472.55 1894.19 1475.86 Q1894.19 1480.88 1891.11 1483.57 Q1888.05 1486.25 1882.33 1486.25 Q1876.62 1486.25 1873.54 1483.57 Q1870.48 1480.88 1870.48 1475.86 Q1870.48 1472.55 1872.38 1470.26 Q1874.28 1467.96 1877.66 1467.18 M1875.95 1459.79 Q1875.95 1462.48 1877.61 1463.98 Q1879.3 1465.49 1882.33 1465.49 Q1885.34 1465.49 1887.03 1463.98 Q1888.75 1462.48 1888.75 1459.79 Q1888.75 1457.11 1887.03 1455.6 Q1885.34 1454.1 1882.33 1454.1 Q1879.3 1454.1 1877.61 1455.6 Q1875.95 1457.11 1875.95 1459.79 Z" fill="#000000" fill-rule="nonzero" fill-opacity="1" /><path clip-path="url(#clip210)" d="M1912.5 1454.1 Q1908.89 1454.1 1907.06 1457.66 Q1905.25 1461.2 1905.25 1468.33 Q1905.25 1475.44 1907.06 1479.01 Q1908.89 1482.55 1912.5 1482.55 Q1916.13 1482.55 1917.94 1479.01 Q1919.76 1475.44 1919.76 1468.33 Q1919.76 1461.2 1917.94 1457.66 Q1916.13 1454.1 1912.5 1454.1 M1912.5 1450.39 Q1918.31 1450.39 1921.36 1455 Q1924.44 1459.58 1924.44 1468.33 Q1924.44 1477.06 1921.36 1481.67 Q1918.31 1486.25 1912.5 1486.25 Q1906.69 1486.25 1903.61 1481.67 Q1900.55 1477.06 1900.55 1468.33 Q1900.55 1459.58 1903.61 1455 Q1906.69 1450.39 1912.5 1450.39 Z" fill="#000000" fill-rule="nonzero" fill-opacity="1" /><path clip-path="url(#clip210)" d="M1942.66 1454.1 Q1939.05 1454.1 1937.22 1457.66 Q1935.41 1461.2 1935.41 1468.33 Q1935.41 1475.44 1937.22 1479.01 Q1939.05 1482.55 1942.66 1482.55 Q1946.29 1482.55 1948.1 1479.01 Q1949.93 1475.44 1949.93 1468.33 Q1949.93 1461.2 1948.1 1457.66 Q1946.29 1454.1 1942.66 1454.1 M1942.66 1450.39 Q1948.47 1450.39 1951.52 1455 Q1954.6 1459.58 1954.6 1468.33 Q1954.6 1477.06 1951.52 1481.67 Q1948.47 1486.25 1942.66 1486.25 Q1936.85 1486.25 1933.77 1481.67 Q1930.71 1477.06 1930.71 1468.33 Q1930.71 1459.58 1933.77 1455 Q1936.85 1450.39 1942.66 1450.39 Z" fill="#000000" fill-rule="nonzero" fill-opacity="1" /><path clip-path="url(#clip210)" d="M2241.87 1481.64 L2249.51 1481.64 L2249.51 1455.28 L2241.2 1456.95 L2241.2 1452.69 L2249.46 1451.02 L2254.14 1451.02 L2254.14 1481.64 L2261.78 1481.64 L2261.78 1485.58 L2241.87 1485.58 L2241.87 1481.64 Z" fill="#000000" fill-rule="nonzero" fill-opacity="1" /><path clip-path="url(#clip210)" d="M2281.22 1454.1 Q2277.61 1454.1 2275.78 1457.66 Q2273.98 1461.2 2273.98 1468.33 Q2273.98 1475.44 2275.78 1479.01 Q2277.61 1482.55 2281.22 1482.55 Q2284.86 1482.55 2286.66 1479.01 Q2288.49 1475.44 2288.49 1468.33 Q2288.49 1461.2 2286.66 1457.66 Q2284.86 1454.1 2281.22 1454.1 M2281.22 1450.39 Q2287.03 1450.39 2290.09 1455 Q2293.17 1459.58 2293.17 1468.33 Q2293.17 1477.06 2290.09 1481.67 Q2287.03 1486.25 2281.22 1486.25 Q2275.41 1486.25 2272.33 1481.67 Q2269.28 1477.06 2269.28 1468.33 Q2269.28 1459.58 2272.33 1455 Q2275.41 1450.39 2281.22 1450.39 Z" fill="#000000" fill-rule="nonzero" fill-opacity="1" /><path clip-path="url(#clip210)" d="M2311.38 1454.1 Q2307.77 1454.1 2305.94 1457.66 Q2304.14 1461.2 2304.14 1468.33 Q2304.14 1475.44 2305.94 1479.01 Q2307.77 1482.55 2311.38 1482.55 Q2315.02 1482.55 2316.82 1479.01 Q2318.65 1475.44 2318.65 1468.33 Q2318.65 1461.2 2316.82 1457.66 Q2315.02 1454.1 2311.38 1454.1 M2311.38 1450.39 Q2317.19 1450.39 2320.25 1455 Q2323.33 1459.58 2323.33 1468.33 Q2323.33 1477.06 2320.25 1481.67 Q2317.19 1486.25 2311.38 1486.25 Q2305.57 1486.25 2302.49 1481.67 Q2299.44 1477.06 2299.44 1468.33 Q2299.44 1459.58 2302.49 1455 Q2305.57 1450.39 2311.38 1450.39 Z" fill="#000000" fill-rule="nonzero" fill-opacity="1" /><path clip-path="url(#clip210)" d="M2341.55 1454.1 Q2337.93 1454.1 2336.11 1457.66 Q2334.3 1461.2 2334.3 1468.33 Q2334.3 1475.44 2336.11 1479.01 Q2337.93 1482.55 2341.55 1482.55 Q2345.18 1482.55 2346.99 1479.01 Q2348.81 1475.44 2348.81 1468.33 Q2348.81 1461.2 2346.99 1457.66 Q2345.18 1454.1 2341.55 1454.1 M2341.55 1450.39 Q2347.36 1450.39 2350.41 1455 Q2353.49 1459.58 2353.49 1468.33 Q2353.49 1477.06 2350.41 1481.67 Q2347.36 1486.25 2341.55 1486.25 Q2335.74 1486.25 2332.66 1481.67 Q2329.6 1477.06 2329.6 1468.33 Q2329.6 1459.58 2332.66 1455 Q2335.74 1450.39 2341.55 1450.39 Z" fill="#000000" fill-rule="nonzero" fill-opacity="1" /><path clip-path="url(#clip210)" d="M1370.89 1518.52 L1376.75 1518.52 L1376.75 1568.04 L1370.89 1568.04 L1370.89 1518.52 Z" fill="#000000" fill-rule="nonzero" fill-opacity="1" /><polyline clip-path="url(#clip210)" style="stroke:#000000; stroke-linecap:round; stroke-linejoin:round; stroke-width:4; stroke-opacity:1; fill:none" points="394.884,1423.18 394.884,47.2441 "/>
<polyline clip-path="url(#clip210)" style="stroke:#000000; stroke-linecap:round; stroke-linejoin:round; stroke-width:4; stroke-opacity:1; fill:none" points="394.884,1272.93 413.782,1272.93 "/>
<polyline clip-path="url(#clip210)" style="stroke:#000000; stroke-linecap:round; stroke-linejoin:round; stroke-width:4; stroke-opacity:1; fill:none" points="394.884,1095.63 413.782,1095.63 "/>
<polyline clip-path="url(#clip210)" style="stroke:#000000; stroke-linecap:round; stroke-linejoin:round; stroke-width:4; stroke-opacity:1; fill:none" points="394.884,918.33 413.782,918.33 "/>
<polyline clip-path="url(#clip210)" style="stroke:#000000; stroke-linecap:round; stroke-linejoin:round; stroke-width:4; stroke-opacity:1; fill:none" points="394.884,741.029 413.782,741.029 "/>
<polyline clip-path="url(#clip210)" style="stroke:#000000; stroke-linecap:round; stroke-linejoin:round; stroke-width:4; stroke-opacity:1; fill:none" points="394.884,563.728 413.782,563.728 "/>
<polyline clip-path="url(#clip210)" style="stroke:#000000; stroke-linecap:round; stroke-linejoin:round; stroke-width:4; stroke-opacity:1; fill:none" points="394.884,386.426 413.782,386.426 "/>
<polyline clip-path="url(#clip210)" style="stroke:#000000; stroke-linecap:round; stroke-linejoin:round; stroke-width:4; stroke-opacity:1; fill:none" points="394.884,209.125 413.782,209.125 "/>
<path clip-path="url(#clip210)" d="M121.043 1292.72 L137.362 1292.72 L137.362 1296.66 L115.418 1296.66 L115.418 1292.72 Q118.08 1289.97 122.663 1285.34 Q127.269 1280.69 128.45 1279.35 Q130.695 1276.82 131.575 1275.09 Q132.478 1273.33 132.478 1271.64 Q132.478 1268.88 130.533 1267.15 Q128.612 1265.41 125.51 1265.41 Q123.311 1265.41 120.857 1266.17 Q118.427 1266.94 115.649 1268.49 L115.649 1263.77 Q118.473 1262.63 120.927 1262.05 Q123.38 1261.47 125.418 1261.47 Q130.788 1261.47 133.982 1264.16 Q137.177 1266.85 137.177 1271.34 Q137.177 1273.47 136.367 1275.39 Q135.579 1277.28 133.473 1279.88 Q132.894 1280.55 129.792 1283.77 Q126.691 1286.96 121.043 1292.72 Z" fill="#000000" fill-rule="nonzero" fill-opacity="1" /><path clip-path="url(#clip210)" d="M147.177 1290.78 L152.061 1290.78 L152.061 1296.66 L147.177 1296.66 L147.177 1290.78 Z" fill="#000000" fill-rule="nonzero" fill-opacity="1" /><path clip-path="url(#clip210)" d="M172.246 1265.18 Q168.635 1265.18 166.806 1268.74 Q165.001 1272.28 165.001 1279.41 Q165.001 1286.52 166.806 1290.09 Q168.635 1293.63 172.246 1293.63 Q175.88 1293.63 177.686 1290.09 Q179.514 1286.52 179.514 1279.41 Q179.514 1272.28 177.686 1268.74 Q175.88 1265.18 172.246 1265.18 M172.246 1261.47 Q178.056 1261.47 181.112 1266.08 Q184.19 1270.66 184.19 1279.41 Q184.19 1288.14 181.112 1292.75 Q178.056 1297.33 172.246 1297.33 Q166.436 1297.33 163.357 1292.75 Q160.302 1288.14 160.302 1279.41 Q160.302 1270.66 163.357 1266.08 Q166.436 1261.47 172.246 1261.47 Z" fill="#000000" fill-rule="nonzero" fill-opacity="1" /><path clip-path="url(#clip210)" d="M220.579 1271.2 L210 1281.82 L220.579 1292.4 L217.824 1295.2 L207.199 1284.58 L196.575 1295.2 L193.843 1292.4 L204.399 1281.82 L193.843 1271.2 L196.575 1268.4 L207.199 1279.02 L217.824 1268.4 L220.579 1271.2 Z" fill="#000000" fill-rule="nonzero" fill-opacity="1" /><path clip-path="url(#clip210)" d="M232.94 1292.72 L240.579 1292.72 L240.579 1266.36 L232.269 1268.03 L232.269 1263.77 L240.533 1262.1 L245.209 1262.1 L245.209 1292.72 L252.847 1292.72 L252.847 1296.66 L232.94 1296.66 L232.94 1292.72 Z" fill="#000000" fill-rule="nonzero" fill-opacity="1" /><path clip-path="url(#clip210)" d="M272.292 1265.18 Q268.681 1265.18 266.852 1268.74 Q265.046 1272.28 265.046 1279.41 Q265.046 1286.52 266.852 1290.09 Q268.681 1293.63 272.292 1293.63 Q275.926 1293.63 277.732 1290.09 Q279.56 1286.52 279.56 1279.41 Q279.56 1272.28 277.732 1268.74 Q275.926 1265.18 272.292 1265.18 M272.292 1261.47 Q278.102 1261.47 281.157 1266.08 Q284.236 1270.66 284.236 1279.41 Q284.236 1288.14 281.157 1292.75 Q278.102 1297.33 272.292 1297.33 Q266.482 1297.33 263.403 1292.75 Q260.347 1288.14 260.347 1279.41 Q260.347 1270.66 263.403 1266.08 Q266.482 1261.47 272.292 1261.47 Z" fill="#000000" fill-rule="nonzero" fill-opacity="1" /><path clip-path="url(#clip210)" d="M284.236 1255.58 L308.348 1255.58 L308.348 1258.77 L284.236 1258.77 L284.236 1255.58 Z" fill="#000000" fill-rule="nonzero" fill-opacity="1" /><path clip-path="url(#clip210)" d="M317.206 1266.05 L323.413 1266.05 L323.413 1244.63 L316.661 1245.98 L316.661 1242.52 L323.375 1241.17 L327.174 1241.17 L327.174 1266.05 L333.381 1266.05 L333.381 1269.25 L317.206 1269.25 L317.206 1266.05 Z" fill="#000000" fill-rule="nonzero" fill-opacity="1" /><path clip-path="url(#clip210)" d="M349.179 1243.67 Q346.245 1243.67 344.76 1246.57 Q343.292 1249.44 343.292 1255.24 Q343.292 1261.01 344.76 1263.91 Q346.245 1266.79 349.179 1266.79 Q352.132 1266.79 353.599 1263.91 Q355.085 1261.01 355.085 1255.24 Q355.085 1249.44 353.599 1246.57 Q352.132 1243.67 349.179 1243.67 M349.179 1240.66 Q353.9 1240.66 356.383 1244.4 Q358.884 1248.13 358.884 1255.24 Q358.884 1262.33 356.383 1266.07 Q353.9 1269.79 349.179 1269.79 Q344.459 1269.79 341.957 1266.07 Q339.475 1262.33 339.475 1255.24 Q339.475 1248.13 341.957 1244.4 Q344.459 1240.66 349.179 1240.66 Z" fill="#000000" fill-rule="nonzero" fill-opacity="1" /><path clip-path="url(#clip210)" d="M131.181 1100.72 Q134.538 1101.44 136.413 1103.71 Q138.311 1105.98 138.311 1109.31 Q138.311 1114.43 134.792 1117.23 Q131.274 1120.03 124.793 1120.03 Q122.617 1120.03 120.302 1119.59 Q118.01 1119.17 115.556 1118.32 L115.556 1113.8 Q117.501 1114.94 119.816 1115.52 Q122.13 1116.09 124.654 1116.09 Q129.052 1116.09 131.343 1114.36 Q133.658 1112.62 133.658 1109.31 Q133.658 1106.26 131.505 1104.54 Q129.376 1102.81 125.556 1102.81 L121.529 1102.81 L121.529 1098.97 L125.742 1098.97 Q129.191 1098.97 131.019 1097.6 Q132.848 1096.21 132.848 1093.62 Q132.848 1090.96 130.95 1089.54 Q129.075 1088.11 125.556 1088.11 Q123.635 1088.11 121.436 1088.53 Q119.237 1088.94 116.598 1089.82 L116.598 1085.66 Q119.26 1084.91 121.575 1084.54 Q123.913 1084.17 125.973 1084.17 Q131.297 1084.17 134.399 1086.6 Q137.501 1089.01 137.501 1093.13 Q137.501 1096 135.857 1097.99 Q134.214 1099.96 131.181 1100.72 Z" fill="#000000" fill-rule="nonzero" fill-opacity="1" /><path clip-path="url(#clip210)" d="M147.177 1113.48 L152.061 1113.48 L152.061 1119.36 L147.177 1119.36 L147.177 1113.48 Z" fill="#000000" fill-rule="nonzero" fill-opacity="1" /><path clip-path="url(#clip210)" d="M172.246 1087.88 Q168.635 1087.88 166.806 1091.44 Q165.001 1094.98 165.001 1102.11 Q165.001 1109.22 166.806 1112.78 Q168.635 1116.33 172.246 1116.33 Q175.88 1116.33 177.686 1112.78 Q179.514 1109.22 179.514 1102.11 Q179.514 1094.98 177.686 1091.44 Q175.88 1087.88 172.246 1087.88 M172.246 1084.17 Q178.056 1084.17 181.112 1088.78 Q184.19 1093.36 184.19 1102.11 Q184.19 1110.84 181.112 1115.45 Q178.056 1120.03 172.246 1120.03 Q166.436 1120.03 163.357 1115.45 Q160.302 1110.84 160.302 1102.11 Q160.302 1093.36 163.357 1088.78 Q166.436 1084.17 172.246 1084.17 Z" fill="#000000" fill-rule="nonzero" fill-opacity="1" /><path clip-path="url(#clip210)" d="M220.579 1093.9 L210 1104.52 L220.579 1115.1 L217.824 1117.9 L207.199 1107.28 L196.575 1117.9 L193.843 1115.1 L204.399 1104.52 L193.843 1093.9 L196.575 1091.09 L207.199 1101.72 L217.824 1091.09 L220.579 1093.9 Z" fill="#000000" fill-rule="nonzero" fill-opacity="1" /><path clip-path="url(#clip210)" d="M232.94 1115.42 L240.579 1115.42 L240.579 1089.06 L232.269 1090.72 L232.269 1086.47 L240.533 1084.8 L245.209 1084.8 L245.209 1115.42 L252.847 1115.42 L252.847 1119.36 L232.94 1119.36 L232.94 1115.42 Z" fill="#000000" fill-rule="nonzero" fill-opacity="1" /><path clip-path="url(#clip210)" d="M272.292 1087.88 Q268.681 1087.88 266.852 1091.44 Q265.046 1094.98 265.046 1102.11 Q265.046 1109.22 266.852 1112.78 Q268.681 1116.33 272.292 1116.33 Q275.926 1116.33 277.732 1112.78 Q279.56 1109.22 279.56 1102.11 Q279.56 1094.98 277.732 1091.44 Q275.926 1087.88 272.292 1087.88 M272.292 1084.17 Q278.102 1084.17 281.157 1088.78 Q284.236 1093.36 284.236 1102.11 Q284.236 1110.84 281.157 1115.45 Q278.102 1120.03 272.292 1120.03 Q266.482 1120.03 263.403 1115.45 Q260.347 1110.84 260.347 1102.11 Q260.347 1093.36 263.403 1088.78 Q266.482 1084.17 272.292 1084.17 Z" fill="#000000" fill-rule="nonzero" fill-opacity="1" /><path clip-path="url(#clip210)" d="M284.236 1078.27 L308.348 1078.27 L308.348 1081.47 L284.236 1081.47 L284.236 1078.27 Z" fill="#000000" fill-rule="nonzero" fill-opacity="1" /><path clip-path="url(#clip210)" d="M317.206 1088.75 L323.413 1088.75 L323.413 1067.33 L316.661 1068.68 L316.661 1065.22 L323.375 1063.87 L327.174 1063.87 L327.174 1088.75 L333.381 1088.75 L333.381 1091.95 L317.206 1091.95 L317.206 1088.75 Z" fill="#000000" fill-rule="nonzero" fill-opacity="1" /><path clip-path="url(#clip210)" d="M349.179 1066.37 Q346.245 1066.37 344.76 1069.27 Q343.292 1072.14 343.292 1077.94 Q343.292 1083.71 344.76 1086.61 Q346.245 1089.48 349.179 1089.48 Q352.132 1089.48 353.599 1086.61 Q355.085 1083.71 355.085 1077.94 Q355.085 1072.14 353.599 1069.27 Q352.132 1066.37 349.179 1066.37 M349.179 1063.36 Q353.9 1063.36 356.383 1067.1 Q358.884 1070.83 358.884 1077.94 Q358.884 1085.03 356.383 1088.77 Q353.9 1092.49 349.179 1092.49 Q344.459 1092.49 341.957 1088.77 Q339.475 1085.03 339.475 1077.94 Q339.475 1070.83 341.957 1067.1 Q344.459 1063.36 349.179 1063.36 Z" fill="#000000" fill-rule="nonzero" fill-opacity="1" /><path clip-path="url(#clip210)" d="M129.862 911.571 L118.056 930.02 L129.862 930.02 L129.862 911.571 M128.635 907.497 L134.515 907.497 L134.515 930.02 L139.445 930.02 L139.445 933.909 L134.515 933.909 L134.515 942.057 L129.862 942.057 L129.862 933.909 L114.26 933.909 L114.26 929.395 L128.635 907.497 Z" fill="#000000" fill-rule="nonzero" fill-opacity="1" /><path clip-path="url(#clip210)" d="M147.177 936.178 L152.061 936.178 L152.061 942.057 L147.177 942.057 L147.177 936.178 Z" fill="#000000" fill-rule="nonzero" fill-opacity="1" /><path clip-path="url(#clip210)" d="M172.246 910.576 Q168.635 910.576 166.806 914.141 Q165.001 917.683 165.001 924.812 Q165.001 931.919 166.806 935.483 Q168.635 939.025 172.246 939.025 Q175.88 939.025 177.686 935.483 Q179.514 931.919 179.514 924.812 Q179.514 917.683 177.686 914.141 Q175.88 910.576 172.246 910.576 M172.246 906.872 Q178.056 906.872 181.112 911.479 Q184.19 916.062 184.19 924.812 Q184.19 933.539 181.112 938.145 Q178.056 942.729 172.246 942.729 Q166.436 942.729 163.357 938.145 Q160.302 933.539 160.302 924.812 Q160.302 916.062 163.357 911.479 Q166.436 906.872 172.246 906.872 Z" fill="#000000" fill-rule="nonzero" fill-opacity="1" /><path clip-path="url(#clip210)" d="M220.579 916.595 L210 927.22 L220.579 937.798 L217.824 940.599 L207.199 929.974 L196.575 940.599 L193.843 937.798 L204.399 927.22 L193.843 916.595 L196.575 913.794 L207.199 924.419 L217.824 913.794 L220.579 916.595 Z" fill="#000000" fill-rule="nonzero" fill-opacity="1" /><path clip-path="url(#clip210)" d="M232.94 938.122 L240.579 938.122 L240.579 911.757 L232.269 913.423 L232.269 909.164 L240.533 907.497 L245.209 907.497 L245.209 938.122 L252.847 938.122 L252.847 942.057 L232.94 942.057 L232.94 938.122 Z" fill="#000000" fill-rule="nonzero" fill-opacity="1" /><path clip-path="url(#clip210)" d="M272.292 910.576 Q268.681 910.576 266.852 914.141 Q265.046 917.683 265.046 924.812 Q265.046 931.919 266.852 935.483 Q268.681 939.025 272.292 939.025 Q275.926 939.025 277.732 935.483 Q279.56 931.919 279.56 924.812 Q279.56 917.683 277.732 914.141 Q275.926 910.576 272.292 910.576 M272.292 906.872 Q278.102 906.872 281.157 911.479 Q284.236 916.062 284.236 924.812 Q284.236 933.539 281.157 938.145 Q278.102 942.729 272.292 942.729 Q266.482 942.729 263.403 938.145 Q260.347 933.539 260.347 924.812 Q260.347 916.062 263.403 911.479 Q266.482 906.872 272.292 906.872 Z" fill="#000000" fill-rule="nonzero" fill-opacity="1" /><path clip-path="url(#clip210)" d="M284.236 900.974 L308.348 900.974 L308.348 904.171 L284.236 904.171 L284.236 900.974 Z" fill="#000000" fill-rule="nonzero" fill-opacity="1" /><path clip-path="url(#clip210)" d="M317.206 911.45 L323.413 911.45 L323.413 890.028 L316.661 891.382 L316.661 887.921 L323.375 886.567 L327.174 886.567 L327.174 911.45 L333.381 911.45 L333.381 914.647 L317.206 914.647 L317.206 911.45 Z" fill="#000000" fill-rule="nonzero" fill-opacity="1" /><path clip-path="url(#clip210)" d="M349.179 889.068 Q346.245 889.068 344.76 891.965 Q343.292 894.842 343.292 900.635 Q343.292 906.409 344.76 909.306 Q346.245 912.183 349.179 912.183 Q352.132 912.183 353.599 909.306 Q355.085 906.409 355.085 900.635 Q355.085 894.842 353.599 891.965 Q352.132 889.068 349.179 889.068 M349.179 886.059 Q353.9 886.059 356.383 889.802 Q358.884 893.526 358.884 900.635 Q358.884 907.726 356.383 911.469 Q353.9 915.192 349.179 915.192 Q344.459 915.192 341.957 911.469 Q339.475 907.726 339.475 900.635 Q339.475 893.526 341.957 889.802 Q344.459 886.059 349.179 886.059 Z" fill="#000000" fill-rule="nonzero" fill-opacity="1" /><path clip-path="url(#clip210)" d="M117.061 730.196 L135.417 730.196 L135.417 734.131 L121.343 734.131 L121.343 742.604 Q122.362 742.256 123.38 742.094 Q124.399 741.909 125.418 741.909 Q131.205 741.909 134.584 745.08 Q137.964 748.252 137.964 753.668 Q137.964 759.247 134.492 762.349 Q131.019 765.428 124.7 765.428 Q122.524 765.428 120.255 765.057 Q118.01 764.687 115.603 763.946 L115.603 759.247 Q117.686 760.381 119.908 760.937 Q122.13 761.492 124.607 761.492 Q128.612 761.492 130.95 759.386 Q133.288 757.279 133.288 753.668 Q133.288 750.057 130.95 747.951 Q128.612 745.844 124.607 745.844 Q122.732 745.844 120.857 746.261 Q119.006 746.678 117.061 747.557 L117.061 730.196 Z" fill="#000000" fill-rule="nonzero" fill-opacity="1" /><path clip-path="url(#clip210)" d="M147.177 758.877 L152.061 758.877 L152.061 764.756 L147.177 764.756 L147.177 758.877 Z" fill="#000000" fill-rule="nonzero" fill-opacity="1" /><path clip-path="url(#clip210)" d="M172.246 733.275 Q168.635 733.275 166.806 736.84 Q165.001 740.381 165.001 747.511 Q165.001 754.617 166.806 758.182 Q168.635 761.724 172.246 761.724 Q175.88 761.724 177.686 758.182 Q179.514 754.617 179.514 747.511 Q179.514 740.381 177.686 736.84 Q175.88 733.275 172.246 733.275 M172.246 729.571 Q178.056 729.571 181.112 734.178 Q184.19 738.761 184.19 747.511 Q184.19 756.238 181.112 760.844 Q178.056 765.428 172.246 765.428 Q166.436 765.428 163.357 760.844 Q160.302 756.238 160.302 747.511 Q160.302 738.761 163.357 734.178 Q166.436 729.571 172.246 729.571 Z" fill="#000000" fill-rule="nonzero" fill-opacity="1" /><path clip-path="url(#clip210)" d="M220.579 739.293 L210 749.918 L220.579 760.497 L217.824 763.298 L207.199 752.673 L196.575 763.298 L193.843 760.497 L204.399 749.918 L193.843 739.293 L196.575 736.493 L207.199 747.117 L217.824 736.493 L220.579 739.293 Z" fill="#000000" fill-rule="nonzero" fill-opacity="1" /><path clip-path="url(#clip210)" d="M232.94 760.821 L240.579 760.821 L240.579 734.456 L232.269 736.122 L232.269 731.863 L240.533 730.196 L245.209 730.196 L245.209 760.821 L252.847 760.821 L252.847 764.756 L232.94 764.756 L232.94 760.821 Z" fill="#000000" fill-rule="nonzero" fill-opacity="1" /><path clip-path="url(#clip210)" d="M272.292 733.275 Q268.681 733.275 266.852 736.84 Q265.046 740.381 265.046 747.511 Q265.046 754.617 266.852 758.182 Q268.681 761.724 272.292 761.724 Q275.926 761.724 277.732 758.182 Q279.56 754.617 279.56 747.511 Q279.56 740.381 277.732 736.84 Q275.926 733.275 272.292 733.275 M272.292 729.571 Q278.102 729.571 281.157 734.178 Q284.236 738.761 284.236 747.511 Q284.236 756.238 281.157 760.844 Q278.102 765.428 272.292 765.428 Q266.482 765.428 263.403 760.844 Q260.347 756.238 260.347 747.511 Q260.347 738.761 263.403 734.178 Q266.482 729.571 272.292 729.571 Z" fill="#000000" fill-rule="nonzero" fill-opacity="1" /><path clip-path="url(#clip210)" d="M284.236 723.673 L308.348 723.673 L308.348 726.87 L284.236 726.87 L284.236 723.673 Z" fill="#000000" fill-rule="nonzero" fill-opacity="1" /><path clip-path="url(#clip210)" d="M317.206 734.149 L323.413 734.149 L323.413 712.727 L316.661 714.081 L316.661 710.62 L323.375 709.266 L327.174 709.266 L327.174 734.149 L333.381 734.149 L333.381 737.346 L317.206 737.346 L317.206 734.149 Z" fill="#000000" fill-rule="nonzero" fill-opacity="1" /><path clip-path="url(#clip210)" d="M349.179 711.767 Q346.245 711.767 344.76 714.664 Q343.292 717.541 343.292 723.334 Q343.292 729.108 344.76 732.004 Q346.245 734.882 349.179 734.882 Q352.132 734.882 353.599 732.004 Q355.085 729.108 355.085 723.334 Q355.085 717.541 353.599 714.664 Q352.132 711.767 349.179 711.767 M349.179 708.758 Q353.9 708.758 356.383 712.501 Q358.884 716.225 358.884 723.334 Q358.884 730.425 356.383 734.167 Q353.9 737.891 349.179 737.891 Q344.459 737.891 341.957 734.167 Q339.475 730.425 339.475 723.334 Q339.475 716.225 341.957 712.501 Q344.459 708.758 349.179 708.758 Z" fill="#000000" fill-rule="nonzero" fill-opacity="1" /><path clip-path="url(#clip210)" d="M127.593 568.312 Q124.445 568.312 122.593 570.464 Q120.765 572.617 120.765 576.367 Q120.765 580.094 122.593 582.27 Q124.445 584.423 127.593 584.423 Q130.742 584.423 132.57 582.27 Q134.422 580.094 134.422 576.367 Q134.422 572.617 132.57 570.464 Q130.742 568.312 127.593 568.312 M136.876 553.659 L136.876 557.918 Q135.117 557.085 133.311 556.645 Q131.529 556.205 129.769 556.205 Q125.14 556.205 122.686 559.33 Q120.255 562.455 119.908 568.775 Q121.274 566.761 123.334 565.696 Q125.394 564.608 127.871 564.608 Q133.08 564.608 136.089 567.779 Q139.121 570.927 139.121 576.367 Q139.121 581.691 135.973 584.909 Q132.825 588.126 127.593 588.126 Q121.598 588.126 118.427 583.543 Q115.256 578.937 115.256 570.21 Q115.256 562.015 119.144 557.154 Q123.033 552.27 129.584 552.27 Q131.343 552.27 133.126 552.617 Q134.931 552.965 136.876 553.659 Z" fill="#000000" fill-rule="nonzero" fill-opacity="1" /><path clip-path="url(#clip210)" d="M147.177 581.576 L152.061 581.576 L152.061 587.455 L147.177 587.455 L147.177 581.576 Z" fill="#000000" fill-rule="nonzero" fill-opacity="1" /><path clip-path="url(#clip210)" d="M172.246 555.974 Q168.635 555.974 166.806 559.539 Q165.001 563.08 165.001 570.21 Q165.001 577.316 166.806 580.881 Q168.635 584.423 172.246 584.423 Q175.88 584.423 177.686 580.881 Q179.514 577.316 179.514 570.21 Q179.514 563.08 177.686 559.539 Q175.88 555.974 172.246 555.974 M172.246 552.27 Q178.056 552.27 181.112 556.877 Q184.19 561.46 184.19 570.21 Q184.19 578.937 181.112 583.543 Q178.056 588.126 172.246 588.126 Q166.436 588.126 163.357 583.543 Q160.302 578.937 160.302 570.21 Q160.302 561.46 163.357 556.877 Q166.436 552.27 172.246 552.27 Z" fill="#000000" fill-rule="nonzero" fill-opacity="1" /><path clip-path="url(#clip210)" d="M220.579 561.992 L210 572.617 L220.579 583.196 L217.824 585.997 L207.199 575.372 L196.575 585.997 L193.843 583.196 L204.399 572.617 L193.843 561.992 L196.575 559.191 L207.199 569.816 L217.824 559.191 L220.579 561.992 Z" fill="#000000" fill-rule="nonzero" fill-opacity="1" /><path clip-path="url(#clip210)" d="M232.94 583.52 L240.579 583.52 L240.579 557.154 L232.269 558.821 L232.269 554.562 L240.533 552.895 L245.209 552.895 L245.209 583.52 L252.847 583.52 L252.847 587.455 L232.94 587.455 L232.94 583.52 Z" fill="#000000" fill-rule="nonzero" fill-opacity="1" /><path clip-path="url(#clip210)" d="M272.292 555.974 Q268.681 555.974 266.852 559.539 Q265.046 563.08 265.046 570.21 Q265.046 577.316 266.852 580.881 Q268.681 584.423 272.292 584.423 Q275.926 584.423 277.732 580.881 Q279.56 577.316 279.56 570.21 Q279.56 563.08 277.732 559.539 Q275.926 555.974 272.292 555.974 M272.292 552.27 Q278.102 552.27 281.157 556.877 Q284.236 561.46 284.236 570.21 Q284.236 578.937 281.157 583.543 Q278.102 588.126 272.292 588.126 Q266.482 588.126 263.403 583.543 Q260.347 578.937 260.347 570.21 Q260.347 561.46 263.403 556.877 Q266.482 552.27 272.292 552.27 Z" fill="#000000" fill-rule="nonzero" fill-opacity="1" /><path clip-path="url(#clip210)" d="M284.236 546.371 L308.348 546.371 L308.348 549.569 L284.236 549.569 L284.236 546.371 Z" fill="#000000" fill-rule="nonzero" fill-opacity="1" /><path clip-path="url(#clip210)" d="M317.206 556.847 L323.413 556.847 L323.413 535.425 L316.661 536.779 L316.661 533.319 L323.375 531.965 L327.174 531.965 L327.174 556.847 L333.381 556.847 L333.381 560.045 L317.206 560.045 L317.206 556.847 Z" fill="#000000" fill-rule="nonzero" fill-opacity="1" /><path clip-path="url(#clip210)" d="M349.179 534.466 Q346.245 534.466 344.76 537.363 Q343.292 540.24 343.292 546.033 Q343.292 551.807 344.76 554.703 Q346.245 557.581 349.179 557.581 Q352.132 557.581 353.599 554.703 Q355.085 551.807 355.085 546.033 Q355.085 540.24 353.599 537.363 Q352.132 534.466 349.179 534.466 M349.179 531.457 Q353.9 531.457 356.383 535.2 Q358.884 538.924 358.884 546.033 Q358.884 553.123 356.383 556.866 Q353.9 560.59 349.179 560.59 Q344.459 560.59 341.957 556.866 Q339.475 553.123 339.475 546.033 Q339.475 538.924 341.957 535.2 Q344.459 531.457 349.179 531.457 Z" fill="#000000" fill-rule="nonzero" fill-opacity="1" /><path clip-path="url(#clip210)" d="M115.834 375.594 L138.056 375.594 L138.056 377.585 L125.51 410.154 L120.626 410.154 L132.431 379.529 L115.834 379.529 L115.834 375.594 Z" fill="#000000" fill-rule="nonzero" fill-opacity="1" /><path clip-path="url(#clip210)" d="M147.177 404.274 L152.061 404.274 L152.061 410.154 L147.177 410.154 L147.177 404.274 Z" fill="#000000" fill-rule="nonzero" fill-opacity="1" /><path clip-path="url(#clip210)" d="M172.246 378.673 Q168.635 378.673 166.806 382.237 Q165.001 385.779 165.001 392.909 Q165.001 400.015 166.806 403.58 Q168.635 407.122 172.246 407.122 Q175.88 407.122 177.686 403.58 Q179.514 400.015 179.514 392.909 Q179.514 385.779 177.686 382.237 Q175.88 378.673 172.246 378.673 M172.246 374.969 Q178.056 374.969 181.112 379.575 Q184.19 384.159 184.19 392.909 Q184.19 401.635 181.112 406.242 Q178.056 410.825 172.246 410.825 Q166.436 410.825 163.357 406.242 Q160.302 401.635 160.302 392.909 Q160.302 384.159 163.357 379.575 Q166.436 374.969 172.246 374.969 Z" fill="#000000" fill-rule="nonzero" fill-opacity="1" /><path clip-path="url(#clip210)" d="M220.579 384.691 L210 395.316 L220.579 405.895 L217.824 408.696 L207.199 398.071 L196.575 408.696 L193.843 405.895 L204.399 395.316 L193.843 384.691 L196.575 381.89 L207.199 392.515 L217.824 381.89 L220.579 384.691 Z" fill="#000000" fill-rule="nonzero" fill-opacity="1" /><path clip-path="url(#clip210)" d="M232.94 406.219 L240.579 406.219 L240.579 379.853 L232.269 381.52 L232.269 377.261 L240.533 375.594 L245.209 375.594 L245.209 406.219 L252.847 406.219 L252.847 410.154 L232.94 410.154 L232.94 406.219 Z" fill="#000000" fill-rule="nonzero" fill-opacity="1" /><path clip-path="url(#clip210)" d="M272.292 378.673 Q268.681 378.673 266.852 382.237 Q265.046 385.779 265.046 392.909 Q265.046 400.015 266.852 403.58 Q268.681 407.122 272.292 407.122 Q275.926 407.122 277.732 403.58 Q279.56 400.015 279.56 392.909 Q279.56 385.779 277.732 382.237 Q275.926 378.673 272.292 378.673 M272.292 374.969 Q278.102 374.969 281.157 379.575 Q284.236 384.159 284.236 392.909 Q284.236 401.635 281.157 406.242 Q278.102 410.825 272.292 410.825 Q266.482 410.825 263.403 406.242 Q260.347 401.635 260.347 392.909 Q260.347 384.159 263.403 379.575 Q266.482 374.969 272.292 374.969 Z" fill="#000000" fill-rule="nonzero" fill-opacity="1" /><path clip-path="url(#clip210)" d="M284.236 369.07 L308.348 369.07 L308.348 372.268 L284.236 372.268 L284.236 369.07 Z" fill="#000000" fill-rule="nonzero" fill-opacity="1" /><path clip-path="url(#clip210)" d="M317.206 379.546 L323.413 379.546 L323.413 358.124 L316.661 359.478 L316.661 356.018 L323.375 354.664 L327.174 354.664 L327.174 379.546 L333.381 379.546 L333.381 382.744 L317.206 382.744 L317.206 379.546 Z" fill="#000000" fill-rule="nonzero" fill-opacity="1" /><path clip-path="url(#clip210)" d="M349.179 357.165 Q346.245 357.165 344.76 360.061 Q343.292 362.939 343.292 368.732 Q343.292 374.506 344.76 377.402 Q346.245 380.28 349.179 380.28 Q352.132 380.28 353.599 377.402 Q355.085 374.506 355.085 368.732 Q355.085 362.939 353.599 360.061 Q352.132 357.165 349.179 357.165 M349.179 354.156 Q353.9 354.156 356.383 357.898 Q358.884 361.622 358.884 368.732 Q358.884 375.822 356.383 379.565 Q353.9 383.289 349.179 383.289 Q344.459 383.289 341.957 379.565 Q339.475 375.822 339.475 368.732 Q339.475 361.622 341.957 357.898 Q344.459 354.156 349.179 354.156 Z" fill="#000000" fill-rule="nonzero" fill-opacity="1" /><path clip-path="url(#clip210)" d="M127.015 216.441 Q123.681 216.441 121.76 218.223 Q119.862 220.006 119.862 223.131 Q119.862 226.256 121.76 228.038 Q123.681 229.82 127.015 229.82 Q130.348 229.82 132.269 228.038 Q134.191 226.232 134.191 223.131 Q134.191 220.006 132.269 218.223 Q130.371 216.441 127.015 216.441 M122.339 214.45 Q119.33 213.709 117.64 211.649 Q115.973 209.589 115.973 206.626 Q115.973 202.483 118.913 200.075 Q121.876 197.668 127.015 197.668 Q132.177 197.668 135.117 200.075 Q138.056 202.483 138.056 206.626 Q138.056 209.589 136.367 211.649 Q134.7 213.709 131.714 214.45 Q135.093 215.237 136.968 217.529 Q138.867 219.82 138.867 223.131 Q138.867 228.154 135.788 230.839 Q132.732 233.524 127.015 233.524 Q121.297 233.524 118.218 230.839 Q115.163 228.154 115.163 223.131 Q115.163 219.82 117.061 217.529 Q118.959 215.237 122.339 214.45 M120.626 207.066 Q120.626 209.751 122.293 211.256 Q123.982 212.76 127.015 212.76 Q130.024 212.76 131.714 211.256 Q133.427 209.751 133.427 207.066 Q133.427 204.381 131.714 202.876 Q130.024 201.371 127.015 201.371 Q123.982 201.371 122.293 202.876 Q120.626 204.381 120.626 207.066 Z" fill="#000000" fill-rule="nonzero" fill-opacity="1" /><path clip-path="url(#clip210)" d="M147.177 226.973 L152.061 226.973 L152.061 232.853 L147.177 232.853 L147.177 226.973 Z" fill="#000000" fill-rule="nonzero" fill-opacity="1" /><path clip-path="url(#clip210)" d="M172.246 201.371 Q168.635 201.371 166.806 204.936 Q165.001 208.478 165.001 215.608 Q165.001 222.714 166.806 226.279 Q168.635 229.82 172.246 229.82 Q175.88 229.82 177.686 226.279 Q179.514 222.714 179.514 215.608 Q179.514 208.478 177.686 204.936 Q175.88 201.371 172.246 201.371 M172.246 197.668 Q178.056 197.668 181.112 202.274 Q184.19 206.858 184.19 215.608 Q184.19 224.334 181.112 228.941 Q178.056 233.524 172.246 233.524 Q166.436 233.524 163.357 228.941 Q160.302 224.334 160.302 215.608 Q160.302 206.858 163.357 202.274 Q166.436 197.668 172.246 197.668 Z" fill="#000000" fill-rule="nonzero" fill-opacity="1" /><path clip-path="url(#clip210)" d="M220.579 207.39 L210 218.015 L220.579 228.594 L217.824 231.394 L207.199 220.77 L196.575 231.394 L193.843 228.594 L204.399 218.015 L193.843 207.39 L196.575 204.589 L207.199 215.214 L217.824 204.589 L220.579 207.39 Z" fill="#000000" fill-rule="nonzero" fill-opacity="1" /><path clip-path="url(#clip210)" d="M232.94 228.918 L240.579 228.918 L240.579 202.552 L232.269 204.219 L232.269 199.959 L240.533 198.293 L245.209 198.293 L245.209 228.918 L252.847 228.918 L252.847 232.853 L232.94 232.853 L232.94 228.918 Z" fill="#000000" fill-rule="nonzero" fill-opacity="1" /><path clip-path="url(#clip210)" d="M272.292 201.371 Q268.681 201.371 266.852 204.936 Q265.046 208.478 265.046 215.608 Q265.046 222.714 266.852 226.279 Q268.681 229.82 272.292 229.82 Q275.926 229.82 277.732 226.279 Q279.56 222.714 279.56 215.608 Q279.56 208.478 277.732 204.936 Q275.926 201.371 272.292 201.371 M272.292 197.668 Q278.102 197.668 281.157 202.274 Q284.236 206.858 284.236 215.608 Q284.236 224.334 281.157 228.941 Q278.102 233.524 272.292 233.524 Q266.482 233.524 263.403 228.941 Q260.347 224.334 260.347 215.608 Q260.347 206.858 263.403 202.274 Q266.482 197.668 272.292 197.668 Z" fill="#000000" fill-rule="nonzero" fill-opacity="1" /><path clip-path="url(#clip210)" d="M284.236 191.769 L308.348 191.769 L308.348 194.966 L284.236 194.966 L284.236 191.769 Z" fill="#000000" fill-rule="nonzero" fill-opacity="1" /><path clip-path="url(#clip210)" d="M317.206 202.245 L323.413 202.245 L323.413 180.823 L316.661 182.177 L316.661 178.717 L323.375 177.362 L327.174 177.362 L327.174 202.245 L333.381 202.245 L333.381 205.442 L317.206 205.442 L317.206 202.245 Z" fill="#000000" fill-rule="nonzero" fill-opacity="1" /><path clip-path="url(#clip210)" d="M349.179 179.864 Q346.245 179.864 344.76 182.76 Q343.292 185.638 343.292 191.431 Q343.292 197.205 344.76 200.101 Q346.245 202.979 349.179 202.979 Q352.132 202.979 353.599 200.101 Q355.085 197.205 355.085 191.431 Q355.085 185.638 353.599 182.76 Q352.132 179.864 349.179 179.864 M349.179 176.855 Q353.9 176.855 356.383 180.597 Q358.884 184.321 358.884 191.431 Q358.884 198.521 356.383 202.264 Q353.9 205.988 349.179 205.988 Q344.459 205.988 341.957 202.264 Q339.475 198.521 339.475 191.431 Q339.475 184.321 341.957 180.597 Q344.459 176.855 349.179 176.855 Z" fill="#000000" fill-rule="nonzero" fill-opacity="1" /><path clip-path="url(#clip210)" d="M14.479 902.328 L14.479 896.471 L64.0042 896.471 L64.0042 902.328 L14.479 902.328 Z" fill="#000000" fill-rule="nonzero" fill-opacity="1" /><path clip-path="url(#clip210)" d="M14.5426 870.149 Q21.8632 874.414 29.0246 876.483 Q36.186 878.552 43.5384 878.552 Q50.8908 878.552 58.1159 876.483 Q65.3091 874.382 72.5979 870.149 L72.5979 875.242 Q65.1182 880.016 57.8931 882.403 Q50.668 884.758 43.5384 884.758 Q36.4406 884.758 29.2474 882.403 Q22.0542 880.048 14.5426 875.242 L14.5426 870.149 Z" fill="#000000" fill-rule="nonzero" fill-opacity="1" /><path clip-path="url(#clip210)" d="M14.479 858.786 L14.479 852.93 L64.0042 852.93 L64.0042 858.786 L14.479 858.786 Z" fill="#000000" fill-rule="nonzero" fill-opacity="1" /><path clip-path="url(#clip210)" d="M23.1363 816.836 L40.8648 816.836 L40.8648 799.108 L46.2757 799.108 L46.2757 816.836 L64.0042 816.836 L64.0042 822.183 L46.2757 822.183 L46.2757 839.912 L40.8648 839.912 L40.8648 822.183 L23.1363 822.183 L23.1363 816.836 Z" fill="#000000" fill-rule="nonzero" fill-opacity="1" /><path clip-path="url(#clip210)" d="M58.5933 784.117 L58.5933 773.613 L22.3406 773.613 L24.6323 785.04 L18.7758 785.04 L16.4842 773.677 L16.4842 767.247 L58.5933 767.247 L58.5933 756.744 L64.0042 756.744 L64.0042 784.117 L58.5933 784.117 Z" fill="#000000" fill-rule="nonzero" fill-opacity="1" /><path clip-path="url(#clip210)" d="M14.5426 745.508 L14.5426 740.416 Q22.0542 735.642 29.2474 733.286 Q36.4406 730.899 43.5384 730.899 Q50.668 730.899 57.8931 733.286 Q65.1182 735.642 72.5979 740.416 L72.5979 745.508 Q65.3091 741.275 58.1159 739.206 Q50.8908 737.106 43.5384 737.106 Q36.186 737.106 29.0246 739.206 Q21.8632 741.275 14.5426 745.508 Z" fill="#000000" fill-rule="nonzero" fill-opacity="1" /><path clip-path="url(#clip210)" d="M20.1444 683.316 L26.9239 683.316 Q23.9002 686.562 22.4043 690.254 Q20.9083 693.914 20.9083 698.052 Q20.9083 706.2 25.9054 710.529 Q30.8707 714.858 40.2919 714.858 Q49.6813 714.858 54.6784 710.529 Q59.6436 706.2 59.6436 698.052 Q59.6436 693.914 58.1477 690.254 Q56.6518 686.562 53.6281 683.316 L60.3439 683.316 Q62.6355 686.689 63.7814 690.477 Q64.9272 694.233 64.9272 698.434 Q64.9272 709.224 58.3387 715.431 Q51.7183 721.637 40.2919 721.637 Q28.8336 721.637 22.2451 715.431 Q15.6248 709.224 15.6248 698.434 Q15.6248 694.169 16.7706 690.413 Q17.8846 686.626 20.1444 683.316 Z" fill="#000000" fill-rule="nonzero" fill-opacity="1" /><path clip-path="url(#clip210)" d="M36.2815 675.899 L36.2815 672.207 L64.0042 672.207 L64.0042 675.899 L36.2815 675.899 Z" fill="#000000" fill-rule="nonzero" fill-opacity="1" /><path clip-path="url(#clip210)" d="M16.4842 652.41 L16.4842 646.999 L70.0516 663.55 L70.0516 668.961 L16.4842 652.41 Z" fill="#000000" fill-rule="nonzero" fill-opacity="1" /><path clip-path="url(#clip210)" d="M58.5933 634.491 L58.5933 612.051 L64.0042 612.051 L64.0042 642.225 L58.5933 642.225 Q54.8057 638.565 48.44 632.263 Q42.0425 625.929 40.1964 624.305 Q36.7271 621.218 34.34 620.009 Q31.921 618.767 29.5975 618.767 Q25.8099 618.767 23.4228 621.441 Q21.0356 624.083 21.0356 628.348 Q21.0356 631.371 22.086 634.745 Q23.1363 638.087 25.2688 641.907 L18.7758 641.907 Q17.2162 638.024 16.4205 634.65 Q15.6248 631.276 15.6248 628.475 Q15.6248 621.091 19.3169 616.698 Q23.009 612.306 29.1837 612.306 Q32.112 612.306 34.7537 613.42 Q37.3637 614.502 40.9285 617.399 Q41.8515 618.194 46.2757 622.459 Q50.668 626.724 58.5933 634.491 Z" fill="#000000" fill-rule="nonzero" fill-opacity="1" /><path clip-path="url(#clip210)" d="M28.3562 603.171 L28.3562 569.019 L34.2127 569.019 L34.2127 573.507 L56.1107 573.507 Q58.4023 573.507 59.4208 572.743 Q60.4075 571.948 60.4075 570.197 Q60.4075 569.72 60.3439 569.019 Q60.2484 568.319 60.2166 568.096 L64.4498 568.096 Q64.8635 569.21 65.0545 570.388 Q65.2455 571.566 65.2455 572.743 Q65.2455 576.563 63.1766 578.027 Q61.0759 579.491 55.4741 579.491 L34.2127 579.491 L34.2127 592.636 L64.0042 592.636 L64.0042 598.62 L34.2127 598.62 L34.2127 603.171 L28.3562 603.171 Z" fill="#000000" fill-rule="nonzero" fill-opacity="1" /><path clip-path="url(#clip211)" d="M450.296 1384.24 L452.22 1378.75 L454.144 1373.43 L456.068 1368.26 L457.992 1363.23 L459.916 1358.34 L461.84 1353.57 L463.764 1348.89 L465.688 1344.31 L467.612 1339.79 L469.536 1335.31 L471.46 1330.85 L473.384 1326.39 L475.308 1321.9 L477.232 1317.35 L479.156 1312.71 L481.08 1307.95 L483.004 1303.03 L484.928 1297.93 L486.852 1292.59 L488.776 1286.99 L490.7 1281.26 L492.624 1275.58 L494.548 1269.94 L496.472 1264.33 L498.396 1258.75 L500.32 1253.19 L502.244 1247.64 L504.168 1242.1 L506.092 1236.54 L508.016 1230.97 L509.94 1225.38 L511.864 1219.75 L513.788 1214.07 L515.712 1208.33 L517.636 1202.52 L519.56 1196.63 L521.484 1190.63 L523.408 1184.53 L525.332 1178.29 L527.256 1171.92 L529.18 1165.47 L531.104 1159.02 L533.028 1152.57 L534.952 1146.12 L536.876 1139.65 L538.8 1133.17 L540.724 1126.67 L542.648 1120.14 L544.572 1113.59 L546.496 1107 L548.42 1100.37 L550.344 1093.7 L552.268 1086.97 L554.192 1080.19 L556.116 1073.34 L558.04 1066.43 L559.964 1059.43 L561.888 1052.35 L563.812 1045.18 L565.736 1037.91 L567.66 1030.58 L569.584 1023.25 L571.508 1015.91 L573.432 1008.57 L575.356 1001.21 L577.28 993.837 L579.204 986.451 L581.128 979.049 L583.052 971.627 L584.976 964.184 L586.9 956.718 L588.824 949.225 L590.748 941.704 L592.672 934.151 L594.596 926.564 L596.52 918.941 L598.444 911.277 L600.368 903.571 L602.292 895.818 L604.216 888.017 L606.14 880.19 L608.064 872.365 L609.988 864.539 L611.912 856.713 L613.836 848.886 L615.76 841.057 L617.684 833.225 L619.608 825.39 L621.532 817.549 L623.456 809.704 L625.38 801.851 L627.304 793.991 L629.228 786.122 L631.152 778.243 L633.076 770.354 L635 762.451 L636.924 754.535 L638.849 746.604 L640.773 738.657 L642.697 730.692 L644.621 722.732 L646.545 714.8 L648.469 706.897 L650.393 699.024 L652.317 691.182 L654.241 683.37 L656.165 675.589 L658.089 667.84 L660.013 660.123 L661.937 652.439 L663.861 644.787 L665.785 637.169 L667.709 629.585 L669.633 622.035 L671.557 614.52 L673.481 607.04 L675.405 599.594 L677.329 592.185 L679.253 584.811 L681.177 577.474 L683.101 570.183 L685.025 562.949 L686.949 555.772 L688.873 548.654 L690.797 541.596 L692.721 534.599 L694.645 527.663 L696.569 520.79 L698.493 513.98 L700.417 507.235 L702.341 500.556 L704.265 493.943 L706.189 487.398 L708.113 480.92 L710.037 474.512 L711.961 468.175 L713.885 461.908 L715.809 455.714 L717.733 449.592 L719.657 443.544 L721.581 437.578 L723.505 431.7 L725.429 425.914 L727.353 420.219 L729.277 414.618 L731.201 409.111 L733.125 403.7 L735.049 398.387 L736.973 393.172 L738.897 388.057 L740.821 383.043 L742.745 378.132 L744.669 373.325 L746.593 368.623 L748.517 364.028 L750.441 359.54 L752.365 355.162 L754.289 350.895 L756.213 346.739 L758.137 342.697 L760.061 338.766 L761.985 334.945 L763.909 331.235 L765.833 327.637 L767.757 324.152 L769.681 320.782 L771.605 317.528 L773.529 314.39 L775.453 311.37 L777.377 308.468 L779.301 305.687 L781.225 303.027 L783.149 300.489 L785.073 298.075 L786.997 295.785 L788.921 293.621 L790.845 291.583 L792.769 289.674 L794.693 287.893 L796.617 286.242 L798.541 284.719 L800.465 283.319 L802.389 282.045 L804.313 280.896 L806.237 279.875 L808.161 278.981 L810.085 278.215 L812.009 277.579 L813.933 277.074 L815.857 276.699 L817.781 276.456 L819.705 276.346 L821.629 276.369 L823.553 276.526 L825.477 276.819 L827.401 277.248 L829.325 277.814 L831.249 278.517 L833.173 279.358 L835.097 280.339 L837.021 281.45 L838.945 282.681 L840.869 284.033 L842.793 285.507 L844.717 287.101 L846.641 288.818 L848.566 290.656 L850.49 292.616 L852.414 294.699 L854.338 296.904 L856.262 299.232 L858.186 301.683 L860.11 304.256 L862.034 306.954 L863.958 309.774 L865.882 312.718 L867.806 315.786 L869.73 318.978 L871.654 322.294 L873.578 325.734 L875.502 329.29 L877.426 332.953 L879.35 336.723 L881.274 340.599 L883.198 344.582 L885.122 348.671 L887.046 352.865 L888.97 357.164 L890.894 361.568 L892.818 366.077 L894.742 370.69 L896.666 375.406 L898.59 380.225 L900.514 385.147 L902.438 390.172 L904.362 395.298 L906.286 400.526 L908.21 405.855 L910.134 411.284 L912.058 416.812 L913.982 422.431 L915.906 428.131 L917.83 433.909 L919.754 439.765 L921.678 445.699 L923.602 451.709 L925.526 457.794 L927.45 463.953 L929.374 470.185 L931.298 476.49 L933.222 482.865 L935.146 489.31 L937.07 495.825 L938.994 502.407 L940.918 509.055 L942.842 515.769 L944.766 522.547 L946.69 529.389 L948.614 536.292 L950.538 543.256 L952.462 550.275 L954.386 557.34 L956.31 564.45 L958.234 571.605 L960.158 578.802 L962.082 586.041 L964.006 593.318 L965.93 600.634 L967.854 607.986 L969.778 615.373 L971.702 622.793 L973.626 630.245 L975.55 637.726 L977.474 645.236 L979.398 652.773 L981.322 660.334 L983.246 667.918 L985.17 675.524 L987.094 683.15 L989.018 690.793 L990.942 698.451 L992.866 706.119 L994.79 713.794 L996.714 721.476 L998.638 729.162 L1000.56 736.85 L1002.49 744.538 L1004.41 752.225 L1006.33 759.908 L1008.26 767.585 L1010.18 775.255 L1012.11 782.915 L1014.03 790.563 L1015.95 798.197 L1017.88 805.816 L1019.8 813.416 L1021.73 820.996 L1023.65 828.554 L1025.57 836.087 L1027.5 843.593 L1029.42 851.075 L1031.35 858.533 L1033.27 865.966 L1035.19 873.371 L1037.12 880.748 L1039.04 888.092 L1040.97 895.403 L1042.89 902.678 L1044.81 909.914 L1046.74 917.11 L1048.66 924.264 L1050.59 931.373 L1052.51 938.435 L1054.43 945.447 L1056.36 952.408 L1058.28 959.315 L1060.21 966.166 L1062.13 972.958 L1064.05 979.689 L1065.98 986.357 L1067.9 992.968 L1069.83 999.527 L1071.75 1006.03 L1073.67 1012.48 L1075.6 1018.87 L1077.52 1025.21 L1079.45 1031.48 L1081.37 1037.68 L1083.29 1043.82 L1085.22 1049.89 L1087.14 1055.89 L1089.07 1061.81 L1090.99 1067.66 L1092.91 1073.43 L1094.84 1079.12 L1096.76 1084.73 L1098.69 1090.25 L1100.61 1095.69 L1102.53 1101.03 L1104.46 1106.29 L1106.38 1111.46 L1108.31 1116.56 L1110.23 1121.6 L1112.15 1126.56 L1114.08 1131.44 L1116 1136.25 L1117.93 1140.99 L1119.85 1145.64 L1121.77 1150.21 L1123.7 1154.69 L1125.62 1159.09 L1127.55 1163.39 L1129.47 1167.61 L1131.39 1171.74 L1133.32 1175.76 L1135.24 1179.69 L1137.17 1183.53 L1139.09 1187.26 L1141.01 1190.88 L1142.94 1194.4 L1144.86 1197.83 L1146.79 1201.19 L1148.71 1204.46 L1150.63 1207.66 L1152.56 1210.78 L1154.48 1213.82 L1156.41 1216.77 L1158.33 1219.64 L1160.25 1222.42 L1162.18 1225.11 L1164.1 1227.71 L1166.03 1230.21 L1167.95 1232.63 L1169.88 1234.94 L1171.8 1237.16 L1173.72 1239.28 L1175.65 1241.3 L1177.57 1243.21 L1179.5 1245.02 L1181.42 1246.72 L1183.34 1248.34 L1185.27 1249.88 L1187.19 1251.35 L1189.12 1252.75 L1191.04 1254.07 L1192.96 1255.32 L1194.89 1256.49 L1196.81 1257.58 L1198.74 1258.6 L1200.66 1259.53 L1202.58 1260.38 L1204.51 1261.14 L1206.43 1261.82 L1208.36 1262.42 L1210.28 1262.93 L1212.2 1263.34 L1214.13 1263.67 L1216.05 1263.91 L1217.98 1264.05 L1219.9 1264.09 L1221.82 1264.07 L1223.75 1263.98 L1225.67 1263.84 L1227.6 1263.64 L1229.52 1263.38 L1231.44 1263.07 L1233.37 1262.69 L1235.29 1262.25 L1237.22 1261.75 L1239.14 1261.19 L1241.06 1260.56 L1242.99 1259.87 L1244.91 1259.12 L1246.84 1258.29 L1248.76 1257.4 L1250.68 1256.44 L1252.61 1255.41 L1254.53 1254.31 L1256.46 1253.15 L1258.38 1251.9 L1260.3 1250.61 L1262.23 1249.28 L1264.15 1247.91 L1266.08 1246.51 L1268 1245.07 L1269.92 1243.59 L1271.85 1242.07 L1273.77 1240.52 L1275.7 1238.93 L1277.62 1237.3 L1279.54 1235.63 L1281.47 1233.91 L1283.39 1232.16 L1285.32 1230.37 L1287.24 1228.54 L1289.16 1226.66 L1291.09 1224.74 L1293.01 1222.78 L1294.94 1220.78 L1296.86 1218.73 L1298.78 1216.65 L1300.71 1214.57 L1302.63 1212.47 L1304.56 1210.35 L1306.48 1208.23 L1308.4 1206.09 L1310.33 1203.94 L1312.25 1201.78 L1314.18 1199.6 L1316.1 1197.42 L1318.02 1195.22 L1319.95 1193 L1321.87 1190.78 L1323.8 1188.54 L1325.72 1186.29 L1327.64 1184.02 L1329.57 1181.74 L1331.49 1179.45 L1333.42 1177.14 L1335.34 1174.83 L1337.26 1172.5 L1339.19 1170.19 L1341.11 1167.89 L1343.04 1165.6 L1344.96 1163.33 L1346.88 1161.06 L1348.81 1158.8 L1350.73 1156.56 L1352.66 1154.32 L1354.58 1152.1 L1356.5 1149.89 L1358.43 1147.7 L1360.35 1145.51 L1362.28 1143.34 L1364.2 1141.18 L1366.12 1139.04 L1368.05 1136.9 L1369.97 1134.79 L1371.9 1132.68 L1373.82 1130.59 L1375.74 1128.52 L1377.67 1126.48 L1379.59 1124.47 L1381.52 1122.48 L1383.44 1120.52 L1385.36 1118.6 L1387.29 1116.7 L1389.21 1114.83 L1391.14 1113 L1393.06 1111.19 L1394.98 1109.42 L1396.91 1107.68 L1398.83 1105.97 L1400.76 1104.29 L1402.68 1102.64 L1404.6 1101.03 L1406.53 1099.45 L1408.45 1097.91 L1410.38 1096.4 L1412.3 1094.93 L1414.22 1093.49 L1416.15 1092.09 L1418.07 1090.73 L1420 1089.42 L1421.92 1088.14 L1423.84 1086.91 L1425.77 1085.72 L1427.69 1084.57 L1429.62 1083.46 L1431.54 1082.4 L1433.46 1081.38 L1435.39 1080.41 L1437.31 1079.48 L1439.24 1078.59 L1441.16 1077.75 L1443.08 1076.96 L1445.01 1076.21 L1446.93 1075.52 L1448.86 1074.87 L1450.78 1074.26 L1452.7 1073.71 L1454.63 1073.19 L1456.55 1072.72 L1458.48 1072.29 L1460.4 1071.9 L1462.32 1071.56 L1464.25 1071.27 L1466.17 1071.01 L1468.1 1070.8 L1470.02 1070.64 L1471.94 1070.53 L1473.87 1070.46 L1475.79 1070.43 L1477.72 1070.46 L1479.64 1070.53 L1481.56 1070.65 L1483.49 1070.82 L1485.41 1071.04 L1487.34 1071.31 L1489.26 1071.62 L1491.18 1071.99 L1493.11 1072.39 L1495.03 1072.83 L1496.96 1073.31 L1498.88 1073.83 L1500.8 1074.39 L1502.73 1074.99 L1504.65 1075.63 L1506.58 1076.31 L1508.5 1077.04 L1510.42 1077.81 L1512.35 1078.62 L1514.27 1079.47 L1516.2 1080.36 L1518.12 1081.3 L1520.04 1082.28 L1521.97 1083.31 L1523.89 1084.38 L1525.82 1085.49 L1527.74 1086.65 L1529.66 1087.85 L1531.59 1089.07 L1533.51 1090.32 L1535.44 1091.6 L1537.36 1092.91 L1539.28 1094.24 L1541.21 1095.6 L1543.13 1096.99 L1545.06 1098.41 L1546.98 1099.85 L1548.9 1101.33 L1550.83 1102.83 L1552.75 1104.36 L1554.68 1105.92 L1556.6 1107.51 L1558.52 1109.13 L1560.45 1110.77 L1562.37 1112.45 L1564.3 1114.16 L1566.22 1115.9 L1568.14 1117.66 L1570.07 1119.43 L1571.99 1121.22 L1573.92 1123.02 L1575.84 1124.84 L1577.76 1126.67 L1579.69 1128.52 L1581.61 1130.38 L1583.54 1132.26 L1585.46 1134.15 L1587.39 1136.06 L1589.31 1137.98 L1591.23 1139.91 L1593.16 1141.86 L1595.08 1143.83 L1597.01 1145.81 L1598.93 1147.8 L1600.85 1149.81 L1602.78 1151.83 L1604.7 1153.87 L1606.63 1155.92 L1608.55 1157.96 L1610.47 1159.99 L1612.4 1162.02 L1614.32 1164.05 L1616.25 1166.07 L1618.17 1168.09 L1620.09 1170.11 L1622.02 1172.11 L1623.94 1174.12 L1625.87 1176.11 L1627.79 1178.1 L1629.71 1180.09 L1631.64 1182.07 L1633.56 1184.04 L1635.49 1186.01 L1637.41 1187.97 L1639.33 1189.92 L1641.26 1191.87 L1643.18 1193.81 L1645.11 1195.73 L1647.03 1197.64 L1648.95 1199.54 L1650.88 1201.42 L1652.8 1203.28 L1654.73 1205.12 L1656.65 1206.95 L1658.57 1208.76 L1660.5 1210.55 L1662.42 1212.32 L1664.35 1214.08 L1666.27 1215.82 L1668.19 1217.53 L1670.12 1219.23 L1672.04 1220.91 L1673.97 1222.57 L1675.89 1224.2 L1677.81 1225.82 L1679.74 1227.42 L1681.66 1228.99 L1683.59 1230.54 L1685.51 1232.06 L1687.43 1233.55 L1689.36 1235.01 L1691.28 1236.43 L1693.21 1237.83 L1695.13 1239.19 L1697.05 1240.51 L1698.98 1241.81 L1700.9 1243.07 L1702.83 1244.3 L1704.75 1245.49 L1706.67 1246.65 L1708.6 1247.77 L1710.52 1248.86 L1712.45 1249.91 L1714.37 1250.92 L1716.29 1251.9 L1718.22 1252.84 L1720.14 1253.75 L1722.07 1254.61 L1723.99 1255.45 L1725.91 1256.25 L1727.84 1257.02 L1729.76 1257.76 L1731.69 1258.46 L1733.61 1259.13 L1735.53 1259.77 L1737.46 1260.37 L1739.38 1260.93 L1741.31 1261.46 L1743.23 1261.95 L1745.15 1262.41 L1747.08 1262.83 L1749 1263.21 L1750.93 1263.56 L1752.85 1263.86 L1754.77 1264.13 L1756.7 1264.37 L1758.62 1264.56 L1760.55 1264.71 L1762.47 1264.83 L1764.39 1264.91 L1766.32 1264.95 L1768.24 1264.96 L1770.17 1264.92 L1772.09 1264.85 L1774.01 1264.73 L1775.94 1264.58 L1777.86 1264.39 L1779.79 1264.15 L1781.71 1263.88 L1783.63 1263.56 L1785.56 1263.21 L1787.48 1262.81 L1789.41 1262.37 L1791.33 1261.89 L1793.25 1261.36 L1795.18 1260.79 L1797.1 1260.18 L1799.03 1259.53 L1800.95 1258.86 L1802.87 1258.16 L1804.8 1257.43 L1806.72 1256.67 L1808.65 1255.89 L1810.57 1255.08 L1812.49 1254.24 L1814.42 1253.38 L1816.34 1252.48 L1818.27 1251.56 L1820.19 1250.61 L1822.11 1249.62 L1824.04 1248.61 L1825.96 1247.57 L1827.89 1246.5 L1829.81 1245.4 L1831.73 1244.27 L1833.66 1243.11 L1835.58 1241.92 L1837.51 1240.7 L1839.43 1239.46 L1841.35 1238.2 L1843.28 1236.92 L1845.2 1235.62 L1847.13 1234.29 L1849.05 1232.94 L1850.97 1231.57 L1852.9 1230.17 L1854.82 1228.75 L1856.75 1227.31 L1858.67 1225.84 L1860.59 1224.36 L1862.52 1222.84 L1864.44 1221.31 L1866.37 1219.75 L1868.29 1218.17 L1870.21 1216.56 L1872.14 1214.93 L1874.06 1213.27 L1875.99 1211.6 L1877.91 1209.92 L1879.83 1208.25 L1881.76 1206.57 L1883.68 1204.89 L1885.61 1203.2 L1887.53 1201.51 L1889.45 1199.82 L1891.38 1198.13 L1893.3 1196.43 L1895.23 1194.73 L1897.15 1193.03 L1899.07 1191.33 L1901 1189.62 L1902.92 1187.91 L1904.85 1186.19 L1906.77 1184.48 L1908.69 1182.76 L1910.62 1181.04 L1912.54 1179.31 L1914.47 1177.59 L1916.39 1175.87 L1918.31 1174.16 L1920.24 1172.45 L1922.16 1170.74 L1924.09 1169.05 L1926.01 1167.35 L1927.93 1165.67 L1929.86 1163.99 L1931.78 1162.31 L1933.71 1160.64 L1935.63 1158.97 L1937.55 1157.32 L1939.48 1155.66 L1941.4 1154.02 L1943.33 1152.37 L1945.25 1150.74 L1947.17 1149.11 L1949.1 1147.49 L1951.02 1145.87 L1952.95 1144.27 L1954.87 1142.69 L1956.79 1141.14 L1958.72 1139.61 L1960.64 1138.11 L1962.57 1136.63 L1964.49 1135.17 L1966.41 1133.75 L1968.34 1132.34 L1970.26 1130.97 L1972.19 1129.62 L1974.11 1128.29 L1976.03 1126.99 L1977.96 1125.72 L1979.88 1124.48 L1981.81 1123.26 L1983.73 1122.07 L1985.65 1120.91 L1987.58 1119.78 L1989.5 1118.67 L1991.43 1117.59 L1993.35 1116.54 L1995.27 1115.51 L1997.2 1114.51 L1999.12 1113.54 L2001.05 1112.6 L2002.97 1111.69 L2004.9 1110.8 L2006.82 1109.94 L2008.74 1109.11 L2010.67 1108.31 L2012.59 1107.54 L2014.52 1106.8 L2016.44 1106.08 L2018.36 1105.4 L2020.29 1104.74 L2022.21 1104.12 L2024.14 1103.53 L2026.06 1102.96 L2027.98 1102.43 L2029.91 1101.93 L2031.83 1101.47 L2033.76 1101.05 L2035.68 1100.67 L2037.6 1100.33 L2039.53 1100.03 L2041.45 1099.77 L2043.38 1099.56 L2045.3 1099.38 L2047.22 1099.24 L2049.15 1099.15 L2051.07 1099.1 L2053 1099.09 L2054.92 1099.12 L2056.84 1099.2 L2058.77 1099.32 L2060.69 1099.48 L2062.62 1099.68 L2064.54 1099.93 L2066.46 1100.23 L2068.39 1100.56 L2070.31 1100.92 L2072.24 1101.32 L2074.16 1101.75 L2076.08 1102.22 L2078.01 1102.71 L2079.93 1103.24 L2081.86 1103.81 L2083.78 1104.41 L2085.7 1105.04 L2087.63 1105.71 L2089.55 1106.41 L2091.48 1107.15 L2093.4 1107.92 L2095.32 1108.73 L2097.25 1109.57 L2099.17 1110.45 L2101.1 1111.36 L2103.02 1112.31 L2104.94 1113.3 L2106.87 1114.32 L2108.79 1115.38 L2110.72 1116.47 L2112.64 1117.6 L2114.56 1118.77 L2116.49 1119.98 L2118.41 1121.22 L2120.34 1122.5 L2122.26 1123.81 L2124.18 1125.17 L2126.11 1126.56 L2128.03 1127.99 L2129.96 1129.45 L2131.88 1130.96 L2133.8 1132.5 L2135.73 1134.09 L2137.65 1135.71 L2139.58 1137.37 L2141.5 1139.07 L2143.42 1140.82 L2145.35 1142.59 L2147.27 1144.38 L2149.2 1146.19 L2151.12 1148.02 L2153.04 1149.87 L2154.97 1151.74 L2156.89 1153.62 L2158.82 1155.53 L2160.74 1157.46 L2162.66 1159.41 L2164.59 1161.38 L2166.51 1163.38 L2168.44 1165.39 L2170.36 1167.42 L2172.28 1169.47 L2174.21 1171.54 L2176.13 1173.64 L2178.06 1175.75 L2179.98 1177.89 L2181.9 1180.04 L2183.83 1182.22 L2185.75 1184.41 L2187.68 1186.62 L2189.6 1188.85 L2191.52 1191.1 L2193.45 1193.36 L2195.37 1195.64 L2197.3 1197.94 L2199.22 1200.26 L2201.14 1202.59 L2203.07 1204.95 L2204.99 1207.32 L2206.92 1209.71 L2208.84 1212.11 L2210.76 1214.54 L2212.69 1216.98 L2214.61 1219.45 L2216.54 1221.93 L2218.46 1224.43 L2220.38 1226.94 L2222.31 1229.47 L2224.23 1231.99 L2226.16 1234.51 L2228.08 1237.02 L2230 1239.54 L2231.93 1242.04 L2233.85 1244.55 L2235.78 1247.05 L2237.7 1249.55 L2239.62 1252.04 L2241.55 1254.53 L2243.47 1257.02 L2245.4 1259.5 L2247.32 1261.98 L2249.24 1264.45 L2251.17 1266.92 L2253.09 1269.39 L2255.02 1271.85 L2256.94 1274.31 L2258.86 1276.76 L2260.79 1279.2 L2262.71 1281.65 L2264.64 1284.08 L2266.56 1286.52 L2268.48 1288.94 L2270.41 1291.36 L2272.33 1293.78 L2274.26 1296.19 L2276.18 1298.6 L2278.1 1301 L2280.03 1303.4 L2281.95 1305.79 L2283.88 1308.17 L2285.8 1310.55 L2287.72 1312.92 L2289.65 1315.29 L2291.57 1317.65 L2293.5 1320 L2295.42 1322.35 L2297.34 1324.69 L2297.34 1304.91 L2295.42 1302.41 L2293.5 1299.9 L2291.57 1297.38 L2289.65 1294.85 L2287.72 1292.32 L2285.8 1289.79 L2283.88 1287.24 L2281.95 1284.69 L2280.03 1282.13 L2278.1 1279.57 L2276.18 1277 L2274.26 1274.42 L2272.33 1271.84 L2270.41 1269.25 L2268.48 1266.66 L2266.56 1264.06 L2264.64 1261.46 L2262.71 1258.85 L2260.79 1256.23 L2258.86 1253.61 L2256.94 1250.99 L2255.02 1248.36 L2253.09 1245.72 L2251.17 1243.08 L2249.24 1240.43 L2247.32 1237.78 L2245.4 1235.13 L2243.47 1232.47 L2241.55 1229.81 L2239.62 1227.14 L2237.7 1224.46 L2235.78 1221.79 L2233.85 1219.11 L2231.93 1216.42 L2230 1213.73 L2228.08 1211.04 L2226.16 1208.34 L2224.23 1205.64 L2222.31 1202.94 L2220.38 1200.23 L2218.46 1197.53 L2216.54 1194.85 L2214.61 1192.19 L2212.69 1189.55 L2210.76 1186.92 L2208.84 1184.32 L2206.92 1181.74 L2204.99 1179.17 L2203.07 1176.63 L2201.14 1174.1 L2199.22 1171.6 L2197.3 1169.11 L2195.37 1166.64 L2193.45 1164.19 L2191.52 1161.76 L2189.6 1159.34 L2187.68 1156.95 L2185.75 1154.57 L2183.83 1152.21 L2181.9 1149.88 L2179.98 1147.56 L2178.06 1145.26 L2176.13 1142.99 L2174.21 1140.74 L2172.28 1138.51 L2170.36 1136.3 L2168.44 1134.11 L2166.51 1131.95 L2164.59 1129.8 L2162.66 1127.68 L2160.74 1125.58 L2158.82 1123.5 L2156.89 1121.45 L2154.97 1119.41 L2153.04 1117.4 L2151.12 1115.4 L2149.2 1113.43 L2147.27 1111.48 L2145.35 1109.55 L2143.42 1107.64 L2141.5 1105.76 L2139.58 1103.92 L2137.65 1102.13 L2135.73 1100.38 L2133.8 1098.66 L2131.88 1097 L2129.96 1095.37 L2128.03 1093.78 L2126.11 1092.23 L2124.18 1090.73 L2122.26 1089.26 L2120.34 1087.83 L2118.41 1086.45 L2116.49 1085.1 L2114.56 1083.79 L2112.64 1082.53 L2110.72 1081.3 L2108.79 1080.11 L2106.87 1078.96 L2104.94 1077.84 L2103.02 1076.77 L2101.1 1075.73 L2099.17 1074.73 L2097.25 1073.77 L2095.32 1072.85 L2093.4 1071.97 L2091.48 1071.12 L2089.55 1070.32 L2087.63 1069.54 L2085.7 1068.81 L2083.78 1068.11 L2081.86 1067.45 L2079.93 1066.82 L2078.01 1066.24 L2076.08 1065.68 L2074.16 1065.16 L2072.24 1064.68 L2070.31 1064.24 L2068.39 1063.82 L2066.46 1063.45 L2064.54 1063.11 L2062.62 1062.82 L2060.69 1062.58 L2058.77 1062.39 L2056.84 1062.24 L2054.92 1062.13 L2053 1062.08 L2051.07 1062.07 L2049.15 1062.1 L2047.22 1062.18 L2045.3 1062.3 L2043.38 1062.47 L2041.45 1062.68 L2039.53 1062.93 L2037.6 1063.23 L2035.68 1063.57 L2033.76 1063.96 L2031.83 1064.38 L2029.91 1064.85 L2027.98 1065.36 L2026.06 1065.91 L2024.14 1066.49 L2022.21 1067.11 L2020.29 1067.75 L2018.36 1068.43 L2016.44 1069.14 L2014.52 1069.88 L2012.59 1070.66 L2010.67 1071.46 L2008.74 1072.3 L2006.82 1073.16 L2004.9 1074.06 L2002.97 1074.99 L2001.05 1075.94 L1999.12 1076.93 L1997.2 1077.95 L1995.27 1079 L1993.35 1080.07 L1991.43 1081.18 L1989.5 1082.31 L1987.58 1083.47 L1985.65 1084.67 L1983.73 1085.89 L1981.81 1087.14 L1979.88 1088.42 L1977.96 1089.74 L1976.03 1091.08 L1974.11 1092.44 L1972.19 1093.84 L1970.26 1095.27 L1968.34 1096.72 L1966.41 1098.2 L1964.49 1099.71 L1962.57 1101.24 L1960.64 1102.81 L1958.72 1104.4 L1956.79 1106.01 L1954.87 1107.66 L1952.95 1109.33 L1951.02 1111.02 L1949.1 1112.73 L1947.17 1114.45 L1945.25 1116.18 L1943.33 1117.91 L1941.4 1119.65 L1939.48 1121.39 L1937.55 1123.15 L1935.63 1124.9 L1933.71 1126.67 L1931.78 1128.44 L1929.86 1130.21 L1927.93 1132 L1926.01 1133.79 L1924.09 1135.58 L1922.16 1137.38 L1920.24 1139.19 L1918.31 1141 L1916.39 1142.82 L1914.47 1144.64 L1912.54 1146.47 L1910.62 1148.3 L1908.69 1150.12 L1906.77 1151.95 L1904.85 1153.77 L1902.92 1155.59 L1901 1157.4 L1899.07 1159.21 L1897.15 1161.02 L1895.23 1162.83 L1893.3 1164.63 L1891.38 1166.44 L1889.45 1168.23 L1887.53 1170.03 L1885.61 1171.82 L1883.68 1173.61 L1881.76 1175.4 L1879.83 1177.18 L1877.91 1178.96 L1875.99 1180.74 L1874.06 1182.51 L1872.14 1184.27 L1870.21 1186 L1868.29 1187.71 L1866.37 1189.39 L1864.44 1191.05 L1862.52 1192.68 L1860.59 1194.28 L1858.67 1195.86 L1856.75 1197.42 L1854.82 1198.94 L1852.9 1200.45 L1850.97 1201.93 L1849.05 1203.38 L1847.13 1204.82 L1845.2 1206.22 L1843.28 1207.61 L1841.35 1208.97 L1839.43 1210.3 L1837.51 1211.61 L1835.58 1212.9 L1833.66 1214.16 L1831.73 1215.39 L1829.81 1216.59 L1827.89 1217.75 L1825.96 1218.88 L1824.04 1219.98 L1822.11 1221.05 L1820.19 1222.08 L1818.27 1223.09 L1816.34 1224.06 L1814.42 1225.01 L1812.49 1225.92 L1810.57 1226.8 L1808.65 1227.65 L1806.72 1228.48 L1804.8 1229.27 L1802.87 1230.03 L1800.95 1230.77 L1799.03 1231.47 L1797.1 1232.15 L1795.18 1232.79 L1793.25 1233.38 L1791.33 1233.93 L1789.41 1234.43 L1787.48 1234.88 L1785.56 1235.29 L1783.63 1235.66 L1781.71 1235.98 L1779.79 1236.25 L1777.86 1236.48 L1775.94 1236.67 L1774.01 1236.82 L1772.09 1236.92 L1770.17 1236.98 L1768.24 1236.99 L1766.32 1236.97 L1764.39 1236.91 L1762.47 1236.8 L1760.55 1236.65 L1758.62 1236.47 L1756.7 1236.24 L1754.77 1235.97 L1752.85 1235.66 L1750.93 1235.31 L1749 1234.91 L1747.08 1234.48 L1745.15 1234.01 L1743.23 1233.49 L1741.31 1232.94 L1739.38 1232.35 L1737.46 1231.72 L1735.53 1231.06 L1733.61 1230.35 L1731.69 1229.61 L1729.76 1228.83 L1727.84 1228.01 L1725.91 1227.16 L1723.99 1226.27 L1722.07 1225.35 L1720.14 1224.39 L1718.22 1223.39 L1716.29 1222.36 L1714.37 1221.28 L1712.45 1220.16 L1710.52 1219.01 L1708.6 1217.81 L1706.67 1216.58 L1704.75 1215.31 L1702.83 1214 L1700.9 1212.65 L1698.98 1211.27 L1697.05 1209.85 L1695.13 1208.39 L1693.21 1206.9 L1691.28 1205.37 L1689.36 1203.81 L1687.43 1202.21 L1685.51 1200.58 L1683.59 1198.92 L1681.66 1197.22 L1679.74 1195.49 L1677.81 1193.75 L1675.89 1191.97 L1673.97 1190.18 L1672.04 1188.36 L1670.12 1186.53 L1668.19 1184.67 L1666.27 1182.79 L1664.35 1180.89 L1662.42 1178.97 L1660.5 1177.02 L1658.57 1175.06 L1656.65 1173.08 L1654.73 1171.08 L1652.8 1169.06 L1650.88 1167.02 L1648.95 1164.97 L1647.03 1162.89 L1645.11 1160.8 L1643.18 1158.69 L1641.26 1156.56 L1639.33 1154.43 L1637.41 1152.29 L1635.49 1150.14 L1633.56 1147.99 L1631.64 1145.83 L1629.71 1143.66 L1627.79 1141.48 L1625.87 1139.3 L1623.94 1137.11 L1622.02 1134.91 L1620.09 1132.71 L1618.17 1130.5 L1616.25 1128.29 L1614.32 1126.07 L1612.4 1123.85 L1610.47 1121.62 L1608.55 1119.38 L1606.63 1117.14 L1604.7 1114.9 L1602.78 1112.66 L1600.85 1110.44 L1598.93 1108.23 L1597.01 1106.04 L1595.08 1103.87 L1593.16 1101.71 L1591.23 1099.56 L1589.31 1097.43 L1587.39 1095.32 L1585.46 1093.22 L1583.54 1091.14 L1581.61 1089.07 L1579.69 1087.02 L1577.76 1084.99 L1575.84 1082.97 L1573.92 1080.96 L1571.99 1078.97 L1570.07 1077 L1568.14 1075.04 L1566.22 1073.1 L1564.3 1071.18 L1562.37 1069.29 L1560.45 1067.44 L1558.52 1065.62 L1556.6 1063.83 L1554.68 1062.07 L1552.75 1060.34 L1550.83 1058.64 L1548.9 1056.97 L1546.98 1055.34 L1545.06 1053.73 L1543.13 1052.16 L1541.21 1050.61 L1539.28 1049.1 L1537.36 1047.61 L1535.44 1046.16 L1533.51 1044.73 L1531.59 1043.34 L1529.66 1041.97 L1527.74 1040.63 L1525.82 1039.33 L1523.89 1038.08 L1521.97 1036.88 L1520.04 1035.73 L1518.12 1034.62 L1516.2 1033.56 L1514.27 1032.55 L1512.35 1031.58 L1510.42 1030.66 L1508.5 1029.79 L1506.58 1028.96 L1504.65 1028.17 L1502.73 1027.43 L1500.8 1026.74 L1498.88 1026.09 L1496.96 1025.48 L1495.03 1024.92 L1493.11 1024.39 L1491.18 1023.92 L1489.26 1023.48 L1487.34 1023.09 L1485.41 1022.76 L1483.49 1022.48 L1481.56 1022.25 L1479.64 1022.07 L1477.72 1021.95 L1475.79 1021.88 L1473.87 1021.86 L1471.94 1021.89 L1470.02 1021.97 L1468.1 1022.11 L1466.17 1022.29 L1464.25 1022.52 L1462.32 1022.8 L1460.4 1023.12 L1458.48 1023.5 L1456.55 1023.92 L1454.63 1024.39 L1452.7 1024.9 L1450.78 1025.46 L1448.86 1026.07 L1446.93 1026.74 L1445.01 1027.45 L1443.08 1028.22 L1441.16 1029.03 L1439.24 1029.9 L1437.31 1030.82 L1435.39 1031.78 L1433.46 1032.8 L1431.54 1033.86 L1429.62 1034.97 L1427.69 1036.13 L1425.77 1037.34 L1423.84 1038.59 L1421.92 1039.89 L1420 1041.23 L1418.07 1042.62 L1416.15 1044.05 L1414.22 1045.53 L1412.3 1047.05 L1410.38 1048.61 L1408.45 1050.21 L1406.53 1051.84 L1404.6 1053.52 L1402.68 1055.23 L1400.76 1056.98 L1398.83 1058.76 L1396.91 1060.58 L1394.98 1062.43 L1393.06 1064.32 L1391.14 1066.24 L1389.21 1068.2 L1387.29 1070.19 L1385.36 1072.22 L1383.44 1074.27 L1381.52 1076.36 L1379.59 1078.48 L1377.67 1080.63 L1375.74 1082.82 L1373.82 1085.03 L1371.9 1087.27 L1369.97 1089.52 L1368.05 1091.79 L1366.12 1094.07 L1364.2 1096.37 L1362.28 1098.68 L1360.35 1101.01 L1358.43 1103.35 L1356.5 1105.7 L1354.58 1108.07 L1352.66 1110.45 L1350.73 1112.85 L1348.81 1115.26 L1346.88 1117.68 L1344.96 1120.11 L1343.04 1122.56 L1341.11 1125.01 L1339.19 1127.49 L1337.26 1129.97 L1335.34 1132.46 L1333.42 1134.95 L1331.49 1137.43 L1329.57 1139.89 L1327.64 1142.34 L1325.72 1144.78 L1323.8 1147.2 L1321.87 1149.6 L1319.95 1152 L1318.02 1154.37 L1316.1 1156.74 L1314.18 1159.09 L1312.25 1161.43 L1310.33 1163.75 L1308.4 1166.06 L1306.48 1168.36 L1304.56 1170.64 L1302.63 1172.91 L1300.71 1175.17 L1298.78 1177.42 L1296.86 1179.65 L1294.94 1181.85 L1293.01 1184 L1291.09 1186.11 L1289.16 1188.17 L1287.24 1190.18 L1285.32 1192.15 L1283.39 1194.07 L1281.47 1195.95 L1279.54 1197.79 L1277.62 1199.58 L1275.7 1201.32 L1273.77 1203.03 L1271.85 1204.69 L1269.92 1206.31 L1268 1207.89 L1266.08 1209.43 L1264.15 1210.92 L1262.23 1212.38 L1260.3 1213.8 L1258.38 1215.18 L1256.46 1216.5 L1254.53 1217.75 L1252.61 1218.91 L1250.68 1220 L1248.76 1221.01 L1246.84 1221.95 L1244.91 1222.81 L1242.99 1223.6 L1241.06 1224.32 L1239.14 1224.96 L1237.22 1225.54 L1235.29 1226.05 L1233.37 1226.48 L1231.44 1226.86 L1229.52 1227.16 L1227.6 1227.4 L1225.67 1227.58 L1223.75 1227.69 L1221.82 1227.74 L1219.9 1227.73 L1217.98 1227.63 L1216.05 1227.43 L1214.13 1227.13 L1212.2 1226.73 L1210.28 1226.22 L1208.36 1225.62 L1206.43 1224.92 L1204.51 1224.13 L1202.58 1223.24 L1200.66 1222.26 L1198.74 1221.19 L1196.81 1220.02 L1194.89 1218.77 L1192.96 1217.44 L1191.04 1216.02 L1189.12 1214.51 L1187.19 1212.92 L1185.27 1211.25 L1183.34 1209.5 L1181.42 1207.68 L1179.5 1205.75 L1177.57 1203.71 L1175.65 1201.55 L1173.72 1199.27 L1171.8 1196.89 L1169.88 1194.39 L1167.95 1191.78 L1166.03 1189.06 L1164.1 1186.24 L1162.18 1183.32 L1160.25 1180.3 L1158.33 1177.17 L1156.41 1173.95 L1154.48 1170.64 L1152.56 1167.23 L1150.63 1163.72 L1148.71 1160.13 L1146.79 1156.45 L1144.86 1152.69 L1142.94 1148.84 L1141.01 1144.89 L1139.09 1140.82 L1137.17 1136.63 L1135.24 1132.34 L1133.32 1127.92 L1131.39 1123.41 L1129.47 1118.78 L1127.55 1114.05 L1125.62 1109.22 L1123.7 1104.28 L1121.77 1099.25 L1119.85 1094.13 L1117.93 1088.91 L1116 1083.6 L1114.08 1078.2 L1112.15 1072.71 L1110.23 1067.14 L1108.31 1061.49 L1106.38 1055.76 L1104.46 1049.95 L1102.53 1044.05 L1100.61 1038.05 L1098.69 1031.94 L1096.76 1025.74 L1094.84 1019.44 L1092.91 1013.04 L1090.99 1006.56 L1089.07 999.983 L1087.14 993.323 L1085.22 986.578 L1083.29 979.752 L1081.37 972.848 L1079.45 965.867 L1077.52 958.812 L1075.6 951.685 L1073.67 944.49 L1071.75 937.227 L1069.83 929.901 L1067.9 922.512 L1065.98 915.063 L1064.05 907.548 L1062.13 899.96 L1060.21 892.302 L1058.28 884.575 L1056.36 876.784 L1054.43 868.929 L1052.51 861.015 L1050.59 853.043 L1048.66 845.015 L1046.74 836.935 L1044.81 828.804 L1042.89 820.625 L1040.97 812.401 L1039.04 804.134 L1037.12 795.826 L1035.19 787.479 L1033.27 779.097 L1031.35 770.681 L1029.42 762.233 L1027.5 753.757 L1025.57 745.249 L1023.65 736.708 L1021.73 728.136 L1019.8 719.537 L1017.88 710.911 L1015.95 702.261 L1014.03 693.59 L1012.11 684.9 L1010.18 676.194 L1008.26 667.473 L1006.33 658.74 L1004.41 649.996 L1002.49 641.245 L1000.56 632.489 L998.638 623.729 L996.714 614.968 L994.79 606.207 L992.866 597.45 L990.942 588.698 L989.018 579.953 L987.094 571.22 L985.17 562.503 L983.246 553.804 L981.322 545.125 L979.398 536.469 L977.474 527.836 L975.55 519.229 L973.626 510.649 L971.702 502.099 L969.778 493.58 L967.854 485.095 L965.93 476.644 L964.006 468.229 L962.082 459.854 L960.158 451.518 L958.234 443.224 L956.31 434.974 L954.386 426.769 L952.462 418.61 L950.538 410.501 L948.614 402.447 L946.69 394.458 L944.766 386.534 L942.842 378.676 L940.918 370.887 L938.994 363.167 L937.07 355.517 L935.146 347.939 L933.222 340.434 L931.298 333.004 L929.374 325.649 L927.45 318.371 L925.526 311.171 L923.602 304.05 L921.678 297.01 L919.754 290.051 L917.83 283.174 L915.906 276.382 L913.982 269.674 L912.058 263.052 L910.134 256.527 L908.21 250.111 L906.286 243.803 L904.362 237.605 L902.438 231.517 L900.514 225.54 L898.59 219.674 L896.666 213.92 L894.742 208.278 L892.818 202.749 L890.894 197.333 L888.97 192.031 L887.046 186.843 L885.122 181.77 L883.198 176.812 L881.274 171.97 L879.35 167.244 L877.426 162.634 L875.502 158.141 L873.578 153.766 L871.654 149.518 L869.73 145.406 L867.806 141.431 L865.882 137.592 L863.958 133.89 L862.034 130.323 L860.11 126.893 L858.186 123.599 L856.262 120.441 L854.338 117.419 L852.414 114.532 L850.49 111.78 L848.566 109.164 L846.641 106.683 L844.717 104.337 L842.793 102.126 L840.869 100.049 L838.945 98.1058 L837.021 96.2971 L835.097 94.6222 L833.173 93.0919 L831.249 91.7168 L829.325 90.496 L827.401 89.4286 L825.477 88.5139 L823.553 87.7511 L821.629 87.1393 L819.705 86.6777 L817.781 86.3655 L815.857 86.2018 L813.933 86.1857 L812.009 86.3164 L810.085 86.5931 L808.161 87.0148 L806.237 87.5808 L804.313 88.2901 L802.389 89.1419 L800.465 90.1352 L798.541 91.2693 L796.617 92.5431 L794.693 93.9602 L792.769 95.524 L790.845 97.2333 L788.921 99.087 L786.997 101.084 L785.073 103.223 L783.149 105.503 L781.225 107.922 L779.301 110.48 L777.377 113.176 L775.453 116.008 L773.529 118.974 L771.605 122.075 L769.681 125.309 L767.757 128.673 L765.833 132.169 L763.909 135.793 L761.985 139.546 L760.061 143.425 L758.137 147.429 L756.213 151.562 L754.289 155.824 L752.365 160.214 L750.441 164.732 L748.517 169.375 L746.593 174.141 L744.669 179.031 L742.745 184.042 L740.821 189.172 L738.897 194.421 L736.973 199.788 L735.049 205.269 L733.125 210.865 L731.201 216.574 L729.277 222.394 L727.353 228.324 L725.429 234.363 L723.505 240.509 L721.581 246.76 L719.657 253.116 L717.733 259.567 L715.809 266.104 L713.885 272.728 L711.961 279.436 L710.037 286.228 L708.113 293.102 L706.189 300.059 L704.265 307.096 L702.341 314.214 L700.417 321.41 L698.493 328.685 L696.569 336.036 L694.645 343.463 L692.721 350.966 L690.797 358.542 L688.873 366.191 L686.949 373.913 L685.025 381.705 L683.101 389.567 L681.177 397.498 L679.253 405.485 L677.329 413.518 L675.405 421.595 L673.481 429.716 L671.557 437.882 L669.633 446.092 L667.709 454.345 L665.785 462.642 L663.861 470.981 L661.937 479.363 L660.013 487.787 L658.089 496.252 L656.165 504.759 L654.241 513.307 L652.317 521.895 L650.393 530.523 L648.469 539.191 L646.545 547.897 L644.621 556.642 L642.697 565.425 L640.773 574.218 L638.849 582.994 L636.924 591.754 L635 600.501 L633.076 609.236 L631.152 617.961 L629.228 626.677 L627.304 635.385 L625.38 644.088 L623.456 652.785 L621.532 661.48 L619.608 670.173 L617.684 678.864 L615.76 687.557 L613.836 696.25 L611.912 704.946 L609.988 713.646 L608.064 722.35 L606.14 731.06 L604.216 739.776 L602.292 748.467 L600.368 757.105 L598.444 765.692 L596.52 774.234 L594.596 782.733 L592.672 791.192 L590.748 799.616 L588.824 808.008 L586.9 816.37 L584.976 824.707 L583.052 833.02 L581.128 841.313 L579.204 849.588 L577.28 857.849 L575.356 866.097 L573.432 874.336 L571.508 882.568 L569.584 890.795 L567.66 899.019 L565.736 907.242 L563.812 915.405 L561.888 923.453 L559.964 931.395 L558.04 939.239 L556.116 946.995 L554.192 954.669 L552.268 962.271 L550.344 969.807 L548.42 977.286 L546.496 984.713 L544.572 992.097 L542.648 999.445 L540.724 1006.76 L538.8 1014.05 L536.876 1021.33 L534.952 1028.59 L533.028 1035.84 L531.104 1043.1 L529.18 1050.35 L527.256 1057.62 L525.332 1064.79 L523.408 1071.8 L521.484 1078.65 L519.56 1085.37 L517.636 1091.97 L515.712 1098.47 L513.788 1104.88 L511.864 1111.22 L509.94 1117.5 L508.016 1123.74 L506.092 1129.96 L504.168 1136.16 L502.244 1142.35 L500.32 1148.55 L498.396 1154.77 L496.472 1161.02 L494.548 1167.31 L492.624 1173.65 L490.7 1180.04 L488.776 1186.5 L486.852 1192.81 L484.928 1198.77 L483.004 1204.44 L481.08 1209.87 L479.156 1215.09 L477.232 1220.15 L475.308 1225.09 L473.384 1229.96 L471.46 1234.78 L469.536 1239.6 L467.612 1244.43 L465.688 1249.33 L463.764 1254.31 L461.84 1259.4 L459.916 1264.63 L457.992 1270.02 L456.068 1275.58 L454.144 1281.34 L452.22 1287.32 L450.296 1293.52  Z" fill="#009af9" fill-rule="evenodd" fill-opacity="0.5"/>
<polyline clip-path="url(#clip211)" style="stroke:#009af9; stroke-linecap:round; stroke-linejoin:round; stroke-width:4; stroke-opacity:1; fill:none" points="450.296,1338.88 452.22,1333.03 454.144,1327.38 456.068,1321.92 457.992,1316.62 459.916,1311.48 461.84,1306.48 463.764,1301.6 465.688,1296.82 467.612,1292.11 469.536,1287.45 471.46,1282.82 473.384,1278.17 475.308,1273.5 477.232,1268.75 479.156,1263.9 481.08,1258.91 483.004,1253.74 484.928,1248.35 486.852,1242.7 488.776,1236.75 490.7,1230.65 492.624,1224.61 494.548,1218.62 496.472,1212.68 498.396,1206.76 500.32,1200.87 502.244,1195 504.168,1189.13 506.092,1183.25 508.016,1177.36 509.94,1171.44 511.864,1165.48 513.788,1159.47 515.712,1153.4 517.636,1147.25 519.56,1141 521.484,1134.64 523.408,1128.16 525.332,1121.54 527.256,1114.77 529.18,1107.91 531.104,1101.06 533.028,1094.21 534.952,1087.35 536.876,1080.49 538.8,1073.61 540.724,1066.72 542.648,1059.79 544.572,1052.84 546.496,1045.86 548.42,1038.83 550.344,1031.75 552.268,1024.62 554.192,1017.43 556.116,1010.17 558.04,1002.83 559.964,995.412 561.888,987.902 563.812,980.292 565.736,972.575 567.66,964.8 569.584,957.023 571.508,949.241 573.432,941.451 575.356,933.653 577.28,925.843 579.204,918.02 581.128,910.181 583.052,902.323 584.976,894.446 586.9,886.544 588.824,878.617 590.748,870.66 592.672,862.672 594.596,854.649 596.52,846.587 598.444,838.485 600.368,830.338 602.292,822.143 604.216,813.896 606.14,805.625 608.064,797.357 609.988,789.093 611.912,780.83 613.836,772.568 615.76,764.307 617.684,756.045 619.608,747.781 621.532,739.515 623.456,731.245 625.38,722.969 627.304,714.688 629.228,706.399 631.152,698.102 633.076,689.795 635,681.476 636.924,673.145 638.849,664.799 640.773,656.437 642.697,648.059 644.621,639.687 646.545,631.349 648.469,623.044 650.393,614.774 652.317,606.538 654.241,598.338 656.165,590.174 658.089,582.046 660.013,573.955 661.937,565.901 663.861,557.884 665.785,549.905 667.709,541.965 669.633,534.064 671.557,526.201 673.481,518.378 675.405,510.595 677.329,502.851 679.253,495.148 681.177,487.486 683.101,479.875 685.025,472.327 686.949,464.842 688.873,457.423 690.797,450.069 692.721,442.782 694.645,435.563 696.569,428.413 698.493,421.333 700.417,414.323 702.341,407.385 704.265,400.52 706.189,393.728 708.113,387.011 710.037,380.37 711.961,373.805 713.885,367.318 715.809,360.909 717.733,354.579 719.657,348.33 721.581,342.169 723.505,336.104 725.429,330.138 727.353,324.272 729.277,318.506 731.201,312.843 733.125,307.283 735.049,301.828 736.973,296.48 738.897,291.239 740.821,286.108 742.745,281.087 744.669,276.178 746.593,271.382 748.517,266.701 750.441,262.136 752.365,257.688 754.289,253.359 756.213,249.15 758.137,245.063 760.061,241.095 761.985,237.245 763.909,233.514 765.833,229.903 767.757,226.413 769.681,223.045 771.605,219.801 773.529,216.682 775.453,213.689 777.377,210.822 779.301,208.084 781.225,205.475 783.149,202.996 785.073,200.649 786.997,198.435 788.921,196.354 790.845,194.408 792.769,192.599 794.693,190.927 796.617,189.393 798.541,187.994 800.465,186.727 802.389,185.593 804.313,184.593 806.237,183.728 808.161,182.998 810.085,182.404 812.009,181.948 813.933,181.63 815.857,181.45 817.781,181.411 819.705,181.512 821.629,181.754 823.553,182.139 825.477,182.667 827.401,183.338 829.325,184.155 831.249,185.117 833.173,186.225 835.097,187.481 837.021,188.873 838.945,190.393 840.869,192.041 842.793,193.816 844.717,195.719 846.641,197.75 848.566,199.91 850.49,202.198 852.414,204.615 854.338,207.161 856.262,209.836 858.186,212.641 860.11,215.575 862.034,218.639 863.958,221.832 865.882,225.155 867.806,228.609 869.73,232.192 871.654,235.906 873.578,239.75 875.502,243.716 877.426,247.794 879.35,251.983 881.274,256.285 883.198,260.697 885.122,265.22 887.046,269.854 888.97,274.597 890.894,279.451 892.818,284.413 894.742,289.484 896.666,294.663 898.59,299.95 900.514,305.344 902.438,310.845 904.362,316.452 906.286,322.165 908.21,327.983 910.134,333.905 912.058,339.932 913.982,346.053 915.906,352.256 917.83,358.542 919.754,364.908 921.678,371.354 923.602,377.879 925.526,384.482 927.45,391.162 929.374,397.917 931.298,404.747 933.222,411.65 935.146,418.625 937.07,425.671 938.994,432.787 940.918,439.971 942.842,447.223 944.766,454.541 946.69,461.923 948.614,469.37 950.538,476.879 952.462,484.442 954.386,492.054 956.31,499.712 958.234,507.415 960.158,515.16 962.082,522.947 964.006,530.774 965.93,538.639 967.854,546.54 969.778,554.477 971.702,562.446 973.626,570.447 975.55,578.478 977.474,586.536 979.398,594.621 981.322,602.73 983.246,610.861 985.17,619.014 987.094,627.185 989.018,635.373 990.942,643.574 992.866,651.784 994.79,660.001 996.714,668.222 998.638,676.445 1000.56,684.669 1002.49,692.892 1004.41,701.111 1006.33,709.324 1008.26,717.529 1010.18,725.724 1012.11,733.908 1014.03,742.077 1015.95,750.229 1017.88,758.363 1019.8,766.476 1021.73,774.566 1023.65,782.631 1025.57,790.668 1027.5,798.675 1029.42,806.654 1031.35,814.607 1033.27,822.531 1035.19,830.425 1037.12,838.287 1039.04,846.113 1040.97,853.902 1042.89,861.651 1044.81,869.359 1046.74,877.023 1048.66,884.64 1050.59,892.208 1052.51,899.725 1054.43,907.188 1056.36,914.596 1058.28,921.945 1060.21,929.234 1062.13,936.459 1064.05,943.619 1065.98,950.71 1067.9,957.74 1069.83,964.714 1071.75,971.63 1073.67,978.486 1075.6,985.28 1077.52,992.009 1079.45,998.671 1081.37,1005.26 1083.29,1011.79 1085.22,1018.23 1087.14,1024.6 1089.07,1030.9 1090.99,1037.11 1092.91,1043.24 1094.84,1049.28 1096.76,1055.23 1098.69,1061.1 1100.61,1066.87 1102.53,1072.54 1104.46,1078.12 1106.38,1083.61 1108.31,1089.03 1110.23,1094.37 1112.15,1099.64 1114.08,1104.82 1116,1109.93 1117.93,1114.95 1119.85,1119.88 1121.77,1124.73 1123.7,1129.49 1125.62,1134.15 1127.55,1138.72 1129.47,1143.19 1131.39,1147.57 1133.32,1151.84 1135.24,1156.02 1137.17,1160.08 1139.09,1164.04 1141.01,1167.89 1142.94,1171.62 1144.86,1175.26 1146.79,1178.82 1148.71,1182.3 1150.63,1185.69 1152.56,1189 1154.48,1192.23 1156.41,1195.36 1158.33,1198.4 1160.25,1201.36 1162.18,1204.21 1164.1,1206.97 1166.03,1209.64 1167.95,1212.2 1169.88,1214.67 1171.8,1217.02 1173.72,1219.28 1175.65,1221.42 1177.57,1223.46 1179.5,1225.39 1181.42,1227.2 1183.34,1228.92 1185.27,1230.57 1187.19,1232.14 1189.12,1233.63 1191.04,1235.04 1192.96,1236.38 1194.89,1237.63 1196.81,1238.8 1198.74,1239.89 1200.66,1240.89 1202.58,1241.81 1204.51,1242.64 1206.43,1243.37 1208.36,1244.02 1210.28,1244.58 1212.2,1245.04 1214.13,1245.4 1216.05,1245.67 1217.98,1245.84 1219.9,1245.91 1221.82,1245.9 1223.75,1245.84 1225.67,1245.71 1227.6,1245.52 1229.52,1245.27 1231.44,1244.96 1233.37,1244.59 1235.29,1244.15 1237.22,1243.65 1239.14,1243.08 1241.06,1242.44 1242.99,1241.74 1244.91,1240.96 1246.84,1240.12 1248.76,1239.21 1250.68,1238.22 1252.61,1237.16 1254.53,1236.03 1256.46,1234.83 1258.38,1233.54 1260.3,1232.21 1262.23,1230.83 1264.15,1229.42 1266.08,1227.97 1268,1226.48 1269.92,1224.95 1271.85,1223.38 1273.77,1221.77 1275.7,1220.12 1277.62,1218.44 1279.54,1216.71 1281.47,1214.93 1283.39,1213.12 1285.32,1211.26 1287.24,1209.36 1289.16,1207.42 1291.09,1205.43 1293.01,1203.39 1294.94,1201.31 1296.86,1199.19 1298.78,1197.04 1300.71,1194.87 1302.63,1192.69 1304.56,1190.5 1306.48,1188.29 1308.4,1186.08 1310.33,1183.85 1312.25,1181.6 1314.18,1179.35 1316.1,1177.08 1318.02,1174.8 1319.95,1172.5 1321.87,1170.19 1323.8,1167.87 1325.72,1165.53 1327.64,1163.18 1329.57,1160.82 1331.49,1158.44 1333.42,1156.05 1335.34,1153.64 1337.26,1151.24 1339.19,1148.84 1341.11,1146.45 1343.04,1144.08 1344.96,1141.72 1346.88,1139.37 1348.81,1137.03 1350.73,1134.7 1352.66,1132.39 1354.58,1130.09 1356.5,1127.8 1358.43,1125.52 1360.35,1123.26 1362.28,1121.01 1364.2,1118.77 1366.12,1116.55 1368.05,1114.35 1369.97,1112.15 1371.9,1109.97 1373.82,1107.81 1375.74,1105.67 1377.67,1103.56 1379.59,1101.47 1381.52,1099.42 1383.44,1097.4 1385.36,1095.41 1387.29,1093.45 1389.21,1091.52 1391.14,1089.62 1393.06,1087.76 1394.98,1085.93 1396.91,1084.13 1398.83,1082.36 1400.76,1080.63 1402.68,1078.94 1404.6,1077.28 1406.53,1075.65 1408.45,1074.06 1410.38,1072.5 1412.3,1070.99 1414.22,1069.51 1416.15,1068.07 1418.07,1066.68 1420,1065.32 1421.92,1064.01 1423.84,1062.75 1425.77,1061.53 1427.69,1060.35 1429.62,1059.22 1431.54,1058.13 1433.46,1057.09 1435.39,1056.09 1437.31,1055.15 1439.24,1054.25 1441.16,1053.39 1443.08,1052.59 1445.01,1051.83 1446.93,1051.13 1448.86,1050.47 1450.78,1049.86 1452.7,1049.3 1454.63,1048.79 1456.55,1048.32 1458.48,1047.89 1460.4,1047.51 1462.32,1047.18 1464.25,1046.89 1466.17,1046.65 1468.1,1046.46 1470.02,1046.31 1471.94,1046.21 1473.87,1046.16 1475.79,1046.16 1477.72,1046.21 1479.64,1046.3 1481.56,1046.45 1483.49,1046.65 1485.41,1046.9 1487.34,1047.2 1489.26,1047.55 1491.18,1047.95 1493.11,1048.39 1495.03,1048.87 1496.96,1049.39 1498.88,1049.96 1500.8,1050.56 1502.73,1051.21 1504.65,1051.9 1506.58,1052.64 1508.5,1053.41 1510.42,1054.23 1512.35,1055.1 1514.27,1056.01 1516.2,1056.96 1518.12,1057.96 1520.04,1059 1521.97,1060.09 1523.89,1061.23 1525.82,1062.41 1527.74,1063.64 1529.66,1064.91 1531.59,1066.2 1533.51,1067.53 1535.44,1068.88 1537.36,1070.26 1539.28,1071.67 1541.21,1073.11 1543.13,1074.57 1545.06,1076.07 1546.98,1077.59 1548.9,1079.15 1550.83,1080.73 1552.75,1082.35 1554.68,1083.99 1556.6,1085.67 1558.52,1087.37 1560.45,1089.11 1562.37,1090.87 1564.3,1092.67 1566.22,1094.5 1568.14,1096.35 1570.07,1098.21 1571.99,1100.1 1573.92,1101.99 1575.84,1103.9 1577.76,1105.83 1579.69,1107.77 1581.61,1109.73 1583.54,1111.7 1585.46,1113.69 1587.39,1115.69 1589.31,1117.7 1591.23,1119.74 1593.16,1121.78 1595.08,1123.85 1597.01,1125.92 1598.93,1128.02 1600.85,1130.13 1602.78,1132.25 1604.7,1134.39 1606.63,1136.53 1608.55,1138.67 1610.47,1140.81 1612.4,1142.94 1614.32,1145.06 1616.25,1147.18 1618.17,1149.3 1620.09,1151.41 1622.02,1153.51 1623.94,1155.61 1625.87,1157.71 1627.79,1159.79 1629.71,1161.87 1631.64,1163.95 1633.56,1166.01 1635.49,1168.08 1637.41,1170.13 1639.33,1172.18 1641.26,1174.21 1643.18,1176.25 1645.11,1178.26 1647.03,1180.27 1648.95,1182.25 1650.88,1184.22 1652.8,1186.17 1654.73,1188.1 1656.65,1190.02 1658.57,1191.91 1660.5,1193.79 1662.42,1195.65 1664.35,1197.48 1666.27,1199.3 1668.19,1201.1 1670.12,1202.88 1672.04,1204.64 1673.97,1206.37 1675.89,1208.09 1677.81,1209.78 1679.74,1211.46 1681.66,1213.11 1683.59,1214.73 1685.51,1216.32 1687.43,1217.88 1689.36,1219.41 1691.28,1220.9 1693.21,1222.36 1695.13,1223.79 1697.05,1225.18 1698.98,1226.54 1700.9,1227.86 1702.83,1229.15 1704.75,1230.4 1706.67,1231.61 1708.6,1232.79 1710.52,1233.93 1712.45,1235.04 1714.37,1236.1 1716.29,1237.13 1718.22,1238.12 1720.14,1239.07 1722.07,1239.98 1723.99,1240.86 1725.91,1241.71 1727.84,1242.52 1729.76,1243.3 1731.69,1244.04 1733.61,1244.74 1735.53,1245.41 1737.46,1246.04 1739.38,1246.64 1741.31,1247.2 1743.23,1247.72 1745.15,1248.21 1747.08,1248.65 1749,1249.06 1750.93,1249.43 1752.85,1249.76 1754.77,1250.05 1756.7,1250.3 1758.62,1250.51 1760.55,1250.68 1762.47,1250.82 1764.39,1250.91 1766.32,1250.96 1768.24,1250.98 1770.17,1250.95 1772.09,1250.88 1774.01,1250.77 1775.94,1250.63 1777.86,1250.43 1779.79,1250.2 1781.71,1249.93 1783.63,1249.61 1785.56,1249.25 1787.48,1248.85 1789.41,1248.4 1791.33,1247.91 1793.25,1247.37 1795.18,1246.79 1797.1,1246.17 1799.03,1245.5 1800.95,1244.81 1802.87,1244.1 1804.8,1243.35 1806.72,1242.58 1808.65,1241.77 1810.57,1240.94 1812.49,1240.08 1814.42,1239.19 1816.34,1238.27 1818.27,1237.32 1820.19,1236.34 1822.11,1235.34 1824.04,1234.3 1825.96,1233.23 1827.89,1232.13 1829.81,1231 1831.73,1229.83 1833.66,1228.64 1835.58,1227.41 1837.51,1226.16 1839.43,1224.88 1841.35,1223.58 1843.28,1222.26 1845.2,1220.92 1847.13,1219.55 1849.05,1218.16 1850.97,1216.75 1852.9,1215.31 1854.82,1213.85 1856.75,1212.36 1858.67,1210.85 1860.59,1209.32 1862.52,1207.76 1864.44,1206.18 1866.37,1204.57 1868.29,1202.94 1870.21,1201.28 1872.14,1199.6 1874.06,1197.89 1875.99,1196.17 1877.91,1194.44 1879.83,1192.71 1881.76,1190.98 1883.68,1189.25 1885.61,1187.51 1887.53,1185.77 1889.45,1184.03 1891.38,1182.28 1893.3,1180.53 1895.23,1178.78 1897.15,1177.03 1899.07,1175.27 1901,1173.51 1902.92,1171.75 1904.85,1169.98 1906.77,1168.21 1908.69,1166.44 1910.62,1164.67 1912.54,1162.89 1914.47,1161.11 1916.39,1159.34 1918.31,1157.58 1920.24,1155.82 1922.16,1154.06 1924.09,1152.31 1926.01,1150.57 1927.93,1148.83 1929.86,1147.1 1931.78,1145.37 1933.71,1143.65 1935.63,1141.94 1937.55,1140.23 1939.48,1138.53 1941.4,1136.83 1943.33,1135.14 1945.25,1133.46 1947.17,1131.78 1949.1,1130.11 1951.02,1128.45 1952.95,1126.8 1954.87,1125.17 1956.79,1123.58 1958.72,1122 1960.64,1120.46 1962.57,1118.94 1964.49,1117.44 1966.41,1115.97 1968.34,1114.53 1970.26,1113.12 1972.19,1111.73 1974.11,1110.37 1976.03,1109.03 1977.96,1107.73 1979.88,1106.45 1981.81,1105.2 1983.73,1103.98 1985.65,1102.79 1987.58,1101.62 1989.5,1100.49 1991.43,1099.38 1993.35,1098.3 1995.27,1097.25 1997.2,1096.23 1999.12,1095.24 2001.05,1094.27 2002.97,1093.34 2004.9,1092.43 2006.82,1091.55 2008.74,1090.7 2010.67,1089.89 2012.59,1089.1 2014.52,1088.34 2016.44,1087.61 2018.36,1086.91 2020.29,1086.25 2022.21,1085.61 2024.14,1085.01 2026.06,1084.44 2027.98,1083.9 2029.91,1083.39 2031.83,1082.93 2033.76,1082.5 2035.68,1082.12 2037.6,1081.78 2039.53,1081.48 2041.45,1081.23 2043.38,1081.01 2045.3,1080.84 2047.22,1080.71 2049.15,1080.62 2051.07,1080.58 2053,1080.58 2054.92,1080.63 2056.84,1080.72 2058.77,1080.85 2060.69,1081.03 2062.62,1081.25 2064.54,1081.52 2066.46,1081.84 2068.39,1082.19 2070.31,1082.58 2072.24,1083 2074.16,1083.46 2076.08,1083.95 2078.01,1084.47 2079.93,1085.03 2081.86,1085.63 2083.78,1086.26 2085.7,1086.92 2087.63,1087.63 2089.55,1088.36 2091.48,1089.14 2093.4,1089.94 2095.32,1090.79 2097.25,1091.67 2099.17,1092.59 2101.1,1093.55 2103.02,1094.54 2104.94,1095.57 2106.87,1096.64 2108.79,1097.74 2110.72,1098.89 2112.64,1100.07 2114.56,1101.28 2116.49,1102.54 2118.41,1103.83 2120.34,1105.16 2122.26,1106.54 2124.18,1107.95 2126.11,1109.39 2128.03,1110.88 2129.96,1112.41 2131.88,1113.98 2133.8,1115.58 2135.73,1117.23 2137.65,1118.92 2139.58,1120.65 2141.5,1122.42 2143.42,1124.23 2145.35,1126.07 2147.27,1127.93 2149.2,1129.81 2151.12,1131.71 2153.04,1133.63 2154.97,1135.57 2156.89,1137.54 2158.82,1139.52 2160.74,1141.52 2162.66,1143.55 2164.59,1145.59 2166.51,1147.66 2168.44,1149.75 2170.36,1151.86 2172.28,1153.99 2174.21,1156.14 2176.13,1158.31 2178.06,1160.51 2179.98,1162.72 2181.9,1164.96 2183.83,1167.22 2185.75,1169.49 2187.68,1171.79 2189.6,1174.1 2191.52,1176.43 2193.45,1178.77 2195.37,1181.14 2197.3,1183.52 2199.22,1185.93 2201.14,1188.35 2203.07,1190.79 2204.99,1193.25 2206.92,1195.72 2208.84,1198.22 2210.76,1200.73 2212.69,1203.27 2214.61,1205.82 2216.54,1208.39 2218.46,1210.98 2220.38,1213.59 2222.31,1216.2 2224.23,1218.82 2226.16,1221.43 2228.08,1224.03 2230,1226.63 2231.93,1229.23 2233.85,1231.83 2235.78,1234.42 2237.7,1237.01 2239.62,1239.59 2241.55,1242.17 2243.47,1244.74 2245.4,1247.32 2247.32,1249.88 2249.24,1252.44 2251.17,1255 2253.09,1257.55 2255.02,1260.1 2256.94,1262.65 2258.86,1265.19 2260.79,1267.72 2262.71,1270.25 2264.64,1272.77 2266.56,1275.29 2268.48,1277.8 2270.41,1280.31 2272.33,1282.81 2274.26,1285.31 2276.18,1287.8 2278.1,1290.28 2280.03,1292.76 2281.95,1295.24 2283.88,1297.7 2285.8,1300.17 2287.72,1302.62 2289.65,1305.07 2291.57,1307.51 2293.5,1309.95 2295.42,1312.38 2297.34,1314.8 "/>
<path clip-path="url(#clip210)" d="M1907.68 196.789 L2287.49 196.789 L2287.49 93.1086 L1907.68 93.1086  Z" fill="#ffffff" fill-rule="evenodd" fill-opacity="1"/>
<polyline clip-path="url(#clip210)" style="stroke:#000000; stroke-linecap:round; stroke-linejoin:round; stroke-width:4; stroke-opacity:1; fill:none" points="1907.68,196.789 2287.49,196.789 2287.49,93.1086 1907.68,93.1086 1907.68,196.789 "/>
<polyline clip-path="url(#clip210)" style="stroke:#009af9; stroke-linecap:round; stroke-linejoin:round; stroke-width:4; stroke-opacity:1; fill:none" points="1929.43,144.949 2059.96,144.949 "/>
<path clip-path="url(#clip210)" d="M2086.39 131.511 L2086.39 158.386 L2092.04 158.386 Q2099.19 158.386 2102.5 155.145 Q2105.83 151.905 2105.83 144.914 Q2105.83 137.969 2102.5 134.752 Q2099.19 131.511 2092.04 131.511 L2086.39 131.511 M2081.71 127.669 L2091.32 127.669 Q2101.37 127.669 2106.06 131.858 Q2110.76 136.025 2110.76 144.914 Q2110.76 153.849 2106.04 158.039 Q2101.32 162.229 2091.32 162.229 L2081.71 162.229 L2081.71 127.669 Z" fill="#000000" fill-rule="nonzero" fill-opacity="1" /><path clip-path="url(#clip210)" d="M2116.39 142.067 L2119.07 142.067 L2119.07 162.229 L2116.39 162.229 L2116.39 142.067 Z" fill="#000000" fill-rule="nonzero" fill-opacity="1" /><path clip-path="url(#clip210)" d="M2158.31 132.507 L2158.31 141.465 L2171.2 141.465 L2171.2 145.4 L2158.31 145.4 L2158.31 154.358 L2154.42 154.358 L2154.42 145.4 L2141.53 145.4 L2141.53 141.465 L2154.42 141.465 L2154.42 132.507 L2158.31 132.507 M2141.53 158.293 L2171.2 158.293 L2171.2 162.229 L2141.53 162.229 L2141.53 158.293 Z" fill="#000000" fill-rule="nonzero" fill-opacity="1" /><path clip-path="url(#clip210)" d="M2207.5 132.275 L2198.01 158.34 L2217.01 158.34 L2207.5 132.275 M2191.67 162.229 L2204.86 127.669 L2210.16 127.669 L2223.33 162.229 L2191.67 162.229 Z" fill="#000000" fill-rule="nonzero" fill-opacity="1" /><path clip-path="url(#clip210)" d="M2233.05 131.511 L2233.05 158.386 L2238.7 158.386 Q2245.86 158.386 2249.17 155.145 Q2252.5 151.905 2252.5 144.914 Q2252.5 137.969 2249.17 134.752 Q2245.86 131.511 2238.7 131.511 L2233.05 131.511 M2228.38 127.669 L2237.98 127.669 Q2248.03 127.669 2252.73 131.858 Q2257.43 136.025 2257.43 144.914 Q2257.43 153.849 2252.71 158.039 Q2247.98 162.229 2237.98 162.229 L2228.38 162.229 L2228.38 127.669 Z" fill="#000000" fill-rule="nonzero" fill-opacity="1" /><path clip-path="url(#clip210)" d="M2263.05 142.067 L2265.74 142.067 L2265.74 162.229 L2263.05 162.229 L2263.05 142.067 Z" fill="#000000" fill-rule="nonzero" fill-opacity="1" /></svg>
