<?xml version="1.0" encoding="utf-8"?>
<svg xmlns="http://www.w3.org/2000/svg" xmlns:xlink="http://www.w3.org/1999/xlink" width="800" height="400" viewBox="0 0 3200 1600">
<defs>
  <clipPath id="clip960">
    <rect x="0" y="0" width="3200" height="1600"/>
  </clipPath>
</defs>
<path clip-path="url(#clip960)" d="M0 1600 L3200 1600 L3200 0 L0 0  Z" fill="#ffffff" fill-rule="evenodd" fill-opacity="1"/>
<defs>
  <clipPath id="clip961">
    <rect x="365" y="47" width="2789" height="1449"/>
  </clipPath>
</defs>
<path clip-path="url(#clip960)" d="M365.106 1495.09 L3152.76 1495.09 L3152.76 47.2441 L365.106 47.2441  Z" fill="#ffffff" fill-rule="evenodd" fill-opacity="1"/>
<polyline clip-path="url(#clip961)" style="stroke:#000000; stroke-linecap:round; stroke-linejoin:round; stroke-width:2; stroke-opacity:0.1; fill:none" points="922.158,1495.09 922.158,47.2441 "/>
<polyline clip-path="url(#clip961)" style="stroke:#000000; stroke-linecap:round; stroke-linejoin:round; stroke-width:2; stroke-opacity:0.1; fill:none" points="2595.7,1495.09 2595.7,47.2441 "/>
<polyline clip-path="url(#clip961)" style="stroke:#000000; stroke-linecap:round; stroke-linejoin:round; stroke-width:2; stroke-opacity:0.1; fill:none" points="365.106,1342.17 3152.76,1342.17 "/>
<polyline clip-path="url(#clip961)" style="stroke:#000000; stroke-linecap:round; stroke-linejoin:round; stroke-width:2; stroke-opacity:0.1; fill:none" points="365.106,1133.85 3152.76,1133.85 "/>
<polyline clip-path="url(#clip961)" style="stroke:#000000; stroke-linecap:round; stroke-linejoin:round; stroke-width:2; stroke-opacity:0.1; fill:none" points="365.106,925.537 3152.76,925.537 "/>
<polyline clip-path="url(#clip961)" style="stroke:#000000; stroke-linecap:round; stroke-linejoin:round; stroke-width:2; stroke-opacity:0.1; fill:none" points="365.106,717.22 3152.76,717.22 "/>
<polyline clip-path="url(#clip961)" style="stroke:#000000; stroke-linecap:round; stroke-linejoin:round; stroke-width:2; stroke-opacity:0.1; fill:none" points="365.106,508.903 3152.76,508.903 "/>
<polyline clip-path="url(#clip961)" style="stroke:#000000; stroke-linecap:round; stroke-linejoin:round; stroke-width:2; stroke-opacity:0.1; fill:none" points="365.106,300.586 3152.76,300.586 "/>
<polyline clip-path="url(#clip961)" style="stroke:#000000; stroke-linecap:round; stroke-linejoin:round; stroke-width:2; stroke-opacity:0.1; fill:none" points="365.106,92.269 3152.76,92.269 "/>
<polyline clip-path="url(#clip960)" style="stroke:#000000; stroke-linecap:round; stroke-linejoin:round; stroke-width:4; stroke-opacity:1; fill:none" points="365.106,1495.09 3152.76,1495.09 "/>
<polyline clip-path="url(#clip960)" style="stroke:#000000; stroke-linecap:round; stroke-linejoin:round; stroke-width:4; stroke-opacity:1; fill:none" points="922.158,1495.09 922.158,1476.19 "/>
<polyline clip-path="url(#clip960)" style="stroke:#000000; stroke-linecap:round; stroke-linejoin:round; stroke-width:4; stroke-opacity:1; fill:none" points="2595.7,1495.09 2595.7,1476.19 "/>
<path clip-path="url(#clip960)" d="M827.413 1533.4 L815.607 1551.85 L827.413 1551.85 L827.413 1533.4 M826.186 1529.33 L832.066 1529.33 L832.066 1551.85 L836.996 1551.85 L836.996 1555.74 L832.066 1555.74 L832.066 1563.89 L827.413 1563.89 L827.413 1555.74 L811.811 1555.74 L811.811 1551.23 L826.186 1529.33 Z" fill="#000000" fill-rule="nonzero" fill-opacity="1" /><path clip-path="url(#clip960)" d="M863.408 1530.6 L863.408 1537.96 L872.181 1537.96 L872.181 1541.27 L863.408 1541.27 L863.408 1555.35 Q863.408 1558.52 864.264 1559.42 Q865.144 1560.32 867.806 1560.32 L872.181 1560.32 L872.181 1563.89 L867.806 1563.89 Q862.876 1563.89 861.001 1562.06 Q859.126 1560.21 859.126 1555.35 L859.126 1541.27 L856.001 1541.27 L856.001 1537.96 L859.126 1537.96 L859.126 1530.6 L863.408 1530.6 Z" fill="#000000" fill-rule="nonzero" fill-opacity="1" /><path clip-path="url(#clip960)" d="M899.334 1548.24 L899.334 1563.89 L895.075 1563.89 L895.075 1548.38 Q895.075 1544.7 893.639 1542.87 Q892.204 1541.04 889.334 1541.04 Q885.885 1541.04 883.894 1543.24 Q881.903 1545.44 881.903 1549.24 L881.903 1563.89 L877.621 1563.89 L877.621 1527.87 L881.903 1527.87 L881.903 1541.99 Q883.431 1539.65 885.491 1538.49 Q887.575 1537.34 890.283 1537.34 Q894.75 1537.34 897.042 1540.11 Q899.334 1542.87 899.334 1548.24 Z" fill="#000000" fill-rule="nonzero" fill-opacity="1" /><path clip-path="url(#clip960)" d="M922.852 1541.94 Q922.135 1541.53 921.278 1541.34 Q920.445 1541.13 919.426 1541.13 Q915.815 1541.13 913.871 1543.49 Q911.949 1545.83 911.949 1550.23 L911.949 1563.89 L907.667 1563.89 L907.667 1537.96 L911.949 1537.96 L911.949 1541.99 Q913.292 1539.63 915.445 1538.49 Q917.598 1537.34 920.676 1537.34 Q921.116 1537.34 921.648 1537.41 Q922.181 1537.45 922.829 1537.57 L922.852 1541.94 Z" fill="#000000" fill-rule="nonzero" fill-opacity="1" /><path clip-path="url(#clip960)" d="M948.454 1549.86 L948.454 1551.94 L928.871 1551.94 Q929.148 1556.34 931.509 1558.66 Q933.894 1560.95 938.13 1560.95 Q940.584 1560.95 942.875 1560.35 Q945.19 1559.74 947.458 1558.54 L947.458 1562.57 Q945.167 1563.54 942.759 1564.05 Q940.352 1564.56 937.875 1564.56 Q931.672 1564.56 928.037 1560.95 Q924.426 1557.34 924.426 1551.18 Q924.426 1544.81 927.852 1541.09 Q931.301 1537.34 937.134 1537.34 Q942.366 1537.34 945.398 1540.72 Q948.454 1544.07 948.454 1549.86 M944.195 1548.61 Q944.148 1545.11 942.227 1543.03 Q940.329 1540.95 937.181 1540.95 Q933.616 1540.95 931.463 1542.96 Q929.334 1544.98 929.01 1548.63 L944.195 1548.61 Z" fill="#000000" fill-rule="nonzero" fill-opacity="1" /><path clip-path="url(#clip960)" d="M967.227 1550.86 Q962.065 1550.86 960.074 1552.04 Q958.083 1553.22 958.083 1556.06 Q958.083 1558.33 959.565 1559.67 Q961.07 1560.99 963.639 1560.99 Q967.181 1560.99 969.31 1558.49 Q971.463 1555.97 971.463 1551.8 L971.463 1550.86 L967.227 1550.86 M975.722 1549.1 L975.722 1563.89 L971.463 1563.89 L971.463 1559.95 Q970.005 1562.31 967.829 1563.45 Q965.653 1564.56 962.505 1564.56 Q958.523 1564.56 956.162 1562.34 Q953.824 1560.09 953.824 1556.34 Q953.824 1551.97 956.741 1549.74 Q959.681 1547.52 965.491 1547.52 L971.463 1547.52 L971.463 1547.11 Q971.463 1544.17 969.519 1542.57 Q967.597 1540.95 964.102 1540.95 Q961.88 1540.95 959.773 1541.48 Q957.667 1542.01 955.722 1543.08 L955.722 1539.14 Q958.06 1538.24 960.259 1537.8 Q962.458 1537.34 964.542 1537.34 Q970.167 1537.34 972.944 1540.25 Q975.722 1543.17 975.722 1549.1 Z" fill="#000000" fill-rule="nonzero" fill-opacity="1" /><path clip-path="url(#clip960)" d="M1001.56 1541.9 L1001.56 1527.87 L1005.81 1527.87 L1005.81 1563.89 L1001.56 1563.89 L1001.56 1560 Q1000.21 1562.31 998.153 1563.45 Q996.116 1564.56 993.245 1564.56 Q988.546 1564.56 985.583 1560.81 Q982.643 1557.06 982.643 1550.95 Q982.643 1544.84 985.583 1541.09 Q988.546 1537.34 993.245 1537.34 Q996.116 1537.34 998.153 1538.47 Q1000.21 1539.58 1001.56 1541.9 M987.042 1550.95 Q987.042 1555.65 988.963 1558.33 Q990.907 1560.99 994.287 1560.99 Q997.667 1560.99 999.611 1558.33 Q1001.56 1555.65 1001.56 1550.95 Q1001.56 1546.25 999.611 1543.59 Q997.667 1540.9 994.287 1540.9 Q990.907 1540.9 988.963 1543.59 Q987.042 1546.25 987.042 1550.95 Z" fill="#000000" fill-rule="nonzero" fill-opacity="1" /><path clip-path="url(#clip960)" d="M1031.12 1538.73 L1031.12 1542.75 Q1029.31 1541.83 1027.37 1541.36 Q1025.42 1540.9 1023.34 1540.9 Q1020.17 1540.9 1018.57 1541.87 Q1017 1542.85 1017 1544.79 Q1017 1546.27 1018.13 1547.13 Q1019.26 1547.96 1022.69 1548.73 L1024.15 1549.05 Q1028.68 1550.02 1030.58 1551.8 Q1032.5 1553.56 1032.5 1556.74 Q1032.5 1560.35 1029.63 1562.45 Q1026.79 1564.56 1021.79 1564.56 Q1019.7 1564.56 1017.43 1564.14 Q1015.19 1563.75 1012.69 1562.94 L1012.69 1558.54 Q1015.05 1559.77 1017.34 1560.39 Q1019.63 1560.99 1021.88 1560.99 Q1024.89 1560.99 1026.51 1559.98 Q1028.13 1558.93 1028.13 1557.06 Q1028.13 1555.32 1026.95 1554.4 Q1025.79 1553.47 1021.83 1552.61 L1020.35 1552.27 Q1016.39 1551.43 1014.63 1549.72 Q1012.87 1547.99 1012.87 1544.98 Q1012.87 1541.32 1015.47 1539.33 Q1018.06 1537.34 1022.83 1537.34 Q1025.19 1537.34 1027.27 1537.68 Q1029.36 1538.03 1031.12 1538.73 Z" fill="#000000" fill-rule="nonzero" fill-opacity="1" /><path clip-path="url(#clip960)" d="M2500.82 1559.95 L2508.46 1559.95 L2508.46 1533.59 L2500.15 1535.25 L2500.15 1530.99 L2508.41 1529.33 L2513.09 1529.33 L2513.09 1559.95 L2520.73 1559.95 L2520.73 1563.89 L2500.82 1563.89 L2500.82 1559.95 Z" fill="#000000" fill-rule="nonzero" fill-opacity="1" /><path clip-path="url(#clip960)" d="M2548.85 1530.6 L2548.85 1537.96 L2557.63 1537.96 L2557.63 1541.27 L2548.85 1541.27 L2548.85 1555.35 Q2548.85 1558.52 2549.71 1559.42 Q2550.59 1560.32 2553.25 1560.32 L2557.63 1560.32 L2557.63 1563.89 L2553.25 1563.89 Q2548.32 1563.89 2546.45 1562.06 Q2544.57 1560.21 2544.57 1555.35 L2544.57 1541.27 L2541.45 1541.27 L2541.45 1537.96 L2544.57 1537.96 L2544.57 1530.6 L2548.85 1530.6 Z" fill="#000000" fill-rule="nonzero" fill-opacity="1" /><path clip-path="url(#clip960)" d="M2584.78 1548.24 L2584.78 1563.89 L2580.52 1563.89 L2580.52 1548.38 Q2580.52 1544.7 2579.08 1542.87 Q2577.65 1541.04 2574.78 1541.04 Q2571.33 1541.04 2569.34 1543.24 Q2567.35 1545.44 2567.35 1549.24 L2567.35 1563.89 L2563.07 1563.89 L2563.07 1527.87 L2567.35 1527.87 L2567.35 1541.99 Q2568.88 1539.65 2570.94 1538.49 Q2573.02 1537.34 2575.73 1537.34 Q2580.19 1537.34 2582.49 1540.11 Q2584.78 1542.87 2584.78 1548.24 Z" fill="#000000" fill-rule="nonzero" fill-opacity="1" /><path clip-path="url(#clip960)" d="M2608.3 1541.94 Q2607.58 1541.53 2606.72 1541.34 Q2605.89 1541.13 2604.87 1541.13 Q2601.26 1541.13 2599.32 1543.49 Q2597.39 1545.83 2597.39 1550.23 L2597.39 1563.89 L2593.11 1563.89 L2593.11 1537.96 L2597.39 1537.96 L2597.39 1541.99 Q2598.74 1539.63 2600.89 1538.49 Q2603.04 1537.34 2606.12 1537.34 Q2606.56 1537.34 2607.09 1537.41 Q2607.63 1537.45 2608.27 1537.57 L2608.3 1541.94 Z" fill="#000000" fill-rule="nonzero" fill-opacity="1" /><path clip-path="url(#clip960)" d="M2633.9 1549.86 L2633.9 1551.94 L2614.32 1551.94 Q2614.59 1556.34 2616.95 1558.66 Q2619.34 1560.95 2623.57 1560.95 Q2626.03 1560.95 2628.32 1560.35 Q2630.63 1559.74 2632.9 1558.54 L2632.9 1562.57 Q2630.61 1563.54 2628.2 1564.05 Q2625.8 1564.56 2623.32 1564.56 Q2617.12 1564.56 2613.48 1560.95 Q2609.87 1557.34 2609.87 1551.18 Q2609.87 1544.81 2613.3 1541.09 Q2616.75 1537.34 2622.58 1537.34 Q2627.81 1537.34 2630.84 1540.72 Q2633.9 1544.07 2633.9 1549.86 M2629.64 1548.61 Q2629.59 1545.11 2627.67 1543.03 Q2625.77 1540.95 2622.63 1540.95 Q2619.06 1540.95 2616.91 1542.96 Q2614.78 1544.98 2614.45 1548.63 L2629.64 1548.61 Z" fill="#000000" fill-rule="nonzero" fill-opacity="1" /><path clip-path="url(#clip960)" d="M2652.67 1550.86 Q2647.51 1550.86 2645.52 1552.04 Q2643.53 1553.22 2643.53 1556.06 Q2643.53 1558.33 2645.01 1559.67 Q2646.51 1560.99 2649.08 1560.99 Q2652.63 1560.99 2654.75 1558.49 Q2656.91 1555.97 2656.91 1551.8 L2656.91 1550.86 L2652.67 1550.86 M2661.17 1549.1 L2661.17 1563.89 L2656.91 1563.89 L2656.91 1559.95 Q2655.45 1562.31 2653.27 1563.45 Q2651.1 1564.56 2647.95 1564.56 Q2643.97 1564.56 2641.61 1562.34 Q2639.27 1560.09 2639.27 1556.34 Q2639.27 1551.97 2642.19 1549.74 Q2645.13 1547.52 2650.94 1547.52 L2656.91 1547.52 L2656.91 1547.11 Q2656.91 1544.17 2654.96 1542.57 Q2653.04 1540.95 2649.55 1540.95 Q2647.32 1540.95 2645.22 1541.48 Q2643.11 1542.01 2641.17 1543.08 L2641.17 1539.14 Q2643.5 1538.24 2645.7 1537.8 Q2647.9 1537.34 2649.99 1537.34 Q2655.61 1537.34 2658.39 1540.25 Q2661.17 1543.17 2661.17 1549.1 Z" fill="#000000" fill-rule="nonzero" fill-opacity="1" /><path clip-path="url(#clip960)" d="M2687 1541.9 L2687 1527.87 L2691.26 1527.87 L2691.26 1563.89 L2687 1563.89 L2687 1560 Q2685.66 1562.31 2683.6 1563.45 Q2681.56 1564.56 2678.69 1564.56 Q2673.99 1564.56 2671.03 1560.81 Q2668.09 1557.06 2668.09 1550.95 Q2668.09 1544.84 2671.03 1541.09 Q2673.99 1537.34 2678.69 1537.34 Q2681.56 1537.34 2683.6 1538.47 Q2685.66 1539.58 2687 1541.9 M2672.49 1550.95 Q2672.49 1555.65 2674.41 1558.33 Q2676.35 1560.99 2679.73 1560.99 Q2683.11 1560.99 2685.06 1558.33 Q2687 1555.65 2687 1550.95 Q2687 1546.25 2685.06 1543.59 Q2683.11 1540.9 2679.73 1540.9 Q2676.35 1540.9 2674.41 1543.59 Q2672.49 1546.25 2672.49 1550.95 Z" fill="#000000" fill-rule="nonzero" fill-opacity="1" /><polyline clip-path="url(#clip960)" style="stroke:#000000; stroke-linecap:round; stroke-linejoin:round; stroke-width:4; stroke-opacity:1; fill:none" points="365.106,1495.09 365.106,47.2441 "/>
<polyline clip-path="url(#clip960)" style="stroke:#000000; stroke-linecap:round; stroke-linejoin:round; stroke-width:4; stroke-opacity:1; fill:none" points="365.106,1342.17 384.003,1342.17 "/>
<polyline clip-path="url(#clip960)" style="stroke:#000000; stroke-linecap:round; stroke-linejoin:round; stroke-width:4; stroke-opacity:1; fill:none" points="365.106,1133.85 384.003,1133.85 "/>
<polyline clip-path="url(#clip960)" style="stroke:#000000; stroke-linecap:round; stroke-linejoin:round; stroke-width:4; stroke-opacity:1; fill:none" points="365.106,925.537 384.003,925.537 "/>
<polyline clip-path="url(#clip960)" style="stroke:#000000; stroke-linecap:round; stroke-linejoin:round; stroke-width:4; stroke-opacity:1; fill:none" points="365.106,717.22 384.003,717.22 "/>
<polyline clip-path="url(#clip960)" style="stroke:#000000; stroke-linecap:round; stroke-linejoin:round; stroke-width:4; stroke-opacity:1; fill:none" points="365.106,508.903 384.003,508.903 "/>
<polyline clip-path="url(#clip960)" style="stroke:#000000; stroke-linecap:round; stroke-linejoin:round; stroke-width:4; stroke-opacity:1; fill:none" points="365.106,300.586 384.003,300.586 "/>
<polyline clip-path="url(#clip960)" style="stroke:#000000; stroke-linecap:round; stroke-linejoin:round; stroke-width:4; stroke-opacity:1; fill:none" points="365.106,92.269 384.003,92.269 "/>
<path clip-path="url(#clip960)" d="M100.51 1331.34 L118.866 1331.34 L118.866 1335.27 L104.792 1335.27 L104.792 1343.75 Q105.811 1343.4 106.829 1343.24 Q107.848 1343.05 108.866 1343.05 Q114.653 1343.05 118.033 1346.22 Q121.412 1349.39 121.412 1354.81 Q121.412 1360.39 117.94 1363.49 Q114.468 1366.57 108.149 1366.57 Q105.973 1366.57 103.704 1366.2 Q101.459 1365.83 99.0515 1365.09 L99.0515 1360.39 Q101.135 1361.52 103.357 1362.08 Q105.579 1362.63 108.056 1362.63 Q112.061 1362.63 114.399 1360.53 Q116.737 1358.42 116.737 1354.81 Q116.737 1351.2 114.399 1349.09 Q112.061 1346.99 108.056 1346.99 Q106.181 1346.99 104.306 1347.4 Q102.454 1347.82 100.51 1348.7 L100.51 1331.34 Z" fill="#000000" fill-rule="nonzero" fill-opacity="1" /><path clip-path="url(#clip960)" d="M130.625 1360.02 L135.51 1360.02 L135.51 1365.9 L130.625 1365.9 L130.625 1360.02 Z" fill="#000000" fill-rule="nonzero" fill-opacity="1" /><path clip-path="url(#clip960)" d="M155.695 1334.42 Q152.084 1334.42 150.255 1337.98 Q148.449 1341.52 148.449 1348.65 Q148.449 1355.76 150.255 1359.32 Q152.084 1362.87 155.695 1362.87 Q159.329 1362.87 161.134 1359.32 Q162.963 1355.76 162.963 1348.65 Q162.963 1341.52 161.134 1337.98 Q159.329 1334.42 155.695 1334.42 M155.695 1330.71 Q161.505 1330.71 164.56 1335.32 Q167.639 1339.9 167.639 1348.65 Q167.639 1357.38 164.56 1361.99 Q161.505 1366.57 155.695 1366.57 Q149.885 1366.57 146.806 1361.99 Q143.75 1357.38 143.75 1348.65 Q143.75 1339.9 146.806 1335.32 Q149.885 1330.71 155.695 1330.71 Z" fill="#000000" fill-rule="nonzero" fill-opacity="1" /><path clip-path="url(#clip960)" d="M185.857 1334.42 Q182.245 1334.42 180.417 1337.98 Q178.611 1341.52 178.611 1348.65 Q178.611 1355.76 180.417 1359.32 Q182.245 1362.87 185.857 1362.87 Q189.491 1362.87 191.296 1359.32 Q193.125 1355.76 193.125 1348.65 Q193.125 1341.52 191.296 1337.98 Q189.491 1334.42 185.857 1334.42 M185.857 1330.71 Q191.667 1330.71 194.722 1335.32 Q197.801 1339.9 197.801 1348.65 Q197.801 1357.38 194.722 1361.99 Q191.667 1366.57 185.857 1366.57 Q180.046 1366.57 176.968 1361.99 Q173.912 1357.38 173.912 1348.65 Q173.912 1339.9 176.968 1335.32 Q180.046 1330.71 185.857 1330.71 Z" fill="#000000" fill-rule="nonzero" fill-opacity="1" /><path clip-path="url(#clip960)" d="M234.19 1340.44 L223.611 1351.06 L234.19 1361.64 L231.435 1364.44 L220.81 1353.82 L210.185 1364.44 L207.454 1361.64 L218.009 1351.06 L207.454 1340.44 L210.185 1337.63 L220.81 1348.26 L231.435 1337.63 L234.19 1340.44 Z" fill="#000000" fill-rule="nonzero" fill-opacity="1" /><path clip-path="url(#clip960)" d="M246.551 1361.96 L254.19 1361.96 L254.19 1335.6 L245.879 1337.26 L245.879 1333 L254.143 1331.34 L258.819 1331.34 L258.819 1361.96 L266.458 1361.96 L266.458 1365.9 L246.551 1365.9 L246.551 1361.96 Z" fill="#000000" fill-rule="nonzero" fill-opacity="1" /><path clip-path="url(#clip960)" d="M285.902 1334.42 Q282.291 1334.42 280.463 1337.98 Q278.657 1341.52 278.657 1348.65 Q278.657 1355.76 280.463 1359.32 Q282.291 1362.87 285.902 1362.87 Q289.537 1362.87 291.342 1359.32 Q293.171 1355.76 293.171 1348.65 Q293.171 1341.52 291.342 1337.98 Q289.537 1334.42 285.902 1334.42 M285.902 1330.71 Q291.712 1330.71 294.768 1335.32 Q297.847 1339.9 297.847 1348.65 Q297.847 1357.38 294.768 1361.99 Q291.712 1366.57 285.902 1366.57 Q280.092 1366.57 277.013 1361.99 Q273.958 1357.38 273.958 1348.65 Q273.958 1339.9 277.013 1335.32 Q280.092 1330.71 285.902 1330.71 Z" fill="#000000" fill-rule="nonzero" fill-opacity="1" /><path clip-path="url(#clip960)" d="M307.476 1325.15 Q304.768 1325.15 303.207 1326.6 Q301.665 1328.05 301.665 1330.59 Q301.665 1333.13 303.207 1334.58 Q304.768 1336.02 307.476 1336.02 Q310.185 1336.02 311.746 1334.58 Q313.307 1333.11 313.307 1330.59 Q313.307 1328.05 311.746 1326.6 Q310.203 1325.15 307.476 1325.15 M303.677 1323.54 Q301.232 1322.93 299.859 1321.26 Q298.505 1319.59 298.505 1317.18 Q298.505 1313.81 300.894 1311.86 Q303.301 1309.9 307.476 1309.9 Q311.67 1309.9 314.059 1311.86 Q316.448 1313.81 316.448 1317.18 Q316.448 1319.59 315.075 1321.26 Q313.72 1322.93 311.294 1323.54 Q314.04 1324.18 315.564 1326.04 Q317.106 1327.9 317.106 1330.59 Q317.106 1334.67 314.604 1336.85 Q312.122 1339.03 307.476 1339.03 Q302.831 1339.03 300.329 1336.85 Q297.847 1334.67 297.847 1330.59 Q297.847 1327.9 299.389 1326.04 Q300.931 1324.18 303.677 1323.54 M302.285 1317.54 Q302.285 1319.72 303.639 1320.94 Q305.012 1322.16 307.476 1322.16 Q309.921 1322.16 311.294 1320.94 Q312.686 1319.72 312.686 1317.54 Q312.686 1315.35 311.294 1314.13 Q309.921 1312.91 307.476 1312.91 Q305.012 1312.91 303.639 1314.13 Q302.285 1315.35 302.285 1317.54 Z" fill="#000000" fill-rule="nonzero" fill-opacity="1" /><path clip-path="url(#clip960)" d="M111.042 1138.44 Q107.894 1138.44 106.042 1140.59 Q104.213 1142.74 104.213 1146.49 Q104.213 1150.22 106.042 1152.4 Q107.894 1154.55 111.042 1154.55 Q114.19 1154.55 116.019 1152.4 Q117.871 1150.22 117.871 1146.49 Q117.871 1142.74 116.019 1140.59 Q114.19 1138.44 111.042 1138.44 M120.324 1123.79 L120.324 1128.04 Q118.565 1127.21 116.76 1126.77 Q114.977 1126.33 113.218 1126.33 Q108.588 1126.33 106.135 1129.46 Q103.704 1132.58 103.357 1138.9 Q104.723 1136.89 106.783 1135.82 Q108.843 1134.73 111.32 1134.73 Q116.528 1134.73 119.537 1137.91 Q122.57 1141.05 122.57 1146.49 Q122.57 1151.82 119.422 1155.04 Q116.274 1158.25 111.042 1158.25 Q105.047 1158.25 101.876 1153.67 Q98.7042 1149.06 98.7042 1140.34 Q98.7042 1132.14 102.593 1127.28 Q106.482 1122.4 113.033 1122.4 Q114.792 1122.4 116.575 1122.74 Q118.38 1123.09 120.324 1123.79 Z" fill="#000000" fill-rule="nonzero" fill-opacity="1" /><path clip-path="url(#clip960)" d="M130.625 1151.7 L135.51 1151.7 L135.51 1157.58 L130.625 1157.58 L130.625 1151.7 Z" fill="#000000" fill-rule="nonzero" fill-opacity="1" /><path clip-path="url(#clip960)" d="M155.695 1126.1 Q152.084 1126.1 150.255 1129.66 Q148.449 1133.21 148.449 1140.34 Q148.449 1147.44 150.255 1151.01 Q152.084 1154.55 155.695 1154.55 Q159.329 1154.55 161.134 1151.01 Q162.963 1147.44 162.963 1140.34 Q162.963 1133.21 161.134 1129.66 Q159.329 1126.1 155.695 1126.1 M155.695 1122.4 Q161.505 1122.4 164.56 1127 Q167.639 1131.59 167.639 1140.34 Q167.639 1149.06 164.56 1153.67 Q161.505 1158.25 155.695 1158.25 Q149.885 1158.25 146.806 1153.67 Q143.75 1149.06 143.75 1140.34 Q143.75 1131.59 146.806 1127 Q149.885 1122.4 155.695 1122.4 Z" fill="#000000" fill-rule="nonzero" fill-opacity="1" /><path clip-path="url(#clip960)" d="M185.857 1126.1 Q182.245 1126.1 180.417 1129.66 Q178.611 1133.21 178.611 1140.34 Q178.611 1147.44 180.417 1151.01 Q182.245 1154.55 185.857 1154.55 Q189.491 1154.55 191.296 1151.01 Q193.125 1147.44 193.125 1140.34 Q193.125 1133.21 191.296 1129.66 Q189.491 1126.1 185.857 1126.1 M185.857 1122.4 Q191.667 1122.4 194.722 1127 Q197.801 1131.59 197.801 1140.34 Q197.801 1149.06 194.722 1153.67 Q191.667 1158.25 185.857 1158.25 Q180.046 1158.25 176.968 1153.67 Q173.912 1149.06 173.912 1140.34 Q173.912 1131.59 176.968 1127 Q180.046 1122.4 185.857 1122.4 Z" fill="#000000" fill-rule="nonzero" fill-opacity="1" /><path clip-path="url(#clip960)" d="M234.19 1132.12 L223.611 1142.74 L234.19 1153.32 L231.435 1156.12 L220.81 1145.5 L210.185 1156.12 L207.454 1153.32 L218.009 1142.74 L207.454 1132.12 L210.185 1129.32 L220.81 1139.94 L231.435 1129.32 L234.19 1132.12 Z" fill="#000000" fill-rule="nonzero" fill-opacity="1" /><path clip-path="url(#clip960)" d="M246.551 1153.65 L254.19 1153.65 L254.19 1127.28 L245.879 1128.95 L245.879 1124.69 L254.143 1123.02 L258.819 1123.02 L258.819 1153.65 L266.458 1153.65 L266.458 1157.58 L246.551 1157.58 L246.551 1153.65 Z" fill="#000000" fill-rule="nonzero" fill-opacity="1" /><path clip-path="url(#clip960)" d="M285.902 1126.1 Q282.291 1126.1 280.463 1129.66 Q278.657 1133.21 278.657 1140.34 Q278.657 1147.44 280.463 1151.01 Q282.291 1154.55 285.902 1154.55 Q289.537 1154.55 291.342 1151.01 Q293.171 1147.44 293.171 1140.34 Q293.171 1133.21 291.342 1129.66 Q289.537 1126.1 285.902 1126.1 M285.902 1122.4 Q291.712 1122.4 294.768 1127 Q297.847 1131.59 297.847 1140.34 Q297.847 1149.06 294.768 1153.67 Q291.712 1158.25 285.902 1158.25 Q280.092 1158.25 277.013 1153.67 Q273.958 1149.06 273.958 1140.34 Q273.958 1131.59 277.013 1127 Q280.092 1122.4 285.902 1122.4 Z" fill="#000000" fill-rule="nonzero" fill-opacity="1" /><path clip-path="url(#clip960)" d="M307.476 1116.84 Q304.768 1116.84 303.207 1118.28 Q301.665 1119.73 301.665 1122.27 Q301.665 1124.81 303.207 1126.26 Q304.768 1127.71 307.476 1127.71 Q310.185 1127.71 311.746 1126.26 Q313.307 1124.79 313.307 1122.27 Q313.307 1119.73 311.746 1118.28 Q310.203 1116.84 307.476 1116.84 M303.677 1115.22 Q301.232 1114.62 299.859 1112.94 Q298.505 1111.27 298.505 1108.86 Q298.505 1105.5 300.894 1103.54 Q303.301 1101.58 307.476 1101.58 Q311.67 1101.58 314.059 1103.54 Q316.448 1105.5 316.448 1108.86 Q316.448 1111.27 315.075 1112.94 Q313.72 1114.62 311.294 1115.22 Q314.04 1115.86 315.564 1117.72 Q317.106 1119.58 317.106 1122.27 Q317.106 1126.35 314.604 1128.53 Q312.122 1130.72 307.476 1130.72 Q302.831 1130.72 300.329 1128.53 Q297.847 1126.35 297.847 1122.27 Q297.847 1119.58 299.389 1117.72 Q300.931 1115.86 303.677 1115.22 M302.285 1109.22 Q302.285 1111.4 303.639 1112.62 Q305.012 1113.85 307.476 1113.85 Q309.921 1113.85 311.294 1112.62 Q312.686 1111.4 312.686 1109.22 Q312.686 1107.04 311.294 1105.81 Q309.921 1104.59 307.476 1104.59 Q305.012 1104.59 303.639 1105.81 Q302.285 1107.04 302.285 1109.22 Z" fill="#000000" fill-rule="nonzero" fill-opacity="1" /><path clip-path="url(#clip960)" d="M99.2829 914.704 L121.505 914.704 L121.505 916.695 L108.959 949.264 L104.075 949.264 L115.88 918.64 L99.2829 918.64 L99.2829 914.704 Z" fill="#000000" fill-rule="nonzero" fill-opacity="1" /><path clip-path="url(#clip960)" d="M130.625 943.385 L135.51 943.385 L135.51 949.264 L130.625 949.264 L130.625 943.385 Z" fill="#000000" fill-rule="nonzero" fill-opacity="1" /><path clip-path="url(#clip960)" d="M155.695 917.783 Q152.084 917.783 150.255 921.348 Q148.449 924.89 148.449 932.019 Q148.449 939.126 150.255 942.69 Q152.084 946.232 155.695 946.232 Q159.329 946.232 161.134 942.69 Q162.963 939.126 162.963 932.019 Q162.963 924.89 161.134 921.348 Q159.329 917.783 155.695 917.783 M155.695 914.079 Q161.505 914.079 164.56 918.686 Q167.639 923.269 167.639 932.019 Q167.639 940.746 164.56 945.352 Q161.505 949.936 155.695 949.936 Q149.885 949.936 146.806 945.352 Q143.75 940.746 143.75 932.019 Q143.75 923.269 146.806 918.686 Q149.885 914.079 155.695 914.079 Z" fill="#000000" fill-rule="nonzero" fill-opacity="1" /><path clip-path="url(#clip960)" d="M185.857 917.783 Q182.245 917.783 180.417 921.348 Q178.611 924.89 178.611 932.019 Q178.611 939.126 180.417 942.69 Q182.245 946.232 185.857 946.232 Q189.491 946.232 191.296 942.69 Q193.125 939.126 193.125 932.019 Q193.125 924.89 191.296 921.348 Q189.491 917.783 185.857 917.783 M185.857 914.079 Q191.667 914.079 194.722 918.686 Q197.801 923.269 197.801 932.019 Q197.801 940.746 194.722 945.352 Q191.667 949.936 185.857 949.936 Q180.046 949.936 176.968 945.352 Q173.912 940.746 173.912 932.019 Q173.912 923.269 176.968 918.686 Q180.046 914.079 185.857 914.079 Z" fill="#000000" fill-rule="nonzero" fill-opacity="1" /><path clip-path="url(#clip960)" d="M234.19 923.802 L223.611 934.426 L234.19 945.005 L231.435 947.806 L220.81 937.181 L210.185 947.806 L207.454 945.005 L218.009 934.426 L207.454 923.802 L210.185 921.001 L220.81 931.626 L231.435 921.001 L234.19 923.802 Z" fill="#000000" fill-rule="nonzero" fill-opacity="1" /><path clip-path="url(#clip960)" d="M246.551 945.329 L254.19 945.329 L254.19 918.964 L245.879 920.63 L245.879 916.371 L254.143 914.704 L258.819 914.704 L258.819 945.329 L266.458 945.329 L266.458 949.264 L246.551 949.264 L246.551 945.329 Z" fill="#000000" fill-rule="nonzero" fill-opacity="1" /><path clip-path="url(#clip960)" d="M285.902 917.783 Q282.291 917.783 280.463 921.348 Q278.657 924.89 278.657 932.019 Q278.657 939.126 280.463 942.69 Q282.291 946.232 285.902 946.232 Q289.537 946.232 291.342 942.69 Q293.171 939.126 293.171 932.019 Q293.171 924.89 291.342 921.348 Q289.537 917.783 285.902 917.783 M285.902 914.079 Q291.712 914.079 294.768 918.686 Q297.847 923.269 297.847 932.019 Q297.847 940.746 294.768 945.352 Q291.712 949.936 285.902 949.936 Q280.092 949.936 277.013 945.352 Q273.958 940.746 273.958 932.019 Q273.958 923.269 277.013 918.686 Q280.092 914.079 285.902 914.079 Z" fill="#000000" fill-rule="nonzero" fill-opacity="1" /><path clip-path="url(#clip960)" d="M307.476 908.519 Q304.768 908.519 303.207 909.967 Q301.665 911.416 301.665 913.955 Q301.665 916.494 303.207 917.942 Q304.768 919.39 307.476 919.39 Q310.185 919.39 311.746 917.942 Q313.307 916.475 313.307 913.955 Q313.307 911.416 311.746 909.967 Q310.203 908.519 307.476 908.519 M303.677 906.902 Q301.232 906.3 299.859 904.626 Q298.505 902.952 298.505 900.545 Q298.505 897.178 300.894 895.222 Q303.301 893.266 307.476 893.266 Q311.67 893.266 314.059 895.222 Q316.448 897.178 316.448 900.545 Q316.448 902.952 315.075 904.626 Q313.72 906.3 311.294 906.902 Q314.04 907.541 315.564 909.403 Q317.106 911.265 317.106 913.955 Q317.106 918.036 314.604 920.218 Q312.122 922.399 307.476 922.399 Q302.831 922.399 300.329 920.218 Q297.847 918.036 297.847 913.955 Q297.847 911.265 299.389 909.403 Q300.931 907.541 303.677 906.902 M302.285 900.902 Q302.285 903.084 303.639 904.306 Q305.012 905.529 307.476 905.529 Q309.921 905.529 311.294 904.306 Q312.686 903.084 312.686 900.902 Q312.686 898.72 311.294 897.498 Q309.921 896.275 307.476 896.275 Q305.012 896.275 303.639 897.498 Q302.285 898.72 302.285 900.902 Z" fill="#000000" fill-rule="nonzero" fill-opacity="1" /><path clip-path="url(#clip960)" d="M110.463 724.535 Q107.13 724.535 105.209 726.318 Q103.311 728.1 103.311 731.225 Q103.311 734.35 105.209 736.133 Q107.13 737.915 110.463 737.915 Q113.797 737.915 115.718 736.133 Q117.639 734.327 117.639 731.225 Q117.639 728.1 115.718 726.318 Q113.82 724.535 110.463 724.535 M105.788 722.545 Q102.778 721.804 101.088 719.744 Q99.4218 717.684 99.4218 714.721 Q99.4218 710.577 102.362 708.17 Q105.325 705.762 110.463 705.762 Q115.625 705.762 118.565 708.17 Q121.505 710.577 121.505 714.721 Q121.505 717.684 119.815 719.744 Q118.149 721.804 115.162 722.545 Q118.542 723.332 120.417 725.623 Q122.315 727.915 122.315 731.225 Q122.315 736.248 119.237 738.934 Q116.181 741.619 110.463 741.619 Q104.746 741.619 101.667 738.934 Q98.6116 736.248 98.6116 731.225 Q98.6116 727.915 100.51 725.623 Q102.408 723.332 105.788 722.545 M104.075 715.161 Q104.075 717.846 105.741 719.35 Q107.431 720.855 110.463 720.855 Q113.473 720.855 115.162 719.35 Q116.875 717.846 116.875 715.161 Q116.875 712.475 115.162 710.971 Q113.473 709.466 110.463 709.466 Q107.431 709.466 105.741 710.971 Q104.075 712.475 104.075 715.161 Z" fill="#000000" fill-rule="nonzero" fill-opacity="1" /><path clip-path="url(#clip960)" d="M130.625 735.068 L135.51 735.068 L135.51 740.947 L130.625 740.947 L130.625 735.068 Z" fill="#000000" fill-rule="nonzero" fill-opacity="1" /><path clip-path="url(#clip960)" d="M155.695 709.466 Q152.084 709.466 150.255 713.031 Q148.449 716.573 148.449 723.702 Q148.449 730.809 150.255 734.373 Q152.084 737.915 155.695 737.915 Q159.329 737.915 161.134 734.373 Q162.963 730.809 162.963 723.702 Q162.963 716.573 161.134 713.031 Q159.329 709.466 155.695 709.466 M155.695 705.762 Q161.505 705.762 164.56 710.369 Q167.639 714.952 167.639 723.702 Q167.639 732.429 164.56 737.035 Q161.505 741.619 155.695 741.619 Q149.885 741.619 146.806 737.035 Q143.75 732.429 143.75 723.702 Q143.75 714.952 146.806 710.369 Q149.885 705.762 155.695 705.762 Z" fill="#000000" fill-rule="nonzero" fill-opacity="1" /><path clip-path="url(#clip960)" d="M185.857 709.466 Q182.245 709.466 180.417 713.031 Q178.611 716.573 178.611 723.702 Q178.611 730.809 180.417 734.373 Q182.245 737.915 185.857 737.915 Q189.491 737.915 191.296 734.373 Q193.125 730.809 193.125 723.702 Q193.125 716.573 191.296 713.031 Q189.491 709.466 185.857 709.466 M185.857 705.762 Q191.667 705.762 194.722 710.369 Q197.801 714.952 197.801 723.702 Q197.801 732.429 194.722 737.035 Q191.667 741.619 185.857 741.619 Q180.046 741.619 176.968 737.035 Q173.912 732.429 173.912 723.702 Q173.912 714.952 176.968 710.369 Q180.046 705.762 185.857 705.762 Z" fill="#000000" fill-rule="nonzero" fill-opacity="1" /><path clip-path="url(#clip960)" d="M234.19 715.485 L223.611 726.11 L234.19 736.688 L231.435 739.489 L220.81 728.864 L210.185 739.489 L207.454 736.688 L218.009 726.11 L207.454 715.485 L210.185 712.684 L220.81 723.309 L231.435 712.684 L234.19 715.485 Z" fill="#000000" fill-rule="nonzero" fill-opacity="1" /><path clip-path="url(#clip960)" d="M246.551 737.012 L254.19 737.012 L254.19 710.647 L245.879 712.313 L245.879 708.054 L254.143 706.387 L258.819 706.387 L258.819 737.012 L266.458 737.012 L266.458 740.947 L246.551 740.947 L246.551 737.012 Z" fill="#000000" fill-rule="nonzero" fill-opacity="1" /><path clip-path="url(#clip960)" d="M285.902 709.466 Q282.291 709.466 280.463 713.031 Q278.657 716.573 278.657 723.702 Q278.657 730.809 280.463 734.373 Q282.291 737.915 285.902 737.915 Q289.537 737.915 291.342 734.373 Q293.171 730.809 293.171 723.702 Q293.171 716.573 291.342 713.031 Q289.537 709.466 285.902 709.466 M285.902 705.762 Q291.712 705.762 294.768 710.369 Q297.847 714.952 297.847 723.702 Q297.847 732.429 294.768 737.035 Q291.712 741.619 285.902 741.619 Q280.092 741.619 277.013 737.035 Q273.958 732.429 273.958 723.702 Q273.958 714.952 277.013 710.369 Q280.092 705.762 285.902 705.762 Z" fill="#000000" fill-rule="nonzero" fill-opacity="1" /><path clip-path="url(#clip960)" d="M307.476 700.202 Q304.768 700.202 303.207 701.651 Q301.665 703.099 301.665 705.638 Q301.665 708.177 303.207 709.625 Q304.768 711.073 307.476 711.073 Q310.185 711.073 311.746 709.625 Q313.307 708.158 313.307 705.638 Q313.307 703.099 311.746 701.651 Q310.203 700.202 307.476 700.202 M303.677 698.585 Q301.232 697.983 299.859 696.309 Q298.505 694.635 298.505 692.228 Q298.505 688.861 300.894 686.905 Q303.301 684.949 307.476 684.949 Q311.67 684.949 314.059 686.905 Q316.448 688.861 316.448 692.228 Q316.448 694.635 315.075 696.309 Q313.72 697.983 311.294 698.585 Q314.04 699.224 315.564 701.086 Q317.106 702.948 317.106 705.638 Q317.106 709.719 314.604 711.901 Q312.122 714.082 307.476 714.082 Q302.831 714.082 300.329 711.901 Q297.847 709.719 297.847 705.638 Q297.847 702.948 299.389 701.086 Q300.931 699.224 303.677 698.585 M302.285 692.585 Q302.285 694.767 303.639 695.989 Q305.012 697.212 307.476 697.212 Q309.921 697.212 311.294 695.989 Q312.686 694.767 312.686 692.585 Q312.686 690.403 311.294 689.181 Q309.921 687.958 307.476 687.958 Q305.012 687.958 303.639 689.181 Q302.285 690.403 302.285 692.585 Z" fill="#000000" fill-rule="nonzero" fill-opacity="1" /><path clip-path="url(#clip960)" d="M100.602 531.913 L100.602 527.654 Q102.362 528.487 104.167 528.927 Q105.973 529.367 107.709 529.367 Q112.338 529.367 114.769 526.265 Q117.223 523.14 117.57 516.797 Q116.227 518.788 114.167 519.853 Q112.107 520.918 109.607 520.918 Q104.422 520.918 101.389 517.793 Q98.3802 514.644 98.3802 509.205 Q98.3802 503.881 101.528 500.663 Q104.676 497.445 109.908 497.445 Q115.903 497.445 119.051 502.052 Q122.223 506.635 122.223 515.385 Q122.223 523.556 118.334 528.441 Q114.468 533.302 107.917 533.302 Q106.158 533.302 104.352 532.955 Q102.547 532.607 100.602 531.913 M109.908 517.26 Q113.056 517.26 114.885 515.107 Q116.737 512.955 116.737 509.205 Q116.737 505.478 114.885 503.325 Q113.056 501.149 109.908 501.149 Q106.76 501.149 104.908 503.325 Q103.079 505.478 103.079 509.205 Q103.079 512.955 104.908 515.107 Q106.76 517.26 109.908 517.26 Z" fill="#000000" fill-rule="nonzero" fill-opacity="1" /><path clip-path="url(#clip960)" d="M130.625 526.751 L135.51 526.751 L135.51 532.63 L130.625 532.63 L130.625 526.751 Z" fill="#000000" fill-rule="nonzero" fill-opacity="1" /><path clip-path="url(#clip960)" d="M155.695 501.149 Q152.084 501.149 150.255 504.714 Q148.449 508.256 148.449 515.385 Q148.449 522.492 150.255 526.056 Q152.084 529.598 155.695 529.598 Q159.329 529.598 161.134 526.056 Q162.963 522.492 162.963 515.385 Q162.963 508.256 161.134 504.714 Q159.329 501.149 155.695 501.149 M155.695 497.445 Q161.505 497.445 164.56 502.052 Q167.639 506.635 167.639 515.385 Q167.639 524.112 164.56 528.718 Q161.505 533.302 155.695 533.302 Q149.885 533.302 146.806 528.718 Q143.75 524.112 143.75 515.385 Q143.75 506.635 146.806 502.052 Q149.885 497.445 155.695 497.445 Z" fill="#000000" fill-rule="nonzero" fill-opacity="1" /><path clip-path="url(#clip960)" d="M185.857 501.149 Q182.245 501.149 180.417 504.714 Q178.611 508.256 178.611 515.385 Q178.611 522.492 180.417 526.056 Q182.245 529.598 185.857 529.598 Q189.491 529.598 191.296 526.056 Q193.125 522.492 193.125 515.385 Q193.125 508.256 191.296 504.714 Q189.491 501.149 185.857 501.149 M185.857 497.445 Q191.667 497.445 194.722 502.052 Q197.801 506.635 197.801 515.385 Q197.801 524.112 194.722 528.718 Q191.667 533.302 185.857 533.302 Q180.046 533.302 176.968 528.718 Q173.912 524.112 173.912 515.385 Q173.912 506.635 176.968 502.052 Q180.046 497.445 185.857 497.445 Z" fill="#000000" fill-rule="nonzero" fill-opacity="1" /><path clip-path="url(#clip960)" d="M234.19 507.168 L223.611 517.793 L234.19 528.371 L231.435 531.172 L220.81 520.547 L210.185 531.172 L207.454 528.371 L218.009 517.793 L207.454 507.168 L210.185 504.367 L220.81 514.992 L231.435 504.367 L234.19 507.168 Z" fill="#000000" fill-rule="nonzero" fill-opacity="1" /><path clip-path="url(#clip960)" d="M246.551 528.695 L254.19 528.695 L254.19 502.33 L245.879 503.996 L245.879 499.737 L254.143 498.07 L258.819 498.07 L258.819 528.695 L266.458 528.695 L266.458 532.63 L246.551 532.63 L246.551 528.695 Z" fill="#000000" fill-rule="nonzero" fill-opacity="1" /><path clip-path="url(#clip960)" d="M285.902 501.149 Q282.291 501.149 280.463 504.714 Q278.657 508.256 278.657 515.385 Q278.657 522.492 280.463 526.056 Q282.291 529.598 285.902 529.598 Q289.537 529.598 291.342 526.056 Q293.171 522.492 293.171 515.385 Q293.171 508.256 291.342 504.714 Q289.537 501.149 285.902 501.149 M285.902 497.445 Q291.712 497.445 294.768 502.052 Q297.847 506.635 297.847 515.385 Q297.847 524.112 294.768 528.718 Q291.712 533.302 285.902 533.302 Q280.092 533.302 277.013 528.718 Q273.958 524.112 273.958 515.385 Q273.958 506.635 277.013 502.052 Q280.092 497.445 285.902 497.445 Z" fill="#000000" fill-rule="nonzero" fill-opacity="1" /><path clip-path="url(#clip960)" d="M307.476 491.885 Q304.768 491.885 303.207 493.334 Q301.665 494.782 301.665 497.321 Q301.665 499.86 303.207 501.308 Q304.768 502.756 307.476 502.756 Q310.185 502.756 311.746 501.308 Q313.307 499.841 313.307 497.321 Q313.307 494.782 311.746 493.334 Q310.203 491.885 307.476 491.885 M303.677 490.268 Q301.232 489.666 299.859 487.992 Q298.505 486.318 298.505 483.911 Q298.505 480.544 300.894 478.588 Q303.301 476.632 307.476 476.632 Q311.67 476.632 314.059 478.588 Q316.448 480.544 316.448 483.911 Q316.448 486.318 315.075 487.992 Q313.72 489.666 311.294 490.268 Q314.04 490.907 315.564 492.769 Q317.106 494.631 317.106 497.321 Q317.106 501.402 314.604 503.584 Q312.122 505.765 307.476 505.765 Q302.831 505.765 300.329 503.584 Q297.847 501.402 297.847 497.321 Q297.847 494.631 299.389 492.769 Q300.931 490.907 303.677 490.268 M302.285 484.268 Q302.285 486.45 303.639 487.672 Q305.012 488.895 307.476 488.895 Q309.921 488.895 311.294 487.672 Q312.686 486.45 312.686 484.268 Q312.686 482.087 311.294 480.864 Q309.921 479.642 307.476 479.642 Q305.012 479.642 303.639 480.864 Q302.285 482.087 302.285 484.268 Z" fill="#000000" fill-rule="nonzero" fill-opacity="1" /><path clip-path="url(#clip960)" d="M101.161 320.378 L108.8 320.378 L108.8 294.013 L100.49 295.679 L100.49 291.42 L108.753 289.754 L113.429 289.754 L113.429 320.378 L121.068 320.378 L121.068 324.314 L101.161 324.314 L101.161 320.378 Z" fill="#000000" fill-rule="nonzero" fill-opacity="1" /><path clip-path="url(#clip960)" d="M130.513 318.434 L135.397 318.434 L135.397 324.314 L130.513 324.314 L130.513 318.434 Z" fill="#000000" fill-rule="nonzero" fill-opacity="1" /><path clip-path="url(#clip960)" d="M155.582 292.832 Q151.971 292.832 150.142 296.397 Q148.336 299.939 148.336 307.068 Q148.336 314.175 150.142 317.739 Q151.971 321.281 155.582 321.281 Q159.216 321.281 161.022 317.739 Q162.85 314.175 162.85 307.068 Q162.85 299.939 161.022 296.397 Q159.216 292.832 155.582 292.832 M155.582 289.129 Q161.392 289.129 164.448 293.735 Q167.526 298.318 167.526 307.068 Q167.526 315.795 164.448 320.402 Q161.392 324.985 155.582 324.985 Q149.772 324.985 146.693 320.402 Q143.637 315.795 143.637 307.068 Q143.637 298.318 146.693 293.735 Q149.772 289.129 155.582 289.129 Z" fill="#000000" fill-rule="nonzero" fill-opacity="1" /><path clip-path="url(#clip960)" d="M185.744 292.832 Q182.133 292.832 180.304 296.397 Q178.498 299.939 178.498 307.068 Q178.498 314.175 180.304 317.739 Q182.133 321.281 185.744 321.281 Q189.378 321.281 191.183 317.739 Q193.012 314.175 193.012 307.068 Q193.012 299.939 191.183 296.397 Q189.378 292.832 185.744 292.832 M185.744 289.129 Q191.554 289.129 194.609 293.735 Q197.688 298.318 197.688 307.068 Q197.688 315.795 194.609 320.402 Q191.554 324.985 185.744 324.985 Q179.934 324.985 176.855 320.402 Q173.799 315.795 173.799 307.068 Q173.799 298.318 176.855 293.735 Q179.934 289.129 185.744 289.129 Z" fill="#000000" fill-rule="nonzero" fill-opacity="1" /><path clip-path="url(#clip960)" d="M234.077 298.851 L223.498 309.476 L234.077 320.054 L231.322 322.855 L220.697 312.23 L210.072 322.855 L207.341 320.054 L217.896 309.476 L207.341 298.851 L210.072 296.05 L220.697 306.675 L231.322 296.05 L234.077 298.851 Z" fill="#000000" fill-rule="nonzero" fill-opacity="1" /><path clip-path="url(#clip960)" d="M246.438 320.378 L254.077 320.378 L254.077 294.013 L245.767 295.679 L245.767 291.42 L254.03 289.754 L258.706 289.754 L258.706 320.378 L266.345 320.378 L266.345 324.314 L246.438 324.314 L246.438 320.378 Z" fill="#000000" fill-rule="nonzero" fill-opacity="1" /><path clip-path="url(#clip960)" d="M285.789 292.832 Q282.178 292.832 280.35 296.397 Q278.544 299.939 278.544 307.068 Q278.544 314.175 280.35 317.739 Q282.178 321.281 285.789 321.281 Q289.424 321.281 291.229 317.739 Q293.058 314.175 293.058 307.068 Q293.058 299.939 291.229 296.397 Q289.424 292.832 285.789 292.832 M285.789 289.129 Q291.6 289.129 294.655 293.735 Q297.734 298.318 297.734 307.068 Q297.734 315.795 294.655 320.402 Q291.6 324.985 285.789 324.985 Q279.979 324.985 276.901 320.402 Q273.845 315.795 273.845 307.068 Q273.845 298.318 276.901 293.735 Q279.979 289.129 285.789 289.129 Z" fill="#000000" fill-rule="nonzero" fill-opacity="1" /><path clip-path="url(#clip960)" d="M299.539 296.32 L299.539 292.859 Q300.969 293.537 302.436 293.894 Q303.903 294.251 305.313 294.251 Q309.075 294.251 311.05 291.731 Q313.043 289.192 313.325 284.039 Q312.235 285.656 310.561 286.521 Q308.887 287.386 306.856 287.386 Q302.643 287.386 300.179 284.847 Q297.734 282.289 297.734 277.87 Q297.734 273.544 300.292 270.93 Q302.85 268.315 307.1 268.315 Q311.971 268.315 314.529 272.058 Q317.106 275.782 317.106 282.891 Q317.106 289.53 313.946 293.499 Q310.805 297.449 305.483 297.449 Q304.053 297.449 302.586 297.166 Q301.119 296.884 299.539 296.32 M307.1 284.415 Q309.658 284.415 311.144 282.666 Q312.648 280.917 312.648 277.87 Q312.648 274.842 311.144 273.092 Q309.658 271.325 307.1 271.325 Q304.542 271.325 303.038 273.092 Q301.552 274.842 301.552 277.87 Q301.552 280.917 303.038 282.666 Q304.542 284.415 307.1 284.415 Z" fill="#000000" fill-rule="nonzero" fill-opacity="1" /><path clip-path="url(#clip960)" d="M101.161 112.061 L108.8 112.061 L108.8 85.6958 L100.49 87.3625 L100.49 83.1032 L108.753 81.4366 L113.429 81.4366 L113.429 112.061 L121.068 112.061 L121.068 115.997 L101.161 115.997 L101.161 112.061 Z" fill="#000000" fill-rule="nonzero" fill-opacity="1" /><path clip-path="url(#clip960)" d="M130.513 110.117 L135.397 110.117 L135.397 115.997 L130.513 115.997 L130.513 110.117 Z" fill="#000000" fill-rule="nonzero" fill-opacity="1" /><path clip-path="url(#clip960)" d="M146.392 112.061 L154.031 112.061 L154.031 85.6958 L145.721 87.3625 L145.721 83.1032 L153.985 81.4366 L158.661 81.4366 L158.661 112.061 L166.299 112.061 L166.299 115.997 L146.392 115.997 L146.392 112.061 Z" fill="#000000" fill-rule="nonzero" fill-opacity="1" /><path clip-path="url(#clip960)" d="M185.744 84.5153 Q182.133 84.5153 180.304 88.0801 Q178.498 91.6217 178.498 98.7513 Q178.498 105.858 180.304 109.423 Q182.133 112.964 185.744 112.964 Q189.378 112.964 191.183 109.423 Q193.012 105.858 193.012 98.7513 Q193.012 91.6217 191.183 88.0801 Q189.378 84.5153 185.744 84.5153 M185.744 80.8116 Q191.554 80.8116 194.609 85.418 Q197.688 90.0013 197.688 98.7513 Q197.688 107.478 194.609 112.085 Q191.554 116.668 185.744 116.668 Q179.934 116.668 176.855 112.085 Q173.799 107.478 173.799 98.7513 Q173.799 90.0013 176.855 85.418 Q179.934 80.8116 185.744 80.8116 Z" fill="#000000" fill-rule="nonzero" fill-opacity="1" /><path clip-path="url(#clip960)" d="M234.077 90.5337 L223.498 101.159 L234.077 111.737 L231.322 114.538 L220.697 103.913 L210.072 114.538 L207.341 111.737 L217.896 101.159 L207.341 90.5337 L210.072 87.7328 L220.697 98.3578 L231.322 87.7328 L234.077 90.5337 Z" fill="#000000" fill-rule="nonzero" fill-opacity="1" /><path clip-path="url(#clip960)" d="M246.438 112.061 L254.077 112.061 L254.077 85.6958 L245.767 87.3625 L245.767 83.1032 L254.03 81.4366 L258.706 81.4366 L258.706 112.061 L266.345 112.061 L266.345 115.997 L246.438 115.997 L246.438 112.061 Z" fill="#000000" fill-rule="nonzero" fill-opacity="1" /><path clip-path="url(#clip960)" d="M285.789 84.5153 Q282.178 84.5153 280.35 88.0801 Q278.544 91.6217 278.544 98.7513 Q278.544 105.858 280.35 109.423 Q282.178 112.964 285.789 112.964 Q289.424 112.964 291.229 109.423 Q293.058 105.858 293.058 98.7513 Q293.058 91.6217 291.229 88.0801 Q289.424 84.5153 285.789 84.5153 M285.789 80.8116 Q291.6 80.8116 294.655 85.418 Q297.734 90.0013 297.734 98.7513 Q297.734 107.478 294.655 112.085 Q291.6 116.668 285.789 116.668 Q279.979 116.668 276.901 112.085 Q273.845 107.478 273.845 98.7513 Q273.845 90.0013 276.901 85.418 Q279.979 80.8116 285.789 80.8116 Z" fill="#000000" fill-rule="nonzero" fill-opacity="1" /><path clip-path="url(#clip960)" d="M299.539 88.0031 L299.539 84.5425 Q300.969 85.2196 302.436 85.5769 Q303.903 85.9343 305.313 85.9343 Q309.075 85.9343 311.05 83.414 Q313.043 80.875 313.325 75.7217 Q312.235 77.3391 310.561 78.2043 Q308.887 79.0694 306.856 79.0694 Q302.643 79.0694 300.179 76.5304 Q297.734 73.9725 297.734 69.5527 Q297.734 65.2269 300.292 62.6126 Q302.85 59.9984 307.1 59.9984 Q311.971 59.9984 314.529 63.7411 Q317.106 67.465 317.106 74.5744 Q317.106 81.2135 313.946 85.182 Q310.805 89.1316 305.483 89.1316 Q304.053 89.1316 302.586 88.8495 Q301.119 88.5674 299.539 88.0031 M307.1 76.0978 Q309.658 76.0978 311.144 74.3487 Q312.648 72.5996 312.648 69.5527 Q312.648 66.5247 311.144 64.7755 Q309.658 63.0076 307.1 63.0076 Q304.542 63.0076 303.038 64.7755 Q301.552 66.5247 301.552 69.5527 Q301.552 72.5996 303.038 74.3487 Q304.542 76.0978 307.1 76.0978 Z" fill="#000000" fill-rule="nonzero" fill-opacity="1" /><path clip-path="url(#clip960)" d="M-9.64527 840.632 L0.4762 840.632 L0.4762 828.569 L5.02768 828.569 L5.02768 840.632 L24.3794 840.632 Q28.7399 840.632 29.9813 839.454 Q31.2226 838.245 31.2226 834.584 L31.2226 828.569 L36.1242 828.569 L36.1242 834.584 Q36.1242 841.364 33.6097 843.942 Q31.0634 846.52 24.3794 846.52 L5.02768 846.52 L5.02768 850.817 L0.4762 850.817 L0.4762 846.52 L-9.64527 846.52 L-9.64527 840.632 Z" fill="#000000" fill-rule="nonzero" fill-opacity="1" /><path clip-path="url(#clip960)" d="M-11.3958 789.738 L-11.3958 784.327 L42.1716 800.878 L42.1716 806.289 L-11.3958 789.738 Z" fill="#000000" fill-rule="nonzero" fill-opacity="1" /><path clip-path="url(#clip960)" d="M14.6081 727.831 L36.1242 727.831 L36.1242 733.688 L14.799 733.688 Q9.7383 733.688 7.22385 735.661 Q4.7094 737.635 4.7094 741.581 Q4.7094 746.324 7.73311 749.061 Q10.7568 751.798 15.9767 751.798 L36.1242 751.798 L36.1242 757.687 L0.4762 757.687 L0.4762 751.798 L6.01437 751.798 Q2.79968 749.698 1.20826 746.865 Q-0.38317 744 -0.38317 740.276 Q-0.38317 734.133 3.43625 730.982 Q7.22385 727.831 14.6081 727.831 Z" fill="#000000" fill-rule="nonzero" fill-opacity="1" /><path clip-path="url(#clip960)" d="M1.52654 693.425 L7.06471 693.425 Q5.79157 695.907 5.15499 698.581 Q4.51842 701.255 4.51842 704.119 Q4.51842 708.48 5.85522 710.676 Q7.19202 712.84 9.86562 712.84 Q11.9026 712.84 13.0803 711.281 Q14.2261 709.721 15.2765 705.01 L15.7221 703.005 Q17.0589 696.767 19.5097 694.157 Q21.9286 691.515 26.2891 691.515 Q31.2544 691.515 34.1508 695.462 Q37.0472 699.377 37.0472 706.252 Q37.0472 709.116 36.4743 712.235 Q35.9332 715.323 34.8192 718.76 L28.7718 718.76 Q30.4587 715.514 31.318 712.363 Q32.1456 709.212 32.1456 706.124 Q32.1456 701.987 30.7451 699.759 Q29.3129 697.531 26.7347 697.531 Q24.3476 697.531 23.0745 699.154 Q21.8013 700.745 20.6237 706.188 L20.1462 708.225 Q19.0004 713.668 16.6451 716.087 Q14.258 718.506 10.1202 718.506 Q5.09134 718.506 2.35408 714.941 Q-0.38317 711.376 -0.38317 704.819 Q-0.38317 701.573 0.0942579 698.708 Q0.571686 695.844 1.52654 693.425 Z" fill="#000000" fill-rule="nonzero" fill-opacity="1" /><path clip-path="url(#clip961)" d="M1243.33 1454.11 L1273.01 1448.05 L1301.21 1441.98 L1327.37 1435.92 L1350.77 1429.85 L1370.6 1423.79 L1385.98 1417.73 L1396.09 1411.66 L1400.31 1405.6 L1398.4 1399.53 L1390.53 1393.47 L1377.35 1387.41 L1359.91 1381.34 L1339.5 1375.28 L1317.45 1369.21 L1294.9 1363.15 L1272.68 1357.09 L1251.2 1351.02 L1230.45 1344.96 L1210.09 1338.89 L1189.64 1332.83 L1168.61 1326.77 L1146.67 1320.7 L1123.75 1314.64 L1100.09 1308.57 L1076.15 1302.51 L1052.58 1296.45 L1030.08 1290.38 L1009.31 1284.32 L990.77 1278.25 L974.782 1272.19 L961.457 1266.12 L950.722 1260.06 L942.359 1254 L936.056 1247.93 L931.458 1241.87 L928.21 1235.8 L925.988 1229.74 L924.514 1223.68 L923.568 1217.61 L922.978 1211.55 L922.622 1205.48 L922.413 1199.42 L922.294 1193.36 L922.229 1187.29 L922.194 1181.23 L922.175 1175.16 L922.166 1169.1 L922.162 1163.04 L922.159 1156.97 L922.158 1150.91 L922.158 1144.84 L922.158 1138.78 L922.158 1132.72 L922.158 1126.65 L922.158 1120.59 L922.158 1114.52 L922.158 1108.46 L922.158 1102.39 L922.158 1096.33 L922.158 1090.27 L922.158 1084.2 L922.158 1078.14 L922.158 1072.07 L922.158 1066.01 L922.158 1059.95 L922.158 1053.88 L922.158 1047.82 L922.158 1041.75 L922.158 1035.69 L922.158 1029.63 L922.158 1023.56 L922.158 1017.5 L922.158 1011.43 L922.158 1005.37 L922.158 999.306 L922.158 993.242 L922.158 987.178 L922.158 981.114 L922.158 975.049 L922.158 968.985 L922.158 962.921 L922.158 956.857 L922.158 950.793 L922.158 944.729 L922.158 938.665 L922.158 932.601 L922.158 926.537 L922.158 920.473 L922.158 914.409 L922.158 908.345 L922.158 902.281 L922.158 896.217 L922.158 890.152 L922.158 884.088 L922.158 878.024 L922.158 871.96 L922.158 865.896 L922.158 859.832 L922.158 853.768 L922.158 847.704 L922.158 841.64 L922.158 835.576 L922.158 829.512 L922.158 823.448 L922.158 817.384 L922.158 811.319 L922.158 805.255 L922.158 799.191 L922.158 793.127 L922.158 787.063 L922.158 780.999 L922.158 774.935 L922.158 768.871 L922.158 762.807 L922.158 756.743 L922.158 750.679 L922.158 744.615 L922.158 738.551 L922.158 732.487 L922.158 726.422 L922.158 720.358 L922.159 714.294 L922.16 708.23 L922.163 702.166 L922.169 696.102 L922.181 690.038 L922.205 683.974 L922.251 677.91 L922.335 671.846 L922.485 665.782 L922.747 659.718 L923.188 653.654 L923.909 647.59 L925.051 641.525 L926.804 635.461 L929.412 629.397 L933.168 623.333 L938.402 617.269 L945.457 611.205 L954.644 605.141 L966.191 599.077 L980.178 593.013 L996.478 586.949 L1014.7 580.885 L1034.19 574.821 L1054 568.757 L1072.99 562.693 L1089.9 556.628 L1103.52 550.564 L1112.78 544.5 L1116.94 538.436 L727.38 538.436 L731.534 544.5 L740.795 550.564 L754.412 556.628 L771.329 562.693 L790.318 568.757 L810.126 574.821 L829.611 580.885 L847.837 586.949 L864.137 593.013 L878.125 599.077 L889.671 605.141 L898.858 611.205 L905.913 617.269 L911.147 623.333 L914.903 629.397 L917.511 635.461 L919.264 641.525 L920.406 647.59 L921.127 653.654 L921.568 659.718 L921.83 665.782 L921.981 671.846 L922.065 677.91 L922.11 683.974 L922.134 690.038 L922.146 696.102 L922.152 702.166 L922.155 708.23 L922.157 714.294 L922.157 720.358 L922.157 726.422 L922.158 732.487 L922.158 738.551 L922.158 744.615 L922.158 750.679 L922.158 756.743 L922.158 762.807 L922.158 768.871 L922.158 774.935 L922.158 780.999 L922.158 787.063 L922.158 793.127 L922.158 799.191 L922.158 805.255 L922.158 811.319 L922.158 817.384 L922.158 823.448 L922.158 829.512 L922.158 835.576 L922.158 841.64 L922.158 847.704 L922.158 853.768 L922.158 859.832 L922.158 865.896 L922.158 871.96 L922.158 878.024 L922.158 884.088 L922.158 890.152 L922.158 896.217 L922.158 902.281 L922.158 908.345 L922.158 914.409 L922.158 920.473 L922.158 926.537 L922.158 932.601 L922.158 938.665 L922.158 944.729 L922.158 950.793 L922.158 956.857 L922.158 962.921 L922.158 968.985 L922.158 975.049 L922.158 981.114 L922.158 987.178 L922.158 993.242 L922.158 999.306 L922.158 1005.37 L922.158 1011.43 L922.158 1017.5 L922.158 1023.56 L922.158 1029.63 L922.158 1035.69 L922.158 1041.75 L922.158 1047.82 L922.158 1053.88 L922.158 1059.95 L922.158 1066.01 L922.158 1072.07 L922.158 1078.14 L922.158 1084.2 L922.158 1090.27 L922.158 1096.33 L922.158 1102.39 L922.158 1108.46 L922.158 1114.52 L922.158 1120.59 L922.158 1126.65 L922.158 1132.72 L922.158 1138.78 L922.157 1144.84 L922.157 1150.91 L922.156 1156.97 L922.154 1163.04 L922.149 1169.1 L922.14 1175.16 L922.122 1181.23 L922.087 1187.29 L922.021 1193.36 L921.903 1199.42 L921.694 1205.48 L921.337 1211.55 L920.748 1217.61 L919.801 1223.68 L918.328 1229.74 L916.106 1235.8 L912.858 1241.87 L908.259 1247.93 L901.956 1254 L893.593 1260.06 L882.859 1266.12 L869.534 1272.19 L853.545 1278.25 L835.005 1284.32 L814.233 1290.38 L791.737 1296.45 L768.168 1302.51 L744.228 1308.57 L720.563 1314.64 L697.649 1320.7 L675.709 1326.77 L654.677 1332.83 L634.225 1338.89 L613.869 1344.96 L593.115 1351.02 L571.634 1357.09 L549.418 1363.15 L526.869 1369.21 L504.812 1375.28 L484.402 1381.34 L466.965 1387.41 L453.789 1393.47 L445.917 1399.53 L444.002 1405.6 L448.228 1411.66 L458.336 1417.73 L473.714 1423.79 L493.544 1429.85 L516.948 1435.92 L543.102 1441.98 L571.306 1448.05 L600.984 1454.11 L1243.33 1454.11  Z" fill="#009af9" fill-rule="evenodd" fill-opacity="1"/>
<polyline clip-path="url(#clip961)" style="stroke:#000000; stroke-linecap:round; stroke-linejoin:round; stroke-width:4; stroke-opacity:1; fill:none" points="1243.33,1454.11 1273.01,1448.05 1301.21,1441.98 1327.37,1435.92 1350.77,1429.85 1370.6,1423.79 1385.98,1417.73 1396.09,1411.66 1400.31,1405.6 1398.4,1399.53 1390.53,1393.47 1377.35,1387.41 1359.91,1381.34 1339.5,1375.28 1317.45,1369.21 1294.9,1363.15 1272.68,1357.09 1251.2,1351.02 1230.45,1344.96 1210.09,1338.89 1189.64,1332.83 1168.61,1326.77 1146.67,1320.7 1123.75,1314.64 1100.09,1308.57 1076.15,1302.51 1052.58,1296.45 1030.08,1290.38 1009.31,1284.32 990.77,1278.25 974.782,1272.19 961.457,1266.12 950.722,1260.06 942.359,1254 936.056,1247.93 931.458,1241.87 928.21,1235.8 925.988,1229.74 924.514,1223.68 923.568,1217.61 922.978,1211.55 922.622,1205.48 922.413,1199.42 922.294,1193.36 922.229,1187.29 922.194,1181.23 922.175,1175.16 922.166,1169.1 922.162,1163.04 922.159,1156.97 922.158,1150.91 922.158,1144.84 922.158,1138.78 922.158,1132.72 922.158,1126.65 922.158,1120.59 922.158,1114.52 922.158,1108.46 922.158,1102.39 922.158,1096.33 922.158,1090.27 922.158,1084.2 922.158,1078.14 922.158,1072.07 922.158,1066.01 922.158,1059.95 922.158,1053.88 922.158,1047.82 922.158,1041.75 922.158,1035.69 922.158,1029.63 922.158,1023.56 922.158,1017.5 922.158,1011.43 922.158,1005.37 922.158,999.306 922.158,993.242 922.158,987.178 922.158,981.114 922.158,975.049 922.158,968.985 922.158,962.921 922.158,956.857 922.158,950.793 922.158,944.729 922.158,938.665 922.158,932.601 922.158,926.537 922.158,920.473 922.158,914.409 922.158,908.345 922.158,902.281 922.158,896.217 922.158,890.152 922.158,884.088 922.158,878.024 922.158,871.96 922.158,865.896 922.158,859.832 922.158,853.768 922.158,847.704 922.158,841.64 922.158,835.576 922.158,829.512 922.158,823.448 922.158,817.384 922.158,811.319 922.158,805.255 922.158,799.191 922.158,793.127 922.158,787.063 922.158,780.999 922.158,774.935 922.158,768.871 922.158,762.807 922.158,756.743 922.158,750.679 922.158,744.615 922.158,738.551 922.158,732.487 922.158,726.422 922.158,720.358 922.159,714.294 922.16,708.23 922.163,702.166 922.169,696.102 922.181,690.038 922.205,683.974 922.251,677.91 922.335,671.846 922.485,665.782 922.747,659.718 923.188,653.654 923.909,647.59 925.051,641.525 926.804,635.461 929.412,629.397 933.168,623.333 938.402,617.269 945.457,611.205 954.644,605.141 966.191,599.077 980.178,593.013 996.478,586.949 1014.7,580.885 1034.19,574.821 1054,568.757 1072.99,562.693 1089.9,556.628 1103.52,550.564 1112.78,544.5 1116.94,538.436 727.38,538.436 731.534,544.5 740.795,550.564 754.412,556.628 771.329,562.693 790.318,568.757 810.126,574.821 829.611,580.885 847.837,586.949 864.137,593.013 878.125,599.077 889.671,605.141 898.858,611.205 905.913,617.269 911.147,623.333 914.903,629.397 917.511,635.461 919.264,641.525 920.406,647.59 921.127,653.654 921.568,659.718 921.83,665.782 921.981,671.846 922.065,677.91 922.11,683.974 922.134,690.038 922.146,696.102 922.152,702.166 922.155,708.23 922.157,714.294 922.157,720.358 922.157,726.422 922.158,732.487 922.158,738.551 922.158,744.615 922.158,750.679 922.158,756.743 922.158,762.807 922.158,768.871 922.158,774.935 922.158,780.999 922.158,787.063 922.158,793.127 922.158,799.191 922.158,805.255 922.158,811.319 922.158,817.384 922.158,823.448 922.158,829.512 922.158,835.576 922.158,841.64 922.158,847.704 922.158,853.768 922.158,859.832 922.158,865.896 922.158,871.96 922.158,878.024 922.158,884.088 922.158,890.152 922.158,896.217 922.158,902.281 922.158,908.345 922.158,914.409 922.158,920.473 922.158,926.537 922.158,932.601 922.158,938.665 922.158,944.729 922.158,950.793 922.158,956.857 922.158,962.921 922.158,968.985 922.158,975.049 922.158,981.114 922.158,987.178 922.158,993.242 922.158,999.306 922.158,1005.37 922.158,1011.43 922.158,1017.5 922.158,1023.56 922.158,1029.63 922.158,1035.69 922.158,1041.75 922.158,1047.82 922.158,1053.88 922.158,1059.95 922.158,1066.01 922.158,1072.07 922.158,1078.14 922.158,1084.2 922.158,1090.27 922.158,1096.33 922.158,1102.39 922.158,1108.46 922.158,1114.52 922.158,1120.59 922.158,1126.65 922.158,1132.72 922.158,1138.78 922.157,1144.84 922.157,1150.91 922.156,1156.97 922.154,1163.04 922.149,1169.1 922.14,1175.16 922.122,1181.23 922.087,1187.29 922.021,1193.36 921.903,1199.42 921.694,1205.48 921.337,1211.55 920.748,1217.61 919.801,1223.68 918.328,1229.74 916.106,1235.8 912.858,1241.87 908.259,1247.93 901.956,1254 893.593,1260.06 882.859,1266.12 869.534,1272.19 853.545,1278.25 835.005,1284.32 814.233,1290.38 791.737,1296.45 768.168,1302.51 744.228,1308.57 720.563,1314.64 697.649,1320.7 675.709,1326.77 654.677,1332.83 634.225,1338.89 613.869,1344.96 593.115,1351.02 571.634,1357.09 549.418,1363.15 526.869,1369.21 504.812,1375.28 484.402,1381.34 466.965,1387.41 453.789,1393.47 445.917,1399.53 444.002,1405.6 448.228,1411.66 458.336,1417.73 473.714,1423.79 493.544,1429.85 516.948,1435.92 543.102,1441.98 571.306,1448.05 600.984,1454.11 1243.33,1454.11 "/>
<path clip-path="url(#clip961)" d="M3037.61 266.007 L3043.37 262.994 L3048.29 259.98 L3052.4 256.967 L3055.72 253.954 L3058.31 250.94 L3060.21 247.927 L3061.48 244.914 L3062.18 241.9 L3062.39 238.887 L3062.17 235.874 L3061.61 232.86 L3060.77 229.847 L3059.73 226.834 L3058.56 223.82 L3057.34 220.807 L3056.12 217.794 L3054.97 214.78 L3053.94 211.767 L3053.07 208.754 L3052.4 205.741 L3051.97 202.727 L3051.8 199.714 L3051.89 196.701 L3052.25 193.687 L3052.88 190.674 L3053.77 187.661 L3054.9 184.647 L3056.25 181.634 L3057.77 178.621 L3059.45 175.607 L3061.23 172.594 L3063.06 169.581 L3064.91 166.567 L3066.72 163.554 L3068.44 160.541 L3070.01 157.527 L3071.38 154.514 L3072.51 151.501 L3073.32 148.487 L3073.79 145.474 L3073.86 142.461 L3073.49 139.447 L3072.63 136.434 L3071.25 133.421 L3069.31 130.407 L3066.79 127.394 L3063.67 124.381 L3059.91 121.367 L3055.52 118.354 L3050.47 115.341 L3044.76 112.327 L3038.4 109.314 L3031.39 106.301 L3023.74 103.287 L3015.46 100.274 L3006.58 97.2608 L2997.13 94.2475 L2987.13 91.2341 L2976.61 88.2208 L2214.79 88.2208 L2204.28 91.2341 L2194.28 94.2475 L2184.82 97.2608 L2175.95 100.274 L2167.67 103.287 L2160.02 106.301 L2153.01 109.314 L2146.65 112.327 L2140.94 115.341 L2135.89 118.354 L2131.5 121.367 L2127.74 124.381 L2124.62 127.394 L2122.1 130.407 L2120.16 133.421 L2118.78 136.434 L2117.92 139.447 L2117.55 142.461 L2117.62 145.474 L2118.08 148.487 L2118.9 151.501 L2120.02 154.514 L2121.4 157.527 L2122.97 160.541 L2124.69 163.554 L2126.49 166.567 L2128.34 169.581 L2130.18 172.594 L2131.96 175.607 L2133.63 178.621 L2135.16 181.634 L2136.51 184.647 L2137.64 187.661 L2138.53 190.674 L2139.16 193.687 L2139.52 196.701 L2139.61 199.714 L2139.44 202.727 L2139 205.741 L2138.34 208.754 L2137.47 211.767 L2136.44 214.78 L2135.29 217.794 L2134.07 220.807 L2132.85 223.82 L2131.68 226.834 L2130.64 229.847 L2129.8 232.86 L2129.24 235.874 L2129.02 238.887 L2129.23 241.9 L2129.93 244.914 L2131.2 247.927 L2133.1 250.94 L2135.68 253.954 L2139.01 256.967 L2143.12 259.98 L2148.04 262.994 L2153.8 266.007 L3037.61 266.007  Z" fill="#e26f46" fill-rule="evenodd" fill-opacity="1"/>
<polyline clip-path="url(#clip961)" style="stroke:#000000; stroke-linecap:round; stroke-linejoin:round; stroke-width:4; stroke-opacity:1; fill:none" points="3037.61,266.007 3043.37,262.994 3048.29,259.98 3052.4,256.967 3055.72,253.954 3058.31,250.94 3060.21,247.927 3061.48,244.914 3062.18,241.9 3062.39,238.887 3062.17,235.874 3061.61,232.86 3060.77,229.847 3059.73,226.834 3058.56,223.82 3057.34,220.807 3056.12,217.794 3054.97,214.78 3053.94,211.767 3053.07,208.754 3052.4,205.741 3051.97,202.727 3051.8,199.714 3051.89,196.701 3052.25,193.687 3052.88,190.674 3053.77,187.661 3054.9,184.647 3056.25,181.634 3057.77,178.621 3059.45,175.607 3061.23,172.594 3063.06,169.581 3064.91,166.567 3066.72,163.554 3068.44,160.541 3070.01,157.527 3071.38,154.514 3072.51,151.501 3073.32,148.487 3073.79,145.474 3073.86,142.461 3073.49,139.447 3072.63,136.434 3071.25,133.421 3069.31,130.407 3066.79,127.394 3063.67,124.381 3059.91,121.367 3055.52,118.354 3050.47,115.341 3044.76,112.327 3038.4,109.314 3031.39,106.301 3023.74,103.287 3015.46,100.274 3006.58,97.2608 2997.13,94.2475 2987.13,91.2341 2976.61,88.2208 2214.79,88.2208 2204.28,91.2341 2194.28,94.2475 2184.82,97.2608 2175.95,100.274 2167.67,103.287 2160.02,106.301 2153.01,109.314 2146.65,112.327 2140.94,115.341 2135.89,118.354 2131.5,121.367 2127.74,124.381 2124.62,127.394 2122.1,130.407 2120.16,133.421 2118.78,136.434 2117.92,139.447 2117.55,142.461 2117.62,145.474 2118.08,148.487 2118.9,151.501 2120.02,154.514 2121.4,157.527 2122.97,160.541 2124.69,163.554 2126.49,166.567 2128.34,169.581 2130.18,172.594 2131.96,175.607 2133.63,178.621 2135.16,181.634 2136.51,184.647 2137.64,187.661 2138.53,190.674 2139.16,193.687 2139.52,196.701 2139.61,199.714 2139.44,202.727 2139,205.741 2138.34,208.754 2137.47,211.767 2136.44,214.78 2135.29,217.794 2134.07,220.807 2132.85,223.82 2131.68,226.834 2130.64,229.847 2129.8,232.86 2129.24,235.874 2129.02,238.887 2129.23,241.9 2129.93,244.914 2131.2,247.927 2133.1,250.94 2135.68,253.954 2139.01,256.967 2143.12,259.98 2148.04,262.994 2153.8,266.007 3037.61,266.007 "/>
</svg>
