<?xml version="1.0" encoding="utf-8"?>
<svg xmlns="http://www.w3.org/2000/svg" xmlns:xlink="http://www.w3.org/1999/xlink" width="800" height="400" viewBox="0 0 3200 1600">
<defs>
  <clipPath id="clip210">
    <rect x="0" y="0" width="3200" height="1600"/>
  </clipPath>
</defs>
<path clip-path="url(#clip210)" d="M0 1600 L3200 1600 L3200 0 L0 0  Z" fill="#ffffff" fill-rule="evenodd" fill-opacity="1"/>
<defs>
  <clipPath id="clip211">
    <rect x="364" y="47" width="2789" height="1449"/>
  </clipPath>
</defs>
<path clip-path="url(#clip210)" d="M364.733 1495.09 L3152.76 1495.09 L3152.76 47.2441 L364.733 47.2441  Z" fill="#ffffff" fill-rule="evenodd" fill-opacity="1"/>
<polyline clip-path="url(#clip211)" style="stroke:#000000; stroke-linecap:round; stroke-linejoin:round; stroke-width:2; stroke-opacity:0.1; fill:none" points="735.885,1495.09 735.885,47.2441 "/>
<polyline clip-path="url(#clip211)" style="stroke:#000000; stroke-linecap:round; stroke-linejoin:round; stroke-width:2; stroke-opacity:0.1; fill:none" points="1758.74,1495.09 1758.74,47.2441 "/>
<polyline clip-path="url(#clip211)" style="stroke:#000000; stroke-linecap:round; stroke-linejoin:round; stroke-width:2; stroke-opacity:0.1; fill:none" points="2781.6,1495.09 2781.6,47.2441 "/>
<polyline clip-path="url(#clip211)" style="stroke:#000000; stroke-linecap:round; stroke-linejoin:round; stroke-width:2; stroke-opacity:0.1; fill:none" points="364.733,1375.75 3152.76,1375.75 "/>
<polyline clip-path="url(#clip211)" style="stroke:#000000; stroke-linecap:round; stroke-linejoin:round; stroke-width:2; stroke-opacity:0.1; fill:none" points="364.733,1104.2 3152.76,1104.2 "/>
<polyline clip-path="url(#clip211)" style="stroke:#000000; stroke-linecap:round; stroke-linejoin:round; stroke-width:2; stroke-opacity:0.1; fill:none" points="364.733,832.644 3152.76,832.644 "/>
<polyline clip-path="url(#clip211)" style="stroke:#000000; stroke-linecap:round; stroke-linejoin:round; stroke-width:2; stroke-opacity:0.1; fill:none" points="364.733,561.093 3152.76,561.093 "/>
<polyline clip-path="url(#clip211)" style="stroke:#000000; stroke-linecap:round; stroke-linejoin:round; stroke-width:2; stroke-opacity:0.1; fill:none" points="364.733,289.542 3152.76,289.542 "/>
<polyline clip-path="url(#clip210)" style="stroke:#000000; stroke-linecap:round; stroke-linejoin:round; stroke-width:4; stroke-opacity:1; fill:none" points="364.733,1495.09 3152.76,1495.09 "/>
<polyline clip-path="url(#clip210)" style="stroke:#000000; stroke-linecap:round; stroke-linejoin:round; stroke-width:4; stroke-opacity:1; fill:none" points="735.885,1495.09 735.885,1476.19 "/>
<polyline clip-path="url(#clip210)" style="stroke:#000000; stroke-linecap:round; stroke-linejoin:round; stroke-width:4; stroke-opacity:1; fill:none" points="1758.74,1495.09 1758.74,1476.19 "/>
<polyline clip-path="url(#clip210)" style="stroke:#000000; stroke-linecap:round; stroke-linejoin:round; stroke-width:4; stroke-opacity:1; fill:none" points="2781.6,1495.09 2781.6,1476.19 "/>
<path clip-path="url(#clip210)" d="M651.846 1538.73 L651.846 1542.75 Q650.04 1541.83 648.096 1541.36 Q646.151 1540.9 644.068 1540.9 Q640.897 1540.9 639.299 1541.87 Q637.725 1542.85 637.725 1544.79 Q637.725 1546.27 638.86 1547.13 Q639.994 1547.96 643.42 1548.73 L644.878 1549.05 Q649.415 1550.02 651.313 1551.8 Q653.235 1553.56 653.235 1556.74 Q653.235 1560.35 650.364 1562.45 Q647.517 1564.56 642.517 1564.56 Q640.434 1564.56 638.165 1564.14 Q635.92 1563.75 633.42 1562.94 L633.42 1558.54 Q635.781 1559.77 638.073 1560.39 Q640.364 1560.99 642.61 1560.99 Q645.619 1560.99 647.239 1559.98 Q648.86 1558.93 648.86 1557.06 Q648.86 1555.32 647.679 1554.4 Q646.522 1553.47 642.563 1552.61 L641.082 1552.27 Q637.123 1551.43 635.364 1549.72 Q633.605 1547.99 633.605 1544.98 Q633.605 1541.32 636.198 1539.33 Q638.79 1537.34 643.559 1537.34 Q645.92 1537.34 648.003 1537.68 Q650.086 1538.03 651.846 1538.73 Z" fill="#000000" fill-rule="nonzero" fill-opacity="1" /><path clip-path="url(#clip210)" d="M670.804 1566.3 Q668.998 1570.92 667.285 1572.34 Q665.572 1573.75 662.702 1573.75 L659.299 1573.75 L659.299 1570.18 L661.799 1570.18 Q663.559 1570.18 664.531 1569.35 Q665.503 1568.52 666.684 1565.42 L667.447 1563.47 L656.961 1537.96 L661.475 1537.96 L669.577 1558.24 L677.679 1537.96 L682.193 1537.96 L670.804 1566.3 Z" fill="#000000" fill-rule="nonzero" fill-opacity="1" /><path clip-path="url(#clip210)" d="M708.257 1542.94 Q709.855 1540.07 712.077 1538.7 Q714.299 1537.34 717.308 1537.34 Q721.359 1537.34 723.558 1540.18 Q725.757 1543.01 725.757 1548.24 L725.757 1563.89 L721.475 1563.89 L721.475 1548.38 Q721.475 1544.65 720.155 1542.85 Q718.836 1541.04 716.128 1541.04 Q712.818 1541.04 710.896 1543.24 Q708.975 1545.44 708.975 1549.24 L708.975 1563.89 L704.693 1563.89 L704.693 1548.38 Q704.693 1544.63 703.373 1542.85 Q702.054 1541.04 699.299 1541.04 Q696.035 1541.04 694.114 1543.26 Q692.193 1545.46 692.193 1549.24 L692.193 1563.89 L687.91 1563.89 L687.91 1537.96 L692.193 1537.96 L692.193 1541.99 Q693.651 1539.61 695.688 1538.47 Q697.725 1537.34 700.526 1537.34 Q703.35 1537.34 705.318 1538.77 Q707.308 1540.21 708.257 1542.94 Z" fill="#000000" fill-rule="nonzero" fill-opacity="1" /><path clip-path="url(#clip210)" d="M752.864 1550.95 Q752.864 1546.25 750.919 1543.59 Q748.998 1540.9 745.618 1540.9 Q742.239 1540.9 740.294 1543.59 Q738.373 1546.25 738.373 1550.95 Q738.373 1555.65 740.294 1558.33 Q742.239 1560.99 745.618 1560.99 Q748.998 1560.99 750.919 1558.33 Q752.864 1555.65 752.864 1550.95 M738.373 1541.9 Q739.716 1539.58 741.753 1538.47 Q743.813 1537.34 746.66 1537.34 Q751.382 1537.34 754.322 1541.09 Q757.285 1544.84 757.285 1550.95 Q757.285 1557.06 754.322 1560.81 Q751.382 1564.56 746.66 1564.56 Q743.813 1564.56 741.753 1563.45 Q739.716 1562.31 738.373 1560 L738.373 1563.89 L734.091 1563.89 L734.091 1527.87 L738.373 1527.87 L738.373 1541.9 Z" fill="#000000" fill-rule="nonzero" fill-opacity="1" /><path clip-path="url(#clip210)" d="M774.391 1540.95 Q770.965 1540.95 768.975 1543.63 Q766.984 1546.3 766.984 1550.95 Q766.984 1555.6 768.951 1558.29 Q770.942 1560.95 774.391 1560.95 Q777.794 1560.95 779.785 1558.26 Q781.775 1555.58 781.775 1550.95 Q781.775 1546.34 779.785 1543.66 Q777.794 1540.95 774.391 1540.95 M774.391 1537.34 Q779.947 1537.34 783.118 1540.95 Q786.289 1544.56 786.289 1550.95 Q786.289 1557.31 783.118 1560.95 Q779.947 1564.56 774.391 1564.56 Q768.813 1564.56 765.641 1560.95 Q762.493 1557.31 762.493 1550.95 Q762.493 1544.56 765.641 1540.95 Q768.813 1537.34 774.391 1537.34 Z" fill="#000000" fill-rule="nonzero" fill-opacity="1" /><path clip-path="url(#clip210)" d="M793.349 1527.87 L797.609 1527.87 L797.609 1563.89 L793.349 1563.89 L793.349 1527.87 Z" fill="#000000" fill-rule="nonzero" fill-opacity="1" /><path clip-path="url(#clip210)" d="M806.521 1537.96 L810.78 1537.96 L810.78 1563.89 L806.521 1563.89 L806.521 1537.96 M806.521 1527.87 L810.78 1527.87 L810.78 1533.26 L806.521 1533.26 L806.521 1527.87 Z" fill="#000000" fill-rule="nonzero" fill-opacity="1" /><path clip-path="url(#clip210)" d="M838.349 1538.96 L838.349 1542.94 Q836.544 1541.94 834.715 1541.46 Q832.909 1540.95 831.058 1540.95 Q826.914 1540.95 824.622 1543.59 Q822.331 1546.2 822.331 1550.95 Q822.331 1555.69 824.622 1558.33 Q826.914 1560.95 831.058 1560.95 Q832.909 1560.95 834.715 1560.46 Q836.544 1559.95 838.349 1558.96 L838.349 1562.89 Q836.567 1563.73 834.646 1564.14 Q832.747 1564.56 830.595 1564.56 Q824.738 1564.56 821.289 1560.88 Q817.84 1557.2 817.84 1550.95 Q817.84 1544.61 821.312 1540.97 Q824.808 1537.34 830.872 1537.34 Q832.84 1537.34 834.715 1537.75 Q836.59 1538.15 838.349 1538.96 Z" fill="#000000" fill-rule="nonzero" fill-opacity="1" /><path clip-path="url(#clip210)" d="M1669.07 1527.87 L1669.07 1531.41 L1664.99 1531.41 Q1662.7 1531.41 1661.8 1532.34 Q1660.92 1533.26 1660.92 1535.67 L1660.92 1537.96 L1667.93 1537.96 L1667.93 1541.27 L1660.92 1541.27 L1660.92 1563.89 L1656.64 1563.89 L1656.64 1541.27 L1652.56 1541.27 L1652.56 1537.96 L1656.64 1537.96 L1656.64 1536.16 Q1656.64 1531.83 1658.65 1529.86 Q1660.67 1527.87 1665.04 1527.87 L1669.07 1527.87 Z" fill="#000000" fill-rule="nonzero" fill-opacity="1" /><path clip-path="url(#clip210)" d="M1672.63 1537.96 L1676.89 1537.96 L1676.89 1563.89 L1672.63 1563.89 L1672.63 1537.96 M1672.63 1527.87 L1676.89 1527.87 L1676.89 1533.26 L1672.63 1533.26 L1672.63 1527.87 Z" fill="#000000" fill-rule="nonzero" fill-opacity="1" /><path clip-path="url(#clip210)" d="M1707.36 1548.24 L1707.36 1563.89 L1703.1 1563.89 L1703.1 1548.38 Q1703.1 1544.7 1701.66 1542.87 Q1700.23 1541.04 1697.36 1541.04 Q1693.91 1541.04 1691.92 1543.24 Q1689.93 1545.44 1689.93 1549.24 L1689.93 1563.89 L1685.64 1563.89 L1685.64 1537.96 L1689.93 1537.96 L1689.93 1541.99 Q1691.45 1539.65 1693.51 1538.49 Q1695.6 1537.34 1698.3 1537.34 Q1702.77 1537.34 1705.06 1540.11 Q1707.36 1542.87 1707.36 1548.24 Z" fill="#000000" fill-rule="nonzero" fill-opacity="1" /><path clip-path="url(#clip210)" d="M1715.85 1537.96 L1720.11 1537.96 L1720.11 1563.89 L1715.85 1563.89 L1715.85 1537.96 M1715.85 1527.87 L1720.11 1527.87 L1720.11 1533.26 L1715.85 1533.26 L1715.85 1527.87 Z" fill="#000000" fill-rule="nonzero" fill-opacity="1" /><path clip-path="url(#clip210)" d="M1733.24 1530.6 L1733.24 1537.96 L1742.01 1537.96 L1742.01 1541.27 L1733.24 1541.27 L1733.24 1555.35 Q1733.24 1558.52 1734.09 1559.42 Q1734.97 1560.32 1737.63 1560.32 L1742.01 1560.32 L1742.01 1563.89 L1737.63 1563.89 Q1732.7 1563.89 1730.83 1562.06 Q1728.95 1560.21 1728.95 1555.35 L1728.95 1541.27 L1725.83 1541.27 L1725.83 1537.96 L1728.95 1537.96 L1728.95 1530.6 L1733.24 1530.6 Z" fill="#000000" fill-rule="nonzero" fill-opacity="1" /><path clip-path="url(#clip210)" d="M1769.79 1549.86 L1769.79 1551.94 L1750.2 1551.94 Q1750.48 1556.34 1752.84 1558.66 Q1755.23 1560.95 1759.46 1560.95 Q1761.92 1560.95 1764.21 1560.35 Q1766.52 1559.74 1768.79 1558.54 L1768.79 1562.57 Q1766.5 1563.54 1764.09 1564.05 Q1761.68 1564.56 1759.21 1564.56 Q1753 1564.56 1749.37 1560.95 Q1745.76 1557.34 1745.76 1551.18 Q1745.76 1544.81 1749.18 1541.09 Q1752.63 1537.34 1758.47 1537.34 Q1763.7 1537.34 1766.73 1540.72 Q1769.79 1544.07 1769.79 1549.86 M1765.53 1548.61 Q1765.48 1545.11 1763.56 1543.03 Q1761.66 1540.95 1758.51 1540.95 Q1754.95 1540.95 1752.8 1542.96 Q1750.67 1544.98 1750.34 1548.63 L1765.53 1548.61 Z" fill="#000000" fill-rule="nonzero" fill-opacity="1" /><path clip-path="url(#clip210)" d="M1808.91 1541.9 L1808.91 1527.87 L1813.17 1527.87 L1813.17 1563.89 L1808.91 1563.89 L1808.91 1560 Q1807.56 1562.31 1805.5 1563.45 Q1803.47 1564.56 1800.6 1564.56 Q1795.9 1564.56 1792.93 1560.81 Q1789.99 1557.06 1789.99 1550.95 Q1789.99 1544.84 1792.93 1541.09 Q1795.9 1537.34 1800.6 1537.34 Q1803.47 1537.34 1805.5 1538.47 Q1807.56 1539.58 1808.91 1541.9 M1794.39 1550.95 Q1794.39 1555.65 1796.31 1558.33 Q1798.26 1560.99 1801.64 1560.99 Q1805.02 1560.99 1806.96 1558.33 Q1808.91 1555.65 1808.91 1550.95 Q1808.91 1546.25 1806.96 1543.59 Q1805.02 1540.9 1801.64 1540.9 Q1798.26 1540.9 1796.31 1543.59 Q1794.39 1546.25 1794.39 1550.95 Z" fill="#000000" fill-rule="nonzero" fill-opacity="1" /><path clip-path="url(#clip210)" d="M1821.94 1537.96 L1826.2 1537.96 L1826.2 1563.89 L1821.94 1563.89 L1821.94 1537.96 M1821.94 1527.87 L1826.2 1527.87 L1826.2 1533.26 L1821.94 1533.26 L1821.94 1527.87 Z" fill="#000000" fill-rule="nonzero" fill-opacity="1" /><path clip-path="url(#clip210)" d="M1848.23 1527.87 L1848.23 1531.41 L1844.16 1531.41 Q1841.87 1531.41 1840.97 1532.34 Q1840.09 1533.26 1840.09 1535.67 L1840.09 1537.96 L1847.1 1537.96 L1847.1 1541.27 L1840.09 1541.27 L1840.09 1563.89 L1835.8 1563.89 L1835.8 1541.27 L1831.73 1541.27 L1831.73 1537.96 L1835.8 1537.96 L1835.8 1536.16 Q1835.8 1531.83 1837.82 1529.86 Q1839.83 1527.87 1844.21 1527.87 L1848.23 1527.87 Z" fill="#000000" fill-rule="nonzero" fill-opacity="1" /><path clip-path="url(#clip210)" d="M1864.92 1527.87 L1864.92 1531.41 L1860.85 1531.41 Q1858.56 1531.41 1857.66 1532.34 Q1856.78 1533.26 1856.78 1535.67 L1856.78 1537.96 L1863.79 1537.96 L1863.79 1541.27 L1856.78 1541.27 L1856.78 1563.89 L1852.49 1563.89 L1852.49 1541.27 L1848.42 1541.27 L1848.42 1537.96 L1852.49 1537.96 L1852.49 1536.16 Q1852.49 1531.83 1854.51 1529.86 Q1856.52 1527.87 1860.9 1527.87 L1864.92 1527.87 Z" fill="#000000" fill-rule="nonzero" fill-opacity="1" /><path clip-path="url(#clip210)" d="M2661.47 1527.87 L2661.47 1531.41 L2657.39 1531.41 Q2655.1 1531.41 2654.2 1532.34 Q2653.32 1533.26 2653.32 1535.67 L2653.32 1537.96 L2660.33 1537.96 L2660.33 1541.27 L2653.32 1541.27 L2653.32 1563.89 L2649.04 1563.89 L2649.04 1541.27 L2644.96 1541.27 L2644.96 1537.96 L2649.04 1537.96 L2649.04 1536.16 Q2649.04 1531.83 2651.05 1529.86 Q2653.06 1527.87 2657.44 1527.87 L2661.47 1527.87 Z" fill="#000000" fill-rule="nonzero" fill-opacity="1" /><path clip-path="url(#clip210)" d="M2675.08 1540.95 Q2671.65 1540.95 2669.66 1543.63 Q2667.67 1546.3 2667.67 1550.95 Q2667.67 1555.6 2669.64 1558.29 Q2671.63 1560.95 2675.08 1560.95 Q2678.48 1560.95 2680.47 1558.26 Q2682.46 1555.58 2682.46 1550.95 Q2682.46 1546.34 2680.47 1543.66 Q2678.48 1540.95 2675.08 1540.95 M2675.08 1537.34 Q2680.63 1537.34 2683.8 1540.95 Q2686.97 1544.56 2686.97 1550.95 Q2686.97 1557.31 2683.8 1560.95 Q2680.63 1564.56 2675.08 1564.56 Q2669.5 1564.56 2666.33 1560.95 Q2663.18 1557.31 2663.18 1550.95 Q2663.18 1544.56 2666.33 1540.95 Q2669.5 1537.34 2675.08 1537.34 Z" fill="#000000" fill-rule="nonzero" fill-opacity="1" /><path clip-path="url(#clip210)" d="M2709.06 1541.94 Q2708.34 1541.53 2707.48 1541.34 Q2706.65 1541.13 2705.63 1541.13 Q2702.02 1541.13 2700.08 1543.49 Q2698.16 1545.83 2698.16 1550.23 L2698.16 1563.89 L2693.87 1563.89 L2693.87 1537.96 L2698.16 1537.96 L2698.16 1541.99 Q2699.5 1539.63 2701.65 1538.49 Q2703.8 1537.34 2706.88 1537.34 Q2707.32 1537.34 2707.85 1537.41 Q2708.39 1537.45 2709.03 1537.57 L2709.06 1541.94 Z" fill="#000000" fill-rule="nonzero" fill-opacity="1" /><path clip-path="url(#clip210)" d="M2711.05 1537.96 L2715.31 1537.96 L2720.63 1558.19 L2725.93 1537.96 L2730.96 1537.96 L2736.28 1558.19 L2741.58 1537.96 L2745.84 1537.96 L2739.06 1563.89 L2734.03 1563.89 L2728.46 1542.64 L2722.85 1563.89 L2717.83 1563.89 L2711.05 1537.96 Z" fill="#000000" fill-rule="nonzero" fill-opacity="1" /><path clip-path="url(#clip210)" d="M2764.08 1550.86 Q2758.92 1550.86 2756.93 1552.04 Q2754.94 1553.22 2754.94 1556.06 Q2754.94 1558.33 2756.42 1559.67 Q2757.92 1560.99 2760.49 1560.99 Q2764.03 1560.99 2766.16 1558.49 Q2768.32 1555.97 2768.32 1551.8 L2768.32 1550.86 L2764.08 1550.86 M2772.58 1549.1 L2772.58 1563.89 L2768.32 1563.89 L2768.32 1559.95 Q2766.86 1562.31 2764.68 1563.45 Q2762.51 1564.56 2759.36 1564.56 Q2755.38 1564.56 2753.02 1562.34 Q2750.68 1560.09 2750.68 1556.34 Q2750.68 1551.97 2753.59 1549.74 Q2756.53 1547.52 2762.34 1547.52 L2768.32 1547.52 L2768.32 1547.11 Q2768.32 1544.17 2766.37 1542.57 Q2764.45 1540.95 2760.96 1540.95 Q2758.73 1540.95 2756.63 1541.48 Q2754.52 1542.01 2752.58 1543.08 L2752.58 1539.14 Q2754.91 1538.24 2757.11 1537.8 Q2759.31 1537.34 2761.4 1537.34 Q2767.02 1537.34 2769.8 1540.25 Q2772.58 1543.17 2772.58 1549.1 Z" fill="#000000" fill-rule="nonzero" fill-opacity="1" /><path clip-path="url(#clip210)" d="M2796.37 1541.94 Q2795.65 1541.53 2794.8 1541.34 Q2793.96 1541.13 2792.95 1541.13 Q2789.34 1541.13 2787.39 1543.49 Q2785.47 1545.83 2785.47 1550.23 L2785.47 1563.89 L2781.19 1563.89 L2781.19 1537.96 L2785.47 1537.96 L2785.47 1541.99 Q2786.81 1539.63 2788.97 1538.49 Q2791.12 1537.34 2794.2 1537.34 Q2794.64 1537.34 2795.17 1537.41 Q2795.7 1537.45 2796.35 1537.57 L2796.37 1541.94 Z" fill="#000000" fill-rule="nonzero" fill-opacity="1" /><path clip-path="url(#clip210)" d="M2817.07 1541.9 L2817.07 1527.87 L2821.33 1527.87 L2821.33 1563.89 L2817.07 1563.89 L2817.07 1560 Q2815.72 1562.31 2813.66 1563.45 Q2811.63 1564.56 2808.76 1564.56 Q2804.06 1564.56 2801.09 1560.81 Q2798.15 1557.06 2798.15 1550.95 Q2798.15 1544.84 2801.09 1541.09 Q2804.06 1537.34 2808.76 1537.34 Q2811.63 1537.34 2813.66 1538.47 Q2815.72 1539.58 2817.07 1541.9 M2802.55 1550.95 Q2802.55 1555.65 2804.47 1558.33 Q2806.42 1560.99 2809.8 1560.99 Q2813.18 1560.99 2815.12 1558.33 Q2817.07 1555.65 2817.07 1550.95 Q2817.07 1546.25 2815.12 1543.59 Q2813.18 1540.9 2809.8 1540.9 Q2806.42 1540.9 2804.47 1543.59 Q2802.55 1546.25 2802.55 1550.95 Z" fill="#000000" fill-rule="nonzero" fill-opacity="1" /><path clip-path="url(#clip210)" d="M2862.23 1541.9 L2862.23 1527.87 L2866.49 1527.87 L2866.49 1563.89 L2862.23 1563.89 L2862.23 1560 Q2860.89 1562.31 2858.83 1563.45 Q2856.79 1564.56 2853.92 1564.56 Q2849.22 1564.56 2846.26 1560.81 Q2843.32 1557.06 2843.32 1550.95 Q2843.32 1544.84 2846.26 1541.09 Q2849.22 1537.34 2853.92 1537.34 Q2856.79 1537.34 2858.83 1538.47 Q2860.89 1539.58 2862.23 1541.9 M2847.71 1550.95 Q2847.71 1555.65 2849.64 1558.33 Q2851.58 1560.99 2854.96 1560.99 Q2858.34 1560.99 2860.28 1558.33 Q2862.23 1555.65 2862.23 1550.95 Q2862.23 1546.25 2860.28 1543.59 Q2858.34 1540.9 2854.96 1540.9 Q2851.58 1540.9 2849.64 1543.59 Q2847.71 1546.25 2847.71 1550.95 Z" fill="#000000" fill-rule="nonzero" fill-opacity="1" /><path clip-path="url(#clip210)" d="M2875.26 1537.96 L2879.52 1537.96 L2879.52 1563.89 L2875.26 1563.89 L2875.26 1537.96 M2875.26 1527.87 L2879.52 1527.87 L2879.52 1533.26 L2875.26 1533.26 L2875.26 1527.87 Z" fill="#000000" fill-rule="nonzero" fill-opacity="1" /><path clip-path="url(#clip210)" d="M2901.56 1527.87 L2901.56 1531.41 L2897.48 1531.41 Q2895.19 1531.41 2894.29 1532.34 Q2893.41 1533.26 2893.41 1535.67 L2893.41 1537.96 L2900.42 1537.96 L2900.42 1541.27 L2893.41 1541.27 L2893.41 1563.89 L2889.13 1563.89 L2889.13 1541.27 L2885.05 1541.27 L2885.05 1537.96 L2889.13 1537.96 L2889.13 1536.16 Q2889.13 1531.83 2891.14 1529.86 Q2893.15 1527.87 2897.53 1527.87 L2901.56 1527.87 Z" fill="#000000" fill-rule="nonzero" fill-opacity="1" /><path clip-path="url(#clip210)" d="M2918.25 1527.87 L2918.25 1531.41 L2914.17 1531.41 Q2911.88 1531.41 2910.98 1532.34 Q2910.1 1533.26 2910.1 1535.67 L2910.1 1537.96 L2917.11 1537.96 L2917.11 1541.27 L2910.1 1541.27 L2910.1 1563.89 L2905.82 1563.89 L2905.82 1541.27 L2901.74 1541.27 L2901.74 1537.96 L2905.82 1537.96 L2905.82 1536.16 Q2905.82 1531.83 2907.83 1529.86 Q2909.84 1527.87 2914.22 1527.87 L2918.25 1527.87 Z" fill="#000000" fill-rule="nonzero" fill-opacity="1" /><polyline clip-path="url(#clip210)" style="stroke:#000000; stroke-linecap:round; stroke-linejoin:round; stroke-width:4; stroke-opacity:1; fill:none" points="364.733,1495.09 364.733,47.2441 "/>
<polyline clip-path="url(#clip210)" style="stroke:#000000; stroke-linecap:round; stroke-linejoin:round; stroke-width:4; stroke-opacity:1; fill:none" points="364.733,1375.75 383.63,1375.75 "/>
<polyline clip-path="url(#clip210)" style="stroke:#000000; stroke-linecap:round; stroke-linejoin:round; stroke-width:4; stroke-opacity:1; fill:none" points="364.733,1104.2 383.63,1104.2 "/>
<polyline clip-path="url(#clip210)" style="stroke:#000000; stroke-linecap:round; stroke-linejoin:round; stroke-width:4; stroke-opacity:1; fill:none" points="364.733,832.644 383.63,832.644 "/>
<polyline clip-path="url(#clip210)" style="stroke:#000000; stroke-linecap:round; stroke-linejoin:round; stroke-width:4; stroke-opacity:1; fill:none" points="364.733,561.093 383.63,561.093 "/>
<polyline clip-path="url(#clip210)" style="stroke:#000000; stroke-linecap:round; stroke-linejoin:round; stroke-width:4; stroke-opacity:1; fill:none" points="364.733,289.542 383.63,289.542 "/>
<path clip-path="url(#clip210)" d="M100.137 1364.91 L118.493 1364.91 L118.493 1368.85 L104.419 1368.85 L104.419 1377.32 Q105.437 1376.97 106.456 1376.81 Q107.474 1376.63 108.493 1376.63 Q114.28 1376.63 117.66 1379.8 Q121.039 1382.97 121.039 1388.39 Q121.039 1393.97 117.567 1397.07 Q114.095 1400.15 107.775 1400.15 Q105.599 1400.15 103.331 1399.78 Q101.086 1399.41 98.6782 1398.66 L98.6782 1393.97 Q100.762 1395.1 102.984 1395.66 Q105.206 1396.21 107.683 1396.21 Q111.687 1396.21 114.025 1394.1 Q116.363 1392 116.363 1388.39 Q116.363 1384.78 114.025 1382.67 Q111.687 1380.56 107.683 1380.56 Q105.808 1380.56 103.933 1380.98 Q102.081 1381.4 100.137 1382.28 L100.137 1364.91 Z" fill="#000000" fill-rule="nonzero" fill-opacity="1" /><path clip-path="url(#clip210)" d="M130.252 1393.6 L135.136 1393.6 L135.136 1399.47 L130.252 1399.47 L130.252 1393.6 Z" fill="#000000" fill-rule="nonzero" fill-opacity="1" /><path clip-path="url(#clip210)" d="M155.321 1367.99 Q151.71 1367.99 149.882 1371.56 Q148.076 1375.1 148.076 1382.23 Q148.076 1389.34 149.882 1392.9 Q151.71 1396.44 155.321 1396.44 Q158.956 1396.44 160.761 1392.9 Q162.59 1389.34 162.59 1382.23 Q162.59 1375.1 160.761 1371.56 Q158.956 1367.99 155.321 1367.99 M155.321 1364.29 Q161.132 1364.29 164.187 1368.9 Q167.266 1373.48 167.266 1382.23 Q167.266 1390.96 164.187 1395.56 Q161.132 1400.15 155.321 1400.15 Q149.511 1400.15 146.433 1395.56 Q143.377 1390.96 143.377 1382.23 Q143.377 1373.48 146.433 1368.9 Q149.511 1364.29 155.321 1364.29 Z" fill="#000000" fill-rule="nonzero" fill-opacity="1" /><path clip-path="url(#clip210)" d="M185.483 1367.99 Q181.872 1367.99 180.043 1371.56 Q178.238 1375.1 178.238 1382.23 Q178.238 1389.34 180.043 1392.9 Q181.872 1396.44 185.483 1396.44 Q189.118 1396.44 190.923 1392.9 Q192.752 1389.34 192.752 1382.23 Q192.752 1375.1 190.923 1371.56 Q189.118 1367.99 185.483 1367.99 M185.483 1364.29 Q191.293 1364.29 194.349 1368.9 Q197.428 1373.48 197.428 1382.23 Q197.428 1390.96 194.349 1395.56 Q191.293 1400.15 185.483 1400.15 Q179.673 1400.15 176.594 1395.56 Q173.539 1390.96 173.539 1382.23 Q173.539 1373.48 176.594 1368.9 Q179.673 1364.29 185.483 1364.29 Z" fill="#000000" fill-rule="nonzero" fill-opacity="1" /><path clip-path="url(#clip210)" d="M233.816 1374.01 L223.238 1384.64 L233.816 1395.22 L231.062 1398.02 L220.437 1387.39 L209.812 1398.02 L207.08 1395.22 L217.636 1384.64 L207.08 1374.01 L209.812 1371.21 L220.437 1381.84 L231.062 1371.21 L233.816 1374.01 Z" fill="#000000" fill-rule="nonzero" fill-opacity="1" /><path clip-path="url(#clip210)" d="M246.177 1395.54 L253.816 1395.54 L253.816 1369.17 L245.506 1370.84 L245.506 1366.58 L253.77 1364.91 L258.446 1364.91 L258.446 1395.54 L266.085 1395.54 L266.085 1399.47 L246.177 1399.47 L246.177 1395.54 Z" fill="#000000" fill-rule="nonzero" fill-opacity="1" /><path clip-path="url(#clip210)" d="M285.529 1367.99 Q281.918 1367.99 280.089 1371.56 Q278.284 1375.1 278.284 1382.23 Q278.284 1389.34 280.089 1392.9 Q281.918 1396.44 285.529 1396.44 Q289.163 1396.44 290.969 1392.9 Q292.798 1389.34 292.798 1382.23 Q292.798 1375.1 290.969 1371.56 Q289.163 1367.99 285.529 1367.99 M285.529 1364.29 Q291.339 1364.29 294.395 1368.9 Q297.473 1373.48 297.473 1382.23 Q297.473 1390.96 294.395 1395.56 Q291.339 1400.15 285.529 1400.15 Q279.719 1400.15 276.64 1395.56 Q273.585 1390.96 273.585 1382.23 Q273.585 1373.48 276.64 1368.9 Q279.719 1364.29 285.529 1364.29 Z" fill="#000000" fill-rule="nonzero" fill-opacity="1" /><path clip-path="url(#clip210)" d="M307.103 1358.73 Q304.395 1358.73 302.834 1360.18 Q301.291 1361.63 301.291 1364.17 Q301.291 1366.7 302.834 1368.15 Q304.395 1369.6 307.103 1369.6 Q309.811 1369.6 311.372 1368.15 Q312.933 1366.69 312.933 1364.17 Q312.933 1361.63 311.372 1360.18 Q309.83 1358.73 307.103 1358.73 M303.304 1357.11 Q300.859 1356.51 299.486 1354.84 Q298.132 1353.16 298.132 1350.76 Q298.132 1347.39 300.52 1345.43 Q302.928 1343.48 307.103 1343.48 Q311.297 1343.48 313.686 1345.43 Q316.074 1347.39 316.074 1350.76 Q316.074 1353.16 314.701 1354.84 Q313.347 1356.51 310.921 1357.11 Q313.667 1357.75 315.19 1359.61 Q316.733 1361.48 316.733 1364.17 Q316.733 1368.25 314.231 1370.43 Q311.749 1372.61 307.103 1372.61 Q302.457 1372.61 299.956 1370.43 Q297.473 1368.25 297.473 1364.17 Q297.473 1361.48 299.016 1359.61 Q300.558 1357.75 303.304 1357.11 M301.912 1351.11 Q301.912 1353.29 303.266 1354.52 Q304.639 1355.74 307.103 1355.74 Q309.548 1355.74 310.921 1354.52 Q312.313 1353.29 312.313 1351.11 Q312.313 1348.93 310.921 1347.71 Q309.548 1346.49 307.103 1346.49 Q304.639 1346.49 303.266 1347.71 Q301.912 1348.93 301.912 1351.11 Z" fill="#000000" fill-rule="nonzero" fill-opacity="1" /><path clip-path="url(#clip210)" d="M100.788 1123.99 L108.426 1123.99 L108.426 1097.62 L100.116 1099.29 L100.116 1095.03 L108.38 1093.36 L113.056 1093.36 L113.056 1123.99 L120.695 1123.99 L120.695 1127.92 L100.788 1127.92 L100.788 1123.99 Z" fill="#000000" fill-rule="nonzero" fill-opacity="1" /><path clip-path="url(#clip210)" d="M130.139 1122.04 L135.023 1122.04 L135.023 1127.92 L130.139 1127.92 L130.139 1122.04 Z" fill="#000000" fill-rule="nonzero" fill-opacity="1" /><path clip-path="url(#clip210)" d="M155.209 1096.44 Q151.597 1096.44 149.769 1100.01 Q147.963 1103.55 147.963 1110.68 Q147.963 1117.78 149.769 1121.35 Q151.597 1124.89 155.209 1124.89 Q158.843 1124.89 160.648 1121.35 Q162.477 1117.78 162.477 1110.68 Q162.477 1103.55 160.648 1100.01 Q158.843 1096.44 155.209 1096.44 M155.209 1092.74 Q161.019 1092.74 164.074 1097.34 Q167.153 1101.93 167.153 1110.68 Q167.153 1119.4 164.074 1124.01 Q161.019 1128.59 155.209 1128.59 Q149.398 1128.59 146.32 1124.01 Q143.264 1119.4 143.264 1110.68 Q143.264 1101.93 146.32 1097.34 Q149.398 1092.74 155.209 1092.74 Z" fill="#000000" fill-rule="nonzero" fill-opacity="1" /><path clip-path="url(#clip210)" d="M185.37 1096.44 Q181.759 1096.44 179.931 1100.01 Q178.125 1103.55 178.125 1110.68 Q178.125 1117.78 179.931 1121.35 Q181.759 1124.89 185.37 1124.89 Q189.005 1124.89 190.81 1121.35 Q192.639 1117.78 192.639 1110.68 Q192.639 1103.55 190.81 1100.01 Q189.005 1096.44 185.37 1096.44 M185.37 1092.74 Q191.181 1092.74 194.236 1097.34 Q197.315 1101.93 197.315 1110.68 Q197.315 1119.4 194.236 1124.01 Q191.181 1128.59 185.37 1128.59 Q179.56 1128.59 176.482 1124.01 Q173.426 1119.4 173.426 1110.68 Q173.426 1101.93 176.482 1097.34 Q179.56 1092.74 185.37 1092.74 Z" fill="#000000" fill-rule="nonzero" fill-opacity="1" /><path clip-path="url(#clip210)" d="M233.704 1102.46 L223.125 1113.09 L233.704 1123.66 L230.949 1126.47 L220.324 1115.84 L209.699 1126.47 L206.968 1123.66 L217.523 1113.09 L206.968 1102.46 L209.699 1099.66 L220.324 1110.28 L230.949 1099.66 L233.704 1102.46 Z" fill="#000000" fill-rule="nonzero" fill-opacity="1" /><path clip-path="url(#clip210)" d="M246.065 1123.99 L253.703 1123.99 L253.703 1097.62 L245.393 1099.29 L245.393 1095.03 L253.657 1093.36 L258.333 1093.36 L258.333 1123.99 L265.972 1123.99 L265.972 1127.92 L246.065 1127.92 L246.065 1123.99 Z" fill="#000000" fill-rule="nonzero" fill-opacity="1" /><path clip-path="url(#clip210)" d="M285.416 1096.44 Q281.805 1096.44 279.976 1100.01 Q278.171 1103.55 278.171 1110.68 Q278.171 1117.78 279.976 1121.35 Q281.805 1124.89 285.416 1124.89 Q289.05 1124.89 290.856 1121.35 Q292.685 1117.78 292.685 1110.68 Q292.685 1103.55 290.856 1100.01 Q289.05 1096.44 285.416 1096.44 M285.416 1092.74 Q291.226 1092.74 294.282 1097.34 Q297.361 1101.93 297.361 1110.68 Q297.361 1119.4 294.282 1124.01 Q291.226 1128.59 285.416 1128.59 Q279.606 1128.59 276.527 1124.01 Q273.472 1119.4 273.472 1110.68 Q273.472 1101.93 276.527 1097.34 Q279.606 1092.74 285.416 1092.74 Z" fill="#000000" fill-rule="nonzero" fill-opacity="1" /><path clip-path="url(#clip210)" d="M299.166 1099.93 L299.166 1096.47 Q300.596 1097.15 302.063 1097.5 Q303.53 1097.86 304.94 1097.86 Q308.702 1097.86 310.676 1095.34 Q312.67 1092.8 312.952 1087.65 Q311.861 1089.27 310.187 1090.13 Q308.514 1091 306.482 1091 Q302.269 1091 299.806 1088.46 Q297.361 1085.9 297.361 1081.48 Q297.361 1077.15 299.918 1074.54 Q302.476 1071.93 306.727 1071.93 Q311.598 1071.93 314.156 1075.67 Q316.733 1079.39 316.733 1086.5 Q316.733 1093.14 313.573 1097.11 Q310.432 1101.06 305.109 1101.06 Q303.68 1101.06 302.213 1100.78 Q300.746 1100.49 299.166 1099.93 M306.727 1088.02 Q309.285 1088.02 310.771 1086.28 Q312.275 1084.53 312.275 1081.48 Q312.275 1078.45 310.771 1076.7 Q309.285 1074.93 306.727 1074.93 Q304.169 1074.93 302.664 1076.7 Q301.179 1078.45 301.179 1081.48 Q301.179 1084.53 302.664 1086.28 Q304.169 1088.02 306.727 1088.02 Z" fill="#000000" fill-rule="nonzero" fill-opacity="1" /><path clip-path="url(#clip210)" d="M100.788 852.437 L108.426 852.437 L108.426 826.071 L100.116 827.738 L100.116 823.479 L108.38 821.812 L113.056 821.812 L113.056 852.437 L120.695 852.437 L120.695 856.372 L100.788 856.372 L100.788 852.437 Z" fill="#000000" fill-rule="nonzero" fill-opacity="1" /><path clip-path="url(#clip210)" d="M130.139 850.492 L135.023 850.492 L135.023 856.372 L130.139 856.372 L130.139 850.492 Z" fill="#000000" fill-rule="nonzero" fill-opacity="1" /><path clip-path="url(#clip210)" d="M145.255 821.812 L163.611 821.812 L163.611 825.747 L149.537 825.747 L149.537 834.219 Q150.556 833.872 151.574 833.71 Q152.593 833.525 153.611 833.525 Q159.398 833.525 162.778 836.696 Q166.158 839.867 166.158 845.284 Q166.158 850.863 162.685 853.965 Q159.213 857.043 152.894 857.043 Q150.718 857.043 148.449 856.673 Q146.204 856.303 143.797 855.562 L143.797 850.863 Q145.88 851.997 148.102 852.553 Q150.324 853.108 152.801 853.108 Q156.806 853.108 159.144 851.002 Q161.482 848.895 161.482 845.284 Q161.482 841.673 159.144 839.567 Q156.806 837.46 152.801 837.46 Q150.926 837.46 149.051 837.877 Q147.199 838.293 145.255 839.173 L145.255 821.812 Z" fill="#000000" fill-rule="nonzero" fill-opacity="1" /><path clip-path="url(#clip210)" d="M185.37 824.891 Q181.759 824.891 179.931 828.455 Q178.125 831.997 178.125 839.127 Q178.125 846.233 179.931 849.798 Q181.759 853.34 185.37 853.34 Q189.005 853.34 190.81 849.798 Q192.639 846.233 192.639 839.127 Q192.639 831.997 190.81 828.455 Q189.005 824.891 185.37 824.891 M185.37 821.187 Q191.181 821.187 194.236 825.793 Q197.315 830.377 197.315 839.127 Q197.315 847.854 194.236 852.46 Q191.181 857.043 185.37 857.043 Q179.56 857.043 176.482 852.46 Q173.426 847.854 173.426 839.127 Q173.426 830.377 176.482 825.793 Q179.56 821.187 185.37 821.187 Z" fill="#000000" fill-rule="nonzero" fill-opacity="1" /><path clip-path="url(#clip210)" d="M233.704 830.909 L223.125 841.534 L233.704 852.113 L230.949 854.914 L220.324 844.289 L209.699 854.914 L206.968 852.113 L217.523 841.534 L206.968 830.909 L209.699 828.108 L220.324 838.733 L230.949 828.108 L233.704 830.909 Z" fill="#000000" fill-rule="nonzero" fill-opacity="1" /><path clip-path="url(#clip210)" d="M246.065 852.437 L253.703 852.437 L253.703 826.071 L245.393 827.738 L245.393 823.479 L253.657 821.812 L258.333 821.812 L258.333 852.437 L265.972 852.437 L265.972 856.372 L246.065 856.372 L246.065 852.437 Z" fill="#000000" fill-rule="nonzero" fill-opacity="1" /><path clip-path="url(#clip210)" d="M285.416 824.891 Q281.805 824.891 279.976 828.455 Q278.171 831.997 278.171 839.127 Q278.171 846.233 279.976 849.798 Q281.805 853.34 285.416 853.34 Q289.05 853.34 290.856 849.798 Q292.685 846.233 292.685 839.127 Q292.685 831.997 290.856 828.455 Q289.05 824.891 285.416 824.891 M285.416 821.187 Q291.226 821.187 294.282 825.793 Q297.361 830.377 297.361 839.127 Q297.361 847.854 294.282 852.46 Q291.226 857.043 285.416 857.043 Q279.606 857.043 276.527 852.46 Q273.472 847.854 273.472 839.127 Q273.472 830.377 276.527 825.793 Q279.606 821.187 285.416 821.187 Z" fill="#000000" fill-rule="nonzero" fill-opacity="1" /><path clip-path="url(#clip210)" d="M299.166 828.379 L299.166 824.918 Q300.596 825.595 302.063 825.952 Q303.53 826.31 304.94 826.31 Q308.702 826.31 310.676 823.789 Q312.67 821.25 312.952 816.097 Q311.861 817.715 310.187 818.58 Q308.514 819.445 306.482 819.445 Q302.269 819.445 299.806 816.906 Q297.361 814.348 297.361 809.928 Q297.361 805.602 299.918 802.988 Q302.476 800.374 306.727 800.374 Q311.598 800.374 314.156 804.117 Q316.733 807.84 316.733 814.95 Q316.733 821.589 313.573 825.557 Q310.432 829.507 305.109 829.507 Q303.68 829.507 302.213 829.225 Q300.746 828.943 299.166 828.379 M306.727 816.473 Q309.285 816.473 310.771 814.724 Q312.275 812.975 312.275 809.928 Q312.275 806.9 310.771 805.151 Q309.285 803.383 306.727 803.383 Q304.169 803.383 302.664 805.151 Q301.179 806.9 301.179 809.928 Q301.179 812.975 302.664 814.724 Q304.169 816.473 306.727 816.473 Z" fill="#000000" fill-rule="nonzero" fill-opacity="1" /><path clip-path="url(#clip210)" d="M104.005 580.885 L120.324 580.885 L120.324 584.821 L98.3802 584.821 L98.3802 580.885 Q101.042 578.131 105.625 573.501 Q110.232 568.849 111.412 567.506 Q113.658 564.983 114.537 563.247 Q115.44 561.487 115.44 559.798 Q115.44 557.043 113.496 555.307 Q111.575 553.571 108.473 553.571 Q106.274 553.571 103.82 554.335 Q101.389 555.099 98.6116 556.65 L98.6116 551.927 Q101.436 550.793 103.889 550.214 Q106.343 549.636 108.38 549.636 Q113.75 549.636 116.945 552.321 Q120.139 555.006 120.139 559.497 Q120.139 561.626 119.329 563.548 Q118.542 565.446 116.436 568.038 Q115.857 568.71 112.755 571.927 Q109.653 575.122 104.005 580.885 Z" fill="#000000" fill-rule="nonzero" fill-opacity="1" /><path clip-path="url(#clip210)" d="M130.139 578.941 L135.023 578.941 L135.023 584.821 L130.139 584.821 L130.139 578.941 Z" fill="#000000" fill-rule="nonzero" fill-opacity="1" /><path clip-path="url(#clip210)" d="M155.209 553.339 Q151.597 553.339 149.769 556.904 Q147.963 560.446 147.963 567.575 Q147.963 574.682 149.769 578.247 Q151.597 581.788 155.209 581.788 Q158.843 581.788 160.648 578.247 Q162.477 574.682 162.477 567.575 Q162.477 560.446 160.648 556.904 Q158.843 553.339 155.209 553.339 M155.209 549.636 Q161.019 549.636 164.074 554.242 Q167.153 558.825 167.153 567.575 Q167.153 576.302 164.074 580.909 Q161.019 585.492 155.209 585.492 Q149.398 585.492 146.32 580.909 Q143.264 576.302 143.264 567.575 Q143.264 558.825 146.32 554.242 Q149.398 549.636 155.209 549.636 Z" fill="#000000" fill-rule="nonzero" fill-opacity="1" /><path clip-path="url(#clip210)" d="M185.37 553.339 Q181.759 553.339 179.931 556.904 Q178.125 560.446 178.125 567.575 Q178.125 574.682 179.931 578.247 Q181.759 581.788 185.37 581.788 Q189.005 581.788 190.81 578.247 Q192.639 574.682 192.639 567.575 Q192.639 560.446 190.81 556.904 Q189.005 553.339 185.37 553.339 M185.37 549.636 Q191.181 549.636 194.236 554.242 Q197.315 558.825 197.315 567.575 Q197.315 576.302 194.236 580.909 Q191.181 585.492 185.37 585.492 Q179.56 585.492 176.482 580.909 Q173.426 576.302 173.426 567.575 Q173.426 558.825 176.482 554.242 Q179.56 549.636 185.37 549.636 Z" fill="#000000" fill-rule="nonzero" fill-opacity="1" /><path clip-path="url(#clip210)" d="M233.704 559.358 L223.125 569.983 L233.704 580.561 L230.949 583.362 L220.324 572.737 L209.699 583.362 L206.968 580.561 L217.523 569.983 L206.968 559.358 L209.699 556.557 L220.324 567.182 L230.949 556.557 L233.704 559.358 Z" fill="#000000" fill-rule="nonzero" fill-opacity="1" /><path clip-path="url(#clip210)" d="M246.065 580.885 L253.703 580.885 L253.703 554.52 L245.393 556.187 L245.393 551.927 L253.657 550.261 L258.333 550.261 L258.333 580.885 L265.972 580.885 L265.972 584.821 L246.065 584.821 L246.065 580.885 Z" fill="#000000" fill-rule="nonzero" fill-opacity="1" /><path clip-path="url(#clip210)" d="M285.416 553.339 Q281.805 553.339 279.976 556.904 Q278.171 560.446 278.171 567.575 Q278.171 574.682 279.976 578.247 Q281.805 581.788 285.416 581.788 Q289.05 581.788 290.856 578.247 Q292.685 574.682 292.685 567.575 Q292.685 560.446 290.856 556.904 Q289.05 553.339 285.416 553.339 M285.416 549.636 Q291.226 549.636 294.282 554.242 Q297.361 558.825 297.361 567.575 Q297.361 576.302 294.282 580.909 Q291.226 585.492 285.416 585.492 Q279.606 585.492 276.527 580.909 Q273.472 576.302 273.472 567.575 Q273.472 558.825 276.527 554.242 Q279.606 549.636 285.416 549.636 Z" fill="#000000" fill-rule="nonzero" fill-opacity="1" /><path clip-path="url(#clip210)" d="M299.166 556.827 L299.166 553.367 Q300.596 554.044 302.063 554.401 Q303.53 554.758 304.94 554.758 Q308.702 554.758 310.676 552.238 Q312.67 549.699 312.952 544.546 Q311.861 546.163 310.187 547.028 Q308.514 547.894 306.482 547.894 Q302.269 547.894 299.806 545.354 Q297.361 542.797 297.361 538.377 Q297.361 534.051 299.918 531.437 Q302.476 528.822 306.727 528.822 Q311.598 528.822 314.156 532.565 Q316.733 536.289 316.733 543.398 Q316.733 550.038 313.573 554.006 Q310.432 557.956 305.109 557.956 Q303.68 557.956 302.213 557.674 Q300.746 557.391 299.166 556.827 M306.727 544.922 Q309.285 544.922 310.771 543.173 Q312.275 541.424 312.275 538.377 Q312.275 535.349 310.771 533.6 Q309.285 531.832 306.727 531.832 Q304.169 531.832 302.664 533.6 Q301.179 535.349 301.179 538.377 Q301.179 541.424 302.664 543.173 Q304.169 544.922 306.727 544.922 Z" fill="#000000" fill-rule="nonzero" fill-opacity="1" /><path clip-path="url(#clip210)" d="M104.005 309.334 L120.324 309.334 L120.324 313.269 L98.3802 313.269 L98.3802 309.334 Q101.042 306.58 105.625 301.95 Q110.232 297.297 111.412 295.955 Q113.658 293.431 114.537 291.695 Q115.44 289.936 115.44 288.246 Q115.44 285.492 113.496 283.756 Q111.575 282.019 108.473 282.019 Q106.274 282.019 103.82 282.783 Q101.389 283.547 98.6116 285.098 L98.6116 280.376 Q101.436 279.242 103.889 278.663 Q106.343 278.084 108.38 278.084 Q113.75 278.084 116.945 280.769 Q120.139 283.455 120.139 287.945 Q120.139 290.075 119.329 291.996 Q118.542 293.894 116.436 296.487 Q115.857 297.158 112.755 300.376 Q109.653 303.57 104.005 309.334 Z" fill="#000000" fill-rule="nonzero" fill-opacity="1" /><path clip-path="url(#clip210)" d="M130.139 307.39 L135.023 307.39 L135.023 313.269 L130.139 313.269 L130.139 307.39 Z" fill="#000000" fill-rule="nonzero" fill-opacity="1" /><path clip-path="url(#clip210)" d="M145.255 278.709 L163.611 278.709 L163.611 282.644 L149.537 282.644 L149.537 291.117 Q150.556 290.769 151.574 290.607 Q152.593 290.422 153.611 290.422 Q159.398 290.422 162.778 293.593 Q166.158 296.765 166.158 302.181 Q166.158 307.76 162.685 310.862 Q159.213 313.941 152.894 313.941 Q150.718 313.941 148.449 313.57 Q146.204 313.2 143.797 312.459 L143.797 307.76 Q145.88 308.894 148.102 309.45 Q150.324 310.005 152.801 310.005 Q156.806 310.005 159.144 307.899 Q161.482 305.792 161.482 302.181 Q161.482 298.57 159.144 296.464 Q156.806 294.357 152.801 294.357 Q150.926 294.357 149.051 294.774 Q147.199 295.191 145.255 296.07 L145.255 278.709 Z" fill="#000000" fill-rule="nonzero" fill-opacity="1" /><path clip-path="url(#clip210)" d="M185.37 281.788 Q181.759 281.788 179.931 285.353 Q178.125 288.894 178.125 296.024 Q178.125 303.13 179.931 306.695 Q181.759 310.237 185.37 310.237 Q189.005 310.237 190.81 306.695 Q192.639 303.13 192.639 296.024 Q192.639 288.894 190.81 285.353 Q189.005 281.788 185.37 281.788 M185.37 278.084 Q191.181 278.084 194.236 282.691 Q197.315 287.274 197.315 296.024 Q197.315 304.751 194.236 309.357 Q191.181 313.941 185.37 313.941 Q179.56 313.941 176.482 309.357 Q173.426 304.751 173.426 296.024 Q173.426 287.274 176.482 282.691 Q179.56 278.084 185.37 278.084 Z" fill="#000000" fill-rule="nonzero" fill-opacity="1" /><path clip-path="url(#clip210)" d="M233.704 287.806 L223.125 298.431 L233.704 309.01 L230.949 311.811 L220.324 301.186 L209.699 311.811 L206.968 309.01 L217.523 298.431 L206.968 287.806 L209.699 285.006 L220.324 295.631 L230.949 285.006 L233.704 287.806 Z" fill="#000000" fill-rule="nonzero" fill-opacity="1" /><path clip-path="url(#clip210)" d="M246.065 309.334 L253.703 309.334 L253.703 282.969 L245.393 284.635 L245.393 280.376 L253.657 278.709 L258.333 278.709 L258.333 309.334 L265.972 309.334 L265.972 313.269 L246.065 313.269 L246.065 309.334 Z" fill="#000000" fill-rule="nonzero" fill-opacity="1" /><path clip-path="url(#clip210)" d="M285.416 281.788 Q281.805 281.788 279.976 285.353 Q278.171 288.894 278.171 296.024 Q278.171 303.13 279.976 306.695 Q281.805 310.237 285.416 310.237 Q289.05 310.237 290.856 306.695 Q292.685 303.13 292.685 296.024 Q292.685 288.894 290.856 285.353 Q289.05 281.788 285.416 281.788 M285.416 278.084 Q291.226 278.084 294.282 282.691 Q297.361 287.274 297.361 296.024 Q297.361 304.751 294.282 309.357 Q291.226 313.941 285.416 313.941 Q279.606 313.941 276.527 309.357 Q273.472 304.751 273.472 296.024 Q273.472 287.274 276.527 282.691 Q279.606 278.084 285.416 278.084 Z" fill="#000000" fill-rule="nonzero" fill-opacity="1" /><path clip-path="url(#clip210)" d="M299.166 285.276 L299.166 281.815 Q300.596 282.492 302.063 282.85 Q303.53 283.207 304.94 283.207 Q308.702 283.207 310.676 280.687 Q312.67 278.148 312.952 272.994 Q311.861 274.612 310.187 275.477 Q308.514 276.342 306.482 276.342 Q302.269 276.342 299.806 273.803 Q297.361 271.245 297.361 266.825 Q297.361 262.5 299.918 259.885 Q302.476 257.271 306.727 257.271 Q311.598 257.271 314.156 261.014 Q316.733 264.738 316.733 271.847 Q316.733 278.486 313.573 282.455 Q310.432 286.404 305.109 286.404 Q303.68 286.404 302.213 286.122 Q300.746 285.84 299.166 285.276 M306.727 273.371 Q309.285 273.371 310.771 271.621 Q312.275 269.872 312.275 266.825 Q312.275 263.797 310.771 262.048 Q309.285 260.28 306.727 260.28 Q304.169 260.28 302.664 262.048 Q301.179 263.797 301.179 266.825 Q301.179 269.872 302.664 271.621 Q304.169 273.371 306.727 273.371 Z" fill="#000000" fill-rule="nonzero" fill-opacity="1" /><path clip-path="url(#clip210)" d="M-9.64527 840.632 L0.4762 840.632 L0.4762 828.569 L5.02768 828.569 L5.02768 840.632 L24.3794 840.632 Q28.7399 840.632 29.9813 839.454 Q31.2226 838.245 31.2226 834.584 L31.2226 828.569 L36.1242 828.569 L36.1242 834.584 Q36.1242 841.364 33.6097 843.942 Q31.0634 846.52 24.3794 846.52 L5.02768 846.52 L5.02768 850.817 L0.4762 850.817 L0.4762 846.52 L-9.64527 846.52 L-9.64527 840.632 Z" fill="#000000" fill-rule="nonzero" fill-opacity="1" /><path clip-path="url(#clip210)" d="M-11.3958 789.738 L-11.3958 784.327 L42.1716 800.878 L42.1716 806.289 L-11.3958 789.738 Z" fill="#000000" fill-rule="nonzero" fill-opacity="1" /><path clip-path="url(#clip210)" d="M14.6081 727.831 L36.1242 727.831 L36.1242 733.688 L14.799 733.688 Q9.7383 733.688 7.22385 735.661 Q4.7094 737.635 4.7094 741.581 Q4.7094 746.324 7.73311 749.061 Q10.7568 751.798 15.9767 751.798 L36.1242 751.798 L36.1242 757.687 L0.4762 757.687 L0.4762 751.798 L6.01437 751.798 Q2.79968 749.698 1.20826 746.865 Q-0.38317 744 -0.38317 740.276 Q-0.38317 734.133 3.43625 730.982 Q7.22385 727.831 14.6081 727.831 Z" fill="#000000" fill-rule="nonzero" fill-opacity="1" /><path clip-path="url(#clip210)" d="M1.52654 693.425 L7.06471 693.425 Q5.79157 695.907 5.15499 698.581 Q4.51842 701.255 4.51842 704.119 Q4.51842 708.48 5.85522 710.676 Q7.19202 712.84 9.86562 712.84 Q11.9026 712.84 13.0803 711.281 Q14.2261 709.721 15.2765 705.01 L15.7221 703.005 Q17.0589 696.767 19.5097 694.157 Q21.9286 691.515 26.2891 691.515 Q31.2544 691.515 34.1508 695.462 Q37.0472 699.377 37.0472 706.252 Q37.0472 709.116 36.4743 712.235 Q35.9332 715.323 34.8192 718.76 L28.7718 718.76 Q30.4587 715.514 31.318 712.363 Q32.1456 709.212 32.1456 706.124 Q32.1456 701.987 30.7451 699.759 Q29.3129 697.531 26.7347 697.531 Q24.3476 697.531 23.0745 699.154 Q21.8013 700.745 20.6237 706.188 L20.1462 708.225 Q19.0004 713.668 16.6451 716.087 Q14.258 718.506 10.1202 718.506 Q5.09134 718.506 2.35408 714.941 Q-0.38317 711.376 -0.38317 704.819 Q-0.38317 701.573 0.0942579 698.708 Q0.571686 695.844 1.52654 693.425 Z" fill="#000000" fill-rule="nonzero" fill-opacity="1" /><path clip-path="url(#clip211)" d="M854.029 1454.11 L856.264 1453.93 L858.336 1453.75 L860.251 1453.57 L862.021 1453.38 L863.654 1453.2 L865.164 1453.02 L866.566 1452.84 L867.873 1452.66 L869.103 1452.47 L870.272 1452.29 L871.397 1452.11 L872.495 1451.93 L873.582 1451.75 L874.675 1451.56 L875.791 1451.38 L876.945 1451.2 L878.152 1451.02 L879.428 1450.84 L880.785 1450.65 L882.238 1450.47 L883.8 1450.29 L885.485 1450.11 L887.303 1449.93 L889.269 1449.74 L891.394 1449.56 L893.69 1449.38 L896.167 1449.2 L898.838 1449.02 L901.713 1448.83 L904.8 1448.65 L908.109 1448.47 L911.646 1448.29 L915.416 1448.11 L919.422 1447.92 L923.663 1447.74 L928.138 1447.56 L932.839 1447.38 L937.756 1447.2 L942.875 1447.02 L948.176 1446.83 L953.636 1446.65 L959.226 1446.47 L964.912 1446.29 L970.656 1446.11 L976.415 1445.92 L982.14 1445.74 L987.782 1445.56 L993.284 1445.38 L998.591 1445.2 L1003.64 1445.01 L1008.38 1444.83 L1012.74 1444.65 L1016.67 1444.47 L1020.1 1444.29 L1022.99 1444.1 L1025.28 1443.92 L1026.92 1443.74 L1027.89 1443.56 L1028.13 1443.38 L1027.63 1443.19 L1026.37 1443.01 L1024.33 1442.83 L1021.52 1442.65 L1017.93 1442.47 L1013.59 1442.28 L458.176 1442.28 L453.836 1442.47 L450.252 1442.65 L447.438 1442.83 L445.401 1443.01 L444.139 1443.19 L443.639 1443.38 L443.883 1443.56 L444.846 1443.74 L446.492 1443.92 L448.781 1444.1 L451.668 1444.29 L455.102 1444.47 L459.028 1444.65 L463.389 1444.83 L468.126 1445.01 L473.178 1445.2 L478.485 1445.38 L483.987 1445.56 L489.629 1445.74 L495.355 1445.92 L501.113 1446.11 L506.857 1446.29 L512.543 1446.47 L518.133 1446.65 L523.593 1446.83 L528.894 1447.02 L534.013 1447.2 L538.93 1447.38 L543.631 1447.56 L548.106 1447.74 L552.347 1447.92 L556.353 1448.11 L560.123 1448.29 L563.66 1448.47 L566.969 1448.65 L570.056 1448.83 L572.931 1449.02 L575.602 1449.2 L578.079 1449.38 L580.375 1449.56 L582.5 1449.74 L584.466 1449.93 L586.284 1450.11 L587.969 1450.29 L589.531 1450.47 L590.984 1450.65 L592.342 1450.84 L593.617 1451.02 L594.824 1451.2 L595.978 1451.38 L597.094 1451.56 L598.187 1451.75 L599.274 1451.93 L600.372 1452.11 L601.497 1452.29 L602.666 1452.47 L603.896 1452.66 L605.203 1452.84 L606.605 1453.02 L608.115 1453.2 L609.748 1453.38 L611.518 1453.57 L613.434 1453.75 L615.506 1453.93 L617.741 1454.11 L854.029 1454.11  Z" fill="#009af9" fill-rule="evenodd" fill-opacity="1"/>
<polyline clip-path="url(#clip211)" style="stroke:#000000; stroke-linecap:round; stroke-linejoin:round; stroke-width:4; stroke-opacity:1; fill:none" points="854.029,1454.11 856.264,1453.93 858.336,1453.75 860.251,1453.57 862.021,1453.38 863.654,1453.2 865.164,1453.02 866.566,1452.84 867.873,1452.66 869.103,1452.47 870.272,1452.29 871.397,1452.11 872.495,1451.93 873.582,1451.75 874.675,1451.56 875.791,1451.38 876.945,1451.2 878.152,1451.02 879.428,1450.84 880.785,1450.65 882.238,1450.47 883.8,1450.29 885.485,1450.11 887.303,1449.93 889.269,1449.74 891.394,1449.56 893.69,1449.38 896.167,1449.2 898.838,1449.02 901.713,1448.83 904.8,1448.65 908.109,1448.47 911.646,1448.29 915.416,1448.11 919.422,1447.92 923.663,1447.74 928.138,1447.56 932.839,1447.38 937.756,1447.2 942.875,1447.02 948.176,1446.83 953.636,1446.65 959.226,1446.47 964.912,1446.29 970.656,1446.11 976.415,1445.92 982.14,1445.74 987.782,1445.56 993.284,1445.38 998.591,1445.2 1003.64,1445.01 1008.38,1444.83 1012.74,1444.65 1016.67,1444.47 1020.1,1444.29 1022.99,1444.1 1025.28,1443.92 1026.92,1443.74 1027.89,1443.56 1028.13,1443.38 1027.63,1443.19 1026.37,1443.01 1024.33,1442.83 1021.52,1442.65 1017.93,1442.47 1013.59,1442.28 458.176,1442.28 453.836,1442.47 450.252,1442.65 447.438,1442.83 445.401,1443.01 444.139,1443.19 443.639,1443.38 443.883,1443.56 444.846,1443.74 446.492,1443.92 448.781,1444.1 451.668,1444.29 455.102,1444.47 459.028,1444.65 463.389,1444.83 468.126,1445.01 473.178,1445.2 478.485,1445.38 483.987,1445.56 489.629,1445.74 495.355,1445.92 501.113,1446.11 506.857,1446.29 512.543,1446.47 518.133,1446.65 523.593,1446.83 528.894,1447.02 534.013,1447.2 538.93,1447.38 543.631,1447.56 548.106,1447.74 552.347,1447.92 556.353,1448.11 560.123,1448.29 563.66,1448.47 566.969,1448.65 570.056,1448.83 572.931,1449.02 575.602,1449.2 578.079,1449.38 580.375,1449.56 582.5,1449.74 584.466,1449.93 586.284,1450.11 587.969,1450.29 589.531,1450.47 590.984,1450.65 592.342,1450.84 593.617,1451.02 594.824,1451.2 595.978,1451.38 597.094,1451.56 598.187,1451.75 599.274,1451.93 600.372,1452.11 601.497,1452.29 602.666,1452.47 603.896,1452.66 605.203,1452.84 606.605,1453.02 608.115,1453.2 609.748,1453.38 611.518,1453.57 613.434,1453.75 615.506,1453.93 617.741,1454.11 854.029,1454.11 "/>
<path clip-path="url(#clip211)" d="M2029.9 368.691 L2035.42 367.988 L2039.94 367.284 L2043.49 366.581 L2046.17 365.877 L2048.07 365.174 L2049.31 364.47 L2050.01 363.767 L2050.3 363.063 L2050.32 362.36 L2050.17 361.656 L2049.97 360.953 L2049.79 360.249 L2049.71 359.546 L2049.75 358.842 L2049.91 358.139 L2050.19 357.435 L2050.51 356.732 L2050.81 356.028 L2050.99 355.325 L2050.93 354.621 L2050.5 353.918 L2049.57 353.214 L2048.02 352.51 L2045.73 351.807 L2042.57 351.103 L2038.48 350.4 L2033.38 349.696 L2027.23 348.993 L2020.04 348.289 L2011.81 347.586 L2002.59 346.882 L1992.47 346.179 L1981.53 345.475 L1969.91 344.772 L1957.73 344.068 L1945.14 343.365 L1932.29 342.661 L1919.33 341.958 L1906.42 341.254 L1893.69 340.551 L1881.27 339.847 L1869.29 339.144 L1857.84 338.44 L1846.99 337.737 L1836.83 337.033 L1827.38 336.33 L1818.68 335.626 L1810.74 334.922 L1803.56 334.219 L1797.12 333.515 L1791.39 332.812 L1786.33 332.108 L1781.92 331.405 L1778.09 330.701 L1774.8 329.998 L1772 329.294 L1769.64 328.591 L1767.67 327.887 L1766.06 327.184 L1764.75 326.48 L1763.73 325.777 L1762.94 325.073 L1762.38 324.37 L1762.03 323.666 L1761.85 322.963 L1761.86 322.259 L1762.04 321.556 L1762.4 320.852 L1762.94 320.149 L1763.67 319.445 L1764.6 318.741 L1765.76 318.038 L1767.15 317.334 L1768.82 316.631 L1770.76 315.927 L1773.01 315.224 L1775.59 314.52 L1778.52 313.817 L1781.8 313.113 L1785.46 312.41 L1789.5 311.706 L1793.91 311.003 L1798.69 310.299 L1803.81 309.596 L1809.25 308.892 L1814.96 308.189 L1820.9 307.485 L1827 306.782 L1833.2 306.078 L1839.41 305.375 L1845.56 304.671 L1851.54 303.968 L1857.27 303.264 L1862.64 302.56 L1867.58 301.857 L1871.98 301.153 L1875.76 300.45 L1878.86 299.746 L1881.21 299.043 L1882.76 298.339 L1883.49 297.636 L1634 297.636 L1634.73 298.339 L1636.28 299.043 L1638.63 299.746 L1641.73 300.45 L1645.51 301.153 L1649.91 301.857 L1654.84 302.56 L1660.22 303.264 L1665.95 303.968 L1671.93 304.671 L1678.08 305.375 L1684.29 306.078 L1690.49 306.782 L1696.59 307.485 L1702.53 308.189 L1708.24 308.892 L1713.68 309.596 L1718.8 310.299 L1723.58 311.003 L1727.99 311.706 L1732.02 312.41 L1735.68 313.113 L1738.97 313.817 L1741.9 314.52 L1744.48 315.224 L1746.73 315.927 L1748.67 316.631 L1750.33 317.334 L1751.73 318.038 L1752.89 318.741 L1753.82 319.445 L1754.55 320.149 L1755.09 320.852 L1755.45 321.556 L1755.63 322.259 L1755.64 322.963 L1755.46 323.666 L1755.1 324.37 L1754.54 325.073 L1753.76 325.777 L1752.73 326.48 L1751.43 327.184 L1749.82 327.887 L1747.85 328.591 L1745.49 329.294 L1742.69 329.998 L1739.4 330.701 L1735.57 331.405 L1731.15 332.108 L1726.1 332.812 L1720.37 333.515 L1713.93 334.219 L1706.74 334.922 L1698.81 335.626 L1690.11 336.33 L1680.66 337.033 L1670.5 337.737 L1659.65 338.44 L1648.2 339.144 L1636.22 339.847 L1623.8 340.551 L1611.07 341.254 L1598.16 341.958 L1585.2 342.661 L1572.35 343.365 L1559.76 344.068 L1547.58 344.772 L1535.95 345.475 L1525.02 346.179 L1514.9 346.882 L1505.68 347.586 L1497.45 348.289 L1490.25 348.993 L1484.11 349.696 L1479.01 350.4 L1474.91 351.103 L1471.76 351.807 L1469.46 352.51 L1467.91 353.214 L1466.99 353.918 L1466.56 354.621 L1466.5 355.325 L1466.68 356.028 L1466.98 356.732 L1467.3 357.435 L1467.57 358.139 L1467.74 358.842 L1467.78 359.546 L1467.7 360.249 L1467.52 360.953 L1467.32 361.656 L1467.17 362.36 L1467.18 363.063 L1467.48 363.767 L1468.18 364.47 L1469.42 365.174 L1471.32 365.877 L1474 366.581 L1477.55 367.284 L1482.06 367.988 L1487.59 368.691 L2029.9 368.691  Z" fill="#e26f46" fill-rule="evenodd" fill-opacity="1"/>
<polyline clip-path="url(#clip211)" style="stroke:#000000; stroke-linecap:round; stroke-linejoin:round; stroke-width:4; stroke-opacity:1; fill:none" points="2029.9,368.691 2035.42,367.988 2039.94,367.284 2043.49,366.581 2046.17,365.877 2048.07,365.174 2049.31,364.47 2050.01,363.767 2050.3,363.063 2050.32,362.36 2050.17,361.656 2049.97,360.953 2049.79,360.249 2049.71,359.546 2049.75,358.842 2049.91,358.139 2050.19,357.435 2050.51,356.732 2050.81,356.028 2050.99,355.325 2050.93,354.621 2050.5,353.918 2049.57,353.214 2048.02,352.51 2045.73,351.807 2042.57,351.103 2038.48,350.4 2033.38,349.696 2027.23,348.993 2020.04,348.289 2011.81,347.586 2002.59,346.882 1992.47,346.179 1981.53,345.475 1969.91,344.772 1957.73,344.068 1945.14,343.365 1932.29,342.661 1919.33,341.958 1906.42,341.254 1893.69,340.551 1881.27,339.847 1869.29,339.144 1857.84,338.44 1846.99,337.737 1836.83,337.033 1827.38,336.33 1818.68,335.626 1810.74,334.922 1803.56,334.219 1797.12,333.515 1791.39,332.812 1786.33,332.108 1781.92,331.405 1778.09,330.701 1774.8,329.998 1772,329.294 1769.64,328.591 1767.67,327.887 1766.06,327.184 1764.75,326.48 1763.73,325.777 1762.94,325.073 1762.38,324.37 1762.03,323.666 1761.85,322.963 1761.86,322.259 1762.04,321.556 1762.4,320.852 1762.94,320.149 1763.67,319.445 1764.6,318.741 1765.76,318.038 1767.15,317.334 1768.82,316.631 1770.76,315.927 1773.01,315.224 1775.59,314.52 1778.52,313.817 1781.8,313.113 1785.46,312.41 1789.5,311.706 1793.91,311.003 1798.69,310.299 1803.81,309.596 1809.25,308.892 1814.96,308.189 1820.9,307.485 1827,306.782 1833.2,306.078 1839.41,305.375 1845.56,304.671 1851.54,303.968 1857.27,303.264 1862.64,302.56 1867.58,301.857 1871.98,301.153 1875.76,300.45 1878.86,299.746 1881.21,299.043 1882.76,298.339 1883.49,297.636 1634,297.636 1634.73,298.339 1636.28,299.043 1638.63,299.746 1641.73,300.45 1645.51,301.153 1649.91,301.857 1654.84,302.56 1660.22,303.264 1665.95,303.968 1671.93,304.671 1678.08,305.375 1684.29,306.078 1690.49,306.782 1696.59,307.485 1702.53,308.189 1708.24,308.892 1713.68,309.596 1718.8,310.299 1723.58,311.003 1727.99,311.706 1732.02,312.41 1735.68,313.113 1738.97,313.817 1741.9,314.52 1744.48,315.224 1746.73,315.927 1748.67,316.631 1750.33,317.334 1751.73,318.038 1752.89,318.741 1753.82,319.445 1754.55,320.149 1755.09,320.852 1755.45,321.556 1755.63,322.259 1755.64,322.963 1755.46,323.666 1755.1,324.37 1754.54,325.073 1753.76,325.777 1752.73,326.48 1751.43,327.184 1749.82,327.887 1747.85,328.591 1745.49,329.294 1742.69,329.998 1739.4,330.701 1735.57,331.405 1731.15,332.108 1726.1,332.812 1720.37,333.515 1713.93,334.219 1706.74,334.922 1698.81,335.626 1690.11,336.33 1680.66,337.033 1670.5,337.737 1659.65,338.44 1648.2,339.144 1636.22,339.847 1623.8,340.551 1611.07,341.254 1598.16,341.958 1585.2,342.661 1572.35,343.365 1559.76,344.068 1547.58,344.772 1535.95,345.475 1525.02,346.179 1514.9,346.882 1505.68,347.586 1497.45,348.289 1490.25,348.993 1484.11,349.696 1479.01,350.4 1474.91,351.103 1471.76,351.807 1469.46,352.51 1467.91,353.214 1466.99,353.918 1466.56,354.621 1466.5,355.325 1466.68,356.028 1466.98,356.732 1467.3,357.435 1467.57,358.139 1467.74,358.842 1467.78,359.546 1467.7,360.249 1467.52,360.953 1467.32,361.656 1467.17,362.36 1467.18,363.063 1467.48,363.767 1468.18,364.47 1469.42,365.174 1471.32,365.877 1474,366.581 1477.55,367.284 1482.06,367.988 1487.59,368.691 2029.9,368.691 "/>
<path clip-path="url(#clip211)" d="M2955.35 129.215 L2960.33 128.543 L2965.18 127.871 L2969.87 127.199 L2974.41 126.527 L2978.8 125.855 L2983.03 125.183 L2987.11 124.511 L2991.03 123.839 L2994.79 123.167 L2998.41 122.495 L3001.88 121.823 L3005.21 121.151 L3008.4 120.479 L3011.45 119.807 L3014.38 119.135 L3017.18 118.462 L3019.86 117.79 L3022.42 117.118 L3024.88 116.446 L3027.24 115.774 L3029.5 115.102 L3031.68 114.43 L3033.77 113.758 L3035.79 113.086 L3037.74 112.414 L3039.64 111.742 L3041.48 111.07 L3043.27 110.398 L3045.03 109.726 L3046.76 109.054 L3048.46 108.382 L3050.15 107.71 L3051.82 107.038 L3053.48 106.366 L3055.14 105.694 L3056.79 105.022 L3058.43 104.35 L3060.07 103.678 L3061.68 103.006 L3063.27 102.334 L3064.82 101.662 L3066.32 100.99 L3067.75 100.317 L3069.09 99.6454 L3070.32 98.9734 L3071.41 98.3014 L3072.34 97.6293 L3073.08 96.9573 L3073.59 96.2852 L3073.85 95.6132 L3073.82 94.9412 L3073.48 94.2691 L3072.79 93.5971 L3071.71 92.9251 L3070.24 92.253 L3068.33 91.581 L3065.97 90.909 L3063.14 90.2369 L3059.82 89.5649 L3056.02 88.8928 L3051.71 88.2208 L2511.5 88.2208 L2507.19 88.8928 L2503.39 89.5649 L2500.07 90.2369 L2497.24 90.909 L2494.88 91.581 L2492.97 92.253 L2491.49 92.9251 L2490.42 93.5971 L2489.73 94.2691 L2489.38 94.9412 L2489.36 95.6132 L2489.62 96.2852 L2490.13 96.9573 L2490.87 97.6293 L2491.8 98.3014 L2492.89 98.9734 L2494.12 99.6454 L2495.46 100.317 L2496.89 100.99 L2498.39 101.662 L2499.94 102.334 L2501.53 103.006 L2503.14 103.678 L2504.77 104.35 L2506.42 105.022 L2508.07 105.694 L2509.72 106.366 L2511.39 107.038 L2513.06 107.71 L2514.75 108.382 L2516.45 109.054 L2518.18 109.726 L2519.94 110.398 L2521.73 111.07 L2523.57 111.742 L2525.46 112.414 L2527.42 113.086 L2529.43 113.758 L2531.53 114.43 L2533.7 115.102 L2535.97 115.774 L2538.33 116.446 L2540.78 117.118 L2543.35 117.79 L2546.03 118.462 L2548.83 119.135 L2551.76 119.807 L2554.81 120.479 L2558 121.151 L2561.33 121.823 L2564.8 122.495 L2568.41 123.167 L2572.18 123.839 L2576.1 124.511 L2580.18 125.183 L2584.41 125.855 L2588.8 126.527 L2593.34 127.199 L2598.03 127.871 L2602.87 128.543 L2607.86 129.215 L2955.35 129.215  Z" fill="#3da44d" fill-rule="evenodd" fill-opacity="1"/>
<polyline clip-path="url(#clip211)" style="stroke:#000000; stroke-linecap:round; stroke-linejoin:round; stroke-width:4; stroke-opacity:1; fill:none" points="2955.35,129.215 2960.33,128.543 2965.18,127.871 2969.87,127.199 2974.41,126.527 2978.8,125.855 2983.03,125.183 2987.11,124.511 2991.03,123.839 2994.79,123.167 2998.41,122.495 3001.88,121.823 3005.21,121.151 3008.4,120.479 3011.45,119.807 3014.38,119.135 3017.18,118.462 3019.86,117.79 3022.42,117.118 3024.88,116.446 3027.24,115.774 3029.5,115.102 3031.68,114.43 3033.77,113.758 3035.79,113.086 3037.74,112.414 3039.64,111.742 3041.48,111.07 3043.27,110.398 3045.03,109.726 3046.76,109.054 3048.46,108.382 3050.15,107.71 3051.82,107.038 3053.48,106.366 3055.14,105.694 3056.79,105.022 3058.43,104.35 3060.07,103.678 3061.68,103.006 3063.27,102.334 3064.82,101.662 3066.32,100.99 3067.75,100.317 3069.09,99.6454 3070.32,98.9734 3071.41,98.3014 3072.34,97.6293 3073.08,96.9573 3073.59,96.2852 3073.85,95.6132 3073.82,94.9412 3073.48,94.2691 3072.79,93.5971 3071.71,92.9251 3070.24,92.253 3068.33,91.581 3065.97,90.909 3063.14,90.2369 3059.82,89.5649 3056.02,88.8928 3051.71,88.2208 2511.5,88.2208 2507.19,88.8928 2503.39,89.5649 2500.07,90.2369 2497.24,90.909 2494.88,91.581 2492.97,92.253 2491.49,92.9251 2490.42,93.5971 2489.73,94.2691 2489.38,94.9412 2489.36,95.6132 2489.62,96.2852 2490.13,96.9573 2490.87,97.6293 2491.8,98.3014 2492.89,98.9734 2494.12,99.6454 2495.46,100.317 2496.89,100.99 2498.39,101.662 2499.94,102.334 2501.53,103.006 2503.14,103.678 2504.77,104.35 2506.42,105.022 2508.07,105.694 2509.72,106.366 2511.39,107.038 2513.06,107.71 2514.75,108.382 2516.45,109.054 2518.18,109.726 2519.94,110.398 2521.73,111.07 2523.57,111.742 2525.46,112.414 2527.42,113.086 2529.43,113.758 2531.53,114.43 2533.7,115.102 2535.97,115.774 2538.33,116.446 2540.78,117.118 2543.35,117.79 2546.03,118.462 2548.83,119.135 2551.76,119.807 2554.81,120.479 2558,121.151 2561.33,121.823 2564.8,122.495 2568.41,123.167 2572.18,123.839 2576.1,124.511 2580.18,125.183 2584.41,125.855 2588.8,126.527 2593.34,127.199 2598.03,127.871 2602.87,128.543 2607.86,129.215 2955.35,129.215 "/>
</svg>
