<?xml version="1.0" encoding="utf-8"?>
<svg xmlns="http://www.w3.org/2000/svg" xmlns:xlink="http://www.w3.org/1999/xlink" width="800" height="400" viewBox="0 0 3200 1600">
<defs>
  <clipPath id="clip890">
    <rect x="0" y="0" width="3200" height="1600"/>
  </clipPath>
</defs>
<path clip-path="url(#clip890)" d="M0 1600 L3200 1600 L3200 0 L0 0  Z" fill="#ffffff" fill-rule="evenodd" fill-opacity="1"/>
<defs>
  <clipPath id="clip891">
    <rect x="364" y="47" width="2789" height="1449"/>
  </clipPath>
</defs>
<path clip-path="url(#clip890)" d="M364.733 1495.09 L3152.76 1495.09 L3152.76 47.2441 L364.733 47.2441  Z" fill="#ffffff" fill-rule="evenodd" fill-opacity="1"/>
<polyline clip-path="url(#clip891)" style="stroke:#000000; stroke-linecap:round; stroke-linejoin:round; stroke-width:2; stroke-opacity:0.1; fill:none" points="735.885,1495.09 735.885,47.2441 "/>
<polyline clip-path="url(#clip891)" style="stroke:#000000; stroke-linecap:round; stroke-linejoin:round; stroke-width:2; stroke-opacity:0.1; fill:none" points="1758.74,1495.09 1758.74,47.2441 "/>
<polyline clip-path="url(#clip891)" style="stroke:#000000; stroke-linecap:round; stroke-linejoin:round; stroke-width:2; stroke-opacity:0.1; fill:none" points="2781.6,1495.09 2781.6,47.2441 "/>
<polyline clip-path="url(#clip891)" style="stroke:#000000; stroke-linecap:round; stroke-linejoin:round; stroke-width:2; stroke-opacity:0.1; fill:none" points="364.733,1380.85 3152.76,1380.85 "/>
<polyline clip-path="url(#clip891)" style="stroke:#000000; stroke-linecap:round; stroke-linejoin:round; stroke-width:2; stroke-opacity:0.1; fill:none" points="364.733,1120.89 3152.76,1120.89 "/>
<polyline clip-path="url(#clip891)" style="stroke:#000000; stroke-linecap:round; stroke-linejoin:round; stroke-width:2; stroke-opacity:0.1; fill:none" points="364.733,860.934 3152.76,860.934 "/>
<polyline clip-path="url(#clip891)" style="stroke:#000000; stroke-linecap:round; stroke-linejoin:round; stroke-width:2; stroke-opacity:0.1; fill:none" points="364.733,600.977 3152.76,600.977 "/>
<polyline clip-path="url(#clip891)" style="stroke:#000000; stroke-linecap:round; stroke-linejoin:round; stroke-width:2; stroke-opacity:0.1; fill:none" points="364.733,341.019 3152.76,341.019 "/>
<polyline clip-path="url(#clip891)" style="stroke:#000000; stroke-linecap:round; stroke-linejoin:round; stroke-width:2; stroke-opacity:0.1; fill:none" points="364.733,81.0623 3152.76,81.0623 "/>
<polyline clip-path="url(#clip890)" style="stroke:#000000; stroke-linecap:round; stroke-linejoin:round; stroke-width:4; stroke-opacity:1; fill:none" points="364.733,1495.09 3152.76,1495.09 "/>
<polyline clip-path="url(#clip890)" style="stroke:#000000; stroke-linecap:round; stroke-linejoin:round; stroke-width:4; stroke-opacity:1; fill:none" points="735.885,1495.09 735.885,1476.19 "/>
<polyline clip-path="url(#clip890)" style="stroke:#000000; stroke-linecap:round; stroke-linejoin:round; stroke-width:4; stroke-opacity:1; fill:none" points="1758.74,1495.09 1758.74,1476.19 "/>
<polyline clip-path="url(#clip890)" style="stroke:#000000; stroke-linecap:round; stroke-linejoin:round; stroke-width:4; stroke-opacity:1; fill:none" points="2781.6,1495.09 2781.6,1476.19 "/>
<path clip-path="url(#clip890)" d="M651.846 1538.73 L651.846 1542.75 Q650.04 1541.83 648.096 1541.36 Q646.151 1540.9 644.068 1540.9 Q640.897 1540.9 639.299 1541.87 Q637.725 1542.85 637.725 1544.79 Q637.725 1546.27 638.86 1547.13 Q639.994 1547.96 643.42 1548.73 L644.878 1549.05 Q649.415 1550.02 651.313 1551.8 Q653.235 1553.56 653.235 1556.74 Q653.235 1560.35 650.364 1562.45 Q647.517 1564.56 642.517 1564.56 Q640.434 1564.56 638.165 1564.14 Q635.92 1563.75 633.42 1562.94 L633.42 1558.54 Q635.781 1559.77 638.073 1560.39 Q640.364 1560.99 642.61 1560.99 Q645.619 1560.99 647.239 1559.98 Q648.86 1558.93 648.86 1557.06 Q648.86 1555.32 647.679 1554.4 Q646.522 1553.47 642.563 1552.61 L641.082 1552.27 Q637.123 1551.43 635.364 1549.72 Q633.605 1547.99 633.605 1544.98 Q633.605 1541.32 636.198 1539.33 Q638.79 1537.34 643.559 1537.34 Q645.92 1537.34 648.003 1537.68 Q650.086 1538.03 651.846 1538.73 Z" fill="#000000" fill-rule="nonzero" fill-opacity="1" /><path clip-path="url(#clip890)" d="M670.804 1566.3 Q668.998 1570.92 667.285 1572.34 Q665.572 1573.75 662.702 1573.75 L659.299 1573.75 L659.299 1570.18 L661.799 1570.18 Q663.559 1570.18 664.531 1569.35 Q665.503 1568.52 666.684 1565.42 L667.447 1563.47 L656.961 1537.96 L661.475 1537.96 L669.577 1558.24 L677.679 1537.96 L682.193 1537.96 L670.804 1566.3 Z" fill="#000000" fill-rule="nonzero" fill-opacity="1" /><path clip-path="url(#clip890)" d="M708.257 1542.94 Q709.855 1540.07 712.077 1538.7 Q714.299 1537.34 717.308 1537.34 Q721.359 1537.34 723.558 1540.18 Q725.757 1543.01 725.757 1548.24 L725.757 1563.89 L721.475 1563.89 L721.475 1548.38 Q721.475 1544.65 720.155 1542.85 Q718.836 1541.04 716.128 1541.04 Q712.818 1541.04 710.896 1543.24 Q708.975 1545.44 708.975 1549.24 L708.975 1563.89 L704.693 1563.89 L704.693 1548.38 Q704.693 1544.63 703.373 1542.85 Q702.054 1541.04 699.299 1541.04 Q696.035 1541.04 694.114 1543.26 Q692.193 1545.46 692.193 1549.24 L692.193 1563.89 L687.91 1563.89 L687.91 1537.96 L692.193 1537.96 L692.193 1541.99 Q693.651 1539.61 695.688 1538.47 Q697.725 1537.34 700.526 1537.34 Q703.35 1537.34 705.318 1538.77 Q707.308 1540.21 708.257 1542.94 Z" fill="#000000" fill-rule="nonzero" fill-opacity="1" /><path clip-path="url(#clip890)" d="M752.864 1550.95 Q752.864 1546.25 750.919 1543.59 Q748.998 1540.9 745.618 1540.9 Q742.239 1540.9 740.294 1543.59 Q738.373 1546.25 738.373 1550.95 Q738.373 1555.65 740.294 1558.33 Q742.239 1560.99 745.618 1560.99 Q748.998 1560.99 750.919 1558.33 Q752.864 1555.65 752.864 1550.95 M738.373 1541.9 Q739.716 1539.58 741.753 1538.47 Q743.813 1537.34 746.66 1537.34 Q751.382 1537.34 754.322 1541.09 Q757.285 1544.84 757.285 1550.95 Q757.285 1557.06 754.322 1560.81 Q751.382 1564.56 746.66 1564.56 Q743.813 1564.56 741.753 1563.45 Q739.716 1562.31 738.373 1560 L738.373 1563.89 L734.091 1563.89 L734.091 1527.87 L738.373 1527.87 L738.373 1541.9 Z" fill="#000000" fill-rule="nonzero" fill-opacity="1" /><path clip-path="url(#clip890)" d="M774.391 1540.95 Q770.965 1540.95 768.975 1543.63 Q766.984 1546.3 766.984 1550.95 Q766.984 1555.6 768.951 1558.29 Q770.942 1560.95 774.391 1560.95 Q777.794 1560.95 779.785 1558.26 Q781.775 1555.58 781.775 1550.95 Q781.775 1546.34 779.785 1543.66 Q777.794 1540.95 774.391 1540.95 M774.391 1537.34 Q779.947 1537.34 783.118 1540.95 Q786.289 1544.56 786.289 1550.95 Q786.289 1557.31 783.118 1560.95 Q779.947 1564.56 774.391 1564.56 Q768.813 1564.56 765.641 1560.95 Q762.493 1557.31 762.493 1550.95 Q762.493 1544.56 765.641 1540.95 Q768.813 1537.34 774.391 1537.34 Z" fill="#000000" fill-rule="nonzero" fill-opacity="1" /><path clip-path="url(#clip890)" d="M793.349 1527.87 L797.609 1527.87 L797.609 1563.89 L793.349 1563.89 L793.349 1527.87 Z" fill="#000000" fill-rule="nonzero" fill-opacity="1" /><path clip-path="url(#clip890)" d="M806.521 1537.96 L810.78 1537.96 L810.78 1563.89 L806.521 1563.89 L806.521 1537.96 M806.521 1527.87 L810.78 1527.87 L810.78 1533.26 L806.521 1533.26 L806.521 1527.87 Z" fill="#000000" fill-rule="nonzero" fill-opacity="1" /><path clip-path="url(#clip890)" d="M838.349 1538.96 L838.349 1542.94 Q836.544 1541.94 834.715 1541.46 Q832.909 1540.95 831.058 1540.95 Q826.914 1540.95 824.622 1543.59 Q822.331 1546.2 822.331 1550.95 Q822.331 1555.69 824.622 1558.33 Q826.914 1560.95 831.058 1560.95 Q832.909 1560.95 834.715 1560.46 Q836.544 1559.95 838.349 1558.96 L838.349 1562.89 Q836.567 1563.73 834.646 1564.14 Q832.747 1564.56 830.595 1564.56 Q824.738 1564.56 821.289 1560.88 Q817.84 1557.2 817.84 1550.95 Q817.84 1544.61 821.312 1540.97 Q824.808 1537.34 830.872 1537.34 Q832.84 1537.34 834.715 1537.75 Q836.59 1538.15 838.349 1538.96 Z" fill="#000000" fill-rule="nonzero" fill-opacity="1" /><path clip-path="url(#clip890)" d="M1669.07 1527.87 L1669.07 1531.41 L1664.99 1531.41 Q1662.7 1531.41 1661.8 1532.34 Q1660.92 1533.26 1660.92 1535.67 L1660.92 1537.96 L1667.93 1537.96 L1667.93 1541.27 L1660.92 1541.27 L1660.92 1563.89 L1656.64 1563.89 L1656.64 1541.27 L1652.56 1541.27 L1652.56 1537.96 L1656.64 1537.96 L1656.64 1536.16 Q1656.64 1531.83 1658.65 1529.86 Q1660.67 1527.87 1665.04 1527.87 L1669.07 1527.87 Z" fill="#000000" fill-rule="nonzero" fill-opacity="1" /><path clip-path="url(#clip890)" d="M1672.63 1537.96 L1676.89 1537.96 L1676.89 1563.89 L1672.63 1563.89 L1672.63 1537.96 M1672.63 1527.87 L1676.89 1527.87 L1676.89 1533.26 L1672.63 1533.26 L1672.63 1527.87 Z" fill="#000000" fill-rule="nonzero" fill-opacity="1" /><path clip-path="url(#clip890)" d="M1707.36 1548.24 L1707.36 1563.89 L1703.1 1563.89 L1703.1 1548.38 Q1703.1 1544.7 1701.66 1542.87 Q1700.23 1541.04 1697.36 1541.04 Q1693.91 1541.04 1691.92 1543.24 Q1689.93 1545.44 1689.93 1549.24 L1689.93 1563.89 L1685.64 1563.89 L1685.64 1537.96 L1689.93 1537.96 L1689.93 1541.99 Q1691.45 1539.65 1693.51 1538.49 Q1695.6 1537.34 1698.3 1537.34 Q1702.77 1537.34 1705.06 1540.11 Q1707.36 1542.87 1707.36 1548.24 Z" fill="#000000" fill-rule="nonzero" fill-opacity="1" /><path clip-path="url(#clip890)" d="M1715.85 1537.96 L1720.11 1537.96 L1720.11 1563.89 L1715.85 1563.89 L1715.85 1537.96 M1715.85 1527.87 L1720.11 1527.87 L1720.11 1533.26 L1715.85 1533.26 L1715.85 1527.87 Z" fill="#000000" fill-rule="nonzero" fill-opacity="1" /><path clip-path="url(#clip890)" d="M1733.24 1530.6 L1733.24 1537.96 L1742.01 1537.96 L1742.01 1541.27 L1733.24 1541.27 L1733.24 1555.35 Q1733.24 1558.52 1734.09 1559.42 Q1734.97 1560.32 1737.63 1560.32 L1742.01 1560.32 L1742.01 1563.89 L1737.63 1563.89 Q1732.7 1563.89 1730.83 1562.06 Q1728.95 1560.21 1728.95 1555.35 L1728.95 1541.27 L1725.83 1541.27 L1725.83 1537.96 L1728.95 1537.96 L1728.95 1530.6 L1733.24 1530.6 Z" fill="#000000" fill-rule="nonzero" fill-opacity="1" /><path clip-path="url(#clip890)" d="M1769.79 1549.86 L1769.79 1551.94 L1750.2 1551.94 Q1750.48 1556.34 1752.84 1558.66 Q1755.23 1560.95 1759.46 1560.95 Q1761.92 1560.95 1764.21 1560.35 Q1766.52 1559.74 1768.79 1558.54 L1768.79 1562.57 Q1766.5 1563.54 1764.09 1564.05 Q1761.68 1564.56 1759.21 1564.56 Q1753 1564.56 1749.37 1560.95 Q1745.76 1557.34 1745.76 1551.18 Q1745.76 1544.81 1749.18 1541.09 Q1752.63 1537.34 1758.47 1537.34 Q1763.7 1537.34 1766.73 1540.72 Q1769.79 1544.07 1769.79 1549.86 M1765.53 1548.61 Q1765.48 1545.11 1763.56 1543.03 Q1761.66 1540.95 1758.51 1540.95 Q1754.95 1540.95 1752.8 1542.96 Q1750.67 1544.98 1750.34 1548.63 L1765.53 1548.61 Z" fill="#000000" fill-rule="nonzero" fill-opacity="1" /><path clip-path="url(#clip890)" d="M1808.91 1541.9 L1808.91 1527.87 L1813.17 1527.87 L1813.17 1563.89 L1808.91 1563.89 L1808.91 1560 Q1807.56 1562.31 1805.5 1563.45 Q1803.47 1564.56 1800.6 1564.56 Q1795.9 1564.56 1792.93 1560.81 Q1789.99 1557.06 1789.99 1550.95 Q1789.99 1544.84 1792.93 1541.09 Q1795.9 1537.34 1800.6 1537.34 Q1803.47 1537.34 1805.5 1538.47 Q1807.56 1539.58 1808.91 1541.9 M1794.39 1550.95 Q1794.39 1555.65 1796.31 1558.33 Q1798.26 1560.99 1801.64 1560.99 Q1805.02 1560.99 1806.96 1558.33 Q1808.91 1555.65 1808.91 1550.95 Q1808.91 1546.25 1806.96 1543.59 Q1805.02 1540.9 1801.64 1540.9 Q1798.26 1540.9 1796.31 1543.59 Q1794.39 1546.25 1794.39 1550.95 Z" fill="#000000" fill-rule="nonzero" fill-opacity="1" /><path clip-path="url(#clip890)" d="M1821.94 1537.96 L1826.2 1537.96 L1826.2 1563.89 L1821.94 1563.89 L1821.94 1537.96 M1821.94 1527.87 L1826.2 1527.87 L1826.2 1533.26 L1821.94 1533.26 L1821.94 1527.87 Z" fill="#000000" fill-rule="nonzero" fill-opacity="1" /><path clip-path="url(#clip890)" d="M1848.23 1527.87 L1848.23 1531.41 L1844.16 1531.41 Q1841.87 1531.41 1840.97 1532.34 Q1840.09 1533.26 1840.09 1535.67 L1840.09 1537.96 L1847.1 1537.96 L1847.1 1541.27 L1840.09 1541.27 L1840.09 1563.89 L1835.8 1563.89 L1835.8 1541.27 L1831.73 1541.27 L1831.73 1537.96 L1835.8 1537.96 L1835.8 1536.16 Q1835.8 1531.83 1837.82 1529.86 Q1839.83 1527.87 1844.21 1527.87 L1848.23 1527.87 Z" fill="#000000" fill-rule="nonzero" fill-opacity="1" /><path clip-path="url(#clip890)" d="M1864.92 1527.87 L1864.92 1531.41 L1860.85 1531.41 Q1858.56 1531.41 1857.66 1532.34 Q1856.78 1533.26 1856.78 1535.67 L1856.78 1537.96 L1863.79 1537.96 L1863.79 1541.27 L1856.78 1541.27 L1856.78 1563.89 L1852.49 1563.89 L1852.49 1541.27 L1848.42 1541.27 L1848.42 1537.96 L1852.49 1537.96 L1852.49 1536.16 Q1852.49 1531.83 1854.51 1529.86 Q1856.52 1527.87 1860.9 1527.87 L1864.92 1527.87 Z" fill="#000000" fill-rule="nonzero" fill-opacity="1" /><path clip-path="url(#clip890)" d="M2661.47 1527.87 L2661.47 1531.41 L2657.39 1531.41 Q2655.1 1531.41 2654.2 1532.34 Q2653.32 1533.26 2653.32 1535.67 L2653.32 1537.96 L2660.33 1537.96 L2660.33 1541.27 L2653.32 1541.27 L2653.32 1563.89 L2649.04 1563.89 L2649.04 1541.27 L2644.96 1541.27 L2644.96 1537.96 L2649.04 1537.96 L2649.04 1536.16 Q2649.04 1531.83 2651.05 1529.86 Q2653.06 1527.87 2657.44 1527.87 L2661.47 1527.87 Z" fill="#000000" fill-rule="nonzero" fill-opacity="1" /><path clip-path="url(#clip890)" d="M2675.08 1540.95 Q2671.65 1540.95 2669.66 1543.63 Q2667.67 1546.3 2667.67 1550.95 Q2667.67 1555.6 2669.64 1558.29 Q2671.63 1560.95 2675.08 1560.95 Q2678.48 1560.95 2680.47 1558.26 Q2682.46 1555.58 2682.46 1550.95 Q2682.46 1546.34 2680.47 1543.66 Q2678.48 1540.95 2675.08 1540.95 M2675.08 1537.34 Q2680.63 1537.34 2683.8 1540.95 Q2686.97 1544.56 2686.97 1550.95 Q2686.97 1557.31 2683.8 1560.95 Q2680.63 1564.56 2675.08 1564.56 Q2669.5 1564.56 2666.33 1560.95 Q2663.18 1557.31 2663.18 1550.95 Q2663.18 1544.56 2666.33 1540.95 Q2669.5 1537.34 2675.08 1537.34 Z" fill="#000000" fill-rule="nonzero" fill-opacity="1" /><path clip-path="url(#clip890)" d="M2709.06 1541.94 Q2708.34 1541.53 2707.48 1541.34 Q2706.65 1541.13 2705.63 1541.13 Q2702.02 1541.13 2700.08 1543.49 Q2698.16 1545.83 2698.16 1550.23 L2698.16 1563.89 L2693.87 1563.89 L2693.87 1537.96 L2698.16 1537.96 L2698.16 1541.99 Q2699.5 1539.63 2701.65 1538.49 Q2703.8 1537.34 2706.88 1537.34 Q2707.32 1537.34 2707.85 1537.41 Q2708.39 1537.45 2709.03 1537.57 L2709.06 1541.94 Z" fill="#000000" fill-rule="nonzero" fill-opacity="1" /><path clip-path="url(#clip890)" d="M2711.05 1537.96 L2715.31 1537.96 L2720.63 1558.19 L2725.93 1537.96 L2730.96 1537.96 L2736.28 1558.19 L2741.58 1537.96 L2745.84 1537.96 L2739.06 1563.89 L2734.03 1563.89 L2728.46 1542.64 L2722.85 1563.89 L2717.83 1563.89 L2711.05 1537.96 Z" fill="#000000" fill-rule="nonzero" fill-opacity="1" /><path clip-path="url(#clip890)" d="M2764.08 1550.86 Q2758.92 1550.86 2756.93 1552.04 Q2754.94 1553.22 2754.94 1556.06 Q2754.94 1558.33 2756.42 1559.67 Q2757.92 1560.99 2760.49 1560.99 Q2764.03 1560.99 2766.16 1558.49 Q2768.32 1555.97 2768.32 1551.8 L2768.32 1550.86 L2764.08 1550.86 M2772.58 1549.1 L2772.58 1563.89 L2768.32 1563.89 L2768.32 1559.95 Q2766.86 1562.31 2764.68 1563.45 Q2762.51 1564.56 2759.36 1564.56 Q2755.38 1564.56 2753.02 1562.34 Q2750.68 1560.09 2750.68 1556.34 Q2750.68 1551.97 2753.59 1549.74 Q2756.53 1547.52 2762.34 1547.52 L2768.32 1547.52 L2768.32 1547.11 Q2768.32 1544.17 2766.37 1542.57 Q2764.45 1540.95 2760.96 1540.95 Q2758.73 1540.95 2756.63 1541.48 Q2754.52 1542.01 2752.58 1543.08 L2752.58 1539.14 Q2754.91 1538.24 2757.11 1537.8 Q2759.31 1537.34 2761.4 1537.34 Q2767.02 1537.34 2769.8 1540.25 Q2772.58 1543.17 2772.58 1549.1 Z" fill="#000000" fill-rule="nonzero" fill-opacity="1" /><path clip-path="url(#clip890)" d="M2796.37 1541.94 Q2795.65 1541.53 2794.8 1541.34 Q2793.96 1541.13 2792.95 1541.13 Q2789.34 1541.13 2787.39 1543.49 Q2785.47 1545.83 2785.47 1550.23 L2785.47 1563.89 L2781.19 1563.89 L2781.19 1537.96 L2785.47 1537.96 L2785.47 1541.99 Q2786.81 1539.63 2788.97 1538.49 Q2791.12 1537.34 2794.2 1537.34 Q2794.64 1537.34 2795.17 1537.41 Q2795.7 1537.45 2796.35 1537.57 L2796.37 1541.94 Z" fill="#000000" fill-rule="nonzero" fill-opacity="1" /><path clip-path="url(#clip890)" d="M2817.07 1541.9 L2817.07 1527.87 L2821.33 1527.87 L2821.33 1563.89 L2817.07 1563.89 L2817.07 1560 Q2815.72 1562.31 2813.66 1563.45 Q2811.63 1564.56 2808.76 1564.56 Q2804.06 1564.56 2801.09 1560.81 Q2798.15 1557.06 2798.15 1550.95 Q2798.15 1544.84 2801.09 1541.09 Q2804.06 1537.34 2808.76 1537.34 Q2811.63 1537.34 2813.66 1538.47 Q2815.72 1539.58 2817.07 1541.9 M2802.55 1550.95 Q2802.55 1555.65 2804.47 1558.33 Q2806.42 1560.99 2809.8 1560.99 Q2813.18 1560.99 2815.12 1558.33 Q2817.07 1555.65 2817.07 1550.95 Q2817.07 1546.25 2815.12 1543.59 Q2813.18 1540.9 2809.8 1540.9 Q2806.42 1540.9 2804.47 1543.59 Q2802.55 1546.25 2802.55 1550.95 Z" fill="#000000" fill-rule="nonzero" fill-opacity="1" /><path clip-path="url(#clip890)" d="M2862.23 1541.9 L2862.23 1527.87 L2866.49 1527.87 L2866.49 1563.89 L2862.23 1563.89 L2862.23 1560 Q2860.89 1562.31 2858.83 1563.45 Q2856.79 1564.56 2853.92 1564.56 Q2849.22 1564.56 2846.26 1560.81 Q2843.32 1557.06 2843.32 1550.95 Q2843.32 1544.84 2846.26 1541.09 Q2849.22 1537.34 2853.92 1537.34 Q2856.79 1537.34 2858.83 1538.47 Q2860.89 1539.58 2862.23 1541.9 M2847.71 1550.95 Q2847.71 1555.65 2849.64 1558.33 Q2851.58 1560.99 2854.96 1560.99 Q2858.34 1560.99 2860.28 1558.33 Q2862.23 1555.65 2862.23 1550.95 Q2862.23 1546.25 2860.28 1543.59 Q2858.34 1540.9 2854.96 1540.9 Q2851.58 1540.9 2849.64 1543.59 Q2847.71 1546.25 2847.71 1550.95 Z" fill="#000000" fill-rule="nonzero" fill-opacity="1" /><path clip-path="url(#clip890)" d="M2875.26 1537.96 L2879.52 1537.96 L2879.52 1563.89 L2875.26 1563.89 L2875.26 1537.96 M2875.26 1527.87 L2879.52 1527.87 L2879.52 1533.26 L2875.26 1533.26 L2875.26 1527.87 Z" fill="#000000" fill-rule="nonzero" fill-opacity="1" /><path clip-path="url(#clip890)" d="M2901.56 1527.87 L2901.56 1531.41 L2897.48 1531.41 Q2895.19 1531.41 2894.29 1532.34 Q2893.41 1533.26 2893.41 1535.67 L2893.41 1537.96 L2900.42 1537.96 L2900.42 1541.27 L2893.41 1541.27 L2893.41 1563.89 L2889.13 1563.89 L2889.13 1541.27 L2885.05 1541.27 L2885.05 1537.96 L2889.13 1537.96 L2889.13 1536.16 Q2889.13 1531.83 2891.14 1529.86 Q2893.15 1527.87 2897.53 1527.87 L2901.56 1527.87 Z" fill="#000000" fill-rule="nonzero" fill-opacity="1" /><path clip-path="url(#clip890)" d="M2918.25 1527.87 L2918.25 1531.41 L2914.17 1531.41 Q2911.88 1531.41 2910.98 1532.34 Q2910.1 1533.26 2910.1 1535.67 L2910.1 1537.96 L2917.11 1537.96 L2917.11 1541.27 L2910.1 1541.27 L2910.1 1563.89 L2905.82 1563.89 L2905.82 1541.27 L2901.74 1541.27 L2901.74 1537.96 L2905.82 1537.96 L2905.82 1536.16 Q2905.82 1531.83 2907.83 1529.86 Q2909.84 1527.87 2914.22 1527.87 L2918.25 1527.87 Z" fill="#000000" fill-rule="nonzero" fill-opacity="1" /><polyline clip-path="url(#clip890)" style="stroke:#000000; stroke-linecap:round; stroke-linejoin:round; stroke-width:4; stroke-opacity:1; fill:none" points="364.733,1495.09 364.733,47.2441 "/>
<polyline clip-path="url(#clip890)" style="stroke:#000000; stroke-linecap:round; stroke-linejoin:round; stroke-width:4; stroke-opacity:1; fill:none" points="364.733,1380.85 383.63,1380.85 "/>
<polyline clip-path="url(#clip890)" style="stroke:#000000; stroke-linecap:round; stroke-linejoin:round; stroke-width:4; stroke-opacity:1; fill:none" points="364.733,1120.89 383.63,1120.89 "/>
<polyline clip-path="url(#clip890)" style="stroke:#000000; stroke-linecap:round; stroke-linejoin:round; stroke-width:4; stroke-opacity:1; fill:none" points="364.733,860.934 383.63,860.934 "/>
<polyline clip-path="url(#clip890)" style="stroke:#000000; stroke-linecap:round; stroke-linejoin:round; stroke-width:4; stroke-opacity:1; fill:none" points="364.733,600.977 383.63,600.977 "/>
<polyline clip-path="url(#clip890)" style="stroke:#000000; stroke-linecap:round; stroke-linejoin:round; stroke-width:4; stroke-opacity:1; fill:none" points="364.733,341.019 383.63,341.019 "/>
<polyline clip-path="url(#clip890)" style="stroke:#000000; stroke-linecap:round; stroke-linejoin:round; stroke-width:4; stroke-opacity:1; fill:none" points="364.733,81.0623 383.63,81.0623 "/>
<path clip-path="url(#clip890)" d="M100.137 1370.02 L118.493 1370.02 L118.493 1373.95 L104.419 1373.95 L104.419 1382.42 Q105.437 1382.08 106.456 1381.91 Q107.474 1381.73 108.493 1381.73 Q114.28 1381.73 117.66 1384.9 Q121.039 1388.07 121.039 1393.49 Q121.039 1399.07 117.567 1402.17 Q114.095 1405.25 107.775 1405.25 Q105.599 1405.25 103.331 1404.88 Q101.086 1404.51 98.6782 1403.77 L98.6782 1399.07 Q100.762 1400.2 102.984 1400.76 Q105.206 1401.31 107.683 1401.31 Q111.687 1401.31 114.025 1399.21 Q116.363 1397.1 116.363 1393.49 Q116.363 1389.88 114.025 1387.77 Q111.687 1385.66 107.683 1385.66 Q105.808 1385.66 103.933 1386.08 Q102.081 1386.5 100.137 1387.38 L100.137 1370.02 Z" fill="#000000" fill-rule="nonzero" fill-opacity="1" /><path clip-path="url(#clip890)" d="M130.252 1398.7 L135.136 1398.7 L135.136 1404.58 L130.252 1404.58 L130.252 1398.7 Z" fill="#000000" fill-rule="nonzero" fill-opacity="1" /><path clip-path="url(#clip890)" d="M155.321 1373.09 Q151.71 1373.09 149.882 1376.66 Q148.076 1380.2 148.076 1387.33 Q148.076 1394.44 149.882 1398 Q151.71 1401.54 155.321 1401.54 Q158.956 1401.54 160.761 1398 Q162.59 1394.44 162.59 1387.33 Q162.59 1380.2 160.761 1376.66 Q158.956 1373.09 155.321 1373.09 M155.321 1369.39 Q161.132 1369.39 164.187 1374 Q167.266 1378.58 167.266 1387.33 Q167.266 1396.06 164.187 1400.66 Q161.132 1405.25 155.321 1405.25 Q149.511 1405.25 146.433 1400.66 Q143.377 1396.06 143.377 1387.33 Q143.377 1378.58 146.433 1374 Q149.511 1369.39 155.321 1369.39 Z" fill="#000000" fill-rule="nonzero" fill-opacity="1" /><path clip-path="url(#clip890)" d="M185.483 1373.09 Q181.872 1373.09 180.043 1376.66 Q178.238 1380.2 178.238 1387.33 Q178.238 1394.44 180.043 1398 Q181.872 1401.54 185.483 1401.54 Q189.118 1401.54 190.923 1398 Q192.752 1394.44 192.752 1387.33 Q192.752 1380.2 190.923 1376.66 Q189.118 1373.09 185.483 1373.09 M185.483 1369.39 Q191.293 1369.39 194.349 1374 Q197.428 1378.58 197.428 1387.33 Q197.428 1396.06 194.349 1400.66 Q191.293 1405.25 185.483 1405.25 Q179.673 1405.25 176.594 1400.66 Q173.539 1396.06 173.539 1387.33 Q173.539 1378.58 176.594 1374 Q179.673 1369.39 185.483 1369.39 Z" fill="#000000" fill-rule="nonzero" fill-opacity="1" /><path clip-path="url(#clip890)" d="M233.816 1379.11 L223.238 1389.74 L233.816 1400.32 L231.062 1403.12 L220.437 1392.49 L209.812 1403.12 L207.08 1400.32 L217.636 1389.74 L207.08 1379.11 L209.812 1376.31 L220.437 1386.94 L231.062 1376.31 L233.816 1379.11 Z" fill="#000000" fill-rule="nonzero" fill-opacity="1" /><path clip-path="url(#clip890)" d="M246.177 1400.64 L253.816 1400.64 L253.816 1374.27 L245.506 1375.94 L245.506 1371.68 L253.77 1370.02 L258.446 1370.02 L258.446 1400.64 L266.085 1400.64 L266.085 1404.58 L246.177 1404.58 L246.177 1400.64 Z" fill="#000000" fill-rule="nonzero" fill-opacity="1" /><path clip-path="url(#clip890)" d="M285.529 1373.09 Q281.918 1373.09 280.089 1376.66 Q278.284 1380.2 278.284 1387.33 Q278.284 1394.44 280.089 1398 Q281.918 1401.54 285.529 1401.54 Q289.163 1401.54 290.969 1398 Q292.798 1394.44 292.798 1387.33 Q292.798 1380.2 290.969 1376.66 Q289.163 1373.09 285.529 1373.09 M285.529 1369.39 Q291.339 1369.39 294.395 1374 Q297.473 1378.58 297.473 1387.33 Q297.473 1396.06 294.395 1400.66 Q291.339 1405.25 285.529 1405.25 Q279.719 1405.25 276.64 1400.66 Q273.585 1396.06 273.585 1387.33 Q273.585 1378.58 276.64 1374 Q279.719 1369.39 285.529 1369.39 Z" fill="#000000" fill-rule="nonzero" fill-opacity="1" /><path clip-path="url(#clip890)" d="M307.103 1363.83 Q304.395 1363.83 302.834 1365.28 Q301.291 1366.73 301.291 1369.27 Q301.291 1371.8 302.834 1373.25 Q304.395 1374.7 307.103 1374.7 Q309.811 1374.7 311.372 1373.25 Q312.933 1371.79 312.933 1369.27 Q312.933 1366.73 311.372 1365.28 Q309.83 1363.83 307.103 1363.83 M303.304 1362.21 Q300.859 1361.61 299.486 1359.94 Q298.132 1358.26 298.132 1355.86 Q298.132 1352.49 300.52 1350.53 Q302.928 1348.58 307.103 1348.58 Q311.297 1348.58 313.686 1350.53 Q316.074 1352.49 316.074 1355.86 Q316.074 1358.26 314.701 1359.94 Q313.347 1361.61 310.921 1362.21 Q313.667 1362.85 315.19 1364.71 Q316.733 1366.58 316.733 1369.27 Q316.733 1373.35 314.231 1375.53 Q311.749 1377.71 307.103 1377.71 Q302.457 1377.71 299.956 1375.53 Q297.473 1373.35 297.473 1369.27 Q297.473 1366.58 299.016 1364.71 Q300.558 1362.85 303.304 1362.21 M301.912 1356.21 Q301.912 1358.39 303.266 1359.62 Q304.639 1360.84 307.103 1360.84 Q309.548 1360.84 310.921 1359.62 Q312.313 1358.39 312.313 1356.21 Q312.313 1354.03 310.921 1352.81 Q309.548 1351.59 307.103 1351.59 Q304.639 1351.59 303.266 1352.81 Q301.912 1354.03 301.912 1356.21 Z" fill="#000000" fill-rule="nonzero" fill-opacity="1" /><path clip-path="url(#clip890)" d="M100.788 1140.68 L108.426 1140.68 L108.426 1114.32 L100.116 1115.98 L100.116 1111.73 L108.38 1110.06 L113.056 1110.06 L113.056 1140.68 L120.695 1140.68 L120.695 1144.62 L100.788 1144.62 L100.788 1140.68 Z" fill="#000000" fill-rule="nonzero" fill-opacity="1" /><path clip-path="url(#clip890)" d="M130.139 1138.74 L135.023 1138.74 L135.023 1144.62 L130.139 1144.62 L130.139 1138.74 Z" fill="#000000" fill-rule="nonzero" fill-opacity="1" /><path clip-path="url(#clip890)" d="M155.209 1113.14 Q151.597 1113.14 149.769 1116.7 Q147.963 1120.24 147.963 1127.37 Q147.963 1134.48 149.769 1138.04 Q151.597 1141.59 155.209 1141.59 Q158.843 1141.59 160.648 1138.04 Q162.477 1134.48 162.477 1127.37 Q162.477 1120.24 160.648 1116.7 Q158.843 1113.14 155.209 1113.14 M155.209 1109.43 Q161.019 1109.43 164.074 1114.04 Q167.153 1118.62 167.153 1127.37 Q167.153 1136.1 164.074 1140.71 Q161.019 1145.29 155.209 1145.29 Q149.398 1145.29 146.32 1140.71 Q143.264 1136.1 143.264 1127.37 Q143.264 1118.62 146.32 1114.04 Q149.398 1109.43 155.209 1109.43 Z" fill="#000000" fill-rule="nonzero" fill-opacity="1" /><path clip-path="url(#clip890)" d="M185.37 1113.14 Q181.759 1113.14 179.931 1116.7 Q178.125 1120.24 178.125 1127.37 Q178.125 1134.48 179.931 1138.04 Q181.759 1141.59 185.37 1141.59 Q189.005 1141.59 190.81 1138.04 Q192.639 1134.48 192.639 1127.37 Q192.639 1120.24 190.81 1116.7 Q189.005 1113.14 185.37 1113.14 M185.37 1109.43 Q191.181 1109.43 194.236 1114.04 Q197.315 1118.62 197.315 1127.37 Q197.315 1136.1 194.236 1140.71 Q191.181 1145.29 185.37 1145.29 Q179.56 1145.29 176.482 1140.71 Q173.426 1136.1 173.426 1127.37 Q173.426 1118.62 176.482 1114.04 Q179.56 1109.43 185.37 1109.43 Z" fill="#000000" fill-rule="nonzero" fill-opacity="1" /><path clip-path="url(#clip890)" d="M233.704 1119.16 L223.125 1129.78 L233.704 1140.36 L230.949 1143.16 L220.324 1132.54 L209.699 1143.16 L206.968 1140.36 L217.523 1129.78 L206.968 1119.16 L209.699 1116.35 L220.324 1126.98 L230.949 1116.35 L233.704 1119.16 Z" fill="#000000" fill-rule="nonzero" fill-opacity="1" /><path clip-path="url(#clip890)" d="M246.065 1140.68 L253.703 1140.68 L253.703 1114.32 L245.393 1115.98 L245.393 1111.73 L253.657 1110.06 L258.333 1110.06 L258.333 1140.68 L265.972 1140.68 L265.972 1144.62 L246.065 1144.62 L246.065 1140.68 Z" fill="#000000" fill-rule="nonzero" fill-opacity="1" /><path clip-path="url(#clip890)" d="M285.416 1113.14 Q281.805 1113.14 279.976 1116.7 Q278.171 1120.24 278.171 1127.37 Q278.171 1134.48 279.976 1138.04 Q281.805 1141.59 285.416 1141.59 Q289.05 1141.59 290.856 1138.04 Q292.685 1134.48 292.685 1127.37 Q292.685 1120.24 290.856 1116.7 Q289.05 1113.14 285.416 1113.14 M285.416 1109.43 Q291.226 1109.43 294.282 1114.04 Q297.361 1118.62 297.361 1127.37 Q297.361 1136.1 294.282 1140.71 Q291.226 1145.29 285.416 1145.29 Q279.606 1145.29 276.527 1140.71 Q273.472 1136.1 273.472 1127.37 Q273.472 1118.62 276.527 1114.04 Q279.606 1109.43 285.416 1109.43 Z" fill="#000000" fill-rule="nonzero" fill-opacity="1" /><path clip-path="url(#clip890)" d="M299.166 1116.62 L299.166 1113.16 Q300.596 1113.84 302.063 1114.2 Q303.53 1114.56 304.94 1114.56 Q308.702 1114.56 310.676 1112.04 Q312.67 1109.5 312.952 1104.34 Q311.861 1105.96 310.187 1106.83 Q308.514 1107.69 306.482 1107.69 Q302.269 1107.69 299.806 1105.15 Q297.361 1102.59 297.361 1098.17 Q297.361 1093.85 299.918 1091.23 Q302.476 1088.62 306.727 1088.62 Q311.598 1088.62 314.156 1092.36 Q316.733 1096.09 316.733 1103.2 Q316.733 1109.84 313.573 1113.8 Q310.432 1117.75 305.109 1117.75 Q303.68 1117.75 302.213 1117.47 Q300.746 1117.19 299.166 1116.62 M306.727 1104.72 Q309.285 1104.72 310.771 1102.97 Q312.275 1101.22 312.275 1098.17 Q312.275 1095.15 310.771 1093.4 Q309.285 1091.63 306.727 1091.63 Q304.169 1091.63 302.664 1093.4 Q301.179 1095.15 301.179 1098.17 Q301.179 1101.22 302.664 1102.97 Q304.169 1104.72 306.727 1104.72 Z" fill="#000000" fill-rule="nonzero" fill-opacity="1" /><path clip-path="url(#clip890)" d="M100.788 880.726 L108.426 880.726 L108.426 854.361 L100.116 856.027 L100.116 851.768 L108.38 850.101 L113.056 850.101 L113.056 880.726 L120.695 880.726 L120.695 884.661 L100.788 884.661 L100.788 880.726 Z" fill="#000000" fill-rule="nonzero" fill-opacity="1" /><path clip-path="url(#clip890)" d="M130.139 878.782 L135.023 878.782 L135.023 884.661 L130.139 884.661 L130.139 878.782 Z" fill="#000000" fill-rule="nonzero" fill-opacity="1" /><path clip-path="url(#clip890)" d="M145.255 850.101 L163.611 850.101 L163.611 854.036 L149.537 854.036 L149.537 862.509 Q150.556 862.161 151.574 861.999 Q152.593 861.814 153.611 861.814 Q159.398 861.814 162.778 864.985 Q166.158 868.157 166.158 873.573 Q166.158 879.152 162.685 882.254 Q159.213 885.333 152.894 885.333 Q150.718 885.333 148.449 884.962 Q146.204 884.592 143.797 883.851 L143.797 879.152 Q145.88 880.286 148.102 880.842 Q150.324 881.397 152.801 881.397 Q156.806 881.397 159.144 879.291 Q161.482 877.184 161.482 873.573 Q161.482 869.962 159.144 867.856 Q156.806 865.749 152.801 865.749 Q150.926 865.749 149.051 866.166 Q147.199 866.583 145.255 867.462 L145.255 850.101 Z" fill="#000000" fill-rule="nonzero" fill-opacity="1" /><path clip-path="url(#clip890)" d="M185.37 853.18 Q181.759 853.18 179.931 856.745 Q178.125 860.286 178.125 867.416 Q178.125 874.522 179.931 878.087 Q181.759 881.629 185.37 881.629 Q189.005 881.629 190.81 878.087 Q192.639 874.522 192.639 867.416 Q192.639 860.286 190.81 856.745 Q189.005 853.18 185.37 853.18 M185.37 849.476 Q191.181 849.476 194.236 854.083 Q197.315 858.666 197.315 867.416 Q197.315 876.143 194.236 880.749 Q191.181 885.333 185.37 885.333 Q179.56 885.333 176.482 880.749 Q173.426 876.143 173.426 867.416 Q173.426 858.666 176.482 854.083 Q179.56 849.476 185.37 849.476 Z" fill="#000000" fill-rule="nonzero" fill-opacity="1" /><path clip-path="url(#clip890)" d="M233.704 859.198 L223.125 869.823 L233.704 880.402 L230.949 883.203 L220.324 872.578 L209.699 883.203 L206.968 880.402 L217.523 869.823 L206.968 859.198 L209.699 856.398 L220.324 867.022 L230.949 856.398 L233.704 859.198 Z" fill="#000000" fill-rule="nonzero" fill-opacity="1" /><path clip-path="url(#clip890)" d="M246.065 880.726 L253.703 880.726 L253.703 854.361 L245.393 856.027 L245.393 851.768 L253.657 850.101 L258.333 850.101 L258.333 880.726 L265.972 880.726 L265.972 884.661 L246.065 884.661 L246.065 880.726 Z" fill="#000000" fill-rule="nonzero" fill-opacity="1" /><path clip-path="url(#clip890)" d="M285.416 853.18 Q281.805 853.18 279.976 856.745 Q278.171 860.286 278.171 867.416 Q278.171 874.522 279.976 878.087 Q281.805 881.629 285.416 881.629 Q289.05 881.629 290.856 878.087 Q292.685 874.522 292.685 867.416 Q292.685 860.286 290.856 856.745 Q289.05 853.18 285.416 853.18 M285.416 849.476 Q291.226 849.476 294.282 854.083 Q297.361 858.666 297.361 867.416 Q297.361 876.143 294.282 880.749 Q291.226 885.333 285.416 885.333 Q279.606 885.333 276.527 880.749 Q273.472 876.143 273.472 867.416 Q273.472 858.666 276.527 854.083 Q279.606 849.476 285.416 849.476 Z" fill="#000000" fill-rule="nonzero" fill-opacity="1" /><path clip-path="url(#clip890)" d="M299.166 856.668 L299.166 853.207 Q300.596 853.884 302.063 854.242 Q303.53 854.599 304.94 854.599 Q308.702 854.599 310.676 852.079 Q312.67 849.54 312.952 844.386 Q311.861 846.004 310.187 846.869 Q308.514 847.734 306.482 847.734 Q302.269 847.734 299.806 845.195 Q297.361 842.637 297.361 838.217 Q297.361 833.892 299.918 831.277 Q302.476 828.663 306.727 828.663 Q311.598 828.663 314.156 832.406 Q316.733 836.13 316.733 843.239 Q316.733 849.878 313.573 853.847 Q310.432 857.796 305.109 857.796 Q303.68 857.796 302.213 857.514 Q300.746 857.232 299.166 856.668 M306.727 844.763 Q309.285 844.763 310.771 843.013 Q312.275 841.264 312.275 838.217 Q312.275 835.189 310.771 833.44 Q309.285 831.672 306.727 831.672 Q304.169 831.672 302.664 833.44 Q301.179 835.189 301.179 838.217 Q301.179 841.264 302.664 843.013 Q304.169 844.763 306.727 844.763 Z" fill="#000000" fill-rule="nonzero" fill-opacity="1" /><path clip-path="url(#clip890)" d="M104.005 620.769 L120.324 620.769 L120.324 624.704 L98.3802 624.704 L98.3802 620.769 Q101.042 618.014 105.625 613.385 Q110.232 608.732 111.412 607.389 Q113.658 604.866 114.537 603.13 Q115.44 601.371 115.44 599.681 Q115.44 596.927 113.496 595.19 Q111.575 593.454 108.473 593.454 Q106.274 593.454 103.82 594.218 Q101.389 594.982 98.6116 596.533 L98.6116 591.811 Q101.436 590.677 103.889 590.098 Q106.343 589.519 108.38 589.519 Q113.75 589.519 116.945 592.204 Q120.139 594.889 120.139 599.38 Q120.139 601.51 119.329 603.431 Q118.542 605.329 116.436 607.922 Q115.857 608.593 112.755 611.811 Q109.653 615.005 104.005 620.769 Z" fill="#000000" fill-rule="nonzero" fill-opacity="1" /><path clip-path="url(#clip890)" d="M130.139 618.825 L135.023 618.825 L135.023 624.704 L130.139 624.704 L130.139 618.825 Z" fill="#000000" fill-rule="nonzero" fill-opacity="1" /><path clip-path="url(#clip890)" d="M155.209 593.223 Q151.597 593.223 149.769 596.788 Q147.963 600.329 147.963 607.459 Q147.963 614.565 149.769 618.13 Q151.597 621.672 155.209 621.672 Q158.843 621.672 160.648 618.13 Q162.477 614.565 162.477 607.459 Q162.477 600.329 160.648 596.788 Q158.843 593.223 155.209 593.223 M155.209 589.519 Q161.019 589.519 164.074 594.126 Q167.153 598.709 167.153 607.459 Q167.153 616.186 164.074 620.792 Q161.019 625.375 155.209 625.375 Q149.398 625.375 146.32 620.792 Q143.264 616.186 143.264 607.459 Q143.264 598.709 146.32 594.126 Q149.398 589.519 155.209 589.519 Z" fill="#000000" fill-rule="nonzero" fill-opacity="1" /><path clip-path="url(#clip890)" d="M185.37 593.223 Q181.759 593.223 179.931 596.788 Q178.125 600.329 178.125 607.459 Q178.125 614.565 179.931 618.13 Q181.759 621.672 185.37 621.672 Q189.005 621.672 190.81 618.13 Q192.639 614.565 192.639 607.459 Q192.639 600.329 190.81 596.788 Q189.005 593.223 185.37 593.223 M185.37 589.519 Q191.181 589.519 194.236 594.126 Q197.315 598.709 197.315 607.459 Q197.315 616.186 194.236 620.792 Q191.181 625.375 185.37 625.375 Q179.56 625.375 176.482 620.792 Q173.426 616.186 173.426 607.459 Q173.426 598.709 176.482 594.126 Q179.56 589.519 185.37 589.519 Z" fill="#000000" fill-rule="nonzero" fill-opacity="1" /><path clip-path="url(#clip890)" d="M233.704 599.241 L223.125 609.866 L233.704 620.445 L230.949 623.246 L220.324 612.621 L209.699 623.246 L206.968 620.445 L217.523 609.866 L206.968 599.241 L209.699 596.44 L220.324 607.065 L230.949 596.44 L233.704 599.241 Z" fill="#000000" fill-rule="nonzero" fill-opacity="1" /><path clip-path="url(#clip890)" d="M246.065 620.769 L253.703 620.769 L253.703 594.403 L245.393 596.07 L245.393 591.811 L253.657 590.144 L258.333 590.144 L258.333 620.769 L265.972 620.769 L265.972 624.704 L246.065 624.704 L246.065 620.769 Z" fill="#000000" fill-rule="nonzero" fill-opacity="1" /><path clip-path="url(#clip890)" d="M285.416 593.223 Q281.805 593.223 279.976 596.788 Q278.171 600.329 278.171 607.459 Q278.171 614.565 279.976 618.13 Q281.805 621.672 285.416 621.672 Q289.05 621.672 290.856 618.13 Q292.685 614.565 292.685 607.459 Q292.685 600.329 290.856 596.788 Q289.05 593.223 285.416 593.223 M285.416 589.519 Q291.226 589.519 294.282 594.126 Q297.361 598.709 297.361 607.459 Q297.361 616.186 294.282 620.792 Q291.226 625.375 285.416 625.375 Q279.606 625.375 276.527 620.792 Q273.472 616.186 273.472 607.459 Q273.472 598.709 276.527 594.126 Q279.606 589.519 285.416 589.519 Z" fill="#000000" fill-rule="nonzero" fill-opacity="1" /><path clip-path="url(#clip890)" d="M299.166 596.711 L299.166 593.25 Q300.596 593.927 302.063 594.285 Q303.53 594.642 304.94 594.642 Q308.702 594.642 310.676 592.122 Q312.67 589.583 312.952 584.429 Q311.861 586.047 310.187 586.912 Q308.514 587.777 306.482 587.777 Q302.269 587.777 299.806 585.238 Q297.361 582.68 297.361 578.26 Q297.361 573.934 299.918 571.32 Q302.476 568.706 306.727 568.706 Q311.598 568.706 314.156 572.449 Q316.733 576.173 316.733 583.282 Q316.733 589.921 313.573 593.89 Q310.432 597.839 305.109 597.839 Q303.68 597.839 302.213 597.557 Q300.746 597.275 299.166 596.711 M306.727 584.805 Q309.285 584.805 310.771 583.056 Q312.275 581.307 312.275 578.26 Q312.275 575.232 310.771 573.483 Q309.285 571.715 306.727 571.715 Q304.169 571.715 302.664 573.483 Q301.179 575.232 301.179 578.26 Q301.179 581.307 302.664 583.056 Q304.169 584.805 306.727 584.805 Z" fill="#000000" fill-rule="nonzero" fill-opacity="1" /><path clip-path="url(#clip890)" d="M104.005 360.812 L120.324 360.812 L120.324 364.747 L98.3802 364.747 L98.3802 360.812 Q101.042 358.057 105.625 353.428 Q110.232 348.775 111.412 347.432 Q113.658 344.909 114.537 343.173 Q115.44 341.414 115.44 339.724 Q115.44 336.969 113.496 335.233 Q111.575 333.497 108.473 333.497 Q106.274 333.497 103.82 334.261 Q101.389 335.025 98.6116 336.576 L98.6116 331.854 Q101.436 330.719 103.889 330.141 Q106.343 329.562 108.38 329.562 Q113.75 329.562 116.945 332.247 Q120.139 334.932 120.139 339.423 Q120.139 341.553 119.329 343.474 Q118.542 345.372 116.436 347.965 Q115.857 348.636 112.755 351.854 Q109.653 355.048 104.005 360.812 Z" fill="#000000" fill-rule="nonzero" fill-opacity="1" /><path clip-path="url(#clip890)" d="M130.139 358.867 L135.023 358.867 L135.023 364.747 L130.139 364.747 L130.139 358.867 Z" fill="#000000" fill-rule="nonzero" fill-opacity="1" /><path clip-path="url(#clip890)" d="M145.255 330.187 L163.611 330.187 L163.611 334.122 L149.537 334.122 L149.537 342.594 Q150.556 342.247 151.574 342.085 Q152.593 341.9 153.611 341.9 Q159.398 341.9 162.778 345.071 Q166.158 348.242 166.158 353.659 Q166.158 359.238 162.685 362.34 Q159.213 365.418 152.894 365.418 Q150.718 365.418 148.449 365.048 Q146.204 364.678 143.797 363.937 L143.797 359.238 Q145.88 360.372 148.102 360.928 Q150.324 361.483 152.801 361.483 Q156.806 361.483 159.144 359.377 Q161.482 357.27 161.482 353.659 Q161.482 350.048 159.144 347.942 Q156.806 345.835 152.801 345.835 Q150.926 345.835 149.051 346.252 Q147.199 346.668 145.255 347.548 L145.255 330.187 Z" fill="#000000" fill-rule="nonzero" fill-opacity="1" /><path clip-path="url(#clip890)" d="M185.37 333.266 Q181.759 333.266 179.931 336.83 Q178.125 340.372 178.125 347.502 Q178.125 354.608 179.931 358.173 Q181.759 361.715 185.37 361.715 Q189.005 361.715 190.81 358.173 Q192.639 354.608 192.639 347.502 Q192.639 340.372 190.81 336.83 Q189.005 333.266 185.37 333.266 M185.37 329.562 Q191.181 329.562 194.236 334.168 Q197.315 338.752 197.315 347.502 Q197.315 356.229 194.236 360.835 Q191.181 365.418 185.37 365.418 Q179.56 365.418 176.482 360.835 Q173.426 356.229 173.426 347.502 Q173.426 338.752 176.482 334.168 Q179.56 329.562 185.37 329.562 Z" fill="#000000" fill-rule="nonzero" fill-opacity="1" /><path clip-path="url(#clip890)" d="M233.704 339.284 L223.125 349.909 L233.704 360.488 L230.949 363.289 L220.324 352.664 L209.699 363.289 L206.968 360.488 L217.523 349.909 L206.968 339.284 L209.699 336.483 L220.324 347.108 L230.949 336.483 L233.704 339.284 Z" fill="#000000" fill-rule="nonzero" fill-opacity="1" /><path clip-path="url(#clip890)" d="M246.065 360.812 L253.703 360.812 L253.703 334.446 L245.393 336.113 L245.393 331.854 L253.657 330.187 L258.333 330.187 L258.333 360.812 L265.972 360.812 L265.972 364.747 L246.065 364.747 L246.065 360.812 Z" fill="#000000" fill-rule="nonzero" fill-opacity="1" /><path clip-path="url(#clip890)" d="M285.416 333.266 Q281.805 333.266 279.976 336.83 Q278.171 340.372 278.171 347.502 Q278.171 354.608 279.976 358.173 Q281.805 361.715 285.416 361.715 Q289.05 361.715 290.856 358.173 Q292.685 354.608 292.685 347.502 Q292.685 340.372 290.856 336.83 Q289.05 333.266 285.416 333.266 M285.416 329.562 Q291.226 329.562 294.282 334.168 Q297.361 338.752 297.361 347.502 Q297.361 356.229 294.282 360.835 Q291.226 365.418 285.416 365.418 Q279.606 365.418 276.527 360.835 Q273.472 356.229 273.472 347.502 Q273.472 338.752 276.527 334.168 Q279.606 329.562 285.416 329.562 Z" fill="#000000" fill-rule="nonzero" fill-opacity="1" /><path clip-path="url(#clip890)" d="M299.166 336.754 L299.166 333.293 Q300.596 333.97 302.063 334.327 Q303.53 334.685 304.94 334.685 Q308.702 334.685 310.676 332.164 Q312.67 329.625 312.952 324.472 Q311.861 326.09 310.187 326.955 Q308.514 327.82 306.482 327.82 Q302.269 327.82 299.806 325.281 Q297.361 322.723 297.361 318.303 Q297.361 313.977 299.918 311.363 Q302.476 308.749 306.727 308.749 Q311.598 308.749 314.156 312.492 Q316.733 316.215 316.733 323.325 Q316.733 329.964 313.573 333.932 Q310.432 337.882 305.109 337.882 Q303.68 337.882 302.213 337.6 Q300.746 337.318 299.166 336.754 M306.727 324.848 Q309.285 324.848 310.771 323.099 Q312.275 321.35 312.275 318.303 Q312.275 315.275 310.771 313.526 Q309.285 311.758 306.727 311.758 Q304.169 311.758 302.664 313.526 Q301.179 315.275 301.179 318.303 Q301.179 321.35 302.664 323.099 Q304.169 324.848 306.727 324.848 Z" fill="#000000" fill-rule="nonzero" fill-opacity="1" /><path clip-path="url(#clip890)" d="M114.144 86.1557 Q117.5 86.8733 119.375 89.1418 Q121.274 91.4103 121.274 94.7436 Q121.274 99.8593 117.755 102.66 Q114.237 105.461 107.755 105.461 Q105.579 105.461 103.264 105.021 Q100.973 104.605 98.519 103.748 L98.519 99.2344 Q100.463 100.369 102.778 100.947 Q105.093 101.526 107.616 101.526 Q112.014 101.526 114.306 99.7899 Q116.621 98.0538 116.621 94.7436 Q116.621 91.6881 114.468 89.9751 Q112.338 88.239 108.519 88.239 L104.491 88.239 L104.491 84.3965 L108.704 84.3965 Q112.153 84.3965 113.982 83.0307 Q115.811 81.6419 115.811 79.0493 Q115.811 76.3873 113.912 74.9752 Q112.037 73.54 108.519 73.54 Q106.598 73.54 104.399 73.9567 Q102.2 74.3734 99.5607 75.253 L99.5607 71.0864 Q102.223 70.3456 104.538 69.9752 Q106.875 69.6049 108.936 69.6049 Q114.26 69.6049 117.362 72.0354 Q120.463 74.4428 120.463 78.5632 Q120.463 81.4335 118.82 83.4243 Q117.176 85.3918 114.144 86.1557 Z" fill="#000000" fill-rule="nonzero" fill-opacity="1" /><path clip-path="url(#clip890)" d="M130.139 98.9103 L135.023 98.9103 L135.023 104.79 L130.139 104.79 L130.139 98.9103 Z" fill="#000000" fill-rule="nonzero" fill-opacity="1" /><path clip-path="url(#clip890)" d="M155.209 73.3086 Q151.597 73.3086 149.769 76.8734 Q147.963 80.415 147.963 87.5446 Q147.963 94.651 149.769 98.2158 Q151.597 101.757 155.209 101.757 Q158.843 101.757 160.648 98.2158 Q162.477 94.651 162.477 87.5446 Q162.477 80.415 160.648 76.8734 Q158.843 73.3086 155.209 73.3086 M155.209 69.6049 Q161.019 69.6049 164.074 74.2113 Q167.153 78.7946 167.153 87.5446 Q167.153 96.2714 164.074 100.878 Q161.019 105.461 155.209 105.461 Q149.398 105.461 146.32 100.878 Q143.264 96.2714 143.264 87.5446 Q143.264 78.7946 146.32 74.2113 Q149.398 69.6049 155.209 69.6049 Z" fill="#000000" fill-rule="nonzero" fill-opacity="1" /><path clip-path="url(#clip890)" d="M185.37 73.3086 Q181.759 73.3086 179.931 76.8734 Q178.125 80.415 178.125 87.5446 Q178.125 94.651 179.931 98.2158 Q181.759 101.757 185.37 101.757 Q189.005 101.757 190.81 98.2158 Q192.639 94.651 192.639 87.5446 Q192.639 80.415 190.81 76.8734 Q189.005 73.3086 185.37 73.3086 M185.37 69.6049 Q191.181 69.6049 194.236 74.2113 Q197.315 78.7946 197.315 87.5446 Q197.315 96.2714 194.236 100.878 Q191.181 105.461 185.37 105.461 Q179.56 105.461 176.482 100.878 Q173.426 96.2714 173.426 87.5446 Q173.426 78.7946 176.482 74.2113 Q179.56 69.6049 185.37 69.6049 Z" fill="#000000" fill-rule="nonzero" fill-opacity="1" /><path clip-path="url(#clip890)" d="M233.704 79.327 L223.125 89.952 L233.704 100.531 L230.949 103.332 L220.324 92.7066 L209.699 103.332 L206.968 100.531 L217.523 89.952 L206.968 79.327 L209.699 76.5261 L220.324 87.1511 L230.949 76.5261 L233.704 79.327 Z" fill="#000000" fill-rule="nonzero" fill-opacity="1" /><path clip-path="url(#clip890)" d="M246.065 100.855 L253.703 100.855 L253.703 74.4891 L245.393 76.1558 L245.393 71.8965 L253.657 70.2299 L258.333 70.2299 L258.333 100.855 L265.972 100.855 L265.972 104.79 L246.065 104.79 L246.065 100.855 Z" fill="#000000" fill-rule="nonzero" fill-opacity="1" /><path clip-path="url(#clip890)" d="M285.416 73.3086 Q281.805 73.3086 279.976 76.8734 Q278.171 80.415 278.171 87.5446 Q278.171 94.651 279.976 98.2158 Q281.805 101.757 285.416 101.757 Q289.05 101.757 290.856 98.2158 Q292.685 94.651 292.685 87.5446 Q292.685 80.415 290.856 76.8734 Q289.05 73.3086 285.416 73.3086 M285.416 69.6049 Q291.226 69.6049 294.282 74.2113 Q297.361 78.7946 297.361 87.5446 Q297.361 96.2714 294.282 100.878 Q291.226 105.461 285.416 105.461 Q279.606 105.461 276.527 100.878 Q273.472 96.2714 273.472 87.5446 Q273.472 78.7946 276.527 74.2113 Q279.606 69.6049 285.416 69.6049 Z" fill="#000000" fill-rule="nonzero" fill-opacity="1" /><path clip-path="url(#clip890)" d="M299.166 76.7964 L299.166 73.3358 Q300.596 74.0129 302.063 74.3702 Q303.53 74.7276 304.94 74.7276 Q308.702 74.7276 310.676 72.2073 Q312.67 69.6683 312.952 64.515 Q311.861 66.1324 310.187 66.9976 Q308.514 67.8627 306.482 67.8627 Q302.269 67.8627 299.806 65.3237 Q297.361 62.7658 297.361 58.346 Q297.361 54.0202 299.918 51.4059 Q302.476 48.7917 306.727 48.7917 Q311.598 48.7917 314.156 52.5344 Q316.733 56.2584 316.733 63.3677 Q316.733 70.0068 313.573 73.9753 Q310.432 77.9249 305.109 77.9249 Q303.68 77.9249 302.213 77.6428 Q300.746 77.3607 299.166 76.7964 M306.727 64.8911 Q309.285 64.8911 310.771 63.142 Q312.275 61.3929 312.275 58.346 Q312.275 55.318 310.771 53.5688 Q309.285 51.8009 306.727 51.8009 Q304.169 51.8009 302.664 53.5688 Q301.179 55.318 301.179 58.346 Q301.179 61.3929 302.664 63.142 Q304.169 64.8911 306.727 64.8911 Z" fill="#000000" fill-rule="nonzero" fill-opacity="1" /><path clip-path="url(#clip890)" d="M-9.64527 840.632 L0.4762 840.632 L0.4762 828.569 L5.02768 828.569 L5.02768 840.632 L24.3794 840.632 Q28.7399 840.632 29.9813 839.454 Q31.2226 838.245 31.2226 834.584 L31.2226 828.569 L36.1242 828.569 L36.1242 834.584 Q36.1242 841.364 33.6097 843.942 Q31.0634 846.52 24.3794 846.52 L5.02768 846.52 L5.02768 850.817 L0.4762 850.817 L0.4762 846.52 L-9.64527 846.52 L-9.64527 840.632 Z" fill="#000000" fill-rule="nonzero" fill-opacity="1" /><path clip-path="url(#clip890)" d="M-11.3958 789.738 L-11.3958 784.327 L42.1716 800.878 L42.1716 806.289 L-11.3958 789.738 Z" fill="#000000" fill-rule="nonzero" fill-opacity="1" /><path clip-path="url(#clip890)" d="M14.6081 727.831 L36.1242 727.831 L36.1242 733.688 L14.799 733.688 Q9.7383 733.688 7.22385 735.661 Q4.7094 737.635 4.7094 741.581 Q4.7094 746.324 7.73311 749.061 Q10.7568 751.798 15.9767 751.798 L36.1242 751.798 L36.1242 757.687 L0.4762 757.687 L0.4762 751.798 L6.01437 751.798 Q2.79968 749.698 1.20826 746.865 Q-0.38317 744 -0.38317 740.276 Q-0.38317 734.133 3.43625 730.982 Q7.22385 727.831 14.6081 727.831 Z" fill="#000000" fill-rule="nonzero" fill-opacity="1" /><path clip-path="url(#clip890)" d="M1.52654 693.425 L7.06471 693.425 Q5.79157 695.907 5.15499 698.581 Q4.51842 701.255 4.51842 704.119 Q4.51842 708.48 5.85522 710.676 Q7.19202 712.84 9.86562 712.84 Q11.9026 712.84 13.0803 711.281 Q14.2261 709.721 15.2765 705.01 L15.7221 703.005 Q17.0589 696.767 19.5097 694.157 Q21.9286 691.515 26.2891 691.515 Q31.2544 691.515 34.1508 695.462 Q37.0472 699.377 37.0472 706.252 Q37.0472 709.116 36.4743 712.235 Q35.9332 715.323 34.8192 718.76 L28.7718 718.76 Q30.4587 715.514 31.318 712.363 Q32.1456 709.212 32.1456 706.124 Q32.1456 701.987 30.7451 699.759 Q29.3129 697.531 26.7347 697.531 Q24.3476 697.531 23.0745 699.154 Q21.8013 700.745 20.6237 706.188 L20.1462 708.225 Q19.0004 713.668 16.6451 716.087 Q14.258 718.506 10.1202 718.506 Q5.09134 718.506 2.35408 714.941 Q-0.38317 711.376 -0.38317 704.819 Q-0.38317 701.573 0.0942579 698.708 Q0.571686 695.844 1.52654 693.425 Z" fill="#000000" fill-rule="nonzero" fill-opacity="1" /><path clip-path="url(#clip891)" d="M869.668 1454.11 L867.93 1454.07 L864.924 1454.04 L860.766 1454 L855.607 1453.96 L849.633 1453.92 L843.053 1453.89 L836.096 1453.85 L828.998 1453.81 L821.996 1453.77 L815.322 1453.74 L809.193 1453.7 L803.809 1453.66 L799.346 1453.62 L795.952 1453.59 L793.75 1453.55 L792.829 1453.51 L793.25 1453.47 L795.041 1453.44 L798.203 1453.4 L802.705 1453.36 L808.492 1453.32 L815.483 1453.29 L823.575 1453.25 L832.647 1453.21 L842.562 1453.17 L853.173 1453.13 L864.328 1453.1 L875.872 1453.06 L887.656 1453.02 L899.536 1452.98 L911.381 1452.95 L923.073 1452.91 L934.51 1452.87 L945.603 1452.83 L956.278 1452.8 L966.471 1452.76 L976.125 1452.72 L985.185 1452.68 L993.597 1452.65 L1001.3 1452.61 L1008.22 1452.57 L1014.27 1452.53 L1019.37 1452.5 L1023.42 1452.46 L1026.3 1452.42 L1027.9 1452.38 L1028.13 1452.35 L1026.88 1452.31 L1024.09 1452.27 L1019.71 1452.23 L1013.71 1452.2 L1006.12 1452.16 L997 1452.12 L986.446 1452.08 L974.594 1452.05 L961.616 1452.01 L947.711 1451.97 L933.101 1451.93 L918.021 1451.9 L902.711 1451.86 L887.407 1451.82 L872.332 1451.78 L857.693 1451.75 L843.67 1451.71 L830.413 1451.67 L818.04 1451.63 L806.638 1451.6 L796.259 1451.56 L786.926 1451.52 L778.633 1451.48 L771.351 1451.45 L765.031 1451.41 L759.61 1451.37 L755.013 1451.33 L751.159 1451.3 L747.965 1451.26 L745.348 1451.22 L743.229 1451.18 L741.534 1451.14 L740.196 1451.11 L739.156 1451.07 L738.36 1451.03 L737.767 1450.99 L737.342 1450.96 L737.057 1450.92 L736.893 1450.88 L736.839 1450.84 L736.89 1450.81 L737.049 1450.77 L737.324 1450.73 L737.732 1450.69 L738.295 1450.66 L739.043 1450.62 L740.011 1450.58 L741.239 1450.54 L742.775 1450.51 L744.668 1450.47 L746.969 1450.43 L749.733 1450.39 L753.007 1450.36 L756.837 1450.32 L761.259 1450.28 L766.296 1450.24 L771.955 1450.21 L778.223 1450.17 L785.065 1450.13 L792.419 1450.09 L800.2 1450.06 L808.291 1450.02 L816.555 1449.98 L824.829 1449.94 L832.935 1449.91 L840.68 1449.87 L847.87 1449.83 L854.311 1449.79 L859.822 1449.76 L864.245 1449.72 L867.445 1449.68 L869.326 1449.64 L602.443 1449.64 L604.324 1449.68 L607.525 1449.72 L611.947 1449.76 L617.458 1449.79 L623.899 1449.83 L631.089 1449.87 L638.834 1449.91 L646.94 1449.94 L655.214 1449.98 L663.478 1450.02 L671.57 1450.06 L679.35 1450.09 L686.704 1450.13 L693.546 1450.17 L699.814 1450.21 L705.473 1450.24 L710.51 1450.28 L714.932 1450.32 L718.762 1450.36 L722.037 1450.39 L724.8 1450.43 L727.101 1450.47 L728.994 1450.51 L730.53 1450.54 L731.758 1450.58 L732.726 1450.62 L733.474 1450.66 L734.037 1450.69 L734.445 1450.73 L734.72 1450.77 L734.879 1450.81 L734.93 1450.84 L734.876 1450.88 L734.712 1450.92 L734.427 1450.96 L734.002 1450.99 L733.409 1451.03 L732.614 1451.07 L731.573 1451.11 L730.235 1451.14 L728.54 1451.18 L726.421 1451.22 L723.805 1451.26 L720.61 1451.3 L716.756 1451.33 L712.159 1451.37 L706.738 1451.41 L700.418 1451.45 L693.136 1451.48 L684.843 1451.52 L675.51 1451.56 L665.131 1451.6 L653.729 1451.63 L641.357 1451.67 L628.099 1451.71 L614.076 1451.75 L599.437 1451.78 L584.362 1451.82 L569.058 1451.86 L553.748 1451.9 L538.668 1451.93 L524.058 1451.97 L510.153 1452.01 L497.175 1452.05 L485.323 1452.08 L474.769 1452.12 L465.648 1452.16 L458.06 1452.2 L452.063 1452.23 L447.676 1452.27 L444.885 1452.31 L443.639 1452.35 L443.865 1452.38 L445.471 1452.42 L448.351 1452.46 L452.396 1452.5 L457.497 1452.53 L463.553 1452.57 L470.472 1452.61 L478.173 1452.65 L486.584 1452.68 L495.644 1452.72 L505.298 1452.76 L515.491 1452.8 L526.166 1452.83 L537.259 1452.87 L548.696 1452.91 L560.388 1452.95 L572.233 1452.98 L584.113 1453.02 L595.897 1453.06 L607.441 1453.1 L618.596 1453.13 L629.207 1453.17 L639.122 1453.21 L648.194 1453.25 L656.286 1453.29 L663.277 1453.32 L669.064 1453.36 L673.566 1453.4 L676.728 1453.44 L678.519 1453.47 L678.94 1453.51 L678.019 1453.55 L675.817 1453.59 L672.424 1453.62 L667.96 1453.66 L662.576 1453.7 L656.447 1453.74 L649.773 1453.77 L642.771 1453.81 L635.673 1453.85 L628.716 1453.89 L622.136 1453.92 L616.162 1453.96 L611.003 1454 L606.845 1454.04 L603.839 1454.07 L602.101 1454.11 L869.668 1454.11  Z" fill="#009af9" fill-rule="evenodd" fill-opacity="1"/>
<polyline clip-path="url(#clip891)" style="stroke:#000000; stroke-linecap:round; stroke-linejoin:round; stroke-width:4; stroke-opacity:1; fill:none" points="869.668,1454.11 867.93,1454.07 864.924,1454.04 860.766,1454 855.607,1453.96 849.633,1453.92 843.053,1453.89 836.096,1453.85 828.998,1453.81 821.996,1453.77 815.322,1453.74 809.193,1453.7 803.809,1453.66 799.346,1453.62 795.952,1453.59 793.75,1453.55 792.829,1453.51 793.25,1453.47 795.041,1453.44 798.203,1453.4 802.705,1453.36 808.492,1453.32 815.483,1453.29 823.575,1453.25 832.647,1453.21 842.562,1453.17 853.173,1453.13 864.328,1453.1 875.872,1453.06 887.656,1453.02 899.536,1452.98 911.381,1452.95 923.073,1452.91 934.51,1452.87 945.603,1452.83 956.278,1452.8 966.471,1452.76 976.125,1452.72 985.185,1452.68 993.597,1452.65 1001.3,1452.61 1008.22,1452.57 1014.27,1452.53 1019.37,1452.5 1023.42,1452.46 1026.3,1452.42 1027.9,1452.38 1028.13,1452.35 1026.88,1452.31 1024.09,1452.27 1019.71,1452.23 1013.71,1452.2 1006.12,1452.16 997,1452.12 986.446,1452.08 974.594,1452.05 961.616,1452.01 947.711,1451.97 933.101,1451.93 918.021,1451.9 902.711,1451.86 887.407,1451.82 872.332,1451.78 857.693,1451.75 843.67,1451.71 830.413,1451.67 818.04,1451.63 806.638,1451.6 796.259,1451.56 786.926,1451.52 778.633,1451.48 771.351,1451.45 765.031,1451.41 759.61,1451.37 755.013,1451.33 751.159,1451.3 747.965,1451.26 745.348,1451.22 743.229,1451.18 741.534,1451.14 740.196,1451.11 739.156,1451.07 738.36,1451.03 737.767,1450.99 737.342,1450.96 737.057,1450.92 736.893,1450.88 736.839,1450.84 736.89,1450.81 737.049,1450.77 737.324,1450.73 737.732,1450.69 738.295,1450.66 739.043,1450.62 740.011,1450.58 741.239,1450.54 742.775,1450.51 744.668,1450.47 746.969,1450.43 749.733,1450.39 753.007,1450.36 756.837,1450.32 761.259,1450.28 766.296,1450.24 771.955,1450.21 778.223,1450.17 785.065,1450.13 792.419,1450.09 800.2,1450.06 808.291,1450.02 816.555,1449.98 824.829,1449.94 832.935,1449.91 840.68,1449.87 847.87,1449.83 854.311,1449.79 859.822,1449.76 864.245,1449.72 867.445,1449.68 869.326,1449.64 602.443,1449.64 604.324,1449.68 607.525,1449.72 611.947,1449.76 617.458,1449.79 623.899,1449.83 631.089,1449.87 638.834,1449.91 646.94,1449.94 655.214,1449.98 663.478,1450.02 671.57,1450.06 679.35,1450.09 686.704,1450.13 693.546,1450.17 699.814,1450.21 705.473,1450.24 710.51,1450.28 714.932,1450.32 718.762,1450.36 722.037,1450.39 724.8,1450.43 727.101,1450.47 728.994,1450.51 730.53,1450.54 731.758,1450.58 732.726,1450.62 733.474,1450.66 734.037,1450.69 734.445,1450.73 734.72,1450.77 734.879,1450.81 734.93,1450.84 734.876,1450.88 734.712,1450.92 734.427,1450.96 734.002,1450.99 733.409,1451.03 732.614,1451.07 731.573,1451.11 730.235,1451.14 728.54,1451.18 726.421,1451.22 723.805,1451.26 720.61,1451.3 716.756,1451.33 712.159,1451.37 706.738,1451.41 700.418,1451.45 693.136,1451.48 684.843,1451.52 675.51,1451.56 665.131,1451.6 653.729,1451.63 641.357,1451.67 628.099,1451.71 614.076,1451.75 599.437,1451.78 584.362,1451.82 569.058,1451.86 553.748,1451.9 538.668,1451.93 524.058,1451.97 510.153,1452.01 497.175,1452.05 485.323,1452.08 474.769,1452.12 465.648,1452.16 458.06,1452.2 452.063,1452.23 447.676,1452.27 444.885,1452.31 443.639,1452.35 443.865,1452.38 445.471,1452.42 448.351,1452.46 452.396,1452.5 457.497,1452.53 463.553,1452.57 470.472,1452.61 478.173,1452.65 486.584,1452.68 495.644,1452.72 505.298,1452.76 515.491,1452.8 526.166,1452.83 537.259,1452.87 548.696,1452.91 560.388,1452.95 572.233,1452.98 584.113,1453.02 595.897,1453.06 607.441,1453.1 618.596,1453.13 629.207,1453.17 639.122,1453.21 648.194,1453.25 656.286,1453.29 663.277,1453.32 669.064,1453.36 673.566,1453.4 676.728,1453.44 678.519,1453.47 678.94,1453.51 678.019,1453.55 675.817,1453.59 672.424,1453.62 667.96,1453.66 662.576,1453.7 656.447,1453.74 649.773,1453.77 642.771,1453.81 635.673,1453.85 628.716,1453.89 622.136,1453.92 616.162,1453.96 611.003,1454 606.845,1454.04 603.839,1454.07 602.101,1454.11 869.668,1454.11 "/>
<path clip-path="url(#clip891)" d="M2047.85 377.53 L2049.69 376.23 L2050.73 374.93 L2050.99 373.631 L2050.47 372.331 L2049.2 371.031 L2047.2 369.731 L2044.52 368.431 L2041.19 367.131 L2037.27 365.832 L2032.82 364.532 L2027.9 363.232 L2022.58 361.932 L2016.92 360.632 L2011.01 359.332 L2004.93 358.033 L1998.73 356.733 L1992.51 355.433 L1986.33 354.133 L1980.27 352.833 L1974.4 351.534 L1968.77 350.234 L1963.45 348.934 L1958.49 347.634 L1953.94 346.334 L1949.83 345.034 L1946.19 343.735 L1943.06 342.435 L1940.43 341.135 L1938.32 339.835 L1936.74 338.535 L1935.66 337.235 L1935.07 335.936 L1934.95 334.636 L1935.27 333.336 L1935.98 332.036 L1937.05 330.736 L1938.43 329.436 L1940.06 328.137 L1941.89 326.837 L1943.87 325.537 L1945.92 324.237 L1948 322.937 L1950.03 321.637 L1951.98 320.338 L1953.76 319.038 L1955.35 317.738 L1956.67 316.438 L1957.69 315.138 L1958.36 313.839 L1958.65 312.539 L1958.53 311.239 L1957.97 309.939 L1956.95 308.639 L1560.54 308.639 L1559.52 309.939 L1558.96 311.239 L1558.84 312.539 L1559.13 313.839 L1559.8 315.138 L1560.82 316.438 L1562.14 317.738 L1563.72 319.038 L1565.51 320.338 L1567.45 321.637 L1569.49 322.937 L1571.57 324.237 L1573.62 325.537 L1575.6 326.837 L1577.43 328.137 L1579.06 329.436 L1580.44 330.736 L1581.51 332.036 L1582.22 333.336 L1582.54 334.636 L1582.42 335.936 L1581.83 337.235 L1580.75 338.535 L1579.16 339.835 L1577.06 341.135 L1574.43 342.435 L1571.3 343.735 L1567.66 345.034 L1563.55 346.334 L1558.99 347.634 L1554.04 348.934 L1548.72 350.234 L1543.09 351.534 L1537.22 352.833 L1531.16 354.133 L1524.98 355.433 L1518.76 356.733 L1512.56 358.033 L1506.47 359.332 L1500.57 360.632 L1494.91 361.932 L1489.59 363.232 L1484.67 364.532 L1480.22 365.832 L1476.3 367.131 L1472.97 368.431 L1470.29 369.731 L1468.29 371.031 L1467.02 372.331 L1466.5 373.631 L1466.76 374.93 L1467.8 376.23 L1469.64 377.53 L2047.85 377.53  Z" fill="#e26f46" fill-rule="evenodd" fill-opacity="1"/>
<polyline clip-path="url(#clip891)" style="stroke:#000000; stroke-linecap:round; stroke-linejoin:round; stroke-width:4; stroke-opacity:1; fill:none" points="2047.85,377.53 2049.69,376.23 2050.73,374.93 2050.99,373.631 2050.47,372.331 2049.2,371.031 2047.2,369.731 2044.52,368.431 2041.19,367.131 2037.27,365.832 2032.82,364.532 2027.9,363.232 2022.58,361.932 2016.92,360.632 2011.01,359.332 2004.93,358.033 1998.73,356.733 1992.51,355.433 1986.33,354.133 1980.27,352.833 1974.4,351.534 1968.77,350.234 1963.45,348.934 1958.49,347.634 1953.94,346.334 1949.83,345.034 1946.19,343.735 1943.06,342.435 1940.43,341.135 1938.32,339.835 1936.74,338.535 1935.66,337.235 1935.07,335.936 1934.95,334.636 1935.27,333.336 1935.98,332.036 1937.05,330.736 1938.43,329.436 1940.06,328.137 1941.89,326.837 1943.87,325.537 1945.92,324.237 1948,322.937 1950.03,321.637 1951.98,320.338 1953.76,319.038 1955.35,317.738 1956.67,316.438 1957.69,315.138 1958.36,313.839 1958.65,312.539 1958.53,311.239 1957.97,309.939 1956.95,308.639 1560.54,308.639 1559.52,309.939 1558.96,311.239 1558.84,312.539 1559.13,313.839 1559.8,315.138 1560.82,316.438 1562.14,317.738 1563.72,319.038 1565.51,320.338 1567.45,321.637 1569.49,322.937 1571.57,324.237 1573.62,325.537 1575.6,326.837 1577.43,328.137 1579.06,329.436 1580.44,330.736 1581.51,332.036 1582.22,333.336 1582.54,334.636 1582.42,335.936 1581.83,337.235 1580.75,338.535 1579.16,339.835 1577.06,341.135 1574.43,342.435 1571.3,343.735 1567.66,345.034 1563.55,346.334 1558.99,347.634 1554.04,348.934 1548.72,350.234 1543.09,351.534 1537.22,352.833 1531.16,354.133 1524.98,355.433 1518.76,356.733 1512.56,358.033 1506.47,359.332 1500.57,360.632 1494.91,361.932 1489.59,363.232 1484.67,364.532 1480.22,365.832 1476.3,367.131 1472.97,368.431 1470.29,369.731 1468.29,371.031 1467.02,372.331 1466.5,373.631 1466.76,374.93 1467.8,376.23 1469.64,377.53 2047.85,377.53 "/>
<path clip-path="url(#clip891)" d="M3050.33 128.175 L3057.35 127.746 L3063.19 127.316 L3067.78 126.886 L3071.1 126.457 L3073.12 126.027 L3073.85 125.597 L3073.31 125.168 L3071.56 124.738 L3068.67 124.309 L3064.71 123.879 L3059.8 123.449 L3054.05 123.02 L3047.59 122.59 L3040.53 122.161 L3033.02 121.731 L3025.19 121.301 L3017.15 120.872 L3009.03 120.442 L3000.92 120.012 L2992.91 119.583 L2985.09 119.153 L2977.51 118.724 L2970.22 118.294 L2963.23 117.864 L2956.57 117.435 L2950.23 117.005 L2944.2 116.576 L2938.44 116.146 L2932.93 115.716 L2927.63 115.287 L2922.49 114.857 L2917.47 114.427 L2912.53 113.998 L2907.62 113.568 L2902.72 113.139 L2897.8 112.709 L2892.83 112.279 L2887.81 111.85 L2882.72 111.42 L2877.57 110.991 L2872.37 110.561 L2867.14 110.131 L2861.9 109.702 L2856.67 109.272 L2851.49 108.842 L2846.39 108.413 L2841.4 107.983 L2836.55 107.554 L2831.88 107.124 L2827.42 106.694 L2823.19 106.265 L2819.22 105.835 L2815.54 105.405 L2812.16 104.976 L2809.09 104.546 L2806.36 104.117 L2803.96 103.687 L2801.91 103.257 L2800.22 102.828 L2798.88 102.398 L2797.9 101.969 L2797.28 101.539 L2797.02 101.109 L2797.11 100.68 L2797.57 100.25 L2798.39 99.8205 L2799.56 99.3908 L2801.08 98.9612 L2802.94 98.5316 L2805.15 98.102 L2807.68 97.6724 L2810.52 97.2428 L2813.67 96.8131 L2817.09 96.3835 L2820.77 95.9539 L2824.66 95.5243 L2828.75 95.0947 L2832.98 94.6651 L2837.32 94.2354 L2841.71 93.8058 L2846.1 93.3762 L2850.44 92.9466 L2854.67 92.517 L2858.72 92.0874 L2862.55 91.6577 L2866.09 91.2281 L2869.29 90.7985 L2872.09 90.3689 L2874.46 89.9393 L2876.35 89.5097 L2877.72 89.08 L2878.57 88.6504 L2878.86 88.2208 L2684.35 88.2208 L2684.64 88.6504 L2685.48 89.08 L2686.86 89.5097 L2688.75 89.9393 L2691.11 90.3689 L2693.92 90.7985 L2697.12 91.2281 L2700.66 91.6577 L2704.48 92.0874 L2708.54 92.517 L2712.77 92.9466 L2717.11 93.3762 L2721.5 93.8058 L2725.89 94.2354 L2730.23 94.6651 L2734.46 95.0947 L2738.54 95.5243 L2742.44 95.9539 L2746.12 96.3835 L2749.54 96.8131 L2752.68 97.2428 L2755.53 97.6724 L2758.06 98.102 L2760.27 98.5316 L2762.13 98.9612 L2763.65 99.3908 L2764.82 99.8205 L2765.64 100.25 L2766.09 100.68 L2766.19 101.109 L2765.93 101.539 L2765.31 101.969 L2764.33 102.398 L2762.99 102.828 L2761.29 103.257 L2759.25 103.687 L2756.85 104.117 L2754.12 104.546 L2751.05 104.976 L2747.67 105.405 L2743.98 105.835 L2740.02 106.265 L2735.79 106.694 L2731.33 107.124 L2726.66 107.554 L2721.81 107.983 L2716.82 108.413 L2711.72 108.842 L2706.54 109.272 L2701.31 109.702 L2696.07 110.131 L2690.84 110.561 L2685.64 110.991 L2680.49 111.42 L2675.4 111.85 L2670.38 112.279 L2665.41 112.709 L2660.48 113.139 L2655.58 113.568 L2650.68 113.998 L2645.74 114.427 L2640.72 114.857 L2635.58 115.287 L2630.27 115.716 L2624.77 116.146 L2619.01 116.576 L2612.98 117.005 L2606.64 117.435 L2599.98 117.864 L2592.99 118.294 L2585.7 118.724 L2578.12 119.153 L2570.3 119.583 L2562.29 120.012 L2554.18 120.442 L2546.06 120.872 L2538.02 121.301 L2530.18 121.731 L2522.68 122.161 L2515.62 122.59 L2509.16 123.02 L2503.41 123.449 L2498.5 123.879 L2494.54 124.309 L2491.65 124.738 L2489.89 125.168 L2489.36 125.597 L2490.09 126.027 L2492.11 126.457 L2495.42 126.886 L2500.02 127.316 L2505.86 127.746 L2512.87 128.175 L3050.33 128.175  Z" fill="#3da44d" fill-rule="evenodd" fill-opacity="1"/>
<polyline clip-path="url(#clip891)" style="stroke:#000000; stroke-linecap:round; stroke-linejoin:round; stroke-width:4; stroke-opacity:1; fill:none" points="3050.33,128.175 3057.35,127.746 3063.19,127.316 3067.78,126.886 3071.1,126.457 3073.12,126.027 3073.85,125.597 3073.31,125.168 3071.56,124.738 3068.67,124.309 3064.71,123.879 3059.8,123.449 3054.05,123.02 3047.59,122.59 3040.53,122.161 3033.02,121.731 3025.19,121.301 3017.15,120.872 3009.03,120.442 3000.92,120.012 2992.91,119.583 2985.09,119.153 2977.51,118.724 2970.22,118.294 2963.23,117.864 2956.57,117.435 2950.23,117.005 2944.2,116.576 2938.44,116.146 2932.93,115.716 2927.63,115.287 2922.49,114.857 2917.47,114.427 2912.53,113.998 2907.62,113.568 2902.72,113.139 2897.8,112.709 2892.83,112.279 2887.81,111.85 2882.72,111.42 2877.57,110.991 2872.37,110.561 2867.14,110.131 2861.9,109.702 2856.67,109.272 2851.49,108.842 2846.39,108.413 2841.4,107.983 2836.55,107.554 2831.88,107.124 2827.42,106.694 2823.19,106.265 2819.22,105.835 2815.54,105.405 2812.16,104.976 2809.09,104.546 2806.36,104.117 2803.96,103.687 2801.91,103.257 2800.22,102.828 2798.88,102.398 2797.9,101.969 2797.28,101.539 2797.02,101.109 2797.11,100.68 2797.57,100.25 2798.39,99.8205 2799.56,99.3908 2801.08,98.9612 2802.94,98.5316 2805.15,98.102 2807.68,97.6724 2810.52,97.2428 2813.67,96.8131 2817.09,96.3835 2820.77,95.9539 2824.66,95.5243 2828.75,95.0947 2832.98,94.6651 2837.32,94.2354 2841.71,93.8058 2846.1,93.3762 2850.44,92.9466 2854.67,92.517 2858.72,92.0874 2862.55,91.6577 2866.09,91.2281 2869.29,90.7985 2872.09,90.3689 2874.46,89.9393 2876.35,89.5097 2877.72,89.08 2878.57,88.6504 2878.86,88.2208 2684.35,88.2208 2684.64,88.6504 2685.48,89.08 2686.86,89.5097 2688.75,89.9393 2691.11,90.3689 2693.92,90.7985 2697.12,91.2281 2700.66,91.6577 2704.48,92.0874 2708.54,92.517 2712.77,92.9466 2717.11,93.3762 2721.5,93.8058 2725.89,94.2354 2730.23,94.6651 2734.46,95.0947 2738.54,95.5243 2742.44,95.9539 2746.12,96.3835 2749.54,96.8131 2752.68,97.2428 2755.53,97.6724 2758.06,98.102 2760.27,98.5316 2762.13,98.9612 2763.65,99.3908 2764.82,99.8205 2765.64,100.25 2766.09,100.68 2766.19,101.109 2765.93,101.539 2765.31,101.969 2764.33,102.398 2762.99,102.828 2761.29,103.257 2759.25,103.687 2756.85,104.117 2754.12,104.546 2751.05,104.976 2747.67,105.405 2743.98,105.835 2740.02,106.265 2735.79,106.694 2731.33,107.124 2726.66,107.554 2721.81,107.983 2716.82,108.413 2711.72,108.842 2706.54,109.272 2701.31,109.702 2696.07,110.131 2690.84,110.561 2685.64,110.991 2680.49,111.42 2675.4,111.85 2670.38,112.279 2665.41,112.709 2660.48,113.139 2655.58,113.568 2650.68,113.998 2645.74,114.427 2640.72,114.857 2635.58,115.287 2630.27,115.716 2624.77,116.146 2619.01,116.576 2612.98,117.005 2606.64,117.435 2599.98,117.864 2592.99,118.294 2585.7,118.724 2578.12,119.153 2570.3,119.583 2562.29,120.012 2554.18,120.442 2546.06,120.872 2538.02,121.301 2530.18,121.731 2522.68,122.161 2515.62,122.59 2509.16,123.02 2503.41,123.449 2498.5,123.879 2494.54,124.309 2491.65,124.738 2489.89,125.168 2489.36,125.597 2490.09,126.027 2492.11,126.457 2495.42,126.886 2500.02,127.316 2505.86,127.746 2512.87,128.175 3050.33,128.175 "/>
</svg>
