<?xml version="1.0" encoding="utf-8"?>
<svg xmlns="http://www.w3.org/2000/svg" xmlns:xlink="http://www.w3.org/1999/xlink" width="600" height="400" viewBox="0 0 2400 1600">
<defs>
  <clipPath id="clip440">
    <rect x="0" y="0" width="2400" height="1600"/>
  </clipPath>
</defs>
<path clip-path="url(#clip440)" d="M0 1600 L2400 1600 L2400 0 L0 0  Z" fill="#ffffff" fill-rule="evenodd" fill-opacity="1"/>
<defs>
  <clipPath id="clip441">
    <rect x="509" y="123" width="1347" height="1225"/>
  </clipPath>
</defs>
<path clip-path="url(#clip440)" d="M509.592 1347.9 L1855.71 1347.9 L1855.71 123.472 L509.592 123.472  Z" fill="#ffffff" fill-rule="evenodd" fill-opacity="1"/>
<polyline clip-path="url(#clip441)" style="stroke:#000000; stroke-linecap:round; stroke-linejoin:round; stroke-width:2; stroke-opacity:0.1; fill:none" points="1029.57,1347.9 1029.57,123.472 "/>
<polyline clip-path="url(#clip441)" style="stroke:#000000; stroke-linecap:round; stroke-linejoin:round; stroke-width:2; stroke-opacity:0.1; fill:none" points="1655.43,1347.9 1655.43,123.472 "/>
<polyline clip-path="url(#clip441)" style="stroke:#000000; stroke-linecap:round; stroke-linejoin:round; stroke-width:2; stroke-opacity:0.1; fill:none" points="509.592,1037.6 1855.71,1037.6 "/>
<polyline clip-path="url(#clip441)" style="stroke:#000000; stroke-linecap:round; stroke-linejoin:round; stroke-width:2; stroke-opacity:0.1; fill:none" points="509.592,577.346 1855.71,577.346 "/>
<polyline clip-path="url(#clip440)" style="stroke:#000000; stroke-linecap:round; stroke-linejoin:round; stroke-width:4; stroke-opacity:1; fill:none" points="509.592,1347.9 1855.71,1347.9 "/>
<polyline clip-path="url(#clip440)" style="stroke:#000000; stroke-linecap:round; stroke-linejoin:round; stroke-width:4; stroke-opacity:1; fill:none" points="1029.57,1347.9 1029.57,1329.01 "/>
<polyline clip-path="url(#clip440)" style="stroke:#000000; stroke-linecap:round; stroke-linejoin:round; stroke-width:4; stroke-opacity:1; fill:none" points="1655.43,1347.9 1655.43,1329.01 "/>
<path clip-path="url(#clip440)" d="M979.123 1422.03 L986.762 1422.03 L986.762 1395.66 L978.452 1397.33 L978.452 1393.07 L986.716 1391.4 L991.392 1391.4 L991.392 1422.03 L999.03 1422.03 L999.03 1425.96 L979.123 1425.96 L979.123 1422.03 Z" fill="#000000" fill-rule="nonzero" fill-opacity="1" /><path clip-path="url(#clip440)" d="M1018.47 1394.48 Q1014.86 1394.48 1013.03 1398.05 Q1011.23 1401.59 1011.23 1408.72 Q1011.23 1415.83 1013.03 1419.39 Q1014.86 1422.93 1018.47 1422.93 Q1022.11 1422.93 1023.91 1419.39 Q1025.74 1415.83 1025.74 1408.72 Q1025.74 1401.59 1023.91 1398.05 Q1022.11 1394.48 1018.47 1394.48 M1018.47 1390.78 Q1024.28 1390.78 1027.34 1395.39 Q1030.42 1399.97 1030.42 1408.72 Q1030.42 1417.45 1027.34 1422.05 Q1024.28 1426.64 1018.47 1426.64 Q1012.66 1426.64 1009.59 1422.05 Q1006.53 1417.45 1006.53 1408.72 Q1006.53 1399.97 1009.59 1395.39 Q1012.66 1390.78 1018.47 1390.78 Z" fill="#000000" fill-rule="nonzero" fill-opacity="1" /><path clip-path="url(#clip440)" d="M1030.42 1384.88 L1054.53 1384.88 L1054.53 1388.08 L1030.42 1388.08 L1030.42 1384.88 Z" fill="#000000" fill-rule="nonzero" fill-opacity="1" /><path clip-path="url(#clip440)" d="M1071.33 1383 Q1068.77 1383 1067.26 1384.75 Q1065.78 1386.5 1065.78 1389.55 Q1065.78 1392.57 1067.26 1394.34 Q1068.77 1396.09 1071.33 1396.09 Q1073.88 1396.09 1075.37 1394.34 Q1076.87 1392.57 1076.87 1389.55 Q1076.87 1386.5 1075.37 1384.75 Q1073.88 1383 1071.33 1383 M1078.87 1371.09 L1078.87 1374.56 Q1077.44 1373.88 1075.97 1373.52 Q1074.52 1373.16 1073.09 1373.16 Q1069.33 1373.16 1067.34 1375.7 Q1065.36 1378.24 1065.08 1383.38 Q1066.19 1381.74 1067.87 1380.87 Q1069.54 1379.99 1071.55 1379.99 Q1075.78 1379.99 1078.23 1382.57 Q1080.69 1385.13 1080.69 1389.55 Q1080.69 1393.87 1078.13 1396.49 Q1075.58 1399.1 1071.33 1399.1 Q1066.45 1399.1 1063.88 1395.38 Q1061.3 1391.63 1061.3 1384.54 Q1061.3 1377.88 1064.46 1373.93 Q1067.62 1369.97 1072.94 1369.97 Q1074.37 1369.97 1075.82 1370.25 Q1077.29 1370.53 1078.87 1371.09 Z" fill="#000000" fill-rule="nonzero" fill-opacity="1" /><path clip-path="url(#clip440)" d="M1605.31 1422.03 L1612.95 1422.03 L1612.95 1395.66 L1604.64 1397.33 L1604.64 1393.07 L1612.9 1391.4 L1617.58 1391.4 L1617.58 1422.03 L1625.22 1422.03 L1625.22 1425.96 L1605.31 1425.96 L1605.31 1422.03 Z" fill="#000000" fill-rule="nonzero" fill-opacity="1" /><path clip-path="url(#clip440)" d="M1644.66 1394.48 Q1641.05 1394.48 1639.22 1398.05 Q1637.42 1401.59 1637.42 1408.72 Q1637.42 1415.83 1639.22 1419.39 Q1641.05 1422.93 1644.66 1422.93 Q1648.3 1422.93 1650.1 1419.39 Q1651.93 1415.83 1651.93 1408.72 Q1651.93 1401.59 1650.1 1398.05 Q1648.3 1394.48 1644.66 1394.48 M1644.66 1390.78 Q1650.47 1390.78 1653.53 1395.39 Q1656.61 1399.97 1656.61 1408.72 Q1656.61 1417.45 1653.53 1422.05 Q1650.47 1426.64 1644.66 1426.64 Q1638.85 1426.64 1635.77 1422.05 Q1632.72 1417.45 1632.72 1408.72 Q1632.72 1399.97 1635.77 1395.39 Q1638.85 1390.78 1644.66 1390.78 Z" fill="#000000" fill-rule="nonzero" fill-opacity="1" /><path clip-path="url(#clip440)" d="M1656.61 1384.88 L1680.72 1384.88 L1680.72 1388.08 L1656.61 1388.08 L1656.61 1384.88 Z" fill="#000000" fill-rule="nonzero" fill-opacity="1" /><path clip-path="url(#clip440)" d="M1700.43 1383.41 Q1703.16 1384 1704.68 1385.84 Q1706.22 1387.68 1706.22 1390.39 Q1706.22 1394.55 1703.36 1396.82 Q1700.51 1399.1 1695.24 1399.1 Q1693.47 1399.1 1691.59 1398.74 Q1689.73 1398.4 1687.73 1397.71 L1687.73 1394.04 Q1689.31 1394.96 1691.2 1395.43 Q1693.08 1395.9 1695.13 1395.9 Q1698.7 1395.9 1700.56 1394.49 Q1702.44 1393.08 1702.44 1390.39 Q1702.44 1387.91 1700.69 1386.52 Q1698.96 1385.11 1695.86 1385.11 L1692.59 1385.11 L1692.59 1381.98 L1696.01 1381.98 Q1698.81 1381.98 1700.3 1380.87 Q1701.78 1379.75 1701.78 1377.64 Q1701.78 1375.48 1700.24 1374.33 Q1698.72 1373.16 1695.86 1373.16 Q1694.3 1373.16 1692.51 1373.5 Q1690.73 1373.84 1688.58 1374.56 L1688.58 1371.17 Q1690.74 1370.57 1692.62 1370.27 Q1694.52 1369.97 1696.2 1369.97 Q1700.52 1369.97 1703.04 1371.94 Q1705.56 1373.9 1705.56 1377.24 Q1705.56 1379.58 1704.23 1381.19 Q1702.89 1382.79 1700.43 1383.41 Z" fill="#000000" fill-rule="nonzero" fill-opacity="1" /><path clip-path="url(#clip440)" d="M1043.62 1463.67 L1073.67 1463.67 L1073.67 1469.08 L1050.05 1469.08 L1050.05 1483.15 L1072.68 1483.15 L1072.68 1488.56 L1050.05 1488.56 L1050.05 1505.78 L1074.24 1505.78 L1074.24 1511.19 L1043.62 1511.19 L1043.62 1463.67 Z" fill="#000000" fill-rule="nonzero" fill-opacity="1" /><path clip-path="url(#clip440)" d="M1105.21 1481.02 Q1104.22 1480.45 1103.05 1480.19 Q1101.9 1479.91 1100.5 1479.91 Q1095.53 1479.91 1092.86 1483.15 Q1090.22 1486.37 1090.22 1492.41 L1090.22 1511.19 L1084.33 1511.19 L1084.33 1475.55 L1090.22 1475.55 L1090.22 1481.08 Q1092.06 1477.84 1095.02 1476.28 Q1097.98 1474.69 1102.22 1474.69 Q1102.82 1474.69 1103.55 1474.78 Q1104.29 1474.85 1105.18 1475 L1105.21 1481.02 Z" fill="#000000" fill-rule="nonzero" fill-opacity="1" /><path clip-path="url(#clip440)" d="M1130.86 1481.02 Q1129.88 1480.45 1128.7 1480.19 Q1127.55 1479.91 1126.15 1479.91 Q1121.19 1479.91 1118.51 1483.15 Q1115.87 1486.37 1115.87 1492.41 L1115.87 1511.19 L1109.98 1511.19 L1109.98 1475.55 L1115.87 1475.55 L1115.87 1481.08 Q1117.72 1477.84 1120.68 1476.28 Q1123.64 1474.69 1127.87 1474.69 Q1128.48 1474.69 1129.21 1474.78 Q1129.94 1474.85 1130.83 1475 L1130.86 1481.02 Z" fill="#000000" fill-rule="nonzero" fill-opacity="1" /><path clip-path="url(#clip440)" d="M1149.39 1479.65 Q1144.68 1479.65 1141.94 1483.34 Q1139.2 1487 1139.2 1493.4 Q1139.2 1499.8 1141.91 1503.49 Q1144.65 1507.15 1149.39 1507.15 Q1154.07 1507.15 1156.8 1503.46 Q1159.54 1499.77 1159.54 1493.4 Q1159.54 1487.07 1156.8 1483.38 Q1154.07 1479.65 1149.39 1479.65 M1149.39 1474.69 Q1157.03 1474.69 1161.39 1479.65 Q1165.75 1484.62 1165.75 1493.4 Q1165.75 1502.15 1161.39 1507.15 Q1157.03 1512.12 1149.39 1512.12 Q1141.72 1512.12 1137.36 1507.15 Q1133.03 1502.15 1133.03 1493.4 Q1133.03 1484.62 1137.36 1479.65 Q1141.72 1474.69 1149.39 1474.69 Z" fill="#000000" fill-rule="nonzero" fill-opacity="1" /><path clip-path="url(#clip440)" d="M1196.11 1481.02 Q1195.13 1480.45 1193.95 1480.19 Q1192.8 1479.91 1191.4 1479.91 Q1186.44 1479.91 1183.76 1483.15 Q1181.12 1486.37 1181.12 1492.41 L1181.12 1511.19 L1175.23 1511.19 L1175.23 1475.55 L1181.12 1475.55 L1181.12 1481.08 Q1182.97 1477.84 1185.93 1476.28 Q1188.89 1474.69 1193.12 1474.69 Q1193.73 1474.69 1194.46 1474.78 Q1195.19 1474.85 1196.08 1475 L1196.11 1481.02 Z" fill="#000000" fill-rule="nonzero" fill-opacity="1" /><path clip-path="url(#clip440)" d="M1237.04 1461.73 Q1232.78 1469.05 1230.71 1476.21 Q1228.64 1483.38 1228.64 1490.73 Q1228.64 1498.08 1230.71 1505.31 Q1232.81 1512.5 1237.04 1519.79 L1231.95 1519.79 Q1227.18 1512.31 1224.79 1505.08 Q1222.43 1497.86 1222.43 1490.73 Q1222.43 1483.63 1224.79 1476.44 Q1227.15 1469.24 1231.95 1461.73 L1237.04 1461.73 Z" fill="#000000" fill-rule="nonzero" fill-opacity="1" /><path clip-path="url(#clip440)" d="M1248.41 1461.67 L1254.26 1461.67 L1254.26 1511.19 L1248.41 1511.19 L1248.41 1461.67 Z" fill="#000000" fill-rule="nonzero" fill-opacity="1" /><path clip-path="url(#clip440)" d="M1272.88 1505.78 L1295.32 1505.78 L1295.32 1511.19 L1265.15 1511.19 L1265.15 1505.78 Q1268.81 1501.99 1275.11 1495.63 Q1281.44 1489.23 1283.07 1487.39 Q1286.16 1483.92 1287.36 1481.53 Q1288.61 1479.11 1288.61 1476.79 Q1288.61 1473 1285.93 1470.61 Q1283.29 1468.22 1279.03 1468.22 Q1276 1468.22 1272.63 1469.28 Q1269.29 1470.33 1265.47 1472.46 L1265.47 1465.96 Q1269.35 1464.41 1272.72 1463.61 Q1276.1 1462.81 1278.9 1462.81 Q1286.28 1462.81 1290.67 1466.51 Q1295.07 1470.2 1295.07 1476.37 Q1295.07 1479.3 1293.95 1481.94 Q1292.87 1484.55 1289.97 1488.12 Q1289.18 1489.04 1284.91 1493.46 Q1280.65 1497.86 1272.88 1505.78 Z" fill="#000000" fill-rule="nonzero" fill-opacity="1" /><path clip-path="url(#clip440)" d="M1307.07 1461.73 L1312.16 1461.73 Q1316.93 1469.24 1319.29 1476.44 Q1321.68 1483.63 1321.68 1490.73 Q1321.68 1497.86 1319.29 1505.08 Q1316.93 1512.31 1312.16 1519.79 L1307.07 1519.79 Q1311.3 1512.5 1313.37 1505.31 Q1315.47 1498.08 1315.47 1490.73 Q1315.47 1483.38 1313.37 1476.21 Q1311.3 1469.05 1307.07 1461.73 Z" fill="#000000" fill-rule="nonzero" fill-opacity="1" /><polyline clip-path="url(#clip440)" style="stroke:#000000; stroke-linecap:round; stroke-linejoin:round; stroke-width:4; stroke-opacity:1; fill:none" points="509.592,1347.9 509.592,123.472 "/>
<polyline clip-path="url(#clip440)" style="stroke:#000000; stroke-linecap:round; stroke-linejoin:round; stroke-width:4; stroke-opacity:1; fill:none" points="509.592,1037.6 523.393,1037.6 "/>
<polyline clip-path="url(#clip440)" style="stroke:#000000; stroke-linecap:round; stroke-linejoin:round; stroke-width:4; stroke-opacity:1; fill:none" points="509.592,577.346 523.393,577.346 "/>
<path clip-path="url(#clip440)" d="M336.213 1057.39 L343.851 1057.39 L343.851 1031.03 L335.541 1032.7 L335.541 1028.44 L343.805 1026.77 L348.481 1026.77 L348.481 1057.39 L356.12 1057.39 L356.12 1061.33 L336.213 1061.33 L336.213 1057.39 Z" fill="#000000" fill-rule="nonzero" fill-opacity="1" /><path clip-path="url(#clip440)" d="M375.564 1029.85 Q371.953 1029.85 370.124 1033.41 Q368.319 1036.96 368.319 1044.08 Q368.319 1051.19 370.124 1054.76 Q371.953 1058.3 375.564 1058.3 Q379.199 1058.3 381.004 1054.76 Q382.833 1051.19 382.833 1044.08 Q382.833 1036.96 381.004 1033.41 Q379.199 1029.85 375.564 1029.85 M375.564 1026.14 Q381.374 1026.14 384.43 1030.75 Q387.509 1035.33 387.509 1044.08 Q387.509 1052.81 384.43 1057.42 Q381.374 1062 375.564 1062 Q369.754 1062 366.675 1057.42 Q363.62 1052.81 363.62 1044.08 Q363.62 1035.33 366.675 1030.75 Q369.754 1026.14 375.564 1026.14 Z" fill="#000000" fill-rule="nonzero" fill-opacity="1" /><path clip-path="url(#clip440)" d="M387.509 1020.25 L411.62 1020.25 L411.62 1023.44 L387.509 1023.44 L387.509 1020.25 Z" fill="#000000" fill-rule="nonzero" fill-opacity="1" /><path clip-path="url(#clip440)" d="M423.093 1030.72 L436.352 1030.72 L436.352 1033.92 L418.523 1033.92 L418.523 1030.72 Q420.686 1028.48 424.409 1024.72 Q428.152 1020.94 429.111 1019.85 Q430.936 1017.8 431.65 1016.39 Q432.384 1014.96 432.384 1013.59 Q432.384 1011.35 430.804 1009.94 Q429.243 1008.53 426.723 1008.53 Q424.936 1008.53 422.942 1009.15 Q420.968 1009.77 418.711 1011.03 L418.711 1007.19 Q421.005 1006.27 422.999 1005.8 Q424.993 1005.33 426.648 1005.33 Q431.011 1005.33 433.606 1007.51 Q436.202 1009.7 436.202 1013.34 Q436.202 1015.07 435.544 1016.64 Q434.904 1018.18 433.193 1020.28 Q432.723 1020.83 430.202 1023.44 Q427.682 1026.04 423.093 1030.72 Z" fill="#000000" fill-rule="nonzero" fill-opacity="1" /><path clip-path="url(#clip440)" d="M444.327 1029.14 L448.295 1029.14 L448.295 1033.92 L444.327 1033.92 L444.327 1029.14 Z" fill="#000000" fill-rule="nonzero" fill-opacity="1" /><path clip-path="url(#clip440)" d="M456.608 1005.84 L471.523 1005.84 L471.523 1009.04 L460.088 1009.04 L460.088 1015.92 Q460.915 1015.64 461.743 1015.51 Q462.57 1015.36 463.398 1015.36 Q468.1 1015.36 470.846 1017.93 Q473.592 1020.51 473.592 1024.91 Q473.592 1029.44 470.771 1031.96 Q467.949 1034.46 462.815 1034.46 Q461.047 1034.46 459.204 1034.16 Q457.38 1033.86 455.424 1033.26 L455.424 1029.44 Q457.116 1030.36 458.922 1030.82 Q460.727 1031.27 462.74 1031.27 Q465.993 1031.27 467.893 1029.56 Q469.793 1027.84 469.793 1024.91 Q469.793 1021.98 467.893 1020.27 Q465.993 1018.55 462.74 1018.55 Q461.216 1018.55 459.693 1018.89 Q458.188 1019.23 456.608 1019.95 L456.608 1005.84 Z" fill="#000000" fill-rule="nonzero" fill-opacity="1" /><path clip-path="url(#clip440)" d="M335.404 597.139 L343.043 597.139 L343.043 570.773 L334.733 572.44 L334.733 568.181 L342.996 566.514 L347.672 566.514 L347.672 597.139 L355.311 597.139 L355.311 601.074 L335.404 601.074 L335.404 597.139 Z" fill="#000000" fill-rule="nonzero" fill-opacity="1" /><path clip-path="url(#clip440)" d="M374.756 569.593 Q371.144 569.593 369.316 573.157 Q367.51 576.699 367.51 583.829 Q367.51 590.935 369.316 594.5 Q371.144 598.042 374.756 598.042 Q378.39 598.042 380.195 594.5 Q382.024 590.935 382.024 583.829 Q382.024 576.699 380.195 573.157 Q378.39 569.593 374.756 569.593 M374.756 565.889 Q380.566 565.889 383.621 570.495 Q386.7 575.079 386.7 583.829 Q386.7 592.556 383.621 597.162 Q380.566 601.745 374.756 601.745 Q368.945 601.745 365.867 597.162 Q362.811 592.556 362.811 583.829 Q362.811 575.079 365.867 570.495 Q368.945 565.889 374.756 565.889 Z" fill="#000000" fill-rule="nonzero" fill-opacity="1" /><path clip-path="url(#clip440)" d="M386.7 559.99 L410.811 559.99 L410.811 563.188 L386.7 563.188 L386.7 559.99 Z" fill="#000000" fill-rule="nonzero" fill-opacity="1" /><path clip-path="url(#clip440)" d="M422.284 570.466 L435.544 570.466 L435.544 573.664 L417.714 573.664 L417.714 570.466 Q419.877 568.228 423.601 564.467 Q427.344 560.686 428.303 559.595 Q430.127 557.545 430.842 556.135 Q431.575 554.705 431.575 553.332 Q431.575 551.094 429.995 549.684 Q428.434 548.273 425.914 548.273 Q424.127 548.273 422.134 548.894 Q420.159 549.514 417.902 550.775 L417.902 546.938 Q420.197 546.016 422.19 545.546 Q424.184 545.076 425.839 545.076 Q430.202 545.076 432.798 547.257 Q435.393 549.439 435.393 553.088 Q435.393 554.818 434.735 556.379 Q434.095 557.922 432.384 560.028 Q431.914 560.573 429.394 563.188 Q426.873 565.783 422.284 570.466 Z" fill="#000000" fill-rule="nonzero" fill-opacity="1" /><path clip-path="url(#clip440)" d="M443.518 568.886 L447.487 568.886 L447.487 573.664 L443.518 573.664 L443.518 568.886 Z" fill="#000000" fill-rule="nonzero" fill-opacity="1" /><path clip-path="url(#clip440)" d="M463.887 548.085 Q460.953 548.085 459.467 550.981 Q458 553.859 458 559.652 Q458 565.426 459.467 568.322 Q460.953 571.2 463.887 571.2 Q466.84 571.2 468.307 568.322 Q469.793 565.426 469.793 559.652 Q469.793 553.859 468.307 550.981 Q466.84 548.085 463.887 548.085 M463.887 545.076 Q468.608 545.076 471.09 548.819 Q473.592 552.542 473.592 559.652 Q473.592 566.742 471.09 570.485 Q468.608 574.209 463.887 574.209 Q459.166 574.209 456.665 570.485 Q454.182 566.742 454.182 559.652 Q454.182 552.542 456.665 548.819 Q459.166 545.076 463.887 545.076 Z" fill="#000000" fill-rule="nonzero" fill-opacity="1" /><path clip-path="url(#clip440)" d="M236.957 865.517 L236.957 825.317 L242.367 825.317 L242.367 842.187 L284.477 842.187 L284.477 848.648 L242.367 848.648 L242.367 865.517 L236.957 865.517 Z" fill="#000000" fill-rule="nonzero" fill-opacity="1" /><path clip-path="url(#clip440)" d="M248.829 821.371 L248.829 815.514 L284.477 815.514 L284.477 821.371 L248.829 821.371 M234.951 821.371 L234.951 815.514 L242.367 815.514 L242.367 821.371 L234.951 821.371 Z" fill="#000000" fill-rule="nonzero" fill-opacity="1" /><path clip-path="url(#clip440)" d="M255.672 775.506 Q251.725 773.31 249.847 770.254 Q247.969 767.199 247.969 763.061 Q247.969 757.491 251.884 754.467 Q255.767 751.443 262.961 751.443 L284.477 751.443 L284.477 757.332 L263.151 757.332 Q258.027 757.332 255.544 759.146 Q253.062 760.96 253.062 764.684 Q253.062 769.236 256.086 771.877 Q259.109 774.519 264.329 774.519 L284.477 774.519 L284.477 780.407 L263.151 780.407 Q257.995 780.407 255.544 782.222 Q253.062 784.036 253.062 787.823 Q253.062 792.311 256.117 794.953 Q259.141 797.595 264.329 797.595 L284.477 797.595 L284.477 803.483 L248.829 803.483 L248.829 797.595 L254.367 797.595 Q251.088 795.59 249.529 792.789 Q247.969 789.988 247.969 786.137 Q247.969 782.253 249.943 779.548 Q251.916 776.811 255.672 775.506 Z" fill="#000000" fill-rule="nonzero" fill-opacity="1" /><path clip-path="url(#clip440)" d="M265.189 709.271 L268.053 709.271 L268.053 736.198 Q274.1 735.816 277.283 732.569 Q280.434 729.291 280.434 723.466 Q280.434 720.092 279.607 716.941 Q278.779 713.758 277.124 710.639 L282.662 710.639 Q283.999 713.79 284.699 717.1 Q285.4 720.411 285.4 723.816 Q285.4 732.346 280.434 737.343 Q275.469 742.309 267.003 742.309 Q258.25 742.309 253.125 737.598 Q247.969 732.856 247.969 724.835 Q247.969 717.642 252.616 713.472 Q257.231 709.271 265.189 709.271 M263.47 715.127 Q258.664 715.191 255.799 717.833 Q252.935 720.442 252.935 724.771 Q252.935 729.673 255.704 732.633 Q258.473 735.561 263.502 736.007 L263.47 715.127 Z" fill="#000000" fill-rule="nonzero" fill-opacity="1" /><path clip-path="url(#clip440)" d="M235.015 664.87 Q242.336 669.135 249.497 671.204 Q256.658 673.273 264.011 673.273 Q271.363 673.273 278.588 671.204 Q285.782 669.103 293.07 664.87 L293.07 669.962 Q285.591 674.737 278.366 677.124 Q271.14 679.479 264.011 679.479 Q256.913 679.479 249.72 677.124 Q242.527 674.769 235.015 669.962 L235.015 664.87 Z" fill="#000000" fill-rule="nonzero" fill-opacity="1" /><path clip-path="url(#clip440)" d="M249.879 630.781 L255.417 630.781 Q254.144 633.264 253.507 635.938 Q252.871 638.611 252.871 641.476 Q252.871 645.836 254.208 648.033 Q255.544 650.197 258.218 650.197 Q260.255 650.197 261.433 648.637 Q262.579 647.078 263.629 642.367 L264.075 640.362 Q265.411 634.123 267.862 631.514 Q270.281 628.872 274.642 628.872 Q279.607 628.872 282.503 632.819 Q285.4 636.733 285.4 643.608 Q285.4 646.473 284.827 649.592 Q284.286 652.68 283.172 656.117 L277.124 656.117 Q278.811 652.87 279.67 649.719 Q280.498 646.568 280.498 643.481 Q280.498 639.343 279.098 637.115 Q277.665 634.887 275.087 634.887 Q272.7 634.887 271.427 636.511 Q270.154 638.102 268.976 643.545 L268.499 645.582 Q267.353 651.024 264.998 653.443 Q262.61 655.862 258.473 655.862 Q253.444 655.862 250.707 652.298 Q247.969 648.733 247.969 642.176 Q247.969 638.93 248.447 636.065 Q248.924 633.2 249.879 630.781 Z" fill="#000000" fill-rule="nonzero" fill-opacity="1" /><path clip-path="url(#clip440)" d="M235.015 620.469 L235.015 615.376 Q242.527 610.602 249.72 608.247 Q256.913 605.86 264.011 605.86 Q271.14 605.86 278.366 608.247 Q285.591 610.602 293.07 615.376 L293.07 620.469 Q285.782 616.236 278.588 614.167 Q271.363 612.066 264.011 612.066 Q256.658 612.066 249.497 614.167 Q242.336 616.236 235.015 620.469 Z" fill="#000000" fill-rule="nonzero" fill-opacity="1" /><path clip-path="url(#clip440)" d="M572.137 44.2197 Q574.77 45.1109 577.241 48.0275 Q579.753 50.9442 582.264 56.0483 L590.569 72.576 L581.778 72.576 L574.041 57.061 Q571.043 50.9847 568.208 48.9997 Q565.412 47.0148 560.551 47.0148 L551.639 47.0148 L551.639 72.576 L543.457 72.576 L543.457 12.096 L561.929 12.096 Q572.299 12.096 577.403 16.4305 Q582.507 20.7649 582.507 29.5149 Q582.507 35.2267 579.834 38.994 Q577.201 42.7613 572.137 44.2197 M551.639 18.8205 L551.639 40.2903 L561.929 40.2903 Q567.843 40.2903 570.841 37.5762 Q573.879 34.8216 573.879 29.5149 Q573.879 24.2082 570.841 21.5346 Q567.843 18.8205 561.929 18.8205 L551.639 18.8205 Z" fill="#000000" fill-rule="nonzero" fill-opacity="1" /><path clip-path="url(#clip440)" d="M635.858 48.0275 L635.858 51.6733 L601.587 51.6733 Q602.073 59.3701 606.205 63.421 Q610.378 67.4314 617.791 67.4314 Q622.085 67.4314 626.095 66.3781 Q630.146 65.3249 634.116 63.2184 L634.116 70.267 Q630.105 71.9684 625.892 72.8596 Q621.68 73.7508 617.345 73.7508 Q606.489 73.7508 600.129 67.4314 Q593.809 61.1119 593.809 50.3365 Q593.809 39.1965 599.805 32.6746 Q605.841 26.1121 616.049 26.1121 Q625.204 26.1121 630.511 32.0264 Q635.858 37.9003 635.858 48.0275 M628.404 45.84 Q628.323 39.7232 624.961 36.0774 Q621.639 32.4315 616.13 32.4315 Q609.891 32.4315 606.124 35.9558 Q602.397 39.4801 601.83 45.8805 L628.404 45.84 Z" fill="#000000" fill-rule="nonzero" fill-opacity="1" /><path clip-path="url(#clip440)" d="M671.06 9.54393 L671.06 15.7418 L663.93 15.7418 Q659.92 15.7418 658.34 17.3622 Q656.801 18.9825 656.801 23.1955 L656.801 27.2059 L669.075 27.2059 L669.075 32.9987 L656.801 32.9987 L656.801 72.576 L649.307 72.576 L649.307 32.9987 L642.177 32.9987 L642.177 27.2059 L649.307 27.2059 L649.307 24.0462 Q649.307 16.471 652.831 13.0277 Q656.355 9.54393 664.012 9.54393 L671.06 9.54393 Z" fill="#000000" fill-rule="nonzero" fill-opacity="1" /><path clip-path="url(#clip440)" d="M716.106 48.0275 L716.106 51.6733 L681.835 51.6733 Q682.322 59.3701 686.454 63.421 Q690.626 67.4314 698.039 67.4314 Q702.333 67.4314 706.343 66.3781 Q710.394 65.3249 714.364 63.2184 L714.364 70.267 Q710.354 71.9684 706.141 72.8596 Q701.928 73.7508 697.594 73.7508 Q686.737 73.7508 680.377 67.4314 Q674.058 61.1119 674.058 50.3365 Q674.058 39.1965 680.053 32.6746 Q686.089 26.1121 696.297 26.1121 Q705.452 26.1121 710.759 32.0264 Q716.106 37.9003 716.106 48.0275 M708.652 45.84 Q708.571 39.7232 705.209 36.0774 Q701.887 32.4315 696.378 32.4315 Q690.14 32.4315 686.372 35.9558 Q682.646 39.4801 682.079 45.8805 L708.652 45.84 Z" fill="#000000" fill-rule="nonzero" fill-opacity="1" /><path clip-path="url(#clip440)" d="M754.63 34.1734 Q753.374 33.4443 751.876 33.1202 Q750.417 32.7556 748.635 32.7556 Q742.315 32.7556 738.913 36.8875 Q735.55 40.9789 735.55 48.6757 L735.55 72.576 L728.056 72.576 L728.056 27.2059 L735.55 27.2059 L735.55 34.2544 Q737.9 30.1225 741.667 28.1376 Q745.435 26.1121 750.822 26.1121 Q751.592 26.1121 752.524 26.2337 Q753.455 26.3147 754.59 26.5172 L754.63 34.1734 Z" fill="#000000" fill-rule="nonzero" fill-opacity="1" /><path clip-path="url(#clip440)" d="M799.433 48.0275 L799.433 51.6733 L765.163 51.6733 Q765.649 59.3701 769.781 63.421 Q773.953 67.4314 781.366 67.4314 Q785.66 67.4314 789.671 66.3781 Q793.721 65.3249 797.691 63.2184 L797.691 70.267 Q793.681 71.9684 789.468 72.8596 Q785.255 73.7508 780.921 73.7508 Q770.064 73.7508 763.704 67.4314 Q757.385 61.1119 757.385 50.3365 Q757.385 39.1965 763.38 32.6746 Q769.416 26.1121 779.624 26.1121 Q788.779 26.1121 794.086 32.0264 Q799.433 37.9003 799.433 48.0275 M791.98 45.84 Q791.899 39.7232 788.536 36.0774 Q785.215 32.4315 779.705 32.4315 Q773.467 32.4315 769.7 35.9558 Q765.973 39.4801 765.406 45.8805 L791.98 45.84 Z" fill="#000000" fill-rule="nonzero" fill-opacity="1" /><path clip-path="url(#clip440)" d="M849.381 45.1919 L849.381 72.576 L841.927 72.576 L841.927 45.4349 Q841.927 38.994 839.416 35.7938 Q836.904 32.5936 831.881 32.5936 Q825.845 32.5936 822.361 36.4419 Q818.878 40.2903 818.878 46.9338 L818.878 72.576 L811.383 72.576 L811.383 27.2059 L818.878 27.2059 L818.878 34.2544 Q821.551 30.163 825.156 28.1376 Q828.802 26.1121 833.542 26.1121 Q841.36 26.1121 845.37 30.9732 Q849.381 35.7938 849.381 45.1919 Z" fill="#000000" fill-rule="nonzero" fill-opacity="1" /><path clip-path="url(#clip440)" d="M896.898 28.9478 L896.898 35.9153 Q893.738 34.1734 890.538 33.3227 Q887.378 32.4315 884.138 32.4315 Q876.887 32.4315 872.876 37.0496 Q868.866 41.6271 868.866 49.9314 Q868.866 58.2358 872.876 62.8538 Q876.887 67.4314 884.138 67.4314 Q887.378 67.4314 890.538 66.5807 Q893.738 65.6895 896.898 63.9476 L896.898 70.8341 Q893.779 72.2924 890.417 73.0216 Q887.095 73.7508 883.327 73.7508 Q873.079 73.7508 867.043 67.3098 Q861.007 60.8689 861.007 49.9314 Q861.007 38.832 867.083 32.472 Q873.2 26.1121 883.814 26.1121 Q887.257 26.1121 890.538 26.8413 Q893.819 27.5299 896.898 28.9478 Z" fill="#000000" fill-rule="nonzero" fill-opacity="1" /><path clip-path="url(#clip440)" d="M948.669 48.0275 L948.669 51.6733 L914.398 51.6733 Q914.884 59.3701 919.016 63.421 Q923.188 67.4314 930.602 67.4314 Q934.895 67.4314 938.906 66.3781 Q942.957 65.3249 946.927 63.2184 L946.927 70.267 Q942.916 71.9684 938.703 72.8596 Q934.49 73.7508 930.156 73.7508 Q919.299 73.7508 912.94 67.4314 Q906.62 61.1119 906.62 50.3365 Q906.62 39.1965 912.616 32.6746 Q918.651 26.1121 928.86 26.1121 Q938.015 26.1121 943.321 32.0264 Q948.669 37.9003 948.669 48.0275 M941.215 45.84 Q941.134 39.7232 937.772 36.0774 Q934.45 32.4315 928.941 32.4315 Q922.702 32.4315 918.935 35.9558 Q915.208 39.4801 914.641 45.8805 L941.215 45.84 Z" fill="#000000" fill-rule="nonzero" fill-opacity="1" /><path clip-path="url(#clip440)" d="M962.806 62.2867 L971.354 62.2867 L971.354 72.576 L962.806 72.576 L962.806 62.2867 M962.806 29.6769 L971.354 29.6769 L971.354 39.9662 L962.806 39.9662 L962.806 29.6769 Z" fill="#000000" fill-rule="nonzero" fill-opacity="1" /><path clip-path="url(#clip440)" d="M1015.55 12.096 L1050.31 12.096 L1050.31 18.9825 L1023.73 18.9825 L1023.73 36.8065 L1047.71 36.8065 L1047.71 43.6931 L1023.73 43.6931 L1023.73 72.576 L1015.55 72.576 L1015.55 12.096 Z" fill="#000000" fill-rule="nonzero" fill-opacity="1" /><path clip-path="url(#clip440)" d="M1071.45 43.6931 L1071.45 65.8515 L1084.58 65.8515 Q1091.18 65.8515 1094.34 63.1374 Q1097.54 60.3828 1097.54 54.752 Q1097.54 49.0808 1094.34 46.4072 Q1091.18 43.6931 1084.58 43.6931 L1071.45 43.6931 M1071.45 18.8205 L1071.45 37.0496 L1083.56 37.0496 Q1089.56 37.0496 1092.48 34.8216 Q1095.43 32.5531 1095.43 27.935 Q1095.43 23.3575 1092.48 21.089 Q1089.56 18.8205 1083.56 18.8205 L1071.45 18.8205 M1063.27 12.096 L1084.17 12.096 Q1093.53 12.096 1098.59 15.9849 Q1103.66 19.8737 1103.66 27.0438 Q1103.66 32.5936 1101.06 35.8748 Q1098.47 39.156 1093.45 39.9662 Q1099.48 41.2625 1102.81 45.3944 Q1106.17 49.4858 1106.17 55.6432 Q1106.17 63.745 1100.66 68.1605 Q1095.15 72.576 1084.98 72.576 L1063.27 72.576 L1063.27 12.096 Z" fill="#000000" fill-rule="nonzero" fill-opacity="1" /><path clip-path="url(#clip440)" d="M1128.37 18.8205 L1128.37 65.8515 L1138.25 65.8515 Q1150.77 65.8515 1156.56 60.1802 Q1162.39 54.509 1162.39 42.2752 Q1162.39 30.1225 1156.56 24.4918 Q1150.77 18.8205 1138.25 18.8205 L1128.37 18.8205 M1120.18 12.096 L1137 12.096 Q1154.58 12.096 1162.8 19.4281 Q1171.02 26.7198 1171.02 42.2752 Q1171.02 57.9117 1162.76 65.2439 Q1154.49 72.576 1137 72.576 L1120.18 72.576 L1120.18 12.096 Z" fill="#000000" fill-rule="nonzero" fill-opacity="1" /><path clip-path="url(#clip440)" d="M1184.07 12.096 L1218.82 12.096 L1218.82 18.9825 L1192.25 18.9825 L1192.25 36.8065 L1216.23 36.8065 L1216.23 43.6931 L1192.25 43.6931 L1192.25 72.576 L1184.07 72.576 L1184.07 12.096 Z" fill="#000000" fill-rule="nonzero" fill-opacity="1" /><path clip-path="url(#clip440)" d="M1233.37 62.2867 L1241.91 62.2867 L1241.91 69.2543 L1235.27 82.2172 L1230.04 82.2172 L1233.37 69.2543 L1233.37 62.2867 Z" fill="#000000" fill-rule="nonzero" fill-opacity="1" /><path clip-path="url(#clip440)" d="M1283.92 9.54393 L1291.42 9.54393 L1291.42 46.7717 L1313.66 27.2059 L1323.17 27.2059 L1299.11 48.4326 L1324.19 72.576 L1314.47 72.576 L1291.42 50.4176 L1291.42 72.576 L1283.92 72.576 L1283.92 9.54393 Z" fill="#000000" fill-rule="nonzero" fill-opacity="1" /><path clip-path="url(#clip440)" d="M1359.59 34.9026 L1411.52 34.9026 L1411.52 41.7081 L1359.59 41.7081 L1359.59 34.9026 M1359.59 51.4303 L1411.52 51.4303 L1411.52 58.3168 L1359.59 58.3168 L1359.59 51.4303 Z" fill="#000000" fill-rule="nonzero" fill-opacity="1" /><path clip-path="url(#clip440)" d="M1456.98 65.6895 L1470.34 65.6895 L1470.34 19.5497 L1455.8 22.4663 L1455.8 15.0127 L1470.26 12.096 L1478.45 12.096 L1478.45 65.6895 L1491.81 65.6895 L1491.81 72.576 L1456.98 72.576 L1456.98 65.6895 Z" fill="#000000" fill-rule="nonzero" fill-opacity="1" /><path clip-path="url(#clip440)" d="M1525.84 17.4837 Q1519.52 17.4837 1516.32 23.7221 Q1513.16 29.92 1513.16 42.3968 Q1513.16 54.833 1516.32 61.0714 Q1519.52 67.2693 1525.84 67.2693 Q1532.2 67.2693 1535.36 61.0714 Q1538.56 54.833 1538.56 42.3968 Q1538.56 29.92 1535.36 23.7221 Q1532.2 17.4837 1525.84 17.4837 M1525.84 11.0023 Q1536.01 11.0023 1541.36 19.0636 Q1546.74 27.0843 1546.74 42.3968 Q1546.74 57.6687 1541.36 65.73 Q1536.01 73.7508 1525.84 73.7508 Q1515.67 73.7508 1510.29 65.73 Q1504.94 57.6687 1504.94 42.3968 Q1504.94 27.0843 1510.29 19.0636 Q1515.67 11.0023 1525.84 11.0023 Z" fill="#000000" fill-rule="nonzero" fill-opacity="1" /><path clip-path="url(#clip440)" d="M1561.12 62.2867 L1569.67 62.2867 L1569.67 72.576 L1561.12 72.576 L1561.12 62.2867 Z" fill="#000000" fill-rule="nonzero" fill-opacity="1" /><path clip-path="url(#clip440)" d="M1605 17.4837 Q1598.68 17.4837 1595.48 23.7221 Q1592.32 29.92 1592.32 42.3968 Q1592.32 54.833 1595.48 61.0714 Q1598.68 67.2693 1605 67.2693 Q1611.36 67.2693 1614.52 61.0714 Q1617.72 54.833 1617.72 42.3968 Q1617.72 29.92 1614.52 23.7221 Q1611.36 17.4837 1605 17.4837 M1605 11.0023 Q1615.16 11.0023 1620.51 19.0636 Q1625.9 27.0843 1625.9 42.3968 Q1625.9 57.6687 1620.51 65.73 Q1615.16 73.7508 1605 73.7508 Q1594.83 73.7508 1589.44 65.73 Q1584.09 57.6687 1584.09 42.3968 Q1584.09 27.0843 1589.44 19.0636 Q1594.83 11.0023 1605 11.0023 Z" fill="#000000" fill-rule="nonzero" fill-opacity="1" /><path clip-path="url(#clip440)" d="M1665.92 12.096 L1674.1 12.096 L1674.1 36.8875 L1703.84 36.8875 L1703.84 12.096 L1712.02 12.096 L1712.02 72.576 L1703.84 72.576 L1703.84 43.7741 L1674.1 43.7741 L1674.1 72.576 L1665.92 72.576 L1665.92 12.096 Z" fill="#000000" fill-rule="nonzero" fill-opacity="1" /><path clip-path="url(#clip440)" d="M1743.25 45.1514 Q1741.23 41.6676 1737.14 41.6676 Q1733.05 41.6676 1731.02 45.1514 Q1728.95 48.6352 1728.95 55.6027 Q1728.95 62.6108 1731.02 66.0946 Q1733.05 69.5783 1737.14 69.5783 Q1741.23 69.5783 1743.25 66.0946 Q1745.32 62.6108 1745.32 55.6027 Q1745.32 48.6352 1743.25 45.1514 M1737.14 38.0623 Q1743.66 38.0623 1747.1 42.5588 Q1750.55 47.0553 1750.55 55.6027 Q1750.55 64.1906 1747.1 68.6871 Q1743.66 73.1836 1737.14 73.1836 Q1730.57 73.1836 1727.13 68.6871 Q1723.69 64.1906 1723.69 55.6027 Q1723.69 47.0553 1727.13 42.5588 Q1730.57 38.0623 1737.14 38.0623 Z" fill="#000000" fill-rule="nonzero" fill-opacity="1" /><path clip-path="url(#clip440)" d="M1774.49 12.096 L1781.37 12.096 L1760.31 80.2727 L1753.42 80.2727 L1774.49 12.096 Z" fill="#000000" fill-rule="nonzero" fill-opacity="1" /><path clip-path="url(#clip440)" d="M1821.84 28.9478 L1821.84 35.9153 Q1818.68 34.1734 1815.48 33.3227 Q1812.32 32.4315 1809.08 32.4315 Q1801.83 32.4315 1797.82 37.0496 Q1793.81 41.6271 1793.81 49.9314 Q1793.81 58.2358 1797.82 62.8538 Q1801.83 67.4314 1809.08 67.4314 Q1812.32 67.4314 1815.48 66.5807 Q1818.68 65.6895 1821.84 63.9476 L1821.84 70.8341 Q1818.72 72.2924 1815.36 73.0216 Q1812.04 73.7508 1808.27 73.7508 Q1798.02 73.7508 1791.99 67.3098 Q1785.95 60.8689 1785.95 49.9314 Q1785.95 38.832 1792.03 32.472 Q1798.14 26.1121 1808.76 26.1121 Q1812.2 26.1121 1815.48 26.8413 Q1818.76 27.5299 1821.84 28.9478 Z" fill="#000000" fill-rule="nonzero" fill-opacity="1" /><polyline clip-path="url(#clip441)" style="stroke:#009af9; stroke-linecap:round; stroke-linejoin:round; stroke-width:12; stroke-opacity:1; fill:none" points="1817.61,1199.75 1713.53,1039.89 1608.53,882.899 1506.64,686.408 1406.66,666.355 "/>
<line clip-path="url(#clip441)" x1="1817.61" y1="1199.75" x2="1817.61" y2="1183.75" style="stroke:#009af9; stroke-width:12; stroke-opacity:1"/>
<line clip-path="url(#clip441)" x1="1817.61" y1="1199.75" x2="1801.61" y2="1199.75" style="stroke:#009af9; stroke-width:12; stroke-opacity:1"/>
<line clip-path="url(#clip441)" x1="1817.61" y1="1199.75" x2="1817.61" y2="1215.75" style="stroke:#009af9; stroke-width:12; stroke-opacity:1"/>
<line clip-path="url(#clip441)" x1="1817.61" y1="1199.75" x2="1833.61" y2="1199.75" style="stroke:#009af9; stroke-width:12; stroke-opacity:1"/>
<line clip-path="url(#clip441)" x1="1713.53" y1="1039.89" x2="1713.53" y2="1023.89" style="stroke:#009af9; stroke-width:12; stroke-opacity:1"/>
<line clip-path="url(#clip441)" x1="1713.53" y1="1039.89" x2="1697.53" y2="1039.89" style="stroke:#009af9; stroke-width:12; stroke-opacity:1"/>
<line clip-path="url(#clip441)" x1="1713.53" y1="1039.89" x2="1713.53" y2="1055.89" style="stroke:#009af9; stroke-width:12; stroke-opacity:1"/>
<line clip-path="url(#clip441)" x1="1713.53" y1="1039.89" x2="1729.53" y2="1039.89" style="stroke:#009af9; stroke-width:12; stroke-opacity:1"/>
<line clip-path="url(#clip441)" x1="1608.53" y1="882.899" x2="1608.53" y2="866.899" style="stroke:#009af9; stroke-width:12; stroke-opacity:1"/>
<line clip-path="url(#clip441)" x1="1608.53" y1="882.899" x2="1592.53" y2="882.899" style="stroke:#009af9; stroke-width:12; stroke-opacity:1"/>
<line clip-path="url(#clip441)" x1="1608.53" y1="882.899" x2="1608.53" y2="898.899" style="stroke:#009af9; stroke-width:12; stroke-opacity:1"/>
<line clip-path="url(#clip441)" x1="1608.53" y1="882.899" x2="1624.53" y2="882.899" style="stroke:#009af9; stroke-width:12; stroke-opacity:1"/>
<line clip-path="url(#clip441)" x1="1506.64" y1="686.408" x2="1506.64" y2="670.408" style="stroke:#009af9; stroke-width:12; stroke-opacity:1"/>
<line clip-path="url(#clip441)" x1="1506.64" y1="686.408" x2="1490.64" y2="686.408" style="stroke:#009af9; stroke-width:12; stroke-opacity:1"/>
<line clip-path="url(#clip441)" x1="1506.64" y1="686.408" x2="1506.64" y2="702.408" style="stroke:#009af9; stroke-width:12; stroke-opacity:1"/>
<line clip-path="url(#clip441)" x1="1506.64" y1="686.408" x2="1522.64" y2="686.408" style="stroke:#009af9; stroke-width:12; stroke-opacity:1"/>
<line clip-path="url(#clip441)" x1="1406.66" y1="666.355" x2="1406.66" y2="650.355" style="stroke:#009af9; stroke-width:12; stroke-opacity:1"/>
<line clip-path="url(#clip441)" x1="1406.66" y1="666.355" x2="1390.66" y2="666.355" style="stroke:#009af9; stroke-width:12; stroke-opacity:1"/>
<line clip-path="url(#clip441)" x1="1406.66" y1="666.355" x2="1406.66" y2="682.355" style="stroke:#009af9; stroke-width:12; stroke-opacity:1"/>
<line clip-path="url(#clip441)" x1="1406.66" y1="666.355" x2="1422.66" y2="666.355" style="stroke:#009af9; stroke-width:12; stroke-opacity:1"/>
<polyline clip-path="url(#clip441)" style="stroke:#e26f46; stroke-linecap:round; stroke-linejoin:round; stroke-width:12; stroke-opacity:1; fill:none" points="1696.92,1081.44 1558.86,1030.76 1394.21,878.845 1234.31,761.499 1073.41,677.04 "/>
<circle clip-path="url(#clip441)" cx="1696.92" cy="1081.44" r="14.4" fill="#e26f46" fill-rule="evenodd" fill-opacity="1" stroke="#000000" stroke-opacity="1" stroke-width="3.2"/>
<circle clip-path="url(#clip441)" cx="1558.86" cy="1030.76" r="14.4" fill="#e26f46" fill-rule="evenodd" fill-opacity="1" stroke="#000000" stroke-opacity="1" stroke-width="3.2"/>
<circle clip-path="url(#clip441)" cx="1394.21" cy="878.845" r="14.4" fill="#e26f46" fill-rule="evenodd" fill-opacity="1" stroke="#000000" stroke-opacity="1" stroke-width="3.2"/>
<circle clip-path="url(#clip441)" cx="1234.31" cy="761.499" r="14.4" fill="#e26f46" fill-rule="evenodd" fill-opacity="1" stroke="#000000" stroke-opacity="1" stroke-width="3.2"/>
<circle clip-path="url(#clip441)" cx="1073.41" cy="677.04" r="14.4" fill="#e26f46" fill-rule="evenodd" fill-opacity="1" stroke="#000000" stroke-opacity="1" stroke-width="3.2"/>
<polyline clip-path="url(#clip441)" style="stroke:#3da44d; stroke-linecap:round; stroke-linejoin:round; stroke-width:12; stroke-opacity:1; fill:none" points="1661.58,884.139 1527.48,886.027 1376.37,789.898 1225.05,717.689 1075.85,673.698 "/>
<line clip-path="url(#clip441)" x1="1661.58" y1="884.139" x2="1661.58" y2="868.139" style="stroke:#3da44d; stroke-width:12; stroke-opacity:1"/>
<line clip-path="url(#clip441)" x1="1661.58" y1="884.139" x2="1645.58" y2="884.139" style="stroke:#3da44d; stroke-width:12; stroke-opacity:1"/>
<line clip-path="url(#clip441)" x1="1661.58" y1="884.139" x2="1661.58" y2="900.139" style="stroke:#3da44d; stroke-width:12; stroke-opacity:1"/>
<line clip-path="url(#clip441)" x1="1661.58" y1="884.139" x2="1677.58" y2="884.139" style="stroke:#3da44d; stroke-width:12; stroke-opacity:1"/>
<line clip-path="url(#clip441)" x1="1527.48" y1="886.027" x2="1527.48" y2="870.027" style="stroke:#3da44d; stroke-width:12; stroke-opacity:1"/>
<line clip-path="url(#clip441)" x1="1527.48" y1="886.027" x2="1511.48" y2="886.027" style="stroke:#3da44d; stroke-width:12; stroke-opacity:1"/>
<line clip-path="url(#clip441)" x1="1527.48" y1="886.027" x2="1527.48" y2="902.027" style="stroke:#3da44d; stroke-width:12; stroke-opacity:1"/>
<line clip-path="url(#clip441)" x1="1527.48" y1="886.027" x2="1543.48" y2="886.027" style="stroke:#3da44d; stroke-width:12; stroke-opacity:1"/>
<line clip-path="url(#clip441)" x1="1376.37" y1="789.898" x2="1376.37" y2="773.898" style="stroke:#3da44d; stroke-width:12; stroke-opacity:1"/>
<line clip-path="url(#clip441)" x1="1376.37" y1="789.898" x2="1360.37" y2="789.898" style="stroke:#3da44d; stroke-width:12; stroke-opacity:1"/>
<line clip-path="url(#clip441)" x1="1376.37" y1="789.898" x2="1376.37" y2="805.898" style="stroke:#3da44d; stroke-width:12; stroke-opacity:1"/>
<line clip-path="url(#clip441)" x1="1376.37" y1="789.898" x2="1392.37" y2="789.898" style="stroke:#3da44d; stroke-width:12; stroke-opacity:1"/>
<line clip-path="url(#clip441)" x1="1225.05" y1="717.689" x2="1225.05" y2="701.689" style="stroke:#3da44d; stroke-width:12; stroke-opacity:1"/>
<line clip-path="url(#clip441)" x1="1225.05" y1="717.689" x2="1209.05" y2="717.689" style="stroke:#3da44d; stroke-width:12; stroke-opacity:1"/>
<line clip-path="url(#clip441)" x1="1225.05" y1="717.689" x2="1225.05" y2="733.689" style="stroke:#3da44d; stroke-width:12; stroke-opacity:1"/>
<line clip-path="url(#clip441)" x1="1225.05" y1="717.689" x2="1241.05" y2="717.689" style="stroke:#3da44d; stroke-width:12; stroke-opacity:1"/>
<line clip-path="url(#clip441)" x1="1075.85" y1="673.698" x2="1075.85" y2="657.698" style="stroke:#3da44d; stroke-width:12; stroke-opacity:1"/>
<line clip-path="url(#clip441)" x1="1075.85" y1="673.698" x2="1059.85" y2="673.698" style="stroke:#3da44d; stroke-width:12; stroke-opacity:1"/>
<line clip-path="url(#clip441)" x1="1075.85" y1="673.698" x2="1075.85" y2="689.698" style="stroke:#3da44d; stroke-width:12; stroke-opacity:1"/>
<line clip-path="url(#clip441)" x1="1075.85" y1="673.698" x2="1091.85" y2="673.698" style="stroke:#3da44d; stroke-width:12; stroke-opacity:1"/>
<polyline clip-path="url(#clip441)" style="stroke:#c271d2; stroke-linecap:round; stroke-linejoin:round; stroke-width:12; stroke-opacity:1; fill:none" points="1624.73,888.67 1452.23,735.343 1291.95,544.07 1140.46,337.978 1104.83,158.126 "/>
<path clip-path="url(#clip441)" d="M1624.73 872.67 L1608.73 888.67 L1624.73 904.67 L1640.73 888.67 L1624.73 872.67 Z" fill="#c271d2" fill-rule="evenodd" fill-opacity="1" stroke="#000000" stroke-opacity="1" stroke-width="3.2"/>
<path clip-path="url(#clip441)" d="M1452.23 719.343 L1436.23 735.343 L1452.23 751.343 L1468.23 735.343 L1452.23 719.343 Z" fill="#c271d2" fill-rule="evenodd" fill-opacity="1" stroke="#000000" stroke-opacity="1" stroke-width="3.2"/>
<path clip-path="url(#clip441)" d="M1291.95 528.07 L1275.95 544.07 L1291.95 560.07 L1307.95 544.07 L1291.95 528.07 Z" fill="#c271d2" fill-rule="evenodd" fill-opacity="1" stroke="#000000" stroke-opacity="1" stroke-width="3.2"/>
<path clip-path="url(#clip441)" d="M1140.46 321.978 L1124.46 337.978 L1140.46 353.978 L1156.46 337.978 L1140.46 321.978 Z" fill="#c271d2" fill-rule="evenodd" fill-opacity="1" stroke="#000000" stroke-opacity="1" stroke-width="3.2"/>
<path clip-path="url(#clip441)" d="M1104.83 142.126 L1088.83 158.126 L1104.83 174.126 L1120.83 158.126 L1104.83 142.126 Z" fill="#c271d2" fill-rule="evenodd" fill-opacity="1" stroke="#000000" stroke-opacity="1" stroke-width="3.2"/>
<polyline clip-path="url(#clip441)" style="stroke:#ac8d18; stroke-linecap:round; stroke-linejoin:round; stroke-width:12; stroke-opacity:1; fill:none" points="1520.6,1295.66 1281.75,1016.93 1135.17,1111.81 978.144,1000.17 815.161,866.467 "/>
<path clip-path="url(#clip441)" d="M1536.6 1279.66 L1504.6 1279.66 L1520.6 1311.66 L1536.6 1279.66 Z" fill="#ac8d18" fill-rule="evenodd" fill-opacity="1" stroke="#000000" stroke-opacity="1" stroke-width="3.2"/>
<path clip-path="url(#clip441)" d="M1297.75 1000.93 L1265.75 1000.93 L1281.75 1032.93 L1297.75 1000.93 Z" fill="#ac8d18" fill-rule="evenodd" fill-opacity="1" stroke="#000000" stroke-opacity="1" stroke-width="3.2"/>
<path clip-path="url(#clip441)" d="M1151.17 1095.81 L1119.17 1095.81 L1135.17 1127.81 L1151.17 1095.81 Z" fill="#ac8d18" fill-rule="evenodd" fill-opacity="1" stroke="#000000" stroke-opacity="1" stroke-width="3.2"/>
<path clip-path="url(#clip441)" d="M994.144 984.173 L962.144 984.173 L978.144 1016.17 L994.144 984.173 Z" fill="#ac8d18" fill-rule="evenodd" fill-opacity="1" stroke="#000000" stroke-opacity="1" stroke-width="3.2"/>
<path clip-path="url(#clip441)" d="M831.161 850.467 L799.161 850.467 L815.161 882.467 L831.161 850.467 Z" fill="#ac8d18" fill-rule="evenodd" fill-opacity="1" stroke="#000000" stroke-opacity="1" stroke-width="3.2"/>
<polyline clip-path="url(#clip441)" style="stroke:#00a9ad; stroke-linecap:round; stroke-linejoin:round; stroke-width:12; stroke-opacity:1; fill:none" points="1350.55,1313.25 1325.31,1219.37 1151.08,1063.7 792.199,924.584 774.082,751.986 "/>
<path clip-path="url(#clip441)" d="M1350.55 1297.25 L1338.04 1303.28 L1334.95 1316.82 L1343.61 1327.67 L1357.5 1327.67 L1366.15 1316.82 L1363.07 1303.28 Z" fill="#00a9ad" fill-rule="evenodd" fill-opacity="1" stroke="#000000" stroke-opacity="1" stroke-width="3.2"/>
<path clip-path="url(#clip441)" d="M1325.31 1203.37 L1312.8 1209.4 L1309.71 1222.94 L1318.36 1233.78 L1332.25 1233.78 L1340.91 1222.94 L1337.82 1209.4 Z" fill="#00a9ad" fill-rule="evenodd" fill-opacity="1" stroke="#000000" stroke-opacity="1" stroke-width="3.2"/>
<path clip-path="url(#clip441)" d="M1151.08 1047.7 L1138.57 1053.73 L1135.48 1067.27 L1144.14 1078.12 L1158.03 1078.12 L1166.68 1067.27 L1163.6 1053.73 Z" fill="#00a9ad" fill-rule="evenodd" fill-opacity="1" stroke="#000000" stroke-opacity="1" stroke-width="3.2"/>
<path clip-path="url(#clip441)" d="M792.199 908.584 L779.687 914.616 L776.599 928.152 L785.255 939 L799.143 939 L807.799 928.152 L804.711 914.616 Z" fill="#00a9ad" fill-rule="evenodd" fill-opacity="1" stroke="#000000" stroke-opacity="1" stroke-width="3.2"/>
<path clip-path="url(#clip441)" d="M774.082 735.986 L761.57 742.018 L758.482 755.554 L767.138 766.402 L781.026 766.402 L789.682 755.554 L786.594 742.018 Z" fill="#00a9ad" fill-rule="evenodd" fill-opacity="1" stroke="#000000" stroke-opacity="1" stroke-width="3.2"/>
<polyline clip-path="url(#clip441)" style="stroke:#ed5d92; stroke-linecap:round; stroke-linejoin:round; stroke-width:12; stroke-opacity:1; fill:none" points="1296.36,1118.46 950.96,976.989 826.74,814.672 547.689,650.794 593.378,484.723 "/>
<path clip-path="url(#clip441)" d="M1296.36 1134.46 L1282.5 1126.46 L1282.5 1110.46 L1296.36 1102.46 L1310.21 1110.46 L1310.21 1126.46 Z" fill="#ed5d92" fill-rule="evenodd" fill-opacity="1" stroke="#000000" stroke-opacity="1" stroke-width="3.2"/>
<path clip-path="url(#clip441)" d="M950.96 992.989 L937.104 984.989 L937.104 968.989 L950.96 960.989 L964.816 968.989 L964.816 984.989 Z" fill="#ed5d92" fill-rule="evenodd" fill-opacity="1" stroke="#000000" stroke-opacity="1" stroke-width="3.2"/>
<path clip-path="url(#clip441)" d="M826.74 830.672 L812.884 822.672 L812.884 806.672 L826.74 798.672 L840.596 806.672 L840.596 822.672 Z" fill="#ed5d92" fill-rule="evenodd" fill-opacity="1" stroke="#000000" stroke-opacity="1" stroke-width="3.2"/>
<path clip-path="url(#clip441)" d="M547.689 666.794 L533.833 658.794 L533.833 642.794 L547.689 634.794 L561.545 642.794 L561.545 658.794 Z" fill="#ed5d92" fill-rule="evenodd" fill-opacity="1" stroke="#000000" stroke-opacity="1" stroke-width="3.2"/>
<path clip-path="url(#clip441)" d="M593.378 500.723 L579.522 492.723 L579.522 476.723 L593.378 468.723 L607.234 476.723 L607.234 492.723 Z" fill="#ed5d92" fill-rule="evenodd" fill-opacity="1" stroke="#000000" stroke-opacity="1" stroke-width="3.2"/>
<path clip-path="url(#clip440)" d="M1917.14 957.943 L2352.76 957.943 L2352.76 543.223 L1917.14 543.223  Z" fill="#ffffff" fill-rule="evenodd" fill-opacity="1"/>
<polyline clip-path="url(#clip440)" style="stroke:#000000; stroke-linecap:round; stroke-linejoin:round; stroke-width:4; stroke-opacity:1; fill:none" points="1917.14,957.943 2352.76,957.943 2352.76,543.223 1917.14,543.223 1917.14,957.943 "/>
<polyline clip-path="url(#clip440)" style="stroke:#009af9; stroke-linecap:round; stroke-linejoin:round; stroke-width:12; stroke-opacity:1; fill:none" points="1937.62,595.063 2060.5,595.063 "/>
<line clip-path="url(#clip440)" x1="1999.06" y1="595.063" x2="1999.06" y2="576.1" style="stroke:#009af9; stroke-width:12; stroke-opacity:1"/>
<line clip-path="url(#clip440)" x1="1999.06" y1="595.063" x2="1980.1" y2="595.063" style="stroke:#009af9; stroke-width:12; stroke-opacity:1"/>
<line clip-path="url(#clip440)" x1="1999.06" y1="595.063" x2="1999.06" y2="614.025" style="stroke:#009af9; stroke-width:12; stroke-opacity:1"/>
<line clip-path="url(#clip440)" x1="1999.06" y1="595.063" x2="2018.03" y2="595.063" style="stroke:#009af9; stroke-width:12; stroke-opacity:1"/>
<path clip-path="url(#clip440)" d="M2080.98 577.783 L2110.22 577.783 L2110.22 581.718 L2097.95 581.718 L2097.95 612.343 L2093.25 612.343 L2093.25 581.718 L2080.98 581.718 L2080.98 577.783 Z" fill="#000000" fill-rule="nonzero" fill-opacity="1" /><path clip-path="url(#clip440)" d="M2131.12 596.139 Q2132.62 596.648 2134.04 598.315 Q2135.47 599.982 2136.91 602.898 L2141.65 612.343 L2136.63 612.343 L2132.21 603.477 Q2130.49 600.005 2128.87 598.871 Q2127.28 597.736 2124.5 597.736 L2119.41 597.736 L2119.41 612.343 L2114.73 612.343 L2114.73 577.783 L2125.29 577.783 Q2131.21 577.783 2134.13 580.26 Q2137.05 582.736 2137.05 587.736 Q2137.05 591 2135.52 593.153 Q2134.01 595.306 2131.12 596.139 M2119.41 581.625 L2119.41 593.894 L2125.29 593.894 Q2128.67 593.894 2130.38 592.343 Q2132.12 590.769 2132.12 587.736 Q2132.12 584.704 2130.38 583.176 Q2128.67 581.625 2125.29 581.625 L2119.41 581.625 Z" fill="#000000" fill-rule="nonzero" fill-opacity="1" /><path clip-path="url(#clip440)" d="M2152.35 595.838 L2152.35 608.5 L2159.85 608.5 Q2163.62 608.5 2165.43 606.949 Q2167.25 605.375 2167.25 602.158 Q2167.25 598.917 2165.43 597.389 Q2163.62 595.838 2159.85 595.838 L2152.35 595.838 M2152.35 581.625 L2152.35 592.042 L2159.27 592.042 Q2162.69 592.042 2164.36 590.769 Q2166.05 589.472 2166.05 586.834 Q2166.05 584.218 2164.36 582.922 Q2162.69 581.625 2159.27 581.625 L2152.35 581.625 M2147.67 577.783 L2159.62 577.783 Q2164.96 577.783 2167.86 580.005 Q2170.75 582.227 2170.75 586.324 Q2170.75 589.496 2169.27 591.371 Q2167.79 593.246 2164.92 593.709 Q2168.37 594.449 2170.26 596.81 Q2172.18 599.148 2172.18 602.667 Q2172.18 607.296 2169.04 609.82 Q2165.89 612.343 2160.08 612.343 L2147.67 612.343 L2147.67 577.783 Z" fill="#000000" fill-rule="nonzero" fill-opacity="1" /><path clip-path="url(#clip440)" d="M2184.87 581.625 L2184.87 608.5 L2190.52 608.5 Q2197.67 608.5 2200.98 605.259 Q2204.31 602.019 2204.31 595.028 Q2204.31 588.084 2200.98 584.866 Q2197.67 581.625 2190.52 581.625 L2184.87 581.625 M2180.19 577.783 L2189.8 577.783 Q2199.85 577.783 2204.55 581.973 Q2209.24 586.139 2209.24 595.028 Q2209.24 603.963 2204.52 608.153 Q2199.8 612.343 2189.8 612.343 L2180.19 612.343 L2180.19 577.783 Z" fill="#000000" fill-rule="nonzero" fill-opacity="1" /><path clip-path="url(#clip440)" d="M2216.7 577.783 L2236.56 577.783 L2236.56 581.718 L2221.37 581.718 L2221.37 591.903 L2235.08 591.903 L2235.08 595.838 L2221.37 595.838 L2221.37 612.343 L2216.7 612.343 L2216.7 577.783 Z" fill="#000000" fill-rule="nonzero" fill-opacity="1" /><path clip-path="url(#clip440)" d="M2248.41 608.408 L2264.73 608.408 L2264.73 612.343 L2242.79 612.343 L2242.79 608.408 Q2245.45 605.653 2250.03 601.023 Q2254.64 596.371 2255.82 595.028 Q2258.06 592.505 2258.94 590.769 Q2259.85 589.01 2259.85 587.32 Q2259.85 584.565 2257.9 582.829 Q2255.98 581.093 2252.88 581.093 Q2250.68 581.093 2248.23 581.857 Q2245.8 582.621 2243.02 584.172 L2243.02 579.449 Q2245.84 578.315 2248.3 577.736 Q2250.75 577.158 2252.79 577.158 Q2258.16 577.158 2261.35 579.843 Q2264.55 582.528 2264.55 587.019 Q2264.55 589.148 2263.74 591.07 Q2262.95 592.968 2260.84 595.56 Q2260.26 596.232 2257.16 599.449 Q2254.06 602.644 2248.41 608.408 Z" fill="#000000" fill-rule="nonzero" fill-opacity="1" /><polyline clip-path="url(#clip440)" style="stroke:#e26f46; stroke-linecap:round; stroke-linejoin:round; stroke-width:12; stroke-opacity:1; fill:none" points="1937.62,646.903 2060.5,646.903 "/>
<circle clip-path="url(#clip440)" cx="1999.06" cy="646.903" r="17.0663" fill="#e26f46" fill-rule="evenodd" fill-opacity="1" stroke="#000000" stroke-opacity="1" stroke-width="4.55111"/>
<path clip-path="url(#clip440)" d="M2080.98 629.623 L2085.66 629.623 L2085.66 644.229 L2101.17 629.623 L2107.18 629.623 L2090.03 645.734 L2108.41 664.183 L2102.25 664.183 L2085.66 647.539 L2085.66 664.183 L2080.98 664.183 L2080.98 629.623 Z" fill="#000000" fill-rule="nonzero" fill-opacity="1" /><path clip-path="url(#clip440)" d="M2131.7 650.155 L2131.7 652.238 L2112.12 652.238 Q2112.39 656.636 2114.75 658.951 Q2117.14 661.243 2121.37 661.243 Q2123.83 661.243 2126.12 660.641 Q2128.43 660.039 2130.7 658.836 L2130.7 662.863 Q2128.41 663.836 2126 664.345 Q2123.6 664.854 2121.12 664.854 Q2114.92 664.854 2111.28 661.243 Q2107.67 657.632 2107.67 651.474 Q2107.67 645.109 2111.1 641.382 Q2114.55 637.632 2120.38 637.632 Q2125.61 637.632 2128.64 641.012 Q2131.7 644.368 2131.7 650.155 M2127.44 648.905 Q2127.39 645.41 2125.47 643.326 Q2123.57 641.243 2120.43 641.243 Q2116.86 641.243 2114.71 643.257 Q2112.58 645.271 2112.25 648.928 L2127.44 648.905 Z" fill="#000000" fill-rule="nonzero" fill-opacity="1" /><path clip-path="url(#clip440)" d="M2160.24 648.535 L2160.24 664.183 L2155.98 664.183 L2155.98 648.674 Q2155.98 644.993 2154.55 643.164 Q2153.11 641.336 2150.24 641.336 Q2146.79 641.336 2144.8 643.535 Q2142.81 645.734 2142.81 649.53 L2142.81 664.183 L2138.53 664.183 L2138.53 638.257 L2142.81 638.257 L2142.81 642.285 Q2144.34 639.947 2146.4 638.789 Q2148.48 637.632 2151.19 637.632 Q2155.66 637.632 2157.95 640.41 Q2160.24 643.164 2160.24 648.535 Z" fill="#000000" fill-rule="nonzero" fill-opacity="1" /><path clip-path="url(#clip440)" d="M2194.8 632.285 L2194.8 637.215 Q2192.44 635.016 2189.75 633.928 Q2187.09 632.84 2184.08 632.84 Q2178.16 632.84 2175.01 636.475 Q2171.86 640.086 2171.86 646.937 Q2171.86 653.766 2175.01 657.4 Q2178.16 661.011 2184.08 661.011 Q2187.09 661.011 2189.75 659.923 Q2192.44 658.836 2194.8 656.636 L2194.8 661.521 Q2192.35 663.187 2189.59 664.021 Q2186.86 664.854 2183.8 664.854 Q2175.96 664.854 2171.44 660.062 Q2166.93 655.248 2166.93 646.937 Q2166.93 638.604 2171.44 633.813 Q2175.96 628.998 2183.8 628.998 Q2186.91 628.998 2189.64 629.831 Q2192.39 630.641 2194.8 632.285 Z" fill="#000000" fill-rule="nonzero" fill-opacity="1" /><path clip-path="url(#clip440)" d="M2213.62 651.15 Q2208.46 651.15 2206.47 652.331 Q2204.48 653.511 2204.48 656.359 Q2204.48 658.627 2205.96 659.97 Q2207.46 661.289 2210.03 661.289 Q2213.57 661.289 2215.7 658.789 Q2217.86 656.266 2217.86 652.099 L2217.86 651.15 L2213.62 651.15 M2222.11 649.391 L2222.11 664.183 L2217.86 664.183 L2217.86 660.248 Q2216.4 662.609 2214.22 663.743 Q2212.05 664.854 2208.9 664.854 Q2204.92 664.854 2202.55 662.632 Q2200.22 660.386 2200.22 656.636 Q2200.22 652.262 2203.13 650.039 Q2206.07 647.817 2211.88 647.817 L2217.86 647.817 L2217.86 647.4 Q2217.86 644.461 2215.91 642.863 Q2213.99 641.243 2210.49 641.243 Q2208.27 641.243 2206.17 641.775 Q2204.06 642.308 2202.11 643.373 L2202.11 639.437 Q2204.45 638.535 2206.65 638.095 Q2208.85 637.632 2210.93 637.632 Q2216.56 637.632 2219.34 640.549 Q2222.11 643.465 2222.11 649.391 Z" fill="#000000" fill-rule="nonzero" fill-opacity="1" /><path clip-path="url(#clip440)" d="M2245.91 642.238 Q2245.19 641.822 2244.34 641.637 Q2243.5 641.428 2242.49 641.428 Q2238.87 641.428 2236.93 643.789 Q2235.01 646.127 2235.01 650.525 L2235.01 664.183 L2230.73 664.183 L2230.73 638.257 L2235.01 638.257 L2235.01 642.285 Q2236.35 639.924 2238.5 638.789 Q2240.66 637.632 2243.74 637.632 Q2244.17 637.632 2244.71 637.701 Q2245.24 637.748 2245.89 637.863 L2245.91 642.238 Z" fill="#000000" fill-rule="nonzero" fill-opacity="1" /><path clip-path="url(#clip440)" d="M2254.5 660.294 L2254.5 674.044 L2250.22 674.044 L2250.22 638.257 L2254.5 638.257 L2254.5 642.192 Q2255.84 639.877 2257.88 638.766 Q2259.94 637.632 2262.79 637.632 Q2267.51 637.632 2270.45 641.382 Q2273.41 645.132 2273.41 651.243 Q2273.41 657.354 2270.45 661.104 Q2267.51 664.854 2262.79 664.854 Q2259.94 664.854 2257.88 663.743 Q2255.84 662.609 2254.5 660.294 M2268.99 651.243 Q2268.99 646.544 2267.05 643.882 Q2265.12 641.197 2261.74 641.197 Q2258.36 641.197 2256.42 643.882 Q2254.5 646.544 2254.5 651.243 Q2254.5 655.942 2256.42 658.627 Q2258.36 661.289 2261.74 661.289 Q2265.12 661.289 2267.05 658.627 Q2268.99 655.942 2268.99 651.243 Z" fill="#000000" fill-rule="nonzero" fill-opacity="1" /><path clip-path="url(#clip440)" d="M2293.92 633.697 L2282.11 652.146 L2293.92 652.146 L2293.92 633.697 M2292.69 629.623 L2298.57 629.623 L2298.57 652.146 L2303.5 652.146 L2303.5 656.035 L2298.57 656.035 L2298.57 664.183 L2293.92 664.183 L2293.92 656.035 L2278.32 656.035 L2278.32 651.521 L2292.69 629.623 Z" fill="#000000" fill-rule="nonzero" fill-opacity="1" /><polyline clip-path="url(#clip440)" style="stroke:#3da44d; stroke-linecap:round; stroke-linejoin:round; stroke-width:12; stroke-opacity:1; fill:none" points="1937.62,698.743 2060.5,698.743 "/>
<line clip-path="url(#clip440)" x1="1999.06" y1="698.743" x2="1999.06" y2="679.78" style="stroke:#3da44d; stroke-width:12; stroke-opacity:1"/>
<line clip-path="url(#clip440)" x1="1999.06" y1="698.743" x2="1980.1" y2="698.743" style="stroke:#3da44d; stroke-width:12; stroke-opacity:1"/>
<line clip-path="url(#clip440)" x1="1999.06" y1="698.743" x2="1999.06" y2="717.705" style="stroke:#3da44d; stroke-width:12; stroke-opacity:1"/>
<line clip-path="url(#clip440)" x1="1999.06" y1="698.743" x2="2018.03" y2="698.743" style="stroke:#3da44d; stroke-width:12; stroke-opacity:1"/>
<path clip-path="url(#clip440)" d="M2080.98 681.463 L2085.66 681.463 L2085.66 696.069 L2101.17 681.463 L2107.18 681.463 L2090.03 697.574 L2108.41 716.023 L2102.25 716.023 L2085.66 699.379 L2085.66 716.023 L2080.98 716.023 L2080.98 681.463 Z" fill="#000000" fill-rule="nonzero" fill-opacity="1" /><path clip-path="url(#clip440)" d="M2131.7 701.995 L2131.7 704.078 L2112.12 704.078 Q2112.39 708.476 2114.75 710.791 Q2117.14 713.083 2121.37 713.083 Q2123.83 713.083 2126.12 712.481 Q2128.43 711.879 2130.7 710.676 L2130.7 714.703 Q2128.41 715.676 2126 716.185 Q2123.6 716.694 2121.12 716.694 Q2114.92 716.694 2111.28 713.083 Q2107.67 709.472 2107.67 703.314 Q2107.67 696.949 2111.1 693.222 Q2114.55 689.472 2120.38 689.472 Q2125.61 689.472 2128.64 692.852 Q2131.7 696.208 2131.7 701.995 M2127.44 700.745 Q2127.39 697.25 2125.47 695.166 Q2123.57 693.083 2120.43 693.083 Q2116.86 693.083 2114.71 695.097 Q2112.58 697.111 2112.25 700.768 L2127.44 700.745 Z" fill="#000000" fill-rule="nonzero" fill-opacity="1" /><path clip-path="url(#clip440)" d="M2160.24 700.375 L2160.24 716.023 L2155.98 716.023 L2155.98 700.514 Q2155.98 696.833 2154.55 695.004 Q2153.11 693.176 2150.24 693.176 Q2146.79 693.176 2144.8 695.375 Q2142.81 697.574 2142.81 701.37 L2142.81 716.023 L2138.53 716.023 L2138.53 690.097 L2142.81 690.097 L2142.81 694.125 Q2144.34 691.787 2146.4 690.629 Q2148.48 689.472 2151.19 689.472 Q2155.66 689.472 2157.95 692.25 Q2160.24 695.004 2160.24 700.375 Z" fill="#000000" fill-rule="nonzero" fill-opacity="1" /><path clip-path="url(#clip440)" d="M2194.8 684.125 L2194.8 689.055 Q2192.44 686.856 2189.75 685.768 Q2187.09 684.68 2184.08 684.68 Q2178.16 684.68 2175.01 688.315 Q2171.86 691.926 2171.86 698.777 Q2171.86 705.606 2175.01 709.24 Q2178.16 712.851 2184.08 712.851 Q2187.09 712.851 2189.75 711.763 Q2192.44 710.676 2194.8 708.476 L2194.8 713.361 Q2192.35 715.027 2189.59 715.861 Q2186.86 716.694 2183.8 716.694 Q2175.96 716.694 2171.44 711.902 Q2166.93 707.088 2166.93 698.777 Q2166.93 690.444 2171.44 685.653 Q2175.96 680.838 2183.8 680.838 Q2186.91 680.838 2189.64 681.671 Q2192.39 682.481 2194.8 684.125 Z" fill="#000000" fill-rule="nonzero" fill-opacity="1" /><path clip-path="url(#clip440)" d="M2213.62 702.99 Q2208.46 702.99 2206.47 704.171 Q2204.48 705.351 2204.48 708.199 Q2204.48 710.467 2205.96 711.81 Q2207.46 713.129 2210.03 713.129 Q2213.57 713.129 2215.7 710.629 Q2217.86 708.106 2217.86 703.939 L2217.86 702.99 L2213.62 702.99 M2222.11 701.231 L2222.11 716.023 L2217.86 716.023 L2217.86 712.088 Q2216.4 714.449 2214.22 715.583 Q2212.05 716.694 2208.9 716.694 Q2204.92 716.694 2202.55 714.472 Q2200.22 712.226 2200.22 708.476 Q2200.22 704.102 2203.13 701.879 Q2206.07 699.657 2211.88 699.657 L2217.86 699.657 L2217.86 699.24 Q2217.86 696.301 2215.91 694.703 Q2213.99 693.083 2210.49 693.083 Q2208.27 693.083 2206.17 693.615 Q2204.06 694.148 2202.11 695.213 L2202.11 691.277 Q2204.45 690.375 2206.65 689.935 Q2208.85 689.472 2210.93 689.472 Q2216.56 689.472 2219.34 692.389 Q2222.11 695.305 2222.11 701.231 Z" fill="#000000" fill-rule="nonzero" fill-opacity="1" /><path clip-path="url(#clip440)" d="M2245.91 694.078 Q2245.19 693.662 2244.34 693.477 Q2243.5 693.268 2242.49 693.268 Q2238.87 693.268 2236.93 695.629 Q2235.01 697.967 2235.01 702.365 L2235.01 716.023 L2230.73 716.023 L2230.73 690.097 L2235.01 690.097 L2235.01 694.125 Q2236.35 691.764 2238.5 690.629 Q2240.66 689.472 2243.74 689.472 Q2244.17 689.472 2244.71 689.541 Q2245.24 689.588 2245.89 689.703 L2245.91 694.078 Z" fill="#000000" fill-rule="nonzero" fill-opacity="1" /><path clip-path="url(#clip440)" d="M2254.5 712.134 L2254.5 725.884 L2250.22 725.884 L2250.22 690.097 L2254.5 690.097 L2254.5 694.032 Q2255.84 691.717 2257.88 690.606 Q2259.94 689.472 2262.79 689.472 Q2267.51 689.472 2270.45 693.222 Q2273.41 696.972 2273.41 703.083 Q2273.41 709.194 2270.45 712.944 Q2267.51 716.694 2262.79 716.694 Q2259.94 716.694 2257.88 715.583 Q2255.84 714.449 2254.5 712.134 M2268.99 703.083 Q2268.99 698.384 2267.05 695.722 Q2265.12 693.037 2261.74 693.037 Q2258.36 693.037 2256.42 695.722 Q2254.5 698.384 2254.5 703.083 Q2254.5 707.782 2256.42 710.467 Q2258.36 713.129 2261.74 713.129 Q2265.12 713.129 2267.05 710.467 Q2268.99 707.782 2268.99 703.083 Z" fill="#000000" fill-rule="nonzero" fill-opacity="1" /><path clip-path="url(#clip440)" d="M2293.92 685.537 L2282.11 703.986 L2293.92 703.986 L2293.92 685.537 M2292.69 681.463 L2298.57 681.463 L2298.57 703.986 L2303.5 703.986 L2303.5 707.875 L2298.57 707.875 L2298.57 716.023 L2293.92 716.023 L2293.92 707.875 L2278.32 707.875 L2278.32 703.361 L2292.69 681.463 Z" fill="#000000" fill-rule="nonzero" fill-opacity="1" /><path clip-path="url(#clip440)" d="M2310.05 681.463 L2332.28 681.463 L2332.28 683.453 L2319.73 716.023 L2314.85 716.023 L2326.65 685.398 L2310.05 685.398 L2310.05 681.463 Z" fill="#000000" fill-rule="nonzero" fill-opacity="1" /><polyline clip-path="url(#clip440)" style="stroke:#c271d2; stroke-linecap:round; stroke-linejoin:round; stroke-width:12; stroke-opacity:1; fill:none" points="1937.62,750.583 2060.5,750.583 "/>
<path clip-path="url(#clip440)" d="M1999.06 731.62 L1980.1 750.583 L1999.06 769.545 L2018.03 750.583 L1999.06 731.62 Z" fill="#c271d2" fill-rule="evenodd" fill-opacity="1" stroke="#000000" stroke-opacity="1" stroke-width="4.55111"/>
<path clip-path="url(#clip440)" d="M2080.98 733.303 L2085.66 733.303 L2085.66 747.909 L2101.17 733.303 L2107.18 733.303 L2090.03 749.414 L2108.41 767.863 L2102.25 767.863 L2085.66 751.219 L2085.66 767.863 L2080.98 767.863 L2080.98 733.303 Z" fill="#000000" fill-rule="nonzero" fill-opacity="1" /><path clip-path="url(#clip440)" d="M2108.83 741.937 L2113.34 741.937 L2121.44 763.696 L2129.55 741.937 L2134.06 741.937 L2124.34 767.863 L2118.55 767.863 L2108.83 741.937 Z" fill="#000000" fill-rule="nonzero" fill-opacity="1" /><path clip-path="url(#clip440)" d="M2151.72 754.83 Q2146.56 754.83 2144.57 756.011 Q2142.58 757.191 2142.58 760.039 Q2142.58 762.307 2144.06 763.65 Q2145.56 764.969 2148.13 764.969 Q2151.68 764.969 2153.81 762.469 Q2155.96 759.946 2155.96 755.779 L2155.96 754.83 L2151.72 754.83 M2160.22 753.071 L2160.22 767.863 L2155.96 767.863 L2155.96 763.928 Q2154.5 766.289 2152.32 767.423 Q2150.15 768.534 2147 768.534 Q2143.02 768.534 2140.66 766.312 Q2138.32 764.066 2138.32 760.316 Q2138.32 755.942 2141.24 753.719 Q2144.18 751.497 2149.99 751.497 L2155.96 751.497 L2155.96 751.08 Q2155.96 748.141 2154.01 746.543 Q2152.09 744.923 2148.6 744.923 Q2146.37 744.923 2144.27 745.455 Q2142.16 745.988 2140.22 747.053 L2140.22 743.117 Q2142.56 742.215 2144.75 741.775 Q2146.95 741.312 2149.04 741.312 Q2154.66 741.312 2157.44 744.229 Q2160.22 747.145 2160.22 753.071 Z" fill="#000000" fill-rule="nonzero" fill-opacity="1" /><path clip-path="url(#clip440)" d="M2191.17 753.835 L2191.17 755.918 L2171.58 755.918 Q2171.86 760.316 2174.22 762.631 Q2176.61 764.923 2180.84 764.923 Q2183.3 764.923 2185.59 764.321 Q2187.9 763.719 2190.17 762.516 L2190.17 766.543 Q2187.88 767.516 2185.47 768.025 Q2183.06 768.534 2180.59 768.534 Q2174.38 768.534 2170.75 764.923 Q2167.14 761.312 2167.14 755.154 Q2167.14 748.789 2170.56 745.062 Q2174.01 741.312 2179.85 741.312 Q2185.08 741.312 2188.11 744.692 Q2191.17 748.048 2191.17 753.835 M2186.91 752.585 Q2186.86 749.09 2184.94 747.006 Q2183.04 744.923 2179.89 744.923 Q2176.33 744.923 2174.18 746.937 Q2172.05 748.951 2171.72 752.608 L2186.91 752.585 Z" fill="#000000" fill-rule="nonzero" fill-opacity="1" /><path clip-path="url(#clip440)" d="M2213.18 745.918 Q2212.46 745.502 2211.61 745.317 Q2210.77 745.108 2209.75 745.108 Q2206.14 745.108 2204.2 747.469 Q2202.28 749.807 2202.28 754.205 L2202.28 767.863 L2197.99 767.863 L2197.99 741.937 L2202.28 741.937 L2202.28 745.965 Q2203.62 743.604 2205.77 742.469 Q2207.93 741.312 2211 741.312 Q2211.44 741.312 2211.98 741.381 Q2212.51 741.428 2213.16 741.543 L2213.18 745.918 Z" fill="#000000" fill-rule="nonzero" fill-opacity="1" /><path clip-path="url(#clip440)" d="M2238.36 752.215 L2238.36 767.863 L2234.11 767.863 L2234.11 752.354 Q2234.11 748.673 2232.67 746.844 Q2231.24 745.016 2228.36 745.016 Q2224.92 745.016 2222.93 747.215 Q2220.93 749.414 2220.93 753.21 L2220.93 767.863 L2216.65 767.863 L2216.65 741.937 L2220.93 741.937 L2220.93 745.965 Q2222.46 743.627 2224.52 742.469 Q2226.61 741.312 2229.31 741.312 Q2233.78 741.312 2236.07 744.09 Q2238.36 746.844 2238.36 752.215 Z" fill="#000000" fill-rule="nonzero" fill-opacity="1" /><path clip-path="url(#clip440)" d="M2256.91 744.923 Q2253.48 744.923 2251.49 747.608 Q2249.5 750.27 2249.5 754.923 Q2249.5 759.576 2251.47 762.261 Q2253.46 764.923 2256.91 764.923 Q2260.31 764.923 2262.3 762.238 Q2264.29 759.553 2264.29 754.923 Q2264.29 750.317 2262.3 747.631 Q2260.31 744.923 2256.91 744.923 M2256.91 741.312 Q2262.46 741.312 2265.63 744.923 Q2268.8 748.534 2268.8 754.923 Q2268.8 761.289 2265.63 764.923 Q2262.46 768.534 2256.91 768.534 Q2251.33 768.534 2248.16 764.923 Q2245.01 761.289 2245.01 754.923 Q2245.01 748.534 2248.16 744.923 Q2251.33 741.312 2256.91 741.312 Z" fill="#000000" fill-rule="nonzero" fill-opacity="1" /><path clip-path="url(#clip440)" d="M2276.51 733.303 L2294.87 733.303 L2294.87 737.238 L2280.8 737.238 L2280.8 745.71 Q2281.81 745.363 2282.83 745.201 Q2283.85 745.016 2284.87 745.016 Q2290.66 745.016 2294.04 748.187 Q2297.42 751.358 2297.42 756.775 Q2297.42 762.354 2293.94 765.455 Q2290.47 768.534 2284.15 768.534 Q2281.98 768.534 2279.71 768.164 Q2277.46 767.793 2275.05 767.053 L2275.05 762.354 Q2277.14 763.488 2279.36 764.043 Q2281.58 764.599 2284.06 764.599 Q2288.06 764.599 2290.4 762.492 Q2292.74 760.386 2292.74 756.775 Q2292.74 753.164 2290.4 751.057 Q2288.06 748.951 2284.06 748.951 Q2282.18 748.951 2280.31 749.367 Q2278.46 749.784 2276.51 750.664 L2276.51 733.303 Z" fill="#000000" fill-rule="nonzero" fill-opacity="1" /><polyline clip-path="url(#clip440)" style="stroke:#ac8d18; stroke-linecap:round; stroke-linejoin:round; stroke-width:12; stroke-opacity:1; fill:none" points="1937.62,802.423 2060.5,802.423 "/>
<path clip-path="url(#clip440)" d="M2018.03 783.46 L1980.1 783.46 L1999.06 821.385 L2018.03 783.46 Z" fill="#ac8d18" fill-rule="evenodd" fill-opacity="1" stroke="#000000" stroke-opacity="1" stroke-width="4.55111"/>
<path clip-path="url(#clip440)" d="M2097 788.314 Q2091.91 788.314 2088.9 792.11 Q2085.91 795.907 2085.91 802.457 Q2085.91 808.985 2088.9 812.781 Q2091.91 816.578 2097 816.578 Q2102.09 816.578 2105.06 812.781 Q2108.04 808.985 2108.04 802.457 Q2108.04 795.907 2105.06 792.11 Q2102.09 788.314 2097 788.314 M2103.55 819.078 L2109.71 825.814 L2104.06 825.814 L2098.94 820.281 Q2098.18 820.328 2097.76 820.351 Q2097.37 820.374 2097 820.374 Q2089.71 820.374 2085.33 815.513 Q2080.98 810.629 2080.98 802.457 Q2080.98 794.263 2085.33 789.402 Q2089.71 784.518 2097 784.518 Q2104.27 784.518 2108.62 789.402 Q2112.97 794.263 2112.97 802.457 Q2112.97 808.476 2110.54 812.758 Q2108.13 817.041 2103.55 819.078 Z" fill="#000000" fill-rule="nonzero" fill-opacity="1" /><path clip-path="url(#clip440)" d="M2120.29 785.143 L2126.58 785.143 L2141.91 814.055 L2141.91 785.143 L2146.44 785.143 L2146.44 819.703 L2140.15 819.703 L2124.82 790.791 L2124.82 819.703 L2120.29 819.703 L2120.29 785.143 Z" fill="#000000" fill-rule="nonzero" fill-opacity="1" /><path clip-path="url(#clip440)" d="M2160.43 788.985 L2160.43 815.86 L2166.07 815.86 Q2173.23 815.86 2176.54 812.619 Q2179.87 809.379 2179.87 802.388 Q2179.87 795.444 2176.54 792.226 Q2173.23 788.985 2166.07 788.985 L2160.43 788.985 M2155.75 785.143 L2165.36 785.143 Q2175.4 785.143 2180.1 789.333 Q2184.8 793.499 2184.8 802.388 Q2184.8 811.323 2180.08 815.513 Q2175.36 819.703 2165.36 819.703 L2155.75 819.703 L2155.75 785.143 Z" fill="#000000" fill-rule="nonzero" fill-opacity="1" /><path clip-path="url(#clip440)" d="M2192.25 785.143 L2212.11 785.143 L2212.11 789.078 L2196.93 789.078 L2196.93 799.263 L2210.63 799.263 L2210.63 803.198 L2196.93 803.198 L2196.93 819.703 L2192.25 819.703 L2192.25 785.143 Z" fill="#000000" fill-rule="nonzero" fill-opacity="1" /><polyline clip-path="url(#clip440)" style="stroke:#00a9ad; stroke-linecap:round; stroke-linejoin:round; stroke-width:12; stroke-opacity:1; fill:none" points="1937.62,854.263 2060.5,854.263 "/>
<path clip-path="url(#clip440)" d="M1999.06 835.3 L1984.23 842.449 L1980.57 858.491 L1990.83 871.348 L2007.29 871.348 L2017.55 858.491 L2013.89 842.449 Z" fill="#00a9ad" fill-rule="evenodd" fill-opacity="1" stroke="#000000" stroke-opacity="1" stroke-width="4.55111"/>
<path clip-path="url(#clip440)" d="M2080.98 836.983 L2100.84 836.983 L2100.84 840.918 L2085.66 840.918 L2085.66 851.103 L2099.36 851.103 L2099.36 855.038 L2085.66 855.038 L2085.66 871.543 L2080.98 871.543 L2080.98 836.983 Z" fill="#000000" fill-rule="nonzero" fill-opacity="1" /><path clip-path="url(#clip440)" d="M2112.93 855.038 L2112.93 867.7 L2120.43 867.7 Q2124.2 867.7 2126 866.149 Q2127.83 864.575 2127.83 861.358 Q2127.83 858.117 2126 856.589 Q2124.2 855.038 2120.43 855.038 L2112.93 855.038 M2112.93 840.825 L2112.93 851.242 L2119.85 851.242 Q2123.27 851.242 2124.94 849.969 Q2126.63 848.672 2126.63 846.034 Q2126.63 843.418 2124.94 842.122 Q2123.27 840.825 2119.85 840.825 L2112.93 840.825 M2108.25 836.983 L2120.19 836.983 Q2125.54 836.983 2128.43 839.205 Q2131.33 841.427 2131.33 845.524 Q2131.33 848.696 2129.85 850.571 Q2128.37 852.446 2125.5 852.909 Q2128.94 853.649 2130.84 856.01 Q2132.76 858.348 2132.76 861.867 Q2132.76 866.496 2129.62 869.02 Q2126.47 871.543 2120.66 871.543 L2108.25 871.543 L2108.25 836.983 Z" fill="#000000" fill-rule="nonzero" fill-opacity="1" /><path clip-path="url(#clip440)" d="M2145.45 840.825 L2145.45 867.7 L2151.1 867.7 Q2158.25 867.7 2161.56 864.459 Q2164.89 861.219 2164.89 854.228 Q2164.89 847.284 2161.56 844.066 Q2158.25 840.825 2151.1 840.825 L2145.45 840.825 M2140.77 836.983 L2150.38 836.983 Q2160.43 836.983 2165.12 841.173 Q2169.82 845.339 2169.82 854.228 Q2169.82 863.163 2165.1 867.353 Q2160.38 871.543 2150.38 871.543 L2140.77 871.543 L2140.77 836.983 Z" fill="#000000" fill-rule="nonzero" fill-opacity="1" /><path clip-path="url(#clip440)" d="M2177.28 836.983 L2197.14 836.983 L2197.14 840.918 L2181.95 840.918 L2181.95 851.103 L2195.66 851.103 L2195.66 855.038 L2181.95 855.038 L2181.95 871.543 L2177.28 871.543 L2177.28 836.983 Z" fill="#000000" fill-rule="nonzero" fill-opacity="1" /><polyline clip-path="url(#clip440)" style="stroke:#ed5d92; stroke-linecap:round; stroke-linejoin:round; stroke-width:12; stroke-opacity:1; fill:none" points="1937.62,906.103 2060.5,906.103 "/>
<path clip-path="url(#clip440)" d="M1999.06 925.065 L1982.64 915.584 L1982.64 896.621 L1999.06 887.14 L2015.48 896.621 L2015.48 915.584 Z" fill="#ed5d92" fill-rule="evenodd" fill-opacity="1" stroke="#000000" stroke-opacity="1" stroke-width="4.55111"/>
<path clip-path="url(#clip440)" d="M2097.37 907.179 Q2098.87 907.688 2100.29 909.355 Q2101.72 911.022 2103.16 913.938 L2107.9 923.383 L2102.88 923.383 L2098.46 914.517 Q2096.75 911.045 2095.12 909.911 Q2093.53 908.776 2090.75 908.776 L2085.66 908.776 L2085.66 923.383 L2080.98 923.383 L2080.98 888.823 L2091.54 888.823 Q2097.46 888.823 2100.38 891.3 Q2103.3 893.776 2103.3 898.776 Q2103.3 902.04 2101.77 904.193 Q2100.26 906.346 2097.37 907.179 M2085.66 892.665 L2085.66 904.934 L2091.54 904.934 Q2094.92 904.934 2096.63 903.383 Q2098.37 901.809 2098.37 898.776 Q2098.37 895.744 2096.63 894.216 Q2094.92 892.665 2091.54 892.665 L2085.66 892.665 Z" fill="#000000" fill-rule="nonzero" fill-opacity="1" /><path clip-path="url(#clip440)" d="M2121.65 900.443 Q2118.23 900.443 2116.24 903.128 Q2114.25 905.79 2114.25 910.443 Q2114.25 915.096 2116.21 917.781 Q2118.2 920.443 2121.65 920.443 Q2125.06 920.443 2127.05 917.758 Q2129.04 915.073 2129.04 910.443 Q2129.04 905.837 2127.05 903.151 Q2125.06 900.443 2121.65 900.443 M2121.65 896.832 Q2127.21 896.832 2130.38 900.443 Q2133.55 904.054 2133.55 910.443 Q2133.55 916.809 2130.38 920.443 Q2127.21 924.054 2121.65 924.054 Q2116.07 924.054 2112.9 920.443 Q2109.75 916.809 2109.75 910.443 Q2109.75 904.054 2112.9 900.443 Q2116.07 896.832 2121.65 896.832 Z" fill="#000000" fill-rule="nonzero" fill-opacity="1" /><path clip-path="url(#clip440)" d="M2157.67 901.392 L2157.67 887.364 L2161.93 887.364 L2161.93 923.383 L2157.67 923.383 L2157.67 919.494 Q2156.33 921.809 2154.27 922.943 Q2152.23 924.054 2149.36 924.054 Q2144.66 924.054 2141.7 920.304 Q2138.76 916.554 2138.76 910.443 Q2138.76 904.332 2141.7 900.582 Q2144.66 896.832 2149.36 896.832 Q2152.23 896.832 2154.27 897.966 Q2156.33 899.077 2157.67 901.392 M2143.16 910.443 Q2143.16 915.142 2145.08 917.827 Q2147.02 920.489 2150.4 920.489 Q2153.78 920.489 2155.73 917.827 Q2157.67 915.142 2157.67 910.443 Q2157.67 905.744 2155.73 903.082 Q2153.78 900.397 2150.4 900.397 Q2147.02 900.397 2145.08 903.082 Q2143.16 905.744 2143.16 910.443 Z" fill="#000000" fill-rule="nonzero" fill-opacity="1" /><path clip-path="url(#clip440)" d="M2182.49 910.35 Q2177.32 910.35 2175.33 911.531 Q2173.34 912.711 2173.34 915.559 Q2173.34 917.827 2174.82 919.17 Q2176.33 920.489 2178.9 920.489 Q2182.44 920.489 2184.57 917.989 Q2186.72 915.466 2186.72 911.299 L2186.72 910.35 L2182.49 910.35 M2190.98 908.591 L2190.98 923.383 L2186.72 923.383 L2186.72 919.448 Q2185.26 921.809 2183.09 922.943 Q2180.91 924.054 2177.76 924.054 Q2173.78 924.054 2171.42 921.832 Q2169.08 919.586 2169.08 915.836 Q2169.08 911.462 2172 909.239 Q2174.94 907.017 2180.75 907.017 L2186.72 907.017 L2186.72 906.6 Q2186.72 903.661 2184.78 902.063 Q2182.86 900.443 2179.36 900.443 Q2177.14 900.443 2175.03 900.975 Q2172.93 901.508 2170.98 902.573 L2170.98 898.637 Q2173.32 897.735 2175.52 897.295 Q2177.72 896.832 2179.8 896.832 Q2185.43 896.832 2188.2 899.749 Q2190.98 902.665 2190.98 908.591 Z" fill="#000000" fill-rule="nonzero" fill-opacity="1" /><path clip-path="url(#clip440)" d="M2216.28 898.221 L2216.28 902.249 Q2214.48 901.323 2212.53 900.86 Q2210.59 900.397 2208.5 900.397 Q2205.33 900.397 2203.74 901.369 Q2202.16 902.341 2202.16 904.286 Q2202.16 905.767 2203.3 906.624 Q2204.43 907.457 2207.86 908.221 L2209.31 908.545 Q2213.85 909.517 2215.75 911.299 Q2217.67 913.059 2217.67 916.23 Q2217.67 919.841 2214.8 921.948 Q2211.95 924.054 2206.95 924.054 Q2204.87 924.054 2202.6 923.637 Q2200.36 923.244 2197.86 922.434 L2197.86 918.036 Q2200.22 919.262 2202.51 919.887 Q2204.8 920.489 2207.05 920.489 Q2210.05 920.489 2211.68 919.471 Q2213.3 918.429 2213.3 916.554 Q2213.3 914.818 2212.11 913.892 Q2210.96 912.966 2207 912.11 L2205.52 911.762 Q2201.56 910.929 2199.8 909.216 Q2198.04 907.48 2198.04 904.471 Q2198.04 900.813 2200.63 898.823 Q2203.23 896.832 2207.99 896.832 Q2210.36 896.832 2212.44 897.179 Q2214.52 897.526 2216.28 898.221 Z" fill="#000000" fill-rule="nonzero" fill-opacity="1" /><path clip-path="url(#clip440)" d="M2225.1 888.823 L2243.46 888.823 L2243.46 892.758 L2229.38 892.758 L2229.38 901.23 Q2230.4 900.883 2231.42 900.721 Q2232.44 900.536 2233.46 900.536 Q2239.24 900.536 2242.62 903.707 Q2246 906.878 2246 912.295 Q2246 917.874 2242.53 920.975 Q2239.06 924.054 2232.74 924.054 Q2230.56 924.054 2228.3 923.684 Q2226.05 923.313 2223.64 922.573 L2223.64 917.874 Q2225.73 919.008 2227.95 919.563 Q2230.17 920.119 2232.65 920.119 Q2236.65 920.119 2238.99 918.012 Q2241.33 915.906 2241.33 912.295 Q2241.33 908.684 2238.99 906.577 Q2236.65 904.471 2232.65 904.471 Q2230.77 904.471 2228.9 904.887 Q2227.05 905.304 2225.1 906.184 L2225.1 888.823 Z" fill="#000000" fill-rule="nonzero" fill-opacity="1" /><path clip-path="url(#clip440)" d="M2259.48 892.665 L2259.48 905.651 L2265.36 905.651 Q2268.62 905.651 2270.4 903.962 Q2272.18 902.272 2272.18 899.147 Q2272.18 896.045 2270.4 894.355 Q2268.62 892.665 2265.36 892.665 L2259.48 892.665 M2254.8 888.823 L2265.36 888.823 Q2271.17 888.823 2274.13 891.462 Q2277.11 894.077 2277.11 899.147 Q2277.11 904.262 2274.13 906.878 Q2271.17 909.494 2265.36 909.494 L2259.48 909.494 L2259.48 923.383 L2254.8 923.383 L2254.8 888.823 Z" fill="#000000" fill-rule="nonzero" fill-opacity="1" /></svg>
