<?xml version="1.0" encoding="utf-8"?>
<svg xmlns="http://www.w3.org/2000/svg" xmlns:xlink="http://www.w3.org/1999/xlink" width="800" height="400" viewBox="0 0 3200 1600">
<defs>
  <clipPath id="clip910">
    <rect x="0" y="0" width="3200" height="1600"/>
  </clipPath>
</defs>
<path clip-path="url(#clip910)" d="M0 1600 L3200 1600 L3200 0 L0 0  Z" fill="#ffffff" fill-rule="evenodd" fill-opacity="1"/>
<defs>
  <clipPath id="clip911">
    <rect x="640" y="0" width="2241" height="1600"/>
  </clipPath>
</defs>
<path clip-path="url(#clip910)" d="M364.733 1495.09 L3152.76 1495.09 L3152.76 47.2441 L364.733 47.2441  Z" fill="#ffffff" fill-rule="evenodd" fill-opacity="1"/>
<defs>
  <clipPath id="clip912">
    <rect x="364" y="47" width="2789" height="1449"/>
  </clipPath>
</defs>
<polyline clip-path="url(#clip912)" style="stroke:#000000; stroke-linecap:round; stroke-linejoin:round; stroke-width:2; stroke-opacity:0.1; fill:none" points="735.885,1495.09 735.885,47.2441 "/>
<polyline clip-path="url(#clip912)" style="stroke:#000000; stroke-linecap:round; stroke-linejoin:round; stroke-width:2; stroke-opacity:0.1; fill:none" points="1758.74,1495.09 1758.74,47.2441 "/>
<polyline clip-path="url(#clip912)" style="stroke:#000000; stroke-linecap:round; stroke-linejoin:round; stroke-width:2; stroke-opacity:0.1; fill:none" points="2781.6,1495.09 2781.6,47.2441 "/>
<polyline clip-path="url(#clip912)" style="stroke:#000000; stroke-linecap:round; stroke-linejoin:round; stroke-width:2; stroke-opacity:0.1; fill:none" points="364.733,1331.31 3152.76,1331.31 "/>
<polyline clip-path="url(#clip912)" style="stroke:#000000; stroke-linecap:round; stroke-linejoin:round; stroke-width:2; stroke-opacity:0.1; fill:none" points="364.733,1093.67 3152.76,1093.67 "/>
<polyline clip-path="url(#clip912)" style="stroke:#000000; stroke-linecap:round; stroke-linejoin:round; stroke-width:2; stroke-opacity:0.1; fill:none" points="364.733,856.018 3152.76,856.018 "/>
<polyline clip-path="url(#clip912)" style="stroke:#000000; stroke-linecap:round; stroke-linejoin:round; stroke-width:2; stroke-opacity:0.1; fill:none" points="364.733,618.369 3152.76,618.369 "/>
<polyline clip-path="url(#clip912)" style="stroke:#000000; stroke-linecap:round; stroke-linejoin:round; stroke-width:2; stroke-opacity:0.1; fill:none" points="364.733,380.721 3152.76,380.721 "/>
<polyline clip-path="url(#clip912)" style="stroke:#000000; stroke-linecap:round; stroke-linejoin:round; stroke-width:2; stroke-opacity:0.1; fill:none" points="364.733,143.072 3152.76,143.072 "/>
<polyline clip-path="url(#clip910)" style="stroke:#000000; stroke-linecap:round; stroke-linejoin:round; stroke-width:4; stroke-opacity:1; fill:none" points="364.733,1495.09 3152.76,1495.09 "/>
<polyline clip-path="url(#clip910)" style="stroke:#000000; stroke-linecap:round; stroke-linejoin:round; stroke-width:4; stroke-opacity:1; fill:none" points="735.885,1495.09 735.885,1476.19 "/>
<polyline clip-path="url(#clip910)" style="stroke:#000000; stroke-linecap:round; stroke-linejoin:round; stroke-width:4; stroke-opacity:1; fill:none" points="1758.74,1495.09 1758.74,1476.19 "/>
<polyline clip-path="url(#clip910)" style="stroke:#000000; stroke-linecap:round; stroke-linejoin:round; stroke-width:4; stroke-opacity:1; fill:none" points="2781.6,1495.09 2781.6,1476.19 "/>
<path clip-path="url(#clip910)" d="M545.619 1547.68 Q547.124 1548.19 548.536 1549.86 Q549.971 1551.53 551.406 1554.44 L556.152 1563.89 L551.129 1563.89 L546.707 1555.02 Q544.994 1551.55 543.374 1550.42 Q541.777 1549.28 538.999 1549.28 L533.906 1549.28 L533.906 1563.89 L529.231 1563.89 L529.231 1529.33 L539.786 1529.33 Q545.712 1529.33 548.629 1531.8 Q551.545 1534.28 551.545 1539.28 Q551.545 1542.55 550.017 1544.7 Q548.513 1546.85 545.619 1547.68 M533.906 1533.17 L533.906 1545.44 L539.786 1545.44 Q543.166 1545.44 544.879 1543.89 Q546.615 1542.31 546.615 1539.28 Q546.615 1536.25 544.879 1534.72 Q543.166 1533.17 539.786 1533.17 L533.906 1533.17 Z" fill="#000000" fill-rule="nonzero" fill-opacity="1" /><path clip-path="url(#clip910)" d="M562.17 1529.33 L582.031 1529.33 L582.031 1533.26 L566.846 1533.26 L566.846 1543.45 L580.55 1543.45 L580.55 1547.38 L566.846 1547.38 L566.846 1563.89 L562.17 1563.89 L562.17 1529.33 Z" fill="#000000" fill-rule="nonzero" fill-opacity="1" /><path clip-path="url(#clip910)" d="M589.439 1529.33 L594.114 1529.33 L594.114 1559.95 L610.943 1559.95 L610.943 1563.89 L589.439 1563.89 L589.439 1529.33 Z" fill="#000000" fill-rule="nonzero" fill-opacity="1" /><path clip-path="url(#clip910)" d="M612.957 1529.33 L617.656 1529.33 L617.656 1550.32 Q617.656 1555.88 619.67 1558.33 Q621.684 1560.76 626.198 1560.76 Q630.688 1560.76 632.702 1558.33 Q634.716 1555.88 634.716 1550.32 L634.716 1529.33 L639.415 1529.33 L639.415 1550.9 Q639.415 1557.66 636.059 1561.11 Q632.725 1564.56 626.198 1564.56 Q619.647 1564.56 616.29 1561.11 Q612.957 1557.66 612.957 1550.9 L612.957 1529.33 Z" fill="#000000" fill-rule="nonzero" fill-opacity="1" /><path clip-path="url(#clip910)" d="M648.188 1529.33 L668.049 1529.33 L668.049 1533.26 L652.864 1533.26 L652.864 1543.45 L666.568 1543.45 L666.568 1547.38 L652.864 1547.38 L652.864 1563.89 L648.188 1563.89 L648.188 1529.33 Z" fill="#000000" fill-rule="nonzero" fill-opacity="1" /><path clip-path="url(#clip910)" d="M682.702 1550.86 Q677.54 1550.86 675.549 1552.04 Q673.558 1553.22 673.558 1556.06 Q673.558 1558.33 675.04 1559.67 Q676.545 1560.99 679.114 1560.99 Q682.656 1560.99 684.785 1558.49 Q686.938 1555.97 686.938 1551.8 L686.938 1550.86 L682.702 1550.86 M691.197 1549.1 L691.197 1563.89 L686.938 1563.89 L686.938 1559.95 Q685.48 1562.31 683.304 1563.45 Q681.128 1564.56 677.98 1564.56 Q673.998 1564.56 671.637 1562.34 Q669.299 1560.09 669.299 1556.34 Q669.299 1551.97 672.216 1549.74 Q675.156 1547.52 680.966 1547.52 L686.938 1547.52 L686.938 1547.11 Q686.938 1544.17 684.994 1542.57 Q683.072 1540.95 679.577 1540.95 Q677.355 1540.95 675.248 1541.48 Q673.142 1542.01 671.197 1543.08 L671.197 1539.14 Q673.535 1538.24 675.734 1537.8 Q677.933 1537.34 680.017 1537.34 Q685.642 1537.34 688.42 1540.25 Q691.197 1543.17 691.197 1549.1 Z" fill="#000000" fill-rule="nonzero" fill-opacity="1" /><path clip-path="url(#clip910)" d="M718.628 1538.96 L718.628 1542.94 Q716.822 1541.94 714.993 1541.46 Q713.188 1540.95 711.336 1540.95 Q707.193 1540.95 704.901 1543.59 Q702.609 1546.2 702.609 1550.95 Q702.609 1555.69 704.901 1558.33 Q707.193 1560.95 711.336 1560.95 Q713.188 1560.95 714.993 1560.46 Q716.822 1559.95 718.628 1558.96 L718.628 1562.89 Q716.845 1563.73 714.924 1564.14 Q713.026 1564.56 710.873 1564.56 Q705.017 1564.56 701.568 1560.88 Q698.119 1557.2 698.119 1550.95 Q698.119 1544.61 701.591 1540.97 Q705.086 1537.34 711.151 1537.34 Q713.118 1537.34 714.993 1537.75 Q716.868 1538.15 718.628 1538.96 Z" fill="#000000" fill-rule="nonzero" fill-opacity="1" /><path clip-path="url(#clip910)" d="M730.248 1530.6 L730.248 1537.96 L739.021 1537.96 L739.021 1541.27 L730.248 1541.27 L730.248 1555.35 Q730.248 1558.52 731.104 1559.42 Q731.984 1560.32 734.646 1560.32 L739.021 1560.32 L739.021 1563.89 L734.646 1563.89 Q729.716 1563.89 727.841 1562.06 Q725.966 1560.21 725.966 1555.35 L725.966 1541.27 L722.841 1541.27 L722.841 1537.96 L725.966 1537.96 L725.966 1530.6 L730.248 1530.6 Z" fill="#000000" fill-rule="nonzero" fill-opacity="1" /><path clip-path="url(#clip910)" d="M754.669 1540.95 Q751.243 1540.95 749.253 1543.63 Q747.262 1546.3 747.262 1550.95 Q747.262 1555.6 749.229 1558.29 Q751.22 1560.95 754.669 1560.95 Q758.072 1560.95 760.063 1558.26 Q762.053 1555.58 762.053 1550.95 Q762.053 1546.34 760.063 1543.66 Q758.072 1540.95 754.669 1540.95 M754.669 1537.34 Q760.225 1537.34 763.396 1540.95 Q766.567 1544.56 766.567 1550.95 Q766.567 1557.31 763.396 1560.95 Q760.225 1564.56 754.669 1564.56 Q749.09 1564.56 745.919 1560.95 Q742.771 1557.31 742.771 1550.95 Q742.771 1544.56 745.919 1540.95 Q749.09 1537.34 754.669 1537.34 Z" fill="#000000" fill-rule="nonzero" fill-opacity="1" /><path clip-path="url(#clip910)" d="M788.65 1541.94 Q787.933 1541.53 787.076 1541.34 Q786.243 1541.13 785.225 1541.13 Q781.613 1541.13 779.669 1543.49 Q777.748 1545.83 777.748 1550.23 L777.748 1563.89 L773.465 1563.89 L773.465 1537.96 L777.748 1537.96 L777.748 1541.99 Q779.09 1539.63 781.243 1538.49 Q783.396 1537.34 786.475 1537.34 Q786.914 1537.34 787.447 1537.41 Q787.979 1537.45 788.627 1537.57 L788.65 1541.94 Z" fill="#000000" fill-rule="nonzero" fill-opacity="1" /><path clip-path="url(#clip910)" d="M793.118 1537.96 L797.377 1537.96 L797.377 1563.89 L793.118 1563.89 L793.118 1537.96 M793.118 1527.87 L797.377 1527.87 L797.377 1533.26 L793.118 1533.26 L793.118 1527.87 Z" fill="#000000" fill-rule="nonzero" fill-opacity="1" /><path clip-path="url(#clip910)" d="M804.437 1537.96 L824.669 1537.96 L824.669 1541.85 L808.65 1560.49 L824.669 1560.49 L824.669 1563.89 L803.859 1563.89 L803.859 1560 L819.877 1541.36 L804.437 1541.36 L804.437 1537.96 Z" fill="#000000" fill-rule="nonzero" fill-opacity="1" /><path clip-path="url(#clip910)" d="M842.956 1550.86 Q837.794 1550.86 835.803 1552.04 Q833.812 1553.22 833.812 1556.06 Q833.812 1558.33 835.294 1559.67 Q836.798 1560.99 839.368 1560.99 Q842.909 1560.99 845.039 1558.49 Q847.192 1555.97 847.192 1551.8 L847.192 1550.86 L842.956 1550.86 M851.451 1549.1 L851.451 1563.89 L847.192 1563.89 L847.192 1559.95 Q845.733 1562.31 843.558 1563.45 Q841.382 1564.56 838.234 1564.56 Q834.252 1564.56 831.891 1562.34 Q829.553 1560.09 829.553 1556.34 Q829.553 1551.97 832.47 1549.74 Q835.409 1547.52 841.22 1547.52 L847.192 1547.52 L847.192 1547.11 Q847.192 1544.17 845.247 1542.57 Q843.326 1540.95 839.831 1540.95 Q837.609 1540.95 835.502 1541.48 Q833.396 1542.01 831.451 1543.08 L831.451 1539.14 Q833.789 1538.24 835.988 1537.8 Q838.187 1537.34 840.271 1537.34 Q845.896 1537.34 848.673 1540.25 Q851.451 1543.17 851.451 1549.1 Z" fill="#000000" fill-rule="nonzero" fill-opacity="1" /><path clip-path="url(#clip910)" d="M864.437 1530.6 L864.437 1537.96 L873.21 1537.96 L873.21 1541.27 L864.437 1541.27 L864.437 1555.35 Q864.437 1558.52 865.294 1559.42 Q866.173 1560.32 868.835 1560.32 L873.21 1560.32 L873.21 1563.89 L868.835 1563.89 Q863.905 1563.89 862.03 1562.06 Q860.155 1560.21 860.155 1555.35 L860.155 1541.27 L857.03 1541.27 L857.03 1537.96 L860.155 1537.96 L860.155 1530.6 L864.437 1530.6 Z" fill="#000000" fill-rule="nonzero" fill-opacity="1" /><path clip-path="url(#clip910)" d="M878.812 1537.96 L883.071 1537.96 L883.071 1563.89 L878.812 1563.89 L878.812 1537.96 M878.812 1527.87 L883.071 1527.87 L883.071 1533.26 L878.812 1533.26 L878.812 1527.87 Z" fill="#000000" fill-rule="nonzero" fill-opacity="1" /><path clip-path="url(#clip910)" d="M902.029 1540.95 Q898.604 1540.95 896.613 1543.63 Q894.622 1546.3 894.622 1550.95 Q894.622 1555.6 896.59 1558.29 Q898.58 1560.95 902.029 1560.95 Q905.432 1560.95 907.423 1558.26 Q909.414 1555.58 909.414 1550.95 Q909.414 1546.34 907.423 1543.66 Q905.432 1540.95 902.029 1540.95 M902.029 1537.34 Q907.585 1537.34 910.756 1540.95 Q913.928 1544.56 913.928 1550.95 Q913.928 1557.31 910.756 1560.95 Q907.585 1564.56 902.029 1564.56 Q896.451 1564.56 893.28 1560.95 Q890.131 1557.31 890.131 1550.95 Q890.131 1544.56 893.28 1540.95 Q896.451 1537.34 902.029 1537.34 Z" fill="#000000" fill-rule="nonzero" fill-opacity="1" /><path clip-path="url(#clip910)" d="M942.539 1548.24 L942.539 1563.89 L938.279 1563.89 L938.279 1548.38 Q938.279 1544.7 936.844 1542.87 Q935.409 1541.04 932.539 1541.04 Q929.09 1541.04 927.099 1543.24 Q925.108 1545.44 925.108 1549.24 L925.108 1563.89 L920.826 1563.89 L920.826 1537.96 L925.108 1537.96 L925.108 1541.99 Q926.636 1539.65 928.696 1538.49 Q930.779 1537.34 933.488 1537.34 Q937.955 1537.34 940.247 1540.11 Q942.539 1542.87 942.539 1548.24 Z" fill="#000000" fill-rule="nonzero" fill-opacity="1" /><path clip-path="url(#clip910)" d="M1582.19 1529.33 L1586.87 1529.33 L1586.87 1559.95 L1603.7 1559.95 L1603.7 1563.89 L1582.19 1563.89 L1582.19 1529.33 Z" fill="#000000" fill-rule="nonzero" fill-opacity="1" /><path clip-path="url(#clip910)" d="M1605.71 1529.33 L1610.41 1529.33 L1610.41 1550.32 Q1610.41 1555.88 1612.43 1558.33 Q1614.44 1560.76 1618.95 1560.76 Q1623.44 1560.76 1625.46 1558.33 Q1627.47 1555.88 1627.47 1550.32 L1627.47 1529.33 L1632.17 1529.33 L1632.17 1550.9 Q1632.17 1557.66 1628.81 1561.11 Q1625.48 1564.56 1618.95 1564.56 Q1612.4 1564.56 1609.05 1561.11 Q1605.71 1557.66 1605.71 1550.9 L1605.71 1529.33 Z" fill="#000000" fill-rule="nonzero" fill-opacity="1" /><path clip-path="url(#clip910)" d="M1640.94 1529.33 L1660.8 1529.33 L1660.8 1533.26 L1645.62 1533.26 L1645.62 1543.45 L1659.32 1543.45 L1659.32 1547.38 L1645.62 1547.38 L1645.62 1563.89 L1640.94 1563.89 L1640.94 1529.33 Z" fill="#000000" fill-rule="nonzero" fill-opacity="1" /><path clip-path="url(#clip910)" d="M1675.46 1550.86 Q1670.3 1550.86 1668.3 1552.04 Q1666.31 1553.22 1666.31 1556.06 Q1666.31 1558.33 1667.8 1559.67 Q1669.3 1560.99 1671.87 1560.99 Q1675.41 1560.99 1677.54 1558.49 Q1679.69 1555.97 1679.69 1551.8 L1679.69 1550.86 L1675.46 1550.86 M1683.95 1549.1 L1683.95 1563.89 L1679.69 1563.89 L1679.69 1559.95 Q1678.24 1562.31 1676.06 1563.45 Q1673.88 1564.56 1670.74 1564.56 Q1666.75 1564.56 1664.39 1562.34 Q1662.05 1560.09 1662.05 1556.34 Q1662.05 1551.97 1664.97 1549.74 Q1667.91 1547.52 1673.72 1547.52 L1679.69 1547.52 L1679.69 1547.11 Q1679.69 1544.17 1677.75 1542.57 Q1675.83 1540.95 1672.33 1540.95 Q1670.11 1540.95 1668 1541.48 Q1665.9 1542.01 1663.95 1543.08 L1663.95 1539.14 Q1666.29 1538.24 1668.49 1537.8 Q1670.69 1537.34 1672.77 1537.34 Q1678.4 1537.34 1681.18 1540.25 Q1683.95 1543.17 1683.95 1549.1 Z" fill="#000000" fill-rule="nonzero" fill-opacity="1" /><path clip-path="url(#clip910)" d="M1711.38 1538.96 L1711.38 1542.94 Q1709.58 1541.94 1707.75 1541.46 Q1705.94 1540.95 1704.09 1540.95 Q1699.95 1540.95 1697.66 1543.59 Q1695.36 1546.2 1695.36 1550.95 Q1695.36 1555.69 1697.66 1558.33 Q1699.95 1560.95 1704.09 1560.95 Q1705.94 1560.95 1707.75 1560.46 Q1709.58 1559.95 1711.38 1558.96 L1711.38 1562.89 Q1709.6 1563.73 1707.68 1564.14 Q1705.78 1564.56 1703.63 1564.56 Q1697.77 1564.56 1694.32 1560.88 Q1690.87 1557.2 1690.87 1550.95 Q1690.87 1544.61 1694.35 1540.97 Q1697.84 1537.34 1703.91 1537.34 Q1705.87 1537.34 1707.75 1537.75 Q1709.62 1538.15 1711.38 1538.96 Z" fill="#000000" fill-rule="nonzero" fill-opacity="1" /><path clip-path="url(#clip910)" d="M1723 1530.6 L1723 1537.96 L1731.78 1537.96 L1731.78 1541.27 L1723 1541.27 L1723 1555.35 Q1723 1558.52 1723.86 1559.42 Q1724.74 1560.32 1727.4 1560.32 L1731.78 1560.32 L1731.78 1563.89 L1727.4 1563.89 Q1722.47 1563.89 1720.6 1562.06 Q1718.72 1560.21 1718.72 1555.35 L1718.72 1541.27 L1715.6 1541.27 L1715.6 1537.96 L1718.72 1537.96 L1718.72 1530.6 L1723 1530.6 Z" fill="#000000" fill-rule="nonzero" fill-opacity="1" /><path clip-path="url(#clip910)" d="M1747.42 1540.95 Q1744 1540.95 1742.01 1543.63 Q1740.02 1546.3 1740.02 1550.95 Q1740.02 1555.6 1741.99 1558.29 Q1743.98 1560.95 1747.42 1560.95 Q1750.83 1560.95 1752.82 1558.26 Q1754.81 1555.58 1754.81 1550.95 Q1754.81 1546.34 1752.82 1543.66 Q1750.83 1540.95 1747.42 1540.95 M1747.42 1537.34 Q1752.98 1537.34 1756.15 1540.95 Q1759.32 1544.56 1759.32 1550.95 Q1759.32 1557.31 1756.15 1560.95 Q1752.98 1564.56 1747.42 1564.56 Q1741.85 1564.56 1738.67 1560.95 Q1735.53 1557.31 1735.53 1550.95 Q1735.53 1544.56 1738.67 1540.95 Q1741.85 1537.34 1747.42 1537.34 Z" fill="#000000" fill-rule="nonzero" fill-opacity="1" /><path clip-path="url(#clip910)" d="M1781.41 1541.94 Q1780.69 1541.53 1779.83 1541.34 Q1779 1541.13 1777.98 1541.13 Q1774.37 1541.13 1772.42 1543.49 Q1770.5 1545.83 1770.5 1550.23 L1770.5 1563.89 L1766.22 1563.89 L1766.22 1537.96 L1770.5 1537.96 L1770.5 1541.99 Q1771.85 1539.63 1774 1538.49 Q1776.15 1537.34 1779.23 1537.34 Q1779.67 1537.34 1780.2 1537.41 Q1780.73 1537.45 1781.38 1537.57 L1781.41 1541.94 Z" fill="#000000" fill-rule="nonzero" fill-opacity="1" /><path clip-path="url(#clip910)" d="M1785.87 1537.96 L1790.13 1537.96 L1790.13 1563.89 L1785.87 1563.89 L1785.87 1537.96 M1785.87 1527.87 L1790.13 1527.87 L1790.13 1533.26 L1785.87 1533.26 L1785.87 1527.87 Z" fill="#000000" fill-rule="nonzero" fill-opacity="1" /><path clip-path="url(#clip910)" d="M1797.19 1537.96 L1817.42 1537.96 L1817.42 1541.85 L1801.41 1560.49 L1817.42 1560.49 L1817.42 1563.89 L1796.61 1563.89 L1796.61 1560 L1812.63 1541.36 L1797.19 1541.36 L1797.19 1537.96 Z" fill="#000000" fill-rule="nonzero" fill-opacity="1" /><path clip-path="url(#clip910)" d="M1835.71 1550.86 Q1830.55 1550.86 1828.56 1552.04 Q1826.57 1553.22 1826.57 1556.06 Q1826.57 1558.33 1828.05 1559.67 Q1829.55 1560.99 1832.12 1560.99 Q1835.67 1560.99 1837.79 1558.49 Q1839.95 1555.97 1839.95 1551.8 L1839.95 1550.86 L1835.71 1550.86 M1844.21 1549.1 L1844.21 1563.89 L1839.95 1563.89 L1839.95 1559.95 Q1838.49 1562.31 1836.31 1563.45 Q1834.14 1564.56 1830.99 1564.56 Q1827.01 1564.56 1824.65 1562.34 Q1822.31 1560.09 1822.31 1556.34 Q1822.31 1551.97 1825.23 1549.74 Q1828.17 1547.52 1833.98 1547.52 L1839.95 1547.52 L1839.95 1547.11 Q1839.95 1544.17 1838 1542.57 Q1836.08 1540.95 1832.59 1540.95 Q1830.36 1540.95 1828.26 1541.48 Q1826.15 1542.01 1824.21 1543.08 L1824.21 1539.14 Q1826.54 1538.24 1828.74 1537.8 Q1830.94 1537.34 1833.03 1537.34 Q1838.65 1537.34 1841.43 1540.25 Q1844.21 1543.17 1844.21 1549.1 Z" fill="#000000" fill-rule="nonzero" fill-opacity="1" /><path clip-path="url(#clip910)" d="M1857.19 1530.6 L1857.19 1537.96 L1865.97 1537.96 L1865.97 1541.27 L1857.19 1541.27 L1857.19 1555.35 Q1857.19 1558.52 1858.05 1559.42 Q1858.93 1560.32 1861.59 1560.32 L1865.97 1560.32 L1865.97 1563.89 L1861.59 1563.89 Q1856.66 1563.89 1854.79 1562.06 Q1852.91 1560.21 1852.91 1555.35 L1852.91 1541.27 L1849.79 1541.27 L1849.79 1537.96 L1852.91 1537.96 L1852.91 1530.6 L1857.19 1530.6 Z" fill="#000000" fill-rule="nonzero" fill-opacity="1" /><path clip-path="url(#clip910)" d="M1871.57 1537.96 L1875.83 1537.96 L1875.83 1563.89 L1871.57 1563.89 L1871.57 1537.96 M1871.57 1527.87 L1875.83 1527.87 L1875.83 1533.26 L1871.57 1533.26 L1871.57 1527.87 Z" fill="#000000" fill-rule="nonzero" fill-opacity="1" /><path clip-path="url(#clip910)" d="M1894.79 1540.95 Q1891.36 1540.95 1889.37 1543.63 Q1887.38 1546.3 1887.38 1550.95 Q1887.38 1555.6 1889.35 1558.29 Q1891.34 1560.95 1894.79 1560.95 Q1898.19 1560.95 1900.18 1558.26 Q1902.17 1555.58 1902.17 1550.95 Q1902.17 1546.34 1900.18 1543.66 Q1898.19 1540.95 1894.79 1540.95 M1894.79 1537.34 Q1900.34 1537.34 1903.51 1540.95 Q1906.68 1544.56 1906.68 1550.95 Q1906.68 1557.31 1903.51 1560.95 Q1900.34 1564.56 1894.79 1564.56 Q1889.21 1564.56 1886.04 1560.95 Q1882.89 1557.31 1882.89 1550.95 Q1882.89 1544.56 1886.04 1540.95 Q1889.21 1537.34 1894.79 1537.34 Z" fill="#000000" fill-rule="nonzero" fill-opacity="1" /><path clip-path="url(#clip910)" d="M1935.29 1548.24 L1935.29 1563.89 L1931.03 1563.89 L1931.03 1548.38 Q1931.03 1544.7 1929.6 1542.87 Q1928.16 1541.04 1925.29 1541.04 Q1921.85 1541.04 1919.85 1543.24 Q1917.86 1545.44 1917.86 1549.24 L1917.86 1563.89 L1913.58 1563.89 L1913.58 1537.96 L1917.86 1537.96 L1917.86 1541.99 Q1919.39 1539.65 1921.45 1538.49 Q1923.54 1537.34 1926.24 1537.34 Q1930.71 1537.34 1933 1540.11 Q1935.29 1542.87 1935.29 1548.24 Z" fill="#000000" fill-rule="nonzero" fill-opacity="1" /><path clip-path="url(#clip910)" d="M2689.43 1529.33 L2694.1 1529.33 L2694.1 1543.93 L2709.61 1529.33 L2715.63 1529.33 L2698.48 1545.44 L2716.86 1563.89 L2710.7 1563.89 L2694.1 1547.24 L2694.1 1563.89 L2689.43 1563.89 L2689.43 1529.33 Z" fill="#000000" fill-rule="nonzero" fill-opacity="1" /><path clip-path="url(#clip910)" d="M2735.35 1541.94 Q2734.64 1541.53 2733.78 1541.34 Q2732.95 1541.13 2731.93 1541.13 Q2728.32 1541.13 2726.37 1543.49 Q2724.45 1545.83 2724.45 1550.23 L2724.45 1563.89 L2720.17 1563.89 L2720.17 1537.96 L2724.45 1537.96 L2724.45 1541.99 Q2725.79 1539.63 2727.95 1538.49 Q2730.1 1537.34 2733.18 1537.34 Q2733.62 1537.34 2734.15 1537.41 Q2734.68 1537.45 2735.33 1537.57 L2735.35 1541.94 Z" fill="#000000" fill-rule="nonzero" fill-opacity="1" /><path clip-path="url(#clip910)" d="M2750.61 1566.3 Q2748.8 1570.92 2747.09 1572.34 Q2745.38 1573.75 2742.51 1573.75 L2739.1 1573.75 L2739.1 1570.18 L2741.6 1570.18 Q2743.36 1570.18 2744.34 1569.35 Q2745.31 1568.52 2746.49 1565.42 L2747.25 1563.47 L2736.77 1537.96 L2741.28 1537.96 L2749.38 1558.24 L2757.48 1537.96 L2762 1537.96 L2750.61 1566.3 Z" fill="#000000" fill-rule="nonzero" fill-opacity="1" /><path clip-path="url(#clip910)" d="M2767.88 1527.87 L2772.14 1527.87 L2772.14 1563.89 L2767.88 1563.89 L2767.88 1527.87 Z" fill="#000000" fill-rule="nonzero" fill-opacity="1" /><path clip-path="url(#clip910)" d="M2791.09 1540.95 Q2787.67 1540.95 2785.68 1543.63 Q2783.69 1546.3 2783.69 1550.95 Q2783.69 1555.6 2785.65 1558.29 Q2787.65 1560.95 2791.09 1560.95 Q2794.5 1560.95 2796.49 1558.26 Q2798.48 1555.58 2798.48 1550.95 Q2798.48 1546.34 2796.49 1543.66 Q2794.5 1540.95 2791.09 1540.95 M2791.09 1537.34 Q2796.65 1537.34 2799.82 1540.95 Q2802.99 1544.56 2802.99 1550.95 Q2802.99 1557.31 2799.82 1560.95 Q2796.65 1564.56 2791.09 1564.56 Q2785.52 1564.56 2782.34 1560.95 Q2779.2 1557.31 2779.2 1550.95 Q2779.2 1544.56 2782.34 1540.95 Q2785.52 1537.34 2791.09 1537.34 Z" fill="#000000" fill-rule="nonzero" fill-opacity="1" /><path clip-path="url(#clip910)" d="M2807 1537.96 L2811.51 1537.96 L2819.61 1559.72 L2827.71 1537.96 L2832.23 1537.96 L2822.51 1563.89 L2816.72 1563.89 L2807 1537.96 Z" fill="#000000" fill-rule="nonzero" fill-opacity="1" /><path clip-path="url(#clip910)" d="M2838.29 1529.33 L2842.97 1529.33 L2842.97 1561.48 Q2842.97 1567.73 2840.59 1570.55 Q2838.22 1573.38 2832.97 1573.38 L2831.19 1573.38 L2831.19 1569.44 L2832.65 1569.44 Q2835.75 1569.44 2837.02 1567.71 Q2838.29 1565.97 2838.29 1561.48 L2838.29 1529.33 Z" fill="#000000" fill-rule="nonzero" fill-opacity="1" /><path clip-path="url(#clip910)" d="M2852.27 1529.33 L2856.95 1529.33 L2856.95 1559.95 L2873.78 1559.95 L2873.78 1563.89 L2852.27 1563.89 L2852.27 1529.33 Z" fill="#000000" fill-rule="nonzero" fill-opacity="1" /><polyline clip-path="url(#clip910)" style="stroke:#000000; stroke-linecap:round; stroke-linejoin:round; stroke-width:4; stroke-opacity:1; fill:none" points="364.733,1495.09 364.733,47.2441 "/>
<polyline clip-path="url(#clip910)" style="stroke:#000000; stroke-linecap:round; stroke-linejoin:round; stroke-width:4; stroke-opacity:1; fill:none" points="364.733,1331.31 383.63,1331.31 "/>
<polyline clip-path="url(#clip910)" style="stroke:#000000; stroke-linecap:round; stroke-linejoin:round; stroke-width:4; stroke-opacity:1; fill:none" points="364.733,1093.67 383.63,1093.67 "/>
<polyline clip-path="url(#clip910)" style="stroke:#000000; stroke-linecap:round; stroke-linejoin:round; stroke-width:4; stroke-opacity:1; fill:none" points="364.733,856.018 383.63,856.018 "/>
<polyline clip-path="url(#clip910)" style="stroke:#000000; stroke-linecap:round; stroke-linejoin:round; stroke-width:4; stroke-opacity:1; fill:none" points="364.733,618.369 383.63,618.369 "/>
<polyline clip-path="url(#clip910)" style="stroke:#000000; stroke-linecap:round; stroke-linejoin:round; stroke-width:4; stroke-opacity:1; fill:none" points="364.733,380.721 383.63,380.721 "/>
<polyline clip-path="url(#clip910)" style="stroke:#000000; stroke-linecap:round; stroke-linejoin:round; stroke-width:4; stroke-opacity:1; fill:none" points="364.733,143.072 383.63,143.072 "/>
<path clip-path="url(#clip910)" d="M100.788 1351.11 L108.426 1351.11 L108.426 1324.74 L100.116 1326.41 L100.116 1322.15 L108.38 1320.48 L113.056 1320.48 L113.056 1351.11 L120.695 1351.11 L120.695 1355.04 L100.788 1355.04 L100.788 1351.11 Z" fill="#000000" fill-rule="nonzero" fill-opacity="1" /><path clip-path="url(#clip910)" d="M130.139 1349.16 L135.023 1349.16 L135.023 1355.04 L130.139 1355.04 L130.139 1349.16 Z" fill="#000000" fill-rule="nonzero" fill-opacity="1" /><path clip-path="url(#clip910)" d="M155.209 1323.56 Q151.597 1323.56 149.769 1327.13 Q147.963 1330.67 147.963 1337.8 Q147.963 1344.9 149.769 1348.47 Q151.597 1352.01 155.209 1352.01 Q158.843 1352.01 160.648 1348.47 Q162.477 1344.9 162.477 1337.8 Q162.477 1330.67 160.648 1327.13 Q158.843 1323.56 155.209 1323.56 M155.209 1319.86 Q161.019 1319.86 164.074 1324.46 Q167.153 1329.05 167.153 1337.8 Q167.153 1346.52 164.074 1351.13 Q161.019 1355.71 155.209 1355.71 Q149.398 1355.71 146.32 1351.13 Q143.264 1346.52 143.264 1337.8 Q143.264 1329.05 146.32 1324.46 Q149.398 1319.86 155.209 1319.86 Z" fill="#000000" fill-rule="nonzero" fill-opacity="1" /><path clip-path="url(#clip910)" d="M185.37 1323.56 Q181.759 1323.56 179.931 1327.13 Q178.125 1330.67 178.125 1337.8 Q178.125 1344.9 179.931 1348.47 Q181.759 1352.01 185.37 1352.01 Q189.005 1352.01 190.81 1348.47 Q192.639 1344.9 192.639 1337.8 Q192.639 1330.67 190.81 1327.13 Q189.005 1323.56 185.37 1323.56 M185.37 1319.86 Q191.181 1319.86 194.236 1324.46 Q197.315 1329.05 197.315 1337.8 Q197.315 1346.52 194.236 1351.13 Q191.181 1355.71 185.37 1355.71 Q179.56 1355.71 176.482 1351.13 Q173.426 1346.52 173.426 1337.8 Q173.426 1329.05 176.482 1324.46 Q179.56 1319.86 185.37 1319.86 Z" fill="#000000" fill-rule="nonzero" fill-opacity="1" /><path clip-path="url(#clip910)" d="M233.704 1329.58 L223.125 1340.2 L233.704 1350.78 L230.949 1353.58 L220.324 1342.96 L209.699 1353.58 L206.968 1350.78 L217.523 1340.2 L206.968 1329.58 L209.699 1326.78 L220.324 1337.4 L230.949 1326.78 L233.704 1329.58 Z" fill="#000000" fill-rule="nonzero" fill-opacity="1" /><path clip-path="url(#clip910)" d="M246.065 1351.11 L253.703 1351.11 L253.703 1324.74 L245.393 1326.41 L245.393 1322.15 L253.657 1320.48 L258.333 1320.48 L258.333 1351.11 L265.972 1351.11 L265.972 1355.04 L246.065 1355.04 L246.065 1351.11 Z" fill="#000000" fill-rule="nonzero" fill-opacity="1" /><path clip-path="url(#clip910)" d="M285.416 1323.56 Q281.805 1323.56 279.976 1327.13 Q278.171 1330.67 278.171 1337.8 Q278.171 1344.9 279.976 1348.47 Q281.805 1352.01 285.416 1352.01 Q289.05 1352.01 290.856 1348.47 Q292.685 1344.9 292.685 1337.8 Q292.685 1330.67 290.856 1327.13 Q289.05 1323.56 285.416 1323.56 M285.416 1319.86 Q291.226 1319.86 294.282 1324.46 Q297.361 1329.05 297.361 1337.8 Q297.361 1346.52 294.282 1351.13 Q291.226 1355.71 285.416 1355.71 Q279.606 1355.71 276.527 1351.13 Q273.472 1346.52 273.472 1337.8 Q273.472 1329.05 276.527 1324.46 Q279.606 1319.86 285.416 1319.86 Z" fill="#000000" fill-rule="nonzero" fill-opacity="1" /><path clip-path="url(#clip910)" d="M299.166 1327.05 L299.166 1323.59 Q300.596 1324.27 302.063 1324.62 Q303.53 1324.98 304.94 1324.98 Q308.702 1324.98 310.676 1322.46 Q312.67 1319.92 312.952 1314.77 Q311.861 1316.38 310.187 1317.25 Q308.514 1318.12 306.482 1318.12 Q302.269 1318.12 299.806 1315.58 Q297.361 1313.02 297.361 1308.6 Q297.361 1304.27 299.918 1301.66 Q302.476 1299.04 306.727 1299.04 Q311.598 1299.04 314.156 1302.79 Q316.733 1306.51 316.733 1313.62 Q316.733 1320.26 313.573 1324.23 Q310.432 1328.18 305.109 1328.18 Q303.68 1328.18 302.213 1327.9 Q300.746 1327.61 299.166 1327.05 M306.727 1315.14 Q309.285 1315.14 310.771 1313.39 Q312.275 1311.65 312.275 1308.6 Q312.275 1305.57 310.771 1303.82 Q309.285 1302.05 306.727 1302.05 Q304.169 1302.05 302.664 1303.82 Q301.179 1305.57 301.179 1308.6 Q301.179 1311.65 302.664 1313.39 Q304.169 1315.14 306.727 1315.14 Z" fill="#000000" fill-rule="nonzero" fill-opacity="1" /><path clip-path="url(#clip910)" d="M100.788 1113.46 L108.426 1113.46 L108.426 1087.09 L100.116 1088.76 L100.116 1084.5 L108.38 1082.83 L113.056 1082.83 L113.056 1113.46 L120.695 1113.46 L120.695 1117.39 L100.788 1117.39 L100.788 1113.46 Z" fill="#000000" fill-rule="nonzero" fill-opacity="1" /><path clip-path="url(#clip910)" d="M130.139 1111.51 L135.023 1111.51 L135.023 1117.39 L130.139 1117.39 L130.139 1111.51 Z" fill="#000000" fill-rule="nonzero" fill-opacity="1" /><path clip-path="url(#clip910)" d="M145.255 1082.83 L163.611 1082.83 L163.611 1086.77 L149.537 1086.77 L149.537 1095.24 Q150.556 1094.89 151.574 1094.73 Q152.593 1094.55 153.611 1094.55 Q159.398 1094.55 162.778 1097.72 Q166.158 1100.89 166.158 1106.31 Q166.158 1111.88 162.685 1114.99 Q159.213 1118.06 152.894 1118.06 Q150.718 1118.06 148.449 1117.69 Q146.204 1117.32 143.797 1116.58 L143.797 1111.88 Q145.88 1113.02 148.102 1113.57 Q150.324 1114.13 152.801 1114.13 Q156.806 1114.13 159.144 1112.02 Q161.482 1109.92 161.482 1106.31 Q161.482 1102.69 159.144 1100.59 Q156.806 1098.48 152.801 1098.48 Q150.926 1098.48 149.051 1098.9 Q147.199 1099.32 145.255 1100.19 L145.255 1082.83 Z" fill="#000000" fill-rule="nonzero" fill-opacity="1" /><path clip-path="url(#clip910)" d="M185.37 1085.91 Q181.759 1085.91 179.931 1089.48 Q178.125 1093.02 178.125 1100.15 Q178.125 1107.25 179.931 1110.82 Q181.759 1114.36 185.37 1114.36 Q189.005 1114.36 190.81 1110.82 Q192.639 1107.25 192.639 1100.15 Q192.639 1093.02 190.81 1089.48 Q189.005 1085.91 185.37 1085.91 M185.37 1082.21 Q191.181 1082.21 194.236 1086.82 Q197.315 1091.4 197.315 1100.15 Q197.315 1108.88 194.236 1113.48 Q191.181 1118.06 185.37 1118.06 Q179.56 1118.06 176.482 1113.48 Q173.426 1108.88 173.426 1100.15 Q173.426 1091.4 176.482 1086.82 Q179.56 1082.21 185.37 1082.21 Z" fill="#000000" fill-rule="nonzero" fill-opacity="1" /><path clip-path="url(#clip910)" d="M233.704 1091.93 L223.125 1102.56 L233.704 1113.13 L230.949 1115.94 L220.324 1105.31 L209.699 1115.94 L206.968 1113.13 L217.523 1102.56 L206.968 1091.93 L209.699 1089.13 L220.324 1099.75 L230.949 1089.13 L233.704 1091.93 Z" fill="#000000" fill-rule="nonzero" fill-opacity="1" /><path clip-path="url(#clip910)" d="M246.065 1113.46 L253.703 1113.46 L253.703 1087.09 L245.393 1088.76 L245.393 1084.5 L253.657 1082.83 L258.333 1082.83 L258.333 1113.46 L265.972 1113.46 L265.972 1117.39 L246.065 1117.39 L246.065 1113.46 Z" fill="#000000" fill-rule="nonzero" fill-opacity="1" /><path clip-path="url(#clip910)" d="M285.416 1085.91 Q281.805 1085.91 279.976 1089.48 Q278.171 1093.02 278.171 1100.15 Q278.171 1107.25 279.976 1110.82 Q281.805 1114.36 285.416 1114.36 Q289.05 1114.36 290.856 1110.82 Q292.685 1107.25 292.685 1100.15 Q292.685 1093.02 290.856 1089.48 Q289.05 1085.91 285.416 1085.91 M285.416 1082.21 Q291.226 1082.21 294.282 1086.82 Q297.361 1091.4 297.361 1100.15 Q297.361 1108.88 294.282 1113.48 Q291.226 1118.06 285.416 1118.06 Q279.606 1118.06 276.527 1113.48 Q273.472 1108.88 273.472 1100.15 Q273.472 1091.4 276.527 1086.82 Q279.606 1082.21 285.416 1082.21 Z" fill="#000000" fill-rule="nonzero" fill-opacity="1" /><path clip-path="url(#clip910)" d="M299.166 1089.4 L299.166 1085.94 Q300.596 1086.62 302.063 1086.97 Q303.53 1087.33 304.94 1087.33 Q308.702 1087.33 310.676 1084.81 Q312.67 1082.27 312.952 1077.12 Q311.861 1078.74 310.187 1079.6 Q308.514 1080.47 306.482 1080.47 Q302.269 1080.47 299.806 1077.93 Q297.361 1075.37 297.361 1070.95 Q297.361 1066.62 299.918 1064.01 Q302.476 1061.4 306.727 1061.4 Q311.598 1061.4 314.156 1065.14 Q316.733 1068.86 316.733 1075.97 Q316.733 1082.61 313.573 1086.58 Q310.432 1090.53 305.109 1090.53 Q303.68 1090.53 302.213 1090.25 Q300.746 1089.96 299.166 1089.4 M306.727 1077.49 Q309.285 1077.49 310.771 1075.75 Q312.275 1074 312.275 1070.95 Q312.275 1067.92 310.771 1066.17 Q309.285 1064.4 306.727 1064.4 Q304.169 1064.4 302.664 1066.17 Q301.179 1067.92 301.179 1070.95 Q301.179 1074 302.664 1075.75 Q304.169 1077.49 306.727 1077.49 Z" fill="#000000" fill-rule="nonzero" fill-opacity="1" /><path clip-path="url(#clip910)" d="M104.005 875.81 L120.324 875.81 L120.324 879.745 L98.3802 879.745 L98.3802 875.81 Q101.042 873.055 105.625 868.426 Q110.232 863.773 111.412 862.431 Q113.658 859.907 114.537 858.171 Q115.44 856.412 115.44 854.722 Q115.44 851.968 113.496 850.232 Q111.575 848.495 108.473 848.495 Q106.274 848.495 103.82 849.259 Q101.389 850.023 98.6116 851.574 L98.6116 846.852 Q101.436 845.718 103.889 845.139 Q106.343 844.56 108.38 844.56 Q113.75 844.56 116.945 847.245 Q120.139 849.931 120.139 854.421 Q120.139 856.551 119.329 858.472 Q118.542 860.37 116.436 862.963 Q115.857 863.634 112.755 866.852 Q109.653 870.046 104.005 875.81 Z" fill="#000000" fill-rule="nonzero" fill-opacity="1" /><path clip-path="url(#clip910)" d="M130.139 873.866 L135.023 873.866 L135.023 879.745 L130.139 879.745 L130.139 873.866 Z" fill="#000000" fill-rule="nonzero" fill-opacity="1" /><path clip-path="url(#clip910)" d="M155.209 848.264 Q151.597 848.264 149.769 851.829 Q147.963 855.37 147.963 862.5 Q147.963 869.606 149.769 873.171 Q151.597 876.713 155.209 876.713 Q158.843 876.713 160.648 873.171 Q162.477 869.606 162.477 862.5 Q162.477 855.37 160.648 851.829 Q158.843 848.264 155.209 848.264 M155.209 844.56 Q161.019 844.56 164.074 849.167 Q167.153 853.75 167.153 862.5 Q167.153 871.227 164.074 875.833 Q161.019 880.417 155.209 880.417 Q149.398 880.417 146.32 875.833 Q143.264 871.227 143.264 862.5 Q143.264 853.75 146.32 849.167 Q149.398 844.56 155.209 844.56 Z" fill="#000000" fill-rule="nonzero" fill-opacity="1" /><path clip-path="url(#clip910)" d="M185.37 848.264 Q181.759 848.264 179.931 851.829 Q178.125 855.37 178.125 862.5 Q178.125 869.606 179.931 873.171 Q181.759 876.713 185.37 876.713 Q189.005 876.713 190.81 873.171 Q192.639 869.606 192.639 862.5 Q192.639 855.37 190.81 851.829 Q189.005 848.264 185.37 848.264 M185.37 844.56 Q191.181 844.56 194.236 849.167 Q197.315 853.75 197.315 862.5 Q197.315 871.227 194.236 875.833 Q191.181 880.417 185.37 880.417 Q179.56 880.417 176.482 875.833 Q173.426 871.227 173.426 862.5 Q173.426 853.75 176.482 849.167 Q179.56 844.56 185.37 844.56 Z" fill="#000000" fill-rule="nonzero" fill-opacity="1" /><path clip-path="url(#clip910)" d="M233.704 854.282 L223.125 864.907 L233.704 875.486 L230.949 878.287 L220.324 867.662 L209.699 878.287 L206.968 875.486 L217.523 864.907 L206.968 854.282 L209.699 851.482 L220.324 862.106 L230.949 851.482 L233.704 854.282 Z" fill="#000000" fill-rule="nonzero" fill-opacity="1" /><path clip-path="url(#clip910)" d="M246.065 875.81 L253.703 875.81 L253.703 849.445 L245.393 851.111 L245.393 846.852 L253.657 845.185 L258.333 845.185 L258.333 875.81 L265.972 875.81 L265.972 879.745 L246.065 879.745 L246.065 875.81 Z" fill="#000000" fill-rule="nonzero" fill-opacity="1" /><path clip-path="url(#clip910)" d="M285.416 848.264 Q281.805 848.264 279.976 851.829 Q278.171 855.37 278.171 862.5 Q278.171 869.606 279.976 873.171 Q281.805 876.713 285.416 876.713 Q289.05 876.713 290.856 873.171 Q292.685 869.606 292.685 862.5 Q292.685 855.37 290.856 851.829 Q289.05 848.264 285.416 848.264 M285.416 844.56 Q291.226 844.56 294.282 849.167 Q297.361 853.75 297.361 862.5 Q297.361 871.227 294.282 875.833 Q291.226 880.417 285.416 880.417 Q279.606 880.417 276.527 875.833 Q273.472 871.227 273.472 862.5 Q273.472 853.75 276.527 849.167 Q279.606 844.56 285.416 844.56 Z" fill="#000000" fill-rule="nonzero" fill-opacity="1" /><path clip-path="url(#clip910)" d="M299.166 851.752 L299.166 848.291 Q300.596 848.968 302.063 849.326 Q303.53 849.683 304.94 849.683 Q308.702 849.683 310.676 847.163 Q312.67 844.624 312.952 839.47 Q311.861 841.088 310.187 841.953 Q308.514 842.818 306.482 842.818 Q302.269 842.818 299.806 840.279 Q297.361 837.721 297.361 833.301 Q297.361 828.976 299.918 826.361 Q302.476 823.747 306.727 823.747 Q311.598 823.747 314.156 827.49 Q316.733 831.214 316.733 838.323 Q316.733 844.962 313.573 848.931 Q310.432 852.88 305.109 852.88 Q303.68 852.88 302.213 852.598 Q300.746 852.316 299.166 851.752 M306.727 839.847 Q309.285 839.847 310.771 838.097 Q312.275 836.348 312.275 833.301 Q312.275 830.273 310.771 828.524 Q309.285 826.756 306.727 826.756 Q304.169 826.756 302.664 828.524 Q301.179 830.273 301.179 833.301 Q301.179 836.348 302.664 838.097 Q304.169 839.847 306.727 839.847 Z" fill="#000000" fill-rule="nonzero" fill-opacity="1" /><path clip-path="url(#clip910)" d="M104.005 638.162 L120.324 638.162 L120.324 642.097 L98.3802 642.097 L98.3802 638.162 Q101.042 635.407 105.625 630.777 Q110.232 626.125 111.412 624.782 Q113.658 622.259 114.537 620.523 Q115.44 618.764 115.44 617.074 Q115.44 614.319 113.496 612.583 Q111.575 610.847 108.473 610.847 Q106.274 610.847 103.82 611.611 Q101.389 612.375 98.6116 613.926 L98.6116 609.204 Q101.436 608.069 103.889 607.491 Q106.343 606.912 108.38 606.912 Q113.75 606.912 116.945 609.597 Q120.139 612.282 120.139 616.773 Q120.139 618.903 119.329 620.824 Q118.542 622.722 116.436 625.315 Q115.857 625.986 112.755 629.203 Q109.653 632.398 104.005 638.162 Z" fill="#000000" fill-rule="nonzero" fill-opacity="1" /><path clip-path="url(#clip910)" d="M130.139 636.217 L135.023 636.217 L135.023 642.097 L130.139 642.097 L130.139 636.217 Z" fill="#000000" fill-rule="nonzero" fill-opacity="1" /><path clip-path="url(#clip910)" d="M145.255 607.537 L163.611 607.537 L163.611 611.472 L149.537 611.472 L149.537 619.944 Q150.556 619.597 151.574 619.435 Q152.593 619.25 153.611 619.25 Q159.398 619.25 162.778 622.421 Q166.158 625.592 166.158 631.009 Q166.158 636.588 162.685 639.689 Q159.213 642.768 152.894 642.768 Q150.718 642.768 148.449 642.398 Q146.204 642.027 143.797 641.287 L143.797 636.588 Q145.88 637.722 148.102 638.277 Q150.324 638.833 152.801 638.833 Q156.806 638.833 159.144 636.727 Q161.482 634.62 161.482 631.009 Q161.482 627.398 159.144 625.291 Q156.806 623.185 152.801 623.185 Q150.926 623.185 149.051 623.602 Q147.199 624.018 145.255 624.898 L145.255 607.537 Z" fill="#000000" fill-rule="nonzero" fill-opacity="1" /><path clip-path="url(#clip910)" d="M185.37 610.616 Q181.759 610.616 179.931 614.18 Q178.125 617.722 178.125 624.852 Q178.125 631.958 179.931 635.523 Q181.759 639.064 185.37 639.064 Q189.005 639.064 190.81 635.523 Q192.639 631.958 192.639 624.852 Q192.639 617.722 190.81 614.18 Q189.005 610.616 185.37 610.616 M185.37 606.912 Q191.181 606.912 194.236 611.518 Q197.315 616.102 197.315 624.852 Q197.315 633.578 194.236 638.185 Q191.181 642.768 185.37 642.768 Q179.56 642.768 176.482 638.185 Q173.426 633.578 173.426 624.852 Q173.426 616.102 176.482 611.518 Q179.56 606.912 185.37 606.912 Z" fill="#000000" fill-rule="nonzero" fill-opacity="1" /><path clip-path="url(#clip910)" d="M233.704 616.634 L223.125 627.259 L233.704 637.838 L230.949 640.639 L220.324 630.014 L209.699 640.639 L206.968 637.838 L217.523 627.259 L206.968 616.634 L209.699 613.833 L220.324 624.458 L230.949 613.833 L233.704 616.634 Z" fill="#000000" fill-rule="nonzero" fill-opacity="1" /><path clip-path="url(#clip910)" d="M246.065 638.162 L253.703 638.162 L253.703 611.796 L245.393 613.463 L245.393 609.204 L253.657 607.537 L258.333 607.537 L258.333 638.162 L265.972 638.162 L265.972 642.097 L246.065 642.097 L246.065 638.162 Z" fill="#000000" fill-rule="nonzero" fill-opacity="1" /><path clip-path="url(#clip910)" d="M285.416 610.616 Q281.805 610.616 279.976 614.18 Q278.171 617.722 278.171 624.852 Q278.171 631.958 279.976 635.523 Q281.805 639.064 285.416 639.064 Q289.05 639.064 290.856 635.523 Q292.685 631.958 292.685 624.852 Q292.685 617.722 290.856 614.18 Q289.05 610.616 285.416 610.616 M285.416 606.912 Q291.226 606.912 294.282 611.518 Q297.361 616.102 297.361 624.852 Q297.361 633.578 294.282 638.185 Q291.226 642.768 285.416 642.768 Q279.606 642.768 276.527 638.185 Q273.472 633.578 273.472 624.852 Q273.472 616.102 276.527 611.518 Q279.606 606.912 285.416 606.912 Z" fill="#000000" fill-rule="nonzero" fill-opacity="1" /><path clip-path="url(#clip910)" d="M299.166 614.103 L299.166 610.643 Q300.596 611.32 302.063 611.677 Q303.53 612.035 304.94 612.035 Q308.702 612.035 310.676 609.514 Q312.67 606.975 312.952 601.822 Q311.861 603.439 310.187 604.305 Q308.514 605.17 306.482 605.17 Q302.269 605.17 299.806 602.631 Q297.361 600.073 297.361 595.653 Q297.361 591.327 299.918 588.713 Q302.476 586.099 306.727 586.099 Q311.598 586.099 314.156 589.841 Q316.733 593.565 316.733 600.675 Q316.733 607.314 313.573 611.282 Q310.432 615.232 305.109 615.232 Q303.68 615.232 302.213 614.95 Q300.746 614.668 299.166 614.103 M306.727 602.198 Q309.285 602.198 310.771 600.449 Q312.275 598.7 312.275 595.653 Q312.275 592.625 310.771 590.876 Q309.285 589.108 306.727 589.108 Q304.169 589.108 302.664 590.876 Q301.179 592.625 301.179 595.653 Q301.179 598.7 302.664 600.449 Q304.169 602.198 306.727 602.198 Z" fill="#000000" fill-rule="nonzero" fill-opacity="1" /><path clip-path="url(#clip910)" d="M114.144 385.814 Q117.5 386.532 119.375 388.8 Q121.274 391.069 121.274 394.402 Q121.274 399.518 117.755 402.319 Q114.237 405.12 107.755 405.12 Q105.579 405.12 103.264 404.68 Q100.973 404.263 98.519 403.407 L98.519 398.893 Q100.463 400.027 102.778 400.606 Q105.093 401.185 107.616 401.185 Q112.014 401.185 114.306 399.448 Q116.621 397.712 116.621 394.402 Q116.621 391.347 114.468 389.634 Q112.338 387.898 108.519 387.898 L104.491 387.898 L104.491 384.055 L108.704 384.055 Q112.153 384.055 113.982 382.689 Q115.811 381.3 115.811 378.708 Q115.811 376.046 113.912 374.634 Q112.037 373.199 108.519 373.199 Q106.598 373.199 104.399 373.615 Q102.2 374.032 99.5607 374.912 L99.5607 370.745 Q102.223 370.004 104.538 369.634 Q106.875 369.263 108.936 369.263 Q114.26 369.263 117.362 371.694 Q120.463 374.101 120.463 378.222 Q120.463 381.092 118.82 383.083 Q117.176 385.05 114.144 385.814 Z" fill="#000000" fill-rule="nonzero" fill-opacity="1" /><path clip-path="url(#clip910)" d="M130.139 398.569 L135.023 398.569 L135.023 404.448 L130.139 404.448 L130.139 398.569 Z" fill="#000000" fill-rule="nonzero" fill-opacity="1" /><path clip-path="url(#clip910)" d="M155.209 372.967 Q151.597 372.967 149.769 376.532 Q147.963 380.074 147.963 387.203 Q147.963 394.31 149.769 397.874 Q151.597 401.416 155.209 401.416 Q158.843 401.416 160.648 397.874 Q162.477 394.31 162.477 387.203 Q162.477 380.074 160.648 376.532 Q158.843 372.967 155.209 372.967 M155.209 369.263 Q161.019 369.263 164.074 373.87 Q167.153 378.453 167.153 387.203 Q167.153 395.93 164.074 400.536 Q161.019 405.12 155.209 405.12 Q149.398 405.12 146.32 400.536 Q143.264 395.93 143.264 387.203 Q143.264 378.453 146.32 373.87 Q149.398 369.263 155.209 369.263 Z" fill="#000000" fill-rule="nonzero" fill-opacity="1" /><path clip-path="url(#clip910)" d="M185.37 372.967 Q181.759 372.967 179.931 376.532 Q178.125 380.074 178.125 387.203 Q178.125 394.31 179.931 397.874 Q181.759 401.416 185.37 401.416 Q189.005 401.416 190.81 397.874 Q192.639 394.31 192.639 387.203 Q192.639 380.074 190.81 376.532 Q189.005 372.967 185.37 372.967 M185.37 369.263 Q191.181 369.263 194.236 373.87 Q197.315 378.453 197.315 387.203 Q197.315 395.93 194.236 400.536 Q191.181 405.12 185.37 405.12 Q179.56 405.12 176.482 400.536 Q173.426 395.93 173.426 387.203 Q173.426 378.453 176.482 373.87 Q179.56 369.263 185.37 369.263 Z" fill="#000000" fill-rule="nonzero" fill-opacity="1" /><path clip-path="url(#clip910)" d="M233.704 378.986 L223.125 389.611 L233.704 400.189 L230.949 402.99 L220.324 392.365 L209.699 402.99 L206.968 400.189 L217.523 389.611 L206.968 378.986 L209.699 376.185 L220.324 386.81 L230.949 376.185 L233.704 378.986 Z" fill="#000000" fill-rule="nonzero" fill-opacity="1" /><path clip-path="url(#clip910)" d="M246.065 400.513 L253.703 400.513 L253.703 374.148 L245.393 375.814 L245.393 371.555 L253.657 369.888 L258.333 369.888 L258.333 400.513 L265.972 400.513 L265.972 404.448 L246.065 404.448 L246.065 400.513 Z" fill="#000000" fill-rule="nonzero" fill-opacity="1" /><path clip-path="url(#clip910)" d="M285.416 372.967 Q281.805 372.967 279.976 376.532 Q278.171 380.074 278.171 387.203 Q278.171 394.31 279.976 397.874 Q281.805 401.416 285.416 401.416 Q289.05 401.416 290.856 397.874 Q292.685 394.31 292.685 387.203 Q292.685 380.074 290.856 376.532 Q289.05 372.967 285.416 372.967 M285.416 369.263 Q291.226 369.263 294.282 373.87 Q297.361 378.453 297.361 387.203 Q297.361 395.93 294.282 400.536 Q291.226 405.12 285.416 405.12 Q279.606 405.12 276.527 400.536 Q273.472 395.93 273.472 387.203 Q273.472 378.453 276.527 373.87 Q279.606 369.263 285.416 369.263 Z" fill="#000000" fill-rule="nonzero" fill-opacity="1" /><path clip-path="url(#clip910)" d="M299.166 376.455 L299.166 372.994 Q300.596 373.671 302.063 374.029 Q303.53 374.386 304.94 374.386 Q308.702 374.386 310.676 371.866 Q312.67 369.327 312.952 364.173 Q311.861 365.791 310.187 366.656 Q308.514 367.521 306.482 367.521 Q302.269 367.521 299.806 364.982 Q297.361 362.424 297.361 358.005 Q297.361 353.679 299.918 351.064 Q302.476 348.45 306.727 348.45 Q311.598 348.45 314.156 352.193 Q316.733 355.917 316.733 363.026 Q316.733 369.665 313.573 373.634 Q310.432 377.583 305.109 377.583 Q303.68 377.583 302.213 377.301 Q300.746 377.019 299.166 376.455 M306.727 364.55 Q309.285 364.55 310.771 362.801 Q312.275 361.051 312.275 358.005 Q312.275 354.976 310.771 353.227 Q309.285 351.459 306.727 351.459 Q304.169 351.459 302.664 353.227 Q301.179 354.976 301.179 358.005 Q301.179 361.051 302.664 362.801 Q304.169 364.55 306.727 364.55 Z" fill="#000000" fill-rule="nonzero" fill-opacity="1" /><path clip-path="url(#clip910)" d="M114.144 148.166 Q117.5 148.883 119.375 151.152 Q121.274 153.42 121.274 156.754 Q121.274 161.869 117.755 164.67 Q114.237 167.471 107.755 167.471 Q105.579 167.471 103.264 167.031 Q100.973 166.615 98.519 165.758 L98.519 161.244 Q100.463 162.379 102.778 162.957 Q105.093 163.536 107.616 163.536 Q112.014 163.536 114.306 161.8 Q116.621 160.064 116.621 156.754 Q116.621 153.698 114.468 151.985 Q112.338 150.249 108.519 150.249 L104.491 150.249 L104.491 146.407 L108.704 146.407 Q112.153 146.407 113.982 145.041 Q115.811 143.652 115.811 141.059 Q115.811 138.397 113.912 136.985 Q112.037 135.55 108.519 135.55 Q106.598 135.55 104.399 135.967 Q102.2 136.383 99.5607 137.263 L99.5607 133.096 Q102.223 132.356 104.538 131.985 Q106.875 131.615 108.936 131.615 Q114.26 131.615 117.362 134.046 Q120.463 136.453 120.463 140.573 Q120.463 143.444 118.82 145.434 Q117.176 147.402 114.144 148.166 Z" fill="#000000" fill-rule="nonzero" fill-opacity="1" /><path clip-path="url(#clip910)" d="M130.139 160.92 L135.023 160.92 L135.023 166.8 L130.139 166.8 L130.139 160.92 Z" fill="#000000" fill-rule="nonzero" fill-opacity="1" /><path clip-path="url(#clip910)" d="M145.255 132.24 L163.611 132.24 L163.611 136.175 L149.537 136.175 L149.537 144.647 Q150.556 144.3 151.574 144.138 Q152.593 143.953 153.611 143.953 Q159.398 143.953 162.778 147.124 Q166.158 150.295 166.158 155.712 Q166.158 161.291 162.685 164.393 Q159.213 167.471 152.894 167.471 Q150.718 167.471 148.449 167.101 Q146.204 166.731 143.797 165.99 L143.797 161.291 Q145.88 162.425 148.102 162.981 Q150.324 163.536 152.801 163.536 Q156.806 163.536 159.144 161.43 Q161.482 159.323 161.482 155.712 Q161.482 152.101 159.144 149.995 Q156.806 147.888 152.801 147.888 Q150.926 147.888 149.051 148.305 Q147.199 148.721 145.255 149.601 L145.255 132.24 Z" fill="#000000" fill-rule="nonzero" fill-opacity="1" /><path clip-path="url(#clip910)" d="M185.37 135.319 Q181.759 135.319 179.931 138.883 Q178.125 142.425 178.125 149.555 Q178.125 156.661 179.931 160.226 Q181.759 163.768 185.37 163.768 Q189.005 163.768 190.81 160.226 Q192.639 156.661 192.639 149.555 Q192.639 142.425 190.81 138.883 Q189.005 135.319 185.37 135.319 M185.37 131.615 Q191.181 131.615 194.236 136.221 Q197.315 140.805 197.315 149.555 Q197.315 158.282 194.236 162.888 Q191.181 167.471 185.37 167.471 Q179.56 167.471 176.482 162.888 Q173.426 158.282 173.426 149.555 Q173.426 140.805 176.482 136.221 Q179.56 131.615 185.37 131.615 Z" fill="#000000" fill-rule="nonzero" fill-opacity="1" /><path clip-path="url(#clip910)" d="M233.704 141.337 L223.125 151.962 L233.704 162.541 L230.949 165.342 L220.324 154.717 L209.699 165.342 L206.968 162.541 L217.523 151.962 L206.968 141.337 L209.699 138.536 L220.324 149.161 L230.949 138.536 L233.704 141.337 Z" fill="#000000" fill-rule="nonzero" fill-opacity="1" /><path clip-path="url(#clip910)" d="M246.065 162.865 L253.703 162.865 L253.703 136.499 L245.393 138.166 L245.393 133.907 L253.657 132.24 L258.333 132.24 L258.333 162.865 L265.972 162.865 L265.972 166.8 L246.065 166.8 L246.065 162.865 Z" fill="#000000" fill-rule="nonzero" fill-opacity="1" /><path clip-path="url(#clip910)" d="M285.416 135.319 Q281.805 135.319 279.976 138.883 Q278.171 142.425 278.171 149.555 Q278.171 156.661 279.976 160.226 Q281.805 163.768 285.416 163.768 Q289.05 163.768 290.856 160.226 Q292.685 156.661 292.685 149.555 Q292.685 142.425 290.856 138.883 Q289.05 135.319 285.416 135.319 M285.416 131.615 Q291.226 131.615 294.282 136.221 Q297.361 140.805 297.361 149.555 Q297.361 158.282 294.282 162.888 Q291.226 167.471 285.416 167.471 Q279.606 167.471 276.527 162.888 Q273.472 158.282 273.472 149.555 Q273.472 140.805 276.527 136.221 Q279.606 131.615 285.416 131.615 Z" fill="#000000" fill-rule="nonzero" fill-opacity="1" /><path clip-path="url(#clip910)" d="M299.166 138.807 L299.166 135.346 Q300.596 136.023 302.063 136.38 Q303.53 136.738 304.94 136.738 Q308.702 136.738 310.676 134.217 Q312.67 131.678 312.952 126.525 Q311.861 128.143 310.187 129.008 Q308.514 129.873 306.482 129.873 Q302.269 129.873 299.806 127.334 Q297.361 124.776 297.361 120.356 Q297.361 116.03 299.918 113.416 Q302.476 110.802 306.727 110.802 Q311.598 110.802 314.156 114.545 Q316.733 118.268 316.733 125.378 Q316.733 132.017 313.573 135.985 Q310.432 139.935 305.109 139.935 Q303.68 139.935 302.213 139.653 Q300.746 139.371 299.166 138.807 M306.727 126.901 Q309.285 126.901 310.771 125.152 Q312.275 123.403 312.275 120.356 Q312.275 117.328 310.771 115.579 Q309.285 113.811 306.727 113.811 Q304.169 113.811 302.664 115.579 Q301.179 117.328 301.179 120.356 Q301.179 123.403 302.664 125.152 Q304.169 126.901 306.727 126.901 Z" fill="#000000" fill-rule="nonzero" fill-opacity="1" /><path clip-path="url(#clip910)" d="M-9.64527 840.632 L0.4762 840.632 L0.4762 828.569 L5.02768 828.569 L5.02768 840.632 L24.3794 840.632 Q28.7399 840.632 29.9813 839.454 Q31.2226 838.245 31.2226 834.584 L31.2226 828.569 L36.1242 828.569 L36.1242 834.584 Q36.1242 841.364 33.6097 843.942 Q31.0634 846.52 24.3794 846.52 L5.02768 846.52 L5.02768 850.817 L0.4762 850.817 L0.4762 846.52 L-9.64527 846.52 L-9.64527 840.632 Z" fill="#000000" fill-rule="nonzero" fill-opacity="1" /><path clip-path="url(#clip910)" d="M-11.3958 789.738 L-11.3958 784.327 L42.1716 800.878 L42.1716 806.289 L-11.3958 789.738 Z" fill="#000000" fill-rule="nonzero" fill-opacity="1" /><path clip-path="url(#clip910)" d="M14.6081 727.831 L36.1242 727.831 L36.1242 733.688 L14.799 733.688 Q9.7383 733.688 7.22385 735.661 Q4.7094 737.635 4.7094 741.581 Q4.7094 746.324 7.73311 749.061 Q10.7568 751.798 15.9767 751.798 L36.1242 751.798 L36.1242 757.687 L0.4762 757.687 L0.4762 751.798 L6.01437 751.798 Q2.79968 749.698 1.20826 746.865 Q-0.38317 744 -0.38317 740.276 Q-0.38317 734.133 3.43625 730.982 Q7.22385 727.831 14.6081 727.831 Z" fill="#000000" fill-rule="nonzero" fill-opacity="1" /><path clip-path="url(#clip910)" d="M1.52654 693.425 L7.06471 693.425 Q5.79157 695.907 5.15499 698.581 Q4.51842 701.255 4.51842 704.119 Q4.51842 708.48 5.85522 710.676 Q7.19202 712.84 9.86562 712.84 Q11.9026 712.84 13.0803 711.281 Q14.2261 709.721 15.2765 705.01 L15.7221 703.005 Q17.0589 696.767 19.5097 694.157 Q21.9286 691.515 26.2891 691.515 Q31.2544 691.515 34.1508 695.462 Q37.0472 699.377 37.0472 706.252 Q37.0472 709.116 36.4743 712.235 Q35.9332 715.323 34.8192 718.76 L28.7718 718.76 Q30.4587 715.514 31.318 712.363 Q32.1456 709.212 32.1456 706.124 Q32.1456 701.987 30.7451 699.759 Q29.3129 697.531 26.7347 697.531 Q24.3476 697.531 23.0745 699.154 Q21.8013 700.745 20.6237 706.188 L20.1462 708.225 Q19.0004 713.668 16.6451 716.087 Q14.258 718.506 10.1202 718.506 Q5.09134 718.506 2.35408 714.941 Q-0.38317 711.376 -0.38317 704.819 Q-0.38317 701.573 0.0942579 698.708 Q0.571686 695.844 1.52654 693.425 Z" fill="#000000" fill-rule="nonzero" fill-opacity="1" /><path clip-path="url(#clip912)" d="M820.428 1454.11 L821.39 1454.06 L822.119 1454.02 L822.637 1453.97 L822.971 1453.92 L823.152 1453.87 L823.213 1453.82 L823.192 1453.78 L823.127 1453.73 L823.058 1453.68 L823.022 1453.63 L823.057 1453.59 L823.196 1453.54 L823.47 1453.49 L823.906 1453.44 L824.524 1453.39 L825.342 1453.35 L826.369 1453.3 L827.613 1453.25 L829.072 1453.2 L830.742 1453.16 L832.613 1453.11 L834.673 1453.06 L836.906 1453.01 L839.293 1452.97 L841.814 1452.92 L844.45 1452.87 L847.18 1452.82 L849.988 1452.77 L852.856 1452.73 L855.771 1452.68 L858.724 1452.63 L861.707 1452.58 L864.72 1452.54 L867.763 1452.49 L870.843 1452.44 L873.971 1452.39 L877.158 1452.34 L880.423 1452.3 L883.785 1452.25 L887.265 1452.2 L890.886 1452.15 L894.67 1452.11 L898.64 1452.06 L902.816 1452.01 L907.216 1451.96 L911.855 1451.91 L916.743 1451.87 L921.886 1451.82 L927.283 1451.77 L932.925 1451.72 L938.798 1451.68 L944.88 1451.63 L951.14 1451.58 L957.541 1451.53 L964.036 1451.48 L970.573 1451.44 L977.091 1451.39 L983.526 1451.34 L989.807 1451.29 L995.861 1451.25 L1001.61 1451.2 L1006.98 1451.15 L1011.9 1451.1 L1016.28 1451.05 L1020.07 1451.01 L1023.2 1450.96 L1025.62 1450.91 L1027.27 1450.86 L1028.11 1450.82 L1028.13 1450.77 L1027.3 1450.72 L1025.61 1450.67 L1023.08 1450.63 L1019.71 1450.58 L1015.53 1450.53 L1010.57 1450.48 L1004.89 1450.43 L998.515 1450.39 L991.52 1450.34 L983.96 1450.29 L975.901 1450.24 L967.41 1450.2 L958.556 1450.15 L949.407 1450.1 L940.03 1450.05 L930.492 1450 L920.856 1449.96 L550.913 1449.96 L541.277 1450 L531.739 1450.05 L522.362 1450.1 L513.213 1450.15 L504.359 1450.2 L495.868 1450.24 L487.809 1450.29 L480.249 1450.34 L473.254 1450.39 L466.884 1450.43 L461.196 1450.48 L456.241 1450.53 L452.06 1450.58 L448.69 1450.63 L446.155 1450.67 L444.47 1450.72 L443.639 1450.77 L443.656 1450.82 L444.503 1450.86 L446.153 1450.91 L448.567 1450.96 L451.696 1451.01 L455.486 1451.05 L459.873 1451.1 L464.788 1451.15 L470.158 1451.2 L475.908 1451.25 L481.962 1451.29 L488.243 1451.34 L494.678 1451.39 L501.196 1451.44 L507.733 1451.48 L514.228 1451.53 L520.629 1451.58 L526.889 1451.63 L532.971 1451.68 L538.844 1451.72 L544.486 1451.77 L549.883 1451.82 L555.026 1451.87 L559.914 1451.91 L564.553 1451.96 L568.953 1452.01 L573.129 1452.06 L577.099 1452.11 L580.883 1452.15 L584.504 1452.2 L587.984 1452.25 L591.346 1452.3 L594.611 1452.34 L597.799 1452.39 L600.926 1452.44 L604.006 1452.49 L607.049 1452.54 L610.062 1452.58 L613.045 1452.63 L615.998 1452.68 L618.913 1452.73 L621.781 1452.77 L624.589 1452.82 L627.319 1452.87 L629.955 1452.92 L632.476 1452.97 L634.863 1453.01 L637.096 1453.06 L639.156 1453.11 L641.027 1453.16 L642.697 1453.2 L644.156 1453.25 L645.4 1453.3 L646.427 1453.35 L647.245 1453.39 L647.863 1453.44 L648.299 1453.49 L648.573 1453.54 L648.712 1453.59 L648.747 1453.63 L648.711 1453.68 L648.642 1453.73 L648.577 1453.78 L648.556 1453.82 L648.617 1453.87 L648.798 1453.92 L649.132 1453.97 L649.65 1454.02 L650.379 1454.06 L651.341 1454.11 L820.428 1454.11  Z" fill="#009af9" fill-rule="evenodd" fill-opacity="1"/>
<polyline clip-path="url(#clip912)" style="stroke:#000000; stroke-linecap:round; stroke-linejoin:round; stroke-width:4; stroke-opacity:1; fill:none" points="820.428,1454.11 821.39,1454.06 822.119,1454.02 822.637,1453.97 822.971,1453.92 823.152,1453.87 823.213,1453.82 823.192,1453.78 823.127,1453.73 823.058,1453.68 823.022,1453.63 823.057,1453.59 823.196,1453.54 823.47,1453.49 823.906,1453.44 824.524,1453.39 825.342,1453.35 826.369,1453.3 827.613,1453.25 829.072,1453.2 830.742,1453.16 832.613,1453.11 834.673,1453.06 836.906,1453.01 839.293,1452.97 841.814,1452.92 844.45,1452.87 847.18,1452.82 849.988,1452.77 852.856,1452.73 855.771,1452.68 858.724,1452.63 861.707,1452.58 864.72,1452.54 867.763,1452.49 870.843,1452.44 873.971,1452.39 877.158,1452.34 880.423,1452.3 883.785,1452.25 887.265,1452.2 890.886,1452.15 894.67,1452.11 898.64,1452.06 902.816,1452.01 907.216,1451.96 911.855,1451.91 916.743,1451.87 921.886,1451.82 927.283,1451.77 932.925,1451.72 938.798,1451.68 944.88,1451.63 951.14,1451.58 957.541,1451.53 964.036,1451.48 970.573,1451.44 977.091,1451.39 983.526,1451.34 989.807,1451.29 995.861,1451.25 1001.61,1451.2 1006.98,1451.15 1011.9,1451.1 1016.28,1451.05 1020.07,1451.01 1023.2,1450.96 1025.62,1450.91 1027.27,1450.86 1028.11,1450.82 1028.13,1450.77 1027.3,1450.72 1025.61,1450.67 1023.08,1450.63 1019.71,1450.58 1015.53,1450.53 1010.57,1450.48 1004.89,1450.43 998.515,1450.39 991.52,1450.34 983.96,1450.29 975.901,1450.24 967.41,1450.2 958.556,1450.15 949.407,1450.1 940.03,1450.05 930.492,1450 920.856,1449.96 550.913,1449.96 541.277,1450 531.739,1450.05 522.362,1450.1 513.213,1450.15 504.359,1450.2 495.868,1450.24 487.809,1450.29 480.249,1450.34 473.254,1450.39 466.884,1450.43 461.196,1450.48 456.241,1450.53 452.06,1450.58 448.69,1450.63 446.155,1450.67 444.47,1450.72 443.639,1450.77 443.656,1450.82 444.503,1450.86 446.153,1450.91 448.567,1450.96 451.696,1451.01 455.486,1451.05 459.873,1451.1 464.788,1451.15 470.158,1451.2 475.908,1451.25 481.962,1451.29 488.243,1451.34 494.678,1451.39 501.196,1451.44 507.733,1451.48 514.228,1451.53 520.629,1451.58 526.889,1451.63 532.971,1451.68 538.844,1451.72 544.486,1451.77 549.883,1451.82 555.026,1451.87 559.914,1451.91 564.553,1451.96 568.953,1452.01 573.129,1452.06 577.099,1452.11 580.883,1452.15 584.504,1452.2 587.984,1452.25 591.346,1452.3 594.611,1452.34 597.799,1452.39 600.926,1452.44 604.006,1452.49 607.049,1452.54 610.062,1452.58 613.045,1452.63 615.998,1452.68 618.913,1452.73 621.781,1452.77 624.589,1452.82 627.319,1452.87 629.955,1452.92 632.476,1452.97 634.863,1453.01 637.096,1453.06 639.156,1453.11 641.027,1453.16 642.697,1453.2 644.156,1453.25 645.4,1453.3 646.427,1453.35 647.245,1453.39 647.863,1453.44 648.299,1453.49 648.573,1453.54 648.712,1453.59 648.747,1453.63 648.711,1453.68 648.642,1453.73 648.577,1453.78 648.556,1453.82 648.617,1453.87 648.798,1453.92 649.132,1453.97 649.65,1454.02 650.379,1454.06 651.341,1454.11 820.428,1454.11 "/>
<path clip-path="url(#clip912)" d="M2001.56 1448.96 L2008.81 1448.66 L2015.57 1448.37 L2021.81 1448.07 L2027.5 1447.78 L2032.6 1447.48 L2037.1 1447.19 L2040.98 1446.89 L2044.24 1446.59 L2046.86 1446.3 L2048.84 1446 L2050.18 1445.71 L2050.9 1445.41 L2050.99 1445.12 L2050.48 1444.82 L2049.37 1444.52 L2047.7 1444.23 L2045.48 1443.93 L2042.74 1443.64 L2039.5 1443.34 L2035.8 1443.05 L2031.67 1442.75 L2027.15 1442.45 L2022.28 1442.16 L2017.08 1441.86 L2011.61 1441.57 L2005.91 1441.27 L2000.01 1440.98 L1993.97 1440.68 L1987.82 1440.38 L1981.61 1440.09 L1975.39 1439.79 L1969.19 1439.5 L1963.06 1439.2 L1957.03 1438.9 L1951.14 1438.61 L1945.43 1438.31 L1939.92 1438.02 L1934.64 1437.72 L1929.6 1437.43 L1924.84 1437.13 L1920.36 1436.83 L1916.17 1436.54 L1912.28 1436.24 L1908.68 1435.95 L1905.38 1435.65 L1902.37 1435.36 L1899.64 1435.06 L1897.17 1434.76 L1894.95 1434.47 L1892.97 1434.17 L1891.2 1433.88 L1889.63 1433.58 L1888.23 1433.29 L1886.98 1432.99 L1885.86 1432.69 L1884.85 1432.4 L1883.92 1432.1 L1883.06 1431.81 L1882.24 1431.51 L1881.44 1431.22 L1880.65 1430.92 L1879.84 1430.62 L1878.99 1430.33 L1878.1 1430.03 L1877.13 1429.74 L1876.09 1429.44 L1874.94 1429.15 L1873.68 1428.85 L1872.3 1428.55 L1870.79 1428.26 L1869.12 1427.96 L1867.31 1427.67 L1865.33 1427.37 L1863.19 1427.07 L1860.89 1426.78 L1656.6 1426.78 L1654.29 1427.07 L1652.16 1427.37 L1650.18 1427.67 L1648.36 1427.96 L1646.7 1428.26 L1645.19 1428.55 L1643.8 1428.85 L1642.55 1429.15 L1641.4 1429.44 L1640.35 1429.74 L1639.39 1430.03 L1638.5 1430.33 L1637.65 1430.62 L1636.84 1430.92 L1636.05 1431.22 L1635.25 1431.51 L1634.43 1431.81 L1633.57 1432.1 L1632.64 1432.4 L1631.63 1432.69 L1630.51 1432.99 L1629.26 1433.29 L1627.86 1433.58 L1626.29 1433.88 L1624.52 1434.17 L1622.54 1434.47 L1620.32 1434.76 L1617.85 1435.06 L1615.12 1435.36 L1612.11 1435.65 L1608.81 1435.95 L1605.21 1436.24 L1601.32 1436.54 L1597.13 1436.83 L1592.65 1437.13 L1587.89 1437.43 L1582.85 1437.72 L1577.57 1438.02 L1572.06 1438.31 L1566.34 1438.61 L1560.46 1438.9 L1554.43 1439.2 L1548.3 1439.5 L1542.1 1439.79 L1535.88 1440.09 L1529.67 1440.38 L1523.52 1440.68 L1517.48 1440.98 L1511.58 1441.27 L1505.88 1441.57 L1500.41 1441.86 L1495.21 1442.16 L1490.33 1442.45 L1485.81 1442.75 L1481.69 1443.05 L1477.99 1443.34 L1474.75 1443.64 L1472.01 1443.93 L1469.79 1444.23 L1468.12 1444.52 L1467.01 1444.82 L1466.5 1445.12 L1466.59 1445.41 L1467.31 1445.71 L1468.65 1446 L1470.63 1446.3 L1473.25 1446.59 L1476.51 1446.89 L1480.39 1447.19 L1484.89 1447.48 L1489.99 1447.78 L1495.68 1448.07 L1501.92 1448.37 L1508.68 1448.66 L1515.93 1448.96 L2001.56 1448.96  Z" fill="#e26f46" fill-rule="evenodd" fill-opacity="1"/>
<polyline clip-path="url(#clip912)" style="stroke:#000000; stroke-linecap:round; stroke-linejoin:round; stroke-width:4; stroke-opacity:1; fill:none" points="2001.56,1448.96 2008.81,1448.66 2015.57,1448.37 2021.81,1448.07 2027.5,1447.78 2032.6,1447.48 2037.1,1447.19 2040.98,1446.89 2044.24,1446.59 2046.86,1446.3 2048.84,1446 2050.18,1445.71 2050.9,1445.41 2050.99,1445.12 2050.48,1444.82 2049.37,1444.52 2047.7,1444.23 2045.48,1443.93 2042.74,1443.64 2039.5,1443.34 2035.8,1443.05 2031.67,1442.75 2027.15,1442.45 2022.28,1442.16 2017.08,1441.86 2011.61,1441.57 2005.91,1441.27 2000.01,1440.98 1993.97,1440.68 1987.82,1440.38 1981.61,1440.09 1975.39,1439.79 1969.19,1439.5 1963.06,1439.2 1957.03,1438.9 1951.14,1438.61 1945.43,1438.31 1939.92,1438.02 1934.64,1437.72 1929.6,1437.43 1924.84,1437.13 1920.36,1436.83 1916.17,1436.54 1912.28,1436.24 1908.68,1435.95 1905.38,1435.65 1902.37,1435.36 1899.64,1435.06 1897.17,1434.76 1894.95,1434.47 1892.97,1434.17 1891.2,1433.88 1889.63,1433.58 1888.23,1433.29 1886.98,1432.99 1885.86,1432.69 1884.85,1432.4 1883.92,1432.1 1883.06,1431.81 1882.24,1431.51 1881.44,1431.22 1880.65,1430.92 1879.84,1430.62 1878.99,1430.33 1878.1,1430.03 1877.13,1429.74 1876.09,1429.44 1874.94,1429.15 1873.68,1428.85 1872.3,1428.55 1870.79,1428.26 1869.12,1427.96 1867.31,1427.67 1865.33,1427.37 1863.19,1427.07 1860.89,1426.78 1656.6,1426.78 1654.29,1427.07 1652.16,1427.37 1650.18,1427.67 1648.36,1427.96 1646.7,1428.26 1645.19,1428.55 1643.8,1428.85 1642.55,1429.15 1641.4,1429.44 1640.35,1429.74 1639.39,1430.03 1638.5,1430.33 1637.65,1430.62 1636.84,1430.92 1636.05,1431.22 1635.25,1431.51 1634.43,1431.81 1633.57,1432.1 1632.64,1432.4 1631.63,1432.69 1630.51,1432.99 1629.26,1433.29 1627.86,1433.58 1626.29,1433.88 1624.52,1434.17 1622.54,1434.47 1620.32,1434.76 1617.85,1435.06 1615.12,1435.36 1612.11,1435.65 1608.81,1435.95 1605.21,1436.24 1601.32,1436.54 1597.13,1436.83 1592.65,1437.13 1587.89,1437.43 1582.85,1437.72 1577.57,1438.02 1572.06,1438.31 1566.34,1438.61 1560.46,1438.9 1554.43,1439.2 1548.3,1439.5 1542.1,1439.79 1535.88,1440.09 1529.67,1440.38 1523.52,1440.68 1517.48,1440.98 1511.58,1441.27 1505.88,1441.57 1500.41,1441.86 1495.21,1442.16 1490.33,1442.45 1485.81,1442.75 1481.69,1443.05 1477.99,1443.34 1474.75,1443.64 1472.01,1443.93 1469.79,1444.23 1468.12,1444.52 1467.01,1444.82 1466.5,1445.12 1466.59,1445.41 1467.31,1445.71 1468.65,1446 1470.63,1446.3 1473.25,1446.59 1476.51,1446.89 1480.39,1447.19 1484.89,1447.48 1489.99,1447.78 1495.68,1448.07 1501.92,1448.37 1508.68,1448.66 1515.93,1448.96 2001.56,1448.96 "/>
<path clip-path="url(#clip912)" d="M3073.85 97.4014 L3073.27 97.2458 L3071.78 97.0902 L3069.4 96.9346 L3066.16 96.779 L3062.11 96.6234 L3057.29 96.4678 L3051.76 96.3122 L3045.59 96.1566 L3038.86 96.001 L3031.65 95.8454 L3024.03 95.6898 L3016.1 95.5342 L3007.95 95.3785 L2999.67 95.2229 L2991.36 95.0673 L2983.1 94.9117 L2974.99 94.7561 L2967.12 94.6005 L2959.57 94.4449 L2952.43 94.2893 L2945.77 94.1337 L2939.66 93.9781 L2934.17 93.8225 L2929.35 93.6669 L2925.25 93.5113 L2921.93 93.3557 L2919.4 93.2001 L2917.7 93.0445 L2916.85 92.8889 L2916.85 92.7333 L2917.7 92.5777 L2919.4 92.4221 L2921.93 92.2665 L2925.25 92.1109 L2929.35 91.9553 L2934.17 91.7997 L2939.66 91.6441 L2945.77 91.4885 L2952.43 91.3329 L2959.57 91.1773 L2967.12 91.0217 L2974.99 90.8661 L2983.1 90.7105 L2991.36 90.5549 L2999.67 90.3992 L3007.95 90.2436 L3016.1 90.088 L3024.03 89.9324 L3031.65 89.7768 L3038.86 89.6212 L3045.59 89.4656 L3051.76 89.31 L3057.29 89.1544 L3062.11 88.9988 L3066.16 88.8432 L3069.4 88.6876 L3071.78 88.532 L3073.27 88.3764 L3073.85 88.2208 L2489.36 88.2208 L2489.93 88.3764 L2491.42 88.532 L2493.81 88.6876 L2497.05 88.8432 L2501.1 88.9988 L2505.92 89.1544 L2511.45 89.31 L2517.61 89.4656 L2524.34 89.6212 L2531.56 89.7768 L2539.18 89.9324 L2547.11 90.088 L2555.26 90.2436 L2563.54 90.3992 L2571.85 90.5549 L2580.11 90.7105 L2588.22 90.8661 L2596.09 91.0217 L2603.64 91.1773 L2610.78 91.3329 L2617.44 91.4885 L2623.55 91.6441 L2629.04 91.7997 L2633.86 91.9553 L2637.95 92.1109 L2641.28 92.2665 L2643.81 92.4221 L2645.5 92.5777 L2646.36 92.7333 L2646.36 92.8889 L2645.5 93.0445 L2643.81 93.2001 L2641.28 93.3557 L2637.95 93.5113 L2633.86 93.6669 L2629.04 93.8225 L2623.55 93.9781 L2617.44 94.1337 L2610.78 94.2893 L2603.64 94.4449 L2596.09 94.6005 L2588.22 94.7561 L2580.11 94.9117 L2571.85 95.0673 L2563.54 95.2229 L2555.26 95.3785 L2547.11 95.5342 L2539.18 95.6898 L2531.56 95.8454 L2524.34 96.001 L2517.61 96.1566 L2511.45 96.3122 L2505.92 96.4678 L2501.1 96.6234 L2497.05 96.779 L2493.81 96.9346 L2491.42 97.0902 L2489.93 97.2458 L2489.36 97.4014 L3073.85 97.4014  Z" fill="#3da44d" fill-rule="evenodd" fill-opacity="1"/>
<polyline clip-path="url(#clip912)" style="stroke:#000000; stroke-linecap:round; stroke-linejoin:round; stroke-width:4; stroke-opacity:1; fill:none" points="3073.85,97.4014 3073.27,97.2458 3071.78,97.0902 3069.4,96.9346 3066.16,96.779 3062.11,96.6234 3057.29,96.4678 3051.76,96.3122 3045.59,96.1566 3038.86,96.001 3031.65,95.8454 3024.03,95.6898 3016.1,95.5342 3007.95,95.3785 2999.67,95.2229 2991.36,95.0673 2983.1,94.9117 2974.99,94.7561 2967.12,94.6005 2959.57,94.4449 2952.43,94.2893 2945.77,94.1337 2939.66,93.9781 2934.17,93.8225 2929.35,93.6669 2925.25,93.5113 2921.93,93.3557 2919.4,93.2001 2917.7,93.0445 2916.85,92.8889 2916.85,92.7333 2917.7,92.5777 2919.4,92.4221 2921.93,92.2665 2925.25,92.1109 2929.35,91.9553 2934.17,91.7997 2939.66,91.6441 2945.77,91.4885 2952.43,91.3329 2959.57,91.1773 2967.12,91.0217 2974.99,90.8661 2983.1,90.7105 2991.36,90.5549 2999.67,90.3992 3007.95,90.2436 3016.1,90.088 3024.03,89.9324 3031.65,89.7768 3038.86,89.6212 3045.59,89.4656 3051.76,89.31 3057.29,89.1544 3062.11,88.9988 3066.16,88.8432 3069.4,88.6876 3071.78,88.532 3073.27,88.3764 3073.85,88.2208 2489.36,88.2208 2489.93,88.3764 2491.42,88.532 2493.81,88.6876 2497.05,88.8432 2501.1,88.9988 2505.92,89.1544 2511.45,89.31 2517.61,89.4656 2524.34,89.6212 2531.56,89.7768 2539.18,89.9324 2547.11,90.088 2555.26,90.2436 2563.54,90.3992 2571.85,90.5549 2580.11,90.7105 2588.22,90.8661 2596.09,91.0217 2603.64,91.1773 2610.78,91.3329 2617.44,91.4885 2623.55,91.6441 2629.04,91.7997 2633.86,91.9553 2637.95,92.1109 2641.28,92.2665 2643.81,92.4221 2645.5,92.5777 2646.36,92.7333 2646.36,92.8889 2645.5,93.0445 2643.81,93.2001 2641.28,93.3557 2637.95,93.5113 2633.86,93.6669 2629.04,93.8225 2623.55,93.9781 2617.44,94.1337 2610.78,94.2893 2603.64,94.4449 2596.09,94.6005 2588.22,94.7561 2580.11,94.9117 2571.85,95.0673 2563.54,95.2229 2555.26,95.3785 2547.11,95.5342 2539.18,95.6898 2531.56,95.8454 2524.34,96.001 2517.61,96.1566 2511.45,96.3122 2505.92,96.4678 2501.1,96.6234 2497.05,96.779 2493.81,96.9346 2491.42,97.0902 2489.93,97.2458 2489.36,97.4014 3073.85,97.4014 "/>
</svg>
