<?xml version="1.0" encoding="utf-8"?>
<svg xmlns="http://www.w3.org/2000/svg" xmlns:xlink="http://www.w3.org/1999/xlink" width="800" height="400" viewBox="0 0 3200 1600">
<defs>
  <clipPath id="clip190">
    <rect x="0" y="0" width="3200" height="1600"/>
  </clipPath>
</defs>
<path clip-path="url(#clip190)" d="M0 1600 L3200 1600 L3200 0 L0 0  Z" fill="#ffffff" fill-rule="evenodd" fill-opacity="1"/>
<defs>
  <clipPath id="clip191">
    <rect x="640" y="0" width="2241" height="1600"/>
  </clipPath>
</defs>
<path clip-path="url(#clip190)" d="M364.733 1495.09 L3152.76 1495.09 L3152.76 47.2441 L364.733 47.2441  Z" fill="#ffffff" fill-rule="evenodd" fill-opacity="1"/>
<defs>
  <clipPath id="clip192">
    <rect x="364" y="47" width="2789" height="1449"/>
  </clipPath>
</defs>
<polyline clip-path="url(#clip192)" style="stroke:#000000; stroke-linecap:round; stroke-linejoin:round; stroke-width:2; stroke-opacity:0.1; fill:none" points="735.885,1495.09 735.885,47.2441 "/>
<polyline clip-path="url(#clip192)" style="stroke:#000000; stroke-linecap:round; stroke-linejoin:round; stroke-width:2; stroke-opacity:0.1; fill:none" points="1758.74,1495.09 1758.74,47.2441 "/>
<polyline clip-path="url(#clip192)" style="stroke:#000000; stroke-linecap:round; stroke-linejoin:round; stroke-width:2; stroke-opacity:0.1; fill:none" points="2781.6,1495.09 2781.6,47.2441 "/>
<polyline clip-path="url(#clip192)" style="stroke:#000000; stroke-linecap:round; stroke-linejoin:round; stroke-width:2; stroke-opacity:0.1; fill:none" points="364.733,1409.68 3152.76,1409.68 "/>
<polyline clip-path="url(#clip192)" style="stroke:#000000; stroke-linecap:round; stroke-linejoin:round; stroke-width:2; stroke-opacity:0.1; fill:none" points="364.733,985.396 3152.76,985.396 "/>
<polyline clip-path="url(#clip192)" style="stroke:#000000; stroke-linecap:round; stroke-linejoin:round; stroke-width:2; stroke-opacity:0.1; fill:none" points="364.733,561.116 3152.76,561.116 "/>
<polyline clip-path="url(#clip192)" style="stroke:#000000; stroke-linecap:round; stroke-linejoin:round; stroke-width:2; stroke-opacity:0.1; fill:none" points="364.733,136.837 3152.76,136.837 "/>
<polyline clip-path="url(#clip190)" style="stroke:#000000; stroke-linecap:round; stroke-linejoin:round; stroke-width:4; stroke-opacity:1; fill:none" points="364.733,1495.09 3152.76,1495.09 "/>
<polyline clip-path="url(#clip190)" style="stroke:#000000; stroke-linecap:round; stroke-linejoin:round; stroke-width:4; stroke-opacity:1; fill:none" points="735.885,1495.09 735.885,1476.19 "/>
<polyline clip-path="url(#clip190)" style="stroke:#000000; stroke-linecap:round; stroke-linejoin:round; stroke-width:4; stroke-opacity:1; fill:none" points="1758.74,1495.09 1758.74,1476.19 "/>
<polyline clip-path="url(#clip190)" style="stroke:#000000; stroke-linecap:round; stroke-linejoin:round; stroke-width:4; stroke-opacity:1; fill:none" points="2781.6,1495.09 2781.6,1476.19 "/>
<path clip-path="url(#clip190)" d="M545.619 1547.68 Q547.124 1548.19 548.536 1549.86 Q549.971 1551.53 551.406 1554.44 L556.152 1563.89 L551.129 1563.89 L546.707 1555.02 Q544.994 1551.55 543.374 1550.42 Q541.777 1549.28 538.999 1549.28 L533.906 1549.28 L533.906 1563.89 L529.231 1563.89 L529.231 1529.33 L539.786 1529.33 Q545.712 1529.33 548.629 1531.8 Q551.545 1534.28 551.545 1539.28 Q551.545 1542.55 550.017 1544.7 Q548.513 1546.85 545.619 1547.68 M533.906 1533.17 L533.906 1545.44 L539.786 1545.44 Q543.166 1545.44 544.879 1543.89 Q546.615 1542.31 546.615 1539.28 Q546.615 1536.25 544.879 1534.72 Q543.166 1533.17 539.786 1533.17 L533.906 1533.17 Z" fill="#000000" fill-rule="nonzero" fill-opacity="1" /><path clip-path="url(#clip190)" d="M562.17 1529.33 L582.031 1529.33 L582.031 1533.26 L566.846 1533.26 L566.846 1543.45 L580.55 1543.45 L580.55 1547.38 L566.846 1547.38 L566.846 1563.89 L562.17 1563.89 L562.17 1529.33 Z" fill="#000000" fill-rule="nonzero" fill-opacity="1" /><path clip-path="url(#clip190)" d="M589.439 1529.33 L594.114 1529.33 L594.114 1559.95 L610.943 1559.95 L610.943 1563.89 L589.439 1563.89 L589.439 1529.33 Z" fill="#000000" fill-rule="nonzero" fill-opacity="1" /><path clip-path="url(#clip190)" d="M612.957 1529.33 L617.656 1529.33 L617.656 1550.32 Q617.656 1555.88 619.67 1558.33 Q621.684 1560.76 626.198 1560.76 Q630.688 1560.76 632.702 1558.33 Q634.716 1555.88 634.716 1550.32 L634.716 1529.33 L639.415 1529.33 L639.415 1550.9 Q639.415 1557.66 636.059 1561.11 Q632.725 1564.56 626.198 1564.56 Q619.647 1564.56 616.29 1561.11 Q612.957 1557.66 612.957 1550.9 L612.957 1529.33 Z" fill="#000000" fill-rule="nonzero" fill-opacity="1" /><path clip-path="url(#clip190)" d="M648.188 1529.33 L668.049 1529.33 L668.049 1533.26 L652.864 1533.26 L652.864 1543.45 L666.568 1543.45 L666.568 1547.38 L652.864 1547.38 L652.864 1563.89 L648.188 1563.89 L648.188 1529.33 Z" fill="#000000" fill-rule="nonzero" fill-opacity="1" /><path clip-path="url(#clip190)" d="M682.702 1550.86 Q677.54 1550.86 675.549 1552.04 Q673.558 1553.22 673.558 1556.06 Q673.558 1558.33 675.04 1559.67 Q676.545 1560.99 679.114 1560.99 Q682.656 1560.99 684.785 1558.49 Q686.938 1555.97 686.938 1551.8 L686.938 1550.86 L682.702 1550.86 M691.197 1549.1 L691.197 1563.89 L686.938 1563.89 L686.938 1559.95 Q685.48 1562.31 683.304 1563.45 Q681.128 1564.56 677.98 1564.56 Q673.998 1564.56 671.637 1562.34 Q669.299 1560.09 669.299 1556.34 Q669.299 1551.97 672.216 1549.74 Q675.156 1547.52 680.966 1547.52 L686.938 1547.52 L686.938 1547.11 Q686.938 1544.17 684.994 1542.57 Q683.072 1540.95 679.577 1540.95 Q677.355 1540.95 675.248 1541.48 Q673.142 1542.01 671.197 1543.08 L671.197 1539.14 Q673.535 1538.24 675.734 1537.8 Q677.933 1537.34 680.017 1537.34 Q685.642 1537.34 688.42 1540.25 Q691.197 1543.17 691.197 1549.1 Z" fill="#000000" fill-rule="nonzero" fill-opacity="1" /><path clip-path="url(#clip190)" d="M718.628 1538.96 L718.628 1542.94 Q716.822 1541.94 714.993 1541.46 Q713.188 1540.95 711.336 1540.95 Q707.193 1540.95 704.901 1543.59 Q702.609 1546.2 702.609 1550.95 Q702.609 1555.69 704.901 1558.33 Q707.193 1560.95 711.336 1560.95 Q713.188 1560.95 714.993 1560.46 Q716.822 1559.95 718.628 1558.96 L718.628 1562.89 Q716.845 1563.73 714.924 1564.14 Q713.026 1564.56 710.873 1564.56 Q705.017 1564.56 701.568 1560.88 Q698.119 1557.2 698.119 1550.95 Q698.119 1544.61 701.591 1540.97 Q705.086 1537.34 711.151 1537.34 Q713.118 1537.34 714.993 1537.75 Q716.868 1538.15 718.628 1538.96 Z" fill="#000000" fill-rule="nonzero" fill-opacity="1" /><path clip-path="url(#clip190)" d="M730.248 1530.6 L730.248 1537.96 L739.021 1537.96 L739.021 1541.27 L730.248 1541.27 L730.248 1555.35 Q730.248 1558.52 731.104 1559.42 Q731.984 1560.32 734.646 1560.32 L739.021 1560.32 L739.021 1563.89 L734.646 1563.89 Q729.716 1563.89 727.841 1562.06 Q725.966 1560.21 725.966 1555.35 L725.966 1541.27 L722.841 1541.27 L722.841 1537.96 L725.966 1537.96 L725.966 1530.6 L730.248 1530.6 Z" fill="#000000" fill-rule="nonzero" fill-opacity="1" /><path clip-path="url(#clip190)" d="M754.669 1540.95 Q751.243 1540.95 749.253 1543.63 Q747.262 1546.3 747.262 1550.95 Q747.262 1555.6 749.229 1558.29 Q751.22 1560.95 754.669 1560.95 Q758.072 1560.95 760.063 1558.26 Q762.053 1555.58 762.053 1550.95 Q762.053 1546.34 760.063 1543.66 Q758.072 1540.95 754.669 1540.95 M754.669 1537.34 Q760.225 1537.34 763.396 1540.95 Q766.567 1544.56 766.567 1550.95 Q766.567 1557.31 763.396 1560.95 Q760.225 1564.56 754.669 1564.56 Q749.09 1564.56 745.919 1560.95 Q742.771 1557.31 742.771 1550.95 Q742.771 1544.56 745.919 1540.95 Q749.09 1537.34 754.669 1537.34 Z" fill="#000000" fill-rule="nonzero" fill-opacity="1" /><path clip-path="url(#clip190)" d="M788.65 1541.94 Q787.933 1541.53 787.076 1541.34 Q786.243 1541.13 785.225 1541.13 Q781.613 1541.13 779.669 1543.49 Q777.748 1545.83 777.748 1550.23 L777.748 1563.89 L773.465 1563.89 L773.465 1537.96 L777.748 1537.96 L777.748 1541.99 Q779.09 1539.63 781.243 1538.49 Q783.396 1537.34 786.475 1537.34 Q786.914 1537.34 787.447 1537.41 Q787.979 1537.45 788.627 1537.57 L788.65 1541.94 Z" fill="#000000" fill-rule="nonzero" fill-opacity="1" /><path clip-path="url(#clip190)" d="M793.118 1537.96 L797.377 1537.96 L797.377 1563.89 L793.118 1563.89 L793.118 1537.96 M793.118 1527.87 L797.377 1527.87 L797.377 1533.26 L793.118 1533.26 L793.118 1527.87 Z" fill="#000000" fill-rule="nonzero" fill-opacity="1" /><path clip-path="url(#clip190)" d="M804.437 1537.96 L824.669 1537.96 L824.669 1541.85 L808.65 1560.49 L824.669 1560.49 L824.669 1563.89 L803.859 1563.89 L803.859 1560 L819.877 1541.36 L804.437 1541.36 L804.437 1537.96 Z" fill="#000000" fill-rule="nonzero" fill-opacity="1" /><path clip-path="url(#clip190)" d="M842.956 1550.86 Q837.794 1550.86 835.803 1552.04 Q833.812 1553.22 833.812 1556.06 Q833.812 1558.33 835.294 1559.67 Q836.798 1560.99 839.368 1560.99 Q842.909 1560.99 845.039 1558.49 Q847.192 1555.97 847.192 1551.8 L847.192 1550.86 L842.956 1550.86 M851.451 1549.1 L851.451 1563.89 L847.192 1563.89 L847.192 1559.95 Q845.733 1562.31 843.558 1563.45 Q841.382 1564.56 838.234 1564.56 Q834.252 1564.56 831.891 1562.34 Q829.553 1560.09 829.553 1556.34 Q829.553 1551.97 832.47 1549.74 Q835.409 1547.52 841.22 1547.52 L847.192 1547.52 L847.192 1547.11 Q847.192 1544.17 845.247 1542.57 Q843.326 1540.95 839.831 1540.95 Q837.609 1540.95 835.502 1541.48 Q833.396 1542.01 831.451 1543.08 L831.451 1539.14 Q833.789 1538.24 835.988 1537.8 Q838.187 1537.34 840.271 1537.34 Q845.896 1537.34 848.673 1540.25 Q851.451 1543.17 851.451 1549.1 Z" fill="#000000" fill-rule="nonzero" fill-opacity="1" /><path clip-path="url(#clip190)" d="M864.437 1530.6 L864.437 1537.96 L873.21 1537.96 L873.21 1541.27 L864.437 1541.27 L864.437 1555.35 Q864.437 1558.52 865.294 1559.42 Q866.173 1560.32 868.835 1560.32 L873.21 1560.32 L873.21 1563.89 L868.835 1563.89 Q863.905 1563.89 862.03 1562.06 Q860.155 1560.21 860.155 1555.35 L860.155 1541.27 L857.03 1541.27 L857.03 1537.96 L860.155 1537.96 L860.155 1530.6 L864.437 1530.6 Z" fill="#000000" fill-rule="nonzero" fill-opacity="1" /><path clip-path="url(#clip190)" d="M878.812 1537.96 L883.071 1537.96 L883.071 1563.89 L878.812 1563.89 L878.812 1537.96 M878.812 1527.87 L883.071 1527.87 L883.071 1533.26 L878.812 1533.26 L878.812 1527.87 Z" fill="#000000" fill-rule="nonzero" fill-opacity="1" /><path clip-path="url(#clip190)" d="M902.029 1540.95 Q898.604 1540.95 896.613 1543.63 Q894.622 1546.3 894.622 1550.95 Q894.622 1555.6 896.59 1558.29 Q898.58 1560.95 902.029 1560.95 Q905.432 1560.95 907.423 1558.26 Q909.414 1555.58 909.414 1550.95 Q909.414 1546.34 907.423 1543.66 Q905.432 1540.95 902.029 1540.95 M902.029 1537.34 Q907.585 1537.34 910.756 1540.95 Q913.928 1544.56 913.928 1550.95 Q913.928 1557.31 910.756 1560.95 Q907.585 1564.56 902.029 1564.56 Q896.451 1564.56 893.28 1560.95 Q890.131 1557.31 890.131 1550.95 Q890.131 1544.56 893.28 1540.95 Q896.451 1537.34 902.029 1537.34 Z" fill="#000000" fill-rule="nonzero" fill-opacity="1" /><path clip-path="url(#clip190)" d="M942.539 1548.24 L942.539 1563.89 L938.279 1563.89 L938.279 1548.38 Q938.279 1544.7 936.844 1542.87 Q935.409 1541.04 932.539 1541.04 Q929.09 1541.04 927.099 1543.24 Q925.108 1545.44 925.108 1549.24 L925.108 1563.89 L920.826 1563.89 L920.826 1537.96 L925.108 1537.96 L925.108 1541.99 Q926.636 1539.65 928.696 1538.49 Q930.779 1537.34 933.488 1537.34 Q937.955 1537.34 940.247 1540.11 Q942.539 1542.87 942.539 1548.24 Z" fill="#000000" fill-rule="nonzero" fill-opacity="1" /><path clip-path="url(#clip190)" d="M1582.19 1529.33 L1586.87 1529.33 L1586.87 1559.95 L1603.7 1559.95 L1603.7 1563.89 L1582.19 1563.89 L1582.19 1529.33 Z" fill="#000000" fill-rule="nonzero" fill-opacity="1" /><path clip-path="url(#clip190)" d="M1605.71 1529.33 L1610.41 1529.33 L1610.41 1550.32 Q1610.41 1555.88 1612.43 1558.33 Q1614.44 1560.76 1618.95 1560.76 Q1623.44 1560.76 1625.46 1558.33 Q1627.47 1555.88 1627.47 1550.32 L1627.47 1529.33 L1632.17 1529.33 L1632.17 1550.9 Q1632.17 1557.66 1628.81 1561.11 Q1625.48 1564.56 1618.95 1564.56 Q1612.4 1564.56 1609.05 1561.11 Q1605.71 1557.66 1605.71 1550.9 L1605.71 1529.33 Z" fill="#000000" fill-rule="nonzero" fill-opacity="1" /><path clip-path="url(#clip190)" d="M1640.94 1529.33 L1660.8 1529.33 L1660.8 1533.26 L1645.62 1533.26 L1645.62 1543.45 L1659.32 1543.45 L1659.32 1547.38 L1645.62 1547.38 L1645.62 1563.89 L1640.94 1563.89 L1640.94 1529.33 Z" fill="#000000" fill-rule="nonzero" fill-opacity="1" /><path clip-path="url(#clip190)" d="M1675.46 1550.86 Q1670.3 1550.86 1668.3 1552.04 Q1666.31 1553.22 1666.31 1556.06 Q1666.31 1558.33 1667.8 1559.67 Q1669.3 1560.99 1671.87 1560.99 Q1675.41 1560.99 1677.54 1558.49 Q1679.69 1555.97 1679.69 1551.8 L1679.69 1550.86 L1675.46 1550.86 M1683.95 1549.1 L1683.95 1563.89 L1679.69 1563.89 L1679.69 1559.95 Q1678.24 1562.31 1676.06 1563.45 Q1673.88 1564.56 1670.74 1564.56 Q1666.75 1564.56 1664.39 1562.34 Q1662.05 1560.09 1662.05 1556.34 Q1662.05 1551.97 1664.97 1549.74 Q1667.91 1547.52 1673.72 1547.52 L1679.69 1547.52 L1679.69 1547.11 Q1679.69 1544.17 1677.75 1542.57 Q1675.83 1540.95 1672.33 1540.95 Q1670.11 1540.95 1668 1541.48 Q1665.9 1542.01 1663.95 1543.08 L1663.95 1539.14 Q1666.29 1538.24 1668.49 1537.8 Q1670.69 1537.34 1672.77 1537.34 Q1678.4 1537.34 1681.18 1540.25 Q1683.95 1543.17 1683.95 1549.1 Z" fill="#000000" fill-rule="nonzero" fill-opacity="1" /><path clip-path="url(#clip190)" d="M1711.38 1538.96 L1711.38 1542.94 Q1709.58 1541.94 1707.75 1541.46 Q1705.94 1540.95 1704.09 1540.95 Q1699.95 1540.95 1697.66 1543.59 Q1695.36 1546.2 1695.36 1550.95 Q1695.36 1555.69 1697.66 1558.33 Q1699.95 1560.95 1704.09 1560.95 Q1705.94 1560.95 1707.75 1560.46 Q1709.58 1559.95 1711.38 1558.96 L1711.38 1562.89 Q1709.6 1563.73 1707.68 1564.14 Q1705.78 1564.56 1703.63 1564.56 Q1697.77 1564.56 1694.32 1560.88 Q1690.87 1557.2 1690.87 1550.95 Q1690.87 1544.61 1694.35 1540.97 Q1697.84 1537.34 1703.91 1537.34 Q1705.87 1537.34 1707.75 1537.75 Q1709.62 1538.15 1711.38 1538.96 Z" fill="#000000" fill-rule="nonzero" fill-opacity="1" /><path clip-path="url(#clip190)" d="M1723 1530.6 L1723 1537.96 L1731.78 1537.96 L1731.78 1541.27 L1723 1541.27 L1723 1555.35 Q1723 1558.52 1723.86 1559.42 Q1724.74 1560.32 1727.4 1560.32 L1731.78 1560.32 L1731.78 1563.89 L1727.4 1563.89 Q1722.47 1563.89 1720.6 1562.06 Q1718.72 1560.21 1718.72 1555.35 L1718.72 1541.27 L1715.6 1541.27 L1715.6 1537.96 L1718.72 1537.96 L1718.72 1530.6 L1723 1530.6 Z" fill="#000000" fill-rule="nonzero" fill-opacity="1" /><path clip-path="url(#clip190)" d="M1747.42 1540.95 Q1744 1540.95 1742.01 1543.63 Q1740.02 1546.3 1740.02 1550.95 Q1740.02 1555.6 1741.99 1558.29 Q1743.98 1560.95 1747.42 1560.95 Q1750.83 1560.95 1752.82 1558.26 Q1754.81 1555.58 1754.81 1550.95 Q1754.81 1546.34 1752.82 1543.66 Q1750.83 1540.95 1747.42 1540.95 M1747.42 1537.34 Q1752.98 1537.34 1756.15 1540.95 Q1759.32 1544.56 1759.32 1550.95 Q1759.32 1557.31 1756.15 1560.95 Q1752.98 1564.56 1747.42 1564.56 Q1741.85 1564.56 1738.67 1560.95 Q1735.53 1557.31 1735.53 1550.95 Q1735.53 1544.56 1738.67 1540.95 Q1741.85 1537.34 1747.42 1537.34 Z" fill="#000000" fill-rule="nonzero" fill-opacity="1" /><path clip-path="url(#clip190)" d="M1781.41 1541.94 Q1780.69 1541.53 1779.83 1541.34 Q1779 1541.13 1777.98 1541.13 Q1774.37 1541.13 1772.42 1543.49 Q1770.5 1545.83 1770.5 1550.23 L1770.5 1563.89 L1766.22 1563.89 L1766.22 1537.96 L1770.5 1537.96 L1770.5 1541.99 Q1771.85 1539.63 1774 1538.49 Q1776.15 1537.34 1779.23 1537.34 Q1779.67 1537.34 1780.2 1537.41 Q1780.73 1537.45 1781.38 1537.57 L1781.41 1541.94 Z" fill="#000000" fill-rule="nonzero" fill-opacity="1" /><path clip-path="url(#clip190)" d="M1785.87 1537.96 L1790.13 1537.96 L1790.13 1563.89 L1785.87 1563.89 L1785.87 1537.96 M1785.87 1527.87 L1790.13 1527.87 L1790.13 1533.26 L1785.87 1533.26 L1785.87 1527.87 Z" fill="#000000" fill-rule="nonzero" fill-opacity="1" /><path clip-path="url(#clip190)" d="M1797.19 1537.96 L1817.42 1537.96 L1817.42 1541.85 L1801.41 1560.49 L1817.42 1560.49 L1817.42 1563.89 L1796.61 1563.89 L1796.61 1560 L1812.63 1541.36 L1797.19 1541.36 L1797.19 1537.96 Z" fill="#000000" fill-rule="nonzero" fill-opacity="1" /><path clip-path="url(#clip190)" d="M1835.71 1550.86 Q1830.55 1550.86 1828.56 1552.04 Q1826.57 1553.22 1826.57 1556.06 Q1826.57 1558.33 1828.05 1559.67 Q1829.55 1560.99 1832.12 1560.99 Q1835.67 1560.99 1837.79 1558.49 Q1839.95 1555.97 1839.95 1551.8 L1839.95 1550.86 L1835.71 1550.86 M1844.21 1549.1 L1844.21 1563.89 L1839.95 1563.89 L1839.95 1559.95 Q1838.49 1562.31 1836.31 1563.45 Q1834.14 1564.56 1830.99 1564.56 Q1827.01 1564.56 1824.65 1562.34 Q1822.31 1560.09 1822.31 1556.34 Q1822.31 1551.97 1825.23 1549.74 Q1828.17 1547.52 1833.98 1547.52 L1839.95 1547.52 L1839.95 1547.11 Q1839.95 1544.17 1838 1542.57 Q1836.08 1540.95 1832.59 1540.95 Q1830.36 1540.95 1828.26 1541.48 Q1826.15 1542.01 1824.21 1543.08 L1824.21 1539.14 Q1826.54 1538.24 1828.74 1537.8 Q1830.94 1537.34 1833.03 1537.34 Q1838.65 1537.34 1841.43 1540.25 Q1844.21 1543.17 1844.21 1549.1 Z" fill="#000000" fill-rule="nonzero" fill-opacity="1" /><path clip-path="url(#clip190)" d="M1857.19 1530.6 L1857.19 1537.96 L1865.97 1537.96 L1865.97 1541.27 L1857.19 1541.27 L1857.19 1555.35 Q1857.19 1558.52 1858.05 1559.42 Q1858.93 1560.32 1861.59 1560.32 L1865.97 1560.32 L1865.97 1563.89 L1861.59 1563.89 Q1856.66 1563.89 1854.79 1562.06 Q1852.91 1560.21 1852.91 1555.35 L1852.91 1541.27 L1849.79 1541.27 L1849.79 1537.96 L1852.91 1537.96 L1852.91 1530.6 L1857.19 1530.6 Z" fill="#000000" fill-rule="nonzero" fill-opacity="1" /><path clip-path="url(#clip190)" d="M1871.57 1537.96 L1875.83 1537.96 L1875.83 1563.89 L1871.57 1563.89 L1871.57 1537.96 M1871.57 1527.87 L1875.83 1527.87 L1875.83 1533.26 L1871.57 1533.26 L1871.57 1527.87 Z" fill="#000000" fill-rule="nonzero" fill-opacity="1" /><path clip-path="url(#clip190)" d="M1894.79 1540.95 Q1891.36 1540.95 1889.37 1543.63 Q1887.38 1546.3 1887.38 1550.95 Q1887.38 1555.6 1889.35 1558.29 Q1891.34 1560.95 1894.79 1560.95 Q1898.19 1560.95 1900.18 1558.26 Q1902.17 1555.58 1902.17 1550.95 Q1902.17 1546.34 1900.18 1543.66 Q1898.19 1540.95 1894.79 1540.95 M1894.79 1537.34 Q1900.34 1537.34 1903.51 1540.95 Q1906.68 1544.56 1906.68 1550.95 Q1906.68 1557.31 1903.51 1560.95 Q1900.34 1564.56 1894.79 1564.56 Q1889.21 1564.56 1886.04 1560.95 Q1882.89 1557.31 1882.89 1550.95 Q1882.89 1544.56 1886.04 1540.95 Q1889.21 1537.34 1894.79 1537.34 Z" fill="#000000" fill-rule="nonzero" fill-opacity="1" /><path clip-path="url(#clip190)" d="M1935.29 1548.24 L1935.29 1563.89 L1931.03 1563.89 L1931.03 1548.38 Q1931.03 1544.7 1929.6 1542.87 Q1928.16 1541.04 1925.29 1541.04 Q1921.85 1541.04 1919.85 1543.24 Q1917.86 1545.44 1917.86 1549.24 L1917.86 1563.89 L1913.58 1563.89 L1913.58 1537.96 L1917.86 1537.96 L1917.86 1541.99 Q1919.39 1539.65 1921.45 1538.49 Q1923.54 1537.34 1926.24 1537.34 Q1930.71 1537.34 1933 1540.11 Q1935.29 1542.87 1935.29 1548.24 Z" fill="#000000" fill-rule="nonzero" fill-opacity="1" /><path clip-path="url(#clip190)" d="M2689.43 1529.33 L2694.1 1529.33 L2694.1 1543.93 L2709.61 1529.33 L2715.63 1529.33 L2698.48 1545.44 L2716.86 1563.89 L2710.7 1563.89 L2694.1 1547.24 L2694.1 1563.89 L2689.43 1563.89 L2689.43 1529.33 Z" fill="#000000" fill-rule="nonzero" fill-opacity="1" /><path clip-path="url(#clip190)" d="M2735.35 1541.94 Q2734.64 1541.53 2733.78 1541.34 Q2732.95 1541.13 2731.93 1541.13 Q2728.32 1541.13 2726.37 1543.49 Q2724.45 1545.83 2724.45 1550.23 L2724.45 1563.89 L2720.17 1563.89 L2720.17 1537.96 L2724.45 1537.96 L2724.45 1541.99 Q2725.79 1539.63 2727.95 1538.49 Q2730.1 1537.34 2733.18 1537.34 Q2733.62 1537.34 2734.15 1537.41 Q2734.68 1537.45 2735.33 1537.57 L2735.35 1541.94 Z" fill="#000000" fill-rule="nonzero" fill-opacity="1" /><path clip-path="url(#clip190)" d="M2750.61 1566.3 Q2748.8 1570.92 2747.09 1572.34 Q2745.38 1573.75 2742.51 1573.75 L2739.1 1573.75 L2739.1 1570.18 L2741.6 1570.18 Q2743.36 1570.18 2744.34 1569.35 Q2745.31 1568.52 2746.49 1565.42 L2747.25 1563.47 L2736.77 1537.96 L2741.28 1537.96 L2749.38 1558.24 L2757.48 1537.96 L2762 1537.96 L2750.61 1566.3 Z" fill="#000000" fill-rule="nonzero" fill-opacity="1" /><path clip-path="url(#clip190)" d="M2767.88 1527.87 L2772.14 1527.87 L2772.14 1563.89 L2767.88 1563.89 L2767.88 1527.87 Z" fill="#000000" fill-rule="nonzero" fill-opacity="1" /><path clip-path="url(#clip190)" d="M2791.09 1540.95 Q2787.67 1540.95 2785.68 1543.63 Q2783.69 1546.3 2783.69 1550.95 Q2783.69 1555.6 2785.65 1558.29 Q2787.65 1560.95 2791.09 1560.95 Q2794.5 1560.95 2796.49 1558.26 Q2798.48 1555.58 2798.48 1550.95 Q2798.48 1546.34 2796.49 1543.66 Q2794.5 1540.95 2791.09 1540.95 M2791.09 1537.34 Q2796.65 1537.34 2799.82 1540.95 Q2802.99 1544.56 2802.99 1550.95 Q2802.99 1557.31 2799.82 1560.95 Q2796.65 1564.56 2791.09 1564.56 Q2785.52 1564.56 2782.34 1560.95 Q2779.2 1557.31 2779.2 1550.95 Q2779.2 1544.56 2782.34 1540.95 Q2785.52 1537.34 2791.09 1537.34 Z" fill="#000000" fill-rule="nonzero" fill-opacity="1" /><path clip-path="url(#clip190)" d="M2807 1537.96 L2811.51 1537.96 L2819.61 1559.72 L2827.71 1537.96 L2832.23 1537.96 L2822.51 1563.89 L2816.72 1563.89 L2807 1537.96 Z" fill="#000000" fill-rule="nonzero" fill-opacity="1" /><path clip-path="url(#clip190)" d="M2838.29 1529.33 L2842.97 1529.33 L2842.97 1561.48 Q2842.97 1567.73 2840.59 1570.55 Q2838.22 1573.38 2832.97 1573.38 L2831.19 1573.38 L2831.19 1569.44 L2832.65 1569.44 Q2835.75 1569.44 2837.02 1567.71 Q2838.29 1565.97 2838.29 1561.48 L2838.29 1529.33 Z" fill="#000000" fill-rule="nonzero" fill-opacity="1" /><path clip-path="url(#clip190)" d="M2852.27 1529.33 L2856.95 1529.33 L2856.95 1559.95 L2873.78 1559.95 L2873.78 1563.89 L2852.27 1563.89 L2852.27 1529.33 Z" fill="#000000" fill-rule="nonzero" fill-opacity="1" /><polyline clip-path="url(#clip190)" style="stroke:#000000; stroke-linecap:round; stroke-linejoin:round; stroke-width:4; stroke-opacity:1; fill:none" points="364.733,1495.09 364.733,47.2441 "/>
<polyline clip-path="url(#clip190)" style="stroke:#000000; stroke-linecap:round; stroke-linejoin:round; stroke-width:4; stroke-opacity:1; fill:none" points="364.733,1409.68 383.63,1409.68 "/>
<polyline clip-path="url(#clip190)" style="stroke:#000000; stroke-linecap:round; stroke-linejoin:round; stroke-width:4; stroke-opacity:1; fill:none" points="364.733,985.396 383.63,985.396 "/>
<polyline clip-path="url(#clip190)" style="stroke:#000000; stroke-linecap:round; stroke-linejoin:round; stroke-width:4; stroke-opacity:1; fill:none" points="364.733,561.116 383.63,561.116 "/>
<polyline clip-path="url(#clip190)" style="stroke:#000000; stroke-linecap:round; stroke-linejoin:round; stroke-width:4; stroke-opacity:1; fill:none" points="364.733,136.837 383.63,136.837 "/>
<path clip-path="url(#clip190)" d="M100.137 1398.84 L118.493 1398.84 L118.493 1402.78 L104.419 1402.78 L104.419 1411.25 Q105.437 1410.9 106.456 1410.74 Q107.474 1410.56 108.493 1410.56 Q114.28 1410.56 117.66 1413.73 Q121.039 1416.9 121.039 1422.31 Q121.039 1427.89 117.567 1431 Q114.095 1434.07 107.775 1434.07 Q105.599 1434.07 103.331 1433.7 Q101.086 1433.33 98.6782 1432.59 L98.6782 1427.89 Q100.762 1429.03 102.984 1429.58 Q105.206 1430.14 107.683 1430.14 Q111.687 1430.14 114.025 1428.03 Q116.363 1425.93 116.363 1422.31 Q116.363 1418.7 114.025 1416.6 Q111.687 1414.49 107.683 1414.49 Q105.808 1414.49 103.933 1414.91 Q102.081 1415.32 100.137 1416.2 L100.137 1398.84 Z" fill="#000000" fill-rule="nonzero" fill-opacity="1" /><path clip-path="url(#clip190)" d="M130.252 1427.52 L135.136 1427.52 L135.136 1433.4 L130.252 1433.4 L130.252 1427.52 Z" fill="#000000" fill-rule="nonzero" fill-opacity="1" /><path clip-path="url(#clip190)" d="M155.321 1401.92 Q151.71 1401.92 149.882 1405.49 Q148.076 1409.03 148.076 1416.16 Q148.076 1423.26 149.882 1426.83 Q151.71 1430.37 155.321 1430.37 Q158.956 1430.37 160.761 1426.83 Q162.59 1423.26 162.59 1416.16 Q162.59 1409.03 160.761 1405.49 Q158.956 1401.92 155.321 1401.92 M155.321 1398.22 Q161.132 1398.22 164.187 1402.82 Q167.266 1407.41 167.266 1416.16 Q167.266 1424.88 164.187 1429.49 Q161.132 1434.07 155.321 1434.07 Q149.511 1434.07 146.433 1429.49 Q143.377 1424.88 143.377 1416.16 Q143.377 1407.41 146.433 1402.82 Q149.511 1398.22 155.321 1398.22 Z" fill="#000000" fill-rule="nonzero" fill-opacity="1" /><path clip-path="url(#clip190)" d="M185.483 1401.92 Q181.872 1401.92 180.043 1405.49 Q178.238 1409.03 178.238 1416.16 Q178.238 1423.26 180.043 1426.83 Q181.872 1430.37 185.483 1430.37 Q189.118 1430.37 190.923 1426.83 Q192.752 1423.26 192.752 1416.16 Q192.752 1409.03 190.923 1405.49 Q189.118 1401.92 185.483 1401.92 M185.483 1398.22 Q191.293 1398.22 194.349 1402.82 Q197.428 1407.41 197.428 1416.16 Q197.428 1424.88 194.349 1429.49 Q191.293 1434.07 185.483 1434.07 Q179.673 1434.07 176.594 1429.49 Q173.539 1424.88 173.539 1416.16 Q173.539 1407.41 176.594 1402.82 Q179.673 1398.22 185.483 1398.22 Z" fill="#000000" fill-rule="nonzero" fill-opacity="1" /><path clip-path="url(#clip190)" d="M233.816 1407.94 L223.238 1418.56 L233.816 1429.14 L231.062 1431.94 L220.437 1421.32 L209.812 1431.94 L207.08 1429.14 L217.636 1418.56 L207.08 1407.94 L209.812 1405.14 L220.437 1415.76 L231.062 1405.14 L233.816 1407.94 Z" fill="#000000" fill-rule="nonzero" fill-opacity="1" /><path clip-path="url(#clip190)" d="M246.177 1429.47 L253.816 1429.47 L253.816 1403.1 L245.506 1404.77 L245.506 1400.51 L253.77 1398.84 L258.446 1398.84 L258.446 1429.47 L266.085 1429.47 L266.085 1433.4 L246.177 1433.4 L246.177 1429.47 Z" fill="#000000" fill-rule="nonzero" fill-opacity="1" /><path clip-path="url(#clip190)" d="M285.529 1401.92 Q281.918 1401.92 280.089 1405.49 Q278.284 1409.03 278.284 1416.16 Q278.284 1423.26 280.089 1426.83 Q281.918 1430.37 285.529 1430.37 Q289.163 1430.37 290.969 1426.83 Q292.798 1423.26 292.798 1416.16 Q292.798 1409.03 290.969 1405.49 Q289.163 1401.92 285.529 1401.92 M285.529 1398.22 Q291.339 1398.22 294.395 1402.82 Q297.473 1407.41 297.473 1416.16 Q297.473 1424.88 294.395 1429.49 Q291.339 1434.07 285.529 1434.07 Q279.719 1434.07 276.64 1429.49 Q273.585 1424.88 273.585 1416.16 Q273.585 1407.41 276.64 1402.82 Q279.719 1398.22 285.529 1398.22 Z" fill="#000000" fill-rule="nonzero" fill-opacity="1" /><path clip-path="url(#clip190)" d="M307.103 1392.66 Q304.395 1392.66 302.834 1394.11 Q301.291 1395.55 301.291 1398.09 Q301.291 1400.63 302.834 1402.08 Q304.395 1403.53 307.103 1403.53 Q309.811 1403.53 311.372 1402.08 Q312.933 1400.61 312.933 1398.09 Q312.933 1395.55 311.372 1394.11 Q309.83 1392.66 307.103 1392.66 M303.304 1391.04 Q300.859 1390.44 299.486 1388.76 Q298.132 1387.09 298.132 1384.68 Q298.132 1381.32 300.52 1379.36 Q302.928 1377.4 307.103 1377.4 Q311.297 1377.4 313.686 1379.36 Q316.074 1381.32 316.074 1384.68 Q316.074 1387.09 314.701 1388.76 Q313.347 1390.44 310.921 1391.04 Q313.667 1391.68 315.19 1393.54 Q316.733 1395.4 316.733 1398.09 Q316.733 1402.17 314.231 1404.36 Q311.749 1406.54 307.103 1406.54 Q302.457 1406.54 299.956 1404.36 Q297.473 1402.17 297.473 1398.09 Q297.473 1395.4 299.016 1393.54 Q300.558 1391.68 303.304 1391.04 M301.912 1385.04 Q301.912 1387.22 303.266 1388.44 Q304.639 1389.67 307.103 1389.67 Q309.548 1389.67 310.921 1388.44 Q312.313 1387.22 312.313 1385.04 Q312.313 1382.86 310.921 1381.64 Q309.548 1380.41 307.103 1380.41 Q304.639 1380.41 303.266 1381.64 Q301.912 1382.86 301.912 1385.04 Z" fill="#000000" fill-rule="nonzero" fill-opacity="1" /><path clip-path="url(#clip190)" d="M100.788 1005.19 L108.426 1005.19 L108.426 978.822 L100.116 980.489 L100.116 976.23 L108.38 974.563 L113.056 974.563 L113.056 1005.19 L120.695 1005.19 L120.695 1009.12 L100.788 1009.12 L100.788 1005.19 Z" fill="#000000" fill-rule="nonzero" fill-opacity="1" /><path clip-path="url(#clip190)" d="M130.139 1003.24 L135.023 1003.24 L135.023 1009.12 L130.139 1009.12 L130.139 1003.24 Z" fill="#000000" fill-rule="nonzero" fill-opacity="1" /><path clip-path="url(#clip190)" d="M155.209 977.642 Q151.597 977.642 149.769 981.207 Q147.963 984.748 147.963 991.878 Q147.963 998.984 149.769 1002.55 Q151.597 1006.09 155.209 1006.09 Q158.843 1006.09 160.648 1002.55 Q162.477 998.984 162.477 991.878 Q162.477 984.748 160.648 981.207 Q158.843 977.642 155.209 977.642 M155.209 973.938 Q161.019 973.938 164.074 978.545 Q167.153 983.128 167.153 991.878 Q167.153 1000.6 164.074 1005.21 Q161.019 1009.79 155.209 1009.79 Q149.398 1009.79 146.32 1005.21 Q143.264 1000.6 143.264 991.878 Q143.264 983.128 146.32 978.545 Q149.398 973.938 155.209 973.938 Z" fill="#000000" fill-rule="nonzero" fill-opacity="1" /><path clip-path="url(#clip190)" d="M185.37 977.642 Q181.759 977.642 179.931 981.207 Q178.125 984.748 178.125 991.878 Q178.125 998.984 179.931 1002.55 Q181.759 1006.09 185.37 1006.09 Q189.005 1006.09 190.81 1002.55 Q192.639 998.984 192.639 991.878 Q192.639 984.748 190.81 981.207 Q189.005 977.642 185.37 977.642 M185.37 973.938 Q191.181 973.938 194.236 978.545 Q197.315 983.128 197.315 991.878 Q197.315 1000.6 194.236 1005.21 Q191.181 1009.79 185.37 1009.79 Q179.56 1009.79 176.482 1005.21 Q173.426 1000.6 173.426 991.878 Q173.426 983.128 176.482 978.545 Q179.56 973.938 185.37 973.938 Z" fill="#000000" fill-rule="nonzero" fill-opacity="1" /><path clip-path="url(#clip190)" d="M233.704 983.66 L223.125 994.285 L233.704 1004.86 L230.949 1007.66 L220.324 997.04 L209.699 1007.66 L206.968 1004.86 L217.523 994.285 L206.968 983.66 L209.699 980.859 L220.324 991.484 L230.949 980.859 L233.704 983.66 Z" fill="#000000" fill-rule="nonzero" fill-opacity="1" /><path clip-path="url(#clip190)" d="M246.065 1005.19 L253.703 1005.19 L253.703 978.822 L245.393 980.489 L245.393 976.23 L253.657 974.563 L258.333 974.563 L258.333 1005.19 L265.972 1005.19 L265.972 1009.12 L246.065 1009.12 L246.065 1005.19 Z" fill="#000000" fill-rule="nonzero" fill-opacity="1" /><path clip-path="url(#clip190)" d="M285.416 977.642 Q281.805 977.642 279.976 981.207 Q278.171 984.748 278.171 991.878 Q278.171 998.984 279.976 1002.55 Q281.805 1006.09 285.416 1006.09 Q289.05 1006.09 290.856 1002.55 Q292.685 998.984 292.685 991.878 Q292.685 984.748 290.856 981.207 Q289.05 977.642 285.416 977.642 M285.416 973.938 Q291.226 973.938 294.282 978.545 Q297.361 983.128 297.361 991.878 Q297.361 1000.6 294.282 1005.21 Q291.226 1009.79 285.416 1009.79 Q279.606 1009.79 276.527 1005.21 Q273.472 1000.6 273.472 991.878 Q273.472 983.128 276.527 978.545 Q279.606 973.938 285.416 973.938 Z" fill="#000000" fill-rule="nonzero" fill-opacity="1" /><path clip-path="url(#clip190)" d="M299.166 981.13 L299.166 977.669 Q300.596 978.346 302.063 978.703 Q303.53 979.061 304.94 979.061 Q308.702 979.061 310.676 976.541 Q312.67 974.002 312.952 968.848 Q311.861 970.466 310.187 971.331 Q308.514 972.196 306.482 972.196 Q302.269 972.196 299.806 969.657 Q297.361 967.099 297.361 962.679 Q297.361 958.353 299.918 955.739 Q302.476 953.125 306.727 953.125 Q311.598 953.125 314.156 956.868 Q316.733 960.592 316.733 967.701 Q316.733 974.34 313.573 978.309 Q310.432 982.258 305.109 982.258 Q303.68 982.258 302.213 981.976 Q300.746 981.694 299.166 981.13 M306.727 969.224 Q309.285 969.224 310.771 967.475 Q312.275 965.726 312.275 962.679 Q312.275 959.651 310.771 957.902 Q309.285 956.134 306.727 956.134 Q304.169 956.134 302.664 957.902 Q301.179 959.651 301.179 962.679 Q301.179 965.726 302.664 967.475 Q304.169 969.224 306.727 969.224 Z" fill="#000000" fill-rule="nonzero" fill-opacity="1" /><path clip-path="url(#clip190)" d="M100.788 580.908 L108.426 580.908 L108.426 554.543 L100.116 556.21 L100.116 551.95 L108.38 550.284 L113.056 550.284 L113.056 580.908 L120.695 580.908 L120.695 584.844 L100.788 584.844 L100.788 580.908 Z" fill="#000000" fill-rule="nonzero" fill-opacity="1" /><path clip-path="url(#clip190)" d="M130.139 578.964 L135.023 578.964 L135.023 584.844 L130.139 584.844 L130.139 578.964 Z" fill="#000000" fill-rule="nonzero" fill-opacity="1" /><path clip-path="url(#clip190)" d="M145.255 550.284 L163.611 550.284 L163.611 554.219 L149.537 554.219 L149.537 562.691 Q150.556 562.344 151.574 562.182 Q152.593 561.997 153.611 561.997 Q159.398 561.997 162.778 565.168 Q166.158 568.339 166.158 573.756 Q166.158 579.334 162.685 582.436 Q159.213 585.515 152.894 585.515 Q150.718 585.515 148.449 585.145 Q146.204 584.774 143.797 584.033 L143.797 579.334 Q145.88 580.469 148.102 581.024 Q150.324 581.58 152.801 581.58 Q156.806 581.58 159.144 579.473 Q161.482 577.367 161.482 573.756 Q161.482 570.145 159.144 568.038 Q156.806 565.932 152.801 565.932 Q150.926 565.932 149.051 566.348 Q147.199 566.765 145.255 567.645 L145.255 550.284 Z" fill="#000000" fill-rule="nonzero" fill-opacity="1" /><path clip-path="url(#clip190)" d="M185.37 553.362 Q181.759 553.362 179.931 556.927 Q178.125 560.469 178.125 567.598 Q178.125 574.705 179.931 578.27 Q181.759 581.811 185.37 581.811 Q189.005 581.811 190.81 578.27 Q192.639 574.705 192.639 567.598 Q192.639 560.469 190.81 556.927 Q189.005 553.362 185.37 553.362 M185.37 549.659 Q191.181 549.659 194.236 554.265 Q197.315 558.848 197.315 567.598 Q197.315 576.325 194.236 580.932 Q191.181 585.515 185.37 585.515 Q179.56 585.515 176.482 580.932 Q173.426 576.325 173.426 567.598 Q173.426 558.848 176.482 554.265 Q179.56 549.659 185.37 549.659 Z" fill="#000000" fill-rule="nonzero" fill-opacity="1" /><path clip-path="url(#clip190)" d="M233.704 559.381 L223.125 570.006 L233.704 580.584 L230.949 583.385 L220.324 572.76 L209.699 583.385 L206.968 580.584 L217.523 570.006 L206.968 559.381 L209.699 556.58 L220.324 567.205 L230.949 556.58 L233.704 559.381 Z" fill="#000000" fill-rule="nonzero" fill-opacity="1" /><path clip-path="url(#clip190)" d="M246.065 580.908 L253.703 580.908 L253.703 554.543 L245.393 556.21 L245.393 551.95 L253.657 550.284 L258.333 550.284 L258.333 580.908 L265.972 580.908 L265.972 584.844 L246.065 584.844 L246.065 580.908 Z" fill="#000000" fill-rule="nonzero" fill-opacity="1" /><path clip-path="url(#clip190)" d="M285.416 553.362 Q281.805 553.362 279.976 556.927 Q278.171 560.469 278.171 567.598 Q278.171 574.705 279.976 578.27 Q281.805 581.811 285.416 581.811 Q289.05 581.811 290.856 578.27 Q292.685 574.705 292.685 567.598 Q292.685 560.469 290.856 556.927 Q289.05 553.362 285.416 553.362 M285.416 549.659 Q291.226 549.659 294.282 554.265 Q297.361 558.848 297.361 567.598 Q297.361 576.325 294.282 580.932 Q291.226 585.515 285.416 585.515 Q279.606 585.515 276.527 580.932 Q273.472 576.325 273.472 567.598 Q273.472 558.848 276.527 554.265 Q279.606 549.659 285.416 549.659 Z" fill="#000000" fill-rule="nonzero" fill-opacity="1" /><path clip-path="url(#clip190)" d="M299.166 556.85 L299.166 553.39 Q300.596 554.067 302.063 554.424 Q303.53 554.781 304.94 554.781 Q308.702 554.781 310.676 552.261 Q312.67 549.722 312.952 544.569 Q311.861 546.186 310.187 547.051 Q308.514 547.916 306.482 547.916 Q302.269 547.916 299.806 545.377 Q297.361 542.82 297.361 538.4 Q297.361 534.074 299.918 531.46 Q302.476 528.845 306.727 528.845 Q311.598 528.845 314.156 532.588 Q316.733 536.312 316.733 543.421 Q316.733 550.061 313.573 554.029 Q310.432 557.979 305.109 557.979 Q303.68 557.979 302.213 557.697 Q300.746 557.414 299.166 556.85 M306.727 544.945 Q309.285 544.945 310.771 543.196 Q312.275 541.447 312.275 538.4 Q312.275 535.372 310.771 533.623 Q309.285 531.855 306.727 531.855 Q304.169 531.855 302.664 533.623 Q301.179 535.372 301.179 538.4 Q301.179 541.447 302.664 543.196 Q304.169 544.945 306.727 544.945 Z" fill="#000000" fill-rule="nonzero" fill-opacity="1" /><path clip-path="url(#clip190)" d="M104.005 156.629 L120.324 156.629 L120.324 160.564 L98.3802 160.564 L98.3802 156.629 Q101.042 153.874 105.625 149.245 Q110.232 144.592 111.412 143.249 Q113.658 140.726 114.537 138.99 Q115.44 137.231 115.44 135.541 Q115.44 132.786 113.496 131.05 Q111.575 129.314 108.473 129.314 Q106.274 129.314 103.82 130.078 Q101.389 130.842 98.6116 132.393 L98.6116 127.671 Q101.436 126.537 103.889 125.958 Q106.343 125.379 108.38 125.379 Q113.75 125.379 116.945 128.064 Q120.139 130.749 120.139 135.24 Q120.139 137.37 119.329 139.291 Q118.542 141.189 116.436 143.782 Q115.857 144.453 112.755 147.671 Q109.653 150.865 104.005 156.629 Z" fill="#000000" fill-rule="nonzero" fill-opacity="1" /><path clip-path="url(#clip190)" d="M130.139 154.685 L135.023 154.685 L135.023 160.564 L130.139 160.564 L130.139 154.685 Z" fill="#000000" fill-rule="nonzero" fill-opacity="1" /><path clip-path="url(#clip190)" d="M155.209 129.083 Q151.597 129.083 149.769 132.648 Q147.963 136.189 147.963 143.319 Q147.963 150.425 149.769 153.99 Q151.597 157.532 155.209 157.532 Q158.843 157.532 160.648 153.99 Q162.477 150.425 162.477 143.319 Q162.477 136.189 160.648 132.648 Q158.843 129.083 155.209 129.083 M155.209 125.379 Q161.019 125.379 164.074 129.986 Q167.153 134.569 167.153 143.319 Q167.153 152.046 164.074 156.652 Q161.019 161.235 155.209 161.235 Q149.398 161.235 146.32 156.652 Q143.264 152.046 143.264 143.319 Q143.264 134.569 146.32 129.986 Q149.398 125.379 155.209 125.379 Z" fill="#000000" fill-rule="nonzero" fill-opacity="1" /><path clip-path="url(#clip190)" d="M185.37 129.083 Q181.759 129.083 179.931 132.648 Q178.125 136.189 178.125 143.319 Q178.125 150.425 179.931 153.99 Q181.759 157.532 185.37 157.532 Q189.005 157.532 190.81 153.99 Q192.639 150.425 192.639 143.319 Q192.639 136.189 190.81 132.648 Q189.005 129.083 185.37 129.083 M185.37 125.379 Q191.181 125.379 194.236 129.986 Q197.315 134.569 197.315 143.319 Q197.315 152.046 194.236 156.652 Q191.181 161.235 185.37 161.235 Q179.56 161.235 176.482 156.652 Q173.426 152.046 173.426 143.319 Q173.426 134.569 176.482 129.986 Q179.56 125.379 185.37 125.379 Z" fill="#000000" fill-rule="nonzero" fill-opacity="1" /><path clip-path="url(#clip190)" d="M233.704 135.101 L223.125 145.726 L233.704 156.305 L230.949 159.106 L220.324 148.481 L209.699 159.106 L206.968 156.305 L217.523 145.726 L206.968 135.101 L209.699 132.3 L220.324 142.925 L230.949 132.3 L233.704 135.101 Z" fill="#000000" fill-rule="nonzero" fill-opacity="1" /><path clip-path="url(#clip190)" d="M246.065 156.629 L253.703 156.629 L253.703 130.263 L245.393 131.93 L245.393 127.671 L253.657 126.004 L258.333 126.004 L258.333 156.629 L265.972 156.629 L265.972 160.564 L246.065 160.564 L246.065 156.629 Z" fill="#000000" fill-rule="nonzero" fill-opacity="1" /><path clip-path="url(#clip190)" d="M285.416 129.083 Q281.805 129.083 279.976 132.648 Q278.171 136.189 278.171 143.319 Q278.171 150.425 279.976 153.99 Q281.805 157.532 285.416 157.532 Q289.05 157.532 290.856 153.99 Q292.685 150.425 292.685 143.319 Q292.685 136.189 290.856 132.648 Q289.05 129.083 285.416 129.083 M285.416 125.379 Q291.226 125.379 294.282 129.986 Q297.361 134.569 297.361 143.319 Q297.361 152.046 294.282 156.652 Q291.226 161.235 285.416 161.235 Q279.606 161.235 276.527 156.652 Q273.472 152.046 273.472 143.319 Q273.472 134.569 276.527 129.986 Q279.606 125.379 285.416 125.379 Z" fill="#000000" fill-rule="nonzero" fill-opacity="1" /><path clip-path="url(#clip190)" d="M299.166 132.571 L299.166 129.11 Q300.596 129.787 302.063 130.144 Q303.53 130.502 304.94 130.502 Q308.702 130.502 310.676 127.982 Q312.67 125.443 312.952 120.289 Q311.861 121.907 310.187 122.772 Q308.514 123.637 306.482 123.637 Q302.269 123.637 299.806 121.098 Q297.361 118.54 297.361 114.12 Q297.361 109.794 299.918 107.18 Q302.476 104.566 306.727 104.566 Q311.598 104.566 314.156 108.309 Q316.733 112.033 316.733 119.142 Q316.733 125.781 313.573 129.75 Q310.432 133.699 305.109 133.699 Q303.68 133.699 302.213 133.417 Q300.746 133.135 299.166 132.571 M306.727 120.665 Q309.285 120.665 310.771 118.916 Q312.275 117.167 312.275 114.12 Q312.275 111.092 310.771 109.343 Q309.285 107.575 306.727 107.575 Q304.169 107.575 302.664 109.343 Q301.179 111.092 301.179 114.12 Q301.179 117.167 302.664 118.916 Q304.169 120.665 306.727 120.665 Z" fill="#000000" fill-rule="nonzero" fill-opacity="1" /><path clip-path="url(#clip190)" d="M-9.64527 840.632 L0.4762 840.632 L0.4762 828.569 L5.02768 828.569 L5.02768 840.632 L24.3794 840.632 Q28.7399 840.632 29.9813 839.454 Q31.2226 838.245 31.2226 834.584 L31.2226 828.569 L36.1242 828.569 L36.1242 834.584 Q36.1242 841.364 33.6097 843.942 Q31.0634 846.52 24.3794 846.52 L5.02768 846.52 L5.02768 850.817 L0.4762 850.817 L0.4762 846.52 L-9.64527 846.52 L-9.64527 840.632 Z" fill="#000000" fill-rule="nonzero" fill-opacity="1" /><path clip-path="url(#clip190)" d="M-11.3958 789.738 L-11.3958 784.327 L42.1716 800.878 L42.1716 806.289 L-11.3958 789.738 Z" fill="#000000" fill-rule="nonzero" fill-opacity="1" /><path clip-path="url(#clip190)" d="M14.6081 727.831 L36.1242 727.831 L36.1242 733.688 L14.799 733.688 Q9.7383 733.688 7.22385 735.661 Q4.7094 737.635 4.7094 741.581 Q4.7094 746.324 7.73311 749.061 Q10.7568 751.798 15.9767 751.798 L36.1242 751.798 L36.1242 757.687 L0.4762 757.687 L0.4762 751.798 L6.01437 751.798 Q2.79968 749.698 1.20826 746.865 Q-0.38317 744 -0.38317 740.276 Q-0.38317 734.133 3.43625 730.982 Q7.22385 727.831 14.6081 727.831 Z" fill="#000000" fill-rule="nonzero" fill-opacity="1" /><path clip-path="url(#clip190)" d="M1.52654 693.425 L7.06471 693.425 Q5.79157 695.907 5.15499 698.581 Q4.51842 701.255 4.51842 704.119 Q4.51842 708.48 5.85522 710.676 Q7.19202 712.84 9.86562 712.84 Q11.9026 712.84 13.0803 711.281 Q14.2261 709.721 15.2765 705.01 L15.7221 703.005 Q17.0589 696.767 19.5097 694.157 Q21.9286 691.515 26.2891 691.515 Q31.2544 691.515 34.1508 695.462 Q37.0472 699.377 37.0472 706.252 Q37.0472 709.116 36.4743 712.235 Q35.9332 715.323 34.8192 718.76 L28.7718 718.76 Q30.4587 715.514 31.318 712.363 Q32.1456 709.212 32.1456 706.124 Q32.1456 701.987 30.7451 699.759 Q29.3129 697.531 26.7347 697.531 Q24.3476 697.531 23.0745 699.154 Q21.8013 700.745 20.6237 706.188 L20.1462 708.225 Q19.0004 713.668 16.6451 716.087 Q14.258 718.506 10.1202 718.506 Q5.09134 718.506 2.35408 714.941 Q-0.38317 711.376 -0.38317 704.819 Q-0.38317 701.573 0.0942579 698.708 Q0.571686 695.844 1.52654 693.425 Z" fill="#000000" fill-rule="nonzero" fill-opacity="1" /><path clip-path="url(#clip192)" d="M829.783 1454.11 L832.329 1453.97 L834.514 1453.83 L836.321 1453.7 L837.741 1453.56 L838.771 1453.42 L839.414 1453.28 L839.681 1453.14 L839.59 1453 L839.169 1452.86 L838.451 1452.73 L837.476 1452.59 L836.293 1452.45 L834.957 1452.31 L833.528 1452.17 L832.072 1452.03 L830.66 1451.89 L829.363 1451.75 L828.256 1451.62 L827.413 1451.48 L826.908 1451.34 L826.809 1451.2 L827.18 1451.06 L828.08 1450.92 L829.556 1450.78 L831.649 1450.65 L834.387 1450.51 L837.785 1450.37 L841.846 1450.23 L846.561 1450.09 L851.907 1449.95 L857.849 1449.81 L864.338 1449.68 L871.319 1449.54 L878.724 1449.4 L886.48 1449.26 L894.508 1449.12 L902.727 1448.98 L911.055 1448.84 L919.41 1448.71 L927.717 1448.57 L935.902 1448.43 L943.9 1448.29 L951.654 1448.15 L959.115 1448.01 L966.243 1447.87 L973.009 1447.74 L979.391 1447.6 L985.375 1447.46 L990.955 1447.32 L996.13 1447.18 L1000.9 1447.04 L1005.28 1446.9 L1009.27 1446.76 L1012.88 1446.63 L1016.12 1446.49 L1018.99 1446.35 L1021.48 1446.21 L1023.6 1446.07 L1025.34 1445.93 L1026.67 1445.79 L1027.6 1445.66 L1028.09 1445.52 L1028.13 1445.38 L1027.69 1445.24 L1026.75 1445.1 L1025.29 1444.96 L1023.3 1444.82 L1020.75 1444.69 L1017.65 1444.55 L1013.99 1444.41 L1009.77 1444.27 L1005.02 1444.13 L999.751 1443.99 L994 1443.85 L987.805 1443.72 L981.211 1443.58 L974.272 1443.44 L967.044 1443.3 L959.588 1443.16 L951.968 1443.02 L944.248 1442.88 L936.489 1442.75 L928.753 1442.61 L921.095 1442.47 L913.563 1442.33 L906.203 1442.19 L899.049 1442.05 L892.129 1441.91 L885.461 1441.77 L879.056 1441.64 L872.915 1441.5 L867.034 1441.36 L861.4 1441.22 L855.995 1441.08 L850.797 1440.94 L845.782 1440.8 L840.922 1440.67 L836.192 1440.53 L831.567 1440.39 L640.202 1440.39 L635.577 1440.53 L630.847 1440.67 L625.987 1440.8 L620.972 1440.94 L615.774 1441.08 L610.369 1441.22 L604.735 1441.36 L598.854 1441.5 L592.713 1441.64 L586.308 1441.77 L579.64 1441.91 L572.72 1442.05 L565.566 1442.19 L558.206 1442.33 L550.675 1442.47 L543.016 1442.61 L535.28 1442.75 L527.521 1442.88 L519.801 1443.02 L512.181 1443.16 L504.725 1443.3 L497.497 1443.44 L490.558 1443.58 L483.964 1443.72 L477.769 1443.85 L472.018 1443.99 L466.751 1444.13 L461.999 1444.27 L457.784 1444.41 L454.121 1444.55 L451.017 1444.69 L448.47 1444.82 L446.475 1444.96 L445.016 1445.1 L444.078 1445.24 L443.639 1445.38 L443.677 1445.52 L444.169 1445.66 L445.094 1445.79 L446.433 1445.93 L448.168 1446.07 L450.287 1446.21 L452.782 1446.35 L455.648 1446.49 L458.885 1446.63 L462.496 1446.76 L466.487 1446.9 L470.865 1447.04 L475.639 1447.18 L480.814 1447.32 L486.394 1447.46 L492.378 1447.6 L498.76 1447.74 L505.526 1447.87 L512.654 1448.01 L520.115 1448.15 L527.869 1448.29 L535.867 1448.43 L544.052 1448.57 L552.359 1448.71 L560.714 1448.84 L569.042 1448.98 L577.261 1449.12 L585.289 1449.26 L593.045 1449.4 L600.45 1449.54 L607.431 1449.68 L613.92 1449.81 L619.862 1449.95 L625.208 1450.09 L629.923 1450.23 L633.984 1450.37 L637.382 1450.51 L640.12 1450.65 L642.213 1450.78 L643.689 1450.92 L644.589 1451.06 L644.96 1451.2 L644.861 1451.34 L644.356 1451.48 L643.513 1451.62 L642.406 1451.75 L641.109 1451.89 L639.697 1452.03 L638.241 1452.17 L636.812 1452.31 L635.476 1452.45 L634.293 1452.59 L633.318 1452.73 L632.6 1452.86 L632.179 1453 L632.088 1453.14 L632.355 1453.28 L632.998 1453.42 L634.028 1453.56 L635.448 1453.7 L637.255 1453.83 L639.44 1453.97 L641.986 1454.11 L829.783 1454.11  Z" fill="#009af9" fill-rule="evenodd" fill-opacity="1"/>
<polyline clip-path="url(#clip192)" style="stroke:#000000; stroke-linecap:round; stroke-linejoin:round; stroke-width:4; stroke-opacity:1; fill:none" points="829.783,1454.11 832.329,1453.97 834.514,1453.83 836.321,1453.7 837.741,1453.56 838.771,1453.42 839.414,1453.28 839.681,1453.14 839.59,1453 839.169,1452.86 838.451,1452.73 837.476,1452.59 836.293,1452.45 834.957,1452.31 833.528,1452.17 832.072,1452.03 830.66,1451.89 829.363,1451.75 828.256,1451.62 827.413,1451.48 826.908,1451.34 826.809,1451.2 827.18,1451.06 828.08,1450.92 829.556,1450.78 831.649,1450.65 834.387,1450.51 837.785,1450.37 841.846,1450.23 846.561,1450.09 851.907,1449.95 857.849,1449.81 864.338,1449.68 871.319,1449.54 878.724,1449.4 886.48,1449.26 894.508,1449.12 902.727,1448.98 911.055,1448.84 919.41,1448.71 927.717,1448.57 935.902,1448.43 943.9,1448.29 951.654,1448.15 959.115,1448.01 966.243,1447.87 973.009,1447.74 979.391,1447.6 985.375,1447.46 990.955,1447.32 996.13,1447.18 1000.9,1447.04 1005.28,1446.9 1009.27,1446.76 1012.88,1446.63 1016.12,1446.49 1018.99,1446.35 1021.48,1446.21 1023.6,1446.07 1025.34,1445.93 1026.67,1445.79 1027.6,1445.66 1028.09,1445.52 1028.13,1445.38 1027.69,1445.24 1026.75,1445.1 1025.29,1444.96 1023.3,1444.82 1020.75,1444.69 1017.65,1444.55 1013.99,1444.41 1009.77,1444.27 1005.02,1444.13 999.751,1443.99 994,1443.85 987.805,1443.72 981.211,1443.58 974.272,1443.44 967.044,1443.3 959.588,1443.16 951.968,1443.02 944.248,1442.88 936.489,1442.75 928.753,1442.61 921.095,1442.47 913.563,1442.33 906.203,1442.19 899.049,1442.05 892.129,1441.91 885.461,1441.77 879.056,1441.64 872.915,1441.5 867.034,1441.36 861.4,1441.22 855.995,1441.08 850.797,1440.94 845.782,1440.8 840.922,1440.67 836.192,1440.53 831.567,1440.39 640.202,1440.39 635.577,1440.53 630.847,1440.67 625.987,1440.8 620.972,1440.94 615.774,1441.08 610.369,1441.22 604.735,1441.36 598.854,1441.5 592.713,1441.64 586.308,1441.77 579.64,1441.91 572.72,1442.05 565.566,1442.19 558.206,1442.33 550.675,1442.47 543.016,1442.61 535.28,1442.75 527.521,1442.88 519.801,1443.02 512.181,1443.16 504.725,1443.3 497.497,1443.44 490.558,1443.58 483.964,1443.72 477.769,1443.85 472.018,1443.99 466.751,1444.13 461.999,1444.27 457.784,1444.41 454.121,1444.55 451.017,1444.69 448.47,1444.82 446.475,1444.96 445.016,1445.1 444.078,1445.24 443.639,1445.38 443.677,1445.52 444.169,1445.66 445.094,1445.79 446.433,1445.93 448.168,1446.07 450.287,1446.21 452.782,1446.35 455.648,1446.49 458.885,1446.63 462.496,1446.76 466.487,1446.9 470.865,1447.04 475.639,1447.18 480.814,1447.32 486.394,1447.46 492.378,1447.6 498.76,1447.74 505.526,1447.87 512.654,1448.01 520.115,1448.15 527.869,1448.29 535.867,1448.43 544.052,1448.57 552.359,1448.71 560.714,1448.84 569.042,1448.98 577.261,1449.12 585.289,1449.26 593.045,1449.4 600.45,1449.54 607.431,1449.68 613.92,1449.81 619.862,1449.95 625.208,1450.09 629.923,1450.23 633.984,1450.37 637.382,1450.51 640.12,1450.65 642.213,1450.78 643.689,1450.92 644.589,1451.06 644.96,1451.2 644.861,1451.34 644.356,1451.48 643.513,1451.62 642.406,1451.75 641.109,1451.89 639.697,1452.03 638.241,1452.17 636.812,1452.31 635.476,1452.45 634.293,1452.59 633.318,1452.73 632.6,1452.86 632.179,1453 632.088,1453.14 632.355,1453.28 632.998,1453.42 634.028,1453.56 635.448,1453.7 637.255,1453.83 639.44,1453.97 641.986,1454.11 829.783,1454.11 "/>
<path clip-path="url(#clip192)" d="M1975.82 1431.39 L1985.02 1430.95 L1993.64 1430.5 L2001.67 1430.06 L2009.08 1429.62 L2015.86 1429.18 L2022.01 1428.73 L2027.54 1428.29 L2032.45 1427.85 L2036.77 1427.41 L2040.49 1426.96 L2043.64 1426.52 L2046.22 1426.08 L2048.25 1425.64 L2049.72 1425.19 L2050.63 1424.75 L2050.99 1424.31 L2050.79 1423.87 L2050.03 1423.42 L2048.7 1422.98 L2046.82 1422.54 L2044.38 1422.1 L2041.41 1421.66 L2037.93 1421.21 L2033.95 1420.77 L2029.53 1420.33 L2024.7 1419.89 L2019.51 1419.44 L2014.02 1419 L2008.29 1418.56 L2002.37 1418.12 L1996.31 1417.67 L1990.19 1417.23 L1984.03 1416.79 L1977.88 1416.35 L1971.77 1415.9 L1965.72 1415.46 L1959.75 1415.02 L1953.86 1414.58 L1948.03 1414.13 L1942.25 1413.69 L1936.5 1413.25 L1930.75 1412.81 L1924.96 1412.37 L1919.1 1411.92 L1913.15 1411.48 L1907.08 1411.04 L1900.86 1410.6 L1894.5 1410.15 L1887.98 1409.71 L1881.32 1409.27 L1874.53 1408.83 L1867.64 1408.38 L1860.67 1407.94 L1853.68 1407.5 L1846.71 1407.06 L1839.81 1406.61 L1833.03 1406.17 L1826.42 1405.73 L1820.02 1405.29 L1813.89 1404.85 L1808.06 1404.4 L1802.57 1403.96 L1797.44 1403.52 L1792.69 1403.08 L1788.32 1402.63 L1784.36 1402.19 L1780.79 1401.75 L1777.6 1401.31 L1774.79 1400.86 L1772.34 1400.42 L1770.23 1399.98 L1768.44 1399.54 L1766.95 1399.09 L1765.74 1398.65 L1764.79 1398.21 L1764.09 1397.77 L1763.62 1397.32 L1763.36 1396.88 L1763.32 1396.44 L1763.48 1396 L1763.83 1395.56 L1764.39 1395.11 L1765.15 1394.67 L1766.1 1394.23 L1767.26 1393.79 L1768.62 1393.34 L1770.19 1392.9 L1771.96 1392.46 L1773.93 1392.02 L1776.08 1391.57 L1778.42 1391.13 L1780.92 1390.69 L1783.55 1390.25 L1786.29 1389.8 L1789.11 1389.36 L1791.97 1388.92 L1794.82 1388.48 L1797.62 1388.04 L1800.32 1387.59 L1802.87 1387.15 L1805.21 1386.71 L1807.31 1386.27 L1809.12 1385.82 L1810.6 1385.38 L1811.72 1384.94 L1812.45 1384.5 L1812.77 1384.05 L1704.72 1384.05 L1705.04 1384.5 L1705.77 1384.94 L1706.89 1385.38 L1708.37 1385.82 L1710.17 1386.27 L1712.27 1386.71 L1714.62 1387.15 L1717.17 1387.59 L1719.87 1388.04 L1722.67 1388.48 L1725.52 1388.92 L1728.37 1389.36 L1731.19 1389.8 L1733.94 1390.25 L1736.57 1390.69 L1739.07 1391.13 L1741.4 1391.57 L1743.56 1392.02 L1745.53 1392.46 L1747.3 1392.9 L1748.87 1393.34 L1750.23 1393.79 L1751.39 1394.23 L1752.34 1394.67 L1753.1 1395.11 L1753.65 1395.56 L1754.01 1396 L1754.17 1396.44 L1754.13 1396.88 L1753.87 1397.32 L1753.4 1397.77 L1752.69 1398.21 L1751.75 1398.65 L1750.54 1399.09 L1749.05 1399.54 L1747.26 1399.98 L1745.14 1400.42 L1742.69 1400.86 L1739.88 1401.31 L1736.7 1401.75 L1733.13 1402.19 L1729.16 1402.63 L1724.8 1403.08 L1720.05 1403.52 L1714.92 1403.96 L1709.43 1404.4 L1703.6 1404.85 L1697.47 1405.29 L1691.07 1405.73 L1684.46 1406.17 L1677.68 1406.61 L1670.77 1407.06 L1663.8 1407.5 L1656.81 1407.94 L1649.85 1408.38 L1642.96 1408.83 L1636.17 1409.27 L1629.51 1409.71 L1622.99 1410.15 L1616.63 1410.6 L1610.41 1411.04 L1604.34 1411.48 L1598.39 1411.92 L1592.53 1412.37 L1586.74 1412.81 L1580.99 1413.25 L1575.24 1413.69 L1569.46 1414.13 L1563.63 1414.58 L1557.73 1415.02 L1551.76 1415.46 L1545.72 1415.9 L1539.61 1416.35 L1533.46 1416.79 L1527.3 1417.23 L1521.17 1417.67 L1515.12 1418.12 L1509.2 1418.56 L1503.47 1419 L1497.98 1419.44 L1492.79 1419.89 L1487.96 1420.33 L1483.54 1420.77 L1479.56 1421.21 L1476.08 1421.66 L1473.1 1422.1 L1470.67 1422.54 L1468.79 1422.98 L1467.46 1423.42 L1466.7 1423.87 L1466.5 1424.31 L1466.86 1424.75 L1467.77 1425.19 L1469.24 1425.64 L1471.27 1426.08 L1473.85 1426.52 L1477 1426.96 L1480.72 1427.41 L1485.03 1427.85 L1489.95 1428.29 L1495.47 1428.73 L1501.63 1429.18 L1508.41 1429.62 L1515.82 1430.06 L1523.84 1430.5 L1532.47 1430.95 L1541.67 1431.39 L1975.82 1431.39  Z" fill="#e26f46" fill-rule="evenodd" fill-opacity="1"/>
<polyline clip-path="url(#clip192)" style="stroke:#000000; stroke-linecap:round; stroke-linejoin:round; stroke-width:4; stroke-opacity:1; fill:none" points="1975.82,1431.39 1985.02,1430.95 1993.64,1430.5 2001.67,1430.06 2009.08,1429.62 2015.86,1429.18 2022.01,1428.73 2027.54,1428.29 2032.45,1427.85 2036.77,1427.41 2040.49,1426.96 2043.64,1426.52 2046.22,1426.08 2048.25,1425.64 2049.72,1425.19 2050.63,1424.75 2050.99,1424.31 2050.79,1423.87 2050.03,1423.42 2048.7,1422.98 2046.82,1422.54 2044.38,1422.1 2041.41,1421.66 2037.93,1421.21 2033.95,1420.77 2029.53,1420.33 2024.7,1419.89 2019.51,1419.44 2014.02,1419 2008.29,1418.56 2002.37,1418.12 1996.31,1417.67 1990.19,1417.23 1984.03,1416.79 1977.88,1416.35 1971.77,1415.9 1965.72,1415.46 1959.75,1415.02 1953.86,1414.58 1948.03,1414.13 1942.25,1413.69 1936.5,1413.25 1930.75,1412.81 1924.96,1412.37 1919.1,1411.92 1913.15,1411.48 1907.08,1411.04 1900.86,1410.6 1894.5,1410.15 1887.98,1409.71 1881.32,1409.27 1874.53,1408.83 1867.64,1408.38 1860.67,1407.94 1853.68,1407.5 1846.71,1407.06 1839.81,1406.61 1833.03,1406.17 1826.42,1405.73 1820.02,1405.29 1813.89,1404.85 1808.06,1404.4 1802.57,1403.96 1797.44,1403.52 1792.69,1403.08 1788.32,1402.63 1784.36,1402.19 1780.79,1401.75 1777.6,1401.31 1774.79,1400.86 1772.34,1400.42 1770.23,1399.98 1768.44,1399.54 1766.95,1399.09 1765.74,1398.65 1764.79,1398.21 1764.09,1397.77 1763.62,1397.32 1763.36,1396.88 1763.32,1396.44 1763.48,1396 1763.83,1395.56 1764.39,1395.11 1765.15,1394.67 1766.1,1394.23 1767.26,1393.79 1768.62,1393.34 1770.19,1392.9 1771.96,1392.46 1773.93,1392.02 1776.08,1391.57 1778.42,1391.13 1780.92,1390.69 1783.55,1390.25 1786.29,1389.8 1789.11,1389.36 1791.97,1388.92 1794.82,1388.48 1797.62,1388.04 1800.32,1387.59 1802.87,1387.15 1805.21,1386.71 1807.31,1386.27 1809.12,1385.82 1810.6,1385.38 1811.72,1384.94 1812.45,1384.5 1812.77,1384.05 1704.72,1384.05 1705.04,1384.5 1705.77,1384.94 1706.89,1385.38 1708.37,1385.82 1710.17,1386.27 1712.27,1386.71 1714.62,1387.15 1717.17,1387.59 1719.87,1388.04 1722.67,1388.48 1725.52,1388.92 1728.37,1389.36 1731.19,1389.8 1733.94,1390.25 1736.57,1390.69 1739.07,1391.13 1741.4,1391.57 1743.56,1392.02 1745.53,1392.46 1747.3,1392.9 1748.87,1393.34 1750.23,1393.79 1751.39,1394.23 1752.34,1394.67 1753.1,1395.11 1753.65,1395.56 1754.01,1396 1754.17,1396.44 1754.13,1396.88 1753.87,1397.32 1753.4,1397.77 1752.69,1398.21 1751.75,1398.65 1750.54,1399.09 1749.05,1399.54 1747.26,1399.98 1745.14,1400.42 1742.69,1400.86 1739.88,1401.31 1736.7,1401.75 1733.13,1402.19 1729.16,1402.63 1724.8,1403.08 1720.05,1403.52 1714.92,1403.96 1709.43,1404.4 1703.6,1404.85 1697.47,1405.29 1691.07,1405.73 1684.46,1406.17 1677.68,1406.61 1670.77,1407.06 1663.8,1407.5 1656.81,1407.94 1649.85,1408.38 1642.96,1408.83 1636.17,1409.27 1629.51,1409.71 1622.99,1410.15 1616.63,1410.6 1610.41,1411.04 1604.34,1411.48 1598.39,1411.92 1592.53,1412.37 1586.74,1412.81 1580.99,1413.25 1575.24,1413.69 1569.46,1414.13 1563.63,1414.58 1557.73,1415.02 1551.76,1415.46 1545.72,1415.9 1539.61,1416.35 1533.46,1416.79 1527.3,1417.23 1521.17,1417.67 1515.12,1418.12 1509.2,1418.56 1503.47,1419 1497.98,1419.44 1492.79,1419.89 1487.96,1420.33 1483.54,1420.77 1479.56,1421.21 1476.08,1421.66 1473.1,1422.1 1470.67,1422.54 1468.79,1422.98 1467.46,1423.42 1466.7,1423.87 1466.5,1424.31 1466.86,1424.75 1467.77,1425.19 1469.24,1425.64 1471.27,1426.08 1473.85,1426.52 1477,1426.96 1480.72,1427.41 1485.03,1427.85 1489.95,1428.29 1495.47,1428.73 1501.63,1429.18 1508.41,1429.62 1515.82,1430.06 1523.84,1430.5 1532.47,1430.95 1541.67,1431.39 1975.82,1431.39 "/>
<path clip-path="url(#clip192)" d="M3073.85 149.987 L3073.48 149.006 L3072.12 148.026 L3069.77 147.046 L3066.47 146.065 L3062.25 145.085 L3057.16 144.104 L3051.25 143.124 L3044.58 142.144 L3037.23 141.163 L3029.27 140.183 L3020.78 139.202 L3011.84 138.222 L3002.54 137.241 L2992.98 136.261 L2983.23 135.281 L2973.39 134.3 L2963.54 133.32 L2953.76 132.339 L2944.14 131.359 L2934.75 130.379 L2925.65 129.398 L2916.92 128.418 L2908.61 127.437 L2900.78 126.457 L2893.47 125.476 L2886.72 124.496 L2880.57 123.516 L2875.04 122.535 L2870.15 121.555 L2865.91 120.574 L2862.34 119.594 L2859.43 118.614 L2857.18 117.633 L2855.58 116.653 L2854.62 115.672 L2854.28 114.692 L2854.53 113.712 L2855.35 112.731 L2856.7 111.751 L2858.55 110.77 L2860.86 109.79 L2863.58 108.809 L2866.68 107.829 L2870.09 106.849 L2873.78 105.868 L2877.69 104.888 L2881.77 103.907 L2885.96 102.927 L2890.2 101.947 L2894.45 100.966 L2898.65 99.9858 L2902.74 99.0053 L2906.67 98.0249 L2910.4 97.0445 L2913.87 96.0641 L2917.04 95.0837 L2919.87 94.1033 L2922.32 93.1229 L2924.37 92.1425 L2925.97 91.162 L2927.12 90.1816 L2927.8 89.2012 L2927.99 88.2208 L2635.22 88.2208 L2635.41 89.2012 L2636.08 90.1816 L2637.23 91.162 L2638.84 92.1425 L2640.89 93.1229 L2643.34 94.1033 L2646.17 95.0837 L2649.34 96.0641 L2652.81 97.0445 L2656.53 98.0249 L2660.47 99.0053 L2664.56 99.9858 L2668.76 100.966 L2673 101.947 L2677.25 102.927 L2681.44 103.907 L2685.52 104.888 L2689.42 105.868 L2693.11 106.849 L2696.53 107.829 L2699.62 108.809 L2702.35 109.79 L2704.66 110.77 L2706.51 111.751 L2707.86 112.731 L2708.68 113.712 L2708.93 114.692 L2708.59 115.672 L2707.63 116.653 L2706.03 117.633 L2703.78 118.614 L2700.87 119.594 L2697.3 120.574 L2693.06 121.555 L2688.17 122.535 L2682.64 123.516 L2676.48 124.496 L2669.74 125.476 L2662.43 126.457 L2654.59 127.437 L2646.29 128.418 L2637.56 129.398 L2628.46 130.379 L2619.07 131.359 L2609.45 132.339 L2599.67 133.32 L2589.82 134.3 L2579.98 135.281 L2570.23 136.261 L2560.66 137.241 L2551.37 138.222 L2542.43 139.202 L2533.94 140.183 L2525.98 141.163 L2518.63 142.144 L2511.96 143.124 L2506.05 144.104 L2500.96 145.085 L2496.74 146.065 L2493.44 147.046 L2491.09 148.026 L2489.73 149.006 L2489.36 149.987 L3073.85 149.987  Z" fill="#3da44d" fill-rule="evenodd" fill-opacity="1"/>
<polyline clip-path="url(#clip192)" style="stroke:#000000; stroke-linecap:round; stroke-linejoin:round; stroke-width:4; stroke-opacity:1; fill:none" points="3073.85,149.987 3073.48,149.006 3072.12,148.026 3069.77,147.046 3066.47,146.065 3062.25,145.085 3057.16,144.104 3051.25,143.124 3044.58,142.144 3037.23,141.163 3029.27,140.183 3020.78,139.202 3011.84,138.222 3002.54,137.241 2992.98,136.261 2983.23,135.281 2973.39,134.3 2963.54,133.32 2953.76,132.339 2944.14,131.359 2934.75,130.379 2925.65,129.398 2916.92,128.418 2908.61,127.437 2900.78,126.457 2893.47,125.476 2886.72,124.496 2880.57,123.516 2875.04,122.535 2870.15,121.555 2865.91,120.574 2862.34,119.594 2859.43,118.614 2857.18,117.633 2855.58,116.653 2854.62,115.672 2854.28,114.692 2854.53,113.712 2855.35,112.731 2856.7,111.751 2858.55,110.77 2860.86,109.79 2863.58,108.809 2866.68,107.829 2870.09,106.849 2873.78,105.868 2877.69,104.888 2881.77,103.907 2885.96,102.927 2890.2,101.947 2894.45,100.966 2898.65,99.9858 2902.74,99.0053 2906.67,98.0249 2910.4,97.0445 2913.87,96.0641 2917.04,95.0837 2919.87,94.1033 2922.32,93.1229 2924.37,92.1425 2925.97,91.162 2927.12,90.1816 2927.8,89.2012 2927.99,88.2208 2635.22,88.2208 2635.41,89.2012 2636.08,90.1816 2637.23,91.162 2638.84,92.1425 2640.89,93.1229 2643.34,94.1033 2646.17,95.0837 2649.34,96.0641 2652.81,97.0445 2656.53,98.0249 2660.47,99.0053 2664.56,99.9858 2668.76,100.966 2673,101.947 2677.25,102.927 2681.44,103.907 2685.52,104.888 2689.42,105.868 2693.11,106.849 2696.53,107.829 2699.62,108.809 2702.35,109.79 2704.66,110.77 2706.51,111.751 2707.86,112.731 2708.68,113.712 2708.93,114.692 2708.59,115.672 2707.63,116.653 2706.03,117.633 2703.78,118.614 2700.87,119.594 2697.3,120.574 2693.06,121.555 2688.17,122.535 2682.64,123.516 2676.48,124.496 2669.74,125.476 2662.43,126.457 2654.59,127.437 2646.29,128.418 2637.56,129.398 2628.46,130.379 2619.07,131.359 2609.45,132.339 2599.67,133.32 2589.82,134.3 2579.98,135.281 2570.23,136.261 2560.66,137.241 2551.37,138.222 2542.43,139.202 2533.94,140.183 2525.98,141.163 2518.63,142.144 2511.96,143.124 2506.05,144.104 2500.96,145.085 2496.74,146.065 2493.44,147.046 2491.09,148.026 2489.73,149.006 2489.36,149.987 3073.85,149.987 "/>
</svg>
