<?xml version="1.0" encoding="utf-8"?>
<svg xmlns="http://www.w3.org/2000/svg" xmlns:xlink="http://www.w3.org/1999/xlink" width="800" height="400" viewBox="0 0 3200 1600">
<defs>
  <clipPath id="clip160">
    <rect x="0" y="0" width="3200" height="1600"/>
  </clipPath>
</defs>
<path clip-path="url(#clip160)" d="M0 1600 L3200 1600 L3200 0 L0 0  Z" fill="#ffffff" fill-rule="evenodd" fill-opacity="1"/>
<defs>
  <clipPath id="clip161">
    <rect x="640" y="0" width="2241" height="1600"/>
  </clipPath>
</defs>
<path clip-path="url(#clip160)" d="M365.777 1495.09 L3152.76 1495.09 L3152.76 47.2441 L365.777 47.2441  Z" fill="#ffffff" fill-rule="evenodd" fill-opacity="1"/>
<defs>
  <clipPath id="clip162">
    <rect x="365" y="47" width="2788" height="1449"/>
  </clipPath>
</defs>
<polyline clip-path="url(#clip162)" style="stroke:#000000; stroke-linecap:round; stroke-linejoin:round; stroke-width:2; stroke-opacity:0.1; fill:none" points="922.695,1495.09 922.695,47.2441 "/>
<polyline clip-path="url(#clip162)" style="stroke:#000000; stroke-linecap:round; stroke-linejoin:round; stroke-width:2; stroke-opacity:0.1; fill:none" points="2595.84,1495.09 2595.84,47.2441 "/>
<polyline clip-path="url(#clip162)" style="stroke:#000000; stroke-linecap:round; stroke-linejoin:round; stroke-width:2; stroke-opacity:0.1; fill:none" points="365.777,1212.38 3152.76,1212.38 "/>
<polyline clip-path="url(#clip162)" style="stroke:#000000; stroke-linecap:round; stroke-linejoin:round; stroke-width:2; stroke-opacity:0.1; fill:none" points="365.777,895.005 3152.76,895.005 "/>
<polyline clip-path="url(#clip162)" style="stroke:#000000; stroke-linecap:round; stroke-linejoin:round; stroke-width:2; stroke-opacity:0.1; fill:none" points="365.777,577.63 3152.76,577.63 "/>
<polyline clip-path="url(#clip162)" style="stroke:#000000; stroke-linecap:round; stroke-linejoin:round; stroke-width:2; stroke-opacity:0.1; fill:none" points="365.777,260.254 3152.76,260.254 "/>
<polyline clip-path="url(#clip160)" style="stroke:#000000; stroke-linecap:round; stroke-linejoin:round; stroke-width:4; stroke-opacity:1; fill:none" points="365.777,1495.09 3152.76,1495.09 "/>
<polyline clip-path="url(#clip160)" style="stroke:#000000; stroke-linecap:round; stroke-linejoin:round; stroke-width:4; stroke-opacity:1; fill:none" points="922.695,1495.09 922.695,1476.19 "/>
<polyline clip-path="url(#clip160)" style="stroke:#000000; stroke-linecap:round; stroke-linejoin:round; stroke-width:4; stroke-opacity:1; fill:none" points="2595.84,1495.09 2595.84,1476.19 "/>
<path clip-path="url(#clip160)" d="M827.95 1533.4 L816.144 1551.85 L827.95 1551.85 L827.95 1533.4 M826.723 1529.33 L832.603 1529.33 L832.603 1551.85 L837.533 1551.85 L837.533 1555.74 L832.603 1555.74 L832.603 1563.89 L827.95 1563.89 L827.95 1555.74 L812.348 1555.74 L812.348 1551.23 L826.723 1529.33 Z" fill="#000000" fill-rule="nonzero" fill-opacity="1" /><path clip-path="url(#clip160)" d="M863.945 1530.6 L863.945 1537.96 L872.718 1537.96 L872.718 1541.27 L863.945 1541.27 L863.945 1555.35 Q863.945 1558.52 864.802 1559.42 Q865.681 1560.32 868.343 1560.32 L872.718 1560.32 L872.718 1563.89 L868.343 1563.89 Q863.413 1563.89 861.538 1562.06 Q859.663 1560.21 859.663 1555.35 L859.663 1541.27 L856.538 1541.27 L856.538 1537.96 L859.663 1537.96 L859.663 1530.6 L863.945 1530.6 Z" fill="#000000" fill-rule="nonzero" fill-opacity="1" /><path clip-path="url(#clip160)" d="M899.871 1548.24 L899.871 1563.89 L895.612 1563.89 L895.612 1548.38 Q895.612 1544.7 894.176 1542.87 Q892.741 1541.04 889.871 1541.04 Q886.422 1541.04 884.431 1543.24 Q882.44 1545.44 882.44 1549.24 L882.44 1563.89 L878.158 1563.89 L878.158 1527.87 L882.44 1527.87 L882.44 1541.99 Q883.968 1539.65 886.028 1538.49 Q888.112 1537.34 890.82 1537.34 Q895.288 1537.34 897.579 1540.11 Q899.871 1542.87 899.871 1548.24 Z" fill="#000000" fill-rule="nonzero" fill-opacity="1" /><path clip-path="url(#clip160)" d="M923.389 1541.94 Q922.672 1541.53 921.815 1541.34 Q920.982 1541.13 919.963 1541.13 Q916.352 1541.13 914.408 1543.49 Q912.487 1545.83 912.487 1550.23 L912.487 1563.89 L908.204 1563.89 L908.204 1537.96 L912.487 1537.96 L912.487 1541.99 Q913.829 1539.63 915.982 1538.49 Q918.135 1537.34 921.213 1537.34 Q921.653 1537.34 922.186 1537.41 Q922.718 1537.45 923.366 1537.57 L923.389 1541.94 Z" fill="#000000" fill-rule="nonzero" fill-opacity="1" /><path clip-path="url(#clip160)" d="M948.991 1549.86 L948.991 1551.94 L929.408 1551.94 Q929.686 1556.34 932.047 1558.66 Q934.431 1560.95 938.667 1560.95 Q941.121 1560.95 943.412 1560.35 Q945.727 1559.74 947.996 1558.54 L947.996 1562.57 Q945.704 1563.54 943.297 1564.05 Q940.889 1564.56 938.412 1564.56 Q932.209 1564.56 928.574 1560.95 Q924.963 1557.34 924.963 1551.18 Q924.963 1544.81 928.389 1541.09 Q931.838 1537.34 937.672 1537.34 Q942.903 1537.34 945.935 1540.72 Q948.991 1544.07 948.991 1549.86 M944.732 1548.61 Q944.685 1545.11 942.764 1543.03 Q940.866 1540.95 937.718 1540.95 Q934.153 1540.95 932 1542.96 Q929.871 1544.98 929.547 1548.63 L944.732 1548.61 Z" fill="#000000" fill-rule="nonzero" fill-opacity="1" /><path clip-path="url(#clip160)" d="M967.764 1550.86 Q962.602 1550.86 960.611 1552.04 Q958.621 1553.22 958.621 1556.06 Q958.621 1558.33 960.102 1559.67 Q961.607 1560.99 964.176 1560.99 Q967.718 1560.99 969.847 1558.49 Q972 1555.97 972 1551.8 L972 1550.86 L967.764 1550.86 M976.259 1549.1 L976.259 1563.89 L972 1563.89 L972 1559.95 Q970.542 1562.31 968.366 1563.45 Q966.19 1564.56 963.042 1564.56 Q959.06 1564.56 956.699 1562.34 Q954.361 1560.09 954.361 1556.34 Q954.361 1551.97 957.278 1549.74 Q960.218 1547.52 966.028 1547.52 L972 1547.52 L972 1547.11 Q972 1544.17 970.056 1542.57 Q968.134 1540.95 964.639 1540.95 Q962.417 1540.95 960.31 1541.48 Q958.204 1542.01 956.259 1543.08 L956.259 1539.14 Q958.597 1538.24 960.796 1537.8 Q962.996 1537.34 965.079 1537.34 Q970.704 1537.34 973.482 1540.25 Q976.259 1543.17 976.259 1549.1 Z" fill="#000000" fill-rule="nonzero" fill-opacity="1" /><path clip-path="url(#clip160)" d="M1002.09 1541.9 L1002.09 1527.87 L1006.35 1527.87 L1006.35 1563.89 L1002.09 1563.89 L1002.09 1560 Q1000.75 1562.31 998.69 1563.45 Q996.653 1564.56 993.782 1564.56 Q989.083 1564.56 986.12 1560.81 Q983.181 1557.06 983.181 1550.95 Q983.181 1544.84 986.12 1541.09 Q989.083 1537.34 993.782 1537.34 Q996.653 1537.34 998.69 1538.47 Q1000.75 1539.58 1002.09 1541.9 M987.579 1550.95 Q987.579 1555.65 989.5 1558.33 Q991.444 1560.99 994.824 1560.99 Q998.204 1560.99 1000.15 1558.33 Q1002.09 1555.65 1002.09 1550.95 Q1002.09 1546.25 1000.15 1543.59 Q998.204 1540.9 994.824 1540.9 Q991.444 1540.9 989.5 1543.59 Q987.579 1546.25 987.579 1550.95 Z" fill="#000000" fill-rule="nonzero" fill-opacity="1" /><path clip-path="url(#clip160)" d="M1031.65 1538.73 L1031.65 1542.75 Q1029.85 1541.83 1027.9 1541.36 Q1025.96 1540.9 1023.87 1540.9 Q1020.7 1540.9 1019.11 1541.87 Q1017.53 1542.85 1017.53 1544.79 Q1017.53 1546.27 1018.67 1547.13 Q1019.8 1547.96 1023.23 1548.73 L1024.69 1549.05 Q1029.22 1550.02 1031.12 1551.8 Q1033.04 1553.56 1033.04 1556.74 Q1033.04 1560.35 1030.17 1562.45 Q1027.32 1564.56 1022.32 1564.56 Q1020.24 1564.56 1017.97 1564.14 Q1015.73 1563.75 1013.23 1562.94 L1013.23 1558.54 Q1015.59 1559.77 1017.88 1560.39 Q1020.17 1560.99 1022.42 1560.99 Q1025.43 1560.99 1027.05 1559.98 Q1028.67 1558.93 1028.67 1557.06 Q1028.67 1555.32 1027.49 1554.4 Q1026.33 1553.47 1022.37 1552.61 L1020.89 1552.27 Q1016.93 1551.43 1015.17 1549.72 Q1013.41 1547.99 1013.41 1544.98 Q1013.41 1541.32 1016 1539.33 Q1018.6 1537.34 1023.37 1537.34 Q1025.73 1537.34 1027.81 1537.68 Q1029.89 1538.03 1031.65 1538.73 Z" fill="#000000" fill-rule="nonzero" fill-opacity="1" /><path clip-path="url(#clip160)" d="M2500.95 1559.95 L2508.59 1559.95 L2508.59 1533.59 L2500.28 1535.25 L2500.28 1530.99 L2508.55 1529.33 L2513.22 1529.33 L2513.22 1559.95 L2520.86 1559.95 L2520.86 1563.89 L2500.95 1563.89 L2500.95 1559.95 Z" fill="#000000" fill-rule="nonzero" fill-opacity="1" /><path clip-path="url(#clip160)" d="M2548.99 1530.6 L2548.99 1537.96 L2557.76 1537.96 L2557.76 1541.27 L2548.99 1541.27 L2548.99 1555.35 Q2548.99 1558.52 2549.84 1559.42 Q2550.72 1560.32 2553.38 1560.32 L2557.76 1560.32 L2557.76 1563.89 L2553.38 1563.89 Q2548.45 1563.89 2546.58 1562.06 Q2544.7 1560.21 2544.7 1555.35 L2544.7 1541.27 L2541.58 1541.27 L2541.58 1537.96 L2544.7 1537.96 L2544.7 1530.6 L2548.99 1530.6 Z" fill="#000000" fill-rule="nonzero" fill-opacity="1" /><path clip-path="url(#clip160)" d="M2584.91 1548.24 L2584.91 1563.89 L2580.65 1563.89 L2580.65 1548.38 Q2580.65 1544.7 2579.22 1542.87 Q2577.78 1541.04 2574.91 1541.04 Q2571.46 1541.04 2569.47 1543.24 Q2567.48 1545.44 2567.48 1549.24 L2567.48 1563.89 L2563.2 1563.89 L2563.2 1527.87 L2567.48 1527.87 L2567.48 1541.99 Q2569.01 1539.65 2571.07 1538.49 Q2573.15 1537.34 2575.86 1537.34 Q2580.33 1537.34 2582.62 1540.11 Q2584.91 1542.87 2584.91 1548.24 Z" fill="#000000" fill-rule="nonzero" fill-opacity="1" /><path clip-path="url(#clip160)" d="M2608.43 1541.94 Q2607.71 1541.53 2606.86 1541.34 Q2606.02 1541.13 2605 1541.13 Q2601.39 1541.13 2599.45 1543.49 Q2597.53 1545.83 2597.53 1550.23 L2597.53 1563.89 L2593.25 1563.89 L2593.25 1537.96 L2597.53 1537.96 L2597.53 1541.99 Q2598.87 1539.63 2601.02 1538.49 Q2603.18 1537.34 2606.25 1537.34 Q2606.69 1537.34 2607.23 1537.41 Q2607.76 1537.45 2608.41 1537.57 L2608.43 1541.94 Z" fill="#000000" fill-rule="nonzero" fill-opacity="1" /><path clip-path="url(#clip160)" d="M2634.03 1549.86 L2634.03 1551.94 L2614.45 1551.94 Q2614.73 1556.34 2617.09 1558.66 Q2619.47 1560.95 2623.71 1560.95 Q2626.16 1560.95 2628.45 1560.35 Q2630.77 1559.74 2633.04 1558.54 L2633.04 1562.57 Q2630.75 1563.54 2628.34 1564.05 Q2625.93 1564.56 2623.45 1564.56 Q2617.25 1564.56 2613.62 1560.95 Q2610 1557.34 2610 1551.18 Q2610 1544.81 2613.43 1541.09 Q2616.88 1537.34 2622.71 1537.34 Q2627.94 1537.34 2630.98 1540.72 Q2634.03 1544.07 2634.03 1549.86 M2629.77 1548.61 Q2629.73 1545.11 2627.81 1543.03 Q2625.91 1540.95 2622.76 1540.95 Q2619.19 1540.95 2617.04 1542.96 Q2614.91 1544.98 2614.59 1548.63 L2629.77 1548.61 Z" fill="#000000" fill-rule="nonzero" fill-opacity="1" /><path clip-path="url(#clip160)" d="M2652.81 1550.86 Q2647.64 1550.86 2645.65 1552.04 Q2643.66 1553.22 2643.66 1556.06 Q2643.66 1558.33 2645.14 1559.67 Q2646.65 1560.99 2649.22 1560.99 Q2652.76 1560.99 2654.89 1558.49 Q2657.04 1555.97 2657.04 1551.8 L2657.04 1550.86 L2652.81 1550.86 M2661.3 1549.1 L2661.3 1563.89 L2657.04 1563.89 L2657.04 1559.95 Q2655.58 1562.31 2653.41 1563.45 Q2651.23 1564.56 2648.08 1564.56 Q2644.1 1564.56 2641.74 1562.34 Q2639.4 1560.09 2639.4 1556.34 Q2639.4 1551.97 2642.32 1549.74 Q2645.26 1547.52 2651.07 1547.52 L2657.04 1547.52 L2657.04 1547.11 Q2657.04 1544.17 2655.1 1542.57 Q2653.18 1540.95 2649.68 1540.95 Q2647.46 1540.95 2645.35 1541.48 Q2643.25 1542.01 2641.3 1543.08 L2641.3 1539.14 Q2643.64 1538.24 2645.84 1537.8 Q2648.04 1537.34 2650.12 1537.34 Q2655.75 1537.34 2658.52 1540.25 Q2661.3 1543.17 2661.3 1549.1 Z" fill="#000000" fill-rule="nonzero" fill-opacity="1" /><path clip-path="url(#clip160)" d="M2687.13 1541.9 L2687.13 1527.87 L2691.39 1527.87 L2691.39 1563.89 L2687.13 1563.89 L2687.13 1560 Q2685.79 1562.31 2683.73 1563.45 Q2681.69 1564.56 2678.82 1564.56 Q2674.12 1564.56 2671.16 1560.81 Q2668.22 1557.06 2668.22 1550.95 Q2668.22 1544.84 2671.16 1541.09 Q2674.12 1537.34 2678.82 1537.34 Q2681.69 1537.34 2683.73 1538.47 Q2685.79 1539.58 2687.13 1541.9 M2672.62 1550.95 Q2672.62 1555.65 2674.54 1558.33 Q2676.49 1560.99 2679.87 1560.99 Q2683.25 1560.99 2685.19 1558.33 Q2687.13 1555.65 2687.13 1550.95 Q2687.13 1546.25 2685.19 1543.59 Q2683.25 1540.9 2679.87 1540.9 Q2676.49 1540.9 2674.54 1543.59 Q2672.62 1546.25 2672.62 1550.95 Z" fill="#000000" fill-rule="nonzero" fill-opacity="1" /><polyline clip-path="url(#clip160)" style="stroke:#000000; stroke-linecap:round; stroke-linejoin:round; stroke-width:4; stroke-opacity:1; fill:none" points="365.777,1495.09 365.777,47.2441 "/>
<polyline clip-path="url(#clip160)" style="stroke:#000000; stroke-linecap:round; stroke-linejoin:round; stroke-width:4; stroke-opacity:1; fill:none" points="365.777,1212.38 384.675,1212.38 "/>
<polyline clip-path="url(#clip160)" style="stroke:#000000; stroke-linecap:round; stroke-linejoin:round; stroke-width:4; stroke-opacity:1; fill:none" points="365.777,895.005 384.675,895.005 "/>
<polyline clip-path="url(#clip160)" style="stroke:#000000; stroke-linecap:round; stroke-linejoin:round; stroke-width:4; stroke-opacity:1; fill:none" points="365.777,577.63 384.675,577.63 "/>
<polyline clip-path="url(#clip160)" style="stroke:#000000; stroke-linecap:round; stroke-linejoin:round; stroke-width:4; stroke-opacity:1; fill:none" points="365.777,260.254 384.675,260.254 "/>
<path clip-path="url(#clip160)" d="M105.163 1232.17 L121.482 1232.17 L121.482 1236.11 L99.5376 1236.11 L99.5376 1232.17 Q102.2 1229.42 106.783 1224.79 Q111.389 1220.14 112.57 1218.79 Q114.815 1216.27 115.695 1214.53 Q116.598 1212.77 116.598 1211.09 Q116.598 1208.33 114.653 1206.59 Q112.732 1204.86 109.63 1204.86 Q107.431 1204.86 104.977 1205.62 Q102.547 1206.39 99.769 1207.94 L99.769 1203.21 Q102.593 1202.08 105.047 1201.5 Q107.5 1200.92 109.538 1200.92 Q114.908 1200.92 118.102 1203.61 Q121.297 1206.29 121.297 1210.78 Q121.297 1212.91 120.487 1214.84 Q119.699 1216.73 117.593 1219.33 Q117.014 1220 113.912 1223.21 Q110.811 1226.41 105.163 1232.17 Z" fill="#000000" fill-rule="nonzero" fill-opacity="1" /><path clip-path="url(#clip160)" d="M131.297 1230.23 L136.181 1230.23 L136.181 1236.11 L131.297 1236.11 L131.297 1230.23 Z" fill="#000000" fill-rule="nonzero" fill-opacity="1" /><path clip-path="url(#clip160)" d="M146.412 1201.55 L164.769 1201.55 L164.769 1205.48 L150.695 1205.48 L150.695 1213.96 Q151.713 1213.61 152.732 1213.45 Q153.75 1213.26 154.769 1213.26 Q160.556 1213.26 163.935 1216.43 Q167.315 1219.6 167.315 1225.02 Q167.315 1230.6 163.843 1233.7 Q160.371 1236.78 154.051 1236.78 Q151.875 1236.78 149.607 1236.41 Q147.361 1236.04 144.954 1235.3 L144.954 1230.6 Q147.037 1231.73 149.26 1232.29 Q151.482 1232.84 153.959 1232.84 Q157.963 1232.84 160.301 1230.74 Q162.639 1228.63 162.639 1225.02 Q162.639 1221.41 160.301 1219.3 Q157.963 1217.2 153.959 1217.2 Q152.084 1217.2 150.209 1217.61 Q148.357 1218.03 146.412 1218.91 L146.412 1201.55 Z" fill="#000000" fill-rule="nonzero" fill-opacity="1" /><path clip-path="url(#clip160)" d="M186.528 1204.63 Q182.917 1204.63 181.088 1208.19 Q179.283 1211.73 179.283 1218.86 Q179.283 1225.97 181.088 1229.53 Q182.917 1233.08 186.528 1233.08 Q190.162 1233.08 191.968 1229.53 Q193.796 1225.97 193.796 1218.86 Q193.796 1211.73 191.968 1208.19 Q190.162 1204.63 186.528 1204.63 M186.528 1200.92 Q192.338 1200.92 195.394 1205.53 Q198.472 1210.11 198.472 1218.86 Q198.472 1227.59 195.394 1232.2 Q192.338 1236.78 186.528 1236.78 Q180.718 1236.78 177.639 1232.2 Q174.583 1227.59 174.583 1218.86 Q174.583 1210.11 177.639 1205.53 Q180.718 1200.92 186.528 1200.92 Z" fill="#000000" fill-rule="nonzero" fill-opacity="1" /><path clip-path="url(#clip160)" d="M234.861 1210.65 L224.282 1221.27 L234.861 1231.85 L232.106 1234.65 L221.481 1224.02 L210.856 1234.65 L208.125 1231.85 L218.68 1221.27 L208.125 1210.65 L210.856 1207.84 L221.481 1218.47 L232.106 1207.84 L234.861 1210.65 Z" fill="#000000" fill-rule="nonzero" fill-opacity="1" /><path clip-path="url(#clip160)" d="M247.222 1232.17 L254.861 1232.17 L254.861 1205.81 L246.551 1207.47 L246.551 1203.21 L254.815 1201.55 L259.49 1201.55 L259.49 1232.17 L267.129 1232.17 L267.129 1236.11 L247.222 1236.11 L247.222 1232.17 Z" fill="#000000" fill-rule="nonzero" fill-opacity="1" /><path clip-path="url(#clip160)" d="M286.574 1204.63 Q282.963 1204.63 281.134 1208.19 Q279.328 1211.73 279.328 1218.86 Q279.328 1225.97 281.134 1229.53 Q282.963 1233.08 286.574 1233.08 Q290.208 1233.08 292.013 1229.53 Q293.842 1225.97 293.842 1218.86 Q293.842 1211.73 292.013 1208.19 Q290.208 1204.63 286.574 1204.63 M286.574 1200.92 Q292.384 1200.92 295.439 1205.53 Q298.518 1210.11 298.518 1218.86 Q298.518 1227.59 295.439 1232.2 Q292.384 1236.78 286.574 1236.78 Q280.763 1236.78 277.685 1232.2 Q274.629 1227.59 274.629 1218.86 Q274.629 1210.11 277.685 1205.53 Q280.763 1200.92 286.574 1200.92 Z" fill="#000000" fill-rule="nonzero" fill-opacity="1" /><path clip-path="url(#clip160)" d="M308.148 1195.36 Q305.439 1195.36 303.878 1196.81 Q302.336 1198.26 302.336 1200.8 Q302.336 1203.34 303.878 1204.79 Q305.439 1206.23 308.148 1206.23 Q310.856 1206.23 312.417 1204.79 Q313.978 1203.32 313.978 1200.8 Q313.978 1198.26 312.417 1196.81 Q310.875 1195.36 308.148 1195.36 M304.348 1193.75 Q301.903 1193.14 300.53 1191.47 Q299.176 1189.8 299.176 1187.39 Q299.176 1184.02 301.565 1182.07 Q303.972 1180.11 308.148 1180.11 Q312.342 1180.11 314.73 1182.07 Q317.119 1184.02 317.119 1187.39 Q317.119 1189.8 315.746 1191.47 Q314.392 1193.14 311.966 1193.75 Q314.711 1194.39 316.235 1196.25 Q317.777 1198.11 317.777 1200.8 Q317.777 1204.88 315.276 1207.06 Q312.793 1209.24 308.148 1209.24 Q303.502 1209.24 301.001 1207.06 Q298.518 1204.88 298.518 1200.8 Q298.518 1198.11 300.06 1196.25 Q301.602 1194.39 304.348 1193.75 M302.957 1187.75 Q302.957 1189.93 304.311 1191.15 Q305.684 1192.37 308.148 1192.37 Q310.593 1192.37 311.966 1191.15 Q313.357 1189.93 313.357 1187.75 Q313.357 1185.56 311.966 1184.34 Q310.593 1183.12 308.148 1183.12 Q305.684 1183.12 304.311 1184.34 Q302.957 1185.56 302.957 1187.75 Z" fill="#000000" fill-rule="nonzero" fill-opacity="1" /><path clip-path="url(#clip160)" d="M115.301 900.098 Q118.658 900.816 120.533 903.085 Q122.431 905.353 122.431 908.686 Q122.431 913.802 118.912 916.603 Q115.394 919.404 108.913 919.404 Q106.737 919.404 104.422 918.964 Q102.13 918.547 99.6764 917.691 L99.6764 913.177 Q101.621 914.311 103.936 914.89 Q106.25 915.469 108.774 915.469 Q113.172 915.469 115.463 913.733 Q117.778 911.997 117.778 908.686 Q117.778 905.631 115.625 903.918 Q113.496 902.182 109.676 902.182 L105.649 902.182 L105.649 898.339 L109.862 898.339 Q113.311 898.339 115.139 896.974 Q116.968 895.585 116.968 892.992 Q116.968 890.33 115.07 888.918 Q113.195 887.483 109.676 887.483 Q107.755 887.483 105.556 887.899 Q103.357 888.316 100.718 889.196 L100.718 885.029 Q103.38 884.288 105.695 883.918 Q108.033 883.548 110.093 883.548 Q115.417 883.548 118.519 885.978 Q121.621 888.386 121.621 892.506 Q121.621 895.376 119.977 897.367 Q118.334 899.335 115.301 900.098 Z" fill="#000000" fill-rule="nonzero" fill-opacity="1" /><path clip-path="url(#clip160)" d="M131.297 912.853 L136.181 912.853 L136.181 918.733 L131.297 918.733 L131.297 912.853 Z" fill="#000000" fill-rule="nonzero" fill-opacity="1" /><path clip-path="url(#clip160)" d="M156.366 887.251 Q152.755 887.251 150.926 890.816 Q149.121 894.358 149.121 901.487 Q149.121 908.594 150.926 912.159 Q152.755 915.7 156.366 915.7 Q160 915.7 161.806 912.159 Q163.634 908.594 163.634 901.487 Q163.634 894.358 161.806 890.816 Q160 887.251 156.366 887.251 M156.366 883.548 Q162.176 883.548 165.232 888.154 Q168.31 892.737 168.31 901.487 Q168.31 910.214 165.232 914.821 Q162.176 919.404 156.366 919.404 Q150.556 919.404 147.477 914.821 Q144.422 910.214 144.422 901.487 Q144.422 892.737 147.477 888.154 Q150.556 883.548 156.366 883.548 Z" fill="#000000" fill-rule="nonzero" fill-opacity="1" /><path clip-path="url(#clip160)" d="M186.528 887.251 Q182.917 887.251 181.088 890.816 Q179.283 894.358 179.283 901.487 Q179.283 908.594 181.088 912.159 Q182.917 915.7 186.528 915.7 Q190.162 915.7 191.968 912.159 Q193.796 908.594 193.796 901.487 Q193.796 894.358 191.968 890.816 Q190.162 887.251 186.528 887.251 M186.528 883.548 Q192.338 883.548 195.394 888.154 Q198.472 892.737 198.472 901.487 Q198.472 910.214 195.394 914.821 Q192.338 919.404 186.528 919.404 Q180.718 919.404 177.639 914.821 Q174.583 910.214 174.583 901.487 Q174.583 892.737 177.639 888.154 Q180.718 883.548 186.528 883.548 Z" fill="#000000" fill-rule="nonzero" fill-opacity="1" /><path clip-path="url(#clip160)" d="M234.861 893.27 L224.282 903.895 L234.861 914.473 L232.106 917.274 L221.481 906.649 L210.856 917.274 L208.125 914.473 L218.68 903.895 L208.125 893.27 L210.856 890.469 L221.481 901.094 L232.106 890.469 L234.861 893.27 Z" fill="#000000" fill-rule="nonzero" fill-opacity="1" /><path clip-path="url(#clip160)" d="M247.222 914.797 L254.861 914.797 L254.861 888.432 L246.551 890.099 L246.551 885.839 L254.815 884.173 L259.49 884.173 L259.49 914.797 L267.129 914.797 L267.129 918.733 L247.222 918.733 L247.222 914.797 Z" fill="#000000" fill-rule="nonzero" fill-opacity="1" /><path clip-path="url(#clip160)" d="M286.574 887.251 Q282.963 887.251 281.134 890.816 Q279.328 894.358 279.328 901.487 Q279.328 908.594 281.134 912.159 Q282.963 915.7 286.574 915.7 Q290.208 915.7 292.013 912.159 Q293.842 908.594 293.842 901.487 Q293.842 894.358 292.013 890.816 Q290.208 887.251 286.574 887.251 M286.574 883.548 Q292.384 883.548 295.439 888.154 Q298.518 892.737 298.518 901.487 Q298.518 910.214 295.439 914.821 Q292.384 919.404 286.574 919.404 Q280.763 919.404 277.685 914.821 Q274.629 910.214 274.629 901.487 Q274.629 892.737 277.685 888.154 Q280.763 883.548 286.574 883.548 Z" fill="#000000" fill-rule="nonzero" fill-opacity="1" /><path clip-path="url(#clip160)" d="M308.148 877.988 Q305.439 877.988 303.878 879.436 Q302.336 880.884 302.336 883.423 Q302.336 885.962 303.878 887.41 Q305.439 888.858 308.148 888.858 Q310.856 888.858 312.417 887.41 Q313.978 885.943 313.978 883.423 Q313.978 880.884 312.417 879.436 Q310.875 877.988 308.148 877.988 M304.348 876.37 Q301.903 875.768 300.53 874.094 Q299.176 872.42 299.176 870.013 Q299.176 866.646 301.565 864.69 Q303.972 862.734 308.148 862.734 Q312.342 862.734 314.73 864.69 Q317.119 866.646 317.119 870.013 Q317.119 872.42 315.746 874.094 Q314.392 875.768 311.966 876.37 Q314.711 877.01 316.235 878.872 Q317.777 880.733 317.777 883.423 Q317.777 887.504 315.276 889.686 Q312.793 891.868 308.148 891.868 Q303.502 891.868 301.001 889.686 Q298.518 887.504 298.518 883.423 Q298.518 880.733 300.06 878.872 Q301.602 877.01 304.348 876.37 M302.957 870.37 Q302.957 872.552 304.311 873.775 Q305.684 874.997 308.148 874.997 Q310.593 874.997 311.966 873.775 Q313.357 872.552 313.357 870.37 Q313.357 868.189 311.966 866.966 Q310.593 865.744 308.148 865.744 Q305.684 865.744 304.311 866.966 Q302.957 868.189 302.957 870.37 Z" fill="#000000" fill-rule="nonzero" fill-opacity="1" /><path clip-path="url(#clip160)" d="M115.301 582.723 Q118.658 583.441 120.533 585.709 Q122.431 587.978 122.431 591.311 Q122.431 596.427 118.912 599.228 Q115.394 602.028 108.913 602.028 Q106.737 602.028 104.422 601.589 Q102.13 601.172 99.6764 600.315 L99.6764 595.802 Q101.621 596.936 103.936 597.515 Q106.25 598.093 108.774 598.093 Q113.172 598.093 115.463 596.357 Q117.778 594.621 117.778 591.311 Q117.778 588.255 115.625 586.542 Q113.496 584.806 109.676 584.806 L105.649 584.806 L105.649 580.964 L109.862 580.964 Q113.311 580.964 115.139 579.598 Q116.968 578.209 116.968 575.617 Q116.968 572.955 115.07 571.542 Q113.195 570.107 109.676 570.107 Q107.755 570.107 105.556 570.524 Q103.357 570.941 100.718 571.82 L100.718 567.654 Q103.38 566.913 105.695 566.543 Q108.033 566.172 110.093 566.172 Q115.417 566.172 118.519 568.603 Q121.621 571.01 121.621 575.13 Q121.621 578.001 119.977 579.992 Q118.334 581.959 115.301 582.723 Z" fill="#000000" fill-rule="nonzero" fill-opacity="1" /><path clip-path="url(#clip160)" d="M131.297 595.478 L136.181 595.478 L136.181 601.357 L131.297 601.357 L131.297 595.478 Z" fill="#000000" fill-rule="nonzero" fill-opacity="1" /><path clip-path="url(#clip160)" d="M146.412 566.797 L164.769 566.797 L164.769 570.732 L150.695 570.732 L150.695 579.204 Q151.713 578.857 152.732 578.695 Q153.75 578.51 154.769 578.51 Q160.556 578.51 163.935 581.681 Q167.315 584.853 167.315 590.269 Q167.315 595.848 163.843 598.95 Q160.371 602.028 154.051 602.028 Q151.875 602.028 149.607 601.658 Q147.361 601.288 144.954 600.547 L144.954 595.848 Q147.037 596.982 149.26 597.538 Q151.482 598.093 153.959 598.093 Q157.963 598.093 160.301 595.987 Q162.639 593.88 162.639 590.269 Q162.639 586.658 160.301 584.552 Q157.963 582.445 153.959 582.445 Q152.084 582.445 150.209 582.862 Q148.357 583.279 146.412 584.158 L146.412 566.797 Z" fill="#000000" fill-rule="nonzero" fill-opacity="1" /><path clip-path="url(#clip160)" d="M186.528 569.876 Q182.917 569.876 181.088 573.441 Q179.283 576.982 179.283 584.112 Q179.283 591.218 181.088 594.783 Q182.917 598.325 186.528 598.325 Q190.162 598.325 191.968 594.783 Q193.796 591.218 193.796 584.112 Q193.796 576.982 191.968 573.441 Q190.162 569.876 186.528 569.876 M186.528 566.172 Q192.338 566.172 195.394 570.779 Q198.472 575.362 198.472 584.112 Q198.472 592.839 195.394 597.445 Q192.338 602.028 186.528 602.028 Q180.718 602.028 177.639 597.445 Q174.583 592.839 174.583 584.112 Q174.583 575.362 177.639 570.779 Q180.718 566.172 186.528 566.172 Z" fill="#000000" fill-rule="nonzero" fill-opacity="1" /><path clip-path="url(#clip160)" d="M234.861 575.894 L224.282 586.519 L234.861 597.098 L232.106 599.899 L221.481 589.274 L210.856 599.899 L208.125 597.098 L218.68 586.519 L208.125 575.894 L210.856 573.093 L221.481 583.718 L232.106 573.093 L234.861 575.894 Z" fill="#000000" fill-rule="nonzero" fill-opacity="1" /><path clip-path="url(#clip160)" d="M247.222 597.422 L254.861 597.422 L254.861 571.056 L246.551 572.723 L246.551 568.464 L254.815 566.797 L259.49 566.797 L259.49 597.422 L267.129 597.422 L267.129 601.357 L247.222 601.357 L247.222 597.422 Z" fill="#000000" fill-rule="nonzero" fill-opacity="1" /><path clip-path="url(#clip160)" d="M286.574 569.876 Q282.963 569.876 281.134 573.441 Q279.328 576.982 279.328 584.112 Q279.328 591.218 281.134 594.783 Q282.963 598.325 286.574 598.325 Q290.208 598.325 292.013 594.783 Q293.842 591.218 293.842 584.112 Q293.842 576.982 292.013 573.441 Q290.208 569.876 286.574 569.876 M286.574 566.172 Q292.384 566.172 295.439 570.779 Q298.518 575.362 298.518 584.112 Q298.518 592.839 295.439 597.445 Q292.384 602.028 286.574 602.028 Q280.763 602.028 277.685 597.445 Q274.629 592.839 274.629 584.112 Q274.629 575.362 277.685 570.779 Q280.763 566.172 286.574 566.172 Z" fill="#000000" fill-rule="nonzero" fill-opacity="1" /><path clip-path="url(#clip160)" d="M308.148 560.612 Q305.439 560.612 303.878 562.06 Q302.336 563.508 302.336 566.047 Q302.336 568.587 303.878 570.035 Q305.439 571.483 308.148 571.483 Q310.856 571.483 312.417 570.035 Q313.978 568.568 313.978 566.047 Q313.978 563.508 312.417 562.06 Q310.875 560.612 308.148 560.612 M304.348 558.995 Q301.903 558.393 300.53 556.719 Q299.176 555.045 299.176 552.638 Q299.176 549.271 301.565 547.315 Q303.972 545.359 308.148 545.359 Q312.342 545.359 314.73 547.315 Q317.119 549.271 317.119 552.638 Q317.119 555.045 315.746 556.719 Q314.392 558.393 311.966 558.995 Q314.711 559.634 316.235 561.496 Q317.777 563.358 317.777 566.047 Q317.777 570.129 315.276 572.31 Q312.793 574.492 308.148 574.492 Q303.502 574.492 301.001 572.31 Q298.518 570.129 298.518 566.047 Q298.518 563.358 300.06 561.496 Q301.602 559.634 304.348 558.995 M302.957 552.995 Q302.957 555.177 304.311 556.399 Q305.684 557.622 308.148 557.622 Q310.593 557.622 311.966 556.399 Q313.357 555.177 313.357 552.995 Q313.357 550.813 311.966 549.591 Q310.593 548.368 308.148 548.368 Q305.684 548.368 304.311 549.591 Q302.957 550.813 302.957 552.995 Z" fill="#000000" fill-rule="nonzero" fill-opacity="1" /><path clip-path="url(#clip160)" d="M113.982 253.496 L102.176 271.945 L113.982 271.945 L113.982 253.496 M112.755 249.422 L118.635 249.422 L118.635 271.945 L123.565 271.945 L123.565 275.834 L118.635 275.834 L118.635 283.982 L113.982 283.982 L113.982 275.834 L98.3802 275.834 L98.3802 271.32 L112.755 249.422 Z" fill="#000000" fill-rule="nonzero" fill-opacity="1" /><path clip-path="url(#clip160)" d="M131.297 278.102 L136.181 278.102 L136.181 283.982 L131.297 283.982 L131.297 278.102 Z" fill="#000000" fill-rule="nonzero" fill-opacity="1" /><path clip-path="url(#clip160)" d="M156.366 252.5 Q152.755 252.5 150.926 256.065 Q149.121 259.607 149.121 266.736 Q149.121 273.843 150.926 277.408 Q152.755 280.949 156.366 280.949 Q160 280.949 161.806 277.408 Q163.634 273.843 163.634 266.736 Q163.634 259.607 161.806 256.065 Q160 252.5 156.366 252.5 M156.366 248.797 Q162.176 248.797 165.232 253.403 Q168.31 257.986 168.31 266.736 Q168.31 275.463 165.232 280.07 Q162.176 284.653 156.366 284.653 Q150.556 284.653 147.477 280.07 Q144.422 275.463 144.422 266.736 Q144.422 257.986 147.477 253.403 Q150.556 248.797 156.366 248.797 Z" fill="#000000" fill-rule="nonzero" fill-opacity="1" /><path clip-path="url(#clip160)" d="M186.528 252.5 Q182.917 252.5 181.088 256.065 Q179.283 259.607 179.283 266.736 Q179.283 273.843 181.088 277.408 Q182.917 280.949 186.528 280.949 Q190.162 280.949 191.968 277.408 Q193.796 273.843 193.796 266.736 Q193.796 259.607 191.968 256.065 Q190.162 252.5 186.528 252.5 M186.528 248.797 Q192.338 248.797 195.394 253.403 Q198.472 257.986 198.472 266.736 Q198.472 275.463 195.394 280.07 Q192.338 284.653 186.528 284.653 Q180.718 284.653 177.639 280.07 Q174.583 275.463 174.583 266.736 Q174.583 257.986 177.639 253.403 Q180.718 248.797 186.528 248.797 Z" fill="#000000" fill-rule="nonzero" fill-opacity="1" /><path clip-path="url(#clip160)" d="M234.861 258.519 L224.282 269.144 L234.861 279.722 L232.106 282.523 L221.481 271.898 L210.856 282.523 L208.125 279.722 L218.68 269.144 L208.125 258.519 L210.856 255.718 L221.481 266.343 L232.106 255.718 L234.861 258.519 Z" fill="#000000" fill-rule="nonzero" fill-opacity="1" /><path clip-path="url(#clip160)" d="M247.222 280.046 L254.861 280.046 L254.861 253.681 L246.551 255.348 L246.551 251.088 L254.815 249.422 L259.49 249.422 L259.49 280.046 L267.129 280.046 L267.129 283.982 L247.222 283.982 L247.222 280.046 Z" fill="#000000" fill-rule="nonzero" fill-opacity="1" /><path clip-path="url(#clip160)" d="M286.574 252.5 Q282.963 252.5 281.134 256.065 Q279.328 259.607 279.328 266.736 Q279.328 273.843 281.134 277.408 Q282.963 280.949 286.574 280.949 Q290.208 280.949 292.013 277.408 Q293.842 273.843 293.842 266.736 Q293.842 259.607 292.013 256.065 Q290.208 252.5 286.574 252.5 M286.574 248.797 Q292.384 248.797 295.439 253.403 Q298.518 257.986 298.518 266.736 Q298.518 275.463 295.439 280.07 Q292.384 284.653 286.574 284.653 Q280.763 284.653 277.685 280.07 Q274.629 275.463 274.629 266.736 Q274.629 257.986 277.685 253.403 Q280.763 248.797 286.574 248.797 Z" fill="#000000" fill-rule="nonzero" fill-opacity="1" /><path clip-path="url(#clip160)" d="M308.148 243.237 Q305.439 243.237 303.878 244.685 Q302.336 246.133 302.336 248.672 Q302.336 251.211 303.878 252.659 Q305.439 254.107 308.148 254.107 Q310.856 254.107 312.417 252.659 Q313.978 251.192 313.978 248.672 Q313.978 246.133 312.417 244.685 Q310.875 243.237 308.148 243.237 M304.348 241.619 Q301.903 241.017 300.53 239.343 Q299.176 237.669 299.176 235.262 Q299.176 231.895 301.565 229.939 Q303.972 227.983 308.148 227.983 Q312.342 227.983 314.73 229.939 Q317.119 231.895 317.119 235.262 Q317.119 237.669 315.746 239.343 Q314.392 241.017 311.966 241.619 Q314.711 242.259 316.235 244.12 Q317.777 245.982 317.777 248.672 Q317.777 252.753 315.276 254.935 Q312.793 257.117 308.148 257.117 Q303.502 257.117 301.001 254.935 Q298.518 252.753 298.518 248.672 Q298.518 245.982 300.06 244.12 Q301.602 242.259 304.348 241.619 M302.957 235.619 Q302.957 237.801 304.311 239.024 Q305.684 240.246 308.148 240.246 Q310.593 240.246 311.966 239.024 Q313.357 237.801 313.357 235.619 Q313.357 233.438 311.966 232.215 Q310.593 230.993 308.148 230.993 Q305.684 230.993 304.311 232.215 Q302.957 233.438 302.957 235.619 Z" fill="#000000" fill-rule="nonzero" fill-opacity="1" /><path clip-path="url(#clip160)" d="M-9.64527 840.632 L0.4762 840.632 L0.4762 828.569 L5.02768 828.569 L5.02768 840.632 L24.3794 840.632 Q28.7399 840.632 29.9813 839.454 Q31.2226 838.245 31.2226 834.584 L31.2226 828.569 L36.1242 828.569 L36.1242 834.584 Q36.1242 841.364 33.6097 843.942 Q31.0634 846.52 24.3794 846.52 L5.02768 846.52 L5.02768 850.817 L0.4762 850.817 L0.4762 846.52 L-9.64527 846.52 L-9.64527 840.632 Z" fill="#000000" fill-rule="nonzero" fill-opacity="1" /><path clip-path="url(#clip160)" d="M-11.3958 789.738 L-11.3958 784.327 L42.1716 800.878 L42.1716 806.289 L-11.3958 789.738 Z" fill="#000000" fill-rule="nonzero" fill-opacity="1" /><path clip-path="url(#clip160)" d="M14.6081 727.831 L36.1242 727.831 L36.1242 733.688 L14.799 733.688 Q9.7383 733.688 7.22385 735.661 Q4.7094 737.635 4.7094 741.581 Q4.7094 746.324 7.73311 749.061 Q10.7568 751.798 15.9767 751.798 L36.1242 751.798 L36.1242 757.687 L0.4762 757.687 L0.4762 751.798 L6.01437 751.798 Q2.79968 749.698 1.20826 746.865 Q-0.38317 744 -0.38317 740.276 Q-0.38317 734.133 3.43625 730.982 Q7.22385 727.831 14.6081 727.831 Z" fill="#000000" fill-rule="nonzero" fill-opacity="1" /><path clip-path="url(#clip160)" d="M1.52654 693.425 L7.06471 693.425 Q5.79157 695.907 5.15499 698.581 Q4.51842 701.255 4.51842 704.119 Q4.51842 708.48 5.85522 710.676 Q7.19202 712.84 9.86562 712.84 Q11.9026 712.84 13.0803 711.281 Q14.2261 709.721 15.2765 705.01 L15.7221 703.005 Q17.0589 696.767 19.5097 694.157 Q21.9286 691.515 26.2891 691.515 Q31.2544 691.515 34.1508 695.462 Q37.0472 699.377 37.0472 706.252 Q37.0472 709.116 36.4743 712.235 Q35.9332 715.323 34.8192 718.76 L28.7718 718.76 Q30.4587 715.514 31.318 712.363 Q32.1456 709.212 32.1456 706.124 Q32.1456 701.987 30.7451 699.759 Q29.3129 697.531 26.7347 697.531 Q24.3476 697.531 23.0745 699.154 Q21.8013 700.745 20.6237 706.188 L20.1462 708.225 Q19.0004 713.668 16.6451 716.087 Q14.258 718.506 10.1202 718.506 Q5.09134 718.506 2.35408 714.941 Q-0.38317 711.376 -0.38317 704.819 Q-0.38317 701.573 0.0942579 698.708 Q0.571686 695.844 1.52654 693.425 Z" fill="#000000" fill-rule="nonzero" fill-opacity="1" /><path clip-path="url(#clip162)" d="M1104.09 1454.11 L1127.58 1451.17 L1151.45 1448.22 L1175.52 1445.28 L1199.63 1442.33 L1223.66 1439.39 L1247.44 1436.44 L1270.75 1433.49 L1293.28 1430.55 L1314.68 1427.6 L1334.51 1424.66 L1352.31 1421.71 L1367.69 1418.77 L1380.29 1415.82 L1389.9 1412.88 L1396.44 1409.93 L1399.99 1406.99 L1400.74 1404.04 L1398.95 1401.1 L1394.93 1398.15 L1388.98 1395.21 L1381.29 1392.26 L1371.97 1389.32 L1361.03 1386.37 L1348.31 1383.43 L1333.63 1380.48 L1316.72 1377.54 L1297.38 1374.59 L1275.49 1371.65 L1251.11 1368.7 L1224.49 1365.76 L1196.12 1362.81 L1166.69 1359.86 L1137.07 1356.92 L1108.19 1353.97 L1081.04 1351.03 L1056.48 1348.08 L1035.25 1345.14 L1017.87 1342.19 L1004.63 1339.25 L995.527 1336.3 L990.358 1333.36 L988.685 1330.41 L989.904 1327.47 L993.287 1324.52 L998.038 1321.58 L1003.35 1318.63 L1008.45 1315.69 L1012.66 1312.74 L1015.44 1309.8 L1016.41 1306.85 L1015.36 1303.91 L1012.3 1300.96 L1007.38 1298.02 L1000.91 1295.07 L993.295 1292.13 L985.019 1289.18 L976.569 1286.23 L968.413 1283.29 L960.962 1280.34 L954.553 1277.4 L949.436 1274.45 L945.771 1271.51 L943.631 1268.56 L943.008 1265.62 L943.818 1262.67 L945.905 1259.73 L949.043 1256.78 L952.947 1253.84 L957.278 1250.89 L961.664 1247.95 L965.723 1245 L969.092 1242.06 L971.463 1239.11 L972.612 1236.17 L972.423 1233.22 L970.896 1230.28 L968.146 1227.33 L964.385 1224.39 L959.891 1221.44 L954.975 1218.5 L949.943 1215.55 L945.066 1212.6 L940.56 1209.66 L936.571 1206.71 L933.178 1203.77 L930.399 1200.82 L928.201 1197.88 L926.523 1194.93 L925.283 1191.99 L924.397 1189.04 L923.784 1186.1 L923.372 1183.15 L923.105 1180.21 L922.936 1177.26 L922.833 1174.32 L922.772 1171.37 L922.737 1168.43 L922.717 1165.48 L922.706 1162.54 L922.7 1159.59 L922.698 1156.65 L922.696 1153.7 L922.695 1150.76 L922.695 1147.81 L922.695 1144.86 L922.695 1141.92 L922.695 1138.97 L922.695 1136.03 L922.695 1133.08 L922.695 1130.14 L922.695 1127.19 L922.695 1124.25 L922.695 1121.3 L922.695 1118.36 L922.695 1115.41 L922.695 1112.47 L922.695 1109.52 L922.695 1106.58 L922.695 1103.63 L922.695 1100.69 L922.695 1097.74 L922.695 1094.8 L922.696 1091.85 L922.697 1088.91 L922.699 1085.96 L922.703 1083.02 L922.71 1080.07 L922.725 1077.13 L922.751 1074.18 L922.798 1071.23 L922.878 1068.29 L923.01 1065.34 L923.225 1062.4 L923.559 1059.45 L924.067 1056.51 L924.812 1053.56 L925.873 1050.62 L927.334 1047.67 L929.28 1044.73 L931.785 1041.78 L934.898 1038.84 L938.627 1035.89 L942.924 1032.95 L947.673 1030 L952.688 1027.06 L957.72 1024.11 L962.471 1021.17 L966.625 1018.22 L969.878 1015.28 L971.979 1012.33 L972.758 1009.39 L872.632 1009.39 L873.411 1012.33 L875.512 1015.28 L878.765 1018.22 L882.919 1021.17 L887.67 1024.11 L892.702 1027.06 L897.717 1030 L902.466 1032.95 L906.762 1035.89 L910.491 1038.84 L913.605 1041.78 L916.11 1044.73 L918.056 1047.67 L919.517 1050.62 L920.577 1053.56 L921.323 1056.51 L921.83 1059.45 L922.165 1062.4 L922.379 1065.34 L922.512 1068.29 L922.592 1071.23 L922.638 1074.18 L922.665 1077.13 L922.679 1080.07 L922.687 1083.02 L922.691 1085.96 L922.693 1088.91 L922.694 1091.85 L922.694 1094.8 L922.695 1097.74 L922.695 1100.69 L922.695 1103.63 L922.695 1106.58 L922.695 1109.52 L922.695 1112.47 L922.695 1115.41 L922.695 1118.36 L922.695 1121.3 L922.695 1124.25 L922.695 1127.19 L922.695 1130.14 L922.695 1133.08 L922.695 1136.03 L922.695 1138.97 L922.695 1141.92 L922.695 1144.86 L922.695 1147.81 L922.694 1150.76 L922.694 1153.7 L922.692 1156.65 L922.689 1159.59 L922.684 1162.54 L922.673 1165.48 L922.653 1168.43 L922.618 1171.37 L922.557 1174.32 L922.453 1177.26 L922.285 1180.21 L922.017 1183.15 L921.606 1186.1 L920.993 1189.04 L920.107 1191.99 L918.867 1194.93 L917.189 1197.88 L914.991 1200.82 L912.211 1203.77 L908.818 1206.71 L904.83 1209.66 L900.323 1212.6 L895.447 1215.55 L890.414 1218.5 L885.498 1221.44 L881.004 1224.39 L877.243 1227.33 L874.494 1230.28 L872.967 1233.22 L872.777 1236.17 L873.927 1239.11 L876.298 1242.06 L879.667 1245 L883.725 1247.95 L888.111 1250.89 L892.443 1253.84 L896.347 1256.78 L899.485 1259.73 L901.572 1262.67 L902.382 1265.62 L901.759 1268.56 L899.618 1271.51 L895.953 1274.45 L890.836 1277.4 L884.428 1280.34 L876.977 1283.29 L868.821 1286.23 L860.37 1289.18 L852.094 1292.13 L844.483 1295.07 L838.01 1298.02 L833.089 1300.96 L830.026 1303.91 L828.983 1306.85 L829.949 1309.8 L832.729 1312.74 L836.941 1315.69 L842.041 1318.63 L847.352 1321.58 L852.103 1324.52 L855.486 1327.47 L856.705 1330.41 L855.032 1333.36 L849.863 1336.3 L840.764 1339.25 L827.515 1342.19 L810.138 1345.14 L788.911 1348.08 L764.352 1351.03 L737.195 1353.97 L708.323 1356.92 L678.698 1359.86 L649.271 1362.81 L620.902 1365.76 L594.283 1368.7 L569.901 1371.65 L548.013 1374.59 L528.671 1377.54 L511.763 1380.48 L497.075 1383.43 L484.363 1386.37 L473.415 1389.32 L464.103 1392.26 L456.415 1395.21 L450.456 1398.15 L446.442 1401.1 L444.654 1404.04 L445.398 1406.99 L448.947 1409.93 L455.493 1412.88 L465.103 1415.82 L477.703 1418.77 L493.076 1421.71 L510.884 1424.66 L530.71 1427.6 L552.106 1430.55 L574.644 1433.49 L597.949 1436.44 L621.727 1439.39 L645.756 1442.33 L669.872 1445.28 L693.938 1448.22 L717.808 1451.17 L741.302 1454.11 L1104.09 1454.11  Z" fill="#009af9" fill-rule="evenodd" fill-opacity="1"/>
<polyline clip-path="url(#clip162)" style="stroke:#000000; stroke-linecap:round; stroke-linejoin:round; stroke-width:4; stroke-opacity:1; fill:none" points="1104.09,1454.11 1127.58,1451.17 1151.45,1448.22 1175.52,1445.28 1199.63,1442.33 1223.66,1439.39 1247.44,1436.44 1270.75,1433.49 1293.28,1430.55 1314.68,1427.6 1334.51,1424.66 1352.31,1421.71 1367.69,1418.77 1380.29,1415.82 1389.9,1412.88 1396.44,1409.93 1399.99,1406.99 1400.74,1404.04 1398.95,1401.1 1394.93,1398.15 1388.98,1395.21 1381.29,1392.26 1371.97,1389.32 1361.03,1386.37 1348.31,1383.43 1333.63,1380.48 1316.72,1377.54 1297.38,1374.59 1275.49,1371.65 1251.11,1368.7 1224.49,1365.76 1196.12,1362.81 1166.69,1359.86 1137.07,1356.92 1108.19,1353.97 1081.04,1351.03 1056.48,1348.08 1035.25,1345.14 1017.87,1342.19 1004.63,1339.25 995.527,1336.3 990.358,1333.36 988.685,1330.41 989.904,1327.47 993.287,1324.52 998.038,1321.58 1003.35,1318.63 1008.45,1315.69 1012.66,1312.74 1015.44,1309.8 1016.41,1306.85 1015.36,1303.91 1012.3,1300.96 1007.38,1298.02 1000.91,1295.07 993.295,1292.13 985.019,1289.18 976.569,1286.23 968.413,1283.29 960.962,1280.34 954.553,1277.4 949.436,1274.45 945.771,1271.51 943.631,1268.56 943.008,1265.62 943.818,1262.67 945.905,1259.73 949.043,1256.78 952.947,1253.84 957.278,1250.89 961.664,1247.95 965.723,1245 969.092,1242.06 971.463,1239.11 972.612,1236.17 972.423,1233.22 970.896,1230.28 968.146,1227.33 964.385,1224.39 959.891,1221.44 954.975,1218.5 949.943,1215.55 945.066,1212.6 940.56,1209.66 936.571,1206.71 933.178,1203.77 930.399,1200.82 928.201,1197.88 926.523,1194.93 925.283,1191.99 924.397,1189.04 923.784,1186.1 923.372,1183.15 923.105,1180.21 922.936,1177.26 922.833,1174.32 922.772,1171.37 922.737,1168.43 922.717,1165.48 922.706,1162.54 922.7,1159.59 922.698,1156.65 922.696,1153.7 922.695,1150.76 922.695,1147.81 922.695,1144.86 922.695,1141.92 922.695,1138.97 922.695,1136.03 922.695,1133.08 922.695,1130.14 922.695,1127.19 922.695,1124.25 922.695,1121.3 922.695,1118.36 922.695,1115.41 922.695,1112.47 922.695,1109.52 922.695,1106.58 922.695,1103.63 922.695,1100.69 922.695,1097.74 922.695,1094.8 922.696,1091.85 922.697,1088.91 922.699,1085.96 922.703,1083.02 922.71,1080.07 922.725,1077.13 922.751,1074.18 922.798,1071.23 922.878,1068.29 923.01,1065.34 923.225,1062.4 923.559,1059.45 924.067,1056.51 924.812,1053.56 925.873,1050.62 927.334,1047.67 929.28,1044.73 931.785,1041.78 934.898,1038.84 938.627,1035.89 942.924,1032.95 947.673,1030 952.688,1027.06 957.72,1024.11 962.471,1021.17 966.625,1018.22 969.878,1015.28 971.979,1012.33 972.758,1009.39 872.632,1009.39 873.411,1012.33 875.512,1015.28 878.765,1018.22 882.919,1021.17 887.67,1024.11 892.702,1027.06 897.717,1030 902.466,1032.95 906.762,1035.89 910.491,1038.84 913.605,1041.78 916.11,1044.73 918.056,1047.67 919.517,1050.62 920.577,1053.56 921.323,1056.51 921.83,1059.45 922.165,1062.4 922.379,1065.34 922.512,1068.29 922.592,1071.23 922.638,1074.18 922.665,1077.13 922.679,1080.07 922.687,1083.02 922.691,1085.96 922.693,1088.91 922.694,1091.85 922.694,1094.8 922.695,1097.74 922.695,1100.69 922.695,1103.63 922.695,1106.58 922.695,1109.52 922.695,1112.47 922.695,1115.41 922.695,1118.36 922.695,1121.3 922.695,1124.25 922.695,1127.19 922.695,1130.14 922.695,1133.08 922.695,1136.03 922.695,1138.97 922.695,1141.92 922.695,1144.86 922.695,1147.81 922.694,1150.76 922.694,1153.7 922.692,1156.65 922.689,1159.59 922.684,1162.54 922.673,1165.48 922.653,1168.43 922.618,1171.37 922.557,1174.32 922.453,1177.26 922.285,1180.21 922.017,1183.15 921.606,1186.1 920.993,1189.04 920.107,1191.99 918.867,1194.93 917.189,1197.88 914.991,1200.82 912.211,1203.77 908.818,1206.71 904.83,1209.66 900.323,1212.6 895.447,1215.55 890.414,1218.5 885.498,1221.44 881.004,1224.39 877.243,1227.33 874.494,1230.28 872.967,1233.22 872.777,1236.17 873.927,1239.11 876.298,1242.06 879.667,1245 883.725,1247.95 888.111,1250.89 892.443,1253.84 896.347,1256.78 899.485,1259.73 901.572,1262.67 902.382,1265.62 901.759,1268.56 899.618,1271.51 895.953,1274.45 890.836,1277.4 884.428,1280.34 876.977,1283.29 868.821,1286.23 860.37,1289.18 852.094,1292.13 844.483,1295.07 838.01,1298.02 833.089,1300.96 830.026,1303.91 828.983,1306.85 829.949,1309.8 832.729,1312.74 836.941,1315.69 842.041,1318.63 847.352,1321.58 852.103,1324.52 855.486,1327.47 856.705,1330.41 855.032,1333.36 849.863,1336.3 840.764,1339.25 827.515,1342.19 810.138,1345.14 788.911,1348.08 764.352,1351.03 737.195,1353.97 708.323,1356.92 678.698,1359.86 649.271,1362.81 620.902,1365.76 594.283,1368.7 569.901,1371.65 548.013,1374.59 528.671,1377.54 511.763,1380.48 497.075,1383.43 484.363,1386.37 473.415,1389.32 464.103,1392.26 456.415,1395.21 450.456,1398.15 446.442,1401.1 444.654,1404.04 445.398,1406.99 448.947,1409.93 455.493,1412.88 465.103,1415.82 477.703,1418.77 493.076,1421.71 510.884,1424.66 530.71,1427.6 552.106,1430.55 574.644,1433.49 597.949,1436.44 621.727,1439.39 645.756,1442.33 669.872,1445.28 693.938,1448.22 717.808,1451.17 741.302,1454.11 1104.09,1454.11 "/>
<path clip-path="url(#clip162)" d="M2674.71 168.247 L2675.63 167.607 L2676.01 166.967 L2675.93 166.327 L2675.48 165.687 L2674.78 165.046 L2673.95 164.406 L2673.12 163.766 L2672.39 163.126 L2671.84 162.486 L2671.55 161.845 L2671.55 161.205 L2671.83 160.565 L2672.36 159.925 L2673.09 159.284 L2673.92 158.644 L2674.75 158.004 L2675.45 157.364 L2675.91 156.724 L2676.01 156.083 L2675.65 155.443 L2674.76 154.803 L2673.27 154.163 L2671.17 153.523 L2668.46 152.882 L2665.18 152.242 L2661.4 151.602 L2657.21 150.962 L2652.7 150.321 L2648.01 149.681 L2643.25 149.041 L2638.55 148.401 L2634.02 147.761 L2629.78 147.12 L2625.92 146.48 L2622.53 145.84 L2619.68 145.2 L2617.42 144.56 L2615.8 143.919 L2614.85 143.279 L2614.58 142.639 L2615 141.999 L2616.1 141.358 L2617.85 140.718 L2620.23 140.078 L2623.18 139.438 L2626.65 138.798 L2630.56 138.157 L2634.81 137.517 L2639.3 136.877 L2643.9 136.237 L2648.49 135.597 L2652.94 134.956 L2657.09 134.316 L2660.81 133.676 L2663.99 133.036 L2666.5 132.396 L2668.27 131.755 L2669.22 131.115 L2669.32 130.475 L2668.57 129.835 L2666.99 129.194 L2664.65 128.554 L2661.61 127.914 L2657.98 127.274 L2653.89 126.634 L2649.47 125.993 L2644.84 125.353 L2640.15 124.713 L2635.54 124.073 L2631.11 123.433 L2627 122.792 L2623.3 122.152 L2620.11 121.512 L2617.51 120.872 L2615.58 120.231 L2614.41 119.591 L2614.06 118.951 L2614.62 118.311 L2616.18 117.671 L2618.82 117.03 L2622.66 116.39 L2627.81 115.75 L2634.36 115.11 L2642.43 114.47 L2652.14 113.829 L2663.55 113.189 L2676.76 112.549 L2691.79 111.909 L2708.66 111.268 L2727.32 110.628 L2747.7 109.988 L2769.64 109.348 L2792.95 108.708 L2817.4 108.067 L2842.66 107.427 L2868.41 106.787 L2894.25 106.147 L2919.77 105.507 L2944.56 104.866 L2968.17 104.226 L2990.21 103.586 L3010.27 102.946 L3028.01 102.305 L3043.13 101.665 L3055.41 101.025 L3064.68 100.385 L3070.84 99.7446 L3073.88 99.1044 L3073.86 98.4642 L3070.91 97.824 L3065.21 97.1838 L3056.98 96.5436 L3046.51 95.9034 L3034.08 95.2632 L3019.98 94.6229 L3004.52 93.9827 L2987.97 93.3425 L2970.58 92.7023 L2952.58 92.0621 L2934.16 91.4219 L2915.48 90.7817 L2896.67 90.1414 L2877.84 89.5012 L2859.08 88.861 L2840.46 88.2208 L2351.22 88.2208 L2332.6 88.861 L2313.83 89.5012 L2295 90.1414 L2276.2 90.7817 L2257.52 91.4219 L2239.1 92.0621 L2221.1 92.7023 L2203.71 93.3425 L2187.15 93.9827 L2171.69 94.6229 L2157.6 95.2632 L2145.17 95.9034 L2134.69 96.5436 L2126.47 97.1838 L2120.77 97.824 L2117.81 98.4642 L2117.8 99.1044 L2120.84 99.7446 L2127 100.385 L2136.27 101.025 L2148.54 101.665 L2163.67 102.305 L2181.41 102.946 L2201.47 103.586 L2223.5 104.226 L2247.12 104.866 L2271.9 105.507 L2297.43 106.147 L2323.27 106.787 L2349.01 107.427 L2374.28 108.067 L2398.72 108.708 L2422.04 109.348 L2443.98 109.988 L2464.35 110.628 L2483.02 111.268 L2499.88 111.909 L2514.92 112.549 L2528.12 113.189 L2539.54 113.829 L2549.24 114.47 L2557.32 115.11 L2563.87 115.75 L2569.01 116.39 L2572.85 117.03 L2575.5 117.671 L2577.06 118.311 L2577.62 118.951 L2577.27 119.591 L2576.09 120.231 L2574.17 120.872 L2571.57 121.512 L2568.37 122.152 L2564.67 122.792 L2560.56 123.433 L2556.14 124.073 L2551.52 124.713 L2546.84 125.353 L2542.21 125.993 L2537.78 126.634 L2533.69 127.274 L2530.07 127.914 L2527.03 128.554 L2524.68 129.194 L2523.11 129.835 L2522.36 130.475 L2522.46 131.115 L2523.41 131.755 L2525.18 132.396 L2527.69 133.036 L2530.87 133.676 L2534.59 134.316 L2538.74 134.956 L2543.18 135.597 L2547.77 136.237 L2552.38 136.877 L2556.87 137.517 L2561.12 138.157 L2565.03 138.798 L2568.5 139.438 L2571.45 140.078 L2573.83 140.718 L2575.58 141.358 L2576.68 141.999 L2577.09 142.639 L2576.82 143.279 L2575.87 143.919 L2574.25 144.56 L2572 145.2 L2569.15 145.84 L2565.76 146.48 L2561.9 147.12 L2557.66 147.761 L2553.13 148.401 L2548.42 149.041 L2543.66 149.681 L2538.97 150.321 L2534.47 150.962 L2530.28 151.602 L2526.5 152.242 L2523.22 152.882 L2520.51 153.523 L2518.41 154.163 L2516.92 154.803 L2516.02 155.443 L2515.67 156.083 L2515.77 156.724 L2516.23 157.364 L2516.93 158.004 L2517.76 158.644 L2518.59 159.284 L2519.31 159.925 L2519.85 160.565 L2520.13 161.205 L2520.12 161.845 L2519.83 162.486 L2519.29 163.126 L2518.56 163.766 L2517.72 164.406 L2516.9 165.046 L2516.2 165.687 L2515.75 166.327 L2515.66 166.967 L2516.04 167.607 L2516.96 168.247 L2674.71 168.247  Z" fill="#e26f46" fill-rule="evenodd" fill-opacity="1"/>
<polyline clip-path="url(#clip162)" style="stroke:#000000; stroke-linecap:round; stroke-linejoin:round; stroke-width:4; stroke-opacity:1; fill:none" points="2674.71,168.247 2675.63,167.607 2676.01,166.967 2675.93,166.327 2675.48,165.687 2674.78,165.046 2673.95,164.406 2673.12,163.766 2672.39,163.126 2671.84,162.486 2671.55,161.845 2671.55,161.205 2671.83,160.565 2672.36,159.925 2673.09,159.284 2673.92,158.644 2674.75,158.004 2675.45,157.364 2675.91,156.724 2676.01,156.083 2675.65,155.443 2674.76,154.803 2673.27,154.163 2671.17,153.523 2668.46,152.882 2665.18,152.242 2661.4,151.602 2657.21,150.962 2652.7,150.321 2648.01,149.681 2643.25,149.041 2638.55,148.401 2634.02,147.761 2629.78,147.12 2625.92,146.48 2622.53,145.84 2619.68,145.2 2617.42,144.56 2615.8,143.919 2614.85,143.279 2614.58,142.639 2615,141.999 2616.1,141.358 2617.85,140.718 2620.23,140.078 2623.18,139.438 2626.65,138.798 2630.56,138.157 2634.81,137.517 2639.3,136.877 2643.9,136.237 2648.49,135.597 2652.94,134.956 2657.09,134.316 2660.81,133.676 2663.99,133.036 2666.5,132.396 2668.27,131.755 2669.22,131.115 2669.32,130.475 2668.57,129.835 2666.99,129.194 2664.65,128.554 2661.61,127.914 2657.98,127.274 2653.89,126.634 2649.47,125.993 2644.84,125.353 2640.15,124.713 2635.54,124.073 2631.11,123.433 2627,122.792 2623.3,122.152 2620.11,121.512 2617.51,120.872 2615.58,120.231 2614.41,119.591 2614.06,118.951 2614.62,118.311 2616.18,117.671 2618.82,117.03 2622.66,116.39 2627.81,115.75 2634.36,115.11 2642.43,114.47 2652.14,113.829 2663.55,113.189 2676.76,112.549 2691.79,111.909 2708.66,111.268 2727.32,110.628 2747.7,109.988 2769.64,109.348 2792.95,108.708 2817.4,108.067 2842.66,107.427 2868.41,106.787 2894.25,106.147 2919.77,105.507 2944.56,104.866 2968.17,104.226 2990.21,103.586 3010.27,102.946 3028.01,102.305 3043.13,101.665 3055.41,101.025 3064.68,100.385 3070.84,99.7446 3073.88,99.1044 3073.86,98.4642 3070.91,97.824 3065.21,97.1838 3056.98,96.5436 3046.51,95.9034 3034.08,95.2632 3019.98,94.6229 3004.52,93.9827 2987.97,93.3425 2970.58,92.7023 2952.58,92.0621 2934.16,91.4219 2915.48,90.7817 2896.67,90.1414 2877.84,89.5012 2859.08,88.861 2840.46,88.2208 2351.22,88.2208 2332.6,88.861 2313.83,89.5012 2295,90.1414 2276.2,90.7817 2257.52,91.4219 2239.1,92.0621 2221.1,92.7023 2203.71,93.3425 2187.15,93.9827 2171.69,94.6229 2157.6,95.2632 2145.17,95.9034 2134.69,96.5436 2126.47,97.1838 2120.77,97.824 2117.81,98.4642 2117.8,99.1044 2120.84,99.7446 2127,100.385 2136.27,101.025 2148.54,101.665 2163.67,102.305 2181.41,102.946 2201.47,103.586 2223.5,104.226 2247.12,104.866 2271.9,105.507 2297.43,106.147 2323.27,106.787 2349.01,107.427 2374.28,108.067 2398.72,108.708 2422.04,109.348 2443.98,109.988 2464.35,110.628 2483.02,111.268 2499.88,111.909 2514.92,112.549 2528.12,113.189 2539.54,113.829 2549.24,114.47 2557.32,115.11 2563.87,115.75 2569.01,116.39 2572.85,117.03 2575.5,117.671 2577.06,118.311 2577.62,118.951 2577.27,119.591 2576.09,120.231 2574.17,120.872 2571.57,121.512 2568.37,122.152 2564.67,122.792 2560.56,123.433 2556.14,124.073 2551.52,124.713 2546.84,125.353 2542.21,125.993 2537.78,126.634 2533.69,127.274 2530.07,127.914 2527.03,128.554 2524.68,129.194 2523.11,129.835 2522.36,130.475 2522.46,131.115 2523.41,131.755 2525.18,132.396 2527.69,133.036 2530.87,133.676 2534.59,134.316 2538.74,134.956 2543.18,135.597 2547.77,136.237 2552.38,136.877 2556.87,137.517 2561.12,138.157 2565.03,138.798 2568.5,139.438 2571.45,140.078 2573.83,140.718 2575.58,141.358 2576.68,141.999 2577.09,142.639 2576.82,143.279 2575.87,143.919 2574.25,144.56 2572,145.2 2569.15,145.84 2565.76,146.48 2561.9,147.12 2557.66,147.761 2553.13,148.401 2548.42,149.041 2543.66,149.681 2538.97,150.321 2534.47,150.962 2530.28,151.602 2526.5,152.242 2523.22,152.882 2520.51,153.523 2518.41,154.163 2516.92,154.803 2516.02,155.443 2515.67,156.083 2515.77,156.724 2516.23,157.364 2516.93,158.004 2517.76,158.644 2518.59,159.284 2519.31,159.925 2519.85,160.565 2520.13,161.205 2520.12,161.845 2519.83,162.486 2519.29,163.126 2518.56,163.766 2517.72,164.406 2516.9,165.046 2516.2,165.687 2515.75,166.327 2515.66,166.967 2516.04,167.607 2516.96,168.247 2674.71,168.247 "/>
</svg>
