<?xml version="1.0" encoding="utf-8"?>
<svg xmlns="http://www.w3.org/2000/svg" xmlns:xlink="http://www.w3.org/1999/xlink" width="800" height="400" viewBox="0 0 3200 1600">
<defs>
  <clipPath id="clip220">
    <rect x="0" y="0" width="3200" height="1600"/>
  </clipPath>
</defs>
<path clip-path="url(#clip220)" d="M0 1600 L3200 1600 L3200 0 L0 0  Z" fill="#ffffff" fill-rule="evenodd" fill-opacity="1"/>
<defs>
  <clipPath id="clip221">
    <rect x="640" y="0" width="2241" height="1600"/>
  </clipPath>
</defs>
<path clip-path="url(#clip220)" d="M394.497 1495.09 L3152.76 1495.09 L3152.76 47.2441 L394.497 47.2441  Z" fill="#ffffff" fill-rule="evenodd" fill-opacity="1"/>
<defs>
  <clipPath id="clip222">
    <rect x="394" y="47" width="2759" height="1449"/>
  </clipPath>
</defs>
<polyline clip-path="url(#clip222)" style="stroke:#000000; stroke-linecap:round; stroke-linejoin:round; stroke-width:2; stroke-opacity:0.1; fill:none" points="680.731,1495.09 680.731,47.2441 "/>
<polyline clip-path="url(#clip222)" style="stroke:#000000; stroke-linecap:round; stroke-linejoin:round; stroke-width:2; stroke-opacity:0.1; fill:none" points="1409.33,1495.09 1409.33,47.2441 "/>
<polyline clip-path="url(#clip222)" style="stroke:#000000; stroke-linecap:round; stroke-linejoin:round; stroke-width:2; stroke-opacity:0.1; fill:none" points="2137.92,1495.09 2137.92,47.2441 "/>
<polyline clip-path="url(#clip222)" style="stroke:#000000; stroke-linecap:round; stroke-linejoin:round; stroke-width:2; stroke-opacity:0.1; fill:none" points="2866.52,1495.09 2866.52,47.2441 "/>
<polyline clip-path="url(#clip222)" style="stroke:#000000; stroke-linecap:round; stroke-linejoin:round; stroke-width:2; stroke-opacity:0.1; fill:none" points="394.497,1221.59 3152.76,1221.59 "/>
<polyline clip-path="url(#clip222)" style="stroke:#000000; stroke-linecap:round; stroke-linejoin:round; stroke-width:2; stroke-opacity:0.1; fill:none" points="394.497,917.021 3152.76,917.021 "/>
<polyline clip-path="url(#clip222)" style="stroke:#000000; stroke-linecap:round; stroke-linejoin:round; stroke-width:2; stroke-opacity:0.1; fill:none" points="394.497,612.454 3152.76,612.454 "/>
<polyline clip-path="url(#clip222)" style="stroke:#000000; stroke-linecap:round; stroke-linejoin:round; stroke-width:2; stroke-opacity:0.1; fill:none" points="394.497,307.887 3152.76,307.887 "/>
<polyline clip-path="url(#clip220)" style="stroke:#000000; stroke-linecap:round; stroke-linejoin:round; stroke-width:4; stroke-opacity:1; fill:none" points="394.497,1495.09 3152.76,1495.09 "/>
<polyline clip-path="url(#clip220)" style="stroke:#000000; stroke-linecap:round; stroke-linejoin:round; stroke-width:4; stroke-opacity:1; fill:none" points="680.731,1495.09 680.731,1476.19 "/>
<polyline clip-path="url(#clip220)" style="stroke:#000000; stroke-linecap:round; stroke-linejoin:round; stroke-width:4; stroke-opacity:1; fill:none" points="1409.33,1495.09 1409.33,1476.19 "/>
<polyline clip-path="url(#clip220)" style="stroke:#000000; stroke-linecap:round; stroke-linejoin:round; stroke-width:4; stroke-opacity:1; fill:none" points="2137.92,1495.09 2137.92,1476.19 "/>
<polyline clip-path="url(#clip220)" style="stroke:#000000; stroke-linecap:round; stroke-linejoin:round; stroke-width:4; stroke-opacity:1; fill:none" points="2866.52,1495.09 2866.52,1476.19 "/>
<path clip-path="url(#clip220)" d="M614.609 1547.68 Q616.113 1548.19 617.525 1549.86 Q618.961 1551.53 620.396 1554.44 L625.141 1563.89 L620.118 1563.89 L615.697 1555.02 Q613.984 1551.55 612.363 1550.42 Q610.766 1549.28 607.988 1549.28 L602.896 1549.28 L602.896 1563.89 L598.22 1563.89 L598.22 1529.33 L608.775 1529.33 Q614.701 1529.33 617.618 1531.8 Q620.535 1534.28 620.535 1539.28 Q620.535 1542.55 619.007 1544.7 Q617.502 1546.85 614.609 1547.68 M602.896 1533.17 L602.896 1545.44 L608.775 1545.44 Q612.155 1545.44 613.868 1543.89 Q615.604 1542.31 615.604 1539.28 Q615.604 1536.25 613.868 1534.72 Q612.155 1533.17 608.775 1533.17 L602.896 1533.17 Z" fill="#000000" fill-rule="nonzero" fill-opacity="1" /><path clip-path="url(#clip220)" d="M638.891 1540.95 Q635.465 1540.95 633.474 1543.63 Q631.484 1546.3 631.484 1550.95 Q631.484 1555.6 633.451 1558.29 Q635.442 1560.95 638.891 1560.95 Q642.294 1560.95 644.284 1558.26 Q646.275 1555.58 646.275 1550.95 Q646.275 1546.34 644.284 1543.66 Q642.294 1540.95 638.891 1540.95 M638.891 1537.34 Q644.447 1537.34 647.618 1540.95 Q650.789 1544.56 650.789 1550.95 Q650.789 1557.31 647.618 1560.95 Q644.447 1564.56 638.891 1564.56 Q633.312 1564.56 630.141 1560.95 Q626.993 1557.31 626.993 1550.95 Q626.993 1544.56 630.141 1540.95 Q633.312 1537.34 638.891 1537.34 Z" fill="#000000" fill-rule="nonzero" fill-opacity="1" /><path clip-path="url(#clip220)" d="M674.909 1541.9 L674.909 1527.87 L679.169 1527.87 L679.169 1563.89 L674.909 1563.89 L674.909 1560 Q673.567 1562.31 671.507 1563.45 Q669.47 1564.56 666.599 1564.56 Q661.9 1564.56 658.937 1560.81 Q655.997 1557.06 655.997 1550.95 Q655.997 1544.84 658.937 1541.09 Q661.9 1537.34 666.599 1537.34 Q669.47 1537.34 671.507 1538.47 Q673.567 1539.58 674.909 1541.9 M660.396 1550.95 Q660.396 1555.65 662.317 1558.33 Q664.261 1560.99 667.641 1560.99 Q671.02 1560.99 672.965 1558.33 Q674.909 1555.65 674.909 1550.95 Q674.909 1546.25 672.965 1543.59 Q671.02 1540.9 667.641 1540.9 Q664.261 1540.9 662.317 1543.59 Q660.396 1546.25 660.396 1550.95 Z" fill="#000000" fill-rule="nonzero" fill-opacity="1" /><path clip-path="url(#clip220)" d="M699.724 1550.86 Q694.562 1550.86 692.571 1552.04 Q690.581 1553.22 690.581 1556.06 Q690.581 1558.33 692.062 1559.67 Q693.567 1560.99 696.136 1560.99 Q699.678 1560.99 701.807 1558.49 Q703.96 1555.97 703.96 1551.8 L703.96 1550.86 L699.724 1550.86 M708.219 1549.1 L708.219 1563.89 L703.96 1563.89 L703.96 1559.95 Q702.502 1562.31 700.326 1563.45 Q698.15 1564.56 695.002 1564.56 Q691.02 1564.56 688.659 1562.34 Q686.321 1560.09 686.321 1556.34 Q686.321 1551.97 689.238 1549.74 Q692.178 1547.52 697.988 1547.52 L703.96 1547.52 L703.96 1547.11 Q703.96 1544.17 702.016 1542.57 Q700.094 1540.95 696.599 1540.95 Q694.377 1540.95 692.27 1541.48 Q690.164 1542.01 688.219 1543.08 L688.219 1539.14 Q690.557 1538.24 692.756 1537.8 Q694.956 1537.34 697.039 1537.34 Q702.664 1537.34 705.442 1540.25 Q708.219 1543.17 708.219 1549.1 Z" fill="#000000" fill-rule="nonzero" fill-opacity="1" /><path clip-path="url(#clip220)" d="M733.52 1538.73 L733.52 1542.75 Q731.715 1541.83 729.77 1541.36 Q727.826 1540.9 725.742 1540.9 Q722.571 1540.9 720.974 1541.87 Q719.4 1542.85 719.4 1544.79 Q719.4 1546.27 720.534 1547.13 Q721.668 1547.96 725.094 1548.73 L726.553 1549.05 Q731.09 1550.02 732.988 1551.8 Q734.909 1553.56 734.909 1556.74 Q734.909 1560.35 732.039 1562.45 Q729.191 1564.56 724.191 1564.56 Q722.108 1564.56 719.84 1564.14 Q717.594 1563.75 715.094 1562.94 L715.094 1558.54 Q717.455 1559.77 719.747 1560.39 Q722.039 1560.99 724.284 1560.99 Q727.293 1560.99 728.914 1559.98 Q730.534 1558.93 730.534 1557.06 Q730.534 1555.32 729.353 1554.4 Q728.196 1553.47 724.238 1552.61 L722.756 1552.27 Q718.798 1551.43 717.039 1549.72 Q715.279 1547.99 715.279 1544.98 Q715.279 1541.32 717.872 1539.33 Q720.465 1537.34 725.233 1537.34 Q727.594 1537.34 729.678 1537.68 Q731.761 1538.03 733.52 1538.73 Z" fill="#000000" fill-rule="nonzero" fill-opacity="1" /><path clip-path="url(#clip220)" d="M742.34 1529.33 L760.696 1529.33 L760.696 1533.26 L746.622 1533.26 L746.622 1541.74 Q747.64 1541.39 748.659 1541.23 Q749.677 1541.04 750.696 1541.04 Q756.483 1541.04 759.863 1544.21 Q763.242 1547.38 763.242 1552.8 Q763.242 1558.38 759.77 1561.48 Q756.298 1564.56 749.978 1564.56 Q747.802 1564.56 745.534 1564.19 Q743.289 1563.82 740.881 1563.08 L740.881 1558.38 Q742.965 1559.51 745.187 1560.07 Q747.409 1560.62 749.886 1560.62 Q753.89 1560.62 756.228 1558.52 Q758.566 1556.41 758.566 1552.8 Q758.566 1549.19 756.228 1547.08 Q753.89 1544.98 749.886 1544.98 Q748.011 1544.98 746.136 1545.39 Q744.284 1545.81 742.34 1546.69 L742.34 1529.33 Z" fill="#000000" fill-rule="nonzero" fill-opacity="1" /><path clip-path="url(#clip220)" d="M1342.46 1547.68 Q1343.97 1548.19 1345.38 1549.86 Q1346.82 1551.53 1348.25 1554.44 L1353 1563.89 L1347.97 1563.89 L1343.55 1555.02 Q1341.84 1551.55 1340.22 1550.42 Q1338.62 1549.28 1335.84 1549.28 L1330.75 1549.28 L1330.75 1563.89 L1326.08 1563.89 L1326.08 1529.33 L1336.63 1529.33 Q1342.56 1529.33 1345.47 1531.8 Q1348.39 1534.28 1348.39 1539.28 Q1348.39 1542.55 1346.86 1544.7 Q1345.36 1546.85 1342.46 1547.68 M1330.75 1533.17 L1330.75 1545.44 L1336.63 1545.44 Q1340.01 1545.44 1341.72 1543.89 Q1343.46 1542.31 1343.46 1539.28 Q1343.46 1536.25 1341.72 1534.72 Q1340.01 1533.17 1336.63 1533.17 L1330.75 1533.17 Z" fill="#000000" fill-rule="nonzero" fill-opacity="1" /><path clip-path="url(#clip220)" d="M1366.75 1540.95 Q1363.32 1540.95 1361.33 1543.63 Q1359.34 1546.3 1359.34 1550.95 Q1359.34 1555.6 1361.31 1558.29 Q1363.3 1560.95 1366.75 1560.95 Q1370.15 1560.95 1372.14 1558.26 Q1374.13 1555.58 1374.13 1550.95 Q1374.13 1546.34 1372.14 1543.66 Q1370.15 1540.95 1366.75 1540.95 M1366.75 1537.34 Q1372.3 1537.34 1375.47 1540.95 Q1378.65 1544.56 1378.65 1550.95 Q1378.65 1557.31 1375.47 1560.95 Q1372.3 1564.56 1366.75 1564.56 Q1361.17 1564.56 1358 1560.95 Q1354.85 1557.31 1354.85 1550.95 Q1354.85 1544.56 1358 1540.95 Q1361.17 1537.34 1366.75 1537.34 Z" fill="#000000" fill-rule="nonzero" fill-opacity="1" /><path clip-path="url(#clip220)" d="M1402.77 1541.9 L1402.77 1527.87 L1407.02 1527.87 L1407.02 1563.89 L1402.77 1563.89 L1402.77 1560 Q1401.42 1562.31 1399.36 1563.45 Q1397.33 1564.56 1394.46 1564.56 Q1389.76 1564.56 1386.79 1560.81 Q1383.85 1557.06 1383.85 1550.95 Q1383.85 1544.84 1386.79 1541.09 Q1389.76 1537.34 1394.46 1537.34 Q1397.33 1537.34 1399.36 1538.47 Q1401.42 1539.58 1402.77 1541.9 M1388.25 1550.95 Q1388.25 1555.65 1390.17 1558.33 Q1392.12 1560.99 1395.5 1560.99 Q1398.88 1560.99 1400.82 1558.33 Q1402.77 1555.65 1402.77 1550.95 Q1402.77 1546.25 1400.82 1543.59 Q1398.88 1540.9 1395.5 1540.9 Q1392.12 1540.9 1390.17 1543.59 Q1388.25 1546.25 1388.25 1550.95 Z" fill="#000000" fill-rule="nonzero" fill-opacity="1" /><path clip-path="url(#clip220)" d="M1427.58 1550.86 Q1422.42 1550.86 1420.43 1552.04 Q1418.44 1553.22 1418.44 1556.06 Q1418.44 1558.33 1419.92 1559.67 Q1421.42 1560.99 1423.99 1560.99 Q1427.53 1560.99 1429.66 1558.49 Q1431.82 1555.97 1431.82 1551.8 L1431.82 1550.86 L1427.58 1550.86 M1436.08 1549.1 L1436.08 1563.89 L1431.82 1563.89 L1431.82 1559.95 Q1430.36 1562.31 1428.18 1563.45 Q1426.01 1564.56 1422.86 1564.56 Q1418.88 1564.56 1416.52 1562.34 Q1414.18 1560.09 1414.18 1556.34 Q1414.18 1551.97 1417.09 1549.74 Q1420.03 1547.52 1425.84 1547.52 L1431.82 1547.52 L1431.82 1547.11 Q1431.82 1544.17 1429.87 1542.57 Q1427.95 1540.95 1424.46 1540.95 Q1422.23 1540.95 1420.13 1541.48 Q1418.02 1542.01 1416.08 1543.08 L1416.08 1539.14 Q1418.41 1538.24 1420.61 1537.8 Q1422.81 1537.34 1424.89 1537.34 Q1430.52 1537.34 1433.3 1540.25 Q1436.08 1543.17 1436.08 1549.1 Z" fill="#000000" fill-rule="nonzero" fill-opacity="1" /><path clip-path="url(#clip220)" d="M1461.38 1538.73 L1461.38 1542.75 Q1459.57 1541.83 1457.63 1541.36 Q1455.68 1540.9 1453.6 1540.9 Q1450.43 1540.9 1448.83 1541.87 Q1447.26 1542.85 1447.26 1544.79 Q1447.26 1546.27 1448.39 1547.13 Q1449.52 1547.96 1452.95 1548.73 L1454.41 1549.05 Q1458.95 1550.02 1460.84 1551.8 Q1462.77 1553.56 1462.77 1556.74 Q1462.77 1560.35 1459.89 1562.45 Q1457.05 1564.56 1452.05 1564.56 Q1449.96 1564.56 1447.7 1564.14 Q1445.45 1563.75 1442.95 1562.94 L1442.95 1558.54 Q1445.31 1559.77 1447.6 1560.39 Q1449.89 1560.99 1452.14 1560.99 Q1455.15 1560.99 1456.77 1559.98 Q1458.39 1558.93 1458.39 1557.06 Q1458.39 1555.32 1457.21 1554.4 Q1456.05 1553.47 1452.09 1552.61 L1450.61 1552.27 Q1446.65 1551.43 1444.89 1549.72 Q1443.14 1547.99 1443.14 1544.98 Q1443.14 1541.32 1445.73 1539.33 Q1448.32 1537.34 1453.09 1537.34 Q1455.45 1537.34 1457.53 1537.68 Q1459.62 1538.03 1461.38 1538.73 Z" fill="#000000" fill-rule="nonzero" fill-opacity="1" /><path clip-path="url(#clip220)" d="M1483 1533.4 L1471.19 1551.85 L1483 1551.85 L1483 1533.4 M1481.77 1529.33 L1487.65 1529.33 L1487.65 1551.85 L1492.58 1551.85 L1492.58 1555.74 L1487.65 1555.74 L1487.65 1563.89 L1483 1563.89 L1483 1555.74 L1467.39 1555.74 L1467.39 1551.23 L1481.77 1529.33 Z" fill="#000000" fill-rule="nonzero" fill-opacity="1" /><path clip-path="url(#clip220)" d="M2056.25 1547.68 Q2057.75 1548.19 2059.16 1549.86 Q2060.6 1551.53 2062.03 1554.44 L2066.78 1563.89 L2061.76 1563.89 L2057.33 1555.02 Q2055.62 1551.55 2054 1550.42 Q2052.4 1549.28 2049.63 1549.28 L2044.53 1549.28 L2044.53 1563.89 L2039.86 1563.89 L2039.86 1529.33 L2050.41 1529.33 Q2056.34 1529.33 2059.26 1531.8 Q2062.17 1534.28 2062.17 1539.28 Q2062.17 1542.55 2060.64 1544.7 Q2059.14 1546.85 2056.25 1547.68 M2044.53 1533.17 L2044.53 1545.44 L2050.41 1545.44 Q2053.79 1545.44 2055.51 1543.89 Q2057.24 1542.31 2057.24 1539.28 Q2057.24 1536.25 2055.51 1534.72 Q2053.79 1533.17 2050.41 1533.17 L2044.53 1533.17 Z" fill="#000000" fill-rule="nonzero" fill-opacity="1" /><path clip-path="url(#clip220)" d="M2080.53 1540.95 Q2077.1 1540.95 2075.11 1543.63 Q2073.12 1546.3 2073.12 1550.95 Q2073.12 1555.6 2075.09 1558.29 Q2077.08 1560.95 2080.53 1560.95 Q2083.93 1560.95 2085.92 1558.26 Q2087.91 1555.58 2087.91 1550.95 Q2087.91 1546.34 2085.92 1543.66 Q2083.93 1540.95 2080.53 1540.95 M2080.53 1537.34 Q2086.08 1537.34 2089.26 1540.95 Q2092.43 1544.56 2092.43 1550.95 Q2092.43 1557.31 2089.26 1560.95 Q2086.08 1564.56 2080.53 1564.56 Q2074.95 1564.56 2071.78 1560.95 Q2068.63 1557.31 2068.63 1550.95 Q2068.63 1544.56 2071.78 1540.95 Q2074.95 1537.34 2080.53 1537.34 Z" fill="#000000" fill-rule="nonzero" fill-opacity="1" /><path clip-path="url(#clip220)" d="M2116.55 1541.9 L2116.55 1527.87 L2120.81 1527.87 L2120.81 1563.89 L2116.55 1563.89 L2116.55 1560 Q2115.2 1562.31 2113.14 1563.45 Q2111.11 1564.56 2108.24 1564.56 Q2103.54 1564.56 2100.58 1560.81 Q2097.64 1557.06 2097.64 1550.95 Q2097.64 1544.84 2100.58 1541.09 Q2103.54 1537.34 2108.24 1537.34 Q2111.11 1537.34 2113.14 1538.47 Q2115.2 1539.58 2116.55 1541.9 M2102.03 1550.95 Q2102.03 1555.65 2103.95 1558.33 Q2105.9 1560.99 2109.28 1560.99 Q2112.66 1560.99 2114.6 1558.33 Q2116.55 1555.65 2116.55 1550.95 Q2116.55 1546.25 2114.6 1543.59 Q2112.66 1540.9 2109.28 1540.9 Q2105.9 1540.9 2103.95 1543.59 Q2102.03 1546.25 2102.03 1550.95 Z" fill="#000000" fill-rule="nonzero" fill-opacity="1" /><path clip-path="url(#clip220)" d="M2141.36 1550.86 Q2136.2 1550.86 2134.21 1552.04 Q2132.22 1553.22 2132.22 1556.06 Q2132.22 1558.33 2133.7 1559.67 Q2135.2 1560.99 2137.77 1560.99 Q2141.32 1560.99 2143.45 1558.49 Q2145.6 1555.97 2145.6 1551.8 L2145.6 1550.86 L2141.36 1550.86 M2149.86 1549.1 L2149.86 1563.89 L2145.6 1563.89 L2145.6 1559.95 Q2144.14 1562.31 2141.96 1563.45 Q2139.79 1564.56 2136.64 1564.56 Q2132.66 1564.56 2130.3 1562.34 Q2127.96 1560.09 2127.96 1556.34 Q2127.96 1551.97 2130.88 1549.74 Q2133.82 1547.52 2139.63 1547.52 L2145.6 1547.52 L2145.6 1547.11 Q2145.6 1544.17 2143.65 1542.57 Q2141.73 1540.95 2138.24 1540.95 Q2136.01 1540.95 2133.91 1541.48 Q2131.8 1542.01 2129.86 1543.08 L2129.86 1539.14 Q2132.2 1538.24 2134.39 1537.8 Q2136.59 1537.34 2138.68 1537.34 Q2144.3 1537.34 2147.08 1540.25 Q2149.86 1543.17 2149.86 1549.1 Z" fill="#000000" fill-rule="nonzero" fill-opacity="1" /><path clip-path="url(#clip220)" d="M2175.16 1538.73 L2175.16 1542.75 Q2173.35 1541.83 2171.41 1541.36 Q2169.46 1540.9 2167.38 1540.9 Q2164.21 1540.9 2162.61 1541.87 Q2161.04 1542.85 2161.04 1544.79 Q2161.04 1546.27 2162.17 1547.13 Q2163.31 1547.96 2166.73 1548.73 L2168.19 1549.05 Q2172.73 1550.02 2174.63 1551.8 Q2176.55 1553.56 2176.55 1556.74 Q2176.55 1560.35 2173.68 1562.45 Q2170.83 1564.56 2165.83 1564.56 Q2163.75 1564.56 2161.48 1564.14 Q2159.23 1563.75 2156.73 1562.94 L2156.73 1558.54 Q2159.09 1559.77 2161.39 1560.39 Q2163.68 1560.99 2165.92 1560.99 Q2168.93 1560.99 2170.55 1559.98 Q2172.17 1558.93 2172.17 1557.06 Q2172.17 1555.32 2170.99 1554.4 Q2169.83 1553.47 2165.88 1552.61 L2164.39 1552.27 Q2160.44 1551.43 2158.68 1549.72 Q2156.92 1547.99 2156.92 1544.98 Q2156.92 1541.32 2159.51 1539.33 Q2162.1 1537.34 2166.87 1537.34 Q2169.23 1537.34 2171.32 1537.68 Q2173.4 1538.03 2175.16 1538.73 Z" fill="#000000" fill-rule="nonzero" fill-opacity="1" /><path clip-path="url(#clip220)" d="M2183.98 1529.33 L2202.33 1529.33 L2202.33 1533.26 L2188.26 1533.26 L2188.26 1541.74 Q2189.28 1541.39 2190.3 1541.23 Q2191.32 1541.04 2192.33 1541.04 Q2198.12 1541.04 2201.5 1544.21 Q2204.88 1547.38 2204.88 1552.8 Q2204.88 1558.38 2201.41 1561.48 Q2197.94 1564.56 2191.62 1564.56 Q2189.44 1564.56 2187.17 1564.19 Q2184.93 1563.82 2182.52 1563.08 L2182.52 1558.38 Q2184.6 1559.51 2186.82 1560.07 Q2189.05 1560.62 2191.52 1560.62 Q2195.53 1560.62 2197.87 1558.52 Q2200.2 1556.41 2200.2 1552.8 Q2200.2 1549.19 2197.87 1547.08 Q2195.53 1544.98 2191.52 1544.98 Q2189.65 1544.98 2187.77 1545.39 Q2185.92 1545.81 2183.98 1546.69 L2183.98 1529.33 Z" fill="#000000" fill-rule="nonzero" fill-opacity="1" /><path clip-path="url(#clip220)" d="M2218.35 1533.17 L2218.35 1546.16 L2224.23 1546.16 Q2227.5 1546.16 2229.28 1544.47 Q2231.06 1542.78 2231.06 1539.65 Q2231.06 1536.55 2229.28 1534.86 Q2227.5 1533.17 2224.23 1533.17 L2218.35 1533.17 M2213.68 1529.33 L2224.23 1529.33 Q2230.04 1529.33 2233.01 1531.97 Q2235.99 1534.58 2235.99 1539.65 Q2235.99 1544.77 2233.01 1547.38 Q2230.04 1550 2224.23 1550 L2218.35 1550 L2218.35 1563.89 L2213.68 1563.89 L2213.68 1529.33 Z" fill="#000000" fill-rule="nonzero" fill-opacity="1" /><path clip-path="url(#clip220)" d="M2784.84 1547.68 Q2786.35 1548.19 2787.76 1549.86 Q2789.2 1551.53 2790.63 1554.44 L2795.38 1563.89 L2790.35 1563.89 L2785.93 1555.02 Q2784.22 1551.55 2782.6 1550.42 Q2781 1549.28 2778.22 1549.28 L2773.13 1549.28 L2773.13 1563.89 L2768.45 1563.89 L2768.45 1529.33 L2779.01 1529.33 Q2784.94 1529.33 2787.85 1531.8 Q2790.77 1534.28 2790.77 1539.28 Q2790.77 1542.55 2789.24 1544.7 Q2787.74 1546.85 2784.84 1547.68 M2773.13 1533.17 L2773.13 1545.44 L2779.01 1545.44 Q2782.39 1545.44 2784.1 1543.89 Q2785.84 1542.31 2785.84 1539.28 Q2785.84 1536.25 2784.1 1534.72 Q2782.39 1533.17 2779.01 1533.17 L2773.13 1533.17 Z" fill="#000000" fill-rule="nonzero" fill-opacity="1" /><path clip-path="url(#clip220)" d="M2809.13 1540.95 Q2805.7 1540.95 2803.71 1543.63 Q2801.72 1546.3 2801.72 1550.95 Q2801.72 1555.6 2803.69 1558.29 Q2805.68 1560.95 2809.13 1560.95 Q2812.53 1560.95 2814.52 1558.26 Q2816.51 1555.58 2816.51 1550.95 Q2816.51 1546.34 2814.52 1543.66 Q2812.53 1540.95 2809.13 1540.95 M2809.13 1537.34 Q2814.68 1537.34 2817.85 1540.95 Q2821.02 1544.56 2821.02 1550.95 Q2821.02 1557.31 2817.85 1560.95 Q2814.68 1564.56 2809.13 1564.56 Q2803.55 1564.56 2800.38 1560.95 Q2797.23 1557.31 2797.23 1550.95 Q2797.23 1544.56 2800.38 1540.95 Q2803.55 1537.34 2809.13 1537.34 Z" fill="#000000" fill-rule="nonzero" fill-opacity="1" /><path clip-path="url(#clip220)" d="M2845.14 1541.9 L2845.14 1527.87 L2849.4 1527.87 L2849.4 1563.89 L2845.14 1563.89 L2845.14 1560 Q2843.8 1562.31 2841.74 1563.45 Q2839.7 1564.56 2836.83 1564.56 Q2832.14 1564.56 2829.17 1560.81 Q2826.23 1557.06 2826.23 1550.95 Q2826.23 1544.84 2829.17 1541.09 Q2832.14 1537.34 2836.83 1537.34 Q2839.7 1537.34 2841.74 1538.47 Q2843.8 1539.58 2845.14 1541.9 M2830.63 1550.95 Q2830.63 1555.65 2832.55 1558.33 Q2834.5 1560.99 2837.88 1560.99 Q2841.26 1560.99 2843.2 1558.33 Q2845.14 1555.65 2845.14 1550.95 Q2845.14 1546.25 2843.2 1543.59 Q2841.26 1540.9 2837.88 1540.9 Q2834.5 1540.9 2832.55 1543.59 Q2830.63 1546.25 2830.63 1550.95 Z" fill="#000000" fill-rule="nonzero" fill-opacity="1" /><path clip-path="url(#clip220)" d="M2869.96 1550.86 Q2864.8 1550.86 2862.81 1552.04 Q2860.82 1553.22 2860.82 1556.06 Q2860.82 1558.33 2862.3 1559.67 Q2863.8 1560.99 2866.37 1560.99 Q2869.91 1560.99 2872.04 1558.49 Q2874.2 1555.97 2874.2 1551.8 L2874.2 1550.86 L2869.96 1550.86 M2878.45 1549.1 L2878.45 1563.89 L2874.2 1563.89 L2874.2 1559.95 Q2872.74 1562.31 2870.56 1563.45 Q2868.38 1564.56 2865.24 1564.56 Q2861.26 1564.56 2858.89 1562.34 Q2856.56 1560.09 2856.56 1556.34 Q2856.56 1551.97 2859.47 1549.74 Q2862.41 1547.52 2868.22 1547.52 L2874.2 1547.52 L2874.2 1547.11 Q2874.2 1544.17 2872.25 1542.57 Q2870.33 1540.95 2866.83 1540.95 Q2864.61 1540.95 2862.51 1541.48 Q2860.4 1542.01 2858.45 1543.08 L2858.45 1539.14 Q2860.79 1538.24 2862.99 1537.8 Q2865.19 1537.34 2867.27 1537.34 Q2872.9 1537.34 2875.68 1540.25 Q2878.45 1543.17 2878.45 1549.1 Z" fill="#000000" fill-rule="nonzero" fill-opacity="1" /><path clip-path="url(#clip220)" d="M2903.76 1538.73 L2903.76 1542.75 Q2901.95 1541.83 2900.01 1541.36 Q2898.06 1540.9 2895.98 1540.9 Q2892.81 1540.9 2891.21 1541.87 Q2889.63 1542.85 2889.63 1544.79 Q2889.63 1546.27 2890.77 1547.13 Q2891.9 1547.96 2895.33 1548.73 L2896.79 1549.05 Q2901.32 1550.02 2903.22 1551.8 Q2905.14 1553.56 2905.14 1556.74 Q2905.14 1560.35 2902.27 1562.45 Q2899.43 1564.56 2894.43 1564.56 Q2892.34 1564.56 2890.07 1564.14 Q2887.83 1563.75 2885.33 1562.94 L2885.33 1558.54 Q2887.69 1559.77 2889.98 1560.39 Q2892.27 1560.99 2894.52 1560.99 Q2897.53 1560.99 2899.15 1559.98 Q2900.77 1558.93 2900.77 1557.06 Q2900.77 1555.32 2899.59 1554.4 Q2898.43 1553.47 2894.47 1552.61 L2892.99 1552.27 Q2889.03 1551.43 2887.27 1549.72 Q2885.51 1547.99 2885.51 1544.98 Q2885.51 1541.32 2888.11 1539.33 Q2890.7 1537.34 2895.47 1537.34 Q2897.83 1537.34 2899.91 1537.68 Q2902 1538.03 2903.76 1538.73 Z" fill="#000000" fill-rule="nonzero" fill-opacity="1" /><path clip-path="url(#clip220)" d="M2925.38 1533.4 L2913.57 1551.85 L2925.38 1551.85 L2925.38 1533.4 M2924.15 1529.33 L2930.03 1529.33 L2930.03 1551.85 L2934.96 1551.85 L2934.96 1555.74 L2930.03 1555.74 L2930.03 1563.89 L2925.38 1563.89 L2925.38 1555.74 L2909.77 1555.74 L2909.77 1551.23 L2924.15 1529.33 Z" fill="#000000" fill-rule="nonzero" fill-opacity="1" /><path clip-path="url(#clip220)" d="M2946.95 1533.17 L2946.95 1546.16 L2952.83 1546.16 Q2956.09 1546.16 2957.88 1544.47 Q2959.66 1542.78 2959.66 1539.65 Q2959.66 1536.55 2957.88 1534.86 Q2956.09 1533.17 2952.83 1533.17 L2946.95 1533.17 M2942.27 1529.33 L2952.83 1529.33 Q2958.64 1529.33 2961.6 1531.97 Q2964.59 1534.58 2964.59 1539.65 Q2964.59 1544.77 2961.6 1547.38 Q2958.64 1550 2952.83 1550 L2946.95 1550 L2946.95 1563.89 L2942.27 1563.89 L2942.27 1529.33 Z" fill="#000000" fill-rule="nonzero" fill-opacity="1" /><polyline clip-path="url(#clip220)" style="stroke:#000000; stroke-linecap:round; stroke-linejoin:round; stroke-width:4; stroke-opacity:1; fill:none" points="394.497,1495.09 394.497,47.2441 "/>
<polyline clip-path="url(#clip220)" style="stroke:#000000; stroke-linecap:round; stroke-linejoin:round; stroke-width:4; stroke-opacity:1; fill:none" points="394.497,1221.59 413.394,1221.59 "/>
<polyline clip-path="url(#clip220)" style="stroke:#000000; stroke-linecap:round; stroke-linejoin:round; stroke-width:4; stroke-opacity:1; fill:none" points="394.497,917.021 413.394,917.021 "/>
<polyline clip-path="url(#clip220)" style="stroke:#000000; stroke-linecap:round; stroke-linejoin:round; stroke-width:4; stroke-opacity:1; fill:none" points="394.497,612.454 413.394,612.454 "/>
<polyline clip-path="url(#clip220)" style="stroke:#000000; stroke-linecap:round; stroke-linejoin:round; stroke-width:4; stroke-opacity:1; fill:none" points="394.497,307.887 413.394,307.887 "/>
<path clip-path="url(#clip220)" d="M98.3802 1210.76 L120.602 1210.76 L120.602 1212.75 L108.056 1245.32 L103.172 1245.32 L114.977 1214.69 L98.3802 1214.69 L98.3802 1210.76 Z" fill="#000000" fill-rule="nonzero" fill-opacity="1" /><path clip-path="url(#clip220)" d="M129.723 1239.44 L134.607 1239.44 L134.607 1245.32 L129.723 1245.32 L129.723 1239.44 Z" fill="#000000" fill-rule="nonzero" fill-opacity="1" /><path clip-path="url(#clip220)" d="M144.838 1210.76 L163.195 1210.76 L163.195 1214.69 L149.121 1214.69 L149.121 1223.16 Q150.139 1222.82 151.158 1222.65 Q152.176 1222.47 153.195 1222.47 Q158.982 1222.47 162.361 1225.64 Q165.741 1228.81 165.741 1234.23 Q165.741 1239.81 162.269 1242.91 Q158.797 1245.99 152.477 1245.99 Q150.301 1245.99 148.033 1245.62 Q145.787 1245.25 143.38 1244.51 L143.38 1239.81 Q145.463 1240.94 147.685 1241.5 Q149.908 1242.05 152.384 1242.05 Q156.389 1242.05 158.727 1239.95 Q161.065 1237.84 161.065 1234.23 Q161.065 1230.62 158.727 1228.51 Q156.389 1226.4 152.384 1226.4 Q150.51 1226.4 148.635 1226.82 Q146.783 1227.24 144.838 1228.12 L144.838 1210.76 Z" fill="#000000" fill-rule="nonzero" fill-opacity="1" /><path clip-path="url(#clip220)" d="M184.954 1213.83 Q181.343 1213.83 179.514 1217.4 Q177.708 1220.94 177.708 1228.07 Q177.708 1235.18 179.514 1238.74 Q181.343 1242.28 184.954 1242.28 Q188.588 1242.28 190.394 1238.74 Q192.222 1235.18 192.222 1228.07 Q192.222 1220.94 190.394 1217.4 Q188.588 1213.83 184.954 1213.83 M184.954 1210.13 Q190.764 1210.13 193.819 1214.74 Q196.898 1219.32 196.898 1228.07 Q196.898 1236.8 193.819 1241.4 Q190.764 1245.99 184.954 1245.99 Q179.144 1245.99 176.065 1241.4 Q173.009 1236.8 173.009 1228.07 Q173.009 1219.32 176.065 1214.74 Q179.144 1210.13 184.954 1210.13 Z" fill="#000000" fill-rule="nonzero" fill-opacity="1" /><path clip-path="url(#clip220)" d="M215.116 1213.83 Q211.505 1213.83 209.676 1217.4 Q207.87 1220.94 207.87 1228.07 Q207.87 1235.18 209.676 1238.74 Q211.505 1242.28 215.116 1242.28 Q218.75 1242.28 220.555 1238.74 Q222.384 1235.18 222.384 1228.07 Q222.384 1220.94 220.555 1217.4 Q218.75 1213.83 215.116 1213.83 M215.116 1210.13 Q220.926 1210.13 223.981 1214.74 Q227.06 1219.32 227.06 1228.07 Q227.06 1236.8 223.981 1241.4 Q220.926 1245.99 215.116 1245.99 Q209.305 1245.99 206.227 1241.4 Q203.171 1236.8 203.171 1228.07 Q203.171 1219.32 206.227 1214.74 Q209.305 1210.13 215.116 1210.13 Z" fill="#000000" fill-rule="nonzero" fill-opacity="1" /><path clip-path="url(#clip220)" d="M263.449 1219.85 L252.87 1230.48 L263.449 1241.06 L260.694 1243.86 L250.069 1233.23 L239.444 1243.86 L236.713 1241.06 L247.268 1230.48 L236.713 1219.85 L239.444 1217.05 L250.069 1227.68 L260.694 1217.05 L263.449 1219.85 Z" fill="#000000" fill-rule="nonzero" fill-opacity="1" /><path clip-path="url(#clip220)" d="M275.81 1241.38 L283.449 1241.38 L283.449 1215.01 L275.138 1216.68 L275.138 1212.42 L283.402 1210.76 L288.078 1210.76 L288.078 1241.38 L295.717 1241.38 L295.717 1245.32 L275.81 1245.32 L275.81 1241.38 Z" fill="#000000" fill-rule="nonzero" fill-opacity="1" /><path clip-path="url(#clip220)" d="M315.161 1213.83 Q311.55 1213.83 309.722 1217.4 Q307.916 1220.94 307.916 1228.07 Q307.916 1235.18 309.722 1238.74 Q311.55 1242.28 315.161 1242.28 Q318.796 1242.28 320.601 1238.74 Q322.43 1235.18 322.43 1228.07 Q322.43 1220.94 320.601 1217.4 Q318.796 1213.83 315.161 1213.83 M315.161 1210.13 Q320.972 1210.13 324.027 1214.74 Q327.106 1219.32 327.106 1228.07 Q327.106 1236.8 324.027 1241.4 Q320.972 1245.99 315.161 1245.99 Q309.351 1245.99 306.273 1241.4 Q303.217 1236.8 303.217 1228.07 Q303.217 1219.32 306.273 1214.74 Q309.351 1210.13 315.161 1210.13 Z" fill="#000000" fill-rule="nonzero" fill-opacity="1" /><path clip-path="url(#clip220)" d="M337.13 1202.35 Q334.572 1202.35 333.068 1204.1 Q331.582 1205.85 331.582 1208.9 Q331.582 1211.92 333.068 1213.69 Q334.572 1215.44 337.13 1215.44 Q339.688 1215.44 341.174 1213.69 Q342.679 1211.92 342.679 1208.9 Q342.679 1205.85 341.174 1204.1 Q339.688 1202.35 337.13 1202.35 M344.672 1190.45 L344.672 1193.91 Q343.243 1193.23 341.776 1192.87 Q340.328 1192.51 338.898 1192.51 Q335.137 1192.51 333.143 1195.05 Q331.168 1197.59 330.886 1202.73 Q331.996 1201.09 333.67 1200.23 Q335.344 1199.34 337.356 1199.34 Q341.588 1199.34 344.033 1201.92 Q346.497 1204.48 346.497 1208.9 Q346.497 1213.22 343.939 1215.84 Q341.381 1218.45 337.13 1218.45 Q332.259 1218.45 329.682 1214.73 Q327.106 1210.98 327.106 1203.89 Q327.106 1197.24 330.265 1193.29 Q333.425 1189.32 338.748 1189.32 Q340.177 1189.32 341.625 1189.6 Q343.092 1189.88 344.672 1190.45 Z" fill="#000000" fill-rule="nonzero" fill-opacity="1" /><path clip-path="url(#clip220)" d="M101.706 936.813 L109.345 936.813 L109.345 910.448 L101.035 912.115 L101.035 907.855 L109.299 906.189 L113.975 906.189 L113.975 936.813 L121.614 936.813 L121.614 940.749 L101.706 940.749 L101.706 936.813 Z" fill="#000000" fill-rule="nonzero" fill-opacity="1" /><path clip-path="url(#clip220)" d="M131.058 934.869 L135.942 934.869 L135.942 940.749 L131.058 940.749 L131.058 934.869 Z" fill="#000000" fill-rule="nonzero" fill-opacity="1" /><path clip-path="url(#clip220)" d="M156.127 909.267 Q152.516 909.267 150.687 912.832 Q148.882 916.374 148.882 923.503 Q148.882 930.61 150.687 934.175 Q152.516 937.716 156.127 937.716 Q159.761 937.716 161.567 934.175 Q163.396 930.61 163.396 923.503 Q163.396 916.374 161.567 912.832 Q159.761 909.267 156.127 909.267 M156.127 905.564 Q161.937 905.564 164.993 910.17 Q168.072 914.753 168.072 923.503 Q168.072 932.23 164.993 936.837 Q161.937 941.42 156.127 941.42 Q150.317 941.42 147.238 936.837 Q144.183 932.23 144.183 923.503 Q144.183 914.753 147.238 910.17 Q150.317 905.564 156.127 905.564 Z" fill="#000000" fill-rule="nonzero" fill-opacity="1" /><path clip-path="url(#clip220)" d="M186.289 909.267 Q182.678 909.267 180.849 912.832 Q179.044 916.374 179.044 923.503 Q179.044 930.61 180.849 934.175 Q182.678 937.716 186.289 937.716 Q189.923 937.716 191.729 934.175 Q193.558 930.61 193.558 923.503 Q193.558 916.374 191.729 912.832 Q189.923 909.267 186.289 909.267 M186.289 905.564 Q192.099 905.564 195.155 910.17 Q198.233 914.753 198.233 923.503 Q198.233 932.23 195.155 936.837 Q192.099 941.42 186.289 941.42 Q180.479 941.42 177.4 936.837 Q174.345 932.23 174.345 923.503 Q174.345 914.753 177.4 910.17 Q180.479 905.564 186.289 905.564 Z" fill="#000000" fill-rule="nonzero" fill-opacity="1" /><path clip-path="url(#clip220)" d="M216.451 909.267 Q212.84 909.267 211.011 912.832 Q209.206 916.374 209.206 923.503 Q209.206 930.61 211.011 934.175 Q212.84 937.716 216.451 937.716 Q220.085 937.716 221.891 934.175 Q223.719 930.61 223.719 923.503 Q223.719 916.374 221.891 912.832 Q220.085 909.267 216.451 909.267 M216.451 905.564 Q222.261 905.564 225.317 910.17 Q228.395 914.753 228.395 923.503 Q228.395 932.23 225.317 936.837 Q222.261 941.42 216.451 941.42 Q210.641 941.42 207.562 936.837 Q204.507 932.23 204.507 923.503 Q204.507 914.753 207.562 910.17 Q210.641 905.564 216.451 905.564 Z" fill="#000000" fill-rule="nonzero" fill-opacity="1" /><path clip-path="url(#clip220)" d="M264.784 915.286 L254.205 925.911 L264.784 936.489 L262.029 939.29 L251.405 928.665 L240.78 939.29 L238.048 936.489 L248.604 925.911 L238.048 915.286 L240.78 912.485 L251.405 923.11 L262.029 912.485 L264.784 915.286 Z" fill="#000000" fill-rule="nonzero" fill-opacity="1" /><path clip-path="url(#clip220)" d="M277.145 936.813 L284.784 936.813 L284.784 910.448 L276.474 912.115 L276.474 907.855 L284.738 906.189 L289.414 906.189 L289.414 936.813 L297.052 936.813 L297.052 940.749 L277.145 940.749 L277.145 936.813 Z" fill="#000000" fill-rule="nonzero" fill-opacity="1" /><path clip-path="url(#clip220)" d="M316.497 909.267 Q312.886 909.267 311.057 912.832 Q309.251 916.374 309.251 923.503 Q309.251 930.61 311.057 934.175 Q312.886 937.716 316.497 937.716 Q320.131 937.716 321.937 934.175 Q323.765 930.61 323.765 923.503 Q323.765 916.374 321.937 912.832 Q320.131 909.267 316.497 909.267 M316.497 905.564 Q322.307 905.564 325.362 910.17 Q328.441 914.753 328.441 923.503 Q328.441 932.23 325.362 936.837 Q322.307 941.42 316.497 941.42 Q310.687 941.42 307.608 936.837 Q304.552 932.23 304.552 923.503 Q304.552 914.753 307.608 910.17 Q310.687 905.564 316.497 905.564 Z" fill="#000000" fill-rule="nonzero" fill-opacity="1" /><path clip-path="url(#clip220)" d="M328.441 885.258 L346.497 885.258 L346.497 886.876 L336.303 913.338 L332.334 913.338 L341.926 888.456 L328.441 888.456 L328.441 885.258 Z" fill="#000000" fill-rule="nonzero" fill-opacity="1" /><path clip-path="url(#clip220)" d="M101.706 632.246 L109.345 632.246 L109.345 605.881 L101.035 607.547 L101.035 603.288 L109.299 601.622 L113.975 601.622 L113.975 632.246 L121.614 632.246 L121.614 636.182 L101.706 636.182 L101.706 632.246 Z" fill="#000000" fill-rule="nonzero" fill-opacity="1" /><path clip-path="url(#clip220)" d="M131.058 630.302 L135.942 630.302 L135.942 636.182 L131.058 636.182 L131.058 630.302 Z" fill="#000000" fill-rule="nonzero" fill-opacity="1" /><path clip-path="url(#clip220)" d="M150.155 632.246 L166.474 632.246 L166.474 636.182 L144.53 636.182 L144.53 632.246 Q147.192 629.492 151.775 624.862 Q156.382 620.209 157.562 618.867 Q159.808 616.344 160.687 614.608 Q161.59 612.848 161.59 611.159 Q161.59 608.404 159.646 606.668 Q157.724 604.932 154.623 604.932 Q152.424 604.932 149.97 605.696 Q147.539 606.46 144.762 608.01 L144.762 603.288 Q147.586 602.154 150.039 601.575 Q152.493 600.997 154.53 600.997 Q159.9 600.997 163.095 603.682 Q166.289 606.367 166.289 610.858 Q166.289 612.987 165.479 614.909 Q164.692 616.807 162.586 619.399 Q162.007 620.071 158.905 623.288 Q155.803 626.483 150.155 632.246 Z" fill="#000000" fill-rule="nonzero" fill-opacity="1" /><path clip-path="url(#clip220)" d="M176.335 601.622 L194.692 601.622 L194.692 605.557 L180.618 605.557 L180.618 614.029 Q181.636 613.682 182.655 613.52 Q183.673 613.334 184.692 613.334 Q190.479 613.334 193.859 616.506 Q197.238 619.677 197.238 625.094 Q197.238 630.672 193.766 633.774 Q190.294 636.853 183.974 636.853 Q181.798 636.853 179.53 636.483 Q177.285 636.112 174.877 635.371 L174.877 630.672 Q176.96 631.807 179.183 632.362 Q181.405 632.918 183.882 632.918 Q187.886 632.918 190.224 630.811 Q192.562 628.705 192.562 625.094 Q192.562 621.483 190.224 619.376 Q187.886 617.27 183.882 617.27 Q182.007 617.27 180.132 617.686 Q178.28 618.103 176.335 618.983 L176.335 601.622 Z" fill="#000000" fill-rule="nonzero" fill-opacity="1" /><path clip-path="url(#clip220)" d="M216.451 604.7 Q212.84 604.7 211.011 608.265 Q209.206 611.807 209.206 618.936 Q209.206 626.043 211.011 629.608 Q212.84 633.149 216.451 633.149 Q220.085 633.149 221.891 629.608 Q223.719 626.043 223.719 618.936 Q223.719 611.807 221.891 608.265 Q220.085 604.7 216.451 604.7 M216.451 600.997 Q222.261 600.997 225.317 605.603 Q228.395 610.186 228.395 618.936 Q228.395 627.663 225.317 632.27 Q222.261 636.853 216.451 636.853 Q210.641 636.853 207.562 632.27 Q204.507 627.663 204.507 618.936 Q204.507 610.186 207.562 605.603 Q210.641 600.997 216.451 600.997 Z" fill="#000000" fill-rule="nonzero" fill-opacity="1" /><path clip-path="url(#clip220)" d="M264.784 610.719 L254.205 621.344 L264.784 631.922 L262.029 634.723 L251.405 624.098 L240.78 634.723 L238.048 631.922 L248.604 621.344 L238.048 610.719 L240.78 607.918 L251.405 618.543 L262.029 607.918 L264.784 610.719 Z" fill="#000000" fill-rule="nonzero" fill-opacity="1" /><path clip-path="url(#clip220)" d="M277.145 632.246 L284.784 632.246 L284.784 605.881 L276.474 607.547 L276.474 603.288 L284.738 601.622 L289.414 601.622 L289.414 632.246 L297.052 632.246 L297.052 636.182 L277.145 636.182 L277.145 632.246 Z" fill="#000000" fill-rule="nonzero" fill-opacity="1" /><path clip-path="url(#clip220)" d="M316.497 604.7 Q312.886 604.7 311.057 608.265 Q309.251 611.807 309.251 618.936 Q309.251 626.043 311.057 629.608 Q312.886 633.149 316.497 633.149 Q320.131 633.149 321.937 629.608 Q323.765 626.043 323.765 618.936 Q323.765 611.807 321.937 608.265 Q320.131 604.7 316.497 604.7 M316.497 600.997 Q322.307 600.997 325.362 605.603 Q328.441 610.186 328.441 618.936 Q328.441 627.663 325.362 632.27 Q322.307 636.853 316.497 636.853 Q310.687 636.853 307.608 632.27 Q304.552 627.663 304.552 618.936 Q304.552 610.186 307.608 605.603 Q310.687 600.997 316.497 600.997 Z" fill="#000000" fill-rule="nonzero" fill-opacity="1" /><path clip-path="url(#clip220)" d="M328.441 580.691 L346.497 580.691 L346.497 582.309 L336.303 608.771 L332.334 608.771 L341.926 583.889 L328.441 583.889 L328.441 580.691 Z" fill="#000000" fill-rule="nonzero" fill-opacity="1" /><path clip-path="url(#clip220)" d="M101.706 327.679 L109.345 327.679 L109.345 301.314 L101.035 302.98 L101.035 298.721 L109.299 297.055 L113.975 297.055 L113.975 327.679 L121.614 327.679 L121.614 331.615 L101.706 331.615 L101.706 327.679 Z" fill="#000000" fill-rule="nonzero" fill-opacity="1" /><path clip-path="url(#clip220)" d="M131.058 325.735 L135.942 325.735 L135.942 331.615 L131.058 331.615 L131.058 325.735 Z" fill="#000000" fill-rule="nonzero" fill-opacity="1" /><path clip-path="url(#clip220)" d="M146.174 297.055 L164.53 297.055 L164.53 300.99 L150.456 300.99 L150.456 309.462 Q151.474 309.115 152.493 308.953 Q153.512 308.767 154.53 308.767 Q160.317 308.767 163.697 311.939 Q167.076 315.11 167.076 320.527 Q167.076 326.105 163.604 329.207 Q160.132 332.286 153.812 332.286 Q151.637 332.286 149.368 331.915 Q147.123 331.545 144.715 330.804 L144.715 326.105 Q146.799 327.24 149.021 327.795 Q151.243 328.351 153.72 328.351 Q157.724 328.351 160.062 326.244 Q162.4 324.138 162.4 320.527 Q162.4 316.916 160.062 314.809 Q157.724 312.703 153.72 312.703 Q151.845 312.703 149.97 313.119 Q148.118 313.536 146.174 314.416 L146.174 297.055 Z" fill="#000000" fill-rule="nonzero" fill-opacity="1" /><path clip-path="url(#clip220)" d="M186.289 300.133 Q182.678 300.133 180.849 303.698 Q179.044 307.24 179.044 314.369 Q179.044 321.476 180.849 325.041 Q182.678 328.582 186.289 328.582 Q189.923 328.582 191.729 325.041 Q193.558 321.476 193.558 314.369 Q193.558 307.24 191.729 303.698 Q189.923 300.133 186.289 300.133 M186.289 296.43 Q192.099 296.43 195.155 301.036 Q198.233 305.619 198.233 314.369 Q198.233 323.096 195.155 327.703 Q192.099 332.286 186.289 332.286 Q180.479 332.286 177.4 327.703 Q174.345 323.096 174.345 314.369 Q174.345 305.619 177.4 301.036 Q180.479 296.43 186.289 296.43 Z" fill="#000000" fill-rule="nonzero" fill-opacity="1" /><path clip-path="url(#clip220)" d="M216.451 300.133 Q212.84 300.133 211.011 303.698 Q209.206 307.24 209.206 314.369 Q209.206 321.476 211.011 325.041 Q212.84 328.582 216.451 328.582 Q220.085 328.582 221.891 325.041 Q223.719 321.476 223.719 314.369 Q223.719 307.24 221.891 303.698 Q220.085 300.133 216.451 300.133 M216.451 296.43 Q222.261 296.43 225.317 301.036 Q228.395 305.619 228.395 314.369 Q228.395 323.096 225.317 327.703 Q222.261 332.286 216.451 332.286 Q210.641 332.286 207.562 327.703 Q204.507 323.096 204.507 314.369 Q204.507 305.619 207.562 301.036 Q210.641 296.43 216.451 296.43 Z" fill="#000000" fill-rule="nonzero" fill-opacity="1" /><path clip-path="url(#clip220)" d="M264.784 306.152 L254.205 316.777 L264.784 327.355 L262.029 330.156 L251.405 319.531 L240.78 330.156 L238.048 327.355 L248.604 316.777 L238.048 306.152 L240.78 303.351 L251.405 313.976 L262.029 303.351 L264.784 306.152 Z" fill="#000000" fill-rule="nonzero" fill-opacity="1" /><path clip-path="url(#clip220)" d="M277.145 327.679 L284.784 327.679 L284.784 301.314 L276.474 302.98 L276.474 298.721 L284.738 297.055 L289.414 297.055 L289.414 327.679 L297.052 327.679 L297.052 331.615 L277.145 331.615 L277.145 327.679 Z" fill="#000000" fill-rule="nonzero" fill-opacity="1" /><path clip-path="url(#clip220)" d="M316.497 300.133 Q312.886 300.133 311.057 303.698 Q309.251 307.24 309.251 314.369 Q309.251 321.476 311.057 325.041 Q312.886 328.582 316.497 328.582 Q320.131 328.582 321.937 325.041 Q323.765 321.476 323.765 314.369 Q323.765 307.24 321.937 303.698 Q320.131 300.133 316.497 300.133 M316.497 296.43 Q322.307 296.43 325.362 301.036 Q328.441 305.619 328.441 314.369 Q328.441 323.096 325.362 327.703 Q322.307 332.286 316.497 332.286 Q310.687 332.286 307.608 327.703 Q304.552 323.096 304.552 314.369 Q304.552 305.619 307.608 301.036 Q310.687 296.43 316.497 296.43 Z" fill="#000000" fill-rule="nonzero" fill-opacity="1" /><path clip-path="url(#clip220)" d="M328.441 276.124 L346.497 276.124 L346.497 277.742 L336.303 304.204 L332.334 304.204 L341.926 279.321 L328.441 279.321 L328.441 276.124 Z" fill="#000000" fill-rule="nonzero" fill-opacity="1" /><path clip-path="url(#clip220)" d="M-9.64527 840.632 L0.4762 840.632 L0.4762 828.569 L5.02768 828.569 L5.02768 840.632 L24.3794 840.632 Q28.7399 840.632 29.9813 839.454 Q31.2226 838.245 31.2226 834.584 L31.2226 828.569 L36.1242 828.569 L36.1242 834.584 Q36.1242 841.364 33.6097 843.942 Q31.0634 846.52 24.3794 846.52 L5.02768 846.52 L5.02768 850.817 L0.4762 850.817 L0.4762 846.52 L-9.64527 846.52 L-9.64527 840.632 Z" fill="#000000" fill-rule="nonzero" fill-opacity="1" /><path clip-path="url(#clip220)" d="M-11.3958 789.738 L-11.3958 784.327 L42.1716 800.878 L42.1716 806.289 L-11.3958 789.738 Z" fill="#000000" fill-rule="nonzero" fill-opacity="1" /><path clip-path="url(#clip220)" d="M14.6081 727.831 L36.1242 727.831 L36.1242 733.688 L14.799 733.688 Q9.7383 733.688 7.22385 735.661 Q4.7094 737.635 4.7094 741.581 Q4.7094 746.324 7.73311 749.061 Q10.7568 751.798 15.9767 751.798 L36.1242 751.798 L36.1242 757.687 L0.4762 757.687 L0.4762 751.798 L6.01437 751.798 Q2.79968 749.698 1.20826 746.865 Q-0.38317 744 -0.38317 740.276 Q-0.38317 734.133 3.43625 730.982 Q7.22385 727.831 14.6081 727.831 Z" fill="#000000" fill-rule="nonzero" fill-opacity="1" /><path clip-path="url(#clip220)" d="M1.52654 693.425 L7.06471 693.425 Q5.79157 695.907 5.15499 698.581 Q4.51842 701.255 4.51842 704.119 Q4.51842 708.48 5.85522 710.676 Q7.19202 712.84 9.86562 712.84 Q11.9026 712.84 13.0803 711.281 Q14.2261 709.721 15.2765 705.01 L15.7221 703.005 Q17.0589 696.767 19.5097 694.157 Q21.9286 691.515 26.2891 691.515 Q31.2544 691.515 34.1508 695.462 Q37.0472 699.377 37.0472 706.252 Q37.0472 709.116 36.4743 712.235 Q35.9332 715.323 34.8192 718.76 L28.7718 718.76 Q30.4587 715.514 31.318 712.363 Q32.1456 709.212 32.1456 706.124 Q32.1456 701.987 30.7451 699.759 Q29.3129 697.531 26.7347 697.531 Q24.3476 697.531 23.0745 699.154 Q21.8013 700.745 20.6237 706.188 L20.1462 708.225 Q19.0004 713.668 16.6451 716.087 Q14.258 718.506 10.1202 718.506 Q5.09134 718.506 2.35408 714.941 Q-0.38317 711.376 -0.38317 704.819 Q-0.38317 701.573 0.0942579 698.708 Q0.571686 695.844 1.52654 693.425 Z" fill="#000000" fill-rule="nonzero" fill-opacity="1" /><path clip-path="url(#clip222)" d="M756.091 1454.11 L777.317 1453.79 L800.013 1453.46 L822.849 1453.13 L844.271 1452.81 L862.702 1452.48 L876.784 1452.16 L885.613 1451.83 L888.902 1451.51 L887.023 1451.18 L880.913 1450.86 L871.856 1450.53 L861.2 1450.21 L850.106 1449.88 L839.364 1449.55 L829.336 1449.23 L820.021 1448.9 L811.187 1448.58 L802.544 1448.25 L793.892 1447.93 L785.214 1447.6 L776.695 1447.28 L768.673 1446.95 L761.55 1446.63 L755.689 1446.3 L751.325 1445.97 L748.512 1445.65 L747.119 1445.32 L746.853 1445 L747.323 1444.67 L748.101 1444.35 L748.79 1444.02 L749.075 1443.7 L748.758 1443.37 L747.76 1443.05 L746.113 1442.72 L743.923 1442.39 L741.331 1442.07 L738.473 1441.74 L735.45 1441.42 L732.32 1441.09 L729.111 1440.77 L725.841 1440.44 L722.543 1440.12 L719.274 1439.79 L716.109 1439.46 L713.122 1439.14 L710.363 1438.81 L707.848 1438.49 L705.557 1438.16 L703.454 1437.84 L701.497 1437.51 L699.656 1437.19 L697.912 1436.86 L696.254 1436.54 L694.681 1436.21 L693.195 1435.88 L691.806 1435.56 L690.533 1435.23 L689.402 1434.91 L688.441 1434.58 L687.673 1434.26 L687.108 1433.93 L686.74 1433.61 L686.54 1433.28 L686.465 1432.96 L686.462 1432.63 L686.479 1432.3 L686.473 1431.98 L686.413 1431.65 L686.29 1431.33 L686.109 1431 L685.886 1430.68 L685.642 1430.35 L685.392 1430.03 L685.146 1429.7 L684.909 1429.38 L684.686 1429.05 L684.491 1428.72 L684.341 1428.4 L684.257 1428.07 L684.249 1427.75 L684.308 1427.42 L684.404 1427.1 L684.489 1426.77 L684.52 1426.45 L684.466 1426.12 L684.322 1425.8 L684.111 1425.47 L683.874 1425.14 L683.653 1424.82 L683.48 1424.49 L683.366 1424.17 L683.305 1423.84 L683.273 1423.52 L683.246 1423.19 L683.204 1422.87 L683.137 1422.54 L683.046 1422.21 L682.934 1421.89 L682.804 1421.56 L682.656 1421.24 L682.488 1420.91 L682.3 1420.59 L682.098 1420.26 L681.899 1419.94 L681.722 1419.61 L681.586 1419.29 L681.506 1418.96 L681.483 1418.63 L681.512 1418.31 L681.582 1417.98 L681.678 1417.66 L681.79 1417.33 L681.908 1417.01 L682.022 1416.68 L682.12 1416.36 L682.187 1416.03 L682.206 1415.71 L682.162 1415.38 L682.054 1415.05 L681.889 1414.73 L681.687 1414.4 L681.474 1414.08 L681.273 1413.75 L681.103 1413.43 L680.971 1413.1 L680.88 1412.78 L680.826 1412.45 L680.802 1412.13 L680.804 1411.8 L680.831 1411.47 L680.881 1411.15 L680.952 1410.82 L681.041 1410.5 L681.139 1410.17 L681.234 1409.85 L681.312 1409.52 L681.359 1409.2 L681.367 1408.87 L681.333 1408.55 L681.267 1408.22 L681.181 1407.89 L681.091 1407.57 L681.015 1407.24 L680.964 1406.92 L680.946 1406.59 L680.965 1406.27 L681.017 1405.94 L681.094 1405.62 L681.184 1405.29 L681.27 1404.97 L681.336 1404.64 L681.368 1404.31 L681.36 1403.99 L681.313 1403.66 L681.238 1403.34 L681.151 1403.01 L681.067 1402.69 L681.002 1402.36 L680.968 1402.04 L680.97 1401.71 L681.008 1401.38 L681.075 1401.06 L681.16 1400.73 L681.247 1400.41 L681.319 1400.08 L681.362 1399.76 L680.101 1399.76 L680.143 1400.08 L680.215 1400.41 L680.302 1400.73 L680.387 1401.06 L680.454 1401.38 L680.492 1401.71 L680.494 1402.04 L680.46 1402.36 L680.395 1402.69 L680.312 1403.01 L680.224 1403.34 L680.149 1403.66 L680.102 1403.99 L680.094 1404.31 L680.126 1404.64 L680.192 1404.97 L680.278 1405.29 L680.368 1405.62 L680.445 1405.94 L680.497 1406.27 L680.516 1406.59 L680.498 1406.92 L680.447 1407.24 L680.371 1407.57 L680.281 1407.89 L680.195 1408.22 L680.129 1408.55 L680.096 1408.87 L680.103 1409.2 L680.15 1409.52 L680.228 1409.85 L680.323 1410.17 L680.421 1410.5 L680.51 1410.82 L680.581 1411.15 L680.631 1411.47 L680.658 1411.8 L680.66 1412.13 L680.636 1412.45 L680.582 1412.78 L680.491 1413.1 L680.359 1413.43 L680.189 1413.75 L679.988 1414.08 L679.775 1414.4 L679.573 1414.73 L679.408 1415.05 L679.3 1415.38 L679.256 1415.71 L679.275 1416.03 L679.342 1416.36 L679.44 1416.68 L679.555 1417.01 L679.672 1417.33 L679.784 1417.66 L679.88 1417.98 L679.95 1418.31 L679.979 1418.63 L679.956 1418.96 L679.876 1419.29 L679.74 1419.61 L679.563 1419.94 L679.364 1420.26 L679.162 1420.59 L678.974 1420.91 L678.806 1421.24 L678.658 1421.56 L678.528 1421.89 L678.416 1422.21 L678.325 1422.54 L678.258 1422.87 L678.216 1423.19 L678.189 1423.52 L678.157 1423.84 L678.096 1424.17 L677.982 1424.49 L677.809 1424.82 L677.588 1425.14 L677.351 1425.47 L677.14 1425.8 L676.996 1426.12 L676.942 1426.45 L676.973 1426.77 L677.059 1427.1 L677.154 1427.42 L677.213 1427.75 L677.205 1428.07 L677.121 1428.4 L676.972 1428.72 L676.776 1429.05 L676.553 1429.38 L676.316 1429.7 L676.07 1430.03 L675.82 1430.35 L675.576 1430.68 L675.354 1431 L675.172 1431.33 L675.049 1431.65 L674.989 1431.98 L674.983 1432.3 L675 1432.63 L674.998 1432.96 L674.922 1433.28 L674.722 1433.61 L674.354 1433.93 L673.789 1434.26 L673.021 1434.58 L672.06 1434.91 L670.929 1435.23 L669.656 1435.56 L668.267 1435.88 L666.781 1436.21 L665.208 1436.54 L663.55 1436.86 L661.806 1437.19 L659.965 1437.51 L658.008 1437.84 L655.905 1438.16 L653.614 1438.49 L651.099 1438.81 L648.34 1439.14 L645.353 1439.46 L642.188 1439.79 L638.919 1440.12 L635.621 1440.44 L632.351 1440.77 L629.142 1441.09 L626.013 1441.42 L622.989 1441.74 L620.131 1442.07 L617.539 1442.39 L615.349 1442.72 L613.702 1443.05 L612.704 1443.37 L612.387 1443.7 L612.672 1444.02 L613.361 1444.35 L614.139 1444.67 L614.609 1445 L614.344 1445.32 L612.95 1445.65 L610.137 1445.97 L605.773 1446.3 L599.912 1446.63 L592.789 1446.95 L584.767 1447.28 L576.248 1447.6 L567.57 1447.93 L558.918 1448.25 L550.275 1448.58 L541.441 1448.9 L532.126 1449.23 L522.098 1449.55 L511.356 1449.88 L500.262 1450.21 L489.607 1450.53 L480.549 1450.86 L474.439 1451.18 L472.561 1451.51 L475.849 1451.83 L484.678 1452.16 L498.76 1452.48 L517.191 1452.81 L538.613 1453.13 L561.449 1453.46 L584.145 1453.79 L605.371 1454.11 L756.091 1454.11  Z" fill="#009af9" fill-rule="evenodd" fill-opacity="1"/>
<polyline clip-path="url(#clip222)" style="stroke:#000000; stroke-linecap:round; stroke-linejoin:round; stroke-width:4; stroke-opacity:1; fill:none" points="756.091,1454.11 777.317,1453.79 800.013,1453.46 822.849,1453.13 844.271,1452.81 862.702,1452.48 876.784,1452.16 885.613,1451.83 888.902,1451.51 887.023,1451.18 880.913,1450.86 871.856,1450.53 861.2,1450.21 850.106,1449.88 839.364,1449.55 829.336,1449.23 820.021,1448.9 811.187,1448.58 802.544,1448.25 793.892,1447.93 785.214,1447.6 776.695,1447.28 768.673,1446.95 761.55,1446.63 755.689,1446.3 751.325,1445.97 748.512,1445.65 747.119,1445.32 746.853,1445 747.323,1444.67 748.101,1444.35 748.79,1444.02 749.075,1443.7 748.758,1443.37 747.76,1443.05 746.113,1442.72 743.923,1442.39 741.331,1442.07 738.473,1441.74 735.45,1441.42 732.32,1441.09 729.111,1440.77 725.841,1440.44 722.543,1440.12 719.274,1439.79 716.109,1439.46 713.122,1439.14 710.363,1438.81 707.848,1438.49 705.557,1438.16 703.454,1437.84 701.497,1437.51 699.656,1437.19 697.912,1436.86 696.254,1436.54 694.681,1436.21 693.195,1435.88 691.806,1435.56 690.533,1435.23 689.402,1434.91 688.441,1434.58 687.673,1434.26 687.108,1433.93 686.74,1433.61 686.54,1433.28 686.465,1432.96 686.462,1432.63 686.479,1432.3 686.473,1431.98 686.413,1431.65 686.29,1431.33 686.109,1431 685.886,1430.68 685.642,1430.35 685.392,1430.03 685.146,1429.7 684.909,1429.38 684.686,1429.05 684.491,1428.72 684.341,1428.4 684.257,1428.07 684.249,1427.75 684.308,1427.42 684.404,1427.1 684.489,1426.77 684.52,1426.45 684.466,1426.12 684.322,1425.8 684.111,1425.47 683.874,1425.14 683.653,1424.82 683.48,1424.49 683.366,1424.17 683.305,1423.84 683.273,1423.52 683.246,1423.19 683.204,1422.87 683.137,1422.54 683.046,1422.21 682.934,1421.89 682.804,1421.56 682.656,1421.24 682.488,1420.91 682.3,1420.59 682.098,1420.26 681.899,1419.94 681.722,1419.61 681.586,1419.29 681.506,1418.96 681.483,1418.63 681.512,1418.31 681.582,1417.98 681.678,1417.66 681.79,1417.33 681.908,1417.01 682.022,1416.68 682.12,1416.36 682.187,1416.03 682.206,1415.71 682.162,1415.38 682.054,1415.05 681.889,1414.73 681.687,1414.4 681.474,1414.08 681.273,1413.75 681.103,1413.43 680.971,1413.1 680.88,1412.78 680.826,1412.45 680.802,1412.13 680.804,1411.8 680.831,1411.47 680.881,1411.15 680.952,1410.82 681.041,1410.5 681.139,1410.17 681.234,1409.85 681.312,1409.52 681.359,1409.2 681.367,1408.87 681.333,1408.55 681.267,1408.22 681.181,1407.89 681.091,1407.57 681.015,1407.24 680.964,1406.92 680.946,1406.59 680.965,1406.27 681.017,1405.94 681.094,1405.62 681.184,1405.29 681.27,1404.97 681.336,1404.64 681.368,1404.31 681.36,1403.99 681.313,1403.66 681.238,1403.34 681.151,1403.01 681.067,1402.69 681.002,1402.36 680.968,1402.04 680.97,1401.71 681.008,1401.38 681.075,1401.06 681.16,1400.73 681.247,1400.41 681.319,1400.08 681.362,1399.76 680.101,1399.76 680.143,1400.08 680.215,1400.41 680.302,1400.73 680.387,1401.06 680.454,1401.38 680.492,1401.71 680.494,1402.04 680.46,1402.36 680.395,1402.69 680.312,1403.01 680.224,1403.34 680.149,1403.66 680.102,1403.99 680.094,1404.31 680.126,1404.64 680.192,1404.97 680.278,1405.29 680.368,1405.62 680.445,1405.94 680.497,1406.27 680.516,1406.59 680.498,1406.92 680.447,1407.24 680.371,1407.57 680.281,1407.89 680.195,1408.22 680.129,1408.55 680.096,1408.87 680.103,1409.2 680.15,1409.52 680.228,1409.85 680.323,1410.17 680.421,1410.5 680.51,1410.82 680.581,1411.15 680.631,1411.47 680.658,1411.8 680.66,1412.13 680.636,1412.45 680.582,1412.78 680.491,1413.1 680.359,1413.43 680.189,1413.75 679.988,1414.08 679.775,1414.4 679.573,1414.73 679.408,1415.05 679.3,1415.38 679.256,1415.71 679.275,1416.03 679.342,1416.36 679.44,1416.68 679.555,1417.01 679.672,1417.33 679.784,1417.66 679.88,1417.98 679.95,1418.31 679.979,1418.63 679.956,1418.96 679.876,1419.29 679.74,1419.61 679.563,1419.94 679.364,1420.26 679.162,1420.59 678.974,1420.91 678.806,1421.24 678.658,1421.56 678.528,1421.89 678.416,1422.21 678.325,1422.54 678.258,1422.87 678.216,1423.19 678.189,1423.52 678.157,1423.84 678.096,1424.17 677.982,1424.49 677.809,1424.82 677.588,1425.14 677.351,1425.47 677.14,1425.8 676.996,1426.12 676.942,1426.45 676.973,1426.77 677.059,1427.1 677.154,1427.42 677.213,1427.75 677.205,1428.07 677.121,1428.4 676.972,1428.72 676.776,1429.05 676.553,1429.38 676.316,1429.7 676.07,1430.03 675.82,1430.35 675.576,1430.68 675.354,1431 675.172,1431.33 675.049,1431.65 674.989,1431.98 674.983,1432.3 675,1432.63 674.998,1432.96 674.922,1433.28 674.722,1433.61 674.354,1433.93 673.789,1434.26 673.021,1434.58 672.06,1434.91 670.929,1435.23 669.656,1435.56 668.267,1435.88 666.781,1436.21 665.208,1436.54 663.55,1436.86 661.806,1437.19 659.965,1437.51 658.008,1437.84 655.905,1438.16 653.614,1438.49 651.099,1438.81 648.34,1439.14 645.353,1439.46 642.188,1439.79 638.919,1440.12 635.621,1440.44 632.351,1440.77 629.142,1441.09 626.013,1441.42 622.989,1441.74 620.131,1442.07 617.539,1442.39 615.349,1442.72 613.702,1443.05 612.704,1443.37 612.387,1443.7 612.672,1444.02 613.361,1444.35 614.139,1444.67 614.609,1445 614.344,1445.32 612.95,1445.65 610.137,1445.97 605.773,1446.3 599.912,1446.63 592.789,1446.95 584.767,1447.28 576.248,1447.6 567.57,1447.93 558.918,1448.25 550.275,1448.58 541.441,1448.9 532.126,1449.23 522.098,1449.55 511.356,1449.88 500.262,1450.21 489.607,1450.53 480.549,1450.86 474.439,1451.18 472.561,1451.51 475.849,1451.83 484.678,1452.16 498.76,1452.48 517.191,1452.81 538.613,1453.13 561.449,1453.46 584.145,1453.79 605.371,1454.11 756.091,1454.11 "/>
<path clip-path="url(#clip222)" d="M1422.36 160.074 L1425.69 159.564 L1429.73 159.055 L1434.57 158.545 L1440.28 158.035 L1446.91 157.526 L1454.48 157.016 L1462.98 156.507 L1472.37 155.997 L1482.56 155.487 L1493.42 154.978 L1504.8 154.468 L1516.51 153.959 L1528.35 153.449 L1540.09 152.939 L1551.52 152.43 L1562.43 151.92 L1572.62 151.411 L1581.95 150.901 L1590.28 150.391 L1597.53 149.882 L1603.65 149.372 L1608.61 148.863 L1612.43 148.353 L1615.15 147.843 L1616.82 147.334 L1617.5 146.824 L1617.25 146.315 L1616.14 145.805 L1614.24 145.295 L1611.59 144.786 L1608.26 144.276 L1604.3 143.767 L1599.78 143.257 L1594.77 142.747 L1589.35 142.238 L1583.63 141.728 L1577.71 141.219 L1571.72 140.709 L1565.77 140.2 L1559.99 139.69 L1554.49 139.18 L1549.36 138.671 L1544.68 138.161 L1540.51 137.652 L1536.85 137.142 L1533.71 136.632 L1531.04 136.123 L1528.79 135.613 L1526.88 135.104 L1525.22 134.594 L1523.73 134.084 L1522.32 133.575 L1520.91 133.065 L1519.42 132.556 L1517.82 132.046 L1516.07 131.536 L1514.14 131.027 L1512.03 130.517 L1509.77 130.008 L1507.38 129.498 L1504.88 128.988 L1502.33 128.479 L1499.76 127.969 L1497.2 127.46 L1494.69 126.95 L1492.25 126.44 L1489.88 125.931 L1487.57 125.421 L1485.3 124.912 L1483.06 124.402 L1480.79 123.892 L1478.46 123.383 L1476.05 122.873 L1473.52 122.364 L1470.85 121.854 L1468.05 121.344 L1465.12 120.835 L1462.09 120.325 L1458.99 119.816 L1455.87 119.306 L1452.76 118.797 L1449.73 118.287 L1446.81 117.777 L1444.05 117.268 L1441.48 116.758 L1439.12 116.249 L1436.99 115.739 L1435.08 115.229 L1433.41 114.72 L1431.96 114.21 L1430.71 113.701 L1429.66 113.191 L1428.77 112.681 L1428.05 112.172 L1427.46 111.662 L1426.98 111.153 L1426.61 110.643 L1426.31 110.133 L1426.06 109.624 L1425.85 109.114 L1425.66 108.605 L1425.45 108.095 L1425.22 107.585 L1424.94 107.076 L1424.6 106.566 L1424.18 106.057 L1423.69 105.547 L1423.12 105.037 L1422.48 104.528 L1421.76 104.018 L1421 103.509 L1420.2 102.999 L1419.39 102.489 L1418.57 101.98 L1417.77 101.47 L1417.01 100.961 L1416.3 100.451 L1415.65 99.9415 L1415.07 99.4319 L1414.55 98.9223 L1414.11 98.4127 L1413.74 97.9031 L1413.44 97.3935 L1413.2 96.8839 L1413.02 96.3743 L1412.88 95.8647 L1412.8 95.3551 L1412.75 94.8455 L1412.74 94.3359 L1412.77 93.8264 L1412.83 93.3168 L1412.91 92.8072 L1413.01 92.2976 L1413.12 91.788 L1413.24 91.2784 L1413.35 90.7688 L1413.44 90.2592 L1413.5 89.7496 L1413.52 89.24 L1413.49 88.7304 L1413.41 88.2208 L1405.25 88.2208 L1405.16 88.7304 L1405.14 89.24 L1405.16 89.7496 L1405.22 90.2592 L1405.31 90.7688 L1405.42 91.2784 L1405.54 91.788 L1405.65 92.2976 L1405.75 92.8072 L1405.83 93.3168 L1405.89 93.8264 L1405.91 94.3359 L1405.9 94.8455 L1405.86 95.3551 L1405.77 95.8647 L1405.64 96.3743 L1405.46 96.8839 L1405.22 97.3935 L1404.91 97.9031 L1404.54 98.4127 L1404.1 98.9223 L1403.59 99.4319 L1403.01 99.9415 L1402.35 100.451 L1401.64 100.961 L1400.88 101.47 L1400.08 101.98 L1399.27 102.489 L1398.45 102.999 L1397.65 103.509 L1396.89 104.018 L1396.18 104.528 L1395.53 105.037 L1394.96 105.547 L1394.47 106.057 L1394.06 106.566 L1393.72 107.076 L1393.44 107.585 L1393.2 108.095 L1393 108.605 L1392.8 109.114 L1392.59 109.624 L1392.35 110.133 L1392.05 110.643 L1391.67 111.153 L1391.2 111.662 L1390.61 112.172 L1389.88 112.681 L1389 113.191 L1387.95 113.701 L1386.7 114.21 L1385.25 114.72 L1383.57 115.229 L1381.67 115.739 L1379.54 116.249 L1377.18 116.758 L1374.6 117.268 L1371.84 117.777 L1368.93 118.287 L1365.89 118.797 L1362.79 119.306 L1359.66 119.816 L1356.56 120.325 L1353.53 120.835 L1350.6 121.344 L1347.8 121.854 L1345.14 122.364 L1342.61 122.873 L1340.19 123.383 L1337.87 123.892 L1335.6 124.402 L1333.35 124.912 L1331.09 125.421 L1328.78 125.931 L1326.4 126.44 L1323.96 126.95 L1321.45 127.46 L1318.9 127.969 L1316.33 128.479 L1313.77 128.988 L1311.28 129.498 L1308.88 130.008 L1306.62 130.517 L1304.52 131.027 L1302.59 131.536 L1300.83 132.046 L1299.23 132.556 L1297.75 133.065 L1296.34 133.575 L1294.92 134.084 L1293.44 134.594 L1291.78 135.104 L1289.87 135.613 L1287.62 136.123 L1284.95 136.632 L1281.8 137.142 L1278.15 137.652 L1273.97 138.161 L1269.3 138.671 L1264.17 139.18 L1258.67 139.69 L1252.89 140.2 L1246.94 140.709 L1240.94 141.219 L1235.02 141.728 L1229.3 142.238 L1223.89 142.747 L1218.88 143.257 L1214.36 143.767 L1210.4 144.276 L1207.07 144.786 L1204.42 145.295 L1202.51 145.805 L1201.4 146.315 L1201.16 146.824 L1201.84 147.334 L1203.5 147.843 L1206.22 148.353 L1210.05 148.863 L1215.01 149.372 L1221.12 149.882 L1228.37 150.391 L1236.71 150.901 L1246.03 151.411 L1256.23 151.92 L1267.14 152.43 L1278.56 152.939 L1290.3 153.449 L1302.14 153.959 L1313.85 154.468 L1325.24 154.978 L1336.1 155.487 L1346.28 155.997 L1355.67 156.507 L1364.17 157.016 L1371.74 157.526 L1378.37 158.035 L1384.08 158.545 L1388.92 159.055 L1392.97 159.564 L1396.3 160.074 L1422.36 160.074  Z" fill="#e26f46" fill-rule="evenodd" fill-opacity="1"/>
<polyline clip-path="url(#clip222)" style="stroke:#000000; stroke-linecap:round; stroke-linejoin:round; stroke-width:4; stroke-opacity:1; fill:none" points="1422.36,160.074 1425.69,159.564 1429.73,159.055 1434.57,158.545 1440.28,158.035 1446.91,157.526 1454.48,157.016 1462.98,156.507 1472.37,155.997 1482.56,155.487 1493.42,154.978 1504.8,154.468 1516.51,153.959 1528.35,153.449 1540.09,152.939 1551.52,152.43 1562.43,151.92 1572.62,151.411 1581.95,150.901 1590.28,150.391 1597.53,149.882 1603.65,149.372 1608.61,148.863 1612.43,148.353 1615.15,147.843 1616.82,147.334 1617.5,146.824 1617.25,146.315 1616.14,145.805 1614.24,145.295 1611.59,144.786 1608.26,144.276 1604.3,143.767 1599.78,143.257 1594.77,142.747 1589.35,142.238 1583.63,141.728 1577.71,141.219 1571.72,140.709 1565.77,140.2 1559.99,139.69 1554.49,139.18 1549.36,138.671 1544.68,138.161 1540.51,137.652 1536.85,137.142 1533.71,136.632 1531.04,136.123 1528.79,135.613 1526.88,135.104 1525.22,134.594 1523.73,134.084 1522.32,133.575 1520.91,133.065 1519.42,132.556 1517.82,132.046 1516.07,131.536 1514.14,131.027 1512.03,130.517 1509.77,130.008 1507.38,129.498 1504.88,128.988 1502.33,128.479 1499.76,127.969 1497.2,127.46 1494.69,126.95 1492.25,126.44 1489.88,125.931 1487.57,125.421 1485.3,124.912 1483.06,124.402 1480.79,123.892 1478.46,123.383 1476.05,122.873 1473.52,122.364 1470.85,121.854 1468.05,121.344 1465.12,120.835 1462.09,120.325 1458.99,119.816 1455.87,119.306 1452.76,118.797 1449.73,118.287 1446.81,117.777 1444.05,117.268 1441.48,116.758 1439.12,116.249 1436.99,115.739 1435.08,115.229 1433.41,114.72 1431.96,114.21 1430.71,113.701 1429.66,113.191 1428.77,112.681 1428.05,112.172 1427.46,111.662 1426.98,111.153 1426.61,110.643 1426.31,110.133 1426.06,109.624 1425.85,109.114 1425.66,108.605 1425.45,108.095 1425.22,107.585 1424.94,107.076 1424.6,106.566 1424.18,106.057 1423.69,105.547 1423.12,105.037 1422.48,104.528 1421.76,104.018 1421,103.509 1420.2,102.999 1419.39,102.489 1418.57,101.98 1417.77,101.47 1417.01,100.961 1416.3,100.451 1415.65,99.9415 1415.07,99.4319 1414.55,98.9223 1414.11,98.4127 1413.74,97.9031 1413.44,97.3935 1413.2,96.8839 1413.02,96.3743 1412.88,95.8647 1412.8,95.3551 1412.75,94.8455 1412.74,94.3359 1412.77,93.8264 1412.83,93.3168 1412.91,92.8072 1413.01,92.2976 1413.12,91.788 1413.24,91.2784 1413.35,90.7688 1413.44,90.2592 1413.5,89.7496 1413.52,89.24 1413.49,88.7304 1413.41,88.2208 1405.25,88.2208 1405.16,88.7304 1405.14,89.24 1405.16,89.7496 1405.22,90.2592 1405.31,90.7688 1405.42,91.2784 1405.54,91.788 1405.65,92.2976 1405.75,92.8072 1405.83,93.3168 1405.89,93.8264 1405.91,94.3359 1405.9,94.8455 1405.86,95.3551 1405.77,95.8647 1405.64,96.3743 1405.46,96.8839 1405.22,97.3935 1404.91,97.9031 1404.54,98.4127 1404.1,98.9223 1403.59,99.4319 1403.01,99.9415 1402.35,100.451 1401.64,100.961 1400.88,101.47 1400.08,101.98 1399.27,102.489 1398.45,102.999 1397.65,103.509 1396.89,104.018 1396.18,104.528 1395.53,105.037 1394.96,105.547 1394.47,106.057 1394.06,106.566 1393.72,107.076 1393.44,107.585 1393.2,108.095 1393,108.605 1392.8,109.114 1392.59,109.624 1392.35,110.133 1392.05,110.643 1391.67,111.153 1391.2,111.662 1390.61,112.172 1389.88,112.681 1389,113.191 1387.95,113.701 1386.7,114.21 1385.25,114.72 1383.57,115.229 1381.67,115.739 1379.54,116.249 1377.18,116.758 1374.6,117.268 1371.84,117.777 1368.93,118.287 1365.89,118.797 1362.79,119.306 1359.66,119.816 1356.56,120.325 1353.53,120.835 1350.6,121.344 1347.8,121.854 1345.14,122.364 1342.61,122.873 1340.19,123.383 1337.87,123.892 1335.6,124.402 1333.35,124.912 1331.09,125.421 1328.78,125.931 1326.4,126.44 1323.96,126.95 1321.45,127.46 1318.9,127.969 1316.33,128.479 1313.77,128.988 1311.28,129.498 1308.88,130.008 1306.62,130.517 1304.52,131.027 1302.59,131.536 1300.83,132.046 1299.23,132.556 1297.75,133.065 1296.34,133.575 1294.92,134.084 1293.44,134.594 1291.78,135.104 1289.87,135.613 1287.62,136.123 1284.95,136.632 1281.8,137.142 1278.15,137.652 1273.97,138.161 1269.3,138.671 1264.17,139.18 1258.67,139.69 1252.89,140.2 1246.94,140.709 1240.94,141.219 1235.02,141.728 1229.3,142.238 1223.89,142.747 1218.88,143.257 1214.36,143.767 1210.4,144.276 1207.07,144.786 1204.42,145.295 1202.51,145.805 1201.4,146.315 1201.16,146.824 1201.84,147.334 1203.5,147.843 1206.22,148.353 1210.05,148.863 1215.01,149.372 1221.12,149.882 1228.37,150.391 1236.71,150.901 1246.03,151.411 1256.23,151.92 1267.14,152.43 1278.56,152.939 1290.3,153.449 1302.14,153.959 1313.85,154.468 1325.24,154.978 1336.1,155.487 1346.28,155.997 1355.67,156.507 1364.17,157.016 1371.74,157.526 1378.37,158.035 1384.08,158.545 1388.92,159.055 1392.97,159.564 1396.3,160.074 1422.36,160.074 "/>
<path clip-path="url(#clip222)" d="M2194.72 967.676 L2223 966.872 L2253.72 966.068 L2282.96 965.264 L2307.64 964.46 L2326.33 963.656 L2338.75 962.852 L2345.16 962.049 L2346.1 961.245 L2342.65 960.441 L2336.37 959.637 L2328.85 958.833 L2321.43 958.029 L2314.88 957.225 L2309.3 956.421 L2304.1 955.617 L2298.38 954.814 L2291.3 954.01 L2282.39 953.206 L2271.63 952.402 L2259.3 951.598 L2245.94 950.794 L2232.32 949.99 L2219.39 949.186 L2207.95 948.382 L2198.24 947.578 L2189.77 946.775 L2181.79 945.971 L2173.96 945.167 L2166.74 944.363 L2161.11 943.559 L2157.9 942.755 L2157.1 941.951 L2157.76 941.147 L2158.55 940.343 L2158.55 939.539 L2157.62 938.736 L2156.18 937.932 L2154.67 937.128 L2153.19 936.324 L2151.58 935.52 L2149.74 934.716 L2147.86 933.912 L2146.34 933.108 L2145.46 932.304 L2145.18 931.5 L2145.2 930.697 L2145.21 929.893 L2145.25 929.089 L2145.53 928.285 L2146.17 927.481 L2146.87 926.677 L2147.14 925.873 L2146.69 925.069 L2145.63 924.265 L2144.3 923.461 L2143 922.658 L2141.87 921.854 L2140.97 921.05 L2140.35 920.246 L2139.98 919.442 L2139.71 918.638 L2139.4 917.834 L2139.03 917.03 L2138.65 916.226 L2138.39 915.422 L2138.32 914.619 L2138.45 913.815 L2138.74 913.011 L2139.08 912.207 L2139.32 911.403 L2139.33 910.599 L2139.12 909.795 L2138.77 908.991 L2138.43 908.187 L2138.17 907.383 L2138.03 906.58 L2137.96 905.776 L2137.94 904.972 L2137.93 904.168 L2137.93 903.364 L2137.94 902.56 L2137.97 901.756 L2138.05 900.952 L2138.22 900.148 L2138.5 899.344 L2138.86 898.541 L2139.19 897.737 L2139.36 896.933 L2139.28 896.129 L2139 895.325 L2138.63 894.521 L2138.32 893.717 L2138.11 892.913 L2137.99 892.109 L2137.95 891.305 L2137.93 890.502 L2137.93 889.698 L2137.92 888.894 L2137.92 888.09 L2137.92 887.286 L2137.92 886.482 L2137.92 885.678 L2137.92 884.874 L2137.92 884.07 L2137.92 883.266 L2137.92 882.463 L2137.92 881.659 L2137.92 880.855 L2137.92 880.051 L2137.92 879.247 L2137.92 878.443 L2137.92 877.639 L2137.92 876.835 L2137.92 876.031 L2137.92 875.228 L2137.92 874.424 L2137.92 873.62 L2137.92 872.816 L2137.92 872.012 L2137.92 871.208 L2137.92 870.404 L2137.92 869.6 L2137.92 868.796 L2137.92 867.992 L2137.92 867.189 L2137.92 866.385 L2137.92 865.581 L2137.92 864.777 L2137.92 863.973 L2137.92 863.169 L2137.92 862.365 L2137.92 861.561 L2137.92 860.757 L2137.92 859.953 L2137.92 859.15 L2137.92 858.346 L2137.92 857.542 L2137.92 856.738 L2137.92 855.934 L2137.92 855.13 L2137.92 854.326 L2137.92 853.522 L2137.92 852.718 L2137.92 851.914 L2137.92 851.111 L2137.92 850.307 L2137.92 849.503 L2137.92 848.699 L2137.92 847.895 L2137.92 847.091 L2137.92 846.287 L2137.92 845.483 L2137.92 844.679 L2137.92 843.875 L2137.92 843.072 L2137.92 842.268 L2137.92 841.464 L2137.92 840.66 L2137.92 839.856 L2137.92 839.052 L2137.92 838.248 L2137.92 837.444 L2137.92 836.64 L2137.92 835.836 L2137.92 835.033 L2137.92 834.229 L2137.92 833.425 L2137.92 832.621 L2137.92 831.817 L2137.92 831.013 L2137.93 830.209 L2137.93 829.405 L2137.95 828.601 L2138 827.797 L2138.12 826.994 L2138.34 826.19 L2138.67 825.386 L2139.03 824.582 L2139.3 823.778 L2136.55 823.778 L2136.82 824.582 L2137.18 825.386 L2137.51 826.19 L2137.73 826.994 L2137.85 827.797 L2137.9 828.601 L2137.92 829.405 L2137.92 830.209 L2137.92 831.013 L2137.92 831.817 L2137.92 832.621 L2137.92 833.425 L2137.92 834.229 L2137.92 835.033 L2137.92 835.836 L2137.92 836.64 L2137.92 837.444 L2137.92 838.248 L2137.92 839.052 L2137.92 839.856 L2137.92 840.66 L2137.92 841.464 L2137.92 842.268 L2137.92 843.072 L2137.92 843.875 L2137.92 844.679 L2137.92 845.483 L2137.92 846.287 L2137.92 847.091 L2137.92 847.895 L2137.92 848.699 L2137.92 849.503 L2137.92 850.307 L2137.92 851.111 L2137.92 851.914 L2137.92 852.718 L2137.92 853.522 L2137.92 854.326 L2137.92 855.13 L2137.92 855.934 L2137.92 856.738 L2137.92 857.542 L2137.92 858.346 L2137.92 859.15 L2137.92 859.953 L2137.92 860.757 L2137.92 861.561 L2137.92 862.365 L2137.92 863.169 L2137.92 863.973 L2137.92 864.777 L2137.92 865.581 L2137.92 866.385 L2137.92 867.189 L2137.92 867.992 L2137.92 868.796 L2137.92 869.6 L2137.92 870.404 L2137.92 871.208 L2137.92 872.012 L2137.92 872.816 L2137.92 873.62 L2137.92 874.424 L2137.92 875.228 L2137.92 876.031 L2137.92 876.835 L2137.92 877.639 L2137.92 878.443 L2137.92 879.247 L2137.92 880.051 L2137.92 880.855 L2137.92 881.659 L2137.92 882.463 L2137.92 883.266 L2137.92 884.07 L2137.92 884.874 L2137.92 885.678 L2137.92 886.482 L2137.92 887.286 L2137.92 888.09 L2137.92 888.894 L2137.92 889.698 L2137.92 890.502 L2137.9 891.305 L2137.85 892.109 L2137.74 892.913 L2137.53 893.717 L2137.22 894.521 L2136.85 895.325 L2136.56 896.129 L2136.49 896.933 L2136.65 897.737 L2136.99 898.541 L2137.35 899.344 L2137.63 900.148 L2137.8 900.952 L2137.88 901.756 L2137.91 902.56 L2137.92 903.364 L2137.92 904.168 L2137.91 904.972 L2137.89 905.776 L2137.82 906.58 L2137.67 907.383 L2137.42 908.187 L2137.08 908.991 L2136.73 909.795 L2136.52 910.599 L2136.53 911.403 L2136.77 912.207 L2137.11 913.011 L2137.4 913.815 L2137.53 914.619 L2137.46 915.422 L2137.2 916.226 L2136.82 917.03 L2136.44 917.834 L2136.14 918.638 L2135.87 919.442 L2135.5 920.246 L2134.88 921.05 L2133.98 921.854 L2132.85 922.658 L2131.55 923.461 L2130.22 924.265 L2129.16 925.069 L2128.71 925.873 L2128.98 926.677 L2129.68 927.481 L2130.32 928.285 L2130.6 929.089 L2130.64 929.893 L2130.65 930.697 L2130.67 931.5 L2130.39 932.304 L2129.51 933.108 L2127.99 933.912 L2126.11 934.716 L2124.27 935.52 L2122.66 936.324 L2121.18 937.128 L2119.67 937.932 L2118.23 938.736 L2117.3 939.539 L2117.29 940.343 L2118.09 941.147 L2118.75 941.951 L2117.95 942.755 L2114.74 943.559 L2109.11 944.363 L2101.89 945.167 L2094.06 945.971 L2086.07 946.775 L2077.6 947.578 L2067.9 948.382 L2056.46 949.186 L2043.53 949.99 L2029.91 950.794 L2016.55 951.598 L2004.22 952.402 L1993.46 953.206 L1984.55 954.01 L1977.47 954.814 L1971.75 955.617 L1966.55 956.421 L1960.97 957.225 L1954.42 958.029 L1947 958.833 L1939.48 959.637 L1933.2 960.441 L1929.75 961.245 L1930.69 962.049 L1937.1 962.852 L1949.52 963.656 L1968.21 964.46 L1992.89 965.264 L2022.13 966.068 L2052.85 966.872 L2081.13 967.676 L2194.72 967.676  Z" fill="#3da44d" fill-rule="evenodd" fill-opacity="1"/>
<polyline clip-path="url(#clip222)" style="stroke:#000000; stroke-linecap:round; stroke-linejoin:round; stroke-width:4; stroke-opacity:1; fill:none" points="2194.72,967.676 2223,966.872 2253.72,966.068 2282.96,965.264 2307.64,964.46 2326.33,963.656 2338.75,962.852 2345.16,962.049 2346.1,961.245 2342.65,960.441 2336.37,959.637 2328.85,958.833 2321.43,958.029 2314.88,957.225 2309.3,956.421 2304.1,955.617 2298.38,954.814 2291.3,954.01 2282.39,953.206 2271.63,952.402 2259.3,951.598 2245.94,950.794 2232.32,949.99 2219.39,949.186 2207.95,948.382 2198.24,947.578 2189.77,946.775 2181.79,945.971 2173.96,945.167 2166.74,944.363 2161.11,943.559 2157.9,942.755 2157.1,941.951 2157.76,941.147 2158.55,940.343 2158.55,939.539 2157.62,938.736 2156.18,937.932 2154.67,937.128 2153.19,936.324 2151.58,935.52 2149.74,934.716 2147.86,933.912 2146.34,933.108 2145.46,932.304 2145.18,931.5 2145.2,930.697 2145.21,929.893 2145.25,929.089 2145.53,928.285 2146.17,927.481 2146.87,926.677 2147.14,925.873 2146.69,925.069 2145.63,924.265 2144.3,923.461 2143,922.658 2141.87,921.854 2140.97,921.05 2140.35,920.246 2139.98,919.442 2139.71,918.638 2139.4,917.834 2139.03,917.03 2138.65,916.226 2138.39,915.422 2138.32,914.619 2138.45,913.815 2138.74,913.011 2139.08,912.207 2139.32,911.403 2139.33,910.599 2139.12,909.795 2138.77,908.991 2138.43,908.187 2138.17,907.383 2138.03,906.58 2137.96,905.776 2137.94,904.972 2137.93,904.168 2137.93,903.364 2137.94,902.56 2137.97,901.756 2138.05,900.952 2138.22,900.148 2138.5,899.344 2138.86,898.541 2139.19,897.737 2139.36,896.933 2139.28,896.129 2139,895.325 2138.63,894.521 2138.32,893.717 2138.11,892.913 2137.99,892.109 2137.95,891.305 2137.93,890.502 2137.93,889.698 2137.92,888.894 2137.92,888.09 2137.92,887.286 2137.92,886.482 2137.92,885.678 2137.92,884.874 2137.92,884.07 2137.92,883.266 2137.92,882.463 2137.92,881.659 2137.92,880.855 2137.92,880.051 2137.92,879.247 2137.92,878.443 2137.92,877.639 2137.92,876.835 2137.92,876.031 2137.92,875.228 2137.92,874.424 2137.92,873.62 2137.92,872.816 2137.92,872.012 2137.92,871.208 2137.92,870.404 2137.92,869.6 2137.92,868.796 2137.92,867.992 2137.92,867.189 2137.92,866.385 2137.92,865.581 2137.92,864.777 2137.92,863.973 2137.92,863.169 2137.92,862.365 2137.92,861.561 2137.92,860.757 2137.92,859.953 2137.92,859.15 2137.92,858.346 2137.92,857.542 2137.92,856.738 2137.92,855.934 2137.92,855.13 2137.92,854.326 2137.92,853.522 2137.92,852.718 2137.92,851.914 2137.92,851.111 2137.92,850.307 2137.92,849.503 2137.92,848.699 2137.92,847.895 2137.92,847.091 2137.92,846.287 2137.92,845.483 2137.92,844.679 2137.92,843.875 2137.92,843.072 2137.92,842.268 2137.92,841.464 2137.92,840.66 2137.92,839.856 2137.92,839.052 2137.92,838.248 2137.92,837.444 2137.92,836.64 2137.92,835.836 2137.92,835.033 2137.92,834.229 2137.92,833.425 2137.92,832.621 2137.92,831.817 2137.92,831.013 2137.93,830.209 2137.93,829.405 2137.95,828.601 2138,827.797 2138.12,826.994 2138.34,826.19 2138.67,825.386 2139.03,824.582 2139.3,823.778 2136.55,823.778 2136.82,824.582 2137.18,825.386 2137.51,826.19 2137.73,826.994 2137.85,827.797 2137.9,828.601 2137.92,829.405 2137.92,830.209 2137.92,831.013 2137.92,831.817 2137.92,832.621 2137.92,833.425 2137.92,834.229 2137.92,835.033 2137.92,835.836 2137.92,836.64 2137.92,837.444 2137.92,838.248 2137.92,839.052 2137.92,839.856 2137.92,840.66 2137.92,841.464 2137.92,842.268 2137.92,843.072 2137.92,843.875 2137.92,844.679 2137.92,845.483 2137.92,846.287 2137.92,847.091 2137.92,847.895 2137.92,848.699 2137.92,849.503 2137.92,850.307 2137.92,851.111 2137.92,851.914 2137.92,852.718 2137.92,853.522 2137.92,854.326 2137.92,855.13 2137.92,855.934 2137.92,856.738 2137.92,857.542 2137.92,858.346 2137.92,859.15 2137.92,859.953 2137.92,860.757 2137.92,861.561 2137.92,862.365 2137.92,863.169 2137.92,863.973 2137.92,864.777 2137.92,865.581 2137.92,866.385 2137.92,867.189 2137.92,867.992 2137.92,868.796 2137.92,869.6 2137.92,870.404 2137.92,871.208 2137.92,872.012 2137.92,872.816 2137.92,873.62 2137.92,874.424 2137.92,875.228 2137.92,876.031 2137.92,876.835 2137.92,877.639 2137.92,878.443 2137.92,879.247 2137.92,880.051 2137.92,880.855 2137.92,881.659 2137.92,882.463 2137.92,883.266 2137.92,884.07 2137.92,884.874 2137.92,885.678 2137.92,886.482 2137.92,887.286 2137.92,888.09 2137.92,888.894 2137.92,889.698 2137.92,890.502 2137.9,891.305 2137.85,892.109 2137.74,892.913 2137.53,893.717 2137.22,894.521 2136.85,895.325 2136.56,896.129 2136.49,896.933 2136.65,897.737 2136.99,898.541 2137.35,899.344 2137.63,900.148 2137.8,900.952 2137.88,901.756 2137.91,902.56 2137.92,903.364 2137.92,904.168 2137.91,904.972 2137.89,905.776 2137.82,906.58 2137.67,907.383 2137.42,908.187 2137.08,908.991 2136.73,909.795 2136.52,910.599 2136.53,911.403 2136.77,912.207 2137.11,913.011 2137.4,913.815 2137.53,914.619 2137.46,915.422 2137.2,916.226 2136.82,917.03 2136.44,917.834 2136.14,918.638 2135.87,919.442 2135.5,920.246 2134.88,921.05 2133.98,921.854 2132.85,922.658 2131.55,923.461 2130.22,924.265 2129.16,925.069 2128.71,925.873 2128.98,926.677 2129.68,927.481 2130.32,928.285 2130.6,929.089 2130.64,929.893 2130.65,930.697 2130.67,931.5 2130.39,932.304 2129.51,933.108 2127.99,933.912 2126.11,934.716 2124.27,935.52 2122.66,936.324 2121.18,937.128 2119.67,937.932 2118.23,938.736 2117.3,939.539 2117.29,940.343 2118.09,941.147 2118.75,941.951 2117.95,942.755 2114.74,943.559 2109.11,944.363 2101.89,945.167 2094.06,945.971 2086.07,946.775 2077.6,947.578 2067.9,948.382 2056.46,949.186 2043.53,949.99 2029.91,950.794 2016.55,951.598 2004.22,952.402 1993.46,953.206 1984.55,954.01 1977.47,954.814 1971.75,955.617 1966.55,956.421 1960.97,957.225 1954.42,958.029 1947,958.833 1939.48,959.637 1933.2,960.441 1929.75,961.245 1930.69,962.049 1937.1,962.852 1949.52,963.656 1968.21,964.46 1992.89,965.264 2022.13,966.068 2052.85,966.872 2081.13,967.676 2194.72,967.676 "/>
<path clip-path="url(#clip222)" d="M2877.93 578.213 L2891.57 576.413 L2918.59 574.614 L2959.38 572.814 L3006.45 571.015 L3050.49 569.215 L3074.69 567.416 L3072.4 565.616 L3049.7 563.816 L3023.17 562.017 L3001.36 560.217 L2975.48 558.418 L2949.37 556.618 L2923.7 554.819 L2903.68 553.019 L2895.04 551.219 L2889.61 549.42 L2887.04 547.62 L2886.53 545.821 L2884.26 544.021 L2881.71 542.222 L2880.64 540.422 L2879.63 538.622 L2876.44 536.823 L2872.75 535.023 L2870.9 533.224 L2869.98 531.424 L2869.6 529.625 L2870.3 527.825 L2870.98 526.025 L2870.98 524.226 L2870.16 522.426 L2868.31 520.627 L2866.94 518.827 L2866.56 517.028 L2866.52 515.228 L2866.52 513.428 L2866.54 511.629 L2866.75 509.829 L2867.48 508.03 L2868.23 506.23 L2867.91 504.431 L2867.06 502.631 L2866.62 500.831 L2866.53 499.032 L2866.52 497.232 L2866.52 495.433 L2866.52 493.633 L2866.52 491.833 L2866.52 490.034 L2866.52 488.234 L2866.52 486.435 L2866.54 484.635 L2866.74 482.836 L2867.46 481.036 L2868.22 479.236 L2867.92 477.437 L2867.08 475.637 L2866.63 473.838 L2866.53 472.038 L2866.52 470.239 L2866.52 468.439 L2866.52 466.639 L2866.52 464.84 L2866.53 463.04 L2866.64 461.241 L2867.12 459.441 L2867.96 457.642 L2868.18 455.842 L2867.41 454.042 L2866.73 452.243 L2866.54 450.443 L2866.52 448.644 L2866.52 446.844 L2866.54 445.045 L2866.7 443.245 L2867.32 441.445 L2868.11 439.646 L2868.03 437.846 L2867.21 436.047 L2866.67 434.247 L2866.53 432.448 L2866.52 430.648 L2866.52 428.848 L2866.52 427.049 L2866.52 425.249 L2866.52 423.45 L2866.52 421.65 L2866.52 419.851 L2866.52 418.051 L2866.52 416.251 L2866.52 414.452 L2866.52 412.652 L2866.52 410.853 L2866.52 409.053 L2866.52 407.254 L2866.52 405.454 L2866.52 403.654 L2866.52 401.855 L2866.52 400.055 L2866.52 398.256 L2866.52 396.456 L2866.52 394.656 L2866.52 392.857 L2866.52 391.057 L2866.52 389.258 L2866.52 387.458 L2866.52 385.659 L2866.52 383.859 L2866.52 382.059 L2866.52 380.26 L2866.52 378.46 L2866.52 376.661 L2866.52 374.861 L2866.52 373.062 L2866.52 371.262 L2866.52 369.462 L2866.52 367.663 L2866.52 365.863 L2866.52 364.064 L2866.52 362.264 L2866.52 360.465 L2866.52 358.665 L2866.52 356.865 L2866.52 355.066 L2866.52 353.266 L2866.52 351.467 L2866.52 349.667 L2866.52 347.868 L2866.52 346.068 L2866.52 344.268 L2866.52 342.469 L2866.52 340.669 L2866.52 338.87 L2866.52 337.07 L2866.52 335.271 L2866.52 333.471 L2866.52 331.671 L2866.52 329.872 L2866.52 328.072 L2866.52 326.273 L2866.52 324.473 L2866.52 322.674 L2866.52 320.874 L2866.52 319.074 L2866.52 317.275 L2866.52 315.475 L2866.52 313.676 L2866.52 311.876 L2866.53 310.076 L2866.62 308.277 L2867.05 306.477 L2867.9 304.678 L2868.24 302.878 L2867.49 301.079 L2866.75 299.279 L2866.54 297.479 L2866.52 295.68 L2866.52 293.88 L2866.52 292.081 L2866.52 290.281 L2866.52 288.482 L2866.52 286.682 L2866.52 284.882 L2866.52 283.083 L2866.52 281.283 L2866.52 279.484 L2866.52 277.684 L2866.52 275.885 L2866.52 274.085 L2866.52 272.285 L2866.52 270.486 L2866.52 268.686 L2866.52 266.887 L2866.52 265.087 L2866.52 263.288 L2866.52 261.488 L2866.52 259.688 L2866.52 257.889 L2866.52 256.089 L2866.52 254.29 L2866.52 252.49 L2866.52 250.691 L2866.52 248.891 L2866.52 247.091 L2866.52 245.292 L2866.53 243.492 L2866.59 241.693 L2866.95 239.893 L2867.82 238.094 L2865.22 238.094 L2866.09 239.893 L2866.45 241.693 L2866.52 243.492 L2866.52 245.292 L2866.52 247.091 L2866.52 248.891 L2866.52 250.691 L2866.52 252.49 L2866.52 254.29 L2866.52 256.089 L2866.52 257.889 L2866.52 259.688 L2866.52 261.488 L2866.52 263.288 L2866.52 265.087 L2866.52 266.887 L2866.52 268.686 L2866.52 270.486 L2866.52 272.285 L2866.52 274.085 L2866.52 275.885 L2866.52 277.684 L2866.52 279.484 L2866.52 281.283 L2866.52 283.083 L2866.52 284.882 L2866.52 286.682 L2866.52 288.482 L2866.52 290.281 L2866.52 292.081 L2866.52 293.88 L2866.52 295.68 L2866.5 297.479 L2866.29 299.279 L2865.56 301.079 L2864.8 302.878 L2865.14 304.678 L2866 306.477 L2866.42 308.277 L2866.51 310.076 L2866.52 311.876 L2866.52 313.676 L2866.52 315.475 L2866.52 317.275 L2866.52 319.074 L2866.52 320.874 L2866.52 322.674 L2866.52 324.473 L2866.52 326.273 L2866.52 328.072 L2866.52 329.872 L2866.52 331.671 L2866.52 333.471 L2866.52 335.271 L2866.52 337.07 L2866.52 338.87 L2866.52 340.669 L2866.52 342.469 L2866.52 344.268 L2866.52 346.068 L2866.52 347.868 L2866.52 349.667 L2866.52 351.467 L2866.52 353.266 L2866.52 355.066 L2866.52 356.865 L2866.52 358.665 L2866.52 360.465 L2866.52 362.264 L2866.52 364.064 L2866.52 365.863 L2866.52 367.663 L2866.52 369.462 L2866.52 371.262 L2866.52 373.062 L2866.52 374.861 L2866.52 376.661 L2866.52 378.46 L2866.52 380.26 L2866.52 382.059 L2866.52 383.859 L2866.52 385.659 L2866.52 387.458 L2866.52 389.258 L2866.52 391.057 L2866.52 392.857 L2866.52 394.656 L2866.52 396.456 L2866.52 398.256 L2866.52 400.055 L2866.52 401.855 L2866.52 403.654 L2866.52 405.454 L2866.52 407.254 L2866.52 409.053 L2866.52 410.853 L2866.52 412.652 L2866.52 414.452 L2866.52 416.251 L2866.52 418.051 L2866.52 419.851 L2866.52 421.65 L2866.52 423.45 L2866.52 425.249 L2866.52 427.049 L2866.52 428.848 L2866.52 430.648 L2866.51 432.448 L2866.38 434.247 L2865.83 436.047 L2865.02 437.846 L2864.93 439.646 L2865.72 441.445 L2866.34 443.245 L2866.5 445.045 L2866.52 446.844 L2866.52 448.644 L2866.5 450.443 L2866.32 452.243 L2865.63 454.042 L2864.86 455.842 L2865.08 457.642 L2865.92 459.441 L2866.4 461.241 L2866.51 463.04 L2866.52 464.84 L2866.52 466.639 L2866.52 468.439 L2866.52 470.239 L2866.51 472.038 L2866.41 473.838 L2865.96 475.637 L2865.12 477.437 L2864.83 479.236 L2865.59 481.036 L2866.3 482.836 L2866.5 484.635 L2866.52 486.435 L2866.52 488.234 L2866.52 490.034 L2866.52 491.833 L2866.52 493.633 L2866.52 495.433 L2866.52 497.232 L2866.51 499.032 L2866.42 500.831 L2865.99 502.631 L2865.14 504.431 L2864.81 506.23 L2865.57 508.03 L2866.3 509.829 L2866.5 511.629 L2866.52 513.428 L2866.52 515.228 L2866.48 517.028 L2866.11 518.827 L2864.73 520.627 L2862.88 522.426 L2862.06 524.226 L2862.07 526.025 L2862.74 527.825 L2863.45 529.625 L2863.06 531.424 L2862.15 533.224 L2860.29 535.023 L2856.6 536.823 L2853.42 538.622 L2852.4 540.422 L2851.33 542.222 L2848.79 544.021 L2846.51 545.821 L2846 547.62 L2843.43 549.42 L2838.01 551.219 L2829.36 553.019 L2809.34 554.819 L2783.67 556.618 L2757.56 558.418 L2731.68 560.217 L2709.87 562.017 L2683.34 563.816 L2660.64 565.616 L2658.35 567.416 L2682.55 569.215 L2726.6 571.015 L2773.66 572.814 L2814.46 574.614 L2841.47 576.413 L2855.11 578.213 L2877.93 578.213  Z" fill="#c271d2" fill-rule="evenodd" fill-opacity="1"/>
<polyline clip-path="url(#clip222)" style="stroke:#000000; stroke-linecap:round; stroke-linejoin:round; stroke-width:4; stroke-opacity:1; fill:none" points="2877.93,578.213 2891.57,576.413 2918.59,574.614 2959.38,572.814 3006.45,571.015 3050.49,569.215 3074.69,567.416 3072.4,565.616 3049.7,563.816 3023.17,562.017 3001.36,560.217 2975.48,558.418 2949.37,556.618 2923.7,554.819 2903.68,553.019 2895.04,551.219 2889.61,549.42 2887.04,547.62 2886.53,545.821 2884.26,544.021 2881.71,542.222 2880.64,540.422 2879.63,538.622 2876.44,536.823 2872.75,535.023 2870.9,533.224 2869.98,531.424 2869.6,529.625 2870.3,527.825 2870.98,526.025 2870.98,524.226 2870.16,522.426 2868.31,520.627 2866.94,518.827 2866.56,517.028 2866.52,515.228 2866.52,513.428 2866.54,511.629 2866.75,509.829 2867.48,508.03 2868.23,506.23 2867.91,504.431 2867.06,502.631 2866.62,500.831 2866.53,499.032 2866.52,497.232 2866.52,495.433 2866.52,493.633 2866.52,491.833 2866.52,490.034 2866.52,488.234 2866.52,486.435 2866.54,484.635 2866.74,482.836 2867.46,481.036 2868.22,479.236 2867.92,477.437 2867.08,475.637 2866.63,473.838 2866.53,472.038 2866.52,470.239 2866.52,468.439 2866.52,466.639 2866.52,464.84 2866.53,463.04 2866.64,461.241 2867.12,459.441 2867.96,457.642 2868.18,455.842 2867.41,454.042 2866.73,452.243 2866.54,450.443 2866.52,448.644 2866.52,446.844 2866.54,445.045 2866.7,443.245 2867.32,441.445 2868.11,439.646 2868.03,437.846 2867.21,436.047 2866.67,434.247 2866.53,432.448 2866.52,430.648 2866.52,428.848 2866.52,427.049 2866.52,425.249 2866.52,423.45 2866.52,421.65 2866.52,419.851 2866.52,418.051 2866.52,416.251 2866.52,414.452 2866.52,412.652 2866.52,410.853 2866.52,409.053 2866.52,407.254 2866.52,405.454 2866.52,403.654 2866.52,401.855 2866.52,400.055 2866.52,398.256 2866.52,396.456 2866.52,394.656 2866.52,392.857 2866.52,391.057 2866.52,389.258 2866.52,387.458 2866.52,385.659 2866.52,383.859 2866.52,382.059 2866.52,380.26 2866.52,378.46 2866.52,376.661 2866.52,374.861 2866.52,373.062 2866.52,371.262 2866.52,369.462 2866.52,367.663 2866.52,365.863 2866.52,364.064 2866.52,362.264 2866.52,360.465 2866.52,358.665 2866.52,356.865 2866.52,355.066 2866.52,353.266 2866.52,351.467 2866.52,349.667 2866.52,347.868 2866.52,346.068 2866.52,344.268 2866.52,342.469 2866.52,340.669 2866.52,338.87 2866.52,337.07 2866.52,335.271 2866.52,333.471 2866.52,331.671 2866.52,329.872 2866.52,328.072 2866.52,326.273 2866.52,324.473 2866.52,322.674 2866.52,320.874 2866.52,319.074 2866.52,317.275 2866.52,315.475 2866.52,313.676 2866.52,311.876 2866.53,310.076 2866.62,308.277 2867.05,306.477 2867.9,304.678 2868.24,302.878 2867.49,301.079 2866.75,299.279 2866.54,297.479 2866.52,295.68 2866.52,293.88 2866.52,292.081 2866.52,290.281 2866.52,288.482 2866.52,286.682 2866.52,284.882 2866.52,283.083 2866.52,281.283 2866.52,279.484 2866.52,277.684 2866.52,275.885 2866.52,274.085 2866.52,272.285 2866.52,270.486 2866.52,268.686 2866.52,266.887 2866.52,265.087 2866.52,263.288 2866.52,261.488 2866.52,259.688 2866.52,257.889 2866.52,256.089 2866.52,254.29 2866.52,252.49 2866.52,250.691 2866.52,248.891 2866.52,247.091 2866.52,245.292 2866.53,243.492 2866.59,241.693 2866.95,239.893 2867.82,238.094 2865.22,238.094 2866.09,239.893 2866.45,241.693 2866.52,243.492 2866.52,245.292 2866.52,247.091 2866.52,248.891 2866.52,250.691 2866.52,252.49 2866.52,254.29 2866.52,256.089 2866.52,257.889 2866.52,259.688 2866.52,261.488 2866.52,263.288 2866.52,265.087 2866.52,266.887 2866.52,268.686 2866.52,270.486 2866.52,272.285 2866.52,274.085 2866.52,275.885 2866.52,277.684 2866.52,279.484 2866.52,281.283 2866.52,283.083 2866.52,284.882 2866.52,286.682 2866.52,288.482 2866.52,290.281 2866.52,292.081 2866.52,293.88 2866.52,295.68 2866.5,297.479 2866.29,299.279 2865.56,301.079 2864.8,302.878 2865.14,304.678 2866,306.477 2866.42,308.277 2866.51,310.076 2866.52,311.876 2866.52,313.676 2866.52,315.475 2866.52,317.275 2866.52,319.074 2866.52,320.874 2866.52,322.674 2866.52,324.473 2866.52,326.273 2866.52,328.072 2866.52,329.872 2866.52,331.671 2866.52,333.471 2866.52,335.271 2866.52,337.07 2866.52,338.87 2866.52,340.669 2866.52,342.469 2866.52,344.268 2866.52,346.068 2866.52,347.868 2866.52,349.667 2866.52,351.467 2866.52,353.266 2866.52,355.066 2866.52,356.865 2866.52,358.665 2866.52,360.465 2866.52,362.264 2866.52,364.064 2866.52,365.863 2866.52,367.663 2866.52,369.462 2866.52,371.262 2866.52,373.062 2866.52,374.861 2866.52,376.661 2866.52,378.46 2866.52,380.26 2866.52,382.059 2866.52,383.859 2866.52,385.659 2866.52,387.458 2866.52,389.258 2866.52,391.057 2866.52,392.857 2866.52,394.656 2866.52,396.456 2866.52,398.256 2866.52,400.055 2866.52,401.855 2866.52,403.654 2866.52,405.454 2866.52,407.254 2866.52,409.053 2866.52,410.853 2866.52,412.652 2866.52,414.452 2866.52,416.251 2866.52,418.051 2866.52,419.851 2866.52,421.65 2866.52,423.45 2866.52,425.249 2866.52,427.049 2866.52,428.848 2866.52,430.648 2866.51,432.448 2866.38,434.247 2865.83,436.047 2865.02,437.846 2864.93,439.646 2865.72,441.445 2866.34,443.245 2866.5,445.045 2866.52,446.844 2866.52,448.644 2866.5,450.443 2866.32,452.243 2865.63,454.042 2864.86,455.842 2865.08,457.642 2865.92,459.441 2866.4,461.241 2866.51,463.04 2866.52,464.84 2866.52,466.639 2866.52,468.439 2866.52,470.239 2866.51,472.038 2866.41,473.838 2865.96,475.637 2865.12,477.437 2864.83,479.236 2865.59,481.036 2866.3,482.836 2866.5,484.635 2866.52,486.435 2866.52,488.234 2866.52,490.034 2866.52,491.833 2866.52,493.633 2866.52,495.433 2866.52,497.232 2866.51,499.032 2866.42,500.831 2865.99,502.631 2865.14,504.431 2864.81,506.23 2865.57,508.03 2866.3,509.829 2866.5,511.629 2866.52,513.428 2866.52,515.228 2866.48,517.028 2866.11,518.827 2864.73,520.627 2862.88,522.426 2862.06,524.226 2862.07,526.025 2862.74,527.825 2863.45,529.625 2863.06,531.424 2862.15,533.224 2860.29,535.023 2856.6,536.823 2853.42,538.622 2852.4,540.422 2851.33,542.222 2848.79,544.021 2846.51,545.821 2846,547.62 2843.43,549.42 2838.01,551.219 2829.36,553.019 2809.34,554.819 2783.67,556.618 2757.56,558.418 2731.68,560.217 2709.87,562.017 2683.34,563.816 2660.64,565.616 2658.35,567.416 2682.55,569.215 2726.6,571.015 2773.66,572.814 2814.46,574.614 2841.47,576.413 2855.11,578.213 2877.93,578.213 "/>
</svg>
