<?xml version="1.0" encoding="utf-8"?>
<svg xmlns="http://www.w3.org/2000/svg" xmlns:xlink="http://www.w3.org/1999/xlink" width="800" height="400" viewBox="0 0 3200 1600">
<defs>
  <clipPath id="clip280">
    <rect x="0" y="0" width="3200" height="1600"/>
  </clipPath>
</defs>
<path clip-path="url(#clip280)" d="M0 1600 L3200 1600 L3200 0 L0 0  Z" fill="#ffffff" fill-rule="evenodd" fill-opacity="1"/>
<defs>
  <clipPath id="clip281">
    <rect x="640" y="0" width="2241" height="1600"/>
  </clipPath>
</defs>
<path clip-path="url(#clip280)" d="M365.777 1495.09 L3152.76 1495.09 L3152.76 47.2441 L365.777 47.2441  Z" fill="#ffffff" fill-rule="evenodd" fill-opacity="1"/>
<defs>
  <clipPath id="clip282">
    <rect x="365" y="47" width="2788" height="1449"/>
  </clipPath>
</defs>
<polyline clip-path="url(#clip282)" style="stroke:#000000; stroke-linecap:round; stroke-linejoin:round; stroke-width:2; stroke-opacity:0.1; fill:none" points="736.79,1495.09 736.79,47.2441 "/>
<polyline clip-path="url(#clip282)" style="stroke:#000000; stroke-linecap:round; stroke-linejoin:round; stroke-width:2; stroke-opacity:0.1; fill:none" points="1759.27,1495.09 1759.27,47.2441 "/>
<polyline clip-path="url(#clip282)" style="stroke:#000000; stroke-linecap:round; stroke-linejoin:round; stroke-width:2; stroke-opacity:0.1; fill:none" points="2781.74,1495.09 2781.74,47.2441 "/>
<polyline clip-path="url(#clip282)" style="stroke:#000000; stroke-linecap:round; stroke-linejoin:round; stroke-width:2; stroke-opacity:0.1; fill:none" points="365.777,1174.42 3152.76,1174.42 "/>
<polyline clip-path="url(#clip282)" style="stroke:#000000; stroke-linecap:round; stroke-linejoin:round; stroke-width:2; stroke-opacity:0.1; fill:none" points="365.777,853.333 3152.76,853.333 "/>
<polyline clip-path="url(#clip282)" style="stroke:#000000; stroke-linecap:round; stroke-linejoin:round; stroke-width:2; stroke-opacity:0.1; fill:none" points="365.777,532.244 3152.76,532.244 "/>
<polyline clip-path="url(#clip282)" style="stroke:#000000; stroke-linecap:round; stroke-linejoin:round; stroke-width:2; stroke-opacity:0.1; fill:none" points="365.777,211.154 3152.76,211.154 "/>
<polyline clip-path="url(#clip280)" style="stroke:#000000; stroke-linecap:round; stroke-linejoin:round; stroke-width:4; stroke-opacity:1; fill:none" points="365.777,1495.09 3152.76,1495.09 "/>
<polyline clip-path="url(#clip280)" style="stroke:#000000; stroke-linecap:round; stroke-linejoin:round; stroke-width:4; stroke-opacity:1; fill:none" points="736.79,1495.09 736.79,1476.19 "/>
<polyline clip-path="url(#clip280)" style="stroke:#000000; stroke-linecap:round; stroke-linejoin:round; stroke-width:4; stroke-opacity:1; fill:none" points="1759.27,1495.09 1759.27,1476.19 "/>
<polyline clip-path="url(#clip280)" style="stroke:#000000; stroke-linecap:round; stroke-linejoin:round; stroke-width:4; stroke-opacity:1; fill:none" points="2781.74,1495.09 2781.74,1476.19 "/>
<path clip-path="url(#clip280)" d="M516.56 1530.46 L516.56 1535.02 Q513.898 1533.75 511.537 1533.12 Q509.176 1532.5 506.976 1532.5 Q503.157 1532.5 501.074 1533.98 Q499.014 1535.46 499.014 1538.19 Q499.014 1540.49 500.379 1541.67 Q501.768 1542.82 505.611 1543.54 L508.435 1544.12 Q513.666 1545.11 516.143 1547.64 Q518.643 1550.14 518.643 1554.35 Q518.643 1559.37 515.263 1561.97 Q511.907 1564.56 505.402 1564.56 Q502.949 1564.56 500.171 1564 Q497.416 1563.45 494.453 1562.36 L494.453 1557.55 Q497.301 1559.14 500.032 1559.95 Q502.764 1560.76 505.402 1560.76 Q509.407 1560.76 511.583 1559.19 Q513.759 1557.61 513.759 1554.7 Q513.759 1552.15 512.185 1550.72 Q510.634 1549.28 507.069 1548.56 L504.222 1548.01 Q498.99 1546.97 496.652 1544.74 Q494.314 1542.52 494.314 1538.56 Q494.314 1533.98 497.532 1531.34 Q500.773 1528.7 506.444 1528.7 Q508.875 1528.7 511.398 1529.14 Q513.921 1529.58 516.56 1530.46 Z" fill="#000000" fill-rule="nonzero" fill-opacity="1" /><path clip-path="url(#clip280)" d="M536.536 1566.3 Q534.731 1570.92 533.018 1572.34 Q531.305 1573.75 528.435 1573.75 L525.032 1573.75 L525.032 1570.18 L527.532 1570.18 Q529.291 1570.18 530.263 1569.35 Q531.236 1568.52 532.416 1565.42 L533.18 1563.47 L522.694 1537.96 L527.208 1537.96 L535.31 1558.24 L543.411 1537.96 L547.925 1537.96 L536.536 1566.3 Z" fill="#000000" fill-rule="nonzero" fill-opacity="1" /><path clip-path="url(#clip280)" d="M573.99 1542.94 Q575.587 1540.07 577.809 1538.7 Q580.032 1537.34 583.041 1537.34 Q587.092 1537.34 589.291 1540.18 Q591.49 1543.01 591.49 1548.24 L591.49 1563.89 L587.207 1563.89 L587.207 1548.38 Q587.207 1544.65 585.888 1542.85 Q584.569 1541.04 581.86 1541.04 Q578.55 1541.04 576.629 1543.24 Q574.708 1545.44 574.708 1549.24 L574.708 1563.89 L570.425 1563.89 L570.425 1548.38 Q570.425 1544.63 569.106 1542.85 Q567.786 1541.04 565.032 1541.04 Q561.768 1541.04 559.847 1543.26 Q557.925 1545.46 557.925 1549.24 L557.925 1563.89 L553.643 1563.89 L553.643 1537.96 L557.925 1537.96 L557.925 1541.99 Q559.384 1539.61 561.421 1538.47 Q563.458 1537.34 566.259 1537.34 Q569.083 1537.34 571.05 1538.77 Q573.041 1540.21 573.99 1542.94 Z" fill="#000000" fill-rule="nonzero" fill-opacity="1" /><path clip-path="url(#clip280)" d="M618.596 1550.95 Q618.596 1546.25 616.652 1543.59 Q614.73 1540.9 611.351 1540.9 Q607.971 1540.9 606.027 1543.59 Q604.106 1546.25 604.106 1550.95 Q604.106 1555.65 606.027 1558.33 Q607.971 1560.99 611.351 1560.99 Q614.73 1560.99 616.652 1558.33 Q618.596 1555.65 618.596 1550.95 M604.106 1541.9 Q605.448 1539.58 607.485 1538.47 Q609.545 1537.34 612.393 1537.34 Q617.115 1537.34 620.055 1541.09 Q623.017 1544.84 623.017 1550.95 Q623.017 1557.06 620.055 1560.81 Q617.115 1564.56 612.393 1564.56 Q609.545 1564.56 607.485 1563.45 Q605.448 1562.31 604.106 1560 L604.106 1563.89 L599.823 1563.89 L599.823 1527.87 L604.106 1527.87 L604.106 1541.9 Z" fill="#000000" fill-rule="nonzero" fill-opacity="1" /><path clip-path="url(#clip280)" d="M640.124 1540.95 Q636.698 1540.95 634.707 1543.63 Q632.717 1546.3 632.717 1550.95 Q632.717 1555.6 634.684 1558.29 Q636.675 1560.95 640.124 1560.95 Q643.527 1560.95 645.517 1558.26 Q647.508 1555.58 647.508 1550.95 Q647.508 1546.34 645.517 1543.66 Q643.527 1540.95 640.124 1540.95 M640.124 1537.34 Q645.679 1537.34 648.851 1540.95 Q652.022 1544.56 652.022 1550.95 Q652.022 1557.31 648.851 1560.95 Q645.679 1564.56 640.124 1564.56 Q634.545 1564.56 631.374 1560.95 Q628.226 1557.31 628.226 1550.95 Q628.226 1544.56 631.374 1540.95 Q634.545 1537.34 640.124 1537.34 Z" fill="#000000" fill-rule="nonzero" fill-opacity="1" /><path clip-path="url(#clip280)" d="M659.082 1527.87 L663.341 1527.87 L663.341 1563.89 L659.082 1563.89 L659.082 1527.87 Z" fill="#000000" fill-rule="nonzero" fill-opacity="1" /><path clip-path="url(#clip280)" d="M672.253 1537.96 L676.513 1537.96 L676.513 1563.89 L672.253 1563.89 L672.253 1537.96 M672.253 1527.87 L676.513 1527.87 L676.513 1533.26 L672.253 1533.26 L672.253 1527.87 Z" fill="#000000" fill-rule="nonzero" fill-opacity="1" /><path clip-path="url(#clip280)" d="M704.082 1538.96 L704.082 1542.94 Q702.276 1541.94 700.448 1541.46 Q698.642 1540.95 696.79 1540.95 Q692.647 1540.95 690.355 1543.59 Q688.063 1546.2 688.063 1550.95 Q688.063 1555.69 690.355 1558.33 Q692.647 1560.95 696.79 1560.95 Q698.642 1560.95 700.448 1560.46 Q702.276 1559.95 704.082 1558.96 L704.082 1562.89 Q702.299 1563.73 700.378 1564.14 Q698.48 1564.56 696.327 1564.56 Q690.471 1564.56 687.022 1560.88 Q683.573 1557.2 683.573 1550.95 Q683.573 1544.61 687.045 1540.97 Q690.54 1537.34 696.605 1537.34 Q698.573 1537.34 700.448 1537.75 Q702.323 1538.15 704.082 1538.96 Z" fill="#000000" fill-rule="nonzero" fill-opacity="1" /><path clip-path="url(#clip280)" d="M736.79 1527.92 Q733.688 1533.24 732.184 1538.45 Q730.679 1543.66 730.679 1549 Q730.679 1554.35 732.184 1559.61 Q733.711 1564.84 736.79 1570.14 L733.086 1570.14 Q729.614 1564.7 727.878 1559.44 Q726.165 1554.19 726.165 1549 Q726.165 1543.84 727.878 1538.61 Q729.591 1533.38 733.086 1527.92 L736.79 1527.92 Z" fill="#000000" fill-rule="nonzero" fill-opacity="1" /><path clip-path="url(#clip280)" d="M756.836 1550.86 Q751.674 1550.86 749.683 1552.04 Q747.693 1553.22 747.693 1556.06 Q747.693 1558.33 749.174 1559.67 Q750.679 1560.99 753.248 1560.99 Q756.79 1560.99 758.92 1558.49 Q761.072 1555.97 761.072 1551.8 L761.072 1550.86 L756.836 1550.86 M765.332 1549.1 L765.332 1563.89 L761.072 1563.89 L761.072 1559.95 Q759.614 1562.31 757.438 1563.45 Q755.262 1564.56 752.114 1564.56 Q748.133 1564.56 745.771 1562.34 Q743.434 1560.09 743.434 1556.34 Q743.434 1551.97 746.35 1549.74 Q749.29 1547.52 755.1 1547.52 L761.072 1547.52 L761.072 1547.11 Q761.072 1544.17 759.128 1542.57 Q757.207 1540.95 753.711 1540.95 Q751.489 1540.95 749.383 1541.48 Q747.276 1542.01 745.332 1543.08 L745.332 1539.14 Q747.67 1538.24 749.869 1537.8 Q752.068 1537.34 754.151 1537.34 Q759.776 1537.34 762.554 1540.25 Q765.332 1543.17 765.332 1549.1 Z" fill="#000000" fill-rule="nonzero" fill-opacity="1" /><path clip-path="url(#clip280)" d="M773.665 1553.66 L773.665 1537.96 L777.924 1537.96 L777.924 1553.49 Q777.924 1557.17 779.359 1559.03 Q780.794 1560.86 783.665 1560.86 Q787.114 1560.86 789.105 1558.66 Q791.118 1556.46 791.118 1552.66 L791.118 1537.96 L795.378 1537.96 L795.378 1563.89 L791.118 1563.89 L791.118 1559.91 Q789.568 1562.27 787.507 1563.42 Q785.47 1564.56 782.762 1564.56 Q778.294 1564.56 775.98 1561.78 Q773.665 1559 773.665 1553.66 M784.382 1537.34 L784.382 1537.34 Z" fill="#000000" fill-rule="nonzero" fill-opacity="1" /><path clip-path="url(#clip280)" d="M808.364 1530.6 L808.364 1537.96 L817.137 1537.96 L817.137 1541.27 L808.364 1541.27 L808.364 1555.35 Q808.364 1558.52 809.22 1559.42 Q810.1 1560.32 812.762 1560.32 L817.137 1560.32 L817.137 1563.89 L812.762 1563.89 Q807.831 1563.89 805.956 1562.06 Q804.081 1560.21 804.081 1555.35 L804.081 1541.27 L800.956 1541.27 L800.956 1537.96 L804.081 1537.96 L804.081 1530.6 L808.364 1530.6 Z" fill="#000000" fill-rule="nonzero" fill-opacity="1" /><path clip-path="url(#clip280)" d="M832.785 1540.95 Q829.359 1540.95 827.368 1543.63 Q825.378 1546.3 825.378 1550.95 Q825.378 1555.6 827.345 1558.29 Q829.336 1560.95 832.785 1560.95 Q836.188 1560.95 838.178 1558.26 Q840.169 1555.58 840.169 1550.95 Q840.169 1546.34 838.178 1543.66 Q836.188 1540.95 832.785 1540.95 M832.785 1537.34 Q838.34 1537.34 841.512 1540.95 Q844.683 1544.56 844.683 1550.95 Q844.683 1557.31 841.512 1560.95 Q838.34 1564.56 832.785 1564.56 Q827.206 1564.56 824.035 1560.95 Q820.887 1557.31 820.887 1550.95 Q820.887 1544.56 824.035 1540.95 Q827.206 1537.34 832.785 1537.34 Z" fill="#000000" fill-rule="nonzero" fill-opacity="1" /><path clip-path="url(#clip280)" d="M851.512 1558.01 L856.396 1558.01 L856.396 1563.89 L851.512 1563.89 L851.512 1558.01 Z" fill="#000000" fill-rule="nonzero" fill-opacity="1" /><path clip-path="url(#clip280)" d="M898.109 1541.9 L898.109 1527.87 L902.368 1527.87 L902.368 1563.89 L898.109 1563.89 L898.109 1560 Q896.766 1562.31 894.706 1563.45 Q892.669 1564.56 889.798 1564.56 Q885.099 1564.56 882.136 1560.81 Q879.197 1557.06 879.197 1550.95 Q879.197 1544.84 882.136 1541.09 Q885.099 1537.34 889.798 1537.34 Q892.669 1537.34 894.706 1538.47 Q896.766 1539.58 898.109 1541.9 M883.595 1550.95 Q883.595 1555.65 885.516 1558.33 Q887.461 1560.99 890.84 1560.99 Q894.22 1560.99 896.164 1558.33 Q898.109 1555.65 898.109 1550.95 Q898.109 1546.25 896.164 1543.59 Q894.22 1540.9 890.84 1540.9 Q887.461 1540.9 885.516 1543.59 Q883.595 1546.25 883.595 1550.95 Z" fill="#000000" fill-rule="nonzero" fill-opacity="1" /><path clip-path="url(#clip280)" d="M911.141 1537.96 L915.4 1537.96 L915.4 1563.89 L911.141 1563.89 L911.141 1537.96 M911.141 1527.87 L915.4 1527.87 L915.4 1533.26 L911.141 1533.26 L911.141 1527.87 Z" fill="#000000" fill-rule="nonzero" fill-opacity="1" /><path clip-path="url(#clip280)" d="M937.437 1527.87 L937.437 1531.41 L933.363 1531.41 Q931.071 1531.41 930.169 1532.34 Q929.289 1533.26 929.289 1535.67 L929.289 1537.96 L936.303 1537.96 L936.303 1541.27 L929.289 1541.27 L929.289 1563.89 L925.007 1563.89 L925.007 1541.27 L920.933 1541.27 L920.933 1537.96 L925.007 1537.96 L925.007 1536.16 Q925.007 1531.83 927.02 1529.86 Q929.034 1527.87 933.409 1527.87 L937.437 1527.87 Z" fill="#000000" fill-rule="nonzero" fill-opacity="1" /><path clip-path="url(#clip280)" d="M954.127 1527.87 L954.127 1531.41 L950.053 1531.41 Q947.761 1531.41 946.858 1532.34 Q945.979 1533.26 945.979 1535.67 L945.979 1537.96 L952.993 1537.96 L952.993 1541.27 L945.979 1541.27 L945.979 1563.89 L941.696 1563.89 L941.696 1541.27 L937.622 1541.27 L937.622 1537.96 L941.696 1537.96 L941.696 1536.16 Q941.696 1531.83 943.71 1529.86 Q945.724 1527.87 950.099 1527.87 L954.127 1527.87 Z" fill="#000000" fill-rule="nonzero" fill-opacity="1" /><path clip-path="url(#clip280)" d="M954.844 1558.01 L959.729 1558.01 L959.729 1563.89 L954.844 1563.89 L954.844 1558.01 Z" fill="#000000" fill-rule="nonzero" fill-opacity="1" /><path clip-path="url(#clip280)" d="M968.641 1527.92 L972.344 1527.92 Q975.817 1533.38 977.529 1538.61 Q979.266 1543.84 979.266 1549 Q979.266 1554.19 977.529 1559.44 Q975.817 1564.7 972.344 1570.14 L968.641 1570.14 Q971.719 1564.84 973.224 1559.61 Q974.752 1554.35 974.752 1549 Q974.752 1543.66 973.224 1538.45 Q971.719 1533.24 968.641 1527.92 Z" fill="#000000" fill-rule="nonzero" fill-opacity="1" /><path clip-path="url(#clip280)" d="M1562.01 1530.46 L1562.01 1535.02 Q1559.35 1533.75 1556.99 1533.12 Q1554.63 1532.5 1552.43 1532.5 Q1548.61 1532.5 1546.52 1533.98 Q1544.46 1535.46 1544.46 1538.19 Q1544.46 1540.49 1545.83 1541.67 Q1547.22 1542.82 1551.06 1543.54 L1553.89 1544.12 Q1559.12 1545.11 1561.59 1547.64 Q1564.09 1550.14 1564.09 1554.35 Q1564.09 1559.37 1560.71 1561.97 Q1557.36 1564.56 1550.85 1564.56 Q1548.4 1564.56 1545.62 1564 Q1542.87 1563.45 1539.9 1562.36 L1539.9 1557.55 Q1542.75 1559.14 1545.48 1559.95 Q1548.21 1560.76 1550.85 1560.76 Q1554.86 1560.76 1557.03 1559.19 Q1559.21 1557.61 1559.21 1554.7 Q1559.21 1552.15 1557.64 1550.72 Q1556.08 1549.28 1552.52 1548.56 L1549.67 1548.01 Q1544.44 1546.97 1542.1 1544.74 Q1539.77 1542.52 1539.77 1538.56 Q1539.77 1533.98 1542.98 1531.34 Q1546.22 1528.7 1551.89 1528.7 Q1554.33 1528.7 1556.85 1529.14 Q1559.37 1529.58 1562.01 1530.46 Z" fill="#000000" fill-rule="nonzero" fill-opacity="1" /><path clip-path="url(#clip280)" d="M1581.99 1566.3 Q1580.18 1570.92 1578.47 1572.34 Q1576.76 1573.75 1573.89 1573.75 L1570.48 1573.75 L1570.48 1570.18 L1572.98 1570.18 Q1574.74 1570.18 1575.71 1569.35 Q1576.69 1568.52 1577.87 1565.42 L1578.63 1563.47 L1568.14 1537.96 L1572.66 1537.96 L1580.76 1558.24 L1588.86 1537.96 L1593.38 1537.96 L1581.99 1566.3 Z" fill="#000000" fill-rule="nonzero" fill-opacity="1" /><path clip-path="url(#clip280)" d="M1619.44 1542.94 Q1621.04 1540.07 1623.26 1538.7 Q1625.48 1537.34 1628.49 1537.34 Q1632.54 1537.34 1634.74 1540.18 Q1636.94 1543.01 1636.94 1548.24 L1636.94 1563.89 L1632.66 1563.89 L1632.66 1548.38 Q1632.66 1544.65 1631.34 1542.85 Q1630.02 1541.04 1627.31 1541.04 Q1624 1541.04 1622.08 1543.24 Q1620.16 1545.44 1620.16 1549.24 L1620.16 1563.89 L1615.88 1563.89 L1615.88 1548.38 Q1615.88 1544.63 1614.56 1542.85 Q1613.24 1541.04 1610.48 1541.04 Q1607.22 1541.04 1605.3 1543.26 Q1603.38 1545.46 1603.38 1549.24 L1603.38 1563.89 L1599.09 1563.89 L1599.09 1537.96 L1603.38 1537.96 L1603.38 1541.99 Q1604.83 1539.61 1606.87 1538.47 Q1608.91 1537.34 1611.71 1537.34 Q1614.53 1537.34 1616.5 1538.77 Q1618.49 1540.21 1619.44 1542.94 Z" fill="#000000" fill-rule="nonzero" fill-opacity="1" /><path clip-path="url(#clip280)" d="M1664.05 1550.95 Q1664.05 1546.25 1662.1 1543.59 Q1660.18 1540.9 1656.8 1540.9 Q1653.42 1540.9 1651.48 1543.59 Q1649.56 1546.25 1649.56 1550.95 Q1649.56 1555.65 1651.48 1558.33 Q1653.42 1560.99 1656.8 1560.99 Q1660.18 1560.99 1662.1 1558.33 Q1664.05 1555.65 1664.05 1550.95 M1649.56 1541.9 Q1650.9 1539.58 1652.94 1538.47 Q1655 1537.34 1657.84 1537.34 Q1662.57 1537.34 1665.51 1541.09 Q1668.47 1544.84 1668.47 1550.95 Q1668.47 1557.06 1665.51 1560.81 Q1662.57 1564.56 1657.84 1564.56 Q1655 1564.56 1652.94 1563.45 Q1650.9 1562.31 1649.56 1560 L1649.56 1563.89 L1645.27 1563.89 L1645.27 1527.87 L1649.56 1527.87 L1649.56 1541.9 Z" fill="#000000" fill-rule="nonzero" fill-opacity="1" /><path clip-path="url(#clip280)" d="M1685.57 1540.95 Q1682.15 1540.95 1680.16 1543.63 Q1678.17 1546.3 1678.17 1550.95 Q1678.17 1555.6 1680.13 1558.29 Q1682.13 1560.95 1685.57 1560.95 Q1688.98 1560.95 1690.97 1558.26 Q1692.96 1555.58 1692.96 1550.95 Q1692.96 1546.34 1690.97 1543.66 Q1688.98 1540.95 1685.57 1540.95 M1685.57 1537.34 Q1691.13 1537.34 1694.3 1540.95 Q1697.47 1544.56 1697.47 1550.95 Q1697.47 1557.31 1694.3 1560.95 Q1691.13 1564.56 1685.57 1564.56 Q1680 1564.56 1676.82 1560.95 Q1673.68 1557.31 1673.68 1550.95 Q1673.68 1544.56 1676.82 1540.95 Q1680 1537.34 1685.57 1537.34 Z" fill="#000000" fill-rule="nonzero" fill-opacity="1" /><path clip-path="url(#clip280)" d="M1704.53 1527.87 L1708.79 1527.87 L1708.79 1563.89 L1704.53 1563.89 L1704.53 1527.87 Z" fill="#000000" fill-rule="nonzero" fill-opacity="1" /><path clip-path="url(#clip280)" d="M1717.7 1537.96 L1721.96 1537.96 L1721.96 1563.89 L1717.7 1563.89 L1717.7 1537.96 M1717.7 1527.87 L1721.96 1527.87 L1721.96 1533.26 L1717.7 1533.26 L1717.7 1527.87 Z" fill="#000000" fill-rule="nonzero" fill-opacity="1" /><path clip-path="url(#clip280)" d="M1749.53 1538.96 L1749.53 1542.94 Q1747.73 1541.94 1745.9 1541.46 Q1744.09 1540.95 1742.24 1540.95 Q1738.1 1540.95 1735.81 1543.59 Q1733.51 1546.2 1733.51 1550.95 Q1733.51 1555.69 1735.81 1558.33 Q1738.1 1560.95 1742.24 1560.95 Q1744.09 1560.95 1745.9 1560.46 Q1747.73 1559.95 1749.53 1558.96 L1749.53 1562.89 Q1747.75 1563.73 1745.83 1564.14 Q1743.93 1564.56 1741.78 1564.56 Q1735.92 1564.56 1732.47 1560.88 Q1729.02 1557.2 1729.02 1550.95 Q1729.02 1544.61 1732.5 1540.97 Q1735.99 1537.34 1742.06 1537.34 Q1744.02 1537.34 1745.9 1537.75 Q1747.77 1538.15 1749.53 1538.96 Z" fill="#000000" fill-rule="nonzero" fill-opacity="1" /><path clip-path="url(#clip280)" d="M1782.24 1527.92 Q1779.14 1533.24 1777.63 1538.45 Q1776.13 1543.66 1776.13 1549 Q1776.13 1554.35 1777.63 1559.61 Q1779.16 1564.84 1782.24 1570.14 L1778.54 1570.14 Q1775.07 1564.7 1773.33 1559.44 Q1771.62 1554.19 1771.62 1549 Q1771.62 1543.84 1773.33 1538.61 Q1775.04 1533.38 1778.54 1527.92 L1782.24 1527.92 Z" fill="#000000" fill-rule="nonzero" fill-opacity="1" /><path clip-path="url(#clip280)" d="M1803.63 1527.87 L1803.63 1531.41 L1799.56 1531.41 Q1797.26 1531.41 1796.36 1532.34 Q1795.48 1533.26 1795.48 1535.67 L1795.48 1537.96 L1802.5 1537.96 L1802.5 1541.27 L1795.48 1541.27 L1795.48 1563.89 L1791.2 1563.89 L1791.2 1541.27 L1787.13 1541.27 L1787.13 1537.96 L1791.2 1537.96 L1791.2 1536.16 Q1791.2 1531.83 1793.21 1529.86 Q1795.23 1527.87 1799.6 1527.87 L1803.63 1527.87 Z" fill="#000000" fill-rule="nonzero" fill-opacity="1" /><path clip-path="url(#clip280)" d="M1807.19 1537.96 L1811.45 1537.96 L1811.45 1563.89 L1807.19 1563.89 L1807.19 1537.96 M1807.19 1527.87 L1811.45 1527.87 L1811.45 1533.26 L1807.19 1533.26 L1807.19 1527.87 Z" fill="#000000" fill-rule="nonzero" fill-opacity="1" /><path clip-path="url(#clip280)" d="M1841.92 1548.24 L1841.92 1563.89 L1837.66 1563.89 L1837.66 1548.38 Q1837.66 1544.7 1836.22 1542.87 Q1834.79 1541.04 1831.92 1541.04 Q1828.47 1541.04 1826.48 1543.24 Q1824.49 1545.44 1824.49 1549.24 L1824.49 1563.89 L1820.2 1563.89 L1820.2 1537.96 L1824.49 1537.96 L1824.49 1541.99 Q1826.01 1539.65 1828.07 1538.49 Q1830.16 1537.34 1832.87 1537.34 Q1837.33 1537.34 1839.62 1540.11 Q1841.92 1542.87 1841.92 1548.24 Z" fill="#000000" fill-rule="nonzero" fill-opacity="1" /><path clip-path="url(#clip280)" d="M1851.01 1558.01 L1855.9 1558.01 L1855.9 1563.89 L1851.01 1563.89 L1851.01 1558.01 Z" fill="#000000" fill-rule="nonzero" fill-opacity="1" /><path clip-path="url(#clip280)" d="M1897.61 1541.9 L1897.61 1527.87 L1901.87 1527.87 L1901.87 1563.89 L1897.61 1563.89 L1897.61 1560 Q1896.27 1562.31 1894.21 1563.45 Q1892.17 1564.56 1889.3 1564.56 Q1884.6 1564.56 1881.64 1560.81 Q1878.7 1557.06 1878.7 1550.95 Q1878.7 1544.84 1881.64 1541.09 Q1884.6 1537.34 1889.3 1537.34 Q1892.17 1537.34 1894.21 1538.47 Q1896.27 1539.58 1897.61 1541.9 M1883.1 1550.95 Q1883.1 1555.65 1885.02 1558.33 Q1886.96 1560.99 1890.34 1560.99 Q1893.72 1560.99 1895.67 1558.33 Q1897.61 1555.65 1897.61 1550.95 Q1897.61 1546.25 1895.67 1543.59 Q1893.72 1540.9 1890.34 1540.9 Q1886.96 1540.9 1885.02 1543.59 Q1883.1 1546.25 1883.1 1550.95 Z" fill="#000000" fill-rule="nonzero" fill-opacity="1" /><path clip-path="url(#clip280)" d="M1910.64 1537.96 L1914.9 1537.96 L1914.9 1563.89 L1910.64 1563.89 L1910.64 1537.96 M1910.64 1527.87 L1914.9 1527.87 L1914.9 1533.26 L1910.64 1533.26 L1910.64 1527.87 Z" fill="#000000" fill-rule="nonzero" fill-opacity="1" /><path clip-path="url(#clip280)" d="M1936.94 1527.87 L1936.94 1531.41 L1932.87 1531.41 Q1930.57 1531.41 1929.67 1532.34 Q1928.79 1533.26 1928.79 1535.67 L1928.79 1537.96 L1935.8 1537.96 L1935.8 1541.27 L1928.79 1541.27 L1928.79 1563.89 L1924.51 1563.89 L1924.51 1541.27 L1920.43 1541.27 L1920.43 1537.96 L1924.51 1537.96 L1924.51 1536.16 Q1924.51 1531.83 1926.52 1529.86 Q1928.54 1527.87 1932.91 1527.87 L1936.94 1527.87 Z" fill="#000000" fill-rule="nonzero" fill-opacity="1" /><path clip-path="url(#clip280)" d="M1953.63 1527.87 L1953.63 1531.41 L1949.55 1531.41 Q1947.26 1531.41 1946.36 1532.34 Q1945.48 1533.26 1945.48 1535.67 L1945.48 1537.96 L1952.49 1537.96 L1952.49 1541.27 L1945.48 1541.27 L1945.48 1563.89 L1941.2 1563.89 L1941.2 1541.27 L1937.12 1541.27 L1937.12 1537.96 L1941.2 1537.96 L1941.2 1536.16 Q1941.2 1531.83 1943.21 1529.86 Q1945.23 1527.87 1949.6 1527.87 L1953.63 1527.87 Z" fill="#000000" fill-rule="nonzero" fill-opacity="1" /><path clip-path="url(#clip280)" d="M1954.35 1558.01 L1959.23 1558.01 L1959.23 1563.89 L1954.35 1563.89 L1954.35 1558.01 Z" fill="#000000" fill-rule="nonzero" fill-opacity="1" /><path clip-path="url(#clip280)" d="M1968.14 1527.92 L1971.85 1527.92 Q1975.32 1533.38 1977.03 1538.61 Q1978.77 1543.84 1978.77 1549 Q1978.77 1554.19 1977.03 1559.44 Q1975.32 1564.7 1971.85 1570.14 L1968.14 1570.14 Q1971.22 1564.84 1972.73 1559.61 Q1974.25 1554.35 1974.25 1549 Q1974.25 1543.66 1972.73 1538.45 Q1971.22 1533.24 1968.14 1527.92 Z" fill="#000000" fill-rule="nonzero" fill-opacity="1" /><path clip-path="url(#clip280)" d="M2527.05 1529.33 L2533.34 1529.33 L2548.67 1558.24 L2548.67 1529.33 L2553.2 1529.33 L2553.2 1563.89 L2546.91 1563.89 L2531.58 1534.98 L2531.58 1563.89 L2527.05 1563.89 L2527.05 1529.33 Z" fill="#000000" fill-rule="nonzero" fill-opacity="1" /><path clip-path="url(#clip280)" d="M2561.88 1553.66 L2561.88 1537.96 L2566.14 1537.96 L2566.14 1553.49 Q2566.14 1557.17 2567.58 1559.03 Q2569.01 1560.86 2571.88 1560.86 Q2575.33 1560.86 2577.32 1558.66 Q2579.34 1556.46 2579.34 1552.66 L2579.34 1537.96 L2583.6 1537.96 L2583.6 1563.89 L2579.34 1563.89 L2579.34 1559.91 Q2577.79 1562.27 2575.73 1563.42 Q2573.69 1564.56 2570.98 1564.56 Q2566.51 1564.56 2564.2 1561.78 Q2561.88 1559 2561.88 1553.66 M2572.6 1537.34 L2572.6 1537.34 Z" fill="#000000" fill-rule="nonzero" fill-opacity="1" /><path clip-path="url(#clip280)" d="M2612.55 1542.94 Q2614.15 1540.07 2616.37 1538.7 Q2618.6 1537.34 2621.6 1537.34 Q2625.66 1537.34 2627.85 1540.18 Q2630.05 1543.01 2630.05 1548.24 L2630.05 1563.89 L2625.77 1563.89 L2625.77 1548.38 Q2625.77 1544.65 2624.45 1542.85 Q2623.13 1541.04 2620.42 1541.04 Q2617.11 1541.04 2615.19 1543.24 Q2613.27 1545.44 2613.27 1549.24 L2613.27 1563.89 L2608.99 1563.89 L2608.99 1548.38 Q2608.99 1544.63 2607.67 1542.85 Q2606.35 1541.04 2603.6 1541.04 Q2600.33 1541.04 2598.41 1543.26 Q2596.49 1545.46 2596.49 1549.24 L2596.49 1563.89 L2592.21 1563.89 L2592.21 1537.96 L2596.49 1537.96 L2596.49 1541.99 Q2597.95 1539.61 2599.98 1538.47 Q2602.02 1537.34 2604.82 1537.34 Q2607.65 1537.34 2609.61 1538.77 Q2611.61 1540.21 2612.55 1542.94 Z" fill="#000000" fill-rule="nonzero" fill-opacity="1" /><path clip-path="url(#clip280)" d="M2660.73 1549.86 L2660.73 1551.94 L2641.14 1551.94 Q2641.42 1556.34 2643.78 1558.66 Q2646.17 1560.95 2650.4 1560.95 Q2652.85 1560.95 2655.15 1560.35 Q2657.46 1559.74 2659.73 1558.54 L2659.73 1562.57 Q2657.44 1563.54 2655.03 1564.05 Q2652.62 1564.56 2650.15 1564.56 Q2643.94 1564.56 2640.31 1560.95 Q2636.7 1557.34 2636.7 1551.18 Q2636.7 1544.81 2640.12 1541.09 Q2643.57 1537.34 2649.41 1537.34 Q2654.64 1537.34 2657.67 1540.72 Q2660.73 1544.07 2660.73 1549.86 M2656.47 1548.61 Q2656.42 1545.11 2654.5 1543.03 Q2652.6 1540.95 2649.45 1540.95 Q2645.89 1540.95 2643.73 1542.96 Q2641.6 1544.98 2641.28 1548.63 L2656.47 1548.61 Z" fill="#000000" fill-rule="nonzero" fill-opacity="1" /><path clip-path="url(#clip280)" d="M2682.74 1541.94 Q2682.02 1541.53 2681.16 1541.34 Q2680.33 1541.13 2679.31 1541.13 Q2675.7 1541.13 2673.76 1543.49 Q2671.84 1545.83 2671.84 1550.23 L2671.84 1563.89 L2667.55 1563.89 L2667.55 1537.96 L2671.84 1537.96 L2671.84 1541.99 Q2673.18 1539.63 2675.33 1538.49 Q2677.48 1537.34 2680.56 1537.34 Q2681 1537.34 2681.54 1537.41 Q2682.07 1537.45 2682.72 1537.57 L2682.74 1541.94 Z" fill="#000000" fill-rule="nonzero" fill-opacity="1" /><path clip-path="url(#clip280)" d="M2687.21 1537.96 L2691.47 1537.96 L2691.47 1563.89 L2687.21 1563.89 L2687.21 1537.96 M2687.21 1527.87 L2691.47 1527.87 L2691.47 1533.26 L2687.21 1533.26 L2687.21 1527.87 Z" fill="#000000" fill-rule="nonzero" fill-opacity="1" /><path clip-path="url(#clip280)" d="M2719.04 1538.96 L2719.04 1542.94 Q2717.23 1541.94 2715.4 1541.46 Q2713.6 1540.95 2711.74 1540.95 Q2707.6 1540.95 2705.31 1543.59 Q2703.02 1546.2 2703.02 1550.95 Q2703.02 1555.69 2705.31 1558.33 Q2707.6 1560.95 2711.74 1560.95 Q2713.6 1560.95 2715.4 1560.46 Q2717.23 1559.95 2719.04 1558.96 L2719.04 1562.89 Q2717.25 1563.73 2715.33 1564.14 Q2713.43 1564.56 2711.28 1564.56 Q2705.42 1564.56 2701.97 1560.88 Q2698.53 1557.2 2698.53 1550.95 Q2698.53 1544.61 2702 1540.97 Q2705.49 1537.34 2711.56 1537.34 Q2713.53 1537.34 2715.4 1537.75 Q2717.28 1538.15 2719.04 1538.96 Z" fill="#000000" fill-rule="nonzero" fill-opacity="1" /><path clip-path="url(#clip280)" d="M2738.22 1550.86 Q2733.06 1550.86 2731.07 1552.04 Q2729.08 1553.22 2729.08 1556.06 Q2729.08 1558.33 2730.56 1559.67 Q2732.07 1560.99 2734.64 1560.99 Q2738.18 1560.99 2740.31 1558.49 Q2742.46 1555.97 2742.46 1551.8 L2742.46 1550.86 L2738.22 1550.86 M2746.72 1549.1 L2746.72 1563.89 L2742.46 1563.89 L2742.46 1559.95 Q2741 1562.31 2738.83 1563.45 Q2736.65 1564.56 2733.5 1564.56 Q2729.52 1564.56 2727.16 1562.34 Q2724.82 1560.09 2724.82 1556.34 Q2724.82 1551.97 2727.74 1549.74 Q2730.68 1547.52 2736.49 1547.52 L2742.46 1547.52 L2742.46 1547.11 Q2742.46 1544.17 2740.52 1542.57 Q2738.6 1540.95 2735.1 1540.95 Q2732.88 1540.95 2730.77 1541.48 Q2728.66 1542.01 2726.72 1543.08 L2726.72 1539.14 Q2729.06 1538.24 2731.26 1537.8 Q2733.46 1537.34 2735.54 1537.34 Q2741.16 1537.34 2743.94 1540.25 Q2746.72 1543.17 2746.72 1549.1 Z" fill="#000000" fill-rule="nonzero" fill-opacity="1" /><path clip-path="url(#clip280)" d="M2755.49 1527.87 L2759.75 1527.87 L2759.75 1563.89 L2755.49 1563.89 L2755.49 1527.87 Z" fill="#000000" fill-rule="nonzero" fill-opacity="1" /><path clip-path="url(#clip280)" d="M2793.97 1527.92 Q2790.86 1533.24 2789.36 1538.45 Q2787.85 1543.66 2787.85 1549 Q2787.85 1554.35 2789.36 1559.61 Q2790.89 1564.84 2793.97 1570.14 L2790.26 1570.14 Q2786.79 1564.7 2785.05 1559.44 Q2783.34 1554.19 2783.34 1549 Q2783.34 1543.84 2785.05 1538.61 Q2786.77 1533.38 2790.26 1527.92 L2793.97 1527.92 Z" fill="#000000" fill-rule="nonzero" fill-opacity="1" /><path clip-path="url(#clip280)" d="M2814.01 1550.86 Q2808.85 1550.86 2806.86 1552.04 Q2804.87 1553.22 2804.87 1556.06 Q2804.87 1558.33 2806.35 1559.67 Q2807.85 1560.99 2810.42 1560.99 Q2813.97 1560.99 2816.09 1558.49 Q2818.25 1555.97 2818.25 1551.8 L2818.25 1550.86 L2814.01 1550.86 M2822.51 1549.1 L2822.51 1563.89 L2818.25 1563.89 L2818.25 1559.95 Q2816.79 1562.31 2814.61 1563.45 Q2812.44 1564.56 2809.29 1564.56 Q2805.31 1564.56 2802.95 1562.34 Q2800.61 1560.09 2800.61 1556.34 Q2800.61 1551.97 2803.53 1549.74 Q2806.47 1547.52 2812.28 1547.52 L2818.25 1547.52 L2818.25 1547.11 Q2818.25 1544.17 2816.3 1542.57 Q2814.38 1540.95 2810.89 1540.95 Q2808.66 1540.95 2806.56 1541.48 Q2804.45 1542.01 2802.51 1543.08 L2802.51 1539.14 Q2804.84 1538.24 2807.04 1537.8 Q2809.24 1537.34 2811.33 1537.34 Q2816.95 1537.34 2819.73 1540.25 Q2822.51 1543.17 2822.51 1549.1 Z" fill="#000000" fill-rule="nonzero" fill-opacity="1" /><path clip-path="url(#clip280)" d="M2830.84 1553.66 L2830.84 1537.96 L2835.1 1537.96 L2835.1 1553.49 Q2835.1 1557.17 2836.53 1559.03 Q2837.97 1560.86 2840.84 1560.86 Q2844.29 1560.86 2846.28 1558.66 Q2848.29 1556.46 2848.29 1552.66 L2848.29 1537.96 L2852.55 1537.96 L2852.55 1563.89 L2848.29 1563.89 L2848.29 1559.91 Q2846.74 1562.27 2844.68 1563.42 Q2842.65 1564.56 2839.94 1564.56 Q2835.47 1564.56 2833.15 1561.78 Q2830.84 1559 2830.84 1553.66 M2841.56 1537.34 L2841.56 1537.34 Z" fill="#000000" fill-rule="nonzero" fill-opacity="1" /><path clip-path="url(#clip280)" d="M2865.54 1530.6 L2865.54 1537.96 L2874.31 1537.96 L2874.31 1541.27 L2865.54 1541.27 L2865.54 1555.35 Q2865.54 1558.52 2866.4 1559.42 Q2867.27 1560.32 2869.94 1560.32 L2874.31 1560.32 L2874.31 1563.89 L2869.94 1563.89 Q2865.01 1563.89 2863.13 1562.06 Q2861.26 1560.21 2861.26 1555.35 L2861.26 1541.27 L2858.13 1541.27 L2858.13 1537.96 L2861.26 1537.96 L2861.26 1530.6 L2865.54 1530.6 Z" fill="#000000" fill-rule="nonzero" fill-opacity="1" /><path clip-path="url(#clip280)" d="M2889.96 1540.95 Q2886.53 1540.95 2884.54 1543.63 Q2882.55 1546.3 2882.55 1550.95 Q2882.55 1555.6 2884.52 1558.29 Q2886.51 1560.95 2889.96 1560.95 Q2893.36 1560.95 2895.35 1558.26 Q2897.34 1555.58 2897.34 1550.95 Q2897.34 1546.34 2895.35 1543.66 Q2893.36 1540.95 2889.96 1540.95 M2889.96 1537.34 Q2895.52 1537.34 2898.69 1540.95 Q2901.86 1544.56 2901.86 1550.95 Q2901.86 1557.31 2898.69 1560.95 Q2895.52 1564.56 2889.96 1564.56 Q2884.38 1564.56 2881.21 1560.95 Q2878.06 1557.31 2878.06 1550.95 Q2878.06 1544.56 2881.21 1540.95 Q2884.38 1537.34 2889.96 1537.34 Z" fill="#000000" fill-rule="nonzero" fill-opacity="1" /><path clip-path="url(#clip280)" d="M2908.69 1558.01 L2913.57 1558.01 L2913.57 1563.89 L2908.69 1563.89 L2908.69 1558.01 Z" fill="#000000" fill-rule="nonzero" fill-opacity="1" /><path clip-path="url(#clip280)" d="M2955.28 1541.9 L2955.28 1527.87 L2959.54 1527.87 L2959.54 1563.89 L2955.28 1563.89 L2955.28 1560 Q2953.94 1562.31 2951.88 1563.45 Q2949.84 1564.56 2946.97 1564.56 Q2942.27 1564.56 2939.31 1560.81 Q2936.37 1557.06 2936.37 1550.95 Q2936.37 1544.84 2939.31 1541.09 Q2942.27 1537.34 2946.97 1537.34 Q2949.84 1537.34 2951.88 1538.47 Q2953.94 1539.58 2955.28 1541.9 M2940.77 1550.95 Q2940.77 1555.65 2942.69 1558.33 Q2944.64 1560.99 2948.02 1560.99 Q2951.39 1560.99 2953.34 1558.33 Q2955.28 1555.65 2955.28 1550.95 Q2955.28 1546.25 2953.34 1543.59 Q2951.39 1540.9 2948.02 1540.9 Q2944.64 1540.9 2942.69 1543.59 Q2940.77 1546.25 2940.77 1550.95 Z" fill="#000000" fill-rule="nonzero" fill-opacity="1" /><path clip-path="url(#clip280)" d="M2968.32 1537.96 L2972.58 1537.96 L2972.58 1563.89 L2968.32 1563.89 L2968.32 1537.96 M2968.32 1527.87 L2972.58 1527.87 L2972.58 1533.26 L2968.32 1533.26 L2968.32 1527.87 Z" fill="#000000" fill-rule="nonzero" fill-opacity="1" /><path clip-path="url(#clip280)" d="M2994.61 1527.87 L2994.61 1531.41 L2990.54 1531.41 Q2988.25 1531.41 2987.34 1532.34 Q2986.46 1533.26 2986.46 1535.67 L2986.46 1537.96 L2993.48 1537.96 L2993.48 1541.27 L2986.46 1541.27 L2986.46 1563.89 L2982.18 1563.89 L2982.18 1541.27 L2978.11 1541.27 L2978.11 1537.96 L2982.18 1537.96 L2982.18 1536.16 Q2982.18 1531.83 2984.2 1529.86 Q2986.21 1527.87 2990.58 1527.87 L2994.61 1527.87 Z" fill="#000000" fill-rule="nonzero" fill-opacity="1" /><path clip-path="url(#clip280)" d="M3011.3 1527.87 L3011.3 1531.41 L3007.23 1531.41 Q3004.94 1531.41 3004.03 1532.34 Q3003.15 1533.26 3003.15 1535.67 L3003.15 1537.96 L3010.17 1537.96 L3010.17 1541.27 L3003.15 1541.27 L3003.15 1563.89 L2998.87 1563.89 L2998.87 1541.27 L2994.8 1541.27 L2994.8 1537.96 L2998.87 1537.96 L2998.87 1536.16 Q2998.87 1531.83 3000.89 1529.86 Q3002.9 1527.87 3007.27 1527.87 L3011.3 1527.87 Z" fill="#000000" fill-rule="nonzero" fill-opacity="1" /><path clip-path="url(#clip280)" d="M3012.02 1558.01 L3016.9 1558.01 L3016.9 1563.89 L3012.02 1563.89 L3012.02 1558.01 Z" fill="#000000" fill-rule="nonzero" fill-opacity="1" /><path clip-path="url(#clip280)" d="M3025.82 1527.92 L3029.52 1527.92 Q3032.99 1533.38 3034.7 1538.61 Q3036.44 1543.84 3036.44 1549 Q3036.44 1554.19 3034.7 1559.44 Q3032.99 1564.7 3029.52 1570.14 L3025.82 1570.14 Q3028.89 1564.84 3030.4 1559.61 Q3031.93 1554.35 3031.93 1549 Q3031.93 1543.66 3030.4 1538.45 Q3028.89 1533.24 3025.82 1527.92 Z" fill="#000000" fill-rule="nonzero" fill-opacity="1" /><polyline clip-path="url(#clip280)" style="stroke:#000000; stroke-linecap:round; stroke-linejoin:round; stroke-width:4; stroke-opacity:1; fill:none" points="365.777,1495.09 365.777,47.2441 "/>
<polyline clip-path="url(#clip280)" style="stroke:#000000; stroke-linecap:round; stroke-linejoin:round; stroke-width:4; stroke-opacity:1; fill:none" points="365.777,1174.42 384.675,1174.42 "/>
<polyline clip-path="url(#clip280)" style="stroke:#000000; stroke-linecap:round; stroke-linejoin:round; stroke-width:4; stroke-opacity:1; fill:none" points="365.777,853.333 384.675,853.333 "/>
<polyline clip-path="url(#clip280)" style="stroke:#000000; stroke-linecap:round; stroke-linejoin:round; stroke-width:4; stroke-opacity:1; fill:none" points="365.777,532.244 384.675,532.244 "/>
<polyline clip-path="url(#clip280)" style="stroke:#000000; stroke-linecap:round; stroke-linejoin:round; stroke-width:4; stroke-opacity:1; fill:none" points="365.777,211.154 384.675,211.154 "/>
<path clip-path="url(#clip280)" d="M113.982 1167.66 L102.176 1186.11 L113.982 1186.11 L113.982 1167.66 M112.755 1163.59 L118.635 1163.59 L118.635 1186.11 L123.565 1186.11 L123.565 1190 L118.635 1190 L118.635 1198.15 L113.982 1198.15 L113.982 1190 L98.3802 1190 L98.3802 1185.49 L112.755 1163.59 Z" fill="#000000" fill-rule="nonzero" fill-opacity="1" /><path clip-path="url(#clip280)" d="M131.297 1192.27 L136.181 1192.27 L136.181 1198.15 L131.297 1198.15 L131.297 1192.27 Z" fill="#000000" fill-rule="nonzero" fill-opacity="1" /><path clip-path="url(#clip280)" d="M159.213 1167.66 L147.408 1186.11 L159.213 1186.11 L159.213 1167.66 M157.986 1163.59 L163.866 1163.59 L163.866 1186.11 L168.796 1186.11 L168.796 1190 L163.866 1190 L163.866 1198.15 L159.213 1198.15 L159.213 1190 L143.611 1190 L143.611 1185.49 L157.986 1163.59 Z" fill="#000000" fill-rule="nonzero" fill-opacity="1" /><path clip-path="url(#clip280)" d="M186.528 1166.67 Q182.917 1166.67 181.088 1170.23 Q179.283 1173.78 179.283 1180.9 Q179.283 1188.01 181.088 1191.58 Q182.917 1195.12 186.528 1195.12 Q190.162 1195.12 191.968 1191.58 Q193.796 1188.01 193.796 1180.9 Q193.796 1173.78 191.968 1170.23 Q190.162 1166.67 186.528 1166.67 M186.528 1162.97 Q192.338 1162.97 195.394 1167.57 Q198.472 1172.15 198.472 1180.9 Q198.472 1189.63 195.394 1194.24 Q192.338 1198.82 186.528 1198.82 Q180.718 1198.82 177.639 1194.24 Q174.583 1189.63 174.583 1180.9 Q174.583 1172.15 177.639 1167.57 Q180.718 1162.97 186.528 1162.97 Z" fill="#000000" fill-rule="nonzero" fill-opacity="1" /><path clip-path="url(#clip280)" d="M234.861 1172.69 L224.282 1183.31 L234.861 1193.89 L232.106 1196.69 L221.481 1186.07 L210.856 1196.69 L208.125 1193.89 L218.68 1183.31 L208.125 1172.69 L210.856 1169.89 L221.481 1180.51 L232.106 1169.89 L234.861 1172.69 Z" fill="#000000" fill-rule="nonzero" fill-opacity="1" /><path clip-path="url(#clip280)" d="M247.222 1194.21 L254.861 1194.21 L254.861 1167.85 L246.551 1169.52 L246.551 1165.26 L254.815 1163.59 L259.49 1163.59 L259.49 1194.21 L267.129 1194.21 L267.129 1198.15 L247.222 1198.15 L247.222 1194.21 Z" fill="#000000" fill-rule="nonzero" fill-opacity="1" /><path clip-path="url(#clip280)" d="M286.574 1166.67 Q282.963 1166.67 281.134 1170.23 Q279.328 1173.78 279.328 1180.9 Q279.328 1188.01 281.134 1191.58 Q282.963 1195.12 286.574 1195.12 Q290.208 1195.12 292.013 1191.58 Q293.842 1188.01 293.842 1180.9 Q293.842 1173.78 292.013 1170.23 Q290.208 1166.67 286.574 1166.67 M286.574 1162.97 Q292.384 1162.97 295.439 1167.57 Q298.518 1172.15 298.518 1180.9 Q298.518 1189.63 295.439 1194.24 Q292.384 1198.82 286.574 1198.82 Q280.763 1198.82 277.685 1194.24 Q274.629 1189.63 274.629 1180.9 Q274.629 1172.15 277.685 1167.57 Q280.763 1162.97 286.574 1162.97 Z" fill="#000000" fill-rule="nonzero" fill-opacity="1" /><path clip-path="url(#clip280)" d="M308.148 1157.41 Q305.439 1157.41 303.878 1158.85 Q302.336 1160.3 302.336 1162.84 Q302.336 1165.38 303.878 1166.83 Q305.439 1168.28 308.148 1168.28 Q310.856 1168.28 312.417 1166.83 Q313.978 1165.36 313.978 1162.84 Q313.978 1160.3 312.417 1158.85 Q310.875 1157.41 308.148 1157.41 M304.348 1155.79 Q301.903 1155.19 300.53 1153.51 Q299.176 1151.84 299.176 1149.43 Q299.176 1146.06 301.565 1144.11 Q303.972 1142.15 308.148 1142.15 Q312.342 1142.15 314.73 1144.11 Q317.119 1146.06 317.119 1149.43 Q317.119 1151.84 315.746 1153.51 Q314.392 1155.19 311.966 1155.79 Q314.711 1156.43 316.235 1158.29 Q317.777 1160.15 317.777 1162.84 Q317.777 1166.92 315.276 1169.1 Q312.793 1171.29 308.148 1171.29 Q303.502 1171.29 301.001 1169.1 Q298.518 1166.92 298.518 1162.84 Q298.518 1160.15 300.06 1158.29 Q301.602 1156.43 304.348 1155.79 M302.957 1149.79 Q302.957 1151.97 304.311 1153.19 Q305.684 1154.41 308.148 1154.41 Q310.593 1154.41 311.966 1153.19 Q313.357 1151.97 313.357 1149.79 Q313.357 1147.61 311.966 1146.38 Q310.593 1145.16 308.148 1145.16 Q305.684 1145.16 304.311 1146.38 Q302.957 1147.61 302.957 1149.79 Z" fill="#000000" fill-rule="nonzero" fill-opacity="1" /><path clip-path="url(#clip280)" d="M113.982 846.575 L102.176 865.024 L113.982 865.024 L113.982 846.575 M112.755 842.501 L118.635 842.501 L118.635 865.024 L123.565 865.024 L123.565 868.913 L118.635 868.913 L118.635 877.061 L113.982 877.061 L113.982 868.913 L98.3802 868.913 L98.3802 864.399 L112.755 842.501 Z" fill="#000000" fill-rule="nonzero" fill-opacity="1" /><path clip-path="url(#clip280)" d="M131.297 871.181 L136.181 871.181 L136.181 877.061 L131.297 877.061 L131.297 871.181 Z" fill="#000000" fill-rule="nonzero" fill-opacity="1" /><path clip-path="url(#clip280)" d="M146.412 842.501 L164.769 842.501 L164.769 846.436 L150.695 846.436 L150.695 854.908 Q151.713 854.561 152.732 854.399 Q153.75 854.214 154.769 854.214 Q160.556 854.214 163.935 857.385 Q167.315 860.556 167.315 865.973 Q167.315 871.551 163.843 874.653 Q160.371 877.732 154.051 877.732 Q151.875 877.732 149.607 877.362 Q147.361 876.991 144.954 876.251 L144.954 871.551 Q147.037 872.686 149.26 873.241 Q151.482 873.797 153.959 873.797 Q157.963 873.797 160.301 871.69 Q162.639 869.584 162.639 865.973 Q162.639 862.362 160.301 860.255 Q157.963 858.149 153.959 858.149 Q152.084 858.149 150.209 858.565 Q148.357 858.982 146.412 859.862 L146.412 842.501 Z" fill="#000000" fill-rule="nonzero" fill-opacity="1" /><path clip-path="url(#clip280)" d="M186.528 845.579 Q182.917 845.579 181.088 849.144 Q179.283 852.686 179.283 859.815 Q179.283 866.922 181.088 870.487 Q182.917 874.028 186.528 874.028 Q190.162 874.028 191.968 870.487 Q193.796 866.922 193.796 859.815 Q193.796 852.686 191.968 849.144 Q190.162 845.579 186.528 845.579 M186.528 841.876 Q192.338 841.876 195.394 846.482 Q198.472 851.065 198.472 859.815 Q198.472 868.542 195.394 873.149 Q192.338 877.732 186.528 877.732 Q180.718 877.732 177.639 873.149 Q174.583 868.542 174.583 859.815 Q174.583 851.065 177.639 846.482 Q180.718 841.876 186.528 841.876 Z" fill="#000000" fill-rule="nonzero" fill-opacity="1" /><path clip-path="url(#clip280)" d="M234.861 851.598 L224.282 862.223 L234.861 872.801 L232.106 875.602 L221.481 864.977 L210.856 875.602 L208.125 872.801 L218.68 862.223 L208.125 851.598 L210.856 848.797 L221.481 859.422 L232.106 848.797 L234.861 851.598 Z" fill="#000000" fill-rule="nonzero" fill-opacity="1" /><path clip-path="url(#clip280)" d="M247.222 873.126 L254.861 873.126 L254.861 846.76 L246.551 848.427 L246.551 844.167 L254.815 842.501 L259.49 842.501 L259.49 873.126 L267.129 873.126 L267.129 877.061 L247.222 877.061 L247.222 873.126 Z" fill="#000000" fill-rule="nonzero" fill-opacity="1" /><path clip-path="url(#clip280)" d="M286.574 845.579 Q282.963 845.579 281.134 849.144 Q279.328 852.686 279.328 859.815 Q279.328 866.922 281.134 870.487 Q282.963 874.028 286.574 874.028 Q290.208 874.028 292.013 870.487 Q293.842 866.922 293.842 859.815 Q293.842 852.686 292.013 849.144 Q290.208 845.579 286.574 845.579 M286.574 841.876 Q292.384 841.876 295.439 846.482 Q298.518 851.065 298.518 859.815 Q298.518 868.542 295.439 873.149 Q292.384 877.732 286.574 877.732 Q280.763 877.732 277.685 873.149 Q274.629 868.542 274.629 859.815 Q274.629 851.065 277.685 846.482 Q280.763 841.876 286.574 841.876 Z" fill="#000000" fill-rule="nonzero" fill-opacity="1" /><path clip-path="url(#clip280)" d="M308.148 836.316 Q305.439 836.316 303.878 837.764 Q302.336 839.212 302.336 841.751 Q302.336 844.29 303.878 845.738 Q305.439 847.186 308.148 847.186 Q310.856 847.186 312.417 845.738 Q313.978 844.271 313.978 841.751 Q313.978 839.212 312.417 837.764 Q310.875 836.316 308.148 836.316 M304.348 834.698 Q301.903 834.096 300.53 832.422 Q299.176 830.748 299.176 828.341 Q299.176 824.974 301.565 823.018 Q303.972 821.062 308.148 821.062 Q312.342 821.062 314.73 823.018 Q317.119 824.974 317.119 828.341 Q317.119 830.748 315.746 832.422 Q314.392 834.096 311.966 834.698 Q314.711 835.338 316.235 837.2 Q317.777 839.062 317.777 841.751 Q317.777 845.832 315.276 848.014 Q312.793 850.196 308.148 850.196 Q303.502 850.196 301.001 848.014 Q298.518 845.832 298.518 841.751 Q298.518 839.062 300.06 837.2 Q301.602 835.338 304.348 834.698 M302.957 828.698 Q302.957 830.88 304.311 832.103 Q305.684 833.325 308.148 833.325 Q310.593 833.325 311.966 832.103 Q313.357 830.88 313.357 828.698 Q313.357 826.517 311.966 825.294 Q310.593 824.072 308.148 824.072 Q305.684 824.072 304.311 825.294 Q302.957 826.517 302.957 828.698 Z" fill="#000000" fill-rule="nonzero" fill-opacity="1" /><path clip-path="url(#clip280)" d="M113.982 525.485 L102.176 543.934 L113.982 543.934 L113.982 525.485 M112.755 521.411 L118.635 521.411 L118.635 543.934 L123.565 543.934 L123.565 547.823 L118.635 547.823 L118.635 555.971 L113.982 555.971 L113.982 547.823 L98.3802 547.823 L98.3802 543.309 L112.755 521.411 Z" fill="#000000" fill-rule="nonzero" fill-opacity="1" /><path clip-path="url(#clip280)" d="M131.297 550.092 L136.181 550.092 L136.181 555.971 L131.297 555.971 L131.297 550.092 Z" fill="#000000" fill-rule="nonzero" fill-opacity="1" /><path clip-path="url(#clip280)" d="M156.945 536.828 Q153.797 536.828 151.945 538.981 Q150.116 541.133 150.116 544.883 Q150.116 548.61 151.945 550.786 Q153.797 552.939 156.945 552.939 Q160.093 552.939 161.921 550.786 Q163.773 548.61 163.773 544.883 Q163.773 541.133 161.921 538.981 Q160.093 536.828 156.945 536.828 M166.227 522.175 L166.227 526.434 Q164.468 525.601 162.662 525.161 Q160.88 524.721 159.121 524.721 Q154.491 524.721 152.037 527.846 Q149.607 530.971 149.26 537.291 Q150.625 535.277 152.685 534.212 Q154.746 533.124 157.222 533.124 Q162.431 533.124 165.44 536.295 Q168.472 539.444 168.472 544.883 Q168.472 550.207 165.324 553.425 Q162.176 556.643 156.945 556.643 Q150.949 556.643 147.778 552.059 Q144.607 547.453 144.607 538.726 Q144.607 530.532 148.496 525.67 Q152.384 520.786 158.935 520.786 Q160.695 520.786 162.477 521.133 Q164.283 521.481 166.227 522.175 Z" fill="#000000" fill-rule="nonzero" fill-opacity="1" /><path clip-path="url(#clip280)" d="M186.528 524.49 Q182.917 524.49 181.088 528.055 Q179.283 531.596 179.283 538.726 Q179.283 545.832 181.088 549.397 Q182.917 552.939 186.528 552.939 Q190.162 552.939 191.968 549.397 Q193.796 545.832 193.796 538.726 Q193.796 531.596 191.968 528.055 Q190.162 524.49 186.528 524.49 M186.528 520.786 Q192.338 520.786 195.394 525.393 Q198.472 529.976 198.472 538.726 Q198.472 547.453 195.394 552.059 Q192.338 556.643 186.528 556.643 Q180.718 556.643 177.639 552.059 Q174.583 547.453 174.583 538.726 Q174.583 529.976 177.639 525.393 Q180.718 520.786 186.528 520.786 Z" fill="#000000" fill-rule="nonzero" fill-opacity="1" /><path clip-path="url(#clip280)" d="M234.861 530.508 L224.282 541.133 L234.861 551.712 L232.106 554.513 L221.481 543.888 L210.856 554.513 L208.125 551.712 L218.68 541.133 L208.125 530.508 L210.856 527.707 L221.481 538.332 L232.106 527.707 L234.861 530.508 Z" fill="#000000" fill-rule="nonzero" fill-opacity="1" /><path clip-path="url(#clip280)" d="M247.222 552.036 L254.861 552.036 L254.861 525.67 L246.551 527.337 L246.551 523.078 L254.815 521.411 L259.49 521.411 L259.49 552.036 L267.129 552.036 L267.129 555.971 L247.222 555.971 L247.222 552.036 Z" fill="#000000" fill-rule="nonzero" fill-opacity="1" /><path clip-path="url(#clip280)" d="M286.574 524.49 Q282.963 524.49 281.134 528.055 Q279.328 531.596 279.328 538.726 Q279.328 545.832 281.134 549.397 Q282.963 552.939 286.574 552.939 Q290.208 552.939 292.013 549.397 Q293.842 545.832 293.842 538.726 Q293.842 531.596 292.013 528.055 Q290.208 524.49 286.574 524.49 M286.574 520.786 Q292.384 520.786 295.439 525.393 Q298.518 529.976 298.518 538.726 Q298.518 547.453 295.439 552.059 Q292.384 556.643 286.574 556.643 Q280.763 556.643 277.685 552.059 Q274.629 547.453 274.629 538.726 Q274.629 529.976 277.685 525.393 Q280.763 520.786 286.574 520.786 Z" fill="#000000" fill-rule="nonzero" fill-opacity="1" /><path clip-path="url(#clip280)" d="M308.148 515.226 Q305.439 515.226 303.878 516.674 Q302.336 518.122 302.336 520.662 Q302.336 523.201 303.878 524.649 Q305.439 526.097 308.148 526.097 Q310.856 526.097 312.417 524.649 Q313.978 523.182 313.978 520.662 Q313.978 518.122 312.417 516.674 Q310.875 515.226 308.148 515.226 M304.348 513.609 Q301.903 513.007 300.53 511.333 Q299.176 509.659 299.176 507.252 Q299.176 503.885 301.565 501.929 Q303.972 499.973 308.148 499.973 Q312.342 499.973 314.73 501.929 Q317.119 503.885 317.119 507.252 Q317.119 509.659 315.746 511.333 Q314.392 513.007 311.966 513.609 Q314.711 514.248 316.235 516.11 Q317.777 517.972 317.777 520.662 Q317.777 524.743 315.276 526.925 Q312.793 529.106 308.148 529.106 Q303.502 529.106 301.001 526.925 Q298.518 524.743 298.518 520.662 Q298.518 517.972 300.06 516.11 Q301.602 514.248 304.348 513.609 M302.957 507.609 Q302.957 509.791 304.311 511.013 Q305.684 512.236 308.148 512.236 Q310.593 512.236 311.966 511.013 Q313.357 509.791 313.357 507.609 Q313.357 505.427 311.966 504.205 Q310.593 502.982 308.148 502.982 Q305.684 502.982 304.311 504.205 Q302.957 505.427 302.957 507.609 Z" fill="#000000" fill-rule="nonzero" fill-opacity="1" /><path clip-path="url(#clip280)" d="M113.982 204.396 L102.176 222.845 L113.982 222.845 L113.982 204.396 M112.755 200.322 L118.635 200.322 L118.635 222.845 L123.565 222.845 L123.565 226.734 L118.635 226.734 L118.635 234.882 L113.982 234.882 L113.982 226.734 L98.3802 226.734 L98.3802 222.22 L112.755 200.322 Z" fill="#000000" fill-rule="nonzero" fill-opacity="1" /><path clip-path="url(#clip280)" d="M131.297 229.002 L136.181 229.002 L136.181 234.882 L131.297 234.882 L131.297 229.002 Z" fill="#000000" fill-rule="nonzero" fill-opacity="1" /><path clip-path="url(#clip280)" d="M145.185 200.322 L167.408 200.322 L167.408 202.312 L154.861 234.882 L149.977 234.882 L161.783 204.257 L145.185 204.257 L145.185 200.322 Z" fill="#000000" fill-rule="nonzero" fill-opacity="1" /><path clip-path="url(#clip280)" d="M186.528 203.4 Q182.917 203.4 181.088 206.965 Q179.283 210.507 179.283 217.636 Q179.283 224.743 181.088 228.308 Q182.917 231.849 186.528 231.849 Q190.162 231.849 191.968 228.308 Q193.796 224.743 193.796 217.636 Q193.796 210.507 191.968 206.965 Q190.162 203.4 186.528 203.4 M186.528 199.697 Q192.338 199.697 195.394 204.303 Q198.472 208.887 198.472 217.636 Q198.472 226.363 195.394 230.97 Q192.338 235.553 186.528 235.553 Q180.718 235.553 177.639 230.97 Q174.583 226.363 174.583 217.636 Q174.583 208.887 177.639 204.303 Q180.718 199.697 186.528 199.697 Z" fill="#000000" fill-rule="nonzero" fill-opacity="1" /><path clip-path="url(#clip280)" d="M234.861 209.419 L224.282 220.044 L234.861 230.622 L232.106 233.423 L221.481 222.798 L210.856 233.423 L208.125 230.622 L218.68 220.044 L208.125 209.419 L210.856 206.618 L221.481 217.243 L232.106 206.618 L234.861 209.419 Z" fill="#000000" fill-rule="nonzero" fill-opacity="1" /><path clip-path="url(#clip280)" d="M247.222 230.947 L254.861 230.947 L254.861 204.581 L246.551 206.248 L246.551 201.988 L254.815 200.322 L259.49 200.322 L259.49 230.947 L267.129 230.947 L267.129 234.882 L247.222 234.882 L247.222 230.947 Z" fill="#000000" fill-rule="nonzero" fill-opacity="1" /><path clip-path="url(#clip280)" d="M286.574 203.4 Q282.963 203.4 281.134 206.965 Q279.328 210.507 279.328 217.636 Q279.328 224.743 281.134 228.308 Q282.963 231.849 286.574 231.849 Q290.208 231.849 292.013 228.308 Q293.842 224.743 293.842 217.636 Q293.842 210.507 292.013 206.965 Q290.208 203.4 286.574 203.4 M286.574 199.697 Q292.384 199.697 295.439 204.303 Q298.518 208.887 298.518 217.636 Q298.518 226.363 295.439 230.97 Q292.384 235.553 286.574 235.553 Q280.763 235.553 277.685 230.97 Q274.629 226.363 274.629 217.636 Q274.629 208.887 277.685 204.303 Q280.763 199.697 286.574 199.697 Z" fill="#000000" fill-rule="nonzero" fill-opacity="1" /><path clip-path="url(#clip280)" d="M308.148 194.137 Q305.439 194.137 303.878 195.585 Q302.336 197.033 302.336 199.572 Q302.336 202.111 303.878 203.559 Q305.439 205.008 308.148 205.008 Q310.856 205.008 312.417 203.559 Q313.978 202.092 313.978 199.572 Q313.978 197.033 312.417 195.585 Q310.875 194.137 308.148 194.137 M304.348 192.519 Q301.903 191.917 300.53 190.243 Q299.176 188.57 299.176 186.162 Q299.176 182.796 301.565 180.84 Q303.972 178.884 308.148 178.884 Q312.342 178.884 314.73 180.84 Q317.119 182.796 317.119 186.162 Q317.119 188.57 315.746 190.243 Q314.392 191.917 311.966 192.519 Q314.711 193.159 316.235 195.021 Q317.777 196.883 317.777 199.572 Q317.777 203.653 315.276 205.835 Q312.793 208.017 308.148 208.017 Q303.502 208.017 301.001 205.835 Q298.518 203.653 298.518 199.572 Q298.518 196.883 300.06 195.021 Q301.602 193.159 304.348 192.519 M302.957 186.519 Q302.957 188.701 304.311 189.924 Q305.684 191.146 308.148 191.146 Q310.593 191.146 311.966 189.924 Q313.357 188.701 313.357 186.519 Q313.357 184.338 311.966 183.115 Q310.593 181.893 308.148 181.893 Q305.684 181.893 304.311 183.115 Q302.957 184.338 302.957 186.519 Z" fill="#000000" fill-rule="nonzero" fill-opacity="1" /><path clip-path="url(#clip280)" d="M-9.64527 840.632 L0.4762 840.632 L0.4762 828.569 L5.02768 828.569 L5.02768 840.632 L24.3794 840.632 Q28.7399 840.632 29.9813 839.454 Q31.2226 838.245 31.2226 834.584 L31.2226 828.569 L36.1242 828.569 L36.1242 834.584 Q36.1242 841.364 33.6097 843.942 Q31.0634 846.52 24.3794 846.52 L5.02768 846.52 L5.02768 850.817 L0.4762 850.817 L0.4762 846.52 L-9.64527 846.52 L-9.64527 840.632 Z" fill="#000000" fill-rule="nonzero" fill-opacity="1" /><path clip-path="url(#clip280)" d="M-11.3958 789.738 L-11.3958 784.327 L42.1716 800.878 L42.1716 806.289 L-11.3958 789.738 Z" fill="#000000" fill-rule="nonzero" fill-opacity="1" /><path clip-path="url(#clip280)" d="M14.6081 727.831 L36.1242 727.831 L36.1242 733.688 L14.799 733.688 Q9.7383 733.688 7.22385 735.661 Q4.7094 737.635 4.7094 741.581 Q4.7094 746.324 7.73311 749.061 Q10.7568 751.798 15.9767 751.798 L36.1242 751.798 L36.1242 757.687 L0.4762 757.687 L0.4762 751.798 L6.01437 751.798 Q2.79968 749.698 1.20826 746.865 Q-0.38317 744 -0.38317 740.276 Q-0.38317 734.133 3.43625 730.982 Q7.22385 727.831 14.6081 727.831 Z" fill="#000000" fill-rule="nonzero" fill-opacity="1" /><path clip-path="url(#clip280)" d="M1.52654 693.425 L7.06471 693.425 Q5.79157 695.907 5.15499 698.581 Q4.51842 701.255 4.51842 704.119 Q4.51842 708.48 5.85522 710.676 Q7.19202 712.84 9.86562 712.84 Q11.9026 712.84 13.0803 711.281 Q14.2261 709.721 15.2765 705.01 L15.7221 703.005 Q17.0589 696.767 19.5097 694.157 Q21.9286 691.515 26.2891 691.515 Q31.2544 691.515 34.1508 695.462 Q37.0472 699.377 37.0472 706.252 Q37.0472 709.116 36.4743 712.235 Q35.9332 715.323 34.8192 718.76 L28.7718 718.76 Q30.4587 715.514 31.318 712.363 Q32.1456 709.212 32.1456 706.124 Q32.1456 701.987 30.7451 699.759 Q29.3129 697.531 26.7347 697.531 Q24.3476 697.531 23.0745 699.154 Q21.8013 700.745 20.6237 706.188 L20.1462 708.225 Q19.0004 713.668 16.6451 716.087 Q14.258 718.506 10.1202 718.506 Q5.09134 718.506 2.35408 714.941 Q-0.38317 711.376 -0.38317 704.819 Q-0.38317 701.573 0.0942579 698.708 Q0.571686 695.844 1.52654 693.425 Z" fill="#000000" fill-rule="nonzero" fill-opacity="1" /><path clip-path="url(#clip282)" d="M835.888 1454.11 L840.519 1447.25 L845.154 1440.4 L849.781 1433.54 L854.387 1426.68 L858.959 1419.82 L863.483 1412.96 L867.944 1406.1 L872.325 1399.25 L876.608 1392.39 L880.775 1385.53 L884.805 1378.67 L888.678 1371.81 L892.369 1364.96 L895.857 1358.1 L899.118 1351.24 L902.129 1344.38 L904.867 1337.52 L907.31 1330.67 L909.439 1323.81 L911.237 1316.95 L912.689 1310.09 L913.786 1303.23 L914.523 1296.38 L914.899 1289.52 L914.922 1282.66 L914.603 1275.8 L913.961 1268.94 L913.023 1262.09 L911.821 1255.23 L910.396 1248.37 L908.794 1241.51 L907.067 1234.65 L905.273 1227.8 L903.474 1220.94 L901.736 1214.08 L900.127 1207.22 L898.717 1200.36 L897.573 1193.51 L896.763 1186.65 L896.35 1179.79 L896.393 1172.93 L896.946 1166.07 L898.052 1159.22 L899.749 1152.36 L902.062 1145.5 L905.007 1138.64 L908.589 1131.78 L912.8 1124.92 L917.618 1118.07 L923.01 1111.21 L928.933 1104.35 L935.328 1097.49 L942.128 1090.63 L949.256 1083.78 L956.623 1076.92 L964.136 1070.06 L971.694 1063.2 L979.193 1056.34 L986.524 1049.49 L993.582 1042.63 L1000.26 1035.77 L1006.45 1028.91 L1012.05 1022.05 L1016.98 1015.2 L1021.16 1008.34 L1024.49 1001.48 L1026.93 994.622 L1028.42 987.764 L1028.93 980.906 L1028.42 974.048 L1026.89 967.19 L1024.33 960.332 L1020.77 953.474 L1016.23 946.616 L1010.75 939.757 L1004.39 932.899 L997.201 926.041 L989.257 919.183 L980.636 912.325 L492.944 912.325 L484.323 919.183 L476.379 926.041 L469.19 932.899 L462.826 939.757 L457.349 946.616 L452.809 953.474 L449.249 960.332 L446.695 967.19 L445.162 974.048 L444.654 980.906 L445.158 987.764 L446.649 994.622 L449.088 1001.48 L452.425 1008.34 L456.595 1015.2 L461.526 1022.05 L467.133 1028.91 L473.323 1035.77 L479.999 1042.63 L487.056 1049.49 L494.387 1056.34 L501.886 1063.2 L509.444 1070.06 L516.957 1076.92 L524.324 1083.78 L531.452 1090.63 L538.252 1097.49 L544.647 1104.35 L550.57 1111.21 L555.963 1118.07 L560.78 1124.92 L564.991 1131.78 L568.573 1138.64 L571.518 1145.5 L573.832 1152.36 L575.528 1159.22 L576.634 1166.07 L577.187 1172.93 L577.23 1179.79 L576.817 1186.65 L576.007 1193.51 L574.863 1200.36 L573.453 1207.22 L571.844 1214.08 L570.106 1220.94 L568.307 1227.8 L566.513 1234.65 L564.786 1241.51 L563.184 1248.37 L561.759 1255.23 L560.557 1262.09 L559.619 1268.94 L558.977 1275.8 L558.658 1282.66 L558.681 1289.52 L559.057 1296.38 L559.794 1303.23 L560.891 1310.09 L562.344 1316.95 L564.141 1323.81 L566.27 1330.67 L568.713 1337.52 L571.451 1344.38 L574.462 1351.24 L577.723 1358.1 L581.211 1364.96 L584.903 1371.81 L588.775 1378.67 L592.805 1385.53 L596.972 1392.39 L601.255 1399.25 L605.636 1406.1 L610.097 1412.96 L614.621 1419.82 L619.193 1426.68 L623.799 1433.54 L628.426 1440.4 L633.061 1447.25 L637.692 1454.11 L835.888 1454.11  Z" fill="#009af9" fill-rule="evenodd" fill-opacity="1"/>
<polyline clip-path="url(#clip282)" style="stroke:#000000; stroke-linecap:round; stroke-linejoin:round; stroke-width:4; stroke-opacity:1; fill:none" points="835.888,1454.11 840.519,1447.25 845.154,1440.4 849.781,1433.54 854.387,1426.68 858.959,1419.82 863.483,1412.96 867.944,1406.1 872.325,1399.25 876.608,1392.39 880.775,1385.53 884.805,1378.67 888.678,1371.81 892.369,1364.96 895.857,1358.1 899.118,1351.24 902.129,1344.38 904.867,1337.52 907.31,1330.67 909.439,1323.81 911.237,1316.95 912.689,1310.09 913.786,1303.23 914.523,1296.38 914.899,1289.52 914.922,1282.66 914.603,1275.8 913.961,1268.94 913.023,1262.09 911.821,1255.23 910.396,1248.37 908.794,1241.51 907.067,1234.65 905.273,1227.8 903.474,1220.94 901.736,1214.08 900.127,1207.22 898.717,1200.36 897.573,1193.51 896.763,1186.65 896.35,1179.79 896.393,1172.93 896.946,1166.07 898.052,1159.22 899.749,1152.36 902.062,1145.5 905.007,1138.64 908.589,1131.78 912.8,1124.92 917.618,1118.07 923.01,1111.21 928.933,1104.35 935.328,1097.49 942.128,1090.63 949.256,1083.78 956.623,1076.92 964.136,1070.06 971.694,1063.2 979.193,1056.34 986.524,1049.49 993.582,1042.63 1000.26,1035.77 1006.45,1028.91 1012.05,1022.05 1016.98,1015.2 1021.16,1008.34 1024.49,1001.48 1026.93,994.622 1028.42,987.764 1028.93,980.906 1028.42,974.048 1026.89,967.19 1024.33,960.332 1020.77,953.474 1016.23,946.616 1010.75,939.757 1004.39,932.899 997.201,926.041 989.257,919.183 980.636,912.325 492.944,912.325 484.323,919.183 476.379,926.041 469.19,932.899 462.826,939.757 457.349,946.616 452.809,953.474 449.249,960.332 446.695,967.19 445.162,974.048 444.654,980.906 445.158,987.764 446.649,994.622 449.088,1001.48 452.425,1008.34 456.595,1015.2 461.526,1022.05 467.133,1028.91 473.323,1035.77 479.999,1042.63 487.056,1049.49 494.387,1056.34 501.886,1063.2 509.444,1070.06 516.957,1076.92 524.324,1083.78 531.452,1090.63 538.252,1097.49 544.647,1104.35 550.57,1111.21 555.963,1118.07 560.78,1124.92 564.991,1131.78 568.573,1138.64 571.518,1145.5 573.832,1152.36 575.528,1159.22 576.634,1166.07 577.187,1172.93 577.23,1179.79 576.817,1186.65 576.007,1193.51 574.863,1200.36 573.453,1207.22 571.844,1214.08 570.106,1220.94 568.307,1227.8 566.513,1234.65 564.786,1241.51 563.184,1248.37 561.759,1255.23 560.557,1262.09 559.619,1268.94 558.977,1275.8 558.658,1282.66 558.681,1289.52 559.057,1296.38 559.794,1303.23 560.891,1310.09 562.344,1316.95 564.141,1323.81 566.27,1330.67 568.713,1337.52 571.451,1344.38 574.462,1351.24 577.723,1358.1 581.211,1364.96 584.903,1371.81 588.775,1378.67 592.805,1385.53 596.972,1392.39 601.255,1399.25 605.636,1406.1 610.097,1412.96 614.621,1419.82 619.193,1426.68 623.799,1433.54 628.426,1440.4 633.061,1447.25 637.692,1454.11 835.888,1454.11 "/>
<path clip-path="url(#clip282)" d="M1873.68 1047.83 L1876.08 1045.48 L1877.65 1043.13 L1878.36 1040.78 L1878.21 1038.43 L1877.23 1036.08 L1875.44 1033.74 L1872.9 1031.39 L1869.68 1029.04 L1865.83 1026.69 L1861.45 1024.34 L1856.61 1021.99 L1851.4 1019.65 L1845.91 1017.3 L1840.22 1014.95 L1834.42 1012.6 L1828.58 1010.25 L1822.78 1007.9 L1817.1 1005.56 L1811.59 1003.21 L1806.31 1000.86 L1801.32 998.51 L1796.66 996.162 L1792.37 993.813 L1788.49 991.465 L1785.04 989.116 L1782.07 986.768 L1779.58 984.42 L1777.6 982.071 L1776.17 979.723 L1775.29 977.375 L1775.01 975.026 L1775.34 972.678 L1776.32 970.329 L1777.99 967.981 L1780.39 965.633 L1783.56 963.284 L1787.54 960.936 L1792.38 958.588 L1798.12 956.239 L1804.8 953.891 L1812.44 951.542 L1821.06 949.194 L1830.66 946.846 L1841.24 944.497 L1852.75 942.149 L1865.13 939.801 L1878.31 937.452 L1892.16 935.104 L1906.56 932.756 L1921.34 930.407 L1936.31 928.059 L1951.26 925.71 L1965.98 923.362 L1980.22 921.014 L1993.74 918.665 L2006.31 916.317 L2017.69 913.969 L2027.68 911.62 L2036.09 909.272 L2042.76 906.923 L2047.58 904.575 L2050.47 902.227 L2051.4 899.878 L2050.38 897.53 L2047.47 895.182 L2042.76 892.833 L2036.39 890.485 L2028.52 888.136 L2019.35 885.788 L2009.07 883.44 L1997.89 881.091 L1986.04 878.743 L1973.72 876.395 L1961.11 874.046 L1948.41 871.698 L1935.76 869.349 L1923.3 867.001 L1911.13 864.653 L1899.36 862.304 L1888.03 859.956 L1877.22 857.608 L1866.93 855.259 L1857.2 852.911 L1848.04 850.562 L1839.44 848.214 L1831.41 845.866 L1823.96 843.517 L1817.06 841.169 L1810.73 838.821 L1804.96 836.472 L1799.75 834.124 L1795.09 831.775 L1791 829.427 L1787.46 827.079 L1784.48 824.73 L1782.06 822.382 L1780.18 820.034 L1778.83 817.685 L1778.02 815.337 L1777.71 812.988 L1777.88 810.64 L1778.5 808.292 L1779.54 805.943 L1780.95 803.595 L1782.7 801.247 L1784.71 798.898 L1786.93 796.55 L1789.29 794.201 L1791.72 791.853 L1794.15 789.505 L1796.5 787.156 L1798.7 784.808 L1800.68 782.46 L1802.38 780.111 L1803.73 777.763 L1804.69 775.414 L1805.24 773.066 L1713.3 773.066 L1713.84 775.414 L1714.81 777.763 L1716.16 780.111 L1717.85 782.46 L1719.83 784.808 L1722.03 787.156 L1724.38 789.505 L1726.81 791.853 L1729.24 794.201 L1731.6 796.55 L1733.83 798.898 L1735.84 801.247 L1737.58 803.595 L1738.99 805.943 L1740.03 808.292 L1740.66 810.64 L1740.83 812.988 L1740.52 815.337 L1739.7 817.685 L1738.36 820.034 L1736.48 822.382 L1734.05 824.73 L1731.07 827.079 L1727.53 829.427 L1723.44 831.775 L1718.79 834.124 L1713.57 836.472 L1707.8 838.821 L1701.47 841.169 L1694.58 843.517 L1687.12 845.866 L1679.09 848.214 L1670.5 850.562 L1661.33 852.911 L1651.6 855.259 L1641.32 857.608 L1630.5 859.956 L1619.18 862.304 L1607.4 864.653 L1595.24 867.001 L1582.78 869.349 L1570.12 871.698 L1557.42 874.046 L1544.82 876.395 L1532.49 878.743 L1520.64 881.091 L1509.47 883.44 L1499.18 885.788 L1490.01 888.136 L1482.14 890.485 L1475.77 892.833 L1471.06 895.182 L1468.15 897.53 L1467.13 899.878 L1468.06 902.227 L1470.95 904.575 L1475.77 906.923 L1482.44 909.272 L1490.85 911.62 L1500.84 913.969 L1512.23 916.317 L1524.79 918.665 L1538.32 921.014 L1552.55 923.362 L1567.27 925.71 L1582.23 928.059 L1597.2 930.407 L1611.97 932.756 L1626.37 935.104 L1640.23 937.452 L1653.4 939.801 L1665.79 942.149 L1677.29 944.497 L1687.87 946.846 L1697.48 949.194 L1706.1 951.542 L1713.74 953.891 L1720.41 956.239 L1726.15 958.588 L1730.99 960.936 L1734.98 963.284 L1738.14 965.633 L1740.54 967.981 L1742.21 970.329 L1743.2 972.678 L1743.53 975.026 L1743.24 977.375 L1742.37 979.723 L1740.93 982.071 L1738.96 984.42 L1736.47 986.768 L1733.49 989.116 L1730.05 991.465 L1726.16 993.813 L1721.88 996.162 L1717.21 998.51 L1712.22 1000.86 L1706.94 1003.21 L1701.43 1005.56 L1695.75 1007.9 L1689.95 1010.25 L1684.12 1012.6 L1678.31 1014.95 L1672.62 1017.3 L1667.13 1019.65 L1661.92 1021.99 L1657.08 1024.34 L1652.7 1026.69 L1648.86 1029.04 L1645.63 1031.39 L1643.09 1033.74 L1641.31 1036.08 L1640.32 1038.43 L1640.17 1040.78 L1640.88 1043.13 L1642.45 1045.48 L1644.86 1047.83 L1873.68 1047.83  Z" fill="#e26f46" fill-rule="evenodd" fill-opacity="1"/>
<polyline clip-path="url(#clip282)" style="stroke:#000000; stroke-linecap:round; stroke-linejoin:round; stroke-width:4; stroke-opacity:1; fill:none" points="1873.68,1047.83 1876.08,1045.48 1877.65,1043.13 1878.36,1040.78 1878.21,1038.43 1877.23,1036.08 1875.44,1033.74 1872.9,1031.39 1869.68,1029.04 1865.83,1026.69 1861.45,1024.34 1856.61,1021.99 1851.4,1019.65 1845.91,1017.3 1840.22,1014.95 1834.42,1012.6 1828.58,1010.25 1822.78,1007.9 1817.1,1005.56 1811.59,1003.21 1806.31,1000.86 1801.32,998.51 1796.66,996.162 1792.37,993.813 1788.49,991.465 1785.04,989.116 1782.07,986.768 1779.58,984.42 1777.6,982.071 1776.17,979.723 1775.29,977.375 1775.01,975.026 1775.34,972.678 1776.32,970.329 1777.99,967.981 1780.39,965.633 1783.56,963.284 1787.54,960.936 1792.38,958.588 1798.12,956.239 1804.8,953.891 1812.44,951.542 1821.06,949.194 1830.66,946.846 1841.24,944.497 1852.75,942.149 1865.13,939.801 1878.31,937.452 1892.16,935.104 1906.56,932.756 1921.34,930.407 1936.31,928.059 1951.26,925.71 1965.98,923.362 1980.22,921.014 1993.74,918.665 2006.31,916.317 2017.69,913.969 2027.68,911.62 2036.09,909.272 2042.76,906.923 2047.58,904.575 2050.47,902.227 2051.4,899.878 2050.38,897.53 2047.47,895.182 2042.76,892.833 2036.39,890.485 2028.52,888.136 2019.35,885.788 2009.07,883.44 1997.89,881.091 1986.04,878.743 1973.72,876.395 1961.11,874.046 1948.41,871.698 1935.76,869.349 1923.3,867.001 1911.13,864.653 1899.36,862.304 1888.03,859.956 1877.22,857.608 1866.93,855.259 1857.2,852.911 1848.04,850.562 1839.44,848.214 1831.41,845.866 1823.96,843.517 1817.06,841.169 1810.73,838.821 1804.96,836.472 1799.75,834.124 1795.09,831.775 1791,829.427 1787.46,827.079 1784.48,824.73 1782.06,822.382 1780.18,820.034 1778.83,817.685 1778.02,815.337 1777.71,812.988 1777.88,810.64 1778.5,808.292 1779.54,805.943 1780.95,803.595 1782.7,801.247 1784.71,798.898 1786.93,796.55 1789.29,794.201 1791.72,791.853 1794.15,789.505 1796.5,787.156 1798.7,784.808 1800.68,782.46 1802.38,780.111 1803.73,777.763 1804.69,775.414 1805.24,773.066 1713.3,773.066 1713.84,775.414 1714.81,777.763 1716.16,780.111 1717.85,782.46 1719.83,784.808 1722.03,787.156 1724.38,789.505 1726.81,791.853 1729.24,794.201 1731.6,796.55 1733.83,798.898 1735.84,801.247 1737.58,803.595 1738.99,805.943 1740.03,808.292 1740.66,810.64 1740.83,812.988 1740.52,815.337 1739.7,817.685 1738.36,820.034 1736.48,822.382 1734.05,824.73 1731.07,827.079 1727.53,829.427 1723.44,831.775 1718.79,834.124 1713.57,836.472 1707.8,838.821 1701.47,841.169 1694.58,843.517 1687.12,845.866 1679.09,848.214 1670.5,850.562 1661.33,852.911 1651.6,855.259 1641.32,857.608 1630.5,859.956 1619.18,862.304 1607.4,864.653 1595.24,867.001 1582.78,869.349 1570.12,871.698 1557.42,874.046 1544.82,876.395 1532.49,878.743 1520.64,881.091 1509.47,883.44 1499.18,885.788 1490.01,888.136 1482.14,890.485 1475.77,892.833 1471.06,895.182 1468.15,897.53 1467.13,899.878 1468.06,902.227 1470.95,904.575 1475.77,906.923 1482.44,909.272 1490.85,911.62 1500.84,913.969 1512.23,916.317 1524.79,918.665 1538.32,921.014 1552.55,923.362 1567.27,925.71 1582.23,928.059 1597.2,930.407 1611.97,932.756 1626.37,935.104 1640.23,937.452 1653.4,939.801 1665.79,942.149 1677.29,944.497 1687.87,946.846 1697.48,949.194 1706.1,951.542 1713.74,953.891 1720.41,956.239 1726.15,958.588 1730.99,960.936 1734.98,963.284 1738.14,965.633 1740.54,967.981 1742.21,970.329 1743.2,972.678 1743.53,975.026 1743.24,977.375 1742.37,979.723 1740.93,982.071 1738.96,984.42 1736.47,986.768 1733.49,989.116 1730.05,991.465 1726.16,993.813 1721.88,996.162 1717.21,998.51 1712.22,1000.86 1706.94,1003.21 1701.43,1005.56 1695.75,1007.9 1689.95,1010.25 1684.12,1012.6 1678.31,1014.95 1672.62,1017.3 1667.13,1019.65 1661.92,1021.99 1657.08,1024.34 1652.7,1026.69 1648.86,1029.04 1645.63,1031.39 1643.09,1033.74 1641.31,1036.08 1640.32,1038.43 1640.17,1040.78 1640.88,1043.13 1642.45,1045.48 1644.86,1047.83 1873.68,1047.83 "/>
<path clip-path="url(#clip282)" d="M2876.86 537.956 L2879.22 532.902 L2881.26 527.849 L2882.95 522.796 L2884.29 517.743 L2885.28 512.69 L2885.92 507.636 L2886.23 502.583 L2886.23 497.53 L2885.94 492.477 L2885.39 487.424 L2884.62 482.37 L2883.68 477.317 L2882.59 472.264 L2881.43 467.211 L2880.22 462.158 L2879.04 457.104 L2877.93 452.051 L2876.93 446.998 L2876.12 441.945 L2875.52 436.892 L2875.2 431.838 L2875.18 426.785 L2875.51 421.732 L2876.22 416.679 L2877.33 411.626 L2878.86 406.572 L2880.84 401.519 L2883.26 396.466 L2886.13 391.413 L2889.44 386.36 L2893.19 381.306 L2897.36 376.253 L2901.93 371.2 L2906.87 366.147 L2912.17 361.094 L2917.78 356.04 L2923.68 350.987 L2929.83 345.934 L2936.19 340.881 L2942.72 335.828 L2949.4 330.774 L2956.17 325.721 L2963 320.668 L2969.86 315.615 L2976.7 310.562 L2983.49 305.508 L2990.2 300.455 L2996.8 295.402 L3003.25 290.349 L3009.53 285.296 L3015.61 280.242 L3021.47 275.189 L3027.08 270.136 L3032.43 265.083 L3037.5 260.03 L3042.28 254.976 L3046.75 249.923 L3050.9 244.87 L3054.73 239.817 L3058.22 234.764 L3061.38 229.71 L3064.19 224.657 L3066.65 219.604 L3068.76 214.551 L3070.51 209.498 L3071.91 204.444 L3072.94 199.391 L3073.6 194.338 L3073.88 189.285 L3073.78 184.232 L3073.28 179.178 L3072.39 174.125 L3071.08 169.072 L3069.34 164.019 L3067.17 158.966 L3064.55 153.912 L3061.47 148.859 L3057.91 143.806 L3053.88 138.753 L3049.37 133.7 L3044.36 128.646 L3038.88 123.593 L3032.91 118.54 L3026.47 113.487 L3019.58 108.434 L3012.25 103.38 L3004.52 98.3272 L2996.41 93.274 L2987.97 88.2208 L2575.52 88.2208 L2567.07 93.274 L2558.96 98.3272 L2551.23 103.38 L2543.91 108.434 L2537.01 113.487 L2530.58 118.54 L2524.61 123.593 L2519.12 128.646 L2514.12 133.7 L2509.6 138.753 L2505.57 143.806 L2502.02 148.859 L2498.94 153.912 L2496.32 158.966 L2494.14 164.019 L2492.41 169.072 L2491.1 174.125 L2490.2 179.178 L2489.71 184.232 L2489.61 189.285 L2489.89 194.338 L2490.55 199.391 L2491.58 204.444 L2492.97 209.498 L2494.73 214.551 L2496.84 219.604 L2499.3 224.657 L2502.11 229.71 L2505.26 234.764 L2508.76 239.817 L2512.58 244.87 L2516.74 249.923 L2521.21 254.976 L2525.98 260.03 L2531.05 265.083 L2536.41 270.136 L2542.02 275.189 L2547.88 280.242 L2553.96 285.296 L2560.24 290.349 L2566.69 295.402 L2573.29 300.455 L2580 305.508 L2586.79 310.562 L2593.63 315.615 L2600.49 320.668 L2607.32 325.721 L2614.09 330.774 L2620.76 335.828 L2627.3 340.881 L2633.66 345.934 L2639.81 350.987 L2645.7 356.04 L2651.32 361.094 L2656.61 366.147 L2661.56 371.2 L2666.13 376.253 L2670.29 381.306 L2674.04 386.36 L2677.36 391.413 L2680.23 396.466 L2682.65 401.519 L2684.62 406.572 L2686.16 411.626 L2687.27 416.679 L2687.98 421.732 L2688.31 426.785 L2688.29 431.838 L2687.96 436.892 L2687.37 441.945 L2686.55 446.998 L2685.56 452.051 L2684.45 457.104 L2683.26 462.158 L2682.06 467.211 L2680.89 472.264 L2679.81 477.317 L2678.86 482.37 L2678.09 487.424 L2677.55 492.477 L2677.26 497.53 L2677.25 502.583 L2677.57 507.636 L2678.21 512.69 L2679.2 517.743 L2680.54 522.796 L2682.23 527.849 L2684.26 532.902 L2686.63 537.956 L2876.86 537.956  Z" fill="#3da44d" fill-rule="evenodd" fill-opacity="1"/>
<polyline clip-path="url(#clip282)" style="stroke:#000000; stroke-linecap:round; stroke-linejoin:round; stroke-width:4; stroke-opacity:1; fill:none" points="2876.86,537.956 2879.22,532.902 2881.26,527.849 2882.95,522.796 2884.29,517.743 2885.28,512.69 2885.92,507.636 2886.23,502.583 2886.23,497.53 2885.94,492.477 2885.39,487.424 2884.62,482.37 2883.68,477.317 2882.59,472.264 2881.43,467.211 2880.22,462.158 2879.04,457.104 2877.93,452.051 2876.93,446.998 2876.12,441.945 2875.52,436.892 2875.2,431.838 2875.18,426.785 2875.51,421.732 2876.22,416.679 2877.33,411.626 2878.86,406.572 2880.84,401.519 2883.26,396.466 2886.13,391.413 2889.44,386.36 2893.19,381.306 2897.36,376.253 2901.93,371.2 2906.87,366.147 2912.17,361.094 2917.78,356.04 2923.68,350.987 2929.83,345.934 2936.19,340.881 2942.72,335.828 2949.4,330.774 2956.17,325.721 2963,320.668 2969.86,315.615 2976.7,310.562 2983.49,305.508 2990.2,300.455 2996.8,295.402 3003.25,290.349 3009.53,285.296 3015.61,280.242 3021.47,275.189 3027.08,270.136 3032.43,265.083 3037.5,260.03 3042.28,254.976 3046.75,249.923 3050.9,244.87 3054.73,239.817 3058.22,234.764 3061.38,229.71 3064.19,224.657 3066.65,219.604 3068.76,214.551 3070.51,209.498 3071.91,204.444 3072.94,199.391 3073.6,194.338 3073.88,189.285 3073.78,184.232 3073.28,179.178 3072.39,174.125 3071.08,169.072 3069.34,164.019 3067.17,158.966 3064.55,153.912 3061.47,148.859 3057.91,143.806 3053.88,138.753 3049.37,133.7 3044.36,128.646 3038.88,123.593 3032.91,118.54 3026.47,113.487 3019.58,108.434 3012.25,103.38 3004.52,98.3272 2996.41,93.274 2987.97,88.2208 2575.52,88.2208 2567.07,93.274 2558.96,98.3272 2551.23,103.38 2543.91,108.434 2537.01,113.487 2530.58,118.54 2524.61,123.593 2519.12,128.646 2514.12,133.7 2509.6,138.753 2505.57,143.806 2502.02,148.859 2498.94,153.912 2496.32,158.966 2494.14,164.019 2492.41,169.072 2491.1,174.125 2490.2,179.178 2489.71,184.232 2489.61,189.285 2489.89,194.338 2490.55,199.391 2491.58,204.444 2492.97,209.498 2494.73,214.551 2496.84,219.604 2499.3,224.657 2502.11,229.71 2505.26,234.764 2508.76,239.817 2512.58,244.87 2516.74,249.923 2521.21,254.976 2525.98,260.03 2531.05,265.083 2536.41,270.136 2542.02,275.189 2547.88,280.242 2553.96,285.296 2560.24,290.349 2566.69,295.402 2573.29,300.455 2580,305.508 2586.79,310.562 2593.63,315.615 2600.49,320.668 2607.32,325.721 2614.09,330.774 2620.76,335.828 2627.3,340.881 2633.66,345.934 2639.81,350.987 2645.7,356.04 2651.32,361.094 2656.61,366.147 2661.56,371.2 2666.13,376.253 2670.29,381.306 2674.04,386.36 2677.36,391.413 2680.23,396.466 2682.65,401.519 2684.62,406.572 2686.16,411.626 2687.27,416.679 2687.98,421.732 2688.31,426.785 2688.29,431.838 2687.96,436.892 2687.37,441.945 2686.55,446.998 2685.56,452.051 2684.45,457.104 2683.26,462.158 2682.06,467.211 2680.89,472.264 2679.81,477.317 2678.86,482.37 2678.09,487.424 2677.55,492.477 2677.26,497.53 2677.25,502.583 2677.57,507.636 2678.21,512.69 2679.2,517.743 2680.54,522.796 2682.23,527.849 2684.26,532.902 2686.63,537.956 2876.86,537.956 "/>
</svg>
