<?xml version="1.0" encoding="utf-8"?>
<svg xmlns="http://www.w3.org/2000/svg" xmlns:xlink="http://www.w3.org/1999/xlink" width="600" height="400" viewBox="0 0 2400 1600">
<defs>
  <clipPath id="clip460">
    <rect x="0" y="0" width="2400" height="1600"/>
  </clipPath>
</defs>
<path clip-path="url(#clip460)" d="M0 1600 L2400 1600 L2400 0 L0 0  Z" fill="#ffffff" fill-rule="evenodd" fill-opacity="1"/>
<defs>
  <clipPath id="clip461">
    <rect x="394" y="47" width="1959" height="1377"/>
  </clipPath>
</defs>
<path clip-path="url(#clip460)" d="M394.884 1423.18 L2352.76 1423.18 L2352.76 47.2441 L394.884 47.2441  Z" fill="#ffffff" fill-rule="evenodd" fill-opacity="1"/>
<polyline clip-path="url(#clip461)" style="stroke:#000000; stroke-linecap:round; stroke-linejoin:round; stroke-width:2; stroke-opacity:0.1; fill:none" points="758.137,1423.18 758.137,47.2441 "/>
<polyline clip-path="url(#clip461)" style="stroke:#000000; stroke-linecap:round; stroke-linejoin:round; stroke-width:2; stroke-opacity:0.1; fill:none" points="1142.94,1423.18 1142.94,47.2441 "/>
<polyline clip-path="url(#clip461)" style="stroke:#000000; stroke-linecap:round; stroke-linejoin:round; stroke-width:2; stroke-opacity:0.1; fill:none" points="1527.74,1423.18 1527.74,47.2441 "/>
<polyline clip-path="url(#clip461)" style="stroke:#000000; stroke-linecap:round; stroke-linejoin:round; stroke-width:2; stroke-opacity:0.1; fill:none" points="1912.54,1423.18 1912.54,47.2441 "/>
<polyline clip-path="url(#clip461)" style="stroke:#000000; stroke-linecap:round; stroke-linejoin:round; stroke-width:2; stroke-opacity:0.1; fill:none" points="2297.34,1423.18 2297.34,47.2441 "/>
<polyline clip-path="url(#clip461)" style="stroke:#000000; stroke-linecap:round; stroke-linejoin:round; stroke-width:2; stroke-opacity:0.1; fill:none" points="394.884,1273.39 2352.76,1273.39 "/>
<polyline clip-path="url(#clip461)" style="stroke:#000000; stroke-linecap:round; stroke-linejoin:round; stroke-width:2; stroke-opacity:0.1; fill:none" points="394.884,1096.03 2352.76,1096.03 "/>
<polyline clip-path="url(#clip461)" style="stroke:#000000; stroke-linecap:round; stroke-linejoin:round; stroke-width:2; stroke-opacity:0.1; fill:none" points="394.884,918.668 2352.76,918.668 "/>
<polyline clip-path="url(#clip461)" style="stroke:#000000; stroke-linecap:round; stroke-linejoin:round; stroke-width:2; stroke-opacity:0.1; fill:none" points="394.884,741.309 2352.76,741.309 "/>
<polyline clip-path="url(#clip461)" style="stroke:#000000; stroke-linecap:round; stroke-linejoin:round; stroke-width:2; stroke-opacity:0.1; fill:none" points="394.884,563.949 2352.76,563.949 "/>
<polyline clip-path="url(#clip461)" style="stroke:#000000; stroke-linecap:round; stroke-linejoin:round; stroke-width:2; stroke-opacity:0.1; fill:none" points="394.884,386.59 2352.76,386.59 "/>
<polyline clip-path="url(#clip461)" style="stroke:#000000; stroke-linecap:round; stroke-linejoin:round; stroke-width:2; stroke-opacity:0.1; fill:none" points="394.884,209.23 2352.76,209.23 "/>
<polyline clip-path="url(#clip460)" style="stroke:#000000; stroke-linecap:round; stroke-linejoin:round; stroke-width:4; stroke-opacity:1; fill:none" points="394.884,1423.18 2352.76,1423.18 "/>
<polyline clip-path="url(#clip460)" style="stroke:#000000; stroke-linecap:round; stroke-linejoin:round; stroke-width:4; stroke-opacity:1; fill:none" points="758.137,1423.18 758.137,1404.28 "/>
<polyline clip-path="url(#clip460)" style="stroke:#000000; stroke-linecap:round; stroke-linejoin:round; stroke-width:4; stroke-opacity:1; fill:none" points="1142.94,1423.18 1142.94,1404.28 "/>
<polyline clip-path="url(#clip460)" style="stroke:#000000; stroke-linecap:round; stroke-linejoin:round; stroke-width:4; stroke-opacity:1; fill:none" points="1527.74,1423.18 1527.74,1404.28 "/>
<polyline clip-path="url(#clip460)" style="stroke:#000000; stroke-linecap:round; stroke-linejoin:round; stroke-width:4; stroke-opacity:1; fill:none" points="1912.54,1423.18 1912.54,1404.28 "/>
<polyline clip-path="url(#clip460)" style="stroke:#000000; stroke-linecap:round; stroke-linejoin:round; stroke-width:4; stroke-opacity:1; fill:none" points="2297.34,1423.18 2297.34,1404.28 "/>
<path clip-path="url(#clip460)" d="M721.829 1481.64 L738.149 1481.64 L738.149 1485.58 L716.204 1485.58 L716.204 1481.64 Q718.866 1478.89 723.45 1474.26 Q728.056 1469.61 729.237 1468.27 Q731.482 1465.74 732.362 1464.01 Q733.265 1462.25 733.265 1460.56 Q733.265 1457.8 731.32 1456.07 Q729.399 1454.33 726.297 1454.33 Q724.098 1454.33 721.644 1455.09 Q719.214 1455.86 716.436 1457.41 L716.436 1452.69 Q719.26 1451.55 721.714 1450.97 Q724.167 1450.39 726.204 1450.39 Q731.575 1450.39 734.769 1453.08 Q737.964 1455.77 737.964 1460.26 Q737.964 1462.39 737.153 1464.31 Q736.366 1466.2 734.26 1468.8 Q733.681 1469.47 730.579 1472.69 Q727.478 1475.88 721.829 1481.64 Z" fill="#000000" fill-rule="nonzero" fill-opacity="1" /><path clip-path="url(#clip460)" d="M757.963 1454.1 Q754.352 1454.1 752.524 1457.66 Q750.718 1461.2 750.718 1468.33 Q750.718 1475.44 752.524 1479.01 Q754.352 1482.55 757.963 1482.55 Q761.598 1482.55 763.403 1479.01 Q765.232 1475.44 765.232 1468.33 Q765.232 1461.2 763.403 1457.66 Q761.598 1454.1 757.963 1454.1 M757.963 1450.39 Q763.774 1450.39 766.829 1455 Q769.908 1459.58 769.908 1468.33 Q769.908 1477.06 766.829 1481.67 Q763.774 1486.25 757.963 1486.25 Q752.153 1486.25 749.075 1481.67 Q746.019 1477.06 746.019 1468.33 Q746.019 1459.58 749.075 1455 Q752.153 1450.39 757.963 1450.39 Z" fill="#000000" fill-rule="nonzero" fill-opacity="1" /><path clip-path="url(#clip460)" d="M788.125 1454.1 Q784.514 1454.1 782.686 1457.66 Q780.88 1461.2 780.88 1468.33 Q780.88 1475.44 782.686 1479.01 Q784.514 1482.55 788.125 1482.55 Q791.76 1482.55 793.565 1479.01 Q795.394 1475.44 795.394 1468.33 Q795.394 1461.2 793.565 1457.66 Q791.76 1454.1 788.125 1454.1 M788.125 1450.39 Q793.935 1450.39 796.991 1455 Q800.07 1459.58 800.07 1468.33 Q800.07 1477.06 796.991 1481.67 Q793.935 1486.25 788.125 1486.25 Q782.315 1486.25 779.236 1481.67 Q776.181 1477.06 776.181 1468.33 Q776.181 1459.58 779.236 1455 Q782.315 1450.39 788.125 1450.39 Z" fill="#000000" fill-rule="nonzero" fill-opacity="1" /><path clip-path="url(#clip460)" d="M1116.03 1455.09 L1104.22 1473.54 L1116.03 1473.54 L1116.03 1455.09 M1114.8 1451.02 L1120.68 1451.02 L1120.68 1473.54 L1125.61 1473.54 L1125.61 1477.43 L1120.68 1477.43 L1120.68 1485.58 L1116.03 1485.58 L1116.03 1477.43 L1100.43 1477.43 L1100.43 1472.92 L1114.8 1451.02 Z" fill="#000000" fill-rule="nonzero" fill-opacity="1" /><path clip-path="url(#clip460)" d="M1143.34 1454.1 Q1139.73 1454.1 1137.9 1457.66 Q1136.1 1461.2 1136.1 1468.33 Q1136.1 1475.44 1137.9 1479.01 Q1139.73 1482.55 1143.34 1482.55 Q1146.98 1482.55 1148.78 1479.01 Q1150.61 1475.44 1150.61 1468.33 Q1150.61 1461.2 1148.78 1457.66 Q1146.98 1454.1 1143.34 1454.1 M1143.34 1450.39 Q1149.15 1450.39 1152.21 1455 Q1155.29 1459.58 1155.29 1468.33 Q1155.29 1477.06 1152.21 1481.67 Q1149.15 1486.25 1143.34 1486.25 Q1137.53 1486.25 1134.46 1481.67 Q1131.4 1477.06 1131.4 1468.33 Q1131.4 1459.58 1134.46 1455 Q1137.53 1450.39 1143.34 1450.39 Z" fill="#000000" fill-rule="nonzero" fill-opacity="1" /><path clip-path="url(#clip460)" d="M1173.51 1454.1 Q1169.89 1454.1 1168.07 1457.66 Q1166.26 1461.2 1166.26 1468.33 Q1166.26 1475.44 1168.07 1479.01 Q1169.89 1482.55 1173.51 1482.55 Q1177.14 1482.55 1178.95 1479.01 Q1180.77 1475.44 1180.77 1468.33 Q1180.77 1461.2 1178.95 1457.66 Q1177.14 1454.1 1173.51 1454.1 M1173.51 1450.39 Q1179.32 1450.39 1182.37 1455 Q1185.45 1459.58 1185.45 1468.33 Q1185.45 1477.06 1182.37 1481.67 Q1179.32 1486.25 1173.51 1486.25 Q1167.7 1486.25 1164.62 1481.67 Q1161.56 1477.06 1161.56 1468.33 Q1161.56 1459.58 1164.62 1455 Q1167.7 1450.39 1173.51 1450.39 Z" fill="#000000" fill-rule="nonzero" fill-opacity="1" /><path clip-path="url(#clip460)" d="M1498.06 1466.44 Q1494.92 1466.44 1493.07 1468.59 Q1491.24 1470.74 1491.24 1474.49 Q1491.24 1478.22 1493.07 1480.39 Q1494.92 1482.55 1498.06 1482.55 Q1501.21 1482.55 1503.04 1480.39 Q1504.89 1478.22 1504.89 1474.49 Q1504.89 1470.74 1503.04 1468.59 Q1501.21 1466.44 1498.06 1466.44 M1507.35 1451.78 L1507.35 1456.04 Q1505.59 1455.21 1503.78 1454.77 Q1502 1454.33 1500.24 1454.33 Q1495.61 1454.33 1493.16 1457.45 Q1490.73 1460.58 1490.38 1466.9 Q1491.75 1464.89 1493.81 1463.82 Q1495.87 1462.73 1498.34 1462.73 Q1503.55 1462.73 1506.56 1465.9 Q1509.59 1469.05 1509.59 1474.49 Q1509.59 1479.82 1506.44 1483.03 Q1503.3 1486.25 1498.06 1486.25 Q1492.07 1486.25 1488.9 1481.67 Q1485.73 1477.06 1485.73 1468.33 Q1485.73 1460.14 1489.62 1455.28 Q1493.5 1450.39 1500.06 1450.39 Q1501.81 1450.39 1503.6 1450.74 Q1505.4 1451.09 1507.35 1451.78 Z" fill="#000000" fill-rule="nonzero" fill-opacity="1" /><path clip-path="url(#clip460)" d="M1527.65 1454.1 Q1524.04 1454.1 1522.21 1457.66 Q1520.4 1461.2 1520.4 1468.33 Q1520.4 1475.44 1522.21 1479.01 Q1524.04 1482.55 1527.65 1482.55 Q1531.28 1482.55 1533.09 1479.01 Q1534.92 1475.44 1534.92 1468.33 Q1534.92 1461.2 1533.09 1457.66 Q1531.28 1454.1 1527.65 1454.1 M1527.65 1450.39 Q1533.46 1450.39 1536.51 1455 Q1539.59 1459.58 1539.59 1468.33 Q1539.59 1477.06 1536.51 1481.67 Q1533.46 1486.25 1527.65 1486.25 Q1521.84 1486.25 1518.76 1481.67 Q1515.7 1477.06 1515.7 1468.33 Q1515.7 1459.58 1518.76 1455 Q1521.84 1450.39 1527.65 1450.39 Z" fill="#000000" fill-rule="nonzero" fill-opacity="1" /><path clip-path="url(#clip460)" d="M1557.81 1454.1 Q1554.2 1454.1 1552.37 1457.66 Q1550.56 1461.2 1550.56 1468.33 Q1550.56 1475.44 1552.37 1479.01 Q1554.2 1482.55 1557.81 1482.55 Q1561.44 1482.55 1563.25 1479.01 Q1565.08 1475.44 1565.08 1468.33 Q1565.08 1461.2 1563.25 1457.66 Q1561.44 1454.1 1557.81 1454.1 M1557.81 1450.39 Q1563.62 1450.39 1566.68 1455 Q1569.75 1459.58 1569.75 1468.33 Q1569.75 1477.06 1566.68 1481.67 Q1563.62 1486.25 1557.81 1486.25 Q1552 1486.25 1548.92 1481.67 Q1545.87 1477.06 1545.87 1468.33 Q1545.87 1459.58 1548.92 1455 Q1552 1450.39 1557.81 1450.39 Z" fill="#000000" fill-rule="nonzero" fill-opacity="1" /><path clip-path="url(#clip460)" d="M1882.33 1469.17 Q1879 1469.17 1877.08 1470.95 Q1875.18 1472.73 1875.18 1475.86 Q1875.18 1478.98 1877.08 1480.77 Q1879 1482.55 1882.33 1482.55 Q1885.67 1482.55 1887.59 1480.77 Q1889.51 1478.96 1889.51 1475.86 Q1889.51 1472.73 1887.59 1470.95 Q1885.69 1469.17 1882.33 1469.17 M1877.66 1467.18 Q1874.65 1466.44 1872.96 1464.38 Q1871.29 1462.32 1871.29 1459.35 Q1871.29 1455.21 1874.23 1452.8 Q1877.2 1450.39 1882.33 1450.39 Q1887.5 1450.39 1890.44 1452.8 Q1893.38 1455.21 1893.38 1459.35 Q1893.38 1462.32 1891.69 1464.38 Q1890.02 1466.44 1887.03 1467.18 Q1890.41 1467.96 1892.29 1470.26 Q1894.19 1472.55 1894.19 1475.86 Q1894.19 1480.88 1891.11 1483.57 Q1888.05 1486.25 1882.33 1486.25 Q1876.62 1486.25 1873.54 1483.57 Q1870.48 1480.88 1870.48 1475.86 Q1870.48 1472.55 1872.38 1470.26 Q1874.28 1467.96 1877.66 1467.18 M1875.95 1459.79 Q1875.95 1462.48 1877.61 1463.98 Q1879.3 1465.49 1882.33 1465.49 Q1885.34 1465.49 1887.03 1463.98 Q1888.75 1462.48 1888.75 1459.79 Q1888.75 1457.11 1887.03 1455.6 Q1885.34 1454.1 1882.33 1454.1 Q1879.3 1454.1 1877.61 1455.6 Q1875.95 1457.11 1875.95 1459.79 Z" fill="#000000" fill-rule="nonzero" fill-opacity="1" /><path clip-path="url(#clip460)" d="M1912.5 1454.1 Q1908.89 1454.1 1907.06 1457.66 Q1905.25 1461.2 1905.25 1468.33 Q1905.25 1475.44 1907.06 1479.01 Q1908.89 1482.55 1912.5 1482.55 Q1916.13 1482.55 1917.94 1479.01 Q1919.76 1475.44 1919.76 1468.33 Q1919.76 1461.2 1917.94 1457.66 Q1916.13 1454.1 1912.5 1454.1 M1912.5 1450.39 Q1918.31 1450.39 1921.36 1455 Q1924.44 1459.58 1924.44 1468.33 Q1924.44 1477.06 1921.36 1481.67 Q1918.31 1486.25 1912.5 1486.25 Q1906.69 1486.25 1903.61 1481.67 Q1900.55 1477.06 1900.55 1468.33 Q1900.55 1459.58 1903.61 1455 Q1906.69 1450.39 1912.5 1450.39 Z" fill="#000000" fill-rule="nonzero" fill-opacity="1" /><path clip-path="url(#clip460)" d="M1942.66 1454.1 Q1939.05 1454.1 1937.22 1457.66 Q1935.41 1461.2 1935.41 1468.33 Q1935.41 1475.44 1937.22 1479.01 Q1939.05 1482.55 1942.66 1482.55 Q1946.29 1482.55 1948.1 1479.01 Q1949.93 1475.44 1949.93 1468.33 Q1949.93 1461.2 1948.1 1457.66 Q1946.29 1454.1 1942.66 1454.1 M1942.66 1450.39 Q1948.47 1450.39 1951.52 1455 Q1954.6 1459.58 1954.6 1468.33 Q1954.6 1477.06 1951.52 1481.67 Q1948.47 1486.25 1942.66 1486.25 Q1936.85 1486.25 1933.77 1481.67 Q1930.71 1477.06 1930.71 1468.33 Q1930.71 1459.58 1933.77 1455 Q1936.85 1450.39 1942.66 1450.39 Z" fill="#000000" fill-rule="nonzero" fill-opacity="1" /><path clip-path="url(#clip460)" d="M2241.87 1481.64 L2249.51 1481.64 L2249.51 1455.28 L2241.2 1456.95 L2241.2 1452.69 L2249.46 1451.02 L2254.14 1451.02 L2254.14 1481.64 L2261.78 1481.64 L2261.78 1485.58 L2241.87 1485.58 L2241.87 1481.64 Z" fill="#000000" fill-rule="nonzero" fill-opacity="1" /><path clip-path="url(#clip460)" d="M2281.22 1454.1 Q2277.61 1454.1 2275.78 1457.66 Q2273.98 1461.2 2273.98 1468.33 Q2273.98 1475.44 2275.78 1479.01 Q2277.61 1482.55 2281.22 1482.55 Q2284.86 1482.55 2286.66 1479.01 Q2288.49 1475.44 2288.49 1468.33 Q2288.49 1461.2 2286.66 1457.66 Q2284.86 1454.1 2281.22 1454.1 M2281.22 1450.39 Q2287.03 1450.39 2290.09 1455 Q2293.17 1459.58 2293.17 1468.33 Q2293.17 1477.06 2290.09 1481.67 Q2287.03 1486.25 2281.22 1486.25 Q2275.41 1486.25 2272.33 1481.67 Q2269.28 1477.06 2269.28 1468.33 Q2269.28 1459.58 2272.33 1455 Q2275.41 1450.39 2281.22 1450.39 Z" fill="#000000" fill-rule="nonzero" fill-opacity="1" /><path clip-path="url(#clip460)" d="M2311.38 1454.1 Q2307.77 1454.1 2305.94 1457.66 Q2304.14 1461.2 2304.14 1468.33 Q2304.14 1475.44 2305.94 1479.01 Q2307.77 1482.55 2311.38 1482.55 Q2315.02 1482.55 2316.82 1479.01 Q2318.65 1475.44 2318.65 1468.33 Q2318.65 1461.2 2316.82 1457.66 Q2315.02 1454.1 2311.38 1454.1 M2311.38 1450.39 Q2317.19 1450.39 2320.25 1455 Q2323.33 1459.58 2323.33 1468.33 Q2323.33 1477.06 2320.25 1481.67 Q2317.19 1486.25 2311.38 1486.25 Q2305.57 1486.25 2302.49 1481.67 Q2299.44 1477.06 2299.44 1468.33 Q2299.44 1459.58 2302.49 1455 Q2305.57 1450.39 2311.38 1450.39 Z" fill="#000000" fill-rule="nonzero" fill-opacity="1" /><path clip-path="url(#clip460)" d="M2341.55 1454.1 Q2337.93 1454.1 2336.11 1457.66 Q2334.3 1461.2 2334.3 1468.33 Q2334.3 1475.44 2336.11 1479.01 Q2337.93 1482.55 2341.55 1482.55 Q2345.18 1482.55 2346.99 1479.01 Q2348.81 1475.44 2348.81 1468.33 Q2348.81 1461.2 2346.99 1457.66 Q2345.18 1454.1 2341.55 1454.1 M2341.55 1450.39 Q2347.36 1450.39 2350.41 1455 Q2353.49 1459.58 2353.49 1468.33 Q2353.49 1477.06 2350.41 1481.67 Q2347.36 1486.25 2341.55 1486.25 Q2335.74 1486.25 2332.66 1481.67 Q2329.6 1477.06 2329.6 1468.33 Q2329.6 1459.58 2332.66 1455 Q2335.74 1450.39 2341.55 1450.39 Z" fill="#000000" fill-rule="nonzero" fill-opacity="1" /><path clip-path="url(#clip460)" d="M1370.89 1518.52 L1376.75 1518.52 L1376.75 1568.04 L1370.89 1568.04 L1370.89 1518.52 Z" fill="#000000" fill-rule="nonzero" fill-opacity="1" /><polyline clip-path="url(#clip460)" style="stroke:#000000; stroke-linecap:round; stroke-linejoin:round; stroke-width:4; stroke-opacity:1; fill:none" points="394.884,1423.18 394.884,47.2441 "/>
<polyline clip-path="url(#clip460)" style="stroke:#000000; stroke-linecap:round; stroke-linejoin:round; stroke-width:4; stroke-opacity:1; fill:none" points="394.884,1273.39 413.782,1273.39 "/>
<polyline clip-path="url(#clip460)" style="stroke:#000000; stroke-linecap:round; stroke-linejoin:round; stroke-width:4; stroke-opacity:1; fill:none" points="394.884,1096.03 413.782,1096.03 "/>
<polyline clip-path="url(#clip460)" style="stroke:#000000; stroke-linecap:round; stroke-linejoin:round; stroke-width:4; stroke-opacity:1; fill:none" points="394.884,918.668 413.782,918.668 "/>
<polyline clip-path="url(#clip460)" style="stroke:#000000; stroke-linecap:round; stroke-linejoin:round; stroke-width:4; stroke-opacity:1; fill:none" points="394.884,741.309 413.782,741.309 "/>
<polyline clip-path="url(#clip460)" style="stroke:#000000; stroke-linecap:round; stroke-linejoin:round; stroke-width:4; stroke-opacity:1; fill:none" points="394.884,563.949 413.782,563.949 "/>
<polyline clip-path="url(#clip460)" style="stroke:#000000; stroke-linecap:round; stroke-linejoin:round; stroke-width:4; stroke-opacity:1; fill:none" points="394.884,386.59 413.782,386.59 "/>
<polyline clip-path="url(#clip460)" style="stroke:#000000; stroke-linecap:round; stroke-linejoin:round; stroke-width:4; stroke-opacity:1; fill:none" points="394.884,209.23 413.782,209.23 "/>
<path clip-path="url(#clip460)" d="M121.043 1293.18 L137.362 1293.18 L137.362 1297.11 L115.418 1297.11 L115.418 1293.18 Q118.08 1290.42 122.663 1285.8 Q127.269 1281.14 128.45 1279.8 Q130.695 1277.28 131.575 1275.54 Q132.478 1273.78 132.478 1272.09 Q132.478 1269.34 130.533 1267.6 Q128.612 1265.86 125.51 1265.86 Q123.311 1265.86 120.857 1266.63 Q118.427 1267.39 115.649 1268.94 L115.649 1264.22 Q118.473 1263.09 120.927 1262.51 Q123.38 1261.93 125.418 1261.93 Q130.788 1261.93 133.982 1264.61 Q137.177 1267.3 137.177 1271.79 Q137.177 1273.92 136.367 1275.84 Q135.579 1277.74 133.473 1280.33 Q132.894 1281 129.792 1284.22 Q126.691 1287.42 121.043 1293.18 Z" fill="#000000" fill-rule="nonzero" fill-opacity="1" /><path clip-path="url(#clip460)" d="M147.177 1291.24 L152.061 1291.24 L152.061 1297.11 L147.177 1297.11 L147.177 1291.24 Z" fill="#000000" fill-rule="nonzero" fill-opacity="1" /><path clip-path="url(#clip460)" d="M172.246 1265.63 Q168.635 1265.63 166.806 1269.2 Q165.001 1272.74 165.001 1279.87 Q165.001 1286.98 166.806 1290.54 Q168.635 1294.08 172.246 1294.08 Q175.88 1294.08 177.686 1290.54 Q179.514 1286.98 179.514 1279.87 Q179.514 1272.74 177.686 1269.2 Q175.88 1265.63 172.246 1265.63 M172.246 1261.93 Q178.056 1261.93 181.112 1266.54 Q184.19 1271.12 184.19 1279.87 Q184.19 1288.6 181.112 1293.2 Q178.056 1297.79 172.246 1297.79 Q166.436 1297.79 163.357 1293.2 Q160.302 1288.6 160.302 1279.87 Q160.302 1271.12 163.357 1266.54 Q166.436 1261.93 172.246 1261.93 Z" fill="#000000" fill-rule="nonzero" fill-opacity="1" /><path clip-path="url(#clip460)" d="M220.579 1271.65 L210 1282.28 L220.579 1292.86 L217.824 1295.66 L207.199 1285.03 L196.575 1295.66 L193.843 1292.86 L204.399 1282.28 L193.843 1271.65 L196.575 1268.85 L207.199 1279.48 L217.824 1268.85 L220.579 1271.65 Z" fill="#000000" fill-rule="nonzero" fill-opacity="1" /><path clip-path="url(#clip460)" d="M232.94 1293.18 L240.579 1293.18 L240.579 1266.81 L232.269 1268.48 L232.269 1264.22 L240.533 1262.55 L245.209 1262.55 L245.209 1293.18 L252.847 1293.18 L252.847 1297.11 L232.94 1297.11 L232.94 1293.18 Z" fill="#000000" fill-rule="nonzero" fill-opacity="1" /><path clip-path="url(#clip460)" d="M272.292 1265.63 Q268.681 1265.63 266.852 1269.2 Q265.046 1272.74 265.046 1279.87 Q265.046 1286.98 266.852 1290.54 Q268.681 1294.08 272.292 1294.08 Q275.926 1294.08 277.732 1290.54 Q279.56 1286.98 279.56 1279.87 Q279.56 1272.74 277.732 1269.2 Q275.926 1265.63 272.292 1265.63 M272.292 1261.93 Q278.102 1261.93 281.157 1266.54 Q284.236 1271.12 284.236 1279.87 Q284.236 1288.6 281.157 1293.2 Q278.102 1297.79 272.292 1297.79 Q266.482 1297.79 263.403 1293.2 Q260.347 1288.6 260.347 1279.87 Q260.347 1271.12 263.403 1266.54 Q266.482 1261.93 272.292 1261.93 Z" fill="#000000" fill-rule="nonzero" fill-opacity="1" /><path clip-path="url(#clip460)" d="M284.236 1256.03 L308.348 1256.03 L308.348 1259.23 L284.236 1259.23 L284.236 1256.03 Z" fill="#000000" fill-rule="nonzero" fill-opacity="1" /><path clip-path="url(#clip460)" d="M317.206 1266.51 L323.413 1266.51 L323.413 1245.08 L316.661 1246.44 L316.661 1242.98 L323.375 1241.62 L327.174 1241.62 L327.174 1266.51 L333.381 1266.51 L333.381 1269.7 L317.206 1269.7 L317.206 1266.51 Z" fill="#000000" fill-rule="nonzero" fill-opacity="1" /><path clip-path="url(#clip460)" d="M349.179 1244.13 Q346.245 1244.13 344.76 1247.02 Q343.292 1249.9 343.292 1255.69 Q343.292 1261.47 344.76 1264.36 Q346.245 1267.24 349.179 1267.24 Q352.132 1267.24 353.599 1264.36 Q355.085 1261.47 355.085 1255.69 Q355.085 1249.9 353.599 1247.02 Q352.132 1244.13 349.179 1244.13 M349.179 1241.12 Q353.9 1241.12 356.383 1244.86 Q358.884 1248.58 358.884 1255.69 Q358.884 1262.78 356.383 1266.53 Q353.9 1270.25 349.179 1270.25 Q344.459 1270.25 341.957 1266.53 Q339.475 1262.78 339.475 1255.69 Q339.475 1248.58 341.957 1244.86 Q344.459 1241.12 349.179 1241.12 Z" fill="#000000" fill-rule="nonzero" fill-opacity="1" /><path clip-path="url(#clip460)" d="M131.181 1101.12 Q134.538 1101.84 136.413 1104.11 Q138.311 1106.38 138.311 1109.71 Q138.311 1114.82 134.792 1117.63 Q131.274 1120.43 124.793 1120.43 Q122.617 1120.43 120.302 1119.99 Q118.01 1119.57 115.556 1118.71 L115.556 1114.2 Q117.501 1115.33 119.816 1115.91 Q122.13 1116.49 124.654 1116.49 Q129.052 1116.49 131.343 1114.76 Q133.658 1113.02 133.658 1109.71 Q133.658 1106.65 131.505 1104.94 Q129.376 1103.2 125.556 1103.2 L121.529 1103.2 L121.529 1099.36 L125.742 1099.36 Q129.191 1099.36 131.019 1098 Q132.848 1096.61 132.848 1094.01 Q132.848 1091.35 130.95 1089.94 Q129.075 1088.51 125.556 1088.51 Q123.635 1088.51 121.436 1088.92 Q119.237 1089.34 116.598 1090.22 L116.598 1086.05 Q119.26 1085.31 121.575 1084.94 Q123.913 1084.57 125.973 1084.57 Q131.297 1084.57 134.399 1087 Q137.501 1089.41 137.501 1093.53 Q137.501 1096.4 135.857 1098.39 Q134.214 1100.36 131.181 1101.12 Z" fill="#000000" fill-rule="nonzero" fill-opacity="1" /><path clip-path="url(#clip460)" d="M147.177 1113.88 L152.061 1113.88 L152.061 1119.76 L147.177 1119.76 L147.177 1113.88 Z" fill="#000000" fill-rule="nonzero" fill-opacity="1" /><path clip-path="url(#clip460)" d="M172.246 1088.27 Q168.635 1088.27 166.806 1091.84 Q165.001 1095.38 165.001 1102.51 Q165.001 1109.62 166.806 1113.18 Q168.635 1116.72 172.246 1116.72 Q175.88 1116.72 177.686 1113.18 Q179.514 1109.62 179.514 1102.51 Q179.514 1095.38 177.686 1091.84 Q175.88 1088.27 172.246 1088.27 M172.246 1084.57 Q178.056 1084.57 181.112 1089.18 Q184.19 1093.76 184.19 1102.51 Q184.19 1111.24 181.112 1115.84 Q178.056 1120.43 172.246 1120.43 Q166.436 1120.43 163.357 1115.84 Q160.302 1111.24 160.302 1102.51 Q160.302 1093.76 163.357 1089.18 Q166.436 1084.57 172.246 1084.57 Z" fill="#000000" fill-rule="nonzero" fill-opacity="1" /><path clip-path="url(#clip460)" d="M220.579 1094.29 L210 1104.92 L220.579 1115.5 L217.824 1118.3 L207.199 1107.67 L196.575 1118.3 L193.843 1115.5 L204.399 1104.92 L193.843 1094.29 L196.575 1091.49 L207.199 1102.12 L217.824 1091.49 L220.579 1094.29 Z" fill="#000000" fill-rule="nonzero" fill-opacity="1" /><path clip-path="url(#clip460)" d="M232.94 1115.82 L240.579 1115.82 L240.579 1089.45 L232.269 1091.12 L232.269 1086.86 L240.533 1085.2 L245.209 1085.2 L245.209 1115.82 L252.847 1115.82 L252.847 1119.76 L232.94 1119.76 L232.94 1115.82 Z" fill="#000000" fill-rule="nonzero" fill-opacity="1" /><path clip-path="url(#clip460)" d="M272.292 1088.27 Q268.681 1088.27 266.852 1091.84 Q265.046 1095.38 265.046 1102.51 Q265.046 1109.62 266.852 1113.18 Q268.681 1116.72 272.292 1116.72 Q275.926 1116.72 277.732 1113.18 Q279.56 1109.62 279.56 1102.51 Q279.56 1095.38 277.732 1091.84 Q275.926 1088.27 272.292 1088.27 M272.292 1084.57 Q278.102 1084.57 281.157 1089.18 Q284.236 1093.76 284.236 1102.51 Q284.236 1111.24 281.157 1115.84 Q278.102 1120.43 272.292 1120.43 Q266.482 1120.43 263.403 1115.84 Q260.347 1111.24 260.347 1102.51 Q260.347 1093.76 263.403 1089.18 Q266.482 1084.57 272.292 1084.57 Z" fill="#000000" fill-rule="nonzero" fill-opacity="1" /><path clip-path="url(#clip460)" d="M284.236 1078.67 L308.348 1078.67 L308.348 1081.87 L284.236 1081.87 L284.236 1078.67 Z" fill="#000000" fill-rule="nonzero" fill-opacity="1" /><path clip-path="url(#clip460)" d="M317.206 1089.15 L323.413 1089.15 L323.413 1067.73 L316.661 1069.08 L316.661 1065.62 L323.375 1064.26 L327.174 1064.26 L327.174 1089.15 L333.381 1089.15 L333.381 1092.34 L317.206 1092.34 L317.206 1089.15 Z" fill="#000000" fill-rule="nonzero" fill-opacity="1" /><path clip-path="url(#clip460)" d="M349.179 1066.77 Q346.245 1066.77 344.76 1069.66 Q343.292 1072.54 343.292 1078.33 Q343.292 1084.11 344.76 1087 Q346.245 1089.88 349.179 1089.88 Q352.132 1089.88 353.599 1087 Q355.085 1084.11 355.085 1078.33 Q355.085 1072.54 353.599 1069.66 Q352.132 1066.77 349.179 1066.77 M349.179 1063.76 Q353.9 1063.76 356.383 1067.5 Q358.884 1071.22 358.884 1078.33 Q358.884 1085.42 356.383 1089.17 Q353.9 1092.89 349.179 1092.89 Q344.459 1092.89 341.957 1089.17 Q339.475 1085.42 339.475 1078.33 Q339.475 1071.22 341.957 1067.5 Q344.459 1063.76 349.179 1063.76 Z" fill="#000000" fill-rule="nonzero" fill-opacity="1" /><path clip-path="url(#clip460)" d="M129.862 911.91 L118.056 930.359 L129.862 930.359 L129.862 911.91 M128.635 907.836 L134.515 907.836 L134.515 930.359 L139.445 930.359 L139.445 934.248 L134.515 934.248 L134.515 942.396 L129.862 942.396 L129.862 934.248 L114.26 934.248 L114.26 929.734 L128.635 907.836 Z" fill="#000000" fill-rule="nonzero" fill-opacity="1" /><path clip-path="url(#clip460)" d="M147.177 936.516 L152.061 936.516 L152.061 942.396 L147.177 942.396 L147.177 936.516 Z" fill="#000000" fill-rule="nonzero" fill-opacity="1" /><path clip-path="url(#clip460)" d="M172.246 910.914 Q168.635 910.914 166.806 914.479 Q165.001 918.021 165.001 925.15 Q165.001 932.257 166.806 935.822 Q168.635 939.363 172.246 939.363 Q175.88 939.363 177.686 935.822 Q179.514 932.257 179.514 925.15 Q179.514 918.021 177.686 914.479 Q175.88 910.914 172.246 910.914 M172.246 907.211 Q178.056 907.211 181.112 911.817 Q184.19 916.4 184.19 925.15 Q184.19 933.877 181.112 938.484 Q178.056 943.067 172.246 943.067 Q166.436 943.067 163.357 938.484 Q160.302 933.877 160.302 925.15 Q160.302 916.4 163.357 911.817 Q166.436 907.211 172.246 907.211 Z" fill="#000000" fill-rule="nonzero" fill-opacity="1" /><path clip-path="url(#clip460)" d="M220.579 916.933 L210 927.558 L220.579 938.136 L217.824 940.937 L207.199 930.312 L196.575 940.937 L193.843 938.136 L204.399 927.558 L193.843 916.933 L196.575 914.132 L207.199 924.757 L217.824 914.132 L220.579 916.933 Z" fill="#000000" fill-rule="nonzero" fill-opacity="1" /><path clip-path="url(#clip460)" d="M232.94 938.461 L240.579 938.461 L240.579 912.095 L232.269 913.762 L232.269 909.502 L240.533 907.836 L245.209 907.836 L245.209 938.461 L252.847 938.461 L252.847 942.396 L232.94 942.396 L232.94 938.461 Z" fill="#000000" fill-rule="nonzero" fill-opacity="1" /><path clip-path="url(#clip460)" d="M272.292 910.914 Q268.681 910.914 266.852 914.479 Q265.046 918.021 265.046 925.15 Q265.046 932.257 266.852 935.822 Q268.681 939.363 272.292 939.363 Q275.926 939.363 277.732 935.822 Q279.56 932.257 279.56 925.15 Q279.56 918.021 277.732 914.479 Q275.926 910.914 272.292 910.914 M272.292 907.211 Q278.102 907.211 281.157 911.817 Q284.236 916.4 284.236 925.15 Q284.236 933.877 281.157 938.484 Q278.102 943.067 272.292 943.067 Q266.482 943.067 263.403 938.484 Q260.347 933.877 260.347 925.15 Q260.347 916.4 263.403 911.817 Q266.482 907.211 272.292 907.211 Z" fill="#000000" fill-rule="nonzero" fill-opacity="1" /><path clip-path="url(#clip460)" d="M284.236 901.312 L308.348 901.312 L308.348 904.509 L284.236 904.509 L284.236 901.312 Z" fill="#000000" fill-rule="nonzero" fill-opacity="1" /><path clip-path="url(#clip460)" d="M317.206 911.788 L323.413 911.788 L323.413 890.366 L316.661 891.72 L316.661 888.259 L323.375 886.905 L327.174 886.905 L327.174 911.788 L333.381 911.788 L333.381 914.985 L317.206 914.985 L317.206 911.788 Z" fill="#000000" fill-rule="nonzero" fill-opacity="1" /><path clip-path="url(#clip460)" d="M349.179 889.407 Q346.245 889.407 344.76 892.303 Q343.292 895.181 343.292 900.973 Q343.292 906.747 344.76 909.644 Q346.245 912.521 349.179 912.521 Q352.132 912.521 353.599 909.644 Q355.085 906.747 355.085 900.973 Q355.085 895.181 353.599 892.303 Q352.132 889.407 349.179 889.407 M349.179 886.397 Q353.9 886.397 356.383 890.14 Q358.884 893.864 358.884 900.973 Q358.884 908.064 356.383 911.807 Q353.9 915.531 349.179 915.531 Q344.459 915.531 341.957 911.807 Q339.475 908.064 339.475 900.973 Q339.475 893.864 341.957 890.14 Q344.459 886.397 349.179 886.397 Z" fill="#000000" fill-rule="nonzero" fill-opacity="1" /><path clip-path="url(#clip460)" d="M117.061 730.476 L135.417 730.476 L135.417 734.411 L121.343 734.411 L121.343 742.884 Q122.362 742.536 123.38 742.374 Q124.399 742.189 125.418 742.189 Q131.205 742.189 134.584 745.36 Q137.964 748.532 137.964 753.948 Q137.964 759.527 134.492 762.629 Q131.019 765.707 124.7 765.707 Q122.524 765.707 120.255 765.337 Q118.01 764.967 115.603 764.226 L115.603 759.527 Q117.686 760.661 119.908 761.217 Q122.13 761.772 124.607 761.772 Q128.612 761.772 130.95 759.666 Q133.288 757.559 133.288 753.948 Q133.288 750.337 130.95 748.231 Q128.612 746.124 124.607 746.124 Q122.732 746.124 120.857 746.541 Q119.006 746.958 117.061 747.837 L117.061 730.476 Z" fill="#000000" fill-rule="nonzero" fill-opacity="1" /><path clip-path="url(#clip460)" d="M147.177 759.157 L152.061 759.157 L152.061 765.036 L147.177 765.036 L147.177 759.157 Z" fill="#000000" fill-rule="nonzero" fill-opacity="1" /><path clip-path="url(#clip460)" d="M172.246 733.555 Q168.635 733.555 166.806 737.12 Q165.001 740.661 165.001 747.791 Q165.001 754.897 166.806 758.462 Q168.635 762.004 172.246 762.004 Q175.88 762.004 177.686 758.462 Q179.514 754.897 179.514 747.791 Q179.514 740.661 177.686 737.12 Q175.88 733.555 172.246 733.555 M172.246 729.851 Q178.056 729.851 181.112 734.458 Q184.19 739.041 184.19 747.791 Q184.19 756.518 181.112 761.124 Q178.056 765.707 172.246 765.707 Q166.436 765.707 163.357 761.124 Q160.302 756.518 160.302 747.791 Q160.302 739.041 163.357 734.458 Q166.436 729.851 172.246 729.851 Z" fill="#000000" fill-rule="nonzero" fill-opacity="1" /><path clip-path="url(#clip460)" d="M220.579 739.573 L210 750.198 L220.579 760.777 L217.824 763.578 L207.199 752.953 L196.575 763.578 L193.843 760.777 L204.399 750.198 L193.843 739.573 L196.575 736.772 L207.199 747.397 L217.824 736.772 L220.579 739.573 Z" fill="#000000" fill-rule="nonzero" fill-opacity="1" /><path clip-path="url(#clip460)" d="M232.94 761.101 L240.579 761.101 L240.579 734.735 L232.269 736.402 L232.269 732.143 L240.533 730.476 L245.209 730.476 L245.209 761.101 L252.847 761.101 L252.847 765.036 L232.94 765.036 L232.94 761.101 Z" fill="#000000" fill-rule="nonzero" fill-opacity="1" /><path clip-path="url(#clip460)" d="M272.292 733.555 Q268.681 733.555 266.852 737.12 Q265.046 740.661 265.046 747.791 Q265.046 754.897 266.852 758.462 Q268.681 762.004 272.292 762.004 Q275.926 762.004 277.732 758.462 Q279.56 754.897 279.56 747.791 Q279.56 740.661 277.732 737.12 Q275.926 733.555 272.292 733.555 M272.292 729.851 Q278.102 729.851 281.157 734.458 Q284.236 739.041 284.236 747.791 Q284.236 756.518 281.157 761.124 Q278.102 765.707 272.292 765.707 Q266.482 765.707 263.403 761.124 Q260.347 756.518 260.347 747.791 Q260.347 739.041 263.403 734.458 Q266.482 729.851 272.292 729.851 Z" fill="#000000" fill-rule="nonzero" fill-opacity="1" /><path clip-path="url(#clip460)" d="M284.236 723.953 L308.348 723.953 L308.348 727.15 L284.236 727.15 L284.236 723.953 Z" fill="#000000" fill-rule="nonzero" fill-opacity="1" /><path clip-path="url(#clip460)" d="M317.206 734.428 L323.413 734.428 L323.413 713.006 L316.661 714.361 L316.661 710.9 L323.375 709.546 L327.174 709.546 L327.174 734.428 L333.381 734.428 L333.381 737.626 L317.206 737.626 L317.206 734.428 Z" fill="#000000" fill-rule="nonzero" fill-opacity="1" /><path clip-path="url(#clip460)" d="M349.179 712.047 Q346.245 712.047 344.76 714.944 Q343.292 717.821 343.292 723.614 Q343.292 729.388 344.76 732.284 Q346.245 735.162 349.179 735.162 Q352.132 735.162 353.599 732.284 Q355.085 729.388 355.085 723.614 Q355.085 717.821 353.599 714.944 Q352.132 712.047 349.179 712.047 M349.179 709.038 Q353.9 709.038 356.383 712.781 Q358.884 716.505 358.884 723.614 Q358.884 730.705 356.383 734.447 Q353.9 738.171 349.179 738.171 Q344.459 738.171 341.957 734.447 Q339.475 730.705 339.475 723.614 Q339.475 716.505 341.957 712.781 Q344.459 709.038 349.179 709.038 Z" fill="#000000" fill-rule="nonzero" fill-opacity="1" /><path clip-path="url(#clip460)" d="M127.593 568.533 Q124.445 568.533 122.593 570.686 Q120.765 572.839 120.765 576.589 Q120.765 580.316 122.593 582.491 Q124.445 584.644 127.593 584.644 Q130.742 584.644 132.57 582.491 Q134.422 580.316 134.422 576.589 Q134.422 572.839 132.57 570.686 Q130.742 568.533 127.593 568.533 M136.876 553.881 L136.876 558.14 Q135.117 557.306 133.311 556.867 Q131.529 556.427 129.769 556.427 Q125.14 556.427 122.686 559.552 Q120.255 562.677 119.908 568.996 Q121.274 566.982 123.334 565.918 Q125.394 564.83 127.871 564.83 Q133.08 564.83 136.089 568.001 Q139.121 571.149 139.121 576.589 Q139.121 581.913 135.973 585.13 Q132.825 588.348 127.593 588.348 Q121.598 588.348 118.427 583.765 Q115.256 579.158 115.256 570.431 Q115.256 562.237 119.144 557.376 Q123.033 552.492 129.584 552.492 Q131.343 552.492 133.126 552.839 Q134.931 553.186 136.876 553.881 Z" fill="#000000" fill-rule="nonzero" fill-opacity="1" /><path clip-path="url(#clip460)" d="M147.177 581.797 L152.061 581.797 L152.061 587.677 L147.177 587.677 L147.177 581.797 Z" fill="#000000" fill-rule="nonzero" fill-opacity="1" /><path clip-path="url(#clip460)" d="M172.246 556.195 Q168.635 556.195 166.806 559.76 Q165.001 563.302 165.001 570.431 Q165.001 577.538 166.806 581.103 Q168.635 584.644 172.246 584.644 Q175.88 584.644 177.686 581.103 Q179.514 577.538 179.514 570.431 Q179.514 563.302 177.686 559.76 Q175.88 556.195 172.246 556.195 M172.246 552.492 Q178.056 552.492 181.112 557.098 Q184.19 561.681 184.19 570.431 Q184.19 579.158 181.112 583.765 Q178.056 588.348 172.246 588.348 Q166.436 588.348 163.357 583.765 Q160.302 579.158 160.302 570.431 Q160.302 561.681 163.357 557.098 Q166.436 552.492 172.246 552.492 Z" fill="#000000" fill-rule="nonzero" fill-opacity="1" /><path clip-path="url(#clip460)" d="M220.579 562.214 L210 572.839 L220.579 583.417 L217.824 586.218 L207.199 575.593 L196.575 586.218 L193.843 583.417 L204.399 572.839 L193.843 562.214 L196.575 559.413 L207.199 570.038 L217.824 559.413 L220.579 562.214 Z" fill="#000000" fill-rule="nonzero" fill-opacity="1" /><path clip-path="url(#clip460)" d="M232.94 583.741 L240.579 583.741 L240.579 557.376 L232.269 559.043 L232.269 554.783 L240.533 553.117 L245.209 553.117 L245.209 583.741 L252.847 583.741 L252.847 587.677 L232.94 587.677 L232.94 583.741 Z" fill="#000000" fill-rule="nonzero" fill-opacity="1" /><path clip-path="url(#clip460)" d="M272.292 556.195 Q268.681 556.195 266.852 559.76 Q265.046 563.302 265.046 570.431 Q265.046 577.538 266.852 581.103 Q268.681 584.644 272.292 584.644 Q275.926 584.644 277.732 581.103 Q279.56 577.538 279.56 570.431 Q279.56 563.302 277.732 559.76 Q275.926 556.195 272.292 556.195 M272.292 552.492 Q278.102 552.492 281.157 557.098 Q284.236 561.681 284.236 570.431 Q284.236 579.158 281.157 583.765 Q278.102 588.348 272.292 588.348 Q266.482 588.348 263.403 583.765 Q260.347 579.158 260.347 570.431 Q260.347 561.681 263.403 557.098 Q266.482 552.492 272.292 552.492 Z" fill="#000000" fill-rule="nonzero" fill-opacity="1" /><path clip-path="url(#clip460)" d="M284.236 546.593 L308.348 546.593 L308.348 549.79 L284.236 549.79 L284.236 546.593 Z" fill="#000000" fill-rule="nonzero" fill-opacity="1" /><path clip-path="url(#clip460)" d="M317.206 557.069 L323.413 557.069 L323.413 535.647 L316.661 537.001 L316.661 533.54 L323.375 532.186 L327.174 532.186 L327.174 557.069 L333.381 557.069 L333.381 560.266 L317.206 560.266 L317.206 557.069 Z" fill="#000000" fill-rule="nonzero" fill-opacity="1" /><path clip-path="url(#clip460)" d="M349.179 534.688 Q346.245 534.688 344.76 537.584 Q343.292 540.462 343.292 546.254 Q343.292 552.028 344.76 554.925 Q346.245 557.802 349.179 557.802 Q352.132 557.802 353.599 554.925 Q355.085 552.028 355.085 546.254 Q355.085 540.462 353.599 537.584 Q352.132 534.688 349.179 534.688 M349.179 531.678 Q353.9 531.678 356.383 535.421 Q358.884 539.145 358.884 546.254 Q358.884 553.345 356.383 557.088 Q353.9 560.812 349.179 560.812 Q344.459 560.812 341.957 557.088 Q339.475 553.345 339.475 546.254 Q339.475 539.145 341.957 535.421 Q344.459 531.678 349.179 531.678 Z" fill="#000000" fill-rule="nonzero" fill-opacity="1" /><path clip-path="url(#clip460)" d="M115.834 375.757 L138.056 375.757 L138.056 377.748 L125.51 410.317 L120.626 410.317 L132.431 379.692 L115.834 379.692 L115.834 375.757 Z" fill="#000000" fill-rule="nonzero" fill-opacity="1" /><path clip-path="url(#clip460)" d="M147.177 404.438 L152.061 404.438 L152.061 410.317 L147.177 410.317 L147.177 404.438 Z" fill="#000000" fill-rule="nonzero" fill-opacity="1" /><path clip-path="url(#clip460)" d="M172.246 378.836 Q168.635 378.836 166.806 382.401 Q165.001 385.942 165.001 393.072 Q165.001 400.178 166.806 403.743 Q168.635 407.285 172.246 407.285 Q175.88 407.285 177.686 403.743 Q179.514 400.178 179.514 393.072 Q179.514 385.942 177.686 382.401 Q175.88 378.836 172.246 378.836 M172.246 375.132 Q178.056 375.132 181.112 379.739 Q184.19 384.322 184.19 393.072 Q184.19 401.799 181.112 406.405 Q178.056 410.988 172.246 410.988 Q166.436 410.988 163.357 406.405 Q160.302 401.799 160.302 393.072 Q160.302 384.322 163.357 379.739 Q166.436 375.132 172.246 375.132 Z" fill="#000000" fill-rule="nonzero" fill-opacity="1" /><path clip-path="url(#clip460)" d="M220.579 384.854 L210 395.479 L220.579 406.058 L217.824 408.859 L207.199 398.234 L196.575 408.859 L193.843 406.058 L204.399 395.479 L193.843 384.854 L196.575 382.053 L207.199 392.678 L217.824 382.053 L220.579 384.854 Z" fill="#000000" fill-rule="nonzero" fill-opacity="1" /><path clip-path="url(#clip460)" d="M232.94 406.382 L240.579 406.382 L240.579 380.016 L232.269 381.683 L232.269 377.424 L240.533 375.757 L245.209 375.757 L245.209 406.382 L252.847 406.382 L252.847 410.317 L232.94 410.317 L232.94 406.382 Z" fill="#000000" fill-rule="nonzero" fill-opacity="1" /><path clip-path="url(#clip460)" d="M272.292 378.836 Q268.681 378.836 266.852 382.401 Q265.046 385.942 265.046 393.072 Q265.046 400.178 266.852 403.743 Q268.681 407.285 272.292 407.285 Q275.926 407.285 277.732 403.743 Q279.56 400.178 279.56 393.072 Q279.56 385.942 277.732 382.401 Q275.926 378.836 272.292 378.836 M272.292 375.132 Q278.102 375.132 281.157 379.739 Q284.236 384.322 284.236 393.072 Q284.236 401.799 281.157 406.405 Q278.102 410.988 272.292 410.988 Q266.482 410.988 263.403 406.405 Q260.347 401.799 260.347 393.072 Q260.347 384.322 263.403 379.739 Q266.482 375.132 272.292 375.132 Z" fill="#000000" fill-rule="nonzero" fill-opacity="1" /><path clip-path="url(#clip460)" d="M284.236 369.233 L308.348 369.233 L308.348 372.431 L284.236 372.431 L284.236 369.233 Z" fill="#000000" fill-rule="nonzero" fill-opacity="1" /><path clip-path="url(#clip460)" d="M317.206 379.709 L323.413 379.709 L323.413 358.287 L316.661 359.642 L316.661 356.181 L323.375 354.827 L327.174 354.827 L327.174 379.709 L333.381 379.709 L333.381 382.907 L317.206 382.907 L317.206 379.709 Z" fill="#000000" fill-rule="nonzero" fill-opacity="1" /><path clip-path="url(#clip460)" d="M349.179 357.328 Q346.245 357.328 344.76 360.225 Q343.292 363.102 343.292 368.895 Q343.292 374.669 344.76 377.565 Q346.245 380.443 349.179 380.443 Q352.132 380.443 353.599 377.565 Q355.085 374.669 355.085 368.895 Q355.085 363.102 353.599 360.225 Q352.132 357.328 349.179 357.328 M349.179 354.319 Q353.9 354.319 356.383 358.062 Q358.884 361.786 358.884 368.895 Q358.884 375.985 356.383 379.728 Q353.9 383.452 349.179 383.452 Q344.459 383.452 341.957 379.728 Q339.475 375.985 339.475 368.895 Q339.475 361.786 341.957 358.062 Q344.459 354.319 349.179 354.319 Z" fill="#000000" fill-rule="nonzero" fill-opacity="1" /><path clip-path="url(#clip460)" d="M127.015 216.546 Q123.681 216.546 121.76 218.328 Q119.862 220.11 119.862 223.235 Q119.862 226.36 121.76 228.143 Q123.681 229.925 127.015 229.925 Q130.348 229.925 132.269 228.143 Q134.191 226.337 134.191 223.235 Q134.191 220.11 132.269 218.328 Q130.371 216.546 127.015 216.546 M122.339 214.555 Q119.33 213.814 117.64 211.754 Q115.973 209.694 115.973 206.731 Q115.973 202.587 118.913 200.18 Q121.876 197.773 127.015 197.773 Q132.177 197.773 135.117 200.18 Q138.056 202.587 138.056 206.731 Q138.056 209.694 136.367 211.754 Q134.7 213.814 131.714 214.555 Q135.093 215.342 136.968 217.634 Q138.867 219.925 138.867 223.235 Q138.867 228.259 135.788 230.944 Q132.732 233.629 127.015 233.629 Q121.297 233.629 118.218 230.944 Q115.163 228.259 115.163 223.235 Q115.163 219.925 117.061 217.634 Q118.959 215.342 122.339 214.555 M120.626 207.171 Q120.626 209.856 122.293 211.361 Q123.982 212.865 127.015 212.865 Q130.024 212.865 131.714 211.361 Q133.427 209.856 133.427 207.171 Q133.427 204.486 131.714 202.981 Q130.024 201.476 127.015 201.476 Q123.982 201.476 122.293 202.981 Q120.626 204.486 120.626 207.171 Z" fill="#000000" fill-rule="nonzero" fill-opacity="1" /><path clip-path="url(#clip460)" d="M147.177 227.078 L152.061 227.078 L152.061 232.958 L147.177 232.958 L147.177 227.078 Z" fill="#000000" fill-rule="nonzero" fill-opacity="1" /><path clip-path="url(#clip460)" d="M172.246 201.476 Q168.635 201.476 166.806 205.041 Q165.001 208.583 165.001 215.712 Q165.001 222.819 166.806 226.384 Q168.635 229.925 172.246 229.925 Q175.88 229.925 177.686 226.384 Q179.514 222.819 179.514 215.712 Q179.514 208.583 177.686 205.041 Q175.88 201.476 172.246 201.476 M172.246 197.773 Q178.056 197.773 181.112 202.379 Q184.19 206.962 184.19 215.712 Q184.19 224.439 181.112 229.046 Q178.056 233.629 172.246 233.629 Q166.436 233.629 163.357 229.046 Q160.302 224.439 160.302 215.712 Q160.302 206.962 163.357 202.379 Q166.436 197.773 172.246 197.773 Z" fill="#000000" fill-rule="nonzero" fill-opacity="1" /><path clip-path="url(#clip460)" d="M220.579 207.495 L210 218.12 L220.579 228.698 L217.824 231.499 L207.199 220.874 L196.575 231.499 L193.843 228.698 L204.399 218.12 L193.843 207.495 L196.575 204.694 L207.199 215.319 L217.824 204.694 L220.579 207.495 Z" fill="#000000" fill-rule="nonzero" fill-opacity="1" /><path clip-path="url(#clip460)" d="M232.94 229.022 L240.579 229.022 L240.579 202.657 L232.269 204.324 L232.269 200.064 L240.533 198.398 L245.209 198.398 L245.209 229.022 L252.847 229.022 L252.847 232.958 L232.94 232.958 L232.94 229.022 Z" fill="#000000" fill-rule="nonzero" fill-opacity="1" /><path clip-path="url(#clip460)" d="M272.292 201.476 Q268.681 201.476 266.852 205.041 Q265.046 208.583 265.046 215.712 Q265.046 222.819 266.852 226.384 Q268.681 229.925 272.292 229.925 Q275.926 229.925 277.732 226.384 Q279.56 222.819 279.56 215.712 Q279.56 208.583 277.732 205.041 Q275.926 201.476 272.292 201.476 M272.292 197.773 Q278.102 197.773 281.157 202.379 Q284.236 206.962 284.236 215.712 Q284.236 224.439 281.157 229.046 Q278.102 233.629 272.292 233.629 Q266.482 233.629 263.403 229.046 Q260.347 224.439 260.347 215.712 Q260.347 206.962 263.403 202.379 Q266.482 197.773 272.292 197.773 Z" fill="#000000" fill-rule="nonzero" fill-opacity="1" /><path clip-path="url(#clip460)" d="M284.236 191.874 L308.348 191.874 L308.348 195.071 L284.236 195.071 L284.236 191.874 Z" fill="#000000" fill-rule="nonzero" fill-opacity="1" /><path clip-path="url(#clip460)" d="M317.206 202.35 L323.413 202.35 L323.413 180.928 L316.661 182.282 L316.661 178.821 L323.375 177.467 L327.174 177.467 L327.174 202.35 L333.381 202.35 L333.381 205.547 L317.206 205.547 L317.206 202.35 Z" fill="#000000" fill-rule="nonzero" fill-opacity="1" /><path clip-path="url(#clip460)" d="M349.179 179.969 Q346.245 179.969 344.76 182.865 Q343.292 185.743 343.292 191.535 Q343.292 197.309 344.76 200.206 Q346.245 203.083 349.179 203.083 Q352.132 203.083 353.599 200.206 Q355.085 197.309 355.085 191.535 Q355.085 185.743 353.599 182.865 Q352.132 179.969 349.179 179.969 M349.179 176.959 Q353.9 176.959 356.383 180.702 Q358.884 184.426 358.884 191.535 Q358.884 198.626 356.383 202.369 Q353.9 206.093 349.179 206.093 Q344.459 206.093 341.957 202.369 Q339.475 198.626 339.475 191.535 Q339.475 184.426 341.957 180.702 Q344.459 176.959 349.179 176.959 Z" fill="#000000" fill-rule="nonzero" fill-opacity="1" /><path clip-path="url(#clip460)" d="M14.479 902.328 L14.479 896.471 L64.0042 896.471 L64.0042 902.328 L14.479 902.328 Z" fill="#000000" fill-rule="nonzero" fill-opacity="1" /><path clip-path="url(#clip460)" d="M14.5426 870.149 Q21.8632 874.414 29.0246 876.483 Q36.186 878.552 43.5384 878.552 Q50.8908 878.552 58.1159 876.483 Q65.3091 874.382 72.5979 870.149 L72.5979 875.242 Q65.1182 880.016 57.8931 882.403 Q50.668 884.758 43.5384 884.758 Q36.4406 884.758 29.2474 882.403 Q22.0542 880.048 14.5426 875.242 L14.5426 870.149 Z" fill="#000000" fill-rule="nonzero" fill-opacity="1" /><path clip-path="url(#clip460)" d="M14.479 858.786 L14.479 852.93 L64.0042 852.93 L64.0042 858.786 L14.479 858.786 Z" fill="#000000" fill-rule="nonzero" fill-opacity="1" /><path clip-path="url(#clip460)" d="M23.1363 816.836 L40.8648 816.836 L40.8648 799.108 L46.2757 799.108 L46.2757 816.836 L64.0042 816.836 L64.0042 822.183 L46.2757 822.183 L46.2757 839.912 L40.8648 839.912 L40.8648 822.183 L23.1363 822.183 L23.1363 816.836 Z" fill="#000000" fill-rule="nonzero" fill-opacity="1" /><path clip-path="url(#clip460)" d="M58.5933 784.117 L58.5933 773.613 L22.3406 773.613 L24.6323 785.04 L18.7758 785.04 L16.4842 773.677 L16.4842 767.247 L58.5933 767.247 L58.5933 756.744 L64.0042 756.744 L64.0042 784.117 L58.5933 784.117 Z" fill="#000000" fill-rule="nonzero" fill-opacity="1" /><path clip-path="url(#clip460)" d="M14.5426 745.508 L14.5426 740.416 Q22.0542 735.642 29.2474 733.286 Q36.4406 730.899 43.5384 730.899 Q50.668 730.899 57.8931 733.286 Q65.1182 735.642 72.5979 740.416 L72.5979 745.508 Q65.3091 741.275 58.1159 739.206 Q50.8908 737.106 43.5384 737.106 Q36.186 737.106 29.0246 739.206 Q21.8632 741.275 14.5426 745.508 Z" fill="#000000" fill-rule="nonzero" fill-opacity="1" /><path clip-path="url(#clip460)" d="M20.1444 683.316 L26.9239 683.316 Q23.9002 686.562 22.4043 690.254 Q20.9083 693.914 20.9083 698.052 Q20.9083 706.2 25.9054 710.529 Q30.8707 714.858 40.2919 714.858 Q49.6813 714.858 54.6784 710.529 Q59.6436 706.2 59.6436 698.052 Q59.6436 693.914 58.1477 690.254 Q56.6518 686.562 53.6281 683.316 L60.3439 683.316 Q62.6355 686.689 63.7814 690.477 Q64.9272 694.233 64.9272 698.434 Q64.9272 709.224 58.3387 715.431 Q51.7183 721.637 40.2919 721.637 Q28.8336 721.637 22.2451 715.431 Q15.6248 709.224 15.6248 698.434 Q15.6248 694.169 16.7706 690.413 Q17.8846 686.626 20.1444 683.316 Z" fill="#000000" fill-rule="nonzero" fill-opacity="1" /><path clip-path="url(#clip460)" d="M36.2815 675.899 L36.2815 672.207 L64.0042 672.207 L64.0042 675.899 L36.2815 675.899 Z" fill="#000000" fill-rule="nonzero" fill-opacity="1" /><path clip-path="url(#clip460)" d="M16.4842 652.41 L16.4842 646.999 L70.0516 663.55 L70.0516 668.961 L16.4842 652.41 Z" fill="#000000" fill-rule="nonzero" fill-opacity="1" /><path clip-path="url(#clip460)" d="M58.5933 634.491 L58.5933 612.051 L64.0042 612.051 L64.0042 642.225 L58.5933 642.225 Q54.8057 638.565 48.44 632.263 Q42.0425 625.929 40.1964 624.305 Q36.7271 621.218 34.34 620.009 Q31.921 618.767 29.5975 618.767 Q25.8099 618.767 23.4228 621.441 Q21.0356 624.083 21.0356 628.348 Q21.0356 631.371 22.086 634.745 Q23.1363 638.087 25.2688 641.907 L18.7758 641.907 Q17.2162 638.024 16.4205 634.65 Q15.6248 631.276 15.6248 628.475 Q15.6248 621.091 19.3169 616.698 Q23.009 612.306 29.1837 612.306 Q32.112 612.306 34.7537 613.42 Q37.3637 614.502 40.9285 617.399 Q41.8515 618.194 46.2757 622.459 Q50.668 626.724 58.5933 634.491 Z" fill="#000000" fill-rule="nonzero" fill-opacity="1" /><path clip-path="url(#clip460)" d="M28.3562 603.171 L28.3562 569.019 L34.2127 569.019 L34.2127 573.507 L56.1107 573.507 Q58.4023 573.507 59.4208 572.743 Q60.4075 571.948 60.4075 570.197 Q60.4075 569.72 60.3439 569.019 Q60.2484 568.319 60.2166 568.096 L64.4498 568.096 Q64.8635 569.21 65.0545 570.388 Q65.2455 571.566 65.2455 572.743 Q65.2455 576.563 63.1766 578.027 Q61.0759 579.491 55.4741 579.491 L34.2127 579.491 L34.2127 592.636 L64.0042 592.636 L64.0042 598.62 L34.2127 598.62 L34.2127 603.171 L28.3562 603.171 Z" fill="#000000" fill-rule="nonzero" fill-opacity="1" /><path clip-path="url(#clip461)" d="M450.296 1384.24 L452.22 1378.76 L454.144 1373.45 L456.068 1368.29 L457.992 1363.29 L459.916 1358.41 L461.84 1353.65 L463.764 1349 L465.688 1344.43 L467.612 1339.92 L469.536 1335.46 L471.46 1331.02 L473.384 1326.57 L475.308 1322.1 L477.232 1317.56 L479.156 1312.93 L481.08 1308.18 L483.004 1303.27 L484.928 1298.16 L486.852 1292.82 L488.776 1287.21 L490.7 1281.48 L492.624 1275.79 L494.548 1270.14 L496.472 1264.53 L498.396 1258.94 L500.32 1253.37 L502.244 1247.82 L504.168 1242.26 L506.092 1236.7 L508.016 1231.13 L509.94 1225.53 L511.864 1219.89 L513.788 1214.2 L515.712 1208.46 L517.636 1202.64 L519.56 1196.74 L521.484 1190.74 L523.408 1184.63 L525.332 1178.39 L527.256 1172.01 L529.18 1165.55 L531.104 1159.1 L533.028 1152.64 L534.952 1146.18 L536.876 1139.71 L538.8 1133.23 L540.724 1126.72 L542.648 1120.19 L544.572 1113.64 L546.496 1107.05 L548.42 1100.42 L550.344 1093.74 L552.268 1087.01 L554.192 1080.23 L556.116 1073.38 L558.04 1066.47 L559.964 1059.47 L561.888 1052.39 L563.812 1045.23 L565.736 1037.96 L567.66 1030.64 L569.584 1023.31 L571.508 1015.98 L573.432 1008.63 L575.356 1001.28 L577.28 993.912 L579.204 986.531 L581.128 979.132 L583.052 971.714 L584.976 964.275 L586.9 956.812 L588.824 949.322 L590.748 941.804 L592.672 934.254 L594.596 926.67 L596.52 919.049 L598.444 911.387 L600.368 903.682 L602.292 895.931 L604.216 888.131 L606.14 880.305 L608.064 872.48 L609.988 864.655 L611.912 856.83 L613.836 849.003 L615.76 841.174 L617.684 833.342 L619.608 825.506 L621.532 817.665 L623.456 809.818 L625.38 801.965 L627.304 794.104 L629.228 786.233 L631.152 778.352 L633.076 770.46 L635 762.556 L636.924 754.637 L638.849 746.703 L640.773 738.752 L642.697 730.783 L644.621 722.819 L646.545 714.883 L648.469 706.977 L650.393 699.102 L652.317 691.256 L654.241 683.442 L656.165 675.659 L658.089 667.909 L660.013 660.19 L661.937 652.505 L663.861 644.854 L665.785 637.236 L667.709 629.652 L669.633 622.104 L671.557 614.59 L673.481 607.112 L675.405 599.669 L677.329 592.263 L679.253 584.893 L681.177 577.56 L683.101 570.273 L685.025 563.043 L686.949 555.87 L688.873 548.756 L690.797 541.701 L692.721 534.707 L694.645 527.774 L696.569 520.903 L698.493 514.095 L700.417 507.352 L702.341 500.673 L704.265 494.061 L706.189 487.516 L708.113 481.038 L710.037 474.629 L711.961 468.29 L713.885 462.022 L715.809 455.825 L717.733 449.7 L719.657 443.649 L721.581 437.679 L723.505 431.798 L725.429 426.008 L727.353 420.31 L729.277 414.705 L731.201 409.196 L733.125 403.782 L735.049 398.466 L736.973 393.248 L738.897 388.131 L740.821 383.115 L742.745 378.202 L744.669 373.392 L746.593 368.689 L748.517 364.092 L750.441 359.603 L752.365 355.224 L754.289 350.956 L756.213 346.799 L758.137 342.756 L760.061 338.825 L761.985 335.004 L763.909 331.294 L765.833 327.696 L767.757 324.211 L769.681 320.841 L771.605 317.586 L773.529 314.448 L775.453 311.428 L777.377 308.527 L779.301 305.746 L781.225 303.086 L783.149 300.549 L785.073 298.135 L786.997 295.846 L788.921 293.682 L790.845 291.645 L792.769 289.736 L794.693 287.956 L796.617 286.306 L798.541 284.783 L800.465 283.384 L802.389 282.111 L804.313 280.963 L806.237 279.942 L808.161 279.049 L810.085 278.285 L812.009 277.649 L813.933 277.144 L815.857 276.77 L817.781 276.528 L819.705 276.419 L821.629 276.443 L823.553 276.601 L825.477 276.895 L827.401 277.324 L829.325 277.891 L831.249 278.594 L833.173 279.437 L835.097 280.418 L837.021 281.529 L838.945 282.761 L840.869 284.114 L842.793 285.589 L844.717 287.184 L846.641 288.902 L848.566 290.741 L850.49 292.702 L852.414 294.786 L854.338 296.992 L856.262 299.322 L858.186 301.774 L860.11 304.349 L862.034 307.048 L863.958 309.87 L865.882 312.816 L867.806 315.886 L869.73 319.079 L871.654 322.397 L873.578 325.839 L875.502 329.397 L877.426 333.062 L879.35 336.834 L881.274 340.712 L883.198 344.697 L885.122 348.788 L887.046 352.984 L888.97 357.285 L890.894 361.691 L892.818 366.202 L894.742 370.816 L896.666 375.534 L898.59 380.356 L900.514 385.28 L902.438 390.306 L904.362 395.434 L906.286 400.663 L908.21 405.994 L910.134 411.425 L912.058 416.955 L913.982 422.576 L915.906 428.277 L917.83 434.057 L919.754 439.915 L921.678 445.851 L923.602 451.863 L925.526 457.95 L927.45 464.111 L929.374 470.346 L931.298 476.653 L933.222 483.031 L935.146 489.479 L937.07 495.995 L938.994 502.58 L940.918 509.231 L942.842 515.948 L944.766 522.729 L946.69 529.574 L948.614 536.48 L950.538 543.447 L952.462 550.468 L954.386 557.537 L956.31 564.65 L958.234 571.808 L960.158 579.008 L962.082 586.25 L964.006 593.53 L965.93 600.849 L967.854 608.204 L969.778 615.593 L971.702 623.016 L973.626 630.47 L975.55 637.954 L977.474 645.466 L979.398 653.005 L981.322 660.569 L983.246 668.155 L985.17 675.764 L987.094 683.391 L989.018 691.037 L990.942 698.697 L992.866 706.366 L994.79 714.044 L996.714 721.728 L998.638 729.416 L1000.56 737.106 L1002.49 744.797 L1004.41 752.487 L1006.33 760.172 L1008.26 767.852 L1010.18 775.525 L1012.11 783.187 L1014.03 790.839 L1015.95 798.476 L1017.88 806.097 L1019.8 813.7 L1021.73 821.284 L1023.65 828.845 L1025.57 836.381 L1027.5 843.891 L1029.42 851.376 L1031.35 858.838 L1033.27 866.274 L1035.19 873.683 L1037.12 881.062 L1039.04 888.41 L1040.97 895.723 L1042.89 903.001 L1044.81 910.241 L1046.74 917.44 L1048.66 924.596 L1050.59 931.707 L1052.51 938.772 L1054.43 945.786 L1056.36 952.75 L1058.28 959.659 L1060.21 966.512 L1062.13 973.306 L1064.05 980.039 L1065.98 986.708 L1067.9 993.321 L1069.83 999.881 L1071.75 1006.39 L1073.67 1012.84 L1075.6 1019.23 L1077.52 1025.57 L1079.45 1031.84 L1081.37 1038.04 L1083.29 1044.18 L1085.22 1050.26 L1087.14 1056.26 L1089.07 1062.18 L1090.99 1068.03 L1092.91 1073.8 L1094.84 1079.5 L1096.76 1085.11 L1098.69 1090.63 L1100.61 1096.07 L1102.53 1101.42 L1104.46 1106.67 L1106.38 1111.84 L1108.31 1116.95 L1110.23 1121.99 L1112.15 1126.95 L1114.08 1131.84 L1116 1136.65 L1117.93 1141.38 L1119.85 1146.04 L1121.77 1150.61 L1123.7 1155.09 L1125.62 1159.49 L1127.55 1163.8 L1129.47 1168.02 L1131.39 1172.14 L1133.32 1176.17 L1135.24 1180.11 L1137.17 1183.94 L1139.09 1187.67 L1141.01 1191.3 L1142.94 1194.82 L1144.86 1198.25 L1146.79 1201.6 L1148.71 1204.88 L1150.63 1208.08 L1152.56 1211.2 L1154.48 1214.24 L1156.41 1217.19 L1158.33 1220.06 L1160.25 1222.84 L1162.18 1225.53 L1164.1 1228.14 L1166.03 1230.64 L1167.95 1233.06 L1169.88 1235.37 L1171.8 1237.59 L1173.72 1239.71 L1175.65 1241.73 L1177.57 1243.65 L1179.5 1245.46 L1181.42 1247.16 L1183.34 1248.77 L1185.27 1250.31 L1187.19 1251.78 L1189.12 1253.18 L1191.04 1254.51 L1192.96 1255.76 L1194.89 1256.93 L1196.81 1258.02 L1198.74 1259.03 L1200.66 1259.97 L1202.58 1260.82 L1204.51 1261.58 L1206.43 1262.26 L1208.36 1262.86 L1210.28 1263.37 L1212.2 1263.78 L1214.13 1264.11 L1216.05 1264.35 L1217.98 1264.49 L1219.9 1264.54 L1221.82 1264.51 L1223.75 1264.42 L1225.67 1264.28 L1227.6 1264.08 L1229.52 1263.83 L1231.44 1263.51 L1233.37 1263.13 L1235.29 1262.69 L1237.22 1262.2 L1239.14 1261.63 L1241.06 1261.01 L1242.99 1260.31 L1244.91 1259.56 L1246.84 1258.73 L1248.76 1257.84 L1250.68 1256.88 L1252.61 1255.85 L1254.53 1254.76 L1256.46 1253.58 L1258.38 1252.34 L1260.3 1251.05 L1262.23 1249.71 L1264.15 1248.35 L1266.08 1246.94 L1268 1245.5 L1269.92 1244.02 L1271.85 1242.51 L1273.77 1240.95 L1275.7 1239.36 L1277.62 1237.73 L1279.54 1236.06 L1281.47 1234.35 L1283.39 1232.6 L1285.32 1230.8 L1287.24 1228.97 L1289.16 1227.09 L1291.09 1225.17 L1293.01 1223.21 L1294.94 1221.21 L1296.86 1219.16 L1298.78 1217.08 L1300.71 1214.99 L1302.63 1212.89 L1304.56 1210.78 L1306.48 1208.66 L1308.4 1206.52 L1310.33 1204.37 L1312.25 1202.2 L1314.18 1200.03 L1316.1 1197.84 L1318.02 1195.64 L1319.95 1193.43 L1321.87 1191.2 L1323.8 1188.96 L1325.72 1186.71 L1327.64 1184.44 L1329.57 1182.16 L1331.49 1179.87 L1333.42 1177.56 L1335.34 1175.24 L1337.26 1172.92 L1339.19 1170.61 L1341.11 1168.31 L1343.04 1166.02 L1344.96 1163.74 L1346.88 1161.47 L1348.81 1159.21 L1350.73 1156.97 L1352.66 1154.73 L1354.58 1152.51 L1356.5 1150.3 L1358.43 1148.1 L1360.35 1145.92 L1362.28 1143.75 L1364.2 1141.59 L1366.12 1139.44 L1368.05 1137.31 L1369.97 1135.19 L1371.9 1133.08 L1373.82 1130.99 L1375.74 1128.92 L1377.67 1126.88 L1379.59 1124.87 L1381.52 1122.88 L1383.44 1120.92 L1385.36 1119 L1387.29 1117.1 L1389.21 1115.23 L1391.14 1113.4 L1393.06 1111.59 L1394.98 1109.82 L1396.91 1108.07 L1398.83 1106.36 L1400.76 1104.68 L1402.68 1103.04 L1404.6 1101.43 L1406.53 1099.85 L1408.45 1098.3 L1410.38 1096.79 L1412.3 1095.32 L1414.22 1093.88 L1416.15 1092.48 L1418.07 1091.12 L1420 1089.81 L1421.92 1088.53 L1423.84 1087.3 L1425.77 1086.1 L1427.69 1084.95 L1429.62 1083.85 L1431.54 1082.78 L1433.46 1081.77 L1435.39 1080.79 L1437.31 1079.86 L1439.24 1078.98 L1441.16 1078.14 L1443.08 1077.35 L1445.01 1076.6 L1446.93 1075.9 L1448.86 1075.25 L1450.78 1074.65 L1452.7 1074.09 L1454.63 1073.58 L1456.55 1073.11 L1458.48 1072.68 L1460.4 1072.29 L1462.32 1071.95 L1464.25 1071.65 L1466.17 1071.4 L1468.1 1071.19 L1470.02 1071.03 L1471.94 1070.91 L1473.87 1070.84 L1475.79 1070.82 L1477.72 1070.85 L1479.64 1070.92 L1481.56 1071.04 L1483.49 1071.21 L1485.41 1071.42 L1487.34 1071.69 L1489.26 1072.01 L1491.18 1072.37 L1493.11 1072.77 L1495.03 1073.21 L1496.96 1073.69 L1498.88 1074.21 L1500.8 1074.77 L1502.73 1075.37 L1504.65 1076.01 L1506.58 1076.7 L1508.5 1077.42 L1510.42 1078.19 L1512.35 1079 L1514.27 1079.85 L1516.2 1080.75 L1518.12 1081.69 L1520.04 1082.67 L1521.97 1083.7 L1523.89 1084.77 L1525.82 1085.88 L1527.74 1087.04 L1529.66 1088.24 L1531.59 1089.46 L1533.51 1090.71 L1535.44 1091.99 L1537.36 1093.3 L1539.28 1094.63 L1541.21 1095.99 L1543.13 1097.38 L1545.06 1098.8 L1546.98 1100.25 L1548.9 1101.72 L1550.83 1103.22 L1552.75 1104.76 L1554.68 1106.32 L1556.6 1107.91 L1558.52 1109.52 L1560.45 1111.17 L1562.37 1112.85 L1564.3 1114.56 L1566.22 1116.3 L1568.14 1118.06 L1570.07 1119.83 L1571.99 1121.62 L1573.92 1123.42 L1575.84 1125.24 L1577.76 1127.07 L1579.69 1128.92 L1581.61 1130.78 L1583.54 1132.66 L1585.46 1134.55 L1587.39 1136.46 L1589.31 1138.38 L1591.23 1140.32 L1593.16 1142.27 L1595.08 1144.23 L1597.01 1146.21 L1598.93 1148.21 L1600.85 1150.22 L1602.78 1152.24 L1604.7 1154.28 L1606.63 1156.33 L1608.55 1158.37 L1610.47 1160.41 L1612.4 1162.44 L1614.32 1164.47 L1616.25 1166.49 L1618.17 1168.51 L1620.09 1170.52 L1622.02 1172.53 L1623.94 1174.54 L1625.87 1176.53 L1627.79 1178.53 L1629.71 1180.51 L1631.64 1182.49 L1633.56 1184.46 L1635.49 1186.43 L1637.41 1188.39 L1639.33 1190.34 L1641.26 1192.29 L1643.18 1194.23 L1645.11 1196.16 L1647.03 1198.07 L1648.95 1199.97 L1650.88 1201.84 L1652.8 1203.71 L1654.73 1205.55 L1656.65 1207.38 L1658.57 1209.19 L1660.5 1210.98 L1662.42 1212.75 L1664.35 1214.51 L1666.27 1216.25 L1668.19 1217.96 L1670.12 1219.66 L1672.04 1221.34 L1673.97 1223 L1675.89 1224.64 L1677.81 1226.26 L1679.74 1227.85 L1681.66 1229.43 L1683.59 1230.98 L1685.51 1232.5 L1687.43 1233.99 L1689.36 1235.45 L1691.28 1236.87 L1693.21 1238.27 L1695.13 1239.63 L1697.05 1240.96 L1698.98 1242.25 L1700.9 1243.51 L1702.83 1244.74 L1704.75 1245.93 L1706.67 1247.09 L1708.6 1248.21 L1710.52 1249.3 L1712.45 1250.35 L1714.37 1251.37 L1716.29 1252.35 L1718.22 1253.29 L1720.14 1254.19 L1722.07 1255.06 L1723.99 1255.9 L1725.91 1256.7 L1727.84 1257.47 L1729.76 1258.21 L1731.69 1258.91 L1733.61 1259.58 L1735.53 1260.21 L1737.46 1260.81 L1739.38 1261.38 L1741.31 1261.91 L1743.23 1262.4 L1745.15 1262.86 L1747.08 1263.28 L1749 1263.66 L1750.93 1264 L1752.85 1264.31 L1754.77 1264.58 L1756.7 1264.81 L1758.62 1265.01 L1760.55 1265.16 L1762.47 1265.28 L1764.39 1265.36 L1766.32 1265.4 L1768.24 1265.41 L1770.17 1265.37 L1772.09 1265.3 L1774.01 1265.18 L1775.94 1265.03 L1777.86 1264.84 L1779.79 1264.61 L1781.71 1264.33 L1783.63 1264.02 L1785.56 1263.66 L1787.48 1263.26 L1789.41 1262.82 L1791.33 1262.34 L1793.25 1261.81 L1795.18 1261.24 L1797.1 1260.63 L1799.03 1259.98 L1800.95 1259.31 L1802.87 1258.6 L1804.8 1257.88 L1806.72 1257.12 L1808.65 1256.34 L1810.57 1255.53 L1812.49 1254.69 L1814.42 1253.82 L1816.34 1252.92 L1818.27 1252 L1820.19 1251.05 L1822.11 1250.07 L1824.04 1249.05 L1825.96 1248.01 L1827.89 1246.94 L1829.81 1245.84 L1831.73 1244.71 L1833.66 1243.55 L1835.58 1242.36 L1837.51 1241.15 L1839.43 1239.91 L1841.35 1238.65 L1843.28 1237.36 L1845.2 1236.06 L1847.13 1234.73 L1849.05 1233.38 L1850.97 1232.01 L1852.9 1230.61 L1854.82 1229.19 L1856.75 1227.75 L1858.67 1226.28 L1860.59 1224.8 L1862.52 1223.28 L1864.44 1221.75 L1866.37 1220.19 L1868.29 1218.6 L1870.21 1216.99 L1872.14 1215.36 L1874.06 1213.7 L1875.99 1212.03 L1877.91 1210.35 L1879.83 1208.68 L1881.76 1207 L1883.68 1205.31 L1885.61 1203.63 L1887.53 1201.94 L1889.45 1200.25 L1891.38 1198.55 L1893.3 1196.85 L1895.23 1195.15 L1897.15 1193.45 L1899.07 1191.75 L1901 1190.04 L1902.92 1188.33 L1904.85 1186.61 L1906.77 1184.9 L1908.69 1183.18 L1910.62 1181.46 L1912.54 1179.73 L1914.47 1178.01 L1916.39 1176.29 L1918.31 1174.57 L1920.24 1172.87 L1922.16 1171.16 L1924.09 1169.46 L1926.01 1167.77 L1927.93 1166.08 L1929.86 1164.4 L1931.78 1162.73 L1933.71 1161.06 L1935.63 1159.39 L1937.55 1157.73 L1939.48 1156.08 L1941.4 1154.43 L1943.33 1152.79 L1945.25 1151.15 L1947.17 1149.52 L1949.1 1147.9 L1951.02 1146.28 L1952.95 1144.68 L1954.87 1143.1 L1956.79 1141.55 L1958.72 1140.02 L1960.64 1138.51 L1962.57 1137.03 L1964.49 1135.58 L1966.41 1134.15 L1968.34 1132.75 L1970.26 1131.37 L1972.19 1130.02 L1974.11 1128.7 L1976.03 1127.4 L1977.96 1126.13 L1979.88 1124.88 L1981.81 1123.67 L1983.73 1122.48 L1985.65 1121.31 L1987.58 1120.18 L1989.5 1119.07 L1991.43 1117.99 L1993.35 1116.94 L1995.27 1115.91 L1997.2 1114.92 L1999.12 1113.94 L2001.05 1113 L2002.97 1112.09 L2004.9 1111.2 L2006.82 1110.34 L2008.74 1109.51 L2010.67 1108.71 L2012.59 1107.94 L2014.52 1107.19 L2016.44 1106.48 L2018.36 1105.8 L2020.29 1105.14 L2022.21 1104.52 L2024.14 1103.92 L2026.06 1103.36 L2027.98 1102.83 L2029.91 1102.33 L2031.83 1101.87 L2033.76 1101.45 L2035.68 1101.07 L2037.6 1100.73 L2039.53 1100.43 L2041.45 1100.17 L2043.38 1099.95 L2045.3 1099.78 L2047.22 1099.64 L2049.15 1099.55 L2051.07 1099.49 L2053 1099.49 L2054.92 1099.52 L2056.84 1099.59 L2058.77 1099.71 L2060.69 1099.88 L2062.62 1100.08 L2064.54 1100.33 L2066.46 1100.62 L2068.39 1100.96 L2070.31 1101.32 L2072.24 1101.72 L2074.16 1102.15 L2076.08 1102.61 L2078.01 1103.11 L2079.93 1103.64 L2081.86 1104.21 L2083.78 1104.81 L2085.7 1105.44 L2087.63 1106.11 L2089.55 1106.81 L2091.48 1107.55 L2093.4 1108.32 L2095.32 1109.13 L2097.25 1109.97 L2099.17 1110.85 L2101.1 1111.76 L2103.02 1112.71 L2104.94 1113.7 L2106.87 1114.72 L2108.79 1115.78 L2110.72 1116.87 L2112.64 1118.01 L2114.56 1119.17 L2116.49 1120.38 L2118.41 1121.62 L2120.34 1122.9 L2122.26 1124.22 L2124.18 1125.57 L2126.11 1126.96 L2128.03 1128.39 L2129.96 1129.86 L2131.88 1131.37 L2133.8 1132.91 L2135.73 1134.5 L2137.65 1136.12 L2139.58 1137.78 L2141.5 1139.48 L2143.42 1141.22 L2145.35 1143 L2147.27 1144.79 L2149.2 1146.6 L2151.12 1148.43 L2153.04 1150.28 L2154.97 1152.15 L2156.89 1154.04 L2158.82 1155.95 L2160.74 1157.88 L2162.66 1159.83 L2164.59 1161.8 L2166.51 1163.79 L2168.44 1165.8 L2170.36 1167.84 L2172.28 1169.89 L2174.21 1171.96 L2176.13 1174.06 L2178.06 1176.17 L2179.98 1178.31 L2181.9 1180.47 L2183.83 1182.64 L2185.75 1184.84 L2187.68 1187.05 L2189.6 1189.28 L2191.52 1191.52 L2193.45 1193.79 L2195.37 1196.07 L2197.3 1198.37 L2199.22 1200.69 L2201.14 1203.02 L2203.07 1205.38 L2204.99 1207.75 L2206.92 1210.14 L2208.84 1212.55 L2210.76 1214.97 L2212.69 1217.42 L2214.61 1219.88 L2216.54 1222.36 L2218.46 1224.86 L2220.38 1227.38 L2222.31 1229.91 L2224.23 1232.43 L2226.16 1234.95 L2228.08 1237.47 L2230 1239.98 L2231.93 1242.49 L2233.85 1244.99 L2235.78 1247.5 L2237.7 1249.99 L2239.62 1252.49 L2241.55 1254.98 L2243.47 1257.47 L2245.4 1259.95 L2247.32 1262.43 L2249.24 1264.9 L2251.17 1267.37 L2253.09 1269.84 L2255.02 1272.3 L2256.94 1274.76 L2258.86 1277.21 L2260.79 1279.66 L2262.71 1282.1 L2264.64 1284.54 L2266.56 1286.97 L2268.48 1289.4 L2270.41 1291.82 L2272.33 1294.24 L2274.26 1296.65 L2276.18 1299.06 L2278.1 1301.46 L2280.03 1303.86 L2281.95 1306.25 L2283.88 1308.63 L2285.8 1311.01 L2287.72 1313.39 L2289.65 1315.75 L2291.57 1318.11 L2293.5 1320.47 L2295.42 1322.82 L2297.34 1325.16 L2297.34 1305.38 L2295.42 1302.87 L2293.5 1300.36 L2291.57 1297.84 L2289.65 1295.32 L2287.72 1292.78 L2285.8 1290.24 L2283.88 1287.7 L2281.95 1285.15 L2280.03 1282.59 L2278.1 1280.02 L2276.18 1277.45 L2274.26 1274.88 L2272.33 1272.3 L2270.41 1269.71 L2268.48 1267.11 L2266.56 1264.51 L2264.64 1261.91 L2262.71 1259.3 L2260.79 1256.68 L2258.86 1254.06 L2256.94 1251.43 L2255.02 1248.8 L2253.09 1246.17 L2251.17 1243.52 L2249.24 1240.88 L2247.32 1238.23 L2245.4 1235.57 L2243.47 1232.91 L2241.55 1230.24 L2239.62 1227.58 L2237.7 1224.9 L2235.78 1222.22 L2233.85 1219.54 L2231.93 1216.86 L2230 1214.17 L2228.08 1211.47 L2226.16 1208.77 L2224.23 1206.07 L2222.31 1203.37 L2220.38 1200.66 L2218.46 1197.96 L2216.54 1195.28 L2214.61 1192.62 L2212.69 1189.97 L2210.76 1187.35 L2208.84 1184.75 L2206.92 1182.16 L2204.99 1179.6 L2203.07 1177.05 L2201.14 1174.52 L2199.22 1172.02 L2197.3 1169.53 L2195.37 1167.06 L2193.45 1164.6 L2191.52 1162.17 L2189.6 1159.76 L2187.68 1157.36 L2185.75 1154.99 L2183.83 1152.63 L2181.9 1150.29 L2179.98 1147.97 L2178.06 1145.67 L2176.13 1143.4 L2174.21 1141.15 L2172.28 1138.91 L2170.36 1136.71 L2168.44 1134.52 L2166.51 1132.35 L2164.59 1130.21 L2162.66 1128.09 L2160.74 1125.99 L2158.82 1123.91 L2156.89 1121.85 L2154.97 1119.81 L2153.04 1117.8 L2151.12 1115.8 L2149.2 1113.83 L2147.27 1111.88 L2145.35 1109.95 L2143.42 1108.04 L2141.5 1106.16 L2139.58 1104.32 L2137.65 1102.52 L2135.73 1100.77 L2133.8 1099.06 L2131.88 1097.39 L2129.96 1095.76 L2128.03 1094.17 L2126.11 1092.63 L2124.18 1091.12 L2122.26 1089.65 L2120.34 1088.23 L2118.41 1086.84 L2116.49 1085.49 L2114.56 1084.19 L2112.64 1082.92 L2110.72 1081.69 L2108.79 1080.5 L2106.87 1079.35 L2104.94 1078.23 L2103.02 1077.16 L2101.1 1076.12 L2099.17 1075.12 L2097.25 1074.16 L2095.32 1073.24 L2093.4 1072.36 L2091.48 1071.51 L2089.55 1070.7 L2087.63 1069.93 L2085.7 1069.19 L2083.78 1068.5 L2081.86 1067.84 L2079.93 1067.21 L2078.01 1066.62 L2076.08 1066.07 L2074.16 1065.55 L2072.24 1065.07 L2070.31 1064.62 L2068.39 1064.21 L2066.46 1063.83 L2064.54 1063.5 L2062.62 1063.21 L2060.69 1062.97 L2058.77 1062.77 L2056.84 1062.62 L2054.92 1062.52 L2053 1062.46 L2051.07 1062.45 L2049.15 1062.48 L2047.22 1062.56 L2045.3 1062.68 L2043.38 1062.85 L2041.45 1063.06 L2039.53 1063.32 L2037.6 1063.62 L2035.68 1063.96 L2033.76 1064.34 L2031.83 1064.77 L2029.91 1065.24 L2027.98 1065.75 L2026.06 1066.3 L2024.14 1066.88 L2022.21 1067.49 L2020.29 1068.14 L2018.36 1068.82 L2016.44 1069.53 L2014.52 1070.27 L2012.59 1071.04 L2010.67 1071.85 L2008.74 1072.68 L2006.82 1073.55 L2004.9 1074.45 L2002.97 1075.37 L2001.05 1076.33 L1999.12 1077.32 L1997.2 1078.34 L1995.27 1079.38 L1993.35 1080.46 L1991.43 1081.57 L1989.5 1082.7 L1987.58 1083.86 L1985.65 1085.06 L1983.73 1086.28 L1981.81 1087.53 L1979.88 1088.82 L1977.96 1090.13 L1976.03 1091.47 L1974.11 1092.84 L1972.19 1094.23 L1970.26 1095.66 L1968.34 1097.11 L1966.41 1098.6 L1964.49 1100.1 L1962.57 1101.64 L1960.64 1103.2 L1958.72 1104.79 L1956.79 1106.41 L1954.87 1108.06 L1952.95 1109.73 L1951.02 1111.42 L1949.1 1113.13 L1947.17 1114.85 L1945.25 1116.58 L1943.33 1118.31 L1941.4 1120.05 L1939.48 1121.8 L1937.55 1123.55 L1935.63 1125.31 L1933.71 1127.07 L1931.78 1128.84 L1929.86 1130.62 L1927.93 1132.4 L1926.01 1134.19 L1924.09 1135.99 L1922.16 1137.79 L1920.24 1139.59 L1918.31 1141.4 L1916.39 1143.22 L1914.47 1145.05 L1912.54 1146.87 L1910.62 1148.7 L1908.69 1150.53 L1906.77 1152.36 L1904.85 1154.18 L1902.92 1156 L1901 1157.81 L1899.07 1159.62 L1897.15 1161.44 L1895.23 1163.24 L1893.3 1165.05 L1891.38 1166.85 L1889.45 1168.65 L1887.53 1170.44 L1885.61 1172.24 L1883.68 1174.03 L1881.76 1175.81 L1879.83 1177.6 L1877.91 1179.38 L1875.99 1181.16 L1874.06 1182.93 L1872.14 1184.69 L1870.21 1186.43 L1868.29 1188.14 L1866.37 1189.82 L1864.44 1191.47 L1862.52 1193.11 L1860.59 1194.71 L1858.67 1196.29 L1856.75 1197.85 L1854.82 1199.37 L1852.9 1200.88 L1850.97 1202.36 L1849.05 1203.82 L1847.13 1205.25 L1845.2 1206.65 L1843.28 1208.04 L1841.35 1209.4 L1839.43 1210.73 L1837.51 1212.05 L1835.58 1213.33 L1833.66 1214.6 L1831.73 1215.82 L1829.81 1217.02 L1827.89 1218.18 L1825.96 1219.31 L1824.04 1220.41 L1822.11 1221.48 L1820.19 1222.52 L1818.27 1223.52 L1816.34 1224.5 L1814.42 1225.44 L1812.49 1226.35 L1810.57 1227.24 L1808.65 1228.09 L1806.72 1228.91 L1804.8 1229.71 L1802.87 1230.47 L1800.95 1231.2 L1799.03 1231.91 L1797.1 1232.59 L1795.18 1233.23 L1793.25 1233.82 L1791.33 1234.37 L1789.41 1234.87 L1787.48 1235.33 L1785.56 1235.73 L1783.63 1236.1 L1781.71 1236.42 L1779.79 1236.69 L1777.86 1236.93 L1775.94 1237.11 L1774.01 1237.26 L1772.09 1237.36 L1770.17 1237.42 L1768.24 1237.44 L1766.32 1237.41 L1764.39 1237.35 L1762.47 1237.24 L1760.55 1237.09 L1758.62 1236.91 L1756.7 1236.68 L1754.77 1236.41 L1752.85 1236.1 L1750.93 1235.74 L1749 1235.35 L1747.08 1234.92 L1745.15 1234.44 L1743.23 1233.93 L1741.31 1233.38 L1739.38 1232.79 L1737.46 1232.16 L1735.53 1231.49 L1733.61 1230.79 L1731.69 1230.04 L1729.76 1229.26 L1727.84 1228.45 L1725.91 1227.6 L1723.99 1226.71 L1722.07 1225.79 L1720.14 1224.83 L1718.22 1223.83 L1716.29 1222.79 L1714.37 1221.72 L1712.45 1220.6 L1710.52 1219.44 L1708.6 1218.25 L1706.67 1217.01 L1704.75 1215.74 L1702.83 1214.43 L1700.9 1213.08 L1698.98 1211.7 L1697.05 1210.28 L1695.13 1208.82 L1693.21 1207.33 L1691.28 1205.8 L1689.36 1204.24 L1687.43 1202.64 L1685.51 1201.01 L1683.59 1199.35 L1681.66 1197.65 L1679.74 1195.92 L1677.81 1194.17 L1675.89 1192.4 L1673.97 1190.6 L1672.04 1188.79 L1670.12 1186.95 L1668.19 1185.09 L1666.27 1183.21 L1664.35 1181.31 L1662.42 1179.38 L1660.5 1177.44 L1658.57 1175.48 L1656.65 1173.5 L1654.73 1171.5 L1652.8 1169.48 L1650.88 1167.44 L1648.95 1165.38 L1647.03 1163.3 L1645.11 1161.21 L1643.18 1159.1 L1641.26 1156.98 L1639.33 1154.84 L1637.41 1152.7 L1635.49 1150.56 L1633.56 1148.4 L1631.64 1146.24 L1629.71 1144.07 L1627.79 1141.89 L1625.87 1139.71 L1623.94 1137.52 L1622.02 1135.32 L1620.09 1133.12 L1618.17 1130.91 L1616.25 1128.7 L1614.32 1126.48 L1612.4 1124.25 L1610.47 1122.02 L1608.55 1119.79 L1606.63 1117.54 L1604.7 1115.3 L1602.78 1113.06 L1600.85 1110.84 L1598.93 1108.63 L1597.01 1106.44 L1595.08 1104.26 L1593.16 1102.1 L1591.23 1099.95 L1589.31 1097.82 L1587.39 1095.71 L1585.46 1093.61 L1583.54 1091.53 L1581.61 1089.46 L1579.69 1087.41 L1577.76 1085.37 L1575.84 1083.35 L1573.92 1081.35 L1571.99 1079.36 L1570.07 1077.38 L1568.14 1075.43 L1566.22 1073.48 L1564.3 1071.57 L1562.37 1069.68 L1560.45 1067.82 L1558.52 1066 L1556.6 1064.21 L1554.68 1062.45 L1552.75 1060.72 L1550.83 1059.02 L1548.9 1057.35 L1546.98 1055.72 L1545.06 1054.11 L1543.13 1052.54 L1541.21 1050.99 L1539.28 1049.48 L1537.36 1047.99 L1535.44 1046.53 L1533.51 1045.11 L1531.59 1043.71 L1529.66 1042.34 L1527.74 1041.01 L1525.82 1039.71 L1523.89 1038.45 L1521.97 1037.25 L1520.04 1036.1 L1518.12 1034.99 L1516.2 1033.93 L1514.27 1032.92 L1512.35 1031.95 L1510.42 1031.03 L1508.5 1030.15 L1506.58 1029.32 L1504.65 1028.54 L1502.73 1027.8 L1500.8 1027.11 L1498.88 1026.45 L1496.96 1025.85 L1495.03 1025.28 L1493.11 1024.76 L1491.18 1024.28 L1489.26 1023.85 L1487.34 1023.46 L1485.41 1023.13 L1483.49 1022.85 L1481.56 1022.62 L1479.64 1022.44 L1477.72 1022.32 L1475.79 1022.25 L1473.87 1022.23 L1471.94 1022.26 L1470.02 1022.34 L1468.1 1022.48 L1466.17 1022.66 L1464.25 1022.89 L1462.32 1023.17 L1460.4 1023.49 L1458.48 1023.87 L1456.55 1024.29 L1454.63 1024.76 L1452.7 1025.27 L1450.78 1025.83 L1448.86 1026.44 L1446.93 1027.1 L1445.01 1027.82 L1443.08 1028.58 L1441.16 1029.4 L1439.24 1030.27 L1437.31 1031.19 L1435.39 1032.15 L1433.46 1033.17 L1431.54 1034.23 L1429.62 1035.34 L1427.69 1036.5 L1425.77 1037.71 L1423.84 1038.96 L1421.92 1040.26 L1420 1041.6 L1418.07 1042.99 L1416.15 1044.42 L1414.22 1045.9 L1412.3 1047.42 L1410.38 1048.98 L1408.45 1050.58 L1406.53 1052.22 L1404.6 1053.9 L1402.68 1055.61 L1400.76 1057.36 L1398.83 1059.14 L1396.91 1060.96 L1394.98 1062.81 L1393.06 1064.7 L1391.14 1066.63 L1389.21 1068.58 L1387.29 1070.58 L1385.36 1072.6 L1383.44 1074.66 L1381.52 1076.75 L1379.59 1078.87 L1377.67 1081.02 L1375.74 1083.2 L1373.82 1085.42 L1371.9 1087.65 L1369.97 1089.91 L1368.05 1092.17 L1366.12 1094.46 L1364.2 1096.76 L1362.28 1099.07 L1360.35 1101.4 L1358.43 1103.74 L1356.5 1106.09 L1354.58 1108.46 L1352.66 1110.84 L1350.73 1113.24 L1348.81 1115.65 L1346.88 1118.07 L1344.96 1120.51 L1343.04 1122.95 L1341.11 1125.41 L1339.19 1127.88 L1337.26 1130.37 L1335.34 1132.86 L1333.42 1135.35 L1331.49 1137.83 L1329.57 1140.3 L1327.64 1142.75 L1325.72 1145.18 L1323.8 1147.6 L1321.87 1150.01 L1319.95 1152.4 L1318.02 1154.78 L1316.1 1157.15 L1314.18 1159.5 L1312.25 1161.84 L1310.33 1164.16 L1308.4 1166.47 L1306.48 1168.77 L1304.56 1171.06 L1302.63 1173.33 L1300.71 1175.59 L1298.78 1177.83 L1296.86 1180.06 L1294.94 1182.27 L1293.01 1184.42 L1291.09 1186.53 L1289.16 1188.59 L1287.24 1190.6 L1285.32 1192.57 L1283.39 1194.49 L1281.47 1196.37 L1279.54 1198.2 L1277.62 1200 L1275.7 1201.74 L1273.77 1203.45 L1271.85 1205.11 L1269.92 1206.73 L1268 1208.31 L1266.08 1209.85 L1264.15 1211.35 L1262.23 1212.81 L1260.3 1214.23 L1258.38 1215.61 L1256.46 1216.93 L1254.53 1218.17 L1252.61 1219.34 L1250.68 1220.43 L1248.76 1221.44 L1246.84 1222.38 L1244.91 1223.24 L1242.99 1224.03 L1241.06 1224.75 L1239.14 1225.39 L1237.22 1225.97 L1235.29 1226.48 L1233.37 1226.91 L1231.44 1227.29 L1229.52 1227.59 L1227.6 1227.83 L1225.67 1228.01 L1223.75 1228.12 L1221.82 1228.17 L1219.9 1228.16 L1217.98 1228.06 L1216.05 1227.86 L1214.13 1227.56 L1212.2 1227.16 L1210.28 1226.65 L1208.36 1226.05 L1206.43 1225.35 L1204.51 1224.55 L1202.58 1223.66 L1200.66 1222.68 L1198.74 1221.61 L1196.81 1220.45 L1194.89 1219.2 L1192.96 1217.86 L1191.04 1216.44 L1189.12 1214.93 L1187.19 1213.34 L1185.27 1211.67 L1183.34 1209.93 L1181.42 1208.1 L1179.5 1206.17 L1177.57 1204.13 L1175.65 1201.97 L1173.72 1199.69 L1171.8 1197.3 L1169.88 1194.8 L1167.95 1192.19 L1166.03 1189.48 L1164.1 1186.66 L1162.18 1183.73 L1160.25 1180.71 L1158.33 1177.58 L1156.41 1174.36 L1154.48 1171.04 L1152.56 1167.63 L1150.63 1164.13 L1148.71 1160.54 L1146.79 1156.86 L1144.86 1153.09 L1142.94 1149.24 L1141.01 1145.29 L1139.09 1141.22 L1137.17 1137.03 L1135.24 1132.73 L1133.32 1128.32 L1131.39 1123.79 L1129.47 1119.17 L1127.55 1114.43 L1125.62 1109.6 L1123.7 1104.67 L1121.77 1099.63 L1119.85 1094.51 L1117.93 1089.28 L1116 1083.97 L1114.08 1078.57 L1112.15 1073.09 L1110.23 1067.52 L1108.31 1061.86 L1106.38 1056.13 L1104.46 1050.32 L1102.53 1044.42 L1100.61 1038.41 L1098.69 1032.3 L1096.76 1026.1 L1094.84 1019.79 L1092.91 1013.4 L1090.99 1006.91 L1089.07 1000.33 L1087.14 993.67 L1085.22 986.924 L1083.29 980.096 L1081.37 973.19 L1079.45 966.207 L1077.52 959.15 L1075.6 952.022 L1073.67 944.824 L1071.75 937.56 L1069.83 930.231 L1067.9 922.84 L1065.98 915.39 L1064.05 907.873 L1062.13 900.283 L1060.21 892.622 L1058.28 884.893 L1056.36 877.099 L1054.43 869.243 L1052.51 861.325 L1050.59 853.35 L1048.66 845.32 L1046.74 837.236 L1044.81 829.103 L1042.89 820.921 L1040.97 812.693 L1039.04 804.423 L1037.12 796.111 L1035.19 787.761 L1033.27 779.375 L1031.35 770.955 L1029.42 762.504 L1027.5 754.023 L1025.57 745.512 L1023.65 736.967 L1021.73 728.392 L1019.8 719.788 L1017.88 711.159 L1015.95 702.506 L1014.03 693.831 L1012.11 685.138 L1010.18 676.428 L1008.26 667.704 L1006.33 658.968 L1004.41 650.222 L1002.49 641.468 L1000.56 632.709 L998.638 623.946 L996.714 615.182 L994.79 606.419 L992.866 597.659 L990.942 588.905 L989.018 580.158 L987.094 571.422 L985.17 562.703 L983.246 554.002 L981.322 545.32 L979.398 536.661 L977.474 528.025 L975.55 519.415 L973.626 510.833 L971.702 502.28 L969.778 493.758 L967.854 485.269 L965.93 476.815 L964.006 468.398 L962.082 460.019 L960.158 451.68 L958.234 443.382 L956.31 435.129 L954.386 426.92 L952.462 418.758 L950.538 410.645 L948.614 402.588 L946.69 394.595 L944.766 386.668 L942.842 378.807 L940.918 371.014 L938.994 363.291 L937.07 355.638 L935.146 348.057 L933.222 340.55 L931.298 333.116 L929.374 325.759 L927.45 318.478 L925.526 311.275 L923.602 304.152 L921.678 297.109 L919.754 290.148 L917.83 283.269 L915.906 276.474 L913.982 269.764 L912.058 263.14 L910.134 256.613 L908.21 250.195 L906.286 243.885 L904.362 237.685 L902.438 231.595 L900.514 225.616 L898.59 219.747 L896.666 213.991 L894.742 208.347 L892.818 202.815 L890.894 197.397 L888.97 192.093 L887.046 186.903 L885.122 181.827 L883.198 176.867 L881.274 172.023 L879.35 167.294 L877.426 162.682 L875.502 158.187 L873.578 153.809 L871.654 149.559 L869.73 145.445 L867.806 141.467 L865.882 137.626 L863.958 133.922 L862.034 130.354 L860.11 126.922 L858.186 123.626 L856.262 120.466 L854.338 117.442 L852.414 114.554 L850.49 111.801 L848.566 109.183 L846.641 106.701 L844.717 104.353 L842.793 102.141 L840.869 100.062 L838.945 98.1187 L837.021 96.309 L835.097 94.6332 L833.173 93.102 L831.249 91.7259 L829.325 90.5042 L827.401 89.4359 L825.477 88.5202 L823.553 87.7564 L821.629 87.1436 L819.705 86.6809 L817.781 86.3676 L815.857 86.2028 L813.933 86.1857 L812.009 86.3153 L810.085 86.5909 L808.161 87.0116 L806.237 87.5765 L804.313 88.2847 L802.389 89.1354 L800.465 90.1276 L798.541 91.2606 L796.617 92.5333 L794.693 93.9494 L792.769 95.5122 L790.845 97.2206 L788.921 99.0734 L786.997 101.07 L785.073 103.208 L783.149 105.487 L781.225 107.906 L779.301 110.464 L777.377 113.159 L775.453 115.99 L773.529 118.956 L771.605 122.057 L769.681 125.29 L767.757 128.655 L765.833 132.15 L763.909 135.775 L761.985 139.527 L760.061 143.406 L758.137 147.411 L756.213 151.544 L754.289 155.807 L752.365 160.198 L750.441 164.717 L748.517 169.361 L746.593 174.129 L744.669 179.02 L742.745 184.033 L740.821 189.166 L738.897 194.417 L736.973 199.786 L735.049 205.271 L733.125 210.87 L731.201 216.581 L729.277 222.405 L727.353 228.338 L725.429 234.381 L723.505 240.53 L721.581 246.786 L719.657 253.146 L717.733 259.601 L715.809 266.141 L713.885 272.767 L711.961 279.477 L710.037 286.27 L708.113 293.146 L706.189 300.102 L704.265 307.139 L702.341 314.256 L700.417 321.451 L698.493 328.723 L696.569 336.072 L694.645 343.497 L692.721 350.996 L690.797 358.569 L688.873 366.214 L686.949 373.931 L685.025 381.718 L683.101 389.575 L681.177 397.5 L679.253 405.482 L677.329 413.51 L675.405 421.583 L673.481 429.702 L671.557 437.865 L669.633 446.072 L667.709 454.324 L665.785 462.619 L663.861 470.958 L661.937 479.34 L660.013 487.764 L658.089 496.231 L656.165 504.739 L654.241 513.289 L652.317 521.88 L650.393 530.511 L648.469 539.181 L646.545 547.892 L644.621 556.64 L642.697 565.428 L640.773 574.225 L638.849 583.004 L636.924 591.768 L635 600.518 L633.076 609.256 L631.152 617.982 L629.228 626.7 L627.304 635.41 L625.38 644.114 L623.456 652.813 L621.532 661.508 L619.608 670.201 L617.684 678.892 L615.76 687.584 L613.836 696.277 L611.912 704.973 L609.988 713.672 L608.064 722.375 L606.14 731.084 L604.216 739.798 L602.292 748.488 L600.368 757.124 L598.444 765.709 L596.52 774.247 L594.596 782.743 L592.672 791.199 L590.748 799.619 L588.824 808.006 L586.9 816.364 L584.976 824.696 L583.052 833.004 L581.128 841.292 L579.204 849.562 L577.28 857.818 L575.356 866.061 L573.432 874.294 L571.508 882.521 L569.584 890.742 L567.66 898.96 L565.736 907.178 L563.812 915.336 L561.888 923.38 L559.964 931.318 L558.04 939.16 L556.116 946.914 L554.192 954.587 L552.268 962.188 L550.344 969.725 L548.42 977.204 L546.496 984.634 L544.572 992.02 L542.648 999.37 L540.724 1006.69 L538.8 1013.99 L536.876 1021.26 L534.952 1028.53 L533.028 1035.79 L531.104 1043.05 L529.18 1050.31 L527.256 1057.58 L525.332 1064.77 L523.408 1071.78 L521.484 1078.64 L519.56 1085.37 L517.636 1091.97 L515.712 1098.48 L513.788 1104.9 L511.864 1111.24 L509.94 1117.54 L508.016 1123.79 L506.092 1130.01 L504.168 1136.21 L502.244 1142.41 L500.32 1148.62 L498.396 1154.85 L496.472 1161.11 L494.548 1167.41 L492.624 1173.76 L490.7 1180.16 L488.776 1186.63 L486.852 1192.94 L484.928 1198.91 L483.004 1204.57 L481.08 1209.99 L479.156 1215.2 L477.232 1220.25 L475.308 1225.17 L473.384 1230.02 L471.46 1234.82 L469.536 1239.61 L467.612 1244.43 L465.688 1249.3 L463.764 1254.25 L461.84 1259.32 L459.916 1264.53 L457.992 1269.89 L456.068 1275.43 L454.144 1281.17 L452.22 1287.13 L450.296 1293.31  Z" fill="#009af9" fill-rule="evenodd" fill-opacity="0.5"/>
<polyline clip-path="url(#clip461)" style="stroke:#009af9; stroke-linecap:round; stroke-linejoin:round; stroke-width:4; stroke-opacity:1; fill:none" points="450.296,1338.77 452.22,1332.94 454.144,1327.31 456.068,1321.86 457.992,1316.59 459.916,1311.47 461.84,1306.49 463.764,1301.63 465.688,1296.86 467.612,1292.17 469.536,1287.54 471.46,1282.92 473.384,1278.3 475.308,1273.64 477.232,1268.9 479.156,1264.06 481.08,1259.08 483.004,1253.92 484.928,1248.53 486.852,1242.88 488.776,1236.92 490.7,1230.82 492.624,1224.77 494.548,1218.78 496.472,1212.82 498.396,1206.9 500.32,1201 502.244,1195.12 504.168,1189.24 506.092,1183.36 508.016,1177.46 509.94,1171.53 511.864,1165.57 513.788,1159.55 515.712,1153.47 517.636,1147.31 519.56,1141.05 521.484,1134.69 523.408,1128.2 525.332,1121.58 527.256,1114.79 529.18,1107.93 531.104,1101.07 533.028,1094.22 534.952,1087.36 536.876,1080.49 538.8,1073.61 540.724,1066.71 542.648,1059.78 544.572,1052.83 546.496,1045.84 548.42,1038.81 550.344,1031.73 552.268,1024.6 554.192,1017.41 556.116,1010.15 558.04,1002.81 559.964,995.396 561.888,987.887 563.812,980.281 565.736,972.569 567.66,964.799 569.584,957.026 571.508,949.249 573.432,941.464 575.356,933.67 577.28,925.865 579.204,918.046 581.128,910.212 583.052,902.359 584.976,894.485 586.9,886.588 588.824,878.664 590.748,870.712 592.672,862.727 594.596,854.706 596.52,846.648 598.444,838.548 600.368,830.403 602.292,822.21 604.216,813.965 606.14,805.694 608.064,797.428 609.988,789.164 611.912,780.901 613.836,772.64 615.76,764.379 617.684,756.117 619.608,747.853 621.532,739.586 623.456,731.315 625.38,723.039 627.304,714.757 629.228,706.467 631.152,698.167 633.076,689.858 635,681.537 636.924,673.202 638.849,664.853 640.773,656.488 642.697,648.105 644.621,639.73 646.545,631.387 648.469,623.079 650.393,614.806 652.317,606.568 654.241,598.365 656.165,590.199 658.089,582.07 660.013,573.977 661.937,565.923 663.861,557.906 665.785,549.928 667.709,541.988 669.633,534.088 671.557,526.227 673.481,518.407 675.405,510.626 677.329,502.886 679.253,495.188 681.177,487.53 683.101,479.924 685.025,472.38 686.949,464.9 688.873,457.485 690.797,450.135 692.721,442.851 694.645,435.635 696.569,428.487 698.493,421.409 700.417,414.401 702.341,407.465 704.265,400.6 706.189,393.809 708.113,387.092 710.037,380.45 711.961,373.884 713.885,367.395 715.809,360.983 717.733,354.65 719.657,348.397 721.581,342.232 723.505,336.164 725.429,330.194 727.353,324.324 729.277,318.555 731.201,312.889 733.125,307.326 735.049,301.868 736.973,296.517 738.897,291.274 740.821,286.14 742.745,281.117 744.669,276.206 746.593,271.409 748.517,266.726 750.441,262.16 752.365,257.711 754.289,253.381 756.213,249.172 758.137,245.084 760.061,241.116 761.985,237.266 763.909,233.534 765.833,229.923 767.757,226.433 769.681,223.065 771.605,219.822 773.529,216.702 775.453,213.709 777.377,210.843 779.301,208.105 781.225,205.496 783.149,203.018 785.073,200.671 786.997,198.458 788.921,196.378 790.845,194.433 792.769,192.624 794.693,190.953 796.617,189.42 798.541,188.022 800.465,186.756 802.389,185.623 804.313,184.624 806.237,183.759 808.161,183.03 810.085,182.438 812.009,181.982 813.933,181.665 815.857,181.487 817.781,181.448 819.705,181.55 821.629,181.793 823.553,182.179 825.477,182.707 827.401,183.38 829.325,184.197 831.249,185.16 833.173,186.269 835.097,187.526 837.021,188.919 838.945,190.44 840.869,192.088 842.793,193.865 844.717,195.769 846.641,197.801 848.566,199.962 850.49,202.252 852.414,204.67 854.338,207.217 856.262,209.894 858.186,212.7 860.11,215.636 862.034,218.701 863.958,221.896 865.882,225.221 867.806,228.677 869.73,232.262 871.654,235.978 873.578,239.824 875.502,243.792 877.426,247.872 879.35,252.064 881.274,256.367 883.198,260.782 885.122,265.307 887.046,269.943 888.97,274.689 890.894,279.544 892.818,284.508 894.742,289.581 896.666,294.763 898.59,300.051 900.514,305.448 902.438,310.95 904.362,316.56 906.286,322.274 908.21,328.094 910.134,334.019 912.058,340.048 913.982,346.17 915.906,352.375 917.83,358.663 919.754,365.031 921.678,371.48 923.602,378.007 925.526,384.613 927.45,391.295 929.374,398.052 931.298,404.885 933.222,411.79 935.146,418.768 937.07,425.817 938.994,432.935 940.918,440.123 942.842,447.377 944.766,454.698 946.69,462.084 948.614,469.534 950.538,477.046 952.462,484.613 954.386,492.228 956.31,499.889 958.234,507.595 960.158,515.344 962.082,523.134 964.006,530.964 965.93,538.832 967.854,546.736 969.778,554.676 971.702,562.648 973.626,570.652 975.55,578.685 977.474,586.746 979.398,594.833 981.322,602.944 983.246,611.078 985.17,619.233 987.094,627.407 989.018,635.597 990.942,643.801 992.866,652.013 994.79,660.232 996.714,668.455 998.638,676.681 1000.56,684.907 1002.49,693.133 1004.41,701.354 1006.33,709.57 1008.26,717.778 1010.18,725.977 1012.11,734.163 1014.03,742.335 1015.95,750.491 1017.88,758.628 1019.8,766.744 1021.73,774.838 1023.65,782.906 1025.57,790.946 1027.5,798.957 1029.42,806.94 1031.35,814.896 1033.27,822.824 1035.19,830.722 1037.12,838.587 1039.04,846.416 1040.97,854.208 1042.89,861.961 1044.81,869.672 1046.74,877.338 1048.66,884.958 1050.59,892.529 1052.51,900.048 1054.43,907.515 1056.36,914.925 1058.28,922.276 1060.21,929.567 1062.13,936.794 1064.05,943.956 1065.98,951.049 1067.9,958.08 1069.83,965.056 1071.75,971.974 1073.67,978.832 1075.6,985.628 1077.52,992.359 1079.45,999.023 1081.37,1005.62 1083.29,1012.14 1085.22,1018.59 1087.14,1024.96 1089.07,1031.26 1090.99,1037.47 1092.91,1043.6 1094.84,1049.65 1096.76,1055.6 1098.69,1061.47 1100.61,1067.24 1102.53,1072.92 1104.46,1078.49 1106.38,1083.99 1108.31,1089.41 1110.23,1094.75 1112.15,1100.02 1114.08,1105.21 1116,1110.31 1117.93,1115.33 1119.85,1120.27 1121.77,1125.12 1123.7,1129.88 1125.62,1134.54 1127.55,1139.12 1129.47,1143.59 1131.39,1147.97 1133.32,1152.24 1135.24,1156.42 1137.17,1160.48 1139.09,1164.44 1141.01,1168.29 1142.94,1172.03 1144.86,1175.67 1146.79,1179.23 1148.71,1182.71 1150.63,1186.11 1152.56,1189.42 1154.48,1192.64 1156.41,1195.78 1158.33,1198.82 1160.25,1201.77 1162.18,1204.63 1164.1,1207.4 1166.03,1210.06 1167.95,1212.63 1169.88,1215.09 1171.8,1217.45 1173.72,1219.7 1175.65,1221.85 1177.57,1223.89 1179.5,1225.81 1181.42,1227.63 1183.34,1229.35 1185.27,1230.99 1187.19,1232.56 1189.12,1234.06 1191.04,1235.47 1192.96,1236.81 1194.89,1238.06 1196.81,1239.23 1198.74,1240.32 1200.66,1241.32 1202.58,1242.24 1204.51,1243.07 1206.43,1243.81 1208.36,1244.45 1210.28,1245.01 1212.2,1245.47 1214.13,1245.84 1216.05,1246.1 1217.98,1246.28 1219.9,1246.35 1221.82,1246.34 1223.75,1246.27 1225.67,1246.14 1227.6,1245.96 1229.52,1245.71 1231.44,1245.4 1233.37,1245.02 1235.29,1244.59 1237.22,1244.08 1239.14,1243.51 1241.06,1242.88 1242.99,1242.17 1244.91,1241.4 1246.84,1240.55 1248.76,1239.64 1250.68,1238.66 1252.61,1237.6 1254.53,1236.46 1256.46,1235.26 1258.38,1233.98 1260.3,1232.64 1262.23,1231.26 1264.15,1229.85 1266.08,1228.4 1268,1226.91 1269.92,1225.38 1271.85,1223.81 1273.77,1222.2 1275.7,1220.55 1277.62,1218.86 1279.54,1217.13 1281.47,1215.36 1283.39,1213.54 1285.32,1211.69 1287.24,1209.78 1289.16,1207.84 1291.09,1205.85 1293.01,1203.82 1294.94,1201.74 1296.86,1199.61 1298.78,1197.46 1300.71,1195.29 1302.63,1193.11 1304.56,1190.92 1306.48,1188.71 1308.4,1186.5 1310.33,1184.27 1312.25,1182.02 1314.18,1179.76 1316.1,1177.49 1318.02,1175.21 1319.95,1172.91 1321.87,1170.6 1323.8,1168.28 1325.72,1165.94 1327.64,1163.59 1329.57,1161.23 1331.49,1158.85 1333.42,1156.46 1335.34,1154.05 1337.26,1151.64 1339.19,1149.25 1341.11,1146.86 1343.04,1144.49 1344.96,1142.12 1346.88,1139.77 1348.81,1137.43 1350.73,1135.1 1352.66,1132.79 1354.58,1130.49 1356.5,1128.2 1358.43,1125.92 1360.35,1123.66 1362.28,1121.41 1364.2,1119.17 1366.12,1116.95 1368.05,1114.74 1369.97,1112.55 1371.9,1110.37 1373.82,1108.2 1375.74,1106.06 1377.67,1103.95 1379.59,1101.87 1381.52,1099.81 1383.44,1097.79 1385.36,1095.8 1387.29,1093.84 1389.21,1091.91 1391.14,1090.01 1393.06,1088.15 1394.98,1086.31 1396.91,1084.52 1398.83,1082.75 1400.76,1081.02 1402.68,1079.32 1404.6,1077.66 1406.53,1076.03 1408.45,1074.44 1410.38,1072.89 1412.3,1071.37 1414.22,1069.89 1416.15,1068.45 1418.07,1067.06 1420,1065.7 1421.92,1064.39 1423.84,1063.13 1425.77,1061.91 1427.69,1060.73 1429.62,1059.6 1431.54,1058.51 1433.46,1057.47 1435.39,1056.47 1437.31,1055.52 1439.24,1054.62 1441.16,1053.77 1443.08,1052.97 1445.01,1052.21 1446.93,1051.5 1448.86,1050.85 1450.78,1050.24 1452.7,1049.68 1454.63,1049.17 1456.55,1048.7 1458.48,1048.27 1460.4,1047.89 1462.32,1047.56 1464.25,1047.27 1466.17,1047.03 1468.1,1046.83 1470.02,1046.69 1471.94,1046.59 1473.87,1046.54 1475.79,1046.54 1477.72,1046.58 1479.64,1046.68 1481.56,1046.83 1483.49,1047.03 1485.41,1047.27 1487.34,1047.58 1489.26,1047.93 1491.18,1048.33 1493.11,1048.77 1495.03,1049.25 1496.96,1049.77 1498.88,1050.33 1500.8,1050.94 1502.73,1051.59 1504.65,1052.28 1506.58,1053.01 1508.5,1053.79 1510.42,1054.61 1512.35,1055.48 1514.27,1056.38 1516.2,1057.34 1518.12,1058.34 1520.04,1059.38 1521.97,1060.47 1523.89,1061.61 1525.82,1062.79 1527.74,1064.02 1529.66,1065.29 1531.59,1066.59 1533.51,1067.91 1535.44,1069.26 1537.36,1070.64 1539.28,1072.05 1541.21,1073.49 1543.13,1074.96 1545.06,1076.46 1546.98,1077.98 1548.9,1079.54 1550.83,1081.12 1552.75,1082.74 1554.68,1084.38 1556.6,1086.06 1558.52,1087.76 1560.45,1089.5 1562.37,1091.26 1564.3,1093.06 1566.22,1094.89 1568.14,1096.74 1570.07,1098.61 1571.99,1100.49 1573.92,1102.38 1575.84,1104.3 1577.76,1106.22 1579.69,1108.16 1581.61,1110.12 1583.54,1112.09 1585.46,1114.08 1587.39,1116.08 1589.31,1118.1 1591.23,1120.14 1593.16,1122.18 1595.08,1124.25 1597.01,1126.33 1598.93,1128.42 1600.85,1130.53 1602.78,1132.65 1604.7,1134.79 1606.63,1136.94 1608.55,1139.08 1610.47,1141.21 1612.4,1143.35 1614.32,1145.47 1616.25,1147.59 1618.17,1149.71 1620.09,1151.82 1622.02,1153.93 1623.94,1156.03 1625.87,1158.12 1627.79,1160.21 1629.71,1162.29 1631.64,1164.36 1633.56,1166.43 1635.49,1168.49 1637.41,1170.55 1639.33,1172.59 1641.26,1174.63 1643.18,1176.66 1645.11,1178.68 1647.03,1180.69 1648.95,1182.67 1650.88,1184.64 1652.8,1186.59 1654.73,1188.52 1656.65,1190.44 1658.57,1192.33 1660.5,1194.21 1662.42,1196.07 1664.35,1197.91 1666.27,1199.73 1668.19,1201.53 1670.12,1203.3 1672.04,1205.06 1673.97,1206.8 1675.89,1208.52 1677.81,1210.21 1679.74,1211.89 1681.66,1213.54 1683.59,1215.16 1685.51,1216.76 1687.43,1218.32 1689.36,1219.84 1691.28,1221.34 1693.21,1222.8 1695.13,1224.23 1697.05,1225.62 1698.98,1226.98 1700.9,1228.3 1702.83,1229.59 1704.75,1230.84 1706.67,1232.05 1708.6,1233.23 1710.52,1234.37 1712.45,1235.48 1714.37,1236.54 1716.29,1237.57 1718.22,1238.56 1720.14,1239.51 1722.07,1240.42 1723.99,1241.3 1725.91,1242.15 1727.84,1242.96 1729.76,1243.74 1731.69,1244.48 1733.61,1245.18 1735.53,1245.85 1737.46,1246.49 1739.38,1247.08 1741.31,1247.64 1743.23,1248.16 1745.15,1248.65 1747.08,1249.1 1749,1249.5 1750.93,1249.87 1752.85,1250.2 1754.77,1250.5 1756.7,1250.75 1758.62,1250.96 1760.55,1251.13 1762.47,1251.26 1764.39,1251.35 1766.32,1251.41 1768.24,1251.42 1770.17,1251.4 1772.09,1251.33 1774.01,1251.22 1775.94,1251.07 1777.86,1250.88 1779.79,1250.65 1781.71,1250.37 1783.63,1250.06 1785.56,1249.7 1787.48,1249.29 1789.41,1248.85 1791.33,1248.35 1793.25,1247.82 1795.18,1247.24 1797.1,1246.61 1799.03,1245.95 1800.95,1245.26 1802.87,1244.54 1804.8,1243.79 1806.72,1243.02 1808.65,1242.21 1810.57,1241.38 1812.49,1240.52 1814.42,1239.63 1816.34,1238.71 1818.27,1237.76 1820.19,1236.78 1822.11,1235.77 1824.04,1234.73 1825.96,1233.66 1827.89,1232.56 1829.81,1231.43 1831.73,1230.27 1833.66,1229.07 1835.58,1227.85 1837.51,1226.6 1839.43,1225.32 1841.35,1224.02 1843.28,1222.7 1845.2,1221.36 1847.13,1219.99 1849.05,1218.6 1850.97,1217.18 1852.9,1215.75 1854.82,1214.28 1856.75,1212.8 1858.67,1211.29 1860.59,1209.75 1862.52,1208.19 1864.44,1206.61 1866.37,1205 1868.29,1203.37 1870.21,1201.71 1872.14,1200.03 1874.06,1198.32 1875.99,1196.59 1877.91,1194.87 1879.83,1193.14 1881.76,1191.4 1883.68,1189.67 1885.61,1187.93 1887.53,1186.19 1889.45,1184.45 1891.38,1182.7 1893.3,1180.95 1895.23,1179.2 1897.15,1177.44 1899.07,1175.69 1901,1173.92 1902.92,1172.16 1904.85,1170.4 1906.77,1168.63 1908.69,1166.85 1910.62,1165.08 1912.54,1163.3 1914.47,1161.53 1916.39,1159.75 1918.31,1157.99 1920.24,1156.23 1922.16,1154.47 1924.09,1152.72 1926.01,1150.98 1927.93,1149.24 1929.86,1147.51 1931.78,1145.78 1933.71,1144.06 1935.63,1142.35 1937.55,1140.64 1939.48,1138.94 1941.4,1137.24 1943.33,1135.55 1945.25,1133.87 1947.17,1132.19 1949.1,1130.52 1951.02,1128.85 1952.95,1127.2 1954.87,1125.58 1956.79,1123.98 1958.72,1122.41 1960.64,1120.86 1962.57,1119.34 1964.49,1117.84 1966.41,1116.37 1968.34,1114.93 1970.26,1113.52 1972.19,1112.13 1974.11,1110.77 1976.03,1109.43 1977.96,1108.13 1979.88,1106.85 1981.81,1105.6 1983.73,1104.38 1985.65,1103.19 1987.58,1102.02 1989.5,1100.89 1991.43,1099.78 1993.35,1098.7 1995.27,1097.65 1997.2,1096.63 1999.12,1095.63 2001.05,1094.67 2002.97,1093.73 2004.9,1092.82 2006.82,1091.95 2008.74,1091.1 2010.67,1090.28 2012.59,1089.49 2014.52,1088.73 2016.44,1088 2018.36,1087.31 2020.29,1086.64 2022.21,1086 2024.14,1085.4 2026.06,1084.83 2027.98,1084.29 2029.91,1083.78 2031.83,1083.32 2033.76,1082.89 2035.68,1082.51 2037.6,1082.17 2039.53,1081.87 2041.45,1081.62 2043.38,1081.4 2045.3,1081.23 2047.22,1081.1 2049.15,1081.01 2051.07,1080.97 2053,1080.97 2054.92,1081.02 2056.84,1081.11 2058.77,1081.24 2060.69,1081.42 2062.62,1081.64 2064.54,1081.91 2066.46,1082.23 2068.39,1082.58 2070.31,1082.97 2072.24,1083.39 2074.16,1083.85 2076.08,1084.34 2078.01,1084.87 2079.93,1085.43 2081.86,1086.02 2083.78,1086.65 2085.7,1087.32 2087.63,1088.02 2089.55,1088.76 2091.48,1089.53 2093.4,1090.34 2095.32,1091.18 2097.25,1092.07 2099.17,1092.98 2101.1,1093.94 2103.02,1094.93 2104.94,1095.96 2106.87,1097.03 2108.79,1098.14 2110.72,1099.28 2112.64,1100.46 2114.56,1101.68 2116.49,1102.94 2118.41,1104.23 2120.34,1105.56 2122.26,1106.93 2124.18,1108.34 2126.11,1109.79 2128.03,1111.28 2129.96,1112.81 2131.88,1114.38 2133.8,1115.99 2135.73,1117.63 2137.65,1119.32 2139.58,1121.05 2141.5,1122.82 2143.42,1124.63 2145.35,1126.47 2147.27,1128.33 2149.2,1130.21 2151.12,1132.12 2153.04,1134.04 2154.97,1135.98 2156.89,1137.94 2158.82,1139.93 2160.74,1141.93 2162.66,1143.96 2164.59,1146.01 2166.51,1148.07 2168.44,1150.16 2170.36,1152.27 2172.28,1154.4 2174.21,1156.55 2176.13,1158.73 2178.06,1160.92 2179.98,1163.14 2181.9,1165.38 2183.83,1167.64 2185.75,1169.91 2187.68,1172.21 2189.6,1174.52 2191.52,1176.85 2193.45,1179.2 2195.37,1181.56 2197.3,1183.95 2199.22,1186.35 2201.14,1188.77 2203.07,1191.21 2204.99,1193.67 2206.92,1196.15 2208.84,1198.65 2210.76,1201.16 2212.69,1203.7 2214.61,1206.25 2216.54,1208.82 2218.46,1211.41 2220.38,1214.02 2222.31,1216.64 2224.23,1219.25 2226.16,1221.86 2228.08,1224.47 2230,1227.07 2231.93,1229.67 2233.85,1232.27 2235.78,1234.86 2237.7,1237.45 2239.62,1240.03 2241.55,1242.61 2243.47,1245.19 2245.4,1247.76 2247.32,1250.33 2249.24,1252.89 2251.17,1255.45 2253.09,1258 2255.02,1260.55 2256.94,1263.1 2258.86,1265.64 2260.79,1268.17 2262.71,1270.7 2264.64,1273.22 2266.56,1275.74 2268.48,1278.26 2270.41,1280.77 2272.33,1283.27 2274.26,1285.77 2276.18,1288.26 2278.1,1290.74 2280.03,1293.22 2281.95,1295.7 2283.88,1298.17 2285.8,1300.63 2287.72,1303.08 2289.65,1305.53 2291.57,1307.98 2293.5,1310.41 2295.42,1312.84 2297.34,1315.27 "/>
<path clip-path="url(#clip460)" d="M1907.68 196.789 L2287.49 196.789 L2287.49 93.1086 L1907.68 93.1086  Z" fill="#ffffff" fill-rule="evenodd" fill-opacity="1"/>
<polyline clip-path="url(#clip460)" style="stroke:#000000; stroke-linecap:round; stroke-linejoin:round; stroke-width:4; stroke-opacity:1; fill:none" points="1907.68,196.789 2287.49,196.789 2287.49,93.1086 1907.68,93.1086 1907.68,196.789 "/>
<polyline clip-path="url(#clip460)" style="stroke:#009af9; stroke-linecap:round; stroke-linejoin:round; stroke-width:4; stroke-opacity:1; fill:none" points="1929.43,144.949 2059.96,144.949 "/>
<path clip-path="url(#clip460)" d="M2086.39 131.511 L2086.39 158.386 L2092.04 158.386 Q2099.19 158.386 2102.5 155.145 Q2105.83 151.905 2105.83 144.914 Q2105.83 137.969 2102.5 134.752 Q2099.19 131.511 2092.04 131.511 L2086.39 131.511 M2081.71 127.669 L2091.32 127.669 Q2101.37 127.669 2106.06 131.858 Q2110.76 136.025 2110.76 144.914 Q2110.76 153.849 2106.04 158.039 Q2101.32 162.229 2091.32 162.229 L2081.71 162.229 L2081.71 127.669 Z" fill="#000000" fill-rule="nonzero" fill-opacity="1" /><path clip-path="url(#clip460)" d="M2116.39 142.067 L2119.07 142.067 L2119.07 162.229 L2116.39 162.229 L2116.39 142.067 Z" fill="#000000" fill-rule="nonzero" fill-opacity="1" /><path clip-path="url(#clip460)" d="M2158.31 132.507 L2158.31 141.465 L2171.2 141.465 L2171.2 145.4 L2158.31 145.4 L2158.31 154.358 L2154.42 154.358 L2154.42 145.4 L2141.53 145.4 L2141.53 141.465 L2154.42 141.465 L2154.42 132.507 L2158.31 132.507 M2141.53 158.293 L2171.2 158.293 L2171.2 162.229 L2141.53 162.229 L2141.53 158.293 Z" fill="#000000" fill-rule="nonzero" fill-opacity="1" /><path clip-path="url(#clip460)" d="M2207.5 132.275 L2198.01 158.34 L2217.01 158.34 L2207.5 132.275 M2191.67 162.229 L2204.86 127.669 L2210.16 127.669 L2223.33 162.229 L2191.67 162.229 Z" fill="#000000" fill-rule="nonzero" fill-opacity="1" /><path clip-path="url(#clip460)" d="M2233.05 131.511 L2233.05 158.386 L2238.7 158.386 Q2245.86 158.386 2249.17 155.145 Q2252.5 151.905 2252.5 144.914 Q2252.5 137.969 2249.17 134.752 Q2245.86 131.511 2238.7 131.511 L2233.05 131.511 M2228.38 127.669 L2237.98 127.669 Q2248.03 127.669 2252.73 131.858 Q2257.43 136.025 2257.43 144.914 Q2257.43 153.849 2252.71 158.039 Q2247.98 162.229 2237.98 162.229 L2228.38 162.229 L2228.38 127.669 Z" fill="#000000" fill-rule="nonzero" fill-opacity="1" /><path clip-path="url(#clip460)" d="M2263.05 142.067 L2265.74 142.067 L2265.74 162.229 L2263.05 162.229 L2263.05 142.067 Z" fill="#000000" fill-rule="nonzero" fill-opacity="1" /></svg>
