<?xml version="1.0" encoding="utf-8"?>
<svg xmlns="http://www.w3.org/2000/svg" xmlns:xlink="http://www.w3.org/1999/xlink" width="800" height="400" viewBox="0 0 3200 1600">
<defs>
  <clipPath id="clip340">
    <rect x="0" y="0" width="3200" height="1600"/>
  </clipPath>
</defs>
<path clip-path="url(#clip340)" d="M0 1600 L3200 1600 L3200 0 L0 0  Z" fill="#ffffff" fill-rule="evenodd" fill-opacity="1"/>
<defs>
  <clipPath id="clip341">
    <rect x="364" y="47" width="2789" height="1449"/>
  </clipPath>
</defs>
<path clip-path="url(#clip340)" d="M364.733 1495.09 L3152.76 1495.09 L3152.76 47.2441 L364.733 47.2441  Z" fill="#ffffff" fill-rule="evenodd" fill-opacity="1"/>
<polyline clip-path="url(#clip341)" style="stroke:#000000; stroke-linecap:round; stroke-linejoin:round; stroke-width:2; stroke-opacity:0.1; fill:none" points="735.885,1495.09 735.885,47.2441 "/>
<polyline clip-path="url(#clip341)" style="stroke:#000000; stroke-linecap:round; stroke-linejoin:round; stroke-width:2; stroke-opacity:0.1; fill:none" points="1758.74,1495.09 1758.74,47.2441 "/>
<polyline clip-path="url(#clip341)" style="stroke:#000000; stroke-linecap:round; stroke-linejoin:round; stroke-width:2; stroke-opacity:0.1; fill:none" points="2781.6,1495.09 2781.6,47.2441 "/>
<polyline clip-path="url(#clip341)" style="stroke:#000000; stroke-linecap:round; stroke-linejoin:round; stroke-width:2; stroke-opacity:0.1; fill:none" points="364.733,1379.56 3152.76,1379.56 "/>
<polyline clip-path="url(#clip341)" style="stroke:#000000; stroke-linecap:round; stroke-linejoin:round; stroke-width:2; stroke-opacity:0.1; fill:none" points="364.733,1124.61 3152.76,1124.61 "/>
<polyline clip-path="url(#clip341)" style="stroke:#000000; stroke-linecap:round; stroke-linejoin:round; stroke-width:2; stroke-opacity:0.1; fill:none" points="364.733,869.659 3152.76,869.659 "/>
<polyline clip-path="url(#clip341)" style="stroke:#000000; stroke-linecap:round; stroke-linejoin:round; stroke-width:2; stroke-opacity:0.1; fill:none" points="364.733,614.706 3152.76,614.706 "/>
<polyline clip-path="url(#clip341)" style="stroke:#000000; stroke-linecap:round; stroke-linejoin:round; stroke-width:2; stroke-opacity:0.1; fill:none" points="364.733,359.754 3152.76,359.754 "/>
<polyline clip-path="url(#clip341)" style="stroke:#000000; stroke-linecap:round; stroke-linejoin:round; stroke-width:2; stroke-opacity:0.1; fill:none" points="364.733,104.801 3152.76,104.801 "/>
<polyline clip-path="url(#clip340)" style="stroke:#000000; stroke-linecap:round; stroke-linejoin:round; stroke-width:4; stroke-opacity:1; fill:none" points="364.733,1495.09 3152.76,1495.09 "/>
<polyline clip-path="url(#clip340)" style="stroke:#000000; stroke-linecap:round; stroke-linejoin:round; stroke-width:4; stroke-opacity:1; fill:none" points="735.885,1495.09 735.885,1476.19 "/>
<polyline clip-path="url(#clip340)" style="stroke:#000000; stroke-linecap:round; stroke-linejoin:round; stroke-width:4; stroke-opacity:1; fill:none" points="1758.74,1495.09 1758.74,1476.19 "/>
<polyline clip-path="url(#clip340)" style="stroke:#000000; stroke-linecap:round; stroke-linejoin:round; stroke-width:4; stroke-opacity:1; fill:none" points="2781.6,1495.09 2781.6,1476.19 "/>
<path clip-path="url(#clip340)" d="M651.846 1538.73 L651.846 1542.75 Q650.04 1541.83 648.096 1541.36 Q646.151 1540.9 644.068 1540.9 Q640.897 1540.9 639.299 1541.87 Q637.725 1542.85 637.725 1544.79 Q637.725 1546.27 638.86 1547.13 Q639.994 1547.96 643.42 1548.73 L644.878 1549.05 Q649.415 1550.02 651.313 1551.8 Q653.235 1553.56 653.235 1556.74 Q653.235 1560.35 650.364 1562.45 Q647.517 1564.56 642.517 1564.56 Q640.434 1564.56 638.165 1564.14 Q635.92 1563.75 633.42 1562.94 L633.42 1558.54 Q635.781 1559.77 638.073 1560.39 Q640.364 1560.99 642.61 1560.99 Q645.619 1560.99 647.239 1559.98 Q648.86 1558.93 648.86 1557.06 Q648.86 1555.32 647.679 1554.4 Q646.522 1553.47 642.563 1552.61 L641.082 1552.27 Q637.123 1551.43 635.364 1549.72 Q633.605 1547.99 633.605 1544.98 Q633.605 1541.32 636.198 1539.33 Q638.79 1537.34 643.559 1537.34 Q645.92 1537.34 648.003 1537.68 Q650.086 1538.03 651.846 1538.73 Z" fill="#000000" fill-rule="nonzero" fill-opacity="1" /><path clip-path="url(#clip340)" d="M670.804 1566.3 Q668.998 1570.92 667.285 1572.34 Q665.572 1573.75 662.702 1573.75 L659.299 1573.75 L659.299 1570.18 L661.799 1570.18 Q663.559 1570.18 664.531 1569.35 Q665.503 1568.52 666.684 1565.42 L667.447 1563.47 L656.961 1537.96 L661.475 1537.96 L669.577 1558.24 L677.679 1537.96 L682.193 1537.96 L670.804 1566.3 Z" fill="#000000" fill-rule="nonzero" fill-opacity="1" /><path clip-path="url(#clip340)" d="M708.257 1542.94 Q709.855 1540.07 712.077 1538.7 Q714.299 1537.34 717.308 1537.34 Q721.359 1537.34 723.558 1540.18 Q725.757 1543.01 725.757 1548.24 L725.757 1563.89 L721.475 1563.89 L721.475 1548.38 Q721.475 1544.65 720.155 1542.85 Q718.836 1541.04 716.128 1541.04 Q712.818 1541.04 710.896 1543.24 Q708.975 1545.44 708.975 1549.24 L708.975 1563.89 L704.693 1563.89 L704.693 1548.38 Q704.693 1544.63 703.373 1542.85 Q702.054 1541.04 699.299 1541.04 Q696.035 1541.04 694.114 1543.26 Q692.193 1545.46 692.193 1549.24 L692.193 1563.89 L687.91 1563.89 L687.91 1537.96 L692.193 1537.96 L692.193 1541.99 Q693.651 1539.61 695.688 1538.47 Q697.725 1537.34 700.526 1537.34 Q703.35 1537.34 705.318 1538.77 Q707.308 1540.21 708.257 1542.94 Z" fill="#000000" fill-rule="nonzero" fill-opacity="1" /><path clip-path="url(#clip340)" d="M752.864 1550.95 Q752.864 1546.25 750.919 1543.59 Q748.998 1540.9 745.618 1540.9 Q742.239 1540.9 740.294 1543.59 Q738.373 1546.25 738.373 1550.95 Q738.373 1555.65 740.294 1558.33 Q742.239 1560.99 745.618 1560.99 Q748.998 1560.99 750.919 1558.33 Q752.864 1555.65 752.864 1550.95 M738.373 1541.9 Q739.716 1539.58 741.753 1538.47 Q743.813 1537.34 746.66 1537.34 Q751.382 1537.34 754.322 1541.09 Q757.285 1544.84 757.285 1550.95 Q757.285 1557.06 754.322 1560.81 Q751.382 1564.56 746.66 1564.56 Q743.813 1564.56 741.753 1563.45 Q739.716 1562.31 738.373 1560 L738.373 1563.89 L734.091 1563.89 L734.091 1527.87 L738.373 1527.87 L738.373 1541.9 Z" fill="#000000" fill-rule="nonzero" fill-opacity="1" /><path clip-path="url(#clip340)" d="M774.391 1540.95 Q770.965 1540.95 768.975 1543.63 Q766.984 1546.3 766.984 1550.95 Q766.984 1555.6 768.951 1558.29 Q770.942 1560.95 774.391 1560.95 Q777.794 1560.95 779.785 1558.26 Q781.775 1555.58 781.775 1550.95 Q781.775 1546.34 779.785 1543.66 Q777.794 1540.95 774.391 1540.95 M774.391 1537.34 Q779.947 1537.34 783.118 1540.95 Q786.289 1544.56 786.289 1550.95 Q786.289 1557.31 783.118 1560.95 Q779.947 1564.56 774.391 1564.56 Q768.813 1564.56 765.641 1560.95 Q762.493 1557.31 762.493 1550.95 Q762.493 1544.56 765.641 1540.95 Q768.813 1537.34 774.391 1537.34 Z" fill="#000000" fill-rule="nonzero" fill-opacity="1" /><path clip-path="url(#clip340)" d="M793.349 1527.87 L797.609 1527.87 L797.609 1563.89 L793.349 1563.89 L793.349 1527.87 Z" fill="#000000" fill-rule="nonzero" fill-opacity="1" /><path clip-path="url(#clip340)" d="M806.521 1537.96 L810.78 1537.96 L810.78 1563.89 L806.521 1563.89 L806.521 1537.96 M806.521 1527.87 L810.78 1527.87 L810.78 1533.26 L806.521 1533.26 L806.521 1527.87 Z" fill="#000000" fill-rule="nonzero" fill-opacity="1" /><path clip-path="url(#clip340)" d="M838.349 1538.96 L838.349 1542.94 Q836.544 1541.94 834.715 1541.46 Q832.909 1540.95 831.058 1540.95 Q826.914 1540.95 824.622 1543.59 Q822.331 1546.2 822.331 1550.95 Q822.331 1555.69 824.622 1558.33 Q826.914 1560.95 831.058 1560.95 Q832.909 1560.95 834.715 1560.46 Q836.544 1559.95 838.349 1558.96 L838.349 1562.89 Q836.567 1563.73 834.646 1564.14 Q832.747 1564.56 830.595 1564.56 Q824.738 1564.56 821.289 1560.88 Q817.84 1557.2 817.84 1550.95 Q817.84 1544.61 821.312 1540.97 Q824.808 1537.34 830.872 1537.34 Q832.84 1537.34 834.715 1537.75 Q836.59 1538.15 838.349 1538.96 Z" fill="#000000" fill-rule="nonzero" fill-opacity="1" /><path clip-path="url(#clip340)" d="M1669.07 1527.87 L1669.07 1531.41 L1664.99 1531.41 Q1662.7 1531.41 1661.8 1532.34 Q1660.92 1533.26 1660.92 1535.67 L1660.92 1537.96 L1667.93 1537.96 L1667.93 1541.27 L1660.92 1541.27 L1660.92 1563.89 L1656.64 1563.89 L1656.64 1541.27 L1652.56 1541.27 L1652.56 1537.96 L1656.64 1537.96 L1656.64 1536.16 Q1656.64 1531.83 1658.65 1529.86 Q1660.67 1527.87 1665.04 1527.87 L1669.07 1527.87 Z" fill="#000000" fill-rule="nonzero" fill-opacity="1" /><path clip-path="url(#clip340)" d="M1672.63 1537.96 L1676.89 1537.96 L1676.89 1563.89 L1672.63 1563.89 L1672.63 1537.96 M1672.63 1527.87 L1676.89 1527.87 L1676.89 1533.26 L1672.63 1533.26 L1672.63 1527.87 Z" fill="#000000" fill-rule="nonzero" fill-opacity="1" /><path clip-path="url(#clip340)" d="M1707.36 1548.24 L1707.36 1563.89 L1703.1 1563.89 L1703.1 1548.38 Q1703.1 1544.7 1701.66 1542.87 Q1700.23 1541.04 1697.36 1541.04 Q1693.91 1541.04 1691.92 1543.24 Q1689.93 1545.44 1689.93 1549.24 L1689.93 1563.89 L1685.64 1563.89 L1685.64 1537.96 L1689.93 1537.96 L1689.93 1541.99 Q1691.45 1539.65 1693.51 1538.49 Q1695.6 1537.34 1698.3 1537.34 Q1702.77 1537.34 1705.06 1540.11 Q1707.36 1542.87 1707.36 1548.24 Z" fill="#000000" fill-rule="nonzero" fill-opacity="1" /><path clip-path="url(#clip340)" d="M1715.85 1537.96 L1720.11 1537.96 L1720.11 1563.89 L1715.85 1563.89 L1715.85 1537.96 M1715.85 1527.87 L1720.11 1527.87 L1720.11 1533.26 L1715.85 1533.26 L1715.85 1527.87 Z" fill="#000000" fill-rule="nonzero" fill-opacity="1" /><path clip-path="url(#clip340)" d="M1733.24 1530.6 L1733.24 1537.96 L1742.01 1537.96 L1742.01 1541.27 L1733.24 1541.27 L1733.24 1555.35 Q1733.24 1558.52 1734.09 1559.42 Q1734.97 1560.32 1737.63 1560.32 L1742.01 1560.32 L1742.01 1563.89 L1737.63 1563.89 Q1732.7 1563.89 1730.83 1562.06 Q1728.95 1560.21 1728.95 1555.35 L1728.95 1541.27 L1725.83 1541.27 L1725.83 1537.96 L1728.95 1537.96 L1728.95 1530.6 L1733.24 1530.6 Z" fill="#000000" fill-rule="nonzero" fill-opacity="1" /><path clip-path="url(#clip340)" d="M1769.79 1549.86 L1769.79 1551.94 L1750.2 1551.94 Q1750.48 1556.34 1752.84 1558.66 Q1755.23 1560.95 1759.46 1560.95 Q1761.92 1560.95 1764.21 1560.35 Q1766.52 1559.74 1768.79 1558.54 L1768.79 1562.57 Q1766.5 1563.54 1764.09 1564.05 Q1761.68 1564.56 1759.21 1564.56 Q1753 1564.56 1749.37 1560.95 Q1745.76 1557.34 1745.76 1551.18 Q1745.76 1544.81 1749.18 1541.09 Q1752.63 1537.34 1758.47 1537.34 Q1763.7 1537.34 1766.73 1540.72 Q1769.79 1544.07 1769.79 1549.86 M1765.53 1548.61 Q1765.48 1545.11 1763.56 1543.03 Q1761.66 1540.95 1758.51 1540.95 Q1754.95 1540.95 1752.8 1542.96 Q1750.67 1544.98 1750.34 1548.63 L1765.53 1548.61 Z" fill="#000000" fill-rule="nonzero" fill-opacity="1" /><path clip-path="url(#clip340)" d="M1808.91 1541.9 L1808.91 1527.87 L1813.17 1527.87 L1813.17 1563.89 L1808.91 1563.89 L1808.91 1560 Q1807.56 1562.31 1805.5 1563.45 Q1803.47 1564.56 1800.6 1564.56 Q1795.9 1564.56 1792.93 1560.81 Q1789.99 1557.06 1789.99 1550.95 Q1789.99 1544.84 1792.93 1541.09 Q1795.9 1537.34 1800.6 1537.34 Q1803.47 1537.34 1805.5 1538.47 Q1807.56 1539.58 1808.91 1541.9 M1794.39 1550.95 Q1794.39 1555.65 1796.31 1558.33 Q1798.26 1560.99 1801.64 1560.99 Q1805.02 1560.99 1806.96 1558.33 Q1808.91 1555.65 1808.91 1550.95 Q1808.91 1546.25 1806.96 1543.59 Q1805.02 1540.9 1801.64 1540.9 Q1798.26 1540.9 1796.31 1543.59 Q1794.39 1546.25 1794.39 1550.95 Z" fill="#000000" fill-rule="nonzero" fill-opacity="1" /><path clip-path="url(#clip340)" d="M1821.94 1537.96 L1826.2 1537.96 L1826.2 1563.89 L1821.94 1563.89 L1821.94 1537.96 M1821.94 1527.87 L1826.2 1527.87 L1826.2 1533.26 L1821.94 1533.26 L1821.94 1527.87 Z" fill="#000000" fill-rule="nonzero" fill-opacity="1" /><path clip-path="url(#clip340)" d="M1848.23 1527.87 L1848.23 1531.41 L1844.16 1531.41 Q1841.87 1531.41 1840.97 1532.34 Q1840.09 1533.26 1840.09 1535.67 L1840.09 1537.96 L1847.1 1537.96 L1847.1 1541.27 L1840.09 1541.27 L1840.09 1563.89 L1835.8 1563.89 L1835.8 1541.27 L1831.73 1541.27 L1831.73 1537.96 L1835.8 1537.96 L1835.8 1536.16 Q1835.8 1531.83 1837.82 1529.86 Q1839.83 1527.87 1844.21 1527.87 L1848.23 1527.87 Z" fill="#000000" fill-rule="nonzero" fill-opacity="1" /><path clip-path="url(#clip340)" d="M1864.92 1527.87 L1864.92 1531.41 L1860.85 1531.41 Q1858.56 1531.41 1857.66 1532.34 Q1856.78 1533.26 1856.78 1535.67 L1856.78 1537.96 L1863.79 1537.96 L1863.79 1541.27 L1856.78 1541.27 L1856.78 1563.89 L1852.49 1563.89 L1852.49 1541.27 L1848.42 1541.27 L1848.42 1537.96 L1852.49 1537.96 L1852.49 1536.16 Q1852.49 1531.83 1854.51 1529.86 Q1856.52 1527.87 1860.9 1527.87 L1864.92 1527.87 Z" fill="#000000" fill-rule="nonzero" fill-opacity="1" /><path clip-path="url(#clip340)" d="M2661.47 1527.87 L2661.47 1531.41 L2657.39 1531.41 Q2655.1 1531.41 2654.2 1532.34 Q2653.32 1533.26 2653.32 1535.67 L2653.32 1537.96 L2660.33 1537.96 L2660.33 1541.27 L2653.32 1541.27 L2653.32 1563.89 L2649.04 1563.89 L2649.04 1541.27 L2644.96 1541.27 L2644.96 1537.96 L2649.04 1537.96 L2649.04 1536.16 Q2649.04 1531.83 2651.05 1529.86 Q2653.06 1527.87 2657.44 1527.87 L2661.47 1527.87 Z" fill="#000000" fill-rule="nonzero" fill-opacity="1" /><path clip-path="url(#clip340)" d="M2675.08 1540.95 Q2671.65 1540.95 2669.66 1543.63 Q2667.67 1546.3 2667.67 1550.95 Q2667.67 1555.6 2669.64 1558.29 Q2671.63 1560.95 2675.08 1560.95 Q2678.48 1560.95 2680.47 1558.26 Q2682.46 1555.58 2682.46 1550.95 Q2682.46 1546.34 2680.47 1543.66 Q2678.48 1540.95 2675.08 1540.95 M2675.08 1537.34 Q2680.63 1537.34 2683.8 1540.95 Q2686.97 1544.56 2686.97 1550.95 Q2686.97 1557.31 2683.8 1560.95 Q2680.63 1564.56 2675.08 1564.56 Q2669.5 1564.56 2666.33 1560.95 Q2663.18 1557.31 2663.18 1550.95 Q2663.18 1544.56 2666.33 1540.95 Q2669.5 1537.34 2675.08 1537.34 Z" fill="#000000" fill-rule="nonzero" fill-opacity="1" /><path clip-path="url(#clip340)" d="M2709.06 1541.94 Q2708.34 1541.53 2707.48 1541.34 Q2706.65 1541.13 2705.63 1541.13 Q2702.02 1541.13 2700.08 1543.49 Q2698.16 1545.83 2698.16 1550.23 L2698.16 1563.89 L2693.87 1563.89 L2693.87 1537.96 L2698.16 1537.96 L2698.16 1541.99 Q2699.5 1539.63 2701.65 1538.49 Q2703.8 1537.34 2706.88 1537.34 Q2707.32 1537.34 2707.85 1537.41 Q2708.39 1537.45 2709.03 1537.57 L2709.06 1541.94 Z" fill="#000000" fill-rule="nonzero" fill-opacity="1" /><path clip-path="url(#clip340)" d="M2711.05 1537.96 L2715.31 1537.96 L2720.63 1558.19 L2725.93 1537.96 L2730.96 1537.96 L2736.28 1558.19 L2741.58 1537.96 L2745.84 1537.96 L2739.06 1563.89 L2734.03 1563.89 L2728.46 1542.64 L2722.85 1563.89 L2717.83 1563.89 L2711.05 1537.96 Z" fill="#000000" fill-rule="nonzero" fill-opacity="1" /><path clip-path="url(#clip340)" d="M2764.08 1550.86 Q2758.92 1550.86 2756.93 1552.04 Q2754.94 1553.22 2754.94 1556.06 Q2754.94 1558.33 2756.42 1559.67 Q2757.92 1560.99 2760.49 1560.99 Q2764.03 1560.99 2766.16 1558.49 Q2768.32 1555.97 2768.32 1551.8 L2768.32 1550.86 L2764.08 1550.86 M2772.58 1549.1 L2772.58 1563.89 L2768.32 1563.89 L2768.32 1559.95 Q2766.86 1562.31 2764.68 1563.45 Q2762.51 1564.56 2759.36 1564.56 Q2755.38 1564.56 2753.02 1562.34 Q2750.68 1560.09 2750.68 1556.34 Q2750.68 1551.97 2753.59 1549.74 Q2756.53 1547.52 2762.34 1547.52 L2768.32 1547.52 L2768.32 1547.11 Q2768.32 1544.17 2766.37 1542.57 Q2764.45 1540.95 2760.96 1540.95 Q2758.73 1540.95 2756.63 1541.48 Q2754.52 1542.01 2752.58 1543.08 L2752.58 1539.14 Q2754.91 1538.24 2757.11 1537.8 Q2759.31 1537.34 2761.4 1537.34 Q2767.02 1537.34 2769.8 1540.25 Q2772.58 1543.17 2772.58 1549.1 Z" fill="#000000" fill-rule="nonzero" fill-opacity="1" /><path clip-path="url(#clip340)" d="M2796.37 1541.94 Q2795.65 1541.53 2794.8 1541.34 Q2793.96 1541.13 2792.95 1541.13 Q2789.34 1541.13 2787.39 1543.49 Q2785.47 1545.83 2785.47 1550.23 L2785.47 1563.89 L2781.19 1563.89 L2781.19 1537.96 L2785.47 1537.96 L2785.47 1541.99 Q2786.81 1539.63 2788.97 1538.49 Q2791.12 1537.34 2794.2 1537.34 Q2794.64 1537.34 2795.17 1537.41 Q2795.7 1537.45 2796.35 1537.57 L2796.37 1541.94 Z" fill="#000000" fill-rule="nonzero" fill-opacity="1" /><path clip-path="url(#clip340)" d="M2817.07 1541.9 L2817.07 1527.87 L2821.33 1527.87 L2821.33 1563.89 L2817.07 1563.89 L2817.07 1560 Q2815.72 1562.31 2813.66 1563.45 Q2811.63 1564.56 2808.76 1564.56 Q2804.06 1564.56 2801.09 1560.81 Q2798.15 1557.06 2798.15 1550.95 Q2798.15 1544.84 2801.09 1541.09 Q2804.06 1537.34 2808.76 1537.34 Q2811.63 1537.34 2813.66 1538.47 Q2815.72 1539.58 2817.07 1541.9 M2802.55 1550.95 Q2802.55 1555.65 2804.47 1558.33 Q2806.42 1560.99 2809.8 1560.99 Q2813.18 1560.99 2815.12 1558.33 Q2817.07 1555.65 2817.07 1550.95 Q2817.07 1546.25 2815.12 1543.59 Q2813.18 1540.9 2809.8 1540.9 Q2806.42 1540.9 2804.47 1543.59 Q2802.55 1546.25 2802.55 1550.95 Z" fill="#000000" fill-rule="nonzero" fill-opacity="1" /><path clip-path="url(#clip340)" d="M2862.23 1541.9 L2862.23 1527.87 L2866.49 1527.87 L2866.49 1563.89 L2862.23 1563.89 L2862.23 1560 Q2860.89 1562.31 2858.83 1563.45 Q2856.79 1564.56 2853.92 1564.56 Q2849.22 1564.56 2846.26 1560.81 Q2843.32 1557.06 2843.32 1550.95 Q2843.32 1544.84 2846.26 1541.09 Q2849.22 1537.34 2853.92 1537.34 Q2856.79 1537.34 2858.83 1538.47 Q2860.89 1539.58 2862.23 1541.9 M2847.71 1550.95 Q2847.71 1555.65 2849.64 1558.33 Q2851.58 1560.99 2854.96 1560.99 Q2858.34 1560.99 2860.28 1558.33 Q2862.23 1555.65 2862.23 1550.95 Q2862.23 1546.25 2860.28 1543.59 Q2858.34 1540.9 2854.96 1540.9 Q2851.58 1540.9 2849.64 1543.59 Q2847.71 1546.25 2847.71 1550.95 Z" fill="#000000" fill-rule="nonzero" fill-opacity="1" /><path clip-path="url(#clip340)" d="M2875.26 1537.96 L2879.52 1537.96 L2879.52 1563.89 L2875.26 1563.89 L2875.26 1537.96 M2875.26 1527.87 L2879.52 1527.87 L2879.52 1533.26 L2875.26 1533.26 L2875.26 1527.87 Z" fill="#000000" fill-rule="nonzero" fill-opacity="1" /><path clip-path="url(#clip340)" d="M2901.56 1527.87 L2901.56 1531.41 L2897.48 1531.41 Q2895.19 1531.41 2894.29 1532.34 Q2893.41 1533.26 2893.41 1535.67 L2893.41 1537.96 L2900.42 1537.96 L2900.42 1541.27 L2893.41 1541.27 L2893.41 1563.89 L2889.13 1563.89 L2889.13 1541.27 L2885.05 1541.27 L2885.05 1537.96 L2889.13 1537.96 L2889.13 1536.16 Q2889.13 1531.83 2891.14 1529.86 Q2893.15 1527.87 2897.53 1527.87 L2901.56 1527.87 Z" fill="#000000" fill-rule="nonzero" fill-opacity="1" /><path clip-path="url(#clip340)" d="M2918.25 1527.87 L2918.25 1531.41 L2914.17 1531.41 Q2911.88 1531.41 2910.98 1532.34 Q2910.1 1533.26 2910.1 1535.67 L2910.1 1537.96 L2917.11 1537.96 L2917.11 1541.27 L2910.1 1541.27 L2910.1 1563.89 L2905.82 1563.89 L2905.82 1541.27 L2901.74 1541.27 L2901.74 1537.96 L2905.82 1537.96 L2905.82 1536.16 Q2905.82 1531.83 2907.83 1529.86 Q2909.84 1527.87 2914.22 1527.87 L2918.25 1527.87 Z" fill="#000000" fill-rule="nonzero" fill-opacity="1" /><polyline clip-path="url(#clip340)" style="stroke:#000000; stroke-linecap:round; stroke-linejoin:round; stroke-width:4; stroke-opacity:1; fill:none" points="364.733,1495.09 364.733,47.2441 "/>
<polyline clip-path="url(#clip340)" style="stroke:#000000; stroke-linecap:round; stroke-linejoin:round; stroke-width:4; stroke-opacity:1; fill:none" points="364.733,1379.56 383.63,1379.56 "/>
<polyline clip-path="url(#clip340)" style="stroke:#000000; stroke-linecap:round; stroke-linejoin:round; stroke-width:4; stroke-opacity:1; fill:none" points="364.733,1124.61 383.63,1124.61 "/>
<polyline clip-path="url(#clip340)" style="stroke:#000000; stroke-linecap:round; stroke-linejoin:round; stroke-width:4; stroke-opacity:1; fill:none" points="364.733,869.659 383.63,869.659 "/>
<polyline clip-path="url(#clip340)" style="stroke:#000000; stroke-linecap:round; stroke-linejoin:round; stroke-width:4; stroke-opacity:1; fill:none" points="364.733,614.706 383.63,614.706 "/>
<polyline clip-path="url(#clip340)" style="stroke:#000000; stroke-linecap:round; stroke-linejoin:round; stroke-width:4; stroke-opacity:1; fill:none" points="364.733,359.754 383.63,359.754 "/>
<polyline clip-path="url(#clip340)" style="stroke:#000000; stroke-linecap:round; stroke-linejoin:round; stroke-width:4; stroke-opacity:1; fill:none" points="364.733,104.801 383.63,104.801 "/>
<path clip-path="url(#clip340)" d="M100.137 1368.73 L118.493 1368.73 L118.493 1372.67 L104.419 1372.67 L104.419 1381.14 Q105.437 1380.79 106.456 1380.63 Q107.474 1380.44 108.493 1380.44 Q114.28 1380.44 117.66 1383.62 Q121.039 1386.79 121.039 1392.2 Q121.039 1397.78 117.567 1400.88 Q114.095 1403.96 107.775 1403.96 Q105.599 1403.96 103.331 1403.59 Q101.086 1403.22 98.6782 1402.48 L98.6782 1397.78 Q100.762 1398.92 102.984 1399.47 Q105.206 1400.03 107.683 1400.03 Q111.687 1400.03 114.025 1397.92 Q116.363 1395.82 116.363 1392.2 Q116.363 1388.59 114.025 1386.49 Q111.687 1384.38 107.683 1384.38 Q105.808 1384.38 103.933 1384.8 Q102.081 1385.21 100.137 1386.09 L100.137 1368.73 Z" fill="#000000" fill-rule="nonzero" fill-opacity="1" /><path clip-path="url(#clip340)" d="M130.252 1397.41 L135.136 1397.41 L135.136 1403.29 L130.252 1403.29 L130.252 1397.41 Z" fill="#000000" fill-rule="nonzero" fill-opacity="1" /><path clip-path="url(#clip340)" d="M155.321 1371.81 Q151.71 1371.81 149.882 1375.38 Q148.076 1378.92 148.076 1386.05 Q148.076 1393.15 149.882 1396.72 Q151.71 1400.26 155.321 1400.26 Q158.956 1400.26 160.761 1396.72 Q162.59 1393.15 162.59 1386.05 Q162.59 1378.92 160.761 1375.38 Q158.956 1371.81 155.321 1371.81 M155.321 1368.11 Q161.132 1368.11 164.187 1372.71 Q167.266 1377.3 167.266 1386.05 Q167.266 1394.77 164.187 1399.38 Q161.132 1403.96 155.321 1403.96 Q149.511 1403.96 146.433 1399.38 Q143.377 1394.77 143.377 1386.05 Q143.377 1377.3 146.433 1372.71 Q149.511 1368.11 155.321 1368.11 Z" fill="#000000" fill-rule="nonzero" fill-opacity="1" /><path clip-path="url(#clip340)" d="M185.483 1371.81 Q181.872 1371.81 180.043 1375.38 Q178.238 1378.92 178.238 1386.05 Q178.238 1393.15 180.043 1396.72 Q181.872 1400.26 185.483 1400.26 Q189.118 1400.26 190.923 1396.72 Q192.752 1393.15 192.752 1386.05 Q192.752 1378.92 190.923 1375.38 Q189.118 1371.81 185.483 1371.81 M185.483 1368.11 Q191.293 1368.11 194.349 1372.71 Q197.428 1377.3 197.428 1386.05 Q197.428 1394.77 194.349 1399.38 Q191.293 1403.96 185.483 1403.96 Q179.673 1403.96 176.594 1399.38 Q173.539 1394.77 173.539 1386.05 Q173.539 1377.3 176.594 1372.71 Q179.673 1368.11 185.483 1368.11 Z" fill="#000000" fill-rule="nonzero" fill-opacity="1" /><path clip-path="url(#clip340)" d="M233.816 1377.83 L223.238 1388.45 L233.816 1399.03 L231.062 1401.83 L220.437 1391.21 L209.812 1401.83 L207.08 1399.03 L217.636 1388.45 L207.08 1377.83 L209.812 1375.03 L220.437 1385.65 L231.062 1375.03 L233.816 1377.83 Z" fill="#000000" fill-rule="nonzero" fill-opacity="1" /><path clip-path="url(#clip340)" d="M246.177 1399.36 L253.816 1399.36 L253.816 1372.99 L245.506 1374.66 L245.506 1370.4 L253.77 1368.73 L258.446 1368.73 L258.446 1399.36 L266.085 1399.36 L266.085 1403.29 L246.177 1403.29 L246.177 1399.36 Z" fill="#000000" fill-rule="nonzero" fill-opacity="1" /><path clip-path="url(#clip340)" d="M285.529 1371.81 Q281.918 1371.81 280.089 1375.38 Q278.284 1378.92 278.284 1386.05 Q278.284 1393.15 280.089 1396.72 Q281.918 1400.26 285.529 1400.26 Q289.163 1400.26 290.969 1396.72 Q292.798 1393.15 292.798 1386.05 Q292.798 1378.92 290.969 1375.38 Q289.163 1371.81 285.529 1371.81 M285.529 1368.11 Q291.339 1368.11 294.395 1372.71 Q297.473 1377.3 297.473 1386.05 Q297.473 1394.77 294.395 1399.38 Q291.339 1403.96 285.529 1403.96 Q279.719 1403.96 276.64 1399.38 Q273.585 1394.77 273.585 1386.05 Q273.585 1377.3 276.64 1372.71 Q279.719 1368.11 285.529 1368.11 Z" fill="#000000" fill-rule="nonzero" fill-opacity="1" /><path clip-path="url(#clip340)" d="M307.103 1362.55 Q304.395 1362.55 302.834 1363.99 Q301.291 1365.44 301.291 1367.98 Q301.291 1370.52 302.834 1371.97 Q304.395 1373.42 307.103 1373.42 Q309.811 1373.42 311.372 1371.97 Q312.933 1370.5 312.933 1367.98 Q312.933 1365.44 311.372 1363.99 Q309.83 1362.55 307.103 1362.55 M303.304 1360.93 Q300.859 1360.33 299.486 1358.65 Q298.132 1356.98 298.132 1354.57 Q298.132 1351.21 300.52 1349.25 Q302.928 1347.29 307.103 1347.29 Q311.297 1347.29 313.686 1349.25 Q316.074 1351.21 316.074 1354.57 Q316.074 1356.98 314.701 1358.65 Q313.347 1360.33 310.921 1360.93 Q313.667 1361.57 315.19 1363.43 Q316.733 1365.29 316.733 1367.98 Q316.733 1372.06 314.231 1374.25 Q311.749 1376.43 307.103 1376.43 Q302.457 1376.43 299.956 1374.25 Q297.473 1372.06 297.473 1367.98 Q297.473 1365.29 299.016 1363.43 Q300.558 1361.57 303.304 1360.93 M301.912 1354.93 Q301.912 1357.11 303.266 1358.33 Q304.639 1359.56 307.103 1359.56 Q309.548 1359.56 310.921 1358.33 Q312.313 1357.11 312.313 1354.93 Q312.313 1352.75 310.921 1351.53 Q309.548 1350.3 307.103 1350.3 Q304.639 1350.3 303.266 1351.53 Q301.912 1352.75 301.912 1354.93 Z" fill="#000000" fill-rule="nonzero" fill-opacity="1" /><path clip-path="url(#clip340)" d="M100.788 1144.4 L108.426 1144.4 L108.426 1118.04 L100.116 1119.71 L100.116 1115.45 L108.38 1113.78 L113.056 1113.78 L113.056 1144.4 L120.695 1144.4 L120.695 1148.34 L100.788 1148.34 L100.788 1144.4 Z" fill="#000000" fill-rule="nonzero" fill-opacity="1" /><path clip-path="url(#clip340)" d="M130.139 1142.46 L135.023 1142.46 L135.023 1148.34 L130.139 1148.34 L130.139 1142.46 Z" fill="#000000" fill-rule="nonzero" fill-opacity="1" /><path clip-path="url(#clip340)" d="M155.209 1116.86 Q151.597 1116.86 149.769 1120.42 Q147.963 1123.96 147.963 1131.09 Q147.963 1138.2 149.769 1141.77 Q151.597 1145.31 155.209 1145.31 Q158.843 1145.31 160.648 1141.77 Q162.477 1138.2 162.477 1131.09 Q162.477 1123.96 160.648 1120.42 Q158.843 1116.86 155.209 1116.86 M155.209 1113.15 Q161.019 1113.15 164.074 1117.76 Q167.153 1122.34 167.153 1131.09 Q167.153 1139.82 164.074 1144.43 Q161.019 1149.01 155.209 1149.01 Q149.398 1149.01 146.32 1144.43 Q143.264 1139.82 143.264 1131.09 Q143.264 1122.34 146.32 1117.76 Q149.398 1113.15 155.209 1113.15 Z" fill="#000000" fill-rule="nonzero" fill-opacity="1" /><path clip-path="url(#clip340)" d="M185.37 1116.86 Q181.759 1116.86 179.931 1120.42 Q178.125 1123.96 178.125 1131.09 Q178.125 1138.2 179.931 1141.77 Q181.759 1145.31 185.37 1145.31 Q189.005 1145.31 190.81 1141.77 Q192.639 1138.2 192.639 1131.09 Q192.639 1123.96 190.81 1120.42 Q189.005 1116.86 185.37 1116.86 M185.37 1113.15 Q191.181 1113.15 194.236 1117.76 Q197.315 1122.34 197.315 1131.09 Q197.315 1139.82 194.236 1144.43 Q191.181 1149.01 185.37 1149.01 Q179.56 1149.01 176.482 1144.43 Q173.426 1139.82 173.426 1131.09 Q173.426 1122.34 176.482 1117.76 Q179.56 1113.15 185.37 1113.15 Z" fill="#000000" fill-rule="nonzero" fill-opacity="1" /><path clip-path="url(#clip340)" d="M233.704 1122.88 L223.125 1133.5 L233.704 1144.08 L230.949 1146.88 L220.324 1136.26 L209.699 1146.88 L206.968 1144.08 L217.523 1133.5 L206.968 1122.88 L209.699 1120.08 L220.324 1130.7 L230.949 1120.08 L233.704 1122.88 Z" fill="#000000" fill-rule="nonzero" fill-opacity="1" /><path clip-path="url(#clip340)" d="M246.065 1144.4 L253.703 1144.4 L253.703 1118.04 L245.393 1119.71 L245.393 1115.45 L253.657 1113.78 L258.333 1113.78 L258.333 1144.4 L265.972 1144.4 L265.972 1148.34 L246.065 1148.34 L246.065 1144.4 Z" fill="#000000" fill-rule="nonzero" fill-opacity="1" /><path clip-path="url(#clip340)" d="M285.416 1116.86 Q281.805 1116.86 279.976 1120.42 Q278.171 1123.96 278.171 1131.09 Q278.171 1138.2 279.976 1141.77 Q281.805 1145.31 285.416 1145.31 Q289.05 1145.31 290.856 1141.77 Q292.685 1138.2 292.685 1131.09 Q292.685 1123.96 290.856 1120.42 Q289.05 1116.86 285.416 1116.86 M285.416 1113.15 Q291.226 1113.15 294.282 1117.76 Q297.361 1122.34 297.361 1131.09 Q297.361 1139.82 294.282 1144.43 Q291.226 1149.01 285.416 1149.01 Q279.606 1149.01 276.527 1144.43 Q273.472 1139.82 273.472 1131.09 Q273.472 1122.34 276.527 1117.76 Q279.606 1113.15 285.416 1113.15 Z" fill="#000000" fill-rule="nonzero" fill-opacity="1" /><path clip-path="url(#clip340)" d="M299.166 1120.35 L299.166 1116.89 Q300.596 1117.56 302.063 1117.92 Q303.53 1118.28 304.94 1118.28 Q308.702 1118.28 310.676 1115.76 Q312.67 1113.22 312.952 1108.06 Q311.861 1109.68 310.187 1110.55 Q308.514 1111.41 306.482 1111.41 Q302.269 1111.41 299.806 1108.87 Q297.361 1106.32 297.361 1101.9 Q297.361 1097.57 299.918 1094.96 Q302.476 1092.34 306.727 1092.34 Q311.598 1092.34 314.156 1096.08 Q316.733 1099.81 316.733 1106.92 Q316.733 1113.56 313.573 1117.52 Q310.432 1121.47 305.109 1121.47 Q303.68 1121.47 302.213 1121.19 Q300.746 1120.91 299.166 1120.35 M306.727 1108.44 Q309.285 1108.44 310.771 1106.69 Q312.275 1104.94 312.275 1101.9 Q312.275 1098.87 310.771 1097.12 Q309.285 1095.35 306.727 1095.35 Q304.169 1095.35 302.664 1097.12 Q301.179 1098.87 301.179 1101.9 Q301.179 1104.94 302.664 1106.69 Q304.169 1108.44 306.727 1108.44 Z" fill="#000000" fill-rule="nonzero" fill-opacity="1" /><path clip-path="url(#clip340)" d="M100.788 889.452 L108.426 889.452 L108.426 863.086 L100.116 864.753 L100.116 860.493 L108.38 858.827 L113.056 858.827 L113.056 889.452 L120.695 889.452 L120.695 893.387 L100.788 893.387 L100.788 889.452 Z" fill="#000000" fill-rule="nonzero" fill-opacity="1" /><path clip-path="url(#clip340)" d="M130.139 887.507 L135.023 887.507 L135.023 893.387 L130.139 893.387 L130.139 887.507 Z" fill="#000000" fill-rule="nonzero" fill-opacity="1" /><path clip-path="url(#clip340)" d="M145.255 858.827 L163.611 858.827 L163.611 862.762 L149.537 862.762 L149.537 871.234 Q150.556 870.887 151.574 870.725 Q152.593 870.54 153.611 870.54 Q159.398 870.54 162.778 873.711 Q166.158 876.882 166.158 882.299 Q166.158 887.877 162.685 890.979 Q159.213 894.058 152.894 894.058 Q150.718 894.058 148.449 893.688 Q146.204 893.317 143.797 892.576 L143.797 887.877 Q145.88 889.012 148.102 889.567 Q150.324 890.123 152.801 890.123 Q156.806 890.123 159.144 888.016 Q161.482 885.91 161.482 882.299 Q161.482 878.688 159.144 876.581 Q156.806 874.475 152.801 874.475 Q150.926 874.475 149.051 874.891 Q147.199 875.308 145.255 876.188 L145.255 858.827 Z" fill="#000000" fill-rule="nonzero" fill-opacity="1" /><path clip-path="url(#clip340)" d="M185.37 861.905 Q181.759 861.905 179.931 865.47 Q178.125 869.012 178.125 876.141 Q178.125 883.248 179.931 886.813 Q181.759 890.354 185.37 890.354 Q189.005 890.354 190.81 886.813 Q192.639 883.248 192.639 876.141 Q192.639 869.012 190.81 865.47 Q189.005 861.905 185.37 861.905 M185.37 858.202 Q191.181 858.202 194.236 862.808 Q197.315 867.391 197.315 876.141 Q197.315 884.868 194.236 889.475 Q191.181 894.058 185.37 894.058 Q179.56 894.058 176.482 889.475 Q173.426 884.868 173.426 876.141 Q173.426 867.391 176.482 862.808 Q179.56 858.202 185.37 858.202 Z" fill="#000000" fill-rule="nonzero" fill-opacity="1" /><path clip-path="url(#clip340)" d="M233.704 867.924 L223.125 878.549 L233.704 889.127 L230.949 891.928 L220.324 881.303 L209.699 891.928 L206.968 889.127 L217.523 878.549 L206.968 867.924 L209.699 865.123 L220.324 875.748 L230.949 865.123 L233.704 867.924 Z" fill="#000000" fill-rule="nonzero" fill-opacity="1" /><path clip-path="url(#clip340)" d="M246.065 889.452 L253.703 889.452 L253.703 863.086 L245.393 864.753 L245.393 860.493 L253.657 858.827 L258.333 858.827 L258.333 889.452 L265.972 889.452 L265.972 893.387 L246.065 893.387 L246.065 889.452 Z" fill="#000000" fill-rule="nonzero" fill-opacity="1" /><path clip-path="url(#clip340)" d="M285.416 861.905 Q281.805 861.905 279.976 865.47 Q278.171 869.012 278.171 876.141 Q278.171 883.248 279.976 886.813 Q281.805 890.354 285.416 890.354 Q289.05 890.354 290.856 886.813 Q292.685 883.248 292.685 876.141 Q292.685 869.012 290.856 865.47 Q289.05 861.905 285.416 861.905 M285.416 858.202 Q291.226 858.202 294.282 862.808 Q297.361 867.391 297.361 876.141 Q297.361 884.868 294.282 889.475 Q291.226 894.058 285.416 894.058 Q279.606 894.058 276.527 889.475 Q273.472 884.868 273.472 876.141 Q273.472 867.391 276.527 862.808 Q279.606 858.202 285.416 858.202 Z" fill="#000000" fill-rule="nonzero" fill-opacity="1" /><path clip-path="url(#clip340)" d="M299.166 865.393 L299.166 861.933 Q300.596 862.61 302.063 862.967 Q303.53 863.324 304.94 863.324 Q308.702 863.324 310.676 860.804 Q312.67 858.265 312.952 853.112 Q311.861 854.729 310.187 855.594 Q308.514 856.46 306.482 856.46 Q302.269 856.46 299.806 853.92 Q297.361 851.363 297.361 846.943 Q297.361 842.617 299.918 840.003 Q302.476 837.388 306.727 837.388 Q311.598 837.388 314.156 841.131 Q316.733 844.855 316.733 851.964 Q316.733 858.604 313.573 862.572 Q310.432 866.522 305.109 866.522 Q303.68 866.522 302.213 866.24 Q300.746 865.957 299.166 865.393 M306.727 853.488 Q309.285 853.488 310.771 851.739 Q312.275 849.99 312.275 846.943 Q312.275 843.915 310.771 842.166 Q309.285 840.398 306.727 840.398 Q304.169 840.398 302.664 842.166 Q301.179 843.915 301.179 846.943 Q301.179 849.99 302.664 851.739 Q304.169 853.488 306.727 853.488 Z" fill="#000000" fill-rule="nonzero" fill-opacity="1" /><path clip-path="url(#clip340)" d="M104.005 634.499 L120.324 634.499 L120.324 638.434 L98.3802 638.434 L98.3802 634.499 Q101.042 631.744 105.625 627.115 Q110.232 622.462 111.412 621.119 Q113.658 618.596 114.537 616.86 Q115.44 615.101 115.44 613.411 Q115.44 610.656 113.496 608.92 Q111.575 607.184 108.473 607.184 Q106.274 607.184 103.82 607.948 Q101.389 608.712 98.6116 610.263 L98.6116 605.541 Q101.436 604.406 103.889 603.828 Q106.343 603.249 108.38 603.249 Q113.75 603.249 116.945 605.934 Q120.139 608.619 120.139 613.11 Q120.139 615.24 119.329 617.161 Q118.542 619.059 116.436 621.652 Q115.857 622.323 112.755 625.541 Q109.653 628.735 104.005 634.499 Z" fill="#000000" fill-rule="nonzero" fill-opacity="1" /><path clip-path="url(#clip340)" d="M130.139 632.554 L135.023 632.554 L135.023 638.434 L130.139 638.434 L130.139 632.554 Z" fill="#000000" fill-rule="nonzero" fill-opacity="1" /><path clip-path="url(#clip340)" d="M155.209 606.953 Q151.597 606.953 149.769 610.518 Q147.963 614.059 147.963 621.189 Q147.963 628.295 149.769 631.86 Q151.597 635.402 155.209 635.402 Q158.843 635.402 160.648 631.86 Q162.477 628.295 162.477 621.189 Q162.477 614.059 160.648 610.518 Q158.843 606.953 155.209 606.953 M155.209 603.249 Q161.019 603.249 164.074 607.856 Q167.153 612.439 167.153 621.189 Q167.153 629.916 164.074 634.522 Q161.019 639.105 155.209 639.105 Q149.398 639.105 146.32 634.522 Q143.264 629.916 143.264 621.189 Q143.264 612.439 146.32 607.856 Q149.398 603.249 155.209 603.249 Z" fill="#000000" fill-rule="nonzero" fill-opacity="1" /><path clip-path="url(#clip340)" d="M185.37 606.953 Q181.759 606.953 179.931 610.518 Q178.125 614.059 178.125 621.189 Q178.125 628.295 179.931 631.86 Q181.759 635.402 185.37 635.402 Q189.005 635.402 190.81 631.86 Q192.639 628.295 192.639 621.189 Q192.639 614.059 190.81 610.518 Q189.005 606.953 185.37 606.953 M185.37 603.249 Q191.181 603.249 194.236 607.856 Q197.315 612.439 197.315 621.189 Q197.315 629.916 194.236 634.522 Q191.181 639.105 185.37 639.105 Q179.56 639.105 176.482 634.522 Q173.426 629.916 173.426 621.189 Q173.426 612.439 176.482 607.856 Q179.56 603.249 185.37 603.249 Z" fill="#000000" fill-rule="nonzero" fill-opacity="1" /><path clip-path="url(#clip340)" d="M233.704 612.971 L223.125 623.596 L233.704 634.175 L230.949 636.976 L220.324 626.351 L209.699 636.976 L206.968 634.175 L217.523 623.596 L206.968 612.971 L209.699 610.17 L220.324 620.795 L230.949 610.17 L233.704 612.971 Z" fill="#000000" fill-rule="nonzero" fill-opacity="1" /><path clip-path="url(#clip340)" d="M246.065 634.499 L253.703 634.499 L253.703 608.133 L245.393 609.8 L245.393 605.541 L253.657 603.874 L258.333 603.874 L258.333 634.499 L265.972 634.499 L265.972 638.434 L246.065 638.434 L246.065 634.499 Z" fill="#000000" fill-rule="nonzero" fill-opacity="1" /><path clip-path="url(#clip340)" d="M285.416 606.953 Q281.805 606.953 279.976 610.518 Q278.171 614.059 278.171 621.189 Q278.171 628.295 279.976 631.86 Q281.805 635.402 285.416 635.402 Q289.05 635.402 290.856 631.86 Q292.685 628.295 292.685 621.189 Q292.685 614.059 290.856 610.518 Q289.05 606.953 285.416 606.953 M285.416 603.249 Q291.226 603.249 294.282 607.856 Q297.361 612.439 297.361 621.189 Q297.361 629.916 294.282 634.522 Q291.226 639.105 285.416 639.105 Q279.606 639.105 276.527 634.522 Q273.472 629.916 273.472 621.189 Q273.472 612.439 276.527 607.856 Q279.606 603.249 285.416 603.249 Z" fill="#000000" fill-rule="nonzero" fill-opacity="1" /><path clip-path="url(#clip340)" d="M299.166 610.441 L299.166 606.98 Q300.596 607.657 302.063 608.014 Q303.53 608.372 304.94 608.372 Q308.702 608.372 310.676 605.852 Q312.67 603.313 312.952 598.159 Q311.861 599.777 310.187 600.642 Q308.514 601.507 306.482 601.507 Q302.269 601.507 299.806 598.968 Q297.361 596.41 297.361 591.99 Q297.361 587.664 299.918 585.05 Q302.476 582.436 306.727 582.436 Q311.598 582.436 314.156 586.179 Q316.733 589.903 316.733 597.012 Q316.733 603.651 313.573 607.619 Q310.432 611.569 305.109 611.569 Q303.68 611.569 302.213 611.287 Q300.746 611.005 299.166 610.441 M306.727 598.535 Q309.285 598.535 310.771 596.786 Q312.275 595.037 312.275 591.99 Q312.275 588.962 310.771 587.213 Q309.285 585.445 306.727 585.445 Q304.169 585.445 302.664 587.213 Q301.179 588.962 301.179 591.99 Q301.179 595.037 302.664 596.786 Q304.169 598.535 306.727 598.535 Z" fill="#000000" fill-rule="nonzero" fill-opacity="1" /><path clip-path="url(#clip340)" d="M104.005 379.546 L120.324 379.546 L120.324 383.482 L98.3802 383.482 L98.3802 379.546 Q101.042 376.792 105.625 372.162 Q110.232 367.509 111.412 366.167 Q113.658 363.644 114.537 361.908 Q115.44 360.148 115.44 358.459 Q115.44 355.704 113.496 353.968 Q111.575 352.232 108.473 352.232 Q106.274 352.232 103.82 352.996 Q101.389 353.759 98.6116 355.31 L98.6116 350.588 Q101.436 349.454 103.889 348.875 Q106.343 348.297 108.38 348.297 Q113.75 348.297 116.945 350.982 Q120.139 353.667 120.139 358.158 Q120.139 360.287 119.329 362.208 Q118.542 364.107 116.436 366.699 Q115.857 367.37 112.755 370.588 Q109.653 373.782 104.005 379.546 Z" fill="#000000" fill-rule="nonzero" fill-opacity="1" /><path clip-path="url(#clip340)" d="M130.139 377.602 L135.023 377.602 L135.023 383.482 L130.139 383.482 L130.139 377.602 Z" fill="#000000" fill-rule="nonzero" fill-opacity="1" /><path clip-path="url(#clip340)" d="M145.255 348.922 L163.611 348.922 L163.611 352.857 L149.537 352.857 L149.537 361.329 Q150.556 360.982 151.574 360.82 Q152.593 360.634 153.611 360.634 Q159.398 360.634 162.778 363.806 Q166.158 366.977 166.158 372.394 Q166.158 377.972 162.685 381.074 Q159.213 384.153 152.894 384.153 Q150.718 384.153 148.449 383.782 Q146.204 383.412 143.797 382.671 L143.797 377.972 Q145.88 379.107 148.102 379.662 Q150.324 380.218 152.801 380.218 Q156.806 380.218 159.144 378.111 Q161.482 376.005 161.482 372.394 Q161.482 368.783 159.144 366.676 Q156.806 364.57 152.801 364.57 Q150.926 364.57 149.051 364.986 Q147.199 365.403 145.255 366.283 L145.255 348.922 Z" fill="#000000" fill-rule="nonzero" fill-opacity="1" /><path clip-path="url(#clip340)" d="M185.37 352 Q181.759 352 179.931 355.565 Q178.125 359.107 178.125 366.236 Q178.125 373.343 179.931 376.907 Q181.759 380.449 185.37 380.449 Q189.005 380.449 190.81 376.907 Q192.639 373.343 192.639 366.236 Q192.639 359.107 190.81 355.565 Q189.005 352 185.37 352 M185.37 348.297 Q191.181 348.297 194.236 352.903 Q197.315 357.486 197.315 366.236 Q197.315 374.963 194.236 379.57 Q191.181 384.153 185.37 384.153 Q179.56 384.153 176.482 379.57 Q173.426 374.963 173.426 366.236 Q173.426 357.486 176.482 352.903 Q179.56 348.297 185.37 348.297 Z" fill="#000000" fill-rule="nonzero" fill-opacity="1" /><path clip-path="url(#clip340)" d="M233.704 358.019 L223.125 368.644 L233.704 379.222 L230.949 382.023 L220.324 371.398 L209.699 382.023 L206.968 379.222 L217.523 368.644 L206.968 358.019 L209.699 355.218 L220.324 365.843 L230.949 355.218 L233.704 358.019 Z" fill="#000000" fill-rule="nonzero" fill-opacity="1" /><path clip-path="url(#clip340)" d="M246.065 379.546 L253.703 379.546 L253.703 353.181 L245.393 354.847 L245.393 350.588 L253.657 348.922 L258.333 348.922 L258.333 379.546 L265.972 379.546 L265.972 383.482 L246.065 383.482 L246.065 379.546 Z" fill="#000000" fill-rule="nonzero" fill-opacity="1" /><path clip-path="url(#clip340)" d="M285.416 352 Q281.805 352 279.976 355.565 Q278.171 359.107 278.171 366.236 Q278.171 373.343 279.976 376.907 Q281.805 380.449 285.416 380.449 Q289.05 380.449 290.856 376.907 Q292.685 373.343 292.685 366.236 Q292.685 359.107 290.856 355.565 Q289.05 352 285.416 352 M285.416 348.297 Q291.226 348.297 294.282 352.903 Q297.361 357.486 297.361 366.236 Q297.361 374.963 294.282 379.57 Q291.226 384.153 285.416 384.153 Q279.606 384.153 276.527 379.57 Q273.472 374.963 273.472 366.236 Q273.472 357.486 276.527 352.903 Q279.606 348.297 285.416 348.297 Z" fill="#000000" fill-rule="nonzero" fill-opacity="1" /><path clip-path="url(#clip340)" d="M299.166 355.488 L299.166 352.027 Q300.596 352.705 302.063 353.062 Q303.53 353.419 304.94 353.419 Q308.702 353.419 310.676 350.899 Q312.67 348.36 312.952 343.207 Q311.861 344.824 310.187 345.689 Q308.514 346.554 306.482 346.554 Q302.269 346.554 299.806 344.015 Q297.361 341.457 297.361 337.038 Q297.361 332.712 299.918 330.098 Q302.476 327.483 306.727 327.483 Q311.598 327.483 314.156 331.226 Q316.733 334.95 316.733 342.059 Q316.733 348.698 313.573 352.667 Q310.432 356.617 305.109 356.617 Q303.68 356.617 302.213 356.334 Q300.746 356.052 299.166 355.488 M306.727 343.583 Q309.285 343.583 310.771 341.834 Q312.275 340.085 312.275 337.038 Q312.275 334.01 310.771 332.26 Q309.285 330.493 306.727 330.493 Q304.169 330.493 302.664 332.26 Q301.179 334.01 301.179 337.038 Q301.179 340.085 302.664 341.834 Q304.169 343.583 306.727 343.583 Z" fill="#000000" fill-rule="nonzero" fill-opacity="1" /><path clip-path="url(#clip340)" d="M114.144 109.895 Q117.5 110.612 119.375 112.881 Q121.274 115.149 121.274 118.483 Q121.274 123.598 117.755 126.399 Q114.237 129.2 107.755 129.2 Q105.579 129.2 103.264 128.76 Q100.973 128.344 98.519 127.487 L98.519 122.973 Q100.463 124.108 102.778 124.686 Q105.093 125.265 107.616 125.265 Q112.014 125.265 114.306 123.529 Q116.621 121.793 116.621 118.483 Q116.621 115.427 114.468 113.714 Q112.338 111.978 108.519 111.978 L104.491 111.978 L104.491 108.136 L108.704 108.136 Q112.153 108.136 113.982 106.77 Q115.811 105.381 115.811 102.788 Q115.811 100.126 113.912 98.7143 Q112.037 97.2791 108.519 97.2791 Q106.598 97.2791 104.399 97.6958 Q102.2 98.1124 99.5607 98.9921 L99.5607 94.8254 Q102.223 94.0847 104.538 93.7143 Q106.875 93.3439 108.936 93.3439 Q114.26 93.3439 117.362 95.7745 Q120.463 98.1819 120.463 102.302 Q120.463 105.173 118.82 107.163 Q117.176 109.131 114.144 109.895 Z" fill="#000000" fill-rule="nonzero" fill-opacity="1" /><path clip-path="url(#clip340)" d="M130.139 122.649 L135.023 122.649 L135.023 128.529 L130.139 128.529 L130.139 122.649 Z" fill="#000000" fill-rule="nonzero" fill-opacity="1" /><path clip-path="url(#clip340)" d="M155.209 97.0476 Q151.597 97.0476 149.769 100.612 Q147.963 104.154 147.963 111.284 Q147.963 118.39 149.769 121.955 Q151.597 125.497 155.209 125.497 Q158.843 125.497 160.648 121.955 Q162.477 118.39 162.477 111.284 Q162.477 104.154 160.648 100.612 Q158.843 97.0476 155.209 97.0476 M155.209 93.3439 Q161.019 93.3439 164.074 97.9504 Q167.153 102.534 167.153 111.284 Q167.153 120.01 164.074 124.617 Q161.019 129.2 155.209 129.2 Q149.398 129.2 146.32 124.617 Q143.264 120.01 143.264 111.284 Q143.264 102.534 146.32 97.9504 Q149.398 93.3439 155.209 93.3439 Z" fill="#000000" fill-rule="nonzero" fill-opacity="1" /><path clip-path="url(#clip340)" d="M185.37 97.0476 Q181.759 97.0476 179.931 100.612 Q178.125 104.154 178.125 111.284 Q178.125 118.39 179.931 121.955 Q181.759 125.497 185.37 125.497 Q189.005 125.497 190.81 121.955 Q192.639 118.39 192.639 111.284 Q192.639 104.154 190.81 100.612 Q189.005 97.0476 185.37 97.0476 M185.37 93.3439 Q191.181 93.3439 194.236 97.9504 Q197.315 102.534 197.315 111.284 Q197.315 120.01 194.236 124.617 Q191.181 129.2 185.37 129.2 Q179.56 129.2 176.482 124.617 Q173.426 120.01 173.426 111.284 Q173.426 102.534 176.482 97.9504 Q179.56 93.3439 185.37 93.3439 Z" fill="#000000" fill-rule="nonzero" fill-opacity="1" /><path clip-path="url(#clip340)" d="M233.704 103.066 L223.125 113.691 L233.704 124.27 L230.949 127.071 L220.324 116.446 L209.699 127.071 L206.968 124.27 L217.523 113.691 L206.968 103.066 L209.699 100.265 L220.324 110.89 L230.949 100.265 L233.704 103.066 Z" fill="#000000" fill-rule="nonzero" fill-opacity="1" /><path clip-path="url(#clip340)" d="M246.065 124.594 L253.703 124.594 L253.703 98.2282 L245.393 99.8948 L245.393 95.6356 L253.657 93.9689 L258.333 93.9689 L258.333 124.594 L265.972 124.594 L265.972 128.529 L246.065 128.529 L246.065 124.594 Z" fill="#000000" fill-rule="nonzero" fill-opacity="1" /><path clip-path="url(#clip340)" d="M285.416 97.0476 Q281.805 97.0476 279.976 100.612 Q278.171 104.154 278.171 111.284 Q278.171 118.39 279.976 121.955 Q281.805 125.497 285.416 125.497 Q289.05 125.497 290.856 121.955 Q292.685 118.39 292.685 111.284 Q292.685 104.154 290.856 100.612 Q289.05 97.0476 285.416 97.0476 M285.416 93.3439 Q291.226 93.3439 294.282 97.9504 Q297.361 102.534 297.361 111.284 Q297.361 120.01 294.282 124.617 Q291.226 129.2 285.416 129.2 Q279.606 129.2 276.527 124.617 Q273.472 120.01 273.472 111.284 Q273.472 102.534 276.527 97.9504 Q279.606 93.3439 285.416 93.3439 Z" fill="#000000" fill-rule="nonzero" fill-opacity="1" /><path clip-path="url(#clip340)" d="M299.166 100.535 L299.166 97.0749 Q300.596 97.7519 302.063 98.1093 Q303.53 98.4666 304.94 98.4666 Q308.702 98.4666 310.676 95.9464 Q312.67 93.4074 312.952 88.254 Q311.861 89.8715 310.187 90.7367 Q308.514 91.6018 306.482 91.6018 Q302.269 91.6018 299.806 89.0628 Q297.361 86.5049 297.361 82.0851 Q297.361 77.7593 299.918 75.145 Q302.476 72.5307 306.727 72.5307 Q311.598 72.5307 314.156 76.2735 Q316.733 79.9974 316.733 87.1068 Q316.733 93.7459 313.573 97.7143 Q310.432 101.664 305.109 101.664 Q303.68 101.664 302.213 101.382 Q300.746 101.1 299.166 100.535 M306.727 88.6302 Q309.285 88.6302 310.771 86.8811 Q312.275 85.1319 312.275 82.0851 Q312.275 79.057 310.771 77.3079 Q309.285 75.54 306.727 75.54 Q304.169 75.54 302.664 77.3079 Q301.179 79.057 301.179 82.0851 Q301.179 85.1319 302.664 86.8811 Q304.169 88.6302 306.727 88.6302 Z" fill="#000000" fill-rule="nonzero" fill-opacity="1" /><path clip-path="url(#clip340)" d="M-9.64527 840.632 L0.4762 840.632 L0.4762 828.569 L5.02768 828.569 L5.02768 840.632 L24.3794 840.632 Q28.7399 840.632 29.9813 839.454 Q31.2226 838.245 31.2226 834.584 L31.2226 828.569 L36.1242 828.569 L36.1242 834.584 Q36.1242 841.364 33.6097 843.942 Q31.0634 846.52 24.3794 846.52 L5.02768 846.52 L5.02768 850.817 L0.4762 850.817 L0.4762 846.52 L-9.64527 846.52 L-9.64527 840.632 Z" fill="#000000" fill-rule="nonzero" fill-opacity="1" /><path clip-path="url(#clip340)" d="M-11.3958 789.738 L-11.3958 784.327 L42.1716 800.878 L42.1716 806.289 L-11.3958 789.738 Z" fill="#000000" fill-rule="nonzero" fill-opacity="1" /><path clip-path="url(#clip340)" d="M14.6081 727.831 L36.1242 727.831 L36.1242 733.688 L14.799 733.688 Q9.7383 733.688 7.22385 735.661 Q4.7094 737.635 4.7094 741.581 Q4.7094 746.324 7.73311 749.061 Q10.7568 751.798 15.9767 751.798 L36.1242 751.798 L36.1242 757.687 L0.4762 757.687 L0.4762 751.798 L6.01437 751.798 Q2.79968 749.698 1.20826 746.865 Q-0.38317 744 -0.38317 740.276 Q-0.38317 734.133 3.43625 730.982 Q7.22385 727.831 14.6081 727.831 Z" fill="#000000" fill-rule="nonzero" fill-opacity="1" /><path clip-path="url(#clip340)" d="M1.52654 693.425 L7.06471 693.425 Q5.79157 695.907 5.15499 698.581 Q4.51842 701.255 4.51842 704.119 Q4.51842 708.48 5.85522 710.676 Q7.19202 712.84 9.86562 712.84 Q11.9026 712.84 13.0803 711.281 Q14.2261 709.721 15.2765 705.01 L15.7221 703.005 Q17.0589 696.767 19.5097 694.157 Q21.9286 691.515 26.2891 691.515 Q31.2544 691.515 34.1508 695.462 Q37.0472 699.377 37.0472 706.252 Q37.0472 709.116 36.4743 712.235 Q35.9332 715.323 34.8192 718.76 L28.7718 718.76 Q30.4587 715.514 31.318 712.363 Q32.1456 709.212 32.1456 706.124 Q32.1456 701.987 30.7451 699.759 Q29.3129 697.531 26.7347 697.531 Q24.3476 697.531 23.0745 699.154 Q21.8013 700.745 20.6237 706.188 L20.1462 708.225 Q19.0004 713.668 16.6451 716.087 Q14.258 718.506 10.1202 718.506 Q5.09134 718.506 2.35408 714.941 Q-0.38317 711.376 -0.38317 704.819 Q-0.38317 701.573 0.0942579 698.708 Q0.571686 695.844 1.52654 693.425 Z" fill="#000000" fill-rule="nonzero" fill-opacity="1" /><path clip-path="url(#clip341)" d="M870.059 1454.11 L869.38 1454.08 L867.582 1454.05 L864.723 1454.01 L860.89 1453.98 L856.195 1453.95 L850.777 1453.91 L844.791 1453.88 L838.407 1453.85 L831.805 1453.81 L825.168 1453.78 L818.68 1453.75 L812.523 1453.71 L806.868 1453.68 L801.879 1453.65 L797.706 1453.62 L794.485 1453.58 L792.338 1453.55 L791.367 1453.52 L791.661 1453.48 L793.287 1453.45 L796.293 1453.42 L800.708 1453.38 L806.537 1453.35 L813.762 1453.32 L822.339 1453.29 L832.198 1453.25 L843.241 1453.22 L855.342 1453.19 L868.347 1453.15 L882.077 1453.12 L896.328 1453.09 L910.875 1453.05 L925.481 1453.02 L939.897 1452.99 L953.875 1452.96 L967.171 1452.92 L979.555 1452.89 L990.82 1452.86 L1000.79 1452.82 L1009.31 1452.79 L1016.29 1452.76 L1021.66 1452.72 L1025.4 1452.69 L1027.53 1452.66 L1028.13 1452.62 L1027.28 1452.59 L1025.12 1452.56 L1021.78 1452.53 L1017.43 1452.49 L1012.22 1452.46 L1006.31 1452.43 L999.847 1452.39 L992.946 1452.36 L985.717 1452.33 L978.239 1452.29 L970.568 1452.26 L962.737 1452.23 L954.759 1452.2 L946.633 1452.16 L938.347 1452.13 L929.881 1452.1 L921.221 1452.06 L912.353 1452.03 L903.275 1452 L893.997 1451.96 L884.543 1451.93 L874.951 1451.9 L865.273 1451.87 L855.574 1451.83 L845.928 1451.8 L836.415 1451.77 L827.118 1451.73 L818.12 1451.7 L809.498 1451.67 L801.325 1451.63 L793.663 1451.6 L786.564 1451.57 L780.071 1451.53 L774.213 1451.5 L769.009 1451.47 L764.471 1451.44 L760.601 1451.4 L757.398 1451.37 L754.855 1451.34 L752.963 1451.3 L751.716 1451.27 L751.106 1451.24 L751.13 1451.2 L751.784 1451.17 L753.069 1451.14 L754.986 1451.11 L757.537 1451.07 L760.721 1451.04 L764.536 1451.01 L768.969 1450.97 L774.003 1450.94 L779.607 1450.91 L785.736 1450.87 L792.331 1450.84 L799.318 1450.81 L806.604 1450.78 L814.08 1450.74 L821.622 1450.71 L829.096 1450.68 L836.355 1450.64 L843.25 1450.61 L849.63 1450.58 L855.348 1450.54 L860.269 1450.51 L864.273 1450.48 L867.258 1450.44 L869.149 1450.41 L869.896 1450.38 L601.873 1450.38 L602.62 1450.41 L604.511 1450.44 L607.496 1450.48 L611.5 1450.51 L616.421 1450.54 L622.139 1450.58 L628.519 1450.61 L635.414 1450.64 L642.673 1450.68 L650.147 1450.71 L657.689 1450.74 L665.165 1450.78 L672.451 1450.81 L679.438 1450.84 L686.033 1450.87 L692.163 1450.91 L697.766 1450.94 L702.8 1450.97 L707.233 1451.01 L711.048 1451.04 L714.232 1451.07 L716.783 1451.11 L718.7 1451.14 L719.985 1451.17 L720.639 1451.2 L720.663 1451.24 L720.053 1451.27 L718.806 1451.3 L716.914 1451.34 L714.371 1451.37 L711.168 1451.4 L707.298 1451.44 L702.76 1451.47 L697.557 1451.5 L691.698 1451.53 L685.205 1451.57 L678.106 1451.6 L670.444 1451.63 L662.271 1451.67 L653.649 1451.7 L644.651 1451.73 L635.354 1451.77 L625.841 1451.8 L616.195 1451.83 L606.496 1451.87 L596.818 1451.9 L587.226 1451.93 L577.772 1451.96 L568.494 1452 L559.417 1452.03 L550.549 1452.06 L541.888 1452.1 L533.423 1452.13 L525.136 1452.16 L517.01 1452.2 L509.032 1452.23 L501.201 1452.26 L493.53 1452.29 L486.052 1452.33 L478.823 1452.36 L471.922 1452.39 L465.455 1452.43 L459.545 1452.46 L454.337 1452.49 L449.985 1452.53 L446.648 1452.56 L444.485 1452.59 L443.639 1452.62 L444.236 1452.66 L446.373 1452.69 L450.113 1452.72 L455.481 1452.76 L462.458 1452.79 L470.982 1452.82 L480.949 1452.86 L492.214 1452.89 L504.598 1452.92 L517.894 1452.96 L531.872 1452.99 L546.289 1453.02 L560.894 1453.05 L575.441 1453.09 L589.692 1453.12 L603.422 1453.15 L616.427 1453.19 L628.528 1453.22 L639.571 1453.25 L649.43 1453.29 L658.007 1453.32 L665.232 1453.35 L671.061 1453.38 L675.476 1453.42 L678.482 1453.45 L680.108 1453.48 L680.402 1453.52 L679.431 1453.55 L677.284 1453.58 L674.063 1453.62 L669.89 1453.65 L664.901 1453.68 L659.246 1453.71 L653.089 1453.75 L646.601 1453.78 L639.964 1453.81 L633.362 1453.85 L626.978 1453.88 L620.992 1453.91 L615.574 1453.95 L610.88 1453.98 L607.046 1454.01 L604.187 1454.05 L602.389 1454.08 L601.71 1454.11 L870.059 1454.11  Z" fill="#009af9" fill-rule="evenodd" fill-opacity="1"/>
<polyline clip-path="url(#clip341)" style="stroke:#000000; stroke-linecap:round; stroke-linejoin:round; stroke-width:4; stroke-opacity:1; fill:none" points="870.059,1454.11 869.38,1454.08 867.582,1454.05 864.723,1454.01 860.89,1453.98 856.195,1453.95 850.777,1453.91 844.791,1453.88 838.407,1453.85 831.805,1453.81 825.168,1453.78 818.68,1453.75 812.523,1453.71 806.868,1453.68 801.879,1453.65 797.706,1453.62 794.485,1453.58 792.338,1453.55 791.367,1453.52 791.661,1453.48 793.287,1453.45 796.293,1453.42 800.708,1453.38 806.537,1453.35 813.762,1453.32 822.339,1453.29 832.198,1453.25 843.241,1453.22 855.342,1453.19 868.347,1453.15 882.077,1453.12 896.328,1453.09 910.875,1453.05 925.481,1453.02 939.897,1452.99 953.875,1452.96 967.171,1452.92 979.555,1452.89 990.82,1452.86 1000.79,1452.82 1009.31,1452.79 1016.29,1452.76 1021.66,1452.72 1025.4,1452.69 1027.53,1452.66 1028.13,1452.62 1027.28,1452.59 1025.12,1452.56 1021.78,1452.53 1017.43,1452.49 1012.22,1452.46 1006.31,1452.43 999.847,1452.39 992.946,1452.36 985.717,1452.33 978.239,1452.29 970.568,1452.26 962.737,1452.23 954.759,1452.2 946.633,1452.16 938.347,1452.13 929.881,1452.1 921.221,1452.06 912.353,1452.03 903.275,1452 893.997,1451.96 884.543,1451.93 874.951,1451.9 865.273,1451.87 855.574,1451.83 845.928,1451.8 836.415,1451.77 827.118,1451.73 818.12,1451.7 809.498,1451.67 801.325,1451.63 793.663,1451.6 786.564,1451.57 780.071,1451.53 774.213,1451.5 769.009,1451.47 764.471,1451.44 760.601,1451.4 757.398,1451.37 754.855,1451.34 752.963,1451.3 751.716,1451.27 751.106,1451.24 751.13,1451.2 751.784,1451.17 753.069,1451.14 754.986,1451.11 757.537,1451.07 760.721,1451.04 764.536,1451.01 768.969,1450.97 774.003,1450.94 779.607,1450.91 785.736,1450.87 792.331,1450.84 799.318,1450.81 806.604,1450.78 814.08,1450.74 821.622,1450.71 829.096,1450.68 836.355,1450.64 843.25,1450.61 849.63,1450.58 855.348,1450.54 860.269,1450.51 864.273,1450.48 867.258,1450.44 869.149,1450.41 869.896,1450.38 601.873,1450.38 602.62,1450.41 604.511,1450.44 607.496,1450.48 611.5,1450.51 616.421,1450.54 622.139,1450.58 628.519,1450.61 635.414,1450.64 642.673,1450.68 650.147,1450.71 657.689,1450.74 665.165,1450.78 672.451,1450.81 679.438,1450.84 686.033,1450.87 692.163,1450.91 697.766,1450.94 702.8,1450.97 707.233,1451.01 711.048,1451.04 714.232,1451.07 716.783,1451.11 718.7,1451.14 719.985,1451.17 720.639,1451.2 720.663,1451.24 720.053,1451.27 718.806,1451.3 716.914,1451.34 714.371,1451.37 711.168,1451.4 707.298,1451.44 702.76,1451.47 697.557,1451.5 691.698,1451.53 685.205,1451.57 678.106,1451.6 670.444,1451.63 662.271,1451.67 653.649,1451.7 644.651,1451.73 635.354,1451.77 625.841,1451.8 616.195,1451.83 606.496,1451.87 596.818,1451.9 587.226,1451.93 577.772,1451.96 568.494,1452 559.417,1452.03 550.549,1452.06 541.888,1452.1 533.423,1452.13 525.136,1452.16 517.01,1452.2 509.032,1452.23 501.201,1452.26 493.53,1452.29 486.052,1452.33 478.823,1452.36 471.922,1452.39 465.455,1452.43 459.545,1452.46 454.337,1452.49 449.985,1452.53 446.648,1452.56 444.485,1452.59 443.639,1452.62 444.236,1452.66 446.373,1452.69 450.113,1452.72 455.481,1452.76 462.458,1452.79 470.982,1452.82 480.949,1452.86 492.214,1452.89 504.598,1452.92 517.894,1452.96 531.872,1452.99 546.289,1453.02 560.894,1453.05 575.441,1453.09 589.692,1453.12 603.422,1453.15 616.427,1453.19 628.528,1453.22 639.571,1453.25 649.43,1453.29 658.007,1453.32 665.232,1453.35 671.061,1453.38 675.476,1453.42 678.482,1453.45 680.108,1453.48 680.402,1453.52 679.431,1453.55 677.284,1453.58 674.063,1453.62 669.89,1453.65 664.901,1453.68 659.246,1453.71 653.089,1453.75 646.601,1453.78 639.964,1453.81 633.362,1453.85 626.978,1453.88 620.992,1453.91 615.574,1453.95 610.88,1453.98 607.046,1454.01 604.187,1454.05 602.389,1454.08 601.71,1454.11 870.059,1454.11 "/>
<path clip-path="url(#clip341)" d="M2021.01 448.147 L2025.43 447.863 L2029.36 447.58 L2032.82 447.296 L2035.83 447.013 L2038.39 446.729 L2040.54 446.446 L2042.31 446.162 L2043.73 445.879 L2044.84 445.595 L2045.67 445.312 L2046.27 445.028 L2046.67 444.745 L2046.91 444.461 L2047.04 444.178 L2047.09 443.894 L2047.09 443.611 L2047.08 443.327 L2047.07 443.044 L2047.09 442.76 L2047.15 442.477 L2047.27 442.193 L2047.45 441.91 L2047.69 441.626 L2047.99 441.343 L2048.34 441.06 L2048.74 440.776 L2049.15 440.493 L2049.58 440.209 L2049.99 439.926 L2050.36 439.642 L2050.66 439.359 L2050.88 439.075 L2050.99 438.792 L2050.96 438.508 L2050.77 438.225 L2050.4 437.941 L2049.83 437.658 L2049.04 437.374 L2048.01 437.091 L2046.73 436.807 L2045.19 436.524 L2043.38 436.24 L2041.3 435.957 L2038.93 435.673 L2036.29 435.39 L2033.37 435.106 L2030.17 434.823 L2026.69 434.539 L2022.95 434.256 L2018.94 433.972 L2014.68 433.689 L2010.17 433.405 L2005.42 433.122 L2000.44 432.839 L1995.25 432.555 L1989.85 432.272 L1984.25 431.988 L1978.47 431.705 L1972.51 431.421 L1966.4 431.138 L1960.13 430.854 L1557.35 430.854 L1551.09 431.138 L1544.98 431.421 L1539.02 431.705 L1533.24 431.988 L1527.64 432.272 L1522.24 432.555 L1517.04 432.839 L1512.07 433.122 L1507.32 433.405 L1502.81 433.689 L1498.55 433.972 L1494.54 434.256 L1490.8 434.539 L1487.32 434.823 L1484.12 435.106 L1481.2 435.39 L1478.55 435.673 L1476.19 435.957 L1474.11 436.24 L1472.3 436.524 L1470.76 436.807 L1469.48 437.091 L1468.45 437.374 L1467.66 437.658 L1467.09 437.941 L1466.72 438.225 L1466.53 438.508 L1466.5 438.792 L1466.61 439.075 L1466.83 439.359 L1467.13 439.642 L1467.5 439.926 L1467.91 440.209 L1468.33 440.493 L1468.75 440.776 L1469.14 441.06 L1469.5 441.343 L1469.8 441.626 L1470.04 441.91 L1470.22 442.193 L1470.34 442.477 L1470.4 442.76 L1470.42 443.044 L1470.41 443.327 L1470.39 443.611 L1470.39 443.894 L1470.44 444.178 L1470.57 444.461 L1470.82 444.745 L1471.22 445.028 L1471.82 445.312 L1472.65 445.595 L1473.76 445.879 L1475.18 446.162 L1476.95 446.446 L1479.1 446.729 L1481.66 447.013 L1484.67 447.296 L1488.13 447.58 L1492.06 447.863 L1496.48 448.147 L2021.01 448.147  Z" fill="#e26f46" fill-rule="evenodd" fill-opacity="1"/>
<polyline clip-path="url(#clip341)" style="stroke:#000000; stroke-linecap:round; stroke-linejoin:round; stroke-width:4; stroke-opacity:1; fill:none" points="2021.01,448.147 2025.43,447.863 2029.36,447.58 2032.82,447.296 2035.83,447.013 2038.39,446.729 2040.54,446.446 2042.31,446.162 2043.73,445.879 2044.84,445.595 2045.67,445.312 2046.27,445.028 2046.67,444.745 2046.91,444.461 2047.04,444.178 2047.09,443.894 2047.09,443.611 2047.08,443.327 2047.07,443.044 2047.09,442.76 2047.15,442.477 2047.27,442.193 2047.45,441.91 2047.69,441.626 2047.99,441.343 2048.34,441.06 2048.74,440.776 2049.15,440.493 2049.58,440.209 2049.99,439.926 2050.36,439.642 2050.66,439.359 2050.88,439.075 2050.99,438.792 2050.96,438.508 2050.77,438.225 2050.4,437.941 2049.83,437.658 2049.04,437.374 2048.01,437.091 2046.73,436.807 2045.19,436.524 2043.38,436.24 2041.3,435.957 2038.93,435.673 2036.29,435.39 2033.37,435.106 2030.17,434.823 2026.69,434.539 2022.95,434.256 2018.94,433.972 2014.68,433.689 2010.17,433.405 2005.42,433.122 2000.44,432.839 1995.25,432.555 1989.85,432.272 1984.25,431.988 1978.47,431.705 1972.51,431.421 1966.4,431.138 1960.13,430.854 1557.35,430.854 1551.09,431.138 1544.98,431.421 1539.02,431.705 1533.24,431.988 1527.64,432.272 1522.24,432.555 1517.04,432.839 1512.07,433.122 1507.32,433.405 1502.81,433.689 1498.55,433.972 1494.54,434.256 1490.8,434.539 1487.32,434.823 1484.12,435.106 1481.2,435.39 1478.55,435.673 1476.19,435.957 1474.11,436.24 1472.3,436.524 1470.76,436.807 1469.48,437.091 1468.45,437.374 1467.66,437.658 1467.09,437.941 1466.72,438.225 1466.53,438.508 1466.5,438.792 1466.61,439.075 1466.83,439.359 1467.13,439.642 1467.5,439.926 1467.91,440.209 1468.33,440.493 1468.75,440.776 1469.14,441.06 1469.5,441.343 1469.8,441.626 1470.04,441.91 1470.22,442.193 1470.34,442.477 1470.4,442.76 1470.42,443.044 1470.41,443.327 1470.39,443.611 1470.39,443.894 1470.44,444.178 1470.57,444.461 1470.82,444.745 1471.22,445.028 1471.82,445.312 1472.65,445.595 1473.76,445.879 1475.18,446.162 1476.95,446.446 1479.1,446.729 1481.66,447.013 1484.67,447.296 1488.13,447.58 1492.06,447.863 1496.48,448.147 2021.01,448.147 "/>
<path clip-path="url(#clip341)" d="M3055.92 171.5 L3060.82 170.293 L3064.96 169.086 L3068.32 167.879 L3070.88 166.672 L3072.66 165.465 L3073.64 164.258 L3073.85 163.051 L3073.31 161.844 L3072.05 160.637 L3070.11 159.43 L3067.53 158.223 L3064.36 157.017 L3060.66 155.81 L3056.47 154.603 L3051.86 153.396 L3046.89 152.189 L3041.61 150.982 L3036.09 149.775 L3030.37 148.568 L3024.52 147.361 L3018.57 146.154 L3012.59 144.947 L3006.6 143.74 L3000.66 142.533 L2994.78 141.326 L2989.01 140.119 L2983.35 138.912 L2977.84 137.705 L2972.48 136.499 L2967.3 135.292 L2962.29 134.085 L2957.46 132.878 L2952.82 131.671 L2948.37 130.464 L2944.11 129.257 L2940.04 128.05 L2936.17 126.843 L2932.48 125.636 L2928.99 124.429 L2925.69 123.222 L2922.58 122.015 L2919.67 120.808 L2916.95 119.601 L2914.42 118.394 L2912.09 117.187 L2909.96 115.98 L2908.02 114.774 L2906.28 113.567 L2904.73 112.36 L2903.36 111.153 L2902.16 109.946 L2901.13 108.739 L2900.26 107.532 L2899.52 106.325 L2898.91 105.118 L2898.4 103.911 L2897.97 102.704 L2897.6 101.497 L2897.25 100.29 L2896.92 99.0833 L2896.56 97.8763 L2896.15 96.6694 L2895.67 95.4625 L2895.08 94.2555 L2894.37 93.0486 L2893.51 91.8416 L2892.48 90.6347 L2891.27 89.4277 L2889.86 88.2208 L2673.35 88.2208 L2671.94 89.4277 L2670.72 90.6347 L2669.7 91.8416 L2668.84 93.0486 L2668.13 94.2555 L2667.54 95.4625 L2667.06 96.6694 L2666.65 97.8763 L2666.29 99.0833 L2665.95 100.29 L2665.61 101.497 L2665.24 102.704 L2664.81 103.911 L2664.3 105.118 L2663.68 106.325 L2662.95 107.532 L2662.07 108.739 L2661.05 109.946 L2659.85 111.153 L2658.48 112.36 L2656.93 113.567 L2655.18 114.774 L2653.25 115.98 L2651.11 117.187 L2648.79 118.394 L2646.26 119.601 L2643.54 120.808 L2640.63 122.015 L2637.52 123.222 L2634.22 124.429 L2630.73 125.636 L2627.04 126.843 L2623.17 128.05 L2619.1 129.257 L2614.84 130.464 L2610.39 131.671 L2605.75 132.878 L2600.92 134.085 L2595.91 135.292 L2590.72 136.499 L2585.37 137.705 L2579.86 138.912 L2574.2 140.119 L2568.42 141.326 L2562.55 142.533 L2556.6 143.74 L2550.62 144.947 L2544.64 146.154 L2538.69 147.361 L2532.84 148.568 L2527.12 149.775 L2521.6 150.982 L2516.32 152.189 L2511.34 153.396 L2506.74 154.603 L2502.55 155.81 L2498.84 157.017 L2495.68 158.223 L2493.1 159.43 L2491.16 160.637 L2489.9 161.844 L2489.36 163.051 L2489.57 164.258 L2490.55 165.465 L2492.32 166.672 L2494.89 167.879 L2498.25 169.086 L2502.39 170.293 L2507.29 171.5 L3055.92 171.5  Z" fill="#3da44d" fill-rule="evenodd" fill-opacity="1"/>
<polyline clip-path="url(#clip341)" style="stroke:#000000; stroke-linecap:round; stroke-linejoin:round; stroke-width:4; stroke-opacity:1; fill:none" points="3055.92,171.5 3060.82,170.293 3064.96,169.086 3068.32,167.879 3070.88,166.672 3072.66,165.465 3073.64,164.258 3073.85,163.051 3073.31,161.844 3072.05,160.637 3070.11,159.43 3067.53,158.223 3064.36,157.017 3060.66,155.81 3056.47,154.603 3051.86,153.396 3046.89,152.189 3041.61,150.982 3036.09,149.775 3030.37,148.568 3024.52,147.361 3018.57,146.154 3012.59,144.947 3006.6,143.74 3000.66,142.533 2994.78,141.326 2989.01,140.119 2983.35,138.912 2977.84,137.705 2972.48,136.499 2967.3,135.292 2962.29,134.085 2957.46,132.878 2952.82,131.671 2948.37,130.464 2944.11,129.257 2940.04,128.05 2936.17,126.843 2932.48,125.636 2928.99,124.429 2925.69,123.222 2922.58,122.015 2919.67,120.808 2916.95,119.601 2914.42,118.394 2912.09,117.187 2909.96,115.98 2908.02,114.774 2906.28,113.567 2904.73,112.36 2903.36,111.153 2902.16,109.946 2901.13,108.739 2900.26,107.532 2899.52,106.325 2898.91,105.118 2898.4,103.911 2897.97,102.704 2897.6,101.497 2897.25,100.29 2896.92,99.0833 2896.56,97.8763 2896.15,96.6694 2895.67,95.4625 2895.08,94.2555 2894.37,93.0486 2893.51,91.8416 2892.48,90.6347 2891.27,89.4277 2889.86,88.2208 2673.35,88.2208 2671.94,89.4277 2670.72,90.6347 2669.7,91.8416 2668.84,93.0486 2668.13,94.2555 2667.54,95.4625 2667.06,96.6694 2666.65,97.8763 2666.29,99.0833 2665.95,100.29 2665.61,101.497 2665.24,102.704 2664.81,103.911 2664.3,105.118 2663.68,106.325 2662.95,107.532 2662.07,108.739 2661.05,109.946 2659.85,111.153 2658.48,112.36 2656.93,113.567 2655.18,114.774 2653.25,115.98 2651.11,117.187 2648.79,118.394 2646.26,119.601 2643.54,120.808 2640.63,122.015 2637.52,123.222 2634.22,124.429 2630.73,125.636 2627.04,126.843 2623.17,128.05 2619.1,129.257 2614.84,130.464 2610.39,131.671 2605.75,132.878 2600.92,134.085 2595.91,135.292 2590.72,136.499 2585.37,137.705 2579.86,138.912 2574.2,140.119 2568.42,141.326 2562.55,142.533 2556.6,143.74 2550.62,144.947 2544.64,146.154 2538.69,147.361 2532.84,148.568 2527.12,149.775 2521.6,150.982 2516.32,152.189 2511.34,153.396 2506.74,154.603 2502.55,155.81 2498.84,157.017 2495.68,158.223 2493.1,159.43 2491.16,160.637 2489.9,161.844 2489.36,163.051 2489.57,164.258 2490.55,165.465 2492.32,166.672 2494.89,167.879 2498.25,169.086 2502.39,170.293 2507.29,171.5 3055.92,171.5 "/>
</svg>
