<?xml version="1.0" encoding="utf-8"?>
<svg xmlns="http://www.w3.org/2000/svg" xmlns:xlink="http://www.w3.org/1999/xlink" width="800" height="400" viewBox="0 0 3200 1600">
<defs>
  <clipPath id="clip720">
    <rect x="0" y="0" width="3200" height="1600"/>
  </clipPath>
</defs>
<path clip-path="url(#clip720)" d="M0 1600 L3200 1600 L3200 0 L0 0  Z" fill="#ffffff" fill-rule="evenodd" fill-opacity="1"/>
<defs>
  <clipPath id="clip721">
    <rect x="640" y="0" width="2241" height="1600"/>
  </clipPath>
</defs>
<path clip-path="url(#clip720)" d="M364.782 1495.09 L3152.76 1495.09 L3152.76 47.2441 L364.782 47.2441  Z" fill="#ffffff" fill-rule="evenodd" fill-opacity="1"/>
<defs>
  <clipPath id="clip722">
    <rect x="364" y="47" width="2789" height="1449"/>
  </clipPath>
</defs>
<polyline clip-path="url(#clip722)" style="stroke:#000000; stroke-linecap:round; stroke-linejoin:round; stroke-width:2; stroke-opacity:0.1; fill:none" points="735.927,1495.09 735.927,47.2441 "/>
<polyline clip-path="url(#clip722)" style="stroke:#000000; stroke-linecap:round; stroke-linejoin:round; stroke-width:2; stroke-opacity:0.1; fill:none" points="1758.77,1495.09 1758.77,47.2441 "/>
<polyline clip-path="url(#clip722)" style="stroke:#000000; stroke-linecap:round; stroke-linejoin:round; stroke-width:2; stroke-opacity:0.1; fill:none" points="2781.61,1495.09 2781.61,47.2441 "/>
<polyline clip-path="url(#clip722)" style="stroke:#000000; stroke-linecap:round; stroke-linejoin:round; stroke-width:2; stroke-opacity:0.1; fill:none" points="364.782,1358.46 3152.76,1358.46 "/>
<polyline clip-path="url(#clip722)" style="stroke:#000000; stroke-linecap:round; stroke-linejoin:round; stroke-width:2; stroke-opacity:0.1; fill:none" points="364.782,936.456 3152.76,936.456 "/>
<polyline clip-path="url(#clip722)" style="stroke:#000000; stroke-linecap:round; stroke-linejoin:round; stroke-width:2; stroke-opacity:0.1; fill:none" points="364.782,514.451 3152.76,514.451 "/>
<polyline clip-path="url(#clip722)" style="stroke:#000000; stroke-linecap:round; stroke-linejoin:round; stroke-width:2; stroke-opacity:0.1; fill:none" points="364.782,92.4473 3152.76,92.4473 "/>
<polyline clip-path="url(#clip720)" style="stroke:#000000; stroke-linecap:round; stroke-linejoin:round; stroke-width:4; stroke-opacity:1; fill:none" points="364.782,1495.09 3152.76,1495.09 "/>
<polyline clip-path="url(#clip720)" style="stroke:#000000; stroke-linecap:round; stroke-linejoin:round; stroke-width:4; stroke-opacity:1; fill:none" points="735.927,1495.09 735.927,1476.19 "/>
<polyline clip-path="url(#clip720)" style="stroke:#000000; stroke-linecap:round; stroke-linejoin:round; stroke-width:4; stroke-opacity:1; fill:none" points="1758.77,1495.09 1758.77,1476.19 "/>
<polyline clip-path="url(#clip720)" style="stroke:#000000; stroke-linecap:round; stroke-linejoin:round; stroke-width:4; stroke-opacity:1; fill:none" points="2781.61,1495.09 2781.61,1476.19 "/>
<path clip-path="url(#clip720)" d="M515.697 1530.46 L515.697 1535.02 Q513.035 1533.75 510.674 1533.12 Q508.313 1532.5 506.114 1532.5 Q502.294 1532.5 500.211 1533.98 Q498.151 1535.46 498.151 1538.19 Q498.151 1540.49 499.516 1541.67 Q500.905 1542.82 504.748 1543.54 L507.572 1544.12 Q512.803 1545.11 515.28 1547.64 Q517.78 1550.14 517.78 1554.35 Q517.78 1559.37 514.401 1561.97 Q511.044 1564.56 504.54 1564.56 Q502.086 1564.56 499.308 1564 Q496.553 1563.45 493.591 1562.36 L493.591 1557.55 Q496.438 1559.14 499.169 1559.95 Q501.901 1560.76 504.54 1560.76 Q508.544 1560.76 510.72 1559.19 Q512.896 1557.61 512.896 1554.7 Q512.896 1552.15 511.322 1550.72 Q509.771 1549.28 506.206 1548.56 L503.359 1548.01 Q498.128 1546.97 495.79 1544.74 Q493.452 1542.52 493.452 1538.56 Q493.452 1533.98 496.669 1531.34 Q499.91 1528.7 505.581 1528.7 Q508.012 1528.7 510.535 1529.14 Q513.058 1529.58 515.697 1530.46 Z" fill="#000000" fill-rule="nonzero" fill-opacity="1" /><path clip-path="url(#clip720)" d="M535.674 1566.3 Q533.868 1570.92 532.155 1572.34 Q530.442 1573.75 527.572 1573.75 L524.169 1573.75 L524.169 1570.18 L526.669 1570.18 Q528.428 1570.18 529.4 1569.35 Q530.373 1568.52 531.553 1565.42 L532.317 1563.47 L521.831 1537.96 L526.345 1537.96 L534.447 1558.24 L542.549 1537.96 L547.062 1537.96 L535.674 1566.3 Z" fill="#000000" fill-rule="nonzero" fill-opacity="1" /><path clip-path="url(#clip720)" d="M573.127 1542.94 Q574.724 1540.07 576.947 1538.7 Q579.169 1537.34 582.178 1537.34 Q586.229 1537.34 588.428 1540.18 Q590.627 1543.01 590.627 1548.24 L590.627 1563.89 L586.345 1563.89 L586.345 1548.38 Q586.345 1544.65 585.025 1542.85 Q583.706 1541.04 580.997 1541.04 Q577.687 1541.04 575.766 1543.24 Q573.845 1545.44 573.845 1549.24 L573.845 1563.89 L569.562 1563.89 L569.562 1548.38 Q569.562 1544.63 568.243 1542.85 Q566.923 1541.04 564.169 1541.04 Q560.905 1541.04 558.984 1543.26 Q557.062 1545.46 557.062 1549.24 L557.062 1563.89 L552.78 1563.89 L552.78 1537.96 L557.062 1537.96 L557.062 1541.99 Q558.521 1539.61 560.558 1538.47 Q562.595 1537.34 565.396 1537.34 Q568.22 1537.34 570.187 1538.77 Q572.178 1540.21 573.127 1542.94 Z" fill="#000000" fill-rule="nonzero" fill-opacity="1" /><path clip-path="url(#clip720)" d="M617.733 1550.95 Q617.733 1546.25 615.789 1543.59 Q613.868 1540.9 610.488 1540.9 Q607.108 1540.9 605.164 1543.59 Q603.243 1546.25 603.243 1550.95 Q603.243 1555.65 605.164 1558.33 Q607.108 1560.99 610.488 1560.99 Q613.868 1560.99 615.789 1558.33 Q617.733 1555.65 617.733 1550.95 M603.243 1541.9 Q604.585 1539.58 606.622 1538.47 Q608.682 1537.34 611.53 1537.34 Q616.252 1537.34 619.192 1541.09 Q622.155 1544.84 622.155 1550.95 Q622.155 1557.06 619.192 1560.81 Q616.252 1564.56 611.53 1564.56 Q608.682 1564.56 606.622 1563.45 Q604.585 1562.31 603.243 1560 L603.243 1563.89 L598.96 1563.89 L598.96 1527.87 L603.243 1527.87 L603.243 1541.9 Z" fill="#000000" fill-rule="nonzero" fill-opacity="1" /><path clip-path="url(#clip720)" d="M639.261 1540.95 Q635.835 1540.95 633.844 1543.63 Q631.854 1546.3 631.854 1550.95 Q631.854 1555.6 633.821 1558.29 Q635.812 1560.95 639.261 1560.95 Q642.664 1560.95 644.655 1558.26 Q646.645 1555.58 646.645 1550.95 Q646.645 1546.34 644.655 1543.66 Q642.664 1540.95 639.261 1540.95 M639.261 1537.34 Q644.817 1537.34 647.988 1540.95 Q651.159 1544.56 651.159 1550.95 Q651.159 1557.31 647.988 1560.95 Q644.817 1564.56 639.261 1564.56 Q633.682 1564.56 630.511 1560.95 Q627.363 1557.31 627.363 1550.95 Q627.363 1544.56 630.511 1540.95 Q633.682 1537.34 639.261 1537.34 Z" fill="#000000" fill-rule="nonzero" fill-opacity="1" /><path clip-path="url(#clip720)" d="M658.219 1527.87 L662.478 1527.87 L662.478 1563.89 L658.219 1563.89 L658.219 1527.87 Z" fill="#000000" fill-rule="nonzero" fill-opacity="1" /><path clip-path="url(#clip720)" d="M671.39 1537.96 L675.65 1537.96 L675.65 1563.89 L671.39 1563.89 L671.39 1537.96 M671.39 1527.87 L675.65 1527.87 L675.65 1533.26 L671.39 1533.26 L671.39 1527.87 Z" fill="#000000" fill-rule="nonzero" fill-opacity="1" /><path clip-path="url(#clip720)" d="M703.219 1538.96 L703.219 1542.94 Q701.413 1541.94 699.585 1541.46 Q697.779 1540.95 695.927 1540.95 Q691.784 1540.95 689.492 1543.59 Q687.201 1546.2 687.201 1550.95 Q687.201 1555.69 689.492 1558.33 Q691.784 1560.95 695.927 1560.95 Q697.779 1560.95 699.585 1560.46 Q701.413 1559.95 703.219 1558.96 L703.219 1562.89 Q701.437 1563.73 699.515 1564.14 Q697.617 1564.56 695.464 1564.56 Q689.608 1564.56 686.159 1560.88 Q682.71 1557.2 682.71 1550.95 Q682.71 1544.61 686.182 1540.97 Q689.677 1537.34 695.742 1537.34 Q697.71 1537.34 699.585 1537.75 Q701.46 1538.15 703.219 1538.96 Z" fill="#000000" fill-rule="nonzero" fill-opacity="1" /><path clip-path="url(#clip720)" d="M735.927 1527.92 Q732.825 1533.24 731.321 1538.45 Q729.816 1543.66 729.816 1549 Q729.816 1554.35 731.321 1559.61 Q732.848 1564.84 735.927 1570.14 L732.223 1570.14 Q728.751 1564.7 727.015 1559.44 Q725.302 1554.19 725.302 1549 Q725.302 1543.84 727.015 1538.61 Q728.728 1533.38 732.223 1527.92 L735.927 1527.92 Z" fill="#000000" fill-rule="nonzero" fill-opacity="1" /><path clip-path="url(#clip720)" d="M755.973 1550.86 Q750.811 1550.86 748.821 1552.04 Q746.83 1553.22 746.83 1556.06 Q746.83 1558.33 748.311 1559.67 Q749.816 1560.99 752.385 1560.99 Q755.927 1560.99 758.057 1558.49 Q760.209 1555.97 760.209 1551.8 L760.209 1550.86 L755.973 1550.86 M764.469 1549.1 L764.469 1563.89 L760.209 1563.89 L760.209 1559.95 Q758.751 1562.31 756.575 1563.45 Q754.399 1564.56 751.251 1564.56 Q747.27 1564.56 744.909 1562.34 Q742.571 1560.09 742.571 1556.34 Q742.571 1551.97 745.487 1549.74 Q748.427 1547.52 754.237 1547.52 L760.209 1547.52 L760.209 1547.11 Q760.209 1544.17 758.265 1542.57 Q756.344 1540.95 752.848 1540.95 Q750.626 1540.95 748.52 1541.48 Q746.413 1542.01 744.469 1543.08 L744.469 1539.14 Q746.807 1538.24 749.006 1537.8 Q751.205 1537.34 753.288 1537.34 Q758.913 1537.34 761.691 1540.25 Q764.469 1543.17 764.469 1549.1 Z" fill="#000000" fill-rule="nonzero" fill-opacity="1" /><path clip-path="url(#clip720)" d="M772.802 1553.66 L772.802 1537.96 L777.061 1537.96 L777.061 1553.49 Q777.061 1557.17 778.496 1559.03 Q779.932 1560.86 782.802 1560.86 Q786.251 1560.86 788.242 1558.66 Q790.256 1556.46 790.256 1552.66 L790.256 1537.96 L794.515 1537.96 L794.515 1563.89 L790.256 1563.89 L790.256 1559.91 Q788.705 1562.27 786.644 1563.42 Q784.607 1564.56 781.899 1564.56 Q777.432 1564.56 775.117 1561.78 Q772.802 1559 772.802 1553.66 M783.52 1537.34 L783.52 1537.34 Z" fill="#000000" fill-rule="nonzero" fill-opacity="1" /><path clip-path="url(#clip720)" d="M807.501 1530.6 L807.501 1537.96 L816.274 1537.96 L816.274 1541.27 L807.501 1541.27 L807.501 1555.35 Q807.501 1558.52 808.357 1559.42 Q809.237 1560.32 811.899 1560.32 L816.274 1560.32 L816.274 1563.89 L811.899 1563.89 Q806.968 1563.89 805.093 1562.06 Q803.218 1560.21 803.218 1555.35 L803.218 1541.27 L800.093 1541.27 L800.093 1537.96 L803.218 1537.96 L803.218 1530.6 L807.501 1530.6 Z" fill="#000000" fill-rule="nonzero" fill-opacity="1" /><path clip-path="url(#clip720)" d="M831.922 1540.95 Q828.496 1540.95 826.505 1543.63 Q824.515 1546.3 824.515 1550.95 Q824.515 1555.6 826.482 1558.29 Q828.473 1560.95 831.922 1560.95 Q835.325 1560.95 837.316 1558.26 Q839.306 1555.58 839.306 1550.95 Q839.306 1546.34 837.316 1543.66 Q835.325 1540.95 831.922 1540.95 M831.922 1537.34 Q837.478 1537.34 840.649 1540.95 Q843.82 1544.56 843.82 1550.95 Q843.82 1557.31 840.649 1560.95 Q837.478 1564.56 831.922 1564.56 Q826.343 1564.56 823.172 1560.95 Q820.024 1557.31 820.024 1550.95 Q820.024 1544.56 823.172 1540.95 Q826.343 1537.34 831.922 1537.34 Z" fill="#000000" fill-rule="nonzero" fill-opacity="1" /><path clip-path="url(#clip720)" d="M850.649 1558.01 L855.533 1558.01 L855.533 1563.89 L850.649 1563.89 L850.649 1558.01 Z" fill="#000000" fill-rule="nonzero" fill-opacity="1" /><path clip-path="url(#clip720)" d="M897.246 1541.9 L897.246 1527.87 L901.505 1527.87 L901.505 1563.89 L897.246 1563.89 L897.246 1560 Q895.903 1562.31 893.843 1563.45 Q891.806 1564.56 888.936 1564.56 Q884.237 1564.56 881.274 1560.81 Q878.334 1557.06 878.334 1550.95 Q878.334 1544.84 881.274 1541.09 Q884.237 1537.34 888.936 1537.34 Q891.806 1537.34 893.843 1538.47 Q895.903 1539.58 897.246 1541.9 M882.732 1550.95 Q882.732 1555.65 884.653 1558.33 Q886.598 1560.99 889.977 1560.99 Q893.357 1560.99 895.301 1558.33 Q897.246 1555.65 897.246 1550.95 Q897.246 1546.25 895.301 1543.59 Q893.357 1540.9 889.977 1540.9 Q886.598 1540.9 884.653 1543.59 Q882.732 1546.25 882.732 1550.95 Z" fill="#000000" fill-rule="nonzero" fill-opacity="1" /><path clip-path="url(#clip720)" d="M910.278 1537.96 L914.537 1537.96 L914.537 1563.89 L910.278 1563.89 L910.278 1537.96 M910.278 1527.87 L914.537 1527.87 L914.537 1533.26 L910.278 1533.26 L910.278 1527.87 Z" fill="#000000" fill-rule="nonzero" fill-opacity="1" /><path clip-path="url(#clip720)" d="M936.574 1527.87 L936.574 1531.41 L932.5 1531.41 Q930.209 1531.41 929.306 1532.34 Q928.426 1533.26 928.426 1535.67 L928.426 1537.96 L935.44 1537.96 L935.44 1541.27 L928.426 1541.27 L928.426 1563.89 L924.144 1563.89 L924.144 1541.27 L920.07 1541.27 L920.07 1537.96 L924.144 1537.96 L924.144 1536.16 Q924.144 1531.83 926.158 1529.86 Q928.172 1527.87 932.546 1527.87 L936.574 1527.87 Z" fill="#000000" fill-rule="nonzero" fill-opacity="1" /><path clip-path="url(#clip720)" d="M953.264 1527.87 L953.264 1531.41 L949.19 1531.41 Q946.898 1531.41 945.995 1532.34 Q945.116 1533.26 945.116 1535.67 L945.116 1537.96 L952.13 1537.96 L952.13 1541.27 L945.116 1541.27 L945.116 1563.89 L940.833 1563.89 L940.833 1541.27 L936.759 1541.27 L936.759 1537.96 L940.833 1537.96 L940.833 1536.16 Q940.833 1531.83 942.847 1529.86 Q944.861 1527.87 949.236 1527.87 L953.264 1527.87 Z" fill="#000000" fill-rule="nonzero" fill-opacity="1" /><path clip-path="url(#clip720)" d="M953.982 1558.01 L958.866 1558.01 L958.866 1563.89 L953.982 1563.89 L953.982 1558.01 Z" fill="#000000" fill-rule="nonzero" fill-opacity="1" /><path clip-path="url(#clip720)" d="M967.778 1527.92 L971.481 1527.92 Q974.954 1533.38 976.667 1538.61 Q978.403 1543.84 978.403 1549 Q978.403 1554.19 976.667 1559.44 Q974.954 1564.7 971.481 1570.14 L967.778 1570.14 Q970.856 1564.84 972.361 1559.61 Q973.889 1554.35 973.889 1549 Q973.889 1543.66 972.361 1538.45 Q970.856 1533.24 967.778 1527.92 Z" fill="#000000" fill-rule="nonzero" fill-opacity="1" /><path clip-path="url(#clip720)" d="M1561.51 1530.46 L1561.51 1535.02 Q1558.85 1533.75 1556.49 1533.12 Q1554.13 1532.5 1551.93 1532.5 Q1548.11 1532.5 1546.03 1533.98 Q1543.97 1535.46 1543.97 1538.19 Q1543.97 1540.49 1545.33 1541.67 Q1546.72 1542.82 1550.56 1543.54 L1553.39 1544.12 Q1558.62 1545.11 1561.1 1547.64 Q1563.6 1550.14 1563.6 1554.35 Q1563.6 1559.37 1560.22 1561.97 Q1556.86 1564.56 1550.36 1564.56 Q1547.9 1564.56 1545.12 1564 Q1542.37 1563.45 1539.41 1562.36 L1539.41 1557.55 Q1542.25 1559.14 1544.99 1559.95 Q1547.72 1560.76 1550.36 1560.76 Q1554.36 1560.76 1556.54 1559.19 Q1558.71 1557.61 1558.71 1554.7 Q1558.71 1552.15 1557.14 1550.72 Q1555.59 1549.28 1552.02 1548.56 L1549.18 1548.01 Q1543.94 1546.97 1541.61 1544.74 Q1539.27 1542.52 1539.27 1538.56 Q1539.27 1533.98 1542.49 1531.34 Q1545.73 1528.7 1551.4 1528.7 Q1553.83 1528.7 1556.35 1529.14 Q1558.87 1529.58 1561.51 1530.46 Z" fill="#000000" fill-rule="nonzero" fill-opacity="1" /><path clip-path="url(#clip720)" d="M1581.49 1566.3 Q1579.68 1570.92 1577.97 1572.34 Q1576.26 1573.75 1573.39 1573.75 L1569.99 1573.75 L1569.99 1570.18 L1572.49 1570.18 Q1574.24 1570.18 1575.22 1569.35 Q1576.19 1568.52 1577.37 1565.42 L1578.13 1563.47 L1567.65 1537.96 L1572.16 1537.96 L1580.26 1558.24 L1588.36 1537.96 L1592.88 1537.96 L1581.49 1566.3 Z" fill="#000000" fill-rule="nonzero" fill-opacity="1" /><path clip-path="url(#clip720)" d="M1618.94 1542.94 Q1620.54 1540.07 1622.76 1538.7 Q1624.98 1537.34 1627.99 1537.34 Q1632.04 1537.34 1634.24 1540.18 Q1636.44 1543.01 1636.44 1548.24 L1636.44 1563.89 L1632.16 1563.89 L1632.16 1548.38 Q1632.16 1544.65 1630.84 1542.85 Q1629.52 1541.04 1626.81 1541.04 Q1623.5 1541.04 1621.58 1543.24 Q1619.66 1545.44 1619.66 1549.24 L1619.66 1563.89 L1615.38 1563.89 L1615.38 1548.38 Q1615.38 1544.63 1614.06 1542.85 Q1612.74 1541.04 1609.98 1541.04 Q1606.72 1541.04 1604.8 1543.26 Q1602.88 1545.46 1602.88 1549.24 L1602.88 1563.89 L1598.6 1563.89 L1598.6 1537.96 L1602.88 1537.96 L1602.88 1541.99 Q1604.34 1539.61 1606.37 1538.47 Q1608.41 1537.34 1611.21 1537.34 Q1614.04 1537.34 1616 1538.77 Q1617.99 1540.21 1618.94 1542.94 Z" fill="#000000" fill-rule="nonzero" fill-opacity="1" /><path clip-path="url(#clip720)" d="M1663.55 1550.95 Q1663.55 1546.25 1661.61 1543.59 Q1659.68 1540.9 1656.3 1540.9 Q1652.92 1540.9 1650.98 1543.59 Q1649.06 1546.25 1649.06 1550.95 Q1649.06 1555.65 1650.98 1558.33 Q1652.92 1560.99 1656.3 1560.99 Q1659.68 1560.99 1661.61 1558.33 Q1663.55 1555.65 1663.55 1550.95 M1649.06 1541.9 Q1650.4 1539.58 1652.44 1538.47 Q1654.5 1537.34 1657.35 1537.34 Q1662.07 1537.34 1665.01 1541.09 Q1667.97 1544.84 1667.97 1550.95 Q1667.97 1557.06 1665.01 1560.81 Q1662.07 1564.56 1657.35 1564.56 Q1654.5 1564.56 1652.44 1563.45 Q1650.4 1562.31 1649.06 1560 L1649.06 1563.89 L1644.78 1563.89 L1644.78 1527.87 L1649.06 1527.87 L1649.06 1541.9 Z" fill="#000000" fill-rule="nonzero" fill-opacity="1" /><path clip-path="url(#clip720)" d="M1685.08 1540.95 Q1681.65 1540.95 1679.66 1543.63 Q1677.67 1546.3 1677.67 1550.95 Q1677.67 1555.6 1679.64 1558.29 Q1681.63 1560.95 1685.08 1560.95 Q1688.48 1560.95 1690.47 1558.26 Q1692.46 1555.58 1692.46 1550.95 Q1692.46 1546.34 1690.47 1543.66 Q1688.48 1540.95 1685.08 1540.95 M1685.08 1537.34 Q1690.63 1537.34 1693.8 1540.95 Q1696.98 1544.56 1696.98 1550.95 Q1696.98 1557.31 1693.8 1560.95 Q1690.63 1564.56 1685.08 1564.56 Q1679.5 1564.56 1676.33 1560.95 Q1673.18 1557.31 1673.18 1550.95 Q1673.18 1544.56 1676.33 1540.95 Q1679.5 1537.34 1685.08 1537.34 Z" fill="#000000" fill-rule="nonzero" fill-opacity="1" /><path clip-path="url(#clip720)" d="M1704.04 1527.87 L1708.29 1527.87 L1708.29 1563.89 L1704.04 1563.89 L1704.04 1527.87 Z" fill="#000000" fill-rule="nonzero" fill-opacity="1" /><path clip-path="url(#clip720)" d="M1717.21 1537.96 L1721.47 1537.96 L1721.47 1563.89 L1717.21 1563.89 L1717.21 1537.96 M1717.21 1527.87 L1721.47 1527.87 L1721.47 1533.26 L1717.21 1533.26 L1717.21 1527.87 Z" fill="#000000" fill-rule="nonzero" fill-opacity="1" /><path clip-path="url(#clip720)" d="M1749.04 1538.96 L1749.04 1542.94 Q1747.23 1541.94 1745.4 1541.46 Q1743.6 1540.95 1741.74 1540.95 Q1737.6 1540.95 1735.31 1543.59 Q1733.02 1546.2 1733.02 1550.95 Q1733.02 1555.69 1735.31 1558.33 Q1737.6 1560.95 1741.74 1560.95 Q1743.6 1560.95 1745.4 1560.46 Q1747.23 1559.95 1749.04 1558.96 L1749.04 1562.89 Q1747.25 1563.73 1745.33 1564.14 Q1743.43 1564.56 1741.28 1564.56 Q1735.42 1564.56 1731.97 1560.88 Q1728.53 1557.2 1728.53 1550.95 Q1728.53 1544.61 1732 1540.97 Q1735.49 1537.34 1741.56 1537.34 Q1743.53 1537.34 1745.4 1537.75 Q1747.28 1538.15 1749.04 1538.96 Z" fill="#000000" fill-rule="nonzero" fill-opacity="1" /><path clip-path="url(#clip720)" d="M1781.74 1527.92 Q1778.64 1533.24 1777.14 1538.45 Q1775.63 1543.66 1775.63 1549 Q1775.63 1554.35 1777.14 1559.61 Q1778.66 1564.84 1781.74 1570.14 L1778.04 1570.14 Q1774.57 1564.7 1772.83 1559.44 Q1771.12 1554.19 1771.12 1549 Q1771.12 1543.84 1772.83 1538.61 Q1774.54 1533.38 1778.04 1527.92 L1781.74 1527.92 Z" fill="#000000" fill-rule="nonzero" fill-opacity="1" /><path clip-path="url(#clip720)" d="M1803.13 1527.87 L1803.13 1531.41 L1799.06 1531.41 Q1796.77 1531.41 1795.86 1532.34 Q1794.98 1533.26 1794.98 1535.67 L1794.98 1537.96 L1802 1537.96 L1802 1541.27 L1794.98 1541.27 L1794.98 1563.89 L1790.7 1563.89 L1790.7 1541.27 L1786.63 1541.27 L1786.63 1537.96 L1790.7 1537.96 L1790.7 1536.16 Q1790.7 1531.83 1792.72 1529.86 Q1794.73 1527.87 1799.1 1527.87 L1803.13 1527.87 Z" fill="#000000" fill-rule="nonzero" fill-opacity="1" /><path clip-path="url(#clip720)" d="M1806.7 1537.96 L1810.96 1537.96 L1810.96 1563.89 L1806.7 1563.89 L1806.7 1537.96 M1806.7 1527.87 L1810.96 1527.87 L1810.96 1533.26 L1806.7 1533.26 L1806.7 1527.87 Z" fill="#000000" fill-rule="nonzero" fill-opacity="1" /><path clip-path="url(#clip720)" d="M1841.42 1548.24 L1841.42 1563.89 L1837.16 1563.89 L1837.16 1548.38 Q1837.16 1544.7 1835.72 1542.87 Q1834.29 1541.04 1831.42 1541.04 Q1827.97 1541.04 1825.98 1543.24 Q1823.99 1545.44 1823.99 1549.24 L1823.99 1563.89 L1819.71 1563.89 L1819.71 1537.96 L1823.99 1537.96 L1823.99 1541.99 Q1825.52 1539.65 1827.58 1538.49 Q1829.66 1537.34 1832.37 1537.34 Q1836.84 1537.34 1839.13 1540.11 Q1841.42 1542.87 1841.42 1548.24 Z" fill="#000000" fill-rule="nonzero" fill-opacity="1" /><path clip-path="url(#clip720)" d="M1850.52 1558.01 L1855.4 1558.01 L1855.4 1563.89 L1850.52 1563.89 L1850.52 1558.01 Z" fill="#000000" fill-rule="nonzero" fill-opacity="1" /><path clip-path="url(#clip720)" d="M1897.11 1541.9 L1897.11 1527.87 L1901.37 1527.87 L1901.37 1563.89 L1897.11 1563.89 L1897.11 1560 Q1895.77 1562.31 1893.71 1563.45 Q1891.67 1564.56 1888.8 1564.56 Q1884.1 1564.56 1881.14 1560.81 Q1878.2 1557.06 1878.2 1550.95 Q1878.2 1544.84 1881.14 1541.09 Q1884.1 1537.34 1888.8 1537.34 Q1891.67 1537.34 1893.71 1538.47 Q1895.77 1539.58 1897.11 1541.9 M1882.6 1550.95 Q1882.6 1555.65 1884.52 1558.33 Q1886.46 1560.99 1889.84 1560.99 Q1893.22 1560.99 1895.17 1558.33 Q1897.11 1555.65 1897.11 1550.95 Q1897.11 1546.25 1895.17 1543.59 Q1893.22 1540.9 1889.84 1540.9 Q1886.46 1540.9 1884.52 1543.59 Q1882.6 1546.25 1882.6 1550.95 Z" fill="#000000" fill-rule="nonzero" fill-opacity="1" /><path clip-path="url(#clip720)" d="M1910.15 1537.96 L1914.4 1537.96 L1914.4 1563.89 L1910.15 1563.89 L1910.15 1537.96 M1910.15 1527.87 L1914.4 1527.87 L1914.4 1533.26 L1910.15 1533.26 L1910.15 1527.87 Z" fill="#000000" fill-rule="nonzero" fill-opacity="1" /><path clip-path="url(#clip720)" d="M1936.44 1527.87 L1936.44 1531.41 L1932.37 1531.41 Q1930.08 1531.41 1929.17 1532.34 Q1928.29 1533.26 1928.29 1535.67 L1928.29 1537.96 L1935.31 1537.96 L1935.31 1541.27 L1928.29 1541.27 L1928.29 1563.89 L1924.01 1563.89 L1924.01 1541.27 L1919.94 1541.27 L1919.94 1537.96 L1924.01 1537.96 L1924.01 1536.16 Q1924.01 1531.83 1926.02 1529.86 Q1928.04 1527.87 1932.41 1527.87 L1936.44 1527.87 Z" fill="#000000" fill-rule="nonzero" fill-opacity="1" /><path clip-path="url(#clip720)" d="M1953.13 1527.87 L1953.13 1531.41 L1949.06 1531.41 Q1946.77 1531.41 1945.86 1532.34 Q1944.98 1533.26 1944.98 1535.67 L1944.98 1537.96 L1952 1537.96 L1952 1541.27 L1944.98 1541.27 L1944.98 1563.89 L1940.7 1563.89 L1940.7 1541.27 L1936.63 1541.27 L1936.63 1537.96 L1940.7 1537.96 L1940.7 1536.16 Q1940.7 1531.83 1942.71 1529.86 Q1944.73 1527.87 1949.1 1527.87 L1953.13 1527.87 Z" fill="#000000" fill-rule="nonzero" fill-opacity="1" /><path clip-path="url(#clip720)" d="M1953.85 1558.01 L1958.73 1558.01 L1958.73 1563.89 L1953.85 1563.89 L1953.85 1558.01 Z" fill="#000000" fill-rule="nonzero" fill-opacity="1" /><path clip-path="url(#clip720)" d="M1967.65 1527.92 L1971.35 1527.92 Q1974.82 1533.38 1976.53 1538.61 Q1978.27 1543.84 1978.27 1549 Q1978.27 1554.19 1976.53 1559.44 Q1974.82 1564.7 1971.35 1570.14 L1967.65 1570.14 Q1970.72 1564.84 1972.23 1559.61 Q1973.76 1554.35 1973.76 1549 Q1973.76 1543.66 1972.23 1538.45 Q1970.72 1533.24 1967.65 1527.92 Z" fill="#000000" fill-rule="nonzero" fill-opacity="1" /><path clip-path="url(#clip720)" d="M2526.91 1529.33 L2533.21 1529.33 L2548.53 1558.24 L2548.53 1529.33 L2553.07 1529.33 L2553.07 1563.89 L2546.77 1563.89 L2531.45 1534.98 L2531.45 1563.89 L2526.91 1563.89 L2526.91 1529.33 Z" fill="#000000" fill-rule="nonzero" fill-opacity="1" /><path clip-path="url(#clip720)" d="M2561.75 1553.66 L2561.75 1537.96 L2566.01 1537.96 L2566.01 1553.49 Q2566.01 1557.17 2567.44 1559.03 Q2568.88 1560.86 2571.75 1560.86 Q2575.2 1560.86 2577.19 1558.66 Q2579.2 1556.46 2579.2 1552.66 L2579.2 1537.96 L2583.46 1537.96 L2583.46 1563.89 L2579.2 1563.89 L2579.2 1559.91 Q2577.65 1562.27 2575.59 1563.42 Q2573.56 1564.56 2570.85 1564.56 Q2566.38 1564.56 2564.07 1561.78 Q2561.75 1559 2561.75 1553.66 M2572.47 1537.34 L2572.47 1537.34 Z" fill="#000000" fill-rule="nonzero" fill-opacity="1" /><path clip-path="url(#clip720)" d="M2612.42 1542.94 Q2614.02 1540.07 2616.24 1538.7 Q2618.46 1537.34 2621.47 1537.34 Q2625.52 1537.34 2627.72 1540.18 Q2629.92 1543.01 2629.92 1548.24 L2629.92 1563.89 L2625.64 1563.89 L2625.64 1548.38 Q2625.64 1544.65 2624.32 1542.85 Q2623 1541.04 2620.29 1541.04 Q2616.98 1541.04 2615.06 1543.24 Q2613.14 1545.44 2613.14 1549.24 L2613.14 1563.89 L2608.86 1563.89 L2608.86 1548.38 Q2608.86 1544.63 2607.54 1542.85 Q2606.22 1541.04 2603.46 1541.04 Q2600.2 1541.04 2598.28 1543.26 Q2596.36 1545.46 2596.36 1549.24 L2596.36 1563.89 L2592.07 1563.89 L2592.07 1537.96 L2596.36 1537.96 L2596.36 1541.99 Q2597.82 1539.61 2599.85 1538.47 Q2601.89 1537.34 2604.69 1537.34 Q2607.51 1537.34 2609.48 1538.77 Q2611.47 1540.21 2612.42 1542.94 Z" fill="#000000" fill-rule="nonzero" fill-opacity="1" /><path clip-path="url(#clip720)" d="M2660.59 1549.86 L2660.59 1551.94 L2641.01 1551.94 Q2641.29 1556.34 2643.65 1558.66 Q2646.03 1560.95 2650.27 1560.95 Q2652.72 1560.95 2655.01 1560.35 Q2657.33 1559.74 2659.6 1558.54 L2659.6 1562.57 Q2657.31 1563.54 2654.9 1564.05 Q2652.49 1564.56 2650.01 1564.56 Q2643.81 1564.56 2640.18 1560.95 Q2636.56 1557.34 2636.56 1551.18 Q2636.56 1544.81 2639.99 1541.09 Q2643.44 1537.34 2649.27 1537.34 Q2654.5 1537.34 2657.54 1540.72 Q2660.59 1544.07 2660.59 1549.86 M2656.33 1548.61 Q2656.29 1545.11 2654.37 1543.03 Q2652.47 1540.95 2649.32 1540.95 Q2645.75 1540.95 2643.6 1542.96 Q2641.47 1544.98 2641.15 1548.63 L2656.33 1548.61 Z" fill="#000000" fill-rule="nonzero" fill-opacity="1" /><path clip-path="url(#clip720)" d="M2682.61 1541.94 Q2681.89 1541.53 2681.03 1541.34 Q2680.2 1541.13 2679.18 1541.13 Q2675.57 1541.13 2673.62 1543.49 Q2671.7 1545.83 2671.7 1550.23 L2671.7 1563.89 L2667.42 1563.89 L2667.42 1537.96 L2671.7 1537.96 L2671.7 1541.99 Q2673.05 1539.63 2675.2 1538.49 Q2677.35 1537.34 2680.43 1537.34 Q2680.87 1537.34 2681.4 1537.41 Q2681.94 1537.45 2682.58 1537.57 L2682.61 1541.94 Z" fill="#000000" fill-rule="nonzero" fill-opacity="1" /><path clip-path="url(#clip720)" d="M2687.07 1537.96 L2691.33 1537.96 L2691.33 1563.89 L2687.07 1563.89 L2687.07 1537.96 M2687.07 1527.87 L2691.33 1527.87 L2691.33 1533.26 L2687.07 1533.26 L2687.07 1527.87 Z" fill="#000000" fill-rule="nonzero" fill-opacity="1" /><path clip-path="url(#clip720)" d="M2718.9 1538.96 L2718.9 1542.94 Q2717.1 1541.94 2715.27 1541.46 Q2713.46 1540.95 2711.61 1540.95 Q2707.47 1540.95 2705.18 1543.59 Q2702.88 1546.2 2702.88 1550.95 Q2702.88 1555.69 2705.18 1558.33 Q2707.47 1560.95 2711.61 1560.95 Q2713.46 1560.95 2715.27 1560.46 Q2717.1 1559.95 2718.9 1558.96 L2718.9 1562.89 Q2717.12 1563.73 2715.2 1564.14 Q2713.3 1564.56 2711.15 1564.56 Q2705.29 1564.56 2701.84 1560.88 Q2698.39 1557.2 2698.39 1550.95 Q2698.39 1544.61 2701.87 1540.97 Q2705.36 1537.34 2711.43 1537.34 Q2713.39 1537.34 2715.27 1537.75 Q2717.14 1538.15 2718.9 1538.96 Z" fill="#000000" fill-rule="nonzero" fill-opacity="1" /><path clip-path="url(#clip720)" d="M2738.09 1550.86 Q2732.93 1550.86 2730.94 1552.04 Q2728.95 1553.22 2728.95 1556.06 Q2728.95 1558.33 2730.43 1559.67 Q2731.93 1560.99 2734.5 1560.99 Q2738.05 1560.99 2740.18 1558.49 Q2742.33 1555.97 2742.33 1551.8 L2742.33 1550.86 L2738.09 1550.86 M2746.59 1549.1 L2746.59 1563.89 L2742.33 1563.89 L2742.33 1559.95 Q2740.87 1562.31 2738.69 1563.45 Q2736.52 1564.56 2733.37 1564.56 Q2729.39 1564.56 2727.03 1562.34 Q2724.69 1560.09 2724.69 1556.34 Q2724.69 1551.97 2727.61 1549.74 Q2730.55 1547.52 2736.36 1547.52 L2742.33 1547.52 L2742.33 1547.11 Q2742.33 1544.17 2740.38 1542.57 Q2738.46 1540.95 2734.97 1540.95 Q2732.75 1540.95 2730.64 1541.48 Q2728.53 1542.01 2726.59 1543.08 L2726.59 1539.14 Q2728.93 1538.24 2731.12 1537.8 Q2733.32 1537.34 2735.41 1537.34 Q2741.03 1537.34 2743.81 1540.25 Q2746.59 1543.17 2746.59 1549.1 Z" fill="#000000" fill-rule="nonzero" fill-opacity="1" /><path clip-path="url(#clip720)" d="M2755.36 1527.87 L2759.62 1527.87 L2759.62 1563.89 L2755.36 1563.89 L2755.36 1527.87 Z" fill="#000000" fill-rule="nonzero" fill-opacity="1" /><path clip-path="url(#clip720)" d="M2793.83 1527.92 Q2790.73 1533.24 2789.23 1538.45 Q2787.72 1543.66 2787.72 1549 Q2787.72 1554.35 2789.23 1559.61 Q2790.75 1564.84 2793.83 1570.14 L2790.13 1570.14 Q2786.66 1564.7 2784.92 1559.44 Q2783.21 1554.19 2783.21 1549 Q2783.21 1543.84 2784.92 1538.61 Q2786.63 1533.38 2790.13 1527.92 L2793.83 1527.92 Z" fill="#000000" fill-rule="nonzero" fill-opacity="1" /><path clip-path="url(#clip720)" d="M2813.88 1550.86 Q2808.72 1550.86 2806.73 1552.04 Q2804.74 1553.22 2804.74 1556.06 Q2804.74 1558.33 2806.22 1559.67 Q2807.72 1560.99 2810.29 1560.99 Q2813.83 1560.99 2815.96 1558.49 Q2818.11 1555.97 2818.11 1551.8 L2818.11 1550.86 L2813.88 1550.86 M2822.37 1549.1 L2822.37 1563.89 L2818.11 1563.89 L2818.11 1559.95 Q2816.66 1562.31 2814.48 1563.45 Q2812.3 1564.56 2809.16 1564.56 Q2805.18 1564.56 2802.81 1562.34 Q2800.48 1560.09 2800.48 1556.34 Q2800.48 1551.97 2803.39 1549.74 Q2806.33 1547.52 2812.14 1547.52 L2818.11 1547.52 L2818.11 1547.11 Q2818.11 1544.17 2816.17 1542.57 Q2814.25 1540.95 2810.75 1540.95 Q2808.53 1540.95 2806.43 1541.48 Q2804.32 1542.01 2802.37 1543.08 L2802.37 1539.14 Q2804.71 1538.24 2806.91 1537.8 Q2809.11 1537.34 2811.19 1537.34 Q2816.82 1537.34 2819.6 1540.25 Q2822.37 1543.17 2822.37 1549.1 Z" fill="#000000" fill-rule="nonzero" fill-opacity="1" /><path clip-path="url(#clip720)" d="M2830.71 1553.66 L2830.71 1537.96 L2834.97 1537.96 L2834.97 1553.49 Q2834.97 1557.17 2836.4 1559.03 Q2837.84 1560.86 2840.71 1560.86 Q2844.16 1560.86 2846.15 1558.66 Q2848.16 1556.46 2848.16 1552.66 L2848.16 1537.96 L2852.42 1537.96 L2852.42 1563.89 L2848.16 1563.89 L2848.16 1559.91 Q2846.61 1562.27 2844.55 1563.42 Q2842.51 1564.56 2839.8 1564.56 Q2835.34 1564.56 2833.02 1561.78 Q2830.71 1559 2830.71 1553.66 M2841.42 1537.34 L2841.42 1537.34 Z" fill="#000000" fill-rule="nonzero" fill-opacity="1" /><path clip-path="url(#clip720)" d="M2865.41 1530.6 L2865.41 1537.96 L2874.18 1537.96 L2874.18 1541.27 L2865.41 1541.27 L2865.41 1555.35 Q2865.41 1558.52 2866.26 1559.42 Q2867.14 1560.32 2869.8 1560.32 L2874.18 1560.32 L2874.18 1563.89 L2869.8 1563.89 Q2864.87 1563.89 2863 1562.06 Q2861.12 1560.21 2861.12 1555.35 L2861.12 1541.27 L2858 1541.27 L2858 1537.96 L2861.12 1537.96 L2861.12 1530.6 L2865.41 1530.6 Z" fill="#000000" fill-rule="nonzero" fill-opacity="1" /><path clip-path="url(#clip720)" d="M2889.83 1540.95 Q2886.4 1540.95 2884.41 1543.63 Q2882.42 1546.3 2882.42 1550.95 Q2882.42 1555.6 2884.39 1558.29 Q2886.38 1560.95 2889.83 1560.95 Q2893.23 1560.95 2895.22 1558.26 Q2897.21 1555.58 2897.21 1550.95 Q2897.21 1546.34 2895.22 1543.66 Q2893.23 1540.95 2889.83 1540.95 M2889.83 1537.34 Q2895.38 1537.34 2898.55 1540.95 Q2901.73 1544.56 2901.73 1550.95 Q2901.73 1557.31 2898.55 1560.95 Q2895.38 1564.56 2889.83 1564.56 Q2884.25 1564.56 2881.08 1560.95 Q2877.93 1557.31 2877.93 1550.95 Q2877.93 1544.56 2881.08 1540.95 Q2884.25 1537.34 2889.83 1537.34 Z" fill="#000000" fill-rule="nonzero" fill-opacity="1" /><path clip-path="url(#clip720)" d="M2908.55 1558.01 L2913.44 1558.01 L2913.44 1563.89 L2908.55 1563.89 L2908.55 1558.01 Z" fill="#000000" fill-rule="nonzero" fill-opacity="1" /><path clip-path="url(#clip720)" d="M2955.15 1541.9 L2955.15 1527.87 L2959.41 1527.87 L2959.41 1563.89 L2955.15 1563.89 L2955.15 1560 Q2953.81 1562.31 2951.75 1563.45 Q2949.71 1564.56 2946.84 1564.56 Q2942.14 1564.56 2939.18 1560.81 Q2936.24 1557.06 2936.24 1550.95 Q2936.24 1544.84 2939.18 1541.09 Q2942.14 1537.34 2946.84 1537.34 Q2949.71 1537.34 2951.75 1538.47 Q2953.81 1539.58 2955.15 1541.9 M2940.64 1550.95 Q2940.64 1555.65 2942.56 1558.33 Q2944.5 1560.99 2947.88 1560.99 Q2951.26 1560.99 2953.21 1558.33 Q2955.15 1555.65 2955.15 1550.95 Q2955.15 1546.25 2953.21 1543.59 Q2951.26 1540.9 2947.88 1540.9 Q2944.5 1540.9 2942.56 1543.59 Q2940.64 1546.25 2940.64 1550.95 Z" fill="#000000" fill-rule="nonzero" fill-opacity="1" /><path clip-path="url(#clip720)" d="M2968.18 1537.96 L2972.44 1537.96 L2972.44 1563.89 L2968.18 1563.89 L2968.18 1537.96 M2968.18 1527.87 L2972.44 1527.87 L2972.44 1533.26 L2968.18 1533.26 L2968.18 1527.87 Z" fill="#000000" fill-rule="nonzero" fill-opacity="1" /><path clip-path="url(#clip720)" d="M2994.48 1527.87 L2994.48 1531.41 L2990.41 1531.41 Q2988.11 1531.41 2987.21 1532.34 Q2986.33 1533.26 2986.33 1535.67 L2986.33 1537.96 L2993.35 1537.96 L2993.35 1541.27 L2986.33 1541.27 L2986.33 1563.89 L2982.05 1563.89 L2982.05 1541.27 L2977.98 1541.27 L2977.98 1537.96 L2982.05 1537.96 L2982.05 1536.16 Q2982.05 1531.83 2984.06 1529.86 Q2986.08 1527.87 2990.45 1527.87 L2994.48 1527.87 Z" fill="#000000" fill-rule="nonzero" fill-opacity="1" /><path clip-path="url(#clip720)" d="M3011.17 1527.87 L3011.17 1531.41 L3007.1 1531.41 Q3004.8 1531.41 3003.9 1532.34 Q3003.02 1533.26 3003.02 1535.67 L3003.02 1537.96 L3010.04 1537.96 L3010.04 1541.27 L3003.02 1541.27 L3003.02 1563.89 L2998.74 1563.89 L2998.74 1541.27 L2994.66 1541.27 L2994.66 1537.96 L2998.74 1537.96 L2998.74 1536.16 Q2998.74 1531.83 3000.75 1529.86 Q3002.77 1527.87 3007.14 1527.87 L3011.17 1527.87 Z" fill="#000000" fill-rule="nonzero" fill-opacity="1" /><path clip-path="url(#clip720)" d="M3011.89 1558.01 L3016.77 1558.01 L3016.77 1563.89 L3011.89 1563.89 L3011.89 1558.01 Z" fill="#000000" fill-rule="nonzero" fill-opacity="1" /><path clip-path="url(#clip720)" d="M3025.68 1527.92 L3029.39 1527.92 Q3032.86 1533.38 3034.57 1538.61 Q3036.31 1543.84 3036.31 1549 Q3036.31 1554.19 3034.57 1559.44 Q3032.86 1564.7 3029.39 1570.14 L3025.68 1570.14 Q3028.76 1564.84 3030.27 1559.61 Q3031.79 1554.35 3031.79 1549 Q3031.79 1543.66 3030.27 1538.45 Q3028.76 1533.24 3025.68 1527.92 Z" fill="#000000" fill-rule="nonzero" fill-opacity="1" /><polyline clip-path="url(#clip720)" style="stroke:#000000; stroke-linecap:round; stroke-linejoin:round; stroke-width:4; stroke-opacity:1; fill:none" points="364.782,1495.09 364.782,47.2441 "/>
<polyline clip-path="url(#clip720)" style="stroke:#000000; stroke-linecap:round; stroke-linejoin:round; stroke-width:4; stroke-opacity:1; fill:none" points="364.782,1358.46 383.679,1358.46 "/>
<polyline clip-path="url(#clip720)" style="stroke:#000000; stroke-linecap:round; stroke-linejoin:round; stroke-width:4; stroke-opacity:1; fill:none" points="364.782,936.456 383.679,936.456 "/>
<polyline clip-path="url(#clip720)" style="stroke:#000000; stroke-linecap:round; stroke-linejoin:round; stroke-width:4; stroke-opacity:1; fill:none" points="364.782,514.451 383.679,514.451 "/>
<polyline clip-path="url(#clip720)" style="stroke:#000000; stroke-linecap:round; stroke-linejoin:round; stroke-width:4; stroke-opacity:1; fill:none" points="364.782,92.4473 383.679,92.4473 "/>
<path clip-path="url(#clip720)" d="M110.718 1363.04 Q107.57 1363.04 105.718 1365.2 Q103.889 1367.35 103.889 1371.1 Q103.889 1374.83 105.718 1377 Q107.57 1379.16 110.718 1379.16 Q113.866 1379.16 115.695 1377 Q117.547 1374.83 117.547 1371.1 Q117.547 1367.35 115.695 1365.2 Q113.866 1363.04 110.718 1363.04 M120 1348.39 L120 1352.65 Q118.241 1351.82 116.436 1351.38 Q114.653 1350.94 112.894 1350.94 Q108.264 1350.94 105.811 1354.06 Q103.38 1357.19 103.033 1363.51 Q104.399 1361.49 106.459 1360.43 Q108.519 1359.34 110.996 1359.34 Q116.204 1359.34 119.213 1362.51 Q122.246 1365.66 122.246 1371.1 Q122.246 1376.42 119.098 1379.64 Q115.95 1382.86 110.718 1382.86 Q104.723 1382.86 101.551 1378.28 Q98.3802 1373.67 98.3802 1364.94 Q98.3802 1356.75 102.269 1351.89 Q106.158 1347 112.709 1347 Q114.468 1347 116.25 1347.35 Q118.056 1347.7 120 1348.39 Z" fill="#000000" fill-rule="nonzero" fill-opacity="1" /><path clip-path="url(#clip720)" d="M130.301 1376.31 L135.186 1376.31 L135.186 1382.19 L130.301 1382.19 L130.301 1376.31 Z" fill="#000000" fill-rule="nonzero" fill-opacity="1" /><path clip-path="url(#clip720)" d="M145.417 1347.63 L163.773 1347.63 L163.773 1351.56 L149.699 1351.56 L149.699 1360.03 Q150.718 1359.69 151.736 1359.53 Q152.755 1359.34 153.773 1359.34 Q159.56 1359.34 162.94 1362.51 Q166.32 1365.68 166.32 1371.1 Q166.32 1376.68 162.847 1379.78 Q159.375 1382.86 153.056 1382.86 Q150.88 1382.86 148.611 1382.49 Q146.366 1382.12 143.959 1381.38 L143.959 1376.68 Q146.042 1377.81 148.264 1378.37 Q150.486 1378.92 152.963 1378.92 Q156.968 1378.92 159.306 1376.82 Q161.644 1374.71 161.644 1371.1 Q161.644 1367.49 159.306 1365.38 Q156.968 1363.28 152.963 1363.28 Q151.088 1363.28 149.213 1363.69 Q147.361 1364.11 145.417 1364.99 L145.417 1347.63 Z" fill="#000000" fill-rule="nonzero" fill-opacity="1" /><path clip-path="url(#clip720)" d="M185.532 1350.71 Q181.921 1350.71 180.093 1354.27 Q178.287 1357.81 178.287 1364.94 Q178.287 1372.05 180.093 1375.61 Q181.921 1379.16 185.532 1379.16 Q189.167 1379.16 190.972 1375.61 Q192.801 1372.05 192.801 1364.94 Q192.801 1357.81 190.972 1354.27 Q189.167 1350.71 185.532 1350.71 M185.532 1347 Q191.343 1347 194.398 1351.61 Q197.477 1356.19 197.477 1364.94 Q197.477 1373.67 194.398 1378.28 Q191.343 1382.86 185.532 1382.86 Q179.722 1382.86 176.644 1378.28 Q173.588 1373.67 173.588 1364.94 Q173.588 1356.19 176.644 1351.61 Q179.722 1347 185.532 1347 Z" fill="#000000" fill-rule="nonzero" fill-opacity="1" /><path clip-path="url(#clip720)" d="M233.866 1356.72 L223.287 1367.35 L233.866 1377.93 L231.111 1380.73 L220.486 1370.1 L209.861 1380.73 L207.13 1377.93 L217.685 1367.35 L207.13 1356.72 L209.861 1353.92 L220.486 1364.55 L231.111 1353.92 L233.866 1356.72 Z" fill="#000000" fill-rule="nonzero" fill-opacity="1" /><path clip-path="url(#clip720)" d="M246.227 1378.25 L253.865 1378.25 L253.865 1351.89 L245.555 1353.55 L245.555 1349.29 L253.819 1347.63 L258.495 1347.63 L258.495 1378.25 L266.134 1378.25 L266.134 1382.19 L246.227 1382.19 L246.227 1378.25 Z" fill="#000000" fill-rule="nonzero" fill-opacity="1" /><path clip-path="url(#clip720)" d="M285.578 1350.71 Q281.967 1350.71 280.138 1354.27 Q278.333 1357.81 278.333 1364.94 Q278.333 1372.05 280.138 1375.61 Q281.967 1379.16 285.578 1379.16 Q289.212 1379.16 291.018 1375.61 Q292.847 1372.05 292.847 1364.94 Q292.847 1357.81 291.018 1354.27 Q289.212 1350.71 285.578 1350.71 M285.578 1347 Q291.388 1347 294.444 1351.61 Q297.523 1356.19 297.523 1364.94 Q297.523 1373.67 294.444 1378.28 Q291.388 1382.86 285.578 1382.86 Q279.768 1382.86 276.689 1378.28 Q273.634 1373.67 273.634 1364.94 Q273.634 1356.19 276.689 1351.61 Q279.768 1347 285.578 1347 Z" fill="#000000" fill-rule="nonzero" fill-opacity="1" /><path clip-path="url(#clip720)" d="M307.152 1341.44 Q304.444 1341.44 302.883 1342.89 Q301.341 1344.34 301.341 1346.88 Q301.341 1349.42 302.883 1350.87 Q304.444 1352.31 307.152 1352.31 Q309.861 1352.31 311.422 1350.87 Q312.983 1349.4 312.983 1346.88 Q312.983 1344.34 311.422 1342.89 Q309.879 1341.44 307.152 1341.44 M303.353 1339.82 Q300.908 1339.22 299.535 1337.55 Q298.181 1335.88 298.181 1333.47 Q298.181 1330.1 300.569 1328.15 Q302.977 1326.19 307.152 1326.19 Q311.346 1326.19 313.735 1328.15 Q316.123 1330.1 316.123 1333.47 Q316.123 1335.88 314.751 1337.55 Q313.396 1339.22 310.97 1339.82 Q313.716 1340.46 315.24 1342.33 Q316.782 1344.19 316.782 1346.88 Q316.782 1350.96 314.28 1353.14 Q311.798 1355.32 307.152 1355.32 Q302.507 1355.32 300.005 1353.14 Q297.523 1350.96 297.523 1346.88 Q297.523 1344.19 299.065 1342.33 Q300.607 1340.46 303.353 1339.82 M301.961 1333.83 Q301.961 1336.01 303.315 1337.23 Q304.688 1338.45 307.152 1338.45 Q309.597 1338.45 310.97 1337.23 Q312.362 1336.01 312.362 1333.83 Q312.362 1331.64 310.97 1330.42 Q309.597 1329.2 307.152 1329.2 Q304.688 1329.2 303.315 1330.42 Q301.961 1331.64 301.961 1333.83 Z" fill="#000000" fill-rule="nonzero" fill-opacity="1" /><path clip-path="url(#clip720)" d="M110.718 941.04 Q107.57 941.04 105.718 943.193 Q103.889 945.345 103.889 949.095 Q103.889 952.822 105.718 954.998 Q107.57 957.151 110.718 957.151 Q113.866 957.151 115.695 954.998 Q117.547 952.822 117.547 949.095 Q117.547 945.345 115.695 943.193 Q113.866 941.04 110.718 941.04 M120 926.387 L120 930.646 Q118.241 929.813 116.436 929.373 Q114.653 928.933 112.894 928.933 Q108.264 928.933 105.811 932.058 Q103.38 935.183 103.033 941.503 Q104.399 939.489 106.459 938.424 Q108.519 937.336 110.996 937.336 Q116.204 937.336 119.213 940.507 Q122.246 943.656 122.246 949.095 Q122.246 954.419 119.098 957.637 Q115.95 960.855 110.718 960.855 Q104.723 960.855 101.551 956.271 Q98.3802 951.665 98.3802 942.938 Q98.3802 934.744 102.269 929.883 Q106.158 924.998 112.709 924.998 Q114.468 924.998 116.25 925.346 Q118.056 925.693 120 926.387 Z" fill="#000000" fill-rule="nonzero" fill-opacity="1" /><path clip-path="url(#clip720)" d="M130.301 954.304 L135.186 954.304 L135.186 960.183 L130.301 960.183 L130.301 954.304 Z" fill="#000000" fill-rule="nonzero" fill-opacity="1" /><path clip-path="url(#clip720)" d="M155.949 941.04 Q152.801 941.04 150.949 943.193 Q149.121 945.345 149.121 949.095 Q149.121 952.822 150.949 954.998 Q152.801 957.151 155.949 957.151 Q159.097 957.151 160.926 954.998 Q162.778 952.822 162.778 949.095 Q162.778 945.345 160.926 943.193 Q159.097 941.04 155.949 941.04 M165.232 926.387 L165.232 930.646 Q163.472 929.813 161.667 929.373 Q159.884 928.933 158.125 928.933 Q153.496 928.933 151.042 932.058 Q148.611 935.183 148.264 941.503 Q149.63 939.489 151.69 938.424 Q153.75 937.336 156.227 937.336 Q161.435 937.336 164.445 940.507 Q167.477 943.656 167.477 949.095 Q167.477 954.419 164.329 957.637 Q161.181 960.855 155.949 960.855 Q149.954 960.855 146.783 956.271 Q143.611 951.665 143.611 942.938 Q143.611 934.744 147.5 929.883 Q151.389 924.998 157.94 924.998 Q159.699 924.998 161.482 925.346 Q163.287 925.693 165.232 926.387 Z" fill="#000000" fill-rule="nonzero" fill-opacity="1" /><path clip-path="url(#clip720)" d="M185.532 928.702 Q181.921 928.702 180.093 932.267 Q178.287 935.808 178.287 942.938 Q178.287 950.044 180.093 953.609 Q181.921 957.151 185.532 957.151 Q189.167 957.151 190.972 953.609 Q192.801 950.044 192.801 942.938 Q192.801 935.808 190.972 932.267 Q189.167 928.702 185.532 928.702 M185.532 924.998 Q191.343 924.998 194.398 929.605 Q197.477 934.188 197.477 942.938 Q197.477 951.665 194.398 956.271 Q191.343 960.855 185.532 960.855 Q179.722 960.855 176.644 956.271 Q173.588 951.665 173.588 942.938 Q173.588 934.188 176.644 929.605 Q179.722 924.998 185.532 924.998 Z" fill="#000000" fill-rule="nonzero" fill-opacity="1" /><path clip-path="url(#clip720)" d="M233.866 934.72 L223.287 945.345 L233.866 955.924 L231.111 958.725 L220.486 948.1 L209.861 958.725 L207.13 955.924 L217.685 945.345 L207.13 934.72 L209.861 931.92 L220.486 942.545 L231.111 931.92 L233.866 934.72 Z" fill="#000000" fill-rule="nonzero" fill-opacity="1" /><path clip-path="url(#clip720)" d="M246.227 956.248 L253.865 956.248 L253.865 929.883 L245.555 931.549 L245.555 927.29 L253.819 925.623 L258.495 925.623 L258.495 956.248 L266.134 956.248 L266.134 960.183 L246.227 960.183 L246.227 956.248 Z" fill="#000000" fill-rule="nonzero" fill-opacity="1" /><path clip-path="url(#clip720)" d="M285.578 928.702 Q281.967 928.702 280.138 932.267 Q278.333 935.808 278.333 942.938 Q278.333 950.044 280.138 953.609 Q281.967 957.151 285.578 957.151 Q289.212 957.151 291.018 953.609 Q292.847 950.044 292.847 942.938 Q292.847 935.808 291.018 932.267 Q289.212 928.702 285.578 928.702 M285.578 924.998 Q291.388 924.998 294.444 929.605 Q297.523 934.188 297.523 942.938 Q297.523 951.665 294.444 956.271 Q291.388 960.855 285.578 960.855 Q279.768 960.855 276.689 956.271 Q273.634 951.665 273.634 942.938 Q273.634 934.188 276.689 929.605 Q279.768 924.998 285.578 924.998 Z" fill="#000000" fill-rule="nonzero" fill-opacity="1" /><path clip-path="url(#clip720)" d="M307.152 919.438 Q304.444 919.438 302.883 920.886 Q301.341 922.335 301.341 924.874 Q301.341 927.413 302.883 928.861 Q304.444 930.309 307.152 930.309 Q309.861 930.309 311.422 928.861 Q312.983 927.394 312.983 924.874 Q312.983 922.335 311.422 920.886 Q309.879 919.438 307.152 919.438 M303.353 917.821 Q300.908 917.219 299.535 915.545 Q298.181 913.871 298.181 911.464 Q298.181 908.097 300.569 906.141 Q302.977 904.185 307.152 904.185 Q311.346 904.185 313.735 906.141 Q316.123 908.097 316.123 911.464 Q316.123 913.871 314.751 915.545 Q313.396 917.219 310.97 917.821 Q313.716 918.46 315.24 920.322 Q316.782 922.184 316.782 924.874 Q316.782 928.955 314.28 931.137 Q311.798 933.318 307.152 933.318 Q302.507 933.318 300.005 931.137 Q297.523 928.955 297.523 924.874 Q297.523 922.184 299.065 920.322 Q300.607 918.46 303.353 917.821 M301.961 911.821 Q301.961 914.003 303.315 915.225 Q304.688 916.448 307.152 916.448 Q309.597 916.448 310.97 915.225 Q312.362 914.003 312.362 911.821 Q312.362 909.639 310.97 908.417 Q309.597 907.194 307.152 907.194 Q304.688 907.194 303.315 908.417 Q301.961 909.639 301.961 911.821 Z" fill="#000000" fill-rule="nonzero" fill-opacity="1" /><path clip-path="url(#clip720)" d="M110.718 519.036 Q107.57 519.036 105.718 521.188 Q103.889 523.341 103.889 527.091 Q103.889 530.818 105.718 532.994 Q107.57 535.147 110.718 535.147 Q113.866 535.147 115.695 532.994 Q117.547 530.818 117.547 527.091 Q117.547 523.341 115.695 521.188 Q113.866 519.036 110.718 519.036 M120 504.383 L120 508.642 Q118.241 507.809 116.436 507.369 Q114.653 506.929 112.894 506.929 Q108.264 506.929 105.811 510.054 Q103.38 513.179 103.033 519.499 Q104.399 517.485 106.459 516.42 Q108.519 515.332 110.996 515.332 Q116.204 515.332 119.213 518.503 Q122.246 521.651 122.246 527.091 Q122.246 532.415 119.098 535.633 Q115.95 538.85 110.718 538.85 Q104.723 538.85 101.551 534.267 Q98.3802 529.661 98.3802 520.934 Q98.3802 512.739 102.269 507.878 Q106.158 502.994 112.709 502.994 Q114.468 502.994 116.25 503.341 Q118.056 503.689 120 504.383 Z" fill="#000000" fill-rule="nonzero" fill-opacity="1" /><path clip-path="url(#clip720)" d="M130.301 532.299 L135.186 532.299 L135.186 538.179 L130.301 538.179 L130.301 532.299 Z" fill="#000000" fill-rule="nonzero" fill-opacity="1" /><path clip-path="url(#clip720)" d="M144.19 503.619 L166.412 503.619 L166.412 505.61 L153.866 538.179 L148.982 538.179 L160.787 507.554 L144.19 507.554 L144.19 503.619 Z" fill="#000000" fill-rule="nonzero" fill-opacity="1" /><path clip-path="url(#clip720)" d="M185.532 506.698 Q181.921 506.698 180.093 510.263 Q178.287 513.804 178.287 520.934 Q178.287 528.04 180.093 531.605 Q181.921 535.147 185.532 535.147 Q189.167 535.147 190.972 531.605 Q192.801 528.04 192.801 520.934 Q192.801 513.804 190.972 510.263 Q189.167 506.698 185.532 506.698 M185.532 502.994 Q191.343 502.994 194.398 507.601 Q197.477 512.184 197.477 520.934 Q197.477 529.661 194.398 534.267 Q191.343 538.85 185.532 538.85 Q179.722 538.85 176.644 534.267 Q173.588 529.661 173.588 520.934 Q173.588 512.184 176.644 507.601 Q179.722 502.994 185.532 502.994 Z" fill="#000000" fill-rule="nonzero" fill-opacity="1" /><path clip-path="url(#clip720)" d="M233.866 512.716 L223.287 523.341 L233.866 533.92 L231.111 536.721 L220.486 526.096 L209.861 536.721 L207.13 533.92 L217.685 523.341 L207.13 512.716 L209.861 509.915 L220.486 520.54 L231.111 509.915 L233.866 512.716 Z" fill="#000000" fill-rule="nonzero" fill-opacity="1" /><path clip-path="url(#clip720)" d="M246.227 534.244 L253.865 534.244 L253.865 507.878 L245.555 509.545 L245.555 505.286 L253.819 503.619 L258.495 503.619 L258.495 534.244 L266.134 534.244 L266.134 538.179 L246.227 538.179 L246.227 534.244 Z" fill="#000000" fill-rule="nonzero" fill-opacity="1" /><path clip-path="url(#clip720)" d="M285.578 506.698 Q281.967 506.698 280.138 510.263 Q278.333 513.804 278.333 520.934 Q278.333 528.04 280.138 531.605 Q281.967 535.147 285.578 535.147 Q289.212 535.147 291.018 531.605 Q292.847 528.04 292.847 520.934 Q292.847 513.804 291.018 510.263 Q289.212 506.698 285.578 506.698 M285.578 502.994 Q291.388 502.994 294.444 507.601 Q297.523 512.184 297.523 520.934 Q297.523 529.661 294.444 534.267 Q291.388 538.85 285.578 538.85 Q279.768 538.85 276.689 534.267 Q273.634 529.661 273.634 520.934 Q273.634 512.184 276.689 507.601 Q279.768 502.994 285.578 502.994 Z" fill="#000000" fill-rule="nonzero" fill-opacity="1" /><path clip-path="url(#clip720)" d="M307.152 497.434 Q304.444 497.434 302.883 498.882 Q301.341 500.33 301.341 502.869 Q301.341 505.408 302.883 506.857 Q304.444 508.305 307.152 508.305 Q309.861 508.305 311.422 506.857 Q312.983 505.39 312.983 502.869 Q312.983 500.33 311.422 498.882 Q309.879 497.434 307.152 497.434 M303.353 495.817 Q300.908 495.215 299.535 493.541 Q298.181 491.867 298.181 489.459 Q298.181 486.093 300.569 484.137 Q302.977 482.181 307.152 482.181 Q311.346 482.181 313.735 484.137 Q316.123 486.093 316.123 489.459 Q316.123 491.867 314.751 493.541 Q313.396 495.215 310.97 495.817 Q313.716 496.456 315.24 498.318 Q316.782 500.18 316.782 502.869 Q316.782 506.951 314.28 509.132 Q311.798 511.314 307.152 511.314 Q302.507 511.314 300.005 509.132 Q297.523 506.951 297.523 502.869 Q297.523 500.18 299.065 498.318 Q300.607 496.456 303.353 495.817 M301.961 489.817 Q301.961 491.999 303.315 493.221 Q304.688 494.444 307.152 494.444 Q309.597 494.444 310.97 493.221 Q312.362 491.999 312.362 489.817 Q312.362 487.635 310.97 486.413 Q309.597 485.19 307.152 485.19 Q304.688 485.19 303.315 486.413 Q301.961 487.635 301.961 489.817 Z" fill="#000000" fill-rule="nonzero" fill-opacity="1" /><path clip-path="url(#clip720)" d="M110.718 97.0315 Q107.57 97.0315 105.718 99.1842 Q103.889 101.337 103.889 105.087 Q103.889 108.814 105.718 110.99 Q107.57 113.142 110.718 113.142 Q113.866 113.142 115.695 110.99 Q117.547 108.814 117.547 105.087 Q117.547 101.337 115.695 99.1842 Q113.866 97.0315 110.718 97.0315 M120 82.3788 L120 86.638 Q118.241 85.8047 116.436 85.3649 Q114.653 84.925 112.894 84.925 Q108.264 84.925 105.811 88.05 Q103.38 91.175 103.033 97.4944 Q104.399 95.4805 106.459 94.4157 Q108.519 93.3278 110.996 93.3278 Q116.204 93.3278 119.213 96.4991 Q122.246 99.6472 122.246 105.087 Q122.246 110.411 119.098 113.629 Q115.95 116.846 110.718 116.846 Q104.723 116.846 101.551 112.263 Q98.3802 107.656 98.3802 98.9296 Q98.3802 90.7352 102.269 85.8741 Q106.158 80.9899 112.709 80.9899 Q114.468 80.9899 116.25 81.3371 Q118.056 81.6843 120 82.3788 Z" fill="#000000" fill-rule="nonzero" fill-opacity="1" /><path clip-path="url(#clip720)" d="M130.301 110.295 L135.186 110.295 L135.186 116.175 L130.301 116.175 L130.301 110.295 Z" fill="#000000" fill-rule="nonzero" fill-opacity="1" /><path clip-path="url(#clip720)" d="M155.371 99.7629 Q152.037 99.7629 150.116 101.545 Q148.218 103.328 148.218 106.453 Q148.218 109.578 150.116 111.36 Q152.037 113.142 155.371 113.142 Q158.704 113.142 160.625 111.36 Q162.546 109.555 162.546 106.453 Q162.546 103.328 160.625 101.545 Q158.727 99.7629 155.371 99.7629 M150.695 97.7722 Q147.685 97.0315 145.996 94.9713 Q144.329 92.9111 144.329 89.9482 Q144.329 85.8047 147.269 83.3973 Q150.232 80.9899 155.371 80.9899 Q160.533 80.9899 163.472 83.3973 Q166.412 85.8047 166.412 89.9482 Q166.412 92.9111 164.722 94.9713 Q163.056 97.0315 160.07 97.7722 Q163.449 98.5592 165.324 100.851 Q167.222 103.143 167.222 106.453 Q167.222 111.476 164.144 114.161 Q161.088 116.846 155.371 116.846 Q149.653 116.846 146.574 114.161 Q143.519 111.476 143.519 106.453 Q143.519 103.143 145.417 100.851 Q147.315 98.5592 150.695 97.7722 M148.982 90.388 Q148.982 93.0731 150.648 94.5778 Q152.338 96.0824 155.371 96.0824 Q158.38 96.0824 160.07 94.5778 Q161.783 93.0731 161.783 90.388 Q161.783 87.7028 160.07 86.1982 Q158.38 84.6936 155.371 84.6936 Q152.338 84.6936 150.648 86.1982 Q148.982 87.7028 148.982 90.388 Z" fill="#000000" fill-rule="nonzero" fill-opacity="1" /><path clip-path="url(#clip720)" d="M185.532 84.6936 Q181.921 84.6936 180.093 88.2584 Q178.287 91.8 178.287 98.9296 Q178.287 106.036 180.093 109.601 Q181.921 113.142 185.532 113.142 Q189.167 113.142 190.972 109.601 Q192.801 106.036 192.801 98.9296 Q192.801 91.8 190.972 88.2584 Q189.167 84.6936 185.532 84.6936 M185.532 80.9899 Q191.343 80.9899 194.398 85.5963 Q197.477 90.1796 197.477 98.9296 Q197.477 107.656 194.398 112.263 Q191.343 116.846 185.532 116.846 Q179.722 116.846 176.644 112.263 Q173.588 107.656 173.588 98.9296 Q173.588 90.1796 176.644 85.5963 Q179.722 80.9899 185.532 80.9899 Z" fill="#000000" fill-rule="nonzero" fill-opacity="1" /><path clip-path="url(#clip720)" d="M233.866 90.712 L223.287 101.337 L233.866 111.916 L231.111 114.717 L220.486 104.092 L209.861 114.717 L207.13 111.916 L217.685 101.337 L207.13 90.712 L209.861 87.9111 L220.486 98.5361 L231.111 87.9111 L233.866 90.712 Z" fill="#000000" fill-rule="nonzero" fill-opacity="1" /><path clip-path="url(#clip720)" d="M246.227 112.24 L253.865 112.24 L253.865 85.8741 L245.555 87.5408 L245.555 83.2815 L253.819 81.6149 L258.495 81.6149 L258.495 112.24 L266.134 112.24 L266.134 116.175 L246.227 116.175 L246.227 112.24 Z" fill="#000000" fill-rule="nonzero" fill-opacity="1" /><path clip-path="url(#clip720)" d="M285.578 84.6936 Q281.967 84.6936 280.138 88.2584 Q278.333 91.8 278.333 98.9296 Q278.333 106.036 280.138 109.601 Q281.967 113.142 285.578 113.142 Q289.212 113.142 291.018 109.601 Q292.847 106.036 292.847 98.9296 Q292.847 91.8 291.018 88.2584 Q289.212 84.6936 285.578 84.6936 M285.578 80.9899 Q291.388 80.9899 294.444 85.5963 Q297.523 90.1796 297.523 98.9296 Q297.523 107.656 294.444 112.263 Q291.388 116.846 285.578 116.846 Q279.768 116.846 276.689 112.263 Q273.634 107.656 273.634 98.9296 Q273.634 90.1796 276.689 85.5963 Q279.768 80.9899 285.578 80.9899 Z" fill="#000000" fill-rule="nonzero" fill-opacity="1" /><path clip-path="url(#clip720)" d="M307.152 75.4298 Q304.444 75.4298 302.883 76.878 Q301.341 78.3262 301.341 80.8652 Q301.341 83.4043 302.883 84.8525 Q304.444 86.3007 307.152 86.3007 Q309.861 86.3007 311.422 84.8525 Q312.983 83.3855 312.983 80.8652 Q312.983 78.3262 311.422 76.878 Q309.879 75.4298 307.152 75.4298 M303.353 73.8123 Q300.908 73.2105 299.535 71.5366 Q298.181 69.8627 298.181 67.4553 Q298.181 64.0887 300.569 62.1327 Q302.977 60.1767 307.152 60.1767 Q311.346 60.1767 313.735 62.1327 Q316.123 64.0887 316.123 67.4553 Q316.123 69.8627 314.751 71.5366 Q313.396 73.2105 310.97 73.8123 Q313.716 74.4518 315.24 76.3137 Q316.782 78.1757 316.782 80.8652 Q316.782 84.9465 314.28 87.1282 Q311.798 89.3099 307.152 89.3099 Q302.507 89.3099 300.005 87.1282 Q297.523 84.9465 297.523 80.8652 Q297.523 78.1757 299.065 76.3137 Q300.607 74.4518 303.353 73.8123 M301.961 67.8126 Q301.961 69.9943 303.315 71.2168 Q304.688 72.4393 307.152 72.4393 Q309.597 72.4393 310.97 71.2168 Q312.362 69.9943 312.362 67.8126 Q312.362 65.6309 310.97 64.4084 Q309.597 63.1859 307.152 63.1859 Q304.688 63.1859 303.315 64.4084 Q301.961 65.6309 301.961 67.8126 Z" fill="#000000" fill-rule="nonzero" fill-opacity="1" /><path clip-path="url(#clip720)" d="M-9.64527 840.632 L0.4762 840.632 L0.4762 828.569 L5.02768 828.569 L5.02768 840.632 L24.3794 840.632 Q28.7399 840.632 29.9813 839.454 Q31.2226 838.245 31.2226 834.584 L31.2226 828.569 L36.1242 828.569 L36.1242 834.584 Q36.1242 841.364 33.6097 843.942 Q31.0634 846.52 24.3794 846.52 L5.02768 846.52 L5.02768 850.817 L0.4762 850.817 L0.4762 846.52 L-9.64527 846.52 L-9.64527 840.632 Z" fill="#000000" fill-rule="nonzero" fill-opacity="1" /><path clip-path="url(#clip720)" d="M-11.3958 789.738 L-11.3958 784.327 L42.1716 800.878 L42.1716 806.289 L-11.3958 789.738 Z" fill="#000000" fill-rule="nonzero" fill-opacity="1" /><path clip-path="url(#clip720)" d="M14.6081 727.831 L36.1242 727.831 L36.1242 733.688 L14.799 733.688 Q9.7383 733.688 7.22385 735.661 Q4.7094 737.635 4.7094 741.581 Q4.7094 746.324 7.73311 749.061 Q10.7568 751.798 15.9767 751.798 L36.1242 751.798 L36.1242 757.687 L0.4762 757.687 L0.4762 751.798 L6.01437 751.798 Q2.79968 749.698 1.20826 746.865 Q-0.38317 744 -0.38317 740.276 Q-0.38317 734.133 3.43625 730.982 Q7.22385 727.831 14.6081 727.831 Z" fill="#000000" fill-rule="nonzero" fill-opacity="1" /><path clip-path="url(#clip720)" d="M1.52654 693.425 L7.06471 693.425 Q5.79157 695.907 5.15499 698.581 Q4.51842 701.255 4.51842 704.119 Q4.51842 708.48 5.85522 710.676 Q7.19202 712.84 9.86562 712.84 Q11.9026 712.84 13.0803 711.281 Q14.2261 709.721 15.2765 705.01 L15.7221 703.005 Q17.0589 696.767 19.5097 694.157 Q21.9286 691.515 26.2891 691.515 Q31.2544 691.515 34.1508 695.462 Q37.0472 699.377 37.0472 706.252 Q37.0472 709.116 36.4743 712.235 Q35.9332 715.323 34.8192 718.76 L28.7718 718.76 Q30.4587 715.514 31.318 712.363 Q32.1456 709.212 32.1456 706.124 Q32.1456 701.987 30.7451 699.759 Q29.3129 697.531 26.7347 697.531 Q24.3476 697.531 23.0745 699.154 Q21.8013 700.745 20.6237 706.188 L20.1462 708.225 Q19.0004 713.668 16.6451 716.087 Q14.258 718.506 10.1202 718.506 Q5.09134 718.506 2.35408 714.941 Q-0.38317 711.376 -0.38317 704.819 Q-0.38317 701.573 0.0942579 698.708 Q0.571686 695.844 1.52654 693.425 Z" fill="#000000" fill-rule="nonzero" fill-opacity="1" /><path clip-path="url(#clip722)" d="M972.366 1454.11 L990.367 1444.69 L1005.3 1435.27 L1016.68 1425.85 L1024.26 1416.43 L1028.02 1407.01 L1028.17 1397.59 L1025.11 1388.17 L1019.39 1378.75 L1011.64 1369.33 L1002.5 1359.91 L992.564 1350.49 L982.327 1341.07 L972.152 1331.65 L962.266 1322.23 L952.763 1312.81 L943.622 1303.39 L934.744 1293.97 L925.975 1284.55 L917.144 1275.13 L908.089 1265.71 L898.677 1256.29 L888.819 1246.87 L878.478 1237.45 L867.675 1228.03 L856.483 1218.61 L845.027 1209.19 L833.469 1199.77 L821.997 1190.35 L810.814 1180.93 L800.118 1171.51 L790.091 1162.09 L780.884 1152.67 L772.608 1143.25 L765.331 1133.83 L759.07 1124.41 L753.805 1114.99 L749.475 1105.57 L745.996 1096.15 L743.263 1086.73 L741.165 1077.31 L739.592 1067.89 L738.439 1058.47 L737.613 1049.05 L737.036 1039.63 L736.641 1030.21 L736.377 1020.79 L736.205 1011.37 L736.095 1001.95 L736.026 992.534 L735.984 983.114 L735.96 973.695 L735.945 964.275 L735.937 954.855 L735.932 945.435 L735.93 936.015 L735.929 926.595 L735.928 917.175 L735.927 907.755 L735.927 898.335 L735.927 888.915 L735.927 879.495 L735.927 870.075 L735.927 860.655 L735.927 851.235 L735.927 841.815 L735.927 832.396 L735.927 822.976 L735.927 813.556 L735.927 804.136 L735.927 794.716 L735.927 785.296 L735.927 775.876 L735.927 766.456 L735.927 757.036 L735.927 747.616 L735.927 738.196 L735.927 728.776 L735.927 719.356 L735.927 709.936 L735.927 700.516 L735.927 691.097 L735.927 681.677 L735.927 672.257 L735.927 662.837 L735.927 653.417 L735.927 643.997 L735.927 634.577 L735.927 625.157 L735.927 615.737 L735.927 606.317 L735.927 596.897 L735.927 587.477 L735.927 578.057 L735.927 568.637 L735.927 559.217 L735.927 549.798 L735.927 540.378 L735.927 530.958 L735.927 521.538 L735.927 512.118 L735.927 502.698 L735.927 493.278 L735.927 483.858 L735.927 474.438 L735.927 465.018 L735.927 455.598 L735.927 446.178 L735.927 436.758 L735.927 427.338 L735.927 417.918 L735.927 408.499 L735.928 399.079 L735.928 389.659 L735.929 380.239 L735.931 370.819 L735.934 361.399 L735.939 351.979 L735.949 342.559 L735.967 333.139 L735.996 323.719 L736.046 314.299 L736.126 304.879 L736.253 295.459 L736.449 286.039 L736.746 276.619 L737.184 267.2 L737.815 257.78 L738.7 248.36 L739.912 238.94 L741.53 229.52 L743.633 220.1 L746.296 210.68 L749.575 201.26 L753.502 191.84 L758.066 182.42 L763.21 173 L768.818 163.58 L774.719 154.16 L780.683 144.74 L786.444 135.32 L791.706 125.901 L796.18 116.481 L799.598 107.061 L801.748 97.6407 L802.493 88.2208 L669.361 88.2208 L670.106 97.6407 L672.257 107.061 L675.675 116.481 L680.148 125.901 L685.411 135.32 L691.171 144.74 L697.136 154.16 L703.036 163.58 L708.645 173 L713.788 182.42 L718.353 191.84 L722.279 201.26 L725.558 210.68 L728.221 220.1 L730.324 229.52 L731.942 238.94 L733.154 248.36 L734.04 257.78 L734.67 267.2 L735.108 276.619 L735.405 286.039 L735.602 295.459 L735.729 304.879 L735.809 314.299 L735.858 323.719 L735.888 333.139 L735.905 342.559 L735.915 351.979 L735.921 361.399 L735.924 370.819 L735.925 380.239 L735.926 389.659 L735.927 399.079 L735.927 408.499 L735.927 417.918 L735.927 427.338 L735.927 436.758 L735.927 446.178 L735.927 455.598 L735.927 465.018 L735.927 474.438 L735.927 483.858 L735.927 493.278 L735.927 502.698 L735.927 512.118 L735.927 521.538 L735.927 530.958 L735.927 540.378 L735.927 549.798 L735.927 559.217 L735.927 568.637 L735.927 578.057 L735.927 587.477 L735.927 596.897 L735.927 606.317 L735.927 615.737 L735.927 625.157 L735.927 634.577 L735.927 643.997 L735.927 653.417 L735.927 662.837 L735.927 672.257 L735.927 681.677 L735.927 691.097 L735.927 700.516 L735.927 709.936 L735.927 719.356 L735.927 728.776 L735.927 738.196 L735.927 747.616 L735.927 757.036 L735.927 766.456 L735.927 775.876 L735.927 785.296 L735.927 794.716 L735.927 804.136 L735.927 813.556 L735.927 822.976 L735.927 832.396 L735.927 841.815 L735.927 851.235 L735.927 860.655 L735.927 870.075 L735.927 879.495 L735.927 888.915 L735.927 898.335 L735.927 907.755 L735.926 917.175 L735.926 926.595 L735.924 936.015 L735.922 945.435 L735.917 954.855 L735.909 964.275 L735.895 973.695 L735.87 983.114 L735.828 992.534 L735.76 1001.95 L735.65 1011.37 L735.477 1020.79 L735.214 1030.21 L734.819 1039.63 L734.241 1049.05 L733.415 1058.47 L732.262 1067.89 L730.689 1077.31 L728.592 1086.73 L725.859 1096.15 L722.379 1105.57 L718.05 1114.99 L712.784 1124.41 L706.524 1133.83 L699.246 1143.25 L690.97 1152.67 L681.764 1162.09 L671.737 1171.51 L661.041 1180.93 L649.857 1190.35 L638.386 1199.77 L626.827 1209.19 L615.371 1218.61 L604.18 1228.03 L593.376 1237.45 L583.035 1246.87 L573.177 1256.29 L563.765 1265.71 L554.71 1275.13 L545.88 1284.55 L537.111 1293.97 L528.232 1303.39 L519.092 1312.81 L509.588 1322.23 L499.702 1331.65 L489.527 1341.07 L479.29 1350.49 L469.356 1359.91 L460.218 1369.33 L452.469 1378.75 L446.748 1388.17 L443.687 1397.59 L443.833 1407.01 L447.592 1416.43 L455.174 1425.85 L466.558 1435.27 L481.487 1444.69 L499.488 1454.11 L972.366 1454.11  Z" fill="#009af9" fill-rule="evenodd" fill-opacity="1"/>
<polyline clip-path="url(#clip722)" style="stroke:#000000; stroke-linecap:round; stroke-linejoin:round; stroke-width:4; stroke-opacity:1; fill:none" points="972.366,1454.11 990.367,1444.69 1005.3,1435.27 1016.68,1425.85 1024.26,1416.43 1028.02,1407.01 1028.17,1397.59 1025.11,1388.17 1019.39,1378.75 1011.64,1369.33 1002.5,1359.91 992.564,1350.49 982.327,1341.07 972.152,1331.65 962.266,1322.23 952.763,1312.81 943.622,1303.39 934.744,1293.97 925.975,1284.55 917.144,1275.13 908.089,1265.71 898.677,1256.29 888.819,1246.87 878.478,1237.45 867.675,1228.03 856.483,1218.61 845.027,1209.19 833.469,1199.77 821.997,1190.35 810.814,1180.93 800.118,1171.51 790.091,1162.09 780.884,1152.67 772.608,1143.25 765.331,1133.83 759.07,1124.41 753.805,1114.99 749.475,1105.57 745.996,1096.15 743.263,1086.73 741.165,1077.31 739.592,1067.89 738.439,1058.47 737.613,1049.05 737.036,1039.63 736.641,1030.21 736.377,1020.79 736.205,1011.37 736.095,1001.95 736.026,992.534 735.984,983.114 735.96,973.695 735.945,964.275 735.937,954.855 735.932,945.435 735.93,936.015 735.929,926.595 735.928,917.175 735.927,907.755 735.927,898.335 735.927,888.915 735.927,879.495 735.927,870.075 735.927,860.655 735.927,851.235 735.927,841.815 735.927,832.396 735.927,822.976 735.927,813.556 735.927,804.136 735.927,794.716 735.927,785.296 735.927,775.876 735.927,766.456 735.927,757.036 735.927,747.616 735.927,738.196 735.927,728.776 735.927,719.356 735.927,709.936 735.927,700.516 735.927,691.097 735.927,681.677 735.927,672.257 735.927,662.837 735.927,653.417 735.927,643.997 735.927,634.577 735.927,625.157 735.927,615.737 735.927,606.317 735.927,596.897 735.927,587.477 735.927,578.057 735.927,568.637 735.927,559.217 735.927,549.798 735.927,540.378 735.927,530.958 735.927,521.538 735.927,512.118 735.927,502.698 735.927,493.278 735.927,483.858 735.927,474.438 735.927,465.018 735.927,455.598 735.927,446.178 735.927,436.758 735.927,427.338 735.927,417.918 735.927,408.499 735.928,399.079 735.928,389.659 735.929,380.239 735.931,370.819 735.934,361.399 735.939,351.979 735.949,342.559 735.967,333.139 735.996,323.719 736.046,314.299 736.126,304.879 736.253,295.459 736.449,286.039 736.746,276.619 737.184,267.2 737.815,257.78 738.7,248.36 739.912,238.94 741.53,229.52 743.633,220.1 746.296,210.68 749.575,201.26 753.502,191.84 758.066,182.42 763.21,173 768.818,163.58 774.719,154.16 780.683,144.74 786.444,135.32 791.706,125.901 796.18,116.481 799.598,107.061 801.748,97.6407 802.493,88.2208 669.361,88.2208 670.106,97.6407 672.257,107.061 675.675,116.481 680.148,125.901 685.411,135.32 691.171,144.74 697.136,154.16 703.036,163.58 708.645,173 713.788,182.42 718.353,191.84 722.279,201.26 725.558,210.68 728.221,220.1 730.324,229.52 731.942,238.94 733.154,248.36 734.04,257.78 734.67,267.2 735.108,276.619 735.405,286.039 735.602,295.459 735.729,304.879 735.809,314.299 735.858,323.719 735.888,333.139 735.905,342.559 735.915,351.979 735.921,361.399 735.924,370.819 735.925,380.239 735.926,389.659 735.927,399.079 735.927,408.499 735.927,417.918 735.927,427.338 735.927,436.758 735.927,446.178 735.927,455.598 735.927,465.018 735.927,474.438 735.927,483.858 735.927,493.278 735.927,502.698 735.927,512.118 735.927,521.538 735.927,530.958 735.927,540.378 735.927,549.798 735.927,559.217 735.927,568.637 735.927,578.057 735.927,587.477 735.927,596.897 735.927,606.317 735.927,615.737 735.927,625.157 735.927,634.577 735.927,643.997 735.927,653.417 735.927,662.837 735.927,672.257 735.927,681.677 735.927,691.097 735.927,700.516 735.927,709.936 735.927,719.356 735.927,728.776 735.927,738.196 735.927,747.616 735.927,757.036 735.927,766.456 735.927,775.876 735.927,785.296 735.927,794.716 735.927,804.136 735.927,813.556 735.927,822.976 735.927,832.396 735.927,841.815 735.927,851.235 735.927,860.655 735.927,870.075 735.927,879.495 735.927,888.915 735.927,898.335 735.927,907.755 735.926,917.175 735.926,926.595 735.924,936.015 735.922,945.435 735.917,954.855 735.909,964.275 735.895,973.695 735.87,983.114 735.828,992.534 735.76,1001.95 735.65,1011.37 735.477,1020.79 735.214,1030.21 734.819,1039.63 734.241,1049.05 733.415,1058.47 732.262,1067.89 730.689,1077.31 728.592,1086.73 725.859,1096.15 722.379,1105.57 718.05,1114.99 712.784,1124.41 706.524,1133.83 699.246,1143.25 690.97,1152.67 681.764,1162.09 671.737,1171.51 661.041,1180.93 649.857,1190.35 638.386,1199.77 626.827,1209.19 615.371,1218.61 604.18,1228.03 593.376,1237.45 583.035,1246.87 573.177,1256.29 563.765,1265.71 554.71,1275.13 545.88,1284.55 537.111,1293.97 528.232,1303.39 519.092,1312.81 509.588,1322.23 499.702,1331.65 489.527,1341.07 479.29,1350.49 469.356,1359.91 460.218,1369.33 452.469,1378.75 446.748,1388.17 443.687,1397.59 443.833,1407.01 447.592,1416.43 455.174,1425.85 466.558,1435.27 481.487,1444.69 499.488,1454.11 972.366,1454.11 "/>
<path clip-path="url(#clip722)" d="M1838.45 1328.5 L1837.32 1326.58 L1835.22 1324.66 L1832.23 1322.74 L1828.46 1320.82 L1824.05 1318.9 L1819.14 1316.98 L1813.9 1315.06 L1808.47 1313.14 L1803.01 1311.22 L1797.65 1309.3 L1792.51 1307.38 L1787.68 1305.46 L1783.22 1303.54 L1779.19 1301.62 L1775.61 1299.7 L1772.48 1297.78 L1769.79 1295.87 L1767.52 1293.95 L1765.62 1292.03 L1764.07 1290.11 L1762.82 1288.19 L1761.82 1286.27 L1761.04 1284.35 L1760.44 1282.43 L1759.98 1280.51 L1759.64 1278.59 L1759.38 1276.67 L1759.2 1274.75 L1759.07 1272.83 L1758.97 1270.91 L1758.9 1268.99 L1758.86 1267.07 L1758.83 1265.15 L1758.81 1263.23 L1758.79 1261.31 L1758.78 1259.39 L1758.78 1257.47 L1758.77 1255.55 L1758.77 1253.63 L1758.77 1251.71 L1758.77 1249.8 L1758.77 1247.88 L1758.77 1245.96 L1758.77 1244.04 L1758.77 1242.12 L1758.77 1240.2 L1758.77 1238.28 L1758.77 1236.36 L1758.77 1234.44 L1758.77 1232.52 L1758.77 1230.6 L1758.77 1228.68 L1758.77 1226.76 L1758.78 1224.84 L1758.78 1222.92 L1758.79 1221 L1758.8 1219.08 L1758.82 1217.16 L1758.85 1215.24 L1758.9 1213.32 L1758.96 1211.4 L1759.06 1209.48 L1759.21 1207.56 L1759.41 1205.64 L1759.7 1203.73 L1760.11 1201.81 L1760.66 1199.89 L1761.42 1197.97 L1762.44 1196.05 L1763.79 1194.13 L1765.54 1192.21 L1767.81 1190.29 L1770.68 1188.37 L1774.28 1186.45 L1778.73 1184.53 L1784.15 1182.61 L1790.65 1180.69 L1798.34 1178.77 L1807.31 1176.85 L1817.62 1174.93 L1829.27 1173.01 L1842.24 1171.09 L1856.46 1169.17 L1871.8 1167.25 L1888.05 1165.33 L1904.97 1163.41 L1922.28 1161.49 L1939.65 1159.57 L1956.71 1157.65 L1973.13 1155.74 L1988.54 1153.82 L2002.63 1151.9 L2015.15 1149.98 L2025.88 1148.06 L2034.7 1146.14 L2041.55 1144.22 L2046.48 1142.3 L2049.57 1140.38 L2051.01 1138.46 L2051.01 1136.54 L2049.83 1134.62 L2047.74 1132.7 L2045.02 1130.78 L2041.9 1128.86 L2038.6 1126.94 L2035.3 1125.02 L2032.13 1123.1 L2029.14 1121.18 L2026.37 1119.26 L2023.79 1117.34 L2021.36 1115.42 L2018.97 1113.5 L2016.52 1111.58 L2013.91 1109.67 L2011 1107.75 L2007.7 1105.83 L2003.89 1103.91 L1999.49 1101.99 L1994.43 1100.07 L1988.65 1098.15 L1982.12 1096.23 L1974.84 1094.31 L1966.8 1092.39 L1958.03 1090.47 L1948.59 1088.55 L1938.53 1086.63 L1927.94 1084.71 L1589.6 1084.71 L1579.01 1086.63 L1568.95 1088.55 L1559.51 1090.47 L1550.74 1092.39 L1542.7 1094.31 L1535.41 1096.23 L1528.89 1098.15 L1523.11 1100.07 L1518.05 1101.99 L1513.65 1103.91 L1509.84 1105.83 L1506.54 1107.75 L1503.63 1109.67 L1501.02 1111.58 L1498.57 1113.5 L1496.18 1115.42 L1493.74 1117.34 L1491.17 1119.26 L1488.4 1121.18 L1485.41 1123.1 L1482.23 1125.02 L1478.94 1126.94 L1475.64 1128.86 L1472.52 1130.78 L1469.79 1132.7 L1467.71 1134.62 L1466.53 1136.54 L1466.53 1138.46 L1467.97 1140.38 L1471.06 1142.3 L1475.98 1144.22 L1482.84 1146.14 L1491.66 1148.06 L1502.39 1149.98 L1514.9 1151.9 L1529 1153.82 L1544.41 1155.74 L1560.82 1157.65 L1577.89 1159.57 L1595.25 1161.49 L1612.56 1163.41 L1629.49 1165.33 L1645.74 1167.25 L1661.07 1169.17 L1675.29 1171.09 L1688.27 1173.01 L1699.92 1174.93 L1710.22 1176.85 L1719.19 1178.77 L1726.89 1180.69 L1733.39 1182.61 L1738.81 1184.53 L1743.25 1186.45 L1746.85 1188.37 L1749.73 1190.29 L1751.99 1192.21 L1753.75 1194.13 L1755.1 1196.05 L1756.12 1197.97 L1756.87 1199.89 L1757.43 1201.81 L1757.84 1203.73 L1758.13 1205.64 L1758.33 1207.56 L1758.48 1209.48 L1758.57 1211.4 L1758.64 1213.32 L1758.69 1215.24 L1758.72 1217.16 L1758.74 1219.08 L1758.75 1221 L1758.76 1222.92 L1758.76 1224.84 L1758.76 1226.76 L1758.77 1228.68 L1758.77 1230.6 L1758.77 1232.52 L1758.77 1234.44 L1758.77 1236.36 L1758.77 1238.28 L1758.77 1240.2 L1758.77 1242.12 L1758.77 1244.04 L1758.77 1245.96 L1758.77 1247.88 L1758.77 1249.8 L1758.77 1251.71 L1758.77 1253.63 L1758.76 1255.55 L1758.76 1257.47 L1758.75 1259.39 L1758.74 1261.31 L1758.73 1263.23 L1758.71 1265.15 L1758.68 1267.07 L1758.63 1268.99 L1758.57 1270.91 L1758.47 1272.83 L1758.34 1274.75 L1758.15 1276.67 L1757.9 1278.59 L1757.55 1280.51 L1757.1 1282.43 L1756.49 1284.35 L1755.71 1286.27 L1754.72 1288.19 L1753.47 1290.11 L1751.91 1292.03 L1750.02 1293.95 L1747.75 1295.87 L1745.06 1297.78 L1741.93 1299.7 L1738.35 1301.62 L1734.32 1303.54 L1729.86 1305.46 L1725.03 1307.38 L1719.88 1309.3 L1714.52 1311.22 L1709.06 1313.14 L1703.64 1315.06 L1698.39 1316.98 L1693.49 1318.9 L1689.08 1320.82 L1685.31 1322.74 L1682.32 1324.66 L1680.22 1326.58 L1679.08 1328.5 L1838.45 1328.5  Z" fill="#e26f46" fill-rule="evenodd" fill-opacity="1"/>
<polyline clip-path="url(#clip722)" style="stroke:#000000; stroke-linecap:round; stroke-linejoin:round; stroke-width:4; stroke-opacity:1; fill:none" points="1838.45,1328.5 1837.32,1326.58 1835.22,1324.66 1832.23,1322.74 1828.46,1320.82 1824.05,1318.9 1819.14,1316.98 1813.9,1315.06 1808.47,1313.14 1803.01,1311.22 1797.65,1309.3 1792.51,1307.38 1787.68,1305.46 1783.22,1303.54 1779.19,1301.62 1775.61,1299.7 1772.48,1297.78 1769.79,1295.87 1767.52,1293.95 1765.62,1292.03 1764.07,1290.11 1762.82,1288.19 1761.82,1286.27 1761.04,1284.35 1760.44,1282.43 1759.98,1280.51 1759.64,1278.59 1759.38,1276.67 1759.2,1274.75 1759.07,1272.83 1758.97,1270.91 1758.9,1268.99 1758.86,1267.07 1758.83,1265.15 1758.81,1263.23 1758.79,1261.31 1758.78,1259.39 1758.78,1257.47 1758.77,1255.55 1758.77,1253.63 1758.77,1251.71 1758.77,1249.8 1758.77,1247.88 1758.77,1245.96 1758.77,1244.04 1758.77,1242.12 1758.77,1240.2 1758.77,1238.28 1758.77,1236.36 1758.77,1234.44 1758.77,1232.52 1758.77,1230.6 1758.77,1228.68 1758.77,1226.76 1758.78,1224.84 1758.78,1222.92 1758.79,1221 1758.8,1219.08 1758.82,1217.16 1758.85,1215.24 1758.9,1213.32 1758.96,1211.4 1759.06,1209.48 1759.21,1207.56 1759.41,1205.64 1759.7,1203.73 1760.11,1201.81 1760.66,1199.89 1761.42,1197.97 1762.44,1196.05 1763.79,1194.13 1765.54,1192.21 1767.81,1190.29 1770.68,1188.37 1774.28,1186.45 1778.73,1184.53 1784.15,1182.61 1790.65,1180.69 1798.34,1178.77 1807.31,1176.85 1817.62,1174.93 1829.27,1173.01 1842.24,1171.09 1856.46,1169.17 1871.8,1167.25 1888.05,1165.33 1904.97,1163.41 1922.28,1161.49 1939.65,1159.57 1956.71,1157.65 1973.13,1155.74 1988.54,1153.82 2002.63,1151.9 2015.15,1149.98 2025.88,1148.06 2034.7,1146.14 2041.55,1144.22 2046.48,1142.3 2049.57,1140.38 2051.01,1138.46 2051.01,1136.54 2049.83,1134.62 2047.74,1132.7 2045.02,1130.78 2041.9,1128.86 2038.6,1126.94 2035.3,1125.02 2032.13,1123.1 2029.14,1121.18 2026.37,1119.26 2023.79,1117.34 2021.36,1115.42 2018.97,1113.5 2016.52,1111.58 2013.91,1109.67 2011,1107.75 2007.7,1105.83 2003.89,1103.91 1999.49,1101.99 1994.43,1100.07 1988.65,1098.15 1982.12,1096.23 1974.84,1094.31 1966.8,1092.39 1958.03,1090.47 1948.59,1088.55 1938.53,1086.63 1927.94,1084.71 1589.6,1084.71 1579.01,1086.63 1568.95,1088.55 1559.51,1090.47 1550.74,1092.39 1542.7,1094.31 1535.41,1096.23 1528.89,1098.15 1523.11,1100.07 1518.05,1101.99 1513.65,1103.91 1509.84,1105.83 1506.54,1107.75 1503.63,1109.67 1501.02,1111.58 1498.57,1113.5 1496.18,1115.42 1493.74,1117.34 1491.17,1119.26 1488.4,1121.18 1485.41,1123.1 1482.23,1125.02 1478.94,1126.94 1475.64,1128.86 1472.52,1130.78 1469.79,1132.7 1467.71,1134.62 1466.53,1136.54 1466.53,1138.46 1467.97,1140.38 1471.06,1142.3 1475.98,1144.22 1482.84,1146.14 1491.66,1148.06 1502.39,1149.98 1514.9,1151.9 1529,1153.82 1544.41,1155.74 1560.82,1157.65 1577.89,1159.57 1595.25,1161.49 1612.56,1163.41 1629.49,1165.33 1645.74,1167.25 1661.07,1169.17 1675.29,1171.09 1688.27,1173.01 1699.92,1174.93 1710.22,1176.85 1719.19,1178.77 1726.89,1180.69 1733.39,1182.61 1738.81,1184.53 1743.25,1186.45 1746.85,1188.37 1749.73,1190.29 1751.99,1192.21 1753.75,1194.13 1755.1,1196.05 1756.12,1197.97 1756.87,1199.89 1757.43,1201.81 1757.84,1203.73 1758.13,1205.64 1758.33,1207.56 1758.48,1209.48 1758.57,1211.4 1758.64,1213.32 1758.69,1215.24 1758.72,1217.16 1758.74,1219.08 1758.75,1221 1758.76,1222.92 1758.76,1224.84 1758.76,1226.76 1758.77,1228.68 1758.77,1230.6 1758.77,1232.52 1758.77,1234.44 1758.77,1236.36 1758.77,1238.28 1758.77,1240.2 1758.77,1242.12 1758.77,1244.04 1758.77,1245.96 1758.77,1247.88 1758.77,1249.8 1758.77,1251.71 1758.77,1253.63 1758.76,1255.55 1758.76,1257.47 1758.75,1259.39 1758.74,1261.31 1758.73,1263.23 1758.71,1265.15 1758.68,1267.07 1758.63,1268.99 1758.57,1270.91 1758.47,1272.83 1758.34,1274.75 1758.15,1276.67 1757.9,1278.59 1757.55,1280.51 1757.1,1282.43 1756.49,1284.35 1755.71,1286.27 1754.72,1288.19 1753.47,1290.11 1751.91,1292.03 1750.02,1293.95 1747.75,1295.87 1745.06,1297.78 1741.93,1299.7 1738.35,1301.62 1734.32,1303.54 1729.86,1305.46 1725.03,1307.38 1719.88,1309.3 1714.52,1311.22 1709.06,1313.14 1703.64,1315.06 1698.39,1316.98 1693.49,1318.9 1689.08,1320.82 1685.31,1322.74 1682.32,1324.66 1680.22,1326.58 1679.08,1328.5 1838.45,1328.5 "/>
<path clip-path="url(#clip722)" d="M2855.38 1131.27 L2851.4 1129.17 L2844.59 1127.08 L2835.83 1124.98 L2826.14 1122.88 L2816.49 1120.79 L2807.68 1118.69 L2800.2 1116.59 L2794.25 1114.5 L2789.82 1112.4 L2786.69 1110.3 L2784.61 1108.21 L2783.3 1106.11 L2782.52 1104.01 L2782.08 1101.92 L2781.84 1099.82 L2781.72 1097.72 L2781.66 1095.63 L2781.63 1093.53 L2781.62 1091.43 L2781.61 1089.34 L2781.61 1087.24 L2781.61 1085.14 L2781.61 1083.05 L2781.61 1080.95 L2781.61 1078.85 L2781.61 1076.76 L2781.61 1074.66 L2781.61 1072.56 L2781.61 1070.47 L2781.61 1068.37 L2781.61 1066.27 L2781.61 1064.18 L2781.61 1062.08 L2781.61 1059.98 L2781.61 1057.89 L2781.61 1055.79 L2781.61 1053.69 L2781.61 1051.6 L2781.61 1049.5 L2781.61 1047.4 L2781.61 1045.31 L2781.61 1043.21 L2781.61 1041.11 L2781.61 1039.02 L2781.61 1036.92 L2781.61 1034.82 L2781.61 1032.73 L2781.61 1030.63 L2781.62 1028.53 L2781.62 1026.44 L2781.64 1024.34 L2781.69 1022.24 L2781.79 1020.15 L2782.01 1018.05 L2782.46 1015.95 L2783.31 1013.86 L2784.87 1011.76 L2787.57 1009.66 L2792.02 1007.57 L2799 1005.47 L2809.38 1003.37 L2824.01 1001.28 L2843.53 999.18 L2868.16 997.083 L2897.45 994.987 L2930.2 992.89 L2964.44 990.793 L2997.68 988.697 L3027.25 986.6 L3050.76 984.503 L3066.53 982.407 L3073.85 980.31 L3073.06 978.213 L3065.33 976.117 L3052.42 974.02 L3036.22 971.923 L3018.51 969.827 L3000.66 967.73 L2983.58 965.634 L2967.7 963.537 L2953.06 961.44 L2939.38 959.344 L2926.2 957.247 L2913.04 955.15 L2899.52 953.054 L2885.44 950.957 L2870.9 948.86 L2856.25 946.764 L2842.01 944.667 L2828.77 942.57 L2817.05 940.474 L2807.18 938.377 L2799.29 936.28 L2793.32 934.184 L2789.03 932.087 L2786.1 929.991 L2784.21 927.894 L2783.04 925.797 L2782.37 923.701 L2781.99 921.604 L2781.79 919.507 L2781.69 917.411 L2781.65 915.314 L2781.63 913.217 L2781.62 911.121 L2781.61 909.024 L2781.61 906.927 L2781.61 904.831 L2781.61 902.734 L2781.61 900.637 L2781.61 898.541 L2781.61 896.444 L2781.61 894.348 L2781.61 892.251 L2781.61 890.154 L2781.61 888.058 L2781.61 885.961 L2781.61 883.864 L2781.61 881.768 L2781.61 879.671 L2781.61 877.574 L2781.61 875.478 L2781.61 873.381 L2781.61 871.284 L2781.61 869.188 L2781.61 867.091 L2781.61 864.995 L2781.61 862.898 L2781.61 860.801 L2781.61 858.705 L2781.61 856.608 L2781.61 854.511 L2781.61 852.415 L2781.61 850.318 L2781.61 848.221 L2781.61 846.125 L2781.61 844.028 L2781.61 841.931 L2781.61 839.835 L2781.61 837.738 L2781.61 835.641 L2781.62 833.545 L2781.63 831.448 L2781.66 829.352 L2781.72 827.255 L2781.84 825.158 L2782.08 823.062 L2782.52 820.965 L2783.3 818.868 L2784.61 816.772 L2786.69 814.675 L2789.82 812.578 L2794.25 810.482 L2800.2 808.385 L2807.68 806.288 L2816.49 804.192 L2826.14 802.095 L2835.83 799.998 L2844.59 797.902 L2851.4 795.805 L2855.38 793.709 L2707.84 793.709 L2711.82 795.805 L2718.63 797.902 L2727.39 799.998 L2737.08 802.095 L2746.73 804.192 L2755.54 806.288 L2763.02 808.385 L2768.97 810.482 L2773.41 812.578 L2776.53 814.675 L2778.61 816.772 L2779.92 818.868 L2780.7 820.965 L2781.14 823.062 L2781.38 825.158 L2781.5 827.255 L2781.56 829.352 L2781.59 831.448 L2781.6 833.545 L2781.61 835.641 L2781.61 837.738 L2781.61 839.835 L2781.61 841.931 L2781.61 844.028 L2781.61 846.125 L2781.61 848.221 L2781.61 850.318 L2781.61 852.415 L2781.61 854.511 L2781.61 856.608 L2781.61 858.705 L2781.61 860.801 L2781.61 862.898 L2781.61 864.995 L2781.61 867.091 L2781.61 869.188 L2781.61 871.284 L2781.61 873.381 L2781.61 875.478 L2781.61 877.574 L2781.61 879.671 L2781.61 881.768 L2781.61 883.864 L2781.61 885.961 L2781.61 888.058 L2781.61 890.154 L2781.61 892.251 L2781.61 894.348 L2781.61 896.444 L2781.61 898.541 L2781.61 900.637 L2781.61 902.734 L2781.61 904.831 L2781.61 906.927 L2781.61 909.024 L2781.6 911.121 L2781.6 913.217 L2781.57 915.314 L2781.53 917.411 L2781.43 919.507 L2781.23 921.604 L2780.85 923.701 L2780.18 925.797 L2779.01 927.894 L2777.12 929.991 L2774.2 932.087 L2769.9 934.184 L2763.93 936.28 L2756.05 938.377 L2746.17 940.474 L2734.45 942.57 L2721.21 944.667 L2706.97 946.764 L2692.32 948.86 L2677.78 950.957 L2663.71 953.054 L2650.18 955.15 L2637.02 957.247 L2623.84 959.344 L2610.16 961.44 L2595.52 963.537 L2579.64 965.634 L2562.56 967.73 L2544.71 969.827 L2527 971.923 L2510.81 974.02 L2497.89 976.117 L2490.17 978.213 L2489.37 980.31 L2496.69 982.407 L2512.46 984.503 L2535.97 986.6 L2565.54 988.697 L2598.78 990.793 L2633.02 992.89 L2665.77 994.987 L2695.06 997.083 L2719.69 999.18 L2739.21 1001.28 L2753.84 1003.37 L2764.22 1005.47 L2771.2 1007.57 L2775.65 1009.66 L2778.35 1011.76 L2779.91 1013.86 L2780.76 1015.95 L2781.21 1018.05 L2781.43 1020.15 L2781.53 1022.24 L2781.58 1024.34 L2781.6 1026.44 L2781.61 1028.53 L2781.61 1030.63 L2781.61 1032.73 L2781.61 1034.82 L2781.61 1036.92 L2781.61 1039.02 L2781.61 1041.11 L2781.61 1043.21 L2781.61 1045.31 L2781.61 1047.4 L2781.61 1049.5 L2781.61 1051.6 L2781.61 1053.69 L2781.61 1055.79 L2781.61 1057.89 L2781.61 1059.98 L2781.61 1062.08 L2781.61 1064.18 L2781.61 1066.27 L2781.61 1068.37 L2781.61 1070.47 L2781.61 1072.56 L2781.61 1074.66 L2781.61 1076.76 L2781.61 1078.85 L2781.61 1080.95 L2781.61 1083.05 L2781.61 1085.14 L2781.61 1087.24 L2781.61 1089.34 L2781.6 1091.43 L2781.59 1093.53 L2781.56 1095.63 L2781.5 1097.72 L2781.38 1099.82 L2781.14 1101.92 L2780.7 1104.01 L2779.92 1106.11 L2778.61 1108.21 L2776.53 1110.3 L2773.41 1112.4 L2768.97 1114.5 L2763.02 1116.59 L2755.54 1118.69 L2746.73 1120.79 L2737.08 1122.88 L2727.39 1124.98 L2718.63 1127.08 L2711.82 1129.17 L2707.84 1131.27 L2855.38 1131.27  Z" fill="#c271d2" fill-rule="evenodd" fill-opacity="1"/>
<polyline clip-path="url(#clip722)" style="stroke:#000000; stroke-linecap:round; stroke-linejoin:round; stroke-width:4; stroke-opacity:1; fill:none" points="2855.38,1131.27 2851.4,1129.17 2844.59,1127.08 2835.83,1124.98 2826.14,1122.88 2816.49,1120.79 2807.68,1118.69 2800.2,1116.59 2794.25,1114.5 2789.82,1112.4 2786.69,1110.3 2784.61,1108.21 2783.3,1106.11 2782.52,1104.01 2782.08,1101.92 2781.84,1099.82 2781.72,1097.72 2781.66,1095.63 2781.63,1093.53 2781.62,1091.43 2781.61,1089.34 2781.61,1087.24 2781.61,1085.14 2781.61,1083.05 2781.61,1080.95 2781.61,1078.85 2781.61,1076.76 2781.61,1074.66 2781.61,1072.56 2781.61,1070.47 2781.61,1068.37 2781.61,1066.27 2781.61,1064.18 2781.61,1062.08 2781.61,1059.98 2781.61,1057.89 2781.61,1055.79 2781.61,1053.69 2781.61,1051.6 2781.61,1049.5 2781.61,1047.4 2781.61,1045.31 2781.61,1043.21 2781.61,1041.11 2781.61,1039.02 2781.61,1036.92 2781.61,1034.82 2781.61,1032.73 2781.61,1030.63 2781.62,1028.53 2781.62,1026.44 2781.64,1024.34 2781.69,1022.24 2781.79,1020.15 2782.01,1018.05 2782.46,1015.95 2783.31,1013.86 2784.87,1011.76 2787.57,1009.66 2792.02,1007.57 2799,1005.47 2809.38,1003.37 2824.01,1001.28 2843.53,999.18 2868.16,997.083 2897.45,994.987 2930.2,992.89 2964.44,990.793 2997.68,988.697 3027.25,986.6 3050.76,984.503 3066.53,982.407 3073.85,980.31 3073.06,978.213 3065.33,976.117 3052.42,974.02 3036.22,971.923 3018.51,969.827 3000.66,967.73 2983.58,965.634 2967.7,963.537 2953.06,961.44 2939.38,959.344 2926.2,957.247 2913.04,955.15 2899.52,953.054 2885.44,950.957 2870.9,948.86 2856.25,946.764 2842.01,944.667 2828.77,942.57 2817.05,940.474 2807.18,938.377 2799.29,936.28 2793.32,934.184 2789.03,932.087 2786.1,929.991 2784.21,927.894 2783.04,925.797 2782.37,923.701 2781.99,921.604 2781.79,919.507 2781.69,917.411 2781.65,915.314 2781.63,913.217 2781.62,911.121 2781.61,909.024 2781.61,906.927 2781.61,904.831 2781.61,902.734 2781.61,900.637 2781.61,898.541 2781.61,896.444 2781.61,894.348 2781.61,892.251 2781.61,890.154 2781.61,888.058 2781.61,885.961 2781.61,883.864 2781.61,881.768 2781.61,879.671 2781.61,877.574 2781.61,875.478 2781.61,873.381 2781.61,871.284 2781.61,869.188 2781.61,867.091 2781.61,864.995 2781.61,862.898 2781.61,860.801 2781.61,858.705 2781.61,856.608 2781.61,854.511 2781.61,852.415 2781.61,850.318 2781.61,848.221 2781.61,846.125 2781.61,844.028 2781.61,841.931 2781.61,839.835 2781.61,837.738 2781.61,835.641 2781.62,833.545 2781.63,831.448 2781.66,829.352 2781.72,827.255 2781.84,825.158 2782.08,823.062 2782.52,820.965 2783.3,818.868 2784.61,816.772 2786.69,814.675 2789.82,812.578 2794.25,810.482 2800.2,808.385 2807.68,806.288 2816.49,804.192 2826.14,802.095 2835.83,799.998 2844.59,797.902 2851.4,795.805 2855.38,793.709 2707.84,793.709 2711.82,795.805 2718.63,797.902 2727.39,799.998 2737.08,802.095 2746.73,804.192 2755.54,806.288 2763.02,808.385 2768.97,810.482 2773.41,812.578 2776.53,814.675 2778.61,816.772 2779.92,818.868 2780.7,820.965 2781.14,823.062 2781.38,825.158 2781.5,827.255 2781.56,829.352 2781.59,831.448 2781.6,833.545 2781.61,835.641 2781.61,837.738 2781.61,839.835 2781.61,841.931 2781.61,844.028 2781.61,846.125 2781.61,848.221 2781.61,850.318 2781.61,852.415 2781.61,854.511 2781.61,856.608 2781.61,858.705 2781.61,860.801 2781.61,862.898 2781.61,864.995 2781.61,867.091 2781.61,869.188 2781.61,871.284 2781.61,873.381 2781.61,875.478 2781.61,877.574 2781.61,879.671 2781.61,881.768 2781.61,883.864 2781.61,885.961 2781.61,888.058 2781.61,890.154 2781.61,892.251 2781.61,894.348 2781.61,896.444 2781.61,898.541 2781.61,900.637 2781.61,902.734 2781.61,904.831 2781.61,906.927 2781.61,909.024 2781.6,911.121 2781.6,913.217 2781.57,915.314 2781.53,917.411 2781.43,919.507 2781.23,921.604 2780.85,923.701 2780.18,925.797 2779.01,927.894 2777.12,929.991 2774.2,932.087 2769.9,934.184 2763.93,936.28 2756.05,938.377 2746.17,940.474 2734.45,942.57 2721.21,944.667 2706.97,946.764 2692.32,948.86 2677.78,950.957 2663.71,953.054 2650.18,955.15 2637.02,957.247 2623.84,959.344 2610.16,961.44 2595.52,963.537 2579.64,965.634 2562.56,967.73 2544.71,969.827 2527,971.923 2510.81,974.02 2497.89,976.117 2490.17,978.213 2489.37,980.31 2496.69,982.407 2512.46,984.503 2535.97,986.6 2565.54,988.697 2598.78,990.793 2633.02,992.89 2665.77,994.987 2695.06,997.083 2719.69,999.18 2739.21,1001.28 2753.84,1003.37 2764.22,1005.47 2771.2,1007.57 2775.65,1009.66 2778.35,1011.76 2779.91,1013.86 2780.76,1015.95 2781.21,1018.05 2781.43,1020.15 2781.53,1022.24 2781.58,1024.34 2781.6,1026.44 2781.61,1028.53 2781.61,1030.63 2781.61,1032.73 2781.61,1034.82 2781.61,1036.92 2781.61,1039.02 2781.61,1041.11 2781.61,1043.21 2781.61,1045.31 2781.61,1047.4 2781.61,1049.5 2781.61,1051.6 2781.61,1053.69 2781.61,1055.79 2781.61,1057.89 2781.61,1059.98 2781.61,1062.08 2781.61,1064.18 2781.61,1066.27 2781.61,1068.37 2781.61,1070.47 2781.61,1072.56 2781.61,1074.66 2781.61,1076.76 2781.61,1078.85 2781.61,1080.95 2781.61,1083.05 2781.61,1085.14 2781.61,1087.24 2781.61,1089.34 2781.6,1091.43 2781.59,1093.53 2781.56,1095.63 2781.5,1097.72 2781.38,1099.82 2781.14,1101.92 2780.7,1104.01 2779.92,1106.11 2778.61,1108.21 2776.53,1110.3 2773.41,1112.4 2768.97,1114.5 2763.02,1116.59 2755.54,1118.69 2746.73,1120.79 2737.08,1122.88 2727.39,1124.98 2718.63,1127.08 2711.82,1129.17 2707.84,1131.27 2855.38,1131.27 "/>
</svg>
