<?xml version="1.0" encoding="utf-8"?>
<svg xmlns="http://www.w3.org/2000/svg" xmlns:xlink="http://www.w3.org/1999/xlink" width="600" height="400" viewBox="0 0 2400 1600">
<defs>
  <clipPath id="clip370">
    <rect x="0" y="0" width="2400" height="1600"/>
  </clipPath>
</defs>
<path clip-path="url(#clip370)" d="M0 1600 L2400 1600 L2400 0 L0 0  Z" fill="#ffffff" fill-rule="evenodd" fill-opacity="1"/>
<defs>
  <clipPath id="clip371">
    <rect x="265" y="47" width="2088" height="1377"/>
  </clipPath>
</defs>
<path clip-path="url(#clip370)" d="M265.445 1423.18 L2352.76 1423.18 L2352.76 47.2441 L265.445 47.2441  Z" fill="#ffffff" fill-rule="evenodd" fill-opacity="1"/>
<polyline clip-path="url(#clip371)" style="stroke:#000000; stroke-linecap:round; stroke-linejoin:round; stroke-width:2; stroke-opacity:0.1; fill:none" points="304.629,1423.18 304.629,47.2441 "/>
<polyline clip-path="url(#clip371)" style="stroke:#000000; stroke-linecap:round; stroke-linejoin:round; stroke-width:2; stroke-opacity:0.1; fill:none" points="801.892,1423.18 801.892,47.2441 "/>
<polyline clip-path="url(#clip371)" style="stroke:#000000; stroke-linecap:round; stroke-linejoin:round; stroke-width:2; stroke-opacity:0.1; fill:none" points="1299.16,1423.18 1299.16,47.2441 "/>
<polyline clip-path="url(#clip371)" style="stroke:#000000; stroke-linecap:round; stroke-linejoin:round; stroke-width:2; stroke-opacity:0.1; fill:none" points="1796.42,1423.18 1796.42,47.2441 "/>
<polyline clip-path="url(#clip371)" style="stroke:#000000; stroke-linecap:round; stroke-linejoin:round; stroke-width:2; stroke-opacity:0.1; fill:none" points="2293.68,1423.18 2293.68,47.2441 "/>
<polyline clip-path="url(#clip371)" style="stroke:#000000; stroke-linecap:round; stroke-linejoin:round; stroke-width:2; stroke-opacity:0.1; fill:none" points="265.445,1334.1 2352.76,1334.1 "/>
<polyline clip-path="url(#clip371)" style="stroke:#000000; stroke-linecap:round; stroke-linejoin:round; stroke-width:2; stroke-opacity:0.1; fill:none" points="265.445,1084.35 2352.76,1084.35 "/>
<polyline clip-path="url(#clip371)" style="stroke:#000000; stroke-linecap:round; stroke-linejoin:round; stroke-width:2; stroke-opacity:0.1; fill:none" points="265.445,834.595 2352.76,834.595 "/>
<polyline clip-path="url(#clip371)" style="stroke:#000000; stroke-linecap:round; stroke-linejoin:round; stroke-width:2; stroke-opacity:0.1; fill:none" points="265.445,584.843 2352.76,584.843 "/>
<polyline clip-path="url(#clip371)" style="stroke:#000000; stroke-linecap:round; stroke-linejoin:round; stroke-width:2; stroke-opacity:0.1; fill:none" points="265.445,335.092 2352.76,335.092 "/>
<polyline clip-path="url(#clip371)" style="stroke:#000000; stroke-linecap:round; stroke-linejoin:round; stroke-width:2; stroke-opacity:0.1; fill:none" points="265.445,85.3397 2352.76,85.3397 "/>
<polyline clip-path="url(#clip370)" style="stroke:#000000; stroke-linecap:round; stroke-linejoin:round; stroke-width:4; stroke-opacity:1; fill:none" points="265.445,1423.18 2352.76,1423.18 "/>
<polyline clip-path="url(#clip370)" style="stroke:#000000; stroke-linecap:round; stroke-linejoin:round; stroke-width:4; stroke-opacity:1; fill:none" points="304.629,1423.18 304.629,1404.28 "/>
<polyline clip-path="url(#clip370)" style="stroke:#000000; stroke-linecap:round; stroke-linejoin:round; stroke-width:4; stroke-opacity:1; fill:none" points="801.892,1423.18 801.892,1404.28 "/>
<polyline clip-path="url(#clip370)" style="stroke:#000000; stroke-linecap:round; stroke-linejoin:round; stroke-width:4; stroke-opacity:1; fill:none" points="1299.16,1423.18 1299.16,1404.28 "/>
<polyline clip-path="url(#clip370)" style="stroke:#000000; stroke-linecap:round; stroke-linejoin:round; stroke-width:4; stroke-opacity:1; fill:none" points="1796.42,1423.18 1796.42,1404.28 "/>
<polyline clip-path="url(#clip370)" style="stroke:#000000; stroke-linecap:round; stroke-linejoin:round; stroke-width:4; stroke-opacity:1; fill:none" points="2293.68,1423.18 2293.68,1404.28 "/>
<path clip-path="url(#clip370)" d="M304.629 1454.1 Q301.018 1454.1 299.189 1457.66 Q297.384 1461.2 297.384 1468.33 Q297.384 1475.44 299.189 1479.01 Q301.018 1482.55 304.629 1482.55 Q308.263 1482.55 310.069 1479.01 Q311.898 1475.44 311.898 1468.33 Q311.898 1461.2 310.069 1457.66 Q308.263 1454.1 304.629 1454.1 M304.629 1450.39 Q310.439 1450.39 313.495 1455 Q316.573 1459.58 316.573 1468.33 Q316.573 1477.06 313.495 1481.67 Q310.439 1486.25 304.629 1486.25 Q298.819 1486.25 295.74 1481.67 Q292.685 1477.06 292.685 1468.33 Q292.685 1459.58 295.74 1455 Q298.819 1450.39 304.629 1450.39 Z" fill="#000000" fill-rule="nonzero" fill-opacity="1" /><path clip-path="url(#clip370)" d="M765.584 1481.64 L781.904 1481.64 L781.904 1485.58 L759.959 1485.58 L759.959 1481.64 Q762.621 1478.89 767.205 1474.26 Q771.811 1469.61 772.992 1468.27 Q775.237 1465.74 776.117 1464.01 Q777.02 1462.25 777.02 1460.56 Q777.02 1457.8 775.075 1456.07 Q773.154 1454.33 770.052 1454.33 Q767.853 1454.33 765.399 1455.09 Q762.969 1455.86 760.191 1457.41 L760.191 1452.69 Q763.015 1451.55 765.469 1450.97 Q767.922 1450.39 769.959 1450.39 Q775.33 1450.39 778.524 1453.08 Q781.719 1455.77 781.719 1460.26 Q781.719 1462.39 780.908 1464.31 Q780.121 1466.2 778.015 1468.8 Q777.436 1469.47 774.334 1472.69 Q771.232 1475.88 765.584 1481.64 Z" fill="#000000" fill-rule="nonzero" fill-opacity="1" /><path clip-path="url(#clip370)" d="M791.765 1451.02 L810.121 1451.02 L810.121 1454.96 L796.047 1454.96 L796.047 1463.43 Q797.066 1463.08 798.084 1462.92 Q799.103 1462.73 800.121 1462.73 Q805.908 1462.73 809.288 1465.9 Q812.667 1469.08 812.667 1474.49 Q812.667 1480.07 809.195 1483.17 Q805.723 1486.25 799.404 1486.25 Q797.228 1486.25 794.959 1485.88 Q792.714 1485.51 790.306 1484.77 L790.306 1480.07 Q792.39 1481.2 794.612 1481.76 Q796.834 1482.32 799.311 1482.32 Q803.316 1482.32 805.654 1480.21 Q807.992 1478.1 807.992 1474.49 Q807.992 1470.88 805.654 1468.77 Q803.316 1466.67 799.311 1466.67 Q797.436 1466.67 795.561 1467.08 Q793.709 1467.5 791.765 1468.38 L791.765 1451.02 Z" fill="#000000" fill-rule="nonzero" fill-opacity="1" /><path clip-path="url(#clip370)" d="M831.88 1454.1 Q828.269 1454.1 826.441 1457.66 Q824.635 1461.2 824.635 1468.33 Q824.635 1475.44 826.441 1479.01 Q828.269 1482.55 831.88 1482.55 Q835.515 1482.55 837.32 1479.01 Q839.149 1475.44 839.149 1468.33 Q839.149 1461.2 837.32 1457.66 Q835.515 1454.1 831.88 1454.1 M831.88 1450.39 Q837.69 1450.39 840.746 1455 Q843.825 1459.58 843.825 1468.33 Q843.825 1477.06 840.746 1481.67 Q837.69 1486.25 831.88 1486.25 Q826.07 1486.25 822.991 1481.67 Q819.936 1477.06 819.936 1468.33 Q819.936 1459.58 822.991 1455 Q826.07 1450.39 831.88 1450.39 Z" fill="#000000" fill-rule="nonzero" fill-opacity="1" /><path clip-path="url(#clip370)" d="M1258.77 1451.02 L1277.13 1451.02 L1277.13 1454.96 L1263.06 1454.96 L1263.06 1463.43 Q1264.07 1463.08 1265.09 1462.92 Q1266.11 1462.73 1267.13 1462.73 Q1272.92 1462.73 1276.3 1465.9 Q1279.68 1469.08 1279.68 1474.49 Q1279.68 1480.07 1276.2 1483.17 Q1272.73 1486.25 1266.41 1486.25 Q1264.24 1486.25 1261.97 1485.88 Q1259.72 1485.51 1257.32 1484.77 L1257.32 1480.07 Q1259.4 1481.2 1261.62 1481.76 Q1263.84 1482.32 1266.32 1482.32 Q1270.32 1482.32 1272.66 1480.21 Q1275 1478.1 1275 1474.49 Q1275 1470.88 1272.66 1468.77 Q1270.32 1466.67 1266.32 1466.67 Q1264.44 1466.67 1262.57 1467.08 Q1260.72 1467.5 1258.77 1468.38 L1258.77 1451.02 Z" fill="#000000" fill-rule="nonzero" fill-opacity="1" /><path clip-path="url(#clip370)" d="M1298.89 1454.1 Q1295.28 1454.1 1293.45 1457.66 Q1291.64 1461.2 1291.64 1468.33 Q1291.64 1475.44 1293.45 1479.01 Q1295.28 1482.55 1298.89 1482.55 Q1302.52 1482.55 1304.33 1479.01 Q1306.16 1475.44 1306.16 1468.33 Q1306.16 1461.2 1304.33 1457.66 Q1302.52 1454.1 1298.89 1454.1 M1298.89 1450.39 Q1304.7 1450.39 1307.75 1455 Q1310.83 1459.58 1310.83 1468.33 Q1310.83 1477.06 1307.75 1481.67 Q1304.7 1486.25 1298.89 1486.25 Q1293.08 1486.25 1290 1481.67 Q1286.94 1477.06 1286.94 1468.33 Q1286.94 1459.58 1290 1455 Q1293.08 1450.39 1298.89 1450.39 Z" fill="#000000" fill-rule="nonzero" fill-opacity="1" /><path clip-path="url(#clip370)" d="M1329.05 1454.1 Q1325.44 1454.1 1323.61 1457.66 Q1321.81 1461.2 1321.81 1468.33 Q1321.81 1475.44 1323.61 1479.01 Q1325.44 1482.55 1329.05 1482.55 Q1332.68 1482.55 1334.49 1479.01 Q1336.32 1475.44 1336.32 1468.33 Q1336.32 1461.2 1334.49 1457.66 Q1332.68 1454.1 1329.05 1454.1 M1329.05 1450.39 Q1334.86 1450.39 1337.92 1455 Q1341 1459.58 1341 1468.33 Q1341 1477.06 1337.92 1481.67 Q1334.86 1486.25 1329.05 1486.25 Q1323.24 1486.25 1320.16 1481.67 Q1317.11 1477.06 1317.11 1468.33 Q1317.11 1459.58 1320.16 1455 Q1323.24 1450.39 1329.05 1450.39 Z" fill="#000000" fill-rule="nonzero" fill-opacity="1" /><path clip-path="url(#clip370)" d="M1754.69 1451.02 L1776.92 1451.02 L1776.92 1453.01 L1764.37 1485.58 L1759.49 1485.58 L1771.29 1454.96 L1754.69 1454.96 L1754.69 1451.02 Z" fill="#000000" fill-rule="nonzero" fill-opacity="1" /><path clip-path="url(#clip370)" d="M1786.08 1451.02 L1804.44 1451.02 L1804.44 1454.96 L1790.36 1454.96 L1790.36 1463.43 Q1791.38 1463.08 1792.4 1462.92 Q1793.42 1462.73 1794.44 1462.73 Q1800.23 1462.73 1803.61 1465.9 Q1806.99 1469.08 1806.99 1474.49 Q1806.99 1480.07 1803.51 1483.17 Q1800.04 1486.25 1793.72 1486.25 Q1791.55 1486.25 1789.28 1485.88 Q1787.03 1485.51 1784.62 1484.77 L1784.62 1480.07 Q1786.71 1481.2 1788.93 1481.76 Q1791.15 1482.32 1793.63 1482.32 Q1797.63 1482.32 1799.97 1480.21 Q1802.31 1478.1 1802.31 1474.49 Q1802.31 1470.88 1799.97 1468.77 Q1797.63 1466.67 1793.63 1466.67 Q1791.75 1466.67 1789.88 1467.08 Q1788.03 1467.5 1786.08 1468.38 L1786.08 1451.02 Z" fill="#000000" fill-rule="nonzero" fill-opacity="1" /><path clip-path="url(#clip370)" d="M1826.2 1454.1 Q1822.59 1454.1 1820.76 1457.66 Q1818.95 1461.2 1818.95 1468.33 Q1818.95 1475.44 1820.76 1479.01 Q1822.59 1482.55 1826.2 1482.55 Q1829.83 1482.55 1831.64 1479.01 Q1833.47 1475.44 1833.47 1468.33 Q1833.47 1461.2 1831.64 1457.66 Q1829.83 1454.1 1826.2 1454.1 M1826.2 1450.39 Q1832.01 1450.39 1835.06 1455 Q1838.14 1459.58 1838.14 1468.33 Q1838.14 1477.06 1835.06 1481.67 Q1832.01 1486.25 1826.2 1486.25 Q1820.39 1486.25 1817.31 1481.67 Q1814.25 1477.06 1814.25 1468.33 Q1814.25 1459.58 1817.31 1455 Q1820.39 1450.39 1826.2 1450.39 Z" fill="#000000" fill-rule="nonzero" fill-opacity="1" /><path clip-path="url(#clip370)" d="M2238.21 1481.64 L2245.85 1481.64 L2245.85 1455.28 L2237.54 1456.95 L2237.54 1452.69 L2245.8 1451.02 L2250.48 1451.02 L2250.48 1481.64 L2258.11 1481.64 L2258.11 1485.58 L2238.21 1485.58 L2238.21 1481.64 Z" fill="#000000" fill-rule="nonzero" fill-opacity="1" /><path clip-path="url(#clip370)" d="M2277.56 1454.1 Q2273.95 1454.1 2272.12 1457.66 Q2270.31 1461.2 2270.31 1468.33 Q2270.31 1475.44 2272.12 1479.01 Q2273.95 1482.55 2277.56 1482.55 Q2281.19 1482.55 2283 1479.01 Q2284.83 1475.44 2284.83 1468.33 Q2284.83 1461.2 2283 1457.66 Q2281.19 1454.1 2277.56 1454.1 M2277.56 1450.39 Q2283.37 1450.39 2286.42 1455 Q2289.5 1459.58 2289.5 1468.33 Q2289.5 1477.06 2286.42 1481.67 Q2283.37 1486.25 2277.56 1486.25 Q2271.75 1486.25 2268.67 1481.67 Q2265.61 1477.06 2265.61 1468.33 Q2265.61 1459.58 2268.67 1455 Q2271.75 1450.39 2277.56 1450.39 Z" fill="#000000" fill-rule="nonzero" fill-opacity="1" /><path clip-path="url(#clip370)" d="M2307.72 1454.1 Q2304.11 1454.1 2302.28 1457.66 Q2300.48 1461.2 2300.48 1468.33 Q2300.48 1475.44 2302.28 1479.01 Q2304.11 1482.55 2307.72 1482.55 Q2311.35 1482.55 2313.16 1479.01 Q2314.99 1475.44 2314.99 1468.33 Q2314.99 1461.2 2313.16 1457.66 Q2311.35 1454.1 2307.72 1454.1 M2307.72 1450.39 Q2313.53 1450.39 2316.59 1455 Q2319.66 1459.58 2319.66 1468.33 Q2319.66 1477.06 2316.59 1481.67 Q2313.53 1486.25 2307.72 1486.25 Q2301.91 1486.25 2298.83 1481.67 Q2295.78 1477.06 2295.78 1468.33 Q2295.78 1459.58 2298.83 1455 Q2301.91 1450.39 2307.72 1450.39 Z" fill="#000000" fill-rule="nonzero" fill-opacity="1" /><path clip-path="url(#clip370)" d="M2337.88 1454.1 Q2334.27 1454.1 2332.44 1457.66 Q2330.64 1461.2 2330.64 1468.33 Q2330.64 1475.44 2332.44 1479.01 Q2334.27 1482.55 2337.88 1482.55 Q2341.52 1482.55 2343.32 1479.01 Q2345.15 1475.44 2345.15 1468.33 Q2345.15 1461.2 2343.32 1457.66 Q2341.52 1454.1 2337.88 1454.1 M2337.88 1450.39 Q2343.69 1450.39 2346.75 1455 Q2349.83 1459.58 2349.83 1468.33 Q2349.83 1477.06 2346.75 1481.67 Q2343.69 1486.25 2337.88 1486.25 Q2332.07 1486.25 2328.99 1481.67 Q2325.94 1477.06 2325.94 1468.33 Q2325.94 1459.58 2328.99 1455 Q2332.07 1450.39 2337.88 1450.39 Z" fill="#000000" fill-rule="nonzero" fill-opacity="1" /><path clip-path="url(#clip370)" d="M1306.17 1518.52 L1312.03 1518.52 L1312.03 1568.04 L1306.17 1568.04 L1306.17 1518.52 Z" fill="#000000" fill-rule="nonzero" fill-opacity="1" /><polyline clip-path="url(#clip370)" style="stroke:#000000; stroke-linecap:round; stroke-linejoin:round; stroke-width:4; stroke-opacity:1; fill:none" points="265.445,1423.18 265.445,47.2441 "/>
<polyline clip-path="url(#clip370)" style="stroke:#000000; stroke-linecap:round; stroke-linejoin:round; stroke-width:4; stroke-opacity:1; fill:none" points="265.445,1334.1 284.342,1334.1 "/>
<polyline clip-path="url(#clip370)" style="stroke:#000000; stroke-linecap:round; stroke-linejoin:round; stroke-width:4; stroke-opacity:1; fill:none" points="265.445,1084.35 284.342,1084.35 "/>
<polyline clip-path="url(#clip370)" style="stroke:#000000; stroke-linecap:round; stroke-linejoin:round; stroke-width:4; stroke-opacity:1; fill:none" points="265.445,834.595 284.342,834.595 "/>
<polyline clip-path="url(#clip370)" style="stroke:#000000; stroke-linecap:round; stroke-linejoin:round; stroke-width:4; stroke-opacity:1; fill:none" points="265.445,584.843 284.342,584.843 "/>
<polyline clip-path="url(#clip370)" style="stroke:#000000; stroke-linecap:round; stroke-linejoin:round; stroke-width:4; stroke-opacity:1; fill:none" points="265.445,335.092 284.342,335.092 "/>
<polyline clip-path="url(#clip370)" style="stroke:#000000; stroke-linecap:round; stroke-linejoin:round; stroke-width:4; stroke-opacity:1; fill:none" points="265.445,85.3397 284.342,85.3397 "/>
<path clip-path="url(#clip370)" d="M117.825 1347.44 L125.464 1347.44 L125.464 1321.08 L117.154 1322.74 L117.154 1318.49 L125.418 1316.82 L130.093 1316.82 L130.093 1347.44 L137.732 1347.44 L137.732 1351.38 L117.825 1351.38 L117.825 1347.44 Z" fill="#000000" fill-rule="nonzero" fill-opacity="1" /><path clip-path="url(#clip370)" d="M157.177 1319.9 Q153.566 1319.9 151.737 1323.46 Q149.931 1327 149.931 1334.13 Q149.931 1341.24 151.737 1344.81 Q153.566 1348.35 157.177 1348.35 Q160.811 1348.35 162.616 1344.81 Q164.445 1341.24 164.445 1334.13 Q164.445 1327 162.616 1323.46 Q160.811 1319.9 157.177 1319.9 M157.177 1316.19 Q162.987 1316.19 166.042 1320.8 Q169.121 1325.38 169.121 1334.13 Q169.121 1342.86 166.042 1347.47 Q162.987 1352.05 157.177 1352.05 Q151.366 1352.05 148.288 1347.47 Q145.232 1342.86 145.232 1334.13 Q145.232 1325.38 148.288 1320.8 Q151.366 1316.19 157.177 1316.19 Z" fill="#000000" fill-rule="nonzero" fill-opacity="1" /><path clip-path="url(#clip370)" d="M187.338 1319.9 Q183.727 1319.9 181.899 1323.46 Q180.093 1327 180.093 1334.13 Q180.093 1341.24 181.899 1344.81 Q183.727 1348.35 187.338 1348.35 Q190.973 1348.35 192.778 1344.81 Q194.607 1341.24 194.607 1334.13 Q194.607 1327 192.778 1323.46 Q190.973 1319.9 187.338 1319.9 M187.338 1316.19 Q193.149 1316.19 196.204 1320.8 Q199.283 1325.38 199.283 1334.13 Q199.283 1342.86 196.204 1347.47 Q193.149 1352.05 187.338 1352.05 Q181.528 1352.05 178.45 1347.47 Q175.394 1342.86 175.394 1334.13 Q175.394 1325.38 178.45 1320.8 Q181.528 1316.19 187.338 1316.19 Z" fill="#000000" fill-rule="nonzero" fill-opacity="1" /><path clip-path="url(#clip370)" d="M217.5 1319.9 Q213.889 1319.9 212.061 1323.46 Q210.255 1327 210.255 1334.13 Q210.255 1341.24 212.061 1344.81 Q213.889 1348.35 217.5 1348.35 Q221.135 1348.35 222.94 1344.81 Q224.769 1341.24 224.769 1334.13 Q224.769 1327 222.94 1323.46 Q221.135 1319.9 217.5 1319.9 M217.5 1316.19 Q223.31 1316.19 226.366 1320.8 Q229.445 1325.38 229.445 1334.13 Q229.445 1342.86 226.366 1347.47 Q223.31 1352.05 217.5 1352.05 Q211.69 1352.05 208.612 1347.47 Q205.556 1342.86 205.556 1334.13 Q205.556 1325.38 208.612 1320.8 Q211.69 1316.19 217.5 1316.19 Z" fill="#000000" fill-rule="nonzero" fill-opacity="1" /><path clip-path="url(#clip370)" d="M121.043 1097.69 L137.362 1097.69 L137.362 1101.63 L115.418 1101.63 L115.418 1097.69 Q118.08 1094.94 122.663 1090.31 Q127.269 1085.66 128.45 1084.31 Q130.695 1081.79 131.575 1080.05 Q132.478 1078.29 132.478 1076.6 Q132.478 1073.85 130.533 1072.11 Q128.612 1070.38 125.51 1070.38 Q123.311 1070.38 120.857 1071.14 Q118.427 1071.91 115.649 1073.46 L115.649 1068.73 Q118.473 1067.6 120.927 1067.02 Q123.38 1066.44 125.418 1066.44 Q130.788 1066.44 133.982 1069.13 Q137.177 1071.81 137.177 1076.3 Q137.177 1078.43 136.367 1080.35 Q135.579 1082.25 133.473 1084.84 Q132.894 1085.52 129.792 1088.73 Q126.691 1091.93 121.043 1097.69 Z" fill="#000000" fill-rule="nonzero" fill-opacity="1" /><path clip-path="url(#clip370)" d="M157.177 1070.15 Q153.566 1070.15 151.737 1073.71 Q149.931 1077.25 149.931 1084.38 Q149.931 1091.49 151.737 1095.05 Q153.566 1098.59 157.177 1098.59 Q160.811 1098.59 162.616 1095.05 Q164.445 1091.49 164.445 1084.38 Q164.445 1077.25 162.616 1073.71 Q160.811 1070.15 157.177 1070.15 M157.177 1066.44 Q162.987 1066.44 166.042 1071.05 Q169.121 1075.63 169.121 1084.38 Q169.121 1093.11 166.042 1097.72 Q162.987 1102.3 157.177 1102.3 Q151.366 1102.3 148.288 1097.72 Q145.232 1093.11 145.232 1084.38 Q145.232 1075.63 148.288 1071.05 Q151.366 1066.44 157.177 1066.44 Z" fill="#000000" fill-rule="nonzero" fill-opacity="1" /><path clip-path="url(#clip370)" d="M187.338 1070.15 Q183.727 1070.15 181.899 1073.71 Q180.093 1077.25 180.093 1084.38 Q180.093 1091.49 181.899 1095.05 Q183.727 1098.59 187.338 1098.59 Q190.973 1098.59 192.778 1095.05 Q194.607 1091.49 194.607 1084.38 Q194.607 1077.25 192.778 1073.71 Q190.973 1070.15 187.338 1070.15 M187.338 1066.44 Q193.149 1066.44 196.204 1071.05 Q199.283 1075.63 199.283 1084.38 Q199.283 1093.11 196.204 1097.72 Q193.149 1102.3 187.338 1102.3 Q181.528 1102.3 178.45 1097.72 Q175.394 1093.11 175.394 1084.38 Q175.394 1075.63 178.45 1071.05 Q181.528 1066.44 187.338 1066.44 Z" fill="#000000" fill-rule="nonzero" fill-opacity="1" /><path clip-path="url(#clip370)" d="M217.5 1070.15 Q213.889 1070.15 212.061 1073.71 Q210.255 1077.25 210.255 1084.38 Q210.255 1091.49 212.061 1095.05 Q213.889 1098.59 217.5 1098.59 Q221.135 1098.59 222.94 1095.05 Q224.769 1091.49 224.769 1084.38 Q224.769 1077.25 222.94 1073.71 Q221.135 1070.15 217.5 1070.15 M217.5 1066.44 Q223.31 1066.44 226.366 1071.05 Q229.445 1075.63 229.445 1084.38 Q229.445 1093.11 226.366 1097.72 Q223.31 1102.3 217.5 1102.3 Q211.69 1102.3 208.612 1097.72 Q205.556 1093.11 205.556 1084.38 Q205.556 1075.63 208.612 1071.05 Q211.69 1066.44 217.5 1066.44 Z" fill="#000000" fill-rule="nonzero" fill-opacity="1" /><path clip-path="url(#clip370)" d="M131.181 833.241 Q134.538 833.959 136.413 836.227 Q138.311 838.496 138.311 841.829 Q138.311 846.945 134.792 849.746 Q131.274 852.547 124.793 852.547 Q122.617 852.547 120.302 852.107 Q118.01 851.69 115.556 850.834 L115.556 846.32 Q117.501 847.454 119.816 848.033 Q122.13 848.611 124.654 848.611 Q129.052 848.611 131.343 846.875 Q133.658 845.139 133.658 841.829 Q133.658 838.774 131.505 837.061 Q129.376 835.324 125.556 835.324 L121.529 835.324 L121.529 831.482 L125.742 831.482 Q129.191 831.482 131.019 830.116 Q132.848 828.727 132.848 826.135 Q132.848 823.473 130.95 822.061 Q129.075 820.625 125.556 820.625 Q123.635 820.625 121.436 821.042 Q119.237 821.459 116.598 822.338 L116.598 818.172 Q119.26 817.431 121.575 817.061 Q123.913 816.69 125.973 816.69 Q131.297 816.69 134.399 819.121 Q137.501 821.528 137.501 825.649 Q137.501 828.519 135.857 830.51 Q134.214 832.477 131.181 833.241 Z" fill="#000000" fill-rule="nonzero" fill-opacity="1" /><path clip-path="url(#clip370)" d="M157.177 820.394 Q153.566 820.394 151.737 823.959 Q149.931 827.5 149.931 834.63 Q149.931 841.736 151.737 845.301 Q153.566 848.843 157.177 848.843 Q160.811 848.843 162.616 845.301 Q164.445 841.736 164.445 834.63 Q164.445 827.5 162.616 823.959 Q160.811 820.394 157.177 820.394 M157.177 816.69 Q162.987 816.69 166.042 821.297 Q169.121 825.88 169.121 834.63 Q169.121 843.357 166.042 847.963 Q162.987 852.547 157.177 852.547 Q151.366 852.547 148.288 847.963 Q145.232 843.357 145.232 834.63 Q145.232 825.88 148.288 821.297 Q151.366 816.69 157.177 816.69 Z" fill="#000000" fill-rule="nonzero" fill-opacity="1" /><path clip-path="url(#clip370)" d="M187.338 820.394 Q183.727 820.394 181.899 823.959 Q180.093 827.5 180.093 834.63 Q180.093 841.736 181.899 845.301 Q183.727 848.843 187.338 848.843 Q190.973 848.843 192.778 845.301 Q194.607 841.736 194.607 834.63 Q194.607 827.5 192.778 823.959 Q190.973 820.394 187.338 820.394 M187.338 816.69 Q193.149 816.69 196.204 821.297 Q199.283 825.88 199.283 834.63 Q199.283 843.357 196.204 847.963 Q193.149 852.547 187.338 852.547 Q181.528 852.547 178.45 847.963 Q175.394 843.357 175.394 834.63 Q175.394 825.88 178.45 821.297 Q181.528 816.69 187.338 816.69 Z" fill="#000000" fill-rule="nonzero" fill-opacity="1" /><path clip-path="url(#clip370)" d="M217.5 820.394 Q213.889 820.394 212.061 823.959 Q210.255 827.5 210.255 834.63 Q210.255 841.736 212.061 845.301 Q213.889 848.843 217.5 848.843 Q221.135 848.843 222.94 845.301 Q224.769 841.736 224.769 834.63 Q224.769 827.5 222.94 823.959 Q221.135 820.394 217.5 820.394 M217.5 816.69 Q223.31 816.69 226.366 821.297 Q229.445 825.88 229.445 834.63 Q229.445 843.357 226.366 847.963 Q223.31 852.547 217.5 852.547 Q211.69 852.547 208.612 847.963 Q205.556 843.357 205.556 834.63 Q205.556 825.88 208.612 821.297 Q211.69 816.69 217.5 816.69 Z" fill="#000000" fill-rule="nonzero" fill-opacity="1" /><path clip-path="url(#clip370)" d="M129.862 571.638 L118.056 590.086 L129.862 590.086 L129.862 571.638 M128.635 567.563 L134.515 567.563 L134.515 590.086 L139.445 590.086 L139.445 593.975 L134.515 593.975 L134.515 602.123 L129.862 602.123 L129.862 593.975 L114.26 593.975 L114.26 589.461 L128.635 567.563 Z" fill="#000000" fill-rule="nonzero" fill-opacity="1" /><path clip-path="url(#clip370)" d="M157.177 570.642 Q153.566 570.642 151.737 574.207 Q149.931 577.749 149.931 584.878 Q149.931 591.985 151.737 595.549 Q153.566 599.091 157.177 599.091 Q160.811 599.091 162.616 595.549 Q164.445 591.985 164.445 584.878 Q164.445 577.749 162.616 574.207 Q160.811 570.642 157.177 570.642 M157.177 566.938 Q162.987 566.938 166.042 571.545 Q169.121 576.128 169.121 584.878 Q169.121 593.605 166.042 598.211 Q162.987 602.795 157.177 602.795 Q151.366 602.795 148.288 598.211 Q145.232 593.605 145.232 584.878 Q145.232 576.128 148.288 571.545 Q151.366 566.938 157.177 566.938 Z" fill="#000000" fill-rule="nonzero" fill-opacity="1" /><path clip-path="url(#clip370)" d="M187.338 570.642 Q183.727 570.642 181.899 574.207 Q180.093 577.749 180.093 584.878 Q180.093 591.985 181.899 595.549 Q183.727 599.091 187.338 599.091 Q190.973 599.091 192.778 595.549 Q194.607 591.985 194.607 584.878 Q194.607 577.749 192.778 574.207 Q190.973 570.642 187.338 570.642 M187.338 566.938 Q193.149 566.938 196.204 571.545 Q199.283 576.128 199.283 584.878 Q199.283 593.605 196.204 598.211 Q193.149 602.795 187.338 602.795 Q181.528 602.795 178.45 598.211 Q175.394 593.605 175.394 584.878 Q175.394 576.128 178.45 571.545 Q181.528 566.938 187.338 566.938 Z" fill="#000000" fill-rule="nonzero" fill-opacity="1" /><path clip-path="url(#clip370)" d="M217.5 570.642 Q213.889 570.642 212.061 574.207 Q210.255 577.749 210.255 584.878 Q210.255 591.985 212.061 595.549 Q213.889 599.091 217.5 599.091 Q221.135 599.091 222.94 595.549 Q224.769 591.985 224.769 584.878 Q224.769 577.749 222.94 574.207 Q221.135 570.642 217.5 570.642 M217.5 566.938 Q223.31 566.938 226.366 571.545 Q229.445 576.128 229.445 584.878 Q229.445 593.605 226.366 598.211 Q223.31 602.795 217.5 602.795 Q211.69 602.795 208.612 598.211 Q205.556 593.605 205.556 584.878 Q205.556 576.128 208.612 571.545 Q211.69 566.938 217.5 566.938 Z" fill="#000000" fill-rule="nonzero" fill-opacity="1" /><path clip-path="url(#clip370)" d="M117.061 317.812 L135.417 317.812 L135.417 321.747 L121.343 321.747 L121.343 330.219 Q122.362 329.872 123.38 329.71 Q124.399 329.524 125.418 329.524 Q131.205 329.524 134.584 332.696 Q137.964 335.867 137.964 341.284 Q137.964 346.862 134.492 349.964 Q131.019 353.043 124.7 353.043 Q122.524 353.043 120.255 352.673 Q118.01 352.302 115.603 351.561 L115.603 346.862 Q117.686 347.997 119.908 348.552 Q122.13 349.108 124.607 349.108 Q128.612 349.108 130.95 347.001 Q133.288 344.895 133.288 341.284 Q133.288 337.673 130.95 335.566 Q128.612 333.46 124.607 333.46 Q122.732 333.46 120.857 333.876 Q119.006 334.293 117.061 335.173 L117.061 317.812 Z" fill="#000000" fill-rule="nonzero" fill-opacity="1" /><path clip-path="url(#clip370)" d="M157.177 320.89 Q153.566 320.89 151.737 324.455 Q149.931 327.997 149.931 335.126 Q149.931 342.233 151.737 345.798 Q153.566 349.339 157.177 349.339 Q160.811 349.339 162.616 345.798 Q164.445 342.233 164.445 335.126 Q164.445 327.997 162.616 324.455 Q160.811 320.89 157.177 320.89 M157.177 317.187 Q162.987 317.187 166.042 321.793 Q169.121 326.376 169.121 335.126 Q169.121 343.853 166.042 348.46 Q162.987 353.043 157.177 353.043 Q151.366 353.043 148.288 348.46 Q145.232 343.853 145.232 335.126 Q145.232 326.376 148.288 321.793 Q151.366 317.187 157.177 317.187 Z" fill="#000000" fill-rule="nonzero" fill-opacity="1" /><path clip-path="url(#clip370)" d="M187.338 320.89 Q183.727 320.89 181.899 324.455 Q180.093 327.997 180.093 335.126 Q180.093 342.233 181.899 345.798 Q183.727 349.339 187.338 349.339 Q190.973 349.339 192.778 345.798 Q194.607 342.233 194.607 335.126 Q194.607 327.997 192.778 324.455 Q190.973 320.89 187.338 320.89 M187.338 317.187 Q193.149 317.187 196.204 321.793 Q199.283 326.376 199.283 335.126 Q199.283 343.853 196.204 348.46 Q193.149 353.043 187.338 353.043 Q181.528 353.043 178.45 348.46 Q175.394 343.853 175.394 335.126 Q175.394 326.376 178.45 321.793 Q181.528 317.187 187.338 317.187 Z" fill="#000000" fill-rule="nonzero" fill-opacity="1" /><path clip-path="url(#clip370)" d="M217.5 320.89 Q213.889 320.89 212.061 324.455 Q210.255 327.997 210.255 335.126 Q210.255 342.233 212.061 345.798 Q213.889 349.339 217.5 349.339 Q221.135 349.339 222.94 345.798 Q224.769 342.233 224.769 335.126 Q224.769 327.997 222.94 324.455 Q221.135 320.89 217.5 320.89 M217.5 317.187 Q223.31 317.187 226.366 321.793 Q229.445 326.376 229.445 335.126 Q229.445 343.853 226.366 348.46 Q223.31 353.043 217.5 353.043 Q211.69 353.043 208.612 348.46 Q205.556 343.853 205.556 335.126 Q205.556 326.376 208.612 321.793 Q211.69 317.187 217.5 317.187 Z" fill="#000000" fill-rule="nonzero" fill-opacity="1" /><path clip-path="url(#clip370)" d="M127.593 83.4763 Q124.445 83.4763 122.593 85.6291 Q120.765 87.7818 120.765 91.5318 Q120.765 95.2586 122.593 97.4345 Q124.445 99.5873 127.593 99.5873 Q130.742 99.5873 132.57 97.4345 Q134.422 95.2586 134.422 91.5318 Q134.422 87.7818 132.57 85.6291 Q130.742 83.4763 127.593 83.4763 M136.876 68.8236 L136.876 73.0828 Q135.117 72.2495 133.311 71.8097 Q131.529 71.3699 129.769 71.3699 Q125.14 71.3699 122.686 74.4949 Q120.255 77.6198 119.908 83.9393 Q121.274 81.9254 123.334 80.8606 Q125.394 79.7726 127.871 79.7726 Q133.08 79.7726 136.089 82.9439 Q139.121 86.092 139.121 91.5318 Q139.121 96.8558 135.973 100.073 Q132.825 103.291 127.593 103.291 Q121.598 103.291 118.427 98.7077 Q115.256 94.1012 115.256 85.3744 Q115.256 77.18 119.144 72.3189 Q123.033 67.4347 129.584 67.4347 Q131.343 67.4347 133.126 67.7819 Q134.931 68.1291 136.876 68.8236 Z" fill="#000000" fill-rule="nonzero" fill-opacity="1" /><path clip-path="url(#clip370)" d="M157.177 71.1384 Q153.566 71.1384 151.737 74.7032 Q149.931 78.2448 149.931 85.3744 Q149.931 92.4809 151.737 96.0457 Q153.566 99.5873 157.177 99.5873 Q160.811 99.5873 162.616 96.0457 Q164.445 92.4809 164.445 85.3744 Q164.445 78.2448 162.616 74.7032 Q160.811 71.1384 157.177 71.1384 M157.177 67.4347 Q162.987 67.4347 166.042 72.0412 Q169.121 76.6245 169.121 85.3744 Q169.121 94.1012 166.042 98.7077 Q162.987 103.291 157.177 103.291 Q151.366 103.291 148.288 98.7077 Q145.232 94.1012 145.232 85.3744 Q145.232 76.6245 148.288 72.0412 Q151.366 67.4347 157.177 67.4347 Z" fill="#000000" fill-rule="nonzero" fill-opacity="1" /><path clip-path="url(#clip370)" d="M187.338 71.1384 Q183.727 71.1384 181.899 74.7032 Q180.093 78.2448 180.093 85.3744 Q180.093 92.4809 181.899 96.0457 Q183.727 99.5873 187.338 99.5873 Q190.973 99.5873 192.778 96.0457 Q194.607 92.4809 194.607 85.3744 Q194.607 78.2448 192.778 74.7032 Q190.973 71.1384 187.338 71.1384 M187.338 67.4347 Q193.149 67.4347 196.204 72.0412 Q199.283 76.6245 199.283 85.3744 Q199.283 94.1012 196.204 98.7077 Q193.149 103.291 187.338 103.291 Q181.528 103.291 178.45 98.7077 Q175.394 94.1012 175.394 85.3744 Q175.394 76.6245 178.45 72.0412 Q181.528 67.4347 187.338 67.4347 Z" fill="#000000" fill-rule="nonzero" fill-opacity="1" /><path clip-path="url(#clip370)" d="M217.5 71.1384 Q213.889 71.1384 212.061 74.7032 Q210.255 78.2448 210.255 85.3744 Q210.255 92.4809 212.061 96.0457 Q213.889 99.5873 217.5 99.5873 Q221.135 99.5873 222.94 96.0457 Q224.769 92.4809 224.769 85.3744 Q224.769 78.2448 222.94 74.7032 Q221.135 71.1384 217.5 71.1384 M217.5 67.4347 Q223.31 67.4347 226.366 72.0412 Q229.445 76.6245 229.445 85.3744 Q229.445 94.1012 226.366 98.7077 Q223.31 103.291 217.5 103.291 Q211.69 103.291 208.612 98.7077 Q205.556 94.1012 205.556 85.3744 Q205.556 76.6245 208.612 72.0412 Q211.69 67.4347 217.5 67.4347 Z" fill="#000000" fill-rule="nonzero" fill-opacity="1" /><path clip-path="url(#clip370)" d="M14.479 1067.82 L14.479 1061.96 L64.0042 1061.96 L64.0042 1067.82 L14.479 1067.82 Z" fill="#000000" fill-rule="nonzero" fill-opacity="1" /><path clip-path="url(#clip370)" d="M14.5426 1014.92 Q21.8632 1019.19 29.0246 1021.25 Q36.186 1023.32 43.5384 1023.32 Q50.8908 1023.32 58.1159 1021.25 Q65.3091 1019.15 72.5979 1014.92 L72.5979 1020.01 Q65.1182 1024.79 57.8931 1027.18 Q50.668 1029.53 43.5384 1029.53 Q36.4406 1029.53 29.2474 1027.18 Q22.0542 1024.82 14.5426 1020.01 L14.5426 1014.92 Z" fill="#000000" fill-rule="nonzero" fill-opacity="1" /><path clip-path="url(#clip370)" d="M14.479 1003.56 L14.479 997.702 L64.0042 997.702 L64.0042 1003.56 L14.479 1003.56 Z" fill="#000000" fill-rule="nonzero" fill-opacity="1" /><path clip-path="url(#clip370)" d="M23.1363 961.608 L40.8648 961.608 L40.8648 943.88 L46.2757 943.88 L46.2757 961.608 L64.0042 961.608 L64.0042 966.956 L46.2757 966.956 L46.2757 984.684 L40.8648 984.684 L40.8648 966.956 L23.1363 966.956 L23.1363 961.608 Z" fill="#000000" fill-rule="nonzero" fill-opacity="1" /><path clip-path="url(#clip370)" d="M58.5933 928.889 L58.5933 918.385 L22.3406 918.385 L24.6323 929.812 L18.7758 929.812 L16.4842 918.449 L16.4842 912.019 L58.5933 912.019 L58.5933 901.516 L64.0042 901.516 L64.0042 928.889 L58.5933 928.889 Z" fill="#000000" fill-rule="nonzero" fill-opacity="1" /><path clip-path="url(#clip370)" d="M14.5426 890.281 L14.5426 885.188 Q22.0542 880.414 29.2474 878.058 Q36.4406 875.671 43.5384 875.671 Q50.668 875.671 57.8931 878.058 Q65.1182 880.414 72.5979 885.188 L72.5979 890.281 Q65.3091 886.047 58.1159 883.979 Q50.8908 881.878 43.5384 881.878 Q36.186 881.878 29.0246 883.979 Q21.8632 886.047 14.5426 890.281 Z" fill="#000000" fill-rule="nonzero" fill-opacity="1" /><path clip-path="url(#clip370)" d="M20.1444 807.367 L26.9239 807.367 Q23.9002 810.614 22.4043 814.306 Q20.9083 817.966 20.9083 822.104 Q20.9083 830.252 25.9054 834.581 Q30.8707 838.909 40.2919 838.909 Q49.6813 838.909 54.6784 834.581 Q59.6436 830.252 59.6436 822.104 Q59.6436 817.966 58.1477 814.306 Q56.6518 810.614 53.6281 807.367 L60.3439 807.367 Q62.6355 810.741 63.7814 814.529 Q64.9272 818.284 64.9272 822.486 Q64.9272 833.276 58.3387 839.482 Q51.7183 845.689 40.2919 845.689 Q28.8336 845.689 22.2451 839.482 Q15.6248 833.276 15.6248 822.486 Q15.6248 818.221 16.7706 814.465 Q17.8846 810.677 20.1444 807.367 Z" fill="#000000" fill-rule="nonzero" fill-opacity="1" /><path clip-path="url(#clip370)" d="M36.2815 799.951 L36.2815 796.259 L64.0042 796.259 L64.0042 799.951 L36.2815 799.951 Z" fill="#000000" fill-rule="nonzero" fill-opacity="1" /><path clip-path="url(#clip370)" d="M16.4842 755.741 L16.4842 750.331 L70.0516 766.881 L70.0516 772.292 L16.4842 755.741 Z" fill="#000000" fill-rule="nonzero" fill-opacity="1" /><path clip-path="url(#clip370)" d="M58.5933 717.102 L58.5933 694.662 L64.0042 694.662 L64.0042 724.836 L58.5933 724.836 Q54.8057 721.176 48.44 714.874 Q42.0425 708.54 40.1964 706.916 Q36.7271 703.829 34.34 702.62 Q31.921 701.378 29.5975 701.378 Q25.8099 701.378 23.4228 704.052 Q21.0356 706.694 21.0356 710.959 Q21.0356 713.982 22.086 717.356 Q23.1363 720.698 25.2688 724.518 L18.7758 724.518 Q17.2162 720.635 16.4205 717.261 Q15.6248 713.887 15.6248 711.086 Q15.6248 703.702 19.3169 699.309 Q23.009 694.917 29.1837 694.917 Q32.112 694.917 34.7537 696.031 Q37.3637 697.113 40.9285 700.01 Q41.8515 700.805 46.2757 705.07 Q50.668 709.335 58.5933 717.102 Z" fill="#000000" fill-rule="nonzero" fill-opacity="1" /><path clip-path="url(#clip370)" d="M28.3562 685.782 L28.3562 651.63 L34.2127 651.63 L34.2127 656.118 L56.1107 656.118 Q58.4023 656.118 59.4208 655.354 Q60.4075 654.558 60.4075 652.808 Q60.4075 652.33 60.3439 651.63 Q60.2484 650.93 60.2166 650.707 L64.4498 650.707 Q64.8635 651.821 65.0545 652.999 Q65.2455 654.177 65.2455 655.354 Q65.2455 659.174 63.1766 660.638 Q61.0759 662.102 55.4741 662.102 L34.2127 662.102 L34.2127 675.247 L64.0042 675.247 L64.0042 681.231 L34.2127 681.231 L34.2127 685.782 L28.3562 685.782 Z" fill="#000000" fill-rule="nonzero" fill-opacity="1" /><path clip-path="url(#clip370)" d="M14.5426 607.961 Q21.8632 612.227 29.0246 614.295 Q36.186 616.364 43.5384 616.364 Q50.8908 616.364 58.1159 614.295 Q65.3091 612.195 72.5979 607.961 L72.5979 613.054 Q65.1182 617.828 57.8931 620.215 Q50.668 622.571 43.5384 622.571 Q36.4406 622.571 29.2474 620.215 Q22.0542 617.86 14.5426 613.054 L14.5426 607.961 Z" fill="#000000" fill-rule="nonzero" fill-opacity="1" /><path clip-path="url(#clip370)" d="M77.5631 597.203 L28.3562 597.203 L28.3562 591.347 L50.5089 591.347 Q55.124 591.347 57.4793 589.151 Q59.8346 586.955 59.8346 582.658 Q59.8346 577.947 57.161 575.592 Q54.4874 573.205 49.1402 573.205 L28.3562 573.205 L28.3562 567.348 L55.7924 567.348 Q57.7021 567.348 58.6251 566.807 Q59.5163 566.234 59.5163 565.057 Q59.5163 564.77 59.3572 564.261 Q59.1662 563.752 58.7843 562.86 L63.4949 562.86 Q64.227 564.165 64.5771 565.343 Q64.9272 566.489 64.9272 567.603 Q64.9272 569.799 63.6859 571.104 Q62.4446 572.409 59.8983 572.886 Q62.4127 574.478 63.6859 576.801 Q64.9272 579.093 64.9272 582.212 Q64.9272 585.459 63.6859 587.75 Q62.4446 590.01 59.9619 591.347 L77.5631 591.347 L77.5631 597.203 Z" fill="#000000" fill-rule="nonzero" fill-opacity="1" /><path clip-path="url(#clip370)" d="M16.4842 554.871 L16.4842 548.442 L36.568 548.442 L16.4842 527.117 L16.4842 518.842 L38.6368 542.427 L64.0042 517.155 L64.0042 525.621 L41.1194 548.442 L64.0042 548.442 L64.0042 554.871 L16.4842 554.871 Z" fill="#000000" fill-rule="nonzero" fill-opacity="1" /><path clip-path="url(#clip370)" d="M16.4842 488.095 L34.2127 470.812 L34.2127 477.21 L21.6404 491.214 L34.2127 505.219 L34.2127 511.617 L16.4842 494.334 L16.4842 488.095 Z" fill="#000000" fill-rule="nonzero" fill-opacity="1" /><path clip-path="url(#clip370)" d="M58.5933 451.397 L58.5933 428.958 L64.0042 428.958 L64.0042 459.131 L58.5933 459.131 Q54.8057 455.471 48.44 449.169 Q42.0425 442.835 40.1964 441.212 Q36.7271 438.124 34.34 436.915 Q31.921 435.674 29.5975 435.674 Q25.8099 435.674 23.4228 438.347 Q21.0356 440.989 21.0356 445.254 Q21.0356 448.278 22.086 451.652 Q23.1363 454.994 25.2688 458.813 L18.7758 458.813 Q17.2162 454.93 16.4205 451.556 Q15.6248 448.182 15.6248 445.381 Q15.6248 437.997 19.3169 433.605 Q23.009 429.212 29.1837 429.212 Q32.112 429.212 34.7537 430.326 Q37.3637 431.409 40.9285 434.305 Q41.8515 435.101 46.2757 439.366 Q50.668 443.631 58.5933 451.397 Z" fill="#000000" fill-rule="nonzero" fill-opacity="1" /><path clip-path="url(#clip370)" d="M14.5426 417.213 L14.5426 412.121 Q22.0542 407.346 29.2474 404.991 Q36.4406 402.604 43.5384 402.604 Q50.668 402.604 57.8931 404.991 Q65.1182 407.346 72.5979 412.121 L72.5979 417.213 Q65.3091 412.98 58.1159 410.911 Q50.8908 408.81 43.5384 408.81 Q36.186 408.81 29.0246 410.911 Q21.8632 412.98 14.5426 417.213 Z" fill="#000000" fill-rule="nonzero" fill-opacity="1" /><polyline clip-path="url(#clip371)" style="stroke:#009af9; stroke-linecap:round; stroke-linejoin:round; stroke-width:4; stroke-opacity:1; fill:none" points="324.52,1384.24 344.41,1363.25 364.301,1325.96 384.191,1281.25 404.082,1231.05 423.972,1175.59 443.863,1114.88 463.753,1048.88 483.644,977.651 503.534,901.564 523.425,821.069 543.315,737.191 563.206,651.446 583.096,565.555 602.987,480.892 622.877,399.754 642.768,324.372 662.658,256.483 682.549,198.036 702.439,150.646 722.33,115.397 742.22,93.8193 762.111,86.1857 782.002,92.8883 801.892,113.645 821.783,147.768 841.673,194.601 861.564,252.504 881.454,319.935 901.345,394.953 921.235,475.517 941.126,559.442 961.016,644.583 980.907,728.746 1000.8,809.971 1020.69,886.291 1040.58,956.122 1060.47,1018.15 1080.36,1071.28 1100.25,1114.92 1120.14,1148.71 1140.03,1172.53 1159.92,1186.85 1179.81,1192.2 1199.7,1189.5 1219.59,1179.87 1239.48,1164.47 1259.37,1144.85 1279.26,1122.31 1299.16,1098.33 1319.05,1074.33 1338.94,1051.49 1358.83,1031.07 1378.72,1013.92 1398.61,1000.85 1418.5,992.391 1438.39,988.755 1458.28,990.08 1478.17,996.129 1498.06,1006.57 1517.95,1020.9 1537.84,1038.32 1557.73,1058.08 1577.62,1079.27 1597.51,1100.91 1617.4,1122.17 1637.29,1142.08 1657.18,1159.93 1677.07,1174.97 1696.97,1186.6 1716.86,1194.53 1736.75,1198.42 1756.64,1198.26 1776.53,1194.12 1796.42,1186.26 1816.31,1175.11 1836.2,1161.2 1856.09,1145.15 1875.98,1127.73 1895.87,1109.64 1915.76,1091.72 1935.65,1074.76 1955.54,1059.41 1975.43,1046.46 1995.32,1036.37 2015.21,1029.71 2035.1,1026.79 2054.99,1027.83 2074.89,1032.93 2094.78,1042.05 2114.67,1054.95 2134.56,1071.37 2154.45,1090.84 2174.34,1112.92 2194.23,1137.02 2214.12,1162.47 2234.01,1188.66 2253.9,1214.94 2273.79,1240.68 2293.68,1265.3 "/>
</svg>
