<?xml version="1.0" encoding="utf-8"?>
<svg xmlns="http://www.w3.org/2000/svg" xmlns:xlink="http://www.w3.org/1999/xlink" width="600" height="400" viewBox="0 0 2400 1600">
<defs>
  <clipPath id="clip030">
    <rect x="0" y="0" width="2400" height="1600"/>
  </clipPath>
</defs>
<path clip-path="url(#clip030)" d="M0 1600 L2400 1600 L2400 0 L0 0  Z" fill="#ffffff" fill-rule="evenodd" fill-opacity="1"/>
<defs>
  <clipPath id="clip031">
    <rect x="287" y="47" width="2066" height="1377"/>
  </clipPath>
</defs>
<path clip-path="url(#clip030)" d="M287.366 1423.18 L2352.76 1423.18 L2352.76 47.2441 L287.366 47.2441  Z" fill="#ffffff" fill-rule="evenodd" fill-opacity="1"/>
<polyline clip-path="url(#clip031)" style="stroke:#000000; stroke-linecap:round; stroke-linejoin:round; stroke-width:2; stroke-opacity:0.1; fill:none" points="329.447,1423.18 329.447,47.2441 "/>
<polyline clip-path="url(#clip031)" style="stroke:#000000; stroke-linecap:round; stroke-linejoin:round; stroke-width:2; stroke-opacity:0.1; fill:none" points="984.398,1423.18 984.398,47.2441 "/>
<polyline clip-path="url(#clip031)" style="stroke:#000000; stroke-linecap:round; stroke-linejoin:round; stroke-width:2; stroke-opacity:0.1; fill:none" points="1639.35,1423.18 1639.35,47.2441 "/>
<polyline clip-path="url(#clip031)" style="stroke:#000000; stroke-linecap:round; stroke-linejoin:round; stroke-width:2; stroke-opacity:0.1; fill:none" points="2294.3,1423.18 2294.3,47.2441 "/>
<polyline clip-path="url(#clip031)" style="stroke:#000000; stroke-linecap:round; stroke-linejoin:round; stroke-width:2; stroke-opacity:0.1; fill:none" points="287.366,1418.56 2352.76,1418.56 "/>
<polyline clip-path="url(#clip031)" style="stroke:#000000; stroke-linecap:round; stroke-linejoin:round; stroke-width:2; stroke-opacity:0.1; fill:none" points="287.366,1114.05 2352.76,1114.05 "/>
<polyline clip-path="url(#clip031)" style="stroke:#000000; stroke-linecap:round; stroke-linejoin:round; stroke-width:2; stroke-opacity:0.1; fill:none" points="287.366,809.544 2352.76,809.544 "/>
<polyline clip-path="url(#clip031)" style="stroke:#000000; stroke-linecap:round; stroke-linejoin:round; stroke-width:2; stroke-opacity:0.1; fill:none" points="287.366,505.035 2352.76,505.035 "/>
<polyline clip-path="url(#clip031)" style="stroke:#000000; stroke-linecap:round; stroke-linejoin:round; stroke-width:2; stroke-opacity:0.1; fill:none" points="287.366,200.527 2352.76,200.527 "/>
<polyline clip-path="url(#clip030)" style="stroke:#000000; stroke-linecap:round; stroke-linejoin:round; stroke-width:4; stroke-opacity:1; fill:none" points="287.366,1423.18 2352.76,1423.18 "/>
<polyline clip-path="url(#clip030)" style="stroke:#000000; stroke-linecap:round; stroke-linejoin:round; stroke-width:4; stroke-opacity:1; fill:none" points="329.447,1423.18 329.447,1404.28 "/>
<polyline clip-path="url(#clip030)" style="stroke:#000000; stroke-linecap:round; stroke-linejoin:round; stroke-width:4; stroke-opacity:1; fill:none" points="984.398,1423.18 984.398,1404.28 "/>
<polyline clip-path="url(#clip030)" style="stroke:#000000; stroke-linecap:round; stroke-linejoin:round; stroke-width:4; stroke-opacity:1; fill:none" points="1639.35,1423.18 1639.35,1404.28 "/>
<polyline clip-path="url(#clip030)" style="stroke:#000000; stroke-linecap:round; stroke-linejoin:round; stroke-width:4; stroke-opacity:1; fill:none" points="2294.3,1423.18 2294.3,1404.28 "/>
<path clip-path="url(#clip030)" d="M329.447 1454.1 Q325.835 1454.1 324.007 1457.66 Q322.201 1461.2 322.201 1468.33 Q322.201 1475.44 324.007 1479.01 Q325.835 1482.55 329.447 1482.55 Q333.081 1482.55 334.886 1479.01 Q336.715 1475.44 336.715 1468.33 Q336.715 1461.2 334.886 1457.66 Q333.081 1454.1 329.447 1454.1 M329.447 1450.39 Q335.257 1450.39 338.312 1455 Q341.391 1459.58 341.391 1468.33 Q341.391 1477.06 338.312 1481.67 Q335.257 1486.25 329.447 1486.25 Q323.636 1486.25 320.558 1481.67 Q317.502 1477.06 317.502 1468.33 Q317.502 1459.58 320.558 1455 Q323.636 1450.39 329.447 1450.39 Z" fill="#000000" fill-rule="nonzero" fill-opacity="1" /><path clip-path="url(#clip030)" d="M928.924 1481.64 L936.563 1481.64 L936.563 1455.28 L928.253 1456.95 L928.253 1452.69 L936.517 1451.02 L941.192 1451.02 L941.192 1481.64 L948.831 1481.64 L948.831 1485.58 L928.924 1485.58 L928.924 1481.64 Z" fill="#000000" fill-rule="nonzero" fill-opacity="1" /><path clip-path="url(#clip030)" d="M968.276 1454.1 Q964.664 1454.1 962.836 1457.66 Q961.03 1461.2 961.03 1468.33 Q961.03 1475.44 962.836 1479.01 Q964.664 1482.55 968.276 1482.55 Q971.91 1482.55 973.715 1479.01 Q975.544 1475.44 975.544 1468.33 Q975.544 1461.2 973.715 1457.66 Q971.91 1454.1 968.276 1454.1 M968.276 1450.39 Q974.086 1450.39 977.141 1455 Q980.22 1459.58 980.22 1468.33 Q980.22 1477.06 977.141 1481.67 Q974.086 1486.25 968.276 1486.25 Q962.465 1486.25 959.387 1481.67 Q956.331 1477.06 956.331 1468.33 Q956.331 1459.58 959.387 1455 Q962.465 1450.39 968.276 1450.39 Z" fill="#000000" fill-rule="nonzero" fill-opacity="1" /><path clip-path="url(#clip030)" d="M998.437 1454.1 Q994.826 1454.1 992.998 1457.66 Q991.192 1461.2 991.192 1468.33 Q991.192 1475.44 992.998 1479.01 Q994.826 1482.55 998.437 1482.55 Q1002.07 1482.55 1003.88 1479.01 Q1005.71 1475.44 1005.71 1468.33 Q1005.71 1461.2 1003.88 1457.66 Q1002.07 1454.1 998.437 1454.1 M998.437 1450.39 Q1004.25 1450.39 1007.3 1455 Q1010.38 1459.58 1010.38 1468.33 Q1010.38 1477.06 1007.3 1481.67 Q1004.25 1486.25 998.437 1486.25 Q992.627 1486.25 989.549 1481.67 Q986.493 1477.06 986.493 1468.33 Q986.493 1459.58 989.549 1455 Q992.627 1450.39 998.437 1450.39 Z" fill="#000000" fill-rule="nonzero" fill-opacity="1" /><path clip-path="url(#clip030)" d="M1028.6 1454.1 Q1024.99 1454.1 1023.16 1457.66 Q1021.35 1461.2 1021.35 1468.33 Q1021.35 1475.44 1023.16 1479.01 Q1024.99 1482.55 1028.6 1482.55 Q1032.23 1482.55 1034.04 1479.01 Q1035.87 1475.44 1035.87 1468.33 Q1035.87 1461.2 1034.04 1457.66 Q1032.23 1454.1 1028.6 1454.1 M1028.6 1450.39 Q1034.41 1450.39 1037.47 1455 Q1040.54 1459.58 1040.54 1468.33 Q1040.54 1477.06 1037.47 1481.67 Q1034.41 1486.25 1028.6 1486.25 Q1022.79 1486.25 1019.71 1481.67 Q1016.65 1477.06 1016.65 1468.33 Q1016.65 1459.58 1019.71 1455 Q1022.79 1450.39 1028.6 1450.39 Z" fill="#000000" fill-rule="nonzero" fill-opacity="1" /><path clip-path="url(#clip030)" d="M1587.96 1481.64 L1604.28 1481.64 L1604.28 1485.58 L1582.34 1485.58 L1582.34 1481.64 Q1585 1478.89 1589.58 1474.26 Q1594.19 1469.61 1595.37 1468.27 Q1597.61 1465.74 1598.49 1464.01 Q1599.4 1462.25 1599.4 1460.56 Q1599.4 1457.8 1597.45 1456.07 Q1595.53 1454.33 1592.43 1454.33 Q1590.23 1454.33 1587.78 1455.09 Q1585.35 1455.86 1582.57 1457.41 L1582.57 1452.69 Q1585.39 1451.55 1587.85 1450.97 Q1590.3 1450.39 1592.34 1450.39 Q1597.71 1450.39 1600.9 1453.08 Q1604.1 1455.77 1604.1 1460.26 Q1604.1 1462.39 1603.29 1464.31 Q1602.5 1466.2 1600.39 1468.8 Q1599.81 1469.47 1596.71 1472.69 Q1593.61 1475.88 1587.96 1481.64 Z" fill="#000000" fill-rule="nonzero" fill-opacity="1" /><path clip-path="url(#clip030)" d="M1624.1 1454.1 Q1620.48 1454.1 1618.66 1457.66 Q1616.85 1461.2 1616.85 1468.33 Q1616.85 1475.44 1618.66 1479.01 Q1620.48 1482.55 1624.1 1482.55 Q1627.73 1482.55 1629.54 1479.01 Q1631.36 1475.44 1631.36 1468.33 Q1631.36 1461.2 1629.54 1457.66 Q1627.73 1454.1 1624.1 1454.1 M1624.1 1450.39 Q1629.91 1450.39 1632.96 1455 Q1636.04 1459.58 1636.04 1468.33 Q1636.04 1477.06 1632.96 1481.67 Q1629.91 1486.25 1624.1 1486.25 Q1618.29 1486.25 1615.21 1481.67 Q1612.15 1477.06 1612.15 1468.33 Q1612.15 1459.58 1615.21 1455 Q1618.29 1450.39 1624.1 1450.39 Z" fill="#000000" fill-rule="nonzero" fill-opacity="1" /><path clip-path="url(#clip030)" d="M1654.26 1454.1 Q1650.65 1454.1 1648.82 1457.66 Q1647.01 1461.2 1647.01 1468.33 Q1647.01 1475.44 1648.82 1479.01 Q1650.65 1482.55 1654.26 1482.55 Q1657.89 1482.55 1659.7 1479.01 Q1661.53 1475.44 1661.53 1468.33 Q1661.53 1461.2 1659.7 1457.66 Q1657.89 1454.1 1654.26 1454.1 M1654.26 1450.39 Q1660.07 1450.39 1663.12 1455 Q1666.2 1459.58 1666.2 1468.33 Q1666.2 1477.06 1663.12 1481.67 Q1660.07 1486.25 1654.26 1486.25 Q1648.45 1486.25 1645.37 1481.67 Q1642.31 1477.06 1642.31 1468.33 Q1642.31 1459.58 1645.37 1455 Q1648.45 1450.39 1654.26 1450.39 Z" fill="#000000" fill-rule="nonzero" fill-opacity="1" /><path clip-path="url(#clip030)" d="M1684.42 1454.1 Q1680.81 1454.1 1678.98 1457.66 Q1677.17 1461.2 1677.17 1468.33 Q1677.17 1475.44 1678.98 1479.01 Q1680.81 1482.55 1684.42 1482.55 Q1688.05 1482.55 1689.86 1479.01 Q1691.69 1475.44 1691.69 1468.33 Q1691.69 1461.2 1689.86 1457.66 Q1688.05 1454.1 1684.42 1454.1 M1684.42 1450.39 Q1690.23 1450.39 1693.28 1455 Q1696.36 1459.58 1696.36 1468.33 Q1696.36 1477.06 1693.28 1481.67 Q1690.23 1486.25 1684.42 1486.25 Q1678.61 1486.25 1675.53 1481.67 Q1672.47 1477.06 1672.47 1468.33 Q1672.47 1459.58 1675.53 1455 Q1678.61 1450.39 1684.42 1450.39 Z" fill="#000000" fill-rule="nonzero" fill-opacity="1" /><path clip-path="url(#clip030)" d="M2252.98 1466.95 Q2256.34 1467.66 2258.21 1469.93 Q2260.11 1472.2 2260.11 1475.53 Q2260.11 1480.65 2256.59 1483.45 Q2253.07 1486.25 2246.59 1486.25 Q2244.42 1486.25 2242.1 1485.81 Q2239.81 1485.39 2237.36 1484.54 L2237.36 1480.02 Q2239.3 1481.16 2241.62 1481.74 Q2243.93 1482.32 2246.45 1482.32 Q2250.85 1482.32 2253.14 1480.58 Q2255.46 1478.84 2255.46 1475.53 Q2255.46 1472.48 2253.31 1470.77 Q2251.18 1469.03 2247.36 1469.03 L2243.33 1469.03 L2243.33 1465.19 L2247.54 1465.19 Q2250.99 1465.19 2252.82 1463.82 Q2254.65 1462.43 2254.65 1459.84 Q2254.65 1457.18 2252.75 1455.77 Q2250.88 1454.33 2247.36 1454.33 Q2245.44 1454.33 2243.24 1454.75 Q2241.04 1455.16 2238.4 1456.04 L2238.4 1451.88 Q2241.06 1451.14 2243.38 1450.77 Q2245.71 1450.39 2247.77 1450.39 Q2253.1 1450.39 2256.2 1452.83 Q2259.3 1455.23 2259.3 1459.35 Q2259.3 1462.22 2257.66 1464.21 Q2256.01 1466.18 2252.98 1466.95 Z" fill="#000000" fill-rule="nonzero" fill-opacity="1" /><path clip-path="url(#clip030)" d="M2278.98 1454.1 Q2275.37 1454.1 2273.54 1457.66 Q2271.73 1461.2 2271.73 1468.33 Q2271.73 1475.44 2273.54 1479.01 Q2275.37 1482.55 2278.98 1482.55 Q2282.61 1482.55 2284.42 1479.01 Q2286.25 1475.44 2286.25 1468.33 Q2286.25 1461.2 2284.42 1457.66 Q2282.61 1454.1 2278.98 1454.1 M2278.98 1450.39 Q2284.79 1450.39 2287.84 1455 Q2290.92 1459.58 2290.92 1468.33 Q2290.92 1477.06 2287.84 1481.67 Q2284.79 1486.25 2278.98 1486.25 Q2273.17 1486.25 2270.09 1481.67 Q2267.03 1477.06 2267.03 1468.33 Q2267.03 1459.58 2270.09 1455 Q2273.17 1450.39 2278.98 1450.39 Z" fill="#000000" fill-rule="nonzero" fill-opacity="1" /><path clip-path="url(#clip030)" d="M2309.14 1454.1 Q2305.53 1454.1 2303.7 1457.66 Q2301.89 1461.2 2301.89 1468.33 Q2301.89 1475.44 2303.7 1479.01 Q2305.53 1482.55 2309.14 1482.55 Q2312.77 1482.55 2314.58 1479.01 Q2316.41 1475.44 2316.41 1468.33 Q2316.41 1461.2 2314.58 1457.66 Q2312.77 1454.1 2309.14 1454.1 M2309.14 1450.39 Q2314.95 1450.39 2318.01 1455 Q2321.08 1459.58 2321.08 1468.33 Q2321.08 1477.06 2318.01 1481.67 Q2314.95 1486.25 2309.14 1486.25 Q2303.33 1486.25 2300.25 1481.67 Q2297.19 1477.06 2297.19 1468.33 Q2297.19 1459.58 2300.25 1455 Q2303.33 1450.39 2309.14 1450.39 Z" fill="#000000" fill-rule="nonzero" fill-opacity="1" /><path clip-path="url(#clip030)" d="M2339.3 1454.1 Q2335.69 1454.1 2333.86 1457.66 Q2332.06 1461.2 2332.06 1468.33 Q2332.06 1475.44 2333.86 1479.01 Q2335.69 1482.55 2339.3 1482.55 Q2342.94 1482.55 2344.74 1479.01 Q2346.57 1475.44 2346.57 1468.33 Q2346.57 1461.2 2344.74 1457.66 Q2342.94 1454.1 2339.3 1454.1 M2339.3 1450.39 Q2345.11 1450.39 2348.17 1455 Q2351.25 1459.58 2351.25 1468.33 Q2351.25 1477.06 2348.17 1481.67 Q2345.11 1486.25 2339.3 1486.25 Q2333.49 1486.25 2330.41 1481.67 Q2327.36 1477.06 2327.36 1468.33 Q2327.36 1459.58 2330.41 1455 Q2333.49 1450.39 2339.3 1450.39 Z" fill="#000000" fill-rule="nonzero" fill-opacity="1" /><path clip-path="url(#clip030)" d="M1317.13 1518.52 L1322.99 1518.52 L1322.99 1568.04 L1317.13 1568.04 L1317.13 1518.52 Z" fill="#000000" fill-rule="nonzero" fill-opacity="1" /><polyline clip-path="url(#clip030)" style="stroke:#000000; stroke-linecap:round; stroke-linejoin:round; stroke-width:4; stroke-opacity:1; fill:none" points="287.366,1423.18 287.366,47.2441 "/>
<polyline clip-path="url(#clip030)" style="stroke:#000000; stroke-linecap:round; stroke-linejoin:round; stroke-width:4; stroke-opacity:1; fill:none" points="287.366,1418.56 306.264,1418.56 "/>
<polyline clip-path="url(#clip030)" style="stroke:#000000; stroke-linecap:round; stroke-linejoin:round; stroke-width:4; stroke-opacity:1; fill:none" points="287.366,1114.05 306.264,1114.05 "/>
<polyline clip-path="url(#clip030)" style="stroke:#000000; stroke-linecap:round; stroke-linejoin:round; stroke-width:4; stroke-opacity:1; fill:none" points="287.366,809.544 306.264,809.544 "/>
<polyline clip-path="url(#clip030)" style="stroke:#000000; stroke-linecap:round; stroke-linejoin:round; stroke-width:4; stroke-opacity:1; fill:none" points="287.366,505.035 306.264,505.035 "/>
<polyline clip-path="url(#clip030)" style="stroke:#000000; stroke-linecap:round; stroke-linejoin:round; stroke-width:4; stroke-opacity:1; fill:none" points="287.366,200.527 306.264,200.527 "/>
<path clip-path="url(#clip030)" d="M114.26 1419.01 L143.936 1419.01 L143.936 1422.95 L114.26 1422.95 L114.26 1419.01 Z" fill="#000000" fill-rule="nonzero" fill-opacity="1" /><path clip-path="url(#clip030)" d="M158.056 1431.91 L174.376 1431.91 L174.376 1435.84 L152.431 1435.84 L152.431 1431.91 Q155.093 1429.15 159.677 1424.52 Q164.283 1419.87 165.464 1418.53 Q167.709 1416 168.589 1414.27 Q169.491 1412.51 169.491 1410.82 Q169.491 1408.06 167.547 1406.33 Q165.626 1404.59 162.524 1404.59 Q160.325 1404.59 157.871 1405.35 Q155.44 1406.12 152.663 1407.67 L152.663 1402.95 Q155.487 1401.81 157.94 1401.23 Q160.394 1400.66 162.431 1400.66 Q167.802 1400.66 170.996 1403.34 Q174.19 1406.03 174.19 1410.52 Q174.19 1412.65 173.38 1414.57 Q172.593 1416.47 170.487 1419.06 Q169.908 1419.73 166.806 1422.95 Q163.704 1426.14 158.056 1431.91 Z" fill="#000000" fill-rule="nonzero" fill-opacity="1" /><path clip-path="url(#clip030)" d="M194.19 1404.36 Q190.579 1404.36 188.75 1407.92 Q186.945 1411.47 186.945 1418.6 Q186.945 1425.7 188.75 1429.27 Q190.579 1432.81 194.19 1432.81 Q197.825 1432.81 199.63 1429.27 Q201.459 1425.7 201.459 1418.6 Q201.459 1411.47 199.63 1407.92 Q197.825 1404.36 194.19 1404.36 M194.19 1400.66 Q200 1400.66 203.056 1405.26 Q206.135 1409.85 206.135 1418.6 Q206.135 1427.32 203.056 1431.93 Q200 1436.51 194.19 1436.51 Q188.38 1436.51 185.301 1431.93 Q182.246 1427.32 182.246 1418.6 Q182.246 1409.85 185.301 1405.26 Q188.38 1400.66 194.19 1400.66 Z" fill="#000000" fill-rule="nonzero" fill-opacity="1" /><path clip-path="url(#clip030)" d="M214.352 1429.96 L219.236 1429.96 L219.236 1435.84 L214.352 1435.84 L214.352 1429.96 Z" fill="#000000" fill-rule="nonzero" fill-opacity="1" /><path clip-path="url(#clip030)" d="M239.422 1404.36 Q235.81 1404.36 233.982 1407.92 Q232.176 1411.47 232.176 1418.6 Q232.176 1425.7 233.982 1429.27 Q235.81 1432.81 239.422 1432.81 Q243.056 1432.81 244.861 1429.27 Q246.69 1425.7 246.69 1418.6 Q246.69 1411.47 244.861 1407.92 Q243.056 1404.36 239.422 1404.36 M239.422 1400.66 Q245.232 1400.66 248.287 1405.26 Q251.366 1409.85 251.366 1418.6 Q251.366 1427.32 248.287 1431.93 Q245.232 1436.51 239.422 1436.51 Q233.611 1436.51 230.533 1431.93 Q227.477 1427.32 227.477 1418.6 Q227.477 1409.85 230.533 1405.26 Q233.611 1400.66 239.422 1400.66 Z" fill="#000000" fill-rule="nonzero" fill-opacity="1" /><path clip-path="url(#clip030)" d="M115.256 1114.5 L144.931 1114.5 L144.931 1118.44 L115.256 1118.44 L115.256 1114.5 Z" fill="#000000" fill-rule="nonzero" fill-opacity="1" /><path clip-path="url(#clip030)" d="M155.834 1127.4 L163.473 1127.4 L163.473 1101.03 L155.163 1102.7 L155.163 1098.44 L163.427 1096.77 L168.102 1096.77 L168.102 1127.4 L175.741 1127.4 L175.741 1131.33 L155.834 1131.33 L155.834 1127.4 Z" fill="#000000" fill-rule="nonzero" fill-opacity="1" /><path clip-path="url(#clip030)" d="M184.005 1096.77 L206.227 1096.77 L206.227 1098.76 L193.681 1131.33 L188.797 1131.33 L200.602 1100.71 L184.005 1100.71 L184.005 1096.77 Z" fill="#000000" fill-rule="nonzero" fill-opacity="1" /><path clip-path="url(#clip030)" d="M215.348 1125.45 L220.232 1125.45 L220.232 1131.33 L215.348 1131.33 L215.348 1125.45 Z" fill="#000000" fill-rule="nonzero" fill-opacity="1" /><path clip-path="url(#clip030)" d="M230.463 1096.77 L248.82 1096.77 L248.82 1100.71 L234.746 1100.71 L234.746 1109.18 Q235.764 1108.83 236.783 1108.67 Q237.801 1108.48 238.82 1108.48 Q244.607 1108.48 247.986 1111.66 Q251.366 1114.83 251.366 1120.24 Q251.366 1125.82 247.894 1128.92 Q244.421 1132 238.102 1132 Q235.926 1132 233.658 1131.63 Q231.412 1131.26 229.005 1130.52 L229.005 1125.82 Q231.088 1126.96 233.31 1127.51 Q235.533 1128.07 238.009 1128.07 Q242.014 1128.07 244.352 1125.96 Q246.69 1123.86 246.69 1120.24 Q246.69 1116.63 244.352 1114.53 Q242.014 1112.42 238.009 1112.42 Q236.135 1112.42 234.26 1112.84 Q232.408 1113.25 230.463 1114.13 L230.463 1096.77 Z" fill="#000000" fill-rule="nonzero" fill-opacity="1" /><path clip-path="url(#clip030)" d="M114.26 809.995 L143.936 809.995 L143.936 813.93 L114.26 813.93 L114.26 809.995 Z" fill="#000000" fill-rule="nonzero" fill-opacity="1" /><path clip-path="url(#clip030)" d="M154.839 822.889 L162.477 822.889 L162.477 796.523 L154.167 798.19 L154.167 793.93 L162.431 792.264 L167.107 792.264 L167.107 822.889 L174.746 822.889 L174.746 826.824 L154.839 826.824 L154.839 822.889 Z" fill="#000000" fill-rule="nonzero" fill-opacity="1" /><path clip-path="url(#clip030)" d="M184.237 792.264 L202.593 792.264 L202.593 796.199 L188.519 796.199 L188.519 804.671 Q189.538 804.324 190.556 804.162 Q191.575 803.977 192.593 803.977 Q198.38 803.977 201.76 807.148 Q205.139 810.319 205.139 815.736 Q205.139 821.314 201.667 824.416 Q198.195 827.495 191.875 827.495 Q189.7 827.495 187.431 827.125 Q185.186 826.754 182.778 826.013 L182.778 821.314 Q184.862 822.449 187.084 823.004 Q189.306 823.56 191.783 823.56 Q195.787 823.56 198.125 821.453 Q200.463 819.347 200.463 815.736 Q200.463 812.125 198.125 810.018 Q195.787 807.912 191.783 807.912 Q189.908 807.912 188.033 808.328 Q186.181 808.745 184.237 809.625 L184.237 792.264 Z" fill="#000000" fill-rule="nonzero" fill-opacity="1" /><path clip-path="url(#clip030)" d="M214.352 820.944 L219.236 820.944 L219.236 826.824 L214.352 826.824 L214.352 820.944 Z" fill="#000000" fill-rule="nonzero" fill-opacity="1" /><path clip-path="url(#clip030)" d="M239.422 795.342 Q235.81 795.342 233.982 798.907 Q232.176 802.449 232.176 809.578 Q232.176 816.685 233.982 820.25 Q235.81 823.791 239.422 823.791 Q243.056 823.791 244.861 820.25 Q246.69 816.685 246.69 809.578 Q246.69 802.449 244.861 798.907 Q243.056 795.342 239.422 795.342 M239.422 791.639 Q245.232 791.639 248.287 796.245 Q251.366 800.828 251.366 809.578 Q251.366 818.305 248.287 822.912 Q245.232 827.495 239.422 827.495 Q233.611 827.495 230.533 822.912 Q227.477 818.305 227.477 809.578 Q227.477 800.828 230.533 796.245 Q233.611 791.639 239.422 791.639 Z" fill="#000000" fill-rule="nonzero" fill-opacity="1" /><path clip-path="url(#clip030)" d="M115.256 505.487 L144.931 505.487 L144.931 509.422 L115.256 509.422 L115.256 505.487 Z" fill="#000000" fill-rule="nonzero" fill-opacity="1" /><path clip-path="url(#clip030)" d="M155.834 518.38 L163.473 518.38 L163.473 492.015 L155.163 493.681 L155.163 489.422 L163.427 487.755 L168.102 487.755 L168.102 518.38 L175.741 518.38 L175.741 522.315 L155.834 522.315 L155.834 518.38 Z" fill="#000000" fill-rule="nonzero" fill-opacity="1" /><path clip-path="url(#clip030)" d="M189.213 518.38 L205.533 518.38 L205.533 522.315 L183.588 522.315 L183.588 518.38 Q186.251 515.626 190.834 510.996 Q195.44 506.343 196.621 505.001 Q198.866 502.477 199.746 500.741 Q200.649 498.982 200.649 497.292 Q200.649 494.538 198.704 492.802 Q196.783 491.065 193.681 491.065 Q191.482 491.065 189.028 491.829 Q186.598 492.593 183.82 494.144 L183.82 489.422 Q186.644 488.288 189.098 487.709 Q191.551 487.13 193.588 487.13 Q198.959 487.13 202.153 489.815 Q205.348 492.501 205.348 496.991 Q205.348 499.121 204.537 501.042 Q203.75 502.94 201.644 505.533 Q201.065 506.204 197.963 509.422 Q194.862 512.616 189.213 518.38 Z" fill="#000000" fill-rule="nonzero" fill-opacity="1" /><path clip-path="url(#clip030)" d="M215.348 516.436 L220.232 516.436 L220.232 522.315 L215.348 522.315 L215.348 516.436 Z" fill="#000000" fill-rule="nonzero" fill-opacity="1" /><path clip-path="url(#clip030)" d="M230.463 487.755 L248.82 487.755 L248.82 491.69 L234.746 491.69 L234.746 500.163 Q235.764 499.815 236.783 499.653 Q237.801 499.468 238.82 499.468 Q244.607 499.468 247.986 502.639 Q251.366 505.811 251.366 511.227 Q251.366 516.806 247.894 519.908 Q244.421 522.987 238.102 522.987 Q235.926 522.987 233.658 522.616 Q231.412 522.246 229.005 521.505 L229.005 516.806 Q231.088 517.94 233.31 518.496 Q235.533 519.051 238.009 519.051 Q242.014 519.051 244.352 516.945 Q246.69 514.839 246.69 511.227 Q246.69 507.616 244.352 505.51 Q242.014 503.403 238.009 503.403 Q236.135 503.403 234.26 503.82 Q232.408 504.237 230.463 505.116 L230.463 487.755 Z" fill="#000000" fill-rule="nonzero" fill-opacity="1" /><path clip-path="url(#clip030)" d="M114.26 200.978 L143.936 200.978 L143.936 204.914 L114.26 204.914 L114.26 200.978 Z" fill="#000000" fill-rule="nonzero" fill-opacity="1" /><path clip-path="url(#clip030)" d="M154.839 213.872 L162.477 213.872 L162.477 187.506 L154.167 189.173 L154.167 184.914 L162.431 183.247 L167.107 183.247 L167.107 213.872 L174.746 213.872 L174.746 217.807 L154.839 217.807 L154.839 213.872 Z" fill="#000000" fill-rule="nonzero" fill-opacity="1" /><path clip-path="url(#clip030)" d="M194.19 186.326 Q190.579 186.326 188.75 189.89 Q186.945 193.432 186.945 200.562 Q186.945 207.668 188.75 211.233 Q190.579 214.775 194.19 214.775 Q197.825 214.775 199.63 211.233 Q201.459 207.668 201.459 200.562 Q201.459 193.432 199.63 189.89 Q197.825 186.326 194.19 186.326 M194.19 182.622 Q200 182.622 203.056 187.228 Q206.135 191.812 206.135 200.562 Q206.135 209.288 203.056 213.895 Q200 218.478 194.19 218.478 Q188.38 218.478 185.301 213.895 Q182.246 209.288 182.246 200.562 Q182.246 191.812 185.301 187.228 Q188.38 182.622 194.19 182.622 Z" fill="#000000" fill-rule="nonzero" fill-opacity="1" /><path clip-path="url(#clip030)" d="M214.352 211.927 L219.236 211.927 L219.236 217.807 L214.352 217.807 L214.352 211.927 Z" fill="#000000" fill-rule="nonzero" fill-opacity="1" /><path clip-path="url(#clip030)" d="M239.422 186.326 Q235.81 186.326 233.982 189.89 Q232.176 193.432 232.176 200.562 Q232.176 207.668 233.982 211.233 Q235.81 214.775 239.422 214.775 Q243.056 214.775 244.861 211.233 Q246.69 207.668 246.69 200.562 Q246.69 193.432 244.861 189.89 Q243.056 186.326 239.422 186.326 M239.422 182.622 Q245.232 182.622 248.287 187.228 Q251.366 191.812 251.366 200.562 Q251.366 209.288 248.287 213.895 Q245.232 218.478 239.422 218.478 Q233.611 218.478 230.533 213.895 Q227.477 209.288 227.477 200.562 Q227.477 191.812 230.533 187.228 Q233.611 182.622 239.422 182.622 Z" fill="#000000" fill-rule="nonzero" fill-opacity="1" /><path clip-path="url(#clip030)" d="M14.479 815.022 L14.479 809.166 L64.0042 809.166 L64.0042 815.022 L14.479 815.022 Z" fill="#000000" fill-rule="nonzero" fill-opacity="1" /><path clip-path="url(#clip030)" d="M45.7664 773.454 Q39.4007 773.454 35.8996 776.096 Q32.3984 778.706 32.3984 783.448 Q32.3984 788.159 35.8996 790.801 Q39.4007 793.41 45.7664 793.41 Q52.1003 793.41 55.6014 790.801 Q59.1026 788.159 59.1026 783.448 Q59.1026 778.706 55.6014 776.096 Q52.1003 773.454 45.7664 773.454 M59.58 767.598 Q68.683 767.598 73.1071 771.64 Q77.5631 775.682 77.5631 784.021 Q77.5631 787.108 77.0857 789.846 Q76.6401 792.583 75.6852 795.161 L69.9879 795.161 Q71.3884 792.583 72.0568 790.068 Q72.7252 787.554 72.7252 784.944 Q72.7252 779.183 69.7015 776.319 Q66.7096 773.454 60.6303 773.454 L57.7339 773.454 Q60.885 775.268 62.4446 778.101 Q64.0042 780.934 64.0042 784.88 Q64.0042 791.437 59.0071 795.447 Q54.01 799.458 45.7664 799.458 Q37.491 799.458 32.4939 795.447 Q27.4968 791.437 27.4968 784.88 Q27.4968 780.934 29.0564 778.101 Q30.616 775.268 33.7671 773.454 L28.3562 773.454 L28.3562 767.598 L59.58 767.598 Z" fill="#000000" fill-rule="nonzero" fill-opacity="1" /><path clip-path="url(#clip030)" d="M14.5426 741.466 Q21.8632 745.731 29.0246 747.8 Q36.186 749.869 43.5384 749.869 Q50.8908 749.869 58.1159 747.8 Q65.3091 745.699 72.5979 741.466 L72.5979 746.559 Q65.1182 751.333 57.8931 753.72 Q50.668 756.076 43.5384 756.076 Q36.4406 756.076 29.2474 753.72 Q22.0542 751.365 14.5426 746.559 L14.5426 741.466 Z" fill="#000000" fill-rule="nonzero" fill-opacity="1" /><path clip-path="url(#clip030)" d="M21.7677 723.419 L58.7206 723.419 L58.7206 715.653 Q58.7206 705.818 54.2646 701.267 Q49.8086 696.684 40.1964 696.684 Q30.6479 696.684 26.2237 701.267 Q21.7677 705.818 21.7677 715.653 L21.7677 723.419 M16.4842 729.849 L16.4842 716.64 Q16.4842 702.826 22.2451 696.365 Q27.9743 689.904 40.1964 689.904 Q52.4822 689.904 58.2432 696.397 Q64.0042 702.89 64.0042 716.64 L64.0042 729.849 L16.4842 729.849 Z" fill="#000000" fill-rule="nonzero" fill-opacity="1" /><path clip-path="url(#clip030)" d="M36.2815 682.17 L36.2815 678.478 L64.0042 678.478 L64.0042 682.17 L36.2815 682.17 Z" fill="#000000" fill-rule="nonzero" fill-opacity="1" /><path clip-path="url(#clip030)" d="M14.5426 670.011 L14.5426 664.919 Q22.0542 660.144 29.2474 657.789 Q36.4406 655.402 43.5384 655.402 Q50.668 655.402 57.8931 657.789 Q65.1182 660.144 72.5979 664.919 L72.5979 670.011 Q65.3091 665.778 58.1159 663.709 Q50.8908 661.608 43.5384 661.608 Q36.186 661.608 29.0246 663.709 Q21.8632 665.778 14.5426 670.011 Z" fill="#000000" fill-rule="nonzero" fill-opacity="1" /><polyline clip-path="url(#clip031)" style="stroke:#009af9; stroke-linecap:round; stroke-linejoin:round; stroke-width:4; stroke-opacity:1; fill:none" points="345.82,185.544 362.194,163.67 378.568,144.696 394.942,128.352 411.316,114.379 427.689,103.01 444.063,94.4159 460.437,88.7844 476.811,86.1857 493.184,86.6161 509.558,90.1027 525.932,96.5616 542.306,105.828 558.68,117.435 575.053,130.301 591.427,142.284 607.801,150.332 624.175,152.201 640.549,148.606 656.922,142.447 673.296,136.481 689.67,132.297 706.044,130.594 722.418,131.498 738.791,134.825 755.165,140.032 771.539,146.194 787.913,151.895 804.286,155.529 820.66,155.976 837.034,153.35 853.408,148.871 869.782,144.093 886.155,140.258 902.529,138.148 918.903,138.18 935.277,140.529 951.651,145.198 968.024,151.994 984.398,160.473 1000.77,169.78 1017.15,178.555 1033.52,185.088 1049.89,188.067 1066.27,187.456 1082.64,184.533 1099.01,180.977 1115.39,178.152 1131.76,176.887 1148.14,177.582 1164.51,180.322 1180.88,184.949 1197.26,191.057 1213.63,197.865 1230.01,204.292 1246.38,209.135 1262.75,211.43 1279.13,211.097 1295.5,208.919 1311.87,206.086 1328.25,203.691 1344.62,202.541 1361,203.051 1377.37,205.422 1393.74,209.677 1410.12,215.626 1426.49,222.83 1442.86,230.611 1459.24,237.956 1475.61,243.71 1491.99,247.046 1508.36,247.852 1524.73,246.828 1541.11,245.093 1557.48,243.668 1573.85,243.247 1590.23,244.273 1606.6,246.883 1622.98,250.982 1639.35,256.281 1655.72,262.283 1672.1,268.21 1688.47,273.224 1704.84,276.607 1721.22,278.072 1737.59,277.936 1753.97,276.951 1770.34,275.908 1786.71,275.526 1803.09,276.287 1819.46,278.43 1835.84,282.016 1852.21,286.971 1868.58,292.98 1884.96,299.558 1901.33,306.037 1917.7,311.639 1934.08,315.695 1950.45,317.981 1966.83,318.726 1983.2,318.564 1999.57,318.262 2015.95,318.442 2032.32,319.518 2048.69,321.737 2065.07,325.122 2081.44,329.495 2097.82,334.562 2114.19,339.84 2130.56,344.738 2146.94,348.729 2163.31,351.481 2179.68,352.966 2196.06,353.555 2212.43,353.77 2228.81,354.153 2245.18,355.162 2261.55,357.121 2277.93,360.148 2294.3,364.253 "/>
<polyline clip-path="url(#clip031)" style="stroke:#e26f46; stroke-linecap:round; stroke-linejoin:round; stroke-width:4; stroke-opacity:1; fill:none" points="345.82,798.502 362.194,673.794 378.568,608.838 394.942,571.294 411.316,551.491 427.689,546.121 444.063,552.927 460.437,566.607 476.811,562.226 493.184,524.522 509.558,481.717 525.932,446.799 542.306,420.222 558.68,400.718 575.053,387.256 591.427,379.216 607.801,376.274 624.175,378.408 640.549,385.771 656.922,398.579 673.296,416.425 689.67,435.825 706.044,445.632 722.418,435.095 738.791,412.766 755.165,390.856 771.539,373.628 787.913,361.672 804.286,354.73 820.66,352.519 837.034,354.898 853.408,361.841 869.782,373.325 886.155,388.856 902.529,406.163 918.903,418.801 935.277,418.112 951.651,404.648 968.024,387.217 984.398,371.788 1000.77,360.329 1017.15,353.171 1033.52,350.244 1049.89,351.422 1066.27,356.659 1082.64,365.925 1099.01,379.042 1115.39,395.144 1131.76,411.442 1148.14,421.916 1164.51,420.768 1180.88,409.918 1197.26,396.216 1213.63,384.23 1230.01,375.671 1246.38,370.933 1262.75,370.076 1279.13,373.035 1295.5,379.695 1311.87,389.881 1328.25,403.091 1344.62,417.769 1361,430.422 1377.37,436.042 1393.74,432.28 1410.12,422.455 1426.49,411.474 1442.86,402.287 1459.24,396.12 1475.61,393.368 1491.99,394.048 1508.36,398.127 1524.73,405.541 1541.11,416.063 1557.48,429.037 1573.85,442.956 1590.23,454.757 1606.6,460.473 1622.98,458.419 1639.35,451.076 1655.72,442.366 1672.1,435.01 1688.47,430.221 1704.84,428.443 1721.22,429.815 1737.59,434.317 1753.97,441.758 1770.34,451.803 1786.71,463.654 1803.09,475.626 1819.46,485.003 1835.84,489.011 1852.21,486.964 1868.58,481.053 1884.96,474.211 1901.33,468.488 1917.7,464.973 1934.08,464.137 1950.45,466.087 1966.83,470.806 1983.2,478.17 1999.57,487.796 2015.95,498.909 2032.32,510.085 2048.69,519.135 2065.07,523.84 2081.44,523.571 2097.82,519.733 2114.19,514.67 2130.56,510.29 2146.94,507.672 2163.31,507.313 2179.68,509.444 2196.06,514.038 2212.43,520.892 2228.81,529.599 2245.18,539.374 2261.55,548.865 2277.93,556.333 2294.3,560.263 "/>
<polyline clip-path="url(#clip031)" style="stroke:#3da44d; stroke-linecap:round; stroke-linejoin:round; stroke-width:4; stroke-opacity:1; fill:none" points="345.82,528.996 362.194,595.235 378.568,443.47 394.942,387.233 411.316,358.482 427.689,346.028 444.063,348.309 460.437,374.267 476.811,468.721 493.184,346.999 509.558,312.497 525.932,295.518 542.306,288.905 558.68,291.143 575.053,303.47 591.427,332.341 607.801,433.364 624.175,354.795 640.549,320.737 656.922,310.295 673.296,313.143 689.67,329.305 706.044,368.773 722.418,470.567 738.791,368.123 755.165,352.585 771.539,364.974 787.913,452.671 804.286,365.489 820.66,321.291 837.034,300.205 853.408,290.331 869.782,288.761 886.155,295.113 902.529,311.162 918.903,344.032 935.277,461.292 951.651,367.683 968.024,338.455 984.398,332.917 1000.77,343.451 1017.15,379.246 1033.52,449.881 1049.89,356.214 1066.27,328.937 1082.64,317.655 1099.01,315.962 1115.39,322.372 1131.76,337.604 1148.14,365.435 1164.51,422.622 1180.88,465.563 1197.26,416.855 1213.63,426.178 1230.01,647.589 1246.38,405.003 1262.75,365.245 1279.13,345.213 1295.5,335.366 1311.87,332.914 1328.25,337.105 1344.62,348.362 1361,368.627 1377.37,404.534 1393.74,501.967 1410.12,451.444 1426.49,428.237 1442.86,438.812 1459.24,513.755 1475.61,448.754 1491.99,403.23 1508.36,382.197 1524.73,372.225 1541.11,369.841 1557.48,373.775 1573.85,383.934 1590.23,401.085 1606.6,427.096 1622.98,465.955 1639.35,524.34 1655.72,562.472 1672.1,507.47 1688.47,461.376 1704.84,432.298 1721.22,414.181 1737.59,403.877 1753.97,399.727 1770.34,400.968 1786.71,407.513 1803.09,419.688 1819.46,438.482 1835.84,466.138 1852.21,507.439 1868.58,572.088 1884.96,624.149 1901.33,556.512 1917.7,506.486 1934.08,476.558 1950.45,458.31 1966.83,447.877 1983.2,443.553 1999.57,444.449 2015.95,450.138 2032.32,460.54 2048.69,475.77 2065.07,495.527 2081.44,518.09 2097.82,537.033 2114.19,541.124 2130.56,529.297 2146.94,512.564 2163.31,497.95 2179.68,487.66 2196.06,481.962 2212.43,480.624 2228.81,483.486 2245.18,490.59 2261.55,502.031 2277.93,517.98 2294.3,538.518 "/>
<polyline clip-path="url(#clip031)" style="stroke:#c271d2; stroke-linecap:round; stroke-linejoin:round; stroke-width:4; stroke-opacity:1; fill:none" points="345.82,168.538 362.194,243.927 378.568,294.74 394.942,334.341 411.316,367.175 427.689,395.318 444.063,419.939 460.437,441.788 476.811,461.396 493.184,479.163 509.558,495.405 525.932,510.377 542.306,524.284 558.68,537.294 575.053,549.54 591.427,561.13 607.801,572.15 624.175,582.667 640.549,592.734 656.922,602.391 673.296,611.671 689.67,620.6 706.044,629.199 722.418,637.485 738.791,645.474 755.165,653.18 771.539,660.618 787.913,667.802 804.286,674.745 820.66,681.463 837.034,687.969 853.408,694.278 869.782,700.404 886.155,706.359 902.529,712.156 918.903,717.807 935.277,723.321 951.651,728.708 968.024,733.974 984.398,739.128 1000.77,744.175 1017.15,749.118 1033.52,753.963 1049.89,758.713 1066.27,763.37 1082.64,767.936 1099.01,772.414 1115.39,776.807 1131.76,781.115 1148.14,785.342 1164.51,789.489 1180.88,793.559 1197.26,797.555 1213.63,801.478 1230.01,805.332 1246.38,809.12 1262.75,812.844 1279.13,816.507 1295.5,820.111 1311.87,823.659 1328.25,827.154 1344.62,830.598 1361,833.991 1377.37,837.338 1393.74,840.638 1410.12,843.893 1426.49,847.104 1442.86,850.273 1459.24,853.401 1475.61,856.487 1491.99,859.534 1508.36,862.541 1524.73,865.51 1541.11,868.441 1557.48,871.335 1573.85,874.192 1590.23,877.014 1606.6,879.801 1622.98,882.554 1639.35,885.274 1655.72,887.962 1672.1,890.618 1688.47,893.244 1704.84,895.84 1721.22,898.407 1737.59,900.947 1753.97,903.458 1770.34,905.944 1786.71,908.403 1803.09,910.837 1819.46,913.246 1835.84,915.632 1852.21,917.993 1868.58,920.331 1884.96,922.646 1901.33,924.939 1917.7,927.209 1934.08,929.458 1950.45,931.685 1966.83,933.891 1983.2,936.077 1999.57,938.242 2015.95,940.387 2032.32,942.512 2048.69,944.619 2065.07,946.706 2081.44,948.774 2097.82,950.824 2114.19,952.857 2130.56,954.871 2146.94,956.869 2163.31,958.85 2179.68,960.814 2196.06,962.762 2212.43,964.694 2228.81,966.611 2245.18,968.512 2261.55,970.398 2277.93,972.269 2294.3,974.126 "/>
<polyline clip-path="url(#clip031)" style="stroke:#ac8d18; stroke-linecap:round; stroke-linejoin:round; stroke-width:4; stroke-opacity:1; fill:none" points="345.82,290.235 362.194,356.377 378.568,397.939 394.942,428.579 411.316,453.041 427.689,473.715 444.063,491.643 460.437,507.921 476.811,523.568 493.184,538.817 509.558,554.523 525.932,570.384 542.306,587.345 558.68,605.551 575.053,624.886 591.427,645.239 607.801,666.581 624.175,690.497 640.549,718.179 656.922,751.759 673.296,789.88 689.67,832.014 706.044,838.631 722.418,823.867 738.791,803.525 755.165,784.934 771.539,770.627 787.913,758.082 804.286,749.688 820.66,744.165 837.034,740.819 853.408,739.089 869.782,739.887 886.155,741.953 902.529,745.862 918.903,750.481 935.277,756.381 951.651,763.947 968.024,773.325 984.398,784.746 1000.77,798.136 1017.15,813.675 1033.52,831.527 1049.89,853.68 1066.27,880.886 1082.64,922.793 1099.01,996.779 1115.39,1027.93 1131.76,983.648 1148.14,1167.67 1164.51,997.725 1180.88,954.573 1197.26,920.711 1213.63,896.372 1230.01,883.07 1246.38,875.058 1262.75,868.815 1279.13,862.165 1295.5,858.876 1311.87,859.601 1328.25,861.327 1344.62,863.279 1361,866.252 1377.37,872.087 1393.74,879.479 1410.12,886.772 1426.49,895.384 1442.86,907.788 1459.24,922.773 1475.61,935.86 1491.99,949.242 1508.36,968.602 1524.73,994.328 1541.11,1008.54 1557.48,1008.01 1573.85,1011.6 1590.23,1011.42 1606.6,998.547 1622.98,981.869 1639.35,972.481 1655.72,967.115 1672.1,959.493 1688.47,951.596 1704.84,947.518 1721.22,946.742 1737.59,945.999 1753.97,944.578 1770.34,945.228 1786.71,948.903 1803.09,953.13 1819.46,956.345 1835.84,961.189 1852.21,968.835 1868.58,977.309 1884.96,984.179 1901.33,992.216 1917.7,1002.66 1934.08,1012.77 1950.45,1020.57 1966.83,1026.25 1983.2,1033.34 1999.57,1037.93 2015.95,1035.98 2032.32,1031.95 2048.69,1030.68 2065.07,1028.54 2081.44,1022.44 2097.82,1017.46 2114.19,1015.68 2130.56,1014.98 2146.94,1012.25 2163.31,1009.45 2179.68,1009.72 2196.06,1012.17 2212.43,1013.58 2228.81,1014.13 2245.18,1016.76 2261.55,1022.02 2277.93,1026.96 2294.3,1030.47 "/>
<polyline clip-path="url(#clip031)" style="stroke:#00a9ad; stroke-linecap:round; stroke-linejoin:round; stroke-width:4; stroke-opacity:1; fill:none" points="345.82,730.813 362.194,735.262 378.568,735.052 394.942,732.54 411.316,744.425 427.689,764.197 444.063,783.812 460.437,819.312 476.811,962.185 493.184,836.477 509.558,802.751 525.932,787.347 542.306,779.877 558.68,776.784 575.053,777.126 591.427,779.169 607.801,783.136 624.175,789.405 640.549,798.297 656.922,810.331 673.296,826.816 689.67,849.572 706.044,886.706 722.418,1010.44 738.791,908.944 755.165,874.148 771.539,858.205 787.913,850.182 804.286,846.941 820.66,847.423 837.034,851.136 853.408,857.963 869.782,868.714 886.155,883.804 902.529,905.117 918.903,940.525 935.277,1047.01 951.651,965.011 968.024,928.853 984.398,911.951 1000.77,903.336 1017.15,899.77 1033.52,900.008 1049.89,902.743 1066.27,907.97 1082.64,916.154 1099.01,927.487 1115.39,943.797 1131.76,969.049 1148.14,1015.83 1164.51,1132.8 1180.88,1010.39 1197.26,978.126 1213.63,962.65 1230.01,956.686 1246.38,954.841 1262.75,954.615 1279.13,957.313 1295.5,964.354 1311.87,975.323 1328.25,988.702 1344.62,1008.15 1361,1044.14 1377.37,1188.76 1393.74,1066.61 1410.12,1034.84 1426.49,1016 1442.86,1004.65 1459.24,1000.41 1475.61,1001.03 1491.99,1003.13 1508.36,1006.44 1524.73,1014.18 1541.11,1026.68 1557.48,1041.94 1573.85,1060.84 1590.23,1096.51 1606.6,1269.64 1622.98,1106.07 1639.35,1080.9 1655.72,1066.38 1672.1,1055.32 1688.47,1050.74 1704.84,1052.12 1721.22,1055.79 1737.59,1060.24 1753.97,1068.36 1770.34,1083.81 1786.71,1106.01 1803.09,1134.46 1819.46,1193 1835.84,1175.75 1852.21,1127.61 1868.58,1111.79 1884.96,1103.67 1901.33,1097.12 1917.7,1094.18 1934.08,1096.73 1950.45,1102.07 1966.83,1108.29 1983.2,1116.11 1999.57,1131.56 2015.95,1155.8 2032.32,1186.58 2048.69,1248.73 2065.07,1223.6 2081.44,1174.16 2097.82,1159.89 2114.19,1155.49 2130.56,1149.98 2146.94,1145.39 2163.31,1147.54 2179.68,1157.51 2196.06,1167.47 2212.43,1175.62 2228.81,1191.41 2245.18,1230.41 2261.55,1384.24 2277.93,1265.17 2294.3,1226.94 "/>
<path clip-path="url(#clip030)" d="M356.212 1377.32 L620.529 1377.32 L620.529 1014.44 L356.212 1014.44  Z" fill="#ffffff" fill-rule="evenodd" fill-opacity="1"/>
<polyline clip-path="url(#clip030)" style="stroke:#000000; stroke-linecap:round; stroke-linejoin:round; stroke-width:4; stroke-opacity:1; fill:none" points="356.212,1377.32 620.529,1377.32 620.529,1014.44 356.212,1014.44 356.212,1377.32 "/>
<polyline clip-path="url(#clip030)" style="stroke:#009af9; stroke-linecap:round; stroke-linejoin:round; stroke-width:4; stroke-opacity:1; fill:none" points="379.161,1066.28 516.854,1066.28 "/>
<path clip-path="url(#clip030)" d="M539.802 1049 L569.038 1049 L569.038 1052.93 L556.77 1052.93 L556.77 1083.56 L552.071 1083.56 L552.071 1052.93 L539.802 1052.93 L539.802 1049 Z" fill="#000000" fill-rule="nonzero" fill-opacity="1" /><path clip-path="url(#clip030)" d="M567.927 1049 L597.163 1049 L597.163 1052.93 L584.895 1052.93 L584.895 1083.56 L580.196 1083.56 L580.196 1052.93 L567.927 1052.93 L567.927 1049 Z" fill="#000000" fill-rule="nonzero" fill-opacity="1" /><polyline clip-path="url(#clip030)" style="stroke:#e26f46; stroke-linecap:round; stroke-linejoin:round; stroke-width:4; stroke-opacity:1; fill:none" points="379.161,1118.12 516.854,1118.12 "/>
<path clip-path="url(#clip030)" d="M539.802 1100.84 L561.654 1100.84 L561.654 1104.77 L544.478 1104.77 L544.478 1115 L560.937 1115 L560.937 1118.94 L544.478 1118.94 L544.478 1131.46 L562.071 1131.46 L562.071 1135.4 L539.802 1135.4 L539.802 1100.84 Z" fill="#000000" fill-rule="nonzero" fill-opacity="1" /><path clip-path="url(#clip030)" d="M569.756 1100.84 L591.608 1100.84 L591.608 1104.77 L574.432 1104.77 L574.432 1115 L590.89 1115 L590.89 1118.94 L574.432 1118.94 L574.432 1131.46 L592.024 1131.46 L592.024 1135.4 L569.756 1135.4 L569.756 1100.84 Z" fill="#000000" fill-rule="nonzero" fill-opacity="1" /><polyline clip-path="url(#clip030)" style="stroke:#3da44d; stroke-linecap:round; stroke-linejoin:round; stroke-width:4; stroke-opacity:1; fill:none" points="379.161,1169.96 516.854,1169.96 "/>
<path clip-path="url(#clip030)" d="M539.802 1152.68 L569.038 1152.68 L569.038 1156.61 L556.77 1156.61 L556.77 1187.24 L552.071 1187.24 L552.071 1156.61 L539.802 1156.61 L539.802 1152.68 Z" fill="#000000" fill-rule="nonzero" fill-opacity="1" /><path clip-path="url(#clip030)" d="M573.552 1152.68 L595.404 1152.68 L595.404 1156.61 L578.228 1156.61 L578.228 1166.84 L594.686 1166.84 L594.686 1170.78 L578.228 1170.78 L578.228 1183.3 L595.821 1183.3 L595.821 1187.24 L573.552 1187.24 L573.552 1152.68 Z" fill="#000000" fill-rule="nonzero" fill-opacity="1" /><polyline clip-path="url(#clip030)" style="stroke:#c271d2; stroke-linecap:round; stroke-linejoin:round; stroke-width:4; stroke-opacity:1; fill:none" points="379.161,1221.8 516.854,1221.8 "/>
<path clip-path="url(#clip030)" d="M550.659 1239.65 Q545.312 1238.8 542.835 1236.55 Q539.802 1233.8 539.802 1228.17 L539.802 1213.15 L544.108 1213.15 L544.108 1228.01 Q544.108 1232.25 546.076 1234.01 Q547.789 1235.53 550.659 1235.86 L550.659 1213.15 L554.895 1213.15 L554.895 1235.83 Q557.927 1235.51 559.478 1233.98 Q561.446 1232.04 561.446 1227.99 L561.446 1213.15 L565.751 1213.15 L565.751 1228.15 Q565.751 1233.98 562.719 1236.53 Q559.988 1238.82 554.895 1239.63 L554.895 1248.94 L550.659 1248.94 L550.659 1239.65 Z" fill="#000000" fill-rule="nonzero" fill-opacity="1" /><path clip-path="url(#clip030)" d="M581.932 1239.65 Q576.585 1238.8 574.108 1236.55 Q571.075 1233.8 571.075 1228.17 L571.075 1213.15 L575.381 1213.15 L575.381 1228.01 Q575.381 1232.25 577.349 1234.01 Q579.062 1235.53 581.932 1235.86 L581.932 1213.15 L586.168 1213.15 L586.168 1235.83 Q589.2 1235.51 590.751 1233.98 Q592.719 1232.04 592.719 1227.99 L592.719 1213.15 L597.024 1213.15 L597.024 1228.15 Q597.024 1233.98 593.992 1236.53 Q591.261 1238.82 586.168 1239.63 L586.168 1248.94 L581.932 1248.94 L581.932 1239.65 Z" fill="#000000" fill-rule="nonzero" fill-opacity="1" /><polyline clip-path="url(#clip030)" style="stroke:#ac8d18; stroke-linecap:round; stroke-linejoin:round; stroke-width:4; stroke-opacity:1; fill:none" points="379.161,1273.64 516.854,1273.64 "/>
<path clip-path="url(#clip030)" d="M550.659 1291.49 Q545.312 1290.64 542.835 1288.39 Q539.802 1285.64 539.802 1280.01 L539.802 1264.99 L544.108 1264.99 L544.108 1279.85 Q544.108 1284.09 546.076 1285.85 Q547.789 1287.37 550.659 1287.7 L550.659 1264.99 L554.895 1264.99 L554.895 1287.67 Q557.927 1287.35 559.478 1285.82 Q561.446 1283.88 561.446 1279.83 L561.446 1264.99 L565.751 1264.99 L565.751 1279.99 Q565.751 1285.82 562.719 1288.37 Q559.988 1290.66 554.895 1291.47 L554.895 1300.78 L550.659 1300.78 L550.659 1291.49 Z" fill="#000000" fill-rule="nonzero" fill-opacity="1" /><path clip-path="url(#clip030)" d="M568.344 1256.36 L597.58 1256.36 L597.58 1260.29 L585.311 1260.29 L585.311 1290.92 L580.612 1290.92 L580.612 1260.29 L568.344 1260.29 L568.344 1256.36 Z" fill="#000000" fill-rule="nonzero" fill-opacity="1" /><polyline clip-path="url(#clip030)" style="stroke:#00a9ad; stroke-linecap:round; stroke-linejoin:round; stroke-width:4; stroke-opacity:1; fill:none" points="379.161,1325.48 516.854,1325.48 "/>
<path clip-path="url(#clip030)" d="M550.659 1343.33 Q545.312 1342.48 542.835 1340.23 Q539.802 1337.48 539.802 1331.85 L539.802 1316.83 L544.108 1316.83 L544.108 1331.69 Q544.108 1335.93 546.076 1337.69 Q547.789 1339.21 550.659 1339.54 L550.659 1316.83 L554.895 1316.83 L554.895 1339.51 Q557.927 1339.19 559.478 1337.66 Q561.446 1335.72 561.446 1331.67 L561.446 1316.83 L565.751 1316.83 L565.751 1331.83 Q565.751 1337.66 562.719 1340.21 Q559.988 1342.5 554.895 1343.31 L554.895 1352.62 L550.659 1352.62 L550.659 1343.33 Z" fill="#000000" fill-rule="nonzero" fill-opacity="1" /><path clip-path="url(#clip030)" d="M573.136 1308.2 L594.987 1308.2 L594.987 1312.13 L577.812 1312.13 L577.812 1322.36 L594.27 1322.36 L594.27 1326.3 L577.812 1326.3 L577.812 1338.82 L595.404 1338.82 L595.404 1342.76 L573.136 1342.76 L573.136 1308.2 Z" fill="#000000" fill-rule="nonzero" fill-opacity="1" /></svg>
