<?xml version="1.0" encoding="utf-8"?>
<svg xmlns="http://www.w3.org/2000/svg" xmlns:xlink="http://www.w3.org/1999/xlink" width="600" height="400" viewBox="0 0 2400 1600">
<defs>
  <clipPath id="clip930">
    <rect x="0" y="0" width="2400" height="1600"/>
  </clipPath>
</defs>
<path clip-path="url(#clip930)" d="M0 1600 L2400 1600 L2400 0 L0 0  Z" fill="#ffffff" fill-rule="evenodd" fill-opacity="1"/>
<defs>
  <clipPath id="clip931">
    <rect x="257" y="47" width="2097" height="1377"/>
  </clipPath>
</defs>
<path clip-path="url(#clip930)" d="M257.204 1423.18 L2352.76 1423.18 L2352.76 47.2441 L257.204 47.2441  Z" fill="#ffffff" fill-rule="evenodd" fill-opacity="1"/>
<polyline clip-path="url(#clip931)" style="stroke:#000000; stroke-linecap:round; stroke-linejoin:round; stroke-width:2; stroke-opacity:0.1; fill:none" points="316.512,1423.18 316.512,47.2441 "/>
<polyline clip-path="url(#clip931)" style="stroke:#000000; stroke-linecap:round; stroke-linejoin:round; stroke-width:2; stroke-opacity:0.1; fill:none" points="975.491,1423.18 975.491,47.2441 "/>
<polyline clip-path="url(#clip931)" style="stroke:#000000; stroke-linecap:round; stroke-linejoin:round; stroke-width:2; stroke-opacity:0.1; fill:none" points="1634.47,1423.18 1634.47,47.2441 "/>
<polyline clip-path="url(#clip931)" style="stroke:#000000; stroke-linecap:round; stroke-linejoin:round; stroke-width:2; stroke-opacity:0.1; fill:none" points="2293.45,1423.18 2293.45,47.2441 "/>
<polyline clip-path="url(#clip931)" style="stroke:#000000; stroke-linecap:round; stroke-linejoin:round; stroke-width:2; stroke-opacity:0.1; fill:none" points="257.204,1423.18 2352.76,1423.18 "/>
<polyline clip-path="url(#clip931)" style="stroke:#000000; stroke-linecap:round; stroke-linejoin:round; stroke-width:2; stroke-opacity:0.1; fill:none" points="257.204,1079.2 2352.76,1079.2 "/>
<polyline clip-path="url(#clip931)" style="stroke:#000000; stroke-linecap:round; stroke-linejoin:round; stroke-width:2; stroke-opacity:0.1; fill:none" points="257.204,735.212 2352.76,735.212 "/>
<polyline clip-path="url(#clip931)" style="stroke:#000000; stroke-linecap:round; stroke-linejoin:round; stroke-width:2; stroke-opacity:0.1; fill:none" points="257.204,391.228 2352.76,391.228 "/>
<polyline clip-path="url(#clip931)" style="stroke:#000000; stroke-linecap:round; stroke-linejoin:round; stroke-width:2; stroke-opacity:0.1; fill:none" points="257.204,47.2441 2352.76,47.2441 "/>
<polyline clip-path="url(#clip930)" style="stroke:#000000; stroke-linecap:round; stroke-linejoin:round; stroke-width:4; stroke-opacity:1; fill:none" points="257.204,1423.18 2352.76,1423.18 "/>
<polyline clip-path="url(#clip930)" style="stroke:#000000; stroke-linecap:round; stroke-linejoin:round; stroke-width:4; stroke-opacity:1; fill:none" points="316.512,1423.18 316.512,1404.28 "/>
<polyline clip-path="url(#clip930)" style="stroke:#000000; stroke-linecap:round; stroke-linejoin:round; stroke-width:4; stroke-opacity:1; fill:none" points="975.491,1423.18 975.491,1404.28 "/>
<polyline clip-path="url(#clip930)" style="stroke:#000000; stroke-linecap:round; stroke-linejoin:round; stroke-width:4; stroke-opacity:1; fill:none" points="1634.47,1423.18 1634.47,1404.28 "/>
<polyline clip-path="url(#clip930)" style="stroke:#000000; stroke-linecap:round; stroke-linejoin:round; stroke-width:4; stroke-opacity:1; fill:none" points="2293.45,1423.18 2293.45,1404.28 "/>
<path clip-path="url(#clip930)" d="M316.512 1454.1 Q312.901 1454.1 311.072 1457.66 Q309.267 1461.2 309.267 1468.33 Q309.267 1475.44 311.072 1479.01 Q312.901 1482.55 316.512 1482.55 Q320.146 1482.55 321.952 1479.01 Q323.781 1475.44 323.781 1468.33 Q323.781 1461.2 321.952 1457.66 Q320.146 1454.1 316.512 1454.1 M316.512 1450.39 Q322.322 1450.39 325.378 1455 Q328.456 1459.58 328.456 1468.33 Q328.456 1477.06 325.378 1481.67 Q322.322 1486.25 316.512 1486.25 Q310.702 1486.25 307.623 1481.67 Q304.568 1477.06 304.568 1468.33 Q304.568 1459.58 307.623 1455 Q310.702 1450.39 316.512 1450.39 Z" fill="#000000" fill-rule="nonzero" fill-opacity="1" /><path clip-path="url(#clip930)" d="M965.873 1481.64 L973.512 1481.64 L973.512 1455.28 L965.201 1456.95 L965.201 1452.69 L973.465 1451.02 L978.141 1451.02 L978.141 1481.64 L985.78 1481.64 L985.78 1485.58 L965.873 1485.58 L965.873 1481.64 Z" fill="#000000" fill-rule="nonzero" fill-opacity="1" /><path clip-path="url(#clip930)" d="M1629.12 1481.64 L1645.44 1481.64 L1645.44 1485.58 L1623.5 1485.58 L1623.5 1481.64 Q1626.16 1478.89 1630.74 1474.26 Q1635.35 1469.61 1636.53 1468.27 Q1638.77 1465.74 1639.65 1464.01 Q1640.56 1462.25 1640.56 1460.56 Q1640.56 1457.8 1638.61 1456.07 Q1636.69 1454.33 1633.59 1454.33 Q1631.39 1454.33 1628.94 1455.09 Q1626.51 1455.86 1623.73 1457.41 L1623.73 1452.69 Q1626.55 1451.55 1629.01 1450.97 Q1631.46 1450.39 1633.5 1450.39 Q1638.87 1450.39 1642.06 1453.08 Q1645.26 1455.77 1645.26 1460.26 Q1645.26 1462.39 1644.45 1464.31 Q1643.66 1466.2 1641.55 1468.8 Q1640.97 1469.47 1637.87 1472.69 Q1634.77 1475.88 1629.12 1481.64 Z" fill="#000000" fill-rule="nonzero" fill-opacity="1" /><path clip-path="url(#clip930)" d="M2297.7 1466.95 Q2301.05 1467.66 2302.93 1469.93 Q2304.83 1472.2 2304.83 1475.53 Q2304.83 1480.65 2301.31 1483.45 Q2297.79 1486.25 2291.31 1486.25 Q2289.13 1486.25 2286.82 1485.81 Q2284.52 1485.39 2282.07 1484.54 L2282.07 1480.02 Q2284.02 1481.16 2286.33 1481.74 Q2288.64 1482.32 2291.17 1482.32 Q2295.57 1482.32 2297.86 1480.58 Q2300.17 1478.84 2300.17 1475.53 Q2300.17 1472.48 2298.02 1470.77 Q2295.89 1469.03 2292.07 1469.03 L2288.04 1469.03 L2288.04 1465.19 L2292.26 1465.19 Q2295.7 1465.19 2297.53 1463.82 Q2299.36 1462.43 2299.36 1459.84 Q2299.36 1457.18 2297.46 1455.77 Q2295.59 1454.33 2292.07 1454.33 Q2290.15 1454.33 2287.95 1454.75 Q2285.75 1455.16 2283.11 1456.04 L2283.11 1451.88 Q2285.77 1451.14 2288.09 1450.77 Q2290.43 1450.39 2292.49 1450.39 Q2297.81 1450.39 2300.91 1452.83 Q2304.01 1455.23 2304.01 1459.35 Q2304.01 1462.22 2302.37 1464.21 Q2300.73 1466.18 2297.7 1466.95 Z" fill="#000000" fill-rule="nonzero" fill-opacity="1" /><path clip-path="url(#clip930)" d="M1168.26 1518.52 L1174.15 1518.52 L1174.15 1547.77 L1191.62 1532.4 L1199.1 1532.4 L1180.2 1549.07 L1199.9 1568.04 L1192.26 1568.04 L1174.15 1550.63 L1174.15 1568.04 L1168.26 1568.04 L1168.26 1518.52 Z" fill="#000000" fill-rule="nonzero" fill-opacity="1" /><path clip-path="url(#clip930)" d="M1237.36 1520.52 L1242.77 1520.52 L1226.22 1574.09 L1220.81 1574.09 L1237.36 1520.52 Z" fill="#000000" fill-rule="nonzero" fill-opacity="1" /><path clip-path="url(#clip930)" d="M1283.7 1518.58 Q1279.44 1525.9 1277.37 1533.06 Q1275.3 1540.23 1275.3 1547.58 Q1275.3 1554.93 1277.37 1562.16 Q1279.47 1569.35 1283.7 1576.64 L1278.61 1576.64 Q1273.84 1569.16 1271.45 1561.93 Q1269.09 1554.71 1269.09 1547.58 Q1269.09 1540.48 1271.45 1533.29 Q1273.8 1526.09 1278.61 1518.58 L1283.7 1518.58 Z" fill="#000000" fill-rule="nonzero" fill-opacity="1" /><path clip-path="url(#clip930)" d="M1295.32 1520.52 L1301.75 1520.52 L1301.75 1540 L1325.11 1540 L1325.11 1520.52 L1331.54 1520.52 L1331.54 1568.04 L1325.11 1568.04 L1325.11 1545.41 L1301.75 1545.41 L1301.75 1568.04 L1295.32 1568.04 L1295.32 1520.52 Z" fill="#000000" fill-rule="nonzero" fill-opacity="1" /><path clip-path="url(#clip930)" d="M1356.08 1546.5 Q1354.49 1543.76 1351.27 1543.76 Q1348.06 1543.76 1346.47 1546.5 Q1344.85 1549.23 1344.85 1554.71 Q1344.85 1560.21 1346.47 1562.95 Q1348.06 1565.69 1351.27 1565.69 Q1354.49 1565.69 1356.08 1562.95 Q1357.7 1560.21 1357.7 1554.71 Q1357.7 1549.23 1356.08 1546.5 M1351.27 1540.93 Q1356.4 1540.93 1359.1 1544.46 Q1361.81 1547.99 1361.81 1554.71 Q1361.81 1561.46 1359.1 1564.99 Q1356.4 1568.52 1351.27 1568.52 Q1346.12 1568.52 1343.41 1564.99 Q1340.71 1561.46 1340.71 1554.71 Q1340.71 1547.99 1343.41 1544.46 Q1346.12 1540.93 1351.27 1540.93 Z" fill="#000000" fill-rule="nonzero" fill-opacity="1" /><path clip-path="url(#clip930)" d="M1380.62 1520.52 L1386.03 1520.52 L1369.48 1574.09 L1364.07 1574.09 L1380.62 1520.52 Z" fill="#000000" fill-rule="nonzero" fill-opacity="1" /><path clip-path="url(#clip930)" d="M1417.83 1533.76 L1417.83 1539.24 Q1415.35 1537.87 1412.83 1537.2 Q1410.35 1536.5 1407.8 1536.5 Q1402.1 1536.5 1398.95 1540.13 Q1395.8 1543.73 1395.8 1550.25 Q1395.8 1556.78 1398.95 1560.4 Q1402.1 1564 1407.8 1564 Q1410.35 1564 1412.83 1563.33 Q1415.35 1562.63 1417.83 1561.26 L1417.83 1566.68 Q1415.38 1567.82 1412.74 1568.39 Q1410.13 1568.97 1407.17 1568.97 Q1399.11 1568.97 1394.37 1563.91 Q1389.63 1558.85 1389.63 1550.25 Q1389.63 1541.53 1394.4 1536.53 Q1399.21 1531.54 1407.55 1531.54 Q1410.25 1531.54 1412.83 1532.11 Q1415.41 1532.65 1417.83 1533.76 Z" fill="#000000" fill-rule="nonzero" fill-opacity="1" /><path clip-path="url(#clip930)" d="M1427.09 1518.58 L1432.18 1518.58 Q1436.96 1526.09 1439.31 1533.29 Q1441.7 1540.48 1441.7 1547.58 Q1441.7 1554.71 1439.31 1561.93 Q1436.96 1569.16 1432.18 1576.64 L1427.09 1576.64 Q1431.32 1569.35 1433.39 1562.16 Q1435.49 1554.93 1435.49 1547.58 Q1435.49 1540.23 1433.39 1533.06 Q1431.32 1525.9 1427.09 1518.58 Z" fill="#000000" fill-rule="nonzero" fill-opacity="1" /><polyline clip-path="url(#clip930)" style="stroke:#000000; stroke-linecap:round; stroke-linejoin:round; stroke-width:4; stroke-opacity:1; fill:none" points="257.204,1423.18 257.204,47.2441 "/>
<polyline clip-path="url(#clip930)" style="stroke:#000000; stroke-linecap:round; stroke-linejoin:round; stroke-width:4; stroke-opacity:1; fill:none" points="257.204,1423.18 276.102,1423.18 "/>
<polyline clip-path="url(#clip930)" style="stroke:#000000; stroke-linecap:round; stroke-linejoin:round; stroke-width:4; stroke-opacity:1; fill:none" points="257.204,1079.2 276.102,1079.2 "/>
<polyline clip-path="url(#clip930)" style="stroke:#000000; stroke-linecap:round; stroke-linejoin:round; stroke-width:4; stroke-opacity:1; fill:none" points="257.204,735.212 276.102,735.212 "/>
<polyline clip-path="url(#clip930)" style="stroke:#000000; stroke-linecap:round; stroke-linejoin:round; stroke-width:4; stroke-opacity:1; fill:none" points="257.204,391.228 276.102,391.228 "/>
<polyline clip-path="url(#clip930)" style="stroke:#000000; stroke-linecap:round; stroke-linejoin:round; stroke-width:4; stroke-opacity:1; fill:none" points="257.204,47.2441 276.102,47.2441 "/>
<path clip-path="url(#clip930)" d="M114.26 1423.63 L143.936 1423.63 L143.936 1427.57 L114.26 1427.57 L114.26 1423.63 Z" fill="#000000" fill-rule="nonzero" fill-opacity="1" /><path clip-path="url(#clip930)" d="M164.028 1424.05 Q160.695 1424.05 158.774 1425.83 Q156.876 1427.61 156.876 1430.74 Q156.876 1433.86 158.774 1435.65 Q160.695 1437.43 164.028 1437.43 Q167.362 1437.43 169.283 1435.65 Q171.204 1433.84 171.204 1430.74 Q171.204 1427.61 169.283 1425.83 Q167.385 1424.05 164.028 1424.05 M159.353 1422.06 Q156.343 1421.32 154.653 1419.26 Q152.987 1417.2 152.987 1414.23 Q152.987 1410.09 155.927 1407.68 Q158.89 1405.27 164.028 1405.27 Q169.19 1405.27 172.13 1407.68 Q175.07 1410.09 175.07 1414.23 Q175.07 1417.2 173.38 1419.26 Q171.714 1421.32 168.727 1422.06 Q172.107 1422.84 173.982 1425.14 Q175.88 1427.43 175.88 1430.74 Q175.88 1435.76 172.802 1438.45 Q169.746 1441.13 164.028 1441.13 Q158.311 1441.13 155.232 1438.45 Q152.177 1435.76 152.177 1430.74 Q152.177 1427.43 154.075 1425.14 Q155.973 1422.84 159.353 1422.06 M157.64 1414.67 Q157.64 1417.36 159.306 1418.86 Q160.996 1420.37 164.028 1420.37 Q167.038 1420.37 168.727 1418.86 Q170.44 1417.36 170.44 1414.67 Q170.44 1411.99 168.727 1410.48 Q167.038 1408.98 164.028 1408.98 Q160.996 1408.98 159.306 1410.48 Q157.64 1411.99 157.64 1414.67 Z" fill="#000000" fill-rule="nonzero" fill-opacity="1" /><path clip-path="url(#clip930)" d="M184.19 1434.58 L189.075 1434.58 L189.075 1440.46 L184.19 1440.46 L184.19 1434.58 Z" fill="#000000" fill-rule="nonzero" fill-opacity="1" /><path clip-path="url(#clip930)" d="M209.26 1408.98 Q205.649 1408.98 203.82 1412.54 Q202.014 1416.08 202.014 1423.21 Q202.014 1430.32 203.82 1433.89 Q205.649 1437.43 209.26 1437.43 Q212.894 1437.43 214.699 1433.89 Q216.528 1430.32 216.528 1423.21 Q216.528 1416.08 214.699 1412.54 Q212.894 1408.98 209.26 1408.98 M209.26 1405.27 Q215.07 1405.27 218.125 1409.88 Q221.204 1414.46 221.204 1423.21 Q221.204 1431.94 218.125 1436.55 Q215.07 1441.13 209.26 1441.13 Q203.449 1441.13 200.371 1436.55 Q197.315 1431.94 197.315 1423.21 Q197.315 1414.46 200.371 1409.88 Q203.449 1405.27 209.26 1405.27 Z" fill="#000000" fill-rule="nonzero" fill-opacity="1" /><path clip-path="url(#clip930)" d="M115.256 1079.65 L144.931 1079.65 L144.931 1083.58 L115.256 1083.58 L115.256 1079.65 Z" fill="#000000" fill-rule="nonzero" fill-opacity="1" /><path clip-path="url(#clip930)" d="M153.843 1061.92 L176.065 1061.92 L176.065 1063.91 L163.519 1096.48 L158.635 1096.48 L170.44 1065.85 L153.843 1065.85 L153.843 1061.92 Z" fill="#000000" fill-rule="nonzero" fill-opacity="1" /><path clip-path="url(#clip930)" d="M185.186 1090.6 L190.07 1090.6 L190.07 1096.48 L185.186 1096.48 L185.186 1090.6 Z" fill="#000000" fill-rule="nonzero" fill-opacity="1" /><path clip-path="url(#clip930)" d="M200.301 1061.92 L218.658 1061.92 L218.658 1065.85 L204.584 1065.85 L204.584 1074.32 Q205.602 1073.98 206.621 1073.81 Q207.639 1073.63 208.658 1073.63 Q214.445 1073.63 217.824 1076.8 Q221.204 1079.97 221.204 1085.39 Q221.204 1090.97 217.732 1094.07 Q214.26 1097.15 207.94 1097.15 Q205.764 1097.15 203.496 1096.78 Q201.25 1096.41 198.843 1095.67 L198.843 1090.97 Q200.926 1092.1 203.149 1092.66 Q205.371 1093.21 207.848 1093.21 Q211.852 1093.21 214.19 1091.11 Q216.528 1089 216.528 1085.39 Q216.528 1081.78 214.19 1079.67 Q211.852 1077.56 207.848 1077.56 Q205.973 1077.56 204.098 1077.98 Q202.246 1078.4 200.301 1079.28 L200.301 1061.92 Z" fill="#000000" fill-rule="nonzero" fill-opacity="1" /><path clip-path="url(#clip930)" d="M114.26 735.663 L143.936 735.663 L143.936 739.599 L114.26 739.599 L114.26 735.663 Z" fill="#000000" fill-rule="nonzero" fill-opacity="1" /><path clip-path="url(#clip930)" d="M152.848 717.932 L175.07 717.932 L175.07 719.923 L162.524 752.492 L157.64 752.492 L169.445 721.867 L152.848 721.867 L152.848 717.932 Z" fill="#000000" fill-rule="nonzero" fill-opacity="1" /><path clip-path="url(#clip930)" d="M184.19 746.612 L189.075 746.612 L189.075 752.492 L184.19 752.492 L184.19 746.612 Z" fill="#000000" fill-rule="nonzero" fill-opacity="1" /><path clip-path="url(#clip930)" d="M209.26 721.011 Q205.649 721.011 203.82 724.575 Q202.014 728.117 202.014 735.247 Q202.014 742.353 203.82 745.918 Q205.649 749.46 209.26 749.46 Q212.894 749.46 214.699 745.918 Q216.528 742.353 216.528 735.247 Q216.528 728.117 214.699 724.575 Q212.894 721.011 209.26 721.011 M209.26 717.307 Q215.07 717.307 218.125 721.913 Q221.204 726.497 221.204 735.247 Q221.204 743.973 218.125 748.58 Q215.07 753.163 209.26 753.163 Q203.449 753.163 200.371 748.58 Q197.315 743.973 197.315 735.247 Q197.315 726.497 200.371 721.913 Q203.449 717.307 209.26 717.307 Z" fill="#000000" fill-rule="nonzero" fill-opacity="1" /><path clip-path="url(#clip930)" d="M115.256 391.679 L144.931 391.679 L144.931 395.615 L115.256 395.615 L115.256 391.679 Z" fill="#000000" fill-rule="nonzero" fill-opacity="1" /><path clip-path="url(#clip930)" d="M165.602 389.365 Q162.454 389.365 160.603 391.517 Q158.774 393.67 158.774 397.42 Q158.774 401.147 160.603 403.323 Q162.454 405.476 165.602 405.476 Q168.751 405.476 170.579 403.323 Q172.431 401.147 172.431 397.42 Q172.431 393.67 170.579 391.517 Q168.751 389.365 165.602 389.365 M174.885 374.712 L174.885 378.971 Q173.126 378.138 171.32 377.698 Q169.538 377.258 167.778 377.258 Q163.149 377.258 160.695 380.383 Q158.265 383.508 157.917 389.828 Q159.283 387.814 161.343 386.749 Q163.403 385.661 165.88 385.661 Q171.089 385.661 174.098 388.832 Q177.13 391.98 177.13 397.42 Q177.13 402.744 173.982 405.962 Q170.834 409.179 165.602 409.179 Q159.607 409.179 156.436 404.596 Q153.265 399.99 153.265 391.263 Q153.265 383.068 157.153 378.207 Q161.042 373.323 167.593 373.323 Q169.352 373.323 171.135 373.67 Q172.94 374.017 174.885 374.712 Z" fill="#000000" fill-rule="nonzero" fill-opacity="1" /><path clip-path="url(#clip930)" d="M185.186 402.628 L190.07 402.628 L190.07 408.508 L185.186 408.508 L185.186 402.628 Z" fill="#000000" fill-rule="nonzero" fill-opacity="1" /><path clip-path="url(#clip930)" d="M200.301 373.948 L218.658 373.948 L218.658 377.883 L204.584 377.883 L204.584 386.355 Q205.602 386.008 206.621 385.846 Q207.639 385.661 208.658 385.661 Q214.445 385.661 217.824 388.832 Q221.204 392.003 221.204 397.42 Q221.204 402.999 217.732 406.101 Q214.26 409.179 207.94 409.179 Q205.764 409.179 203.496 408.809 Q201.25 408.439 198.843 407.698 L198.843 402.999 Q200.926 404.133 203.149 404.689 Q205.371 405.244 207.848 405.244 Q211.852 405.244 214.19 403.138 Q216.528 401.031 216.528 397.42 Q216.528 393.809 214.19 391.703 Q211.852 389.596 207.848 389.596 Q205.973 389.596 204.098 390.013 Q202.246 390.429 200.301 391.309 L200.301 373.948 Z" fill="#000000" fill-rule="nonzero" fill-opacity="1" /><path clip-path="url(#clip930)" d="M114.26 47.6955 L143.936 47.6955 L143.936 51.6306 L114.26 51.6306 L114.26 47.6955 Z" fill="#000000" fill-rule="nonzero" fill-opacity="1" /><path clip-path="url(#clip930)" d="M164.607 45.3807 Q161.459 45.3807 159.607 47.5334 Q157.778 49.6862 157.778 53.4362 Q157.778 57.163 159.607 59.3389 Q161.459 61.4917 164.607 61.4917 Q167.755 61.4917 169.584 59.3389 Q171.436 57.163 171.436 53.4362 Q171.436 49.6862 169.584 47.5334 Q167.755 45.3807 164.607 45.3807 M173.889 30.728 L173.889 34.9872 Q172.13 34.1539 170.325 33.7141 Q168.542 33.2743 166.783 33.2743 Q162.153 33.2743 159.7 36.3992 Q157.269 39.5242 156.922 45.8436 Q158.288 43.8298 160.348 42.765 Q162.408 41.677 164.885 41.677 Q170.093 41.677 173.102 44.8483 Q176.135 47.9964 176.135 53.4362 Q176.135 58.7602 172.987 61.9778 Q169.839 65.1954 164.607 65.1954 Q158.612 65.1954 155.44 60.6121 Q152.269 56.0056 152.269 47.2788 Q152.269 39.0844 156.158 34.2233 Q160.047 29.3391 166.598 29.3391 Q168.357 29.3391 170.139 29.6863 Q171.945 30.0335 173.889 30.728 Z" fill="#000000" fill-rule="nonzero" fill-opacity="1" /><path clip-path="url(#clip930)" d="M184.19 58.6445 L189.075 58.6445 L189.075 64.5241 L184.19 64.5241 L184.19 58.6445 Z" fill="#000000" fill-rule="nonzero" fill-opacity="1" /><path clip-path="url(#clip930)" d="M209.26 33.0428 Q205.649 33.0428 203.82 36.6076 Q202.014 40.1492 202.014 47.2788 Q202.014 54.3853 203.82 57.9501 Q205.649 61.4917 209.26 61.4917 Q212.894 61.4917 214.699 57.9501 Q216.528 54.3853 216.528 47.2788 Q216.528 40.1492 214.699 36.6076 Q212.894 33.0428 209.26 33.0428 M209.26 29.3391 Q215.07 29.3391 218.125 33.9456 Q221.204 38.5289 221.204 47.2788 Q221.204 56.0056 218.125 60.6121 Q215.07 65.1954 209.26 65.1954 Q203.449 65.1954 200.371 60.6121 Q197.315 56.0056 197.315 47.2788 Q197.315 38.5289 200.371 33.9456 Q203.449 29.3391 209.26 29.3391 Z" fill="#000000" fill-rule="nonzero" fill-opacity="1" /><path clip-path="url(#clip930)" d="M21.7677 880.255 L39.6235 880.255 L39.6235 872.17 Q39.6235 867.682 37.3 865.232 Q34.9765 862.781 30.6797 862.781 Q26.4147 862.781 24.0912 865.232 Q21.7677 867.682 21.7677 872.17 L21.7677 880.255 M16.4842 886.684 L16.4842 872.17 Q16.4842 864.181 20.1126 860.107 Q23.7092 856.001 30.6797 856.001 Q37.7138 856.001 41.3104 860.107 Q44.907 864.181 44.907 872.17 L44.907 880.255 L64.0042 880.255 L64.0042 886.684 L16.4842 886.684 Z" fill="#000000" fill-rule="nonzero" fill-opacity="1" /><path clip-path="url(#clip930)" d="M16.4842 816.502 L16.4842 811.091 L70.0516 827.642 L70.0516 833.053 L16.4842 816.502 Z" fill="#000000" fill-rule="nonzero" fill-opacity="1" /><path clip-path="url(#clip930)" d="M14.5426 770.16 Q21.8632 774.425 29.0246 776.494 Q36.186 778.562 43.5384 778.562 Q50.8908 778.562 58.1159 776.494 Q65.3091 774.393 72.5979 770.16 L72.5979 775.252 Q65.1182 780.027 57.8931 782.414 Q50.668 784.769 43.5384 784.769 Q36.4406 784.769 29.2474 782.414 Q22.0542 780.058 14.5426 775.252 L14.5426 770.16 Z" fill="#000000" fill-rule="nonzero" fill-opacity="1" /><path clip-path="url(#clip930)" d="M29.7248 733.143 L35.1993 733.143 Q33.8307 735.626 33.1623 738.14 Q32.4621 740.623 32.4621 743.169 Q32.4621 748.866 36.0905 752.017 Q39.6872 755.168 46.212 755.168 Q52.7369 755.168 56.3653 752.017 Q59.9619 748.866 59.9619 743.169 Q59.9619 740.623 59.2935 738.14 Q58.5933 735.626 57.2247 733.143 L62.6355 733.143 Q63.7814 735.594 64.3543 738.236 Q64.9272 740.846 64.9272 743.806 Q64.9272 751.858 59.8664 756.601 Q54.8057 761.343 46.212 761.343 Q37.491 761.343 32.4939 756.569 Q27.4968 751.763 27.4968 743.424 Q27.4968 740.718 28.0697 738.14 Q28.6108 735.562 29.7248 733.143 Z" fill="#000000" fill-rule="nonzero" fill-opacity="1" /><path clip-path="url(#clip930)" d="M16.4842 712.55 L16.4842 707.139 L70.0516 723.69 L70.0516 729.101 L16.4842 712.55 Z" fill="#000000" fill-rule="nonzero" fill-opacity="1" /><path clip-path="url(#clip930)" d="M16.4842 700.742 L16.4842 694.312 L35.9632 694.312 L35.9632 670.95 L16.4842 670.95 L16.4842 664.521 L64.0042 664.521 L64.0042 670.95 L41.3741 670.95 L41.3741 694.312 L64.0042 694.312 L64.0042 700.742 L16.4842 700.742 Z" fill="#000000" fill-rule="nonzero" fill-opacity="1" /><path clip-path="url(#clip930)" d="M42.4562 639.981 Q39.719 641.572 39.719 644.787 Q39.719 648.002 42.4562 649.593 Q45.1935 651.216 50.668 651.216 Q56.1743 651.216 58.9116 649.593 Q61.6488 648.002 61.6488 644.787 Q61.6488 641.572 58.9116 639.981 Q56.1743 638.358 50.668 638.358 Q45.1935 638.358 42.4562 639.981 M36.8862 644.787 Q36.8862 639.663 40.4192 636.957 Q43.9522 634.252 50.668 634.252 Q57.4157 634.252 60.9486 636.957 Q64.4816 639.663 64.4816 644.787 Q64.4816 649.943 60.9486 652.649 Q57.4157 655.354 50.668 655.354 Q43.9522 655.354 40.4192 652.649 Q36.8862 649.943 36.8862 644.787 Z" fill="#000000" fill-rule="nonzero" fill-opacity="1" /><path clip-path="url(#clip930)" d="M14.5426 626.772 L14.5426 621.68 Q22.0542 616.905 29.2474 614.55 Q36.4406 612.163 43.5384 612.163 Q50.668 612.163 57.8931 614.55 Q65.1182 616.905 72.5979 621.68 L72.5979 626.772 Q65.3091 622.539 58.1159 620.47 Q50.8908 618.369 43.5384 618.369 Q36.186 618.369 29.0246 620.47 Q21.8632 622.539 14.5426 626.772 Z" fill="#000000" fill-rule="nonzero" fill-opacity="1" /><path clip-path="url(#clip930)" d="M28.3562 589.883 Q28.9291 586.955 30.6797 585.363 Q32.3984 583.74 35.0084 583.74 Q38.9551 583.74 41.0876 586.764 Q43.2201 589.787 43.2201 595.421 Q43.2201 597.235 42.9018 599.24 Q42.5517 601.214 41.9152 603.442 L38.0639 603.442 Q38.9233 601.787 39.337 599.909 Q39.7508 597.999 39.7508 595.867 Q39.7508 592.397 38.5095 590.488 Q37.2364 588.578 35.0084 588.578 Q32.6531 588.578 31.4436 590.36 Q30.2341 592.111 30.2341 595.548 L30.2341 598.286 L26.7966 598.286 L26.7966 595.294 Q26.7966 592.302 25.8099 590.774 Q24.7914 589.214 22.8817 589.214 Q21.0356 589.214 20.0808 590.806 Q19.0941 592.397 19.0941 595.421 Q19.0941 596.694 19.3806 598.317 Q19.667 599.941 20.3991 602.519 L16.7388 602.519 Q16.1977 600.195 15.9112 598.158 Q15.6248 596.121 15.6248 594.371 Q15.6248 589.787 17.5027 587.114 Q19.3806 584.408 22.5316 584.408 Q24.7277 584.408 26.2555 585.841 Q27.7833 587.273 28.3562 589.883 Z" fill="#000000" fill-rule="nonzero" fill-opacity="1" /><polyline clip-path="url(#clip931)" style="stroke:#009af9; stroke-linecap:round; stroke-linejoin:round; stroke-width:4; stroke-opacity:1; fill:none" points="316.512,943.429 440.071,820.25 563.629,698.57 625.408,638.683 687.188,579.725 748.967,521.987 810.746,465.817 872.525,411.623 934.305,359.882 965.194,335.102 996.084,311.152 1026.97,288.115 1057.86,266.083 1088.75,245.151 1119.64,225.419 1135.09,216.037 1150.53,206.997 1165.98,198.314 1181.42,190.006 1196.87,182.087 1212.31,174.575 1227.76,167.488 1243.2,160.848 1258.65,154.673 1274.09,148.987 1289.54,143.812 1304.98,139.173 1320.42,135.098 1335.87,131.615 1351.31,128.755 1366.76,126.551 1382.2,125.041 1397.65,124.262 1413.09,124.255 1428.54,125.065 1443.98,126.739 1459.43,129.327 1474.87,132.88 1490.32,137.451 1505.76,143.095 1521.21,149.864 1536.65,157.808 1552.1,166.973 1582.99,189.094 1613.88,216.319 1644.77,248.331 1675.66,284.157 1691.1,302.962 1706.55,321.961 1721.99,340.793 1737.43,359.079 1752.88,376.455 1768.32,392.633 1783.77,407.46 1799.21,420.986 1814.66,433.516 1830.1,445.633 1845.55,458.18 1860.99,472.191 1876.44,488.761 1891.88,508.878 1907.33,533.187 1922.77,561.738 1938.22,593.736 1953.66,627.398 1969.11,660.104 1984.55,689.017 1992.27,701.376 2000,712.203 2007.72,721.596 2015.44,729.825 2030.89,744.634 2046.33,761.194 2054.05,771.604 2061.78,784.014 2069.5,798.608 2077.22,815.307 2092.67,853.247 2108.11,891.875 2115.83,909.116 2123.55,924.06 2131.28,936.562 2139,947.024 2154.44,965.714 2169.89,989.251 2177.61,1004.79 2185.33,1022.75 2193.06,1042.24 2200.78,1061.9 2208.5,1080.31 2216.22,1096.49 2223.95,1110.27 2231.67,1122.41 2239.39,1134.3 2247.11,1147.42 2254.84,1162.71 2262.56,1180.19 2270.28,1198.91 2278,1217.42 2285.73,1234.49 2293.45,1249.75 "/>
<polyline clip-path="url(#clip931)" style="stroke:#e26f46; stroke-linecap:round; stroke-linejoin:round; stroke-width:4; stroke-opacity:1; fill:none" points="316.512,943.422 440.071,820.202 563.629,698.439 625.408,638.484 687.188,579.438 748.967,521.593 810.746,465.302 872.525,410.979 934.305,359.098 965.194,334.243 996.084,310.213 1026.97,287.094 1057.86,264.977 1088.75,243.957 1119.64,224.136 1135.09,214.71 1150.53,205.626 1165.98,196.899 1181.42,188.545 1196.87,180.582 1212.31,173.026 1227.76,165.897 1243.2,159.213 1258.65,152.995 1274.09,147.267 1289.54,142.05 1304.98,137.371 1320.42,133.256 1335.87,129.733 1351.31,126.836 1366.76,124.595 1382.2,123.048 1397.65,122.234 1413.09,122.193 1428.54,122.97 1443.98,124.613 1459.43,127.169 1474.87,130.692 1490.32,135.235 1505.76,140.852 1521.21,147.595 1536.65,155.514 1552.1,164.655 1582.99,186.732 1613.88,213.917 1644.77,245.892 1675.66,281.686 1691.1,300.477 1706.55,319.462 1721.99,338.281 1737.43,356.555 1752.88,373.92 1768.32,390.087 1783.77,404.904 1799.21,418.421 1814.66,430.943 1830.1,443.052 1845.55,455.592 1860.99,469.595 1876.44,486.159 1891.88,506.27 1907.33,530.574 1922.77,559.12 1938.22,591.113 1953.66,624.771 1969.11,657.473 1984.55,686.382 1992.27,698.739 2000,709.565 2007.72,718.956 2015.44,727.184 2030.89,741.99 2046.33,758.548 2054.05,768.956 2061.78,781.365 2069.5,795.958 2077.22,812.655 2092.67,850.594 2108.11,889.221 2115.83,906.46 2123.55,921.404 2131.28,933.905 2139,944.366 2154.44,963.055 2169.89,986.59 2177.61,1002.13 2185.33,1020.09 2193.06,1039.58 2200.78,1059.23 2208.5,1077.65 2216.22,1093.83 2223.95,1107.61 2231.67,1119.74 2239.39,1131.63 2247.11,1144.75 2254.84,1160.05 2262.56,1177.52 2270.28,1196.24 2278,1214.75 2285.73,1231.82 2293.45,1247.08 "/>
<polyline clip-path="url(#clip931)" style="stroke:#3da44d; stroke-linecap:round; stroke-linejoin:round; stroke-width:4; stroke-opacity:1; fill:none" points="316.512,945.061 440.071,830.844 563.629,728.641 625.408,684.921 687.188,647.637 748.967,617.251 810.746,593.433 872.525,576.099 934.305,567.089 965.194,566.644 996.084,569.298 1026.97,575.337 1057.86,585.112 1088.75,598.631 1119.64,615.516 1135.09,625.359 1150.53,636.381 1165.98,648.66 1181.42,662.054 1196.87,676.357 1212.31,691.578 1227.76,707.968 1243.2,725.706 1258.65,744.729 1274.09,764.92 1289.54,786.273 1304.98,808.83 1320.42,832.762 1335.87,858.19 1351.31,884.828 1366.76,912.762 1382.2,942.352 1397.65,973.331 1413.09,1005.76 1428.54,1039.83 1443.98,1075.46 1459.43,1112.7 1474.87,1151.75 1490.32,1192.41 1505.76,1234.94 1521.21,1279.28 1536.65,1325.58 1552.1,1373.69 1582.99,1475.95 1613.88,1586.01 1644.77,1703.59 1675.66,1827.62 1691.1,1891.47 1706.55,1956.2 1721.99,2021.36 1737.43,2086.61 1752.88,2151.56 1768.32,2215.93 1783.77,2279.5 1799.21,2342.37 1814.66,2404.84 1830.1,2467.42 1845.55,2531 1860.99,2596.6 1876.44,2665.28 1891.88,2738.01 1907.33,2815.44 1922.77,2897.62 1938.22,2983.73 1953.66,3071.97 1969.11,3159.7 1984.55,3244.09 1992.27,3284.38 2000,3323.2 2007.72,3360.7 2015.44,3397.18 2030.89,3468.72 2046.33,3542.44 2054.05,3581.57 2061.78,3622.79 2069.5,3666.27 2077.22,3711.97 2092.67,3808.18 2108.11,3905.42 2115.83,3952.08 2123.55,3996.54 2131.28,4038.63 2139,4078.76 2154.44,4157 2169.89,4240.39 2177.61,4285.98 2185.33,4334.04 2193.06,4383.67 2200.78,4433.58 2208.5,4482.3 2216.22,4528.82 2223.95,4573.05 2231.67,4615.65 2239.39,4658.11 2247.11,4701.81 2254.84,4747.77 2262.56,4795.94 2270.28,4845.41 2278,4894.77 2285.73,4942.69 2293.45,4988.87 "/>
<path clip-path="url(#clip930)" d="M327.056 1377.32 L1226.47 1377.32 L1226.47 1169.96 L327.056 1169.96  Z" fill="#ffffff" fill-rule="evenodd" fill-opacity="1"/>
<polyline clip-path="url(#clip930)" style="stroke:#000000; stroke-linecap:round; stroke-linejoin:round; stroke-width:4; stroke-opacity:1; fill:none" points="327.056,1377.32 1226.47,1377.32 1226.47,1169.96 327.056,1169.96 327.056,1377.32 "/>
<polyline clip-path="url(#clip930)" style="stroke:#009af9; stroke-linecap:round; stroke-linejoin:round; stroke-width:4; stroke-opacity:1; fill:none" points="350.34,1221.8 490.043,1221.8 "/>
<path clip-path="url(#clip930)" d="M513.998 1235.14 L521.637 1235.14 L521.637 1208.77 L513.327 1210.44 L513.327 1206.18 L521.591 1204.52 L526.267 1204.52 L526.267 1235.14 L533.906 1235.14 L533.906 1239.08 L513.998 1239.08 L513.998 1235.14 Z" fill="#000000" fill-rule="nonzero" fill-opacity="1" /><path clip-path="url(#clip930)" d="M553.35 1207.59 Q549.739 1207.59 547.91 1211.16 Q546.105 1214.7 546.105 1221.83 Q546.105 1228.94 547.91 1232.5 Q549.739 1236.04 553.35 1236.04 Q556.984 1236.04 558.79 1232.5 Q560.618 1228.94 560.618 1221.83 Q560.618 1214.7 558.79 1211.16 Q556.984 1207.59 553.35 1207.59 M553.35 1203.89 Q559.16 1203.89 562.216 1208.5 Q565.294 1213.08 565.294 1221.83 Q565.294 1230.56 562.216 1235.16 Q559.16 1239.75 553.35 1239.75 Q547.54 1239.75 544.461 1235.16 Q541.406 1230.56 541.406 1221.83 Q541.406 1213.08 544.461 1208.5 Q547.54 1203.89 553.35 1203.89 Z" fill="#000000" fill-rule="nonzero" fill-opacity="1" /><path clip-path="url(#clip930)" d="M574.322 1235.14 L581.961 1235.14 L581.961 1208.77 L573.651 1210.44 L573.651 1206.18 L581.915 1204.52 L586.591 1204.52 L586.591 1235.14 L594.229 1235.14 L594.229 1239.08 L574.322 1239.08 L574.322 1235.14 Z" fill="#000000" fill-rule="nonzero" fill-opacity="1" /><path clip-path="url(#clip930)" d="M646.914 1213.61 L636.336 1224.24 L646.914 1234.82 L644.16 1237.62 L633.535 1226.99 L622.91 1237.62 L620.178 1234.82 L630.734 1224.24 L620.178 1213.61 L622.91 1210.81 L633.535 1221.44 L644.16 1210.81 L646.914 1213.61 Z" fill="#000000" fill-rule="nonzero" fill-opacity="1" /><path clip-path="url(#clip930)" d="M672.771 1203.06 L677.053 1203.06 L677.053 1224.33 L689.761 1213.15 L695.201 1213.15 L681.451 1225.28 L695.78 1239.08 L690.224 1239.08 L677.053 1226.41 L677.053 1239.08 L672.771 1239.08 L672.771 1203.06 Z" fill="#000000" fill-rule="nonzero" fill-opacity="1" /><path clip-path="url(#clip930)" d="M725.687 1203.1 Q722.585 1208.43 721.081 1213.64 Q719.576 1218.84 719.576 1224.19 Q719.576 1229.54 721.081 1234.79 Q722.608 1240.02 725.687 1245.33 L721.983 1245.33 Q718.511 1239.89 716.775 1234.63 Q715.062 1229.38 715.062 1224.19 Q715.062 1219.03 716.775 1213.8 Q718.488 1208.57 721.983 1203.1 L725.687 1203.1 Z" fill="#000000" fill-rule="nonzero" fill-opacity="1" /><path clip-path="url(#clip930)" d="M745.733 1226.04 Q740.571 1226.04 738.58 1227.22 Q736.59 1228.4 736.59 1231.25 Q736.59 1233.52 738.071 1234.86 Q739.576 1236.18 742.145 1236.18 Q745.687 1236.18 747.817 1233.68 Q749.969 1231.16 749.969 1226.99 L749.969 1226.04 L745.733 1226.04 M754.229 1224.28 L754.229 1239.08 L749.969 1239.08 L749.969 1235.14 Q748.511 1237.5 746.335 1238.64 Q744.159 1239.75 741.011 1239.75 Q737.03 1239.75 734.668 1237.52 Q732.33 1235.28 732.33 1231.53 Q732.33 1227.15 735.247 1224.93 Q738.187 1222.71 743.997 1222.71 L749.969 1222.71 L749.969 1222.29 Q749.969 1219.35 748.025 1217.76 Q746.104 1216.14 742.608 1216.14 Q740.386 1216.14 738.28 1216.67 Q736.173 1217.2 734.229 1218.27 L734.229 1214.33 Q736.567 1213.43 738.766 1212.99 Q740.965 1212.52 743.048 1212.52 Q748.673 1212.52 751.451 1215.44 Q754.229 1218.36 754.229 1224.28 Z" fill="#000000" fill-rule="nonzero" fill-opacity="1" /><path clip-path="url(#clip930)" d="M780.062 1217.08 L780.062 1203.06 L784.321 1203.06 L784.321 1239.08 L780.062 1239.08 L780.062 1235.19 Q778.719 1237.5 776.659 1238.64 Q774.622 1239.75 771.752 1239.75 Q767.053 1239.75 764.09 1236 Q761.15 1232.25 761.15 1226.14 Q761.15 1220.02 764.09 1216.27 Q767.053 1212.52 771.752 1212.52 Q774.622 1212.52 776.659 1213.66 Q778.719 1214.77 780.062 1217.08 M765.548 1226.14 Q765.548 1230.83 767.469 1233.52 Q769.414 1236.18 772.793 1236.18 Q776.173 1236.18 778.117 1233.52 Q780.062 1230.83 780.062 1226.14 Q780.062 1221.44 778.117 1218.77 Q776.173 1216.09 772.793 1216.09 Q769.414 1216.09 767.469 1218.77 Q765.548 1221.44 765.548 1226.14 Z" fill="#000000" fill-rule="nonzero" fill-opacity="1" /><path clip-path="url(#clip930)" d="M804.876 1226.04 Q799.714 1226.04 797.724 1227.22 Q795.733 1228.4 795.733 1231.25 Q795.733 1233.52 797.214 1234.86 Q798.719 1236.18 801.288 1236.18 Q804.83 1236.18 806.96 1233.68 Q809.112 1231.16 809.112 1226.99 L809.112 1226.04 L804.876 1226.04 M813.372 1224.28 L813.372 1239.08 L809.112 1239.08 L809.112 1235.14 Q807.654 1237.5 805.478 1238.64 Q803.302 1239.75 800.154 1239.75 Q796.173 1239.75 793.812 1237.52 Q791.474 1235.28 791.474 1231.53 Q791.474 1227.15 794.39 1224.93 Q797.33 1222.71 803.14 1222.71 L809.112 1222.71 L809.112 1222.29 Q809.112 1219.35 807.168 1217.76 Q805.247 1216.14 801.751 1216.14 Q799.529 1216.14 797.423 1216.67 Q795.316 1217.2 793.372 1218.27 L793.372 1214.33 Q795.71 1213.43 797.909 1212.99 Q800.108 1212.52 802.191 1212.52 Q807.816 1212.52 810.594 1215.44 Q813.372 1218.36 813.372 1224.28 Z" fill="#000000" fill-rule="nonzero" fill-opacity="1" /><path clip-path="url(#clip930)" d="M826.265 1235.19 L826.265 1248.94 L821.983 1248.94 L821.983 1213.15 L826.265 1213.15 L826.265 1217.08 Q827.608 1214.77 829.645 1213.66 Q831.705 1212.52 834.552 1212.52 Q839.274 1212.52 842.214 1216.27 Q845.177 1220.02 845.177 1226.14 Q845.177 1232.25 842.214 1236 Q839.274 1239.75 834.552 1239.75 Q831.705 1239.75 829.645 1238.64 Q827.608 1237.5 826.265 1235.19 M840.756 1226.14 Q840.756 1221.44 838.811 1218.77 Q836.89 1216.09 833.511 1216.09 Q830.131 1216.09 828.186 1218.77 Q826.265 1221.44 826.265 1226.14 Q826.265 1230.83 828.186 1233.52 Q830.131 1236.18 833.511 1236.18 Q836.89 1236.18 838.811 1233.52 Q840.756 1230.83 840.756 1226.14 Z" fill="#000000" fill-rule="nonzero" fill-opacity="1" /><path clip-path="url(#clip930)" d="M856.45 1205.79 L856.45 1213.15 L865.223 1213.15 L865.223 1216.46 L856.45 1216.46 L856.45 1230.53 Q856.45 1233.7 857.307 1234.61 Q858.186 1235.51 860.848 1235.51 L865.223 1235.51 L865.223 1239.08 L860.848 1239.08 Q855.918 1239.08 854.043 1237.25 Q852.168 1235.39 852.168 1230.53 L852.168 1216.46 L849.043 1216.46 L849.043 1213.15 L852.168 1213.15 L852.168 1205.79 L856.45 1205.79 Z" fill="#000000" fill-rule="nonzero" fill-opacity="1" /><path clip-path="url(#clip930)" d="M870.825 1213.15 L875.084 1213.15 L875.084 1239.08 L870.825 1239.08 L870.825 1213.15 M870.825 1203.06 L875.084 1203.06 L875.084 1208.45 L870.825 1208.45 L870.825 1203.06 Z" fill="#000000" fill-rule="nonzero" fill-opacity="1" /><path clip-path="url(#clip930)" d="M880.941 1213.15 L885.455 1213.15 L893.556 1234.91 L901.658 1213.15 L906.172 1213.15 L896.45 1239.08 L890.663 1239.08 L880.941 1213.15 Z" fill="#000000" fill-rule="nonzero" fill-opacity="1" /><path clip-path="url(#clip930)" d="M934.228 1225.05 L934.228 1227.13 L914.644 1227.13 Q914.922 1231.53 917.283 1233.84 Q919.667 1236.14 923.904 1236.14 Q926.357 1236.14 928.649 1235.53 Q930.964 1234.93 933.232 1233.73 L933.232 1237.76 Q930.941 1238.73 928.533 1239.24 Q926.126 1239.75 923.649 1239.75 Q917.445 1239.75 913.811 1236.14 Q910.2 1232.52 910.2 1226.37 Q910.2 1220 913.626 1216.27 Q917.075 1212.52 922.908 1212.52 Q928.14 1212.52 931.172 1215.9 Q934.228 1219.26 934.228 1225.05 M929.968 1223.8 Q929.922 1220.3 928.001 1218.22 Q926.103 1216.14 922.954 1216.14 Q919.39 1216.14 917.237 1218.15 Q915.107 1220.16 914.783 1223.82 L929.968 1223.8 Z" fill="#000000" fill-rule="nonzero" fill-opacity="1" /><path clip-path="url(#clip930)" d="M940.547 1203.1 L944.251 1203.1 Q947.723 1208.57 949.436 1213.8 Q951.172 1219.03 951.172 1224.19 Q951.172 1229.38 949.436 1234.63 Q947.723 1239.89 944.251 1245.33 L940.547 1245.33 Q943.626 1240.02 945.13 1234.79 Q946.658 1229.54 946.658 1224.19 Q946.658 1218.84 945.13 1213.64 Q943.626 1208.43 940.547 1203.1 Z" fill="#000000" fill-rule="nonzero" fill-opacity="1" /><path clip-path="url(#clip930)" d="M960.801 1233.2 L965.686 1233.2 L965.686 1237.18 L961.889 1244.58 L958.903 1244.58 L960.801 1237.18 L960.801 1233.2 Z" fill="#000000" fill-rule="nonzero" fill-opacity="1" /><path clip-path="url(#clip930)" d="M989.852 1203.06 L994.111 1203.06 L994.111 1239.08 L989.852 1239.08 L989.852 1203.06 Z" fill="#000000" fill-rule="nonzero" fill-opacity="1" /><path clip-path="url(#clip930)" d="M1003.02 1213.15 L1007.28 1213.15 L1007.28 1239.08 L1003.02 1239.08 L1003.02 1213.15 M1003.02 1203.06 L1007.28 1203.06 L1007.28 1208.45 L1003.02 1208.45 L1003.02 1203.06 Z" fill="#000000" fill-rule="nonzero" fill-opacity="1" /><path clip-path="url(#clip930)" d="M1037.75 1223.43 L1037.75 1239.08 L1033.49 1239.08 L1033.49 1223.57 Q1033.49 1219.89 1032.05 1218.06 Q1030.62 1216.23 1027.75 1216.23 Q1024.3 1216.23 1022.31 1218.43 Q1020.32 1220.63 1020.32 1224.42 L1020.32 1239.08 L1016.03 1239.08 L1016.03 1213.15 L1020.32 1213.15 L1020.32 1217.18 Q1021.84 1214.84 1023.9 1213.68 Q1025.99 1212.52 1028.69 1212.52 Q1033.16 1212.52 1035.45 1215.3 Q1037.75 1218.06 1037.75 1223.43 Z" fill="#000000" fill-rule="nonzero" fill-opacity="1" /><path clip-path="url(#clip930)" d="M1068.42 1225.05 L1068.42 1227.13 L1048.83 1227.13 Q1049.11 1231.53 1051.47 1233.84 Q1053.86 1236.14 1058.09 1236.14 Q1060.55 1236.14 1062.84 1235.53 Q1065.15 1234.93 1067.42 1233.73 L1067.42 1237.76 Q1065.13 1238.73 1062.72 1239.24 Q1060.31 1239.75 1057.84 1239.75 Q1051.63 1239.75 1048 1236.14 Q1044.39 1232.52 1044.39 1226.37 Q1044.39 1220 1047.81 1216.27 Q1051.26 1212.52 1057.1 1212.52 Q1062.33 1212.52 1065.36 1215.9 Q1068.42 1219.26 1068.42 1225.05 M1064.16 1223.8 Q1064.11 1220.3 1062.19 1218.22 Q1060.29 1216.14 1057.14 1216.14 Q1053.58 1216.14 1051.43 1218.15 Q1049.3 1220.16 1048.97 1223.82 L1064.16 1223.8 Z" fill="#000000" fill-rule="nonzero" fill-opacity="1" /><path clip-path="url(#clip930)" d="M1087.19 1226.04 Q1082.03 1226.04 1080.04 1227.22 Q1078.05 1228.4 1078.05 1231.25 Q1078.05 1233.52 1079.53 1234.86 Q1081.03 1236.18 1083.6 1236.18 Q1087.14 1236.18 1089.27 1233.68 Q1091.43 1231.16 1091.43 1226.99 L1091.43 1226.04 L1087.19 1226.04 M1095.69 1224.28 L1095.69 1239.08 L1091.43 1239.08 L1091.43 1235.14 Q1089.97 1237.5 1087.79 1238.64 Q1085.62 1239.75 1082.47 1239.75 Q1078.49 1239.75 1076.12 1237.52 Q1073.79 1235.28 1073.79 1231.53 Q1073.79 1227.15 1076.7 1224.93 Q1079.64 1222.71 1085.45 1222.71 L1091.43 1222.71 L1091.43 1222.29 Q1091.43 1219.35 1089.48 1217.76 Q1087.56 1216.14 1084.06 1216.14 Q1081.84 1216.14 1079.74 1216.67 Q1077.63 1217.2 1075.69 1218.27 L1075.69 1214.33 Q1078.02 1213.43 1080.22 1212.99 Q1082.42 1212.52 1084.5 1212.52 Q1090.13 1212.52 1092.91 1215.44 Q1095.69 1218.36 1095.69 1224.28 Z" fill="#000000" fill-rule="nonzero" fill-opacity="1" /><path clip-path="url(#clip930)" d="M1119.48 1217.13 Q1118.76 1216.71 1117.91 1216.53 Q1117.07 1216.32 1116.06 1216.32 Q1112.44 1216.32 1110.5 1218.68 Q1108.58 1221.02 1108.58 1225.42 L1108.58 1239.08 L1104.3 1239.08 L1104.3 1213.15 L1108.58 1213.15 L1108.58 1217.18 Q1109.92 1214.82 1112.07 1213.68 Q1114.23 1212.52 1117.31 1212.52 Q1117.75 1212.52 1118.28 1212.59 Q1118.81 1212.64 1119.46 1212.76 L1119.48 1217.13 Z" fill="#000000" fill-rule="nonzero" fill-opacity="1" /><path clip-path="url(#clip930)" d="M1125.04 1233.2 L1129.92 1233.2 L1129.92 1237.18 L1126.12 1244.58 L1123.14 1244.58 L1125.04 1237.18 L1125.04 1233.2 Z" fill="#000000" fill-rule="nonzero" fill-opacity="1" /><path clip-path="url(#clip930)" d="M1174.27 1218.13 Q1175.87 1215.26 1178.09 1213.89 Q1180.31 1212.52 1183.32 1212.52 Q1187.37 1212.52 1189.57 1215.37 Q1191.77 1218.2 1191.77 1223.43 L1191.77 1239.08 L1187.49 1239.08 L1187.49 1223.57 Q1187.49 1219.84 1186.17 1218.03 Q1184.85 1216.23 1182.14 1216.23 Q1178.83 1216.23 1176.91 1218.43 Q1174.99 1220.63 1174.99 1224.42 L1174.99 1239.08 L1170.71 1239.08 L1170.71 1223.57 Q1170.71 1219.82 1169.39 1218.03 Q1168.07 1216.23 1165.31 1216.23 Q1162.05 1216.23 1160.13 1218.45 Q1158.21 1220.65 1158.21 1224.42 L1158.21 1239.08 L1153.93 1239.08 L1153.93 1213.15 L1158.21 1213.15 L1158.21 1217.18 Q1159.67 1214.79 1161.7 1213.66 Q1163.74 1212.52 1166.54 1212.52 Q1169.37 1212.52 1171.33 1213.96 Q1173.32 1215.39 1174.27 1218.13 Z" fill="#000000" fill-rule="nonzero" fill-opacity="1" /><polyline clip-path="url(#clip930)" style="stroke:#e26f46; stroke-linecap:round; stroke-linejoin:round; stroke-width:4; stroke-opacity:1; fill:none" points="350.34,1273.64 490.043,1273.64 "/>
<path clip-path="url(#clip930)" d="M513.998 1286.98 L521.637 1286.98 L521.637 1260.61 L513.327 1262.28 L513.327 1258.02 L521.591 1256.36 L526.267 1256.36 L526.267 1286.98 L533.906 1286.98 L533.906 1290.92 L513.998 1290.92 L513.998 1286.98 Z" fill="#000000" fill-rule="nonzero" fill-opacity="1" /><path clip-path="url(#clip930)" d="M553.35 1259.43 Q549.739 1259.43 547.91 1263 Q546.105 1266.54 546.105 1273.67 Q546.105 1280.78 547.91 1284.34 Q549.739 1287.88 553.35 1287.88 Q556.984 1287.88 558.79 1284.34 Q560.618 1280.78 560.618 1273.67 Q560.618 1266.54 558.79 1263 Q556.984 1259.43 553.35 1259.43 M553.35 1255.73 Q559.16 1255.73 562.216 1260.34 Q565.294 1264.92 565.294 1273.67 Q565.294 1282.4 562.216 1287 Q559.16 1291.59 553.35 1291.59 Q547.54 1291.59 544.461 1287 Q541.406 1282.4 541.406 1273.67 Q541.406 1264.92 544.461 1260.34 Q547.54 1255.73 553.35 1255.73 Z" fill="#000000" fill-rule="nonzero" fill-opacity="1" /><path clip-path="url(#clip930)" d="M574.322 1286.98 L581.961 1286.98 L581.961 1260.61 L573.651 1262.28 L573.651 1258.02 L581.915 1256.36 L586.591 1256.36 L586.591 1286.98 L594.229 1286.98 L594.229 1290.92 L574.322 1290.92 L574.322 1286.98 Z" fill="#000000" fill-rule="nonzero" fill-opacity="1" /><path clip-path="url(#clip930)" d="M646.914 1265.45 L636.336 1276.08 L646.914 1286.66 L644.16 1289.46 L633.535 1278.83 L622.91 1289.46 L620.178 1286.66 L630.734 1276.08 L620.178 1265.45 L622.91 1262.65 L633.535 1273.28 L644.16 1262.65 L646.914 1265.45 Z" fill="#000000" fill-rule="nonzero" fill-opacity="1" /><path clip-path="url(#clip930)" d="M672.771 1254.9 L677.053 1254.9 L677.053 1276.17 L689.761 1264.99 L695.201 1264.99 L681.451 1277.12 L695.78 1290.92 L690.224 1290.92 L677.053 1278.25 L677.053 1290.92 L672.771 1290.92 L672.771 1254.9 Z" fill="#000000" fill-rule="nonzero" fill-opacity="1" /><path clip-path="url(#clip930)" d="M725.687 1254.94 Q722.585 1260.27 721.081 1265.48 Q719.576 1270.68 719.576 1276.03 Q719.576 1281.38 721.081 1286.63 Q722.608 1291.86 725.687 1297.17 L721.983 1297.17 Q718.511 1291.73 716.775 1286.47 Q715.062 1281.22 715.062 1276.03 Q715.062 1270.87 716.775 1265.64 Q718.488 1260.41 721.983 1254.94 L725.687 1254.94 Z" fill="#000000" fill-rule="nonzero" fill-opacity="1" /><path clip-path="url(#clip930)" d="M745.733 1277.88 Q740.571 1277.88 738.58 1279.06 Q736.59 1280.24 736.59 1283.09 Q736.59 1285.36 738.071 1286.7 Q739.576 1288.02 742.145 1288.02 Q745.687 1288.02 747.817 1285.52 Q749.969 1283 749.969 1278.83 L749.969 1277.88 L745.733 1277.88 M754.229 1276.12 L754.229 1290.92 L749.969 1290.92 L749.969 1286.98 Q748.511 1289.34 746.335 1290.48 Q744.159 1291.59 741.011 1291.59 Q737.03 1291.59 734.668 1289.36 Q732.33 1287.12 732.33 1283.37 Q732.33 1278.99 735.247 1276.77 Q738.187 1274.55 743.997 1274.55 L749.969 1274.55 L749.969 1274.13 Q749.969 1271.19 748.025 1269.6 Q746.104 1267.98 742.608 1267.98 Q740.386 1267.98 738.28 1268.51 Q736.173 1269.04 734.229 1270.11 L734.229 1266.17 Q736.567 1265.27 738.766 1264.83 Q740.965 1264.36 743.048 1264.36 Q748.673 1264.36 751.451 1267.28 Q754.229 1270.2 754.229 1276.12 Z" fill="#000000" fill-rule="nonzero" fill-opacity="1" /><path clip-path="url(#clip930)" d="M780.062 1268.92 L780.062 1254.9 L784.321 1254.9 L784.321 1290.92 L780.062 1290.92 L780.062 1287.03 Q778.719 1289.34 776.659 1290.48 Q774.622 1291.59 771.752 1291.59 Q767.053 1291.59 764.09 1287.84 Q761.15 1284.09 761.15 1277.98 Q761.15 1271.86 764.09 1268.11 Q767.053 1264.36 771.752 1264.36 Q774.622 1264.36 776.659 1265.5 Q778.719 1266.61 780.062 1268.92 M765.548 1277.98 Q765.548 1282.67 767.469 1285.36 Q769.414 1288.02 772.793 1288.02 Q776.173 1288.02 778.117 1285.36 Q780.062 1282.67 780.062 1277.98 Q780.062 1273.28 778.117 1270.61 Q776.173 1267.93 772.793 1267.93 Q769.414 1267.93 767.469 1270.61 Q765.548 1273.28 765.548 1277.98 Z" fill="#000000" fill-rule="nonzero" fill-opacity="1" /><path clip-path="url(#clip930)" d="M804.876 1277.88 Q799.714 1277.88 797.724 1279.06 Q795.733 1280.24 795.733 1283.09 Q795.733 1285.36 797.214 1286.7 Q798.719 1288.02 801.288 1288.02 Q804.83 1288.02 806.96 1285.52 Q809.112 1283 809.112 1278.83 L809.112 1277.88 L804.876 1277.88 M813.372 1276.12 L813.372 1290.92 L809.112 1290.92 L809.112 1286.98 Q807.654 1289.34 805.478 1290.48 Q803.302 1291.59 800.154 1291.59 Q796.173 1291.59 793.812 1289.36 Q791.474 1287.12 791.474 1283.37 Q791.474 1278.99 794.39 1276.77 Q797.33 1274.55 803.14 1274.55 L809.112 1274.55 L809.112 1274.13 Q809.112 1271.19 807.168 1269.6 Q805.247 1267.98 801.751 1267.98 Q799.529 1267.98 797.423 1268.51 Q795.316 1269.04 793.372 1270.11 L793.372 1266.17 Q795.71 1265.27 797.909 1264.83 Q800.108 1264.36 802.191 1264.36 Q807.816 1264.36 810.594 1267.28 Q813.372 1270.2 813.372 1276.12 Z" fill="#000000" fill-rule="nonzero" fill-opacity="1" /><path clip-path="url(#clip930)" d="M826.265 1287.03 L826.265 1300.78 L821.983 1300.78 L821.983 1264.99 L826.265 1264.99 L826.265 1268.92 Q827.608 1266.61 829.645 1265.5 Q831.705 1264.36 834.552 1264.36 Q839.274 1264.36 842.214 1268.11 Q845.177 1271.86 845.177 1277.98 Q845.177 1284.09 842.214 1287.84 Q839.274 1291.59 834.552 1291.59 Q831.705 1291.59 829.645 1290.48 Q827.608 1289.34 826.265 1287.03 M840.756 1277.98 Q840.756 1273.28 838.811 1270.61 Q836.89 1267.93 833.511 1267.93 Q830.131 1267.93 828.186 1270.61 Q826.265 1273.28 826.265 1277.98 Q826.265 1282.67 828.186 1285.36 Q830.131 1288.02 833.511 1288.02 Q836.89 1288.02 838.811 1285.36 Q840.756 1282.67 840.756 1277.98 Z" fill="#000000" fill-rule="nonzero" fill-opacity="1" /><path clip-path="url(#clip930)" d="M856.45 1257.63 L856.45 1264.99 L865.223 1264.99 L865.223 1268.3 L856.45 1268.3 L856.45 1282.37 Q856.45 1285.54 857.307 1286.45 Q858.186 1287.35 860.848 1287.35 L865.223 1287.35 L865.223 1290.92 L860.848 1290.92 Q855.918 1290.92 854.043 1289.09 Q852.168 1287.23 852.168 1282.37 L852.168 1268.3 L849.043 1268.3 L849.043 1264.99 L852.168 1264.99 L852.168 1257.63 L856.45 1257.63 Z" fill="#000000" fill-rule="nonzero" fill-opacity="1" /><path clip-path="url(#clip930)" d="M870.825 1264.99 L875.084 1264.99 L875.084 1290.92 L870.825 1290.92 L870.825 1264.99 M870.825 1254.9 L875.084 1254.9 L875.084 1260.29 L870.825 1260.29 L870.825 1254.9 Z" fill="#000000" fill-rule="nonzero" fill-opacity="1" /><path clip-path="url(#clip930)" d="M880.941 1264.99 L885.455 1264.99 L893.556 1286.75 L901.658 1264.99 L906.172 1264.99 L896.45 1290.92 L890.663 1290.92 L880.941 1264.99 Z" fill="#000000" fill-rule="nonzero" fill-opacity="1" /><path clip-path="url(#clip930)" d="M934.228 1276.89 L934.228 1278.97 L914.644 1278.97 Q914.922 1283.37 917.283 1285.68 Q919.667 1287.98 923.904 1287.98 Q926.357 1287.98 928.649 1287.37 Q930.964 1286.77 933.232 1285.57 L933.232 1289.6 Q930.941 1290.57 928.533 1291.08 Q926.126 1291.59 923.649 1291.59 Q917.445 1291.59 913.811 1287.98 Q910.2 1284.36 910.2 1278.21 Q910.2 1271.84 913.626 1268.11 Q917.075 1264.36 922.908 1264.36 Q928.14 1264.36 931.172 1267.74 Q934.228 1271.1 934.228 1276.89 M929.968 1275.64 Q929.922 1272.14 928.001 1270.06 Q926.103 1267.98 922.954 1267.98 Q919.39 1267.98 917.237 1269.99 Q915.107 1272 914.783 1275.66 L929.968 1275.64 Z" fill="#000000" fill-rule="nonzero" fill-opacity="1" /><path clip-path="url(#clip930)" d="M940.547 1254.94 L944.251 1254.94 Q947.723 1260.41 949.436 1265.64 Q951.172 1270.87 951.172 1276.03 Q951.172 1281.22 949.436 1286.47 Q947.723 1291.73 944.251 1297.17 L940.547 1297.17 Q943.626 1291.86 945.13 1286.63 Q946.658 1281.38 946.658 1276.03 Q946.658 1270.68 945.13 1265.48 Q943.626 1260.27 940.547 1254.94 Z" fill="#000000" fill-rule="nonzero" fill-opacity="1" /><path clip-path="url(#clip930)" d="M960.801 1285.04 L965.686 1285.04 L965.686 1289.02 L961.889 1296.42 L958.903 1296.42 L960.801 1289.02 L960.801 1285.04 Z" fill="#000000" fill-rule="nonzero" fill-opacity="1" /><path clip-path="url(#clip930)" d="M989.852 1254.9 L994.111 1254.9 L994.111 1290.92 L989.852 1290.92 L989.852 1254.9 Z" fill="#000000" fill-rule="nonzero" fill-opacity="1" /><path clip-path="url(#clip930)" d="M1003.02 1264.99 L1007.28 1264.99 L1007.28 1290.92 L1003.02 1290.92 L1003.02 1264.99 M1003.02 1254.9 L1007.28 1254.9 L1007.28 1260.29 L1003.02 1260.29 L1003.02 1254.9 Z" fill="#000000" fill-rule="nonzero" fill-opacity="1" /><path clip-path="url(#clip930)" d="M1037.75 1275.27 L1037.75 1290.92 L1033.49 1290.92 L1033.49 1275.41 Q1033.49 1271.73 1032.05 1269.9 Q1030.62 1268.07 1027.75 1268.07 Q1024.3 1268.07 1022.31 1270.27 Q1020.32 1272.47 1020.32 1276.26 L1020.32 1290.92 L1016.03 1290.92 L1016.03 1264.99 L1020.32 1264.99 L1020.32 1269.02 Q1021.84 1266.68 1023.9 1265.52 Q1025.99 1264.36 1028.69 1264.36 Q1033.16 1264.36 1035.45 1267.14 Q1037.75 1269.9 1037.75 1275.27 Z" fill="#000000" fill-rule="nonzero" fill-opacity="1" /><path clip-path="url(#clip930)" d="M1068.42 1276.89 L1068.42 1278.97 L1048.83 1278.97 Q1049.11 1283.37 1051.47 1285.68 Q1053.86 1287.98 1058.09 1287.98 Q1060.55 1287.98 1062.84 1287.37 Q1065.15 1286.77 1067.42 1285.57 L1067.42 1289.6 Q1065.13 1290.57 1062.72 1291.08 Q1060.31 1291.59 1057.84 1291.59 Q1051.63 1291.59 1048 1287.98 Q1044.39 1284.36 1044.39 1278.21 Q1044.39 1271.84 1047.81 1268.11 Q1051.26 1264.36 1057.1 1264.36 Q1062.33 1264.36 1065.36 1267.74 Q1068.42 1271.1 1068.42 1276.89 M1064.16 1275.64 Q1064.11 1272.14 1062.19 1270.06 Q1060.29 1267.98 1057.14 1267.98 Q1053.58 1267.98 1051.43 1269.99 Q1049.3 1272 1048.97 1275.66 L1064.16 1275.64 Z" fill="#000000" fill-rule="nonzero" fill-opacity="1" /><path clip-path="url(#clip930)" d="M1087.19 1277.88 Q1082.03 1277.88 1080.04 1279.06 Q1078.05 1280.24 1078.05 1283.09 Q1078.05 1285.36 1079.53 1286.7 Q1081.03 1288.02 1083.6 1288.02 Q1087.14 1288.02 1089.27 1285.52 Q1091.43 1283 1091.43 1278.83 L1091.43 1277.88 L1087.19 1277.88 M1095.69 1276.12 L1095.69 1290.92 L1091.43 1290.92 L1091.43 1286.98 Q1089.97 1289.34 1087.79 1290.48 Q1085.62 1291.59 1082.47 1291.59 Q1078.49 1291.59 1076.12 1289.36 Q1073.79 1287.12 1073.79 1283.37 Q1073.79 1278.99 1076.7 1276.77 Q1079.64 1274.55 1085.45 1274.55 L1091.43 1274.55 L1091.43 1274.13 Q1091.43 1271.19 1089.48 1269.6 Q1087.56 1267.98 1084.06 1267.98 Q1081.84 1267.98 1079.74 1268.51 Q1077.63 1269.04 1075.69 1270.11 L1075.69 1266.17 Q1078.02 1265.27 1080.22 1264.83 Q1082.42 1264.36 1084.5 1264.36 Q1090.13 1264.36 1092.91 1267.28 Q1095.69 1270.2 1095.69 1276.12 Z" fill="#000000" fill-rule="nonzero" fill-opacity="1" /><path clip-path="url(#clip930)" d="M1119.48 1268.97 Q1118.76 1268.55 1117.91 1268.37 Q1117.07 1268.16 1116.06 1268.16 Q1112.44 1268.16 1110.5 1270.52 Q1108.58 1272.86 1108.58 1277.26 L1108.58 1290.92 L1104.3 1290.92 L1104.3 1264.99 L1108.58 1264.99 L1108.58 1269.02 Q1109.92 1266.66 1112.07 1265.52 Q1114.23 1264.36 1117.31 1264.36 Q1117.75 1264.36 1118.28 1264.43 Q1118.81 1264.48 1119.46 1264.6 L1119.48 1268.97 Z" fill="#000000" fill-rule="nonzero" fill-opacity="1" /><path clip-path="url(#clip930)" d="M1125.04 1285.04 L1129.92 1285.04 L1129.92 1289.02 L1126.12 1296.42 L1123.14 1296.42 L1125.04 1289.02 L1125.04 1285.04 Z" fill="#000000" fill-rule="nonzero" fill-opacity="1" /><path clip-path="url(#clip930)" d="M1172.74 1265.98 L1172.74 1269.97 Q1170.94 1268.97 1169.11 1268.48 Q1167.31 1267.98 1165.45 1267.98 Q1161.31 1267.98 1159.02 1270.61 Q1156.73 1273.23 1156.73 1277.98 Q1156.73 1282.72 1159.02 1285.36 Q1161.31 1287.98 1165.45 1287.98 Q1167.31 1287.98 1169.11 1287.49 Q1170.94 1286.98 1172.74 1285.98 L1172.74 1289.92 Q1170.96 1290.75 1169.04 1291.17 Q1167.14 1291.59 1164.99 1291.59 Q1159.13 1291.59 1155.68 1287.91 Q1152.24 1284.23 1152.24 1277.98 Q1152.24 1271.63 1155.71 1268 Q1159.2 1264.36 1165.27 1264.36 Q1167.24 1264.36 1169.11 1264.78 Q1170.99 1265.17 1172.74 1265.98 Z" fill="#000000" fill-rule="nonzero" fill-opacity="1" /><path clip-path="url(#clip930)" d="M1198.76 1277.98 Q1198.76 1273.28 1196.82 1270.61 Q1194.9 1267.93 1191.52 1267.93 Q1188.14 1267.93 1186.19 1270.61 Q1184.27 1273.28 1184.27 1277.98 Q1184.27 1282.67 1186.19 1285.36 Q1188.14 1288.02 1191.52 1288.02 Q1194.9 1288.02 1196.82 1285.36 Q1198.76 1282.67 1198.76 1277.98 M1184.27 1268.92 Q1185.62 1266.61 1187.65 1265.5 Q1189.71 1264.36 1192.56 1264.36 Q1197.28 1264.36 1200.22 1268.11 Q1203.18 1271.86 1203.18 1277.98 Q1203.18 1284.09 1200.22 1287.84 Q1197.28 1291.59 1192.56 1291.59 Q1189.71 1291.59 1187.65 1290.48 Q1185.62 1289.34 1184.27 1287.03 L1184.27 1290.92 L1179.99 1290.92 L1179.99 1254.9 L1184.27 1254.9 L1184.27 1268.92 Z" fill="#000000" fill-rule="nonzero" fill-opacity="1" /><polyline clip-path="url(#clip930)" style="stroke:#3da44d; stroke-linecap:round; stroke-linejoin:round; stroke-width:4; stroke-opacity:1; fill:none" points="350.34,1325.48 490.043,1325.48 "/>
<path clip-path="url(#clip930)" d="M513.998 1338.82 L521.637 1338.82 L521.637 1312.45 L513.327 1314.12 L513.327 1309.86 L521.591 1308.2 L526.267 1308.2 L526.267 1338.82 L533.906 1338.82 L533.906 1342.76 L513.998 1342.76 L513.998 1338.82 Z" fill="#000000" fill-rule="nonzero" fill-opacity="1" /><path clip-path="url(#clip930)" d="M553.35 1311.27 Q549.739 1311.27 547.91 1314.84 Q546.105 1318.38 546.105 1325.51 Q546.105 1332.62 547.91 1336.18 Q549.739 1339.72 553.35 1339.72 Q556.984 1339.72 558.79 1336.18 Q560.618 1332.62 560.618 1325.51 Q560.618 1318.38 558.79 1314.84 Q556.984 1311.27 553.35 1311.27 M553.35 1307.57 Q559.16 1307.57 562.216 1312.18 Q565.294 1316.76 565.294 1325.51 Q565.294 1334.24 562.216 1338.84 Q559.16 1343.43 553.35 1343.43 Q547.54 1343.43 544.461 1338.84 Q541.406 1334.24 541.406 1325.51 Q541.406 1316.76 544.461 1312.18 Q547.54 1307.57 553.35 1307.57 Z" fill="#000000" fill-rule="nonzero" fill-opacity="1" /><path clip-path="url(#clip930)" d="M574.322 1338.82 L581.961 1338.82 L581.961 1312.45 L573.651 1314.12 L573.651 1309.86 L581.915 1308.2 L586.591 1308.2 L586.591 1338.82 L594.229 1338.82 L594.229 1342.76 L574.322 1342.76 L574.322 1338.82 Z" fill="#000000" fill-rule="nonzero" fill-opacity="1" /><path clip-path="url(#clip930)" d="M646.914 1317.29 L636.336 1327.92 L646.914 1338.5 L644.16 1341.3 L633.535 1330.67 L622.91 1341.3 L620.178 1338.5 L630.734 1327.92 L620.178 1317.29 L622.91 1314.49 L633.535 1325.12 L644.16 1314.49 L646.914 1317.29 Z" fill="#000000" fill-rule="nonzero" fill-opacity="1" /><path clip-path="url(#clip930)" d="M672.771 1306.74 L677.053 1306.74 L677.053 1328.01 L689.761 1316.83 L695.201 1316.83 L681.451 1328.96 L695.78 1342.76 L690.224 1342.76 L677.053 1330.09 L677.053 1342.76 L672.771 1342.76 L672.771 1306.74 Z" fill="#000000" fill-rule="nonzero" fill-opacity="1" /><path clip-path="url(#clip930)" d="M725.687 1306.78 Q722.585 1312.11 721.081 1317.32 Q719.576 1322.52 719.576 1327.87 Q719.576 1333.22 721.081 1338.47 Q722.608 1343.7 725.687 1349.01 L721.983 1349.01 Q718.511 1343.57 716.775 1338.31 Q715.062 1333.06 715.062 1327.87 Q715.062 1322.71 716.775 1317.48 Q718.488 1312.25 721.983 1306.78 L725.687 1306.78 Z" fill="#000000" fill-rule="nonzero" fill-opacity="1" /><path clip-path="url(#clip930)" d="M745.733 1329.72 Q740.571 1329.72 738.58 1330.9 Q736.59 1332.08 736.59 1334.93 Q736.59 1337.2 738.071 1338.54 Q739.576 1339.86 742.145 1339.86 Q745.687 1339.86 747.817 1337.36 Q749.969 1334.84 749.969 1330.67 L749.969 1329.72 L745.733 1329.72 M754.229 1327.96 L754.229 1342.76 L749.969 1342.76 L749.969 1338.82 Q748.511 1341.18 746.335 1342.32 Q744.159 1343.43 741.011 1343.43 Q737.03 1343.43 734.668 1341.2 Q732.33 1338.96 732.33 1335.21 Q732.33 1330.83 735.247 1328.61 Q738.187 1326.39 743.997 1326.39 L749.969 1326.39 L749.969 1325.97 Q749.969 1323.03 748.025 1321.44 Q746.104 1319.82 742.608 1319.82 Q740.386 1319.82 738.28 1320.35 Q736.173 1320.88 734.229 1321.95 L734.229 1318.01 Q736.567 1317.11 738.766 1316.67 Q740.965 1316.2 743.048 1316.2 Q748.673 1316.2 751.451 1319.12 Q754.229 1322.04 754.229 1327.96 Z" fill="#000000" fill-rule="nonzero" fill-opacity="1" /><path clip-path="url(#clip930)" d="M780.062 1320.76 L780.062 1306.74 L784.321 1306.74 L784.321 1342.76 L780.062 1342.76 L780.062 1338.87 Q778.719 1341.18 776.659 1342.32 Q774.622 1343.43 771.752 1343.43 Q767.053 1343.43 764.09 1339.68 Q761.15 1335.93 761.15 1329.82 Q761.15 1323.7 764.09 1319.95 Q767.053 1316.2 771.752 1316.2 Q774.622 1316.2 776.659 1317.34 Q778.719 1318.45 780.062 1320.76 M765.548 1329.82 Q765.548 1334.51 767.469 1337.2 Q769.414 1339.86 772.793 1339.86 Q776.173 1339.86 778.117 1337.2 Q780.062 1334.51 780.062 1329.82 Q780.062 1325.12 778.117 1322.45 Q776.173 1319.77 772.793 1319.77 Q769.414 1319.77 767.469 1322.45 Q765.548 1325.12 765.548 1329.82 Z" fill="#000000" fill-rule="nonzero" fill-opacity="1" /><path clip-path="url(#clip930)" d="M804.876 1329.72 Q799.714 1329.72 797.724 1330.9 Q795.733 1332.08 795.733 1334.93 Q795.733 1337.2 797.214 1338.54 Q798.719 1339.86 801.288 1339.86 Q804.83 1339.86 806.96 1337.36 Q809.112 1334.84 809.112 1330.67 L809.112 1329.72 L804.876 1329.72 M813.372 1327.96 L813.372 1342.76 L809.112 1342.76 L809.112 1338.82 Q807.654 1341.18 805.478 1342.32 Q803.302 1343.43 800.154 1343.43 Q796.173 1343.43 793.812 1341.2 Q791.474 1338.96 791.474 1335.21 Q791.474 1330.83 794.39 1328.61 Q797.33 1326.39 803.14 1326.39 L809.112 1326.39 L809.112 1325.97 Q809.112 1323.03 807.168 1321.44 Q805.247 1319.82 801.751 1319.82 Q799.529 1319.82 797.423 1320.35 Q795.316 1320.88 793.372 1321.95 L793.372 1318.01 Q795.71 1317.11 797.909 1316.67 Q800.108 1316.2 802.191 1316.2 Q807.816 1316.2 810.594 1319.12 Q813.372 1322.04 813.372 1327.96 Z" fill="#000000" fill-rule="nonzero" fill-opacity="1" /><path clip-path="url(#clip930)" d="M826.265 1338.87 L826.265 1352.62 L821.983 1352.62 L821.983 1316.83 L826.265 1316.83 L826.265 1320.76 Q827.608 1318.45 829.645 1317.34 Q831.705 1316.2 834.552 1316.2 Q839.274 1316.2 842.214 1319.95 Q845.177 1323.7 845.177 1329.82 Q845.177 1335.93 842.214 1339.68 Q839.274 1343.43 834.552 1343.43 Q831.705 1343.43 829.645 1342.32 Q827.608 1341.18 826.265 1338.87 M840.756 1329.82 Q840.756 1325.12 838.811 1322.45 Q836.89 1319.77 833.511 1319.77 Q830.131 1319.77 828.186 1322.45 Q826.265 1325.12 826.265 1329.82 Q826.265 1334.51 828.186 1337.2 Q830.131 1339.86 833.511 1339.86 Q836.89 1339.86 838.811 1337.2 Q840.756 1334.51 840.756 1329.82 Z" fill="#000000" fill-rule="nonzero" fill-opacity="1" /><path clip-path="url(#clip930)" d="M856.45 1309.47 L856.45 1316.83 L865.223 1316.83 L865.223 1320.14 L856.45 1320.14 L856.45 1334.21 Q856.45 1337.38 857.307 1338.29 Q858.186 1339.19 860.848 1339.19 L865.223 1339.19 L865.223 1342.76 L860.848 1342.76 Q855.918 1342.76 854.043 1340.93 Q852.168 1339.07 852.168 1334.21 L852.168 1320.14 L849.043 1320.14 L849.043 1316.83 L852.168 1316.83 L852.168 1309.47 L856.45 1309.47 Z" fill="#000000" fill-rule="nonzero" fill-opacity="1" /><path clip-path="url(#clip930)" d="M870.825 1316.83 L875.084 1316.83 L875.084 1342.76 L870.825 1342.76 L870.825 1316.83 M870.825 1306.74 L875.084 1306.74 L875.084 1312.13 L870.825 1312.13 L870.825 1306.74 Z" fill="#000000" fill-rule="nonzero" fill-opacity="1" /><path clip-path="url(#clip930)" d="M880.941 1316.83 L885.455 1316.83 L893.556 1338.59 L901.658 1316.83 L906.172 1316.83 L896.45 1342.76 L890.663 1342.76 L880.941 1316.83 Z" fill="#000000" fill-rule="nonzero" fill-opacity="1" /><path clip-path="url(#clip930)" d="M934.228 1328.73 L934.228 1330.81 L914.644 1330.81 Q914.922 1335.21 917.283 1337.52 Q919.667 1339.82 923.904 1339.82 Q926.357 1339.82 928.649 1339.21 Q930.964 1338.61 933.232 1337.41 L933.232 1341.44 Q930.941 1342.41 928.533 1342.92 Q926.126 1343.43 923.649 1343.43 Q917.445 1343.43 913.811 1339.82 Q910.2 1336.2 910.2 1330.05 Q910.2 1323.68 913.626 1319.95 Q917.075 1316.2 922.908 1316.2 Q928.14 1316.2 931.172 1319.58 Q934.228 1322.94 934.228 1328.73 M929.968 1327.48 Q929.922 1323.98 928.001 1321.9 Q926.103 1319.82 922.954 1319.82 Q919.39 1319.82 917.237 1321.83 Q915.107 1323.84 914.783 1327.5 L929.968 1327.48 Z" fill="#000000" fill-rule="nonzero" fill-opacity="1" /><path clip-path="url(#clip930)" d="M940.547 1306.78 L944.251 1306.78 Q947.723 1312.25 949.436 1317.48 Q951.172 1322.71 951.172 1327.87 Q951.172 1333.06 949.436 1338.31 Q947.723 1343.57 944.251 1349.01 L940.547 1349.01 Q943.626 1343.7 945.13 1338.47 Q946.658 1333.22 946.658 1327.87 Q946.658 1322.52 945.13 1317.32 Q943.626 1312.11 940.547 1306.78 Z" fill="#000000" fill-rule="nonzero" fill-opacity="1" /><path clip-path="url(#clip930)" d="M960.801 1336.88 L965.686 1336.88 L965.686 1340.86 L961.889 1348.26 L958.903 1348.26 L960.801 1340.86 L960.801 1336.88 Z" fill="#000000" fill-rule="nonzero" fill-opacity="1" /><path clip-path="url(#clip930)" d="M989.852 1306.74 L994.111 1306.74 L994.111 1342.76 L989.852 1342.76 L989.852 1306.74 Z" fill="#000000" fill-rule="nonzero" fill-opacity="1" /><path clip-path="url(#clip930)" d="M1003.02 1316.83 L1007.28 1316.83 L1007.28 1342.76 L1003.02 1342.76 L1003.02 1316.83 M1003.02 1306.74 L1007.28 1306.74 L1007.28 1312.13 L1003.02 1312.13 L1003.02 1306.74 Z" fill="#000000" fill-rule="nonzero" fill-opacity="1" /><path clip-path="url(#clip930)" d="M1037.75 1327.11 L1037.75 1342.76 L1033.49 1342.76 L1033.49 1327.25 Q1033.49 1323.57 1032.05 1321.74 Q1030.62 1319.91 1027.75 1319.91 Q1024.3 1319.91 1022.31 1322.11 Q1020.32 1324.31 1020.32 1328.1 L1020.32 1342.76 L1016.03 1342.76 L1016.03 1316.83 L1020.32 1316.83 L1020.32 1320.86 Q1021.84 1318.52 1023.9 1317.36 Q1025.99 1316.2 1028.69 1316.2 Q1033.16 1316.2 1035.45 1318.98 Q1037.75 1321.74 1037.75 1327.11 Z" fill="#000000" fill-rule="nonzero" fill-opacity="1" /><path clip-path="url(#clip930)" d="M1068.42 1328.73 L1068.42 1330.81 L1048.83 1330.81 Q1049.11 1335.21 1051.47 1337.52 Q1053.86 1339.82 1058.09 1339.82 Q1060.55 1339.82 1062.84 1339.21 Q1065.15 1338.61 1067.42 1337.41 L1067.42 1341.44 Q1065.13 1342.41 1062.72 1342.92 Q1060.31 1343.43 1057.84 1343.43 Q1051.63 1343.43 1048 1339.82 Q1044.39 1336.2 1044.39 1330.05 Q1044.39 1323.68 1047.81 1319.95 Q1051.26 1316.2 1057.1 1316.2 Q1062.33 1316.2 1065.36 1319.58 Q1068.42 1322.94 1068.42 1328.73 M1064.16 1327.48 Q1064.11 1323.98 1062.19 1321.9 Q1060.29 1319.82 1057.14 1319.82 Q1053.58 1319.82 1051.43 1321.83 Q1049.3 1323.84 1048.97 1327.5 L1064.16 1327.48 Z" fill="#000000" fill-rule="nonzero" fill-opacity="1" /><path clip-path="url(#clip930)" d="M1087.19 1329.72 Q1082.03 1329.72 1080.04 1330.9 Q1078.05 1332.08 1078.05 1334.93 Q1078.05 1337.2 1079.53 1338.54 Q1081.03 1339.86 1083.6 1339.86 Q1087.14 1339.86 1089.27 1337.36 Q1091.43 1334.84 1091.43 1330.67 L1091.43 1329.72 L1087.19 1329.72 M1095.69 1327.96 L1095.69 1342.76 L1091.43 1342.76 L1091.43 1338.82 Q1089.97 1341.18 1087.79 1342.32 Q1085.62 1343.43 1082.47 1343.43 Q1078.49 1343.43 1076.12 1341.2 Q1073.79 1338.96 1073.79 1335.21 Q1073.79 1330.83 1076.7 1328.61 Q1079.64 1326.39 1085.45 1326.39 L1091.43 1326.39 L1091.43 1325.97 Q1091.43 1323.03 1089.48 1321.44 Q1087.56 1319.82 1084.06 1319.82 Q1081.84 1319.82 1079.74 1320.35 Q1077.63 1320.88 1075.69 1321.95 L1075.69 1318.01 Q1078.02 1317.11 1080.22 1316.67 Q1082.42 1316.2 1084.5 1316.2 Q1090.13 1316.2 1092.91 1319.12 Q1095.69 1322.04 1095.69 1327.96 Z" fill="#000000" fill-rule="nonzero" fill-opacity="1" /><path clip-path="url(#clip930)" d="M1119.48 1320.81 Q1118.76 1320.39 1117.91 1320.21 Q1117.07 1320 1116.06 1320 Q1112.44 1320 1110.5 1322.36 Q1108.58 1324.7 1108.58 1329.1 L1108.58 1342.76 L1104.3 1342.76 L1104.3 1316.83 L1108.58 1316.83 L1108.58 1320.86 Q1109.92 1318.5 1112.07 1317.36 Q1114.23 1316.2 1117.31 1316.2 Q1117.75 1316.2 1118.28 1316.27 Q1118.81 1316.32 1119.46 1316.44 L1119.48 1320.81 Z" fill="#000000" fill-rule="nonzero" fill-opacity="1" /><path clip-path="url(#clip930)" d="M1125.04 1336.88 L1129.92 1336.88 L1129.92 1340.86 L1126.12 1348.26 L1123.14 1348.26 L1125.04 1340.86 L1125.04 1336.88 Z" fill="#000000" fill-rule="nonzero" fill-opacity="1" /><path clip-path="url(#clip930)" d="M1175.64 1327.11 L1175.64 1342.76 L1171.38 1342.76 L1171.38 1327.25 Q1171.38 1323.57 1169.94 1321.74 Q1168.51 1319.91 1165.64 1319.91 Q1162.19 1319.91 1160.2 1322.11 Q1158.21 1324.31 1158.21 1328.1 L1158.21 1342.76 L1153.93 1342.76 L1153.93 1306.74 L1158.21 1306.74 L1158.21 1320.86 Q1159.74 1318.52 1161.8 1317.36 Q1163.88 1316.2 1166.59 1316.2 Q1171.05 1316.2 1173.35 1318.98 Q1175.64 1321.74 1175.64 1327.11 Z" fill="#000000" fill-rule="nonzero" fill-opacity="1" /></svg>
