<?xml version="1.0" encoding="utf-8"?>
<svg xmlns="http://www.w3.org/2000/svg" xmlns:xlink="http://www.w3.org/1999/xlink" width="600" height="400" viewBox="0 0 2400 1600">
<defs>
  <clipPath id="clip080">
    <rect x="0" y="0" width="2400" height="1600"/>
  </clipPath>
</defs>
<path clip-path="url(#clip080)" d="M0 1600 L2400 1600 L2400 0 L0 0  Z" fill="#ffffff" fill-rule="evenodd" fill-opacity="1"/>
<defs>
  <clipPath id="clip081">
    <rect x="249" y="47" width="2104" height="1377"/>
  </clipPath>
</defs>
<path clip-path="url(#clip080)" d="M249.542 1423.18 L2352.76 1423.18 L2352.76 47.2441 L249.542 47.2441  Z" fill="#ffffff" fill-rule="evenodd" fill-opacity="1"/>
<polyline clip-path="url(#clip081)" style="stroke:#000000; stroke-linecap:round; stroke-linejoin:round; stroke-width:2; stroke-opacity:0.1; fill:none" points="309.066,1423.18 309.066,47.2441 "/>
<polyline clip-path="url(#clip081)" style="stroke:#000000; stroke-linecap:round; stroke-linejoin:round; stroke-width:2; stroke-opacity:0.1; fill:none" points="935.035,1423.18 935.035,47.2441 "/>
<polyline clip-path="url(#clip081)" style="stroke:#000000; stroke-linecap:round; stroke-linejoin:round; stroke-width:2; stroke-opacity:0.1; fill:none" points="1561,1423.18 1561,47.2441 "/>
<polyline clip-path="url(#clip081)" style="stroke:#000000; stroke-linecap:round; stroke-linejoin:round; stroke-width:2; stroke-opacity:0.1; fill:none" points="2186.97,1423.18 2186.97,47.2441 "/>
<polyline clip-path="url(#clip081)" style="stroke:#000000; stroke-linecap:round; stroke-linejoin:round; stroke-width:2; stroke-opacity:0.1; fill:none" points="249.542,1384.24 2352.76,1384.24 "/>
<polyline clip-path="url(#clip081)" style="stroke:#000000; stroke-linecap:round; stroke-linejoin:round; stroke-width:2; stroke-opacity:0.1; fill:none" points="249.542,1144.07 2352.76,1144.07 "/>
<polyline clip-path="url(#clip081)" style="stroke:#000000; stroke-linecap:round; stroke-linejoin:round; stroke-width:2; stroke-opacity:0.1; fill:none" points="249.542,903.898 2352.76,903.898 "/>
<polyline clip-path="url(#clip081)" style="stroke:#000000; stroke-linecap:round; stroke-linejoin:round; stroke-width:2; stroke-opacity:0.1; fill:none" points="249.542,663.728 2352.76,663.728 "/>
<polyline clip-path="url(#clip081)" style="stroke:#000000; stroke-linecap:round; stroke-linejoin:round; stroke-width:2; stroke-opacity:0.1; fill:none" points="249.542,423.558 2352.76,423.558 "/>
<polyline clip-path="url(#clip081)" style="stroke:#000000; stroke-linecap:round; stroke-linejoin:round; stroke-width:2; stroke-opacity:0.1; fill:none" points="249.542,183.388 2352.76,183.388 "/>
<polyline clip-path="url(#clip080)" style="stroke:#000000; stroke-linecap:round; stroke-linejoin:round; stroke-width:4; stroke-opacity:1; fill:none" points="249.542,1423.18 2352.76,1423.18 "/>
<polyline clip-path="url(#clip080)" style="stroke:#000000; stroke-linecap:round; stroke-linejoin:round; stroke-width:4; stroke-opacity:1; fill:none" points="309.066,1423.18 309.066,1404.28 "/>
<polyline clip-path="url(#clip080)" style="stroke:#000000; stroke-linecap:round; stroke-linejoin:round; stroke-width:4; stroke-opacity:1; fill:none" points="935.035,1423.18 935.035,1404.28 "/>
<polyline clip-path="url(#clip080)" style="stroke:#000000; stroke-linecap:round; stroke-linejoin:round; stroke-width:4; stroke-opacity:1; fill:none" points="1561,1423.18 1561,1404.28 "/>
<polyline clip-path="url(#clip080)" style="stroke:#000000; stroke-linecap:round; stroke-linejoin:round; stroke-width:4; stroke-opacity:1; fill:none" points="2186.97,1423.18 2186.97,1404.28 "/>
<path clip-path="url(#clip080)" d="M309.066 1454.1 Q305.455 1454.1 303.627 1457.66 Q301.821 1461.2 301.821 1468.33 Q301.821 1475.44 303.627 1479.01 Q305.455 1482.55 309.066 1482.55 Q312.701 1482.55 314.506 1479.01 Q316.335 1475.44 316.335 1468.33 Q316.335 1461.2 314.506 1457.66 Q312.701 1454.1 309.066 1454.1 M309.066 1450.39 Q314.876 1450.39 317.932 1455 Q321.011 1459.58 321.011 1468.33 Q321.011 1477.06 317.932 1481.67 Q314.876 1486.25 309.066 1486.25 Q303.256 1486.25 300.177 1481.67 Q297.122 1477.06 297.122 1468.33 Q297.122 1459.58 300.177 1455 Q303.256 1450.39 309.066 1450.39 Z" fill="#000000" fill-rule="nonzero" fill-opacity="1" /><path clip-path="url(#clip080)" d="M925.417 1481.64 L933.056 1481.64 L933.056 1455.28 L924.746 1456.95 L924.746 1452.69 L933.01 1451.02 L937.686 1451.02 L937.686 1481.64 L945.325 1481.64 L945.325 1485.58 L925.417 1485.58 L925.417 1481.64 Z" fill="#000000" fill-rule="nonzero" fill-opacity="1" /><path clip-path="url(#clip080)" d="M1555.66 1481.64 L1571.98 1481.64 L1571.98 1485.58 L1550.03 1485.58 L1550.03 1481.64 Q1552.69 1478.89 1557.28 1474.26 Q1561.88 1469.61 1563.06 1468.27 Q1565.31 1465.74 1566.19 1464.01 Q1567.09 1462.25 1567.09 1460.56 Q1567.09 1457.8 1565.15 1456.07 Q1563.23 1454.33 1560.12 1454.33 Q1557.93 1454.33 1555.47 1455.09 Q1553.04 1455.86 1550.26 1457.41 L1550.26 1452.69 Q1553.09 1451.55 1555.54 1450.97 Q1558 1450.39 1560.03 1450.39 Q1565.4 1450.39 1568.6 1453.08 Q1571.79 1455.77 1571.79 1460.26 Q1571.79 1462.39 1570.98 1464.31 Q1570.19 1466.2 1568.09 1468.8 Q1567.51 1469.47 1564.41 1472.69 Q1561.31 1475.88 1555.66 1481.64 Z" fill="#000000" fill-rule="nonzero" fill-opacity="1" /><path clip-path="url(#clip080)" d="M2191.22 1466.95 Q2194.58 1467.66 2196.45 1469.93 Q2198.35 1472.2 2198.35 1475.53 Q2198.35 1480.65 2194.83 1483.45 Q2191.31 1486.25 2184.83 1486.25 Q2182.66 1486.25 2180.34 1485.81 Q2178.05 1485.39 2175.6 1484.54 L2175.6 1480.02 Q2177.54 1481.16 2179.86 1481.74 Q2182.17 1482.32 2184.69 1482.32 Q2189.09 1482.32 2191.38 1480.58 Q2193.7 1478.84 2193.7 1475.53 Q2193.7 1472.48 2191.54 1470.77 Q2189.42 1469.03 2185.6 1469.03 L2181.57 1469.03 L2181.57 1465.19 L2185.78 1465.19 Q2189.23 1465.19 2191.06 1463.82 Q2192.89 1462.43 2192.89 1459.84 Q2192.89 1457.18 2190.99 1455.77 Q2189.11 1454.33 2185.6 1454.33 Q2183.67 1454.33 2181.48 1454.75 Q2179.28 1455.16 2176.64 1456.04 L2176.64 1451.88 Q2179.3 1451.14 2181.61 1450.77 Q2183.95 1450.39 2186.01 1450.39 Q2191.34 1450.39 2194.44 1452.83 Q2197.54 1455.23 2197.54 1459.35 Q2197.54 1462.22 2195.9 1464.21 Q2194.25 1466.18 2191.22 1466.95 Z" fill="#000000" fill-rule="nonzero" fill-opacity="1" /><path clip-path="url(#clip080)" d="M1205.79 1561.55 Q1206.94 1563.08 1210.37 1563.08 L1213.21 1563.08 L1213.21 1568.04 L1209.67 1568.04 Q1203.94 1568.04 1201.33 1564.99 Q1198.72 1561.87 1198.72 1555.12 L1198.72 1538.25 L1185.36 1538.25 L1185.36 1532.4 L1218.24 1532.4 L1218.24 1538.25 L1204.71 1538.25 L1204.71 1555.47 Q1204.71 1560.09 1205.79 1561.55 Z" fill="#000000" fill-rule="nonzero" fill-opacity="1" /><path clip-path="url(#clip080)" d="M1258.69 1520.52 L1264.1 1520.52 L1247.55 1574.09 L1242.14 1574.09 L1258.69 1520.52 Z" fill="#000000" fill-rule="nonzero" fill-opacity="1" /><path clip-path="url(#clip080)" d="M1291.22 1520.52 L1297.65 1520.52 L1297.65 1540 L1321.01 1540 L1321.01 1520.52 L1327.44 1520.52 L1327.44 1568.04 L1321.01 1568.04 L1321.01 1545.41 L1297.65 1545.41 L1297.65 1568.04 L1291.22 1568.04 L1291.22 1520.52 Z" fill="#000000" fill-rule="nonzero" fill-opacity="1" /><path clip-path="url(#clip080)" d="M1351.98 1546.5 Q1350.39 1543.76 1347.17 1543.76 Q1343.96 1543.76 1342.37 1546.5 Q1340.74 1549.23 1340.74 1554.71 Q1340.74 1560.21 1342.37 1562.95 Q1343.96 1565.69 1347.17 1565.69 Q1350.39 1565.69 1351.98 1562.95 Q1353.6 1560.21 1353.6 1554.71 Q1353.6 1549.23 1351.98 1546.5 M1347.17 1540.93 Q1352.3 1540.93 1355 1544.46 Q1357.71 1547.99 1357.71 1554.71 Q1357.71 1561.46 1355 1564.99 Q1352.3 1568.52 1347.17 1568.52 Q1342.02 1568.52 1339.31 1564.99 Q1336.61 1561.46 1336.61 1554.71 Q1336.61 1547.99 1339.31 1544.46 Q1342.02 1540.93 1347.17 1540.93 Z" fill="#000000" fill-rule="nonzero" fill-opacity="1" /><path clip-path="url(#clip080)" d="M1364.33 1533.83 L1390.01 1533.83 L1390.01 1536.85 L1364.33 1536.85 L1364.33 1533.83 Z" fill="#000000" fill-rule="nonzero" fill-opacity="1" /><path clip-path="url(#clip080)" d="M1399.34 1543.28 L1405.83 1543.28 L1405.83 1523.83 L1398.74 1525.14 L1398.74 1521.45 L1406.06 1520.21 L1410.42 1520.21 L1410.42 1543.28 L1416.94 1543.28 L1416.94 1546.78 L1399.34 1546.78 L1399.34 1543.28 Z" fill="#000000" fill-rule="nonzero" fill-opacity="1" /><polyline clip-path="url(#clip080)" style="stroke:#000000; stroke-linecap:round; stroke-linejoin:round; stroke-width:4; stroke-opacity:1; fill:none" points="249.542,1423.18 249.542,47.2441 "/>
<polyline clip-path="url(#clip080)" style="stroke:#000000; stroke-linecap:round; stroke-linejoin:round; stroke-width:4; stroke-opacity:1; fill:none" points="249.542,1384.24 268.44,1384.24 "/>
<polyline clip-path="url(#clip080)" style="stroke:#000000; stroke-linecap:round; stroke-linejoin:round; stroke-width:4; stroke-opacity:1; fill:none" points="249.542,1144.07 268.44,1144.07 "/>
<polyline clip-path="url(#clip080)" style="stroke:#000000; stroke-linecap:round; stroke-linejoin:round; stroke-width:4; stroke-opacity:1; fill:none" points="249.542,903.898 268.44,903.898 "/>
<polyline clip-path="url(#clip080)" style="stroke:#000000; stroke-linecap:round; stroke-linejoin:round; stroke-width:4; stroke-opacity:1; fill:none" points="249.542,663.728 268.44,663.728 "/>
<polyline clip-path="url(#clip080)" style="stroke:#000000; stroke-linecap:round; stroke-linejoin:round; stroke-width:4; stroke-opacity:1; fill:none" points="249.542,423.558 268.44,423.558 "/>
<polyline clip-path="url(#clip080)" style="stroke:#000000; stroke-linecap:round; stroke-linejoin:round; stroke-width:4; stroke-opacity:1; fill:none" points="249.542,183.388 268.44,183.388 "/>
<path clip-path="url(#clip080)" d="M126.205 1370.04 Q122.593 1370.04 120.765 1373.6 Q118.959 1377.14 118.959 1384.27 Q118.959 1391.38 120.765 1394.94 Q122.593 1398.49 126.205 1398.49 Q129.839 1398.49 131.644 1394.94 Q133.473 1391.38 133.473 1384.27 Q133.473 1377.14 131.644 1373.6 Q129.839 1370.04 126.205 1370.04 M126.205 1366.33 Q132.015 1366.33 135.07 1370.94 Q138.149 1375.52 138.149 1384.27 Q138.149 1393 135.07 1397.61 Q132.015 1402.19 126.205 1402.19 Q120.394 1402.19 117.316 1397.61 Q114.26 1393 114.26 1384.27 Q114.26 1375.52 117.316 1370.94 Q120.394 1366.33 126.205 1366.33 Z" fill="#000000" fill-rule="nonzero" fill-opacity="1" /><path clip-path="url(#clip080)" d="M146.366 1395.64 L151.251 1395.64 L151.251 1401.52 L146.366 1401.52 L146.366 1395.64 Z" fill="#000000" fill-rule="nonzero" fill-opacity="1" /><path clip-path="url(#clip080)" d="M171.436 1370.04 Q167.825 1370.04 165.996 1373.6 Q164.19 1377.14 164.19 1384.27 Q164.19 1391.38 165.996 1394.94 Q167.825 1398.49 171.436 1398.49 Q175.07 1398.49 176.876 1394.94 Q178.704 1391.38 178.704 1384.27 Q178.704 1377.14 176.876 1373.6 Q175.07 1370.04 171.436 1370.04 M171.436 1366.33 Q177.246 1366.33 180.301 1370.94 Q183.38 1375.52 183.38 1384.27 Q183.38 1393 180.301 1397.61 Q177.246 1402.19 171.436 1402.19 Q165.626 1402.19 162.547 1397.61 Q159.491 1393 159.491 1384.27 Q159.491 1375.52 162.547 1370.94 Q165.626 1366.33 171.436 1366.33 Z" fill="#000000" fill-rule="nonzero" fill-opacity="1" /><path clip-path="url(#clip080)" d="M201.598 1370.04 Q197.987 1370.04 196.158 1373.6 Q194.352 1377.14 194.352 1384.27 Q194.352 1391.38 196.158 1394.94 Q197.987 1398.49 201.598 1398.49 Q205.232 1398.49 207.037 1394.94 Q208.866 1391.38 208.866 1384.27 Q208.866 1377.14 207.037 1373.6 Q205.232 1370.04 201.598 1370.04 M201.598 1366.33 Q207.408 1366.33 210.463 1370.94 Q213.542 1375.52 213.542 1384.27 Q213.542 1393 210.463 1397.61 Q207.408 1402.19 201.598 1402.19 Q195.787 1402.19 192.709 1397.61 Q189.653 1393 189.653 1384.27 Q189.653 1375.52 192.709 1370.94 Q195.787 1366.33 201.598 1366.33 Z" fill="#000000" fill-rule="nonzero" fill-opacity="1" /><path clip-path="url(#clip080)" d="M127.2 1129.87 Q123.589 1129.87 121.76 1133.43 Q119.955 1136.97 119.955 1144.1 Q119.955 1151.21 121.76 1154.77 Q123.589 1158.32 127.2 1158.32 Q130.834 1158.32 132.64 1154.77 Q134.468 1151.21 134.468 1144.1 Q134.468 1136.97 132.64 1133.43 Q130.834 1129.87 127.2 1129.87 M127.2 1126.16 Q133.01 1126.16 136.066 1130.77 Q139.144 1135.35 139.144 1144.1 Q139.144 1152.83 136.066 1157.44 Q133.01 1162.02 127.2 1162.02 Q121.39 1162.02 118.311 1157.44 Q115.256 1152.83 115.256 1144.1 Q115.256 1135.35 118.311 1130.77 Q121.39 1126.16 127.2 1126.16 Z" fill="#000000" fill-rule="nonzero" fill-opacity="1" /><path clip-path="url(#clip080)" d="M147.362 1155.47 L152.246 1155.47 L152.246 1161.35 L147.362 1161.35 L147.362 1155.47 Z" fill="#000000" fill-rule="nonzero" fill-opacity="1" /><path clip-path="url(#clip080)" d="M172.431 1129.87 Q168.82 1129.87 166.991 1133.43 Q165.186 1136.97 165.186 1144.1 Q165.186 1151.21 166.991 1154.77 Q168.82 1158.32 172.431 1158.32 Q176.065 1158.32 177.871 1154.77 Q179.7 1151.21 179.7 1144.1 Q179.7 1136.97 177.871 1133.43 Q176.065 1129.87 172.431 1129.87 M172.431 1126.16 Q178.241 1126.16 181.297 1130.77 Q184.376 1135.35 184.376 1144.1 Q184.376 1152.83 181.297 1157.44 Q178.241 1162.02 172.431 1162.02 Q166.621 1162.02 163.542 1157.44 Q160.487 1152.83 160.487 1144.1 Q160.487 1135.35 163.542 1130.77 Q166.621 1126.16 172.431 1126.16 Z" fill="#000000" fill-rule="nonzero" fill-opacity="1" /><path clip-path="url(#clip080)" d="M192.639 1126.79 L210.996 1126.79 L210.996 1130.72 L196.922 1130.72 L196.922 1139.2 Q197.94 1138.85 198.959 1138.69 Q199.977 1138.5 200.996 1138.5 Q206.783 1138.5 210.162 1141.67 Q213.542 1144.84 213.542 1150.26 Q213.542 1155.84 210.07 1158.94 Q206.598 1162.02 200.278 1162.02 Q198.102 1162.02 195.834 1161.65 Q193.588 1161.28 191.181 1160.54 L191.181 1155.84 Q193.264 1156.97 195.487 1157.53 Q197.709 1158.08 200.186 1158.08 Q204.19 1158.08 206.528 1155.98 Q208.866 1153.87 208.866 1150.26 Q208.866 1146.65 206.528 1144.54 Q204.19 1142.44 200.186 1142.44 Q198.311 1142.44 196.436 1142.85 Q194.584 1143.27 192.639 1144.15 L192.639 1126.79 Z" fill="#000000" fill-rule="nonzero" fill-opacity="1" /><path clip-path="url(#clip080)" d="M126.205 889.697 Q122.593 889.697 120.765 893.262 Q118.959 896.803 118.959 903.933 Q118.959 911.039 120.765 914.604 Q122.593 918.146 126.205 918.146 Q129.839 918.146 131.644 914.604 Q133.473 911.039 133.473 903.933 Q133.473 896.803 131.644 893.262 Q129.839 889.697 126.205 889.697 M126.205 885.993 Q132.015 885.993 135.07 890.6 Q138.149 895.183 138.149 903.933 Q138.149 912.66 135.07 917.266 Q132.015 921.85 126.205 921.85 Q120.394 921.85 117.316 917.266 Q114.26 912.66 114.26 903.933 Q114.26 895.183 117.316 890.6 Q120.394 885.993 126.205 885.993 Z" fill="#000000" fill-rule="nonzero" fill-opacity="1" /><path clip-path="url(#clip080)" d="M146.366 915.299 L151.251 915.299 L151.251 921.178 L146.366 921.178 L146.366 915.299 Z" fill="#000000" fill-rule="nonzero" fill-opacity="1" /><path clip-path="url(#clip080)" d="M162.246 917.243 L169.885 917.243 L169.885 890.878 L161.575 892.544 L161.575 888.285 L169.839 886.618 L174.514 886.618 L174.514 917.243 L182.153 917.243 L182.153 921.178 L162.246 921.178 L162.246 917.243 Z" fill="#000000" fill-rule="nonzero" fill-opacity="1" /><path clip-path="url(#clip080)" d="M201.598 889.697 Q197.987 889.697 196.158 893.262 Q194.352 896.803 194.352 903.933 Q194.352 911.039 196.158 914.604 Q197.987 918.146 201.598 918.146 Q205.232 918.146 207.037 914.604 Q208.866 911.039 208.866 903.933 Q208.866 896.803 207.037 893.262 Q205.232 889.697 201.598 889.697 M201.598 885.993 Q207.408 885.993 210.463 890.6 Q213.542 895.183 213.542 903.933 Q213.542 912.66 210.463 917.266 Q207.408 921.85 201.598 921.85 Q195.787 921.85 192.709 917.266 Q189.653 912.66 189.653 903.933 Q189.653 895.183 192.709 890.6 Q195.787 885.993 201.598 885.993 Z" fill="#000000" fill-rule="nonzero" fill-opacity="1" /><path clip-path="url(#clip080)" d="M127.2 649.527 Q123.589 649.527 121.76 653.092 Q119.955 656.633 119.955 663.763 Q119.955 670.869 121.76 674.434 Q123.589 677.976 127.2 677.976 Q130.834 677.976 132.64 674.434 Q134.468 670.869 134.468 663.763 Q134.468 656.633 132.64 653.092 Q130.834 649.527 127.2 649.527 M127.2 645.823 Q133.01 645.823 136.066 650.43 Q139.144 655.013 139.144 663.763 Q139.144 672.49 136.066 677.096 Q133.01 681.68 127.2 681.68 Q121.39 681.68 118.311 677.096 Q115.256 672.49 115.256 663.763 Q115.256 655.013 118.311 650.43 Q121.39 645.823 127.2 645.823 Z" fill="#000000" fill-rule="nonzero" fill-opacity="1" /><path clip-path="url(#clip080)" d="M147.362 675.129 L152.246 675.129 L152.246 681.008 L147.362 681.008 L147.362 675.129 Z" fill="#000000" fill-rule="nonzero" fill-opacity="1" /><path clip-path="url(#clip080)" d="M163.241 677.073 L170.88 677.073 L170.88 650.708 L162.57 652.374 L162.57 648.115 L170.834 646.448 L175.51 646.448 L175.51 677.073 L183.149 677.073 L183.149 681.008 L163.241 681.008 L163.241 677.073 Z" fill="#000000" fill-rule="nonzero" fill-opacity="1" /><path clip-path="url(#clip080)" d="M192.639 646.448 L210.996 646.448 L210.996 650.383 L196.922 650.383 L196.922 658.856 Q197.94 658.508 198.959 658.346 Q199.977 658.161 200.996 658.161 Q206.783 658.161 210.162 661.333 Q213.542 664.504 213.542 669.92 Q213.542 675.499 210.07 678.601 Q206.598 681.68 200.278 681.68 Q198.102 681.68 195.834 681.309 Q193.588 680.939 191.181 680.198 L191.181 675.499 Q193.264 676.633 195.487 677.189 Q197.709 677.744 200.186 677.744 Q204.19 677.744 206.528 675.638 Q208.866 673.532 208.866 669.92 Q208.866 666.309 206.528 664.203 Q204.19 662.096 200.186 662.096 Q198.311 662.096 196.436 662.513 Q194.584 662.93 192.639 663.809 L192.639 646.448 Z" fill="#000000" fill-rule="nonzero" fill-opacity="1" /><path clip-path="url(#clip080)" d="M126.205 409.357 Q122.593 409.357 120.765 412.922 Q118.959 416.463 118.959 423.593 Q118.959 430.7 120.765 434.264 Q122.593 437.806 126.205 437.806 Q129.839 437.806 131.644 434.264 Q133.473 430.7 133.473 423.593 Q133.473 416.463 131.644 412.922 Q129.839 409.357 126.205 409.357 M126.205 405.653 Q132.015 405.653 135.07 410.26 Q138.149 414.843 138.149 423.593 Q138.149 432.32 135.07 436.926 Q132.015 441.51 126.205 441.51 Q120.394 441.51 117.316 436.926 Q114.26 432.32 114.26 423.593 Q114.26 414.843 117.316 410.26 Q120.394 405.653 126.205 405.653 Z" fill="#000000" fill-rule="nonzero" fill-opacity="1" /><path clip-path="url(#clip080)" d="M146.366 434.959 L151.251 434.959 L151.251 440.838 L146.366 440.838 L146.366 434.959 Z" fill="#000000" fill-rule="nonzero" fill-opacity="1" /><path clip-path="url(#clip080)" d="M165.464 436.903 L181.783 436.903 L181.783 440.838 L159.839 440.838 L159.839 436.903 Q162.501 434.149 167.084 429.519 Q171.69 424.866 172.871 423.524 Q175.116 421 175.996 419.264 Q176.899 417.505 176.899 415.815 Q176.899 413.061 174.954 411.325 Q173.033 409.589 169.931 409.589 Q167.732 409.589 165.278 410.352 Q162.848 411.116 160.07 412.667 L160.07 407.945 Q162.894 406.811 165.348 406.232 Q167.802 405.653 169.839 405.653 Q175.209 405.653 178.403 408.339 Q181.598 411.024 181.598 415.514 Q181.598 417.644 180.788 419.565 Q180.001 421.463 177.894 424.056 Q177.315 424.727 174.214 427.945 Q171.112 431.139 165.464 436.903 Z" fill="#000000" fill-rule="nonzero" fill-opacity="1" /><path clip-path="url(#clip080)" d="M201.598 409.357 Q197.987 409.357 196.158 412.922 Q194.352 416.463 194.352 423.593 Q194.352 430.7 196.158 434.264 Q197.987 437.806 201.598 437.806 Q205.232 437.806 207.037 434.264 Q208.866 430.7 208.866 423.593 Q208.866 416.463 207.037 412.922 Q205.232 409.357 201.598 409.357 M201.598 405.653 Q207.408 405.653 210.463 410.26 Q213.542 414.843 213.542 423.593 Q213.542 432.32 210.463 436.926 Q207.408 441.51 201.598 441.51 Q195.787 441.51 192.709 436.926 Q189.653 432.32 189.653 423.593 Q189.653 414.843 192.709 410.26 Q195.787 405.653 201.598 405.653 Z" fill="#000000" fill-rule="nonzero" fill-opacity="1" /><path clip-path="url(#clip080)" d="M127.2 169.187 Q123.589 169.187 121.76 172.752 Q119.955 176.293 119.955 183.423 Q119.955 190.53 121.76 194.094 Q123.589 197.636 127.2 197.636 Q130.834 197.636 132.64 194.094 Q134.468 190.53 134.468 183.423 Q134.468 176.293 132.64 172.752 Q130.834 169.187 127.2 169.187 M127.2 165.483 Q133.01 165.483 136.066 170.09 Q139.144 174.673 139.144 183.423 Q139.144 192.15 136.066 196.756 Q133.01 201.34 127.2 201.34 Q121.39 201.34 118.311 196.756 Q115.256 192.15 115.256 183.423 Q115.256 174.673 118.311 170.09 Q121.39 165.483 127.2 165.483 Z" fill="#000000" fill-rule="nonzero" fill-opacity="1" /><path clip-path="url(#clip080)" d="M147.362 194.789 L152.246 194.789 L152.246 200.668 L147.362 200.668 L147.362 194.789 Z" fill="#000000" fill-rule="nonzero" fill-opacity="1" /><path clip-path="url(#clip080)" d="M166.459 196.733 L182.778 196.733 L182.778 200.668 L160.834 200.668 L160.834 196.733 Q163.496 193.979 168.079 189.349 Q172.686 184.696 173.866 183.354 Q176.112 180.831 176.991 179.094 Q177.894 177.335 177.894 175.645 Q177.894 172.891 175.95 171.155 Q174.028 169.419 170.927 169.419 Q168.727 169.419 166.274 170.182 Q163.843 170.946 161.065 172.497 L161.065 167.775 Q163.89 166.641 166.343 166.062 Q168.797 165.483 170.834 165.483 Q176.204 165.483 179.399 168.169 Q182.593 170.854 182.593 175.344 Q182.593 177.474 181.783 179.395 Q180.996 181.293 178.889 183.886 Q178.311 184.557 175.209 187.775 Q172.107 190.969 166.459 196.733 Z" fill="#000000" fill-rule="nonzero" fill-opacity="1" /><path clip-path="url(#clip080)" d="M192.639 166.108 L210.996 166.108 L210.996 170.044 L196.922 170.044 L196.922 178.516 Q197.94 178.168 198.959 178.006 Q199.977 177.821 200.996 177.821 Q206.783 177.821 210.162 180.993 Q213.542 184.164 213.542 189.58 Q213.542 195.159 210.07 198.261 Q206.598 201.34 200.278 201.34 Q198.102 201.34 195.834 200.969 Q193.588 200.599 191.181 199.858 L191.181 195.159 Q193.264 196.293 195.487 196.849 Q197.709 197.404 200.186 197.404 Q204.19 197.404 206.528 195.298 Q208.866 193.192 208.866 189.58 Q208.866 185.969 206.528 183.863 Q204.19 181.756 200.186 181.756 Q198.311 181.756 196.436 182.173 Q194.584 182.59 192.639 183.469 L192.639 166.108 Z" fill="#000000" fill-rule="nonzero" fill-opacity="1" /><path clip-path="url(#clip080)" d="M33.8307 857.736 Q33.2578 858.723 33.0032 859.9 Q32.7167 861.046 32.7167 862.447 Q32.7167 867.412 35.9632 870.085 Q39.1779 872.727 45.2253 872.727 L64.0042 872.727 L64.0042 878.615 L28.3562 878.615 L28.3562 872.727 L33.8944 872.727 Q30.6479 870.881 29.0883 867.921 Q27.4968 864.961 27.4968 860.728 Q27.4968 860.123 27.5923 859.391 Q27.656 858.659 27.8151 857.768 L33.8307 857.736 Z" fill="#000000" fill-rule="nonzero" fill-opacity="1" /><path clip-path="url(#clip080)" d="M44.1113 838.066 L47.1987 838.066 Q46.4985 839.625 46.1484 841.312 Q45.7982 842.967 45.7982 844.782 Q45.7982 847.551 46.5303 848.919 Q47.2942 850.288 48.7901 850.288 Q49.9359 850.288 50.5725 849.301 Q51.2409 848.315 51.8138 845.355 L52.0685 844.081 Q52.8323 840.103 54.1691 838.511 Q55.5378 836.856 57.9886 836.856 Q60.7576 836.856 62.3809 839.339 Q64.0042 841.79 64.0042 846.118 Q64.0042 847.933 63.6859 849.906 Q63.3676 851.848 62.7628 854.012 L59.3572 854.012 Q60.312 851.975 60.7895 849.97 Q61.2669 847.996 61.2669 846.055 Q61.2669 843.445 60.4712 842.044 Q59.6755 840.644 58.2432 840.644 Q56.9064 840.644 56.1743 841.662 Q55.5378 842.554 54.8057 846.087 L54.5511 847.36 Q53.8827 850.797 52.5777 852.325 Q51.2409 853.853 48.9174 853.853 Q46.1165 853.853 44.5888 851.593 Q43.0292 849.365 43.0292 845.227 Q43.0292 843.19 43.3156 841.376 Q43.5702 839.562 44.1113 838.066 Z" fill="#000000" fill-rule="nonzero" fill-opacity="1" /><path clip-path="url(#clip080)" d="M16.4842 796.148 L16.4842 790.737 L70.0516 807.288 L70.0516 812.699 L16.4842 796.148 Z" fill="#000000" fill-rule="nonzero" fill-opacity="1" /><path clip-path="url(#clip080)" d="M14.5426 749.805 Q21.8632 754.07 29.0246 756.139 Q36.186 758.208 43.5384 758.208 Q50.8908 758.208 58.1159 756.139 Q65.3091 754.039 72.5979 749.805 L72.5979 754.898 Q65.1182 759.672 57.8931 762.059 Q50.668 764.415 43.5384 764.415 Q36.4406 764.415 29.2474 762.059 Q22.0542 759.704 14.5426 754.898 L14.5426 749.805 Z" fill="#000000" fill-rule="nonzero" fill-opacity="1" /><path clip-path="url(#clip080)" d="M29.7248 712.789 L35.1993 712.789 Q33.8307 715.271 33.1623 717.786 Q32.4621 720.268 32.4621 722.815 Q32.4621 728.512 36.0905 731.663 Q39.6872 734.814 46.212 734.814 Q52.7369 734.814 56.3653 731.663 Q59.9619 728.512 59.9619 722.815 Q59.9619 720.268 59.2935 717.786 Q58.5933 715.271 57.2247 712.789 L62.6355 712.789 Q63.7814 715.24 64.3543 717.881 Q64.9272 720.491 64.9272 723.451 Q64.9272 731.504 59.8664 736.246 Q54.8057 740.989 46.212 740.989 Q37.491 740.989 32.4939 736.215 Q27.4968 731.408 27.4968 723.069 Q27.4968 720.364 28.0697 717.786 Q28.6108 715.208 29.7248 712.789 Z" fill="#000000" fill-rule="nonzero" fill-opacity="1" /><path clip-path="url(#clip080)" d="M16.4842 692.196 L16.4842 686.785 L70.0516 703.336 L70.0516 708.747 L16.4842 692.196 Z" fill="#000000" fill-rule="nonzero" fill-opacity="1" /><path clip-path="url(#clip080)" d="M16.4842 680.387 L16.4842 673.958 L35.9632 673.958 L35.9632 650.596 L16.4842 650.596 L16.4842 644.166 L64.0042 644.166 L64.0042 650.596 L41.3741 650.596 L41.3741 673.958 L64.0042 673.958 L64.0042 680.387 L16.4842 680.387 Z" fill="#000000" fill-rule="nonzero" fill-opacity="1" /><path clip-path="url(#clip080)" d="M42.4562 619.627 Q39.719 621.218 39.719 624.433 Q39.719 627.647 42.4562 629.239 Q45.1935 630.862 50.668 630.862 Q56.1743 630.862 58.9116 629.239 Q61.6488 627.647 61.6488 624.433 Q61.6488 621.218 58.9116 619.627 Q56.1743 618.003 50.668 618.003 Q45.1935 618.003 42.4562 619.627 M36.8862 624.433 Q36.8862 619.308 40.4192 616.603 Q43.9522 613.898 50.668 613.898 Q57.4157 613.898 60.9486 616.603 Q64.4816 619.308 64.4816 624.433 Q64.4816 629.589 60.9486 632.294 Q57.4157 635 50.668 635 Q43.9522 635 40.4192 632.294 Q36.8862 629.589 36.8862 624.433 Z" fill="#000000" fill-rule="nonzero" fill-opacity="1" /><path clip-path="url(#clip080)" d="M14.5426 606.418 L14.5426 601.325 Q22.0542 596.551 29.2474 594.196 Q36.4406 591.809 43.5384 591.809 Q50.668 591.809 57.8931 594.196 Q65.1182 596.551 72.5979 601.325 L72.5979 606.418 Q65.3091 602.185 58.1159 600.116 Q50.8908 598.015 43.5384 598.015 Q36.186 598.015 29.0246 600.116 Q21.8632 602.185 14.5426 606.418 Z" fill="#000000" fill-rule="nonzero" fill-opacity="1" /><polyline clip-path="url(#clip081)" style="stroke:#009af9; stroke-linecap:round; stroke-linejoin:round; stroke-width:4; stroke-opacity:1; fill:none" points="309.067,1384.24 309.067,1384.24 309.067,1384.24 309.067,1384.24 309.067,1384.24 309.067,1384.24 309.067,1384.24 309.067,1384.24 309.067,1384.24 309.067,1384.24 309.067,1384.24 309.067,1384.24 309.067,1384.24 309.067,1384.24 309.067,1384.24 309.067,1384.24 309.067,1384.24 309.067,1384.24 309.067,1384.24 309.067,1384.24 309.067,1384.24 309.067,1384.24 309.067,1384.24 309.067,1384.24 309.067,1384.24 309.067,1384.24 309.067,1384.24 309.067,1384.24 309.067,1384.24 309.067,1384.24 309.067,1384.24 309.067,1384.24 309.067,1384.24 309.067,1384.24 309.067,1384.24 309.067,1384.24 309.067,1384.24 309.067,1384.24 309.067,1384.24 309.067,1384.24 309.067,1384.24 309.067,1384.24 309.067,1384.24 309.067,1384.24 309.067,1384.24 309.067,1384.24 309.067,1384.24 309.067,1384.24 309.067,1384.24 309.067,1384.24 309.067,1384.24 309.067,1384.24 309.067,1384.24 309.067,1384.24 309.067,1384.24 309.067,1384.24 309.067,1384.24 309.067,1384.24 309.067,1384.24 309.067,1384.24 309.067,1384.24 309.067,1384.24 309.067,1384.24 309.067,1384.24 309.067,1384.24 309.067,1384.24 309.067,1384.24 309.067,1384.24 309.067,1384.24 309.067,1384.24 309.067,1384.24 309.067,1384.24 309.067,1384.24 309.067,1384.24 309.067,1384.24 309.067,1384.24 309.067,1384.24 309.067,1384.24 309.067,1384.24 309.067,1384.24 309.067,1384.24 309.067,1384.24 309.067,1384.24 309.067,1384.24 309.067,1384.24 309.067,1384.24 309.067,1384.24 309.067,1384.24 309.067,1384.24 309.067,1384.24 309.067,1384.24 309.067,1384.24 309.067,1384.24 309.067,1384.24 309.067,1384.24 309.067,1384.24 309.067,1384.24 309.067,1384.24 309.067,1384.24 309.067,1384.24 309.067,1384.24 309.067,1384.24 309.067,1384.24 309.067,1384.24 309.067,1384.24 309.067,1384.24 309.067,1384.24 309.067,1384.24 309.067,1384.24 309.067,1384.24 309.067,1384.24 309.068,1384.24 309.068,1384.24 309.068,1384.24 309.068,1384.24 309.068,1384.24 309.068,1384.24 309.068,1384.24 309.068,1384.24 309.068,1384.24 309.068,1384.24 309.068,1384.24 309.068,1384.24 309.068,1384.24 309.068,1384.24 309.068,1384.24 309.068,1384.24 309.068,1384.24 309.068,1384.24 309.068,1384.23 309.068,1384.23 309.068,1384.23 309.068,1384.23 309.068,1384.23 309.068,1384.23 309.068,1384.23 309.068,1384.23 309.068,1384.23 309.068,1384.23 309.068,1384.23 309.068,1384.23 309.068,1384.23 309.068,1384.23 309.068,1384.23 309.068,1384.23 309.068,1384.23 309.068,1384.23 309.068,1384.23 309.068,1384.23 309.068,1384.23 309.068,1384.23 309.068,1384.23 309.068,1384.23 309.068,1384.23 309.068,1384.23 309.068,1384.23 309.068,1384.23 309.068,1384.23 309.068,1384.23 309.068,1384.23 309.068,1384.23 309.068,1384.23 309.068,1384.23 309.068,1384.23 309.068,1384.23 309.068,1384.23 309.068,1384.23 309.068,1384.23 309.068,1384.23 309.068,1384.23 309.068,1384.23 309.068,1384.23 309.068,1384.23 309.068,1384.23 309.068,1384.23 309.068,1384.23 309.068,1384.23 309.068,1384.23 309.069,1384.23 309.069,1384.23 309.069,1384.23 309.069,1384.23 309.069,1384.23 309.069,1384.23 309.069,1384.23 309.069,1384.23 309.069,1384.23 309.069,1384.23 309.069,1384.23 309.069,1384.23 309.069,1384.23 309.069,1384.23 309.069,1384.23 309.069,1384.23 309.069,1384.23 309.069,1384.23 309.069,1384.23 309.069,1384.23 309.069,1384.23 309.069,1384.23 309.069,1384.23 309.069,1384.23 309.069,1384.23 309.069,1384.23 309.069,1384.23 309.069,1384.23 309.069,1384.23 309.069,1384.23 309.069,1384.23 309.069,1384.23 309.069,1384.23 309.069,1384.23 309.07,1384.23 309.07,1384.23 309.07,1384.23 309.07,1384.23 309.07,1384.23 309.07,1384.23 309.07,1384.23 309.07,1384.23 309.07,1384.23 309.07,1384.23 309.07,1384.23 309.07,1384.22 309.07,1384.22 309.07,1384.22 309.07,1384.22 309.07,1384.22 309.07,1384.22 309.07,1384.22 309.07,1384.22 309.07,1384.22 309.07,1384.22 309.07,1384.22 309.071,1384.22 309.071,1384.22 309.071,1384.22 309.071,1384.22 309.071,1384.22 309.071,1384.22 309.071,1384.22 309.071,1384.22 309.071,1384.22 309.071,1384.22 309.071,1384.22 309.071,1384.22 309.071,1384.22 309.071,1384.22 309.071,1384.22 309.071,1384.22 309.071,1384.22 309.072,1384.22 309.072,1384.22 309.072,1384.22 309.072,1384.22 309.072,1384.22 309.072,1384.22 309.072,1384.22 309.072,1384.22 309.072,1384.22 309.072,1384.21 309.072,1384.21 309.072,1384.21 309.072,1384.21 309.073,1384.21 309.073,1384.21 309.073,1384.21 309.073,1384.21 309.073,1384.21 309.073,1384.21 309.073,1384.21 309.073,1384.21 309.073,1384.21 309.073,1384.21 309.074,1384.21 309.074,1384.21 309.074,1384.21 309.074,1384.21 309.074,1384.21 309.074,1384.21 309.074,1384.21 309.074,1384.21 309.074,1384.2 309.075,1384.2 309.075,1384.2 309.075,1384.2 309.075,1384.2 309.075,1384.2 309.075,1384.2 309.075,1384.2 309.076,1384.2 309.076,1384.2 309.076,1384.2 309.076,1384.2 309.076,1384.2 309.076,1384.2 309.076,1384.2 309.077,1384.2 309.077,1384.19 309.077,1384.19 309.077,1384.19 309.077,1384.19 309.077,1384.19 309.078,1384.19 309.078,1384.19 309.078,1384.19 309.078,1384.19 309.078,1384.19 309.079,1384.19 309.079,1384.19 309.079,1384.18 309.079,1384.18 309.08,1384.18 309.08,1384.18 309.08,1384.18 309.08,1384.18 309.08,1384.18 309.081,1384.18 309.081,1384.18 309.081,1384.17 309.082,1384.17 309.082,1384.17 309.082,1384.17 309.082,1384.17 309.083,1384.17 309.083,1384.17 309.083,1384.17 309.084,1384.16 309.084,1384.16 309.084,1384.16 309.085,1384.16 309.085,1384.16 309.085,1384.16 309.086,1384.16 309.086,1384.15 309.086,1384.15 309.087,1384.15 309.087,1384.15 309.087,1384.15 309.088,1384.15 309.088,1384.14 309.089,1384.14 309.089,1384.14 309.09,1384.14 309.09,1384.14 309.091,1384.13 309.091,1384.13 309.092,1384.13 309.092,1384.13 309.093,1384.12 309.093,1384.12 309.094,1384.12 309.094,1384.12 309.095,1384.12 309.095,1384.11 309.096,1384.11 309.097,1384.11 309.097,1384.1 309.098,1384.1 309.099,1384.1 309.099,1384.1 309.1,1384.09 309.101,1384.09 309.101,1384.09 309.102,1384.08 309.103,1384.08 309.104,1384.08 309.105,1384.07 309.105,1384.07 309.106,1384.06 309.107,1384.06 309.108,1384.06 309.109,1384.05 309.11,1384.05 309.111,1384.04 309.112,1384.04 309.113,1384.03 309.114,1384.03 309.115,1384.02 309.117,1384.02 309.118,1384.01 309.119,1384.01 309.12,1384 309.122,1384 309.123,1383.99 309.124,1383.98 309.126,1383.98 309.127,1383.97 309.129,1383.96 309.13,1383.96 309.132,1383.95 309.133,1383.94 309.135,1383.94 309.137,1383.93 309.139,1383.92 309.141,1383.91 309.143,1383.9 309.145,1383.89 309.147,1383.89 309.149,1383.88 309.151,1383.87 309.153,1383.86 309.156,1383.85 309.158,1383.84 309.16,1383.82 309.163,1383.81 309.166,1383.8 309.168,1383.79 309.171,1383.78 309.174,1383.76 309.177,1383.75 309.18,1383.74 309.184,1383.72 309.187,1383.71 309.191,1383.69 309.194,1383.67 309.198,1383.66 309.202,1383.64 309.206,1383.62 309.21,1383.6 309.214,1383.59 309.219,1383.57 309.224,1383.54 309.228,1383.52 309.233,1383.5 309.239,1383.48 309.244,1383.45 309.25,1383.43 309.256,1383.4 309.262,1383.38 309.268,1383.35 309.274,1383.32 309.281,1383.29 309.288,1383.26 309.296,1383.23 309.303,1383.19 309.311,1383.16 309.32,1383.12 309.328,1383.08 309.337,1383.04 309.347,1383 309.357,1382.96 309.367,1382.91 309.378,1382.86 309.389,1382.81 309.4,1382.76 309.412,1382.71 309.425,1382.65 309.438,1382.59 309.452,1382.53 309.467,1382.47 309.482,1382.4 309.498,1382.33 309.514,1382.26 309.532,1382.18 309.55,1382.1 309.569,1382.02 309.589,1381.93 309.609,1381.84 309.631,1381.74 309.654,1381.64 309.678,1381.53 309.704,1381.42 309.73,1381.31 309.758,1381.18 309.788,1381.05 309.818,1380.92 309.851,1380.77 309.885,1380.62 309.921,1380.47 309.958,1380.3 309.998,1380.13 310.04,1379.94 310.083,1379.75 310.129,1379.55 310.178,1379.33 310.228,1379.11 310.282,1378.88 310.337,1378.63 310.395,1378.38 310.456,1378.11 310.519,1377.84 310.584,1377.55 310.652,1377.25 310.722,1376.94 310.795,1376.62 310.87,1376.29 310.947,1375.96 311.026,1375.61 311.107,1375.26 311.191,1374.89 311.276,1374.52 311.363,1374.14 311.452,1373.75 311.543,1373.35 311.636,1372.95 311.73,1372.54 311.827,1372.12 311.925,1371.69 312.025,1371.25 312.126,1370.81 312.23,1370.36 312.334,1369.91 312.441,1369.45 312.549,1368.98 312.659,1368.5 312.771,1368.02 312.884,1367.53 312.999,1367.03 313.116,1366.53 313.234,1366.02 313.353,1365.5 313.475,1364.98 313.598,1364.45 313.722,1363.91 313.848,1363.37 313.976,1362.82 314.105,1362.27 314.236,1361.71 314.368,1361.14 314.502,1360.56 314.637,1359.99 314.774,1359.4 314.913,1358.81 315.053,1358.21 315.194,1357.61 315.337,1357 315.482,1356.38 315.627,1355.76 315.775,1355.14 315.923,1354.51 316.073,1353.87 316.224,1353.23 316.375,1352.59 316.526,1351.95 316.677,1351.32 316.828,1350.68 316.979,1350.04 317.109,1349.5 317.224,1349.01 317.339,1348.53 317.439,1348.11 317.538,1347.69 317.638,1347.27 317.738,1346.86 317.844,1346.41 317.963,1345.91 318.054,1345.53 318.15,1345.13 318.246,1344.73 318.343,1344.33 318.443,1343.91 318.549,1343.46 318.664,1342.98 318.793,1342.45 318.946,1341.81 319.176,1340.85 319.332,1340.21 319.517,1339.44 319.702,1338.68 319.887,1337.91 320.072,1337.15 320.257,1336.38 320.442,1335.62 320.628,1334.86 320.813,1334.09 320.998,1333.33 321.184,1332.57 321.369,1331.81 321.524,1331.18 321.66,1330.63 321.78,1330.13 321.901,1329.64 322.005,1329.22 322.11,1328.79 322.2,1328.42 322.291,1328.06 322.37,1327.73 322.449,1327.41 322.52,1327.12 322.591,1326.84 322.662,1326.55 322.724,1326.3 322.786,1326.05 322.848,1325.79 322.902,1325.57 322.957,1325.35 323.012,1325.13 323.061,1324.93 323.109,1324.73 323.158,1324.54 323.207,1324.34 323.25,1324.16 323.294,1323.99 323.337,1323.81 323.38,1323.64 323.419,1323.48 323.457,1323.33 323.496,1323.17 323.534,1323.02 323.573,1322.86 323.607,1322.73 323.641,1322.59 323.675,1322.45 323.709,1322.31 323.743,1322.18 323.774,1322.05 323.804,1321.93 323.834,1321.81 323.865,1321.69 323.895,1321.56 323.926,1321.44 323.953,1321.33 323.98,1321.22 324.007,1321.11 324.034,1321 324.061,1320.9 324.088,1320.79 324.113,1320.69 324.137,1320.59 324.161,1320.49 324.186,1320.4 324.21,1320.3 324.234,1320.2 324.259,1320.1 324.281,1320.02 324.302,1319.93 324.324,1319.84 324.346,1319.75 324.368,1319.66 324.39,1319.58 324.412,1319.49 324.433,1319.4 324.453,1319.32 324.473,1319.25 324.492,1319.17 324.512,1319.09 324.531,1319.01 324.551,1318.93 324.57,1318.85 324.59,1318.78 324.609,1318.7 324.627,1318.63 324.644,1318.56 324.662,1318.49 324.679,1318.42 324.697,1318.35 324.714,1318.28 324.732,1318.21 324.749,1318.14 324.767,1318.07 324.784,1318 324.8,1317.93 324.816,1317.87 324.831,1317.81 324.847,1317.75 324.863,1317.68 324.878,1317.62 324.894,1317.56 324.91,1317.5 324.926,1317.43 324.941,1317.37 324.957,1317.31 324.971,1317.25 324.985,1317.19 324.999,1317.14 325.013,1317.08 325.027,1317.03 325.042,1316.97 325.056,1316.91 325.07,1316.86 325.084,1316.8 325.098,1316.74 325.112,1316.69 325.126,1316.63 325.14,1316.58 325.153,1316.52 325.166,1316.47 325.178,1316.42 325.191,1316.37 325.204,1316.32 325.216,1316.27 325.229,1316.22 325.242,1316.17 325.255,1316.12 325.267,1316.07 325.28,1316.02 325.293,1315.97 325.305,1315.92 325.318,1315.87 325.331,1315.82 325.343,1315.77 325.356,1315.72 325.367,1315.67 325.379,1315.62 325.39,1315.58 325.402,1315.53 325.413,1315.49 325.424,1315.44 325.436,1315.4 325.447,1315.35 325.459,1315.31 325.47,1315.26 325.481,1315.22 325.493,1315.17 325.504,1315.13 325.515,1315.08 325.527,1315.04 325.537,1314.99 325.547,1314.95 325.557,1314.91 325.566,1314.88 325.575,1314.84 325.583,1314.81 325.591,1314.78 325.597,1314.75 325.604,1314.73 325.61,1314.71 325.615,1314.68 325.62,1314.66 325.625,1314.64 325.63,1314.63 325.634,1314.61 325.638,1314.59 325.642,1314.58 325.646,1314.56 325.65,1314.54 325.654,1314.53 325.658,1314.51 325.662,1314.5 325.666,1314.48 325.67,1314.47 325.674,1314.45 325.678,1314.43 325.683,1314.42 325.687,1314.4 325.692,1314.38 325.696,1314.36 325.7,1314.35 325.704,1314.33 325.707,1314.32 325.711,1314.3 325.715,1314.29 325.718,1314.27 325.722,1314.26 325.725,1314.25 325.729,1314.23 325.733,1314.22 325.736,1314.2 325.74,1314.19 325.743,1314.17 325.747,1314.16 325.751,1314.15 325.754,1314.13 325.758,1314.11 325.763,1314.1 325.767,1314.08 325.772,1314.06 325.781,1314.03 325.785,1314.01 325.791,1313.98 325.797,1313.96 325.803,1313.94 325.809,1313.91 325.816,1313.89 325.822,1313.86 325.828,1313.84 325.834,1313.82 325.84,1313.79 325.846,1313.77 325.852,1313.74 325.859,1313.72 325.865,1313.69 325.872,1313.66 325.879,1313.63 325.887,1313.6 325.895,1313.57 325.903,1313.54 325.912,1313.5 325.921,1313.47 325.93,1313.43 325.94,1313.39 325.95,1313.35 325.96,1313.31 325.97,1313.27 325.981,1313.23 325.992,1313.19 326.003,1313.14 326.014,1313.1 326.025,1313.05 326.037,1313.01 326.048,1312.96 326.06,1312.92 326.072,1312.87 326.084,1312.82 326.096,1312.77 326.109,1312.73 326.121,1312.68 326.134,1312.63 326.146,1312.57 326.159,1312.52 326.172,1312.47 326.186,1312.42 326.199,1312.37 326.213,1312.31 326.227,1312.26 326.241,1312.2 326.255,1312.15 326.269,1312.09 326.284,1312.03 326.299,1311.97 326.314,1311.91 326.329,1311.85 326.345,1311.79 326.36,1311.73 326.376,1311.66 326.392,1311.6 326.409,1311.54 326.426,1311.47 326.443,1311.4 326.46,1311.33 326.478,1311.26 326.496,1311.19 326.514,1311.12 326.532,1311.05 326.551,1310.97 326.571,1310.9 326.59,1310.82 326.61,1310.74 326.631,1310.66 326.652,1310.58 326.673,1310.49 326.695,1310.41 326.717,1310.32 326.739,1310.23 326.763,1310.14 326.786,1310.05 326.81,1309.95 326.835,1309.85 326.861,1309.75 326.887,1309.65 326.913,1309.54 326.94,1309.44 326.968,1309.33 326.997,1309.21 327.026,1309.1 327.057,1308.98 327.088,1308.86 327.119,1308.73 327.152,1308.6 327.185,1308.47 327.219,1308.34 327.255,1308.2 327.29,1308.06 327.327,1307.92 327.364,1307.77 327.402,1307.62 327.441,1307.47 327.48,1307.31 327.52,1307.16 327.56,1307 327.6,1306.84 327.64,1306.69 327.681,1306.53 327.721,1306.37 327.761,1306.21 327.802,1306.05 327.842,1305.89 327.883,1305.74 327.923,1305.58 327.963,1305.42 328.004,1305.26 328.044,1305.1 328.085,1304.94 328.125,1304.79 328.165,1304.63 328.206,1304.47 328.246,1304.31 328.287,1304.16 328.327,1304 328.367,1303.84 328.408,1303.68 328.448,1303.52 328.489,1303.37 328.529,1303.21 328.569,1303.05 328.61,1302.89 328.65,1302.74 328.691,1302.58 328.731,1302.42 328.771,1302.26 328.812,1302.11 328.852,1301.95 328.893,1301.79 328.933,1301.64 328.969,1301.5 329.005,1301.36 329.041,1301.21 329.078,1301.07 329.114,1300.93 329.15,1300.79 329.186,1300.65 329.222,1300.51 329.258,1300.37 329.291,1300.25 329.323,1300.12 329.356,1299.99 329.388,1299.87 329.421,1299.74 329.453,1299.62 329.486,1299.49 329.518,1299.36 329.551,1299.24 329.583,1299.11 329.616,1298.99 329.645,1298.87 329.674,1298.76 329.703,1298.65 329.732,1298.54 329.761,1298.42 329.791,1298.31 329.82,1298.2 329.849,1298.09 329.878,1297.97 329.907,1297.86 329.936,1297.75 329.965,1297.64 329.991,1297.54 330.018,1297.43 330.044,1297.33 330.07,1297.23 330.096,1297.13 330.122,1297.03 330.148,1296.93 330.174,1296.83 330.2,1296.73 330.227,1296.63 330.253,1296.53 330.279,1296.43 330.305,1296.33 330.331,1296.23 330.355,1296.14 330.378,1296.05 330.401,1295.96 330.425,1295.87 330.448,1295.77 330.472,1295.68 330.495,1295.59 330.519,1295.5 330.542,1295.41 330.565,1295.32 330.589,1295.23 330.612,1295.14 330.636,1295.05 330.659,1294.96 330.683,1294.87 330.706,1294.78 330.73,1294.69 330.751,1294.61 330.772,1294.53 330.793,1294.45 330.814,1294.37 330.835,1294.29 330.856,1294.21 330.877,1294.13 330.898,1294.05 330.919,1293.97 330.94,1293.89 330.961,1293.81 330.982,1293.73 331.003,1293.65 331.024,1293.56 331.045,1293.48 331.066,1293.4 331.087,1293.32 331.108,1293.24 331.129,1293.16 331.15,1293.08 331.171,1293 331.19,1292.93 331.209,1292.86 331.227,1292.78 331.246,1292.71 331.265,1292.64 331.284,1292.57 331.303,1292.5 331.322,1292.42 331.341,1292.35 331.36,1292.28 331.379,1292.21 331.397,1292.13 331.416,1292.06 331.435,1291.99 331.454,1291.92 331.473,1291.85 331.492,1291.77 331.511,1291.7 331.53,1291.63 331.548,1291.56 331.567,1291.48 331.586,1291.41 331.605,1291.34 331.624,1291.27 331.643,1291.2 331.662,1291.12 331.681,1291.05 331.7,1290.98 331.718,1290.91 331.737,1290.84 331.756,1290.76 331.775,1290.69 331.794,1290.62 331.813,1290.55 331.832,1290.48 331.851,1290.4 331.87,1290.33 331.888,1290.26 331.907,1290.19 331.926,1290.12 331.945,1290.04 331.964,1289.97 331.983,1289.9 332.002,1289.83 332.021,1289.76 332.039,1289.68 332.058,1289.61 332.077,1289.54 332.096,1289.47 332.115,1289.4 332.134,1289.33 332.153,1289.25 332.172,1289.18 332.191,1289.11 332.209,1289.04 332.228,1288.97 332.247,1288.89 332.266,1288.82 332.285,1288.75 332.304,1288.68 332.323,1288.61 332.342,1288.54 332.361,1288.46 332.379,1288.39 332.398,1288.32 332.417,1288.25 332.436,1288.18 332.455,1288.11 332.474,1288.03 332.493,1287.96 332.512,1287.89 332.53,1287.82 332.549,1287.75 332.568,1287.68 332.587,1287.6 332.606,1287.53 332.625,1287.46 332.644,1287.39 332.663,1287.32 332.682,1287.24 332.702,1287.17 332.722,1287.09 332.744,1287.01 332.767,1286.92 332.794,1286.82 332.825,1286.7 332.849,1286.61 332.874,1286.52 332.899,1286.42 332.924,1286.33 332.948,1286.24 332.97,1286.15 332.992,1286.07 333.014,1285.99 333.036,1285.91 333.057,1285.82 333.077,1285.75 333.097,1285.68 333.116,1285.6 333.136,1285.53 333.155,1285.45 333.175,1285.38 333.194,1285.31 333.214,1285.23 333.233,1285.16 333.253,1285.08 333.273,1285.01 333.292,1284.94 333.312,1284.86 333.331,1284.79 333.351,1284.72 333.37,1284.64 333.39,1284.57 333.41,1284.49 333.429,1284.42 333.449,1284.35 333.469,1284.27 333.489,1284.19 333.513,1284.1 333.536,1284.02 333.56,1283.93 333.583,1283.84 333.604,1283.76 333.625,1283.68 333.646,1283.6 333.667,1283.52 333.686,1283.45 333.704,1283.38 333.723,1283.31 333.742,1283.24 333.76,1283.17 333.779,1283.1 333.798,1283.03 333.816,1282.96 333.835,1282.89 333.852,1282.83 333.869,1282.77 333.885,1282.7 333.902,1282.64 333.919,1282.58 333.936,1282.51 333.952,1282.45 333.969,1282.39 333.986,1282.32 334.003,1282.26 334.019,1282.2 334.036,1282.14 334.053,1282.07 334.07,1282.01 334.087,1281.95 334.103,1281.88 334.12,1281.82 334.137,1281.76 334.154,1281.7 334.17,1281.63 334.187,1281.57 334.204,1281.51 334.221,1281.44 334.237,1281.38 334.254,1281.32 334.271,1281.25 334.288,1281.19 334.306,1281.12 334.323,1281.06 334.341,1280.99 334.36,1280.92 334.378,1280.85 334.397,1280.78 334.416,1280.71 334.436,1280.64 334.456,1280.56 334.476,1280.49 334.496,1280.41 334.516,1280.34 334.536,1280.26 334.557,1280.18 334.577,1280.11 334.597,1280.03 334.618,1279.96 334.638,1279.88 334.658,1279.81 334.678,1279.73 334.699,1279.65 334.719,1279.58 334.739,1279.5 334.759,1279.43 334.78,1279.35 334.8,1279.28 334.82,1279.2 334.84,1279.12 334.861,1279.05 334.881,1278.97 334.901,1278.9 334.922,1278.82 334.942,1278.75 334.962,1278.67 334.982,1278.59 335.003,1278.52 335.023,1278.44 335.043,1278.37 335.063,1278.29 335.084,1278.22 335.104,1278.14 335.124,1278.07 335.145,1277.99 335.165,1277.91 335.185,1277.84 335.205,1277.76 335.226,1277.69 335.246,1277.61 335.266,1277.54 335.286,1277.46 335.307,1277.39 335.327,1277.31 335.347,1277.24 335.367,1277.16 335.388,1277.08 335.408,1277.01 335.428,1276.93 335.449,1276.86 335.467,1276.79 335.485,1276.72 335.503,1276.65 335.521,1276.59 335.54,1276.52 335.558,1276.45 335.576,1276.38 335.594,1276.32 335.613,1276.25 335.631,1276.18 335.649,1276.11 335.667,1276.05 335.686,1275.98 335.704,1275.91 335.722,1275.84 335.74,1275.77 335.757,1275.71 335.773,1275.65 335.789,1275.59 335.806,1275.53 335.822,1275.47 335.839,1275.41 335.855,1275.35 335.871,1275.29 335.888,1275.23 335.902,1275.17 335.917,1275.12 335.932,1275.06 335.945,1275.02 335.958,1274.97 335.969,1274.92 335.981,1274.88 335.991,1274.85 336.001,1274.81 336.009,1274.78 336.018,1274.75 336.025,1274.72 336.032,1274.69 336.038,1274.67 336.045,1274.65 336.05,1274.62 336.056,1274.6 336.062,1274.58 336.067,1274.56 336.072,1274.55 336.077,1274.53 336.082,1274.51 336.087,1274.49 336.092,1274.47 336.097,1274.45 336.102,1274.43 336.107,1274.41 336.112,1274.4 336.117,1274.38 336.123,1274.36 336.128,1274.34 336.133,1274.32 336.138,1274.3 336.143,1274.28 336.149,1274.26 336.155,1274.24 336.161,1274.22 336.169,1274.19 336.175,1274.17 336.187,1274.12 336.196,1274.09 336.206,1274.05 336.216,1274.01 336.223,1273.98 336.231,1273.96 336.238,1273.93 336.245,1273.91 336.252,1273.88 336.259,1273.85 336.266,1273.83 336.273,1273.8 336.28,1273.77 336.288,1273.75 336.295,1273.72 336.302,1273.69 336.309,1273.67 336.316,1273.64 336.323,1273.62 336.331,1273.59 336.338,1273.56 336.346,1273.53 336.354,1273.5 336.362,1273.47 336.37,1273.44 336.378,1273.41 336.387,1273.38 336.396,1273.35 336.404,1273.32 336.413,1273.28 336.422,1273.25 336.432,1273.22 336.441,1273.18 336.45,1273.15 336.459,1273.11 336.469,1273.08 336.478,1273.04 336.488,1273.01 336.497,1272.97 336.507,1272.94 336.517,1272.9 336.526,1272.87 336.536,1272.83 336.546,1272.79 336.556,1272.76 336.565,1272.72 336.575,1272.68 336.585,1272.65 336.595,1272.61 336.605,1272.57 336.615,1272.54 336.625,1272.5 336.635,1272.46 336.646,1272.43 336.656,1272.39 336.666,1272.35 336.676,1272.31 336.687,1272.27 336.697,1272.24 336.708,1272.2 336.718,1272.16 336.729,1272.12 336.739,1272.08 336.75,1272.04 336.76,1272 336.771,1271.96 336.782,1271.92 336.793,1271.88 336.804,1271.84 336.814,1271.8 336.825,1271.76 336.836,1271.72 336.848,1271.68 336.859,1271.64 336.87,1271.6 336.881,1271.56 336.892,1271.52 336.904,1271.47 336.915,1271.43 336.927,1271.39 336.938,1271.35 336.95,1271.3 336.962,1271.26 336.973,1271.22 336.985,1271.17 336.997,1271.13 337.009,1271.09 337.021,1271.04 337.033,1271 337.045,1270.95 337.058,1270.91 337.07,1270.86 337.082,1270.82 337.095,1270.77 337.107,1270.72 337.12,1270.68 337.133,1270.63 337.145,1270.58 337.158,1270.54 337.171,1270.49 337.184,1270.44 337.198,1270.39 337.211,1270.34 337.224,1270.3 337.237,1270.25 337.251,1270.2 337.265,1270.15 337.278,1270.1 337.292,1270.05 337.306,1269.99 337.32,1269.94 337.334,1269.89 337.348,1269.84 337.363,1269.79 337.377,1269.73 337.392,1269.68 337.406,1269.63 337.421,1269.57 337.436,1269.52 337.451,1269.46 337.466,1269.41 337.482,1269.35 337.497,1269.29 337.512,1269.24 337.528,1269.18 337.544,1269.12 337.56,1269.06 337.576,1269 337.592,1268.95 337.609,1268.89 337.625,1268.82 337.642,1268.76 337.659,1268.7 337.676,1268.64 337.693,1268.58 337.71,1268.51 337.728,1268.45 337.745,1268.39 337.763,1268.32 337.781,1268.25 337.799,1268.19 337.818,1268.12 337.836,1268.05 337.855,1267.98 337.874,1267.91 337.893,1267.84 337.912,1267.77 337.932,1267.7 337.952,1267.63 337.972,1267.56 337.992,1267.48 338.013,1267.41 338.033,1267.33 338.054,1267.25 338.076,1267.18 338.097,1267.1 338.119,1267.02 338.141,1266.94 338.163,1266.86 338.186,1266.77 338.209,1266.69 338.232,1266.61 338.256,1266.52 338.28,1266.43 338.304,1266.34 338.329,1266.25 338.353,1266.16 338.379,1266.07 338.404,1265.98 338.431,1265.88 338.457,1265.79 338.484,1265.69 338.511,1265.59 338.539,1265.49 338.568,1265.38 338.597,1265.28 338.626,1265.17 338.656,1265.06 338.686,1264.95 338.718,1264.84 338.749,1264.72 338.782,1264.6 338.815,1264.48 338.849,1264.36 338.884,1264.23 338.92,1264.1 338.956,1263.97 338.994,1263.83 339.033,1263.69 339.073,1263.55 339.115,1263.4 339.158,1263.24 339.202,1263.08 339.249,1262.91 339.298,1262.73 339.35,1262.54 339.406,1262.34 339.464,1262.13 339.524,1261.91 339.585,1261.69 339.645,1261.48 339.705,1261.26 339.766,1261.04 339.826,1260.82 339.887,1260.6 339.947,1260.39 340.007,1260.17 340.068,1259.95 340.128,1259.73 340.188,1259.52 340.249,1259.3 340.309,1259.08 340.37,1258.86 340.43,1258.65 340.49,1258.43 340.551,1258.21 340.611,1258 340.671,1257.78 340.732,1257.56 340.792,1257.35 340.853,1257.13 340.913,1256.91 340.973,1256.7 341.034,1256.48 341.094,1256.27 341.155,1256.05 341.215,1255.83 341.275,1255.62 341.336,1255.4 341.396,1255.19 341.456,1254.97 341.517,1254.76 341.577,1254.54 341.638,1254.33 341.698,1254.11 341.758,1253.9 341.819,1253.68 341.879,1253.47 341.939,1253.25 342,1253.04 342.06,1252.82 342.121,1252.61 342.175,1252.41 342.229,1252.22 342.283,1252.03 342.337,1251.84 342.391,1251.65 342.446,1251.45 342.5,1251.26 342.554,1251.07 342.608,1250.88 342.662,1250.69 342.716,1250.49 342.771,1250.3 342.825,1250.11 342.873,1249.94 342.922,1249.77 342.97,1249.6 343.019,1249.43 343.067,1249.26 343.116,1249.08 343.164,1248.91 343.213,1248.74 343.261,1248.57 343.31,1248.4 343.358,1248.23 343.407,1248.06 343.455,1247.89 343.504,1247.72 343.552,1247.55 343.596,1247.39 343.639,1247.24 343.683,1247.09 343.726,1246.93 343.77,1246.78 343.814,1246.63 343.857,1246.47 343.901,1246.32 343.945,1246.17 343.988,1246.02 344.032,1245.86 344.075,1245.71 344.119,1245.56 344.163,1245.4 344.206,1245.25 344.25,1245.1 344.293,1244.95 344.337,1244.79 344.381,1244.64 344.424,1244.49 344.468,1244.34 344.512,1244.18 344.551,1244.05 344.59,1243.91 344.629,1243.77 344.668,1243.64 344.708,1243.5 344.747,1243.36 344.786,1243.22 344.825,1243.09 344.865,1242.95 344.904,1242.81 344.943,1242.68 344.982,1242.54 345.021,1242.4 345.061,1242.27 345.1,1242.13 345.139,1241.99 345.178,1241.86 345.217,1241.72 345.257,1241.59 345.296,1241.45 345.335,1241.31 345.374,1241.18 345.414,1241.04 345.453,1240.9 345.492,1240.77 345.531,1240.63 345.57,1240.5 345.61,1240.36 345.649,1240.22 345.688,1240.09 345.727,1239.95 345.767,1239.82 345.806,1239.68 345.845,1239.54 345.884,1239.41 345.923,1239.27 345.963,1239.14 346.002,1239 346.041,1238.87 346.08,1238.73 346.12,1238.59 346.159,1238.46 346.198,1238.32 346.237,1238.19 346.276,1238.05 346.316,1237.92 346.356,1237.78 346.396,1237.64 346.436,1237.5 346.477,1237.36 346.518,1237.22 346.56,1237.08 346.601,1236.93 346.643,1236.79 346.686,1236.64 346.728,1236.49 346.771,1236.35 346.815,1236.2 346.859,1236.05 346.903,1235.89 346.947,1235.74 346.992,1235.59 347.039,1235.43 347.052,1235.38 347.065,1235.34 347.078,1235.29 347.091,1235.25 347.104,1235.2 347.117,1235.16 347.13,1235.11 347.143,1235.07 347.156,1235.02 347.169,1234.98 347.182,1234.93 347.195,1234.89 347.208,1234.84 347.221,1234.8 347.235,1234.76 347.248,1234.71 347.261,1234.67 347.274,1234.62 347.287,1234.58 347.3,1234.53 347.313,1234.49 347.326,1234.44 347.339,1234.4 347.352,1234.35 347.365,1234.31 347.378,1234.26 347.392,1234.22 347.405,1234.17 347.418,1234.13 347.431,1234.08 347.444,1234.04 347.457,1233.99 347.47,1233.95 347.483,1233.9 347.496,1233.86 347.509,1233.81 347.522,1233.77 347.535,1233.72 347.548,1233.68 347.562,1233.63 347.575,1233.59 347.588,1233.55 347.601,1233.5 347.614,1233.46 347.627,1233.41 347.64,1233.37 347.653,1233.32 347.666,1233.28 347.679,1233.23 347.692,1233.19 347.705,1233.14 347.718,1233.1 347.732,1233.05 347.745,1233.01 347.758,1232.96 347.771,1232.92 347.784,1232.87 347.797,1232.83 347.81,1232.78 347.823,1232.74 347.836,1232.7 347.849,1232.65 347.862,1232.61 347.875,1232.56 347.889,1232.52 347.902,1232.47 347.915,1232.43 347.928,1232.38 347.941,1232.34 347.954,1232.29 347.967,1232.25 347.98,1232.2 347.993,1232.16 348.006,1232.11 348.019,1232.07 348.032,1232.03 348.045,1231.98 348.059,1231.94 348.072,1231.89 348.085,1231.85 348.098,1231.8 348.111,1231.76 348.124,1231.71 348.137,1231.67 348.15,1231.62 348.163,1231.58 348.176,1231.54 348.189,1231.49 348.202,1231.45 348.216,1231.4 348.229,1231.36 348.242,1231.31 348.255,1231.27 348.268,1231.22 348.281,1231.18 348.294,1231.13 348.307,1231.09 348.32,1231.04 348.333,1231 348.346,1230.96 348.359,1230.91 348.372,1230.87 348.386,1230.82 348.399,1230.78 348.412,1230.73 348.425,1230.69 348.438,1230.64 348.451,1230.6 348.464,1230.56 348.477,1230.51 348.489,1230.47 348.501,1230.43 348.512,1230.39 348.524,1230.35 348.536,1230.31 348.548,1230.27 348.559,1230.23 348.571,1230.19 348.583,1230.15 348.595,1230.11 348.607,1230.07 348.618,1230.03 348.63,1229.99 348.642,1229.95 348.654,1229.91 348.665,1229.87 348.677,1229.83 348.689,1229.79 348.701,1229.75 348.712,1229.71 348.724,1229.67 348.736,1229.63 348.748,1229.59 348.759,1229.55 348.771,1229.51 348.783,1229.47 348.795,1229.43 348.807,1229.39 348.818,1229.35 348.83,1229.31 348.842,1229.27 348.854,1229.23 348.865,1229.19 348.877,1229.15 348.889,1229.11 348.901,1229.07 348.912,1229.03 348.924,1228.99 348.936,1228.95 348.948,1228.91 348.96,1228.87 348.971,1228.83 348.983,1228.79 348.995,1228.75 349.007,1228.71 349.018,1228.67 349.03,1228.63 349.042,1228.59 349.054,1228.55 349.065,1228.51 349.077,1228.47 349.089,1228.43 349.101,1228.39 349.112,1228.35 349.124,1228.31 349.136,1228.27 349.148,1228.23 349.16,1228.19 349.171,1228.15 349.183,1228.12 349.195,1228.08 349.207,1228.04 349.218,1228 349.23,1227.96 349.242,1227.92 349.254,1227.88 349.265,1227.84 349.277,1227.8 349.289,1227.76 349.301,1227.72 349.313,1227.68 349.324,1227.64 349.336,1227.6 349.348,1227.56 349.36,1227.52 349.371,1227.48 349.383,1227.44 349.395,1227.4 349.407,1227.36 349.418,1227.32 349.43,1227.28 349.442,1227.24 349.454,1227.2 349.465,1227.16 349.477,1227.12 349.489,1227.08 349.501,1227.04 349.513,1227 349.524,1226.96 349.536,1226.92 349.547,1226.89 349.557,1226.85 349.568,1226.81 349.578,1226.78 349.589,1226.74 349.6,1226.71 349.61,1226.67 349.621,1226.64 349.631,1226.6 349.642,1226.56 349.653,1226.53 349.663,1226.49 349.674,1226.46 349.684,1226.42 349.695,1226.39 349.706,1226.35 349.716,1226.31 349.727,1226.28 349.737,1226.24 349.748,1226.21 349.758,1226.17 349.769,1226.14 349.78,1226.1 349.79,1226.06 349.801,1226.03 349.811,1225.99 349.822,1225.96 349.833,1225.92 349.843,1225.89 349.854,1225.85 349.864,1225.81 349.875,1225.78 349.886,1225.74 349.896,1225.71 349.907,1225.67 349.917,1225.64 349.928,1225.6 349.938,1225.56 349.949,1225.53 349.96,1225.49 349.97,1225.46 349.981,1225.42 349.991,1225.39 350.002,1225.35 350.013,1225.31 350.023,1225.28 350.034,1225.24 350.044,1225.21 350.055,1225.17 350.066,1225.14 350.076,1225.1 350.087,1225.07 350.097,1225.03 350.108,1224.99 350.118,1224.96 350.129,1224.92 350.14,1224.89 350.15,1224.85 350.161,1224.82 350.171,1224.78 350.182,1224.75 350.193,1224.71 350.203,1224.67 350.214,1224.64 350.224,1224.6 350.235,1224.57 350.246,1224.53 350.256,1224.5 350.267,1224.46 350.277,1224.42 350.288,1224.39 350.298,1224.35 350.309,1224.32 350.32,1224.28 350.33,1224.25 350.341,1224.21 350.351,1224.18 350.362,1224.14 350.373,1224.1 350.383,1224.07 350.394,1224.03 350.404,1224 350.415,1223.96 350.426,1223.93 350.436,1223.89 350.447,1223.86 350.457,1223.82 350.468,1223.78 350.478,1223.75 350.489,1223.71 350.5,1223.68 350.51,1223.64 350.521,1223.61 350.531,1223.57 350.542,1223.54 350.553,1223.5 350.563,1223.46 350.574,1223.43 350.584,1223.39 350.595,1223.36 350.606,1223.32 350.616,1223.29 350.627,1223.25 350.637,1223.22 350.648,1223.18 350.658,1223.15 350.669,1223.11 350.68,1223.07 350.69,1223.04 350.701,1223 350.711,1222.97 350.722,1222.93 350.733,1222.9 350.743,1222.86 350.754,1222.83 350.764,1222.79 350.775,1222.76 350.786,1222.72 350.796,1222.68 350.807,1222.65 350.817,1222.61 350.828,1222.58 350.838,1222.54 350.849,1222.51 350.86,1222.47 350.87,1222.44 350.881,1222.4 350.891,1222.37 350.902,1222.33 350.913,1222.29 350.923,1222.26 350.934,1222.22 350.944,1222.19 350.955,1222.15 350.966,1222.12 350.976,1222.08 350.987,1222.05 350.997,1222.01 351.008,1221.98 351.018,1221.94 351.029,1221.9 351.04,1221.87 351.05,1221.83 351.061,1221.8 351.071,1221.76 351.082,1221.73 351.093,1221.69 351.103,1221.66 351.114,1221.62 351.124,1221.59 351.135,1221.55 351.146,1221.52 351.156,1221.48 351.167,1221.45 351.177,1221.41 351.188,1221.37 351.198,1221.34 351.209,1221.3 351.22,1221.27 351.23,1221.23 351.241,1221.2 351.251,1221.16 351.262,1221.13 351.273,1221.09 351.283,1221.06 351.294,1221.02 351.304,1220.99 351.315,1220.95 351.326,1220.91 351.336,1220.88 351.347,1220.84 351.357,1220.81 351.368,1220.77 351.378,1220.74 351.389,1220.7 351.4,1220.67 351.41,1220.63 351.421,1220.6 351.431,1220.56 351.442,1220.53 351.453,1220.49 351.463,1220.46 351.474,1220.42 351.484,1220.39 351.495,1220.35 351.506,1220.31 351.516,1220.28 351.527,1220.24 351.537,1220.21 351.548,1220.17 351.558,1220.14 351.569,1220.1 351.58,1220.07 351.59,1220.03 351.601,1220 351.611,1219.96 351.622,1219.93 351.633,1219.89 351.643,1219.86 351.654,1219.82 351.664,1219.79 351.675,1219.75 351.686,1219.72 351.696,1219.68 351.707,1219.64 351.717,1219.61 351.728,1219.57 351.738,1219.54 351.749,1219.5 351.76,1219.47 351.77,1219.43 351.781,1219.4 351.791,1219.36 351.802,1219.33 351.813,1219.29 351.823,1219.26 351.834,1219.22 351.844,1219.19 351.855,1219.15 351.866,1219.12 351.876,1219.08 351.887,1219.05 351.897,1219.01 351.908,1218.98 351.918,1218.94 351.929,1218.91 351.94,1218.87 351.95,1218.83 351.961,1218.8 351.971,1218.76 351.982,1218.73 351.993,1218.69 352.003,1218.66 352.014,1218.62 352.024,1218.59 352.035,1218.55 352.046,1218.52 352.056,1218.48 352.067,1218.45 352.077,1218.41 352.088,1218.38 352.098,1218.34 352.109,1218.31 352.12,1218.27 352.13,1218.24 352.141,1218.2 352.151,1218.17 352.162,1218.13 352.173,1218.1 352.183,1218.06 352.194,1218.03 352.204,1217.99 352.215,1217.96 352.226,1217.92 352.236,1217.89 352.247,1217.85 352.257,1217.82 352.268,1217.78 352.278,1217.75 352.289,1217.71 352.3,1217.68 352.31,1217.64 352.321,1217.61 352.331,1217.57 352.342,1217.53 352.353,1217.5 352.363,1217.46 352.374,1217.43 352.384,1217.39 352.395,1217.36 352.406,1217.32 352.416,1217.29 352.427,1217.25 352.437,1217.22 352.448,1217.18 352.458,1217.15 352.469,1217.11 352.48,1217.08 352.49,1217.04 352.501,1217.01 352.511,1216.97 352.522,1216.94 352.533,1216.9 352.543,1216.87 352.554,1216.83 352.565,1216.8 352.576,1216.76 352.586,1216.73 352.597,1216.69 352.608,1216.65 352.619,1216.62 352.63,1216.58 352.64,1216.55 352.651,1216.51 352.662,1216.47 352.673,1216.44 352.684,1216.4 352.695,1216.37 352.706,1216.33 352.717,1216.29 352.728,1216.26 352.739,1216.22 352.75,1216.18 352.762,1216.15 352.773,1216.11 352.784,1216.07 352.795,1216.04 352.806,1216 352.818,1215.96 352.829,1215.92 352.84,1215.89 352.852,1215.85 352.863,1215.81 352.874,1215.77 352.886,1215.74 352.897,1215.7 352.909,1215.66 352.92,1215.62 352.932,1215.58 352.943,1215.55 352.955,1215.51 352.967,1215.47 352.978,1215.43 352.99,1215.39 353.002,1215.35 353.013,1215.32 353.025,1215.28 353.037,1215.24 353.049,1215.2 353.061,1215.16 353.073,1215.12 353.084,1215.08 353.096,1215.04 353.108,1215 353.12,1214.96 353.132,1214.92 353.145,1214.88 353.157,1214.84 353.169,1214.8 353.181,1214.76 353.193,1214.72 353.206,1214.68 353.218,1214.64 353.23,1214.6 353.243,1214.56 353.255,1214.52 353.267,1214.48 353.28,1214.44 353.292,1214.4 353.305,1214.35 353.317,1214.31 353.33,1214.27 353.343,1214.23 353.355,1214.19 353.368,1214.15 353.381,1214.1 353.394,1214.06 353.407,1214.02 353.419,1213.98 353.432,1213.93 353.445,1213.89 353.458,1213.85 353.471,1213.81 353.484,1213.76 353.498,1213.72 353.511,1213.68 353.524,1213.63 353.537,1213.59 353.55,1213.55 353.564,1213.5 353.577,1213.46 353.591,1213.41 353.604,1213.37 353.618,1213.33 353.631,1213.28 353.645,1213.24 353.658,1213.19 353.672,1213.15 353.686,1213.1 353.699,1213.06 353.713,1213.01 353.727,1212.97 353.741,1212.92 353.755,1212.87 353.769,1212.83 353.783,1212.78 353.797,1212.74 353.811,1212.69 353.826,1212.64 353.84,1212.6 353.854,1212.55 353.869,1212.5 353.883,1212.46 353.897,1212.41 353.912,1212.36 353.926,1212.31 353.941,1212.26 353.956,1212.22 353.971,1212.17 353.985,1212.12 354,1212.07 354.015,1212.02 354.03,1211.97 354.045,1211.92 354.06,1211.87 354.075,1211.82 354.09,1211.78 354.106,1211.73 354.121,1211.68 354.136,1211.62 354.152,1211.57 354.167,1211.52 354.183,1211.47 354.198,1211.42 354.214,1211.37 354.23,1211.32 354.246,1211.27 354.261,1211.22 354.277,1211.16 354.293,1211.11 354.309,1211.06 354.326,1211.01 354.342,1210.95 354.358,1210.9 354.374,1210.85 354.391,1210.79 354.407,1210.74 354.424,1210.68 354.44,1210.63 354.457,1210.58 354.474,1210.52 354.491,1210.47 354.508,1210.41 354.524,1210.36 354.542,1210.3 354.559,1210.24 354.576,1210.19 354.593,1210.13 354.611,1210.07 354.628,1210.02 354.645,1209.96 354.663,1209.9 354.681,1209.85 354.699,1209.79 354.716,1209.73 354.734,1209.67 354.752,1209.61 354.77,1209.55 354.789,1209.49 354.807,1209.43 354.825,1209.37 354.844,1209.31 354.862,1209.25 354.881,1209.19 354.9,1209.13 354.918,1209.07 354.937,1209.01 354.956,1208.95 354.975,1208.89 354.995,1208.82 355.014,1208.76 355.033,1208.7 355.053,1208.63 355.072,1208.57 355.092,1208.51 355.112,1208.44 355.132,1208.38 355.152,1208.31 355.172,1208.25 355.192,1208.18 355.212,1208.11 355.233,1208.05 355.253,1207.98 355.274,1207.91 355.295,1207.85 355.315,1207.78 355.336,1207.71 355.357,1207.64 355.379,1207.57 355.4,1207.51 355.421,1207.44 355.443,1207.37 355.464,1207.3 355.486,1207.23 355.508,1207.15 355.53,1207.08 355.552,1207.01 355.574,1206.94 355.597,1206.87 355.619,1206.79 355.642,1206.72 355.665,1206.65 355.688,1206.57 355.711,1206.5 355.734,1206.42 355.757,1206.35 355.781,1206.27 355.804,1206.2 355.828,1206.12 355.852,1206.04 355.876,1205.96 355.9,1205.89 355.924,1205.81 355.948,1205.73 355.973,1205.65 355.997,1205.57 356.022,1205.49 356.047,1205.41 356.072,1205.33 356.098,1205.25 356.123,1205.16 356.148,1205.08 356.174,1205 356.2,1204.91 356.226,1204.83 356.252,1204.75 356.278,1204.66 356.305,1204.58 356.332,1204.49 356.358,1204.4 356.385,1204.32 356.412,1204.23 356.44,1204.14 356.467,1204.05 356.495,1203.96 356.522,1203.87 356.55,1203.78 356.578,1203.69 356.607,1203.6 356.635,1203.51 356.664,1203.42 356.692,1203.33 356.721,1203.23 356.75,1203.14 356.78,1203.05 356.809,1202.95 356.839,1202.86 356.869,1202.76 356.899,1202.66 356.929,1202.57 356.959,1202.47 356.989,1202.37 357.02,1202.27 357.051,1202.17 357.082,1202.08 357.113,1201.98 357.145,1201.87 357.176,1201.77 357.208,1201.67 357.24,1201.57 357.272,1201.47 357.304,1201.36 357.337,1201.26 357.369,1201.15 357.402,1201.05 357.435,1200.94 357.468,1200.84 357.502,1200.73 357.535,1200.62 357.569,1200.51 357.603,1200.41 357.637,1200.3 357.671,1200.19 357.706,1200.08 357.74,1199.97 357.775,1199.85 357.81,1199.74 357.846,1199.63 357.881,1199.52 357.916,1199.4 357.952,1199.29 357.988,1199.18 358.024,1199.06 358.061,1198.94 358.097,1198.83 358.134,1198.71 358.17,1198.59 358.207,1198.48 358.245,1198.36 358.282,1198.24 358.32,1198.12 358.357,1198 358.395,1197.88 358.433,1197.76 358.472,1197.64 358.51,1197.51 358.549,1197.39 358.587,1197.27 358.626,1197.14 358.665,1197.02 358.705,1196.89 358.744,1196.77 358.784,1196.64 358.823,1196.52 358.863,1196.39 358.904,1196.26 358.944,1196.14 358.984,1196.01 359.025,1195.88 359.066,1195.75 359.107,1195.62 359.148,1195.49 359.189,1195.36 359.23,1195.23 359.272,1195.1 359.314,1194.96 359.356,1194.83 359.398,1194.7 359.44,1194.56 359.482,1194.43 359.525,1194.3 359.568,1194.16 359.61,1194.03 359.653,1193.89 359.696,1193.75 359.74,1193.62 359.783,1193.48 359.827,1193.34 359.871,1193.21 359.914,1193.07 359.958,1192.93 360.003,1192.79 360.047,1192.65 360.091,1192.51 360.136,1192.37 360.181,1192.23 360.226,1192.09 360.271,1191.95 360.316,1191.8 360.361,1191.66 360.407,1191.52 360.452,1191.38 360.498,1191.23 360.544,1191.09 360.59,1190.94 360.636,1190.8 360.683,1190.65 360.729,1190.51 360.776,1190.36 360.823,1190.22 360.869,1190.07 360.916,1189.92 360.964,1189.77 361.011,1189.63 361.058,1189.48 361.106,1189.33 361.154,1189.18 361.202,1189.03 361.25,1188.88 361.298,1188.73 361.346,1188.58 361.394,1188.43 361.443,1188.28 361.492,1188.12 361.54,1187.97 361.589,1187.82 361.639,1187.67 361.688,1187.51 361.737,1187.36 361.787,1187.21 361.836,1187.05 361.886,1186.9 361.936,1186.74 361.986,1186.59 362.036,1186.43 362.087,1186.27 362.137,1186.12 362.188,1185.96 362.239,1185.8 362.29,1185.64 362.341,1185.48 362.392,1185.33 362.443,1185.17 362.495,1185.01 362.547,1184.85 362.598,1184.69 362.65,1184.53 362.702,1184.36 362.755,1184.2 362.807,1184.04 362.86,1183.88 362.912,1183.72 362.965,1183.55 363.018,1183.39 363.071,1183.23 363.125,1183.06 363.178,1182.9 363.232,1182.73 363.285,1182.56 363.339,1182.4 363.393,1182.23 363.448,1182.07 363.502,1181.9 363.557,1181.73 363.611,1181.56 363.666,1181.39 363.721,1181.22 363.776,1181.05 363.832,1180.88 363.887,1180.71 363.943,1180.54 363.999,1180.37 364.055,1180.2 364.111,1180.03 364.167,1179.86 364.224,1179.68 364.281,1179.51 364.337,1179.33 364.394,1179.16 364.452,1178.99 364.509,1178.81 364.567,1178.63 364.624,1178.46 364.682,1178.28 364.74,1178.1 364.798,1177.93 364.857,1177.75 364.916,1177.57 364.974,1177.39 365.033,1177.21 365.093,1177.03 365.152,1176.85 365.211,1176.67 365.271,1176.49 365.331,1176.3 365.391,1176.12 365.451,1175.94 365.512,1175.75 365.573,1175.57 365.634,1175.38 365.695,1175.2 365.756,1175.01 365.817,1174.83 365.879,1174.64 365.941,1174.45 366.003,1174.27 366.065,1174.08 366.128,1173.89 366.19,1173.7 366.253,1173.51 366.316,1173.32 366.38,1173.13 366.443,1172.93 366.507,1172.74 366.571,1172.55 366.635,1172.36 366.7,1172.16 366.764,1171.97 366.829,1171.77 366.894,1171.58 366.959,1171.38 367.025,1171.18 367.09,1170.98 367.156,1170.79 367.223,1170.59 367.289,1170.39 367.356,1170.19 367.422,1169.99 367.49,1169.79 367.557,1169.58 367.624,1169.38 367.692,1169.18 367.76,1168.98 367.829,1168.77 367.897,1168.57 367.966,1168.36 368.035,1168.15 368.104,1167.95 368.174,1167.74 368.243,1167.53 368.313,1167.32 368.384,1167.11 368.454,1166.9 368.525,1166.69 368.596,1166.48 368.667,1166.27 368.739,1166.06 368.811,1165.84 368.883,1165.63 368.955,1165.41 369.028,1165.2 369.101,1164.98 369.174,1164.76 369.248,1164.55 369.321,1164.33 369.395,1164.11 369.47,1163.89 369.544,1163.67 369.619,1163.45 369.694,1163.22 369.77,1163 369.845,1162.78 369.921,1162.55 369.998,1162.33 370.074,1162.1 370.151,1161.87 370.229,1161.65 370.306,1161.42 370.384,1161.19 370.462,1160.96 370.541,1160.73 370.619,1160.5 370.698,1160.26 370.778,1160.03 370.857,1159.8 370.938,1159.56 371.018,1159.33 371.099,1159.09 371.18,1158.85 371.261,1158.62 371.343,1158.38 371.425,1158.14 371.507,1157.9 371.59,1157.65 371.673,1157.41 371.756,1157.17 371.84,1156.92 371.924,1156.68 372.008,1156.43 372.093,1156.19 372.178,1155.94 372.264,1155.69 372.35,1155.44 372.436,1155.19 372.523,1154.94 372.61,1154.69 372.697,1154.43 372.785,1154.18 372.873,1153.92 372.961,1153.67 373.05,1153.41 373.139,1153.15 373.229,1152.89 373.319,1152.63 373.41,1152.37 373.501,1152.11 373.592,1151.84 373.684,1151.58 373.776,1151.31 373.868,1151.05 373.961,1150.78 374.054,1150.51 374.148,1150.24 374.242,1149.97 374.337,1149.7 374.432,1149.43 374.528,1149.15 374.624,1148.88 374.72,1148.6 374.817,1148.33 374.914,1148.05 375.012,1147.77 375.11,1147.49 375.209,1147.2 375.308,1146.92 375.408,1146.64 375.508,1146.35 375.609,1146.07 375.71,1145.78 375.811,1145.49 375.914,1145.2 376.016,1144.91 376.119,1144.61 376.223,1144.32 376.327,1144.03 376.432,1143.73 376.537,1143.43 376.643,1143.13 376.749,1142.83 376.856,1142.53 376.963,1142.23 377.071,1141.92 377.179,1141.62 377.288,1141.31 377.398,1141 377.508,1140.69 377.619,1140.38 377.73,1140.07 377.842,1139.75 377.955,1139.44 378.068,1139.12 378.181,1138.8 378.296,1138.48 378.411,1138.16 378.526,1137.83 378.642,1137.51 378.759,1137.18 378.877,1136.86 378.995,1136.53 379.114,1136.19 379.233,1135.86 379.353,1135.53 379.474,1135.19 379.596,1134.85 379.718,1134.51 379.841,1134.17 379.965,1133.83 380.089,1133.49 380.214,1133.14 380.34,1132.79 380.467,1132.44 380.594,1132.09 380.722,1131.74 380.851,1131.38 380.981,1131.02 381.111,1130.67 381.243,1130.3 381.375,1129.94 381.508,1129.58 381.641,1129.21 381.776,1128.84 381.912,1128.47 382.048,1128.1 382.185,1127.72 382.323,1127.34 382.462,1126.96 382.602,1126.58 382.743,1126.2 382.885,1125.81 383.028,1125.42 383.172,1125.03 383.317,1124.64 383.462,1124.24 383.609,1123.85 383.757,1123.45 383.906,1123.04 384.056,1122.64 384.207,1122.23 384.359,1121.82 384.512,1121.41 384.667,1120.99 384.822,1120.57 384.979,1120.15 385.137,1119.73 385.296,1119.3 385.456,1118.87 385.618,1118.44 385.781,1118 385.945,1117.56 386.11,1117.12 386.277,1116.67 386.445,1116.23 386.615,1115.77 386.786,1115.32 386.959,1114.86 387.133,1114.4 387.308,1113.93 387.486,1113.46 387.664,1112.99 387.845,1112.52 388.027,1112.04 388.21,1111.55 388.396,1111.06 388.583,1110.57 388.772,1110.07 388.963,1109.57 389.156,1109.07 389.351,1108.56 389.548,1108.04 389.747,1107.52 389.948,1107 390.151,1106.47 390.357,1105.93 390.564,1105.39 390.775,1104.84 390.988,1104.29 391.203,1103.73 391.421,1103.17 391.642,1102.6 391.866,1102.02 392.093,1101.44 392.322,1100.85 392.556,1100.25 392.792,1099.64 393.032,1099.02 393.276,1098.4 393.524,1097.77 393.775,1097.13 394.031,1096.47 394.292,1095.81 394.558,1095.13 394.829,1094.45 395.105,1093.75 395.388,1093.03 395.677,1092.3 395.973,1091.56 396.278,1090.79 396.591,1090.01 396.914,1089.2 397.249,1088.36 397.597,1087.49 397.962,1086.58 398.349,1085.62 398.765,1084.59 399.23,1083.44 399.847,1081.91 400.348,1080.68 400.849,1079.45 401.35,1078.23 401.852,1077.01 402.353,1075.79 402.854,1074.57 403.356,1073.36 403.857,1072.15 404.358,1070.95 404.808,1069.87 405.258,1068.8 405.708,1067.72 406.157,1066.65 406.607,1065.59 407.057,1064.52 407.507,1063.46 407.957,1062.4 408.407,1061.34 408.857,1060.29 409.306,1059.24 409.756,1058.19 410.206,1057.14 410.656,1056.1 411.106,1055.06 411.556,1054.02 412.005,1052.98 412.455,1051.95 412.905,1050.92 413.355,1049.89 413.805,1048.86 414.255,1047.84 414.704,1046.82 415.154,1045.8 415.604,1044.78 416.054,1043.77 416.504,1042.76 416.954,1041.75 417.403,1040.74 417.853,1039.74 418.303,1038.74 418.753,1037.74 419.203,1036.74 419.653,1035.75 420.102,1034.75 420.552,1033.77 421.002,1032.78 421.452,1031.79 421.902,1030.81 422.352,1029.83 422.801,1028.85 423.251,1027.87 423.701,1026.9 424.151,1025.93 424.601,1024.96 425.051,1023.99 425.501,1023.03 425.95,1022.07 426.4,1021.11 426.85,1020.15 427.3,1019.19 427.75,1018.24 428.2,1017.29 428.649,1016.34 429.099,1015.39 429.549,1014.45 429.999,1013.5 430.449,1012.56 430.899,1011.62 431.348,1010.69 431.798,1009.75 432.248,1008.82 432.698,1007.89 433.148,1006.96 433.598,1006.04 434.047,1005.11 434.497,1004.19 434.947,1003.27 435.397,1002.35 435.847,1001.44 436.297,1000.52 436.746,999.613 437.196,998.704 437.646,997.796 438.096,996.89 438.548,995.983 439,995.076 439.454,994.168 439.911,993.257 440.369,992.345 440.829,991.43 441.292,990.513 441.758,989.592 442.226,988.669 442.696,987.742 443.17,986.811 443.647,985.877 444.126,984.939 444.609,983.997 445.095,983.052 445.584,982.102 446.076,981.148 446.572,980.19 447.071,979.228 447.573,978.261 448.079,977.29 448.589,976.315 449.102,975.334 449.619,974.349 450.139,973.36 450.664,972.365 451.192,971.366 451.724,970.362 452.261,969.352 452.801,968.337 453.345,967.318 453.894,966.292 454.447,965.262 455.005,964.225 455.567,963.184 456.133,962.136 456.704,961.083 457.28,960.023 457.86,958.958 458.446,957.886 459.036,956.809 459.632,955.724 460.233,954.634 460.839,953.536 461.45,952.432 462.067,951.321 462.69,950.203 463.318,949.078 463.952,947.945 464.592,946.805 465.238,945.658 465.891,944.502 466.55,943.338 467.215,942.167 467.888,940.987 468.567,939.798 469.253,938.6 469.946,937.394 470.647,936.178 471.356,934.953 472.072,933.718 472.796,932.473 473.529,931.218 474.27,929.952 475.02,928.675 475.778,927.387 476.546,926.088 477.324,924.776 478.112,923.452 478.909,922.116 479.718,920.766 480.537,919.402 481.368,918.025 482.21,916.632 483.065,915.224 483.933,913.8 484.814,912.36 485.709,910.902 486.619,909.425 487.544,907.929 488.485,906.413 489.443,904.875 490.419,903.314 491.414,901.729 492.43,900.118 493.468,898.479 494.529,896.81 495.615,895.108 496.729,893.37 497.874,891.593 499.052,889.771 500.268,887.9 501.527,885.972 502.837,883.976 504.208,881.898 505.654,879.717 507.203,877.394 508.911,874.849 510.991,871.772 513.07,868.719 515.15,865.689 517.229,862.682 519.309,859.698 521.388,856.736 523.468,853.797 525.326,851.188 527.185,848.596 529.043,846.022 530.902,843.464 532.76,840.922 534.619,838.397 536.477,835.888 538.336,833.395 540.194,830.918 542.053,828.456 543.911,826.009 545.77,823.578 547.628,821.162 549.487,818.76 551.345,816.374 553.204,814.001 555.062,811.643 556.921,809.299 558.779,806.969 560.638,804.653 562.496,802.35 564.355,800.061 566.213,797.785 568.072,795.523 569.93,793.273 571.789,791.037 573.647,788.813 575.506,786.602 577.364,784.403 579.223,782.217 581.081,780.042 582.94,777.88 584.798,775.73 586.657,773.592 588.515,771.465 590.374,769.35 592.232,767.246 594.091,765.154 595.949,763.073 597.808,761.002 599.666,758.943 601.525,756.895 603.383,754.858 605.242,752.831 607.1,750.815 608.959,748.809 610.817,746.813 612.676,744.828 614.534,742.852 616.393,740.887 618.251,738.932 620.11,736.986 621.968,735.051 623.827,733.125 625.685,731.208 627.544,729.301 629.402,727.403 631.261,725.514 633.119,723.635 634.978,721.765 636.836,719.904 638.695,718.051 640.553,716.208 642.412,714.373 644.27,712.547 646.129,710.729 647.987,708.92 649.846,707.12 651.704,705.328 653.563,703.544 655.421,701.768 657.28,700 659.138,698.241 660.996,696.489 662.855,694.746 664.713,693.01 666.572,691.282 668.43,689.562 670.289,687.849 672.147,686.144 674.006,684.446 675.865,682.756 677.726,681.07 679.592,679.389 681.462,677.71 683.338,676.033 685.221,674.358 687.111,672.684 689.008,671.01 690.914,669.337 692.828,667.663 694.75,665.99 696.681,664.316 698.622,662.641 700.571,660.966 702.53,659.29 704.498,657.613 706.476,655.935 708.464,654.257 710.461,652.577 712.469,650.897 714.486,649.216 716.513,647.533 718.551,645.85 720.598,644.166 722.657,642.48 724.725,640.793 726.804,639.106 728.893,637.417 730.993,635.727 733.103,634.036 735.225,632.344 737.357,630.651 739.499,628.957 741.653,627.262 743.818,625.565 745.993,623.868 748.18,622.169 750.378,620.469 752.587,618.768 754.808,617.066 757.04,615.363 759.283,613.659 761.538,611.953 763.804,610.247 766.082,608.539 768.372,606.83 770.673,605.12 772.986,603.409 775.312,601.697 777.649,599.983 779.998,598.269 782.359,596.553 784.733,594.836 787.118,593.118 789.516,591.399 791.927,589.679 794.349,587.958 796.785,586.235 799.233,584.512 801.693,582.787 804.167,581.061 806.653,579.334 809.152,577.606 811.664,575.877 814.189,574.146 816.727,572.415 819.278,570.682 821.842,568.949 824.42,567.214 827.011,565.478 829.616,563.741 832.234,562.003 834.866,560.264 837.511,558.523 840.17,556.782 842.843,555.04 845.53,553.296 848.231,551.551 850.946,549.806 853.675,548.059 856.418,546.311 859.176,544.562 861.948,542.812 864.734,541.06 867.535,539.308 870.35,537.555 873.18,535.801 876.025,534.045 878.885,532.289 881.76,530.531 884.649,528.773 887.554,527.013 890.474,525.252 893.409,523.491 896.358,521.729 899.323,519.965 902.303,518.202 905.296,516.438 908.304,514.674 911.324,512.911 914.355,511.149 917.394,509.392 920.437,507.639 923.48,505.895 926.524,504.159 929.567,502.43 932.61,500.71 935.653,498.997 938.696,497.292 941.74,495.594 944.783,493.904 947.826,492.222 950.518,490.739 953.211,489.262 955.587,487.964 957.963,486.67 960.078,485.522 962.193,484.377 964.307,483.236 966.151,482.244 967.994,481.255 969.837,480.268 971.463,479.4 973.089,478.534 974.715,477.669 976.341,476.807 977.778,476.046 979.215,475.287 980.652,474.53 982.089,473.774 983.525,473.019 984.962,472.266 986.253,471.591 987.544,470.917 988.834,470.245 990.125,469.573 991.416,468.903 992.706,468.234 993.997,467.566 995.288,466.899 996.62,466.212 998.157,465.42 999.694,464.631 1000.93,463.999 1002.16,463.367 1003.24,462.817 1004.31,462.268 1005.39,461.72 1006.34,461.235 1007.29,460.751 1008.25,460.268 1009.2,459.785 1010.15,459.302 1011.1,458.821 1012.06,458.34 1013.01,457.859 1013.96,457.379 1014.91,456.9 1015.87,456.421 1016.82,455.943 1017.77,455.466 1018.73,454.989 1019.68,454.513 1020.65,454.027 1021.68,453.513 1022.89,452.91 1024.1,452.308 1025.31,451.707 1026.39,451.174 1027.46,450.642 1028.54,450.11 1029.61,449.58 1030.57,449.107 1031.53,448.635 1032.49,448.164 1033.45,447.693 1034.41,447.223 1035.37,446.753 1036.33,446.284 1037.28,445.816 1038.24,445.348 1039.2,444.881 1040.16,444.414 1041.12,443.948 1042.08,443.482 1043.04,443.017 1043.99,442.553 1044.95,442.089 1045.91,441.626 1046.87,441.163 1047.83,440.701 1048.79,440.239 1049.75,439.778 1050.71,439.317 1051.66,438.857 1052.62,438.398 1053.59,437.936 1054.56,437.471 1055.55,437.001 1056.54,436.525 1057.56,436.042 1058.59,435.552 1059.64,435.054 1060.71,434.546 1061.8,434.028 1062.92,433.5 1064.06,432.96 1065.23,432.408 1066.43,431.842 1067.66,431.262 1068.93,430.668 1070.23,430.057 1071.57,429.429 1072.96,428.782 1074.39,428.115 1075.87,427.426 1077.4,426.713 1078.99,425.975 1080.65,425.207 1082.38,424.407 1084.2,423.57 1086.11,422.69 1088.14,421.759 1090.31,420.764 1092.68,419.683 1095.35,418.466 1098.93,416.845 1101.8,415.548 1104.82,414.187 1107.85,412.83 1110.87,411.479 1113.9,410.132 1116.92,408.791 1119.94,407.453 1122.97,406.121 1125.99,404.793 1129.01,403.47 1132.04,402.152 1135.06,400.838 1138.08,399.528 1141.11,398.224 1144.13,396.923 1147.16,395.627 1150.18,394.336 1153.2,393.049 1156.23,391.766 1159.25,390.487 1162.27,389.213 1165.3,387.943 1168.32,386.678 1171.35,385.416 1174.37,384.159 1177.39,382.906 1180.42,381.657 1183.44,380.412 1186.46,379.172 1189.49,377.932 1192.53,376.693 1195.59,375.452 1198.66,374.209 1201.75,372.963 1204.85,371.712 1207.98,370.458 1211.13,369.198 1214.31,367.933 1217.51,366.662 1220.74,365.386 1223.99,364.103 1227.27,362.813 1230.58,361.518 1233.92,360.215 1237.28,358.906 1240.68,357.591 1244.1,356.269 1247.55,354.941 1251.03,353.607 1254.53,352.268 1258.06,350.924 1261.62,349.574 1265.19,348.221 1268.79,346.865 1272.42,345.506 1276.06,344.145 1279.71,342.781 1283.39,341.416 1287.08,340.049 1290.8,338.679 1294.54,337.306 1298.3,335.929 1302.1,334.544 1305.94,333.15 1309.82,331.744 1313.77,330.322 1317.78,328.879 1321.88,327.412 1326.09,325.914 1330.41,324.38 1334.87,322.802 1339.5,321.174 1344.31,319.489 1349.32,317.74 1354.55,315.923 1360.01,314.038 1365.68,312.087 1371.56,310.08 1377.59,308.027 1383.76,305.941 1390.04,303.831 1396.4,301.705 1402.83,299.566 1409.33,297.416 1415.91,295.256 1422.56,293.082 1429.31,290.891 1436.16,288.68 1443.13,286.442 1450.24,284.172 1457.53,281.862 1465.02,279.501 1472.77,277.077 1480.82,274.573 1489.27,271.963 1498.26,269.206 1508.08,266.219 1519.56,262.758 1531.89,259.077 1544.22,255.432 1556.54,251.824 1568.87,248.251 1579.9,245.083 1590.93,241.944 1601.96,238.831 1612.99,235.745 1624.02,232.685 1635.04,229.65 1646.07,226.642 1656,223.956 1665.92,221.29 1675.85,218.644 1685.77,216.017 1695.7,213.41 1705.62,210.822 1715.55,208.253 1725.47,205.703 1735.4,203.171 1745.32,200.657 1755.25,198.162 1765.17,195.684 1775.1,193.225 1785.02,190.783 1794.95,188.358 1804.87,185.95 1814.8,183.56 1824.72,181.186 1834.65,178.829 1844.57,176.488 1854.5,174.164 1864.42,171.856 1874.35,169.565 1884.27,167.289 1894.2,165.029 1904.12,162.785 1914.05,160.556 1923.97,158.343 1933.9,156.145 1943.82,153.963 1953.75,151.795 1963.67,149.643 1973.6,147.505 1983.52,145.382 1993.45,143.274 2003.37,141.181 2013.3,139.102 2023.23,137.037 2033.15,134.987 2043.08,132.952 2053,130.93 2062.93,128.922 2072.85,126.929 2082.78,124.949 2092.7,122.984 2102.63,121.032 2112.55,119.094 2122.48,117.17 2132.4,115.26 2142.33,113.363 2152.25,111.48 2162.18,109.611 2172.1,107.755 2182.03,105.912 2191.95,104.083 2200.84,102.457 2209.73,100.841 2218.62,99.236 2227.51,97.6417 2236.4,96.0581 2245.28,94.4853 2254.17,92.9231 2263.06,91.3717 2271.95,89.8309 2280.84,88.3009 2289.73,86.7815 2293.23,86.1857 "/>
<path clip-path="url(#clip080)" d="M319.649 196.789 L582.401 196.789 L582.401 93.1086 L319.649 93.1086  Z" fill="#ffffff" fill-rule="evenodd" fill-opacity="1"/>
<polyline clip-path="url(#clip080)" style="stroke:#000000; stroke-linecap:round; stroke-linejoin:round; stroke-width:4; stroke-opacity:1; fill:none" points="319.649,196.789 582.401,196.789 582.401,93.1086 319.649,93.1086 319.649,196.789 "/>
<polyline clip-path="url(#clip080)" style="stroke:#009af9; stroke-linecap:round; stroke-linejoin:round; stroke-width:4; stroke-opacity:1; fill:none" points="343.018,144.949 483.232,144.949 "/>
<path clip-path="url(#clip080)" d="M520.444 164.636 Q518.638 169.266 516.926 170.678 Q515.213 172.09 512.342 172.09 L508.939 172.09 L508.939 168.525 L511.439 168.525 Q513.199 168.525 514.171 167.692 Q515.143 166.858 516.324 163.756 L517.088 161.812 L506.602 136.303 L511.115 136.303 L519.217 156.581 L527.319 136.303 L531.833 136.303 L520.444 164.636 Z" fill="#000000" fill-rule="nonzero" fill-opacity="1" /><path clip-path="url(#clip080)" d="M539.124 158.293 L546.763 158.293 L546.763 131.928 L538.453 133.595 L538.453 129.335 L546.717 127.669 L551.393 127.669 L551.393 158.293 L559.032 158.293 L559.032 162.229 L539.124 162.229 L539.124 158.293 Z" fill="#000000" fill-rule="nonzero" fill-opacity="1" /></svg>
