<?xml version="1.0" encoding="utf-8"?>
<svg xmlns="http://www.w3.org/2000/svg" xmlns:xlink="http://www.w3.org/1999/xlink" width="600" height="400" viewBox="0 0 2400 1600">
<defs>
  <clipPath id="clip360">
    <rect x="0" y="0" width="2400" height="1600"/>
  </clipPath>
</defs>
<path clip-path="url(#clip360)" d="M0 1600 L2400 1600 L2400 0 L0 0  Z" fill="#ffffff" fill-rule="evenodd" fill-opacity="1"/>
<defs>
  <clipPath id="clip361">
    <rect x="471" y="123" width="1380" height="1225"/>
  </clipPath>
</defs>
<path clip-path="url(#clip360)" d="M471.845 1347.9 L1850.67 1347.9 L1850.67 123.472 L471.845 123.472  Z" fill="#ffffff" fill-rule="evenodd" fill-opacity="1"/>
<polyline clip-path="url(#clip361)" style="stroke:#000000; stroke-linecap:round; stroke-linejoin:round; stroke-width:2; stroke-opacity:0.1; fill:none" points="710.122,1347.9 710.122,123.472 "/>
<polyline clip-path="url(#clip361)" style="stroke:#000000; stroke-linecap:round; stroke-linejoin:round; stroke-width:2; stroke-opacity:0.1; fill:none" points="1376.89,1347.9 1376.89,123.472 "/>
<polyline clip-path="url(#clip361)" style="stroke:#000000; stroke-linecap:round; stroke-linejoin:round; stroke-width:2; stroke-opacity:0.1; fill:none" points="471.845,984.975 1850.67,984.975 "/>
<polyline clip-path="url(#clip361)" style="stroke:#000000; stroke-linecap:round; stroke-linejoin:round; stroke-width:2; stroke-opacity:0.1; fill:none" points="471.845,246.748 1850.67,246.748 "/>
<polyline clip-path="url(#clip360)" style="stroke:#000000; stroke-linecap:round; stroke-linejoin:round; stroke-width:4; stroke-opacity:1; fill:none" points="471.845,1347.9 1850.67,1347.9 "/>
<polyline clip-path="url(#clip360)" style="stroke:#000000; stroke-linecap:round; stroke-linejoin:round; stroke-width:4; stroke-opacity:1; fill:none" points="710.122,1347.9 710.122,1329.01 "/>
<polyline clip-path="url(#clip360)" style="stroke:#000000; stroke-linecap:round; stroke-linejoin:round; stroke-width:4; stroke-opacity:1; fill:none" points="1376.89,1347.9 1376.89,1329.01 "/>
<path clip-path="url(#clip360)" d="M659.673 1422.03 L667.312 1422.03 L667.312 1395.66 L659.002 1397.33 L659.002 1393.07 L667.265 1391.4 L671.941 1391.4 L671.941 1422.03 L679.58 1422.03 L679.58 1425.96 L659.673 1425.96 L659.673 1422.03 Z" fill="#000000" fill-rule="nonzero" fill-opacity="1" /><path clip-path="url(#clip360)" d="M699.025 1394.48 Q695.413 1394.48 693.585 1398.05 Q691.779 1401.59 691.779 1408.72 Q691.779 1415.83 693.585 1419.39 Q695.413 1422.93 699.025 1422.93 Q702.659 1422.93 704.464 1419.39 Q706.293 1415.83 706.293 1408.72 Q706.293 1401.59 704.464 1398.05 Q702.659 1394.48 699.025 1394.48 M699.025 1390.78 Q704.835 1390.78 707.89 1395.39 Q710.969 1399.97 710.969 1408.72 Q710.969 1417.45 707.89 1422.05 Q704.835 1426.64 699.025 1426.64 Q693.214 1426.64 690.136 1422.05 Q687.08 1417.45 687.08 1408.72 Q687.08 1399.97 690.136 1395.39 Q693.214 1390.78 699.025 1390.78 Z" fill="#000000" fill-rule="nonzero" fill-opacity="1" /><path clip-path="url(#clip360)" d="M710.969 1384.88 L735.081 1384.88 L735.081 1388.08 L710.969 1388.08 L710.969 1384.88 Z" fill="#000000" fill-rule="nonzero" fill-opacity="1" /><path clip-path="url(#clip360)" d="M751.876 1383 Q749.318 1383 747.813 1384.75 Q746.328 1386.5 746.328 1389.55 Q746.328 1392.57 747.813 1394.34 Q749.318 1396.09 751.876 1396.09 Q754.434 1396.09 755.92 1394.34 Q757.424 1392.57 757.424 1389.55 Q757.424 1386.5 755.92 1384.75 Q754.434 1383 751.876 1383 M759.418 1371.09 L759.418 1374.56 Q757.988 1373.88 756.521 1373.52 Q755.073 1373.16 753.644 1373.16 Q749.882 1373.16 747.889 1375.7 Q745.914 1378.24 745.632 1383.38 Q746.741 1381.74 748.415 1380.87 Q750.089 1379.99 752.102 1379.99 Q756.333 1379.99 758.778 1382.57 Q761.242 1385.13 761.242 1389.55 Q761.242 1393.87 758.684 1396.49 Q756.126 1399.1 751.876 1399.1 Q747.005 1399.1 744.428 1395.38 Q741.851 1391.63 741.851 1384.54 Q741.851 1377.88 745.011 1373.93 Q748.171 1369.97 753.493 1369.97 Q754.923 1369.97 756.371 1370.25 Q757.838 1370.53 759.418 1371.09 Z" fill="#000000" fill-rule="nonzero" fill-opacity="1" /><path clip-path="url(#clip360)" d="M1326.78 1422.03 L1334.41 1422.03 L1334.41 1395.66 L1326.1 1397.33 L1326.1 1393.07 L1334.37 1391.4 L1339.04 1391.4 L1339.04 1422.03 L1346.68 1422.03 L1346.68 1425.96 L1326.78 1425.96 L1326.78 1422.03 Z" fill="#000000" fill-rule="nonzero" fill-opacity="1" /><path clip-path="url(#clip360)" d="M1366.13 1394.48 Q1362.52 1394.48 1360.69 1398.05 Q1358.88 1401.59 1358.88 1408.72 Q1358.88 1415.83 1360.69 1419.39 Q1362.52 1422.93 1366.13 1422.93 Q1369.76 1422.93 1371.57 1419.39 Q1373.4 1415.83 1373.4 1408.72 Q1373.4 1401.59 1371.57 1398.05 Q1369.76 1394.48 1366.13 1394.48 M1366.13 1390.78 Q1371.94 1390.78 1374.99 1395.39 Q1378.07 1399.97 1378.07 1408.72 Q1378.07 1417.45 1374.99 1422.05 Q1371.94 1426.64 1366.13 1426.64 Q1360.32 1426.64 1357.24 1422.05 Q1354.18 1417.45 1354.18 1408.72 Q1354.18 1399.97 1357.24 1395.39 Q1360.32 1390.78 1366.13 1390.78 Z" fill="#000000" fill-rule="nonzero" fill-opacity="1" /><path clip-path="url(#clip360)" d="M1378.07 1384.88 L1402.18 1384.88 L1402.18 1388.08 L1378.07 1388.08 L1378.07 1384.88 Z" fill="#000000" fill-rule="nonzero" fill-opacity="1" /><path clip-path="url(#clip360)" d="M1421.89 1383.41 Q1424.62 1384 1426.14 1385.84 Q1427.69 1387.68 1427.69 1390.39 Q1427.69 1394.55 1424.83 1396.82 Q1421.97 1399.1 1416.7 1399.1 Q1414.93 1399.1 1413.05 1398.74 Q1411.19 1398.4 1409.2 1397.71 L1409.2 1394.04 Q1410.78 1394.96 1412.66 1395.43 Q1414.54 1395.9 1416.59 1395.9 Q1420.16 1395.9 1422.02 1394.49 Q1423.91 1393.08 1423.91 1390.39 Q1423.91 1387.91 1422.16 1386.52 Q1420.43 1385.11 1417.32 1385.11 L1414.05 1385.11 L1414.05 1381.98 L1417.47 1381.98 Q1420.28 1381.98 1421.76 1380.87 Q1423.25 1379.75 1423.25 1377.64 Q1423.25 1375.48 1421.71 1374.33 Q1420.18 1373.16 1417.32 1373.16 Q1415.76 1373.16 1413.98 1373.5 Q1412.19 1373.84 1410.04 1374.56 L1410.04 1371.17 Q1412.21 1370.57 1414.09 1370.27 Q1415.99 1369.97 1417.66 1369.97 Q1421.99 1369.97 1424.51 1371.94 Q1427.03 1373.9 1427.03 1377.24 Q1427.03 1379.58 1425.69 1381.19 Q1424.36 1382.79 1421.89 1383.41 Z" fill="#000000" fill-rule="nonzero" fill-opacity="1" /><path clip-path="url(#clip360)" d="M1022.23 1463.67 L1052.28 1463.67 L1052.28 1469.08 L1028.66 1469.08 L1028.66 1483.15 L1051.29 1483.15 L1051.29 1488.56 L1028.66 1488.56 L1028.66 1505.78 L1052.85 1505.78 L1052.85 1511.19 L1022.23 1511.19 L1022.23 1463.67 Z" fill="#000000" fill-rule="nonzero" fill-opacity="1" /><path clip-path="url(#clip360)" d="M1083.82 1481.02 Q1082.83 1480.45 1081.66 1480.19 Q1080.51 1479.91 1079.11 1479.91 Q1074.14 1479.91 1071.47 1483.15 Q1068.83 1486.37 1068.83 1492.41 L1068.83 1511.19 L1062.94 1511.19 L1062.94 1475.55 L1068.83 1475.55 L1068.83 1481.08 Q1070.67 1477.84 1073.63 1476.28 Q1076.59 1474.69 1080.83 1474.69 Q1081.43 1474.69 1082.16 1474.78 Q1082.9 1474.85 1083.79 1475 L1083.82 1481.02 Z" fill="#000000" fill-rule="nonzero" fill-opacity="1" /><path clip-path="url(#clip360)" d="M1109.47 1481.02 Q1108.49 1480.45 1107.31 1480.19 Q1106.16 1479.91 1104.76 1479.91 Q1099.8 1479.91 1097.12 1483.15 Q1094.48 1486.37 1094.48 1492.41 L1094.48 1511.19 L1088.59 1511.19 L1088.59 1475.55 L1094.48 1475.55 L1094.48 1481.08 Q1096.33 1477.84 1099.29 1476.28 Q1102.25 1474.69 1106.48 1474.69 Q1107.09 1474.69 1107.82 1474.78 Q1108.55 1474.85 1109.44 1475 L1109.47 1481.02 Z" fill="#000000" fill-rule="nonzero" fill-opacity="1" /><path clip-path="url(#clip360)" d="M1128 1479.65 Q1123.29 1479.65 1120.55 1483.34 Q1117.81 1487 1117.81 1493.4 Q1117.81 1499.8 1120.52 1503.49 Q1123.26 1507.15 1128 1507.15 Q1132.68 1507.15 1135.41 1503.46 Q1138.15 1499.77 1138.15 1493.4 Q1138.15 1487.07 1135.41 1483.38 Q1132.68 1479.65 1128 1479.65 M1128 1474.69 Q1135.64 1474.69 1140 1479.65 Q1144.36 1484.62 1144.36 1493.4 Q1144.36 1502.15 1140 1507.15 Q1135.64 1512.12 1128 1512.12 Q1120.33 1512.12 1115.97 1507.15 Q1111.64 1502.15 1111.64 1493.4 Q1111.64 1484.62 1115.97 1479.65 Q1120.33 1474.69 1128 1474.69 Z" fill="#000000" fill-rule="nonzero" fill-opacity="1" /><path clip-path="url(#clip360)" d="M1174.72 1481.02 Q1173.74 1480.45 1172.56 1480.19 Q1171.41 1479.91 1170.01 1479.91 Q1165.05 1479.91 1162.37 1483.15 Q1159.73 1486.37 1159.73 1492.41 L1159.73 1511.19 L1153.84 1511.19 L1153.84 1475.55 L1159.73 1475.55 L1159.73 1481.08 Q1161.58 1477.84 1164.54 1476.28 Q1167.5 1474.69 1171.73 1474.69 Q1172.34 1474.69 1173.07 1474.78 Q1173.8 1474.85 1174.69 1475 L1174.72 1481.02 Z" fill="#000000" fill-rule="nonzero" fill-opacity="1" /><path clip-path="url(#clip360)" d="M1215.65 1461.73 Q1211.39 1469.05 1209.32 1476.21 Q1207.25 1483.38 1207.25 1490.73 Q1207.25 1498.08 1209.32 1505.31 Q1211.42 1512.5 1215.65 1519.79 L1210.56 1519.79 Q1205.79 1512.31 1203.4 1505.08 Q1201.04 1497.86 1201.04 1490.73 Q1201.04 1483.63 1203.4 1476.44 Q1205.75 1469.24 1210.56 1461.73 L1215.65 1461.73 Z" fill="#000000" fill-rule="nonzero" fill-opacity="1" /><path clip-path="url(#clip360)" d="M1227.02 1461.67 L1232.87 1461.67 L1232.87 1511.19 L1227.02 1511.19 L1227.02 1461.67 Z" fill="#000000" fill-rule="nonzero" fill-opacity="1" /><path clip-path="url(#clip360)" d="M1251.49 1505.78 L1273.93 1505.78 L1273.93 1511.19 L1243.76 1511.19 L1243.76 1505.78 Q1247.42 1501.99 1253.72 1495.63 Q1260.05 1489.23 1261.68 1487.39 Q1264.77 1483.92 1265.97 1481.53 Q1267.22 1479.11 1267.22 1476.79 Q1267.22 1473 1264.54 1470.61 Q1261.9 1468.22 1257.64 1468.22 Q1254.61 1468.22 1251.24 1469.28 Q1247.9 1470.33 1244.08 1472.46 L1244.08 1465.96 Q1247.96 1464.41 1251.33 1463.61 Q1254.71 1462.81 1257.51 1462.81 Q1264.89 1462.81 1269.28 1466.51 Q1273.68 1470.2 1273.68 1476.37 Q1273.68 1479.3 1272.56 1481.94 Q1271.48 1484.55 1268.58 1488.12 Q1267.79 1489.04 1263.52 1493.46 Q1259.26 1497.86 1251.49 1505.78 Z" fill="#000000" fill-rule="nonzero" fill-opacity="1" /><path clip-path="url(#clip360)" d="M1285.68 1461.73 L1290.77 1461.73 Q1295.54 1469.24 1297.9 1476.44 Q1300.29 1483.63 1300.29 1490.73 Q1300.29 1497.86 1297.9 1505.08 Q1295.54 1512.31 1290.77 1519.79 L1285.68 1519.79 Q1289.91 1512.5 1291.98 1505.31 Q1294.08 1498.08 1294.08 1490.73 Q1294.08 1483.38 1291.98 1476.21 Q1289.91 1469.05 1285.68 1461.73 Z" fill="#000000" fill-rule="nonzero" fill-opacity="1" /><polyline clip-path="url(#clip360)" style="stroke:#000000; stroke-linecap:round; stroke-linejoin:round; stroke-width:4; stroke-opacity:1; fill:none" points="471.845,1347.9 471.845,123.472 "/>
<polyline clip-path="url(#clip360)" style="stroke:#000000; stroke-linecap:round; stroke-linejoin:round; stroke-width:4; stroke-opacity:1; fill:none" points="471.845,984.975 485.698,984.975 "/>
<polyline clip-path="url(#clip360)" style="stroke:#000000; stroke-linecap:round; stroke-linejoin:round; stroke-width:4; stroke-opacity:1; fill:none" points="471.845,246.748 485.698,246.748 "/>
<path clip-path="url(#clip360)" d="M335.705 1004.77 L343.344 1004.77 L343.344 978.402 L335.034 980.069 L335.034 975.81 L343.297 974.143 L347.973 974.143 L347.973 1004.77 L355.612 1004.77 L355.612 1008.7 L335.705 1008.7 L335.705 1004.77 Z" fill="#000000" fill-rule="nonzero" fill-opacity="1" /><path clip-path="url(#clip360)" d="M375.056 977.222 Q371.445 977.222 369.617 980.786 Q367.811 984.328 367.811 991.458 Q367.811 998.564 369.617 1002.13 Q371.445 1005.67 375.056 1005.67 Q378.691 1005.67 380.496 1002.13 Q382.325 998.564 382.325 991.458 Q382.325 984.328 380.496 980.786 Q378.691 977.222 375.056 977.222 M375.056 973.518 Q380.867 973.518 383.922 978.124 Q387.001 982.708 387.001 991.458 Q387.001 1000.18 383.922 1004.79 Q380.867 1009.37 375.056 1009.37 Q369.246 1009.37 366.168 1004.79 Q363.112 1000.18 363.112 991.458 Q363.112 982.708 366.168 978.124 Q369.246 973.518 375.056 973.518 Z" fill="#000000" fill-rule="nonzero" fill-opacity="1" /><path clip-path="url(#clip360)" d="M387.001 967.619 L411.112 967.619 L411.112 970.817 L387.001 970.817 L387.001 967.619 Z" fill="#000000" fill-rule="nonzero" fill-opacity="1" /><path clip-path="url(#clip360)" d="M422.585 978.095 L435.845 978.095 L435.845 981.292 L418.015 981.292 L418.015 978.095 Q420.178 975.857 423.902 972.095 Q427.644 968.315 428.604 967.224 Q430.428 965.174 431.143 963.764 Q431.876 962.334 431.876 960.961 Q431.876 958.723 430.296 957.313 Q428.735 955.902 426.215 955.902 Q424.428 955.902 422.435 956.523 Q420.46 957.143 418.203 958.403 L418.203 954.567 Q420.497 953.645 422.491 953.175 Q424.485 952.705 426.14 952.705 Q430.503 952.705 433.099 954.886 Q435.694 957.068 435.694 960.717 Q435.694 962.447 435.036 964.008 Q434.396 965.55 432.685 967.657 Q432.215 968.202 429.694 970.817 Q427.174 973.412 422.585 978.095 Z" fill="#000000" fill-rule="nonzero" fill-opacity="1" /><path clip-path="url(#clip360)" d="M335.404 266.541 L343.043 266.541 L343.043 240.175 L334.733 241.842 L334.733 237.583 L342.996 235.916 L347.672 235.916 L347.672 266.541 L355.311 266.541 L355.311 270.476 L335.404 270.476 L335.404 266.541 Z" fill="#000000" fill-rule="nonzero" fill-opacity="1" /><path clip-path="url(#clip360)" d="M374.756 238.995 Q371.144 238.995 369.316 242.559 Q367.51 246.101 367.51 253.231 Q367.51 260.337 369.316 263.902 Q371.144 267.444 374.756 267.444 Q378.39 267.444 380.195 263.902 Q382.024 260.337 382.024 253.231 Q382.024 246.101 380.195 242.559 Q378.39 238.995 374.756 238.995 M374.756 235.291 Q380.566 235.291 383.621 239.897 Q386.7 244.481 386.7 253.231 Q386.7 261.957 383.621 266.564 Q380.566 271.147 374.756 271.147 Q368.945 271.147 365.867 266.564 Q362.811 261.957 362.811 253.231 Q362.811 244.481 365.867 239.897 Q368.945 235.291 374.756 235.291 Z" fill="#000000" fill-rule="nonzero" fill-opacity="1" /><path clip-path="url(#clip360)" d="M386.7 229.392 L410.811 229.392 L410.811 232.59 L386.7 232.59 L386.7 229.392 Z" fill="#000000" fill-rule="nonzero" fill-opacity="1" /><path clip-path="url(#clip360)" d="M419.67 239.868 L425.876 239.868 L425.876 218.446 L419.125 219.8 L419.125 216.34 L425.839 214.986 L429.638 214.986 L429.638 239.868 L435.845 239.868 L435.845 243.066 L419.67 243.066 L419.67 239.868 Z" fill="#000000" fill-rule="nonzero" fill-opacity="1" /><path clip-path="url(#clip360)" d="M236.957 865.517 L236.957 825.317 L242.367 825.317 L242.367 842.187 L284.477 842.187 L284.477 848.648 L242.367 848.648 L242.367 865.517 L236.957 865.517 Z" fill="#000000" fill-rule="nonzero" fill-opacity="1" /><path clip-path="url(#clip360)" d="M248.829 821.371 L248.829 815.514 L284.477 815.514 L284.477 821.371 L248.829 821.371 M234.951 821.371 L234.951 815.514 L242.367 815.514 L242.367 821.371 L234.951 821.371 Z" fill="#000000" fill-rule="nonzero" fill-opacity="1" /><path clip-path="url(#clip360)" d="M255.672 775.506 Q251.725 773.31 249.847 770.254 Q247.969 767.199 247.969 763.061 Q247.969 757.491 251.884 754.467 Q255.767 751.443 262.961 751.443 L284.477 751.443 L284.477 757.332 L263.151 757.332 Q258.027 757.332 255.544 759.146 Q253.062 760.96 253.062 764.684 Q253.062 769.236 256.086 771.877 Q259.109 774.519 264.329 774.519 L284.477 774.519 L284.477 780.407 L263.151 780.407 Q257.995 780.407 255.544 782.222 Q253.062 784.036 253.062 787.823 Q253.062 792.311 256.117 794.953 Q259.141 797.595 264.329 797.595 L284.477 797.595 L284.477 803.483 L248.829 803.483 L248.829 797.595 L254.367 797.595 Q251.088 795.59 249.529 792.789 Q247.969 789.988 247.969 786.137 Q247.969 782.253 249.943 779.548 Q251.916 776.811 255.672 775.506 Z" fill="#000000" fill-rule="nonzero" fill-opacity="1" /><path clip-path="url(#clip360)" d="M265.189 709.271 L268.053 709.271 L268.053 736.198 Q274.1 735.816 277.283 732.569 Q280.434 729.291 280.434 723.466 Q280.434 720.092 279.607 716.941 Q278.779 713.758 277.124 710.639 L282.662 710.639 Q283.999 713.79 284.699 717.1 Q285.4 720.411 285.4 723.816 Q285.4 732.346 280.434 737.343 Q275.469 742.309 267.003 742.309 Q258.25 742.309 253.125 737.598 Q247.969 732.856 247.969 724.835 Q247.969 717.642 252.616 713.472 Q257.231 709.271 265.189 709.271 M263.47 715.127 Q258.664 715.191 255.799 717.833 Q252.935 720.442 252.935 724.771 Q252.935 729.673 255.704 732.633 Q258.473 735.561 263.502 736.007 L263.47 715.127 Z" fill="#000000" fill-rule="nonzero" fill-opacity="1" /><path clip-path="url(#clip360)" d="M235.015 664.87 Q242.336 669.135 249.497 671.204 Q256.658 673.273 264.011 673.273 Q271.363 673.273 278.588 671.204 Q285.782 669.103 293.07 664.87 L293.07 669.962 Q285.591 674.737 278.366 677.124 Q271.14 679.479 264.011 679.479 Q256.913 679.479 249.72 677.124 Q242.527 674.769 235.015 669.962 L235.015 664.87 Z" fill="#000000" fill-rule="nonzero" fill-opacity="1" /><path clip-path="url(#clip360)" d="M249.879 630.781 L255.417 630.781 Q254.144 633.264 253.507 635.938 Q252.871 638.611 252.871 641.476 Q252.871 645.836 254.208 648.033 Q255.544 650.197 258.218 650.197 Q260.255 650.197 261.433 648.637 Q262.579 647.078 263.629 642.367 L264.075 640.362 Q265.411 634.123 267.862 631.514 Q270.281 628.872 274.642 628.872 Q279.607 628.872 282.503 632.819 Q285.4 636.733 285.4 643.608 Q285.4 646.473 284.827 649.592 Q284.286 652.68 283.172 656.117 L277.124 656.117 Q278.811 652.87 279.67 649.719 Q280.498 646.568 280.498 643.481 Q280.498 639.343 279.098 637.115 Q277.665 634.887 275.087 634.887 Q272.7 634.887 271.427 636.511 Q270.154 638.102 268.976 643.545 L268.499 645.582 Q267.353 651.024 264.998 653.443 Q262.61 655.862 258.473 655.862 Q253.444 655.862 250.707 652.298 Q247.969 648.733 247.969 642.176 Q247.969 638.93 248.447 636.065 Q248.924 633.2 249.879 630.781 Z" fill="#000000" fill-rule="nonzero" fill-opacity="1" /><path clip-path="url(#clip360)" d="M235.015 620.469 L235.015 615.376 Q242.527 610.602 249.72 608.247 Q256.913 605.86 264.011 605.86 Q271.14 605.86 278.366 608.247 Q285.591 610.602 293.07 615.376 L293.07 620.469 Q285.782 616.236 278.588 614.167 Q271.363 612.066 264.011 612.066 Q256.658 612.066 249.497 614.167 Q242.336 616.236 235.015 620.469 Z" fill="#000000" fill-rule="nonzero" fill-opacity="1" /><path clip-path="url(#clip360)" d="M524.355 44.2197 Q526.988 45.1109 529.459 48.0275 Q531.971 50.9442 534.483 56.0483 L542.787 72.576 L533.996 72.576 L526.259 57.061 Q523.262 50.9847 520.426 48.9997 Q517.631 47.0148 512.77 47.0148 L503.858 47.0148 L503.858 72.576 L495.675 72.576 L495.675 12.096 L514.147 12.096 Q524.517 12.096 529.621 16.4305 Q534.726 20.7649 534.726 29.5149 Q534.726 35.2267 532.052 38.994 Q529.419 42.7613 524.355 44.2197 M503.858 18.8205 L503.858 40.2903 L514.147 40.2903 Q520.061 40.2903 523.059 37.5762 Q526.097 34.8216 526.097 29.5149 Q526.097 24.2082 523.059 21.5346 Q520.061 18.8205 514.147 18.8205 L503.858 18.8205 Z" fill="#000000" fill-rule="nonzero" fill-opacity="1" /><path clip-path="url(#clip360)" d="M588.076 48.0275 L588.076 51.6733 L553.805 51.6733 Q554.291 59.3701 558.423 63.421 Q562.596 67.4314 570.009 67.4314 Q574.303 67.4314 578.313 66.3781 Q582.364 65.3249 586.334 63.2184 L586.334 70.267 Q582.324 71.9684 578.111 72.8596 Q573.898 73.7508 569.563 73.7508 Q558.707 73.7508 552.347 67.4314 Q546.028 61.1119 546.028 50.3365 Q546.028 39.1965 552.023 32.6746 Q558.059 26.1121 568.267 26.1121 Q577.422 26.1121 582.729 32.0264 Q588.076 37.9003 588.076 48.0275 M580.622 45.84 Q580.541 39.7232 577.179 36.0774 Q573.857 32.4315 568.348 32.4315 Q562.11 32.4315 558.342 35.9558 Q554.616 39.4801 554.048 45.8805 L580.622 45.84 Z" fill="#000000" fill-rule="nonzero" fill-opacity="1" /><path clip-path="url(#clip360)" d="M623.278 9.54393 L623.278 15.7418 L616.149 15.7418 Q612.138 15.7418 610.559 17.3622 Q609.019 18.9825 609.019 23.1955 L609.019 27.2059 L621.293 27.2059 L621.293 32.9987 L609.019 32.9987 L609.019 72.576 L601.525 72.576 L601.525 32.9987 L594.395 32.9987 L594.395 27.2059 L601.525 27.2059 L601.525 24.0462 Q601.525 16.471 605.049 13.0277 Q608.574 9.54393 616.23 9.54393 L623.278 9.54393 Z" fill="#000000" fill-rule="nonzero" fill-opacity="1" /><path clip-path="url(#clip360)" d="M668.324 48.0275 L668.324 51.6733 L634.054 51.6733 Q634.54 59.3701 638.672 63.421 Q642.844 67.4314 650.257 67.4314 Q654.551 67.4314 658.562 66.3781 Q662.613 65.3249 666.583 63.2184 L666.583 70.267 Q662.572 71.9684 658.359 72.8596 Q654.146 73.7508 649.812 73.7508 Q638.955 73.7508 632.595 67.4314 Q626.276 61.1119 626.276 50.3365 Q626.276 39.1965 632.271 32.6746 Q638.307 26.1121 648.515 26.1121 Q657.671 26.1121 662.977 32.0264 Q668.324 37.9003 668.324 48.0275 M660.871 45.84 Q660.79 39.7232 657.427 36.0774 Q654.106 32.4315 648.597 32.4315 Q642.358 32.4315 638.591 35.9558 Q634.864 39.4801 634.297 45.8805 L660.871 45.84 Z" fill="#000000" fill-rule="nonzero" fill-opacity="1" /><path clip-path="url(#clip360)" d="M706.849 34.1734 Q705.593 33.4443 704.094 33.1202 Q702.636 32.7556 700.853 32.7556 Q694.534 32.7556 691.131 36.8875 Q687.769 40.9789 687.769 48.6757 L687.769 72.576 L680.275 72.576 L680.275 27.2059 L687.769 27.2059 L687.769 34.2544 Q690.118 30.1225 693.886 28.1376 Q697.653 26.1121 703.041 26.1121 Q703.81 26.1121 704.742 26.2337 Q705.674 26.3147 706.808 26.5172 L706.849 34.1734 Z" fill="#000000" fill-rule="nonzero" fill-opacity="1" /><path clip-path="url(#clip360)" d="M751.652 48.0275 L751.652 51.6733 L717.381 51.6733 Q717.867 59.3701 721.999 63.421 Q726.171 67.4314 733.584 67.4314 Q737.878 67.4314 741.889 66.3781 Q745.94 65.3249 749.91 63.2184 L749.91 70.267 Q745.899 71.9684 741.686 72.8596 Q737.473 73.7508 733.139 73.7508 Q722.282 73.7508 715.923 67.4314 Q709.603 61.1119 709.603 50.3365 Q709.603 39.1965 715.598 32.6746 Q721.634 26.1121 731.843 26.1121 Q740.998 26.1121 746.304 32.0264 Q751.652 37.9003 751.652 48.0275 M744.198 45.84 Q744.117 39.7232 740.755 36.0774 Q737.433 32.4315 731.924 32.4315 Q725.685 32.4315 721.918 35.9558 Q718.191 39.4801 717.624 45.8805 L744.198 45.84 Z" fill="#000000" fill-rule="nonzero" fill-opacity="1" /><path clip-path="url(#clip360)" d="M801.599 45.1919 L801.599 72.576 L794.146 72.576 L794.146 45.4349 Q794.146 38.994 791.634 35.7938 Q789.122 32.5936 784.099 32.5936 Q778.063 32.5936 774.58 36.4419 Q771.096 40.2903 771.096 46.9338 L771.096 72.576 L763.602 72.576 L763.602 27.2059 L771.096 27.2059 L771.096 34.2544 Q773.769 30.163 777.375 28.1376 Q781.021 26.1121 785.76 26.1121 Q793.578 26.1121 797.589 30.9732 Q801.599 35.7938 801.599 45.1919 Z" fill="#000000" fill-rule="nonzero" fill-opacity="1" /><path clip-path="url(#clip360)" d="M849.116 28.9478 L849.116 35.9153 Q845.957 34.1734 842.756 33.3227 Q839.597 32.4315 836.356 32.4315 Q829.105 32.4315 825.094 37.0496 Q821.084 41.6271 821.084 49.9314 Q821.084 58.2358 825.094 62.8538 Q829.105 67.4314 836.356 67.4314 Q839.597 67.4314 842.756 66.5807 Q845.957 65.6895 849.116 63.9476 L849.116 70.8341 Q845.997 72.2924 842.635 73.0216 Q839.313 73.7508 835.546 73.7508 Q825.297 73.7508 819.261 67.3098 Q813.225 60.8689 813.225 49.9314 Q813.225 38.832 819.302 32.472 Q825.418 26.1121 836.032 26.1121 Q839.475 26.1121 842.756 26.8413 Q846.038 27.5299 849.116 28.9478 Z" fill="#000000" fill-rule="nonzero" fill-opacity="1" /><path clip-path="url(#clip360)" d="M900.887 48.0275 L900.887 51.6733 L866.616 51.6733 Q867.102 59.3701 871.234 63.421 Q875.407 67.4314 882.82 67.4314 Q887.114 67.4314 891.124 66.3781 Q895.175 65.3249 899.145 63.2184 L899.145 70.267 Q895.135 71.9684 890.922 72.8596 Q886.709 73.7508 882.374 73.7508 Q871.518 73.7508 865.158 67.4314 Q858.838 61.1119 858.838 50.3365 Q858.838 39.1965 864.834 32.6746 Q870.87 26.1121 881.078 26.1121 Q890.233 26.1121 895.54 32.0264 Q900.887 37.9003 900.887 48.0275 M893.433 45.84 Q893.352 39.7232 889.99 36.0774 Q886.668 32.4315 881.159 32.4315 Q874.921 32.4315 871.153 35.9558 Q867.426 39.4801 866.859 45.8805 L893.433 45.84 Z" fill="#000000" fill-rule="nonzero" fill-opacity="1" /><path clip-path="url(#clip360)" d="M915.024 62.2867 L923.572 62.2867 L923.572 72.576 L915.024 72.576 L915.024 62.2867 M915.024 29.6769 L923.572 29.6769 L923.572 39.9662 L915.024 39.9662 L915.024 29.6769 Z" fill="#000000" fill-rule="nonzero" fill-opacity="1" /><path clip-path="url(#clip360)" d="M967.767 12.096 L1002.52 12.096 L1002.52 18.9825 L975.95 18.9825 L975.95 36.8065 L999.931 36.8065 L999.931 43.6931 L975.95 43.6931 L975.95 72.576 L967.767 72.576 L967.767 12.096 Z" fill="#000000" fill-rule="nonzero" fill-opacity="1" /><path clip-path="url(#clip360)" d="M1023.67 43.6931 L1023.67 65.8515 L1036.79 65.8515 Q1043.4 65.8515 1046.56 63.1374 Q1049.76 60.3828 1049.76 54.752 Q1049.76 49.0808 1046.56 46.4072 Q1043.4 43.6931 1036.79 43.6931 L1023.67 43.6931 M1023.67 18.8205 L1023.67 37.0496 L1035.78 37.0496 Q1041.78 37.0496 1044.69 34.8216 Q1047.65 32.5531 1047.65 27.935 Q1047.65 23.3575 1044.69 21.089 Q1041.78 18.8205 1035.78 18.8205 L1023.67 18.8205 M1015.49 12.096 L1036.39 12.096 Q1045.75 12.096 1050.81 15.9849 Q1055.87 19.8737 1055.87 27.0438 Q1055.87 32.5936 1053.28 35.8748 Q1050.69 39.156 1045.67 39.9662 Q1051.7 41.2625 1055.02 45.3944 Q1058.39 49.4858 1058.39 55.6432 Q1058.39 63.745 1052.88 68.1605 Q1047.37 72.576 1037.2 72.576 L1015.49 72.576 L1015.49 12.096 Z" fill="#000000" fill-rule="nonzero" fill-opacity="1" /><path clip-path="url(#clip360)" d="M1080.58 18.8205 L1080.58 65.8515 L1090.47 65.8515 Q1102.99 65.8515 1108.78 60.1802 Q1114.61 54.509 1114.61 42.2752 Q1114.61 30.1225 1108.78 24.4918 Q1102.99 18.8205 1090.47 18.8205 L1080.58 18.8205 M1072.4 12.096 L1089.21 12.096 Q1106.79 12.096 1115.02 19.4281 Q1123.24 26.7198 1123.24 42.2752 Q1123.24 57.9117 1114.98 65.2439 Q1106.71 72.576 1089.21 72.576 L1072.4 72.576 L1072.4 12.096 Z" fill="#000000" fill-rule="nonzero" fill-opacity="1" /><path clip-path="url(#clip360)" d="M1136.28 12.096 L1171.04 12.096 L1171.04 18.9825 L1144.47 18.9825 L1144.47 36.8065 L1168.45 36.8065 L1168.45 43.6931 L1144.47 43.6931 L1144.47 72.576 L1136.28 72.576 L1136.28 12.096 Z" fill="#000000" fill-rule="nonzero" fill-opacity="1" /><path clip-path="url(#clip360)" d="M1185.58 62.2867 L1194.13 62.2867 L1194.13 69.2543 L1187.49 82.2172 L1182.26 82.2172 L1185.58 69.2543 L1185.58 62.2867 Z" fill="#000000" fill-rule="nonzero" fill-opacity="1" /><path clip-path="url(#clip360)" d="M1236.14 9.54393 L1243.63 9.54393 L1243.63 46.7717 L1265.87 27.2059 L1275.39 27.2059 L1251.33 48.4326 L1276.41 72.576 L1266.68 72.576 L1243.63 50.4176 L1243.63 72.576 L1236.14 72.576 L1236.14 9.54393 Z" fill="#000000" fill-rule="nonzero" fill-opacity="1" /><path clip-path="url(#clip360)" d="M1311.81 34.9026 L1363.74 34.9026 L1363.74 41.7081 L1311.81 41.7081 L1311.81 34.9026 M1311.81 51.4303 L1363.74 51.4303 L1363.74 58.3168 L1311.81 58.3168 L1311.81 51.4303 Z" fill="#000000" fill-rule="nonzero" fill-opacity="1" /><path clip-path="url(#clip360)" d="M1409.19 65.6895 L1422.56 65.6895 L1422.56 19.5497 L1408.02 22.4663 L1408.02 15.0127 L1422.48 12.096 L1430.66 12.096 L1430.66 65.6895 L1444.03 65.6895 L1444.03 72.576 L1409.19 72.576 L1409.19 65.6895 Z" fill="#000000" fill-rule="nonzero" fill-opacity="1" /><path clip-path="url(#clip360)" d="M1478.06 17.4837 Q1471.74 17.4837 1468.54 23.7221 Q1465.38 29.92 1465.38 42.3968 Q1465.38 54.833 1468.54 61.0714 Q1471.74 67.2693 1478.06 67.2693 Q1484.42 67.2693 1487.58 61.0714 Q1490.78 54.833 1490.78 42.3968 Q1490.78 29.92 1487.58 23.7221 Q1484.42 17.4837 1478.06 17.4837 M1478.06 11.0023 Q1488.23 11.0023 1493.57 19.0636 Q1498.96 27.0843 1498.96 42.3968 Q1498.96 57.6687 1493.57 65.73 Q1488.23 73.7508 1478.06 73.7508 Q1467.89 73.7508 1462.5 65.73 Q1457.16 57.6687 1457.16 42.3968 Q1457.16 27.0843 1462.5 19.0636 Q1467.89 11.0023 1478.06 11.0023 Z" fill="#000000" fill-rule="nonzero" fill-opacity="1" /><path clip-path="url(#clip360)" d="M1530.84 17.4837 Q1524.52 17.4837 1521.32 23.7221 Q1518.16 29.92 1518.16 42.3968 Q1518.16 54.833 1521.32 61.0714 Q1524.52 67.2693 1530.84 67.2693 Q1537.2 67.2693 1540.36 61.0714 Q1543.56 54.833 1543.56 42.3968 Q1543.56 29.92 1540.36 23.7221 Q1537.2 17.4837 1530.84 17.4837 M1530.84 11.0023 Q1541.01 11.0023 1546.36 19.0636 Q1551.75 27.0843 1551.75 42.3968 Q1551.75 57.6687 1546.36 65.73 Q1541.01 73.7508 1530.84 73.7508 Q1520.68 73.7508 1515.29 65.73 Q1509.94 57.6687 1509.94 42.3968 Q1509.94 27.0843 1515.29 19.0636 Q1520.68 11.0023 1530.84 11.0023 Z" fill="#000000" fill-rule="nonzero" fill-opacity="1" /><path clip-path="url(#clip360)" d="M1566.13 62.2867 L1574.67 62.2867 L1574.67 72.576 L1566.13 72.576 L1566.13 62.2867 Z" fill="#000000" fill-rule="nonzero" fill-opacity="1" /><path clip-path="url(#clip360)" d="M1610 17.4837 Q1603.68 17.4837 1600.48 23.7221 Q1597.32 29.92 1597.32 42.3968 Q1597.32 54.833 1600.48 61.0714 Q1603.68 67.2693 1610 67.2693 Q1616.36 67.2693 1619.52 61.0714 Q1622.72 54.833 1622.72 42.3968 Q1622.72 29.92 1619.52 23.7221 Q1616.36 17.4837 1610 17.4837 M1610 11.0023 Q1620.17 11.0023 1625.51 19.0636 Q1630.9 27.0843 1630.9 42.3968 Q1630.9 57.6687 1625.51 65.73 Q1620.17 73.7508 1610 73.7508 Q1599.83 73.7508 1594.44 65.73 Q1589.09 57.6687 1589.09 42.3968 Q1589.09 27.0843 1594.44 19.0636 Q1599.83 11.0023 1610 11.0023 Z" fill="#000000" fill-rule="nonzero" fill-opacity="1" /><path clip-path="url(#clip360)" d="M1670.92 12.096 L1679.11 12.096 L1679.11 36.8875 L1708.84 36.8875 L1708.84 12.096 L1717.02 12.096 L1717.02 72.576 L1708.84 72.576 L1708.84 43.7741 L1679.11 43.7741 L1679.11 72.576 L1670.92 72.576 L1670.92 12.096 Z" fill="#000000" fill-rule="nonzero" fill-opacity="1" /><path clip-path="url(#clip360)" d="M1748.25 45.1514 Q1746.23 41.6676 1742.14 41.6676 Q1738.05 41.6676 1736.02 45.1514 Q1733.96 48.6352 1733.96 55.6027 Q1733.96 62.6108 1736.02 66.0946 Q1738.05 69.5783 1742.14 69.5783 Q1746.23 69.5783 1748.25 66.0946 Q1750.32 62.6108 1750.32 55.6027 Q1750.32 48.6352 1748.25 45.1514 M1742.14 38.0623 Q1748.66 38.0623 1752.1 42.5588 Q1755.55 47.0553 1755.55 55.6027 Q1755.55 64.1906 1752.1 68.6871 Q1748.66 73.1836 1742.14 73.1836 Q1735.58 73.1836 1732.13 68.6871 Q1728.69 64.1906 1728.69 55.6027 Q1728.69 47.0553 1732.13 42.5588 Q1735.58 38.0623 1742.14 38.0623 Z" fill="#000000" fill-rule="nonzero" fill-opacity="1" /><path clip-path="url(#clip360)" d="M1779.49 12.096 L1786.37 12.096 L1765.31 80.2727 L1758.42 80.2727 L1779.49 12.096 Z" fill="#000000" fill-rule="nonzero" fill-opacity="1" /><path clip-path="url(#clip360)" d="M1826.84 28.9478 L1826.84 35.9153 Q1823.68 34.1734 1820.48 33.3227 Q1817.32 32.4315 1814.08 32.4315 Q1806.83 32.4315 1802.82 37.0496 Q1798.81 41.6271 1798.81 49.9314 Q1798.81 58.2358 1802.82 62.8538 Q1806.83 67.4314 1814.08 67.4314 Q1817.32 67.4314 1820.48 66.5807 Q1823.68 65.6895 1826.84 63.9476 L1826.84 70.8341 Q1823.72 72.2924 1820.36 73.0216 Q1817.04 73.7508 1813.27 73.7508 Q1803.02 73.7508 1796.99 67.3098 Q1790.95 60.8689 1790.95 49.9314 Q1790.95 38.832 1797.03 32.472 Q1803.14 26.1121 1813.76 26.1121 Q1817.2 26.1121 1820.48 26.8413 Q1823.76 27.5299 1826.84 28.9478 Z" fill="#000000" fill-rule="nonzero" fill-opacity="1" /><polyline clip-path="url(#clip361)" style="stroke:#009af9; stroke-linecap:round; stroke-linejoin:round; stroke-width:12; stroke-opacity:1; fill:none" points="1754.62,1313.25 1683.37,1126.55 1542.95,1013.92 1456.78,865.65 1349.55,689.109 "/>
<line clip-path="url(#clip361)" x1="1754.62" y1="1313.25" x2="1754.62" y2="1297.25" style="stroke:#009af9; stroke-width:12; stroke-opacity:1"/>
<line clip-path="url(#clip361)" x1="1754.62" y1="1313.25" x2="1738.62" y2="1313.25" style="stroke:#009af9; stroke-width:12; stroke-opacity:1"/>
<line clip-path="url(#clip361)" x1="1754.62" y1="1313.25" x2="1754.62" y2="1329.25" style="stroke:#009af9; stroke-width:12; stroke-opacity:1"/>
<line clip-path="url(#clip361)" x1="1754.62" y1="1313.25" x2="1770.62" y2="1313.25" style="stroke:#009af9; stroke-width:12; stroke-opacity:1"/>
<line clip-path="url(#clip361)" x1="1683.37" y1="1126.55" x2="1683.37" y2="1110.55" style="stroke:#009af9; stroke-width:12; stroke-opacity:1"/>
<line clip-path="url(#clip361)" x1="1683.37" y1="1126.55" x2="1667.37" y2="1126.55" style="stroke:#009af9; stroke-width:12; stroke-opacity:1"/>
<line clip-path="url(#clip361)" x1="1683.37" y1="1126.55" x2="1683.37" y2="1142.55" style="stroke:#009af9; stroke-width:12; stroke-opacity:1"/>
<line clip-path="url(#clip361)" x1="1683.37" y1="1126.55" x2="1699.37" y2="1126.55" style="stroke:#009af9; stroke-width:12; stroke-opacity:1"/>
<line clip-path="url(#clip361)" x1="1542.95" y1="1013.92" x2="1542.95" y2="997.921" style="stroke:#009af9; stroke-width:12; stroke-opacity:1"/>
<line clip-path="url(#clip361)" x1="1542.95" y1="1013.92" x2="1526.95" y2="1013.92" style="stroke:#009af9; stroke-width:12; stroke-opacity:1"/>
<line clip-path="url(#clip361)" x1="1542.95" y1="1013.92" x2="1542.95" y2="1029.92" style="stroke:#009af9; stroke-width:12; stroke-opacity:1"/>
<line clip-path="url(#clip361)" x1="1542.95" y1="1013.92" x2="1558.95" y2="1013.92" style="stroke:#009af9; stroke-width:12; stroke-opacity:1"/>
<line clip-path="url(#clip361)" x1="1456.78" y1="865.65" x2="1456.78" y2="849.65" style="stroke:#009af9; stroke-width:12; stroke-opacity:1"/>
<line clip-path="url(#clip361)" x1="1456.78" y1="865.65" x2="1440.78" y2="865.65" style="stroke:#009af9; stroke-width:12; stroke-opacity:1"/>
<line clip-path="url(#clip361)" x1="1456.78" y1="865.65" x2="1456.78" y2="881.65" style="stroke:#009af9; stroke-width:12; stroke-opacity:1"/>
<line clip-path="url(#clip361)" x1="1456.78" y1="865.65" x2="1472.78" y2="865.65" style="stroke:#009af9; stroke-width:12; stroke-opacity:1"/>
<line clip-path="url(#clip361)" x1="1349.55" y1="689.109" x2="1349.55" y2="673.109" style="stroke:#009af9; stroke-width:12; stroke-opacity:1"/>
<line clip-path="url(#clip361)" x1="1349.55" y1="689.109" x2="1333.55" y2="689.109" style="stroke:#009af9; stroke-width:12; stroke-opacity:1"/>
<line clip-path="url(#clip361)" x1="1349.55" y1="689.109" x2="1349.55" y2="705.109" style="stroke:#009af9; stroke-width:12; stroke-opacity:1"/>
<line clip-path="url(#clip361)" x1="1349.55" y1="689.109" x2="1365.55" y2="689.109" style="stroke:#009af9; stroke-width:12; stroke-opacity:1"/>
<polyline clip-path="url(#clip361)" style="stroke:#e26f46; stroke-linecap:round; stroke-linejoin:round; stroke-width:12; stroke-opacity:1; fill:none" points="1576.88,1227.87 1519.25,1128.98 1472.04,1001.95 1307.39,894.791 1130.22,792.954 "/>
<circle clip-path="url(#clip361)" cx="1576.88" cy="1227.87" r="14.4" fill="#e26f46" fill-rule="evenodd" fill-opacity="1" stroke="#000000" stroke-opacity="1" stroke-width="3.2"/>
<circle clip-path="url(#clip361)" cx="1519.25" cy="1128.98" r="14.4" fill="#e26f46" fill-rule="evenodd" fill-opacity="1" stroke="#000000" stroke-opacity="1" stroke-width="3.2"/>
<circle clip-path="url(#clip361)" cx="1472.04" cy="1001.95" r="14.4" fill="#e26f46" fill-rule="evenodd" fill-opacity="1" stroke="#000000" stroke-opacity="1" stroke-width="3.2"/>
<circle clip-path="url(#clip361)" cx="1307.39" cy="894.791" r="14.4" fill="#e26f46" fill-rule="evenodd" fill-opacity="1" stroke="#000000" stroke-opacity="1" stroke-width="3.2"/>
<circle clip-path="url(#clip361)" cx="1130.22" cy="792.954" r="14.4" fill="#e26f46" fill-rule="evenodd" fill-opacity="1" stroke="#000000" stroke-opacity="1" stroke-width="3.2"/>
<polyline clip-path="url(#clip361)" style="stroke:#3da44d; stroke-linecap:round; stroke-linejoin:round; stroke-width:12; stroke-opacity:1; fill:none" points="1582.17,1165.28 1493.24,1090.41 1465.59,992.281 1310.62,904.002 1159.35,809.413 "/>
<line clip-path="url(#clip361)" x1="1582.17" y1="1165.28" x2="1582.17" y2="1149.28" style="stroke:#3da44d; stroke-width:12; stroke-opacity:1"/>
<line clip-path="url(#clip361)" x1="1582.17" y1="1165.28" x2="1566.17" y2="1165.28" style="stroke:#3da44d; stroke-width:12; stroke-opacity:1"/>
<line clip-path="url(#clip361)" x1="1582.17" y1="1165.28" x2="1582.17" y2="1181.28" style="stroke:#3da44d; stroke-width:12; stroke-opacity:1"/>
<line clip-path="url(#clip361)" x1="1582.17" y1="1165.28" x2="1598.17" y2="1165.28" style="stroke:#3da44d; stroke-width:12; stroke-opacity:1"/>
<line clip-path="url(#clip361)" x1="1493.24" y1="1090.41" x2="1493.24" y2="1074.41" style="stroke:#3da44d; stroke-width:12; stroke-opacity:1"/>
<line clip-path="url(#clip361)" x1="1493.24" y1="1090.41" x2="1477.24" y2="1090.41" style="stroke:#3da44d; stroke-width:12; stroke-opacity:1"/>
<line clip-path="url(#clip361)" x1="1493.24" y1="1090.41" x2="1493.24" y2="1106.41" style="stroke:#3da44d; stroke-width:12; stroke-opacity:1"/>
<line clip-path="url(#clip361)" x1="1493.24" y1="1090.41" x2="1509.24" y2="1090.41" style="stroke:#3da44d; stroke-width:12; stroke-opacity:1"/>
<line clip-path="url(#clip361)" x1="1465.59" y1="992.281" x2="1465.59" y2="976.281" style="stroke:#3da44d; stroke-width:12; stroke-opacity:1"/>
<line clip-path="url(#clip361)" x1="1465.59" y1="992.281" x2="1449.59" y2="992.281" style="stroke:#3da44d; stroke-width:12; stroke-opacity:1"/>
<line clip-path="url(#clip361)" x1="1465.59" y1="992.281" x2="1465.59" y2="1008.28" style="stroke:#3da44d; stroke-width:12; stroke-opacity:1"/>
<line clip-path="url(#clip361)" x1="1465.59" y1="992.281" x2="1481.59" y2="992.281" style="stroke:#3da44d; stroke-width:12; stroke-opacity:1"/>
<line clip-path="url(#clip361)" x1="1310.62" y1="904.002" x2="1310.62" y2="888.002" style="stroke:#3da44d; stroke-width:12; stroke-opacity:1"/>
<line clip-path="url(#clip361)" x1="1310.62" y1="904.002" x2="1294.62" y2="904.002" style="stroke:#3da44d; stroke-width:12; stroke-opacity:1"/>
<line clip-path="url(#clip361)" x1="1310.62" y1="904.002" x2="1310.62" y2="920.002" style="stroke:#3da44d; stroke-width:12; stroke-opacity:1"/>
<line clip-path="url(#clip361)" x1="1310.62" y1="904.002" x2="1326.62" y2="904.002" style="stroke:#3da44d; stroke-width:12; stroke-opacity:1"/>
<line clip-path="url(#clip361)" x1="1159.35" y1="809.413" x2="1159.35" y2="793.413" style="stroke:#3da44d; stroke-width:12; stroke-opacity:1"/>
<line clip-path="url(#clip361)" x1="1159.35" y1="809.413" x2="1143.35" y2="809.413" style="stroke:#3da44d; stroke-width:12; stroke-opacity:1"/>
<line clip-path="url(#clip361)" x1="1159.35" y1="809.413" x2="1159.35" y2="825.413" style="stroke:#3da44d; stroke-width:12; stroke-opacity:1"/>
<line clip-path="url(#clip361)" x1="1159.35" y1="809.413" x2="1175.35" y2="809.413" style="stroke:#3da44d; stroke-width:12; stroke-opacity:1"/>
<polyline clip-path="url(#clip361)" style="stroke:#c271d2; stroke-linecap:round; stroke-linejoin:round; stroke-width:12; stroke-opacity:1; fill:none" points="1811.65,1069 1704.49,909.972 1584.48,689.752 1475.43,360.663 1253.03,158.126 "/>
<path clip-path="url(#clip361)" d="M1811.65 1053 L1795.65 1069 L1811.65 1085 L1827.65 1069 L1811.65 1053 Z" fill="#c271d2" fill-rule="evenodd" fill-opacity="1" stroke="#000000" stroke-opacity="1" stroke-width="3.2"/>
<path clip-path="url(#clip361)" d="M1704.49 893.972 L1688.49 909.972 L1704.49 925.972 L1720.49 909.972 L1704.49 893.972 Z" fill="#c271d2" fill-rule="evenodd" fill-opacity="1" stroke="#000000" stroke-opacity="1" stroke-width="3.2"/>
<path clip-path="url(#clip361)" d="M1584.48 673.752 L1568.48 689.752 L1584.48 705.752 L1600.48 689.752 L1584.48 673.752 Z" fill="#c271d2" fill-rule="evenodd" fill-opacity="1" stroke="#000000" stroke-opacity="1" stroke-width="3.2"/>
<path clip-path="url(#clip361)" d="M1475.43 344.663 L1459.43 360.663 L1475.43 376.663 L1491.43 360.663 L1475.43 344.663 Z" fill="#c271d2" fill-rule="evenodd" fill-opacity="1" stroke="#000000" stroke-opacity="1" stroke-width="3.2"/>
<path clip-path="url(#clip361)" d="M1253.03 142.126 L1237.03 158.126 L1253.03 174.126 L1269.03 158.126 L1253.03 142.126 Z" fill="#c271d2" fill-rule="evenodd" fill-opacity="1" stroke="#000000" stroke-opacity="1" stroke-width="3.2"/>
<polyline clip-path="url(#clip361)" style="stroke:#ac8d18; stroke-linecap:round; stroke-linejoin:round; stroke-width:12; stroke-opacity:1; fill:none" points="1516.32,1156.46 1228.87,1019.69 1064.47,882.855 821.319,844.525 707.153,728.164 "/>
<path clip-path="url(#clip361)" d="M1532.32 1140.46 L1500.32 1140.46 L1516.32 1172.46 L1532.32 1140.46 Z" fill="#ac8d18" fill-rule="evenodd" fill-opacity="1" stroke="#000000" stroke-opacity="1" stroke-width="3.2"/>
<path clip-path="url(#clip361)" d="M1244.87 1003.69 L1212.87 1003.69 L1228.87 1035.69 L1244.87 1003.69 Z" fill="#ac8d18" fill-rule="evenodd" fill-opacity="1" stroke="#000000" stroke-opacity="1" stroke-width="3.2"/>
<path clip-path="url(#clip361)" d="M1080.47 866.855 L1048.47 866.855 L1064.47 898.855 L1080.47 866.855 Z" fill="#ac8d18" fill-rule="evenodd" fill-opacity="1" stroke="#000000" stroke-opacity="1" stroke-width="3.2"/>
<path clip-path="url(#clip361)" d="M837.319 828.525 L805.319 828.525 L821.319 860.525 L837.319 828.525 Z" fill="#ac8d18" fill-rule="evenodd" fill-opacity="1" stroke="#000000" stroke-opacity="1" stroke-width="3.2"/>
<path clip-path="url(#clip361)" d="M723.153 712.164 L691.153 712.164 L707.153 744.164 L723.153 712.164 Z" fill="#ac8d18" fill-rule="evenodd" fill-opacity="1" stroke="#000000" stroke-opacity="1" stroke-width="3.2"/>
<polyline clip-path="url(#clip361)" style="stroke:#00a9ad; stroke-linecap:round; stroke-linejoin:round; stroke-width:12; stroke-opacity:1; fill:none" points="1478.3,1147.76 1254.45,1041.28 962.706,858.81 816.641,749.089 740.928,663.57 "/>
<path clip-path="url(#clip361)" d="M1478.3 1131.76 L1465.78 1137.8 L1462.7 1151.33 L1471.35 1162.18 L1485.24 1162.18 L1493.9 1151.33 L1490.81 1137.8 Z" fill="#00a9ad" fill-rule="evenodd" fill-opacity="1" stroke="#000000" stroke-opacity="1" stroke-width="3.2"/>
<path clip-path="url(#clip361)" d="M1254.45 1025.28 L1241.93 1031.31 L1238.85 1044.85 L1247.5 1055.7 L1261.39 1055.7 L1270.05 1044.85 L1266.96 1031.31 Z" fill="#00a9ad" fill-rule="evenodd" fill-opacity="1" stroke="#000000" stroke-opacity="1" stroke-width="3.2"/>
<path clip-path="url(#clip361)" d="M962.706 842.81 L950.194 848.842 L947.106 862.378 L955.762 873.226 L969.65 873.226 L978.306 862.378 L975.218 848.842 Z" fill="#00a9ad" fill-rule="evenodd" fill-opacity="1" stroke="#000000" stroke-opacity="1" stroke-width="3.2"/>
<path clip-path="url(#clip361)" d="M816.641 733.089 L804.129 739.121 L801.041 752.657 L809.697 763.505 L823.585 763.505 L832.241 752.657 L829.153 739.121 Z" fill="#00a9ad" fill-rule="evenodd" fill-opacity="1" stroke="#000000" stroke-opacity="1" stroke-width="3.2"/>
<path clip-path="url(#clip361)" d="M740.928 647.57 L728.416 653.602 L725.328 667.138 L733.984 677.986 L747.872 677.986 L756.528 667.138 L753.44 653.602 Z" fill="#00a9ad" fill-rule="evenodd" fill-opacity="1" stroke="#000000" stroke-opacity="1" stroke-width="3.2"/>
<polyline clip-path="url(#clip361)" style="stroke:#ed5d92; stroke-linecap:round; stroke-linejoin:round; stroke-width:12; stroke-opacity:1; fill:none" points="1035.46,1085.66 836.87,959.894 510.868,823.236 550.224,678.188 520.244,531.645 "/>
<path clip-path="url(#clip361)" d="M1035.46 1101.66 L1021.6 1093.66 L1021.6 1077.66 L1035.46 1069.66 L1049.32 1077.66 L1049.32 1093.66 Z" fill="#ed5d92" fill-rule="evenodd" fill-opacity="1" stroke="#000000" stroke-opacity="1" stroke-width="3.2"/>
<path clip-path="url(#clip361)" d="M836.87 975.894 L823.014 967.894 L823.014 951.894 L836.87 943.894 L850.726 951.894 L850.726 967.894 Z" fill="#ed5d92" fill-rule="evenodd" fill-opacity="1" stroke="#000000" stroke-opacity="1" stroke-width="3.2"/>
<path clip-path="url(#clip361)" d="M510.868 839.236 L497.012 831.236 L497.012 815.236 L510.868 807.236 L524.724 815.236 L524.724 831.236 Z" fill="#ed5d92" fill-rule="evenodd" fill-opacity="1" stroke="#000000" stroke-opacity="1" stroke-width="3.2"/>
<path clip-path="url(#clip361)" d="M550.224 694.188 L536.368 686.188 L536.368 670.188 L550.224 662.188 L564.08 670.188 L564.08 686.188 Z" fill="#ed5d92" fill-rule="evenodd" fill-opacity="1" stroke="#000000" stroke-opacity="1" stroke-width="3.2"/>
<path clip-path="url(#clip361)" d="M520.244 547.645 L506.388 539.645 L506.388 523.645 L520.244 515.645 L534.1 523.645 L534.1 539.645 Z" fill="#ed5d92" fill-rule="evenodd" fill-opacity="1" stroke="#000000" stroke-opacity="1" stroke-width="3.2"/>
<path clip-path="url(#clip360)" d="M1913.37 957.943 L2352.76 957.943 L2352.76 543.223 L1913.37 543.223  Z" fill="#ffffff" fill-rule="evenodd" fill-opacity="1"/>
<polyline clip-path="url(#clip360)" style="stroke:#000000; stroke-linecap:round; stroke-linejoin:round; stroke-width:4; stroke-opacity:1; fill:none" points="1913.37,957.943 2352.76,957.943 2352.76,543.223 1913.37,543.223 1913.37,957.943 "/>
<polyline clip-path="url(#clip360)" style="stroke:#009af9; stroke-linecap:round; stroke-linejoin:round; stroke-width:12; stroke-opacity:1; fill:none" points="1934.27,595.063 2059.66,595.063 "/>
<line clip-path="url(#clip360)" x1="1996.97" y1="595.063" x2="1996.97" y2="575.712" style="stroke:#009af9; stroke-width:12; stroke-opacity:1"/>
<line clip-path="url(#clip360)" x1="1996.97" y1="595.063" x2="1977.61" y2="595.063" style="stroke:#009af9; stroke-width:12; stroke-opacity:1"/>
<line clip-path="url(#clip360)" x1="1996.97" y1="595.063" x2="1996.97" y2="614.414" style="stroke:#009af9; stroke-width:12; stroke-opacity:1"/>
<line clip-path="url(#clip360)" x1="1996.97" y1="595.063" x2="2016.32" y2="595.063" style="stroke:#009af9; stroke-width:12; stroke-opacity:1"/>
<path clip-path="url(#clip360)" d="M2080.56 577.783 L2109.8 577.783 L2109.8 581.718 L2097.53 581.718 L2097.53 612.343 L2092.83 612.343 L2092.83 581.718 L2080.56 581.718 L2080.56 577.783 Z" fill="#000000" fill-rule="nonzero" fill-opacity="1" /><path clip-path="url(#clip360)" d="M2130.7 596.139 Q2132.21 596.648 2133.62 598.315 Q2135.05 599.982 2136.49 602.898 L2141.23 612.343 L2136.21 612.343 L2131.79 603.477 Q2130.08 600.005 2128.46 598.871 Q2126.86 597.736 2124.08 597.736 L2118.99 597.736 L2118.99 612.343 L2114.31 612.343 L2114.31 577.783 L2124.87 577.783 Q2130.79 577.783 2133.71 580.26 Q2136.63 582.736 2136.63 587.736 Q2136.63 591 2135.1 593.153 Q2133.59 595.306 2130.7 596.139 M2118.99 581.625 L2118.99 593.894 L2124.87 593.894 Q2128.25 593.894 2129.96 592.343 Q2131.7 590.769 2131.7 587.736 Q2131.7 584.704 2129.96 583.176 Q2128.25 581.625 2124.87 581.625 L2118.99 581.625 Z" fill="#000000" fill-rule="nonzero" fill-opacity="1" /><path clip-path="url(#clip360)" d="M2151.93 595.838 L2151.93 608.5 L2159.43 608.5 Q2163.2 608.5 2165.01 606.949 Q2166.83 605.375 2166.83 602.158 Q2166.83 598.917 2165.01 597.389 Q2163.2 595.838 2159.43 595.838 L2151.93 595.838 M2151.93 581.625 L2151.93 592.042 L2158.85 592.042 Q2162.27 592.042 2163.94 590.769 Q2165.63 589.472 2165.63 586.834 Q2165.63 584.218 2163.94 582.922 Q2162.27 581.625 2158.85 581.625 L2151.93 581.625 M2147.25 577.783 L2159.2 577.783 Q2164.54 577.783 2167.44 580.005 Q2170.33 582.227 2170.33 586.324 Q2170.33 589.496 2168.85 591.371 Q2167.37 593.246 2164.5 593.709 Q2167.95 594.449 2169.84 596.81 Q2171.77 599.148 2171.77 602.667 Q2171.77 607.296 2168.62 609.82 Q2165.47 612.343 2159.66 612.343 L2147.25 612.343 L2147.25 577.783 Z" fill="#000000" fill-rule="nonzero" fill-opacity="1" /><path clip-path="url(#clip360)" d="M2184.45 581.625 L2184.45 608.5 L2190.1 608.5 Q2197.25 608.5 2200.56 605.259 Q2203.89 602.019 2203.89 595.028 Q2203.89 588.084 2200.56 584.866 Q2197.25 581.625 2190.1 581.625 L2184.45 581.625 M2179.77 577.783 L2189.38 577.783 Q2199.43 577.783 2204.13 581.973 Q2208.83 586.139 2208.83 595.028 Q2208.83 603.963 2204.1 608.153 Q2199.38 612.343 2189.38 612.343 L2179.77 612.343 L2179.77 577.783 Z" fill="#000000" fill-rule="nonzero" fill-opacity="1" /><path clip-path="url(#clip360)" d="M2216.28 577.783 L2236.14 577.783 L2236.14 581.718 L2220.95 581.718 L2220.95 591.903 L2234.66 591.903 L2234.66 595.838 L2220.95 595.838 L2220.95 612.343 L2216.28 612.343 L2216.28 577.783 Z" fill="#000000" fill-rule="nonzero" fill-opacity="1" /><path clip-path="url(#clip360)" d="M2247.99 608.408 L2264.31 608.408 L2264.31 612.343 L2242.37 612.343 L2242.37 608.408 Q2245.03 605.653 2249.61 601.023 Q2254.22 596.371 2255.4 595.028 Q2257.64 592.505 2258.52 590.769 Q2259.43 589.01 2259.43 587.32 Q2259.43 584.565 2257.48 582.829 Q2255.56 581.093 2252.46 581.093 Q2250.26 581.093 2247.81 581.857 Q2245.38 582.621 2242.6 584.172 L2242.6 579.449 Q2245.42 578.315 2247.88 577.736 Q2250.33 577.158 2252.37 577.158 Q2257.74 577.158 2260.93 579.843 Q2264.13 582.528 2264.13 587.019 Q2264.13 589.148 2263.32 591.07 Q2262.53 592.968 2260.42 595.56 Q2259.84 596.232 2256.74 599.449 Q2253.64 602.644 2247.99 608.408 Z" fill="#000000" fill-rule="nonzero" fill-opacity="1" /><polyline clip-path="url(#clip360)" style="stroke:#e26f46; stroke-linecap:round; stroke-linejoin:round; stroke-width:12; stroke-opacity:1; fill:none" points="1934.27,646.903 2059.66,646.903 "/>
<circle clip-path="url(#clip360)" cx="1996.97" cy="646.903" r="17.4158" fill="#e26f46" fill-rule="evenodd" fill-opacity="1" stroke="#000000" stroke-opacity="1" stroke-width="4.55111"/>
<path clip-path="url(#clip360)" d="M2080.56 629.623 L2085.24 629.623 L2085.24 644.229 L2100.75 629.623 L2106.77 629.623 L2089.61 645.734 L2107.99 664.183 L2101.83 664.183 L2085.24 647.539 L2085.24 664.183 L2080.56 664.183 L2080.56 629.623 Z" fill="#000000" fill-rule="nonzero" fill-opacity="1" /><path clip-path="url(#clip360)" d="M2131.28 650.155 L2131.28 652.238 L2111.7 652.238 Q2111.97 656.636 2114.33 658.951 Q2116.72 661.243 2120.96 661.243 Q2123.41 661.243 2125.7 660.641 Q2128.02 660.039 2130.28 658.836 L2130.28 662.863 Q2127.99 663.836 2125.58 664.345 Q2123.18 664.854 2120.7 664.854 Q2114.5 664.854 2110.86 661.243 Q2107.25 657.632 2107.25 651.474 Q2107.25 645.109 2110.68 641.382 Q2114.13 637.632 2119.96 637.632 Q2125.19 637.632 2128.22 641.012 Q2131.28 644.368 2131.28 650.155 M2127.02 648.905 Q2126.97 645.41 2125.05 643.326 Q2123.15 641.243 2120.01 641.243 Q2116.44 641.243 2114.29 643.257 Q2112.16 645.271 2111.83 648.928 L2127.02 648.905 Z" fill="#000000" fill-rule="nonzero" fill-opacity="1" /><path clip-path="url(#clip360)" d="M2159.82 648.535 L2159.82 664.183 L2155.56 664.183 L2155.56 648.674 Q2155.56 644.993 2154.13 643.164 Q2152.69 641.336 2149.82 641.336 Q2146.37 641.336 2144.38 643.535 Q2142.39 645.734 2142.39 649.53 L2142.39 664.183 L2138.11 664.183 L2138.11 638.257 L2142.39 638.257 L2142.39 642.285 Q2143.92 639.947 2145.98 638.789 Q2148.06 637.632 2150.77 637.632 Q2155.24 637.632 2157.53 640.41 Q2159.82 643.164 2159.82 648.535 Z" fill="#000000" fill-rule="nonzero" fill-opacity="1" /><path clip-path="url(#clip360)" d="M2194.38 632.285 L2194.38 637.215 Q2192.02 635.016 2189.33 633.928 Q2186.67 632.84 2183.66 632.84 Q2177.74 632.84 2174.59 636.475 Q2171.44 640.086 2171.44 646.937 Q2171.44 653.766 2174.59 657.4 Q2177.74 661.011 2183.66 661.011 Q2186.67 661.011 2189.33 659.923 Q2192.02 658.836 2194.38 656.636 L2194.38 661.521 Q2191.93 663.187 2189.17 664.021 Q2186.44 664.854 2183.39 664.854 Q2175.54 664.854 2171.02 660.062 Q2166.51 655.248 2166.51 646.937 Q2166.51 638.604 2171.02 633.813 Q2175.54 628.998 2183.39 628.998 Q2186.49 628.998 2189.22 629.831 Q2191.97 630.641 2194.38 632.285 Z" fill="#000000" fill-rule="nonzero" fill-opacity="1" /><path clip-path="url(#clip360)" d="M2213.2 651.15 Q2208.04 651.15 2206.05 652.331 Q2204.06 653.511 2204.06 656.359 Q2204.06 658.627 2205.54 659.97 Q2207.04 661.289 2209.61 661.289 Q2213.15 661.289 2215.28 658.789 Q2217.44 656.266 2217.44 652.099 L2217.44 651.15 L2213.2 651.15 M2221.7 649.391 L2221.7 664.183 L2217.44 664.183 L2217.44 660.248 Q2215.98 662.609 2213.8 663.743 Q2211.63 664.854 2208.48 664.854 Q2204.5 664.854 2202.14 662.632 Q2199.8 660.386 2199.8 656.636 Q2199.8 652.262 2202.71 650.039 Q2205.65 647.817 2211.46 647.817 L2217.44 647.817 L2217.44 647.4 Q2217.44 644.461 2215.49 642.863 Q2213.57 641.243 2210.08 641.243 Q2207.85 641.243 2205.75 641.775 Q2203.64 642.308 2201.7 643.373 L2201.7 639.437 Q2204.03 638.535 2206.23 638.095 Q2208.43 637.632 2210.51 637.632 Q2216.14 637.632 2218.92 640.549 Q2221.7 643.465 2221.7 649.391 Z" fill="#000000" fill-rule="nonzero" fill-opacity="1" /><path clip-path="url(#clip360)" d="M2245.49 642.238 Q2244.77 641.822 2243.92 641.637 Q2243.08 641.428 2242.07 641.428 Q2238.45 641.428 2236.51 643.789 Q2234.59 646.127 2234.59 650.525 L2234.59 664.183 L2230.31 664.183 L2230.31 638.257 L2234.59 638.257 L2234.59 642.285 Q2235.93 639.924 2238.08 638.789 Q2240.24 637.632 2243.32 637.632 Q2243.76 637.632 2244.29 637.701 Q2244.82 637.748 2245.47 637.863 L2245.49 642.238 Z" fill="#000000" fill-rule="nonzero" fill-opacity="1" /><path clip-path="url(#clip360)" d="M2254.08 660.294 L2254.08 674.044 L2249.8 674.044 L2249.8 638.257 L2254.08 638.257 L2254.08 642.192 Q2255.42 639.877 2257.46 638.766 Q2259.52 637.632 2262.37 637.632 Q2267.09 637.632 2270.03 641.382 Q2272.99 645.132 2272.99 651.243 Q2272.99 657.354 2270.03 661.104 Q2267.09 664.854 2262.37 664.854 Q2259.52 664.854 2257.46 663.743 Q2255.42 662.609 2254.08 660.294 M2268.57 651.243 Q2268.57 646.544 2266.63 643.882 Q2264.7 641.197 2261.32 641.197 Q2257.95 641.197 2256 643.882 Q2254.08 646.544 2254.08 651.243 Q2254.08 655.942 2256 658.627 Q2257.95 661.289 2261.32 661.289 Q2264.7 661.289 2266.63 658.627 Q2268.57 655.942 2268.57 651.243 Z" fill="#000000" fill-rule="nonzero" fill-opacity="1" /><path clip-path="url(#clip360)" d="M2293.5 633.697 L2281.7 652.146 L2293.5 652.146 L2293.5 633.697 M2292.27 629.623 L2298.15 629.623 L2298.15 652.146 L2303.08 652.146 L2303.08 656.035 L2298.15 656.035 L2298.15 664.183 L2293.5 664.183 L2293.5 656.035 L2277.9 656.035 L2277.9 651.521 L2292.27 629.623 Z" fill="#000000" fill-rule="nonzero" fill-opacity="1" /><polyline clip-path="url(#clip360)" style="stroke:#3da44d; stroke-linecap:round; stroke-linejoin:round; stroke-width:12; stroke-opacity:1; fill:none" points="1934.27,698.743 2059.66,698.743 "/>
<line clip-path="url(#clip360)" x1="1996.97" y1="698.743" x2="1996.97" y2="679.392" style="stroke:#3da44d; stroke-width:12; stroke-opacity:1"/>
<line clip-path="url(#clip360)" x1="1996.97" y1="698.743" x2="1977.61" y2="698.743" style="stroke:#3da44d; stroke-width:12; stroke-opacity:1"/>
<line clip-path="url(#clip360)" x1="1996.97" y1="698.743" x2="1996.97" y2="718.094" style="stroke:#3da44d; stroke-width:12; stroke-opacity:1"/>
<line clip-path="url(#clip360)" x1="1996.97" y1="698.743" x2="2016.32" y2="698.743" style="stroke:#3da44d; stroke-width:12; stroke-opacity:1"/>
<path clip-path="url(#clip360)" d="M2080.56 681.463 L2085.24 681.463 L2085.24 696.069 L2100.75 681.463 L2106.77 681.463 L2089.61 697.574 L2107.99 716.023 L2101.83 716.023 L2085.24 699.379 L2085.24 716.023 L2080.56 716.023 L2080.56 681.463 Z" fill="#000000" fill-rule="nonzero" fill-opacity="1" /><path clip-path="url(#clip360)" d="M2131.28 701.995 L2131.28 704.078 L2111.7 704.078 Q2111.97 708.476 2114.33 710.791 Q2116.72 713.083 2120.96 713.083 Q2123.41 713.083 2125.7 712.481 Q2128.02 711.879 2130.28 710.676 L2130.28 714.703 Q2127.99 715.676 2125.58 716.185 Q2123.18 716.694 2120.7 716.694 Q2114.5 716.694 2110.86 713.083 Q2107.25 709.472 2107.25 703.314 Q2107.25 696.949 2110.68 693.222 Q2114.13 689.472 2119.96 689.472 Q2125.19 689.472 2128.22 692.852 Q2131.28 696.208 2131.28 701.995 M2127.02 700.745 Q2126.97 697.25 2125.05 695.166 Q2123.15 693.083 2120.01 693.083 Q2116.44 693.083 2114.29 695.097 Q2112.16 697.111 2111.83 700.768 L2127.02 700.745 Z" fill="#000000" fill-rule="nonzero" fill-opacity="1" /><path clip-path="url(#clip360)" d="M2159.82 700.375 L2159.82 716.023 L2155.56 716.023 L2155.56 700.514 Q2155.56 696.833 2154.13 695.004 Q2152.69 693.176 2149.82 693.176 Q2146.37 693.176 2144.38 695.375 Q2142.39 697.574 2142.39 701.37 L2142.39 716.023 L2138.11 716.023 L2138.11 690.097 L2142.39 690.097 L2142.39 694.125 Q2143.92 691.787 2145.98 690.629 Q2148.06 689.472 2150.77 689.472 Q2155.24 689.472 2157.53 692.25 Q2159.82 695.004 2159.82 700.375 Z" fill="#000000" fill-rule="nonzero" fill-opacity="1" /><path clip-path="url(#clip360)" d="M2194.38 684.125 L2194.38 689.055 Q2192.02 686.856 2189.33 685.768 Q2186.67 684.68 2183.66 684.68 Q2177.74 684.68 2174.59 688.315 Q2171.44 691.926 2171.44 698.777 Q2171.44 705.606 2174.59 709.24 Q2177.74 712.851 2183.66 712.851 Q2186.67 712.851 2189.33 711.763 Q2192.02 710.676 2194.38 708.476 L2194.38 713.361 Q2191.93 715.027 2189.17 715.861 Q2186.44 716.694 2183.39 716.694 Q2175.54 716.694 2171.02 711.902 Q2166.51 707.088 2166.51 698.777 Q2166.51 690.444 2171.02 685.653 Q2175.54 680.838 2183.39 680.838 Q2186.49 680.838 2189.22 681.671 Q2191.97 682.481 2194.38 684.125 Z" fill="#000000" fill-rule="nonzero" fill-opacity="1" /><path clip-path="url(#clip360)" d="M2213.2 702.99 Q2208.04 702.99 2206.05 704.171 Q2204.06 705.351 2204.06 708.199 Q2204.06 710.467 2205.54 711.81 Q2207.04 713.129 2209.61 713.129 Q2213.15 713.129 2215.28 710.629 Q2217.44 708.106 2217.44 703.939 L2217.44 702.99 L2213.2 702.99 M2221.7 701.231 L2221.7 716.023 L2217.44 716.023 L2217.44 712.088 Q2215.98 714.449 2213.8 715.583 Q2211.63 716.694 2208.48 716.694 Q2204.5 716.694 2202.14 714.472 Q2199.8 712.226 2199.8 708.476 Q2199.8 704.102 2202.71 701.879 Q2205.65 699.657 2211.46 699.657 L2217.44 699.657 L2217.44 699.24 Q2217.44 696.301 2215.49 694.703 Q2213.57 693.083 2210.08 693.083 Q2207.85 693.083 2205.75 693.615 Q2203.64 694.148 2201.7 695.213 L2201.7 691.277 Q2204.03 690.375 2206.23 689.935 Q2208.43 689.472 2210.51 689.472 Q2216.14 689.472 2218.92 692.389 Q2221.7 695.305 2221.7 701.231 Z" fill="#000000" fill-rule="nonzero" fill-opacity="1" /><path clip-path="url(#clip360)" d="M2245.49 694.078 Q2244.77 693.662 2243.92 693.477 Q2243.08 693.268 2242.07 693.268 Q2238.45 693.268 2236.51 695.629 Q2234.59 697.967 2234.59 702.365 L2234.59 716.023 L2230.31 716.023 L2230.31 690.097 L2234.59 690.097 L2234.59 694.125 Q2235.93 691.764 2238.08 690.629 Q2240.24 689.472 2243.32 689.472 Q2243.76 689.472 2244.29 689.541 Q2244.82 689.588 2245.47 689.703 L2245.49 694.078 Z" fill="#000000" fill-rule="nonzero" fill-opacity="1" /><path clip-path="url(#clip360)" d="M2254.08 712.134 L2254.08 725.884 L2249.8 725.884 L2249.8 690.097 L2254.08 690.097 L2254.08 694.032 Q2255.42 691.717 2257.46 690.606 Q2259.52 689.472 2262.37 689.472 Q2267.09 689.472 2270.03 693.222 Q2272.99 696.972 2272.99 703.083 Q2272.99 709.194 2270.03 712.944 Q2267.09 716.694 2262.37 716.694 Q2259.52 716.694 2257.46 715.583 Q2255.42 714.449 2254.08 712.134 M2268.57 703.083 Q2268.57 698.384 2266.63 695.722 Q2264.7 693.037 2261.32 693.037 Q2257.95 693.037 2256 695.722 Q2254.08 698.384 2254.08 703.083 Q2254.08 707.782 2256 710.467 Q2257.95 713.129 2261.32 713.129 Q2264.7 713.129 2266.63 710.467 Q2268.57 707.782 2268.57 703.083 Z" fill="#000000" fill-rule="nonzero" fill-opacity="1" /><path clip-path="url(#clip360)" d="M2293.5 685.537 L2281.7 703.986 L2293.5 703.986 L2293.5 685.537 M2292.27 681.463 L2298.15 681.463 L2298.15 703.986 L2303.08 703.986 L2303.08 707.875 L2298.15 707.875 L2298.15 716.023 L2293.5 716.023 L2293.5 707.875 L2277.9 707.875 L2277.9 703.361 L2292.27 681.463 Z" fill="#000000" fill-rule="nonzero" fill-opacity="1" /><path clip-path="url(#clip360)" d="M2309.63 681.463 L2331.86 681.463 L2331.86 683.453 L2319.31 716.023 L2314.43 716.023 L2326.23 685.398 L2309.63 685.398 L2309.63 681.463 Z" fill="#000000" fill-rule="nonzero" fill-opacity="1" /><polyline clip-path="url(#clip360)" style="stroke:#c271d2; stroke-linecap:round; stroke-linejoin:round; stroke-width:12; stroke-opacity:1; fill:none" points="1934.27,750.583 2059.66,750.583 "/>
<path clip-path="url(#clip360)" d="M1996.97 731.232 L1977.61 750.583 L1996.97 769.934 L2016.32 750.583 L1996.97 731.232 Z" fill="#c271d2" fill-rule="evenodd" fill-opacity="1" stroke="#000000" stroke-opacity="1" stroke-width="4.55111"/>
<path clip-path="url(#clip360)" d="M2080.56 733.303 L2085.24 733.303 L2085.24 747.909 L2100.75 733.303 L2106.77 733.303 L2089.61 749.414 L2107.99 767.863 L2101.83 767.863 L2085.24 751.219 L2085.24 767.863 L2080.56 767.863 L2080.56 733.303 Z" fill="#000000" fill-rule="nonzero" fill-opacity="1" /><path clip-path="url(#clip360)" d="M2108.41 741.937 L2112.92 741.937 L2121.02 763.696 L2129.13 741.937 L2133.64 741.937 L2123.92 767.863 L2118.13 767.863 L2108.41 741.937 Z" fill="#000000" fill-rule="nonzero" fill-opacity="1" /><path clip-path="url(#clip360)" d="M2151.3 754.83 Q2146.14 754.83 2144.15 756.011 Q2142.16 757.191 2142.16 760.039 Q2142.16 762.307 2143.64 763.65 Q2145.14 764.969 2147.71 764.969 Q2151.26 764.969 2153.39 762.469 Q2155.54 759.946 2155.54 755.779 L2155.54 754.83 L2151.3 754.83 M2159.8 753.071 L2159.8 767.863 L2155.54 767.863 L2155.54 763.928 Q2154.08 766.289 2151.9 767.423 Q2149.73 768.534 2146.58 768.534 Q2142.6 768.534 2140.24 766.312 Q2137.9 764.066 2137.9 760.316 Q2137.9 755.942 2140.82 753.719 Q2143.76 751.497 2149.57 751.497 L2155.54 751.497 L2155.54 751.08 Q2155.54 748.141 2153.59 746.543 Q2151.67 744.923 2148.18 744.923 Q2145.96 744.923 2143.85 745.455 Q2141.74 745.988 2139.8 747.053 L2139.8 743.117 Q2142.14 742.215 2144.33 741.775 Q2146.53 741.312 2148.62 741.312 Q2154.24 741.312 2157.02 744.229 Q2159.8 747.145 2159.8 753.071 Z" fill="#000000" fill-rule="nonzero" fill-opacity="1" /><path clip-path="url(#clip360)" d="M2190.75 753.835 L2190.75 755.918 L2171.16 755.918 Q2171.44 760.316 2173.8 762.631 Q2176.19 764.923 2180.42 764.923 Q2182.88 764.923 2185.17 764.321 Q2187.48 763.719 2189.75 762.516 L2189.75 766.543 Q2187.46 767.516 2185.05 768.025 Q2182.64 768.534 2180.17 768.534 Q2173.96 768.534 2170.33 764.923 Q2166.72 761.312 2166.72 755.154 Q2166.72 748.789 2170.14 745.062 Q2173.59 741.312 2179.43 741.312 Q2184.66 741.312 2187.69 744.692 Q2190.75 748.048 2190.75 753.835 M2186.49 752.585 Q2186.44 749.09 2184.52 747.006 Q2182.62 744.923 2179.47 744.923 Q2175.91 744.923 2173.76 746.937 Q2171.63 748.951 2171.3 752.608 L2186.49 752.585 Z" fill="#000000" fill-rule="nonzero" fill-opacity="1" /><path clip-path="url(#clip360)" d="M2212.76 745.918 Q2212.04 745.502 2211.19 745.317 Q2210.35 745.108 2209.33 745.108 Q2205.72 745.108 2203.78 747.469 Q2201.86 749.807 2201.86 754.205 L2201.86 767.863 L2197.58 767.863 L2197.58 741.937 L2201.86 741.937 L2201.86 745.965 Q2203.2 743.604 2205.35 742.469 Q2207.51 741.312 2210.58 741.312 Q2211.02 741.312 2211.56 741.381 Q2212.09 741.428 2212.74 741.543 L2212.76 745.918 Z" fill="#000000" fill-rule="nonzero" fill-opacity="1" /><path clip-path="url(#clip360)" d="M2237.95 752.215 L2237.95 767.863 L2233.69 767.863 L2233.69 752.354 Q2233.69 748.673 2232.25 746.844 Q2230.82 745.016 2227.95 745.016 Q2224.5 745.016 2222.51 747.215 Q2220.51 749.414 2220.51 753.21 L2220.51 767.863 L2216.23 767.863 L2216.23 741.937 L2220.51 741.937 L2220.51 745.965 Q2222.04 743.627 2224.1 742.469 Q2226.19 741.312 2228.89 741.312 Q2233.36 741.312 2235.65 744.09 Q2237.95 746.844 2237.95 752.215 Z" fill="#000000" fill-rule="nonzero" fill-opacity="1" /><path clip-path="url(#clip360)" d="M2256.49 744.923 Q2253.06 744.923 2251.07 747.608 Q2249.08 750.27 2249.08 754.923 Q2249.08 759.576 2251.05 762.261 Q2253.04 764.923 2256.49 764.923 Q2259.89 764.923 2261.88 762.238 Q2263.87 759.553 2263.87 754.923 Q2263.87 750.317 2261.88 747.631 Q2259.89 744.923 2256.49 744.923 M2256.49 741.312 Q2262.04 741.312 2265.21 744.923 Q2268.39 748.534 2268.39 754.923 Q2268.39 761.289 2265.21 764.923 Q2262.04 768.534 2256.49 768.534 Q2250.91 768.534 2247.74 764.923 Q2244.59 761.289 2244.59 754.923 Q2244.59 748.534 2247.74 744.923 Q2250.91 741.312 2256.49 741.312 Z" fill="#000000" fill-rule="nonzero" fill-opacity="1" /><path clip-path="url(#clip360)" d="M2276.09 733.303 L2294.45 733.303 L2294.45 737.238 L2280.38 737.238 L2280.38 745.71 Q2281.39 745.363 2282.41 745.201 Q2283.43 745.016 2284.45 745.016 Q2290.24 745.016 2293.62 748.187 Q2297 751.358 2297 756.775 Q2297 762.354 2293.52 765.455 Q2290.05 768.534 2283.73 768.534 Q2281.56 768.534 2279.29 768.164 Q2277.04 767.793 2274.63 767.053 L2274.63 762.354 Q2276.72 763.488 2278.94 764.043 Q2281.16 764.599 2283.64 764.599 Q2287.64 764.599 2289.98 762.492 Q2292.32 760.386 2292.32 756.775 Q2292.32 753.164 2289.98 751.057 Q2287.64 748.951 2283.64 748.951 Q2281.76 748.951 2279.89 749.367 Q2278.04 749.784 2276.09 750.664 L2276.09 733.303 Z" fill="#000000" fill-rule="nonzero" fill-opacity="1" /><polyline clip-path="url(#clip360)" style="stroke:#ac8d18; stroke-linecap:round; stroke-linejoin:round; stroke-width:12; stroke-opacity:1; fill:none" points="1934.27,802.423 2059.66,802.423 "/>
<path clip-path="url(#clip360)" d="M2016.32 783.072 L1977.61 783.072 L1996.97 821.774 L2016.32 783.072 Z" fill="#ac8d18" fill-rule="evenodd" fill-opacity="1" stroke="#000000" stroke-opacity="1" stroke-width="4.55111"/>
<path clip-path="url(#clip360)" d="M2096.58 788.314 Q2091.49 788.314 2088.48 792.11 Q2085.49 795.907 2085.49 802.457 Q2085.49 808.985 2088.48 812.781 Q2091.49 816.578 2096.58 816.578 Q2101.67 816.578 2104.64 812.781 Q2107.62 808.985 2107.62 802.457 Q2107.62 795.907 2104.64 792.11 Q2101.67 788.314 2096.58 788.314 M2103.13 819.078 L2109.29 825.814 L2103.64 825.814 L2098.52 820.281 Q2097.76 820.328 2097.34 820.351 Q2096.95 820.374 2096.58 820.374 Q2089.29 820.374 2084.91 815.513 Q2080.56 810.629 2080.56 802.457 Q2080.56 794.263 2084.91 789.402 Q2089.29 784.518 2096.58 784.518 Q2103.85 784.518 2108.2 789.402 Q2112.55 794.263 2112.55 802.457 Q2112.55 808.476 2110.12 812.758 Q2107.71 817.041 2103.13 819.078 Z" fill="#000000" fill-rule="nonzero" fill-opacity="1" /><path clip-path="url(#clip360)" d="M2119.87 785.143 L2126.16 785.143 L2141.49 814.055 L2141.49 785.143 L2146.02 785.143 L2146.02 819.703 L2139.73 819.703 L2124.4 790.791 L2124.4 819.703 L2119.87 819.703 L2119.87 785.143 Z" fill="#000000" fill-rule="nonzero" fill-opacity="1" /><path clip-path="url(#clip360)" d="M2160.01 788.985 L2160.01 815.86 L2165.65 815.86 Q2172.81 815.86 2176.12 812.619 Q2179.45 809.379 2179.45 802.388 Q2179.45 795.444 2176.12 792.226 Q2172.81 788.985 2165.65 788.985 L2160.01 788.985 M2155.33 785.143 L2164.94 785.143 Q2174.98 785.143 2179.68 789.333 Q2184.38 793.499 2184.38 802.388 Q2184.38 811.323 2179.66 815.513 Q2174.94 819.703 2164.94 819.703 L2155.33 819.703 L2155.33 785.143 Z" fill="#000000" fill-rule="nonzero" fill-opacity="1" /><path clip-path="url(#clip360)" d="M2191.83 785.143 L2211.7 785.143 L2211.7 789.078 L2196.51 789.078 L2196.51 799.263 L2210.21 799.263 L2210.21 803.198 L2196.51 803.198 L2196.51 819.703 L2191.83 819.703 L2191.83 785.143 Z" fill="#000000" fill-rule="nonzero" fill-opacity="1" /><polyline clip-path="url(#clip360)" style="stroke:#00a9ad; stroke-linecap:round; stroke-linejoin:round; stroke-width:12; stroke-opacity:1; fill:none" points="1934.27,854.263 2059.66,854.263 "/>
<path clip-path="url(#clip360)" d="M1996.97 834.912 L1981.83 842.207 L1978.1 858.578 L1988.57 871.698 L2005.36 871.698 L2015.83 858.578 L2012.1 842.207 Z" fill="#00a9ad" fill-rule="evenodd" fill-opacity="1" stroke="#000000" stroke-opacity="1" stroke-width="4.55111"/>
<path clip-path="url(#clip360)" d="M2080.56 836.983 L2100.42 836.983 L2100.42 840.918 L2085.24 840.918 L2085.24 851.103 L2098.94 851.103 L2098.94 855.038 L2085.24 855.038 L2085.24 871.543 L2080.56 871.543 L2080.56 836.983 Z" fill="#000000" fill-rule="nonzero" fill-opacity="1" /><path clip-path="url(#clip360)" d="M2112.51 855.038 L2112.51 867.7 L2120.01 867.7 Q2123.78 867.7 2125.58 866.149 Q2127.41 864.575 2127.41 861.358 Q2127.41 858.117 2125.58 856.589 Q2123.78 855.038 2120.01 855.038 L2112.51 855.038 M2112.51 840.825 L2112.51 851.242 L2119.43 851.242 Q2122.85 851.242 2124.52 849.969 Q2126.21 848.672 2126.21 846.034 Q2126.21 843.418 2124.52 842.122 Q2122.85 840.825 2119.43 840.825 L2112.51 840.825 M2107.83 836.983 L2119.77 836.983 Q2125.12 836.983 2128.02 839.205 Q2130.91 841.427 2130.91 845.524 Q2130.91 848.696 2129.43 850.571 Q2127.95 852.446 2125.08 852.909 Q2128.52 853.649 2130.42 856.01 Q2132.34 858.348 2132.34 861.867 Q2132.34 866.496 2129.2 869.02 Q2126.05 871.543 2120.24 871.543 L2107.83 871.543 L2107.83 836.983 Z" fill="#000000" fill-rule="nonzero" fill-opacity="1" /><path clip-path="url(#clip360)" d="M2145.03 840.825 L2145.03 867.7 L2150.68 867.7 Q2157.83 867.7 2161.14 864.459 Q2164.47 861.219 2164.47 854.228 Q2164.47 847.284 2161.14 844.066 Q2157.83 840.825 2150.68 840.825 L2145.03 840.825 M2140.35 836.983 L2149.96 836.983 Q2160.01 836.983 2164.71 841.173 Q2169.4 845.339 2169.4 854.228 Q2169.4 863.163 2164.68 867.353 Q2159.96 871.543 2149.96 871.543 L2140.35 871.543 L2140.35 836.983 Z" fill="#000000" fill-rule="nonzero" fill-opacity="1" /><path clip-path="url(#clip360)" d="M2176.86 836.983 L2196.72 836.983 L2196.72 840.918 L2181.53 840.918 L2181.53 851.103 L2195.24 851.103 L2195.24 855.038 L2181.53 855.038 L2181.53 871.543 L2176.86 871.543 L2176.86 836.983 Z" fill="#000000" fill-rule="nonzero" fill-opacity="1" /><polyline clip-path="url(#clip360)" style="stroke:#ed5d92; stroke-linecap:round; stroke-linejoin:round; stroke-width:12; stroke-opacity:1; fill:none" points="1934.27,906.103 2059.66,906.103 "/>
<path clip-path="url(#clip360)" d="M1996.97 925.454 L1980.21 915.778 L1980.21 896.427 L1996.97 886.752 L2013.72 896.427 L2013.72 915.778 Z" fill="#ed5d92" fill-rule="evenodd" fill-opacity="1" stroke="#000000" stroke-opacity="1" stroke-width="4.55111"/>
<path clip-path="url(#clip360)" d="M2096.95 907.179 Q2098.46 907.688 2099.87 909.355 Q2101.3 911.022 2102.74 913.938 L2107.48 923.383 L2102.46 923.383 L2098.04 914.517 Q2096.33 911.045 2094.71 909.911 Q2093.11 908.776 2090.33 908.776 L2085.24 908.776 L2085.24 923.383 L2080.56 923.383 L2080.56 888.823 L2091.12 888.823 Q2097.04 888.823 2099.96 891.3 Q2102.88 893.776 2102.88 898.776 Q2102.88 902.04 2101.35 904.193 Q2099.84 906.346 2096.95 907.179 M2085.24 892.665 L2085.24 904.934 L2091.12 904.934 Q2094.5 904.934 2096.21 903.383 Q2097.95 901.809 2097.95 898.776 Q2097.95 895.744 2096.21 894.216 Q2094.5 892.665 2091.12 892.665 L2085.24 892.665 Z" fill="#000000" fill-rule="nonzero" fill-opacity="1" /><path clip-path="url(#clip360)" d="M2121.23 900.443 Q2117.81 900.443 2115.82 903.128 Q2113.83 905.79 2113.83 910.443 Q2113.83 915.096 2115.79 917.781 Q2117.78 920.443 2121.23 920.443 Q2124.64 920.443 2126.63 917.758 Q2128.62 915.073 2128.62 910.443 Q2128.62 905.837 2126.63 903.151 Q2124.64 900.443 2121.23 900.443 M2121.23 896.832 Q2126.79 896.832 2129.96 900.443 Q2133.13 904.054 2133.13 910.443 Q2133.13 916.809 2129.96 920.443 Q2126.79 924.054 2121.23 924.054 Q2115.65 924.054 2112.48 920.443 Q2109.33 916.809 2109.33 910.443 Q2109.33 904.054 2112.48 900.443 Q2115.65 896.832 2121.23 896.832 Z" fill="#000000" fill-rule="nonzero" fill-opacity="1" /><path clip-path="url(#clip360)" d="M2157.25 901.392 L2157.25 887.364 L2161.51 887.364 L2161.51 923.383 L2157.25 923.383 L2157.25 919.494 Q2155.91 921.809 2153.85 922.943 Q2151.81 924.054 2148.94 924.054 Q2144.24 924.054 2141.28 920.304 Q2138.34 916.554 2138.34 910.443 Q2138.34 904.332 2141.28 900.582 Q2144.24 896.832 2148.94 896.832 Q2151.81 896.832 2153.85 897.966 Q2155.91 899.077 2157.25 901.392 M2142.74 910.443 Q2142.74 915.142 2144.66 917.827 Q2146.6 920.489 2149.98 920.489 Q2153.36 920.489 2155.31 917.827 Q2157.25 915.142 2157.25 910.443 Q2157.25 905.744 2155.31 903.082 Q2153.36 900.397 2149.98 900.397 Q2146.6 900.397 2144.66 903.082 Q2142.74 905.744 2142.74 910.443 Z" fill="#000000" fill-rule="nonzero" fill-opacity="1" /><path clip-path="url(#clip360)" d="M2182.07 910.35 Q2176.9 910.35 2174.91 911.531 Q2172.92 912.711 2172.92 915.559 Q2172.92 917.827 2174.4 919.17 Q2175.91 920.489 2178.48 920.489 Q2182.02 920.489 2184.15 917.989 Q2186.3 915.466 2186.3 911.299 L2186.3 910.35 L2182.07 910.35 M2190.56 908.591 L2190.56 923.383 L2186.3 923.383 L2186.3 919.448 Q2184.84 921.809 2182.67 922.943 Q2180.49 924.054 2177.34 924.054 Q2173.36 924.054 2171 921.832 Q2168.66 919.586 2168.66 915.836 Q2168.66 911.462 2171.58 909.239 Q2174.52 907.017 2180.33 907.017 L2186.3 907.017 L2186.3 906.6 Q2186.3 903.661 2184.36 902.063 Q2182.44 900.443 2178.94 900.443 Q2176.72 900.443 2174.61 900.975 Q2172.51 901.508 2170.56 902.573 L2170.56 898.637 Q2172.9 897.735 2175.1 897.295 Q2177.3 896.832 2179.38 896.832 Q2185.01 896.832 2187.78 899.749 Q2190.56 902.665 2190.56 908.591 Z" fill="#000000" fill-rule="nonzero" fill-opacity="1" /><path clip-path="url(#clip360)" d="M2215.86 898.221 L2215.86 902.249 Q2214.06 901.323 2212.11 900.86 Q2210.17 900.397 2208.08 900.397 Q2204.91 900.397 2203.32 901.369 Q2201.74 902.341 2201.74 904.286 Q2201.74 905.767 2202.88 906.624 Q2204.01 907.457 2207.44 908.221 L2208.89 908.545 Q2213.43 909.517 2215.33 911.299 Q2217.25 913.059 2217.25 916.23 Q2217.25 919.841 2214.38 921.948 Q2211.53 924.054 2206.53 924.054 Q2204.45 924.054 2202.18 923.637 Q2199.94 923.244 2197.44 922.434 L2197.44 918.036 Q2199.8 919.262 2202.09 919.887 Q2204.38 920.489 2206.63 920.489 Q2209.64 920.489 2211.26 919.471 Q2212.88 918.429 2212.88 916.554 Q2212.88 914.818 2211.7 913.892 Q2210.54 912.966 2206.58 912.11 L2205.1 911.762 Q2201.14 910.929 2199.38 909.216 Q2197.62 907.48 2197.62 904.471 Q2197.62 900.813 2200.21 898.823 Q2202.81 896.832 2207.58 896.832 Q2209.94 896.832 2212.02 897.179 Q2214.1 897.526 2215.86 898.221 Z" fill="#000000" fill-rule="nonzero" fill-opacity="1" /><path clip-path="url(#clip360)" d="M2224.68 888.823 L2243.04 888.823 L2243.04 892.758 L2228.96 892.758 L2228.96 901.23 Q2229.98 900.883 2231 900.721 Q2232.02 900.536 2233.04 900.536 Q2238.82 900.536 2242.2 903.707 Q2245.58 906.878 2245.58 912.295 Q2245.58 917.874 2242.11 920.975 Q2238.64 924.054 2232.32 924.054 Q2230.14 924.054 2227.88 923.684 Q2225.63 923.313 2223.22 922.573 L2223.22 917.874 Q2225.31 919.008 2227.53 919.563 Q2229.75 920.119 2232.23 920.119 Q2236.23 920.119 2238.57 918.012 Q2240.91 915.906 2240.91 912.295 Q2240.91 908.684 2238.57 906.577 Q2236.23 904.471 2232.23 904.471 Q2230.35 904.471 2228.48 904.887 Q2226.63 905.304 2224.68 906.184 L2224.68 888.823 Z" fill="#000000" fill-rule="nonzero" fill-opacity="1" /><path clip-path="url(#clip360)" d="M2259.06 892.665 L2259.06 905.651 L2264.94 905.651 Q2268.2 905.651 2269.98 903.962 Q2271.76 902.272 2271.76 899.147 Q2271.76 896.045 2269.98 894.355 Q2268.2 892.665 2264.94 892.665 L2259.06 892.665 M2254.38 888.823 L2264.94 888.823 Q2270.75 888.823 2273.71 891.462 Q2276.7 894.077 2276.7 899.147 Q2276.7 904.262 2273.71 906.878 Q2270.75 909.494 2264.94 909.494 L2259.06 909.494 L2259.06 923.383 L2254.38 923.383 L2254.38 888.823 Z" fill="#000000" fill-rule="nonzero" fill-opacity="1" /></svg>
