<?xml version="1.0" encoding="utf-8"?>
<svg xmlns="http://www.w3.org/2000/svg" xmlns:xlink="http://www.w3.org/1999/xlink" width="800" height="400" viewBox="0 0 3200 1600">
<defs>
  <clipPath id="clip300">
    <rect x="0" y="0" width="3200" height="1600"/>
  </clipPath>
</defs>
<path clip-path="url(#clip300)" d="M0 1600 L3200 1600 L3200 0 L0 0  Z" fill="#ffffff" fill-rule="evenodd" fill-opacity="1"/>
<defs>
  <clipPath id="clip301">
    <rect x="335" y="47" width="2818" height="1449"/>
  </clipPath>
</defs>
<path clip-path="url(#clip300)" d="M335.728 1495.09 L3152.76 1495.09 L3152.76 47.2441 L335.728 47.2441  Z" fill="#ffffff" fill-rule="evenodd" fill-opacity="1"/>
<polyline clip-path="url(#clip301)" style="stroke:#000000; stroke-linecap:round; stroke-linejoin:round; stroke-width:2; stroke-opacity:0.1; fill:none" points="531.002,1495.09 531.002,47.2441 "/>
<polyline clip-path="url(#clip301)" style="stroke:#000000; stroke-linecap:round; stroke-linejoin:round; stroke-width:2; stroke-opacity:0.1; fill:none" points="935.415,1495.09 935.415,47.2441 "/>
<polyline clip-path="url(#clip301)" style="stroke:#000000; stroke-linecap:round; stroke-linejoin:round; stroke-width:2; stroke-opacity:0.1; fill:none" points="1339.83,1495.09 1339.83,47.2441 "/>
<polyline clip-path="url(#clip301)" style="stroke:#000000; stroke-linecap:round; stroke-linejoin:round; stroke-width:2; stroke-opacity:0.1; fill:none" points="1744.24,1495.09 1744.24,47.2441 "/>
<polyline clip-path="url(#clip301)" style="stroke:#000000; stroke-linecap:round; stroke-linejoin:round; stroke-width:2; stroke-opacity:0.1; fill:none" points="2148.66,1495.09 2148.66,47.2441 "/>
<polyline clip-path="url(#clip301)" style="stroke:#000000; stroke-linecap:round; stroke-linejoin:round; stroke-width:2; stroke-opacity:0.1; fill:none" points="2553.07,1495.09 2553.07,47.2441 "/>
<polyline clip-path="url(#clip301)" style="stroke:#000000; stroke-linecap:round; stroke-linejoin:round; stroke-width:2; stroke-opacity:0.1; fill:none" points="2957.48,1495.09 2957.48,47.2441 "/>
<polyline clip-path="url(#clip301)" style="stroke:#000000; stroke-linecap:round; stroke-linejoin:round; stroke-width:2; stroke-opacity:0.1; fill:none" points="335.728,1295.27 3152.76,1295.27 "/>
<polyline clip-path="url(#clip301)" style="stroke:#000000; stroke-linecap:round; stroke-linejoin:round; stroke-width:2; stroke-opacity:0.1; fill:none" points="335.728,1010.57 3152.76,1010.57 "/>
<polyline clip-path="url(#clip301)" style="stroke:#000000; stroke-linecap:round; stroke-linejoin:round; stroke-width:2; stroke-opacity:0.1; fill:none" points="335.728,725.859 3152.76,725.859 "/>
<polyline clip-path="url(#clip301)" style="stroke:#000000; stroke-linecap:round; stroke-linejoin:round; stroke-width:2; stroke-opacity:0.1; fill:none" points="335.728,441.152 3152.76,441.152 "/>
<polyline clip-path="url(#clip301)" style="stroke:#000000; stroke-linecap:round; stroke-linejoin:round; stroke-width:2; stroke-opacity:0.1; fill:none" points="335.728,156.445 3152.76,156.445 "/>
<polyline clip-path="url(#clip300)" style="stroke:#000000; stroke-linecap:round; stroke-linejoin:round; stroke-width:4; stroke-opacity:1; fill:none" points="335.728,1495.09 3152.76,1495.09 "/>
<polyline clip-path="url(#clip300)" style="stroke:#000000; stroke-linecap:round; stroke-linejoin:round; stroke-width:4; stroke-opacity:1; fill:none" points="531.002,1495.09 531.002,1476.19 "/>
<polyline clip-path="url(#clip300)" style="stroke:#000000; stroke-linecap:round; stroke-linejoin:round; stroke-width:4; stroke-opacity:1; fill:none" points="935.415,1495.09 935.415,1476.19 "/>
<polyline clip-path="url(#clip300)" style="stroke:#000000; stroke-linecap:round; stroke-linejoin:round; stroke-width:4; stroke-opacity:1; fill:none" points="1339.83,1495.09 1339.83,1476.19 "/>
<polyline clip-path="url(#clip300)" style="stroke:#000000; stroke-linecap:round; stroke-linejoin:round; stroke-width:4; stroke-opacity:1; fill:none" points="1744.24,1495.09 1744.24,1476.19 "/>
<polyline clip-path="url(#clip300)" style="stroke:#000000; stroke-linecap:round; stroke-linejoin:round; stroke-width:4; stroke-opacity:1; fill:none" points="2148.66,1495.09 2148.66,1476.19 "/>
<polyline clip-path="url(#clip300)" style="stroke:#000000; stroke-linecap:round; stroke-linejoin:round; stroke-width:4; stroke-opacity:1; fill:none" points="2553.07,1495.09 2553.07,1476.19 "/>
<polyline clip-path="url(#clip300)" style="stroke:#000000; stroke-linecap:round; stroke-linejoin:round; stroke-width:4; stroke-opacity:1; fill:none" points="2957.48,1495.09 2957.48,1476.19 "/>
<path clip-path="url(#clip300)" d="M439.127 1529.33 L468.363 1529.33 L468.363 1533.26 L456.095 1533.26 L456.095 1563.89 L451.396 1563.89 L451.396 1533.26 L439.127 1533.26 L439.127 1529.33 Z" fill="#000000" fill-rule="nonzero" fill-opacity="1" /><path clip-path="url(#clip300)" d="M489.266 1547.68 Q490.771 1548.19 492.183 1549.86 Q493.618 1551.53 495.053 1554.44 L499.798 1563.89 L494.775 1563.89 L490.354 1555.02 Q488.641 1551.55 487.021 1550.42 Q485.424 1549.28 482.646 1549.28 L477.553 1549.28 L477.553 1563.89 L472.877 1563.89 L472.877 1529.33 L483.433 1529.33 Q489.359 1529.33 492.275 1531.8 Q495.192 1534.28 495.192 1539.28 Q495.192 1542.55 493.664 1544.7 Q492.16 1546.85 489.266 1547.68 M477.553 1533.17 L477.553 1545.44 L483.433 1545.44 Q486.812 1545.44 488.525 1543.89 Q490.261 1542.31 490.261 1539.28 Q490.261 1536.25 488.525 1534.72 Q486.812 1533.17 483.433 1533.17 L477.553 1533.17 Z" fill="#000000" fill-rule="nonzero" fill-opacity="1" /><path clip-path="url(#clip300)" d="M510.493 1547.38 L510.493 1560.05 L517.993 1560.05 Q521.766 1560.05 523.571 1558.49 Q525.4 1556.92 525.4 1553.7 Q525.4 1550.46 523.571 1548.93 Q521.766 1547.38 517.993 1547.38 L510.493 1547.38 M510.493 1533.17 L510.493 1543.59 L517.414 1543.59 Q520.84 1543.59 522.507 1542.31 Q524.196 1541.02 524.196 1538.38 Q524.196 1535.76 522.507 1534.47 Q520.84 1533.17 517.414 1533.17 L510.493 1533.17 M505.817 1529.33 L517.761 1529.33 Q523.108 1529.33 526.002 1531.55 Q528.896 1533.77 528.896 1537.87 Q528.896 1541.04 527.414 1542.92 Q525.933 1544.79 523.062 1545.25 Q526.511 1545.99 528.409 1548.36 Q530.331 1550.69 530.331 1554.21 Q530.331 1558.84 527.183 1561.36 Q524.034 1563.89 518.224 1563.89 L505.817 1563.89 L505.817 1529.33 Z" fill="#000000" fill-rule="nonzero" fill-opacity="1" /><path clip-path="url(#clip300)" d="M543.016 1533.17 L543.016 1560.05 L548.664 1560.05 Q555.817 1560.05 559.127 1556.8 Q562.46 1553.56 562.46 1546.57 Q562.46 1539.63 559.127 1536.41 Q555.817 1533.17 548.664 1533.17 L543.016 1533.17 M538.34 1529.33 L547.946 1529.33 Q557.993 1529.33 562.692 1533.52 Q567.391 1537.68 567.391 1546.57 Q567.391 1555.51 562.668 1559.7 Q557.946 1563.89 547.946 1563.89 L538.34 1563.89 L538.34 1529.33 Z" fill="#000000" fill-rule="nonzero" fill-opacity="1" /><path clip-path="url(#clip300)" d="M574.844 1529.33 L594.705 1529.33 L594.705 1533.26 L579.52 1533.26 L579.52 1543.45 L593.224 1543.45 L593.224 1547.38 L579.52 1547.38 L579.52 1563.89 L574.844 1563.89 L574.844 1529.33 Z" fill="#000000" fill-rule="nonzero" fill-opacity="1" /><path clip-path="url(#clip300)" d="M606.557 1559.95 L622.876 1559.95 L622.876 1563.89 L600.932 1563.89 L600.932 1559.95 Q603.594 1557.2 608.177 1552.57 Q612.784 1547.92 613.964 1546.57 Q616.21 1544.05 617.089 1542.31 Q617.992 1540.55 617.992 1538.86 Q617.992 1536.11 616.048 1534.37 Q614.127 1532.64 611.025 1532.64 Q608.826 1532.64 606.372 1533.4 Q603.941 1534.17 601.164 1535.72 L601.164 1530.99 Q603.988 1529.86 606.441 1529.28 Q608.895 1528.7 610.932 1528.7 Q616.302 1528.7 619.497 1531.39 Q622.691 1534.07 622.691 1538.56 Q622.691 1540.69 621.881 1542.61 Q621.094 1544.51 618.988 1547.11 Q618.409 1547.78 615.307 1550.99 Q612.205 1554.19 606.557 1559.95 Z" fill="#000000" fill-rule="nonzero" fill-opacity="1" /><path clip-path="url(#clip300)" d="M827.198 1529.33 L831.874 1529.33 L831.874 1543.93 L847.383 1529.33 L853.402 1529.33 L836.249 1545.44 L854.629 1563.89 L848.471 1563.89 L831.874 1547.24 L831.874 1563.89 L827.198 1563.89 L827.198 1529.33 Z" fill="#000000" fill-rule="nonzero" fill-opacity="1" /><path clip-path="url(#clip300)" d="M855.045 1537.96 L859.559 1537.96 L867.661 1559.72 L875.763 1537.96 L880.277 1537.96 L870.555 1563.89 L864.768 1563.89 L855.045 1537.96 Z" fill="#000000" fill-rule="nonzero" fill-opacity="1" /><path clip-path="url(#clip300)" d="M897.939 1550.86 Q892.777 1550.86 890.786 1552.04 Q888.795 1553.22 888.795 1556.06 Q888.795 1558.33 890.277 1559.67 Q891.781 1560.99 894.351 1560.99 Q897.892 1560.99 900.022 1558.49 Q902.175 1555.97 902.175 1551.8 L902.175 1550.86 L897.939 1550.86 M906.434 1549.1 L906.434 1563.89 L902.175 1563.89 L902.175 1559.95 Q900.716 1562.31 898.541 1563.45 Q896.365 1564.56 893.216 1564.56 Q889.235 1564.56 886.874 1562.34 Q884.536 1560.09 884.536 1556.34 Q884.536 1551.97 887.453 1549.74 Q890.392 1547.52 896.203 1547.52 L902.175 1547.52 L902.175 1547.11 Q902.175 1544.17 900.23 1542.57 Q898.309 1540.95 894.814 1540.95 Q892.591 1540.95 890.485 1541.48 Q888.379 1542.01 886.434 1543.08 L886.434 1539.14 Q888.772 1538.24 890.971 1537.8 Q893.17 1537.34 895.253 1537.34 Q900.878 1537.34 903.656 1540.25 Q906.434 1543.17 906.434 1549.1 Z" fill="#000000" fill-rule="nonzero" fill-opacity="1" /><path clip-path="url(#clip300)" d="M937.383 1549.86 L937.383 1551.94 L917.8 1551.94 Q918.077 1556.34 920.439 1558.66 Q922.823 1560.95 927.059 1560.95 Q929.513 1560.95 931.804 1560.35 Q934.119 1559.74 936.388 1558.54 L936.388 1562.57 Q934.096 1563.54 931.688 1564.05 Q929.281 1564.56 926.804 1564.56 Q920.601 1564.56 916.966 1560.95 Q913.355 1557.34 913.355 1551.18 Q913.355 1544.81 916.781 1541.09 Q920.23 1537.34 926.064 1537.34 Q931.295 1537.34 934.327 1540.72 Q937.383 1544.07 937.383 1549.86 M933.124 1548.61 Q933.077 1545.11 931.156 1543.03 Q929.258 1540.95 926.11 1540.95 Q922.545 1540.95 920.392 1542.96 Q918.263 1544.98 917.939 1548.63 L933.124 1548.61 Z" fill="#000000" fill-rule="nonzero" fill-opacity="1" /><path clip-path="url(#clip300)" d="M959.397 1541.94 Q958.679 1541.53 957.823 1541.34 Q956.989 1541.13 955.971 1541.13 Q952.36 1541.13 950.415 1543.49 Q948.494 1545.83 948.494 1550.23 L948.494 1563.89 L944.212 1563.89 L944.212 1537.96 L948.494 1537.96 L948.494 1541.99 Q949.837 1539.63 951.989 1538.49 Q954.142 1537.34 957.221 1537.34 Q957.661 1537.34 958.193 1537.41 Q958.725 1537.45 959.374 1537.57 L959.397 1541.94 Z" fill="#000000" fill-rule="nonzero" fill-opacity="1" /><path clip-path="url(#clip300)" d="M984.582 1548.24 L984.582 1563.89 L980.322 1563.89 L980.322 1548.38 Q980.322 1544.7 978.887 1542.87 Q977.452 1541.04 974.582 1541.04 Q971.133 1541.04 969.142 1543.24 Q967.151 1545.44 967.151 1549.24 L967.151 1563.89 L962.869 1563.89 L962.869 1537.96 L967.151 1537.96 L967.151 1541.99 Q968.679 1539.65 970.739 1538.49 Q972.823 1537.34 975.531 1537.34 Q979.998 1537.34 982.29 1540.11 Q984.582 1542.87 984.582 1548.24 Z" fill="#000000" fill-rule="nonzero" fill-opacity="1" /><path clip-path="url(#clip300)" d="M1003.12 1540.95 Q999.697 1540.95 997.707 1543.63 Q995.716 1546.3 995.716 1550.95 Q995.716 1555.6 997.684 1558.29 Q999.674 1560.95 1003.12 1560.95 Q1006.53 1560.95 1008.52 1558.26 Q1010.51 1555.58 1010.51 1550.95 Q1010.51 1546.34 1008.52 1543.66 Q1006.53 1540.95 1003.12 1540.95 M1003.12 1537.34 Q1008.68 1537.34 1011.85 1540.95 Q1015.02 1544.56 1015.02 1550.95 Q1015.02 1557.31 1011.85 1560.95 Q1008.68 1564.56 1003.12 1564.56 Q997.545 1564.56 994.373 1560.95 Q991.225 1557.31 991.225 1550.95 Q991.225 1544.56 994.373 1540.95 Q997.545 1537.34 1003.12 1537.34 Z" fill="#000000" fill-rule="nonzero" fill-opacity="1" /><path clip-path="url(#clip300)" d="M1022.73 1529.33 L1041.09 1529.33 L1041.09 1533.26 L1027.01 1533.26 L1027.01 1541.74 Q1028.03 1541.39 1029.05 1541.23 Q1030.07 1541.04 1031.09 1541.04 Q1036.87 1541.04 1040.25 1544.21 Q1043.63 1547.38 1043.63 1552.8 Q1043.63 1558.38 1040.16 1561.48 Q1036.69 1564.56 1030.37 1564.56 Q1028.19 1564.56 1025.92 1564.19 Q1023.68 1563.82 1021.27 1563.08 L1021.27 1558.38 Q1023.35 1559.51 1025.58 1560.07 Q1027.8 1560.62 1030.28 1560.62 Q1034.28 1560.62 1036.62 1558.52 Q1038.96 1556.41 1038.96 1552.8 Q1038.96 1549.19 1036.62 1547.08 Q1034.28 1544.98 1030.28 1544.98 Q1028.4 1544.98 1026.53 1545.39 Q1024.67 1545.81 1022.73 1546.69 L1022.73 1529.33 Z" fill="#000000" fill-rule="nonzero" fill-opacity="1" /><path clip-path="url(#clip300)" d="M1228.57 1529.33 L1233.24 1529.33 L1233.24 1543.93 L1248.75 1529.33 L1254.77 1529.33 L1237.62 1545.44 L1256 1563.89 L1249.84 1563.89 L1233.24 1547.24 L1233.24 1563.89 L1228.57 1563.89 L1228.57 1529.33 Z" fill="#000000" fill-rule="nonzero" fill-opacity="1" /><path clip-path="url(#clip300)" d="M1279.29 1549.86 L1279.29 1551.94 L1259.7 1551.94 Q1259.98 1556.34 1262.34 1558.66 Q1264.72 1560.95 1268.96 1560.95 Q1271.41 1560.95 1273.71 1560.35 Q1276.02 1559.74 1278.29 1558.54 L1278.29 1562.57 Q1276 1563.54 1273.59 1564.05 Q1271.18 1564.56 1268.71 1564.56 Q1262.5 1564.56 1258.87 1560.95 Q1255.26 1557.34 1255.26 1551.18 Q1255.26 1544.81 1258.68 1541.09 Q1262.13 1537.34 1267.97 1537.34 Q1273.2 1537.34 1276.23 1540.72 Q1279.29 1544.07 1279.29 1549.86 M1275.03 1548.61 Q1274.98 1545.11 1273.06 1543.03 Q1271.16 1540.95 1268.01 1540.95 Q1264.45 1540.95 1262.29 1542.96 Q1260.16 1544.98 1259.84 1548.63 L1275.03 1548.61 Z" fill="#000000" fill-rule="nonzero" fill-opacity="1" /><path clip-path="url(#clip300)" d="M1307.83 1548.24 L1307.83 1563.89 L1303.57 1563.89 L1303.57 1548.38 Q1303.57 1544.7 1302.13 1542.87 Q1300.7 1541.04 1297.83 1541.04 Q1294.38 1541.04 1292.39 1543.24 Q1290.4 1545.44 1290.4 1549.24 L1290.4 1563.89 L1286.11 1563.89 L1286.11 1537.96 L1290.4 1537.96 L1290.4 1541.99 Q1291.92 1539.65 1293.98 1538.49 Q1296.07 1537.34 1298.78 1537.34 Q1303.24 1537.34 1305.53 1540.11 Q1307.83 1542.87 1307.83 1548.24 Z" fill="#000000" fill-rule="nonzero" fill-opacity="1" /><path clip-path="url(#clip300)" d="M1342.39 1531.99 L1342.39 1536.92 Q1340.03 1534.72 1337.34 1533.63 Q1334.68 1532.55 1331.67 1532.55 Q1325.74 1532.55 1322.59 1536.18 Q1319.45 1539.79 1319.45 1546.64 Q1319.45 1553.47 1322.59 1557.11 Q1325.74 1560.72 1331.67 1560.72 Q1334.68 1560.72 1337.34 1559.63 Q1340.03 1558.54 1342.39 1556.34 L1342.39 1561.23 Q1339.93 1562.89 1337.18 1563.73 Q1334.45 1564.56 1331.39 1564.56 Q1323.54 1564.56 1319.03 1559.77 Q1314.52 1554.95 1314.52 1546.64 Q1314.52 1538.31 1319.03 1533.52 Q1323.54 1528.7 1331.39 1528.7 Q1334.49 1528.7 1337.22 1529.54 Q1339.98 1530.35 1342.39 1531.99 Z" fill="#000000" fill-rule="nonzero" fill-opacity="1" /><path clip-path="url(#clip300)" d="M1361.21 1550.86 Q1356.04 1550.86 1354.05 1552.04 Q1352.06 1553.22 1352.06 1556.06 Q1352.06 1558.33 1353.54 1559.67 Q1355.05 1560.99 1357.62 1560.99 Q1361.16 1560.99 1363.29 1558.49 Q1365.44 1555.97 1365.44 1551.8 L1365.44 1550.86 L1361.21 1550.86 M1369.7 1549.1 L1369.7 1563.89 L1365.44 1563.89 L1365.44 1559.95 Q1363.98 1562.31 1361.81 1563.45 Q1359.63 1564.56 1356.48 1564.56 Q1352.5 1564.56 1350.14 1562.34 Q1347.8 1560.09 1347.8 1556.34 Q1347.8 1551.97 1350.72 1549.74 Q1353.66 1547.52 1359.47 1547.52 L1365.44 1547.52 L1365.44 1547.11 Q1365.44 1544.17 1363.5 1542.57 Q1361.58 1540.95 1358.08 1540.95 Q1355.86 1540.95 1353.75 1541.48 Q1351.65 1542.01 1349.7 1543.08 L1349.7 1539.14 Q1352.04 1538.24 1354.24 1537.8 Q1356.44 1537.34 1358.52 1537.34 Q1364.15 1537.34 1366.92 1540.25 Q1369.7 1543.17 1369.7 1549.1 Z" fill="#000000" fill-rule="nonzero" fill-opacity="1" /><path clip-path="url(#clip300)" d="M1393.5 1541.94 Q1392.78 1541.53 1391.92 1541.34 Q1391.09 1541.13 1390.07 1541.13 Q1386.46 1541.13 1384.52 1543.49 Q1382.59 1545.83 1382.59 1550.23 L1382.59 1563.89 L1378.31 1563.89 L1378.31 1537.96 L1382.59 1537.96 L1382.59 1541.99 Q1383.94 1539.63 1386.09 1538.49 Q1388.24 1537.34 1391.32 1537.34 Q1391.76 1537.34 1392.29 1537.41 Q1392.83 1537.45 1393.47 1537.57 L1393.5 1541.94 Z" fill="#000000" fill-rule="nonzero" fill-opacity="1" /><path clip-path="url(#clip300)" d="M1402.09 1560 L1402.09 1573.75 L1397.8 1573.75 L1397.8 1537.96 L1402.09 1537.96 L1402.09 1541.9 Q1403.43 1539.58 1405.46 1538.47 Q1407.53 1537.34 1410.37 1537.34 Q1415.09 1537.34 1418.03 1541.09 Q1421 1544.84 1421 1550.95 Q1421 1557.06 1418.03 1560.81 Q1415.09 1564.56 1410.37 1564.56 Q1407.53 1564.56 1405.46 1563.45 Q1403.43 1562.31 1402.09 1560 M1416.58 1550.95 Q1416.58 1546.25 1414.63 1543.59 Q1412.71 1540.9 1409.33 1540.9 Q1405.95 1540.9 1404.01 1543.59 Q1402.09 1546.25 1402.09 1550.95 Q1402.09 1555.65 1404.01 1558.33 Q1405.95 1560.99 1409.33 1560.99 Q1412.71 1560.99 1414.63 1558.33 Q1416.58 1555.65 1416.58 1550.95 Z" fill="#000000" fill-rule="nonzero" fill-opacity="1" /><path clip-path="url(#clip300)" d="M1441.51 1533.4 L1429.7 1551.85 L1441.51 1551.85 L1441.51 1533.4 M1440.28 1529.33 L1446.16 1529.33 L1446.16 1551.85 L1451.09 1551.85 L1451.09 1555.74 L1446.16 1555.74 L1446.16 1563.89 L1441.51 1563.89 L1441.51 1555.74 L1425.9 1555.74 L1425.9 1551.23 L1440.28 1529.33 Z" fill="#000000" fill-rule="nonzero" fill-opacity="1" /><path clip-path="url(#clip300)" d="M1694.69 1532.5 Q1689.6 1532.5 1686.59 1536.3 Q1683.61 1540.09 1683.61 1546.64 Q1683.61 1553.17 1686.59 1556.97 Q1689.6 1560.76 1694.69 1560.76 Q1699.79 1560.76 1702.75 1556.97 Q1705.74 1553.17 1705.74 1546.64 Q1705.74 1540.09 1702.75 1536.3 Q1699.79 1532.5 1694.69 1532.5 M1701.24 1563.26 L1707.4 1570 L1701.75 1570 L1696.64 1564.47 Q1695.87 1564.51 1695.46 1564.54 Q1695.06 1564.56 1694.69 1564.56 Q1687.4 1564.56 1683.03 1559.7 Q1678.68 1554.81 1678.68 1546.64 Q1678.68 1538.45 1683.03 1533.59 Q1687.4 1528.7 1694.69 1528.7 Q1701.96 1528.7 1706.31 1533.59 Q1710.67 1538.45 1710.67 1546.64 Q1710.67 1552.66 1708.24 1556.94 Q1705.83 1561.23 1701.24 1563.26 Z" fill="#000000" fill-rule="nonzero" fill-opacity="1" /><path clip-path="url(#clip300)" d="M1717.98 1529.33 L1724.28 1529.33 L1739.6 1558.24 L1739.6 1529.33 L1744.14 1529.33 L1744.14 1563.89 L1737.84 1563.89 L1722.52 1534.98 L1722.52 1563.89 L1717.98 1563.89 L1717.98 1529.33 Z" fill="#000000" fill-rule="nonzero" fill-opacity="1" /><path clip-path="url(#clip300)" d="M1758.12 1533.17 L1758.12 1560.05 L1763.77 1560.05 Q1770.92 1560.05 1774.23 1556.8 Q1777.56 1553.56 1777.56 1546.57 Q1777.56 1539.63 1774.23 1536.41 Q1770.92 1533.17 1763.77 1533.17 L1758.12 1533.17 M1753.44 1529.33 L1763.05 1529.33 Q1773.1 1529.33 1777.8 1533.52 Q1782.49 1537.68 1782.49 1546.57 Q1782.49 1555.51 1777.77 1559.7 Q1773.05 1563.89 1763.05 1563.89 L1753.44 1563.89 L1753.44 1529.33 Z" fill="#000000" fill-rule="nonzero" fill-opacity="1" /><path clip-path="url(#clip300)" d="M1789.95 1529.33 L1809.81 1529.33 L1809.81 1533.26 L1794.62 1533.26 L1794.62 1543.45 L1808.33 1543.45 L1808.33 1547.38 L1794.62 1547.38 L1794.62 1563.89 L1789.95 1563.89 L1789.95 1529.33 Z" fill="#000000" fill-rule="nonzero" fill-opacity="1" /><path clip-path="url(#clip300)" d="M2090.58 1529.33 L2110.44 1529.33 L2110.44 1533.26 L2095.25 1533.26 L2095.25 1543.45 L2108.96 1543.45 L2108.96 1547.38 L2095.25 1547.38 L2095.25 1563.89 L2090.58 1563.89 L2090.58 1529.33 Z" fill="#000000" fill-rule="nonzero" fill-opacity="1" /><path clip-path="url(#clip300)" d="M2122.52 1547.38 L2122.52 1560.05 L2130.02 1560.05 Q2133.79 1560.05 2135.6 1558.49 Q2137.43 1556.92 2137.43 1553.7 Q2137.43 1550.46 2135.6 1548.93 Q2133.79 1547.38 2130.02 1547.38 L2122.52 1547.38 M2122.52 1533.17 L2122.52 1543.59 L2129.44 1543.59 Q2132.87 1543.59 2134.54 1542.31 Q2136.22 1541.02 2136.22 1538.38 Q2136.22 1535.76 2134.54 1534.47 Q2132.87 1533.17 2129.44 1533.17 L2122.52 1533.17 M2117.85 1529.33 L2129.79 1529.33 Q2135.14 1529.33 2138.03 1531.55 Q2140.92 1533.77 2140.92 1537.87 Q2140.92 1541.04 2139.44 1542.92 Q2137.96 1544.79 2135.09 1545.25 Q2138.54 1545.99 2140.44 1548.36 Q2142.36 1550.69 2142.36 1554.21 Q2142.36 1558.84 2139.21 1561.36 Q2136.06 1563.89 2130.25 1563.89 L2117.85 1563.89 L2117.85 1529.33 Z" fill="#000000" fill-rule="nonzero" fill-opacity="1" /><path clip-path="url(#clip300)" d="M2155.04 1533.17 L2155.04 1560.05 L2160.69 1560.05 Q2167.85 1560.05 2171.16 1556.8 Q2174.49 1553.56 2174.49 1546.57 Q2174.49 1539.63 2171.16 1536.41 Q2167.85 1533.17 2160.69 1533.17 L2155.04 1533.17 M2150.37 1529.33 L2159.97 1529.33 Q2170.02 1529.33 2174.72 1533.52 Q2179.42 1537.68 2179.42 1546.57 Q2179.42 1555.51 2174.7 1559.7 Q2169.97 1563.89 2159.97 1563.89 L2150.37 1563.89 L2150.37 1529.33 Z" fill="#000000" fill-rule="nonzero" fill-opacity="1" /><path clip-path="url(#clip300)" d="M2186.87 1529.33 L2206.73 1529.33 L2206.73 1533.26 L2191.55 1533.26 L2191.55 1543.45 L2205.25 1543.45 L2205.25 1547.38 L2191.55 1547.38 L2191.55 1563.89 L2186.87 1563.89 L2186.87 1529.33 Z" fill="#000000" fill-rule="nonzero" fill-opacity="1" /><path clip-path="url(#clip300)" d="M2427.42 1529.33 L2432.1 1529.33 L2432.1 1543.93 L2447.61 1529.33 L2453.62 1529.33 L2436.47 1545.44 L2454.85 1563.89 L2448.69 1563.89 L2432.1 1547.24 L2432.1 1563.89 L2427.42 1563.89 L2427.42 1529.33 Z" fill="#000000" fill-rule="nonzero" fill-opacity="1" /><path clip-path="url(#clip300)" d="M2478.14 1549.86 L2478.14 1551.94 L2458.56 1551.94 Q2458.83 1556.34 2461.19 1558.66 Q2463.58 1560.95 2467.81 1560.95 Q2470.27 1560.95 2472.56 1560.35 Q2474.87 1559.74 2477.14 1558.54 L2477.14 1562.57 Q2474.85 1563.54 2472.44 1564.05 Q2470.04 1564.56 2467.56 1564.56 Q2461.36 1564.56 2457.72 1560.95 Q2454.11 1557.34 2454.11 1551.18 Q2454.11 1544.81 2457.54 1541.09 Q2460.99 1537.34 2466.82 1537.34 Q2472.05 1537.34 2475.08 1540.72 Q2478.14 1544.07 2478.14 1549.86 M2473.88 1548.61 Q2473.83 1545.11 2471.91 1543.03 Q2470.01 1540.95 2466.87 1540.95 Q2463.3 1540.95 2461.15 1542.96 Q2459.02 1544.98 2458.69 1548.63 L2473.88 1548.61 Z" fill="#000000" fill-rule="nonzero" fill-opacity="1" /><path clip-path="url(#clip300)" d="M2506.68 1548.24 L2506.68 1563.89 L2502.42 1563.89 L2502.42 1548.38 Q2502.42 1544.7 2500.99 1542.87 Q2499.55 1541.04 2496.68 1541.04 Q2493.23 1541.04 2491.24 1543.24 Q2489.25 1545.44 2489.25 1549.24 L2489.25 1563.89 L2484.97 1563.89 L2484.97 1537.96 L2489.25 1537.96 L2489.25 1541.99 Q2490.78 1539.65 2492.84 1538.49 Q2494.92 1537.34 2497.63 1537.34 Q2502.1 1537.34 2504.39 1540.11 Q2506.68 1542.87 2506.68 1548.24 Z" fill="#000000" fill-rule="nonzero" fill-opacity="1" /><path clip-path="url(#clip300)" d="M2541.24 1531.99 L2541.24 1536.92 Q2538.88 1534.72 2536.19 1533.63 Q2533.53 1532.55 2530.52 1532.55 Q2524.6 1532.55 2521.45 1536.18 Q2518.3 1539.79 2518.3 1546.64 Q2518.3 1553.47 2521.45 1557.11 Q2524.6 1560.72 2530.52 1560.72 Q2533.53 1560.72 2536.19 1559.63 Q2538.88 1558.54 2541.24 1556.34 L2541.24 1561.23 Q2538.79 1562.89 2536.03 1563.73 Q2533.3 1564.56 2530.24 1564.56 Q2522.4 1564.56 2517.88 1559.77 Q2513.37 1554.95 2513.37 1546.64 Q2513.37 1538.31 2517.88 1533.52 Q2522.4 1528.7 2530.24 1528.7 Q2533.35 1528.7 2536.08 1529.54 Q2538.83 1530.35 2541.24 1531.99 Z" fill="#000000" fill-rule="nonzero" fill-opacity="1" /><path clip-path="url(#clip300)" d="M2560.06 1550.86 Q2554.9 1550.86 2552.91 1552.04 Q2550.92 1553.22 2550.92 1556.06 Q2550.92 1558.33 2552.4 1559.67 Q2553.9 1560.99 2556.47 1560.99 Q2560.01 1560.99 2562.14 1558.49 Q2564.3 1555.97 2564.3 1551.8 L2564.3 1550.86 L2560.06 1550.86 M2568.55 1549.1 L2568.55 1563.89 L2564.3 1563.89 L2564.3 1559.95 Q2562.84 1562.31 2560.66 1563.45 Q2558.49 1564.56 2555.34 1564.56 Q2551.36 1564.56 2548.99 1562.34 Q2546.66 1560.09 2546.66 1556.34 Q2546.66 1551.97 2549.57 1549.74 Q2552.51 1547.52 2558.32 1547.52 L2564.3 1547.52 L2564.3 1547.11 Q2564.3 1544.17 2562.35 1542.57 Q2560.43 1540.95 2556.93 1540.95 Q2554.71 1540.95 2552.61 1541.48 Q2550.5 1542.01 2548.55 1543.08 L2548.55 1539.14 Q2550.89 1538.24 2553.09 1537.8 Q2555.29 1537.34 2557.37 1537.34 Q2563 1537.34 2565.78 1540.25 Q2568.55 1543.17 2568.55 1549.1 Z" fill="#000000" fill-rule="nonzero" fill-opacity="1" /><path clip-path="url(#clip300)" d="M2592.35 1541.94 Q2591.63 1541.53 2590.78 1541.34 Q2589.94 1541.13 2588.92 1541.13 Q2585.31 1541.13 2583.37 1543.49 Q2581.45 1545.83 2581.45 1550.23 L2581.45 1563.89 L2577.17 1563.89 L2577.17 1537.96 L2581.45 1537.96 L2581.45 1541.99 Q2582.79 1539.63 2584.94 1538.49 Q2587.1 1537.34 2590.17 1537.34 Q2590.61 1537.34 2591.15 1537.41 Q2591.68 1537.45 2592.33 1537.57 L2592.35 1541.94 Z" fill="#000000" fill-rule="nonzero" fill-opacity="1" /><path clip-path="url(#clip300)" d="M2600.94 1560 L2600.94 1573.75 L2596.66 1573.75 L2596.66 1537.96 L2600.94 1537.96 L2600.94 1541.9 Q2602.28 1539.58 2604.32 1538.47 Q2606.38 1537.34 2609.23 1537.34 Q2613.95 1537.34 2616.89 1541.09 Q2619.85 1544.84 2619.85 1550.95 Q2619.85 1557.06 2616.89 1560.81 Q2613.95 1564.56 2609.23 1564.56 Q2606.38 1564.56 2604.32 1563.45 Q2602.28 1562.31 2600.94 1560 M2615.43 1550.95 Q2615.43 1546.25 2613.49 1543.59 Q2611.56 1540.9 2608.18 1540.9 Q2604.8 1540.9 2602.86 1543.59 Q2600.94 1546.25 2600.94 1550.95 Q2600.94 1555.65 2602.86 1558.33 Q2604.8 1560.99 2608.18 1560.99 Q2611.56 1560.99 2613.49 1558.33 Q2615.43 1555.65 2615.43 1550.95 Z" fill="#000000" fill-rule="nonzero" fill-opacity="1" /><path clip-path="url(#clip300)" d="M2640.36 1533.4 L2628.55 1551.85 L2640.36 1551.85 L2640.36 1533.4 M2639.13 1529.33 L2645.01 1529.33 L2645.01 1551.85 L2649.94 1551.85 L2649.94 1555.74 L2645.01 1555.74 L2645.01 1563.89 L2640.36 1563.89 L2640.36 1555.74 L2624.76 1555.74 L2624.76 1551.23 L2639.13 1529.33 Z" fill="#000000" fill-rule="nonzero" fill-opacity="1" /><path clip-path="url(#clip300)" d="M2656.49 1529.33 L2678.72 1529.33 L2678.72 1531.32 L2666.17 1563.89 L2661.29 1563.89 L2673.09 1533.26 L2656.49 1533.26 L2656.49 1529.33 Z" fill="#000000" fill-rule="nonzero" fill-opacity="1" /><path clip-path="url(#clip300)" d="M2875.8 1547.68 Q2877.31 1548.19 2878.72 1549.86 Q2880.16 1551.53 2881.59 1554.44 L2886.34 1563.89 L2881.31 1563.89 L2876.89 1555.02 Q2875.18 1551.55 2873.56 1550.42 Q2871.96 1549.28 2869.18 1549.28 L2864.09 1549.28 L2864.09 1563.89 L2859.42 1563.89 L2859.42 1529.33 L2869.97 1529.33 Q2875.9 1529.33 2878.81 1531.8 Q2881.73 1534.28 2881.73 1539.28 Q2881.73 1542.55 2880.2 1544.7 Q2878.7 1546.85 2875.8 1547.68 M2864.09 1533.17 L2864.09 1545.44 L2869.97 1545.44 Q2873.35 1545.44 2875.06 1543.89 Q2876.8 1542.31 2876.8 1539.28 Q2876.8 1536.25 2875.06 1534.72 Q2873.35 1533.17 2869.97 1533.17 L2864.09 1533.17 Z" fill="#000000" fill-rule="nonzero" fill-opacity="1" /><path clip-path="url(#clip300)" d="M2900.09 1540.95 Q2896.66 1540.95 2894.67 1543.63 Q2892.68 1546.3 2892.68 1550.95 Q2892.68 1555.6 2894.65 1558.29 Q2896.64 1560.95 2900.09 1560.95 Q2903.49 1560.95 2905.48 1558.26 Q2907.47 1555.58 2907.47 1550.95 Q2907.47 1546.34 2905.48 1543.66 Q2903.49 1540.95 2900.09 1540.95 M2900.09 1537.34 Q2905.64 1537.34 2908.81 1540.95 Q2911.98 1544.56 2911.98 1550.95 Q2911.98 1557.31 2908.81 1560.95 Q2905.64 1564.56 2900.09 1564.56 Q2894.51 1564.56 2891.34 1560.95 Q2888.19 1557.31 2888.19 1550.95 Q2888.19 1544.56 2891.34 1540.95 Q2894.51 1537.34 2900.09 1537.34 Z" fill="#000000" fill-rule="nonzero" fill-opacity="1" /><path clip-path="url(#clip300)" d="M2936.1 1541.9 L2936.1 1527.87 L2940.36 1527.87 L2940.36 1563.89 L2936.1 1563.89 L2936.1 1560 Q2934.76 1562.31 2932.7 1563.45 Q2930.67 1564.56 2927.79 1564.56 Q2923.1 1564.56 2920.13 1560.81 Q2917.19 1557.06 2917.19 1550.95 Q2917.19 1544.84 2920.13 1541.09 Q2923.1 1537.34 2927.79 1537.34 Q2930.67 1537.34 2932.7 1538.47 Q2934.76 1539.58 2936.1 1541.9 M2921.59 1550.95 Q2921.59 1555.65 2923.51 1558.33 Q2925.46 1560.99 2928.84 1560.99 Q2932.22 1560.99 2934.16 1558.33 Q2936.1 1555.65 2936.1 1550.95 Q2936.1 1546.25 2934.16 1543.59 Q2932.22 1540.9 2928.84 1540.9 Q2925.46 1540.9 2923.51 1543.59 Q2921.59 1546.25 2921.59 1550.95 Z" fill="#000000" fill-rule="nonzero" fill-opacity="1" /><path clip-path="url(#clip300)" d="M2960.92 1550.86 Q2955.76 1550.86 2953.77 1552.04 Q2951.78 1553.22 2951.78 1556.06 Q2951.78 1558.33 2953.26 1559.67 Q2954.76 1560.99 2957.33 1560.99 Q2960.87 1560.99 2963 1558.49 Q2965.16 1555.97 2965.16 1551.8 L2965.16 1550.86 L2960.92 1550.86 M2969.41 1549.1 L2969.41 1563.89 L2965.16 1563.89 L2965.16 1559.95 Q2963.7 1562.31 2961.52 1563.45 Q2959.35 1564.56 2956.2 1564.56 Q2952.22 1564.56 2949.85 1562.34 Q2947.52 1560.09 2947.52 1556.34 Q2947.52 1551.97 2950.43 1549.74 Q2953.37 1547.52 2959.18 1547.52 L2965.16 1547.52 L2965.16 1547.11 Q2965.16 1544.17 2963.21 1542.57 Q2961.29 1540.95 2957.79 1540.95 Q2955.57 1540.95 2953.47 1541.48 Q2951.36 1542.01 2949.41 1543.08 L2949.41 1539.14 Q2951.75 1538.24 2953.95 1537.8 Q2956.15 1537.34 2958.23 1537.34 Q2963.86 1537.34 2966.64 1540.25 Q2969.41 1543.17 2969.41 1549.1 Z" fill="#000000" fill-rule="nonzero" fill-opacity="1" /><path clip-path="url(#clip300)" d="M2994.72 1538.73 L2994.72 1542.75 Q2992.91 1541.83 2990.97 1541.36 Q2989.02 1540.9 2986.94 1540.9 Q2983.77 1540.9 2982.17 1541.87 Q2980.6 1542.85 2980.6 1544.79 Q2980.6 1546.27 2981.73 1547.13 Q2982.86 1547.96 2986.29 1548.73 L2987.75 1549.05 Q2992.29 1550.02 2994.18 1551.8 Q2996.1 1553.56 2996.1 1556.74 Q2996.1 1560.35 2993.23 1562.45 Q2990.39 1564.56 2985.39 1564.56 Q2983.3 1564.56 2981.04 1564.14 Q2978.79 1563.75 2976.29 1562.94 L2976.29 1558.54 Q2978.65 1559.77 2980.94 1560.39 Q2983.23 1560.99 2985.48 1560.99 Q2988.49 1560.99 2990.11 1559.98 Q2991.73 1558.93 2991.73 1557.06 Q2991.73 1555.32 2990.55 1554.4 Q2989.39 1553.47 2985.43 1552.61 L2983.95 1552.27 Q2979.99 1551.43 2978.23 1549.72 Q2976.47 1547.99 2976.47 1544.98 Q2976.47 1541.32 2979.07 1539.33 Q2981.66 1537.34 2986.43 1537.34 Q2988.79 1537.34 2990.87 1537.68 Q2992.96 1538.03 2994.72 1538.73 Z" fill="#000000" fill-rule="nonzero" fill-opacity="1" /><path clip-path="url(#clip300)" d="M3003.54 1529.33 L3021.89 1529.33 L3021.89 1533.26 L3007.82 1533.26 L3007.82 1541.74 Q3008.84 1541.39 3009.85 1541.23 Q3010.87 1541.04 3011.89 1541.04 Q3017.68 1541.04 3021.06 1544.21 Q3024.44 1547.38 3024.44 1552.8 Q3024.44 1558.38 3020.97 1561.48 Q3017.49 1564.56 3011.17 1564.56 Q3009 1564.56 3006.73 1564.19 Q3004.48 1563.82 3002.08 1563.08 L3002.08 1558.38 Q3004.16 1559.51 3006.38 1560.07 Q3008.6 1560.62 3011.08 1560.62 Q3015.09 1560.62 3017.42 1558.52 Q3019.76 1556.41 3019.76 1552.8 Q3019.76 1549.19 3017.42 1547.08 Q3015.09 1544.98 3011.08 1544.98 Q3009.21 1544.98 3007.33 1545.39 Q3005.48 1545.81 3003.54 1546.69 L3003.54 1529.33 Z" fill="#000000" fill-rule="nonzero" fill-opacity="1" /><path clip-path="url(#clip300)" d="M3037.91 1533.17 L3037.91 1546.16 L3043.79 1546.16 Q3047.05 1546.16 3048.84 1544.47 Q3050.62 1542.78 3050.62 1539.65 Q3050.62 1536.55 3048.84 1534.86 Q3047.05 1533.17 3043.79 1533.17 L3037.91 1533.17 M3033.23 1529.33 L3043.79 1529.33 Q3049.6 1529.33 3052.56 1531.97 Q3055.55 1534.58 3055.55 1539.65 Q3055.55 1544.77 3052.56 1547.38 Q3049.6 1550 3043.79 1550 L3037.91 1550 L3037.91 1563.89 L3033.23 1563.89 L3033.23 1529.33 Z" fill="#000000" fill-rule="nonzero" fill-opacity="1" /><polyline clip-path="url(#clip300)" style="stroke:#000000; stroke-linecap:round; stroke-linejoin:round; stroke-width:4; stroke-opacity:1; fill:none" points="335.728,1495.09 335.728,47.2441 "/>
<polyline clip-path="url(#clip300)" style="stroke:#000000; stroke-linecap:round; stroke-linejoin:round; stroke-width:4; stroke-opacity:1; fill:none" points="335.728,1295.27 354.626,1295.27 "/>
<polyline clip-path="url(#clip300)" style="stroke:#000000; stroke-linecap:round; stroke-linejoin:round; stroke-width:4; stroke-opacity:1; fill:none" points="335.728,1010.57 354.626,1010.57 "/>
<polyline clip-path="url(#clip300)" style="stroke:#000000; stroke-linecap:round; stroke-linejoin:round; stroke-width:4; stroke-opacity:1; fill:none" points="335.728,725.859 354.626,725.859 "/>
<polyline clip-path="url(#clip300)" style="stroke:#000000; stroke-linecap:round; stroke-linejoin:round; stroke-width:4; stroke-opacity:1; fill:none" points="335.728,441.152 354.626,441.152 "/>
<polyline clip-path="url(#clip300)" style="stroke:#000000; stroke-linecap:round; stroke-linejoin:round; stroke-width:4; stroke-opacity:1; fill:none" points="335.728,156.445 354.626,156.445 "/>
<path clip-path="url(#clip300)" d="M101.945 1315.06 L109.584 1315.06 L109.584 1288.7 L101.274 1290.37 L101.274 1286.11 L109.538 1284.44 L114.213 1284.44 L114.213 1315.06 L121.852 1315.06 L121.852 1319 L101.945 1319 L101.945 1315.06 Z" fill="#000000" fill-rule="nonzero" fill-opacity="1" /><path clip-path="url(#clip300)" d="M131.297 1313.12 L136.181 1313.12 L136.181 1319 L131.297 1319 L131.297 1313.12 Z" fill="#000000" fill-rule="nonzero" fill-opacity="1" /><path clip-path="url(#clip300)" d="M156.366 1287.52 Q152.755 1287.52 150.926 1291.08 Q149.121 1294.63 149.121 1301.75 Q149.121 1308.86 150.926 1312.43 Q152.755 1315.97 156.366 1315.97 Q160 1315.97 161.806 1312.43 Q163.634 1308.86 163.634 1301.75 Q163.634 1294.63 161.806 1291.08 Q160 1287.52 156.366 1287.52 M156.366 1283.82 Q162.176 1283.82 165.232 1288.42 Q168.31 1293 168.31 1301.75 Q168.31 1310.48 165.232 1315.09 Q162.176 1319.67 156.366 1319.67 Q150.556 1319.67 147.477 1315.09 Q144.422 1310.48 144.422 1301.75 Q144.422 1293 147.477 1288.42 Q150.556 1283.82 156.366 1283.82 Z" fill="#000000" fill-rule="nonzero" fill-opacity="1" /><path clip-path="url(#clip300)" d="M204.699 1293.54 L194.12 1304.16 L204.699 1314.74 L201.944 1317.54 L191.319 1306.92 L180.695 1317.54 L177.963 1314.74 L188.519 1304.16 L177.963 1293.54 L180.695 1290.74 L191.319 1301.36 L201.944 1290.74 L204.699 1293.54 Z" fill="#000000" fill-rule="nonzero" fill-opacity="1" /><path clip-path="url(#clip300)" d="M217.06 1315.06 L224.699 1315.06 L224.699 1288.7 L216.389 1290.37 L216.389 1286.11 L224.653 1284.44 L229.329 1284.44 L229.329 1315.06 L236.967 1315.06 L236.967 1319 L217.06 1319 L217.06 1315.06 Z" fill="#000000" fill-rule="nonzero" fill-opacity="1" /><path clip-path="url(#clip300)" d="M256.412 1287.52 Q252.801 1287.52 250.972 1291.08 Q249.166 1294.63 249.166 1301.75 Q249.166 1308.86 250.972 1312.43 Q252.801 1315.97 256.412 1315.97 Q260.046 1315.97 261.852 1312.43 Q263.68 1308.86 263.68 1301.75 Q263.68 1294.63 261.852 1291.08 Q260.046 1287.52 256.412 1287.52 M256.412 1283.82 Q262.222 1283.82 265.277 1288.42 Q268.356 1293 268.356 1301.75 Q268.356 1310.48 265.277 1315.09 Q262.222 1319.67 256.412 1319.67 Q250.602 1319.67 247.523 1315.09 Q244.467 1310.48 244.467 1301.75 Q244.467 1293 247.523 1288.42 Q250.602 1283.82 256.412 1283.82 Z" fill="#000000" fill-rule="nonzero" fill-opacity="1" /><path clip-path="url(#clip300)" d="M270.162 1291.01 L270.162 1287.55 Q271.591 1288.22 273.058 1288.58 Q274.525 1288.94 275.936 1288.94 Q279.697 1288.94 281.672 1286.42 Q283.666 1283.88 283.948 1278.73 Q282.857 1280.34 281.183 1281.21 Q279.509 1282.07 277.478 1282.07 Q273.265 1282.07 270.801 1279.53 Q268.356 1276.98 268.356 1272.56 Q268.356 1268.23 270.914 1265.62 Q273.472 1263 277.722 1263 Q282.594 1263 285.151 1266.74 Q287.728 1270.47 287.728 1277.58 Q287.728 1284.22 284.568 1288.19 Q281.427 1292.14 276.105 1292.14 Q274.676 1292.14 273.209 1291.85 Q271.741 1291.57 270.162 1291.01 M277.722 1279.1 Q280.28 1279.1 281.766 1277.35 Q283.271 1275.6 283.271 1272.56 Q283.271 1269.53 281.766 1267.78 Q280.28 1266.01 277.722 1266.01 Q275.165 1266.01 273.66 1267.78 Q272.174 1269.53 272.174 1272.56 Q272.174 1275.6 273.66 1277.35 Q275.165 1279.1 277.722 1279.1 Z" fill="#000000" fill-rule="nonzero" fill-opacity="1" /><path clip-path="url(#clip300)" d="M105.163 1030.36 L121.482 1030.36 L121.482 1034.29 L99.5376 1034.29 L99.5376 1030.36 Q102.2 1027.6 106.783 1022.97 Q111.389 1018.32 112.57 1016.98 Q114.815 1014.46 115.695 1012.72 Q116.598 1010.96 116.598 1009.27 Q116.598 1006.52 114.653 1004.78 Q112.732 1003.04 109.63 1003.04 Q107.431 1003.04 104.977 1003.81 Q102.547 1004.57 99.769 1006.12 L99.769 1001.4 Q102.593 1000.27 105.047 999.687 Q107.5 999.108 109.538 999.108 Q114.908 999.108 118.102 1001.79 Q121.297 1004.48 121.297 1008.97 Q121.297 1011.1 120.487 1013.02 Q119.699 1014.92 117.593 1017.51 Q117.014 1018.18 113.912 1021.4 Q110.811 1024.59 105.163 1030.36 Z" fill="#000000" fill-rule="nonzero" fill-opacity="1" /><path clip-path="url(#clip300)" d="M131.297 1028.41 L136.181 1028.41 L136.181 1034.29 L131.297 1034.29 L131.297 1028.41 Z" fill="#000000" fill-rule="nonzero" fill-opacity="1" /><path clip-path="url(#clip300)" d="M156.366 1002.81 Q152.755 1002.81 150.926 1006.38 Q149.121 1009.92 149.121 1017.05 Q149.121 1024.15 150.926 1027.72 Q152.755 1031.26 156.366 1031.26 Q160 1031.26 161.806 1027.72 Q163.634 1024.15 163.634 1017.05 Q163.634 1009.92 161.806 1006.38 Q160 1002.81 156.366 1002.81 M156.366 999.108 Q162.176 999.108 165.232 1003.71 Q168.31 1008.3 168.31 1017.05 Q168.31 1025.77 165.232 1030.38 Q162.176 1034.96 156.366 1034.96 Q150.556 1034.96 147.477 1030.38 Q144.422 1025.77 144.422 1017.05 Q144.422 1008.3 147.477 1003.71 Q150.556 999.108 156.366 999.108 Z" fill="#000000" fill-rule="nonzero" fill-opacity="1" /><path clip-path="url(#clip300)" d="M204.699 1008.83 L194.12 1019.46 L204.699 1030.03 L201.944 1032.83 L191.319 1022.21 L180.695 1032.83 L177.963 1030.03 L188.519 1019.46 L177.963 1008.83 L180.695 1006.03 L191.319 1016.65 L201.944 1006.03 L204.699 1008.83 Z" fill="#000000" fill-rule="nonzero" fill-opacity="1" /><path clip-path="url(#clip300)" d="M217.06 1030.36 L224.699 1030.36 L224.699 1003.99 L216.389 1005.66 L216.389 1001.4 L224.653 999.733 L229.329 999.733 L229.329 1030.36 L236.967 1030.36 L236.967 1034.29 L217.06 1034.29 L217.06 1030.36 Z" fill="#000000" fill-rule="nonzero" fill-opacity="1" /><path clip-path="url(#clip300)" d="M256.412 1002.81 Q252.801 1002.81 250.972 1006.38 Q249.166 1009.92 249.166 1017.05 Q249.166 1024.15 250.972 1027.72 Q252.801 1031.26 256.412 1031.26 Q260.046 1031.26 261.852 1027.72 Q263.68 1024.15 263.68 1017.05 Q263.68 1009.92 261.852 1006.38 Q260.046 1002.81 256.412 1002.81 M256.412 999.108 Q262.222 999.108 265.277 1003.71 Q268.356 1008.3 268.356 1017.05 Q268.356 1025.77 265.277 1030.38 Q262.222 1034.96 256.412 1034.96 Q250.602 1034.96 247.523 1030.38 Q244.467 1025.77 244.467 1017.05 Q244.467 1008.3 247.523 1003.71 Q250.602 999.108 256.412 999.108 Z" fill="#000000" fill-rule="nonzero" fill-opacity="1" /><path clip-path="url(#clip300)" d="M270.162 1006.3 L270.162 1002.84 Q271.591 1003.52 273.058 1003.87 Q274.525 1004.23 275.936 1004.23 Q279.697 1004.23 281.672 1001.71 Q283.666 999.172 283.948 994.018 Q282.857 995.636 281.183 996.501 Q279.509 997.366 277.478 997.366 Q273.265 997.366 270.801 994.827 Q268.356 992.269 268.356 987.849 Q268.356 983.524 270.914 980.909 Q273.472 978.295 277.722 978.295 Q282.594 978.295 285.151 982.038 Q287.728 985.762 287.728 992.871 Q287.728 999.51 284.568 1003.48 Q281.427 1007.43 276.105 1007.43 Q274.676 1007.43 273.209 1007.15 Q271.741 1006.86 270.162 1006.3 M277.722 994.394 Q280.28 994.394 281.766 992.645 Q283.271 990.896 283.271 987.849 Q283.271 984.821 281.766 983.072 Q280.28 981.304 277.722 981.304 Q275.165 981.304 273.66 983.072 Q272.174 984.821 272.174 987.849 Q272.174 990.896 273.66 992.645 Q275.165 994.394 277.722 994.394 Z" fill="#000000" fill-rule="nonzero" fill-opacity="1" /><path clip-path="url(#clip300)" d="M115.301 730.952 Q118.658 731.67 120.533 733.938 Q122.431 736.207 122.431 739.54 Q122.431 744.656 118.912 747.457 Q115.394 750.258 108.913 750.258 Q106.737 750.258 104.422 749.818 Q102.13 749.401 99.6764 748.545 L99.6764 744.031 Q101.621 745.165 103.936 745.744 Q106.25 746.323 108.774 746.323 Q113.172 746.323 115.463 744.586 Q117.778 742.85 117.778 739.54 Q117.778 736.485 115.625 734.772 Q113.496 733.036 109.676 733.036 L105.649 733.036 L105.649 729.193 L109.862 729.193 Q113.311 729.193 115.139 727.827 Q116.968 726.438 116.968 723.846 Q116.968 721.184 115.07 719.772 Q113.195 718.337 109.676 718.337 Q107.755 718.337 105.556 718.753 Q103.357 719.17 100.718 720.05 L100.718 715.883 Q103.38 715.142 105.695 714.772 Q108.033 714.401 110.093 714.401 Q115.417 714.401 118.519 716.832 Q121.621 719.239 121.621 723.36 Q121.621 726.23 119.977 728.221 Q118.334 730.188 115.301 730.952 Z" fill="#000000" fill-rule="nonzero" fill-opacity="1" /><path clip-path="url(#clip300)" d="M131.297 743.707 L136.181 743.707 L136.181 749.586 L131.297 749.586 L131.297 743.707 Z" fill="#000000" fill-rule="nonzero" fill-opacity="1" /><path clip-path="url(#clip300)" d="M156.366 718.105 Q152.755 718.105 150.926 721.67 Q149.121 725.212 149.121 732.341 Q149.121 739.448 150.926 743.012 Q152.755 746.554 156.366 746.554 Q160 746.554 161.806 743.012 Q163.634 739.448 163.634 732.341 Q163.634 725.212 161.806 721.67 Q160 718.105 156.366 718.105 M156.366 714.401 Q162.176 714.401 165.232 719.008 Q168.31 723.591 168.31 732.341 Q168.31 741.068 165.232 745.674 Q162.176 750.258 156.366 750.258 Q150.556 750.258 147.477 745.674 Q144.422 741.068 144.422 732.341 Q144.422 723.591 147.477 719.008 Q150.556 714.401 156.366 714.401 Z" fill="#000000" fill-rule="nonzero" fill-opacity="1" /><path clip-path="url(#clip300)" d="M204.699 724.124 L194.12 734.749 L204.699 745.327 L201.944 748.128 L191.319 737.503 L180.695 748.128 L177.963 745.327 L188.519 734.749 L177.963 724.124 L180.695 721.323 L191.319 731.948 L201.944 721.323 L204.699 724.124 Z" fill="#000000" fill-rule="nonzero" fill-opacity="1" /><path clip-path="url(#clip300)" d="M217.06 745.651 L224.699 745.651 L224.699 719.286 L216.389 720.952 L216.389 716.693 L224.653 715.026 L229.329 715.026 L229.329 745.651 L236.967 745.651 L236.967 749.586 L217.06 749.586 L217.06 745.651 Z" fill="#000000" fill-rule="nonzero" fill-opacity="1" /><path clip-path="url(#clip300)" d="M256.412 718.105 Q252.801 718.105 250.972 721.67 Q249.166 725.212 249.166 732.341 Q249.166 739.448 250.972 743.012 Q252.801 746.554 256.412 746.554 Q260.046 746.554 261.852 743.012 Q263.68 739.448 263.68 732.341 Q263.68 725.212 261.852 721.67 Q260.046 718.105 256.412 718.105 M256.412 714.401 Q262.222 714.401 265.277 719.008 Q268.356 723.591 268.356 732.341 Q268.356 741.068 265.277 745.674 Q262.222 750.258 256.412 750.258 Q250.602 750.258 247.523 745.674 Q244.467 741.068 244.467 732.341 Q244.467 723.591 247.523 719.008 Q250.602 714.401 256.412 714.401 Z" fill="#000000" fill-rule="nonzero" fill-opacity="1" /><path clip-path="url(#clip300)" d="M270.162 721.593 L270.162 718.132 Q271.591 718.809 273.058 719.167 Q274.525 719.524 275.936 719.524 Q279.697 719.524 281.672 717.004 Q283.666 714.465 283.948 709.311 Q282.857 710.929 281.183 711.794 Q279.509 712.659 277.478 712.659 Q273.265 712.659 270.801 710.12 Q268.356 707.562 268.356 703.143 Q268.356 698.817 270.914 696.202 Q273.472 693.588 277.722 693.588 Q282.594 693.588 285.151 697.331 Q287.728 701.055 287.728 708.164 Q287.728 714.803 284.568 718.772 Q281.427 722.721 276.105 722.721 Q274.676 722.721 273.209 722.439 Q271.741 722.157 270.162 721.593 M277.722 709.688 Q280.28 709.688 281.766 707.939 Q283.271 706.189 283.271 703.143 Q283.271 700.114 281.766 698.365 Q280.28 696.597 277.722 696.597 Q275.165 696.597 273.66 698.365 Q272.174 700.114 272.174 703.143 Q272.174 706.189 273.66 707.939 Q275.165 709.688 277.722 709.688 Z" fill="#000000" fill-rule="nonzero" fill-opacity="1" /><path clip-path="url(#clip300)" d="M113.982 434.394 L102.176 452.843 L113.982 452.843 L113.982 434.394 M112.755 430.32 L118.635 430.32 L118.635 452.843 L123.565 452.843 L123.565 456.731 L118.635 456.731 L118.635 464.88 L113.982 464.88 L113.982 456.731 L98.3802 456.731 L98.3802 452.218 L112.755 430.32 Z" fill="#000000" fill-rule="nonzero" fill-opacity="1" /><path clip-path="url(#clip300)" d="M131.297 459 L136.181 459 L136.181 464.88 L131.297 464.88 L131.297 459 Z" fill="#000000" fill-rule="nonzero" fill-opacity="1" /><path clip-path="url(#clip300)" d="M156.366 433.398 Q152.755 433.398 150.926 436.963 Q149.121 440.505 149.121 447.634 Q149.121 454.741 150.926 458.306 Q152.755 461.847 156.366 461.847 Q160 461.847 161.806 458.306 Q163.634 454.741 163.634 447.634 Q163.634 440.505 161.806 436.963 Q160 433.398 156.366 433.398 M156.366 429.695 Q162.176 429.695 165.232 434.301 Q168.31 438.884 168.31 447.634 Q168.31 456.361 165.232 460.968 Q162.176 465.551 156.366 465.551 Q150.556 465.551 147.477 460.968 Q144.422 456.361 144.422 447.634 Q144.422 438.884 147.477 434.301 Q150.556 429.695 156.366 429.695 Z" fill="#000000" fill-rule="nonzero" fill-opacity="1" /><path clip-path="url(#clip300)" d="M204.699 439.417 L194.12 450.042 L204.699 460.62 L201.944 463.421 L191.319 452.796 L180.695 463.421 L177.963 460.62 L188.519 450.042 L177.963 439.417 L180.695 436.616 L191.319 447.241 L201.944 436.616 L204.699 439.417 Z" fill="#000000" fill-rule="nonzero" fill-opacity="1" /><path clip-path="url(#clip300)" d="M217.06 460.944 L224.699 460.944 L224.699 434.579 L216.389 436.245 L216.389 431.986 L224.653 430.32 L229.329 430.32 L229.329 460.944 L236.967 460.944 L236.967 464.88 L217.06 464.88 L217.06 460.944 Z" fill="#000000" fill-rule="nonzero" fill-opacity="1" /><path clip-path="url(#clip300)" d="M256.412 433.398 Q252.801 433.398 250.972 436.963 Q249.166 440.505 249.166 447.634 Q249.166 454.741 250.972 458.306 Q252.801 461.847 256.412 461.847 Q260.046 461.847 261.852 458.306 Q263.68 454.741 263.68 447.634 Q263.68 440.505 261.852 436.963 Q260.046 433.398 256.412 433.398 M256.412 429.695 Q262.222 429.695 265.277 434.301 Q268.356 438.884 268.356 447.634 Q268.356 456.361 265.277 460.968 Q262.222 465.551 256.412 465.551 Q250.602 465.551 247.523 460.968 Q244.467 456.361 244.467 447.634 Q244.467 438.884 247.523 434.301 Q250.602 429.695 256.412 429.695 Z" fill="#000000" fill-rule="nonzero" fill-opacity="1" /><path clip-path="url(#clip300)" d="M270.162 436.886 L270.162 433.426 Q271.591 434.103 273.058 434.46 Q274.525 434.817 275.936 434.817 Q279.697 434.817 281.672 432.297 Q283.666 429.758 283.948 424.605 Q282.857 426.222 281.183 427.087 Q279.509 427.952 277.478 427.952 Q273.265 427.952 270.801 425.413 Q268.356 422.856 268.356 418.436 Q268.356 414.11 270.914 411.496 Q273.472 408.881 277.722 408.881 Q282.594 408.881 285.151 412.624 Q287.728 416.348 287.728 423.457 Q287.728 430.097 284.568 434.065 Q281.427 438.015 276.105 438.015 Q274.676 438.015 273.209 437.733 Q271.741 437.45 270.162 436.886 M277.722 424.981 Q280.28 424.981 281.766 423.232 Q283.271 421.483 283.271 418.436 Q283.271 415.408 281.766 413.659 Q280.28 411.891 277.722 411.891 Q275.165 411.891 273.66 413.659 Q272.174 415.408 272.174 418.436 Q272.174 421.483 273.66 423.232 Q275.165 424.981 277.722 424.981 Z" fill="#000000" fill-rule="nonzero" fill-opacity="1" /><path clip-path="url(#clip300)" d="M101.181 145.613 L119.537 145.613 L119.537 149.548 L105.463 149.548 L105.463 158.02 Q106.482 157.673 107.5 157.511 Q108.519 157.326 109.538 157.326 Q115.325 157.326 118.704 160.497 Q122.084 163.668 122.084 169.085 Q122.084 174.664 118.612 177.765 Q115.139 180.844 108.82 180.844 Q106.644 180.844 104.375 180.474 Q102.13 180.103 99.7227 179.363 L99.7227 174.664 Q101.806 175.798 104.028 176.353 Q106.25 176.909 108.727 176.909 Q112.732 176.909 115.07 174.802 Q117.408 172.696 117.408 169.085 Q117.408 165.474 115.07 163.367 Q112.732 161.261 108.727 161.261 Q106.852 161.261 104.977 161.678 Q103.126 162.094 101.181 162.974 L101.181 145.613 Z" fill="#000000" fill-rule="nonzero" fill-opacity="1" /><path clip-path="url(#clip300)" d="M131.297 174.293 L136.181 174.293 L136.181 180.173 L131.297 180.173 L131.297 174.293 Z" fill="#000000" fill-rule="nonzero" fill-opacity="1" /><path clip-path="url(#clip300)" d="M156.366 148.691 Q152.755 148.691 150.926 152.256 Q149.121 155.798 149.121 162.927 Q149.121 170.034 150.926 173.599 Q152.755 177.14 156.366 177.14 Q160 177.14 161.806 173.599 Q163.634 170.034 163.634 162.927 Q163.634 155.798 161.806 152.256 Q160 148.691 156.366 148.691 M156.366 144.988 Q162.176 144.988 165.232 149.594 Q168.31 154.178 168.31 162.927 Q168.31 171.654 165.232 176.261 Q162.176 180.844 156.366 180.844 Q150.556 180.844 147.477 176.261 Q144.422 171.654 144.422 162.927 Q144.422 154.178 147.477 149.594 Q150.556 144.988 156.366 144.988 Z" fill="#000000" fill-rule="nonzero" fill-opacity="1" /><path clip-path="url(#clip300)" d="M204.699 154.71 L194.12 165.335 L204.699 175.914 L201.944 178.714 L191.319 168.09 L180.695 178.714 L177.963 175.914 L188.519 165.335 L177.963 154.71 L180.695 151.909 L191.319 162.534 L201.944 151.909 L204.699 154.71 Z" fill="#000000" fill-rule="nonzero" fill-opacity="1" /><path clip-path="url(#clip300)" d="M217.06 176.238 L224.699 176.238 L224.699 149.872 L216.389 151.539 L216.389 147.279 L224.653 145.613 L229.329 145.613 L229.329 176.238 L236.967 176.238 L236.967 180.173 L217.06 180.173 L217.06 176.238 Z" fill="#000000" fill-rule="nonzero" fill-opacity="1" /><path clip-path="url(#clip300)" d="M256.412 148.691 Q252.801 148.691 250.972 152.256 Q249.166 155.798 249.166 162.927 Q249.166 170.034 250.972 173.599 Q252.801 177.14 256.412 177.14 Q260.046 177.14 261.852 173.599 Q263.68 170.034 263.68 162.927 Q263.68 155.798 261.852 152.256 Q260.046 148.691 256.412 148.691 M256.412 144.988 Q262.222 144.988 265.277 149.594 Q268.356 154.178 268.356 162.927 Q268.356 171.654 265.277 176.261 Q262.222 180.844 256.412 180.844 Q250.602 180.844 247.523 176.261 Q244.467 171.654 244.467 162.927 Q244.467 154.178 247.523 149.594 Q250.602 144.988 256.412 144.988 Z" fill="#000000" fill-rule="nonzero" fill-opacity="1" /><path clip-path="url(#clip300)" d="M270.162 152.179 L270.162 148.719 Q271.591 149.396 273.058 149.753 Q274.525 150.11 275.936 150.11 Q279.697 150.11 281.672 147.59 Q283.666 145.051 283.948 139.898 Q282.857 141.515 281.183 142.38 Q279.509 143.246 277.478 143.246 Q273.265 143.246 270.801 140.707 Q268.356 138.149 268.356 133.729 Q268.356 129.403 270.914 126.789 Q273.472 124.175 277.722 124.175 Q282.594 124.175 285.151 127.917 Q287.728 131.641 287.728 138.751 Q287.728 145.39 284.568 149.358 Q281.427 153.308 276.105 153.308 Q274.676 153.308 273.209 153.026 Q271.741 152.744 270.162 152.179 M277.722 140.274 Q280.28 140.274 281.766 138.525 Q283.271 136.776 283.271 133.729 Q283.271 130.701 281.766 128.952 Q280.28 127.184 277.722 127.184 Q275.165 127.184 273.66 128.952 Q272.174 130.701 272.174 133.729 Q272.174 136.776 273.66 138.525 Q275.165 140.274 277.722 140.274 Z" fill="#000000" fill-rule="nonzero" fill-opacity="1" /><path clip-path="url(#clip300)" d="M-9.64527 840.632 L0.4762 840.632 L0.4762 828.569 L5.02768 828.569 L5.02768 840.632 L24.3794 840.632 Q28.7399 840.632 29.9813 839.454 Q31.2226 838.245 31.2226 834.584 L31.2226 828.569 L36.1242 828.569 L36.1242 834.584 Q36.1242 841.364 33.6097 843.942 Q31.0634 846.52 24.3794 846.52 L5.02768 846.52 L5.02768 850.817 L0.4762 850.817 L0.4762 846.52 L-9.64527 846.52 L-9.64527 840.632 Z" fill="#000000" fill-rule="nonzero" fill-opacity="1" /><path clip-path="url(#clip300)" d="M-11.3958 789.738 L-11.3958 784.327 L42.1716 800.878 L42.1716 806.289 L-11.3958 789.738 Z" fill="#000000" fill-rule="nonzero" fill-opacity="1" /><path clip-path="url(#clip300)" d="M14.6081 727.831 L36.1242 727.831 L36.1242 733.688 L14.799 733.688 Q9.7383 733.688 7.22385 735.661 Q4.7094 737.635 4.7094 741.581 Q4.7094 746.324 7.73311 749.061 Q10.7568 751.798 15.9767 751.798 L36.1242 751.798 L36.1242 757.687 L0.4762 757.687 L0.4762 751.798 L6.01437 751.798 Q2.79968 749.698 1.20826 746.865 Q-0.38317 744 -0.38317 740.276 Q-0.38317 734.133 3.43625 730.982 Q7.22385 727.831 14.6081 727.831 Z" fill="#000000" fill-rule="nonzero" fill-opacity="1" /><path clip-path="url(#clip300)" d="M1.52654 693.425 L7.06471 693.425 Q5.79157 695.907 5.15499 698.581 Q4.51842 701.255 4.51842 704.119 Q4.51842 708.48 5.85522 710.676 Q7.19202 712.84 9.86562 712.84 Q11.9026 712.84 13.0803 711.281 Q14.2261 709.721 15.2765 705.01 L15.7221 703.005 Q17.0589 696.767 19.5097 694.157 Q21.9286 691.515 26.2891 691.515 Q31.2544 691.515 34.1508 695.462 Q37.0472 699.377 37.0472 706.252 Q37.0472 709.116 36.4743 712.235 Q35.9332 715.323 34.8192 718.76 L28.7718 718.76 Q30.4587 715.514 31.318 712.363 Q32.1456 709.212 32.1456 706.124 Q32.1456 701.987 30.7451 699.759 Q29.3129 697.531 26.7347 697.531 Q24.3476 697.531 23.0745 699.154 Q21.8013 700.745 20.6237 706.188 L20.1462 708.225 Q19.0004 713.668 16.6451 716.087 Q14.258 718.506 10.1202 718.506 Q5.09134 718.506 2.35408 714.941 Q-0.38317 711.376 -0.38317 704.819 Q-0.38317 701.573 0.0942579 698.708 Q0.571686 695.844 1.52654 693.425 Z" fill="#000000" fill-rule="nonzero" fill-opacity="1" /><path clip-path="url(#clip301)" d="M619.386 1454.11 L622.107 1453.79 L624.6 1453.47 L626.859 1453.15 L628.884 1452.83 L630.678 1452.51 L632.249 1452.19 L633.611 1451.87 L634.78 1451.55 L635.776 1451.22 L636.623 1450.9 L637.344 1450.58 L637.966 1450.26 L638.513 1449.94 L639.009 1449.62 L639.478 1449.3 L639.939 1448.98 L640.409 1448.66 L640.899 1448.34 L641.417 1448.02 L641.966 1447.7 L642.544 1447.38 L643.144 1447.06 L643.754 1446.73 L644.358 1446.41 L644.935 1446.09 L645.462 1445.77 L645.914 1445.45 L646.264 1445.13 L646.485 1444.81 L646.549 1444.49 L646.43 1444.17 L646.104 1443.85 L645.552 1443.53 L644.756 1443.21 L643.703 1442.89 L642.384 1442.57 L640.797 1442.24 L638.944 1441.92 L636.831 1441.6 L634.471 1441.28 L631.88 1440.96 L629.079 1440.64 L626.092 1440.32 L622.949 1440 L619.679 1439.68 L616.316 1439.36 L612.893 1439.04 L609.445 1438.72 L606.007 1438.4 L602.611 1438.08 L599.292 1437.75 L596.077 1437.43 L592.997 1437.11 L590.076 1436.79 L587.336 1436.47 L584.794 1436.15 L582.467 1435.83 L580.364 1435.51 L578.493 1435.19 L576.856 1434.87 L575.454 1434.55 L574.28 1434.23 L573.328 1433.91 L572.586 1433.59 L572.041 1433.26 L571.675 1432.94 L571.47 1432.62 L571.406 1432.3 L571.46 1431.98 L571.61 1431.66 L571.832 1431.34 L572.103 1431.02 L572.398 1430.7 L572.697 1430.38 L572.976 1430.06 L573.217 1429.74 L573.399 1429.42 L573.506 1429.1 L573.524 1428.77 L573.441 1428.45 L573.245 1428.13 L572.929 1427.81 L572.488 1427.49 L571.919 1427.17 L571.223 1426.85 L570.4 1426.53 L569.455 1426.21 L492.549 1426.21 L491.604 1426.53 L490.781 1426.85 L490.084 1427.17 L489.516 1427.49 L489.075 1427.81 L488.759 1428.13 L488.563 1428.45 L488.479 1428.77 L488.498 1429.1 L488.605 1429.42 L488.787 1429.74 L489.028 1430.06 L489.307 1430.38 L489.606 1430.7 L489.901 1431.02 L490.172 1431.34 L490.394 1431.66 L490.544 1431.98 L490.598 1432.3 L490.534 1432.62 L490.329 1432.94 L489.963 1433.26 L489.418 1433.59 L488.676 1433.91 L487.724 1434.23 L486.55 1434.55 L485.148 1434.87 L483.511 1435.19 L481.64 1435.51 L479.537 1435.83 L477.21 1436.15 L474.668 1436.47 L471.928 1436.79 L469.007 1437.11 L465.926 1437.43 L462.712 1437.75 L459.392 1438.08 L455.997 1438.4 L452.559 1438.72 L449.111 1439.04 L445.688 1439.36 L442.325 1439.68 L439.055 1440 L435.912 1440.32 L432.925 1440.64 L430.124 1440.96 L427.533 1441.28 L425.173 1441.6 L423.06 1441.92 L421.207 1442.24 L419.62 1442.57 L418.301 1442.89 L417.248 1443.21 L416.452 1443.53 L415.899 1443.85 L415.574 1444.17 L415.455 1444.49 L415.519 1444.81 L415.739 1445.13 L416.09 1445.45 L416.542 1445.77 L417.069 1446.09 L417.646 1446.41 L418.25 1446.73 L418.859 1447.06 L419.459 1447.38 L420.038 1447.7 L420.587 1448.02 L421.105 1448.34 L421.595 1448.66 L422.065 1448.98 L422.526 1449.3 L422.995 1449.62 L423.491 1449.94 L424.038 1450.26 L424.66 1450.58 L425.381 1450.9 L426.228 1451.22 L427.224 1451.55 L428.393 1451.87 L429.755 1452.19 L431.326 1452.51 L433.12 1452.83 L435.145 1453.15 L437.404 1453.47 L439.897 1453.79 L442.618 1454.11 L619.386 1454.11  Z" fill="#009af9" fill-rule="evenodd" fill-opacity="1"/>
<polyline clip-path="url(#clip301)" style="stroke:#000000; stroke-linecap:round; stroke-linejoin:round; stroke-width:4; stroke-opacity:1; fill:none" points="619.386,1454.11 622.107,1453.79 624.6,1453.47 626.859,1453.15 628.884,1452.83 630.678,1452.51 632.249,1452.19 633.611,1451.87 634.78,1451.55 635.776,1451.22 636.623,1450.9 637.344,1450.58 637.966,1450.26 638.513,1449.94 639.009,1449.62 639.478,1449.3 639.939,1448.98 640.409,1448.66 640.899,1448.34 641.417,1448.02 641.966,1447.7 642.544,1447.38 643.144,1447.06 643.754,1446.73 644.358,1446.41 644.935,1446.09 645.462,1445.77 645.914,1445.45 646.264,1445.13 646.485,1444.81 646.549,1444.49 646.43,1444.17 646.104,1443.85 645.552,1443.53 644.756,1443.21 643.703,1442.89 642.384,1442.57 640.797,1442.24 638.944,1441.92 636.831,1441.6 634.471,1441.28 631.88,1440.96 629.079,1440.64 626.092,1440.32 622.949,1440 619.679,1439.68 616.316,1439.36 612.893,1439.04 609.445,1438.72 606.007,1438.4 602.611,1438.08 599.292,1437.75 596.077,1437.43 592.997,1437.11 590.076,1436.79 587.336,1436.47 584.794,1436.15 582.467,1435.83 580.364,1435.51 578.493,1435.19 576.856,1434.87 575.454,1434.55 574.28,1434.23 573.328,1433.91 572.586,1433.59 572.041,1433.26 571.675,1432.94 571.47,1432.62 571.406,1432.3 571.46,1431.98 571.61,1431.66 571.832,1431.34 572.103,1431.02 572.398,1430.7 572.697,1430.38 572.976,1430.06 573.217,1429.74 573.399,1429.42 573.506,1429.1 573.524,1428.77 573.441,1428.45 573.245,1428.13 572.929,1427.81 572.488,1427.49 571.919,1427.17 571.223,1426.85 570.4,1426.53 569.455,1426.21 492.549,1426.21 491.604,1426.53 490.781,1426.85 490.084,1427.17 489.516,1427.49 489.075,1427.81 488.759,1428.13 488.563,1428.45 488.479,1428.77 488.498,1429.1 488.605,1429.42 488.787,1429.74 489.028,1430.06 489.307,1430.38 489.606,1430.7 489.901,1431.02 490.172,1431.34 490.394,1431.66 490.544,1431.98 490.598,1432.3 490.534,1432.62 490.329,1432.94 489.963,1433.26 489.418,1433.59 488.676,1433.91 487.724,1434.23 486.55,1434.55 485.148,1434.87 483.511,1435.19 481.64,1435.51 479.537,1435.83 477.21,1436.15 474.668,1436.47 471.928,1436.79 469.007,1437.11 465.926,1437.43 462.712,1437.75 459.392,1438.08 455.997,1438.4 452.559,1438.72 449.111,1439.04 445.688,1439.36 442.325,1439.68 439.055,1440 435.912,1440.32 432.925,1440.64 430.124,1440.96 427.533,1441.28 425.173,1441.6 423.06,1441.92 421.207,1442.24 419.62,1442.57 418.301,1442.89 417.248,1443.21 416.452,1443.53 415.899,1443.85 415.574,1444.17 415.455,1444.49 415.519,1444.81 415.739,1445.13 416.09,1445.45 416.542,1445.77 417.069,1446.09 417.646,1446.41 418.25,1446.73 418.859,1447.06 419.459,1447.38 420.038,1447.7 420.587,1448.02 421.105,1448.34 421.595,1448.66 422.065,1448.98 422.526,1449.3 422.995,1449.62 423.491,1449.94 424.038,1450.26 424.66,1450.58 425.381,1450.9 426.228,1451.22 427.224,1451.55 428.393,1451.87 429.755,1452.19 431.326,1452.51 433.12,1452.83 435.145,1453.15 437.404,1453.47 439.897,1453.79 442.618,1454.11 619.386,1454.11 "/>
<path clip-path="url(#clip301)" d="M1048.68 1321.02 L1049.77 1320.59 L1050.51 1320.17 L1050.91 1319.74 L1050.96 1319.31 L1050.67 1318.88 L1050.03 1318.46 L1049.07 1318.03 L1047.78 1317.6 L1046.2 1317.18 L1044.34 1316.75 L1042.22 1316.32 L1039.87 1315.89 L1037.32 1315.47 L1034.59 1315.04 L1031.71 1314.61 L1028.71 1314.19 L1025.64 1313.76 L1022.51 1313.33 L1019.37 1312.9 L1016.23 1312.48 L1013.14 1312.05 L1010.12 1311.62 L1007.2 1311.2 L1004.4 1310.77 L1001.75 1310.34 L999.257 1309.91 L996.951 1309.49 L994.844 1309.06 L992.945 1308.63 L991.264 1308.21 L989.806 1307.78 L988.574 1307.35 L987.567 1306.92 L986.781 1306.5 L986.21 1306.07 L985.846 1305.64 L985.676 1305.21 L985.687 1304.79 L985.864 1304.36 L986.188 1303.93 L986.641 1303.51 L987.203 1303.08 L987.853 1302.65 L988.568 1302.22 L989.327 1301.8 L990.108 1301.37 L990.889 1300.94 L991.649 1300.52 L992.366 1300.09 L993.023 1299.66 L993.6 1299.23 L994.081 1298.81 L994.452 1298.38 L994.699 1297.95 L994.812 1297.53 L994.781 1297.1 L994.6 1296.67 L994.264 1296.24 L993.77 1295.82 L877.06 1295.82 L876.567 1296.24 L876.231 1296.67 L876.05 1297.1 L876.019 1297.53 L876.131 1297.95 L876.379 1298.38 L876.749 1298.81 L877.231 1299.23 L877.808 1299.66 L878.464 1300.09 L879.182 1300.52 L879.941 1300.94 L880.722 1301.37 L881.503 1301.8 L882.262 1302.22 L882.978 1302.65 L883.627 1303.08 L884.189 1303.51 L884.643 1303.93 L884.967 1304.36 L885.144 1304.79 L885.155 1305.21 L884.985 1305.64 L884.62 1306.07 L884.05 1306.5 L883.264 1306.92 L882.257 1307.35 L881.024 1307.78 L879.567 1308.21 L877.886 1308.63 L875.987 1309.06 L873.879 1309.49 L871.574 1309.91 L869.085 1310.34 L866.431 1310.77 L863.632 1311.2 L860.709 1311.62 L857.689 1312.05 L854.597 1312.48 L851.464 1312.9 L848.318 1313.33 L845.192 1313.76 L842.116 1314.19 L839.123 1314.61 L836.245 1315.04 L833.513 1315.47 L830.957 1315.89 L828.606 1316.32 L826.488 1316.75 L824.628 1317.18 L823.047 1317.6 L821.766 1318.03 L820.8 1318.46 L820.165 1318.88 L819.869 1319.31 L819.918 1319.74 L820.316 1320.17 L821.061 1320.59 L822.149 1321.02 L1048.68 1321.02  Z" fill="#e26f46" fill-rule="evenodd" fill-opacity="1"/>
<polyline clip-path="url(#clip301)" style="stroke:#000000; stroke-linecap:round; stroke-linejoin:round; stroke-width:4; stroke-opacity:1; fill:none" points="1048.68,1321.02 1049.77,1320.59 1050.51,1320.17 1050.91,1319.74 1050.96,1319.31 1050.67,1318.88 1050.03,1318.46 1049.07,1318.03 1047.78,1317.6 1046.2,1317.18 1044.34,1316.75 1042.22,1316.32 1039.87,1315.89 1037.32,1315.47 1034.59,1315.04 1031.71,1314.61 1028.71,1314.19 1025.64,1313.76 1022.51,1313.33 1019.37,1312.9 1016.23,1312.48 1013.14,1312.05 1010.12,1311.62 1007.2,1311.2 1004.4,1310.77 1001.75,1310.34 999.257,1309.91 996.951,1309.49 994.844,1309.06 992.945,1308.63 991.264,1308.21 989.806,1307.78 988.574,1307.35 987.567,1306.92 986.781,1306.5 986.21,1306.07 985.846,1305.64 985.676,1305.21 985.687,1304.79 985.864,1304.36 986.188,1303.93 986.641,1303.51 987.203,1303.08 987.853,1302.65 988.568,1302.22 989.327,1301.8 990.108,1301.37 990.889,1300.94 991.649,1300.52 992.366,1300.09 993.023,1299.66 993.6,1299.23 994.081,1298.81 994.452,1298.38 994.699,1297.95 994.812,1297.53 994.781,1297.1 994.6,1296.67 994.264,1296.24 993.77,1295.82 877.06,1295.82 876.567,1296.24 876.231,1296.67 876.05,1297.1 876.019,1297.53 876.131,1297.95 876.379,1298.38 876.749,1298.81 877.231,1299.23 877.808,1299.66 878.464,1300.09 879.182,1300.52 879.941,1300.94 880.722,1301.37 881.503,1301.8 882.262,1302.22 882.978,1302.65 883.627,1303.08 884.189,1303.51 884.643,1303.93 884.967,1304.36 885.144,1304.79 885.155,1305.21 884.985,1305.64 884.62,1306.07 884.05,1306.5 883.264,1306.92 882.257,1307.35 881.024,1307.78 879.567,1308.21 877.886,1308.63 875.987,1309.06 873.879,1309.49 871.574,1309.91 869.085,1310.34 866.431,1310.77 863.632,1311.2 860.709,1311.62 857.689,1312.05 854.597,1312.48 851.464,1312.9 848.318,1313.33 845.192,1313.76 842.116,1314.19 839.123,1314.61 836.245,1315.04 833.513,1315.47 830.957,1315.89 828.606,1316.32 826.488,1316.75 824.628,1317.18 823.047,1317.6 821.766,1318.03 820.8,1318.46 820.165,1318.88 819.869,1319.31 819.918,1319.74 820.316,1320.17 821.061,1320.59 822.149,1321.02 1048.68,1321.02 "/>
<path clip-path="url(#clip301)" d="M1419.06 1433.46 L1424.22 1433.26 L1429.16 1433.06 L1433.82 1432.85 L1438.16 1432.65 L1442.1 1432.45 L1445.6 1432.24 L1448.62 1432.04 L1451.12 1431.84 L1453.06 1431.63 L1454.42 1431.43 L1455.2 1431.23 L1455.38 1431.02 L1454.97 1430.82 L1454.01 1430.62 L1452.52 1430.41 L1450.55 1430.21 L1448.14 1430.01 L1445.38 1429.8 L1442.31 1429.6 L1439.01 1429.4 L1435.53 1429.19 L1431.95 1428.99 L1428.32 1428.79 L1424.67 1428.58 L1421.05 1428.38 L1417.48 1428.18 L1413.97 1427.97 L1410.53 1427.77 L1407.14 1427.57 L1403.82 1427.36 L1400.53 1427.16 L1397.26 1426.96 L1394.02 1426.75 L1390.77 1426.55 L1387.54 1426.35 L1384.3 1426.14 L1381.09 1425.94 L1377.9 1425.74 L1374.76 1425.53 L1371.7 1425.33 L1368.75 1425.13 L1365.94 1424.92 L1363.3 1424.72 L1360.86 1424.52 L1358.65 1424.31 L1356.7 1424.11 L1355.03 1423.91 L1353.64 1423.7 L1352.57 1423.5 L1351.79 1423.3 L1351.33 1423.09 L1351.15 1422.89 L1351.26 1422.69 L1351.63 1422.48 L1352.23 1422.28 L1353.02 1422.08 L1353.98 1421.87 L1355.05 1421.67 L1356.19 1421.47 L1357.36 1421.26 L1358.51 1421.06 L1359.59 1420.86 L1360.55 1420.65 L1361.36 1420.45 L1361.98 1420.25 L1362.39 1420.04 L1362.56 1419.84 L1362.49 1419.64 L1362.18 1419.43 L1361.63 1419.23 L1360.86 1419.03 L1359.89 1418.82 L1358.76 1418.62 L1357.5 1418.42 L1356.13 1418.21 L1354.71 1418.01 L1353.26 1417.81 L1351.81 1417.6 L1350.4 1417.4 L1349.06 1417.2 L1347.8 1416.99 L1346.63 1416.79 L1345.57 1416.59 L1344.62 1416.38 L1343.79 1416.18 L1343.07 1415.98 L1342.45 1415.77 L1341.93 1415.57 L1341.5 1415.37 L1341.16 1415.16 L1340.89 1414.96 L1340.68 1414.76 L1340.54 1414.55 L1340.45 1414.35 L1340.41 1414.15 L1340.42 1413.94 L1340.48 1413.74 L1340.6 1413.54 L1340.77 1413.33 L1341.01 1413.13 L1341.31 1412.93 L1341.7 1412.72 L1342.17 1412.52 L1342.73 1412.32 L1343.4 1412.11 L1344.18 1411.91 L1345.07 1411.71 L1346.07 1411.5 L1347.18 1411.3 L1348.4 1411.1 L1349.71 1410.89 L1351.08 1410.69 L1352.51 1410.48 L1353.97 1410.28 L1355.41 1410.08 L1356.81 1409.87 L1358.13 1409.67 L1359.33 1409.47 L1360.38 1409.26 L1361.25 1409.06 L1361.9 1408.86 L1362.33 1408.65 L1362.5 1408.45 L1317.16 1408.45 L1317.33 1408.65 L1317.75 1408.86 L1318.41 1409.06 L1319.28 1409.26 L1320.33 1409.47 L1321.53 1409.67 L1322.85 1409.87 L1324.25 1410.08 L1325.69 1410.28 L1327.14 1410.48 L1328.57 1410.69 L1329.95 1410.89 L1331.26 1411.1 L1332.47 1411.3 L1333.59 1411.5 L1334.59 1411.71 L1335.48 1411.91 L1336.26 1412.11 L1336.92 1412.32 L1337.49 1412.52 L1337.96 1412.72 L1338.34 1412.93 L1338.65 1413.13 L1338.89 1413.33 L1339.06 1413.54 L1339.17 1413.74 L1339.24 1413.94 L1339.25 1414.15 L1339.21 1414.35 L1339.12 1414.55 L1338.98 1414.76 L1338.77 1414.96 L1338.5 1415.16 L1338.16 1415.37 L1337.73 1415.57 L1337.21 1415.77 L1336.59 1415.98 L1335.87 1416.18 L1335.04 1416.38 L1334.09 1416.59 L1333.03 1416.79 L1331.86 1416.99 L1330.6 1417.2 L1329.25 1417.4 L1327.85 1417.6 L1326.4 1417.81 L1324.95 1418.01 L1323.52 1418.21 L1322.16 1418.42 L1320.9 1418.62 L1319.76 1418.82 L1318.8 1419.03 L1318.03 1419.23 L1317.48 1419.43 L1317.17 1419.64 L1317.1 1419.84 L1317.27 1420.04 L1317.68 1420.25 L1318.3 1420.45 L1319.11 1420.65 L1320.07 1420.86 L1321.15 1421.06 L1322.29 1421.26 L1323.46 1421.47 L1324.61 1421.67 L1325.68 1421.87 L1326.64 1422.08 L1327.43 1422.28 L1328.03 1422.48 L1328.39 1422.69 L1328.5 1422.89 L1328.33 1423.09 L1327.86 1423.3 L1327.09 1423.5 L1326.01 1423.7 L1324.63 1423.91 L1322.96 1424.11 L1321 1424.31 L1318.8 1424.52 L1316.36 1424.72 L1313.72 1424.92 L1310.9 1425.13 L1307.95 1425.33 L1304.9 1425.53 L1301.76 1425.74 L1298.57 1425.94 L1295.35 1426.14 L1292.12 1426.35 L1288.88 1426.55 L1285.64 1426.75 L1282.39 1426.96 L1279.13 1427.16 L1275.84 1427.36 L1272.51 1427.57 L1269.13 1427.77 L1265.69 1427.97 L1262.18 1428.18 L1258.61 1428.38 L1254.99 1428.58 L1251.34 1428.79 L1247.7 1428.99 L1244.12 1429.19 L1240.65 1429.4 L1237.35 1429.6 L1234.28 1429.8 L1231.51 1430.01 L1229.11 1430.21 L1227.14 1430.41 L1225.65 1430.62 L1224.69 1430.82 L1224.28 1431.02 L1224.46 1431.23 L1225.23 1431.43 L1226.6 1431.63 L1228.54 1431.84 L1231.04 1432.04 L1234.06 1432.24 L1237.56 1432.45 L1241.5 1432.65 L1245.83 1432.85 L1250.5 1433.06 L1255.44 1433.26 L1260.6 1433.46 L1419.06 1433.46  Z" fill="#3da44d" fill-rule="evenodd" fill-opacity="1"/>
<polyline clip-path="url(#clip301)" style="stroke:#000000; stroke-linecap:round; stroke-linejoin:round; stroke-width:4; stroke-opacity:1; fill:none" points="1419.06,1433.46 1424.22,1433.26 1429.16,1433.06 1433.82,1432.85 1438.16,1432.65 1442.1,1432.45 1445.6,1432.24 1448.62,1432.04 1451.12,1431.84 1453.06,1431.63 1454.42,1431.43 1455.2,1431.23 1455.38,1431.02 1454.97,1430.82 1454.01,1430.62 1452.52,1430.41 1450.55,1430.21 1448.14,1430.01 1445.38,1429.8 1442.31,1429.6 1439.01,1429.4 1435.53,1429.19 1431.95,1428.99 1428.32,1428.79 1424.67,1428.58 1421.05,1428.38 1417.48,1428.18 1413.97,1427.97 1410.53,1427.77 1407.14,1427.57 1403.82,1427.36 1400.53,1427.16 1397.26,1426.96 1394.02,1426.75 1390.77,1426.55 1387.54,1426.35 1384.3,1426.14 1381.09,1425.94 1377.9,1425.74 1374.76,1425.53 1371.7,1425.33 1368.75,1425.13 1365.94,1424.92 1363.3,1424.72 1360.86,1424.52 1358.65,1424.31 1356.7,1424.11 1355.03,1423.91 1353.64,1423.7 1352.57,1423.5 1351.79,1423.3 1351.33,1423.09 1351.15,1422.89 1351.26,1422.69 1351.63,1422.48 1352.23,1422.28 1353.02,1422.08 1353.98,1421.87 1355.05,1421.67 1356.19,1421.47 1357.36,1421.26 1358.51,1421.06 1359.59,1420.86 1360.55,1420.65 1361.36,1420.45 1361.98,1420.25 1362.39,1420.04 1362.56,1419.84 1362.49,1419.64 1362.18,1419.43 1361.63,1419.23 1360.86,1419.03 1359.89,1418.82 1358.76,1418.62 1357.5,1418.42 1356.13,1418.21 1354.71,1418.01 1353.26,1417.81 1351.81,1417.6 1350.4,1417.4 1349.06,1417.2 1347.8,1416.99 1346.63,1416.79 1345.57,1416.59 1344.62,1416.38 1343.79,1416.18 1343.07,1415.98 1342.45,1415.77 1341.93,1415.57 1341.5,1415.37 1341.16,1415.16 1340.89,1414.96 1340.68,1414.76 1340.54,1414.55 1340.45,1414.35 1340.41,1414.15 1340.42,1413.94 1340.48,1413.74 1340.6,1413.54 1340.77,1413.33 1341.01,1413.13 1341.31,1412.93 1341.7,1412.72 1342.17,1412.52 1342.73,1412.32 1343.4,1412.11 1344.18,1411.91 1345.07,1411.71 1346.07,1411.5 1347.18,1411.3 1348.4,1411.1 1349.71,1410.89 1351.08,1410.69 1352.51,1410.48 1353.97,1410.28 1355.41,1410.08 1356.81,1409.87 1358.13,1409.67 1359.33,1409.47 1360.38,1409.26 1361.25,1409.06 1361.9,1408.86 1362.33,1408.65 1362.5,1408.45 1317.16,1408.45 1317.33,1408.65 1317.75,1408.86 1318.41,1409.06 1319.28,1409.26 1320.33,1409.47 1321.53,1409.67 1322.85,1409.87 1324.25,1410.08 1325.69,1410.28 1327.14,1410.48 1328.57,1410.69 1329.95,1410.89 1331.26,1411.1 1332.47,1411.3 1333.59,1411.5 1334.59,1411.71 1335.48,1411.91 1336.26,1412.11 1336.92,1412.32 1337.49,1412.52 1337.96,1412.72 1338.34,1412.93 1338.65,1413.13 1338.89,1413.33 1339.06,1413.54 1339.17,1413.74 1339.24,1413.94 1339.25,1414.15 1339.21,1414.35 1339.12,1414.55 1338.98,1414.76 1338.77,1414.96 1338.5,1415.16 1338.16,1415.37 1337.73,1415.57 1337.21,1415.77 1336.59,1415.98 1335.87,1416.18 1335.04,1416.38 1334.09,1416.59 1333.03,1416.79 1331.86,1416.99 1330.6,1417.2 1329.25,1417.4 1327.85,1417.6 1326.4,1417.81 1324.95,1418.01 1323.52,1418.21 1322.16,1418.42 1320.9,1418.62 1319.76,1418.82 1318.8,1419.03 1318.03,1419.23 1317.48,1419.43 1317.17,1419.64 1317.1,1419.84 1317.27,1420.04 1317.68,1420.25 1318.3,1420.45 1319.11,1420.65 1320.07,1420.86 1321.15,1421.06 1322.29,1421.26 1323.46,1421.47 1324.61,1421.67 1325.68,1421.87 1326.64,1422.08 1327.43,1422.28 1328.03,1422.48 1328.39,1422.69 1328.5,1422.89 1328.33,1423.09 1327.86,1423.3 1327.09,1423.5 1326.01,1423.7 1324.63,1423.91 1322.96,1424.11 1321,1424.31 1318.8,1424.52 1316.36,1424.72 1313.72,1424.92 1310.9,1425.13 1307.95,1425.33 1304.9,1425.53 1301.76,1425.74 1298.57,1425.94 1295.35,1426.14 1292.12,1426.35 1288.88,1426.55 1285.64,1426.75 1282.39,1426.96 1279.13,1427.16 1275.84,1427.36 1272.51,1427.57 1269.13,1427.77 1265.69,1427.97 1262.18,1428.18 1258.61,1428.38 1254.99,1428.58 1251.34,1428.79 1247.7,1428.99 1244.12,1429.19 1240.65,1429.4 1237.35,1429.6 1234.28,1429.8 1231.51,1430.01 1229.11,1430.21 1227.14,1430.41 1225.65,1430.62 1224.69,1430.82 1224.28,1431.02 1224.46,1431.23 1225.23,1431.43 1226.6,1431.63 1228.54,1431.84 1231.04,1432.04 1234.06,1432.24 1237.56,1432.45 1241.5,1432.65 1245.83,1432.85 1250.5,1433.06 1255.44,1433.26 1260.6,1433.46 1419.06,1433.46 "/>
<path clip-path="url(#clip301)" d="M1859.79 593.366 L1859.56 590.706 L1858.97 588.046 L1858.03 585.386 L1856.75 582.726 L1855.15 580.066 L1853.24 577.406 L1851.05 574.746 L1848.62 572.086 L1845.96 569.426 L1843.1 566.766 L1840.09 564.106 L1836.96 561.446 L1833.73 558.786 L1830.46 556.126 L1827.17 553.466 L1823.91 550.806 L1820.7 548.146 L1817.59 545.486 L1814.61 542.826 L1811.78 540.166 L1809.15 537.506 L1806.73 534.846 L1804.56 532.186 L1802.66 529.526 L1801.04 526.866 L1799.72 524.206 L1798.72 521.546 L1798.05 518.886 L1797.72 516.226 L1797.72 513.566 L1798.05 510.906 L1798.72 508.246 L1799.72 505.586 L1801.04 502.926 L1802.66 500.266 L1804.56 497.606 L1806.73 494.946 L1809.15 492.286 L1811.78 489.626 L1814.61 486.966 L1817.59 484.306 L1820.7 481.646 L1823.91 478.986 L1827.17 476.326 L1830.46 473.666 L1833.73 471.006 L1836.96 468.346 L1840.09 465.686 L1843.1 463.026 L1845.96 460.366 L1848.62 457.706 L1851.05 455.046 L1853.24 452.386 L1855.15 449.726 L1856.75 447.066 L1858.03 444.406 L1858.97 441.746 L1859.56 439.086 L1859.79 436.426 L1628.7 436.426 L1628.92 439.086 L1629.51 441.746 L1630.45 444.406 L1631.73 447.066 L1633.34 449.726 L1635.24 452.386 L1637.43 455.046 L1639.87 457.706 L1642.53 460.366 L1645.38 463.026 L1648.39 465.686 L1651.53 468.346 L1654.75 471.006 L1658.02 473.666 L1661.31 476.326 L1664.58 478.986 L1667.78 481.646 L1670.89 484.306 L1673.88 486.966 L1676.7 489.626 L1679.34 492.286 L1681.75 494.946 L1683.92 497.606 L1685.83 500.266 L1687.45 502.926 L1688.76 505.586 L1689.76 508.246 L1690.43 510.906 L1690.77 513.566 L1690.77 516.226 L1690.43 518.886 L1689.76 521.546 L1688.76 524.206 L1687.45 526.866 L1685.83 529.526 L1683.92 532.186 L1681.75 534.846 L1679.34 537.506 L1676.7 540.166 L1673.88 542.826 L1670.89 545.486 L1667.78 548.146 L1664.58 550.806 L1661.31 553.466 L1658.02 556.126 L1654.75 558.786 L1651.53 561.446 L1648.39 564.106 L1645.38 566.766 L1642.53 569.426 L1639.87 572.086 L1637.43 574.746 L1635.24 577.406 L1633.34 580.066 L1631.73 582.726 L1630.45 585.386 L1629.51 588.046 L1628.92 590.706 L1628.7 593.366 L1859.79 593.366  Z" fill="#c271d2" fill-rule="evenodd" fill-opacity="1"/>
<polyline clip-path="url(#clip301)" style="stroke:#000000; stroke-linecap:round; stroke-linejoin:round; stroke-width:4; stroke-opacity:1; fill:none" points="1859.79,593.366 1859.56,590.706 1858.97,588.046 1858.03,585.386 1856.75,582.726 1855.15,580.066 1853.24,577.406 1851.05,574.746 1848.62,572.086 1845.96,569.426 1843.1,566.766 1840.09,564.106 1836.96,561.446 1833.73,558.786 1830.46,556.126 1827.17,553.466 1823.91,550.806 1820.7,548.146 1817.59,545.486 1814.61,542.826 1811.78,540.166 1809.15,537.506 1806.73,534.846 1804.56,532.186 1802.66,529.526 1801.04,526.866 1799.72,524.206 1798.72,521.546 1798.05,518.886 1797.72,516.226 1797.72,513.566 1798.05,510.906 1798.72,508.246 1799.72,505.586 1801.04,502.926 1802.66,500.266 1804.56,497.606 1806.73,494.946 1809.15,492.286 1811.78,489.626 1814.61,486.966 1817.59,484.306 1820.7,481.646 1823.91,478.986 1827.17,476.326 1830.46,473.666 1833.73,471.006 1836.96,468.346 1840.09,465.686 1843.1,463.026 1845.96,460.366 1848.62,457.706 1851.05,455.046 1853.24,452.386 1855.15,449.726 1856.75,447.066 1858.03,444.406 1858.97,441.746 1859.56,439.086 1859.79,436.426 1628.7,436.426 1628.92,439.086 1629.51,441.746 1630.45,444.406 1631.73,447.066 1633.34,449.726 1635.24,452.386 1637.43,455.046 1639.87,457.706 1642.53,460.366 1645.38,463.026 1648.39,465.686 1651.53,468.346 1654.75,471.006 1658.02,473.666 1661.31,476.326 1664.58,478.986 1667.78,481.646 1670.89,484.306 1673.88,486.966 1676.7,489.626 1679.34,492.286 1681.75,494.946 1683.92,497.606 1685.83,500.266 1687.45,502.926 1688.76,505.586 1689.76,508.246 1690.43,510.906 1690.77,513.566 1690.77,516.226 1690.43,518.886 1689.76,521.546 1688.76,524.206 1687.45,526.866 1685.83,529.526 1683.92,532.186 1681.75,534.846 1679.34,537.506 1676.7,540.166 1673.88,542.826 1670.89,545.486 1667.78,548.146 1664.58,550.806 1661.31,553.466 1658.02,556.126 1654.75,558.786 1651.53,561.446 1648.39,564.106 1645.38,566.766 1642.53,569.426 1639.87,572.086 1637.43,574.746 1635.24,577.406 1633.34,580.066 1631.73,582.726 1630.45,585.386 1629.51,588.046 1628.92,590.706 1628.7,593.366 1859.79,593.366 "/>
<path clip-path="url(#clip301)" d="M2264.2 729.987 L2263.97 729.412 L2263.38 728.838 L2262.44 728.264 L2261.16 727.69 L2259.56 727.116 L2257.65 726.542 L2255.47 725.968 L2253.03 725.394 L2250.37 724.82 L2247.52 724.246 L2244.5 723.672 L2241.37 723.098 L2238.15 722.524 L2234.87 721.95 L2231.59 721.376 L2228.32 720.802 L2225.12 720.228 L2222 719.654 L2219.02 719.079 L2216.2 718.505 L2213.56 717.931 L2211.15 717.357 L2208.97 716.783 L2207.07 716.209 L2205.45 715.635 L2204.14 715.061 L2203.14 714.487 L2202.47 713.913 L2202.13 713.339 L2202.13 712.765 L2202.47 712.191 L2203.14 711.617 L2204.14 711.043 L2205.45 710.469 L2207.07 709.895 L2208.97 709.321 L2211.15 708.746 L2213.56 708.172 L2216.2 707.598 L2219.02 707.024 L2222 706.45 L2225.12 705.876 L2228.32 705.302 L2231.59 704.728 L2234.87 704.154 L2238.15 703.58 L2241.37 703.006 L2244.5 702.432 L2247.52 701.858 L2250.37 701.284 L2253.03 700.71 L2255.47 700.136 L2257.65 699.562 L2259.56 698.988 L2261.16 698.413 L2262.44 697.839 L2263.38 697.265 L2263.97 696.691 L2264.2 696.117 L2033.11 696.117 L2033.34 696.691 L2033.93 697.265 L2034.87 697.839 L2036.15 698.413 L2037.75 698.988 L2039.66 699.562 L2041.84 700.136 L2044.28 700.71 L2046.94 701.284 L2049.79 701.858 L2052.81 702.432 L2055.94 703.006 L2059.16 703.58 L2062.44 704.154 L2065.72 704.728 L2068.99 705.302 L2072.19 705.876 L2075.31 706.45 L2078.29 707.024 L2081.12 707.598 L2083.75 708.172 L2086.16 708.746 L2088.34 709.321 L2090.24 709.895 L2091.86 710.469 L2093.17 711.043 L2094.17 711.617 L2094.84 712.191 L2095.18 712.765 L2095.18 713.339 L2094.84 713.913 L2094.17 714.487 L2093.17 715.061 L2091.86 715.635 L2090.24 716.209 L2088.34 716.783 L2086.16 717.357 L2083.75 717.931 L2081.12 718.505 L2078.29 719.079 L2075.31 719.654 L2072.19 720.228 L2068.99 720.802 L2065.72 721.376 L2062.44 721.95 L2059.16 722.524 L2055.94 723.098 L2052.81 723.672 L2049.79 724.246 L2046.94 724.82 L2044.28 725.394 L2041.84 725.968 L2039.66 726.542 L2037.75 727.116 L2036.15 727.69 L2034.87 728.264 L2033.93 728.838 L2033.34 729.412 L2033.11 729.987 L2264.2 729.987  Z" fill="#ac8d18" fill-rule="evenodd" fill-opacity="1"/>
<polyline clip-path="url(#clip301)" style="stroke:#000000; stroke-linecap:round; stroke-linejoin:round; stroke-width:4; stroke-opacity:1; fill:none" points="2264.2,729.987 2263.97,729.412 2263.38,728.838 2262.44,728.264 2261.16,727.69 2259.56,727.116 2257.65,726.542 2255.47,725.968 2253.03,725.394 2250.37,724.82 2247.52,724.246 2244.5,723.672 2241.37,723.098 2238.15,722.524 2234.87,721.95 2231.59,721.376 2228.32,720.802 2225.12,720.228 2222,719.654 2219.02,719.079 2216.2,718.505 2213.56,717.931 2211.15,717.357 2208.97,716.783 2207.07,716.209 2205.45,715.635 2204.14,715.061 2203.14,714.487 2202.47,713.913 2202.13,713.339 2202.13,712.765 2202.47,712.191 2203.14,711.617 2204.14,711.043 2205.45,710.469 2207.07,709.895 2208.97,709.321 2211.15,708.746 2213.56,708.172 2216.2,707.598 2219.02,707.024 2222,706.45 2225.12,705.876 2228.32,705.302 2231.59,704.728 2234.87,704.154 2238.15,703.58 2241.37,703.006 2244.5,702.432 2247.52,701.858 2250.37,701.284 2253.03,700.71 2255.47,700.136 2257.65,699.562 2259.56,698.988 2261.16,698.413 2262.44,697.839 2263.38,697.265 2263.97,696.691 2264.2,696.117 2033.11,696.117 2033.34,696.691 2033.93,697.265 2034.87,697.839 2036.15,698.413 2037.75,698.988 2039.66,699.562 2041.84,700.136 2044.28,700.71 2046.94,701.284 2049.79,701.858 2052.81,702.432 2055.94,703.006 2059.16,703.58 2062.44,704.154 2065.72,704.728 2068.99,705.302 2072.19,705.876 2075.31,706.45 2078.29,707.024 2081.12,707.598 2083.75,708.172 2086.16,708.746 2088.34,709.321 2090.24,709.895 2091.86,710.469 2093.17,711.043 2094.17,711.617 2094.84,712.191 2095.18,712.765 2095.18,713.339 2094.84,713.913 2094.17,714.487 2093.17,715.061 2091.86,715.635 2090.24,716.209 2088.34,716.783 2086.16,717.357 2083.75,717.931 2081.12,718.505 2078.29,719.079 2075.31,719.654 2072.19,720.228 2068.99,720.802 2065.72,721.376 2062.44,721.95 2059.16,722.524 2055.94,723.098 2052.81,723.672 2049.79,724.246 2046.94,724.82 2044.28,725.394 2041.84,725.968 2039.66,726.542 2037.75,727.116 2036.15,727.69 2034.87,728.264 2033.93,728.838 2033.34,729.412 2033.11,729.987 2264.2,729.987 "/>
<path clip-path="url(#clip301)" d="M2628.12 1443.95 L2632.42 1443.72 L2636.63 1443.49 L2640.73 1443.27 L2644.66 1443.04 L2648.4 1442.81 L2651.91 1442.58 L2655.15 1442.36 L2658.1 1442.13 L2660.72 1441.9 L2663 1441.68 L2664.9 1441.45 L2666.43 1441.22 L2667.56 1441 L2668.29 1440.77 L2668.62 1440.54 L2668.55 1440.31 L2668.09 1440.09 L2667.27 1439.86 L2666.08 1439.63 L2664.56 1439.41 L2662.74 1439.18 L2660.63 1438.95 L2658.28 1438.72 L2655.7 1438.5 L2652.94 1438.27 L2650.03 1438.04 L2647 1437.82 L2643.89 1437.59 L2640.72 1437.36 L2637.52 1437.13 L2634.33 1436.91 L2631.17 1436.68 L2628.07 1436.45 L2625.04 1436.23 L2622.1 1436 L2619.27 1435.77 L2616.56 1435.55 L2613.98 1435.32 L2611.55 1435.09 L2609.25 1434.86 L2607.1 1434.64 L2605.1 1434.41 L2603.24 1434.18 L2601.53 1433.96 L2599.95 1433.73 L2598.5 1433.5 L2597.18 1433.27 L2595.97 1433.05 L2594.87 1432.82 L2593.86 1432.59 L2592.95 1432.37 L2592.12 1432.14 L2591.36 1431.91 L2590.66 1431.68 L2590.01 1431.46 L2589.41 1431.23 L2588.84 1431 L2588.31 1430.78 L2587.79 1430.55 L2587.29 1430.32 L2586.8 1430.1 L2586.32 1429.87 L2585.84 1429.64 L2585.36 1429.41 L2584.88 1429.19 L2584.4 1428.96 L2583.92 1428.73 L2583.44 1428.51 L2582.96 1428.28 L2582.49 1428.05 L2582.03 1427.82 L2581.58 1427.6 L2581.15 1427.37 L2580.75 1427.14 L2580.37 1426.92 L2580.02 1426.69 L2579.71 1426.46 L2579.42 1426.23 L2579.17 1426.01 L2578.95 1425.78 L2578.76 1425.55 L2578.6 1425.33 L2578.45 1425.1 L2578.32 1424.87 L2578.19 1424.65 L2578.06 1424.42 L2577.92 1424.19 L2577.75 1423.96 L2577.56 1423.74 L2577.32 1423.51 L2577.04 1423.28 L2576.71 1423.06 L2576.31 1422.83 L2529.83 1422.83 L2529.43 1423.06 L2529.1 1423.28 L2528.81 1423.51 L2528.58 1423.74 L2528.38 1423.96 L2528.22 1424.19 L2528.08 1424.42 L2527.94 1424.65 L2527.82 1424.87 L2527.68 1425.1 L2527.54 1425.33 L2527.37 1425.55 L2527.18 1425.78 L2526.96 1426.01 L2526.71 1426.23 L2526.43 1426.46 L2526.11 1426.69 L2525.77 1426.92 L2525.39 1427.14 L2524.98 1427.37 L2524.56 1427.6 L2524.11 1427.82 L2523.65 1428.05 L2523.18 1428.28 L2522.7 1428.51 L2522.22 1428.73 L2521.74 1428.96 L2521.26 1429.19 L2520.78 1429.41 L2520.3 1429.64 L2519.82 1429.87 L2519.33 1430.1 L2518.85 1430.32 L2518.35 1430.55 L2517.83 1430.78 L2517.29 1431 L2516.73 1431.23 L2516.13 1431.46 L2515.48 1431.68 L2514.78 1431.91 L2514.02 1432.14 L2513.19 1432.37 L2512.27 1432.59 L2511.27 1432.82 L2510.17 1433.05 L2508.96 1433.27 L2507.64 1433.5 L2506.19 1433.73 L2504.61 1433.96 L2502.89 1434.18 L2501.04 1434.41 L2499.04 1434.64 L2496.89 1434.86 L2494.59 1435.09 L2492.15 1435.32 L2489.58 1435.55 L2486.87 1435.77 L2484.04 1436 L2481.1 1436.23 L2478.07 1436.45 L2474.96 1436.68 L2471.8 1436.91 L2468.61 1437.13 L2465.42 1437.36 L2462.25 1437.59 L2459.13 1437.82 L2456.11 1438.04 L2453.19 1438.27 L2450.43 1438.5 L2447.86 1438.72 L2445.5 1438.95 L2443.4 1439.18 L2441.57 1439.41 L2440.06 1439.63 L2438.87 1439.86 L2438.04 1440.09 L2437.59 1440.31 L2437.52 1440.54 L2437.85 1440.77 L2438.58 1441 L2439.71 1441.22 L2441.23 1441.45 L2443.14 1441.68 L2445.42 1441.9 L2448.04 1442.13 L2450.99 1442.36 L2454.23 1442.58 L2457.74 1442.81 L2461.48 1443.04 L2465.41 1443.27 L2469.5 1443.49 L2473.72 1443.72 L2478.02 1443.95 L2628.12 1443.95  Z" fill="#00a9ad" fill-rule="evenodd" fill-opacity="1"/>
<polyline clip-path="url(#clip301)" style="stroke:#000000; stroke-linecap:round; stroke-linejoin:round; stroke-width:4; stroke-opacity:1; fill:none" points="2628.12,1443.95 2632.42,1443.72 2636.63,1443.49 2640.73,1443.27 2644.66,1443.04 2648.4,1442.81 2651.91,1442.58 2655.15,1442.36 2658.1,1442.13 2660.72,1441.9 2663,1441.68 2664.9,1441.45 2666.43,1441.22 2667.56,1441 2668.29,1440.77 2668.62,1440.54 2668.55,1440.31 2668.09,1440.09 2667.27,1439.86 2666.08,1439.63 2664.56,1439.41 2662.74,1439.18 2660.63,1438.95 2658.28,1438.72 2655.7,1438.5 2652.94,1438.27 2650.03,1438.04 2647,1437.82 2643.89,1437.59 2640.72,1437.36 2637.52,1437.13 2634.33,1436.91 2631.17,1436.68 2628.07,1436.45 2625.04,1436.23 2622.1,1436 2619.27,1435.77 2616.56,1435.55 2613.98,1435.32 2611.55,1435.09 2609.25,1434.86 2607.1,1434.64 2605.1,1434.41 2603.24,1434.18 2601.53,1433.96 2599.95,1433.73 2598.5,1433.5 2597.18,1433.27 2595.97,1433.05 2594.87,1432.82 2593.86,1432.59 2592.95,1432.37 2592.12,1432.14 2591.36,1431.91 2590.66,1431.68 2590.01,1431.46 2589.41,1431.23 2588.84,1431 2588.31,1430.78 2587.79,1430.55 2587.29,1430.32 2586.8,1430.1 2586.32,1429.87 2585.84,1429.64 2585.36,1429.41 2584.88,1429.19 2584.4,1428.96 2583.92,1428.73 2583.44,1428.51 2582.96,1428.28 2582.49,1428.05 2582.03,1427.82 2581.58,1427.6 2581.15,1427.37 2580.75,1427.14 2580.37,1426.92 2580.02,1426.69 2579.71,1426.46 2579.42,1426.23 2579.17,1426.01 2578.95,1425.78 2578.76,1425.55 2578.6,1425.33 2578.45,1425.1 2578.32,1424.87 2578.19,1424.65 2578.06,1424.42 2577.92,1424.19 2577.75,1423.96 2577.56,1423.74 2577.32,1423.51 2577.04,1423.28 2576.71,1423.06 2576.31,1422.83 2529.83,1422.83 2529.43,1423.06 2529.1,1423.28 2528.81,1423.51 2528.58,1423.74 2528.38,1423.96 2528.22,1424.19 2528.08,1424.42 2527.94,1424.65 2527.82,1424.87 2527.68,1425.1 2527.54,1425.33 2527.37,1425.55 2527.18,1425.78 2526.96,1426.01 2526.71,1426.23 2526.43,1426.46 2526.11,1426.69 2525.77,1426.92 2525.39,1427.14 2524.98,1427.37 2524.56,1427.6 2524.11,1427.82 2523.65,1428.05 2523.18,1428.28 2522.7,1428.51 2522.22,1428.73 2521.74,1428.96 2521.26,1429.19 2520.78,1429.41 2520.3,1429.64 2519.82,1429.87 2519.33,1430.1 2518.85,1430.32 2518.35,1430.55 2517.83,1430.78 2517.29,1431 2516.73,1431.23 2516.13,1431.46 2515.48,1431.68 2514.78,1431.91 2514.02,1432.14 2513.19,1432.37 2512.27,1432.59 2511.27,1432.82 2510.17,1433.05 2508.96,1433.27 2507.64,1433.5 2506.19,1433.73 2504.61,1433.96 2502.89,1434.18 2501.04,1434.41 2499.04,1434.64 2496.89,1434.86 2494.59,1435.09 2492.15,1435.32 2489.58,1435.55 2486.87,1435.77 2484.04,1436 2481.1,1436.23 2478.07,1436.45 2474.96,1436.68 2471.8,1436.91 2468.61,1437.13 2465.42,1437.36 2462.25,1437.59 2459.13,1437.82 2456.11,1438.04 2453.19,1438.27 2450.43,1438.5 2447.86,1438.72 2445.5,1438.95 2443.4,1439.18 2441.57,1439.41 2440.06,1439.63 2438.87,1439.86 2438.04,1440.09 2437.59,1440.31 2437.52,1440.54 2437.85,1440.77 2438.58,1441 2439.71,1441.22 2441.23,1441.45 2443.14,1441.68 2445.42,1441.9 2448.04,1442.13 2450.99,1442.36 2454.23,1442.58 2457.74,1442.81 2461.48,1443.04 2465.41,1443.27 2469.5,1443.49 2473.72,1443.72 2478.02,1443.95 2628.12,1443.95 "/>
<path clip-path="url(#clip301)" d="M3073.03 309.163 L3072.8 305.418 L3072.21 301.673 L3071.27 297.929 L3069.99 294.184 L3068.39 290.439 L3066.48 286.694 L3064.29 282.95 L3061.86 279.205 L3059.2 275.46 L3056.34 271.715 L3053.33 267.97 L3050.2 264.226 L3046.97 260.481 L3043.7 256.736 L3040.41 252.991 L3037.15 249.246 L3033.94 245.502 L3030.83 241.757 L3027.85 238.012 L3025.02 234.267 L3022.39 230.523 L3019.97 226.778 L3017.8 223.033 L3015.9 219.288 L3014.28 215.543 L3012.96 211.799 L3011.96 208.054 L3011.29 204.309 L3010.96 200.564 L3010.96 196.82 L3011.29 193.075 L3011.96 189.33 L3012.96 185.585 L3014.28 181.84 L3015.9 178.096 L3017.8 174.351 L3019.97 170.606 L3022.39 166.861 L3025.02 163.116 L3027.85 159.372 L3030.83 155.627 L3033.94 151.882 L3037.15 148.137 L3040.41 144.393 L3043.7 140.648 L3046.97 136.903 L3050.2 133.158 L3053.33 129.413 L3056.34 125.669 L3059.2 121.924 L3061.86 118.179 L3064.29 114.434 L3066.48 110.69 L3068.39 106.945 L3069.99 103.2 L3071.27 99.4552 L3072.21 95.7104 L3072.8 91.9656 L3073.03 88.2208 L2841.94 88.2208 L2842.16 91.9656 L2842.75 95.7104 L2843.69 99.4552 L2844.97 103.2 L2846.58 106.945 L2848.48 110.69 L2850.67 114.434 L2853.11 118.179 L2855.77 121.924 L2858.62 125.669 L2861.63 129.413 L2864.77 133.158 L2867.99 136.903 L2871.26 140.648 L2874.55 144.393 L2877.82 148.137 L2881.02 151.882 L2884.13 155.627 L2887.12 159.372 L2889.94 163.116 L2892.58 166.861 L2894.99 170.606 L2897.16 174.351 L2899.07 178.096 L2900.69 181.84 L2902 185.585 L2903 189.33 L2903.67 193.075 L2904.01 196.82 L2904.01 200.564 L2903.67 204.309 L2903 208.054 L2902 211.799 L2900.69 215.543 L2899.07 219.288 L2897.16 223.033 L2894.99 226.778 L2892.58 230.523 L2889.94 234.267 L2887.12 238.012 L2884.13 241.757 L2881.02 245.502 L2877.82 249.246 L2874.55 252.991 L2871.26 256.736 L2867.99 260.481 L2864.77 264.226 L2861.63 267.97 L2858.62 271.715 L2855.77 275.46 L2853.11 279.205 L2850.67 282.95 L2848.48 286.694 L2846.58 290.439 L2844.97 294.184 L2843.69 297.929 L2842.75 301.673 L2842.16 305.418 L2841.94 309.163 L3073.03 309.163  Z" fill="#ed5d92" fill-rule="evenodd" fill-opacity="1"/>
<polyline clip-path="url(#clip301)" style="stroke:#000000; stroke-linecap:round; stroke-linejoin:round; stroke-width:4; stroke-opacity:1; fill:none" points="3073.03,309.163 3072.8,305.418 3072.21,301.673 3071.27,297.929 3069.99,294.184 3068.39,290.439 3066.48,286.694 3064.29,282.95 3061.86,279.205 3059.2,275.46 3056.34,271.715 3053.33,267.97 3050.2,264.226 3046.97,260.481 3043.7,256.736 3040.41,252.991 3037.15,249.246 3033.94,245.502 3030.83,241.757 3027.85,238.012 3025.02,234.267 3022.39,230.523 3019.97,226.778 3017.8,223.033 3015.9,219.288 3014.28,215.543 3012.96,211.799 3011.96,208.054 3011.29,204.309 3010.96,200.564 3010.96,196.82 3011.29,193.075 3011.96,189.33 3012.96,185.585 3014.28,181.84 3015.9,178.096 3017.8,174.351 3019.97,170.606 3022.39,166.861 3025.02,163.116 3027.85,159.372 3030.83,155.627 3033.94,151.882 3037.15,148.137 3040.41,144.393 3043.7,140.648 3046.97,136.903 3050.2,133.158 3053.33,129.413 3056.34,125.669 3059.2,121.924 3061.86,118.179 3064.29,114.434 3066.48,110.69 3068.39,106.945 3069.99,103.2 3071.27,99.4552 3072.21,95.7104 3072.8,91.9656 3073.03,88.2208 2841.94,88.2208 2842.16,91.9656 2842.75,95.7104 2843.69,99.4552 2844.97,103.2 2846.58,106.945 2848.48,110.69 2850.67,114.434 2853.11,118.179 2855.77,121.924 2858.62,125.669 2861.63,129.413 2864.77,133.158 2867.99,136.903 2871.26,140.648 2874.55,144.393 2877.82,148.137 2881.02,151.882 2884.13,155.627 2887.12,159.372 2889.94,163.116 2892.58,166.861 2894.99,170.606 2897.16,174.351 2899.07,178.096 2900.69,181.84 2902,185.585 2903,189.33 2903.67,193.075 2904.01,196.82 2904.01,200.564 2903.67,204.309 2903,208.054 2902,211.799 2900.69,215.543 2899.07,219.288 2897.16,223.033 2894.99,226.778 2892.58,230.523 2889.94,234.267 2887.12,238.012 2884.13,241.757 2881.02,245.502 2877.82,249.246 2874.55,252.991 2871.26,256.736 2867.99,260.481 2864.77,264.226 2861.63,267.97 2858.62,271.715 2855.77,275.46 2853.11,279.205 2850.67,282.95 2848.48,286.694 2846.58,290.439 2844.97,294.184 2843.69,297.929 2842.75,301.673 2842.16,305.418 2841.94,309.163 3073.03,309.163 "/>
</svg>
