<?xml version="1.0" encoding="utf-8"?>
<svg xmlns="http://www.w3.org/2000/svg" xmlns:xlink="http://www.w3.org/1999/xlink" width="600" height="400" viewBox="0 0 2400 1600">
<defs>
  <clipPath id="clip390">
    <rect x="0" y="0" width="2400" height="1600"/>
  </clipPath>
</defs>
<path clip-path="url(#clip390)" d="M0 1600 L2400 1600 L2400 0 L0 0  Z" fill="#ffffff" fill-rule="evenodd" fill-opacity="1"/>
<defs>
  <clipPath id="clip391">
    <rect x="471" y="123" width="1380" height="1225"/>
  </clipPath>
</defs>
<path clip-path="url(#clip390)" d="M471.845 1347.9 L1850.67 1347.9 L1850.67 123.472 L471.845 123.472  Z" fill="#ffffff" fill-rule="evenodd" fill-opacity="1"/>
<polyline clip-path="url(#clip391)" style="stroke:#000000; stroke-linecap:round; stroke-linejoin:round; stroke-width:2; stroke-opacity:0.1; fill:none" points="829.285,1347.9 829.285,123.472 "/>
<polyline clip-path="url(#clip391)" style="stroke:#000000; stroke-linecap:round; stroke-linejoin:round; stroke-width:2; stroke-opacity:0.1; fill:none" points="1746.5,1347.9 1746.5,123.472 "/>
<polyline clip-path="url(#clip391)" style="stroke:#000000; stroke-linecap:round; stroke-linejoin:round; stroke-width:2; stroke-opacity:0.1; fill:none" points="471.845,986.616 1850.67,986.616 "/>
<polyline clip-path="url(#clip391)" style="stroke:#000000; stroke-linecap:round; stroke-linejoin:round; stroke-width:2; stroke-opacity:0.1; fill:none" points="471.845,370.131 1850.67,370.131 "/>
<polyline clip-path="url(#clip390)" style="stroke:#000000; stroke-linecap:round; stroke-linejoin:round; stroke-width:4; stroke-opacity:1; fill:none" points="471.845,1347.9 1850.67,1347.9 "/>
<polyline clip-path="url(#clip390)" style="stroke:#000000; stroke-linecap:round; stroke-linejoin:round; stroke-width:4; stroke-opacity:1; fill:none" points="829.285,1347.9 829.285,1329.01 "/>
<polyline clip-path="url(#clip390)" style="stroke:#000000; stroke-linecap:round; stroke-linejoin:round; stroke-width:4; stroke-opacity:1; fill:none" points="1746.5,1347.9 1746.5,1329.01 "/>
<path clip-path="url(#clip390)" d="M779.307 1422.03 L786.945 1422.03 L786.945 1395.66 L778.635 1397.33 L778.635 1393.07 L786.899 1391.4 L791.575 1391.4 L791.575 1422.03 L799.214 1422.03 L799.214 1425.96 L779.307 1425.96 L779.307 1422.03 Z" fill="#000000" fill-rule="nonzero" fill-opacity="1" /><path clip-path="url(#clip390)" d="M818.658 1394.48 Q815.047 1394.48 813.218 1398.05 Q811.413 1401.59 811.413 1408.72 Q811.413 1415.83 813.218 1419.39 Q815.047 1422.93 818.658 1422.93 Q822.292 1422.93 824.098 1419.39 Q825.927 1415.83 825.927 1408.72 Q825.927 1401.59 824.098 1398.05 Q822.292 1394.48 818.658 1394.48 M818.658 1390.78 Q824.468 1390.78 827.524 1395.39 Q830.603 1399.97 830.603 1408.72 Q830.603 1417.45 827.524 1422.05 Q824.468 1426.64 818.658 1426.64 Q812.848 1426.64 809.769 1422.05 Q806.714 1417.45 806.714 1408.72 Q806.714 1399.97 809.769 1395.39 Q812.848 1390.78 818.658 1390.78 Z" fill="#000000" fill-rule="nonzero" fill-opacity="1" /><path clip-path="url(#clip390)" d="M830.603 1384.88 L854.714 1384.88 L854.714 1388.08 L830.603 1388.08 L830.603 1384.88 Z" fill="#000000" fill-rule="nonzero" fill-opacity="1" /><path clip-path="url(#clip390)" d="M862.952 1370.47 L877.867 1370.47 L877.867 1373.67 L866.431 1373.67 L866.431 1380.56 Q867.259 1380.27 868.086 1380.14 Q868.914 1379.99 869.742 1379.99 Q874.444 1379.99 877.189 1382.57 Q879.935 1385.14 879.935 1389.55 Q879.935 1394.08 877.114 1396.6 Q874.293 1399.1 869.159 1399.1 Q867.391 1399.1 865.547 1398.8 Q863.723 1398.5 861.767 1397.9 L861.767 1394.08 Q863.46 1395 865.265 1395.45 Q867.071 1395.9 869.083 1395.9 Q872.337 1395.9 874.237 1394.19 Q876.136 1392.48 876.136 1389.55 Q876.136 1386.61 874.237 1384.9 Q872.337 1383.19 869.083 1383.19 Q867.56 1383.19 866.036 1383.53 Q864.532 1383.87 862.952 1384.58 L862.952 1370.47 Z" fill="#000000" fill-rule="nonzero" fill-opacity="1" /><path clip-path="url(#clip390)" d="M1711.48 1422.03 L1719.12 1422.03 L1719.12 1395.66 L1710.81 1397.33 L1710.81 1393.07 L1719.07 1391.4 L1723.75 1391.4 L1723.75 1422.03 L1731.39 1422.03 L1731.39 1425.96 L1711.48 1425.96 L1711.48 1422.03 Z" fill="#000000" fill-rule="nonzero" fill-opacity="1" /><path clip-path="url(#clip390)" d="M1750.83 1394.48 Q1747.22 1394.48 1745.39 1398.05 Q1743.59 1401.59 1743.59 1408.72 Q1743.59 1415.83 1745.39 1419.39 Q1747.22 1422.93 1750.83 1422.93 Q1754.47 1422.93 1756.27 1419.39 Q1758.1 1415.83 1758.1 1408.72 Q1758.1 1401.59 1756.27 1398.05 Q1754.47 1394.48 1750.83 1394.48 M1750.83 1390.78 Q1756.64 1390.78 1759.7 1395.39 Q1762.78 1399.97 1762.78 1408.72 Q1762.78 1417.45 1759.7 1422.05 Q1756.64 1426.64 1750.83 1426.64 Q1745.02 1426.64 1741.95 1422.05 Q1738.89 1417.45 1738.89 1408.72 Q1738.89 1399.97 1741.95 1395.39 Q1745.02 1390.78 1750.83 1390.78 Z" fill="#000000" fill-rule="nonzero" fill-opacity="1" /><path clip-path="url(#clip390)" d="M1772.48 1372.98 Q1769.55 1372.98 1768.06 1375.87 Q1766.6 1378.75 1766.6 1384.54 Q1766.6 1390.32 1768.06 1393.21 Q1769.55 1396.09 1772.48 1396.09 Q1775.44 1396.09 1776.9 1393.21 Q1778.39 1390.32 1778.39 1384.54 Q1778.39 1378.75 1776.9 1375.87 Q1775.44 1372.98 1772.48 1372.98 M1772.48 1369.97 Q1777.2 1369.97 1779.69 1373.71 Q1782.19 1377.43 1782.19 1384.54 Q1782.19 1391.63 1779.69 1395.38 Q1777.2 1399.1 1772.48 1399.1 Q1767.76 1399.1 1765.26 1395.38 Q1762.78 1391.63 1762.78 1384.54 Q1762.78 1377.43 1765.26 1373.71 Q1767.76 1369.97 1772.48 1369.97 Z" fill="#000000" fill-rule="nonzero" fill-opacity="1" /><path clip-path="url(#clip390)" d="M1022.23 1463.67 L1052.28 1463.67 L1052.28 1469.08 L1028.66 1469.08 L1028.66 1483.15 L1051.29 1483.15 L1051.29 1488.56 L1028.66 1488.56 L1028.66 1505.78 L1052.85 1505.78 L1052.85 1511.19 L1022.23 1511.19 L1022.23 1463.67 Z" fill="#000000" fill-rule="nonzero" fill-opacity="1" /><path clip-path="url(#clip390)" d="M1083.82 1481.02 Q1082.83 1480.45 1081.66 1480.19 Q1080.51 1479.91 1079.11 1479.91 Q1074.14 1479.91 1071.47 1483.15 Q1068.83 1486.37 1068.83 1492.41 L1068.83 1511.19 L1062.94 1511.19 L1062.94 1475.55 L1068.83 1475.55 L1068.83 1481.08 Q1070.67 1477.84 1073.63 1476.28 Q1076.59 1474.69 1080.83 1474.69 Q1081.43 1474.69 1082.16 1474.78 Q1082.9 1474.85 1083.79 1475 L1083.82 1481.02 Z" fill="#000000" fill-rule="nonzero" fill-opacity="1" /><path clip-path="url(#clip390)" d="M1109.47 1481.02 Q1108.49 1480.45 1107.31 1480.19 Q1106.16 1479.91 1104.76 1479.91 Q1099.8 1479.91 1097.12 1483.15 Q1094.48 1486.37 1094.48 1492.41 L1094.48 1511.19 L1088.59 1511.19 L1088.59 1475.55 L1094.48 1475.55 L1094.48 1481.08 Q1096.33 1477.84 1099.29 1476.28 Q1102.25 1474.69 1106.48 1474.69 Q1107.09 1474.69 1107.82 1474.78 Q1108.55 1474.85 1109.44 1475 L1109.47 1481.02 Z" fill="#000000" fill-rule="nonzero" fill-opacity="1" /><path clip-path="url(#clip390)" d="M1128 1479.65 Q1123.29 1479.65 1120.55 1483.34 Q1117.81 1487 1117.81 1493.4 Q1117.81 1499.8 1120.52 1503.49 Q1123.26 1507.15 1128 1507.15 Q1132.68 1507.15 1135.41 1503.46 Q1138.15 1499.77 1138.15 1493.4 Q1138.15 1487.07 1135.41 1483.38 Q1132.68 1479.65 1128 1479.65 M1128 1474.69 Q1135.64 1474.69 1140 1479.65 Q1144.36 1484.62 1144.36 1493.4 Q1144.36 1502.15 1140 1507.15 Q1135.64 1512.12 1128 1512.12 Q1120.33 1512.12 1115.97 1507.15 Q1111.64 1502.15 1111.64 1493.4 Q1111.64 1484.62 1115.97 1479.65 Q1120.33 1474.69 1128 1474.69 Z" fill="#000000" fill-rule="nonzero" fill-opacity="1" /><path clip-path="url(#clip390)" d="M1174.72 1481.02 Q1173.74 1480.45 1172.56 1480.19 Q1171.41 1479.91 1170.01 1479.91 Q1165.05 1479.91 1162.37 1483.15 Q1159.73 1486.37 1159.73 1492.41 L1159.73 1511.19 L1153.84 1511.19 L1153.84 1475.55 L1159.73 1475.55 L1159.73 1481.08 Q1161.58 1477.84 1164.54 1476.28 Q1167.5 1474.69 1171.73 1474.69 Q1172.34 1474.69 1173.07 1474.78 Q1173.8 1474.85 1174.69 1475 L1174.72 1481.02 Z" fill="#000000" fill-rule="nonzero" fill-opacity="1" /><path clip-path="url(#clip390)" d="M1215.65 1461.73 Q1211.39 1469.05 1209.32 1476.21 Q1207.25 1483.38 1207.25 1490.73 Q1207.25 1498.08 1209.32 1505.31 Q1211.42 1512.5 1215.65 1519.79 L1210.56 1519.79 Q1205.79 1512.31 1203.4 1505.08 Q1201.04 1497.86 1201.04 1490.73 Q1201.04 1483.63 1203.4 1476.44 Q1205.75 1469.24 1210.56 1461.73 L1215.65 1461.73 Z" fill="#000000" fill-rule="nonzero" fill-opacity="1" /><path clip-path="url(#clip390)" d="M1227.02 1461.67 L1232.87 1461.67 L1232.87 1511.19 L1227.02 1511.19 L1227.02 1461.67 Z" fill="#000000" fill-rule="nonzero" fill-opacity="1" /><path clip-path="url(#clip390)" d="M1251.49 1505.78 L1273.93 1505.78 L1273.93 1511.19 L1243.76 1511.19 L1243.76 1505.78 Q1247.42 1501.99 1253.72 1495.63 Q1260.05 1489.23 1261.68 1487.39 Q1264.77 1483.92 1265.97 1481.53 Q1267.22 1479.11 1267.22 1476.79 Q1267.22 1473 1264.54 1470.61 Q1261.9 1468.22 1257.64 1468.22 Q1254.61 1468.22 1251.24 1469.28 Q1247.9 1470.33 1244.08 1472.46 L1244.08 1465.96 Q1247.96 1464.41 1251.33 1463.61 Q1254.71 1462.81 1257.51 1462.81 Q1264.89 1462.81 1269.28 1466.51 Q1273.68 1470.2 1273.68 1476.37 Q1273.68 1479.3 1272.56 1481.94 Q1271.48 1484.55 1268.58 1488.12 Q1267.79 1489.04 1263.52 1493.46 Q1259.26 1497.86 1251.49 1505.78 Z" fill="#000000" fill-rule="nonzero" fill-opacity="1" /><path clip-path="url(#clip390)" d="M1285.68 1461.73 L1290.77 1461.73 Q1295.54 1469.24 1297.9 1476.44 Q1300.29 1483.63 1300.29 1490.73 Q1300.29 1497.86 1297.9 1505.08 Q1295.54 1512.31 1290.77 1519.79 L1285.68 1519.79 Q1289.91 1512.5 1291.98 1505.31 Q1294.08 1498.08 1294.08 1490.73 Q1294.08 1483.38 1291.98 1476.21 Q1289.91 1469.05 1285.68 1461.73 Z" fill="#000000" fill-rule="nonzero" fill-opacity="1" /><polyline clip-path="url(#clip390)" style="stroke:#000000; stroke-linecap:round; stroke-linejoin:round; stroke-width:4; stroke-opacity:1; fill:none" points="471.845,1347.9 471.845,123.472 "/>
<polyline clip-path="url(#clip390)" style="stroke:#000000; stroke-linecap:round; stroke-linejoin:round; stroke-width:4; stroke-opacity:1; fill:none" points="471.845,986.616 485.698,986.616 "/>
<polyline clip-path="url(#clip390)" style="stroke:#000000; stroke-linecap:round; stroke-linejoin:round; stroke-width:4; stroke-opacity:1; fill:none" points="471.845,370.131 485.698,370.131 "/>
<path clip-path="url(#clip390)" d="M335.705 1006.41 L343.344 1006.41 L343.344 980.043 L335.034 981.71 L335.034 977.451 L343.297 975.784 L347.973 975.784 L347.973 1006.41 L355.612 1006.41 L355.612 1010.34 L335.705 1010.34 L335.705 1006.41 Z" fill="#000000" fill-rule="nonzero" fill-opacity="1" /><path clip-path="url(#clip390)" d="M375.056 978.863 Q371.445 978.863 369.617 982.427 Q367.811 985.969 367.811 993.099 Q367.811 1000.21 369.617 1003.77 Q371.445 1007.31 375.056 1007.31 Q378.691 1007.31 380.496 1003.77 Q382.325 1000.21 382.325 993.099 Q382.325 985.969 380.496 982.427 Q378.691 978.863 375.056 978.863 M375.056 975.159 Q380.867 975.159 383.922 979.765 Q387.001 984.349 387.001 993.099 Q387.001 1001.83 383.922 1006.43 Q380.867 1011.02 375.056 1011.02 Q369.246 1011.02 366.168 1006.43 Q363.112 1001.83 363.112 993.099 Q363.112 984.349 366.168 979.765 Q369.246 975.159 375.056 975.159 Z" fill="#000000" fill-rule="nonzero" fill-opacity="1" /><path clip-path="url(#clip390)" d="M387.001 969.26 L411.112 969.26 L411.112 972.458 L387.001 972.458 L387.001 969.26 Z" fill="#000000" fill-rule="nonzero" fill-opacity="1" /><path clip-path="url(#clip390)" d="M422.585 979.736 L435.845 979.736 L435.845 982.934 L418.015 982.934 L418.015 979.736 Q420.178 977.498 423.902 973.737 Q427.644 969.956 428.604 968.865 Q430.428 966.815 431.143 965.405 Q431.876 963.975 431.876 962.602 Q431.876 960.364 430.296 958.954 Q428.735 957.543 426.215 957.543 Q424.428 957.543 422.435 958.164 Q420.46 958.784 418.203 960.045 L418.203 956.208 Q420.497 955.286 422.491 954.816 Q424.485 954.346 426.14 954.346 Q430.503 954.346 433.099 956.527 Q435.694 958.709 435.694 962.358 Q435.694 964.088 435.036 965.649 Q434.396 967.191 432.685 969.298 Q432.215 969.843 429.694 972.458 Q427.174 975.053 422.585 979.736 Z" fill="#000000" fill-rule="nonzero" fill-opacity="1" /><path clip-path="url(#clip390)" d="M335.404 389.923 L343.043 389.923 L343.043 363.558 L334.733 365.224 L334.733 360.965 L342.996 359.298 L347.672 359.298 L347.672 389.923 L355.311 389.923 L355.311 393.858 L335.404 393.858 L335.404 389.923 Z" fill="#000000" fill-rule="nonzero" fill-opacity="1" /><path clip-path="url(#clip390)" d="M374.756 362.377 Q371.144 362.377 369.316 365.942 Q367.51 369.483 367.51 376.613 Q367.51 383.719 369.316 387.284 Q371.144 390.826 374.756 390.826 Q378.39 390.826 380.195 387.284 Q382.024 383.719 382.024 376.613 Q382.024 369.483 380.195 365.942 Q378.39 362.377 374.756 362.377 M374.756 358.673 Q380.566 358.673 383.621 363.28 Q386.7 367.863 386.7 376.613 Q386.7 385.34 383.621 389.946 Q380.566 394.53 374.756 394.53 Q368.945 394.53 365.867 389.946 Q362.811 385.34 362.811 376.613 Q362.811 367.863 365.867 363.28 Q368.945 358.673 374.756 358.673 Z" fill="#000000" fill-rule="nonzero" fill-opacity="1" /><path clip-path="url(#clip390)" d="M386.7 352.775 L410.811 352.775 L410.811 355.972 L386.7 355.972 L386.7 352.775 Z" fill="#000000" fill-rule="nonzero" fill-opacity="1" /><path clip-path="url(#clip390)" d="M419.67 363.251 L425.876 363.251 L425.876 341.829 L419.125 343.183 L419.125 339.722 L425.839 338.368 L429.638 338.368 L429.638 363.251 L435.845 363.251 L435.845 366.448 L419.67 366.448 L419.67 363.251 Z" fill="#000000" fill-rule="nonzero" fill-opacity="1" /><path clip-path="url(#clip390)" d="M236.957 865.517 L236.957 825.317 L242.367 825.317 L242.367 842.187 L284.477 842.187 L284.477 848.648 L242.367 848.648 L242.367 865.517 L236.957 865.517 Z" fill="#000000" fill-rule="nonzero" fill-opacity="1" /><path clip-path="url(#clip390)" d="M248.829 821.371 L248.829 815.514 L284.477 815.514 L284.477 821.371 L248.829 821.371 M234.951 821.371 L234.951 815.514 L242.367 815.514 L242.367 821.371 L234.951 821.371 Z" fill="#000000" fill-rule="nonzero" fill-opacity="1" /><path clip-path="url(#clip390)" d="M255.672 775.506 Q251.725 773.31 249.847 770.254 Q247.969 767.199 247.969 763.061 Q247.969 757.491 251.884 754.467 Q255.767 751.443 262.961 751.443 L284.477 751.443 L284.477 757.332 L263.151 757.332 Q258.027 757.332 255.544 759.146 Q253.062 760.96 253.062 764.684 Q253.062 769.236 256.086 771.877 Q259.109 774.519 264.329 774.519 L284.477 774.519 L284.477 780.407 L263.151 780.407 Q257.995 780.407 255.544 782.222 Q253.062 784.036 253.062 787.823 Q253.062 792.311 256.117 794.953 Q259.141 797.595 264.329 797.595 L284.477 797.595 L284.477 803.483 L248.829 803.483 L248.829 797.595 L254.367 797.595 Q251.088 795.59 249.529 792.789 Q247.969 789.988 247.969 786.137 Q247.969 782.253 249.943 779.548 Q251.916 776.811 255.672 775.506 Z" fill="#000000" fill-rule="nonzero" fill-opacity="1" /><path clip-path="url(#clip390)" d="M265.189 709.271 L268.053 709.271 L268.053 736.198 Q274.1 735.816 277.283 732.569 Q280.434 729.291 280.434 723.466 Q280.434 720.092 279.607 716.941 Q278.779 713.758 277.124 710.639 L282.662 710.639 Q283.999 713.79 284.699 717.1 Q285.4 720.411 285.4 723.816 Q285.4 732.346 280.434 737.343 Q275.469 742.309 267.003 742.309 Q258.25 742.309 253.125 737.598 Q247.969 732.856 247.969 724.835 Q247.969 717.642 252.616 713.472 Q257.231 709.271 265.189 709.271 M263.47 715.127 Q258.664 715.191 255.799 717.833 Q252.935 720.442 252.935 724.771 Q252.935 729.673 255.704 732.633 Q258.473 735.561 263.502 736.007 L263.47 715.127 Z" fill="#000000" fill-rule="nonzero" fill-opacity="1" /><path clip-path="url(#clip390)" d="M235.015 664.87 Q242.336 669.135 249.497 671.204 Q256.658 673.273 264.011 673.273 Q271.363 673.273 278.588 671.204 Q285.782 669.103 293.07 664.87 L293.07 669.962 Q285.591 674.737 278.366 677.124 Q271.14 679.479 264.011 679.479 Q256.913 679.479 249.72 677.124 Q242.527 674.769 235.015 669.962 L235.015 664.87 Z" fill="#000000" fill-rule="nonzero" fill-opacity="1" /><path clip-path="url(#clip390)" d="M249.879 630.781 L255.417 630.781 Q254.144 633.264 253.507 635.938 Q252.871 638.611 252.871 641.476 Q252.871 645.836 254.208 648.033 Q255.544 650.197 258.218 650.197 Q260.255 650.197 261.433 648.637 Q262.579 647.078 263.629 642.367 L264.075 640.362 Q265.411 634.123 267.862 631.514 Q270.281 628.872 274.642 628.872 Q279.607 628.872 282.503 632.819 Q285.4 636.733 285.4 643.608 Q285.4 646.473 284.827 649.592 Q284.286 652.68 283.172 656.117 L277.124 656.117 Q278.811 652.87 279.67 649.719 Q280.498 646.568 280.498 643.481 Q280.498 639.343 279.098 637.115 Q277.665 634.887 275.087 634.887 Q272.7 634.887 271.427 636.511 Q270.154 638.102 268.976 643.545 L268.499 645.582 Q267.353 651.024 264.998 653.443 Q262.61 655.862 258.473 655.862 Q253.444 655.862 250.707 652.298 Q247.969 648.733 247.969 642.176 Q247.969 638.93 248.447 636.065 Q248.924 633.2 249.879 630.781 Z" fill="#000000" fill-rule="nonzero" fill-opacity="1" /><path clip-path="url(#clip390)" d="M235.015 620.469 L235.015 615.376 Q242.527 610.602 249.72 608.247 Q256.913 605.86 264.011 605.86 Q271.14 605.86 278.366 608.247 Q285.591 610.602 293.07 615.376 L293.07 620.469 Q285.782 616.236 278.588 614.167 Q271.363 612.066 264.011 612.066 Q256.658 612.066 249.497 614.167 Q242.336 616.236 235.015 620.469 Z" fill="#000000" fill-rule="nonzero" fill-opacity="1" /><path clip-path="url(#clip390)" d="M497.964 44.2197 Q500.597 45.1109 503.068 48.0275 Q505.579 50.9442 508.091 56.0483 L516.395 72.576 L507.605 72.576 L499.868 57.061 Q496.87 50.9847 494.034 48.9997 Q491.239 47.0148 486.378 47.0148 L477.466 47.0148 L477.466 72.576 L469.283 72.576 L469.283 12.096 L487.755 12.096 Q498.126 12.096 503.23 16.4305 Q508.334 20.7649 508.334 29.5149 Q508.334 35.2267 505.66 38.994 Q503.027 42.7613 497.964 44.2197 M477.466 18.8205 L477.466 40.2903 L487.755 40.2903 Q493.67 40.2903 496.667 37.5762 Q499.706 34.8216 499.706 29.5149 Q499.706 24.2082 496.667 21.5346 Q493.67 18.8205 487.755 18.8205 L477.466 18.8205 Z" fill="#000000" fill-rule="nonzero" fill-opacity="1" /><path clip-path="url(#clip390)" d="M561.684 48.0275 L561.684 51.6733 L527.414 51.6733 Q527.9 59.3701 532.032 63.421 Q536.204 67.4314 543.617 67.4314 Q547.911 67.4314 551.922 66.3781 Q555.973 65.3249 559.942 63.2184 L559.942 70.267 Q555.932 71.9684 551.719 72.8596 Q547.506 73.7508 543.172 73.7508 Q532.315 73.7508 525.955 67.4314 Q519.636 61.1119 519.636 50.3365 Q519.636 39.1965 525.631 32.6746 Q531.667 26.1121 541.875 26.1121 Q551.03 26.1121 556.337 32.0264 Q561.684 37.9003 561.684 48.0275 M554.231 45.84 Q554.15 39.7232 550.787 36.0774 Q547.466 32.4315 541.956 32.4315 Q535.718 32.4315 531.951 35.9558 Q528.224 39.4801 527.657 45.8805 L554.231 45.84 Z" fill="#000000" fill-rule="nonzero" fill-opacity="1" /><path clip-path="url(#clip390)" d="M596.887 9.54393 L596.887 15.7418 L589.757 15.7418 Q585.747 15.7418 584.167 17.3622 Q582.628 18.9825 582.628 23.1955 L582.628 27.2059 L594.902 27.2059 L594.902 32.9987 L582.628 32.9987 L582.628 72.576 L575.133 72.576 L575.133 32.9987 L568.004 32.9987 L568.004 27.2059 L575.133 27.2059 L575.133 24.0462 Q575.133 16.471 578.658 13.0277 Q582.182 9.54393 589.838 9.54393 L596.887 9.54393 Z" fill="#000000" fill-rule="nonzero" fill-opacity="1" /><path clip-path="url(#clip390)" d="M641.933 48.0275 L641.933 51.6733 L607.662 51.6733 Q608.148 59.3701 612.28 63.421 Q616.453 67.4314 623.866 67.4314 Q628.16 67.4314 632.17 66.3781 Q636.221 65.3249 640.191 63.2184 L640.191 70.267 Q636.18 71.9684 631.968 72.8596 Q627.755 73.7508 623.42 73.7508 Q612.564 73.7508 606.204 67.4314 Q599.884 61.1119 599.884 50.3365 Q599.884 39.1965 605.88 32.6746 Q611.916 26.1121 622.124 26.1121 Q631.279 26.1121 636.586 32.0264 Q641.933 37.9003 641.933 48.0275 M634.479 45.84 Q634.398 39.7232 631.036 36.0774 Q627.714 32.4315 622.205 32.4315 Q615.966 32.4315 612.199 35.9558 Q608.472 39.4801 607.905 45.8805 L634.479 45.84 Z" fill="#000000" fill-rule="nonzero" fill-opacity="1" /><path clip-path="url(#clip390)" d="M680.457 34.1734 Q679.201 33.4443 677.702 33.1202 Q676.244 32.7556 674.462 32.7556 Q668.142 32.7556 664.739 36.8875 Q661.377 40.9789 661.377 48.6757 L661.377 72.576 L653.883 72.576 L653.883 27.2059 L661.377 27.2059 L661.377 34.2544 Q663.727 30.1225 667.494 28.1376 Q671.261 26.1121 676.649 26.1121 Q677.419 26.1121 678.35 26.2337 Q679.282 26.3147 680.416 26.5172 L680.457 34.1734 Z" fill="#000000" fill-rule="nonzero" fill-opacity="1" /><path clip-path="url(#clip390)" d="M725.26 48.0275 L725.26 51.6733 L690.989 51.6733 Q691.475 59.3701 695.607 63.421 Q699.78 67.4314 707.193 67.4314 Q711.487 67.4314 715.497 66.3781 Q719.548 65.3249 723.518 63.2184 L723.518 70.267 Q719.508 71.9684 715.295 72.8596 Q711.082 73.7508 706.747 73.7508 Q695.891 73.7508 689.531 67.4314 Q683.211 61.1119 683.211 50.3365 Q683.211 39.1965 689.207 32.6746 Q695.243 26.1121 705.451 26.1121 Q714.606 26.1121 719.913 32.0264 Q725.26 37.9003 725.26 48.0275 M717.806 45.84 Q717.725 39.7232 714.363 36.0774 Q711.041 32.4315 705.532 32.4315 Q699.294 32.4315 695.526 35.9558 Q691.799 39.4801 691.232 45.8805 L717.806 45.84 Z" fill="#000000" fill-rule="nonzero" fill-opacity="1" /><path clip-path="url(#clip390)" d="M775.208 45.1919 L775.208 72.576 L767.754 72.576 L767.754 45.4349 Q767.754 38.994 765.242 35.7938 Q762.731 32.5936 757.708 32.5936 Q751.672 32.5936 748.188 36.4419 Q744.704 40.2903 744.704 46.9338 L744.704 72.576 L737.21 72.576 L737.21 27.2059 L744.704 27.2059 L744.704 34.2544 Q747.378 30.163 750.983 28.1376 Q754.629 26.1121 759.368 26.1121 Q767.187 26.1121 771.197 30.9732 Q775.208 35.7938 775.208 45.1919 Z" fill="#000000" fill-rule="nonzero" fill-opacity="1" /><path clip-path="url(#clip390)" d="M822.725 28.9478 L822.725 35.9153 Q819.565 34.1734 816.365 33.3227 Q813.205 32.4315 809.964 32.4315 Q802.713 32.4315 798.703 37.0496 Q794.692 41.6271 794.692 49.9314 Q794.692 58.2358 798.703 62.8538 Q802.713 67.4314 809.964 67.4314 Q813.205 67.4314 816.365 66.5807 Q819.565 65.6895 822.725 63.9476 L822.725 70.8341 Q819.605 72.2924 816.243 73.0216 Q812.921 73.7508 809.154 73.7508 Q798.905 73.7508 792.869 67.3098 Q786.834 60.8689 786.834 49.9314 Q786.834 38.832 792.91 32.472 Q799.027 26.1121 809.64 26.1121 Q813.083 26.1121 816.365 26.8413 Q819.646 27.5299 822.725 28.9478 Z" fill="#000000" fill-rule="nonzero" fill-opacity="1" /><path clip-path="url(#clip390)" d="M874.495 48.0275 L874.495 51.6733 L840.225 51.6733 Q840.711 59.3701 844.843 63.421 Q849.015 67.4314 856.428 67.4314 Q860.722 67.4314 864.733 66.3781 Q868.783 65.3249 872.753 63.2184 L872.753 70.267 Q868.743 71.9684 864.53 72.8596 Q860.317 73.7508 855.983 73.7508 Q845.126 73.7508 838.766 67.4314 Q832.447 61.1119 832.447 50.3365 Q832.447 39.1965 838.442 32.6746 Q844.478 26.1121 854.686 26.1121 Q863.841 26.1121 869.148 32.0264 Q874.495 37.9003 874.495 48.0275 M867.042 45.84 Q866.961 39.7232 863.598 36.0774 Q860.277 32.4315 854.767 32.4315 Q848.529 32.4315 844.762 35.9558 Q841.035 39.4801 840.468 45.8805 L867.042 45.84 Z" fill="#000000" fill-rule="nonzero" fill-opacity="1" /><path clip-path="url(#clip390)" d="M888.633 62.2867 L897.18 62.2867 L897.18 72.576 L888.633 72.576 L888.633 62.2867 M888.633 29.6769 L897.18 29.6769 L897.18 39.9662 L888.633 39.9662 L888.633 29.6769 Z" fill="#000000" fill-rule="nonzero" fill-opacity="1" /><path clip-path="url(#clip390)" d="M941.376 12.096 L976.132 12.096 L976.132 18.9825 L949.558 18.9825 L949.558 36.8065 L973.54 36.8065 L973.54 43.6931 L949.558 43.6931 L949.558 72.576 L941.376 72.576 L941.376 12.096 Z" fill="#000000" fill-rule="nonzero" fill-opacity="1" /><path clip-path="url(#clip390)" d="M997.278 43.6931 L997.278 65.8515 L1010.4 65.8515 Q1017.01 65.8515 1020.17 63.1374 Q1023.37 60.3828 1023.37 54.752 Q1023.37 49.0808 1020.17 46.4072 Q1017.01 43.6931 1010.4 43.6931 L997.278 43.6931 M997.278 18.8205 L997.278 37.0496 L1009.39 37.0496 Q1015.39 37.0496 1018.3 34.8216 Q1021.26 32.5531 1021.26 27.935 Q1021.26 23.3575 1018.3 21.089 Q1015.39 18.8205 1009.39 18.8205 L997.278 18.8205 M989.095 12.096 L1010 12.096 Q1019.36 12.096 1024.42 15.9849 Q1029.48 19.8737 1029.48 27.0438 Q1029.48 32.5936 1026.89 35.8748 Q1024.3 39.156 1019.27 39.9662 Q1025.31 41.2625 1028.63 45.3944 Q1031.99 49.4858 1031.99 55.6432 Q1031.99 63.745 1026.49 68.1605 Q1020.98 72.576 1010.81 72.576 L989.095 72.576 L989.095 12.096 Z" fill="#000000" fill-rule="nonzero" fill-opacity="1" /><path clip-path="url(#clip390)" d="M1054.19 18.8205 L1054.19 65.8515 L1064.08 65.8515 Q1076.59 65.8515 1082.39 60.1802 Q1088.22 54.509 1088.22 42.2752 Q1088.22 30.1225 1082.39 24.4918 Q1076.59 18.8205 1064.08 18.8205 L1054.19 18.8205 M1046.01 12.096 L1062.82 12.096 Q1080.4 12.096 1088.63 19.4281 Q1096.85 26.7198 1096.85 42.2752 Q1096.85 57.9117 1088.59 65.2439 Q1080.32 72.576 1062.82 72.576 L1046.01 72.576 L1046.01 12.096 Z" fill="#000000" fill-rule="nonzero" fill-opacity="1" /><path clip-path="url(#clip390)" d="M1109.89 12.096 L1144.65 12.096 L1144.65 18.9825 L1118.08 18.9825 L1118.08 36.8065 L1142.06 36.8065 L1142.06 43.6931 L1118.08 43.6931 L1118.08 72.576 L1109.89 72.576 L1109.89 12.096 Z" fill="#000000" fill-rule="nonzero" fill-opacity="1" /><path clip-path="url(#clip390)" d="M1159.19 62.2867 L1167.74 62.2867 L1167.74 69.2543 L1161.1 82.2172 L1155.87 82.2172 L1159.19 69.2543 L1159.19 62.2867 Z" fill="#000000" fill-rule="nonzero" fill-opacity="1" /><path clip-path="url(#clip390)" d="M1209.75 9.54393 L1217.24 9.54393 L1217.24 46.7717 L1239.48 27.2059 L1249 27.2059 L1224.94 48.4326 L1250.01 72.576 L1240.29 72.576 L1217.24 50.4176 L1217.24 72.576 L1209.75 72.576 L1209.75 9.54393 Z" fill="#000000" fill-rule="nonzero" fill-opacity="1" /><path clip-path="url(#clip390)" d="M1285.42 34.9026 L1337.35 34.9026 L1337.35 41.7081 L1285.42 41.7081 L1285.42 34.9026 M1285.42 51.4303 L1337.35 51.4303 L1337.35 58.3168 L1285.42 58.3168 L1285.42 51.4303 Z" fill="#000000" fill-rule="nonzero" fill-opacity="1" /><path clip-path="url(#clip390)" d="M1382.8 65.6895 L1396.17 65.6895 L1396.17 19.5497 L1381.63 22.4663 L1381.63 15.0127 L1396.09 12.096 L1404.27 12.096 L1404.27 65.6895 L1417.64 65.6895 L1417.64 72.576 L1382.8 72.576 L1382.8 65.6895 Z" fill="#000000" fill-rule="nonzero" fill-opacity="1" /><path clip-path="url(#clip390)" d="M1451.67 17.4837 Q1445.35 17.4837 1442.15 23.7221 Q1438.99 29.92 1438.99 42.3968 Q1438.99 54.833 1442.15 61.0714 Q1445.35 67.2693 1451.67 67.2693 Q1458.03 67.2693 1461.19 61.0714 Q1464.39 54.833 1464.39 42.3968 Q1464.39 29.92 1461.19 23.7221 Q1458.03 17.4837 1451.67 17.4837 M1451.67 11.0023 Q1461.84 11.0023 1467.18 19.0636 Q1472.57 27.0843 1472.57 42.3968 Q1472.57 57.6687 1467.18 65.73 Q1461.84 73.7508 1451.67 73.7508 Q1441.5 73.7508 1436.11 65.73 Q1430.77 57.6687 1430.77 42.3968 Q1430.77 27.0843 1436.11 19.0636 Q1441.5 11.0023 1451.67 11.0023 Z" fill="#000000" fill-rule="nonzero" fill-opacity="1" /><path clip-path="url(#clip390)" d="M1504.45 17.4837 Q1498.13 17.4837 1494.93 23.7221 Q1491.77 29.92 1491.77 42.3968 Q1491.77 54.833 1494.93 61.0714 Q1498.13 67.2693 1504.45 67.2693 Q1510.81 67.2693 1513.97 61.0714 Q1517.17 54.833 1517.17 42.3968 Q1517.17 29.92 1513.97 23.7221 Q1510.81 17.4837 1504.45 17.4837 M1504.45 11.0023 Q1514.62 11.0023 1519.97 19.0636 Q1525.35 27.0843 1525.35 42.3968 Q1525.35 57.6687 1519.97 65.73 Q1514.62 73.7508 1504.45 73.7508 Q1494.28 73.7508 1488.9 65.73 Q1483.55 57.6687 1483.55 42.3968 Q1483.55 27.0843 1488.9 19.0636 Q1494.28 11.0023 1504.45 11.0023 Z" fill="#000000" fill-rule="nonzero" fill-opacity="1" /><path clip-path="url(#clip390)" d="M1557.23 17.4837 Q1550.92 17.4837 1547.71 23.7221 Q1544.56 29.92 1544.56 42.3968 Q1544.56 54.833 1547.71 61.0714 Q1550.92 67.2693 1557.23 67.2693 Q1563.59 67.2693 1566.75 61.0714 Q1569.95 54.833 1569.95 42.3968 Q1569.95 29.92 1566.75 23.7221 Q1563.59 17.4837 1557.23 17.4837 M1557.23 11.0023 Q1567.4 11.0023 1572.75 19.0636 Q1578.14 27.0843 1578.14 42.3968 Q1578.14 57.6687 1572.75 65.73 Q1567.4 73.7508 1557.23 73.7508 Q1547.07 73.7508 1541.68 65.73 Q1536.33 57.6687 1536.33 42.3968 Q1536.33 27.0843 1541.68 19.0636 Q1547.07 11.0023 1557.23 11.0023 Z" fill="#000000" fill-rule="nonzero" fill-opacity="1" /><path clip-path="url(#clip390)" d="M1592.52 62.2867 L1601.07 62.2867 L1601.07 72.576 L1592.52 72.576 L1592.52 62.2867 Z" fill="#000000" fill-rule="nonzero" fill-opacity="1" /><path clip-path="url(#clip390)" d="M1636.39 17.4837 Q1630.07 17.4837 1626.87 23.7221 Q1623.71 29.92 1623.71 42.3968 Q1623.71 54.833 1626.87 61.0714 Q1630.07 67.2693 1636.39 67.2693 Q1642.75 67.2693 1645.91 61.0714 Q1649.11 54.833 1649.11 42.3968 Q1649.11 29.92 1645.91 23.7221 Q1642.75 17.4837 1636.39 17.4837 M1636.39 11.0023 Q1646.56 11.0023 1651.9 19.0636 Q1657.29 27.0843 1657.29 42.3968 Q1657.29 57.6687 1651.9 65.73 Q1646.56 73.7508 1636.39 73.7508 Q1626.22 73.7508 1620.83 65.73 Q1615.49 57.6687 1615.49 42.3968 Q1615.49 27.0843 1620.83 19.0636 Q1626.22 11.0023 1636.39 11.0023 Z" fill="#000000" fill-rule="nonzero" fill-opacity="1" /><path clip-path="url(#clip390)" d="M1697.31 12.096 L1705.5 12.096 L1705.5 36.8875 L1735.23 36.8875 L1735.23 12.096 L1743.41 12.096 L1743.41 72.576 L1735.23 72.576 L1735.23 43.7741 L1705.5 43.7741 L1705.5 72.576 L1697.31 72.576 L1697.31 12.096 Z" fill="#000000" fill-rule="nonzero" fill-opacity="1" /><path clip-path="url(#clip390)" d="M1774.65 45.1514 Q1772.62 41.6676 1768.53 41.6676 Q1764.44 41.6676 1762.41 45.1514 Q1760.35 48.6352 1760.35 55.6027 Q1760.35 62.6108 1762.41 66.0946 Q1764.44 69.5783 1768.53 69.5783 Q1772.62 69.5783 1774.65 66.0946 Q1776.71 62.6108 1776.71 55.6027 Q1776.71 48.6352 1774.65 45.1514 M1768.53 38.0623 Q1775.05 38.0623 1778.49 42.5588 Q1781.94 47.0553 1781.94 55.6027 Q1781.94 64.1906 1778.49 68.6871 Q1775.05 73.1836 1768.53 73.1836 Q1761.97 73.1836 1758.52 68.6871 Q1755.08 64.1906 1755.08 55.6027 Q1755.08 47.0553 1758.52 42.5588 Q1761.97 38.0623 1768.53 38.0623 Z" fill="#000000" fill-rule="nonzero" fill-opacity="1" /><path clip-path="url(#clip390)" d="M1805.88 12.096 L1812.77 12.096 L1791.7 80.2727 L1784.81 80.2727 L1805.88 12.096 Z" fill="#000000" fill-rule="nonzero" fill-opacity="1" /><path clip-path="url(#clip390)" d="M1853.23 28.9478 L1853.23 35.9153 Q1850.07 34.1734 1846.87 33.3227 Q1843.71 32.4315 1840.47 32.4315 Q1833.22 32.4315 1829.21 37.0496 Q1825.2 41.6271 1825.2 49.9314 Q1825.2 58.2358 1829.21 62.8538 Q1833.22 67.4314 1840.47 67.4314 Q1843.71 67.4314 1846.87 66.5807 Q1850.07 65.6895 1853.23 63.9476 L1853.23 70.8341 Q1850.11 72.2924 1846.75 73.0216 Q1843.43 73.7508 1839.66 73.7508 Q1829.41 73.7508 1823.38 67.3098 Q1817.34 60.8689 1817.34 49.9314 Q1817.34 38.832 1823.42 32.472 Q1829.54 26.1121 1840.15 26.1121 Q1843.59 26.1121 1846.87 26.8413 Q1850.16 27.5299 1853.23 28.9478 Z" fill="#000000" fill-rule="nonzero" fill-opacity="1" /><polyline clip-path="url(#clip391)" style="stroke:#009af9; stroke-linecap:round; stroke-linejoin:round; stroke-width:12; stroke-opacity:1; fill:none" points="1811.65,1313.25 1755.07,1126.43 1562.11,896.17 1611.27,683.761 1535.89,467.225 "/>
<line clip-path="url(#clip391)" x1="1811.65" y1="1313.25" x2="1811.65" y2="1297.25" style="stroke:#009af9; stroke-width:12; stroke-opacity:1"/>
<line clip-path="url(#clip391)" x1="1811.65" y1="1313.25" x2="1795.65" y2="1313.25" style="stroke:#009af9; stroke-width:12; stroke-opacity:1"/>
<line clip-path="url(#clip391)" x1="1811.65" y1="1313.25" x2="1811.65" y2="1329.25" style="stroke:#009af9; stroke-width:12; stroke-opacity:1"/>
<line clip-path="url(#clip391)" x1="1811.65" y1="1313.25" x2="1827.65" y2="1313.25" style="stroke:#009af9; stroke-width:12; stroke-opacity:1"/>
<line clip-path="url(#clip391)" x1="1755.07" y1="1126.43" x2="1755.07" y2="1110.43" style="stroke:#009af9; stroke-width:12; stroke-opacity:1"/>
<line clip-path="url(#clip391)" x1="1755.07" y1="1126.43" x2="1739.07" y2="1126.43" style="stroke:#009af9; stroke-width:12; stroke-opacity:1"/>
<line clip-path="url(#clip391)" x1="1755.07" y1="1126.43" x2="1755.07" y2="1142.43" style="stroke:#009af9; stroke-width:12; stroke-opacity:1"/>
<line clip-path="url(#clip391)" x1="1755.07" y1="1126.43" x2="1771.07" y2="1126.43" style="stroke:#009af9; stroke-width:12; stroke-opacity:1"/>
<line clip-path="url(#clip391)" x1="1562.11" y1="896.17" x2="1562.11" y2="880.17" style="stroke:#009af9; stroke-width:12; stroke-opacity:1"/>
<line clip-path="url(#clip391)" x1="1562.11" y1="896.17" x2="1546.11" y2="896.17" style="stroke:#009af9; stroke-width:12; stroke-opacity:1"/>
<line clip-path="url(#clip391)" x1="1562.11" y1="896.17" x2="1562.11" y2="912.17" style="stroke:#009af9; stroke-width:12; stroke-opacity:1"/>
<line clip-path="url(#clip391)" x1="1562.11" y1="896.17" x2="1578.11" y2="896.17" style="stroke:#009af9; stroke-width:12; stroke-opacity:1"/>
<line clip-path="url(#clip391)" x1="1611.27" y1="683.761" x2="1611.27" y2="667.761" style="stroke:#009af9; stroke-width:12; stroke-opacity:1"/>
<line clip-path="url(#clip391)" x1="1611.27" y1="683.761" x2="1595.27" y2="683.761" style="stroke:#009af9; stroke-width:12; stroke-opacity:1"/>
<line clip-path="url(#clip391)" x1="1611.27" y1="683.761" x2="1611.27" y2="699.761" style="stroke:#009af9; stroke-width:12; stroke-opacity:1"/>
<line clip-path="url(#clip391)" x1="1611.27" y1="683.761" x2="1627.27" y2="683.761" style="stroke:#009af9; stroke-width:12; stroke-opacity:1"/>
<line clip-path="url(#clip391)" x1="1535.89" y1="467.225" x2="1535.89" y2="451.225" style="stroke:#009af9; stroke-width:12; stroke-opacity:1"/>
<line clip-path="url(#clip391)" x1="1535.89" y1="467.225" x2="1519.89" y2="467.225" style="stroke:#009af9; stroke-width:12; stroke-opacity:1"/>
<line clip-path="url(#clip391)" x1="1535.89" y1="467.225" x2="1535.89" y2="483.225" style="stroke:#009af9; stroke-width:12; stroke-opacity:1"/>
<line clip-path="url(#clip391)" x1="1535.89" y1="467.225" x2="1551.89" y2="467.225" style="stroke:#009af9; stroke-width:12; stroke-opacity:1"/>
<polyline clip-path="url(#clip391)" style="stroke:#e26f46; stroke-linecap:round; stroke-linejoin:round; stroke-width:12; stroke-opacity:1; fill:none" points="1797.03,1187.53 1683.1,1019.68 1581.57,830.299 1444.61,651.004 1320.56,508.046 "/>
<circle clip-path="url(#clip391)" cx="1797.03" cy="1187.53" r="14.4" fill="#e26f46" fill-rule="evenodd" fill-opacity="1" stroke="#000000" stroke-opacity="1" stroke-width="3.2"/>
<circle clip-path="url(#clip391)" cx="1683.1" cy="1019.68" r="14.4" fill="#e26f46" fill-rule="evenodd" fill-opacity="1" stroke="#000000" stroke-opacity="1" stroke-width="3.2"/>
<circle clip-path="url(#clip391)" cx="1581.57" cy="830.299" r="14.4" fill="#e26f46" fill-rule="evenodd" fill-opacity="1" stroke="#000000" stroke-opacity="1" stroke-width="3.2"/>
<circle clip-path="url(#clip391)" cx="1444.61" cy="651.004" r="14.4" fill="#e26f46" fill-rule="evenodd" fill-opacity="1" stroke="#000000" stroke-opacity="1" stroke-width="3.2"/>
<circle clip-path="url(#clip391)" cx="1320.56" cy="508.046" r="14.4" fill="#e26f46" fill-rule="evenodd" fill-opacity="1" stroke="#000000" stroke-opacity="1" stroke-width="3.2"/>
<polyline clip-path="url(#clip391)" style="stroke:#3da44d; stroke-linecap:round; stroke-linejoin:round; stroke-width:12; stroke-opacity:1; fill:none" points="1665.56,1119.73 1628.15,1026.85 1538.05,887.881 1424.95,707.392 1293.09,558.388 "/>
<line clip-path="url(#clip391)" x1="1665.56" y1="1119.73" x2="1665.56" y2="1103.73" style="stroke:#3da44d; stroke-width:12; stroke-opacity:1"/>
<line clip-path="url(#clip391)" x1="1665.56" y1="1119.73" x2="1649.56" y2="1119.73" style="stroke:#3da44d; stroke-width:12; stroke-opacity:1"/>
<line clip-path="url(#clip391)" x1="1665.56" y1="1119.73" x2="1665.56" y2="1135.73" style="stroke:#3da44d; stroke-width:12; stroke-opacity:1"/>
<line clip-path="url(#clip391)" x1="1665.56" y1="1119.73" x2="1681.56" y2="1119.73" style="stroke:#3da44d; stroke-width:12; stroke-opacity:1"/>
<line clip-path="url(#clip391)" x1="1628.15" y1="1026.85" x2="1628.15" y2="1010.85" style="stroke:#3da44d; stroke-width:12; stroke-opacity:1"/>
<line clip-path="url(#clip391)" x1="1628.15" y1="1026.85" x2="1612.15" y2="1026.85" style="stroke:#3da44d; stroke-width:12; stroke-opacity:1"/>
<line clip-path="url(#clip391)" x1="1628.15" y1="1026.85" x2="1628.15" y2="1042.85" style="stroke:#3da44d; stroke-width:12; stroke-opacity:1"/>
<line clip-path="url(#clip391)" x1="1628.15" y1="1026.85" x2="1644.15" y2="1026.85" style="stroke:#3da44d; stroke-width:12; stroke-opacity:1"/>
<line clip-path="url(#clip391)" x1="1538.05" y1="887.881" x2="1538.05" y2="871.881" style="stroke:#3da44d; stroke-width:12; stroke-opacity:1"/>
<line clip-path="url(#clip391)" x1="1538.05" y1="887.881" x2="1522.05" y2="887.881" style="stroke:#3da44d; stroke-width:12; stroke-opacity:1"/>
<line clip-path="url(#clip391)" x1="1538.05" y1="887.881" x2="1538.05" y2="903.881" style="stroke:#3da44d; stroke-width:12; stroke-opacity:1"/>
<line clip-path="url(#clip391)" x1="1538.05" y1="887.881" x2="1554.05" y2="887.881" style="stroke:#3da44d; stroke-width:12; stroke-opacity:1"/>
<line clip-path="url(#clip391)" x1="1424.95" y1="707.392" x2="1424.95" y2="691.392" style="stroke:#3da44d; stroke-width:12; stroke-opacity:1"/>
<line clip-path="url(#clip391)" x1="1424.95" y1="707.392" x2="1408.95" y2="707.392" style="stroke:#3da44d; stroke-width:12; stroke-opacity:1"/>
<line clip-path="url(#clip391)" x1="1424.95" y1="707.392" x2="1424.95" y2="723.392" style="stroke:#3da44d; stroke-width:12; stroke-opacity:1"/>
<line clip-path="url(#clip391)" x1="1424.95" y1="707.392" x2="1440.95" y2="707.392" style="stroke:#3da44d; stroke-width:12; stroke-opacity:1"/>
<line clip-path="url(#clip391)" x1="1293.09" y1="558.388" x2="1293.09" y2="542.388" style="stroke:#3da44d; stroke-width:12; stroke-opacity:1"/>
<line clip-path="url(#clip391)" x1="1293.09" y1="558.388" x2="1277.09" y2="558.388" style="stroke:#3da44d; stroke-width:12; stroke-opacity:1"/>
<line clip-path="url(#clip391)" x1="1293.09" y1="558.388" x2="1293.09" y2="574.388" style="stroke:#3da44d; stroke-width:12; stroke-opacity:1"/>
<line clip-path="url(#clip391)" x1="1293.09" y1="558.388" x2="1309.09" y2="558.388" style="stroke:#3da44d; stroke-width:12; stroke-opacity:1"/>
<polyline clip-path="url(#clip391)" style="stroke:#c271d2; stroke-linecap:round; stroke-linejoin:round; stroke-width:12; stroke-opacity:1; fill:none" points="1609.81,1042.41 1622.85,889.826 1575.2,732.066 1424.05,556.097 1245.19,392.166 "/>
<path clip-path="url(#clip391)" d="M1609.81 1026.41 L1593.81 1042.41 L1609.81 1058.41 L1625.81 1042.41 L1609.81 1026.41 Z" fill="#c271d2" fill-rule="evenodd" fill-opacity="1" stroke="#000000" stroke-opacity="1" stroke-width="3.2"/>
<path clip-path="url(#clip391)" d="M1622.85 873.826 L1606.85 889.826 L1622.85 905.826 L1638.85 889.826 L1622.85 873.826 Z" fill="#c271d2" fill-rule="evenodd" fill-opacity="1" stroke="#000000" stroke-opacity="1" stroke-width="3.2"/>
<path clip-path="url(#clip391)" d="M1575.2 716.066 L1559.2 732.066 L1575.2 748.066 L1591.2 732.066 L1575.2 716.066 Z" fill="#c271d2" fill-rule="evenodd" fill-opacity="1" stroke="#000000" stroke-opacity="1" stroke-width="3.2"/>
<path clip-path="url(#clip391)" d="M1424.05 540.097 L1408.05 556.097 L1424.05 572.097 L1440.05 556.097 L1424.05 540.097 Z" fill="#c271d2" fill-rule="evenodd" fill-opacity="1" stroke="#000000" stroke-opacity="1" stroke-width="3.2"/>
<path clip-path="url(#clip391)" d="M1245.19 376.166 L1229.19 392.166 L1245.19 408.166 L1261.19 392.166 L1245.19 376.166 Z" fill="#c271d2" fill-rule="evenodd" fill-opacity="1" stroke="#000000" stroke-opacity="1" stroke-width="3.2"/>
<polyline clip-path="url(#clip391)" style="stroke:#ac8d18; stroke-linecap:round; stroke-linejoin:round; stroke-width:12; stroke-opacity:1; fill:none" points="1576.42,626.114 1262.71,598.22 1049.84,481.046 915.244,397.318 756.31,300.368 "/>
<path clip-path="url(#clip391)" d="M1592.42 610.114 L1560.42 610.114 L1576.42 642.114 L1592.42 610.114 Z" fill="#ac8d18" fill-rule="evenodd" fill-opacity="1" stroke="#000000" stroke-opacity="1" stroke-width="3.2"/>
<path clip-path="url(#clip391)" d="M1278.71 582.22 L1246.71 582.22 L1262.71 614.22 L1278.71 582.22 Z" fill="#ac8d18" fill-rule="evenodd" fill-opacity="1" stroke="#000000" stroke-opacity="1" stroke-width="3.2"/>
<path clip-path="url(#clip391)" d="M1065.84 465.046 L1033.84 465.046 L1049.84 497.046 L1065.84 465.046 Z" fill="#ac8d18" fill-rule="evenodd" fill-opacity="1" stroke="#000000" stroke-opacity="1" stroke-width="3.2"/>
<path clip-path="url(#clip391)" d="M931.244 381.318 L899.244 381.318 L915.244 413.318 L931.244 381.318 Z" fill="#ac8d18" fill-rule="evenodd" fill-opacity="1" stroke="#000000" stroke-opacity="1" stroke-width="3.2"/>
<path clip-path="url(#clip391)" d="M772.31 284.368 L740.31 284.368 L756.31 316.368 L772.31 284.368 Z" fill="#ac8d18" fill-rule="evenodd" fill-opacity="1" stroke="#000000" stroke-opacity="1" stroke-width="3.2"/>
<polyline clip-path="url(#clip391)" style="stroke:#00a9ad; stroke-linecap:round; stroke-linejoin:round; stroke-width:12; stroke-opacity:1; fill:none" points="1262.39,688.826 1157.66,601.424 981.612,458.843 797.55,344.253 826.143,231.229 "/>
<path clip-path="url(#clip391)" d="M1262.39 672.826 L1249.88 678.858 L1246.79 692.394 L1255.44 703.242 L1269.33 703.242 L1277.99 692.394 L1274.9 678.858 Z" fill="#00a9ad" fill-rule="evenodd" fill-opacity="1" stroke="#000000" stroke-opacity="1" stroke-width="3.2"/>
<path clip-path="url(#clip391)" d="M1157.66 585.424 L1145.14 591.456 L1142.06 604.992 L1150.71 615.84 L1164.6 615.84 L1173.26 604.992 L1170.17 591.456 Z" fill="#00a9ad" fill-rule="evenodd" fill-opacity="1" stroke="#000000" stroke-opacity="1" stroke-width="3.2"/>
<path clip-path="url(#clip391)" d="M981.612 442.843 L969.1 448.875 L966.012 462.411 L974.668 473.259 L988.556 473.259 L997.212 462.411 L994.124 448.875 Z" fill="#00a9ad" fill-rule="evenodd" fill-opacity="1" stroke="#000000" stroke-opacity="1" stroke-width="3.2"/>
<path clip-path="url(#clip391)" d="M797.55 328.253 L785.038 334.285 L781.95 347.821 L790.606 358.669 L804.494 358.669 L813.15 347.821 L810.062 334.285 Z" fill="#00a9ad" fill-rule="evenodd" fill-opacity="1" stroke="#000000" stroke-opacity="1" stroke-width="3.2"/>
<path clip-path="url(#clip391)" d="M826.143 215.229 L813.631 221.261 L810.543 234.797 L819.199 245.645 L833.087 245.645 L841.743 234.797 L838.655 221.261 Z" fill="#00a9ad" fill-rule="evenodd" fill-opacity="1" stroke="#000000" stroke-opacity="1" stroke-width="3.2"/>
<polyline clip-path="url(#clip391)" style="stroke:#ed5d92; stroke-linecap:round; stroke-linejoin:round; stroke-width:12; stroke-opacity:1; fill:none" points="1175.04,687.933 1012,554.458 680.314,433.547 510.868,262.439 547.03,158.126 "/>
<path clip-path="url(#clip391)" d="M1175.04 703.933 L1161.18 695.933 L1161.18 679.933 L1175.04 671.933 L1188.9 679.933 L1188.9 695.933 Z" fill="#ed5d92" fill-rule="evenodd" fill-opacity="1" stroke="#000000" stroke-opacity="1" stroke-width="3.2"/>
<path clip-path="url(#clip391)" d="M1012 570.458 L998.148 562.458 L998.148 546.458 L1012 538.458 L1025.86 546.458 L1025.86 562.458 Z" fill="#ed5d92" fill-rule="evenodd" fill-opacity="1" stroke="#000000" stroke-opacity="1" stroke-width="3.2"/>
<path clip-path="url(#clip391)" d="M680.314 449.547 L666.458 441.547 L666.458 425.547 L680.314 417.547 L694.17 425.547 L694.17 441.547 Z" fill="#ed5d92" fill-rule="evenodd" fill-opacity="1" stroke="#000000" stroke-opacity="1" stroke-width="3.2"/>
<path clip-path="url(#clip391)" d="M510.868 278.439 L497.012 270.439 L497.012 254.439 L510.868 246.439 L524.724 254.439 L524.724 270.439 Z" fill="#ed5d92" fill-rule="evenodd" fill-opacity="1" stroke="#000000" stroke-opacity="1" stroke-width="3.2"/>
<path clip-path="url(#clip391)" d="M547.03 174.126 L533.174 166.126 L533.174 150.126 L547.03 142.126 L560.886 150.126 L560.886 166.126 Z" fill="#ed5d92" fill-rule="evenodd" fill-opacity="1" stroke="#000000" stroke-opacity="1" stroke-width="3.2"/>
<path clip-path="url(#clip390)" d="M1913.37 957.943 L2352.76 957.943 L2352.76 543.223 L1913.37 543.223  Z" fill="#ffffff" fill-rule="evenodd" fill-opacity="1"/>
<polyline clip-path="url(#clip390)" style="stroke:#000000; stroke-linecap:round; stroke-linejoin:round; stroke-width:4; stroke-opacity:1; fill:none" points="1913.37,957.943 2352.76,957.943 2352.76,543.223 1913.37,543.223 1913.37,957.943 "/>
<polyline clip-path="url(#clip390)" style="stroke:#009af9; stroke-linecap:round; stroke-linejoin:round; stroke-width:12; stroke-opacity:1; fill:none" points="1934.27,595.063 2059.66,595.063 "/>
<line clip-path="url(#clip390)" x1="1996.97" y1="595.063" x2="1996.97" y2="575.712" style="stroke:#009af9; stroke-width:12; stroke-opacity:1"/>
<line clip-path="url(#clip390)" x1="1996.97" y1="595.063" x2="1977.61" y2="595.063" style="stroke:#009af9; stroke-width:12; stroke-opacity:1"/>
<line clip-path="url(#clip390)" x1="1996.97" y1="595.063" x2="1996.97" y2="614.414" style="stroke:#009af9; stroke-width:12; stroke-opacity:1"/>
<line clip-path="url(#clip390)" x1="1996.97" y1="595.063" x2="2016.32" y2="595.063" style="stroke:#009af9; stroke-width:12; stroke-opacity:1"/>
<path clip-path="url(#clip390)" d="M2080.56 577.783 L2109.8 577.783 L2109.8 581.718 L2097.53 581.718 L2097.53 612.343 L2092.83 612.343 L2092.83 581.718 L2080.56 581.718 L2080.56 577.783 Z" fill="#000000" fill-rule="nonzero" fill-opacity="1" /><path clip-path="url(#clip390)" d="M2130.7 596.139 Q2132.21 596.648 2133.62 598.315 Q2135.05 599.982 2136.49 602.898 L2141.23 612.343 L2136.21 612.343 L2131.79 603.477 Q2130.08 600.005 2128.46 598.871 Q2126.86 597.736 2124.08 597.736 L2118.99 597.736 L2118.99 612.343 L2114.31 612.343 L2114.31 577.783 L2124.87 577.783 Q2130.79 577.783 2133.71 580.26 Q2136.63 582.736 2136.63 587.736 Q2136.63 591 2135.1 593.153 Q2133.59 595.306 2130.7 596.139 M2118.99 581.625 L2118.99 593.894 L2124.87 593.894 Q2128.25 593.894 2129.96 592.343 Q2131.7 590.769 2131.7 587.736 Q2131.7 584.704 2129.96 583.176 Q2128.25 581.625 2124.87 581.625 L2118.99 581.625 Z" fill="#000000" fill-rule="nonzero" fill-opacity="1" /><path clip-path="url(#clip390)" d="M2151.93 595.838 L2151.93 608.5 L2159.43 608.5 Q2163.2 608.5 2165.01 606.949 Q2166.83 605.375 2166.83 602.158 Q2166.83 598.917 2165.01 597.389 Q2163.2 595.838 2159.43 595.838 L2151.93 595.838 M2151.93 581.625 L2151.93 592.042 L2158.85 592.042 Q2162.27 592.042 2163.94 590.769 Q2165.63 589.472 2165.63 586.834 Q2165.63 584.218 2163.94 582.922 Q2162.27 581.625 2158.85 581.625 L2151.93 581.625 M2147.25 577.783 L2159.2 577.783 Q2164.54 577.783 2167.44 580.005 Q2170.33 582.227 2170.33 586.324 Q2170.33 589.496 2168.85 591.371 Q2167.37 593.246 2164.5 593.709 Q2167.95 594.449 2169.84 596.81 Q2171.77 599.148 2171.77 602.667 Q2171.77 607.296 2168.62 609.82 Q2165.47 612.343 2159.66 612.343 L2147.25 612.343 L2147.25 577.783 Z" fill="#000000" fill-rule="nonzero" fill-opacity="1" /><path clip-path="url(#clip390)" d="M2184.45 581.625 L2184.45 608.5 L2190.1 608.5 Q2197.25 608.5 2200.56 605.259 Q2203.89 602.019 2203.89 595.028 Q2203.89 588.084 2200.56 584.866 Q2197.25 581.625 2190.1 581.625 L2184.45 581.625 M2179.77 577.783 L2189.38 577.783 Q2199.43 577.783 2204.13 581.973 Q2208.83 586.139 2208.83 595.028 Q2208.83 603.963 2204.1 608.153 Q2199.38 612.343 2189.38 612.343 L2179.77 612.343 L2179.77 577.783 Z" fill="#000000" fill-rule="nonzero" fill-opacity="1" /><path clip-path="url(#clip390)" d="M2216.28 577.783 L2236.14 577.783 L2236.14 581.718 L2220.95 581.718 L2220.95 591.903 L2234.66 591.903 L2234.66 595.838 L2220.95 595.838 L2220.95 612.343 L2216.28 612.343 L2216.28 577.783 Z" fill="#000000" fill-rule="nonzero" fill-opacity="1" /><path clip-path="url(#clip390)" d="M2247.99 608.408 L2264.31 608.408 L2264.31 612.343 L2242.37 612.343 L2242.37 608.408 Q2245.03 605.653 2249.61 601.023 Q2254.22 596.371 2255.4 595.028 Q2257.64 592.505 2258.52 590.769 Q2259.43 589.01 2259.43 587.32 Q2259.43 584.565 2257.48 582.829 Q2255.56 581.093 2252.46 581.093 Q2250.26 581.093 2247.81 581.857 Q2245.38 582.621 2242.6 584.172 L2242.6 579.449 Q2245.42 578.315 2247.88 577.736 Q2250.33 577.158 2252.37 577.158 Q2257.74 577.158 2260.93 579.843 Q2264.13 582.528 2264.13 587.019 Q2264.13 589.148 2263.32 591.07 Q2262.53 592.968 2260.42 595.56 Q2259.84 596.232 2256.74 599.449 Q2253.64 602.644 2247.99 608.408 Z" fill="#000000" fill-rule="nonzero" fill-opacity="1" /><polyline clip-path="url(#clip390)" style="stroke:#e26f46; stroke-linecap:round; stroke-linejoin:round; stroke-width:12; stroke-opacity:1; fill:none" points="1934.27,646.903 2059.66,646.903 "/>
<circle clip-path="url(#clip390)" cx="1996.97" cy="646.903" r="17.4158" fill="#e26f46" fill-rule="evenodd" fill-opacity="1" stroke="#000000" stroke-opacity="1" stroke-width="4.55111"/>
<path clip-path="url(#clip390)" d="M2080.56 629.623 L2085.24 629.623 L2085.24 644.229 L2100.75 629.623 L2106.77 629.623 L2089.61 645.734 L2107.99 664.183 L2101.83 664.183 L2085.24 647.539 L2085.24 664.183 L2080.56 664.183 L2080.56 629.623 Z" fill="#000000" fill-rule="nonzero" fill-opacity="1" /><path clip-path="url(#clip390)" d="M2131.28 650.155 L2131.28 652.238 L2111.7 652.238 Q2111.97 656.636 2114.33 658.951 Q2116.72 661.243 2120.96 661.243 Q2123.41 661.243 2125.7 660.641 Q2128.02 660.039 2130.28 658.836 L2130.28 662.863 Q2127.99 663.836 2125.58 664.345 Q2123.18 664.854 2120.7 664.854 Q2114.5 664.854 2110.86 661.243 Q2107.25 657.632 2107.25 651.474 Q2107.25 645.109 2110.68 641.382 Q2114.13 637.632 2119.96 637.632 Q2125.19 637.632 2128.22 641.012 Q2131.28 644.368 2131.28 650.155 M2127.02 648.905 Q2126.97 645.41 2125.05 643.326 Q2123.15 641.243 2120.01 641.243 Q2116.44 641.243 2114.29 643.257 Q2112.16 645.271 2111.83 648.928 L2127.02 648.905 Z" fill="#000000" fill-rule="nonzero" fill-opacity="1" /><path clip-path="url(#clip390)" d="M2159.82 648.535 L2159.82 664.183 L2155.56 664.183 L2155.56 648.674 Q2155.56 644.993 2154.13 643.164 Q2152.69 641.336 2149.82 641.336 Q2146.37 641.336 2144.38 643.535 Q2142.39 645.734 2142.39 649.53 L2142.39 664.183 L2138.11 664.183 L2138.11 638.257 L2142.39 638.257 L2142.39 642.285 Q2143.92 639.947 2145.98 638.789 Q2148.06 637.632 2150.77 637.632 Q2155.24 637.632 2157.53 640.41 Q2159.82 643.164 2159.82 648.535 Z" fill="#000000" fill-rule="nonzero" fill-opacity="1" /><path clip-path="url(#clip390)" d="M2194.38 632.285 L2194.38 637.215 Q2192.02 635.016 2189.33 633.928 Q2186.67 632.84 2183.66 632.84 Q2177.74 632.84 2174.59 636.475 Q2171.44 640.086 2171.44 646.937 Q2171.44 653.766 2174.59 657.4 Q2177.74 661.011 2183.66 661.011 Q2186.67 661.011 2189.33 659.923 Q2192.02 658.836 2194.38 656.636 L2194.38 661.521 Q2191.93 663.187 2189.17 664.021 Q2186.44 664.854 2183.39 664.854 Q2175.54 664.854 2171.02 660.062 Q2166.51 655.248 2166.51 646.937 Q2166.51 638.604 2171.02 633.813 Q2175.54 628.998 2183.39 628.998 Q2186.49 628.998 2189.22 629.831 Q2191.97 630.641 2194.38 632.285 Z" fill="#000000" fill-rule="nonzero" fill-opacity="1" /><path clip-path="url(#clip390)" d="M2213.2 651.15 Q2208.04 651.15 2206.05 652.331 Q2204.06 653.511 2204.06 656.359 Q2204.06 658.627 2205.54 659.97 Q2207.04 661.289 2209.61 661.289 Q2213.15 661.289 2215.28 658.789 Q2217.44 656.266 2217.44 652.099 L2217.44 651.15 L2213.2 651.15 M2221.7 649.391 L2221.7 664.183 L2217.44 664.183 L2217.44 660.248 Q2215.98 662.609 2213.8 663.743 Q2211.63 664.854 2208.48 664.854 Q2204.5 664.854 2202.14 662.632 Q2199.8 660.386 2199.8 656.636 Q2199.8 652.262 2202.71 650.039 Q2205.65 647.817 2211.46 647.817 L2217.44 647.817 L2217.44 647.4 Q2217.44 644.461 2215.49 642.863 Q2213.57 641.243 2210.08 641.243 Q2207.85 641.243 2205.75 641.775 Q2203.64 642.308 2201.7 643.373 L2201.7 639.437 Q2204.03 638.535 2206.23 638.095 Q2208.43 637.632 2210.51 637.632 Q2216.14 637.632 2218.92 640.549 Q2221.7 643.465 2221.7 649.391 Z" fill="#000000" fill-rule="nonzero" fill-opacity="1" /><path clip-path="url(#clip390)" d="M2245.49 642.238 Q2244.77 641.822 2243.92 641.637 Q2243.08 641.428 2242.07 641.428 Q2238.45 641.428 2236.51 643.789 Q2234.59 646.127 2234.59 650.525 L2234.59 664.183 L2230.31 664.183 L2230.31 638.257 L2234.59 638.257 L2234.59 642.285 Q2235.93 639.924 2238.08 638.789 Q2240.24 637.632 2243.32 637.632 Q2243.76 637.632 2244.29 637.701 Q2244.82 637.748 2245.47 637.863 L2245.49 642.238 Z" fill="#000000" fill-rule="nonzero" fill-opacity="1" /><path clip-path="url(#clip390)" d="M2254.08 660.294 L2254.08 674.044 L2249.8 674.044 L2249.8 638.257 L2254.08 638.257 L2254.08 642.192 Q2255.42 639.877 2257.46 638.766 Q2259.52 637.632 2262.37 637.632 Q2267.09 637.632 2270.03 641.382 Q2272.99 645.132 2272.99 651.243 Q2272.99 657.354 2270.03 661.104 Q2267.09 664.854 2262.37 664.854 Q2259.52 664.854 2257.46 663.743 Q2255.42 662.609 2254.08 660.294 M2268.57 651.243 Q2268.57 646.544 2266.63 643.882 Q2264.7 641.197 2261.32 641.197 Q2257.95 641.197 2256 643.882 Q2254.08 646.544 2254.08 651.243 Q2254.08 655.942 2256 658.627 Q2257.95 661.289 2261.32 661.289 Q2264.7 661.289 2266.63 658.627 Q2268.57 655.942 2268.57 651.243 Z" fill="#000000" fill-rule="nonzero" fill-opacity="1" /><path clip-path="url(#clip390)" d="M2293.5 633.697 L2281.7 652.146 L2293.5 652.146 L2293.5 633.697 M2292.27 629.623 L2298.15 629.623 L2298.15 652.146 L2303.08 652.146 L2303.08 656.035 L2298.15 656.035 L2298.15 664.183 L2293.5 664.183 L2293.5 656.035 L2277.9 656.035 L2277.9 651.521 L2292.27 629.623 Z" fill="#000000" fill-rule="nonzero" fill-opacity="1" /><polyline clip-path="url(#clip390)" style="stroke:#3da44d; stroke-linecap:round; stroke-linejoin:round; stroke-width:12; stroke-opacity:1; fill:none" points="1934.27,698.743 2059.66,698.743 "/>
<line clip-path="url(#clip390)" x1="1996.97" y1="698.743" x2="1996.97" y2="679.392" style="stroke:#3da44d; stroke-width:12; stroke-opacity:1"/>
<line clip-path="url(#clip390)" x1="1996.97" y1="698.743" x2="1977.61" y2="698.743" style="stroke:#3da44d; stroke-width:12; stroke-opacity:1"/>
<line clip-path="url(#clip390)" x1="1996.97" y1="698.743" x2="1996.97" y2="718.094" style="stroke:#3da44d; stroke-width:12; stroke-opacity:1"/>
<line clip-path="url(#clip390)" x1="1996.97" y1="698.743" x2="2016.32" y2="698.743" style="stroke:#3da44d; stroke-width:12; stroke-opacity:1"/>
<path clip-path="url(#clip390)" d="M2080.56 681.463 L2085.24 681.463 L2085.24 696.069 L2100.75 681.463 L2106.77 681.463 L2089.61 697.574 L2107.99 716.023 L2101.83 716.023 L2085.24 699.379 L2085.24 716.023 L2080.56 716.023 L2080.56 681.463 Z" fill="#000000" fill-rule="nonzero" fill-opacity="1" /><path clip-path="url(#clip390)" d="M2131.28 701.995 L2131.28 704.078 L2111.7 704.078 Q2111.97 708.476 2114.33 710.791 Q2116.72 713.083 2120.96 713.083 Q2123.41 713.083 2125.7 712.481 Q2128.02 711.879 2130.28 710.676 L2130.28 714.703 Q2127.99 715.676 2125.58 716.185 Q2123.18 716.694 2120.7 716.694 Q2114.5 716.694 2110.86 713.083 Q2107.25 709.472 2107.25 703.314 Q2107.25 696.949 2110.68 693.222 Q2114.13 689.472 2119.96 689.472 Q2125.19 689.472 2128.22 692.852 Q2131.28 696.208 2131.28 701.995 M2127.02 700.745 Q2126.97 697.25 2125.05 695.166 Q2123.15 693.083 2120.01 693.083 Q2116.44 693.083 2114.29 695.097 Q2112.16 697.111 2111.83 700.768 L2127.02 700.745 Z" fill="#000000" fill-rule="nonzero" fill-opacity="1" /><path clip-path="url(#clip390)" d="M2159.82 700.375 L2159.82 716.023 L2155.56 716.023 L2155.56 700.514 Q2155.56 696.833 2154.13 695.004 Q2152.69 693.176 2149.82 693.176 Q2146.37 693.176 2144.38 695.375 Q2142.39 697.574 2142.39 701.37 L2142.39 716.023 L2138.11 716.023 L2138.11 690.097 L2142.39 690.097 L2142.39 694.125 Q2143.92 691.787 2145.98 690.629 Q2148.06 689.472 2150.77 689.472 Q2155.24 689.472 2157.53 692.25 Q2159.82 695.004 2159.82 700.375 Z" fill="#000000" fill-rule="nonzero" fill-opacity="1" /><path clip-path="url(#clip390)" d="M2194.38 684.125 L2194.38 689.055 Q2192.02 686.856 2189.33 685.768 Q2186.67 684.68 2183.66 684.68 Q2177.74 684.68 2174.59 688.315 Q2171.44 691.926 2171.44 698.777 Q2171.44 705.606 2174.59 709.24 Q2177.74 712.851 2183.66 712.851 Q2186.67 712.851 2189.33 711.763 Q2192.02 710.676 2194.38 708.476 L2194.38 713.361 Q2191.93 715.027 2189.17 715.861 Q2186.44 716.694 2183.39 716.694 Q2175.54 716.694 2171.02 711.902 Q2166.51 707.088 2166.51 698.777 Q2166.51 690.444 2171.02 685.653 Q2175.54 680.838 2183.39 680.838 Q2186.49 680.838 2189.22 681.671 Q2191.97 682.481 2194.38 684.125 Z" fill="#000000" fill-rule="nonzero" fill-opacity="1" /><path clip-path="url(#clip390)" d="M2213.2 702.99 Q2208.04 702.99 2206.05 704.171 Q2204.06 705.351 2204.06 708.199 Q2204.06 710.467 2205.54 711.81 Q2207.04 713.129 2209.61 713.129 Q2213.15 713.129 2215.28 710.629 Q2217.44 708.106 2217.44 703.939 L2217.44 702.99 L2213.2 702.99 M2221.7 701.231 L2221.7 716.023 L2217.44 716.023 L2217.44 712.088 Q2215.98 714.449 2213.8 715.583 Q2211.63 716.694 2208.48 716.694 Q2204.5 716.694 2202.14 714.472 Q2199.8 712.226 2199.8 708.476 Q2199.8 704.102 2202.71 701.879 Q2205.65 699.657 2211.46 699.657 L2217.44 699.657 L2217.44 699.24 Q2217.44 696.301 2215.49 694.703 Q2213.57 693.083 2210.08 693.083 Q2207.85 693.083 2205.75 693.615 Q2203.64 694.148 2201.7 695.213 L2201.7 691.277 Q2204.03 690.375 2206.23 689.935 Q2208.43 689.472 2210.51 689.472 Q2216.14 689.472 2218.92 692.389 Q2221.7 695.305 2221.7 701.231 Z" fill="#000000" fill-rule="nonzero" fill-opacity="1" /><path clip-path="url(#clip390)" d="M2245.49 694.078 Q2244.77 693.662 2243.92 693.477 Q2243.08 693.268 2242.07 693.268 Q2238.45 693.268 2236.51 695.629 Q2234.59 697.967 2234.59 702.365 L2234.59 716.023 L2230.31 716.023 L2230.31 690.097 L2234.59 690.097 L2234.59 694.125 Q2235.93 691.764 2238.08 690.629 Q2240.24 689.472 2243.32 689.472 Q2243.76 689.472 2244.29 689.541 Q2244.82 689.588 2245.47 689.703 L2245.49 694.078 Z" fill="#000000" fill-rule="nonzero" fill-opacity="1" /><path clip-path="url(#clip390)" d="M2254.08 712.134 L2254.08 725.884 L2249.8 725.884 L2249.8 690.097 L2254.08 690.097 L2254.08 694.032 Q2255.42 691.717 2257.46 690.606 Q2259.52 689.472 2262.37 689.472 Q2267.09 689.472 2270.03 693.222 Q2272.99 696.972 2272.99 703.083 Q2272.99 709.194 2270.03 712.944 Q2267.09 716.694 2262.37 716.694 Q2259.52 716.694 2257.46 715.583 Q2255.42 714.449 2254.08 712.134 M2268.57 703.083 Q2268.57 698.384 2266.63 695.722 Q2264.7 693.037 2261.32 693.037 Q2257.95 693.037 2256 695.722 Q2254.08 698.384 2254.08 703.083 Q2254.08 707.782 2256 710.467 Q2257.95 713.129 2261.32 713.129 Q2264.7 713.129 2266.63 710.467 Q2268.57 707.782 2268.57 703.083 Z" fill="#000000" fill-rule="nonzero" fill-opacity="1" /><path clip-path="url(#clip390)" d="M2293.5 685.537 L2281.7 703.986 L2293.5 703.986 L2293.5 685.537 M2292.27 681.463 L2298.15 681.463 L2298.15 703.986 L2303.08 703.986 L2303.08 707.875 L2298.15 707.875 L2298.15 716.023 L2293.5 716.023 L2293.5 707.875 L2277.9 707.875 L2277.9 703.361 L2292.27 681.463 Z" fill="#000000" fill-rule="nonzero" fill-opacity="1" /><path clip-path="url(#clip390)" d="M2309.63 681.463 L2331.86 681.463 L2331.86 683.453 L2319.31 716.023 L2314.43 716.023 L2326.23 685.398 L2309.63 685.398 L2309.63 681.463 Z" fill="#000000" fill-rule="nonzero" fill-opacity="1" /><polyline clip-path="url(#clip390)" style="stroke:#c271d2; stroke-linecap:round; stroke-linejoin:round; stroke-width:12; stroke-opacity:1; fill:none" points="1934.27,750.583 2059.66,750.583 "/>
<path clip-path="url(#clip390)" d="M1996.97 731.232 L1977.61 750.583 L1996.97 769.934 L2016.32 750.583 L1996.97 731.232 Z" fill="#c271d2" fill-rule="evenodd" fill-opacity="1" stroke="#000000" stroke-opacity="1" stroke-width="4.55111"/>
<path clip-path="url(#clip390)" d="M2080.56 733.303 L2085.24 733.303 L2085.24 747.909 L2100.75 733.303 L2106.77 733.303 L2089.61 749.414 L2107.99 767.863 L2101.83 767.863 L2085.24 751.219 L2085.24 767.863 L2080.56 767.863 L2080.56 733.303 Z" fill="#000000" fill-rule="nonzero" fill-opacity="1" /><path clip-path="url(#clip390)" d="M2108.41 741.937 L2112.92 741.937 L2121.02 763.696 L2129.13 741.937 L2133.64 741.937 L2123.92 767.863 L2118.13 767.863 L2108.41 741.937 Z" fill="#000000" fill-rule="nonzero" fill-opacity="1" /><path clip-path="url(#clip390)" d="M2151.3 754.83 Q2146.14 754.83 2144.15 756.011 Q2142.16 757.191 2142.16 760.039 Q2142.16 762.307 2143.64 763.65 Q2145.14 764.969 2147.71 764.969 Q2151.26 764.969 2153.39 762.469 Q2155.54 759.946 2155.54 755.779 L2155.54 754.83 L2151.3 754.83 M2159.8 753.071 L2159.8 767.863 L2155.54 767.863 L2155.54 763.928 Q2154.08 766.289 2151.9 767.423 Q2149.73 768.534 2146.58 768.534 Q2142.6 768.534 2140.24 766.312 Q2137.9 764.066 2137.9 760.316 Q2137.9 755.942 2140.82 753.719 Q2143.76 751.497 2149.57 751.497 L2155.54 751.497 L2155.54 751.08 Q2155.54 748.141 2153.59 746.543 Q2151.67 744.923 2148.18 744.923 Q2145.96 744.923 2143.85 745.455 Q2141.74 745.988 2139.8 747.053 L2139.8 743.117 Q2142.14 742.215 2144.33 741.775 Q2146.53 741.312 2148.62 741.312 Q2154.24 741.312 2157.02 744.229 Q2159.8 747.145 2159.8 753.071 Z" fill="#000000" fill-rule="nonzero" fill-opacity="1" /><path clip-path="url(#clip390)" d="M2190.75 753.835 L2190.75 755.918 L2171.16 755.918 Q2171.44 760.316 2173.8 762.631 Q2176.19 764.923 2180.42 764.923 Q2182.88 764.923 2185.17 764.321 Q2187.48 763.719 2189.75 762.516 L2189.75 766.543 Q2187.46 767.516 2185.05 768.025 Q2182.64 768.534 2180.17 768.534 Q2173.96 768.534 2170.33 764.923 Q2166.72 761.312 2166.72 755.154 Q2166.72 748.789 2170.14 745.062 Q2173.59 741.312 2179.43 741.312 Q2184.66 741.312 2187.69 744.692 Q2190.75 748.048 2190.75 753.835 M2186.49 752.585 Q2186.44 749.09 2184.52 747.006 Q2182.62 744.923 2179.47 744.923 Q2175.91 744.923 2173.76 746.937 Q2171.63 748.951 2171.3 752.608 L2186.49 752.585 Z" fill="#000000" fill-rule="nonzero" fill-opacity="1" /><path clip-path="url(#clip390)" d="M2212.76 745.918 Q2212.04 745.502 2211.19 745.317 Q2210.35 745.108 2209.33 745.108 Q2205.72 745.108 2203.78 747.469 Q2201.86 749.807 2201.86 754.205 L2201.86 767.863 L2197.58 767.863 L2197.58 741.937 L2201.86 741.937 L2201.86 745.965 Q2203.2 743.604 2205.35 742.469 Q2207.51 741.312 2210.58 741.312 Q2211.02 741.312 2211.56 741.381 Q2212.09 741.428 2212.74 741.543 L2212.76 745.918 Z" fill="#000000" fill-rule="nonzero" fill-opacity="1" /><path clip-path="url(#clip390)" d="M2237.95 752.215 L2237.95 767.863 L2233.69 767.863 L2233.69 752.354 Q2233.69 748.673 2232.25 746.844 Q2230.82 745.016 2227.95 745.016 Q2224.5 745.016 2222.51 747.215 Q2220.51 749.414 2220.51 753.21 L2220.51 767.863 L2216.23 767.863 L2216.23 741.937 L2220.51 741.937 L2220.51 745.965 Q2222.04 743.627 2224.1 742.469 Q2226.19 741.312 2228.89 741.312 Q2233.36 741.312 2235.65 744.09 Q2237.95 746.844 2237.95 752.215 Z" fill="#000000" fill-rule="nonzero" fill-opacity="1" /><path clip-path="url(#clip390)" d="M2256.49 744.923 Q2253.06 744.923 2251.07 747.608 Q2249.08 750.27 2249.08 754.923 Q2249.08 759.576 2251.05 762.261 Q2253.04 764.923 2256.49 764.923 Q2259.89 764.923 2261.88 762.238 Q2263.87 759.553 2263.87 754.923 Q2263.87 750.317 2261.88 747.631 Q2259.89 744.923 2256.49 744.923 M2256.49 741.312 Q2262.04 741.312 2265.21 744.923 Q2268.39 748.534 2268.39 754.923 Q2268.39 761.289 2265.21 764.923 Q2262.04 768.534 2256.49 768.534 Q2250.91 768.534 2247.74 764.923 Q2244.59 761.289 2244.59 754.923 Q2244.59 748.534 2247.74 744.923 Q2250.91 741.312 2256.49 741.312 Z" fill="#000000" fill-rule="nonzero" fill-opacity="1" /><path clip-path="url(#clip390)" d="M2276.09 733.303 L2294.45 733.303 L2294.45 737.238 L2280.38 737.238 L2280.38 745.71 Q2281.39 745.363 2282.41 745.201 Q2283.43 745.016 2284.45 745.016 Q2290.24 745.016 2293.62 748.187 Q2297 751.358 2297 756.775 Q2297 762.354 2293.52 765.455 Q2290.05 768.534 2283.73 768.534 Q2281.56 768.534 2279.29 768.164 Q2277.04 767.793 2274.63 767.053 L2274.63 762.354 Q2276.72 763.488 2278.94 764.043 Q2281.16 764.599 2283.64 764.599 Q2287.64 764.599 2289.98 762.492 Q2292.32 760.386 2292.32 756.775 Q2292.32 753.164 2289.98 751.057 Q2287.64 748.951 2283.64 748.951 Q2281.76 748.951 2279.89 749.367 Q2278.04 749.784 2276.09 750.664 L2276.09 733.303 Z" fill="#000000" fill-rule="nonzero" fill-opacity="1" /><polyline clip-path="url(#clip390)" style="stroke:#ac8d18; stroke-linecap:round; stroke-linejoin:round; stroke-width:12; stroke-opacity:1; fill:none" points="1934.27,802.423 2059.66,802.423 "/>
<path clip-path="url(#clip390)" d="M2016.32 783.072 L1977.61 783.072 L1996.97 821.774 L2016.32 783.072 Z" fill="#ac8d18" fill-rule="evenodd" fill-opacity="1" stroke="#000000" stroke-opacity="1" stroke-width="4.55111"/>
<path clip-path="url(#clip390)" d="M2096.58 788.314 Q2091.49 788.314 2088.48 792.11 Q2085.49 795.907 2085.49 802.457 Q2085.49 808.985 2088.48 812.781 Q2091.49 816.578 2096.58 816.578 Q2101.67 816.578 2104.64 812.781 Q2107.62 808.985 2107.62 802.457 Q2107.62 795.907 2104.64 792.11 Q2101.67 788.314 2096.58 788.314 M2103.13 819.078 L2109.29 825.814 L2103.64 825.814 L2098.52 820.281 Q2097.76 820.328 2097.34 820.351 Q2096.95 820.374 2096.58 820.374 Q2089.29 820.374 2084.91 815.513 Q2080.56 810.629 2080.56 802.457 Q2080.56 794.263 2084.91 789.402 Q2089.29 784.518 2096.58 784.518 Q2103.85 784.518 2108.2 789.402 Q2112.55 794.263 2112.55 802.457 Q2112.55 808.476 2110.12 812.758 Q2107.71 817.041 2103.13 819.078 Z" fill="#000000" fill-rule="nonzero" fill-opacity="1" /><path clip-path="url(#clip390)" d="M2119.87 785.143 L2126.16 785.143 L2141.49 814.055 L2141.49 785.143 L2146.02 785.143 L2146.02 819.703 L2139.73 819.703 L2124.4 790.791 L2124.4 819.703 L2119.87 819.703 L2119.87 785.143 Z" fill="#000000" fill-rule="nonzero" fill-opacity="1" /><path clip-path="url(#clip390)" d="M2160.01 788.985 L2160.01 815.86 L2165.65 815.86 Q2172.81 815.86 2176.12 812.619 Q2179.45 809.379 2179.45 802.388 Q2179.45 795.444 2176.12 792.226 Q2172.81 788.985 2165.65 788.985 L2160.01 788.985 M2155.33 785.143 L2164.94 785.143 Q2174.98 785.143 2179.68 789.333 Q2184.38 793.499 2184.38 802.388 Q2184.38 811.323 2179.66 815.513 Q2174.94 819.703 2164.94 819.703 L2155.33 819.703 L2155.33 785.143 Z" fill="#000000" fill-rule="nonzero" fill-opacity="1" /><path clip-path="url(#clip390)" d="M2191.83 785.143 L2211.7 785.143 L2211.7 789.078 L2196.51 789.078 L2196.51 799.263 L2210.21 799.263 L2210.21 803.198 L2196.51 803.198 L2196.51 819.703 L2191.83 819.703 L2191.83 785.143 Z" fill="#000000" fill-rule="nonzero" fill-opacity="1" /><polyline clip-path="url(#clip390)" style="stroke:#00a9ad; stroke-linecap:round; stroke-linejoin:round; stroke-width:12; stroke-opacity:1; fill:none" points="1934.27,854.263 2059.66,854.263 "/>
<path clip-path="url(#clip390)" d="M1996.97 834.912 L1981.83 842.207 L1978.1 858.578 L1988.57 871.698 L2005.36 871.698 L2015.83 858.578 L2012.1 842.207 Z" fill="#00a9ad" fill-rule="evenodd" fill-opacity="1" stroke="#000000" stroke-opacity="1" stroke-width="4.55111"/>
<path clip-path="url(#clip390)" d="M2080.56 836.983 L2100.42 836.983 L2100.42 840.918 L2085.24 840.918 L2085.24 851.103 L2098.94 851.103 L2098.94 855.038 L2085.24 855.038 L2085.24 871.543 L2080.56 871.543 L2080.56 836.983 Z" fill="#000000" fill-rule="nonzero" fill-opacity="1" /><path clip-path="url(#clip390)" d="M2112.51 855.038 L2112.51 867.7 L2120.01 867.7 Q2123.78 867.7 2125.58 866.149 Q2127.41 864.575 2127.41 861.358 Q2127.41 858.117 2125.58 856.589 Q2123.78 855.038 2120.01 855.038 L2112.51 855.038 M2112.51 840.825 L2112.51 851.242 L2119.43 851.242 Q2122.85 851.242 2124.52 849.969 Q2126.21 848.672 2126.21 846.034 Q2126.21 843.418 2124.52 842.122 Q2122.85 840.825 2119.43 840.825 L2112.51 840.825 M2107.83 836.983 L2119.77 836.983 Q2125.12 836.983 2128.02 839.205 Q2130.91 841.427 2130.91 845.524 Q2130.91 848.696 2129.43 850.571 Q2127.95 852.446 2125.08 852.909 Q2128.52 853.649 2130.42 856.01 Q2132.34 858.348 2132.34 861.867 Q2132.34 866.496 2129.2 869.02 Q2126.05 871.543 2120.24 871.543 L2107.83 871.543 L2107.83 836.983 Z" fill="#000000" fill-rule="nonzero" fill-opacity="1" /><path clip-path="url(#clip390)" d="M2145.03 840.825 L2145.03 867.7 L2150.68 867.7 Q2157.83 867.7 2161.14 864.459 Q2164.47 861.219 2164.47 854.228 Q2164.47 847.284 2161.14 844.066 Q2157.83 840.825 2150.68 840.825 L2145.03 840.825 M2140.35 836.983 L2149.96 836.983 Q2160.01 836.983 2164.71 841.173 Q2169.4 845.339 2169.4 854.228 Q2169.4 863.163 2164.68 867.353 Q2159.96 871.543 2149.96 871.543 L2140.35 871.543 L2140.35 836.983 Z" fill="#000000" fill-rule="nonzero" fill-opacity="1" /><path clip-path="url(#clip390)" d="M2176.86 836.983 L2196.72 836.983 L2196.72 840.918 L2181.53 840.918 L2181.53 851.103 L2195.24 851.103 L2195.24 855.038 L2181.53 855.038 L2181.53 871.543 L2176.86 871.543 L2176.86 836.983 Z" fill="#000000" fill-rule="nonzero" fill-opacity="1" /><polyline clip-path="url(#clip390)" style="stroke:#ed5d92; stroke-linecap:round; stroke-linejoin:round; stroke-width:12; stroke-opacity:1; fill:none" points="1934.27,906.103 2059.66,906.103 "/>
<path clip-path="url(#clip390)" d="M1996.97 925.454 L1980.21 915.778 L1980.21 896.427 L1996.97 886.752 L2013.72 896.427 L2013.72 915.778 Z" fill="#ed5d92" fill-rule="evenodd" fill-opacity="1" stroke="#000000" stroke-opacity="1" stroke-width="4.55111"/>
<path clip-path="url(#clip390)" d="M2096.95 907.179 Q2098.46 907.688 2099.87 909.355 Q2101.3 911.022 2102.74 913.938 L2107.48 923.383 L2102.46 923.383 L2098.04 914.517 Q2096.33 911.045 2094.71 909.911 Q2093.11 908.776 2090.33 908.776 L2085.24 908.776 L2085.24 923.383 L2080.56 923.383 L2080.56 888.823 L2091.12 888.823 Q2097.04 888.823 2099.96 891.3 Q2102.88 893.776 2102.88 898.776 Q2102.88 902.04 2101.35 904.193 Q2099.84 906.346 2096.95 907.179 M2085.24 892.665 L2085.24 904.934 L2091.12 904.934 Q2094.5 904.934 2096.21 903.383 Q2097.95 901.809 2097.95 898.776 Q2097.95 895.744 2096.21 894.216 Q2094.5 892.665 2091.12 892.665 L2085.24 892.665 Z" fill="#000000" fill-rule="nonzero" fill-opacity="1" /><path clip-path="url(#clip390)" d="M2121.23 900.443 Q2117.81 900.443 2115.82 903.128 Q2113.83 905.79 2113.83 910.443 Q2113.83 915.096 2115.79 917.781 Q2117.78 920.443 2121.23 920.443 Q2124.64 920.443 2126.63 917.758 Q2128.62 915.073 2128.62 910.443 Q2128.62 905.837 2126.63 903.151 Q2124.64 900.443 2121.23 900.443 M2121.23 896.832 Q2126.79 896.832 2129.96 900.443 Q2133.13 904.054 2133.13 910.443 Q2133.13 916.809 2129.96 920.443 Q2126.79 924.054 2121.23 924.054 Q2115.65 924.054 2112.48 920.443 Q2109.33 916.809 2109.33 910.443 Q2109.33 904.054 2112.48 900.443 Q2115.65 896.832 2121.23 896.832 Z" fill="#000000" fill-rule="nonzero" fill-opacity="1" /><path clip-path="url(#clip390)" d="M2157.25 901.392 L2157.25 887.364 L2161.51 887.364 L2161.51 923.383 L2157.25 923.383 L2157.25 919.494 Q2155.91 921.809 2153.85 922.943 Q2151.81 924.054 2148.94 924.054 Q2144.24 924.054 2141.28 920.304 Q2138.34 916.554 2138.34 910.443 Q2138.34 904.332 2141.28 900.582 Q2144.24 896.832 2148.94 896.832 Q2151.81 896.832 2153.85 897.966 Q2155.91 899.077 2157.25 901.392 M2142.74 910.443 Q2142.74 915.142 2144.66 917.827 Q2146.6 920.489 2149.98 920.489 Q2153.36 920.489 2155.31 917.827 Q2157.25 915.142 2157.25 910.443 Q2157.25 905.744 2155.31 903.082 Q2153.36 900.397 2149.98 900.397 Q2146.6 900.397 2144.66 903.082 Q2142.74 905.744 2142.74 910.443 Z" fill="#000000" fill-rule="nonzero" fill-opacity="1" /><path clip-path="url(#clip390)" d="M2182.07 910.35 Q2176.9 910.35 2174.91 911.531 Q2172.92 912.711 2172.92 915.559 Q2172.92 917.827 2174.4 919.17 Q2175.91 920.489 2178.48 920.489 Q2182.02 920.489 2184.15 917.989 Q2186.3 915.466 2186.3 911.299 L2186.3 910.35 L2182.07 910.35 M2190.56 908.591 L2190.56 923.383 L2186.3 923.383 L2186.3 919.448 Q2184.84 921.809 2182.67 922.943 Q2180.49 924.054 2177.34 924.054 Q2173.36 924.054 2171 921.832 Q2168.66 919.586 2168.66 915.836 Q2168.66 911.462 2171.58 909.239 Q2174.52 907.017 2180.33 907.017 L2186.3 907.017 L2186.3 906.6 Q2186.3 903.661 2184.36 902.063 Q2182.44 900.443 2178.94 900.443 Q2176.72 900.443 2174.61 900.975 Q2172.51 901.508 2170.56 902.573 L2170.56 898.637 Q2172.9 897.735 2175.1 897.295 Q2177.3 896.832 2179.38 896.832 Q2185.01 896.832 2187.78 899.749 Q2190.56 902.665 2190.56 908.591 Z" fill="#000000" fill-rule="nonzero" fill-opacity="1" /><path clip-path="url(#clip390)" d="M2215.86 898.221 L2215.86 902.249 Q2214.06 901.323 2212.11 900.86 Q2210.17 900.397 2208.08 900.397 Q2204.91 900.397 2203.32 901.369 Q2201.74 902.341 2201.74 904.286 Q2201.74 905.767 2202.88 906.624 Q2204.01 907.457 2207.44 908.221 L2208.89 908.545 Q2213.43 909.517 2215.33 911.299 Q2217.25 913.059 2217.25 916.23 Q2217.25 919.841 2214.38 921.948 Q2211.53 924.054 2206.53 924.054 Q2204.45 924.054 2202.18 923.637 Q2199.94 923.244 2197.44 922.434 L2197.44 918.036 Q2199.8 919.262 2202.09 919.887 Q2204.38 920.489 2206.63 920.489 Q2209.64 920.489 2211.26 919.471 Q2212.88 918.429 2212.88 916.554 Q2212.88 914.818 2211.7 913.892 Q2210.54 912.966 2206.58 912.11 L2205.1 911.762 Q2201.14 910.929 2199.38 909.216 Q2197.62 907.48 2197.62 904.471 Q2197.62 900.813 2200.21 898.823 Q2202.81 896.832 2207.58 896.832 Q2209.94 896.832 2212.02 897.179 Q2214.1 897.526 2215.86 898.221 Z" fill="#000000" fill-rule="nonzero" fill-opacity="1" /><path clip-path="url(#clip390)" d="M2224.68 888.823 L2243.04 888.823 L2243.04 892.758 L2228.96 892.758 L2228.96 901.23 Q2229.98 900.883 2231 900.721 Q2232.02 900.536 2233.04 900.536 Q2238.82 900.536 2242.2 903.707 Q2245.58 906.878 2245.58 912.295 Q2245.58 917.874 2242.11 920.975 Q2238.64 924.054 2232.32 924.054 Q2230.14 924.054 2227.88 923.684 Q2225.63 923.313 2223.22 922.573 L2223.22 917.874 Q2225.31 919.008 2227.53 919.563 Q2229.75 920.119 2232.23 920.119 Q2236.23 920.119 2238.57 918.012 Q2240.91 915.906 2240.91 912.295 Q2240.91 908.684 2238.57 906.577 Q2236.23 904.471 2232.23 904.471 Q2230.35 904.471 2228.48 904.887 Q2226.63 905.304 2224.68 906.184 L2224.68 888.823 Z" fill="#000000" fill-rule="nonzero" fill-opacity="1" /><path clip-path="url(#clip390)" d="M2259.06 892.665 L2259.06 905.651 L2264.94 905.651 Q2268.2 905.651 2269.98 903.962 Q2271.76 902.272 2271.76 899.147 Q2271.76 896.045 2269.98 894.355 Q2268.2 892.665 2264.94 892.665 L2259.06 892.665 M2254.38 888.823 L2264.94 888.823 Q2270.75 888.823 2273.71 891.462 Q2276.7 894.077 2276.7 899.147 Q2276.7 904.262 2273.71 906.878 Q2270.75 909.494 2264.94 909.494 L2259.06 909.494 L2259.06 923.383 L2254.38 923.383 L2254.38 888.823 Z" fill="#000000" fill-rule="nonzero" fill-opacity="1" /></svg>
