<?xml version="1.0" encoding="utf-8"?>
<svg xmlns="http://www.w3.org/2000/svg" xmlns:xlink="http://www.w3.org/1999/xlink" width="600" height="400" viewBox="0 0 2400 1600">
<defs>
  <clipPath id="clip460">
    <rect x="0" y="0" width="2400" height="1600"/>
  </clipPath>
</defs>
<path clip-path="url(#clip460)" d="M0 1600 L2400 1600 L2400 0 L0 0  Z" fill="#ffffff" fill-rule="evenodd" fill-opacity="1"/>
<defs>
  <clipPath id="clip461">
    <rect x="480" y="0" width="1681" height="1600"/>
  </clipPath>
</defs>
<path clip-path="url(#clip460)" d="M242.621 1423.18 L2352.76 1423.18 L2352.76 47.2441 L242.621 47.2441  Z" fill="#ffffff" fill-rule="evenodd" fill-opacity="1"/>
<defs>
  <clipPath id="clip462">
    <rect x="242" y="47" width="2111" height="1377"/>
  </clipPath>
</defs>
<polyline clip-path="url(#clip462)" style="stroke:#000000; stroke-linecap:round; stroke-linejoin:round; stroke-width:2; stroke-opacity:0.1; fill:none" points="285.613,1423.18 285.613,47.2441 "/>
<polyline clip-path="url(#clip462)" style="stroke:#000000; stroke-linecap:round; stroke-linejoin:round; stroke-width:2; stroke-opacity:0.1; fill:none" points="954.754,1423.18 954.754,47.2441 "/>
<polyline clip-path="url(#clip462)" style="stroke:#000000; stroke-linecap:round; stroke-linejoin:round; stroke-width:2; stroke-opacity:0.1; fill:none" points="1623.89,1423.18 1623.89,47.2441 "/>
<polyline clip-path="url(#clip462)" style="stroke:#000000; stroke-linecap:round; stroke-linejoin:round; stroke-width:2; stroke-opacity:0.1; fill:none" points="2293.04,1423.18 2293.04,47.2441 "/>
<polyline clip-path="url(#clip462)" style="stroke:#000000; stroke-linecap:round; stroke-linejoin:round; stroke-width:2; stroke-opacity:0.1; fill:none" points="242.621,1217.48 2352.76,1217.48 "/>
<polyline clip-path="url(#clip462)" style="stroke:#000000; stroke-linecap:round; stroke-linejoin:round; stroke-width:2; stroke-opacity:0.1; fill:none" points="242.621,964.358 2352.76,964.358 "/>
<polyline clip-path="url(#clip462)" style="stroke:#000000; stroke-linecap:round; stroke-linejoin:round; stroke-width:2; stroke-opacity:0.1; fill:none" points="242.621,711.236 2352.76,711.236 "/>
<polyline clip-path="url(#clip462)" style="stroke:#000000; stroke-linecap:round; stroke-linejoin:round; stroke-width:2; stroke-opacity:0.1; fill:none" points="242.621,458.114 2352.76,458.114 "/>
<polyline clip-path="url(#clip462)" style="stroke:#000000; stroke-linecap:round; stroke-linejoin:round; stroke-width:2; stroke-opacity:0.1; fill:none" points="242.621,204.993 2352.76,204.993 "/>
<polyline clip-path="url(#clip460)" style="stroke:#000000; stroke-linecap:round; stroke-linejoin:round; stroke-width:4; stroke-opacity:1; fill:none" points="242.621,1423.18 2352.76,1423.18 "/>
<polyline clip-path="url(#clip460)" style="stroke:#000000; stroke-linecap:round; stroke-linejoin:round; stroke-width:4; stroke-opacity:1; fill:none" points="285.613,1423.18 285.613,1404.28 "/>
<polyline clip-path="url(#clip460)" style="stroke:#000000; stroke-linecap:round; stroke-linejoin:round; stroke-width:4; stroke-opacity:1; fill:none" points="954.754,1423.18 954.754,1404.28 "/>
<polyline clip-path="url(#clip460)" style="stroke:#000000; stroke-linecap:round; stroke-linejoin:round; stroke-width:4; stroke-opacity:1; fill:none" points="1623.89,1423.18 1623.89,1404.28 "/>
<polyline clip-path="url(#clip460)" style="stroke:#000000; stroke-linecap:round; stroke-linejoin:round; stroke-width:4; stroke-opacity:1; fill:none" points="2293.04,1423.18 2293.04,1404.28 "/>
<path clip-path="url(#clip460)" d="M285.613 1454.1 Q282.002 1454.1 280.173 1457.66 Q278.368 1461.2 278.368 1468.33 Q278.368 1475.44 280.173 1479.01 Q282.002 1482.55 285.613 1482.55 Q289.247 1482.55 291.053 1479.01 Q292.882 1475.44 292.882 1468.33 Q292.882 1461.2 291.053 1457.66 Q289.247 1454.1 285.613 1454.1 M285.613 1450.39 Q291.423 1450.39 294.479 1455 Q297.557 1459.58 297.557 1468.33 Q297.557 1477.06 294.479 1481.67 Q291.423 1486.25 285.613 1486.25 Q279.803 1486.25 276.724 1481.67 Q273.669 1477.06 273.669 1468.33 Q273.669 1459.58 276.724 1455 Q279.803 1450.39 285.613 1450.39 Z" fill="#000000" fill-rule="nonzero" fill-opacity="1" /><path clip-path="url(#clip460)" d="M899.28 1481.64 L906.918 1481.64 L906.918 1455.28 L898.608 1456.95 L898.608 1452.69 L906.872 1451.02 L911.548 1451.02 L911.548 1481.64 L919.187 1481.64 L919.187 1485.58 L899.28 1485.58 L899.28 1481.64 Z" fill="#000000" fill-rule="nonzero" fill-opacity="1" /><path clip-path="url(#clip460)" d="M938.631 1454.1 Q935.02 1454.1 933.191 1457.66 Q931.386 1461.2 931.386 1468.33 Q931.386 1475.44 933.191 1479.01 Q935.02 1482.55 938.631 1482.55 Q942.265 1482.55 944.071 1479.01 Q945.9 1475.44 945.9 1468.33 Q945.9 1461.2 944.071 1457.66 Q942.265 1454.1 938.631 1454.1 M938.631 1450.39 Q944.441 1450.39 947.497 1455 Q950.576 1459.58 950.576 1468.33 Q950.576 1477.06 947.497 1481.67 Q944.441 1486.25 938.631 1486.25 Q932.821 1486.25 929.742 1481.67 Q926.687 1477.06 926.687 1468.33 Q926.687 1459.58 929.742 1455 Q932.821 1450.39 938.631 1450.39 Z" fill="#000000" fill-rule="nonzero" fill-opacity="1" /><path clip-path="url(#clip460)" d="M968.793 1454.1 Q965.182 1454.1 963.353 1457.66 Q961.548 1461.2 961.548 1468.33 Q961.548 1475.44 963.353 1479.01 Q965.182 1482.55 968.793 1482.55 Q972.427 1482.55 974.233 1479.01 Q976.061 1475.44 976.061 1468.33 Q976.061 1461.2 974.233 1457.66 Q972.427 1454.1 968.793 1454.1 M968.793 1450.39 Q974.603 1450.39 977.659 1455 Q980.737 1459.58 980.737 1468.33 Q980.737 1477.06 977.659 1481.67 Q974.603 1486.25 968.793 1486.25 Q962.983 1486.25 959.904 1481.67 Q956.849 1477.06 956.849 1468.33 Q956.849 1459.58 959.904 1455 Q962.983 1450.39 968.793 1450.39 Z" fill="#000000" fill-rule="nonzero" fill-opacity="1" /><path clip-path="url(#clip460)" d="M998.955 1454.1 Q995.344 1454.1 993.515 1457.66 Q991.71 1461.2 991.71 1468.33 Q991.71 1475.44 993.515 1479.01 Q995.344 1482.55 998.955 1482.55 Q1002.59 1482.55 1004.39 1479.01 Q1006.22 1475.44 1006.22 1468.33 Q1006.22 1461.2 1004.39 1457.66 Q1002.59 1454.1 998.955 1454.1 M998.955 1450.39 Q1004.77 1450.39 1007.82 1455 Q1010.9 1459.58 1010.9 1468.33 Q1010.9 1477.06 1007.82 1481.67 Q1004.77 1486.25 998.955 1486.25 Q993.145 1486.25 990.066 1481.67 Q987.011 1477.06 987.011 1468.33 Q987.011 1459.58 990.066 1455 Q993.145 1450.39 998.955 1450.39 Z" fill="#000000" fill-rule="nonzero" fill-opacity="1" /><path clip-path="url(#clip460)" d="M1572.51 1481.64 L1588.83 1481.64 L1588.83 1485.58 L1566.88 1485.58 L1566.88 1481.64 Q1569.54 1478.89 1574.13 1474.26 Q1578.73 1469.61 1579.91 1468.27 Q1582.16 1465.74 1583.04 1464.01 Q1583.94 1462.25 1583.94 1460.56 Q1583.94 1457.8 1582 1456.07 Q1580.08 1454.33 1576.97 1454.33 Q1574.77 1454.33 1572.32 1455.09 Q1569.89 1455.86 1567.11 1457.41 L1567.11 1452.69 Q1569.94 1451.55 1572.39 1450.97 Q1574.84 1450.39 1576.88 1450.39 Q1582.25 1450.39 1585.45 1453.08 Q1588.64 1455.77 1588.64 1460.26 Q1588.64 1462.39 1587.83 1464.31 Q1587.04 1466.2 1584.94 1468.8 Q1584.36 1469.47 1581.26 1472.69 Q1578.15 1475.88 1572.51 1481.64 Z" fill="#000000" fill-rule="nonzero" fill-opacity="1" /><path clip-path="url(#clip460)" d="M1608.64 1454.1 Q1605.03 1454.1 1603.2 1457.66 Q1601.39 1461.2 1601.39 1468.33 Q1601.39 1475.44 1603.2 1479.01 Q1605.03 1482.55 1608.64 1482.55 Q1612.27 1482.55 1614.08 1479.01 Q1615.91 1475.44 1615.91 1468.33 Q1615.91 1461.2 1614.08 1457.66 Q1612.27 1454.1 1608.64 1454.1 M1608.64 1450.39 Q1614.45 1450.39 1617.51 1455 Q1620.58 1459.58 1620.58 1468.33 Q1620.58 1477.06 1617.51 1481.67 Q1614.45 1486.25 1608.64 1486.25 Q1602.83 1486.25 1599.75 1481.67 Q1596.7 1477.06 1596.7 1468.33 Q1596.7 1459.58 1599.75 1455 Q1602.83 1450.39 1608.64 1450.39 Z" fill="#000000" fill-rule="nonzero" fill-opacity="1" /><path clip-path="url(#clip460)" d="M1638.8 1454.1 Q1635.19 1454.1 1633.36 1457.66 Q1631.56 1461.2 1631.56 1468.33 Q1631.56 1475.44 1633.36 1479.01 Q1635.19 1482.55 1638.8 1482.55 Q1642.44 1482.55 1644.24 1479.01 Q1646.07 1475.44 1646.07 1468.33 Q1646.07 1461.2 1644.24 1457.66 Q1642.44 1454.1 1638.8 1454.1 M1638.8 1450.39 Q1644.61 1450.39 1647.67 1455 Q1650.75 1459.58 1650.75 1468.33 Q1650.75 1477.06 1647.67 1481.67 Q1644.61 1486.25 1638.8 1486.25 Q1632.99 1486.25 1629.91 1481.67 Q1626.86 1477.06 1626.86 1468.33 Q1626.86 1459.58 1629.91 1455 Q1632.99 1450.39 1638.8 1450.39 Z" fill="#000000" fill-rule="nonzero" fill-opacity="1" /><path clip-path="url(#clip460)" d="M1668.96 1454.1 Q1665.35 1454.1 1663.52 1457.66 Q1661.72 1461.2 1661.72 1468.33 Q1661.72 1475.44 1663.52 1479.01 Q1665.35 1482.55 1668.96 1482.55 Q1672.6 1482.55 1674.4 1479.01 Q1676.23 1475.44 1676.23 1468.33 Q1676.23 1461.2 1674.4 1457.66 Q1672.6 1454.1 1668.96 1454.1 M1668.96 1450.39 Q1674.77 1450.39 1677.83 1455 Q1680.91 1459.58 1680.91 1468.33 Q1680.91 1477.06 1677.83 1481.67 Q1674.77 1486.25 1668.96 1486.25 Q1663.15 1486.25 1660.07 1481.67 Q1657.02 1477.06 1657.02 1468.33 Q1657.02 1459.58 1660.07 1455 Q1663.15 1450.39 1668.96 1450.39 Z" fill="#000000" fill-rule="nonzero" fill-opacity="1" /><path clip-path="url(#clip460)" d="M2251.72 1466.95 Q2255.07 1467.66 2256.95 1469.93 Q2258.85 1472.2 2258.85 1475.53 Q2258.85 1480.65 2255.33 1483.45 Q2251.81 1486.25 2245.33 1486.25 Q2243.15 1486.25 2240.84 1485.81 Q2238.54 1485.39 2236.09 1484.54 L2236.09 1480.02 Q2238.04 1481.16 2240.35 1481.74 Q2242.66 1482.32 2245.19 1482.32 Q2249.59 1482.32 2251.88 1480.58 Q2254.19 1478.84 2254.19 1475.53 Q2254.19 1472.48 2252.04 1470.77 Q2249.91 1469.03 2246.09 1469.03 L2242.06 1469.03 L2242.06 1465.19 L2246.28 1465.19 Q2249.73 1465.19 2251.55 1463.82 Q2253.38 1462.43 2253.38 1459.84 Q2253.38 1457.18 2251.48 1455.77 Q2249.61 1454.33 2246.09 1454.33 Q2244.17 1454.33 2241.97 1454.75 Q2239.77 1455.16 2237.13 1456.04 L2237.13 1451.88 Q2239.79 1451.14 2242.11 1450.77 Q2244.45 1450.39 2246.51 1450.39 Q2251.83 1450.39 2254.93 1452.83 Q2258.04 1455.23 2258.04 1459.35 Q2258.04 1462.22 2256.39 1464.21 Q2254.75 1466.18 2251.72 1466.95 Z" fill="#000000" fill-rule="nonzero" fill-opacity="1" /><path clip-path="url(#clip460)" d="M2277.71 1454.1 Q2274.1 1454.1 2272.27 1457.66 Q2270.47 1461.2 2270.47 1468.33 Q2270.47 1475.44 2272.27 1479.01 Q2274.1 1482.55 2277.71 1482.55 Q2281.35 1482.55 2283.15 1479.01 Q2284.98 1475.44 2284.98 1468.33 Q2284.98 1461.2 2283.15 1457.66 Q2281.35 1454.1 2277.71 1454.1 M2277.71 1450.39 Q2283.52 1450.39 2286.58 1455 Q2289.66 1459.58 2289.66 1468.33 Q2289.66 1477.06 2286.58 1481.67 Q2283.52 1486.25 2277.71 1486.25 Q2271.9 1486.25 2268.82 1481.67 Q2265.77 1477.06 2265.77 1468.33 Q2265.77 1459.58 2268.82 1455 Q2271.9 1450.39 2277.71 1450.39 Z" fill="#000000" fill-rule="nonzero" fill-opacity="1" /><path clip-path="url(#clip460)" d="M2307.87 1454.1 Q2304.26 1454.1 2302.43 1457.66 Q2300.63 1461.2 2300.63 1468.33 Q2300.63 1475.44 2302.43 1479.01 Q2304.26 1482.55 2307.87 1482.55 Q2311.51 1482.55 2313.31 1479.01 Q2315.14 1475.44 2315.14 1468.33 Q2315.14 1461.2 2313.31 1457.66 Q2311.51 1454.1 2307.87 1454.1 M2307.87 1450.39 Q2313.68 1450.39 2316.74 1455 Q2319.82 1459.58 2319.82 1468.33 Q2319.82 1477.06 2316.74 1481.67 Q2313.68 1486.25 2307.87 1486.25 Q2302.06 1486.25 2298.98 1481.67 Q2295.93 1477.06 2295.93 1468.33 Q2295.93 1459.58 2298.98 1455 Q2302.06 1450.39 2307.87 1450.39 Z" fill="#000000" fill-rule="nonzero" fill-opacity="1" /><path clip-path="url(#clip460)" d="M2338.03 1454.1 Q2334.42 1454.1 2332.6 1457.66 Q2330.79 1461.2 2330.79 1468.33 Q2330.79 1475.44 2332.6 1479.01 Q2334.42 1482.55 2338.03 1482.55 Q2341.67 1482.55 2343.47 1479.01 Q2345.3 1475.44 2345.3 1468.33 Q2345.3 1461.2 2343.47 1457.66 Q2341.67 1454.1 2338.03 1454.1 M2338.03 1450.39 Q2343.85 1450.39 2346.9 1455 Q2349.98 1459.58 2349.98 1468.33 Q2349.98 1477.06 2346.9 1481.67 Q2343.85 1486.25 2338.03 1486.25 Q2332.22 1486.25 2329.15 1481.67 Q2326.09 1477.06 2326.09 1468.33 Q2326.09 1459.58 2329.15 1455 Q2332.22 1450.39 2338.03 1450.39 Z" fill="#000000" fill-rule="nonzero" fill-opacity="1" /><path clip-path="url(#clip460)" d="M1294.76 1518.52 L1300.62 1518.52 L1300.62 1568.04 L1294.76 1568.04 L1294.76 1518.52 Z" fill="#000000" fill-rule="nonzero" fill-opacity="1" /><polyline clip-path="url(#clip460)" style="stroke:#000000; stroke-linecap:round; stroke-linejoin:round; stroke-width:4; stroke-opacity:1; fill:none" points="242.621,1423.18 242.621,47.2441 "/>
<polyline clip-path="url(#clip460)" style="stroke:#000000; stroke-linecap:round; stroke-linejoin:round; stroke-width:4; stroke-opacity:1; fill:none" points="242.621,1217.48 261.518,1217.48 "/>
<polyline clip-path="url(#clip460)" style="stroke:#000000; stroke-linecap:round; stroke-linejoin:round; stroke-width:4; stroke-opacity:1; fill:none" points="242.621,964.358 261.518,964.358 "/>
<polyline clip-path="url(#clip460)" style="stroke:#000000; stroke-linecap:round; stroke-linejoin:round; stroke-width:4; stroke-opacity:1; fill:none" points="242.621,711.236 261.518,711.236 "/>
<polyline clip-path="url(#clip460)" style="stroke:#000000; stroke-linecap:round; stroke-linejoin:round; stroke-width:4; stroke-opacity:1; fill:none" points="242.621,458.114 261.518,458.114 "/>
<polyline clip-path="url(#clip460)" style="stroke:#000000; stroke-linecap:round; stroke-linejoin:round; stroke-width:4; stroke-opacity:1; fill:none" points="242.621,204.993 261.518,204.993 "/>
<path clip-path="url(#clip460)" d="M114.839 1217.93 L144.515 1217.93 L144.515 1221.87 L114.839 1221.87 L114.839 1217.93 Z" fill="#000000" fill-rule="nonzero" fill-opacity="1" /><path clip-path="url(#clip460)" d="M155.417 1230.82 L163.056 1230.82 L163.056 1204.46 L154.746 1206.13 L154.746 1201.87 L163.01 1200.2 L167.686 1200.2 L167.686 1230.82 L175.325 1230.82 L175.325 1234.76 L155.417 1234.76 L155.417 1230.82 Z" fill="#000000" fill-rule="nonzero" fill-opacity="1" /><path clip-path="url(#clip460)" d="M194.769 1218.35 Q191.436 1218.35 189.514 1220.13 Q187.616 1221.91 187.616 1225.04 Q187.616 1228.16 189.514 1229.94 Q191.436 1231.73 194.769 1231.73 Q198.102 1231.73 200.024 1229.94 Q201.945 1228.14 201.945 1225.04 Q201.945 1221.91 200.024 1220.13 Q198.125 1218.35 194.769 1218.35 M190.093 1216.36 Q187.084 1215.62 185.394 1213.56 Q183.727 1211.5 183.727 1208.53 Q183.727 1204.39 186.667 1201.98 Q189.63 1199.57 194.769 1199.57 Q199.931 1199.57 202.871 1201.98 Q205.811 1204.39 205.811 1208.53 Q205.811 1211.5 204.121 1213.56 Q202.454 1215.62 199.468 1216.36 Q202.848 1217.14 204.723 1219.44 Q206.621 1221.73 206.621 1225.04 Q206.621 1230.06 203.542 1232.75 Q200.487 1235.43 194.769 1235.43 Q189.051 1235.43 185.973 1232.75 Q182.917 1230.06 182.917 1225.04 Q182.917 1221.73 184.815 1219.44 Q186.713 1217.14 190.093 1216.36 M188.38 1208.97 Q188.38 1211.66 190.047 1213.16 Q191.737 1214.67 194.769 1214.67 Q197.778 1214.67 199.468 1213.16 Q201.181 1211.66 201.181 1208.97 Q201.181 1206.29 199.468 1204.78 Q197.778 1203.28 194.769 1203.28 Q191.737 1203.28 190.047 1204.78 Q188.38 1206.29 188.38 1208.97 Z" fill="#000000" fill-rule="nonzero" fill-opacity="1" /><path clip-path="url(#clip460)" d="M114.584 964.809 L144.26 964.809 L144.26 968.744 L114.584 968.744 L114.584 964.809 Z" fill="#000000" fill-rule="nonzero" fill-opacity="1" /><path clip-path="url(#clip460)" d="M155.163 977.702 L162.802 977.702 L162.802 951.337 L154.491 953.004 L154.491 948.744 L162.755 947.078 L167.431 947.078 L167.431 977.702 L175.07 977.702 L175.07 981.638 L155.163 981.638 L155.163 977.702 Z" fill="#000000" fill-rule="nonzero" fill-opacity="1" /><path clip-path="url(#clip460)" d="M195.093 962.494 Q191.945 962.494 190.093 964.647 Q188.264 966.8 188.264 970.55 Q188.264 974.277 190.093 976.452 Q191.945 978.605 195.093 978.605 Q198.241 978.605 200.07 976.452 Q201.922 974.277 201.922 970.55 Q201.922 966.8 200.07 964.647 Q198.241 962.494 195.093 962.494 M204.375 947.842 L204.375 952.101 Q202.616 951.267 200.811 950.828 Q199.028 950.388 197.269 950.388 Q192.639 950.388 190.186 953.513 Q187.755 956.638 187.408 962.957 Q188.774 960.943 190.834 959.878 Q192.894 958.791 195.371 958.791 Q200.579 958.791 203.588 961.962 Q206.621 965.11 206.621 970.55 Q206.621 975.874 203.473 979.091 Q200.325 982.309 195.093 982.309 Q189.098 982.309 185.926 977.726 Q182.755 973.119 182.755 964.392 Q182.755 956.198 186.644 951.337 Q190.533 946.453 197.084 946.453 Q198.843 946.453 200.625 946.8 Q202.431 947.147 204.375 947.842 Z" fill="#000000" fill-rule="nonzero" fill-opacity="1" /><path clip-path="url(#clip460)" d="M114.26 711.687 L143.936 711.687 L143.936 715.623 L114.26 715.623 L114.26 711.687 Z" fill="#000000" fill-rule="nonzero" fill-opacity="1" /><path clip-path="url(#clip460)" d="M154.839 724.581 L162.477 724.581 L162.477 698.215 L154.167 699.882 L154.167 695.623 L162.431 693.956 L167.107 693.956 L167.107 724.581 L174.746 724.581 L174.746 728.516 L154.839 728.516 L154.839 724.581 Z" fill="#000000" fill-rule="nonzero" fill-opacity="1" /><path clip-path="url(#clip460)" d="M197.037 698.03 L185.232 716.479 L197.037 716.479 L197.037 698.03 M195.811 693.956 L201.69 693.956 L201.69 716.479 L206.621 716.479 L206.621 720.368 L201.69 720.368 L201.69 728.516 L197.037 728.516 L197.037 720.368 L181.436 720.368 L181.436 715.854 L195.811 693.956 Z" fill="#000000" fill-rule="nonzero" fill-opacity="1" /><path clip-path="url(#clip460)" d="M116.343 458.566 L146.019 458.566 L146.019 462.501 L116.343 462.501 L116.343 458.566 Z" fill="#000000" fill-rule="nonzero" fill-opacity="1" /><path clip-path="url(#clip460)" d="M156.922 471.459 L164.561 471.459 L164.561 445.094 L156.251 446.76 L156.251 442.501 L164.515 440.834 L169.19 440.834 L169.19 471.459 L176.829 471.459 L176.829 475.394 L156.922 475.394 L156.922 471.459 Z" fill="#000000" fill-rule="nonzero" fill-opacity="1" /><path clip-path="url(#clip460)" d="M190.301 471.459 L206.621 471.459 L206.621 475.394 L184.676 475.394 L184.676 471.459 Q187.338 468.705 191.922 464.075 Q196.528 459.422 197.709 458.08 Q199.954 455.556 200.834 453.82 Q201.737 452.061 201.737 450.371 Q201.737 447.617 199.792 445.881 Q197.871 444.144 194.769 444.144 Q192.57 444.144 190.116 444.908 Q187.686 445.672 184.908 447.223 L184.908 442.501 Q187.732 441.367 190.186 440.788 Q192.639 440.209 194.676 440.209 Q200.047 440.209 203.241 442.894 Q206.436 445.58 206.436 450.07 Q206.436 452.2 205.625 454.121 Q204.838 456.019 202.732 458.612 Q202.153 459.283 199.051 462.501 Q195.95 465.695 190.301 471.459 Z" fill="#000000" fill-rule="nonzero" fill-opacity="1" /><path clip-path="url(#clip460)" d="M114.746 205.444 L144.422 205.444 L144.422 209.379 L114.746 209.379 L114.746 205.444 Z" fill="#000000" fill-rule="nonzero" fill-opacity="1" /><path clip-path="url(#clip460)" d="M155.325 218.338 L162.964 218.338 L162.964 191.972 L154.653 193.639 L154.653 189.379 L162.917 187.713 L167.593 187.713 L167.593 218.338 L175.232 218.338 L175.232 222.273 L155.325 222.273 L155.325 218.338 Z" fill="#000000" fill-rule="nonzero" fill-opacity="1" /><path clip-path="url(#clip460)" d="M194.676 190.791 Q191.065 190.791 189.237 194.356 Q187.431 197.898 187.431 205.027 Q187.431 212.134 189.237 215.699 Q191.065 219.24 194.676 219.24 Q198.311 219.24 200.116 215.699 Q201.945 212.134 201.945 205.027 Q201.945 197.898 200.116 194.356 Q198.311 190.791 194.676 190.791 M194.676 187.088 Q200.487 187.088 203.542 191.694 Q206.621 196.277 206.621 205.027 Q206.621 213.754 203.542 218.361 Q200.487 222.944 194.676 222.944 Q188.866 222.944 185.788 218.361 Q182.732 213.754 182.732 205.027 Q182.732 196.277 185.788 191.694 Q188.866 187.088 194.676 187.088 Z" fill="#000000" fill-rule="nonzero" fill-opacity="1" /><path clip-path="url(#clip460)" d="M14.479 815.022 L14.479 809.166 L64.0042 809.166 L64.0042 815.022 L14.479 815.022 Z" fill="#000000" fill-rule="nonzero" fill-opacity="1" /><path clip-path="url(#clip460)" d="M45.7664 773.454 Q39.4007 773.454 35.8996 776.096 Q32.3984 778.706 32.3984 783.448 Q32.3984 788.159 35.8996 790.801 Q39.4007 793.41 45.7664 793.41 Q52.1003 793.41 55.6014 790.801 Q59.1026 788.159 59.1026 783.448 Q59.1026 778.706 55.6014 776.096 Q52.1003 773.454 45.7664 773.454 M59.58 767.598 Q68.683 767.598 73.1071 771.64 Q77.5631 775.682 77.5631 784.021 Q77.5631 787.108 77.0857 789.846 Q76.6401 792.583 75.6852 795.161 L69.9879 795.161 Q71.3884 792.583 72.0568 790.068 Q72.7252 787.554 72.7252 784.944 Q72.7252 779.183 69.7015 776.319 Q66.7096 773.454 60.6303 773.454 L57.7339 773.454 Q60.885 775.268 62.4446 778.101 Q64.0042 780.934 64.0042 784.88 Q64.0042 791.437 59.0071 795.447 Q54.01 799.458 45.7664 799.458 Q37.491 799.458 32.4939 795.447 Q27.4968 791.437 27.4968 784.88 Q27.4968 780.934 29.0564 778.101 Q30.616 775.268 33.7671 773.454 L28.3562 773.454 L28.3562 767.598 L59.58 767.598 Z" fill="#000000" fill-rule="nonzero" fill-opacity="1" /><path clip-path="url(#clip460)" d="M14.5426 741.466 Q21.8632 745.731 29.0246 747.8 Q36.186 749.869 43.5384 749.869 Q50.8908 749.869 58.1159 747.8 Q65.3091 745.699 72.5979 741.466 L72.5979 746.559 Q65.1182 751.333 57.8931 753.72 Q50.668 756.076 43.5384 756.076 Q36.4406 756.076 29.2474 753.72 Q22.0542 751.365 14.5426 746.559 L14.5426 741.466 Z" fill="#000000" fill-rule="nonzero" fill-opacity="1" /><path clip-path="url(#clip460)" d="M21.7677 723.419 L58.7206 723.419 L58.7206 715.653 Q58.7206 705.818 54.2646 701.267 Q49.8086 696.684 40.1964 696.684 Q30.6479 696.684 26.2237 701.267 Q21.7677 705.818 21.7677 715.653 L21.7677 723.419 M16.4842 729.849 L16.4842 716.64 Q16.4842 702.826 22.2451 696.365 Q27.9743 689.904 40.1964 689.904 Q52.4822 689.904 58.2432 696.397 Q64.0042 702.89 64.0042 716.64 L64.0042 729.849 L16.4842 729.849 Z" fill="#000000" fill-rule="nonzero" fill-opacity="1" /><path clip-path="url(#clip460)" d="M36.2815 682.17 L36.2815 678.478 L64.0042 678.478 L64.0042 682.17 L36.2815 682.17 Z" fill="#000000" fill-rule="nonzero" fill-opacity="1" /><path clip-path="url(#clip460)" d="M14.5426 670.011 L14.5426 664.919 Q22.0542 660.144 29.2474 657.789 Q36.4406 655.402 43.5384 655.402 Q50.668 655.402 57.8931 657.789 Q65.1182 660.144 72.5979 664.919 L72.5979 670.011 Q65.3091 665.778 58.1159 663.709 Q50.8908 661.608 43.5384 661.608 Q36.186 661.608 29.0246 663.709 Q21.8632 665.778 14.5426 670.011 Z" fill="#000000" fill-rule="nonzero" fill-opacity="1" /><polyline clip-path="url(#clip462)" style="stroke:#009af9; stroke-linecap:round; stroke-linejoin:round; stroke-width:4; stroke-opacity:1; fill:none" points="302.342,189.456 319.07,166.689 335.799,146.99 352.527,130.003 369.256,115.485 385.984,103.672 402.713,94.7461 419.441,88.8884 436.17,86.1857 452.898,86.6333 469.627,90.2562 486.355,96.9693 503.084,106.601 519.812,118.664 536.541,132.039 553.269,144.487 569.998,152.833 586.726,154.746 603.455,150.98 620.183,144.555 636.912,138.341 653.64,133.987 670.369,132.217 687.097,133.161 703.826,136.628 720.555,142.055 737.283,148.478 754.012,154.425 770.74,158.215 787.469,158.679 804.197,155.933 820.926,151.253 837.654,146.258 854.383,142.245 871.111,140.027 887.84,140.042 904.568,142.47 921.297,147.318 938.025,154.393 954.754,163.243 971.482,172.993 988.211,182.238 1004.94,189.189 1021.67,192.444 1038.4,191.917 1055.12,188.922 1071.85,185.215 1088.58,182.24 1105.31,180.875 1122.04,181.547 1138.77,184.35 1155.5,189.13 1172.22,195.472 1188.95,202.574 1205.68,209.322 1222.41,214.457 1239.14,216.958 1255.87,216.707 1272.6,214.496 1289.32,211.561 1306.05,209.049 1322.78,207.81 1339.51,208.286 1356.24,210.691 1372.97,215.055 1389.7,221.187 1406.42,228.639 1423.15,236.72 1439.88,244.388 1456.61,250.448 1473.34,254.025 1490.07,254.969 1506.79,253.983 1523.52,252.217 1540.25,250.734 1556.98,250.271 1573.71,251.292 1590.44,253.949 1607.17,258.153 1623.89,263.61 1640.62,269.816 1657.35,275.976 1674.08,281.218 1690.81,284.8 1707.54,286.399 1724.27,286.323 1740.99,285.336 1757.72,284.252 1774.45,283.827 1791.18,284.562 1807.91,286.713 1824.64,290.356 1841.37,295.415 1858.09,301.577 1874.82,308.358 1891.55,315.077 1908.28,320.937 1925.01,325.247 1941.74,327.747 1958.46,328.641 1975.19,328.562 1991.92,328.292 2008.65,328.48 2025.38,329.564 2042.11,331.812 2058.84,335.258 2075.56,339.735 2092.29,344.951 2109.02,350.421 2125.75,355.543 2142.48,359.767 2159.21,362.734 2175.94,364.383 2192.66,365.07 2209.39,365.316 2226.12,365.68 2242.85,366.646 2259.58,368.557 2276.31,371.541 2293.04,375.633 "/>
<polyline clip-path="url(#clip462)" style="stroke:#e26f46; stroke-linecap:round; stroke-linejoin:round; stroke-width:4; stroke-opacity:1; fill:none" points="302.342,826.539 319.07,696.797 335.799,629.271 352.527,590.259 369.256,569.678 385.984,564.098 402.713,571.167 419.441,585.36 436.17,580.774 452.898,541.604 469.627,497.149 486.355,460.881 503.084,433.276 519.812,413.013 536.541,399.026 553.269,390.669 569.998,387.608 586.726,389.815 603.455,397.453 620.183,410.743 636.912,429.26 653.64,449.387 670.369,459.563 687.097,448.631 703.826,425.443 720.555,402.672 737.283,384.755 754.012,372.308 770.74,365.064 787.469,362.732 804.197,365.164 820.926,372.334 837.654,384.227 854.383,400.345 871.111,418.387 887.84,431.716 904.568,431.253 921.297,417.36 938.025,399.2 954.754,383.072 971.482,371.061 988.211,363.522 1004.94,360.383 1021.67,361.511 1038.4,366.862 1055.12,376.413 1071.85,390.003 1088.58,406.799 1105.31,424.015 1122.04,435.45 1138.77,434.769 1155.5,423.632 1172.22,409.261 1188.95,396.592 1205.68,387.485 1222.41,382.371 1239.14,381.313 1255.87,384.246 1272.6,391.057 1289.32,401.588 1306.05,415.364 1322.78,430.858 1339.51,444.509 1356.24,450.962 1372.97,447.382 1389.7,437.101 1406.42,425.421 1423.15,415.57 1439.88,408.882 1456.61,405.782 1473.34,406.293 1490.07,410.38 1506.79,417.994 1523.52,428.934 1540.25,442.576 1556.98,457.441 1573.71,470.355 1590.44,476.948 1607.17,475.073 1623.89,467.246 1640.62,457.783 1657.35,449.709 1674.08,444.358 1690.81,442.208 1707.54,443.405 1724.27,447.94 1740.99,455.648 1757.72,466.211 1774.45,478.892 1791.18,491.968 1807.91,502.513 1824.64,507.296 1841.37,505.239 1858.09,498.685 1874.82,490.974 1891.55,484.441 1908.28,480.285 1925.01,479.027 1941.74,480.782 1958.46,485.542 1975.19,493.216 1991.92,503.472 2008.65,515.572 2025.38,528.072 2042.11,538.552 2058.84,544.272 2075.56,544.154 2092.29,539.691 2109.02,533.649 2125.75,528.304 2142.48,524.911 2159.21,524.017 2175.94,525.888 2192.66,530.535 2209.39,537.77 2226.12,547.229 2242.85,558.174 2259.58,569.174 2276.31,578.146 2293.04,583.039 "/>
<polyline clip-path="url(#clip462)" style="stroke:#3da44d; stroke-linecap:round; stroke-linejoin:round; stroke-width:4; stroke-opacity:1; fill:none" points="302.342,546.637 319.07,614.917 335.799,457.521 352.527,399.01 369.256,369.127 385.984,356.188 402.713,358.564 419.441,385.528 436.17,483.681 452.898,357.188 469.627,321.33 486.355,303.681 503.084,296.802 519.812,299.124 536.541,311.939 553.269,341.976 569.998,447.56 586.726,365.026 603.455,329.72 620.183,318.902 636.912,321.899 653.64,338.779 670.369,380.116 687.097,481.109 703.826,378.165 720.555,362.142 737.283,374.807 754.012,462.677 770.74,376.9 787.469,330.487 804.197,308.437 820.926,298.107 837.654,296.429 854.383,302.995 871.111,319.653 887.84,353.836 904.568,477.084 921.297,377.803 938.025,347.418 954.754,341.46 971.482,351.932 988.211,387.474 1004.94,477.748 1021.67,368.575 1038.4,339.237 1055.12,327.107 1071.85,325.088 1088.58,331.527 1105.31,347.105 1122.04,375.638 1138.77,433.887 1155.5,482.925 1172.22,429.636 1188.95,437.777 1205.68,583.757 1222.41,420.355 1239.14,377.654 1255.87,356.321 1272.6,345.774 1289.32,342.977 1306.05,347.089 1322.78,358.506 1339.51,379.157 1356.24,415.624 1372.97,510.42 1389.7,467.973 1406.42,441.96 1423.15,451.491 1439.88,520.702 1456.61,467.577 1473.34,417.837 1490.07,395.222 1506.79,384.419 1523.52,381.604 1540.25,385.372 1556.98,395.582 1573.71,412.951 1590.44,439.29 1607.17,478.36 1623.89,535.845 1640.62,575.378 1657.35,524.334 1674.08,477.148 1690.81,446.821 1707.54,427.776 1724.27,416.83 1740.99,412.278 1757.72,413.304 1774.45,419.819 1791.18,432.119 1807.91,451.189 1824.64,479.31 1841.37,521.244 1858.09,587.407 1874.82,652.233 1891.55,581.359 1908.28,526.608 1925.01,494.179 1941.74,474.419 1958.46,462.998 1975.19,458.015 1991.92,458.486 2008.65,463.921 2025.38,474.193 2042.11,489.381 2058.84,509.144 2075.56,531.779 2092.29,551.2 2109.02,556.514 2125.75,545.632 2142.48,528.916 2159.21,513.852 2175.94,503.02 2192.66,496.833 2209.39,495.1 2226.12,497.669 2242.85,504.596 2259.58,515.971 2276.31,531.959 2293.04,552.725 "/>
<polyline clip-path="url(#clip462)" style="stroke:#c271d2; stroke-linecap:round; stroke-linejoin:round; stroke-width:4; stroke-opacity:1; fill:none" points="302.342,171.727 319.07,250.036 335.799,302.807 352.527,343.926 369.256,378.015 385.984,407.23 402.713,432.786 419.441,455.462 436.17,475.811 452.898,494.247 469.627,511.1 486.355,526.632 503.084,541.059 519.812,554.552 536.541,567.253 553.269,579.272 569.998,590.698 586.726,601.602 603.455,612.037 620.183,622.048 636.912,631.667 653.64,640.922 670.369,649.834 687.097,658.421 703.826,666.701 720.555,674.687 737.283,682.395 754.012,689.839 770.74,697.034 787.469,703.995 804.197,710.737 820.926,717.273 837.654,723.619 854.383,729.788 871.111,735.793 887.84,741.646 904.568,747.356 921.297,752.934 938.025,758.387 954.754,763.723 971.482,768.947 988.211,774.064 1004.94,779.078 1021.67,783.994 1038.4,788.813 1055.12,793.538 1071.85,798.171 1088.58,802.716 1105.31,807.173 1122.04,811.546 1138.77,815.836 1155.5,820.046 1172.22,824.178 1188.95,828.236 1205.68,832.222 1222.41,836.139 1239.14,839.989 1255.87,843.776 1272.6,847.502 1289.32,851.17 1306.05,854.782 1322.78,858.34 1339.51,861.847 1356.24,865.303 1372.97,868.712 1389.7,872.074 1406.42,875.391 1423.15,878.663 1439.88,881.891 1456.61,885.077 1473.34,888.222 1490.07,891.325 1506.79,894.388 1523.52,897.412 1540.25,900.397 1556.98,903.344 1573.71,906.254 1590.44,909.128 1607.17,911.966 1623.89,914.77 1640.62,917.54 1657.35,920.278 1674.08,922.983 1690.81,925.658 1707.54,928.302 1724.27,930.917 1740.99,933.503 1757.72,936.062 1774.45,938.594 1791.18,941.098 1807.91,943.578 1824.64,946.031 1841.37,948.46 1858.09,950.864 1874.82,953.245 1891.55,955.601 1908.28,957.935 1925.01,960.246 1941.74,962.534 1958.46,964.8 1975.19,967.045 1991.92,969.268 2008.65,971.47 2025.38,973.652 2042.11,975.813 2058.84,977.955 2075.56,980.077 2092.29,982.179 2109.02,984.263 2125.75,986.329 2142.48,988.377 2159.21,990.407 2175.94,992.42 2192.66,994.415 2209.39,996.394 2226.12,998.357 2242.85,1000.3 2259.58,1002.23 2276.31,1004.15 2293.04,1006.05 "/>
<polyline clip-path="url(#clip462)" style="stroke:#ac8d18; stroke-linecap:round; stroke-linejoin:round; stroke-width:4; stroke-opacity:1; fill:none" points="302.342,298.074 319.07,366.72 335.799,409.928 352.527,441.763 369.256,467.242 385.984,488.746 402.713,507.401 419.441,524.377 436.17,540.689 452.898,556.579 469.627,572.927 486.355,589.42 503.084,607.061 519.812,625.96 536.541,646.014 553.269,667.002 569.998,688.989 586.726,713.554 603.455,741.777 620.183,775.519 636.912,812.748 653.64,851.476 670.369,857.986 687.097,845.708 703.826,827.595 720.555,810.233 737.283,796.226 754.012,783.689 770.74,775.229 787.469,769.609 804.197,766.216 820.926,764.424 837.654,765.244 854.383,767.415 871.111,771.393 887.84,776.104 904.568,782.215 921.297,790.016 938.025,799.709 954.754,811.57 971.482,825.404 988.211,841.445 1004.94,859.903 1021.67,882.587 1038.4,910.336 1055.12,952.682 1071.85,1022.84 1088.58,1082.61 1105.31,1023.87 1122.04,1175.98 1138.77,1028.17 1155.5,986.911 1172.22,952.693 1188.95,927.812 1205.68,914.141 1222.41,905.886 1239.14,899.407 1255.87,892.452 1272.6,888.977 1289.32,889.712 1306.05,891.456 1322.78,893.381 1339.51,896.344 1356.24,902.254 1372.97,909.731 1389.7,917.058 1406.42,925.73 1423.15,938.221 1439.88,953.238 1456.61,966.18 1473.34,979.298 1490.07,998.04 1506.79,1022.45 1523.52,1035.84 1540.25,1036.25 1556.98,1040.69 1573.71,1041.84 1590.44,1030.55 1607.17,1014.73 1623.89,1005.86 1640.62,1000.85 1657.35,993.331 1674.08,985.312 1690.81,981.156 1707.54,980.451 1724.27,979.638 1740.99,978.059 1757.72,978.616 1774.45,982.336 1791.18,986.579 1807.91,989.616 1824.64,994.379 1841.37,1002.02 1858.09,1010.42 1874.82,1017.1 1891.55,1024.98 1908.28,1035.3 1925.01,1045.29 1941.74,1052.89 1958.46,1058.63 1975.19,1065.99 1991.92,1071.14 2008.65,1069.83 2025.38,1066.49 2042.11,1066.07 2058.84,1064.69 2075.56,1058.97 2092.29,1054.2 2109.02,1052.79 2125.75,1052.48 2142.48,1049.81 2159.21,1046.94 2175.94,1047.31 2192.66,1049.98 2209.39,1051.38 2226.12,1051.79 2242.85,1054.46 2259.58,1059.92 2276.31,1064.89 2293.04,1068.29 "/>
<polyline clip-path="url(#clip462)" style="stroke:#00a9ad; stroke-linecap:round; stroke-linejoin:round; stroke-width:4; stroke-opacity:1; fill:none" points="302.342,727.796 319.07,861.716 335.799,804.466 352.527,785.517 369.256,787.965 385.984,807.785 402.713,831.944 419.441,873.676 436.17,949.191 452.898,856.081 469.627,828.279 486.355,814.155 503.084,807.053 519.812,804.109 536.541,804.581 553.269,806.519 569.998,810.485 586.726,816.879 603.455,825.955 620.183,838.306 636.912,855.2 653.64,878.532 670.369,916.331 687.097,1033.48 703.826,942.826 720.555,905.519 737.283,888.597 754.012,880.115 770.74,876.674 787.469,877.193 804.197,881.1 820.926,888.35 837.654,899.816 854.383,915.855 871.111,938.648 887.84,977.607 904.568,1126.82 921.297,993.14 938.025,958.604 954.754,942.119 971.482,933.74 988.211,930.42 1004.94,931.034 1021.67,934.144 1038.4,939.787 1055.12,948.552 1071.85,960.694 1088.58,978.18 1105.31,1005.43 1122.04,1057.27 1138.77,1141.53 1155.5,1042.59 1172.22,1011.16 1188.95,995.833 1205.68,989.985 1222.41,988.323 1239.14,988.379 1255.87,991.447 1272.6,999.063 1289.32,1010.85 1306.05,1025.27 1322.78,1046.47 1339.51,1086.54 1356.24,1288.39 1372.97,1097.85 1389.7,1067.8 1406.42,1049.47 1423.15,1038.38 1439.88,1034.33 1456.61,1035.16 1473.34,1037.55 1490.07,1041.22 1506.79,1049.4 1523.52,1062.54 1540.25,1078.67 1556.98,1098.99 1573.71,1137.96 1590.44,1264.08 1607.17,1140.8 1623.89,1115.85 1640.62,1101.3 1657.35,1090.34 1674.08,1085.86 1690.81,1087.3 1707.54,1091.19 1724.27,1096.04 1740.99,1104.92 1757.72,1121.28 1774.45,1145.18 1791.18,1177.4 1807.91,1251.7 1824.64,1205.07 1841.37,1161.13 1858.09,1145.54 1874.82,1137.25 1891.55,1130.87 1908.28,1128.2 1925.01,1130.75 1941.74,1136.14 1958.46,1142.67 1975.19,1151.06 1991.92,1166.92 2008.65,1191.33 2025.38,1223.23 2042.11,1290.78 2058.84,1260.32 2075.56,1210.75 2092.29,1195.59 2109.02,1190.04 2125.75,1184.02 2142.48,1179.69 2159.21,1181.85 2175.94,1191.15 2192.66,1200.78 2209.39,1209.72 2226.12,1226.32 2242.85,1264.47 2259.58,1384.24 2276.31,1305.73 2293.04,1262.81 "/>
<path clip-path="url(#clip460)" d="M312.959 1377.32 L581.75 1377.32 L581.75 1014.44 L312.959 1014.44  Z" fill="#ffffff" fill-rule="evenodd" fill-opacity="1"/>
<polyline clip-path="url(#clip460)" style="stroke:#000000; stroke-linecap:round; stroke-linejoin:round; stroke-width:4; stroke-opacity:1; fill:none" points="312.959,1377.32 581.75,1377.32 581.75,1014.44 312.959,1014.44 312.959,1377.32 "/>
<polyline clip-path="url(#clip460)" style="stroke:#009af9; stroke-linecap:round; stroke-linejoin:round; stroke-width:4; stroke-opacity:1; fill:none" points="336.405,1066.28 477.08,1066.28 "/>
<path clip-path="url(#clip460)" d="M500.526 1049 L529.762 1049 L529.762 1052.93 L517.494 1052.93 L517.494 1083.56 L512.795 1083.56 L512.795 1052.93 L500.526 1052.93 L500.526 1049 Z" fill="#000000" fill-rule="nonzero" fill-opacity="1" /><path clip-path="url(#clip460)" d="M528.651 1049 L557.887 1049 L557.887 1052.93 L545.619 1052.93 L545.619 1083.56 L540.919 1083.56 L540.919 1052.93 L528.651 1052.93 L528.651 1049 Z" fill="#000000" fill-rule="nonzero" fill-opacity="1" /><polyline clip-path="url(#clip460)" style="stroke:#e26f46; stroke-linecap:round; stroke-linejoin:round; stroke-width:4; stroke-opacity:1; fill:none" points="336.405,1118.12 477.08,1118.12 "/>
<path clip-path="url(#clip460)" d="M500.526 1100.84 L522.378 1100.84 L522.378 1104.77 L505.202 1104.77 L505.202 1115 L521.66 1115 L521.66 1118.94 L505.202 1118.94 L505.202 1131.46 L522.795 1131.46 L522.795 1135.4 L500.526 1135.4 L500.526 1100.84 Z" fill="#000000" fill-rule="nonzero" fill-opacity="1" /><path clip-path="url(#clip460)" d="M530.48 1100.84 L552.331 1100.84 L552.331 1104.77 L535.156 1104.77 L535.156 1115 L551.614 1115 L551.614 1118.94 L535.156 1118.94 L535.156 1131.46 L552.748 1131.46 L552.748 1135.4 L530.48 1135.4 L530.48 1100.84 Z" fill="#000000" fill-rule="nonzero" fill-opacity="1" /><polyline clip-path="url(#clip460)" style="stroke:#3da44d; stroke-linecap:round; stroke-linejoin:round; stroke-width:4; stroke-opacity:1; fill:none" points="336.405,1169.96 477.08,1169.96 "/>
<path clip-path="url(#clip460)" d="M500.526 1152.68 L529.762 1152.68 L529.762 1156.61 L517.494 1156.61 L517.494 1187.24 L512.795 1187.24 L512.795 1156.61 L500.526 1156.61 L500.526 1152.68 Z" fill="#000000" fill-rule="nonzero" fill-opacity="1" /><path clip-path="url(#clip460)" d="M534.276 1152.68 L556.128 1152.68 L556.128 1156.61 L538.952 1156.61 L538.952 1166.84 L555.41 1166.84 L555.41 1170.78 L538.952 1170.78 L538.952 1183.3 L556.544 1183.3 L556.544 1187.24 L534.276 1187.24 L534.276 1152.68 Z" fill="#000000" fill-rule="nonzero" fill-opacity="1" /><polyline clip-path="url(#clip460)" style="stroke:#c271d2; stroke-linecap:round; stroke-linejoin:round; stroke-width:4; stroke-opacity:1; fill:none" points="336.405,1221.8 477.08,1221.8 "/>
<path clip-path="url(#clip460)" d="M511.383 1239.65 Q506.035 1238.8 503.559 1236.55 Q500.526 1233.8 500.526 1228.17 L500.526 1213.15 L504.832 1213.15 L504.832 1228.01 Q504.832 1232.25 506.799 1234.01 Q508.512 1235.53 511.383 1235.86 L511.383 1213.15 L515.619 1213.15 L515.619 1235.83 Q518.651 1235.51 520.202 1233.98 Q522.17 1232.04 522.17 1227.99 L522.17 1213.15 L526.475 1213.15 L526.475 1228.15 Q526.475 1233.98 523.443 1236.53 Q520.711 1238.82 515.619 1239.63 L515.619 1248.94 L511.383 1248.94 L511.383 1239.65 Z" fill="#000000" fill-rule="nonzero" fill-opacity="1" /><path clip-path="url(#clip460)" d="M542.656 1239.65 Q537.308 1238.8 534.832 1236.55 Q531.799 1233.8 531.799 1228.17 L531.799 1213.15 L536.105 1213.15 L536.105 1228.01 Q536.105 1232.25 538.072 1234.01 Q539.785 1235.53 542.656 1235.86 L542.656 1213.15 L546.892 1213.15 L546.892 1235.83 Q549.924 1235.51 551.475 1233.98 Q553.443 1232.04 553.443 1227.99 L553.443 1213.15 L557.748 1213.15 L557.748 1228.15 Q557.748 1233.98 554.716 1236.53 Q551.984 1238.82 546.892 1239.63 L546.892 1248.94 L542.656 1248.94 L542.656 1239.65 Z" fill="#000000" fill-rule="nonzero" fill-opacity="1" /><polyline clip-path="url(#clip460)" style="stroke:#ac8d18; stroke-linecap:round; stroke-linejoin:round; stroke-width:4; stroke-opacity:1; fill:none" points="336.405,1273.64 477.08,1273.64 "/>
<path clip-path="url(#clip460)" d="M511.383 1291.49 Q506.035 1290.64 503.559 1288.39 Q500.526 1285.64 500.526 1280.01 L500.526 1264.99 L504.832 1264.99 L504.832 1279.85 Q504.832 1284.09 506.799 1285.85 Q508.512 1287.37 511.383 1287.7 L511.383 1264.99 L515.619 1264.99 L515.619 1287.67 Q518.651 1287.35 520.202 1285.82 Q522.17 1283.88 522.17 1279.83 L522.17 1264.99 L526.475 1264.99 L526.475 1279.99 Q526.475 1285.82 523.443 1288.37 Q520.711 1290.66 515.619 1291.47 L515.619 1300.78 L511.383 1300.78 L511.383 1291.49 Z" fill="#000000" fill-rule="nonzero" fill-opacity="1" /><path clip-path="url(#clip460)" d="M529.068 1256.36 L558.304 1256.36 L558.304 1260.29 L546.035 1260.29 L546.035 1290.92 L541.336 1290.92 L541.336 1260.29 L529.068 1260.29 L529.068 1256.36 Z" fill="#000000" fill-rule="nonzero" fill-opacity="1" /><polyline clip-path="url(#clip460)" style="stroke:#00a9ad; stroke-linecap:round; stroke-linejoin:round; stroke-width:4; stroke-opacity:1; fill:none" points="336.405,1325.48 477.08,1325.48 "/>
<path clip-path="url(#clip460)" d="M511.383 1343.33 Q506.035 1342.48 503.559 1340.23 Q500.526 1337.48 500.526 1331.85 L500.526 1316.83 L504.832 1316.83 L504.832 1331.69 Q504.832 1335.93 506.799 1337.69 Q508.512 1339.21 511.383 1339.54 L511.383 1316.83 L515.619 1316.83 L515.619 1339.51 Q518.651 1339.19 520.202 1337.66 Q522.17 1335.72 522.17 1331.67 L522.17 1316.83 L526.475 1316.83 L526.475 1331.83 Q526.475 1337.66 523.443 1340.21 Q520.711 1342.5 515.619 1343.31 L515.619 1352.62 L511.383 1352.62 L511.383 1343.33 Z" fill="#000000" fill-rule="nonzero" fill-opacity="1" /><path clip-path="url(#clip460)" d="M533.859 1308.2 L555.711 1308.2 L555.711 1312.13 L538.535 1312.13 L538.535 1322.36 L554.993 1322.36 L554.993 1326.3 L538.535 1326.3 L538.535 1338.82 L556.128 1338.82 L556.128 1342.76 L533.859 1342.76 L533.859 1308.2 Z" fill="#000000" fill-rule="nonzero" fill-opacity="1" /></svg>
