<?xml version="1.0" encoding="utf-8"?>
<svg xmlns="http://www.w3.org/2000/svg" xmlns:xlink="http://www.w3.org/1999/xlink" width="800" height="400" viewBox="0 0 3200 1600">
<defs>
  <clipPath id="clip580">
    <rect x="0" y="0" width="3200" height="1600"/>
  </clipPath>
</defs>
<path clip-path="url(#clip580)" d="M0 1600 L3200 1600 L3200 0 L0 0  Z" fill="#ffffff" fill-rule="evenodd" fill-opacity="1"/>
<defs>
  <clipPath id="clip581">
    <rect x="365" y="47" width="2789" height="1449"/>
  </clipPath>
</defs>
<path clip-path="url(#clip580)" d="M365.106 1495.09 L3152.76 1495.09 L3152.76 47.2441 L365.106 47.2441  Z" fill="#ffffff" fill-rule="evenodd" fill-opacity="1"/>
<polyline clip-path="url(#clip581)" style="stroke:#000000; stroke-linecap:round; stroke-linejoin:round; stroke-width:2; stroke-opacity:0.1; fill:none" points="736.208,1495.09 736.208,47.2441 "/>
<polyline clip-path="url(#clip581)" style="stroke:#000000; stroke-linecap:round; stroke-linejoin:round; stroke-width:2; stroke-opacity:0.1; fill:none" points="1758.93,1495.09 1758.93,47.2441 "/>
<polyline clip-path="url(#clip581)" style="stroke:#000000; stroke-linecap:round; stroke-linejoin:round; stroke-width:2; stroke-opacity:0.1; fill:none" points="2781.65,1495.09 2781.65,47.2441 "/>
<polyline clip-path="url(#clip581)" style="stroke:#000000; stroke-linecap:round; stroke-linejoin:round; stroke-width:2; stroke-opacity:0.1; fill:none" points="365.106,1290.46 3152.76,1290.46 "/>
<polyline clip-path="url(#clip581)" style="stroke:#000000; stroke-linecap:round; stroke-linejoin:round; stroke-width:2; stroke-opacity:0.1; fill:none" points="365.106,1003.27 3152.76,1003.27 "/>
<polyline clip-path="url(#clip581)" style="stroke:#000000; stroke-linecap:round; stroke-linejoin:round; stroke-width:2; stroke-opacity:0.1; fill:none" points="365.106,716.073 3152.76,716.073 "/>
<polyline clip-path="url(#clip581)" style="stroke:#000000; stroke-linecap:round; stroke-linejoin:round; stroke-width:2; stroke-opacity:0.1; fill:none" points="365.106,428.878 3152.76,428.878 "/>
<polyline clip-path="url(#clip581)" style="stroke:#000000; stroke-linecap:round; stroke-linejoin:round; stroke-width:2; stroke-opacity:0.1; fill:none" points="365.106,141.684 3152.76,141.684 "/>
<polyline clip-path="url(#clip580)" style="stroke:#000000; stroke-linecap:round; stroke-linejoin:round; stroke-width:4; stroke-opacity:1; fill:none" points="365.106,1495.09 3152.76,1495.09 "/>
<polyline clip-path="url(#clip580)" style="stroke:#000000; stroke-linecap:round; stroke-linejoin:round; stroke-width:4; stroke-opacity:1; fill:none" points="736.208,1495.09 736.208,1476.19 "/>
<polyline clip-path="url(#clip580)" style="stroke:#000000; stroke-linecap:round; stroke-linejoin:round; stroke-width:4; stroke-opacity:1; fill:none" points="1758.93,1495.09 1758.93,1476.19 "/>
<polyline clip-path="url(#clip580)" style="stroke:#000000; stroke-linecap:round; stroke-linejoin:round; stroke-width:4; stroke-opacity:1; fill:none" points="2781.65,1495.09 2781.65,1476.19 "/>
<path clip-path="url(#clip580)" d="M652.169 1538.73 L652.169 1542.75 Q650.364 1541.83 648.419 1541.36 Q646.475 1540.9 644.391 1540.9 Q641.22 1540.9 639.623 1541.87 Q638.049 1542.85 638.049 1544.79 Q638.049 1546.27 639.183 1547.13 Q640.317 1547.96 643.743 1548.73 L645.202 1549.05 Q649.739 1550.02 651.637 1551.8 Q653.558 1553.56 653.558 1556.74 Q653.558 1560.35 650.688 1562.45 Q647.841 1564.56 642.841 1564.56 Q640.757 1564.56 638.489 1564.14 Q636.243 1563.75 633.743 1562.94 L633.743 1558.54 Q636.104 1559.77 638.396 1560.39 Q640.688 1560.99 642.933 1560.99 Q645.942 1560.99 647.563 1559.98 Q649.183 1558.93 649.183 1557.06 Q649.183 1555.32 648.003 1554.4 Q646.845 1553.47 642.887 1552.61 L641.405 1552.27 Q637.447 1551.43 635.688 1549.72 Q633.929 1547.99 633.929 1544.98 Q633.929 1541.32 636.521 1539.33 Q639.114 1537.34 643.882 1537.34 Q646.243 1537.34 648.327 1537.68 Q650.41 1538.03 652.169 1538.73 Z" fill="#000000" fill-rule="nonzero" fill-opacity="1" /><path clip-path="url(#clip580)" d="M671.127 1566.3 Q669.322 1570.92 667.609 1572.34 Q665.896 1573.75 663.026 1573.75 L659.623 1573.75 L659.623 1570.18 L662.123 1570.18 Q663.882 1570.18 664.854 1569.35 Q665.827 1568.52 667.007 1565.42 L667.771 1563.47 L657.285 1537.96 L661.799 1537.96 L669.901 1558.24 L678.002 1537.96 L682.516 1537.96 L671.127 1566.3 Z" fill="#000000" fill-rule="nonzero" fill-opacity="1" /><path clip-path="url(#clip580)" d="M708.581 1542.94 Q710.178 1540.07 712.4 1538.7 Q714.623 1537.34 717.632 1537.34 Q721.683 1537.34 723.882 1540.18 Q726.081 1543.01 726.081 1548.24 L726.081 1563.89 L721.798 1563.89 L721.798 1548.38 Q721.798 1544.65 720.479 1542.85 Q719.16 1541.04 716.451 1541.04 Q713.141 1541.04 711.22 1543.24 Q709.299 1545.44 709.299 1549.24 L709.299 1563.89 L705.016 1563.89 L705.016 1548.38 Q705.016 1544.63 703.697 1542.85 Q702.377 1541.04 699.623 1541.04 Q696.359 1541.04 694.437 1543.26 Q692.516 1545.46 692.516 1549.24 L692.516 1563.89 L688.234 1563.89 L688.234 1537.96 L692.516 1537.96 L692.516 1541.99 Q693.975 1539.61 696.012 1538.47 Q698.049 1537.34 700.849 1537.34 Q703.674 1537.34 705.641 1538.77 Q707.632 1540.21 708.581 1542.94 Z" fill="#000000" fill-rule="nonzero" fill-opacity="1" /><path clip-path="url(#clip580)" d="M753.187 1550.95 Q753.187 1546.25 751.243 1543.59 Q749.321 1540.9 745.942 1540.9 Q742.562 1540.9 740.618 1543.59 Q738.697 1546.25 738.697 1550.95 Q738.697 1555.65 740.618 1558.33 Q742.562 1560.99 745.942 1560.99 Q749.321 1560.99 751.243 1558.33 Q753.187 1555.65 753.187 1550.95 M738.697 1541.9 Q740.039 1539.58 742.076 1538.47 Q744.136 1537.34 746.984 1537.34 Q751.706 1537.34 754.646 1541.09 Q757.608 1544.84 757.608 1550.95 Q757.608 1557.06 754.646 1560.81 Q751.706 1564.56 746.984 1564.56 Q744.136 1564.56 742.076 1563.45 Q740.039 1562.31 738.697 1560 L738.697 1563.89 L734.414 1563.89 L734.414 1527.87 L738.697 1527.87 L738.697 1541.9 Z" fill="#000000" fill-rule="nonzero" fill-opacity="1" /><path clip-path="url(#clip580)" d="M774.715 1540.95 Q771.289 1540.95 769.298 1543.63 Q767.307 1546.3 767.307 1550.95 Q767.307 1555.6 769.275 1558.29 Q771.266 1560.95 774.715 1560.95 Q778.118 1560.95 780.108 1558.26 Q782.099 1555.58 782.099 1550.95 Q782.099 1546.34 780.108 1543.66 Q778.118 1540.95 774.715 1540.95 M774.715 1537.34 Q780.27 1537.34 783.442 1540.95 Q786.613 1544.56 786.613 1550.95 Q786.613 1557.31 783.442 1560.95 Q780.27 1564.56 774.715 1564.56 Q769.136 1564.56 765.965 1560.95 Q762.817 1557.31 762.817 1550.95 Q762.817 1544.56 765.965 1540.95 Q769.136 1537.34 774.715 1537.34 Z" fill="#000000" fill-rule="nonzero" fill-opacity="1" /><path clip-path="url(#clip580)" d="M793.673 1527.87 L797.932 1527.87 L797.932 1563.89 L793.673 1563.89 L793.673 1527.87 Z" fill="#000000" fill-rule="nonzero" fill-opacity="1" /><path clip-path="url(#clip580)" d="M806.844 1537.96 L811.104 1537.96 L811.104 1563.89 L806.844 1563.89 L806.844 1537.96 M806.844 1527.87 L811.104 1527.87 L811.104 1533.26 L806.844 1533.26 L806.844 1527.87 Z" fill="#000000" fill-rule="nonzero" fill-opacity="1" /><path clip-path="url(#clip580)" d="M838.673 1538.96 L838.673 1542.94 Q836.867 1541.94 835.039 1541.46 Q833.233 1540.95 831.381 1540.95 Q827.238 1540.95 824.946 1543.59 Q822.654 1546.2 822.654 1550.95 Q822.654 1555.69 824.946 1558.33 Q827.238 1560.95 831.381 1560.95 Q833.233 1560.95 835.039 1560.46 Q836.867 1559.95 838.673 1558.96 L838.673 1562.89 Q836.89 1563.73 834.969 1564.14 Q833.071 1564.56 830.918 1564.56 Q825.062 1564.56 821.613 1560.88 Q818.164 1557.2 818.164 1550.95 Q818.164 1544.61 821.636 1540.97 Q825.131 1537.34 831.196 1537.34 Q833.164 1537.34 835.039 1537.75 Q836.914 1538.15 838.673 1538.96 Z" fill="#000000" fill-rule="nonzero" fill-opacity="1" /><path clip-path="url(#clip580)" d="M1669.26 1527.87 L1669.26 1531.41 L1665.18 1531.41 Q1662.89 1531.41 1661.99 1532.34 Q1661.11 1533.26 1661.11 1535.67 L1661.11 1537.96 L1668.12 1537.96 L1668.12 1541.27 L1661.11 1541.27 L1661.11 1563.89 L1656.82 1563.89 L1656.82 1541.27 L1652.75 1541.27 L1652.75 1537.96 L1656.82 1537.96 L1656.82 1536.16 Q1656.82 1531.83 1658.84 1529.86 Q1660.85 1527.87 1665.23 1527.87 L1669.26 1527.87 Z" fill="#000000" fill-rule="nonzero" fill-opacity="1" /><path clip-path="url(#clip580)" d="M1672.82 1537.96 L1677.08 1537.96 L1677.08 1563.89 L1672.82 1563.89 L1672.82 1537.96 M1672.82 1527.87 L1677.08 1527.87 L1677.08 1533.26 L1672.82 1533.26 L1672.82 1527.87 Z" fill="#000000" fill-rule="nonzero" fill-opacity="1" /><path clip-path="url(#clip580)" d="M1707.54 1548.24 L1707.54 1563.89 L1703.28 1563.89 L1703.28 1548.38 Q1703.28 1544.7 1701.85 1542.87 Q1700.41 1541.04 1697.54 1541.04 Q1694.09 1541.04 1692.1 1543.24 Q1690.11 1545.44 1690.11 1549.24 L1690.11 1563.89 L1685.83 1563.89 L1685.83 1537.96 L1690.11 1537.96 L1690.11 1541.99 Q1691.64 1539.65 1693.7 1538.49 Q1695.78 1537.34 1698.49 1537.34 Q1702.96 1537.34 1705.25 1540.11 Q1707.54 1542.87 1707.54 1548.24 Z" fill="#000000" fill-rule="nonzero" fill-opacity="1" /><path clip-path="url(#clip580)" d="M1716.04 1537.96 L1720.3 1537.96 L1720.3 1563.89 L1716.04 1563.89 L1716.04 1537.96 M1716.04 1527.87 L1720.3 1527.87 L1720.3 1533.26 L1716.04 1533.26 L1716.04 1527.87 Z" fill="#000000" fill-rule="nonzero" fill-opacity="1" /><path clip-path="url(#clip580)" d="M1733.42 1530.6 L1733.42 1537.96 L1742.19 1537.96 L1742.19 1541.27 L1733.42 1541.27 L1733.42 1555.35 Q1733.42 1558.52 1734.28 1559.42 Q1735.16 1560.32 1737.82 1560.32 L1742.19 1560.32 L1742.19 1563.89 L1737.82 1563.89 Q1732.89 1563.89 1731.01 1562.06 Q1729.14 1560.21 1729.14 1555.35 L1729.14 1541.27 L1726.01 1541.27 L1726.01 1537.96 L1729.14 1537.96 L1729.14 1530.6 L1733.42 1530.6 Z" fill="#000000" fill-rule="nonzero" fill-opacity="1" /><path clip-path="url(#clip580)" d="M1769.97 1549.86 L1769.97 1551.94 L1750.39 1551.94 Q1750.67 1556.34 1753.03 1558.66 Q1755.41 1560.95 1759.65 1560.95 Q1762.1 1560.95 1764.39 1560.35 Q1766.71 1559.74 1768.98 1558.54 L1768.98 1562.57 Q1766.69 1563.54 1764.28 1564.05 Q1761.87 1564.56 1759.39 1564.56 Q1753.19 1564.56 1749.56 1560.95 Q1745.94 1557.34 1745.94 1551.18 Q1745.94 1544.81 1749.37 1541.09 Q1752.82 1537.34 1758.65 1537.34 Q1763.88 1537.34 1766.92 1540.72 Q1769.97 1544.07 1769.97 1549.86 M1765.71 1548.61 Q1765.67 1545.11 1763.75 1543.03 Q1761.85 1540.95 1758.7 1540.95 Q1755.13 1540.95 1752.98 1542.96 Q1750.85 1544.98 1750.53 1548.63 L1765.71 1548.61 Z" fill="#000000" fill-rule="nonzero" fill-opacity="1" /><path clip-path="url(#clip580)" d="M1809.09 1541.9 L1809.09 1527.87 L1813.35 1527.87 L1813.35 1563.89 L1809.09 1563.89 L1809.09 1560 Q1807.75 1562.31 1805.69 1563.45 Q1803.65 1564.56 1800.78 1564.56 Q1796.08 1564.56 1793.12 1560.81 Q1790.18 1557.06 1790.18 1550.95 Q1790.18 1544.84 1793.12 1541.09 Q1796.08 1537.34 1800.78 1537.34 Q1803.65 1537.34 1805.69 1538.47 Q1807.75 1539.58 1809.09 1541.9 M1794.58 1550.95 Q1794.58 1555.65 1796.5 1558.33 Q1798.44 1560.99 1801.82 1560.99 Q1805.2 1560.99 1807.15 1558.33 Q1809.09 1555.65 1809.09 1550.95 Q1809.09 1546.25 1807.15 1543.59 Q1805.2 1540.9 1801.82 1540.9 Q1798.44 1540.9 1796.5 1543.59 Q1794.58 1546.25 1794.58 1550.95 Z" fill="#000000" fill-rule="nonzero" fill-opacity="1" /><path clip-path="url(#clip580)" d="M1822.12 1537.96 L1826.38 1537.96 L1826.38 1563.89 L1822.12 1563.89 L1822.12 1537.96 M1822.12 1527.87 L1826.38 1527.87 L1826.38 1533.26 L1822.12 1533.26 L1822.12 1527.87 Z" fill="#000000" fill-rule="nonzero" fill-opacity="1" /><path clip-path="url(#clip580)" d="M1848.42 1527.87 L1848.42 1531.41 L1844.35 1531.41 Q1842.06 1531.41 1841.15 1532.34 Q1840.27 1533.26 1840.27 1535.67 L1840.27 1537.96 L1847.29 1537.96 L1847.29 1541.27 L1840.27 1541.27 L1840.27 1563.89 L1835.99 1563.89 L1835.99 1541.27 L1831.92 1541.27 L1831.92 1537.96 L1835.99 1537.96 L1835.99 1536.16 Q1835.99 1531.83 1838 1529.86 Q1840.02 1527.87 1844.39 1527.87 L1848.42 1527.87 Z" fill="#000000" fill-rule="nonzero" fill-opacity="1" /><path clip-path="url(#clip580)" d="M1865.11 1527.87 L1865.11 1531.41 L1861.04 1531.41 Q1858.75 1531.41 1857.84 1532.34 Q1856.96 1533.26 1856.96 1535.67 L1856.96 1537.96 L1863.98 1537.96 L1863.98 1541.27 L1856.96 1541.27 L1856.96 1563.89 L1852.68 1563.89 L1852.68 1541.27 L1848.61 1541.27 L1848.61 1537.96 L1852.68 1537.96 L1852.68 1536.16 Q1852.68 1531.83 1854.69 1529.86 Q1856.71 1527.87 1861.08 1527.87 L1865.11 1527.87 Z" fill="#000000" fill-rule="nonzero" fill-opacity="1" /><path clip-path="url(#clip580)" d="M2661.52 1527.87 L2661.52 1531.41 L2657.44 1531.41 Q2655.15 1531.41 2654.25 1532.34 Q2653.37 1533.26 2653.37 1535.67 L2653.37 1537.96 L2660.38 1537.96 L2660.38 1541.27 L2653.37 1541.27 L2653.37 1563.89 L2649.08 1563.89 L2649.08 1541.27 L2645.01 1541.27 L2645.01 1537.96 L2649.08 1537.96 L2649.08 1536.16 Q2649.08 1531.83 2651.1 1529.86 Q2653.11 1527.87 2657.49 1527.87 L2661.52 1527.87 Z" fill="#000000" fill-rule="nonzero" fill-opacity="1" /><path clip-path="url(#clip580)" d="M2675.13 1540.95 Q2671.7 1540.95 2669.71 1543.63 Q2667.72 1546.3 2667.72 1550.95 Q2667.72 1555.6 2669.69 1558.29 Q2671.68 1560.95 2675.13 1560.95 Q2678.53 1560.95 2680.52 1558.26 Q2682.51 1555.58 2682.51 1550.95 Q2682.51 1546.34 2680.52 1543.66 Q2678.53 1540.95 2675.13 1540.95 M2675.13 1537.34 Q2680.68 1537.34 2683.85 1540.95 Q2687.02 1544.56 2687.02 1550.95 Q2687.02 1557.31 2683.85 1560.95 Q2680.68 1564.56 2675.13 1564.56 Q2669.55 1564.56 2666.38 1560.95 Q2663.23 1557.31 2663.23 1550.95 Q2663.23 1544.56 2666.38 1540.95 Q2669.55 1537.34 2675.13 1537.34 Z" fill="#000000" fill-rule="nonzero" fill-opacity="1" /><path clip-path="url(#clip580)" d="M2709.11 1541.94 Q2708.39 1541.53 2707.53 1541.34 Q2706.7 1541.13 2705.68 1541.13 Q2702.07 1541.13 2700.13 1543.49 Q2698.21 1545.83 2698.21 1550.23 L2698.21 1563.89 L2693.92 1563.89 L2693.92 1537.96 L2698.21 1537.96 L2698.21 1541.99 Q2699.55 1539.63 2701.7 1538.49 Q2703.85 1537.34 2706.93 1537.34 Q2707.37 1537.34 2707.9 1537.41 Q2708.44 1537.45 2709.08 1537.57 L2709.11 1541.94 Z" fill="#000000" fill-rule="nonzero" fill-opacity="1" /><path clip-path="url(#clip580)" d="M2711.1 1537.96 L2715.36 1537.96 L2720.68 1558.19 L2725.98 1537.96 L2731.01 1537.96 L2736.33 1558.19 L2741.63 1537.96 L2745.89 1537.96 L2739.11 1563.89 L2734.08 1563.89 L2728.51 1542.64 L2722.9 1563.89 L2717.88 1563.89 L2711.1 1537.96 Z" fill="#000000" fill-rule="nonzero" fill-opacity="1" /><path clip-path="url(#clip580)" d="M2764.13 1550.86 Q2758.97 1550.86 2756.98 1552.04 Q2754.99 1553.22 2754.99 1556.06 Q2754.99 1558.33 2756.47 1559.67 Q2757.97 1560.99 2760.54 1560.99 Q2764.08 1560.99 2766.21 1558.49 Q2768.37 1555.97 2768.37 1551.8 L2768.37 1550.86 L2764.13 1550.86 M2772.63 1549.1 L2772.63 1563.89 L2768.37 1563.89 L2768.37 1559.95 Q2766.91 1562.31 2764.73 1563.45 Q2762.56 1564.56 2759.41 1564.56 Q2755.43 1564.56 2753.07 1562.34 Q2750.73 1560.09 2750.73 1556.34 Q2750.73 1551.97 2753.64 1549.74 Q2756.58 1547.52 2762.39 1547.52 L2768.37 1547.52 L2768.37 1547.11 Q2768.37 1544.17 2766.42 1542.57 Q2764.5 1540.95 2761.01 1540.95 Q2758.78 1540.95 2756.68 1541.48 Q2754.57 1542.01 2752.63 1543.08 L2752.63 1539.14 Q2754.96 1538.24 2757.16 1537.8 Q2759.36 1537.34 2761.45 1537.34 Q2767.07 1537.34 2769.85 1540.25 Q2772.63 1543.17 2772.63 1549.1 Z" fill="#000000" fill-rule="nonzero" fill-opacity="1" /><path clip-path="url(#clip580)" d="M2796.42 1541.94 Q2795.7 1541.53 2794.85 1541.34 Q2794.01 1541.13 2793 1541.13 Q2789.39 1541.13 2787.44 1543.49 Q2785.52 1545.83 2785.52 1550.23 L2785.52 1563.89 L2781.24 1563.89 L2781.24 1537.96 L2785.52 1537.96 L2785.52 1541.99 Q2786.86 1539.63 2789.01 1538.49 Q2791.17 1537.34 2794.25 1537.34 Q2794.69 1537.34 2795.22 1537.41 Q2795.75 1537.45 2796.4 1537.57 L2796.42 1541.94 Z" fill="#000000" fill-rule="nonzero" fill-opacity="1" /><path clip-path="url(#clip580)" d="M2817.12 1541.9 L2817.12 1527.87 L2821.38 1527.87 L2821.38 1563.89 L2817.12 1563.89 L2817.12 1560 Q2815.77 1562.31 2813.71 1563.45 Q2811.68 1564.56 2808.81 1564.56 Q2804.11 1564.56 2801.14 1560.81 Q2798.2 1557.06 2798.2 1550.95 Q2798.2 1544.84 2801.14 1541.09 Q2804.11 1537.34 2808.81 1537.34 Q2811.68 1537.34 2813.71 1538.47 Q2815.77 1539.58 2817.12 1541.9 M2802.6 1550.95 Q2802.6 1555.65 2804.52 1558.33 Q2806.47 1560.99 2809.85 1560.99 Q2813.23 1560.99 2815.17 1558.33 Q2817.12 1555.65 2817.12 1550.95 Q2817.12 1546.25 2815.17 1543.59 Q2813.23 1540.9 2809.85 1540.9 Q2806.47 1540.9 2804.52 1543.59 Q2802.6 1546.25 2802.6 1550.95 Z" fill="#000000" fill-rule="nonzero" fill-opacity="1" /><path clip-path="url(#clip580)" d="M2862.28 1541.9 L2862.28 1527.87 L2866.54 1527.87 L2866.54 1563.89 L2862.28 1563.89 L2862.28 1560 Q2860.94 1562.31 2858.88 1563.45 Q2856.84 1564.56 2853.97 1564.56 Q2849.27 1564.56 2846.31 1560.81 Q2843.37 1557.06 2843.37 1550.95 Q2843.37 1544.84 2846.31 1541.09 Q2849.27 1537.34 2853.97 1537.34 Q2856.84 1537.34 2858.88 1538.47 Q2860.94 1539.58 2862.28 1541.9 M2847.76 1550.95 Q2847.76 1555.65 2849.69 1558.33 Q2851.63 1560.99 2855.01 1560.99 Q2858.39 1560.99 2860.33 1558.33 Q2862.28 1555.65 2862.28 1550.95 Q2862.28 1546.25 2860.33 1543.59 Q2858.39 1540.9 2855.01 1540.9 Q2851.63 1540.9 2849.69 1543.59 Q2847.76 1546.25 2847.76 1550.95 Z" fill="#000000" fill-rule="nonzero" fill-opacity="1" /><path clip-path="url(#clip580)" d="M2875.31 1537.96 L2879.57 1537.96 L2879.57 1563.89 L2875.31 1563.89 L2875.31 1537.96 M2875.31 1527.87 L2879.57 1527.87 L2879.57 1533.26 L2875.31 1533.26 L2875.31 1527.87 Z" fill="#000000" fill-rule="nonzero" fill-opacity="1" /><path clip-path="url(#clip580)" d="M2901.61 1527.87 L2901.61 1531.41 L2897.53 1531.41 Q2895.24 1531.41 2894.34 1532.34 Q2893.46 1533.26 2893.46 1535.67 L2893.46 1537.96 L2900.47 1537.96 L2900.47 1541.27 L2893.46 1541.27 L2893.46 1563.89 L2889.18 1563.89 L2889.18 1541.27 L2885.1 1541.27 L2885.1 1537.96 L2889.18 1537.96 L2889.18 1536.16 Q2889.18 1531.83 2891.19 1529.86 Q2893.2 1527.87 2897.58 1527.87 L2901.61 1527.87 Z" fill="#000000" fill-rule="nonzero" fill-opacity="1" /><path clip-path="url(#clip580)" d="M2918.3 1527.87 L2918.3 1531.41 L2914.22 1531.41 Q2911.93 1531.41 2911.03 1532.34 Q2910.15 1533.26 2910.15 1535.67 L2910.15 1537.96 L2917.16 1537.96 L2917.16 1541.27 L2910.15 1541.27 L2910.15 1563.89 L2905.87 1563.89 L2905.87 1541.27 L2901.79 1541.27 L2901.79 1537.96 L2905.87 1537.96 L2905.87 1536.16 Q2905.87 1531.83 2907.88 1529.86 Q2909.89 1527.87 2914.27 1527.87 L2918.3 1527.87 Z" fill="#000000" fill-rule="nonzero" fill-opacity="1" /><polyline clip-path="url(#clip580)" style="stroke:#000000; stroke-linecap:round; stroke-linejoin:round; stroke-width:4; stroke-opacity:1; fill:none" points="365.106,1495.09 365.106,47.2441 "/>
<polyline clip-path="url(#clip580)" style="stroke:#000000; stroke-linecap:round; stroke-linejoin:round; stroke-width:4; stroke-opacity:1; fill:none" points="365.106,1290.46 384.003,1290.46 "/>
<polyline clip-path="url(#clip580)" style="stroke:#000000; stroke-linecap:round; stroke-linejoin:round; stroke-width:4; stroke-opacity:1; fill:none" points="365.106,1003.27 384.003,1003.27 "/>
<polyline clip-path="url(#clip580)" style="stroke:#000000; stroke-linecap:round; stroke-linejoin:round; stroke-width:4; stroke-opacity:1; fill:none" points="365.106,716.073 384.003,716.073 "/>
<polyline clip-path="url(#clip580)" style="stroke:#000000; stroke-linecap:round; stroke-linejoin:round; stroke-width:4; stroke-opacity:1; fill:none" points="365.106,428.878 384.003,428.878 "/>
<polyline clip-path="url(#clip580)" style="stroke:#000000; stroke-linecap:round; stroke-linejoin:round; stroke-width:4; stroke-opacity:1; fill:none" points="365.106,141.684 384.003,141.684 "/>
<path clip-path="url(#clip580)" d="M99.2829 1279.63 L121.505 1279.63 L121.505 1281.62 L108.959 1314.19 L104.075 1314.19 L115.88 1283.56 L99.2829 1283.56 L99.2829 1279.63 Z" fill="#000000" fill-rule="nonzero" fill-opacity="1" /><path clip-path="url(#clip580)" d="M130.625 1308.31 L135.51 1308.31 L135.51 1314.19 L130.625 1314.19 L130.625 1308.31 Z" fill="#000000" fill-rule="nonzero" fill-opacity="1" /><path clip-path="url(#clip580)" d="M145.741 1279.63 L164.097 1279.63 L164.097 1283.56 L150.023 1283.56 L150.023 1292.04 Q151.042 1291.69 152.06 1291.53 Q153.079 1291.34 154.097 1291.34 Q159.884 1291.34 163.264 1294.51 Q166.644 1297.68 166.644 1303.1 Q166.644 1308.68 163.171 1311.78 Q159.699 1314.86 153.38 1314.86 Q151.204 1314.86 148.935 1314.49 Q146.69 1314.12 144.283 1313.38 L144.283 1308.68 Q146.366 1309.81 148.588 1310.37 Q150.81 1310.93 153.287 1310.93 Q157.292 1310.93 159.63 1308.82 Q161.968 1306.71 161.968 1303.1 Q161.968 1299.49 159.63 1297.38 Q157.292 1295.28 153.287 1295.28 Q151.412 1295.28 149.537 1295.69 Q147.685 1296.11 145.741 1296.99 L145.741 1279.63 Z" fill="#000000" fill-rule="nonzero" fill-opacity="1" /><path clip-path="url(#clip580)" d="M185.857 1282.71 Q182.245 1282.71 180.417 1286.27 Q178.611 1289.81 178.611 1296.94 Q178.611 1304.05 180.417 1307.62 Q182.245 1311.16 185.857 1311.16 Q189.491 1311.16 191.296 1307.62 Q193.125 1304.05 193.125 1296.94 Q193.125 1289.81 191.296 1286.27 Q189.491 1282.71 185.857 1282.71 M185.857 1279 Q191.667 1279 194.722 1283.61 Q197.801 1288.19 197.801 1296.94 Q197.801 1305.67 194.722 1310.28 Q191.667 1314.86 185.857 1314.86 Q180.046 1314.86 176.968 1310.28 Q173.912 1305.67 173.912 1296.94 Q173.912 1288.19 176.968 1283.61 Q180.046 1279 185.857 1279 Z" fill="#000000" fill-rule="nonzero" fill-opacity="1" /><path clip-path="url(#clip580)" d="M234.19 1288.73 L223.611 1299.35 L234.19 1309.93 L231.435 1312.73 L220.81 1302.11 L210.185 1312.73 L207.454 1309.93 L218.009 1299.35 L207.454 1288.73 L210.185 1285.93 L220.81 1296.55 L231.435 1285.93 L234.19 1288.73 Z" fill="#000000" fill-rule="nonzero" fill-opacity="1" /><path clip-path="url(#clip580)" d="M246.551 1310.25 L254.19 1310.25 L254.19 1283.89 L245.879 1285.56 L245.879 1281.3 L254.143 1279.63 L258.819 1279.63 L258.819 1310.25 L266.458 1310.25 L266.458 1314.19 L246.551 1314.19 L246.551 1310.25 Z" fill="#000000" fill-rule="nonzero" fill-opacity="1" /><path clip-path="url(#clip580)" d="M285.902 1282.71 Q282.291 1282.71 280.463 1286.27 Q278.657 1289.81 278.657 1296.94 Q278.657 1304.05 280.463 1307.62 Q282.291 1311.16 285.902 1311.16 Q289.537 1311.16 291.342 1307.62 Q293.171 1304.05 293.171 1296.94 Q293.171 1289.81 291.342 1286.27 Q289.537 1282.71 285.902 1282.71 M285.902 1279 Q291.712 1279 294.768 1283.61 Q297.847 1288.19 297.847 1296.94 Q297.847 1305.67 294.768 1310.28 Q291.712 1314.86 285.902 1314.86 Q280.092 1314.86 277.013 1310.28 Q273.958 1305.67 273.958 1296.94 Q273.958 1288.19 277.013 1283.61 Q280.092 1279 285.902 1279 Z" fill="#000000" fill-rule="nonzero" fill-opacity="1" /><path clip-path="url(#clip580)" d="M307.476 1273.44 Q304.768 1273.44 303.207 1274.89 Q301.665 1276.34 301.665 1278.88 Q301.665 1281.42 303.207 1282.87 Q304.768 1284.31 307.476 1284.31 Q310.185 1284.31 311.746 1282.87 Q313.307 1281.4 313.307 1278.88 Q313.307 1276.34 311.746 1274.89 Q310.203 1273.44 307.476 1273.44 M303.677 1271.83 Q301.232 1271.22 299.859 1269.55 Q298.505 1267.88 298.505 1265.47 Q298.505 1262.1 300.894 1260.15 Q303.301 1258.19 307.476 1258.19 Q311.67 1258.19 314.059 1260.15 Q316.448 1262.1 316.448 1265.47 Q316.448 1267.88 315.075 1269.55 Q313.72 1271.22 311.294 1271.83 Q314.04 1272.47 315.564 1274.33 Q317.106 1276.19 317.106 1278.88 Q317.106 1282.96 314.604 1285.14 Q312.122 1287.32 307.476 1287.32 Q302.831 1287.32 300.329 1285.14 Q297.847 1282.96 297.847 1278.88 Q297.847 1276.19 299.389 1274.33 Q300.931 1272.47 303.677 1271.83 M302.285 1265.83 Q302.285 1268.01 303.639 1269.23 Q305.012 1270.45 307.476 1270.45 Q309.921 1270.45 311.294 1269.23 Q312.686 1268.01 312.686 1265.83 Q312.686 1263.65 311.294 1262.42 Q309.921 1261.2 307.476 1261.2 Q305.012 1261.2 303.639 1262.42 Q302.285 1263.65 302.285 1265.83 Z" fill="#000000" fill-rule="nonzero" fill-opacity="1" /><path clip-path="url(#clip580)" d="M110.463 1010.58 Q107.13 1010.58 105.209 1012.37 Q103.311 1014.15 103.311 1017.27 Q103.311 1020.4 105.209 1022.18 Q107.13 1023.96 110.463 1023.96 Q113.797 1023.96 115.718 1022.18 Q117.639 1020.37 117.639 1017.27 Q117.639 1014.15 115.718 1012.37 Q113.82 1010.58 110.463 1010.58 M105.788 1008.59 Q102.778 1007.85 101.088 1005.79 Q99.4218 1003.73 99.4218 1000.77 Q99.4218 996.625 102.362 994.217 Q105.325 991.81 110.463 991.81 Q115.625 991.81 118.565 994.217 Q121.505 996.625 121.505 1000.77 Q121.505 1003.73 119.815 1005.79 Q118.149 1007.85 115.162 1008.59 Q118.542 1009.38 120.417 1011.67 Q122.315 1013.96 122.315 1017.27 Q122.315 1022.3 119.237 1024.98 Q116.181 1027.67 110.463 1027.67 Q104.746 1027.67 101.667 1024.98 Q98.6116 1022.3 98.6116 1017.27 Q98.6116 1013.96 100.51 1011.67 Q102.408 1009.38 105.788 1008.59 M104.075 1001.21 Q104.075 1003.89 105.741 1005.4 Q107.431 1006.9 110.463 1006.9 Q113.473 1006.9 115.162 1005.4 Q116.875 1003.89 116.875 1001.21 Q116.875 998.523 115.162 997.018 Q113.473 995.513 110.463 995.513 Q107.431 995.513 105.741 997.018 Q104.075 998.523 104.075 1001.21 Z" fill="#000000" fill-rule="nonzero" fill-opacity="1" /><path clip-path="url(#clip580)" d="M130.625 1021.12 L135.51 1021.12 L135.51 1026.99 L130.625 1026.99 L130.625 1021.12 Z" fill="#000000" fill-rule="nonzero" fill-opacity="1" /><path clip-path="url(#clip580)" d="M155.695 995.513 Q152.084 995.513 150.255 999.078 Q148.449 1002.62 148.449 1009.75 Q148.449 1016.86 150.255 1020.42 Q152.084 1023.96 155.695 1023.96 Q159.329 1023.96 161.134 1020.42 Q162.963 1016.86 162.963 1009.75 Q162.963 1002.62 161.134 999.078 Q159.329 995.513 155.695 995.513 M155.695 991.81 Q161.505 991.81 164.56 996.416 Q167.639 1001 167.639 1009.75 Q167.639 1018.48 164.56 1023.08 Q161.505 1027.67 155.695 1027.67 Q149.885 1027.67 146.806 1023.08 Q143.75 1018.48 143.75 1009.75 Q143.75 1001 146.806 996.416 Q149.885 991.81 155.695 991.81 Z" fill="#000000" fill-rule="nonzero" fill-opacity="1" /><path clip-path="url(#clip580)" d="M185.857 995.513 Q182.245 995.513 180.417 999.078 Q178.611 1002.62 178.611 1009.75 Q178.611 1016.86 180.417 1020.42 Q182.245 1023.96 185.857 1023.96 Q189.491 1023.96 191.296 1020.42 Q193.125 1016.86 193.125 1009.75 Q193.125 1002.62 191.296 999.078 Q189.491 995.513 185.857 995.513 M185.857 991.81 Q191.667 991.81 194.722 996.416 Q197.801 1001 197.801 1009.75 Q197.801 1018.48 194.722 1023.08 Q191.667 1027.67 185.857 1027.67 Q180.046 1027.67 176.968 1023.08 Q173.912 1018.48 173.912 1009.75 Q173.912 1001 176.968 996.416 Q180.046 991.81 185.857 991.81 Z" fill="#000000" fill-rule="nonzero" fill-opacity="1" /><path clip-path="url(#clip580)" d="M234.19 1001.53 L223.611 1012.16 L234.19 1022.74 L231.435 1025.54 L220.81 1014.91 L210.185 1025.54 L207.454 1022.74 L218.009 1012.16 L207.454 1001.53 L210.185 998.731 L220.81 1009.36 L231.435 998.731 L234.19 1001.53 Z" fill="#000000" fill-rule="nonzero" fill-opacity="1" /><path clip-path="url(#clip580)" d="M246.551 1023.06 L254.19 1023.06 L254.19 996.694 L245.879 998.361 L245.879 994.101 L254.143 992.435 L258.819 992.435 L258.819 1023.06 L266.458 1023.06 L266.458 1026.99 L246.551 1026.99 L246.551 1023.06 Z" fill="#000000" fill-rule="nonzero" fill-opacity="1" /><path clip-path="url(#clip580)" d="M285.902 995.513 Q282.291 995.513 280.463 999.078 Q278.657 1002.62 278.657 1009.75 Q278.657 1016.86 280.463 1020.42 Q282.291 1023.96 285.902 1023.96 Q289.537 1023.96 291.342 1020.42 Q293.171 1016.86 293.171 1009.75 Q293.171 1002.62 291.342 999.078 Q289.537 995.513 285.902 995.513 M285.902 991.81 Q291.712 991.81 294.768 996.416 Q297.847 1001 297.847 1009.75 Q297.847 1018.48 294.768 1023.08 Q291.712 1027.67 285.902 1027.67 Q280.092 1027.67 277.013 1023.08 Q273.958 1018.48 273.958 1009.75 Q273.958 1001 277.013 996.416 Q280.092 991.81 285.902 991.81 Z" fill="#000000" fill-rule="nonzero" fill-opacity="1" /><path clip-path="url(#clip580)" d="M307.476 986.25 Q304.768 986.25 303.207 987.698 Q301.665 989.146 301.665 991.685 Q301.665 994.224 303.207 995.672 Q304.768 997.121 307.476 997.121 Q310.185 997.121 311.746 995.672 Q313.307 994.205 313.307 991.685 Q313.307 989.146 311.746 987.698 Q310.203 986.25 307.476 986.25 M303.677 984.632 Q301.232 984.03 299.859 982.356 Q298.505 980.683 298.505 978.275 Q298.505 974.909 300.894 972.953 Q303.301 970.997 307.476 970.997 Q311.67 970.997 314.059 972.953 Q316.448 974.909 316.448 978.275 Q316.448 980.683 315.075 982.356 Q313.72 984.03 311.294 984.632 Q314.04 985.272 315.564 987.134 Q317.106 988.996 317.106 991.685 Q317.106 995.766 314.604 997.948 Q312.122 1000.13 307.476 1000.13 Q302.831 1000.13 300.329 997.948 Q297.847 995.766 297.847 991.685 Q297.847 988.996 299.389 987.134 Q300.931 985.272 303.677 984.632 M302.285 978.633 Q302.285 980.814 303.639 982.037 Q305.012 983.259 307.476 983.259 Q309.921 983.259 311.294 982.037 Q312.686 980.814 312.686 978.633 Q312.686 976.451 311.294 975.228 Q309.921 974.006 307.476 974.006 Q305.012 974.006 303.639 975.228 Q302.285 976.451 302.285 978.633 Z" fill="#000000" fill-rule="nonzero" fill-opacity="1" /><path clip-path="url(#clip580)" d="M110.463 723.388 Q107.13 723.388 105.209 725.171 Q103.311 726.953 103.311 730.078 Q103.311 733.203 105.209 734.986 Q107.13 736.768 110.463 736.768 Q113.797 736.768 115.718 734.986 Q117.639 733.18 117.639 730.078 Q117.639 726.953 115.718 725.171 Q113.82 723.388 110.463 723.388 M105.788 721.398 Q102.778 720.657 101.088 718.597 Q99.4218 716.537 99.4218 713.574 Q99.4218 709.43 102.362 707.023 Q105.325 704.615 110.463 704.615 Q115.625 704.615 118.565 707.023 Q121.505 709.43 121.505 713.574 Q121.505 716.537 119.815 718.597 Q118.149 720.657 115.162 721.398 Q118.542 722.185 120.417 724.476 Q122.315 726.768 122.315 730.078 Q122.315 735.101 119.237 737.787 Q116.181 740.472 110.463 740.472 Q104.746 740.472 101.667 737.787 Q98.6116 735.101 98.6116 730.078 Q98.6116 726.768 100.51 724.476 Q102.408 722.185 105.788 721.398 M104.075 714.014 Q104.075 716.699 105.741 718.203 Q107.431 719.708 110.463 719.708 Q113.473 719.708 115.162 718.203 Q116.875 716.699 116.875 714.014 Q116.875 711.328 115.162 709.824 Q113.473 708.319 110.463 708.319 Q107.431 708.319 105.741 709.824 Q104.075 711.328 104.075 714.014 Z" fill="#000000" fill-rule="nonzero" fill-opacity="1" /><path clip-path="url(#clip580)" d="M130.625 733.921 L135.51 733.921 L135.51 739.8 L130.625 739.8 L130.625 733.921 Z" fill="#000000" fill-rule="nonzero" fill-opacity="1" /><path clip-path="url(#clip580)" d="M145.741 705.24 L164.097 705.24 L164.097 709.176 L150.023 709.176 L150.023 717.648 Q151.042 717.301 152.06 717.138 Q153.079 716.953 154.097 716.953 Q159.884 716.953 163.264 720.125 Q166.644 723.296 166.644 728.713 Q166.644 734.291 163.171 737.393 Q159.699 740.472 153.38 740.472 Q151.204 740.472 148.935 740.101 Q146.69 739.731 144.283 738.99 L144.283 734.291 Q146.366 735.425 148.588 735.981 Q150.81 736.537 153.287 736.537 Q157.292 736.537 159.63 734.43 Q161.968 732.324 161.968 728.713 Q161.968 725.101 159.63 722.995 Q157.292 720.888 153.287 720.888 Q151.412 720.888 149.537 721.305 Q147.685 721.722 145.741 722.601 L145.741 705.24 Z" fill="#000000" fill-rule="nonzero" fill-opacity="1" /><path clip-path="url(#clip580)" d="M185.857 708.319 Q182.245 708.319 180.417 711.884 Q178.611 715.426 178.611 722.555 Q178.611 729.662 180.417 733.226 Q182.245 736.768 185.857 736.768 Q189.491 736.768 191.296 733.226 Q193.125 729.662 193.125 722.555 Q193.125 715.426 191.296 711.884 Q189.491 708.319 185.857 708.319 M185.857 704.615 Q191.667 704.615 194.722 709.222 Q197.801 713.805 197.801 722.555 Q197.801 731.282 194.722 735.888 Q191.667 740.472 185.857 740.472 Q180.046 740.472 176.968 735.888 Q173.912 731.282 173.912 722.555 Q173.912 713.805 176.968 709.222 Q180.046 704.615 185.857 704.615 Z" fill="#000000" fill-rule="nonzero" fill-opacity="1" /><path clip-path="url(#clip580)" d="M234.19 714.338 L223.611 724.963 L234.19 735.541 L231.435 738.342 L220.81 727.717 L210.185 738.342 L207.454 735.541 L218.009 724.963 L207.454 714.338 L210.185 711.537 L220.81 722.162 L231.435 711.537 L234.19 714.338 Z" fill="#000000" fill-rule="nonzero" fill-opacity="1" /><path clip-path="url(#clip580)" d="M246.551 735.865 L254.19 735.865 L254.19 709.5 L245.879 711.166 L245.879 706.907 L254.143 705.24 L258.819 705.24 L258.819 735.865 L266.458 735.865 L266.458 739.8 L246.551 739.8 L246.551 735.865 Z" fill="#000000" fill-rule="nonzero" fill-opacity="1" /><path clip-path="url(#clip580)" d="M285.902 708.319 Q282.291 708.319 280.463 711.884 Q278.657 715.426 278.657 722.555 Q278.657 729.662 280.463 733.226 Q282.291 736.768 285.902 736.768 Q289.537 736.768 291.342 733.226 Q293.171 729.662 293.171 722.555 Q293.171 715.426 291.342 711.884 Q289.537 708.319 285.902 708.319 M285.902 704.615 Q291.712 704.615 294.768 709.222 Q297.847 713.805 297.847 722.555 Q297.847 731.282 294.768 735.888 Q291.712 740.472 285.902 740.472 Q280.092 740.472 277.013 735.888 Q273.958 731.282 273.958 722.555 Q273.958 713.805 277.013 709.222 Q280.092 704.615 285.902 704.615 Z" fill="#000000" fill-rule="nonzero" fill-opacity="1" /><path clip-path="url(#clip580)" d="M307.476 699.055 Q304.768 699.055 303.207 700.503 Q301.665 701.952 301.665 704.491 Q301.665 707.03 303.207 708.478 Q304.768 709.926 307.476 709.926 Q310.185 709.926 311.746 708.478 Q313.307 707.011 313.307 704.491 Q313.307 701.952 311.746 700.503 Q310.203 699.055 307.476 699.055 M303.677 697.438 Q301.232 696.836 299.859 695.162 Q298.505 693.488 298.505 691.081 Q298.505 687.714 300.894 685.758 Q303.301 683.802 307.476 683.802 Q311.67 683.802 314.059 685.758 Q316.448 687.714 316.448 691.081 Q316.448 693.488 315.075 695.162 Q313.72 696.836 311.294 697.438 Q314.04 698.077 315.564 699.939 Q317.106 701.801 317.106 704.491 Q317.106 708.572 314.604 710.754 Q312.122 712.935 307.476 712.935 Q302.831 712.935 300.329 710.754 Q297.847 708.572 297.847 704.491 Q297.847 701.801 299.389 699.939 Q300.931 698.077 303.677 697.438 M302.285 691.438 Q302.285 693.62 303.639 694.842 Q305.012 696.065 307.476 696.065 Q309.921 696.065 311.294 694.842 Q312.686 693.62 312.686 691.438 Q312.686 689.256 311.294 688.034 Q309.921 686.811 307.476 686.811 Q305.012 686.811 303.639 688.034 Q302.285 689.256 302.285 691.438 Z" fill="#000000" fill-rule="nonzero" fill-opacity="1" /><path clip-path="url(#clip580)" d="M100.602 451.888 L100.602 447.629 Q102.362 448.463 104.167 448.902 Q105.973 449.342 107.709 449.342 Q112.338 449.342 114.769 446.24 Q117.223 443.115 117.57 436.773 Q116.227 438.764 114.167 439.828 Q112.107 440.893 109.607 440.893 Q104.422 440.893 101.389 437.768 Q98.3802 434.62 98.3802 429.18 Q98.3802 423.856 101.528 420.639 Q104.676 417.421 109.908 417.421 Q115.903 417.421 119.051 422.027 Q122.223 426.611 122.223 435.361 Q122.223 443.532 118.334 448.416 Q114.468 453.277 107.917 453.277 Q106.158 453.277 104.352 452.93 Q102.547 452.583 100.602 451.888 M109.908 437.236 Q113.056 437.236 114.885 435.083 Q116.737 432.93 116.737 429.18 Q116.737 425.453 114.885 423.301 Q113.056 421.125 109.908 421.125 Q106.76 421.125 104.908 423.301 Q103.079 425.453 103.079 429.18 Q103.079 432.93 104.908 435.083 Q106.76 437.236 109.908 437.236 Z" fill="#000000" fill-rule="nonzero" fill-opacity="1" /><path clip-path="url(#clip580)" d="M130.625 446.726 L135.51 446.726 L135.51 452.606 L130.625 452.606 L130.625 446.726 Z" fill="#000000" fill-rule="nonzero" fill-opacity="1" /><path clip-path="url(#clip580)" d="M155.695 421.125 Q152.084 421.125 150.255 424.69 Q148.449 428.231 148.449 435.361 Q148.449 442.467 150.255 446.032 Q152.084 449.574 155.695 449.574 Q159.329 449.574 161.134 446.032 Q162.963 442.467 162.963 435.361 Q162.963 428.231 161.134 424.69 Q159.329 421.125 155.695 421.125 M155.695 417.421 Q161.505 417.421 164.56 422.027 Q167.639 426.611 167.639 435.361 Q167.639 444.088 164.56 448.694 Q161.505 453.277 155.695 453.277 Q149.885 453.277 146.806 448.694 Q143.75 444.088 143.75 435.361 Q143.75 426.611 146.806 422.027 Q149.885 417.421 155.695 417.421 Z" fill="#000000" fill-rule="nonzero" fill-opacity="1" /><path clip-path="url(#clip580)" d="M185.857 421.125 Q182.245 421.125 180.417 424.69 Q178.611 428.231 178.611 435.361 Q178.611 442.467 180.417 446.032 Q182.245 449.574 185.857 449.574 Q189.491 449.574 191.296 446.032 Q193.125 442.467 193.125 435.361 Q193.125 428.231 191.296 424.69 Q189.491 421.125 185.857 421.125 M185.857 417.421 Q191.667 417.421 194.722 422.027 Q197.801 426.611 197.801 435.361 Q197.801 444.088 194.722 448.694 Q191.667 453.277 185.857 453.277 Q180.046 453.277 176.968 448.694 Q173.912 444.088 173.912 435.361 Q173.912 426.611 176.968 422.027 Q180.046 417.421 185.857 417.421 Z" fill="#000000" fill-rule="nonzero" fill-opacity="1" /><path clip-path="url(#clip580)" d="M234.19 427.143 L223.611 437.768 L234.19 448.347 L231.435 451.148 L220.81 440.523 L210.185 451.148 L207.454 448.347 L218.009 437.768 L207.454 427.143 L210.185 424.342 L220.81 434.967 L231.435 424.342 L234.19 427.143 Z" fill="#000000" fill-rule="nonzero" fill-opacity="1" /><path clip-path="url(#clip580)" d="M246.551 448.671 L254.19 448.671 L254.19 422.305 L245.879 423.972 L245.879 419.713 L254.143 418.046 L258.819 418.046 L258.819 448.671 L266.458 448.671 L266.458 452.606 L246.551 452.606 L246.551 448.671 Z" fill="#000000" fill-rule="nonzero" fill-opacity="1" /><path clip-path="url(#clip580)" d="M285.902 421.125 Q282.291 421.125 280.463 424.69 Q278.657 428.231 278.657 435.361 Q278.657 442.467 280.463 446.032 Q282.291 449.574 285.902 449.574 Q289.537 449.574 291.342 446.032 Q293.171 442.467 293.171 435.361 Q293.171 428.231 291.342 424.69 Q289.537 421.125 285.902 421.125 M285.902 417.421 Q291.712 417.421 294.768 422.027 Q297.847 426.611 297.847 435.361 Q297.847 444.088 294.768 448.694 Q291.712 453.277 285.902 453.277 Q280.092 453.277 277.013 448.694 Q273.958 444.088 273.958 435.361 Q273.958 426.611 277.013 422.027 Q280.092 417.421 285.902 417.421 Z" fill="#000000" fill-rule="nonzero" fill-opacity="1" /><path clip-path="url(#clip580)" d="M307.476 411.861 Q304.768 411.861 303.207 413.309 Q301.665 414.757 301.665 417.296 Q301.665 419.835 303.207 421.284 Q304.768 422.732 307.476 422.732 Q310.185 422.732 311.746 421.284 Q313.307 419.817 313.307 417.296 Q313.307 414.757 311.746 413.309 Q310.203 411.861 307.476 411.861 M303.677 410.243 Q301.232 409.642 299.859 407.968 Q298.505 406.294 298.505 403.886 Q298.505 400.52 300.894 398.564 Q303.301 396.608 307.476 396.608 Q311.67 396.608 314.059 398.564 Q316.448 400.52 316.448 403.886 Q316.448 406.294 315.075 407.968 Q313.72 409.642 311.294 410.243 Q314.04 410.883 315.564 412.745 Q317.106 414.607 317.106 417.296 Q317.106 421.378 314.604 423.559 Q312.122 425.741 307.476 425.741 Q302.831 425.741 300.329 423.559 Q297.847 421.378 297.847 417.296 Q297.847 414.607 299.389 412.745 Q300.931 410.883 303.677 410.243 M302.285 404.244 Q302.285 406.425 303.639 407.648 Q305.012 408.87 307.476 408.87 Q309.921 408.87 311.294 407.648 Q312.686 406.425 312.686 404.244 Q312.686 402.062 311.294 400.84 Q309.921 399.617 307.476 399.617 Q305.012 399.617 303.639 400.84 Q302.285 402.062 302.285 404.244 Z" fill="#000000" fill-rule="nonzero" fill-opacity="1" /><path clip-path="url(#clip580)" d="M100.602 164.694 L100.602 160.435 Q102.362 161.268 104.167 161.708 Q105.973 162.148 107.709 162.148 Q112.338 162.148 114.769 159.046 Q117.223 155.921 117.57 149.578 Q116.227 151.569 114.167 152.634 Q112.107 153.699 109.607 153.699 Q104.422 153.699 101.389 150.574 Q98.3802 147.426 98.3802 141.986 Q98.3802 136.662 101.528 133.444 Q104.676 130.227 109.908 130.227 Q115.903 130.227 119.051 134.833 Q122.223 139.416 122.223 148.166 Q122.223 156.338 118.334 161.222 Q114.468 166.083 107.917 166.083 Q106.158 166.083 104.352 165.736 Q102.547 165.389 100.602 164.694 M109.908 150.041 Q113.056 150.041 114.885 147.889 Q116.737 145.736 116.737 141.986 Q116.737 138.259 114.885 136.106 Q113.056 133.93 109.908 133.93 Q106.76 133.93 104.908 136.106 Q103.079 138.259 103.079 141.986 Q103.079 145.736 104.908 147.889 Q106.76 150.041 109.908 150.041 Z" fill="#000000" fill-rule="nonzero" fill-opacity="1" /><path clip-path="url(#clip580)" d="M130.625 159.532 L135.51 159.532 L135.51 165.412 L130.625 165.412 L130.625 159.532 Z" fill="#000000" fill-rule="nonzero" fill-opacity="1" /><path clip-path="url(#clip580)" d="M145.741 130.852 L164.097 130.852 L164.097 134.787 L150.023 134.787 L150.023 143.259 Q151.042 142.912 152.06 142.75 Q153.079 142.565 154.097 142.565 Q159.884 142.565 163.264 145.736 Q166.644 148.907 166.644 154.324 Q166.644 159.902 163.171 163.004 Q159.699 166.083 153.38 166.083 Q151.204 166.083 148.935 165.713 Q146.69 165.342 144.283 164.601 L144.283 159.902 Q146.366 161.037 148.588 161.592 Q150.81 162.148 153.287 162.148 Q157.292 162.148 159.63 160.041 Q161.968 157.935 161.968 154.324 Q161.968 150.713 159.63 148.606 Q157.292 146.5 153.287 146.5 Q151.412 146.5 149.537 146.916 Q147.685 147.333 145.741 148.213 L145.741 130.852 Z" fill="#000000" fill-rule="nonzero" fill-opacity="1" /><path clip-path="url(#clip580)" d="M185.857 133.93 Q182.245 133.93 180.417 137.495 Q178.611 141.037 178.611 148.166 Q178.611 155.273 180.417 158.838 Q182.245 162.379 185.857 162.379 Q189.491 162.379 191.296 158.838 Q193.125 155.273 193.125 148.166 Q193.125 141.037 191.296 137.495 Q189.491 133.93 185.857 133.93 M185.857 130.227 Q191.667 130.227 194.722 134.833 Q197.801 139.416 197.801 148.166 Q197.801 156.893 194.722 161.5 Q191.667 166.083 185.857 166.083 Q180.046 166.083 176.968 161.5 Q173.912 156.893 173.912 148.166 Q173.912 139.416 176.968 134.833 Q180.046 130.227 185.857 130.227 Z" fill="#000000" fill-rule="nonzero" fill-opacity="1" /><path clip-path="url(#clip580)" d="M234.19 139.949 L223.611 150.574 L234.19 161.152 L231.435 163.953 L220.81 153.328 L210.185 163.953 L207.454 161.152 L218.009 150.574 L207.454 139.949 L210.185 137.148 L220.81 147.773 L231.435 137.148 L234.19 139.949 Z" fill="#000000" fill-rule="nonzero" fill-opacity="1" /><path clip-path="url(#clip580)" d="M246.551 161.476 L254.19 161.476 L254.19 135.111 L245.879 136.778 L245.879 132.518 L254.143 130.852 L258.819 130.852 L258.819 161.476 L266.458 161.476 L266.458 165.412 L246.551 165.412 L246.551 161.476 Z" fill="#000000" fill-rule="nonzero" fill-opacity="1" /><path clip-path="url(#clip580)" d="M285.902 133.93 Q282.291 133.93 280.463 137.495 Q278.657 141.037 278.657 148.166 Q278.657 155.273 280.463 158.838 Q282.291 162.379 285.902 162.379 Q289.537 162.379 291.342 158.838 Q293.171 155.273 293.171 148.166 Q293.171 141.037 291.342 137.495 Q289.537 133.93 285.902 133.93 M285.902 130.227 Q291.712 130.227 294.768 134.833 Q297.847 139.416 297.847 148.166 Q297.847 156.893 294.768 161.5 Q291.712 166.083 285.902 166.083 Q280.092 166.083 277.013 161.5 Q273.958 156.893 273.958 148.166 Q273.958 139.416 277.013 134.833 Q280.092 130.227 285.902 130.227 Z" fill="#000000" fill-rule="nonzero" fill-opacity="1" /><path clip-path="url(#clip580)" d="M307.476 124.667 Q304.768 124.667 303.207 126.115 Q301.665 127.563 301.665 130.102 Q301.665 132.641 303.207 134.089 Q304.768 135.537 307.476 135.537 Q310.185 135.537 311.746 134.089 Q313.307 132.622 313.307 130.102 Q313.307 127.563 311.746 126.115 Q310.203 124.667 307.476 124.667 M303.677 123.049 Q301.232 122.447 299.859 120.773 Q298.505 119.099 298.505 116.692 Q298.505 113.325 300.894 111.369 Q303.301 109.413 307.476 109.413 Q311.67 109.413 314.059 111.369 Q316.448 113.325 316.448 116.692 Q316.448 119.099 315.075 120.773 Q313.72 122.447 311.294 123.049 Q314.04 123.689 315.564 125.551 Q317.106 127.412 317.106 130.102 Q317.106 134.183 314.604 136.365 Q312.122 138.547 307.476 138.547 Q302.831 138.547 300.329 136.365 Q297.847 134.183 297.847 130.102 Q297.847 127.412 299.389 125.551 Q300.931 123.689 303.677 123.049 M302.285 117.049 Q302.285 119.231 303.639 120.454 Q305.012 121.676 307.476 121.676 Q309.921 121.676 311.294 120.454 Q312.686 119.231 312.686 117.049 Q312.686 114.868 311.294 113.645 Q309.921 112.423 307.476 112.423 Q305.012 112.423 303.639 113.645 Q302.285 114.868 302.285 117.049 Z" fill="#000000" fill-rule="nonzero" fill-opacity="1" /><path clip-path="url(#clip580)" d="M-9.64527 840.632 L0.4762 840.632 L0.4762 828.569 L5.02768 828.569 L5.02768 840.632 L24.3794 840.632 Q28.7399 840.632 29.9813 839.454 Q31.2226 838.245 31.2226 834.584 L31.2226 828.569 L36.1242 828.569 L36.1242 834.584 Q36.1242 841.364 33.6097 843.942 Q31.0634 846.52 24.3794 846.52 L5.02768 846.52 L5.02768 850.817 L0.4762 850.817 L0.4762 846.52 L-9.64527 846.52 L-9.64527 840.632 Z" fill="#000000" fill-rule="nonzero" fill-opacity="1" /><path clip-path="url(#clip580)" d="M-11.3958 789.738 L-11.3958 784.327 L42.1716 800.878 L42.1716 806.289 L-11.3958 789.738 Z" fill="#000000" fill-rule="nonzero" fill-opacity="1" /><path clip-path="url(#clip580)" d="M14.6081 727.831 L36.1242 727.831 L36.1242 733.688 L14.799 733.688 Q9.7383 733.688 7.22385 735.661 Q4.7094 737.635 4.7094 741.581 Q4.7094 746.324 7.73311 749.061 Q10.7568 751.798 15.9767 751.798 L36.1242 751.798 L36.1242 757.687 L0.4762 757.687 L0.4762 751.798 L6.01437 751.798 Q2.79968 749.698 1.20826 746.865 Q-0.38317 744 -0.38317 740.276 Q-0.38317 734.133 3.43625 730.982 Q7.22385 727.831 14.6081 727.831 Z" fill="#000000" fill-rule="nonzero" fill-opacity="1" /><path clip-path="url(#clip580)" d="M1.52654 693.425 L7.06471 693.425 Q5.79157 695.907 5.15499 698.581 Q4.51842 701.255 4.51842 704.119 Q4.51842 708.48 5.85522 710.676 Q7.19202 712.84 9.86562 712.84 Q11.9026 712.84 13.0803 711.281 Q14.2261 709.721 15.2765 705.01 L15.7221 703.005 Q17.0589 696.767 19.5097 694.157 Q21.9286 691.515 26.2891 691.515 Q31.2544 691.515 34.1508 695.462 Q37.0472 699.377 37.0472 706.252 Q37.0472 709.116 36.4743 712.235 Q35.9332 715.323 34.8192 718.76 L28.7718 718.76 Q30.4587 715.514 31.318 712.363 Q32.1456 709.212 32.1456 706.124 Q32.1456 701.987 30.7451 699.759 Q29.3129 697.531 26.7347 697.531 Q24.3476 697.531 23.0745 699.154 Q21.8013 700.745 20.6237 706.188 L20.1462 708.225 Q19.0004 713.668 16.6451 716.087 Q14.258 718.506 10.1202 718.506 Q5.09134 718.506 2.35408 714.941 Q-0.38317 711.376 -0.38317 704.819 Q-0.38317 701.573 0.0942579 698.708 Q0.571686 695.844 1.52654 693.425 Z" fill="#000000" fill-rule="nonzero" fill-opacity="1" /><path clip-path="url(#clip581)" d="M824.44 1454.11 L824.404 1453.73 L823.917 1453.35 L823.006 1452.96 L821.708 1452.58 L820.071 1452.2 L818.15 1451.82 L816.01 1451.43 L813.722 1451.05 L811.363 1450.67 L809.014 1450.29 L806.757 1449.9 L804.677 1449.52 L802.856 1449.14 L801.375 1448.76 L800.307 1448.37 L799.723 1447.99 L799.684 1447.61 L800.243 1447.23 L801.442 1446.84 L803.312 1446.46 L805.872 1446.08 L809.127 1445.7 L813.07 1445.31 L817.679 1444.93 L822.92 1444.55 L828.744 1444.17 L835.092 1443.78 L841.892 1443.4 L849.064 1443.02 L856.518 1442.64 L864.162 1442.25 L871.896 1441.87 L879.623 1441.49 L887.247 1441.11 L894.676 1440.72 L901.828 1440.34 L908.629 1439.96 L915.02 1439.58 L920.954 1439.19 L926.404 1438.81 L931.357 1438.43 L935.822 1438.05 L939.82 1437.66 L943.394 1437.28 L946.599 1436.9 L949.502 1436.52 L952.183 1436.13 L954.724 1435.75 L957.214 1435.37 L959.737 1434.99 L962.373 1434.6 L965.192 1434.22 L968.254 1433.84 L971.599 1433.46 L975.251 1433.07 L979.214 1432.69 L983.469 1432.31 L987.977 1431.93 L992.68 1431.54 L997.499 1431.16 L1002.34 1430.78 L1007.1 1430.4 L1011.66 1430.01 L1015.9 1429.63 L1019.69 1429.25 L1022.94 1428.87 L1025.52 1428.48 L1027.34 1428.1 L1028.32 1427.72 L1028.41 1427.34 L1027.57 1426.95 L1025.77 1426.57 L1023.03 1426.19 L1019.37 1425.81 L1014.84 1425.42 L1009.5 1425.04 L1003.44 1424.66 L996.739 1424.28 L989.506 1423.89 L981.843 1423.51 L973.855 1423.13 L965.645 1422.74 L957.309 1422.36 L948.935 1421.98 L940.6 1421.6 L932.368 1421.21 L924.291 1420.83 L916.407 1420.45 L908.74 1420.07 L901.304 1419.68 L894.1 1419.3 L887.121 1418.92 L880.354 1418.54 L873.779 1418.15 L867.375 1417.77 L605.041 1417.77 L598.637 1418.15 L592.062 1418.54 L585.295 1418.92 L578.317 1419.3 L571.113 1419.68 L563.676 1420.07 L556.009 1420.45 L548.125 1420.83 L540.048 1421.21 L531.816 1421.6 L523.481 1421.98 L515.107 1422.36 L506.771 1422.74 L498.561 1423.13 L490.574 1423.51 L482.911 1423.89 L475.677 1424.28 L468.978 1424.66 L462.914 1425.04 L457.575 1425.42 L453.043 1425.81 L449.383 1426.19 L446.642 1426.57 L444.846 1426.95 L444.002 1427.34 L444.092 1427.72 L445.078 1428.1 L446.9 1428.48 L449.48 1428.87 L452.722 1429.25 L456.521 1429.63 L460.76 1430.01 L465.318 1430.4 L470.075 1430.78 L474.917 1431.16 L479.736 1431.54 L484.439 1431.93 L488.948 1432.31 L493.203 1432.69 L497.165 1433.07 L500.817 1433.46 L504.162 1433.84 L507.224 1434.22 L510.044 1434.6 L512.68 1434.99 L515.202 1435.37 L517.692 1435.75 L520.233 1436.13 L522.914 1436.52 L525.818 1436.9 L529.022 1437.28 L532.596 1437.66 L536.595 1438.05 L541.059 1438.43 L546.012 1438.81 L551.462 1439.19 L557.397 1439.58 L563.787 1439.96 L570.588 1440.34 L577.74 1440.72 L585.169 1441.11 L592.793 1441.49 L600.52 1441.87 L608.255 1442.25 L615.898 1442.64 L623.352 1443.02 L630.524 1443.4 L637.324 1443.78 L643.672 1444.17 L649.497 1444.55 L654.737 1444.93 L659.346 1445.31 L663.289 1445.7 L666.544 1446.08 L669.104 1446.46 L670.974 1446.84 L672.173 1447.23 L672.732 1447.61 L672.693 1447.99 L672.109 1448.37 L671.042 1448.76 L669.56 1449.14 L667.739 1449.52 L665.659 1449.9 L663.403 1450.29 L661.053 1450.67 L658.695 1451.05 L656.407 1451.43 L654.267 1451.82 L652.346 1452.2 L650.708 1452.58 L649.41 1452.96 L648.499 1453.35 L648.012 1453.73 L647.976 1454.11 L824.44 1454.11  Z" fill="#009af9" fill-rule="evenodd" fill-opacity="1"/>
<polyline clip-path="url(#clip581)" style="stroke:#000000; stroke-linecap:round; stroke-linejoin:round; stroke-width:4; stroke-opacity:1; fill:none" points="824.44,1454.11 824.404,1453.73 823.917,1453.35 823.006,1452.96 821.708,1452.58 820.071,1452.2 818.15,1451.82 816.01,1451.43 813.722,1451.05 811.363,1450.67 809.014,1450.29 806.757,1449.9 804.677,1449.52 802.856,1449.14 801.375,1448.76 800.307,1448.37 799.723,1447.99 799.684,1447.61 800.243,1447.23 801.442,1446.84 803.312,1446.46 805.872,1446.08 809.127,1445.7 813.07,1445.31 817.679,1444.93 822.92,1444.55 828.744,1444.17 835.092,1443.78 841.892,1443.4 849.064,1443.02 856.518,1442.64 864.162,1442.25 871.896,1441.87 879.623,1441.49 887.247,1441.11 894.676,1440.72 901.828,1440.34 908.629,1439.96 915.02,1439.58 920.954,1439.19 926.404,1438.81 931.357,1438.43 935.822,1438.05 939.82,1437.66 943.394,1437.28 946.599,1436.9 949.502,1436.52 952.183,1436.13 954.724,1435.75 957.214,1435.37 959.737,1434.99 962.373,1434.6 965.192,1434.22 968.254,1433.84 971.599,1433.46 975.251,1433.07 979.214,1432.69 983.469,1432.31 987.977,1431.93 992.68,1431.54 997.499,1431.16 1002.34,1430.78 1007.1,1430.4 1011.66,1430.01 1015.9,1429.63 1019.69,1429.25 1022.94,1428.87 1025.52,1428.48 1027.34,1428.1 1028.32,1427.72 1028.41,1427.34 1027.57,1426.95 1025.77,1426.57 1023.03,1426.19 1019.37,1425.81 1014.84,1425.42 1009.5,1425.04 1003.44,1424.66 996.739,1424.28 989.506,1423.89 981.843,1423.51 973.855,1423.13 965.645,1422.74 957.309,1422.36 948.935,1421.98 940.6,1421.6 932.368,1421.21 924.291,1420.83 916.407,1420.45 908.74,1420.07 901.304,1419.68 894.1,1419.3 887.121,1418.92 880.354,1418.54 873.779,1418.15 867.375,1417.77 605.041,1417.77 598.637,1418.15 592.062,1418.54 585.295,1418.92 578.317,1419.3 571.113,1419.68 563.676,1420.07 556.009,1420.45 548.125,1420.83 540.048,1421.21 531.816,1421.6 523.481,1421.98 515.107,1422.36 506.771,1422.74 498.561,1423.13 490.574,1423.51 482.911,1423.89 475.677,1424.28 468.978,1424.66 462.914,1425.04 457.575,1425.42 453.043,1425.81 449.383,1426.19 446.642,1426.57 444.846,1426.95 444.002,1427.34 444.092,1427.72 445.078,1428.1 446.9,1428.48 449.48,1428.87 452.722,1429.25 456.521,1429.63 460.76,1430.01 465.318,1430.4 470.075,1430.78 474.917,1431.16 479.736,1431.54 484.439,1431.93 488.948,1432.31 493.203,1432.69 497.165,1433.07 500.817,1433.46 504.162,1433.84 507.224,1434.22 510.044,1434.6 512.68,1434.99 515.202,1435.37 517.692,1435.75 520.233,1436.13 522.914,1436.52 525.818,1436.9 529.022,1437.28 532.596,1437.66 536.595,1438.05 541.059,1438.43 546.012,1438.81 551.462,1439.19 557.397,1439.58 563.787,1439.96 570.588,1440.34 577.74,1440.72 585.169,1441.11 592.793,1441.49 600.52,1441.87 608.255,1442.25 615.898,1442.64 623.352,1443.02 630.524,1443.4 637.324,1443.78 643.672,1444.17 649.497,1444.55 654.737,1444.93 659.346,1445.31 663.289,1445.7 666.544,1446.08 669.104,1446.46 670.974,1446.84 672.173,1447.23 672.732,1447.61 672.693,1447.99 672.109,1448.37 671.042,1448.76 669.56,1449.14 667.739,1449.52 665.659,1449.9 663.403,1450.29 661.053,1450.67 658.695,1451.05 656.407,1451.43 654.267,1451.82 652.346,1452.2 650.708,1452.58 649.41,1452.96 648.499,1453.35 648.012,1453.73 647.976,1454.11 824.44,1454.11 "/>
<path clip-path="url(#clip581)" d="M2026.9 491.084 L2036.88 489.98 L2044.33 488.875 L2049.11 487.771 L2051.14 486.667 L2050.46 485.563 L2047.19 484.458 L2041.54 483.354 L2033.79 482.25 L2024.28 481.146 L2013.38 480.042 L2001.49 478.937 L1988.99 477.833 L1976.26 476.729 L1963.63 475.625 L1951.38 474.52 L1939.73 473.416 L1928.84 472.312 L1918.78 471.208 L1909.58 470.104 L1901.21 468.999 L1893.59 467.895 L1886.59 466.791 L1880.08 465.687 L1873.91 464.582 L1867.95 463.478 L1862.07 462.374 L1856.16 461.27 L1850.17 460.166 L1844.05 459.061 L1837.79 457.957 L1831.43 456.853 L1825.02 455.749 L1818.62 454.644 L1812.31 453.54 L1806.18 452.436 L1800.31 451.332 L1794.77 450.227 L1789.63 449.123 L1784.92 448.019 L1780.68 446.915 L1776.91 445.811 L1773.62 444.706 L1770.79 443.602 L1768.39 442.498 L1766.38 441.394 L1764.73 440.289 L1763.39 439.185 L1762.32 438.081 L1761.47 436.977 L1760.81 435.873 L1760.31 434.768 L1759.92 433.664 L1759.64 432.56 L1759.43 431.456 L1759.28 430.351 L1759.17 429.247 L1759.09 428.143 L1759.04 427.039 L1759 425.935 L1758.98 424.83 L1758.96 423.726 L1758.95 422.622 L1758.94 421.518 L1758.94 420.413 L1758.94 419.309 L1758.93 418.205 L1758.93 417.101 L1758.93 415.997 L1758.93 414.892 L1758.93 413.788 L1758.93 412.684 L1758.93 411.58 L1758.93 410.475 L1758.93 409.371 L1758.93 408.267 L1758.93 407.163 L1758.93 406.058 L1758.93 404.954 L1758.93 403.85 L1758.93 402.746 L1758.93 401.642 L1758.93 400.537 L1758.93 399.433 L1758.93 398.329 L1758.93 397.225 L1758.93 396.12 L1758.93 395.016 L1758.94 393.912 L1758.94 392.808 L1758.94 391.704 L1758.95 390.599 L1758.96 389.495 L1758.98 388.391 L1759.01 387.287 L1759.05 386.182 L1759.1 385.078 L1759.18 383.974 L1759.3 382.87 L1759.45 381.766 L1759.67 380.661 L1759.97 379.557 L1760.36 378.453 L1760.88 377.349 L1761.56 376.244 L1762.43 375.14 L1763.53 374.036 L1764.9 372.932 L1766.58 371.828 L1768.61 370.723 L1771.03 369.619 L1773.87 368.515 L1777.14 367.411 L1780.85 366.306 L1784.98 365.202 L1789.51 364.098 L1794.38 362.994 L1799.52 361.889 L1804.82 360.785 L1810.17 359.681 L1815.43 358.577 L1820.45 357.473 L1825.09 356.368 L1829.19 355.264 L1832.62 354.16 L1835.25 353.056 L1837 351.951 L1837.78 350.847 L1680.08 350.847 L1680.87 351.951 L1682.61 353.056 L1685.24 354.16 L1688.67 355.264 L1692.77 356.368 L1697.41 357.473 L1702.43 358.577 L1707.69 359.681 L1713.04 360.785 L1718.34 361.889 L1723.48 362.994 L1728.35 364.098 L1732.88 365.202 L1737.02 366.306 L1740.73 367.411 L1743.99 368.515 L1746.83 369.619 L1749.25 370.723 L1751.28 371.828 L1752.96 372.932 L1754.33 374.036 L1755.43 375.14 L1756.3 376.244 L1756.98 377.349 L1757.5 378.453 L1757.89 379.557 L1758.19 380.661 L1758.41 381.766 L1758.57 382.87 L1758.68 383.974 L1758.76 385.078 L1758.82 386.182 L1758.85 387.287 L1758.88 388.391 L1758.9 389.495 L1758.91 390.599 L1758.92 391.704 L1758.92 392.808 L1758.93 393.912 L1758.93 395.016 L1758.93 396.12 L1758.93 397.225 L1758.93 398.329 L1758.93 399.433 L1758.93 400.537 L1758.93 401.642 L1758.93 402.746 L1758.93 403.85 L1758.93 404.954 L1758.93 406.058 L1758.93 407.163 L1758.93 408.267 L1758.93 409.371 L1758.93 410.475 L1758.93 411.58 L1758.93 412.684 L1758.93 413.788 L1758.93 414.892 L1758.93 415.997 L1758.93 417.101 L1758.93 418.205 L1758.93 419.309 L1758.92 420.413 L1758.92 421.518 L1758.91 422.622 L1758.9 423.726 L1758.88 424.83 L1758.86 425.935 L1758.82 427.039 L1758.77 428.143 L1758.69 429.247 L1758.58 430.351 L1758.43 431.456 L1758.22 432.56 L1757.94 433.664 L1757.56 434.768 L1757.05 435.873 L1756.39 436.977 L1755.55 438.081 L1754.47 439.185 L1753.13 440.289 L1751.48 441.394 L1749.47 442.498 L1747.07 443.602 L1744.24 444.706 L1740.95 445.811 L1737.18 446.915 L1732.94 448.019 L1728.23 449.123 L1723.09 450.227 L1717.55 451.332 L1711.68 452.436 L1705.55 453.54 L1699.24 454.644 L1692.84 455.749 L1686.43 456.853 L1680.07 457.957 L1673.82 459.061 L1667.69 460.166 L1661.7 461.27 L1655.8 462.374 L1649.91 463.478 L1643.95 464.582 L1637.78 465.687 L1631.28 466.791 L1624.28 467.895 L1616.65 468.999 L1608.28 470.104 L1599.08 471.208 L1589.03 472.312 L1578.13 473.416 L1566.48 474.52 L1554.23 475.625 L1541.6 476.729 L1528.87 477.833 L1516.38 478.937 L1504.48 480.042 L1493.59 481.146 L1484.08 482.25 L1476.33 483.354 L1470.68 484.458 L1467.41 485.563 L1466.72 486.667 L1468.75 487.771 L1473.53 488.875 L1480.98 489.98 L1490.97 491.084 L2026.9 491.084  Z" fill="#e26f46" fill-rule="evenodd" fill-opacity="1"/>
<polyline clip-path="url(#clip581)" style="stroke:#000000; stroke-linecap:round; stroke-linejoin:round; stroke-width:4; stroke-opacity:1; fill:none" points="2026.9,491.084 2036.88,489.98 2044.33,488.875 2049.11,487.771 2051.14,486.667 2050.46,485.563 2047.19,484.458 2041.54,483.354 2033.79,482.25 2024.28,481.146 2013.38,480.042 2001.49,478.937 1988.99,477.833 1976.26,476.729 1963.63,475.625 1951.38,474.52 1939.73,473.416 1928.84,472.312 1918.78,471.208 1909.58,470.104 1901.21,468.999 1893.59,467.895 1886.59,466.791 1880.08,465.687 1873.91,464.582 1867.95,463.478 1862.07,462.374 1856.16,461.27 1850.17,460.166 1844.05,459.061 1837.79,457.957 1831.43,456.853 1825.02,455.749 1818.62,454.644 1812.31,453.54 1806.18,452.436 1800.31,451.332 1794.77,450.227 1789.63,449.123 1784.92,448.019 1780.68,446.915 1776.91,445.811 1773.62,444.706 1770.79,443.602 1768.39,442.498 1766.38,441.394 1764.73,440.289 1763.39,439.185 1762.32,438.081 1761.47,436.977 1760.81,435.873 1760.31,434.768 1759.92,433.664 1759.64,432.56 1759.43,431.456 1759.28,430.351 1759.17,429.247 1759.09,428.143 1759.04,427.039 1759,425.935 1758.98,424.83 1758.96,423.726 1758.95,422.622 1758.94,421.518 1758.94,420.413 1758.94,419.309 1758.93,418.205 1758.93,417.101 1758.93,415.997 1758.93,414.892 1758.93,413.788 1758.93,412.684 1758.93,411.58 1758.93,410.475 1758.93,409.371 1758.93,408.267 1758.93,407.163 1758.93,406.058 1758.93,404.954 1758.93,403.85 1758.93,402.746 1758.93,401.642 1758.93,400.537 1758.93,399.433 1758.93,398.329 1758.93,397.225 1758.93,396.12 1758.93,395.016 1758.94,393.912 1758.94,392.808 1758.94,391.704 1758.95,390.599 1758.96,389.495 1758.98,388.391 1759.01,387.287 1759.05,386.182 1759.1,385.078 1759.18,383.974 1759.3,382.87 1759.45,381.766 1759.67,380.661 1759.97,379.557 1760.36,378.453 1760.88,377.349 1761.56,376.244 1762.43,375.14 1763.53,374.036 1764.9,372.932 1766.58,371.828 1768.61,370.723 1771.03,369.619 1773.87,368.515 1777.14,367.411 1780.85,366.306 1784.98,365.202 1789.51,364.098 1794.38,362.994 1799.52,361.889 1804.82,360.785 1810.17,359.681 1815.43,358.577 1820.45,357.473 1825.09,356.368 1829.19,355.264 1832.62,354.16 1835.25,353.056 1837,351.951 1837.78,350.847 1680.08,350.847 1680.87,351.951 1682.61,353.056 1685.24,354.16 1688.67,355.264 1692.77,356.368 1697.41,357.473 1702.43,358.577 1707.69,359.681 1713.04,360.785 1718.34,361.889 1723.48,362.994 1728.35,364.098 1732.88,365.202 1737.02,366.306 1740.73,367.411 1743.99,368.515 1746.83,369.619 1749.25,370.723 1751.28,371.828 1752.96,372.932 1754.33,374.036 1755.43,375.14 1756.3,376.244 1756.98,377.349 1757.5,378.453 1757.89,379.557 1758.19,380.661 1758.41,381.766 1758.57,382.87 1758.68,383.974 1758.76,385.078 1758.82,386.182 1758.85,387.287 1758.88,388.391 1758.9,389.495 1758.91,390.599 1758.92,391.704 1758.92,392.808 1758.93,393.912 1758.93,395.016 1758.93,396.12 1758.93,397.225 1758.93,398.329 1758.93,399.433 1758.93,400.537 1758.93,401.642 1758.93,402.746 1758.93,403.85 1758.93,404.954 1758.93,406.058 1758.93,407.163 1758.93,408.267 1758.93,409.371 1758.93,410.475 1758.93,411.58 1758.93,412.684 1758.93,413.788 1758.93,414.892 1758.93,415.997 1758.93,417.101 1758.93,418.205 1758.93,419.309 1758.92,420.413 1758.92,421.518 1758.91,422.622 1758.9,423.726 1758.88,424.83 1758.86,425.935 1758.82,427.039 1758.77,428.143 1758.69,429.247 1758.58,430.351 1758.43,431.456 1758.22,432.56 1757.94,433.664 1757.56,434.768 1757.05,435.873 1756.39,436.977 1755.55,438.081 1754.47,439.185 1753.13,440.289 1751.48,441.394 1749.47,442.498 1747.07,443.602 1744.24,444.706 1740.95,445.811 1737.18,446.915 1732.94,448.019 1728.23,449.123 1723.09,450.227 1717.55,451.332 1711.68,452.436 1705.55,453.54 1699.24,454.644 1692.84,455.749 1686.43,456.853 1680.07,457.957 1673.82,459.061 1667.69,460.166 1661.7,461.27 1655.8,462.374 1649.91,463.478 1643.95,464.582 1637.78,465.687 1631.28,466.791 1624.28,467.895 1616.65,468.999 1608.28,470.104 1599.08,471.208 1589.03,472.312 1578.13,473.416 1566.48,474.52 1554.23,475.625 1541.6,476.729 1528.87,477.833 1516.38,478.937 1504.48,480.042 1493.59,481.146 1484.08,482.25 1476.33,483.354 1470.68,484.458 1467.41,485.563 1466.72,486.667 1468.75,487.771 1473.53,488.875 1480.98,489.98 1490.97,491.084 2026.9,491.084 "/>
<path clip-path="url(#clip581)" d="M3037.87 122.801 L3043.29 122.314 L3048.22 121.827 L3052.65 121.34 L3056.6 120.853 L3060.07 120.366 L3063.08 119.879 L3065.65 119.392 L3067.81 118.905 L3069.59 118.418 L3071 117.931 L3072.1 117.444 L3072.9 116.957 L3073.44 116.47 L3073.75 115.983 L3073.86 115.496 L3073.79 115.009 L3073.57 114.522 L3073.21 114.035 L3072.72 113.548 L3072.12 113.06 L3071.41 112.573 L3070.6 112.086 L3069.66 111.599 L3068.61 111.112 L3067.43 110.625 L3066.1 110.138 L3064.61 109.651 L3062.94 109.164 L3061.08 108.677 L3058.99 108.19 L3056.68 107.703 L3054.12 107.216 L3051.3 106.729 L3048.21 106.242 L3044.85 105.755 L3041.21 105.268 L3037.29 104.781 L3033.12 104.294 L3028.69 103.806 L3024.02 103.319 L3019.15 102.832 L3014.09 102.345 L3008.87 101.858 L3003.53 101.371 L2998.11 100.884 L2992.63 100.397 L2987.15 99.9101 L2981.69 99.423 L2976.29 98.9359 L2970.99 98.4489 L2965.82 97.9618 L2960.81 97.4748 L2955.98 96.9877 L2951.36 96.5007 L2946.95 96.0136 L2942.77 95.5266 L2938.82 95.0395 L2935.09 94.5525 L2931.6 94.0654 L2928.31 93.5784 L2925.22 93.0913 L2922.3 92.6043 L2919.53 92.1172 L2916.88 91.6302 L2914.33 91.1431 L2911.84 90.6561 L2909.39 90.169 L2906.95 89.682 L2904.48 89.1949 L2901.96 88.7079 L2899.38 88.2208 L2663.93 88.2208 L2661.34 88.7079 L2658.83 89.1949 L2656.36 89.682 L2653.92 90.169 L2651.46 90.6561 L2648.98 91.1431 L2646.43 91.6302 L2643.78 92.1172 L2641.01 92.6043 L2638.09 93.0913 L2635 93.5784 L2631.71 94.0654 L2628.21 94.5525 L2624.49 95.0395 L2620.54 95.5266 L2616.36 96.0136 L2611.95 96.5007 L2607.33 96.9877 L2602.5 97.4748 L2597.49 97.9618 L2592.32 98.4489 L2587.02 98.9359 L2581.62 99.423 L2576.16 99.9101 L2570.68 100.397 L2565.2 100.884 L2559.78 101.371 L2554.44 101.858 L2549.22 102.345 L2544.16 102.832 L2539.28 103.319 L2534.62 103.806 L2530.19 104.294 L2526.01 104.781 L2522.1 105.268 L2518.46 105.755 L2515.1 106.242 L2512.01 106.729 L2509.19 107.216 L2506.63 107.703 L2504.31 108.19 L2502.23 108.677 L2500.36 109.164 L2498.7 109.651 L2497.21 110.138 L2495.88 110.625 L2494.69 111.112 L2493.64 111.599 L2492.71 112.086 L2491.89 112.573 L2491.19 113.06 L2490.59 113.548 L2490.1 114.035 L2489.74 114.522 L2489.52 115.009 L2489.45 115.496 L2489.56 115.983 L2489.87 116.47 L2490.41 116.957 L2491.21 117.444 L2492.3 117.931 L2493.72 118.418 L2495.49 118.905 L2497.65 119.392 L2500.23 119.879 L2503.24 120.366 L2506.71 120.853 L2510.66 121.34 L2515.09 121.827 L2520.02 122.314 L2525.44 122.801 L3037.87 122.801  Z" fill="#3da44d" fill-rule="evenodd" fill-opacity="1"/>
<polyline clip-path="url(#clip581)" style="stroke:#000000; stroke-linecap:round; stroke-linejoin:round; stroke-width:4; stroke-opacity:1; fill:none" points="3037.87,122.801 3043.29,122.314 3048.22,121.827 3052.65,121.34 3056.6,120.853 3060.07,120.366 3063.08,119.879 3065.65,119.392 3067.81,118.905 3069.59,118.418 3071,117.931 3072.1,117.444 3072.9,116.957 3073.44,116.47 3073.75,115.983 3073.86,115.496 3073.79,115.009 3073.57,114.522 3073.21,114.035 3072.72,113.548 3072.12,113.06 3071.41,112.573 3070.6,112.086 3069.66,111.599 3068.61,111.112 3067.43,110.625 3066.1,110.138 3064.61,109.651 3062.94,109.164 3061.08,108.677 3058.99,108.19 3056.68,107.703 3054.12,107.216 3051.3,106.729 3048.21,106.242 3044.85,105.755 3041.21,105.268 3037.29,104.781 3033.12,104.294 3028.69,103.806 3024.02,103.319 3019.15,102.832 3014.09,102.345 3008.87,101.858 3003.53,101.371 2998.11,100.884 2992.63,100.397 2987.15,99.9101 2981.69,99.423 2976.29,98.9359 2970.99,98.4489 2965.82,97.9618 2960.81,97.4748 2955.98,96.9877 2951.36,96.5007 2946.95,96.0136 2942.77,95.5266 2938.82,95.0395 2935.09,94.5525 2931.6,94.0654 2928.31,93.5784 2925.22,93.0913 2922.3,92.6043 2919.53,92.1172 2916.88,91.6302 2914.33,91.1431 2911.84,90.6561 2909.39,90.169 2906.95,89.682 2904.48,89.1949 2901.96,88.7079 2899.38,88.2208 2663.93,88.2208 2661.34,88.7079 2658.83,89.1949 2656.36,89.682 2653.92,90.169 2651.46,90.6561 2648.98,91.1431 2646.43,91.6302 2643.78,92.1172 2641.01,92.6043 2638.09,93.0913 2635,93.5784 2631.71,94.0654 2628.21,94.5525 2624.49,95.0395 2620.54,95.5266 2616.36,96.0136 2611.95,96.5007 2607.33,96.9877 2602.5,97.4748 2597.49,97.9618 2592.32,98.4489 2587.02,98.9359 2581.62,99.423 2576.16,99.9101 2570.68,100.397 2565.2,100.884 2559.78,101.371 2554.44,101.858 2549.22,102.345 2544.16,102.832 2539.28,103.319 2534.62,103.806 2530.19,104.294 2526.01,104.781 2522.1,105.268 2518.46,105.755 2515.1,106.242 2512.01,106.729 2509.19,107.216 2506.63,107.703 2504.31,108.19 2502.23,108.677 2500.36,109.164 2498.7,109.651 2497.21,110.138 2495.88,110.625 2494.69,111.112 2493.64,111.599 2492.71,112.086 2491.89,112.573 2491.19,113.06 2490.59,113.548 2490.1,114.035 2489.74,114.522 2489.52,115.009 2489.45,115.496 2489.56,115.983 2489.87,116.47 2490.41,116.957 2491.21,117.444 2492.3,117.931 2493.72,118.418 2495.49,118.905 2497.65,119.392 2500.23,119.879 2503.24,120.366 2506.71,120.853 2510.66,121.34 2515.09,121.827 2520.02,122.314 2525.44,122.801 3037.87,122.801 "/>
</svg>
