<?xml version="1.0" encoding="utf-8"?>
<svg xmlns="http://www.w3.org/2000/svg" xmlns:xlink="http://www.w3.org/1999/xlink" width="800" height="400" viewBox="0 0 3200 1600">
<defs>
  <clipPath id="clip650">
    <rect x="0" y="0" width="3200" height="1600"/>
  </clipPath>
</defs>
<path clip-path="url(#clip650)" d="M0 1600 L3200 1600 L3200 0 L0 0  Z" fill="#ffffff" fill-rule="evenodd" fill-opacity="1"/>
<defs>
  <clipPath id="clip651">
    <rect x="640" y="0" width="2241" height="1600"/>
  </clipPath>
</defs>
<path clip-path="url(#clip650)" d="M394.497 1495.09 L3152.76 1495.09 L3152.76 47.2441 L394.497 47.2441  Z" fill="#ffffff" fill-rule="evenodd" fill-opacity="1"/>
<defs>
  <clipPath id="clip652">
    <rect x="394" y="47" width="2759" height="1449"/>
  </clipPath>
</defs>
<polyline clip-path="url(#clip652)" style="stroke:#000000; stroke-linecap:round; stroke-linejoin:round; stroke-width:2; stroke-opacity:0.1; fill:none" points="680.731,1495.09 680.731,47.2441 "/>
<polyline clip-path="url(#clip652)" style="stroke:#000000; stroke-linecap:round; stroke-linejoin:round; stroke-width:2; stroke-opacity:0.1; fill:none" points="1409.33,1495.09 1409.33,47.2441 "/>
<polyline clip-path="url(#clip652)" style="stroke:#000000; stroke-linecap:round; stroke-linejoin:round; stroke-width:2; stroke-opacity:0.1; fill:none" points="2137.92,1495.09 2137.92,47.2441 "/>
<polyline clip-path="url(#clip652)" style="stroke:#000000; stroke-linecap:round; stroke-linejoin:round; stroke-width:2; stroke-opacity:0.1; fill:none" points="2866.52,1495.09 2866.52,47.2441 "/>
<polyline clip-path="url(#clip652)" style="stroke:#000000; stroke-linecap:round; stroke-linejoin:round; stroke-width:2; stroke-opacity:0.1; fill:none" points="394.497,1230.72 3152.76,1230.72 "/>
<polyline clip-path="url(#clip652)" style="stroke:#000000; stroke-linecap:round; stroke-linejoin:round; stroke-width:2; stroke-opacity:0.1; fill:none" points="394.497,935.598 3152.76,935.598 "/>
<polyline clip-path="url(#clip652)" style="stroke:#000000; stroke-linecap:round; stroke-linejoin:round; stroke-width:2; stroke-opacity:0.1; fill:none" points="394.497,640.475 3152.76,640.475 "/>
<polyline clip-path="url(#clip652)" style="stroke:#000000; stroke-linecap:round; stroke-linejoin:round; stroke-width:2; stroke-opacity:0.1; fill:none" points="394.497,345.352 3152.76,345.352 "/>
<polyline clip-path="url(#clip652)" style="stroke:#000000; stroke-linecap:round; stroke-linejoin:round; stroke-width:2; stroke-opacity:0.1; fill:none" points="394.497,50.2288 3152.76,50.2288 "/>
<polyline clip-path="url(#clip650)" style="stroke:#000000; stroke-linecap:round; stroke-linejoin:round; stroke-width:4; stroke-opacity:1; fill:none" points="394.497,1495.09 3152.76,1495.09 "/>
<polyline clip-path="url(#clip650)" style="stroke:#000000; stroke-linecap:round; stroke-linejoin:round; stroke-width:4; stroke-opacity:1; fill:none" points="680.731,1495.09 680.731,1476.19 "/>
<polyline clip-path="url(#clip650)" style="stroke:#000000; stroke-linecap:round; stroke-linejoin:round; stroke-width:4; stroke-opacity:1; fill:none" points="1409.33,1495.09 1409.33,1476.19 "/>
<polyline clip-path="url(#clip650)" style="stroke:#000000; stroke-linecap:round; stroke-linejoin:round; stroke-width:4; stroke-opacity:1; fill:none" points="2137.92,1495.09 2137.92,1476.19 "/>
<polyline clip-path="url(#clip650)" style="stroke:#000000; stroke-linecap:round; stroke-linejoin:round; stroke-width:4; stroke-opacity:1; fill:none" points="2866.52,1495.09 2866.52,1476.19 "/>
<path clip-path="url(#clip650)" d="M614.609 1547.68 Q616.113 1548.19 617.525 1549.86 Q618.961 1551.53 620.396 1554.44 L625.141 1563.89 L620.118 1563.89 L615.697 1555.02 Q613.984 1551.55 612.363 1550.42 Q610.766 1549.28 607.988 1549.28 L602.896 1549.28 L602.896 1563.89 L598.22 1563.89 L598.22 1529.33 L608.775 1529.33 Q614.701 1529.33 617.618 1531.8 Q620.535 1534.28 620.535 1539.28 Q620.535 1542.55 619.007 1544.7 Q617.502 1546.85 614.609 1547.68 M602.896 1533.17 L602.896 1545.44 L608.775 1545.44 Q612.155 1545.44 613.868 1543.89 Q615.604 1542.31 615.604 1539.28 Q615.604 1536.25 613.868 1534.72 Q612.155 1533.17 608.775 1533.17 L602.896 1533.17 Z" fill="#000000" fill-rule="nonzero" fill-opacity="1" /><path clip-path="url(#clip650)" d="M638.891 1540.95 Q635.465 1540.95 633.474 1543.63 Q631.484 1546.3 631.484 1550.95 Q631.484 1555.6 633.451 1558.29 Q635.442 1560.95 638.891 1560.95 Q642.294 1560.95 644.284 1558.26 Q646.275 1555.58 646.275 1550.95 Q646.275 1546.34 644.284 1543.66 Q642.294 1540.95 638.891 1540.95 M638.891 1537.34 Q644.447 1537.34 647.618 1540.95 Q650.789 1544.56 650.789 1550.95 Q650.789 1557.31 647.618 1560.95 Q644.447 1564.56 638.891 1564.56 Q633.312 1564.56 630.141 1560.95 Q626.993 1557.31 626.993 1550.95 Q626.993 1544.56 630.141 1540.95 Q633.312 1537.34 638.891 1537.34 Z" fill="#000000" fill-rule="nonzero" fill-opacity="1" /><path clip-path="url(#clip650)" d="M674.909 1541.9 L674.909 1527.87 L679.169 1527.87 L679.169 1563.89 L674.909 1563.89 L674.909 1560 Q673.567 1562.31 671.507 1563.45 Q669.47 1564.56 666.599 1564.56 Q661.9 1564.56 658.937 1560.81 Q655.997 1557.06 655.997 1550.95 Q655.997 1544.84 658.937 1541.09 Q661.9 1537.34 666.599 1537.34 Q669.47 1537.34 671.507 1538.47 Q673.567 1539.58 674.909 1541.9 M660.396 1550.95 Q660.396 1555.65 662.317 1558.33 Q664.261 1560.99 667.641 1560.99 Q671.02 1560.99 672.965 1558.33 Q674.909 1555.65 674.909 1550.95 Q674.909 1546.25 672.965 1543.59 Q671.02 1540.9 667.641 1540.9 Q664.261 1540.9 662.317 1543.59 Q660.396 1546.25 660.396 1550.95 Z" fill="#000000" fill-rule="nonzero" fill-opacity="1" /><path clip-path="url(#clip650)" d="M699.724 1550.86 Q694.562 1550.86 692.571 1552.04 Q690.581 1553.22 690.581 1556.06 Q690.581 1558.33 692.062 1559.67 Q693.567 1560.99 696.136 1560.99 Q699.678 1560.99 701.807 1558.49 Q703.96 1555.97 703.96 1551.8 L703.96 1550.86 L699.724 1550.86 M708.219 1549.1 L708.219 1563.89 L703.96 1563.89 L703.96 1559.95 Q702.502 1562.31 700.326 1563.45 Q698.15 1564.56 695.002 1564.56 Q691.02 1564.56 688.659 1562.34 Q686.321 1560.09 686.321 1556.34 Q686.321 1551.97 689.238 1549.74 Q692.178 1547.52 697.988 1547.52 L703.96 1547.52 L703.96 1547.11 Q703.96 1544.17 702.016 1542.57 Q700.094 1540.95 696.599 1540.95 Q694.377 1540.95 692.27 1541.48 Q690.164 1542.01 688.219 1543.08 L688.219 1539.14 Q690.557 1538.24 692.756 1537.8 Q694.956 1537.34 697.039 1537.34 Q702.664 1537.34 705.442 1540.25 Q708.219 1543.17 708.219 1549.1 Z" fill="#000000" fill-rule="nonzero" fill-opacity="1" /><path clip-path="url(#clip650)" d="M733.52 1538.73 L733.52 1542.75 Q731.715 1541.83 729.77 1541.36 Q727.826 1540.9 725.742 1540.9 Q722.571 1540.9 720.974 1541.87 Q719.4 1542.85 719.4 1544.79 Q719.4 1546.27 720.534 1547.13 Q721.668 1547.96 725.094 1548.73 L726.553 1549.05 Q731.09 1550.02 732.988 1551.8 Q734.909 1553.56 734.909 1556.74 Q734.909 1560.35 732.039 1562.45 Q729.191 1564.56 724.191 1564.56 Q722.108 1564.56 719.84 1564.14 Q717.594 1563.75 715.094 1562.94 L715.094 1558.54 Q717.455 1559.77 719.747 1560.39 Q722.039 1560.99 724.284 1560.99 Q727.293 1560.99 728.914 1559.98 Q730.534 1558.93 730.534 1557.06 Q730.534 1555.32 729.353 1554.4 Q728.196 1553.47 724.238 1552.61 L722.756 1552.27 Q718.798 1551.43 717.039 1549.72 Q715.279 1547.99 715.279 1544.98 Q715.279 1541.32 717.872 1539.33 Q720.465 1537.34 725.233 1537.34 Q727.594 1537.34 729.678 1537.68 Q731.761 1538.03 733.52 1538.73 Z" fill="#000000" fill-rule="nonzero" fill-opacity="1" /><path clip-path="url(#clip650)" d="M742.34 1529.33 L760.696 1529.33 L760.696 1533.26 L746.622 1533.26 L746.622 1541.74 Q747.64 1541.39 748.659 1541.23 Q749.677 1541.04 750.696 1541.04 Q756.483 1541.04 759.863 1544.21 Q763.242 1547.38 763.242 1552.8 Q763.242 1558.38 759.77 1561.48 Q756.298 1564.56 749.978 1564.56 Q747.802 1564.56 745.534 1564.19 Q743.289 1563.82 740.881 1563.08 L740.881 1558.38 Q742.965 1559.51 745.187 1560.07 Q747.409 1560.62 749.886 1560.62 Q753.89 1560.62 756.228 1558.52 Q758.566 1556.41 758.566 1552.8 Q758.566 1549.19 756.228 1547.08 Q753.89 1544.98 749.886 1544.98 Q748.011 1544.98 746.136 1545.39 Q744.284 1545.81 742.34 1546.69 L742.34 1529.33 Z" fill="#000000" fill-rule="nonzero" fill-opacity="1" /><path clip-path="url(#clip650)" d="M1342.46 1547.68 Q1343.97 1548.19 1345.38 1549.86 Q1346.82 1551.53 1348.25 1554.44 L1353 1563.89 L1347.97 1563.89 L1343.55 1555.02 Q1341.84 1551.55 1340.22 1550.42 Q1338.62 1549.28 1335.84 1549.28 L1330.75 1549.28 L1330.75 1563.89 L1326.08 1563.89 L1326.08 1529.33 L1336.63 1529.33 Q1342.56 1529.33 1345.47 1531.8 Q1348.39 1534.28 1348.39 1539.28 Q1348.39 1542.55 1346.86 1544.7 Q1345.36 1546.85 1342.46 1547.68 M1330.75 1533.17 L1330.75 1545.44 L1336.63 1545.44 Q1340.01 1545.44 1341.72 1543.89 Q1343.46 1542.31 1343.46 1539.28 Q1343.46 1536.25 1341.72 1534.72 Q1340.01 1533.17 1336.63 1533.17 L1330.75 1533.17 Z" fill="#000000" fill-rule="nonzero" fill-opacity="1" /><path clip-path="url(#clip650)" d="M1366.75 1540.95 Q1363.32 1540.95 1361.33 1543.63 Q1359.34 1546.3 1359.34 1550.95 Q1359.34 1555.6 1361.31 1558.29 Q1363.3 1560.95 1366.75 1560.95 Q1370.15 1560.95 1372.14 1558.26 Q1374.13 1555.58 1374.13 1550.95 Q1374.13 1546.34 1372.14 1543.66 Q1370.15 1540.95 1366.75 1540.95 M1366.75 1537.34 Q1372.3 1537.34 1375.47 1540.95 Q1378.65 1544.56 1378.65 1550.95 Q1378.65 1557.31 1375.47 1560.95 Q1372.3 1564.56 1366.75 1564.56 Q1361.17 1564.56 1358 1560.95 Q1354.85 1557.31 1354.85 1550.95 Q1354.85 1544.56 1358 1540.95 Q1361.17 1537.34 1366.75 1537.34 Z" fill="#000000" fill-rule="nonzero" fill-opacity="1" /><path clip-path="url(#clip650)" d="M1402.77 1541.9 L1402.77 1527.87 L1407.02 1527.87 L1407.02 1563.89 L1402.77 1563.89 L1402.77 1560 Q1401.42 1562.31 1399.36 1563.45 Q1397.33 1564.56 1394.46 1564.56 Q1389.76 1564.56 1386.79 1560.81 Q1383.85 1557.06 1383.85 1550.95 Q1383.85 1544.84 1386.79 1541.09 Q1389.76 1537.34 1394.46 1537.34 Q1397.33 1537.34 1399.36 1538.47 Q1401.42 1539.58 1402.77 1541.9 M1388.25 1550.95 Q1388.25 1555.65 1390.17 1558.33 Q1392.12 1560.99 1395.5 1560.99 Q1398.88 1560.99 1400.82 1558.33 Q1402.77 1555.65 1402.77 1550.95 Q1402.77 1546.25 1400.82 1543.59 Q1398.88 1540.9 1395.5 1540.9 Q1392.12 1540.9 1390.17 1543.59 Q1388.25 1546.25 1388.25 1550.95 Z" fill="#000000" fill-rule="nonzero" fill-opacity="1" /><path clip-path="url(#clip650)" d="M1427.58 1550.86 Q1422.42 1550.86 1420.43 1552.04 Q1418.44 1553.22 1418.44 1556.06 Q1418.44 1558.33 1419.92 1559.67 Q1421.42 1560.99 1423.99 1560.99 Q1427.53 1560.99 1429.66 1558.49 Q1431.82 1555.97 1431.82 1551.8 L1431.82 1550.86 L1427.58 1550.86 M1436.08 1549.1 L1436.08 1563.89 L1431.82 1563.89 L1431.82 1559.95 Q1430.36 1562.31 1428.18 1563.45 Q1426.01 1564.56 1422.86 1564.56 Q1418.88 1564.56 1416.52 1562.34 Q1414.18 1560.09 1414.18 1556.34 Q1414.18 1551.97 1417.09 1549.74 Q1420.03 1547.52 1425.84 1547.52 L1431.82 1547.52 L1431.82 1547.11 Q1431.82 1544.17 1429.87 1542.57 Q1427.95 1540.95 1424.46 1540.95 Q1422.23 1540.95 1420.13 1541.48 Q1418.02 1542.01 1416.08 1543.08 L1416.08 1539.14 Q1418.41 1538.24 1420.61 1537.8 Q1422.81 1537.34 1424.89 1537.34 Q1430.52 1537.34 1433.3 1540.25 Q1436.08 1543.17 1436.08 1549.1 Z" fill="#000000" fill-rule="nonzero" fill-opacity="1" /><path clip-path="url(#clip650)" d="M1461.38 1538.73 L1461.38 1542.75 Q1459.57 1541.83 1457.63 1541.36 Q1455.68 1540.9 1453.6 1540.9 Q1450.43 1540.9 1448.83 1541.87 Q1447.26 1542.85 1447.26 1544.79 Q1447.26 1546.27 1448.39 1547.13 Q1449.52 1547.96 1452.95 1548.73 L1454.41 1549.05 Q1458.95 1550.02 1460.84 1551.8 Q1462.77 1553.56 1462.77 1556.74 Q1462.77 1560.35 1459.89 1562.45 Q1457.05 1564.56 1452.05 1564.56 Q1449.96 1564.56 1447.7 1564.14 Q1445.45 1563.75 1442.95 1562.94 L1442.95 1558.54 Q1445.31 1559.77 1447.6 1560.39 Q1449.89 1560.99 1452.14 1560.99 Q1455.15 1560.99 1456.77 1559.98 Q1458.39 1558.93 1458.39 1557.06 Q1458.39 1555.32 1457.21 1554.4 Q1456.05 1553.47 1452.09 1552.61 L1450.61 1552.27 Q1446.65 1551.43 1444.89 1549.72 Q1443.14 1547.99 1443.14 1544.98 Q1443.14 1541.32 1445.73 1539.33 Q1448.32 1537.34 1453.09 1537.34 Q1455.45 1537.34 1457.53 1537.68 Q1459.62 1538.03 1461.38 1538.73 Z" fill="#000000" fill-rule="nonzero" fill-opacity="1" /><path clip-path="url(#clip650)" d="M1483 1533.4 L1471.19 1551.85 L1483 1551.85 L1483 1533.4 M1481.77 1529.33 L1487.65 1529.33 L1487.65 1551.85 L1492.58 1551.85 L1492.58 1555.74 L1487.65 1555.74 L1487.65 1563.89 L1483 1563.89 L1483 1555.74 L1467.39 1555.74 L1467.39 1551.23 L1481.77 1529.33 Z" fill="#000000" fill-rule="nonzero" fill-opacity="1" /><path clip-path="url(#clip650)" d="M2056.25 1547.68 Q2057.75 1548.19 2059.16 1549.86 Q2060.6 1551.53 2062.03 1554.44 L2066.78 1563.89 L2061.76 1563.89 L2057.33 1555.02 Q2055.62 1551.55 2054 1550.42 Q2052.4 1549.28 2049.63 1549.28 L2044.53 1549.28 L2044.53 1563.89 L2039.86 1563.89 L2039.86 1529.33 L2050.41 1529.33 Q2056.34 1529.33 2059.26 1531.8 Q2062.17 1534.28 2062.17 1539.28 Q2062.17 1542.55 2060.64 1544.7 Q2059.14 1546.85 2056.25 1547.68 M2044.53 1533.17 L2044.53 1545.44 L2050.41 1545.44 Q2053.79 1545.44 2055.51 1543.89 Q2057.24 1542.31 2057.24 1539.28 Q2057.24 1536.25 2055.51 1534.72 Q2053.79 1533.17 2050.41 1533.17 L2044.53 1533.17 Z" fill="#000000" fill-rule="nonzero" fill-opacity="1" /><path clip-path="url(#clip650)" d="M2080.53 1540.95 Q2077.1 1540.95 2075.11 1543.63 Q2073.12 1546.3 2073.12 1550.95 Q2073.12 1555.6 2075.09 1558.29 Q2077.08 1560.95 2080.53 1560.95 Q2083.93 1560.95 2085.92 1558.26 Q2087.91 1555.58 2087.91 1550.95 Q2087.91 1546.34 2085.92 1543.66 Q2083.93 1540.95 2080.53 1540.95 M2080.53 1537.34 Q2086.08 1537.34 2089.26 1540.95 Q2092.43 1544.56 2092.43 1550.95 Q2092.43 1557.31 2089.26 1560.95 Q2086.08 1564.56 2080.53 1564.56 Q2074.95 1564.56 2071.78 1560.95 Q2068.63 1557.31 2068.63 1550.95 Q2068.63 1544.56 2071.78 1540.95 Q2074.95 1537.34 2080.53 1537.34 Z" fill="#000000" fill-rule="nonzero" fill-opacity="1" /><path clip-path="url(#clip650)" d="M2116.55 1541.9 L2116.55 1527.87 L2120.81 1527.87 L2120.81 1563.89 L2116.55 1563.89 L2116.55 1560 Q2115.2 1562.31 2113.14 1563.45 Q2111.11 1564.56 2108.24 1564.56 Q2103.54 1564.56 2100.58 1560.81 Q2097.64 1557.06 2097.64 1550.95 Q2097.64 1544.84 2100.58 1541.09 Q2103.54 1537.34 2108.24 1537.34 Q2111.11 1537.34 2113.14 1538.47 Q2115.2 1539.58 2116.55 1541.9 M2102.03 1550.95 Q2102.03 1555.65 2103.95 1558.33 Q2105.9 1560.99 2109.28 1560.99 Q2112.66 1560.99 2114.6 1558.33 Q2116.55 1555.65 2116.55 1550.95 Q2116.55 1546.25 2114.6 1543.59 Q2112.66 1540.9 2109.28 1540.9 Q2105.9 1540.9 2103.95 1543.59 Q2102.03 1546.25 2102.03 1550.95 Z" fill="#000000" fill-rule="nonzero" fill-opacity="1" /><path clip-path="url(#clip650)" d="M2141.36 1550.86 Q2136.2 1550.86 2134.21 1552.04 Q2132.22 1553.22 2132.22 1556.06 Q2132.22 1558.33 2133.7 1559.67 Q2135.2 1560.99 2137.77 1560.99 Q2141.32 1560.99 2143.45 1558.49 Q2145.6 1555.97 2145.6 1551.8 L2145.6 1550.86 L2141.36 1550.86 M2149.86 1549.1 L2149.86 1563.89 L2145.6 1563.89 L2145.6 1559.95 Q2144.14 1562.31 2141.96 1563.45 Q2139.79 1564.56 2136.64 1564.56 Q2132.66 1564.56 2130.3 1562.34 Q2127.96 1560.09 2127.96 1556.34 Q2127.96 1551.97 2130.88 1549.74 Q2133.82 1547.52 2139.63 1547.52 L2145.6 1547.52 L2145.6 1547.11 Q2145.6 1544.17 2143.65 1542.57 Q2141.73 1540.95 2138.24 1540.95 Q2136.01 1540.95 2133.91 1541.48 Q2131.8 1542.01 2129.86 1543.08 L2129.86 1539.14 Q2132.2 1538.24 2134.39 1537.8 Q2136.59 1537.34 2138.68 1537.34 Q2144.3 1537.34 2147.08 1540.25 Q2149.86 1543.17 2149.86 1549.1 Z" fill="#000000" fill-rule="nonzero" fill-opacity="1" /><path clip-path="url(#clip650)" d="M2175.16 1538.73 L2175.16 1542.75 Q2173.35 1541.83 2171.41 1541.36 Q2169.46 1540.9 2167.38 1540.9 Q2164.21 1540.9 2162.61 1541.87 Q2161.04 1542.85 2161.04 1544.79 Q2161.04 1546.27 2162.17 1547.13 Q2163.31 1547.96 2166.73 1548.73 L2168.19 1549.05 Q2172.73 1550.02 2174.63 1551.8 Q2176.55 1553.56 2176.55 1556.74 Q2176.55 1560.35 2173.68 1562.45 Q2170.83 1564.56 2165.83 1564.56 Q2163.75 1564.56 2161.48 1564.14 Q2159.23 1563.75 2156.73 1562.94 L2156.73 1558.54 Q2159.09 1559.77 2161.39 1560.39 Q2163.68 1560.99 2165.92 1560.99 Q2168.93 1560.99 2170.55 1559.98 Q2172.17 1558.93 2172.17 1557.06 Q2172.17 1555.32 2170.99 1554.4 Q2169.83 1553.47 2165.88 1552.61 L2164.39 1552.27 Q2160.44 1551.43 2158.68 1549.72 Q2156.92 1547.99 2156.92 1544.98 Q2156.92 1541.32 2159.51 1539.33 Q2162.1 1537.34 2166.87 1537.34 Q2169.23 1537.34 2171.32 1537.68 Q2173.4 1538.03 2175.16 1538.73 Z" fill="#000000" fill-rule="nonzero" fill-opacity="1" /><path clip-path="url(#clip650)" d="M2183.98 1529.33 L2202.33 1529.33 L2202.33 1533.26 L2188.26 1533.26 L2188.26 1541.74 Q2189.28 1541.39 2190.3 1541.23 Q2191.32 1541.04 2192.33 1541.04 Q2198.12 1541.04 2201.5 1544.21 Q2204.88 1547.38 2204.88 1552.8 Q2204.88 1558.38 2201.41 1561.48 Q2197.94 1564.56 2191.62 1564.56 Q2189.44 1564.56 2187.17 1564.19 Q2184.93 1563.82 2182.52 1563.08 L2182.52 1558.38 Q2184.6 1559.51 2186.82 1560.07 Q2189.05 1560.62 2191.52 1560.62 Q2195.53 1560.62 2197.87 1558.52 Q2200.2 1556.41 2200.2 1552.8 Q2200.2 1549.19 2197.87 1547.08 Q2195.53 1544.98 2191.52 1544.98 Q2189.65 1544.98 2187.77 1545.39 Q2185.92 1545.81 2183.98 1546.69 L2183.98 1529.33 Z" fill="#000000" fill-rule="nonzero" fill-opacity="1" /><path clip-path="url(#clip650)" d="M2218.35 1533.17 L2218.35 1546.16 L2224.23 1546.16 Q2227.5 1546.16 2229.28 1544.47 Q2231.06 1542.78 2231.06 1539.65 Q2231.06 1536.55 2229.28 1534.86 Q2227.5 1533.17 2224.23 1533.17 L2218.35 1533.17 M2213.68 1529.33 L2224.23 1529.33 Q2230.04 1529.33 2233.01 1531.97 Q2235.99 1534.58 2235.99 1539.65 Q2235.99 1544.77 2233.01 1547.38 Q2230.04 1550 2224.23 1550 L2218.35 1550 L2218.35 1563.89 L2213.68 1563.89 L2213.68 1529.33 Z" fill="#000000" fill-rule="nonzero" fill-opacity="1" /><path clip-path="url(#clip650)" d="M2784.84 1547.68 Q2786.35 1548.19 2787.76 1549.86 Q2789.2 1551.53 2790.63 1554.44 L2795.38 1563.89 L2790.35 1563.89 L2785.93 1555.02 Q2784.22 1551.55 2782.6 1550.42 Q2781 1549.28 2778.22 1549.28 L2773.13 1549.28 L2773.13 1563.89 L2768.45 1563.89 L2768.45 1529.33 L2779.01 1529.33 Q2784.94 1529.33 2787.85 1531.8 Q2790.77 1534.28 2790.77 1539.28 Q2790.77 1542.55 2789.24 1544.7 Q2787.74 1546.85 2784.84 1547.68 M2773.13 1533.17 L2773.13 1545.44 L2779.01 1545.44 Q2782.39 1545.44 2784.1 1543.89 Q2785.84 1542.31 2785.84 1539.28 Q2785.84 1536.25 2784.1 1534.72 Q2782.39 1533.17 2779.01 1533.17 L2773.13 1533.17 Z" fill="#000000" fill-rule="nonzero" fill-opacity="1" /><path clip-path="url(#clip650)" d="M2809.13 1540.95 Q2805.7 1540.95 2803.71 1543.63 Q2801.72 1546.3 2801.72 1550.95 Q2801.72 1555.6 2803.69 1558.29 Q2805.68 1560.95 2809.13 1560.95 Q2812.53 1560.95 2814.52 1558.26 Q2816.51 1555.58 2816.51 1550.95 Q2816.51 1546.34 2814.52 1543.66 Q2812.53 1540.95 2809.13 1540.95 M2809.13 1537.34 Q2814.68 1537.34 2817.85 1540.95 Q2821.02 1544.56 2821.02 1550.95 Q2821.02 1557.31 2817.85 1560.95 Q2814.68 1564.56 2809.13 1564.56 Q2803.55 1564.56 2800.38 1560.95 Q2797.23 1557.31 2797.23 1550.95 Q2797.23 1544.56 2800.38 1540.95 Q2803.55 1537.34 2809.13 1537.34 Z" fill="#000000" fill-rule="nonzero" fill-opacity="1" /><path clip-path="url(#clip650)" d="M2845.14 1541.9 L2845.14 1527.87 L2849.4 1527.87 L2849.4 1563.89 L2845.14 1563.89 L2845.14 1560 Q2843.8 1562.31 2841.74 1563.45 Q2839.7 1564.56 2836.83 1564.56 Q2832.14 1564.56 2829.17 1560.81 Q2826.23 1557.06 2826.23 1550.95 Q2826.23 1544.84 2829.17 1541.09 Q2832.14 1537.34 2836.83 1537.34 Q2839.7 1537.34 2841.74 1538.47 Q2843.8 1539.58 2845.14 1541.9 M2830.63 1550.95 Q2830.63 1555.65 2832.55 1558.33 Q2834.5 1560.99 2837.88 1560.99 Q2841.26 1560.99 2843.2 1558.33 Q2845.14 1555.65 2845.14 1550.95 Q2845.14 1546.25 2843.2 1543.59 Q2841.26 1540.9 2837.88 1540.9 Q2834.5 1540.9 2832.55 1543.59 Q2830.63 1546.25 2830.63 1550.95 Z" fill="#000000" fill-rule="nonzero" fill-opacity="1" /><path clip-path="url(#clip650)" d="M2869.96 1550.86 Q2864.8 1550.86 2862.81 1552.04 Q2860.82 1553.22 2860.82 1556.06 Q2860.82 1558.33 2862.3 1559.67 Q2863.8 1560.99 2866.37 1560.99 Q2869.91 1560.99 2872.04 1558.49 Q2874.2 1555.97 2874.2 1551.8 L2874.2 1550.86 L2869.96 1550.86 M2878.45 1549.1 L2878.45 1563.89 L2874.2 1563.89 L2874.2 1559.95 Q2872.74 1562.31 2870.56 1563.45 Q2868.38 1564.56 2865.24 1564.56 Q2861.26 1564.56 2858.89 1562.34 Q2856.56 1560.09 2856.56 1556.34 Q2856.56 1551.97 2859.47 1549.74 Q2862.41 1547.52 2868.22 1547.52 L2874.2 1547.52 L2874.2 1547.11 Q2874.2 1544.17 2872.25 1542.57 Q2870.33 1540.95 2866.83 1540.95 Q2864.61 1540.95 2862.51 1541.48 Q2860.4 1542.01 2858.45 1543.08 L2858.45 1539.14 Q2860.79 1538.24 2862.99 1537.8 Q2865.19 1537.34 2867.27 1537.34 Q2872.9 1537.34 2875.68 1540.25 Q2878.45 1543.17 2878.45 1549.1 Z" fill="#000000" fill-rule="nonzero" fill-opacity="1" /><path clip-path="url(#clip650)" d="M2903.76 1538.73 L2903.76 1542.75 Q2901.95 1541.83 2900.01 1541.36 Q2898.06 1540.9 2895.98 1540.9 Q2892.81 1540.9 2891.21 1541.87 Q2889.63 1542.85 2889.63 1544.79 Q2889.63 1546.27 2890.77 1547.13 Q2891.9 1547.96 2895.33 1548.73 L2896.79 1549.05 Q2901.32 1550.02 2903.22 1551.8 Q2905.14 1553.56 2905.14 1556.74 Q2905.14 1560.35 2902.27 1562.45 Q2899.43 1564.56 2894.43 1564.56 Q2892.34 1564.56 2890.07 1564.14 Q2887.83 1563.75 2885.33 1562.94 L2885.33 1558.54 Q2887.69 1559.77 2889.98 1560.39 Q2892.27 1560.99 2894.52 1560.99 Q2897.53 1560.99 2899.15 1559.98 Q2900.77 1558.93 2900.77 1557.06 Q2900.77 1555.32 2899.59 1554.4 Q2898.43 1553.47 2894.47 1552.61 L2892.99 1552.27 Q2889.03 1551.43 2887.27 1549.72 Q2885.51 1547.99 2885.51 1544.98 Q2885.51 1541.32 2888.11 1539.33 Q2890.7 1537.34 2895.47 1537.34 Q2897.83 1537.34 2899.91 1537.68 Q2902 1538.03 2903.76 1538.73 Z" fill="#000000" fill-rule="nonzero" fill-opacity="1" /><path clip-path="url(#clip650)" d="M2925.38 1533.4 L2913.57 1551.85 L2925.38 1551.85 L2925.38 1533.4 M2924.15 1529.33 L2930.03 1529.33 L2930.03 1551.85 L2934.96 1551.85 L2934.96 1555.74 L2930.03 1555.74 L2930.03 1563.89 L2925.38 1563.89 L2925.38 1555.74 L2909.77 1555.74 L2909.77 1551.23 L2924.15 1529.33 Z" fill="#000000" fill-rule="nonzero" fill-opacity="1" /><path clip-path="url(#clip650)" d="M2946.95 1533.17 L2946.95 1546.16 L2952.83 1546.16 Q2956.09 1546.16 2957.88 1544.47 Q2959.66 1542.78 2959.66 1539.65 Q2959.66 1536.55 2957.88 1534.86 Q2956.09 1533.17 2952.83 1533.17 L2946.95 1533.17 M2942.27 1529.33 L2952.83 1529.33 Q2958.64 1529.33 2961.6 1531.97 Q2964.59 1534.58 2964.59 1539.65 Q2964.59 1544.77 2961.6 1547.38 Q2958.64 1550 2952.83 1550 L2946.95 1550 L2946.95 1563.89 L2942.27 1563.89 L2942.27 1529.33 Z" fill="#000000" fill-rule="nonzero" fill-opacity="1" /><polyline clip-path="url(#clip650)" style="stroke:#000000; stroke-linecap:round; stroke-linejoin:round; stroke-width:4; stroke-opacity:1; fill:none" points="394.497,1495.09 394.497,47.2441 "/>
<polyline clip-path="url(#clip650)" style="stroke:#000000; stroke-linecap:round; stroke-linejoin:round; stroke-width:4; stroke-opacity:1; fill:none" points="394.497,1230.72 413.394,1230.72 "/>
<polyline clip-path="url(#clip650)" style="stroke:#000000; stroke-linecap:round; stroke-linejoin:round; stroke-width:4; stroke-opacity:1; fill:none" points="394.497,935.598 413.394,935.598 "/>
<polyline clip-path="url(#clip650)" style="stroke:#000000; stroke-linecap:round; stroke-linejoin:round; stroke-width:4; stroke-opacity:1; fill:none" points="394.497,640.475 413.394,640.475 "/>
<polyline clip-path="url(#clip650)" style="stroke:#000000; stroke-linecap:round; stroke-linejoin:round; stroke-width:4; stroke-opacity:1; fill:none" points="394.497,345.352 413.394,345.352 "/>
<polyline clip-path="url(#clip650)" style="stroke:#000000; stroke-linecap:round; stroke-linejoin:round; stroke-width:4; stroke-opacity:1; fill:none" points="394.497,50.2288 413.394,50.2288 "/>
<path clip-path="url(#clip650)" d="M98.3802 1219.89 L120.602 1219.89 L120.602 1221.88 L108.056 1254.45 L103.172 1254.45 L114.977 1223.82 L98.3802 1223.82 L98.3802 1219.89 Z" fill="#000000" fill-rule="nonzero" fill-opacity="1" /><path clip-path="url(#clip650)" d="M129.723 1248.57 L134.607 1248.57 L134.607 1254.45 L129.723 1254.45 L129.723 1248.57 Z" fill="#000000" fill-rule="nonzero" fill-opacity="1" /><path clip-path="url(#clip650)" d="M144.838 1219.89 L163.195 1219.89 L163.195 1223.82 L149.121 1223.82 L149.121 1232.3 Q150.139 1231.95 151.158 1231.79 Q152.176 1231.6 153.195 1231.6 Q158.982 1231.6 162.361 1234.77 Q165.741 1237.94 165.741 1243.36 Q165.741 1248.94 162.269 1252.04 Q158.797 1255.12 152.477 1255.12 Q150.301 1255.12 148.033 1254.75 Q145.787 1254.38 143.38 1253.64 L143.38 1248.94 Q145.463 1250.07 147.685 1250.63 Q149.908 1251.19 152.384 1251.19 Q156.389 1251.19 158.727 1249.08 Q161.065 1246.97 161.065 1243.36 Q161.065 1239.75 158.727 1237.64 Q156.389 1235.54 152.384 1235.54 Q150.51 1235.54 148.635 1235.95 Q146.783 1236.37 144.838 1237.25 L144.838 1219.89 Z" fill="#000000" fill-rule="nonzero" fill-opacity="1" /><path clip-path="url(#clip650)" d="M184.954 1222.97 Q181.343 1222.97 179.514 1226.53 Q177.708 1230.07 177.708 1237.2 Q177.708 1244.31 179.514 1247.88 Q181.343 1251.42 184.954 1251.42 Q188.588 1251.42 190.394 1247.88 Q192.222 1244.31 192.222 1237.2 Q192.222 1230.07 190.394 1226.53 Q188.588 1222.97 184.954 1222.97 M184.954 1219.26 Q190.764 1219.26 193.819 1223.87 Q196.898 1228.45 196.898 1237.2 Q196.898 1245.93 193.819 1250.54 Q190.764 1255.12 184.954 1255.12 Q179.144 1255.12 176.065 1250.54 Q173.009 1245.93 173.009 1237.2 Q173.009 1228.45 176.065 1223.87 Q179.144 1219.26 184.954 1219.26 Z" fill="#000000" fill-rule="nonzero" fill-opacity="1" /><path clip-path="url(#clip650)" d="M215.116 1222.97 Q211.505 1222.97 209.676 1226.53 Q207.87 1230.07 207.87 1237.2 Q207.87 1244.31 209.676 1247.88 Q211.505 1251.42 215.116 1251.42 Q218.75 1251.42 220.555 1247.88 Q222.384 1244.31 222.384 1237.2 Q222.384 1230.07 220.555 1226.53 Q218.75 1222.97 215.116 1222.97 M215.116 1219.26 Q220.926 1219.26 223.981 1223.87 Q227.06 1228.45 227.06 1237.2 Q227.06 1245.93 223.981 1250.54 Q220.926 1255.12 215.116 1255.12 Q209.305 1255.12 206.227 1250.54 Q203.171 1245.93 203.171 1237.2 Q203.171 1228.45 206.227 1223.87 Q209.305 1219.26 215.116 1219.26 Z" fill="#000000" fill-rule="nonzero" fill-opacity="1" /><path clip-path="url(#clip650)" d="M263.449 1228.99 L252.87 1239.61 L263.449 1250.19 L260.694 1252.99 L250.069 1242.37 L239.444 1252.99 L236.713 1250.19 L247.268 1239.61 L236.713 1228.99 L239.444 1226.19 L250.069 1236.81 L260.694 1226.19 L263.449 1228.99 Z" fill="#000000" fill-rule="nonzero" fill-opacity="1" /><path clip-path="url(#clip650)" d="M275.81 1250.51 L283.449 1250.51 L283.449 1224.15 L275.138 1225.82 L275.138 1221.56 L283.402 1219.89 L288.078 1219.89 L288.078 1250.51 L295.717 1250.51 L295.717 1254.45 L275.81 1254.45 L275.81 1250.51 Z" fill="#000000" fill-rule="nonzero" fill-opacity="1" /><path clip-path="url(#clip650)" d="M315.161 1222.97 Q311.55 1222.97 309.722 1226.53 Q307.916 1230.07 307.916 1237.2 Q307.916 1244.31 309.722 1247.88 Q311.55 1251.42 315.161 1251.42 Q318.796 1251.42 320.601 1247.88 Q322.43 1244.31 322.43 1237.2 Q322.43 1230.07 320.601 1226.53 Q318.796 1222.97 315.161 1222.97 M315.161 1219.26 Q320.972 1219.26 324.027 1223.87 Q327.106 1228.45 327.106 1237.2 Q327.106 1245.93 324.027 1250.54 Q320.972 1255.12 315.161 1255.12 Q309.351 1255.12 306.273 1250.54 Q303.217 1245.93 303.217 1237.2 Q303.217 1228.45 306.273 1223.87 Q309.351 1219.26 315.161 1219.26 Z" fill="#000000" fill-rule="nonzero" fill-opacity="1" /><path clip-path="url(#clip650)" d="M337.13 1211.48 Q334.572 1211.48 333.068 1213.23 Q331.582 1214.98 331.582 1218.03 Q331.582 1221.06 333.068 1222.83 Q334.572 1224.57 337.13 1224.57 Q339.688 1224.57 341.174 1222.83 Q342.679 1221.06 342.679 1218.03 Q342.679 1214.98 341.174 1213.23 Q339.688 1211.48 337.13 1211.48 M344.672 1199.58 L344.672 1203.04 Q343.243 1202.36 341.776 1202.01 Q340.328 1201.65 338.898 1201.65 Q335.137 1201.65 333.143 1204.19 Q331.168 1206.73 330.886 1211.86 Q331.996 1210.22 333.67 1209.36 Q335.344 1208.48 337.356 1208.48 Q341.588 1208.48 344.033 1211.05 Q346.497 1213.61 346.497 1218.03 Q346.497 1222.36 343.939 1224.97 Q341.381 1227.58 337.13 1227.58 Q332.259 1227.58 329.682 1223.86 Q327.106 1220.12 327.106 1213.03 Q327.106 1206.37 330.265 1202.42 Q333.425 1198.45 338.748 1198.45 Q340.177 1198.45 341.625 1198.73 Q343.092 1199.02 344.672 1199.58 Z" fill="#000000" fill-rule="nonzero" fill-opacity="1" /><path clip-path="url(#clip650)" d="M101.706 955.391 L109.345 955.391 L109.345 929.025 L101.035 930.692 L101.035 926.433 L109.299 924.766 L113.975 924.766 L113.975 955.391 L121.614 955.391 L121.614 959.326 L101.706 959.326 L101.706 955.391 Z" fill="#000000" fill-rule="nonzero" fill-opacity="1" /><path clip-path="url(#clip650)" d="M131.058 953.446 L135.942 953.446 L135.942 959.326 L131.058 959.326 L131.058 953.446 Z" fill="#000000" fill-rule="nonzero" fill-opacity="1" /><path clip-path="url(#clip650)" d="M156.127 927.845 Q152.516 927.845 150.687 931.409 Q148.882 934.951 148.882 942.081 Q148.882 949.187 150.687 952.752 Q152.516 956.294 156.127 956.294 Q159.761 956.294 161.567 952.752 Q163.396 949.187 163.396 942.081 Q163.396 934.951 161.567 931.409 Q159.761 927.845 156.127 927.845 M156.127 924.141 Q161.937 924.141 164.993 928.747 Q168.072 933.331 168.072 942.081 Q168.072 950.807 164.993 955.414 Q161.937 959.997 156.127 959.997 Q150.317 959.997 147.238 955.414 Q144.183 950.807 144.183 942.081 Q144.183 933.331 147.238 928.747 Q150.317 924.141 156.127 924.141 Z" fill="#000000" fill-rule="nonzero" fill-opacity="1" /><path clip-path="url(#clip650)" d="M186.289 927.845 Q182.678 927.845 180.849 931.409 Q179.044 934.951 179.044 942.081 Q179.044 949.187 180.849 952.752 Q182.678 956.294 186.289 956.294 Q189.923 956.294 191.729 952.752 Q193.558 949.187 193.558 942.081 Q193.558 934.951 191.729 931.409 Q189.923 927.845 186.289 927.845 M186.289 924.141 Q192.099 924.141 195.155 928.747 Q198.233 933.331 198.233 942.081 Q198.233 950.807 195.155 955.414 Q192.099 959.997 186.289 959.997 Q180.479 959.997 177.4 955.414 Q174.345 950.807 174.345 942.081 Q174.345 933.331 177.4 928.747 Q180.479 924.141 186.289 924.141 Z" fill="#000000" fill-rule="nonzero" fill-opacity="1" /><path clip-path="url(#clip650)" d="M216.451 927.845 Q212.84 927.845 211.011 931.409 Q209.206 934.951 209.206 942.081 Q209.206 949.187 211.011 952.752 Q212.84 956.294 216.451 956.294 Q220.085 956.294 221.891 952.752 Q223.719 949.187 223.719 942.081 Q223.719 934.951 221.891 931.409 Q220.085 927.845 216.451 927.845 M216.451 924.141 Q222.261 924.141 225.317 928.747 Q228.395 933.331 228.395 942.081 Q228.395 950.807 225.317 955.414 Q222.261 959.997 216.451 959.997 Q210.641 959.997 207.562 955.414 Q204.507 950.807 204.507 942.081 Q204.507 933.331 207.562 928.747 Q210.641 924.141 216.451 924.141 Z" fill="#000000" fill-rule="nonzero" fill-opacity="1" /><path clip-path="url(#clip650)" d="M264.784 933.863 L254.205 944.488 L264.784 955.067 L262.029 957.868 L251.405 947.243 L240.78 957.868 L238.048 955.067 L248.604 944.488 L238.048 933.863 L240.78 931.062 L251.405 941.687 L262.029 931.062 L264.784 933.863 Z" fill="#000000" fill-rule="nonzero" fill-opacity="1" /><path clip-path="url(#clip650)" d="M277.145 955.391 L284.784 955.391 L284.784 929.025 L276.474 930.692 L276.474 926.433 L284.738 924.766 L289.414 924.766 L289.414 955.391 L297.052 955.391 L297.052 959.326 L277.145 959.326 L277.145 955.391 Z" fill="#000000" fill-rule="nonzero" fill-opacity="1" /><path clip-path="url(#clip650)" d="M316.497 927.845 Q312.886 927.845 311.057 931.409 Q309.251 934.951 309.251 942.081 Q309.251 949.187 311.057 952.752 Q312.886 956.294 316.497 956.294 Q320.131 956.294 321.937 952.752 Q323.765 949.187 323.765 942.081 Q323.765 934.951 321.937 931.409 Q320.131 927.845 316.497 927.845 M316.497 924.141 Q322.307 924.141 325.362 928.747 Q328.441 933.331 328.441 942.081 Q328.441 950.807 325.362 955.414 Q322.307 959.997 316.497 959.997 Q310.687 959.997 307.608 955.414 Q304.552 950.807 304.552 942.081 Q304.552 933.331 307.608 928.747 Q310.687 924.141 316.497 924.141 Z" fill="#000000" fill-rule="nonzero" fill-opacity="1" /><path clip-path="url(#clip650)" d="M328.441 903.836 L346.497 903.836 L346.497 905.453 L336.303 931.916 L332.334 931.916 L341.926 907.033 L328.441 907.033 L328.441 903.836 Z" fill="#000000" fill-rule="nonzero" fill-opacity="1" /><path clip-path="url(#clip650)" d="M101.706 660.268 L109.345 660.268 L109.345 633.902 L101.035 635.569 L101.035 631.309 L109.299 629.643 L113.975 629.643 L113.975 660.268 L121.614 660.268 L121.614 664.203 L101.706 664.203 L101.706 660.268 Z" fill="#000000" fill-rule="nonzero" fill-opacity="1" /><path clip-path="url(#clip650)" d="M131.058 658.323 L135.942 658.323 L135.942 664.203 L131.058 664.203 L131.058 658.323 Z" fill="#000000" fill-rule="nonzero" fill-opacity="1" /><path clip-path="url(#clip650)" d="M150.155 660.268 L166.474 660.268 L166.474 664.203 L144.53 664.203 L144.53 660.268 Q147.192 657.513 151.775 652.883 Q156.382 648.231 157.562 646.888 Q159.808 644.365 160.687 642.629 Q161.59 640.87 161.59 639.18 Q161.59 636.425 159.646 634.689 Q157.724 632.953 154.623 632.953 Q152.424 632.953 149.97 633.717 Q147.539 634.481 144.762 636.032 L144.762 631.309 Q147.586 630.175 150.039 629.596 Q152.493 629.018 154.53 629.018 Q159.9 629.018 163.095 631.703 Q166.289 634.388 166.289 638.879 Q166.289 641.008 165.479 642.93 Q164.692 644.828 162.586 647.42 Q162.007 648.092 158.905 651.309 Q155.803 654.504 150.155 660.268 Z" fill="#000000" fill-rule="nonzero" fill-opacity="1" /><path clip-path="url(#clip650)" d="M176.335 629.643 L194.692 629.643 L194.692 633.578 L180.618 633.578 L180.618 642.05 Q181.636 641.703 182.655 641.541 Q183.673 641.356 184.692 641.356 Q190.479 641.356 193.859 644.527 Q197.238 647.698 197.238 653.115 Q197.238 658.694 193.766 661.795 Q190.294 664.874 183.974 664.874 Q181.798 664.874 179.53 664.504 Q177.285 664.133 174.877 663.393 L174.877 658.694 Q176.96 659.828 179.183 660.383 Q181.405 660.939 183.882 660.939 Q187.886 660.939 190.224 658.832 Q192.562 656.726 192.562 653.115 Q192.562 649.504 190.224 647.397 Q187.886 645.291 183.882 645.291 Q182.007 645.291 180.132 645.708 Q178.28 646.124 176.335 647.004 L176.335 629.643 Z" fill="#000000" fill-rule="nonzero" fill-opacity="1" /><path clip-path="url(#clip650)" d="M216.451 632.721 Q212.84 632.721 211.011 636.286 Q209.206 639.828 209.206 646.957 Q209.206 654.064 211.011 657.629 Q212.84 661.17 216.451 661.17 Q220.085 661.17 221.891 657.629 Q223.719 654.064 223.719 646.957 Q223.719 639.828 221.891 636.286 Q220.085 632.721 216.451 632.721 M216.451 629.018 Q222.261 629.018 225.317 633.624 Q228.395 638.208 228.395 646.957 Q228.395 655.684 225.317 660.291 Q222.261 664.874 216.451 664.874 Q210.641 664.874 207.562 660.291 Q204.507 655.684 204.507 646.957 Q204.507 638.208 207.562 633.624 Q210.641 629.018 216.451 629.018 Z" fill="#000000" fill-rule="nonzero" fill-opacity="1" /><path clip-path="url(#clip650)" d="M264.784 638.74 L254.205 649.365 L264.784 659.944 L262.029 662.744 L251.405 652.12 L240.78 662.744 L238.048 659.944 L248.604 649.365 L238.048 638.74 L240.78 635.939 L251.405 646.564 L262.029 635.939 L264.784 638.74 Z" fill="#000000" fill-rule="nonzero" fill-opacity="1" /><path clip-path="url(#clip650)" d="M277.145 660.268 L284.784 660.268 L284.784 633.902 L276.474 635.569 L276.474 631.309 L284.738 629.643 L289.414 629.643 L289.414 660.268 L297.052 660.268 L297.052 664.203 L277.145 664.203 L277.145 660.268 Z" fill="#000000" fill-rule="nonzero" fill-opacity="1" /><path clip-path="url(#clip650)" d="M316.497 632.721 Q312.886 632.721 311.057 636.286 Q309.251 639.828 309.251 646.957 Q309.251 654.064 311.057 657.629 Q312.886 661.17 316.497 661.17 Q320.131 661.17 321.937 657.629 Q323.765 654.064 323.765 646.957 Q323.765 639.828 321.937 636.286 Q320.131 632.721 316.497 632.721 M316.497 629.018 Q322.307 629.018 325.362 633.624 Q328.441 638.208 328.441 646.957 Q328.441 655.684 325.362 660.291 Q322.307 664.874 316.497 664.874 Q310.687 664.874 307.608 660.291 Q304.552 655.684 304.552 646.957 Q304.552 638.208 307.608 633.624 Q310.687 629.018 316.497 629.018 Z" fill="#000000" fill-rule="nonzero" fill-opacity="1" /><path clip-path="url(#clip650)" d="M328.441 608.712 L346.497 608.712 L346.497 610.33 L336.303 636.792 L332.334 636.792 L341.926 611.91 L328.441 611.91 L328.441 608.712 Z" fill="#000000" fill-rule="nonzero" fill-opacity="1" /><path clip-path="url(#clip650)" d="M101.706 365.144 L109.345 365.144 L109.345 338.779 L101.035 340.445 L101.035 336.186 L109.299 334.52 L113.975 334.52 L113.975 365.144 L121.614 365.144 L121.614 369.08 L101.706 369.08 L101.706 365.144 Z" fill="#000000" fill-rule="nonzero" fill-opacity="1" /><path clip-path="url(#clip650)" d="M131.058 363.2 L135.942 363.2 L135.942 369.08 L131.058 369.08 L131.058 363.2 Z" fill="#000000" fill-rule="nonzero" fill-opacity="1" /><path clip-path="url(#clip650)" d="M146.174 334.52 L164.53 334.52 L164.53 338.455 L150.456 338.455 L150.456 346.927 Q151.474 346.58 152.493 346.418 Q153.512 346.233 154.53 346.233 Q160.317 346.233 163.697 349.404 Q167.076 352.575 167.076 357.992 Q167.076 363.57 163.604 366.672 Q160.132 369.751 153.812 369.751 Q151.637 369.751 149.368 369.381 Q147.123 369.01 144.715 368.269 L144.715 363.57 Q146.799 364.705 149.021 365.26 Q151.243 365.816 153.72 365.816 Q157.724 365.816 160.062 363.709 Q162.4 361.603 162.4 357.992 Q162.4 354.381 160.062 352.274 Q157.724 350.168 153.72 350.168 Q151.845 350.168 149.97 350.584 Q148.118 351.001 146.174 351.881 L146.174 334.52 Z" fill="#000000" fill-rule="nonzero" fill-opacity="1" /><path clip-path="url(#clip650)" d="M186.289 337.598 Q182.678 337.598 180.849 341.163 Q179.044 344.705 179.044 351.834 Q179.044 358.941 180.849 362.506 Q182.678 366.047 186.289 366.047 Q189.923 366.047 191.729 362.506 Q193.558 358.941 193.558 351.834 Q193.558 344.705 191.729 341.163 Q189.923 337.598 186.289 337.598 M186.289 333.895 Q192.099 333.895 195.155 338.501 Q198.233 343.084 198.233 351.834 Q198.233 360.561 195.155 365.168 Q192.099 369.751 186.289 369.751 Q180.479 369.751 177.4 365.168 Q174.345 360.561 174.345 351.834 Q174.345 343.084 177.4 338.501 Q180.479 333.895 186.289 333.895 Z" fill="#000000" fill-rule="nonzero" fill-opacity="1" /><path clip-path="url(#clip650)" d="M216.451 337.598 Q212.84 337.598 211.011 341.163 Q209.206 344.705 209.206 351.834 Q209.206 358.941 211.011 362.506 Q212.84 366.047 216.451 366.047 Q220.085 366.047 221.891 362.506 Q223.719 358.941 223.719 351.834 Q223.719 344.705 221.891 341.163 Q220.085 337.598 216.451 337.598 M216.451 333.895 Q222.261 333.895 225.317 338.501 Q228.395 343.084 228.395 351.834 Q228.395 360.561 225.317 365.168 Q222.261 369.751 216.451 369.751 Q210.641 369.751 207.562 365.168 Q204.507 360.561 204.507 351.834 Q204.507 343.084 207.562 338.501 Q210.641 333.895 216.451 333.895 Z" fill="#000000" fill-rule="nonzero" fill-opacity="1" /><path clip-path="url(#clip650)" d="M264.784 343.617 L254.205 354.242 L264.784 364.82 L262.029 367.621 L251.405 356.996 L240.78 367.621 L238.048 364.82 L248.604 354.242 L238.048 343.617 L240.78 340.816 L251.405 351.441 L262.029 340.816 L264.784 343.617 Z" fill="#000000" fill-rule="nonzero" fill-opacity="1" /><path clip-path="url(#clip650)" d="M277.145 365.144 L284.784 365.144 L284.784 338.779 L276.474 340.445 L276.474 336.186 L284.738 334.52 L289.414 334.52 L289.414 365.144 L297.052 365.144 L297.052 369.08 L277.145 369.08 L277.145 365.144 Z" fill="#000000" fill-rule="nonzero" fill-opacity="1" /><path clip-path="url(#clip650)" d="M316.497 337.598 Q312.886 337.598 311.057 341.163 Q309.251 344.705 309.251 351.834 Q309.251 358.941 311.057 362.506 Q312.886 366.047 316.497 366.047 Q320.131 366.047 321.937 362.506 Q323.765 358.941 323.765 351.834 Q323.765 344.705 321.937 341.163 Q320.131 337.598 316.497 337.598 M316.497 333.895 Q322.307 333.895 325.362 338.501 Q328.441 343.084 328.441 351.834 Q328.441 360.561 325.362 365.168 Q322.307 369.751 316.497 369.751 Q310.687 369.751 307.608 365.168 Q304.552 360.561 304.552 351.834 Q304.552 343.084 307.608 338.501 Q310.687 333.895 316.497 333.895 Z" fill="#000000" fill-rule="nonzero" fill-opacity="1" /><path clip-path="url(#clip650)" d="M328.441 313.589 L346.497 313.589 L346.497 315.207 L336.303 341.669 L332.334 341.669 L341.926 316.787 L328.441 316.787 L328.441 313.589 Z" fill="#000000" fill-rule="nonzero" fill-opacity="1" /><path clip-path="url(#clip650)" d="M101.706 70.0213 L109.345 70.0213 L109.345 43.6557 L101.035 45.3223 L101.035 41.0631 L109.299 39.3964 L113.975 39.3964 L113.975 70.0213 L121.614 70.0213 L121.614 73.9564 L101.706 73.9564 L101.706 70.0213 Z" fill="#000000" fill-rule="nonzero" fill-opacity="1" /><path clip-path="url(#clip650)" d="M131.058 68.0768 L135.942 68.0768 L135.942 73.9564 L131.058 73.9564 L131.058 68.0768 Z" fill="#000000" fill-rule="nonzero" fill-opacity="1" /><path clip-path="url(#clip650)" d="M144.947 39.3964 L167.169 39.3964 L167.169 41.3872 L154.623 73.9564 L149.738 73.9564 L161.544 43.3316 L144.947 43.3316 L144.947 39.3964 Z" fill="#000000" fill-rule="nonzero" fill-opacity="1" /><path clip-path="url(#clip650)" d="M176.335 39.3964 L194.692 39.3964 L194.692 43.3316 L180.618 43.3316 L180.618 51.8038 Q181.636 51.4566 182.655 51.2945 Q183.673 51.1093 184.692 51.1093 Q190.479 51.1093 193.859 54.2806 Q197.238 57.4519 197.238 62.8685 Q197.238 68.4472 193.766 71.549 Q190.294 74.6277 183.974 74.6277 Q181.798 74.6277 179.53 74.2574 Q177.285 73.887 174.877 73.1463 L174.877 68.4472 Q176.96 69.5815 179.183 70.137 Q181.405 70.6926 183.882 70.6926 Q187.886 70.6926 190.224 68.5861 Q192.562 66.4796 192.562 62.8685 Q192.562 59.2574 190.224 57.151 Q187.886 55.0445 183.882 55.0445 Q182.007 55.0445 180.132 55.4612 Q178.28 55.8778 176.335 56.7574 L176.335 39.3964 Z" fill="#000000" fill-rule="nonzero" fill-opacity="1" /><path clip-path="url(#clip650)" d="M216.451 42.4751 Q212.84 42.4751 211.011 46.0399 Q209.206 49.5816 209.206 56.7112 Q209.206 63.8176 211.011 67.3824 Q212.84 70.924 216.451 70.924 Q220.085 70.924 221.891 67.3824 Q223.719 63.8176 223.719 56.7112 Q223.719 49.5816 221.891 46.0399 Q220.085 42.4751 216.451 42.4751 M216.451 38.7714 Q222.261 38.7714 225.317 43.3779 Q228.395 47.9612 228.395 56.7112 Q228.395 65.438 225.317 70.0444 Q222.261 74.6277 216.451 74.6277 Q210.641 74.6277 207.562 70.0444 Q204.507 65.438 204.507 56.7112 Q204.507 47.9612 207.562 43.3779 Q210.641 38.7714 216.451 38.7714 Z" fill="#000000" fill-rule="nonzero" fill-opacity="1" /><path clip-path="url(#clip650)" d="M264.784 48.4936 L254.205 59.1185 L264.784 69.6972 L262.029 72.4981 L251.405 61.8732 L240.78 72.4981 L238.048 69.6972 L248.604 59.1185 L238.048 48.4936 L240.78 45.6927 L251.405 56.3176 L262.029 45.6927 L264.784 48.4936 Z" fill="#000000" fill-rule="nonzero" fill-opacity="1" /><path clip-path="url(#clip650)" d="M277.145 70.0213 L284.784 70.0213 L284.784 43.6557 L276.474 45.3223 L276.474 41.0631 L284.738 39.3964 L289.414 39.3964 L289.414 70.0213 L297.052 70.0213 L297.052 73.9564 L277.145 73.9564 L277.145 70.0213 Z" fill="#000000" fill-rule="nonzero" fill-opacity="1" /><path clip-path="url(#clip650)" d="M316.497 42.4751 Q312.886 42.4751 311.057 46.0399 Q309.251 49.5816 309.251 56.7112 Q309.251 63.8176 311.057 67.3824 Q312.886 70.924 316.497 70.924 Q320.131 70.924 321.937 67.3824 Q323.765 63.8176 323.765 56.7112 Q323.765 49.5816 321.937 46.0399 Q320.131 42.4751 316.497 42.4751 M316.497 38.7714 Q322.307 38.7714 325.362 43.3779 Q328.441 47.9612 328.441 56.7112 Q328.441 65.438 325.362 70.0444 Q322.307 74.6277 316.497 74.6277 Q310.687 74.6277 307.608 70.0444 Q304.552 65.438 304.552 56.7112 Q304.552 47.9612 307.608 43.3779 Q310.687 38.7714 316.497 38.7714 Z" fill="#000000" fill-rule="nonzero" fill-opacity="1" /><path clip-path="url(#clip650)" d="M328.441 18.466 L346.497 18.466 L346.497 20.0835 L336.303 46.546 L332.334 46.546 L341.926 21.6634 L328.441 21.6634 L328.441 18.466 Z" fill="#000000" fill-rule="nonzero" fill-opacity="1" /><path clip-path="url(#clip650)" d="M-9.64527 840.632 L0.4762 840.632 L0.4762 828.569 L5.02768 828.569 L5.02768 840.632 L24.3794 840.632 Q28.7399 840.632 29.9813 839.454 Q31.2226 838.245 31.2226 834.584 L31.2226 828.569 L36.1242 828.569 L36.1242 834.584 Q36.1242 841.364 33.6097 843.942 Q31.0634 846.52 24.3794 846.52 L5.02768 846.52 L5.02768 850.817 L0.4762 850.817 L0.4762 846.52 L-9.64527 846.52 L-9.64527 840.632 Z" fill="#000000" fill-rule="nonzero" fill-opacity="1" /><path clip-path="url(#clip650)" d="M-11.3958 789.738 L-11.3958 784.327 L42.1716 800.878 L42.1716 806.289 L-11.3958 789.738 Z" fill="#000000" fill-rule="nonzero" fill-opacity="1" /><path clip-path="url(#clip650)" d="M14.6081 727.831 L36.1242 727.831 L36.1242 733.688 L14.799 733.688 Q9.7383 733.688 7.22385 735.661 Q4.7094 737.635 4.7094 741.581 Q4.7094 746.324 7.73311 749.061 Q10.7568 751.798 15.9767 751.798 L36.1242 751.798 L36.1242 757.687 L0.4762 757.687 L0.4762 751.798 L6.01437 751.798 Q2.79968 749.698 1.20826 746.865 Q-0.38317 744 -0.38317 740.276 Q-0.38317 734.133 3.43625 730.982 Q7.22385 727.831 14.6081 727.831 Z" fill="#000000" fill-rule="nonzero" fill-opacity="1" /><path clip-path="url(#clip650)" d="M1.52654 693.425 L7.06471 693.425 Q5.79157 695.907 5.15499 698.581 Q4.51842 701.255 4.51842 704.119 Q4.51842 708.48 5.85522 710.676 Q7.19202 712.84 9.86562 712.84 Q11.9026 712.84 13.0803 711.281 Q14.2261 709.721 15.2765 705.01 L15.7221 703.005 Q17.0589 696.767 19.5097 694.157 Q21.9286 691.515 26.2891 691.515 Q31.2544 691.515 34.1508 695.462 Q37.0472 699.377 37.0472 706.252 Q37.0472 709.116 36.4743 712.235 Q35.9332 715.323 34.8192 718.76 L28.7718 718.76 Q30.4587 715.514 31.318 712.363 Q32.1456 709.212 32.1456 706.124 Q32.1456 701.987 30.7451 699.759 Q29.3129 697.531 26.7347 697.531 Q24.3476 697.531 23.0745 699.154 Q21.8013 700.745 20.6237 706.188 L20.1462 708.225 Q19.0004 713.668 16.6451 716.087 Q14.258 718.506 10.1202 718.506 Q5.09134 718.506 2.35408 714.941 Q-0.38317 711.376 -0.38317 704.819 Q-0.38317 701.573 0.0942579 698.708 Q0.571686 695.844 1.52654 693.425 Z" fill="#000000" fill-rule="nonzero" fill-opacity="1" /><path clip-path="url(#clip652)" d="M689.392 1454.11 L697.039 1453.78 L709.504 1453.44 L728.151 1453.11 L753.17 1452.77 L782.834 1452.44 L813.747 1452.11 L842.133 1451.77 L865.119 1451.44 L881.006 1451.1 L888.902 1450.77 L888.67 1450.43 L881.155 1450.1 L868.115 1449.77 L851.785 1449.43 L834.359 1449.1 L817.623 1448.76 L802.714 1448.43 L789.85 1448.09 L778.219 1447.76 L766.602 1447.43 L754.591 1447.09 L743.164 1446.76 L733.794 1446.42 L727.077 1446.09 L722.48 1445.75 L719.22 1445.42 L716.898 1445.09 L715.222 1444.75 L713.724 1444.42 L712.038 1444.08 L710.138 1443.75 L708.179 1443.41 L706.33 1443.08 L704.753 1442.75 L703.515 1442.41 L702.489 1442.08 L701.44 1441.74 L700.18 1441.41 L698.634 1441.07 L696.828 1440.74 L694.862 1440.41 L692.872 1440.07 L691.01 1439.74 L689.406 1439.4 L688.105 1439.07 L687.089 1438.74 L686.417 1438.4 L686.248 1438.07 L686.606 1437.73 L687.188 1437.4 L687.508 1437.06 L687.284 1436.73 L686.675 1436.4 L686.113 1436.06 L685.835 1435.73 L685.619 1435.39 L685.067 1435.06 L684.126 1434.72 L683.227 1434.39 L682.957 1434.06 L683.652 1433.72 L685.159 1433.39 L686.841 1433.05 L687.891 1432.72 L687.871 1432.38 L687.01 1432.05 L685.911 1431.72 L685.034 1431.38 L684.477 1431.05 L684.117 1430.71 L683.83 1430.38 L683.616 1430.04 L683.556 1429.71 L683.659 1429.38 L683.773 1429.04 L683.717 1428.71 L683.47 1428.37 L683.149 1428.04 L682.808 1427.7 L682.394 1427.37 L681.896 1427.04 L681.424 1426.7 L681.128 1426.37 L681.122 1426.03 L681.491 1425.7 L682.265 1425.36 L683.292 1425.03 L684.182 1424.7 L684.529 1424.36 L684.242 1424.03 L683.617 1423.69 L683.055 1423.36 L682.755 1423.02 L682.672 1422.69 L682.647 1422.36 L682.518 1422.02 L682.208 1421.69 L681.766 1421.35 L681.329 1421.02 L681.011 1420.68 L680.836 1420.35 L680.762 1420.02 L680.738 1419.68 L680.732 1419.35 L680.731 1419.01 L680.731 1418.68 L680.731 1418.34 L680.731 1418.01 L680.731 1417.68 L680.731 1417.34 L680.731 1417.01 L680.731 1416.67 L680.731 1416.34 L680.731 1416.01 L680.731 1415.67 L680.731 1415.34 L680.731 1415 L680.732 1414.67 L680.737 1414.33 L680.755 1414 L680.809 1413.67 L680.93 1413.33 L681.129 1413 L681.358 1412.66 L681.507 1412.33 L681.487 1411.99 L681.31 1411.66 L681.081 1411.33 L680.897 1410.99 L680.793 1410.66 L680.749 1410.32 L680.735 1409.99 L680.732 1409.65 L680.731 1409.32 L680.731 1408.99 L680.731 1408.65 L680.731 1408.32 L680.731 1407.98 L680.731 1407.65 L680.731 1407.31 L680.731 1406.98 L680.731 1406.65 L680.731 1406.31 L680.731 1405.98 L680.731 1405.64 L680.731 1405.31 L680.733 1404.97 L680.739 1404.64 L680.764 1404.31 L680.836 1403.97 L680.988 1403.64 L681.218 1403.3 L681.446 1402.97 L681.545 1402.63 L681.449 1402.3 L681.223 1401.97 L680.992 1401.63 L680.839 1401.3 L680.766 1400.96 L680.74 1400.63 L680.733 1400.29 L680.731 1399.96 L680.731 1399.63 L680.731 1399.29 L680.731 1398.96 L680.731 1398.62 L680.731 1398.29 L680.731 1397.95 L680.731 1397.62 L680.731 1397.29 L680.731 1396.95 L680.731 1396.62 L680.731 1396.28 L680.731 1395.95 L680.731 1395.62 L680.733 1395.28 L680.739 1394.95 L680.763 1394.61 L680.831 1394.28 L680.978 1393.94 L681.203 1393.61 L681.431 1393.28 L681.538 1392.94 L679.924 1392.94 L680.031 1393.28 L680.26 1393.61 L680.484 1393.94 L680.631 1394.28 L680.699 1394.61 L680.723 1394.95 L680.73 1395.28 L680.731 1395.62 L680.731 1395.95 L680.731 1396.28 L680.731 1396.62 L680.731 1396.95 L680.731 1397.29 L680.731 1397.62 L680.731 1397.95 L680.731 1398.29 L680.731 1398.62 L680.731 1398.96 L680.731 1399.29 L680.731 1399.63 L680.731 1399.96 L680.729 1400.29 L680.722 1400.63 L680.697 1400.96 L680.623 1401.3 L680.47 1401.63 L680.239 1401.97 L680.013 1402.3 L679.917 1402.63 L680.016 1402.97 L680.244 1403.3 L680.474 1403.64 L680.626 1403.97 L680.698 1404.31 L680.723 1404.64 L680.729 1404.97 L680.731 1405.31 L680.731 1405.64 L680.731 1405.98 L680.731 1406.31 L680.731 1406.65 L680.731 1406.98 L680.731 1407.31 L680.731 1407.65 L680.731 1407.98 L680.731 1408.32 L680.731 1408.65 L680.731 1408.99 L680.731 1409.32 L680.73 1409.65 L680.727 1409.99 L680.713 1410.32 L680.669 1410.66 L680.565 1410.99 L680.381 1411.33 L680.152 1411.66 L679.975 1411.99 L679.955 1412.33 L680.104 1412.66 L680.333 1413 L680.533 1413.33 L680.654 1413.67 L680.707 1414 L680.725 1414.33 L680.73 1414.67 L680.731 1415 L680.731 1415.34 L680.731 1415.67 L680.731 1416.01 L680.731 1416.34 L680.731 1416.67 L680.731 1417.01 L680.731 1417.34 L680.731 1417.68 L680.731 1418.01 L680.731 1418.34 L680.731 1418.68 L680.731 1419.01 L680.73 1419.35 L680.724 1419.68 L680.7 1420.02 L680.626 1420.35 L680.451 1420.68 L680.133 1421.02 L679.696 1421.35 L679.254 1421.69 L678.944 1422.02 L678.815 1422.36 L678.79 1422.69 L678.707 1423.02 L678.407 1423.36 L677.845 1423.69 L677.221 1424.03 L676.933 1424.36 L677.28 1424.7 L678.17 1425.03 L679.197 1425.36 L679.971 1425.7 L680.34 1426.03 L680.335 1426.37 L680.038 1426.7 L679.566 1427.04 L679.068 1427.37 L678.654 1427.7 L678.314 1428.04 L677.992 1428.37 L677.745 1428.71 L677.689 1429.04 L677.803 1429.38 L677.906 1429.71 L677.846 1430.04 L677.632 1430.38 L677.345 1430.71 L676.985 1431.05 L676.428 1431.38 L675.552 1431.72 L674.452 1432.05 L673.591 1432.38 L673.571 1432.72 L674.621 1433.05 L676.303 1433.39 L677.81 1433.72 L678.505 1434.06 L678.235 1434.39 L677.336 1434.72 L676.395 1435.06 L675.843 1435.39 L675.627 1435.73 L675.349 1436.06 L674.787 1436.4 L674.178 1436.73 L673.954 1437.06 L674.274 1437.4 L674.856 1437.73 L675.214 1438.07 L675.045 1438.4 L674.373 1438.74 L673.357 1439.07 L672.056 1439.4 L670.452 1439.74 L668.59 1440.07 L666.6 1440.41 L664.634 1440.74 L662.828 1441.07 L661.282 1441.41 L660.022 1441.74 L658.973 1442.08 L657.947 1442.41 L656.709 1442.75 L655.132 1443.08 L653.283 1443.41 L651.324 1443.75 L649.424 1444.08 L647.738 1444.42 L646.24 1444.75 L644.564 1445.09 L642.242 1445.42 L638.982 1445.75 L634.385 1446.09 L627.668 1446.42 L618.298 1446.76 L606.871 1447.09 L594.86 1447.43 L583.243 1447.76 L571.613 1448.09 L558.748 1448.43 L543.839 1448.76 L527.103 1449.1 L509.677 1449.43 L493.347 1449.77 L480.307 1450.1 L472.792 1450.43 L472.561 1450.77 L480.456 1451.1 L496.343 1451.44 L519.329 1451.77 L547.715 1452.11 L578.628 1452.44 L608.292 1452.77 L633.312 1453.11 L651.958 1453.44 L664.423 1453.78 L672.07 1454.11 L689.392 1454.11  Z" fill="#009af9" fill-rule="evenodd" fill-opacity="1"/>
<polyline clip-path="url(#clip652)" style="stroke:#000000; stroke-linecap:round; stroke-linejoin:round; stroke-width:4; stroke-opacity:1; fill:none" points="689.392,1454.11 697.039,1453.78 709.504,1453.44 728.151,1453.11 753.17,1452.77 782.834,1452.44 813.747,1452.11 842.133,1451.77 865.119,1451.44 881.006,1451.1 888.902,1450.77 888.67,1450.43 881.155,1450.1 868.115,1449.77 851.785,1449.43 834.359,1449.1 817.623,1448.76 802.714,1448.43 789.85,1448.09 778.219,1447.76 766.602,1447.43 754.591,1447.09 743.164,1446.76 733.794,1446.42 727.077,1446.09 722.48,1445.75 719.22,1445.42 716.898,1445.09 715.222,1444.75 713.724,1444.42 712.038,1444.08 710.138,1443.75 708.179,1443.41 706.33,1443.08 704.753,1442.75 703.515,1442.41 702.489,1442.08 701.44,1441.74 700.18,1441.41 698.634,1441.07 696.828,1440.74 694.862,1440.41 692.872,1440.07 691.01,1439.74 689.406,1439.4 688.105,1439.07 687.089,1438.74 686.417,1438.4 686.248,1438.07 686.606,1437.73 687.188,1437.4 687.508,1437.06 687.284,1436.73 686.675,1436.4 686.113,1436.06 685.835,1435.73 685.619,1435.39 685.067,1435.06 684.126,1434.72 683.227,1434.39 682.957,1434.06 683.652,1433.72 685.159,1433.39 686.841,1433.05 687.891,1432.72 687.871,1432.38 687.01,1432.05 685.911,1431.72 685.034,1431.38 684.477,1431.05 684.117,1430.71 683.83,1430.38 683.616,1430.04 683.556,1429.71 683.659,1429.38 683.773,1429.04 683.717,1428.71 683.47,1428.37 683.149,1428.04 682.808,1427.7 682.394,1427.37 681.896,1427.04 681.424,1426.7 681.128,1426.37 681.122,1426.03 681.491,1425.7 682.265,1425.36 683.292,1425.03 684.182,1424.7 684.529,1424.36 684.242,1424.03 683.617,1423.69 683.055,1423.36 682.755,1423.02 682.672,1422.69 682.647,1422.36 682.518,1422.02 682.208,1421.69 681.766,1421.35 681.329,1421.02 681.011,1420.68 680.836,1420.35 680.762,1420.02 680.738,1419.68 680.732,1419.35 680.731,1419.01 680.731,1418.68 680.731,1418.34 680.731,1418.01 680.731,1417.68 680.731,1417.34 680.731,1417.01 680.731,1416.67 680.731,1416.34 680.731,1416.01 680.731,1415.67 680.731,1415.34 680.731,1415 680.732,1414.67 680.737,1414.33 680.755,1414 680.809,1413.67 680.93,1413.33 681.129,1413 681.358,1412.66 681.507,1412.33 681.487,1411.99 681.31,1411.66 681.081,1411.33 680.897,1410.99 680.793,1410.66 680.749,1410.32 680.735,1409.99 680.732,1409.65 680.731,1409.32 680.731,1408.99 680.731,1408.65 680.731,1408.32 680.731,1407.98 680.731,1407.65 680.731,1407.31 680.731,1406.98 680.731,1406.65 680.731,1406.31 680.731,1405.98 680.731,1405.64 680.731,1405.31 680.733,1404.97 680.739,1404.64 680.764,1404.31 680.836,1403.97 680.988,1403.64 681.218,1403.3 681.446,1402.97 681.545,1402.63 681.449,1402.3 681.223,1401.97 680.992,1401.63 680.839,1401.3 680.766,1400.96 680.74,1400.63 680.733,1400.29 680.731,1399.96 680.731,1399.63 680.731,1399.29 680.731,1398.96 680.731,1398.62 680.731,1398.29 680.731,1397.95 680.731,1397.62 680.731,1397.29 680.731,1396.95 680.731,1396.62 680.731,1396.28 680.731,1395.95 680.731,1395.62 680.733,1395.28 680.739,1394.95 680.763,1394.61 680.831,1394.28 680.978,1393.94 681.203,1393.61 681.431,1393.28 681.538,1392.94 679.924,1392.94 680.031,1393.28 680.26,1393.61 680.484,1393.94 680.631,1394.28 680.699,1394.61 680.723,1394.95 680.73,1395.28 680.731,1395.62 680.731,1395.95 680.731,1396.28 680.731,1396.62 680.731,1396.95 680.731,1397.29 680.731,1397.62 680.731,1397.95 680.731,1398.29 680.731,1398.62 680.731,1398.96 680.731,1399.29 680.731,1399.63 680.731,1399.96 680.729,1400.29 680.722,1400.63 680.697,1400.96 680.623,1401.3 680.47,1401.63 680.239,1401.97 680.013,1402.3 679.917,1402.63 680.016,1402.97 680.244,1403.3 680.474,1403.64 680.626,1403.97 680.698,1404.31 680.723,1404.64 680.729,1404.97 680.731,1405.31 680.731,1405.64 680.731,1405.98 680.731,1406.31 680.731,1406.65 680.731,1406.98 680.731,1407.31 680.731,1407.65 680.731,1407.98 680.731,1408.32 680.731,1408.65 680.731,1408.99 680.731,1409.32 680.73,1409.65 680.727,1409.99 680.713,1410.32 680.669,1410.66 680.565,1410.99 680.381,1411.33 680.152,1411.66 679.975,1411.99 679.955,1412.33 680.104,1412.66 680.333,1413 680.533,1413.33 680.654,1413.67 680.707,1414 680.725,1414.33 680.73,1414.67 680.731,1415 680.731,1415.34 680.731,1415.67 680.731,1416.01 680.731,1416.34 680.731,1416.67 680.731,1417.01 680.731,1417.34 680.731,1417.68 680.731,1418.01 680.731,1418.34 680.731,1418.68 680.731,1419.01 680.73,1419.35 680.724,1419.68 680.7,1420.02 680.626,1420.35 680.451,1420.68 680.133,1421.02 679.696,1421.35 679.254,1421.69 678.944,1422.02 678.815,1422.36 678.79,1422.69 678.707,1423.02 678.407,1423.36 677.845,1423.69 677.221,1424.03 676.933,1424.36 677.28,1424.7 678.17,1425.03 679.197,1425.36 679.971,1425.7 680.34,1426.03 680.335,1426.37 680.038,1426.7 679.566,1427.04 679.068,1427.37 678.654,1427.7 678.314,1428.04 677.992,1428.37 677.745,1428.71 677.689,1429.04 677.803,1429.38 677.906,1429.71 677.846,1430.04 677.632,1430.38 677.345,1430.71 676.985,1431.05 676.428,1431.38 675.552,1431.72 674.452,1432.05 673.591,1432.38 673.571,1432.72 674.621,1433.05 676.303,1433.39 677.81,1433.72 678.505,1434.06 678.235,1434.39 677.336,1434.72 676.395,1435.06 675.843,1435.39 675.627,1435.73 675.349,1436.06 674.787,1436.4 674.178,1436.73 673.954,1437.06 674.274,1437.4 674.856,1437.73 675.214,1438.07 675.045,1438.4 674.373,1438.74 673.357,1439.07 672.056,1439.4 670.452,1439.74 668.59,1440.07 666.6,1440.41 664.634,1440.74 662.828,1441.07 661.282,1441.41 660.022,1441.74 658.973,1442.08 657.947,1442.41 656.709,1442.75 655.132,1443.08 653.283,1443.41 651.324,1443.75 649.424,1444.08 647.738,1444.42 646.24,1444.75 644.564,1445.09 642.242,1445.42 638.982,1445.75 634.385,1446.09 627.668,1446.42 618.298,1446.76 606.871,1447.09 594.86,1447.43 583.243,1447.76 571.613,1448.09 558.748,1448.43 543.839,1448.76 527.103,1449.1 509.677,1449.43 493.347,1449.77 480.307,1450.1 472.792,1450.43 472.561,1450.77 480.456,1451.1 496.343,1451.44 519.329,1451.77 547.715,1452.11 578.628,1452.44 608.292,1452.77 633.312,1453.11 651.958,1453.44 664.423,1453.78 672.07,1454.11 689.392,1454.11 "/>
<path clip-path="url(#clip652)" d="M1440.42 197.281 L1453.1 196.627 L1468.82 195.974 L1487.39 195.321 L1508.23 194.668 L1530.39 194.015 L1552.56 193.362 L1573.31 192.709 L1591.18 192.056 L1604.96 191.403 L1613.84 190.75 L1617.5 190.097 L1616.15 189.444 L1610.44 188.791 L1601.29 188.138 L1589.77 187.485 L1576.94 186.832 L1563.72 186.179 L1550.85 185.526 L1538.85 184.873 L1527.98 184.219 L1518.32 183.566 L1509.73 182.913 L1501.99 182.26 L1494.88 181.607 L1488.19 180.954 L1481.86 180.301 L1475.89 179.648 L1470.35 178.995 L1465.36 178.342 L1461.01 177.689 L1457.34 177.036 L1454.33 176.383 L1451.94 175.73 L1450.07 175.077 L1448.6 174.424 L1447.43 173.771 L1446.46 173.118 L1445.61 172.465 L1444.84 171.811 L1444.1 171.158 L1443.39 170.505 L1442.66 169.852 L1441.91 169.199 L1441.1 168.546 L1440.24 167.893 L1439.3 167.24 L1438.31 166.587 L1437.3 165.934 L1436.27 165.281 L1435.26 164.628 L1434.24 163.975 L1433.18 163.322 L1432.03 162.669 L1430.74 162.016 L1429.31 161.363 L1427.78 160.71 L1426.2 160.057 L1424.64 159.403 L1423.13 158.75 L1421.71 158.097 L1420.38 157.444 L1419.1 156.791 L1417.89 156.138 L1416.74 155.485 L1415.68 154.832 L1414.75 154.179 L1413.99 153.526 L1413.45 152.873 L1413.14 152.22 L1413.06 151.567 L1413.19 150.914 L1413.48 150.261 L1413.87 149.608 L1414.31 148.955 L1414.73 148.302 L1415.08 147.649 L1415.34 146.995 L1415.48 146.342 L1415.54 145.689 L1415.57 145.036 L1415.61 144.383 L1415.72 143.73 L1415.88 143.077 L1416.06 142.424 L1416.19 141.771 L1416.18 141.118 L1415.96 140.465 L1415.53 139.812 L1414.91 139.159 L1414.19 138.506 L1413.47 137.853 L1412.86 137.2 L1412.42 136.547 L1412.17 135.894 L1412.1 135.241 L1412.16 134.588 L1412.29 133.934 L1412.43 133.281 L1412.55 132.628 L1412.63 131.975 L1412.66 131.322 L1412.64 130.669 L1412.59 130.016 L1412.51 129.363 L1412.41 128.71 L1412.32 128.057 L1412.24 127.404 L1412.2 126.751 L1412.21 126.098 L1412.28 125.445 L1412.38 124.792 L1412.49 124.139 L1412.57 123.486 L1412.58 122.833 L1412.48 122.18 L1412.27 121.526 L1411.95 120.873 L1411.56 120.22 L1411.13 119.567 L1410.71 118.914 L1410.33 118.261 L1410.01 117.608 L1409.77 116.955 L1409.6 116.302 L1409.48 115.649 L1409.41 114.996 L1409.37 114.343 L1409.35 113.69 L1409.34 113.037 L1409.33 112.384 L1409.33 111.731 L1409.33 111.078 L1409.33 110.425 L1409.33 109.772 L1409.33 109.118 L1409.33 108.465 L1409.33 107.812 L1409.33 107.159 L1409.33 106.506 L1409.33 105.853 L1409.33 105.2 L1409.33 104.547 L1409.33 103.894 L1409.33 103.241 L1409.33 102.588 L1409.33 101.935 L1409.33 101.282 L1409.33 100.629 L1409.33 99.9757 L1409.33 99.3227 L1409.33 98.6696 L1409.33 98.0166 L1409.33 97.3635 L1409.33 96.7105 L1409.34 96.0574 L1409.36 95.4044 L1409.38 94.7513 L1409.43 94.0983 L1409.51 93.4452 L1409.63 92.7922 L1409.79 92.1391 L1410 91.4861 L1410.25 90.833 L1410.5 90.18 L1410.73 89.5269 L1410.9 88.8739 L1410.98 88.2208 L1407.67 88.2208 L1407.75 88.8739 L1407.93 89.5269 L1408.16 90.18 L1408.41 90.833 L1408.65 91.4861 L1408.86 92.1391 L1409.03 92.7922 L1409.15 93.4452 L1409.22 94.0983 L1409.27 94.7513 L1409.3 95.4044 L1409.31 96.0574 L1409.32 96.7105 L1409.33 97.3635 L1409.33 98.0166 L1409.33 98.6696 L1409.33 99.3227 L1409.33 99.9757 L1409.33 100.629 L1409.33 101.282 L1409.33 101.935 L1409.33 102.588 L1409.33 103.241 L1409.33 103.894 L1409.33 104.547 L1409.33 105.2 L1409.33 105.853 L1409.33 106.506 L1409.33 107.159 L1409.33 107.812 L1409.33 108.465 L1409.33 109.118 L1409.33 109.772 L1409.33 110.425 L1409.33 111.078 L1409.33 111.731 L1409.32 112.384 L1409.32 113.037 L1409.31 113.69 L1409.28 114.343 L1409.24 114.996 L1409.17 115.649 L1409.06 116.302 L1408.88 116.955 L1408.64 117.608 L1408.33 118.261 L1407.95 118.914 L1407.53 119.567 L1407.1 120.22 L1406.7 120.873 L1406.38 121.526 L1406.17 122.18 L1406.07 122.833 L1406.08 123.486 L1406.16 124.139 L1406.28 124.792 L1406.38 125.445 L1406.44 126.098 L1406.45 126.751 L1406.41 127.404 L1406.34 128.057 L1406.24 128.71 L1406.15 129.363 L1406.07 130.016 L1406.02 130.669 L1406 131.322 L1406.03 131.975 L1406.11 132.628 L1406.23 133.281 L1406.37 133.934 L1406.5 134.588 L1406.55 135.241 L1406.48 135.894 L1406.24 136.547 L1405.8 137.2 L1405.18 137.853 L1404.47 138.506 L1403.75 139.159 L1403.13 139.812 L1402.69 140.465 L1402.48 141.118 L1402.47 141.771 L1402.6 142.424 L1402.78 143.077 L1402.94 143.73 L1403.04 144.383 L1403.09 145.036 L1403.11 145.689 L1403.17 146.342 L1403.32 146.995 L1403.57 147.649 L1403.92 148.302 L1404.35 148.955 L1404.78 149.608 L1405.18 150.261 L1405.47 150.914 L1405.59 151.567 L1405.51 152.22 L1405.2 152.873 L1404.66 153.526 L1403.91 154.179 L1402.98 154.832 L1401.92 155.485 L1400.77 156.138 L1399.55 156.791 L1398.28 157.444 L1396.94 158.097 L1395.52 158.75 L1394.02 159.403 L1392.45 160.057 L1390.87 160.71 L1389.34 161.363 L1387.92 162.016 L1386.63 162.669 L1385.47 163.322 L1384.41 163.975 L1383.39 164.628 L1382.38 165.281 L1381.36 165.934 L1380.34 166.587 L1379.35 167.24 L1378.42 167.893 L1377.55 168.546 L1376.75 169.199 L1375.99 169.852 L1375.27 170.505 L1374.55 171.158 L1373.82 171.811 L1373.05 172.465 L1372.2 173.118 L1371.23 173.771 L1370.06 174.424 L1368.59 175.077 L1366.72 175.73 L1364.32 176.383 L1361.32 177.036 L1357.65 177.689 L1353.29 178.342 L1348.3 178.995 L1342.77 179.648 L1336.8 180.301 L1330.46 180.954 L1323.78 181.607 L1316.66 182.26 L1308.93 182.913 L1300.34 183.566 L1290.67 184.219 L1279.81 184.873 L1267.81 185.526 L1254.94 186.179 L1241.72 186.832 L1228.88 187.485 L1217.36 188.138 L1208.22 188.791 L1202.5 189.444 L1201.16 190.097 L1204.82 190.75 L1213.7 191.403 L1227.48 192.056 L1245.35 192.709 L1266.09 193.362 L1288.27 194.015 L1310.42 194.668 L1331.26 195.321 L1349.83 195.974 L1365.55 196.627 L1378.24 197.281 L1440.42 197.281  Z" fill="#e26f46" fill-rule="evenodd" fill-opacity="1"/>
<polyline clip-path="url(#clip652)" style="stroke:#000000; stroke-linecap:round; stroke-linejoin:round; stroke-width:4; stroke-opacity:1; fill:none" points="1440.42,197.281 1453.1,196.627 1468.82,195.974 1487.39,195.321 1508.23,194.668 1530.39,194.015 1552.56,193.362 1573.31,192.709 1591.18,192.056 1604.96,191.403 1613.84,190.75 1617.5,190.097 1616.15,189.444 1610.44,188.791 1601.29,188.138 1589.77,187.485 1576.94,186.832 1563.72,186.179 1550.85,185.526 1538.85,184.873 1527.98,184.219 1518.32,183.566 1509.73,182.913 1501.99,182.26 1494.88,181.607 1488.19,180.954 1481.86,180.301 1475.89,179.648 1470.35,178.995 1465.36,178.342 1461.01,177.689 1457.34,177.036 1454.33,176.383 1451.94,175.73 1450.07,175.077 1448.6,174.424 1447.43,173.771 1446.46,173.118 1445.61,172.465 1444.84,171.811 1444.1,171.158 1443.39,170.505 1442.66,169.852 1441.91,169.199 1441.1,168.546 1440.24,167.893 1439.3,167.24 1438.31,166.587 1437.3,165.934 1436.27,165.281 1435.26,164.628 1434.24,163.975 1433.18,163.322 1432.03,162.669 1430.74,162.016 1429.31,161.363 1427.78,160.71 1426.2,160.057 1424.64,159.403 1423.13,158.75 1421.71,158.097 1420.38,157.444 1419.1,156.791 1417.89,156.138 1416.74,155.485 1415.68,154.832 1414.75,154.179 1413.99,153.526 1413.45,152.873 1413.14,152.22 1413.06,151.567 1413.19,150.914 1413.48,150.261 1413.87,149.608 1414.31,148.955 1414.73,148.302 1415.08,147.649 1415.34,146.995 1415.48,146.342 1415.54,145.689 1415.57,145.036 1415.61,144.383 1415.72,143.73 1415.88,143.077 1416.06,142.424 1416.19,141.771 1416.18,141.118 1415.96,140.465 1415.53,139.812 1414.91,139.159 1414.19,138.506 1413.47,137.853 1412.86,137.2 1412.42,136.547 1412.17,135.894 1412.1,135.241 1412.16,134.588 1412.29,133.934 1412.43,133.281 1412.55,132.628 1412.63,131.975 1412.66,131.322 1412.64,130.669 1412.59,130.016 1412.51,129.363 1412.41,128.71 1412.32,128.057 1412.24,127.404 1412.2,126.751 1412.21,126.098 1412.28,125.445 1412.38,124.792 1412.49,124.139 1412.57,123.486 1412.58,122.833 1412.48,122.18 1412.27,121.526 1411.95,120.873 1411.56,120.22 1411.13,119.567 1410.71,118.914 1410.33,118.261 1410.01,117.608 1409.77,116.955 1409.6,116.302 1409.48,115.649 1409.41,114.996 1409.37,114.343 1409.35,113.69 1409.34,113.037 1409.33,112.384 1409.33,111.731 1409.33,111.078 1409.33,110.425 1409.33,109.772 1409.33,109.118 1409.33,108.465 1409.33,107.812 1409.33,107.159 1409.33,106.506 1409.33,105.853 1409.33,105.2 1409.33,104.547 1409.33,103.894 1409.33,103.241 1409.33,102.588 1409.33,101.935 1409.33,101.282 1409.33,100.629 1409.33,99.9757 1409.33,99.3227 1409.33,98.6696 1409.33,98.0166 1409.33,97.3635 1409.33,96.7105 1409.34,96.0574 1409.36,95.4044 1409.38,94.7513 1409.43,94.0983 1409.51,93.4452 1409.63,92.7922 1409.79,92.1391 1410,91.4861 1410.25,90.833 1410.5,90.18 1410.73,89.5269 1410.9,88.8739 1410.98,88.2208 1407.67,88.2208 1407.75,88.8739 1407.93,89.5269 1408.16,90.18 1408.41,90.833 1408.65,91.4861 1408.86,92.1391 1409.03,92.7922 1409.15,93.4452 1409.22,94.0983 1409.27,94.7513 1409.3,95.4044 1409.31,96.0574 1409.32,96.7105 1409.33,97.3635 1409.33,98.0166 1409.33,98.6696 1409.33,99.3227 1409.33,99.9757 1409.33,100.629 1409.33,101.282 1409.33,101.935 1409.33,102.588 1409.33,103.241 1409.33,103.894 1409.33,104.547 1409.33,105.2 1409.33,105.853 1409.33,106.506 1409.33,107.159 1409.33,107.812 1409.33,108.465 1409.33,109.118 1409.33,109.772 1409.33,110.425 1409.33,111.078 1409.33,111.731 1409.32,112.384 1409.32,113.037 1409.31,113.69 1409.28,114.343 1409.24,114.996 1409.17,115.649 1409.06,116.302 1408.88,116.955 1408.64,117.608 1408.33,118.261 1407.95,118.914 1407.53,119.567 1407.1,120.22 1406.7,120.873 1406.38,121.526 1406.17,122.18 1406.07,122.833 1406.08,123.486 1406.16,124.139 1406.28,124.792 1406.38,125.445 1406.44,126.098 1406.45,126.751 1406.41,127.404 1406.34,128.057 1406.24,128.71 1406.15,129.363 1406.07,130.016 1406.02,130.669 1406,131.322 1406.03,131.975 1406.11,132.628 1406.23,133.281 1406.37,133.934 1406.5,134.588 1406.55,135.241 1406.48,135.894 1406.24,136.547 1405.8,137.2 1405.18,137.853 1404.47,138.506 1403.75,139.159 1403.13,139.812 1402.69,140.465 1402.48,141.118 1402.47,141.771 1402.6,142.424 1402.78,143.077 1402.94,143.73 1403.04,144.383 1403.09,145.036 1403.11,145.689 1403.17,146.342 1403.32,146.995 1403.57,147.649 1403.92,148.302 1404.35,148.955 1404.78,149.608 1405.18,150.261 1405.47,150.914 1405.59,151.567 1405.51,152.22 1405.2,152.873 1404.66,153.526 1403.91,154.179 1402.98,154.832 1401.92,155.485 1400.77,156.138 1399.55,156.791 1398.28,157.444 1396.94,158.097 1395.52,158.75 1394.02,159.403 1392.45,160.057 1390.87,160.71 1389.34,161.363 1387.92,162.016 1386.63,162.669 1385.47,163.322 1384.41,163.975 1383.39,164.628 1382.38,165.281 1381.36,165.934 1380.34,166.587 1379.35,167.24 1378.42,167.893 1377.55,168.546 1376.75,169.199 1375.99,169.852 1375.27,170.505 1374.55,171.158 1373.82,171.811 1373.05,172.465 1372.2,173.118 1371.23,173.771 1370.06,174.424 1368.59,175.077 1366.72,175.73 1364.32,176.383 1361.32,177.036 1357.65,177.689 1353.29,178.342 1348.3,178.995 1342.77,179.648 1336.8,180.301 1330.46,180.954 1323.78,181.607 1316.66,182.26 1308.93,182.913 1300.34,183.566 1290.67,184.219 1279.81,184.873 1267.81,185.526 1254.94,186.179 1241.72,186.832 1228.88,187.485 1217.36,188.138 1208.22,188.791 1202.5,189.444 1201.16,190.097 1204.82,190.75 1213.7,191.403 1227.48,192.056 1245.35,192.709 1266.09,193.362 1288.27,194.015 1310.42,194.668 1331.26,195.321 1349.83,195.974 1365.55,196.627 1378.24,197.281 1440.42,197.281 "/>
<path clip-path="url(#clip652)" d="M2173.94 1000.76 L2188.64 1000.36 L2206.06 999.971 L2225.66 999.58 L2246.61 999.188 L2267.91 998.796 L2288.46 998.404 L2307.11 998.012 L2322.84 997.62 L2334.81 997.228 L2342.56 996.837 L2346.1 996.445 L2345.83 996.053 L2342.44 995.661 L2336.65 995.269 L2329.01 994.877 L2319.9 994.485 L2309.51 994.094 L2298.01 993.702 L2285.59 993.31 L2272.62 992.918 L2259.69 992.526 L2247.57 992.134 L2237.03 991.742 L2228.59 991.35 L2222.27 990.959 L2217.57 990.567 L2213.6 990.175 L2209.46 989.783 L2204.53 989.391 L2198.66 988.999 L2192.19 988.607 L2185.69 988.216 L2179.73 987.824 L2174.69 987.432 L2170.64 987.04 L2167.47 986.648 L2165.06 986.256 L2163.36 985.864 L2162.43 985.473 L2162.29 985.081 L2162.86 984.689 L2163.82 984.297 L2164.75 983.905 L2165.2 983.513 L2164.9 983.121 L2163.76 982.73 L2161.92 982.338 L2159.65 981.946 L2157.33 981.554 L2155.29 981.162 L2153.8 980.77 L2152.94 980.378 L2152.65 979.987 L2152.73 979.595 L2152.9 979.203 L2152.92 978.811 L2152.66 978.419 L2152.11 978.027 L2151.34 977.635 L2150.44 977.244 L2149.51 976.852 L2148.58 976.46 L2147.71 976.068 L2146.86 975.676 L2146.02 975.284 L2145.13 974.892 L2144.13 974.5 L2143.05 974.109 L2141.92 973.717 L2140.86 973.325 L2139.95 972.933 L2139.27 972.541 L2138.85 972.149 L2138.71 971.757 L2138.81 971.366 L2139.13 970.974 L2139.61 970.582 L2140.18 970.19 L2140.78 969.798 L2141.33 969.406 L2141.8 969.014 L2142.15 968.623 L2142.37 968.231 L2142.45 967.839 L2142.37 967.447 L2142.13 967.055 L2141.76 966.663 L2141.31 966.271 L2140.83 965.88 L2140.35 965.488 L2139.89 965.096 L2139.46 964.704 L2139.07 964.312 L2138.72 963.92 L2138.44 963.528 L2138.23 963.137 L2138.09 962.745 L2138 962.353 L2137.96 961.961 L2137.94 961.569 L2137.93 961.177 L2137.93 960.785 L2137.93 960.394 L2137.92 960.002 L2137.92 959.61 L2137.92 959.218 L2137.92 958.826 L2137.92 958.434 L2137.92 958.042 L2137.92 957.65 L2137.93 957.259 L2137.93 956.867 L2137.93 956.475 L2137.95 956.083 L2137.98 955.691 L2138.04 955.299 L2138.15 954.907 L2138.31 954.516 L2138.52 954.124 L2138.75 953.732 L2138.97 953.34 L2139.12 952.948 L2139.17 952.556 L2139.11 952.164 L2138.98 951.773 L2138.85 951.381 L2138.78 950.989 L2138.8 950.597 L2138.9 950.205 L2139.04 949.813 L2139.15 949.421 L2139.17 949.03 L2139.08 948.638 L2138.9 948.246 L2138.67 947.854 L2138.45 947.462 L2138.28 947.07 L2138.2 946.678 L2138.21 946.287 L2138.31 945.895 L2138.49 945.503 L2138.72 945.111 L2138.94 944.719 L2139.11 944.327 L2139.17 943.935 L2139.12 943.544 L2138.99 943.152 L2138.84 942.76 L2138.74 942.368 L2138.73 941.976 L2138.84 941.584 L2139.03 941.192 L2139.25 940.8 L2139.46 940.409 L2139.61 940.017 L2139.7 939.625 L2139.72 939.233 L2139.67 938.841 L2139.55 938.449 L2139.36 938.057 L2139.11 937.666 L2138.83 937.274 L2138.59 936.882 L2138.41 936.49 L2138.34 936.098 L2138.4 935.706 L2138.58 935.314 L2138.89 934.923 L2139.27 934.531 L2139.67 934.139 L2140 933.747 L2140.19 933.355 L2140.18 932.963 L2135.67 932.963 L2135.66 933.355 L2135.85 933.747 L2136.18 934.139 L2136.58 934.531 L2136.96 934.923 L2137.27 935.314 L2137.45 935.706 L2137.51 936.098 L2137.44 936.49 L2137.26 936.882 L2137.01 937.274 L2136.74 937.666 L2136.49 938.057 L2136.3 938.449 L2136.18 938.841 L2136.13 939.233 L2136.15 939.625 L2136.24 940.017 L2136.39 940.409 L2136.6 940.8 L2136.82 941.192 L2137.01 941.584 L2137.12 941.976 L2137.11 942.368 L2137.01 942.76 L2136.86 943.152 L2136.72 943.544 L2136.68 943.935 L2136.74 944.327 L2136.9 944.719 L2137.13 945.111 L2137.36 945.503 L2137.54 945.895 L2137.64 946.287 L2137.65 946.678 L2137.57 947.07 L2137.4 947.462 L2137.18 947.854 L2136.95 948.246 L2136.77 948.638 L2136.68 949.03 L2136.7 949.421 L2136.81 949.813 L2136.95 950.205 L2137.05 950.597 L2137.07 950.989 L2137 951.381 L2136.87 951.773 L2136.74 952.164 L2136.68 952.556 L2136.73 952.948 L2136.88 953.34 L2137.1 953.732 L2137.33 954.124 L2137.54 954.516 L2137.7 954.907 L2137.81 955.299 L2137.87 955.691 L2137.9 956.083 L2137.92 956.475 L2137.92 956.867 L2137.92 957.259 L2137.92 957.65 L2137.92 958.042 L2137.92 958.434 L2137.92 958.826 L2137.92 959.218 L2137.92 959.61 L2137.92 960.002 L2137.92 960.394 L2137.92 960.785 L2137.92 961.177 L2137.91 961.569 L2137.89 961.961 L2137.84 962.353 L2137.76 962.745 L2137.62 963.137 L2137.41 963.528 L2137.13 963.92 L2136.78 964.312 L2136.39 964.704 L2135.96 965.096 L2135.5 965.488 L2135.02 965.88 L2134.54 966.271 L2134.09 966.663 L2133.72 967.055 L2133.48 967.447 L2133.4 967.839 L2133.48 968.231 L2133.7 968.623 L2134.05 969.014 L2134.52 969.406 L2135.07 969.798 L2135.67 970.19 L2136.24 970.582 L2136.72 970.974 L2137.04 971.366 L2137.14 971.757 L2137 972.149 L2136.58 972.541 L2135.9 972.933 L2134.99 973.325 L2133.93 973.717 L2132.8 974.109 L2131.72 974.5 L2130.72 974.892 L2129.83 975.284 L2128.98 975.676 L2128.14 976.068 L2127.26 976.46 L2126.34 976.852 L2125.41 977.244 L2124.51 977.635 L2123.74 978.027 L2123.19 978.419 L2122.93 978.811 L2122.95 979.203 L2123.12 979.595 L2123.2 979.987 L2122.91 980.378 L2122.05 980.77 L2120.56 981.162 L2118.52 981.554 L2116.2 981.946 L2113.93 982.338 L2112.08 982.73 L2110.95 983.121 L2110.64 983.513 L2111.1 983.905 L2112.03 984.297 L2112.99 984.689 L2113.56 985.081 L2113.42 985.473 L2112.49 985.864 L2110.79 986.256 L2108.38 986.648 L2105.21 987.04 L2101.16 987.432 L2096.12 987.824 L2090.16 988.216 L2083.66 988.607 L2077.19 988.999 L2071.32 989.391 L2066.39 989.783 L2062.25 990.175 L2058.28 990.567 L2053.58 990.959 L2047.26 991.35 L2038.82 991.742 L2028.28 992.134 L2016.16 992.526 L2003.23 992.918 L1990.26 993.31 L1977.84 993.702 L1966.34 994.094 L1955.95 994.485 L1946.84 994.877 L1939.2 995.269 L1933.41 995.661 L1930.02 996.053 L1929.75 996.445 L1933.28 996.837 L1941.04 997.228 L1953.01 997.62 L1968.74 998.012 L1987.39 998.404 L2007.94 998.796 L2029.24 999.188 L2050.19 999.58 L2069.79 999.971 L2087.21 1000.36 L2101.91 1000.76 L2173.94 1000.76  Z" fill="#3da44d" fill-rule="evenodd" fill-opacity="1"/>
<polyline clip-path="url(#clip652)" style="stroke:#000000; stroke-linecap:round; stroke-linejoin:round; stroke-width:4; stroke-opacity:1; fill:none" points="2173.94,1000.76 2188.64,1000.36 2206.06,999.971 2225.66,999.58 2246.61,999.188 2267.91,998.796 2288.46,998.404 2307.11,998.012 2322.84,997.62 2334.81,997.228 2342.56,996.837 2346.1,996.445 2345.83,996.053 2342.44,995.661 2336.65,995.269 2329.01,994.877 2319.9,994.485 2309.51,994.094 2298.01,993.702 2285.59,993.31 2272.62,992.918 2259.69,992.526 2247.57,992.134 2237.03,991.742 2228.59,991.35 2222.27,990.959 2217.57,990.567 2213.6,990.175 2209.46,989.783 2204.53,989.391 2198.66,988.999 2192.19,988.607 2185.69,988.216 2179.73,987.824 2174.69,987.432 2170.64,987.04 2167.47,986.648 2165.06,986.256 2163.36,985.864 2162.43,985.473 2162.29,985.081 2162.86,984.689 2163.82,984.297 2164.75,983.905 2165.2,983.513 2164.9,983.121 2163.76,982.73 2161.92,982.338 2159.65,981.946 2157.33,981.554 2155.29,981.162 2153.8,980.77 2152.94,980.378 2152.65,979.987 2152.73,979.595 2152.9,979.203 2152.92,978.811 2152.66,978.419 2152.11,978.027 2151.34,977.635 2150.44,977.244 2149.51,976.852 2148.58,976.46 2147.71,976.068 2146.86,975.676 2146.02,975.284 2145.13,974.892 2144.13,974.5 2143.05,974.109 2141.92,973.717 2140.86,973.325 2139.95,972.933 2139.27,972.541 2138.85,972.149 2138.71,971.757 2138.81,971.366 2139.13,970.974 2139.61,970.582 2140.18,970.19 2140.78,969.798 2141.33,969.406 2141.8,969.014 2142.15,968.623 2142.37,968.231 2142.45,967.839 2142.37,967.447 2142.13,967.055 2141.76,966.663 2141.31,966.271 2140.83,965.88 2140.35,965.488 2139.89,965.096 2139.46,964.704 2139.07,964.312 2138.72,963.92 2138.44,963.528 2138.23,963.137 2138.09,962.745 2138,962.353 2137.96,961.961 2137.94,961.569 2137.93,961.177 2137.93,960.785 2137.93,960.394 2137.92,960.002 2137.92,959.61 2137.92,959.218 2137.92,958.826 2137.92,958.434 2137.92,958.042 2137.92,957.65 2137.93,957.259 2137.93,956.867 2137.93,956.475 2137.95,956.083 2137.98,955.691 2138.04,955.299 2138.15,954.907 2138.31,954.516 2138.52,954.124 2138.75,953.732 2138.97,953.34 2139.12,952.948 2139.17,952.556 2139.11,952.164 2138.98,951.773 2138.85,951.381 2138.78,950.989 2138.8,950.597 2138.9,950.205 2139.04,949.813 2139.15,949.421 2139.17,949.03 2139.08,948.638 2138.9,948.246 2138.67,947.854 2138.45,947.462 2138.28,947.07 2138.2,946.678 2138.21,946.287 2138.31,945.895 2138.49,945.503 2138.72,945.111 2138.94,944.719 2139.11,944.327 2139.17,943.935 2139.12,943.544 2138.99,943.152 2138.84,942.76 2138.74,942.368 2138.73,941.976 2138.84,941.584 2139.03,941.192 2139.25,940.8 2139.46,940.409 2139.61,940.017 2139.7,939.625 2139.72,939.233 2139.67,938.841 2139.55,938.449 2139.36,938.057 2139.11,937.666 2138.83,937.274 2138.59,936.882 2138.41,936.49 2138.34,936.098 2138.4,935.706 2138.58,935.314 2138.89,934.923 2139.27,934.531 2139.67,934.139 2140,933.747 2140.19,933.355 2140.18,932.963 2135.67,932.963 2135.66,933.355 2135.85,933.747 2136.18,934.139 2136.58,934.531 2136.96,934.923 2137.27,935.314 2137.45,935.706 2137.51,936.098 2137.44,936.49 2137.26,936.882 2137.01,937.274 2136.74,937.666 2136.49,938.057 2136.3,938.449 2136.18,938.841 2136.13,939.233 2136.15,939.625 2136.24,940.017 2136.39,940.409 2136.6,940.8 2136.82,941.192 2137.01,941.584 2137.12,941.976 2137.11,942.368 2137.01,942.76 2136.86,943.152 2136.72,943.544 2136.68,943.935 2136.74,944.327 2136.9,944.719 2137.13,945.111 2137.36,945.503 2137.54,945.895 2137.64,946.287 2137.65,946.678 2137.57,947.07 2137.4,947.462 2137.18,947.854 2136.95,948.246 2136.77,948.638 2136.68,949.03 2136.7,949.421 2136.81,949.813 2136.95,950.205 2137.05,950.597 2137.07,950.989 2137,951.381 2136.87,951.773 2136.74,952.164 2136.68,952.556 2136.73,952.948 2136.88,953.34 2137.1,953.732 2137.33,954.124 2137.54,954.516 2137.7,954.907 2137.81,955.299 2137.87,955.691 2137.9,956.083 2137.92,956.475 2137.92,956.867 2137.92,957.259 2137.92,957.65 2137.92,958.042 2137.92,958.434 2137.92,958.826 2137.92,959.218 2137.92,959.61 2137.92,960.002 2137.92,960.394 2137.92,960.785 2137.92,961.177 2137.91,961.569 2137.89,961.961 2137.84,962.353 2137.76,962.745 2137.62,963.137 2137.41,963.528 2137.13,963.92 2136.78,964.312 2136.39,964.704 2135.96,965.096 2135.5,965.488 2135.02,965.88 2134.54,966.271 2134.09,966.663 2133.72,967.055 2133.48,967.447 2133.4,967.839 2133.48,968.231 2133.7,968.623 2134.05,969.014 2134.52,969.406 2135.07,969.798 2135.67,970.19 2136.24,970.582 2136.72,970.974 2137.04,971.366 2137.14,971.757 2137,972.149 2136.58,972.541 2135.9,972.933 2134.99,973.325 2133.93,973.717 2132.8,974.109 2131.72,974.5 2130.72,974.892 2129.83,975.284 2128.98,975.676 2128.14,976.068 2127.26,976.46 2126.34,976.852 2125.41,977.244 2124.51,977.635 2123.74,978.027 2123.19,978.419 2122.93,978.811 2122.95,979.203 2123.12,979.595 2123.2,979.987 2122.91,980.378 2122.05,980.77 2120.56,981.162 2118.52,981.554 2116.2,981.946 2113.93,982.338 2112.08,982.73 2110.95,983.121 2110.64,983.513 2111.1,983.905 2112.03,984.297 2112.99,984.689 2113.56,985.081 2113.42,985.473 2112.49,985.864 2110.79,986.256 2108.38,986.648 2105.21,987.04 2101.16,987.432 2096.12,987.824 2090.16,988.216 2083.66,988.607 2077.19,988.999 2071.32,989.391 2066.39,989.783 2062.25,990.175 2058.28,990.567 2053.58,990.959 2047.26,991.35 2038.82,991.742 2028.28,992.134 2016.16,992.526 2003.23,992.918 1990.26,993.31 1977.84,993.702 1966.34,994.094 1955.95,994.485 1946.84,994.877 1939.2,995.269 1933.41,995.661 1930.02,996.053 1929.75,996.445 1933.28,996.837 1941.04,997.228 1953.01,997.62 1968.74,998.012 1987.39,998.404 2007.94,998.796 2029.24,999.188 2050.19,999.58 2069.79,999.971 2087.21,1000.36 2101.91,1000.76 2173.94,1000.76 "/>
<path clip-path="url(#clip652)" d="M2904.56 613.065 L2916.85 612.713 L2931.1 612.362 L2946.98 612.01 L2964.04 611.659 L2981.66 611.307 L2999.18 610.956 L3015.93 610.605 L3031.3 610.253 L3044.8 609.902 L3056.05 609.55 L3064.78 609.199 L3070.84 608.847 L3074.14 608.496 L3074.69 608.145 L3072.57 607.793 L3067.95 607.442 L3061.13 607.09 L3052.48 606.739 L3042.47 606.388 L3031.55 606.036 L3020.18 605.685 L3008.75 605.333 L2997.59 604.982 L2986.98 604.63 L2977.15 604.279 L2968.26 603.928 L2960.38 603.576 L2953.49 603.225 L2947.49 602.873 L2942.19 602.522 L2937.42 602.171 L2933 601.819 L2928.87 601.468 L2925 601.116 L2921.44 600.765 L2918.29 600.413 L2915.61 600.062 L2913.47 599.711 L2911.84 599.359 L2910.62 599.008 L2909.62 598.656 L2908.6 598.305 L2907.31 597.953 L2905.58 597.602 L2903.33 597.251 L2900.6 596.899 L2897.48 596.548 L2894.15 596.196 L2890.77 595.845 L2887.51 595.494 L2884.49 595.142 L2881.88 594.791 L2879.77 594.439 L2878.27 594.088 L2877.4 593.736 L2877.14 593.385 L2877.36 593.034 L2877.91 592.682 L2878.6 592.331 L2879.27 591.979 L2879.79 591.628 L2880.09 591.277 L2880.14 590.925 L2879.98 590.574 L2879.64 590.222 L2879.19 589.871 L2878.66 589.519 L2878.1 589.168 L2877.54 588.817 L2877.01 588.465 L2876.49 588.114 L2875.96 587.762 L2875.4 587.411 L2874.8 587.059 L2874.19 586.708 L2873.61 586.357 L2873.13 586.005 L2872.8 585.654 L2872.67 585.302 L2872.72 584.951 L2872.9 584.6 L2873.13 584.248 L2873.31 583.897 L2873.38 583.545 L2873.32 583.194 L2873.12 582.842 L2872.83 582.491 L2872.51 582.14 L2872.24 581.788 L2872.06 581.437 L2871.99 581.085 L2872.03 580.734 L2872.11 580.382 L2872.18 580.031 L2872.17 579.68 L2872.05 579.328 L2871.83 578.977 L2871.54 578.625 L2871.23 578.274 L2870.94 577.923 L2870.69 577.571 L2870.43 577.22 L2870.15 576.868 L2869.8 576.517 L2869.37 576.165 L2868.89 575.814 L2868.39 575.463 L2867.93 575.111 L2867.54 574.76 L2867.26 574.408 L2867.09 574.057 L2867.04 573.706 L2867.1 573.354 L2867.24 573.003 L2867.45 572.651 L2867.68 572.3 L2867.89 571.948 L2868.04 571.597 L2868.09 571.246 L2868.04 570.894 L2867.9 570.543 L2867.69 570.191 L2867.47 569.84 L2867.26 569.488 L2867.1 569.137 L2867.02 568.786 L2867.04 568.434 L2867.14 568.083 L2867.31 567.731 L2867.52 567.38 L2867.75 567.029 L2867.94 566.677 L2868.06 566.326 L2868.08 565.974 L2868 565.623 L2867.84 565.271 L2867.63 564.92 L2867.41 564.569 L2867.24 564.217 L2867.15 563.866 L2867.18 563.514 L2867.36 563.163 L2867.72 562.812 L2868.25 562.46 L2868.95 562.109 L2869.77 561.757 L2870.64 561.406 L2871.46 561.054 L2872.13 560.703 L2872.58 560.352 L2872.75 560 L2872.66 559.649 L2872.32 559.297 L2871.81 558.946 L2871.18 558.594 L2870.51 558.243 L2869.84 557.892 L2869.21 557.54 L2868.67 557.189 L2868.23 556.837 L2867.92 556.486 L2867.75 556.135 L2867.71 555.783 L2867.77 555.432 L2867.89 555.08 L2868.01 554.729 L2868.1 554.377 L2864.95 554.377 L2865.03 554.729 L2865.15 555.08 L2865.27 555.432 L2865.33 555.783 L2865.29 556.135 L2865.12 556.486 L2864.81 556.837 L2864.38 557.189 L2863.83 557.54 L2863.21 557.892 L2862.54 558.243 L2861.86 558.594 L2861.24 558.946 L2860.72 559.297 L2860.39 559.649 L2860.29 560 L2860.46 560.352 L2860.91 560.703 L2861.58 561.054 L2862.4 561.406 L2863.27 561.757 L2864.09 562.109 L2864.79 562.46 L2865.33 562.812 L2865.68 563.163 L2865.87 563.514 L2865.9 563.866 L2865.81 564.217 L2865.63 564.569 L2865.42 564.92 L2865.21 565.271 L2865.04 565.623 L2864.96 565.974 L2864.99 566.326 L2865.11 566.677 L2865.3 567.029 L2865.52 567.38 L2865.74 567.731 L2865.91 568.083 L2866.01 568.434 L2866.02 568.786 L2865.94 569.137 L2865.79 569.488 L2865.58 569.84 L2865.35 570.191 L2865.14 570.543 L2865 570.894 L2864.95 571.246 L2865.01 571.597 L2865.15 571.948 L2865.36 572.3 L2865.59 572.651 L2865.8 573.003 L2865.95 573.354 L2866 573.706 L2865.95 574.057 L2865.79 574.408 L2865.5 574.76 L2865.11 575.111 L2864.65 575.463 L2864.15 575.814 L2863.67 576.165 L2863.25 576.517 L2862.9 576.868 L2862.61 577.22 L2862.36 577.571 L2862.1 577.923 L2861.81 578.274 L2861.51 578.625 L2861.22 578.977 L2860.99 579.328 L2860.87 579.68 L2860.86 580.031 L2860.93 580.382 L2861.01 580.734 L2861.05 581.085 L2860.98 581.437 L2860.8 581.788 L2860.53 582.14 L2860.22 582.491 L2859.93 582.842 L2859.73 583.194 L2859.66 583.545 L2859.73 583.897 L2859.91 584.248 L2860.14 584.6 L2860.32 584.951 L2860.37 585.302 L2860.24 585.654 L2859.92 586.005 L2859.43 586.357 L2858.85 586.708 L2858.24 587.059 L2857.64 587.411 L2857.09 587.762 L2856.56 588.114 L2856.03 588.465 L2855.5 588.817 L2854.94 589.168 L2854.39 589.519 L2853.86 589.871 L2853.4 590.222 L2853.06 590.574 L2852.9 590.925 L2852.96 591.277 L2853.25 591.628 L2853.77 591.979 L2854.44 592.331 L2855.13 592.682 L2855.68 593.034 L2855.91 593.385 L2855.64 593.736 L2854.77 594.088 L2853.27 594.439 L2851.17 594.791 L2848.55 595.142 L2845.54 595.494 L2842.27 595.845 L2838.89 596.196 L2835.56 596.548 L2832.45 596.899 L2829.71 597.251 L2827.46 597.602 L2825.73 597.953 L2824.44 598.305 L2823.42 598.656 L2822.42 599.008 L2821.2 599.359 L2819.58 599.711 L2817.43 600.062 L2814.76 600.413 L2811.6 600.765 L2808.04 601.116 L2804.17 601.468 L2800.04 601.819 L2795.63 602.171 L2790.85 602.522 L2785.55 602.873 L2779.55 603.225 L2772.67 603.576 L2764.78 603.928 L2755.89 604.279 L2746.06 604.63 L2735.45 604.982 L2724.3 605.333 L2712.86 605.685 L2701.49 606.036 L2690.57 606.388 L2680.56 606.739 L2671.92 607.09 L2665.1 607.442 L2660.48 607.793 L2658.35 608.145 L2658.9 608.496 L2662.2 608.847 L2668.26 609.199 L2677 609.55 L2688.24 609.902 L2701.74 610.253 L2717.11 610.605 L2733.87 610.956 L2751.39 611.307 L2769.01 611.659 L2786.06 612.01 L2801.95 612.362 L2816.19 612.713 L2828.48 613.065 L2904.56 613.065  Z" fill="#c271d2" fill-rule="evenodd" fill-opacity="1"/>
<polyline clip-path="url(#clip652)" style="stroke:#000000; stroke-linecap:round; stroke-linejoin:round; stroke-width:4; stroke-opacity:1; fill:none" points="2904.56,613.065 2916.85,612.713 2931.1,612.362 2946.98,612.01 2964.04,611.659 2981.66,611.307 2999.18,610.956 3015.93,610.605 3031.3,610.253 3044.8,609.902 3056.05,609.55 3064.78,609.199 3070.84,608.847 3074.14,608.496 3074.69,608.145 3072.57,607.793 3067.95,607.442 3061.13,607.09 3052.48,606.739 3042.47,606.388 3031.55,606.036 3020.18,605.685 3008.75,605.333 2997.59,604.982 2986.98,604.63 2977.15,604.279 2968.26,603.928 2960.38,603.576 2953.49,603.225 2947.49,602.873 2942.19,602.522 2937.42,602.171 2933,601.819 2928.87,601.468 2925,601.116 2921.44,600.765 2918.29,600.413 2915.61,600.062 2913.47,599.711 2911.84,599.359 2910.62,599.008 2909.62,598.656 2908.6,598.305 2907.31,597.953 2905.58,597.602 2903.33,597.251 2900.6,596.899 2897.48,596.548 2894.15,596.196 2890.77,595.845 2887.51,595.494 2884.49,595.142 2881.88,594.791 2879.77,594.439 2878.27,594.088 2877.4,593.736 2877.14,593.385 2877.36,593.034 2877.91,592.682 2878.6,592.331 2879.27,591.979 2879.79,591.628 2880.09,591.277 2880.14,590.925 2879.98,590.574 2879.64,590.222 2879.19,589.871 2878.66,589.519 2878.1,589.168 2877.54,588.817 2877.01,588.465 2876.49,588.114 2875.96,587.762 2875.4,587.411 2874.8,587.059 2874.19,586.708 2873.61,586.357 2873.13,586.005 2872.8,585.654 2872.67,585.302 2872.72,584.951 2872.9,584.6 2873.13,584.248 2873.31,583.897 2873.38,583.545 2873.32,583.194 2873.12,582.842 2872.83,582.491 2872.51,582.14 2872.24,581.788 2872.06,581.437 2871.99,581.085 2872.03,580.734 2872.11,580.382 2872.18,580.031 2872.17,579.68 2872.05,579.328 2871.83,578.977 2871.54,578.625 2871.23,578.274 2870.94,577.923 2870.69,577.571 2870.43,577.22 2870.15,576.868 2869.8,576.517 2869.37,576.165 2868.89,575.814 2868.39,575.463 2867.93,575.111 2867.54,574.76 2867.26,574.408 2867.09,574.057 2867.04,573.706 2867.1,573.354 2867.24,573.003 2867.45,572.651 2867.68,572.3 2867.89,571.948 2868.04,571.597 2868.09,571.246 2868.04,570.894 2867.9,570.543 2867.69,570.191 2867.47,569.84 2867.26,569.488 2867.1,569.137 2867.02,568.786 2867.04,568.434 2867.14,568.083 2867.31,567.731 2867.52,567.38 2867.75,567.029 2867.94,566.677 2868.06,566.326 2868.08,565.974 2868,565.623 2867.84,565.271 2867.63,564.92 2867.41,564.569 2867.24,564.217 2867.15,563.866 2867.18,563.514 2867.36,563.163 2867.72,562.812 2868.25,562.46 2868.95,562.109 2869.77,561.757 2870.64,561.406 2871.46,561.054 2872.13,560.703 2872.58,560.352 2872.75,560 2872.66,559.649 2872.32,559.297 2871.81,558.946 2871.18,558.594 2870.51,558.243 2869.84,557.892 2869.21,557.54 2868.67,557.189 2868.23,556.837 2867.92,556.486 2867.75,556.135 2867.71,555.783 2867.77,555.432 2867.89,555.08 2868.01,554.729 2868.1,554.377 2864.95,554.377 2865.03,554.729 2865.15,555.08 2865.27,555.432 2865.33,555.783 2865.29,556.135 2865.12,556.486 2864.81,556.837 2864.38,557.189 2863.83,557.54 2863.21,557.892 2862.54,558.243 2861.86,558.594 2861.24,558.946 2860.72,559.297 2860.39,559.649 2860.29,560 2860.46,560.352 2860.91,560.703 2861.58,561.054 2862.4,561.406 2863.27,561.757 2864.09,562.109 2864.79,562.46 2865.33,562.812 2865.68,563.163 2865.87,563.514 2865.9,563.866 2865.81,564.217 2865.63,564.569 2865.42,564.92 2865.21,565.271 2865.04,565.623 2864.96,565.974 2864.99,566.326 2865.11,566.677 2865.3,567.029 2865.52,567.38 2865.74,567.731 2865.91,568.083 2866.01,568.434 2866.02,568.786 2865.94,569.137 2865.79,569.488 2865.58,569.84 2865.35,570.191 2865.14,570.543 2865,570.894 2864.95,571.246 2865.01,571.597 2865.15,571.948 2865.36,572.3 2865.59,572.651 2865.8,573.003 2865.95,573.354 2866,573.706 2865.95,574.057 2865.79,574.408 2865.5,574.76 2865.11,575.111 2864.65,575.463 2864.15,575.814 2863.67,576.165 2863.25,576.517 2862.9,576.868 2862.61,577.22 2862.36,577.571 2862.1,577.923 2861.81,578.274 2861.51,578.625 2861.22,578.977 2860.99,579.328 2860.87,579.68 2860.86,580.031 2860.93,580.382 2861.01,580.734 2861.05,581.085 2860.98,581.437 2860.8,581.788 2860.53,582.14 2860.22,582.491 2859.93,582.842 2859.73,583.194 2859.66,583.545 2859.73,583.897 2859.91,584.248 2860.14,584.6 2860.32,584.951 2860.37,585.302 2860.24,585.654 2859.92,586.005 2859.43,586.357 2858.85,586.708 2858.24,587.059 2857.64,587.411 2857.09,587.762 2856.56,588.114 2856.03,588.465 2855.5,588.817 2854.94,589.168 2854.39,589.519 2853.86,589.871 2853.4,590.222 2853.06,590.574 2852.9,590.925 2852.96,591.277 2853.25,591.628 2853.77,591.979 2854.44,592.331 2855.13,592.682 2855.68,593.034 2855.91,593.385 2855.64,593.736 2854.77,594.088 2853.27,594.439 2851.17,594.791 2848.55,595.142 2845.54,595.494 2842.27,595.845 2838.89,596.196 2835.56,596.548 2832.45,596.899 2829.71,597.251 2827.46,597.602 2825.73,597.953 2824.44,598.305 2823.42,598.656 2822.42,599.008 2821.2,599.359 2819.58,599.711 2817.43,600.062 2814.76,600.413 2811.6,600.765 2808.04,601.116 2804.17,601.468 2800.04,601.819 2795.63,602.171 2790.85,602.522 2785.55,602.873 2779.55,603.225 2772.67,603.576 2764.78,603.928 2755.89,604.279 2746.06,604.63 2735.45,604.982 2724.3,605.333 2712.86,605.685 2701.49,606.036 2690.57,606.388 2680.56,606.739 2671.92,607.09 2665.1,607.442 2660.48,607.793 2658.35,608.145 2658.9,608.496 2662.2,608.847 2668.26,609.199 2677,609.55 2688.24,609.902 2701.74,610.253 2717.11,610.605 2733.87,610.956 2751.39,611.307 2769.01,611.659 2786.06,612.01 2801.95,612.362 2816.19,612.713 2828.48,613.065 2904.56,613.065 "/>
</svg>
