<?xml version="1.0" encoding="utf-8"?>
<svg xmlns="http://www.w3.org/2000/svg" xmlns:xlink="http://www.w3.org/1999/xlink" width="800" height="400" viewBox="0 0 3200 1600">
<defs>
  <clipPath id="clip080">
    <rect x="0" y="0" width="3200" height="1600"/>
  </clipPath>
</defs>
<path clip-path="url(#clip080)" d="M0 1600 L3200 1600 L3200 0 L0 0  Z" fill="#ffffff" fill-rule="evenodd" fill-opacity="1"/>
<defs>
  <clipPath id="clip081">
    <rect x="348" y="171" width="2181" height="1201"/>
  </clipPath>
</defs>
<path clip-path="url(#clip080)" d="M348.626 1371.5 L2528.15 1371.5 L2528.15 171.344 L348.626 171.344  Z" fill="#ffffff" fill-rule="evenodd" fill-opacity="1"/>
<polyline clip-path="url(#clip081)" style="stroke:#000000; stroke-linecap:round; stroke-linejoin:round; stroke-width:2; stroke-opacity:0.1; fill:none" points="484.365,1371.5 484.365,171.344 "/>
<polyline clip-path="url(#clip081)" style="stroke:#000000; stroke-linecap:round; stroke-linejoin:round; stroke-width:2; stroke-opacity:0.1; fill:none" points="939.44,1371.5 939.44,171.344 "/>
<polyline clip-path="url(#clip081)" style="stroke:#000000; stroke-linecap:round; stroke-linejoin:round; stroke-width:2; stroke-opacity:0.1; fill:none" points="1394.51,1371.5 1394.51,171.344 "/>
<polyline clip-path="url(#clip081)" style="stroke:#000000; stroke-linecap:round; stroke-linejoin:round; stroke-width:2; stroke-opacity:0.1; fill:none" points="1849.59,1371.5 1849.59,171.344 "/>
<polyline clip-path="url(#clip081)" style="stroke:#000000; stroke-linecap:round; stroke-linejoin:round; stroke-width:2; stroke-opacity:0.1; fill:none" points="2304.67,1371.5 2304.67,171.344 "/>
<polyline clip-path="url(#clip081)" style="stroke:#000000; stroke-linecap:round; stroke-linejoin:round; stroke-width:2; stroke-opacity:0.1; fill:none" points="348.626,1184.71 2528.15,1184.71 "/>
<polyline clip-path="url(#clip081)" style="stroke:#000000; stroke-linecap:round; stroke-linejoin:round; stroke-width:2; stroke-opacity:0.1; fill:none" points="348.626,927.758 2528.15,927.758 "/>
<polyline clip-path="url(#clip081)" style="stroke:#000000; stroke-linecap:round; stroke-linejoin:round; stroke-width:2; stroke-opacity:0.1; fill:none" points="348.626,670.802 2528.15,670.802 "/>
<polyline clip-path="url(#clip081)" style="stroke:#000000; stroke-linecap:round; stroke-linejoin:round; stroke-width:2; stroke-opacity:0.1; fill:none" points="348.626,413.846 2528.15,413.846 "/>
<polyline clip-path="url(#clip080)" style="stroke:#000000; stroke-linecap:round; stroke-linejoin:round; stroke-width:4; stroke-opacity:1; fill:none" points="348.626,1371.5 2528.15,1371.5 "/>
<polyline clip-path="url(#clip080)" style="stroke:#000000; stroke-linecap:round; stroke-linejoin:round; stroke-width:4; stroke-opacity:1; fill:none" points="484.365,1371.5 484.365,1352.6 "/>
<polyline clip-path="url(#clip080)" style="stroke:#000000; stroke-linecap:round; stroke-linejoin:round; stroke-width:4; stroke-opacity:1; fill:none" points="939.44,1371.5 939.44,1352.6 "/>
<polyline clip-path="url(#clip080)" style="stroke:#000000; stroke-linecap:round; stroke-linejoin:round; stroke-width:4; stroke-opacity:1; fill:none" points="1394.51,1371.5 1394.51,1352.6 "/>
<polyline clip-path="url(#clip080)" style="stroke:#000000; stroke-linecap:round; stroke-linejoin:round; stroke-width:4; stroke-opacity:1; fill:none" points="1849.59,1371.5 1849.59,1352.6 "/>
<polyline clip-path="url(#clip080)" style="stroke:#000000; stroke-linecap:round; stroke-linejoin:round; stroke-width:4; stroke-opacity:1; fill:none" points="2304.67,1371.5 2304.67,1352.6 "/>
<path clip-path="url(#clip080)" d="M433.784 1452.02 L441.423 1452.02 L441.423 1425.65 L433.113 1427.32 L433.113 1423.06 L441.377 1421.4 L446.053 1421.4 L446.053 1452.02 L453.691 1452.02 L453.691 1455.96 L433.784 1455.96 L433.784 1452.02 Z" fill="#000000" fill-rule="nonzero" fill-opacity="1" /><path clip-path="url(#clip080)" d="M473.136 1424.47 Q469.525 1424.47 467.696 1428.04 Q465.89 1431.58 465.89 1438.71 Q465.89 1445.82 467.696 1449.38 Q469.525 1452.92 473.136 1452.92 Q476.77 1452.92 478.576 1449.38 Q480.404 1445.82 480.404 1438.71 Q480.404 1431.58 478.576 1428.04 Q476.77 1424.47 473.136 1424.47 M473.136 1420.77 Q478.946 1420.77 482.001 1425.38 Q485.08 1429.96 485.08 1438.71 Q485.08 1447.44 482.001 1452.04 Q478.946 1456.63 473.136 1456.63 Q467.326 1456.63 464.247 1452.04 Q461.191 1447.44 461.191 1438.71 Q461.191 1429.96 464.247 1425.38 Q467.326 1420.77 473.136 1420.77 Z" fill="#000000" fill-rule="nonzero" fill-opacity="1" /><path clip-path="url(#clip080)" d="M485.08 1414.87 L509.192 1414.87 L509.192 1418.07 L485.08 1418.07 L485.08 1414.87 Z" fill="#000000" fill-rule="nonzero" fill-opacity="1" /><path clip-path="url(#clip080)" d="M527.83 1403.78 L518.238 1418.76 L527.83 1418.76 L527.83 1403.78 M526.833 1400.46 L531.611 1400.46 L531.611 1418.76 L535.617 1418.76 L535.617 1421.92 L531.611 1421.92 L531.611 1428.54 L527.83 1428.54 L527.83 1421.92 L515.154 1421.92 L515.154 1418.26 L526.833 1400.46 Z" fill="#000000" fill-rule="nonzero" fill-opacity="1" /><path clip-path="url(#clip080)" d="M889.706 1452.02 L897.344 1452.02 L897.344 1425.65 L889.034 1427.32 L889.034 1423.06 L897.298 1421.4 L901.974 1421.4 L901.974 1452.02 L909.613 1452.02 L909.613 1455.96 L889.706 1455.96 L889.706 1452.02 Z" fill="#000000" fill-rule="nonzero" fill-opacity="1" /><path clip-path="url(#clip080)" d="M929.057 1424.47 Q925.446 1424.47 923.617 1428.04 Q921.812 1431.58 921.812 1438.71 Q921.812 1445.82 923.617 1449.38 Q925.446 1452.92 929.057 1452.92 Q932.691 1452.92 934.497 1449.38 Q936.326 1445.82 936.326 1438.71 Q936.326 1431.58 934.497 1428.04 Q932.691 1424.47 929.057 1424.47 M929.057 1420.77 Q934.867 1420.77 937.923 1425.38 Q941.002 1429.96 941.002 1438.71 Q941.002 1447.44 937.923 1452.04 Q934.867 1456.63 929.057 1456.63 Q923.247 1456.63 920.168 1452.04 Q917.113 1447.44 917.113 1438.71 Q917.113 1429.96 920.168 1425.38 Q923.247 1420.77 929.057 1420.77 Z" fill="#000000" fill-rule="nonzero" fill-opacity="1" /><path clip-path="url(#clip080)" d="M941.002 1414.87 L965.113 1414.87 L965.113 1418.07 L941.002 1418.07 L941.002 1414.87 Z" fill="#000000" fill-rule="nonzero" fill-opacity="1" /><path clip-path="url(#clip080)" d="M976.586 1425.35 L989.845 1425.35 L989.845 1428.54 L972.016 1428.54 L972.016 1425.35 Q974.178 1423.11 977.902 1419.35 Q981.645 1415.57 982.604 1414.48 Q984.429 1412.43 985.143 1411.02 Q985.877 1409.59 985.877 1408.21 Q985.877 1405.98 984.297 1404.57 Q982.736 1403.15 980.216 1403.15 Q978.429 1403.15 976.435 1403.78 Q974.461 1404.4 972.204 1405.66 L972.204 1401.82 Q974.498 1400.9 976.492 1400.43 Q978.485 1399.96 980.141 1399.96 Q984.504 1399.96 987.099 1402.14 Q989.695 1404.32 989.695 1407.97 Q989.695 1409.7 989.037 1411.26 Q988.397 1412.8 986.686 1414.91 Q986.215 1415.45 983.695 1418.07 Q981.175 1420.66 976.586 1425.35 Z" fill="#000000" fill-rule="nonzero" fill-opacity="1" /><path clip-path="url(#clip080)" d="M1359.5 1452.02 L1367.14 1452.02 L1367.14 1425.65 L1358.83 1427.32 L1358.83 1423.06 L1367.09 1421.4 L1371.77 1421.4 L1371.77 1452.02 L1379.41 1452.02 L1379.41 1455.96 L1359.5 1455.96 L1359.5 1452.02 Z" fill="#000000" fill-rule="nonzero" fill-opacity="1" /><path clip-path="url(#clip080)" d="M1398.85 1424.47 Q1395.24 1424.47 1393.41 1428.04 Q1391.6 1431.58 1391.6 1438.71 Q1391.6 1445.82 1393.41 1449.38 Q1395.24 1452.92 1398.85 1452.92 Q1402.48 1452.92 1404.29 1449.38 Q1406.12 1445.82 1406.12 1438.71 Q1406.12 1431.58 1404.29 1428.04 Q1402.48 1424.47 1398.85 1424.47 M1398.85 1420.77 Q1404.66 1420.77 1407.72 1425.38 Q1410.79 1429.96 1410.79 1438.71 Q1410.79 1447.44 1407.72 1452.04 Q1404.66 1456.63 1398.85 1456.63 Q1393.04 1456.63 1389.96 1452.04 Q1386.91 1447.44 1386.91 1438.71 Q1386.91 1429.96 1389.96 1425.38 Q1393.04 1420.77 1398.85 1420.77 Z" fill="#000000" fill-rule="nonzero" fill-opacity="1" /><path clip-path="url(#clip080)" d="M1420.5 1402.97 Q1417.56 1402.97 1416.08 1405.86 Q1414.61 1408.74 1414.61 1414.53 Q1414.61 1420.31 1416.08 1423.2 Q1417.56 1426.08 1420.5 1426.08 Q1423.45 1426.08 1424.92 1423.2 Q1426.4 1420.31 1426.4 1414.53 Q1426.4 1408.74 1424.92 1405.86 Q1423.45 1402.97 1420.5 1402.97 M1420.5 1399.96 Q1425.22 1399.96 1427.7 1403.7 Q1430.2 1407.42 1430.2 1414.53 Q1430.2 1421.62 1427.7 1425.37 Q1425.22 1429.09 1420.5 1429.09 Q1415.78 1429.09 1413.28 1425.37 Q1410.79 1421.62 1410.79 1414.53 Q1410.79 1407.42 1413.28 1403.7 Q1415.78 1399.96 1420.5 1399.96 Z" fill="#000000" fill-rule="nonzero" fill-opacity="1" /><path clip-path="url(#clip080)" d="M1815.36 1452.02 L1823 1452.02 L1823 1425.65 L1814.69 1427.32 L1814.69 1423.06 L1822.96 1421.4 L1827.63 1421.4 L1827.63 1452.02 L1835.27 1452.02 L1835.27 1455.96 L1815.36 1455.96 L1815.36 1452.02 Z" fill="#000000" fill-rule="nonzero" fill-opacity="1" /><path clip-path="url(#clip080)" d="M1854.71 1424.47 Q1851.1 1424.47 1849.27 1428.04 Q1847.47 1431.58 1847.47 1438.71 Q1847.47 1445.82 1849.27 1449.38 Q1851.1 1452.92 1854.71 1452.92 Q1858.35 1452.92 1860.15 1449.38 Q1861.98 1445.82 1861.98 1438.71 Q1861.98 1431.58 1860.15 1428.04 Q1858.35 1424.47 1854.71 1424.47 M1854.71 1420.77 Q1860.52 1420.77 1863.58 1425.38 Q1866.66 1429.96 1866.66 1438.71 Q1866.66 1447.44 1863.58 1452.04 Q1860.52 1456.63 1854.71 1456.63 Q1848.9 1456.63 1845.83 1452.04 Q1842.77 1447.44 1842.77 1438.71 Q1842.77 1429.96 1845.83 1425.38 Q1848.9 1420.77 1854.71 1420.77 Z" fill="#000000" fill-rule="nonzero" fill-opacity="1" /><path clip-path="url(#clip080)" d="M1871.23 1425.35 L1884.49 1425.35 L1884.49 1428.54 L1866.66 1428.54 L1866.66 1425.35 Q1868.82 1423.11 1872.55 1419.35 Q1876.29 1415.57 1877.25 1414.48 Q1879.07 1412.43 1879.79 1411.02 Q1880.52 1409.59 1880.52 1408.21 Q1880.52 1405.98 1878.94 1404.57 Q1877.38 1403.15 1874.86 1403.15 Q1873.07 1403.15 1871.08 1403.78 Q1869.1 1404.4 1866.85 1405.66 L1866.85 1401.82 Q1869.14 1400.9 1871.14 1400.43 Q1873.13 1399.96 1874.78 1399.96 Q1879.15 1399.96 1881.74 1402.14 Q1884.34 1404.32 1884.34 1407.97 Q1884.34 1409.7 1883.68 1411.26 Q1883.04 1412.8 1881.33 1414.91 Q1880.86 1415.45 1878.34 1418.07 Q1875.82 1420.66 1871.23 1425.35 Z" fill="#000000" fill-rule="nonzero" fill-opacity="1" /><path clip-path="url(#clip080)" d="M2269.12 1452.02 L2276.76 1452.02 L2276.76 1425.65 L2268.45 1427.32 L2268.45 1423.06 L2276.71 1421.4 L2281.39 1421.4 L2281.39 1452.02 L2289.03 1452.02 L2289.03 1455.96 L2269.12 1455.96 L2269.12 1452.02 Z" fill="#000000" fill-rule="nonzero" fill-opacity="1" /><path clip-path="url(#clip080)" d="M2308.47 1424.47 Q2304.86 1424.47 2303.03 1428.04 Q2301.23 1431.58 2301.23 1438.71 Q2301.23 1445.82 2303.03 1449.38 Q2304.86 1452.92 2308.47 1452.92 Q2312.11 1452.92 2313.91 1449.38 Q2315.74 1445.82 2315.74 1438.71 Q2315.74 1431.58 2313.91 1428.04 Q2312.11 1424.47 2308.47 1424.47 M2308.47 1420.77 Q2314.28 1420.77 2317.34 1425.38 Q2320.42 1429.96 2320.42 1438.71 Q2320.42 1447.44 2317.34 1452.04 Q2314.28 1456.63 2308.47 1456.63 Q2302.66 1456.63 2299.58 1452.04 Q2296.53 1447.44 2296.53 1438.71 Q2296.53 1429.96 2299.58 1425.38 Q2302.66 1420.77 2308.47 1420.77 Z" fill="#000000" fill-rule="nonzero" fill-opacity="1" /><path clip-path="url(#clip080)" d="M2333.09 1403.78 L2323.5 1418.76 L2333.09 1418.76 L2333.09 1403.78 M2332.1 1400.46 L2336.87 1400.46 L2336.87 1418.76 L2340.88 1418.76 L2340.88 1421.92 L2336.87 1421.92 L2336.87 1428.54 L2333.09 1428.54 L2333.09 1421.92 L2320.42 1421.92 L2320.42 1418.26 L2332.1 1400.46 Z" fill="#000000" fill-rule="nonzero" fill-opacity="1" /><path clip-path="url(#clip080)" d="M1299.36 1499.26 L1329.41 1499.26 L1329.41 1504.67 L1305.79 1504.67 L1305.79 1518.74 L1328.42 1518.74 L1328.42 1524.15 L1305.79 1524.15 L1305.79 1541.37 L1329.98 1541.37 L1329.98 1546.78 L1299.36 1546.78 L1299.36 1499.26 Z" fill="#000000" fill-rule="nonzero" fill-opacity="1" /><path clip-path="url(#clip080)" d="M1360.95 1516.61 Q1359.96 1516.04 1358.78 1515.78 Q1357.64 1515.5 1356.24 1515.5 Q1351.27 1515.5 1348.6 1518.74 Q1345.96 1521.96 1345.96 1528.01 L1345.96 1546.78 L1340.07 1546.78 L1340.07 1511.14 L1345.96 1511.14 L1345.96 1516.67 Q1347.8 1513.43 1350.76 1511.87 Q1353.72 1510.28 1357.96 1510.28 Q1358.56 1510.28 1359.29 1510.37 Q1360.02 1510.44 1360.92 1510.6 L1360.95 1516.61 Z" fill="#000000" fill-rule="nonzero" fill-opacity="1" /><path clip-path="url(#clip080)" d="M1386.6 1516.61 Q1385.61 1516.04 1384.44 1515.78 Q1383.29 1515.5 1381.89 1515.5 Q1376.93 1515.5 1374.25 1518.74 Q1371.61 1521.96 1371.61 1528.01 L1371.61 1546.78 L1365.72 1546.78 L1365.72 1511.14 L1371.61 1511.14 L1371.61 1516.67 Q1373.46 1513.43 1376.42 1511.87 Q1379.38 1510.28 1383.61 1510.28 Q1384.21 1510.28 1384.95 1510.37 Q1385.68 1510.44 1386.57 1510.6 L1386.6 1516.61 Z" fill="#000000" fill-rule="nonzero" fill-opacity="1" /><path clip-path="url(#clip080)" d="M1405.13 1515.24 Q1400.41 1515.24 1397.68 1518.93 Q1394.94 1522.59 1394.94 1528.99 Q1394.94 1535.39 1397.65 1539.08 Q1400.38 1542.74 1405.13 1542.74 Q1409.8 1542.74 1412.54 1539.05 Q1415.28 1535.36 1415.28 1528.99 Q1415.28 1522.66 1412.54 1518.97 Q1409.8 1515.24 1405.13 1515.24 M1405.13 1510.28 Q1412.76 1510.28 1417.12 1515.24 Q1421.49 1520.21 1421.49 1528.99 Q1421.49 1537.74 1417.12 1542.74 Q1412.76 1547.71 1405.13 1547.71 Q1397.45 1547.71 1393.09 1542.74 Q1388.77 1537.74 1388.77 1528.99 Q1388.77 1520.21 1393.09 1515.24 Q1397.45 1510.28 1405.13 1510.28 Z" fill="#000000" fill-rule="nonzero" fill-opacity="1" /><path clip-path="url(#clip080)" d="M1451.85 1516.61 Q1450.86 1516.04 1449.69 1515.78 Q1448.54 1515.5 1447.14 1515.5 Q1442.17 1515.5 1439.5 1518.74 Q1436.86 1521.96 1436.86 1528.01 L1436.86 1546.78 L1430.97 1546.78 L1430.97 1511.14 L1436.86 1511.14 L1436.86 1516.67 Q1438.7 1513.43 1441.66 1511.87 Q1444.62 1510.28 1448.86 1510.28 Q1449.46 1510.28 1450.19 1510.37 Q1450.93 1510.44 1451.82 1510.6 L1451.85 1516.61 Z" fill="#000000" fill-rule="nonzero" fill-opacity="1" /><path clip-path="url(#clip080)" d="M1492.78 1497.32 Q1488.52 1504.64 1486.45 1511.8 Q1484.38 1518.97 1484.38 1526.32 Q1484.38 1533.67 1486.45 1540.9 Q1488.55 1548.09 1492.78 1555.38 L1487.69 1555.38 Q1482.91 1547.9 1480.53 1540.67 Q1478.17 1533.45 1478.17 1526.32 Q1478.17 1519.22 1480.53 1512.03 Q1482.88 1504.83 1487.69 1497.32 L1492.78 1497.32 Z" fill="#000000" fill-rule="nonzero" fill-opacity="1" /><path clip-path="url(#clip080)" d="M1504.14 1497.26 L1510 1497.26 L1510 1546.78 L1504.14 1546.78 L1504.14 1497.26 Z" fill="#000000" fill-rule="nonzero" fill-opacity="1" /><path clip-path="url(#clip080)" d="M1528.62 1541.37 L1551.06 1541.37 L1551.06 1546.78 L1520.89 1546.78 L1520.89 1541.37 Q1524.55 1537.59 1530.85 1531.22 Q1537.18 1524.82 1538.81 1522.98 Q1541.89 1519.51 1543.1 1517.12 Q1544.34 1514.7 1544.34 1512.38 Q1544.34 1508.59 1541.67 1506.2 Q1539.03 1503.82 1534.76 1503.82 Q1531.74 1503.82 1528.37 1504.87 Q1525.02 1505.92 1521.2 1508.05 L1521.2 1501.56 Q1525.09 1500 1528.46 1499.2 Q1531.83 1498.4 1534.64 1498.4 Q1542.02 1498.4 1546.41 1502.1 Q1550.8 1505.79 1550.8 1511.96 Q1550.8 1514.89 1549.69 1517.53 Q1548.61 1520.14 1545.71 1523.71 Q1544.92 1524.63 1540.65 1529.06 Q1536.39 1533.45 1528.62 1541.37 Z" fill="#000000" fill-rule="nonzero" fill-opacity="1" /><path clip-path="url(#clip080)" d="M1562.8 1497.32 L1567.9 1497.32 Q1572.67 1504.83 1575.03 1512.03 Q1577.41 1519.22 1577.41 1526.32 Q1577.41 1533.45 1575.03 1540.67 Q1572.67 1547.9 1567.9 1555.38 L1562.8 1555.38 Q1567.04 1548.09 1569.11 1540.9 Q1571.21 1533.67 1571.21 1526.32 Q1571.21 1518.97 1569.11 1511.8 Q1567.04 1504.64 1562.8 1497.32 Z" fill="#000000" fill-rule="nonzero" fill-opacity="1" /><polyline clip-path="url(#clip080)" style="stroke:#000000; stroke-linecap:round; stroke-linejoin:round; stroke-width:4; stroke-opacity:1; fill:none" points="348.626,1371.5 348.626,171.344 "/>
<polyline clip-path="url(#clip080)" style="stroke:#000000; stroke-linecap:round; stroke-linejoin:round; stroke-width:4; stroke-opacity:1; fill:none" points="348.626,1184.71 363.652,1184.71 "/>
<polyline clip-path="url(#clip080)" style="stroke:#000000; stroke-linecap:round; stroke-linejoin:round; stroke-width:4; stroke-opacity:1; fill:none" points="348.626,927.758 363.652,927.758 "/>
<polyline clip-path="url(#clip080)" style="stroke:#000000; stroke-linecap:round; stroke-linejoin:round; stroke-width:4; stroke-opacity:1; fill:none" points="348.626,670.802 363.652,670.802 "/>
<polyline clip-path="url(#clip080)" style="stroke:#000000; stroke-linecap:round; stroke-linejoin:round; stroke-width:4; stroke-opacity:1; fill:none" points="348.626,413.846 363.652,413.846 "/>
<path clip-path="url(#clip080)" d="M162.044 1204.51 L169.682 1204.51 L169.682 1178.14 L161.372 1179.81 L161.372 1175.55 L169.636 1173.88 L174.312 1173.88 L174.312 1204.51 L181.951 1204.51 L181.951 1208.44 L162.044 1208.44 L162.044 1204.51 Z" fill="#000000" fill-rule="nonzero" fill-opacity="1" /><path clip-path="url(#clip080)" d="M201.395 1176.96 Q197.784 1176.96 195.955 1180.53 Q194.15 1184.07 194.15 1191.2 Q194.15 1198.3 195.955 1201.87 Q197.784 1205.41 201.395 1205.41 Q205.029 1205.41 206.835 1201.87 Q208.664 1198.3 208.664 1191.2 Q208.664 1184.07 206.835 1180.53 Q205.029 1176.96 201.395 1176.96 M201.395 1173.26 Q207.205 1173.26 210.261 1177.86 Q213.34 1182.45 213.34 1191.2 Q213.34 1199.92 210.261 1204.53 Q207.205 1209.11 201.395 1209.11 Q195.585 1209.11 192.506 1204.53 Q189.451 1199.92 189.451 1191.2 Q189.451 1182.45 192.506 1177.86 Q195.585 1173.26 201.395 1173.26 Z" fill="#000000" fill-rule="nonzero" fill-opacity="1" /><path clip-path="url(#clip080)" d="M213.34 1167.36 L237.451 1167.36 L237.451 1170.56 L213.34 1170.56 L213.34 1167.36 Z" fill="#000000" fill-rule="nonzero" fill-opacity="1" /><path clip-path="url(#clip080)" d="M248.924 1177.83 L262.183 1177.83 L262.183 1181.03 L244.354 1181.03 L244.354 1177.83 Q246.517 1175.6 250.24 1171.83 Q253.983 1168.05 254.942 1166.96 Q256.767 1164.91 257.481 1163.5 Q258.215 1162.07 258.215 1160.7 Q258.215 1158.46 256.635 1157.05 Q255.074 1155.64 252.554 1155.64 Q250.767 1155.64 248.773 1156.26 Q246.799 1156.88 244.542 1158.14 L244.542 1154.31 Q246.836 1153.38 248.83 1152.91 Q250.823 1152.44 252.479 1152.44 Q256.842 1152.44 259.437 1154.63 Q262.033 1156.81 262.033 1160.46 Q262.033 1162.19 261.375 1163.75 Q260.735 1165.29 259.024 1167.4 Q258.553 1167.94 256.033 1170.56 Q253.513 1173.15 248.924 1177.83 Z" fill="#000000" fill-rule="nonzero" fill-opacity="1" /><path clip-path="url(#clip080)" d="M270.158 1176.25 L274.126 1176.25 L274.126 1181.03 L270.158 1181.03 L270.158 1176.25 Z" fill="#000000" fill-rule="nonzero" fill-opacity="1" /><path clip-path="url(#clip080)" d="M292.84 1156.26 L283.248 1171.25 L292.84 1171.25 L292.84 1156.26 M291.843 1152.95 L296.62 1152.95 L296.62 1171.25 L300.626 1171.25 L300.626 1174.41 L296.62 1174.41 L296.62 1181.03 L292.84 1181.03 L292.84 1174.41 L280.164 1174.41 L280.164 1170.74 L291.843 1152.95 Z" fill="#000000" fill-rule="nonzero" fill-opacity="1" /><path clip-path="url(#clip080)" d="M163.435 947.55 L171.074 947.55 L171.074 921.185 L162.764 922.851 L162.764 918.592 L171.028 916.926 L175.704 916.926 L175.704 947.55 L183.343 947.55 L183.343 951.486 L163.435 951.486 L163.435 947.55 Z" fill="#000000" fill-rule="nonzero" fill-opacity="1" /><path clip-path="url(#clip080)" d="M202.787 920.004 Q199.176 920.004 197.347 923.569 Q195.542 927.111 195.542 934.24 Q195.542 941.347 197.347 944.912 Q199.176 948.453 202.787 948.453 Q206.421 948.453 208.227 944.912 Q210.055 941.347 210.055 934.24 Q210.055 927.111 208.227 923.569 Q206.421 920.004 202.787 920.004 M202.787 916.301 Q208.597 916.301 211.653 920.907 Q214.731 925.49 214.731 934.24 Q214.731 942.967 211.653 947.574 Q208.597 952.157 202.787 952.157 Q196.977 952.157 193.898 947.574 Q190.843 942.967 190.843 934.24 Q190.843 925.49 193.898 920.907 Q196.977 916.301 202.787 916.301 Z" fill="#000000" fill-rule="nonzero" fill-opacity="1" /><path clip-path="url(#clip080)" d="M214.731 910.402 L238.843 910.402 L238.843 913.599 L214.731 913.599 L214.731 910.402 Z" fill="#000000" fill-rule="nonzero" fill-opacity="1" /><path clip-path="url(#clip080)" d="M250.316 920.878 L263.575 920.878 L263.575 924.075 L245.745 924.075 L245.745 920.878 Q247.908 918.64 251.632 914.878 Q255.375 911.098 256.334 910.007 Q258.159 907.957 258.873 906.546 Q259.607 905.117 259.607 903.744 Q259.607 901.506 258.027 900.095 Q256.466 898.685 253.946 898.685 Q252.159 898.685 250.165 899.305 Q248.19 899.926 245.933 901.186 L245.933 897.349 Q248.228 896.428 250.222 895.958 Q252.215 895.487 253.87 895.487 Q258.234 895.487 260.829 897.669 Q263.425 899.851 263.425 903.499 Q263.425 905.23 262.766 906.791 Q262.127 908.333 260.415 910.44 Q259.945 910.985 257.425 913.599 Q254.905 916.195 250.316 920.878 Z" fill="#000000" fill-rule="nonzero" fill-opacity="1" /><path clip-path="url(#clip080)" d="M271.55 919.298 L275.518 919.298 L275.518 924.075 L271.55 924.075 L271.55 919.298 Z" fill="#000000" fill-rule="nonzero" fill-opacity="1" /><path clip-path="url(#clip080)" d="M284.452 920.878 L290.658 920.878 L290.658 899.456 L283.906 900.81 L283.906 897.349 L290.621 895.995 L294.42 895.995 L294.42 920.878 L300.626 920.878 L300.626 924.075 L284.452 924.075 L284.452 920.878 Z" fill="#000000" fill-rule="nonzero" fill-opacity="1" /><path clip-path="url(#clip080)" d="M162.514 690.594 L170.153 690.594 L170.153 664.229 L161.842 665.895 L161.842 661.636 L170.106 659.969 L174.782 659.969 L174.782 690.594 L182.421 690.594 L182.421 694.529 L162.514 694.529 L162.514 690.594 Z" fill="#000000" fill-rule="nonzero" fill-opacity="1" /><path clip-path="url(#clip080)" d="M201.865 663.048 Q198.254 663.048 196.426 666.613 Q194.62 670.155 194.62 677.284 Q194.62 684.391 196.426 687.955 Q198.254 691.497 201.865 691.497 Q205.5 691.497 207.305 687.955 Q209.134 684.391 209.134 677.284 Q209.134 670.155 207.305 666.613 Q205.5 663.048 201.865 663.048 M201.865 659.344 Q207.676 659.344 210.731 663.951 Q213.81 668.534 213.81 677.284 Q213.81 686.011 210.731 690.617 Q207.676 695.201 201.865 695.201 Q196.055 695.201 192.977 690.617 Q189.921 686.011 189.921 677.284 Q189.921 668.534 192.977 663.951 Q196.055 659.344 201.865 659.344 Z" fill="#000000" fill-rule="nonzero" fill-opacity="1" /><path clip-path="url(#clip080)" d="M213.81 653.446 L237.921 653.446 L237.921 656.643 L213.81 656.643 L213.81 653.446 Z" fill="#000000" fill-rule="nonzero" fill-opacity="1" /><path clip-path="url(#clip080)" d="M246.78 663.922 L252.986 663.922 L252.986 642.5 L246.234 643.854 L246.234 640.393 L252.949 639.039 L256.748 639.039 L256.748 663.922 L262.954 663.922 L262.954 667.119 L246.78 667.119 L246.78 663.922 Z" fill="#000000" fill-rule="nonzero" fill-opacity="1" /><path clip-path="url(#clip080)" d="M270.628 662.342 L274.597 662.342 L274.597 667.119 L270.628 667.119 L270.628 662.342 Z" fill="#000000" fill-rule="nonzero" fill-opacity="1" /><path clip-path="url(#clip080)" d="M290.997 653.784 Q288.289 653.784 286.728 655.232 Q285.185 656.681 285.185 659.22 Q285.185 661.759 286.728 663.207 Q288.289 664.655 290.997 664.655 Q293.705 664.655 295.266 663.207 Q296.827 661.74 296.827 659.22 Q296.827 656.681 295.266 655.232 Q293.724 653.784 290.997 653.784 M287.198 652.167 Q284.753 651.565 283.38 649.891 Q282.026 648.217 282.026 645.81 Q282.026 642.443 284.414 640.487 Q286.822 638.531 290.997 638.531 Q295.191 638.531 297.58 640.487 Q299.968 642.443 299.968 645.81 Q299.968 648.217 298.595 649.891 Q297.241 651.565 294.815 652.167 Q297.561 652.806 299.084 654.668 Q300.626 656.53 300.626 659.22 Q300.626 663.301 298.125 665.483 Q295.642 667.664 290.997 667.664 Q286.351 667.664 283.85 665.483 Q281.367 663.301 281.367 659.22 Q281.367 656.53 282.91 654.668 Q284.452 652.806 287.198 652.167 M285.806 646.167 Q285.806 648.349 287.16 649.571 Q288.533 650.794 290.997 650.794 Q293.442 650.794 294.815 649.571 Q296.207 648.349 296.207 646.167 Q296.207 643.985 294.815 642.763 Q293.442 641.54 290.997 641.54 Q288.533 641.54 287.16 642.763 Q285.806 643.985 285.806 646.167 Z" fill="#000000" fill-rule="nonzero" fill-opacity="1" /><path clip-path="url(#clip080)" d="M163.247 433.638 L170.886 433.638 L170.886 407.272 L162.576 408.939 L162.576 404.68 L170.84 403.013 L175.516 403.013 L175.516 433.638 L183.155 433.638 L183.155 437.573 L163.247 437.573 L163.247 433.638 Z" fill="#000000" fill-rule="nonzero" fill-opacity="1" /><path clip-path="url(#clip080)" d="M202.599 406.092 Q198.988 406.092 197.159 409.657 Q195.354 413.198 195.354 420.328 Q195.354 427.434 197.159 430.999 Q198.988 434.541 202.599 434.541 Q206.233 434.541 208.039 430.999 Q209.867 427.434 209.867 420.328 Q209.867 413.198 208.039 409.657 Q206.233 406.092 202.599 406.092 M202.599 402.388 Q208.409 402.388 211.465 406.995 Q214.543 411.578 214.543 420.328 Q214.543 429.055 211.465 433.661 Q208.409 438.244 202.599 438.244 Q196.789 438.244 193.71 433.661 Q190.655 429.055 190.655 420.328 Q190.655 411.578 193.71 406.995 Q196.789 402.388 202.599 402.388 Z" fill="#000000" fill-rule="nonzero" fill-opacity="1" /><path clip-path="url(#clip080)" d="M214.543 396.49 L238.655 396.49 L238.655 399.687 L214.543 399.687 L214.543 396.49 Z" fill="#000000" fill-rule="nonzero" fill-opacity="1" /><path clip-path="url(#clip080)" d="M247.513 406.965 L253.72 406.965 L253.72 385.543 L246.968 386.898 L246.968 383.437 L253.682 382.083 L257.481 382.083 L257.481 406.965 L263.688 406.965 L263.688 410.163 L247.513 410.163 L247.513 406.965 Z" fill="#000000" fill-rule="nonzero" fill-opacity="1" /><path clip-path="url(#clip080)" d="M271.362 405.386 L275.33 405.386 L275.33 410.163 L271.362 410.163 L271.362 405.386 Z" fill="#000000" fill-rule="nonzero" fill-opacity="1" /><path clip-path="url(#clip080)" d="M283.643 382.083 L298.558 382.083 L298.558 385.28 L287.122 385.28 L287.122 392.164 Q287.95 391.882 288.778 391.75 Q289.605 391.6 290.433 391.6 Q295.135 391.6 297.881 394.176 Q300.626 396.753 300.626 401.154 Q300.626 405.687 297.805 408.207 Q294.984 410.708 289.85 410.708 Q288.082 410.708 286.239 410.407 Q284.414 410.106 282.458 409.505 L282.458 405.687 Q284.151 406.608 285.956 407.06 Q287.762 407.511 289.774 407.511 Q293.028 407.511 294.928 405.799 Q296.827 404.088 296.827 401.154 Q296.827 398.22 294.928 396.508 Q293.028 394.797 289.774 394.797 Q288.251 394.797 286.728 395.135 Q285.223 395.474 283.643 396.189 L283.643 382.083 Z" fill="#000000" fill-rule="nonzero" fill-opacity="1" /><path clip-path="url(#clip080)" d="M51.5963 901.248 L51.5963 861.049 L57.0071 861.049 L57.0071 877.918 L99.1163 877.918 L99.1163 884.379 L57.0071 884.379 L57.0071 901.248 L51.5963 901.248 Z" fill="#000000" fill-rule="nonzero" fill-opacity="1" /><path clip-path="url(#clip080)" d="M63.4683 857.102 L63.4683 851.246 L99.1163 851.246 L99.1163 857.102 L63.4683 857.102 M49.5911 857.102 L49.5911 851.246 L57.0071 851.246 L57.0071 857.102 L49.5911 857.102 Z" fill="#000000" fill-rule="nonzero" fill-opacity="1" /><path clip-path="url(#clip080)" d="M70.3115 811.237 Q66.3647 809.041 64.4868 805.986 Q62.609 802.93 62.609 798.792 Q62.609 793.222 66.5239 790.199 Q70.4069 787.175 77.6002 787.175 L99.1163 787.175 L99.1163 793.063 L77.7912 793.063 Q72.6668 793.063 70.1841 794.877 Q67.7015 796.692 67.7015 800.416 Q67.7015 804.967 70.7252 807.609 Q73.7489 810.251 78.9688 810.251 L99.1163 810.251 L99.1163 816.139 L77.7912 816.139 Q72.6349 816.139 70.1841 817.953 Q67.7015 819.767 67.7015 823.555 Q67.7015 828.043 70.7571 830.685 Q73.7808 833.326 78.9688 833.326 L99.1163 833.326 L99.1163 839.215 L63.4683 839.215 L63.4683 833.326 L69.0065 833.326 Q65.7282 831.321 64.1686 828.52 Q62.609 825.719 62.609 821.868 Q62.609 817.985 64.5823 815.28 Q66.5557 812.542 70.3115 811.237 Z" fill="#000000" fill-rule="nonzero" fill-opacity="1" /><path clip-path="url(#clip080)" d="M79.8282 745.002 L82.6928 745.002 L82.6928 771.929 Q88.7402 771.547 91.923 768.301 Q95.0741 765.022 95.0741 759.198 Q95.0741 755.824 94.2465 752.673 Q93.419 749.49 91.7639 746.371 L97.3021 746.371 Q98.6389 749.522 99.3391 752.832 Q100.039 756.142 100.039 759.548 Q100.039 768.078 95.0741 773.075 Q90.1088 778.04 81.6424 778.04 Q72.8896 778.04 67.7652 773.329 Q62.609 768.587 62.609 760.566 Q62.609 753.373 67.2559 749.203 Q71.8711 745.002 79.8282 745.002 M78.1095 750.859 Q73.3033 750.922 70.4388 753.564 Q67.5742 756.174 67.5742 760.503 Q67.5742 765.404 70.3433 768.364 Q73.1124 771.292 78.1413 771.738 L78.1095 750.859 Z" fill="#000000" fill-rule="nonzero" fill-opacity="1" /><path clip-path="url(#clip080)" d="M49.6547 700.601 Q56.9753 704.866 64.1367 706.935 Q71.2981 709.004 78.6505 709.004 Q86.0029 709.004 93.228 706.935 Q100.421 704.834 107.71 700.601 L107.71 705.694 Q100.23 710.468 93.0052 712.855 Q85.7801 715.211 78.6505 715.211 Q71.5528 715.211 64.3595 712.855 Q57.1663 710.5 49.6547 705.694 L49.6547 700.601 Z" fill="#000000" fill-rule="nonzero" fill-opacity="1" /><path clip-path="url(#clip080)" d="M64.5187 666.513 L70.0568 666.513 Q68.7837 668.996 68.1471 671.669 Q67.5106 674.343 67.5106 677.207 Q67.5106 681.568 68.8473 683.764 Q70.1841 685.928 72.8577 685.928 Q74.8948 685.928 76.0724 684.369 Q77.2183 682.809 78.2686 678.099 L78.7142 676.093 Q80.051 669.855 82.5018 667.245 Q84.9208 664.603 89.2813 664.603 Q94.2465 664.603 97.1429 668.55 Q100.039 672.465 100.039 679.34 Q100.039 682.204 99.4664 685.324 Q98.9253 688.411 97.8113 691.848 L91.7639 691.848 Q93.4508 688.602 94.3102 685.451 Q95.1377 682.3 95.1377 679.213 Q95.1377 675.075 93.7373 672.847 Q92.305 670.619 89.7269 670.619 Q87.3397 670.619 86.0666 672.242 Q84.7934 673.834 83.6158 679.276 L83.1384 681.313 Q81.9925 686.756 79.6372 689.175 Q77.2501 691.594 73.1124 691.594 Q68.0835 691.594 65.3462 688.029 Q62.609 684.464 62.609 677.908 Q62.609 674.661 63.0864 671.796 Q63.5638 668.932 64.5187 666.513 Z" fill="#000000" fill-rule="nonzero" fill-opacity="1" /><path clip-path="url(#clip080)" d="M49.6547 656.2 L49.6547 651.108 Q57.1663 646.334 64.3595 643.978 Q71.5528 641.591 78.6505 641.591 Q85.7801 641.591 93.0052 643.978 Q100.23 646.334 107.71 651.108 L107.71 656.2 Q100.421 651.967 93.228 649.898 Q86.0029 647.798 78.6505 647.798 Q71.2981 647.798 64.1367 649.898 Q56.9753 651.967 49.6547 656.2 Z" fill="#000000" fill-rule="nonzero" fill-opacity="1" /><path clip-path="url(#clip080)" d="M1059.4 44.2197 Q1062.04 45.1109 1064.51 48.0275 Q1067.02 50.9442 1069.53 56.0483 L1077.84 72.576 L1069.04 72.576 L1061.31 57.061 Q1058.31 50.9847 1055.47 48.9997 Q1052.68 47.0148 1047.82 47.0148 L1038.91 47.0148 L1038.91 72.576 L1030.72 72.576 L1030.72 12.096 L1049.2 12.096 Q1059.57 12.096 1064.67 16.4305 Q1069.77 20.7649 1069.77 29.5149 Q1069.77 35.2267 1067.1 38.994 Q1064.47 42.7613 1059.4 44.2197 M1038.91 18.8205 L1038.91 40.2903 L1049.2 40.2903 Q1055.11 40.2903 1058.11 37.5762 Q1061.15 34.8216 1061.15 29.5149 Q1061.15 24.2082 1058.11 21.5346 Q1055.11 18.8205 1049.2 18.8205 L1038.91 18.8205 Z" fill="#000000" fill-rule="nonzero" fill-opacity="1" /><path clip-path="url(#clip080)" d="M1123.12 48.0275 L1123.12 51.6733 L1088.85 51.6733 Q1089.34 59.3701 1093.47 63.421 Q1097.64 67.4314 1105.06 67.4314 Q1109.35 67.4314 1113.36 66.3781 Q1117.41 65.3249 1121.38 63.2184 L1121.38 70.267 Q1117.37 71.9684 1113.16 72.8596 Q1108.95 73.7508 1104.61 73.7508 Q1093.76 73.7508 1087.4 67.4314 Q1081.08 61.1119 1081.08 50.3365 Q1081.08 39.1965 1087.07 32.6746 Q1093.11 26.1121 1103.32 26.1121 Q1112.47 26.1121 1117.78 32.0264 Q1123.12 37.9003 1123.12 48.0275 M1115.67 45.84 Q1115.59 39.7232 1112.23 36.0774 Q1108.91 32.4315 1103.4 32.4315 Q1097.16 32.4315 1093.39 35.9558 Q1089.66 39.4801 1089.1 45.8805 L1115.67 45.84 Z" fill="#000000" fill-rule="nonzero" fill-opacity="1" /><path clip-path="url(#clip080)" d="M1158.33 9.54393 L1158.33 15.7418 L1151.2 15.7418 Q1147.19 15.7418 1145.61 17.3622 Q1144.07 18.9825 1144.07 23.1955 L1144.07 27.2059 L1156.34 27.2059 L1156.34 32.9987 L1144.07 32.9987 L1144.07 72.576 L1136.57 72.576 L1136.57 32.9987 L1129.44 32.9987 L1129.44 27.2059 L1136.57 27.2059 L1136.57 24.0462 Q1136.57 16.471 1140.1 13.0277 Q1143.62 9.54393 1151.28 9.54393 L1158.33 9.54393 Z" fill="#000000" fill-rule="nonzero" fill-opacity="1" /><path clip-path="url(#clip080)" d="M1203.37 48.0275 L1203.37 51.6733 L1169.1 51.6733 Q1169.59 59.3701 1173.72 63.421 Q1177.89 67.4314 1185.31 67.4314 Q1189.6 67.4314 1193.61 66.3781 Q1197.66 65.3249 1201.63 63.2184 L1201.63 70.267 Q1197.62 71.9684 1193.41 72.8596 Q1189.19 73.7508 1184.86 73.7508 Q1174 73.7508 1167.64 67.4314 Q1161.32 61.1119 1161.32 50.3365 Q1161.32 39.1965 1167.32 32.6746 Q1173.36 26.1121 1183.56 26.1121 Q1192.72 26.1121 1198.03 32.0264 Q1203.37 37.9003 1203.37 48.0275 M1195.92 45.84 Q1195.84 39.7232 1192.48 36.0774 Q1189.15 32.4315 1183.64 32.4315 Q1177.41 32.4315 1173.64 35.9558 Q1169.91 39.4801 1169.35 45.8805 L1195.92 45.84 Z" fill="#000000" fill-rule="nonzero" fill-opacity="1" /><path clip-path="url(#clip080)" d="M1241.9 34.1734 Q1240.64 33.4443 1239.14 33.1202 Q1237.68 32.7556 1235.9 32.7556 Q1229.58 32.7556 1226.18 36.8875 Q1222.82 40.9789 1222.82 48.6757 L1222.82 72.576 L1215.32 72.576 L1215.32 27.2059 L1222.82 27.2059 L1222.82 34.2544 Q1225.17 30.1225 1228.93 28.1376 Q1232.7 26.1121 1238.09 26.1121 Q1238.86 26.1121 1239.79 26.2337 Q1240.72 26.3147 1241.86 26.5172 L1241.9 34.1734 Z" fill="#000000" fill-rule="nonzero" fill-opacity="1" /><path clip-path="url(#clip080)" d="M1286.7 48.0275 L1286.7 51.6733 L1252.43 51.6733 Q1252.92 59.3701 1257.05 63.421 Q1261.22 67.4314 1268.63 67.4314 Q1272.93 67.4314 1276.94 66.3781 Q1280.99 65.3249 1284.96 63.2184 L1284.96 70.267 Q1280.95 71.9684 1276.73 72.8596 Q1272.52 73.7508 1268.19 73.7508 Q1257.33 73.7508 1250.97 67.4314 Q1244.65 61.1119 1244.65 50.3365 Q1244.65 39.1965 1250.65 32.6746 Q1256.68 26.1121 1266.89 26.1121 Q1276.05 26.1121 1281.35 32.0264 Q1286.7 37.9003 1286.7 48.0275 M1279.25 45.84 Q1279.17 39.7232 1275.8 36.0774 Q1272.48 32.4315 1266.97 32.4315 Q1260.73 32.4315 1256.97 35.9558 Q1253.24 39.4801 1252.67 45.8805 L1279.25 45.84 Z" fill="#000000" fill-rule="nonzero" fill-opacity="1" /><path clip-path="url(#clip080)" d="M1336.65 45.1919 L1336.65 72.576 L1329.19 72.576 L1329.19 45.4349 Q1329.19 38.994 1326.68 35.7938 Q1324.17 32.5936 1319.15 32.5936 Q1313.11 32.5936 1309.63 36.4419 Q1306.14 40.2903 1306.14 46.9338 L1306.14 72.576 L1298.65 72.576 L1298.65 27.2059 L1306.14 27.2059 L1306.14 34.2544 Q1308.82 30.163 1312.42 28.1376 Q1316.07 26.1121 1320.81 26.1121 Q1328.63 26.1121 1332.64 30.9732 Q1336.65 35.7938 1336.65 45.1919 Z" fill="#000000" fill-rule="nonzero" fill-opacity="1" /><path clip-path="url(#clip080)" d="M1384.16 28.9478 L1384.16 35.9153 Q1381 34.1734 1377.8 33.3227 Q1374.65 32.4315 1371.4 32.4315 Q1364.15 32.4315 1360.14 37.0496 Q1356.13 41.6271 1356.13 49.9314 Q1356.13 58.2358 1360.14 62.8538 Q1364.15 67.4314 1371.4 67.4314 Q1374.65 67.4314 1377.8 66.5807 Q1381 65.6895 1384.16 63.9476 L1384.16 70.8341 Q1381.05 72.2924 1377.68 73.0216 Q1374.36 73.7508 1370.59 73.7508 Q1360.35 73.7508 1354.31 67.3098 Q1348.27 60.8689 1348.27 49.9314 Q1348.27 38.832 1354.35 32.472 Q1360.47 26.1121 1371.08 26.1121 Q1374.52 26.1121 1377.8 26.8413 Q1381.09 27.5299 1384.16 28.9478 Z" fill="#000000" fill-rule="nonzero" fill-opacity="1" /><path clip-path="url(#clip080)" d="M1435.94 48.0275 L1435.94 51.6733 L1401.66 51.6733 Q1402.15 59.3701 1406.28 63.421 Q1410.46 67.4314 1417.87 67.4314 Q1422.16 67.4314 1426.17 66.3781 Q1430.22 65.3249 1434.19 63.2184 L1434.19 70.267 Q1430.18 71.9684 1425.97 72.8596 Q1421.76 73.7508 1417.42 73.7508 Q1406.57 73.7508 1400.21 67.4314 Q1393.89 61.1119 1393.89 50.3365 Q1393.89 39.1965 1399.88 32.6746 Q1405.92 26.1121 1416.13 26.1121 Q1425.28 26.1121 1430.59 32.0264 Q1435.94 37.9003 1435.94 48.0275 M1428.48 45.84 Q1428.4 39.7232 1425.04 36.0774 Q1421.72 32.4315 1416.21 32.4315 Q1409.97 32.4315 1406.2 35.9558 Q1402.47 39.4801 1401.91 45.8805 L1428.48 45.84 Z" fill="#000000" fill-rule="nonzero" fill-opacity="1" /><path clip-path="url(#clip080)" d="M1450.07 62.2867 L1458.62 62.2867 L1458.62 72.576 L1450.07 72.576 L1450.07 62.2867 M1450.07 29.6769 L1458.62 29.6769 L1458.62 39.9662 L1450.07 39.9662 L1450.07 29.6769 Z" fill="#000000" fill-rule="nonzero" fill-opacity="1" /><path clip-path="url(#clip080)" d="M1531.5 44.2197 Q1534.13 45.1109 1536.6 48.0275 Q1539.11 50.9442 1541.62 56.0483 L1549.93 72.576 L1541.14 72.576 L1533.4 57.061 Q1530.4 50.9847 1527.57 48.9997 Q1524.77 47.0148 1519.91 47.0148 L1511 47.0148 L1511 72.576 L1502.82 72.576 L1502.82 12.096 L1521.29 12.096 Q1531.66 12.096 1536.76 16.4305 Q1541.87 20.7649 1541.87 29.5149 Q1541.87 35.2267 1539.19 38.994 Q1536.56 42.7613 1531.5 44.2197 M1511 18.8205 L1511 40.2903 L1521.29 40.2903 Q1527.2 40.2903 1530.2 37.5762 Q1533.24 34.8216 1533.24 29.5149 Q1533.24 24.2082 1530.2 21.5346 Q1527.2 18.8205 1521.29 18.8205 L1511 18.8205 Z" fill="#000000" fill-rule="nonzero" fill-opacity="1" /><path clip-path="url(#clip080)" d="M1573.99 32.4315 Q1567.99 32.4315 1564.51 37.1306 Q1561.03 41.7891 1561.03 49.9314 Q1561.03 58.0738 1564.47 62.7728 Q1567.95 67.4314 1573.99 67.4314 Q1579.94 67.4314 1583.43 62.7323 Q1586.91 58.0333 1586.91 49.9314 Q1586.91 41.8701 1583.43 37.1711 Q1579.94 32.4315 1573.99 32.4315 M1573.99 26.1121 Q1583.71 26.1121 1589.26 32.4315 Q1594.81 38.7509 1594.81 49.9314 Q1594.81 61.0714 1589.26 67.4314 Q1583.71 73.7508 1573.99 73.7508 Q1564.23 73.7508 1558.68 67.4314 Q1553.17 61.0714 1553.17 49.9314 Q1553.17 38.7509 1558.68 32.4315 Q1564.23 26.1121 1573.99 26.1121 Z" fill="#000000" fill-rule="nonzero" fill-opacity="1" /><path clip-path="url(#clip080)" d="M1637.02 34.0924 L1637.02 9.54393 L1644.48 9.54393 L1644.48 72.576 L1637.02 72.576 L1637.02 65.7705 Q1634.67 69.8214 1631.07 71.8063 Q1627.5 73.7508 1622.48 73.7508 Q1614.26 73.7508 1609.07 67.1883 Q1603.93 60.6258 1603.93 49.9314 Q1603.93 39.2371 1609.07 32.6746 Q1614.26 26.1121 1622.48 26.1121 Q1627.5 26.1121 1631.07 28.0971 Q1634.67 30.0415 1637.02 34.0924 M1611.62 49.9314 Q1611.62 58.1548 1614.99 62.8538 Q1618.39 67.5124 1624.3 67.5124 Q1630.22 67.5124 1633.62 62.8538 Q1637.02 58.1548 1637.02 49.9314 Q1637.02 41.7081 1633.62 37.0496 Q1630.22 32.3505 1624.3 32.3505 Q1618.39 32.3505 1614.99 37.0496 Q1611.62 41.7081 1611.62 49.9314 Z" fill="#000000" fill-rule="nonzero" fill-opacity="1" /><path clip-path="url(#clip080)" d="M1680.45 49.7694 Q1671.41 49.7694 1667.93 51.8354 Q1664.45 53.9013 1664.45 58.8839 Q1664.45 62.8538 1667.04 65.2034 Q1669.67 67.5124 1674.17 67.5124 Q1680.37 67.5124 1684.09 63.1374 Q1687.86 58.7219 1687.86 51.4303 L1687.86 49.7694 L1680.45 49.7694 M1695.31 46.6907 L1695.31 72.576 L1687.86 72.576 L1687.86 65.6895 Q1685.31 69.8214 1681.5 71.8063 Q1677.69 73.7508 1672.18 73.7508 Q1665.22 73.7508 1661.08 69.8619 Q1656.99 65.9325 1656.99 59.3701 Q1656.99 51.7138 1662.1 47.825 Q1667.24 43.9361 1677.41 43.9361 L1687.86 43.9361 L1687.86 43.2069 Q1687.86 38.0623 1684.46 35.2672 Q1681.1 32.4315 1674.98 32.4315 Q1671.09 32.4315 1667.4 33.3632 Q1663.72 34.295 1660.31 36.1584 L1660.31 29.2718 Q1664.41 27.692 1668.25 26.9223 Q1672.1 26.1121 1675.75 26.1121 Q1685.59 26.1121 1690.45 31.2163 Q1695.31 36.3204 1695.31 46.6907 Z" fill="#000000" fill-rule="nonzero" fill-opacity="1" /><path clip-path="url(#clip080)" d="M1739.59 28.5427 L1739.59 35.5912 Q1736.43 33.9709 1733.03 33.1607 Q1729.63 32.3505 1725.98 32.3505 Q1720.43 32.3505 1717.64 34.0519 Q1714.88 35.7533 1714.88 39.156 Q1714.88 41.7486 1716.87 43.2475 Q1718.85 44.7058 1724.85 46.0426 L1727.4 46.6097 Q1735.34 48.3111 1738.66 51.4303 Q1742.02 54.509 1742.02 60.0587 Q1742.02 66.3781 1737 70.0644 Q1732.02 73.7508 1723.27 73.7508 Q1719.62 73.7508 1715.65 73.0216 Q1711.72 72.3329 1707.35 70.9151 L1707.35 63.2184 Q1711.48 65.3654 1715.49 66.4591 Q1719.5 67.5124 1723.43 67.5124 Q1728.69 67.5124 1731.53 65.73 Q1734.37 63.9071 1734.37 60.6258 Q1734.37 57.5877 1732.3 55.9673 Q1730.27 54.3469 1723.35 52.8481 L1720.75 52.2405 Q1713.83 50.7821 1710.75 47.7845 Q1707.67 44.7463 1707.67 39.4801 Q1707.67 33.0797 1712.21 29.5959 Q1716.74 26.1121 1725.09 26.1121 Q1729.22 26.1121 1732.87 26.7198 Q1736.51 27.3274 1739.59 28.5427 Z" fill="#000000" fill-rule="nonzero" fill-opacity="1" /><path clip-path="url(#clip080)" d="M1777.43 19.2256 L1756.77 51.5113 L1777.43 51.5113 L1777.43 19.2256 M1775.28 12.096 L1785.57 12.096 L1785.57 51.5113 L1794.2 51.5113 L1794.2 58.3168 L1785.57 58.3168 L1785.57 72.576 L1777.43 72.576 L1777.43 58.3168 L1750.12 58.3168 L1750.12 50.4176 L1775.28 12.096 Z" fill="#000000" fill-rule="nonzero" fill-opacity="1" /><path clip-path="url(#clip080)" d="M1815.18 18.8205 L1815.18 41.5461 L1825.47 41.5461 Q1831.18 41.5461 1834.3 38.5889 Q1837.42 35.6318 1837.42 30.163 Q1837.42 24.7348 1834.3 21.7777 Q1831.18 18.8205 1825.47 18.8205 L1815.18 18.8205 M1807 12.096 L1825.47 12.096 Q1835.64 12.096 1840.82 16.714 Q1846.05 21.2916 1846.05 30.163 Q1846.05 39.1155 1840.82 43.6931 Q1835.64 48.2706 1825.47 48.2706 L1815.18 48.2706 L1815.18 72.576 L1807 72.576 L1807 12.096 Z" fill="#000000" fill-rule="nonzero" fill-opacity="1" /><polyline clip-path="url(#clip081)" style="stroke:#009af9; stroke-linecap:round; stroke-linejoin:round; stroke-width:12; stroke-opacity:1; fill:none" points="1776.72,1183.85 1776.19,955.952 1776.05,713.535 636.598,466.116 410.311,205.311 "/>
<line clip-path="url(#clip081)" x1="1776.72" y1="1183.85" x2="1776.72" y2="1167.85" style="stroke:#009af9; stroke-width:12; stroke-opacity:1"/>
<line clip-path="url(#clip081)" x1="1776.72" y1="1183.85" x2="1760.72" y2="1183.85" style="stroke:#009af9; stroke-width:12; stroke-opacity:1"/>
<line clip-path="url(#clip081)" x1="1776.72" y1="1183.85" x2="1776.72" y2="1199.85" style="stroke:#009af9; stroke-width:12; stroke-opacity:1"/>
<line clip-path="url(#clip081)" x1="1776.72" y1="1183.85" x2="1792.72" y2="1183.85" style="stroke:#009af9; stroke-width:12; stroke-opacity:1"/>
<line clip-path="url(#clip081)" x1="1776.19" y1="955.952" x2="1776.19" y2="939.952" style="stroke:#009af9; stroke-width:12; stroke-opacity:1"/>
<line clip-path="url(#clip081)" x1="1776.19" y1="955.952" x2="1760.19" y2="955.952" style="stroke:#009af9; stroke-width:12; stroke-opacity:1"/>
<line clip-path="url(#clip081)" x1="1776.19" y1="955.952" x2="1776.19" y2="971.952" style="stroke:#009af9; stroke-width:12; stroke-opacity:1"/>
<line clip-path="url(#clip081)" x1="1776.19" y1="955.952" x2="1792.19" y2="955.952" style="stroke:#009af9; stroke-width:12; stroke-opacity:1"/>
<line clip-path="url(#clip081)" x1="1776.05" y1="713.535" x2="1776.05" y2="697.535" style="stroke:#009af9; stroke-width:12; stroke-opacity:1"/>
<line clip-path="url(#clip081)" x1="1776.05" y1="713.535" x2="1760.05" y2="713.535" style="stroke:#009af9; stroke-width:12; stroke-opacity:1"/>
<line clip-path="url(#clip081)" x1="1776.05" y1="713.535" x2="1776.05" y2="729.535" style="stroke:#009af9; stroke-width:12; stroke-opacity:1"/>
<line clip-path="url(#clip081)" x1="1776.05" y1="713.535" x2="1792.05" y2="713.535" style="stroke:#009af9; stroke-width:12; stroke-opacity:1"/>
<line clip-path="url(#clip081)" x1="636.598" y1="466.116" x2="636.598" y2="450.116" style="stroke:#009af9; stroke-width:12; stroke-opacity:1"/>
<line clip-path="url(#clip081)" x1="636.598" y1="466.116" x2="620.598" y2="466.116" style="stroke:#009af9; stroke-width:12; stroke-opacity:1"/>
<line clip-path="url(#clip081)" x1="636.598" y1="466.116" x2="636.598" y2="482.116" style="stroke:#009af9; stroke-width:12; stroke-opacity:1"/>
<line clip-path="url(#clip081)" x1="636.598" y1="466.116" x2="652.598" y2="466.116" style="stroke:#009af9; stroke-width:12; stroke-opacity:1"/>
<line clip-path="url(#clip081)" x1="410.311" y1="205.311" x2="410.311" y2="189.311" style="stroke:#009af9; stroke-width:12; stroke-opacity:1"/>
<line clip-path="url(#clip081)" x1="410.311" y1="205.311" x2="394.311" y2="205.311" style="stroke:#009af9; stroke-width:12; stroke-opacity:1"/>
<line clip-path="url(#clip081)" x1="410.311" y1="205.311" x2="410.311" y2="221.311" style="stroke:#009af9; stroke-width:12; stroke-opacity:1"/>
<line clip-path="url(#clip081)" x1="410.311" y1="205.311" x2="426.311" y2="205.311" style="stroke:#009af9; stroke-width:12; stroke-opacity:1"/>
<polyline clip-path="url(#clip081)" style="stroke:#e26f46; stroke-linecap:round; stroke-linejoin:round; stroke-width:12; stroke-opacity:1; fill:none" points="2466.46,1319.28 2455.53,1171.9 2449.74,996.405 2454.61,773.808 2152.3,530.213 "/>
<circle clip-path="url(#clip081)" cx="2466.46" cy="1319.28" r="14.4" fill="#e26f46" fill-rule="evenodd" fill-opacity="1" stroke="#000000" stroke-opacity="1" stroke-width="3.2"/>
<circle clip-path="url(#clip081)" cx="2455.53" cy="1171.9" r="14.4" fill="#e26f46" fill-rule="evenodd" fill-opacity="1" stroke="#000000" stroke-opacity="1" stroke-width="3.2"/>
<circle clip-path="url(#clip081)" cx="2449.74" cy="996.405" r="14.4" fill="#e26f46" fill-rule="evenodd" fill-opacity="1" stroke="#000000" stroke-opacity="1" stroke-width="3.2"/>
<circle clip-path="url(#clip081)" cx="2454.61" cy="773.808" r="14.4" fill="#e26f46" fill-rule="evenodd" fill-opacity="1" stroke="#000000" stroke-opacity="1" stroke-width="3.2"/>
<circle clip-path="url(#clip081)" cx="2152.3" cy="530.213" r="14.4" fill="#e26f46" fill-rule="evenodd" fill-opacity="1" stroke="#000000" stroke-opacity="1" stroke-width="3.2"/>
<polyline clip-path="url(#clip081)" style="stroke:#3da44d; stroke-linecap:round; stroke-linejoin:round; stroke-width:12; stroke-opacity:1; fill:none" points="1739.6,1194.81 1770.11,1010.41 1775.09,805.568 1126.08,599.167 923.624,387.328 "/>
<line clip-path="url(#clip081)" x1="1739.6" y1="1194.81" x2="1739.6" y2="1178.81" style="stroke:#3da44d; stroke-width:12; stroke-opacity:1"/>
<line clip-path="url(#clip081)" x1="1739.6" y1="1194.81" x2="1723.6" y2="1194.81" style="stroke:#3da44d; stroke-width:12; stroke-opacity:1"/>
<line clip-path="url(#clip081)" x1="1739.6" y1="1194.81" x2="1739.6" y2="1210.81" style="stroke:#3da44d; stroke-width:12; stroke-opacity:1"/>
<line clip-path="url(#clip081)" x1="1739.6" y1="1194.81" x2="1755.6" y2="1194.81" style="stroke:#3da44d; stroke-width:12; stroke-opacity:1"/>
<line clip-path="url(#clip081)" x1="1770.11" y1="1010.41" x2="1770.11" y2="994.415" style="stroke:#3da44d; stroke-width:12; stroke-opacity:1"/>
<line clip-path="url(#clip081)" x1="1770.11" y1="1010.41" x2="1754.11" y2="1010.41" style="stroke:#3da44d; stroke-width:12; stroke-opacity:1"/>
<line clip-path="url(#clip081)" x1="1770.11" y1="1010.41" x2="1770.11" y2="1026.41" style="stroke:#3da44d; stroke-width:12; stroke-opacity:1"/>
<line clip-path="url(#clip081)" x1="1770.11" y1="1010.41" x2="1786.11" y2="1010.41" style="stroke:#3da44d; stroke-width:12; stroke-opacity:1"/>
<line clip-path="url(#clip081)" x1="1775.09" y1="805.568" x2="1775.09" y2="789.568" style="stroke:#3da44d; stroke-width:12; stroke-opacity:1"/>
<line clip-path="url(#clip081)" x1="1775.09" y1="805.568" x2="1759.09" y2="805.568" style="stroke:#3da44d; stroke-width:12; stroke-opacity:1"/>
<line clip-path="url(#clip081)" x1="1775.09" y1="805.568" x2="1775.09" y2="821.568" style="stroke:#3da44d; stroke-width:12; stroke-opacity:1"/>
<line clip-path="url(#clip081)" x1="1775.09" y1="805.568" x2="1791.09" y2="805.568" style="stroke:#3da44d; stroke-width:12; stroke-opacity:1"/>
<line clip-path="url(#clip081)" x1="1126.08" y1="599.167" x2="1126.08" y2="583.167" style="stroke:#3da44d; stroke-width:12; stroke-opacity:1"/>
<line clip-path="url(#clip081)" x1="1126.08" y1="599.167" x2="1110.08" y2="599.167" style="stroke:#3da44d; stroke-width:12; stroke-opacity:1"/>
<line clip-path="url(#clip081)" x1="1126.08" y1="599.167" x2="1126.08" y2="615.167" style="stroke:#3da44d; stroke-width:12; stroke-opacity:1"/>
<line clip-path="url(#clip081)" x1="1126.08" y1="599.167" x2="1142.08" y2="599.167" style="stroke:#3da44d; stroke-width:12; stroke-opacity:1"/>
<line clip-path="url(#clip081)" x1="923.624" y1="387.328" x2="923.624" y2="371.328" style="stroke:#3da44d; stroke-width:12; stroke-opacity:1"/>
<line clip-path="url(#clip081)" x1="923.624" y1="387.328" x2="907.624" y2="387.328" style="stroke:#3da44d; stroke-width:12; stroke-opacity:1"/>
<line clip-path="url(#clip081)" x1="923.624" y1="387.328" x2="923.624" y2="403.328" style="stroke:#3da44d; stroke-width:12; stroke-opacity:1"/>
<line clip-path="url(#clip081)" x1="923.624" y1="387.328" x2="939.624" y2="387.328" style="stroke:#3da44d; stroke-width:12; stroke-opacity:1"/>
<polyline clip-path="url(#clip081)" style="stroke:#c271d2; stroke-linecap:round; stroke-linejoin:round; stroke-width:12; stroke-opacity:1; fill:none" points="1759.89,1169.77 1773.44,1033.81 1775.57,864.109 1069.72,687.07 881.787,495.047 "/>
<path clip-path="url(#clip081)" d="M1759.89 1153.77 L1743.89 1169.77 L1759.89 1185.77 L1775.89 1169.77 L1759.89 1153.77 Z" fill="#c271d2" fill-rule="evenodd" fill-opacity="1" stroke="#000000" stroke-opacity="1" stroke-width="3.2"/>
<path clip-path="url(#clip081)" d="M1773.44 1017.81 L1757.44 1033.81 L1773.44 1049.81 L1789.44 1033.81 L1773.44 1017.81 Z" fill="#c271d2" fill-rule="evenodd" fill-opacity="1" stroke="#000000" stroke-opacity="1" stroke-width="3.2"/>
<path clip-path="url(#clip081)" d="M1775.57 848.109 L1759.57 864.109 L1775.57 880.109 L1791.57 864.109 L1775.57 848.109 Z" fill="#c271d2" fill-rule="evenodd" fill-opacity="1" stroke="#000000" stroke-opacity="1" stroke-width="3.2"/>
<path clip-path="url(#clip081)" d="M1069.72 671.07 L1053.72 687.07 L1069.72 703.07 L1085.72 687.07 L1069.72 671.07 Z" fill="#c271d2" fill-rule="evenodd" fill-opacity="1" stroke="#000000" stroke-opacity="1" stroke-width="3.2"/>
<path clip-path="url(#clip081)" d="M881.787 479.047 L865.787 495.047 L881.787 511.047 L897.787 495.047 L881.787 479.047 Z" fill="#c271d2" fill-rule="evenodd" fill-opacity="1" stroke="#000000" stroke-opacity="1" stroke-width="3.2"/>
<polyline clip-path="url(#clip081)" style="stroke:#ac8d18; stroke-linecap:round; stroke-linejoin:round; stroke-width:12; stroke-opacity:1; fill:none" points="2060.46,1337.53 1977.81,1002.11 "/>
<polyline clip-path="url(#clip081)" style="stroke:#ac8d18; stroke-linecap:round; stroke-linejoin:round; stroke-width:12; stroke-opacity:1; fill:none" points="1530.18,780.994 1276.73,652.296 "/>
<path clip-path="url(#clip081)" d="M2076.46 1321.53 L2044.46 1321.53 L2060.46 1353.53 L2076.46 1321.53 Z" fill="#ac8d18" fill-rule="evenodd" fill-opacity="1" stroke="#000000" stroke-opacity="1" stroke-width="3.2"/>
<path clip-path="url(#clip081)" d="M1993.81 986.111 L1961.81 986.111 L1977.81 1018.11 L1993.81 986.111 Z" fill="#ac8d18" fill-rule="evenodd" fill-opacity="1" stroke="#000000" stroke-opacity="1" stroke-width="3.2"/>
<path clip-path="url(#clip081)" d="M1546.18 764.994 L1514.18 764.994 L1530.18 796.994 L1546.18 764.994 Z" fill="#ac8d18" fill-rule="evenodd" fill-opacity="1" stroke="#000000" stroke-opacity="1" stroke-width="3.2"/>
<path clip-path="url(#clip081)" d="M1292.73 636.296 L1260.73 636.296 L1276.73 668.296 L1292.73 636.296 Z" fill="#ac8d18" fill-rule="evenodd" fill-opacity="1" stroke="#000000" stroke-opacity="1" stroke-width="3.2"/>
<path clip-path="url(#clip081)" d="M1571.4 882.546 L1558.89 888.578 L1555.8 902.114 L1564.46 912.962 L1578.34 912.962 L1587 902.114 L1583.91 888.578 Z" fill="#00a9ad" fill-rule="evenodd" fill-opacity="1" stroke="#000000" stroke-opacity="1" stroke-width="3.2"/>
<path clip-path="url(#clip080)" d="M2619.52 966.945 L3089.76 966.945 L3089.76 604.065 L2619.52 604.065  Z" fill="#ffffff" fill-rule="evenodd" fill-opacity="1"/>
<polyline clip-path="url(#clip080)" style="stroke:#000000; stroke-linecap:round; stroke-linejoin:round; stroke-width:4; stroke-opacity:1; fill:none" points="2619.52,966.945 3089.76,966.945 3089.76,604.065 2619.52,604.065 2619.52,966.945 "/>
<polyline clip-path="url(#clip080)" style="stroke:#009af9; stroke-linecap:round; stroke-linejoin:round; stroke-width:12; stroke-opacity:1; fill:none" points="2649.97,655.905 2832.72,655.905 "/>
<line clip-path="url(#clip080)" x1="2741.35" y1="655.905" x2="2741.35" y2="633.149" style="stroke:#009af9; stroke-width:12; stroke-opacity:1"/>
<line clip-path="url(#clip080)" x1="2741.35" y1="655.905" x2="2718.59" y2="655.905" style="stroke:#009af9; stroke-width:12; stroke-opacity:1"/>
<line clip-path="url(#clip080)" x1="2741.35" y1="655.905" x2="2741.35" y2="678.66" style="stroke:#009af9; stroke-width:12; stroke-opacity:1"/>
<line clip-path="url(#clip080)" x1="2741.35" y1="655.905" x2="2764.1" y2="655.905" style="stroke:#009af9; stroke-width:12; stroke-opacity:1"/>
<path clip-path="url(#clip080)" d="M2879.56 656.981 Q2881.07 657.49 2882.48 659.157 Q2883.91 660.824 2885.35 663.74 L2890.09 673.185 L2885.07 673.185 L2880.65 664.319 Q2878.94 660.847 2877.32 659.713 Q2875.72 658.578 2872.94 658.578 L2867.85 658.578 L2867.85 673.185 L2863.17 673.185 L2863.17 638.625 L2873.73 638.625 Q2879.65 638.625 2882.57 641.102 Q2885.49 643.578 2885.49 648.578 Q2885.49 651.842 2883.96 653.995 Q2882.46 656.148 2879.56 656.981 M2867.85 642.467 L2867.85 654.736 L2873.73 654.736 Q2877.11 654.736 2878.82 653.185 Q2880.56 651.611 2880.56 648.578 Q2880.56 645.546 2878.82 644.018 Q2877.11 642.467 2873.73 642.467 L2867.85 642.467 Z" fill="#000000" fill-rule="nonzero" fill-opacity="1" /><path clip-path="url(#clip080)" d="M2903.84 650.245 Q2900.42 650.245 2898.43 652.93 Q2896.44 655.592 2896.44 660.245 Q2896.44 664.898 2898.4 667.583 Q2900.4 670.245 2903.84 670.245 Q2907.25 670.245 2909.24 667.56 Q2911.23 664.875 2911.23 660.245 Q2911.23 655.639 2909.24 652.953 Q2907.25 650.245 2903.84 650.245 M2903.84 646.634 Q2909.4 646.634 2912.57 650.245 Q2915.74 653.856 2915.74 660.245 Q2915.74 666.611 2912.57 670.245 Q2909.4 673.856 2903.84 673.856 Q2898.27 673.856 2895.09 670.245 Q2891.95 666.611 2891.95 660.245 Q2891.95 653.856 2895.09 650.245 Q2898.27 646.634 2903.84 646.634 Z" fill="#000000" fill-rule="nonzero" fill-opacity="1" /><path clip-path="url(#clip080)" d="M2939.86 651.194 L2939.86 637.166 L2944.12 637.166 L2944.12 673.185 L2939.86 673.185 L2939.86 669.296 Q2938.52 671.611 2936.46 672.745 Q2934.42 673.856 2931.55 673.856 Q2926.85 673.856 2923.89 670.106 Q2920.95 666.356 2920.95 660.245 Q2920.95 654.134 2923.89 650.384 Q2926.85 646.634 2931.55 646.634 Q2934.42 646.634 2936.46 647.768 Q2938.52 648.879 2939.86 651.194 M2925.35 660.245 Q2925.35 664.944 2927.27 667.629 Q2929.21 670.291 2932.59 670.291 Q2935.97 670.291 2937.92 667.629 Q2939.86 664.944 2939.86 660.245 Q2939.86 655.546 2937.92 652.884 Q2935.97 650.199 2932.59 650.199 Q2929.21 650.199 2927.27 652.884 Q2925.35 655.546 2925.35 660.245 Z" fill="#000000" fill-rule="nonzero" fill-opacity="1" /><path clip-path="url(#clip080)" d="M2964.68 660.152 Q2959.52 660.152 2957.52 661.333 Q2955.53 662.514 2955.53 665.361 Q2955.53 667.629 2957.02 668.972 Q2958.52 670.291 2961.09 670.291 Q2964.63 670.291 2966.76 667.791 Q2968.91 665.268 2968.91 661.102 L2968.91 660.152 L2964.68 660.152 M2973.17 658.393 L2973.17 673.185 L2968.91 673.185 L2968.91 669.25 Q2967.46 671.611 2965.28 672.745 Q2963.1 673.856 2959.96 673.856 Q2955.97 673.856 2953.61 671.634 Q2951.27 669.389 2951.27 665.639 Q2951.27 661.264 2954.19 659.041 Q2957.13 656.819 2962.94 656.819 L2968.91 656.819 L2968.91 656.403 Q2968.91 653.463 2966.97 651.865 Q2965.05 650.245 2961.55 650.245 Q2959.33 650.245 2957.22 650.778 Q2955.12 651.31 2953.17 652.375 L2953.17 648.44 Q2955.51 647.537 2957.71 647.097 Q2959.91 646.634 2961.99 646.634 Q2967.62 646.634 2970.4 649.551 Q2973.17 652.467 2973.17 658.393 Z" fill="#000000" fill-rule="nonzero" fill-opacity="1" /><path clip-path="url(#clip080)" d="M2998.47 648.023 L2998.47 652.051 Q2996.67 651.125 2994.72 650.662 Q2992.78 650.199 2990.7 650.199 Q2987.52 650.199 2985.93 651.171 Q2984.35 652.143 2984.35 654.088 Q2984.35 655.569 2985.49 656.426 Q2986.62 657.259 2990.05 658.023 L2991.51 658.347 Q2996.04 659.319 2997.94 661.102 Q2999.86 662.861 2999.86 666.032 Q2999.86 669.643 2996.99 671.75 Q2994.15 673.856 2989.15 673.856 Q2987.06 673.856 2984.79 673.439 Q2982.55 673.046 2980.05 672.236 L2980.05 667.838 Q2982.41 669.064 2984.7 669.689 Q2986.99 670.291 2989.24 670.291 Q2992.25 670.291 2993.87 669.273 Q2995.49 668.231 2995.49 666.356 Q2995.49 664.62 2994.31 663.694 Q2993.15 662.768 2989.19 661.912 L2987.71 661.565 Q2983.75 660.731 2981.99 659.018 Q2980.23 657.282 2980.23 654.273 Q2980.23 650.615 2982.83 648.625 Q2985.42 646.634 2990.19 646.634 Q2992.55 646.634 2994.63 646.981 Q2996.71 647.328 2998.47 648.023 Z" fill="#000000" fill-rule="nonzero" fill-opacity="1" /><path clip-path="url(#clip080)" d="M3020.09 642.699 L3008.29 661.148 L3020.09 661.148 L3020.09 642.699 M3018.87 638.625 L3024.75 638.625 L3024.75 661.148 L3029.68 661.148 L3029.68 665.037 L3024.75 665.037 L3024.75 673.185 L3020.09 673.185 L3020.09 665.037 L3004.49 665.037 L3004.49 660.523 L3018.87 638.625 Z" fill="#000000" fill-rule="nonzero" fill-opacity="1" /><polyline clip-path="url(#clip080)" style="stroke:#e26f46; stroke-linecap:round; stroke-linejoin:round; stroke-width:12; stroke-opacity:1; fill:none" points="2649.97,707.745 2832.72,707.745 "/>
<circle clip-path="url(#clip080)" cx="2741.35" cy="707.745" r="20.48" fill="#e26f46" fill-rule="evenodd" fill-opacity="1" stroke="#000000" stroke-opacity="1" stroke-width="4.55111"/>
<path clip-path="url(#clip080)" d="M2879.56 708.821 Q2881.07 709.33 2882.48 710.997 Q2883.91 712.664 2885.35 715.58 L2890.09 725.025 L2885.07 725.025 L2880.65 716.159 Q2878.94 712.687 2877.32 711.553 Q2875.72 710.418 2872.94 710.418 L2867.85 710.418 L2867.85 725.025 L2863.17 725.025 L2863.17 690.465 L2873.73 690.465 Q2879.65 690.465 2882.57 692.942 Q2885.49 695.418 2885.49 700.418 Q2885.49 703.682 2883.96 705.835 Q2882.46 707.988 2879.56 708.821 M2867.85 694.307 L2867.85 706.576 L2873.73 706.576 Q2877.11 706.576 2878.82 705.025 Q2880.56 703.451 2880.56 700.418 Q2880.56 697.386 2878.82 695.858 Q2877.11 694.307 2873.73 694.307 L2867.85 694.307 Z" fill="#000000" fill-rule="nonzero" fill-opacity="1" /><path clip-path="url(#clip080)" d="M2903.84 702.085 Q2900.42 702.085 2898.43 704.77 Q2896.44 707.432 2896.44 712.085 Q2896.44 716.738 2898.4 719.423 Q2900.4 722.085 2903.84 722.085 Q2907.25 722.085 2909.24 719.4 Q2911.23 716.715 2911.23 712.085 Q2911.23 707.479 2909.24 704.793 Q2907.25 702.085 2903.84 702.085 M2903.84 698.474 Q2909.4 698.474 2912.57 702.085 Q2915.74 705.696 2915.74 712.085 Q2915.74 718.451 2912.57 722.085 Q2909.4 725.696 2903.84 725.696 Q2898.27 725.696 2895.09 722.085 Q2891.95 718.451 2891.95 712.085 Q2891.95 705.696 2895.09 702.085 Q2898.27 698.474 2903.84 698.474 Z" fill="#000000" fill-rule="nonzero" fill-opacity="1" /><path clip-path="url(#clip080)" d="M2939.86 703.034 L2939.86 689.006 L2944.12 689.006 L2944.12 725.025 L2939.86 725.025 L2939.86 721.136 Q2938.52 723.451 2936.46 724.585 Q2934.42 725.696 2931.55 725.696 Q2926.85 725.696 2923.89 721.946 Q2920.95 718.196 2920.95 712.085 Q2920.95 705.974 2923.89 702.224 Q2926.85 698.474 2931.55 698.474 Q2934.42 698.474 2936.46 699.608 Q2938.52 700.719 2939.86 703.034 M2925.35 712.085 Q2925.35 716.784 2927.27 719.469 Q2929.21 722.131 2932.59 722.131 Q2935.97 722.131 2937.92 719.469 Q2939.86 716.784 2939.86 712.085 Q2939.86 707.386 2937.92 704.724 Q2935.97 702.039 2932.59 702.039 Q2929.21 702.039 2927.27 704.724 Q2925.35 707.386 2925.35 712.085 Z" fill="#000000" fill-rule="nonzero" fill-opacity="1" /><path clip-path="url(#clip080)" d="M2964.68 711.992 Q2959.52 711.992 2957.52 713.173 Q2955.53 714.354 2955.53 717.201 Q2955.53 719.469 2957.02 720.812 Q2958.52 722.131 2961.09 722.131 Q2964.63 722.131 2966.76 719.631 Q2968.91 717.108 2968.91 712.942 L2968.91 711.992 L2964.68 711.992 M2973.17 710.233 L2973.17 725.025 L2968.91 725.025 L2968.91 721.09 Q2967.46 723.451 2965.28 724.585 Q2963.1 725.696 2959.96 725.696 Q2955.97 725.696 2953.61 723.474 Q2951.27 721.229 2951.27 717.479 Q2951.27 713.104 2954.19 710.881 Q2957.13 708.659 2962.94 708.659 L2968.91 708.659 L2968.91 708.243 Q2968.91 705.303 2966.97 703.705 Q2965.05 702.085 2961.55 702.085 Q2959.33 702.085 2957.22 702.618 Q2955.12 703.15 2953.17 704.215 L2953.17 700.28 Q2955.51 699.377 2957.71 698.937 Q2959.91 698.474 2961.99 698.474 Q2967.62 698.474 2970.4 701.391 Q2973.17 704.307 2973.17 710.233 Z" fill="#000000" fill-rule="nonzero" fill-opacity="1" /><path clip-path="url(#clip080)" d="M2998.47 699.863 L2998.47 703.891 Q2996.67 702.965 2994.72 702.502 Q2992.78 702.039 2990.7 702.039 Q2987.52 702.039 2985.93 703.011 Q2984.35 703.983 2984.35 705.928 Q2984.35 707.409 2985.49 708.266 Q2986.62 709.099 2990.05 709.863 L2991.51 710.187 Q2996.04 711.159 2997.94 712.942 Q2999.86 714.701 2999.86 717.872 Q2999.86 721.483 2996.99 723.59 Q2994.15 725.696 2989.15 725.696 Q2987.06 725.696 2984.79 725.279 Q2982.55 724.886 2980.05 724.076 L2980.05 719.678 Q2982.41 720.904 2984.7 721.529 Q2986.99 722.131 2989.24 722.131 Q2992.25 722.131 2993.87 721.113 Q2995.49 720.071 2995.49 718.196 Q2995.49 716.46 2994.31 715.534 Q2993.15 714.608 2989.19 713.752 L2987.71 713.405 Q2983.75 712.571 2981.99 710.858 Q2980.23 709.122 2980.23 706.113 Q2980.23 702.455 2982.83 700.465 Q2985.42 698.474 2990.19 698.474 Q2992.55 698.474 2994.63 698.821 Q2996.71 699.168 2998.47 699.863 Z" fill="#000000" fill-rule="nonzero" fill-opacity="1" /><path clip-path="url(#clip080)" d="M3007.29 690.465 L3025.65 690.465 L3025.65 694.4 L3011.58 694.4 L3011.58 702.872 Q3012.59 702.525 3013.61 702.363 Q3014.63 702.178 3015.65 702.178 Q3021.44 702.178 3024.82 705.349 Q3028.2 708.52 3028.2 713.937 Q3028.2 719.516 3024.72 722.617 Q3021.25 725.696 3014.93 725.696 Q3012.76 725.696 3010.49 725.326 Q3008.24 724.955 3005.83 724.215 L3005.83 719.516 Q3007.92 720.65 3010.14 721.205 Q3012.36 721.761 3014.84 721.761 Q3018.84 721.761 3021.18 719.654 Q3023.52 717.548 3023.52 713.937 Q3023.52 710.326 3021.18 708.219 Q3018.84 706.113 3014.84 706.113 Q3012.96 706.113 3011.09 706.53 Q3009.24 706.946 3007.29 707.826 L3007.29 690.465 Z" fill="#000000" fill-rule="nonzero" fill-opacity="1" /><polyline clip-path="url(#clip080)" style="stroke:#3da44d; stroke-linecap:round; stroke-linejoin:round; stroke-width:12; stroke-opacity:1; fill:none" points="2649.97,759.585 2832.72,759.585 "/>
<line clip-path="url(#clip080)" x1="2741.35" y1="759.585" x2="2741.35" y2="736.829" style="stroke:#3da44d; stroke-width:12; stroke-opacity:1"/>
<line clip-path="url(#clip080)" x1="2741.35" y1="759.585" x2="2718.59" y2="759.585" style="stroke:#3da44d; stroke-width:12; stroke-opacity:1"/>
<line clip-path="url(#clip080)" x1="2741.35" y1="759.585" x2="2741.35" y2="782.34" style="stroke:#3da44d; stroke-width:12; stroke-opacity:1"/>
<line clip-path="url(#clip080)" x1="2741.35" y1="759.585" x2="2764.1" y2="759.585" style="stroke:#3da44d; stroke-width:12; stroke-opacity:1"/>
<path clip-path="url(#clip080)" d="M2879.56 760.661 Q2881.07 761.17 2882.48 762.837 Q2883.91 764.504 2885.35 767.42 L2890.09 776.865 L2885.07 776.865 L2880.65 767.999 Q2878.94 764.527 2877.32 763.393 Q2875.72 762.258 2872.94 762.258 L2867.85 762.258 L2867.85 776.865 L2863.17 776.865 L2863.17 742.305 L2873.73 742.305 Q2879.65 742.305 2882.57 744.782 Q2885.49 747.258 2885.49 752.258 Q2885.49 755.522 2883.96 757.675 Q2882.46 759.828 2879.56 760.661 M2867.85 746.147 L2867.85 758.416 L2873.73 758.416 Q2877.11 758.416 2878.82 756.865 Q2880.56 755.291 2880.56 752.258 Q2880.56 749.226 2878.82 747.698 Q2877.11 746.147 2873.73 746.147 L2867.85 746.147 Z" fill="#000000" fill-rule="nonzero" fill-opacity="1" /><path clip-path="url(#clip080)" d="M2903.84 753.925 Q2900.42 753.925 2898.43 756.61 Q2896.44 759.272 2896.44 763.925 Q2896.44 768.578 2898.4 771.263 Q2900.4 773.925 2903.84 773.925 Q2907.25 773.925 2909.24 771.24 Q2911.23 768.555 2911.23 763.925 Q2911.23 759.319 2909.24 756.633 Q2907.25 753.925 2903.84 753.925 M2903.84 750.314 Q2909.4 750.314 2912.57 753.925 Q2915.74 757.536 2915.74 763.925 Q2915.74 770.291 2912.57 773.925 Q2909.4 777.536 2903.84 777.536 Q2898.27 777.536 2895.09 773.925 Q2891.95 770.291 2891.95 763.925 Q2891.95 757.536 2895.09 753.925 Q2898.27 750.314 2903.84 750.314 Z" fill="#000000" fill-rule="nonzero" fill-opacity="1" /><path clip-path="url(#clip080)" d="M2939.86 754.874 L2939.86 740.846 L2944.12 740.846 L2944.12 776.865 L2939.86 776.865 L2939.86 772.976 Q2938.52 775.291 2936.46 776.425 Q2934.42 777.536 2931.55 777.536 Q2926.85 777.536 2923.89 773.786 Q2920.95 770.036 2920.95 763.925 Q2920.95 757.814 2923.89 754.064 Q2926.85 750.314 2931.55 750.314 Q2934.42 750.314 2936.46 751.448 Q2938.52 752.559 2939.86 754.874 M2925.35 763.925 Q2925.35 768.624 2927.27 771.309 Q2929.21 773.971 2932.59 773.971 Q2935.97 773.971 2937.92 771.309 Q2939.86 768.624 2939.86 763.925 Q2939.86 759.226 2937.92 756.564 Q2935.97 753.879 2932.59 753.879 Q2929.21 753.879 2927.27 756.564 Q2925.35 759.226 2925.35 763.925 Z" fill="#000000" fill-rule="nonzero" fill-opacity="1" /><path clip-path="url(#clip080)" d="M2964.68 763.832 Q2959.52 763.832 2957.52 765.013 Q2955.53 766.194 2955.53 769.041 Q2955.53 771.309 2957.02 772.652 Q2958.52 773.971 2961.09 773.971 Q2964.63 773.971 2966.76 771.471 Q2968.91 768.948 2968.91 764.782 L2968.91 763.832 L2964.68 763.832 M2973.17 762.073 L2973.17 776.865 L2968.91 776.865 L2968.91 772.93 Q2967.46 775.291 2965.28 776.425 Q2963.1 777.536 2959.96 777.536 Q2955.97 777.536 2953.61 775.314 Q2951.27 773.069 2951.27 769.319 Q2951.27 764.944 2954.19 762.721 Q2957.13 760.499 2962.94 760.499 L2968.91 760.499 L2968.91 760.083 Q2968.91 757.143 2966.97 755.545 Q2965.05 753.925 2961.55 753.925 Q2959.33 753.925 2957.22 754.458 Q2955.12 754.99 2953.17 756.055 L2953.17 752.12 Q2955.51 751.217 2957.71 750.777 Q2959.91 750.314 2961.99 750.314 Q2967.62 750.314 2970.4 753.231 Q2973.17 756.147 2973.17 762.073 Z" fill="#000000" fill-rule="nonzero" fill-opacity="1" /><path clip-path="url(#clip080)" d="M2998.47 751.703 L2998.47 755.731 Q2996.67 754.805 2994.72 754.342 Q2992.78 753.879 2990.7 753.879 Q2987.52 753.879 2985.93 754.851 Q2984.35 755.823 2984.35 757.768 Q2984.35 759.249 2985.49 760.106 Q2986.62 760.939 2990.05 761.703 L2991.51 762.027 Q2996.04 762.999 2997.94 764.782 Q2999.86 766.541 2999.86 769.712 Q2999.86 773.323 2996.99 775.43 Q2994.15 777.536 2989.15 777.536 Q2987.06 777.536 2984.79 777.119 Q2982.55 776.726 2980.05 775.916 L2980.05 771.518 Q2982.41 772.744 2984.7 773.369 Q2986.99 773.971 2989.24 773.971 Q2992.25 773.971 2993.87 772.953 Q2995.49 771.911 2995.49 770.036 Q2995.49 768.3 2994.31 767.374 Q2993.15 766.448 2989.19 765.592 L2987.71 765.245 Q2983.75 764.411 2981.99 762.698 Q2980.23 760.962 2980.23 757.953 Q2980.23 754.295 2982.83 752.305 Q2985.42 750.314 2990.19 750.314 Q2992.55 750.314 2994.63 750.661 Q2996.71 751.008 2998.47 751.703 Z" fill="#000000" fill-rule="nonzero" fill-opacity="1" /><path clip-path="url(#clip080)" d="M3020.09 746.379 L3008.29 764.828 L3020.09 764.828 L3020.09 746.379 M3018.87 742.305 L3024.75 742.305 L3024.75 764.828 L3029.68 764.828 L3029.68 768.717 L3024.75 768.717 L3024.75 776.865 L3020.09 776.865 L3020.09 768.717 L3004.49 768.717 L3004.49 764.203 L3018.87 742.305 Z" fill="#000000" fill-rule="nonzero" fill-opacity="1" /><path clip-path="url(#clip080)" d="M3041.67 746.147 L3041.67 759.133 L3047.55 759.133 Q3050.81 759.133 3052.59 757.444 Q3054.38 755.754 3054.38 752.629 Q3054.38 749.527 3052.59 747.837 Q3050.81 746.147 3047.55 746.147 L3041.67 746.147 M3036.99 742.305 L3047.55 742.305 Q3053.36 742.305 3056.32 744.944 Q3059.31 747.559 3059.31 752.629 Q3059.31 757.745 3056.32 760.36 Q3053.36 762.976 3047.55 762.976 L3041.67 762.976 L3041.67 776.865 L3036.99 776.865 L3036.99 742.305 Z" fill="#000000" fill-rule="nonzero" fill-opacity="1" /><polyline clip-path="url(#clip080)" style="stroke:#c271d2; stroke-linecap:round; stroke-linejoin:round; stroke-width:12; stroke-opacity:1; fill:none" points="2649.97,811.425 2832.72,811.425 "/>
<path clip-path="url(#clip080)" d="M2741.35 788.669 L2718.59 811.425 L2741.35 834.18 L2764.1 811.425 L2741.35 788.669 Z" fill="#c271d2" fill-rule="evenodd" fill-opacity="1" stroke="#000000" stroke-opacity="1" stroke-width="4.55111"/>
<path clip-path="url(#clip080)" d="M2879.56 812.501 Q2881.07 813.01 2882.48 814.677 Q2883.91 816.344 2885.35 819.26 L2890.09 828.705 L2885.07 828.705 L2880.65 819.839 Q2878.94 816.367 2877.32 815.233 Q2875.72 814.098 2872.94 814.098 L2867.85 814.098 L2867.85 828.705 L2863.17 828.705 L2863.17 794.145 L2873.73 794.145 Q2879.65 794.145 2882.57 796.622 Q2885.49 799.098 2885.49 804.098 Q2885.49 807.362 2883.96 809.515 Q2882.46 811.668 2879.56 812.501 M2867.85 797.987 L2867.85 810.256 L2873.73 810.256 Q2877.11 810.256 2878.82 808.705 Q2880.56 807.131 2880.56 804.098 Q2880.56 801.066 2878.82 799.538 Q2877.11 797.987 2873.73 797.987 L2867.85 797.987 Z" fill="#000000" fill-rule="nonzero" fill-opacity="1" /><path clip-path="url(#clip080)" d="M2903.84 805.765 Q2900.42 805.765 2898.43 808.45 Q2896.44 811.112 2896.44 815.765 Q2896.44 820.418 2898.4 823.103 Q2900.4 825.765 2903.84 825.765 Q2907.25 825.765 2909.24 823.08 Q2911.23 820.395 2911.23 815.765 Q2911.23 811.159 2909.24 808.473 Q2907.25 805.765 2903.84 805.765 M2903.84 802.154 Q2909.4 802.154 2912.57 805.765 Q2915.74 809.376 2915.74 815.765 Q2915.74 822.131 2912.57 825.765 Q2909.4 829.376 2903.84 829.376 Q2898.27 829.376 2895.09 825.765 Q2891.95 822.131 2891.95 815.765 Q2891.95 809.376 2895.09 805.765 Q2898.27 802.154 2903.84 802.154 Z" fill="#000000" fill-rule="nonzero" fill-opacity="1" /><path clip-path="url(#clip080)" d="M2939.86 806.714 L2939.86 792.686 L2944.12 792.686 L2944.12 828.705 L2939.86 828.705 L2939.86 824.816 Q2938.52 827.131 2936.46 828.265 Q2934.42 829.376 2931.55 829.376 Q2926.85 829.376 2923.89 825.626 Q2920.95 821.876 2920.95 815.765 Q2920.95 809.654 2923.89 805.904 Q2926.85 802.154 2931.55 802.154 Q2934.42 802.154 2936.46 803.288 Q2938.52 804.399 2939.86 806.714 M2925.35 815.765 Q2925.35 820.464 2927.27 823.149 Q2929.21 825.811 2932.59 825.811 Q2935.97 825.811 2937.92 823.149 Q2939.86 820.464 2939.86 815.765 Q2939.86 811.066 2937.92 808.404 Q2935.97 805.719 2932.59 805.719 Q2929.21 805.719 2927.27 808.404 Q2925.35 811.066 2925.35 815.765 Z" fill="#000000" fill-rule="nonzero" fill-opacity="1" /><path clip-path="url(#clip080)" d="M2964.68 815.672 Q2959.52 815.672 2957.52 816.853 Q2955.53 818.034 2955.53 820.881 Q2955.53 823.149 2957.02 824.492 Q2958.52 825.811 2961.09 825.811 Q2964.63 825.811 2966.76 823.311 Q2968.91 820.788 2968.91 816.622 L2968.91 815.672 L2964.68 815.672 M2973.17 813.913 L2973.17 828.705 L2968.91 828.705 L2968.91 824.77 Q2967.46 827.131 2965.28 828.265 Q2963.1 829.376 2959.96 829.376 Q2955.97 829.376 2953.61 827.154 Q2951.27 824.909 2951.27 821.159 Q2951.27 816.784 2954.19 814.561 Q2957.13 812.339 2962.94 812.339 L2968.91 812.339 L2968.91 811.923 Q2968.91 808.983 2966.97 807.385 Q2965.05 805.765 2961.55 805.765 Q2959.33 805.765 2957.22 806.298 Q2955.12 806.83 2953.17 807.895 L2953.17 803.96 Q2955.51 803.057 2957.71 802.617 Q2959.91 802.154 2961.99 802.154 Q2967.62 802.154 2970.4 805.071 Q2973.17 807.987 2973.17 813.913 Z" fill="#000000" fill-rule="nonzero" fill-opacity="1" /><path clip-path="url(#clip080)" d="M2998.47 803.543 L2998.47 807.571 Q2996.67 806.645 2994.72 806.182 Q2992.78 805.719 2990.7 805.719 Q2987.52 805.719 2985.93 806.691 Q2984.35 807.663 2984.35 809.608 Q2984.35 811.089 2985.49 811.946 Q2986.62 812.779 2990.05 813.543 L2991.51 813.867 Q2996.04 814.839 2997.94 816.622 Q2999.86 818.381 2999.86 821.552 Q2999.86 825.163 2996.99 827.27 Q2994.15 829.376 2989.15 829.376 Q2987.06 829.376 2984.79 828.959 Q2982.55 828.566 2980.05 827.756 L2980.05 823.358 Q2982.41 824.584 2984.7 825.209 Q2986.99 825.811 2989.24 825.811 Q2992.25 825.811 2993.87 824.793 Q2995.49 823.751 2995.49 821.876 Q2995.49 820.14 2994.31 819.214 Q2993.15 818.288 2989.19 817.432 L2987.71 817.085 Q2983.75 816.251 2981.99 814.538 Q2980.23 812.802 2980.23 809.793 Q2980.23 806.135 2982.83 804.145 Q2985.42 802.154 2990.19 802.154 Q2992.55 802.154 2994.63 802.501 Q2996.71 802.848 2998.47 803.543 Z" fill="#000000" fill-rule="nonzero" fill-opacity="1" /><path clip-path="url(#clip080)" d="M3007.29 794.145 L3025.65 794.145 L3025.65 798.08 L3011.58 798.08 L3011.58 806.552 Q3012.59 806.205 3013.61 806.043 Q3014.63 805.858 3015.65 805.858 Q3021.44 805.858 3024.82 809.029 Q3028.2 812.2 3028.2 817.617 Q3028.2 823.196 3024.72 826.297 Q3021.25 829.376 3014.93 829.376 Q3012.76 829.376 3010.49 829.006 Q3008.24 828.635 3005.83 827.895 L3005.83 823.196 Q3007.92 824.33 3010.14 824.885 Q3012.36 825.441 3014.84 825.441 Q3018.84 825.441 3021.18 823.334 Q3023.52 821.228 3023.52 817.617 Q3023.52 814.006 3021.18 811.899 Q3018.84 809.793 3014.84 809.793 Q3012.96 809.793 3011.09 810.21 Q3009.24 810.626 3007.29 811.506 L3007.29 794.145 Z" fill="#000000" fill-rule="nonzero" fill-opacity="1" /><path clip-path="url(#clip080)" d="M3041.67 797.987 L3041.67 810.973 L3047.55 810.973 Q3050.81 810.973 3052.59 809.284 Q3054.38 807.594 3054.38 804.469 Q3054.38 801.367 3052.59 799.677 Q3050.81 797.987 3047.55 797.987 L3041.67 797.987 M3036.99 794.145 L3047.55 794.145 Q3053.36 794.145 3056.32 796.784 Q3059.31 799.399 3059.31 804.469 Q3059.31 809.585 3056.32 812.2 Q3053.36 814.816 3047.55 814.816 L3041.67 814.816 L3041.67 828.705 L3036.99 828.705 L3036.99 794.145 Z" fill="#000000" fill-rule="nonzero" fill-opacity="1" /><polyline clip-path="url(#clip080)" style="stroke:#ac8d18; stroke-linecap:round; stroke-linejoin:round; stroke-width:12; stroke-opacity:1; fill:none" points="2649.97,863.265 2832.72,863.265 "/>
<path clip-path="url(#clip080)" d="M2764.1 840.509 L2718.59 840.509 L2741.35 886.02 L2764.1 840.509 Z" fill="#ac8d18" fill-rule="evenodd" fill-opacity="1" stroke="#000000" stroke-opacity="1" stroke-width="4.55111"/>
<path clip-path="url(#clip080)" d="M2863.17 845.985 L2883.03 845.985 L2883.03 849.92 L2867.85 849.92 L2867.85 860.105 L2881.55 860.105 L2881.55 864.04 L2867.85 864.04 L2867.85 880.545 L2863.17 880.545 L2863.17 845.985 Z" fill="#000000" fill-rule="nonzero" fill-opacity="1" /><path clip-path="url(#clip080)" d="M2895.12 864.04 L2895.12 876.702 L2902.62 876.702 Q2906.39 876.702 2908.2 875.151 Q2910.03 873.577 2910.03 870.36 Q2910.03 867.119 2908.2 865.591 Q2906.39 864.04 2902.62 864.04 L2895.12 864.04 M2895.12 849.827 L2895.12 860.244 L2902.04 860.244 Q2905.46 860.244 2907.13 858.971 Q2908.82 857.675 2908.82 855.036 Q2908.82 852.42 2907.13 851.124 Q2905.46 849.827 2902.04 849.827 L2895.12 849.827 M2890.44 845.985 L2902.39 845.985 Q2907.73 845.985 2910.63 848.207 Q2913.52 850.429 2913.52 854.526 Q2913.52 857.698 2912.04 859.573 Q2910.56 861.448 2907.69 861.911 Q2911.14 862.651 2913.03 865.012 Q2914.96 867.35 2914.96 870.869 Q2914.96 875.499 2911.81 878.022 Q2908.66 880.545 2902.85 880.545 L2890.44 880.545 L2890.44 845.985 Z" fill="#000000" fill-rule="nonzero" fill-opacity="1" /><path clip-path="url(#clip080)" d="M2927.64 849.827 L2927.64 876.702 L2933.29 876.702 Q2940.44 876.702 2943.75 873.462 Q2947.09 870.221 2947.09 863.23 Q2947.09 856.286 2943.75 853.068 Q2940.44 849.827 2933.29 849.827 L2927.64 849.827 M2922.96 845.985 L2932.57 845.985 Q2942.62 845.985 2947.32 850.175 Q2952.02 854.341 2952.02 863.23 Q2952.02 872.165 2947.29 876.355 Q2942.57 880.545 2932.57 880.545 L2922.96 880.545 L2922.96 845.985 Z" fill="#000000" fill-rule="nonzero" fill-opacity="1" /><path clip-path="url(#clip080)" d="M2959.47 845.985 L2979.33 845.985 L2979.33 849.92 L2964.15 849.92 L2964.15 860.105 L2977.85 860.105 L2977.85 864.04 L2964.15 864.04 L2964.15 880.545 L2959.47 880.545 L2959.47 845.985 Z" fill="#000000" fill-rule="nonzero" fill-opacity="1" /><polyline clip-path="url(#clip080)" style="stroke:#00a9ad; stroke-linecap:round; stroke-linejoin:round; stroke-width:12; stroke-opacity:1; fill:none" points="2649.97,915.105 2832.72,915.105 "/>
<path clip-path="url(#clip080)" d="M2741.35 892.349 L2723.55 900.928 L2719.16 920.179 L2731.47 935.608 L2751.22 935.608 L2763.53 920.179 L2759.14 900.928 Z" fill="#00a9ad" fill-rule="evenodd" fill-opacity="1" stroke="#000000" stroke-opacity="1" stroke-width="4.55111"/>
<path clip-path="url(#clip080)" d="M2879.19 900.996 Q2874.1 900.996 2871.09 904.792 Q2868.1 908.589 2868.1 915.14 Q2868.1 921.667 2871.09 925.464 Q2874.1 929.26 2879.19 929.26 Q2884.28 929.26 2887.25 925.464 Q2890.23 921.667 2890.23 915.14 Q2890.23 908.589 2887.25 904.792 Q2884.28 900.996 2879.19 900.996 M2885.74 931.76 L2891.9 938.496 L2886.25 938.496 L2881.14 932.964 Q2880.37 933.01 2879.96 933.033 Q2879.56 933.056 2879.19 933.056 Q2871.9 933.056 2867.53 928.195 Q2863.17 923.311 2863.17 915.14 Q2863.17 906.945 2867.53 902.084 Q2871.9 897.2 2879.19 897.2 Q2886.46 897.2 2890.81 902.084 Q2895.16 906.945 2895.16 915.14 Q2895.16 921.158 2892.73 925.44 Q2890.33 929.723 2885.74 931.76 Z" fill="#000000" fill-rule="nonzero" fill-opacity="1" /><path clip-path="url(#clip080)" d="M2902.48 897.825 L2908.78 897.825 L2924.1 926.737 L2924.1 897.825 L2928.64 897.825 L2928.64 932.385 L2922.34 932.385 L2907.02 903.473 L2907.02 932.385 L2902.48 932.385 L2902.48 897.825 Z" fill="#000000" fill-rule="nonzero" fill-opacity="1" /><path clip-path="url(#clip080)" d="M2942.62 901.667 L2942.62 928.542 L2948.27 928.542 Q2955.42 928.542 2958.73 925.302 Q2962.06 922.061 2962.06 915.07 Q2962.06 908.126 2958.73 904.908 Q2955.42 901.667 2948.27 901.667 L2942.62 901.667 M2937.94 897.825 L2947.55 897.825 Q2957.59 897.825 2962.29 902.015 Q2966.99 906.181 2966.99 915.07 Q2966.99 924.005 2962.27 928.195 Q2957.55 932.385 2947.55 932.385 L2937.94 932.385 L2937.94 897.825 Z" fill="#000000" fill-rule="nonzero" fill-opacity="1" /><path clip-path="url(#clip080)" d="M2974.45 897.825 L2994.31 897.825 L2994.31 901.76 L2979.12 901.76 L2979.12 911.945 L2992.83 911.945 L2992.83 915.88 L2979.12 915.88 L2979.12 932.385 L2974.45 932.385 L2974.45 897.825 Z" fill="#000000" fill-rule="nonzero" fill-opacity="1" /></svg>
