<?xml version="1.0" encoding="utf-8"?>
<svg xmlns="http://www.w3.org/2000/svg" xmlns:xlink="http://www.w3.org/1999/xlink" width="800" height="400" viewBox="0 0 3200 1600">
<defs>
  <clipPath id="clip200">
    <rect x="0" y="0" width="3200" height="1600"/>
  </clipPath>
</defs>
<path clip-path="url(#clip200)" d="M0 1600 L3200 1600 L3200 0 L0 0  Z" fill="#ffffff" fill-rule="evenodd" fill-opacity="1"/>
<defs>
  <clipPath id="clip201">
    <rect x="364" y="47" width="2789" height="1449"/>
  </clipPath>
</defs>
<path clip-path="url(#clip200)" d="M364.782 1495.09 L3152.76 1495.09 L3152.76 47.2441 L364.782 47.2441  Z" fill="#ffffff" fill-rule="evenodd" fill-opacity="1"/>
<polyline clip-path="url(#clip201)" style="stroke:#000000; stroke-linecap:round; stroke-linejoin:round; stroke-width:2; stroke-opacity:0.1; fill:none" points="735.927,1495.09 735.927,47.2441 "/>
<polyline clip-path="url(#clip201)" style="stroke:#000000; stroke-linecap:round; stroke-linejoin:round; stroke-width:2; stroke-opacity:0.1; fill:none" points="1758.77,1495.09 1758.77,47.2441 "/>
<polyline clip-path="url(#clip201)" style="stroke:#000000; stroke-linecap:round; stroke-linejoin:round; stroke-width:2; stroke-opacity:0.1; fill:none" points="2781.61,1495.09 2781.61,47.2441 "/>
<polyline clip-path="url(#clip201)" style="stroke:#000000; stroke-linecap:round; stroke-linejoin:round; stroke-width:2; stroke-opacity:0.1; fill:none" points="364.782,1243.37 3152.76,1243.37 "/>
<polyline clip-path="url(#clip201)" style="stroke:#000000; stroke-linecap:round; stroke-linejoin:round; stroke-width:2; stroke-opacity:0.1; fill:none" points="364.782,951.854 3152.76,951.854 "/>
<polyline clip-path="url(#clip201)" style="stroke:#000000; stroke-linecap:round; stroke-linejoin:round; stroke-width:2; stroke-opacity:0.1; fill:none" points="364.782,660.342 3152.76,660.342 "/>
<polyline clip-path="url(#clip201)" style="stroke:#000000; stroke-linecap:round; stroke-linejoin:round; stroke-width:2; stroke-opacity:0.1; fill:none" points="364.782,368.831 3152.76,368.831 "/>
<polyline clip-path="url(#clip201)" style="stroke:#000000; stroke-linecap:round; stroke-linejoin:round; stroke-width:2; stroke-opacity:0.1; fill:none" points="364.782,77.3187 3152.76,77.3187 "/>
<polyline clip-path="url(#clip200)" style="stroke:#000000; stroke-linecap:round; stroke-linejoin:round; stroke-width:4; stroke-opacity:1; fill:none" points="364.782,1495.09 3152.76,1495.09 "/>
<polyline clip-path="url(#clip200)" style="stroke:#000000; stroke-linecap:round; stroke-linejoin:round; stroke-width:4; stroke-opacity:1; fill:none" points="735.927,1495.09 735.927,1476.19 "/>
<polyline clip-path="url(#clip200)" style="stroke:#000000; stroke-linecap:round; stroke-linejoin:round; stroke-width:4; stroke-opacity:1; fill:none" points="1758.77,1495.09 1758.77,1476.19 "/>
<polyline clip-path="url(#clip200)" style="stroke:#000000; stroke-linecap:round; stroke-linejoin:round; stroke-width:4; stroke-opacity:1; fill:none" points="2781.61,1495.09 2781.61,1476.19 "/>
<path clip-path="url(#clip200)" d="M651.888 1538.73 L651.888 1542.75 Q650.083 1541.83 648.138 1541.36 Q646.194 1540.9 644.111 1540.9 Q640.939 1540.9 639.342 1541.87 Q637.768 1542.85 637.768 1544.79 Q637.768 1546.27 638.902 1547.13 Q640.036 1547.96 643.462 1548.73 L644.921 1549.05 Q649.458 1550.02 651.356 1551.8 Q653.277 1553.56 653.277 1556.74 Q653.277 1560.35 650.407 1562.45 Q647.56 1564.56 642.56 1564.56 Q640.476 1564.56 638.208 1564.14 Q635.962 1563.75 633.462 1562.94 L633.462 1558.54 Q635.824 1559.77 638.115 1560.39 Q640.407 1560.99 642.652 1560.99 Q645.661 1560.99 647.282 1559.98 Q648.902 1558.93 648.902 1557.06 Q648.902 1555.32 647.722 1554.4 Q646.564 1553.47 642.606 1552.61 L641.124 1552.27 Q637.166 1551.43 635.407 1549.72 Q633.648 1547.99 633.648 1544.98 Q633.648 1541.32 636.24 1539.33 Q638.833 1537.34 643.601 1537.34 Q645.962 1537.34 648.046 1537.68 Q650.129 1538.03 651.888 1538.73 Z" fill="#000000" fill-rule="nonzero" fill-opacity="1" /><path clip-path="url(#clip200)" d="M670.846 1566.3 Q669.041 1570.92 667.328 1572.34 Q665.615 1573.75 662.745 1573.75 L659.342 1573.75 L659.342 1570.18 L661.842 1570.18 Q663.601 1570.18 664.573 1569.35 Q665.546 1568.52 666.726 1565.42 L667.49 1563.47 L657.004 1537.96 L661.518 1537.96 L669.62 1558.24 L677.721 1537.96 L682.235 1537.96 L670.846 1566.3 Z" fill="#000000" fill-rule="nonzero" fill-opacity="1" /><path clip-path="url(#clip200)" d="M708.3 1542.94 Q709.897 1540.07 712.119 1538.7 Q714.342 1537.34 717.351 1537.34 Q721.402 1537.34 723.601 1540.18 Q725.8 1543.01 725.8 1548.24 L725.8 1563.89 L721.518 1563.89 L721.518 1548.38 Q721.518 1544.65 720.198 1542.85 Q718.879 1541.04 716.17 1541.04 Q712.86 1541.04 710.939 1543.24 Q709.018 1545.44 709.018 1549.24 L709.018 1563.89 L704.735 1563.89 L704.735 1548.38 Q704.735 1544.63 703.416 1542.85 Q702.096 1541.04 699.342 1541.04 Q696.078 1541.04 694.157 1543.26 Q692.235 1545.46 692.235 1549.24 L692.235 1563.89 L687.953 1563.89 L687.953 1537.96 L692.235 1537.96 L692.235 1541.99 Q693.694 1539.61 695.731 1538.47 Q697.768 1537.34 700.569 1537.34 Q703.393 1537.34 705.36 1538.77 Q707.351 1540.21 708.3 1542.94 Z" fill="#000000" fill-rule="nonzero" fill-opacity="1" /><path clip-path="url(#clip200)" d="M752.906 1550.95 Q752.906 1546.25 750.962 1543.59 Q749.041 1540.9 745.661 1540.9 Q742.281 1540.9 740.337 1543.59 Q738.416 1546.25 738.416 1550.95 Q738.416 1555.65 740.337 1558.33 Q742.281 1560.99 745.661 1560.99 Q749.041 1560.99 750.962 1558.33 Q752.906 1555.65 752.906 1550.95 M738.416 1541.9 Q739.758 1539.58 741.795 1538.47 Q743.855 1537.34 746.703 1537.34 Q751.425 1537.34 754.365 1541.09 Q757.328 1544.84 757.328 1550.95 Q757.328 1557.06 754.365 1560.81 Q751.425 1564.56 746.703 1564.56 Q743.855 1564.56 741.795 1563.45 Q739.758 1562.31 738.416 1560 L738.416 1563.89 L734.133 1563.89 L734.133 1527.87 L738.416 1527.87 L738.416 1541.9 Z" fill="#000000" fill-rule="nonzero" fill-opacity="1" /><path clip-path="url(#clip200)" d="M774.434 1540.95 Q771.008 1540.95 769.017 1543.63 Q767.027 1546.3 767.027 1550.95 Q767.027 1555.6 768.994 1558.29 Q770.985 1560.95 774.434 1560.95 Q777.837 1560.95 779.827 1558.26 Q781.818 1555.58 781.818 1550.95 Q781.818 1546.34 779.827 1543.66 Q777.837 1540.95 774.434 1540.95 M774.434 1537.34 Q779.989 1537.34 783.161 1540.95 Q786.332 1544.56 786.332 1550.95 Q786.332 1557.31 783.161 1560.95 Q779.989 1564.56 774.434 1564.56 Q768.855 1564.56 765.684 1560.95 Q762.536 1557.31 762.536 1550.95 Q762.536 1544.56 765.684 1540.95 Q768.855 1537.34 774.434 1537.34 Z" fill="#000000" fill-rule="nonzero" fill-opacity="1" /><path clip-path="url(#clip200)" d="M793.392 1527.87 L797.651 1527.87 L797.651 1563.89 L793.392 1563.89 L793.392 1527.87 Z" fill="#000000" fill-rule="nonzero" fill-opacity="1" /><path clip-path="url(#clip200)" d="M806.563 1537.96 L810.823 1537.96 L810.823 1563.89 L806.563 1563.89 L806.563 1537.96 M806.563 1527.87 L810.823 1527.87 L810.823 1533.26 L806.563 1533.26 L806.563 1527.87 Z" fill="#000000" fill-rule="nonzero" fill-opacity="1" /><path clip-path="url(#clip200)" d="M838.392 1538.96 L838.392 1542.94 Q836.586 1541.94 834.758 1541.46 Q832.952 1540.95 831.1 1540.95 Q826.957 1540.95 824.665 1543.59 Q822.373 1546.2 822.373 1550.95 Q822.373 1555.69 824.665 1558.33 Q826.957 1560.95 831.1 1560.95 Q832.952 1560.95 834.758 1560.46 Q836.586 1559.95 838.392 1558.96 L838.392 1562.89 Q836.61 1563.73 834.688 1564.14 Q832.79 1564.56 830.637 1564.56 Q824.781 1564.56 821.332 1560.88 Q817.883 1557.2 817.883 1550.95 Q817.883 1544.61 821.355 1540.97 Q824.85 1537.34 830.915 1537.34 Q832.883 1537.34 834.758 1537.75 Q836.633 1538.15 838.392 1538.96 Z" fill="#000000" fill-rule="nonzero" fill-opacity="1" /><path clip-path="url(#clip200)" d="M1669.09 1527.87 L1669.09 1531.41 L1665.02 1531.41 Q1662.73 1531.41 1661.82 1532.34 Q1660.95 1533.26 1660.95 1535.67 L1660.95 1537.96 L1667.96 1537.96 L1667.96 1541.27 L1660.95 1541.27 L1660.95 1563.89 L1656.66 1563.89 L1656.66 1541.27 L1652.59 1541.27 L1652.59 1537.96 L1656.66 1537.96 L1656.66 1536.16 Q1656.66 1531.83 1658.68 1529.86 Q1660.69 1527.87 1665.07 1527.87 L1669.09 1527.87 Z" fill="#000000" fill-rule="nonzero" fill-opacity="1" /><path clip-path="url(#clip200)" d="M1672.66 1537.96 L1676.92 1537.96 L1676.92 1563.89 L1672.66 1563.89 L1672.66 1537.96 M1672.66 1527.87 L1676.92 1527.87 L1676.92 1533.26 L1672.66 1533.26 L1672.66 1527.87 Z" fill="#000000" fill-rule="nonzero" fill-opacity="1" /><path clip-path="url(#clip200)" d="M1707.38 1548.24 L1707.38 1563.89 L1703.12 1563.89 L1703.12 1548.38 Q1703.12 1544.7 1701.69 1542.87 Q1700.25 1541.04 1697.38 1541.04 Q1693.93 1541.04 1691.94 1543.24 Q1689.95 1545.44 1689.95 1549.24 L1689.95 1563.89 L1685.67 1563.89 L1685.67 1537.96 L1689.95 1537.96 L1689.95 1541.99 Q1691.48 1539.65 1693.54 1538.49 Q1695.62 1537.34 1698.33 1537.34 Q1702.8 1537.34 1705.09 1540.11 Q1707.38 1542.87 1707.38 1548.24 Z" fill="#000000" fill-rule="nonzero" fill-opacity="1" /><path clip-path="url(#clip200)" d="M1715.88 1537.96 L1720.13 1537.96 L1720.13 1563.89 L1715.88 1563.89 L1715.88 1537.96 M1715.88 1527.87 L1720.13 1527.87 L1720.13 1533.26 L1715.88 1533.26 L1715.88 1527.87 Z" fill="#000000" fill-rule="nonzero" fill-opacity="1" /><path clip-path="url(#clip200)" d="M1733.26 1530.6 L1733.26 1537.96 L1742.03 1537.96 L1742.03 1541.27 L1733.26 1541.27 L1733.26 1555.35 Q1733.26 1558.52 1734.12 1559.42 Q1735 1560.32 1737.66 1560.32 L1742.03 1560.32 L1742.03 1563.89 L1737.66 1563.89 Q1732.73 1563.89 1730.85 1562.06 Q1728.98 1560.21 1728.98 1555.35 L1728.98 1541.27 L1725.85 1541.27 L1725.85 1537.96 L1728.98 1537.96 L1728.98 1530.6 L1733.26 1530.6 Z" fill="#000000" fill-rule="nonzero" fill-opacity="1" /><path clip-path="url(#clip200)" d="M1769.81 1549.86 L1769.81 1551.94 L1750.23 1551.94 Q1750.5 1556.34 1752.87 1558.66 Q1755.25 1560.95 1759.49 1560.95 Q1761.94 1560.95 1764.23 1560.35 Q1766.55 1559.74 1768.82 1558.54 L1768.82 1562.57 Q1766.52 1563.54 1764.12 1564.05 Q1761.71 1564.56 1759.23 1564.56 Q1753.03 1564.56 1749.39 1560.95 Q1745.78 1557.34 1745.78 1551.18 Q1745.78 1544.81 1749.21 1541.09 Q1752.66 1537.34 1758.49 1537.34 Q1763.72 1537.34 1766.75 1540.72 Q1769.81 1544.07 1769.81 1549.86 M1765.55 1548.61 Q1765.5 1545.11 1763.58 1543.03 Q1761.69 1540.95 1758.54 1540.95 Q1754.97 1540.95 1752.82 1542.96 Q1750.69 1544.98 1750.37 1548.63 L1765.55 1548.61 Z" fill="#000000" fill-rule="nonzero" fill-opacity="1" /><path clip-path="url(#clip200)" d="M1808.93 1541.9 L1808.93 1527.87 L1813.19 1527.87 L1813.19 1563.89 L1808.93 1563.89 L1808.93 1560 Q1807.59 1562.31 1805.53 1563.45 Q1803.49 1564.56 1800.62 1564.56 Q1795.92 1564.56 1792.96 1560.81 Q1790.02 1557.06 1790.02 1550.95 Q1790.02 1544.84 1792.96 1541.09 Q1795.92 1537.34 1800.62 1537.34 Q1803.49 1537.34 1805.53 1538.47 Q1807.59 1539.58 1808.93 1541.9 M1794.42 1550.95 Q1794.42 1555.65 1796.34 1558.33 Q1798.28 1560.99 1801.66 1560.99 Q1805.04 1560.99 1806.99 1558.33 Q1808.93 1555.65 1808.93 1550.95 Q1808.93 1546.25 1806.99 1543.59 Q1805.04 1540.9 1801.66 1540.9 Q1798.28 1540.9 1796.34 1543.59 Q1794.42 1546.25 1794.42 1550.95 Z" fill="#000000" fill-rule="nonzero" fill-opacity="1" /><path clip-path="url(#clip200)" d="M1821.96 1537.96 L1826.22 1537.96 L1826.22 1563.89 L1821.96 1563.89 L1821.96 1537.96 M1821.96 1527.87 L1826.22 1527.87 L1826.22 1533.26 L1821.96 1533.26 L1821.96 1527.87 Z" fill="#000000" fill-rule="nonzero" fill-opacity="1" /><path clip-path="url(#clip200)" d="M1848.26 1527.87 L1848.26 1531.41 L1844.19 1531.41 Q1841.89 1531.41 1840.99 1532.34 Q1840.11 1533.26 1840.11 1535.67 L1840.11 1537.96 L1847.12 1537.96 L1847.12 1541.27 L1840.11 1541.27 L1840.11 1563.89 L1835.83 1563.89 L1835.83 1541.27 L1831.75 1541.27 L1831.75 1537.96 L1835.83 1537.96 L1835.83 1536.16 Q1835.83 1531.83 1837.84 1529.86 Q1839.86 1527.87 1844.23 1527.87 L1848.26 1527.87 Z" fill="#000000" fill-rule="nonzero" fill-opacity="1" /><path clip-path="url(#clip200)" d="M1864.95 1527.87 L1864.95 1531.41 L1860.87 1531.41 Q1858.58 1531.41 1857.68 1532.34 Q1856.8 1533.26 1856.8 1535.67 L1856.8 1537.96 L1863.81 1537.96 L1863.81 1541.27 L1856.8 1541.27 L1856.8 1563.89 L1852.52 1563.89 L1852.52 1541.27 L1848.44 1541.27 L1848.44 1537.96 L1852.52 1537.96 L1852.52 1536.16 Q1852.52 1531.83 1854.53 1529.86 Q1856.55 1527.87 1860.92 1527.87 L1864.95 1527.87 Z" fill="#000000" fill-rule="nonzero" fill-opacity="1" /><path clip-path="url(#clip200)" d="M2661.47 1527.87 L2661.47 1531.41 L2657.4 1531.41 Q2655.11 1531.41 2654.2 1532.34 Q2653.32 1533.26 2653.32 1535.67 L2653.32 1537.96 L2660.34 1537.96 L2660.34 1541.27 L2653.32 1541.27 L2653.32 1563.89 L2649.04 1563.89 L2649.04 1541.27 L2644.97 1541.27 L2644.97 1537.96 L2649.04 1537.96 L2649.04 1536.16 Q2649.04 1531.83 2651.06 1529.86 Q2653.07 1527.87 2657.44 1527.87 L2661.47 1527.87 Z" fill="#000000" fill-rule="nonzero" fill-opacity="1" /><path clip-path="url(#clip200)" d="M2675.08 1540.95 Q2671.66 1540.95 2669.67 1543.63 Q2667.68 1546.3 2667.68 1550.95 Q2667.68 1555.6 2669.64 1558.29 Q2671.63 1560.95 2675.08 1560.95 Q2678.49 1560.95 2680.48 1558.26 Q2682.47 1555.58 2682.47 1550.95 Q2682.47 1546.34 2680.48 1543.66 Q2678.49 1540.95 2675.08 1540.95 M2675.08 1537.34 Q2680.64 1537.34 2683.81 1540.95 Q2686.98 1544.56 2686.98 1550.95 Q2686.98 1557.31 2683.81 1560.95 Q2680.64 1564.56 2675.08 1564.56 Q2669.5 1564.56 2666.33 1560.95 Q2663.19 1557.31 2663.19 1550.95 Q2663.19 1544.56 2666.33 1540.95 Q2669.5 1537.34 2675.08 1537.34 Z" fill="#000000" fill-rule="nonzero" fill-opacity="1" /><path clip-path="url(#clip200)" d="M2709.06 1541.94 Q2708.35 1541.53 2707.49 1541.34 Q2706.66 1541.13 2705.64 1541.13 Q2702.03 1541.13 2700.08 1543.49 Q2698.16 1545.83 2698.16 1550.23 L2698.16 1563.89 L2693.88 1563.89 L2693.88 1537.96 L2698.16 1537.96 L2698.16 1541.99 Q2699.5 1539.63 2701.66 1538.49 Q2703.81 1537.34 2706.89 1537.34 Q2707.33 1537.34 2707.86 1537.41 Q2708.39 1537.45 2709.04 1537.57 L2709.06 1541.94 Z" fill="#000000" fill-rule="nonzero" fill-opacity="1" /><path clip-path="url(#clip200)" d="M2711.06 1537.96 L2715.31 1537.96 L2720.64 1558.19 L2725.94 1537.96 L2730.96 1537.96 L2736.29 1558.19 L2741.59 1537.96 L2745.85 1537.96 L2739.06 1563.89 L2734.04 1563.89 L2728.46 1542.64 L2722.86 1563.89 L2717.84 1563.89 L2711.06 1537.96 Z" fill="#000000" fill-rule="nonzero" fill-opacity="1" /><path clip-path="url(#clip200)" d="M2764.09 1550.86 Q2758.93 1550.86 2756.93 1552.04 Q2754.94 1553.22 2754.94 1556.06 Q2754.94 1558.33 2756.43 1559.67 Q2757.93 1560.99 2760.5 1560.99 Q2764.04 1560.99 2766.17 1558.49 Q2768.32 1555.97 2768.32 1551.8 L2768.32 1550.86 L2764.09 1550.86 M2772.58 1549.1 L2772.58 1563.89 L2768.32 1563.89 L2768.32 1559.95 Q2766.87 1562.31 2764.69 1563.45 Q2762.51 1564.56 2759.37 1564.56 Q2755.38 1564.56 2753.02 1562.34 Q2750.68 1560.09 2750.68 1556.34 Q2750.68 1551.97 2753.6 1549.74 Q2756.54 1547.52 2762.35 1547.52 L2768.32 1547.52 L2768.32 1547.11 Q2768.32 1544.17 2766.38 1542.57 Q2764.46 1540.95 2760.96 1540.95 Q2758.74 1540.95 2756.63 1541.48 Q2754.53 1542.01 2752.58 1543.08 L2752.58 1539.14 Q2754.92 1538.24 2757.12 1537.8 Q2759.32 1537.34 2761.4 1537.34 Q2767.03 1537.34 2769.81 1540.25 Q2772.58 1543.17 2772.58 1549.1 Z" fill="#000000" fill-rule="nonzero" fill-opacity="1" /><path clip-path="url(#clip200)" d="M2796.38 1541.94 Q2795.66 1541.53 2794.8 1541.34 Q2793.97 1541.13 2792.95 1541.13 Q2789.34 1541.13 2787.4 1543.49 Q2785.48 1545.83 2785.48 1550.23 L2785.48 1563.89 L2781.19 1563.89 L2781.19 1537.96 L2785.48 1537.96 L2785.48 1541.99 Q2786.82 1539.63 2788.97 1538.49 Q2791.12 1537.34 2794.2 1537.34 Q2794.64 1537.34 2795.18 1537.41 Q2795.71 1537.45 2796.36 1537.57 L2796.38 1541.94 Z" fill="#000000" fill-rule="nonzero" fill-opacity="1" /><path clip-path="url(#clip200)" d="M2817.07 1541.9 L2817.07 1527.87 L2821.33 1527.87 L2821.33 1563.89 L2817.07 1563.89 L2817.07 1560 Q2815.73 1562.31 2813.67 1563.45 Q2811.63 1564.56 2808.76 1564.56 Q2804.06 1564.56 2801.1 1560.81 Q2798.16 1557.06 2798.16 1550.95 Q2798.16 1544.84 2801.1 1541.09 Q2804.06 1537.34 2808.76 1537.34 Q2811.63 1537.34 2813.67 1538.47 Q2815.73 1539.58 2817.07 1541.9 M2802.56 1550.95 Q2802.56 1555.65 2804.48 1558.33 Q2806.43 1560.99 2809.8 1560.99 Q2813.18 1560.99 2815.13 1558.33 Q2817.07 1555.65 2817.07 1550.95 Q2817.07 1546.25 2815.13 1543.59 Q2813.18 1540.9 2809.8 1540.9 Q2806.43 1540.9 2804.48 1543.59 Q2802.56 1546.25 2802.56 1550.95 Z" fill="#000000" fill-rule="nonzero" fill-opacity="1" /><path clip-path="url(#clip200)" d="M2862.24 1541.9 L2862.24 1527.87 L2866.49 1527.87 L2866.49 1563.89 L2862.24 1563.89 L2862.24 1560 Q2860.89 1562.31 2858.83 1563.45 Q2856.8 1564.56 2853.92 1564.56 Q2849.23 1564.56 2846.26 1560.81 Q2843.32 1557.06 2843.32 1550.95 Q2843.32 1544.84 2846.26 1541.09 Q2849.23 1537.34 2853.92 1537.34 Q2856.8 1537.34 2858.83 1538.47 Q2860.89 1539.58 2862.24 1541.9 M2847.72 1550.95 Q2847.72 1555.65 2849.64 1558.33 Q2851.59 1560.99 2854.97 1560.99 Q2858.35 1560.99 2860.29 1558.33 Q2862.24 1555.65 2862.24 1550.95 Q2862.24 1546.25 2860.29 1543.59 Q2858.35 1540.9 2854.97 1540.9 Q2851.59 1540.9 2849.64 1543.59 Q2847.72 1546.25 2847.72 1550.95 Z" fill="#000000" fill-rule="nonzero" fill-opacity="1" /><path clip-path="url(#clip200)" d="M2875.27 1537.96 L2879.53 1537.96 L2879.53 1563.89 L2875.27 1563.89 L2875.27 1537.96 M2875.27 1527.87 L2879.53 1527.87 L2879.53 1533.26 L2875.27 1533.26 L2875.27 1527.87 Z" fill="#000000" fill-rule="nonzero" fill-opacity="1" /><path clip-path="url(#clip200)" d="M2901.56 1527.87 L2901.56 1531.41 L2897.49 1531.41 Q2895.2 1531.41 2894.3 1532.34 Q2893.42 1533.26 2893.42 1535.67 L2893.42 1537.96 L2900.43 1537.96 L2900.43 1541.27 L2893.42 1541.27 L2893.42 1563.89 L2889.13 1563.89 L2889.13 1541.27 L2885.06 1541.27 L2885.06 1537.96 L2889.13 1537.96 L2889.13 1536.16 Q2889.13 1531.83 2891.15 1529.86 Q2893.16 1527.87 2897.54 1527.87 L2901.56 1527.87 Z" fill="#000000" fill-rule="nonzero" fill-opacity="1" /><path clip-path="url(#clip200)" d="M2918.25 1527.87 L2918.25 1531.41 L2914.18 1531.41 Q2911.89 1531.41 2910.98 1532.34 Q2910.11 1533.26 2910.11 1535.67 L2910.11 1537.96 L2917.12 1537.96 L2917.12 1541.27 L2910.11 1541.27 L2910.11 1563.89 L2905.82 1563.89 L2905.82 1541.27 L2901.75 1541.27 L2901.75 1537.96 L2905.82 1537.96 L2905.82 1536.16 Q2905.82 1531.83 2907.84 1529.86 Q2909.85 1527.87 2914.23 1527.87 L2918.25 1527.87 Z" fill="#000000" fill-rule="nonzero" fill-opacity="1" /><polyline clip-path="url(#clip200)" style="stroke:#000000; stroke-linecap:round; stroke-linejoin:round; stroke-width:4; stroke-opacity:1; fill:none" points="364.782,1495.09 364.782,47.2441 "/>
<polyline clip-path="url(#clip200)" style="stroke:#000000; stroke-linecap:round; stroke-linejoin:round; stroke-width:4; stroke-opacity:1; fill:none" points="364.782,1243.37 383.679,1243.37 "/>
<polyline clip-path="url(#clip200)" style="stroke:#000000; stroke-linecap:round; stroke-linejoin:round; stroke-width:4; stroke-opacity:1; fill:none" points="364.782,951.854 383.679,951.854 "/>
<polyline clip-path="url(#clip200)" style="stroke:#000000; stroke-linecap:round; stroke-linejoin:round; stroke-width:4; stroke-opacity:1; fill:none" points="364.782,660.342 383.679,660.342 "/>
<polyline clip-path="url(#clip200)" style="stroke:#000000; stroke-linecap:round; stroke-linejoin:round; stroke-width:4; stroke-opacity:1; fill:none" points="364.782,368.831 383.679,368.831 "/>
<polyline clip-path="url(#clip200)" style="stroke:#000000; stroke-linecap:round; stroke-linejoin:round; stroke-width:4; stroke-opacity:1; fill:none" points="364.782,77.3187 383.679,77.3187 "/>
<path clip-path="url(#clip200)" d="M110.718 1247.95 Q107.57 1247.95 105.718 1250.1 Q103.889 1252.26 103.889 1256.01 Q103.889 1259.73 105.718 1261.91 Q107.57 1264.06 110.718 1264.06 Q113.866 1264.06 115.695 1261.91 Q117.547 1259.73 117.547 1256.01 Q117.547 1252.26 115.695 1250.1 Q113.866 1247.95 110.718 1247.95 M120 1233.3 L120 1237.56 Q118.241 1236.72 116.436 1236.28 Q114.653 1235.84 112.894 1235.84 Q108.264 1235.84 105.811 1238.97 Q103.38 1242.09 103.033 1248.41 Q104.399 1246.4 106.459 1245.33 Q108.519 1244.25 110.996 1244.25 Q116.204 1244.25 119.213 1247.42 Q122.246 1250.57 122.246 1256.01 Q122.246 1261.33 119.098 1264.55 Q115.95 1267.77 110.718 1267.77 Q104.723 1267.77 101.551 1263.18 Q98.3802 1258.58 98.3802 1249.85 Q98.3802 1241.65 102.269 1236.79 Q106.158 1231.91 112.709 1231.91 Q114.468 1231.91 116.25 1232.26 Q118.056 1232.6 120 1233.3 Z" fill="#000000" fill-rule="nonzero" fill-opacity="1" /><path clip-path="url(#clip200)" d="M130.301 1261.21 L135.186 1261.21 L135.186 1267.09 L130.301 1267.09 L130.301 1261.21 Z" fill="#000000" fill-rule="nonzero" fill-opacity="1" /><path clip-path="url(#clip200)" d="M144.19 1232.53 L166.412 1232.53 L166.412 1234.52 L153.866 1267.09 L148.982 1267.09 L160.787 1236.47 L144.19 1236.47 L144.19 1232.53 Z" fill="#000000" fill-rule="nonzero" fill-opacity="1" /><path clip-path="url(#clip200)" d="M185.532 1235.61 Q181.921 1235.61 180.093 1239.18 Q178.287 1242.72 178.287 1249.85 Q178.287 1256.95 180.093 1260.52 Q181.921 1264.06 185.532 1264.06 Q189.167 1264.06 190.972 1260.52 Q192.801 1256.95 192.801 1249.85 Q192.801 1242.72 190.972 1239.18 Q189.167 1235.61 185.532 1235.61 M185.532 1231.91 Q191.343 1231.91 194.398 1236.52 Q197.477 1241.1 197.477 1249.85 Q197.477 1258.58 194.398 1263.18 Q191.343 1267.77 185.532 1267.77 Q179.722 1267.77 176.644 1263.18 Q173.588 1258.58 173.588 1249.85 Q173.588 1241.1 176.644 1236.52 Q179.722 1231.91 185.532 1231.91 Z" fill="#000000" fill-rule="nonzero" fill-opacity="1" /><path clip-path="url(#clip200)" d="M233.866 1241.63 L223.287 1252.26 L233.866 1262.83 L231.111 1265.64 L220.486 1255.01 L209.861 1265.64 L207.13 1262.83 L217.685 1252.26 L207.13 1241.63 L209.861 1238.83 L220.486 1249.46 L231.111 1238.83 L233.866 1241.63 Z" fill="#000000" fill-rule="nonzero" fill-opacity="1" /><path clip-path="url(#clip200)" d="M246.227 1263.16 L253.865 1263.16 L253.865 1236.79 L245.555 1238.46 L245.555 1234.2 L253.819 1232.53 L258.495 1232.53 L258.495 1263.16 L266.134 1263.16 L266.134 1267.09 L246.227 1267.09 L246.227 1263.16 Z" fill="#000000" fill-rule="nonzero" fill-opacity="1" /><path clip-path="url(#clip200)" d="M285.578 1235.61 Q281.967 1235.61 280.138 1239.18 Q278.333 1242.72 278.333 1249.85 Q278.333 1256.95 280.138 1260.52 Q281.967 1264.06 285.578 1264.06 Q289.212 1264.06 291.018 1260.52 Q292.847 1256.95 292.847 1249.85 Q292.847 1242.72 291.018 1239.18 Q289.212 1235.61 285.578 1235.61 M285.578 1231.91 Q291.388 1231.91 294.444 1236.52 Q297.523 1241.1 297.523 1249.85 Q297.523 1258.58 294.444 1263.18 Q291.388 1267.77 285.578 1267.77 Q279.768 1267.77 276.689 1263.18 Q273.634 1258.58 273.634 1249.85 Q273.634 1241.1 276.689 1236.52 Q279.768 1231.91 285.578 1231.91 Z" fill="#000000" fill-rule="nonzero" fill-opacity="1" /><path clip-path="url(#clip200)" d="M307.152 1226.35 Q304.444 1226.35 302.883 1227.8 Q301.341 1229.25 301.341 1231.78 Q301.341 1234.32 302.883 1235.77 Q304.444 1237.22 307.152 1237.22 Q309.861 1237.22 311.422 1235.77 Q312.983 1234.3 312.983 1231.78 Q312.983 1229.25 311.422 1227.8 Q309.879 1226.35 307.152 1226.35 M303.353 1224.73 Q300.908 1224.13 299.535 1222.46 Q298.181 1220.78 298.181 1218.37 Q298.181 1215.01 300.569 1213.05 Q302.977 1211.1 307.152 1211.1 Q311.346 1211.1 313.735 1213.05 Q316.123 1215.01 316.123 1218.37 Q316.123 1220.78 314.751 1222.46 Q313.396 1224.13 310.97 1224.73 Q313.716 1225.37 315.24 1227.23 Q316.782 1229.09 316.782 1231.78 Q316.782 1235.87 314.28 1238.05 Q311.798 1240.23 307.152 1240.23 Q302.507 1240.23 300.005 1238.05 Q297.523 1235.87 297.523 1231.78 Q297.523 1229.09 299.065 1227.23 Q300.607 1225.37 303.353 1224.73 M301.961 1218.73 Q301.961 1220.91 303.315 1222.14 Q304.688 1223.36 307.152 1223.36 Q309.597 1223.36 310.97 1222.14 Q312.362 1220.91 312.362 1218.73 Q312.362 1216.55 310.97 1215.33 Q309.597 1214.1 307.152 1214.1 Q304.688 1214.1 303.315 1215.33 Q301.961 1216.55 301.961 1218.73 Z" fill="#000000" fill-rule="nonzero" fill-opacity="1" /><path clip-path="url(#clip200)" d="M110.718 956.439 Q107.57 956.439 105.718 958.591 Q103.889 960.744 103.889 964.494 Q103.889 968.221 105.718 970.397 Q107.57 972.55 110.718 972.55 Q113.866 972.55 115.695 970.397 Q117.547 968.221 117.547 964.494 Q117.547 960.744 115.695 958.591 Q113.866 956.439 110.718 956.439 M120 941.786 L120 946.045 Q118.241 945.212 116.436 944.772 Q114.653 944.332 112.894 944.332 Q108.264 944.332 105.811 947.457 Q103.38 950.582 103.033 956.901 Q104.399 954.888 106.459 953.823 Q108.519 952.735 110.996 952.735 Q116.204 952.735 119.213 955.906 Q122.246 959.054 122.246 964.494 Q122.246 969.818 119.098 973.036 Q115.95 976.253 110.718 976.253 Q104.723 976.253 101.551 971.67 Q98.3802 967.063 98.3802 958.337 Q98.3802 950.142 102.269 945.281 Q106.158 940.397 112.709 940.397 Q114.468 940.397 116.25 940.744 Q118.056 941.091 120 941.786 Z" fill="#000000" fill-rule="nonzero" fill-opacity="1" /><path clip-path="url(#clip200)" d="M130.301 969.702 L135.186 969.702 L135.186 975.582 L130.301 975.582 L130.301 969.702 Z" fill="#000000" fill-rule="nonzero" fill-opacity="1" /><path clip-path="url(#clip200)" d="M155.371 959.17 Q152.037 959.17 150.116 960.952 Q148.218 962.735 148.218 965.86 Q148.218 968.985 150.116 970.767 Q152.037 972.55 155.371 972.55 Q158.704 972.55 160.625 970.767 Q162.546 968.962 162.546 965.86 Q162.546 962.735 160.625 960.952 Q158.727 959.17 155.371 959.17 M150.695 957.179 Q147.685 956.439 145.996 954.378 Q144.329 952.318 144.329 949.355 Q144.329 945.212 147.269 942.804 Q150.232 940.397 155.371 940.397 Q160.533 940.397 163.472 942.804 Q166.412 945.212 166.412 949.355 Q166.412 952.318 164.722 954.378 Q163.056 956.439 160.07 957.179 Q163.449 957.966 165.324 960.258 Q167.222 962.55 167.222 965.86 Q167.222 970.883 164.144 973.568 Q161.088 976.253 155.371 976.253 Q149.653 976.253 146.574 973.568 Q143.519 970.883 143.519 965.86 Q143.519 962.55 145.417 960.258 Q147.315 957.966 150.695 957.179 M148.982 949.795 Q148.982 952.48 150.648 953.985 Q152.338 955.489 155.371 955.489 Q158.38 955.489 160.07 953.985 Q161.783 952.48 161.783 949.795 Q161.783 947.11 160.07 945.605 Q158.38 944.101 155.371 944.101 Q152.338 944.101 150.648 945.605 Q148.982 947.11 148.982 949.795 Z" fill="#000000" fill-rule="nonzero" fill-opacity="1" /><path clip-path="url(#clip200)" d="M185.532 944.101 Q181.921 944.101 180.093 947.665 Q178.287 951.207 178.287 958.337 Q178.287 965.443 180.093 969.008 Q181.921 972.55 185.532 972.55 Q189.167 972.55 190.972 969.008 Q192.801 965.443 192.801 958.337 Q192.801 951.207 190.972 947.665 Q189.167 944.101 185.532 944.101 M185.532 940.397 Q191.343 940.397 194.398 945.003 Q197.477 949.587 197.477 958.337 Q197.477 967.063 194.398 971.67 Q191.343 976.253 185.532 976.253 Q179.722 976.253 176.644 971.67 Q173.588 967.063 173.588 958.337 Q173.588 949.587 176.644 945.003 Q179.722 940.397 185.532 940.397 Z" fill="#000000" fill-rule="nonzero" fill-opacity="1" /><path clip-path="url(#clip200)" d="M233.866 950.119 L223.287 960.744 L233.866 971.323 L231.111 974.124 L220.486 963.499 L209.861 974.124 L207.13 971.323 L217.685 960.744 L207.13 950.119 L209.861 947.318 L220.486 957.943 L231.111 947.318 L233.866 950.119 Z" fill="#000000" fill-rule="nonzero" fill-opacity="1" /><path clip-path="url(#clip200)" d="M246.227 971.647 L253.865 971.647 L253.865 945.281 L245.555 946.948 L245.555 942.689 L253.819 941.022 L258.495 941.022 L258.495 971.647 L266.134 971.647 L266.134 975.582 L246.227 975.582 L246.227 971.647 Z" fill="#000000" fill-rule="nonzero" fill-opacity="1" /><path clip-path="url(#clip200)" d="M285.578 944.101 Q281.967 944.101 280.138 947.665 Q278.333 951.207 278.333 958.337 Q278.333 965.443 280.138 969.008 Q281.967 972.55 285.578 972.55 Q289.212 972.55 291.018 969.008 Q292.847 965.443 292.847 958.337 Q292.847 951.207 291.018 947.665 Q289.212 944.101 285.578 944.101 M285.578 940.397 Q291.388 940.397 294.444 945.003 Q297.523 949.587 297.523 958.337 Q297.523 967.063 294.444 971.67 Q291.388 976.253 285.578 976.253 Q279.768 976.253 276.689 971.67 Q273.634 967.063 273.634 958.337 Q273.634 949.587 276.689 945.003 Q279.768 940.397 285.578 940.397 Z" fill="#000000" fill-rule="nonzero" fill-opacity="1" /><path clip-path="url(#clip200)" d="M307.152 934.837 Q304.444 934.837 302.883 936.285 Q301.341 937.733 301.341 940.272 Q301.341 942.811 302.883 944.26 Q304.444 945.708 307.152 945.708 Q309.861 945.708 311.422 944.26 Q312.983 942.792 312.983 940.272 Q312.983 937.733 311.422 936.285 Q309.879 934.837 307.152 934.837 M303.353 933.219 Q300.908 932.617 299.535 930.944 Q298.181 929.27 298.181 926.862 Q298.181 923.496 300.569 921.54 Q302.977 919.584 307.152 919.584 Q311.346 919.584 313.735 921.54 Q316.123 923.496 316.123 926.862 Q316.123 929.27 314.751 930.944 Q313.396 932.617 310.97 933.219 Q313.716 933.859 315.24 935.721 Q316.782 937.583 316.782 940.272 Q316.782 944.354 314.28 946.535 Q311.798 948.717 307.152 948.717 Q302.507 948.717 300.005 946.535 Q297.523 944.354 297.523 940.272 Q297.523 937.583 299.065 935.721 Q300.607 933.859 303.353 933.219 M301.961 927.22 Q301.961 929.401 303.315 930.624 Q304.688 931.846 307.152 931.846 Q309.597 931.846 310.97 930.624 Q312.362 929.401 312.362 927.22 Q312.362 925.038 310.97 923.815 Q309.597 922.593 307.152 922.593 Q304.688 922.593 303.315 923.815 Q301.961 925.038 301.961 927.22 Z" fill="#000000" fill-rule="nonzero" fill-opacity="1" /><path clip-path="url(#clip200)" d="M110.718 664.927 Q107.57 664.927 105.718 667.079 Q103.889 669.232 103.889 672.982 Q103.889 676.709 105.718 678.885 Q107.57 681.038 110.718 681.038 Q113.866 681.038 115.695 678.885 Q117.547 676.709 117.547 672.982 Q117.547 669.232 115.695 667.079 Q113.866 664.927 110.718 664.927 M120 650.274 L120 654.533 Q118.241 653.7 116.436 653.26 Q114.653 652.82 112.894 652.82 Q108.264 652.82 105.811 655.945 Q103.38 659.07 103.033 665.39 Q104.399 663.376 106.459 662.311 Q108.519 661.223 110.996 661.223 Q116.204 661.223 119.213 664.394 Q122.246 667.542 122.246 672.982 Q122.246 678.306 119.098 681.524 Q115.95 684.741 110.718 684.741 Q104.723 684.741 101.551 680.158 Q98.3802 675.552 98.3802 666.825 Q98.3802 658.63 102.269 653.769 Q106.158 648.885 112.709 648.885 Q114.468 648.885 116.25 649.232 Q118.056 649.579 120 650.274 Z" fill="#000000" fill-rule="nonzero" fill-opacity="1" /><path clip-path="url(#clip200)" d="M130.301 678.19 L135.186 678.19 L135.186 684.07 L130.301 684.07 L130.301 678.19 Z" fill="#000000" fill-rule="nonzero" fill-opacity="1" /><path clip-path="url(#clip200)" d="M145.51 683.352 L145.51 679.093 Q147.269 679.927 149.074 680.366 Q150.88 680.806 152.616 680.806 Q157.246 680.806 159.676 677.704 Q162.13 674.579 162.477 668.237 Q161.134 670.228 159.074 671.292 Q157.014 672.357 154.514 672.357 Q149.329 672.357 146.297 669.232 Q143.287 666.084 143.287 660.644 Q143.287 655.32 146.435 652.103 Q149.584 648.885 154.815 648.885 Q160.81 648.885 163.959 653.491 Q167.13 658.075 167.13 666.825 Q167.13 674.996 163.241 679.88 Q159.375 684.741 152.824 684.741 Q151.065 684.741 149.26 684.394 Q147.454 684.047 145.51 683.352 M154.815 668.7 Q157.963 668.7 159.792 666.547 Q161.644 664.394 161.644 660.644 Q161.644 656.917 159.792 654.765 Q157.963 652.589 154.815 652.589 Q151.667 652.589 149.815 654.765 Q147.986 656.917 147.986 660.644 Q147.986 664.394 149.815 666.547 Q151.667 668.7 154.815 668.7 Z" fill="#000000" fill-rule="nonzero" fill-opacity="1" /><path clip-path="url(#clip200)" d="M185.532 652.589 Q181.921 652.589 180.093 656.154 Q178.287 659.695 178.287 666.825 Q178.287 673.931 180.093 677.496 Q181.921 681.038 185.532 681.038 Q189.167 681.038 190.972 677.496 Q192.801 673.931 192.801 666.825 Q192.801 659.695 190.972 656.154 Q189.167 652.589 185.532 652.589 M185.532 648.885 Q191.343 648.885 194.398 653.491 Q197.477 658.075 197.477 666.825 Q197.477 675.552 194.398 680.158 Q191.343 684.741 185.532 684.741 Q179.722 684.741 176.644 680.158 Q173.588 675.552 173.588 666.825 Q173.588 658.075 176.644 653.491 Q179.722 648.885 185.532 648.885 Z" fill="#000000" fill-rule="nonzero" fill-opacity="1" /><path clip-path="url(#clip200)" d="M233.866 658.607 L223.287 669.232 L233.866 679.811 L231.111 682.612 L220.486 671.987 L209.861 682.612 L207.13 679.811 L217.685 669.232 L207.13 658.607 L209.861 655.806 L220.486 666.431 L231.111 655.806 L233.866 658.607 Z" fill="#000000" fill-rule="nonzero" fill-opacity="1" /><path clip-path="url(#clip200)" d="M246.227 680.135 L253.865 680.135 L253.865 653.769 L245.555 655.436 L245.555 651.177 L253.819 649.51 L258.495 649.51 L258.495 680.135 L266.134 680.135 L266.134 684.07 L246.227 684.07 L246.227 680.135 Z" fill="#000000" fill-rule="nonzero" fill-opacity="1" /><path clip-path="url(#clip200)" d="M285.578 652.589 Q281.967 652.589 280.138 656.154 Q278.333 659.695 278.333 666.825 Q278.333 673.931 280.138 677.496 Q281.967 681.038 285.578 681.038 Q289.212 681.038 291.018 677.496 Q292.847 673.931 292.847 666.825 Q292.847 659.695 291.018 656.154 Q289.212 652.589 285.578 652.589 M285.578 648.885 Q291.388 648.885 294.444 653.491 Q297.523 658.075 297.523 666.825 Q297.523 675.552 294.444 680.158 Q291.388 684.741 285.578 684.741 Q279.768 684.741 276.689 680.158 Q273.634 675.552 273.634 666.825 Q273.634 658.075 276.689 653.491 Q279.768 648.885 285.578 648.885 Z" fill="#000000" fill-rule="nonzero" fill-opacity="1" /><path clip-path="url(#clip200)" d="M307.152 643.325 Q304.444 643.325 302.883 644.773 Q301.341 646.221 301.341 648.76 Q301.341 651.299 302.883 652.748 Q304.444 654.196 307.152 654.196 Q309.861 654.196 311.422 652.748 Q312.983 651.281 312.983 648.76 Q312.983 646.221 311.422 644.773 Q309.879 643.325 307.152 643.325 M303.353 641.707 Q300.908 641.106 299.535 639.432 Q298.181 637.758 298.181 635.35 Q298.181 631.984 300.569 630.028 Q302.977 628.072 307.152 628.072 Q311.346 628.072 313.735 630.028 Q316.123 631.984 316.123 635.35 Q316.123 637.758 314.751 639.432 Q313.396 641.106 310.97 641.707 Q313.716 642.347 315.24 644.209 Q316.782 646.071 316.782 648.76 Q316.782 652.842 314.28 655.023 Q311.798 657.205 307.152 657.205 Q302.507 657.205 300.005 655.023 Q297.523 652.842 297.523 648.76 Q297.523 646.071 299.065 644.209 Q300.607 642.347 303.353 641.707 M301.961 635.708 Q301.961 637.889 303.315 639.112 Q304.688 640.334 307.152 640.334 Q309.597 640.334 310.97 639.112 Q312.362 637.889 312.362 635.708 Q312.362 633.526 310.97 632.304 Q309.597 631.081 307.152 631.081 Q304.688 631.081 303.315 632.304 Q301.961 633.526 301.961 635.708 Z" fill="#000000" fill-rule="nonzero" fill-opacity="1" /><path clip-path="url(#clip200)" d="M98.9589 357.998 L121.181 357.998 L121.181 359.989 L108.635 392.558 L103.75 392.558 L115.556 361.933 L98.9589 361.933 L98.9589 357.998 Z" fill="#000000" fill-rule="nonzero" fill-opacity="1" /><path clip-path="url(#clip200)" d="M130.301 386.679 L135.186 386.679 L135.186 392.558 L130.301 392.558 L130.301 386.679 Z" fill="#000000" fill-rule="nonzero" fill-opacity="1" /><path clip-path="url(#clip200)" d="M155.371 361.077 Q151.76 361.077 149.931 364.642 Q148.125 368.183 148.125 375.313 Q148.125 382.419 149.931 385.984 Q151.76 389.526 155.371 389.526 Q159.005 389.526 160.81 385.984 Q162.639 382.419 162.639 375.313 Q162.639 368.183 160.81 364.642 Q159.005 361.077 155.371 361.077 M155.371 357.373 Q161.181 357.373 164.236 361.98 Q167.315 366.563 167.315 375.313 Q167.315 384.04 164.236 388.646 Q161.181 393.229 155.371 393.229 Q149.56 393.229 146.482 388.646 Q143.426 384.04 143.426 375.313 Q143.426 366.563 146.482 361.98 Q149.56 357.373 155.371 357.373 Z" fill="#000000" fill-rule="nonzero" fill-opacity="1" /><path clip-path="url(#clip200)" d="M185.532 361.077 Q181.921 361.077 180.093 364.642 Q178.287 368.183 178.287 375.313 Q178.287 382.419 180.093 385.984 Q181.921 389.526 185.532 389.526 Q189.167 389.526 190.972 385.984 Q192.801 382.419 192.801 375.313 Q192.801 368.183 190.972 364.642 Q189.167 361.077 185.532 361.077 M185.532 357.373 Q191.343 357.373 194.398 361.98 Q197.477 366.563 197.477 375.313 Q197.477 384.04 194.398 388.646 Q191.343 393.229 185.532 393.229 Q179.722 393.229 176.644 388.646 Q173.588 384.04 173.588 375.313 Q173.588 366.563 176.644 361.98 Q179.722 357.373 185.532 357.373 Z" fill="#000000" fill-rule="nonzero" fill-opacity="1" /><path clip-path="url(#clip200)" d="M233.866 367.095 L223.287 377.72 L233.866 388.299 L231.111 391.1 L220.486 380.475 L209.861 391.1 L207.13 388.299 L217.685 377.72 L207.13 367.095 L209.861 364.294 L220.486 374.919 L231.111 364.294 L233.866 367.095 Z" fill="#000000" fill-rule="nonzero" fill-opacity="1" /><path clip-path="url(#clip200)" d="M246.227 388.623 L253.865 388.623 L253.865 362.257 L245.555 363.924 L245.555 359.665 L253.819 357.998 L258.495 357.998 L258.495 388.623 L266.134 388.623 L266.134 392.558 L246.227 392.558 L246.227 388.623 Z" fill="#000000" fill-rule="nonzero" fill-opacity="1" /><path clip-path="url(#clip200)" d="M285.578 361.077 Q281.967 361.077 280.138 364.642 Q278.333 368.183 278.333 375.313 Q278.333 382.419 280.138 385.984 Q281.967 389.526 285.578 389.526 Q289.212 389.526 291.018 385.984 Q292.847 382.419 292.847 375.313 Q292.847 368.183 291.018 364.642 Q289.212 361.077 285.578 361.077 M285.578 357.373 Q291.388 357.373 294.444 361.98 Q297.523 366.563 297.523 375.313 Q297.523 384.04 294.444 388.646 Q291.388 393.229 285.578 393.229 Q279.768 393.229 276.689 388.646 Q273.634 384.04 273.634 375.313 Q273.634 366.563 276.689 361.98 Q279.768 357.373 285.578 357.373 Z" fill="#000000" fill-rule="nonzero" fill-opacity="1" /><path clip-path="url(#clip200)" d="M307.152 351.813 Q304.444 351.813 302.883 353.261 Q301.341 354.709 301.341 357.248 Q301.341 359.788 302.883 361.236 Q304.444 362.684 307.152 362.684 Q309.861 362.684 311.422 361.236 Q312.983 359.769 312.983 357.248 Q312.983 354.709 311.422 353.261 Q309.879 351.813 307.152 351.813 M303.353 350.196 Q300.908 349.594 299.535 347.92 Q298.181 346.246 298.181 343.839 Q298.181 340.472 300.569 338.516 Q302.977 336.56 307.152 336.56 Q311.346 336.56 313.735 338.516 Q316.123 340.472 316.123 343.839 Q316.123 346.246 314.751 347.92 Q313.396 349.594 310.97 350.196 Q313.716 350.835 315.24 352.697 Q316.782 354.559 316.782 357.248 Q316.782 361.33 314.28 363.511 Q311.798 365.693 307.152 365.693 Q302.507 365.693 300.005 363.511 Q297.523 361.33 297.523 357.248 Q297.523 354.559 299.065 352.697 Q300.607 350.835 303.353 350.196 M301.961 344.196 Q301.961 346.378 303.315 347.6 Q304.688 348.823 307.152 348.823 Q309.597 348.823 310.97 347.6 Q312.362 346.378 312.362 344.196 Q312.362 342.014 310.97 340.792 Q309.597 339.569 307.152 339.569 Q304.688 339.569 303.315 340.792 Q301.961 342.014 301.961 344.196 Z" fill="#000000" fill-rule="nonzero" fill-opacity="1" /><path clip-path="url(#clip200)" d="M98.9589 66.4863 L121.181 66.4863 L121.181 68.477 L108.635 101.046 L103.75 101.046 L115.556 70.4214 L98.9589 70.4214 L98.9589 66.4863 Z" fill="#000000" fill-rule="nonzero" fill-opacity="1" /><path clip-path="url(#clip200)" d="M130.301 95.1667 L135.186 95.1667 L135.186 101.046 L130.301 101.046 L130.301 95.1667 Z" fill="#000000" fill-rule="nonzero" fill-opacity="1" /><path clip-path="url(#clip200)" d="M146.181 97.1111 L153.82 97.1111 L153.82 70.7455 L145.51 72.4122 L145.51 68.1529 L153.773 66.4863 L158.449 66.4863 L158.449 97.1111 L166.088 97.1111 L166.088 101.046 L146.181 101.046 L146.181 97.1111 Z" fill="#000000" fill-rule="nonzero" fill-opacity="1" /><path clip-path="url(#clip200)" d="M185.532 69.5649 Q181.921 69.5649 180.093 73.1297 Q178.287 76.6714 178.287 83.801 Q178.287 90.9074 180.093 94.4722 Q181.921 98.0139 185.532 98.0139 Q189.167 98.0139 190.972 94.4722 Q192.801 90.9074 192.801 83.801 Q192.801 76.6714 190.972 73.1297 Q189.167 69.5649 185.532 69.5649 M185.532 65.8613 Q191.343 65.8613 194.398 70.4677 Q197.477 75.051 197.477 83.801 Q197.477 92.5278 194.398 97.1342 Q191.343 101.718 185.532 101.718 Q179.722 101.718 176.644 97.1342 Q173.588 92.5278 173.588 83.801 Q173.588 75.051 176.644 70.4677 Q179.722 65.8613 185.532 65.8613 Z" fill="#000000" fill-rule="nonzero" fill-opacity="1" /><path clip-path="url(#clip200)" d="M233.866 75.5834 L223.287 86.2084 L233.866 96.787 L231.111 99.5879 L220.486 88.963 L209.861 99.5879 L207.13 96.787 L217.685 86.2084 L207.13 75.5834 L209.861 72.7825 L220.486 83.4075 L231.111 72.7825 L233.866 75.5834 Z" fill="#000000" fill-rule="nonzero" fill-opacity="1" /><path clip-path="url(#clip200)" d="M246.227 97.1111 L253.865 97.1111 L253.865 70.7455 L245.555 72.4122 L245.555 68.1529 L253.819 66.4863 L258.495 66.4863 L258.495 97.1111 L266.134 97.1111 L266.134 101.046 L246.227 101.046 L246.227 97.1111 Z" fill="#000000" fill-rule="nonzero" fill-opacity="1" /><path clip-path="url(#clip200)" d="M285.578 69.5649 Q281.967 69.5649 280.138 73.1297 Q278.333 76.6714 278.333 83.801 Q278.333 90.9074 280.138 94.4722 Q281.967 98.0139 285.578 98.0139 Q289.212 98.0139 291.018 94.4722 Q292.847 90.9074 292.847 83.801 Q292.847 76.6714 291.018 73.1297 Q289.212 69.5649 285.578 69.5649 M285.578 65.8613 Q291.388 65.8613 294.444 70.4677 Q297.523 75.051 297.523 83.801 Q297.523 92.5278 294.444 97.1342 Q291.388 101.718 285.578 101.718 Q279.768 101.718 276.689 97.1342 Q273.634 92.5278 273.634 83.801 Q273.634 75.051 276.689 70.4677 Q279.768 65.8613 285.578 65.8613 Z" fill="#000000" fill-rule="nonzero" fill-opacity="1" /><path clip-path="url(#clip200)" d="M307.152 60.3011 Q304.444 60.3011 302.883 61.7493 Q301.341 63.1975 301.341 65.7366 Q301.341 68.2756 302.883 69.7238 Q304.444 71.172 307.152 71.172 Q309.861 71.172 311.422 69.7238 Q312.983 68.2568 312.983 65.7366 Q312.983 63.1975 311.422 61.7493 Q309.879 60.3011 307.152 60.3011 M303.353 58.6837 Q300.908 58.0818 299.535 56.4079 Q298.181 54.734 298.181 52.3267 Q298.181 48.9601 300.569 47.0041 Q302.977 45.048 307.152 45.048 Q311.346 45.048 313.735 47.0041 Q316.123 48.9601 316.123 52.3267 Q316.123 54.734 314.751 56.4079 Q313.396 58.0818 310.97 58.6837 Q313.716 59.3231 315.24 61.1851 Q316.782 63.0471 316.782 65.7366 Q316.782 69.8179 314.28 71.9996 Q311.798 74.1813 307.152 74.1813 Q302.507 74.1813 300.005 71.9996 Q297.523 69.8179 297.523 65.7366 Q297.523 63.0471 299.065 61.1851 Q300.607 59.3231 303.353 58.6837 M301.961 52.684 Q301.961 54.8657 303.315 56.0882 Q304.688 57.3107 307.152 57.3107 Q309.597 57.3107 310.97 56.0882 Q312.362 54.8657 312.362 52.684 Q312.362 50.5023 310.97 49.2798 Q309.597 48.0573 307.152 48.0573 Q304.688 48.0573 303.315 49.2798 Q301.961 50.5023 301.961 52.684 Z" fill="#000000" fill-rule="nonzero" fill-opacity="1" /><path clip-path="url(#clip200)" d="M-9.64527 840.632 L0.4762 840.632 L0.4762 828.569 L5.02768 828.569 L5.02768 840.632 L24.3794 840.632 Q28.7399 840.632 29.9813 839.454 Q31.2226 838.245 31.2226 834.584 L31.2226 828.569 L36.1242 828.569 L36.1242 834.584 Q36.1242 841.364 33.6097 843.942 Q31.0634 846.52 24.3794 846.52 L5.02768 846.52 L5.02768 850.817 L0.4762 850.817 L0.4762 846.52 L-9.64527 846.52 L-9.64527 840.632 Z" fill="#000000" fill-rule="nonzero" fill-opacity="1" /><path clip-path="url(#clip200)" d="M-11.3958 789.738 L-11.3958 784.327 L42.1716 800.878 L42.1716 806.289 L-11.3958 789.738 Z" fill="#000000" fill-rule="nonzero" fill-opacity="1" /><path clip-path="url(#clip200)" d="M14.6081 727.831 L36.1242 727.831 L36.1242 733.688 L14.799 733.688 Q9.7383 733.688 7.22385 735.661 Q4.7094 737.635 4.7094 741.581 Q4.7094 746.324 7.73311 749.061 Q10.7568 751.798 15.9767 751.798 L36.1242 751.798 L36.1242 757.687 L0.4762 757.687 L0.4762 751.798 L6.01437 751.798 Q2.79968 749.698 1.20826 746.865 Q-0.38317 744 -0.38317 740.276 Q-0.38317 734.133 3.43625 730.982 Q7.22385 727.831 14.6081 727.831 Z" fill="#000000" fill-rule="nonzero" fill-opacity="1" /><path clip-path="url(#clip200)" d="M1.52654 693.425 L7.06471 693.425 Q5.79157 695.907 5.15499 698.581 Q4.51842 701.255 4.51842 704.119 Q4.51842 708.48 5.85522 710.676 Q7.19202 712.84 9.86562 712.84 Q11.9026 712.84 13.0803 711.281 Q14.2261 709.721 15.2765 705.01 L15.7221 703.005 Q17.0589 696.767 19.5097 694.157 Q21.9286 691.515 26.2891 691.515 Q31.2544 691.515 34.1508 695.462 Q37.0472 699.377 37.0472 706.252 Q37.0472 709.116 36.4743 712.235 Q35.9332 715.323 34.8192 718.76 L28.7718 718.76 Q30.4587 715.514 31.318 712.363 Q32.1456 709.212 32.1456 706.124 Q32.1456 701.987 30.7451 699.759 Q29.3129 697.531 26.7347 697.531 Q24.3476 697.531 23.0745 699.154 Q21.8013 700.745 20.6237 706.188 L20.1462 708.225 Q19.0004 713.668 16.6451 716.087 Q14.258 718.506 10.1202 718.506 Q5.09134 718.506 2.35408 714.941 Q-0.38317 711.376 -0.38317 704.819 Q-0.38317 701.573 0.0942579 698.708 Q0.571686 695.844 1.52654 693.425 Z" fill="#000000" fill-rule="nonzero" fill-opacity="1" /><path clip-path="url(#clip201)" d="M846.702 1454.11 L848.407 1451.13 L849.644 1448.15 L850.397 1445.18 L850.658 1442.2 L850.425 1439.22 L849.703 1436.24 L848.506 1433.26 L846.85 1430.29 L844.761 1427.31 L842.27 1424.33 L839.413 1421.35 L836.232 1418.37 L832.772 1415.39 L829.081 1412.42 L825.212 1409.44 L821.218 1406.46 L817.153 1403.48 L813.072 1400.5 L809.032 1397.53 L805.086 1394.55 L801.286 1391.57 L797.683 1388.59 L794.326 1385.61 L791.26 1382.63 L788.527 1379.66 L786.167 1376.68 L784.215 1373.7 L782.702 1370.72 L781.657 1367.74 L781.104 1364.77 L781.064 1361.79 L781.552 1358.81 L782.581 1355.83 L784.161 1352.85 L786.296 1349.87 L788.987 1346.9 L792.232 1343.92 L796.024 1340.94 L800.355 1337.96 L805.21 1334.98 L810.574 1332.01 L816.426 1329.03 L822.742 1326.05 L829.497 1323.07 L836.662 1320.09 L844.204 1317.11 L852.09 1314.14 L860.282 1311.16 L868.742 1308.18 L877.43 1305.2 L886.301 1302.22 L895.313 1299.25 L904.419 1296.27 L913.572 1293.29 L922.725 1290.31 L931.828 1287.33 L940.83 1284.35 L949.68 1281.38 L958.326 1278.4 L966.713 1275.42 L974.789 1272.44 L982.498 1269.46 L989.787 1266.49 L996.6 1263.51 L1002.88 1260.53 L1008.58 1257.55 L1013.65 1254.57 L1018.03 1251.59 L1021.68 1248.62 L1024.55 1245.64 L1026.61 1242.66 L1027.83 1239.68 L1028.17 1236.7 L1027.62 1233.73 L1026.16 1230.75 L1023.79 1227.77 L1020.51 1224.79 L1016.35 1221.81 L1011.31 1218.83 L1005.44 1215.86 L998.778 1212.88 L991.372 1209.9 L983.28 1206.92 L488.574 1206.92 L480.483 1209.9 L473.076 1212.88 L466.412 1215.86 L460.542 1218.83 L455.508 1221.81 L451.342 1224.79 L448.067 1227.77 L445.698 1230.75 L444.239 1233.73 L443.687 1236.7 L444.028 1239.68 L445.243 1242.66 L447.304 1245.64 L450.178 1248.62 L453.827 1251.59 L458.207 1254.57 L463.272 1257.55 L468.972 1260.53 L475.255 1263.51 L482.068 1266.49 L489.356 1269.46 L497.066 1272.44 L505.141 1275.42 L513.529 1278.4 L522.174 1281.38 L531.024 1284.35 L540.026 1287.33 L549.129 1290.31 L558.282 1293.29 L567.436 1296.27 L576.542 1299.25 L585.553 1302.22 L594.425 1305.2 L603.112 1308.18 L611.572 1311.16 L619.764 1314.14 L627.65 1317.11 L635.192 1320.09 L642.357 1323.07 L649.112 1326.05 L655.429 1329.03 L661.28 1332.01 L666.644 1334.98 L671.499 1337.96 L675.83 1340.94 L679.623 1343.92 L682.868 1346.9 L685.559 1349.87 L687.694 1352.85 L689.273 1355.83 L690.303 1358.81 L690.791 1361.79 L690.75 1364.77 L690.197 1367.74 L689.152 1370.72 L687.64 1373.7 L685.687 1376.68 L683.327 1379.66 L680.595 1382.63 L677.529 1385.61 L674.171 1388.59 L670.569 1391.57 L666.769 1394.55 L662.822 1397.53 L658.782 1400.5 L654.702 1403.48 L650.637 1406.46 L646.642 1409.44 L642.773 1412.42 L639.082 1415.39 L635.622 1418.37 L632.441 1421.35 L629.584 1424.33 L627.094 1427.31 L625.005 1430.29 L623.349 1433.26 L622.151 1436.24 L621.429 1439.22 L621.197 1442.2 L621.457 1445.18 L622.21 1448.15 L623.447 1451.13 L625.152 1454.11 L846.702 1454.11  Z" fill="#009af9" fill-rule="evenodd" fill-opacity="1"/>
<polyline clip-path="url(#clip201)" style="stroke:#000000; stroke-linecap:round; stroke-linejoin:round; stroke-width:4; stroke-opacity:1; fill:none" points="846.702,1454.11 848.407,1451.13 849.644,1448.15 850.397,1445.18 850.658,1442.2 850.425,1439.22 849.703,1436.24 848.506,1433.26 846.85,1430.29 844.761,1427.31 842.27,1424.33 839.413,1421.35 836.232,1418.37 832.772,1415.39 829.081,1412.42 825.212,1409.44 821.218,1406.46 817.153,1403.48 813.072,1400.5 809.032,1397.53 805.086,1394.55 801.286,1391.57 797.683,1388.59 794.326,1385.61 791.26,1382.63 788.527,1379.66 786.167,1376.68 784.215,1373.7 782.702,1370.72 781.657,1367.74 781.104,1364.77 781.064,1361.79 781.552,1358.81 782.581,1355.83 784.161,1352.85 786.296,1349.87 788.987,1346.9 792.232,1343.92 796.024,1340.94 800.355,1337.96 805.21,1334.98 810.574,1332.01 816.426,1329.03 822.742,1326.05 829.497,1323.07 836.662,1320.09 844.204,1317.11 852.09,1314.14 860.282,1311.16 868.742,1308.18 877.43,1305.2 886.301,1302.22 895.313,1299.25 904.419,1296.27 913.572,1293.29 922.725,1290.31 931.828,1287.33 940.83,1284.35 949.68,1281.38 958.326,1278.4 966.713,1275.42 974.789,1272.44 982.498,1269.46 989.787,1266.49 996.6,1263.51 1002.88,1260.53 1008.58,1257.55 1013.65,1254.57 1018.03,1251.59 1021.68,1248.62 1024.55,1245.64 1026.61,1242.66 1027.83,1239.68 1028.17,1236.7 1027.62,1233.73 1026.16,1230.75 1023.79,1227.77 1020.51,1224.79 1016.35,1221.81 1011.31,1218.83 1005.44,1215.86 998.778,1212.88 991.372,1209.9 983.28,1206.92 488.574,1206.92 480.483,1209.9 473.076,1212.88 466.412,1215.86 460.542,1218.83 455.508,1221.81 451.342,1224.79 448.067,1227.77 445.698,1230.75 444.239,1233.73 443.687,1236.7 444.028,1239.68 445.243,1242.66 447.304,1245.64 450.178,1248.62 453.827,1251.59 458.207,1254.57 463.272,1257.55 468.972,1260.53 475.255,1263.51 482.068,1266.49 489.356,1269.46 497.066,1272.44 505.141,1275.42 513.529,1278.4 522.174,1281.38 531.024,1284.35 540.026,1287.33 549.129,1290.31 558.282,1293.29 567.436,1296.27 576.542,1299.25 585.553,1302.22 594.425,1305.2 603.112,1308.18 611.572,1311.16 619.764,1314.14 627.65,1317.11 635.192,1320.09 642.357,1323.07 649.112,1326.05 655.429,1329.03 661.28,1332.01 666.644,1334.98 671.499,1337.96 675.83,1340.94 679.623,1343.92 682.868,1346.9 685.559,1349.87 687.694,1352.85 689.273,1355.83 690.303,1358.81 690.791,1361.79 690.75,1364.77 690.197,1367.74 689.152,1370.72 687.64,1373.7 685.687,1376.68 683.327,1379.66 680.595,1382.63 677.529,1385.61 674.171,1388.59 670.569,1391.57 666.769,1394.55 662.822,1397.53 658.782,1400.5 654.702,1403.48 650.637,1406.46 646.642,1409.44 642.773,1412.42 639.082,1415.39 635.622,1418.37 632.441,1421.35 629.584,1424.33 627.094,1427.31 625.005,1430.29 623.349,1433.26 622.151,1436.24 621.429,1439.22 621.197,1442.2 621.457,1445.18 622.21,1448.15 623.447,1451.13 625.152,1454.11 846.702,1454.11 "/>
<path clip-path="url(#clip201)" d="M1835.38 891.719 L1831.48 886.729 L1824.62 881.738 L1815.69 876.747 L1805.73 871.757 L1795.75 866.766 L1786.59 861.775 L1778.82 856.785 L1772.71 851.794 L1768.32 846.803 L1765.58 841.813 L1764.39 836.822 L1764.7 831.831 L1766.52 826.841 L1770 821.85 L1775.27 816.859 L1782.47 811.869 L1791.61 806.878 L1802.52 801.887 L1814.87 796.897 L1828.13 791.906 L1841.76 786.915 L1855.29 781.925 L1868.47 776.934 L1881.28 771.943 L1893.98 766.952 L1906.93 761.962 L1920.49 756.971 L1934.91 751.98 L1950.21 746.99 L1966.26 741.999 L1982.75 737.008 L1999.26 732.018 L2015.17 727.027 L2029.61 722.036 L2041.4 717.046 L2049.06 712.055 L2051.01 707.064 L2045.88 702.074 L2032.9 697.083 L2012.18 692.092 L1984.86 687.102 L1952.95 682.111 L1918.98 677.12 L1885.55 672.13 L1854.88 667.139 L1828.51 662.148 L1807.17 657.158 L1790.88 652.167 L1779.12 647.176 L1771.1 642.186 L1765.9 637.195 L1762.71 632.204 L1760.85 627.214 L1759.82 622.223 L1759.27 617.232 L1759 612.242 L1758.87 607.251 L1758.81 602.26 L1758.79 597.27 L1758.78 592.279 L1758.77 587.288 L1758.77 582.298 L1758.77 577.307 L1758.77 572.316 L1758.77 567.326 L1758.77 562.335 L1758.77 557.344 L1758.77 552.353 L1758.77 547.363 L1758.77 542.372 L1758.77 537.381 L1758.77 532.391 L1758.77 527.4 L1758.77 522.409 L1758.77 517.419 L1758.77 512.428 L1758.77 507.437 L1758.77 502.447 L1758.77 497.456 L1758.77 492.465 L1758.77 487.475 L1758.77 482.484 L1758.77 477.493 L1758.77 472.503 L1758.77 467.512 L1758.77 462.521 L1758.77 457.531 L1758.77 452.54 L1758.77 447.549 L1758.77 442.559 L1758.77 437.568 L1758.77 432.577 L1758.77 427.587 L1758.77 422.596 L1758.77 417.605 L1758.77 412.615 L1758.77 407.624 L1758.77 402.633 L1758.77 397.643 L1758.77 392.652 L1758.77 387.661 L1758.77 382.671 L1758.77 377.68 L1758.77 372.689 L1758.77 367.699 L1758.77 362.708 L1758.77 357.717 L1758.77 352.727 L1758.77 347.736 L1758.77 342.745 L1758.77 337.755 L1758.77 332.764 L1758.77 327.773 L1758.77 322.782 L1758.77 317.792 L1758.77 312.801 L1758.77 307.81 L1758.77 302.82 L1758.77 297.829 L1758.77 292.838 L1758.77 287.848 L1758.77 282.857 L1758.77 277.866 L1758.77 272.876 L1758.77 267.885 L1758.77 262.894 L1758.77 257.904 L1758.77 252.913 L1758.77 247.922 L1758.77 242.932 L1758.77 237.941 L1758.77 232.95 L1758.77 227.96 L1758.77 222.969 L1758.77 217.978 L1758.77 212.988 L1758.77 207.997 L1758.77 203.006 L1758.77 198.016 L1758.77 193.025 L1758.77 188.034 L1758.78 183.044 L1758.79 178.053 L1758.82 173.062 L1758.89 168.072 L1759.03 163.081 L1759.29 158.09 L1759.78 153.1 L1760.63 148.109 L1762.06 143.118 L1764.3 138.128 L1767.65 133.137 L1772.38 128.146 L1778.66 123.156 L1786.52 118.165 L1795.72 113.174 L1805.71 108.184 L1815.69 103.193 L1824.62 98.2022 L1831.48 93.2115 L1835.38 88.2208 L1682.16 88.2208 L1686.06 93.2115 L1692.92 98.2022 L1701.85 103.193 L1711.82 108.184 L1721.82 113.174 L1731.02 118.165 L1738.88 123.156 L1745.16 128.146 L1749.89 133.137 L1753.24 138.128 L1755.48 143.118 L1756.9 148.109 L1757.76 153.1 L1758.25 158.09 L1758.51 163.081 L1758.65 168.072 L1758.71 173.062 L1758.75 178.053 L1758.76 183.044 L1758.77 188.034 L1758.77 193.025 L1758.77 198.016 L1758.77 203.006 L1758.77 207.997 L1758.77 212.988 L1758.77 217.978 L1758.77 222.969 L1758.77 227.96 L1758.77 232.95 L1758.77 237.941 L1758.77 242.932 L1758.77 247.922 L1758.77 252.913 L1758.77 257.904 L1758.77 262.894 L1758.77 267.885 L1758.77 272.876 L1758.77 277.866 L1758.77 282.857 L1758.77 287.848 L1758.77 292.838 L1758.77 297.829 L1758.77 302.82 L1758.77 307.81 L1758.77 312.801 L1758.77 317.792 L1758.77 322.782 L1758.77 327.773 L1758.77 332.764 L1758.77 337.755 L1758.77 342.745 L1758.77 347.736 L1758.77 352.727 L1758.77 357.717 L1758.77 362.708 L1758.77 367.699 L1758.77 372.689 L1758.77 377.68 L1758.77 382.671 L1758.77 387.661 L1758.77 392.652 L1758.77 397.643 L1758.77 402.633 L1758.77 407.624 L1758.77 412.615 L1758.77 417.605 L1758.77 422.596 L1758.77 427.587 L1758.77 432.577 L1758.77 437.568 L1758.77 442.559 L1758.77 447.549 L1758.77 452.54 L1758.77 457.531 L1758.77 462.521 L1758.77 467.512 L1758.77 472.503 L1758.77 477.493 L1758.77 482.484 L1758.77 487.475 L1758.77 492.465 L1758.77 497.456 L1758.77 502.447 L1758.77 507.437 L1758.77 512.428 L1758.77 517.419 L1758.77 522.409 L1758.77 527.4 L1758.77 532.391 L1758.77 537.381 L1758.77 542.372 L1758.77 547.363 L1758.77 552.353 L1758.77 557.344 L1758.77 562.335 L1758.77 567.326 L1758.77 572.316 L1758.77 577.307 L1758.77 582.298 L1758.77 587.288 L1758.76 592.279 L1758.75 597.27 L1758.73 602.26 L1758.67 607.251 L1758.54 612.242 L1758.27 617.232 L1757.72 622.223 L1756.69 627.214 L1754.83 632.204 L1751.64 637.195 L1746.44 642.186 L1738.41 647.176 L1726.66 652.167 L1710.37 657.158 L1689.03 662.148 L1662.65 667.139 L1631.98 672.13 L1598.55 677.12 L1564.58 682.111 L1532.67 687.102 L1505.35 692.092 L1484.64 697.083 L1471.66 702.074 L1466.53 707.064 L1468.48 712.055 L1476.14 717.046 L1487.93 722.036 L1502.37 727.027 L1518.28 732.018 L1534.79 737.008 L1551.28 741.999 L1567.33 746.99 L1582.63 751.98 L1597.04 756.971 L1610.61 761.962 L1623.56 766.952 L1636.25 771.943 L1649.07 776.934 L1662.24 781.925 L1675.78 786.915 L1689.41 791.906 L1702.67 796.897 L1715.01 801.887 L1725.93 806.878 L1735.07 811.869 L1742.27 816.859 L1747.54 821.85 L1751.01 826.841 L1752.84 831.831 L1753.14 836.822 L1751.95 841.813 L1749.21 846.803 L1744.83 851.794 L1738.72 856.785 L1730.94 861.775 L1721.79 866.766 L1711.81 871.757 L1701.85 876.747 L1692.91 881.738 L1686.06 886.729 L1682.16 891.719 L1835.38 891.719  Z" fill="#e26f46" fill-rule="evenodd" fill-opacity="1"/>
<polyline clip-path="url(#clip201)" style="stroke:#000000; stroke-linecap:round; stroke-linejoin:round; stroke-width:4; stroke-opacity:1; fill:none" points="1835.38,891.719 1831.48,886.729 1824.62,881.738 1815.69,876.747 1805.73,871.757 1795.75,866.766 1786.59,861.775 1778.82,856.785 1772.71,851.794 1768.32,846.803 1765.58,841.813 1764.39,836.822 1764.7,831.831 1766.52,826.841 1770,821.85 1775.27,816.859 1782.47,811.869 1791.61,806.878 1802.52,801.887 1814.87,796.897 1828.13,791.906 1841.76,786.915 1855.29,781.925 1868.47,776.934 1881.28,771.943 1893.98,766.952 1906.93,761.962 1920.49,756.971 1934.91,751.98 1950.21,746.99 1966.26,741.999 1982.75,737.008 1999.26,732.018 2015.17,727.027 2029.61,722.036 2041.4,717.046 2049.06,712.055 2051.01,707.064 2045.88,702.074 2032.9,697.083 2012.18,692.092 1984.86,687.102 1952.95,682.111 1918.98,677.12 1885.55,672.13 1854.88,667.139 1828.51,662.148 1807.17,657.158 1790.88,652.167 1779.12,647.176 1771.1,642.186 1765.9,637.195 1762.71,632.204 1760.85,627.214 1759.82,622.223 1759.27,617.232 1759,612.242 1758.87,607.251 1758.81,602.26 1758.79,597.27 1758.78,592.279 1758.77,587.288 1758.77,582.298 1758.77,577.307 1758.77,572.316 1758.77,567.326 1758.77,562.335 1758.77,557.344 1758.77,552.353 1758.77,547.363 1758.77,542.372 1758.77,537.381 1758.77,532.391 1758.77,527.4 1758.77,522.409 1758.77,517.419 1758.77,512.428 1758.77,507.437 1758.77,502.447 1758.77,497.456 1758.77,492.465 1758.77,487.475 1758.77,482.484 1758.77,477.493 1758.77,472.503 1758.77,467.512 1758.77,462.521 1758.77,457.531 1758.77,452.54 1758.77,447.549 1758.77,442.559 1758.77,437.568 1758.77,432.577 1758.77,427.587 1758.77,422.596 1758.77,417.605 1758.77,412.615 1758.77,407.624 1758.77,402.633 1758.77,397.643 1758.77,392.652 1758.77,387.661 1758.77,382.671 1758.77,377.68 1758.77,372.689 1758.77,367.699 1758.77,362.708 1758.77,357.717 1758.77,352.727 1758.77,347.736 1758.77,342.745 1758.77,337.755 1758.77,332.764 1758.77,327.773 1758.77,322.782 1758.77,317.792 1758.77,312.801 1758.77,307.81 1758.77,302.82 1758.77,297.829 1758.77,292.838 1758.77,287.848 1758.77,282.857 1758.77,277.866 1758.77,272.876 1758.77,267.885 1758.77,262.894 1758.77,257.904 1758.77,252.913 1758.77,247.922 1758.77,242.932 1758.77,237.941 1758.77,232.95 1758.77,227.96 1758.77,222.969 1758.77,217.978 1758.77,212.988 1758.77,207.997 1758.77,203.006 1758.77,198.016 1758.77,193.025 1758.77,188.034 1758.78,183.044 1758.79,178.053 1758.82,173.062 1758.89,168.072 1759.03,163.081 1759.29,158.09 1759.78,153.1 1760.63,148.109 1762.06,143.118 1764.3,138.128 1767.65,133.137 1772.38,128.146 1778.66,123.156 1786.52,118.165 1795.72,113.174 1805.71,108.184 1815.69,103.193 1824.62,98.2022 1831.48,93.2115 1835.38,88.2208 1682.16,88.2208 1686.06,93.2115 1692.92,98.2022 1701.85,103.193 1711.82,108.184 1721.82,113.174 1731.02,118.165 1738.88,123.156 1745.16,128.146 1749.89,133.137 1753.24,138.128 1755.48,143.118 1756.9,148.109 1757.76,153.1 1758.25,158.09 1758.51,163.081 1758.65,168.072 1758.71,173.062 1758.75,178.053 1758.76,183.044 1758.77,188.034 1758.77,193.025 1758.77,198.016 1758.77,203.006 1758.77,207.997 1758.77,212.988 1758.77,217.978 1758.77,222.969 1758.77,227.96 1758.77,232.95 1758.77,237.941 1758.77,242.932 1758.77,247.922 1758.77,252.913 1758.77,257.904 1758.77,262.894 1758.77,267.885 1758.77,272.876 1758.77,277.866 1758.77,282.857 1758.77,287.848 1758.77,292.838 1758.77,297.829 1758.77,302.82 1758.77,307.81 1758.77,312.801 1758.77,317.792 1758.77,322.782 1758.77,327.773 1758.77,332.764 1758.77,337.755 1758.77,342.745 1758.77,347.736 1758.77,352.727 1758.77,357.717 1758.77,362.708 1758.77,367.699 1758.77,372.689 1758.77,377.68 1758.77,382.671 1758.77,387.661 1758.77,392.652 1758.77,397.643 1758.77,402.633 1758.77,407.624 1758.77,412.615 1758.77,417.605 1758.77,422.596 1758.77,427.587 1758.77,432.577 1758.77,437.568 1758.77,442.559 1758.77,447.549 1758.77,452.54 1758.77,457.531 1758.77,462.521 1758.77,467.512 1758.77,472.503 1758.77,477.493 1758.77,482.484 1758.77,487.475 1758.77,492.465 1758.77,497.456 1758.77,502.447 1758.77,507.437 1758.77,512.428 1758.77,517.419 1758.77,522.409 1758.77,527.4 1758.77,532.391 1758.77,537.381 1758.77,542.372 1758.77,547.363 1758.77,552.353 1758.77,557.344 1758.77,562.335 1758.77,567.326 1758.77,572.316 1758.77,577.307 1758.77,582.298 1758.77,587.288 1758.76,592.279 1758.75,597.27 1758.73,602.26 1758.67,607.251 1758.54,612.242 1758.27,617.232 1757.72,622.223 1756.69,627.214 1754.83,632.204 1751.64,637.195 1746.44,642.186 1738.41,647.176 1726.66,652.167 1710.37,657.158 1689.03,662.148 1662.65,667.139 1631.98,672.13 1598.55,677.12 1564.58,682.111 1532.67,687.102 1505.35,692.092 1484.64,697.083 1471.66,702.074 1466.53,707.064 1468.48,712.055 1476.14,717.046 1487.93,722.036 1502.37,727.027 1518.28,732.018 1534.79,737.008 1551.28,741.999 1567.33,746.99 1582.63,751.98 1597.04,756.971 1610.61,761.962 1623.56,766.952 1636.25,771.943 1649.07,776.934 1662.24,781.925 1675.78,786.915 1689.41,791.906 1702.67,796.897 1715.01,801.887 1725.93,806.878 1735.07,811.869 1742.27,816.859 1747.54,821.85 1751.01,826.841 1752.84,831.831 1753.14,836.822 1751.95,841.813 1749.21,846.803 1744.83,851.794 1738.72,856.785 1730.94,861.775 1721.79,866.766 1711.81,871.757 1701.85,876.747 1692.91,881.738 1686.06,886.729 1682.16,891.719 1835.38,891.719 "/>
<path clip-path="url(#clip201)" d="M2846.83 453.822 L2846.41 451.156 L2845.62 448.49 L2844.47 445.825 L2842.98 443.159 L2841.18 440.493 L2839.11 437.827 L2836.81 435.162 L2834.32 432.496 L2831.69 429.83 L2828.96 427.165 L2826.19 424.499 L2823.42 421.833 L2820.71 419.168 L2818.09 416.502 L2815.62 413.836 L2813.32 411.171 L2811.25 408.505 L2809.42 405.839 L2807.88 403.173 L2806.64 400.508 L2805.72 397.842 L2805.14 395.176 L2804.91 392.511 L2805.04 389.845 L2805.52 387.179 L2806.36 384.514 L2807.55 381.848 L2809.08 379.182 L2810.94 376.516 L2813.1 373.851 L2815.56 371.185 L2818.28 368.519 L2821.23 365.854 L2824.4 363.188 L2827.76 360.522 L2831.26 357.857 L2834.89 355.191 L2838.62 352.525 L2842.42 349.86 L2846.26 347.194 L2850.13 344.528 L2854.01 341.862 L2857.88 339.197 L2861.75 336.531 L2865.61 333.865 L2869.47 331.2 L2873.34 328.534 L2877.24 325.868 L2881.18 323.203 L2885.19 320.537 L2889.3 317.871 L2893.54 315.206 L2897.94 312.54 L2902.53 309.874 L2907.33 307.208 L2912.36 304.543 L2917.65 301.877 L2923.21 299.211 L2929.04 296.546 L2935.14 293.88 L2941.52 291.214 L2948.14 288.549 L2954.99 285.883 L2962.04 283.217 L2969.25 280.552 L2976.58 277.886 L2984 275.22 L2991.44 272.554 L2998.86 269.889 L3006.21 267.223 L3013.43 264.557 L3020.48 261.892 L3027.29 259.226 L3033.82 256.56 L3040.02 253.895 L3045.84 251.229 L3051.23 248.563 L3056.15 245.897 L3060.56 243.232 L3064.41 240.566 L3067.65 237.9 L3070.26 235.235 L3072.19 232.569 L3073.4 229.903 L3073.85 227.238 L3073.52 224.572 L3072.38 221.906 L3070.4 219.241 L3067.57 216.575 L3063.88 213.909 L3059.32 211.243 L3053.9 208.578 L3047.65 205.912 L3040.58 203.246 L3032.74 200.581 L2530.48 200.581 L2522.64 203.246 L2515.58 205.912 L2509.32 208.578 L2503.9 211.243 L2499.34 213.909 L2495.65 216.575 L2492.82 219.241 L2490.84 221.906 L2489.7 224.572 L2489.37 227.238 L2489.83 229.903 L2491.03 232.569 L2492.96 235.235 L2495.57 237.9 L2498.81 240.566 L2502.66 243.232 L2507.07 245.897 L2511.99 248.563 L2517.38 251.229 L2523.2 253.895 L2529.4 256.56 L2535.93 259.226 L2542.74 261.892 L2549.79 264.557 L2557.01 267.223 L2564.36 269.889 L2571.78 272.554 L2579.22 275.22 L2586.64 277.886 L2593.97 280.552 L2601.18 283.217 L2608.23 285.883 L2615.08 288.549 L2621.7 291.214 L2628.08 293.88 L2634.18 296.546 L2640.01 299.211 L2645.57 301.877 L2650.86 304.543 L2655.9 307.208 L2660.69 309.874 L2665.28 312.54 L2669.68 315.206 L2673.92 317.871 L2678.03 320.537 L2682.04 323.203 L2685.98 325.868 L2689.88 328.534 L2693.75 331.2 L2697.61 333.865 L2701.47 336.531 L2705.34 339.197 L2709.21 341.862 L2713.09 344.528 L2716.96 347.194 L2720.8 349.86 L2724.6 352.525 L2728.33 355.191 L2731.96 357.857 L2735.46 360.522 L2738.82 363.188 L2741.99 365.854 L2744.94 368.519 L2747.66 371.185 L2750.12 373.851 L2752.28 376.516 L2754.14 379.182 L2755.67 381.848 L2756.86 384.514 L2757.7 387.179 L2758.19 389.845 L2758.31 392.511 L2758.08 395.176 L2757.5 397.842 L2756.58 400.508 L2755.34 403.173 L2753.8 405.839 L2751.97 408.505 L2749.9 411.171 L2747.6 413.836 L2745.13 416.502 L2742.51 419.168 L2739.8 421.833 L2737.03 424.499 L2734.26 427.165 L2731.54 429.83 L2728.9 432.496 L2726.41 435.162 L2724.11 437.827 L2722.04 440.493 L2720.24 443.159 L2718.75 445.825 L2717.6 448.49 L2716.81 451.156 L2716.39 453.822 L2846.83 453.822  Z" fill="#3da44d" fill-rule="evenodd" fill-opacity="1"/>
<polyline clip-path="url(#clip201)" style="stroke:#000000; stroke-linecap:round; stroke-linejoin:round; stroke-width:4; stroke-opacity:1; fill:none" points="2846.83,453.822 2846.41,451.156 2845.62,448.49 2844.47,445.825 2842.98,443.159 2841.18,440.493 2839.11,437.827 2836.81,435.162 2834.32,432.496 2831.69,429.83 2828.96,427.165 2826.19,424.499 2823.42,421.833 2820.71,419.168 2818.09,416.502 2815.62,413.836 2813.32,411.171 2811.25,408.505 2809.42,405.839 2807.88,403.173 2806.64,400.508 2805.72,397.842 2805.14,395.176 2804.91,392.511 2805.04,389.845 2805.52,387.179 2806.36,384.514 2807.55,381.848 2809.08,379.182 2810.94,376.516 2813.1,373.851 2815.56,371.185 2818.28,368.519 2821.23,365.854 2824.4,363.188 2827.76,360.522 2831.26,357.857 2834.89,355.191 2838.62,352.525 2842.42,349.86 2846.26,347.194 2850.13,344.528 2854.01,341.862 2857.88,339.197 2861.75,336.531 2865.61,333.865 2869.47,331.2 2873.34,328.534 2877.24,325.868 2881.18,323.203 2885.19,320.537 2889.3,317.871 2893.54,315.206 2897.94,312.54 2902.53,309.874 2907.33,307.208 2912.36,304.543 2917.65,301.877 2923.21,299.211 2929.04,296.546 2935.14,293.88 2941.52,291.214 2948.14,288.549 2954.99,285.883 2962.04,283.217 2969.25,280.552 2976.58,277.886 2984,275.22 2991.44,272.554 2998.86,269.889 3006.21,267.223 3013.43,264.557 3020.48,261.892 3027.29,259.226 3033.82,256.56 3040.02,253.895 3045.84,251.229 3051.23,248.563 3056.15,245.897 3060.56,243.232 3064.41,240.566 3067.65,237.9 3070.26,235.235 3072.19,232.569 3073.4,229.903 3073.85,227.238 3073.52,224.572 3072.38,221.906 3070.4,219.241 3067.57,216.575 3063.88,213.909 3059.32,211.243 3053.9,208.578 3047.65,205.912 3040.58,203.246 3032.74,200.581 2530.48,200.581 2522.64,203.246 2515.58,205.912 2509.32,208.578 2503.9,211.243 2499.34,213.909 2495.65,216.575 2492.82,219.241 2490.84,221.906 2489.7,224.572 2489.37,227.238 2489.83,229.903 2491.03,232.569 2492.96,235.235 2495.57,237.9 2498.81,240.566 2502.66,243.232 2507.07,245.897 2511.99,248.563 2517.38,251.229 2523.2,253.895 2529.4,256.56 2535.93,259.226 2542.74,261.892 2549.79,264.557 2557.01,267.223 2564.36,269.889 2571.78,272.554 2579.22,275.22 2586.64,277.886 2593.97,280.552 2601.18,283.217 2608.23,285.883 2615.08,288.549 2621.7,291.214 2628.08,293.88 2634.18,296.546 2640.01,299.211 2645.57,301.877 2650.86,304.543 2655.9,307.208 2660.69,309.874 2665.28,312.54 2669.68,315.206 2673.92,317.871 2678.03,320.537 2682.04,323.203 2685.98,325.868 2689.88,328.534 2693.75,331.2 2697.61,333.865 2701.47,336.531 2705.34,339.197 2709.21,341.862 2713.09,344.528 2716.96,347.194 2720.8,349.86 2724.6,352.525 2728.33,355.191 2731.96,357.857 2735.46,360.522 2738.82,363.188 2741.99,365.854 2744.94,368.519 2747.66,371.185 2750.12,373.851 2752.28,376.516 2754.14,379.182 2755.67,381.848 2756.86,384.514 2757.7,387.179 2758.19,389.845 2758.31,392.511 2758.08,395.176 2757.5,397.842 2756.58,400.508 2755.34,403.173 2753.8,405.839 2751.97,408.505 2749.9,411.171 2747.6,413.836 2745.13,416.502 2742.51,419.168 2739.8,421.833 2737.03,424.499 2734.26,427.165 2731.54,429.83 2728.9,432.496 2726.41,435.162 2724.11,437.827 2722.04,440.493 2720.24,443.159 2718.75,445.825 2717.6,448.49 2716.81,451.156 2716.39,453.822 2846.83,453.822 "/>
</svg>
