<?xml version="1.0" encoding="utf-8"?>
<svg xmlns="http://www.w3.org/2000/svg" xmlns:xlink="http://www.w3.org/1999/xlink" width="600" height="400" viewBox="0 0 2400 1600">
<defs>
  <clipPath id="clip910">
    <rect x="0" y="0" width="2400" height="1600"/>
  </clipPath>
</defs>
<path clip-path="url(#clip910)" d="M0 1600 L2400 1600 L2400 0 L0 0  Z" fill="#ffffff" fill-rule="evenodd" fill-opacity="1"/>
<defs>
  <clipPath id="clip911">
    <rect x="480" y="0" width="1681" height="1600"/>
  </clipPath>
</defs>
<path clip-path="url(#clip910)" d="M265.445 1423.18 L2352.76 1423.18 L2352.76 47.2441 L265.445 47.2441  Z" fill="#ffffff" fill-rule="evenodd" fill-opacity="1"/>
<defs>
  <clipPath id="clip912">
    <rect x="265" y="47" width="2088" height="1377"/>
  </clipPath>
</defs>
<polyline clip-path="url(#clip912)" style="stroke:#000000; stroke-linecap:round; stroke-linejoin:round; stroke-width:2; stroke-opacity:0.1; fill:none" points="304.629,1423.18 304.629,47.2441 "/>
<polyline clip-path="url(#clip912)" style="stroke:#000000; stroke-linecap:round; stroke-linejoin:round; stroke-width:2; stroke-opacity:0.1; fill:none" points="801.892,1423.18 801.892,47.2441 "/>
<polyline clip-path="url(#clip912)" style="stroke:#000000; stroke-linecap:round; stroke-linejoin:round; stroke-width:2; stroke-opacity:0.1; fill:none" points="1299.16,1423.18 1299.16,47.2441 "/>
<polyline clip-path="url(#clip912)" style="stroke:#000000; stroke-linecap:round; stroke-linejoin:round; stroke-width:2; stroke-opacity:0.1; fill:none" points="1796.42,1423.18 1796.42,47.2441 "/>
<polyline clip-path="url(#clip912)" style="stroke:#000000; stroke-linecap:round; stroke-linejoin:round; stroke-width:2; stroke-opacity:0.1; fill:none" points="2293.68,1423.18 2293.68,47.2441 "/>
<polyline clip-path="url(#clip912)" style="stroke:#000000; stroke-linecap:round; stroke-linejoin:round; stroke-width:2; stroke-opacity:0.1; fill:none" points="265.445,1329.88 2352.76,1329.88 "/>
<polyline clip-path="url(#clip912)" style="stroke:#000000; stroke-linecap:round; stroke-linejoin:round; stroke-width:2; stroke-opacity:0.1; fill:none" points="265.445,1056.88 2352.76,1056.88 "/>
<polyline clip-path="url(#clip912)" style="stroke:#000000; stroke-linecap:round; stroke-linejoin:round; stroke-width:2; stroke-opacity:0.1; fill:none" points="265.445,783.89 2352.76,783.89 "/>
<polyline clip-path="url(#clip912)" style="stroke:#000000; stroke-linecap:round; stroke-linejoin:round; stroke-width:2; stroke-opacity:0.1; fill:none" points="265.445,510.898 2352.76,510.898 "/>
<polyline clip-path="url(#clip912)" style="stroke:#000000; stroke-linecap:round; stroke-linejoin:round; stroke-width:2; stroke-opacity:0.1; fill:none" points="265.445,237.905 2352.76,237.905 "/>
<polyline clip-path="url(#clip910)" style="stroke:#000000; stroke-linecap:round; stroke-linejoin:round; stroke-width:4; stroke-opacity:1; fill:none" points="265.445,1423.18 2352.76,1423.18 "/>
<polyline clip-path="url(#clip910)" style="stroke:#000000; stroke-linecap:round; stroke-linejoin:round; stroke-width:4; stroke-opacity:1; fill:none" points="304.629,1423.18 304.629,1404.28 "/>
<polyline clip-path="url(#clip910)" style="stroke:#000000; stroke-linecap:round; stroke-linejoin:round; stroke-width:4; stroke-opacity:1; fill:none" points="801.892,1423.18 801.892,1404.28 "/>
<polyline clip-path="url(#clip910)" style="stroke:#000000; stroke-linecap:round; stroke-linejoin:round; stroke-width:4; stroke-opacity:1; fill:none" points="1299.16,1423.18 1299.16,1404.28 "/>
<polyline clip-path="url(#clip910)" style="stroke:#000000; stroke-linecap:round; stroke-linejoin:round; stroke-width:4; stroke-opacity:1; fill:none" points="1796.42,1423.18 1796.42,1404.28 "/>
<polyline clip-path="url(#clip910)" style="stroke:#000000; stroke-linecap:round; stroke-linejoin:round; stroke-width:4; stroke-opacity:1; fill:none" points="2293.68,1423.18 2293.68,1404.28 "/>
<path clip-path="url(#clip910)" d="M304.629 1454.1 Q301.018 1454.1 299.189 1457.66 Q297.384 1461.2 297.384 1468.33 Q297.384 1475.44 299.189 1479.01 Q301.018 1482.55 304.629 1482.55 Q308.263 1482.55 310.069 1479.01 Q311.898 1475.44 311.898 1468.33 Q311.898 1461.2 310.069 1457.66 Q308.263 1454.1 304.629 1454.1 M304.629 1450.39 Q310.439 1450.39 313.495 1455 Q316.573 1459.58 316.573 1468.33 Q316.573 1477.06 313.495 1481.67 Q310.439 1486.25 304.629 1486.25 Q298.819 1486.25 295.74 1481.67 Q292.685 1477.06 292.685 1468.33 Q292.685 1459.58 295.74 1455 Q298.819 1450.39 304.629 1450.39 Z" fill="#000000" fill-rule="nonzero" fill-opacity="1" /><path clip-path="url(#clip910)" d="M765.584 1481.64 L781.904 1481.64 L781.904 1485.58 L759.959 1485.58 L759.959 1481.64 Q762.621 1478.89 767.205 1474.26 Q771.811 1469.61 772.992 1468.27 Q775.237 1465.74 776.117 1464.01 Q777.02 1462.25 777.02 1460.56 Q777.02 1457.8 775.075 1456.07 Q773.154 1454.33 770.052 1454.33 Q767.853 1454.33 765.399 1455.09 Q762.969 1455.86 760.191 1457.41 L760.191 1452.69 Q763.015 1451.55 765.469 1450.97 Q767.922 1450.39 769.959 1450.39 Q775.33 1450.39 778.524 1453.08 Q781.719 1455.77 781.719 1460.26 Q781.719 1462.39 780.908 1464.31 Q780.121 1466.2 778.015 1468.8 Q777.436 1469.47 774.334 1472.69 Q771.232 1475.88 765.584 1481.64 Z" fill="#000000" fill-rule="nonzero" fill-opacity="1" /><path clip-path="url(#clip910)" d="M791.765 1451.02 L810.121 1451.02 L810.121 1454.96 L796.047 1454.96 L796.047 1463.43 Q797.066 1463.08 798.084 1462.92 Q799.103 1462.73 800.121 1462.73 Q805.908 1462.73 809.288 1465.9 Q812.667 1469.08 812.667 1474.49 Q812.667 1480.07 809.195 1483.17 Q805.723 1486.25 799.404 1486.25 Q797.228 1486.25 794.959 1485.88 Q792.714 1485.51 790.306 1484.77 L790.306 1480.07 Q792.39 1481.2 794.612 1481.76 Q796.834 1482.32 799.311 1482.32 Q803.316 1482.32 805.654 1480.21 Q807.992 1478.1 807.992 1474.49 Q807.992 1470.88 805.654 1468.77 Q803.316 1466.67 799.311 1466.67 Q797.436 1466.67 795.561 1467.08 Q793.709 1467.5 791.765 1468.38 L791.765 1451.02 Z" fill="#000000" fill-rule="nonzero" fill-opacity="1" /><path clip-path="url(#clip910)" d="M831.88 1454.1 Q828.269 1454.1 826.441 1457.66 Q824.635 1461.2 824.635 1468.33 Q824.635 1475.44 826.441 1479.01 Q828.269 1482.55 831.88 1482.55 Q835.515 1482.55 837.32 1479.01 Q839.149 1475.44 839.149 1468.33 Q839.149 1461.2 837.32 1457.66 Q835.515 1454.1 831.88 1454.1 M831.88 1450.39 Q837.69 1450.39 840.746 1455 Q843.825 1459.58 843.825 1468.33 Q843.825 1477.06 840.746 1481.67 Q837.69 1486.25 831.88 1486.25 Q826.07 1486.25 822.991 1481.67 Q819.936 1477.06 819.936 1468.33 Q819.936 1459.58 822.991 1455 Q826.07 1450.39 831.88 1450.39 Z" fill="#000000" fill-rule="nonzero" fill-opacity="1" /><path clip-path="url(#clip910)" d="M1258.77 1451.02 L1277.13 1451.02 L1277.13 1454.96 L1263.06 1454.96 L1263.06 1463.43 Q1264.07 1463.08 1265.09 1462.92 Q1266.11 1462.73 1267.13 1462.73 Q1272.92 1462.73 1276.3 1465.9 Q1279.68 1469.08 1279.68 1474.49 Q1279.68 1480.07 1276.2 1483.17 Q1272.73 1486.25 1266.41 1486.25 Q1264.24 1486.25 1261.97 1485.88 Q1259.72 1485.51 1257.32 1484.77 L1257.32 1480.07 Q1259.4 1481.2 1261.62 1481.76 Q1263.84 1482.32 1266.32 1482.32 Q1270.32 1482.32 1272.66 1480.21 Q1275 1478.1 1275 1474.49 Q1275 1470.88 1272.66 1468.77 Q1270.32 1466.67 1266.32 1466.67 Q1264.44 1466.67 1262.57 1467.08 Q1260.72 1467.5 1258.77 1468.38 L1258.77 1451.02 Z" fill="#000000" fill-rule="nonzero" fill-opacity="1" /><path clip-path="url(#clip910)" d="M1298.89 1454.1 Q1295.28 1454.1 1293.45 1457.66 Q1291.64 1461.2 1291.64 1468.33 Q1291.64 1475.44 1293.45 1479.01 Q1295.28 1482.55 1298.89 1482.55 Q1302.52 1482.55 1304.33 1479.01 Q1306.16 1475.44 1306.16 1468.33 Q1306.16 1461.2 1304.33 1457.66 Q1302.52 1454.1 1298.89 1454.1 M1298.89 1450.39 Q1304.7 1450.39 1307.75 1455 Q1310.83 1459.58 1310.83 1468.33 Q1310.83 1477.06 1307.75 1481.67 Q1304.7 1486.25 1298.89 1486.25 Q1293.08 1486.25 1290 1481.67 Q1286.94 1477.06 1286.94 1468.33 Q1286.94 1459.58 1290 1455 Q1293.08 1450.39 1298.89 1450.39 Z" fill="#000000" fill-rule="nonzero" fill-opacity="1" /><path clip-path="url(#clip910)" d="M1329.05 1454.1 Q1325.44 1454.1 1323.61 1457.66 Q1321.81 1461.2 1321.81 1468.33 Q1321.81 1475.44 1323.61 1479.01 Q1325.44 1482.55 1329.05 1482.55 Q1332.68 1482.55 1334.49 1479.01 Q1336.32 1475.44 1336.32 1468.33 Q1336.32 1461.2 1334.49 1457.66 Q1332.68 1454.1 1329.05 1454.1 M1329.05 1450.39 Q1334.86 1450.39 1337.92 1455 Q1341 1459.58 1341 1468.33 Q1341 1477.06 1337.92 1481.67 Q1334.86 1486.25 1329.05 1486.25 Q1323.24 1486.25 1320.16 1481.67 Q1317.11 1477.06 1317.11 1468.33 Q1317.11 1459.58 1320.16 1455 Q1323.24 1450.39 1329.05 1450.39 Z" fill="#000000" fill-rule="nonzero" fill-opacity="1" /><path clip-path="url(#clip910)" d="M1754.69 1451.02 L1776.92 1451.02 L1776.92 1453.01 L1764.37 1485.58 L1759.49 1485.58 L1771.29 1454.96 L1754.69 1454.96 L1754.69 1451.02 Z" fill="#000000" fill-rule="nonzero" fill-opacity="1" /><path clip-path="url(#clip910)" d="M1786.08 1451.02 L1804.44 1451.02 L1804.44 1454.96 L1790.36 1454.96 L1790.36 1463.43 Q1791.38 1463.08 1792.4 1462.92 Q1793.42 1462.73 1794.44 1462.73 Q1800.23 1462.73 1803.61 1465.9 Q1806.99 1469.08 1806.99 1474.49 Q1806.99 1480.07 1803.51 1483.17 Q1800.04 1486.25 1793.72 1486.25 Q1791.55 1486.25 1789.28 1485.88 Q1787.03 1485.51 1784.62 1484.77 L1784.62 1480.07 Q1786.71 1481.2 1788.93 1481.76 Q1791.15 1482.32 1793.63 1482.32 Q1797.63 1482.32 1799.97 1480.21 Q1802.31 1478.1 1802.31 1474.49 Q1802.31 1470.88 1799.97 1468.77 Q1797.63 1466.67 1793.63 1466.67 Q1791.75 1466.67 1789.88 1467.08 Q1788.03 1467.5 1786.08 1468.38 L1786.08 1451.02 Z" fill="#000000" fill-rule="nonzero" fill-opacity="1" /><path clip-path="url(#clip910)" d="M1826.2 1454.1 Q1822.59 1454.1 1820.76 1457.66 Q1818.95 1461.2 1818.95 1468.33 Q1818.95 1475.44 1820.76 1479.01 Q1822.59 1482.55 1826.2 1482.55 Q1829.83 1482.55 1831.64 1479.01 Q1833.47 1475.44 1833.47 1468.33 Q1833.47 1461.2 1831.64 1457.66 Q1829.83 1454.1 1826.2 1454.1 M1826.2 1450.39 Q1832.01 1450.39 1835.06 1455 Q1838.14 1459.58 1838.14 1468.33 Q1838.14 1477.06 1835.06 1481.67 Q1832.01 1486.25 1826.2 1486.25 Q1820.39 1486.25 1817.31 1481.67 Q1814.25 1477.06 1814.25 1468.33 Q1814.25 1459.58 1817.31 1455 Q1820.39 1450.39 1826.2 1450.39 Z" fill="#000000" fill-rule="nonzero" fill-opacity="1" /><path clip-path="url(#clip910)" d="M2238.21 1481.64 L2245.85 1481.64 L2245.85 1455.28 L2237.54 1456.95 L2237.54 1452.69 L2245.8 1451.02 L2250.48 1451.02 L2250.48 1481.64 L2258.11 1481.64 L2258.11 1485.58 L2238.21 1485.58 L2238.21 1481.64 Z" fill="#000000" fill-rule="nonzero" fill-opacity="1" /><path clip-path="url(#clip910)" d="M2277.56 1454.1 Q2273.95 1454.1 2272.12 1457.66 Q2270.31 1461.2 2270.31 1468.33 Q2270.31 1475.44 2272.12 1479.01 Q2273.95 1482.55 2277.56 1482.55 Q2281.19 1482.55 2283 1479.01 Q2284.83 1475.44 2284.83 1468.33 Q2284.83 1461.2 2283 1457.66 Q2281.19 1454.1 2277.56 1454.1 M2277.56 1450.39 Q2283.37 1450.39 2286.42 1455 Q2289.5 1459.58 2289.5 1468.33 Q2289.5 1477.06 2286.42 1481.67 Q2283.37 1486.25 2277.56 1486.25 Q2271.75 1486.25 2268.67 1481.67 Q2265.61 1477.06 2265.61 1468.33 Q2265.61 1459.58 2268.67 1455 Q2271.75 1450.39 2277.56 1450.39 Z" fill="#000000" fill-rule="nonzero" fill-opacity="1" /><path clip-path="url(#clip910)" d="M2307.72 1454.1 Q2304.11 1454.1 2302.28 1457.66 Q2300.48 1461.2 2300.48 1468.33 Q2300.48 1475.44 2302.28 1479.01 Q2304.11 1482.55 2307.72 1482.55 Q2311.35 1482.55 2313.16 1479.01 Q2314.99 1475.44 2314.99 1468.33 Q2314.99 1461.2 2313.16 1457.66 Q2311.35 1454.1 2307.72 1454.1 M2307.72 1450.39 Q2313.53 1450.39 2316.59 1455 Q2319.66 1459.58 2319.66 1468.33 Q2319.66 1477.06 2316.59 1481.67 Q2313.53 1486.25 2307.72 1486.25 Q2301.91 1486.25 2298.83 1481.67 Q2295.78 1477.06 2295.78 1468.33 Q2295.78 1459.58 2298.83 1455 Q2301.91 1450.39 2307.72 1450.39 Z" fill="#000000" fill-rule="nonzero" fill-opacity="1" /><path clip-path="url(#clip910)" d="M2337.88 1454.1 Q2334.27 1454.1 2332.44 1457.66 Q2330.64 1461.2 2330.64 1468.33 Q2330.64 1475.44 2332.44 1479.01 Q2334.27 1482.55 2337.88 1482.55 Q2341.52 1482.55 2343.32 1479.01 Q2345.15 1475.44 2345.15 1468.33 Q2345.15 1461.2 2343.32 1457.66 Q2341.52 1454.1 2337.88 1454.1 M2337.88 1450.39 Q2343.69 1450.39 2346.75 1455 Q2349.83 1459.58 2349.83 1468.33 Q2349.83 1477.06 2346.75 1481.67 Q2343.69 1486.25 2337.88 1486.25 Q2332.07 1486.25 2328.99 1481.67 Q2325.94 1477.06 2325.94 1468.33 Q2325.94 1459.58 2328.99 1455 Q2332.07 1450.39 2337.88 1450.39 Z" fill="#000000" fill-rule="nonzero" fill-opacity="1" /><path clip-path="url(#clip910)" d="M1306.17 1518.52 L1312.03 1518.52 L1312.03 1568.04 L1306.17 1568.04 L1306.17 1518.52 Z" fill="#000000" fill-rule="nonzero" fill-opacity="1" /><polyline clip-path="url(#clip910)" style="stroke:#000000; stroke-linecap:round; stroke-linejoin:round; stroke-width:4; stroke-opacity:1; fill:none" points="265.445,1423.18 265.445,47.2441 "/>
<polyline clip-path="url(#clip910)" style="stroke:#000000; stroke-linecap:round; stroke-linejoin:round; stroke-width:4; stroke-opacity:1; fill:none" points="265.445,1329.88 284.342,1329.88 "/>
<polyline clip-path="url(#clip910)" style="stroke:#000000; stroke-linecap:round; stroke-linejoin:round; stroke-width:4; stroke-opacity:1; fill:none" points="265.445,1056.88 284.342,1056.88 "/>
<polyline clip-path="url(#clip910)" style="stroke:#000000; stroke-linecap:round; stroke-linejoin:round; stroke-width:4; stroke-opacity:1; fill:none" points="265.445,783.89 284.342,783.89 "/>
<polyline clip-path="url(#clip910)" style="stroke:#000000; stroke-linecap:round; stroke-linejoin:round; stroke-width:4; stroke-opacity:1; fill:none" points="265.445,510.898 284.342,510.898 "/>
<polyline clip-path="url(#clip910)" style="stroke:#000000; stroke-linecap:round; stroke-linejoin:round; stroke-width:4; stroke-opacity:1; fill:none" points="265.445,237.905 284.342,237.905 "/>
<path clip-path="url(#clip910)" d="M117.825 1343.22 L125.464 1343.22 L125.464 1316.85 L117.154 1318.52 L117.154 1314.26 L125.418 1312.6 L130.093 1312.6 L130.093 1343.22 L137.732 1343.22 L137.732 1347.16 L117.825 1347.16 L117.825 1343.22 Z" fill="#000000" fill-rule="nonzero" fill-opacity="1" /><path clip-path="url(#clip910)" d="M157.177 1315.67 Q153.566 1315.67 151.737 1319.24 Q149.931 1322.78 149.931 1329.91 Q149.931 1337.02 151.737 1340.58 Q153.566 1344.12 157.177 1344.12 Q160.811 1344.12 162.616 1340.58 Q164.445 1337.02 164.445 1329.91 Q164.445 1322.78 162.616 1319.24 Q160.811 1315.67 157.177 1315.67 M157.177 1311.97 Q162.987 1311.97 166.042 1316.58 Q169.121 1321.16 169.121 1329.91 Q169.121 1338.64 166.042 1343.24 Q162.987 1347.83 157.177 1347.83 Q151.366 1347.83 148.288 1343.24 Q145.232 1338.64 145.232 1329.91 Q145.232 1321.16 148.288 1316.58 Q151.366 1311.97 157.177 1311.97 Z" fill="#000000" fill-rule="nonzero" fill-opacity="1" /><path clip-path="url(#clip910)" d="M187.338 1315.67 Q183.727 1315.67 181.899 1319.24 Q180.093 1322.78 180.093 1329.91 Q180.093 1337.02 181.899 1340.58 Q183.727 1344.12 187.338 1344.12 Q190.973 1344.12 192.778 1340.58 Q194.607 1337.02 194.607 1329.91 Q194.607 1322.78 192.778 1319.24 Q190.973 1315.67 187.338 1315.67 M187.338 1311.97 Q193.149 1311.97 196.204 1316.58 Q199.283 1321.16 199.283 1329.91 Q199.283 1338.64 196.204 1343.24 Q193.149 1347.83 187.338 1347.83 Q181.528 1347.83 178.45 1343.24 Q175.394 1338.64 175.394 1329.91 Q175.394 1321.16 178.45 1316.58 Q181.528 1311.97 187.338 1311.97 Z" fill="#000000" fill-rule="nonzero" fill-opacity="1" /><path clip-path="url(#clip910)" d="M217.5 1315.67 Q213.889 1315.67 212.061 1319.24 Q210.255 1322.78 210.255 1329.91 Q210.255 1337.02 212.061 1340.58 Q213.889 1344.12 217.5 1344.12 Q221.135 1344.12 222.94 1340.58 Q224.769 1337.02 224.769 1329.91 Q224.769 1322.78 222.94 1319.24 Q221.135 1315.67 217.5 1315.67 M217.5 1311.97 Q223.31 1311.97 226.366 1316.58 Q229.445 1321.16 229.445 1329.91 Q229.445 1338.64 226.366 1343.24 Q223.31 1347.83 217.5 1347.83 Q211.69 1347.83 208.612 1343.24 Q205.556 1338.64 205.556 1329.91 Q205.556 1321.16 208.612 1316.58 Q211.69 1311.97 217.5 1311.97 Z" fill="#000000" fill-rule="nonzero" fill-opacity="1" /><path clip-path="url(#clip910)" d="M121.043 1070.23 L137.362 1070.23 L137.362 1074.16 L115.418 1074.16 L115.418 1070.23 Q118.08 1067.47 122.663 1062.84 Q127.269 1058.19 128.45 1056.85 Q130.695 1054.33 131.575 1052.59 Q132.478 1050.83 132.478 1049.14 Q132.478 1046.39 130.533 1044.65 Q128.612 1042.91 125.51 1042.91 Q123.311 1042.91 120.857 1043.68 Q118.427 1044.44 115.649 1045.99 L115.649 1041.27 Q118.473 1040.14 120.927 1039.56 Q123.38 1038.98 125.418 1038.98 Q130.788 1038.98 133.982 1041.66 Q137.177 1044.35 137.177 1048.84 Q137.177 1050.97 136.367 1052.89 Q135.579 1054.79 133.473 1057.38 Q132.894 1058.05 129.792 1061.27 Q126.691 1064.46 121.043 1070.23 Z" fill="#000000" fill-rule="nonzero" fill-opacity="1" /><path clip-path="url(#clip910)" d="M157.177 1042.68 Q153.566 1042.68 151.737 1046.25 Q149.931 1049.79 149.931 1056.92 Q149.931 1064.02 151.737 1067.59 Q153.566 1071.13 157.177 1071.13 Q160.811 1071.13 162.616 1067.59 Q164.445 1064.02 164.445 1056.92 Q164.445 1049.79 162.616 1046.25 Q160.811 1042.68 157.177 1042.68 M157.177 1038.98 Q162.987 1038.98 166.042 1043.58 Q169.121 1048.17 169.121 1056.92 Q169.121 1065.64 166.042 1070.25 Q162.987 1074.83 157.177 1074.83 Q151.366 1074.83 148.288 1070.25 Q145.232 1065.64 145.232 1056.92 Q145.232 1048.17 148.288 1043.58 Q151.366 1038.98 157.177 1038.98 Z" fill="#000000" fill-rule="nonzero" fill-opacity="1" /><path clip-path="url(#clip910)" d="M187.338 1042.68 Q183.727 1042.68 181.899 1046.25 Q180.093 1049.79 180.093 1056.92 Q180.093 1064.02 181.899 1067.59 Q183.727 1071.13 187.338 1071.13 Q190.973 1071.13 192.778 1067.59 Q194.607 1064.02 194.607 1056.92 Q194.607 1049.79 192.778 1046.25 Q190.973 1042.68 187.338 1042.68 M187.338 1038.98 Q193.149 1038.98 196.204 1043.58 Q199.283 1048.17 199.283 1056.92 Q199.283 1065.64 196.204 1070.25 Q193.149 1074.83 187.338 1074.83 Q181.528 1074.83 178.45 1070.25 Q175.394 1065.64 175.394 1056.92 Q175.394 1048.17 178.45 1043.58 Q181.528 1038.98 187.338 1038.98 Z" fill="#000000" fill-rule="nonzero" fill-opacity="1" /><path clip-path="url(#clip910)" d="M217.5 1042.68 Q213.889 1042.68 212.061 1046.25 Q210.255 1049.79 210.255 1056.92 Q210.255 1064.02 212.061 1067.59 Q213.889 1071.13 217.5 1071.13 Q221.135 1071.13 222.94 1067.59 Q224.769 1064.02 224.769 1056.92 Q224.769 1049.79 222.94 1046.25 Q221.135 1042.68 217.5 1042.68 M217.5 1038.98 Q223.31 1038.98 226.366 1043.58 Q229.445 1048.17 229.445 1056.92 Q229.445 1065.64 226.366 1070.25 Q223.31 1074.83 217.5 1074.83 Q211.69 1074.83 208.612 1070.25 Q205.556 1065.64 205.556 1056.92 Q205.556 1048.17 208.612 1043.58 Q211.69 1038.98 217.5 1038.98 Z" fill="#000000" fill-rule="nonzero" fill-opacity="1" /><path clip-path="url(#clip910)" d="M131.181 782.536 Q134.538 783.254 136.413 785.522 Q138.311 787.791 138.311 791.124 Q138.311 796.24 134.792 799.041 Q131.274 801.842 124.793 801.842 Q122.617 801.842 120.302 801.402 Q118.01 800.985 115.556 800.129 L115.556 795.615 Q117.501 796.749 119.816 797.328 Q122.13 797.906 124.654 797.906 Q129.052 797.906 131.343 796.17 Q133.658 794.434 133.658 791.124 Q133.658 788.069 131.505 786.356 Q129.376 784.619 125.556 784.619 L121.529 784.619 L121.529 780.777 L125.742 780.777 Q129.191 780.777 131.019 779.411 Q132.848 778.022 132.848 775.43 Q132.848 772.768 130.95 771.356 Q129.075 769.92 125.556 769.92 Q123.635 769.92 121.436 770.337 Q119.237 770.754 116.598 771.633 L116.598 767.467 Q119.26 766.726 121.575 766.356 Q123.913 765.985 125.973 765.985 Q131.297 765.985 134.399 768.416 Q137.501 770.823 137.501 774.944 Q137.501 777.814 135.857 779.805 Q134.214 781.772 131.181 782.536 Z" fill="#000000" fill-rule="nonzero" fill-opacity="1" /><path clip-path="url(#clip910)" d="M157.177 769.689 Q153.566 769.689 151.737 773.254 Q149.931 776.795 149.931 783.925 Q149.931 791.031 151.737 794.596 Q153.566 798.138 157.177 798.138 Q160.811 798.138 162.616 794.596 Q164.445 791.031 164.445 783.925 Q164.445 776.795 162.616 773.254 Q160.811 769.689 157.177 769.689 M157.177 765.985 Q162.987 765.985 166.042 770.592 Q169.121 775.175 169.121 783.925 Q169.121 792.652 166.042 797.258 Q162.987 801.842 157.177 801.842 Q151.366 801.842 148.288 797.258 Q145.232 792.652 145.232 783.925 Q145.232 775.175 148.288 770.592 Q151.366 765.985 157.177 765.985 Z" fill="#000000" fill-rule="nonzero" fill-opacity="1" /><path clip-path="url(#clip910)" d="M187.338 769.689 Q183.727 769.689 181.899 773.254 Q180.093 776.795 180.093 783.925 Q180.093 791.031 181.899 794.596 Q183.727 798.138 187.338 798.138 Q190.973 798.138 192.778 794.596 Q194.607 791.031 194.607 783.925 Q194.607 776.795 192.778 773.254 Q190.973 769.689 187.338 769.689 M187.338 765.985 Q193.149 765.985 196.204 770.592 Q199.283 775.175 199.283 783.925 Q199.283 792.652 196.204 797.258 Q193.149 801.842 187.338 801.842 Q181.528 801.842 178.45 797.258 Q175.394 792.652 175.394 783.925 Q175.394 775.175 178.45 770.592 Q181.528 765.985 187.338 765.985 Z" fill="#000000" fill-rule="nonzero" fill-opacity="1" /><path clip-path="url(#clip910)" d="M217.5 769.689 Q213.889 769.689 212.061 773.254 Q210.255 776.795 210.255 783.925 Q210.255 791.031 212.061 794.596 Q213.889 798.138 217.5 798.138 Q221.135 798.138 222.94 794.596 Q224.769 791.031 224.769 783.925 Q224.769 776.795 222.94 773.254 Q221.135 769.689 217.5 769.689 M217.5 765.985 Q223.31 765.985 226.366 770.592 Q229.445 775.175 229.445 783.925 Q229.445 792.652 226.366 797.258 Q223.31 801.842 217.5 801.842 Q211.69 801.842 208.612 797.258 Q205.556 792.652 205.556 783.925 Q205.556 775.175 208.612 770.592 Q211.69 765.985 217.5 765.985 Z" fill="#000000" fill-rule="nonzero" fill-opacity="1" /><path clip-path="url(#clip910)" d="M129.862 497.692 L118.056 516.141 L129.862 516.141 L129.862 497.692 M128.635 493.618 L134.515 493.618 L134.515 516.141 L139.445 516.141 L139.445 520.029 L134.515 520.029 L134.515 528.178 L129.862 528.178 L129.862 520.029 L114.26 520.029 L114.26 515.516 L128.635 493.618 Z" fill="#000000" fill-rule="nonzero" fill-opacity="1" /><path clip-path="url(#clip910)" d="M157.177 496.696 Q153.566 496.696 151.737 500.261 Q149.931 503.803 149.931 510.932 Q149.931 518.039 151.737 521.604 Q153.566 525.145 157.177 525.145 Q160.811 525.145 162.616 521.604 Q164.445 518.039 164.445 510.932 Q164.445 503.803 162.616 500.261 Q160.811 496.696 157.177 496.696 M157.177 492.993 Q162.987 492.993 166.042 497.599 Q169.121 502.182 169.121 510.932 Q169.121 519.659 166.042 524.266 Q162.987 528.849 157.177 528.849 Q151.366 528.849 148.288 524.266 Q145.232 519.659 145.232 510.932 Q145.232 502.182 148.288 497.599 Q151.366 492.993 157.177 492.993 Z" fill="#000000" fill-rule="nonzero" fill-opacity="1" /><path clip-path="url(#clip910)" d="M187.338 496.696 Q183.727 496.696 181.899 500.261 Q180.093 503.803 180.093 510.932 Q180.093 518.039 181.899 521.604 Q183.727 525.145 187.338 525.145 Q190.973 525.145 192.778 521.604 Q194.607 518.039 194.607 510.932 Q194.607 503.803 192.778 500.261 Q190.973 496.696 187.338 496.696 M187.338 492.993 Q193.149 492.993 196.204 497.599 Q199.283 502.182 199.283 510.932 Q199.283 519.659 196.204 524.266 Q193.149 528.849 187.338 528.849 Q181.528 528.849 178.45 524.266 Q175.394 519.659 175.394 510.932 Q175.394 502.182 178.45 497.599 Q181.528 492.993 187.338 492.993 Z" fill="#000000" fill-rule="nonzero" fill-opacity="1" /><path clip-path="url(#clip910)" d="M217.5 496.696 Q213.889 496.696 212.061 500.261 Q210.255 503.803 210.255 510.932 Q210.255 518.039 212.061 521.604 Q213.889 525.145 217.5 525.145 Q221.135 525.145 222.94 521.604 Q224.769 518.039 224.769 510.932 Q224.769 503.803 222.94 500.261 Q221.135 496.696 217.5 496.696 M217.5 492.993 Q223.31 492.993 226.366 497.599 Q229.445 502.182 229.445 510.932 Q229.445 519.659 226.366 524.266 Q223.31 528.849 217.5 528.849 Q211.69 528.849 208.612 524.266 Q205.556 519.659 205.556 510.932 Q205.556 502.182 208.612 497.599 Q211.69 492.993 217.5 492.993 Z" fill="#000000" fill-rule="nonzero" fill-opacity="1" /><path clip-path="url(#clip910)" d="M117.061 220.625 L135.417 220.625 L135.417 224.56 L121.343 224.56 L121.343 233.032 Q122.362 232.685 123.38 232.523 Q124.399 232.338 125.418 232.338 Q131.205 232.338 134.584 235.509 Q137.964 238.68 137.964 244.097 Q137.964 249.676 134.492 252.778 Q131.019 255.856 124.7 255.856 Q122.524 255.856 120.255 255.486 Q118.01 255.115 115.603 254.375 L115.603 249.676 Q117.686 250.81 119.908 251.365 Q122.13 251.921 124.607 251.921 Q128.612 251.921 130.95 249.815 Q133.288 247.708 133.288 244.097 Q133.288 240.486 130.95 238.379 Q128.612 236.273 124.607 236.273 Q122.732 236.273 120.857 236.69 Q119.006 237.106 117.061 237.986 L117.061 220.625 Z" fill="#000000" fill-rule="nonzero" fill-opacity="1" /><path clip-path="url(#clip910)" d="M157.177 223.704 Q153.566 223.704 151.737 227.268 Q149.931 230.81 149.931 237.94 Q149.931 245.046 151.737 248.611 Q153.566 252.153 157.177 252.153 Q160.811 252.153 162.616 248.611 Q164.445 245.046 164.445 237.94 Q164.445 230.81 162.616 227.268 Q160.811 223.704 157.177 223.704 M157.177 220 Q162.987 220 166.042 224.606 Q169.121 229.19 169.121 237.94 Q169.121 246.666 166.042 251.273 Q162.987 255.856 157.177 255.856 Q151.366 255.856 148.288 251.273 Q145.232 246.666 145.232 237.94 Q145.232 229.19 148.288 224.606 Q151.366 220 157.177 220 Z" fill="#000000" fill-rule="nonzero" fill-opacity="1" /><path clip-path="url(#clip910)" d="M187.338 223.704 Q183.727 223.704 181.899 227.268 Q180.093 230.81 180.093 237.94 Q180.093 245.046 181.899 248.611 Q183.727 252.153 187.338 252.153 Q190.973 252.153 192.778 248.611 Q194.607 245.046 194.607 237.94 Q194.607 230.81 192.778 227.268 Q190.973 223.704 187.338 223.704 M187.338 220 Q193.149 220 196.204 224.606 Q199.283 229.19 199.283 237.94 Q199.283 246.666 196.204 251.273 Q193.149 255.856 187.338 255.856 Q181.528 255.856 178.45 251.273 Q175.394 246.666 175.394 237.94 Q175.394 229.19 178.45 224.606 Q181.528 220 187.338 220 Z" fill="#000000" fill-rule="nonzero" fill-opacity="1" /><path clip-path="url(#clip910)" d="M217.5 223.704 Q213.889 223.704 212.061 227.268 Q210.255 230.81 210.255 237.94 Q210.255 245.046 212.061 248.611 Q213.889 252.153 217.5 252.153 Q221.135 252.153 222.94 248.611 Q224.769 245.046 224.769 237.94 Q224.769 230.81 222.94 227.268 Q221.135 223.704 217.5 223.704 M217.5 220 Q223.31 220 226.366 224.606 Q229.445 229.19 229.445 237.94 Q229.445 246.666 226.366 251.273 Q223.31 255.856 217.5 255.856 Q211.69 255.856 208.612 251.273 Q205.556 246.666 205.556 237.94 Q205.556 229.19 208.612 224.606 Q211.69 220 217.5 220 Z" fill="#000000" fill-rule="nonzero" fill-opacity="1" /><path clip-path="url(#clip910)" d="M14.479 1067.82 L14.479 1061.96 L64.0042 1061.96 L64.0042 1067.82 L14.479 1067.82 Z" fill="#000000" fill-rule="nonzero" fill-opacity="1" /><path clip-path="url(#clip910)" d="M14.5426 1014.92 Q21.8632 1019.19 29.0246 1021.25 Q36.186 1023.32 43.5384 1023.32 Q50.8908 1023.32 58.1159 1021.25 Q65.3091 1019.15 72.5979 1014.92 L72.5979 1020.01 Q65.1182 1024.79 57.8931 1027.18 Q50.668 1029.53 43.5384 1029.53 Q36.4406 1029.53 29.2474 1027.18 Q22.0542 1024.82 14.5426 1020.01 L14.5426 1014.92 Z" fill="#000000" fill-rule="nonzero" fill-opacity="1" /><path clip-path="url(#clip910)" d="M14.479 1003.56 L14.479 997.702 L64.0042 997.702 L64.0042 1003.56 L14.479 1003.56 Z" fill="#000000" fill-rule="nonzero" fill-opacity="1" /><path clip-path="url(#clip910)" d="M23.1363 961.608 L40.8648 961.608 L40.8648 943.88 L46.2757 943.88 L46.2757 961.608 L64.0042 961.608 L64.0042 966.956 L46.2757 966.956 L46.2757 984.684 L40.8648 984.684 L40.8648 966.956 L23.1363 966.956 L23.1363 961.608 Z" fill="#000000" fill-rule="nonzero" fill-opacity="1" /><path clip-path="url(#clip910)" d="M58.5933 928.889 L58.5933 918.385 L22.3406 918.385 L24.6323 929.812 L18.7758 929.812 L16.4842 918.449 L16.4842 912.019 L58.5933 912.019 L58.5933 901.516 L64.0042 901.516 L64.0042 928.889 L58.5933 928.889 Z" fill="#000000" fill-rule="nonzero" fill-opacity="1" /><path clip-path="url(#clip910)" d="M14.5426 890.281 L14.5426 885.188 Q22.0542 880.414 29.2474 878.058 Q36.4406 875.671 43.5384 875.671 Q50.668 875.671 57.8931 878.058 Q65.1182 880.414 72.5979 885.188 L72.5979 890.281 Q65.3091 886.047 58.1159 883.979 Q50.8908 881.878 43.5384 881.878 Q36.186 881.878 29.0246 883.979 Q21.8632 886.047 14.5426 890.281 Z" fill="#000000" fill-rule="nonzero" fill-opacity="1" /><path clip-path="url(#clip910)" d="M20.1444 807.367 L26.9239 807.367 Q23.9002 810.614 22.4043 814.306 Q20.9083 817.966 20.9083 822.104 Q20.9083 830.252 25.9054 834.581 Q30.8707 838.909 40.2919 838.909 Q49.6813 838.909 54.6784 834.581 Q59.6436 830.252 59.6436 822.104 Q59.6436 817.966 58.1477 814.306 Q56.6518 810.614 53.6281 807.367 L60.3439 807.367 Q62.6355 810.741 63.7814 814.529 Q64.9272 818.284 64.9272 822.486 Q64.9272 833.276 58.3387 839.482 Q51.7183 845.689 40.2919 845.689 Q28.8336 845.689 22.2451 839.482 Q15.6248 833.276 15.6248 822.486 Q15.6248 818.221 16.7706 814.465 Q17.8846 810.677 20.1444 807.367 Z" fill="#000000" fill-rule="nonzero" fill-opacity="1" /><path clip-path="url(#clip910)" d="M36.2815 799.951 L36.2815 796.259 L64.0042 796.259 L64.0042 799.951 L36.2815 799.951 Z" fill="#000000" fill-rule="nonzero" fill-opacity="1" /><path clip-path="url(#clip910)" d="M16.4842 755.741 L16.4842 750.331 L70.0516 766.881 L70.0516 772.292 L16.4842 755.741 Z" fill="#000000" fill-rule="nonzero" fill-opacity="1" /><path clip-path="url(#clip910)" d="M58.5933 717.102 L58.5933 694.662 L64.0042 694.662 L64.0042 724.836 L58.5933 724.836 Q54.8057 721.176 48.44 714.874 Q42.0425 708.54 40.1964 706.916 Q36.7271 703.829 34.34 702.62 Q31.921 701.378 29.5975 701.378 Q25.8099 701.378 23.4228 704.052 Q21.0356 706.694 21.0356 710.959 Q21.0356 713.982 22.086 717.356 Q23.1363 720.698 25.2688 724.518 L18.7758 724.518 Q17.2162 720.635 16.4205 717.261 Q15.6248 713.887 15.6248 711.086 Q15.6248 703.702 19.3169 699.309 Q23.009 694.917 29.1837 694.917 Q32.112 694.917 34.7537 696.031 Q37.3637 697.113 40.9285 700.01 Q41.8515 700.805 46.2757 705.07 Q50.668 709.335 58.5933 717.102 Z" fill="#000000" fill-rule="nonzero" fill-opacity="1" /><path clip-path="url(#clip910)" d="M28.3562 685.782 L28.3562 651.63 L34.2127 651.63 L34.2127 656.118 L56.1107 656.118 Q58.4023 656.118 59.4208 655.354 Q60.4075 654.558 60.4075 652.808 Q60.4075 652.33 60.3439 651.63 Q60.2484 650.93 60.2166 650.707 L64.4498 650.707 Q64.8635 651.821 65.0545 652.999 Q65.2455 654.177 65.2455 655.354 Q65.2455 659.174 63.1766 660.638 Q61.0759 662.102 55.4741 662.102 L34.2127 662.102 L34.2127 675.247 L64.0042 675.247 L64.0042 681.231 L34.2127 681.231 L34.2127 685.782 L28.3562 685.782 Z" fill="#000000" fill-rule="nonzero" fill-opacity="1" /><path clip-path="url(#clip910)" d="M14.5426 607.961 Q21.8632 612.227 29.0246 614.295 Q36.186 616.364 43.5384 616.364 Q50.8908 616.364 58.1159 614.295 Q65.3091 612.195 72.5979 607.961 L72.5979 613.054 Q65.1182 617.828 57.8931 620.215 Q50.668 622.571 43.5384 622.571 Q36.4406 622.571 29.2474 620.215 Q22.0542 617.86 14.5426 613.054 L14.5426 607.961 Z" fill="#000000" fill-rule="nonzero" fill-opacity="1" /><path clip-path="url(#clip910)" d="M77.5631 597.203 L28.3562 597.203 L28.3562 591.347 L50.5089 591.347 Q55.124 591.347 57.4793 589.151 Q59.8346 586.955 59.8346 582.658 Q59.8346 577.947 57.161 575.592 Q54.4874 573.205 49.1402 573.205 L28.3562 573.205 L28.3562 567.348 L55.7924 567.348 Q57.7021 567.348 58.6251 566.807 Q59.5163 566.234 59.5163 565.057 Q59.5163 564.77 59.3572 564.261 Q59.1662 563.752 58.7843 562.86 L63.4949 562.86 Q64.227 564.165 64.5771 565.343 Q64.9272 566.489 64.9272 567.603 Q64.9272 569.799 63.6859 571.104 Q62.4446 572.409 59.8983 572.886 Q62.4127 574.478 63.6859 576.801 Q64.9272 579.093 64.9272 582.212 Q64.9272 585.459 63.6859 587.75 Q62.4446 590.01 59.9619 591.347 L77.5631 591.347 L77.5631 597.203 Z" fill="#000000" fill-rule="nonzero" fill-opacity="1" /><path clip-path="url(#clip910)" d="M16.4842 554.871 L16.4842 548.442 L36.568 548.442 L16.4842 527.117 L16.4842 518.842 L38.6368 542.427 L64.0042 517.155 L64.0042 525.621 L41.1194 548.442 L64.0042 548.442 L64.0042 554.871 L16.4842 554.871 Z" fill="#000000" fill-rule="nonzero" fill-opacity="1" /><path clip-path="url(#clip910)" d="M16.4842 488.095 L34.2127 470.812 L34.2127 477.21 L21.6404 491.214 L34.2127 505.219 L34.2127 511.617 L16.4842 494.334 L16.4842 488.095 Z" fill="#000000" fill-rule="nonzero" fill-opacity="1" /><path clip-path="url(#clip910)" d="M58.5933 451.397 L58.5933 428.958 L64.0042 428.958 L64.0042 459.131 L58.5933 459.131 Q54.8057 455.471 48.44 449.169 Q42.0425 442.835 40.1964 441.212 Q36.7271 438.124 34.34 436.915 Q31.921 435.674 29.5975 435.674 Q25.8099 435.674 23.4228 438.347 Q21.0356 440.989 21.0356 445.254 Q21.0356 448.278 22.086 451.652 Q23.1363 454.994 25.2688 458.813 L18.7758 458.813 Q17.2162 454.93 16.4205 451.556 Q15.6248 448.182 15.6248 445.381 Q15.6248 437.997 19.3169 433.605 Q23.009 429.212 29.1837 429.212 Q32.112 429.212 34.7537 430.326 Q37.3637 431.409 40.9285 434.305 Q41.8515 435.101 46.2757 439.366 Q50.668 443.631 58.5933 451.397 Z" fill="#000000" fill-rule="nonzero" fill-opacity="1" /><path clip-path="url(#clip910)" d="M14.5426 417.213 L14.5426 412.121 Q22.0542 407.346 29.2474 404.991 Q36.4406 402.604 43.5384 402.604 Q50.668 402.604 57.8931 404.991 Q65.1182 407.346 72.5979 412.121 L72.5979 417.213 Q65.3091 412.98 58.1159 410.911 Q50.8908 408.81 43.5384 408.81 Q36.186 408.81 29.0246 410.911 Q21.8632 412.98 14.5426 417.213 Z" fill="#000000" fill-rule="nonzero" fill-opacity="1" /><polyline clip-path="url(#clip912)" style="stroke:#009af9; stroke-linecap:round; stroke-linejoin:round; stroke-width:4; stroke-opacity:1; fill:none" points="324.52,1384.24 344.41,1362.58 364.301,1324.04 384.191,1278.62 404.082,1227.9 423.972,1171.97 443.863,1110.4 463.753,1042.86 483.644,969.316 503.534,889.941 523.425,805.453 543.315,717.184 563.206,626.886 583.096,536.487 602.987,448.236 622.877,364.807 642.768,288.542 662.658,221.659 682.549,166.367 702.439,124.651 722.33,97.6041 742.22,86.1857 762.111,91.099 782.002,111.965 801.892,148.066 821.783,198.332 841.673,261.212 861.564,334.5 881.454,415.97 901.345,503.246 921.235,593.56 941.126,684.308 961.016,772.954 980.907,857.193 1000.8,934.825 1020.69,1004.12 1040.58,1063.75 1060.47,1112.71 1080.36,1150.48 1100.25,1176.94 1120.14,1192.49 1140.03,1197.82 1159.92,1193.97 1179.81,1182.28 1199.7,1164.34 1219.59,1141.83 1239.48,1116.42 1259.37,1089.87 1279.26,1063.88 1299.16,1039.85 1319.05,1018.98 1338.94,1002.4 1358.83,990.883 1378.72,984.682 1398.61,984.052 1418.5,988.903 1438.39,998.692 1458.28,1012.74 1478.17,1030.29 1498.06,1050.32 1517.95,1071.64 1537.84,1093.17 1557.73,1113.83 1577.62,1132.52 1597.51,1148.3 1617.4,1160.42 1637.29,1168.32 1657.18,1171.62 1677.07,1170.15 1696.97,1163.99 1716.86,1153.52 1736.75,1139.14 1756.64,1121.51 1776.53,1101.52 1796.42,1080.09 1816.31,1058.14 1836.2,1036.72 1856.09,1016.87 1875.98,999.453 1895.87,985.281 1915.76,975.141 1935.65,969.54 1955.54,968.798 1975.43,973.146 1995.32,982.581 2015.21,996.903 2035.1,1015.7 2054.99,1038.52 2074.89,1064.7 2094.78,1093.46 2114.67,1123.99 2134.56,1155.44 2154.45,1186.98 2174.34,1217.7 2194.23,1246.86 2214.12,1273.79 2234.01,1297.89 2253.9,1318.68 2273.79,1335.88 2293.68,1349.32 "/>
</svg>
