<?xml version="1.0" encoding="utf-8"?>
<svg xmlns="http://www.w3.org/2000/svg" xmlns:xlink="http://www.w3.org/1999/xlink" width="800" height="400" viewBox="0 0 3200 1600">
<defs>
  <clipPath id="clip640">
    <rect x="0" y="0" width="3200" height="1600"/>
  </clipPath>
</defs>
<path clip-path="url(#clip640)" d="M0 1600 L3200 1600 L3200 0 L0 0  Z" fill="#ffffff" fill-rule="evenodd" fill-opacity="1"/>
<defs>
  <clipPath id="clip641">
    <rect x="364" y="47" width="2789" height="1449"/>
  </clipPath>
</defs>
<path clip-path="url(#clip640)" d="M364.733 1495.09 L3152.76 1495.09 L3152.76 47.2441 L364.733 47.2441  Z" fill="#ffffff" fill-rule="evenodd" fill-opacity="1"/>
<polyline clip-path="url(#clip641)" style="stroke:#000000; stroke-linecap:round; stroke-linejoin:round; stroke-width:2; stroke-opacity:0.1; fill:none" points="735.885,1495.09 735.885,47.2441 "/>
<polyline clip-path="url(#clip641)" style="stroke:#000000; stroke-linecap:round; stroke-linejoin:round; stroke-width:2; stroke-opacity:0.1; fill:none" points="1758.74,1495.09 1758.74,47.2441 "/>
<polyline clip-path="url(#clip641)" style="stroke:#000000; stroke-linecap:round; stroke-linejoin:round; stroke-width:2; stroke-opacity:0.1; fill:none" points="2781.6,1495.09 2781.6,47.2441 "/>
<polyline clip-path="url(#clip641)" style="stroke:#000000; stroke-linecap:round; stroke-linejoin:round; stroke-width:2; stroke-opacity:0.1; fill:none" points="364.733,1365.47 3152.76,1365.47 "/>
<polyline clip-path="url(#clip641)" style="stroke:#000000; stroke-linecap:round; stroke-linejoin:round; stroke-width:2; stroke-opacity:0.1; fill:none" points="364.733,1073.98 3152.76,1073.98 "/>
<polyline clip-path="url(#clip641)" style="stroke:#000000; stroke-linecap:round; stroke-linejoin:round; stroke-width:2; stroke-opacity:0.1; fill:none" points="364.733,782.492 3152.76,782.492 "/>
<polyline clip-path="url(#clip641)" style="stroke:#000000; stroke-linecap:round; stroke-linejoin:round; stroke-width:2; stroke-opacity:0.1; fill:none" points="364.733,491.002 3152.76,491.002 "/>
<polyline clip-path="url(#clip641)" style="stroke:#000000; stroke-linecap:round; stroke-linejoin:round; stroke-width:2; stroke-opacity:0.1; fill:none" points="364.733,199.511 3152.76,199.511 "/>
<polyline clip-path="url(#clip640)" style="stroke:#000000; stroke-linecap:round; stroke-linejoin:round; stroke-width:4; stroke-opacity:1; fill:none" points="364.733,1495.09 3152.76,1495.09 "/>
<polyline clip-path="url(#clip640)" style="stroke:#000000; stroke-linecap:round; stroke-linejoin:round; stroke-width:4; stroke-opacity:1; fill:none" points="735.885,1495.09 735.885,1476.19 "/>
<polyline clip-path="url(#clip640)" style="stroke:#000000; stroke-linecap:round; stroke-linejoin:round; stroke-width:4; stroke-opacity:1; fill:none" points="1758.74,1495.09 1758.74,1476.19 "/>
<polyline clip-path="url(#clip640)" style="stroke:#000000; stroke-linecap:round; stroke-linejoin:round; stroke-width:4; stroke-opacity:1; fill:none" points="2781.6,1495.09 2781.6,1476.19 "/>
<path clip-path="url(#clip640)" d="M651.846 1538.73 L651.846 1542.75 Q650.04 1541.83 648.096 1541.36 Q646.151 1540.9 644.068 1540.9 Q640.897 1540.9 639.299 1541.87 Q637.725 1542.85 637.725 1544.79 Q637.725 1546.27 638.86 1547.13 Q639.994 1547.96 643.42 1548.73 L644.878 1549.05 Q649.415 1550.02 651.313 1551.8 Q653.235 1553.56 653.235 1556.74 Q653.235 1560.35 650.364 1562.45 Q647.517 1564.56 642.517 1564.56 Q640.434 1564.56 638.165 1564.14 Q635.92 1563.75 633.42 1562.94 L633.42 1558.54 Q635.781 1559.77 638.073 1560.39 Q640.364 1560.99 642.61 1560.99 Q645.619 1560.99 647.239 1559.98 Q648.86 1558.93 648.86 1557.06 Q648.86 1555.32 647.679 1554.4 Q646.522 1553.47 642.563 1552.61 L641.082 1552.27 Q637.123 1551.43 635.364 1549.72 Q633.605 1547.99 633.605 1544.98 Q633.605 1541.32 636.198 1539.33 Q638.79 1537.34 643.559 1537.34 Q645.92 1537.34 648.003 1537.68 Q650.086 1538.03 651.846 1538.73 Z" fill="#000000" fill-rule="nonzero" fill-opacity="1" /><path clip-path="url(#clip640)" d="M670.804 1566.3 Q668.998 1570.92 667.285 1572.34 Q665.572 1573.75 662.702 1573.75 L659.299 1573.75 L659.299 1570.18 L661.799 1570.18 Q663.559 1570.18 664.531 1569.35 Q665.503 1568.52 666.684 1565.42 L667.447 1563.47 L656.961 1537.96 L661.475 1537.96 L669.577 1558.24 L677.679 1537.96 L682.193 1537.96 L670.804 1566.3 Z" fill="#000000" fill-rule="nonzero" fill-opacity="1" /><path clip-path="url(#clip640)" d="M708.257 1542.94 Q709.855 1540.07 712.077 1538.7 Q714.299 1537.34 717.308 1537.34 Q721.359 1537.34 723.558 1540.18 Q725.757 1543.01 725.757 1548.24 L725.757 1563.89 L721.475 1563.89 L721.475 1548.38 Q721.475 1544.65 720.155 1542.85 Q718.836 1541.04 716.128 1541.04 Q712.818 1541.04 710.896 1543.24 Q708.975 1545.44 708.975 1549.24 L708.975 1563.89 L704.693 1563.89 L704.693 1548.38 Q704.693 1544.63 703.373 1542.85 Q702.054 1541.04 699.299 1541.04 Q696.035 1541.04 694.114 1543.26 Q692.193 1545.46 692.193 1549.24 L692.193 1563.89 L687.91 1563.89 L687.91 1537.96 L692.193 1537.96 L692.193 1541.99 Q693.651 1539.61 695.688 1538.47 Q697.725 1537.34 700.526 1537.34 Q703.35 1537.34 705.318 1538.77 Q707.308 1540.21 708.257 1542.94 Z" fill="#000000" fill-rule="nonzero" fill-opacity="1" /><path clip-path="url(#clip640)" d="M752.864 1550.95 Q752.864 1546.25 750.919 1543.59 Q748.998 1540.9 745.618 1540.9 Q742.239 1540.9 740.294 1543.59 Q738.373 1546.25 738.373 1550.95 Q738.373 1555.65 740.294 1558.33 Q742.239 1560.99 745.618 1560.99 Q748.998 1560.99 750.919 1558.33 Q752.864 1555.65 752.864 1550.95 M738.373 1541.9 Q739.716 1539.58 741.753 1538.47 Q743.813 1537.34 746.66 1537.34 Q751.382 1537.34 754.322 1541.09 Q757.285 1544.84 757.285 1550.95 Q757.285 1557.06 754.322 1560.81 Q751.382 1564.56 746.66 1564.56 Q743.813 1564.56 741.753 1563.45 Q739.716 1562.31 738.373 1560 L738.373 1563.89 L734.091 1563.89 L734.091 1527.87 L738.373 1527.87 L738.373 1541.9 Z" fill="#000000" fill-rule="nonzero" fill-opacity="1" /><path clip-path="url(#clip640)" d="M774.391 1540.95 Q770.965 1540.95 768.975 1543.63 Q766.984 1546.3 766.984 1550.95 Q766.984 1555.6 768.951 1558.29 Q770.942 1560.95 774.391 1560.95 Q777.794 1560.95 779.785 1558.26 Q781.775 1555.58 781.775 1550.95 Q781.775 1546.34 779.785 1543.66 Q777.794 1540.95 774.391 1540.95 M774.391 1537.34 Q779.947 1537.34 783.118 1540.95 Q786.289 1544.56 786.289 1550.95 Q786.289 1557.31 783.118 1560.95 Q779.947 1564.56 774.391 1564.56 Q768.813 1564.56 765.641 1560.95 Q762.493 1557.31 762.493 1550.95 Q762.493 1544.56 765.641 1540.95 Q768.813 1537.34 774.391 1537.34 Z" fill="#000000" fill-rule="nonzero" fill-opacity="1" /><path clip-path="url(#clip640)" d="M793.349 1527.87 L797.609 1527.87 L797.609 1563.89 L793.349 1563.89 L793.349 1527.87 Z" fill="#000000" fill-rule="nonzero" fill-opacity="1" /><path clip-path="url(#clip640)" d="M806.521 1537.96 L810.78 1537.96 L810.78 1563.89 L806.521 1563.89 L806.521 1537.96 M806.521 1527.87 L810.78 1527.87 L810.78 1533.26 L806.521 1533.26 L806.521 1527.87 Z" fill="#000000" fill-rule="nonzero" fill-opacity="1" /><path clip-path="url(#clip640)" d="M838.349 1538.96 L838.349 1542.94 Q836.544 1541.94 834.715 1541.46 Q832.909 1540.95 831.058 1540.95 Q826.914 1540.95 824.622 1543.59 Q822.331 1546.2 822.331 1550.95 Q822.331 1555.69 824.622 1558.33 Q826.914 1560.95 831.058 1560.95 Q832.909 1560.95 834.715 1560.46 Q836.544 1559.95 838.349 1558.96 L838.349 1562.89 Q836.567 1563.73 834.646 1564.14 Q832.747 1564.56 830.595 1564.56 Q824.738 1564.56 821.289 1560.88 Q817.84 1557.2 817.84 1550.95 Q817.84 1544.61 821.312 1540.97 Q824.808 1537.34 830.872 1537.34 Q832.84 1537.34 834.715 1537.75 Q836.59 1538.15 838.349 1538.96 Z" fill="#000000" fill-rule="nonzero" fill-opacity="1" /><path clip-path="url(#clip640)" d="M1669.07 1527.87 L1669.07 1531.41 L1664.99 1531.41 Q1662.7 1531.41 1661.8 1532.34 Q1660.92 1533.26 1660.92 1535.67 L1660.92 1537.96 L1667.93 1537.96 L1667.93 1541.27 L1660.92 1541.27 L1660.92 1563.89 L1656.64 1563.89 L1656.64 1541.27 L1652.56 1541.27 L1652.56 1537.96 L1656.64 1537.96 L1656.64 1536.16 Q1656.64 1531.83 1658.65 1529.86 Q1660.67 1527.87 1665.04 1527.87 L1669.07 1527.87 Z" fill="#000000" fill-rule="nonzero" fill-opacity="1" /><path clip-path="url(#clip640)" d="M1672.63 1537.96 L1676.89 1537.96 L1676.89 1563.89 L1672.63 1563.89 L1672.63 1537.96 M1672.63 1527.87 L1676.89 1527.87 L1676.89 1533.26 L1672.63 1533.26 L1672.63 1527.87 Z" fill="#000000" fill-rule="nonzero" fill-opacity="1" /><path clip-path="url(#clip640)" d="M1707.36 1548.24 L1707.36 1563.89 L1703.1 1563.89 L1703.1 1548.38 Q1703.1 1544.7 1701.66 1542.87 Q1700.23 1541.04 1697.36 1541.04 Q1693.91 1541.04 1691.92 1543.24 Q1689.93 1545.44 1689.93 1549.24 L1689.93 1563.89 L1685.64 1563.89 L1685.64 1537.96 L1689.93 1537.96 L1689.93 1541.99 Q1691.45 1539.65 1693.51 1538.49 Q1695.6 1537.34 1698.3 1537.34 Q1702.77 1537.34 1705.06 1540.11 Q1707.36 1542.87 1707.36 1548.24 Z" fill="#000000" fill-rule="nonzero" fill-opacity="1" /><path clip-path="url(#clip640)" d="M1715.85 1537.96 L1720.11 1537.96 L1720.11 1563.89 L1715.85 1563.89 L1715.85 1537.96 M1715.85 1527.87 L1720.11 1527.87 L1720.11 1533.26 L1715.85 1533.26 L1715.85 1527.87 Z" fill="#000000" fill-rule="nonzero" fill-opacity="1" /><path clip-path="url(#clip640)" d="M1733.24 1530.6 L1733.24 1537.96 L1742.01 1537.96 L1742.01 1541.27 L1733.24 1541.27 L1733.24 1555.35 Q1733.24 1558.52 1734.09 1559.42 Q1734.97 1560.32 1737.63 1560.32 L1742.01 1560.32 L1742.01 1563.89 L1737.63 1563.89 Q1732.7 1563.89 1730.83 1562.06 Q1728.95 1560.21 1728.95 1555.35 L1728.95 1541.27 L1725.83 1541.27 L1725.83 1537.96 L1728.95 1537.96 L1728.95 1530.6 L1733.24 1530.6 Z" fill="#000000" fill-rule="nonzero" fill-opacity="1" /><path clip-path="url(#clip640)" d="M1769.79 1549.86 L1769.79 1551.94 L1750.2 1551.94 Q1750.48 1556.34 1752.84 1558.66 Q1755.23 1560.95 1759.46 1560.95 Q1761.92 1560.95 1764.21 1560.35 Q1766.52 1559.74 1768.79 1558.54 L1768.79 1562.57 Q1766.5 1563.54 1764.09 1564.05 Q1761.68 1564.56 1759.21 1564.56 Q1753 1564.56 1749.37 1560.95 Q1745.76 1557.34 1745.76 1551.18 Q1745.76 1544.81 1749.18 1541.09 Q1752.63 1537.34 1758.47 1537.34 Q1763.7 1537.34 1766.73 1540.72 Q1769.79 1544.07 1769.79 1549.86 M1765.53 1548.61 Q1765.48 1545.11 1763.56 1543.03 Q1761.66 1540.95 1758.51 1540.95 Q1754.95 1540.95 1752.8 1542.96 Q1750.67 1544.98 1750.34 1548.63 L1765.53 1548.61 Z" fill="#000000" fill-rule="nonzero" fill-opacity="1" /><path clip-path="url(#clip640)" d="M1808.91 1541.9 L1808.91 1527.87 L1813.17 1527.87 L1813.17 1563.89 L1808.91 1563.89 L1808.91 1560 Q1807.56 1562.31 1805.5 1563.45 Q1803.47 1564.56 1800.6 1564.56 Q1795.9 1564.56 1792.93 1560.81 Q1789.99 1557.06 1789.99 1550.95 Q1789.99 1544.84 1792.93 1541.09 Q1795.9 1537.34 1800.6 1537.34 Q1803.47 1537.34 1805.5 1538.47 Q1807.56 1539.58 1808.91 1541.9 M1794.39 1550.95 Q1794.39 1555.65 1796.31 1558.33 Q1798.26 1560.99 1801.64 1560.99 Q1805.02 1560.99 1806.96 1558.33 Q1808.91 1555.65 1808.91 1550.95 Q1808.91 1546.25 1806.96 1543.59 Q1805.02 1540.9 1801.64 1540.9 Q1798.26 1540.9 1796.31 1543.59 Q1794.39 1546.25 1794.39 1550.95 Z" fill="#000000" fill-rule="nonzero" fill-opacity="1" /><path clip-path="url(#clip640)" d="M1821.94 1537.96 L1826.2 1537.96 L1826.2 1563.89 L1821.94 1563.89 L1821.94 1537.96 M1821.94 1527.87 L1826.2 1527.87 L1826.2 1533.26 L1821.94 1533.26 L1821.94 1527.87 Z" fill="#000000" fill-rule="nonzero" fill-opacity="1" /><path clip-path="url(#clip640)" d="M1848.23 1527.87 L1848.23 1531.41 L1844.16 1531.41 Q1841.87 1531.41 1840.97 1532.34 Q1840.09 1533.26 1840.09 1535.67 L1840.09 1537.96 L1847.1 1537.96 L1847.1 1541.27 L1840.09 1541.27 L1840.09 1563.89 L1835.8 1563.89 L1835.8 1541.27 L1831.73 1541.27 L1831.73 1537.96 L1835.8 1537.96 L1835.8 1536.16 Q1835.8 1531.83 1837.82 1529.86 Q1839.83 1527.87 1844.21 1527.87 L1848.23 1527.87 Z" fill="#000000" fill-rule="nonzero" fill-opacity="1" /><path clip-path="url(#clip640)" d="M1864.92 1527.87 L1864.92 1531.41 L1860.85 1531.41 Q1858.56 1531.41 1857.66 1532.34 Q1856.78 1533.26 1856.78 1535.67 L1856.78 1537.96 L1863.79 1537.96 L1863.79 1541.27 L1856.78 1541.27 L1856.78 1563.89 L1852.49 1563.89 L1852.49 1541.27 L1848.42 1541.27 L1848.42 1537.96 L1852.49 1537.96 L1852.49 1536.16 Q1852.49 1531.83 1854.51 1529.86 Q1856.52 1527.87 1860.9 1527.87 L1864.92 1527.87 Z" fill="#000000" fill-rule="nonzero" fill-opacity="1" /><path clip-path="url(#clip640)" d="M2661.47 1527.87 L2661.47 1531.41 L2657.39 1531.41 Q2655.1 1531.41 2654.2 1532.34 Q2653.32 1533.26 2653.32 1535.67 L2653.32 1537.96 L2660.33 1537.96 L2660.33 1541.27 L2653.32 1541.27 L2653.32 1563.89 L2649.04 1563.89 L2649.04 1541.27 L2644.96 1541.27 L2644.96 1537.96 L2649.04 1537.96 L2649.04 1536.16 Q2649.04 1531.83 2651.05 1529.86 Q2653.06 1527.87 2657.44 1527.87 L2661.47 1527.87 Z" fill="#000000" fill-rule="nonzero" fill-opacity="1" /><path clip-path="url(#clip640)" d="M2675.08 1540.95 Q2671.65 1540.95 2669.66 1543.63 Q2667.67 1546.3 2667.67 1550.95 Q2667.67 1555.6 2669.64 1558.29 Q2671.63 1560.95 2675.08 1560.95 Q2678.48 1560.95 2680.47 1558.26 Q2682.46 1555.58 2682.46 1550.95 Q2682.46 1546.34 2680.47 1543.66 Q2678.48 1540.95 2675.08 1540.95 M2675.08 1537.34 Q2680.63 1537.34 2683.8 1540.95 Q2686.97 1544.56 2686.97 1550.95 Q2686.97 1557.31 2683.8 1560.95 Q2680.63 1564.56 2675.08 1564.56 Q2669.5 1564.56 2666.33 1560.95 Q2663.18 1557.31 2663.18 1550.95 Q2663.18 1544.56 2666.33 1540.95 Q2669.5 1537.34 2675.08 1537.34 Z" fill="#000000" fill-rule="nonzero" fill-opacity="1" /><path clip-path="url(#clip640)" d="M2709.06 1541.94 Q2708.34 1541.53 2707.48 1541.34 Q2706.65 1541.13 2705.63 1541.13 Q2702.02 1541.13 2700.08 1543.49 Q2698.16 1545.83 2698.16 1550.23 L2698.16 1563.89 L2693.87 1563.89 L2693.87 1537.96 L2698.16 1537.96 L2698.16 1541.99 Q2699.5 1539.63 2701.65 1538.49 Q2703.8 1537.34 2706.88 1537.34 Q2707.32 1537.34 2707.85 1537.41 Q2708.39 1537.45 2709.03 1537.57 L2709.06 1541.94 Z" fill="#000000" fill-rule="nonzero" fill-opacity="1" /><path clip-path="url(#clip640)" d="M2711.05 1537.96 L2715.31 1537.96 L2720.63 1558.19 L2725.93 1537.96 L2730.96 1537.96 L2736.28 1558.19 L2741.58 1537.96 L2745.84 1537.96 L2739.06 1563.89 L2734.03 1563.89 L2728.46 1542.64 L2722.85 1563.89 L2717.83 1563.89 L2711.05 1537.96 Z" fill="#000000" fill-rule="nonzero" fill-opacity="1" /><path clip-path="url(#clip640)" d="M2764.08 1550.86 Q2758.92 1550.86 2756.93 1552.04 Q2754.94 1553.22 2754.94 1556.06 Q2754.94 1558.33 2756.42 1559.67 Q2757.92 1560.99 2760.49 1560.99 Q2764.03 1560.99 2766.16 1558.49 Q2768.32 1555.97 2768.32 1551.8 L2768.32 1550.86 L2764.08 1550.86 M2772.58 1549.1 L2772.58 1563.89 L2768.32 1563.89 L2768.32 1559.95 Q2766.86 1562.31 2764.68 1563.45 Q2762.51 1564.56 2759.36 1564.56 Q2755.38 1564.56 2753.02 1562.34 Q2750.68 1560.09 2750.68 1556.34 Q2750.68 1551.97 2753.59 1549.74 Q2756.53 1547.52 2762.34 1547.52 L2768.32 1547.52 L2768.32 1547.11 Q2768.32 1544.17 2766.37 1542.57 Q2764.45 1540.95 2760.96 1540.95 Q2758.73 1540.95 2756.63 1541.48 Q2754.52 1542.01 2752.58 1543.08 L2752.58 1539.14 Q2754.91 1538.24 2757.11 1537.8 Q2759.31 1537.34 2761.4 1537.34 Q2767.02 1537.34 2769.8 1540.25 Q2772.58 1543.17 2772.58 1549.1 Z" fill="#000000" fill-rule="nonzero" fill-opacity="1" /><path clip-path="url(#clip640)" d="M2796.37 1541.94 Q2795.65 1541.53 2794.8 1541.34 Q2793.96 1541.13 2792.95 1541.13 Q2789.34 1541.13 2787.39 1543.49 Q2785.47 1545.83 2785.47 1550.23 L2785.47 1563.89 L2781.19 1563.89 L2781.19 1537.96 L2785.47 1537.96 L2785.47 1541.99 Q2786.81 1539.63 2788.97 1538.49 Q2791.12 1537.34 2794.2 1537.34 Q2794.64 1537.34 2795.17 1537.41 Q2795.7 1537.45 2796.35 1537.57 L2796.37 1541.94 Z" fill="#000000" fill-rule="nonzero" fill-opacity="1" /><path clip-path="url(#clip640)" d="M2817.07 1541.9 L2817.07 1527.87 L2821.33 1527.87 L2821.33 1563.89 L2817.07 1563.89 L2817.07 1560 Q2815.72 1562.31 2813.66 1563.45 Q2811.63 1564.56 2808.76 1564.56 Q2804.06 1564.56 2801.09 1560.81 Q2798.15 1557.06 2798.15 1550.95 Q2798.15 1544.84 2801.09 1541.09 Q2804.06 1537.34 2808.76 1537.34 Q2811.63 1537.34 2813.66 1538.47 Q2815.72 1539.58 2817.07 1541.9 M2802.55 1550.95 Q2802.55 1555.65 2804.47 1558.33 Q2806.42 1560.99 2809.8 1560.99 Q2813.18 1560.99 2815.12 1558.33 Q2817.07 1555.65 2817.07 1550.95 Q2817.07 1546.25 2815.12 1543.59 Q2813.18 1540.9 2809.8 1540.9 Q2806.42 1540.9 2804.47 1543.59 Q2802.55 1546.25 2802.55 1550.95 Z" fill="#000000" fill-rule="nonzero" fill-opacity="1" /><path clip-path="url(#clip640)" d="M2862.23 1541.9 L2862.23 1527.87 L2866.49 1527.87 L2866.49 1563.89 L2862.23 1563.89 L2862.23 1560 Q2860.89 1562.31 2858.83 1563.45 Q2856.79 1564.56 2853.92 1564.56 Q2849.22 1564.56 2846.26 1560.81 Q2843.32 1557.06 2843.32 1550.95 Q2843.32 1544.84 2846.26 1541.09 Q2849.22 1537.34 2853.92 1537.34 Q2856.79 1537.34 2858.83 1538.47 Q2860.89 1539.58 2862.23 1541.9 M2847.71 1550.95 Q2847.71 1555.65 2849.64 1558.33 Q2851.58 1560.99 2854.96 1560.99 Q2858.34 1560.99 2860.28 1558.33 Q2862.23 1555.65 2862.23 1550.95 Q2862.23 1546.25 2860.28 1543.59 Q2858.34 1540.9 2854.96 1540.9 Q2851.58 1540.9 2849.64 1543.59 Q2847.71 1546.25 2847.71 1550.95 Z" fill="#000000" fill-rule="nonzero" fill-opacity="1" /><path clip-path="url(#clip640)" d="M2875.26 1537.96 L2879.52 1537.96 L2879.52 1563.89 L2875.26 1563.89 L2875.26 1537.96 M2875.26 1527.87 L2879.52 1527.87 L2879.52 1533.26 L2875.26 1533.26 L2875.26 1527.87 Z" fill="#000000" fill-rule="nonzero" fill-opacity="1" /><path clip-path="url(#clip640)" d="M2901.56 1527.87 L2901.56 1531.41 L2897.48 1531.41 Q2895.19 1531.41 2894.29 1532.34 Q2893.41 1533.26 2893.41 1535.67 L2893.41 1537.96 L2900.42 1537.96 L2900.42 1541.27 L2893.41 1541.27 L2893.41 1563.89 L2889.13 1563.89 L2889.13 1541.27 L2885.05 1541.27 L2885.05 1537.96 L2889.13 1537.96 L2889.13 1536.16 Q2889.13 1531.83 2891.14 1529.86 Q2893.15 1527.87 2897.53 1527.87 L2901.56 1527.87 Z" fill="#000000" fill-rule="nonzero" fill-opacity="1" /><path clip-path="url(#clip640)" d="M2918.25 1527.87 L2918.25 1531.41 L2914.17 1531.41 Q2911.88 1531.41 2910.98 1532.34 Q2910.1 1533.26 2910.1 1535.67 L2910.1 1537.96 L2917.11 1537.96 L2917.11 1541.27 L2910.1 1541.27 L2910.1 1563.89 L2905.82 1563.89 L2905.82 1541.27 L2901.74 1541.27 L2901.74 1537.96 L2905.82 1537.96 L2905.82 1536.16 Q2905.82 1531.83 2907.83 1529.86 Q2909.84 1527.87 2914.22 1527.87 L2918.25 1527.87 Z" fill="#000000" fill-rule="nonzero" fill-opacity="1" /><polyline clip-path="url(#clip640)" style="stroke:#000000; stroke-linecap:round; stroke-linejoin:round; stroke-width:4; stroke-opacity:1; fill:none" points="364.733,1495.09 364.733,47.2441 "/>
<polyline clip-path="url(#clip640)" style="stroke:#000000; stroke-linecap:round; stroke-linejoin:round; stroke-width:4; stroke-opacity:1; fill:none" points="364.733,1365.47 383.63,1365.47 "/>
<polyline clip-path="url(#clip640)" style="stroke:#000000; stroke-linecap:round; stroke-linejoin:round; stroke-width:4; stroke-opacity:1; fill:none" points="364.733,1073.98 383.63,1073.98 "/>
<polyline clip-path="url(#clip640)" style="stroke:#000000; stroke-linecap:round; stroke-linejoin:round; stroke-width:4; stroke-opacity:1; fill:none" points="364.733,782.492 383.63,782.492 "/>
<polyline clip-path="url(#clip640)" style="stroke:#000000; stroke-linecap:round; stroke-linejoin:round; stroke-width:4; stroke-opacity:1; fill:none" points="364.733,491.002 383.63,491.002 "/>
<polyline clip-path="url(#clip640)" style="stroke:#000000; stroke-linecap:round; stroke-linejoin:round; stroke-width:4; stroke-opacity:1; fill:none" points="364.733,199.511 383.63,199.511 "/>
<path clip-path="url(#clip640)" d="M100.137 1354.64 L118.493 1354.64 L118.493 1358.58 L104.419 1358.58 L104.419 1367.05 Q105.437 1366.7 106.456 1366.54 Q107.474 1366.35 108.493 1366.35 Q114.28 1366.35 117.66 1369.53 Q121.039 1372.7 121.039 1378.11 Q121.039 1383.69 117.567 1386.79 Q114.095 1389.87 107.775 1389.87 Q105.599 1389.87 103.331 1389.5 Q101.086 1389.13 98.6782 1388.39 L98.6782 1383.69 Q100.762 1384.83 102.984 1385.38 Q105.206 1385.94 107.683 1385.94 Q111.687 1385.94 114.025 1383.83 Q116.363 1381.72 116.363 1378.11 Q116.363 1374.5 114.025 1372.4 Q111.687 1370.29 107.683 1370.29 Q105.808 1370.29 103.933 1370.71 Q102.081 1371.12 100.137 1372 L100.137 1354.64 Z" fill="#000000" fill-rule="nonzero" fill-opacity="1" /><path clip-path="url(#clip640)" d="M130.252 1383.32 L135.136 1383.32 L135.136 1389.2 L130.252 1389.2 L130.252 1383.32 Z" fill="#000000" fill-rule="nonzero" fill-opacity="1" /><path clip-path="url(#clip640)" d="M155.321 1357.72 Q151.71 1357.72 149.882 1361.28 Q148.076 1364.83 148.076 1371.96 Q148.076 1379.06 149.882 1382.63 Q151.71 1386.17 155.321 1386.17 Q158.956 1386.17 160.761 1382.63 Q162.59 1379.06 162.59 1371.96 Q162.59 1364.83 160.761 1361.28 Q158.956 1357.72 155.321 1357.72 M155.321 1354.02 Q161.132 1354.02 164.187 1358.62 Q167.266 1363.21 167.266 1371.96 Q167.266 1380.68 164.187 1385.29 Q161.132 1389.87 155.321 1389.87 Q149.511 1389.87 146.433 1385.29 Q143.377 1380.68 143.377 1371.96 Q143.377 1363.21 146.433 1358.62 Q149.511 1354.02 155.321 1354.02 Z" fill="#000000" fill-rule="nonzero" fill-opacity="1" /><path clip-path="url(#clip640)" d="M185.483 1357.72 Q181.872 1357.72 180.043 1361.28 Q178.238 1364.83 178.238 1371.96 Q178.238 1379.06 180.043 1382.63 Q181.872 1386.17 185.483 1386.17 Q189.118 1386.17 190.923 1382.63 Q192.752 1379.06 192.752 1371.96 Q192.752 1364.83 190.923 1361.28 Q189.118 1357.72 185.483 1357.72 M185.483 1354.02 Q191.293 1354.02 194.349 1358.62 Q197.428 1363.21 197.428 1371.96 Q197.428 1380.68 194.349 1385.29 Q191.293 1389.87 185.483 1389.87 Q179.673 1389.87 176.594 1385.29 Q173.539 1380.68 173.539 1371.96 Q173.539 1363.21 176.594 1358.62 Q179.673 1354.02 185.483 1354.02 Z" fill="#000000" fill-rule="nonzero" fill-opacity="1" /><path clip-path="url(#clip640)" d="M233.816 1363.74 L223.238 1374.36 L233.816 1384.94 L231.062 1387.74 L220.437 1377.12 L209.812 1387.74 L207.08 1384.94 L217.636 1374.36 L207.08 1363.74 L209.812 1360.94 L220.437 1371.56 L231.062 1360.94 L233.816 1363.74 Z" fill="#000000" fill-rule="nonzero" fill-opacity="1" /><path clip-path="url(#clip640)" d="M246.177 1385.27 L253.816 1385.27 L253.816 1358.9 L245.506 1360.57 L245.506 1356.31 L253.77 1354.64 L258.446 1354.64 L258.446 1385.27 L266.085 1385.27 L266.085 1389.2 L246.177 1389.2 L246.177 1385.27 Z" fill="#000000" fill-rule="nonzero" fill-opacity="1" /><path clip-path="url(#clip640)" d="M285.529 1357.72 Q281.918 1357.72 280.089 1361.28 Q278.284 1364.83 278.284 1371.96 Q278.284 1379.06 280.089 1382.63 Q281.918 1386.17 285.529 1386.17 Q289.163 1386.17 290.969 1382.63 Q292.798 1379.06 292.798 1371.96 Q292.798 1364.83 290.969 1361.28 Q289.163 1357.72 285.529 1357.72 M285.529 1354.02 Q291.339 1354.02 294.395 1358.62 Q297.473 1363.21 297.473 1371.96 Q297.473 1380.68 294.395 1385.29 Q291.339 1389.87 285.529 1389.87 Q279.719 1389.87 276.64 1385.29 Q273.585 1380.68 273.585 1371.96 Q273.585 1363.21 276.64 1358.62 Q279.719 1354.02 285.529 1354.02 Z" fill="#000000" fill-rule="nonzero" fill-opacity="1" /><path clip-path="url(#clip640)" d="M307.103 1348.46 Q304.395 1348.46 302.834 1349.9 Q301.291 1351.35 301.291 1353.89 Q301.291 1356.43 302.834 1357.88 Q304.395 1359.33 307.103 1359.33 Q309.811 1359.33 311.372 1357.88 Q312.933 1356.41 312.933 1353.89 Q312.933 1351.35 311.372 1349.9 Q309.83 1348.46 307.103 1348.46 M303.304 1346.84 Q300.859 1346.24 299.486 1344.56 Q298.132 1342.89 298.132 1340.48 Q298.132 1337.11 300.52 1335.16 Q302.928 1333.2 307.103 1333.2 Q311.297 1333.2 313.686 1335.16 Q316.074 1337.11 316.074 1340.48 Q316.074 1342.89 314.701 1344.56 Q313.347 1346.24 310.921 1346.84 Q313.667 1347.48 315.19 1349.34 Q316.733 1351.2 316.733 1353.89 Q316.733 1357.97 314.231 1360.15 Q311.749 1362.34 307.103 1362.34 Q302.457 1362.34 299.956 1360.15 Q297.473 1357.97 297.473 1353.89 Q297.473 1351.2 299.016 1349.34 Q300.558 1347.48 303.304 1346.84 M301.912 1340.84 Q301.912 1343.02 303.266 1344.24 Q304.639 1345.47 307.103 1345.47 Q309.548 1345.47 310.921 1344.24 Q312.313 1343.02 312.313 1340.84 Q312.313 1338.66 310.921 1337.43 Q309.548 1336.21 307.103 1336.21 Q304.639 1336.21 303.266 1337.43 Q301.912 1338.66 301.912 1340.84 Z" fill="#000000" fill-rule="nonzero" fill-opacity="1" /><path clip-path="url(#clip640)" d="M100.788 1093.78 L108.426 1093.78 L108.426 1067.41 L100.116 1069.08 L100.116 1064.82 L108.38 1063.15 L113.056 1063.15 L113.056 1093.78 L120.695 1093.78 L120.695 1097.71 L100.788 1097.71 L100.788 1093.78 Z" fill="#000000" fill-rule="nonzero" fill-opacity="1" /><path clip-path="url(#clip640)" d="M130.139 1091.83 L135.023 1091.83 L135.023 1097.71 L130.139 1097.71 L130.139 1091.83 Z" fill="#000000" fill-rule="nonzero" fill-opacity="1" /><path clip-path="url(#clip640)" d="M155.209 1066.23 Q151.597 1066.23 149.769 1069.79 Q147.963 1073.34 147.963 1080.47 Q147.963 1087.57 149.769 1091.14 Q151.597 1094.68 155.209 1094.68 Q158.843 1094.68 160.648 1091.14 Q162.477 1087.57 162.477 1080.47 Q162.477 1073.34 160.648 1069.79 Q158.843 1066.23 155.209 1066.23 M155.209 1062.53 Q161.019 1062.53 164.074 1067.13 Q167.153 1071.72 167.153 1080.47 Q167.153 1089.19 164.074 1093.8 Q161.019 1098.38 155.209 1098.38 Q149.398 1098.38 146.32 1093.8 Q143.264 1089.19 143.264 1080.47 Q143.264 1071.72 146.32 1067.13 Q149.398 1062.53 155.209 1062.53 Z" fill="#000000" fill-rule="nonzero" fill-opacity="1" /><path clip-path="url(#clip640)" d="M185.37 1066.23 Q181.759 1066.23 179.931 1069.79 Q178.125 1073.34 178.125 1080.47 Q178.125 1087.57 179.931 1091.14 Q181.759 1094.68 185.37 1094.68 Q189.005 1094.68 190.81 1091.14 Q192.639 1087.57 192.639 1080.47 Q192.639 1073.34 190.81 1069.79 Q189.005 1066.23 185.37 1066.23 M185.37 1062.53 Q191.181 1062.53 194.236 1067.13 Q197.315 1071.72 197.315 1080.47 Q197.315 1089.19 194.236 1093.8 Q191.181 1098.38 185.37 1098.38 Q179.56 1098.38 176.482 1093.8 Q173.426 1089.19 173.426 1080.47 Q173.426 1071.72 176.482 1067.13 Q179.56 1062.53 185.37 1062.53 Z" fill="#000000" fill-rule="nonzero" fill-opacity="1" /><path clip-path="url(#clip640)" d="M233.704 1072.25 L223.125 1082.87 L233.704 1093.45 L230.949 1096.25 L220.324 1085.63 L209.699 1096.25 L206.968 1093.45 L217.523 1082.87 L206.968 1072.25 L209.699 1069.45 L220.324 1080.07 L230.949 1069.45 L233.704 1072.25 Z" fill="#000000" fill-rule="nonzero" fill-opacity="1" /><path clip-path="url(#clip640)" d="M246.065 1093.78 L253.703 1093.78 L253.703 1067.41 L245.393 1069.08 L245.393 1064.82 L253.657 1063.15 L258.333 1063.15 L258.333 1093.78 L265.972 1093.78 L265.972 1097.71 L246.065 1097.71 L246.065 1093.78 Z" fill="#000000" fill-rule="nonzero" fill-opacity="1" /><path clip-path="url(#clip640)" d="M285.416 1066.23 Q281.805 1066.23 279.976 1069.79 Q278.171 1073.34 278.171 1080.47 Q278.171 1087.57 279.976 1091.14 Q281.805 1094.68 285.416 1094.68 Q289.05 1094.68 290.856 1091.14 Q292.685 1087.57 292.685 1080.47 Q292.685 1073.34 290.856 1069.79 Q289.05 1066.23 285.416 1066.23 M285.416 1062.53 Q291.226 1062.53 294.282 1067.13 Q297.361 1071.72 297.361 1080.47 Q297.361 1089.19 294.282 1093.8 Q291.226 1098.38 285.416 1098.38 Q279.606 1098.38 276.527 1093.8 Q273.472 1089.19 273.472 1080.47 Q273.472 1071.72 276.527 1067.13 Q279.606 1062.53 285.416 1062.53 Z" fill="#000000" fill-rule="nonzero" fill-opacity="1" /><path clip-path="url(#clip640)" d="M299.166 1069.72 L299.166 1066.26 Q300.596 1066.93 302.063 1067.29 Q303.53 1067.65 304.94 1067.65 Q308.702 1067.65 310.676 1065.13 Q312.67 1062.59 312.952 1057.44 Q311.861 1059.05 310.187 1059.92 Q308.514 1060.78 306.482 1060.78 Q302.269 1060.78 299.806 1058.24 Q297.361 1055.69 297.361 1051.27 Q297.361 1046.94 299.918 1044.33 Q302.476 1041.71 306.727 1041.71 Q311.598 1041.71 314.156 1045.45 Q316.733 1049.18 316.733 1056.29 Q316.733 1062.93 313.573 1066.9 Q310.432 1070.85 305.109 1070.85 Q303.68 1070.85 302.213 1070.56 Q300.746 1070.28 299.166 1069.72 M306.727 1057.81 Q309.285 1057.81 310.771 1056.06 Q312.275 1054.31 312.275 1051.27 Q312.275 1048.24 310.771 1046.49 Q309.285 1044.72 306.727 1044.72 Q304.169 1044.72 302.664 1046.49 Q301.179 1048.24 301.179 1051.27 Q301.179 1054.31 302.664 1056.06 Q304.169 1057.81 306.727 1057.81 Z" fill="#000000" fill-rule="nonzero" fill-opacity="1" /><path clip-path="url(#clip640)" d="M100.788 802.285 L108.426 802.285 L108.426 775.919 L100.116 777.586 L100.116 773.326 L108.38 771.66 L113.056 771.66 L113.056 802.285 L120.695 802.285 L120.695 806.22 L100.788 806.22 L100.788 802.285 Z" fill="#000000" fill-rule="nonzero" fill-opacity="1" /><path clip-path="url(#clip640)" d="M130.139 800.34 L135.023 800.34 L135.023 806.22 L130.139 806.22 L130.139 800.34 Z" fill="#000000" fill-rule="nonzero" fill-opacity="1" /><path clip-path="url(#clip640)" d="M145.255 771.66 L163.611 771.66 L163.611 775.595 L149.537 775.595 L149.537 784.067 Q150.556 783.72 151.574 783.558 Q152.593 783.373 153.611 783.373 Q159.398 783.373 162.778 786.544 Q166.158 789.715 166.158 795.132 Q166.158 800.711 162.685 803.812 Q159.213 806.891 152.894 806.891 Q150.718 806.891 148.449 806.521 Q146.204 806.15 143.797 805.41 L143.797 800.711 Q145.88 801.845 148.102 802.4 Q150.324 802.956 152.801 802.956 Q156.806 802.956 159.144 800.849 Q161.482 798.743 161.482 795.132 Q161.482 791.521 159.144 789.414 Q156.806 787.308 152.801 787.308 Q150.926 787.308 149.051 787.725 Q147.199 788.141 145.255 789.021 L145.255 771.66 Z" fill="#000000" fill-rule="nonzero" fill-opacity="1" /><path clip-path="url(#clip640)" d="M185.37 774.738 Q181.759 774.738 179.931 778.303 Q178.125 781.845 178.125 788.975 Q178.125 796.081 179.931 799.646 Q181.759 803.187 185.37 803.187 Q189.005 803.187 190.81 799.646 Q192.639 796.081 192.639 788.975 Q192.639 781.845 190.81 778.303 Q189.005 774.738 185.37 774.738 M185.37 771.035 Q191.181 771.035 194.236 775.641 Q197.315 780.225 197.315 788.975 Q197.315 797.701 194.236 802.308 Q191.181 806.891 185.37 806.891 Q179.56 806.891 176.482 802.308 Q173.426 797.701 173.426 788.975 Q173.426 780.225 176.482 775.641 Q179.56 771.035 185.37 771.035 Z" fill="#000000" fill-rule="nonzero" fill-opacity="1" /><path clip-path="url(#clip640)" d="M233.704 780.757 L223.125 791.382 L233.704 801.961 L230.949 804.761 L220.324 794.137 L209.699 804.761 L206.968 801.961 L217.523 791.382 L206.968 780.757 L209.699 777.956 L220.324 788.581 L230.949 777.956 L233.704 780.757 Z" fill="#000000" fill-rule="nonzero" fill-opacity="1" /><path clip-path="url(#clip640)" d="M246.065 802.285 L253.703 802.285 L253.703 775.919 L245.393 777.586 L245.393 773.326 L253.657 771.66 L258.333 771.66 L258.333 802.285 L265.972 802.285 L265.972 806.22 L246.065 806.22 L246.065 802.285 Z" fill="#000000" fill-rule="nonzero" fill-opacity="1" /><path clip-path="url(#clip640)" d="M285.416 774.738 Q281.805 774.738 279.976 778.303 Q278.171 781.845 278.171 788.975 Q278.171 796.081 279.976 799.646 Q281.805 803.187 285.416 803.187 Q289.05 803.187 290.856 799.646 Q292.685 796.081 292.685 788.975 Q292.685 781.845 290.856 778.303 Q289.05 774.738 285.416 774.738 M285.416 771.035 Q291.226 771.035 294.282 775.641 Q297.361 780.225 297.361 788.975 Q297.361 797.701 294.282 802.308 Q291.226 806.891 285.416 806.891 Q279.606 806.891 276.527 802.308 Q273.472 797.701 273.472 788.975 Q273.472 780.225 276.527 775.641 Q279.606 771.035 285.416 771.035 Z" fill="#000000" fill-rule="nonzero" fill-opacity="1" /><path clip-path="url(#clip640)" d="M299.166 778.226 L299.166 774.766 Q300.596 775.443 302.063 775.8 Q303.53 776.157 304.94 776.157 Q308.702 776.157 310.676 773.637 Q312.67 771.098 312.952 765.945 Q311.861 767.562 310.187 768.427 Q308.514 769.293 306.482 769.293 Q302.269 769.293 299.806 766.754 Q297.361 764.196 297.361 759.776 Q297.361 755.45 299.918 752.836 Q302.476 750.222 306.727 750.222 Q311.598 750.222 314.156 753.964 Q316.733 757.688 316.733 764.798 Q316.733 771.437 313.573 775.405 Q310.432 779.355 305.109 779.355 Q303.68 779.355 302.213 779.073 Q300.746 778.791 299.166 778.226 M306.727 766.321 Q309.285 766.321 310.771 764.572 Q312.275 762.823 312.275 759.776 Q312.275 756.748 310.771 754.999 Q309.285 753.231 306.727 753.231 Q304.169 753.231 302.664 754.999 Q301.179 756.748 301.179 759.776 Q301.179 762.823 302.664 764.572 Q304.169 766.321 306.727 766.321 Z" fill="#000000" fill-rule="nonzero" fill-opacity="1" /><path clip-path="url(#clip640)" d="M104.005 510.794 L120.324 510.794 L120.324 514.729 L98.3802 514.729 L98.3802 510.794 Q101.042 508.039 105.625 503.41 Q110.232 498.757 111.412 497.414 Q113.658 494.891 114.537 493.155 Q115.44 491.396 115.44 489.706 Q115.44 486.952 113.496 485.215 Q111.575 483.479 108.473 483.479 Q106.274 483.479 103.82 484.243 Q101.389 485.007 98.6116 486.558 L98.6116 481.836 Q101.436 480.702 103.889 480.123 Q106.343 479.544 108.38 479.544 Q113.75 479.544 116.945 482.229 Q120.139 484.915 120.139 489.405 Q120.139 491.535 119.329 493.456 Q118.542 495.354 116.436 497.947 Q115.857 498.618 112.755 501.836 Q109.653 505.03 104.005 510.794 Z" fill="#000000" fill-rule="nonzero" fill-opacity="1" /><path clip-path="url(#clip640)" d="M130.139 508.85 L135.023 508.85 L135.023 514.729 L130.139 514.729 L130.139 508.85 Z" fill="#000000" fill-rule="nonzero" fill-opacity="1" /><path clip-path="url(#clip640)" d="M155.209 483.248 Q151.597 483.248 149.769 486.813 Q147.963 490.354 147.963 497.484 Q147.963 504.59 149.769 508.155 Q151.597 511.697 155.209 511.697 Q158.843 511.697 160.648 508.155 Q162.477 504.59 162.477 497.484 Q162.477 490.354 160.648 486.813 Q158.843 483.248 155.209 483.248 M155.209 479.544 Q161.019 479.544 164.074 484.151 Q167.153 488.734 167.153 497.484 Q167.153 506.211 164.074 510.817 Q161.019 515.4 155.209 515.4 Q149.398 515.4 146.32 510.817 Q143.264 506.211 143.264 497.484 Q143.264 488.734 146.32 484.151 Q149.398 479.544 155.209 479.544 Z" fill="#000000" fill-rule="nonzero" fill-opacity="1" /><path clip-path="url(#clip640)" d="M185.37 483.248 Q181.759 483.248 179.931 486.813 Q178.125 490.354 178.125 497.484 Q178.125 504.59 179.931 508.155 Q181.759 511.697 185.37 511.697 Q189.005 511.697 190.81 508.155 Q192.639 504.59 192.639 497.484 Q192.639 490.354 190.81 486.813 Q189.005 483.248 185.37 483.248 M185.37 479.544 Q191.181 479.544 194.236 484.151 Q197.315 488.734 197.315 497.484 Q197.315 506.211 194.236 510.817 Q191.181 515.4 185.37 515.4 Q179.56 515.4 176.482 510.817 Q173.426 506.211 173.426 497.484 Q173.426 488.734 176.482 484.151 Q179.56 479.544 185.37 479.544 Z" fill="#000000" fill-rule="nonzero" fill-opacity="1" /><path clip-path="url(#clip640)" d="M233.704 489.266 L223.125 499.891 L233.704 510.47 L230.949 513.271 L220.324 502.646 L209.699 513.271 L206.968 510.47 L217.523 499.891 L206.968 489.266 L209.699 486.465 L220.324 497.09 L230.949 486.465 L233.704 489.266 Z" fill="#000000" fill-rule="nonzero" fill-opacity="1" /><path clip-path="url(#clip640)" d="M246.065 510.794 L253.703 510.794 L253.703 484.428 L245.393 486.095 L245.393 481.836 L253.657 480.169 L258.333 480.169 L258.333 510.794 L265.972 510.794 L265.972 514.729 L246.065 514.729 L246.065 510.794 Z" fill="#000000" fill-rule="nonzero" fill-opacity="1" /><path clip-path="url(#clip640)" d="M285.416 483.248 Q281.805 483.248 279.976 486.813 Q278.171 490.354 278.171 497.484 Q278.171 504.59 279.976 508.155 Q281.805 511.697 285.416 511.697 Q289.05 511.697 290.856 508.155 Q292.685 504.59 292.685 497.484 Q292.685 490.354 290.856 486.813 Q289.05 483.248 285.416 483.248 M285.416 479.544 Q291.226 479.544 294.282 484.151 Q297.361 488.734 297.361 497.484 Q297.361 506.211 294.282 510.817 Q291.226 515.4 285.416 515.4 Q279.606 515.4 276.527 510.817 Q273.472 506.211 273.472 497.484 Q273.472 488.734 276.527 484.151 Q279.606 479.544 285.416 479.544 Z" fill="#000000" fill-rule="nonzero" fill-opacity="1" /><path clip-path="url(#clip640)" d="M299.166 486.736 L299.166 483.275 Q300.596 483.952 302.063 484.31 Q303.53 484.667 304.94 484.667 Q308.702 484.667 310.676 482.147 Q312.67 479.608 312.952 474.454 Q311.861 476.072 310.187 476.937 Q308.514 477.802 306.482 477.802 Q302.269 477.802 299.806 475.263 Q297.361 472.705 297.361 468.285 Q297.361 463.96 299.918 461.345 Q302.476 458.731 306.727 458.731 Q311.598 458.731 314.156 462.474 Q316.733 466.198 316.733 473.307 Q316.733 479.946 313.573 483.915 Q310.432 487.864 305.109 487.864 Q303.68 487.864 302.213 487.582 Q300.746 487.3 299.166 486.736 M306.727 474.83 Q309.285 474.83 310.771 473.081 Q312.275 471.332 312.275 468.285 Q312.275 465.257 310.771 463.508 Q309.285 461.74 306.727 461.74 Q304.169 461.74 302.664 463.508 Q301.179 465.257 301.179 468.285 Q301.179 471.332 302.664 473.081 Q304.169 474.83 306.727 474.83 Z" fill="#000000" fill-rule="nonzero" fill-opacity="1" /><path clip-path="url(#clip640)" d="M104.005 219.303 L120.324 219.303 L120.324 223.239 L98.3802 223.239 L98.3802 219.303 Q101.042 216.549 105.625 211.919 Q110.232 207.266 111.412 205.924 Q113.658 203.401 114.537 201.665 Q115.44 199.905 115.44 198.216 Q115.44 195.461 113.496 193.725 Q111.575 191.989 108.473 191.989 Q106.274 191.989 103.82 192.753 Q101.389 193.517 98.6116 195.067 L98.6116 190.345 Q101.436 189.211 103.889 188.632 Q106.343 188.054 108.38 188.054 Q113.75 188.054 116.945 190.739 Q120.139 193.424 120.139 197.915 Q120.139 200.044 119.329 201.966 Q118.542 203.864 116.436 206.456 Q115.857 207.128 112.755 210.345 Q109.653 213.54 104.005 219.303 Z" fill="#000000" fill-rule="nonzero" fill-opacity="1" /><path clip-path="url(#clip640)" d="M130.139 217.359 L135.023 217.359 L135.023 223.239 L130.139 223.239 L130.139 217.359 Z" fill="#000000" fill-rule="nonzero" fill-opacity="1" /><path clip-path="url(#clip640)" d="M145.255 188.679 L163.611 188.679 L163.611 192.614 L149.537 192.614 L149.537 201.086 Q150.556 200.739 151.574 200.577 Q152.593 200.391 153.611 200.391 Q159.398 200.391 162.778 203.563 Q166.158 206.734 166.158 212.151 Q166.158 217.729 162.685 220.831 Q159.213 223.91 152.894 223.91 Q150.718 223.91 148.449 223.54 Q146.204 223.169 143.797 222.428 L143.797 217.729 Q145.88 218.864 148.102 219.419 Q150.324 219.975 152.801 219.975 Q156.806 219.975 159.144 217.868 Q161.482 215.762 161.482 212.151 Q161.482 208.54 159.144 206.433 Q156.806 204.327 152.801 204.327 Q150.926 204.327 149.051 204.743 Q147.199 205.16 145.255 206.04 L145.255 188.679 Z" fill="#000000" fill-rule="nonzero" fill-opacity="1" /><path clip-path="url(#clip640)" d="M185.37 191.757 Q181.759 191.757 179.931 195.322 Q178.125 198.864 178.125 205.993 Q178.125 213.1 179.931 216.665 Q181.759 220.206 185.37 220.206 Q189.005 220.206 190.81 216.665 Q192.639 213.1 192.639 205.993 Q192.639 198.864 190.81 195.322 Q189.005 191.757 185.37 191.757 M185.37 188.054 Q191.181 188.054 194.236 192.66 Q197.315 197.243 197.315 205.993 Q197.315 214.72 194.236 219.327 Q191.181 223.91 185.37 223.91 Q179.56 223.91 176.482 219.327 Q173.426 214.72 173.426 205.993 Q173.426 197.243 176.482 192.66 Q179.56 188.054 185.37 188.054 Z" fill="#000000" fill-rule="nonzero" fill-opacity="1" /><path clip-path="url(#clip640)" d="M233.704 197.776 L223.125 208.401 L233.704 218.979 L230.949 221.78 L220.324 211.155 L209.699 221.78 L206.968 218.979 L217.523 208.401 L206.968 197.776 L209.699 194.975 L220.324 205.6 L230.949 194.975 L233.704 197.776 Z" fill="#000000" fill-rule="nonzero" fill-opacity="1" /><path clip-path="url(#clip640)" d="M246.065 219.303 L253.703 219.303 L253.703 192.938 L245.393 194.604 L245.393 190.345 L253.657 188.679 L258.333 188.679 L258.333 219.303 L265.972 219.303 L265.972 223.239 L246.065 223.239 L246.065 219.303 Z" fill="#000000" fill-rule="nonzero" fill-opacity="1" /><path clip-path="url(#clip640)" d="M285.416 191.757 Q281.805 191.757 279.976 195.322 Q278.171 198.864 278.171 205.993 Q278.171 213.1 279.976 216.665 Q281.805 220.206 285.416 220.206 Q289.05 220.206 290.856 216.665 Q292.685 213.1 292.685 205.993 Q292.685 198.864 290.856 195.322 Q289.05 191.757 285.416 191.757 M285.416 188.054 Q291.226 188.054 294.282 192.66 Q297.361 197.243 297.361 205.993 Q297.361 214.72 294.282 219.327 Q291.226 223.91 285.416 223.91 Q279.606 223.91 276.527 219.327 Q273.472 214.72 273.472 205.993 Q273.472 197.243 276.527 192.66 Q279.606 188.054 285.416 188.054 Z" fill="#000000" fill-rule="nonzero" fill-opacity="1" /><path clip-path="url(#clip640)" d="M299.166 195.245 L299.166 191.785 Q300.596 192.462 302.063 192.819 Q303.53 193.176 304.94 193.176 Q308.702 193.176 310.676 190.656 Q312.67 188.117 312.952 182.964 Q311.861 184.581 310.187 185.446 Q308.514 186.311 306.482 186.311 Q302.269 186.311 299.806 183.772 Q297.361 181.215 297.361 176.795 Q297.361 172.469 299.918 169.855 Q302.476 167.24 306.727 167.24 Q311.598 167.24 314.156 170.983 Q316.733 174.707 316.733 181.816 Q316.733 188.456 313.573 192.424 Q310.432 196.374 305.109 196.374 Q303.68 196.374 302.213 196.091 Q300.746 195.809 299.166 195.245 M306.727 183.34 Q309.285 183.34 310.771 181.591 Q312.275 179.842 312.275 176.795 Q312.275 173.767 310.771 172.018 Q309.285 170.25 306.727 170.25 Q304.169 170.25 302.664 172.018 Q301.179 173.767 301.179 176.795 Q301.179 179.842 302.664 181.591 Q304.169 183.34 306.727 183.34 Z" fill="#000000" fill-rule="nonzero" fill-opacity="1" /><path clip-path="url(#clip640)" d="M-9.64527 840.632 L0.4762 840.632 L0.4762 828.569 L5.02768 828.569 L5.02768 840.632 L24.3794 840.632 Q28.7399 840.632 29.9813 839.454 Q31.2226 838.245 31.2226 834.584 L31.2226 828.569 L36.1242 828.569 L36.1242 834.584 Q36.1242 841.364 33.6097 843.942 Q31.0634 846.52 24.3794 846.52 L5.02768 846.52 L5.02768 850.817 L0.4762 850.817 L0.4762 846.52 L-9.64527 846.52 L-9.64527 840.632 Z" fill="#000000" fill-rule="nonzero" fill-opacity="1" /><path clip-path="url(#clip640)" d="M-11.3958 789.738 L-11.3958 784.327 L42.1716 800.878 L42.1716 806.289 L-11.3958 789.738 Z" fill="#000000" fill-rule="nonzero" fill-opacity="1" /><path clip-path="url(#clip640)" d="M14.6081 727.831 L36.1242 727.831 L36.1242 733.688 L14.799 733.688 Q9.7383 733.688 7.22385 735.661 Q4.7094 737.635 4.7094 741.581 Q4.7094 746.324 7.73311 749.061 Q10.7568 751.798 15.9767 751.798 L36.1242 751.798 L36.1242 757.687 L0.4762 757.687 L0.4762 751.798 L6.01437 751.798 Q2.79968 749.698 1.20826 746.865 Q-0.38317 744 -0.38317 740.276 Q-0.38317 734.133 3.43625 730.982 Q7.22385 727.831 14.6081 727.831 Z" fill="#000000" fill-rule="nonzero" fill-opacity="1" /><path clip-path="url(#clip640)" d="M1.52654 693.425 L7.06471 693.425 Q5.79157 695.907 5.15499 698.581 Q4.51842 701.255 4.51842 704.119 Q4.51842 708.48 5.85522 710.676 Q7.19202 712.84 9.86562 712.84 Q11.9026 712.84 13.0803 711.281 Q14.2261 709.721 15.2765 705.01 L15.7221 703.005 Q17.0589 696.767 19.5097 694.157 Q21.9286 691.515 26.2891 691.515 Q31.2544 691.515 34.1508 695.462 Q37.0472 699.377 37.0472 706.252 Q37.0472 709.116 36.4743 712.235 Q35.9332 715.323 34.8192 718.76 L28.7718 718.76 Q30.4587 715.514 31.318 712.363 Q32.1456 709.212 32.1456 706.124 Q32.1456 701.987 30.7451 699.759 Q29.3129 697.531 26.7347 697.531 Q24.3476 697.531 23.0745 699.154 Q21.8013 700.745 20.6237 706.188 L20.1462 708.225 Q19.0004 713.668 16.6451 716.087 Q14.258 718.506 10.1202 718.506 Q5.09134 718.506 2.35408 714.941 Q-0.38317 711.376 -0.38317 704.819 Q-0.38317 701.573 0.0942579 698.708 Q0.571686 695.844 1.52654 693.425 Z" fill="#000000" fill-rule="nonzero" fill-opacity="1" /><path clip-path="url(#clip641)" d="M942.382 1454.11 L943.577 1453.97 L944.308 1453.83 L944.596 1453.69 L944.468 1453.55 L943.958 1453.41 L943.103 1453.27 L941.948 1453.13 L940.541 1452.99 L938.934 1452.85 L937.183 1452.71 L935.345 1452.57 L933.48 1452.43 L931.648 1452.29 L929.908 1452.15 L928.318 1452.01 L926.935 1451.87 L925.812 1451.73 L924.997 1451.59 L924.536 1451.45 L924.467 1451.31 L924.823 1451.17 L925.63 1451.04 L926.907 1450.9 L928.665 1450.76 L930.908 1450.62 L933.632 1450.48 L936.823 1450.34 L940.463 1450.2 L944.521 1450.06 L948.965 1449.92 L953.75 1449.78 L958.828 1449.64 L964.145 1449.5 L969.641 1449.36 L975.253 1449.22 L980.914 1449.08 L986.553 1448.94 L992.101 1448.8 L997.485 1448.66 L1002.63 1448.52 L1007.48 1448.38 L1011.95 1448.24 L1015.99 1448.1 L1019.54 1447.96 L1022.53 1447.82 L1024.93 1447.68 L1026.68 1447.54 L1027.76 1447.4 L1028.13 1447.26 L1027.77 1447.12 L1026.67 1446.98 L1024.83 1446.84 L1022.24 1446.7 L1018.92 1446.56 L1014.87 1446.42 L456.894 1446.42 L452.853 1446.56 L449.529 1446.7 L446.94 1446.84 L445.095 1446.98 L443.996 1447.12 L443.639 1447.26 L444.009 1447.4 L445.086 1447.54 L446.84 1447.68 L449.236 1447.82 L452.231 1447.96 L455.775 1448.1 L459.814 1448.24 L464.289 1448.38 L469.134 1448.52 L474.284 1448.66 L479.668 1448.8 L485.216 1448.94 L490.855 1449.08 L496.516 1449.22 L502.128 1449.36 L507.624 1449.5 L512.941 1449.64 L518.019 1449.78 L522.804 1449.92 L527.248 1450.06 L531.306 1450.2 L534.946 1450.34 L538.137 1450.48 L540.861 1450.62 L543.104 1450.76 L544.862 1450.9 L546.139 1451.04 L546.946 1451.17 L547.302 1451.31 L547.233 1451.45 L546.772 1451.59 L545.957 1451.73 L544.834 1451.87 L543.451 1452.01 L541.861 1452.15 L540.121 1452.29 L538.289 1452.43 L536.424 1452.57 L534.586 1452.71 L532.835 1452.85 L531.228 1452.99 L529.821 1453.13 L528.666 1453.27 L527.811 1453.41 L527.301 1453.55 L527.173 1453.69 L527.461 1453.83 L528.192 1453.97 L529.387 1454.11 L942.382 1454.11  Z" fill="#009af9" fill-rule="evenodd" fill-opacity="1"/>
<polyline clip-path="url(#clip641)" style="stroke:#000000; stroke-linecap:round; stroke-linejoin:round; stroke-width:4; stroke-opacity:1; fill:none" points="942.382,1454.11 943.577,1453.97 944.308,1453.83 944.596,1453.69 944.468,1453.55 943.958,1453.41 943.103,1453.27 941.948,1453.13 940.541,1452.99 938.934,1452.85 937.183,1452.71 935.345,1452.57 933.48,1452.43 931.648,1452.29 929.908,1452.15 928.318,1452.01 926.935,1451.87 925.812,1451.73 924.997,1451.59 924.536,1451.45 924.467,1451.31 924.823,1451.17 925.63,1451.04 926.907,1450.9 928.665,1450.76 930.908,1450.62 933.632,1450.48 936.823,1450.34 940.463,1450.2 944.521,1450.06 948.965,1449.92 953.75,1449.78 958.828,1449.64 964.145,1449.5 969.641,1449.36 975.253,1449.22 980.914,1449.08 986.553,1448.94 992.101,1448.8 997.485,1448.66 1002.63,1448.52 1007.48,1448.38 1011.95,1448.24 1015.99,1448.1 1019.54,1447.96 1022.53,1447.82 1024.93,1447.68 1026.68,1447.54 1027.76,1447.4 1028.13,1447.26 1027.77,1447.12 1026.67,1446.98 1024.83,1446.84 1022.24,1446.7 1018.92,1446.56 1014.87,1446.42 456.894,1446.42 452.853,1446.56 449.529,1446.7 446.94,1446.84 445.095,1446.98 443.996,1447.12 443.639,1447.26 444.009,1447.4 445.086,1447.54 446.84,1447.68 449.236,1447.82 452.231,1447.96 455.775,1448.1 459.814,1448.24 464.289,1448.38 469.134,1448.52 474.284,1448.66 479.668,1448.8 485.216,1448.94 490.855,1449.08 496.516,1449.22 502.128,1449.36 507.624,1449.5 512.941,1449.64 518.019,1449.78 522.804,1449.92 527.248,1450.06 531.306,1450.2 534.946,1450.34 538.137,1450.48 540.861,1450.62 543.104,1450.76 544.862,1450.9 546.139,1451.04 546.946,1451.17 547.302,1451.31 547.233,1451.45 546.772,1451.59 545.957,1451.73 544.834,1451.87 543.451,1452.01 541.861,1452.15 540.121,1452.29 538.289,1452.43 536.424,1452.57 534.586,1452.71 532.835,1452.85 531.228,1452.99 529.821,1453.13 528.666,1453.27 527.811,1453.41 527.301,1453.55 527.173,1453.69 527.461,1453.83 528.192,1453.97 529.387,1454.11 942.382,1454.11 "/>
<path clip-path="url(#clip641)" d="M1993.53 455.634 L2000.85 454.698 L2007.79 453.763 L2014.31 452.828 L2020.36 451.893 L2025.92 450.958 L2030.97 450.023 L2035.47 449.088 L2039.42 448.153 L2042.8 447.218 L2045.6 446.283 L2047.81 445.347 L2049.44 444.412 L2050.5 443.477 L2050.99 442.542 L2050.93 441.607 L2050.34 440.672 L2049.25 439.737 L2047.68 438.802 L2045.67 437.867 L2043.25 436.932 L2040.46 435.997 L2037.34 435.061 L2033.93 434.126 L2030.27 433.191 L2026.41 432.256 L2022.39 431.321 L2018.24 430.386 L2014.01 429.451 L2009.74 428.516 L2005.45 427.581 L2001.19 426.646 L1996.98 425.71 L1992.85 424.775 L1988.82 423.84 L1984.91 422.905 L1981.14 421.97 L1977.52 421.035 L1974.05 420.1 L1970.75 419.165 L1967.61 418.23 L1964.64 417.295 L1961.83 416.36 L1959.19 415.424 L1956.69 414.489 L1954.35 413.554 L1952.14 412.619 L1950.05 411.684 L1948.08 410.749 L1946.21 409.814 L1944.43 408.879 L1942.72 407.944 L1941.07 407.009 L1939.46 406.073 L1937.88 405.138 L1936.31 404.203 L1934.74 403.268 L1933.14 402.333 L1931.49 401.398 L1929.79 400.463 L1928.01 399.528 L1926.13 398.593 L1924.14 397.658 L1922.02 396.723 L1919.76 395.787 L1917.34 394.852 L1914.74 393.917 L1911.97 392.982 L1909 392.047 L1905.83 391.112 L1611.66 391.112 L1608.49 392.047 L1605.52 392.982 L1602.75 393.917 L1600.15 394.852 L1597.73 395.787 L1595.46 396.723 L1593.35 397.658 L1591.36 398.593 L1589.48 399.528 L1587.7 400.463 L1586 401.398 L1584.35 402.333 L1582.75 403.268 L1581.18 404.203 L1579.61 405.138 L1578.03 406.073 L1576.42 407.009 L1574.77 407.944 L1573.06 408.879 L1571.28 409.814 L1569.41 410.749 L1567.44 411.684 L1565.35 412.619 L1563.14 413.554 L1560.8 414.489 L1558.3 415.424 L1555.66 416.36 L1552.85 417.295 L1549.88 418.23 L1546.74 419.165 L1543.44 420.1 L1539.97 421.035 L1536.35 421.97 L1532.58 422.905 L1528.67 423.84 L1524.64 424.775 L1520.51 425.71 L1516.3 426.646 L1512.04 427.581 L1507.75 428.516 L1503.48 429.451 L1499.25 430.386 L1495.1 431.321 L1491.08 432.256 L1487.21 433.191 L1483.56 434.126 L1480.15 435.061 L1477.03 435.997 L1474.24 436.932 L1471.82 437.867 L1469.81 438.802 L1468.24 439.737 L1467.15 440.672 L1466.56 441.607 L1466.5 442.542 L1466.99 443.477 L1468.04 444.412 L1469.68 445.347 L1471.89 446.283 L1474.69 447.218 L1478.07 448.153 L1482.01 449.088 L1486.52 450.023 L1491.57 450.958 L1497.13 451.893 L1503.18 452.828 L1509.7 453.763 L1516.63 454.698 L1523.96 455.634 L1993.53 455.634  Z" fill="#e26f46" fill-rule="evenodd" fill-opacity="1"/>
<polyline clip-path="url(#clip641)" style="stroke:#000000; stroke-linecap:round; stroke-linejoin:round; stroke-width:4; stroke-opacity:1; fill:none" points="1993.53,455.634 2000.85,454.698 2007.79,453.763 2014.31,452.828 2020.36,451.893 2025.92,450.958 2030.97,450.023 2035.47,449.088 2039.42,448.153 2042.8,447.218 2045.6,446.283 2047.81,445.347 2049.44,444.412 2050.5,443.477 2050.99,442.542 2050.93,441.607 2050.34,440.672 2049.25,439.737 2047.68,438.802 2045.67,437.867 2043.25,436.932 2040.46,435.997 2037.34,435.061 2033.93,434.126 2030.27,433.191 2026.41,432.256 2022.39,431.321 2018.24,430.386 2014.01,429.451 2009.74,428.516 2005.45,427.581 2001.19,426.646 1996.98,425.71 1992.85,424.775 1988.82,423.84 1984.91,422.905 1981.14,421.97 1977.52,421.035 1974.05,420.1 1970.75,419.165 1967.61,418.23 1964.64,417.295 1961.83,416.36 1959.19,415.424 1956.69,414.489 1954.35,413.554 1952.14,412.619 1950.05,411.684 1948.08,410.749 1946.21,409.814 1944.43,408.879 1942.72,407.944 1941.07,407.009 1939.46,406.073 1937.88,405.138 1936.31,404.203 1934.74,403.268 1933.14,402.333 1931.49,401.398 1929.79,400.463 1928.01,399.528 1926.13,398.593 1924.14,397.658 1922.02,396.723 1919.76,395.787 1917.34,394.852 1914.74,393.917 1911.97,392.982 1909,392.047 1905.83,391.112 1611.66,391.112 1608.49,392.047 1605.52,392.982 1602.75,393.917 1600.15,394.852 1597.73,395.787 1595.46,396.723 1593.35,397.658 1591.36,398.593 1589.48,399.528 1587.7,400.463 1586,401.398 1584.35,402.333 1582.75,403.268 1581.18,404.203 1579.61,405.138 1578.03,406.073 1576.42,407.009 1574.77,407.944 1573.06,408.879 1571.28,409.814 1569.41,410.749 1567.44,411.684 1565.35,412.619 1563.14,413.554 1560.8,414.489 1558.3,415.424 1555.66,416.36 1552.85,417.295 1549.88,418.23 1546.74,419.165 1543.44,420.1 1539.97,421.035 1536.35,421.97 1532.58,422.905 1528.67,423.84 1524.64,424.775 1520.51,425.71 1516.3,426.646 1512.04,427.581 1507.75,428.516 1503.48,429.451 1499.25,430.386 1495.1,431.321 1491.08,432.256 1487.21,433.191 1483.56,434.126 1480.15,435.061 1477.03,435.997 1474.24,436.932 1471.82,437.867 1469.81,438.802 1468.24,439.737 1467.15,440.672 1466.56,441.607 1466.5,442.542 1466.99,443.477 1468.04,444.412 1469.68,445.347 1471.89,446.283 1474.69,447.218 1478.07,448.153 1482.01,449.088 1486.52,450.023 1491.57,450.958 1497.13,451.893 1503.18,452.828 1509.7,453.763 1516.63,454.698 1523.96,455.634 1993.53,455.634 "/>
<path clip-path="url(#clip641)" d="M3054.12 143.044 L3067.4 142.69 L3073.85 142.336 L3073.51 141.982 L3067.04 141.629 L3055.59 141.275 L3040.57 140.921 L3023.44 140.568 L3005.43 140.214 L2987.46 139.86 L2970.04 139.507 L2953.3 139.153 L2937.12 138.799 L2921.28 138.446 L2905.57 138.092 L2889.93 137.738 L2874.48 137.384 L2859.46 137.031 L2845.26 136.677 L2832.24 136.323 L2820.73 135.97 L2810.93 135.616 L2802.9 135.262 L2796.58 134.909 L2791.79 134.555 L2788.31 134.201 L2785.87 133.847 L2784.23 133.494 L2783.17 133.14 L2782.5 132.786 L2782.1 132.433 L2781.87 132.079 L2781.74 131.725 L2781.67 131.372 L2781.64 131.018 L2781.62 130.664 L2781.61 130.311 L2781.61 129.957 L2781.61 129.603 L2781.6 129.249 L2781.6 128.896 L2781.6 128.542 L2781.6 128.188 L2781.6 127.835 L2781.6 127.481 L2781.6 127.127 L2781.6 126.774 L2781.6 126.42 L2781.6 126.066 L2781.6 125.712 L2781.6 125.359 L2781.6 125.005 L2781.6 124.651 L2781.6 124.298 L2781.6 123.944 L2781.6 123.59 L2781.6 123.237 L2781.6 122.883 L2781.6 122.529 L2781.6 122.176 L2781.6 121.822 L2781.6 121.468 L2781.6 121.114 L2781.6 120.761 L2781.6 120.407 L2781.6 120.053 L2781.6 119.7 L2781.6 119.346 L2781.6 118.992 L2781.6 118.639 L2781.6 118.285 L2781.6 117.931 L2781.6 117.577 L2781.6 117.224 L2781.6 116.87 L2781.6 116.516 L2781.6 116.163 L2781.6 115.809 L2781.6 115.455 L2781.6 115.102 L2781.6 114.748 L2781.6 114.394 L2781.6 114.041 L2781.6 113.687 L2781.6 113.333 L2781.6 112.979 L2781.6 112.626 L2781.6 112.272 L2781.6 111.918 L2781.6 111.565 L2781.6 111.211 L2781.6 110.857 L2781.6 110.504 L2781.6 110.15 L2781.6 109.796 L2781.6 109.443 L2781.6 109.089 L2781.6 108.735 L2781.6 108.381 L2781.6 108.028 L2781.6 107.674 L2781.6 107.32 L2781.6 106.967 L2781.6 106.613 L2781.6 106.259 L2781.6 105.906 L2781.6 105.552 L2781.6 105.198 L2781.6 104.844 L2781.6 104.491 L2781.6 104.137 L2781.6 103.783 L2781.6 103.43 L2781.6 103.076 L2781.6 102.722 L2781.6 102.369 L2781.6 102.015 L2781.6 101.661 L2781.6 101.308 L2781.6 100.954 L2781.6 100.6 L2781.6 100.246 L2781.6 99.8927 L2781.6 99.539 L2781.6 99.1854 L2781.6 98.8317 L2781.6 98.478 L2781.6 98.1243 L2781.6 97.7706 L2781.6 97.4169 L2781.61 97.0632 L2781.61 96.7095 L2781.61 96.3558 L2781.62 96.0021 L2781.64 95.6484 L2781.67 95.2947 L2781.74 94.941 L2781.86 94.5873 L2782.09 94.2336 L2782.47 93.8799 L2783.12 93.5262 L2784.15 93.1725 L2785.74 92.8188 L2788.1 92.4651 L2791.46 92.1115 L2796.04 91.7578 L2802.04 91.4041 L2809.54 91.0504 L2818.51 90.6967 L2828.7 90.343 L2839.66 89.9893 L2850.75 89.6356 L2861.17 89.2819 L2870.04 88.9282 L2876.57 88.5745 L2880.13 88.2208 L2683.08 88.2208 L2686.64 88.5745 L2693.17 88.9282 L2702.04 89.2819 L2712.46 89.6356 L2723.54 89.9893 L2734.51 90.343 L2744.7 90.6967 L2753.67 91.0504 L2761.17 91.4041 L2767.17 91.7578 L2771.75 92.1115 L2775.11 92.4651 L2777.46 92.8188 L2779.06 93.1725 L2780.09 93.5262 L2780.73 93.8799 L2781.12 94.2336 L2781.35 94.5873 L2781.47 94.941 L2781.54 95.2947 L2781.57 95.6484 L2781.59 96.0021 L2781.6 96.3558 L2781.6 96.7095 L2781.6 97.0632 L2781.6 97.4169 L2781.6 97.7706 L2781.6 98.1243 L2781.6 98.478 L2781.6 98.8317 L2781.6 99.1854 L2781.6 99.539 L2781.6 99.8927 L2781.6 100.246 L2781.6 100.6 L2781.6 100.954 L2781.6 101.308 L2781.6 101.661 L2781.6 102.015 L2781.6 102.369 L2781.6 102.722 L2781.6 103.076 L2781.6 103.43 L2781.6 103.783 L2781.6 104.137 L2781.6 104.491 L2781.6 104.844 L2781.6 105.198 L2781.6 105.552 L2781.6 105.906 L2781.6 106.259 L2781.6 106.613 L2781.6 106.967 L2781.6 107.32 L2781.6 107.674 L2781.6 108.028 L2781.6 108.381 L2781.6 108.735 L2781.6 109.089 L2781.6 109.443 L2781.6 109.796 L2781.6 110.15 L2781.6 110.504 L2781.6 110.857 L2781.6 111.211 L2781.6 111.565 L2781.6 111.918 L2781.6 112.272 L2781.6 112.626 L2781.6 112.979 L2781.6 113.333 L2781.6 113.687 L2781.6 114.041 L2781.6 114.394 L2781.6 114.748 L2781.6 115.102 L2781.6 115.455 L2781.6 115.809 L2781.6 116.163 L2781.6 116.516 L2781.6 116.87 L2781.6 117.224 L2781.6 117.577 L2781.6 117.931 L2781.6 118.285 L2781.6 118.639 L2781.6 118.992 L2781.6 119.346 L2781.6 119.7 L2781.6 120.053 L2781.6 120.407 L2781.6 120.761 L2781.6 121.114 L2781.6 121.468 L2781.6 121.822 L2781.6 122.176 L2781.6 122.529 L2781.6 122.883 L2781.6 123.237 L2781.6 123.59 L2781.6 123.944 L2781.6 124.298 L2781.6 124.651 L2781.6 125.005 L2781.6 125.359 L2781.6 125.712 L2781.6 126.066 L2781.6 126.42 L2781.6 126.774 L2781.6 127.127 L2781.6 127.481 L2781.6 127.835 L2781.6 128.188 L2781.6 128.542 L2781.6 128.896 L2781.6 129.249 L2781.6 129.603 L2781.6 129.957 L2781.6 130.311 L2781.59 130.664 L2781.57 131.018 L2781.53 131.372 L2781.47 131.725 L2781.34 132.079 L2781.11 132.433 L2780.71 132.786 L2780.04 133.14 L2778.98 133.494 L2777.34 133.847 L2774.9 134.201 L2771.41 134.555 L2766.63 134.909 L2760.31 135.262 L2752.28 135.616 L2742.48 135.97 L2730.97 136.323 L2717.95 136.677 L2703.75 137.031 L2688.73 137.384 L2673.27 137.738 L2657.64 138.092 L2641.93 138.446 L2626.09 138.799 L2609.91 139.153 L2593.17 139.507 L2575.74 139.86 L2557.77 140.214 L2539.77 140.568 L2522.63 140.921 L2507.62 141.275 L2496.17 141.629 L2489.7 141.982 L2489.36 142.336 L2495.81 142.69 L2509.09 143.044 L3054.12 143.044  Z" fill="#3da44d" fill-rule="evenodd" fill-opacity="1"/>
<polyline clip-path="url(#clip641)" style="stroke:#000000; stroke-linecap:round; stroke-linejoin:round; stroke-width:4; stroke-opacity:1; fill:none" points="3054.12,143.044 3067.4,142.69 3073.85,142.336 3073.51,141.982 3067.04,141.629 3055.59,141.275 3040.57,140.921 3023.44,140.568 3005.43,140.214 2987.46,139.86 2970.04,139.507 2953.3,139.153 2937.12,138.799 2921.28,138.446 2905.57,138.092 2889.93,137.738 2874.48,137.384 2859.46,137.031 2845.26,136.677 2832.24,136.323 2820.73,135.97 2810.93,135.616 2802.9,135.262 2796.58,134.909 2791.79,134.555 2788.31,134.201 2785.87,133.847 2784.23,133.494 2783.17,133.14 2782.5,132.786 2782.1,132.433 2781.87,132.079 2781.74,131.725 2781.67,131.372 2781.64,131.018 2781.62,130.664 2781.61,130.311 2781.61,129.957 2781.61,129.603 2781.6,129.249 2781.6,128.896 2781.6,128.542 2781.6,128.188 2781.6,127.835 2781.6,127.481 2781.6,127.127 2781.6,126.774 2781.6,126.42 2781.6,126.066 2781.6,125.712 2781.6,125.359 2781.6,125.005 2781.6,124.651 2781.6,124.298 2781.6,123.944 2781.6,123.59 2781.6,123.237 2781.6,122.883 2781.6,122.529 2781.6,122.176 2781.6,121.822 2781.6,121.468 2781.6,121.114 2781.6,120.761 2781.6,120.407 2781.6,120.053 2781.6,119.7 2781.6,119.346 2781.6,118.992 2781.6,118.639 2781.6,118.285 2781.6,117.931 2781.6,117.577 2781.6,117.224 2781.6,116.87 2781.6,116.516 2781.6,116.163 2781.6,115.809 2781.6,115.455 2781.6,115.102 2781.6,114.748 2781.6,114.394 2781.6,114.041 2781.6,113.687 2781.6,113.333 2781.6,112.979 2781.6,112.626 2781.6,112.272 2781.6,111.918 2781.6,111.565 2781.6,111.211 2781.6,110.857 2781.6,110.504 2781.6,110.15 2781.6,109.796 2781.6,109.443 2781.6,109.089 2781.6,108.735 2781.6,108.381 2781.6,108.028 2781.6,107.674 2781.6,107.32 2781.6,106.967 2781.6,106.613 2781.6,106.259 2781.6,105.906 2781.6,105.552 2781.6,105.198 2781.6,104.844 2781.6,104.491 2781.6,104.137 2781.6,103.783 2781.6,103.43 2781.6,103.076 2781.6,102.722 2781.6,102.369 2781.6,102.015 2781.6,101.661 2781.6,101.308 2781.6,100.954 2781.6,100.6 2781.6,100.246 2781.6,99.8927 2781.6,99.539 2781.6,99.1854 2781.6,98.8317 2781.6,98.478 2781.6,98.1243 2781.6,97.7706 2781.6,97.4169 2781.61,97.0632 2781.61,96.7095 2781.61,96.3558 2781.62,96.0021 2781.64,95.6484 2781.67,95.2947 2781.74,94.941 2781.86,94.5873 2782.09,94.2336 2782.47,93.8799 2783.12,93.5262 2784.15,93.1725 2785.74,92.8188 2788.1,92.4651 2791.46,92.1115 2796.04,91.7578 2802.04,91.4041 2809.54,91.0504 2818.51,90.6967 2828.7,90.343 2839.66,89.9893 2850.75,89.6356 2861.17,89.2819 2870.04,88.9282 2876.57,88.5745 2880.13,88.2208 2683.08,88.2208 2686.64,88.5745 2693.17,88.9282 2702.04,89.2819 2712.46,89.6356 2723.54,89.9893 2734.51,90.343 2744.7,90.6967 2753.67,91.0504 2761.17,91.4041 2767.17,91.7578 2771.75,92.1115 2775.11,92.4651 2777.46,92.8188 2779.06,93.1725 2780.09,93.5262 2780.73,93.8799 2781.12,94.2336 2781.35,94.5873 2781.47,94.941 2781.54,95.2947 2781.57,95.6484 2781.59,96.0021 2781.6,96.3558 2781.6,96.7095 2781.6,97.0632 2781.6,97.4169 2781.6,97.7706 2781.6,98.1243 2781.6,98.478 2781.6,98.8317 2781.6,99.1854 2781.6,99.539 2781.6,99.8927 2781.6,100.246 2781.6,100.6 2781.6,100.954 2781.6,101.308 2781.6,101.661 2781.6,102.015 2781.6,102.369 2781.6,102.722 2781.6,103.076 2781.6,103.43 2781.6,103.783 2781.6,104.137 2781.6,104.491 2781.6,104.844 2781.6,105.198 2781.6,105.552 2781.6,105.906 2781.6,106.259 2781.6,106.613 2781.6,106.967 2781.6,107.32 2781.6,107.674 2781.6,108.028 2781.6,108.381 2781.6,108.735 2781.6,109.089 2781.6,109.443 2781.6,109.796 2781.6,110.15 2781.6,110.504 2781.6,110.857 2781.6,111.211 2781.6,111.565 2781.6,111.918 2781.6,112.272 2781.6,112.626 2781.6,112.979 2781.6,113.333 2781.6,113.687 2781.6,114.041 2781.6,114.394 2781.6,114.748 2781.6,115.102 2781.6,115.455 2781.6,115.809 2781.6,116.163 2781.6,116.516 2781.6,116.87 2781.6,117.224 2781.6,117.577 2781.6,117.931 2781.6,118.285 2781.6,118.639 2781.6,118.992 2781.6,119.346 2781.6,119.7 2781.6,120.053 2781.6,120.407 2781.6,120.761 2781.6,121.114 2781.6,121.468 2781.6,121.822 2781.6,122.176 2781.6,122.529 2781.6,122.883 2781.6,123.237 2781.6,123.59 2781.6,123.944 2781.6,124.298 2781.6,124.651 2781.6,125.005 2781.6,125.359 2781.6,125.712 2781.6,126.066 2781.6,126.42 2781.6,126.774 2781.6,127.127 2781.6,127.481 2781.6,127.835 2781.6,128.188 2781.6,128.542 2781.6,128.896 2781.6,129.249 2781.6,129.603 2781.6,129.957 2781.6,130.311 2781.59,130.664 2781.57,131.018 2781.53,131.372 2781.47,131.725 2781.34,132.079 2781.11,132.433 2780.71,132.786 2780.04,133.14 2778.98,133.494 2777.34,133.847 2774.9,134.201 2771.41,134.555 2766.63,134.909 2760.31,135.262 2752.28,135.616 2742.48,135.97 2730.97,136.323 2717.95,136.677 2703.75,137.031 2688.73,137.384 2673.27,137.738 2657.64,138.092 2641.93,138.446 2626.09,138.799 2609.91,139.153 2593.17,139.507 2575.74,139.86 2557.77,140.214 2539.77,140.568 2522.63,140.921 2507.62,141.275 2496.17,141.629 2489.7,141.982 2489.36,142.336 2495.81,142.69 2509.09,143.044 3054.12,143.044 "/>
</svg>
