<?xml version="1.0" encoding="utf-8"?>
<svg xmlns="http://www.w3.org/2000/svg" xmlns:xlink="http://www.w3.org/1999/xlink" width="800" height="400" viewBox="0 0 3200 1600">
<defs>
  <clipPath id="clip460">
    <rect x="0" y="0" width="3200" height="1600"/>
  </clipPath>
</defs>
<path clip-path="url(#clip460)" d="M0 1600 L3200 1600 L3200 0 L0 0  Z" fill="#ffffff" fill-rule="evenodd" fill-opacity="1"/>
<defs>
  <clipPath id="clip461">
    <rect x="364" y="47" width="2789" height="1449"/>
  </clipPath>
</defs>
<path clip-path="url(#clip460)" d="M364.733 1495.09 L3152.76 1495.09 L3152.76 47.2441 L364.733 47.2441  Z" fill="#ffffff" fill-rule="evenodd" fill-opacity="1"/>
<polyline clip-path="url(#clip461)" style="stroke:#000000; stroke-linecap:round; stroke-linejoin:round; stroke-width:2; stroke-opacity:0.1; fill:none" points="735.885,1495.09 735.885,47.2441 "/>
<polyline clip-path="url(#clip461)" style="stroke:#000000; stroke-linecap:round; stroke-linejoin:round; stroke-width:2; stroke-opacity:0.1; fill:none" points="1758.74,1495.09 1758.74,47.2441 "/>
<polyline clip-path="url(#clip461)" style="stroke:#000000; stroke-linecap:round; stroke-linejoin:round; stroke-width:2; stroke-opacity:0.1; fill:none" points="2781.6,1495.09 2781.6,47.2441 "/>
<polyline clip-path="url(#clip461)" style="stroke:#000000; stroke-linecap:round; stroke-linejoin:round; stroke-width:2; stroke-opacity:0.1; fill:none" points="364.733,1366.03 3152.76,1366.03 "/>
<polyline clip-path="url(#clip461)" style="stroke:#000000; stroke-linecap:round; stroke-linejoin:round; stroke-width:2; stroke-opacity:0.1; fill:none" points="364.733,1078.83 3152.76,1078.83 "/>
<polyline clip-path="url(#clip461)" style="stroke:#000000; stroke-linecap:round; stroke-linejoin:round; stroke-width:2; stroke-opacity:0.1; fill:none" points="364.733,791.629 3152.76,791.629 "/>
<polyline clip-path="url(#clip461)" style="stroke:#000000; stroke-linecap:round; stroke-linejoin:round; stroke-width:2; stroke-opacity:0.1; fill:none" points="364.733,504.428 3152.76,504.428 "/>
<polyline clip-path="url(#clip461)" style="stroke:#000000; stroke-linecap:round; stroke-linejoin:round; stroke-width:2; stroke-opacity:0.1; fill:none" points="364.733,217.226 3152.76,217.226 "/>
<polyline clip-path="url(#clip460)" style="stroke:#000000; stroke-linecap:round; stroke-linejoin:round; stroke-width:4; stroke-opacity:1; fill:none" points="364.733,1495.09 3152.76,1495.09 "/>
<polyline clip-path="url(#clip460)" style="stroke:#000000; stroke-linecap:round; stroke-linejoin:round; stroke-width:4; stroke-opacity:1; fill:none" points="735.885,1495.09 735.885,1476.19 "/>
<polyline clip-path="url(#clip460)" style="stroke:#000000; stroke-linecap:round; stroke-linejoin:round; stroke-width:4; stroke-opacity:1; fill:none" points="1758.74,1495.09 1758.74,1476.19 "/>
<polyline clip-path="url(#clip460)" style="stroke:#000000; stroke-linecap:round; stroke-linejoin:round; stroke-width:4; stroke-opacity:1; fill:none" points="2781.6,1495.09 2781.6,1476.19 "/>
<path clip-path="url(#clip460)" d="M651.846 1538.73 L651.846 1542.75 Q650.04 1541.83 648.096 1541.36 Q646.151 1540.9 644.068 1540.9 Q640.897 1540.9 639.299 1541.87 Q637.725 1542.85 637.725 1544.79 Q637.725 1546.27 638.86 1547.13 Q639.994 1547.96 643.42 1548.73 L644.878 1549.05 Q649.415 1550.02 651.313 1551.8 Q653.235 1553.56 653.235 1556.74 Q653.235 1560.35 650.364 1562.45 Q647.517 1564.56 642.517 1564.56 Q640.434 1564.56 638.165 1564.14 Q635.92 1563.75 633.42 1562.94 L633.42 1558.54 Q635.781 1559.77 638.073 1560.39 Q640.364 1560.99 642.61 1560.99 Q645.619 1560.99 647.239 1559.98 Q648.86 1558.93 648.86 1557.06 Q648.86 1555.32 647.679 1554.4 Q646.522 1553.47 642.563 1552.61 L641.082 1552.27 Q637.123 1551.43 635.364 1549.72 Q633.605 1547.99 633.605 1544.98 Q633.605 1541.32 636.198 1539.33 Q638.79 1537.34 643.559 1537.34 Q645.92 1537.34 648.003 1537.68 Q650.086 1538.03 651.846 1538.73 Z" fill="#000000" fill-rule="nonzero" fill-opacity="1" /><path clip-path="url(#clip460)" d="M670.804 1566.3 Q668.998 1570.92 667.285 1572.34 Q665.572 1573.75 662.702 1573.75 L659.299 1573.75 L659.299 1570.18 L661.799 1570.18 Q663.559 1570.18 664.531 1569.35 Q665.503 1568.52 666.684 1565.42 L667.447 1563.47 L656.961 1537.96 L661.475 1537.96 L669.577 1558.24 L677.679 1537.96 L682.193 1537.96 L670.804 1566.3 Z" fill="#000000" fill-rule="nonzero" fill-opacity="1" /><path clip-path="url(#clip460)" d="M708.257 1542.94 Q709.855 1540.07 712.077 1538.7 Q714.299 1537.34 717.308 1537.34 Q721.359 1537.34 723.558 1540.18 Q725.757 1543.01 725.757 1548.24 L725.757 1563.89 L721.475 1563.89 L721.475 1548.38 Q721.475 1544.65 720.155 1542.85 Q718.836 1541.04 716.128 1541.04 Q712.818 1541.04 710.896 1543.24 Q708.975 1545.44 708.975 1549.24 L708.975 1563.89 L704.693 1563.89 L704.693 1548.38 Q704.693 1544.63 703.373 1542.85 Q702.054 1541.04 699.299 1541.04 Q696.035 1541.04 694.114 1543.26 Q692.193 1545.46 692.193 1549.24 L692.193 1563.89 L687.91 1563.89 L687.91 1537.96 L692.193 1537.96 L692.193 1541.99 Q693.651 1539.61 695.688 1538.47 Q697.725 1537.34 700.526 1537.34 Q703.35 1537.34 705.318 1538.77 Q707.308 1540.21 708.257 1542.94 Z" fill="#000000" fill-rule="nonzero" fill-opacity="1" /><path clip-path="url(#clip460)" d="M752.864 1550.95 Q752.864 1546.25 750.919 1543.59 Q748.998 1540.9 745.618 1540.9 Q742.239 1540.9 740.294 1543.59 Q738.373 1546.25 738.373 1550.95 Q738.373 1555.65 740.294 1558.33 Q742.239 1560.99 745.618 1560.99 Q748.998 1560.99 750.919 1558.33 Q752.864 1555.65 752.864 1550.95 M738.373 1541.9 Q739.716 1539.58 741.753 1538.47 Q743.813 1537.34 746.66 1537.34 Q751.382 1537.34 754.322 1541.09 Q757.285 1544.84 757.285 1550.95 Q757.285 1557.06 754.322 1560.81 Q751.382 1564.56 746.66 1564.56 Q743.813 1564.56 741.753 1563.45 Q739.716 1562.31 738.373 1560 L738.373 1563.89 L734.091 1563.89 L734.091 1527.87 L738.373 1527.87 L738.373 1541.9 Z" fill="#000000" fill-rule="nonzero" fill-opacity="1" /><path clip-path="url(#clip460)" d="M774.391 1540.95 Q770.965 1540.95 768.975 1543.63 Q766.984 1546.3 766.984 1550.95 Q766.984 1555.6 768.951 1558.29 Q770.942 1560.95 774.391 1560.95 Q777.794 1560.95 779.785 1558.26 Q781.775 1555.58 781.775 1550.95 Q781.775 1546.34 779.785 1543.66 Q777.794 1540.95 774.391 1540.95 M774.391 1537.34 Q779.947 1537.34 783.118 1540.95 Q786.289 1544.56 786.289 1550.95 Q786.289 1557.31 783.118 1560.95 Q779.947 1564.56 774.391 1564.56 Q768.813 1564.56 765.641 1560.95 Q762.493 1557.31 762.493 1550.95 Q762.493 1544.56 765.641 1540.95 Q768.813 1537.34 774.391 1537.34 Z" fill="#000000" fill-rule="nonzero" fill-opacity="1" /><path clip-path="url(#clip460)" d="M793.349 1527.87 L797.609 1527.87 L797.609 1563.89 L793.349 1563.89 L793.349 1527.87 Z" fill="#000000" fill-rule="nonzero" fill-opacity="1" /><path clip-path="url(#clip460)" d="M806.521 1537.96 L810.78 1537.96 L810.78 1563.89 L806.521 1563.89 L806.521 1537.96 M806.521 1527.87 L810.78 1527.87 L810.78 1533.26 L806.521 1533.26 L806.521 1527.87 Z" fill="#000000" fill-rule="nonzero" fill-opacity="1" /><path clip-path="url(#clip460)" d="M838.349 1538.96 L838.349 1542.94 Q836.544 1541.94 834.715 1541.46 Q832.909 1540.95 831.058 1540.95 Q826.914 1540.95 824.622 1543.59 Q822.331 1546.2 822.331 1550.95 Q822.331 1555.69 824.622 1558.33 Q826.914 1560.95 831.058 1560.95 Q832.909 1560.95 834.715 1560.46 Q836.544 1559.95 838.349 1558.96 L838.349 1562.89 Q836.567 1563.73 834.646 1564.14 Q832.747 1564.56 830.595 1564.56 Q824.738 1564.56 821.289 1560.88 Q817.84 1557.2 817.84 1550.95 Q817.84 1544.61 821.312 1540.97 Q824.808 1537.34 830.872 1537.34 Q832.84 1537.34 834.715 1537.75 Q836.59 1538.15 838.349 1538.96 Z" fill="#000000" fill-rule="nonzero" fill-opacity="1" /><path clip-path="url(#clip460)" d="M1669.07 1527.87 L1669.07 1531.41 L1664.99 1531.41 Q1662.7 1531.41 1661.8 1532.34 Q1660.92 1533.26 1660.92 1535.67 L1660.92 1537.96 L1667.93 1537.96 L1667.93 1541.27 L1660.92 1541.27 L1660.92 1563.89 L1656.64 1563.89 L1656.64 1541.27 L1652.56 1541.27 L1652.56 1537.96 L1656.64 1537.96 L1656.64 1536.16 Q1656.64 1531.83 1658.65 1529.86 Q1660.67 1527.87 1665.04 1527.87 L1669.07 1527.87 Z" fill="#000000" fill-rule="nonzero" fill-opacity="1" /><path clip-path="url(#clip460)" d="M1672.63 1537.96 L1676.89 1537.96 L1676.89 1563.89 L1672.63 1563.89 L1672.63 1537.96 M1672.63 1527.87 L1676.89 1527.87 L1676.89 1533.26 L1672.63 1533.26 L1672.63 1527.87 Z" fill="#000000" fill-rule="nonzero" fill-opacity="1" /><path clip-path="url(#clip460)" d="M1707.36 1548.24 L1707.36 1563.89 L1703.1 1563.89 L1703.1 1548.38 Q1703.1 1544.7 1701.66 1542.87 Q1700.23 1541.04 1697.36 1541.04 Q1693.91 1541.04 1691.92 1543.24 Q1689.93 1545.44 1689.93 1549.24 L1689.93 1563.89 L1685.64 1563.89 L1685.64 1537.96 L1689.93 1537.96 L1689.93 1541.99 Q1691.45 1539.65 1693.51 1538.49 Q1695.6 1537.34 1698.3 1537.34 Q1702.77 1537.34 1705.06 1540.11 Q1707.36 1542.87 1707.36 1548.24 Z" fill="#000000" fill-rule="nonzero" fill-opacity="1" /><path clip-path="url(#clip460)" d="M1715.85 1537.96 L1720.11 1537.96 L1720.11 1563.89 L1715.85 1563.89 L1715.85 1537.96 M1715.85 1527.87 L1720.11 1527.87 L1720.11 1533.26 L1715.85 1533.26 L1715.85 1527.87 Z" fill="#000000" fill-rule="nonzero" fill-opacity="1" /><path clip-path="url(#clip460)" d="M1733.24 1530.6 L1733.24 1537.96 L1742.01 1537.96 L1742.01 1541.27 L1733.24 1541.27 L1733.24 1555.35 Q1733.24 1558.52 1734.09 1559.42 Q1734.97 1560.32 1737.63 1560.32 L1742.01 1560.32 L1742.01 1563.89 L1737.63 1563.89 Q1732.7 1563.89 1730.83 1562.06 Q1728.95 1560.21 1728.95 1555.35 L1728.95 1541.27 L1725.83 1541.27 L1725.83 1537.96 L1728.95 1537.96 L1728.95 1530.6 L1733.24 1530.6 Z" fill="#000000" fill-rule="nonzero" fill-opacity="1" /><path clip-path="url(#clip460)" d="M1769.79 1549.86 L1769.79 1551.94 L1750.2 1551.94 Q1750.48 1556.34 1752.84 1558.66 Q1755.23 1560.95 1759.46 1560.95 Q1761.92 1560.95 1764.21 1560.35 Q1766.52 1559.74 1768.79 1558.54 L1768.79 1562.57 Q1766.5 1563.54 1764.09 1564.05 Q1761.68 1564.56 1759.21 1564.56 Q1753 1564.56 1749.37 1560.95 Q1745.76 1557.34 1745.76 1551.18 Q1745.76 1544.81 1749.18 1541.09 Q1752.63 1537.34 1758.47 1537.34 Q1763.7 1537.34 1766.73 1540.72 Q1769.79 1544.07 1769.79 1549.86 M1765.53 1548.61 Q1765.48 1545.11 1763.56 1543.03 Q1761.66 1540.95 1758.51 1540.95 Q1754.95 1540.95 1752.8 1542.96 Q1750.67 1544.98 1750.34 1548.63 L1765.53 1548.61 Z" fill="#000000" fill-rule="nonzero" fill-opacity="1" /><path clip-path="url(#clip460)" d="M1808.91 1541.9 L1808.91 1527.87 L1813.17 1527.87 L1813.17 1563.89 L1808.91 1563.89 L1808.91 1560 Q1807.56 1562.31 1805.5 1563.45 Q1803.47 1564.56 1800.6 1564.56 Q1795.9 1564.56 1792.93 1560.81 Q1789.99 1557.06 1789.99 1550.95 Q1789.99 1544.84 1792.93 1541.09 Q1795.9 1537.34 1800.6 1537.34 Q1803.47 1537.34 1805.5 1538.47 Q1807.56 1539.58 1808.91 1541.9 M1794.39 1550.95 Q1794.39 1555.65 1796.31 1558.33 Q1798.26 1560.99 1801.64 1560.99 Q1805.02 1560.99 1806.96 1558.33 Q1808.91 1555.65 1808.91 1550.95 Q1808.91 1546.25 1806.96 1543.59 Q1805.02 1540.9 1801.64 1540.9 Q1798.26 1540.9 1796.31 1543.59 Q1794.39 1546.25 1794.39 1550.95 Z" fill="#000000" fill-rule="nonzero" fill-opacity="1" /><path clip-path="url(#clip460)" d="M1821.94 1537.96 L1826.2 1537.96 L1826.2 1563.89 L1821.94 1563.89 L1821.94 1537.96 M1821.94 1527.87 L1826.2 1527.87 L1826.2 1533.26 L1821.94 1533.26 L1821.94 1527.87 Z" fill="#000000" fill-rule="nonzero" fill-opacity="1" /><path clip-path="url(#clip460)" d="M1848.23 1527.87 L1848.23 1531.41 L1844.16 1531.41 Q1841.87 1531.41 1840.97 1532.34 Q1840.09 1533.26 1840.09 1535.67 L1840.09 1537.96 L1847.1 1537.96 L1847.1 1541.27 L1840.09 1541.27 L1840.09 1563.89 L1835.8 1563.89 L1835.8 1541.27 L1831.73 1541.27 L1831.73 1537.96 L1835.8 1537.96 L1835.8 1536.16 Q1835.8 1531.83 1837.82 1529.86 Q1839.83 1527.87 1844.21 1527.87 L1848.23 1527.87 Z" fill="#000000" fill-rule="nonzero" fill-opacity="1" /><path clip-path="url(#clip460)" d="M1864.92 1527.87 L1864.92 1531.41 L1860.85 1531.41 Q1858.56 1531.41 1857.66 1532.34 Q1856.78 1533.26 1856.78 1535.67 L1856.78 1537.96 L1863.79 1537.96 L1863.79 1541.27 L1856.78 1541.27 L1856.78 1563.89 L1852.49 1563.89 L1852.49 1541.27 L1848.42 1541.27 L1848.42 1537.96 L1852.49 1537.96 L1852.49 1536.16 Q1852.49 1531.83 1854.51 1529.86 Q1856.52 1527.87 1860.9 1527.87 L1864.92 1527.87 Z" fill="#000000" fill-rule="nonzero" fill-opacity="1" /><path clip-path="url(#clip460)" d="M2661.47 1527.87 L2661.47 1531.41 L2657.39 1531.41 Q2655.1 1531.41 2654.2 1532.34 Q2653.32 1533.26 2653.32 1535.67 L2653.32 1537.96 L2660.33 1537.96 L2660.33 1541.27 L2653.32 1541.27 L2653.32 1563.89 L2649.04 1563.89 L2649.04 1541.27 L2644.96 1541.27 L2644.96 1537.96 L2649.04 1537.96 L2649.04 1536.16 Q2649.04 1531.83 2651.05 1529.86 Q2653.06 1527.87 2657.44 1527.87 L2661.47 1527.87 Z" fill="#000000" fill-rule="nonzero" fill-opacity="1" /><path clip-path="url(#clip460)" d="M2675.08 1540.95 Q2671.65 1540.95 2669.66 1543.63 Q2667.67 1546.3 2667.67 1550.95 Q2667.67 1555.6 2669.64 1558.29 Q2671.63 1560.95 2675.08 1560.95 Q2678.48 1560.95 2680.47 1558.26 Q2682.46 1555.58 2682.46 1550.95 Q2682.46 1546.34 2680.47 1543.66 Q2678.48 1540.95 2675.08 1540.95 M2675.08 1537.34 Q2680.63 1537.34 2683.8 1540.95 Q2686.97 1544.56 2686.97 1550.95 Q2686.97 1557.31 2683.8 1560.95 Q2680.63 1564.56 2675.08 1564.56 Q2669.5 1564.56 2666.33 1560.95 Q2663.18 1557.31 2663.18 1550.95 Q2663.18 1544.56 2666.33 1540.95 Q2669.5 1537.34 2675.08 1537.34 Z" fill="#000000" fill-rule="nonzero" fill-opacity="1" /><path clip-path="url(#clip460)" d="M2709.06 1541.94 Q2708.34 1541.53 2707.48 1541.34 Q2706.65 1541.13 2705.63 1541.13 Q2702.02 1541.13 2700.08 1543.49 Q2698.16 1545.83 2698.16 1550.23 L2698.16 1563.89 L2693.87 1563.89 L2693.87 1537.96 L2698.16 1537.96 L2698.16 1541.99 Q2699.5 1539.63 2701.65 1538.49 Q2703.8 1537.34 2706.88 1537.34 Q2707.32 1537.34 2707.85 1537.41 Q2708.39 1537.45 2709.03 1537.57 L2709.06 1541.94 Z" fill="#000000" fill-rule="nonzero" fill-opacity="1" /><path clip-path="url(#clip460)" d="M2711.05 1537.96 L2715.31 1537.96 L2720.63 1558.19 L2725.93 1537.96 L2730.96 1537.96 L2736.28 1558.19 L2741.58 1537.96 L2745.84 1537.96 L2739.06 1563.89 L2734.03 1563.89 L2728.46 1542.64 L2722.85 1563.89 L2717.83 1563.89 L2711.05 1537.96 Z" fill="#000000" fill-rule="nonzero" fill-opacity="1" /><path clip-path="url(#clip460)" d="M2764.08 1550.86 Q2758.92 1550.86 2756.93 1552.04 Q2754.94 1553.22 2754.94 1556.06 Q2754.94 1558.33 2756.42 1559.67 Q2757.92 1560.99 2760.49 1560.99 Q2764.03 1560.99 2766.16 1558.49 Q2768.32 1555.97 2768.32 1551.8 L2768.32 1550.86 L2764.08 1550.86 M2772.58 1549.1 L2772.58 1563.89 L2768.32 1563.89 L2768.32 1559.95 Q2766.86 1562.31 2764.68 1563.45 Q2762.51 1564.56 2759.36 1564.56 Q2755.38 1564.56 2753.02 1562.34 Q2750.68 1560.09 2750.68 1556.34 Q2750.68 1551.97 2753.59 1549.74 Q2756.53 1547.52 2762.34 1547.52 L2768.32 1547.52 L2768.32 1547.11 Q2768.32 1544.17 2766.37 1542.57 Q2764.45 1540.95 2760.96 1540.95 Q2758.73 1540.95 2756.63 1541.48 Q2754.52 1542.01 2752.58 1543.08 L2752.58 1539.14 Q2754.91 1538.24 2757.11 1537.8 Q2759.31 1537.34 2761.4 1537.34 Q2767.02 1537.34 2769.8 1540.25 Q2772.58 1543.17 2772.58 1549.1 Z" fill="#000000" fill-rule="nonzero" fill-opacity="1" /><path clip-path="url(#clip460)" d="M2796.37 1541.94 Q2795.65 1541.53 2794.8 1541.34 Q2793.96 1541.13 2792.95 1541.13 Q2789.34 1541.13 2787.39 1543.49 Q2785.47 1545.83 2785.47 1550.23 L2785.47 1563.89 L2781.19 1563.89 L2781.19 1537.96 L2785.47 1537.96 L2785.47 1541.99 Q2786.81 1539.63 2788.97 1538.49 Q2791.12 1537.34 2794.2 1537.34 Q2794.64 1537.34 2795.17 1537.41 Q2795.7 1537.45 2796.35 1537.57 L2796.37 1541.94 Z" fill="#000000" fill-rule="nonzero" fill-opacity="1" /><path clip-path="url(#clip460)" d="M2817.07 1541.9 L2817.07 1527.87 L2821.33 1527.87 L2821.33 1563.89 L2817.07 1563.89 L2817.07 1560 Q2815.72 1562.31 2813.66 1563.45 Q2811.63 1564.56 2808.76 1564.56 Q2804.06 1564.56 2801.09 1560.81 Q2798.15 1557.06 2798.15 1550.95 Q2798.15 1544.84 2801.09 1541.09 Q2804.06 1537.34 2808.76 1537.34 Q2811.63 1537.34 2813.66 1538.47 Q2815.72 1539.58 2817.07 1541.9 M2802.55 1550.95 Q2802.55 1555.65 2804.47 1558.33 Q2806.42 1560.99 2809.8 1560.99 Q2813.18 1560.99 2815.12 1558.33 Q2817.07 1555.65 2817.07 1550.95 Q2817.07 1546.25 2815.12 1543.59 Q2813.18 1540.9 2809.8 1540.9 Q2806.42 1540.9 2804.47 1543.59 Q2802.55 1546.25 2802.55 1550.95 Z" fill="#000000" fill-rule="nonzero" fill-opacity="1" /><path clip-path="url(#clip460)" d="M2862.23 1541.9 L2862.23 1527.87 L2866.49 1527.87 L2866.49 1563.89 L2862.23 1563.89 L2862.23 1560 Q2860.89 1562.31 2858.83 1563.45 Q2856.79 1564.56 2853.92 1564.56 Q2849.22 1564.56 2846.26 1560.81 Q2843.32 1557.06 2843.32 1550.95 Q2843.32 1544.84 2846.26 1541.09 Q2849.22 1537.34 2853.92 1537.34 Q2856.79 1537.34 2858.83 1538.47 Q2860.89 1539.58 2862.23 1541.9 M2847.71 1550.95 Q2847.71 1555.65 2849.64 1558.33 Q2851.58 1560.99 2854.96 1560.99 Q2858.34 1560.99 2860.28 1558.33 Q2862.23 1555.65 2862.23 1550.95 Q2862.23 1546.25 2860.28 1543.59 Q2858.34 1540.9 2854.96 1540.9 Q2851.58 1540.9 2849.64 1543.59 Q2847.71 1546.25 2847.71 1550.95 Z" fill="#000000" fill-rule="nonzero" fill-opacity="1" /><path clip-path="url(#clip460)" d="M2875.26 1537.96 L2879.52 1537.96 L2879.52 1563.89 L2875.26 1563.89 L2875.26 1537.96 M2875.26 1527.87 L2879.52 1527.87 L2879.52 1533.26 L2875.26 1533.26 L2875.26 1527.87 Z" fill="#000000" fill-rule="nonzero" fill-opacity="1" /><path clip-path="url(#clip460)" d="M2901.56 1527.87 L2901.56 1531.41 L2897.48 1531.41 Q2895.19 1531.41 2894.29 1532.34 Q2893.41 1533.26 2893.41 1535.67 L2893.41 1537.96 L2900.42 1537.96 L2900.42 1541.27 L2893.41 1541.27 L2893.41 1563.89 L2889.13 1563.89 L2889.13 1541.27 L2885.05 1541.27 L2885.05 1537.96 L2889.13 1537.96 L2889.13 1536.16 Q2889.13 1531.83 2891.14 1529.86 Q2893.15 1527.87 2897.53 1527.87 L2901.56 1527.87 Z" fill="#000000" fill-rule="nonzero" fill-opacity="1" /><path clip-path="url(#clip460)" d="M2918.25 1527.87 L2918.25 1531.41 L2914.17 1531.41 Q2911.88 1531.41 2910.98 1532.34 Q2910.1 1533.26 2910.1 1535.67 L2910.1 1537.96 L2917.11 1537.96 L2917.11 1541.27 L2910.1 1541.27 L2910.1 1563.89 L2905.82 1563.89 L2905.82 1541.27 L2901.74 1541.27 L2901.74 1537.96 L2905.82 1537.96 L2905.82 1536.16 Q2905.82 1531.83 2907.83 1529.86 Q2909.84 1527.87 2914.22 1527.87 L2918.25 1527.87 Z" fill="#000000" fill-rule="nonzero" fill-opacity="1" /><polyline clip-path="url(#clip460)" style="stroke:#000000; stroke-linecap:round; stroke-linejoin:round; stroke-width:4; stroke-opacity:1; fill:none" points="364.733,1495.09 364.733,47.2441 "/>
<polyline clip-path="url(#clip460)" style="stroke:#000000; stroke-linecap:round; stroke-linejoin:round; stroke-width:4; stroke-opacity:1; fill:none" points="364.733,1366.03 383.63,1366.03 "/>
<polyline clip-path="url(#clip460)" style="stroke:#000000; stroke-linecap:round; stroke-linejoin:round; stroke-width:4; stroke-opacity:1; fill:none" points="364.733,1078.83 383.63,1078.83 "/>
<polyline clip-path="url(#clip460)" style="stroke:#000000; stroke-linecap:round; stroke-linejoin:round; stroke-width:4; stroke-opacity:1; fill:none" points="364.733,791.629 383.63,791.629 "/>
<polyline clip-path="url(#clip460)" style="stroke:#000000; stroke-linecap:round; stroke-linejoin:round; stroke-width:4; stroke-opacity:1; fill:none" points="364.733,504.428 383.63,504.428 "/>
<polyline clip-path="url(#clip460)" style="stroke:#000000; stroke-linecap:round; stroke-linejoin:round; stroke-width:4; stroke-opacity:1; fill:none" points="364.733,217.226 383.63,217.226 "/>
<path clip-path="url(#clip460)" d="M100.137 1355.2 L118.493 1355.2 L118.493 1359.14 L104.419 1359.14 L104.419 1367.61 Q105.437 1367.26 106.456 1367.1 Q107.474 1366.91 108.493 1366.91 Q114.28 1366.91 117.66 1370.08 Q121.039 1373.26 121.039 1378.67 Q121.039 1384.25 117.567 1387.35 Q114.095 1390.43 107.775 1390.43 Q105.599 1390.43 103.331 1390.06 Q101.086 1389.69 98.6782 1388.95 L98.6782 1384.25 Q100.762 1385.39 102.984 1385.94 Q105.206 1386.5 107.683 1386.5 Q111.687 1386.5 114.025 1384.39 Q116.363 1382.28 116.363 1378.67 Q116.363 1375.06 114.025 1372.96 Q111.687 1370.85 107.683 1370.85 Q105.808 1370.85 103.933 1371.27 Q102.081 1371.68 100.137 1372.56 L100.137 1355.2 Z" fill="#000000" fill-rule="nonzero" fill-opacity="1" /><path clip-path="url(#clip460)" d="M130.252 1383.88 L135.136 1383.88 L135.136 1389.76 L130.252 1389.76 L130.252 1383.88 Z" fill="#000000" fill-rule="nonzero" fill-opacity="1" /><path clip-path="url(#clip460)" d="M155.321 1358.28 Q151.71 1358.28 149.882 1361.84 Q148.076 1365.39 148.076 1372.52 Q148.076 1379.62 149.882 1383.19 Q151.71 1386.73 155.321 1386.73 Q158.956 1386.73 160.761 1383.19 Q162.59 1379.62 162.59 1372.52 Q162.59 1365.39 160.761 1361.84 Q158.956 1358.28 155.321 1358.28 M155.321 1354.58 Q161.132 1354.58 164.187 1359.18 Q167.266 1363.77 167.266 1372.52 Q167.266 1381.24 164.187 1385.85 Q161.132 1390.43 155.321 1390.43 Q149.511 1390.43 146.433 1385.85 Q143.377 1381.24 143.377 1372.52 Q143.377 1363.77 146.433 1359.18 Q149.511 1354.58 155.321 1354.58 Z" fill="#000000" fill-rule="nonzero" fill-opacity="1" /><path clip-path="url(#clip460)" d="M185.483 1358.28 Q181.872 1358.28 180.043 1361.84 Q178.238 1365.39 178.238 1372.52 Q178.238 1379.62 180.043 1383.19 Q181.872 1386.73 185.483 1386.73 Q189.118 1386.73 190.923 1383.19 Q192.752 1379.62 192.752 1372.52 Q192.752 1365.39 190.923 1361.84 Q189.118 1358.28 185.483 1358.28 M185.483 1354.58 Q191.293 1354.58 194.349 1359.18 Q197.428 1363.77 197.428 1372.52 Q197.428 1381.24 194.349 1385.85 Q191.293 1390.43 185.483 1390.43 Q179.673 1390.43 176.594 1385.85 Q173.539 1381.24 173.539 1372.52 Q173.539 1363.77 176.594 1359.18 Q179.673 1354.58 185.483 1354.58 Z" fill="#000000" fill-rule="nonzero" fill-opacity="1" /><path clip-path="url(#clip460)" d="M233.816 1364.3 L223.238 1374.92 L233.816 1385.5 L231.062 1388.3 L220.437 1377.68 L209.812 1388.3 L207.08 1385.5 L217.636 1374.92 L207.08 1364.3 L209.812 1361.5 L220.437 1372.12 L231.062 1361.5 L233.816 1364.3 Z" fill="#000000" fill-rule="nonzero" fill-opacity="1" /><path clip-path="url(#clip460)" d="M246.177 1385.83 L253.816 1385.83 L253.816 1359.46 L245.506 1361.13 L245.506 1356.87 L253.77 1355.2 L258.446 1355.2 L258.446 1385.83 L266.085 1385.83 L266.085 1389.76 L246.177 1389.76 L246.177 1385.83 Z" fill="#000000" fill-rule="nonzero" fill-opacity="1" /><path clip-path="url(#clip460)" d="M285.529 1358.28 Q281.918 1358.28 280.089 1361.84 Q278.284 1365.39 278.284 1372.52 Q278.284 1379.62 280.089 1383.19 Q281.918 1386.73 285.529 1386.73 Q289.163 1386.73 290.969 1383.19 Q292.798 1379.62 292.798 1372.52 Q292.798 1365.39 290.969 1361.84 Q289.163 1358.28 285.529 1358.28 M285.529 1354.58 Q291.339 1354.58 294.395 1359.18 Q297.473 1363.77 297.473 1372.52 Q297.473 1381.24 294.395 1385.85 Q291.339 1390.43 285.529 1390.43 Q279.719 1390.43 276.64 1385.85 Q273.585 1381.24 273.585 1372.52 Q273.585 1363.77 276.64 1359.18 Q279.719 1354.58 285.529 1354.58 Z" fill="#000000" fill-rule="nonzero" fill-opacity="1" /><path clip-path="url(#clip460)" d="M307.103 1349.02 Q304.395 1349.02 302.834 1350.46 Q301.291 1351.91 301.291 1354.45 Q301.291 1356.99 302.834 1358.44 Q304.395 1359.89 307.103 1359.89 Q309.811 1359.89 311.372 1358.44 Q312.933 1356.97 312.933 1354.45 Q312.933 1351.91 311.372 1350.46 Q309.83 1349.02 307.103 1349.02 M303.304 1347.4 Q300.859 1346.8 299.486 1345.12 Q298.132 1343.45 298.132 1341.04 Q298.132 1337.67 300.52 1335.72 Q302.928 1333.76 307.103 1333.76 Q311.297 1333.76 313.686 1335.72 Q316.074 1337.67 316.074 1341.04 Q316.074 1343.45 314.701 1345.12 Q313.347 1346.8 310.921 1347.4 Q313.667 1348.04 315.19 1349.9 Q316.733 1351.76 316.733 1354.45 Q316.733 1358.53 314.231 1360.71 Q311.749 1362.9 307.103 1362.9 Q302.457 1362.9 299.956 1360.71 Q297.473 1358.53 297.473 1354.45 Q297.473 1351.76 299.016 1349.9 Q300.558 1348.04 303.304 1347.4 M301.912 1341.4 Q301.912 1343.58 303.266 1344.8 Q304.639 1346.03 307.103 1346.03 Q309.548 1346.03 310.921 1344.8 Q312.313 1343.58 312.313 1341.4 Q312.313 1339.22 310.921 1337.99 Q309.548 1336.77 307.103 1336.77 Q304.639 1336.77 303.266 1337.99 Q301.912 1339.22 301.912 1341.4 Z" fill="#000000" fill-rule="nonzero" fill-opacity="1" /><path clip-path="url(#clip460)" d="M100.788 1098.62 L108.426 1098.62 L108.426 1072.26 L100.116 1073.92 L100.116 1069.67 L108.38 1068 L113.056 1068 L113.056 1098.62 L120.695 1098.62 L120.695 1102.56 L100.788 1102.56 L100.788 1098.62 Z" fill="#000000" fill-rule="nonzero" fill-opacity="1" /><path clip-path="url(#clip460)" d="M130.139 1096.68 L135.023 1096.68 L135.023 1102.56 L130.139 1102.56 L130.139 1096.68 Z" fill="#000000" fill-rule="nonzero" fill-opacity="1" /><path clip-path="url(#clip460)" d="M155.209 1071.08 Q151.597 1071.08 149.769 1074.64 Q147.963 1078.18 147.963 1085.31 Q147.963 1092.42 149.769 1095.98 Q151.597 1099.53 155.209 1099.53 Q158.843 1099.53 160.648 1095.98 Q162.477 1092.42 162.477 1085.31 Q162.477 1078.18 160.648 1074.64 Q158.843 1071.08 155.209 1071.08 M155.209 1067.37 Q161.019 1067.37 164.074 1071.98 Q167.153 1076.56 167.153 1085.31 Q167.153 1094.04 164.074 1098.65 Q161.019 1103.23 155.209 1103.23 Q149.398 1103.23 146.32 1098.65 Q143.264 1094.04 143.264 1085.31 Q143.264 1076.56 146.32 1071.98 Q149.398 1067.37 155.209 1067.37 Z" fill="#000000" fill-rule="nonzero" fill-opacity="1" /><path clip-path="url(#clip460)" d="M185.37 1071.08 Q181.759 1071.08 179.931 1074.64 Q178.125 1078.18 178.125 1085.31 Q178.125 1092.42 179.931 1095.98 Q181.759 1099.53 185.37 1099.53 Q189.005 1099.53 190.81 1095.98 Q192.639 1092.42 192.639 1085.31 Q192.639 1078.18 190.81 1074.64 Q189.005 1071.08 185.37 1071.08 M185.37 1067.37 Q191.181 1067.37 194.236 1071.98 Q197.315 1076.56 197.315 1085.31 Q197.315 1094.04 194.236 1098.65 Q191.181 1103.23 185.37 1103.23 Q179.56 1103.23 176.482 1098.65 Q173.426 1094.04 173.426 1085.31 Q173.426 1076.56 176.482 1071.98 Q179.56 1067.37 185.37 1067.37 Z" fill="#000000" fill-rule="nonzero" fill-opacity="1" /><path clip-path="url(#clip460)" d="M233.704 1077.1 L223.125 1087.72 L233.704 1098.3 L230.949 1101.1 L220.324 1090.48 L209.699 1101.1 L206.968 1098.3 L217.523 1087.72 L206.968 1077.1 L209.699 1074.3 L220.324 1084.92 L230.949 1074.3 L233.704 1077.1 Z" fill="#000000" fill-rule="nonzero" fill-opacity="1" /><path clip-path="url(#clip460)" d="M246.065 1098.62 L253.703 1098.62 L253.703 1072.26 L245.393 1073.92 L245.393 1069.67 L253.657 1068 L258.333 1068 L258.333 1098.62 L265.972 1098.62 L265.972 1102.56 L246.065 1102.56 L246.065 1098.62 Z" fill="#000000" fill-rule="nonzero" fill-opacity="1" /><path clip-path="url(#clip460)" d="M285.416 1071.08 Q281.805 1071.08 279.976 1074.64 Q278.171 1078.18 278.171 1085.31 Q278.171 1092.42 279.976 1095.98 Q281.805 1099.53 285.416 1099.53 Q289.05 1099.53 290.856 1095.98 Q292.685 1092.42 292.685 1085.31 Q292.685 1078.18 290.856 1074.64 Q289.05 1071.08 285.416 1071.08 M285.416 1067.37 Q291.226 1067.37 294.282 1071.98 Q297.361 1076.56 297.361 1085.31 Q297.361 1094.04 294.282 1098.65 Q291.226 1103.23 285.416 1103.23 Q279.606 1103.23 276.527 1098.65 Q273.472 1094.04 273.472 1085.31 Q273.472 1076.56 276.527 1071.98 Q279.606 1067.37 285.416 1067.37 Z" fill="#000000" fill-rule="nonzero" fill-opacity="1" /><path clip-path="url(#clip460)" d="M299.166 1074.57 L299.166 1071.1 Q300.596 1071.78 302.063 1072.14 Q303.53 1072.5 304.94 1072.5 Q308.702 1072.5 310.676 1069.98 Q312.67 1067.44 312.952 1062.28 Q311.861 1063.9 310.187 1064.77 Q308.514 1065.63 306.482 1065.63 Q302.269 1065.63 299.806 1063.09 Q297.361 1060.53 297.361 1056.11 Q297.361 1051.79 299.918 1049.17 Q302.476 1046.56 306.727 1046.56 Q311.598 1046.56 314.156 1050.3 Q316.733 1054.03 316.733 1061.14 Q316.733 1067.78 313.573 1071.74 Q310.432 1075.69 305.109 1075.69 Q303.68 1075.69 302.213 1075.41 Q300.746 1075.13 299.166 1074.57 M306.727 1062.66 Q309.285 1062.66 310.771 1060.91 Q312.275 1059.16 312.275 1056.11 Q312.275 1053.09 310.771 1051.34 Q309.285 1049.57 306.727 1049.57 Q304.169 1049.57 302.664 1051.34 Q301.179 1053.09 301.179 1056.11 Q301.179 1059.16 302.664 1060.91 Q304.169 1062.66 306.727 1062.66 Z" fill="#000000" fill-rule="nonzero" fill-opacity="1" /><path clip-path="url(#clip460)" d="M100.788 811.422 L108.426 811.422 L108.426 785.056 L100.116 786.723 L100.116 782.464 L108.38 780.797 L113.056 780.797 L113.056 811.422 L120.695 811.422 L120.695 815.357 L100.788 815.357 L100.788 811.422 Z" fill="#000000" fill-rule="nonzero" fill-opacity="1" /><path clip-path="url(#clip460)" d="M130.139 809.477 L135.023 809.477 L135.023 815.357 L130.139 815.357 L130.139 809.477 Z" fill="#000000" fill-rule="nonzero" fill-opacity="1" /><path clip-path="url(#clip460)" d="M145.255 780.797 L163.611 780.797 L163.611 784.732 L149.537 784.732 L149.537 793.204 Q150.556 792.857 151.574 792.695 Q152.593 792.51 153.611 792.51 Q159.398 792.51 162.778 795.681 Q166.158 798.852 166.158 804.269 Q166.158 809.848 162.685 812.95 Q159.213 816.028 152.894 816.028 Q150.718 816.028 148.449 815.658 Q146.204 815.287 143.797 814.547 L143.797 809.848 Q145.88 810.982 148.102 811.538 Q150.324 812.093 152.801 812.093 Q156.806 812.093 159.144 809.987 Q161.482 807.88 161.482 804.269 Q161.482 800.658 159.144 798.551 Q156.806 796.445 152.801 796.445 Q150.926 796.445 149.051 796.862 Q147.199 797.278 145.255 798.158 L145.255 780.797 Z" fill="#000000" fill-rule="nonzero" fill-opacity="1" /><path clip-path="url(#clip460)" d="M185.37 783.876 Q181.759 783.876 179.931 787.44 Q178.125 790.982 178.125 798.112 Q178.125 805.218 179.931 808.783 Q181.759 812.325 185.37 812.325 Q189.005 812.325 190.81 808.783 Q192.639 805.218 192.639 798.112 Q192.639 790.982 190.81 787.44 Q189.005 783.876 185.37 783.876 M185.37 780.172 Q191.181 780.172 194.236 784.778 Q197.315 789.362 197.315 798.112 Q197.315 806.838 194.236 811.445 Q191.181 816.028 185.37 816.028 Q179.56 816.028 176.482 811.445 Q173.426 806.838 173.426 798.112 Q173.426 789.362 176.482 784.778 Q179.56 780.172 185.37 780.172 Z" fill="#000000" fill-rule="nonzero" fill-opacity="1" /><path clip-path="url(#clip460)" d="M233.704 789.894 L223.125 800.519 L233.704 811.098 L230.949 813.899 L220.324 803.274 L209.699 813.899 L206.968 811.098 L217.523 800.519 L206.968 789.894 L209.699 787.093 L220.324 797.718 L230.949 787.093 L233.704 789.894 Z" fill="#000000" fill-rule="nonzero" fill-opacity="1" /><path clip-path="url(#clip460)" d="M246.065 811.422 L253.703 811.422 L253.703 785.056 L245.393 786.723 L245.393 782.464 L253.657 780.797 L258.333 780.797 L258.333 811.422 L265.972 811.422 L265.972 815.357 L246.065 815.357 L246.065 811.422 Z" fill="#000000" fill-rule="nonzero" fill-opacity="1" /><path clip-path="url(#clip460)" d="M285.416 783.876 Q281.805 783.876 279.976 787.44 Q278.171 790.982 278.171 798.112 Q278.171 805.218 279.976 808.783 Q281.805 812.325 285.416 812.325 Q289.05 812.325 290.856 808.783 Q292.685 805.218 292.685 798.112 Q292.685 790.982 290.856 787.44 Q289.05 783.876 285.416 783.876 M285.416 780.172 Q291.226 780.172 294.282 784.778 Q297.361 789.362 297.361 798.112 Q297.361 806.838 294.282 811.445 Q291.226 816.028 285.416 816.028 Q279.606 816.028 276.527 811.445 Q273.472 806.838 273.472 798.112 Q273.472 789.362 276.527 784.778 Q279.606 780.172 285.416 780.172 Z" fill="#000000" fill-rule="nonzero" fill-opacity="1" /><path clip-path="url(#clip460)" d="M299.166 787.363 L299.166 783.903 Q300.596 784.58 302.063 784.937 Q303.53 785.295 304.94 785.295 Q308.702 785.295 310.676 782.774 Q312.67 780.235 312.952 775.082 Q311.861 776.699 310.187 777.565 Q308.514 778.43 306.482 778.43 Q302.269 778.43 299.806 775.891 Q297.361 773.333 297.361 768.913 Q297.361 764.587 299.918 761.973 Q302.476 759.359 306.727 759.359 Q311.598 759.359 314.156 763.101 Q316.733 766.825 316.733 773.935 Q316.733 780.574 313.573 784.542 Q310.432 788.492 305.109 788.492 Q303.68 788.492 302.213 788.21 Q300.746 787.928 299.166 787.363 M306.727 775.458 Q309.285 775.458 310.771 773.709 Q312.275 771.96 312.275 768.913 Q312.275 765.885 310.771 764.136 Q309.285 762.368 306.727 762.368 Q304.169 762.368 302.664 764.136 Q301.179 765.885 301.179 768.913 Q301.179 771.96 302.664 773.709 Q304.169 775.458 306.727 775.458 Z" fill="#000000" fill-rule="nonzero" fill-opacity="1" /><path clip-path="url(#clip460)" d="M104.005 524.22 L120.324 524.22 L120.324 528.155 L98.3802 528.155 L98.3802 524.22 Q101.042 521.465 105.625 516.836 Q110.232 512.183 111.412 510.84 Q113.658 508.317 114.537 506.581 Q115.44 504.822 115.44 503.132 Q115.44 500.377 113.496 498.641 Q111.575 496.905 108.473 496.905 Q106.274 496.905 103.82 497.669 Q101.389 498.433 98.6116 499.984 L98.6116 495.262 Q101.436 494.128 103.889 493.549 Q106.343 492.97 108.38 492.97 Q113.75 492.97 116.945 495.655 Q120.139 498.34 120.139 502.831 Q120.139 504.961 119.329 506.882 Q118.542 508.78 116.436 511.373 Q115.857 512.044 112.755 515.262 Q109.653 518.456 104.005 524.22 Z" fill="#000000" fill-rule="nonzero" fill-opacity="1" /><path clip-path="url(#clip460)" d="M130.139 522.276 L135.023 522.276 L135.023 528.155 L130.139 528.155 L130.139 522.276 Z" fill="#000000" fill-rule="nonzero" fill-opacity="1" /><path clip-path="url(#clip460)" d="M155.209 496.674 Q151.597 496.674 149.769 500.239 Q147.963 503.78 147.963 510.91 Q147.963 518.016 149.769 521.581 Q151.597 525.123 155.209 525.123 Q158.843 525.123 160.648 521.581 Q162.477 518.016 162.477 510.91 Q162.477 503.78 160.648 500.239 Q158.843 496.674 155.209 496.674 M155.209 492.97 Q161.019 492.97 164.074 497.577 Q167.153 502.16 167.153 510.91 Q167.153 519.637 164.074 524.243 Q161.019 528.826 155.209 528.826 Q149.398 528.826 146.32 524.243 Q143.264 519.637 143.264 510.91 Q143.264 502.16 146.32 497.577 Q149.398 492.97 155.209 492.97 Z" fill="#000000" fill-rule="nonzero" fill-opacity="1" /><path clip-path="url(#clip460)" d="M185.37 496.674 Q181.759 496.674 179.931 500.239 Q178.125 503.78 178.125 510.91 Q178.125 518.016 179.931 521.581 Q181.759 525.123 185.37 525.123 Q189.005 525.123 190.81 521.581 Q192.639 518.016 192.639 510.91 Q192.639 503.78 190.81 500.239 Q189.005 496.674 185.37 496.674 M185.37 492.97 Q191.181 492.97 194.236 497.577 Q197.315 502.16 197.315 510.91 Q197.315 519.637 194.236 524.243 Q191.181 528.826 185.37 528.826 Q179.56 528.826 176.482 524.243 Q173.426 519.637 173.426 510.91 Q173.426 502.16 176.482 497.577 Q179.56 492.97 185.37 492.97 Z" fill="#000000" fill-rule="nonzero" fill-opacity="1" /><path clip-path="url(#clip460)" d="M233.704 502.692 L223.125 513.317 L233.704 523.896 L230.949 526.697 L220.324 516.072 L209.699 526.697 L206.968 523.896 L217.523 513.317 L206.968 502.692 L209.699 499.891 L220.324 510.516 L230.949 499.891 L233.704 502.692 Z" fill="#000000" fill-rule="nonzero" fill-opacity="1" /><path clip-path="url(#clip460)" d="M246.065 524.22 L253.703 524.22 L253.703 497.854 L245.393 499.521 L245.393 495.262 L253.657 493.595 L258.333 493.595 L258.333 524.22 L265.972 524.22 L265.972 528.155 L246.065 528.155 L246.065 524.22 Z" fill="#000000" fill-rule="nonzero" fill-opacity="1" /><path clip-path="url(#clip460)" d="M285.416 496.674 Q281.805 496.674 279.976 500.239 Q278.171 503.78 278.171 510.91 Q278.171 518.016 279.976 521.581 Q281.805 525.123 285.416 525.123 Q289.05 525.123 290.856 521.581 Q292.685 518.016 292.685 510.91 Q292.685 503.78 290.856 500.239 Q289.05 496.674 285.416 496.674 M285.416 492.97 Q291.226 492.97 294.282 497.577 Q297.361 502.16 297.361 510.91 Q297.361 519.637 294.282 524.243 Q291.226 528.826 285.416 528.826 Q279.606 528.826 276.527 524.243 Q273.472 519.637 273.472 510.91 Q273.472 502.16 276.527 497.577 Q279.606 492.97 285.416 492.97 Z" fill="#000000" fill-rule="nonzero" fill-opacity="1" /><path clip-path="url(#clip460)" d="M299.166 500.162 L299.166 496.701 Q300.596 497.378 302.063 497.735 Q303.53 498.093 304.94 498.093 Q308.702 498.093 310.676 495.573 Q312.67 493.034 312.952 487.88 Q311.861 489.498 310.187 490.363 Q308.514 491.228 306.482 491.228 Q302.269 491.228 299.806 488.689 Q297.361 486.131 297.361 481.711 Q297.361 477.385 299.918 474.771 Q302.476 472.157 306.727 472.157 Q311.598 472.157 314.156 475.9 Q316.733 479.624 316.733 486.733 Q316.733 493.372 313.573 497.34 Q310.432 501.29 305.109 501.29 Q303.68 501.29 302.213 501.008 Q300.746 500.726 299.166 500.162 M306.727 488.256 Q309.285 488.256 310.771 486.507 Q312.275 484.758 312.275 481.711 Q312.275 478.683 310.771 476.934 Q309.285 475.166 306.727 475.166 Q304.169 475.166 302.664 476.934 Q301.179 478.683 301.179 481.711 Q301.179 484.758 302.664 486.507 Q304.169 488.256 306.727 488.256 Z" fill="#000000" fill-rule="nonzero" fill-opacity="1" /><path clip-path="url(#clip460)" d="M104.005 237.018 L120.324 237.018 L120.324 240.953 L98.3802 240.953 L98.3802 237.018 Q101.042 234.264 105.625 229.634 Q110.232 224.981 111.412 223.639 Q113.658 221.115 114.537 219.379 Q115.44 217.62 115.44 215.93 Q115.44 213.176 113.496 211.44 Q111.575 209.703 108.473 209.703 Q106.274 209.703 103.82 210.467 Q101.389 211.231 98.6116 212.782 L98.6116 208.06 Q101.436 206.926 103.889 206.347 Q106.343 205.768 108.38 205.768 Q113.75 205.768 116.945 208.453 Q120.139 211.139 120.139 215.629 Q120.139 217.759 119.329 219.68 Q118.542 221.578 116.436 224.171 Q115.857 224.842 112.755 228.06 Q109.653 231.254 104.005 237.018 Z" fill="#000000" fill-rule="nonzero" fill-opacity="1" /><path clip-path="url(#clip460)" d="M130.139 235.074 L135.023 235.074 L135.023 240.953 L130.139 240.953 L130.139 235.074 Z" fill="#000000" fill-rule="nonzero" fill-opacity="1" /><path clip-path="url(#clip460)" d="M145.255 206.393 L163.611 206.393 L163.611 210.328 L149.537 210.328 L149.537 218.801 Q150.556 218.453 151.574 218.291 Q152.593 218.106 153.611 218.106 Q159.398 218.106 162.778 221.277 Q166.158 224.449 166.158 229.865 Q166.158 235.444 162.685 238.546 Q159.213 241.625 152.894 241.625 Q150.718 241.625 148.449 241.254 Q146.204 240.884 143.797 240.143 L143.797 235.444 Q145.88 236.578 148.102 237.134 Q150.324 237.689 152.801 237.689 Q156.806 237.689 159.144 235.583 Q161.482 233.476 161.482 229.865 Q161.482 226.254 159.144 224.148 Q156.806 222.041 152.801 222.041 Q150.926 222.041 149.051 222.458 Q147.199 222.875 145.255 223.754 L145.255 206.393 Z" fill="#000000" fill-rule="nonzero" fill-opacity="1" /><path clip-path="url(#clip460)" d="M185.37 209.472 Q181.759 209.472 179.931 213.037 Q178.125 216.578 178.125 223.708 Q178.125 230.814 179.931 234.379 Q181.759 237.921 185.37 237.921 Q189.005 237.921 190.81 234.379 Q192.639 230.814 192.639 223.708 Q192.639 216.578 190.81 213.037 Q189.005 209.472 185.37 209.472 M185.37 205.768 Q191.181 205.768 194.236 210.375 Q197.315 214.958 197.315 223.708 Q197.315 232.435 194.236 237.041 Q191.181 241.625 185.37 241.625 Q179.56 241.625 176.482 237.041 Q173.426 232.435 173.426 223.708 Q173.426 214.958 176.482 210.375 Q179.56 205.768 185.37 205.768 Z" fill="#000000" fill-rule="nonzero" fill-opacity="1" /><path clip-path="url(#clip460)" d="M233.704 215.49 L223.125 226.115 L233.704 236.694 L230.949 239.495 L220.324 228.87 L209.699 239.495 L206.968 236.694 L217.523 226.115 L206.968 215.49 L209.699 212.69 L220.324 223.314 L230.949 212.69 L233.704 215.49 Z" fill="#000000" fill-rule="nonzero" fill-opacity="1" /><path clip-path="url(#clip460)" d="M246.065 237.018 L253.703 237.018 L253.703 210.653 L245.393 212.319 L245.393 208.06 L253.657 206.393 L258.333 206.393 L258.333 237.018 L265.972 237.018 L265.972 240.953 L246.065 240.953 L246.065 237.018 Z" fill="#000000" fill-rule="nonzero" fill-opacity="1" /><path clip-path="url(#clip460)" d="M285.416 209.472 Q281.805 209.472 279.976 213.037 Q278.171 216.578 278.171 223.708 Q278.171 230.814 279.976 234.379 Q281.805 237.921 285.416 237.921 Q289.05 237.921 290.856 234.379 Q292.685 230.814 292.685 223.708 Q292.685 216.578 290.856 213.037 Q289.05 209.472 285.416 209.472 M285.416 205.768 Q291.226 205.768 294.282 210.375 Q297.361 214.958 297.361 223.708 Q297.361 232.435 294.282 237.041 Q291.226 241.625 285.416 241.625 Q279.606 241.625 276.527 237.041 Q273.472 232.435 273.472 223.708 Q273.472 214.958 276.527 210.375 Q279.606 205.768 285.416 205.768 Z" fill="#000000" fill-rule="nonzero" fill-opacity="1" /><path clip-path="url(#clip460)" d="M299.166 212.96 L299.166 209.499 Q300.596 210.176 302.063 210.534 Q303.53 210.891 304.94 210.891 Q308.702 210.891 310.676 208.371 Q312.67 205.832 312.952 200.678 Q311.861 202.296 310.187 203.161 Q308.514 204.026 306.482 204.026 Q302.269 204.026 299.806 201.487 Q297.361 198.929 297.361 194.509 Q297.361 190.184 299.918 187.569 Q302.476 184.955 306.727 184.955 Q311.598 184.955 314.156 188.698 Q316.733 192.422 316.733 199.531 Q316.733 206.17 313.573 210.139 Q310.432 214.088 305.109 214.088 Q303.68 214.088 302.213 213.806 Q300.746 213.524 299.166 212.96 M306.727 201.055 Q309.285 201.055 310.771 199.305 Q312.275 197.556 312.275 194.509 Q312.275 191.481 310.771 189.732 Q309.285 187.964 306.727 187.964 Q304.169 187.964 302.664 189.732 Q301.179 191.481 301.179 194.509 Q301.179 197.556 302.664 199.305 Q304.169 201.055 306.727 201.055 Z" fill="#000000" fill-rule="nonzero" fill-opacity="1" /><path clip-path="url(#clip460)" d="M-9.64527 840.632 L0.4762 840.632 L0.4762 828.569 L5.02768 828.569 L5.02768 840.632 L24.3794 840.632 Q28.7399 840.632 29.9813 839.454 Q31.2226 838.245 31.2226 834.584 L31.2226 828.569 L36.1242 828.569 L36.1242 834.584 Q36.1242 841.364 33.6097 843.942 Q31.0634 846.52 24.3794 846.52 L5.02768 846.52 L5.02768 850.817 L0.4762 850.817 L0.4762 846.52 L-9.64527 846.52 L-9.64527 840.632 Z" fill="#000000" fill-rule="nonzero" fill-opacity="1" /><path clip-path="url(#clip460)" d="M-11.3958 789.738 L-11.3958 784.327 L42.1716 800.878 L42.1716 806.289 L-11.3958 789.738 Z" fill="#000000" fill-rule="nonzero" fill-opacity="1" /><path clip-path="url(#clip460)" d="M14.6081 727.831 L36.1242 727.831 L36.1242 733.688 L14.799 733.688 Q9.7383 733.688 7.22385 735.661 Q4.7094 737.635 4.7094 741.581 Q4.7094 746.324 7.73311 749.061 Q10.7568 751.798 15.9767 751.798 L36.1242 751.798 L36.1242 757.687 L0.4762 757.687 L0.4762 751.798 L6.01437 751.798 Q2.79968 749.698 1.20826 746.865 Q-0.38317 744 -0.38317 740.276 Q-0.38317 734.133 3.43625 730.982 Q7.22385 727.831 14.6081 727.831 Z" fill="#000000" fill-rule="nonzero" fill-opacity="1" /><path clip-path="url(#clip460)" d="M1.52654 693.425 L7.06471 693.425 Q5.79157 695.907 5.15499 698.581 Q4.51842 701.255 4.51842 704.119 Q4.51842 708.48 5.85522 710.676 Q7.19202 712.84 9.86562 712.84 Q11.9026 712.84 13.0803 711.281 Q14.2261 709.721 15.2765 705.01 L15.7221 703.005 Q17.0589 696.767 19.5097 694.157 Q21.9286 691.515 26.2891 691.515 Q31.2544 691.515 34.1508 695.462 Q37.0472 699.377 37.0472 706.252 Q37.0472 709.116 36.4743 712.235 Q35.9332 715.323 34.8192 718.76 L28.7718 718.76 Q30.4587 715.514 31.318 712.363 Q32.1456 709.212 32.1456 706.124 Q32.1456 701.987 30.7451 699.759 Q29.3129 697.531 26.7347 697.531 Q24.3476 697.531 23.0745 699.154 Q21.8013 700.745 20.6237 706.188 L20.1462 708.225 Q19.0004 713.668 16.6451 716.087 Q14.258 718.506 10.1202 718.506 Q5.09134 718.506 2.35408 714.941 Q-0.38317 711.376 -0.38317 704.819 Q-0.38317 701.573 0.0942579 698.708 Q0.571686 695.844 1.52654 693.425 Z" fill="#000000" fill-rule="nonzero" fill-opacity="1" /><path clip-path="url(#clip461)" d="M1018.23 1454.11 L1021.6 1453.88 L1024.28 1453.65 L1026.25 1453.42 L1027.53 1453.19 L1028.13 1452.96 L1028.06 1452.73 L1027.35 1452.5 L1026.04 1452.27 L1024.15 1452.04 L1021.73 1451.81 L1018.82 1451.58 L1015.48 1451.35 L1011.75 1451.12 L1007.69 1450.89 L1003.35 1450.66 L998.784 1450.43 L994.048 1450.2 L989.191 1449.97 L984.264 1449.74 L979.314 1449.51 L974.383 1449.27 L969.513 1449.04 L964.739 1448.81 L960.093 1448.58 L955.6 1448.35 L951.284 1448.12 L947.163 1447.89 L943.249 1447.66 L939.551 1447.43 L936.074 1447.2 L932.818 1446.97 L929.781 1446.74 L926.956 1446.51 L924.333 1446.28 L921.901 1446.05 L919.645 1445.82 L917.55 1445.59 L915.597 1445.36 L913.768 1445.13 L912.043 1444.9 L910.401 1444.67 L908.823 1444.44 L907.286 1444.21 L905.771 1443.98 L904.256 1443.75 L902.724 1443.52 L901.153 1443.29 L899.526 1443.06 L897.826 1442.83 L896.037 1442.6 L894.145 1442.37 L892.135 1442.14 L889.996 1441.91 L887.718 1441.67 L885.292 1441.44 L882.712 1441.21 L879.973 1440.98 L877.072 1440.75 L874.008 1440.52 L597.761 1440.52 L594.697 1440.75 L591.796 1440.98 L589.057 1441.21 L586.477 1441.44 L584.051 1441.67 L581.773 1441.91 L579.634 1442.14 L577.624 1442.37 L575.732 1442.6 L573.943 1442.83 L572.243 1443.06 L570.616 1443.29 L569.046 1443.52 L567.513 1443.75 L565.998 1443.98 L564.483 1444.21 L562.946 1444.44 L561.368 1444.67 L559.726 1444.9 L558.001 1445.13 L556.172 1445.36 L554.219 1445.59 L552.124 1445.82 L549.868 1446.05 L547.436 1446.28 L544.813 1446.51 L541.988 1446.74 L538.951 1446.97 L535.695 1447.2 L532.218 1447.43 L528.52 1447.66 L524.606 1447.89 L520.485 1448.12 L516.169 1448.35 L511.676 1448.58 L507.03 1448.81 L502.256 1449.04 L497.386 1449.27 L492.455 1449.51 L487.505 1449.74 L482.578 1449.97 L477.721 1450.2 L472.985 1450.43 L468.42 1450.66 L464.079 1450.89 L460.018 1451.12 L456.289 1451.35 L452.946 1451.58 L450.04 1451.81 L447.62 1452.04 L445.731 1452.27 L444.414 1452.5 L443.707 1452.73 L443.639 1452.96 L444.236 1453.19 L445.517 1453.42 L447.492 1453.65 L450.168 1453.88 L453.541 1454.11 L1018.23 1454.11  Z" fill="#009af9" fill-rule="evenodd" fill-opacity="1"/>
<polyline clip-path="url(#clip461)" style="stroke:#000000; stroke-linecap:round; stroke-linejoin:round; stroke-width:4; stroke-opacity:1; fill:none" points="1018.23,1454.11 1021.6,1453.88 1024.28,1453.65 1026.25,1453.42 1027.53,1453.19 1028.13,1452.96 1028.06,1452.73 1027.35,1452.5 1026.04,1452.27 1024.15,1452.04 1021.73,1451.81 1018.82,1451.58 1015.48,1451.35 1011.75,1451.12 1007.69,1450.89 1003.35,1450.66 998.784,1450.43 994.048,1450.2 989.191,1449.97 984.264,1449.74 979.314,1449.51 974.383,1449.27 969.513,1449.04 964.739,1448.81 960.093,1448.58 955.6,1448.35 951.284,1448.12 947.163,1447.89 943.249,1447.66 939.551,1447.43 936.074,1447.2 932.818,1446.97 929.781,1446.74 926.956,1446.51 924.333,1446.28 921.901,1446.05 919.645,1445.82 917.55,1445.59 915.597,1445.36 913.768,1445.13 912.043,1444.9 910.401,1444.67 908.823,1444.44 907.286,1444.21 905.771,1443.98 904.256,1443.75 902.724,1443.52 901.153,1443.29 899.526,1443.06 897.826,1442.83 896.037,1442.6 894.145,1442.37 892.135,1442.14 889.996,1441.91 887.718,1441.67 885.292,1441.44 882.712,1441.21 879.973,1440.98 877.072,1440.75 874.008,1440.52 597.761,1440.52 594.697,1440.75 591.796,1440.98 589.057,1441.21 586.477,1441.44 584.051,1441.67 581.773,1441.91 579.634,1442.14 577.624,1442.37 575.732,1442.6 573.943,1442.83 572.243,1443.06 570.616,1443.29 569.046,1443.52 567.513,1443.75 565.998,1443.98 564.483,1444.21 562.946,1444.44 561.368,1444.67 559.726,1444.9 558.001,1445.13 556.172,1445.36 554.219,1445.59 552.124,1445.82 549.868,1446.05 547.436,1446.28 544.813,1446.51 541.988,1446.74 538.951,1446.97 535.695,1447.2 532.218,1447.43 528.52,1447.66 524.606,1447.89 520.485,1448.12 516.169,1448.35 511.676,1448.58 507.03,1448.81 502.256,1449.04 497.386,1449.27 492.455,1449.51 487.505,1449.74 482.578,1449.97 477.721,1450.2 472.985,1450.43 468.42,1450.66 464.079,1450.89 460.018,1451.12 456.289,1451.35 452.946,1451.58 450.04,1451.81 447.62,1452.04 445.731,1452.27 444.414,1452.5 443.707,1452.73 443.639,1452.96 444.236,1453.19 445.517,1453.42 447.492,1453.65 450.168,1453.88 453.541,1454.11 1018.23,1454.11 "/>
<path clip-path="url(#clip461)" d="M2050.99 497.64 L2050.88 496.112 L2050 494.583 L2048.37 493.055 L2046.04 491.527 L2043.03 489.999 L2039.41 488.471 L2035.23 486.943 L2030.54 485.415 L2025.41 483.886 L2019.93 482.358 L2014.14 480.83 L2008.14 479.302 L2002 477.774 L1995.79 476.246 L1989.59 474.718 L1983.46 473.189 L1977.49 471.661 L1971.72 470.133 L1966.23 468.605 L1961.05 467.077 L1956.25 465.549 L1951.86 464.021 L1947.91 462.492 L1944.43 460.964 L1941.44 459.436 L1938.94 457.908 L1936.93 456.38 L1935.42 454.852 L1934.38 453.323 L1933.8 451.795 L1933.64 450.267 L1933.88 448.739 L1934.47 447.211 L1935.37 445.683 L1936.54 444.155 L1937.92 442.626 L1939.46 441.098 L1941.1 439.57 L1942.8 438.042 L1944.48 436.514 L1946.11 434.986 L1947.62 433.458 L1948.97 431.929 L1950.11 430.401 L1950.99 428.873 L1951.58 427.345 L1951.84 425.817 L1951.73 424.289 L1951.24 422.761 L1950.34 421.232 L1949.03 419.704 L1947.29 418.176 L1945.11 416.648 L1572.38 416.648 L1570.2 418.176 L1568.46 419.704 L1567.14 421.232 L1566.25 422.761 L1565.76 424.289 L1565.65 425.817 L1565.91 427.345 L1566.5 428.873 L1567.38 430.401 L1568.52 431.929 L1569.86 433.458 L1571.38 434.986 L1573 436.514 L1574.69 438.042 L1576.39 439.57 L1578.03 441.098 L1579.57 442.626 L1580.95 444.155 L1582.12 445.683 L1583.02 447.211 L1583.61 448.739 L1583.85 450.267 L1583.69 451.795 L1583.11 453.323 L1582.07 454.852 L1580.55 456.38 L1578.55 457.908 L1576.05 459.436 L1573.06 460.964 L1569.58 462.492 L1565.63 464.021 L1561.24 465.549 L1556.44 467.077 L1551.26 468.605 L1545.77 470.133 L1540 471.661 L1534.02 473.189 L1527.9 474.718 L1521.7 476.246 L1515.49 477.774 L1509.34 479.302 L1503.34 480.83 L1497.56 482.358 L1492.07 483.886 L1486.95 485.415 L1482.26 486.943 L1478.08 488.471 L1474.45 489.999 L1471.45 491.527 L1469.12 493.055 L1467.49 494.583 L1466.61 496.112 L1466.5 497.64 L2050.99 497.64  Z" fill="#e26f46" fill-rule="evenodd" fill-opacity="1"/>
<polyline clip-path="url(#clip461)" style="stroke:#000000; stroke-linecap:round; stroke-linejoin:round; stroke-width:4; stroke-opacity:1; fill:none" points="2050.99,497.64 2050.88,496.112 2050,494.583 2048.37,493.055 2046.04,491.527 2043.03,489.999 2039.41,488.471 2035.23,486.943 2030.54,485.415 2025.41,483.886 2019.93,482.358 2014.14,480.83 2008.14,479.302 2002,477.774 1995.79,476.246 1989.59,474.718 1983.46,473.189 1977.49,471.661 1971.72,470.133 1966.23,468.605 1961.05,467.077 1956.25,465.549 1951.86,464.021 1947.91,462.492 1944.43,460.964 1941.44,459.436 1938.94,457.908 1936.93,456.38 1935.42,454.852 1934.38,453.323 1933.8,451.795 1933.64,450.267 1933.88,448.739 1934.47,447.211 1935.37,445.683 1936.54,444.155 1937.92,442.626 1939.46,441.098 1941.1,439.57 1942.8,438.042 1944.48,436.514 1946.11,434.986 1947.62,433.458 1948.97,431.929 1950.11,430.401 1950.99,428.873 1951.58,427.345 1951.84,425.817 1951.73,424.289 1951.24,422.761 1950.34,421.232 1949.03,419.704 1947.29,418.176 1945.11,416.648 1572.38,416.648 1570.2,418.176 1568.46,419.704 1567.14,421.232 1566.25,422.761 1565.76,424.289 1565.65,425.817 1565.91,427.345 1566.5,428.873 1567.38,430.401 1568.52,431.929 1569.86,433.458 1571.38,434.986 1573,436.514 1574.69,438.042 1576.39,439.57 1578.03,441.098 1579.57,442.626 1580.95,444.155 1582.12,445.683 1583.02,447.211 1583.61,448.739 1583.85,450.267 1583.69,451.795 1583.11,453.323 1582.07,454.852 1580.55,456.38 1578.55,457.908 1576.05,459.436 1573.06,460.964 1569.58,462.492 1565.63,464.021 1561.24,465.549 1556.44,467.077 1551.26,468.605 1545.77,470.133 1540,471.661 1534.02,473.189 1527.9,474.718 1521.7,476.246 1515.49,477.774 1509.34,479.302 1503.34,480.83 1497.56,482.358 1492.07,483.886 1486.95,485.415 1482.26,486.943 1478.08,488.471 1474.45,489.999 1471.45,491.527 1469.12,493.055 1467.49,494.583 1466.61,496.112 1466.5,497.64 2050.99,497.64 "/>
<path clip-path="url(#clip461)" d="M3072.27 188.053 L3073.45 186.302 L3073.85 184.551 L3073.47 182.799 L3072.34 181.048 L3070.49 179.296 L3067.95 177.545 L3064.79 175.793 L3061.05 174.042 L3056.79 172.29 L3052.07 170.539 L3046.96 168.788 L3041.54 167.036 L3035.88 165.285 L3030.04 163.533 L3024.11 161.782 L3018.15 160.03 L3012.23 158.279 L3006.41 156.527 L3000.76 154.776 L2995.34 153.024 L2990.18 151.273 L2985.34 149.522 L2980.85 147.77 L2976.74 146.019 L2973.03 144.267 L2969.74 142.516 L2966.87 140.764 L2964.43 139.013 L2962.4 137.261 L2960.78 135.51 L2959.54 133.759 L2958.66 132.007 L2958.11 130.256 L2957.86 128.504 L2957.86 126.753 L2958.08 125.001 L2958.47 123.25 L2958.99 121.498 L2959.6 119.747 L2960.24 117.995 L2960.88 116.244 L2961.46 114.493 L2961.96 112.741 L2962.32 110.99 L2962.52 109.238 L2962.51 107.487 L2962.27 105.735 L2961.77 103.984 L2960.99 102.232 L2959.91 100.481 L2958.52 98.7295 L2956.8 96.9781 L2954.76 95.2266 L2952.38 93.4752 L2949.68 91.7237 L2946.65 89.9723 L2943.31 88.2208 L2619.89 88.2208 L2616.56 89.9723 L2613.53 91.7237 L2610.83 93.4752 L2608.45 95.2266 L2606.4 96.9781 L2604.69 98.7295 L2603.29 100.481 L2602.22 102.232 L2601.44 103.984 L2600.94 105.735 L2600.7 107.487 L2600.69 109.238 L2600.89 110.99 L2601.25 112.741 L2601.75 114.493 L2602.33 116.244 L2602.97 117.995 L2603.61 119.747 L2604.22 121.498 L2604.74 123.25 L2605.13 125.001 L2605.35 126.753 L2605.35 128.504 L2605.1 130.256 L2604.55 132.007 L2603.67 133.759 L2602.43 135.51 L2600.8 137.261 L2598.78 139.013 L2596.33 140.764 L2593.47 142.516 L2590.18 144.267 L2586.47 146.019 L2582.36 147.77 L2577.87 149.522 L2573.03 151.273 L2567.87 153.024 L2562.45 154.776 L2556.8 156.527 L2550.98 158.279 L2545.06 160.03 L2539.1 161.782 L2533.17 163.533 L2527.33 165.285 L2521.67 167.036 L2516.24 168.788 L2511.14 170.539 L2506.42 172.29 L2502.16 174.042 L2498.42 175.793 L2495.25 177.545 L2492.72 179.296 L2490.87 181.048 L2489.74 182.799 L2489.36 184.551 L2489.75 186.302 L2490.94 188.053 L3072.27 188.053  Z" fill="#3da44d" fill-rule="evenodd" fill-opacity="1"/>
<polyline clip-path="url(#clip461)" style="stroke:#000000; stroke-linecap:round; stroke-linejoin:round; stroke-width:4; stroke-opacity:1; fill:none" points="3072.27,188.053 3073.45,186.302 3073.85,184.551 3073.47,182.799 3072.34,181.048 3070.49,179.296 3067.95,177.545 3064.79,175.793 3061.05,174.042 3056.79,172.29 3052.07,170.539 3046.96,168.788 3041.54,167.036 3035.88,165.285 3030.04,163.533 3024.11,161.782 3018.15,160.03 3012.23,158.279 3006.41,156.527 3000.76,154.776 2995.34,153.024 2990.18,151.273 2985.34,149.522 2980.85,147.77 2976.74,146.019 2973.03,144.267 2969.74,142.516 2966.87,140.764 2964.43,139.013 2962.4,137.261 2960.78,135.51 2959.54,133.759 2958.66,132.007 2958.11,130.256 2957.86,128.504 2957.86,126.753 2958.08,125.001 2958.47,123.25 2958.99,121.498 2959.6,119.747 2960.24,117.995 2960.88,116.244 2961.46,114.493 2961.96,112.741 2962.32,110.99 2962.52,109.238 2962.51,107.487 2962.27,105.735 2961.77,103.984 2960.99,102.232 2959.91,100.481 2958.52,98.7295 2956.8,96.9781 2954.76,95.2266 2952.38,93.4752 2949.68,91.7237 2946.65,89.9723 2943.31,88.2208 2619.89,88.2208 2616.56,89.9723 2613.53,91.7237 2610.83,93.4752 2608.45,95.2266 2606.4,96.9781 2604.69,98.7295 2603.29,100.481 2602.22,102.232 2601.44,103.984 2600.94,105.735 2600.7,107.487 2600.69,109.238 2600.89,110.99 2601.25,112.741 2601.75,114.493 2602.33,116.244 2602.97,117.995 2603.61,119.747 2604.22,121.498 2604.74,123.25 2605.13,125.001 2605.35,126.753 2605.35,128.504 2605.1,130.256 2604.55,132.007 2603.67,133.759 2602.43,135.51 2600.8,137.261 2598.78,139.013 2596.33,140.764 2593.47,142.516 2590.18,144.267 2586.47,146.019 2582.36,147.77 2577.87,149.522 2573.03,151.273 2567.87,153.024 2562.45,154.776 2556.8,156.527 2550.98,158.279 2545.06,160.03 2539.1,161.782 2533.17,163.533 2527.33,165.285 2521.67,167.036 2516.24,168.788 2511.14,170.539 2506.42,172.29 2502.16,174.042 2498.42,175.793 2495.25,177.545 2492.72,179.296 2490.87,181.048 2489.74,182.799 2489.36,184.551 2489.75,186.302 2490.94,188.053 3072.27,188.053 "/>
</svg>
