<?xml version="1.0" encoding="utf-8"?>
<svg xmlns="http://www.w3.org/2000/svg" xmlns:xlink="http://www.w3.org/1999/xlink" width="800" height="400" viewBox="0 0 3200 1600">
<defs>
  <clipPath id="clip430">
    <rect x="0" y="0" width="3200" height="1600"/>
  </clipPath>
</defs>
<path clip-path="url(#clip430)" d="M0 1600 L3200 1600 L3200 0 L0 0  Z" fill="#ffffff" fill-rule="evenodd" fill-opacity="1"/>
<defs>
  <clipPath id="clip431">
    <rect x="365" y="47" width="2789" height="1449"/>
  </clipPath>
</defs>
<path clip-path="url(#clip430)" d="M365.106 1495.09 L3152.76 1495.09 L3152.76 47.2441 L365.106 47.2441  Z" fill="#ffffff" fill-rule="evenodd" fill-opacity="1"/>
<polyline clip-path="url(#clip431)" style="stroke:#000000; stroke-linecap:round; stroke-linejoin:round; stroke-width:2; stroke-opacity:0.1; fill:none" points="922.158,1495.09 922.158,47.2441 "/>
<polyline clip-path="url(#clip431)" style="stroke:#000000; stroke-linecap:round; stroke-linejoin:round; stroke-width:2; stroke-opacity:0.1; fill:none" points="2595.7,1495.09 2595.7,47.2441 "/>
<polyline clip-path="url(#clip431)" style="stroke:#000000; stroke-linecap:round; stroke-linejoin:round; stroke-width:2; stroke-opacity:0.1; fill:none" points="365.106,1331.97 3152.76,1331.97 "/>
<polyline clip-path="url(#clip431)" style="stroke:#000000; stroke-linecap:round; stroke-linejoin:round; stroke-width:2; stroke-opacity:0.1; fill:none" points="365.106,1138.69 3152.76,1138.69 "/>
<polyline clip-path="url(#clip431)" style="stroke:#000000; stroke-linecap:round; stroke-linejoin:round; stroke-width:2; stroke-opacity:0.1; fill:none" points="365.106,945.41 3152.76,945.41 "/>
<polyline clip-path="url(#clip431)" style="stroke:#000000; stroke-linecap:round; stroke-linejoin:round; stroke-width:2; stroke-opacity:0.1; fill:none" points="365.106,752.13 3152.76,752.13 "/>
<polyline clip-path="url(#clip431)" style="stroke:#000000; stroke-linecap:round; stroke-linejoin:round; stroke-width:2; stroke-opacity:0.1; fill:none" points="365.106,558.85 3152.76,558.85 "/>
<polyline clip-path="url(#clip431)" style="stroke:#000000; stroke-linecap:round; stroke-linejoin:round; stroke-width:2; stroke-opacity:0.1; fill:none" points="365.106,365.57 3152.76,365.57 "/>
<polyline clip-path="url(#clip431)" style="stroke:#000000; stroke-linecap:round; stroke-linejoin:round; stroke-width:2; stroke-opacity:0.1; fill:none" points="365.106,172.291 3152.76,172.291 "/>
<polyline clip-path="url(#clip430)" style="stroke:#000000; stroke-linecap:round; stroke-linejoin:round; stroke-width:4; stroke-opacity:1; fill:none" points="365.106,1495.09 3152.76,1495.09 "/>
<polyline clip-path="url(#clip430)" style="stroke:#000000; stroke-linecap:round; stroke-linejoin:round; stroke-width:4; stroke-opacity:1; fill:none" points="922.158,1495.09 922.158,1476.19 "/>
<polyline clip-path="url(#clip430)" style="stroke:#000000; stroke-linecap:round; stroke-linejoin:round; stroke-width:4; stroke-opacity:1; fill:none" points="2595.7,1495.09 2595.7,1476.19 "/>
<path clip-path="url(#clip430)" d="M827.413 1533.4 L815.607 1551.85 L827.413 1551.85 L827.413 1533.4 M826.186 1529.33 L832.066 1529.33 L832.066 1551.85 L836.996 1551.85 L836.996 1555.74 L832.066 1555.74 L832.066 1563.89 L827.413 1563.89 L827.413 1555.74 L811.811 1555.74 L811.811 1551.23 L826.186 1529.33 Z" fill="#000000" fill-rule="nonzero" fill-opacity="1" /><path clip-path="url(#clip430)" d="M863.408 1530.6 L863.408 1537.96 L872.181 1537.96 L872.181 1541.27 L863.408 1541.27 L863.408 1555.35 Q863.408 1558.52 864.264 1559.42 Q865.144 1560.32 867.806 1560.32 L872.181 1560.32 L872.181 1563.89 L867.806 1563.89 Q862.876 1563.89 861.001 1562.06 Q859.126 1560.21 859.126 1555.35 L859.126 1541.27 L856.001 1541.27 L856.001 1537.96 L859.126 1537.96 L859.126 1530.6 L863.408 1530.6 Z" fill="#000000" fill-rule="nonzero" fill-opacity="1" /><path clip-path="url(#clip430)" d="M899.334 1548.24 L899.334 1563.89 L895.075 1563.89 L895.075 1548.38 Q895.075 1544.7 893.639 1542.87 Q892.204 1541.04 889.334 1541.04 Q885.885 1541.04 883.894 1543.24 Q881.903 1545.44 881.903 1549.24 L881.903 1563.89 L877.621 1563.89 L877.621 1527.87 L881.903 1527.87 L881.903 1541.99 Q883.431 1539.65 885.491 1538.49 Q887.575 1537.34 890.283 1537.34 Q894.75 1537.34 897.042 1540.11 Q899.334 1542.87 899.334 1548.24 Z" fill="#000000" fill-rule="nonzero" fill-opacity="1" /><path clip-path="url(#clip430)" d="M922.852 1541.94 Q922.135 1541.53 921.278 1541.34 Q920.445 1541.13 919.426 1541.13 Q915.815 1541.13 913.871 1543.49 Q911.949 1545.83 911.949 1550.23 L911.949 1563.89 L907.667 1563.89 L907.667 1537.96 L911.949 1537.96 L911.949 1541.99 Q913.292 1539.63 915.445 1538.49 Q917.598 1537.34 920.676 1537.34 Q921.116 1537.34 921.648 1537.41 Q922.181 1537.45 922.829 1537.57 L922.852 1541.94 Z" fill="#000000" fill-rule="nonzero" fill-opacity="1" /><path clip-path="url(#clip430)" d="M948.454 1549.86 L948.454 1551.94 L928.871 1551.94 Q929.148 1556.34 931.509 1558.66 Q933.894 1560.95 938.13 1560.95 Q940.584 1560.95 942.875 1560.35 Q945.19 1559.74 947.458 1558.54 L947.458 1562.57 Q945.167 1563.54 942.759 1564.05 Q940.352 1564.56 937.875 1564.56 Q931.672 1564.56 928.037 1560.95 Q924.426 1557.34 924.426 1551.18 Q924.426 1544.81 927.852 1541.09 Q931.301 1537.34 937.134 1537.34 Q942.366 1537.34 945.398 1540.72 Q948.454 1544.07 948.454 1549.86 M944.195 1548.61 Q944.148 1545.11 942.227 1543.03 Q940.329 1540.95 937.181 1540.95 Q933.616 1540.95 931.463 1542.96 Q929.334 1544.98 929.01 1548.63 L944.195 1548.61 Z" fill="#000000" fill-rule="nonzero" fill-opacity="1" /><path clip-path="url(#clip430)" d="M967.227 1550.86 Q962.065 1550.86 960.074 1552.04 Q958.083 1553.22 958.083 1556.06 Q958.083 1558.33 959.565 1559.67 Q961.07 1560.99 963.639 1560.99 Q967.181 1560.99 969.31 1558.49 Q971.463 1555.97 971.463 1551.8 L971.463 1550.86 L967.227 1550.86 M975.722 1549.1 L975.722 1563.89 L971.463 1563.89 L971.463 1559.95 Q970.005 1562.31 967.829 1563.45 Q965.653 1564.56 962.505 1564.56 Q958.523 1564.56 956.162 1562.34 Q953.824 1560.09 953.824 1556.34 Q953.824 1551.97 956.741 1549.74 Q959.681 1547.52 965.491 1547.52 L971.463 1547.52 L971.463 1547.11 Q971.463 1544.17 969.519 1542.57 Q967.597 1540.95 964.102 1540.95 Q961.88 1540.95 959.773 1541.48 Q957.667 1542.01 955.722 1543.08 L955.722 1539.14 Q958.06 1538.24 960.259 1537.8 Q962.458 1537.34 964.542 1537.34 Q970.167 1537.34 972.944 1540.25 Q975.722 1543.17 975.722 1549.1 Z" fill="#000000" fill-rule="nonzero" fill-opacity="1" /><path clip-path="url(#clip430)" d="M1001.56 1541.9 L1001.56 1527.87 L1005.81 1527.87 L1005.81 1563.89 L1001.56 1563.89 L1001.56 1560 Q1000.21 1562.31 998.153 1563.45 Q996.116 1564.56 993.245 1564.56 Q988.546 1564.56 985.583 1560.81 Q982.643 1557.06 982.643 1550.95 Q982.643 1544.84 985.583 1541.09 Q988.546 1537.34 993.245 1537.34 Q996.116 1537.34 998.153 1538.47 Q1000.21 1539.58 1001.56 1541.9 M987.042 1550.95 Q987.042 1555.65 988.963 1558.33 Q990.907 1560.99 994.287 1560.99 Q997.667 1560.99 999.611 1558.33 Q1001.56 1555.65 1001.56 1550.95 Q1001.56 1546.25 999.611 1543.59 Q997.667 1540.9 994.287 1540.9 Q990.907 1540.9 988.963 1543.59 Q987.042 1546.25 987.042 1550.95 Z" fill="#000000" fill-rule="nonzero" fill-opacity="1" /><path clip-path="url(#clip430)" d="M1031.12 1538.73 L1031.12 1542.75 Q1029.31 1541.83 1027.37 1541.36 Q1025.42 1540.9 1023.34 1540.9 Q1020.17 1540.9 1018.57 1541.87 Q1017 1542.85 1017 1544.79 Q1017 1546.27 1018.13 1547.13 Q1019.26 1547.96 1022.69 1548.73 L1024.15 1549.05 Q1028.68 1550.02 1030.58 1551.8 Q1032.5 1553.56 1032.5 1556.74 Q1032.5 1560.35 1029.63 1562.45 Q1026.79 1564.56 1021.79 1564.56 Q1019.7 1564.56 1017.43 1564.14 Q1015.19 1563.75 1012.69 1562.94 L1012.69 1558.54 Q1015.05 1559.77 1017.34 1560.39 Q1019.63 1560.99 1021.88 1560.99 Q1024.89 1560.99 1026.51 1559.98 Q1028.13 1558.93 1028.13 1557.06 Q1028.13 1555.32 1026.95 1554.4 Q1025.79 1553.47 1021.83 1552.61 L1020.35 1552.27 Q1016.39 1551.43 1014.63 1549.72 Q1012.87 1547.99 1012.87 1544.98 Q1012.87 1541.32 1015.47 1539.33 Q1018.06 1537.34 1022.83 1537.34 Q1025.19 1537.34 1027.27 1537.68 Q1029.36 1538.03 1031.12 1538.73 Z" fill="#000000" fill-rule="nonzero" fill-opacity="1" /><path clip-path="url(#clip430)" d="M2500.82 1559.95 L2508.46 1559.95 L2508.46 1533.59 L2500.15 1535.25 L2500.15 1530.99 L2508.41 1529.33 L2513.09 1529.33 L2513.09 1559.95 L2520.73 1559.95 L2520.73 1563.89 L2500.82 1563.89 L2500.82 1559.95 Z" fill="#000000" fill-rule="nonzero" fill-opacity="1" /><path clip-path="url(#clip430)" d="M2548.85 1530.6 L2548.85 1537.96 L2557.63 1537.96 L2557.63 1541.27 L2548.85 1541.27 L2548.85 1555.35 Q2548.85 1558.52 2549.71 1559.42 Q2550.59 1560.32 2553.25 1560.32 L2557.63 1560.32 L2557.63 1563.89 L2553.25 1563.89 Q2548.32 1563.89 2546.45 1562.06 Q2544.57 1560.21 2544.57 1555.35 L2544.57 1541.27 L2541.45 1541.27 L2541.45 1537.96 L2544.57 1537.96 L2544.57 1530.6 L2548.85 1530.6 Z" fill="#000000" fill-rule="nonzero" fill-opacity="1" /><path clip-path="url(#clip430)" d="M2584.78 1548.24 L2584.78 1563.89 L2580.52 1563.89 L2580.52 1548.38 Q2580.52 1544.7 2579.08 1542.87 Q2577.65 1541.04 2574.78 1541.04 Q2571.33 1541.04 2569.34 1543.24 Q2567.35 1545.44 2567.35 1549.24 L2567.35 1563.89 L2563.07 1563.89 L2563.07 1527.87 L2567.35 1527.87 L2567.35 1541.99 Q2568.88 1539.65 2570.94 1538.49 Q2573.02 1537.34 2575.73 1537.34 Q2580.19 1537.34 2582.49 1540.11 Q2584.78 1542.87 2584.78 1548.24 Z" fill="#000000" fill-rule="nonzero" fill-opacity="1" /><path clip-path="url(#clip430)" d="M2608.3 1541.94 Q2607.58 1541.53 2606.72 1541.34 Q2605.89 1541.13 2604.87 1541.13 Q2601.26 1541.13 2599.32 1543.49 Q2597.39 1545.83 2597.39 1550.23 L2597.39 1563.89 L2593.11 1563.89 L2593.11 1537.96 L2597.39 1537.96 L2597.39 1541.99 Q2598.74 1539.63 2600.89 1538.49 Q2603.04 1537.34 2606.12 1537.34 Q2606.56 1537.34 2607.09 1537.41 Q2607.63 1537.45 2608.27 1537.57 L2608.3 1541.94 Z" fill="#000000" fill-rule="nonzero" fill-opacity="1" /><path clip-path="url(#clip430)" d="M2633.9 1549.86 L2633.9 1551.94 L2614.32 1551.94 Q2614.59 1556.34 2616.95 1558.66 Q2619.34 1560.95 2623.57 1560.95 Q2626.03 1560.95 2628.32 1560.35 Q2630.63 1559.74 2632.9 1558.54 L2632.9 1562.57 Q2630.61 1563.54 2628.2 1564.05 Q2625.8 1564.56 2623.32 1564.56 Q2617.12 1564.56 2613.48 1560.95 Q2609.87 1557.34 2609.87 1551.18 Q2609.87 1544.81 2613.3 1541.09 Q2616.75 1537.34 2622.58 1537.34 Q2627.81 1537.34 2630.84 1540.72 Q2633.9 1544.07 2633.9 1549.86 M2629.64 1548.61 Q2629.59 1545.11 2627.67 1543.03 Q2625.77 1540.95 2622.63 1540.95 Q2619.06 1540.95 2616.91 1542.96 Q2614.78 1544.98 2614.45 1548.63 L2629.64 1548.61 Z" fill="#000000" fill-rule="nonzero" fill-opacity="1" /><path clip-path="url(#clip430)" d="M2652.67 1550.86 Q2647.51 1550.86 2645.52 1552.04 Q2643.53 1553.22 2643.53 1556.06 Q2643.53 1558.33 2645.01 1559.67 Q2646.51 1560.99 2649.08 1560.99 Q2652.63 1560.99 2654.75 1558.49 Q2656.91 1555.97 2656.91 1551.8 L2656.91 1550.86 L2652.67 1550.86 M2661.17 1549.1 L2661.17 1563.89 L2656.91 1563.89 L2656.91 1559.95 Q2655.45 1562.31 2653.27 1563.45 Q2651.1 1564.56 2647.95 1564.56 Q2643.97 1564.56 2641.61 1562.34 Q2639.27 1560.09 2639.27 1556.34 Q2639.27 1551.97 2642.19 1549.74 Q2645.13 1547.52 2650.94 1547.52 L2656.91 1547.52 L2656.91 1547.11 Q2656.91 1544.17 2654.96 1542.57 Q2653.04 1540.95 2649.55 1540.95 Q2647.32 1540.95 2645.22 1541.48 Q2643.11 1542.01 2641.17 1543.08 L2641.17 1539.14 Q2643.5 1538.24 2645.7 1537.8 Q2647.9 1537.34 2649.99 1537.34 Q2655.61 1537.34 2658.39 1540.25 Q2661.17 1543.17 2661.17 1549.1 Z" fill="#000000" fill-rule="nonzero" fill-opacity="1" /><path clip-path="url(#clip430)" d="M2687 1541.9 L2687 1527.87 L2691.26 1527.87 L2691.26 1563.89 L2687 1563.89 L2687 1560 Q2685.66 1562.31 2683.6 1563.45 Q2681.56 1564.56 2678.69 1564.56 Q2673.99 1564.56 2671.03 1560.81 Q2668.09 1557.06 2668.09 1550.95 Q2668.09 1544.84 2671.03 1541.09 Q2673.99 1537.34 2678.69 1537.34 Q2681.56 1537.34 2683.6 1538.47 Q2685.66 1539.58 2687 1541.9 M2672.49 1550.95 Q2672.49 1555.65 2674.41 1558.33 Q2676.35 1560.99 2679.73 1560.99 Q2683.11 1560.99 2685.06 1558.33 Q2687 1555.65 2687 1550.95 Q2687 1546.25 2685.06 1543.59 Q2683.11 1540.9 2679.73 1540.9 Q2676.35 1540.9 2674.41 1543.59 Q2672.49 1546.25 2672.49 1550.95 Z" fill="#000000" fill-rule="nonzero" fill-opacity="1" /><polyline clip-path="url(#clip430)" style="stroke:#000000; stroke-linecap:round; stroke-linejoin:round; stroke-width:4; stroke-opacity:1; fill:none" points="365.106,1495.09 365.106,47.2441 "/>
<polyline clip-path="url(#clip430)" style="stroke:#000000; stroke-linecap:round; stroke-linejoin:round; stroke-width:4; stroke-opacity:1; fill:none" points="365.106,1331.97 384.003,1331.97 "/>
<polyline clip-path="url(#clip430)" style="stroke:#000000; stroke-linecap:round; stroke-linejoin:round; stroke-width:4; stroke-opacity:1; fill:none" points="365.106,1138.69 384.003,1138.69 "/>
<polyline clip-path="url(#clip430)" style="stroke:#000000; stroke-linecap:round; stroke-linejoin:round; stroke-width:4; stroke-opacity:1; fill:none" points="365.106,945.41 384.003,945.41 "/>
<polyline clip-path="url(#clip430)" style="stroke:#000000; stroke-linecap:round; stroke-linejoin:round; stroke-width:4; stroke-opacity:1; fill:none" points="365.106,752.13 384.003,752.13 "/>
<polyline clip-path="url(#clip430)" style="stroke:#000000; stroke-linecap:round; stroke-linejoin:round; stroke-width:4; stroke-opacity:1; fill:none" points="365.106,558.85 384.003,558.85 "/>
<polyline clip-path="url(#clip430)" style="stroke:#000000; stroke-linecap:round; stroke-linejoin:round; stroke-width:4; stroke-opacity:1; fill:none" points="365.106,365.57 384.003,365.57 "/>
<polyline clip-path="url(#clip430)" style="stroke:#000000; stroke-linecap:round; stroke-linejoin:round; stroke-width:4; stroke-opacity:1; fill:none" points="365.106,172.291 384.003,172.291 "/>
<path clip-path="url(#clip430)" d="M100.51 1321.14 L118.866 1321.14 L118.866 1325.07 L104.792 1325.07 L104.792 1333.54 Q105.811 1333.2 106.829 1333.03 Q107.848 1332.85 108.866 1332.85 Q114.653 1332.85 118.033 1336.02 Q121.412 1339.19 121.412 1344.61 Q121.412 1350.19 117.94 1353.29 Q114.468 1356.37 108.149 1356.37 Q105.973 1356.37 103.704 1356 Q101.459 1355.63 99.0515 1354.89 L99.0515 1350.19 Q101.135 1351.32 103.357 1351.88 Q105.579 1352.43 108.056 1352.43 Q112.061 1352.43 114.399 1350.33 Q116.737 1348.22 116.737 1344.61 Q116.737 1341 114.399 1338.89 Q112.061 1336.78 108.056 1336.78 Q106.181 1336.78 104.306 1337.2 Q102.454 1337.62 100.51 1338.5 L100.51 1321.14 Z" fill="#000000" fill-rule="nonzero" fill-opacity="1" /><path clip-path="url(#clip430)" d="M130.625 1349.82 L135.51 1349.82 L135.51 1355.7 L130.625 1355.7 L130.625 1349.82 Z" fill="#000000" fill-rule="nonzero" fill-opacity="1" /><path clip-path="url(#clip430)" d="M155.695 1324.22 Q152.084 1324.22 150.255 1327.78 Q148.449 1331.32 148.449 1338.45 Q148.449 1345.56 150.255 1349.12 Q152.084 1352.66 155.695 1352.66 Q159.329 1352.66 161.134 1349.12 Q162.963 1345.56 162.963 1338.45 Q162.963 1331.32 161.134 1327.78 Q159.329 1324.22 155.695 1324.22 M155.695 1320.51 Q161.505 1320.51 164.56 1325.12 Q167.639 1329.7 167.639 1338.45 Q167.639 1347.18 164.56 1351.78 Q161.505 1356.37 155.695 1356.37 Q149.885 1356.37 146.806 1351.78 Q143.75 1347.18 143.75 1338.45 Q143.75 1329.7 146.806 1325.12 Q149.885 1320.51 155.695 1320.51 Z" fill="#000000" fill-rule="nonzero" fill-opacity="1" /><path clip-path="url(#clip430)" d="M185.857 1324.22 Q182.245 1324.22 180.417 1327.78 Q178.611 1331.32 178.611 1338.45 Q178.611 1345.56 180.417 1349.12 Q182.245 1352.66 185.857 1352.66 Q189.491 1352.66 191.296 1349.12 Q193.125 1345.56 193.125 1338.45 Q193.125 1331.32 191.296 1327.78 Q189.491 1324.22 185.857 1324.22 M185.857 1320.51 Q191.667 1320.51 194.722 1325.12 Q197.801 1329.7 197.801 1338.45 Q197.801 1347.18 194.722 1351.78 Q191.667 1356.37 185.857 1356.37 Q180.046 1356.37 176.968 1351.78 Q173.912 1347.18 173.912 1338.45 Q173.912 1329.7 176.968 1325.12 Q180.046 1320.51 185.857 1320.51 Z" fill="#000000" fill-rule="nonzero" fill-opacity="1" /><path clip-path="url(#clip430)" d="M234.19 1330.23 L223.611 1340.86 L234.19 1351.44 L231.435 1354.24 L220.81 1343.61 L210.185 1354.24 L207.454 1351.44 L218.009 1340.86 L207.454 1330.23 L210.185 1327.43 L220.81 1338.06 L231.435 1327.43 L234.19 1330.23 Z" fill="#000000" fill-rule="nonzero" fill-opacity="1" /><path clip-path="url(#clip430)" d="M246.551 1351.76 L254.19 1351.76 L254.19 1325.4 L245.879 1327.06 L245.879 1322.8 L254.143 1321.14 L258.819 1321.14 L258.819 1351.76 L266.458 1351.76 L266.458 1355.7 L246.551 1355.7 L246.551 1351.76 Z" fill="#000000" fill-rule="nonzero" fill-opacity="1" /><path clip-path="url(#clip430)" d="M285.902 1324.22 Q282.291 1324.22 280.463 1327.78 Q278.657 1331.32 278.657 1338.45 Q278.657 1345.56 280.463 1349.12 Q282.291 1352.66 285.902 1352.66 Q289.537 1352.66 291.342 1349.12 Q293.171 1345.56 293.171 1338.45 Q293.171 1331.32 291.342 1327.78 Q289.537 1324.22 285.902 1324.22 M285.902 1320.51 Q291.712 1320.51 294.768 1325.12 Q297.847 1329.7 297.847 1338.45 Q297.847 1347.18 294.768 1351.78 Q291.712 1356.37 285.902 1356.37 Q280.092 1356.37 277.013 1351.78 Q273.958 1347.18 273.958 1338.45 Q273.958 1329.7 277.013 1325.12 Q280.092 1320.51 285.902 1320.51 Z" fill="#000000" fill-rule="nonzero" fill-opacity="1" /><path clip-path="url(#clip430)" d="M307.476 1314.95 Q304.768 1314.95 303.207 1316.4 Q301.665 1317.85 301.665 1320.39 Q301.665 1322.93 303.207 1324.37 Q304.768 1325.82 307.476 1325.82 Q310.185 1325.82 311.746 1324.37 Q313.307 1322.91 313.307 1320.39 Q313.307 1317.85 311.746 1316.4 Q310.203 1314.95 307.476 1314.95 M303.677 1313.33 Q301.232 1312.73 299.859 1311.06 Q298.505 1309.38 298.505 1306.98 Q298.505 1303.61 300.894 1301.65 Q303.301 1299.7 307.476 1299.7 Q311.67 1299.7 314.059 1301.65 Q316.448 1303.61 316.448 1306.98 Q316.448 1309.38 315.075 1311.06 Q313.72 1312.73 311.294 1313.33 Q314.04 1313.97 315.564 1315.84 Q317.106 1317.7 317.106 1320.39 Q317.106 1324.47 314.604 1326.65 Q312.122 1328.83 307.476 1328.83 Q302.831 1328.83 300.329 1326.65 Q297.847 1324.47 297.847 1320.39 Q297.847 1317.7 299.389 1315.84 Q300.931 1313.97 303.677 1313.33 M302.285 1307.33 Q302.285 1309.52 303.639 1310.74 Q305.012 1311.96 307.476 1311.96 Q309.921 1311.96 311.294 1310.74 Q312.686 1309.52 312.686 1307.33 Q312.686 1305.15 311.294 1303.93 Q309.921 1302.71 307.476 1302.71 Q305.012 1302.71 303.639 1303.93 Q302.285 1305.15 302.285 1307.33 Z" fill="#000000" fill-rule="nonzero" fill-opacity="1" /><path clip-path="url(#clip430)" d="M111.042 1143.27 Q107.894 1143.27 106.042 1145.43 Q104.213 1147.58 104.213 1151.33 Q104.213 1155.06 106.042 1157.23 Q107.894 1159.38 111.042 1159.38 Q114.19 1159.38 116.019 1157.23 Q117.871 1155.06 117.871 1151.33 Q117.871 1147.58 116.019 1145.43 Q114.19 1143.27 111.042 1143.27 M120.324 1128.62 L120.324 1132.88 Q118.565 1132.05 116.76 1131.61 Q114.977 1131.17 113.218 1131.17 Q108.588 1131.17 106.135 1134.29 Q103.704 1137.42 103.357 1143.74 Q104.723 1141.72 106.783 1140.66 Q108.843 1139.57 111.32 1139.57 Q116.528 1139.57 119.537 1142.74 Q122.57 1145.89 122.57 1151.33 Q122.57 1156.65 119.422 1159.87 Q116.274 1163.09 111.042 1163.09 Q105.047 1163.09 101.876 1158.51 Q98.7042 1153.9 98.7042 1145.17 Q98.7042 1136.98 102.593 1132.12 Q106.482 1127.23 113.033 1127.23 Q114.792 1127.23 116.575 1127.58 Q118.38 1127.93 120.324 1128.62 Z" fill="#000000" fill-rule="nonzero" fill-opacity="1" /><path clip-path="url(#clip430)" d="M130.625 1156.54 L135.51 1156.54 L135.51 1162.42 L130.625 1162.42 L130.625 1156.54 Z" fill="#000000" fill-rule="nonzero" fill-opacity="1" /><path clip-path="url(#clip430)" d="M155.695 1130.94 Q152.084 1130.94 150.255 1134.5 Q148.449 1138.04 148.449 1145.17 Q148.449 1152.28 150.255 1155.84 Q152.084 1159.38 155.695 1159.38 Q159.329 1159.38 161.134 1155.84 Q162.963 1152.28 162.963 1145.17 Q162.963 1138.04 161.134 1134.5 Q159.329 1130.94 155.695 1130.94 M155.695 1127.23 Q161.505 1127.23 164.56 1131.84 Q167.639 1136.42 167.639 1145.17 Q167.639 1153.9 164.56 1158.51 Q161.505 1163.09 155.695 1163.09 Q149.885 1163.09 146.806 1158.51 Q143.75 1153.9 143.75 1145.17 Q143.75 1136.42 146.806 1131.84 Q149.885 1127.23 155.695 1127.23 Z" fill="#000000" fill-rule="nonzero" fill-opacity="1" /><path clip-path="url(#clip430)" d="M185.857 1130.94 Q182.245 1130.94 180.417 1134.5 Q178.611 1138.04 178.611 1145.17 Q178.611 1152.28 180.417 1155.84 Q182.245 1159.38 185.857 1159.38 Q189.491 1159.38 191.296 1155.84 Q193.125 1152.28 193.125 1145.17 Q193.125 1138.04 191.296 1134.5 Q189.491 1130.94 185.857 1130.94 M185.857 1127.23 Q191.667 1127.23 194.722 1131.84 Q197.801 1136.42 197.801 1145.17 Q197.801 1153.9 194.722 1158.51 Q191.667 1163.09 185.857 1163.09 Q180.046 1163.09 176.968 1158.51 Q173.912 1153.9 173.912 1145.17 Q173.912 1136.42 176.968 1131.84 Q180.046 1127.23 185.857 1127.23 Z" fill="#000000" fill-rule="nonzero" fill-opacity="1" /><path clip-path="url(#clip430)" d="M234.19 1136.95 L223.611 1147.58 L234.19 1158.16 L231.435 1160.96 L220.81 1150.33 L210.185 1160.96 L207.454 1158.16 L218.009 1147.58 L207.454 1136.95 L210.185 1134.15 L220.81 1144.78 L231.435 1134.15 L234.19 1136.95 Z" fill="#000000" fill-rule="nonzero" fill-opacity="1" /><path clip-path="url(#clip430)" d="M246.551 1158.48 L254.19 1158.48 L254.19 1132.12 L245.879 1133.78 L245.879 1129.52 L254.143 1127.86 L258.819 1127.86 L258.819 1158.48 L266.458 1158.48 L266.458 1162.42 L246.551 1162.42 L246.551 1158.48 Z" fill="#000000" fill-rule="nonzero" fill-opacity="1" /><path clip-path="url(#clip430)" d="M285.902 1130.94 Q282.291 1130.94 280.463 1134.5 Q278.657 1138.04 278.657 1145.17 Q278.657 1152.28 280.463 1155.84 Q282.291 1159.38 285.902 1159.38 Q289.537 1159.38 291.342 1155.84 Q293.171 1152.28 293.171 1145.17 Q293.171 1138.04 291.342 1134.5 Q289.537 1130.94 285.902 1130.94 M285.902 1127.23 Q291.712 1127.23 294.768 1131.84 Q297.847 1136.42 297.847 1145.17 Q297.847 1153.9 294.768 1158.51 Q291.712 1163.09 285.902 1163.09 Q280.092 1163.09 277.013 1158.51 Q273.958 1153.9 273.958 1145.17 Q273.958 1136.42 277.013 1131.84 Q280.092 1127.23 285.902 1127.23 Z" fill="#000000" fill-rule="nonzero" fill-opacity="1" /><path clip-path="url(#clip430)" d="M307.476 1121.67 Q304.768 1121.67 303.207 1123.12 Q301.665 1124.57 301.665 1127.11 Q301.665 1129.65 303.207 1131.09 Q304.768 1132.54 307.476 1132.54 Q310.185 1132.54 311.746 1131.09 Q313.307 1129.63 313.307 1127.11 Q313.307 1124.57 311.746 1123.12 Q310.203 1121.67 307.476 1121.67 M303.677 1120.05 Q301.232 1119.45 299.859 1117.78 Q298.505 1116.1 298.505 1113.7 Q298.505 1110.33 300.894 1108.37 Q303.301 1106.42 307.476 1106.42 Q311.67 1106.42 314.059 1108.37 Q316.448 1110.33 316.448 1113.7 Q316.448 1116.1 315.075 1117.78 Q313.72 1119.45 311.294 1120.05 Q314.04 1120.69 315.564 1122.56 Q317.106 1124.42 317.106 1127.11 Q317.106 1131.19 314.604 1133.37 Q312.122 1135.55 307.476 1135.55 Q302.831 1135.55 300.329 1133.37 Q297.847 1131.19 297.847 1127.11 Q297.847 1124.42 299.389 1122.56 Q300.931 1120.69 303.677 1120.05 M302.285 1114.05 Q302.285 1116.24 303.639 1117.46 Q305.012 1118.68 307.476 1118.68 Q309.921 1118.68 311.294 1117.46 Q312.686 1116.24 312.686 1114.05 Q312.686 1111.87 311.294 1110.65 Q309.921 1109.43 307.476 1109.43 Q305.012 1109.43 303.639 1110.65 Q302.285 1111.87 302.285 1114.05 Z" fill="#000000" fill-rule="nonzero" fill-opacity="1" /><path clip-path="url(#clip430)" d="M99.2829 934.577 L121.505 934.577 L121.505 936.568 L108.959 969.137 L104.075 969.137 L115.88 938.512 L99.2829 938.512 L99.2829 934.577 Z" fill="#000000" fill-rule="nonzero" fill-opacity="1" /><path clip-path="url(#clip430)" d="M130.625 963.258 L135.51 963.258 L135.51 969.137 L130.625 969.137 L130.625 963.258 Z" fill="#000000" fill-rule="nonzero" fill-opacity="1" /><path clip-path="url(#clip430)" d="M155.695 937.656 Q152.084 937.656 150.255 941.221 Q148.449 944.762 148.449 951.892 Q148.449 958.998 150.255 962.563 Q152.084 966.105 155.695 966.105 Q159.329 966.105 161.134 962.563 Q162.963 958.998 162.963 951.892 Q162.963 944.762 161.134 941.221 Q159.329 937.656 155.695 937.656 M155.695 933.952 Q161.505 933.952 164.56 938.559 Q167.639 943.142 167.639 951.892 Q167.639 960.619 164.56 965.225 Q161.505 969.809 155.695 969.809 Q149.885 969.809 146.806 965.225 Q143.75 960.619 143.75 951.892 Q143.75 943.142 146.806 938.559 Q149.885 933.952 155.695 933.952 Z" fill="#000000" fill-rule="nonzero" fill-opacity="1" /><path clip-path="url(#clip430)" d="M185.857 937.656 Q182.245 937.656 180.417 941.221 Q178.611 944.762 178.611 951.892 Q178.611 958.998 180.417 962.563 Q182.245 966.105 185.857 966.105 Q189.491 966.105 191.296 962.563 Q193.125 958.998 193.125 951.892 Q193.125 944.762 191.296 941.221 Q189.491 937.656 185.857 937.656 M185.857 933.952 Q191.667 933.952 194.722 938.559 Q197.801 943.142 197.801 951.892 Q197.801 960.619 194.722 965.225 Q191.667 969.809 185.857 969.809 Q180.046 969.809 176.968 965.225 Q173.912 960.619 173.912 951.892 Q173.912 943.142 176.968 938.559 Q180.046 933.952 185.857 933.952 Z" fill="#000000" fill-rule="nonzero" fill-opacity="1" /><path clip-path="url(#clip430)" d="M234.19 943.674 L223.611 954.299 L234.19 964.878 L231.435 967.679 L220.81 957.054 L210.185 967.679 L207.454 964.878 L218.009 954.299 L207.454 943.674 L210.185 940.874 L220.81 951.498 L231.435 940.874 L234.19 943.674 Z" fill="#000000" fill-rule="nonzero" fill-opacity="1" /><path clip-path="url(#clip430)" d="M246.551 965.202 L254.19 965.202 L254.19 938.836 L245.879 940.503 L245.879 936.244 L254.143 934.577 L258.819 934.577 L258.819 965.202 L266.458 965.202 L266.458 969.137 L246.551 969.137 L246.551 965.202 Z" fill="#000000" fill-rule="nonzero" fill-opacity="1" /><path clip-path="url(#clip430)" d="M285.902 937.656 Q282.291 937.656 280.463 941.221 Q278.657 944.762 278.657 951.892 Q278.657 958.998 280.463 962.563 Q282.291 966.105 285.902 966.105 Q289.537 966.105 291.342 962.563 Q293.171 958.998 293.171 951.892 Q293.171 944.762 291.342 941.221 Q289.537 937.656 285.902 937.656 M285.902 933.952 Q291.712 933.952 294.768 938.559 Q297.847 943.142 297.847 951.892 Q297.847 960.619 294.768 965.225 Q291.712 969.809 285.902 969.809 Q280.092 969.809 277.013 965.225 Q273.958 960.619 273.958 951.892 Q273.958 943.142 277.013 938.559 Q280.092 933.952 285.902 933.952 Z" fill="#000000" fill-rule="nonzero" fill-opacity="1" /><path clip-path="url(#clip430)" d="M307.476 928.392 Q304.768 928.392 303.207 929.84 Q301.665 931.289 301.665 933.828 Q301.665 936.367 303.207 937.815 Q304.768 939.263 307.476 939.263 Q310.185 939.263 311.746 937.815 Q313.307 936.348 313.307 933.828 Q313.307 931.289 311.746 929.84 Q310.203 928.392 307.476 928.392 M303.677 926.775 Q301.232 926.173 299.859 924.499 Q298.505 922.825 298.505 920.418 Q298.505 917.051 300.894 915.095 Q303.301 913.139 307.476 913.139 Q311.67 913.139 314.059 915.095 Q316.448 917.051 316.448 920.418 Q316.448 922.825 315.075 924.499 Q313.72 926.173 311.294 926.775 Q314.04 927.414 315.564 929.276 Q317.106 931.138 317.106 933.828 Q317.106 937.909 314.604 940.091 Q312.122 942.272 307.476 942.272 Q302.831 942.272 300.329 940.091 Q297.847 937.909 297.847 933.828 Q297.847 931.138 299.389 929.276 Q300.931 927.414 303.677 926.775 M302.285 920.775 Q302.285 922.957 303.639 924.179 Q305.012 925.402 307.476 925.402 Q309.921 925.402 311.294 924.179 Q312.686 922.957 312.686 920.775 Q312.686 918.593 311.294 917.371 Q309.921 916.148 307.476 916.148 Q305.012 916.148 303.639 917.371 Q302.285 918.593 302.285 920.775 Z" fill="#000000" fill-rule="nonzero" fill-opacity="1" /><path clip-path="url(#clip430)" d="M110.463 759.446 Q107.13 759.446 105.209 761.228 Q103.311 763.01 103.311 766.135 Q103.311 769.26 105.209 771.043 Q107.13 772.825 110.463 772.825 Q113.797 772.825 115.718 771.043 Q117.639 769.237 117.639 766.135 Q117.639 763.01 115.718 761.228 Q113.82 759.446 110.463 759.446 M105.788 757.455 Q102.778 756.714 101.088 754.654 Q99.4218 752.594 99.4218 749.631 Q99.4218 745.487 102.362 743.08 Q105.325 740.672 110.463 740.672 Q115.625 740.672 118.565 743.08 Q121.505 745.487 121.505 749.631 Q121.505 752.594 119.815 754.654 Q118.149 756.714 115.162 757.455 Q118.542 758.242 120.417 760.533 Q122.315 762.825 122.315 766.135 Q122.315 771.158 119.237 773.844 Q116.181 776.529 110.463 776.529 Q104.746 776.529 101.667 773.844 Q98.6116 771.158 98.6116 766.135 Q98.6116 762.825 100.51 760.533 Q102.408 758.242 105.788 757.455 M104.075 750.071 Q104.075 752.756 105.741 754.26 Q107.431 755.765 110.463 755.765 Q113.473 755.765 115.162 754.26 Q116.875 752.756 116.875 750.071 Q116.875 747.385 115.162 745.881 Q113.473 744.376 110.463 744.376 Q107.431 744.376 105.741 745.881 Q104.075 747.385 104.075 750.071 Z" fill="#000000" fill-rule="nonzero" fill-opacity="1" /><path clip-path="url(#clip430)" d="M130.625 769.978 L135.51 769.978 L135.51 775.857 L130.625 775.857 L130.625 769.978 Z" fill="#000000" fill-rule="nonzero" fill-opacity="1" /><path clip-path="url(#clip430)" d="M155.695 744.376 Q152.084 744.376 150.255 747.941 Q148.449 751.483 148.449 758.612 Q148.449 765.719 150.255 769.283 Q152.084 772.825 155.695 772.825 Q159.329 772.825 161.134 769.283 Q162.963 765.719 162.963 758.612 Q162.963 751.483 161.134 747.941 Q159.329 744.376 155.695 744.376 M155.695 740.672 Q161.505 740.672 164.56 745.279 Q167.639 749.862 167.639 758.612 Q167.639 767.339 164.56 771.945 Q161.505 776.529 155.695 776.529 Q149.885 776.529 146.806 771.945 Q143.75 767.339 143.75 758.612 Q143.75 749.862 146.806 745.279 Q149.885 740.672 155.695 740.672 Z" fill="#000000" fill-rule="nonzero" fill-opacity="1" /><path clip-path="url(#clip430)" d="M185.857 744.376 Q182.245 744.376 180.417 747.941 Q178.611 751.483 178.611 758.612 Q178.611 765.719 180.417 769.283 Q182.245 772.825 185.857 772.825 Q189.491 772.825 191.296 769.283 Q193.125 765.719 193.125 758.612 Q193.125 751.483 191.296 747.941 Q189.491 744.376 185.857 744.376 M185.857 740.672 Q191.667 740.672 194.722 745.279 Q197.801 749.862 197.801 758.612 Q197.801 767.339 194.722 771.945 Q191.667 776.529 185.857 776.529 Q180.046 776.529 176.968 771.945 Q173.912 767.339 173.912 758.612 Q173.912 749.862 176.968 745.279 Q180.046 740.672 185.857 740.672 Z" fill="#000000" fill-rule="nonzero" fill-opacity="1" /><path clip-path="url(#clip430)" d="M234.19 750.395 L223.611 761.02 L234.19 771.598 L231.435 774.399 L220.81 763.774 L210.185 774.399 L207.454 771.598 L218.009 761.02 L207.454 750.395 L210.185 747.594 L220.81 758.219 L231.435 747.594 L234.19 750.395 Z" fill="#000000" fill-rule="nonzero" fill-opacity="1" /><path clip-path="url(#clip430)" d="M246.551 771.922 L254.19 771.922 L254.19 745.557 L245.879 747.223 L245.879 742.964 L254.143 741.297 L258.819 741.297 L258.819 771.922 L266.458 771.922 L266.458 775.857 L246.551 775.857 L246.551 771.922 Z" fill="#000000" fill-rule="nonzero" fill-opacity="1" /><path clip-path="url(#clip430)" d="M285.902 744.376 Q282.291 744.376 280.463 747.941 Q278.657 751.483 278.657 758.612 Q278.657 765.719 280.463 769.283 Q282.291 772.825 285.902 772.825 Q289.537 772.825 291.342 769.283 Q293.171 765.719 293.171 758.612 Q293.171 751.483 291.342 747.941 Q289.537 744.376 285.902 744.376 M285.902 740.672 Q291.712 740.672 294.768 745.279 Q297.847 749.862 297.847 758.612 Q297.847 767.339 294.768 771.945 Q291.712 776.529 285.902 776.529 Q280.092 776.529 277.013 771.945 Q273.958 767.339 273.958 758.612 Q273.958 749.862 277.013 745.279 Q280.092 740.672 285.902 740.672 Z" fill="#000000" fill-rule="nonzero" fill-opacity="1" /><path clip-path="url(#clip430)" d="M307.476 735.112 Q304.768 735.112 303.207 736.561 Q301.665 738.009 301.665 740.548 Q301.665 743.087 303.207 744.535 Q304.768 745.983 307.476 745.983 Q310.185 745.983 311.746 744.535 Q313.307 743.068 313.307 740.548 Q313.307 738.009 311.746 736.561 Q310.203 735.112 307.476 735.112 M303.677 733.495 Q301.232 732.893 299.859 731.219 Q298.505 729.545 298.505 727.138 Q298.505 723.771 300.894 721.815 Q303.301 719.859 307.476 719.859 Q311.67 719.859 314.059 721.815 Q316.448 723.771 316.448 727.138 Q316.448 729.545 315.075 731.219 Q313.72 732.893 311.294 733.495 Q314.04 734.134 315.564 735.996 Q317.106 737.858 317.106 740.548 Q317.106 744.629 314.604 746.811 Q312.122 748.993 307.476 748.993 Q302.831 748.993 300.329 746.811 Q297.847 744.629 297.847 740.548 Q297.847 737.858 299.389 735.996 Q300.931 734.134 303.677 733.495 M302.285 727.495 Q302.285 729.677 303.639 730.899 Q305.012 732.122 307.476 732.122 Q309.921 732.122 311.294 730.899 Q312.686 729.677 312.686 727.495 Q312.686 725.314 311.294 724.091 Q309.921 722.869 307.476 722.869 Q305.012 722.869 303.639 724.091 Q302.285 725.314 302.285 727.495 Z" fill="#000000" fill-rule="nonzero" fill-opacity="1" /><path clip-path="url(#clip430)" d="M100.602 581.86 L100.602 577.601 Q102.362 578.434 104.167 578.874 Q105.973 579.314 107.709 579.314 Q112.338 579.314 114.769 576.212 Q117.223 573.087 117.57 566.744 Q116.227 568.735 114.167 569.8 Q112.107 570.865 109.607 570.865 Q104.422 570.865 101.389 567.74 Q98.3802 564.592 98.3802 559.152 Q98.3802 553.828 101.528 550.61 Q104.676 547.393 109.908 547.393 Q115.903 547.393 119.051 551.999 Q122.223 556.582 122.223 565.332 Q122.223 573.504 118.334 578.388 Q114.468 583.249 107.917 583.249 Q106.158 583.249 104.352 582.902 Q102.547 582.555 100.602 581.86 M109.908 567.207 Q113.056 567.207 114.885 565.055 Q116.737 562.902 116.737 559.152 Q116.737 555.425 114.885 553.272 Q113.056 551.096 109.908 551.096 Q106.76 551.096 104.908 553.272 Q103.079 555.425 103.079 559.152 Q103.079 562.902 104.908 565.055 Q106.76 567.207 109.908 567.207 Z" fill="#000000" fill-rule="nonzero" fill-opacity="1" /><path clip-path="url(#clip430)" d="M130.625 576.698 L135.51 576.698 L135.51 582.578 L130.625 582.578 L130.625 576.698 Z" fill="#000000" fill-rule="nonzero" fill-opacity="1" /><path clip-path="url(#clip430)" d="M155.695 551.096 Q152.084 551.096 150.255 554.661 Q148.449 558.203 148.449 565.332 Q148.449 572.439 150.255 576.004 Q152.084 579.545 155.695 579.545 Q159.329 579.545 161.134 576.004 Q162.963 572.439 162.963 565.332 Q162.963 558.203 161.134 554.661 Q159.329 551.096 155.695 551.096 M155.695 547.393 Q161.505 547.393 164.56 551.999 Q167.639 556.582 167.639 565.332 Q167.639 574.059 164.56 578.666 Q161.505 583.249 155.695 583.249 Q149.885 583.249 146.806 578.666 Q143.75 574.059 143.75 565.332 Q143.75 556.582 146.806 551.999 Q149.885 547.393 155.695 547.393 Z" fill="#000000" fill-rule="nonzero" fill-opacity="1" /><path clip-path="url(#clip430)" d="M185.857 551.096 Q182.245 551.096 180.417 554.661 Q178.611 558.203 178.611 565.332 Q178.611 572.439 180.417 576.004 Q182.245 579.545 185.857 579.545 Q189.491 579.545 191.296 576.004 Q193.125 572.439 193.125 565.332 Q193.125 558.203 191.296 554.661 Q189.491 551.096 185.857 551.096 M185.857 547.393 Q191.667 547.393 194.722 551.999 Q197.801 556.582 197.801 565.332 Q197.801 574.059 194.722 578.666 Q191.667 583.249 185.857 583.249 Q180.046 583.249 176.968 578.666 Q173.912 574.059 173.912 565.332 Q173.912 556.582 176.968 551.999 Q180.046 547.393 185.857 547.393 Z" fill="#000000" fill-rule="nonzero" fill-opacity="1" /><path clip-path="url(#clip430)" d="M234.19 557.115 L223.611 567.74 L234.19 578.318 L231.435 581.119 L220.81 570.494 L210.185 581.119 L207.454 578.318 L218.009 567.74 L207.454 557.115 L210.185 554.314 L220.81 564.939 L231.435 554.314 L234.19 557.115 Z" fill="#000000" fill-rule="nonzero" fill-opacity="1" /><path clip-path="url(#clip430)" d="M246.551 578.643 L254.19 578.643 L254.19 552.277 L245.879 553.944 L245.879 549.684 L254.143 548.018 L258.819 548.018 L258.819 578.643 L266.458 578.643 L266.458 582.578 L246.551 582.578 L246.551 578.643 Z" fill="#000000" fill-rule="nonzero" fill-opacity="1" /><path clip-path="url(#clip430)" d="M285.902 551.096 Q282.291 551.096 280.463 554.661 Q278.657 558.203 278.657 565.332 Q278.657 572.439 280.463 576.004 Q282.291 579.545 285.902 579.545 Q289.537 579.545 291.342 576.004 Q293.171 572.439 293.171 565.332 Q293.171 558.203 291.342 554.661 Q289.537 551.096 285.902 551.096 M285.902 547.393 Q291.712 547.393 294.768 551.999 Q297.847 556.582 297.847 565.332 Q297.847 574.059 294.768 578.666 Q291.712 583.249 285.902 583.249 Q280.092 583.249 277.013 578.666 Q273.958 574.059 273.958 565.332 Q273.958 556.582 277.013 551.999 Q280.092 547.393 285.902 547.393 Z" fill="#000000" fill-rule="nonzero" fill-opacity="1" /><path clip-path="url(#clip430)" d="M307.476 541.833 Q304.768 541.833 303.207 543.281 Q301.665 544.729 301.665 547.268 Q301.665 549.807 303.207 551.255 Q304.768 552.704 307.476 552.704 Q310.185 552.704 311.746 551.255 Q313.307 549.788 313.307 547.268 Q313.307 544.729 311.746 543.281 Q310.203 541.833 307.476 541.833 M303.677 540.215 Q301.232 539.613 299.859 537.939 Q298.505 536.266 298.505 533.858 Q298.505 530.492 300.894 528.536 Q303.301 526.58 307.476 526.58 Q311.67 526.58 314.059 528.536 Q316.448 530.492 316.448 533.858 Q316.448 536.266 315.075 537.939 Q313.72 539.613 311.294 540.215 Q314.04 540.855 315.564 542.717 Q317.106 544.579 317.106 547.268 Q317.106 551.349 314.604 553.531 Q312.122 555.713 307.476 555.713 Q302.831 555.713 300.329 553.531 Q297.847 551.349 297.847 547.268 Q297.847 544.579 299.389 542.717 Q300.931 540.855 303.677 540.215 M302.285 534.215 Q302.285 536.397 303.639 537.62 Q305.012 538.842 307.476 538.842 Q309.921 538.842 311.294 537.62 Q312.686 536.397 312.686 534.215 Q312.686 532.034 311.294 530.811 Q309.921 529.589 307.476 529.589 Q305.012 529.589 303.639 530.811 Q302.285 532.034 302.285 534.215 Z" fill="#000000" fill-rule="nonzero" fill-opacity="1" /><path clip-path="url(#clip430)" d="M101.161 385.363 L108.8 385.363 L108.8 358.997 L100.49 360.664 L100.49 356.405 L108.753 354.738 L113.429 354.738 L113.429 385.363 L121.068 385.363 L121.068 389.298 L101.161 389.298 L101.161 385.363 Z" fill="#000000" fill-rule="nonzero" fill-opacity="1" /><path clip-path="url(#clip430)" d="M130.513 383.418 L135.397 383.418 L135.397 389.298 L130.513 389.298 L130.513 383.418 Z" fill="#000000" fill-rule="nonzero" fill-opacity="1" /><path clip-path="url(#clip430)" d="M155.582 357.817 Q151.971 357.817 150.142 361.381 Q148.336 364.923 148.336 372.053 Q148.336 379.159 150.142 382.724 Q151.971 386.266 155.582 386.266 Q159.216 386.266 161.022 382.724 Q162.85 379.159 162.85 372.053 Q162.85 364.923 161.022 361.381 Q159.216 357.817 155.582 357.817 M155.582 354.113 Q161.392 354.113 164.448 358.719 Q167.526 363.303 167.526 372.053 Q167.526 380.779 164.448 385.386 Q161.392 389.969 155.582 389.969 Q149.772 389.969 146.693 385.386 Q143.637 380.779 143.637 372.053 Q143.637 363.303 146.693 358.719 Q149.772 354.113 155.582 354.113 Z" fill="#000000" fill-rule="nonzero" fill-opacity="1" /><path clip-path="url(#clip430)" d="M185.744 357.817 Q182.133 357.817 180.304 361.381 Q178.498 364.923 178.498 372.053 Q178.498 379.159 180.304 382.724 Q182.133 386.266 185.744 386.266 Q189.378 386.266 191.183 382.724 Q193.012 379.159 193.012 372.053 Q193.012 364.923 191.183 361.381 Q189.378 357.817 185.744 357.817 M185.744 354.113 Q191.554 354.113 194.609 358.719 Q197.688 363.303 197.688 372.053 Q197.688 380.779 194.609 385.386 Q191.554 389.969 185.744 389.969 Q179.934 389.969 176.855 385.386 Q173.799 380.779 173.799 372.053 Q173.799 363.303 176.855 358.719 Q179.934 354.113 185.744 354.113 Z" fill="#000000" fill-rule="nonzero" fill-opacity="1" /><path clip-path="url(#clip430)" d="M234.077 363.835 L223.498 374.46 L234.077 385.039 L231.322 387.84 L220.697 377.215 L210.072 387.84 L207.341 385.039 L217.896 374.46 L207.341 363.835 L210.072 361.034 L220.697 371.659 L231.322 361.034 L234.077 363.835 Z" fill="#000000" fill-rule="nonzero" fill-opacity="1" /><path clip-path="url(#clip430)" d="M246.438 385.363 L254.077 385.363 L254.077 358.997 L245.767 360.664 L245.767 356.405 L254.03 354.738 L258.706 354.738 L258.706 385.363 L266.345 385.363 L266.345 389.298 L246.438 389.298 L246.438 385.363 Z" fill="#000000" fill-rule="nonzero" fill-opacity="1" /><path clip-path="url(#clip430)" d="M285.789 357.817 Q282.178 357.817 280.35 361.381 Q278.544 364.923 278.544 372.053 Q278.544 379.159 280.35 382.724 Q282.178 386.266 285.789 386.266 Q289.424 386.266 291.229 382.724 Q293.058 379.159 293.058 372.053 Q293.058 364.923 291.229 361.381 Q289.424 357.817 285.789 357.817 M285.789 354.113 Q291.6 354.113 294.655 358.719 Q297.734 363.303 297.734 372.053 Q297.734 380.779 294.655 385.386 Q291.6 389.969 285.789 389.969 Q279.979 389.969 276.901 385.386 Q273.845 380.779 273.845 372.053 Q273.845 363.303 276.901 358.719 Q279.979 354.113 285.789 354.113 Z" fill="#000000" fill-rule="nonzero" fill-opacity="1" /><path clip-path="url(#clip430)" d="M299.539 361.305 L299.539 357.844 Q300.969 358.521 302.436 358.878 Q303.903 359.236 305.313 359.236 Q309.075 359.236 311.05 356.715 Q313.043 354.176 313.325 349.023 Q312.235 350.641 310.561 351.506 Q308.887 352.371 306.856 352.371 Q302.643 352.371 300.179 349.832 Q297.734 347.274 297.734 342.854 Q297.734 338.528 300.292 335.914 Q302.85 333.3 307.1 333.3 Q311.971 333.3 314.529 337.042 Q317.106 340.766 317.106 347.876 Q317.106 354.515 313.946 358.483 Q310.805 362.433 305.483 362.433 Q304.053 362.433 302.586 362.151 Q301.119 361.869 299.539 361.305 M307.1 349.399 Q309.658 349.399 311.144 347.65 Q312.648 345.901 312.648 342.854 Q312.648 339.826 311.144 338.077 Q309.658 336.309 307.1 336.309 Q304.542 336.309 303.038 338.077 Q301.552 339.826 301.552 342.854 Q301.552 345.901 303.038 347.65 Q304.542 349.399 307.1 349.399 Z" fill="#000000" fill-rule="nonzero" fill-opacity="1" /><path clip-path="url(#clip430)" d="M101.161 192.083 L108.8 192.083 L108.8 165.717 L100.49 167.384 L100.49 163.125 L108.753 161.458 L113.429 161.458 L113.429 192.083 L121.068 192.083 L121.068 196.018 L101.161 196.018 L101.161 192.083 Z" fill="#000000" fill-rule="nonzero" fill-opacity="1" /><path clip-path="url(#clip430)" d="M130.513 190.139 L135.397 190.139 L135.397 196.018 L130.513 196.018 L130.513 190.139 Z" fill="#000000" fill-rule="nonzero" fill-opacity="1" /><path clip-path="url(#clip430)" d="M146.392 192.083 L154.031 192.083 L154.031 165.717 L145.721 167.384 L145.721 163.125 L153.985 161.458 L158.661 161.458 L158.661 192.083 L166.299 192.083 L166.299 196.018 L146.392 196.018 L146.392 192.083 Z" fill="#000000" fill-rule="nonzero" fill-opacity="1" /><path clip-path="url(#clip430)" d="M185.744 164.537 Q182.133 164.537 180.304 168.102 Q178.498 171.643 178.498 178.773 Q178.498 185.879 180.304 189.444 Q182.133 192.986 185.744 192.986 Q189.378 192.986 191.183 189.444 Q193.012 185.879 193.012 178.773 Q193.012 171.643 191.183 168.102 Q189.378 164.537 185.744 164.537 M185.744 160.833 Q191.554 160.833 194.609 165.44 Q197.688 170.023 197.688 178.773 Q197.688 187.5 194.609 192.106 Q191.554 196.689 185.744 196.689 Q179.934 196.689 176.855 192.106 Q173.799 187.5 173.799 178.773 Q173.799 170.023 176.855 165.44 Q179.934 160.833 185.744 160.833 Z" fill="#000000" fill-rule="nonzero" fill-opacity="1" /><path clip-path="url(#clip430)" d="M234.077 170.555 L223.498 181.18 L234.077 191.759 L231.322 194.56 L220.697 183.935 L210.072 194.56 L207.341 191.759 L217.896 181.18 L207.341 170.555 L210.072 167.754 L220.697 178.379 L231.322 167.754 L234.077 170.555 Z" fill="#000000" fill-rule="nonzero" fill-opacity="1" /><path clip-path="url(#clip430)" d="M246.438 192.083 L254.077 192.083 L254.077 165.717 L245.767 167.384 L245.767 163.125 L254.03 161.458 L258.706 161.458 L258.706 192.083 L266.345 192.083 L266.345 196.018 L246.438 196.018 L246.438 192.083 Z" fill="#000000" fill-rule="nonzero" fill-opacity="1" /><path clip-path="url(#clip430)" d="M285.789 164.537 Q282.178 164.537 280.35 168.102 Q278.544 171.643 278.544 178.773 Q278.544 185.879 280.35 189.444 Q282.178 192.986 285.789 192.986 Q289.424 192.986 291.229 189.444 Q293.058 185.879 293.058 178.773 Q293.058 171.643 291.229 168.102 Q289.424 164.537 285.789 164.537 M285.789 160.833 Q291.6 160.833 294.655 165.44 Q297.734 170.023 297.734 178.773 Q297.734 187.5 294.655 192.106 Q291.6 196.689 285.789 196.689 Q279.979 196.689 276.901 192.106 Q273.845 187.5 273.845 178.773 Q273.845 170.023 276.901 165.44 Q279.979 160.833 285.789 160.833 Z" fill="#000000" fill-rule="nonzero" fill-opacity="1" /><path clip-path="url(#clip430)" d="M299.539 168.025 L299.539 164.564 Q300.969 165.241 302.436 165.599 Q303.903 165.956 305.313 165.956 Q309.075 165.956 311.05 163.436 Q313.043 160.897 313.325 155.743 Q312.235 157.361 310.561 158.226 Q308.887 159.091 306.856 159.091 Q302.643 159.091 300.179 156.552 Q297.734 153.994 297.734 149.574 Q297.734 145.249 300.292 142.634 Q302.85 140.02 307.1 140.02 Q311.971 140.02 314.529 143.763 Q317.106 147.487 317.106 154.596 Q317.106 161.235 313.946 165.204 Q310.805 169.153 305.483 169.153 Q304.053 169.153 302.586 168.871 Q301.119 168.589 299.539 168.025 M307.1 156.119 Q309.658 156.119 311.144 154.37 Q312.648 152.621 312.648 149.574 Q312.648 146.546 311.144 144.797 Q309.658 143.029 307.1 143.029 Q304.542 143.029 303.038 144.797 Q301.552 146.546 301.552 149.574 Q301.552 152.621 303.038 154.37 Q304.542 156.119 307.1 156.119 Z" fill="#000000" fill-rule="nonzero" fill-opacity="1" /><path clip-path="url(#clip430)" d="M-9.64527 840.632 L0.4762 840.632 L0.4762 828.569 L5.02768 828.569 L5.02768 840.632 L24.3794 840.632 Q28.7399 840.632 29.9813 839.454 Q31.2226 838.245 31.2226 834.584 L31.2226 828.569 L36.1242 828.569 L36.1242 834.584 Q36.1242 841.364 33.6097 843.942 Q31.0634 846.52 24.3794 846.52 L5.02768 846.52 L5.02768 850.817 L0.4762 850.817 L0.4762 846.52 L-9.64527 846.52 L-9.64527 840.632 Z" fill="#000000" fill-rule="nonzero" fill-opacity="1" /><path clip-path="url(#clip430)" d="M-11.3958 789.738 L-11.3958 784.327 L42.1716 800.878 L42.1716 806.289 L-11.3958 789.738 Z" fill="#000000" fill-rule="nonzero" fill-opacity="1" /><path clip-path="url(#clip430)" d="M14.6081 727.831 L36.1242 727.831 L36.1242 733.688 L14.799 733.688 Q9.7383 733.688 7.22385 735.661 Q4.7094 737.635 4.7094 741.581 Q4.7094 746.324 7.73311 749.061 Q10.7568 751.798 15.9767 751.798 L36.1242 751.798 L36.1242 757.687 L0.4762 757.687 L0.4762 751.798 L6.01437 751.798 Q2.79968 749.698 1.20826 746.865 Q-0.38317 744 -0.38317 740.276 Q-0.38317 734.133 3.43625 730.982 Q7.22385 727.831 14.6081 727.831 Z" fill="#000000" fill-rule="nonzero" fill-opacity="1" /><path clip-path="url(#clip430)" d="M1.52654 693.425 L7.06471 693.425 Q5.79157 695.907 5.15499 698.581 Q4.51842 701.255 4.51842 704.119 Q4.51842 708.48 5.85522 710.676 Q7.19202 712.84 9.86562 712.84 Q11.9026 712.84 13.0803 711.281 Q14.2261 709.721 15.2765 705.01 L15.7221 703.005 Q17.0589 696.767 19.5097 694.157 Q21.9286 691.515 26.2891 691.515 Q31.2544 691.515 34.1508 695.462 Q37.0472 699.377 37.0472 706.252 Q37.0472 709.116 36.4743 712.235 Q35.9332 715.323 34.8192 718.76 L28.7718 718.76 Q30.4587 715.514 31.318 712.363 Q32.1456 709.212 32.1456 706.124 Q32.1456 701.987 30.7451 699.759 Q29.3129 697.531 26.7347 697.531 Q24.3476 697.531 23.0745 699.154 Q21.8013 700.745 20.6237 706.188 L20.1462 708.225 Q19.0004 713.668 16.6451 716.087 Q14.258 718.506 10.1202 718.506 Q5.09134 718.506 2.35408 714.941 Q-0.38317 711.376 -0.38317 704.819 Q-0.38317 701.573 0.0942579 698.708 Q0.571686 695.844 1.52654 693.425 Z" fill="#000000" fill-rule="nonzero" fill-opacity="1" /><path clip-path="url(#clip431)" d="M1304.75 1454.11 L1325.76 1452.36 L1344.78 1450.62 L1361.43 1448.87 L1375.4 1447.12 L1386.43 1445.37 L1394.32 1443.63 L1398.96 1441.88 L1400.31 1440.13 L1398.45 1438.38 L1393.53 1436.64 L1385.78 1434.89 L1375.53 1433.14 L1363.14 1431.39 L1349.06 1429.65 L1333.72 1427.9 L1317.57 1426.15 L1301.06 1424.4 L1284.57 1422.66 L1268.45 1420.91 L1252.95 1419.16 L1238.28 1417.41 L1224.53 1415.66 L1211.72 1413.92 L1199.8 1412.17 L1188.67 1410.42 L1178.16 1408.67 L1168.07 1406.93 L1158.22 1405.18 L1148.39 1403.43 L1138.43 1401.68 L1128.18 1399.94 L1117.55 1398.19 L1106.49 1396.44 L1095 1394.69 L1083.14 1392.95 L1070.98 1391.2 L1058.66 1389.45 L1046.31 1387.7 L1034.09 1385.96 L1022.17 1384.21 L1010.68 1382.46 L999.76 1380.71 L989.528 1378.97 L980.067 1377.22 L971.438 1375.47 L963.671 1373.72 L956.772 1371.98 L950.724 1370.23 L945.49 1368.48 L941.017 1366.73 L937.244 1364.99 L934.1 1363.24 L931.512 1361.49 L929.409 1359.74 L927.719 1358 L926.379 1356.25 L925.328 1354.5 L924.513 1352.75 L923.89 1351.01 L923.418 1349.26 L923.065 1347.51 L922.804 1345.76 L922.613 1344.02 L922.475 1342.27 L922.377 1340.52 L922.307 1338.77 L922.259 1337.02 L922.225 1335.28 L922.202 1333.53 L922.187 1331.78 L922.177 1330.03 L922.17 1328.29 L922.166 1326.54 L922.164 1324.79 L922.163 1323.04 L922.163 1321.3 L922.164 1319.55 L922.167 1317.8 L922.172 1316.05 L922.179 1314.31 L922.191 1312.56 L922.208 1310.81 L922.233 1309.06 L922.27 1307.32 L922.324 1305.57 L922.401 1303.82 L922.509 1302.07 L922.66 1300.33 L922.868 1298.58 L923.152 1296.83 L923.536 1295.08 L924.046 1293.34 L924.718 1291.59 L925.594 1289.84 L926.719 1288.09 L928.149 1286.35 L929.945 1284.6 L932.172 1282.85 L934.899 1281.1 L938.199 1279.36 L942.139 1277.61 L946.785 1275.86 L952.191 1274.11 L958.397 1272.37 L965.423 1270.62 L973.266 1268.87 L981.894 1267.12 L991.242 1265.38 L1001.21 1263.63 L1011.66 1261.88 L1022.42 1260.13 L1033.29 1258.38 L1044.04 1256.64 L1054.41 1254.89 L1064.16 1253.14 L1073.01 1251.39 L1080.73 1249.65 L1087.08 1247.9 L1091.87 1246.15 L1094.96 1244.4 L1096.25 1242.66 L748.064 1242.66 L749.353 1244.4 L752.443 1246.15 L757.236 1247.9 L763.586 1249.65 L771.301 1251.39 L780.155 1253.14 L789.901 1254.89 L800.277 1256.64 L811.026 1258.38 L821.896 1260.13 L832.657 1261.88 L843.107 1263.63 L853.074 1265.38 L862.421 1267.12 L871.049 1268.87 L878.892 1270.62 L885.919 1272.37 L892.124 1274.11 L897.53 1275.86 L902.176 1277.61 L906.117 1279.36 L909.416 1281.1 L912.144 1282.85 L914.371 1284.6 L916.166 1286.35 L917.596 1288.09 L918.722 1289.84 L919.597 1291.59 L920.269 1293.34 L920.78 1295.08 L921.163 1296.83 L921.447 1298.58 L921.655 1300.33 L921.806 1302.07 L921.915 1303.82 L921.991 1305.57 L922.045 1307.32 L922.082 1309.06 L922.108 1310.81 L922.125 1312.56 L922.136 1314.31 L922.144 1316.05 L922.148 1317.8 L922.151 1319.55 L922.152 1321.3 L922.153 1323.04 L922.152 1324.79 L922.149 1326.54 L922.145 1328.29 L922.138 1330.03 L922.128 1331.78 L922.113 1333.53 L922.09 1335.28 L922.057 1337.02 L922.008 1338.77 L921.938 1340.52 L921.84 1342.27 L921.702 1344.02 L921.511 1345.76 L921.25 1347.51 L920.897 1349.26 L920.426 1351.01 L919.802 1352.75 L918.988 1354.5 L917.937 1356.25 L916.596 1358 L914.907 1359.74 L912.803 1361.49 L910.216 1363.24 L907.072 1364.99 L903.298 1366.73 L898.826 1368.48 L893.591 1370.23 L887.543 1371.98 L880.644 1373.72 L872.877 1375.47 L864.248 1377.22 L854.788 1378.97 L844.556 1380.71 L833.639 1382.46 L822.149 1384.21 L810.221 1385.96 L798.005 1387.7 L785.657 1389.45 L773.333 1391.2 L761.179 1392.95 L749.314 1394.69 L737.828 1396.44 L726.769 1398.19 L716.139 1399.94 L705.888 1401.68 L695.921 1403.43 L686.096 1405.18 L676.24 1406.93 L666.157 1408.67 L655.644 1410.42 L644.511 1412.17 L632.597 1413.92 L619.789 1415.66 L606.036 1417.41 L591.361 1419.16 L575.867 1420.91 L559.743 1422.66 L543.256 1424.4 L526.743 1426.15 L510.598 1427.9 L495.257 1429.65 L481.17 1431.39 L468.788 1433.14 L458.534 1434.89 L450.787 1436.64 L445.863 1438.38 L444.002 1440.13 L445.358 1441.88 L449.994 1443.63 L457.884 1445.37 L468.912 1447.12 L482.884 1448.87 L499.537 1450.62 L518.551 1452.36 L539.562 1454.11 L1304.75 1454.11  Z" fill="#009af9" fill-rule="evenodd" fill-opacity="1"/>
<polyline clip-path="url(#clip431)" style="stroke:#000000; stroke-linecap:round; stroke-linejoin:round; stroke-width:4; stroke-opacity:1; fill:none" points="1304.75,1454.11 1325.76,1452.36 1344.78,1450.62 1361.43,1448.87 1375.4,1447.12 1386.43,1445.37 1394.32,1443.63 1398.96,1441.88 1400.31,1440.13 1398.45,1438.38 1393.53,1436.64 1385.78,1434.89 1375.53,1433.14 1363.14,1431.39 1349.06,1429.65 1333.72,1427.9 1317.57,1426.15 1301.06,1424.4 1284.57,1422.66 1268.45,1420.91 1252.95,1419.16 1238.28,1417.41 1224.53,1415.66 1211.72,1413.92 1199.8,1412.17 1188.67,1410.42 1178.16,1408.67 1168.07,1406.93 1158.22,1405.18 1148.39,1403.43 1138.43,1401.68 1128.18,1399.94 1117.55,1398.19 1106.49,1396.44 1095,1394.69 1083.14,1392.95 1070.98,1391.2 1058.66,1389.45 1046.31,1387.7 1034.09,1385.96 1022.17,1384.21 1010.68,1382.46 999.76,1380.71 989.528,1378.97 980.067,1377.22 971.438,1375.47 963.671,1373.72 956.772,1371.98 950.724,1370.23 945.49,1368.48 941.017,1366.73 937.244,1364.99 934.1,1363.24 931.512,1361.49 929.409,1359.74 927.719,1358 926.379,1356.25 925.328,1354.5 924.513,1352.75 923.89,1351.01 923.418,1349.26 923.065,1347.51 922.804,1345.76 922.613,1344.02 922.475,1342.27 922.377,1340.52 922.307,1338.77 922.259,1337.02 922.225,1335.28 922.202,1333.53 922.187,1331.78 922.177,1330.03 922.17,1328.29 922.166,1326.54 922.164,1324.79 922.163,1323.04 922.163,1321.3 922.164,1319.55 922.167,1317.8 922.172,1316.05 922.179,1314.31 922.191,1312.56 922.208,1310.81 922.233,1309.06 922.27,1307.32 922.324,1305.57 922.401,1303.82 922.509,1302.07 922.66,1300.33 922.868,1298.58 923.152,1296.83 923.536,1295.08 924.046,1293.34 924.718,1291.59 925.594,1289.84 926.719,1288.09 928.149,1286.35 929.945,1284.6 932.172,1282.85 934.899,1281.1 938.199,1279.36 942.139,1277.61 946.785,1275.86 952.191,1274.11 958.397,1272.37 965.423,1270.62 973.266,1268.87 981.894,1267.12 991.242,1265.38 1001.21,1263.63 1011.66,1261.88 1022.42,1260.13 1033.29,1258.38 1044.04,1256.64 1054.41,1254.89 1064.16,1253.14 1073.01,1251.39 1080.73,1249.65 1087.08,1247.9 1091.87,1246.15 1094.96,1244.4 1096.25,1242.66 748.064,1242.66 749.353,1244.4 752.443,1246.15 757.236,1247.9 763.586,1249.65 771.301,1251.39 780.155,1253.14 789.901,1254.89 800.277,1256.64 811.026,1258.38 821.896,1260.13 832.657,1261.88 843.107,1263.63 853.074,1265.38 862.421,1267.12 871.049,1268.87 878.892,1270.62 885.919,1272.37 892.124,1274.11 897.53,1275.86 902.176,1277.61 906.117,1279.36 909.416,1281.1 912.144,1282.85 914.371,1284.6 916.166,1286.35 917.596,1288.09 918.722,1289.84 919.597,1291.59 920.269,1293.34 920.78,1295.08 921.163,1296.83 921.447,1298.58 921.655,1300.33 921.806,1302.07 921.915,1303.82 921.991,1305.57 922.045,1307.32 922.082,1309.06 922.108,1310.81 922.125,1312.56 922.136,1314.31 922.144,1316.05 922.148,1317.8 922.151,1319.55 922.152,1321.3 922.153,1323.04 922.152,1324.79 922.149,1326.54 922.145,1328.29 922.138,1330.03 922.128,1331.78 922.113,1333.53 922.09,1335.28 922.057,1337.02 922.008,1338.77 921.938,1340.52 921.84,1342.27 921.702,1344.02 921.511,1345.76 921.25,1347.51 920.897,1349.26 920.426,1351.01 919.802,1352.75 918.988,1354.5 917.937,1356.25 916.596,1358 914.907,1359.74 912.803,1361.49 910.216,1363.24 907.072,1364.99 903.298,1366.73 898.826,1368.48 893.591,1370.23 887.543,1371.98 880.644,1373.72 872.877,1375.47 864.248,1377.22 854.788,1378.97 844.556,1380.71 833.639,1382.46 822.149,1384.21 810.221,1385.96 798.005,1387.7 785.657,1389.45 773.333,1391.2 761.179,1392.95 749.314,1394.69 737.828,1396.44 726.769,1398.19 716.139,1399.94 705.888,1401.68 695.921,1403.43 686.096,1405.18 676.24,1406.93 666.157,1408.67 655.644,1410.42 644.511,1412.17 632.597,1413.92 619.789,1415.66 606.036,1417.41 591.361,1419.16 575.867,1420.91 559.743,1422.66 543.256,1424.4 526.743,1426.15 510.598,1427.9 495.257,1429.65 481.17,1431.39 468.788,1433.14 458.534,1434.89 450.787,1436.64 445.863,1438.38 444.002,1440.13 445.358,1441.88 449.994,1443.63 457.884,1445.37 468.912,1447.12 482.884,1448.87 499.537,1450.62 518.551,1452.36 539.562,1454.11 1304.75,1454.11 "/>
<path clip-path="url(#clip431)" d="M3016.5 299.738 L3033.96 298.279 L3045.84 296.82 L3052.62 295.362 L3055.22 293.903 L3054.9 292.444 L3053.09 290.986 L3051.2 289.527 L3050.39 288.068 L3051.44 286.609 L3054.57 285.151 L3059.45 283.692 L3065.2 282.233 L3070.53 280.774 L3073.86 279.316 L3073.62 277.857 L3068.41 276.398 L3057.19 274.939 L3039.45 273.481 L3015.25 272.022 L2985.22 270.563 L2950.45 269.104 L2912.39 267.646 L2872.67 266.187 L2832.89 264.728 L2794.55 263.269 L2758.85 261.811 L2726.69 260.352 L2698.59 258.893 L2674.77 257.435 L2655.14 255.976 L2639.42 254.517 L2627.15 253.058 L2617.83 251.6 L2610.93 250.141 L2605.95 248.682 L2602.45 247.223 L2600.05 245.765 L2598.44 244.306 L2597.39 242.847 L2596.72 241.388 L2596.3 239.93 L2596.05 238.471 L2595.9 237.012 L2595.81 235.553 L2595.76 234.095 L2595.73 232.636 L2595.72 231.177 L2595.71 229.718 L2595.71 228.26 L2595.71 226.801 L2595.7 225.342 L2595.7 223.884 L2595.7 222.425 L2595.7 220.966 L2595.7 219.507 L2595.7 218.049 L2595.7 216.59 L2595.7 215.131 L2595.7 213.672 L2595.7 212.214 L2595.7 210.755 L2595.7 209.296 L2595.7 207.837 L2595.7 206.379 L2595.7 204.92 L2595.7 203.461 L2595.7 202.002 L2595.7 200.544 L2595.7 199.085 L2595.7 197.626 L2595.7 196.167 L2595.7 194.709 L2595.7 193.25 L2595.7 191.791 L2595.7 190.333 L2595.7 188.874 L2595.7 187.415 L2595.7 185.956 L2595.7 184.498 L2595.7 183.039 L2595.7 181.58 L2595.7 180.121 L2595.7 178.663 L2595.7 177.204 L2595.7 175.745 L2595.7 174.286 L2595.7 172.828 L2595.7 171.369 L2595.7 169.91 L2595.7 168.451 L2595.7 166.993 L2595.7 165.534 L2595.7 164.075 L2595.7 162.616 L2595.7 161.158 L2595.7 159.699 L2595.7 158.24 L2595.7 156.782 L2595.7 155.323 L2595.7 153.864 L2595.7 152.405 L2595.7 150.947 L2595.7 149.488 L2595.7 148.029 L2595.7 146.57 L2595.7 145.112 L2595.7 143.653 L2595.7 142.194 L2595.7 140.735 L2595.7 139.277 L2595.7 137.818 L2595.7 136.359 L2595.71 134.9 L2595.71 133.442 L2595.71 131.983 L2595.72 130.524 L2595.73 129.065 L2595.76 127.607 L2595.8 126.148 L2595.88 124.689 L2596.01 123.231 L2596.22 121.772 L2596.56 120.313 L2597.09 118.854 L2597.9 117.396 L2599.12 115.937 L2600.9 114.478 L2603.42 113.019 L2606.92 111.561 L2611.64 110.102 L2617.85 108.643 L2625.81 107.184 L2635.72 105.726 L2647.71 104.267 L2661.81 102.808 L2677.89 101.349 L2695.62 99.8907 L2714.49 98.432 L2733.82 96.9732 L2752.75 95.5145 L2770.34 94.0558 L2785.62 92.597 L2797.69 91.1383 L2805.78 89.6795 L2809.38 88.2208 L2382.02 88.2208 L2385.63 89.6795 L2393.72 91.1383 L2405.79 92.597 L2421.07 94.0558 L2438.66 95.5145 L2457.59 96.9732 L2476.91 98.432 L2495.79 99.8907 L2513.52 101.349 L2529.59 102.808 L2543.7 104.267 L2555.69 105.726 L2565.6 107.184 L2573.55 108.643 L2579.77 110.102 L2584.49 111.561 L2587.99 113.019 L2590.51 114.478 L2592.29 115.937 L2593.5 117.396 L2594.32 118.854 L2594.85 120.313 L2595.19 121.772 L2595.4 123.231 L2595.53 124.689 L2595.61 126.148 L2595.65 127.607 L2595.68 129.065 L2595.69 130.524 L2595.7 131.983 L2595.7 133.442 L2595.7 134.9 L2595.7 136.359 L2595.7 137.818 L2595.7 139.277 L2595.7 140.735 L2595.7 142.194 L2595.7 143.653 L2595.7 145.112 L2595.7 146.57 L2595.7 148.029 L2595.7 149.488 L2595.7 150.947 L2595.7 152.405 L2595.7 153.864 L2595.7 155.323 L2595.7 156.782 L2595.7 158.24 L2595.7 159.699 L2595.7 161.158 L2595.7 162.616 L2595.7 164.075 L2595.7 165.534 L2595.7 166.993 L2595.7 168.451 L2595.7 169.91 L2595.7 171.369 L2595.7 172.828 L2595.7 174.286 L2595.7 175.745 L2595.7 177.204 L2595.7 178.663 L2595.7 180.121 L2595.7 181.58 L2595.7 183.039 L2595.7 184.498 L2595.7 185.956 L2595.7 187.415 L2595.7 188.874 L2595.7 190.333 L2595.7 191.791 L2595.7 193.25 L2595.7 194.709 L2595.7 196.167 L2595.7 197.626 L2595.7 199.085 L2595.7 200.544 L2595.7 202.002 L2595.7 203.461 L2595.7 204.92 L2595.7 206.379 L2595.7 207.837 L2595.7 209.296 L2595.7 210.755 L2595.7 212.214 L2595.7 213.672 L2595.7 215.131 L2595.7 216.59 L2595.7 218.049 L2595.7 219.507 L2595.7 220.966 L2595.7 222.425 L2595.7 223.884 L2595.7 225.342 L2595.7 226.801 L2595.7 228.26 L2595.7 229.718 L2595.69 231.177 L2595.67 232.636 L2595.65 234.095 L2595.6 235.553 L2595.51 237.012 L2595.36 238.471 L2595.11 239.93 L2594.69 241.388 L2594.02 242.847 L2592.97 244.306 L2591.36 245.765 L2588.96 247.223 L2585.46 248.682 L2580.48 250.141 L2573.58 251.6 L2564.26 253.058 L2551.99 254.517 L2536.26 255.976 L2516.64 257.435 L2492.82 258.893 L2464.72 260.352 L2432.56 261.811 L2396.86 263.269 L2358.52 264.728 L2318.74 266.187 L2279.01 267.646 L2240.96 269.104 L2206.19 270.563 L2176.15 272.022 L2151.96 273.481 L2134.22 274.939 L2123 276.398 L2117.79 277.857 L2117.55 279.316 L2120.88 280.774 L2126.2 282.233 L2131.96 283.692 L2136.84 285.151 L2139.97 286.609 L2141.01 288.068 L2140.21 289.527 L2138.32 290.986 L2136.51 292.444 L2136.19 293.903 L2138.79 295.362 L2145.56 296.82 L2157.44 298.279 L2174.9 299.738 L3016.5 299.738  Z" fill="#e26f46" fill-rule="evenodd" fill-opacity="1"/>
<polyline clip-path="url(#clip431)" style="stroke:#000000; stroke-linecap:round; stroke-linejoin:round; stroke-width:4; stroke-opacity:1; fill:none" points="3016.5,299.738 3033.96,298.279 3045.84,296.82 3052.62,295.362 3055.22,293.903 3054.9,292.444 3053.09,290.986 3051.2,289.527 3050.39,288.068 3051.44,286.609 3054.57,285.151 3059.45,283.692 3065.2,282.233 3070.53,280.774 3073.86,279.316 3073.62,277.857 3068.41,276.398 3057.19,274.939 3039.45,273.481 3015.25,272.022 2985.22,270.563 2950.45,269.104 2912.39,267.646 2872.67,266.187 2832.89,264.728 2794.55,263.269 2758.85,261.811 2726.69,260.352 2698.59,258.893 2674.77,257.435 2655.14,255.976 2639.42,254.517 2627.15,253.058 2617.83,251.6 2610.93,250.141 2605.95,248.682 2602.45,247.223 2600.05,245.765 2598.44,244.306 2597.39,242.847 2596.72,241.388 2596.3,239.93 2596.05,238.471 2595.9,237.012 2595.81,235.553 2595.76,234.095 2595.73,232.636 2595.72,231.177 2595.71,229.718 2595.71,228.26 2595.71,226.801 2595.7,225.342 2595.7,223.884 2595.7,222.425 2595.7,220.966 2595.7,219.507 2595.7,218.049 2595.7,216.59 2595.7,215.131 2595.7,213.672 2595.7,212.214 2595.7,210.755 2595.7,209.296 2595.7,207.837 2595.7,206.379 2595.7,204.92 2595.7,203.461 2595.7,202.002 2595.7,200.544 2595.7,199.085 2595.7,197.626 2595.7,196.167 2595.7,194.709 2595.7,193.25 2595.7,191.791 2595.7,190.333 2595.7,188.874 2595.7,187.415 2595.7,185.956 2595.7,184.498 2595.7,183.039 2595.7,181.58 2595.7,180.121 2595.7,178.663 2595.7,177.204 2595.7,175.745 2595.7,174.286 2595.7,172.828 2595.7,171.369 2595.7,169.91 2595.7,168.451 2595.7,166.993 2595.7,165.534 2595.7,164.075 2595.7,162.616 2595.7,161.158 2595.7,159.699 2595.7,158.24 2595.7,156.782 2595.7,155.323 2595.7,153.864 2595.7,152.405 2595.7,150.947 2595.7,149.488 2595.7,148.029 2595.7,146.57 2595.7,145.112 2595.7,143.653 2595.7,142.194 2595.7,140.735 2595.7,139.277 2595.7,137.818 2595.7,136.359 2595.71,134.9 2595.71,133.442 2595.71,131.983 2595.72,130.524 2595.73,129.065 2595.76,127.607 2595.8,126.148 2595.88,124.689 2596.01,123.231 2596.22,121.772 2596.56,120.313 2597.09,118.854 2597.9,117.396 2599.12,115.937 2600.9,114.478 2603.42,113.019 2606.92,111.561 2611.64,110.102 2617.85,108.643 2625.81,107.184 2635.72,105.726 2647.71,104.267 2661.81,102.808 2677.89,101.349 2695.62,99.8907 2714.49,98.432 2733.82,96.9732 2752.75,95.5145 2770.34,94.0558 2785.62,92.597 2797.69,91.1383 2805.78,89.6795 2809.38,88.2208 2382.02,88.2208 2385.63,89.6795 2393.72,91.1383 2405.79,92.597 2421.07,94.0558 2438.66,95.5145 2457.59,96.9732 2476.91,98.432 2495.79,99.8907 2513.52,101.349 2529.59,102.808 2543.7,104.267 2555.69,105.726 2565.6,107.184 2573.55,108.643 2579.77,110.102 2584.49,111.561 2587.99,113.019 2590.51,114.478 2592.29,115.937 2593.5,117.396 2594.32,118.854 2594.85,120.313 2595.19,121.772 2595.4,123.231 2595.53,124.689 2595.61,126.148 2595.65,127.607 2595.68,129.065 2595.69,130.524 2595.7,131.983 2595.7,133.442 2595.7,134.9 2595.7,136.359 2595.7,137.818 2595.7,139.277 2595.7,140.735 2595.7,142.194 2595.7,143.653 2595.7,145.112 2595.7,146.57 2595.7,148.029 2595.7,149.488 2595.7,150.947 2595.7,152.405 2595.7,153.864 2595.7,155.323 2595.7,156.782 2595.7,158.24 2595.7,159.699 2595.7,161.158 2595.7,162.616 2595.7,164.075 2595.7,165.534 2595.7,166.993 2595.7,168.451 2595.7,169.91 2595.7,171.369 2595.7,172.828 2595.7,174.286 2595.7,175.745 2595.7,177.204 2595.7,178.663 2595.7,180.121 2595.7,181.58 2595.7,183.039 2595.7,184.498 2595.7,185.956 2595.7,187.415 2595.7,188.874 2595.7,190.333 2595.7,191.791 2595.7,193.25 2595.7,194.709 2595.7,196.167 2595.7,197.626 2595.7,199.085 2595.7,200.544 2595.7,202.002 2595.7,203.461 2595.7,204.92 2595.7,206.379 2595.7,207.837 2595.7,209.296 2595.7,210.755 2595.7,212.214 2595.7,213.672 2595.7,215.131 2595.7,216.59 2595.7,218.049 2595.7,219.507 2595.7,220.966 2595.7,222.425 2595.7,223.884 2595.7,225.342 2595.7,226.801 2595.7,228.26 2595.7,229.718 2595.69,231.177 2595.67,232.636 2595.65,234.095 2595.6,235.553 2595.51,237.012 2595.36,238.471 2595.11,239.93 2594.69,241.388 2594.02,242.847 2592.97,244.306 2591.36,245.765 2588.96,247.223 2585.46,248.682 2580.48,250.141 2573.58,251.6 2564.26,253.058 2551.99,254.517 2536.26,255.976 2516.64,257.435 2492.82,258.893 2464.72,260.352 2432.56,261.811 2396.86,263.269 2358.52,264.728 2318.74,266.187 2279.01,267.646 2240.96,269.104 2206.19,270.563 2176.15,272.022 2151.96,273.481 2134.22,274.939 2123,276.398 2117.79,277.857 2117.55,279.316 2120.88,280.774 2126.2,282.233 2131.96,283.692 2136.84,285.151 2139.97,286.609 2141.01,288.068 2140.21,289.527 2138.32,290.986 2136.51,292.444 2136.19,293.903 2138.79,295.362 2145.56,296.82 2157.44,298.279 2174.9,299.738 3016.5,299.738 "/>
</svg>
