<?xml version="1.0" encoding="utf-8"?>
<svg xmlns="http://www.w3.org/2000/svg" xmlns:xlink="http://www.w3.org/1999/xlink" width="800" height="400" viewBox="0 0 3200 1600">
<defs>
  <clipPath id="clip230">
    <rect x="0" y="0" width="3200" height="1600"/>
  </clipPath>
</defs>
<path clip-path="url(#clip230)" d="M0 1600 L3200 1600 L3200 0 L0 0  Z" fill="#ffffff" fill-rule="evenodd" fill-opacity="1"/>
<defs>
  <clipPath id="clip231">
    <rect x="364" y="47" width="2789" height="1449"/>
  </clipPath>
</defs>
<path clip-path="url(#clip230)" d="M364.733 1495.09 L3152.76 1495.09 L3152.76 47.2441 L364.733 47.2441  Z" fill="#ffffff" fill-rule="evenodd" fill-opacity="1"/>
<polyline clip-path="url(#clip231)" style="stroke:#000000; stroke-linecap:round; stroke-linejoin:round; stroke-width:2; stroke-opacity:0.1; fill:none" points="735.885,1495.09 735.885,47.2441 "/>
<polyline clip-path="url(#clip231)" style="stroke:#000000; stroke-linecap:round; stroke-linejoin:round; stroke-width:2; stroke-opacity:0.1; fill:none" points="1758.74,1495.09 1758.74,47.2441 "/>
<polyline clip-path="url(#clip231)" style="stroke:#000000; stroke-linecap:round; stroke-linejoin:round; stroke-width:2; stroke-opacity:0.1; fill:none" points="2781.6,1495.09 2781.6,47.2441 "/>
<polyline clip-path="url(#clip231)" style="stroke:#000000; stroke-linecap:round; stroke-linejoin:round; stroke-width:2; stroke-opacity:0.1; fill:none" points="364.733,1390.96 3152.76,1390.96 "/>
<polyline clip-path="url(#clip231)" style="stroke:#000000; stroke-linecap:round; stroke-linejoin:round; stroke-width:2; stroke-opacity:0.1; fill:none" points="364.733,1157.49 3152.76,1157.49 "/>
<polyline clip-path="url(#clip231)" style="stroke:#000000; stroke-linecap:round; stroke-linejoin:round; stroke-width:2; stroke-opacity:0.1; fill:none" points="364.733,924.03 3152.76,924.03 "/>
<polyline clip-path="url(#clip231)" style="stroke:#000000; stroke-linecap:round; stroke-linejoin:round; stroke-width:2; stroke-opacity:0.1; fill:none" points="364.733,690.566 3152.76,690.566 "/>
<polyline clip-path="url(#clip231)" style="stroke:#000000; stroke-linecap:round; stroke-linejoin:round; stroke-width:2; stroke-opacity:0.1; fill:none" points="364.733,457.102 3152.76,457.102 "/>
<polyline clip-path="url(#clip231)" style="stroke:#000000; stroke-linecap:round; stroke-linejoin:round; stroke-width:2; stroke-opacity:0.1; fill:none" points="364.733,223.638 3152.76,223.638 "/>
<polyline clip-path="url(#clip230)" style="stroke:#000000; stroke-linecap:round; stroke-linejoin:round; stroke-width:4; stroke-opacity:1; fill:none" points="364.733,1495.09 3152.76,1495.09 "/>
<polyline clip-path="url(#clip230)" style="stroke:#000000; stroke-linecap:round; stroke-linejoin:round; stroke-width:4; stroke-opacity:1; fill:none" points="735.885,1495.09 735.885,1476.19 "/>
<polyline clip-path="url(#clip230)" style="stroke:#000000; stroke-linecap:round; stroke-linejoin:round; stroke-width:4; stroke-opacity:1; fill:none" points="1758.74,1495.09 1758.74,1476.19 "/>
<polyline clip-path="url(#clip230)" style="stroke:#000000; stroke-linecap:round; stroke-linejoin:round; stroke-width:4; stroke-opacity:1; fill:none" points="2781.6,1495.09 2781.6,1476.19 "/>
<path clip-path="url(#clip230)" d="M651.846 1538.73 L651.846 1542.75 Q650.04 1541.83 648.096 1541.36 Q646.151 1540.9 644.068 1540.9 Q640.897 1540.9 639.299 1541.87 Q637.725 1542.85 637.725 1544.79 Q637.725 1546.27 638.86 1547.13 Q639.994 1547.96 643.42 1548.73 L644.878 1549.05 Q649.415 1550.02 651.313 1551.8 Q653.235 1553.56 653.235 1556.74 Q653.235 1560.35 650.364 1562.45 Q647.517 1564.56 642.517 1564.56 Q640.434 1564.56 638.165 1564.14 Q635.92 1563.75 633.42 1562.94 L633.42 1558.54 Q635.781 1559.77 638.073 1560.39 Q640.364 1560.99 642.61 1560.99 Q645.619 1560.99 647.239 1559.98 Q648.86 1558.93 648.86 1557.06 Q648.86 1555.32 647.679 1554.4 Q646.522 1553.47 642.563 1552.61 L641.082 1552.27 Q637.123 1551.43 635.364 1549.72 Q633.605 1547.99 633.605 1544.98 Q633.605 1541.32 636.198 1539.33 Q638.79 1537.34 643.559 1537.34 Q645.92 1537.34 648.003 1537.68 Q650.086 1538.03 651.846 1538.73 Z" fill="#000000" fill-rule="nonzero" fill-opacity="1" /><path clip-path="url(#clip230)" d="M670.804 1566.3 Q668.998 1570.92 667.285 1572.34 Q665.572 1573.75 662.702 1573.75 L659.299 1573.75 L659.299 1570.18 L661.799 1570.18 Q663.559 1570.18 664.531 1569.35 Q665.503 1568.52 666.684 1565.42 L667.447 1563.47 L656.961 1537.96 L661.475 1537.96 L669.577 1558.24 L677.679 1537.96 L682.193 1537.96 L670.804 1566.3 Z" fill="#000000" fill-rule="nonzero" fill-opacity="1" /><path clip-path="url(#clip230)" d="M708.257 1542.94 Q709.855 1540.07 712.077 1538.7 Q714.299 1537.34 717.308 1537.34 Q721.359 1537.34 723.558 1540.18 Q725.757 1543.01 725.757 1548.24 L725.757 1563.89 L721.475 1563.89 L721.475 1548.38 Q721.475 1544.65 720.155 1542.85 Q718.836 1541.04 716.128 1541.04 Q712.818 1541.04 710.896 1543.24 Q708.975 1545.44 708.975 1549.24 L708.975 1563.89 L704.693 1563.89 L704.693 1548.38 Q704.693 1544.63 703.373 1542.85 Q702.054 1541.04 699.299 1541.04 Q696.035 1541.04 694.114 1543.26 Q692.193 1545.46 692.193 1549.24 L692.193 1563.89 L687.91 1563.89 L687.91 1537.96 L692.193 1537.96 L692.193 1541.99 Q693.651 1539.61 695.688 1538.47 Q697.725 1537.34 700.526 1537.34 Q703.35 1537.34 705.318 1538.77 Q707.308 1540.21 708.257 1542.94 Z" fill="#000000" fill-rule="nonzero" fill-opacity="1" /><path clip-path="url(#clip230)" d="M752.864 1550.95 Q752.864 1546.25 750.919 1543.59 Q748.998 1540.9 745.618 1540.9 Q742.239 1540.9 740.294 1543.59 Q738.373 1546.25 738.373 1550.95 Q738.373 1555.65 740.294 1558.33 Q742.239 1560.99 745.618 1560.99 Q748.998 1560.99 750.919 1558.33 Q752.864 1555.65 752.864 1550.95 M738.373 1541.9 Q739.716 1539.58 741.753 1538.47 Q743.813 1537.34 746.66 1537.34 Q751.382 1537.34 754.322 1541.09 Q757.285 1544.84 757.285 1550.95 Q757.285 1557.06 754.322 1560.81 Q751.382 1564.56 746.66 1564.56 Q743.813 1564.56 741.753 1563.45 Q739.716 1562.31 738.373 1560 L738.373 1563.89 L734.091 1563.89 L734.091 1527.87 L738.373 1527.87 L738.373 1541.9 Z" fill="#000000" fill-rule="nonzero" fill-opacity="1" /><path clip-path="url(#clip230)" d="M774.391 1540.95 Q770.965 1540.95 768.975 1543.63 Q766.984 1546.3 766.984 1550.95 Q766.984 1555.6 768.951 1558.29 Q770.942 1560.95 774.391 1560.95 Q777.794 1560.95 779.785 1558.26 Q781.775 1555.58 781.775 1550.95 Q781.775 1546.34 779.785 1543.66 Q777.794 1540.95 774.391 1540.95 M774.391 1537.34 Q779.947 1537.34 783.118 1540.95 Q786.289 1544.56 786.289 1550.95 Q786.289 1557.31 783.118 1560.95 Q779.947 1564.56 774.391 1564.56 Q768.813 1564.56 765.641 1560.95 Q762.493 1557.31 762.493 1550.95 Q762.493 1544.56 765.641 1540.95 Q768.813 1537.34 774.391 1537.34 Z" fill="#000000" fill-rule="nonzero" fill-opacity="1" /><path clip-path="url(#clip230)" d="M793.349 1527.87 L797.609 1527.87 L797.609 1563.89 L793.349 1563.89 L793.349 1527.87 Z" fill="#000000" fill-rule="nonzero" fill-opacity="1" /><path clip-path="url(#clip230)" d="M806.521 1537.96 L810.78 1537.96 L810.78 1563.89 L806.521 1563.89 L806.521 1537.96 M806.521 1527.87 L810.78 1527.87 L810.78 1533.26 L806.521 1533.26 L806.521 1527.87 Z" fill="#000000" fill-rule="nonzero" fill-opacity="1" /><path clip-path="url(#clip230)" d="M838.349 1538.96 L838.349 1542.94 Q836.544 1541.94 834.715 1541.46 Q832.909 1540.95 831.058 1540.95 Q826.914 1540.95 824.622 1543.59 Q822.331 1546.2 822.331 1550.95 Q822.331 1555.69 824.622 1558.33 Q826.914 1560.95 831.058 1560.95 Q832.909 1560.95 834.715 1560.46 Q836.544 1559.95 838.349 1558.96 L838.349 1562.89 Q836.567 1563.73 834.646 1564.14 Q832.747 1564.56 830.595 1564.56 Q824.738 1564.56 821.289 1560.88 Q817.84 1557.2 817.84 1550.95 Q817.84 1544.61 821.312 1540.97 Q824.808 1537.34 830.872 1537.34 Q832.84 1537.34 834.715 1537.75 Q836.59 1538.15 838.349 1538.96 Z" fill="#000000" fill-rule="nonzero" fill-opacity="1" /><path clip-path="url(#clip230)" d="M1669.07 1527.87 L1669.07 1531.41 L1664.99 1531.41 Q1662.7 1531.41 1661.8 1532.34 Q1660.92 1533.26 1660.92 1535.67 L1660.92 1537.96 L1667.93 1537.96 L1667.93 1541.27 L1660.92 1541.27 L1660.92 1563.89 L1656.64 1563.89 L1656.64 1541.27 L1652.56 1541.27 L1652.56 1537.96 L1656.64 1537.96 L1656.64 1536.16 Q1656.64 1531.83 1658.65 1529.86 Q1660.67 1527.87 1665.04 1527.87 L1669.07 1527.87 Z" fill="#000000" fill-rule="nonzero" fill-opacity="1" /><path clip-path="url(#clip230)" d="M1672.63 1537.96 L1676.89 1537.96 L1676.89 1563.89 L1672.63 1563.89 L1672.63 1537.96 M1672.63 1527.87 L1676.89 1527.87 L1676.89 1533.26 L1672.63 1533.26 L1672.63 1527.87 Z" fill="#000000" fill-rule="nonzero" fill-opacity="1" /><path clip-path="url(#clip230)" d="M1707.36 1548.24 L1707.36 1563.89 L1703.1 1563.89 L1703.1 1548.38 Q1703.1 1544.7 1701.66 1542.87 Q1700.23 1541.04 1697.36 1541.04 Q1693.91 1541.04 1691.92 1543.24 Q1689.93 1545.44 1689.93 1549.24 L1689.93 1563.89 L1685.64 1563.89 L1685.64 1537.96 L1689.93 1537.96 L1689.93 1541.99 Q1691.45 1539.65 1693.51 1538.49 Q1695.6 1537.34 1698.3 1537.34 Q1702.77 1537.34 1705.06 1540.11 Q1707.36 1542.87 1707.36 1548.24 Z" fill="#000000" fill-rule="nonzero" fill-opacity="1" /><path clip-path="url(#clip230)" d="M1715.85 1537.96 L1720.11 1537.96 L1720.11 1563.89 L1715.85 1563.89 L1715.85 1537.96 M1715.85 1527.87 L1720.11 1527.87 L1720.11 1533.26 L1715.85 1533.26 L1715.85 1527.87 Z" fill="#000000" fill-rule="nonzero" fill-opacity="1" /><path clip-path="url(#clip230)" d="M1733.24 1530.6 L1733.24 1537.96 L1742.01 1537.96 L1742.01 1541.27 L1733.24 1541.27 L1733.24 1555.35 Q1733.24 1558.52 1734.09 1559.42 Q1734.97 1560.32 1737.63 1560.32 L1742.01 1560.32 L1742.01 1563.89 L1737.63 1563.89 Q1732.7 1563.89 1730.83 1562.06 Q1728.95 1560.21 1728.95 1555.35 L1728.95 1541.27 L1725.83 1541.27 L1725.83 1537.96 L1728.95 1537.96 L1728.95 1530.6 L1733.24 1530.6 Z" fill="#000000" fill-rule="nonzero" fill-opacity="1" /><path clip-path="url(#clip230)" d="M1769.79 1549.86 L1769.79 1551.94 L1750.2 1551.94 Q1750.48 1556.34 1752.84 1558.66 Q1755.23 1560.95 1759.46 1560.95 Q1761.92 1560.95 1764.21 1560.35 Q1766.52 1559.74 1768.79 1558.54 L1768.79 1562.57 Q1766.5 1563.54 1764.09 1564.05 Q1761.68 1564.56 1759.21 1564.56 Q1753 1564.56 1749.37 1560.95 Q1745.76 1557.34 1745.76 1551.18 Q1745.76 1544.81 1749.18 1541.09 Q1752.63 1537.34 1758.47 1537.34 Q1763.7 1537.34 1766.73 1540.72 Q1769.79 1544.07 1769.79 1549.86 M1765.53 1548.61 Q1765.48 1545.11 1763.56 1543.03 Q1761.66 1540.95 1758.51 1540.95 Q1754.95 1540.95 1752.8 1542.96 Q1750.67 1544.98 1750.34 1548.63 L1765.53 1548.61 Z" fill="#000000" fill-rule="nonzero" fill-opacity="1" /><path clip-path="url(#clip230)" d="M1808.91 1541.9 L1808.91 1527.87 L1813.17 1527.87 L1813.17 1563.89 L1808.91 1563.89 L1808.91 1560 Q1807.56 1562.31 1805.5 1563.45 Q1803.47 1564.56 1800.6 1564.56 Q1795.9 1564.56 1792.93 1560.81 Q1789.99 1557.06 1789.99 1550.95 Q1789.99 1544.84 1792.93 1541.09 Q1795.9 1537.34 1800.6 1537.34 Q1803.47 1537.34 1805.5 1538.47 Q1807.56 1539.58 1808.91 1541.9 M1794.39 1550.95 Q1794.39 1555.65 1796.31 1558.33 Q1798.26 1560.99 1801.64 1560.99 Q1805.02 1560.99 1806.96 1558.33 Q1808.91 1555.65 1808.91 1550.95 Q1808.91 1546.25 1806.96 1543.59 Q1805.02 1540.9 1801.64 1540.9 Q1798.26 1540.9 1796.31 1543.59 Q1794.39 1546.25 1794.39 1550.95 Z" fill="#000000" fill-rule="nonzero" fill-opacity="1" /><path clip-path="url(#clip230)" d="M1821.94 1537.96 L1826.2 1537.96 L1826.2 1563.89 L1821.94 1563.89 L1821.94 1537.96 M1821.94 1527.87 L1826.2 1527.87 L1826.2 1533.26 L1821.94 1533.26 L1821.94 1527.87 Z" fill="#000000" fill-rule="nonzero" fill-opacity="1" /><path clip-path="url(#clip230)" d="M1848.23 1527.87 L1848.23 1531.41 L1844.16 1531.41 Q1841.87 1531.41 1840.97 1532.34 Q1840.09 1533.26 1840.09 1535.67 L1840.09 1537.96 L1847.1 1537.96 L1847.1 1541.27 L1840.09 1541.27 L1840.09 1563.89 L1835.8 1563.89 L1835.8 1541.27 L1831.73 1541.27 L1831.73 1537.96 L1835.8 1537.96 L1835.8 1536.16 Q1835.8 1531.83 1837.82 1529.86 Q1839.83 1527.87 1844.21 1527.87 L1848.23 1527.87 Z" fill="#000000" fill-rule="nonzero" fill-opacity="1" /><path clip-path="url(#clip230)" d="M1864.92 1527.87 L1864.92 1531.41 L1860.85 1531.41 Q1858.56 1531.41 1857.66 1532.34 Q1856.78 1533.26 1856.78 1535.67 L1856.78 1537.96 L1863.79 1537.96 L1863.79 1541.27 L1856.78 1541.27 L1856.78 1563.89 L1852.49 1563.89 L1852.49 1541.27 L1848.42 1541.27 L1848.42 1537.96 L1852.49 1537.96 L1852.49 1536.16 Q1852.49 1531.83 1854.51 1529.86 Q1856.52 1527.87 1860.9 1527.87 L1864.92 1527.87 Z" fill="#000000" fill-rule="nonzero" fill-opacity="1" /><path clip-path="url(#clip230)" d="M2661.47 1527.87 L2661.47 1531.41 L2657.39 1531.41 Q2655.1 1531.41 2654.2 1532.34 Q2653.32 1533.26 2653.32 1535.67 L2653.32 1537.96 L2660.33 1537.96 L2660.33 1541.27 L2653.32 1541.27 L2653.32 1563.89 L2649.04 1563.89 L2649.04 1541.27 L2644.96 1541.27 L2644.96 1537.96 L2649.04 1537.96 L2649.04 1536.16 Q2649.04 1531.83 2651.05 1529.86 Q2653.06 1527.87 2657.44 1527.87 L2661.47 1527.87 Z" fill="#000000" fill-rule="nonzero" fill-opacity="1" /><path clip-path="url(#clip230)" d="M2675.08 1540.95 Q2671.65 1540.95 2669.66 1543.63 Q2667.67 1546.3 2667.67 1550.95 Q2667.67 1555.6 2669.64 1558.29 Q2671.63 1560.95 2675.08 1560.95 Q2678.48 1560.95 2680.47 1558.26 Q2682.46 1555.58 2682.46 1550.95 Q2682.46 1546.34 2680.47 1543.66 Q2678.48 1540.95 2675.08 1540.95 M2675.08 1537.34 Q2680.63 1537.34 2683.8 1540.95 Q2686.97 1544.56 2686.97 1550.95 Q2686.97 1557.31 2683.8 1560.95 Q2680.63 1564.56 2675.08 1564.56 Q2669.5 1564.56 2666.33 1560.95 Q2663.18 1557.31 2663.18 1550.95 Q2663.18 1544.56 2666.33 1540.95 Q2669.5 1537.34 2675.08 1537.34 Z" fill="#000000" fill-rule="nonzero" fill-opacity="1" /><path clip-path="url(#clip230)" d="M2709.06 1541.94 Q2708.34 1541.53 2707.48 1541.34 Q2706.65 1541.13 2705.63 1541.13 Q2702.02 1541.13 2700.08 1543.49 Q2698.16 1545.83 2698.16 1550.23 L2698.16 1563.89 L2693.87 1563.89 L2693.87 1537.96 L2698.16 1537.96 L2698.16 1541.99 Q2699.5 1539.63 2701.65 1538.49 Q2703.8 1537.34 2706.88 1537.34 Q2707.32 1537.34 2707.85 1537.41 Q2708.39 1537.45 2709.03 1537.57 L2709.06 1541.94 Z" fill="#000000" fill-rule="nonzero" fill-opacity="1" /><path clip-path="url(#clip230)" d="M2711.05 1537.96 L2715.31 1537.96 L2720.63 1558.19 L2725.93 1537.96 L2730.96 1537.96 L2736.28 1558.19 L2741.58 1537.96 L2745.84 1537.96 L2739.06 1563.89 L2734.03 1563.89 L2728.46 1542.64 L2722.85 1563.89 L2717.83 1563.89 L2711.05 1537.96 Z" fill="#000000" fill-rule="nonzero" fill-opacity="1" /><path clip-path="url(#clip230)" d="M2764.08 1550.86 Q2758.92 1550.86 2756.93 1552.04 Q2754.94 1553.22 2754.94 1556.06 Q2754.94 1558.33 2756.42 1559.67 Q2757.92 1560.99 2760.49 1560.99 Q2764.03 1560.99 2766.16 1558.49 Q2768.32 1555.97 2768.32 1551.8 L2768.32 1550.86 L2764.08 1550.86 M2772.58 1549.1 L2772.58 1563.89 L2768.32 1563.89 L2768.32 1559.95 Q2766.86 1562.31 2764.68 1563.45 Q2762.51 1564.56 2759.36 1564.56 Q2755.38 1564.56 2753.02 1562.34 Q2750.68 1560.09 2750.68 1556.34 Q2750.68 1551.97 2753.59 1549.74 Q2756.53 1547.52 2762.34 1547.52 L2768.32 1547.52 L2768.32 1547.11 Q2768.32 1544.17 2766.37 1542.57 Q2764.45 1540.95 2760.96 1540.95 Q2758.73 1540.95 2756.63 1541.48 Q2754.52 1542.01 2752.58 1543.08 L2752.58 1539.14 Q2754.91 1538.24 2757.11 1537.8 Q2759.31 1537.34 2761.4 1537.34 Q2767.02 1537.34 2769.8 1540.25 Q2772.58 1543.17 2772.58 1549.1 Z" fill="#000000" fill-rule="nonzero" fill-opacity="1" /><path clip-path="url(#clip230)" d="M2796.37 1541.94 Q2795.65 1541.53 2794.8 1541.34 Q2793.96 1541.13 2792.95 1541.13 Q2789.34 1541.13 2787.39 1543.49 Q2785.47 1545.83 2785.47 1550.23 L2785.47 1563.89 L2781.19 1563.89 L2781.19 1537.96 L2785.47 1537.96 L2785.47 1541.99 Q2786.81 1539.63 2788.97 1538.49 Q2791.12 1537.34 2794.2 1537.34 Q2794.64 1537.34 2795.17 1537.41 Q2795.7 1537.45 2796.35 1537.57 L2796.37 1541.94 Z" fill="#000000" fill-rule="nonzero" fill-opacity="1" /><path clip-path="url(#clip230)" d="M2817.07 1541.9 L2817.07 1527.87 L2821.33 1527.87 L2821.33 1563.89 L2817.07 1563.89 L2817.07 1560 Q2815.72 1562.31 2813.66 1563.45 Q2811.63 1564.56 2808.76 1564.56 Q2804.06 1564.56 2801.09 1560.81 Q2798.15 1557.06 2798.15 1550.95 Q2798.15 1544.84 2801.09 1541.09 Q2804.06 1537.34 2808.76 1537.34 Q2811.63 1537.34 2813.66 1538.47 Q2815.72 1539.58 2817.07 1541.9 M2802.55 1550.95 Q2802.55 1555.65 2804.47 1558.33 Q2806.42 1560.99 2809.8 1560.99 Q2813.18 1560.99 2815.12 1558.33 Q2817.07 1555.65 2817.07 1550.95 Q2817.07 1546.25 2815.12 1543.59 Q2813.18 1540.9 2809.8 1540.9 Q2806.42 1540.9 2804.47 1543.59 Q2802.55 1546.25 2802.55 1550.95 Z" fill="#000000" fill-rule="nonzero" fill-opacity="1" /><path clip-path="url(#clip230)" d="M2862.23 1541.9 L2862.23 1527.87 L2866.49 1527.87 L2866.49 1563.89 L2862.23 1563.89 L2862.23 1560 Q2860.89 1562.31 2858.83 1563.45 Q2856.79 1564.56 2853.92 1564.56 Q2849.22 1564.56 2846.26 1560.81 Q2843.32 1557.06 2843.32 1550.95 Q2843.32 1544.84 2846.26 1541.09 Q2849.22 1537.34 2853.92 1537.34 Q2856.79 1537.34 2858.83 1538.47 Q2860.89 1539.58 2862.23 1541.9 M2847.71 1550.95 Q2847.71 1555.65 2849.64 1558.33 Q2851.58 1560.99 2854.96 1560.99 Q2858.34 1560.99 2860.28 1558.33 Q2862.23 1555.65 2862.23 1550.95 Q2862.23 1546.25 2860.28 1543.59 Q2858.34 1540.9 2854.96 1540.9 Q2851.58 1540.9 2849.64 1543.59 Q2847.71 1546.25 2847.71 1550.95 Z" fill="#000000" fill-rule="nonzero" fill-opacity="1" /><path clip-path="url(#clip230)" d="M2875.26 1537.96 L2879.52 1537.96 L2879.52 1563.89 L2875.26 1563.89 L2875.26 1537.96 M2875.26 1527.87 L2879.52 1527.87 L2879.52 1533.26 L2875.26 1533.26 L2875.26 1527.87 Z" fill="#000000" fill-rule="nonzero" fill-opacity="1" /><path clip-path="url(#clip230)" d="M2901.56 1527.87 L2901.56 1531.41 L2897.48 1531.41 Q2895.19 1531.41 2894.29 1532.34 Q2893.41 1533.26 2893.41 1535.67 L2893.41 1537.96 L2900.42 1537.96 L2900.42 1541.27 L2893.41 1541.27 L2893.41 1563.89 L2889.13 1563.89 L2889.13 1541.27 L2885.05 1541.27 L2885.05 1537.96 L2889.13 1537.96 L2889.13 1536.16 Q2889.13 1531.83 2891.14 1529.86 Q2893.15 1527.87 2897.53 1527.87 L2901.56 1527.87 Z" fill="#000000" fill-rule="nonzero" fill-opacity="1" /><path clip-path="url(#clip230)" d="M2918.25 1527.87 L2918.25 1531.41 L2914.17 1531.41 Q2911.88 1531.41 2910.98 1532.34 Q2910.1 1533.26 2910.1 1535.67 L2910.1 1537.96 L2917.11 1537.96 L2917.11 1541.27 L2910.1 1541.27 L2910.1 1563.89 L2905.82 1563.89 L2905.82 1541.27 L2901.74 1541.27 L2901.74 1537.96 L2905.82 1537.96 L2905.82 1536.16 Q2905.82 1531.83 2907.83 1529.86 Q2909.84 1527.87 2914.22 1527.87 L2918.25 1527.87 Z" fill="#000000" fill-rule="nonzero" fill-opacity="1" /><polyline clip-path="url(#clip230)" style="stroke:#000000; stroke-linecap:round; stroke-linejoin:round; stroke-width:4; stroke-opacity:1; fill:none" points="364.733,1495.09 364.733,47.2441 "/>
<polyline clip-path="url(#clip230)" style="stroke:#000000; stroke-linecap:round; stroke-linejoin:round; stroke-width:4; stroke-opacity:1; fill:none" points="364.733,1390.96 383.63,1390.96 "/>
<polyline clip-path="url(#clip230)" style="stroke:#000000; stroke-linecap:round; stroke-linejoin:round; stroke-width:4; stroke-opacity:1; fill:none" points="364.733,1157.49 383.63,1157.49 "/>
<polyline clip-path="url(#clip230)" style="stroke:#000000; stroke-linecap:round; stroke-linejoin:round; stroke-width:4; stroke-opacity:1; fill:none" points="364.733,924.03 383.63,924.03 "/>
<polyline clip-path="url(#clip230)" style="stroke:#000000; stroke-linecap:round; stroke-linejoin:round; stroke-width:4; stroke-opacity:1; fill:none" points="364.733,690.566 383.63,690.566 "/>
<polyline clip-path="url(#clip230)" style="stroke:#000000; stroke-linecap:round; stroke-linejoin:round; stroke-width:4; stroke-opacity:1; fill:none" points="364.733,457.102 383.63,457.102 "/>
<polyline clip-path="url(#clip230)" style="stroke:#000000; stroke-linecap:round; stroke-linejoin:round; stroke-width:4; stroke-opacity:1; fill:none" points="364.733,223.638 383.63,223.638 "/>
<path clip-path="url(#clip230)" d="M100.137 1380.13 L118.493 1380.13 L118.493 1384.06 L104.419 1384.06 L104.419 1392.53 Q105.437 1392.19 106.456 1392.02 Q107.474 1391.84 108.493 1391.84 Q114.28 1391.84 117.66 1395.01 Q121.039 1398.18 121.039 1403.6 Q121.039 1409.18 117.567 1412.28 Q114.095 1415.36 107.775 1415.36 Q105.599 1415.36 103.331 1414.99 Q101.086 1414.62 98.6782 1413.88 L98.6782 1409.18 Q100.762 1410.31 102.984 1410.87 Q105.206 1411.42 107.683 1411.42 Q111.687 1411.42 114.025 1409.32 Q116.363 1407.21 116.363 1403.6 Q116.363 1399.99 114.025 1397.88 Q111.687 1395.77 107.683 1395.77 Q105.808 1395.77 103.933 1396.19 Q102.081 1396.61 100.137 1397.49 L100.137 1380.13 Z" fill="#000000" fill-rule="nonzero" fill-opacity="1" /><path clip-path="url(#clip230)" d="M130.252 1408.81 L135.136 1408.81 L135.136 1414.69 L130.252 1414.69 L130.252 1408.81 Z" fill="#000000" fill-rule="nonzero" fill-opacity="1" /><path clip-path="url(#clip230)" d="M155.321 1383.2 Q151.71 1383.2 149.882 1386.77 Q148.076 1390.31 148.076 1397.44 Q148.076 1404.55 149.882 1408.11 Q151.71 1411.65 155.321 1411.65 Q158.956 1411.65 160.761 1408.11 Q162.59 1404.55 162.59 1397.44 Q162.59 1390.31 160.761 1386.77 Q158.956 1383.2 155.321 1383.2 M155.321 1379.5 Q161.132 1379.5 164.187 1384.11 Q167.266 1388.69 167.266 1397.44 Q167.266 1406.17 164.187 1410.77 Q161.132 1415.36 155.321 1415.36 Q149.511 1415.36 146.433 1410.77 Q143.377 1406.17 143.377 1397.44 Q143.377 1388.69 146.433 1384.11 Q149.511 1379.5 155.321 1379.5 Z" fill="#000000" fill-rule="nonzero" fill-opacity="1" /><path clip-path="url(#clip230)" d="M185.483 1383.2 Q181.872 1383.2 180.043 1386.77 Q178.238 1390.31 178.238 1397.44 Q178.238 1404.55 180.043 1408.11 Q181.872 1411.65 185.483 1411.65 Q189.118 1411.65 190.923 1408.11 Q192.752 1404.55 192.752 1397.44 Q192.752 1390.31 190.923 1386.77 Q189.118 1383.2 185.483 1383.2 M185.483 1379.5 Q191.293 1379.5 194.349 1384.11 Q197.428 1388.69 197.428 1397.44 Q197.428 1406.17 194.349 1410.77 Q191.293 1415.36 185.483 1415.36 Q179.673 1415.36 176.594 1410.77 Q173.539 1406.17 173.539 1397.44 Q173.539 1388.69 176.594 1384.11 Q179.673 1379.5 185.483 1379.5 Z" fill="#000000" fill-rule="nonzero" fill-opacity="1" /><path clip-path="url(#clip230)" d="M233.816 1389.22 L223.238 1399.85 L233.816 1410.43 L231.062 1413.23 L220.437 1402.6 L209.812 1413.23 L207.08 1410.43 L217.636 1399.85 L207.08 1389.22 L209.812 1386.42 L220.437 1397.05 L231.062 1386.42 L233.816 1389.22 Z" fill="#000000" fill-rule="nonzero" fill-opacity="1" /><path clip-path="url(#clip230)" d="M246.177 1410.75 L253.816 1410.75 L253.816 1384.39 L245.506 1386.05 L245.506 1381.79 L253.77 1380.13 L258.446 1380.13 L258.446 1410.75 L266.085 1410.75 L266.085 1414.69 L246.177 1414.69 L246.177 1410.75 Z" fill="#000000" fill-rule="nonzero" fill-opacity="1" /><path clip-path="url(#clip230)" d="M285.529 1383.2 Q281.918 1383.2 280.089 1386.77 Q278.284 1390.31 278.284 1397.44 Q278.284 1404.55 280.089 1408.11 Q281.918 1411.65 285.529 1411.65 Q289.163 1411.65 290.969 1408.11 Q292.798 1404.55 292.798 1397.44 Q292.798 1390.31 290.969 1386.77 Q289.163 1383.2 285.529 1383.2 M285.529 1379.5 Q291.339 1379.5 294.395 1384.11 Q297.473 1388.69 297.473 1397.44 Q297.473 1406.17 294.395 1410.77 Q291.339 1415.36 285.529 1415.36 Q279.719 1415.36 276.64 1410.77 Q273.585 1406.17 273.585 1397.44 Q273.585 1388.69 276.64 1384.11 Q279.719 1379.5 285.529 1379.5 Z" fill="#000000" fill-rule="nonzero" fill-opacity="1" /><path clip-path="url(#clip230)" d="M307.103 1373.94 Q304.395 1373.94 302.834 1375.39 Q301.291 1376.84 301.291 1379.38 Q301.291 1381.92 302.834 1383.36 Q304.395 1384.81 307.103 1384.81 Q309.811 1384.81 311.372 1383.36 Q312.933 1381.9 312.933 1379.38 Q312.933 1376.84 311.372 1375.39 Q309.83 1373.94 307.103 1373.94 M303.304 1372.32 Q300.859 1371.72 299.486 1370.05 Q298.132 1368.37 298.132 1365.97 Q298.132 1362.6 300.52 1360.64 Q302.928 1358.69 307.103 1358.69 Q311.297 1358.69 313.686 1360.64 Q316.074 1362.6 316.074 1365.97 Q316.074 1368.37 314.701 1370.05 Q313.347 1371.72 310.921 1372.32 Q313.667 1372.96 315.19 1374.82 Q316.733 1376.69 316.733 1379.38 Q316.733 1383.46 314.231 1385.64 Q311.749 1387.82 307.103 1387.82 Q302.457 1387.82 299.956 1385.64 Q297.473 1383.46 297.473 1379.38 Q297.473 1376.69 299.016 1374.82 Q300.558 1372.96 303.304 1372.32 M301.912 1366.32 Q301.912 1368.51 303.266 1369.73 Q304.639 1370.95 307.103 1370.95 Q309.548 1370.95 310.921 1369.73 Q312.313 1368.51 312.313 1366.32 Q312.313 1364.14 310.921 1362.92 Q309.548 1361.7 307.103 1361.7 Q304.639 1361.7 303.266 1362.92 Q301.912 1364.14 301.912 1366.32 Z" fill="#000000" fill-rule="nonzero" fill-opacity="1" /><path clip-path="url(#clip230)" d="M100.788 1177.29 L108.426 1177.29 L108.426 1150.92 L100.116 1152.59 L100.116 1148.33 L108.38 1146.66 L113.056 1146.66 L113.056 1177.29 L120.695 1177.29 L120.695 1181.22 L100.788 1181.22 L100.788 1177.29 Z" fill="#000000" fill-rule="nonzero" fill-opacity="1" /><path clip-path="url(#clip230)" d="M130.139 1175.34 L135.023 1175.34 L135.023 1181.22 L130.139 1181.22 L130.139 1175.34 Z" fill="#000000" fill-rule="nonzero" fill-opacity="1" /><path clip-path="url(#clip230)" d="M155.209 1149.74 Q151.597 1149.74 149.769 1153.31 Q147.963 1156.85 147.963 1163.98 Q147.963 1171.08 149.769 1174.65 Q151.597 1178.19 155.209 1178.19 Q158.843 1178.19 160.648 1174.65 Q162.477 1171.08 162.477 1163.98 Q162.477 1156.85 160.648 1153.31 Q158.843 1149.74 155.209 1149.74 M155.209 1146.04 Q161.019 1146.04 164.074 1150.64 Q167.153 1155.23 167.153 1163.98 Q167.153 1172.7 164.074 1177.31 Q161.019 1181.89 155.209 1181.89 Q149.398 1181.89 146.32 1177.31 Q143.264 1172.7 143.264 1163.98 Q143.264 1155.23 146.32 1150.64 Q149.398 1146.04 155.209 1146.04 Z" fill="#000000" fill-rule="nonzero" fill-opacity="1" /><path clip-path="url(#clip230)" d="M185.37 1149.74 Q181.759 1149.74 179.931 1153.31 Q178.125 1156.85 178.125 1163.98 Q178.125 1171.08 179.931 1174.65 Q181.759 1178.19 185.37 1178.19 Q189.005 1178.19 190.81 1174.65 Q192.639 1171.08 192.639 1163.98 Q192.639 1156.85 190.81 1153.31 Q189.005 1149.74 185.37 1149.74 M185.37 1146.04 Q191.181 1146.04 194.236 1150.64 Q197.315 1155.23 197.315 1163.98 Q197.315 1172.7 194.236 1177.31 Q191.181 1181.89 185.37 1181.89 Q179.56 1181.89 176.482 1177.31 Q173.426 1172.7 173.426 1163.98 Q173.426 1155.23 176.482 1150.64 Q179.56 1146.04 185.37 1146.04 Z" fill="#000000" fill-rule="nonzero" fill-opacity="1" /><path clip-path="url(#clip230)" d="M233.704 1155.76 L223.125 1166.38 L233.704 1176.96 L230.949 1179.76 L220.324 1169.14 L209.699 1179.76 L206.968 1176.96 L217.523 1166.38 L206.968 1155.76 L209.699 1152.96 L220.324 1163.58 L230.949 1152.96 L233.704 1155.76 Z" fill="#000000" fill-rule="nonzero" fill-opacity="1" /><path clip-path="url(#clip230)" d="M246.065 1177.29 L253.703 1177.29 L253.703 1150.92 L245.393 1152.59 L245.393 1148.33 L253.657 1146.66 L258.333 1146.66 L258.333 1177.29 L265.972 1177.29 L265.972 1181.22 L246.065 1181.22 L246.065 1177.29 Z" fill="#000000" fill-rule="nonzero" fill-opacity="1" /><path clip-path="url(#clip230)" d="M285.416 1149.74 Q281.805 1149.74 279.976 1153.31 Q278.171 1156.85 278.171 1163.98 Q278.171 1171.08 279.976 1174.65 Q281.805 1178.19 285.416 1178.19 Q289.05 1178.19 290.856 1174.65 Q292.685 1171.08 292.685 1163.98 Q292.685 1156.85 290.856 1153.31 Q289.05 1149.74 285.416 1149.74 M285.416 1146.04 Q291.226 1146.04 294.282 1150.64 Q297.361 1155.23 297.361 1163.98 Q297.361 1172.7 294.282 1177.31 Q291.226 1181.89 285.416 1181.89 Q279.606 1181.89 276.527 1177.31 Q273.472 1172.7 273.472 1163.98 Q273.472 1155.23 276.527 1150.64 Q279.606 1146.04 285.416 1146.04 Z" fill="#000000" fill-rule="nonzero" fill-opacity="1" /><path clip-path="url(#clip230)" d="M299.166 1153.23 L299.166 1149.77 Q300.596 1150.44 302.063 1150.8 Q303.53 1151.16 304.94 1151.16 Q308.702 1151.16 310.676 1148.64 Q312.67 1146.1 312.952 1140.95 Q311.861 1142.56 310.187 1143.43 Q308.514 1144.29 306.482 1144.29 Q302.269 1144.29 299.806 1141.76 Q297.361 1139.2 297.361 1134.78 Q297.361 1130.45 299.918 1127.84 Q302.476 1125.22 306.727 1125.22 Q311.598 1125.22 314.156 1128.97 Q316.733 1132.69 316.733 1139.8 Q316.733 1146.44 313.573 1150.41 Q310.432 1154.36 305.109 1154.36 Q303.68 1154.36 302.213 1154.07 Q300.746 1153.79 299.166 1153.23 M306.727 1141.32 Q309.285 1141.32 310.771 1139.57 Q312.275 1137.82 312.275 1134.78 Q312.275 1131.75 310.771 1130 Q309.285 1128.23 306.727 1128.23 Q304.169 1128.23 302.664 1130 Q301.179 1131.75 301.179 1134.78 Q301.179 1137.82 302.664 1139.57 Q304.169 1141.32 306.727 1141.32 Z" fill="#000000" fill-rule="nonzero" fill-opacity="1" /><path clip-path="url(#clip230)" d="M100.788 943.823 L108.426 943.823 L108.426 917.457 L100.116 919.124 L100.116 914.864 L108.38 913.198 L113.056 913.198 L113.056 943.823 L120.695 943.823 L120.695 947.758 L100.788 947.758 L100.788 943.823 Z" fill="#000000" fill-rule="nonzero" fill-opacity="1" /><path clip-path="url(#clip230)" d="M130.139 941.878 L135.023 941.878 L135.023 947.758 L130.139 947.758 L130.139 941.878 Z" fill="#000000" fill-rule="nonzero" fill-opacity="1" /><path clip-path="url(#clip230)" d="M145.255 913.198 L163.611 913.198 L163.611 917.133 L149.537 917.133 L149.537 925.605 Q150.556 925.258 151.574 925.096 Q152.593 924.911 153.611 924.911 Q159.398 924.911 162.778 928.082 Q166.158 931.253 166.158 936.67 Q166.158 942.249 162.685 945.35 Q159.213 948.429 152.894 948.429 Q150.718 948.429 148.449 948.059 Q146.204 947.688 143.797 946.948 L143.797 942.249 Q145.88 943.383 148.102 943.938 Q150.324 944.494 152.801 944.494 Q156.806 944.494 159.144 942.387 Q161.482 940.281 161.482 936.67 Q161.482 933.059 159.144 930.952 Q156.806 928.846 152.801 928.846 Q150.926 928.846 149.051 929.263 Q147.199 929.679 145.255 930.559 L145.255 913.198 Z" fill="#000000" fill-rule="nonzero" fill-opacity="1" /><path clip-path="url(#clip230)" d="M185.37 916.276 Q181.759 916.276 179.931 919.841 Q178.125 923.383 178.125 930.513 Q178.125 937.619 179.931 941.184 Q181.759 944.725 185.37 944.725 Q189.005 944.725 190.81 941.184 Q192.639 937.619 192.639 930.513 Q192.639 923.383 190.81 919.841 Q189.005 916.276 185.37 916.276 M185.37 912.573 Q191.181 912.573 194.236 917.179 Q197.315 921.763 197.315 930.513 Q197.315 939.239 194.236 943.846 Q191.181 948.429 185.37 948.429 Q179.56 948.429 176.482 943.846 Q173.426 939.239 173.426 930.513 Q173.426 921.763 176.482 917.179 Q179.56 912.573 185.37 912.573 Z" fill="#000000" fill-rule="nonzero" fill-opacity="1" /><path clip-path="url(#clip230)" d="M233.704 922.295 L223.125 932.92 L233.704 943.499 L230.949 946.299 L220.324 935.675 L209.699 946.299 L206.968 943.499 L217.523 932.92 L206.968 922.295 L209.699 919.494 L220.324 930.119 L230.949 919.494 L233.704 922.295 Z" fill="#000000" fill-rule="nonzero" fill-opacity="1" /><path clip-path="url(#clip230)" d="M246.065 943.823 L253.703 943.823 L253.703 917.457 L245.393 919.124 L245.393 914.864 L253.657 913.198 L258.333 913.198 L258.333 943.823 L265.972 943.823 L265.972 947.758 L246.065 947.758 L246.065 943.823 Z" fill="#000000" fill-rule="nonzero" fill-opacity="1" /><path clip-path="url(#clip230)" d="M285.416 916.276 Q281.805 916.276 279.976 919.841 Q278.171 923.383 278.171 930.513 Q278.171 937.619 279.976 941.184 Q281.805 944.725 285.416 944.725 Q289.05 944.725 290.856 941.184 Q292.685 937.619 292.685 930.513 Q292.685 923.383 290.856 919.841 Q289.05 916.276 285.416 916.276 M285.416 912.573 Q291.226 912.573 294.282 917.179 Q297.361 921.763 297.361 930.513 Q297.361 939.239 294.282 943.846 Q291.226 948.429 285.416 948.429 Q279.606 948.429 276.527 943.846 Q273.472 939.239 273.472 930.513 Q273.472 921.763 276.527 917.179 Q279.606 912.573 285.416 912.573 Z" fill="#000000" fill-rule="nonzero" fill-opacity="1" /><path clip-path="url(#clip230)" d="M299.166 919.764 L299.166 916.304 Q300.596 916.981 302.063 917.338 Q303.53 917.696 304.94 917.696 Q308.702 917.696 310.676 915.175 Q312.67 912.636 312.952 907.483 Q311.861 909.1 310.187 909.966 Q308.514 910.831 306.482 910.831 Q302.269 910.831 299.806 908.292 Q297.361 905.734 297.361 901.314 Q297.361 896.988 299.918 894.374 Q302.476 891.76 306.727 891.76 Q311.598 891.76 314.156 895.502 Q316.733 899.226 316.733 906.336 Q316.733 912.975 313.573 916.943 Q310.432 920.893 305.109 920.893 Q303.68 920.893 302.213 920.611 Q300.746 920.329 299.166 919.764 M306.727 907.859 Q309.285 907.859 310.771 906.11 Q312.275 904.361 312.275 901.314 Q312.275 898.286 310.771 896.537 Q309.285 894.769 306.727 894.769 Q304.169 894.769 302.664 896.537 Q301.179 898.286 301.179 901.314 Q301.179 904.361 302.664 906.11 Q304.169 907.859 306.727 907.859 Z" fill="#000000" fill-rule="nonzero" fill-opacity="1" /><path clip-path="url(#clip230)" d="M104.005 710.359 L120.324 710.359 L120.324 714.294 L98.3802 714.294 L98.3802 710.359 Q101.042 707.604 105.625 702.974 Q110.232 698.322 111.412 696.979 Q113.658 694.456 114.537 692.72 Q115.44 690.961 115.44 689.271 Q115.44 686.516 113.496 684.78 Q111.575 683.044 108.473 683.044 Q106.274 683.044 103.82 683.808 Q101.389 684.572 98.6116 686.123 L98.6116 681.4 Q101.436 680.266 103.889 679.687 Q106.343 679.109 108.38 679.109 Q113.75 679.109 116.945 681.794 Q120.139 684.479 120.139 688.97 Q120.139 691.099 119.329 693.021 Q118.542 694.919 116.436 697.511 Q115.857 698.183 112.755 701.4 Q109.653 704.595 104.005 710.359 Z" fill="#000000" fill-rule="nonzero" fill-opacity="1" /><path clip-path="url(#clip230)" d="M130.139 708.414 L135.023 708.414 L135.023 714.294 L130.139 714.294 L130.139 708.414 Z" fill="#000000" fill-rule="nonzero" fill-opacity="1" /><path clip-path="url(#clip230)" d="M155.209 682.812 Q151.597 682.812 149.769 686.377 Q147.963 689.919 147.963 697.048 Q147.963 704.155 149.769 707.72 Q151.597 711.261 155.209 711.261 Q158.843 711.261 160.648 707.72 Q162.477 704.155 162.477 697.048 Q162.477 689.919 160.648 686.377 Q158.843 682.812 155.209 682.812 M155.209 679.109 Q161.019 679.109 164.074 683.715 Q167.153 688.299 167.153 697.048 Q167.153 705.775 164.074 710.382 Q161.019 714.965 155.209 714.965 Q149.398 714.965 146.32 710.382 Q143.264 705.775 143.264 697.048 Q143.264 688.299 146.32 683.715 Q149.398 679.109 155.209 679.109 Z" fill="#000000" fill-rule="nonzero" fill-opacity="1" /><path clip-path="url(#clip230)" d="M185.37 682.812 Q181.759 682.812 179.931 686.377 Q178.125 689.919 178.125 697.048 Q178.125 704.155 179.931 707.72 Q181.759 711.261 185.37 711.261 Q189.005 711.261 190.81 707.72 Q192.639 704.155 192.639 697.048 Q192.639 689.919 190.81 686.377 Q189.005 682.812 185.37 682.812 M185.37 679.109 Q191.181 679.109 194.236 683.715 Q197.315 688.299 197.315 697.048 Q197.315 705.775 194.236 710.382 Q191.181 714.965 185.37 714.965 Q179.56 714.965 176.482 710.382 Q173.426 705.775 173.426 697.048 Q173.426 688.299 176.482 683.715 Q179.56 679.109 185.37 679.109 Z" fill="#000000" fill-rule="nonzero" fill-opacity="1" /><path clip-path="url(#clip230)" d="M233.704 688.831 L223.125 699.456 L233.704 710.035 L230.949 712.835 L220.324 702.21 L209.699 712.835 L206.968 710.035 L217.523 699.456 L206.968 688.831 L209.699 686.03 L220.324 696.655 L230.949 686.03 L233.704 688.831 Z" fill="#000000" fill-rule="nonzero" fill-opacity="1" /><path clip-path="url(#clip230)" d="M246.065 710.359 L253.703 710.359 L253.703 683.993 L245.393 685.66 L245.393 681.4 L253.657 679.734 L258.333 679.734 L258.333 710.359 L265.972 710.359 L265.972 714.294 L246.065 714.294 L246.065 710.359 Z" fill="#000000" fill-rule="nonzero" fill-opacity="1" /><path clip-path="url(#clip230)" d="M285.416 682.812 Q281.805 682.812 279.976 686.377 Q278.171 689.919 278.171 697.048 Q278.171 704.155 279.976 707.72 Q281.805 711.261 285.416 711.261 Q289.05 711.261 290.856 707.72 Q292.685 704.155 292.685 697.048 Q292.685 689.919 290.856 686.377 Q289.05 682.812 285.416 682.812 M285.416 679.109 Q291.226 679.109 294.282 683.715 Q297.361 688.299 297.361 697.048 Q297.361 705.775 294.282 710.382 Q291.226 714.965 285.416 714.965 Q279.606 714.965 276.527 710.382 Q273.472 705.775 273.472 697.048 Q273.472 688.299 276.527 683.715 Q279.606 679.109 285.416 679.109 Z" fill="#000000" fill-rule="nonzero" fill-opacity="1" /><path clip-path="url(#clip230)" d="M299.166 686.3 L299.166 682.84 Q300.596 683.517 302.063 683.874 Q303.53 684.231 304.94 684.231 Q308.702 684.231 310.676 681.711 Q312.67 679.172 312.952 674.019 Q311.861 675.636 310.187 676.501 Q308.514 677.367 306.482 677.367 Q302.269 677.367 299.806 674.828 Q297.361 672.27 297.361 667.85 Q297.361 663.524 299.918 660.91 Q302.476 658.296 306.727 658.296 Q311.598 658.296 314.156 662.038 Q316.733 665.762 316.733 672.872 Q316.733 679.511 313.573 683.479 Q310.432 687.429 305.109 687.429 Q303.68 687.429 302.213 687.147 Q300.746 686.865 299.166 686.3 M306.727 674.395 Q309.285 674.395 310.771 672.646 Q312.275 670.897 312.275 667.85 Q312.275 664.822 310.771 663.073 Q309.285 661.305 306.727 661.305 Q304.169 661.305 302.664 663.073 Q301.179 664.822 301.179 667.85 Q301.179 670.897 302.664 672.646 Q304.169 674.395 306.727 674.395 Z" fill="#000000" fill-rule="nonzero" fill-opacity="1" /><path clip-path="url(#clip230)" d="M104.005 476.895 L120.324 476.895 L120.324 480.83 L98.3802 480.83 L98.3802 476.895 Q101.042 474.14 105.625 469.51 Q110.232 464.858 111.412 463.515 Q113.658 460.992 114.537 459.256 Q115.44 457.496 115.44 455.807 Q115.44 453.052 113.496 451.316 Q111.575 449.58 108.473 449.58 Q106.274 449.58 103.82 450.344 Q101.389 451.108 98.6116 452.659 L98.6116 447.936 Q101.436 446.802 103.889 446.223 Q106.343 445.645 108.38 445.645 Q113.75 445.645 116.945 448.33 Q120.139 451.015 120.139 455.506 Q120.139 457.635 119.329 459.557 Q118.542 461.455 116.436 464.047 Q115.857 464.719 112.755 467.936 Q109.653 471.131 104.005 476.895 Z" fill="#000000" fill-rule="nonzero" fill-opacity="1" /><path clip-path="url(#clip230)" d="M130.139 474.95 L135.023 474.95 L135.023 480.83 L130.139 480.83 L130.139 474.95 Z" fill="#000000" fill-rule="nonzero" fill-opacity="1" /><path clip-path="url(#clip230)" d="M145.255 446.27 L163.611 446.27 L163.611 450.205 L149.537 450.205 L149.537 458.677 Q150.556 458.33 151.574 458.168 Q152.593 457.983 153.611 457.983 Q159.398 457.983 162.778 461.154 Q166.158 464.325 166.158 469.742 Q166.158 475.32 162.685 478.422 Q159.213 481.501 152.894 481.501 Q150.718 481.501 148.449 481.131 Q146.204 480.76 143.797 480.02 L143.797 475.32 Q145.88 476.455 148.102 477.01 Q150.324 477.566 152.801 477.566 Q156.806 477.566 159.144 475.459 Q161.482 473.353 161.482 469.742 Q161.482 466.131 159.144 464.024 Q156.806 461.918 152.801 461.918 Q150.926 461.918 149.051 462.334 Q147.199 462.751 145.255 463.631 L145.255 446.27 Z" fill="#000000" fill-rule="nonzero" fill-opacity="1" /><path clip-path="url(#clip230)" d="M185.37 449.348 Q181.759 449.348 179.931 452.913 Q178.125 456.455 178.125 463.584 Q178.125 470.691 179.931 474.256 Q181.759 477.797 185.37 477.797 Q189.005 477.797 190.81 474.256 Q192.639 470.691 192.639 463.584 Q192.639 456.455 190.81 452.913 Q189.005 449.348 185.37 449.348 M185.37 445.645 Q191.181 445.645 194.236 450.251 Q197.315 454.834 197.315 463.584 Q197.315 472.311 194.236 476.918 Q191.181 481.501 185.37 481.501 Q179.56 481.501 176.482 476.918 Q173.426 472.311 173.426 463.584 Q173.426 454.834 176.482 450.251 Q179.56 445.645 185.37 445.645 Z" fill="#000000" fill-rule="nonzero" fill-opacity="1" /><path clip-path="url(#clip230)" d="M233.704 455.367 L223.125 465.992 L233.704 476.57 L230.949 479.371 L220.324 468.746 L209.699 479.371 L206.968 476.57 L217.523 465.992 L206.968 455.367 L209.699 452.566 L220.324 463.191 L230.949 452.566 L233.704 455.367 Z" fill="#000000" fill-rule="nonzero" fill-opacity="1" /><path clip-path="url(#clip230)" d="M246.065 476.895 L253.703 476.895 L253.703 450.529 L245.393 452.196 L245.393 447.936 L253.657 446.27 L258.333 446.27 L258.333 476.895 L265.972 476.895 L265.972 480.83 L246.065 480.83 L246.065 476.895 Z" fill="#000000" fill-rule="nonzero" fill-opacity="1" /><path clip-path="url(#clip230)" d="M285.416 449.348 Q281.805 449.348 279.976 452.913 Q278.171 456.455 278.171 463.584 Q278.171 470.691 279.976 474.256 Q281.805 477.797 285.416 477.797 Q289.05 477.797 290.856 474.256 Q292.685 470.691 292.685 463.584 Q292.685 456.455 290.856 452.913 Q289.05 449.348 285.416 449.348 M285.416 445.645 Q291.226 445.645 294.282 450.251 Q297.361 454.834 297.361 463.584 Q297.361 472.311 294.282 476.918 Q291.226 481.501 285.416 481.501 Q279.606 481.501 276.527 476.918 Q273.472 472.311 273.472 463.584 Q273.472 454.834 276.527 450.251 Q279.606 445.645 285.416 445.645 Z" fill="#000000" fill-rule="nonzero" fill-opacity="1" /><path clip-path="url(#clip230)" d="M299.166 452.836 L299.166 449.376 Q300.596 450.053 302.063 450.41 Q303.53 450.767 304.94 450.767 Q308.702 450.767 310.676 448.247 Q312.67 445.708 312.952 440.555 Q311.861 442.172 310.187 443.037 Q308.514 443.903 306.482 443.903 Q302.269 443.903 299.806 441.364 Q297.361 438.806 297.361 434.386 Q297.361 430.06 299.918 427.446 Q302.476 424.831 306.727 424.831 Q311.598 424.831 314.156 428.574 Q316.733 432.298 316.733 439.408 Q316.733 446.047 313.573 450.015 Q310.432 453.965 305.109 453.965 Q303.68 453.965 302.213 453.683 Q300.746 453.4 299.166 452.836 M306.727 440.931 Q309.285 440.931 310.771 439.182 Q312.275 437.433 312.275 434.386 Q312.275 431.358 310.771 429.609 Q309.285 427.841 306.727 427.841 Q304.169 427.841 302.664 429.609 Q301.179 431.358 301.179 434.386 Q301.179 437.433 302.664 439.182 Q304.169 440.931 306.727 440.931 Z" fill="#000000" fill-rule="nonzero" fill-opacity="1" /><path clip-path="url(#clip230)" d="M114.144 228.731 Q117.5 229.449 119.375 231.718 Q121.274 233.986 121.274 237.319 Q121.274 242.435 117.755 245.236 Q114.237 248.037 107.755 248.037 Q105.579 248.037 103.264 247.597 Q100.973 247.18 98.519 246.324 L98.519 241.81 Q100.463 242.944 102.778 243.523 Q105.093 244.102 107.616 244.102 Q112.014 244.102 114.306 242.366 Q116.621 240.63 116.621 237.319 Q116.621 234.264 114.468 232.551 Q112.338 230.815 108.519 230.815 L104.491 230.815 L104.491 226.972 L108.704 226.972 Q112.153 226.972 113.982 225.607 Q115.811 224.218 115.811 221.625 Q115.811 218.963 113.912 217.551 Q112.037 216.116 108.519 216.116 Q106.598 216.116 104.399 216.532 Q102.2 216.949 99.5607 217.829 L99.5607 213.662 Q102.223 212.921 104.538 212.551 Q106.875 212.181 108.936 212.181 Q114.26 212.181 117.362 214.611 Q120.463 217.019 120.463 221.139 Q120.463 224.009 118.82 226 Q117.176 227.968 114.144 228.731 Z" fill="#000000" fill-rule="nonzero" fill-opacity="1" /><path clip-path="url(#clip230)" d="M130.139 241.486 L135.023 241.486 L135.023 247.366 L130.139 247.366 L130.139 241.486 Z" fill="#000000" fill-rule="nonzero" fill-opacity="1" /><path clip-path="url(#clip230)" d="M155.209 215.884 Q151.597 215.884 149.769 219.449 Q147.963 222.991 147.963 230.12 Q147.963 237.227 149.769 240.792 Q151.597 244.333 155.209 244.333 Q158.843 244.333 160.648 240.792 Q162.477 237.227 162.477 230.12 Q162.477 222.991 160.648 219.449 Q158.843 215.884 155.209 215.884 M155.209 212.181 Q161.019 212.181 164.074 216.787 Q167.153 221.37 167.153 230.12 Q167.153 238.847 164.074 243.454 Q161.019 248.037 155.209 248.037 Q149.398 248.037 146.32 243.454 Q143.264 238.847 143.264 230.12 Q143.264 221.37 146.32 216.787 Q149.398 212.181 155.209 212.181 Z" fill="#000000" fill-rule="nonzero" fill-opacity="1" /><path clip-path="url(#clip230)" d="M185.37 215.884 Q181.759 215.884 179.931 219.449 Q178.125 222.991 178.125 230.12 Q178.125 237.227 179.931 240.792 Q181.759 244.333 185.37 244.333 Q189.005 244.333 190.81 240.792 Q192.639 237.227 192.639 230.12 Q192.639 222.991 190.81 219.449 Q189.005 215.884 185.37 215.884 M185.37 212.181 Q191.181 212.181 194.236 216.787 Q197.315 221.37 197.315 230.12 Q197.315 238.847 194.236 243.454 Q191.181 248.037 185.37 248.037 Q179.56 248.037 176.482 243.454 Q173.426 238.847 173.426 230.12 Q173.426 221.37 176.482 216.787 Q179.56 212.181 185.37 212.181 Z" fill="#000000" fill-rule="nonzero" fill-opacity="1" /><path clip-path="url(#clip230)" d="M233.704 221.903 L223.125 232.528 L233.704 243.106 L230.949 245.907 L220.324 235.282 L209.699 245.907 L206.968 243.106 L217.523 232.528 L206.968 221.903 L209.699 219.102 L220.324 229.727 L230.949 219.102 L233.704 221.903 Z" fill="#000000" fill-rule="nonzero" fill-opacity="1" /><path clip-path="url(#clip230)" d="M246.065 243.43 L253.703 243.43 L253.703 217.065 L245.393 218.732 L245.393 214.472 L253.657 212.806 L258.333 212.806 L258.333 243.43 L265.972 243.43 L265.972 247.366 L246.065 247.366 L246.065 243.43 Z" fill="#000000" fill-rule="nonzero" fill-opacity="1" /><path clip-path="url(#clip230)" d="M285.416 215.884 Q281.805 215.884 279.976 219.449 Q278.171 222.991 278.171 230.12 Q278.171 237.227 279.976 240.792 Q281.805 244.333 285.416 244.333 Q289.05 244.333 290.856 240.792 Q292.685 237.227 292.685 230.12 Q292.685 222.991 290.856 219.449 Q289.05 215.884 285.416 215.884 M285.416 212.181 Q291.226 212.181 294.282 216.787 Q297.361 221.37 297.361 230.12 Q297.361 238.847 294.282 243.454 Q291.226 248.037 285.416 248.037 Q279.606 248.037 276.527 243.454 Q273.472 238.847 273.472 230.12 Q273.472 221.37 276.527 216.787 Q279.606 212.181 285.416 212.181 Z" fill="#000000" fill-rule="nonzero" fill-opacity="1" /><path clip-path="url(#clip230)" d="M299.166 219.372 L299.166 215.912 Q300.596 216.589 302.063 216.946 Q303.53 217.303 304.94 217.303 Q308.702 217.303 310.676 214.783 Q312.67 212.244 312.952 207.091 Q311.861 208.708 310.187 209.573 Q308.514 210.439 306.482 210.439 Q302.269 210.439 299.806 207.899 Q297.361 205.342 297.361 200.922 Q297.361 196.596 299.918 193.982 Q302.476 191.367 306.727 191.367 Q311.598 191.367 314.156 195.11 Q316.733 198.834 316.733 205.943 Q316.733 212.583 313.573 216.551 Q310.432 220.501 305.109 220.501 Q303.68 220.501 302.213 220.219 Q300.746 219.936 299.166 219.372 M306.727 207.467 Q309.285 207.467 310.771 205.718 Q312.275 203.969 312.275 200.922 Q312.275 197.894 310.771 196.145 Q309.285 194.377 306.727 194.377 Q304.169 194.377 302.664 196.145 Q301.179 197.894 301.179 200.922 Q301.179 203.969 302.664 205.718 Q304.169 207.467 306.727 207.467 Z" fill="#000000" fill-rule="nonzero" fill-opacity="1" /><path clip-path="url(#clip230)" d="M-9.64527 840.632 L0.4762 840.632 L0.4762 828.569 L5.02768 828.569 L5.02768 840.632 L24.3794 840.632 Q28.7399 840.632 29.9813 839.454 Q31.2226 838.245 31.2226 834.584 L31.2226 828.569 L36.1242 828.569 L36.1242 834.584 Q36.1242 841.364 33.6097 843.942 Q31.0634 846.52 24.3794 846.52 L5.02768 846.52 L5.02768 850.817 L0.4762 850.817 L0.4762 846.52 L-9.64527 846.52 L-9.64527 840.632 Z" fill="#000000" fill-rule="nonzero" fill-opacity="1" /><path clip-path="url(#clip230)" d="M-11.3958 789.738 L-11.3958 784.327 L42.1716 800.878 L42.1716 806.289 L-11.3958 789.738 Z" fill="#000000" fill-rule="nonzero" fill-opacity="1" /><path clip-path="url(#clip230)" d="M14.6081 727.831 L36.1242 727.831 L36.1242 733.688 L14.799 733.688 Q9.7383 733.688 7.22385 735.661 Q4.7094 737.635 4.7094 741.581 Q4.7094 746.324 7.73311 749.061 Q10.7568 751.798 15.9767 751.798 L36.1242 751.798 L36.1242 757.687 L0.4762 757.687 L0.4762 751.798 L6.01437 751.798 Q2.79968 749.698 1.20826 746.865 Q-0.38317 744 -0.38317 740.276 Q-0.38317 734.133 3.43625 730.982 Q7.22385 727.831 14.6081 727.831 Z" fill="#000000" fill-rule="nonzero" fill-opacity="1" /><path clip-path="url(#clip230)" d="M1.52654 693.425 L7.06471 693.425 Q5.79157 695.907 5.15499 698.581 Q4.51842 701.255 4.51842 704.119 Q4.51842 708.48 5.85522 710.676 Q7.19202 712.84 9.86562 712.84 Q11.9026 712.84 13.0803 711.281 Q14.2261 709.721 15.2765 705.01 L15.7221 703.005 Q17.0589 696.767 19.5097 694.157 Q21.9286 691.515 26.2891 691.515 Q31.2544 691.515 34.1508 695.462 Q37.0472 699.377 37.0472 706.252 Q37.0472 709.116 36.4743 712.235 Q35.9332 715.323 34.8192 718.76 L28.7718 718.76 Q30.4587 715.514 31.318 712.363 Q32.1456 709.212 32.1456 706.124 Q32.1456 701.987 30.7451 699.759 Q29.3129 697.531 26.7347 697.531 Q24.3476 697.531 23.0745 699.154 Q21.8013 700.745 20.6237 706.188 L20.1462 708.225 Q19.0004 713.668 16.6451 716.087 Q14.258 718.506 10.1202 718.506 Q5.09134 718.506 2.35408 714.941 Q-0.38317 711.376 -0.38317 704.819 Q-0.38317 701.573 0.0942579 698.708 Q0.571686 695.844 1.52654 693.425 Z" fill="#000000" fill-rule="nonzero" fill-opacity="1" /><path clip-path="url(#clip231)" d="M1002.73 1454.11 L1008.09 1454.05 L1012.8 1453.98 L1016.87 1453.92 L1020.3 1453.86 L1023.09 1453.79 L1025.24 1453.73 L1026.79 1453.67 L1027.74 1453.6 L1028.13 1453.54 L1027.98 1453.48 L1027.31 1453.41 L1026.15 1453.35 L1024.54 1453.29 L1022.5 1453.22 L1020.05 1453.16 L1017.23 1453.1 L1014.04 1453.03 L1010.51 1452.97 L1006.66 1452.9 L1002.5 1452.84 L998.039 1452.78 L993.295 1452.71 L988.275 1452.65 L982.988 1452.59 L977.442 1452.52 L971.646 1452.46 L965.611 1452.4 L959.348 1452.33 L952.871 1452.27 L946.195 1452.21 L939.341 1452.14 L932.33 1452.08 L925.188 1452.02 L917.942 1451.95 L910.624 1451.89 L903.27 1451.83 L895.917 1451.76 L888.604 1451.7 L881.373 1451.63 L874.266 1451.57 L867.329 1451.51 L860.605 1451.44 L854.136 1451.38 L847.966 1451.32 L842.134 1451.25 L836.678 1451.19 L831.633 1451.13 L827.03 1451.06 L822.894 1451 L819.247 1450.94 L816.105 1450.87 L813.479 1450.81 L811.374 1450.75 L809.788 1450.68 L808.713 1450.62 L808.137 1450.55 L808.037 1450.49 L808.39 1450.43 L809.163 1450.36 L810.32 1450.3 L811.818 1450.24 L813.613 1450.17 L815.654 1450.11 L817.888 1450.05 L820.262 1449.98 L822.719 1449.92 L825.201 1449.86 L827.654 1449.79 L830.022 1449.73 L832.251 1449.67 L834.291 1449.6 L836.097 1449.54 L837.625 1449.48 L838.839 1449.41 L839.708 1449.35 L840.206 1449.28 L840.314 1449.22 L631.455 1449.22 L631.563 1449.28 L632.061 1449.35 L632.93 1449.41 L634.144 1449.48 L635.672 1449.54 L637.478 1449.6 L639.518 1449.67 L641.747 1449.73 L644.115 1449.79 L646.568 1449.86 L649.05 1449.92 L651.507 1449.98 L653.881 1450.05 L656.115 1450.11 L658.156 1450.17 L659.951 1450.24 L661.449 1450.3 L662.606 1450.36 L663.379 1450.43 L663.732 1450.49 L663.633 1450.55 L663.056 1450.62 L661.981 1450.68 L660.395 1450.75 L658.29 1450.81 L655.664 1450.87 L652.523 1450.94 L648.876 1451 L644.739 1451.06 L640.136 1451.13 L635.091 1451.19 L629.635 1451.25 L623.803 1451.32 L617.633 1451.38 L611.164 1451.44 L604.44 1451.51 L597.503 1451.57 L590.397 1451.63 L583.165 1451.7 L575.852 1451.76 L568.499 1451.83 L561.145 1451.89 L553.827 1451.95 L546.581 1452.02 L539.439 1452.08 L532.428 1452.14 L525.574 1452.21 L518.898 1452.27 L512.421 1452.33 L506.158 1452.4 L500.123 1452.46 L494.327 1452.52 L488.781 1452.59 L483.494 1452.65 L478.474 1452.71 L473.73 1452.78 L469.272 1452.84 L465.111 1452.9 L461.26 1452.97 L457.731 1453.03 L454.544 1453.1 L451.716 1453.16 L449.269 1453.22 L447.227 1453.29 L445.615 1453.35 L444.462 1453.41 L443.793 1453.48 L443.639 1453.54 L444.026 1453.6 L444.98 1453.67 L446.526 1453.73 L448.684 1453.79 L451.47 1453.86 L454.896 1453.92 L458.967 1453.98 L463.683 1454.05 L469.037 1454.11 L1002.73 1454.11  Z" fill="#009af9" fill-rule="evenodd" fill-opacity="1"/>
<polyline clip-path="url(#clip231)" style="stroke:#000000; stroke-linecap:round; stroke-linejoin:round; stroke-width:4; stroke-opacity:1; fill:none" points="1002.73,1454.11 1008.09,1454.05 1012.8,1453.98 1016.87,1453.92 1020.3,1453.86 1023.09,1453.79 1025.24,1453.73 1026.79,1453.67 1027.74,1453.6 1028.13,1453.54 1027.98,1453.48 1027.31,1453.41 1026.15,1453.35 1024.54,1453.29 1022.5,1453.22 1020.05,1453.16 1017.23,1453.1 1014.04,1453.03 1010.51,1452.97 1006.66,1452.9 1002.5,1452.84 998.039,1452.78 993.295,1452.71 988.275,1452.65 982.988,1452.59 977.442,1452.52 971.646,1452.46 965.611,1452.4 959.348,1452.33 952.871,1452.27 946.195,1452.21 939.341,1452.14 932.33,1452.08 925.188,1452.02 917.942,1451.95 910.624,1451.89 903.27,1451.83 895.917,1451.76 888.604,1451.7 881.373,1451.63 874.266,1451.57 867.329,1451.51 860.605,1451.44 854.136,1451.38 847.966,1451.32 842.134,1451.25 836.678,1451.19 831.633,1451.13 827.03,1451.06 822.894,1451 819.247,1450.94 816.105,1450.87 813.479,1450.81 811.374,1450.75 809.788,1450.68 808.713,1450.62 808.137,1450.55 808.037,1450.49 808.39,1450.43 809.163,1450.36 810.32,1450.3 811.818,1450.24 813.613,1450.17 815.654,1450.11 817.888,1450.05 820.262,1449.98 822.719,1449.92 825.201,1449.86 827.654,1449.79 830.022,1449.73 832.251,1449.67 834.291,1449.6 836.097,1449.54 837.625,1449.48 838.839,1449.41 839.708,1449.35 840.206,1449.28 840.314,1449.22 631.455,1449.22 631.563,1449.28 632.061,1449.35 632.93,1449.41 634.144,1449.48 635.672,1449.54 637.478,1449.6 639.518,1449.67 641.747,1449.73 644.115,1449.79 646.568,1449.86 649.05,1449.92 651.507,1449.98 653.881,1450.05 656.115,1450.11 658.156,1450.17 659.951,1450.24 661.449,1450.3 662.606,1450.36 663.379,1450.43 663.732,1450.49 663.633,1450.55 663.056,1450.62 661.981,1450.68 660.395,1450.75 658.29,1450.81 655.664,1450.87 652.523,1450.94 648.876,1451 644.739,1451.06 640.136,1451.13 635.091,1451.19 629.635,1451.25 623.803,1451.32 617.633,1451.38 611.164,1451.44 604.44,1451.51 597.503,1451.57 590.397,1451.63 583.165,1451.7 575.852,1451.76 568.499,1451.83 561.145,1451.89 553.827,1451.95 546.581,1452.02 539.439,1452.08 532.428,1452.14 525.574,1452.21 518.898,1452.27 512.421,1452.33 506.158,1452.4 500.123,1452.46 494.327,1452.52 488.781,1452.59 483.494,1452.65 478.474,1452.71 473.73,1452.78 469.272,1452.84 465.111,1452.9 461.26,1452.97 457.731,1453.03 454.544,1453.1 451.716,1453.16 449.269,1453.22 447.227,1453.29 445.615,1453.35 444.462,1453.41 443.793,1453.48 443.639,1453.54 444.026,1453.6 444.98,1453.67 446.526,1453.73 448.684,1453.79 451.47,1453.86 454.896,1453.92 458.967,1453.98 463.683,1454.05 469.037,1454.11 1002.73,1454.11 "/>
<path clip-path="url(#clip231)" d="M1893.91 480.588 L1894 479.01 L1893.5 477.433 L1892.44 475.855 L1890.89 474.278 L1888.89 472.7 L1886.53 471.123 L1883.87 469.545 L1881.02 467.968 L1878.05 466.39 L1875.09 464.813 L1872.21 463.235 L1869.53 461.658 L1867.15 460.08 L1865.15 458.503 L1863.64 456.925 L1862.68 455.348 L1862.37 453.77 L1862.75 452.193 L1863.88 450.615 L1865.79 449.038 L1868.52 447.46 L1872.07 445.883 L1876.43 444.305 L1881.59 442.728 L1887.52 441.15 L1894.16 439.573 L1901.47 437.995 L1909.36 436.418 L1917.76 434.84 L1926.58 433.263 L1935.72 431.685 L1945.08 430.108 L1954.56 428.53 L1964.04 426.953 L1973.42 425.375 L1982.59 423.798 L1991.47 422.22 L1999.95 420.643 L2007.95 419.065 L2015.39 417.488 L2022.21 415.91 L2028.36 414.333 L2033.79 412.755 L2038.48 411.178 L2042.42 409.6 L2045.59 408.023 L2048.01 406.445 L2049.69 404.868 L2050.68 403.29 L2050.99 401.713 L2050.68 400.135 L2049.8 398.558 L2048.41 396.98 L2046.55 395.403 L2044.29 393.825 L2041.69 392.248 L2038.8 390.67 L2035.68 389.093 L2032.38 387.515 L2028.94 385.938 L2025.42 384.36 L2021.84 382.783 L2018.25 381.205 L2014.67 379.628 L2011.13 378.05 L2007.65 376.473 L2004.24 374.895 L2000.92 373.318 L1997.69 371.74 L1994.55 370.163 L1991.52 368.585 L1988.57 367.008 L1985.72 365.43 L1982.93 363.853 L1980.21 362.275 L1977.52 360.698 L1974.85 359.12 L1972.17 357.543 L1969.45 355.965 L1966.67 354.388 L1963.79 352.81 L1960.78 351.233 L1957.61 349.655 L1954.24 348.078 L1950.64 346.5 L1946.79 344.923 L1942.67 343.345 L1938.25 341.768 L1933.53 340.19 L1583.96 340.19 L1579.24 341.768 L1574.82 343.345 L1570.7 344.923 L1566.85 346.5 L1563.25 348.078 L1559.88 349.655 L1556.71 351.233 L1553.7 352.81 L1550.82 354.388 L1548.03 355.965 L1545.32 357.543 L1542.64 359.12 L1539.97 360.698 L1537.28 362.275 L1534.56 363.853 L1531.77 365.43 L1528.91 367.008 L1525.97 368.585 L1522.94 370.163 L1519.8 371.74 L1516.57 373.318 L1513.25 374.895 L1509.84 376.473 L1506.36 378.05 L1502.82 379.628 L1499.24 381.205 L1495.64 382.783 L1492.07 384.36 L1488.54 385.938 L1485.11 387.515 L1481.81 389.093 L1478.69 390.67 L1475.8 392.248 L1473.2 393.825 L1470.94 395.403 L1469.08 396.98 L1467.69 398.558 L1466.81 400.135 L1466.5 401.713 L1466.81 403.29 L1467.79 404.868 L1469.48 406.445 L1471.9 408.023 L1475.07 409.6 L1479 411.178 L1483.7 412.755 L1489.13 414.333 L1495.28 415.91 L1502.1 417.488 L1509.54 419.065 L1517.54 420.643 L1526.02 422.22 L1534.89 423.798 L1544.07 425.375 L1553.45 426.953 L1562.93 428.53 L1572.41 430.108 L1581.77 431.685 L1590.91 433.263 L1599.73 434.84 L1608.13 436.418 L1616.02 437.995 L1623.33 439.573 L1629.97 441.15 L1635.9 442.728 L1641.06 444.305 L1645.42 445.883 L1648.97 447.46 L1651.7 449.038 L1653.61 450.615 L1654.74 452.193 L1655.12 453.77 L1654.81 455.348 L1653.85 456.925 L1652.34 458.503 L1650.34 460.08 L1647.96 461.658 L1645.28 463.235 L1642.4 464.813 L1639.43 466.39 L1636.47 467.968 L1633.62 469.545 L1630.96 471.123 L1628.6 472.7 L1626.6 474.278 L1625.05 475.855 L1623.99 477.433 L1623.49 479.01 L1623.58 480.588 L1893.91 480.588  Z" fill="#e26f46" fill-rule="evenodd" fill-opacity="1"/>
<polyline clip-path="url(#clip231)" style="stroke:#000000; stroke-linecap:round; stroke-linejoin:round; stroke-width:4; stroke-opacity:1; fill:none" points="1893.91,480.588 1894,479.01 1893.5,477.433 1892.44,475.855 1890.89,474.278 1888.89,472.7 1886.53,471.123 1883.87,469.545 1881.02,467.968 1878.05,466.39 1875.09,464.813 1872.21,463.235 1869.53,461.658 1867.15,460.08 1865.15,458.503 1863.64,456.925 1862.68,455.348 1862.37,453.77 1862.75,452.193 1863.88,450.615 1865.79,449.038 1868.52,447.46 1872.07,445.883 1876.43,444.305 1881.59,442.728 1887.52,441.15 1894.16,439.573 1901.47,437.995 1909.36,436.418 1917.76,434.84 1926.58,433.263 1935.72,431.685 1945.08,430.108 1954.56,428.53 1964.04,426.953 1973.42,425.375 1982.59,423.798 1991.47,422.22 1999.95,420.643 2007.95,419.065 2015.39,417.488 2022.21,415.91 2028.36,414.333 2033.79,412.755 2038.48,411.178 2042.42,409.6 2045.59,408.023 2048.01,406.445 2049.69,404.868 2050.68,403.29 2050.99,401.713 2050.68,400.135 2049.8,398.558 2048.41,396.98 2046.55,395.403 2044.29,393.825 2041.69,392.248 2038.8,390.67 2035.68,389.093 2032.38,387.515 2028.94,385.938 2025.42,384.36 2021.84,382.783 2018.25,381.205 2014.67,379.628 2011.13,378.05 2007.65,376.473 2004.24,374.895 2000.92,373.318 1997.69,371.74 1994.55,370.163 1991.52,368.585 1988.57,367.008 1985.72,365.43 1982.93,363.853 1980.21,362.275 1977.52,360.698 1974.85,359.12 1972.17,357.543 1969.45,355.965 1966.67,354.388 1963.79,352.81 1960.78,351.233 1957.61,349.655 1954.24,348.078 1950.64,346.5 1946.79,344.923 1942.67,343.345 1938.25,341.768 1933.53,340.19 1583.96,340.19 1579.24,341.768 1574.82,343.345 1570.7,344.923 1566.85,346.5 1563.25,348.078 1559.88,349.655 1556.71,351.233 1553.7,352.81 1550.82,354.388 1548.03,355.965 1545.32,357.543 1542.64,359.12 1539.97,360.698 1537.28,362.275 1534.56,363.853 1531.77,365.43 1528.91,367.008 1525.97,368.585 1522.94,370.163 1519.8,371.74 1516.57,373.318 1513.25,374.895 1509.84,376.473 1506.36,378.05 1502.82,379.628 1499.24,381.205 1495.64,382.783 1492.07,384.36 1488.54,385.938 1485.11,387.515 1481.81,389.093 1478.69,390.67 1475.8,392.248 1473.2,393.825 1470.94,395.403 1469.08,396.98 1467.69,398.558 1466.81,400.135 1466.5,401.713 1466.81,403.29 1467.79,404.868 1469.48,406.445 1471.9,408.023 1475.07,409.6 1479,411.178 1483.7,412.755 1489.13,414.333 1495.28,415.91 1502.1,417.488 1509.54,419.065 1517.54,420.643 1526.02,422.22 1534.89,423.798 1544.07,425.375 1553.45,426.953 1562.93,428.53 1572.41,430.108 1581.77,431.685 1590.91,433.263 1599.73,434.84 1608.13,436.418 1616.02,437.995 1623.33,439.573 1629.97,441.15 1635.9,442.728 1641.06,444.305 1645.42,445.883 1648.97,447.46 1651.7,449.038 1653.61,450.615 1654.74,452.193 1655.12,453.77 1654.81,455.348 1653.85,456.925 1652.34,458.503 1650.34,460.08 1647.96,461.658 1645.28,463.235 1642.4,464.813 1639.43,466.39 1636.47,467.968 1633.62,469.545 1630.96,471.123 1628.6,472.7 1626.6,474.278 1625.05,475.855 1623.99,477.433 1623.49,479.01 1623.58,480.588 1893.91,480.588 "/>
<path clip-path="url(#clip231)" d="M3055.13 175.638 L3059.78 174.656 L3063.63 173.674 L3066.72 172.692 L3069.11 171.709 L3070.88 170.727 L3072.11 169.745 L3072.88 168.763 L3073.29 167.781 L3073.43 166.798 L3073.39 165.816 L3073.25 164.834 L3073.08 163.852 L3072.93 162.869 L3072.86 161.887 L3072.87 160.905 L3072.98 159.923 L3073.17 158.941 L3073.41 157.958 L3073.65 156.976 L3073.82 155.994 L3073.85 155.012 L3073.65 154.029 L3073.13 153.047 L3072.2 152.065 L3070.76 151.083 L3068.72 150.101 L3066.02 149.118 L3062.58 148.136 L3058.35 147.154 L3053.3 146.172 L3047.41 145.19 L3040.68 144.207 L3033.13 143.225 L3024.8 142.243 L3015.75 141.261 L3006.05 140.278 L2995.78 139.296 L2985.04 138.314 L2973.93 137.332 L2962.56 136.35 L2951.04 135.367 L2939.49 134.385 L2928.02 133.403 L2916.72 132.421 L2905.7 131.438 L2895.05 130.456 L2884.84 129.474 L2875.15 128.492 L2866.03 127.51 L2857.53 126.527 L2849.69 125.545 L2842.53 124.563 L2836.08 123.581 L2830.35 122.598 L2825.33 121.616 L2821.03 120.634 L2817.43 119.652 L2814.53 118.67 L2812.32 117.687 L2810.76 116.705 L2809.86 115.723 L2809.58 114.741 L2809.9 113.758 L2810.81 112.776 L2812.27 111.794 L2814.28 110.812 L2816.79 109.83 L2819.78 108.847 L2823.23 107.865 L2827.08 106.883 L2831.32 105.901 L2835.88 104.919 L2840.73 103.936 L2845.82 102.954 L2851.08 101.972 L2856.45 100.99 L2861.87 100.007 L2867.28 99.0252 L2872.6 98.043 L2877.75 97.0608 L2882.67 96.0786 L2887.28 95.0963 L2891.52 94.1141 L2895.31 93.1319 L2898.61 92.1497 L2901.36 91.1675 L2903.51 90.1852 L2905.03 89.203 L2905.89 88.2208 L2657.32 88.2208 L2658.18 89.203 L2659.7 90.1852 L2661.85 91.1675 L2664.6 92.1497 L2667.89 93.1319 L2671.69 94.1141 L2675.93 95.0963 L2680.54 96.0786 L2685.46 97.0608 L2690.61 98.043 L2695.93 99.0252 L2701.33 100.007 L2706.76 100.99 L2712.13 101.972 L2717.39 102.954 L2722.48 103.936 L2727.33 104.919 L2731.89 105.901 L2736.12 106.883 L2739.98 107.865 L2743.42 108.847 L2746.42 109.83 L2748.93 110.812 L2750.93 111.794 L2752.4 112.776 L2753.31 113.758 L2753.63 114.741 L2753.35 115.723 L2752.44 116.705 L2750.89 117.687 L2748.67 118.67 L2745.78 119.652 L2742.18 120.634 L2737.88 121.616 L2732.86 122.598 L2727.13 123.581 L2720.68 124.563 L2713.52 125.545 L2705.68 126.527 L2697.18 127.51 L2688.06 128.492 L2678.37 129.474 L2668.16 130.456 L2657.51 131.438 L2646.49 132.421 L2635.19 133.403 L2623.71 134.385 L2612.17 135.367 L2600.65 136.35 L2589.28 137.332 L2578.17 138.314 L2567.43 139.296 L2557.16 140.278 L2547.45 141.261 L2538.4 142.243 L2530.08 143.225 L2522.53 144.207 L2515.8 145.19 L2509.91 146.172 L2504.86 147.154 L2500.63 148.136 L2497.19 149.118 L2494.49 150.101 L2492.45 151.083 L2491.01 152.065 L2490.08 153.047 L2489.56 154.029 L2489.36 155.012 L2489.39 155.994 L2489.56 156.976 L2489.8 157.958 L2490.03 158.941 L2490.23 159.923 L2490.34 160.905 L2490.35 161.887 L2490.28 162.869 L2490.13 163.852 L2489.96 164.834 L2489.82 165.816 L2489.78 166.798 L2489.92 167.781 L2490.33 168.763 L2491.1 169.745 L2492.33 170.727 L2494.09 171.709 L2496.49 172.692 L2499.58 173.674 L2503.43 174.656 L2508.08 175.638 L3055.13 175.638  Z" fill="#3da44d" fill-rule="evenodd" fill-opacity="1"/>
<polyline clip-path="url(#clip231)" style="stroke:#000000; stroke-linecap:round; stroke-linejoin:round; stroke-width:4; stroke-opacity:1; fill:none" points="3055.13,175.638 3059.78,174.656 3063.63,173.674 3066.72,172.692 3069.11,171.709 3070.88,170.727 3072.11,169.745 3072.88,168.763 3073.29,167.781 3073.43,166.798 3073.39,165.816 3073.25,164.834 3073.08,163.852 3072.93,162.869 3072.86,161.887 3072.87,160.905 3072.98,159.923 3073.17,158.941 3073.41,157.958 3073.65,156.976 3073.82,155.994 3073.85,155.012 3073.65,154.029 3073.13,153.047 3072.2,152.065 3070.76,151.083 3068.72,150.101 3066.02,149.118 3062.58,148.136 3058.35,147.154 3053.3,146.172 3047.41,145.19 3040.68,144.207 3033.13,143.225 3024.8,142.243 3015.75,141.261 3006.05,140.278 2995.78,139.296 2985.04,138.314 2973.93,137.332 2962.56,136.35 2951.04,135.367 2939.49,134.385 2928.02,133.403 2916.72,132.421 2905.7,131.438 2895.05,130.456 2884.84,129.474 2875.15,128.492 2866.03,127.51 2857.53,126.527 2849.69,125.545 2842.53,124.563 2836.08,123.581 2830.35,122.598 2825.33,121.616 2821.03,120.634 2817.43,119.652 2814.53,118.67 2812.32,117.687 2810.76,116.705 2809.86,115.723 2809.58,114.741 2809.9,113.758 2810.81,112.776 2812.27,111.794 2814.28,110.812 2816.79,109.83 2819.78,108.847 2823.23,107.865 2827.08,106.883 2831.32,105.901 2835.88,104.919 2840.73,103.936 2845.82,102.954 2851.08,101.972 2856.45,100.99 2861.87,100.007 2867.28,99.0252 2872.6,98.043 2877.75,97.0608 2882.67,96.0786 2887.28,95.0963 2891.52,94.1141 2895.31,93.1319 2898.61,92.1497 2901.36,91.1675 2903.51,90.1852 2905.03,89.203 2905.89,88.2208 2657.32,88.2208 2658.18,89.203 2659.7,90.1852 2661.85,91.1675 2664.6,92.1497 2667.89,93.1319 2671.69,94.1141 2675.93,95.0963 2680.54,96.0786 2685.46,97.0608 2690.61,98.043 2695.93,99.0252 2701.33,100.007 2706.76,100.99 2712.13,101.972 2717.39,102.954 2722.48,103.936 2727.33,104.919 2731.89,105.901 2736.12,106.883 2739.98,107.865 2743.42,108.847 2746.42,109.83 2748.93,110.812 2750.93,111.794 2752.4,112.776 2753.31,113.758 2753.63,114.741 2753.35,115.723 2752.44,116.705 2750.89,117.687 2748.67,118.67 2745.78,119.652 2742.18,120.634 2737.88,121.616 2732.86,122.598 2727.13,123.581 2720.68,124.563 2713.52,125.545 2705.68,126.527 2697.18,127.51 2688.06,128.492 2678.37,129.474 2668.16,130.456 2657.51,131.438 2646.49,132.421 2635.19,133.403 2623.71,134.385 2612.17,135.367 2600.65,136.35 2589.28,137.332 2578.17,138.314 2567.43,139.296 2557.16,140.278 2547.45,141.261 2538.4,142.243 2530.08,143.225 2522.53,144.207 2515.8,145.19 2509.91,146.172 2504.86,147.154 2500.63,148.136 2497.19,149.118 2494.49,150.101 2492.45,151.083 2491.01,152.065 2490.08,153.047 2489.56,154.029 2489.36,155.012 2489.39,155.994 2489.56,156.976 2489.8,157.958 2490.03,158.941 2490.23,159.923 2490.34,160.905 2490.35,161.887 2490.28,162.869 2490.13,163.852 2489.96,164.834 2489.82,165.816 2489.78,166.798 2489.92,167.781 2490.33,168.763 2491.1,169.745 2492.33,170.727 2494.09,171.709 2496.49,172.692 2499.58,173.674 2503.43,174.656 2508.08,175.638 3055.13,175.638 "/>
</svg>
