<?xml version="1.0" encoding="utf-8"?>
<svg xmlns="http://www.w3.org/2000/svg" xmlns:xlink="http://www.w3.org/1999/xlink" width="600" height="600" viewBox="0 0 2400 2400">
<defs>
  <clipPath id="clip180">
    <rect x="0" y="0" width="2400" height="2400"/>
  </clipPath>
</defs>
<path clip-path="url(#clip180)" d="M0 2400 L2400 2400 L2400 0 L0 0  Z" fill="#ffffff" fill-rule="evenodd" fill-opacity="1"/>
<defs>
  <clipPath id="clip181">
    <rect x="243" y="1203" width="2110" height="971"/>
  </clipPath>
</defs>
<path clip-path="url(#clip180)" d="M243.95 1017.65 L2352.76 1017.65 L2352.76 47.2441 L243.95 47.2441  Z" fill="#ffffff" fill-rule="evenodd" fill-opacity="1"/>
<defs>
  <clipPath id="clip182">
    <rect x="243" y="47" width="2110" height="971"/>
  </clipPath>
</defs>
<polyline clip-path="url(#clip182)" style="stroke:#000000; stroke-linecap:round; stroke-linejoin:round; stroke-width:2; stroke-opacity:0.1; fill:none" points="303.634,1017.65 303.634,47.2441 "/>
<polyline clip-path="url(#clip182)" style="stroke:#000000; stroke-linecap:round; stroke-linejoin:round; stroke-width:2; stroke-opacity:0.1; fill:none" points="966.78,1017.65 966.78,47.2441 "/>
<polyline clip-path="url(#clip182)" style="stroke:#000000; stroke-linecap:round; stroke-linejoin:round; stroke-width:2; stroke-opacity:0.1; fill:none" points="1629.93,1017.65 1629.93,47.2441 "/>
<polyline clip-path="url(#clip182)" style="stroke:#000000; stroke-linecap:round; stroke-linejoin:round; stroke-width:2; stroke-opacity:0.1; fill:none" points="2293.07,1017.65 2293.07,47.2441 "/>
<polyline clip-path="url(#clip182)" style="stroke:#000000; stroke-linecap:round; stroke-linejoin:round; stroke-width:2; stroke-opacity:0.1; fill:none" points="243.95,932.078 2352.76,932.078 "/>
<polyline clip-path="url(#clip182)" style="stroke:#000000; stroke-linecap:round; stroke-linejoin:round; stroke-width:2; stroke-opacity:0.1; fill:none" points="243.95,778.464 2352.76,778.464 "/>
<polyline clip-path="url(#clip182)" style="stroke:#000000; stroke-linecap:round; stroke-linejoin:round; stroke-width:2; stroke-opacity:0.1; fill:none" points="243.95,624.85 2352.76,624.85 "/>
<polyline clip-path="url(#clip182)" style="stroke:#000000; stroke-linecap:round; stroke-linejoin:round; stroke-width:2; stroke-opacity:0.1; fill:none" points="243.95,471.237 2352.76,471.237 "/>
<polyline clip-path="url(#clip182)" style="stroke:#000000; stroke-linecap:round; stroke-linejoin:round; stroke-width:2; stroke-opacity:0.1; fill:none" points="243.95,317.623 2352.76,317.623 "/>
<polyline clip-path="url(#clip182)" style="stroke:#000000; stroke-linecap:round; stroke-linejoin:round; stroke-width:2; stroke-opacity:0.1; fill:none" points="243.95,164.009 2352.76,164.009 "/>
<polyline clip-path="url(#clip180)" style="stroke:#000000; stroke-linecap:round; stroke-linejoin:round; stroke-width:4; stroke-opacity:1; fill:none" points="243.95,1017.65 2352.76,1017.65 "/>
<polyline clip-path="url(#clip180)" style="stroke:#000000; stroke-linecap:round; stroke-linejoin:round; stroke-width:4; stroke-opacity:1; fill:none" points="303.634,1017.65 303.634,998.756 "/>
<polyline clip-path="url(#clip180)" style="stroke:#000000; stroke-linecap:round; stroke-linejoin:round; stroke-width:4; stroke-opacity:1; fill:none" points="966.78,1017.65 966.78,998.756 "/>
<polyline clip-path="url(#clip180)" style="stroke:#000000; stroke-linecap:round; stroke-linejoin:round; stroke-width:4; stroke-opacity:1; fill:none" points="1629.93,1017.65 1629.93,998.756 "/>
<polyline clip-path="url(#clip180)" style="stroke:#000000; stroke-linecap:round; stroke-linejoin:round; stroke-width:4; stroke-opacity:1; fill:none" points="2293.07,1017.65 2293.07,998.756 "/>
<path clip-path="url(#clip180)" d="M273.101 1063.23 L302.777 1063.23 L302.777 1067.16 L273.101 1067.16 L273.101 1063.23 Z" fill="#000000" fill-rule="nonzero" fill-opacity="1" /><path clip-path="url(#clip180)" d="M327.036 1061.42 Q330.393 1062.14 332.268 1064.41 Q334.166 1066.67 334.166 1070.01 Q334.166 1075.12 330.647 1077.92 Q327.129 1080.73 320.647 1080.73 Q318.471 1080.73 316.157 1080.29 Q313.865 1079.87 311.411 1079.01 L311.411 1074.5 Q313.356 1075.63 315.67 1076.21 Q317.985 1076.79 320.508 1076.79 Q324.907 1076.79 327.198 1075.05 Q329.513 1073.32 329.513 1070.01 Q329.513 1066.95 327.36 1065.24 Q325.231 1063.5 321.411 1063.5 L317.383 1063.5 L317.383 1059.66 L321.596 1059.66 Q325.045 1059.66 326.874 1058.29 Q328.703 1056.91 328.703 1054.31 Q328.703 1051.65 326.805 1050.24 Q324.93 1048.8 321.411 1048.8 Q319.49 1048.8 317.291 1049.22 Q315.092 1049.64 312.453 1050.52 L312.453 1046.35 Q315.115 1045.61 317.43 1045.24 Q319.768 1044.87 321.828 1044.87 Q327.152 1044.87 330.254 1047.3 Q333.356 1049.71 333.356 1053.83 Q333.356 1056.7 331.712 1058.69 Q330.069 1060.66 327.036 1061.42 Z" fill="#000000" fill-rule="nonzero" fill-opacity="1" /><path clip-path="url(#clip180)" d="M936.722 1063.23 L966.398 1063.23 L966.398 1067.16 L936.722 1067.16 L936.722 1063.23 Z" fill="#000000" fill-rule="nonzero" fill-opacity="1" /><path clip-path="url(#clip180)" d="M980.518 1076.12 L996.838 1076.12 L996.838 1080.05 L974.893 1080.05 L974.893 1076.12 Q977.555 1073.36 982.139 1068.73 Q986.745 1064.08 987.926 1062.74 Q990.171 1060.22 991.051 1058.48 Q991.953 1056.72 991.953 1055.03 Q991.953 1052.28 990.009 1050.54 Q988.088 1048.8 984.986 1048.8 Q982.787 1048.8 980.333 1049.57 Q977.903 1050.33 975.125 1051.88 L975.125 1047.16 Q977.949 1046.03 980.403 1045.45 Q982.856 1044.87 984.893 1044.87 Q990.264 1044.87 993.458 1047.55 Q996.652 1050.24 996.652 1054.73 Q996.652 1056.86 995.842 1058.78 Q995.055 1060.68 992.949 1063.27 Q992.37 1063.94 989.268 1067.16 Q986.166 1070.35 980.518 1076.12 Z" fill="#000000" fill-rule="nonzero" fill-opacity="1" /><path clip-path="url(#clip180)" d="M1599.68 1063.23 L1629.36 1063.23 L1629.36 1067.16 L1599.68 1067.16 L1599.68 1063.23 Z" fill="#000000" fill-rule="nonzero" fill-opacity="1" /><path clip-path="url(#clip180)" d="M1640.26 1076.12 L1647.9 1076.12 L1647.9 1049.75 L1639.59 1051.42 L1639.59 1047.16 L1647.85 1045.49 L1652.53 1045.49 L1652.53 1076.12 L1660.17 1076.12 L1660.17 1080.05 L1640.26 1080.05 L1640.26 1076.12 Z" fill="#000000" fill-rule="nonzero" fill-opacity="1" /><path clip-path="url(#clip180)" d="M2293.07 1048.57 Q2289.46 1048.57 2287.63 1052.14 Q2285.83 1055.68 2285.83 1062.81 Q2285.83 1069.92 2287.63 1073.48 Q2289.46 1077.02 2293.07 1077.02 Q2296.71 1077.02 2298.51 1073.48 Q2300.34 1069.92 2300.34 1062.81 Q2300.34 1055.68 2298.51 1052.14 Q2296.71 1048.57 2293.07 1048.57 M2293.07 1044.87 Q2298.88 1044.87 2301.94 1049.48 Q2305.02 1054.06 2305.02 1062.81 Q2305.02 1071.54 2301.94 1076.14 Q2298.88 1080.73 2293.07 1080.73 Q2287.26 1080.73 2284.18 1076.14 Q2281.13 1071.54 2281.13 1062.81 Q2281.13 1054.06 2284.18 1049.48 Q2287.26 1044.87 2293.07 1044.87 Z" fill="#000000" fill-rule="nonzero" fill-opacity="1" /><polyline clip-path="url(#clip180)" style="stroke:#000000; stroke-linecap:round; stroke-linejoin:round; stroke-width:4; stroke-opacity:1; fill:none" points="243.95,1017.65 243.95,47.2441 "/>
<polyline clip-path="url(#clip180)" style="stroke:#000000; stroke-linecap:round; stroke-linejoin:round; stroke-width:4; stroke-opacity:1; fill:none" points="243.95,932.078 262.848,932.078 "/>
<polyline clip-path="url(#clip180)" style="stroke:#000000; stroke-linecap:round; stroke-linejoin:round; stroke-width:4; stroke-opacity:1; fill:none" points="243.95,778.464 262.848,778.464 "/>
<polyline clip-path="url(#clip180)" style="stroke:#000000; stroke-linecap:round; stroke-linejoin:round; stroke-width:4; stroke-opacity:1; fill:none" points="243.95,624.85 262.848,624.85 "/>
<polyline clip-path="url(#clip180)" style="stroke:#000000; stroke-linecap:round; stroke-linejoin:round; stroke-width:4; stroke-opacity:1; fill:none" points="243.95,471.237 262.848,471.237 "/>
<polyline clip-path="url(#clip180)" style="stroke:#000000; stroke-linecap:round; stroke-linejoin:round; stroke-width:4; stroke-opacity:1; fill:none" points="243.95,317.623 262.848,317.623 "/>
<polyline clip-path="url(#clip180)" style="stroke:#000000; stroke-linecap:round; stroke-linejoin:round; stroke-width:4; stroke-opacity:1; fill:none" points="243.95,164.009 262.848,164.009 "/>
<path clip-path="url(#clip180)" d="M144.803 945.423 L161.122 945.423 L161.122 949.358 L139.178 949.358 L139.178 945.423 Q141.84 942.668 146.423 938.039 Q151.029 933.386 152.21 932.043 Q154.455 929.52 155.335 927.784 Q156.238 926.025 156.238 924.335 Q156.238 921.58 154.293 919.844 Q152.372 918.108 149.27 918.108 Q147.071 918.108 144.617 918.872 Q142.187 919.636 139.409 921.187 L139.409 916.465 Q142.233 915.33 144.687 914.752 Q147.14 914.173 149.178 914.173 Q154.548 914.173 157.742 916.858 Q160.937 919.543 160.937 924.034 Q160.937 926.164 160.127 928.085 Q159.339 929.983 157.233 932.576 Q156.654 933.247 153.552 936.465 Q150.451 939.659 144.803 945.423 Z" fill="#000000" fill-rule="nonzero" fill-opacity="1" /><path clip-path="url(#clip180)" d="M170.937 943.478 L175.821 943.478 L175.821 949.358 L170.937 949.358 L170.937 943.478 Z" fill="#000000" fill-rule="nonzero" fill-opacity="1" /><path clip-path="url(#clip180)" d="M196.006 917.877 Q192.395 917.877 190.566 921.441 Q188.761 924.983 188.761 932.113 Q188.761 939.219 190.566 942.784 Q192.395 946.326 196.006 946.326 Q199.64 946.326 201.446 942.784 Q203.274 939.219 203.274 932.113 Q203.274 924.983 201.446 921.441 Q199.64 917.877 196.006 917.877 M196.006 914.173 Q201.816 914.173 204.872 918.779 Q207.95 923.363 207.95 932.113 Q207.95 940.84 204.872 945.446 Q201.816 950.029 196.006 950.029 Q190.196 950.029 187.117 945.446 Q184.062 940.84 184.062 932.113 Q184.062 923.363 187.117 918.779 Q190.196 914.173 196.006 914.173 Z" fill="#000000" fill-rule="nonzero" fill-opacity="1" /><path clip-path="url(#clip180)" d="M145.798 791.809 L162.117 791.809 L162.117 795.744 L140.173 795.744 L140.173 791.809 Q142.835 789.054 147.418 784.425 Q152.025 779.772 153.205 778.43 Q155.451 775.906 156.33 774.17 Q157.233 772.411 157.233 770.721 Q157.233 767.967 155.289 766.231 Q153.367 764.494 150.265 764.494 Q148.066 764.494 145.613 765.258 Q143.182 766.022 140.404 767.573 L140.404 762.851 Q143.228 761.717 145.682 761.138 Q148.136 760.559 150.173 760.559 Q155.543 760.559 158.738 763.244 Q161.932 765.93 161.932 770.42 Q161.932 772.55 161.122 774.471 Q160.335 776.369 158.228 778.962 Q157.65 779.633 154.548 782.851 Q151.446 786.045 145.798 791.809 Z" fill="#000000" fill-rule="nonzero" fill-opacity="1" /><path clip-path="url(#clip180)" d="M171.932 789.865 L176.816 789.865 L176.816 795.744 L171.932 795.744 L171.932 789.865 Z" fill="#000000" fill-rule="nonzero" fill-opacity="1" /><path clip-path="url(#clip180)" d="M187.048 761.184 L205.404 761.184 L205.404 765.119 L191.33 765.119 L191.33 773.592 Q192.349 773.244 193.367 773.082 Q194.386 772.897 195.404 772.897 Q201.191 772.897 204.571 776.068 Q207.95 779.24 207.95 784.656 Q207.95 790.235 204.478 793.337 Q201.006 796.416 194.687 796.416 Q192.511 796.416 190.242 796.045 Q187.997 795.675 185.589 794.934 L185.589 790.235 Q187.673 791.369 189.895 791.925 Q192.117 792.48 194.594 792.48 Q198.599 792.48 200.936 790.374 Q203.274 788.267 203.274 784.656 Q203.274 781.045 200.936 778.939 Q198.599 776.832 194.594 776.832 Q192.719 776.832 190.844 777.249 Q188.992 777.666 187.048 778.545 L187.048 761.184 Z" fill="#000000" fill-rule="nonzero" fill-opacity="1" /><path clip-path="url(#clip180)" d="M154.941 623.496 Q158.298 624.214 160.173 626.482 Q162.071 628.751 162.071 632.084 Q162.071 637.2 158.552 640.001 Q155.034 642.802 148.553 642.802 Q146.377 642.802 144.062 642.362 Q141.77 641.945 139.316 641.089 L139.316 636.575 Q141.261 637.709 143.576 638.288 Q145.89 638.867 148.414 638.867 Q152.812 638.867 155.103 637.131 Q157.418 635.394 157.418 632.084 Q157.418 629.029 155.265 627.316 Q153.136 625.58 149.316 625.58 L145.289 625.58 L145.289 621.737 L149.502 621.737 Q152.951 621.737 154.779 620.371 Q156.608 618.982 156.608 616.39 Q156.608 613.728 154.71 612.316 Q152.835 610.881 149.316 610.881 Q147.395 610.881 145.196 611.297 Q142.997 611.714 140.358 612.594 L140.358 608.427 Q143.02 607.686 145.335 607.316 Q147.673 606.945 149.733 606.945 Q155.057 606.945 158.159 609.376 Q161.261 611.783 161.261 615.904 Q161.261 618.774 159.617 620.765 Q157.974 622.732 154.941 623.496 Z" fill="#000000" fill-rule="nonzero" fill-opacity="1" /><path clip-path="url(#clip180)" d="M170.937 636.251 L175.821 636.251 L175.821 642.13 L170.937 642.13 L170.937 636.251 Z" fill="#000000" fill-rule="nonzero" fill-opacity="1" /><path clip-path="url(#clip180)" d="M196.006 610.649 Q192.395 610.649 190.566 614.214 Q188.761 617.756 188.761 624.885 Q188.761 631.992 190.566 635.556 Q192.395 639.098 196.006 639.098 Q199.64 639.098 201.446 635.556 Q203.274 631.992 203.274 624.885 Q203.274 617.756 201.446 614.214 Q199.64 610.649 196.006 610.649 M196.006 606.945 Q201.816 606.945 204.872 611.552 Q207.95 616.135 207.95 624.885 Q207.95 633.612 204.872 638.218 Q201.816 642.802 196.006 642.802 Q190.196 642.802 187.117 638.218 Q184.062 633.612 184.062 624.885 Q184.062 616.135 187.117 611.552 Q190.196 606.945 196.006 606.945 Z" fill="#000000" fill-rule="nonzero" fill-opacity="1" /><path clip-path="url(#clip180)" d="M155.937 469.883 Q159.293 470.6 161.168 472.869 Q163.066 475.137 163.066 478.47 Q163.066 483.586 159.548 486.387 Q156.029 489.188 149.548 489.188 Q147.372 489.188 145.057 488.748 Q142.766 488.332 140.312 487.475 L140.312 482.961 Q142.256 484.095 144.571 484.674 Q146.886 485.253 149.409 485.253 Q153.807 485.253 156.099 483.517 Q158.414 481.781 158.414 478.47 Q158.414 475.415 156.261 473.702 Q154.131 471.966 150.312 471.966 L146.284 471.966 L146.284 468.123 L150.497 468.123 Q153.946 468.123 155.775 466.758 Q157.603 465.369 157.603 462.776 Q157.603 460.114 155.705 458.702 Q153.83 457.267 150.312 457.267 Q148.39 457.267 146.191 457.684 Q143.992 458.1 141.353 458.98 L141.353 454.813 Q144.015 454.072 146.33 453.702 Q148.668 453.332 150.728 453.332 Q156.052 453.332 159.154 455.762 Q162.256 458.17 162.256 462.29 Q162.256 465.16 160.613 467.151 Q158.969 469.119 155.937 469.883 Z" fill="#000000" fill-rule="nonzero" fill-opacity="1" /><path clip-path="url(#clip180)" d="M171.932 482.637 L176.816 482.637 L176.816 488.517 L171.932 488.517 L171.932 482.637 Z" fill="#000000" fill-rule="nonzero" fill-opacity="1" /><path clip-path="url(#clip180)" d="M187.048 453.957 L205.404 453.957 L205.404 457.892 L191.33 457.892 L191.33 466.364 Q192.349 466.017 193.367 465.855 Q194.386 465.67 195.404 465.67 Q201.191 465.67 204.571 468.841 Q207.95 472.012 207.95 477.429 Q207.95 483.007 204.478 486.109 Q201.006 489.188 194.687 489.188 Q192.511 489.188 190.242 488.818 Q187.997 488.447 185.589 487.707 L185.589 483.007 Q187.673 484.142 189.895 484.697 Q192.117 485.253 194.594 485.253 Q198.599 485.253 200.936 483.146 Q203.274 481.04 203.274 477.429 Q203.274 473.818 200.936 471.711 Q198.599 469.605 194.594 469.605 Q192.719 469.605 190.844 470.021 Q188.992 470.438 187.048 471.318 L187.048 453.957 Z" fill="#000000" fill-rule="nonzero" fill-opacity="1" /><path clip-path="url(#clip180)" d="M153.622 304.417 L141.816 322.866 L153.622 322.866 L153.622 304.417 M152.395 300.343 L158.275 300.343 L158.275 322.866 L163.205 322.866 L163.205 326.755 L158.275 326.755 L158.275 334.903 L153.622 334.903 L153.622 326.755 L138.02 326.755 L138.02 322.241 L152.395 300.343 Z" fill="#000000" fill-rule="nonzero" fill-opacity="1" /><path clip-path="url(#clip180)" d="M170.937 329.023 L175.821 329.023 L175.821 334.903 L170.937 334.903 L170.937 329.023 Z" fill="#000000" fill-rule="nonzero" fill-opacity="1" /><path clip-path="url(#clip180)" d="M196.006 303.422 Q192.395 303.422 190.566 306.986 Q188.761 310.528 188.761 317.658 Q188.761 324.764 190.566 328.329 Q192.395 331.871 196.006 331.871 Q199.64 331.871 201.446 328.329 Q203.274 324.764 203.274 317.658 Q203.274 310.528 201.446 306.986 Q199.64 303.422 196.006 303.422 M196.006 299.718 Q201.816 299.718 204.872 304.324 Q207.95 308.908 207.95 317.658 Q207.95 326.384 204.872 330.991 Q201.816 335.574 196.006 335.574 Q190.196 335.574 187.117 330.991 Q184.062 326.384 184.062 317.658 Q184.062 308.908 187.117 304.324 Q190.196 299.718 196.006 299.718 Z" fill="#000000" fill-rule="nonzero" fill-opacity="1" /><path clip-path="url(#clip180)" d="M154.617 150.803 L142.812 169.252 L154.617 169.252 L154.617 150.803 M153.39 146.729 L159.27 146.729 L159.27 169.252 L164.201 169.252 L164.201 173.141 L159.27 173.141 L159.27 181.289 L154.617 181.289 L154.617 173.141 L139.016 173.141 L139.016 168.627 L153.39 146.729 Z" fill="#000000" fill-rule="nonzero" fill-opacity="1" /><path clip-path="url(#clip180)" d="M171.932 175.41 L176.816 175.41 L176.816 181.289 L171.932 181.289 L171.932 175.41 Z" fill="#000000" fill-rule="nonzero" fill-opacity="1" /><path clip-path="url(#clip180)" d="M187.048 146.729 L205.404 146.729 L205.404 150.664 L191.33 150.664 L191.33 159.137 Q192.349 158.789 193.367 158.627 Q194.386 158.442 195.404 158.442 Q201.191 158.442 204.571 161.613 Q207.95 164.785 207.95 170.201 Q207.95 175.78 204.478 178.882 Q201.006 181.96 194.687 181.96 Q192.511 181.96 190.242 181.59 Q187.997 181.22 185.589 180.479 L185.589 175.78 Q187.673 176.914 189.895 177.47 Q192.117 178.025 194.594 178.025 Q198.599 178.025 200.936 175.919 Q203.274 173.812 203.274 170.201 Q203.274 166.59 200.936 164.484 Q198.599 162.377 194.594 162.377 Q192.719 162.377 190.844 162.794 Q188.992 163.211 187.048 164.09 L187.048 146.729 Z" fill="#000000" fill-rule="nonzero" fill-opacity="1" /><path clip-path="url(#clip180)" d="M38.239 692.18 L38.239 686.324 L87.7642 686.324 L87.7642 692.18 L38.239 692.18 Z" fill="#000000" fill-rule="nonzero" fill-opacity="1" /><path clip-path="url(#clip180)" d="M69.5264 650.612 Q63.1607 650.612 59.6596 653.254 Q56.1584 655.864 56.1584 660.607 Q56.1584 665.317 59.6596 667.959 Q63.1607 670.569 69.5264 670.569 Q75.8603 670.569 79.3614 667.959 Q82.8626 665.317 82.8626 660.607 Q82.8626 655.864 79.3614 653.254 Q75.8603 650.612 69.5264 650.612 M83.34 644.756 Q92.443 644.756 96.8671 648.798 Q101.323 652.84 101.323 661.179 Q101.323 664.267 100.846 667.004 Q100.4 669.741 99.4452 672.319 L93.7479 672.319 Q95.1484 669.741 95.8168 667.227 Q96.4852 664.712 96.4852 662.103 Q96.4852 656.342 93.4615 653.477 Q90.4696 650.612 84.3903 650.612 L81.4939 650.612 Q84.645 652.427 86.2046 655.259 Q87.7642 658.092 87.7642 662.039 Q87.7642 668.596 82.7671 672.606 Q77.77 676.616 69.5264 676.616 Q61.251 676.616 56.2539 672.606 Q51.2568 668.596 51.2568 662.039 Q51.2568 658.092 52.8164 655.259 Q54.376 652.427 57.5271 650.612 L52.1162 650.612 L52.1162 644.756 L83.34 644.756 Z" fill="#000000" fill-rule="nonzero" fill-opacity="1" /><path clip-path="url(#clip180)" d="M38.3026 618.625 Q45.6232 622.89 52.7846 624.959 Q59.946 627.027 67.2984 627.027 Q74.6508 627.027 81.8759 624.959 Q89.0691 622.858 96.3579 618.625 L96.3579 623.717 Q88.8782 628.492 81.6531 630.879 Q74.428 633.234 67.2984 633.234 Q60.2006 633.234 53.0074 630.879 Q45.8142 628.523 38.3026 623.717 L38.3026 618.625 Z" fill="#000000" fill-rule="nonzero" fill-opacity="1" /><path clip-path="url(#clip180)" d="M45.5277 600.578 L63.3835 600.578 L63.3835 592.494 Q63.3835 588.006 61.06 585.555 Q58.7365 583.104 54.4397 583.104 Q50.1747 583.104 47.8512 585.555 Q45.5277 588.006 45.5277 592.494 L45.5277 600.578 M40.2442 607.007 L40.2442 592.494 Q40.2442 584.505 43.8726 580.43 Q47.4692 576.325 54.4397 576.325 Q61.4738 576.325 65.0704 580.43 Q68.667 584.505 68.667 592.494 L68.667 600.578 L87.7642 600.578 L87.7642 607.007 L40.2442 607.007 Z" fill="#000000" fill-rule="nonzero" fill-opacity="1" /><path clip-path="url(#clip180)" d="M40.2442 557.546 L40.2442 552.135 L93.8116 568.686 L93.8116 574.097 L40.2442 557.546 Z" fill="#000000" fill-rule="nonzero" fill-opacity="1" /><path clip-path="url(#clip180)" d="M40.2442 545.737 L40.2442 536.157 L72.5819 524.03 L40.2442 511.84 L40.2442 502.26 L87.7642 502.26 L87.7642 508.53 L46.037 508.53 L78.6294 520.784 L78.6294 527.245 L46.037 539.499 L87.7642 539.499 L87.7642 545.737 L40.2442 545.737 Z" fill="#000000" fill-rule="nonzero" fill-opacity="1" /><path clip-path="url(#clip180)" d="M82.417 484.086 L101.323 484.086 L101.323 489.974 L52.1162 489.974 L52.1162 484.086 L57.5271 484.086 Q54.3442 482.239 52.8164 479.439 Q51.2568 476.606 51.2568 472.691 Q51.2568 466.198 56.4131 462.156 Q61.5693 458.082 69.972 458.082 Q78.3747 458.082 83.531 462.156 Q88.6872 466.198 88.6872 472.691 Q88.6872 476.606 87.1594 479.439 Q85.5998 482.239 82.417 484.086 M69.972 464.161 Q63.5108 464.161 59.8505 466.834 Q56.1584 469.476 56.1584 474.123 Q56.1584 478.77 59.8505 481.444 Q63.5108 484.086 69.972 484.086 Q76.4332 484.086 80.1253 481.444 Q83.7856 478.77 83.7856 474.123 Q83.7856 469.476 80.1253 466.834 Q76.4332 464.161 69.972 464.161 Z" fill="#000000" fill-rule="nonzero" fill-opacity="1" /><path clip-path="url(#clip180)" d="M53.4848 422.72 L58.9593 422.72 Q57.5907 425.203 56.9223 427.717 Q56.2221 430.2 56.2221 432.746 Q56.2221 438.443 59.8505 441.594 Q63.4472 444.745 69.972 444.745 Q76.4969 444.745 80.1253 441.594 Q83.7219 438.443 83.7219 432.746 Q83.7219 430.2 83.0535 427.717 Q82.3533 425.203 80.9847 422.72 L86.3955 422.72 Q87.5414 425.171 88.1143 427.813 Q88.6872 430.423 88.6872 433.383 Q88.6872 441.435 83.6264 446.178 Q78.5657 450.92 69.972 450.92 Q61.251 450.92 56.2539 446.146 Q51.2568 441.34 51.2568 433.001 Q51.2568 430.295 51.8297 427.717 Q52.3708 425.139 53.4848 422.72 Z" fill="#000000" fill-rule="nonzero" fill-opacity="1" /><path clip-path="url(#clip180)" d="M52.1162 402 Q52.6891 399.072 54.4397 397.48 Q56.1584 395.857 58.7684 395.857 Q62.7151 395.857 64.8476 398.881 Q66.9801 401.904 66.9801 407.538 Q66.9801 409.352 66.6618 411.357 Q66.3117 413.331 65.6752 415.559 L61.8239 415.559 Q62.6833 413.904 63.097 412.026 Q63.5108 410.116 63.5108 407.983 Q63.5108 404.514 62.2695 402.604 Q60.9964 400.695 58.7684 400.695 Q56.4131 400.695 55.2036 402.477 Q53.9941 404.228 53.9941 407.665 L53.9941 410.402 L50.5566 410.402 L50.5566 407.411 Q50.5566 404.419 49.5699 402.891 Q48.5514 401.331 46.6417 401.331 Q44.7956 401.331 43.8408 402.923 Q42.8541 404.514 42.8541 407.538 Q42.8541 408.811 43.1406 410.434 Q43.427 412.058 44.1591 414.636 L40.4988 414.636 Q39.9577 412.312 39.6712 410.275 Q39.3848 408.238 39.3848 406.488 Q39.3848 401.904 41.2627 399.231 Q43.1406 396.525 46.2916 396.525 Q48.4877 396.525 50.0155 397.958 Q51.5433 399.39 52.1162 402 Z" fill="#000000" fill-rule="nonzero" fill-opacity="1" /><path clip-path="url(#clip180)" d="M38.3026 387.327 L38.3026 382.234 Q45.8142 377.46 53.0074 375.105 Q60.2006 372.717 67.2984 372.717 Q74.428 372.717 81.6531 375.105 Q88.8782 377.46 96.3579 382.234 L96.3579 387.327 Q89.0691 383.094 81.8759 381.025 Q74.6508 378.924 67.2984 378.924 Q59.946 378.924 52.7846 381.025 Q45.6232 383.094 38.3026 387.327 Z" fill="#000000" fill-rule="nonzero" fill-opacity="1" /><polyline clip-path="url(#clip182)" style="stroke:#009af9; stroke-linecap:round; stroke-linejoin:round; stroke-width:4; stroke-opacity:1; fill:none" points="303.634,262.712 323.729,254.524 343.824,246.404 363.92,238.356 384.015,230.388 404.11,222.503 424.206,214.709 444.301,207.013 464.396,199.423 484.492,191.946 504.587,184.589 524.682,177.361 544.778,170.27 564.873,163.327 584.968,156.541 605.064,149.922 625.159,143.481 645.254,137.23 665.35,131.18 685.445,125.343 705.54,119.731 725.636,114.361 745.731,109.244 765.826,104.398 785.922,99.8334 806.017,95.5825 826.113,91.651 846.208,88.0631 866.303,84.8379 886.399,81.998 906.494,79.5823 926.589,77.6183 946.685,76.1189 966.78,75.1265 986.875,74.7085 1006.97,74.8412 1027.07,75.6578 1047.16,77.1433 1067.26,79.3481 1087.35,82.3383 1107.45,86.1975 1127.54,90.9266 1147.64,96.5438 1167.73,103.103 1187.83,110.614 1207.92,118.982 1228.02,128.162 1248.11,138.02 1268.21,148.325 1288.31,158.785 1308.4,169.101 1328.5,178.919 1348.59,187.928 1368.69,196.048 1388.78,203.359 1408.88,210.334 1428.97,217.683 1449.07,226.461 1469.16,237.416 1489.26,251.347 1509.35,268.166 1529.45,286.743 1549.54,305.111 1569.64,320.604 1589.74,332.144 1609.83,340.948 1629.93,350.863 1650.02,365.956 1670.12,386.335 1690.21,408.335 1710.31,425.163 1730.4,436.519 1750.5,449.244 1770.59,468.703 1790.69,491.601 1810.78,507.512 1830.88,521.484 1850.98,541.11 1871.07,561.906 1891.17,578.595 1911.26,597.055 1931.36,617.705 1951.45,635.944 1971.55,655.575 1991.64,675.458 2011.74,695.155 2031.83,715.472 2051.93,735.307 2072.02,755.924 2092.12,776.5 2112.21,797.178 2132.31,818.025 2152.41,839.235 2172.5,860.568 2192.6,881.53 2212.69,903.174 2232.79,924.54 2252.88,946.102 2272.98,968.123 2293.07,990.189 "/>
<path clip-path="url(#clip180)" d="M243.95 2174.14 L2352.76 2174.14 L2352.76 1203.73 L243.95 1203.73  Z" fill="#ffffff" fill-rule="evenodd" fill-opacity="1"/>
<polyline clip-path="url(#clip181)" style="stroke:#000000; stroke-linecap:round; stroke-linejoin:round; stroke-width:2; stroke-opacity:0.1; fill:none" points="303.634,2174.14 303.634,1203.73 "/>
<polyline clip-path="url(#clip181)" style="stroke:#000000; stroke-linecap:round; stroke-linejoin:round; stroke-width:2; stroke-opacity:0.1; fill:none" points="966.78,2174.14 966.78,1203.73 "/>
<polyline clip-path="url(#clip181)" style="stroke:#000000; stroke-linecap:round; stroke-linejoin:round; stroke-width:2; stroke-opacity:0.1; fill:none" points="1629.93,2174.14 1629.93,1203.73 "/>
<polyline clip-path="url(#clip181)" style="stroke:#000000; stroke-linecap:round; stroke-linejoin:round; stroke-width:2; stroke-opacity:0.1; fill:none" points="2293.07,2174.14 2293.07,1203.73 "/>
<polyline clip-path="url(#clip181)" style="stroke:#000000; stroke-linecap:round; stroke-linejoin:round; stroke-width:2; stroke-opacity:0.1; fill:none" points="243.95,2124.96 2352.76,2124.96 "/>
<polyline clip-path="url(#clip181)" style="stroke:#000000; stroke-linecap:round; stroke-linejoin:round; stroke-width:2; stroke-opacity:0.1; fill:none" points="243.95,1926.35 2352.76,1926.35 "/>
<polyline clip-path="url(#clip181)" style="stroke:#000000; stroke-linecap:round; stroke-linejoin:round; stroke-width:2; stroke-opacity:0.1; fill:none" points="243.95,1727.73 2352.76,1727.73 "/>
<polyline clip-path="url(#clip181)" style="stroke:#000000; stroke-linecap:round; stroke-linejoin:round; stroke-width:2; stroke-opacity:0.1; fill:none" points="243.95,1529.12 2352.76,1529.12 "/>
<polyline clip-path="url(#clip181)" style="stroke:#000000; stroke-linecap:round; stroke-linejoin:round; stroke-width:2; stroke-opacity:0.1; fill:none" points="243.95,1330.5 2352.76,1330.5 "/>
<polyline clip-path="url(#clip180)" style="stroke:#000000; stroke-linecap:round; stroke-linejoin:round; stroke-width:4; stroke-opacity:1; fill:none" points="243.95,2174.14 2352.76,2174.14 "/>
<polyline clip-path="url(#clip180)" style="stroke:#000000; stroke-linecap:round; stroke-linejoin:round; stroke-width:4; stroke-opacity:1; fill:none" points="303.634,2174.14 303.634,2155.24 "/>
<polyline clip-path="url(#clip180)" style="stroke:#000000; stroke-linecap:round; stroke-linejoin:round; stroke-width:4; stroke-opacity:1; fill:none" points="966.78,2174.14 966.78,2155.24 "/>
<polyline clip-path="url(#clip180)" style="stroke:#000000; stroke-linecap:round; stroke-linejoin:round; stroke-width:4; stroke-opacity:1; fill:none" points="1629.93,2174.14 1629.93,2155.24 "/>
<polyline clip-path="url(#clip180)" style="stroke:#000000; stroke-linecap:round; stroke-linejoin:round; stroke-width:4; stroke-opacity:1; fill:none" points="2293.07,2174.14 2293.07,2155.24 "/>
<path clip-path="url(#clip180)" d="M273.101 2219.71 L302.777 2219.71 L302.777 2223.65 L273.101 2223.65 L273.101 2219.71 Z" fill="#000000" fill-rule="nonzero" fill-opacity="1" /><path clip-path="url(#clip180)" d="M327.036 2217.91 Q330.393 2218.62 332.268 2220.89 Q334.166 2223.16 334.166 2226.49 Q334.166 2231.61 330.647 2234.41 Q327.129 2237.21 320.647 2237.21 Q318.471 2237.21 316.157 2236.77 Q313.865 2236.35 311.411 2235.5 L311.411 2230.98 Q313.356 2232.12 315.67 2232.7 Q317.985 2233.28 320.508 2233.28 Q324.907 2233.28 327.198 2231.54 Q329.513 2229.8 329.513 2226.49 Q329.513 2223.44 327.36 2221.73 Q325.231 2219.99 321.411 2219.99 L317.383 2219.99 L317.383 2216.15 L321.596 2216.15 Q325.045 2216.15 326.874 2214.78 Q328.703 2213.39 328.703 2210.8 Q328.703 2208.14 326.805 2206.73 Q324.93 2205.29 321.411 2205.29 Q319.49 2205.29 317.291 2205.71 Q315.092 2206.12 312.453 2207 L312.453 2202.84 Q315.115 2202.1 317.43 2201.73 Q319.768 2201.35 321.828 2201.35 Q327.152 2201.35 330.254 2203.79 Q333.356 2206.19 333.356 2210.31 Q333.356 2213.18 331.712 2215.17 Q330.069 2217.14 327.036 2217.91 Z" fill="#000000" fill-rule="nonzero" fill-opacity="1" /><path clip-path="url(#clip180)" d="M936.722 2219.71 L966.398 2219.71 L966.398 2223.65 L936.722 2223.65 L936.722 2219.71 Z" fill="#000000" fill-rule="nonzero" fill-opacity="1" /><path clip-path="url(#clip180)" d="M980.518 2232.6 L996.838 2232.6 L996.838 2236.54 L974.893 2236.54 L974.893 2232.6 Q977.555 2229.85 982.139 2225.22 Q986.745 2220.57 987.926 2219.23 Q990.171 2216.7 991.051 2214.97 Q991.953 2213.21 991.953 2211.52 Q991.953 2208.76 990.009 2207.03 Q988.088 2205.29 984.986 2205.29 Q982.787 2205.29 980.333 2206.05 Q977.903 2206.82 975.125 2208.37 L975.125 2203.65 Q977.949 2202.51 980.403 2201.93 Q982.856 2201.35 984.893 2201.35 Q990.264 2201.35 993.458 2204.04 Q996.652 2206.73 996.652 2211.22 Q996.652 2213.35 995.842 2215.27 Q995.055 2217.16 992.949 2219.76 Q992.37 2220.43 989.268 2223.65 Q986.166 2226.84 980.518 2232.6 Z" fill="#000000" fill-rule="nonzero" fill-opacity="1" /><path clip-path="url(#clip180)" d="M1599.68 2219.71 L1629.36 2219.71 L1629.36 2223.65 L1599.68 2223.65 L1599.68 2219.71 Z" fill="#000000" fill-rule="nonzero" fill-opacity="1" /><path clip-path="url(#clip180)" d="M1640.26 2232.6 L1647.9 2232.6 L1647.9 2206.24 L1639.59 2207.91 L1639.59 2203.65 L1647.85 2201.98 L1652.53 2201.98 L1652.53 2232.6 L1660.17 2232.6 L1660.17 2236.54 L1640.26 2236.54 L1640.26 2232.6 Z" fill="#000000" fill-rule="nonzero" fill-opacity="1" /><path clip-path="url(#clip180)" d="M2293.07 2205.06 Q2289.46 2205.06 2287.63 2208.62 Q2285.83 2212.16 2285.83 2219.29 Q2285.83 2226.4 2287.63 2229.97 Q2289.46 2233.51 2293.07 2233.51 Q2296.71 2233.51 2298.51 2229.97 Q2300.34 2226.4 2300.34 2219.29 Q2300.34 2212.16 2298.51 2208.62 Q2296.71 2205.06 2293.07 2205.06 M2293.07 2201.35 Q2298.88 2201.35 2301.94 2205.96 Q2305.02 2210.54 2305.02 2219.29 Q2305.02 2228.02 2301.94 2232.63 Q2298.88 2237.21 2293.07 2237.21 Q2287.26 2237.21 2284.18 2232.63 Q2281.13 2228.02 2281.13 2219.29 Q2281.13 2210.54 2284.18 2205.96 Q2287.26 2201.35 2293.07 2201.35 Z" fill="#000000" fill-rule="nonzero" fill-opacity="1" /><path clip-path="url(#clip180)" d="M1122.2 2269.48 L1128.05 2269.48 L1128.05 2319 L1122.2 2319 L1122.2 2269.48 Z" fill="#000000" fill-rule="nonzero" fill-opacity="1" /><path clip-path="url(#clip180)" d="M1163.77 2300.77 Q1163.77 2294.4 1161.12 2290.9 Q1158.51 2287.4 1153.77 2287.4 Q1149.06 2287.4 1146.42 2290.9 Q1143.81 2294.4 1143.81 2300.77 Q1143.81 2307.1 1146.42 2310.6 Q1149.06 2314.1 1153.77 2314.1 Q1158.51 2314.1 1161.12 2310.6 Q1163.77 2307.1 1163.77 2300.77 M1169.62 2314.58 Q1169.62 2323.68 1165.58 2328.11 Q1161.54 2332.56 1153.2 2332.56 Q1150.11 2332.56 1147.37 2332.09 Q1144.64 2331.64 1142.06 2330.68 L1142.06 2324.99 Q1144.64 2326.39 1147.15 2327.06 Q1149.67 2327.72 1152.28 2327.72 Q1158.04 2327.72 1160.9 2324.7 Q1163.77 2321.71 1163.77 2315.63 L1163.77 2312.73 Q1161.95 2315.88 1159.12 2317.44 Q1156.29 2319 1152.34 2319 Q1145.78 2319 1141.77 2314.01 Q1137.76 2309.01 1137.76 2300.77 Q1137.76 2292.49 1141.77 2287.49 Q1145.78 2282.5 1152.34 2282.5 Q1156.29 2282.5 1159.12 2284.06 Q1161.95 2285.62 1163.77 2288.77 L1163.77 2283.36 L1169.62 2283.36 L1169.62 2314.58 Z" fill="#000000" fill-rule="nonzero" fill-opacity="1" /><path clip-path="url(#clip180)" d="M1195.75 2269.54 Q1191.49 2276.86 1189.42 2284.02 Q1187.35 2291.19 1187.35 2298.54 Q1187.35 2305.89 1189.42 2313.12 Q1191.52 2320.31 1195.75 2327.6 L1190.66 2327.6 Q1185.89 2320.12 1183.5 2312.89 Q1181.14 2305.67 1181.14 2298.54 Q1181.14 2291.44 1183.5 2284.25 Q1185.86 2277.05 1190.66 2269.54 L1195.75 2269.54 Z" fill="#000000" fill-rule="nonzero" fill-opacity="1" /><path clip-path="url(#clip180)" d="M1206.89 2269.48 L1212.78 2269.48 L1212.78 2298.73 L1230.26 2283.36 L1237.74 2283.36 L1218.83 2300.03 L1238.53 2319 L1230.89 2319 L1212.78 2301.59 L1212.78 2319 L1206.89 2319 L1206.89 2269.48 Z" fill="#000000" fill-rule="nonzero" fill-opacity="1" /><path clip-path="url(#clip180)" d="M1255.27 2271.48 L1260.68 2271.48 L1244.13 2325.05 L1238.72 2325.05 L1255.27 2271.48 Z" fill="#000000" fill-rule="nonzero" fill-opacity="1" /><path clip-path="url(#clip180)" d="M1267.08 2271.48 L1276.66 2271.48 L1288.79 2303.82 L1300.98 2271.48 L1310.56 2271.48 L1310.56 2319 L1304.29 2319 L1304.29 2277.28 L1292.04 2309.87 L1285.57 2309.87 L1273.32 2277.28 L1273.32 2319 L1267.08 2319 L1267.08 2271.48 Z" fill="#000000" fill-rule="nonzero" fill-opacity="1" /><path clip-path="url(#clip180)" d="M1328.73 2313.66 L1328.73 2332.56 L1322.85 2332.56 L1322.85 2283.36 L1328.73 2283.36 L1328.73 2288.77 Q1330.58 2285.58 1333.38 2284.06 Q1336.21 2282.5 1340.13 2282.5 Q1346.62 2282.5 1350.66 2287.65 Q1354.74 2292.81 1354.74 2301.21 Q1354.74 2309.61 1350.66 2314.77 Q1346.62 2319.93 1340.13 2319.93 Q1336.21 2319.93 1333.38 2318.4 Q1330.58 2316.84 1328.73 2313.66 M1348.66 2301.21 Q1348.66 2294.75 1345.98 2291.09 Q1343.34 2287.4 1338.7 2287.4 Q1334.05 2287.4 1331.38 2291.09 Q1328.73 2294.75 1328.73 2301.21 Q1328.73 2307.67 1331.38 2311.36 Q1334.05 2315.03 1338.7 2315.03 Q1343.34 2315.03 1345.98 2311.36 Q1348.66 2307.67 1348.66 2301.21 Z" fill="#000000" fill-rule="nonzero" fill-opacity="1" /><path clip-path="url(#clip180)" d="M1390.1 2284.72 L1390.1 2290.2 Q1387.62 2288.83 1385.1 2288.16 Q1382.62 2287.46 1380.07 2287.46 Q1374.38 2287.46 1371.22 2291.09 Q1368.07 2294.69 1368.07 2301.21 Q1368.07 2307.74 1371.22 2311.36 Q1374.38 2314.96 1380.07 2314.96 Q1382.62 2314.96 1385.1 2314.29 Q1387.62 2313.59 1390.1 2312.22 L1390.1 2317.64 Q1387.65 2318.78 1385.01 2319.35 Q1382.4 2319.93 1379.44 2319.93 Q1371.38 2319.93 1366.64 2314.87 Q1361.9 2309.81 1361.9 2301.21 Q1361.9 2292.49 1366.67 2287.49 Q1371.48 2282.5 1379.82 2282.5 Q1382.52 2282.5 1385.1 2283.07 Q1387.68 2283.61 1390.1 2284.72 Z" fill="#000000" fill-rule="nonzero" fill-opacity="1" /><path clip-path="url(#clip180)" d="M1398.5 2284.79 L1424.19 2284.79 L1424.19 2287.81 L1398.5 2287.81 L1398.5 2284.79 Z" fill="#000000" fill-rule="nonzero" fill-opacity="1" /><path clip-path="url(#clip180)" d="M1433.51 2294.24 L1440.01 2294.24 L1440.01 2274.79 L1432.91 2276.1 L1432.91 2272.41 L1440.23 2271.17 L1444.59 2271.17 L1444.59 2294.24 L1451.11 2294.24 L1451.11 2297.74 L1433.51 2297.74 L1433.51 2294.24 Z" fill="#000000" fill-rule="nonzero" fill-opacity="1" /><path clip-path="url(#clip180)" d="M1459.9 2269.54 L1464.99 2269.54 Q1469.77 2277.05 1472.12 2284.25 Q1474.51 2291.44 1474.51 2298.54 Q1474.51 2305.67 1472.12 2312.89 Q1469.77 2320.12 1464.99 2327.6 L1459.9 2327.6 Q1464.13 2320.31 1466.2 2313.12 Q1468.3 2305.89 1468.3 2298.54 Q1468.3 2291.19 1466.2 2284.02 Q1464.13 2276.86 1459.9 2269.54 Z" fill="#000000" fill-rule="nonzero" fill-opacity="1" /><polyline clip-path="url(#clip180)" style="stroke:#000000; stroke-linecap:round; stroke-linejoin:round; stroke-width:4; stroke-opacity:1; fill:none" points="243.95,2174.14 243.95,1203.73 "/>
<polyline clip-path="url(#clip180)" style="stroke:#000000; stroke-linecap:round; stroke-linejoin:round; stroke-width:4; stroke-opacity:1; fill:none" points="243.95,2124.96 262.848,2124.96 "/>
<polyline clip-path="url(#clip180)" style="stroke:#000000; stroke-linecap:round; stroke-linejoin:round; stroke-width:4; stroke-opacity:1; fill:none" points="243.95,1926.35 262.848,1926.35 "/>
<polyline clip-path="url(#clip180)" style="stroke:#000000; stroke-linecap:round; stroke-linejoin:round; stroke-width:4; stroke-opacity:1; fill:none" points="243.95,1727.73 262.848,1727.73 "/>
<polyline clip-path="url(#clip180)" style="stroke:#000000; stroke-linecap:round; stroke-linejoin:round; stroke-width:4; stroke-opacity:1; fill:none" points="243.95,1529.12 262.848,1529.12 "/>
<polyline clip-path="url(#clip180)" style="stroke:#000000; stroke-linecap:round; stroke-linejoin:round; stroke-width:4; stroke-opacity:1; fill:none" points="243.95,1330.5 262.848,1330.5 "/>
<path clip-path="url(#clip180)" d="M146.076 2125.41 L175.751 2125.41 L175.751 2129.35 L146.076 2129.35 L146.076 2125.41 Z" fill="#000000" fill-rule="nonzero" fill-opacity="1" /><path clip-path="url(#clip180)" d="M196.423 2123.1 Q193.274 2123.1 191.423 2125.25 Q189.594 2127.41 189.594 2131.15 Q189.594 2134.88 191.423 2137.06 Q193.274 2139.21 196.423 2139.21 Q199.571 2139.21 201.399 2137.06 Q203.251 2134.88 203.251 2131.15 Q203.251 2127.41 201.399 2125.25 Q199.571 2123.1 196.423 2123.1 M205.705 2108.45 L205.705 2112.71 Q203.946 2111.87 202.14 2111.43 Q200.358 2110.99 198.599 2110.99 Q193.969 2110.99 191.515 2114.12 Q189.085 2117.24 188.737 2123.56 Q190.103 2121.55 192.163 2120.48 Q194.224 2119.4 196.7 2119.4 Q201.909 2119.4 204.918 2122.57 Q207.95 2125.72 207.95 2131.15 Q207.95 2136.48 204.802 2139.7 Q201.654 2142.91 196.423 2142.91 Q190.427 2142.91 187.256 2138.33 Q184.085 2133.72 184.085 2125 Q184.085 2116.8 187.974 2111.94 Q191.862 2107.06 198.413 2107.06 Q200.173 2107.06 201.955 2107.41 Q203.761 2107.75 205.705 2108.45 Z" fill="#000000" fill-rule="nonzero" fill-opacity="1" /><path clip-path="url(#clip180)" d="M145.752 1926.8 L175.427 1926.8 L175.427 1930.73 L145.752 1930.73 L145.752 1926.8 Z" fill="#000000" fill-rule="nonzero" fill-opacity="1" /><path clip-path="url(#clip180)" d="M198.367 1913.14 L186.562 1931.59 L198.367 1931.59 L198.367 1913.14 M197.14 1909.07 L203.02 1909.07 L203.02 1931.59 L207.95 1931.59 L207.95 1935.48 L203.02 1935.48 L203.02 1943.63 L198.367 1943.63 L198.367 1935.48 L182.765 1935.48 L182.765 1930.97 L197.14 1909.07 Z" fill="#000000" fill-rule="nonzero" fill-opacity="1" /><path clip-path="url(#clip180)" d="M147.835 1728.18 L177.511 1728.18 L177.511 1732.12 L147.835 1732.12 L147.835 1728.18 Z" fill="#000000" fill-rule="nonzero" fill-opacity="1" /><path clip-path="url(#clip180)" d="M191.631 1741.08 L207.95 1741.08 L207.95 1745.01 L186.006 1745.01 L186.006 1741.08 Q188.668 1738.32 193.251 1733.69 Q197.858 1729.04 199.038 1727.7 Q201.284 1725.17 202.163 1723.44 Q203.066 1721.68 203.066 1719.99 Q203.066 1717.23 201.122 1715.5 Q199.2 1713.76 196.099 1713.76 Q193.899 1713.76 191.446 1714.53 Q189.015 1715.29 186.237 1716.84 L186.237 1712.12 Q189.062 1710.98 191.515 1710.41 Q193.969 1709.83 196.006 1709.83 Q201.376 1709.83 204.571 1712.51 Q207.765 1715.2 207.765 1719.69 Q207.765 1721.82 206.955 1723.74 Q206.168 1725.64 204.061 1728.23 Q203.483 1728.9 200.381 1732.12 Q197.279 1735.31 191.631 1741.08 Z" fill="#000000" fill-rule="nonzero" fill-opacity="1" /><path clip-path="url(#clip180)" d="M196.006 1514.92 Q192.395 1514.92 190.566 1518.48 Q188.761 1522.02 188.761 1529.15 Q188.761 1536.26 190.566 1539.82 Q192.395 1543.36 196.006 1543.36 Q199.64 1543.36 201.446 1539.82 Q203.274 1536.26 203.274 1529.15 Q203.274 1522.02 201.446 1518.48 Q199.64 1514.92 196.006 1514.92 M196.006 1511.21 Q201.816 1511.21 204.872 1515.82 Q207.95 1520.4 207.95 1529.15 Q207.95 1537.88 204.872 1542.49 Q201.816 1547.07 196.006 1547.07 Q190.196 1547.07 187.117 1542.49 Q184.062 1537.88 184.062 1529.15 Q184.062 1520.4 187.117 1515.82 Q190.196 1511.21 196.006 1511.21 Z" fill="#000000" fill-rule="nonzero" fill-opacity="1" /><path clip-path="url(#clip180)" d="M191.631 1343.85 L207.95 1343.85 L207.95 1347.78 L186.006 1347.78 L186.006 1343.85 Q188.668 1341.09 193.251 1336.46 Q197.858 1331.81 199.038 1330.47 Q201.284 1327.94 202.163 1326.21 Q203.066 1324.45 203.066 1322.76 Q203.066 1320 201.122 1318.27 Q199.2 1316.53 196.099 1316.53 Q193.899 1316.53 191.446 1317.3 Q189.015 1318.06 186.237 1319.61 L186.237 1314.89 Q189.062 1313.75 191.515 1313.18 Q193.969 1312.6 196.006 1312.6 Q201.376 1312.6 204.571 1315.28 Q207.765 1317.97 207.765 1322.46 Q207.765 1324.59 206.955 1326.51 Q206.168 1328.41 204.061 1331 Q203.483 1331.67 200.381 1334.89 Q197.279 1338.08 191.631 1343.85 Z" fill="#000000" fill-rule="nonzero" fill-opacity="1" /><path clip-path="url(#clip180)" d="M96.4186 1915.63 Q96.4186 1920.12 93.7132 1923.05 Q90.4985 1926.52 84.6739 1926.52 Q78.6265 1926.52 73.9159 1923.46 Q69.0779 1920.31 69.0779 1914.65 Q69.0779 1910.92 71.4014 1907.99 Q72.77 1906.28 75.0617 1905.1 Q72.4836 1904.68 69.5553 1904.68 Q65.2585 1904.68 62.7759 1905.7 Q57.2695 1907.96 57.2695 1913.95 Q57.2695 1916.21 58.67 1919.71 L53.3228 1919.71 Q52.3361 1916.02 52.3361 1912.71 Q52.3361 1904.18 60.1659 1900.55 Q63.858 1898.86 69.3644 1898.86 Q72.961 1898.86 77.1305 1899.66 Q87.5703 1901.66 92.5355 1906.85 Q96.4186 1910.92 96.4186 1915.63 M85.6288 1921.08 Q88.8116 1921.08 90.5303 1919.68 Q92.3446 1918.18 92.3446 1915.89 Q92.3446 1913.85 90.9123 1912.23 Q88.9389 1909.94 85.7242 1908.25 Q83.0825 1906.85 80.2497 1906.15 Q73.4066 1908.98 73.4066 1913.88 Q73.4066 1918.08 78.9448 1919.93 Q82.3822 1921.08 85.6288 1921.08 Z" fill="#000000" fill-rule="nonzero" fill-opacity="1" /><path clip-path="url(#clip180)" d="M45.9704 1868.97 L45.9704 1863.12 L95.4956 1863.12 L95.4956 1868.97 L45.9704 1868.97 Z" fill="#000000" fill-rule="nonzero" fill-opacity="1" /><path clip-path="url(#clip180)" d="M77.2578 1827.4 Q70.8921 1827.4 67.391 1830.05 Q63.8899 1832.66 63.8899 1837.4 Q63.8899 1842.11 67.391 1844.75 Q70.8921 1847.36 77.2578 1847.36 Q83.5917 1847.36 87.0929 1844.75 Q90.594 1842.11 90.594 1837.4 Q90.594 1832.66 87.0929 1830.05 Q83.5917 1827.4 77.2578 1827.4 M91.0714 1821.55 Q100.174 1821.55 104.599 1825.59 Q109.055 1829.63 109.055 1837.97 Q109.055 1841.06 108.577 1843.8 Q108.132 1846.53 107.177 1849.11 L101.479 1849.11 Q102.88 1846.53 103.548 1844.02 Q104.217 1841.51 104.217 1838.9 Q104.217 1833.13 101.193 1830.27 Q98.201 1827.4 92.1218 1827.4 L89.2254 1827.4 Q92.3764 1829.22 93.936 1832.05 Q95.4956 1834.88 95.4956 1838.83 Q95.4956 1845.39 90.4985 1849.4 Q85.5014 1853.41 77.2578 1853.41 Q68.9824 1853.41 63.9853 1849.4 Q58.9883 1845.39 58.9883 1838.83 Q58.9883 1834.88 60.5479 1832.05 Q62.1075 1829.22 65.2585 1827.4 L59.8476 1827.4 L59.8476 1821.55 L91.0714 1821.55 Z" fill="#000000" fill-rule="nonzero" fill-opacity="1" /><path clip-path="url(#clip180)" d="M46.0341 1795.42 Q53.3546 1799.68 60.516 1801.75 Q67.6775 1803.82 75.0299 1803.82 Q82.3822 1803.82 89.6073 1801.75 Q96.8006 1799.65 104.089 1795.42 L104.089 1800.51 Q96.6096 1805.28 89.3845 1807.67 Q82.1594 1810.03 75.0299 1810.03 Q67.9321 1810.03 60.7388 1807.67 Q53.5456 1805.32 46.0341 1800.51 L46.0341 1795.42 Z" fill="#000000" fill-rule="nonzero" fill-opacity="1" /><path clip-path="url(#clip180)" d="M53.2591 1777.37 L71.1149 1777.37 L71.1149 1769.29 Q71.1149 1764.8 68.7915 1762.35 Q66.468 1759.9 62.1711 1759.9 Q57.9061 1759.9 55.5826 1762.35 Q53.2591 1764.8 53.2591 1769.29 L53.2591 1777.37 M47.9756 1783.8 L47.9756 1769.29 Q47.9756 1761.3 51.6041 1757.22 Q55.2007 1753.12 62.1711 1753.12 Q69.2052 1753.12 72.8019 1757.22 Q76.3985 1761.3 76.3985 1769.29 L76.3985 1777.37 L95.4956 1777.37 L95.4956 1783.8 L47.9756 1783.8 Z" fill="#000000" fill-rule="nonzero" fill-opacity="1" /><path clip-path="url(#clip180)" d="M46.0341 1745.67 L46.0341 1740.58 Q53.5456 1735.8 60.7388 1733.45 Q67.9321 1731.06 75.0299 1731.06 Q82.1594 1731.06 89.3845 1733.45 Q96.6096 1735.8 104.089 1740.58 L104.089 1745.67 Q96.8006 1741.44 89.6073 1739.37 Q82.3822 1737.27 75.0299 1737.27 Q67.6775 1737.27 60.516 1739.37 Q53.3546 1741.44 46.0341 1745.67 Z" fill="#000000" fill-rule="nonzero" fill-opacity="1" /><path clip-path="url(#clip180)" d="M47.9756 1688.19 L47.9756 1682.78 L101.543 1699.33 L101.543 1704.74 L47.9756 1688.19 Z" fill="#000000" fill-rule="nonzero" fill-opacity="1" /><path clip-path="url(#clip180)" d="M96.4186 1648.15 Q96.4186 1652.63 93.7132 1655.56 Q90.4985 1659.03 84.6739 1659.03 Q78.6265 1659.03 73.9159 1655.98 Q69.0779 1652.83 69.0779 1647.16 Q69.0779 1643.44 71.4014 1640.51 Q72.77 1638.79 75.0617 1637.61 Q72.4836 1637.2 69.5553 1637.2 Q65.2585 1637.2 62.7759 1638.22 Q57.2695 1640.48 57.2695 1646.46 Q57.2695 1648.72 58.67 1652.22 L53.3228 1652.22 Q52.3361 1648.53 52.3361 1645.22 Q52.3361 1636.69 60.1659 1633.06 Q63.858 1631.37 69.3644 1631.37 Q72.961 1631.37 77.1305 1632.17 Q87.5703 1634.17 92.5355 1639.36 Q96.4186 1643.44 96.4186 1648.15 M85.6288 1653.59 Q88.8116 1653.59 90.5303 1652.19 Q92.3446 1650.69 92.3446 1648.4 Q92.3446 1646.36 90.9123 1644.74 Q88.9389 1642.45 85.7242 1640.76 Q83.0825 1639.36 80.2497 1638.66 Q73.4066 1641.49 73.4066 1646.4 Q73.4066 1650.6 78.9448 1652.44 Q82.3822 1653.59 85.6288 1653.59 Z" fill="#000000" fill-rule="nonzero" fill-opacity="1" /><path clip-path="url(#clip180)" d="M45.9704 1601.49 L45.9704 1595.63 L95.4956 1595.63 L95.4956 1601.49 L45.9704 1601.49 Z" fill="#000000" fill-rule="nonzero" fill-opacity="1" /><path clip-path="url(#clip180)" d="M77.2578 1559.92 Q70.8921 1559.92 67.391 1562.56 Q63.8899 1565.17 63.8899 1569.91 Q63.8899 1574.62 67.391 1577.26 Q70.8921 1579.87 77.2578 1579.87 Q83.5917 1579.87 87.0929 1577.26 Q90.594 1574.62 90.594 1569.91 Q90.594 1565.17 87.0929 1562.56 Q83.5917 1559.92 77.2578 1559.92 M91.0714 1554.06 Q100.174 1554.06 104.599 1558.1 Q109.055 1562.15 109.055 1570.49 Q109.055 1573.57 108.577 1576.31 Q108.132 1579.05 107.177 1581.63 L101.479 1581.63 Q102.88 1579.05 103.548 1576.53 Q104.217 1574.02 104.217 1571.41 Q104.217 1565.65 101.193 1562.78 Q98.201 1559.92 92.1218 1559.92 L89.2254 1559.92 Q92.3764 1561.73 93.936 1564.56 Q95.4956 1567.4 95.4956 1571.34 Q95.4956 1577.9 90.4985 1581.91 Q85.5014 1585.92 77.2578 1585.92 Q68.9824 1585.92 63.9853 1581.91 Q58.9883 1577.9 58.9883 1571.34 Q58.9883 1567.4 60.5479 1564.56 Q62.1075 1561.73 65.2585 1559.92 L59.8476 1559.92 L59.8476 1554.06 L91.0714 1554.06 Z" fill="#000000" fill-rule="nonzero" fill-opacity="1" /><path clip-path="url(#clip180)" d="M46.0341 1527.93 Q53.3546 1532.2 60.516 1534.26 Q67.6775 1536.33 75.0299 1536.33 Q82.3822 1536.33 89.6073 1534.26 Q96.8006 1532.16 104.089 1527.93 L104.089 1533.02 Q96.6096 1537.8 89.3845 1540.18 Q82.1594 1542.54 75.0299 1542.54 Q67.9321 1542.54 60.7388 1540.18 Q53.5456 1537.83 46.0341 1533.02 L46.0341 1527.93 Z" fill="#000000" fill-rule="nonzero" fill-opacity="1" /><path clip-path="url(#clip180)" d="M72.8973 1492.63 L72.8973 1512.91 Q82.4141 1512.43 86.4563 1510.23 Q91.4215 1507.5 91.4215 1502.75 Q91.4215 1497.98 86.4245 1495.34 Q82.0321 1493.01 72.8973 1492.63 M67.4865 1492.73 Q58.4472 1493.62 55.2643 1495.34 Q50.2354 1498.08 50.2354 1502.75 Q50.2354 1507.62 55.2007 1510.2 Q59.2111 1512.24 67.4865 1512.84 L67.4865 1492.73 M45.4611 1502.75 Q45.4611 1495.12 52.2088 1490.75 Q58.9246 1486.39 70.8285 1486.39 Q82.7005 1486.39 89.4482 1490.75 Q96.2277 1495.12 96.2277 1502.75 Q96.2277 1510.42 89.4482 1514.75 Q82.7005 1519.11 70.8285 1519.11 Q58.9246 1519.11 52.2088 1514.75 Q45.4611 1510.42 45.4611 1502.75 Z" fill="#000000" fill-rule="nonzero" fill-opacity="1" /><path clip-path="url(#clip180)" d="M75.5391 1478.95 L75.5391 1475.25 L95.4956 1475.25 L95.4956 1478.95 L75.5391 1478.95 M67.7729 1478.95 L67.7729 1475.25 L71.9107 1475.25 L71.9107 1478.95 L67.7729 1478.95 Z" fill="#000000" fill-rule="nonzero" fill-opacity="1" /><path clip-path="url(#clip180)" d="M46.0341 1465.96 L46.0341 1460.87 Q53.5456 1456.09 60.7388 1453.74 Q67.9321 1451.35 75.0299 1451.35 Q82.1594 1451.35 89.3845 1453.74 Q96.6096 1456.09 104.089 1460.87 L104.089 1465.96 Q96.8006 1461.73 89.6073 1459.66 Q82.3822 1457.56 75.0299 1457.56 Q67.6775 1457.56 60.516 1459.66 Q53.3546 1461.73 46.0341 1465.96 Z" fill="#000000" fill-rule="nonzero" fill-opacity="1" /><polyline clip-path="url(#clip181)" style="stroke:#009af9; stroke-linecap:round; stroke-linejoin:round; stroke-width:4; stroke-opacity:1; fill:none" points="303.634,1543.83 323.729,1545.22 343.824,1546.74 363.92,1548.39 384.015,1550.19 404.11,1552.14 424.206,1554.23 444.301,1556.49 464.396,1558.93 484.492,1561.55 504.587,1564.36 524.682,1567.37 544.778,1570.57 564.873,1574 584.968,1577.64 605.064,1581.52 625.159,1585.63 645.254,1589.97 665.35,1594.57 685.445,1599.42 705.54,1604.53 725.636,1609.9 745.731,1615.54 765.826,1621.44 785.922,1627.61 806.017,1634.08 826.113,1640.82 846.208,1647.84 866.303,1655.14 886.399,1662.73 906.494,1670.65 926.589,1678.84 946.685,1687.34 966.78,1696.18 986.875,1705.31 1006.97,1714.8 1027.07,1724.66 1047.16,1734.86 1067.26,1745.44 1087.35,1756.42 1107.45,1767.79 1127.54,1779.55 1147.64,1791.69 1167.73,1804.24 1187.83,1816.9 1207.92,1829.79 1228.02,1842.62 1248.11,1854.97 1268.21,1866.61 1288.31,1877.25 1308.4,1886.53 1328.5,1894.25 1348.59,1899.73 1368.69,1903.69 1388.78,1906.81 1408.88,1910.12 1428.97,1915.03 1449.07,1922.48 1469.16,1933.68 1489.26,1947.33 1509.35,1962.57 1529.45,1976.43 1549.54,1986.09 1569.64,1987.09 1589.74,1984.88 1609.83,1985.38 1629.93,1992.33 1650.02,2007.58 1670.12,2023.16 1690.21,2030.84 1710.31,2026.98 1730.4,2026.72 1750.5,2037.18 1770.59,2051.76 1790.69,2052.62 1810.78,2050.24 1830.88,2060.93 1850.98,2071.97 1871.07,2070.33 1891.17,2072.7 1911.26,2083.14 1931.36,2082.34 1951.45,2090.49 1971.55,2095.79 1991.64,2098.5 2011.74,2104 2031.83,2107.28 2051.93,2109.9 2072.02,2114.23 2092.12,2116.8 2112.21,2120.04 2132.31,2122.71 2152.41,2127.31 2172.5,2130.58 2192.6,2132.94 2212.69,2136.25 2232.79,2138.88 2252.88,2141.14 2272.98,2143.85 2293.07,2146.68 "/>
<polyline clip-path="url(#clip181)" style="stroke:#e26f46; stroke-linecap:round; stroke-linejoin:round; stroke-width:4; stroke-opacity:1; fill:none" points="303.634,1652.25 323.729,1651.66 343.824,1651.03 363.92,1650.33 384.015,1649.58 404.11,1648.79 424.206,1647.91 444.301,1646.95 464.396,1645.95 484.492,1644.85 504.587,1643.71 524.682,1642.45 544.778,1641.11 564.873,1639.71 584.968,1638.17 605.064,1636.58 625.159,1634.85 645.254,1633.04 665.35,1631.11 685.445,1629.09 705.54,1626.93 725.636,1624.66 745.731,1622.26 765.826,1619.73 785.922,1617.07 806.017,1614.27 826.113,1611.3 846.208,1608.18 866.303,1604.89 886.399,1601.44 906.494,1597.77 926.589,1593.88 946.685,1589.79 966.78,1585.45 986.875,1580.78 1006.97,1575.87 1027.07,1570.63 1047.16,1564.98 1067.26,1558.99 1087.35,1552.55 1107.45,1545.65 1127.54,1538.31 1147.64,1530.49 1167.73,1522.34 1187.83,1513.69 1207.92,1504.93 1228.02,1496.12 1248.11,1487.45 1268.21,1479.36 1288.31,1472.4 1308.4,1466.95 1328.5,1463.36 1348.59,1461.67 1368.69,1461.52 1388.78,1462.26 1408.88,1462.6 1428.97,1461.25 1449.07,1456.43 1469.16,1448.53 1489.26,1436.56 1509.35,1423.42 1529.45,1412.01 1549.54,1406.61 1569.64,1409.07 1589.74,1416.98 1609.83,1423.2 1629.93,1418.89 1650.02,1403.35 1670.12,1386.66 1690.21,1381.41 1710.31,1391.93 1730.4,1401.53 1750.5,1392.37 1770.59,1373.82 1790.69,1369.16 1810.78,1382.72 1830.88,1380.17 1850.98,1364.24 1871.07,1366.62 1891.17,1372.38 1911.26,1360.54 1931.36,1358.62 1951.45,1362.52 1971.55,1354.13 1991.64,1356.42 2011.74,1352.39 2031.83,1351.34 2051.93,1349.07 2072.02,1346.88 2092.12,1344.87 2112.21,1343.49 2132.31,1341.58 2152.41,1340.44 2172.5,1338.18 2192.6,1336.85 2212.69,1335.59 2232.79,1334.13 2252.88,1332.69 2272.98,1331.37 2293.07,1330.08 "/>
<polyline clip-path="url(#clip181)" style="stroke:#3da44d; stroke-linecap:round; stroke-linejoin:round; stroke-width:4; stroke-opacity:1; fill:none" points="303.634,1551.92 323.729,1551.81 343.824,1551.7 363.92,1551.57 384.015,1551.43 404.11,1551.28 424.206,1551.12 444.301,1550.94 464.396,1550.75 484.492,1550.55 504.587,1550.34 524.682,1550.11 544.778,1549.86 564.873,1549.61 584.968,1549.33 605.064,1549.03 625.159,1548.72 645.254,1548.39 665.35,1548.05 685.445,1547.69 705.54,1547.3 725.636,1546.91 745.731,1546.49 765.826,1546.06 785.922,1545.61 806.017,1545.15 826.113,1544.68 846.208,1544.19 866.303,1543.69 886.399,1543.2 906.494,1542.69 926.589,1542.19 946.685,1541.7 966.78,1541.23 986.875,1540.77 1006.97,1540.35 1027.07,1540 1047.16,1539.69 1067.26,1539.49 1087.35,1539.39 1107.45,1539.45 1127.54,1539.71 1147.64,1540.17 1167.73,1540.95 1187.83,1542.06 1207.92,1543.59 1228.02,1545.57 1248.11,1548.03 1268.21,1550.96 1288.31,1554.3 1308.4,1557.85 1328.5,1561.29 1348.59,1564.22 1368.69,1566.12 1388.78,1566.51 1408.88,1565.12 1428.97,1561.96 1449.07,1557.4 1469.16,1552.58 1489.26,1548.85 1509.35,1548.11 1529.45,1551.74 1549.54,1559.73 1569.64,1569.76 1589.74,1575.89 1609.83,1573.8 1629.93,1563.89 1650.02,1552.47 1670.12,1549.57 1690.21,1559.84 1710.31,1574.22 1730.4,1575.14 1750.5,1561.5 1770.59,1552.26 1790.69,1563.59 1810.78,1574.58 1830.88,1565.02 1850.98,1556.51 1871.07,1567.33 1891.17,1570.16 1911.26,1560.83 1931.36,1566.3 1951.45,1567.19 1971.55,1562.53 1991.64,1566.81 2011.74,1564.31 2031.83,1565.88 2051.93,1565.27 2072.02,1565.28 2092.12,1565.51 2112.21,1565.69 2132.31,1565.57 2152.41,1565.97 2172.5,1565.26 2192.6,1565.61 2212.69,1565.45 2232.79,1565.56 2252.88,1565.7 2272.98,1565.75 2293.07,1565.67 "/>
<polyline clip-path="url(#clip181)" style="stroke:#c271d2; stroke-linecap:round; stroke-linejoin:round; stroke-width:4; stroke-opacity:1; fill:none" points="303.634,1530.1 323.729,1530.2 343.824,1530.31 363.92,1530.43 384.015,1530.56 404.11,1530.71 424.206,1530.86 444.301,1531.03 464.396,1531.21 484.492,1531.41 504.587,1531.62 524.682,1531.84 544.778,1532.08 564.873,1532.35 584.968,1532.62 605.064,1532.92 625.159,1533.24 645.254,1533.57 665.35,1533.92 685.445,1534.3 705.54,1534.7 725.636,1535.11 745.731,1535.55 765.826,1536.01 785.922,1536.48 806.017,1536.98 826.113,1537.49 846.208,1538.02 866.303,1538.57 886.399,1539.13 906.494,1539.71 926.589,1540.28 946.685,1540.87 966.78,1541.47 986.875,1542.05 1006.97,1542.64 1027.07,1543.23 1047.16,1543.8 1067.26,1544.37 1087.35,1544.92 1107.45,1545.46 1127.54,1546 1147.64,1546.53 1167.73,1547.11 1187.83,1547.67 1207.92,1548.33 1228.02,1549.06 1248.11,1549.86 1268.21,1550.81 1288.31,1551.95 1308.4,1553.27 1328.5,1554.76 1348.59,1556.24 1368.69,1557.6 1388.78,1558.66 1408.88,1559.19 1428.97,1559.1 1449.07,1558.23 1469.16,1557.02 1489.26,1555.53 1509.35,1554.7 1529.45,1555.21 1549.54,1557.61 1569.64,1561.29 1589.74,1564.73 1609.83,1565.93 1629.93,1563.55 1650.02,1559.2 1670.12,1556.83 1690.21,1559.51 1710.31,1565.55 1730.4,1568.26 1750.5,1564.16 1770.59,1559.41 1790.69,1561.66 1810.78,1567.66 1830.88,1566.12 1850.98,1561.66 1871.07,1565.02 1891.17,1567.71 1911.26,1563.95 1931.36,1565.02 1951.45,1567.24 1971.55,1564.88 1991.64,1566.98 2011.74,1566.23 2031.83,1566.87 2051.93,1566.74 2072.02,1566.83 2092.12,1566.92 2112.21,1567.14 2132.31,1567.14 2152.41,1567.53 2172.5,1567.33 2192.6,1567.54 2212.69,1567.68 2232.79,1567.78 2252.88,1567.83 2272.98,1567.97 2293.07,1568.07 "/>
<polyline clip-path="url(#clip181)" style="stroke:#ac8d18; stroke-linecap:round; stroke-linejoin:round; stroke-width:4; stroke-opacity:1; fill:none" points="303.634,1912.05 323.729,1910.66 343.824,1909.15 363.92,1907.51 384.015,1905.73 404.11,1903.8 424.206,1901.73 444.301,1899.49 464.396,1897.09 484.492,1894.51 504.587,1891.75 524.682,1888.79 544.778,1885.64 564.873,1882.26 584.968,1878.68 605.064,1874.86 625.159,1870.81 645.254,1866.52 665.35,1861.98 685.445,1857.17 705.54,1852.1 725.636,1846.75 745.731,1841.12 765.826,1835.2 785.922,1828.98 806.017,1822.43 826.113,1815.58 846.208,1808.38 866.303,1800.83 886.399,1792.86 906.494,1784.54 926.589,1775.79 946.685,1766.59 966.78,1756.95 986.875,1746.84 1006.97,1736.17 1027.07,1724.82 1047.16,1713 1067.26,1700.55 1087.35,1687.5 1107.45,1673.76 1127.54,1659.47 1147.64,1644.79 1167.73,1629.63 1187.83,1614.76 1207.92,1599.98 1228.02,1586.07 1248.11,1573.92 1268.21,1564.08 1288.31,1556.99 1308.4,1553.03 1328.5,1552.17 1348.59,1554.84 1368.69,1558.66 1388.78,1561.07 1408.88,1559.24 1428.97,1550.05 1449.07,1532.3 1469.16,1504.83 1489.26,1474.61 1509.35,1446.1 1529.45,1430.27 1549.54,1433.06 1569.64,1462.35 1589.74,1491.41 1609.83,1496.5 1629.93,1469.38 1650.02,1416.15 1670.12,1377.22 1690.21,1384.77 1710.31,1435.17 1730.4,1453.42 1750.5,1411.6 1770.59,1357.51 1790.69,1379 1810.78,1420.91 1830.88,1391.74 1850.98,1347.34 1871.07,1372.42 1891.17,1388.85 1911.26,1352.24 1931.36,1364.25 1951.45,1355.75 1971.55,1338.65 1991.64,1344.47 2011.74,1334.38 2031.83,1331.43 2051.93,1332.95 2072.02,1325.13 2092.12,1325.34 2112.21,1322.21 2132.31,1322.68 2152.41,1312.26 2172.5,1306.92 2192.6,1308.58 2212.69,1303.82 2232.79,1301.26 2252.88,1301.04 2272.98,1298.24 2293.07,1294.76 "/>
<polyline clip-path="url(#clip181)" style="stroke:#00a9ad; stroke-linecap:round; stroke-linejoin:round; stroke-width:4; stroke-opacity:1; fill:none" points="303.634,1529.12 323.729,1529.12 343.824,1529.12 363.92,1529.12 384.015,1529.12 404.11,1529.12 424.206,1529.12 444.301,1529.12 464.396,1529.12 484.492,1529.12 504.587,1529.12 524.682,1529.12 544.778,1529.12 564.873,1529.12 584.968,1529.12 605.064,1529.12 625.159,1529.12 645.254,1529.12 665.35,1529.12 685.445,1529.12 705.54,1529.12 725.636,1529.13 745.731,1529.13 765.826,1529.13 785.922,1529.13 806.017,1529.13 826.113,1529.13 846.208,1529.13 866.303,1529.12 886.399,1529.12 906.494,1529.12 926.589,1529.12 946.685,1529.11 966.78,1529.11 986.875,1529.1 1006.97,1529.1 1027.07,1529.08 1047.16,1529.07 1067.26,1529.06 1087.35,1529.04 1107.45,1529.02 1127.54,1529 1147.64,1528.98 1167.73,1528.95 1187.83,1528.92 1207.92,1528.9 1228.02,1528.87 1248.11,1528.85 1268.21,1528.84 1288.31,1528.83 1308.4,1528.85 1328.5,1528.89 1348.59,1528.95 1368.69,1529.01 1388.78,1529.09 1408.88,1529.15 1428.97,1529.19 1449.07,1529.18 1469.16,1529.12 1489.26,1528.99 1509.35,1528.81 1529.45,1528.67 1549.54,1528.63 1569.64,1528.74 1589.74,1529 1609.83,1529.29 1629.93,1529.38 1650.02,1529.13 1670.12,1528.71 1690.21,1528.46 1710.31,1528.76 1730.4,1529.35 1750.5,1529.46 1770.59,1528.89 1790.69,1528.35 1810.78,1528.96 1830.88,1529.47 1850.98,1528.92 1871.07,1528.64 1891.17,1529.2 1911.26,1529.05 1931.36,1528.68 1951.45,1529.12 1971.55,1528.94 1991.64,1528.98 2011.74,1529.04 2031.83,1528.94 2051.93,1529.04 2072.02,1528.95 2092.12,1528.97 2112.21,1528.97 2132.31,1529 2152.41,1528.93 2172.5,1528.94 2192.6,1528.95 2212.69,1528.99 2232.79,1528.97 2252.88,1528.97 2272.98,1528.97 2293.07,1528.98 "/>
<polyline clip-path="url(#clip181)" style="stroke:#ed5d92; stroke-linecap:round; stroke-linejoin:round; stroke-width:4; stroke-opacity:1; fill:none" points="303.634,1529.57 323.729,1529.57 343.824,1529.57 363.92,1529.57 384.015,1529.58 404.11,1529.59 424.206,1529.6 444.301,1529.62 464.396,1529.64 484.492,1529.66 504.587,1529.69 524.682,1529.72 544.778,1529.76 564.873,1529.8 584.968,1529.84 605.064,1529.88 625.159,1529.92 645.254,1529.97 665.35,1530.02 685.445,1530.07 705.54,1530.13 725.636,1530.18 745.731,1530.24 765.826,1530.29 785.922,1530.35 806.017,1530.41 826.113,1530.47 846.208,1530.53 866.303,1530.59 886.399,1530.64 906.494,1530.7 926.589,1530.75 946.685,1530.81 966.78,1530.86 986.875,1530.91 1006.97,1530.96 1027.07,1531 1047.16,1531.05 1067.26,1531.09 1087.35,1531.13 1107.45,1531.17 1127.54,1531.21 1147.64,1531.24 1167.73,1531.27 1187.83,1531.3 1207.92,1531.33 1228.02,1531.36 1248.11,1531.38 1268.21,1531.4 1288.31,1531.43 1308.4,1531.45 1328.5,1531.46 1348.59,1531.48 1368.69,1531.5 1388.78,1531.51 1408.88,1531.52 1428.97,1531.53 1449.07,1531.54 1469.16,1531.55 1489.26,1531.56 1509.35,1531.57 1529.45,1531.57 1549.54,1531.58 1569.64,1531.59 1589.74,1531.59 1609.83,1531.6 1629.93,1531.6 1650.02,1531.6 1670.12,1531.61 1690.21,1531.61 1710.31,1531.61 1730.4,1531.62 1750.5,1531.62 1770.59,1531.62 1790.69,1531.62 1810.78,1531.62 1830.88,1531.62 1850.98,1531.62 1871.07,1531.63 1891.17,1531.63 1911.26,1531.63 1931.36,1531.63 1951.45,1531.63 1971.55,1531.63 1991.64,1531.63 2011.74,1531.63 2031.83,1531.63 2051.93,1531.63 2072.02,1531.63 2092.12,1531.63 2112.21,1531.63 2132.31,1531.63 2152.41,1531.63 2172.5,1531.63 2192.6,1531.63 2212.69,1531.63 2232.79,1531.63 2252.88,1531.63 2272.98,1531.63 2293.07,1531.63 "/>
<polyline clip-path="url(#clip181)" style="stroke:#c68125; stroke-linecap:round; stroke-linejoin:round; stroke-width:4; stroke-opacity:1; fill:none" points="303.634,1231.19 323.729,1231.19 343.824,1231.19 363.92,1231.19 384.015,1231.19 404.11,1231.19 424.206,1231.19 444.301,1231.19 464.396,1231.19 484.492,1231.19 504.587,1231.19 524.682,1231.19 544.778,1231.19 564.873,1231.19 584.968,1231.19 605.064,1231.19 625.159,1231.19 645.254,1231.19 665.35,1231.19 685.445,1231.19 705.54,1231.19 725.636,1231.19 745.731,1231.19 765.826,1231.19 785.922,1231.19 806.017,1231.19 826.113,1231.19 846.208,1231.19 866.303,1231.19 886.399,1231.19 906.494,1231.19 926.589,1231.19 946.685,1231.19 966.78,1231.19 986.875,1231.19 1006.97,1231.19 1027.07,1231.19 1047.16,1231.19 1067.26,1231.19 1087.35,1231.19 1107.45,1231.19 1127.54,1231.19 1147.64,1231.19 1167.73,1231.19 1187.83,1231.19 1207.92,1231.19 1228.02,1231.19 1248.11,1231.19 1268.21,1231.19 1288.31,1231.19 1308.4,1231.19 1328.5,1231.19 1348.59,1231.19 1368.69,1231.19 1388.78,1231.19 1408.88,1231.19 1428.97,1231.19 1449.07,1231.19 1469.16,1231.19 1489.26,1231.19 1509.35,1231.19 1529.45,1231.19 1549.54,1231.19 1569.64,1231.19 1589.74,1231.19 1609.83,1231.19 1629.93,1231.19 1650.02,1231.19 1670.12,1231.19 1690.21,1231.19 1710.31,1231.19 1730.4,1231.19 1750.5,1231.19 1770.59,1231.19 1790.69,1231.19 1810.78,1231.19 1830.88,1231.19 1850.98,1231.19 1871.07,1231.19 1891.17,1231.19 1911.26,1231.19 1931.36,1231.19 1951.45,1231.19 1971.55,1231.19 1991.64,1231.19 2011.74,1231.19 2031.83,1231.19 2051.93,1231.19 2072.02,1231.19 2092.12,1231.19 2112.21,1231.19 2132.31,1231.19 2152.41,1231.19 2172.5,1231.19 2192.6,1231.19 2212.69,1231.19 2232.79,1231.19 2252.88,1231.19 2272.98,1231.19 2293.07,1231.19 "/>
<polyline clip-path="url(#clip181)" style="stroke:#00a98d; stroke-linecap:round; stroke-linejoin:round; stroke-width:4; stroke-opacity:1; fill:none" points="303.634,1898.19 323.729,1891.6 343.824,1885.02 363.92,1878.44 384.015,1871.86 404.11,1865.27 424.206,1858.69 444.301,1852.11 464.396,1845.52 484.492,1838.94 504.587,1832.36 524.682,1825.78 544.778,1819.19 564.873,1812.61 584.968,1806.03 605.064,1799.44 625.159,1792.86 645.254,1786.28 665.35,1779.7 685.445,1773.11 705.54,1766.53 725.636,1759.95 745.731,1753.37 765.826,1746.78 785.922,1740.2 806.017,1733.62 826.113,1727.03 846.208,1720.45 866.303,1713.87 886.399,1707.29 906.494,1700.7 926.589,1694.12 946.685,1687.54 966.78,1680.96 986.875,1674.37 1006.97,1667.79 1027.07,1661.21 1047.16,1654.62 1067.26,1648.04 1087.35,1641.46 1107.45,1634.88 1127.54,1628.29 1147.64,1621.71 1167.73,1615.13 1187.83,1608.54 1207.92,1601.96 1228.02,1595.38 1248.11,1588.8 1268.21,1582.21 1288.31,1575.63 1308.4,1569.05 1328.5,1562.47 1348.59,1555.88 1368.69,1549.3 1388.78,1542.72 1408.88,1536.13 1428.97,1529.55 1449.07,1522.97 1469.16,1516.39 1489.26,1509.8 1509.35,1503.22 1529.45,1496.64 1549.54,1490.06 1569.64,1483.47 1589.74,1476.89 1609.83,1470.31 1629.93,1463.72 1650.02,1457.14 1670.12,1450.56 1690.21,1443.98 1710.31,1437.39 1730.4,1430.81 1750.5,1424.23 1770.59,1417.64 1790.69,1411.06 1810.78,1404.48 1830.88,1397.9 1850.98,1391.31 1871.07,1384.73 1891.17,1378.15 1911.26,1371.57 1931.36,1364.98 1951.45,1358.4 1971.55,1351.82 1991.64,1345.23 2011.74,1338.65 2031.83,1332.07 2051.93,1325.49 2072.02,1318.9 2092.12,1312.32 2112.21,1305.74 2132.31,1299.16 2152.41,1292.57 2172.5,1285.99 2192.6,1279.41 2212.69,1272.82 2232.79,1266.24 2252.88,1259.66 2272.98,1253.08 2293.07,1246.49 "/>
<path clip-path="url(#clip180)" d="M314.244 2141.79 L831.303 2141.79 L831.303 1623.39 L314.244 1623.39  Z" fill="#ffffff" fill-rule="evenodd" fill-opacity="1"/>
<polyline clip-path="url(#clip180)" style="stroke:#000000; stroke-linecap:round; stroke-linejoin:round; stroke-width:4; stroke-opacity:1; fill:none" points="314.244,2141.79 831.303,2141.79 831.303,1623.39 314.244,1623.39 314.244,2141.79 "/>
<polyline clip-path="url(#clip180)" style="stroke:#009af9; stroke-linecap:round; stroke-linejoin:round; stroke-width:4; stroke-opacity:1; fill:none" points="337.675,1675.23 478.262,1675.23 "/>
<path clip-path="url(#clip180)" d="M520.952 1676.08 L506.207 1676.08 Q506.554 1683 508.152 1685.94 Q510.142 1689.55 513.591 1689.55 Q517.064 1689.55 518.985 1685.92 Q520.675 1682.72 520.952 1676.08 M520.883 1672.14 Q520.235 1665.57 518.985 1663.25 Q516.994 1659.6 513.591 1659.6 Q510.05 1659.6 508.175 1663.21 Q506.693 1666.12 506.253 1672.14 L520.883 1672.14 M513.591 1656.12 Q519.147 1656.12 522.318 1661.03 Q525.489 1665.92 525.489 1674.57 Q525.489 1683.21 522.318 1688.11 Q519.147 1693.05 513.591 1693.05 Q508.013 1693.05 504.865 1688.11 Q501.693 1683.21 501.693 1674.57 Q501.693 1665.92 504.865 1661.03 Q508.013 1656.12 513.591 1656.12 Z" fill="#000000" fill-rule="nonzero" fill-opacity="1" /><path clip-path="url(#clip180)" d="M530.906 1678 L533.591 1678 L533.591 1692.51 L530.906 1692.51 L530.906 1678 M530.906 1672.35 L533.591 1672.35 L533.591 1675.36 L530.906 1675.36 L530.906 1672.35 Z" fill="#000000" fill-rule="nonzero" fill-opacity="1" /><path clip-path="url(#clip180)" d="M541.577 1670.99 L571.253 1670.99 L571.253 1674.87 L541.577 1674.87 L541.577 1670.99 M541.577 1680.43 L571.253 1680.43 L571.253 1684.36 L541.577 1684.36 L541.577 1680.43 Z" fill="#000000" fill-rule="nonzero" fill-opacity="1" /><path clip-path="url(#clip180)" d="M576.137 1657.95 L605.373 1657.95 L605.373 1661.89 L593.105 1661.89 L593.105 1692.51 L588.406 1692.51 L588.406 1661.89 L576.137 1661.89 L576.137 1657.95 Z" fill="#000000" fill-rule="nonzero" fill-opacity="1" /><path clip-path="url(#clip180)" d="M613.591 1670.66 L619.262 1686.68 L627.364 1666.59 L631.878 1666.59 L621.392 1692.51 L621.392 1702.37 L617.132 1702.37 L617.132 1692.51 L610.327 1673.16 Q609.308 1670.24 607.109 1670.24 L605.975 1670.24 L605.975 1666.59 L607.595 1666.59 Q612.156 1666.59 613.591 1670.66 Z" fill="#000000" fill-rule="nonzero" fill-opacity="1" /><path clip-path="url(#clip180)" d="M648.359 1661.03 Q644.748 1661.03 642.919 1664.6 Q641.114 1668.14 641.114 1675.27 Q641.114 1682.37 642.919 1685.94 Q644.748 1689.48 648.359 1689.48 Q651.993 1689.48 653.799 1685.94 Q655.628 1682.37 655.628 1675.27 Q655.628 1668.14 653.799 1664.6 Q651.993 1661.03 648.359 1661.03 M648.359 1657.33 Q654.169 1657.33 657.225 1661.93 Q660.304 1666.52 660.304 1675.27 Q660.304 1683.99 657.225 1688.6 Q654.169 1693.18 648.359 1693.18 Q642.549 1693.18 639.47 1688.6 Q636.415 1683.99 636.415 1675.27 Q636.415 1666.52 639.47 1661.93 Q642.549 1657.33 648.359 1657.33 Z" fill="#000000" fill-rule="nonzero" fill-opacity="1" /><polyline clip-path="url(#clip180)" style="stroke:#e26f46; stroke-linecap:round; stroke-linejoin:round; stroke-width:4; stroke-opacity:1; fill:none" points="337.675,1727.07 478.262,1727.07 "/>
<path clip-path="url(#clip180)" d="M520.952 1727.92 L506.207 1727.92 Q506.554 1734.84 508.152 1737.78 Q510.142 1741.39 513.591 1741.39 Q517.064 1741.39 518.985 1737.76 Q520.675 1734.56 520.952 1727.92 M520.883 1723.98 Q520.235 1717.41 518.985 1715.09 Q516.994 1711.44 513.591 1711.44 Q510.05 1711.44 508.175 1715.05 Q506.693 1717.96 506.253 1723.98 L520.883 1723.98 M513.591 1707.96 Q519.147 1707.96 522.318 1712.87 Q525.489 1717.76 525.489 1726.41 Q525.489 1735.05 522.318 1739.95 Q519.147 1744.89 513.591 1744.89 Q508.013 1744.89 504.865 1739.95 Q501.693 1735.05 501.693 1726.41 Q501.693 1717.76 504.865 1712.87 Q508.013 1707.96 513.591 1707.96 Z" fill="#000000" fill-rule="nonzero" fill-opacity="1" /><path clip-path="url(#clip180)" d="M530.906 1729.84 L533.591 1729.84 L533.591 1744.35 L530.906 1744.35 L530.906 1729.84 M530.906 1724.19 L533.591 1724.19 L533.591 1727.2 L530.906 1727.2 L530.906 1724.19 Z" fill="#000000" fill-rule="nonzero" fill-opacity="1" /><path clip-path="url(#clip180)" d="M541.577 1722.83 L571.253 1722.83 L571.253 1726.71 L541.577 1726.71 L541.577 1722.83 M541.577 1732.27 L571.253 1732.27 L571.253 1736.2 L541.577 1736.2 L541.577 1732.27 Z" fill="#000000" fill-rule="nonzero" fill-opacity="1" /><path clip-path="url(#clip180)" d="M610.697 1740.23 L610.697 1744.35 L596.808 1744.35 L596.808 1740.23 Q600.906 1737.99 603.197 1734.14 Q605.489 1730.3 605.489 1725.63 Q605.489 1720.07 602.433 1716.71 Q599.378 1713.36 594.378 1713.36 Q589.378 1713.36 586.299 1716.74 Q583.244 1720.09 583.244 1725.63 Q583.244 1730.3 585.535 1734.14 Q587.85 1737.99 591.971 1740.23 L591.971 1744.35 L578.082 1744.35 L578.082 1740.23 L585.466 1740.23 Q581.809 1737.01 580.119 1733.57 Q578.452 1730.12 578.452 1725.86 Q578.452 1718.5 582.897 1713.94 Q587.318 1709.38 594.378 1709.38 Q601.392 1709.38 605.859 1713.94 Q610.304 1718.47 610.304 1725.63 Q610.304 1730.12 608.66 1733.54 Q607.017 1736.97 603.29 1740.23 L610.697 1740.23 Z" fill="#000000" fill-rule="nonzero" fill-opacity="1" /><path clip-path="url(#clip180)" d="M635.628 1719.42 L635.628 1723.4 Q633.822 1722.41 631.993 1721.92 Q630.188 1721.41 628.336 1721.41 Q624.193 1721.41 621.901 1724.05 Q619.609 1726.67 619.609 1731.41 Q619.609 1736.16 621.901 1738.8 Q624.193 1741.41 628.336 1741.41 Q630.188 1741.41 631.993 1740.93 Q633.822 1740.42 635.628 1739.42 L635.628 1743.36 Q633.845 1744.19 631.924 1744.61 Q630.026 1745.02 627.873 1745.02 Q622.017 1745.02 618.568 1741.34 Q615.119 1737.66 615.119 1731.41 Q615.119 1725.07 618.591 1721.44 Q622.086 1717.8 628.151 1717.8 Q630.118 1717.8 631.993 1718.22 Q633.868 1718.61 635.628 1719.42 Z" fill="#000000" fill-rule="nonzero" fill-opacity="1" /><path clip-path="url(#clip180)" d="M653.637 1712.87 Q650.026 1712.87 648.197 1716.44 Q646.392 1719.98 646.392 1727.11 Q646.392 1734.21 648.197 1737.78 Q650.026 1741.32 653.637 1741.32 Q657.271 1741.32 659.077 1737.78 Q660.905 1734.21 660.905 1727.11 Q660.905 1719.98 659.077 1716.44 Q657.271 1712.87 653.637 1712.87 M653.637 1709.17 Q659.447 1709.17 662.503 1713.77 Q665.581 1718.36 665.581 1727.11 Q665.581 1735.83 662.503 1740.44 Q659.447 1745.02 653.637 1745.02 Q647.827 1745.02 644.748 1740.44 Q641.692 1735.83 641.692 1727.11 Q641.692 1718.36 644.748 1713.77 Q647.827 1709.17 653.637 1709.17 Z" fill="#000000" fill-rule="nonzero" fill-opacity="1" /><polyline clip-path="url(#clip180)" style="stroke:#3da44d; stroke-linecap:round; stroke-linejoin:round; stroke-width:4; stroke-opacity:1; fill:none" points="337.675,1778.91 478.262,1778.91 "/>
<path clip-path="url(#clip180)" d="M520.952 1779.76 L506.207 1779.76 Q506.554 1786.68 508.152 1789.62 Q510.142 1793.23 513.591 1793.23 Q517.064 1793.23 518.985 1789.6 Q520.675 1786.4 520.952 1779.76 M520.883 1775.82 Q520.235 1769.25 518.985 1766.93 Q516.994 1763.28 513.591 1763.28 Q510.05 1763.28 508.175 1766.89 Q506.693 1769.8 506.253 1775.82 L520.883 1775.82 M513.591 1759.8 Q519.147 1759.8 522.318 1764.71 Q525.489 1769.6 525.489 1778.25 Q525.489 1786.89 522.318 1791.79 Q519.147 1796.73 513.591 1796.73 Q508.013 1796.73 504.865 1791.79 Q501.693 1786.89 501.693 1778.25 Q501.693 1769.6 504.865 1764.71 Q508.013 1759.8 513.591 1759.8 Z" fill="#000000" fill-rule="nonzero" fill-opacity="1" /><path clip-path="url(#clip180)" d="M530.906 1781.68 L533.591 1781.68 L533.591 1796.19 L530.906 1796.19 L530.906 1781.68 M530.906 1776.03 L533.591 1776.03 L533.591 1779.04 L530.906 1779.04 L530.906 1776.03 Z" fill="#000000" fill-rule="nonzero" fill-opacity="1" /><path clip-path="url(#clip180)" d="M541.577 1774.67 L571.253 1774.67 L571.253 1778.55 L541.577 1778.55 L541.577 1774.67 M541.577 1784.11 L571.253 1784.11 L571.253 1788.04 L541.577 1788.04 L541.577 1784.11 Z" fill="#000000" fill-rule="nonzero" fill-opacity="1" /><path clip-path="url(#clip180)" d="M610.697 1792.07 L610.697 1796.19 L596.808 1796.19 L596.808 1792.07 Q600.906 1789.83 603.197 1785.98 Q605.489 1782.14 605.489 1777.47 Q605.489 1771.91 602.433 1768.55 Q599.378 1765.2 594.378 1765.2 Q589.378 1765.2 586.299 1768.58 Q583.244 1771.93 583.244 1777.47 Q583.244 1782.14 585.535 1785.98 Q587.85 1789.83 591.971 1792.07 L591.971 1796.19 L578.082 1796.19 L578.082 1792.07 L585.466 1792.07 Q581.809 1788.85 580.119 1785.41 Q578.452 1781.96 578.452 1777.7 Q578.452 1770.34 582.897 1765.78 Q587.318 1761.22 594.378 1761.22 Q601.392 1761.22 605.859 1765.78 Q610.304 1770.31 610.304 1777.47 Q610.304 1781.96 608.66 1785.38 Q607.017 1788.81 603.29 1792.07 L610.697 1792.07 Z" fill="#000000" fill-rule="nonzero" fill-opacity="1" /><path clip-path="url(#clip180)" d="M635.581 1783.25 Q635.581 1778.55 633.637 1775.89 Q631.716 1773.21 628.336 1773.21 Q624.956 1773.21 623.012 1775.89 Q621.091 1778.55 621.091 1783.25 Q621.091 1787.95 623.012 1790.64 Q624.956 1793.3 628.336 1793.3 Q631.716 1793.3 633.637 1790.64 Q635.581 1787.95 635.581 1783.25 M621.091 1774.2 Q622.433 1771.89 624.47 1770.78 Q626.531 1769.64 629.378 1769.64 Q634.1 1769.64 637.04 1773.39 Q640.003 1777.14 640.003 1783.25 Q640.003 1789.36 637.04 1793.11 Q634.1 1796.86 629.378 1796.86 Q626.531 1796.86 624.47 1795.75 Q622.433 1794.62 621.091 1792.3 L621.091 1796.19 L616.808 1796.19 L616.808 1760.17 L621.091 1760.17 L621.091 1774.2 Z" fill="#000000" fill-rule="nonzero" fill-opacity="1" /><path clip-path="url(#clip180)" d="M657.665 1764.71 Q654.054 1764.71 652.225 1768.28 Q650.419 1771.82 650.419 1778.95 Q650.419 1786.05 652.225 1789.62 Q654.054 1793.16 657.665 1793.16 Q661.299 1793.16 663.104 1789.62 Q664.933 1786.05 664.933 1778.95 Q664.933 1771.82 663.104 1768.28 Q661.299 1764.71 657.665 1764.71 M657.665 1761.01 Q663.475 1761.01 666.53 1765.61 Q669.609 1770.2 669.609 1778.95 Q669.609 1787.67 666.53 1792.28 Q663.475 1796.86 657.665 1796.86 Q651.854 1796.86 648.776 1792.28 Q645.72 1787.67 645.72 1778.95 Q645.72 1770.2 648.776 1765.61 Q651.854 1761.01 657.665 1761.01 Z" fill="#000000" fill-rule="nonzero" fill-opacity="1" /><polyline clip-path="url(#clip180)" style="stroke:#c271d2; stroke-linecap:round; stroke-linejoin:round; stroke-width:4; stroke-opacity:1; fill:none" points="337.675,1830.75 478.262,1830.75 "/>
<path clip-path="url(#clip180)" d="M520.952 1831.6 L506.207 1831.6 Q506.554 1838.52 508.152 1841.46 Q510.142 1845.07 513.591 1845.07 Q517.064 1845.07 518.985 1841.44 Q520.675 1838.24 520.952 1831.6 M520.883 1827.66 Q520.235 1821.09 518.985 1818.77 Q516.994 1815.12 513.591 1815.12 Q510.05 1815.12 508.175 1818.73 Q506.693 1821.64 506.253 1827.66 L520.883 1827.66 M513.591 1811.64 Q519.147 1811.64 522.318 1816.55 Q525.489 1821.44 525.489 1830.09 Q525.489 1838.73 522.318 1843.63 Q519.147 1848.57 513.591 1848.57 Q508.013 1848.57 504.865 1843.63 Q501.693 1838.73 501.693 1830.09 Q501.693 1821.44 504.865 1816.55 Q508.013 1811.64 513.591 1811.64 Z" fill="#000000" fill-rule="nonzero" fill-opacity="1" /><path clip-path="url(#clip180)" d="M530.906 1833.52 L533.591 1833.52 L533.591 1848.03 L530.906 1848.03 L530.906 1833.52 M530.906 1827.87 L533.591 1827.87 L533.591 1830.88 L530.906 1830.88 L530.906 1827.87 Z" fill="#000000" fill-rule="nonzero" fill-opacity="1" /><path clip-path="url(#clip180)" d="M541.577 1826.51 L571.253 1826.51 L571.253 1830.39 L541.577 1830.39 L541.577 1826.51 M541.577 1835.95 L571.253 1835.95 L571.253 1839.88 L541.577 1839.88 L541.577 1835.95 Z" fill="#000000" fill-rule="nonzero" fill-opacity="1" /><path clip-path="url(#clip180)" d="M580.929 1813.47 L587.225 1813.47 L602.549 1842.38 L602.549 1813.47 L607.086 1813.47 L607.086 1848.03 L600.79 1848.03 L585.466 1819.12 L585.466 1848.03 L580.929 1848.03 L580.929 1813.47 Z" fill="#000000" fill-rule="nonzero" fill-opacity="1" /><path clip-path="url(#clip180)" d="M638.382 1834.01 L638.382 1836.09 L618.799 1836.09 Q619.077 1840.49 621.438 1842.8 Q623.822 1845.09 628.058 1845.09 Q630.512 1845.09 632.804 1844.49 Q635.118 1843.89 637.387 1842.69 L637.387 1846.71 Q635.095 1847.69 632.688 1848.19 Q630.281 1848.7 627.804 1848.7 Q621.6 1848.7 617.966 1845.09 Q614.355 1841.48 614.355 1835.32 Q614.355 1828.96 617.781 1825.23 Q621.23 1821.48 627.063 1821.48 Q632.294 1821.48 635.327 1824.86 Q638.382 1828.22 638.382 1834.01 M634.123 1832.76 Q634.077 1829.26 632.156 1827.18 Q630.257 1825.09 627.109 1825.09 Q623.544 1825.09 621.392 1827.11 Q619.262 1829.12 618.938 1832.78 L634.123 1832.76 Z" fill="#000000" fill-rule="nonzero" fill-opacity="1" /><path clip-path="url(#clip180)" d="M658.498 1812.01 L658.498 1815.56 L654.424 1815.56 Q652.132 1815.56 651.229 1816.48 Q650.35 1817.41 650.35 1819.82 L650.35 1822.11 L657.364 1822.11 L657.364 1825.42 L650.35 1825.42 L650.35 1848.03 L646.067 1848.03 L646.067 1825.42 L641.993 1825.42 L641.993 1822.11 L646.067 1822.11 L646.067 1820.3 Q646.067 1815.97 648.081 1814.01 Q650.095 1812.01 654.47 1812.01 L658.498 1812.01 Z" fill="#000000" fill-rule="nonzero" fill-opacity="1" /><path clip-path="url(#clip180)" d="M675.188 1812.01 L675.188 1815.56 L671.114 1815.56 Q668.822 1815.56 667.919 1816.48 Q667.04 1817.41 667.04 1819.82 L667.04 1822.11 L674.053 1822.11 L674.053 1825.42 L667.04 1825.42 L667.04 1848.03 L662.757 1848.03 L662.757 1825.42 L658.683 1825.42 L658.683 1822.11 L662.757 1822.11 L662.757 1820.3 Q662.757 1815.97 664.771 1814.01 Q666.785 1812.01 671.16 1812.01 L675.188 1812.01 Z" fill="#000000" fill-rule="nonzero" fill-opacity="1" /><polyline clip-path="url(#clip180)" style="stroke:#ac8d18; stroke-linecap:round; stroke-linejoin:round; stroke-width:4; stroke-opacity:1; fill:none" points="337.675,1882.59 478.262,1882.59 "/>
<path clip-path="url(#clip180)" d="M520.952 1883.44 L506.207 1883.44 Q506.554 1890.36 508.152 1893.3 Q510.142 1896.91 513.591 1896.91 Q517.064 1896.91 518.985 1893.28 Q520.675 1890.08 520.952 1883.44 M520.883 1879.5 Q520.235 1872.93 518.985 1870.61 Q516.994 1866.96 513.591 1866.96 Q510.05 1866.96 508.175 1870.57 Q506.693 1873.48 506.253 1879.5 L520.883 1879.5 M513.591 1863.48 Q519.147 1863.48 522.318 1868.39 Q525.489 1873.28 525.489 1881.93 Q525.489 1890.57 522.318 1895.47 Q519.147 1900.41 513.591 1900.41 Q508.013 1900.41 504.865 1895.47 Q501.693 1890.57 501.693 1881.93 Q501.693 1873.28 504.865 1868.39 Q508.013 1863.48 513.591 1863.48 Z" fill="#000000" fill-rule="nonzero" fill-opacity="1" /><path clip-path="url(#clip180)" d="M530.906 1885.36 L533.591 1885.36 L533.591 1899.87 L530.906 1899.87 L530.906 1885.36 M530.906 1879.71 L533.591 1879.71 L533.591 1882.72 L530.906 1882.72 L530.906 1879.71 Z" fill="#000000" fill-rule="nonzero" fill-opacity="1" /><path clip-path="url(#clip180)" d="M541.577 1878.35 L571.253 1878.35 L571.253 1882.23 L541.577 1882.23 L541.577 1878.35 M541.577 1887.79 L571.253 1887.79 L571.253 1891.72 L541.577 1891.72 L541.577 1887.79 Z" fill="#000000" fill-rule="nonzero" fill-opacity="1" /><path clip-path="url(#clip180)" d="M602.295 1884.22 L602.295 1899.87 L598.035 1899.87 L598.035 1884.36 Q598.035 1880.68 596.6 1878.85 Q595.165 1877.03 592.295 1877.03 Q588.846 1877.03 586.855 1879.22 Q584.864 1881.42 584.864 1885.22 L584.864 1899.87 L580.582 1899.87 L580.582 1863.85 L584.864 1863.85 L584.864 1877.97 Q586.392 1875.64 588.452 1874.48 Q590.535 1873.32 593.244 1873.32 Q597.711 1873.32 600.003 1876.1 Q602.295 1878.85 602.295 1884.22 Z" fill="#000000" fill-rule="nonzero" fill-opacity="1" /><polyline clip-path="url(#clip180)" style="stroke:#00a9ad; stroke-linecap:round; stroke-linejoin:round; stroke-width:4; stroke-opacity:1; fill:none" points="337.675,1934.43 478.262,1934.43 "/>
<path clip-path="url(#clip180)" d="M520.952 1935.28 L506.207 1935.28 Q506.554 1942.2 508.152 1945.14 Q510.142 1948.75 513.591 1948.75 Q517.064 1948.75 518.985 1945.12 Q520.675 1941.92 520.952 1935.28 M520.883 1931.34 Q520.235 1924.77 518.985 1922.45 Q516.994 1918.8 513.591 1918.8 Q510.05 1918.8 508.175 1922.41 Q506.693 1925.32 506.253 1931.34 L520.883 1931.34 M513.591 1915.32 Q519.147 1915.32 522.318 1920.23 Q525.489 1925.12 525.489 1933.77 Q525.489 1942.41 522.318 1947.31 Q519.147 1952.25 513.591 1952.25 Q508.013 1952.25 504.865 1947.31 Q501.693 1942.41 501.693 1933.77 Q501.693 1925.12 504.865 1920.23 Q508.013 1915.32 513.591 1915.32 Z" fill="#000000" fill-rule="nonzero" fill-opacity="1" /><path clip-path="url(#clip180)" d="M530.906 1937.2 L533.591 1937.2 L533.591 1951.71 L530.906 1951.71 L530.906 1937.2 M530.906 1931.55 L533.591 1931.55 L533.591 1934.56 L530.906 1934.56 L530.906 1931.55 Z" fill="#000000" fill-rule="nonzero" fill-opacity="1" /><path clip-path="url(#clip180)" d="M541.577 1930.19 L571.253 1930.19 L571.253 1934.07 L541.577 1934.07 L541.577 1930.19 M541.577 1939.63 L571.253 1939.63 L571.253 1943.56 L541.577 1943.56 L541.577 1939.63 Z" fill="#000000" fill-rule="nonzero" fill-opacity="1" /><path clip-path="url(#clip180)" d="M576.184 1917.15 L581.207 1917.15 L590.79 1931.37 L600.304 1917.15 L605.327 1917.15 L593.105 1935.25 L593.105 1951.71 L588.406 1951.71 L588.406 1935.25 L576.184 1917.15 Z" fill="#000000" fill-rule="nonzero" fill-opacity="1" /><path clip-path="url(#clip180)" d="M609.887 1917.15 L614.563 1917.15 L614.563 1931.32 L631.554 1931.32 L631.554 1917.15 L636.23 1917.15 L636.23 1951.71 L631.554 1951.71 L631.554 1935.25 L614.563 1935.25 L614.563 1951.71 L609.887 1951.71 L609.887 1917.15 Z" fill="#000000" fill-rule="nonzero" fill-opacity="1" /><path clip-path="url(#clip180)" d="M667.526 1937.69 L667.526 1939.77 L647.942 1939.77 Q648.22 1944.17 650.581 1946.48 Q652.966 1948.77 657.202 1948.77 Q659.655 1948.77 661.947 1948.17 Q664.262 1947.57 666.53 1946.37 L666.53 1950.39 Q664.239 1951.37 661.831 1951.87 Q659.424 1952.38 656.947 1952.38 Q650.743 1952.38 647.109 1948.77 Q643.498 1945.16 643.498 1939 Q643.498 1932.64 646.924 1928.91 Q650.373 1925.16 656.206 1925.16 Q661.438 1925.16 664.47 1928.54 Q667.526 1931.9 667.526 1937.69 M663.266 1936.44 Q663.22 1932.94 661.299 1930.86 Q659.401 1928.77 656.253 1928.77 Q652.688 1928.77 650.535 1930.79 Q648.405 1932.8 648.081 1936.46 L663.266 1936.44 Z" fill="#000000" fill-rule="nonzero" fill-opacity="1" /><polyline clip-path="url(#clip180)" style="stroke:#ed5d92; stroke-linecap:round; stroke-linejoin:round; stroke-width:4; stroke-opacity:1; fill:none" points="337.675,1986.27 478.262,1986.27 "/>
<path clip-path="url(#clip180)" d="M520.952 1987.12 L506.207 1987.12 Q506.554 1994.04 508.152 1996.98 Q510.142 2000.59 513.591 2000.59 Q517.064 2000.59 518.985 1996.96 Q520.675 1993.76 520.952 1987.12 M520.883 1983.18 Q520.235 1976.61 518.985 1974.29 Q516.994 1970.64 513.591 1970.64 Q510.05 1970.64 508.175 1974.25 Q506.693 1977.16 506.253 1983.18 L520.883 1983.18 M513.591 1967.16 Q519.147 1967.16 522.318 1972.07 Q525.489 1976.96 525.489 1985.61 Q525.489 1994.25 522.318 1999.15 Q519.147 2004.09 513.591 2004.09 Q508.013 2004.09 504.865 1999.15 Q501.693 1994.25 501.693 1985.61 Q501.693 1976.96 504.865 1972.07 Q508.013 1967.16 513.591 1967.16 Z" fill="#000000" fill-rule="nonzero" fill-opacity="1" /><path clip-path="url(#clip180)" d="M530.906 1989.04 L533.591 1989.04 L533.591 2003.55 L530.906 2003.55 L530.906 1989.04 M530.906 1983.39 L533.591 1983.39 L533.591 1986.4 L530.906 1986.4 L530.906 1983.39 Z" fill="#000000" fill-rule="nonzero" fill-opacity="1" /><path clip-path="url(#clip180)" d="M541.577 1982.03 L571.253 1982.03 L571.253 1985.91 L541.577 1985.91 L541.577 1982.03 M541.577 1991.47 L571.253 1991.47 L571.253 1995.4 L541.577 1995.4 L541.577 1991.47 Z" fill="#000000" fill-rule="nonzero" fill-opacity="1" /><path clip-path="url(#clip180)" d="M600.929 1982.6 Q602.526 1979.73 604.748 1978.37 Q606.97 1977 609.98 1977 Q614.031 1977 616.23 1979.85 Q618.429 1982.67 618.429 1987.9 L618.429 2003.55 L614.146 2003.55 L614.146 1988.04 Q614.146 1984.32 612.827 1982.51 Q611.507 1980.71 608.799 1980.71 Q605.489 1980.71 603.568 1982.9 Q601.646 1985.1 601.646 1988.9 L601.646 2003.55 L597.364 2003.55 L597.364 1988.04 Q597.364 1984.29 596.045 1982.51 Q594.725 1980.71 591.971 1980.71 Q588.707 1980.71 586.785 1982.93 Q584.864 1985.13 584.864 1988.9 L584.864 2003.55 L580.582 2003.55 L580.582 1977.63 L584.864 1977.63 L584.864 1981.65 Q586.322 1979.27 588.359 1978.14 Q590.396 1977 593.197 1977 Q596.021 1977 597.989 1978.44 Q599.98 1979.87 600.929 1982.6 Z" fill="#000000" fill-rule="nonzero" fill-opacity="1" /><path clip-path="url(#clip180)" d="M648.475 1987.9 L648.475 2003.55 L644.216 2003.55 L644.216 1988.04 Q644.216 1984.36 642.78 1982.53 Q641.345 1980.71 638.475 1980.71 Q635.026 1980.71 633.035 1982.9 Q631.044 1985.1 631.044 1988.9 L631.044 2003.55 L626.762 2003.55 L626.762 1967.53 L631.044 1967.53 L631.044 1981.65 Q632.572 1979.32 634.632 1978.16 Q636.716 1977 639.424 1977 Q643.892 1977 646.183 1979.78 Q648.475 1982.53 648.475 1987.9 Z" fill="#000000" fill-rule="nonzero" fill-opacity="1" /><polyline clip-path="url(#clip180)" style="stroke:#c68125; stroke-linecap:round; stroke-linejoin:round; stroke-width:4; stroke-opacity:1; fill:none" points="337.675,2038.11 478.262,2038.11 "/>
<path clip-path="url(#clip180)" d="M520.952 2038.96 L506.207 2038.96 Q506.554 2045.88 508.152 2048.82 Q510.142 2052.43 513.591 2052.43 Q517.064 2052.43 518.985 2048.8 Q520.675 2045.6 520.952 2038.96 M520.883 2035.02 Q520.235 2028.45 518.985 2026.13 Q516.994 2022.48 513.591 2022.48 Q510.05 2022.48 508.175 2026.09 Q506.693 2029 506.253 2035.02 L520.883 2035.02 M513.591 2019 Q519.147 2019 522.318 2023.91 Q525.489 2028.8 525.489 2037.45 Q525.489 2046.09 522.318 2050.99 Q519.147 2055.93 513.591 2055.93 Q508.013 2055.93 504.865 2050.99 Q501.693 2046.09 501.693 2037.45 Q501.693 2028.8 504.865 2023.91 Q508.013 2019 513.591 2019 Z" fill="#000000" fill-rule="nonzero" fill-opacity="1" /><path clip-path="url(#clip180)" d="M530.906 2040.88 L533.591 2040.88 L533.591 2055.39 L530.906 2055.39 L530.906 2040.88 M530.906 2035.23 L533.591 2035.23 L533.591 2038.24 L530.906 2038.24 L530.906 2035.23 Z" fill="#000000" fill-rule="nonzero" fill-opacity="1" /><path clip-path="url(#clip180)" d="M541.577 2033.87 L571.253 2033.87 L571.253 2037.75 L541.577 2037.75 L541.577 2033.87 M541.577 2043.31 L571.253 2043.31 L571.253 2047.24 L541.577 2047.24 L541.577 2043.31 Z" fill="#000000" fill-rule="nonzero" fill-opacity="1" /><path clip-path="url(#clip180)" d="M580.744 2019.37 L585.003 2019.37 L585.003 2055.39 L580.744 2055.39 L580.744 2019.37 Z" fill="#000000" fill-rule="nonzero" fill-opacity="1" /><path clip-path="url(#clip180)" d="M615.466 2039.74 L615.466 2055.39 L611.207 2055.39 L611.207 2039.88 Q611.207 2036.2 609.771 2034.37 Q608.336 2032.55 605.466 2032.55 Q602.017 2032.55 600.026 2034.74 Q598.035 2036.94 598.035 2040.74 L598.035 2055.39 L593.753 2055.39 L593.753 2029.47 L598.035 2029.47 L598.035 2033.49 Q599.563 2031.16 601.623 2030 Q603.707 2028.84 606.415 2028.84 Q610.882 2028.84 613.174 2031.62 Q615.466 2034.37 615.466 2039.74 Z" fill="#000000" fill-rule="nonzero" fill-opacity="1" /><path clip-path="url(#clip180)" d="M634.193 2019.42 Q631.091 2024.74 629.586 2029.95 Q628.081 2035.16 628.081 2040.51 Q628.081 2045.86 629.586 2051.11 Q631.114 2056.34 634.193 2061.64 L630.489 2061.64 Q627.017 2056.2 625.281 2050.95 Q623.568 2045.69 623.568 2040.51 Q623.568 2035.35 625.281 2030.12 Q626.993 2024.88 630.489 2019.42 L634.193 2019.42 Z" fill="#000000" fill-rule="nonzero" fill-opacity="1" /><path clip-path="url(#clip180)" d="M643.868 2051.46 L651.507 2051.46 L651.507 2025.09 L643.197 2026.76 L643.197 2022.5 L651.461 2020.83 L656.137 2020.83 L656.137 2051.46 L663.776 2051.46 L663.776 2055.39 L643.868 2055.39 L643.868 2051.46 Z" fill="#000000" fill-rule="nonzero" fill-opacity="1" /><path clip-path="url(#clip180)" d="M683.22 2023.91 Q679.609 2023.91 677.78 2027.48 Q675.975 2031.02 675.975 2038.15 Q675.975 2045.25 677.78 2048.82 Q679.609 2052.36 683.22 2052.36 Q686.854 2052.36 688.66 2048.82 Q690.489 2045.25 690.489 2038.15 Q690.489 2031.02 688.66 2027.48 Q686.854 2023.91 683.22 2023.91 M683.22 2020.21 Q689.03 2020.21 692.086 2024.81 Q695.164 2029.4 695.164 2038.15 Q695.164 2046.87 692.086 2051.48 Q689.03 2056.06 683.22 2056.06 Q677.41 2056.06 674.331 2051.48 Q671.276 2046.87 671.276 2038.15 Q671.276 2029.4 674.331 2024.81 Q677.41 2020.21 683.22 2020.21 Z" fill="#000000" fill-rule="nonzero" fill-opacity="1" /><path clip-path="url(#clip180)" d="M701.924 2037.38 L706.646 2037.38 L706.646 2023.24 L701.484 2024.19 L701.484 2021.5 L706.808 2020.6 L709.979 2020.6 L709.979 2037.38 L714.725 2037.38 L714.725 2039.93 L701.924 2039.93 L701.924 2037.38 Z" fill="#000000" fill-rule="nonzero" fill-opacity="1" /><path clip-path="url(#clip180)" d="M730.511 2024.26 Q729.354 2022.27 727.016 2022.27 Q724.678 2022.27 723.521 2024.26 Q722.34 2026.25 722.34 2030.23 Q722.34 2034.24 723.521 2036.23 Q724.678 2038.22 727.016 2038.22 Q729.354 2038.22 730.511 2036.23 Q731.692 2034.24 731.692 2030.23 Q731.692 2026.25 730.511 2024.26 M727.016 2020.21 Q730.743 2020.21 732.711 2022.78 Q734.678 2025.35 734.678 2030.23 Q734.678 2035.14 732.711 2037.71 Q730.743 2040.28 727.016 2040.28 Q723.266 2040.28 721.299 2037.71 Q719.331 2035.14 719.331 2030.23 Q719.331 2025.35 721.299 2022.78 Q723.266 2020.21 727.016 2020.21 Z" fill="#000000" fill-rule="nonzero" fill-opacity="1" /><path clip-path="url(#clip180)" d="M752.525 2025.44 L746.183 2042.64 L758.891 2042.64 L752.525 2025.44 M749.886 2020.83 L755.187 2020.83 L768.358 2055.39 L763.497 2055.39 L760.349 2046.53 L744.771 2046.53 L741.623 2055.39 L736.692 2055.39 L749.886 2020.83 Z" fill="#000000" fill-rule="nonzero" fill-opacity="1" /><path clip-path="url(#clip180)" d="M789.747 2030.23 L789.747 2034.26 Q787.942 2033.33 785.997 2032.87 Q784.053 2032.41 781.97 2032.41 Q778.798 2032.41 777.201 2033.38 Q775.627 2034.35 775.627 2036.3 Q775.627 2037.78 776.761 2038.63 Q777.895 2039.47 781.321 2040.23 L782.78 2040.55 Q787.317 2041.53 789.215 2043.31 Q791.136 2045.07 791.136 2048.24 Q791.136 2051.85 788.266 2053.96 Q785.419 2056.06 780.419 2056.06 Q778.335 2056.06 776.067 2055.65 Q773.821 2055.25 771.321 2054.44 L771.321 2050.05 Q773.683 2051.27 775.974 2051.9 Q778.266 2052.5 780.511 2052.5 Q783.52 2052.5 785.141 2051.48 Q786.761 2050.44 786.761 2048.56 Q786.761 2046.83 785.581 2045.9 Q784.423 2044.98 780.465 2044.12 L778.983 2043.77 Q775.025 2042.94 773.266 2041.23 Q771.507 2039.49 771.507 2036.48 Q771.507 2032.82 774.099 2030.83 Q776.692 2028.84 781.46 2028.84 Q783.821 2028.84 785.905 2029.19 Q787.988 2029.54 789.747 2030.23 Z" fill="#000000" fill-rule="nonzero" fill-opacity="1" /><path clip-path="url(#clip180)" d="M797.247 2019.42 L800.951 2019.42 Q804.423 2024.88 806.136 2030.12 Q807.872 2035.35 807.872 2040.51 Q807.872 2045.69 806.136 2050.95 Q804.423 2056.2 800.951 2061.64 L797.247 2061.64 Q800.326 2056.34 801.831 2051.11 Q803.358 2045.86 803.358 2040.51 Q803.358 2035.16 801.831 2029.95 Q800.326 2024.74 797.247 2019.42 Z" fill="#000000" fill-rule="nonzero" fill-opacity="1" /><polyline clip-path="url(#clip180)" style="stroke:#00a98d; stroke-linecap:round; stroke-linejoin:round; stroke-width:4; stroke-opacity:1; fill:none" points="337.675,2089.95 478.262,2089.95 "/>
<path clip-path="url(#clip180)" d="M520.952 2090.8 L506.207 2090.8 Q506.554 2097.72 508.152 2100.66 Q510.142 2104.27 513.591 2104.27 Q517.064 2104.27 518.985 2100.64 Q520.675 2097.44 520.952 2090.8 M520.883 2086.86 Q520.235 2080.29 518.985 2077.97 Q516.994 2074.32 513.591 2074.32 Q510.05 2074.32 508.175 2077.93 Q506.693 2080.84 506.253 2086.86 L520.883 2086.86 M513.591 2070.84 Q519.147 2070.84 522.318 2075.75 Q525.489 2080.64 525.489 2089.29 Q525.489 2097.93 522.318 2102.83 Q519.147 2107.77 513.591 2107.77 Q508.013 2107.77 504.865 2102.83 Q501.693 2097.93 501.693 2089.29 Q501.693 2080.64 504.865 2075.75 Q508.013 2070.84 513.591 2070.84 Z" fill="#000000" fill-rule="nonzero" fill-opacity="1" /><path clip-path="url(#clip180)" d="M530.906 2092.72 L533.591 2092.72 L533.591 2107.23 L530.906 2107.23 L530.906 2092.72 M530.906 2087.07 L533.591 2087.07 L533.591 2090.08 L530.906 2090.08 L530.906 2087.07 Z" fill="#000000" fill-rule="nonzero" fill-opacity="1" /><path clip-path="url(#clip180)" d="M541.577 2085.71 L571.253 2085.71 L571.253 2089.59 L541.577 2089.59 L541.577 2085.71 M541.577 2095.15 L571.253 2095.15 L571.253 2099.08 L541.577 2099.08 L541.577 2095.15 Z" fill="#000000" fill-rule="nonzero" fill-opacity="1" /><path clip-path="url(#clip180)" d="M602.295 2091.58 L602.295 2107.23 L598.035 2107.23 L598.035 2091.72 Q598.035 2088.04 596.6 2086.21 Q595.165 2084.39 592.295 2084.39 Q588.846 2084.39 586.855 2086.58 Q584.864 2088.78 584.864 2092.58 L584.864 2107.23 L580.582 2107.23 L580.582 2081.31 L584.864 2081.31 L584.864 2085.33 Q586.392 2083 588.452 2081.84 Q590.535 2080.68 593.244 2080.68 Q597.711 2080.68 600.003 2083.46 Q602.295 2086.21 602.295 2091.58 Z" fill="#000000" fill-rule="nonzero" fill-opacity="1" /><path clip-path="url(#clip180)" d="M627.318 2082.07 L627.318 2086.1 Q625.512 2085.17 623.568 2084.71 Q621.623 2084.25 619.54 2084.25 Q616.369 2084.25 614.771 2085.22 Q613.197 2086.19 613.197 2088.14 Q613.197 2089.62 614.332 2090.47 Q615.466 2091.31 618.892 2092.07 L620.35 2092.39 Q624.887 2093.37 626.785 2095.15 Q628.706 2096.91 628.706 2100.08 Q628.706 2103.69 625.836 2105.8 Q622.989 2107.9 617.989 2107.9 Q615.906 2107.9 613.637 2107.49 Q611.392 2107.09 608.892 2106.28 L608.892 2101.89 Q611.253 2103.11 613.544 2103.74 Q615.836 2104.34 618.082 2104.34 Q621.091 2104.34 622.711 2103.32 Q624.331 2102.28 624.331 2100.4 Q624.331 2098.67 623.151 2097.74 Q621.994 2096.82 618.035 2095.96 L616.554 2095.61 Q612.595 2094.78 610.836 2093.07 Q609.077 2091.33 609.077 2088.32 Q609.077 2084.66 611.67 2082.67 Q614.262 2080.68 619.031 2080.68 Q621.392 2080.68 623.475 2081.03 Q625.558 2081.38 627.318 2082.07 Z" fill="#000000" fill-rule="nonzero" fill-opacity="1" /></svg>
