<?xml version="1.0" encoding="utf-8"?>
<svg xmlns="http://www.w3.org/2000/svg" xmlns:xlink="http://www.w3.org/1999/xlink" width="600" height="400" viewBox="0 0 2400 1600">
<defs>
  <clipPath id="clip510">
    <rect x="0" y="0" width="2400" height="1600"/>
  </clipPath>
</defs>
<path clip-path="url(#clip510)" d="M0 1600 L2400 1600 L2400 0 L0 0  Z" fill="#ffffff" fill-rule="evenodd" fill-opacity="1"/>
<defs>
  <clipPath id="clip511">
    <rect x="257" y="47" width="2096" height="1377"/>
  </clipPath>
</defs>
<path clip-path="url(#clip510)" d="M257.366 1423.18 L2352.76 1423.18 L2352.76 47.2441 L257.366 47.2441  Z" fill="#ffffff" fill-rule="evenodd" fill-opacity="1"/>
<polyline clip-path="url(#clip511)" style="stroke:#000000; stroke-linecap:round; stroke-linejoin:round; stroke-width:2; stroke-opacity:0.1; fill:none" points="316.67,1423.18 316.67,47.2441 "/>
<polyline clip-path="url(#clip511)" style="stroke:#000000; stroke-linecap:round; stroke-linejoin:round; stroke-width:2; stroke-opacity:0.1; fill:none" points="975.597,1423.18 975.597,47.2441 "/>
<polyline clip-path="url(#clip511)" style="stroke:#000000; stroke-linecap:round; stroke-linejoin:round; stroke-width:2; stroke-opacity:0.1; fill:none" points="1634.52,1423.18 1634.52,47.2441 "/>
<polyline clip-path="url(#clip511)" style="stroke:#000000; stroke-linecap:round; stroke-linejoin:round; stroke-width:2; stroke-opacity:0.1; fill:none" points="2293.45,1423.18 2293.45,47.2441 "/>
<polyline clip-path="url(#clip511)" style="stroke:#000000; stroke-linecap:round; stroke-linejoin:round; stroke-width:2; stroke-opacity:0.1; fill:none" points="257.366,1187.89 2352.76,1187.89 "/>
<polyline clip-path="url(#clip511)" style="stroke:#000000; stroke-linecap:round; stroke-linejoin:round; stroke-width:2; stroke-opacity:0.1; fill:none" points="257.366,950.323 2352.76,950.323 "/>
<polyline clip-path="url(#clip511)" style="stroke:#000000; stroke-linecap:round; stroke-linejoin:round; stroke-width:2; stroke-opacity:0.1; fill:none" points="257.366,712.759 2352.76,712.759 "/>
<polyline clip-path="url(#clip511)" style="stroke:#000000; stroke-linecap:round; stroke-linejoin:round; stroke-width:2; stroke-opacity:0.1; fill:none" points="257.366,475.196 2352.76,475.196 "/>
<polyline clip-path="url(#clip511)" style="stroke:#000000; stroke-linecap:round; stroke-linejoin:round; stroke-width:2; stroke-opacity:0.1; fill:none" points="257.366,237.633 2352.76,237.633 "/>
<polyline clip-path="url(#clip510)" style="stroke:#000000; stroke-linecap:round; stroke-linejoin:round; stroke-width:4; stroke-opacity:1; fill:none" points="257.366,1423.18 2352.76,1423.18 "/>
<polyline clip-path="url(#clip510)" style="stroke:#000000; stroke-linecap:round; stroke-linejoin:round; stroke-width:4; stroke-opacity:1; fill:none" points="316.67,1423.18 316.67,1404.28 "/>
<polyline clip-path="url(#clip510)" style="stroke:#000000; stroke-linecap:round; stroke-linejoin:round; stroke-width:4; stroke-opacity:1; fill:none" points="975.597,1423.18 975.597,1404.28 "/>
<polyline clip-path="url(#clip510)" style="stroke:#000000; stroke-linecap:round; stroke-linejoin:round; stroke-width:4; stroke-opacity:1; fill:none" points="1634.52,1423.18 1634.52,1404.28 "/>
<polyline clip-path="url(#clip510)" style="stroke:#000000; stroke-linecap:round; stroke-linejoin:round; stroke-width:4; stroke-opacity:1; fill:none" points="2293.45,1423.18 2293.45,1404.28 "/>
<path clip-path="url(#clip510)" d="M316.67 1454.1 Q313.058 1454.1 311.23 1457.66 Q309.424 1461.2 309.424 1468.33 Q309.424 1475.44 311.23 1479.01 Q313.058 1482.55 316.67 1482.55 Q320.304 1482.55 322.109 1479.01 Q323.938 1475.44 323.938 1468.33 Q323.938 1461.2 322.109 1457.66 Q320.304 1454.1 316.67 1454.1 M316.67 1450.39 Q322.48 1450.39 325.535 1455 Q328.614 1459.58 328.614 1468.33 Q328.614 1477.06 325.535 1481.67 Q322.48 1486.25 316.67 1486.25 Q310.859 1486.25 307.781 1481.67 Q304.725 1477.06 304.725 1468.33 Q304.725 1459.58 307.781 1455 Q310.859 1450.39 316.67 1450.39 Z" fill="#000000" fill-rule="nonzero" fill-opacity="1" /><path clip-path="url(#clip510)" d="M965.979 1481.64 L973.618 1481.64 L973.618 1455.28 L965.308 1456.95 L965.308 1452.69 L973.572 1451.02 L978.248 1451.02 L978.248 1481.64 L985.886 1481.64 L985.886 1485.58 L965.979 1485.58 L965.979 1481.64 Z" fill="#000000" fill-rule="nonzero" fill-opacity="1" /><path clip-path="url(#clip510)" d="M1629.18 1481.64 L1645.5 1481.64 L1645.5 1485.58 L1623.55 1485.58 L1623.55 1481.64 Q1626.21 1478.89 1630.8 1474.26 Q1635.4 1469.61 1636.58 1468.27 Q1638.83 1465.74 1639.71 1464.01 Q1640.61 1462.25 1640.61 1460.56 Q1640.61 1457.8 1638.67 1456.07 Q1636.75 1454.33 1633.65 1454.33 Q1631.45 1454.33 1628.99 1455.09 Q1626.56 1455.86 1623.78 1457.41 L1623.78 1452.69 Q1626.61 1451.55 1629.06 1450.97 Q1631.52 1450.39 1633.55 1450.39 Q1638.92 1450.39 1642.12 1453.08 Q1645.31 1455.77 1645.31 1460.26 Q1645.31 1462.39 1644.5 1464.31 Q1643.71 1466.2 1641.61 1468.8 Q1641.03 1469.47 1637.93 1472.69 Q1634.83 1475.88 1629.18 1481.64 Z" fill="#000000" fill-rule="nonzero" fill-opacity="1" /><path clip-path="url(#clip510)" d="M2297.7 1466.95 Q2301.06 1467.66 2302.93 1469.93 Q2304.83 1472.2 2304.83 1475.53 Q2304.83 1480.65 2301.31 1483.45 Q2297.79 1486.25 2291.31 1486.25 Q2289.14 1486.25 2286.82 1485.81 Q2284.53 1485.39 2282.08 1484.54 L2282.08 1480.02 Q2284.02 1481.16 2286.33 1481.74 Q2288.65 1482.32 2291.17 1482.32 Q2295.57 1482.32 2297.86 1480.58 Q2300.18 1478.84 2300.18 1475.53 Q2300.18 1472.48 2298.02 1470.77 Q2295.89 1469.03 2292.08 1469.03 L2288.05 1469.03 L2288.05 1465.19 L2292.26 1465.19 Q2295.71 1465.19 2297.54 1463.82 Q2299.37 1462.43 2299.37 1459.84 Q2299.37 1457.18 2297.47 1455.77 Q2295.59 1454.33 2292.08 1454.33 Q2290.15 1454.33 2287.95 1454.75 Q2285.76 1455.16 2283.12 1456.04 L2283.12 1451.88 Q2285.78 1451.14 2288.09 1450.77 Q2290.43 1450.39 2292.49 1450.39 Q2297.82 1450.39 2300.92 1452.83 Q2304.02 1455.23 2304.02 1459.35 Q2304.02 1462.22 2302.38 1464.21 Q2300.73 1466.18 2297.7 1466.95 Z" fill="#000000" fill-rule="nonzero" fill-opacity="1" /><path clip-path="url(#clip510)" d="M1168.34 1518.52 L1174.23 1518.52 L1174.23 1547.77 L1191.7 1532.4 L1199.18 1532.4 L1180.28 1549.07 L1199.98 1568.04 L1192.34 1568.04 L1174.23 1550.63 L1174.23 1568.04 L1168.34 1568.04 L1168.34 1518.52 Z" fill="#000000" fill-rule="nonzero" fill-opacity="1" /><path clip-path="url(#clip510)" d="M1237.44 1520.52 L1242.85 1520.52 L1226.3 1574.09 L1220.89 1574.09 L1237.44 1520.52 Z" fill="#000000" fill-rule="nonzero" fill-opacity="1" /><path clip-path="url(#clip510)" d="M1283.78 1518.58 Q1279.52 1525.9 1277.45 1533.06 Q1275.38 1540.23 1275.38 1547.58 Q1275.38 1554.93 1277.45 1562.16 Q1279.55 1569.35 1283.78 1576.64 L1278.69 1576.64 Q1273.92 1569.16 1271.53 1561.93 Q1269.17 1554.71 1269.17 1547.58 Q1269.17 1540.48 1271.53 1533.29 Q1273.88 1526.09 1278.69 1518.58 L1283.78 1518.58 Z" fill="#000000" fill-rule="nonzero" fill-opacity="1" /><path clip-path="url(#clip510)" d="M1295.4 1520.52 L1301.83 1520.52 L1301.83 1540 L1325.19 1540 L1325.19 1520.52 L1331.62 1520.52 L1331.62 1568.04 L1325.19 1568.04 L1325.19 1545.41 L1301.83 1545.41 L1301.83 1568.04 L1295.4 1568.04 L1295.4 1520.52 Z" fill="#000000" fill-rule="nonzero" fill-opacity="1" /><path clip-path="url(#clip510)" d="M1356.16 1546.5 Q1354.57 1543.76 1351.36 1543.76 Q1348.14 1543.76 1346.55 1546.5 Q1344.93 1549.23 1344.93 1554.71 Q1344.93 1560.21 1346.55 1562.95 Q1348.14 1565.69 1351.36 1565.69 Q1354.57 1565.69 1356.16 1562.95 Q1357.78 1560.21 1357.78 1554.71 Q1357.78 1549.23 1356.16 1546.5 M1351.36 1540.93 Q1356.48 1540.93 1359.19 1544.46 Q1361.89 1547.99 1361.89 1554.71 Q1361.89 1561.46 1359.19 1564.99 Q1356.48 1568.52 1351.36 1568.52 Q1346.2 1568.52 1343.49 1564.99 Q1340.79 1561.46 1340.79 1554.71 Q1340.79 1547.99 1343.49 1544.46 Q1346.2 1540.93 1351.36 1540.93 Z" fill="#000000" fill-rule="nonzero" fill-opacity="1" /><path clip-path="url(#clip510)" d="M1380.7 1520.52 L1386.11 1520.52 L1369.56 1574.09 L1364.15 1574.09 L1380.7 1520.52 Z" fill="#000000" fill-rule="nonzero" fill-opacity="1" /><path clip-path="url(#clip510)" d="M1417.91 1533.76 L1417.91 1539.24 Q1415.43 1537.87 1412.91 1537.2 Q1410.43 1536.5 1407.88 1536.5 Q1402.19 1536.5 1399.03 1540.13 Q1395.88 1543.73 1395.88 1550.25 Q1395.88 1556.78 1399.03 1560.4 Q1402.19 1564 1407.88 1564 Q1410.43 1564 1412.91 1563.33 Q1415.43 1562.63 1417.91 1561.26 L1417.91 1566.68 Q1415.46 1567.82 1412.82 1568.39 Q1410.21 1568.97 1407.25 1568.97 Q1399.19 1568.97 1394.45 1563.91 Q1389.71 1558.85 1389.71 1550.25 Q1389.71 1541.53 1394.48 1536.53 Q1399.29 1531.54 1407.63 1531.54 Q1410.33 1531.54 1412.91 1532.11 Q1415.49 1532.65 1417.91 1533.76 Z" fill="#000000" fill-rule="nonzero" fill-opacity="1" /><path clip-path="url(#clip510)" d="M1427.17 1518.58 L1432.26 1518.58 Q1437.04 1526.09 1439.39 1533.29 Q1441.78 1540.48 1441.78 1547.58 Q1441.78 1554.71 1439.39 1561.93 Q1437.04 1569.16 1432.26 1576.64 L1427.17 1576.64 Q1431.4 1569.35 1433.47 1562.16 Q1435.57 1554.93 1435.57 1547.58 Q1435.57 1540.23 1433.47 1533.06 Q1431.4 1525.9 1427.17 1518.58 Z" fill="#000000" fill-rule="nonzero" fill-opacity="1" /><polyline clip-path="url(#clip510)" style="stroke:#000000; stroke-linecap:round; stroke-linejoin:round; stroke-width:4; stroke-opacity:1; fill:none" points="257.366,1423.18 257.366,47.2441 "/>
<polyline clip-path="url(#clip510)" style="stroke:#000000; stroke-linecap:round; stroke-linejoin:round; stroke-width:4; stroke-opacity:1; fill:none" points="257.366,1187.89 276.264,1187.89 "/>
<polyline clip-path="url(#clip510)" style="stroke:#000000; stroke-linecap:round; stroke-linejoin:round; stroke-width:4; stroke-opacity:1; fill:none" points="257.366,950.323 276.264,950.323 "/>
<polyline clip-path="url(#clip510)" style="stroke:#000000; stroke-linecap:round; stroke-linejoin:round; stroke-width:4; stroke-opacity:1; fill:none" points="257.366,712.759 276.264,712.759 "/>
<polyline clip-path="url(#clip510)" style="stroke:#000000; stroke-linecap:round; stroke-linejoin:round; stroke-width:4; stroke-opacity:1; fill:none" points="257.366,475.196 276.264,475.196 "/>
<polyline clip-path="url(#clip510)" style="stroke:#000000; stroke-linecap:round; stroke-linejoin:round; stroke-width:4; stroke-opacity:1; fill:none" points="257.366,237.633 276.264,237.633 "/>
<path clip-path="url(#clip510)" d="M115.418 1188.34 L145.093 1188.34 L145.093 1192.27 L115.418 1192.27 L115.418 1188.34 Z" fill="#000000" fill-rule="nonzero" fill-opacity="1" /><path clip-path="url(#clip510)" d="M154.005 1170.61 L176.227 1170.61 L176.227 1172.6 L163.681 1205.17 L158.797 1205.17 L170.602 1174.54 L154.005 1174.54 L154.005 1170.61 Z" fill="#000000" fill-rule="nonzero" fill-opacity="1" /><path clip-path="url(#clip510)" d="M185.348 1199.29 L190.232 1199.29 L190.232 1205.17 L185.348 1205.17 L185.348 1199.29 Z" fill="#000000" fill-rule="nonzero" fill-opacity="1" /><path clip-path="url(#clip510)" d="M200.463 1170.61 L218.82 1170.61 L218.82 1174.54 L204.746 1174.54 L204.746 1183.01 Q205.764 1182.67 206.783 1182.5 Q207.801 1182.32 208.82 1182.32 Q214.607 1182.32 217.986 1185.49 Q221.366 1188.66 221.366 1194.08 Q221.366 1199.66 217.894 1202.76 Q214.422 1205.84 208.102 1205.84 Q205.926 1205.84 203.658 1205.47 Q201.412 1205.1 199.005 1204.36 L199.005 1199.66 Q201.088 1200.79 203.311 1201.35 Q205.533 1201.9 208.01 1201.9 Q212.014 1201.9 214.352 1199.8 Q216.69 1197.69 216.69 1194.08 Q216.69 1190.47 214.352 1188.36 Q212.014 1186.25 208.01 1186.25 Q206.135 1186.25 204.26 1186.67 Q202.408 1187.09 200.463 1187.97 L200.463 1170.61 Z" fill="#000000" fill-rule="nonzero" fill-opacity="1" /><path clip-path="url(#clip510)" d="M116.019 950.774 L145.695 950.774 L145.695 954.709 L116.019 954.709 L116.019 950.774 Z" fill="#000000" fill-rule="nonzero" fill-opacity="1" /><path clip-path="url(#clip510)" d="M154.607 933.043 L176.829 933.043 L176.829 935.033 L164.283 967.603 L159.399 967.603 L171.204 936.978 L154.607 936.978 L154.607 933.043 Z" fill="#000000" fill-rule="nonzero" fill-opacity="1" /><path clip-path="url(#clip510)" d="M185.95 961.723 L190.834 961.723 L190.834 967.603 L185.95 967.603 L185.95 961.723 Z" fill="#000000" fill-rule="nonzero" fill-opacity="1" /><path clip-path="url(#clip510)" d="M205.047 963.668 L221.366 963.668 L221.366 967.603 L199.422 967.603 L199.422 963.668 Q202.084 960.913 206.667 956.283 Q211.274 951.631 212.454 950.288 Q214.699 947.765 215.579 946.029 Q216.482 944.27 216.482 942.58 Q216.482 939.825 214.537 938.089 Q212.616 936.353 209.514 936.353 Q207.315 936.353 204.862 937.117 Q202.431 937.881 199.653 939.432 L199.653 934.709 Q202.477 933.575 204.931 932.996 Q207.385 932.418 209.422 932.418 Q214.792 932.418 217.986 935.103 Q221.181 937.788 221.181 942.279 Q221.181 944.408 220.371 946.33 Q219.584 948.228 217.477 950.82 Q216.898 951.492 213.797 954.709 Q210.695 957.904 205.047 963.668 Z" fill="#000000" fill-rule="nonzero" fill-opacity="1" /><path clip-path="url(#clip510)" d="M114.607 713.211 L144.283 713.211 L144.283 717.146 L114.607 717.146 L114.607 713.211 Z" fill="#000000" fill-rule="nonzero" fill-opacity="1" /><path clip-path="url(#clip510)" d="M164.954 710.896 Q161.806 710.896 159.954 713.049 Q158.126 715.201 158.126 718.951 Q158.126 722.678 159.954 724.854 Q161.806 727.007 164.954 727.007 Q168.102 727.007 169.931 724.854 Q171.783 722.678 171.783 718.951 Q171.783 715.201 169.931 713.049 Q168.102 710.896 164.954 710.896 M174.237 696.243 L174.237 700.502 Q172.477 699.669 170.672 699.229 Q168.889 698.79 167.13 698.79 Q162.501 698.79 160.047 701.914 Q157.616 705.039 157.269 711.359 Q158.635 709.345 160.695 708.28 Q162.755 707.192 165.232 707.192 Q170.44 707.192 173.45 710.364 Q176.482 713.512 176.482 718.951 Q176.482 724.275 173.334 727.493 Q170.186 730.711 164.954 730.711 Q158.959 730.711 155.788 726.127 Q152.616 721.521 152.616 712.794 Q152.616 704.6 156.505 699.739 Q160.394 694.854 166.945 694.854 Q168.704 694.854 170.487 695.202 Q172.292 695.549 174.237 696.243 Z" fill="#000000" fill-rule="nonzero" fill-opacity="1" /><path clip-path="url(#clip510)" d="M184.538 724.16 L189.422 724.16 L189.422 730.039 L184.538 730.039 L184.538 724.16 Z" fill="#000000" fill-rule="nonzero" fill-opacity="1" /><path clip-path="url(#clip510)" d="M199.746 729.322 L199.746 725.063 Q201.505 725.896 203.311 726.336 Q205.116 726.775 206.852 726.775 Q211.482 726.775 213.912 723.674 Q216.366 720.549 216.713 714.206 Q215.371 716.197 213.311 717.262 Q211.25 718.326 208.75 718.326 Q203.565 718.326 200.533 715.201 Q197.524 712.053 197.524 706.614 Q197.524 701.289 200.672 698.072 Q203.82 694.854 209.051 694.854 Q215.047 694.854 218.195 699.461 Q221.366 704.044 221.366 712.794 Q221.366 720.965 217.477 725.85 Q213.611 730.711 207.061 730.711 Q205.301 730.711 203.496 730.363 Q201.69 730.016 199.746 729.322 M209.051 714.669 Q212.199 714.669 214.028 712.516 Q215.88 710.364 215.88 706.614 Q215.88 702.887 214.028 700.734 Q212.199 698.558 209.051 698.558 Q205.903 698.558 204.051 700.734 Q202.223 702.887 202.223 706.614 Q202.223 710.364 204.051 712.516 Q205.903 714.669 209.051 714.669 Z" fill="#000000" fill-rule="nonzero" fill-opacity="1" /><path clip-path="url(#clip510)" d="M114.26 475.647 L143.936 475.647 L143.936 479.582 L114.26 479.582 L114.26 475.647 Z" fill="#000000" fill-rule="nonzero" fill-opacity="1" /><path clip-path="url(#clip510)" d="M164.607 473.333 Q161.459 473.333 159.607 475.485 Q157.778 477.638 157.778 481.388 Q157.778 485.115 159.607 487.291 Q161.459 489.444 164.607 489.444 Q167.755 489.444 169.584 487.291 Q171.436 485.115 171.436 481.388 Q171.436 477.638 169.584 475.485 Q167.755 473.333 164.607 473.333 M173.889 458.68 L173.889 462.939 Q172.13 462.106 170.325 461.666 Q168.542 461.226 166.783 461.226 Q162.153 461.226 159.7 464.351 Q157.269 467.476 156.922 473.795 Q158.288 471.782 160.348 470.717 Q162.408 469.629 164.885 469.629 Q170.093 469.629 173.102 472.8 Q176.135 475.948 176.135 481.388 Q176.135 486.712 172.987 489.93 Q169.839 493.147 164.607 493.147 Q158.612 493.147 155.44 488.564 Q152.269 483.957 152.269 475.231 Q152.269 467.036 156.158 462.175 Q160.047 457.291 166.598 457.291 Q168.357 457.291 170.139 457.638 Q171.945 457.985 173.889 458.68 Z" fill="#000000" fill-rule="nonzero" fill-opacity="1" /><path clip-path="url(#clip510)" d="M184.19 486.596 L189.075 486.596 L189.075 492.476 L184.19 492.476 L184.19 486.596 Z" fill="#000000" fill-rule="nonzero" fill-opacity="1" /><path clip-path="url(#clip510)" d="M209.838 473.333 Q206.69 473.333 204.838 475.485 Q203.01 477.638 203.01 481.388 Q203.01 485.115 204.838 487.291 Q206.69 489.444 209.838 489.444 Q212.986 489.444 214.815 487.291 Q216.667 485.115 216.667 481.388 Q216.667 477.638 214.815 475.485 Q212.986 473.333 209.838 473.333 M219.121 458.68 L219.121 462.939 Q217.361 462.106 215.556 461.666 Q213.774 461.226 212.014 461.226 Q207.385 461.226 204.931 464.351 Q202.5 467.476 202.153 473.795 Q203.519 471.782 205.579 470.717 Q207.639 469.629 210.116 469.629 Q215.324 469.629 218.334 472.8 Q221.366 475.948 221.366 481.388 Q221.366 486.712 218.218 489.93 Q215.07 493.147 209.838 493.147 Q203.843 493.147 200.672 488.564 Q197.5 483.957 197.5 475.231 Q197.5 467.036 201.389 462.175 Q205.278 457.291 211.829 457.291 Q213.588 457.291 215.371 457.638 Q217.176 457.985 219.121 458.68 Z" fill="#000000" fill-rule="nonzero" fill-opacity="1" /><path clip-path="url(#clip510)" d="M115.07 238.084 L144.746 238.084 L144.746 242.019 L115.07 242.019 L115.07 238.084 Z" fill="#000000" fill-rule="nonzero" fill-opacity="1" /><path clip-path="url(#clip510)" d="M165.417 235.769 Q162.269 235.769 160.417 237.922 Q158.589 240.075 158.589 243.825 Q158.589 247.551 160.417 249.727 Q162.269 251.88 165.417 251.88 Q168.565 251.88 170.394 249.727 Q172.246 247.551 172.246 243.825 Q172.246 240.075 170.394 237.922 Q168.565 235.769 165.417 235.769 M174.7 221.116 L174.7 225.376 Q172.94 224.542 171.135 224.103 Q169.352 223.663 167.593 223.663 Q162.964 223.663 160.51 226.788 Q158.079 229.913 157.732 236.232 Q159.098 234.218 161.158 233.153 Q163.218 232.065 165.695 232.065 Q170.903 232.065 173.913 235.237 Q176.945 238.385 176.945 243.825 Q176.945 249.149 173.797 252.366 Q170.649 255.584 165.417 255.584 Q159.422 255.584 156.251 251.001 Q153.079 246.394 153.079 237.667 Q153.079 229.473 156.968 224.612 Q160.857 219.728 167.408 219.728 Q169.167 219.728 170.95 220.075 Q172.755 220.422 174.7 221.116 Z" fill="#000000" fill-rule="nonzero" fill-opacity="1" /><path clip-path="url(#clip510)" d="M185.001 249.033 L189.885 249.033 L189.885 254.913 L185.001 254.913 L185.001 249.033 Z" fill="#000000" fill-rule="nonzero" fill-opacity="1" /><path clip-path="url(#clip510)" d="M214.236 236.278 Q217.593 236.996 219.468 239.264 Q221.366 241.533 221.366 244.866 Q221.366 249.982 217.848 252.783 Q214.329 255.584 207.848 255.584 Q205.672 255.584 203.357 255.144 Q201.065 254.727 198.612 253.871 L198.612 249.357 Q200.556 250.491 202.871 251.07 Q205.186 251.649 207.709 251.649 Q212.107 251.649 214.399 249.913 Q216.713 248.176 216.713 244.866 Q216.713 241.811 214.561 240.098 Q212.431 238.362 208.612 238.362 L204.584 238.362 L204.584 234.519 L208.797 234.519 Q212.246 234.519 214.074 233.153 Q215.903 231.765 215.903 229.172 Q215.903 226.51 214.005 225.098 Q212.13 223.663 208.612 223.663 Q206.69 223.663 204.491 224.079 Q202.292 224.496 199.653 225.376 L199.653 221.209 Q202.315 220.468 204.63 220.098 Q206.968 219.728 209.028 219.728 Q214.352 219.728 217.454 222.158 Q220.556 224.566 220.556 228.686 Q220.556 231.556 218.912 233.547 Q217.269 235.515 214.236 236.278 Z" fill="#000000" fill-rule="nonzero" fill-opacity="1" /><path clip-path="url(#clip510)" d="M21.7677 880.255 L39.6235 880.255 L39.6235 872.17 Q39.6235 867.682 37.3 865.232 Q34.9765 862.781 30.6797 862.781 Q26.4147 862.781 24.0912 865.232 Q21.7677 867.682 21.7677 872.17 L21.7677 880.255 M16.4842 886.684 L16.4842 872.17 Q16.4842 864.181 20.1126 860.107 Q23.7092 856.001 30.6797 856.001 Q37.7138 856.001 41.3104 860.107 Q44.907 864.181 44.907 872.17 L44.907 880.255 L64.0042 880.255 L64.0042 886.684 L16.4842 886.684 Z" fill="#000000" fill-rule="nonzero" fill-opacity="1" /><path clip-path="url(#clip510)" d="M16.4842 816.502 L16.4842 811.091 L70.0516 827.642 L70.0516 833.053 L16.4842 816.502 Z" fill="#000000" fill-rule="nonzero" fill-opacity="1" /><path clip-path="url(#clip510)" d="M14.5426 770.16 Q21.8632 774.425 29.0246 776.494 Q36.186 778.562 43.5384 778.562 Q50.8908 778.562 58.1159 776.494 Q65.3091 774.393 72.5979 770.16 L72.5979 775.252 Q65.1182 780.027 57.8931 782.414 Q50.668 784.769 43.5384 784.769 Q36.4406 784.769 29.2474 782.414 Q22.0542 780.058 14.5426 775.252 L14.5426 770.16 Z" fill="#000000" fill-rule="nonzero" fill-opacity="1" /><path clip-path="url(#clip510)" d="M29.7248 733.143 L35.1993 733.143 Q33.8307 735.626 33.1623 738.14 Q32.4621 740.623 32.4621 743.169 Q32.4621 748.866 36.0905 752.017 Q39.6872 755.168 46.212 755.168 Q52.7369 755.168 56.3653 752.017 Q59.9619 748.866 59.9619 743.169 Q59.9619 740.623 59.2935 738.14 Q58.5933 735.626 57.2247 733.143 L62.6355 733.143 Q63.7814 735.594 64.3543 738.236 Q64.9272 740.846 64.9272 743.806 Q64.9272 751.858 59.8664 756.601 Q54.8057 761.343 46.212 761.343 Q37.491 761.343 32.4939 756.569 Q27.4968 751.763 27.4968 743.424 Q27.4968 740.718 28.0697 738.14 Q28.6108 735.562 29.7248 733.143 Z" fill="#000000" fill-rule="nonzero" fill-opacity="1" /><path clip-path="url(#clip510)" d="M16.4842 712.55 L16.4842 707.139 L70.0516 723.69 L70.0516 729.101 L16.4842 712.55 Z" fill="#000000" fill-rule="nonzero" fill-opacity="1" /><path clip-path="url(#clip510)" d="M16.4842 700.742 L16.4842 694.312 L35.9632 694.312 L35.9632 670.95 L16.4842 670.95 L16.4842 664.521 L64.0042 664.521 L64.0042 670.95 L41.3741 670.95 L41.3741 694.312 L64.0042 694.312 L64.0042 700.742 L16.4842 700.742 Z" fill="#000000" fill-rule="nonzero" fill-opacity="1" /><path clip-path="url(#clip510)" d="M42.4562 639.981 Q39.719 641.572 39.719 644.787 Q39.719 648.002 42.4562 649.593 Q45.1935 651.216 50.668 651.216 Q56.1743 651.216 58.9116 649.593 Q61.6488 648.002 61.6488 644.787 Q61.6488 641.572 58.9116 639.981 Q56.1743 638.358 50.668 638.358 Q45.1935 638.358 42.4562 639.981 M36.8862 644.787 Q36.8862 639.663 40.4192 636.957 Q43.9522 634.252 50.668 634.252 Q57.4157 634.252 60.9486 636.957 Q64.4816 639.663 64.4816 644.787 Q64.4816 649.943 60.9486 652.649 Q57.4157 655.354 50.668 655.354 Q43.9522 655.354 40.4192 652.649 Q36.8862 649.943 36.8862 644.787 Z" fill="#000000" fill-rule="nonzero" fill-opacity="1" /><path clip-path="url(#clip510)" d="M14.5426 626.772 L14.5426 621.68 Q22.0542 616.905 29.2474 614.55 Q36.4406 612.163 43.5384 612.163 Q50.668 612.163 57.8931 614.55 Q65.1182 616.905 72.5979 621.68 L72.5979 626.772 Q65.3091 622.539 58.1159 620.47 Q50.8908 618.369 43.5384 618.369 Q36.186 618.369 29.0246 620.47 Q21.8632 622.539 14.5426 626.772 Z" fill="#000000" fill-rule="nonzero" fill-opacity="1" /><path clip-path="url(#clip510)" d="M28.3562 589.883 Q28.9291 586.955 30.6797 585.363 Q32.3984 583.74 35.0084 583.74 Q38.9551 583.74 41.0876 586.764 Q43.2201 589.787 43.2201 595.421 Q43.2201 597.235 42.9018 599.24 Q42.5517 601.214 41.9152 603.442 L38.0639 603.442 Q38.9233 601.787 39.337 599.909 Q39.7508 597.999 39.7508 595.867 Q39.7508 592.397 38.5095 590.488 Q37.2364 588.578 35.0084 588.578 Q32.6531 588.578 31.4436 590.36 Q30.2341 592.111 30.2341 595.548 L30.2341 598.286 L26.7966 598.286 L26.7966 595.294 Q26.7966 592.302 25.8099 590.774 Q24.7914 589.214 22.8817 589.214 Q21.0356 589.214 20.0808 590.806 Q19.0941 592.397 19.0941 595.421 Q19.0941 596.694 19.3806 598.317 Q19.667 599.941 20.3991 602.519 L16.7388 602.519 Q16.1977 600.195 15.9112 598.158 Q15.6248 596.121 15.6248 594.371 Q15.6248 589.787 17.5027 587.114 Q19.3806 584.408 22.5316 584.408 Q24.7277 584.408 26.2555 585.841 Q27.7833 587.273 28.3562 589.883 Z" fill="#000000" fill-rule="nonzero" fill-opacity="1" /><polyline clip-path="url(#clip511)" style="stroke:#009af9; stroke-linecap:round; stroke-linejoin:round; stroke-width:8; stroke-opacity:1; fill:none" points="316.67,1031.61 440.218,889.829 563.767,749.771 625.542,680.838 687.316,612.976 749.091,546.517 810.865,481.863 872.64,419.483 934.414,359.927 965.301,331.405 996.189,303.837 1027.08,277.322 1057.96,251.962 1088.85,227.868 1119.74,205.155 1135.18,194.356 1150.62,183.951 1166.07,173.957 1181.51,164.393 1196.96,155.278 1212.4,146.632 1227.84,138.475 1243.29,130.832 1258.73,123.724 1274.17,117.179 1289.62,111.222 1305.06,105.883 1320.5,101.192 1335.95,97.183 1351.39,93.8911 1366.84,91.3551 1382.28,89.6165 1397.72,88.7193 1413.17,88.7115 1428.61,89.6442 1444.05,91.5711 1459.5,94.5496 1474.94,98.639 1490.38,103.901 1505.83,110.397 1521.27,118.188 1536.72,127.333 1552.16,137.882 1583.05,163.344 1613.93,194.681 1644.82,231.528 1675.71,272.765 1691.15,294.41 1706.6,316.279 1722.04,337.956 1737.48,359.002 1752.93,379.004 1768.37,397.625 1783.81,414.691 1799.26,430.261 1814.7,444.684 1830.14,458.631 1845.59,473.073 1861.03,489.199 1876.47,508.273 1891.92,531.428 1907.36,559.409 1922.81,592.272 1938.25,629.103 1953.69,667.849 1969.14,705.495 1984.58,738.775 1992.3,753.001 2000.02,765.463 2007.75,776.275 2015.47,785.747 2030.91,802.793 2046.35,821.854 2169.9,1084.36 2293.45,1384.2 "/>
<polyline clip-path="url(#clip511)" style="stroke:#e26f46; stroke-linecap:round; stroke-linejoin:round; stroke-width:8; stroke-opacity:1; fill:none" stroke-dasharray="32, 20" points="316.67,1031.59 440.218,889.766 563.767,749.61 625.542,680.598 687.316,612.633 749.091,546.051 810.865,481.258 872.64,418.729 934.414,359.01 965.301,330.4 996.189,302.74 1027.08,276.127 1057.96,250.667 1088.85,226.469 1119.74,203.652 1135.18,192.8 1150.62,182.341 1166.07,172.294 1181.51,162.676 1196.96,153.506 1212.4,144.806 1227.84,136.596 1243.29,128.898 1258.73,121.737 1274.17,115.138 1289.62,109.127 1305.06,103.734 1320.5,98.9896 1335.95,94.9267 1351.39,91.5812 1366.84,88.9916 1382.28,87.1991 1397.72,86.2478 1413.17,86.1857 1428.61,87.0634 1444.05,88.9348 1459.5,91.857 1474.94,95.8891 1490.38,101.093 1505.83,107.529 1521.27,115.26 1536.72,124.342 1552.16,134.826 1583.05,160.156 1613.93,191.357 1644.82,228.069 1675.71,269.184 1691.15,290.779 1706.6,312.607 1722.04,334.255 1737.48,355.29 1752.93,375.296 1768.37,393.941 1783.81,411.048 1799.26,426.672 1814.7,441.158 1830.14,455.17 1845.59,469.668 1861.03,485.834 1876.47,504.922 1891.92,528.061 1907.36,555.992 1922.81,588.776 1938.25,625.506 1953.69,664.153 1969.14,701.724 1984.58,734.98 1992.3,749.217 2000.02,761.707 2007.75,772.56 2015.47,782.082 2030.91,799.237 2046.35,818.378 2169.9,1080.82 2293.45,1380.55 "/>
<polyline clip-path="url(#clip511)" style="stroke:#3da44d; stroke-linecap:round; stroke-linejoin:round; stroke-width:8; stroke-opacity:1; fill:none" stroke-dasharray="4, 8" points="316.67,1031.68 440.218,889.822 563.767,749.672 625.542,680.668 687.316,612.71 749.091,546.13 810.865,481.338 872.64,418.812 934.414,359.104 965.301,330.502 996.189,302.85 1027.08,276.247 1057.96,250.801 1088.85,226.62 1119.74,203.824 1135.18,192.984 1150.62,182.54 1166.07,172.508 1181.51,162.907 1196.96,153.758 1212.4,145.079 1227.84,136.894 1243.29,129.224 1258.73,122.094 1274.17,115.529 1289.62,109.558 1305.06,104.209 1320.5,99.5137 1335.95,95.506 1351.39,92.2224 1366.84,89.7019 1382.28,87.9868 1397.72,87.1219 1413.17,87.1562 1428.61,88.1417 1444.05,90.1329 1459.5,93.1881 1474.94,97.3677 1490.38,102.734 1505.83,109.35 1521.27,117.278 1536.72,126.575 1552.16,137.293 1583.05,163.141 1613.93,194.917 1644.82,232.224 1675.71,273.882 1691.15,295.694 1706.6,317.682 1722.04,339.414 1737.48,360.439 1752.93,380.329 1768.37,398.745 1783.81,415.52 1799.26,430.727 1814.7,444.746 1830.14,458.289 1845.59,472.373 1861.03,488.236 1876.47,507.185 1891.92,530.386 1907.36,558.595 1922.81,591.851 1938.25,629.183 1953.69,668.437 1969.14,706.457 1984.58,739.84 1992.3,753.99 2000.02,766.292 2007.75,776.871 2015.47,786.06 2030.91,802.501 2046.35,821.111 2169.9,1083.81 2293.45,1384.24 "/>
<path clip-path="url(#clip510)" d="M327.212 1377.32 L1814.38 1377.32 L1814.38 1169.96 L327.212 1169.96  Z" fill="#ffffff" fill-rule="evenodd" fill-opacity="1"/>
<polyline clip-path="url(#clip510)" style="stroke:#000000; stroke-linecap:round; stroke-linejoin:round; stroke-width:4; stroke-opacity:1; fill:none" points="327.212,1377.32 1814.38,1377.32 1814.38,1169.96 327.212,1169.96 327.212,1377.32 "/>
<polyline clip-path="url(#clip510)" style="stroke:#009af9; stroke-linecap:round; stroke-linejoin:round; stroke-width:8; stroke-opacity:1; fill:none" points="350.495,1221.8 490.187,1221.8 "/>
<path clip-path="url(#clip510)" d="M513.469 1204.52 L535.691 1204.52 L535.691 1206.51 L523.145 1239.08 L518.261 1239.08 L530.066 1208.45 L513.469 1208.45 L513.469 1204.52 Z" fill="#000000" fill-rule="nonzero" fill-opacity="1" /><path clip-path="url(#clip510)" d="M544.858 1204.52 L563.214 1204.52 L563.214 1208.45 L549.14 1208.45 L549.14 1216.92 Q550.159 1216.58 551.177 1216.41 Q552.196 1216.23 553.214 1216.23 Q559.001 1216.23 562.381 1219.4 Q565.761 1222.57 565.761 1227.99 Q565.761 1233.57 562.288 1236.67 Q558.816 1239.75 552.497 1239.75 Q550.321 1239.75 548.052 1239.38 Q545.807 1239.01 543.4 1238.27 L543.4 1233.57 Q545.483 1234.7 547.705 1235.26 Q549.927 1235.81 552.404 1235.81 Q556.409 1235.81 558.747 1233.7 Q561.085 1231.6 561.085 1227.99 Q561.085 1224.38 558.747 1222.27 Q556.409 1220.16 552.404 1220.16 Q550.529 1220.16 548.654 1220.58 Q546.802 1221 544.858 1221.88 L544.858 1204.52 Z" fill="#000000" fill-rule="nonzero" fill-opacity="1" /><path clip-path="url(#clip510)" d="M618.214 1213.61 L607.635 1224.24 L618.214 1234.82 L615.459 1237.62 L604.835 1226.99 L594.21 1237.62 L591.478 1234.82 L602.034 1224.24 L591.478 1213.61 L594.21 1210.81 L604.835 1221.44 L615.459 1210.81 L618.214 1213.61 Z" fill="#000000" fill-rule="nonzero" fill-opacity="1" /><path clip-path="url(#clip510)" d="M644.07 1203.06 L648.353 1203.06 L648.353 1224.33 L661.061 1213.15 L666.501 1213.15 L652.751 1225.28 L667.08 1239.08 L661.524 1239.08 L648.353 1226.41 L648.353 1239.08 L644.07 1239.08 L644.07 1203.06 Z" fill="#000000" fill-rule="nonzero" fill-opacity="1" /><path clip-path="url(#clip510)" d="M696.987 1203.1 Q693.885 1208.43 692.38 1213.64 Q690.876 1218.84 690.876 1224.19 Q690.876 1229.54 692.38 1234.79 Q693.908 1240.02 696.987 1245.33 L693.283 1245.33 Q689.811 1239.89 688.075 1234.63 Q686.362 1229.38 686.362 1224.19 Q686.362 1219.03 688.075 1213.8 Q689.788 1208.57 693.283 1203.1 L696.987 1203.1 Z" fill="#000000" fill-rule="nonzero" fill-opacity="1" /><path clip-path="url(#clip510)" d="M717.033 1226.04 Q711.871 1226.04 709.88 1227.22 Q707.89 1228.4 707.89 1231.25 Q707.89 1233.52 709.371 1234.86 Q710.876 1236.18 713.445 1236.18 Q716.987 1236.18 719.116 1233.68 Q721.269 1231.16 721.269 1226.99 L721.269 1226.04 L717.033 1226.04 M725.528 1224.28 L725.528 1239.08 L721.269 1239.08 L721.269 1235.14 Q719.811 1237.5 717.635 1238.64 Q715.459 1239.75 712.311 1239.75 Q708.329 1239.75 705.968 1237.52 Q703.63 1235.28 703.63 1231.53 Q703.63 1227.15 706.547 1224.93 Q709.487 1222.71 715.297 1222.71 L721.269 1222.71 L721.269 1222.29 Q721.269 1219.35 719.325 1217.76 Q717.403 1216.14 713.908 1216.14 Q711.686 1216.14 709.579 1216.67 Q707.473 1217.2 705.528 1218.27 L705.528 1214.33 Q707.866 1213.43 710.065 1212.99 Q712.264 1212.52 714.348 1212.52 Q719.973 1212.52 722.751 1215.44 Q725.528 1218.36 725.528 1224.28 Z" fill="#000000" fill-rule="nonzero" fill-opacity="1" /><path clip-path="url(#clip510)" d="M751.362 1217.08 L751.362 1203.06 L755.621 1203.06 L755.621 1239.08 L751.362 1239.08 L751.362 1235.19 Q750.019 1237.5 747.959 1238.64 Q745.922 1239.75 743.051 1239.75 Q738.352 1239.75 735.389 1236 Q732.45 1232.25 732.45 1226.14 Q732.45 1220.02 735.389 1216.27 Q738.352 1212.52 743.051 1212.52 Q745.922 1212.52 747.959 1213.66 Q750.019 1214.77 751.362 1217.08 M736.848 1226.14 Q736.848 1230.83 738.769 1233.52 Q740.713 1236.18 744.093 1236.18 Q747.473 1236.18 749.417 1233.52 Q751.362 1230.83 751.362 1226.14 Q751.362 1221.44 749.417 1218.77 Q747.473 1216.09 744.093 1216.09 Q740.713 1216.09 738.769 1218.77 Q736.848 1221.44 736.848 1226.14 Z" fill="#000000" fill-rule="nonzero" fill-opacity="1" /><path clip-path="url(#clip510)" d="M776.176 1226.04 Q771.014 1226.04 769.023 1227.22 Q767.033 1228.4 767.033 1231.25 Q767.033 1233.52 768.514 1234.86 Q770.019 1236.18 772.588 1236.18 Q776.13 1236.18 778.26 1233.68 Q780.412 1231.16 780.412 1226.99 L780.412 1226.04 L776.176 1226.04 M784.672 1224.28 L784.672 1239.08 L780.412 1239.08 L780.412 1235.14 Q778.954 1237.5 776.778 1238.64 Q774.602 1239.75 771.454 1239.75 Q767.473 1239.75 765.111 1237.52 Q762.773 1235.28 762.773 1231.53 Q762.773 1227.15 765.69 1224.93 Q768.63 1222.71 774.44 1222.71 L780.412 1222.71 L780.412 1222.29 Q780.412 1219.35 778.468 1217.76 Q776.547 1216.14 773.051 1216.14 Q770.829 1216.14 768.723 1216.67 Q766.616 1217.2 764.672 1218.27 L764.672 1214.33 Q767.01 1213.43 769.209 1212.99 Q771.408 1212.52 773.491 1212.52 Q779.116 1212.52 781.894 1215.44 Q784.672 1218.36 784.672 1224.28 Z" fill="#000000" fill-rule="nonzero" fill-opacity="1" /><path clip-path="url(#clip510)" d="M797.565 1235.19 L797.565 1248.94 L793.283 1248.94 L793.283 1213.15 L797.565 1213.15 L797.565 1217.08 Q798.908 1214.77 800.945 1213.66 Q803.005 1212.52 805.852 1212.52 Q810.574 1212.52 813.514 1216.27 Q816.477 1220.02 816.477 1226.14 Q816.477 1232.25 813.514 1236 Q810.574 1239.75 805.852 1239.75 Q803.005 1239.75 800.945 1238.64 Q798.908 1237.5 797.565 1235.19 M812.056 1226.14 Q812.056 1221.44 810.111 1218.77 Q808.19 1216.09 804.81 1216.09 Q801.431 1216.09 799.486 1218.77 Q797.565 1221.44 797.565 1226.14 Q797.565 1230.83 799.486 1233.52 Q801.431 1236.18 804.81 1236.18 Q808.19 1236.18 810.111 1233.52 Q812.056 1230.83 812.056 1226.14 Z" fill="#000000" fill-rule="nonzero" fill-opacity="1" /><path clip-path="url(#clip510)" d="M827.75 1205.79 L827.75 1213.15 L836.523 1213.15 L836.523 1216.46 L827.75 1216.46 L827.75 1230.53 Q827.75 1233.7 828.606 1234.61 Q829.486 1235.51 832.148 1235.51 L836.523 1235.51 L836.523 1239.08 L832.148 1239.08 Q827.218 1239.08 825.343 1237.25 Q823.468 1235.39 823.468 1230.53 L823.468 1216.46 L820.343 1216.46 L820.343 1213.15 L823.468 1213.15 L823.468 1205.79 L827.75 1205.79 Z" fill="#000000" fill-rule="nonzero" fill-opacity="1" /><path clip-path="url(#clip510)" d="M842.125 1213.15 L846.384 1213.15 L846.384 1239.08 L842.125 1239.08 L842.125 1213.15 M842.125 1203.06 L846.384 1203.06 L846.384 1208.45 L842.125 1208.45 L842.125 1203.06 Z" fill="#000000" fill-rule="nonzero" fill-opacity="1" /><path clip-path="url(#clip510)" d="M852.241 1213.15 L856.754 1213.15 L864.856 1234.91 L872.958 1213.15 L877.472 1213.15 L867.75 1239.08 L861.963 1239.08 L852.241 1213.15 Z" fill="#000000" fill-rule="nonzero" fill-opacity="1" /><path clip-path="url(#clip510)" d="M905.527 1225.05 L905.527 1227.13 L885.944 1227.13 Q886.222 1231.53 888.583 1233.84 Q890.967 1236.14 895.203 1236.14 Q897.657 1236.14 899.949 1235.53 Q902.263 1234.93 904.532 1233.73 L904.532 1237.76 Q902.24 1238.73 899.833 1239.24 Q897.426 1239.75 894.949 1239.75 Q888.745 1239.75 885.111 1236.14 Q881.5 1232.52 881.5 1226.37 Q881.5 1220 884.926 1216.27 Q888.375 1212.52 894.208 1212.52 Q899.439 1212.52 902.472 1215.9 Q905.527 1219.26 905.527 1225.05 M901.268 1223.8 Q901.222 1220.3 899.301 1218.22 Q897.402 1216.14 894.254 1216.14 Q890.689 1216.14 888.537 1218.15 Q886.407 1220.16 886.083 1223.82 L901.268 1223.8 Z" fill="#000000" fill-rule="nonzero" fill-opacity="1" /><path clip-path="url(#clip510)" d="M911.847 1203.1 L915.55 1203.1 Q919.023 1208.57 920.736 1213.8 Q922.472 1219.03 922.472 1224.19 Q922.472 1229.38 920.736 1234.63 Q919.023 1239.89 915.55 1245.33 L911.847 1245.33 Q914.925 1240.02 916.43 1234.79 Q917.958 1229.54 917.958 1224.19 Q917.958 1218.84 916.43 1213.64 Q914.925 1208.43 911.847 1203.1 Z" fill="#000000" fill-rule="nonzero" fill-opacity="1" /><path clip-path="url(#clip510)" d="M932.101 1233.2 L936.986 1233.2 L936.986 1237.18 L933.189 1244.58 L930.203 1244.58 L932.101 1237.18 L932.101 1233.2 Z" fill="#000000" fill-rule="nonzero" fill-opacity="1" /><path clip-path="url(#clip510)" d="M961.152 1203.06 L965.411 1203.06 L965.411 1239.08 L961.152 1239.08 L961.152 1203.06 Z" fill="#000000" fill-rule="nonzero" fill-opacity="1" /><path clip-path="url(#clip510)" d="M974.323 1213.15 L978.583 1213.15 L978.583 1239.08 L974.323 1239.08 L974.323 1213.15 M974.323 1203.06 L978.583 1203.06 L978.583 1208.45 L974.323 1208.45 L974.323 1203.06 Z" fill="#000000" fill-rule="nonzero" fill-opacity="1" /><path clip-path="url(#clip510)" d="M1009.05 1223.43 L1009.05 1239.08 L1004.79 1239.08 L1004.79 1223.57 Q1004.79 1219.89 1003.35 1218.06 Q1001.92 1216.23 999.045 1216.23 Q995.596 1216.23 993.606 1218.43 Q991.615 1220.63 991.615 1224.42 L991.615 1239.08 L987.332 1239.08 L987.332 1213.15 L991.615 1213.15 L991.615 1217.18 Q993.143 1214.84 995.203 1213.68 Q997.286 1212.52 999.994 1212.52 Q1004.46 1212.52 1006.75 1215.3 Q1009.05 1218.06 1009.05 1223.43 Z" fill="#000000" fill-rule="nonzero" fill-opacity="1" /><path clip-path="url(#clip510)" d="M1039.72 1225.05 L1039.72 1227.13 L1020.13 1227.13 Q1020.41 1231.53 1022.77 1233.84 Q1025.16 1236.14 1029.39 1236.14 Q1031.85 1236.14 1034.14 1235.53 Q1036.45 1234.93 1038.72 1233.73 L1038.72 1237.76 Q1036.43 1238.73 1034.02 1239.24 Q1031.61 1239.75 1029.14 1239.75 Q1022.93 1239.75 1019.3 1236.14 Q1015.69 1232.52 1015.69 1226.37 Q1015.69 1220 1019.11 1216.27 Q1022.56 1212.52 1028.4 1212.52 Q1033.63 1212.52 1036.66 1215.9 Q1039.72 1219.26 1039.72 1225.05 M1035.46 1223.8 Q1035.41 1220.3 1033.49 1218.22 Q1031.59 1216.14 1028.44 1216.14 Q1024.88 1216.14 1022.73 1218.15 Q1020.6 1220.16 1020.27 1223.82 L1035.46 1223.8 Z" fill="#000000" fill-rule="nonzero" fill-opacity="1" /><path clip-path="url(#clip510)" d="M1058.49 1226.04 Q1053.33 1226.04 1051.34 1227.22 Q1049.35 1228.4 1049.35 1231.25 Q1049.35 1233.52 1050.83 1234.86 Q1052.33 1236.18 1054.9 1236.18 Q1058.44 1236.18 1060.57 1233.68 Q1062.73 1231.16 1062.73 1226.99 L1062.73 1226.04 L1058.49 1226.04 M1066.98 1224.28 L1066.98 1239.08 L1062.73 1239.08 L1062.73 1235.14 Q1061.27 1237.5 1059.09 1238.64 Q1056.92 1239.75 1053.77 1239.75 Q1049.79 1239.75 1047.42 1237.52 Q1045.09 1235.28 1045.09 1231.53 Q1045.09 1227.15 1048 1224.93 Q1050.94 1222.71 1056.75 1222.71 L1062.73 1222.71 L1062.73 1222.29 Q1062.73 1219.35 1060.78 1217.76 Q1058.86 1216.14 1055.36 1216.14 Q1053.14 1216.14 1051.04 1216.67 Q1048.93 1217.2 1046.98 1218.27 L1046.98 1214.33 Q1049.32 1213.43 1051.52 1212.99 Q1053.72 1212.52 1055.8 1212.52 Q1061.43 1212.52 1064.21 1215.44 Q1066.98 1218.36 1066.98 1224.28 Z" fill="#000000" fill-rule="nonzero" fill-opacity="1" /><path clip-path="url(#clip510)" d="M1090.78 1217.13 Q1090.06 1216.71 1089.21 1216.53 Q1088.37 1216.32 1087.36 1216.32 Q1083.74 1216.32 1081.8 1218.68 Q1079.88 1221.02 1079.88 1225.42 L1079.88 1239.08 L1075.6 1239.08 L1075.6 1213.15 L1079.88 1213.15 L1079.88 1217.18 Q1081.22 1214.82 1083.37 1213.68 Q1085.53 1212.52 1088.61 1212.52 Q1089.04 1212.52 1089.58 1212.59 Q1090.11 1212.64 1090.76 1212.76 L1090.78 1217.13 Z" fill="#000000" fill-rule="nonzero" fill-opacity="1" /><path clip-path="url(#clip510)" d="M1120.55 1203.1 Q1117.45 1208.43 1115.94 1213.64 Q1114.44 1218.84 1114.44 1224.19 Q1114.44 1229.54 1115.94 1234.79 Q1117.47 1240.02 1120.55 1245.33 L1116.85 1245.33 Q1113.37 1239.89 1111.64 1234.63 Q1109.92 1229.38 1109.92 1224.19 Q1109.92 1219.03 1111.64 1213.8 Q1113.35 1208.57 1116.85 1203.1 L1120.55 1203.1 Z" fill="#000000" fill-rule="nonzero" fill-opacity="1" /><path clip-path="url(#clip510)" d="M1149.72 1205.65 L1149.72 1210.21 Q1147.05 1208.94 1144.69 1208.31 Q1142.33 1207.69 1140.13 1207.69 Q1136.31 1207.69 1134.23 1209.17 Q1132.17 1210.65 1132.17 1213.38 Q1132.17 1215.67 1133.54 1216.85 Q1134.92 1218.01 1138.77 1218.73 L1141.59 1219.31 Q1146.82 1220.3 1149.3 1222.83 Q1151.8 1225.33 1151.8 1229.54 Q1151.8 1234.56 1148.42 1237.15 Q1145.06 1239.75 1138.56 1239.75 Q1136.1 1239.75 1133.33 1239.19 Q1130.57 1238.64 1127.61 1237.55 L1127.61 1232.73 Q1130.46 1234.33 1133.19 1235.14 Q1135.92 1235.95 1138.56 1235.95 Q1142.56 1235.95 1144.74 1234.38 Q1146.91 1232.8 1146.91 1229.89 Q1146.91 1227.34 1145.34 1225.9 Q1143.79 1224.47 1140.23 1223.75 L1137.38 1223.2 Q1132.15 1222.15 1129.81 1219.93 Q1127.47 1217.71 1127.47 1213.75 Q1127.47 1209.17 1130.69 1206.53 Q1133.93 1203.89 1139.6 1203.89 Q1142.03 1203.89 1144.55 1204.33 Q1147.08 1204.77 1149.72 1205.65 Z" fill="#000000" fill-rule="nonzero" fill-opacity="1" /><path clip-path="url(#clip510)" d="M1169.69 1241.48 Q1167.89 1246.11 1166.17 1247.52 Q1164.46 1248.94 1161.59 1248.94 L1158.19 1248.94 L1158.19 1245.37 L1160.69 1245.37 Q1162.45 1245.37 1163.42 1244.54 Q1164.39 1243.7 1165.57 1240.6 L1166.34 1238.66 L1155.85 1213.15 L1160.36 1213.15 L1168.47 1233.43 L1176.57 1213.15 L1181.08 1213.15 L1169.69 1241.48 Z" fill="#000000" fill-rule="nonzero" fill-opacity="1" /><path clip-path="url(#clip510)" d="M1207.15 1218.13 Q1208.74 1215.26 1210.97 1213.89 Q1213.19 1212.52 1216.2 1212.52 Q1220.25 1212.52 1222.45 1215.37 Q1224.65 1218.2 1224.65 1223.43 L1224.65 1239.08 L1220.36 1239.08 L1220.36 1223.57 Q1220.36 1219.84 1219.04 1218.03 Q1217.72 1216.23 1215.02 1216.23 Q1211.71 1216.23 1209.78 1218.43 Q1207.86 1220.63 1207.86 1224.42 L1207.86 1239.08 L1203.58 1239.08 L1203.58 1223.57 Q1203.58 1219.82 1202.26 1218.03 Q1200.94 1216.23 1198.19 1216.23 Q1194.92 1216.23 1193 1218.45 Q1191.08 1220.65 1191.08 1224.42 L1191.08 1239.08 L1186.8 1239.08 L1186.8 1213.15 L1191.08 1213.15 L1191.08 1217.18 Q1192.54 1214.79 1194.58 1213.66 Q1196.61 1212.52 1199.41 1212.52 Q1202.24 1212.52 1204.21 1213.96 Q1206.2 1215.39 1207.15 1218.13 Z" fill="#000000" fill-rule="nonzero" fill-opacity="1" /><path clip-path="url(#clip510)" d="M1238 1222.57 L1238 1235.23 L1245.5 1235.23 Q1249.28 1235.23 1251.08 1233.68 Q1252.91 1232.11 1252.91 1228.89 Q1252.91 1225.65 1251.08 1224.12 Q1249.28 1222.57 1245.5 1222.57 L1238 1222.57 M1238 1208.36 L1238 1218.77 L1244.92 1218.77 Q1248.35 1218.77 1250.02 1217.5 Q1251.71 1216.21 1251.71 1213.57 Q1251.71 1210.95 1250.02 1209.65 Q1248.35 1208.36 1244.92 1208.36 L1238 1208.36 M1233.33 1204.52 L1245.27 1204.52 Q1250.62 1204.52 1253.51 1206.74 Q1256.41 1208.96 1256.41 1213.06 Q1256.41 1216.23 1254.92 1218.1 Q1253.44 1219.98 1250.57 1220.44 Q1254.02 1221.18 1255.92 1223.54 Q1257.84 1225.88 1257.84 1229.4 Q1257.84 1234.03 1254.69 1236.55 Q1251.54 1239.08 1245.73 1239.08 L1233.33 1239.08 L1233.33 1204.52 Z" fill="#000000" fill-rule="nonzero" fill-opacity="1" /><path clip-path="url(#clip510)" d="M1275.71 1216.14 Q1272.28 1216.14 1270.29 1218.82 Q1268.3 1221.48 1268.3 1226.14 Q1268.3 1230.79 1270.27 1233.47 Q1272.26 1236.14 1275.71 1236.14 Q1279.11 1236.14 1281.1 1233.45 Q1283.09 1230.77 1283.09 1226.14 Q1283.09 1221.53 1281.1 1218.84 Q1279.11 1216.14 1275.71 1216.14 M1275.71 1212.52 Q1281.27 1212.52 1284.44 1216.14 Q1287.61 1219.75 1287.61 1226.14 Q1287.61 1232.5 1284.44 1236.14 Q1281.27 1239.75 1275.71 1239.75 Q1270.13 1239.75 1266.96 1236.14 Q1263.81 1232.5 1263.81 1226.14 Q1263.81 1219.75 1266.96 1216.14 Q1270.13 1212.52 1275.71 1212.52 Z" fill="#000000" fill-rule="nonzero" fill-opacity="1" /><path clip-path="url(#clip510)" d="M1294.67 1203.06 L1298.93 1203.06 L1298.93 1239.08 L1294.67 1239.08 L1294.67 1203.06 Z" fill="#000000" fill-rule="nonzero" fill-opacity="1" /><path clip-path="url(#clip510)" d="M1312.05 1205.79 L1312.05 1213.15 L1320.83 1213.15 L1320.83 1216.46 L1312.05 1216.46 L1312.05 1230.53 Q1312.05 1233.7 1312.91 1234.61 Q1313.79 1235.51 1316.45 1235.51 L1320.83 1235.51 L1320.83 1239.08 L1316.45 1239.08 Q1311.52 1239.08 1309.65 1237.25 Q1307.77 1235.39 1307.77 1230.53 L1307.77 1216.46 L1304.65 1216.46 L1304.65 1213.15 L1307.77 1213.15 L1307.77 1205.79 L1312.05 1205.79 Z" fill="#000000" fill-rule="nonzero" fill-opacity="1" /><path clip-path="url(#clip510)" d="M1324.58 1213.15 L1344.81 1213.15 L1344.81 1217.04 L1328.79 1235.67 L1344.81 1235.67 L1344.81 1239.08 L1324 1239.08 L1324 1235.19 L1340.02 1216.55 L1324.58 1216.55 L1324.58 1213.15 Z" fill="#000000" fill-rule="nonzero" fill-opacity="1" /><path clip-path="url(#clip510)" d="M1350.64 1203.1 L1354.34 1203.1 Q1357.82 1208.57 1359.53 1213.8 Q1361.27 1219.03 1361.27 1224.19 Q1361.27 1229.38 1359.53 1234.63 Q1357.82 1239.89 1354.34 1245.33 L1350.64 1245.33 Q1353.72 1240.02 1355.22 1234.79 Q1356.75 1229.54 1356.75 1224.19 Q1356.75 1218.84 1355.22 1213.64 Q1353.72 1208.43 1350.64 1203.1 Z" fill="#000000" fill-rule="nonzero" fill-opacity="1" /><path clip-path="url(#clip510)" d="M1370.9 1233.2 L1375.78 1233.2 L1375.78 1237.18 L1371.98 1244.58 L1369 1244.58 L1370.9 1237.18 L1370.9 1233.2 Z" fill="#000000" fill-rule="nonzero" fill-opacity="1" /><path clip-path="url(#clip510)" d="M1420.13 1218.13 Q1421.73 1215.26 1423.95 1213.89 Q1426.17 1212.52 1429.18 1212.52 Q1433.23 1212.52 1435.43 1215.37 Q1437.63 1218.2 1437.63 1223.43 L1437.63 1239.08 L1433.35 1239.08 L1433.35 1223.57 Q1433.35 1219.84 1432.03 1218.03 Q1430.71 1216.23 1428 1216.23 Q1424.69 1216.23 1422.77 1218.43 Q1420.85 1220.63 1420.85 1224.42 L1420.85 1239.08 L1416.57 1239.08 L1416.57 1223.57 Q1416.57 1219.82 1415.25 1218.03 Q1413.93 1216.23 1411.17 1216.23 Q1407.91 1216.23 1405.99 1218.45 Q1404.07 1220.65 1404.07 1224.42 L1404.07 1239.08 L1399.78 1239.08 L1399.78 1213.15 L1404.07 1213.15 L1404.07 1217.18 Q1405.52 1214.79 1407.56 1213.66 Q1409.6 1212.52 1412.4 1212.52 Q1415.22 1212.52 1417.19 1213.96 Q1419.18 1215.39 1420.13 1218.13 Z" fill="#000000" fill-rule="nonzero" fill-opacity="1" /><path clip-path="url(#clip510)" d="M1457.91 1226.04 Q1452.75 1226.04 1450.76 1227.22 Q1448.77 1228.4 1448.77 1231.25 Q1448.77 1233.52 1450.25 1234.86 Q1451.75 1236.18 1454.32 1236.18 Q1457.86 1236.18 1459.99 1233.68 Q1462.14 1231.16 1462.14 1226.99 L1462.14 1226.04 L1457.91 1226.04 M1466.4 1224.28 L1466.4 1239.08 L1462.14 1239.08 L1462.14 1235.14 Q1460.69 1237.5 1458.51 1238.64 Q1456.33 1239.75 1453.19 1239.75 Q1449.2 1239.75 1446.84 1237.52 Q1444.51 1235.28 1444.51 1231.53 Q1444.51 1227.15 1447.42 1224.93 Q1450.36 1222.71 1456.17 1222.71 L1462.14 1222.71 L1462.14 1222.29 Q1462.14 1219.35 1460.2 1217.76 Q1458.28 1216.14 1454.78 1216.14 Q1452.56 1216.14 1450.45 1216.67 Q1448.35 1217.2 1446.4 1218.27 L1446.4 1214.33 Q1448.74 1213.43 1450.94 1212.99 Q1453.14 1212.52 1455.22 1212.52 Q1460.85 1212.52 1463.63 1215.44 Q1466.4 1218.36 1466.4 1224.28 Z" fill="#000000" fill-rule="nonzero" fill-opacity="1" /><path clip-path="url(#clip510)" d="M1479.39 1205.79 L1479.39 1213.15 L1488.16 1213.15 L1488.16 1216.46 L1479.39 1216.46 L1479.39 1230.53 Q1479.39 1233.7 1480.25 1234.61 Q1481.13 1235.51 1483.79 1235.51 L1488.16 1235.51 L1488.16 1239.08 L1483.79 1239.08 Q1478.86 1239.08 1476.98 1237.25 Q1475.11 1235.39 1475.11 1230.53 L1475.11 1216.46 L1471.98 1216.46 L1471.98 1213.15 L1475.11 1213.15 L1475.11 1205.79 L1479.39 1205.79 Z" fill="#000000" fill-rule="nonzero" fill-opacity="1" /><path clip-path="url(#clip510)" d="M1497.98 1205.79 L1497.98 1213.15 L1506.75 1213.15 L1506.75 1216.46 L1497.98 1216.46 L1497.98 1230.53 Q1497.98 1233.7 1498.83 1234.61 Q1499.71 1235.51 1502.38 1235.51 L1506.75 1235.51 L1506.75 1239.08 L1502.38 1239.08 Q1497.45 1239.08 1495.57 1237.25 Q1493.7 1235.39 1493.7 1230.53 L1493.7 1216.46 L1490.57 1216.46 L1490.57 1213.15 L1493.7 1213.15 L1493.7 1205.79 L1497.98 1205.79 Z" fill="#000000" fill-rule="nonzero" fill-opacity="1" /><path clip-path="url(#clip510)" d="M1534.53 1225.05 L1534.53 1227.13 L1514.95 1227.13 Q1515.22 1231.53 1517.58 1233.84 Q1519.97 1236.14 1524.2 1236.14 Q1526.66 1236.14 1528.95 1235.53 Q1531.26 1234.93 1533.53 1233.73 L1533.53 1237.76 Q1531.24 1238.73 1528.83 1239.24 Q1526.43 1239.75 1523.95 1239.75 Q1517.75 1239.75 1514.11 1236.14 Q1510.5 1232.52 1510.5 1226.37 Q1510.5 1220 1513.93 1216.27 Q1517.38 1212.52 1523.21 1212.52 Q1528.44 1212.52 1531.47 1215.9 Q1534.53 1219.26 1534.53 1225.05 M1530.27 1223.8 Q1530.22 1220.3 1528.3 1218.22 Q1526.4 1216.14 1523.26 1216.14 Q1519.69 1216.14 1517.54 1218.15 Q1515.41 1220.16 1515.08 1223.82 L1530.27 1223.8 Z" fill="#000000" fill-rule="nonzero" fill-opacity="1" /><path clip-path="url(#clip510)" d="M1556.54 1217.13 Q1555.82 1216.71 1554.97 1216.53 Q1554.13 1216.32 1553.12 1216.32 Q1549.51 1216.32 1547.56 1218.68 Q1545.64 1221.02 1545.64 1225.42 L1545.64 1239.08 L1541.36 1239.08 L1541.36 1213.15 L1545.64 1213.15 L1545.64 1217.18 Q1546.98 1214.82 1549.14 1213.68 Q1551.29 1212.52 1554.37 1212.52 Q1554.81 1212.52 1555.34 1212.59 Q1555.87 1212.64 1556.52 1212.76 L1556.54 1217.13 Z" fill="#000000" fill-rule="nonzero" fill-opacity="1" /><polyline clip-path="url(#clip510)" style="stroke:#e26f46; stroke-linecap:round; stroke-linejoin:round; stroke-width:8; stroke-opacity:1; fill:none" stroke-dasharray="32, 20" points="350.495,1273.64 490.187,1273.64 "/>
<path clip-path="url(#clip510)" d="M513.469 1256.36 L535.691 1256.36 L535.691 1258.35 L523.145 1290.92 L518.261 1290.92 L530.066 1260.29 L513.469 1260.29 L513.469 1256.36 Z" fill="#000000" fill-rule="nonzero" fill-opacity="1" /><path clip-path="url(#clip510)" d="M544.858 1256.36 L563.214 1256.36 L563.214 1260.29 L549.14 1260.29 L549.14 1268.76 Q550.159 1268.42 551.177 1268.25 Q552.196 1268.07 553.214 1268.07 Q559.001 1268.07 562.381 1271.24 Q565.761 1274.41 565.761 1279.83 Q565.761 1285.41 562.288 1288.51 Q558.816 1291.59 552.497 1291.59 Q550.321 1291.59 548.052 1291.22 Q545.807 1290.85 543.4 1290.11 L543.4 1285.41 Q545.483 1286.54 547.705 1287.1 Q549.927 1287.65 552.404 1287.65 Q556.409 1287.65 558.747 1285.54 Q561.085 1283.44 561.085 1279.83 Q561.085 1276.22 558.747 1274.11 Q556.409 1272 552.404 1272 Q550.529 1272 548.654 1272.42 Q546.802 1272.84 544.858 1273.72 L544.858 1256.36 Z" fill="#000000" fill-rule="nonzero" fill-opacity="1" /><path clip-path="url(#clip510)" d="M618.214 1265.45 L607.635 1276.08 L618.214 1286.66 L615.459 1289.46 L604.835 1278.83 L594.21 1289.46 L591.478 1286.66 L602.034 1276.08 L591.478 1265.45 L594.21 1262.65 L604.835 1273.28 L615.459 1262.65 L618.214 1265.45 Z" fill="#000000" fill-rule="nonzero" fill-opacity="1" /><path clip-path="url(#clip510)" d="M644.07 1254.9 L648.353 1254.9 L648.353 1276.17 L661.061 1264.99 L666.501 1264.99 L652.751 1277.12 L667.08 1290.92 L661.524 1290.92 L648.353 1278.25 L648.353 1290.92 L644.07 1290.92 L644.07 1254.9 Z" fill="#000000" fill-rule="nonzero" fill-opacity="1" /><path clip-path="url(#clip510)" d="M696.987 1254.94 Q693.885 1260.27 692.38 1265.48 Q690.876 1270.68 690.876 1276.03 Q690.876 1281.38 692.38 1286.63 Q693.908 1291.86 696.987 1297.17 L693.283 1297.17 Q689.811 1291.73 688.075 1286.47 Q686.362 1281.22 686.362 1276.03 Q686.362 1270.87 688.075 1265.64 Q689.788 1260.41 693.283 1254.94 L696.987 1254.94 Z" fill="#000000" fill-rule="nonzero" fill-opacity="1" /><path clip-path="url(#clip510)" d="M717.033 1277.88 Q711.871 1277.88 709.88 1279.06 Q707.89 1280.24 707.89 1283.09 Q707.89 1285.36 709.371 1286.7 Q710.876 1288.02 713.445 1288.02 Q716.987 1288.02 719.116 1285.52 Q721.269 1283 721.269 1278.83 L721.269 1277.88 L717.033 1277.88 M725.528 1276.12 L725.528 1290.92 L721.269 1290.92 L721.269 1286.98 Q719.811 1289.34 717.635 1290.48 Q715.459 1291.59 712.311 1291.59 Q708.329 1291.59 705.968 1289.36 Q703.63 1287.12 703.63 1283.37 Q703.63 1278.99 706.547 1276.77 Q709.487 1274.55 715.297 1274.55 L721.269 1274.55 L721.269 1274.13 Q721.269 1271.19 719.325 1269.6 Q717.403 1267.98 713.908 1267.98 Q711.686 1267.98 709.579 1268.51 Q707.473 1269.04 705.528 1270.11 L705.528 1266.17 Q707.866 1265.27 710.065 1264.83 Q712.264 1264.36 714.348 1264.36 Q719.973 1264.36 722.751 1267.28 Q725.528 1270.2 725.528 1276.12 Z" fill="#000000" fill-rule="nonzero" fill-opacity="1" /><path clip-path="url(#clip510)" d="M751.362 1268.92 L751.362 1254.9 L755.621 1254.9 L755.621 1290.92 L751.362 1290.92 L751.362 1287.03 Q750.019 1289.34 747.959 1290.48 Q745.922 1291.59 743.051 1291.59 Q738.352 1291.59 735.389 1287.84 Q732.45 1284.09 732.45 1277.98 Q732.45 1271.86 735.389 1268.11 Q738.352 1264.36 743.051 1264.36 Q745.922 1264.36 747.959 1265.5 Q750.019 1266.61 751.362 1268.92 M736.848 1277.98 Q736.848 1282.67 738.769 1285.36 Q740.713 1288.02 744.093 1288.02 Q747.473 1288.02 749.417 1285.36 Q751.362 1282.67 751.362 1277.98 Q751.362 1273.28 749.417 1270.61 Q747.473 1267.93 744.093 1267.93 Q740.713 1267.93 738.769 1270.61 Q736.848 1273.28 736.848 1277.98 Z" fill="#000000" fill-rule="nonzero" fill-opacity="1" /><path clip-path="url(#clip510)" d="M776.176 1277.88 Q771.014 1277.88 769.023 1279.06 Q767.033 1280.24 767.033 1283.09 Q767.033 1285.36 768.514 1286.7 Q770.019 1288.02 772.588 1288.02 Q776.13 1288.02 778.26 1285.52 Q780.412 1283 780.412 1278.83 L780.412 1277.88 L776.176 1277.88 M784.672 1276.12 L784.672 1290.92 L780.412 1290.92 L780.412 1286.98 Q778.954 1289.34 776.778 1290.48 Q774.602 1291.59 771.454 1291.59 Q767.473 1291.59 765.111 1289.36 Q762.773 1287.12 762.773 1283.37 Q762.773 1278.99 765.69 1276.77 Q768.63 1274.55 774.44 1274.55 L780.412 1274.55 L780.412 1274.13 Q780.412 1271.19 778.468 1269.6 Q776.547 1267.98 773.051 1267.98 Q770.829 1267.98 768.723 1268.51 Q766.616 1269.04 764.672 1270.11 L764.672 1266.17 Q767.01 1265.27 769.209 1264.83 Q771.408 1264.36 773.491 1264.36 Q779.116 1264.36 781.894 1267.28 Q784.672 1270.2 784.672 1276.12 Z" fill="#000000" fill-rule="nonzero" fill-opacity="1" /><path clip-path="url(#clip510)" d="M797.565 1287.03 L797.565 1300.78 L793.283 1300.78 L793.283 1264.99 L797.565 1264.99 L797.565 1268.92 Q798.908 1266.61 800.945 1265.5 Q803.005 1264.36 805.852 1264.36 Q810.574 1264.36 813.514 1268.11 Q816.477 1271.86 816.477 1277.98 Q816.477 1284.09 813.514 1287.84 Q810.574 1291.59 805.852 1291.59 Q803.005 1291.59 800.945 1290.48 Q798.908 1289.34 797.565 1287.03 M812.056 1277.98 Q812.056 1273.28 810.111 1270.61 Q808.19 1267.93 804.81 1267.93 Q801.431 1267.93 799.486 1270.61 Q797.565 1273.28 797.565 1277.98 Q797.565 1282.67 799.486 1285.36 Q801.431 1288.02 804.81 1288.02 Q808.19 1288.02 810.111 1285.36 Q812.056 1282.67 812.056 1277.98 Z" fill="#000000" fill-rule="nonzero" fill-opacity="1" /><path clip-path="url(#clip510)" d="M827.75 1257.63 L827.75 1264.99 L836.523 1264.99 L836.523 1268.3 L827.75 1268.3 L827.75 1282.37 Q827.75 1285.54 828.606 1286.45 Q829.486 1287.35 832.148 1287.35 L836.523 1287.35 L836.523 1290.92 L832.148 1290.92 Q827.218 1290.92 825.343 1289.09 Q823.468 1287.23 823.468 1282.37 L823.468 1268.3 L820.343 1268.3 L820.343 1264.99 L823.468 1264.99 L823.468 1257.63 L827.75 1257.63 Z" fill="#000000" fill-rule="nonzero" fill-opacity="1" /><path clip-path="url(#clip510)" d="M842.125 1264.99 L846.384 1264.99 L846.384 1290.92 L842.125 1290.92 L842.125 1264.99 M842.125 1254.9 L846.384 1254.9 L846.384 1260.29 L842.125 1260.29 L842.125 1254.9 Z" fill="#000000" fill-rule="nonzero" fill-opacity="1" /><path clip-path="url(#clip510)" d="M852.241 1264.99 L856.754 1264.99 L864.856 1286.75 L872.958 1264.99 L877.472 1264.99 L867.75 1290.92 L861.963 1290.92 L852.241 1264.99 Z" fill="#000000" fill-rule="nonzero" fill-opacity="1" /><path clip-path="url(#clip510)" d="M905.527 1276.89 L905.527 1278.97 L885.944 1278.97 Q886.222 1283.37 888.583 1285.68 Q890.967 1287.98 895.203 1287.98 Q897.657 1287.98 899.949 1287.37 Q902.263 1286.77 904.532 1285.57 L904.532 1289.6 Q902.24 1290.57 899.833 1291.08 Q897.426 1291.59 894.949 1291.59 Q888.745 1291.59 885.111 1287.98 Q881.5 1284.36 881.5 1278.21 Q881.5 1271.84 884.926 1268.11 Q888.375 1264.36 894.208 1264.36 Q899.439 1264.36 902.472 1267.74 Q905.527 1271.1 905.527 1276.89 M901.268 1275.64 Q901.222 1272.14 899.301 1270.06 Q897.402 1267.98 894.254 1267.98 Q890.689 1267.98 888.537 1269.99 Q886.407 1272 886.083 1275.66 L901.268 1275.64 Z" fill="#000000" fill-rule="nonzero" fill-opacity="1" /><path clip-path="url(#clip510)" d="M911.847 1254.94 L915.55 1254.94 Q919.023 1260.41 920.736 1265.64 Q922.472 1270.87 922.472 1276.03 Q922.472 1281.22 920.736 1286.47 Q919.023 1291.73 915.55 1297.17 L911.847 1297.17 Q914.925 1291.86 916.43 1286.63 Q917.958 1281.38 917.958 1276.03 Q917.958 1270.68 916.43 1265.48 Q914.925 1260.27 911.847 1254.94 Z" fill="#000000" fill-rule="nonzero" fill-opacity="1" /><path clip-path="url(#clip510)" d="M932.101 1285.04 L936.986 1285.04 L936.986 1289.02 L933.189 1296.42 L930.203 1296.42 L932.101 1289.02 L932.101 1285.04 Z" fill="#000000" fill-rule="nonzero" fill-opacity="1" /><path clip-path="url(#clip510)" d="M961.152 1254.9 L965.411 1254.9 L965.411 1290.92 L961.152 1290.92 L961.152 1254.9 Z" fill="#000000" fill-rule="nonzero" fill-opacity="1" /><path clip-path="url(#clip510)" d="M974.323 1264.99 L978.583 1264.99 L978.583 1290.92 L974.323 1290.92 L974.323 1264.99 M974.323 1254.9 L978.583 1254.9 L978.583 1260.29 L974.323 1260.29 L974.323 1254.9 Z" fill="#000000" fill-rule="nonzero" fill-opacity="1" /><path clip-path="url(#clip510)" d="M1009.05 1275.27 L1009.05 1290.92 L1004.79 1290.92 L1004.79 1275.41 Q1004.79 1271.73 1003.35 1269.9 Q1001.92 1268.07 999.045 1268.07 Q995.596 1268.07 993.606 1270.27 Q991.615 1272.47 991.615 1276.26 L991.615 1290.92 L987.332 1290.92 L987.332 1264.99 L991.615 1264.99 L991.615 1269.02 Q993.143 1266.68 995.203 1265.52 Q997.286 1264.36 999.994 1264.36 Q1004.46 1264.36 1006.75 1267.14 Q1009.05 1269.9 1009.05 1275.27 Z" fill="#000000" fill-rule="nonzero" fill-opacity="1" /><path clip-path="url(#clip510)" d="M1039.72 1276.89 L1039.72 1278.97 L1020.13 1278.97 Q1020.41 1283.37 1022.77 1285.68 Q1025.16 1287.98 1029.39 1287.98 Q1031.85 1287.98 1034.14 1287.37 Q1036.45 1286.77 1038.72 1285.57 L1038.72 1289.6 Q1036.43 1290.57 1034.02 1291.08 Q1031.61 1291.59 1029.14 1291.59 Q1022.93 1291.59 1019.3 1287.98 Q1015.69 1284.36 1015.69 1278.21 Q1015.69 1271.84 1019.11 1268.11 Q1022.56 1264.36 1028.4 1264.36 Q1033.63 1264.36 1036.66 1267.74 Q1039.72 1271.1 1039.72 1276.89 M1035.46 1275.64 Q1035.41 1272.14 1033.49 1270.06 Q1031.59 1267.98 1028.44 1267.98 Q1024.88 1267.98 1022.73 1269.99 Q1020.6 1272 1020.27 1275.66 L1035.46 1275.64 Z" fill="#000000" fill-rule="nonzero" fill-opacity="1" /><path clip-path="url(#clip510)" d="M1058.49 1277.88 Q1053.33 1277.88 1051.34 1279.06 Q1049.35 1280.24 1049.35 1283.09 Q1049.35 1285.36 1050.83 1286.7 Q1052.33 1288.02 1054.9 1288.02 Q1058.44 1288.02 1060.57 1285.52 Q1062.73 1283 1062.73 1278.83 L1062.73 1277.88 L1058.49 1277.88 M1066.98 1276.12 L1066.98 1290.92 L1062.73 1290.92 L1062.73 1286.98 Q1061.27 1289.34 1059.09 1290.48 Q1056.92 1291.59 1053.77 1291.59 Q1049.79 1291.59 1047.42 1289.36 Q1045.09 1287.12 1045.09 1283.37 Q1045.09 1278.99 1048 1276.77 Q1050.94 1274.55 1056.75 1274.55 L1062.73 1274.55 L1062.73 1274.13 Q1062.73 1271.19 1060.78 1269.6 Q1058.86 1267.98 1055.36 1267.98 Q1053.14 1267.98 1051.04 1268.51 Q1048.93 1269.04 1046.98 1270.11 L1046.98 1266.17 Q1049.32 1265.27 1051.52 1264.83 Q1053.72 1264.36 1055.8 1264.36 Q1061.43 1264.36 1064.21 1267.28 Q1066.98 1270.2 1066.98 1276.12 Z" fill="#000000" fill-rule="nonzero" fill-opacity="1" /><path clip-path="url(#clip510)" d="M1090.78 1268.97 Q1090.06 1268.55 1089.21 1268.37 Q1088.37 1268.16 1087.36 1268.16 Q1083.74 1268.16 1081.8 1270.52 Q1079.88 1272.86 1079.88 1277.26 L1079.88 1290.92 L1075.6 1290.92 L1075.6 1264.99 L1079.88 1264.99 L1079.88 1269.02 Q1081.22 1266.66 1083.37 1265.52 Q1085.53 1264.36 1088.61 1264.36 Q1089.04 1264.36 1089.58 1264.43 Q1090.11 1264.48 1090.76 1264.6 L1090.78 1268.97 Z" fill="#000000" fill-rule="nonzero" fill-opacity="1" /><path clip-path="url(#clip510)" d="M1120.55 1254.94 Q1117.45 1260.27 1115.94 1265.48 Q1114.44 1270.68 1114.44 1276.03 Q1114.44 1281.38 1115.94 1286.63 Q1117.47 1291.86 1120.55 1297.17 L1116.85 1297.17 Q1113.37 1291.73 1111.64 1286.47 Q1109.92 1281.22 1109.92 1276.03 Q1109.92 1270.87 1111.64 1265.64 Q1113.35 1260.41 1116.85 1254.94 L1120.55 1254.94 Z" fill="#000000" fill-rule="nonzero" fill-opacity="1" /><path clip-path="url(#clip510)" d="M1149.72 1257.49 L1149.72 1262.05 Q1147.05 1260.78 1144.69 1260.15 Q1142.33 1259.53 1140.13 1259.53 Q1136.31 1259.53 1134.23 1261.01 Q1132.17 1262.49 1132.17 1265.22 Q1132.17 1267.51 1133.54 1268.69 Q1134.92 1269.85 1138.77 1270.57 L1141.59 1271.15 Q1146.82 1272.14 1149.3 1274.67 Q1151.8 1277.17 1151.8 1281.38 Q1151.8 1286.4 1148.42 1288.99 Q1145.06 1291.59 1138.56 1291.59 Q1136.1 1291.59 1133.33 1291.03 Q1130.57 1290.48 1127.61 1289.39 L1127.61 1284.57 Q1130.46 1286.17 1133.19 1286.98 Q1135.92 1287.79 1138.56 1287.79 Q1142.56 1287.79 1144.74 1286.22 Q1146.91 1284.64 1146.91 1281.73 Q1146.91 1279.18 1145.34 1277.74 Q1143.79 1276.31 1140.23 1275.59 L1137.38 1275.04 Q1132.15 1273.99 1129.81 1271.77 Q1127.47 1269.55 1127.47 1265.59 Q1127.47 1261.01 1130.69 1258.37 Q1133.93 1255.73 1139.6 1255.73 Q1142.03 1255.73 1144.55 1256.17 Q1147.08 1256.61 1149.72 1257.49 Z" fill="#000000" fill-rule="nonzero" fill-opacity="1" /><path clip-path="url(#clip510)" d="M1169.69 1293.32 Q1167.89 1297.95 1166.17 1299.36 Q1164.46 1300.78 1161.59 1300.78 L1158.19 1300.78 L1158.19 1297.21 L1160.69 1297.21 Q1162.45 1297.21 1163.42 1296.38 Q1164.39 1295.54 1165.57 1292.44 L1166.34 1290.5 L1155.85 1264.99 L1160.36 1264.99 L1168.47 1285.27 L1176.57 1264.99 L1181.08 1264.99 L1169.69 1293.32 Z" fill="#000000" fill-rule="nonzero" fill-opacity="1" /><path clip-path="url(#clip510)" d="M1207.15 1269.97 Q1208.74 1267.1 1210.97 1265.73 Q1213.19 1264.36 1216.2 1264.36 Q1220.25 1264.36 1222.45 1267.21 Q1224.65 1270.04 1224.65 1275.27 L1224.65 1290.92 L1220.36 1290.92 L1220.36 1275.41 Q1220.36 1271.68 1219.04 1269.87 Q1217.72 1268.07 1215.02 1268.07 Q1211.71 1268.07 1209.78 1270.27 Q1207.86 1272.47 1207.86 1276.26 L1207.86 1290.92 L1203.58 1290.92 L1203.58 1275.41 Q1203.58 1271.66 1202.26 1269.87 Q1200.94 1268.07 1198.19 1268.07 Q1194.92 1268.07 1193 1270.29 Q1191.08 1272.49 1191.08 1276.26 L1191.08 1290.92 L1186.8 1290.92 L1186.8 1264.99 L1191.08 1264.99 L1191.08 1269.02 Q1192.54 1266.63 1194.58 1265.5 Q1196.61 1264.36 1199.41 1264.36 Q1202.24 1264.36 1204.21 1265.8 Q1206.2 1267.23 1207.15 1269.97 Z" fill="#000000" fill-rule="nonzero" fill-opacity="1" /><path clip-path="url(#clip510)" d="M1238 1274.41 L1238 1287.07 L1245.5 1287.07 Q1249.28 1287.07 1251.08 1285.52 Q1252.91 1283.95 1252.91 1280.73 Q1252.91 1277.49 1251.08 1275.96 Q1249.28 1274.41 1245.5 1274.41 L1238 1274.41 M1238 1260.2 L1238 1270.61 L1244.92 1270.61 Q1248.35 1270.61 1250.02 1269.34 Q1251.71 1268.05 1251.71 1265.41 Q1251.71 1262.79 1250.02 1261.49 Q1248.35 1260.2 1244.92 1260.2 L1238 1260.2 M1233.33 1256.36 L1245.27 1256.36 Q1250.62 1256.36 1253.51 1258.58 Q1256.41 1260.8 1256.41 1264.9 Q1256.41 1268.07 1254.92 1269.94 Q1253.44 1271.82 1250.57 1272.28 Q1254.02 1273.02 1255.92 1275.38 Q1257.84 1277.72 1257.84 1281.24 Q1257.84 1285.87 1254.69 1288.39 Q1251.54 1290.92 1245.73 1290.92 L1233.33 1290.92 L1233.33 1256.36 Z" fill="#000000" fill-rule="nonzero" fill-opacity="1" /><path clip-path="url(#clip510)" d="M1275.71 1267.98 Q1272.28 1267.98 1270.29 1270.66 Q1268.3 1273.32 1268.3 1277.98 Q1268.3 1282.63 1270.27 1285.31 Q1272.26 1287.98 1275.71 1287.98 Q1279.11 1287.98 1281.1 1285.29 Q1283.09 1282.61 1283.09 1277.98 Q1283.09 1273.37 1281.1 1270.68 Q1279.11 1267.98 1275.71 1267.98 M1275.71 1264.36 Q1281.27 1264.36 1284.44 1267.98 Q1287.61 1271.59 1287.61 1277.98 Q1287.61 1284.34 1284.44 1287.98 Q1281.27 1291.59 1275.71 1291.59 Q1270.13 1291.59 1266.96 1287.98 Q1263.81 1284.34 1263.81 1277.98 Q1263.81 1271.59 1266.96 1267.98 Q1270.13 1264.36 1275.71 1264.36 Z" fill="#000000" fill-rule="nonzero" fill-opacity="1" /><path clip-path="url(#clip510)" d="M1294.67 1254.9 L1298.93 1254.9 L1298.93 1290.92 L1294.67 1290.92 L1294.67 1254.9 Z" fill="#000000" fill-rule="nonzero" fill-opacity="1" /><path clip-path="url(#clip510)" d="M1312.05 1257.63 L1312.05 1264.99 L1320.83 1264.99 L1320.83 1268.3 L1312.05 1268.3 L1312.05 1282.37 Q1312.05 1285.54 1312.91 1286.45 Q1313.79 1287.35 1316.45 1287.35 L1320.83 1287.35 L1320.83 1290.92 L1316.45 1290.92 Q1311.52 1290.92 1309.65 1289.09 Q1307.77 1287.23 1307.77 1282.37 L1307.77 1268.3 L1304.65 1268.3 L1304.65 1264.99 L1307.77 1264.99 L1307.77 1257.63 L1312.05 1257.63 Z" fill="#000000" fill-rule="nonzero" fill-opacity="1" /><path clip-path="url(#clip510)" d="M1324.58 1264.99 L1344.81 1264.99 L1344.81 1268.88 L1328.79 1287.51 L1344.81 1287.51 L1344.81 1290.92 L1324 1290.92 L1324 1287.03 L1340.02 1268.39 L1324.58 1268.39 L1324.58 1264.99 Z" fill="#000000" fill-rule="nonzero" fill-opacity="1" /><path clip-path="url(#clip510)" d="M1350.64 1254.94 L1354.34 1254.94 Q1357.82 1260.41 1359.53 1265.64 Q1361.27 1270.87 1361.27 1276.03 Q1361.27 1281.22 1359.53 1286.47 Q1357.82 1291.73 1354.34 1297.17 L1350.64 1297.17 Q1353.72 1291.86 1355.22 1286.63 Q1356.75 1281.38 1356.75 1276.03 Q1356.75 1270.68 1355.22 1265.48 Q1353.72 1260.27 1350.64 1254.94 Z" fill="#000000" fill-rule="nonzero" fill-opacity="1" /><path clip-path="url(#clip510)" d="M1370.9 1285.04 L1375.78 1285.04 L1375.78 1289.02 L1371.98 1296.42 L1369 1296.42 L1370.9 1289.02 L1370.9 1285.04 Z" fill="#000000" fill-rule="nonzero" fill-opacity="1" /><path clip-path="url(#clip510)" d="M1418.6 1265.98 L1418.6 1269.97 Q1416.8 1268.97 1414.97 1268.48 Q1413.16 1267.98 1411.31 1267.98 Q1407.17 1267.98 1404.88 1270.61 Q1402.58 1273.23 1402.58 1277.98 Q1402.58 1282.72 1404.88 1285.36 Q1407.17 1287.98 1411.31 1287.98 Q1413.16 1287.98 1414.97 1287.49 Q1416.8 1286.98 1418.6 1285.98 L1418.6 1289.92 Q1416.82 1290.75 1414.9 1291.17 Q1413 1291.59 1410.85 1291.59 Q1404.99 1291.59 1401.54 1287.91 Q1398.09 1284.23 1398.09 1277.98 Q1398.09 1271.63 1401.57 1268 Q1405.06 1264.36 1411.13 1264.36 Q1413.09 1264.36 1414.97 1264.78 Q1416.84 1265.17 1418.6 1265.98 Z" fill="#000000" fill-rule="nonzero" fill-opacity="1" /><path clip-path="url(#clip510)" d="M1436.06 1267.98 Q1432.63 1267.98 1430.64 1270.66 Q1428.65 1273.32 1428.65 1277.98 Q1428.65 1282.63 1430.62 1285.31 Q1432.61 1287.98 1436.06 1287.98 Q1439.46 1287.98 1441.45 1285.29 Q1443.44 1282.61 1443.44 1277.98 Q1443.44 1273.37 1441.45 1270.68 Q1439.46 1267.98 1436.06 1267.98 M1436.06 1264.36 Q1441.61 1264.36 1444.78 1267.98 Q1447.96 1271.59 1447.96 1277.98 Q1447.96 1284.34 1444.78 1287.98 Q1441.61 1291.59 1436.06 1291.59 Q1430.48 1291.59 1427.31 1287.98 Q1424.16 1284.34 1424.16 1277.98 Q1424.16 1271.59 1427.31 1267.98 Q1430.48 1264.36 1436.06 1264.36 Z" fill="#000000" fill-rule="nonzero" fill-opacity="1" /><path clip-path="url(#clip510)" d="M1455.02 1254.9 L1459.27 1254.9 L1459.27 1290.92 L1455.02 1290.92 L1455.02 1254.9 Z" fill="#000000" fill-rule="nonzero" fill-opacity="1" /><path clip-path="url(#clip510)" d="M1485.25 1268.92 L1485.25 1254.9 L1489.51 1254.9 L1489.51 1290.92 L1485.25 1290.92 L1485.25 1287.03 Q1483.9 1289.34 1481.84 1290.48 Q1479.81 1291.59 1476.94 1291.59 Q1472.24 1291.59 1469.27 1287.84 Q1466.33 1284.09 1466.33 1277.98 Q1466.33 1271.86 1469.27 1268.11 Q1472.24 1264.36 1476.94 1264.36 Q1479.81 1264.36 1481.84 1265.5 Q1483.9 1266.61 1485.25 1268.92 M1470.73 1277.98 Q1470.73 1282.67 1472.65 1285.36 Q1474.6 1288.02 1477.98 1288.02 Q1481.36 1288.02 1483.3 1285.36 Q1485.25 1282.67 1485.25 1277.98 Q1485.25 1273.28 1483.3 1270.61 Q1481.36 1267.93 1477.98 1267.93 Q1474.6 1267.93 1472.65 1270.61 Q1470.73 1273.28 1470.73 1277.98 Z" fill="#000000" fill-rule="nonzero" fill-opacity="1" /><path clip-path="url(#clip510)" d="M1530.41 1268.92 L1530.41 1254.9 L1534.67 1254.9 L1534.67 1290.92 L1530.41 1290.92 L1530.41 1287.03 Q1529.07 1289.34 1527.01 1290.48 Q1524.97 1291.59 1522.1 1291.59 Q1517.4 1291.59 1514.44 1287.84 Q1511.5 1284.09 1511.5 1277.98 Q1511.5 1271.86 1514.44 1268.11 Q1517.4 1264.36 1522.1 1264.36 Q1524.97 1264.36 1527.01 1265.5 Q1529.07 1266.61 1530.41 1268.92 M1515.89 1277.98 Q1515.89 1282.67 1517.82 1285.36 Q1519.76 1288.02 1523.14 1288.02 Q1526.52 1288.02 1528.46 1285.36 Q1530.41 1282.67 1530.41 1277.98 Q1530.41 1273.28 1528.46 1270.61 Q1526.52 1267.93 1523.14 1267.93 Q1519.76 1267.93 1517.82 1270.61 Q1515.89 1273.28 1515.89 1277.98 Z" fill="#000000" fill-rule="nonzero" fill-opacity="1" /><path clip-path="url(#clip510)" d="M1555.22 1277.88 Q1550.06 1277.88 1548.07 1279.06 Q1546.08 1280.24 1546.08 1283.09 Q1546.08 1285.36 1547.56 1286.7 Q1549.07 1288.02 1551.64 1288.02 Q1555.18 1288.02 1557.31 1285.52 Q1559.46 1283 1559.46 1278.83 L1559.46 1277.88 L1555.22 1277.88 M1563.72 1276.12 L1563.72 1290.92 L1559.46 1290.92 L1559.46 1286.98 Q1558 1289.34 1555.82 1290.48 Q1553.65 1291.59 1550.5 1291.59 Q1546.52 1291.59 1544.16 1289.36 Q1541.82 1287.12 1541.82 1283.37 Q1541.82 1278.99 1544.74 1276.77 Q1547.68 1274.55 1553.49 1274.55 L1559.46 1274.55 L1559.46 1274.13 Q1559.46 1271.19 1557.51 1269.6 Q1555.59 1267.98 1552.1 1267.98 Q1549.88 1267.98 1547.77 1268.51 Q1545.66 1269.04 1543.72 1270.11 L1543.72 1266.17 Q1546.06 1265.27 1548.26 1264.83 Q1550.45 1264.36 1552.54 1264.36 Q1558.16 1264.36 1560.94 1267.28 Q1563.72 1270.2 1563.72 1276.12 Z" fill="#000000" fill-rule="nonzero" fill-opacity="1" /><path clip-path="url(#clip510)" d="M1587.51 1268.97 Q1586.8 1268.55 1585.94 1268.37 Q1585.11 1268.16 1584.09 1268.16 Q1580.48 1268.16 1578.53 1270.52 Q1576.61 1272.86 1576.61 1277.26 L1576.61 1290.92 L1572.33 1290.92 L1572.33 1264.99 L1576.61 1264.99 L1576.61 1269.02 Q1577.95 1266.66 1580.11 1265.52 Q1582.26 1264.36 1585.34 1264.36 Q1585.78 1264.36 1586.31 1264.43 Q1586.84 1264.48 1587.49 1264.6 L1587.51 1268.97 Z" fill="#000000" fill-rule="nonzero" fill-opacity="1" /><path clip-path="url(#clip510)" d="M1591.82 1254.9 L1596.1 1254.9 L1596.1 1276.17 L1608.81 1264.99 L1614.25 1264.99 L1600.5 1277.12 L1614.83 1290.92 L1609.27 1290.92 L1596.1 1278.25 L1596.1 1290.92 L1591.82 1290.92 L1591.82 1254.9 Z" fill="#000000" fill-rule="nonzero" fill-opacity="1" /><path clip-path="url(#clip510)" d="M1654.69 1269.97 Q1656.29 1267.1 1658.51 1265.73 Q1660.73 1264.36 1663.74 1264.36 Q1667.79 1264.36 1669.99 1267.21 Q1672.19 1270.04 1672.19 1275.27 L1672.19 1290.92 L1667.91 1290.92 L1667.91 1275.41 Q1667.91 1271.68 1666.59 1269.87 Q1665.27 1268.07 1662.56 1268.07 Q1659.25 1268.07 1657.33 1270.27 Q1655.41 1272.47 1655.41 1276.26 L1655.41 1290.92 L1651.13 1290.92 L1651.13 1275.41 Q1651.13 1271.66 1649.81 1269.87 Q1648.49 1268.07 1645.73 1268.07 Q1642.47 1268.07 1640.55 1270.29 Q1638.63 1272.49 1638.63 1276.26 L1638.63 1290.92 L1634.34 1290.92 L1634.34 1264.99 L1638.63 1264.99 L1638.63 1269.02 Q1640.08 1266.63 1642.12 1265.5 Q1644.16 1264.36 1646.96 1264.36 Q1649.78 1264.36 1651.75 1265.8 Q1653.74 1267.23 1654.69 1269.97 Z" fill="#000000" fill-rule="nonzero" fill-opacity="1" /><path clip-path="url(#clip510)" d="M1692.47 1277.88 Q1687.31 1277.88 1685.31 1279.06 Q1683.32 1280.24 1683.32 1283.09 Q1683.32 1285.36 1684.81 1286.7 Q1686.31 1288.02 1688.88 1288.02 Q1692.42 1288.02 1694.55 1285.52 Q1696.7 1283 1696.7 1278.83 L1696.7 1277.88 L1692.47 1277.88 M1700.96 1276.12 L1700.96 1290.92 L1696.7 1290.92 L1696.7 1286.98 Q1695.25 1289.34 1693.07 1290.48 Q1690.89 1291.59 1687.75 1291.59 Q1683.76 1291.59 1681.4 1289.36 Q1679.06 1287.12 1679.06 1283.37 Q1679.06 1278.99 1681.98 1276.77 Q1684.92 1274.55 1690.73 1274.55 L1696.7 1274.55 L1696.7 1274.13 Q1696.7 1271.19 1694.76 1269.6 Q1692.84 1267.98 1689.34 1267.98 Q1687.12 1267.98 1685.01 1268.51 Q1682.91 1269.04 1680.96 1270.11 L1680.96 1266.17 Q1683.3 1265.27 1685.5 1264.83 Q1687.7 1264.36 1689.78 1264.36 Q1695.41 1264.36 1698.19 1267.28 Q1700.96 1270.2 1700.96 1276.12 Z" fill="#000000" fill-rule="nonzero" fill-opacity="1" /><path clip-path="url(#clip510)" d="M1713.95 1257.63 L1713.95 1264.99 L1722.72 1264.99 L1722.72 1268.3 L1713.95 1268.3 L1713.95 1282.37 Q1713.95 1285.54 1714.81 1286.45 Q1715.69 1287.35 1718.35 1287.35 L1722.72 1287.35 L1722.72 1290.92 L1718.35 1290.92 Q1713.42 1290.92 1711.54 1289.09 Q1709.67 1287.23 1709.67 1282.37 L1709.67 1268.3 L1706.54 1268.3 L1706.54 1264.99 L1709.67 1264.99 L1709.67 1257.63 L1713.95 1257.63 Z" fill="#000000" fill-rule="nonzero" fill-opacity="1" /><path clip-path="url(#clip510)" d="M1732.54 1257.63 L1732.54 1264.99 L1741.31 1264.99 L1741.31 1268.3 L1732.54 1268.3 L1732.54 1282.37 Q1732.54 1285.54 1733.39 1286.45 Q1734.27 1287.35 1736.93 1287.35 L1741.31 1287.35 L1741.31 1290.92 L1736.93 1290.92 Q1732 1290.92 1730.13 1289.09 Q1728.25 1287.23 1728.25 1282.37 L1728.25 1268.3 L1725.13 1268.3 L1725.13 1264.99 L1728.25 1264.99 L1728.25 1257.63 L1732.54 1257.63 Z" fill="#000000" fill-rule="nonzero" fill-opacity="1" /><path clip-path="url(#clip510)" d="M1769.09 1276.89 L1769.09 1278.97 L1749.5 1278.97 Q1749.78 1283.37 1752.14 1285.68 Q1754.53 1287.98 1758.76 1287.98 Q1761.22 1287.98 1763.51 1287.37 Q1765.82 1286.77 1768.09 1285.57 L1768.09 1289.6 Q1765.8 1290.57 1763.39 1291.08 Q1760.99 1291.59 1758.51 1291.59 Q1752.31 1291.59 1748.67 1287.98 Q1745.06 1284.36 1745.06 1278.21 Q1745.06 1271.84 1748.49 1268.11 Q1751.93 1264.36 1757.77 1264.36 Q1763 1264.36 1766.03 1267.74 Q1769.09 1271.1 1769.09 1276.89 M1764.83 1275.64 Q1764.78 1272.14 1762.86 1270.06 Q1760.96 1267.98 1757.81 1267.98 Q1754.25 1267.98 1752.1 1269.99 Q1749.97 1272 1749.64 1275.66 L1764.83 1275.64 Z" fill="#000000" fill-rule="nonzero" fill-opacity="1" /><path clip-path="url(#clip510)" d="M1791.1 1268.97 Q1790.38 1268.55 1789.53 1268.37 Q1788.69 1268.16 1787.68 1268.16 Q1784.06 1268.16 1782.12 1270.52 Q1780.2 1272.86 1780.2 1277.26 L1780.2 1290.92 L1775.92 1290.92 L1775.92 1264.99 L1780.2 1264.99 L1780.2 1269.02 Q1781.54 1266.66 1783.69 1265.52 Q1785.85 1264.36 1788.93 1264.36 Q1789.37 1264.36 1789.9 1264.43 Q1790.43 1264.48 1791.08 1264.6 L1791.1 1268.97 Z" fill="#000000" fill-rule="nonzero" fill-opacity="1" /><polyline clip-path="url(#clip510)" style="stroke:#3da44d; stroke-linecap:round; stroke-linejoin:round; stroke-width:8; stroke-opacity:1; fill:none" stroke-dasharray="4, 8" points="350.495,1325.48 490.187,1325.48 "/>
<path clip-path="url(#clip510)" d="M513.469 1308.2 L535.691 1308.2 L535.691 1310.19 L523.145 1342.76 L518.261 1342.76 L530.066 1312.13 L513.469 1312.13 L513.469 1308.2 Z" fill="#000000" fill-rule="nonzero" fill-opacity="1" /><path clip-path="url(#clip510)" d="M544.858 1308.2 L563.214 1308.2 L563.214 1312.13 L549.14 1312.13 L549.14 1320.6 Q550.159 1320.26 551.177 1320.09 Q552.196 1319.91 553.214 1319.91 Q559.001 1319.91 562.381 1323.08 Q565.761 1326.25 565.761 1331.67 Q565.761 1337.25 562.288 1340.35 Q558.816 1343.43 552.497 1343.43 Q550.321 1343.43 548.052 1343.06 Q545.807 1342.69 543.4 1341.95 L543.4 1337.25 Q545.483 1338.38 547.705 1338.94 Q549.927 1339.49 552.404 1339.49 Q556.409 1339.49 558.747 1337.38 Q561.085 1335.28 561.085 1331.67 Q561.085 1328.06 558.747 1325.95 Q556.409 1323.84 552.404 1323.84 Q550.529 1323.84 548.654 1324.26 Q546.802 1324.68 544.858 1325.56 L544.858 1308.2 Z" fill="#000000" fill-rule="nonzero" fill-opacity="1" /><path clip-path="url(#clip510)" d="M618.214 1317.29 L607.635 1327.92 L618.214 1338.5 L615.459 1341.3 L604.835 1330.67 L594.21 1341.3 L591.478 1338.5 L602.034 1327.92 L591.478 1317.29 L594.21 1314.49 L604.835 1325.12 L615.459 1314.49 L618.214 1317.29 Z" fill="#000000" fill-rule="nonzero" fill-opacity="1" /><path clip-path="url(#clip510)" d="M644.07 1306.74 L648.353 1306.74 L648.353 1328.01 L661.061 1316.83 L666.501 1316.83 L652.751 1328.96 L667.08 1342.76 L661.524 1342.76 L648.353 1330.09 L648.353 1342.76 L644.07 1342.76 L644.07 1306.74 Z" fill="#000000" fill-rule="nonzero" fill-opacity="1" /><path clip-path="url(#clip510)" d="M696.987 1306.78 Q693.885 1312.11 692.38 1317.32 Q690.876 1322.52 690.876 1327.87 Q690.876 1333.22 692.38 1338.47 Q693.908 1343.7 696.987 1349.01 L693.283 1349.01 Q689.811 1343.57 688.075 1338.31 Q686.362 1333.06 686.362 1327.87 Q686.362 1322.71 688.075 1317.48 Q689.788 1312.25 693.283 1306.78 L696.987 1306.78 Z" fill="#000000" fill-rule="nonzero" fill-opacity="1" /><path clip-path="url(#clip510)" d="M717.033 1329.72 Q711.871 1329.72 709.88 1330.9 Q707.89 1332.08 707.89 1334.93 Q707.89 1337.2 709.371 1338.54 Q710.876 1339.86 713.445 1339.86 Q716.987 1339.86 719.116 1337.36 Q721.269 1334.84 721.269 1330.67 L721.269 1329.72 L717.033 1329.72 M725.528 1327.96 L725.528 1342.76 L721.269 1342.76 L721.269 1338.82 Q719.811 1341.18 717.635 1342.32 Q715.459 1343.43 712.311 1343.43 Q708.329 1343.43 705.968 1341.2 Q703.63 1338.96 703.63 1335.21 Q703.63 1330.83 706.547 1328.61 Q709.487 1326.39 715.297 1326.39 L721.269 1326.39 L721.269 1325.97 Q721.269 1323.03 719.325 1321.44 Q717.403 1319.82 713.908 1319.82 Q711.686 1319.82 709.579 1320.35 Q707.473 1320.88 705.528 1321.95 L705.528 1318.01 Q707.866 1317.11 710.065 1316.67 Q712.264 1316.2 714.348 1316.2 Q719.973 1316.2 722.751 1319.12 Q725.528 1322.04 725.528 1327.96 Z" fill="#000000" fill-rule="nonzero" fill-opacity="1" /><path clip-path="url(#clip510)" d="M751.362 1320.76 L751.362 1306.74 L755.621 1306.74 L755.621 1342.76 L751.362 1342.76 L751.362 1338.87 Q750.019 1341.18 747.959 1342.32 Q745.922 1343.43 743.051 1343.43 Q738.352 1343.43 735.389 1339.68 Q732.45 1335.93 732.45 1329.82 Q732.45 1323.7 735.389 1319.95 Q738.352 1316.2 743.051 1316.2 Q745.922 1316.2 747.959 1317.34 Q750.019 1318.45 751.362 1320.76 M736.848 1329.82 Q736.848 1334.51 738.769 1337.2 Q740.713 1339.86 744.093 1339.86 Q747.473 1339.86 749.417 1337.2 Q751.362 1334.51 751.362 1329.82 Q751.362 1325.12 749.417 1322.45 Q747.473 1319.77 744.093 1319.77 Q740.713 1319.77 738.769 1322.45 Q736.848 1325.12 736.848 1329.82 Z" fill="#000000" fill-rule="nonzero" fill-opacity="1" /><path clip-path="url(#clip510)" d="M776.176 1329.72 Q771.014 1329.72 769.023 1330.9 Q767.033 1332.08 767.033 1334.93 Q767.033 1337.2 768.514 1338.54 Q770.019 1339.86 772.588 1339.86 Q776.13 1339.86 778.26 1337.36 Q780.412 1334.84 780.412 1330.67 L780.412 1329.72 L776.176 1329.72 M784.672 1327.96 L784.672 1342.76 L780.412 1342.76 L780.412 1338.82 Q778.954 1341.18 776.778 1342.32 Q774.602 1343.43 771.454 1343.43 Q767.473 1343.43 765.111 1341.2 Q762.773 1338.96 762.773 1335.21 Q762.773 1330.83 765.69 1328.61 Q768.63 1326.39 774.44 1326.39 L780.412 1326.39 L780.412 1325.97 Q780.412 1323.03 778.468 1321.44 Q776.547 1319.82 773.051 1319.82 Q770.829 1319.82 768.723 1320.35 Q766.616 1320.88 764.672 1321.95 L764.672 1318.01 Q767.01 1317.11 769.209 1316.67 Q771.408 1316.2 773.491 1316.2 Q779.116 1316.2 781.894 1319.12 Q784.672 1322.04 784.672 1327.96 Z" fill="#000000" fill-rule="nonzero" fill-opacity="1" /><path clip-path="url(#clip510)" d="M797.565 1338.87 L797.565 1352.62 L793.283 1352.62 L793.283 1316.83 L797.565 1316.83 L797.565 1320.76 Q798.908 1318.45 800.945 1317.34 Q803.005 1316.2 805.852 1316.2 Q810.574 1316.2 813.514 1319.95 Q816.477 1323.7 816.477 1329.82 Q816.477 1335.93 813.514 1339.68 Q810.574 1343.43 805.852 1343.43 Q803.005 1343.43 800.945 1342.32 Q798.908 1341.18 797.565 1338.87 M812.056 1329.82 Q812.056 1325.12 810.111 1322.45 Q808.19 1319.77 804.81 1319.77 Q801.431 1319.77 799.486 1322.45 Q797.565 1325.12 797.565 1329.82 Q797.565 1334.51 799.486 1337.2 Q801.431 1339.86 804.81 1339.86 Q808.19 1339.86 810.111 1337.2 Q812.056 1334.51 812.056 1329.82 Z" fill="#000000" fill-rule="nonzero" fill-opacity="1" /><path clip-path="url(#clip510)" d="M827.75 1309.47 L827.75 1316.83 L836.523 1316.83 L836.523 1320.14 L827.75 1320.14 L827.75 1334.21 Q827.75 1337.38 828.606 1338.29 Q829.486 1339.19 832.148 1339.19 L836.523 1339.19 L836.523 1342.76 L832.148 1342.76 Q827.218 1342.76 825.343 1340.93 Q823.468 1339.07 823.468 1334.21 L823.468 1320.14 L820.343 1320.14 L820.343 1316.83 L823.468 1316.83 L823.468 1309.47 L827.75 1309.47 Z" fill="#000000" fill-rule="nonzero" fill-opacity="1" /><path clip-path="url(#clip510)" d="M842.125 1316.83 L846.384 1316.83 L846.384 1342.76 L842.125 1342.76 L842.125 1316.83 M842.125 1306.74 L846.384 1306.74 L846.384 1312.13 L842.125 1312.13 L842.125 1306.74 Z" fill="#000000" fill-rule="nonzero" fill-opacity="1" /><path clip-path="url(#clip510)" d="M852.241 1316.83 L856.754 1316.83 L864.856 1338.59 L872.958 1316.83 L877.472 1316.83 L867.75 1342.76 L861.963 1342.76 L852.241 1316.83 Z" fill="#000000" fill-rule="nonzero" fill-opacity="1" /><path clip-path="url(#clip510)" d="M905.527 1328.73 L905.527 1330.81 L885.944 1330.81 Q886.222 1335.21 888.583 1337.52 Q890.967 1339.82 895.203 1339.82 Q897.657 1339.82 899.949 1339.21 Q902.263 1338.61 904.532 1337.41 L904.532 1341.44 Q902.24 1342.41 899.833 1342.92 Q897.426 1343.43 894.949 1343.43 Q888.745 1343.43 885.111 1339.82 Q881.5 1336.2 881.5 1330.05 Q881.5 1323.68 884.926 1319.95 Q888.375 1316.2 894.208 1316.2 Q899.439 1316.2 902.472 1319.58 Q905.527 1322.94 905.527 1328.73 M901.268 1327.48 Q901.222 1323.98 899.301 1321.9 Q897.402 1319.82 894.254 1319.82 Q890.689 1319.82 888.537 1321.83 Q886.407 1323.84 886.083 1327.5 L901.268 1327.48 Z" fill="#000000" fill-rule="nonzero" fill-opacity="1" /><path clip-path="url(#clip510)" d="M911.847 1306.78 L915.55 1306.78 Q919.023 1312.25 920.736 1317.48 Q922.472 1322.71 922.472 1327.87 Q922.472 1333.06 920.736 1338.31 Q919.023 1343.57 915.55 1349.01 L911.847 1349.01 Q914.925 1343.7 916.43 1338.47 Q917.958 1333.22 917.958 1327.87 Q917.958 1322.52 916.43 1317.32 Q914.925 1312.11 911.847 1306.78 Z" fill="#000000" fill-rule="nonzero" fill-opacity="1" /><path clip-path="url(#clip510)" d="M932.101 1336.88 L936.986 1336.88 L936.986 1340.86 L933.189 1348.26 L930.203 1348.26 L932.101 1340.86 L932.101 1336.88 Z" fill="#000000" fill-rule="nonzero" fill-opacity="1" /><path clip-path="url(#clip510)" d="M961.152 1306.74 L965.411 1306.74 L965.411 1342.76 L961.152 1342.76 L961.152 1306.74 Z" fill="#000000" fill-rule="nonzero" fill-opacity="1" /><path clip-path="url(#clip510)" d="M974.323 1316.83 L978.583 1316.83 L978.583 1342.76 L974.323 1342.76 L974.323 1316.83 M974.323 1306.74 L978.583 1306.74 L978.583 1312.13 L974.323 1312.13 L974.323 1306.74 Z" fill="#000000" fill-rule="nonzero" fill-opacity="1" /><path clip-path="url(#clip510)" d="M1009.05 1327.11 L1009.05 1342.76 L1004.79 1342.76 L1004.79 1327.25 Q1004.79 1323.57 1003.35 1321.74 Q1001.92 1319.91 999.045 1319.91 Q995.596 1319.91 993.606 1322.11 Q991.615 1324.31 991.615 1328.1 L991.615 1342.76 L987.332 1342.76 L987.332 1316.83 L991.615 1316.83 L991.615 1320.86 Q993.143 1318.52 995.203 1317.36 Q997.286 1316.2 999.994 1316.2 Q1004.46 1316.2 1006.75 1318.98 Q1009.05 1321.74 1009.05 1327.11 Z" fill="#000000" fill-rule="nonzero" fill-opacity="1" /><path clip-path="url(#clip510)" d="M1039.72 1328.73 L1039.72 1330.81 L1020.13 1330.81 Q1020.41 1335.21 1022.77 1337.52 Q1025.16 1339.82 1029.39 1339.82 Q1031.85 1339.82 1034.14 1339.21 Q1036.45 1338.61 1038.72 1337.41 L1038.72 1341.44 Q1036.43 1342.41 1034.02 1342.92 Q1031.61 1343.43 1029.14 1343.43 Q1022.93 1343.43 1019.3 1339.82 Q1015.69 1336.2 1015.69 1330.05 Q1015.69 1323.68 1019.11 1319.95 Q1022.56 1316.2 1028.4 1316.2 Q1033.63 1316.2 1036.66 1319.58 Q1039.72 1322.94 1039.72 1328.73 M1035.46 1327.48 Q1035.41 1323.98 1033.49 1321.9 Q1031.59 1319.82 1028.44 1319.82 Q1024.88 1319.82 1022.73 1321.83 Q1020.6 1323.84 1020.27 1327.5 L1035.46 1327.48 Z" fill="#000000" fill-rule="nonzero" fill-opacity="1" /><path clip-path="url(#clip510)" d="M1058.49 1329.72 Q1053.33 1329.72 1051.34 1330.9 Q1049.35 1332.08 1049.35 1334.93 Q1049.35 1337.2 1050.83 1338.54 Q1052.33 1339.86 1054.9 1339.86 Q1058.44 1339.86 1060.57 1337.36 Q1062.73 1334.84 1062.73 1330.67 L1062.73 1329.72 L1058.49 1329.72 M1066.98 1327.96 L1066.98 1342.76 L1062.73 1342.76 L1062.73 1338.82 Q1061.27 1341.18 1059.09 1342.32 Q1056.92 1343.43 1053.77 1343.43 Q1049.79 1343.43 1047.42 1341.2 Q1045.09 1338.96 1045.09 1335.21 Q1045.09 1330.83 1048 1328.61 Q1050.94 1326.39 1056.75 1326.39 L1062.73 1326.39 L1062.73 1325.97 Q1062.73 1323.03 1060.78 1321.44 Q1058.86 1319.82 1055.36 1319.82 Q1053.14 1319.82 1051.04 1320.35 Q1048.93 1320.88 1046.98 1321.95 L1046.98 1318.01 Q1049.32 1317.11 1051.52 1316.67 Q1053.72 1316.2 1055.8 1316.2 Q1061.43 1316.2 1064.21 1319.12 Q1066.98 1322.04 1066.98 1327.96 Z" fill="#000000" fill-rule="nonzero" fill-opacity="1" /><path clip-path="url(#clip510)" d="M1090.78 1320.81 Q1090.06 1320.39 1089.21 1320.21 Q1088.37 1320 1087.36 1320 Q1083.74 1320 1081.8 1322.36 Q1079.88 1324.7 1079.88 1329.1 L1079.88 1342.76 L1075.6 1342.76 L1075.6 1316.83 L1079.88 1316.83 L1079.88 1320.86 Q1081.22 1318.5 1083.37 1317.36 Q1085.53 1316.2 1088.61 1316.2 Q1089.04 1316.2 1089.58 1316.27 Q1090.11 1316.32 1090.76 1316.44 L1090.78 1320.81 Z" fill="#000000" fill-rule="nonzero" fill-opacity="1" /><path clip-path="url(#clip510)" d="M1120.55 1306.78 Q1117.45 1312.11 1115.94 1317.32 Q1114.44 1322.52 1114.44 1327.87 Q1114.44 1333.22 1115.94 1338.47 Q1117.47 1343.7 1120.55 1349.01 L1116.85 1349.01 Q1113.37 1343.57 1111.64 1338.31 Q1109.92 1333.06 1109.92 1327.87 Q1109.92 1322.71 1111.64 1317.48 Q1113.35 1312.25 1116.85 1306.78 L1120.55 1306.78 Z" fill="#000000" fill-rule="nonzero" fill-opacity="1" /><path clip-path="url(#clip510)" d="M1149.72 1309.33 L1149.72 1313.89 Q1147.05 1312.62 1144.69 1311.99 Q1142.33 1311.37 1140.13 1311.37 Q1136.31 1311.37 1134.23 1312.85 Q1132.17 1314.33 1132.17 1317.06 Q1132.17 1319.35 1133.54 1320.53 Q1134.92 1321.69 1138.77 1322.41 L1141.59 1322.99 Q1146.82 1323.98 1149.3 1326.51 Q1151.8 1329.01 1151.8 1333.22 Q1151.8 1338.24 1148.42 1340.83 Q1145.06 1343.43 1138.56 1343.43 Q1136.1 1343.43 1133.33 1342.87 Q1130.57 1342.32 1127.61 1341.23 L1127.61 1336.41 Q1130.46 1338.01 1133.19 1338.82 Q1135.92 1339.63 1138.56 1339.63 Q1142.56 1339.63 1144.74 1338.06 Q1146.91 1336.48 1146.91 1333.57 Q1146.91 1331.02 1145.34 1329.58 Q1143.79 1328.15 1140.23 1327.43 L1137.38 1326.88 Q1132.15 1325.83 1129.81 1323.61 Q1127.47 1321.39 1127.47 1317.43 Q1127.47 1312.85 1130.69 1310.21 Q1133.93 1307.57 1139.6 1307.57 Q1142.03 1307.57 1144.55 1308.01 Q1147.08 1308.45 1149.72 1309.33 Z" fill="#000000" fill-rule="nonzero" fill-opacity="1" /><path clip-path="url(#clip510)" d="M1169.69 1345.16 Q1167.89 1349.79 1166.17 1351.2 Q1164.46 1352.62 1161.59 1352.62 L1158.19 1352.62 L1158.19 1349.05 L1160.69 1349.05 Q1162.45 1349.05 1163.42 1348.22 Q1164.39 1347.38 1165.57 1344.28 L1166.34 1342.34 L1155.85 1316.83 L1160.36 1316.83 L1168.47 1337.11 L1176.57 1316.83 L1181.08 1316.83 L1169.69 1345.16 Z" fill="#000000" fill-rule="nonzero" fill-opacity="1" /><path clip-path="url(#clip510)" d="M1207.15 1321.81 Q1208.74 1318.94 1210.97 1317.57 Q1213.19 1316.2 1216.2 1316.2 Q1220.25 1316.2 1222.45 1319.05 Q1224.65 1321.88 1224.65 1327.11 L1224.65 1342.76 L1220.36 1342.76 L1220.36 1327.25 Q1220.36 1323.52 1219.04 1321.71 Q1217.72 1319.91 1215.02 1319.91 Q1211.71 1319.91 1209.78 1322.11 Q1207.86 1324.31 1207.86 1328.1 L1207.86 1342.76 L1203.58 1342.76 L1203.58 1327.25 Q1203.58 1323.5 1202.26 1321.71 Q1200.94 1319.91 1198.19 1319.91 Q1194.92 1319.91 1193 1322.13 Q1191.08 1324.33 1191.08 1328.1 L1191.08 1342.76 L1186.8 1342.76 L1186.8 1316.83 L1191.08 1316.83 L1191.08 1320.86 Q1192.54 1318.47 1194.58 1317.34 Q1196.61 1316.2 1199.41 1316.2 Q1202.24 1316.2 1204.21 1317.64 Q1206.2 1319.07 1207.15 1321.81 Z" fill="#000000" fill-rule="nonzero" fill-opacity="1" /><path clip-path="url(#clip510)" d="M1238 1326.25 L1238 1338.91 L1245.5 1338.91 Q1249.28 1338.91 1251.08 1337.36 Q1252.91 1335.79 1252.91 1332.57 Q1252.91 1329.33 1251.08 1327.8 Q1249.28 1326.25 1245.5 1326.25 L1238 1326.25 M1238 1312.04 L1238 1322.45 L1244.92 1322.45 Q1248.35 1322.45 1250.02 1321.18 Q1251.71 1319.89 1251.71 1317.25 Q1251.71 1314.63 1250.02 1313.33 Q1248.35 1312.04 1244.92 1312.04 L1238 1312.04 M1233.33 1308.2 L1245.27 1308.2 Q1250.62 1308.2 1253.51 1310.42 Q1256.41 1312.64 1256.41 1316.74 Q1256.41 1319.91 1254.92 1321.78 Q1253.44 1323.66 1250.57 1324.12 Q1254.02 1324.86 1255.92 1327.22 Q1257.84 1329.56 1257.84 1333.08 Q1257.84 1337.71 1254.69 1340.23 Q1251.54 1342.76 1245.73 1342.76 L1233.33 1342.76 L1233.33 1308.2 Z" fill="#000000" fill-rule="nonzero" fill-opacity="1" /><path clip-path="url(#clip510)" d="M1275.71 1319.82 Q1272.28 1319.82 1270.29 1322.5 Q1268.3 1325.16 1268.3 1329.82 Q1268.3 1334.47 1270.27 1337.15 Q1272.26 1339.82 1275.71 1339.82 Q1279.11 1339.82 1281.1 1337.13 Q1283.09 1334.45 1283.09 1329.82 Q1283.09 1325.21 1281.1 1322.52 Q1279.11 1319.82 1275.71 1319.82 M1275.71 1316.2 Q1281.27 1316.2 1284.44 1319.82 Q1287.61 1323.43 1287.61 1329.82 Q1287.61 1336.18 1284.44 1339.82 Q1281.27 1343.43 1275.71 1343.43 Q1270.13 1343.43 1266.96 1339.82 Q1263.81 1336.18 1263.81 1329.82 Q1263.81 1323.43 1266.96 1319.82 Q1270.13 1316.2 1275.71 1316.2 Z" fill="#000000" fill-rule="nonzero" fill-opacity="1" /><path clip-path="url(#clip510)" d="M1294.67 1306.74 L1298.93 1306.74 L1298.93 1342.76 L1294.67 1342.76 L1294.67 1306.74 Z" fill="#000000" fill-rule="nonzero" fill-opacity="1" /><path clip-path="url(#clip510)" d="M1312.05 1309.47 L1312.05 1316.83 L1320.83 1316.83 L1320.83 1320.14 L1312.05 1320.14 L1312.05 1334.21 Q1312.05 1337.38 1312.91 1338.29 Q1313.79 1339.19 1316.45 1339.19 L1320.83 1339.19 L1320.83 1342.76 L1316.45 1342.76 Q1311.52 1342.76 1309.65 1340.93 Q1307.77 1339.07 1307.77 1334.21 L1307.77 1320.14 L1304.65 1320.14 L1304.65 1316.83 L1307.77 1316.83 L1307.77 1309.47 L1312.05 1309.47 Z" fill="#000000" fill-rule="nonzero" fill-opacity="1" /><path clip-path="url(#clip510)" d="M1324.58 1316.83 L1344.81 1316.83 L1344.81 1320.72 L1328.79 1339.35 L1344.81 1339.35 L1344.81 1342.76 L1324 1342.76 L1324 1338.87 L1340.02 1320.23 L1324.58 1320.23 L1324.58 1316.83 Z" fill="#000000" fill-rule="nonzero" fill-opacity="1" /><path clip-path="url(#clip510)" d="M1350.64 1306.78 L1354.34 1306.78 Q1357.82 1312.25 1359.53 1317.48 Q1361.27 1322.71 1361.27 1327.87 Q1361.27 1333.06 1359.53 1338.31 Q1357.82 1343.57 1354.34 1349.01 L1350.64 1349.01 Q1353.72 1343.7 1355.22 1338.47 Q1356.75 1333.22 1356.75 1327.87 Q1356.75 1322.52 1355.22 1317.32 Q1353.72 1312.11 1350.64 1306.78 Z" fill="#000000" fill-rule="nonzero" fill-opacity="1" /><path clip-path="url(#clip510)" d="M1370.9 1336.88 L1375.78 1336.88 L1375.78 1340.86 L1371.98 1348.26 L1369 1348.26 L1370.9 1340.86 L1370.9 1336.88 Z" fill="#000000" fill-rule="nonzero" fill-opacity="1" /><path clip-path="url(#clip510)" d="M1418.56 1329.82 Q1418.56 1325.12 1416.61 1322.45 Q1414.69 1319.77 1411.31 1319.77 Q1407.93 1319.77 1405.99 1322.45 Q1404.07 1325.12 1404.07 1329.82 Q1404.07 1334.51 1405.99 1337.2 Q1407.93 1339.86 1411.31 1339.86 Q1414.69 1339.86 1416.61 1337.2 Q1418.56 1334.51 1418.56 1329.82 M1404.07 1320.76 Q1405.41 1318.45 1407.45 1317.34 Q1409.51 1316.2 1412.35 1316.2 Q1417.08 1316.2 1420.02 1319.95 Q1422.98 1323.7 1422.98 1329.82 Q1422.98 1335.93 1420.02 1339.68 Q1417.08 1343.43 1412.35 1343.43 Q1409.51 1343.43 1407.45 1342.32 Q1405.41 1341.18 1404.07 1338.87 L1404.07 1342.76 L1399.78 1342.76 L1399.78 1306.74 L1404.07 1306.74 L1404.07 1320.76 Z" fill="#000000" fill-rule="nonzero" fill-opacity="1" /><path clip-path="url(#clip510)" d="M1441.82 1329.72 Q1436.66 1329.72 1434.67 1330.9 Q1432.68 1332.08 1432.68 1334.93 Q1432.68 1337.2 1434.16 1338.54 Q1435.66 1339.86 1438.23 1339.86 Q1441.77 1339.86 1443.9 1337.36 Q1446.06 1334.84 1446.06 1330.67 L1446.06 1329.72 L1441.82 1329.72 M1450.32 1327.96 L1450.32 1342.76 L1446.06 1342.76 L1446.06 1338.82 Q1444.6 1341.18 1442.42 1342.32 Q1440.25 1343.43 1437.1 1343.43 Q1433.12 1343.43 1430.76 1341.2 Q1428.42 1338.96 1428.42 1335.21 Q1428.42 1330.83 1431.33 1328.61 Q1434.27 1326.39 1440.08 1326.39 L1446.06 1326.39 L1446.06 1325.97 Q1446.06 1323.03 1444.11 1321.44 Q1442.19 1319.82 1438.7 1319.82 Q1436.47 1319.82 1434.37 1320.35 Q1432.26 1320.88 1430.32 1321.95 L1430.32 1318.01 Q1432.65 1317.11 1434.85 1316.67 Q1437.05 1316.2 1439.14 1316.2 Q1444.76 1316.2 1447.54 1319.12 Q1450.32 1322.04 1450.32 1327.96 Z" fill="#000000" fill-rule="nonzero" fill-opacity="1" /><path clip-path="url(#clip510)" d="M1474.11 1320.81 Q1473.39 1320.39 1472.54 1320.21 Q1471.7 1320 1470.69 1320 Q1467.08 1320 1465.13 1322.36 Q1463.21 1324.7 1463.21 1329.1 L1463.21 1342.76 L1458.93 1342.76 L1458.93 1316.83 L1463.21 1316.83 L1463.21 1320.86 Q1464.55 1318.5 1466.7 1317.36 Q1468.86 1316.2 1471.94 1316.2 Q1472.38 1316.2 1472.91 1316.27 Q1473.44 1316.32 1474.09 1316.44 L1474.11 1320.81 Z" fill="#000000" fill-rule="nonzero" fill-opacity="1" /><path clip-path="url(#clip510)" d="M1489.37 1345.16 Q1487.56 1349.79 1485.85 1351.2 Q1484.14 1352.62 1481.27 1352.62 L1477.86 1352.62 L1477.86 1349.05 L1480.36 1349.05 Q1482.12 1349.05 1483.09 1348.22 Q1484.07 1347.38 1485.25 1344.28 L1486.01 1342.34 L1475.52 1316.83 L1480.04 1316.83 L1488.14 1337.11 L1496.24 1316.83 L1500.76 1316.83 L1489.37 1345.16 Z" fill="#000000" fill-rule="nonzero" fill-opacity="1" /><path clip-path="url(#clip510)" d="M1516.68 1319.82 Q1513.26 1319.82 1511.26 1322.5 Q1509.27 1325.16 1509.27 1329.82 Q1509.27 1334.47 1511.24 1337.15 Q1513.23 1339.82 1516.68 1339.82 Q1520.08 1339.82 1522.07 1337.13 Q1524.07 1334.45 1524.07 1329.82 Q1524.07 1325.21 1522.07 1322.52 Q1520.08 1319.82 1516.68 1319.82 M1516.68 1316.2 Q1522.24 1316.2 1525.41 1319.82 Q1528.58 1323.43 1528.58 1329.82 Q1528.58 1336.18 1525.41 1339.82 Q1522.24 1343.43 1516.68 1343.43 Q1511.1 1343.43 1507.93 1339.82 Q1504.78 1336.18 1504.78 1329.82 Q1504.78 1323.43 1507.93 1319.82 Q1511.1 1316.2 1516.68 1316.2 Z" fill="#000000" fill-rule="nonzero" fill-opacity="1" /><path clip-path="url(#clip510)" d="M1557.19 1327.11 L1557.19 1342.76 L1552.93 1342.76 L1552.93 1327.25 Q1552.93 1323.57 1551.5 1321.74 Q1550.06 1319.91 1547.19 1319.91 Q1543.74 1319.91 1541.75 1322.11 Q1539.76 1324.31 1539.76 1328.1 L1539.76 1342.76 L1535.48 1342.76 L1535.48 1316.83 L1539.76 1316.83 L1539.76 1320.86 Q1541.29 1318.52 1543.35 1317.36 Q1545.43 1316.2 1548.14 1316.2 Q1552.61 1316.2 1554.9 1318.98 Q1557.19 1321.74 1557.19 1327.11 Z" fill="#000000" fill-rule="nonzero" fill-opacity="1" /><path clip-path="url(#clip510)" d="M1582.21 1317.59 L1582.21 1321.62 Q1580.41 1320.7 1578.46 1320.23 Q1576.52 1319.77 1574.44 1319.77 Q1571.26 1319.77 1569.67 1320.74 Q1568.09 1321.71 1568.09 1323.66 Q1568.09 1325.14 1569.23 1326 Q1570.36 1326.83 1573.79 1327.59 L1575.25 1327.92 Q1579.78 1328.89 1581.68 1330.67 Q1583.6 1332.43 1583.6 1335.6 Q1583.6 1339.21 1580.73 1341.32 Q1577.88 1343.43 1572.88 1343.43 Q1570.8 1343.43 1568.53 1343.01 Q1566.29 1342.62 1563.79 1341.81 L1563.79 1337.41 Q1566.15 1338.63 1568.44 1339.26 Q1570.73 1339.86 1572.98 1339.86 Q1575.99 1339.86 1577.61 1338.84 Q1579.23 1337.8 1579.23 1335.93 Q1579.23 1334.19 1578.05 1333.26 Q1576.89 1332.34 1572.93 1331.48 L1571.45 1331.14 Q1567.49 1330.3 1565.73 1328.59 Q1563.97 1326.85 1563.97 1323.84 Q1563.97 1320.19 1566.57 1318.2 Q1569.16 1316.2 1573.93 1316.2 Q1576.29 1316.2 1578.37 1316.55 Q1580.45 1316.9 1582.21 1317.59 Z" fill="#000000" fill-rule="nonzero" fill-opacity="1" /></svg>
