<?xml version="1.0" encoding="utf-8"?>
<svg xmlns="http://www.w3.org/2000/svg" xmlns:xlink="http://www.w3.org/1999/xlink" width="800" height="600" viewBox="0 0 3200 2400">
<defs>
  <clipPath id="clip890">
    <rect x="0" y="0" width="3200" height="2400"/>
  </clipPath>
</defs>
<path clip-path="url(#clip890)" d="M0 2400 L3200 2400 L3200 0 L0 0  Z" fill="#ffffff" fill-rule="evenodd" fill-opacity="1"/>
<defs>
  <clipPath id="clip891">
    <rect x="640" y="0" width="2241" height="2241"/>
  </clipPath>
</defs>
<path clip-path="url(#clip890)" d="M301.468 1635.69 L3152.76 1635.69 L3152.76 47.2441 L301.468 47.2441  Z" fill="#ffffff" fill-rule="evenodd" fill-opacity="1"/>
<defs>
  <clipPath id="clip892">
    <rect x="301" y="47" width="2852" height="1589"/>
  </clipPath>
</defs>
<polyline clip-path="url(#clip892)" style="stroke:#000000; stroke-linecap:round; stroke-linejoin:round; stroke-width:2; stroke-opacity:0.1; fill:none" points="447.911,1635.69 447.911,47.2441 "/>
<polyline clip-path="url(#clip892)" style="stroke:#000000; stroke-linecap:round; stroke-linejoin:round; stroke-width:2; stroke-opacity:0.1; fill:none" points="885.269,1635.69 885.269,47.2441 "/>
<polyline clip-path="url(#clip892)" style="stroke:#000000; stroke-linecap:round; stroke-linejoin:round; stroke-width:2; stroke-opacity:0.1; fill:none" points="1322.63,1635.69 1322.63,47.2441 "/>
<polyline clip-path="url(#clip892)" style="stroke:#000000; stroke-linecap:round; stroke-linejoin:round; stroke-width:2; stroke-opacity:0.1; fill:none" points="1759.98,1635.69 1759.98,47.2441 "/>
<polyline clip-path="url(#clip892)" style="stroke:#000000; stroke-linecap:round; stroke-linejoin:round; stroke-width:2; stroke-opacity:0.1; fill:none" points="2197.34,1635.69 2197.34,47.2441 "/>
<polyline clip-path="url(#clip892)" style="stroke:#000000; stroke-linecap:round; stroke-linejoin:round; stroke-width:2; stroke-opacity:0.1; fill:none" points="2634.7,1635.69 2634.7,47.2441 "/>
<polyline clip-path="url(#clip892)" style="stroke:#000000; stroke-linecap:round; stroke-linejoin:round; stroke-width:2; stroke-opacity:0.1; fill:none" points="3072.06,1635.69 3072.06,47.2441 "/>
<polyline clip-path="url(#clip892)" style="stroke:#000000; stroke-linecap:round; stroke-linejoin:round; stroke-width:2; stroke-opacity:0.1; fill:none" points="301.468,1433.63 3152.76,1433.63 "/>
<polyline clip-path="url(#clip892)" style="stroke:#000000; stroke-linecap:round; stroke-linejoin:round; stroke-width:2; stroke-opacity:0.1; fill:none" points="301.468,1156.13 3152.76,1156.13 "/>
<polyline clip-path="url(#clip892)" style="stroke:#000000; stroke-linecap:round; stroke-linejoin:round; stroke-width:2; stroke-opacity:0.1; fill:none" points="301.468,878.625 3152.76,878.625 "/>
<polyline clip-path="url(#clip892)" style="stroke:#000000; stroke-linecap:round; stroke-linejoin:round; stroke-width:2; stroke-opacity:0.1; fill:none" points="301.468,601.121 3152.76,601.121 "/>
<polyline clip-path="url(#clip892)" style="stroke:#000000; stroke-linecap:round; stroke-linejoin:round; stroke-width:2; stroke-opacity:0.1; fill:none" points="301.468,323.617 3152.76,323.617 "/>
<polyline clip-path="url(#clip890)" style="stroke:#000000; stroke-linecap:round; stroke-linejoin:round; stroke-width:4; stroke-opacity:1; fill:none" points="301.468,1635.69 3152.76,1635.69 "/>
<polyline clip-path="url(#clip890)" style="stroke:#000000; stroke-linecap:round; stroke-linejoin:round; stroke-width:4; stroke-opacity:1; fill:none" points="447.911,1635.69 447.911,1616.79 "/>
<polyline clip-path="url(#clip890)" style="stroke:#000000; stroke-linecap:round; stroke-linejoin:round; stroke-width:4; stroke-opacity:1; fill:none" points="885.269,1635.69 885.269,1616.79 "/>
<polyline clip-path="url(#clip890)" style="stroke:#000000; stroke-linecap:round; stroke-linejoin:round; stroke-width:4; stroke-opacity:1; fill:none" points="1322.63,1635.69 1322.63,1616.79 "/>
<polyline clip-path="url(#clip890)" style="stroke:#000000; stroke-linecap:round; stroke-linejoin:round; stroke-width:4; stroke-opacity:1; fill:none" points="1759.98,1635.69 1759.98,1616.79 "/>
<polyline clip-path="url(#clip890)" style="stroke:#000000; stroke-linecap:round; stroke-linejoin:round; stroke-width:4; stroke-opacity:1; fill:none" points="2197.34,1635.69 2197.34,1616.79 "/>
<polyline clip-path="url(#clip890)" style="stroke:#000000; stroke-linecap:round; stroke-linejoin:round; stroke-width:4; stroke-opacity:1; fill:none" points="2634.7,1635.69 2634.7,1616.79 "/>
<polyline clip-path="url(#clip890)" style="stroke:#000000; stroke-linecap:round; stroke-linejoin:round; stroke-width:4; stroke-opacity:1; fill:none" points="3072.06,1635.69 3072.06,1616.79 "/>
<polyline clip-path="url(#clip890)" style="stroke:#000000; stroke-linecap:round; stroke-linejoin:round; stroke-width:4; stroke-opacity:1; fill:none" points="301.468,1635.69 301.468,47.2441 "/>
<polyline clip-path="url(#clip890)" style="stroke:#000000; stroke-linecap:round; stroke-linejoin:round; stroke-width:4; stroke-opacity:1; fill:none" points="301.468,1433.63 320.366,1433.63 "/>
<polyline clip-path="url(#clip890)" style="stroke:#000000; stroke-linecap:round; stroke-linejoin:round; stroke-width:4; stroke-opacity:1; fill:none" points="301.468,1156.13 320.366,1156.13 "/>
<polyline clip-path="url(#clip890)" style="stroke:#000000; stroke-linecap:round; stroke-linejoin:round; stroke-width:4; stroke-opacity:1; fill:none" points="301.468,878.625 320.366,878.625 "/>
<polyline clip-path="url(#clip890)" style="stroke:#000000; stroke-linecap:round; stroke-linejoin:round; stroke-width:4; stroke-opacity:1; fill:none" points="301.468,601.121 320.366,601.121 "/>
<polyline clip-path="url(#clip890)" style="stroke:#000000; stroke-linecap:round; stroke-linejoin:round; stroke-width:4; stroke-opacity:1; fill:none" points="301.468,323.617 320.366,323.617 "/>
<path clip-path="url(#clip890)" d="M241.524 1419.43 Q237.912 1419.43 236.084 1423 Q234.278 1426.54 234.278 1433.67 Q234.278 1440.78 236.084 1444.34 Q237.912 1447.88 241.524 1447.88 Q245.158 1447.88 246.963 1444.34 Q248.792 1440.78 248.792 1433.67 Q248.792 1426.54 246.963 1423 Q245.158 1419.43 241.524 1419.43 M241.524 1415.73 Q247.334 1415.73 250.389 1420.34 Q253.468 1424.92 253.468 1433.67 Q253.468 1442.4 250.389 1447 Q247.334 1451.59 241.524 1451.59 Q235.713 1451.59 232.635 1447 Q229.579 1442.4 229.579 1433.67 Q229.579 1424.92 232.635 1420.34 Q235.713 1415.73 241.524 1415.73 Z" fill="#000000" fill-rule="nonzero" fill-opacity="1" /><path clip-path="url(#clip890)" d="M233.561 1169.47 L241.199 1169.47 L241.199 1143.11 L232.889 1144.78 L232.889 1140.52 L241.153 1138.85 L245.829 1138.85 L245.829 1169.47 L253.468 1169.47 L253.468 1173.41 L233.561 1173.41 L233.561 1169.47 Z" fill="#000000" fill-rule="nonzero" fill-opacity="1" /><path clip-path="url(#clip890)" d="M237.149 891.97 L253.468 891.97 L253.468 895.905 L231.524 895.905 L231.524 891.97 Q234.186 889.216 238.769 884.586 Q243.375 879.933 244.556 878.591 Q246.801 876.067 247.681 874.331 Q248.584 872.572 248.584 870.882 Q248.584 868.128 246.639 866.392 Q244.718 864.655 241.616 864.655 Q239.417 864.655 236.963 865.419 Q234.533 866.183 231.755 867.734 L231.755 863.012 Q234.579 861.878 237.033 861.299 Q239.487 860.72 241.524 860.72 Q246.894 860.72 250.088 863.405 Q253.283 866.091 253.283 870.581 Q253.283 872.711 252.473 874.632 Q251.686 876.53 249.579 879.123 Q249 879.794 245.899 883.012 Q242.797 886.206 237.149 891.97 Z" fill="#000000" fill-rule="nonzero" fill-opacity="1" /><path clip-path="url(#clip890)" d="M246.338 599.767 Q249.695 600.484 251.57 602.753 Q253.468 605.021 253.468 608.355 Q253.468 613.47 249.949 616.271 Q246.431 619.072 239.949 619.072 Q237.774 619.072 235.459 618.632 Q233.167 618.216 230.713 617.359 L230.713 612.845 Q232.658 613.98 234.973 614.558 Q237.287 615.137 239.811 615.137 Q244.209 615.137 246.5 613.401 Q248.815 611.665 248.815 608.355 Q248.815 605.299 246.662 603.586 Q244.533 601.85 240.713 601.85 L236.686 601.85 L236.686 598.008 L240.899 598.008 Q244.348 598.008 246.176 596.642 Q248.005 595.253 248.005 592.66 Q248.005 589.998 246.107 588.586 Q244.232 587.151 240.713 587.151 Q238.792 587.151 236.593 587.568 Q234.394 587.984 231.755 588.864 L231.755 584.697 Q234.417 583.957 236.732 583.586 Q239.07 583.216 241.13 583.216 Q246.454 583.216 249.556 585.646 Q252.658 588.054 252.658 592.174 Q252.658 595.045 251.014 597.035 Q249.371 599.003 246.338 599.767 Z" fill="#000000" fill-rule="nonzero" fill-opacity="1" /><path clip-path="url(#clip890)" d="M243.885 310.411 L232.079 328.86 L243.885 328.86 L243.885 310.411 M242.658 306.337 L248.537 306.337 L248.537 328.86 L253.468 328.86 L253.468 332.748 L248.537 332.748 L248.537 340.897 L243.885 340.897 L243.885 332.748 L228.283 332.748 L228.283 328.235 L242.658 306.337 Z" fill="#000000" fill-rule="nonzero" fill-opacity="1" /><path clip-path="url(#clip890)" d="M116.502 932.385 L116.502 926.529 L166.027 926.529 L166.027 932.385 L116.502 932.385 Z" fill="#000000" fill-rule="nonzero" fill-opacity="1" /><path clip-path="url(#clip890)" d="M147.789 890.817 Q141.423 890.817 137.922 893.459 Q134.421 896.069 134.421 900.811 Q134.421 905.522 137.922 908.164 Q141.423 910.774 147.789 910.774 Q154.123 910.774 157.624 908.164 Q161.125 905.522 161.125 900.811 Q161.125 896.069 157.624 893.459 Q154.123 890.817 147.789 890.817 M161.603 884.961 Q170.706 884.961 175.13 889.003 Q179.586 893.045 179.586 901.384 Q179.586 904.472 179.108 907.209 Q178.663 909.946 177.708 912.524 L172.011 912.524 Q173.411 909.946 174.08 907.432 Q174.748 904.917 174.748 902.307 Q174.748 896.546 171.724 893.682 Q168.732 890.817 162.653 890.817 L159.757 890.817 Q162.908 892.631 164.467 895.464 Q166.027 898.297 166.027 902.244 Q166.027 908.8 161.03 912.811 Q156.033 916.821 147.789 916.821 Q139.514 916.821 134.517 912.811 Q129.52 908.8 129.52 902.244 Q129.52 898.297 131.079 895.464 Q132.639 892.631 135.79 890.817 L130.379 890.817 L130.379 884.961 L161.603 884.961 Z" fill="#000000" fill-rule="nonzero" fill-opacity="1" /><path clip-path="url(#clip890)" d="M116.565 858.829 Q123.886 863.094 131.047 865.163 Q138.209 867.232 145.561 867.232 Q152.914 867.232 160.139 865.163 Q167.332 863.063 174.621 858.829 L174.621 863.922 Q167.141 868.696 159.916 871.083 Q152.691 873.439 145.561 873.439 Q138.463 873.439 131.27 871.083 Q124.077 868.728 116.565 863.922 L116.565 858.829 Z" fill="#000000" fill-rule="nonzero" fill-opacity="1" /><path clip-path="url(#clip890)" d="M116.215 839.923 L181.4 839.923 L181.4 845.334 L116.215 845.334 L116.215 839.923 Z" fill="#000000" fill-rule="nonzero" fill-opacity="1" /><path clip-path="url(#clip890)" d="M123.79 818.821 L141.646 818.821 L141.646 810.737 Q141.646 806.249 139.323 803.798 Q136.999 801.347 132.702 801.347 Q128.437 801.347 126.114 803.798 Q123.79 806.249 123.79 810.737 L123.79 818.821 M118.507 825.25 L118.507 810.737 Q118.507 802.748 122.135 798.674 Q125.732 794.568 132.702 794.568 Q139.737 794.568 143.333 798.674 Q146.93 802.748 146.93 810.737 L146.93 818.821 L166.027 818.821 L166.027 825.25 L118.507 825.25 Z" fill="#000000" fill-rule="nonzero" fill-opacity="1" /><path clip-path="url(#clip890)" d="M116.215 778.653 L181.4 778.653 L181.4 784.064 L116.215 784.064 L116.215 778.653 Z" fill="#000000" fill-rule="nonzero" fill-opacity="1" /><path clip-path="url(#clip890)" d="M116.565 765.158 L116.565 760.066 Q124.077 755.291 131.27 752.936 Q138.463 750.549 145.561 750.549 Q152.691 750.549 159.916 752.936 Q167.141 755.291 174.621 760.066 L174.621 765.158 Q167.332 760.925 160.139 758.856 Q152.914 756.755 145.561 756.755 Q138.209 756.755 131.047 758.856 Q123.886 760.925 116.565 765.158 Z" fill="#000000" fill-rule="nonzero" fill-opacity="1" /><polyline clip-path="url(#clip892)" style="stroke:#808080; stroke-linecap:round; stroke-linejoin:round; stroke-width:8; stroke-opacity:1; fill:none" points="382.165,876.068 537.928,770.484 622.596,715.669 681.282,678.086 726.429,649.363 763.288,626.004 794.576,606.168 821.885,588.822 846.228,573.395 868.291,559.427 888.559,546.576 907.391,534.642 925.059,523.453 941.776,512.863 957.71,502.776 972.999,493.096 987.757,483.761 1002.08,474.706 1016.04,465.883 1029.72,457.243 1043.17,448.754 1056.45,440.381 1069.6,432.097 1082.65,423.877 1095.65,415.701 1108.63,407.553 1121.6,399.418 1134.58,391.287 1147.59,383.153 1160.63,375.013 1173.71,366.87 1186.81,358.729 1199.92,350.598 1213.04,342.492 1226.13,334.427 1239.16,326.421 1252.11,318.498 1264.94,310.679 1277.62,302.988 1290.11,295.446 1302.38,288.075 1314.4,280.891 1326.16,273.91 1337.62,267.144 1348.78,260.601 1359.62,254.284 1370.15,248.198 1380.35,242.341 1390.24,236.71 1399.81,231.303 1409.08,226.113 1418.04,221.133 1426.72,216.356 1435.11,211.775 1443.24,207.381 1451.11,203.166 1458.73,199.122 1466.12,195.242 1473.28,191.517 1480.22,187.939 1486.96,184.503 1493.5,181.201 1499.85,178.027 1506.03,174.973 1512.03,172.036 1517.88,169.208 1523.57,166.485 1529.11,163.862 1534.51,161.333 1539.77,158.896 1544.9,156.545 1549.92,154.277 1554.81,152.087 1559.59,149.974 1564.26,147.932 1568.83,145.96 1573.29,144.054 1577.66,142.211 1581.94,140.43 1586.13,138.706 1590.24,137.04 1594.26,135.427 1598.2,133.866 1602.07,132.354 1605.87,130.891 1609.59,129.475 1613.25,128.103 1616.84,126.774 1620.36,125.486 1623.83,124.239 1627.23,123.031 1630.58,121.86 1633.87,120.725 1637.11,119.625 1640.29,118.559 1643.43,117.526 1646.51,116.525 1649.55,115.554 1652.54,114.614 1655.49,113.702 1658.39,112.819 1661.25,111.963 1664.07,111.134 1666.85,110.33 1669.59,109.552 1672.3,108.798 1674.96,108.068 1677.59,107.36 1680.19,106.676 1682.75,106.013 1685.28,105.372 1687.77,104.751 1690.24,104.151 1692.67,103.571 1695.08,103.01 1697.45,102.467 1699.8,101.944 1702.11,101.438 1704.41,100.95 1706.67,100.479 1708.91,100.024 1711.12,99.5863 1713.31,99.1645 1715.47,98.7586 1717.61,98.3677 1719.73,97.9922 1721.82,97.6308 1723.89,97.2841 1725.94,96.9516 1727.97,96.633 1729.98,96.3281 1731.97,96.036 1733.93,95.7572 1735.88,95.4913 1737.81,95.2372 1739.72,94.9962 1741.61,94.7671 1743.48,94.5497 1745.34,94.3441 1747.18,94.1495 1749,93.9666 1750.8,93.7945 1752.59,93.633 1754.36,93.4825 1756.11,93.3423 1757.85,93.2126 1759.58,93.0928 1761.29,92.9826 1762.98,92.8824 1764.66,92.7921 1766.33,92.711 1767.98,92.6392 1769.62,92.577 1771.24,92.5232 1772.85,92.4785 1774.45,92.4426 1776.04,92.4155 1777.61,92.3966 1779.17,92.3863 1780.72,92.384 1782.25,92.3898 1783.78,92.4038 1785.29,92.4258 1786.79,92.4553 1788.28,92.4927 1789.76,92.5376 1791.23,92.5899 1792.68,92.6497 1794.13,92.7167 1795.57,92.7907 1796.99,92.8721 1798.41,92.9602 1799.81,93.0553 1801.21,93.1572 1802.59,93.2657 1803.97,93.381 1805.34,93.5027 1806.7,93.6309 1808.05,93.7654 1809.39,93.9062 1810.72,94.0532 1812.04,94.2063 1813.35,94.3654 1814.66,94.5307 1815.96,94.7019 1817.24,94.8785 1818.53,95.0611 1819.8,95.2495 1821.06,95.4432 1822.32,95.6426 1823.57,95.8475 1824.81,96.0577 1826.05,96.2734 1827.27,96.4943 1828.49,96.7204 1829.71,96.9515 1830.91,97.1879 1832.11,97.4292 1833.31,97.6755 1834.49,97.9266 1835.67,98.1826 1836.84,98.4435 1838.01,98.709 1839.17,98.9793 1840.32,99.2539 1841.47,99.5334 1842.61,99.8174 1843.74,100.106 1844.87,100.399 1846,100.696 1847.11,100.997 1848.23,101.303 1849.33,101.613 1850.43,101.927 1851.53,102.245 1852.62,102.567 1853.7,102.893 1854.78,103.224 1855.85,103.558 1856.92,103.896 1857.99,104.238 1859.04,104.584 1860.1,104.933 1861.15,105.286 1862.19,105.643 1863.23,106.004 1864.27,106.368 1865.3,106.735 1866.32,107.107 1867.34,107.481 1868.36,107.859 1869.37,108.241 1870.38,108.626 1871.39,109.014 1872.39,109.405 1873.39,109.8 1874.38,110.197 1875.37,110.598 1876.35,111.002 1877.33,111.41 1878.31,111.82 1879.28,112.233 1880.25,112.649 1881.22,113.068 1882.18,113.49 1883.14,113.915 1884.1,114.343 1885.05,114.774 1886,115.207 1886.95,115.643 1887.89,116.082 1888.83,116.524 1889.77,116.968 1890.7,117.415 1891.63,117.864 1892.56,118.317 1893.49,118.771 1894.41,119.229 1895.33,119.688 1896.25,120.15 1897.16,120.615 1898.08,121.082 1898.99,121.551 1899.9,122.023 1900.8,122.497 1901.7,122.974 1902.61,123.453 1903.51,123.934 1904.4,124.417 1905.3,124.903 1906.19,125.391 1907.08,125.881 1907.97,126.373 1908.86,126.867 1909.75,127.363 1910.63,127.862 1911.52,128.363 1912.4,128.866 1913.28,129.37 1914.16,129.877 1915.03,130.386 1915.91,130.897 1916.79,131.41 1917.66,131.925 1918.54,132.442 1919.41,132.961 1920.28,133.482 1921.15,134.005 1922.02,134.53 1922.89,135.057 1923.76,135.586 1924.63,136.116 1925.5,136.649 1926.37,137.183 1927.24,137.72 1928.11,138.258 1928.98,138.798 1929.84,139.341 1930.71,139.885 1931.58,140.431 1932.45,140.979 1933.32,141.529 1934.2,142.081 1935.07,142.635 1935.94,143.19 1936.82,143.748 1937.69,144.308 1938.57,144.87 1939.45,145.433 1940.33,145.999 1941.21,146.567 1942.09,147.137 1942.98,147.709 1943.87,148.283 1944.76,148.859 1945.65,149.437 1946.55,150.018 1947.44,150.601 1948.35,151.186 1949.25,151.773 1950.16,152.363 1951.07,152.955 1951.99,153.55 1952.91,154.147 1953.83,154.746 1954.76,155.348 1955.7,155.953 1956.64,156.561 1957.58,157.171 1958.53,157.785 1959.49,158.401 1960.45,159.02 1961.42,159.642 1962.4,160.268 1963.39,160.897 1964.38,161.529 1965.38,162.165 1966.39,162.804 1967.42,163.447 1968.45,164.095 1969.49,164.746 1970.54,165.401 1971.61,166.061 1972.68,166.726 1973.78,167.395 1974.88,168.069 1976,168.748 1977.14,169.432 1978.29,170.123 1979.46,170.819 1980.66,171.522 1981.87,172.231 1983.1,172.948 1984.36,173.671 1985.64,174.402 1986.95,175.142 1988.29,175.89 1989.66,176.647 1991.06,177.415 1992.5,178.193 1993.98,178.983 1995.5,179.784 1997.07,180.599 1998.69,181.428 2000.36,182.273 2002.1,183.135 2003.9,184.015 2005.77,184.917 2007.73,185.841 2009.78,186.792 2011.92,187.772 2014.18,188.785 2016.57,189.838 2019.1,190.937 2021.8,192.089 2024.68,193.307 2027.77,194.605 2031.1,196.003 2034.71,197.528 2038.64,199.216 2042.92,201.117 2047.6,203.299 2052.71,205.851 2058.26,208.887 2064.23,212.534 2070.59,216.921 2077.25,222.144 2084.09,228.233 2091.01,235.129 2097.9,242.676 2104.7,250.642 2111.35,258.744 2117.84,266.682 2124.15,274.176 2130.28,280.999 2136.23,286.999 2142.01,292.121 2147.61,296.406 2153.07,299.984 2158.37,303.05 2163.52,305.833 2168.55,308.574 2173.44,311.489 2178.21,314.755 2182.86,318.495 2187.4,322.77 2191.84,327.578 2196.18,332.86 2200.41,338.505 2204.56,344.367 2208.62,350.275 2212.59,356.051 2216.48,361.534 2220.29,366.589 2224.03,371.127 2227.7,375.113 2231.29,378.564 2234.82,381.548 2238.29,384.172 2241.69,386.567 2245.03,388.863 2248.32,391.229 2251.55,393.787 2254.72,396.62 2257.85,399.773 2260.92,403.249 2263.94,407.015 2266.92,411.007 2269.85,415.14 2272.74,419.327 2275.58,423.481 2278.38,427.523 2281.14,431.385 2283.86,435.019 2286.54,438.389 2289.19,441.486 2291.8,444.315 2294.37,446.91 2296.91,449.317 2299.41,451.598 2301.89,453.817 2304.33,456.038 2306.74,458.316 2309.12,460.696 2311.47,463.211 2313.79,465.88 2316.08,468.705 2318.35,471.675 2320.59,474.756 2322.8,477.906 2324.99,481.068 2327.15,484.186 2329.29,487.21 2331.41,490.1 2333.5,492.833 2335.57,495.401 2337.61,497.811 2339.64,500.081 2341.64,502.238 2343.62,504.317 2345.59,506.354 2347.53,508.388 2349.45,510.454 2351.35,512.582 2353.24,514.784 2355.1,517.068 2356.95,519.424 2358.78,521.837 2360.59,524.284 2362.39,526.743 2364.17,529.194 2365.93,531.618 2367.67,533.998 2369.4,536.319 2371.12,538.573 2372.81,540.753 2374.5,542.858 2376.17,544.897 2377.82,546.88 2379.46,548.821 2381.09,550.735 2382.7,552.637 2384.3,554.54 2385.88,556.451 2387.46,558.379 2389.02,560.329 2390.56,562.305 2392.1,564.305 2393.62,566.322 2395.13,568.35 2396.63,570.377 2398.11,572.389 2399.59,574.381 2401.05,576.342 2402.5,578.271 2403.94,580.164 2405.37,582.023 2406.79,583.848 2408.2,585.64 2409.6,587.404 2410.99,589.146 2412.37,590.874 2413.73,592.595 2415.09,594.316 2416.44,596.041 2417.78,597.773 2424.95,607.272 2432.31,617.135 2439.92,627.095 2447.83,637.631 2456.11,648.786 2464.88,660.589 2474.29,673.336 2484.54,687.348 2496,703.091 2509.2,721.365 2525.15,743.619 2545.62,772.476 2573.68,812.532 2611.67,867.601 2654.85,931.294 3072.06,1589.4 "/>
<polyline clip-path="url(#clip892)" style="stroke:#000000; stroke-linecap:round; stroke-linejoin:round; stroke-width:8; stroke-opacity:1; fill:none" stroke-dasharray="32, 20" points="382.165,867.312 537.928,768.483 622.596,714.765 681.282,677.533 726.429,648.894 763.288,625.516 794.576,605.674 821.885,588.358 846.228,572.926 868.291,558.943 888.559,546.101 907.391,534.173 925.059,522.985 941.776,512.404 957.71,502.323 972.999,492.655 987.757,483.328 1002.08,474.282 1016.04,465.467 1029.72,456.839 1043.17,448.361 1056.45,440 1069.6,431.728 1082.65,423.521 1095.65,415.359 1108.63,407.224 1121.6,399.103 1134.58,390.985 1147.59,382.863 1160.63,374.736 1173.71,366.604 1186.81,358.472 1199.92,350.349 1213.04,342.249 1226.13,334.188 1239.16,326.187 1252.11,318.266 1264.94,310.45 1277.62,302.762 1290.11,295.223 1302.38,287.854 1314.4,280.672 1326.16,273.693 1337.62,266.928 1348.78,260.391 1359.62,254.07 1370.15,247.978 1380.35,242.134 1390.24,236.507 1399.81,231.101 1409.08,225.911 1418.04,220.932 1426.72,216.157 1435.11,211.576 1443.24,207.182 1451.11,202.968 1458.73,198.925 1466.12,195.045 1473.28,191.32 1480.22,187.742 1486.96,184.309 1493.5,181.007 1499.85,177.833 1506.03,174.781 1512.03,171.843 1517.88,169.016 1523.57,166.294 1529.11,163.671 1534.51,161.144 1539.77,158.707 1544.9,156.357 1549.92,154.09 1554.81,151.901 1559.59,149.788 1564.26,147.747 1568.83,145.776 1573.29,143.872 1577.66,142.03 1581.94,140.25 1586.13,138.527 1590.24,136.862 1594.26,135.25 1598.2,133.69 1602.07,132.179 1605.87,130.718 1609.59,129.302 1613.25,127.93 1616.84,126.603 1620.36,125.316 1623.83,124.076 1627.23,122.869 1630.58,121.698 1633.87,120.566 1637.11,119.465 1640.29,118.399 1643.43,117.367 1646.51,116.364 1649.55,115.397 1652.54,114.458 1655.49,113.547 1658.39,112.661 1661.25,111.807 1664.07,110.978 1666.85,110.168 1669.59,109.397 1672.3,108.641 1674.96,107.913 1677.59,107.206 1680.19,106.522 1682.75,105.858 1685.28,105.218 1687.77,104.596 1690.24,103.996 1692.67,103.415 1695.08,102.854 1697.45,102.311 1699.8,101.787 1702.11,101.28 1704.41,100.792 1706.67,100.32 1708.91,99.8648 1711.12,99.4263 1713.31,99.0037 1715.47,98.5968 1717.61,98.2051 1719.73,97.829 1721.82,97.4668 1723.89,97.1196 1725.94,96.7861 1727.97,96.4666 1729.98,96.1609 1731.97,95.8742 1733.93,95.5942 1735.88,95.3264 1737.81,95.0727 1739.72,94.8314 1741.61,94.6014 1743.48,94.3803 1745.34,94.1753 1747.18,93.9801 1749,93.7894 1750.8,93.6239 1752.59,93.4541 1754.36,93.3102 1756.11,93.1691 1757.85,93.0384 1759.58,92.9171 1761.29,92.8065 1762.98,92.7058 1764.66,92.615 1766.33,92.5334 1767.98,92.4602 1769.62,92.397 1771.24,92.3429 1772.85,92.2979 1774.45,92.2609 1776.04,92.233 1777.61,92.2145 1779.17,92.2028 1780.72,92.2001 1782.25,92.2056 1783.78,92.2192 1785.29,92.2392 1786.79,92.2698 1788.28,92.3062 1789.76,92.3501 1791.23,92.4018 1792.68,92.4595 1794.13,92.5276 1795.57,92.6011 1796.99,92.6818 1798.41,92.7693 1799.81,92.8639 1801.21,92.9651 1802.59,93.0732 1803.97,93.1887 1805.34,93.3089 1806.7,93.4362 1808.05,93.5703 1809.39,93.7107 1810.72,93.857 1812.04,94.0095 1813.35,94.1732 1814.66,94.3376 1815.96,94.508 1817.24,94.6843 1818.53,94.8663 1819.8,95.054 1821.06,95.2477 1822.32,95.4395 1823.57,95.651 1824.81,95.8606 1826.05,96.0765 1827.27,96.2959 1828.49,96.5227 1829.71,96.7517 1830.91,96.9879 1832.11,97.2287 1833.31,97.4745 1834.49,97.725 1835.67,97.9807 1836.84,98.241 1838.01,98.5057 1839.17,98.7757 1840.32,99.05 1841.47,99.329 1842.61,99.6144 1843.74,99.9006 1844.87,100.193 1846,100.49 1847.11,100.791 1848.23,101.096 1849.33,101.406 1850.43,101.72 1851.53,102.037 1852.62,102.359 1853.7,102.686 1854.78,103.015 1855.85,103.349 1856.92,103.687 1857.99,104.029 1859.04,104.374 1860.1,104.723 1861.15,105.077 1862.19,105.434 1863.23,105.794 1864.27,106.158 1865.3,106.525 1866.32,106.896 1867.34,107.27 1868.36,107.647 1869.37,108.029 1870.38,108.412 1871.39,108.8 1872.39,109.192 1873.39,109.587 1874.38,109.985 1875.37,110.386 1876.35,110.789 1877.33,111.196 1878.31,111.606 1879.28,112.019 1880.25,112.435 1881.22,112.854 1882.18,113.276 1883.14,113.701 1884.1,114.129 1885.05,114.559 1886,114.993 1886.95,115.429 1887.89,115.868 1888.83,116.309 1889.77,116.758 1890.7,117.206 1891.63,117.656 1892.56,118.106 1893.49,118.561 1894.41,119.018 1895.33,119.479 1896.25,119.937 1897.16,120.404 1898.08,120.871 1898.99,121.341 1899.9,121.813 1900.8,122.287 1901.7,122.763 1902.61,123.242 1903.51,123.723 1904.4,124.206 1905.3,124.692 1906.19,125.18 1907.08,125.668 1907.97,126.163 1908.86,126.657 1909.75,127.151 1910.63,127.651 1911.52,128.152 1912.4,128.653 1913.28,129.16 1914.16,129.668 1915.03,130.174 1915.91,130.687 1916.79,131.2 1917.66,131.715 1918.54,132.232 1919.41,132.751 1920.28,133.271 1921.15,133.795 1922.02,134.32 1922.89,134.847 1923.76,135.376 1924.63,135.907 1925.5,136.439 1926.37,136.974 1927.24,137.511 1928.11,138.049 1928.98,138.59 1929.84,139.132 1930.71,139.676 1931.58,140.223 1932.45,140.769 1933.32,141.321 1934.2,141.873 1935.07,142.427 1935.94,142.983 1936.82,143.541 1937.69,144.1 1938.57,144.664 1939.45,145.228 1940.33,145.793 1941.21,146.361 1942.09,146.931 1942.98,147.503 1943.87,148.078 1944.76,148.654 1945.65,149.233 1946.55,149.814 1947.44,150.397 1948.35,150.982 1949.25,151.57 1950.16,152.16 1951.07,152.753 1951.99,153.347 1952.91,153.945 1953.83,154.545 1954.76,155.148 1955.7,155.753 1956.64,156.361 1957.58,156.971 1958.53,157.585 1959.49,158.202 1960.45,158.821 1961.42,159.444 1962.4,160.07 1963.39,160.7 1964.38,161.332 1965.38,161.969 1966.39,162.609 1967.42,163.253 1968.45,163.904 1969.49,164.556 1970.54,165.212 1971.61,165.872 1972.68,166.538 1973.78,167.208 1974.88,167.882 1976,168.561 1977.14,169.248 1978.29,169.938 1979.46,170.635 1980.66,171.338 1981.87,172.048 1983.1,172.765 1984.36,173.49 1985.64,174.222 1986.95,174.962 1988.29,175.711 1989.66,176.469 1991.06,177.238 1992.5,178.017 1993.98,178.807 1995.5,179.609 1997.07,180.425 1998.69,181.255 2000.36,182.101 2002.1,182.963 2003.9,183.846 2005.77,184.748 2007.73,185.673 2009.78,186.626 2011.92,187.607 2014.18,188.622 2016.57,189.676 2019.1,190.776 2021.8,191.93 2024.68,193.149 2027.77,194.449 2031.1,195.849 2034.71,197.375 2038.64,199.065 2042.92,200.967 2047.6,203.151 2052.71,205.709 2058.26,208.746 2064.23,212.395 2070.59,216.785 2077.25,222.009 2084.09,228.103 2091.01,235.004 2097.9,242.558 2104.7,250.533 2111.35,258.642 2117.84,266.587 2124.15,274.086 2130.28,280.911 2136.23,286.915 2142.01,292.038 2147.61,296.33 2153.07,299.914 2158.37,302.993 2163.52,305.79 2168.55,308.545 2173.44,311.474 2178.21,314.755 2182.86,318.513 2187.4,322.806 2191.84,327.637 2196.18,332.944 2200.41,338.618 2204.56,344.512 2208.62,350.45 2212.59,356.257 2216.48,361.763 2220.29,366.834 2224.03,371.378 2227.7,375.36 2231.29,378.798 2234.82,381.76 2238.29,384.356 2241.69,386.72 2245.03,388.997 2248.32,391.324 2251.55,393.82 2254.72,396.575 2257.85,399.643 2260.92,403.043 2263.94,406.754 2266.92,410.73 2269.85,414.893 2272.74,419.152 2275.58,423.401 2278.38,427.546 2281.14,431.499 2283.86,435.19 2286.54,438.583 2289.19,441.664 2291.8,444.448 2294.37,446.977 2296.91,449.311 2299.41,451.52 2301.89,453.686 2304.33,455.872 2306.74,458.143 2309.12,460.546 2311.47,463.11 2313.79,465.838 2316.08,468.724 2318.35,471.74 2320.59,474.847 2322.8,478 2324.99,481.145 2327.15,484.236 2329.29,487.228 2331.41,490.091 2333.5,492.804 2335.57,495.359 2337.61,497.763 2339.64,500.033 2341.64,502.2 2343.62,504.295 2345.59,506.354 2347.53,508.41 2349.45,510.494 2351.35,512.63 2353.24,514.83 2355.1,517.102 2356.95,519.441 2358.78,521.839 2360.59,524.278 2362.39,526.738 2364.17,529.194 2365.93,531.626 2367.67,534.014 2369.4,536.341 2371.12,538.598 2372.81,540.779 2374.5,542.886 2376.17,544.925 2377.82,546.908 2379.46,548.848 2381.09,550.761 2382.7,552.661 2384.3,554.561 2385.88,556.474 2387.46,558.407 2389.02,560.364 2390.56,562.344 2392.1,564.347 2393.62,566.364 2395.13,568.389 2396.63,570.412 2398.11,572.423 2399.59,574.414 2401.05,576.377 2402.5,578.308 2403.94,580.203 2405.37,582.062 2406.79,583.886 2408.2,585.68 2409.6,587.447 2410.99,589.195 2412.37,590.929 2413.73,592.655 2415.09,594.378 2416.44,596.102 2417.78,597.83 2424.95,607.331 2432.31,617.19 2439.92,627.178 2447.83,637.693 2456.11,648.883 2464.88,660.669 2474.29,673.448 2484.54,687.454 2496,703.209 2509.2,721.501 2525.15,743.77 2545.62,772.658 2573.68,812.75 2611.67,867.869 2654.85,931.618 3072.06,1590.73 "/>
<path clip-path="url(#clip890)" d="M2555.25 255.712 L3057.71 255.712 L3057.71 100.192 L2555.25 100.192  Z" fill="#ffffff" fill-rule="evenodd" fill-opacity="1"/>
<polyline clip-path="url(#clip890)" style="stroke:#000000; stroke-linecap:round; stroke-linejoin:round; stroke-width:4; stroke-opacity:1; fill:none" points="2555.25,255.712 3057.71,255.712 3057.71,100.192 2555.25,100.192 2555.25,255.712 "/>
<polyline clip-path="url(#clip890)" style="stroke:#808080; stroke-linecap:round; stroke-linejoin:round; stroke-width:8; stroke-opacity:1; fill:none" points="2586.93,152.032 2777.01,152.032 "/>
<path clip-path="url(#clip890)" d="M2836.57 137.414 L2836.57 142.345 Q2834.2 140.146 2831.52 139.058 Q2828.86 137.97 2825.85 137.97 Q2819.92 137.97 2816.77 141.604 Q2813.63 145.215 2813.63 152.067 Q2813.63 158.896 2816.77 162.53 Q2819.92 166.141 2825.85 166.141 Q2828.86 166.141 2831.52 165.053 Q2834.2 163.965 2836.57 161.766 L2836.57 166.65 Q2834.11 168.317 2831.36 169.15 Q2828.63 169.984 2825.57 169.984 Q2817.72 169.984 2813.21 165.192 Q2808.7 160.377 2808.7 152.067 Q2808.7 143.734 2813.21 138.942 Q2817.72 134.127 2825.57 134.127 Q2828.67 134.127 2831.4 134.961 Q2834.16 135.771 2836.57 137.414 Z" fill="#000000" fill-rule="nonzero" fill-opacity="1" /><path clip-path="url(#clip890)" d="M2843.79 134.752 L2848.46 134.752 L2848.46 165.377 L2865.29 165.377 L2865.29 169.312 L2843.79 169.312 L2843.79 134.752 Z" fill="#000000" fill-rule="nonzero" fill-opacity="1" /><path clip-path="url(#clip890)" d="M2882.84 139.359 L2876.5 156.558 L2889.2 156.558 L2882.84 139.359 M2880.2 134.752 L2885.5 134.752 L2898.67 169.312 L2893.81 169.312 L2890.66 160.447 L2875.08 160.447 L2871.94 169.312 L2867.01 169.312 L2880.2 134.752 Z" fill="#000000" fill-rule="nonzero" fill-opacity="1" /><path clip-path="url(#clip890)" d="M2924.44 135.887 L2924.44 140.447 Q2921.77 139.174 2919.41 138.549 Q2917.05 137.924 2914.85 137.924 Q2911.03 137.924 2908.95 139.405 Q2906.89 140.887 2906.89 143.618 Q2906.89 145.91 2908.25 147.09 Q2909.64 148.248 2913.49 148.965 L2916.31 149.544 Q2921.54 150.539 2924.02 153.062 Q2926.52 155.562 2926.52 159.775 Q2926.52 164.798 2923.14 167.391 Q2919.78 169.984 2913.28 169.984 Q2910.82 169.984 2908.05 169.428 Q2905.29 168.872 2902.33 167.785 L2902.33 162.97 Q2905.18 164.567 2907.91 165.377 Q2910.64 166.187 2913.28 166.187 Q2917.28 166.187 2919.46 164.613 Q2921.63 163.039 2921.63 160.123 Q2921.63 157.576 2920.06 156.141 Q2918.51 154.706 2914.94 153.988 L2912.1 153.433 Q2906.87 152.391 2904.53 150.169 Q2902.19 147.947 2902.19 143.988 Q2902.19 139.405 2905.41 136.766 Q2908.65 134.127 2914.32 134.127 Q2916.75 134.127 2919.27 134.567 Q2921.8 135.007 2924.44 135.887 Z" fill="#000000" fill-rule="nonzero" fill-opacity="1" /><path clip-path="url(#clip890)" d="M2954.53 135.887 L2954.53 140.447 Q2951.87 139.174 2949.5 138.549 Q2947.14 137.924 2944.94 137.924 Q2941.13 137.924 2939.04 139.405 Q2936.98 140.887 2936.98 143.618 Q2936.98 145.91 2938.35 147.09 Q2939.74 148.248 2943.58 148.965 L2946.4 149.544 Q2951.63 150.539 2954.11 153.062 Q2956.61 155.562 2956.61 159.775 Q2956.61 164.798 2953.23 167.391 Q2949.87 169.984 2943.37 169.984 Q2940.92 169.984 2938.14 169.428 Q2935.38 168.872 2932.42 167.785 L2932.42 162.97 Q2935.27 164.567 2938 165.377 Q2940.73 166.187 2943.37 166.187 Q2947.38 166.187 2949.55 164.613 Q2951.73 163.039 2951.73 160.123 Q2951.73 157.576 2950.15 156.141 Q2948.6 154.706 2945.04 153.988 L2942.19 153.433 Q2936.96 152.391 2934.62 150.169 Q2932.28 147.947 2932.28 143.988 Q2932.28 139.405 2935.5 136.766 Q2938.74 134.127 2944.41 134.127 Q2946.84 134.127 2949.37 134.567 Q2951.89 135.007 2954.53 135.887 Z" fill="#000000" fill-rule="nonzero" fill-opacity="1" /><polyline clip-path="url(#clip890)" style="stroke:#000000; stroke-linecap:round; stroke-linejoin:round; stroke-width:8; stroke-opacity:1; fill:none" stroke-dasharray="32, 20" points="2586.93,203.872 2777.01,203.872 "/>
<path clip-path="url(#clip890)" d="M2830.94 187.727 L2830.94 192.287 Q2828.28 191.014 2825.92 190.389 Q2823.56 189.764 2821.36 189.764 Q2817.54 189.764 2815.45 191.245 Q2813.39 192.727 2813.39 195.458 Q2813.39 197.75 2814.76 198.93 Q2816.15 200.088 2819.99 200.805 L2822.82 201.384 Q2828.05 202.379 2830.52 204.902 Q2833.02 207.402 2833.02 211.615 Q2833.02 216.638 2829.64 219.231 Q2826.29 221.824 2819.78 221.824 Q2817.33 221.824 2814.55 221.268 Q2811.8 220.712 2808.83 219.625 L2808.83 214.81 Q2811.68 216.407 2814.41 217.217 Q2817.14 218.027 2819.78 218.027 Q2823.79 218.027 2825.96 216.453 Q2828.14 214.879 2828.14 211.963 Q2828.14 209.416 2826.57 207.981 Q2825.01 206.546 2821.45 205.828 L2818.6 205.273 Q2813.37 204.231 2811.03 202.009 Q2808.7 199.787 2808.7 195.828 Q2808.7 191.245 2811.91 188.606 Q2815.15 185.967 2820.82 185.967 Q2823.26 185.967 2825.78 186.407 Q2828.3 186.847 2830.94 187.727 Z" fill="#000000" fill-rule="nonzero" fill-opacity="1" /><path clip-path="url(#clip890)" d="M2850.92 223.56 Q2849.11 228.189 2847.4 229.601 Q2845.69 231.013 2842.82 231.013 L2839.41 231.013 L2839.41 227.449 L2841.91 227.449 Q2843.67 227.449 2844.64 226.615 Q2845.62 225.782 2846.8 222.68 L2847.56 220.736 L2837.07 195.227 L2841.59 195.227 L2849.69 215.504 L2857.79 195.227 L2862.31 195.227 L2850.92 223.56 Z" fill="#000000" fill-rule="nonzero" fill-opacity="1" /><path clip-path="url(#clip890)" d="M2888.37 200.203 Q2889.97 197.333 2892.19 195.967 Q2894.41 194.602 2897.42 194.602 Q2901.47 194.602 2903.67 197.449 Q2905.87 200.273 2905.87 205.504 L2905.87 221.152 L2901.59 221.152 L2901.59 205.643 Q2901.59 201.916 2900.27 200.111 Q2898.95 198.305 2896.24 198.305 Q2892.93 198.305 2891.01 200.504 Q2889.09 202.703 2889.09 206.5 L2889.09 221.152 L2884.81 221.152 L2884.81 205.643 Q2884.81 201.893 2883.49 200.111 Q2882.17 198.305 2879.41 198.305 Q2876.15 198.305 2874.23 200.527 Q2872.31 202.726 2872.31 206.5 L2872.31 221.152 L2868.02 221.152 L2868.02 195.227 L2872.31 195.227 L2872.31 199.254 Q2873.76 196.87 2875.8 195.736 Q2877.84 194.602 2880.64 194.602 Q2883.46 194.602 2885.43 196.037 Q2887.42 197.472 2888.37 200.203 Z" fill="#000000" fill-rule="nonzero" fill-opacity="1" /><path clip-path="url(#clip890)" d="M2919.23 204.648 L2919.23 217.31 L2926.73 217.31 Q2930.5 217.31 2932.31 215.759 Q2934.13 214.185 2934.13 210.967 Q2934.13 207.726 2932.31 206.199 Q2930.5 204.648 2926.73 204.648 L2919.23 204.648 M2919.23 190.435 L2919.23 200.851 L2926.15 200.851 Q2929.57 200.851 2931.24 199.578 Q2932.93 198.282 2932.93 195.643 Q2932.93 193.027 2931.24 191.731 Q2929.57 190.435 2926.15 190.435 L2919.23 190.435 M2914.55 186.592 L2926.5 186.592 Q2931.84 186.592 2934.74 188.814 Q2937.63 191.037 2937.63 195.134 Q2937.63 198.305 2936.15 200.18 Q2934.67 202.055 2931.8 202.518 Q2935.25 203.259 2937.14 205.62 Q2939.06 207.958 2939.06 211.476 Q2939.06 216.106 2935.92 218.629 Q2932.77 221.152 2926.96 221.152 L2914.55 221.152 L2914.55 186.592 Z" fill="#000000" fill-rule="nonzero" fill-opacity="1" /><path clip-path="url(#clip890)" d="M2956.94 198.213 Q2953.51 198.213 2951.52 200.898 Q2949.53 203.56 2949.53 208.213 Q2949.53 212.865 2951.5 215.55 Q2953.49 218.212 2956.94 218.212 Q2960.34 218.212 2962.33 215.527 Q2964.32 212.842 2964.32 208.213 Q2964.32 203.606 2962.33 200.921 Q2960.34 198.213 2956.94 198.213 M2956.94 194.602 Q2962.49 194.602 2965.66 198.213 Q2968.83 201.824 2968.83 208.213 Q2968.83 214.578 2965.66 218.212 Q2962.49 221.824 2956.94 221.824 Q2951.36 221.824 2948.19 218.212 Q2945.04 214.578 2945.04 208.213 Q2945.04 201.824 2948.19 198.213 Q2951.36 194.602 2956.94 194.602 Z" fill="#000000" fill-rule="nonzero" fill-opacity="1" /><path clip-path="url(#clip890)" d="M2975.89 185.134 L2980.15 185.134 L2980.15 221.152 L2975.89 221.152 L2975.89 185.134 Z" fill="#000000" fill-rule="nonzero" fill-opacity="1" /><path clip-path="url(#clip890)" d="M2993.28 187.865 L2993.28 195.227 L3002.05 195.227 L3002.05 198.537 L2993.28 198.537 L2993.28 212.611 Q2993.28 215.782 2994.13 216.685 Q2995.01 217.587 2997.68 217.587 L3002.05 217.587 L3002.05 221.152 L2997.68 221.152 Q2992.75 221.152 2990.87 219.324 Q2989 217.472 2989 212.611 L2989 198.537 L2985.87 198.537 L2985.87 195.227 L2989 195.227 L2989 187.865 L2993.28 187.865 Z" fill="#000000" fill-rule="nonzero" fill-opacity="1" /><path clip-path="url(#clip890)" d="M3005.8 195.227 L3026.03 195.227 L3026.03 199.115 L3010.01 217.75 L3026.03 217.75 L3026.03 221.152 L3005.22 221.152 L3005.22 217.263 L3021.24 198.629 L3005.8 198.629 L3005.8 195.227 Z" fill="#000000" fill-rule="nonzero" fill-opacity="1" /><path clip-path="url(#clip890)" d="M301.468 2204.92 L3152.76 2204.92 L3152.76 1675.44 L301.468 1675.44  Z" fill="#ffffff" fill-rule="evenodd" fill-opacity="1"/>
<defs>
  <clipPath id="clip893">
    <rect x="301" y="1675" width="2852" height="530"/>
  </clipPath>
</defs>
<polyline clip-path="url(#clip893)" style="stroke:#000000; stroke-linecap:round; stroke-linejoin:round; stroke-width:2; stroke-opacity:0.05; fill:none" points="301.468,2198.3 3152.76,2198.3 "/>
<polyline clip-path="url(#clip893)" style="stroke:#000000; stroke-linecap:round; stroke-linejoin:round; stroke-width:2; stroke-opacity:0.05; fill:none" points="301.468,2188.37 3152.76,2188.37 "/>
<polyline clip-path="url(#clip893)" style="stroke:#000000; stroke-linecap:round; stroke-linejoin:round; stroke-width:2; stroke-opacity:0.05; fill:none" points="301.468,2178.45 3152.76,2178.45 "/>
<polyline clip-path="url(#clip893)" style="stroke:#000000; stroke-linecap:round; stroke-linejoin:round; stroke-width:2; stroke-opacity:0.05; fill:none" points="301.468,2168.52 3152.76,2168.52 "/>
<polyline clip-path="url(#clip893)" style="stroke:#000000; stroke-linecap:round; stroke-linejoin:round; stroke-width:2; stroke-opacity:0.05; fill:none" points="301.468,2158.59 3152.76,2158.59 "/>
<polyline clip-path="url(#clip893)" style="stroke:#000000; stroke-linecap:round; stroke-linejoin:round; stroke-width:2; stroke-opacity:0.05; fill:none" points="301.468,2148.66 3152.76,2148.66 "/>
<polyline clip-path="url(#clip893)" style="stroke:#000000; stroke-linecap:round; stroke-linejoin:round; stroke-width:2; stroke-opacity:0.05; fill:none" points="301.468,2128.81 3152.76,2128.81 "/>
<polyline clip-path="url(#clip893)" style="stroke:#000000; stroke-linecap:round; stroke-linejoin:round; stroke-width:2; stroke-opacity:0.05; fill:none" points="301.468,2118.88 3152.76,2118.88 "/>
<polyline clip-path="url(#clip893)" style="stroke:#000000; stroke-linecap:round; stroke-linejoin:round; stroke-width:2; stroke-opacity:0.05; fill:none" points="301.468,2108.95 3152.76,2108.95 "/>
<polyline clip-path="url(#clip893)" style="stroke:#000000; stroke-linecap:round; stroke-linejoin:round; stroke-width:2; stroke-opacity:0.05; fill:none" points="301.468,2099.02 3152.76,2099.02 "/>
<polyline clip-path="url(#clip893)" style="stroke:#000000; stroke-linecap:round; stroke-linejoin:round; stroke-width:2; stroke-opacity:0.05; fill:none" points="301.468,2089.1 3152.76,2089.1 "/>
<polyline clip-path="url(#clip893)" style="stroke:#000000; stroke-linecap:round; stroke-linejoin:round; stroke-width:2; stroke-opacity:0.05; fill:none" points="301.468,2079.17 3152.76,2079.17 "/>
<polyline clip-path="url(#clip893)" style="stroke:#000000; stroke-linecap:round; stroke-linejoin:round; stroke-width:2; stroke-opacity:0.05; fill:none" points="301.468,2069.24 3152.76,2069.24 "/>
<polyline clip-path="url(#clip893)" style="stroke:#000000; stroke-linecap:round; stroke-linejoin:round; stroke-width:2; stroke-opacity:0.05; fill:none" points="301.468,2059.31 3152.76,2059.31 "/>
<polyline clip-path="url(#clip893)" style="stroke:#000000; stroke-linecap:round; stroke-linejoin:round; stroke-width:2; stroke-opacity:0.05; fill:none" points="301.468,2049.38 3152.76,2049.38 "/>
<polyline clip-path="url(#clip893)" style="stroke:#000000; stroke-linecap:round; stroke-linejoin:round; stroke-width:2; stroke-opacity:0.05; fill:none" points="301.468,2029.53 3152.76,2029.53 "/>
<polyline clip-path="url(#clip893)" style="stroke:#000000; stroke-linecap:round; stroke-linejoin:round; stroke-width:2; stroke-opacity:0.05; fill:none" points="301.468,2019.6 3152.76,2019.6 "/>
<polyline clip-path="url(#clip893)" style="stroke:#000000; stroke-linecap:round; stroke-linejoin:round; stroke-width:2; stroke-opacity:0.05; fill:none" points="301.468,2009.67 3152.76,2009.67 "/>
<polyline clip-path="url(#clip893)" style="stroke:#000000; stroke-linecap:round; stroke-linejoin:round; stroke-width:2; stroke-opacity:0.05; fill:none" points="301.468,1999.75 3152.76,1999.75 "/>
<polyline clip-path="url(#clip893)" style="stroke:#000000; stroke-linecap:round; stroke-linejoin:round; stroke-width:2; stroke-opacity:0.05; fill:none" points="301.468,1989.82 3152.76,1989.82 "/>
<polyline clip-path="url(#clip893)" style="stroke:#000000; stroke-linecap:round; stroke-linejoin:round; stroke-width:2; stroke-opacity:0.05; fill:none" points="301.468,1979.89 3152.76,1979.89 "/>
<polyline clip-path="url(#clip893)" style="stroke:#000000; stroke-linecap:round; stroke-linejoin:round; stroke-width:2; stroke-opacity:0.05; fill:none" points="301.468,1969.96 3152.76,1969.96 "/>
<polyline clip-path="url(#clip893)" style="stroke:#000000; stroke-linecap:round; stroke-linejoin:round; stroke-width:2; stroke-opacity:0.05; fill:none" points="301.468,1960.03 3152.76,1960.03 "/>
<polyline clip-path="url(#clip893)" style="stroke:#000000; stroke-linecap:round; stroke-linejoin:round; stroke-width:2; stroke-opacity:0.05; fill:none" points="301.468,1950.11 3152.76,1950.11 "/>
<polyline clip-path="url(#clip893)" style="stroke:#000000; stroke-linecap:round; stroke-linejoin:round; stroke-width:2; stroke-opacity:0.05; fill:none" points="301.468,1930.25 3152.76,1930.25 "/>
<polyline clip-path="url(#clip893)" style="stroke:#000000; stroke-linecap:round; stroke-linejoin:round; stroke-width:2; stroke-opacity:0.05; fill:none" points="301.468,1920.32 3152.76,1920.32 "/>
<polyline clip-path="url(#clip893)" style="stroke:#000000; stroke-linecap:round; stroke-linejoin:round; stroke-width:2; stroke-opacity:0.05; fill:none" points="301.468,1910.4 3152.76,1910.4 "/>
<polyline clip-path="url(#clip893)" style="stroke:#000000; stroke-linecap:round; stroke-linejoin:round; stroke-width:2; stroke-opacity:0.05; fill:none" points="301.468,1900.47 3152.76,1900.47 "/>
<polyline clip-path="url(#clip893)" style="stroke:#000000; stroke-linecap:round; stroke-linejoin:round; stroke-width:2; stroke-opacity:0.05; fill:none" points="301.468,1890.54 3152.76,1890.54 "/>
<polyline clip-path="url(#clip893)" style="stroke:#000000; stroke-linecap:round; stroke-linejoin:round; stroke-width:2; stroke-opacity:0.05; fill:none" points="301.468,1880.61 3152.76,1880.61 "/>
<polyline clip-path="url(#clip893)" style="stroke:#000000; stroke-linecap:round; stroke-linejoin:round; stroke-width:2; stroke-opacity:0.05; fill:none" points="301.468,1870.68 3152.76,1870.68 "/>
<polyline clip-path="url(#clip893)" style="stroke:#000000; stroke-linecap:round; stroke-linejoin:round; stroke-width:2; stroke-opacity:0.05; fill:none" points="301.468,1860.76 3152.76,1860.76 "/>
<polyline clip-path="url(#clip893)" style="stroke:#000000; stroke-linecap:round; stroke-linejoin:round; stroke-width:2; stroke-opacity:0.05; fill:none" points="301.468,1850.83 3152.76,1850.83 "/>
<polyline clip-path="url(#clip893)" style="stroke:#000000; stroke-linecap:round; stroke-linejoin:round; stroke-width:2; stroke-opacity:0.05; fill:none" points="301.468,1830.97 3152.76,1830.97 "/>
<polyline clip-path="url(#clip893)" style="stroke:#000000; stroke-linecap:round; stroke-linejoin:round; stroke-width:2; stroke-opacity:0.05; fill:none" points="301.468,1821.05 3152.76,1821.05 "/>
<polyline clip-path="url(#clip893)" style="stroke:#000000; stroke-linecap:round; stroke-linejoin:round; stroke-width:2; stroke-opacity:0.05; fill:none" points="301.468,1811.12 3152.76,1811.12 "/>
<polyline clip-path="url(#clip893)" style="stroke:#000000; stroke-linecap:round; stroke-linejoin:round; stroke-width:2; stroke-opacity:0.05; fill:none" points="301.468,1801.19 3152.76,1801.19 "/>
<polyline clip-path="url(#clip893)" style="stroke:#000000; stroke-linecap:round; stroke-linejoin:round; stroke-width:2; stroke-opacity:0.05; fill:none" points="301.468,1791.26 3152.76,1791.26 "/>
<polyline clip-path="url(#clip893)" style="stroke:#000000; stroke-linecap:round; stroke-linejoin:round; stroke-width:2; stroke-opacity:0.05; fill:none" points="301.468,1781.33 3152.76,1781.33 "/>
<polyline clip-path="url(#clip893)" style="stroke:#000000; stroke-linecap:round; stroke-linejoin:round; stroke-width:2; stroke-opacity:0.05; fill:none" points="301.468,1771.41 3152.76,1771.41 "/>
<polyline clip-path="url(#clip893)" style="stroke:#000000; stroke-linecap:round; stroke-linejoin:round; stroke-width:2; stroke-opacity:0.05; fill:none" points="301.468,1761.48 3152.76,1761.48 "/>
<polyline clip-path="url(#clip893)" style="stroke:#000000; stroke-linecap:round; stroke-linejoin:round; stroke-width:2; stroke-opacity:0.05; fill:none" points="301.468,1751.55 3152.76,1751.55 "/>
<polyline clip-path="url(#clip893)" style="stroke:#000000; stroke-linecap:round; stroke-linejoin:round; stroke-width:2; stroke-opacity:0.05; fill:none" points="301.468,1731.7 3152.76,1731.7 "/>
<polyline clip-path="url(#clip893)" style="stroke:#000000; stroke-linecap:round; stroke-linejoin:round; stroke-width:2; stroke-opacity:0.05; fill:none" points="301.468,1721.77 3152.76,1721.77 "/>
<polyline clip-path="url(#clip893)" style="stroke:#000000; stroke-linecap:round; stroke-linejoin:round; stroke-width:2; stroke-opacity:0.05; fill:none" points="301.468,1711.84 3152.76,1711.84 "/>
<polyline clip-path="url(#clip893)" style="stroke:#000000; stroke-linecap:round; stroke-linejoin:round; stroke-width:2; stroke-opacity:0.05; fill:none" points="301.468,1701.91 3152.76,1701.91 "/>
<polyline clip-path="url(#clip893)" style="stroke:#000000; stroke-linecap:round; stroke-linejoin:round; stroke-width:2; stroke-opacity:0.05; fill:none" points="301.468,1691.98 3152.76,1691.98 "/>
<polyline clip-path="url(#clip893)" style="stroke:#000000; stroke-linecap:round; stroke-linejoin:round; stroke-width:2; stroke-opacity:0.05; fill:none" points="301.468,1682.06 3152.76,1682.06 "/>
<polyline clip-path="url(#clip893)" style="stroke:#000000; stroke-linecap:round; stroke-linejoin:round; stroke-width:2; stroke-opacity:0.1; fill:none" points="447.911,2204.92 447.911,1675.44 "/>
<polyline clip-path="url(#clip893)" style="stroke:#000000; stroke-linecap:round; stroke-linejoin:round; stroke-width:2; stroke-opacity:0.1; fill:none" points="885.269,2204.92 885.269,1675.44 "/>
<polyline clip-path="url(#clip893)" style="stroke:#000000; stroke-linecap:round; stroke-linejoin:round; stroke-width:2; stroke-opacity:0.1; fill:none" points="1322.63,2204.92 1322.63,1675.44 "/>
<polyline clip-path="url(#clip893)" style="stroke:#000000; stroke-linecap:round; stroke-linejoin:round; stroke-width:2; stroke-opacity:0.1; fill:none" points="1759.98,2204.92 1759.98,1675.44 "/>
<polyline clip-path="url(#clip893)" style="stroke:#000000; stroke-linecap:round; stroke-linejoin:round; stroke-width:2; stroke-opacity:0.1; fill:none" points="2197.34,2204.92 2197.34,1675.44 "/>
<polyline clip-path="url(#clip893)" style="stroke:#000000; stroke-linecap:round; stroke-linejoin:round; stroke-width:2; stroke-opacity:0.1; fill:none" points="2634.7,2204.92 2634.7,1675.44 "/>
<polyline clip-path="url(#clip893)" style="stroke:#000000; stroke-linecap:round; stroke-linejoin:round; stroke-width:2; stroke-opacity:0.1; fill:none" points="3072.06,2204.92 3072.06,1675.44 "/>
<polyline clip-path="url(#clip893)" style="stroke:#000000; stroke-linecap:round; stroke-linejoin:round; stroke-width:2; stroke-opacity:0.1; fill:none" points="301.468,2138.73 3152.76,2138.73 "/>
<polyline clip-path="url(#clip893)" style="stroke:#000000; stroke-linecap:round; stroke-linejoin:round; stroke-width:2; stroke-opacity:0.1; fill:none" points="301.468,2039.46 3152.76,2039.46 "/>
<polyline clip-path="url(#clip893)" style="stroke:#000000; stroke-linecap:round; stroke-linejoin:round; stroke-width:2; stroke-opacity:0.1; fill:none" points="301.468,1940.18 3152.76,1940.18 "/>
<polyline clip-path="url(#clip893)" style="stroke:#000000; stroke-linecap:round; stroke-linejoin:round; stroke-width:2; stroke-opacity:0.1; fill:none" points="301.468,1840.9 3152.76,1840.9 "/>
<polyline clip-path="url(#clip893)" style="stroke:#000000; stroke-linecap:round; stroke-linejoin:round; stroke-width:2; stroke-opacity:0.1; fill:none" points="301.468,1741.62 3152.76,1741.62 "/>
<polyline clip-path="url(#clip890)" style="stroke:#000000; stroke-linecap:round; stroke-linejoin:round; stroke-width:4; stroke-opacity:1; fill:none" points="301.468,2204.92 3152.76,2204.92 "/>
<polyline clip-path="url(#clip890)" style="stroke:#000000; stroke-linecap:round; stroke-linejoin:round; stroke-width:4; stroke-opacity:1; fill:none" points="447.911,2204.92 447.911,2186.02 "/>
<polyline clip-path="url(#clip890)" style="stroke:#000000; stroke-linecap:round; stroke-linejoin:round; stroke-width:4; stroke-opacity:1; fill:none" points="885.269,2204.92 885.269,2186.02 "/>
<polyline clip-path="url(#clip890)" style="stroke:#000000; stroke-linecap:round; stroke-linejoin:round; stroke-width:4; stroke-opacity:1; fill:none" points="1322.63,2204.92 1322.63,2186.02 "/>
<polyline clip-path="url(#clip890)" style="stroke:#000000; stroke-linecap:round; stroke-linejoin:round; stroke-width:4; stroke-opacity:1; fill:none" points="1759.98,2204.92 1759.98,2186.02 "/>
<polyline clip-path="url(#clip890)" style="stroke:#000000; stroke-linecap:round; stroke-linejoin:round; stroke-width:4; stroke-opacity:1; fill:none" points="2197.34,2204.92 2197.34,2186.02 "/>
<polyline clip-path="url(#clip890)" style="stroke:#000000; stroke-linecap:round; stroke-linejoin:round; stroke-width:4; stroke-opacity:1; fill:none" points="2634.7,2204.92 2634.7,2186.02 "/>
<polyline clip-path="url(#clip890)" style="stroke:#000000; stroke-linecap:round; stroke-linejoin:round; stroke-width:4; stroke-opacity:1; fill:none" points="3072.06,2204.92 3072.06,2186.02 "/>
<path clip-path="url(#clip890)" d="M417.552 2256.89 L447.228 2256.89 L447.228 2260.83 L417.552 2260.83 L417.552 2256.89 Z" fill="#000000" fill-rule="nonzero" fill-opacity="1" /><path clip-path="url(#clip890)" d="M457.367 2239.16 L475.723 2239.16 L475.723 2243.1 L461.649 2243.1 L461.649 2251.57 Q462.668 2251.22 463.686 2251.06 Q464.705 2250.87 465.723 2250.87 Q471.51 2250.87 474.89 2254.04 Q478.269 2257.22 478.269 2262.63 Q478.269 2268.21 474.797 2271.31 Q471.325 2274.39 465.006 2274.39 Q462.83 2274.39 460.561 2274.02 Q458.316 2273.65 455.908 2272.91 L455.908 2268.21 Q457.992 2269.34 460.214 2269.9 Q462.436 2270.46 464.913 2270.46 Q468.918 2270.46 471.256 2268.35 Q473.593 2266.24 473.593 2262.63 Q473.593 2259.02 471.256 2256.91 Q468.918 2254.81 464.913 2254.81 Q463.038 2254.81 461.163 2255.22 Q459.311 2255.64 457.367 2256.52 L457.367 2239.16 Z" fill="#000000" fill-rule="nonzero" fill-opacity="1" /><path clip-path="url(#clip890)" d="M854.169 2256.89 L883.845 2256.89 L883.845 2260.83 L854.169 2260.83 L854.169 2256.89 Z" fill="#000000" fill-rule="nonzero" fill-opacity="1" /><path clip-path="url(#clip890)" d="M906.785 2243.23 L894.979 2261.68 L906.785 2261.68 L906.785 2243.23 M905.558 2239.16 L911.438 2239.16 L911.438 2261.68 L916.368 2261.68 L916.368 2265.57 L911.438 2265.57 L911.438 2273.72 L906.785 2273.72 L906.785 2265.57 L891.183 2265.57 L891.183 2261.06 L905.558 2239.16 Z" fill="#000000" fill-rule="nonzero" fill-opacity="1" /><path clip-path="url(#clip890)" d="M1292.09 2256.89 L1321.77 2256.89 L1321.77 2260.83 L1292.09 2260.83 L1292.09 2256.89 Z" fill="#000000" fill-rule="nonzero" fill-opacity="1" /><path clip-path="url(#clip890)" d="M1346.03 2255.09 Q1349.39 2255.8 1351.26 2258.07 Q1353.16 2260.34 1353.16 2263.67 Q1353.16 2268.79 1349.64 2271.59 Q1346.12 2274.39 1339.64 2274.39 Q1337.46 2274.39 1335.15 2273.95 Q1332.86 2273.53 1330.4 2272.68 L1330.4 2268.16 Q1332.35 2269.3 1334.66 2269.88 Q1336.98 2270.46 1339.5 2270.46 Q1343.9 2270.46 1346.19 2268.72 Q1348.51 2266.98 1348.51 2263.67 Q1348.51 2260.62 1346.35 2258.91 Q1344.22 2257.17 1340.4 2257.17 L1336.38 2257.17 L1336.38 2253.33 L1340.59 2253.33 Q1344.04 2253.33 1345.87 2251.96 Q1347.7 2250.57 1347.7 2247.98 Q1347.7 2245.32 1345.8 2243.91 Q1343.92 2242.47 1340.4 2242.47 Q1338.48 2242.47 1336.28 2242.89 Q1334.09 2243.3 1331.45 2244.18 L1331.45 2240.02 Q1334.11 2239.28 1336.42 2238.91 Q1338.76 2238.53 1340.82 2238.53 Q1346.15 2238.53 1349.25 2240.97 Q1352.35 2243.37 1352.35 2247.49 Q1352.35 2250.36 1350.71 2252.35 Q1349.06 2254.32 1346.03 2255.09 Z" fill="#000000" fill-rule="nonzero" fill-opacity="1" /><path clip-path="url(#clip890)" d="M1729.93 2256.89 L1759.6 2256.89 L1759.6 2260.83 L1729.93 2260.83 L1729.93 2256.89 Z" fill="#000000" fill-rule="nonzero" fill-opacity="1" /><path clip-path="url(#clip890)" d="M1773.72 2269.78 L1790.04 2269.78 L1790.04 2273.72 L1768.1 2273.72 L1768.1 2269.78 Q1770.76 2267.03 1775.34 2262.4 Q1779.95 2257.75 1781.13 2256.41 Q1783.38 2253.88 1784.26 2252.15 Q1785.16 2250.39 1785.16 2248.7 Q1785.16 2245.94 1783.21 2244.21 Q1781.29 2242.47 1778.19 2242.47 Q1775.99 2242.47 1773.54 2243.23 Q1771.11 2244 1768.33 2245.55 L1768.33 2240.83 Q1771.15 2239.69 1773.61 2239.11 Q1776.06 2238.53 1778.1 2238.53 Q1783.47 2238.53 1786.66 2241.22 Q1789.86 2243.91 1789.86 2248.4 Q1789.86 2250.53 1789.05 2252.45 Q1788.26 2254.34 1786.15 2256.94 Q1785.58 2257.61 1782.47 2260.83 Q1779.37 2264.02 1773.72 2269.78 Z" fill="#000000" fill-rule="nonzero" fill-opacity="1" /><path clip-path="url(#clip890)" d="M2167.1 2256.89 L2196.78 2256.89 L2196.78 2260.83 L2167.1 2260.83 L2167.1 2256.89 Z" fill="#000000" fill-rule="nonzero" fill-opacity="1" /><path clip-path="url(#clip890)" d="M2207.68 2269.78 L2215.32 2269.78 L2215.32 2243.42 L2207.01 2245.09 L2207.01 2240.83 L2215.27 2239.16 L2219.95 2239.16 L2219.95 2269.78 L2227.59 2269.78 L2227.59 2273.72 L2207.68 2273.72 L2207.68 2269.78 Z" fill="#000000" fill-rule="nonzero" fill-opacity="1" /><path clip-path="url(#clip890)" d="M2634.7 2242.24 Q2631.09 2242.24 2629.26 2245.8 Q2627.46 2249.34 2627.46 2256.47 Q2627.46 2263.58 2629.26 2267.15 Q2631.09 2270.69 2634.7 2270.69 Q2638.34 2270.69 2640.14 2267.15 Q2641.97 2263.58 2641.97 2256.47 Q2641.97 2249.34 2640.14 2245.8 Q2638.34 2242.24 2634.7 2242.24 M2634.7 2238.53 Q2640.51 2238.53 2643.57 2243.14 Q2646.65 2247.72 2646.65 2256.47 Q2646.65 2265.2 2643.57 2269.81 Q2640.51 2274.39 2634.7 2274.39 Q2628.89 2274.39 2625.81 2269.81 Q2622.76 2265.2 2622.76 2256.47 Q2622.76 2247.72 2625.81 2243.14 Q2628.89 2238.53 2634.7 2238.53 Z" fill="#000000" fill-rule="nonzero" fill-opacity="1" /><path clip-path="url(#clip890)" d="M3062.44 2269.78 L3070.08 2269.78 L3070.08 2243.42 L3061.77 2245.09 L3061.77 2240.83 L3070.03 2239.16 L3074.71 2239.16 L3074.71 2269.78 L3082.35 2269.78 L3082.35 2273.72 L3062.44 2273.72 L3062.44 2269.78 Z" fill="#000000" fill-rule="nonzero" fill-opacity="1" /><path clip-path="url(#clip890)" d="M1636.97 2312.26 L1642.83 2312.26 L1642.83 2361.78 L1636.97 2361.78 L1636.97 2312.26 Z" fill="#000000" fill-rule="nonzero" fill-opacity="1" /><path clip-path="url(#clip890)" d="M1678.54 2343.55 Q1678.54 2337.18 1675.9 2333.68 Q1673.29 2330.18 1668.55 2330.18 Q1663.84 2330.18 1661.2 2333.68 Q1658.59 2337.18 1658.59 2343.55 Q1658.59 2349.88 1661.2 2353.38 Q1663.84 2356.88 1668.55 2356.88 Q1673.29 2356.88 1675.9 2353.38 Q1678.54 2349.88 1678.54 2343.55 M1684.4 2357.36 Q1684.4 2366.46 1680.36 2370.89 Q1676.31 2375.34 1667.97 2375.34 Q1664.89 2375.34 1662.15 2374.87 Q1659.41 2374.42 1656.83 2373.46 L1656.83 2367.77 Q1659.41 2369.17 1661.93 2369.84 Q1664.44 2370.5 1667.05 2370.5 Q1672.81 2370.5 1675.68 2367.48 Q1678.54 2364.49 1678.54 2358.41 L1678.54 2355.51 Q1676.73 2358.66 1673.89 2360.22 Q1671.06 2361.78 1667.12 2361.78 Q1660.56 2361.78 1656.55 2356.79 Q1652.54 2351.79 1652.54 2343.55 Q1652.54 2335.27 1656.55 2330.27 Q1660.56 2325.28 1667.12 2325.28 Q1671.06 2325.28 1673.89 2326.84 Q1676.73 2328.4 1678.54 2331.55 L1678.54 2326.14 L1684.4 2326.14 L1684.4 2357.36 Z" fill="#000000" fill-rule="nonzero" fill-opacity="1" /><path clip-path="url(#clip890)" d="M1710.53 2312.32 Q1706.26 2319.64 1704.2 2326.8 Q1702.13 2333.97 1702.13 2341.32 Q1702.13 2348.67 1704.2 2355.9 Q1706.3 2363.09 1710.53 2370.38 L1705.44 2370.38 Q1700.66 2362.9 1698.28 2355.67 Q1695.92 2348.45 1695.92 2341.32 Q1695.92 2334.22 1698.28 2327.03 Q1700.63 2319.83 1705.44 2312.32 L1710.53 2312.32 Z" fill="#000000" fill-rule="nonzero" fill-opacity="1" /><path clip-path="url(#clip890)" d="M1729.44 2311.97 L1729.44 2377.16 L1724.02 2377.16 L1724.02 2311.97 L1729.44 2311.97 Z" fill="#000000" fill-rule="nonzero" fill-opacity="1" /><path clip-path="url(#clip890)" d="M1743.63 2312.26 L1749.52 2312.26 L1749.52 2341.51 L1766.99 2326.14 L1774.47 2326.14 L1755.57 2342.81 L1775.27 2361.78 L1767.63 2361.78 L1749.52 2344.37 L1749.52 2361.78 L1743.63 2361.78 L1743.63 2312.26 Z" fill="#000000" fill-rule="nonzero" fill-opacity="1" /><path clip-path="url(#clip890)" d="M1789.15 2311.97 L1789.15 2377.16 L1783.73 2377.16 L1783.73 2311.97 L1789.15 2311.97 Z" fill="#000000" fill-rule="nonzero" fill-opacity="1" /><path clip-path="url(#clip890)" d="M1802.64 2312.32 L1807.73 2312.32 Q1812.51 2319.83 1814.86 2327.03 Q1817.25 2334.22 1817.25 2341.32 Q1817.25 2348.45 1814.86 2355.67 Q1812.51 2362.9 1807.73 2370.38 L1802.64 2370.38 Q1806.87 2363.09 1808.94 2355.9 Q1811.04 2348.67 1811.04 2341.32 Q1811.04 2333.97 1808.94 2326.8 Q1806.87 2319.64 1802.64 2312.32 Z" fill="#000000" fill-rule="nonzero" fill-opacity="1" /><polyline clip-path="url(#clip890)" style="stroke:#000000; stroke-linecap:round; stroke-linejoin:round; stroke-width:4; stroke-opacity:1; fill:none" points="301.468,2204.92 301.468,1675.44 "/>
<polyline clip-path="url(#clip890)" style="stroke:#000000; stroke-linecap:round; stroke-linejoin:round; stroke-width:4; stroke-opacity:1; fill:none" points="301.468,2138.73 320.366,2138.73 "/>
<polyline clip-path="url(#clip890)" style="stroke:#000000; stroke-linecap:round; stroke-linejoin:round; stroke-width:4; stroke-opacity:1; fill:none" points="301.468,2039.46 320.366,2039.46 "/>
<polyline clip-path="url(#clip890)" style="stroke:#000000; stroke-linecap:round; stroke-linejoin:round; stroke-width:4; stroke-opacity:1; fill:none" points="301.468,1940.18 320.366,1940.18 "/>
<polyline clip-path="url(#clip890)" style="stroke:#000000; stroke-linecap:round; stroke-linejoin:round; stroke-width:4; stroke-opacity:1; fill:none" points="301.468,1840.9 320.366,1840.9 "/>
<polyline clip-path="url(#clip890)" style="stroke:#000000; stroke-linecap:round; stroke-linejoin:round; stroke-width:4; stroke-opacity:1; fill:none" points="301.468,1741.62 320.366,1741.62 "/>
<polyline clip-path="url(#clip890)" style="stroke:#000000; stroke-linecap:round; stroke-linejoin:round; stroke-width:4; stroke-opacity:1; fill:none" points="301.468,2198.3 310.917,2198.3 "/>
<polyline clip-path="url(#clip890)" style="stroke:#000000; stroke-linecap:round; stroke-linejoin:round; stroke-width:4; stroke-opacity:1; fill:none" points="301.468,2188.37 310.917,2188.37 "/>
<polyline clip-path="url(#clip890)" style="stroke:#000000; stroke-linecap:round; stroke-linejoin:round; stroke-width:4; stroke-opacity:1; fill:none" points="301.468,2178.45 310.917,2178.45 "/>
<polyline clip-path="url(#clip890)" style="stroke:#000000; stroke-linecap:round; stroke-linejoin:round; stroke-width:4; stroke-opacity:1; fill:none" points="301.468,2168.52 310.917,2168.52 "/>
<polyline clip-path="url(#clip890)" style="stroke:#000000; stroke-linecap:round; stroke-linejoin:round; stroke-width:4; stroke-opacity:1; fill:none" points="301.468,2158.59 310.917,2158.59 "/>
<polyline clip-path="url(#clip890)" style="stroke:#000000; stroke-linecap:round; stroke-linejoin:round; stroke-width:4; stroke-opacity:1; fill:none" points="301.468,2148.66 310.917,2148.66 "/>
<polyline clip-path="url(#clip890)" style="stroke:#000000; stroke-linecap:round; stroke-linejoin:round; stroke-width:4; stroke-opacity:1; fill:none" points="301.468,2128.81 310.917,2128.81 "/>
<polyline clip-path="url(#clip890)" style="stroke:#000000; stroke-linecap:round; stroke-linejoin:round; stroke-width:4; stroke-opacity:1; fill:none" points="301.468,2118.88 310.917,2118.88 "/>
<polyline clip-path="url(#clip890)" style="stroke:#000000; stroke-linecap:round; stroke-linejoin:round; stroke-width:4; stroke-opacity:1; fill:none" points="301.468,2108.95 310.917,2108.95 "/>
<polyline clip-path="url(#clip890)" style="stroke:#000000; stroke-linecap:round; stroke-linejoin:round; stroke-width:4; stroke-opacity:1; fill:none" points="301.468,2099.02 310.917,2099.02 "/>
<polyline clip-path="url(#clip890)" style="stroke:#000000; stroke-linecap:round; stroke-linejoin:round; stroke-width:4; stroke-opacity:1; fill:none" points="301.468,2089.1 310.917,2089.1 "/>
<polyline clip-path="url(#clip890)" style="stroke:#000000; stroke-linecap:round; stroke-linejoin:round; stroke-width:4; stroke-opacity:1; fill:none" points="301.468,2079.17 310.917,2079.17 "/>
<polyline clip-path="url(#clip890)" style="stroke:#000000; stroke-linecap:round; stroke-linejoin:round; stroke-width:4; stroke-opacity:1; fill:none" points="301.468,2069.24 310.917,2069.24 "/>
<polyline clip-path="url(#clip890)" style="stroke:#000000; stroke-linecap:round; stroke-linejoin:round; stroke-width:4; stroke-opacity:1; fill:none" points="301.468,2059.31 310.917,2059.31 "/>
<polyline clip-path="url(#clip890)" style="stroke:#000000; stroke-linecap:round; stroke-linejoin:round; stroke-width:4; stroke-opacity:1; fill:none" points="301.468,2049.38 310.917,2049.38 "/>
<polyline clip-path="url(#clip890)" style="stroke:#000000; stroke-linecap:round; stroke-linejoin:round; stroke-width:4; stroke-opacity:1; fill:none" points="301.468,2029.53 310.917,2029.53 "/>
<polyline clip-path="url(#clip890)" style="stroke:#000000; stroke-linecap:round; stroke-linejoin:round; stroke-width:4; stroke-opacity:1; fill:none" points="301.468,2019.6 310.917,2019.6 "/>
<polyline clip-path="url(#clip890)" style="stroke:#000000; stroke-linecap:round; stroke-linejoin:round; stroke-width:4; stroke-opacity:1; fill:none" points="301.468,2009.67 310.917,2009.67 "/>
<polyline clip-path="url(#clip890)" style="stroke:#000000; stroke-linecap:round; stroke-linejoin:round; stroke-width:4; stroke-opacity:1; fill:none" points="301.468,1999.75 310.917,1999.75 "/>
<polyline clip-path="url(#clip890)" style="stroke:#000000; stroke-linecap:round; stroke-linejoin:round; stroke-width:4; stroke-opacity:1; fill:none" points="301.468,1989.82 310.917,1989.82 "/>
<polyline clip-path="url(#clip890)" style="stroke:#000000; stroke-linecap:round; stroke-linejoin:round; stroke-width:4; stroke-opacity:1; fill:none" points="301.468,1979.89 310.917,1979.89 "/>
<polyline clip-path="url(#clip890)" style="stroke:#000000; stroke-linecap:round; stroke-linejoin:round; stroke-width:4; stroke-opacity:1; fill:none" points="301.468,1969.96 310.917,1969.96 "/>
<polyline clip-path="url(#clip890)" style="stroke:#000000; stroke-linecap:round; stroke-linejoin:round; stroke-width:4; stroke-opacity:1; fill:none" points="301.468,1960.03 310.917,1960.03 "/>
<polyline clip-path="url(#clip890)" style="stroke:#000000; stroke-linecap:round; stroke-linejoin:round; stroke-width:4; stroke-opacity:1; fill:none" points="301.468,1950.11 310.917,1950.11 "/>
<polyline clip-path="url(#clip890)" style="stroke:#000000; stroke-linecap:round; stroke-linejoin:round; stroke-width:4; stroke-opacity:1; fill:none" points="301.468,1930.25 310.917,1930.25 "/>
<polyline clip-path="url(#clip890)" style="stroke:#000000; stroke-linecap:round; stroke-linejoin:round; stroke-width:4; stroke-opacity:1; fill:none" points="301.468,1920.32 310.917,1920.32 "/>
<polyline clip-path="url(#clip890)" style="stroke:#000000; stroke-linecap:round; stroke-linejoin:round; stroke-width:4; stroke-opacity:1; fill:none" points="301.468,1910.4 310.917,1910.4 "/>
<polyline clip-path="url(#clip890)" style="stroke:#000000; stroke-linecap:round; stroke-linejoin:round; stroke-width:4; stroke-opacity:1; fill:none" points="301.468,1900.47 310.917,1900.47 "/>
<polyline clip-path="url(#clip890)" style="stroke:#000000; stroke-linecap:round; stroke-linejoin:round; stroke-width:4; stroke-opacity:1; fill:none" points="301.468,1890.54 310.917,1890.54 "/>
<polyline clip-path="url(#clip890)" style="stroke:#000000; stroke-linecap:round; stroke-linejoin:round; stroke-width:4; stroke-opacity:1; fill:none" points="301.468,1880.61 310.917,1880.61 "/>
<polyline clip-path="url(#clip890)" style="stroke:#000000; stroke-linecap:round; stroke-linejoin:round; stroke-width:4; stroke-opacity:1; fill:none" points="301.468,1870.68 310.917,1870.68 "/>
<polyline clip-path="url(#clip890)" style="stroke:#000000; stroke-linecap:round; stroke-linejoin:round; stroke-width:4; stroke-opacity:1; fill:none" points="301.468,1860.76 310.917,1860.76 "/>
<polyline clip-path="url(#clip890)" style="stroke:#000000; stroke-linecap:round; stroke-linejoin:round; stroke-width:4; stroke-opacity:1; fill:none" points="301.468,1850.83 310.917,1850.83 "/>
<polyline clip-path="url(#clip890)" style="stroke:#000000; stroke-linecap:round; stroke-linejoin:round; stroke-width:4; stroke-opacity:1; fill:none" points="301.468,1830.97 310.917,1830.97 "/>
<polyline clip-path="url(#clip890)" style="stroke:#000000; stroke-linecap:round; stroke-linejoin:round; stroke-width:4; stroke-opacity:1; fill:none" points="301.468,1821.05 310.917,1821.05 "/>
<polyline clip-path="url(#clip890)" style="stroke:#000000; stroke-linecap:round; stroke-linejoin:round; stroke-width:4; stroke-opacity:1; fill:none" points="301.468,1811.12 310.917,1811.12 "/>
<polyline clip-path="url(#clip890)" style="stroke:#000000; stroke-linecap:round; stroke-linejoin:round; stroke-width:4; stroke-opacity:1; fill:none" points="301.468,1801.19 310.917,1801.19 "/>
<polyline clip-path="url(#clip890)" style="stroke:#000000; stroke-linecap:round; stroke-linejoin:round; stroke-width:4; stroke-opacity:1; fill:none" points="301.468,1791.26 310.917,1791.26 "/>
<polyline clip-path="url(#clip890)" style="stroke:#000000; stroke-linecap:round; stroke-linejoin:round; stroke-width:4; stroke-opacity:1; fill:none" points="301.468,1781.33 310.917,1781.33 "/>
<polyline clip-path="url(#clip890)" style="stroke:#000000; stroke-linecap:round; stroke-linejoin:round; stroke-width:4; stroke-opacity:1; fill:none" points="301.468,1771.41 310.917,1771.41 "/>
<polyline clip-path="url(#clip890)" style="stroke:#000000; stroke-linecap:round; stroke-linejoin:round; stroke-width:4; stroke-opacity:1; fill:none" points="301.468,1761.48 310.917,1761.48 "/>
<polyline clip-path="url(#clip890)" style="stroke:#000000; stroke-linecap:round; stroke-linejoin:round; stroke-width:4; stroke-opacity:1; fill:none" points="301.468,1751.55 310.917,1751.55 "/>
<polyline clip-path="url(#clip890)" style="stroke:#000000; stroke-linecap:round; stroke-linejoin:round; stroke-width:4; stroke-opacity:1; fill:none" points="301.468,1731.7 310.917,1731.7 "/>
<polyline clip-path="url(#clip890)" style="stroke:#000000; stroke-linecap:round; stroke-linejoin:round; stroke-width:4; stroke-opacity:1; fill:none" points="301.468,1721.77 310.917,1721.77 "/>
<polyline clip-path="url(#clip890)" style="stroke:#000000; stroke-linecap:round; stroke-linejoin:round; stroke-width:4; stroke-opacity:1; fill:none" points="301.468,1711.84 310.917,1711.84 "/>
<polyline clip-path="url(#clip890)" style="stroke:#000000; stroke-linecap:round; stroke-linejoin:round; stroke-width:4; stroke-opacity:1; fill:none" points="301.468,1701.91 310.917,1701.91 "/>
<polyline clip-path="url(#clip890)" style="stroke:#000000; stroke-linecap:round; stroke-linejoin:round; stroke-width:4; stroke-opacity:1; fill:none" points="301.468,1691.98 310.917,1691.98 "/>
<polyline clip-path="url(#clip890)" style="stroke:#000000; stroke-linecap:round; stroke-linejoin:round; stroke-width:4; stroke-opacity:1; fill:none" points="301.468,1682.06 310.917,1682.06 "/>
<path clip-path="url(#clip890)" d="M116.2 2139.19 L145.876 2139.19 L145.876 2143.12 L116.2 2143.12 L116.2 2139.19 Z" fill="#000000" fill-rule="nonzero" fill-opacity="1" /><path clip-path="url(#clip890)" d="M165.968 2124.53 Q162.357 2124.53 160.529 2128.1 Q158.723 2131.64 158.723 2138.77 Q158.723 2145.88 160.529 2149.44 Q162.357 2152.98 165.968 2152.98 Q169.603 2152.98 171.408 2149.44 Q173.237 2145.88 173.237 2138.77 Q173.237 2131.64 171.408 2128.1 Q169.603 2124.53 165.968 2124.53 M165.968 2120.83 Q171.779 2120.83 174.834 2125.44 Q177.913 2130.02 177.913 2138.77 Q177.913 2147.5 174.834 2152.1 Q171.779 2156.69 165.968 2156.69 Q160.158 2156.69 157.08 2152.1 Q154.024 2147.5 154.024 2138.77 Q154.024 2130.02 157.08 2125.44 Q160.158 2120.83 165.968 2120.83 Z" fill="#000000" fill-rule="nonzero" fill-opacity="1" /><path clip-path="url(#clip890)" d="M186.13 2150.14 L191.015 2150.14 L191.015 2156.01 L186.13 2156.01 L186.13 2150.14 Z" fill="#000000" fill-rule="nonzero" fill-opacity="1" /><path clip-path="url(#clip890)" d="M211.2 2124.53 Q207.589 2124.53 205.76 2128.1 Q203.954 2131.64 203.954 2138.77 Q203.954 2145.88 205.76 2149.44 Q207.589 2152.98 211.2 2152.98 Q214.834 2152.98 216.639 2149.44 Q218.468 2145.88 218.468 2138.77 Q218.468 2131.64 216.639 2128.1 Q214.834 2124.53 211.2 2124.53 M211.2 2120.83 Q217.01 2120.83 220.065 2125.44 Q223.144 2130.02 223.144 2138.77 Q223.144 2147.5 220.065 2152.1 Q217.01 2156.69 211.2 2156.69 Q205.389 2156.69 202.311 2152.1 Q199.255 2147.5 199.255 2138.77 Q199.255 2130.02 202.311 2125.44 Q205.389 2120.83 211.2 2120.83 Z" fill="#000000" fill-rule="nonzero" fill-opacity="1" /><path clip-path="url(#clip890)" d="M241.94 2136.87 Q238.792 2136.87 236.94 2139.02 Q235.112 2141.18 235.112 2144.93 Q235.112 2148.65 236.94 2150.83 Q238.792 2152.98 241.94 2152.98 Q245.088 2152.98 246.917 2150.83 Q248.769 2148.65 248.769 2144.93 Q248.769 2141.18 246.917 2139.02 Q245.088 2136.87 241.94 2136.87 M251.223 2122.22 L251.223 2126.48 Q249.463 2125.64 247.658 2125.2 Q245.875 2124.76 244.116 2124.76 Q239.487 2124.76 237.033 2127.89 Q234.602 2131.01 234.255 2137.33 Q235.621 2135.32 237.681 2134.26 Q239.741 2133.17 242.218 2133.17 Q247.426 2133.17 250.436 2136.34 Q253.468 2139.49 253.468 2144.93 Q253.468 2150.25 250.32 2153.47 Q247.172 2156.69 241.94 2156.69 Q235.945 2156.69 232.774 2152.1 Q229.602 2147.5 229.602 2138.77 Q229.602 2130.57 233.491 2125.71 Q237.38 2120.83 243.931 2120.83 Q245.69 2120.83 247.473 2121.18 Q249.278 2121.52 251.223 2122.22 Z" fill="#000000" fill-rule="nonzero" fill-opacity="1" /><path clip-path="url(#clip890)" d="M117.01 2039.91 L146.686 2039.91 L146.686 2043.84 L117.01 2043.84 L117.01 2039.91 Z" fill="#000000" fill-rule="nonzero" fill-opacity="1" /><path clip-path="url(#clip890)" d="M166.779 2025.26 Q163.167 2025.26 161.339 2028.82 Q159.533 2032.36 159.533 2039.49 Q159.533 2046.6 161.339 2050.16 Q163.167 2053.7 166.779 2053.7 Q170.413 2053.7 172.218 2050.16 Q174.047 2046.6 174.047 2039.49 Q174.047 2032.36 172.218 2028.82 Q170.413 2025.26 166.779 2025.26 M166.779 2021.55 Q172.589 2021.55 175.644 2026.16 Q178.723 2030.74 178.723 2039.49 Q178.723 2048.22 175.644 2052.82 Q172.589 2057.41 166.779 2057.41 Q160.968 2057.41 157.89 2052.82 Q154.834 2048.22 154.834 2039.49 Q154.834 2030.74 157.89 2026.16 Q160.968 2021.55 166.779 2021.55 Z" fill="#000000" fill-rule="nonzero" fill-opacity="1" /><path clip-path="url(#clip890)" d="M186.941 2050.86 L191.825 2050.86 L191.825 2056.74 L186.941 2056.74 L186.941 2050.86 Z" fill="#000000" fill-rule="nonzero" fill-opacity="1" /><path clip-path="url(#clip890)" d="M212.01 2025.26 Q208.399 2025.26 206.57 2028.82 Q204.764 2032.36 204.764 2039.49 Q204.764 2046.6 206.57 2050.16 Q208.399 2053.7 212.01 2053.7 Q215.644 2053.7 217.45 2050.16 Q219.278 2046.6 219.278 2039.49 Q219.278 2032.36 217.45 2028.82 Q215.644 2025.26 212.01 2025.26 M212.01 2021.55 Q217.82 2021.55 220.876 2026.16 Q223.954 2030.74 223.954 2039.49 Q223.954 2048.22 220.876 2052.82 Q217.82 2057.41 212.01 2057.41 Q206.2 2057.41 203.121 2052.82 Q200.065 2048.22 200.065 2039.49 Q200.065 2030.74 203.121 2026.16 Q206.2 2021.55 212.01 2021.55 Z" fill="#000000" fill-rule="nonzero" fill-opacity="1" /><path clip-path="url(#clip890)" d="M246.338 2038.1 Q249.695 2038.82 251.57 2041.09 Q253.468 2043.36 253.468 2046.69 Q253.468 2051.81 249.949 2054.61 Q246.431 2057.41 239.949 2057.41 Q237.774 2057.41 235.459 2056.97 Q233.167 2056.55 230.713 2055.7 L230.713 2051.18 Q232.658 2052.32 234.973 2052.89 Q237.287 2053.47 239.811 2053.47 Q244.209 2053.47 246.5 2051.74 Q248.815 2050 248.815 2046.69 Q248.815 2043.63 246.662 2041.92 Q244.533 2040.19 240.713 2040.19 L236.686 2040.19 L236.686 2036.34 L240.899 2036.34 Q244.348 2036.34 246.176 2034.98 Q248.005 2033.59 248.005 2031 Q248.005 2028.33 246.107 2026.92 Q244.232 2025.49 240.713 2025.49 Q238.792 2025.49 236.593 2025.9 Q234.394 2026.32 231.755 2027.2 L231.755 2023.03 Q234.417 2022.29 236.732 2021.92 Q239.07 2021.55 241.13 2021.55 Q246.454 2021.55 249.556 2023.98 Q252.658 2026.39 252.658 2030.51 Q252.658 2033.38 251.014 2035.37 Q249.371 2037.34 246.338 2038.1 Z" fill="#000000" fill-rule="nonzero" fill-opacity="1" /><path clip-path="url(#clip890)" d="M166.13 1925.98 Q162.519 1925.98 160.691 1929.54 Q158.885 1933.08 158.885 1940.21 Q158.885 1947.32 160.691 1950.88 Q162.519 1954.43 166.13 1954.43 Q169.765 1954.43 171.57 1950.88 Q173.399 1947.32 173.399 1940.21 Q173.399 1933.08 171.57 1929.54 Q169.765 1925.98 166.13 1925.98 M166.13 1922.27 Q171.941 1922.27 174.996 1926.88 Q178.075 1931.46 178.075 1940.21 Q178.075 1948.94 174.996 1953.55 Q171.941 1958.13 166.13 1958.13 Q160.32 1958.13 157.242 1953.55 Q154.186 1948.94 154.186 1940.21 Q154.186 1931.46 157.242 1926.88 Q160.32 1922.27 166.13 1922.27 Z" fill="#000000" fill-rule="nonzero" fill-opacity="1" /><path clip-path="url(#clip890)" d="M186.292 1951.58 L191.177 1951.58 L191.177 1957.46 L186.292 1957.46 L186.292 1951.58 Z" fill="#000000" fill-rule="nonzero" fill-opacity="1" /><path clip-path="url(#clip890)" d="M211.362 1925.98 Q207.751 1925.98 205.922 1929.54 Q204.116 1933.08 204.116 1940.21 Q204.116 1947.32 205.922 1950.88 Q207.751 1954.43 211.362 1954.43 Q214.996 1954.43 216.801 1950.88 Q218.63 1947.32 218.63 1940.21 Q218.63 1933.08 216.801 1929.54 Q214.996 1925.98 211.362 1925.98 M211.362 1922.27 Q217.172 1922.27 220.227 1926.88 Q223.306 1931.46 223.306 1940.21 Q223.306 1948.94 220.227 1953.55 Q217.172 1958.13 211.362 1958.13 Q205.552 1958.13 202.473 1953.55 Q199.417 1948.94 199.417 1940.21 Q199.417 1931.46 202.473 1926.88 Q205.552 1922.27 211.362 1922.27 Z" fill="#000000" fill-rule="nonzero" fill-opacity="1" /><path clip-path="url(#clip890)" d="M241.524 1925.98 Q237.912 1925.98 236.084 1929.54 Q234.278 1933.08 234.278 1940.21 Q234.278 1947.32 236.084 1950.88 Q237.912 1954.43 241.524 1954.43 Q245.158 1954.43 246.963 1950.88 Q248.792 1947.32 248.792 1940.21 Q248.792 1933.08 246.963 1929.54 Q245.158 1925.98 241.524 1925.98 M241.524 1922.27 Q247.334 1922.27 250.389 1926.88 Q253.468 1931.46 253.468 1940.21 Q253.468 1948.94 250.389 1953.55 Q247.334 1958.13 241.524 1958.13 Q235.713 1958.13 232.635 1953.55 Q229.579 1948.94 229.579 1940.21 Q229.579 1931.46 232.635 1926.88 Q235.713 1922.27 241.524 1922.27 Z" fill="#000000" fill-rule="nonzero" fill-opacity="1" /><path clip-path="url(#clip890)" d="M166.779 1826.7 Q163.167 1826.7 161.339 1830.26 Q159.533 1833.81 159.533 1840.94 Q159.533 1848.04 161.339 1851.61 Q163.167 1855.15 166.779 1855.15 Q170.413 1855.15 172.218 1851.61 Q174.047 1848.04 174.047 1840.94 Q174.047 1833.81 172.218 1830.26 Q170.413 1826.7 166.779 1826.7 M166.779 1823 Q172.589 1823 175.644 1827.6 Q178.723 1832.19 178.723 1840.94 Q178.723 1849.66 175.644 1854.27 Q172.589 1858.85 166.779 1858.85 Q160.968 1858.85 157.89 1854.27 Q154.834 1849.66 154.834 1840.94 Q154.834 1832.19 157.89 1827.6 Q160.968 1823 166.779 1823 Z" fill="#000000" fill-rule="nonzero" fill-opacity="1" /><path clip-path="url(#clip890)" d="M186.941 1852.3 L191.825 1852.3 L191.825 1858.18 L186.941 1858.18 L186.941 1852.3 Z" fill="#000000" fill-rule="nonzero" fill-opacity="1" /><path clip-path="url(#clip890)" d="M212.01 1826.7 Q208.399 1826.7 206.57 1830.26 Q204.764 1833.81 204.764 1840.94 Q204.764 1848.04 206.57 1851.61 Q208.399 1855.15 212.01 1855.15 Q215.644 1855.15 217.45 1851.61 Q219.278 1848.04 219.278 1840.94 Q219.278 1833.81 217.45 1830.26 Q215.644 1826.7 212.01 1826.7 M212.01 1823 Q217.82 1823 220.876 1827.6 Q223.954 1832.19 223.954 1840.94 Q223.954 1849.66 220.876 1854.27 Q217.82 1858.85 212.01 1858.85 Q206.2 1858.85 203.121 1854.27 Q200.065 1849.66 200.065 1840.94 Q200.065 1832.19 203.121 1827.6 Q206.2 1823 212.01 1823 Z" fill="#000000" fill-rule="nonzero" fill-opacity="1" /><path clip-path="url(#clip890)" d="M246.338 1839.55 Q249.695 1840.26 251.57 1842.53 Q253.468 1844.8 253.468 1848.13 Q253.468 1853.25 249.949 1856.05 Q246.431 1858.85 239.949 1858.85 Q237.774 1858.85 235.459 1858.41 Q233.167 1858 230.713 1857.14 L230.713 1852.63 Q232.658 1853.76 234.973 1854.34 Q237.287 1854.92 239.811 1854.92 Q244.209 1854.92 246.5 1853.18 Q248.815 1851.44 248.815 1848.13 Q248.815 1845.08 246.662 1843.37 Q244.533 1841.63 240.713 1841.63 L236.686 1841.63 L236.686 1837.79 L240.899 1837.79 Q244.348 1837.79 246.176 1836.42 Q248.005 1835.03 248.005 1832.44 Q248.005 1829.78 246.107 1828.37 Q244.232 1826.93 240.713 1826.93 Q238.792 1826.93 236.593 1827.35 Q234.394 1827.76 231.755 1828.64 L231.755 1824.48 Q234.417 1823.74 236.732 1823.37 Q239.07 1823 241.13 1823 Q246.454 1823 249.556 1825.43 Q252.658 1827.83 252.658 1831.95 Q252.658 1834.82 251.014 1836.82 Q249.371 1838.78 246.338 1839.55 Z" fill="#000000" fill-rule="nonzero" fill-opacity="1" /><path clip-path="url(#clip890)" d="M165.968 1727.42 Q162.357 1727.42 160.529 1730.99 Q158.723 1734.53 158.723 1741.66 Q158.723 1748.76 160.529 1752.33 Q162.357 1755.87 165.968 1755.87 Q169.603 1755.87 171.408 1752.33 Q173.237 1748.76 173.237 1741.66 Q173.237 1734.53 171.408 1730.99 Q169.603 1727.42 165.968 1727.42 M165.968 1723.72 Q171.779 1723.72 174.834 1728.32 Q177.913 1732.91 177.913 1741.66 Q177.913 1750.38 174.834 1754.99 Q171.779 1759.57 165.968 1759.57 Q160.158 1759.57 157.08 1754.99 Q154.024 1750.38 154.024 1741.66 Q154.024 1732.91 157.08 1728.32 Q160.158 1723.72 165.968 1723.72 Z" fill="#000000" fill-rule="nonzero" fill-opacity="1" /><path clip-path="url(#clip890)" d="M186.13 1753.02 L191.015 1753.02 L191.015 1758.9 L186.13 1758.9 L186.13 1753.02 Z" fill="#000000" fill-rule="nonzero" fill-opacity="1" /><path clip-path="url(#clip890)" d="M211.2 1727.42 Q207.589 1727.42 205.76 1730.99 Q203.954 1734.53 203.954 1741.66 Q203.954 1748.76 205.76 1752.33 Q207.589 1755.87 211.2 1755.87 Q214.834 1755.87 216.639 1752.33 Q218.468 1748.76 218.468 1741.66 Q218.468 1734.53 216.639 1730.99 Q214.834 1727.42 211.2 1727.42 M211.2 1723.72 Q217.01 1723.72 220.065 1728.32 Q223.144 1732.91 223.144 1741.66 Q223.144 1750.38 220.065 1754.99 Q217.01 1759.57 211.2 1759.57 Q205.389 1759.57 202.311 1754.99 Q199.255 1750.38 199.255 1741.66 Q199.255 1732.91 202.311 1728.32 Q205.389 1723.72 211.2 1723.72 Z" fill="#000000" fill-rule="nonzero" fill-opacity="1" /><path clip-path="url(#clip890)" d="M241.94 1739.76 Q238.792 1739.76 236.94 1741.91 Q235.112 1744.07 235.112 1747.82 Q235.112 1751.54 236.94 1753.72 Q238.792 1755.87 241.94 1755.87 Q245.088 1755.87 246.917 1753.72 Q248.769 1751.54 248.769 1747.82 Q248.769 1744.07 246.917 1741.91 Q245.088 1739.76 241.94 1739.76 M251.223 1725.11 L251.223 1729.37 Q249.463 1728.53 247.658 1728.09 Q245.875 1727.65 244.116 1727.65 Q239.487 1727.65 237.033 1730.78 Q234.602 1733.9 234.255 1740.22 Q235.621 1738.21 237.681 1737.14 Q239.741 1736.06 242.218 1736.06 Q247.426 1736.06 250.436 1739.23 Q253.468 1742.38 253.468 1747.82 Q253.468 1753.14 250.32 1756.36 Q247.172 1759.57 241.94 1759.57 Q235.945 1759.57 232.774 1754.99 Q229.602 1750.38 229.602 1741.66 Q229.602 1733.46 233.491 1728.6 Q237.38 1723.72 243.931 1723.72 Q245.69 1723.72 247.473 1724.07 Q249.278 1724.41 251.223 1725.11 Z" fill="#000000" fill-rule="nonzero" fill-opacity="1" /><path clip-path="url(#clip890)" d="M7.98376 2247.66 L14.254 2247.66 Q12.5034 2251.32 11.644 2254.57 Q10.7847 2257.81 10.7847 2260.84 Q10.7847 2266.09 12.8217 2268.95 Q14.8587 2271.78 18.6145 2271.78 Q21.7655 2271.78 23.3888 2269.91 Q24.9802 2268 25.9669 2262.71 L26.7626 2258.83 Q28.1312 2251.64 31.6005 2248.23 Q35.038 2244.79 40.8308 2244.79 Q47.7376 2244.79 51.3024 2249.44 Q54.8672 2254.06 54.8672 2263 Q54.8672 2266.37 54.1033 2270.19 Q53.3394 2273.98 51.8435 2278.05 L45.2231 2278.05 Q47.4193 2274.14 48.5333 2270.38 Q49.6473 2266.63 49.6473 2263 Q49.6473 2257.49 47.483 2254.5 Q45.3186 2251.51 41.3082 2251.51 Q37.8071 2251.51 35.8337 2253.67 Q33.8604 2255.81 32.8737 2260.71 L32.1098 2264.62 Q30.6775 2271.82 27.622 2275.03 Q24.5664 2278.25 19.1237 2278.25 Q12.8217 2278.25 9.19324 2273.82 Q5.56479 2269.37 5.56479 2261.57 Q5.56479 2258.23 6.16953 2254.76 Q6.77427 2251.29 7.98376 2247.66 Z" fill="#000000" fill-rule="nonzero" fill-opacity="1" /><path clip-path="url(#clip890)" d="M57.2543 2220.19 Q63.62 2222.67 65.5616 2225.03 Q67.5031 2227.38 67.5031 2231.33 L67.5031 2236.01 L62.6015 2236.01 L62.6015 2232.57 Q62.6015 2230.15 61.4557 2228.82 Q60.3099 2227.48 56.0448 2225.86 L53.3712 2224.81 L18.2962 2239.22 L18.2962 2233.02 L46.178 2221.88 L18.2962 2210.74 L18.2962 2204.53 L57.2543 2220.19 Z" fill="#000000" fill-rule="nonzero" fill-opacity="1" /><path clip-path="url(#clip890)" d="M25.1393 2168.69 Q21.1926 2166.5 19.3147 2163.44 Q17.4368 2160.38 17.4368 2156.25 Q17.4368 2150.68 21.3517 2147.65 Q25.2348 2144.63 32.4281 2144.63 L53.9442 2144.63 L53.9442 2150.52 L32.619 2150.52 Q27.4946 2150.52 25.012 2152.33 Q22.5294 2154.15 22.5294 2157.87 Q22.5294 2162.42 25.5531 2165.06 Q28.5768 2167.71 33.7967 2167.71 L53.9442 2167.71 L53.9442 2173.59 L32.619 2173.59 Q27.4628 2173.59 25.012 2175.41 Q22.5294 2177.22 22.5294 2181.01 Q22.5294 2185.5 25.5849 2188.14 Q28.6086 2190.78 33.7967 2190.78 L53.9442 2190.78 L53.9442 2196.67 L18.2962 2196.67 L18.2962 2190.78 L23.8344 2190.78 Q20.556 2188.78 18.9964 2185.97 Q17.4368 2183.17 17.4368 2179.32 Q17.4368 2175.44 19.4102 2172.73 Q21.3836 2170 25.1393 2168.69 Z" fill="#000000" fill-rule="nonzero" fill-opacity="1" /><path clip-path="url(#clip890)" d="M31.2504 2126.26 L48.6606 2126.26 L48.6606 2115.95 Q48.6606 2110.76 46.5281 2108.28 Q44.3638 2105.77 39.9396 2105.77 Q35.4836 2105.77 33.3829 2108.28 Q31.2504 2110.76 31.2504 2115.95 L31.2504 2126.26 M11.7077 2126.26 L26.0305 2126.26 L26.0305 2116.75 Q26.0305 2112.04 24.28 2109.75 Q22.4976 2107.42 18.8691 2107.42 Q15.2725 2107.42 13.4901 2109.75 Q11.7077 2112.04 11.7077 2116.75 L11.7077 2126.26 M6.42416 2132.69 L6.42416 2116.27 Q6.42416 2108.92 9.4797 2104.94 Q12.5352 2100.96 18.1689 2100.96 Q22.5294 2100.96 25.1075 2103 Q27.6856 2105.03 28.3222 2108.98 Q29.3407 2104.24 32.5872 2101.63 Q35.8019 2098.99 40.6398 2098.99 Q47.0055 2098.99 50.4748 2103.32 Q53.9442 2107.64 53.9442 2115.63 L53.9442 2132.69 L6.42416 2132.69 Z" fill="#000000" fill-rule="nonzero" fill-opacity="1" /><path clip-path="url(#clip890)" d="M22.4021 2074.42 Q22.4021 2079.13 26.0942 2081.86 Q29.7545 2084.6 36.152 2084.6 Q42.5495 2084.6 46.2417 2081.9 Q49.9019 2079.16 49.9019 2074.42 Q49.9019 2069.74 46.2098 2067 Q42.5177 2064.26 36.152 2064.26 Q29.8181 2064.26 26.126 2067 Q22.4021 2069.74 22.4021 2074.42 M17.4368 2074.42 Q17.4368 2066.78 22.4021 2062.42 Q27.3673 2058.06 36.152 2058.06 Q44.9049 2058.06 49.9019 2062.42 Q54.8672 2066.78 54.8672 2074.42 Q54.8672 2082.09 49.9019 2086.45 Q44.9049 2090.78 36.152 2090.78 Q27.3673 2090.78 22.4021 2086.45 Q17.4368 2082.09 17.4368 2074.42 Z" fill="#000000" fill-rule="nonzero" fill-opacity="1" /><path clip-path="url(#clip890)" d="M4.41896 2048.35 L4.41896 2042.49 L53.9442 2042.49 L53.9442 2048.35 L4.41896 2048.35 Z" fill="#000000" fill-rule="nonzero" fill-opacity="1" /><path clip-path="url(#clip890)" d="M8.17473 2024.44 L18.2962 2024.44 L18.2962 2012.38 L22.8477 2012.38 L22.8477 2024.44 L42.1994 2024.44 Q46.5599 2024.44 47.8013 2023.27 Q49.0426 2022.06 49.0426 2018.4 L49.0426 2012.38 L53.9442 2012.38 L53.9442 2018.4 Q53.9442 2025.18 51.4297 2027.76 Q48.8834 2030.33 42.1994 2030.33 L22.8477 2030.33 L22.8477 2034.63 L18.2962 2034.63 L18.2962 2030.33 L8.17473 2030.33 L8.17473 2024.44 Z" fill="#000000" fill-rule="nonzero" fill-opacity="1" /><path clip-path="url(#clip890)" d="M18.2962 2007.23 L18.2962 1979.41 L23.6434 1979.41 L49.2654 2001.43 L49.2654 1979.41 L53.9442 1979.41 L53.9442 2008.02 L48.597 2008.02 L22.975 1986 L22.975 2007.23 L18.2962 2007.23 Z" fill="#000000" fill-rule="nonzero" fill-opacity="1" /><path clip-path="url(#clip890)" d="M6.42416 1939.34 L6.42416 1933.92 L59.9916 1950.48 L59.9916 1955.89 L6.42416 1939.34 Z" fill="#000000" fill-rule="nonzero" fill-opacity="1" /><path clip-path="url(#clip890)" d="M10.0844 1871.22 L16.8639 1871.22 Q13.8402 1874.47 12.3443 1878.16 Q10.8483 1881.82 10.8483 1885.96 Q10.8483 1894.11 15.8454 1898.44 Q20.8107 1902.76 30.2319 1902.76 Q39.6213 1902.76 44.6184 1898.44 Q49.5836 1894.11 49.5836 1885.96 Q49.5836 1881.82 48.0877 1878.16 Q46.5918 1874.47 43.5681 1871.22 L50.2839 1871.22 Q52.5755 1874.6 53.7214 1878.38 Q54.8672 1882.14 54.8672 1886.34 Q54.8672 1897.13 48.2787 1903.34 Q41.6583 1909.54 30.2319 1909.54 Q18.7736 1909.54 12.1851 1903.34 Q5.56479 1897.13 5.56479 1886.34 Q5.56479 1882.08 6.71061 1878.32 Q7.82461 1874.53 10.0844 1871.22 Z" fill="#000000" fill-rule="nonzero" fill-opacity="1" /><path clip-path="url(#clip890)" d="M6.42416 1861.29 L6.42416 1854.86 L48.5333 1854.86 L48.5333 1831.72 L53.9442 1831.72 L53.9442 1861.29 L6.42416 1861.29 Z" fill="#000000" fill-rule="nonzero" fill-opacity="1" /><path clip-path="url(#clip890)" d="M12.758 1807.6 L36.4066 1816.32 L36.4066 1798.84 L12.758 1807.6 M6.42416 1811.23 L6.42416 1803.94 L53.9442 1785.83 L53.9442 1792.51 L41.7538 1796.84 L41.7538 1818.26 L53.9442 1822.59 L53.9442 1829.37 L6.42416 1811.23 Z" fill="#000000" fill-rule="nonzero" fill-opacity="1" /><path clip-path="url(#clip890)" d="M7.98376 1750.4 L14.254 1750.4 Q12.5034 1754.06 11.644 1757.31 Q10.7847 1760.55 10.7847 1763.58 Q10.7847 1768.83 12.8217 1771.69 Q14.8587 1774.53 18.6145 1774.53 Q21.7655 1774.53 23.3888 1772.65 Q24.9802 1770.74 25.9669 1765.46 L26.7626 1761.57 Q28.1312 1754.38 31.6005 1750.97 Q35.038 1747.54 40.8308 1747.54 Q47.7376 1747.54 51.3024 1752.18 Q54.8672 1756.8 54.8672 1765.74 Q54.8672 1769.12 54.1033 1772.94 Q53.3394 1776.72 51.8435 1780.8 L45.2231 1780.8 Q47.4193 1776.88 48.5333 1773.13 Q49.6473 1769.37 49.6473 1765.74 Q49.6473 1760.24 47.483 1757.24 Q45.3186 1754.25 41.3082 1754.25 Q37.8071 1754.25 35.8337 1756.42 Q33.8604 1758.55 32.8737 1763.45 L32.1098 1767.37 Q30.6775 1774.56 27.622 1777.77 Q24.5664 1780.99 19.1237 1780.99 Q12.8217 1780.99 9.19324 1776.56 Q5.56479 1772.11 5.56479 1764.31 Q5.56479 1760.97 6.16953 1757.5 Q6.77427 1754.03 7.98376 1750.4 Z" fill="#000000" fill-rule="nonzero" fill-opacity="1" /><path clip-path="url(#clip890)" d="M7.98376 1709.02 L14.254 1709.02 Q12.5034 1712.68 11.644 1715.93 Q10.7847 1719.18 10.7847 1722.2 Q10.7847 1727.45 12.8217 1730.32 Q14.8587 1733.15 18.6145 1733.15 Q21.7655 1733.15 23.3888 1731.27 Q24.9802 1729.36 25.9669 1724.08 L26.7626 1720.2 Q28.1312 1713 31.6005 1709.6 Q35.038 1706.16 40.8308 1706.16 Q47.7376 1706.16 51.3024 1710.81 Q54.8672 1715.42 54.8672 1724.37 Q54.8672 1727.74 54.1033 1731.56 Q53.3394 1735.35 51.8435 1739.42 L45.2231 1739.42 Q47.4193 1735.51 48.5333 1731.75 Q49.6473 1727.99 49.6473 1724.37 Q49.6473 1718.86 47.483 1715.87 Q45.3186 1712.88 41.3082 1712.88 Q37.8071 1712.88 35.8337 1715.04 Q33.8604 1717.17 32.8737 1722.07 L32.1098 1725.99 Q30.6775 1733.18 27.622 1736.4 Q24.5664 1739.61 19.1237 1739.61 Q12.8217 1739.61 9.19324 1735.19 Q5.56479 1730.73 5.56479 1722.93 Q5.56479 1719.59 6.16953 1716.12 Q6.77427 1712.65 7.98376 1709.02 Z" fill="#000000" fill-rule="nonzero" fill-opacity="1" /><path clip-path="url(#clip890)" d="M33.4784 1678.63 L33.4784 1661.47 L38.6983 1661.47 L38.6983 1678.63 L33.4784 1678.63 Z" fill="#000000" fill-rule="nonzero" fill-opacity="1" /><path clip-path="url(#clip890)" d="M48.5333 1629.48 L48.5333 1618.98 L12.2806 1618.98 L14.5723 1630.41 L8.71581 1630.41 L6.42416 1619.04 L6.42416 1612.62 L48.5333 1612.62 L48.5333 1602.11 L53.9442 1602.11 L53.9442 1629.48 L48.5333 1629.48 Z" fill="#000000" fill-rule="nonzero" fill-opacity="1" /><polyline clip-path="url(#clip893)" style="stroke:#000000; stroke-linecap:round; stroke-linejoin:round; stroke-width:8; stroke-opacity:1; fill:none" points="382.165,1690.78 537.928,1884.77 622.596,1915.25 681.282,1924.96 726.429,1927.27 763.288,1926.76 794.576,1926.57 821.885,1927.41 846.228,1927.29 868.291,1926.87 888.559,1927.11 907.391,1927.27 925.059,1927.32 941.776,1927.55 957.71,1927.73 972.999,1928.05 987.757,1928.26 1002.08,1928.53 1016.04,1928.75 1029.72,1929.06 1043.17,1929.36 1056.45,1929.69 1069.6,1930.04 1082.65,1930.4 1095.65,1930.77 1108.63,1931.14 1121.6,1931.5 1134.58,1931.88 1147.59,1932.23 1160.63,1932.55 1173.71,1932.86 1186.81,1933.12 1199.92,1933.33 1213.04,1933.49 1226.13,1933.63 1239.16,1933.73 1252.11,1933.81 1264.94,1933.88 1277.62,1933.96 1290.11,1934.03 1302.38,1934.11 1314.4,1934.17 1326.16,1934.22 1337.62,1934.24 1348.78,1934.42 1359.62,1934.3 1370.15,1934.15 1380.35,1934.51 1390.24,1934.6 1399.81,1934.64 1409.08,1934.63 1418.04,1934.67 1426.72,1934.7 1435.11,1934.71 1443.24,1934.73 1451.11,1934.74 1458.73,1934.78 1466.12,1934.76 1473.28,1934.77 1480.22,1934.77 1486.96,1934.84 1493.5,1934.85 1499.85,1934.87 1506.03,1934.89 1512.03,1934.89 1517.88,1934.92 1523.57,1934.94 1529.11,1934.95 1534.51,1934.96 1539.77,1934.99 1544.9,1935.03 1549.92,1935.05 1554.81,1935.06 1559.59,1935.07 1564.26,1935.1 1568.83,1935.13 1573.29,1935.18 1577.66,1935.2 1581.94,1935.24 1586.13,1935.26 1590.24,1935.29 1594.26,1935.32 1598.2,1935.34 1602.07,1935.37 1605.87,1935.41 1609.59,1935.43 1613.25,1935.43 1616.84,1935.47 1620.36,1935.5 1623.83,1935.71 1627.23,1935.73 1630.58,1935.74 1633.87,1935.82 1637.11,1935.78 1640.29,1935.8 1643.43,1935.82 1646.51,1935.77 1649.55,1935.85 1652.54,1935.89 1655.49,1935.9 1658.39,1935.83 1661.25,1935.9 1664.07,1935.9 1666.85,1935.72 1669.59,1935.94 1672.3,1935.86 1674.96,1935.93 1677.59,1935.94 1680.19,1935.94 1682.75,1935.93 1685.28,1935.96 1687.77,1935.92 1690.24,1935.91 1692.67,1935.9 1695.08,1935.89 1697.45,1935.88 1699.8,1935.87 1702.11,1935.85 1704.41,1935.84 1706.67,1935.81 1708.91,1935.79 1711.12,1935.78 1713.31,1935.76 1715.47,1935.73 1717.61,1935.71 1719.73,1935.69 1721.82,1935.67 1723.89,1935.66 1725.94,1935.63 1727.97,1935.61 1729.98,1935.58 1731.97,1935.73 1733.93,1935.7 1735.88,1935.65 1737.81,1935.66 1739.72,1935.65 1741.61,1935.63 1743.48,1935.53 1745.34,1935.54 1747.18,1935.52 1749,1935.31 1750.8,1935.49 1752.59,1935.26 1754.36,1935.44 1756.11,1935.42 1757.85,1935.39 1759.58,1935.35 1761.29,1935.34 1762.98,1935.32 1764.66,1935.31 1766.33,1935.3 1767.98,1935.26 1769.62,1935.23 1771.24,1935.22 1772.85,1935.22 1774.45,1935.19 1776.04,1935.17 1777.61,1935.18 1779.17,1935.14 1780.72,1935.13 1782.25,1935.12 1783.78,1935.1 1785.29,1935.05 1786.79,1935.08 1788.28,1935.06 1789.76,1935.03 1791.23,1935.01 1792.68,1934.95 1794.13,1934.98 1795.57,1934.97 1796.99,1934.95 1798.41,1934.93 1799.81,1934.92 1801.21,1934.9 1802.59,1934.89 1803.97,1934.89 1805.34,1934.85 1806.7,1934.83 1808.05,1934.82 1809.39,1934.81 1810.72,1934.79 1812.04,1934.77 1813.35,1934.9 1814.66,1934.87 1815.96,1934.85 1817.24,1934.84 1818.53,1934.83 1819.8,1934.81 1821.06,1934.8 1822.32,1934.6 1823.57,1934.78 1824.81,1934.76 1826.05,1934.77 1827.27,1934.73 1828.49,1934.75 1829.71,1934.69 1830.91,1934.68 1832.11,1934.67 1833.31,1934.66 1834.49,1934.64 1835.67,1934.63 1836.84,1934.61 1838.01,1934.59 1839.17,1934.58 1840.32,1934.57 1841.47,1934.56 1842.61,1934.6 1843.74,1934.54 1844.87,1934.53 1846,1934.52 1847.11,1934.51 1848.23,1934.5 1849.33,1934.49 1850.43,1934.48 1851.53,1934.48 1852.62,1934.47 1853.7,1934.47 1854.78,1934.45 1855.85,1934.45 1856.92,1934.43 1857.99,1934.43 1859.04,1934.42 1860.1,1934.41 1861.15,1934.41 1862.19,1934.42 1863.23,1934.41 1864.27,1934.4 1865.3,1934.38 1866.32,1934.4 1867.34,1934.39 1868.36,1934.36 1869.37,1934.35 1870.38,1934.32 1871.39,1934.32 1872.39,1934.34 1873.39,1934.33 1874.38,1934.34 1875.37,1934.35 1876.35,1934.32 1877.33,1934.32 1878.31,1934.32 1879.28,1934.31 1880.25,1934.3 1881.22,1934.3 1882.18,1934.3 1883.14,1934.3 1884.1,1934.29 1885.05,1934.29 1886,1934.29 1886.95,1934.29 1887.89,1934.28 1888.83,1934.28 1889.77,1934.41 1890.7,1934.44 1891.63,1934.46 1892.56,1934.39 1893.49,1934.39 1894.41,1934.4 1895.33,1934.43 1896.25,1934.33 1897.16,1934.38 1898.08,1934.38 1898.99,1934.4 1899.9,1934.39 1900.8,1934.39 1901.7,1934.39 1902.61,1934.39 1903.51,1934.39 1904.4,1934.4 1905.3,1934.39 1906.19,1934.39 1907.08,1934.33 1907.97,1934.42 1908.86,1934.4 1909.75,1934.33 1910.63,1934.38 1911.52,1934.39 1912.4,1934.34 1913.28,1934.38 1914.16,1934.41 1915.03,1934.35 1915.91,1934.4 1916.79,1934.4 1917.66,1934.4 1918.54,1934.4 1919.41,1934.4 1920.28,1934.36 1921.15,1934.4 1922.02,1934.4 1922.89,1934.4 1923.76,1934.42 1924.63,1934.42 1925.5,1934.42 1926.37,1934.42 1927.24,1934.44 1928.11,1934.43 1928.98,1934.44 1929.84,1934.44 1930.71,1934.45 1931.58,1934.45 1932.45,1934.42 1933.32,1934.46 1934.2,1934.46 1935.07,1934.47 1935.94,1934.47 1936.82,1934.48 1937.69,1934.47 1938.57,1934.53 1939.45,1934.53 1940.33,1934.51 1941.21,1934.51 1942.09,1934.53 1942.98,1934.54 1943.87,1934.56 1944.76,1934.55 1945.65,1934.55 1946.55,1934.57 1947.44,1934.58 1948.35,1934.59 1949.25,1934.59 1950.16,1934.61 1951.07,1934.62 1951.99,1934.62 1952.91,1934.63 1953.83,1934.64 1954.76,1934.66 1955.7,1934.67 1956.64,1934.67 1957.58,1934.68 1958.53,1934.7 1959.49,1934.72 1960.45,1934.73 1961.42,1934.74 1962.4,1934.75 1963.39,1934.77 1964.38,1934.78 1965.38,1934.8 1966.39,1934.81 1967.42,1934.82 1968.45,1934.95 1969.49,1934.96 1970.54,1934.98 1971.61,1934.99 1972.68,1935.03 1973.78,1935.05 1974.88,1935.03 1976,1935.05 1977.14,1935.11 1978.29,1935.1 1979.46,1935.12 1980.66,1935.14 1981.87,1935.15 1983.1,1935.17 1984.36,1935.19 1985.64,1935.22 1986.95,1935.25 1988.29,1935.26 1989.66,1935.29 1991.06,1935.32 1992.5,1935.33 1993.98,1935.35 1995.5,1935.38 1997.07,1935.41 1998.69,1935.43 2000.36,1935.46 2002.1,1935.46 2003.9,1935.52 2005.77,1935.55 2007.73,1935.56 2009.78,1935.61 2011.92,1935.65 2014.18,1935.69 2016.57,1935.73 2019.1,1935.77 2021.8,1935.8 2024.68,1935.84 2027.77,1935.89 2031.1,1935.93 2034.71,1935.98 2038.64,1936.03 2042.92,1936.08 2047.6,1936.13 2052.71,1936.26 2058.26,1936.3 2064.23,1936.36 2070.59,1936.46 2077.25,1936.5 2084.09,1936.61 2091.01,1936.77 2097.9,1936.95 2104.7,1937.18 2111.35,1937.39 2117.84,1937.57 2124.15,1937.7 2130.28,1937.78 2136.23,1937.86 2142.01,1937.91 2147.61,1938.08 2153.07,1938.26 2158.37,1938.61 2163.52,1938.99 2168.55,1939.39 2173.44,1939.78 2178.21,1940.18 2182.86,1940.65 2187.4,1941.17 2191.84,1941.78 2196.18,1942.5 2200.41,1943.28 2204.56,1944.15 2208.62,1944.99 2212.59,1945.81 2216.48,1946.46 2220.29,1946.91 2224.03,1947.07 2227.7,1946.96 2231.29,1946.61 2234.82,1945.98 2238.29,1945.22 2241.69,1944.37 2245.03,1943.86 2248.32,1942.79 2251.55,1941.08 2254.72,1938.94 2257.85,1936.62 2260.92,1934.5 2263.94,1933 2266.92,1932.56 2269.85,1933.4 2272.74,1935.35 2275.58,1937.98 2278.38,1940.82 2281.14,1943.29 2283.86,1944.89 2286.54,1945.5 2289.19,1945.07 2291.8,1943.81 2294.37,1942.03 2296.91,1940.02 2299.41,1938.02 2301.89,1936.57 2304.33,1935.62 2306.74,1935.42 2309.12,1936.07 2311.47,1937.38 2313.79,1939.03 2316.08,1940.7 2318.35,1941.97 2320.59,1942.67 2322.8,1942.76 2324.99,1942.3 2327.15,1941.55 2329.29,1940.65 2331.41,1939.91 2333.5,1939.37 2335.57,1939.04 2337.61,1938.87 2339.64,1938.85 2341.64,1939.12 2343.62,1939.57 2345.59,1940.19 2347.53,1940.8 2349.45,1941.28 2351.35,1941.51 2353.24,1941.43 2355.1,1941.1 2356.95,1940.64 2358.78,1940.24 2360.59,1940.01 2362.39,1940.02 2364.17,1940.19 2365.93,1940.4 2367.67,1940.63 2369.4,1940.78 2371.12,1940.87 2372.81,1940.9 2374.5,1940.95 2376.17,1940.96 2377.82,1940.97 2379.46,1940.94 2381.09,1940.87 2382.7,1940.82 2384.3,1940.77 2385.88,1940.83 2387.46,1940.95 2389.02,1941.15 2390.56,1941.25 2392.1,1941.33 2393.62,1941.33 2395.13,1941.25 2396.63,1941.15 2398.11,1941.09 2399.59,1941.08 2401.05,1941.15 2402.5,1941.2 2403.94,1941.25 2405.37,1941.23 2406.79,1941.22 2408.2,1941.26 2409.6,1941.36 2410.99,1941.51 2412.37,1941.7 2413.73,1941.84 2415.09,1941.89 2416.44,1941.85 2417.78,1941.74 2424.95,1941.81 2432.31,1941.7 2439.92,1942.46 2447.83,1941.89 2456.11,1942.85 2464.88,1942.37 2474.29,1943.26 2484.54,1943.09 2496,1943.42 2509.2,1943.9 2525.15,1944.33 2545.62,1945.19 2573.68,1946.14 2611.67,1947.52 2654.85,1949.08 3072.06,1976.73 "/>
</svg>
