<?xml version="1.0" encoding="utf-8"?>
<svg xmlns="http://www.w3.org/2000/svg" xmlns:xlink="http://www.w3.org/1999/xlink" width="600" height="400" viewBox="0 0 2400 1600">
<defs>
  <clipPath id="clip150">
    <rect x="0" y="0" width="2400" height="1600"/>
  </clipPath>
</defs>
<path clip-path="url(#clip150)" d="M0 1600 L2400 1600 L2400 0 L0 0  Z" fill="#ffffff" fill-rule="evenodd" fill-opacity="1"/>
<defs>
  <clipPath id="clip151">
    <rect x="394" y="47" width="1959" height="1377"/>
  </clipPath>
</defs>
<path clip-path="url(#clip150)" d="M394.884 1423.18 L2352.76 1423.18 L2352.76 47.2441 L394.884 47.2441  Z" fill="#ffffff" fill-rule="evenodd" fill-opacity="1"/>
<polyline clip-path="url(#clip151)" style="stroke:#000000; stroke-linecap:round; stroke-linejoin:round; stroke-width:2; stroke-opacity:0.1; fill:none" points="758.137,1423.18 758.137,47.2441 "/>
<polyline clip-path="url(#clip151)" style="stroke:#000000; stroke-linecap:round; stroke-linejoin:round; stroke-width:2; stroke-opacity:0.1; fill:none" points="1142.94,1423.18 1142.94,47.2441 "/>
<polyline clip-path="url(#clip151)" style="stroke:#000000; stroke-linecap:round; stroke-linejoin:round; stroke-width:2; stroke-opacity:0.1; fill:none" points="1527.74,1423.18 1527.74,47.2441 "/>
<polyline clip-path="url(#clip151)" style="stroke:#000000; stroke-linecap:round; stroke-linejoin:round; stroke-width:2; stroke-opacity:0.1; fill:none" points="1912.54,1423.18 1912.54,47.2441 "/>
<polyline clip-path="url(#clip151)" style="stroke:#000000; stroke-linecap:round; stroke-linejoin:round; stroke-width:2; stroke-opacity:0.1; fill:none" points="2297.34,1423.18 2297.34,47.2441 "/>
<polyline clip-path="url(#clip151)" style="stroke:#000000; stroke-linecap:round; stroke-linejoin:round; stroke-width:2; stroke-opacity:0.1; fill:none" points="394.884,1273.84 2352.76,1273.84 "/>
<polyline clip-path="url(#clip151)" style="stroke:#000000; stroke-linecap:round; stroke-linejoin:round; stroke-width:2; stroke-opacity:0.1; fill:none" points="394.884,1096.84 2352.76,1096.84 "/>
<polyline clip-path="url(#clip151)" style="stroke:#000000; stroke-linecap:round; stroke-linejoin:round; stroke-width:2; stroke-opacity:0.1; fill:none" points="394.884,919.833 2352.76,919.833 "/>
<polyline clip-path="url(#clip151)" style="stroke:#000000; stroke-linecap:round; stroke-linejoin:round; stroke-width:2; stroke-opacity:0.1; fill:none" points="394.884,742.827 2352.76,742.827 "/>
<polyline clip-path="url(#clip151)" style="stroke:#000000; stroke-linecap:round; stroke-linejoin:round; stroke-width:2; stroke-opacity:0.1; fill:none" points="394.884,565.821 2352.76,565.821 "/>
<polyline clip-path="url(#clip151)" style="stroke:#000000; stroke-linecap:round; stroke-linejoin:round; stroke-width:2; stroke-opacity:0.1; fill:none" points="394.884,388.815 2352.76,388.815 "/>
<polyline clip-path="url(#clip151)" style="stroke:#000000; stroke-linecap:round; stroke-linejoin:round; stroke-width:2; stroke-opacity:0.1; fill:none" points="394.884,211.809 2352.76,211.809 "/>
<polyline clip-path="url(#clip150)" style="stroke:#000000; stroke-linecap:round; stroke-linejoin:round; stroke-width:4; stroke-opacity:1; fill:none" points="394.884,1423.18 2352.76,1423.18 "/>
<polyline clip-path="url(#clip150)" style="stroke:#000000; stroke-linecap:round; stroke-linejoin:round; stroke-width:4; stroke-opacity:1; fill:none" points="758.137,1423.18 758.137,1404.28 "/>
<polyline clip-path="url(#clip150)" style="stroke:#000000; stroke-linecap:round; stroke-linejoin:round; stroke-width:4; stroke-opacity:1; fill:none" points="1142.94,1423.18 1142.94,1404.28 "/>
<polyline clip-path="url(#clip150)" style="stroke:#000000; stroke-linecap:round; stroke-linejoin:round; stroke-width:4; stroke-opacity:1; fill:none" points="1527.74,1423.18 1527.74,1404.28 "/>
<polyline clip-path="url(#clip150)" style="stroke:#000000; stroke-linecap:round; stroke-linejoin:round; stroke-width:4; stroke-opacity:1; fill:none" points="1912.54,1423.18 1912.54,1404.28 "/>
<polyline clip-path="url(#clip150)" style="stroke:#000000; stroke-linecap:round; stroke-linejoin:round; stroke-width:4; stroke-opacity:1; fill:none" points="2297.34,1423.18 2297.34,1404.28 "/>
<path clip-path="url(#clip150)" d="M721.829 1481.64 L738.149 1481.64 L738.149 1485.58 L716.204 1485.58 L716.204 1481.64 Q718.866 1478.89 723.45 1474.26 Q728.056 1469.61 729.237 1468.27 Q731.482 1465.74 732.362 1464.01 Q733.265 1462.25 733.265 1460.56 Q733.265 1457.8 731.32 1456.07 Q729.399 1454.33 726.297 1454.33 Q724.098 1454.33 721.644 1455.09 Q719.214 1455.86 716.436 1457.41 L716.436 1452.69 Q719.26 1451.55 721.714 1450.97 Q724.167 1450.39 726.204 1450.39 Q731.575 1450.39 734.769 1453.08 Q737.964 1455.77 737.964 1460.26 Q737.964 1462.39 737.153 1464.31 Q736.366 1466.2 734.26 1468.8 Q733.681 1469.47 730.579 1472.69 Q727.478 1475.88 721.829 1481.64 Z" fill="#000000" fill-rule="nonzero" fill-opacity="1" /><path clip-path="url(#clip150)" d="M757.963 1454.1 Q754.352 1454.1 752.524 1457.66 Q750.718 1461.2 750.718 1468.33 Q750.718 1475.44 752.524 1479.01 Q754.352 1482.55 757.963 1482.55 Q761.598 1482.55 763.403 1479.01 Q765.232 1475.44 765.232 1468.33 Q765.232 1461.2 763.403 1457.66 Q761.598 1454.1 757.963 1454.1 M757.963 1450.39 Q763.774 1450.39 766.829 1455 Q769.908 1459.58 769.908 1468.33 Q769.908 1477.06 766.829 1481.67 Q763.774 1486.25 757.963 1486.25 Q752.153 1486.25 749.075 1481.67 Q746.019 1477.06 746.019 1468.33 Q746.019 1459.58 749.075 1455 Q752.153 1450.39 757.963 1450.39 Z" fill="#000000" fill-rule="nonzero" fill-opacity="1" /><path clip-path="url(#clip150)" d="M788.125 1454.1 Q784.514 1454.1 782.686 1457.66 Q780.88 1461.2 780.88 1468.33 Q780.88 1475.44 782.686 1479.01 Q784.514 1482.55 788.125 1482.55 Q791.76 1482.55 793.565 1479.01 Q795.394 1475.44 795.394 1468.33 Q795.394 1461.2 793.565 1457.66 Q791.76 1454.1 788.125 1454.1 M788.125 1450.39 Q793.935 1450.39 796.991 1455 Q800.07 1459.58 800.07 1468.33 Q800.07 1477.06 796.991 1481.67 Q793.935 1486.25 788.125 1486.25 Q782.315 1486.25 779.236 1481.67 Q776.181 1477.06 776.181 1468.33 Q776.181 1459.58 779.236 1455 Q782.315 1450.39 788.125 1450.39 Z" fill="#000000" fill-rule="nonzero" fill-opacity="1" /><path clip-path="url(#clip150)" d="M1116.03 1455.09 L1104.22 1473.54 L1116.03 1473.54 L1116.03 1455.09 M1114.8 1451.02 L1120.68 1451.02 L1120.68 1473.54 L1125.61 1473.54 L1125.61 1477.43 L1120.68 1477.43 L1120.68 1485.58 L1116.03 1485.58 L1116.03 1477.43 L1100.43 1477.43 L1100.43 1472.92 L1114.8 1451.02 Z" fill="#000000" fill-rule="nonzero" fill-opacity="1" /><path clip-path="url(#clip150)" d="M1143.34 1454.1 Q1139.73 1454.1 1137.9 1457.66 Q1136.1 1461.2 1136.1 1468.33 Q1136.1 1475.44 1137.9 1479.01 Q1139.73 1482.55 1143.34 1482.55 Q1146.98 1482.55 1148.78 1479.01 Q1150.61 1475.44 1150.61 1468.33 Q1150.61 1461.2 1148.78 1457.66 Q1146.98 1454.1 1143.34 1454.1 M1143.34 1450.39 Q1149.15 1450.39 1152.21 1455 Q1155.29 1459.58 1155.29 1468.33 Q1155.29 1477.06 1152.21 1481.67 Q1149.15 1486.25 1143.34 1486.25 Q1137.53 1486.25 1134.46 1481.67 Q1131.4 1477.06 1131.4 1468.33 Q1131.4 1459.58 1134.46 1455 Q1137.53 1450.39 1143.34 1450.39 Z" fill="#000000" fill-rule="nonzero" fill-opacity="1" /><path clip-path="url(#clip150)" d="M1173.51 1454.1 Q1169.89 1454.1 1168.07 1457.66 Q1166.26 1461.2 1166.26 1468.33 Q1166.26 1475.44 1168.07 1479.01 Q1169.89 1482.55 1173.51 1482.55 Q1177.14 1482.55 1178.95 1479.01 Q1180.77 1475.44 1180.77 1468.33 Q1180.77 1461.2 1178.95 1457.66 Q1177.14 1454.1 1173.51 1454.1 M1173.51 1450.39 Q1179.32 1450.39 1182.37 1455 Q1185.45 1459.58 1185.45 1468.33 Q1185.45 1477.06 1182.37 1481.67 Q1179.32 1486.25 1173.51 1486.25 Q1167.7 1486.25 1164.62 1481.67 Q1161.56 1477.06 1161.56 1468.33 Q1161.56 1459.58 1164.62 1455 Q1167.7 1450.39 1173.51 1450.39 Z" fill="#000000" fill-rule="nonzero" fill-opacity="1" /><path clip-path="url(#clip150)" d="M1498.06 1466.44 Q1494.92 1466.44 1493.07 1468.59 Q1491.24 1470.74 1491.24 1474.49 Q1491.24 1478.22 1493.07 1480.39 Q1494.92 1482.55 1498.06 1482.55 Q1501.21 1482.55 1503.04 1480.39 Q1504.89 1478.22 1504.89 1474.49 Q1504.89 1470.74 1503.04 1468.59 Q1501.21 1466.44 1498.06 1466.44 M1507.35 1451.78 L1507.35 1456.04 Q1505.59 1455.21 1503.78 1454.77 Q1502 1454.33 1500.24 1454.33 Q1495.61 1454.33 1493.16 1457.45 Q1490.73 1460.58 1490.38 1466.9 Q1491.75 1464.89 1493.81 1463.82 Q1495.87 1462.73 1498.34 1462.73 Q1503.55 1462.73 1506.56 1465.9 Q1509.59 1469.05 1509.59 1474.49 Q1509.59 1479.82 1506.44 1483.03 Q1503.3 1486.25 1498.06 1486.25 Q1492.07 1486.25 1488.9 1481.67 Q1485.73 1477.06 1485.73 1468.33 Q1485.73 1460.14 1489.62 1455.28 Q1493.5 1450.39 1500.06 1450.39 Q1501.81 1450.39 1503.6 1450.74 Q1505.4 1451.09 1507.35 1451.78 Z" fill="#000000" fill-rule="nonzero" fill-opacity="1" /><path clip-path="url(#clip150)" d="M1527.65 1454.1 Q1524.04 1454.1 1522.21 1457.66 Q1520.4 1461.2 1520.4 1468.33 Q1520.4 1475.44 1522.21 1479.01 Q1524.04 1482.55 1527.65 1482.55 Q1531.28 1482.55 1533.09 1479.01 Q1534.92 1475.44 1534.92 1468.33 Q1534.92 1461.2 1533.09 1457.66 Q1531.28 1454.1 1527.65 1454.1 M1527.65 1450.39 Q1533.46 1450.39 1536.51 1455 Q1539.59 1459.58 1539.59 1468.33 Q1539.59 1477.06 1536.51 1481.67 Q1533.46 1486.25 1527.65 1486.25 Q1521.84 1486.25 1518.76 1481.67 Q1515.7 1477.06 1515.7 1468.33 Q1515.7 1459.58 1518.76 1455 Q1521.84 1450.39 1527.65 1450.39 Z" fill="#000000" fill-rule="nonzero" fill-opacity="1" /><path clip-path="url(#clip150)" d="M1557.81 1454.1 Q1554.2 1454.1 1552.37 1457.66 Q1550.56 1461.2 1550.56 1468.33 Q1550.56 1475.44 1552.37 1479.01 Q1554.2 1482.55 1557.81 1482.55 Q1561.44 1482.55 1563.25 1479.01 Q1565.08 1475.44 1565.08 1468.33 Q1565.08 1461.2 1563.25 1457.66 Q1561.44 1454.1 1557.81 1454.1 M1557.81 1450.39 Q1563.62 1450.39 1566.68 1455 Q1569.75 1459.58 1569.75 1468.33 Q1569.75 1477.06 1566.68 1481.67 Q1563.62 1486.25 1557.81 1486.25 Q1552 1486.25 1548.92 1481.67 Q1545.87 1477.06 1545.87 1468.33 Q1545.87 1459.58 1548.92 1455 Q1552 1450.39 1557.81 1450.39 Z" fill="#000000" fill-rule="nonzero" fill-opacity="1" /><path clip-path="url(#clip150)" d="M1882.33 1469.17 Q1879 1469.17 1877.08 1470.95 Q1875.18 1472.73 1875.18 1475.86 Q1875.18 1478.98 1877.08 1480.77 Q1879 1482.55 1882.33 1482.55 Q1885.67 1482.55 1887.59 1480.77 Q1889.51 1478.96 1889.51 1475.86 Q1889.51 1472.73 1887.59 1470.95 Q1885.69 1469.17 1882.33 1469.17 M1877.66 1467.18 Q1874.65 1466.44 1872.96 1464.38 Q1871.29 1462.32 1871.29 1459.35 Q1871.29 1455.21 1874.23 1452.8 Q1877.2 1450.39 1882.33 1450.39 Q1887.5 1450.39 1890.44 1452.8 Q1893.38 1455.21 1893.38 1459.35 Q1893.38 1462.32 1891.69 1464.38 Q1890.02 1466.44 1887.03 1467.18 Q1890.41 1467.96 1892.29 1470.26 Q1894.19 1472.55 1894.19 1475.86 Q1894.19 1480.88 1891.11 1483.57 Q1888.05 1486.25 1882.33 1486.25 Q1876.62 1486.25 1873.54 1483.57 Q1870.48 1480.88 1870.48 1475.86 Q1870.48 1472.55 1872.38 1470.26 Q1874.28 1467.96 1877.66 1467.18 M1875.95 1459.79 Q1875.95 1462.48 1877.61 1463.98 Q1879.3 1465.49 1882.33 1465.49 Q1885.34 1465.49 1887.03 1463.98 Q1888.75 1462.48 1888.75 1459.79 Q1888.75 1457.11 1887.03 1455.6 Q1885.34 1454.1 1882.33 1454.1 Q1879.3 1454.1 1877.61 1455.6 Q1875.95 1457.11 1875.95 1459.79 Z" fill="#000000" fill-rule="nonzero" fill-opacity="1" /><path clip-path="url(#clip150)" d="M1912.5 1454.1 Q1908.89 1454.1 1907.06 1457.66 Q1905.25 1461.2 1905.25 1468.33 Q1905.25 1475.44 1907.06 1479.01 Q1908.89 1482.55 1912.5 1482.55 Q1916.13 1482.55 1917.94 1479.01 Q1919.76 1475.44 1919.76 1468.33 Q1919.76 1461.2 1917.94 1457.66 Q1916.13 1454.1 1912.5 1454.1 M1912.5 1450.39 Q1918.31 1450.39 1921.36 1455 Q1924.44 1459.58 1924.44 1468.33 Q1924.44 1477.06 1921.36 1481.67 Q1918.31 1486.25 1912.5 1486.25 Q1906.69 1486.25 1903.61 1481.67 Q1900.55 1477.06 1900.55 1468.33 Q1900.55 1459.58 1903.61 1455 Q1906.69 1450.39 1912.5 1450.39 Z" fill="#000000" fill-rule="nonzero" fill-opacity="1" /><path clip-path="url(#clip150)" d="M1942.66 1454.1 Q1939.05 1454.1 1937.22 1457.66 Q1935.41 1461.2 1935.41 1468.33 Q1935.41 1475.44 1937.22 1479.01 Q1939.05 1482.55 1942.66 1482.55 Q1946.29 1482.55 1948.1 1479.01 Q1949.93 1475.44 1949.93 1468.33 Q1949.93 1461.2 1948.1 1457.66 Q1946.29 1454.1 1942.66 1454.1 M1942.66 1450.39 Q1948.47 1450.39 1951.52 1455 Q1954.6 1459.58 1954.6 1468.33 Q1954.6 1477.06 1951.52 1481.67 Q1948.47 1486.25 1942.66 1486.25 Q1936.85 1486.25 1933.77 1481.67 Q1930.71 1477.06 1930.71 1468.33 Q1930.71 1459.58 1933.77 1455 Q1936.85 1450.39 1942.66 1450.39 Z" fill="#000000" fill-rule="nonzero" fill-opacity="1" /><path clip-path="url(#clip150)" d="M2241.87 1481.64 L2249.51 1481.64 L2249.51 1455.28 L2241.2 1456.95 L2241.2 1452.69 L2249.46 1451.02 L2254.14 1451.02 L2254.14 1481.64 L2261.78 1481.64 L2261.78 1485.58 L2241.87 1485.58 L2241.87 1481.64 Z" fill="#000000" fill-rule="nonzero" fill-opacity="1" /><path clip-path="url(#clip150)" d="M2281.22 1454.1 Q2277.61 1454.1 2275.78 1457.66 Q2273.98 1461.2 2273.98 1468.33 Q2273.98 1475.44 2275.78 1479.01 Q2277.61 1482.55 2281.22 1482.55 Q2284.86 1482.55 2286.66 1479.01 Q2288.49 1475.44 2288.49 1468.33 Q2288.49 1461.2 2286.66 1457.66 Q2284.86 1454.1 2281.22 1454.1 M2281.22 1450.39 Q2287.03 1450.39 2290.09 1455 Q2293.17 1459.58 2293.17 1468.33 Q2293.17 1477.06 2290.09 1481.67 Q2287.03 1486.25 2281.22 1486.25 Q2275.41 1486.25 2272.33 1481.67 Q2269.28 1477.06 2269.28 1468.33 Q2269.28 1459.58 2272.33 1455 Q2275.41 1450.39 2281.22 1450.39 Z" fill="#000000" fill-rule="nonzero" fill-opacity="1" /><path clip-path="url(#clip150)" d="M2311.38 1454.1 Q2307.77 1454.1 2305.94 1457.66 Q2304.14 1461.2 2304.14 1468.33 Q2304.14 1475.44 2305.94 1479.01 Q2307.77 1482.55 2311.38 1482.55 Q2315.02 1482.55 2316.82 1479.01 Q2318.65 1475.44 2318.65 1468.33 Q2318.65 1461.2 2316.82 1457.66 Q2315.02 1454.1 2311.38 1454.1 M2311.38 1450.39 Q2317.19 1450.39 2320.25 1455 Q2323.33 1459.58 2323.33 1468.33 Q2323.33 1477.06 2320.25 1481.67 Q2317.19 1486.25 2311.38 1486.25 Q2305.57 1486.25 2302.49 1481.67 Q2299.44 1477.06 2299.44 1468.33 Q2299.44 1459.58 2302.49 1455 Q2305.57 1450.39 2311.38 1450.39 Z" fill="#000000" fill-rule="nonzero" fill-opacity="1" /><path clip-path="url(#clip150)" d="M2341.55 1454.1 Q2337.93 1454.1 2336.11 1457.66 Q2334.3 1461.2 2334.3 1468.33 Q2334.3 1475.44 2336.11 1479.01 Q2337.93 1482.55 2341.55 1482.55 Q2345.18 1482.55 2346.99 1479.01 Q2348.81 1475.44 2348.81 1468.33 Q2348.81 1461.2 2346.99 1457.66 Q2345.18 1454.1 2341.55 1454.1 M2341.55 1450.39 Q2347.36 1450.39 2350.41 1455 Q2353.49 1459.58 2353.49 1468.33 Q2353.49 1477.06 2350.41 1481.67 Q2347.36 1486.25 2341.55 1486.25 Q2335.74 1486.25 2332.66 1481.67 Q2329.6 1477.06 2329.6 1468.33 Q2329.6 1459.58 2332.66 1455 Q2335.74 1450.39 2341.55 1450.39 Z" fill="#000000" fill-rule="nonzero" fill-opacity="1" /><path clip-path="url(#clip150)" d="M1370.89 1518.52 L1376.75 1518.52 L1376.75 1568.04 L1370.89 1568.04 L1370.89 1518.52 Z" fill="#000000" fill-rule="nonzero" fill-opacity="1" /><polyline clip-path="url(#clip150)" style="stroke:#000000; stroke-linecap:round; stroke-linejoin:round; stroke-width:4; stroke-opacity:1; fill:none" points="394.884,1423.18 394.884,47.2441 "/>
<polyline clip-path="url(#clip150)" style="stroke:#000000; stroke-linecap:round; stroke-linejoin:round; stroke-width:4; stroke-opacity:1; fill:none" points="394.884,1273.84 413.782,1273.84 "/>
<polyline clip-path="url(#clip150)" style="stroke:#000000; stroke-linecap:round; stroke-linejoin:round; stroke-width:4; stroke-opacity:1; fill:none" points="394.884,1096.84 413.782,1096.84 "/>
<polyline clip-path="url(#clip150)" style="stroke:#000000; stroke-linecap:round; stroke-linejoin:round; stroke-width:4; stroke-opacity:1; fill:none" points="394.884,919.833 413.782,919.833 "/>
<polyline clip-path="url(#clip150)" style="stroke:#000000; stroke-linecap:round; stroke-linejoin:round; stroke-width:4; stroke-opacity:1; fill:none" points="394.884,742.827 413.782,742.827 "/>
<polyline clip-path="url(#clip150)" style="stroke:#000000; stroke-linecap:round; stroke-linejoin:round; stroke-width:4; stroke-opacity:1; fill:none" points="394.884,565.821 413.782,565.821 "/>
<polyline clip-path="url(#clip150)" style="stroke:#000000; stroke-linecap:round; stroke-linejoin:round; stroke-width:4; stroke-opacity:1; fill:none" points="394.884,388.815 413.782,388.815 "/>
<polyline clip-path="url(#clip150)" style="stroke:#000000; stroke-linecap:round; stroke-linejoin:round; stroke-width:4; stroke-opacity:1; fill:none" points="394.884,211.809 413.782,211.809 "/>
<path clip-path="url(#clip150)" d="M121.043 1293.64 L137.362 1293.64 L137.362 1297.57 L115.418 1297.57 L115.418 1293.64 Q118.08 1290.88 122.663 1286.25 Q127.269 1281.6 128.45 1280.26 Q130.695 1277.73 131.575 1276 Q132.478 1274.24 132.478 1272.55 Q132.478 1269.79 130.533 1268.06 Q128.612 1266.32 125.51 1266.32 Q123.311 1266.32 120.857 1267.09 Q118.427 1267.85 115.649 1269.4 L115.649 1264.68 Q118.473 1263.54 120.927 1262.97 Q123.38 1262.39 125.418 1262.39 Q130.788 1262.39 133.982 1265.07 Q137.177 1267.76 137.177 1272.25 Q137.177 1274.38 136.367 1276.3 Q135.579 1278.2 133.473 1280.79 Q132.894 1281.46 129.792 1284.68 Q126.691 1287.87 121.043 1293.64 Z" fill="#000000" fill-rule="nonzero" fill-opacity="1" /><path clip-path="url(#clip150)" d="M147.177 1291.69 L152.061 1291.69 L152.061 1297.57 L147.177 1297.57 L147.177 1291.69 Z" fill="#000000" fill-rule="nonzero" fill-opacity="1" /><path clip-path="url(#clip150)" d="M172.246 1266.09 Q168.635 1266.09 166.806 1269.66 Q165.001 1273.2 165.001 1280.33 Q165.001 1287.43 166.806 1291 Q168.635 1294.54 172.246 1294.54 Q175.88 1294.54 177.686 1291 Q179.514 1287.43 179.514 1280.33 Q179.514 1273.2 177.686 1269.66 Q175.88 1266.09 172.246 1266.09 M172.246 1262.39 Q178.056 1262.39 181.112 1266.99 Q184.19 1271.58 184.19 1280.33 Q184.19 1289.05 181.112 1293.66 Q178.056 1298.24 172.246 1298.24 Q166.436 1298.24 163.357 1293.66 Q160.302 1289.05 160.302 1280.33 Q160.302 1271.58 163.357 1266.99 Q166.436 1262.39 172.246 1262.39 Z" fill="#000000" fill-rule="nonzero" fill-opacity="1" /><path clip-path="url(#clip150)" d="M220.579 1272.11 L210 1282.73 L220.579 1293.31 L217.824 1296.11 L207.199 1285.49 L196.575 1296.11 L193.843 1293.31 L204.399 1282.73 L193.843 1272.11 L196.575 1269.31 L207.199 1279.93 L217.824 1269.31 L220.579 1272.11 Z" fill="#000000" fill-rule="nonzero" fill-opacity="1" /><path clip-path="url(#clip150)" d="M232.94 1293.64 L240.579 1293.64 L240.579 1267.27 L232.269 1268.94 L232.269 1264.68 L240.533 1263.01 L245.209 1263.01 L245.209 1293.64 L252.847 1293.64 L252.847 1297.57 L232.94 1297.57 L232.94 1293.64 Z" fill="#000000" fill-rule="nonzero" fill-opacity="1" /><path clip-path="url(#clip150)" d="M272.292 1266.09 Q268.681 1266.09 266.852 1269.66 Q265.046 1273.2 265.046 1280.33 Q265.046 1287.43 266.852 1291 Q268.681 1294.54 272.292 1294.54 Q275.926 1294.54 277.732 1291 Q279.56 1287.43 279.56 1280.33 Q279.56 1273.2 277.732 1269.66 Q275.926 1266.09 272.292 1266.09 M272.292 1262.39 Q278.102 1262.39 281.157 1266.99 Q284.236 1271.58 284.236 1280.33 Q284.236 1289.05 281.157 1293.66 Q278.102 1298.24 272.292 1298.24 Q266.482 1298.24 263.403 1293.66 Q260.347 1289.05 260.347 1280.33 Q260.347 1271.58 263.403 1266.99 Q266.482 1262.39 272.292 1262.39 Z" fill="#000000" fill-rule="nonzero" fill-opacity="1" /><path clip-path="url(#clip150)" d="M284.236 1256.49 L308.348 1256.49 L308.348 1259.69 L284.236 1259.69 L284.236 1256.49 Z" fill="#000000" fill-rule="nonzero" fill-opacity="1" /><path clip-path="url(#clip150)" d="M317.206 1266.96 L323.413 1266.96 L323.413 1245.54 L316.661 1246.9 L316.661 1243.44 L323.375 1242.08 L327.174 1242.08 L327.174 1266.96 L333.381 1266.96 L333.381 1270.16 L317.206 1270.16 L317.206 1266.96 Z" fill="#000000" fill-rule="nonzero" fill-opacity="1" /><path clip-path="url(#clip150)" d="M349.179 1244.58 Q346.245 1244.58 344.76 1247.48 Q343.292 1250.36 343.292 1256.15 Q343.292 1261.92 344.76 1264.82 Q346.245 1267.7 349.179 1267.7 Q352.132 1267.7 353.599 1264.82 Q355.085 1261.92 355.085 1256.15 Q355.085 1250.36 353.599 1247.48 Q352.132 1244.58 349.179 1244.58 M349.179 1241.57 Q353.9 1241.57 356.383 1245.32 Q358.884 1249.04 358.884 1256.15 Q358.884 1263.24 356.383 1266.98 Q353.9 1270.71 349.179 1270.71 Q344.459 1270.71 341.957 1266.98 Q339.475 1263.24 339.475 1256.15 Q339.475 1249.04 341.957 1245.32 Q344.459 1241.57 349.179 1241.57 Z" fill="#000000" fill-rule="nonzero" fill-opacity="1" /><path clip-path="url(#clip150)" d="M131.181 1101.93 Q134.538 1102.65 136.413 1104.92 Q138.311 1107.19 138.311 1110.52 Q138.311 1115.64 134.792 1118.44 Q131.274 1121.24 124.793 1121.24 Q122.617 1121.24 120.302 1120.8 Q118.01 1120.38 115.556 1119.52 L115.556 1115.01 Q117.501 1116.14 119.816 1116.72 Q122.13 1117.3 124.654 1117.3 Q129.052 1117.3 131.343 1115.57 Q133.658 1113.83 133.658 1110.52 Q133.658 1107.46 131.505 1105.75 Q129.376 1104.02 125.556 1104.02 L121.529 1104.02 L121.529 1100.17 L125.742 1100.17 Q129.191 1100.17 131.019 1098.81 Q132.848 1097.42 132.848 1094.83 Q132.848 1092.16 130.95 1090.75 Q129.075 1089.32 125.556 1089.32 Q123.635 1089.32 121.436 1089.73 Q119.237 1090.15 116.598 1091.03 L116.598 1086.86 Q119.26 1086.12 121.575 1085.75 Q123.913 1085.38 125.973 1085.38 Q131.297 1085.38 134.399 1087.81 Q137.501 1090.22 137.501 1094.34 Q137.501 1097.21 135.857 1099.2 Q134.214 1101.17 131.181 1101.93 Z" fill="#000000" fill-rule="nonzero" fill-opacity="1" /><path clip-path="url(#clip150)" d="M147.177 1114.69 L152.061 1114.69 L152.061 1120.57 L147.177 1120.57 L147.177 1114.69 Z" fill="#000000" fill-rule="nonzero" fill-opacity="1" /><path clip-path="url(#clip150)" d="M172.246 1089.08 Q168.635 1089.08 166.806 1092.65 Q165.001 1096.19 165.001 1103.32 Q165.001 1110.43 166.806 1113.99 Q168.635 1117.53 172.246 1117.53 Q175.88 1117.53 177.686 1113.99 Q179.514 1110.43 179.514 1103.32 Q179.514 1096.19 177.686 1092.65 Q175.88 1089.08 172.246 1089.08 M172.246 1085.38 Q178.056 1085.38 181.112 1089.99 Q184.19 1094.57 184.19 1103.32 Q184.19 1112.05 181.112 1116.65 Q178.056 1121.24 172.246 1121.24 Q166.436 1121.24 163.357 1116.65 Q160.302 1112.05 160.302 1103.32 Q160.302 1094.57 163.357 1089.99 Q166.436 1085.38 172.246 1085.38 Z" fill="#000000" fill-rule="nonzero" fill-opacity="1" /><path clip-path="url(#clip150)" d="M220.579 1095.1 L210 1105.73 L220.579 1116.31 L217.824 1119.11 L207.199 1108.48 L196.575 1119.11 L193.843 1116.31 L204.399 1105.73 L193.843 1095.1 L196.575 1092.3 L207.199 1102.93 L217.824 1092.3 L220.579 1095.1 Z" fill="#000000" fill-rule="nonzero" fill-opacity="1" /><path clip-path="url(#clip150)" d="M232.94 1116.63 L240.579 1116.63 L240.579 1090.27 L232.269 1091.93 L232.269 1087.67 L240.533 1086.01 L245.209 1086.01 L245.209 1116.63 L252.847 1116.63 L252.847 1120.57 L232.94 1120.57 L232.94 1116.63 Z" fill="#000000" fill-rule="nonzero" fill-opacity="1" /><path clip-path="url(#clip150)" d="M272.292 1089.08 Q268.681 1089.08 266.852 1092.65 Q265.046 1096.19 265.046 1103.32 Q265.046 1110.43 266.852 1113.99 Q268.681 1117.53 272.292 1117.53 Q275.926 1117.53 277.732 1113.99 Q279.56 1110.43 279.56 1103.32 Q279.56 1096.19 277.732 1092.65 Q275.926 1089.08 272.292 1089.08 M272.292 1085.38 Q278.102 1085.38 281.157 1089.99 Q284.236 1094.57 284.236 1103.32 Q284.236 1112.05 281.157 1116.65 Q278.102 1121.24 272.292 1121.24 Q266.482 1121.24 263.403 1116.65 Q260.347 1112.05 260.347 1103.32 Q260.347 1094.57 263.403 1089.99 Q266.482 1085.38 272.292 1085.38 Z" fill="#000000" fill-rule="nonzero" fill-opacity="1" /><path clip-path="url(#clip150)" d="M284.236 1079.48 L308.348 1079.48 L308.348 1082.68 L284.236 1082.68 L284.236 1079.48 Z" fill="#000000" fill-rule="nonzero" fill-opacity="1" /><path clip-path="url(#clip150)" d="M317.206 1089.96 L323.413 1089.96 L323.413 1068.54 L316.661 1069.89 L316.661 1066.43 L323.375 1065.08 L327.174 1065.08 L327.174 1089.96 L333.381 1089.96 L333.381 1093.16 L317.206 1093.16 L317.206 1089.96 Z" fill="#000000" fill-rule="nonzero" fill-opacity="1" /><path clip-path="url(#clip150)" d="M349.179 1067.58 Q346.245 1067.58 344.76 1070.47 Q343.292 1073.35 343.292 1079.14 Q343.292 1084.92 344.76 1087.81 Q346.245 1090.69 349.179 1090.69 Q352.132 1090.69 353.599 1087.81 Q355.085 1084.92 355.085 1079.14 Q355.085 1073.35 353.599 1070.47 Q352.132 1067.58 349.179 1067.58 M349.179 1064.57 Q353.9 1064.57 356.383 1068.31 Q358.884 1072.03 358.884 1079.14 Q358.884 1086.23 356.383 1089.98 Q353.9 1093.7 349.179 1093.7 Q344.459 1093.7 341.957 1089.98 Q339.475 1086.23 339.475 1079.14 Q339.475 1072.03 341.957 1068.31 Q344.459 1064.57 349.179 1064.57 Z" fill="#000000" fill-rule="nonzero" fill-opacity="1" /><path clip-path="url(#clip150)" d="M129.862 913.074 L118.056 931.523 L129.862 931.523 L129.862 913.074 M128.635 909 L134.515 909 L134.515 931.523 L139.445 931.523 L139.445 935.412 L134.515 935.412 L134.515 943.56 L129.862 943.56 L129.862 935.412 L114.26 935.412 L114.26 930.898 L128.635 909 Z" fill="#000000" fill-rule="nonzero" fill-opacity="1" /><path clip-path="url(#clip150)" d="M147.177 937.681 L152.061 937.681 L152.061 943.56 L147.177 943.56 L147.177 937.681 Z" fill="#000000" fill-rule="nonzero" fill-opacity="1" /><path clip-path="url(#clip150)" d="M172.246 912.079 Q168.635 912.079 166.806 915.644 Q165.001 919.185 165.001 926.315 Q165.001 933.422 166.806 936.986 Q168.635 940.528 172.246 940.528 Q175.88 940.528 177.686 936.986 Q179.514 933.422 179.514 926.315 Q179.514 919.185 177.686 915.644 Q175.88 912.079 172.246 912.079 M172.246 908.375 Q178.056 908.375 181.112 912.982 Q184.19 917.565 184.19 926.315 Q184.19 935.042 181.112 939.648 Q178.056 944.232 172.246 944.232 Q166.436 944.232 163.357 939.648 Q160.302 935.042 160.302 926.315 Q160.302 917.565 163.357 912.982 Q166.436 908.375 172.246 908.375 Z" fill="#000000" fill-rule="nonzero" fill-opacity="1" /><path clip-path="url(#clip150)" d="M220.579 918.098 L210 928.722 L220.579 939.301 L217.824 942.102 L207.199 931.477 L196.575 942.102 L193.843 939.301 L204.399 928.722 L193.843 918.098 L196.575 915.297 L207.199 925.922 L217.824 915.297 L220.579 918.098 Z" fill="#000000" fill-rule="nonzero" fill-opacity="1" /><path clip-path="url(#clip150)" d="M232.94 939.625 L240.579 939.625 L240.579 913.26 L232.269 914.926 L232.269 910.667 L240.533 909 L245.209 909 L245.209 939.625 L252.847 939.625 L252.847 943.56 L232.94 943.56 L232.94 939.625 Z" fill="#000000" fill-rule="nonzero" fill-opacity="1" /><path clip-path="url(#clip150)" d="M272.292 912.079 Q268.681 912.079 266.852 915.644 Q265.046 919.185 265.046 926.315 Q265.046 933.422 266.852 936.986 Q268.681 940.528 272.292 940.528 Q275.926 940.528 277.732 936.986 Q279.56 933.422 279.56 926.315 Q279.56 919.185 277.732 915.644 Q275.926 912.079 272.292 912.079 M272.292 908.375 Q278.102 908.375 281.157 912.982 Q284.236 917.565 284.236 926.315 Q284.236 935.042 281.157 939.648 Q278.102 944.232 272.292 944.232 Q266.482 944.232 263.403 939.648 Q260.347 935.042 260.347 926.315 Q260.347 917.565 263.403 912.982 Q266.482 908.375 272.292 908.375 Z" fill="#000000" fill-rule="nonzero" fill-opacity="1" /><path clip-path="url(#clip150)" d="M284.236 902.477 L308.348 902.477 L308.348 905.674 L284.236 905.674 L284.236 902.477 Z" fill="#000000" fill-rule="nonzero" fill-opacity="1" /><path clip-path="url(#clip150)" d="M317.206 912.953 L323.413 912.953 L323.413 891.531 L316.661 892.885 L316.661 889.424 L323.375 888.07 L327.174 888.07 L327.174 912.953 L333.381 912.953 L333.381 916.15 L317.206 916.15 L317.206 912.953 Z" fill="#000000" fill-rule="nonzero" fill-opacity="1" /><path clip-path="url(#clip150)" d="M349.179 890.571 Q346.245 890.571 344.76 893.468 Q343.292 896.345 343.292 902.138 Q343.292 907.912 344.76 910.809 Q346.245 913.686 349.179 913.686 Q352.132 913.686 353.599 910.809 Q355.085 907.912 355.085 902.138 Q355.085 896.345 353.599 893.468 Q352.132 890.571 349.179 890.571 M349.179 887.562 Q353.9 887.562 356.383 891.305 Q358.884 895.029 358.884 902.138 Q358.884 909.229 356.383 912.971 Q353.9 916.695 349.179 916.695 Q344.459 916.695 341.957 912.971 Q339.475 909.229 339.475 902.138 Q339.475 895.029 341.957 891.305 Q344.459 887.562 349.179 887.562 Z" fill="#000000" fill-rule="nonzero" fill-opacity="1" /><path clip-path="url(#clip150)" d="M117.061 731.994 L135.417 731.994 L135.417 735.93 L121.343 735.93 L121.343 744.402 Q122.362 744.055 123.38 743.893 Q124.399 743.707 125.418 743.707 Q131.205 743.707 134.584 746.879 Q137.964 750.05 137.964 755.467 Q137.964 761.045 134.492 764.147 Q131.019 767.226 124.7 767.226 Q122.524 767.226 120.255 766.855 Q118.01 766.485 115.603 765.744 L115.603 761.045 Q117.686 762.179 119.908 762.735 Q122.13 763.291 124.607 763.291 Q128.612 763.291 130.95 761.184 Q133.288 759.078 133.288 755.467 Q133.288 751.855 130.95 749.749 Q128.612 747.642 124.607 747.642 Q122.732 747.642 120.857 748.059 Q119.006 748.476 117.061 749.355 L117.061 731.994 Z" fill="#000000" fill-rule="nonzero" fill-opacity="1" /><path clip-path="url(#clip150)" d="M147.177 760.675 L152.061 760.675 L152.061 766.554 L147.177 766.554 L147.177 760.675 Z" fill="#000000" fill-rule="nonzero" fill-opacity="1" /><path clip-path="url(#clip150)" d="M172.246 735.073 Q168.635 735.073 166.806 738.638 Q165.001 742.18 165.001 749.309 Q165.001 756.416 166.806 759.98 Q168.635 763.522 172.246 763.522 Q175.88 763.522 177.686 759.98 Q179.514 756.416 179.514 749.309 Q179.514 742.18 177.686 738.638 Q175.88 735.073 172.246 735.073 M172.246 731.369 Q178.056 731.369 181.112 735.976 Q184.19 740.559 184.19 749.309 Q184.19 758.036 181.112 762.642 Q178.056 767.226 172.246 767.226 Q166.436 767.226 163.357 762.642 Q160.302 758.036 160.302 749.309 Q160.302 740.559 163.357 735.976 Q166.436 731.369 172.246 731.369 Z" fill="#000000" fill-rule="nonzero" fill-opacity="1" /><path clip-path="url(#clip150)" d="M220.579 741.092 L210 751.717 L220.579 762.295 L217.824 765.096 L207.199 754.471 L196.575 765.096 L193.843 762.295 L204.399 751.717 L193.843 741.092 L196.575 738.291 L207.199 748.916 L217.824 738.291 L220.579 741.092 Z" fill="#000000" fill-rule="nonzero" fill-opacity="1" /><path clip-path="url(#clip150)" d="M232.94 762.619 L240.579 762.619 L240.579 736.254 L232.269 737.92 L232.269 733.661 L240.533 731.994 L245.209 731.994 L245.209 762.619 L252.847 762.619 L252.847 766.554 L232.94 766.554 L232.94 762.619 Z" fill="#000000" fill-rule="nonzero" fill-opacity="1" /><path clip-path="url(#clip150)" d="M272.292 735.073 Q268.681 735.073 266.852 738.638 Q265.046 742.18 265.046 749.309 Q265.046 756.416 266.852 759.98 Q268.681 763.522 272.292 763.522 Q275.926 763.522 277.732 759.98 Q279.56 756.416 279.56 749.309 Q279.56 742.18 277.732 738.638 Q275.926 735.073 272.292 735.073 M272.292 731.369 Q278.102 731.369 281.157 735.976 Q284.236 740.559 284.236 749.309 Q284.236 758.036 281.157 762.642 Q278.102 767.226 272.292 767.226 Q266.482 767.226 263.403 762.642 Q260.347 758.036 260.347 749.309 Q260.347 740.559 263.403 735.976 Q266.482 731.369 272.292 731.369 Z" fill="#000000" fill-rule="nonzero" fill-opacity="1" /><path clip-path="url(#clip150)" d="M284.236 725.471 L308.348 725.471 L308.348 728.668 L284.236 728.668 L284.236 725.471 Z" fill="#000000" fill-rule="nonzero" fill-opacity="1" /><path clip-path="url(#clip150)" d="M317.206 735.947 L323.413 735.947 L323.413 714.525 L316.661 715.879 L316.661 712.418 L323.375 711.064 L327.174 711.064 L327.174 735.947 L333.381 735.947 L333.381 739.144 L317.206 739.144 L317.206 735.947 Z" fill="#000000" fill-rule="nonzero" fill-opacity="1" /><path clip-path="url(#clip150)" d="M349.179 713.565 Q346.245 713.565 344.76 716.462 Q343.292 719.339 343.292 725.132 Q343.292 730.906 344.76 733.803 Q346.245 736.68 349.179 736.68 Q352.132 736.68 353.599 733.803 Q355.085 730.906 355.085 725.132 Q355.085 719.339 353.599 716.462 Q352.132 713.565 349.179 713.565 M349.179 710.556 Q353.9 710.556 356.383 714.299 Q358.884 718.023 358.884 725.132 Q358.884 732.223 356.383 735.966 Q353.9 739.689 349.179 739.689 Q344.459 739.689 341.957 735.966 Q339.475 732.223 339.475 725.132 Q339.475 718.023 341.957 714.299 Q344.459 710.556 349.179 710.556 Z" fill="#000000" fill-rule="nonzero" fill-opacity="1" /><path clip-path="url(#clip150)" d="M127.593 570.405 Q124.445 570.405 122.593 572.558 Q120.765 574.711 120.765 578.461 Q120.765 582.187 122.593 584.363 Q124.445 586.516 127.593 586.516 Q130.742 586.516 132.57 584.363 Q134.422 582.187 134.422 578.461 Q134.422 574.711 132.57 572.558 Q130.742 570.405 127.593 570.405 M136.876 555.752 L136.876 560.012 Q135.117 559.178 133.311 558.738 Q131.529 558.299 129.769 558.299 Q125.14 558.299 122.686 561.424 Q120.255 564.549 119.908 570.868 Q121.274 568.854 123.334 567.789 Q125.394 566.701 127.871 566.701 Q133.08 566.701 136.089 569.873 Q139.121 573.021 139.121 578.461 Q139.121 583.785 135.973 587.002 Q132.825 590.22 127.593 590.22 Q121.598 590.22 118.427 585.637 Q115.256 581.03 115.256 572.303 Q115.256 564.109 119.144 559.248 Q123.033 554.364 129.584 554.364 Q131.343 554.364 133.126 554.711 Q134.931 555.058 136.876 555.752 Z" fill="#000000" fill-rule="nonzero" fill-opacity="1" /><path clip-path="url(#clip150)" d="M147.177 583.669 L152.061 583.669 L152.061 589.549 L147.177 589.549 L147.177 583.669 Z" fill="#000000" fill-rule="nonzero" fill-opacity="1" /><path clip-path="url(#clip150)" d="M172.246 558.067 Q168.635 558.067 166.806 561.632 Q165.001 565.174 165.001 572.303 Q165.001 579.41 166.806 582.974 Q168.635 586.516 172.246 586.516 Q175.88 586.516 177.686 582.974 Q179.514 579.41 179.514 572.303 Q179.514 565.174 177.686 561.632 Q175.88 558.067 172.246 558.067 M172.246 554.364 Q178.056 554.364 181.112 558.97 Q184.19 563.553 184.19 572.303 Q184.19 581.03 181.112 585.637 Q178.056 590.22 172.246 590.22 Q166.436 590.22 163.357 585.637 Q160.302 581.03 160.302 572.303 Q160.302 563.553 163.357 558.97 Q166.436 554.364 172.246 554.364 Z" fill="#000000" fill-rule="nonzero" fill-opacity="1" /><path clip-path="url(#clip150)" d="M220.579 564.086 L210 574.711 L220.579 585.289 L217.824 588.09 L207.199 577.465 L196.575 588.09 L193.843 585.289 L204.399 574.711 L193.843 564.086 L196.575 561.285 L207.199 571.91 L217.824 561.285 L220.579 564.086 Z" fill="#000000" fill-rule="nonzero" fill-opacity="1" /><path clip-path="url(#clip150)" d="M232.94 585.613 L240.579 585.613 L240.579 559.248 L232.269 560.914 L232.269 556.655 L240.533 554.989 L245.209 554.989 L245.209 585.613 L252.847 585.613 L252.847 589.549 L232.94 589.549 L232.94 585.613 Z" fill="#000000" fill-rule="nonzero" fill-opacity="1" /><path clip-path="url(#clip150)" d="M272.292 558.067 Q268.681 558.067 266.852 561.632 Q265.046 565.174 265.046 572.303 Q265.046 579.41 266.852 582.974 Q268.681 586.516 272.292 586.516 Q275.926 586.516 277.732 582.974 Q279.56 579.41 279.56 572.303 Q279.56 565.174 277.732 561.632 Q275.926 558.067 272.292 558.067 M272.292 554.364 Q278.102 554.364 281.157 558.97 Q284.236 563.553 284.236 572.303 Q284.236 581.03 281.157 585.637 Q278.102 590.22 272.292 590.22 Q266.482 590.22 263.403 585.637 Q260.347 581.03 260.347 572.303 Q260.347 563.553 263.403 558.97 Q266.482 554.364 272.292 554.364 Z" fill="#000000" fill-rule="nonzero" fill-opacity="1" /><path clip-path="url(#clip150)" d="M284.236 548.465 L308.348 548.465 L308.348 551.662 L284.236 551.662 L284.236 548.465 Z" fill="#000000" fill-rule="nonzero" fill-opacity="1" /><path clip-path="url(#clip150)" d="M317.206 558.941 L323.413 558.941 L323.413 537.519 L316.661 538.873 L316.661 535.412 L323.375 534.058 L327.174 534.058 L327.174 558.941 L333.381 558.941 L333.381 562.138 L317.206 562.138 L317.206 558.941 Z" fill="#000000" fill-rule="nonzero" fill-opacity="1" /><path clip-path="url(#clip150)" d="M349.179 536.56 Q346.245 536.56 344.76 539.456 Q343.292 542.334 343.292 548.126 Q343.292 553.9 344.76 556.797 Q346.245 559.674 349.179 559.674 Q352.132 559.674 353.599 556.797 Q355.085 553.9 355.085 548.126 Q355.085 542.334 353.599 539.456 Q352.132 536.56 349.179 536.56 M349.179 533.55 Q353.9 533.55 356.383 537.293 Q358.884 541.017 358.884 548.126 Q358.884 555.217 356.383 558.96 Q353.9 562.684 349.179 562.684 Q344.459 562.684 341.957 558.96 Q339.475 555.217 339.475 548.126 Q339.475 541.017 341.957 537.293 Q344.459 533.55 349.179 533.55 Z" fill="#000000" fill-rule="nonzero" fill-opacity="1" /><path clip-path="url(#clip150)" d="M115.834 377.983 L138.056 377.983 L138.056 379.973 L125.51 412.543 L120.626 412.543 L132.431 381.918 L115.834 381.918 L115.834 377.983 Z" fill="#000000" fill-rule="nonzero" fill-opacity="1" /><path clip-path="url(#clip150)" d="M147.177 406.663 L152.061 406.663 L152.061 412.543 L147.177 412.543 L147.177 406.663 Z" fill="#000000" fill-rule="nonzero" fill-opacity="1" /><path clip-path="url(#clip150)" d="M172.246 381.061 Q168.635 381.061 166.806 384.626 Q165.001 388.168 165.001 395.297 Q165.001 402.404 166.806 405.969 Q168.635 409.51 172.246 409.51 Q175.88 409.51 177.686 405.969 Q179.514 402.404 179.514 395.297 Q179.514 388.168 177.686 384.626 Q175.88 381.061 172.246 381.061 M172.246 377.358 Q178.056 377.358 181.112 381.964 Q184.19 386.547 184.19 395.297 Q184.19 404.024 181.112 408.631 Q178.056 413.214 172.246 413.214 Q166.436 413.214 163.357 408.631 Q160.302 404.024 160.302 395.297 Q160.302 386.547 163.357 381.964 Q166.436 377.358 172.246 377.358 Z" fill="#000000" fill-rule="nonzero" fill-opacity="1" /><path clip-path="url(#clip150)" d="M220.579 387.08 L210 397.705 L220.579 408.283 L217.824 411.084 L207.199 400.459 L196.575 411.084 L193.843 408.283 L204.399 397.705 L193.843 387.08 L196.575 384.279 L207.199 394.904 L217.824 384.279 L220.579 387.08 Z" fill="#000000" fill-rule="nonzero" fill-opacity="1" /><path clip-path="url(#clip150)" d="M232.94 408.607 L240.579 408.607 L240.579 382.242 L232.269 383.908 L232.269 379.649 L240.533 377.983 L245.209 377.983 L245.209 408.607 L252.847 408.607 L252.847 412.543 L232.94 412.543 L232.94 408.607 Z" fill="#000000" fill-rule="nonzero" fill-opacity="1" /><path clip-path="url(#clip150)" d="M272.292 381.061 Q268.681 381.061 266.852 384.626 Q265.046 388.168 265.046 395.297 Q265.046 402.404 266.852 405.969 Q268.681 409.51 272.292 409.51 Q275.926 409.51 277.732 405.969 Q279.56 402.404 279.56 395.297 Q279.56 388.168 277.732 384.626 Q275.926 381.061 272.292 381.061 M272.292 377.358 Q278.102 377.358 281.157 381.964 Q284.236 386.547 284.236 395.297 Q284.236 404.024 281.157 408.631 Q278.102 413.214 272.292 413.214 Q266.482 413.214 263.403 408.631 Q260.347 404.024 260.347 395.297 Q260.347 386.547 263.403 381.964 Q266.482 377.358 272.292 377.358 Z" fill="#000000" fill-rule="nonzero" fill-opacity="1" /><path clip-path="url(#clip150)" d="M284.236 371.459 L308.348 371.459 L308.348 374.656 L284.236 374.656 L284.236 371.459 Z" fill="#000000" fill-rule="nonzero" fill-opacity="1" /><path clip-path="url(#clip150)" d="M317.206 381.935 L323.413 381.935 L323.413 360.513 L316.661 361.867 L316.661 358.406 L323.375 357.052 L327.174 357.052 L327.174 381.935 L333.381 381.935 L333.381 385.132 L317.206 385.132 L317.206 381.935 Z" fill="#000000" fill-rule="nonzero" fill-opacity="1" /><path clip-path="url(#clip150)" d="M349.179 359.554 Q346.245 359.554 344.76 362.45 Q343.292 365.328 343.292 371.12 Q343.292 376.894 344.76 379.791 Q346.245 382.668 349.179 382.668 Q352.132 382.668 353.599 379.791 Q355.085 376.894 355.085 371.12 Q355.085 365.328 353.599 362.45 Q352.132 359.554 349.179 359.554 M349.179 356.544 Q353.9 356.544 356.383 360.287 Q358.884 364.011 358.884 371.12 Q358.884 378.211 356.383 381.954 Q353.9 385.678 349.179 385.678 Q344.459 385.678 341.957 381.954 Q339.475 378.211 339.475 371.12 Q339.475 364.011 341.957 360.287 Q344.459 356.544 349.179 356.544 Z" fill="#000000" fill-rule="nonzero" fill-opacity="1" /><path clip-path="url(#clip150)" d="M127.015 219.125 Q123.681 219.125 121.76 220.907 Q119.862 222.69 119.862 225.815 Q119.862 228.939 121.76 230.722 Q123.681 232.504 127.015 232.504 Q130.348 232.504 132.269 230.722 Q134.191 228.916 134.191 225.815 Q134.191 222.69 132.269 220.907 Q130.371 219.125 127.015 219.125 M122.339 217.134 Q119.33 216.393 117.64 214.333 Q115.973 212.273 115.973 209.31 Q115.973 205.166 118.913 202.759 Q121.876 200.352 127.015 200.352 Q132.177 200.352 135.117 202.759 Q138.056 205.166 138.056 209.31 Q138.056 212.273 136.367 214.333 Q134.7 216.393 131.714 217.134 Q135.093 217.921 136.968 220.213 Q138.867 222.504 138.867 225.815 Q138.867 230.838 135.788 233.523 Q132.732 236.208 127.015 236.208 Q121.297 236.208 118.218 233.523 Q115.163 230.838 115.163 225.815 Q115.163 222.504 117.061 220.213 Q118.959 217.921 122.339 217.134 M120.626 209.75 Q120.626 212.435 122.293 213.94 Q123.982 215.444 127.015 215.444 Q130.024 215.444 131.714 213.94 Q133.427 212.435 133.427 209.75 Q133.427 207.065 131.714 205.56 Q130.024 204.055 127.015 204.055 Q123.982 204.055 122.293 205.56 Q120.626 207.065 120.626 209.75 Z" fill="#000000" fill-rule="nonzero" fill-opacity="1" /><path clip-path="url(#clip150)" d="M147.177 229.657 L152.061 229.657 L152.061 235.537 L147.177 235.537 L147.177 229.657 Z" fill="#000000" fill-rule="nonzero" fill-opacity="1" /><path clip-path="url(#clip150)" d="M172.246 204.055 Q168.635 204.055 166.806 207.62 Q165.001 211.162 165.001 218.291 Q165.001 225.398 166.806 228.963 Q168.635 232.504 172.246 232.504 Q175.88 232.504 177.686 228.963 Q179.514 225.398 179.514 218.291 Q179.514 211.162 177.686 207.62 Q175.88 204.055 172.246 204.055 M172.246 200.352 Q178.056 200.352 181.112 204.958 Q184.19 209.541 184.19 218.291 Q184.19 227.018 181.112 231.625 Q178.056 236.208 172.246 236.208 Q166.436 236.208 163.357 231.625 Q160.302 227.018 160.302 218.291 Q160.302 209.541 163.357 204.958 Q166.436 200.352 172.246 200.352 Z" fill="#000000" fill-rule="nonzero" fill-opacity="1" /><path clip-path="url(#clip150)" d="M220.579 210.074 L210 220.699 L220.579 231.277 L217.824 234.078 L207.199 223.453 L196.575 234.078 L193.843 231.277 L204.399 220.699 L193.843 210.074 L196.575 207.273 L207.199 217.898 L217.824 207.273 L220.579 210.074 Z" fill="#000000" fill-rule="nonzero" fill-opacity="1" /><path clip-path="url(#clip150)" d="M232.94 231.602 L240.579 231.602 L240.579 205.236 L232.269 206.903 L232.269 202.643 L240.533 200.977 L245.209 200.977 L245.209 231.602 L252.847 231.602 L252.847 235.537 L232.94 235.537 L232.94 231.602 Z" fill="#000000" fill-rule="nonzero" fill-opacity="1" /><path clip-path="url(#clip150)" d="M272.292 204.055 Q268.681 204.055 266.852 207.62 Q265.046 211.162 265.046 218.291 Q265.046 225.398 266.852 228.963 Q268.681 232.504 272.292 232.504 Q275.926 232.504 277.732 228.963 Q279.56 225.398 279.56 218.291 Q279.56 211.162 277.732 207.62 Q275.926 204.055 272.292 204.055 M272.292 200.352 Q278.102 200.352 281.157 204.958 Q284.236 209.541 284.236 218.291 Q284.236 227.018 281.157 231.625 Q278.102 236.208 272.292 236.208 Q266.482 236.208 263.403 231.625 Q260.347 227.018 260.347 218.291 Q260.347 209.541 263.403 204.958 Q266.482 200.352 272.292 200.352 Z" fill="#000000" fill-rule="nonzero" fill-opacity="1" /><path clip-path="url(#clip150)" d="M284.236 194.453 L308.348 194.453 L308.348 197.65 L284.236 197.65 L284.236 194.453 Z" fill="#000000" fill-rule="nonzero" fill-opacity="1" /><path clip-path="url(#clip150)" d="M317.206 204.929 L323.413 204.929 L323.413 183.507 L316.661 184.861 L316.661 181.4 L323.375 180.046 L327.174 180.046 L327.174 204.929 L333.381 204.929 L333.381 208.126 L317.206 208.126 L317.206 204.929 Z" fill="#000000" fill-rule="nonzero" fill-opacity="1" /><path clip-path="url(#clip150)" d="M349.179 182.548 Q346.245 182.548 344.76 185.444 Q343.292 188.322 343.292 194.114 Q343.292 199.888 344.76 202.785 Q346.245 205.662 349.179 205.662 Q352.132 205.662 353.599 202.785 Q355.085 199.888 355.085 194.114 Q355.085 188.322 353.599 185.444 Q352.132 182.548 349.179 182.548 M349.179 179.538 Q353.9 179.538 356.383 183.281 Q358.884 187.005 358.884 194.114 Q358.884 201.205 356.383 204.948 Q353.9 208.672 349.179 208.672 Q344.459 208.672 341.957 204.948 Q339.475 201.205 339.475 194.114 Q339.475 187.005 341.957 183.281 Q344.459 179.538 349.179 179.538 Z" fill="#000000" fill-rule="nonzero" fill-opacity="1" /><path clip-path="url(#clip150)" d="M14.479 902.328 L14.479 896.471 L64.0042 896.471 L64.0042 902.328 L14.479 902.328 Z" fill="#000000" fill-rule="nonzero" fill-opacity="1" /><path clip-path="url(#clip150)" d="M14.5426 870.149 Q21.8632 874.414 29.0246 876.483 Q36.186 878.552 43.5384 878.552 Q50.8908 878.552 58.1159 876.483 Q65.3091 874.382 72.5979 870.149 L72.5979 875.242 Q65.1182 880.016 57.8931 882.403 Q50.668 884.758 43.5384 884.758 Q36.4406 884.758 29.2474 882.403 Q22.0542 880.048 14.5426 875.242 L14.5426 870.149 Z" fill="#000000" fill-rule="nonzero" fill-opacity="1" /><path clip-path="url(#clip150)" d="M14.479 858.786 L14.479 852.93 L64.0042 852.93 L64.0042 858.786 L14.479 858.786 Z" fill="#000000" fill-rule="nonzero" fill-opacity="1" /><path clip-path="url(#clip150)" d="M23.1363 816.836 L40.8648 816.836 L40.8648 799.108 L46.2757 799.108 L46.2757 816.836 L64.0042 816.836 L64.0042 822.183 L46.2757 822.183 L46.2757 839.912 L40.8648 839.912 L40.8648 822.183 L23.1363 822.183 L23.1363 816.836 Z" fill="#000000" fill-rule="nonzero" fill-opacity="1" /><path clip-path="url(#clip150)" d="M58.5933 784.117 L58.5933 773.613 L22.3406 773.613 L24.6323 785.04 L18.7758 785.04 L16.4842 773.677 L16.4842 767.247 L58.5933 767.247 L58.5933 756.744 L64.0042 756.744 L64.0042 784.117 L58.5933 784.117 Z" fill="#000000" fill-rule="nonzero" fill-opacity="1" /><path clip-path="url(#clip150)" d="M14.5426 745.508 L14.5426 740.416 Q22.0542 735.642 29.2474 733.286 Q36.4406 730.899 43.5384 730.899 Q50.668 730.899 57.8931 733.286 Q65.1182 735.642 72.5979 740.416 L72.5979 745.508 Q65.3091 741.275 58.1159 739.206 Q50.8908 737.106 43.5384 737.106 Q36.186 737.106 29.0246 739.206 Q21.8632 741.275 14.5426 745.508 Z" fill="#000000" fill-rule="nonzero" fill-opacity="1" /><path clip-path="url(#clip150)" d="M20.1444 683.316 L26.9239 683.316 Q23.9002 686.562 22.4043 690.254 Q20.9083 693.914 20.9083 698.052 Q20.9083 706.2 25.9054 710.529 Q30.8707 714.858 40.2919 714.858 Q49.6813 714.858 54.6784 710.529 Q59.6436 706.2 59.6436 698.052 Q59.6436 693.914 58.1477 690.254 Q56.6518 686.562 53.6281 683.316 L60.3439 683.316 Q62.6355 686.689 63.7814 690.477 Q64.9272 694.233 64.9272 698.434 Q64.9272 709.224 58.3387 715.431 Q51.7183 721.637 40.2919 721.637 Q28.8336 721.637 22.2451 715.431 Q15.6248 709.224 15.6248 698.434 Q15.6248 694.169 16.7706 690.413 Q17.8846 686.626 20.1444 683.316 Z" fill="#000000" fill-rule="nonzero" fill-opacity="1" /><path clip-path="url(#clip150)" d="M36.2815 675.899 L36.2815 672.207 L64.0042 672.207 L64.0042 675.899 L36.2815 675.899 Z" fill="#000000" fill-rule="nonzero" fill-opacity="1" /><path clip-path="url(#clip150)" d="M16.4842 652.41 L16.4842 646.999 L70.0516 663.55 L70.0516 668.961 L16.4842 652.41 Z" fill="#000000" fill-rule="nonzero" fill-opacity="1" /><path clip-path="url(#clip150)" d="M58.5933 634.491 L58.5933 612.051 L64.0042 612.051 L64.0042 642.225 L58.5933 642.225 Q54.8057 638.565 48.44 632.263 Q42.0425 625.929 40.1964 624.305 Q36.7271 621.218 34.34 620.009 Q31.921 618.767 29.5975 618.767 Q25.8099 618.767 23.4228 621.441 Q21.0356 624.083 21.0356 628.348 Q21.0356 631.371 22.086 634.745 Q23.1363 638.087 25.2688 641.907 L18.7758 641.907 Q17.2162 638.024 16.4205 634.65 Q15.6248 631.276 15.6248 628.475 Q15.6248 621.091 19.3169 616.698 Q23.009 612.306 29.1837 612.306 Q32.112 612.306 34.7537 613.42 Q37.3637 614.502 40.9285 617.399 Q41.8515 618.194 46.2757 622.459 Q50.668 626.724 58.5933 634.491 Z" fill="#000000" fill-rule="nonzero" fill-opacity="1" /><path clip-path="url(#clip150)" d="M28.3562 603.171 L28.3562 569.019 L34.2127 569.019 L34.2127 573.507 L56.1107 573.507 Q58.4023 573.507 59.4208 572.743 Q60.4075 571.948 60.4075 570.197 Q60.4075 569.72 60.3439 569.019 Q60.2484 568.319 60.2166 568.096 L64.4498 568.096 Q64.8635 569.21 65.0545 570.388 Q65.2455 571.566 65.2455 572.743 Q65.2455 576.563 63.1766 578.027 Q61.0759 579.491 55.4741 579.491 L34.2127 579.491 L34.2127 592.636 L64.0042 592.636 L64.0042 598.62 L34.2127 598.62 L34.2127 603.171 L28.3562 603.171 Z" fill="#000000" fill-rule="nonzero" fill-opacity="1" /><path clip-path="url(#clip151)" d="M450.296 1384.24 L452.22 1377.27 L454.144 1370.55 L456.068 1364.08 L457.992 1357.88 L459.916 1351.94 L461.84 1346.27 L463.764 1340.85 L465.688 1335.7 L467.612 1330.79 L469.536 1326.11 L471.46 1321.66 L473.384 1317.4 L475.308 1313.33 L477.232 1309.4 L479.156 1305.59 L481.08 1301.86 L483.004 1298.18 L484.928 1294.49 L486.852 1290.76 L488.776 1286.92 L490.7 1282.92 L492.624 1278.75 L494.548 1274.39 L496.472 1269.84 L498.396 1265.09 L500.32 1260.12 L502.244 1254.95 L504.168 1249.57 L506.092 1243.97 L508.016 1238.17 L509.94 1232.16 L511.864 1225.97 L513.788 1219.6 L515.712 1213.08 L517.636 1206.4 L519.56 1199.61 L521.484 1192.73 L523.408 1185.78 L525.332 1178.81 L527.256 1171.84 L529.18 1164.91 L531.104 1158.04 L533.028 1151.2 L534.952 1144.41 L536.876 1137.67 L538.8 1130.95 L540.724 1124.28 L542.648 1117.63 L544.572 1111 L546.496 1104.39 L548.42 1097.8 L550.344 1091.21 L552.268 1084.63 L554.192 1078.03 L556.116 1071.42 L558.04 1064.79 L559.964 1058.13 L561.888 1051.43 L563.812 1044.67 L565.736 1037.85 L567.66 1030.97 L569.584 1024.01 L571.508 1016.98 L573.432 1009.87 L575.356 1002.7 L577.28 995.449 L579.204 988.134 L581.128 980.753 L583.052 973.306 L584.976 965.798 L586.9 958.231 L588.824 950.608 L590.748 942.934 L592.672 935.214 L594.596 927.451 L596.52 919.652 L598.444 911.823 L600.368 903.969 L602.292 896.098 L604.216 888.218 L606.14 880.334 L608.064 872.449 L609.988 864.563 L611.912 856.675 L613.836 848.788 L615.76 840.899 L617.684 833.011 L619.608 825.123 L621.532 817.235 L623.456 809.348 L625.38 801.463 L627.304 793.58 L629.228 785.698 L631.152 777.82 L633.076 769.945 L635 762.074 L636.924 754.207 L638.849 746.345 L640.773 738.489 L642.697 730.639 L644.621 722.796 L646.545 714.962 L648.469 707.138 L650.393 699.326 L652.317 691.527 L654.241 683.743 L656.165 675.975 L658.089 668.227 L660.013 660.499 L661.937 652.794 L663.861 645.114 L665.785 637.461 L667.709 629.838 L669.633 622.247 L671.557 614.69 L673.481 607.172 L675.405 599.693 L677.329 592.257 L679.253 584.868 L681.177 577.527 L683.101 570.239 L685.025 563.004 L686.949 555.825 L688.873 548.702 L690.797 541.638 L692.721 534.633 L694.645 527.689 L696.569 520.807 L698.493 513.989 L700.417 507.237 L702.341 500.552 L704.265 493.935 L706.189 487.389 L708.113 480.914 L710.037 474.513 L711.961 468.187 L713.885 461.938 L715.809 455.768 L717.733 449.677 L719.657 443.669 L721.581 437.745 L723.505 431.906 L725.429 426.153 L727.353 420.488 L729.277 414.913 L731.201 409.428 L733.125 404.035 L735.049 398.735 L736.973 393.531 L738.897 388.422 L740.821 383.411 L742.745 378.499 L744.669 373.687 L746.593 368.976 L748.517 364.369 L750.441 359.867 L752.365 355.47 L754.289 351.181 L756.213 347.001 L758.137 342.931 L760.061 338.973 L761.985 335.128 L763.909 331.396 L765.833 327.779 L767.757 324.278 L769.681 320.893 L771.605 317.625 L773.529 314.477 L775.453 311.447 L777.377 308.538 L779.301 305.749 L781.225 303.083 L783.149 300.539 L785.073 298.119 L786.997 295.823 L788.921 293.653 L790.845 291.608 L792.769 289.69 L794.693 287.9 L796.617 286.238 L798.541 284.705 L800.465 283.301 L802.389 282.027 L804.313 280.882 L806.237 279.868 L808.161 278.983 L810.085 278.229 L812.009 277.606 L813.933 277.113 L815.857 276.751 L817.781 276.52 L819.705 276.419 L821.629 276.45 L823.553 276.61 L825.477 276.902 L827.401 277.323 L829.325 277.875 L831.249 278.557 L833.173 279.369 L835.097 280.31 L837.021 281.38 L838.945 282.58 L840.869 283.908 L842.793 285.364 L844.717 286.948 L846.641 288.658 L848.566 290.496 L850.49 292.46 L852.414 294.549 L854.338 296.763 L856.262 299.102 L858.186 301.564 L860.11 304.149 L862.034 306.856 L863.958 309.684 L865.882 312.633 L867.806 315.701 L869.73 318.887 L871.654 322.191 L873.578 325.612 L875.502 329.148 L877.426 332.799 L879.35 336.563 L881.274 340.44 L883.198 344.428 L885.122 348.526 L887.046 352.733 L888.97 357.048 L890.894 361.47 L892.818 365.997 L894.742 370.628 L896.666 375.361 L898.59 380.196 L900.514 385.131 L902.438 390.164 L904.362 395.294 L906.286 400.518 L908.21 405.837 L910.134 411.247 L912.058 416.748 L913.982 422.337 L915.906 428.014 L917.83 433.775 L919.754 439.621 L921.678 445.549 L923.602 451.558 L925.526 457.646 L927.45 463.812 L929.374 470.053 L931.298 476.369 L933.222 482.756 L935.146 489.214 L937.07 495.741 L938.994 502.334 L940.918 508.992 L942.842 515.713 L944.766 522.494 L946.69 529.335 L948.614 536.231 L950.538 543.183 L952.462 550.187 L954.386 557.241 L956.31 564.344 L958.234 571.494 L960.158 578.69 L962.082 585.929 L964.006 593.209 L965.93 600.529 L967.854 607.886 L969.778 615.279 L971.702 622.706 L973.626 630.165 L975.55 637.653 L977.474 645.168 L979.398 652.709 L981.322 660.273 L983.246 667.858 L985.17 675.463 L987.094 683.084 L989.018 690.719 L990.942 698.367 L992.866 706.025 L994.79 713.692 L996.714 721.366 L998.638 729.044 L1000.56 736.726 L1002.49 744.409 L1004.41 752.091 L1006.33 759.771 L1008.26 767.447 L1010.18 775.116 L1012.11 782.776 L1014.03 790.427 L1015.95 798.065 L1017.88 805.689 L1019.8 813.297 L1021.73 820.886 L1023.65 828.456 L1025.57 836.002 L1027.5 843.525 L1029.42 851.021 L1031.35 858.489 L1033.27 865.927 L1035.19 873.334 L1037.12 880.708 L1039.04 888.048 L1040.97 895.351 L1042.89 902.617 L1044.81 909.844 L1046.74 917.03 L1048.66 924.173 L1050.59 931.272 L1052.51 938.326 L1054.43 945.332 L1056.36 952.289 L1058.28 959.196 L1060.21 966.05 L1062.13 972.851 L1064.05 979.596 L1065.98 986.284 L1067.9 992.914 L1069.83 999.483 L1071.75 1005.99 L1073.67 1012.44 L1075.6 1018.82 L1077.52 1025.14 L1079.45 1031.39 L1081.37 1037.58 L1083.29 1043.69 L1085.22 1049.74 L1087.14 1055.72 L1089.07 1061.63 L1090.99 1067.46 L1092.91 1073.22 L1094.84 1078.91 L1096.76 1084.52 L1098.69 1090.05 L1100.61 1095.51 L1102.53 1100.88 L1104.46 1106.18 L1106.38 1111.39 L1108.31 1116.53 L1110.23 1121.58 L1112.15 1126.55 L1114.08 1131.44 L1116 1136.24 L1117.93 1140.95 L1119.85 1145.58 L1121.77 1150.13 L1123.7 1154.59 L1125.62 1158.96 L1127.55 1163.25 L1129.47 1167.44 L1131.39 1171.55 L1133.32 1175.57 L1135.24 1179.51 L1137.17 1183.35 L1139.09 1187.1 L1141.01 1190.76 L1142.94 1194.33 L1144.86 1197.81 L1146.79 1201.2 L1148.71 1204.5 L1150.63 1207.71 L1152.56 1210.83 L1154.48 1213.85 L1156.41 1216.79 L1158.33 1219.63 L1160.25 1222.38 L1162.18 1225.05 L1164.1 1227.62 L1166.03 1230.1 L1167.95 1232.49 L1169.88 1234.79 L1171.8 1237 L1173.72 1239.12 L1175.65 1241.15 L1177.57 1243.09 L1179.5 1244.94 L1181.42 1246.71 L1183.34 1248.38 L1185.27 1249.97 L1187.19 1251.48 L1189.12 1252.89 L1191.04 1254.22 L1192.96 1255.46 L1194.89 1256.62 L1196.81 1257.7 L1198.74 1258.69 L1200.66 1259.59 L1202.58 1260.42 L1204.51 1261.16 L1206.43 1261.82 L1208.36 1262.4 L1210.28 1262.9 L1212.2 1263.32 L1214.13 1263.67 L1216.05 1263.93 L1217.98 1264.12 L1219.9 1264.24 L1221.82 1264.28 L1223.75 1264.25 L1225.67 1264.15 L1227.6 1263.97 L1229.52 1263.72 L1231.44 1263.41 L1233.37 1263.02 L1235.29 1262.57 L1237.22 1262.05 L1239.14 1261.47 L1241.06 1260.81 L1242.99 1260.1 L1244.91 1259.32 L1246.84 1258.49 L1248.76 1257.59 L1250.68 1256.63 L1252.61 1255.62 L1254.53 1254.55 L1256.46 1253.42 L1258.38 1252.24 L1260.3 1251.01 L1262.23 1249.73 L1264.15 1248.4 L1266.08 1247.01 L1268 1245.59 L1269.92 1244.11 L1271.85 1242.59 L1273.77 1241.02 L1275.7 1239.41 L1277.62 1237.76 L1279.54 1236.07 L1281.47 1234.34 L1283.39 1232.57 L1285.32 1230.77 L1287.24 1228.93 L1289.16 1227.06 L1291.09 1225.15 L1293.01 1223.22 L1294.94 1221.25 L1296.86 1219.26 L1298.78 1217.24 L1300.71 1215.2 L1302.63 1213.13 L1304.56 1211.04 L1306.48 1208.93 L1308.4 1206.8 L1310.33 1204.65 L1312.25 1202.48 L1314.18 1200.3 L1316.1 1198.1 L1318.02 1195.88 L1319.95 1193.66 L1321.87 1191.42 L1323.8 1189.17 L1325.72 1186.91 L1327.64 1184.65 L1329.57 1182.38 L1331.49 1180.11 L1333.42 1177.83 L1335.34 1175.55 L1337.26 1173.28 L1339.19 1171 L1341.11 1168.73 L1343.04 1166.46 L1344.96 1164.19 L1346.88 1161.93 L1348.81 1159.68 L1350.73 1157.43 L1352.66 1155.2 L1354.58 1152.97 L1356.5 1150.75 L1358.43 1148.55 L1360.35 1146.35 L1362.28 1144.18 L1364.2 1142.01 L1366.12 1139.87 L1368.05 1137.74 L1369.97 1135.63 L1371.9 1133.54 L1373.82 1131.48 L1375.74 1129.43 L1377.67 1127.41 L1379.59 1125.42 L1381.52 1123.45 L1383.44 1121.5 L1385.36 1119.58 L1387.29 1117.69 L1389.21 1115.83 L1391.14 1114 L1393.06 1112.19 L1394.98 1110.42 L1396.91 1108.67 L1398.83 1106.96 L1400.76 1105.29 L1402.68 1103.64 L1404.6 1102.03 L1406.53 1100.46 L1408.45 1098.92 L1410.38 1097.42 L1412.3 1095.96 L1414.22 1094.53 L1416.15 1093.15 L1418.07 1091.8 L1420 1090.49 L1421.92 1089.23 L1423.84 1088 L1425.77 1086.82 L1427.69 1085.67 L1429.62 1084.57 L1431.54 1083.51 L1433.46 1082.5 L1435.39 1081.52 L1437.31 1080.59 L1439.24 1079.7 L1441.16 1078.86 L1443.08 1078.06 L1445.01 1077.31 L1446.93 1076.6 L1448.86 1075.94 L1450.78 1075.32 L1452.7 1074.75 L1454.63 1074.22 L1456.55 1073.74 L1458.48 1073.31 L1460.4 1072.92 L1462.32 1072.58 L1464.25 1072.29 L1466.17 1072.04 L1468.1 1071.84 L1470.02 1071.68 L1471.94 1071.57 L1473.87 1071.51 L1475.79 1071.49 L1477.72 1071.51 L1479.64 1071.59 L1481.56 1071.71 L1483.49 1071.87 L1485.41 1072.08 L1487.34 1072.33 L1489.26 1072.63 L1491.18 1072.98 L1493.11 1073.37 L1495.03 1073.8 L1496.96 1074.28 L1498.88 1074.8 L1500.8 1075.37 L1502.73 1075.98 L1504.65 1076.63 L1506.58 1077.32 L1508.5 1078.05 L1510.42 1078.83 L1512.35 1079.64 L1514.27 1080.5 L1516.2 1081.39 L1518.12 1082.33 L1520.04 1083.3 L1521.97 1084.31 L1523.89 1085.36 L1525.82 1086.45 L1527.74 1087.57 L1529.66 1088.73 L1531.59 1089.93 L1533.51 1091.16 L1535.44 1092.42 L1537.36 1093.72 L1539.28 1095.05 L1541.21 1096.42 L1543.13 1097.81 L1545.06 1099.24 L1546.98 1100.69 L1548.9 1102.18 L1550.83 1103.69 L1552.75 1105.24 L1554.68 1106.81 L1556.6 1108.4 L1558.52 1110.03 L1560.45 1111.67 L1562.37 1113.34 L1564.3 1115.04 L1566.22 1116.76 L1568.14 1118.5 L1570.07 1120.26 L1571.99 1122.04 L1573.92 1123.84 L1575.84 1125.65 L1577.76 1127.49 L1579.69 1129.34 L1581.61 1131.21 L1583.54 1133.1 L1585.46 1135 L1587.39 1136.91 L1589.31 1138.84 L1591.23 1140.78 L1593.16 1142.72 L1595.08 1144.68 L1597.01 1146.65 L1598.93 1148.63 L1600.85 1150.61 L1602.78 1152.6 L1604.7 1154.6 L1606.63 1156.6 L1608.55 1158.6 L1610.47 1160.61 L1612.4 1162.62 L1614.32 1164.63 L1616.25 1166.64 L1618.17 1168.65 L1620.09 1170.66 L1622.02 1172.67 L1623.94 1174.67 L1625.87 1176.68 L1627.79 1178.67 L1629.71 1180.67 L1631.64 1182.65 L1633.56 1184.63 L1635.49 1186.6 L1637.41 1188.56 L1639.33 1190.51 L1641.26 1192.45 L1643.18 1194.38 L1645.11 1196.3 L1647.03 1198.2 L1648.95 1200.09 L1650.88 1201.97 L1652.8 1203.83 L1654.73 1205.67 L1656.65 1207.5 L1658.57 1209.31 L1660.5 1211.1 L1662.42 1212.88 L1664.35 1214.63 L1666.27 1216.37 L1668.19 1218.08 L1670.12 1219.77 L1672.04 1221.44 L1673.97 1223.09 L1675.89 1224.71 L1677.81 1226.31 L1679.74 1227.88 L1681.66 1229.43 L1683.59 1230.95 L1685.51 1232.45 L1687.43 1233.91 L1689.36 1235.35 L1691.28 1236.76 L1693.21 1238.14 L1695.13 1239.49 L1697.05 1240.81 L1698.98 1242.11 L1700.9 1243.37 L1702.83 1244.6 L1704.75 1245.79 L1706.67 1246.96 L1708.6 1248.09 L1710.52 1249.19 L1712.45 1250.26 L1714.37 1251.29 L1716.29 1252.29 L1718.22 1253.26 L1720.14 1254.18 L1722.07 1255.08 L1723.99 1255.93 L1725.91 1256.75 L1727.84 1257.54 L1729.76 1258.28 L1731.69 1258.99 L1733.61 1259.67 L1735.53 1260.3 L1737.46 1260.9 L1739.38 1261.47 L1741.31 1261.99 L1743.23 1262.48 L1745.15 1262.93 L1747.08 1263.34 L1749 1263.72 L1750.93 1264.05 L1752.85 1264.35 L1754.77 1264.61 L1756.7 1264.83 L1758.62 1265.02 L1760.55 1265.16 L1762.47 1265.27 L1764.39 1265.33 L1766.32 1265.36 L1768.24 1265.35 L1770.17 1265.3 L1772.09 1265.22 L1774.01 1265.1 L1775.94 1264.93 L1777.86 1264.74 L1779.79 1264.5 L1781.71 1264.23 L1783.63 1263.92 L1785.56 1263.57 L1787.48 1263.19 L1789.41 1262.77 L1791.33 1262.32 L1793.25 1261.83 L1795.18 1261.3 L1797.1 1260.74 L1799.03 1260.14 L1800.95 1259.51 L1802.87 1258.84 L1804.8 1258.14 L1806.72 1257.41 L1808.65 1256.64 L1810.57 1255.84 L1812.49 1255.01 L1814.42 1254.14 L1816.34 1253.24 L1818.27 1252.32 L1820.19 1251.36 L1822.11 1250.37 L1824.04 1249.35 L1825.96 1248.31 L1827.89 1247.23 L1829.81 1246.13 L1831.73 1244.99 L1833.66 1243.83 L1835.58 1242.65 L1837.51 1241.44 L1839.43 1240.2 L1841.35 1238.94 L1843.28 1237.65 L1845.2 1236.34 L1847.13 1235 L1849.05 1233.65 L1850.97 1232.27 L1852.9 1230.87 L1854.82 1229.44 L1856.75 1228 L1858.67 1226.54 L1860.59 1225.06 L1862.52 1223.57 L1864.44 1222.05 L1866.37 1220.52 L1868.29 1218.97 L1870.21 1217.41 L1872.14 1215.83 L1874.06 1214.24 L1875.99 1212.63 L1877.91 1211.01 L1879.83 1209.38 L1881.76 1207.74 L1883.68 1206.09 L1885.61 1204.43 L1887.53 1202.76 L1889.45 1201.08 L1891.38 1199.4 L1893.3 1197.7 L1895.23 1196 L1897.15 1194.3 L1899.07 1192.59 L1901 1190.88 L1902.92 1189.16 L1904.85 1187.44 L1906.77 1185.72 L1908.69 1184 L1910.62 1182.28 L1912.54 1180.56 L1914.47 1178.84 L1916.39 1177.12 L1918.31 1175.41 L1920.24 1173.7 L1922.16 1171.99 L1924.09 1170.29 L1926.01 1168.6 L1927.93 1166.91 L1929.86 1165.23 L1931.78 1163.55 L1933.71 1161.89 L1935.63 1160.23 L1937.55 1158.59 L1939.48 1156.95 L1941.4 1155.33 L1943.33 1153.72 L1945.25 1152.12 L1947.17 1150.54 L1949.1 1148.97 L1951.02 1147.41 L1952.95 1145.87 L1954.87 1144.35 L1956.79 1142.85 L1958.72 1141.36 L1960.64 1139.89 L1962.57 1138.44 L1964.49 1137.01 L1966.41 1135.6 L1968.34 1134.21 L1970.26 1132.84 L1972.19 1131.49 L1974.11 1130.17 L1976.03 1128.87 L1977.96 1127.59 L1979.88 1126.34 L1981.81 1125.11 L1983.73 1123.91 L1985.65 1122.73 L1987.58 1121.58 L1989.5 1120.46 L1991.43 1119.36 L1993.35 1118.3 L1995.27 1117.26 L1997.2 1116.25 L1999.12 1115.28 L2001.05 1114.33 L2002.97 1113.41 L2004.9 1112.52 L2006.82 1111.66 L2008.74 1110.84 L2010.67 1110.05 L2012.59 1109.29 L2014.52 1108.56 L2016.44 1107.86 L2018.36 1107.2 L2020.29 1106.57 L2022.21 1105.98 L2024.14 1105.42 L2026.06 1104.9 L2027.98 1104.41 L2029.91 1103.95 L2031.83 1103.54 L2033.76 1103.16 L2035.68 1102.81 L2037.6 1102.5 L2039.53 1102.23 L2041.45 1102 L2043.38 1101.8 L2045.3 1101.64 L2047.22 1101.52 L2049.15 1101.43 L2051.07 1101.38 L2053 1101.37 L2054.92 1101.4 L2056.84 1101.47 L2058.77 1101.57 L2060.69 1101.71 L2062.62 1101.89 L2064.54 1102.11 L2066.46 1102.37 L2068.39 1102.66 L2070.31 1103 L2072.24 1103.37 L2074.16 1103.78 L2076.08 1104.23 L2078.01 1104.72 L2079.93 1105.24 L2081.86 1105.81 L2083.78 1106.41 L2085.7 1107.05 L2087.63 1107.73 L2089.55 1108.44 L2091.48 1109.2 L2093.4 1109.99 L2095.32 1110.81 L2097.25 1111.68 L2099.17 1112.58 L2101.1 1113.52 L2103.02 1114.49 L2104.94 1115.5 L2106.87 1116.55 L2108.79 1117.63 L2110.72 1118.75 L2112.64 1119.91 L2114.56 1121.1 L2116.49 1122.32 L2118.41 1123.58 L2120.34 1124.87 L2122.26 1126.2 L2124.18 1127.56 L2126.11 1128.95 L2128.03 1130.38 L2129.96 1131.84 L2131.88 1133.33 L2133.8 1134.85 L2135.73 1136.41 L2137.65 1137.99 L2139.58 1139.61 L2141.5 1141.26 L2143.42 1142.93 L2145.35 1144.64 L2147.27 1146.37 L2149.2 1148.14 L2151.12 1149.93 L2153.04 1151.75 L2154.97 1153.6 L2156.89 1155.47 L2158.82 1157.37 L2160.74 1159.29 L2162.66 1161.24 L2164.59 1163.22 L2166.51 1165.21 L2168.44 1167.24 L2170.36 1169.28 L2172.28 1171.35 L2174.21 1173.43 L2176.13 1175.54 L2178.06 1177.67 L2179.98 1179.82 L2181.9 1181.99 L2183.83 1184.17 L2185.75 1186.38 L2187.68 1188.6 L2189.6 1190.84 L2191.52 1193.09 L2193.45 1195.37 L2195.37 1197.65 L2197.3 1199.96 L2199.22 1202.28 L2201.14 1204.61 L2203.07 1206.95 L2204.99 1209.31 L2206.92 1211.69 L2208.84 1214.07 L2210.76 1216.47 L2212.69 1218.88 L2214.61 1221.3 L2216.54 1223.73 L2218.46 1226.17 L2220.38 1228.62 L2222.31 1231.07 L2224.23 1233.54 L2226.16 1236.01 L2228.08 1238.49 L2230 1240.97 L2231.93 1243.46 L2233.85 1245.95 L2235.78 1248.44 L2237.7 1250.93 L2239.62 1253.42 L2241.55 1255.91 L2243.47 1258.4 L2245.4 1260.89 L2247.32 1263.37 L2249.24 1265.84 L2251.17 1268.31 L2253.09 1270.77 L2255.02 1273.22 L2256.94 1275.66 L2258.86 1278.08 L2260.79 1280.5 L2262.71 1282.91 L2264.64 1285.3 L2266.56 1287.69 L2268.48 1290.06 L2270.41 1292.43 L2272.33 1294.8 L2274.26 1297.16 L2276.18 1299.52 L2278.1 1301.87 L2280.03 1304.23 L2281.95 1306.58 L2283.88 1308.93 L2285.8 1311.29 L2287.72 1313.66 L2289.65 1316.02 L2291.57 1318.4 L2293.5 1320.78 L2295.42 1323.17 L2297.34 1325.57 L2297.34 1305.83 L2295.42 1303.26 L2293.5 1300.71 L2291.57 1298.16 L2289.65 1295.62 L2287.72 1293.09 L2285.8 1290.56 L2283.88 1288.04 L2281.95 1285.51 L2280.03 1283 L2278.1 1280.48 L2276.18 1277.95 L2274.26 1275.43 L2272.33 1272.9 L2270.41 1270.37 L2268.48 1267.83 L2266.56 1265.29 L2264.64 1262.73 L2262.71 1260.17 L2260.79 1257.59 L2258.86 1255.01 L2256.94 1252.41 L2255.02 1249.79 L2253.09 1247.17 L2251.17 1244.53 L2249.24 1241.89 L2247.32 1239.24 L2245.4 1236.58 L2243.47 1233.92 L2241.55 1231.26 L2239.62 1228.59 L2237.7 1225.92 L2235.78 1223.25 L2233.85 1220.58 L2231.93 1217.91 L2230 1215.24 L2228.08 1212.58 L2226.16 1209.92 L2224.23 1207.27 L2222.31 1204.63 L2220.38 1201.99 L2218.46 1199.37 L2216.54 1196.75 L2214.61 1194.14 L2212.69 1191.55 L2210.76 1188.96 L2208.84 1186.39 L2206.92 1183.83 L2204.99 1181.28 L2203.07 1178.75 L2201.14 1176.23 L2199.22 1173.73 L2197.3 1171.24 L2195.37 1168.76 L2193.45 1166.31 L2191.52 1163.86 L2189.6 1161.44 L2187.68 1159.04 L2185.75 1156.65 L2183.83 1154.28 L2181.9 1151.93 L2179.98 1149.6 L2178.06 1147.29 L2176.13 1145 L2174.21 1142.73 L2172.28 1140.49 L2170.36 1138.26 L2168.44 1136.06 L2166.51 1133.89 L2164.59 1131.74 L2162.66 1129.61 L2160.74 1127.51 L2158.82 1125.44 L2156.89 1123.39 L2154.97 1121.37 L2153.04 1119.38 L2151.12 1117.42 L2149.2 1115.49 L2147.27 1113.59 L2145.35 1111.72 L2143.42 1109.88 L2141.5 1108.07 L2139.58 1106.29 L2137.65 1104.54 L2135.73 1102.83 L2133.8 1101.15 L2131.88 1099.51 L2129.96 1097.89 L2128.03 1096.32 L2126.11 1094.77 L2124.18 1093.26 L2122.26 1091.79 L2120.34 1090.35 L2118.41 1088.95 L2116.49 1087.59 L2114.56 1086.26 L2112.64 1084.97 L2110.72 1083.71 L2108.79 1082.5 L2106.87 1081.32 L2104.94 1080.18 L2103.02 1079.08 L2101.1 1078.02 L2099.17 1076.99 L2097.25 1076.01 L2095.32 1075.06 L2093.4 1074.16 L2091.48 1073.29 L2089.55 1072.47 L2087.63 1071.68 L2085.7 1070.94 L2083.78 1070.23 L2081.86 1069.57 L2079.93 1068.94 L2078.01 1068.36 L2076.08 1067.81 L2074.16 1067.31 L2072.24 1066.85 L2070.31 1066.43 L2068.39 1066.05 L2066.46 1065.71 L2064.54 1065.41 L2062.62 1065.16 L2060.69 1064.95 L2058.77 1064.77 L2056.84 1064.64 L2054.92 1064.55 L2053 1064.5 L2051.07 1064.49 L2049.15 1064.52 L2047.22 1064.59 L2045.3 1064.7 L2043.38 1064.85 L2041.45 1065.04 L2039.53 1065.27 L2037.6 1065.53 L2035.68 1065.84 L2033.76 1066.19 L2031.83 1066.57 L2029.91 1067 L2027.98 1067.46 L2026.06 1067.96 L2024.14 1068.5 L2022.21 1069.07 L2020.29 1069.69 L2018.36 1070.34 L2016.44 1071.02 L2014.52 1071.75 L2012.59 1072.5 L2010.67 1073.3 L2008.74 1074.12 L2006.82 1074.98 L2004.9 1075.88 L2002.97 1076.81 L2001.05 1077.77 L1999.12 1078.76 L1997.2 1079.79 L1995.27 1080.85 L1993.35 1081.94 L1991.43 1083.06 L1989.5 1084.21 L1987.58 1085.39 L1985.65 1086.6 L1983.73 1087.83 L1981.81 1089.1 L1979.88 1090.39 L1977.96 1091.71 L1976.03 1093.06 L1974.11 1094.43 L1972.19 1095.83 L1970.26 1097.25 L1968.34 1098.7 L1966.41 1100.16 L1964.49 1101.65 L1962.57 1103.16 L1960.64 1104.7 L1958.72 1106.25 L1956.79 1107.82 L1954.87 1109.41 L1952.95 1111.02 L1951.02 1112.65 L1949.1 1114.3 L1947.17 1115.96 L1945.25 1117.64 L1943.33 1119.33 L1941.4 1121.03 L1939.48 1122.75 L1937.55 1124.49 L1935.63 1126.23 L1933.71 1127.98 L1931.78 1129.75 L1929.86 1131.52 L1927.93 1133.31 L1926.01 1135.1 L1924.09 1136.89 L1922.16 1138.7 L1920.24 1140.5 L1918.31 1142.32 L1916.39 1144.14 L1914.47 1145.96 L1912.54 1147.78 L1910.62 1149.6 L1908.69 1151.43 L1906.77 1153.26 L1904.85 1155.08 L1902.92 1156.91 L1901 1158.73 L1899.07 1160.55 L1897.15 1162.36 L1895.23 1164.17 L1893.3 1165.98 L1891.38 1167.77 L1889.45 1169.56 L1887.53 1171.34 L1885.61 1173.12 L1883.68 1174.88 L1881.76 1176.63 L1879.83 1178.38 L1877.91 1180.11 L1875.99 1181.82 L1874.06 1183.53 L1872.14 1185.22 L1870.21 1186.89 L1868.29 1188.55 L1866.37 1190.19 L1864.44 1191.82 L1862.52 1193.43 L1860.59 1195.02 L1858.67 1196.59 L1856.75 1198.14 L1854.82 1199.67 L1852.9 1201.17 L1850.97 1202.66 L1849.05 1204.12 L1847.13 1205.56 L1845.2 1206.97 L1843.28 1208.36 L1841.35 1209.73 L1839.43 1211.07 L1837.51 1212.38 L1835.58 1213.66 L1833.66 1214.92 L1831.73 1216.14 L1829.81 1217.34 L1827.89 1218.51 L1825.96 1219.65 L1824.04 1220.75 L1822.11 1221.83 L1820.19 1222.87 L1818.27 1223.88 L1816.34 1224.86 L1814.42 1225.8 L1812.49 1226.72 L1810.57 1227.59 L1808.65 1228.43 L1806.72 1229.24 L1804.8 1230.01 L1802.87 1230.74 L1800.95 1231.44 L1799.03 1232.1 L1797.1 1232.73 L1795.18 1233.31 L1793.25 1233.86 L1791.33 1234.37 L1789.41 1234.84 L1787.48 1235.27 L1785.56 1235.66 L1783.63 1236.01 L1781.71 1236.33 L1779.79 1236.6 L1777.86 1236.83 L1775.94 1237.03 L1774.01 1237.18 L1772.09 1237.29 L1770.17 1237.37 L1768.24 1237.4 L1766.32 1237.39 L1764.39 1237.34 L1762.47 1237.24 L1760.55 1237.11 L1758.62 1236.93 L1756.7 1236.72 L1754.77 1236.46 L1752.85 1236.16 L1750.93 1235.82 L1749 1235.43 L1747.08 1235.01 L1745.15 1234.54 L1743.23 1234.04 L1741.31 1233.49 L1739.38 1232.9 L1737.46 1232.28 L1735.53 1231.61 L1733.61 1230.9 L1731.69 1230.15 L1729.76 1229.37 L1727.84 1228.54 L1725.91 1227.67 L1723.99 1226.77 L1722.07 1225.82 L1720.14 1224.84 L1718.22 1223.81 L1716.29 1222.75 L1714.37 1221.65 L1712.45 1220.52 L1710.52 1219.35 L1708.6 1218.14 L1706.67 1216.89 L1704.75 1215.61 L1702.83 1214.29 L1700.9 1212.95 L1698.98 1211.56 L1697.05 1210.14 L1695.13 1208.7 L1693.21 1207.21 L1691.28 1205.7 L1689.36 1204.15 L1687.43 1202.58 L1685.51 1200.97 L1683.59 1199.33 L1681.66 1197.67 L1679.74 1195.97 L1677.81 1194.25 L1675.89 1192.5 L1673.97 1190.72 L1672.04 1188.92 L1670.12 1187.09 L1668.19 1185.23 L1666.27 1183.36 L1664.35 1181.46 L1662.42 1179.54 L1660.5 1177.6 L1658.57 1175.63 L1656.65 1173.65 L1654.73 1171.65 L1652.8 1169.63 L1650.88 1167.59 L1648.95 1165.54 L1647.03 1163.47 L1645.11 1161.39 L1643.18 1159.29 L1641.26 1157.17 L1639.33 1155.05 L1637.41 1152.91 L1635.49 1150.76 L1633.56 1148.6 L1631.64 1146.43 L1629.71 1144.25 L1627.79 1142.07 L1625.87 1139.88 L1623.94 1137.69 L1622.02 1135.49 L1620.09 1133.29 L1618.17 1131.08 L1616.25 1128.88 L1614.32 1126.67 L1612.4 1124.46 L1610.47 1122.26 L1608.55 1120.06 L1606.63 1117.86 L1604.7 1115.66 L1602.78 1113.47 L1600.85 1111.28 L1598.93 1109.1 L1597.01 1106.93 L1595.08 1104.77 L1593.16 1102.61 L1591.23 1100.47 L1589.31 1098.34 L1587.39 1096.22 L1585.46 1094.11 L1583.54 1092.02 L1581.61 1089.95 L1579.69 1087.89 L1577.76 1085.85 L1575.84 1083.82 L1573.92 1081.82 L1571.99 1079.83 L1570.07 1077.87 L1568.14 1075.92 L1566.22 1074 L1564.3 1072.11 L1562.37 1070.23 L1560.45 1068.39 L1558.52 1066.56 L1556.6 1064.77 L1554.68 1063 L1552.75 1061.26 L1550.83 1059.55 L1548.9 1057.87 L1546.98 1056.22 L1545.06 1054.61 L1543.13 1053.02 L1541.21 1051.47 L1539.28 1049.95 L1537.36 1048.47 L1535.44 1047.02 L1533.51 1045.61 L1531.59 1044.24 L1529.66 1042.9 L1527.74 1041.6 L1525.82 1040.34 L1523.89 1039.12 L1521.97 1037.94 L1520.04 1036.81 L1518.12 1035.71 L1516.2 1034.65 L1514.27 1033.64 L1512.35 1032.67 L1510.42 1031.74 L1508.5 1030.86 L1506.58 1030.02 L1504.65 1029.23 L1502.73 1028.48 L1500.8 1027.78 L1498.88 1027.12 L1496.96 1026.51 L1495.03 1025.95 L1493.11 1025.43 L1491.18 1024.97 L1489.26 1024.55 L1487.34 1024.18 L1485.41 1023.86 L1483.49 1023.59 L1481.56 1023.37 L1479.64 1023.19 L1477.72 1023.07 L1475.79 1023 L1473.87 1022.97 L1471.94 1023 L1470.02 1023.07 L1468.1 1023.2 L1466.17 1023.38 L1464.25 1023.6 L1462.32 1023.88 L1460.4 1024.2 L1458.48 1024.58 L1456.55 1025 L1454.63 1025.48 L1452.7 1026.01 L1450.78 1026.58 L1448.86 1027.21 L1446.93 1027.89 L1445.01 1028.61 L1443.08 1029.39 L1441.16 1030.21 L1439.24 1031.08 L1437.31 1032 L1435.39 1032.97 L1433.46 1033.99 L1431.54 1035.05 L1429.62 1036.16 L1427.69 1037.31 L1425.77 1038.51 L1423.84 1039.75 L1421.92 1041.04 L1420 1042.37 L1418.07 1043.75 L1416.15 1045.17 L1414.22 1046.64 L1412.3 1048.14 L1410.38 1049.69 L1408.45 1051.28 L1406.53 1052.91 L1404.6 1054.58 L1402.68 1056.29 L1400.76 1058.04 L1398.83 1059.82 L1396.91 1061.64 L1394.98 1063.49 L1393.06 1065.38 L1391.14 1067.3 L1389.21 1069.26 L1387.29 1071.25 L1385.36 1073.26 L1383.44 1075.31 L1381.52 1077.39 L1379.59 1079.49 L1377.67 1081.62 L1375.74 1083.78 L1373.82 1085.97 L1371.9 1088.18 L1369.97 1090.41 L1368.05 1092.67 L1366.12 1094.95 L1364.2 1097.25 L1362.28 1099.56 L1360.35 1101.89 L1358.43 1104.24 L1356.5 1106.61 L1354.58 1108.98 L1352.66 1111.37 L1350.73 1113.77 L1348.81 1116.18 L1346.88 1118.6 L1344.96 1121.03 L1343.04 1123.46 L1341.11 1125.9 L1339.19 1128.34 L1337.26 1130.78 L1335.34 1133.23 L1333.42 1135.67 L1331.49 1138.12 L1329.57 1140.56 L1327.64 1143 L1325.72 1145.43 L1323.8 1147.86 L1321.87 1150.27 L1319.95 1152.68 L1318.02 1155.07 L1316.1 1157.45 L1314.18 1159.82 L1312.25 1162.16 L1310.33 1164.49 L1308.4 1166.81 L1306.48 1169.1 L1304.56 1171.37 L1302.63 1173.61 L1300.71 1175.83 L1298.78 1178.03 L1296.86 1180.2 L1294.94 1182.34 L1293.01 1184.45 L1291.09 1186.53 L1289.16 1188.57 L1287.24 1190.58 L1285.32 1192.56 L1283.39 1194.49 L1281.47 1196.39 L1279.54 1198.24 L1277.62 1200.06 L1275.7 1201.83 L1273.77 1203.55 L1271.85 1205.22 L1269.92 1206.85 L1268 1208.43 L1266.08 1209.95 L1264.15 1211.43 L1262.23 1212.85 L1260.3 1214.21 L1258.38 1215.52 L1256.46 1216.78 L1254.53 1217.97 L1252.61 1219.1 L1250.68 1220.18 L1248.76 1221.19 L1246.84 1222.13 L1244.91 1223.01 L1242.99 1223.82 L1241.06 1224.56 L1239.14 1225.23 L1237.22 1225.83 L1235.29 1226.36 L1233.37 1226.82 L1231.44 1227.2 L1229.52 1227.51 L1227.6 1227.73 L1225.67 1227.88 L1223.75 1227.96 L1221.82 1227.95 L1219.9 1227.86 L1217.98 1227.69 L1216.05 1227.43 L1214.13 1227.09 L1212.2 1226.67 L1210.28 1226.16 L1208.36 1225.57 L1206.43 1224.88 L1204.51 1224.11 L1202.58 1223.25 L1200.66 1222.3 L1198.74 1221.25 L1196.81 1220.12 L1194.89 1218.89 L1192.96 1217.56 L1191.04 1216.15 L1189.12 1214.64 L1187.19 1213.03 L1185.27 1211.33 L1183.34 1209.53 L1181.42 1207.63 L1179.5 1205.63 L1177.57 1203.54 L1175.65 1201.35 L1173.72 1199.06 L1171.8 1196.67 L1169.88 1194.18 L1167.95 1191.59 L1166.03 1188.9 L1164.1 1186.11 L1162.18 1183.22 L1160.25 1180.23 L1158.33 1177.13 L1156.41 1173.94 L1154.48 1170.64 L1152.56 1167.24 L1150.63 1163.74 L1148.71 1160.14 L1146.79 1156.44 L1144.86 1152.63 L1142.94 1148.73 L1141.01 1144.72 L1139.09 1140.61 L1137.17 1136.4 L1135.24 1132.09 L1133.32 1127.68 L1131.39 1123.17 L1129.47 1118.56 L1127.55 1113.85 L1125.62 1109.04 L1123.7 1104.14 L1121.77 1099.13 L1119.85 1094.03 L1117.93 1088.84 L1116 1083.54 L1114.08 1078.15 L1112.15 1072.67 L1110.23 1067.09 L1108.31 1061.42 L1106.38 1055.66 L1104.46 1049.8 L1102.53 1043.85 L1100.61 1037.81 L1098.69 1031.69 L1096.76 1025.47 L1094.84 1019.17 L1092.91 1012.78 L1090.99 1006.3 L1089.07 999.745 L1087.14 993.104 L1085.22 986.382 L1083.29 979.58 L1081.37 972.698 L1079.45 965.739 L1077.52 958.703 L1075.6 951.591 L1073.67 944.406 L1071.75 937.147 L1069.83 929.817 L1067.9 922.416 L1065.98 914.946 L1064.05 907.409 L1062.13 899.805 L1060.21 892.137 L1058.28 884.407 L1056.36 876.616 L1054.43 868.765 L1052.51 860.858 L1050.59 852.894 L1048.66 844.878 L1046.74 836.809 L1044.81 828.689 L1042.89 820.522 L1040.97 812.307 L1039.04 804.048 L1037.12 795.745 L1035.19 787.401 L1033.27 779.017 L1031.35 770.595 L1029.42 762.137 L1027.5 753.644 L1025.57 745.118 L1023.65 736.562 L1021.73 727.977 L1019.8 719.367 L1017.88 710.732 L1015.95 702.076 L1014.03 693.401 L1012.11 684.709 L1010.18 676.001 L1008.26 667.281 L1006.33 658.549 L1004.41 649.81 L1002.49 641.063 L1000.56 632.313 L998.638 623.56 L996.714 614.807 L994.79 606.055 L992.866 597.308 L990.942 588.566 L989.018 579.832 L987.094 571.108 L985.17 562.396 L983.246 553.699 L981.322 545.019 L979.398 536.359 L977.474 527.721 L975.55 519.107 L973.626 510.521 L971.702 501.963 L969.778 493.436 L967.854 484.944 L965.93 476.487 L964.006 468.068 L962.082 459.689 L960.158 451.353 L958.234 443.061 L956.31 434.815 L954.386 426.619 L952.462 418.472 L950.538 410.379 L948.614 402.339 L946.69 394.357 L944.766 386.435 L942.842 378.574 L940.918 370.776 L938.994 363.046 L937.07 355.383 L935.146 347.791 L933.222 340.272 L931.298 332.828 L929.374 325.461 L927.45 318.172 L925.526 310.965 L923.602 303.841 L921.678 296.801 L919.754 289.848 L917.83 282.983 L915.906 276.209 L913.982 269.527 L912.058 262.938 L910.134 256.445 L908.21 250.05 L906.286 243.754 L904.362 237.559 L902.438 231.467 L900.514 225.48 L898.59 219.6 L896.666 213.828 L894.742 208.166 L892.818 202.616 L890.894 197.179 L888.97 191.857 L887.046 186.652 L885.122 181.564 L883.198 176.595 L881.274 171.747 L879.35 167.021 L877.426 162.417 L875.502 157.938 L873.578 153.585 L871.654 149.359 L869.73 145.26 L867.806 141.291 L865.882 137.452 L863.958 133.744 L862.034 130.169 L860.11 126.728 L858.186 123.422 L856.262 120.25 L854.338 117.216 L852.414 114.319 L850.49 111.559 L848.566 108.939 L846.641 106.459 L844.717 104.118 L842.793 101.919 L840.869 99.8618 L838.945 97.9465 L837.021 96.174 L835.097 94.5448 L833.173 93.0594 L831.249 91.718 L829.325 90.5213 L827.401 89.4694 L825.477 88.5628 L823.553 87.8017 L821.629 87.1863 L819.705 86.7169 L817.781 86.3935 L815.857 86.2164 L813.933 86.1857 L812.009 86.3013 L810.085 86.5634 L808.161 86.9718 L806.237 87.5266 L804.313 88.2277 L802.389 89.0749 L800.465 90.0682 L798.541 91.2072 L796.617 92.4919 L794.693 93.9219 L792.769 95.4965 L790.845 97.2149 L788.921 99.0766 L786.997 101.081 L785.073 103.226 L783.149 105.512 L781.225 107.939 L779.301 110.504 L777.377 113.208 L775.453 116.049 L773.529 119.026 L771.605 122.14 L769.681 125.387 L767.757 128.769 L765.833 132.284 L763.909 135.93 L761.985 139.707 L760.061 143.615 L758.137 147.651 L756.213 151.815 L754.289 156.105 L752.365 160.52 L750.441 165.059 L748.517 169.719 L746.593 174.5 L744.669 179.399 L742.745 184.415 L740.821 189.547 L738.897 194.793 L736.973 200.152 L735.049 205.622 L733.125 211.202 L731.201 216.89 L729.277 222.685 L727.353 228.585 L725.429 234.589 L723.505 240.695 L721.581 246.903 L719.657 253.209 L717.733 259.614 L715.809 266.115 L713.885 272.71 L711.961 279.398 L710.037 286.176 L708.113 293.042 L706.189 299.996 L704.265 307.034 L702.341 314.156 L700.417 321.359 L698.493 328.641 L696.569 336.002 L694.645 343.439 L692.721 350.951 L690.797 358.537 L688.873 366.193 L686.949 373.92 L685.025 381.715 L683.101 389.577 L681.177 397.505 L679.253 405.495 L677.329 413.547 L675.405 421.654 L673.481 429.815 L671.557 438.026 L669.633 446.284 L667.709 454.585 L665.785 462.928 L663.861 471.308 L661.937 479.724 L660.013 488.172 L658.089 496.651 L656.165 505.157 L654.241 513.689 L652.317 522.244 L650.393 530.821 L648.469 539.417 L646.545 548.031 L644.621 556.66 L642.697 565.303 L640.773 573.959 L638.849 582.626 L636.924 591.304 L635 599.992 L633.076 608.69 L631.152 617.397 L629.228 626.111 L627.304 634.834 L625.38 643.564 L623.456 652.3 L621.532 661.043 L619.608 669.792 L617.684 678.546 L615.76 687.305 L613.836 696.069 L611.912 704.838 L609.988 713.611 L608.064 722.387 L606.14 731.168 L604.216 739.952 L602.292 748.739 L600.368 757.519 L598.444 766.284 L596.52 775.025 L594.596 783.736 L592.672 792.408 L590.748 801.035 L588.824 809.612 L586.9 818.132 L584.976 826.591 L583.052 834.985 L581.128 843.31 L579.204 851.561 L577.28 859.738 L575.356 867.836 L573.432 875.855 L571.508 883.792 L569.584 891.646 L567.66 899.418 L565.736 907.106 L563.812 914.713 L561.888 922.25 L559.964 929.729 L558.04 937.163 L556.116 944.564 L554.192 951.941 L552.268 959.306 L550.344 966.667 L548.42 974.034 L546.496 981.415 L544.572 988.818 L542.648 996.25 L540.724 1003.72 L538.8 1011.23 L536.876 1018.78 L534.952 1026.39 L533.028 1034.06 L531.104 1041.79 L529.18 1049.58 L527.256 1057.44 L525.332 1065.36 L523.408 1073.3 L521.484 1081.21 L519.56 1089.05 L517.636 1096.78 L515.712 1104.37 L513.788 1111.79 L511.864 1119.01 L509.94 1126.02 L508.016 1132.79 L506.092 1139.32 L504.168 1145.59 L502.244 1151.59 L500.32 1157.33 L498.396 1162.8 L496.472 1168.01 L494.548 1172.95 L492.624 1177.64 L490.7 1182.09 L488.776 1186.32 L486.852 1190.33 L484.928 1194.21 L483.004 1198.01 L481.08 1201.81 L479.156 1205.66 L477.232 1209.6 L475.308 1213.7 L473.384 1217.99 L471.46 1222.51 L469.536 1227.28 L467.612 1232.35 L465.688 1237.72 L463.764 1243.43 L461.84 1249.48 L459.916 1255.89 L457.992 1262.66 L456.068 1269.8 L454.144 1277.31 L452.22 1285.18 L450.296 1293.4  Z" fill="#009af9" fill-rule="evenodd" fill-opacity="0.5"/>
<polyline clip-path="url(#clip151)" style="stroke:#009af9; stroke-linecap:round; stroke-linejoin:round; stroke-width:4; stroke-opacity:1; fill:none" points="450.296,1338.82 452.22,1331.22 454.144,1323.93 456.068,1316.94 457.992,1310.27 459.916,1303.92 461.84,1297.87 463.764,1292.14 465.688,1286.71 467.612,1281.57 469.536,1276.7 471.46,1272.08 473.384,1267.7 475.308,1263.51 477.232,1259.5 479.156,1255.62 481.08,1251.84 483.004,1248.1 484.928,1244.35 486.852,1240.54 488.776,1236.62 490.7,1232.51 492.624,1228.2 494.548,1223.67 496.472,1218.92 498.396,1213.94 500.32,1208.73 502.244,1203.27 504.168,1197.58 506.092,1191.64 508.016,1185.48 509.94,1179.09 511.864,1172.49 513.788,1165.7 515.712,1158.72 517.636,1151.59 519.56,1144.33 521.484,1136.97 523.408,1129.54 525.332,1122.08 527.256,1114.64 529.18,1107.25 531.104,1099.91 533.028,1092.63 534.952,1085.4 536.876,1078.22 538.8,1071.09 540.724,1064 542.648,1056.94 544.572,1049.91 546.496,1042.9 548.42,1035.92 550.344,1028.94 552.268,1021.97 554.192,1014.99 556.116,1007.99 558.04,1000.98 559.964,993.929 561.888,986.838 563.812,979.692 565.736,972.48 567.66,965.193 569.584,957.827 571.508,950.384 573.432,942.863 575.356,935.266 577.28,927.594 579.204,919.848 581.128,912.031 583.052,904.146 584.976,896.195 586.9,888.181 588.824,880.11 590.748,871.985 592.672,863.811 594.596,855.593 596.52,847.339 598.444,839.053 600.368,830.744 602.292,822.418 604.216,814.085 606.14,805.751 608.064,797.418 609.988,789.087 611.912,780.757 613.836,772.428 615.76,764.102 617.684,755.778 619.608,747.457 621.532,739.139 623.456,730.824 625.38,722.513 627.304,714.207 629.228,705.905 631.152,697.608 633.076,689.317 635,681.033 636.924,672.755 638.849,664.485 640.773,656.224 642.697,647.971 644.621,639.728 646.545,631.496 648.469,623.278 650.393,615.073 652.317,606.886 654.241,598.716 656.165,590.566 658.089,582.439 660.013,574.335 661.937,566.259 663.861,558.211 665.785,550.194 667.709,542.212 669.633,534.265 671.557,526.358 673.481,518.493 675.405,510.674 677.329,502.902 679.253,495.181 681.177,487.516 683.101,479.908 685.025,472.36 686.949,464.873 688.873,457.448 690.797,450.087 692.721,442.792 694.645,435.564 696.569,428.404 698.493,421.315 700.417,414.298 702.341,407.354 704.265,400.484 706.189,393.692 708.113,386.978 710.037,380.344 711.961,373.793 713.885,367.324 715.809,360.941 717.733,354.646 719.657,348.439 721.581,342.324 723.505,336.301 725.429,330.371 727.353,324.537 729.277,318.799 731.201,313.159 733.125,307.619 735.049,302.179 736.973,296.841 738.897,291.608 740.821,286.479 742.745,281.457 744.669,276.543 746.593,271.738 748.517,267.044 750.441,262.463 752.365,257.995 754.289,253.643 756.213,249.408 758.137,245.291 760.061,241.294 761.985,237.417 763.909,233.663 765.833,230.031 767.757,226.523 769.681,223.14 771.605,219.883 773.529,216.751 775.453,213.748 777.377,210.873 779.301,208.127 781.225,205.511 783.149,203.026 785.073,200.673 786.997,198.452 788.921,196.365 790.845,194.412 792.769,192.593 794.693,190.911 796.617,189.365 798.541,187.956 800.465,186.685 802.389,185.551 804.313,184.555 806.237,183.697 808.161,182.978 810.085,182.396 812.009,181.954 813.933,181.65 815.857,181.484 817.781,181.457 819.705,181.568 821.629,181.818 823.553,182.206 825.477,182.732 827.401,183.396 829.325,184.198 831.249,185.138 833.173,186.214 835.097,187.427 837.021,188.777 838.945,190.263 840.869,191.885 842.793,193.642 844.717,195.533 846.641,197.559 848.566,199.718 850.49,202.01 852.414,204.434 854.338,206.99 856.262,209.676 858.186,212.493 860.11,215.439 862.034,218.513 863.958,221.714 865.882,225.042 867.806,228.496 869.73,232.074 871.654,235.775 873.578,239.599 875.502,243.543 877.426,247.608 879.35,251.792 881.274,256.093 883.198,260.511 885.122,265.045 887.046,269.692 888.97,274.453 890.894,279.325 892.818,284.307 894.742,289.397 896.666,294.595 898.59,299.898 900.514,305.305 902.438,310.815 904.362,316.426 906.286,322.136 908.21,327.943 910.134,333.846 912.058,339.843 913.982,345.932 915.906,352.111 917.83,358.379 919.754,364.734 921.678,371.175 923.602,377.699 925.526,384.306 927.45,390.992 929.374,397.757 931.298,404.598 933.222,411.514 935.146,418.503 937.07,425.562 938.994,432.69 940.918,439.884 942.842,447.143 944.766,454.464 946.69,461.846 948.614,469.285 950.538,476.781 952.462,484.329 954.386,491.93 956.31,499.58 958.234,507.278 960.158,515.021 962.082,522.809 964.006,530.639 965.93,538.508 967.854,546.415 969.778,554.358 971.702,562.335 973.626,570.343 975.55,578.38 977.474,586.444 979.398,594.534 981.322,602.646 983.246,610.779 985.17,618.929 987.094,627.096 989.018,635.275 990.942,643.466 992.866,651.666 994.79,659.874 996.714,668.086 998.638,676.302 1000.56,684.519 1002.49,692.736 1004.41,700.951 1006.33,709.16 1008.26,717.364 1010.18,725.558 1012.11,733.743 1014.03,741.914 1015.95,750.071 1017.88,758.211 1019.8,766.332 1021.73,774.432 1023.65,782.509 1025.57,790.56 1027.5,798.584 1029.42,806.579 1031.35,814.542 1033.27,822.472 1035.19,830.367 1037.12,838.227 1039.04,846.048 1040.97,853.829 1042.89,861.57 1044.81,869.267 1046.74,876.919 1048.66,884.525 1050.59,892.083 1052.51,899.592 1054.43,907.049 1056.36,914.452 1058.28,921.801 1060.21,929.094 1062.13,936.328 1064.05,943.503 1065.98,950.615 1067.9,957.665 1069.83,964.65 1071.75,971.57 1073.67,978.422 1075.6,985.206 1077.52,991.921 1079.45,998.565 1081.37,1005.14 1083.29,1011.64 1085.22,1018.06 1087.14,1024.41 1089.07,1030.69 1090.99,1036.88 1092.91,1043 1094.84,1049.04 1096.76,1054.99 1098.69,1060.87 1100.61,1066.66 1102.53,1072.37 1104.46,1077.99 1106.38,1083.53 1108.31,1088.98 1110.23,1094.34 1112.15,1099.61 1114.08,1104.79 1116,1109.89 1117.93,1114.89 1119.85,1119.81 1121.77,1124.63 1123.7,1129.36 1125.62,1134 1127.55,1138.55 1129.47,1143 1131.39,1147.36 1133.32,1151.63 1135.24,1155.8 1137.17,1159.87 1139.09,1163.86 1141.01,1167.74 1142.94,1171.53 1144.86,1175.22 1146.79,1178.82 1148.71,1182.32 1150.63,1185.73 1152.56,1189.04 1154.48,1192.25 1156.41,1195.36 1158.33,1198.38 1160.25,1201.31 1162.18,1204.13 1164.1,1206.86 1166.03,1209.5 1167.95,1212.04 1169.88,1214.48 1171.8,1216.83 1173.72,1219.09 1175.65,1221.25 1177.57,1223.32 1179.5,1225.29 1181.42,1227.17 1183.34,1228.95 1185.27,1230.65 1187.19,1232.25 1189.12,1233.76 1191.04,1235.18 1192.96,1236.51 1194.89,1237.75 1196.81,1238.91 1198.74,1239.97 1200.66,1240.94 1202.58,1241.83 1204.51,1242.63 1206.43,1243.35 1208.36,1243.98 1210.28,1244.53 1212.2,1245 1214.13,1245.38 1216.05,1245.68 1217.98,1245.91 1219.9,1246.05 1221.82,1246.11 1223.75,1246.1 1225.67,1246.02 1227.6,1245.85 1229.52,1245.61 1231.44,1245.3 1233.37,1244.92 1235.29,1244.47 1237.22,1243.94 1239.14,1243.35 1241.06,1242.69 1242.99,1241.96 1244.91,1241.17 1246.84,1240.31 1248.76,1239.39 1250.68,1238.4 1252.61,1237.36 1254.53,1236.26 1256.46,1235.1 1258.38,1233.88 1260.3,1232.61 1262.23,1231.29 1264.15,1229.91 1266.08,1228.48 1268,1227.01 1269.92,1225.48 1271.85,1223.91 1273.77,1222.29 1275.7,1220.62 1277.62,1218.91 1279.54,1217.16 1281.47,1215.37 1283.39,1213.53 1285.32,1211.66 1287.24,1209.76 1289.16,1207.81 1291.09,1205.84 1293.01,1203.83 1294.94,1201.79 1296.86,1199.73 1298.78,1197.63 1300.71,1195.51 1302.63,1193.37 1304.56,1191.2 1306.48,1189.01 1308.4,1186.8 1310.33,1184.57 1312.25,1182.32 1314.18,1180.06 1316.1,1177.77 1318.02,1175.48 1319.95,1173.17 1321.87,1170.84 1323.8,1168.51 1325.72,1166.17 1327.64,1163.83 1329.57,1161.47 1331.49,1159.11 1333.42,1156.75 1335.34,1154.39 1337.26,1152.03 1339.19,1149.67 1341.11,1147.31 1343.04,1144.96 1344.96,1142.61 1346.88,1140.27 1348.81,1137.93 1350.73,1135.6 1352.66,1133.29 1354.58,1130.98 1356.5,1128.68 1358.43,1126.39 1360.35,1124.12 1362.28,1121.87 1364.2,1119.63 1366.12,1117.41 1368.05,1115.2 1369.97,1113.02 1371.9,1110.86 1373.82,1108.72 1375.74,1106.61 1377.67,1104.52 1379.59,1102.45 1381.52,1100.42 1383.44,1098.41 1385.36,1096.42 1387.29,1094.47 1389.21,1092.54 1391.14,1090.65 1393.06,1088.79 1394.98,1086.96 1396.91,1085.16 1398.83,1083.39 1400.76,1081.66 1402.68,1079.97 1404.6,1078.31 1406.53,1076.68 1408.45,1075.1 1410.38,1073.55 1412.3,1072.05 1414.22,1070.58 1416.15,1069.16 1418.07,1067.78 1420,1066.43 1421.92,1065.13 1423.84,1063.88 1425.77,1062.66 1427.69,1061.49 1429.62,1060.36 1431.54,1059.28 1433.46,1058.24 1435.39,1057.25 1437.31,1056.3 1439.24,1055.39 1441.16,1054.54 1443.08,1053.73 1445.01,1052.96 1446.93,1052.24 1448.86,1051.57 1450.78,1050.95 1452.7,1050.38 1454.63,1049.85 1456.55,1049.37 1458.48,1048.94 1460.4,1048.56 1462.32,1048.23 1464.25,1047.94 1466.17,1047.71 1468.1,1047.52 1470.02,1047.38 1471.94,1047.28 1473.87,1047.24 1475.79,1047.24 1477.72,1047.29 1479.64,1047.39 1481.56,1047.54 1483.49,1047.73 1485.41,1047.97 1487.34,1048.26 1489.26,1048.59 1491.18,1048.97 1493.11,1049.4 1495.03,1049.87 1496.96,1050.39 1498.88,1050.96 1500.8,1051.57 1502.73,1052.23 1504.65,1052.93 1506.58,1053.67 1508.5,1054.46 1510.42,1055.28 1512.35,1056.16 1514.27,1057.07 1516.2,1058.02 1518.12,1059.02 1520.04,1060.05 1521.97,1061.13 1523.89,1062.24 1525.82,1063.4 1527.74,1064.59 1529.66,1065.82 1531.59,1067.08 1533.51,1068.39 1535.44,1069.72 1537.36,1071.1 1539.28,1072.5 1541.21,1073.94 1543.13,1075.42 1545.06,1076.92 1546.98,1078.46 1548.9,1080.03 1550.83,1081.62 1552.75,1083.25 1554.68,1084.9 1556.6,1086.59 1558.52,1088.3 1560.45,1090.03 1562.37,1091.79 1564.3,1093.57 1566.22,1095.38 1568.14,1097.21 1570.07,1099.06 1571.99,1100.93 1573.92,1102.83 1575.84,1104.74 1577.76,1106.67 1579.69,1108.62 1581.61,1110.58 1583.54,1112.56 1585.46,1114.56 1587.39,1116.57 1589.31,1118.59 1591.23,1120.62 1593.16,1122.67 1595.08,1124.73 1597.01,1126.79 1598.93,1128.87 1600.85,1130.95 1602.78,1133.04 1604.7,1135.13 1606.63,1137.23 1608.55,1139.33 1610.47,1141.44 1612.4,1143.54 1614.32,1145.65 1616.25,1147.76 1618.17,1149.87 1620.09,1151.97 1622.02,1154.08 1623.94,1156.18 1625.87,1158.28 1627.79,1160.37 1629.71,1162.46 1631.64,1164.54 1633.56,1166.61 1635.49,1168.68 1637.41,1170.73 1639.33,1172.78 1641.26,1174.81 1643.18,1176.83 1645.11,1178.84 1647.03,1180.84 1648.95,1182.82 1650.88,1184.78 1652.8,1186.73 1654.73,1188.66 1656.65,1190.58 1658.57,1192.47 1660.5,1194.35 1662.42,1196.21 1664.35,1198.05 1666.27,1199.86 1668.19,1201.66 1670.12,1203.43 1672.04,1205.18 1673.97,1206.9 1675.89,1208.6 1677.81,1210.28 1679.74,1211.93 1681.66,1213.55 1683.59,1215.14 1685.51,1216.71 1687.43,1218.24 1689.36,1219.75 1691.28,1221.23 1693.21,1222.68 1695.13,1224.09 1697.05,1225.48 1698.98,1226.83 1700.9,1228.16 1702.83,1229.45 1704.75,1230.7 1706.67,1231.93 1708.6,1233.11 1710.52,1234.27 1712.45,1235.39 1714.37,1236.47 1716.29,1237.52 1718.22,1238.53 1720.14,1239.51 1722.07,1240.45 1723.99,1241.35 1725.91,1242.21 1727.84,1243.04 1729.76,1243.82 1731.69,1244.57 1733.61,1245.28 1735.53,1245.96 1737.46,1246.59 1739.38,1247.19 1741.31,1247.74 1743.23,1248.26 1745.15,1248.74 1747.08,1249.18 1749,1249.58 1750.93,1249.94 1752.85,1250.25 1754.77,1250.54 1756.7,1250.78 1758.62,1250.98 1760.55,1251.13 1762.47,1251.25 1764.39,1251.33 1766.32,1251.37 1768.24,1251.37 1770.17,1251.33 1772.09,1251.26 1774.01,1251.14 1775.94,1250.98 1777.86,1250.79 1779.79,1250.55 1781.71,1250.28 1783.63,1249.97 1785.56,1249.62 1787.48,1249.23 1789.41,1248.8 1791.33,1248.34 1793.25,1247.84 1795.18,1247.31 1797.1,1246.73 1799.03,1246.12 1800.95,1245.48 1802.87,1244.79 1804.8,1244.08 1806.72,1243.32 1808.65,1242.54 1810.57,1241.72 1812.49,1240.86 1814.42,1239.97 1816.34,1239.05 1818.27,1238.1 1820.19,1237.12 1822.11,1236.1 1824.04,1235.05 1825.96,1233.98 1827.89,1232.87 1829.81,1231.73 1831.73,1230.57 1833.66,1229.38 1835.58,1228.15 1837.51,1226.91 1839.43,1225.63 1841.35,1224.33 1843.28,1223.01 1845.2,1221.66 1847.13,1220.28 1849.05,1218.88 1850.97,1217.46 1852.9,1216.02 1854.82,1214.56 1856.75,1213.07 1858.67,1211.56 1860.59,1210.04 1862.52,1208.5 1864.44,1206.93 1866.37,1205.36 1868.29,1203.76 1870.21,1202.15 1872.14,1200.52 1874.06,1198.88 1875.99,1197.23 1877.91,1195.56 1879.83,1193.88 1881.76,1192.19 1883.68,1190.49 1885.61,1188.77 1887.53,1187.05 1889.45,1185.32 1891.38,1183.58 1893.3,1181.84 1895.23,1180.09 1897.15,1178.33 1899.07,1176.57 1901,1174.8 1902.92,1173.03 1904.85,1171.26 1906.77,1169.49 1908.69,1167.71 1910.62,1165.94 1912.54,1164.17 1914.47,1162.4 1916.39,1160.63 1918.31,1158.86 1920.24,1157.1 1922.16,1155.34 1924.09,1153.59 1926.01,1151.85 1927.93,1150.11 1929.86,1148.38 1931.78,1146.65 1933.71,1144.94 1935.63,1143.23 1937.55,1141.54 1939.48,1139.85 1941.4,1138.18 1943.33,1136.52 1945.25,1134.88 1947.17,1133.25 1949.1,1131.63 1951.02,1130.03 1952.95,1128.45 1954.87,1126.88 1956.79,1125.33 1958.72,1123.8 1960.64,1122.29 1962.57,1120.8 1964.49,1119.33 1966.41,1117.88 1968.34,1116.45 1970.26,1115.05 1972.19,1113.66 1974.11,1112.3 1976.03,1110.97 1977.96,1109.65 1979.88,1108.37 1981.81,1107.11 1983.73,1105.87 1985.65,1104.66 1987.58,1103.48 1989.5,1102.33 1991.43,1101.21 1993.35,1100.12 1995.27,1099.05 1997.2,1098.02 1999.12,1097.02 2001.05,1096.05 2002.97,1095.11 2004.9,1094.2 2006.82,1093.32 2008.74,1092.48 2010.67,1091.67 2012.59,1090.89 2014.52,1090.15 2016.44,1089.44 2018.36,1088.77 2020.29,1088.13 2022.21,1087.53 2024.14,1086.96 2026.06,1086.43 2027.98,1085.93 2029.91,1085.48 2031.83,1085.05 2033.76,1084.67 2035.68,1084.33 2037.6,1084.02 2039.53,1083.75 2041.45,1083.52 2043.38,1083.32 2045.3,1083.17 2047.22,1083.05 2049.15,1082.98 2051.07,1082.94 2053,1082.94 2054.92,1082.97 2056.84,1083.05 2058.77,1083.17 2060.69,1083.33 2062.62,1083.52 2064.54,1083.76 2066.46,1084.04 2068.39,1084.35 2070.31,1084.71 2072.24,1085.11 2074.16,1085.54 2076.08,1086.02 2078.01,1086.54 2079.93,1087.09 2081.86,1087.69 2083.78,1088.32 2085.7,1088.99 2087.63,1089.71 2089.55,1090.46 2091.48,1091.25 2093.4,1092.07 2095.32,1092.94 2097.25,1093.84 2099.17,1094.79 2101.1,1095.77 2103.02,1096.79 2104.94,1097.84 2106.87,1098.94 2108.79,1100.07 2110.72,1101.23 2112.64,1102.44 2114.56,1103.68 2116.49,1104.95 2118.41,1106.27 2120.34,1107.61 2122.26,1109 2124.18,1110.41 2126.11,1111.86 2128.03,1113.35 2129.96,1114.87 2131.88,1116.42 2133.8,1118 2135.73,1119.62 2137.65,1121.27 2139.58,1122.95 2141.5,1124.66 2143.42,1126.4 2145.35,1128.18 2147.27,1129.98 2149.2,1131.81 2151.12,1133.68 2153.04,1135.57 2154.97,1137.49 2156.89,1139.43 2158.82,1141.4 2160.74,1143.4 2162.66,1145.43 2164.59,1147.48 2166.51,1149.55 2168.44,1151.65 2170.36,1153.77 2172.28,1155.92 2174.21,1158.08 2176.13,1160.27 2178.06,1162.48 2179.98,1164.71 2181.9,1166.96 2183.83,1169.23 2185.75,1171.51 2187.68,1173.82 2189.6,1176.14 2191.52,1178.48 2193.45,1180.84 2195.37,1183.21 2197.3,1185.6 2199.22,1188 2201.14,1190.42 2203.07,1192.85 2204.99,1195.3 2206.92,1197.76 2208.84,1200.23 2210.76,1202.72 2212.69,1205.21 2214.61,1207.72 2216.54,1210.24 2218.46,1212.77 2220.38,1215.3 2222.31,1217.85 2224.23,1220.41 2226.16,1222.97 2228.08,1225.54 2230,1228.11 2231.93,1230.68 2233.85,1233.26 2235.78,1235.84 2237.7,1238.43 2239.62,1241.01 2241.55,1243.59 2243.47,1246.16 2245.4,1248.74 2247.32,1251.3 2249.24,1253.87 2251.17,1256.42 2253.09,1258.97 2255.02,1261.5 2256.94,1264.03 2258.86,1266.55 2260.79,1269.05 2262.71,1271.54 2264.64,1274.02 2266.56,1276.49 2268.48,1278.95 2270.41,1281.4 2272.33,1283.85 2274.26,1286.3 2276.18,1288.74 2278.1,1291.17 2280.03,1293.61 2281.95,1296.05 2283.88,1298.49 2285.8,1300.93 2287.72,1303.37 2289.65,1305.82 2291.57,1308.28 2293.5,1310.74 2295.42,1313.22 2297.34,1315.7 "/>
<path clip-path="url(#clip150)" d="M1907.68 196.789 L2287.49 196.789 L2287.49 93.1086 L1907.68 93.1086  Z" fill="#ffffff" fill-rule="evenodd" fill-opacity="1"/>
<polyline clip-path="url(#clip150)" style="stroke:#000000; stroke-linecap:round; stroke-linejoin:round; stroke-width:4; stroke-opacity:1; fill:none" points="1907.68,196.789 2287.49,196.789 2287.49,93.1086 1907.68,93.1086 1907.68,196.789 "/>
<polyline clip-path="url(#clip150)" style="stroke:#009af9; stroke-linecap:round; stroke-linejoin:round; stroke-width:4; stroke-opacity:1; fill:none" points="1929.43,144.949 2059.96,144.949 "/>
<path clip-path="url(#clip150)" d="M2086.39 131.511 L2086.39 158.386 L2092.04 158.386 Q2099.19 158.386 2102.5 155.145 Q2105.83 151.905 2105.83 144.914 Q2105.83 137.969 2102.5 134.752 Q2099.19 131.511 2092.04 131.511 L2086.39 131.511 M2081.71 127.669 L2091.32 127.669 Q2101.37 127.669 2106.06 131.858 Q2110.76 136.025 2110.76 144.914 Q2110.76 153.849 2106.04 158.039 Q2101.32 162.229 2091.32 162.229 L2081.71 162.229 L2081.71 127.669 Z" fill="#000000" fill-rule="nonzero" fill-opacity="1" /><path clip-path="url(#clip150)" d="M2116.39 142.067 L2119.07 142.067 L2119.07 162.229 L2116.39 162.229 L2116.39 142.067 Z" fill="#000000" fill-rule="nonzero" fill-opacity="1" /><path clip-path="url(#clip150)" d="M2158.31 132.507 L2158.31 141.465 L2171.2 141.465 L2171.2 145.4 L2158.31 145.4 L2158.31 154.358 L2154.42 154.358 L2154.42 145.4 L2141.53 145.4 L2141.53 141.465 L2154.42 141.465 L2154.42 132.507 L2158.31 132.507 M2141.53 158.293 L2171.2 158.293 L2171.2 162.229 L2141.53 162.229 L2141.53 158.293 Z" fill="#000000" fill-rule="nonzero" fill-opacity="1" /><path clip-path="url(#clip150)" d="M2207.5 132.275 L2198.01 158.34 L2217.01 158.34 L2207.5 132.275 M2191.67 162.229 L2204.86 127.669 L2210.16 127.669 L2223.33 162.229 L2191.67 162.229 Z" fill="#000000" fill-rule="nonzero" fill-opacity="1" /><path clip-path="url(#clip150)" d="M2233.05 131.511 L2233.05 158.386 L2238.7 158.386 Q2245.86 158.386 2249.17 155.145 Q2252.5 151.905 2252.5 144.914 Q2252.5 137.969 2249.17 134.752 Q2245.86 131.511 2238.7 131.511 L2233.05 131.511 M2228.38 127.669 L2237.98 127.669 Q2248.03 127.669 2252.73 131.858 Q2257.43 136.025 2257.43 144.914 Q2257.43 153.849 2252.71 158.039 Q2247.98 162.229 2237.98 162.229 L2228.38 162.229 L2228.38 127.669 Z" fill="#000000" fill-rule="nonzero" fill-opacity="1" /><path clip-path="url(#clip150)" d="M2263.05 142.067 L2265.74 142.067 L2265.74 162.229 L2263.05 162.229 L2263.05 142.067 Z" fill="#000000" fill-rule="nonzero" fill-opacity="1" /></svg>
