<?xml version="1.0" encoding="utf-8"?>
<svg xmlns="http://www.w3.org/2000/svg" xmlns:xlink="http://www.w3.org/1999/xlink" width="800" height="400" viewBox="0 0 3200 1600">
<defs>
  <clipPath id="clip260">
    <rect x="0" y="0" width="3200" height="1600"/>
  </clipPath>
</defs>
<path clip-path="url(#clip260)" d="M0 1600 L3200 1600 L3200 0 L0 0  Z" fill="#ffffff" fill-rule="evenodd" fill-opacity="1"/>
<defs>
  <clipPath id="clip261">
    <rect x="640" y="0" width="2241" height="1600"/>
  </clipPath>
</defs>
<path clip-path="url(#clip260)" d="M364.203 1495.09 L3152.76 1495.09 L3152.76 47.2441 L364.203 47.2441  Z" fill="#ffffff" fill-rule="evenodd" fill-opacity="1"/>
<defs>
  <clipPath id="clip262">
    <rect x="364" y="47" width="2790" height="1449"/>
  </clipPath>
</defs>
<polyline clip-path="url(#clip262)" style="stroke:#000000; stroke-linecap:round; stroke-linejoin:round; stroke-width:2; stroke-opacity:0.1; fill:none" points="735.426,1495.09 735.426,47.2441 "/>
<polyline clip-path="url(#clip262)" style="stroke:#000000; stroke-linecap:round; stroke-linejoin:round; stroke-width:2; stroke-opacity:0.1; fill:none" points="1758.48,1495.09 1758.48,47.2441 "/>
<polyline clip-path="url(#clip262)" style="stroke:#000000; stroke-linecap:round; stroke-linejoin:round; stroke-width:2; stroke-opacity:0.1; fill:none" points="2781.53,1495.09 2781.53,47.2441 "/>
<polyline clip-path="url(#clip262)" style="stroke:#000000; stroke-linecap:round; stroke-linejoin:round; stroke-width:2; stroke-opacity:0.1; fill:none" points="364.203,1380.09 3152.76,1380.09 "/>
<polyline clip-path="url(#clip262)" style="stroke:#000000; stroke-linecap:round; stroke-linejoin:round; stroke-width:2; stroke-opacity:0.1; fill:none" points="364.203,1077.89 3152.76,1077.89 "/>
<polyline clip-path="url(#clip262)" style="stroke:#000000; stroke-linecap:round; stroke-linejoin:round; stroke-width:2; stroke-opacity:0.1; fill:none" points="364.203,775.682 3152.76,775.682 "/>
<polyline clip-path="url(#clip262)" style="stroke:#000000; stroke-linecap:round; stroke-linejoin:round; stroke-width:2; stroke-opacity:0.1; fill:none" points="364.203,473.478 3152.76,473.478 "/>
<polyline clip-path="url(#clip262)" style="stroke:#000000; stroke-linecap:round; stroke-linejoin:round; stroke-width:2; stroke-opacity:0.1; fill:none" points="364.203,171.274 3152.76,171.274 "/>
<polyline clip-path="url(#clip260)" style="stroke:#000000; stroke-linecap:round; stroke-linejoin:round; stroke-width:4; stroke-opacity:1; fill:none" points="364.203,1495.09 3152.76,1495.09 "/>
<polyline clip-path="url(#clip260)" style="stroke:#000000; stroke-linecap:round; stroke-linejoin:round; stroke-width:4; stroke-opacity:1; fill:none" points="735.426,1495.09 735.426,1476.19 "/>
<polyline clip-path="url(#clip260)" style="stroke:#000000; stroke-linecap:round; stroke-linejoin:round; stroke-width:4; stroke-opacity:1; fill:none" points="1758.48,1495.09 1758.48,1476.19 "/>
<polyline clip-path="url(#clip260)" style="stroke:#000000; stroke-linecap:round; stroke-linejoin:round; stroke-width:4; stroke-opacity:1; fill:none" points="2781.53,1495.09 2781.53,1476.19 "/>
<path clip-path="url(#clip260)" d="M515.195 1530.46 L515.195 1535.02 Q512.533 1533.75 510.172 1533.12 Q507.811 1532.5 505.612 1532.5 Q501.793 1532.5 499.709 1533.98 Q497.649 1535.46 497.649 1538.19 Q497.649 1540.49 499.015 1541.67 Q500.404 1542.82 504.246 1543.54 L507.07 1544.12 Q512.302 1545.11 514.779 1547.64 Q517.279 1550.14 517.279 1554.35 Q517.279 1559.37 513.899 1561.97 Q510.542 1564.56 504.038 1564.56 Q501.584 1564.56 498.806 1564 Q496.052 1563.45 493.089 1562.36 L493.089 1557.55 Q495.936 1559.14 498.668 1559.95 Q501.399 1560.76 504.038 1560.76 Q508.042 1560.76 510.218 1559.19 Q512.394 1557.61 512.394 1554.7 Q512.394 1552.15 510.82 1550.72 Q509.269 1549.28 505.705 1548.56 L502.857 1548.01 Q497.626 1546.97 495.288 1544.74 Q492.95 1542.52 492.95 1538.56 Q492.95 1533.98 496.168 1531.34 Q499.408 1528.7 505.08 1528.7 Q507.51 1528.7 510.033 1529.14 Q512.556 1529.58 515.195 1530.46 Z" fill="#000000" fill-rule="nonzero" fill-opacity="1" /><path clip-path="url(#clip260)" d="M535.172 1566.3 Q533.366 1570.92 531.653 1572.34 Q529.94 1573.75 527.07 1573.75 L523.667 1573.75 L523.667 1570.18 L526.167 1570.18 Q527.927 1570.18 528.899 1569.35 Q529.871 1568.52 531.052 1565.42 L531.815 1563.47 L521.329 1537.96 L525.843 1537.96 L533.945 1558.24 L542.047 1537.96 L546.561 1537.96 L535.172 1566.3 Z" fill="#000000" fill-rule="nonzero" fill-opacity="1" /><path clip-path="url(#clip260)" d="M572.625 1542.94 Q574.223 1540.07 576.445 1538.7 Q578.667 1537.34 581.676 1537.34 Q585.727 1537.34 587.926 1540.18 Q590.125 1543.01 590.125 1548.24 L590.125 1563.89 L585.843 1563.89 L585.843 1548.38 Q585.843 1544.65 584.524 1542.85 Q583.204 1541.04 580.496 1541.04 Q577.186 1541.04 575.264 1543.24 Q573.343 1545.44 573.343 1549.24 L573.343 1563.89 L569.061 1563.89 L569.061 1548.38 Q569.061 1544.63 567.741 1542.85 Q566.422 1541.04 563.667 1541.04 Q560.403 1541.04 558.482 1543.26 Q556.561 1545.46 556.561 1549.24 L556.561 1563.89 L552.278 1563.89 L552.278 1537.96 L556.561 1537.96 L556.561 1541.99 Q558.019 1539.61 560.056 1538.47 Q562.093 1537.34 564.894 1537.34 Q567.718 1537.34 569.686 1538.77 Q571.676 1540.21 572.625 1542.94 Z" fill="#000000" fill-rule="nonzero" fill-opacity="1" /><path clip-path="url(#clip260)" d="M617.232 1550.95 Q617.232 1546.25 615.287 1543.59 Q613.366 1540.9 609.986 1540.9 Q606.607 1540.9 604.662 1543.59 Q602.741 1546.25 602.741 1550.95 Q602.741 1555.65 604.662 1558.33 Q606.607 1560.99 609.986 1560.99 Q613.366 1560.99 615.287 1558.33 Q617.232 1555.65 617.232 1550.95 M602.741 1541.9 Q604.084 1539.58 606.121 1538.47 Q608.181 1537.34 611.028 1537.34 Q615.75 1537.34 618.69 1541.09 Q621.653 1544.84 621.653 1550.95 Q621.653 1557.06 618.69 1560.81 Q615.75 1564.56 611.028 1564.56 Q608.181 1564.56 606.121 1563.45 Q604.084 1562.31 602.741 1560 L602.741 1563.89 L598.459 1563.89 L598.459 1527.87 L602.741 1527.87 L602.741 1541.9 Z" fill="#000000" fill-rule="nonzero" fill-opacity="1" /><path clip-path="url(#clip260)" d="M638.759 1540.95 Q635.333 1540.95 633.343 1543.63 Q631.352 1546.3 631.352 1550.95 Q631.352 1555.6 633.32 1558.29 Q635.31 1560.95 638.759 1560.95 Q642.162 1560.95 644.153 1558.26 Q646.144 1555.58 646.144 1550.95 Q646.144 1546.34 644.153 1543.66 Q642.162 1540.95 638.759 1540.95 M638.759 1537.34 Q644.315 1537.34 647.486 1540.95 Q650.657 1544.56 650.657 1550.95 Q650.657 1557.31 647.486 1560.95 Q644.315 1564.56 638.759 1564.56 Q633.181 1564.56 630.009 1560.95 Q626.861 1557.31 626.861 1550.95 Q626.861 1544.56 630.009 1540.95 Q633.181 1537.34 638.759 1537.34 Z" fill="#000000" fill-rule="nonzero" fill-opacity="1" /><path clip-path="url(#clip260)" d="M657.718 1527.87 L661.977 1527.87 L661.977 1563.89 L657.718 1563.89 L657.718 1527.87 Z" fill="#000000" fill-rule="nonzero" fill-opacity="1" /><path clip-path="url(#clip260)" d="M670.889 1537.96 L675.148 1537.96 L675.148 1563.89 L670.889 1563.89 L670.889 1537.96 M670.889 1527.87 L675.148 1527.87 L675.148 1533.26 L670.889 1533.26 L670.889 1527.87 Z" fill="#000000" fill-rule="nonzero" fill-opacity="1" /><path clip-path="url(#clip260)" d="M702.717 1538.96 L702.717 1542.94 Q700.912 1541.94 699.083 1541.46 Q697.278 1540.95 695.426 1540.95 Q691.282 1540.95 688.991 1543.59 Q686.699 1546.2 686.699 1550.95 Q686.699 1555.69 688.991 1558.33 Q691.282 1560.95 695.426 1560.95 Q697.278 1560.95 699.083 1560.46 Q700.912 1559.95 702.717 1558.96 L702.717 1562.89 Q700.935 1563.73 699.014 1564.14 Q697.116 1564.56 694.963 1564.56 Q689.106 1564.56 685.657 1560.88 Q682.208 1557.2 682.208 1550.95 Q682.208 1544.61 685.68 1540.97 Q689.176 1537.34 695.241 1537.34 Q697.208 1537.34 699.083 1537.75 Q700.958 1538.15 702.717 1538.96 Z" fill="#000000" fill-rule="nonzero" fill-opacity="1" /><path clip-path="url(#clip260)" d="M735.426 1527.92 Q732.324 1533.24 730.819 1538.45 Q729.314 1543.66 729.314 1549 Q729.314 1554.35 730.819 1559.61 Q732.347 1564.84 735.426 1570.14 L731.722 1570.14 Q728.25 1564.7 726.514 1559.44 Q724.801 1554.19 724.801 1549 Q724.801 1543.84 726.514 1538.61 Q728.226 1533.38 731.722 1527.92 L735.426 1527.92 Z" fill="#000000" fill-rule="nonzero" fill-opacity="1" /><path clip-path="url(#clip260)" d="M755.472 1550.86 Q750.31 1550.86 748.319 1552.04 Q746.328 1553.22 746.328 1556.06 Q746.328 1558.33 747.81 1559.67 Q749.314 1560.99 751.884 1560.99 Q755.425 1560.99 757.555 1558.49 Q759.708 1555.97 759.708 1551.8 L759.708 1550.86 L755.472 1550.86 M763.967 1549.1 L763.967 1563.89 L759.708 1563.89 L759.708 1559.95 Q758.249 1562.31 756.074 1563.45 Q753.898 1564.56 750.749 1564.56 Q746.768 1564.56 744.407 1562.34 Q742.069 1560.09 742.069 1556.34 Q742.069 1551.97 744.986 1549.74 Q747.925 1547.52 753.736 1547.52 L759.708 1547.52 L759.708 1547.11 Q759.708 1544.17 757.763 1542.57 Q755.842 1540.95 752.347 1540.95 Q750.125 1540.95 748.018 1541.48 Q745.912 1542.01 743.967 1543.08 L743.967 1539.14 Q746.305 1538.24 748.504 1537.8 Q750.703 1537.34 752.787 1537.34 Q758.411 1537.34 761.189 1540.25 Q763.967 1543.17 763.967 1549.1 Z" fill="#000000" fill-rule="nonzero" fill-opacity="1" /><path clip-path="url(#clip260)" d="M772.3 1553.66 L772.3 1537.96 L776.56 1537.96 L776.56 1553.49 Q776.56 1557.17 777.995 1559.03 Q779.43 1560.86 782.3 1560.86 Q785.749 1560.86 787.74 1558.66 Q789.754 1556.46 789.754 1552.66 L789.754 1537.96 L794.013 1537.96 L794.013 1563.89 L789.754 1563.89 L789.754 1559.91 Q788.203 1562.27 786.143 1563.42 Q784.106 1564.56 781.397 1564.56 Q776.93 1564.56 774.615 1561.78 Q772.3 1559 772.3 1553.66 M783.018 1537.34 L783.018 1537.34 Z" fill="#000000" fill-rule="nonzero" fill-opacity="1" /><path clip-path="url(#clip260)" d="M806.999 1530.6 L806.999 1537.96 L815.772 1537.96 L815.772 1541.27 L806.999 1541.27 L806.999 1555.35 Q806.999 1558.52 807.856 1559.42 Q808.735 1560.32 811.397 1560.32 L815.772 1560.32 L815.772 1563.89 L811.397 1563.89 Q806.467 1563.89 804.592 1562.06 Q802.717 1560.21 802.717 1555.35 L802.717 1541.27 L799.592 1541.27 L799.592 1537.96 L802.717 1537.96 L802.717 1530.6 L806.999 1530.6 Z" fill="#000000" fill-rule="nonzero" fill-opacity="1" /><path clip-path="url(#clip260)" d="M831.42 1540.95 Q827.994 1540.95 826.004 1543.63 Q824.013 1546.3 824.013 1550.95 Q824.013 1555.6 825.981 1558.29 Q827.971 1560.95 831.42 1560.95 Q834.823 1560.95 836.814 1558.26 Q838.805 1555.58 838.805 1550.95 Q838.805 1546.34 836.814 1543.66 Q834.823 1540.95 831.42 1540.95 M831.42 1537.34 Q836.976 1537.34 840.147 1540.95 Q843.318 1544.56 843.318 1550.95 Q843.318 1557.31 840.147 1560.95 Q836.976 1564.56 831.42 1564.56 Q825.842 1564.56 822.67 1560.95 Q819.522 1557.31 819.522 1550.95 Q819.522 1544.56 822.67 1540.95 Q825.842 1537.34 831.42 1537.34 Z" fill="#000000" fill-rule="nonzero" fill-opacity="1" /><path clip-path="url(#clip260)" d="M850.147 1558.01 L855.031 1558.01 L855.031 1563.89 L850.147 1563.89 L850.147 1558.01 Z" fill="#000000" fill-rule="nonzero" fill-opacity="1" /><path clip-path="url(#clip260)" d="M896.744 1541.9 L896.744 1527.87 L901.003 1527.87 L901.003 1563.89 L896.744 1563.89 L896.744 1560 Q895.402 1562.31 893.341 1563.45 Q891.304 1564.56 888.434 1564.56 Q883.735 1564.56 880.772 1560.81 Q877.832 1557.06 877.832 1550.95 Q877.832 1544.84 880.772 1541.09 Q883.735 1537.34 888.434 1537.34 Q891.304 1537.34 893.341 1538.47 Q895.402 1539.58 896.744 1541.9 M882.23 1550.95 Q882.23 1555.65 884.152 1558.33 Q886.096 1560.99 889.476 1560.99 Q892.855 1560.99 894.8 1558.33 Q896.744 1555.65 896.744 1550.95 Q896.744 1546.25 894.8 1543.59 Q892.855 1540.9 889.476 1540.9 Q886.096 1540.9 884.152 1543.59 Q882.23 1546.25 882.23 1550.95 Z" fill="#000000" fill-rule="nonzero" fill-opacity="1" /><path clip-path="url(#clip260)" d="M909.776 1537.96 L914.036 1537.96 L914.036 1563.89 L909.776 1563.89 L909.776 1537.96 M909.776 1527.87 L914.036 1527.87 L914.036 1533.26 L909.776 1533.26 L909.776 1527.87 Z" fill="#000000" fill-rule="nonzero" fill-opacity="1" /><path clip-path="url(#clip260)" d="M936.073 1527.87 L936.073 1531.41 L931.999 1531.41 Q929.707 1531.41 928.804 1532.34 Q927.924 1533.26 927.924 1535.67 L927.924 1537.96 L934.938 1537.96 L934.938 1541.27 L927.924 1541.27 L927.924 1563.89 L923.642 1563.89 L923.642 1541.27 L919.568 1541.27 L919.568 1537.96 L923.642 1537.96 L923.642 1536.16 Q923.642 1531.83 925.656 1529.86 Q927.67 1527.87 932.045 1527.87 L936.073 1527.87 Z" fill="#000000" fill-rule="nonzero" fill-opacity="1" /><path clip-path="url(#clip260)" d="M952.762 1527.87 L952.762 1531.41 L948.688 1531.41 Q946.397 1531.41 945.494 1532.34 Q944.614 1533.26 944.614 1535.67 L944.614 1537.96 L951.628 1537.96 L951.628 1541.27 L944.614 1541.27 L944.614 1563.89 L940.332 1563.89 L940.332 1541.27 L936.258 1541.27 L936.258 1537.96 L940.332 1537.96 L940.332 1536.16 Q940.332 1531.83 942.346 1529.86 Q944.36 1527.87 948.735 1527.87 L952.762 1527.87 Z" fill="#000000" fill-rule="nonzero" fill-opacity="1" /><path clip-path="url(#clip260)" d="M953.48 1558.01 L958.364 1558.01 L958.364 1563.89 L953.48 1563.89 L953.48 1558.01 Z" fill="#000000" fill-rule="nonzero" fill-opacity="1" /><path clip-path="url(#clip260)" d="M967.276 1527.92 L970.98 1527.92 Q974.452 1533.38 976.165 1538.61 Q977.901 1543.84 977.901 1549 Q977.901 1554.19 976.165 1559.44 Q974.452 1564.7 970.98 1570.14 L967.276 1570.14 Q970.355 1564.84 971.859 1559.61 Q973.387 1554.35 973.387 1549 Q973.387 1543.66 971.859 1538.45 Q970.355 1533.24 967.276 1527.92 Z" fill="#000000" fill-rule="nonzero" fill-opacity="1" /><path clip-path="url(#clip260)" d="M1561.22 1530.46 L1561.22 1535.02 Q1558.56 1533.75 1556.2 1533.12 Q1553.84 1532.5 1551.64 1532.5 Q1547.82 1532.5 1545.74 1533.98 Q1543.68 1535.46 1543.68 1538.19 Q1543.68 1540.49 1545.04 1541.67 Q1546.43 1542.82 1550.27 1543.54 L1553.1 1544.12 Q1558.33 1545.11 1560.81 1547.64 Q1563.31 1550.14 1563.31 1554.35 Q1563.31 1559.37 1559.93 1561.97 Q1556.57 1564.56 1550.07 1564.56 Q1547.61 1564.56 1544.83 1564 Q1542.08 1563.45 1539.12 1562.36 L1539.12 1557.55 Q1541.96 1559.14 1544.7 1559.95 Q1547.43 1560.76 1550.07 1560.76 Q1554.07 1560.76 1556.25 1559.19 Q1558.42 1557.61 1558.42 1554.7 Q1558.42 1552.15 1556.85 1550.72 Q1555.3 1549.28 1551.73 1548.56 L1548.89 1548.01 Q1543.65 1546.97 1541.32 1544.74 Q1538.98 1542.52 1538.98 1538.56 Q1538.98 1533.98 1542.2 1531.34 Q1545.44 1528.7 1551.11 1528.7 Q1553.54 1528.7 1556.06 1529.14 Q1558.58 1529.58 1561.22 1530.46 Z" fill="#000000" fill-rule="nonzero" fill-opacity="1" /><path clip-path="url(#clip260)" d="M1581.2 1566.3 Q1579.39 1570.92 1577.68 1572.34 Q1575.97 1573.75 1573.1 1573.75 L1569.7 1573.75 L1569.7 1570.18 L1572.2 1570.18 Q1573.96 1570.18 1574.93 1569.35 Q1575.9 1568.52 1577.08 1565.42 L1577.84 1563.47 L1567.36 1537.96 L1571.87 1537.96 L1579.97 1558.24 L1588.08 1537.96 L1592.59 1537.96 L1581.2 1566.3 Z" fill="#000000" fill-rule="nonzero" fill-opacity="1" /><path clip-path="url(#clip260)" d="M1618.65 1542.94 Q1620.25 1540.07 1622.47 1538.7 Q1624.7 1537.34 1627.7 1537.34 Q1631.76 1537.34 1633.95 1540.18 Q1636.15 1543.01 1636.15 1548.24 L1636.15 1563.89 L1631.87 1563.89 L1631.87 1548.38 Q1631.87 1544.65 1630.55 1542.85 Q1629.23 1541.04 1626.52 1541.04 Q1623.21 1541.04 1621.29 1543.24 Q1619.37 1545.44 1619.37 1549.24 L1619.37 1563.89 L1615.09 1563.89 L1615.09 1548.38 Q1615.09 1544.63 1613.77 1542.85 Q1612.45 1541.04 1609.7 1541.04 Q1606.43 1541.04 1604.51 1543.26 Q1602.59 1545.46 1602.59 1549.24 L1602.59 1563.89 L1598.31 1563.89 L1598.31 1537.96 L1602.59 1537.96 L1602.59 1541.99 Q1604.05 1539.61 1606.08 1538.47 Q1608.12 1537.34 1610.92 1537.34 Q1613.75 1537.34 1615.71 1538.77 Q1617.7 1540.21 1618.65 1542.94 Z" fill="#000000" fill-rule="nonzero" fill-opacity="1" /><path clip-path="url(#clip260)" d="M1663.26 1550.95 Q1663.26 1546.25 1661.32 1543.59 Q1659.39 1540.9 1656.01 1540.9 Q1652.64 1540.9 1650.69 1543.59 Q1648.77 1546.25 1648.77 1550.95 Q1648.77 1555.65 1650.69 1558.33 Q1652.64 1560.99 1656.01 1560.99 Q1659.39 1560.99 1661.32 1558.33 Q1663.26 1555.65 1663.26 1550.95 M1648.77 1541.9 Q1650.11 1539.58 1652.15 1538.47 Q1654.21 1537.34 1657.06 1537.34 Q1661.78 1537.34 1664.72 1541.09 Q1667.68 1544.84 1667.68 1550.95 Q1667.68 1557.06 1664.72 1560.81 Q1661.78 1564.56 1657.06 1564.56 Q1654.21 1564.56 1652.15 1563.45 Q1650.11 1562.31 1648.77 1560 L1648.77 1563.89 L1644.49 1563.89 L1644.49 1527.87 L1648.77 1527.87 L1648.77 1541.9 Z" fill="#000000" fill-rule="nonzero" fill-opacity="1" /><path clip-path="url(#clip260)" d="M1684.79 1540.95 Q1681.36 1540.95 1679.37 1543.63 Q1677.38 1546.3 1677.38 1550.95 Q1677.38 1555.6 1679.35 1558.29 Q1681.34 1560.95 1684.79 1560.95 Q1688.19 1560.95 1690.18 1558.26 Q1692.17 1555.58 1692.17 1550.95 Q1692.17 1546.34 1690.18 1543.66 Q1688.19 1540.95 1684.79 1540.95 M1684.79 1537.34 Q1690.34 1537.34 1693.51 1540.95 Q1696.69 1544.56 1696.69 1550.95 Q1696.69 1557.31 1693.51 1560.95 Q1690.34 1564.56 1684.79 1564.56 Q1679.21 1564.56 1676.04 1560.95 Q1672.89 1557.31 1672.89 1550.95 Q1672.89 1544.56 1676.04 1540.95 Q1679.21 1537.34 1684.79 1537.34 Z" fill="#000000" fill-rule="nonzero" fill-opacity="1" /><path clip-path="url(#clip260)" d="M1703.75 1527.87 L1708.01 1527.87 L1708.01 1563.89 L1703.75 1563.89 L1703.75 1527.87 Z" fill="#000000" fill-rule="nonzero" fill-opacity="1" /><path clip-path="url(#clip260)" d="M1716.92 1537.96 L1721.18 1537.96 L1721.18 1563.89 L1716.92 1563.89 L1716.92 1537.96 M1716.92 1527.87 L1721.18 1527.87 L1721.18 1533.26 L1716.92 1533.26 L1716.92 1527.87 Z" fill="#000000" fill-rule="nonzero" fill-opacity="1" /><path clip-path="url(#clip260)" d="M1748.75 1538.96 L1748.75 1542.94 Q1746.94 1541.94 1745.11 1541.46 Q1743.31 1540.95 1741.45 1540.95 Q1737.31 1540.95 1735.02 1543.59 Q1732.73 1546.2 1732.73 1550.95 Q1732.73 1555.69 1735.02 1558.33 Q1737.31 1560.95 1741.45 1560.95 Q1743.31 1560.95 1745.11 1560.46 Q1746.94 1559.95 1748.75 1558.96 L1748.75 1562.89 Q1746.96 1563.73 1745.04 1564.14 Q1743.14 1564.56 1740.99 1564.56 Q1735.13 1564.56 1731.69 1560.88 Q1728.24 1557.2 1728.24 1550.95 Q1728.24 1544.61 1731.71 1540.97 Q1735.2 1537.34 1741.27 1537.34 Q1743.24 1537.34 1745.11 1537.75 Q1746.99 1538.15 1748.75 1538.96 Z" fill="#000000" fill-rule="nonzero" fill-opacity="1" /><path clip-path="url(#clip260)" d="M1781.45 1527.92 Q1778.35 1533.24 1776.85 1538.45 Q1775.34 1543.66 1775.34 1549 Q1775.34 1554.35 1776.85 1559.61 Q1778.38 1564.84 1781.45 1570.14 L1777.75 1570.14 Q1774.28 1564.7 1772.54 1559.44 Q1770.83 1554.19 1770.83 1549 Q1770.83 1543.84 1772.54 1538.61 Q1774.25 1533.38 1777.75 1527.92 L1781.45 1527.92 Z" fill="#000000" fill-rule="nonzero" fill-opacity="1" /><path clip-path="url(#clip260)" d="M1802.84 1527.87 L1802.84 1531.41 L1798.77 1531.41 Q1796.48 1531.41 1795.57 1532.34 Q1794.69 1533.26 1794.69 1535.67 L1794.69 1537.96 L1801.71 1537.96 L1801.71 1541.27 L1794.69 1541.27 L1794.69 1563.89 L1790.41 1563.89 L1790.41 1541.27 L1786.34 1541.27 L1786.34 1537.96 L1790.41 1537.96 L1790.41 1536.16 Q1790.41 1531.83 1792.43 1529.86 Q1794.44 1527.87 1798.81 1527.87 L1802.84 1527.87 Z" fill="#000000" fill-rule="nonzero" fill-opacity="1" /><path clip-path="url(#clip260)" d="M1806.41 1537.96 L1810.67 1537.96 L1810.67 1563.89 L1806.41 1563.89 L1806.41 1537.96 M1806.41 1527.87 L1810.67 1527.87 L1810.67 1533.26 L1806.41 1533.26 L1806.41 1527.87 Z" fill="#000000" fill-rule="nonzero" fill-opacity="1" /><path clip-path="url(#clip260)" d="M1841.13 1548.24 L1841.13 1563.89 L1836.87 1563.89 L1836.87 1548.38 Q1836.87 1544.7 1835.44 1542.87 Q1834 1541.04 1831.13 1541.04 Q1827.68 1541.04 1825.69 1543.24 Q1823.7 1545.44 1823.7 1549.24 L1823.7 1563.89 L1819.42 1563.89 L1819.42 1537.96 L1823.7 1537.96 L1823.7 1541.99 Q1825.23 1539.65 1827.29 1538.49 Q1829.37 1537.34 1832.08 1537.34 Q1836.55 1537.34 1838.84 1540.11 Q1841.13 1542.87 1841.13 1548.24 Z" fill="#000000" fill-rule="nonzero" fill-opacity="1" /><path clip-path="url(#clip260)" d="M1850.23 1558.01 L1855.11 1558.01 L1855.11 1563.89 L1850.23 1563.89 L1850.23 1558.01 Z" fill="#000000" fill-rule="nonzero" fill-opacity="1" /><path clip-path="url(#clip260)" d="M1896.82 1541.9 L1896.82 1527.87 L1901.08 1527.87 L1901.08 1563.89 L1896.82 1563.89 L1896.82 1560 Q1895.48 1562.31 1893.42 1563.45 Q1891.38 1564.56 1888.51 1564.56 Q1883.81 1564.56 1880.85 1560.81 Q1877.91 1557.06 1877.91 1550.95 Q1877.91 1544.84 1880.85 1541.09 Q1883.81 1537.34 1888.51 1537.34 Q1891.38 1537.34 1893.42 1538.47 Q1895.48 1539.58 1896.82 1541.9 M1882.31 1550.95 Q1882.31 1555.65 1884.23 1558.33 Q1886.18 1560.99 1889.56 1560.99 Q1892.93 1560.99 1894.88 1558.33 Q1896.82 1555.65 1896.82 1550.95 Q1896.82 1546.25 1894.88 1543.59 Q1892.93 1540.9 1889.56 1540.9 Q1886.18 1540.9 1884.23 1543.59 Q1882.31 1546.25 1882.31 1550.95 Z" fill="#000000" fill-rule="nonzero" fill-opacity="1" /><path clip-path="url(#clip260)" d="M1909.86 1537.96 L1914.12 1537.96 L1914.12 1563.89 L1909.86 1563.89 L1909.86 1537.96 M1909.86 1527.87 L1914.12 1527.87 L1914.12 1533.26 L1909.86 1533.26 L1909.86 1527.87 Z" fill="#000000" fill-rule="nonzero" fill-opacity="1" /><path clip-path="url(#clip260)" d="M1936.15 1527.87 L1936.15 1531.41 L1932.08 1531.41 Q1929.79 1531.41 1928.88 1532.34 Q1928 1533.26 1928 1535.67 L1928 1537.96 L1935.02 1537.96 L1935.02 1541.27 L1928 1541.27 L1928 1563.89 L1923.72 1563.89 L1923.72 1541.27 L1919.65 1541.27 L1919.65 1537.96 L1923.72 1537.96 L1923.72 1536.16 Q1923.72 1531.83 1925.74 1529.86 Q1927.75 1527.87 1932.12 1527.87 L1936.15 1527.87 Z" fill="#000000" fill-rule="nonzero" fill-opacity="1" /><path clip-path="url(#clip260)" d="M1952.84 1527.87 L1952.84 1531.41 L1948.77 1531.41 Q1946.48 1531.41 1945.57 1532.34 Q1944.69 1533.26 1944.69 1535.67 L1944.69 1537.96 L1951.71 1537.96 L1951.71 1541.27 L1944.69 1541.27 L1944.69 1563.89 L1940.41 1563.89 L1940.41 1541.27 L1936.34 1541.27 L1936.34 1537.96 L1940.41 1537.96 L1940.41 1536.16 Q1940.41 1531.83 1942.43 1529.86 Q1944.44 1527.87 1948.81 1527.87 L1952.84 1527.87 Z" fill="#000000" fill-rule="nonzero" fill-opacity="1" /><path clip-path="url(#clip260)" d="M1953.56 1558.01 L1958.44 1558.01 L1958.44 1563.89 L1953.56 1563.89 L1953.56 1558.01 Z" fill="#000000" fill-rule="nonzero" fill-opacity="1" /><path clip-path="url(#clip260)" d="M1967.36 1527.92 L1971.06 1527.92 Q1974.53 1533.38 1976.24 1538.61 Q1977.98 1543.84 1977.98 1549 Q1977.98 1554.19 1976.24 1559.44 Q1974.53 1564.7 1971.06 1570.14 L1967.36 1570.14 Q1970.43 1564.84 1971.94 1559.61 Q1973.47 1554.35 1973.47 1549 Q1973.47 1543.66 1971.94 1538.45 Q1970.43 1533.24 1967.36 1527.92 Z" fill="#000000" fill-rule="nonzero" fill-opacity="1" /><path clip-path="url(#clip260)" d="M2526.84 1529.33 L2533.13 1529.33 L2548.46 1558.24 L2548.46 1529.33 L2552.99 1529.33 L2552.99 1563.89 L2546.7 1563.89 L2531.37 1534.98 L2531.37 1563.89 L2526.84 1563.89 L2526.84 1529.33 Z" fill="#000000" fill-rule="nonzero" fill-opacity="1" /><path clip-path="url(#clip260)" d="M2561.67 1553.66 L2561.67 1537.96 L2565.93 1537.96 L2565.93 1553.49 Q2565.93 1557.17 2567.37 1559.03 Q2568.8 1560.86 2571.67 1560.86 Q2575.12 1560.86 2577.11 1558.66 Q2579.13 1556.46 2579.13 1552.66 L2579.13 1537.96 L2583.39 1537.96 L2583.39 1563.89 L2579.13 1563.89 L2579.13 1559.91 Q2577.58 1562.27 2575.52 1563.42 Q2573.48 1564.56 2570.77 1564.56 Q2566.3 1564.56 2563.99 1561.78 Q2561.67 1559 2561.67 1553.66 M2572.39 1537.34 L2572.39 1537.34 Z" fill="#000000" fill-rule="nonzero" fill-opacity="1" /><path clip-path="url(#clip260)" d="M2612.34 1542.94 Q2613.94 1540.07 2616.16 1538.7 Q2618.39 1537.34 2621.4 1537.34 Q2625.45 1537.34 2627.65 1540.18 Q2629.84 1543.01 2629.84 1548.24 L2629.84 1563.89 L2625.56 1563.89 L2625.56 1548.38 Q2625.56 1544.65 2624.24 1542.85 Q2622.92 1541.04 2620.21 1541.04 Q2616.9 1541.04 2614.98 1543.24 Q2613.06 1545.44 2613.06 1549.24 L2613.06 1563.89 L2608.78 1563.89 L2608.78 1548.38 Q2608.78 1544.63 2607.46 1542.85 Q2606.14 1541.04 2603.39 1541.04 Q2600.12 1541.04 2598.2 1543.26 Q2596.28 1545.46 2596.28 1549.24 L2596.28 1563.89 L2592 1563.89 L2592 1537.96 L2596.28 1537.96 L2596.28 1541.99 Q2597.74 1539.61 2599.78 1538.47 Q2601.81 1537.34 2604.61 1537.34 Q2607.44 1537.34 2609.4 1538.77 Q2611.4 1540.21 2612.34 1542.94 Z" fill="#000000" fill-rule="nonzero" fill-opacity="1" /><path clip-path="url(#clip260)" d="M2660.52 1549.86 L2660.52 1551.94 L2640.93 1551.94 Q2641.21 1556.34 2643.57 1558.66 Q2645.96 1560.95 2650.19 1560.95 Q2652.65 1560.95 2654.94 1560.35 Q2657.25 1559.74 2659.52 1558.54 L2659.52 1562.57 Q2657.23 1563.54 2654.82 1564.05 Q2652.41 1564.56 2649.94 1564.56 Q2643.73 1564.56 2640.1 1560.95 Q2636.49 1557.34 2636.49 1551.18 Q2636.49 1544.81 2639.91 1541.09 Q2643.36 1537.34 2649.2 1537.34 Q2654.43 1537.34 2657.46 1540.72 Q2660.52 1544.07 2660.52 1549.86 M2656.26 1548.61 Q2656.21 1545.11 2654.29 1543.03 Q2652.39 1540.95 2649.24 1540.95 Q2645.68 1540.95 2643.52 1542.96 Q2641.4 1544.98 2641.07 1548.63 L2656.26 1548.61 Z" fill="#000000" fill-rule="nonzero" fill-opacity="1" /><path clip-path="url(#clip260)" d="M2682.53 1541.94 Q2681.81 1541.53 2680.96 1541.34 Q2680.12 1541.13 2679.1 1541.13 Q2675.49 1541.13 2673.55 1543.49 Q2671.63 1545.83 2671.63 1550.23 L2671.63 1563.89 L2667.34 1563.89 L2667.34 1537.96 L2671.63 1537.96 L2671.63 1541.99 Q2672.97 1539.63 2675.12 1538.49 Q2677.27 1537.34 2680.35 1537.34 Q2680.79 1537.34 2681.33 1537.41 Q2681.86 1537.45 2682.51 1537.57 L2682.53 1541.94 Z" fill="#000000" fill-rule="nonzero" fill-opacity="1" /><path clip-path="url(#clip260)" d="M2687 1537.96 L2691.26 1537.96 L2691.26 1563.89 L2687 1563.89 L2687 1537.96 M2687 1527.87 L2691.26 1527.87 L2691.26 1533.26 L2687 1533.26 L2687 1527.87 Z" fill="#000000" fill-rule="nonzero" fill-opacity="1" /><path clip-path="url(#clip260)" d="M2718.83 1538.96 L2718.83 1542.94 Q2717.02 1541.94 2715.19 1541.46 Q2713.39 1540.95 2711.53 1540.95 Q2707.39 1540.95 2705.1 1543.59 Q2702.81 1546.2 2702.81 1550.95 Q2702.81 1555.69 2705.1 1558.33 Q2707.39 1560.95 2711.53 1560.95 Q2713.39 1560.95 2715.19 1560.46 Q2717.02 1559.95 2718.83 1558.96 L2718.83 1562.89 Q2717.04 1563.73 2715.12 1564.14 Q2713.22 1564.56 2711.07 1564.56 Q2705.21 1564.56 2701.77 1560.88 Q2698.32 1557.2 2698.32 1550.95 Q2698.32 1544.61 2701.79 1540.97 Q2705.28 1537.34 2711.35 1537.34 Q2713.32 1537.34 2715.19 1537.75 Q2717.07 1538.15 2718.83 1538.96 Z" fill="#000000" fill-rule="nonzero" fill-opacity="1" /><path clip-path="url(#clip260)" d="M2738.02 1550.86 Q2732.85 1550.86 2730.86 1552.04 Q2728.87 1553.22 2728.87 1556.06 Q2728.87 1558.33 2730.35 1559.67 Q2731.86 1560.99 2734.43 1560.99 Q2737.97 1560.99 2740.1 1558.49 Q2742.25 1555.97 2742.25 1551.8 L2742.25 1550.86 L2738.02 1550.86 M2746.51 1549.1 L2746.51 1563.89 L2742.25 1563.89 L2742.25 1559.95 Q2740.79 1562.31 2738.62 1563.45 Q2736.44 1564.56 2733.29 1564.56 Q2729.31 1564.56 2726.95 1562.34 Q2724.61 1560.09 2724.61 1556.34 Q2724.61 1551.97 2727.53 1549.74 Q2730.47 1547.52 2736.28 1547.52 L2742.25 1547.52 L2742.25 1547.11 Q2742.25 1544.17 2740.31 1542.57 Q2738.39 1540.95 2734.89 1540.95 Q2732.67 1540.95 2730.56 1541.48 Q2728.46 1542.01 2726.51 1543.08 L2726.51 1539.14 Q2728.85 1538.24 2731.05 1537.8 Q2733.25 1537.34 2735.33 1537.34 Q2740.95 1537.34 2743.73 1540.25 Q2746.51 1543.17 2746.51 1549.1 Z" fill="#000000" fill-rule="nonzero" fill-opacity="1" /><path clip-path="url(#clip260)" d="M2755.28 1527.87 L2759.54 1527.87 L2759.54 1563.89 L2755.28 1563.89 L2755.28 1527.87 Z" fill="#000000" fill-rule="nonzero" fill-opacity="1" /><path clip-path="url(#clip260)" d="M2793.76 1527.92 Q2790.65 1533.24 2789.15 1538.45 Q2787.64 1543.66 2787.64 1549 Q2787.64 1554.35 2789.15 1559.61 Q2790.68 1564.84 2793.76 1570.14 L2790.05 1570.14 Q2786.58 1564.7 2784.84 1559.44 Q2783.13 1554.19 2783.13 1549 Q2783.13 1543.84 2784.84 1538.61 Q2786.56 1533.38 2790.05 1527.92 L2793.76 1527.92 Z" fill="#000000" fill-rule="nonzero" fill-opacity="1" /><path clip-path="url(#clip260)" d="M2813.8 1550.86 Q2808.64 1550.86 2806.65 1552.04 Q2804.66 1553.22 2804.66 1556.06 Q2804.66 1558.33 2806.14 1559.67 Q2807.64 1560.99 2810.21 1560.99 Q2813.76 1560.99 2815.89 1558.49 Q2818.04 1555.97 2818.04 1551.8 L2818.04 1550.86 L2813.8 1550.86 M2822.3 1549.1 L2822.3 1563.89 L2818.04 1563.89 L2818.04 1559.95 Q2816.58 1562.31 2814.4 1563.45 Q2812.23 1564.56 2809.08 1564.56 Q2805.1 1564.56 2802.74 1562.34 Q2800.4 1560.09 2800.4 1556.34 Q2800.4 1551.97 2803.32 1549.74 Q2806.26 1547.52 2812.07 1547.52 L2818.04 1547.52 L2818.04 1547.11 Q2818.04 1544.17 2816.09 1542.57 Q2814.17 1540.95 2810.68 1540.95 Q2808.45 1540.95 2806.35 1541.48 Q2804.24 1542.01 2802.3 1543.08 L2802.3 1539.14 Q2804.64 1538.24 2806.83 1537.8 Q2809.03 1537.34 2811.12 1537.34 Q2816.74 1537.34 2819.52 1540.25 Q2822.3 1543.17 2822.3 1549.1 Z" fill="#000000" fill-rule="nonzero" fill-opacity="1" /><path clip-path="url(#clip260)" d="M2830.63 1553.66 L2830.63 1537.96 L2834.89 1537.96 L2834.89 1553.49 Q2834.89 1557.17 2836.32 1559.03 Q2837.76 1560.86 2840.63 1560.86 Q2844.08 1560.86 2846.07 1558.66 Q2848.08 1556.46 2848.08 1552.66 L2848.08 1537.96 L2852.34 1537.96 L2852.34 1563.89 L2848.08 1563.89 L2848.08 1559.91 Q2846.53 1562.27 2844.47 1563.42 Q2842.44 1564.56 2839.73 1564.56 Q2835.26 1564.56 2832.95 1561.78 Q2830.63 1559 2830.63 1553.66 M2841.35 1537.34 L2841.35 1537.34 Z" fill="#000000" fill-rule="nonzero" fill-opacity="1" /><path clip-path="url(#clip260)" d="M2865.33 1530.6 L2865.33 1537.96 L2874.1 1537.96 L2874.1 1541.27 L2865.33 1541.27 L2865.33 1555.35 Q2865.33 1558.52 2866.19 1559.42 Q2867.07 1560.32 2869.73 1560.32 L2874.1 1560.32 L2874.1 1563.89 L2869.73 1563.89 Q2864.8 1563.89 2862.92 1562.06 Q2861.05 1560.21 2861.05 1555.35 L2861.05 1541.27 L2857.92 1541.27 L2857.92 1537.96 L2861.05 1537.96 L2861.05 1530.6 L2865.33 1530.6 Z" fill="#000000" fill-rule="nonzero" fill-opacity="1" /><path clip-path="url(#clip260)" d="M2889.75 1540.95 Q2886.32 1540.95 2884.33 1543.63 Q2882.34 1546.3 2882.34 1550.95 Q2882.34 1555.6 2884.31 1558.29 Q2886.3 1560.95 2889.75 1560.95 Q2893.15 1560.95 2895.14 1558.26 Q2897.13 1555.58 2897.13 1550.95 Q2897.13 1546.34 2895.14 1543.66 Q2893.15 1540.95 2889.75 1540.95 M2889.75 1537.34 Q2895.31 1537.34 2898.48 1540.95 Q2901.65 1544.56 2901.65 1550.95 Q2901.65 1557.31 2898.48 1560.95 Q2895.31 1564.56 2889.75 1564.56 Q2884.17 1564.56 2881 1560.95 Q2877.85 1557.31 2877.85 1550.95 Q2877.85 1544.56 2881 1540.95 Q2884.17 1537.34 2889.75 1537.34 Z" fill="#000000" fill-rule="nonzero" fill-opacity="1" /><path clip-path="url(#clip260)" d="M2908.48 1558.01 L2913.36 1558.01 L2913.36 1563.89 L2908.48 1563.89 L2908.48 1558.01 Z" fill="#000000" fill-rule="nonzero" fill-opacity="1" /><path clip-path="url(#clip260)" d="M2955.07 1541.9 L2955.07 1527.87 L2959.33 1527.87 L2959.33 1563.89 L2955.07 1563.89 L2955.07 1560 Q2953.73 1562.31 2951.67 1563.45 Q2949.63 1564.56 2946.76 1564.56 Q2942.07 1564.56 2939.1 1560.81 Q2936.16 1557.06 2936.16 1550.95 Q2936.16 1544.84 2939.1 1541.09 Q2942.07 1537.34 2946.76 1537.34 Q2949.63 1537.34 2951.67 1538.47 Q2953.73 1539.58 2955.07 1541.9 M2940.56 1550.95 Q2940.56 1555.65 2942.48 1558.33 Q2944.43 1560.99 2947.81 1560.99 Q2951.19 1560.99 2953.13 1558.33 Q2955.07 1555.65 2955.07 1550.95 Q2955.07 1546.25 2953.13 1543.59 Q2951.19 1540.9 2947.81 1540.9 Q2944.43 1540.9 2942.48 1543.59 Q2940.56 1546.25 2940.56 1550.95 Z" fill="#000000" fill-rule="nonzero" fill-opacity="1" /><path clip-path="url(#clip260)" d="M2968.11 1537.96 L2972.37 1537.96 L2972.37 1563.89 L2968.11 1563.89 L2968.11 1537.96 M2968.11 1527.87 L2972.37 1527.87 L2972.37 1533.26 L2968.11 1533.26 L2968.11 1527.87 Z" fill="#000000" fill-rule="nonzero" fill-opacity="1" /><path clip-path="url(#clip260)" d="M2994.4 1527.87 L2994.4 1531.41 L2990.33 1531.41 Q2988.04 1531.41 2987.13 1532.34 Q2986.25 1533.26 2986.25 1535.67 L2986.25 1537.96 L2993.27 1537.96 L2993.27 1541.27 L2986.25 1541.27 L2986.25 1563.89 L2981.97 1563.89 L2981.97 1541.27 L2977.9 1541.27 L2977.9 1537.96 L2981.97 1537.96 L2981.97 1536.16 Q2981.97 1531.83 2983.99 1529.86 Q2986 1527.87 2990.37 1527.87 L2994.4 1527.87 Z" fill="#000000" fill-rule="nonzero" fill-opacity="1" /><path clip-path="url(#clip260)" d="M3011.09 1527.87 L3011.09 1531.41 L3007.02 1531.41 Q3004.73 1531.41 3003.82 1532.34 Q3002.94 1533.26 3002.94 1535.67 L3002.94 1537.96 L3009.96 1537.96 L3009.96 1541.27 L3002.94 1541.27 L3002.94 1563.89 L2998.66 1563.89 L2998.66 1541.27 L2994.59 1541.27 L2994.59 1537.96 L2998.66 1537.96 L2998.66 1536.16 Q2998.66 1531.83 3000.68 1529.86 Q3002.69 1527.87 3007.06 1527.87 L3011.09 1527.87 Z" fill="#000000" fill-rule="nonzero" fill-opacity="1" /><path clip-path="url(#clip260)" d="M3011.81 1558.01 L3016.69 1558.01 L3016.69 1563.89 L3011.81 1563.89 L3011.81 1558.01 Z" fill="#000000" fill-rule="nonzero" fill-opacity="1" /><path clip-path="url(#clip260)" d="M3025.61 1527.92 L3029.31 1527.92 Q3032.78 1533.38 3034.5 1538.61 Q3036.23 1543.84 3036.23 1549 Q3036.23 1554.19 3034.5 1559.44 Q3032.78 1564.7 3029.31 1570.14 L3025.61 1570.14 Q3028.68 1564.84 3030.19 1559.61 Q3031.72 1554.35 3031.72 1549 Q3031.72 1543.66 3030.19 1538.45 Q3028.68 1533.24 3025.61 1527.92 Z" fill="#000000" fill-rule="nonzero" fill-opacity="1" /><polyline clip-path="url(#clip260)" style="stroke:#000000; stroke-linecap:round; stroke-linejoin:round; stroke-width:4; stroke-opacity:1; fill:none" points="364.203,1495.09 364.203,47.2441 "/>
<polyline clip-path="url(#clip260)" style="stroke:#000000; stroke-linecap:round; stroke-linejoin:round; stroke-width:4; stroke-opacity:1; fill:none" points="364.203,1380.09 383.101,1380.09 "/>
<polyline clip-path="url(#clip260)" style="stroke:#000000; stroke-linecap:round; stroke-linejoin:round; stroke-width:4; stroke-opacity:1; fill:none" points="364.203,1077.89 383.101,1077.89 "/>
<polyline clip-path="url(#clip260)" style="stroke:#000000; stroke-linecap:round; stroke-linejoin:round; stroke-width:4; stroke-opacity:1; fill:none" points="364.203,775.682 383.101,775.682 "/>
<polyline clip-path="url(#clip260)" style="stroke:#000000; stroke-linecap:round; stroke-linejoin:round; stroke-width:4; stroke-opacity:1; fill:none" points="364.203,473.478 383.101,473.478 "/>
<polyline clip-path="url(#clip260)" style="stroke:#000000; stroke-linecap:round; stroke-linejoin:round; stroke-width:4; stroke-opacity:1; fill:none" points="364.203,171.274 383.101,171.274 "/>
<path clip-path="url(#clip260)" d="M98.3802 1369.26 L120.602 1369.26 L120.602 1371.25 L108.056 1403.82 L103.172 1403.82 L114.977 1373.19 L98.3802 1373.19 L98.3802 1369.26 Z" fill="#000000" fill-rule="nonzero" fill-opacity="1" /><path clip-path="url(#clip260)" d="M129.723 1397.94 L134.607 1397.94 L134.607 1403.82 L129.723 1403.82 L129.723 1397.94 Z" fill="#000000" fill-rule="nonzero" fill-opacity="1" /><path clip-path="url(#clip260)" d="M158.959 1385.18 Q162.315 1385.9 164.19 1388.17 Q166.088 1390.44 166.088 1393.77 Q166.088 1398.89 162.57 1401.69 Q159.051 1404.49 152.57 1404.49 Q150.394 1404.49 148.079 1404.05 Q145.787 1403.63 143.334 1402.78 L143.334 1398.26 Q145.278 1399.4 147.593 1399.98 Q149.908 1400.55 152.431 1400.55 Q156.829 1400.55 159.121 1398.82 Q161.435 1397.08 161.435 1393.77 Q161.435 1390.72 159.283 1389 Q157.153 1387.27 153.334 1387.27 L149.306 1387.27 L149.306 1383.42 L153.519 1383.42 Q156.968 1383.42 158.797 1382.06 Q160.625 1380.67 160.625 1378.08 Q160.625 1375.42 158.727 1374 Q156.852 1372.57 153.334 1372.57 Q151.412 1372.57 149.213 1372.98 Q147.014 1373.4 144.375 1374.28 L144.375 1370.11 Q147.037 1369.37 149.352 1369 Q151.69 1368.63 153.75 1368.63 Q159.074 1368.63 162.176 1371.06 Q165.278 1373.47 165.278 1377.59 Q165.278 1380.46 163.634 1382.45 Q161.991 1384.42 158.959 1385.18 Z" fill="#000000" fill-rule="nonzero" fill-opacity="1" /><path clip-path="url(#clip260)" d="M184.954 1372.34 Q181.343 1372.34 179.514 1375.9 Q177.708 1379.44 177.708 1386.57 Q177.708 1393.68 179.514 1397.24 Q181.343 1400.79 184.954 1400.79 Q188.588 1400.79 190.394 1397.24 Q192.222 1393.68 192.222 1386.57 Q192.222 1379.44 190.394 1375.9 Q188.588 1372.34 184.954 1372.34 M184.954 1368.63 Q190.764 1368.63 193.819 1373.24 Q196.898 1377.82 196.898 1386.57 Q196.898 1395.3 193.819 1399.91 Q190.764 1404.49 184.954 1404.49 Q179.144 1404.49 176.065 1399.91 Q173.009 1395.3 173.009 1386.57 Q173.009 1377.82 176.065 1373.24 Q179.144 1368.63 184.954 1368.63 Z" fill="#000000" fill-rule="nonzero" fill-opacity="1" /><path clip-path="url(#clip260)" d="M233.287 1378.36 L222.708 1388.98 L233.287 1399.56 L230.532 1402.36 L219.907 1391.73 L209.282 1402.36 L206.551 1399.56 L217.106 1388.98 L206.551 1378.36 L209.282 1375.55 L219.907 1386.18 L230.532 1375.55 L233.287 1378.36 Z" fill="#000000" fill-rule="nonzero" fill-opacity="1" /><path clip-path="url(#clip260)" d="M245.648 1399.88 L253.287 1399.88 L253.287 1373.52 L244.977 1375.18 L244.977 1370.92 L253.24 1369.26 L257.916 1369.26 L257.916 1399.88 L265.555 1399.88 L265.555 1403.82 L245.648 1403.82 L245.648 1399.88 Z" fill="#000000" fill-rule="nonzero" fill-opacity="1" /><path clip-path="url(#clip260)" d="M285 1372.34 Q281.388 1372.34 279.56 1375.9 Q277.754 1379.44 277.754 1386.57 Q277.754 1393.68 279.56 1397.24 Q281.388 1400.79 285 1400.79 Q288.634 1400.79 290.439 1397.24 Q292.268 1393.68 292.268 1386.57 Q292.268 1379.44 290.439 1375.9 Q288.634 1372.34 285 1372.34 M285 1368.63 Q290.81 1368.63 293.865 1373.24 Q296.944 1377.82 296.944 1386.57 Q296.944 1395.3 293.865 1399.91 Q290.81 1404.49 285 1404.49 Q279.189 1404.49 276.111 1399.91 Q273.055 1395.3 273.055 1386.57 Q273.055 1377.82 276.111 1373.24 Q279.189 1368.63 285 1368.63 Z" fill="#000000" fill-rule="nonzero" fill-opacity="1" /><path clip-path="url(#clip260)" d="M306.573 1363.07 Q303.865 1363.07 302.304 1364.52 Q300.762 1365.97 300.762 1368.51 Q300.762 1371.05 302.304 1372.5 Q303.865 1373.94 306.573 1373.94 Q309.282 1373.94 310.843 1372.5 Q312.404 1371.03 312.404 1368.51 Q312.404 1365.97 310.843 1364.52 Q309.301 1363.07 306.573 1363.07 M302.774 1361.46 Q300.329 1360.85 298.956 1359.18 Q297.602 1357.51 297.602 1355.1 Q297.602 1351.73 299.991 1349.78 Q302.398 1347.82 306.573 1347.82 Q310.768 1347.82 313.156 1349.78 Q315.545 1351.73 315.545 1355.1 Q315.545 1357.51 314.172 1359.18 Q312.818 1360.85 310.391 1361.46 Q313.137 1362.09 314.661 1363.96 Q316.203 1365.82 316.203 1368.51 Q316.203 1372.59 313.702 1374.77 Q311.219 1376.95 306.573 1376.95 Q301.928 1376.95 299.427 1374.77 Q296.944 1372.59 296.944 1368.51 Q296.944 1365.82 298.486 1363.96 Q300.028 1362.09 302.774 1361.46 M301.383 1355.46 Q301.383 1357.64 302.737 1358.86 Q304.11 1360.08 306.573 1360.08 Q309.018 1360.08 310.391 1358.86 Q311.783 1357.64 311.783 1355.46 Q311.783 1353.27 310.391 1352.05 Q309.018 1350.83 306.573 1350.83 Q304.11 1350.83 302.737 1352.05 Q301.383 1353.27 301.383 1355.46 Z" fill="#000000" fill-rule="nonzero" fill-opacity="1" /><path clip-path="url(#clip260)" d="M98.3802 1067.05 L120.602 1067.05 L120.602 1069.04 L108.056 1101.61 L103.172 1101.61 L114.977 1070.99 L98.3802 1070.99 L98.3802 1067.05 Z" fill="#000000" fill-rule="nonzero" fill-opacity="1" /><path clip-path="url(#clip260)" d="M129.723 1095.73 L134.607 1095.73 L134.607 1101.61 L129.723 1101.61 L129.723 1095.73 Z" fill="#000000" fill-rule="nonzero" fill-opacity="1" /><path clip-path="url(#clip260)" d="M157.639 1071.13 L145.834 1089.58 L157.639 1089.58 L157.639 1071.13 M156.412 1067.05 L162.292 1067.05 L162.292 1089.58 L167.222 1089.58 L167.222 1093.47 L162.292 1093.47 L162.292 1101.61 L157.639 1101.61 L157.639 1093.47 L142.037 1093.47 L142.037 1088.95 L156.412 1067.05 Z" fill="#000000" fill-rule="nonzero" fill-opacity="1" /><path clip-path="url(#clip260)" d="M184.954 1070.13 Q181.343 1070.13 179.514 1073.7 Q177.708 1077.24 177.708 1084.37 Q177.708 1091.48 179.514 1095.04 Q181.343 1098.58 184.954 1098.58 Q188.588 1098.58 190.394 1095.04 Q192.222 1091.48 192.222 1084.37 Q192.222 1077.24 190.394 1073.7 Q188.588 1070.13 184.954 1070.13 M184.954 1066.43 Q190.764 1066.43 193.819 1071.04 Q196.898 1075.62 196.898 1084.37 Q196.898 1093.1 193.819 1097.7 Q190.764 1102.29 184.954 1102.29 Q179.144 1102.29 176.065 1097.7 Q173.009 1093.1 173.009 1084.37 Q173.009 1075.62 176.065 1071.04 Q179.144 1066.43 184.954 1066.43 Z" fill="#000000" fill-rule="nonzero" fill-opacity="1" /><path clip-path="url(#clip260)" d="M233.287 1076.15 L222.708 1086.78 L233.287 1097.35 L230.532 1100.16 L219.907 1089.53 L209.282 1100.16 L206.551 1097.35 L217.106 1086.78 L206.551 1076.15 L209.282 1073.35 L219.907 1083.98 L230.532 1073.35 L233.287 1076.15 Z" fill="#000000" fill-rule="nonzero" fill-opacity="1" /><path clip-path="url(#clip260)" d="M245.648 1097.68 L253.287 1097.68 L253.287 1071.31 L244.977 1072.98 L244.977 1068.72 L253.24 1067.05 L257.916 1067.05 L257.916 1097.68 L265.555 1097.68 L265.555 1101.61 L245.648 1101.61 L245.648 1097.68 Z" fill="#000000" fill-rule="nonzero" fill-opacity="1" /><path clip-path="url(#clip260)" d="M285 1070.13 Q281.388 1070.13 279.56 1073.7 Q277.754 1077.24 277.754 1084.37 Q277.754 1091.48 279.56 1095.04 Q281.388 1098.58 285 1098.58 Q288.634 1098.58 290.439 1095.04 Q292.268 1091.48 292.268 1084.37 Q292.268 1077.24 290.439 1073.7 Q288.634 1070.13 285 1070.13 M285 1066.43 Q290.81 1066.43 293.865 1071.04 Q296.944 1075.62 296.944 1084.37 Q296.944 1093.1 293.865 1097.7 Q290.81 1102.29 285 1102.29 Q279.189 1102.29 276.111 1097.7 Q273.055 1093.1 273.055 1084.37 Q273.055 1075.62 276.111 1071.04 Q279.189 1066.43 285 1066.43 Z" fill="#000000" fill-rule="nonzero" fill-opacity="1" /><path clip-path="url(#clip260)" d="M306.573 1060.87 Q303.865 1060.87 302.304 1062.32 Q300.762 1063.77 300.762 1066.3 Q300.762 1068.84 302.304 1070.29 Q303.865 1071.74 306.573 1071.74 Q309.282 1071.74 310.843 1070.29 Q312.404 1068.82 312.404 1066.3 Q312.404 1063.77 310.843 1062.32 Q309.301 1060.87 306.573 1060.87 M302.774 1059.25 Q300.329 1058.65 298.956 1056.98 Q297.602 1055.3 297.602 1052.89 Q297.602 1049.53 299.991 1047.57 Q302.398 1045.62 306.573 1045.62 Q310.768 1045.62 313.156 1047.57 Q315.545 1049.53 315.545 1052.89 Q315.545 1055.3 314.172 1056.98 Q312.818 1058.65 310.391 1059.25 Q313.137 1059.89 314.661 1061.75 Q316.203 1063.61 316.203 1066.3 Q316.203 1070.39 313.702 1072.57 Q311.219 1074.75 306.573 1074.75 Q301.928 1074.75 299.427 1072.57 Q296.944 1070.39 296.944 1066.3 Q296.944 1063.61 298.486 1061.75 Q300.028 1059.89 302.774 1059.25 M301.383 1053.25 Q301.383 1055.43 302.737 1056.66 Q304.11 1057.88 306.573 1057.88 Q309.018 1057.88 310.391 1056.66 Q311.783 1055.43 311.783 1053.25 Q311.783 1051.07 310.391 1049.85 Q309.018 1048.63 306.573 1048.63 Q304.11 1048.63 302.737 1049.85 Q301.383 1051.07 301.383 1053.25 Z" fill="#000000" fill-rule="nonzero" fill-opacity="1" /><path clip-path="url(#clip260)" d="M98.3802 764.85 L120.602 764.85 L120.602 766.841 L108.056 799.41 L103.172 799.41 L114.977 768.785 L98.3802 768.785 L98.3802 764.85 Z" fill="#000000" fill-rule="nonzero" fill-opacity="1" /><path clip-path="url(#clip260)" d="M129.723 793.53 L134.607 793.53 L134.607 799.41 L129.723 799.41 L129.723 793.53 Z" fill="#000000" fill-rule="nonzero" fill-opacity="1" /><path clip-path="url(#clip260)" d="M144.838 764.85 L163.195 764.85 L163.195 768.785 L149.121 768.785 L149.121 777.257 Q150.139 776.91 151.158 776.748 Q152.176 776.563 153.195 776.563 Q158.982 776.563 162.361 779.734 Q165.741 782.905 165.741 788.322 Q165.741 793.901 162.269 797.003 Q158.797 800.081 152.477 800.081 Q150.301 800.081 148.033 799.711 Q145.787 799.341 143.38 798.6 L143.38 793.901 Q145.463 795.035 147.685 795.591 Q149.908 796.146 152.384 796.146 Q156.389 796.146 158.727 794.04 Q161.065 791.933 161.065 788.322 Q161.065 784.711 158.727 782.605 Q156.389 780.498 152.384 780.498 Q150.51 780.498 148.635 780.915 Q146.783 781.331 144.838 782.211 L144.838 764.85 Z" fill="#000000" fill-rule="nonzero" fill-opacity="1" /><path clip-path="url(#clip260)" d="M184.954 767.929 Q181.343 767.929 179.514 771.494 Q177.708 775.035 177.708 782.165 Q177.708 789.271 179.514 792.836 Q181.343 796.378 184.954 796.378 Q188.588 796.378 190.394 792.836 Q192.222 789.271 192.222 782.165 Q192.222 775.035 190.394 771.494 Q188.588 767.929 184.954 767.929 M184.954 764.225 Q190.764 764.225 193.819 768.831 Q196.898 773.415 196.898 782.165 Q196.898 790.892 193.819 795.498 Q190.764 800.081 184.954 800.081 Q179.144 800.081 176.065 795.498 Q173.009 790.892 173.009 782.165 Q173.009 773.415 176.065 768.831 Q179.144 764.225 184.954 764.225 Z" fill="#000000" fill-rule="nonzero" fill-opacity="1" /><path clip-path="url(#clip260)" d="M233.287 773.947 L222.708 784.572 L233.287 795.151 L230.532 797.952 L219.907 787.327 L209.282 797.952 L206.551 795.151 L217.106 784.572 L206.551 773.947 L209.282 771.146 L219.907 781.771 L230.532 771.146 L233.287 773.947 Z" fill="#000000" fill-rule="nonzero" fill-opacity="1" /><path clip-path="url(#clip260)" d="M245.648 795.475 L253.287 795.475 L253.287 769.109 L244.977 770.776 L244.977 766.517 L253.24 764.85 L257.916 764.85 L257.916 795.475 L265.555 795.475 L265.555 799.41 L245.648 799.41 L245.648 795.475 Z" fill="#000000" fill-rule="nonzero" fill-opacity="1" /><path clip-path="url(#clip260)" d="M285 767.929 Q281.388 767.929 279.56 771.494 Q277.754 775.035 277.754 782.165 Q277.754 789.271 279.56 792.836 Q281.388 796.378 285 796.378 Q288.634 796.378 290.439 792.836 Q292.268 789.271 292.268 782.165 Q292.268 775.035 290.439 771.494 Q288.634 767.929 285 767.929 M285 764.225 Q290.81 764.225 293.865 768.831 Q296.944 773.415 296.944 782.165 Q296.944 790.892 293.865 795.498 Q290.81 800.081 285 800.081 Q279.189 800.081 276.111 795.498 Q273.055 790.892 273.055 782.165 Q273.055 773.415 276.111 768.831 Q279.189 764.225 285 764.225 Z" fill="#000000" fill-rule="nonzero" fill-opacity="1" /><path clip-path="url(#clip260)" d="M306.573 758.665 Q303.865 758.665 302.304 760.113 Q300.762 761.561 300.762 764.1 Q300.762 766.639 302.304 768.088 Q303.865 769.536 306.573 769.536 Q309.282 769.536 310.843 768.088 Q312.404 766.621 312.404 764.1 Q312.404 761.561 310.843 760.113 Q309.301 758.665 306.573 758.665 M302.774 757.047 Q300.329 756.446 298.956 754.772 Q297.602 753.098 297.602 750.69 Q297.602 747.324 299.991 745.368 Q302.398 743.412 306.573 743.412 Q310.768 743.412 313.156 745.368 Q315.545 747.324 315.545 750.69 Q315.545 753.098 314.172 754.772 Q312.818 756.446 310.391 757.047 Q313.137 757.687 314.661 759.549 Q316.203 761.411 316.203 764.1 Q316.203 768.182 313.702 770.363 Q311.219 772.545 306.573 772.545 Q301.928 772.545 299.427 770.363 Q296.944 768.182 296.944 764.1 Q296.944 761.411 298.486 759.549 Q300.028 757.687 302.774 757.047 M301.383 751.048 Q301.383 753.229 302.737 754.452 Q304.11 755.674 306.573 755.674 Q309.018 755.674 310.391 754.452 Q311.783 753.229 311.783 751.048 Q311.783 748.866 310.391 747.644 Q309.018 746.421 306.573 746.421 Q304.11 746.421 302.737 747.644 Q301.383 748.866 301.383 751.048 Z" fill="#000000" fill-rule="nonzero" fill-opacity="1" /><path clip-path="url(#clip260)" d="M98.3802 462.646 L120.602 462.646 L120.602 464.637 L108.056 497.206 L103.172 497.206 L114.977 466.581 L98.3802 466.581 L98.3802 462.646 Z" fill="#000000" fill-rule="nonzero" fill-opacity="1" /><path clip-path="url(#clip260)" d="M129.723 491.326 L134.607 491.326 L134.607 497.206 L129.723 497.206 L129.723 491.326 Z" fill="#000000" fill-rule="nonzero" fill-opacity="1" /><path clip-path="url(#clip260)" d="M155.371 478.063 Q152.222 478.063 150.371 480.215 Q148.542 482.368 148.542 486.118 Q148.542 489.845 150.371 492.021 Q152.222 494.174 155.371 494.174 Q158.519 494.174 160.347 492.021 Q162.199 489.845 162.199 486.118 Q162.199 482.368 160.347 480.215 Q158.519 478.063 155.371 478.063 M164.653 463.41 L164.653 467.669 Q162.894 466.836 161.088 466.396 Q159.306 465.956 157.547 465.956 Q152.917 465.956 150.463 469.081 Q148.033 472.206 147.685 478.526 Q149.051 476.512 151.111 475.447 Q153.172 474.359 155.648 474.359 Q160.857 474.359 163.866 477.53 Q166.898 480.678 166.898 486.118 Q166.898 491.442 163.75 494.66 Q160.602 497.877 155.371 497.877 Q149.375 497.877 146.204 493.294 Q143.033 488.688 143.033 479.961 Q143.033 471.766 146.922 466.905 Q150.81 462.021 157.361 462.021 Q159.121 462.021 160.903 462.368 Q162.709 462.715 164.653 463.41 Z" fill="#000000" fill-rule="nonzero" fill-opacity="1" /><path clip-path="url(#clip260)" d="M184.954 465.725 Q181.343 465.725 179.514 469.29 Q177.708 472.831 177.708 479.961 Q177.708 487.067 179.514 490.632 Q181.343 494.174 184.954 494.174 Q188.588 494.174 190.394 490.632 Q192.222 487.067 192.222 479.961 Q192.222 472.831 190.394 469.29 Q188.588 465.725 184.954 465.725 M184.954 462.021 Q190.764 462.021 193.819 466.628 Q196.898 471.211 196.898 479.961 Q196.898 488.688 193.819 493.294 Q190.764 497.877 184.954 497.877 Q179.144 497.877 176.065 493.294 Q173.009 488.688 173.009 479.961 Q173.009 471.211 176.065 466.628 Q179.144 462.021 184.954 462.021 Z" fill="#000000" fill-rule="nonzero" fill-opacity="1" /><path clip-path="url(#clip260)" d="M233.287 471.743 L222.708 482.368 L233.287 492.947 L230.532 495.748 L219.907 485.123 L209.282 495.748 L206.551 492.947 L217.106 482.368 L206.551 471.743 L209.282 468.942 L219.907 479.567 L230.532 468.942 L233.287 471.743 Z" fill="#000000" fill-rule="nonzero" fill-opacity="1" /><path clip-path="url(#clip260)" d="M245.648 493.271 L253.287 493.271 L253.287 466.905 L244.977 468.572 L244.977 464.313 L253.24 462.646 L257.916 462.646 L257.916 493.271 L265.555 493.271 L265.555 497.206 L245.648 497.206 L245.648 493.271 Z" fill="#000000" fill-rule="nonzero" fill-opacity="1" /><path clip-path="url(#clip260)" d="M285 465.725 Q281.388 465.725 279.56 469.29 Q277.754 472.831 277.754 479.961 Q277.754 487.067 279.56 490.632 Q281.388 494.174 285 494.174 Q288.634 494.174 290.439 490.632 Q292.268 487.067 292.268 479.961 Q292.268 472.831 290.439 469.29 Q288.634 465.725 285 465.725 M285 462.021 Q290.81 462.021 293.865 466.628 Q296.944 471.211 296.944 479.961 Q296.944 488.688 293.865 493.294 Q290.81 497.877 285 497.877 Q279.189 497.877 276.111 493.294 Q273.055 488.688 273.055 479.961 Q273.055 471.211 276.111 466.628 Q279.189 462.021 285 462.021 Z" fill="#000000" fill-rule="nonzero" fill-opacity="1" /><path clip-path="url(#clip260)" d="M306.573 456.461 Q303.865 456.461 302.304 457.909 Q300.762 459.357 300.762 461.896 Q300.762 464.435 302.304 465.884 Q303.865 467.332 306.573 467.332 Q309.282 467.332 310.843 465.884 Q312.404 464.417 312.404 461.896 Q312.404 459.357 310.843 457.909 Q309.301 456.461 306.573 456.461 M302.774 454.843 Q300.329 454.242 298.956 452.568 Q297.602 450.894 297.602 448.486 Q297.602 445.12 299.991 443.164 Q302.398 441.208 306.573 441.208 Q310.768 441.208 313.156 443.164 Q315.545 445.12 315.545 448.486 Q315.545 450.894 314.172 452.568 Q312.818 454.242 310.391 454.843 Q313.137 455.483 314.661 457.345 Q316.203 459.207 316.203 461.896 Q316.203 465.978 313.702 468.159 Q311.219 470.341 306.573 470.341 Q301.928 470.341 299.427 468.159 Q296.944 465.978 296.944 461.896 Q296.944 459.207 298.486 457.345 Q300.028 455.483 302.774 454.843 M301.383 448.844 Q301.383 451.025 302.737 452.248 Q304.11 453.47 306.573 453.47 Q309.018 453.47 310.391 452.248 Q311.783 451.025 311.783 448.844 Q311.783 446.662 310.391 445.44 Q309.018 444.217 306.573 444.217 Q304.11 444.217 302.737 445.44 Q301.383 446.662 301.383 448.844 Z" fill="#000000" fill-rule="nonzero" fill-opacity="1" /><path clip-path="url(#clip260)" d="M98.3802 160.442 L120.602 160.442 L120.602 162.433 L108.056 195.002 L103.172 195.002 L114.977 164.377 L98.3802 164.377 L98.3802 160.442 Z" fill="#000000" fill-rule="nonzero" fill-opacity="1" /><path clip-path="url(#clip260)" d="M129.723 189.122 L134.607 189.122 L134.607 195.002 L129.723 195.002 L129.723 189.122 Z" fill="#000000" fill-rule="nonzero" fill-opacity="1" /><path clip-path="url(#clip260)" d="M143.611 160.442 L165.833 160.442 L165.833 162.433 L153.287 195.002 L148.403 195.002 L160.209 164.377 L143.611 164.377 L143.611 160.442 Z" fill="#000000" fill-rule="nonzero" fill-opacity="1" /><path clip-path="url(#clip260)" d="M184.954 163.521 Q181.343 163.521 179.514 167.086 Q177.708 170.627 177.708 177.757 Q177.708 184.863 179.514 188.428 Q181.343 191.97 184.954 191.97 Q188.588 191.97 190.394 188.428 Q192.222 184.863 192.222 177.757 Q192.222 170.627 190.394 167.086 Q188.588 163.521 184.954 163.521 M184.954 159.817 Q190.764 159.817 193.819 164.424 Q196.898 169.007 196.898 177.757 Q196.898 186.484 193.819 191.09 Q190.764 195.673 184.954 195.673 Q179.144 195.673 176.065 191.09 Q173.009 186.484 173.009 177.757 Q173.009 169.007 176.065 164.424 Q179.144 159.817 184.954 159.817 Z" fill="#000000" fill-rule="nonzero" fill-opacity="1" /><path clip-path="url(#clip260)" d="M233.287 169.539 L222.708 180.164 L233.287 190.743 L230.532 193.544 L219.907 182.919 L209.282 193.544 L206.551 190.743 L217.106 180.164 L206.551 169.539 L209.282 166.738 L219.907 177.363 L230.532 166.738 L233.287 169.539 Z" fill="#000000" fill-rule="nonzero" fill-opacity="1" /><path clip-path="url(#clip260)" d="M245.648 191.067 L253.287 191.067 L253.287 164.701 L244.977 166.368 L244.977 162.109 L253.24 160.442 L257.916 160.442 L257.916 191.067 L265.555 191.067 L265.555 195.002 L245.648 195.002 L245.648 191.067 Z" fill="#000000" fill-rule="nonzero" fill-opacity="1" /><path clip-path="url(#clip260)" d="M285 163.521 Q281.388 163.521 279.56 167.086 Q277.754 170.627 277.754 177.757 Q277.754 184.863 279.56 188.428 Q281.388 191.97 285 191.97 Q288.634 191.97 290.439 188.428 Q292.268 184.863 292.268 177.757 Q292.268 170.627 290.439 167.086 Q288.634 163.521 285 163.521 M285 159.817 Q290.81 159.817 293.865 164.424 Q296.944 169.007 296.944 177.757 Q296.944 186.484 293.865 191.09 Q290.81 195.673 285 195.673 Q279.189 195.673 276.111 191.09 Q273.055 186.484 273.055 177.757 Q273.055 169.007 276.111 164.424 Q279.189 159.817 285 159.817 Z" fill="#000000" fill-rule="nonzero" fill-opacity="1" /><path clip-path="url(#clip260)" d="M306.573 154.257 Q303.865 154.257 302.304 155.705 Q300.762 157.153 300.762 159.692 Q300.762 162.231 302.304 163.68 Q303.865 165.128 306.573 165.128 Q309.282 165.128 310.843 163.68 Q312.404 162.213 312.404 159.692 Q312.404 157.153 310.843 155.705 Q309.301 154.257 306.573 154.257 M302.774 152.639 Q300.329 152.038 298.956 150.364 Q297.602 148.69 297.602 146.282 Q297.602 142.916 299.991 140.96 Q302.398 139.004 306.573 139.004 Q310.768 139.004 313.156 140.96 Q315.545 142.916 315.545 146.282 Q315.545 148.69 314.172 150.364 Q312.818 152.038 310.391 152.639 Q313.137 153.279 314.661 155.141 Q316.203 157.003 316.203 159.692 Q316.203 163.774 313.702 165.955 Q311.219 168.137 306.573 168.137 Q301.928 168.137 299.427 165.955 Q296.944 163.774 296.944 159.692 Q296.944 157.003 298.486 155.141 Q300.028 153.279 302.774 152.639 M301.383 146.64 Q301.383 148.822 302.737 150.044 Q304.11 151.267 306.573 151.267 Q309.018 151.267 310.391 150.044 Q311.783 148.822 311.783 146.64 Q311.783 144.458 310.391 143.236 Q309.018 142.013 306.573 142.013 Q304.11 142.013 302.737 143.236 Q301.383 144.458 301.383 146.64 Z" fill="#000000" fill-rule="nonzero" fill-opacity="1" /><path clip-path="url(#clip260)" d="M-9.64527 840.632 L0.4762 840.632 L0.4762 828.569 L5.02768 828.569 L5.02768 840.632 L24.3794 840.632 Q28.7399 840.632 29.9813 839.454 Q31.2226 838.245 31.2226 834.584 L31.2226 828.569 L36.1242 828.569 L36.1242 834.584 Q36.1242 841.364 33.6097 843.942 Q31.0634 846.52 24.3794 846.52 L5.02768 846.52 L5.02768 850.817 L0.4762 850.817 L0.4762 846.52 L-9.64527 846.52 L-9.64527 840.632 Z" fill="#000000" fill-rule="nonzero" fill-opacity="1" /><path clip-path="url(#clip260)" d="M-11.3958 789.738 L-11.3958 784.327 L42.1716 800.878 L42.1716 806.289 L-11.3958 789.738 Z" fill="#000000" fill-rule="nonzero" fill-opacity="1" /><path clip-path="url(#clip260)" d="M14.6081 727.831 L36.1242 727.831 L36.1242 733.688 L14.799 733.688 Q9.7383 733.688 7.22385 735.661 Q4.7094 737.635 4.7094 741.581 Q4.7094 746.324 7.73311 749.061 Q10.7568 751.798 15.9767 751.798 L36.1242 751.798 L36.1242 757.687 L0.4762 757.687 L0.4762 751.798 L6.01437 751.798 Q2.79968 749.698 1.20826 746.865 Q-0.38317 744 -0.38317 740.276 Q-0.38317 734.133 3.43625 730.982 Q7.22385 727.831 14.6081 727.831 Z" fill="#000000" fill-rule="nonzero" fill-opacity="1" /><path clip-path="url(#clip260)" d="M1.52654 693.425 L7.06471 693.425 Q5.79157 695.907 5.15499 698.581 Q4.51842 701.255 4.51842 704.119 Q4.51842 708.48 5.85522 710.676 Q7.19202 712.84 9.86562 712.84 Q11.9026 712.84 13.0803 711.281 Q14.2261 709.721 15.2765 705.01 L15.7221 703.005 Q17.0589 696.767 19.5097 694.157 Q21.9286 691.515 26.2891 691.515 Q31.2544 691.515 34.1508 695.462 Q37.0472 699.377 37.0472 706.252 Q37.0472 709.116 36.4743 712.235 Q35.9332 715.323 34.8192 718.76 L28.7718 718.76 Q30.4587 715.514 31.318 712.363 Q32.1456 709.212 32.1456 706.124 Q32.1456 701.987 30.7451 699.759 Q29.3129 697.531 26.7347 697.531 Q24.3476 697.531 23.0745 699.154 Q21.8013 700.745 20.6237 706.188 L20.1462 708.225 Q19.0004 713.668 16.6451 716.087 Q14.258 718.506 10.1202 718.506 Q5.09134 718.506 2.35408 714.941 Q-0.38317 711.376 -0.38317 704.819 Q-0.38317 701.573 0.0942579 698.708 Q0.571686 695.844 1.52654 693.425 Z" fill="#000000" fill-rule="nonzero" fill-opacity="1" /><path clip-path="url(#clip262)" d="M1004.97 1454.11 L1010.3 1442.73 L1014.95 1431.35 L1018.89 1419.97 L1022.12 1408.59 L1024.61 1397.21 L1026.38 1385.82 L1027.41 1374.44 L1027.73 1363.06 L1027.35 1351.68 L1026.3 1340.3 L1024.62 1328.92 L1022.34 1317.54 L1019.51 1306.16 L1016.18 1294.78 L1012.41 1283.39 L1008.24 1272.01 L1003.74 1260.63 L998.978 1249.25 L994.003 1237.87 L988.881 1226.49 L983.671 1215.11 L978.432 1203.73 L973.22 1192.35 L968.088 1180.96 L963.084 1169.58 L958.253 1158.2 L953.636 1146.82 L949.269 1135.44 L945.181 1124.06 L941.398 1112.68 L937.94 1101.3 L934.821 1089.92 L932.05 1078.53 L929.632 1067.15 L927.566 1055.77 L925.845 1044.39 L924.459 1033.01 L923.393 1021.63 L922.63 1010.25 L922.145 998.867 L921.914 987.486 L921.908 976.104 L922.095 964.723 L922.443 953.342 L922.915 941.961 L923.475 930.58 L924.086 919.199 L924.708 907.818 L925.303 896.437 L925.834 885.056 L926.262 873.674 L926.551 862.293 L926.665 850.912 L926.573 839.531 L926.243 828.15 L925.648 816.769 L924.763 805.388 L923.565 794.007 L922.039 782.626 L920.169 771.244 L917.947 759.863 L915.366 748.482 L912.427 737.101 L909.132 725.72 L905.488 714.339 L565.363 714.339 L561.719 725.72 L558.424 737.101 L555.485 748.482 L552.904 759.863 L550.682 771.244 L548.812 782.626 L547.286 794.007 L546.088 805.388 L545.203 816.769 L544.608 828.15 L544.278 839.531 L544.186 850.912 L544.3 862.293 L544.589 873.674 L545.017 885.056 L545.548 896.437 L546.143 907.818 L546.765 919.199 L547.376 930.58 L547.936 941.961 L548.408 953.342 L548.756 964.723 L548.943 976.104 L548.937 987.486 L548.706 998.867 L548.221 1010.25 L547.458 1021.63 L546.392 1033.01 L545.006 1044.39 L543.285 1055.77 L541.219 1067.15 L538.801 1078.53 L536.03 1089.92 L532.911 1101.3 L529.453 1112.68 L525.67 1124.06 L521.582 1135.44 L517.215 1146.82 L512.598 1158.2 L507.767 1169.58 L502.763 1180.96 L497.631 1192.35 L492.419 1203.73 L487.18 1215.11 L481.97 1226.49 L476.848 1237.87 L471.873 1249.25 L467.107 1260.63 L462.611 1272.01 L458.445 1283.39 L454.669 1294.78 L451.34 1306.16 L448.511 1317.54 L446.233 1328.92 L444.55 1340.3 L443.503 1351.68 L443.124 1363.06 L443.442 1374.44 L444.475 1385.82 L446.236 1397.21 L448.731 1408.59 L451.957 1419.97 L455.904 1431.35 L460.553 1442.73 L465.88 1454.11 L1004.97 1454.11  Z" fill="#009af9" fill-rule="evenodd" fill-opacity="1"/>
<polyline clip-path="url(#clip262)" style="stroke:#000000; stroke-linecap:round; stroke-linejoin:round; stroke-width:4; stroke-opacity:1; fill:none" points="1004.97,1454.11 1010.3,1442.73 1014.95,1431.35 1018.89,1419.97 1022.12,1408.59 1024.61,1397.21 1026.38,1385.82 1027.41,1374.44 1027.73,1363.06 1027.35,1351.68 1026.3,1340.3 1024.62,1328.92 1022.34,1317.54 1019.51,1306.16 1016.18,1294.78 1012.41,1283.39 1008.24,1272.01 1003.74,1260.63 998.978,1249.25 994.003,1237.87 988.881,1226.49 983.671,1215.11 978.432,1203.73 973.22,1192.35 968.088,1180.96 963.084,1169.58 958.253,1158.2 953.636,1146.82 949.269,1135.44 945.181,1124.06 941.398,1112.68 937.94,1101.3 934.821,1089.92 932.05,1078.53 929.632,1067.15 927.566,1055.77 925.845,1044.39 924.459,1033.01 923.393,1021.63 922.63,1010.25 922.145,998.867 921.914,987.486 921.908,976.104 922.095,964.723 922.443,953.342 922.915,941.961 923.475,930.58 924.086,919.199 924.708,907.818 925.303,896.437 925.834,885.056 926.262,873.674 926.551,862.293 926.665,850.912 926.573,839.531 926.243,828.15 925.648,816.769 924.763,805.388 923.565,794.007 922.039,782.626 920.169,771.244 917.947,759.863 915.366,748.482 912.427,737.101 909.132,725.72 905.488,714.339 565.363,714.339 561.719,725.72 558.424,737.101 555.485,748.482 552.904,759.863 550.682,771.244 548.812,782.626 547.286,794.007 546.088,805.388 545.203,816.769 544.608,828.15 544.278,839.531 544.186,850.912 544.3,862.293 544.589,873.674 545.017,885.056 545.548,896.437 546.143,907.818 546.765,919.199 547.376,930.58 547.936,941.961 548.408,953.342 548.756,964.723 548.943,976.104 548.937,987.486 548.706,998.867 548.221,1010.25 547.458,1021.63 546.392,1033.01 545.006,1044.39 543.285,1055.77 541.219,1067.15 538.801,1078.53 536.03,1089.92 532.911,1101.3 529.453,1112.68 525.67,1124.06 521.582,1135.44 517.215,1146.82 512.598,1158.2 507.767,1169.58 502.763,1180.96 497.631,1192.35 492.419,1203.73 487.18,1215.11 481.97,1226.49 476.848,1237.87 471.873,1249.25 467.107,1260.63 462.611,1272.01 458.445,1283.39 454.669,1294.78 451.34,1306.16 448.511,1317.54 446.233,1328.92 444.55,1340.3 443.503,1351.68 443.124,1363.06 443.442,1374.44 444.475,1385.82 446.236,1397.21 448.731,1408.59 451.957,1419.97 455.904,1431.35 460.553,1442.73 465.88,1454.11 1004.97,1454.11 "/>
<path clip-path="url(#clip262)" d="M2022.84 1050.98 L2035.04 1043.74 L2043.98 1036.5 L2049.29 1029.26 L2050.78 1022.02 L2048.39 1014.78 L2042.21 1007.54 L2032.5 1000.31 L2019.64 993.067 L2004.12 985.828 L1986.53 978.59 L1967.48 971.351 L1947.64 964.112 L1927.62 956.873 L1908.01 949.634 L1889.32 942.396 L1871.99 935.157 L1856.36 927.918 L1842.67 920.679 L1831.06 913.441 L1821.6 906.202 L1814.26 898.963 L1808.94 891.724 L1805.49 884.486 L1803.72 877.247 L1803.38 870.008 L1804.22 862.769 L1805.95 855.53 L1808.28 848.292 L1810.95 841.053 L1813.67 833.814 L1816.19 826.575 L1818.31 819.337 L1819.83 812.098 L1820.63 804.859 L1820.62 797.62 L1819.76 790.381 L1818.05 783.143 L1815.57 775.904 L1812.39 768.665 L1808.65 761.426 L1804.47 754.188 L1800.03 746.949 L1795.45 739.71 L1790.9 732.471 L1786.48 725.233 L1782.3 717.994 L1778.45 710.755 L1774.97 703.516 L1771.9 696.277 L1769.23 689.039 L1766.97 681.8 L1765.09 674.561 L1763.54 667.322 L1762.3 660.084 L1761.32 652.845 L1760.56 645.606 L1759.98 638.367 L1759.55 631.129 L1759.23 623.89 L1759 616.651 L1758.83 609.412 L1758.71 602.173 L1758.63 594.935 L1758.58 587.696 L1758.54 580.457 L1758.52 573.218 L1758.5 565.98 L1758.49 558.741 L1758.49 551.502 L1758.49 544.263 L1758.48 537.025 L1758.48 529.786 L1758.48 522.547 L1758.48 515.308 L1758.48 508.069 L1758.48 500.831 L1758.48 493.592 L1758.48 486.353 L1758.48 479.114 L1758.48 471.876 L1758.48 464.637 L1758.48 457.398 L1758.48 450.159 L1758.48 442.921 L1758.48 435.682 L1758.48 428.443 L1758.48 421.204 L1758.48 413.965 L1758.48 406.727 L1758.48 399.488 L1758.48 392.249 L1758.48 385.01 L1758.48 377.772 L1758.48 370.533 L1758.48 363.294 L1758.48 356.055 L1758.48 348.817 L1758.48 341.578 L1758.49 334.339 L1758.49 327.1 L1758.5 319.861 L1758.52 312.623 L1758.54 305.384 L1758.58 298.145 L1758.63 290.906 L1758.71 283.668 L1758.82 276.429 L1758.98 269.19 L1759.21 261.951 L1759.52 254.713 L1759.95 247.474 L1760.52 240.235 L1761.26 232.996 L1762.23 225.757 L1763.45 218.519 L1764.97 211.28 L1766.83 204.041 L1769.07 196.802 L1771.7 189.564 L1774.75 182.325 L1778.2 175.086 L1782.03 167.847 L1786.18 160.609 L1790.58 153.37 L1795.12 146.131 L1799.69 138.892 L1804.14 131.653 L1808.32 124.415 L1812.07 117.176 L1815.25 109.937 L1817.73 102.698 L1819.39 95.4596 L1820.18 88.2208 L1696.78 88.2208 L1697.56 95.4596 L1699.23 102.698 L1701.71 109.937 L1704.89 117.176 L1708.64 124.415 L1712.82 131.653 L1717.27 138.892 L1721.84 146.131 L1726.38 153.37 L1730.78 160.609 L1734.93 167.847 L1738.76 175.086 L1742.21 182.325 L1745.26 189.564 L1747.89 196.802 L1750.13 204.041 L1751.99 211.28 L1753.51 218.519 L1754.73 225.757 L1755.69 232.996 L1756.44 240.235 L1757.01 247.474 L1757.44 254.713 L1757.75 261.951 L1757.98 269.19 L1758.14 276.429 L1758.25 283.668 L1758.33 290.906 L1758.38 298.145 L1758.42 305.384 L1758.44 312.623 L1758.45 319.861 L1758.46 327.1 L1758.47 334.339 L1758.47 341.578 L1758.48 348.817 L1758.48 356.055 L1758.48 363.294 L1758.48 370.533 L1758.48 377.772 L1758.48 385.01 L1758.48 392.249 L1758.48 399.488 L1758.48 406.727 L1758.48 413.965 L1758.48 421.204 L1758.48 428.443 L1758.48 435.682 L1758.48 442.921 L1758.48 450.159 L1758.48 457.398 L1758.48 464.637 L1758.48 471.876 L1758.48 479.114 L1758.48 486.353 L1758.48 493.592 L1758.48 500.831 L1758.48 508.069 L1758.48 515.308 L1758.48 522.547 L1758.48 529.786 L1758.48 537.025 L1758.47 544.263 L1758.47 551.502 L1758.46 558.741 L1758.45 565.98 L1758.44 573.218 L1758.41 580.457 L1758.38 587.696 L1758.32 594.935 L1758.24 602.173 L1758.13 609.412 L1757.96 616.651 L1757.73 623.89 L1757.41 631.129 L1756.98 638.367 L1756.4 645.606 L1755.64 652.845 L1754.66 660.084 L1753.42 667.322 L1751.87 674.561 L1749.99 681.8 L1747.72 689.039 L1745.06 696.277 L1741.99 703.516 L1738.51 710.755 L1734.65 717.994 L1730.48 725.233 L1726.06 732.471 L1721.51 739.71 L1716.93 746.949 L1712.49 754.188 L1708.31 761.426 L1704.57 768.665 L1701.39 775.904 L1698.91 783.143 L1697.2 790.381 L1696.34 797.62 L1696.33 804.859 L1697.13 812.098 L1698.65 819.337 L1700.77 826.575 L1703.29 833.814 L1706.01 841.053 L1708.67 848.292 L1711.01 855.53 L1712.74 862.769 L1713.58 870.008 L1713.24 877.247 L1711.47 884.486 L1708.02 891.724 L1702.7 898.963 L1695.36 906.202 L1685.9 913.441 L1674.29 920.679 L1660.6 927.918 L1644.97 935.157 L1627.64 942.396 L1608.95 949.634 L1589.34 956.873 L1569.32 964.112 L1549.47 971.351 L1530.43 978.59 L1512.84 985.828 L1497.32 993.067 L1484.46 1000.31 L1474.75 1007.54 L1468.57 1014.78 L1466.18 1022.02 L1467.67 1029.26 L1472.98 1036.5 L1481.92 1043.74 L1494.12 1050.98 L2022.84 1050.98  Z" fill="#e26f46" fill-rule="evenodd" fill-opacity="1"/>
<polyline clip-path="url(#clip262)" style="stroke:#000000; stroke-linecap:round; stroke-linejoin:round; stroke-width:4; stroke-opacity:1; fill:none" points="2022.84,1050.98 2035.04,1043.74 2043.98,1036.5 2049.29,1029.26 2050.78,1022.02 2048.39,1014.78 2042.21,1007.54 2032.5,1000.31 2019.64,993.067 2004.12,985.828 1986.53,978.59 1967.48,971.351 1947.64,964.112 1927.62,956.873 1908.01,949.634 1889.32,942.396 1871.99,935.157 1856.36,927.918 1842.67,920.679 1831.06,913.441 1821.6,906.202 1814.26,898.963 1808.94,891.724 1805.49,884.486 1803.72,877.247 1803.38,870.008 1804.22,862.769 1805.95,855.53 1808.28,848.292 1810.95,841.053 1813.67,833.814 1816.19,826.575 1818.31,819.337 1819.83,812.098 1820.63,804.859 1820.62,797.62 1819.76,790.381 1818.05,783.143 1815.57,775.904 1812.39,768.665 1808.65,761.426 1804.47,754.188 1800.03,746.949 1795.45,739.71 1790.9,732.471 1786.48,725.233 1782.3,717.994 1778.45,710.755 1774.97,703.516 1771.9,696.277 1769.23,689.039 1766.97,681.8 1765.09,674.561 1763.54,667.322 1762.3,660.084 1761.32,652.845 1760.56,645.606 1759.98,638.367 1759.55,631.129 1759.23,623.89 1759,616.651 1758.83,609.412 1758.71,602.173 1758.63,594.935 1758.58,587.696 1758.54,580.457 1758.52,573.218 1758.5,565.98 1758.49,558.741 1758.49,551.502 1758.49,544.263 1758.48,537.025 1758.48,529.786 1758.48,522.547 1758.48,515.308 1758.48,508.069 1758.48,500.831 1758.48,493.592 1758.48,486.353 1758.48,479.114 1758.48,471.876 1758.48,464.637 1758.48,457.398 1758.48,450.159 1758.48,442.921 1758.48,435.682 1758.48,428.443 1758.48,421.204 1758.48,413.965 1758.48,406.727 1758.48,399.488 1758.48,392.249 1758.48,385.01 1758.48,377.772 1758.48,370.533 1758.48,363.294 1758.48,356.055 1758.48,348.817 1758.48,341.578 1758.49,334.339 1758.49,327.1 1758.5,319.861 1758.52,312.623 1758.54,305.384 1758.58,298.145 1758.63,290.906 1758.71,283.668 1758.82,276.429 1758.98,269.19 1759.21,261.951 1759.52,254.713 1759.95,247.474 1760.52,240.235 1761.26,232.996 1762.23,225.757 1763.45,218.519 1764.97,211.28 1766.83,204.041 1769.07,196.802 1771.7,189.564 1774.75,182.325 1778.2,175.086 1782.03,167.847 1786.18,160.609 1790.58,153.37 1795.12,146.131 1799.69,138.892 1804.14,131.653 1808.32,124.415 1812.07,117.176 1815.25,109.937 1817.73,102.698 1819.39,95.4596 1820.18,88.2208 1696.78,88.2208 1697.56,95.4596 1699.23,102.698 1701.71,109.937 1704.89,117.176 1708.64,124.415 1712.82,131.653 1717.27,138.892 1721.84,146.131 1726.38,153.37 1730.78,160.609 1734.93,167.847 1738.76,175.086 1742.21,182.325 1745.26,189.564 1747.89,196.802 1750.13,204.041 1751.99,211.28 1753.51,218.519 1754.73,225.757 1755.69,232.996 1756.44,240.235 1757.01,247.474 1757.44,254.713 1757.75,261.951 1757.98,269.19 1758.14,276.429 1758.25,283.668 1758.33,290.906 1758.38,298.145 1758.42,305.384 1758.44,312.623 1758.45,319.861 1758.46,327.1 1758.47,334.339 1758.47,341.578 1758.48,348.817 1758.48,356.055 1758.48,363.294 1758.48,370.533 1758.48,377.772 1758.48,385.01 1758.48,392.249 1758.48,399.488 1758.48,406.727 1758.48,413.965 1758.48,421.204 1758.48,428.443 1758.48,435.682 1758.48,442.921 1758.48,450.159 1758.48,457.398 1758.48,464.637 1758.48,471.876 1758.48,479.114 1758.48,486.353 1758.48,493.592 1758.48,500.831 1758.48,508.069 1758.48,515.308 1758.48,522.547 1758.48,529.786 1758.48,537.025 1758.47,544.263 1758.47,551.502 1758.46,558.741 1758.45,565.98 1758.44,573.218 1758.41,580.457 1758.38,587.696 1758.32,594.935 1758.24,602.173 1758.13,609.412 1757.96,616.651 1757.73,623.89 1757.41,631.129 1756.98,638.367 1756.4,645.606 1755.64,652.845 1754.66,660.084 1753.42,667.322 1751.87,674.561 1749.99,681.8 1747.72,689.039 1745.06,696.277 1741.99,703.516 1738.51,710.755 1734.65,717.994 1730.48,725.233 1726.06,732.471 1721.51,739.71 1716.93,746.949 1712.49,754.188 1708.31,761.426 1704.57,768.665 1701.39,775.904 1698.91,783.143 1697.2,790.381 1696.34,797.62 1696.33,804.859 1697.13,812.098 1698.65,819.337 1700.77,826.575 1703.29,833.814 1706.01,841.053 1708.67,848.292 1711.01,855.53 1712.74,862.769 1713.58,870.008 1713.24,877.247 1711.47,884.486 1708.02,891.724 1702.7,898.963 1695.36,906.202 1685.9,913.441 1674.29,920.679 1660.6,927.918 1644.97,935.157 1627.64,942.396 1608.95,949.634 1589.34,956.873 1569.32,964.112 1549.47,971.351 1530.43,978.59 1512.84,985.828 1497.32,993.067 1484.46,1000.31 1474.75,1007.54 1468.57,1014.78 1466.18,1022.02 1467.67,1029.26 1472.98,1036.5 1481.92,1043.74 1494.12,1050.98 2022.84,1050.98 "/>
<path clip-path="url(#clip262)" d="M2967.41 791.407 L2971.86 789.032 L2976.01 786.658 L2979.87 784.284 L2983.45 781.909 L2986.75 779.535 L2989.8 777.16 L2992.61 774.786 L2995.19 772.412 L2997.58 770.037 L2999.8 767.663 L3001.87 765.289 L3003.83 762.914 L3005.69 760.54 L3007.49 758.165 L3009.24 755.791 L3010.97 753.417 L3012.7 751.042 L3014.45 748.668 L3016.22 746.293 L3018.04 743.919 L3019.9 741.545 L3021.81 739.17 L3023.78 736.796 L3025.79 734.421 L3027.86 732.047 L3029.97 729.673 L3032.12 727.298 L3034.3 724.924 L3036.5 722.55 L3038.71 720.175 L3040.92 717.801 L3043.12 715.426 L3045.31 713.052 L3047.48 710.678 L3049.61 708.303 L3051.71 705.929 L3053.77 703.554 L3055.77 701.18 L3057.72 698.806 L3059.61 696.431 L3061.43 694.057 L3063.18 691.682 L3064.85 689.308 L3066.42 686.934 L3067.89 684.559 L3069.24 682.185 L3070.46 679.81 L3071.53 677.436 L3072.42 675.062 L3073.12 672.687 L3073.6 670.313 L3073.83 667.939 L3073.79 665.564 L3073.45 663.19 L3072.78 660.815 L3071.75 658.441 L3070.33 656.067 L3068.5 653.692 L3066.24 651.318 L3063.52 648.943 L3060.33 646.569 L3056.65 644.195 L3052.48 641.82 L3047.82 639.446 L3042.67 637.071 L3037.03 634.697 L3030.93 632.323 L2532.14 632.323 L2526.03 634.697 L2520.4 637.071 L2515.24 639.446 L2510.58 641.82 L2506.42 644.195 L2502.74 646.569 L2499.55 648.943 L2496.83 651.318 L2494.57 653.692 L2492.74 656.067 L2491.32 658.441 L2490.29 660.815 L2489.61 663.19 L2489.27 665.564 L2489.23 667.939 L2489.47 670.313 L2489.95 672.687 L2490.65 675.062 L2491.54 677.436 L2492.61 679.81 L2493.82 682.185 L2495.18 684.559 L2496.65 686.934 L2498.22 689.308 L2499.89 691.682 L2501.63 694.057 L2503.46 696.431 L2505.35 698.806 L2507.3 701.18 L2509.3 703.554 L2511.36 705.929 L2513.45 708.303 L2515.59 710.678 L2517.75 713.052 L2519.94 715.426 L2522.15 717.801 L2524.36 720.175 L2526.57 722.55 L2528.77 724.924 L2530.94 727.298 L2533.09 729.673 L2535.2 732.047 L2537.27 734.421 L2539.29 736.796 L2541.26 739.17 L2543.17 741.545 L2545.03 743.919 L2546.84 746.293 L2548.62 748.668 L2550.36 751.042 L2552.09 753.417 L2553.83 755.791 L2555.58 758.165 L2557.37 760.54 L2559.24 762.914 L2561.19 765.289 L2563.27 767.663 L2565.49 770.037 L2567.88 772.412 L2570.46 774.786 L2573.27 777.16 L2576.31 779.535 L2579.62 781.909 L2583.2 784.284 L2587.06 786.658 L2591.21 789.032 L2595.65 791.407 L2967.41 791.407  Z" fill="#3da44d" fill-rule="evenodd" fill-opacity="1"/>
<polyline clip-path="url(#clip262)" style="stroke:#000000; stroke-linecap:round; stroke-linejoin:round; stroke-width:4; stroke-opacity:1; fill:none" points="2967.41,791.407 2971.86,789.032 2976.01,786.658 2979.87,784.284 2983.45,781.909 2986.75,779.535 2989.8,777.16 2992.61,774.786 2995.19,772.412 2997.58,770.037 2999.8,767.663 3001.87,765.289 3003.83,762.914 3005.69,760.54 3007.49,758.165 3009.24,755.791 3010.97,753.417 3012.7,751.042 3014.45,748.668 3016.22,746.293 3018.04,743.919 3019.9,741.545 3021.81,739.17 3023.78,736.796 3025.79,734.421 3027.86,732.047 3029.97,729.673 3032.12,727.298 3034.3,724.924 3036.5,722.55 3038.71,720.175 3040.92,717.801 3043.12,715.426 3045.31,713.052 3047.48,710.678 3049.61,708.303 3051.71,705.929 3053.77,703.554 3055.77,701.18 3057.72,698.806 3059.61,696.431 3061.43,694.057 3063.18,691.682 3064.85,689.308 3066.42,686.934 3067.89,684.559 3069.24,682.185 3070.46,679.81 3071.53,677.436 3072.42,675.062 3073.12,672.687 3073.6,670.313 3073.83,667.939 3073.79,665.564 3073.45,663.19 3072.78,660.815 3071.75,658.441 3070.33,656.067 3068.5,653.692 3066.24,651.318 3063.52,648.943 3060.33,646.569 3056.65,644.195 3052.48,641.82 3047.82,639.446 3042.67,637.071 3037.03,634.697 3030.93,632.323 2532.14,632.323 2526.03,634.697 2520.4,637.071 2515.24,639.446 2510.58,641.82 2506.42,644.195 2502.74,646.569 2499.55,648.943 2496.83,651.318 2494.57,653.692 2492.74,656.067 2491.32,658.441 2490.29,660.815 2489.61,663.19 2489.27,665.564 2489.23,667.939 2489.47,670.313 2489.95,672.687 2490.65,675.062 2491.54,677.436 2492.61,679.81 2493.82,682.185 2495.18,684.559 2496.65,686.934 2498.22,689.308 2499.89,691.682 2501.63,694.057 2503.46,696.431 2505.35,698.806 2507.3,701.18 2509.3,703.554 2511.36,705.929 2513.45,708.303 2515.59,710.678 2517.75,713.052 2519.94,715.426 2522.15,717.801 2524.36,720.175 2526.57,722.55 2528.77,724.924 2530.94,727.298 2533.09,729.673 2535.2,732.047 2537.27,734.421 2539.29,736.796 2541.26,739.17 2543.17,741.545 2545.03,743.919 2546.84,746.293 2548.62,748.668 2550.36,751.042 2552.09,753.417 2553.83,755.791 2555.58,758.165 2557.37,760.54 2559.24,762.914 2561.19,765.289 2563.27,767.663 2565.49,770.037 2567.88,772.412 2570.46,774.786 2573.27,777.16 2576.31,779.535 2579.62,781.909 2583.2,784.284 2587.06,786.658 2591.21,789.032 2595.65,791.407 2967.41,791.407 "/>
</svg>
