<?xml version="1.0" encoding="utf-8"?>
<svg xmlns="http://www.w3.org/2000/svg" xmlns:xlink="http://www.w3.org/1999/xlink" width="800" height="400" viewBox="0 0 3200 1600">
<defs>
  <clipPath id="clip170">
    <rect x="0" y="0" width="3200" height="1600"/>
  </clipPath>
</defs>
<path clip-path="url(#clip170)" d="M0 1600 L3200 1600 L3200 0 L0 0  Z" fill="#ffffff" fill-rule="evenodd" fill-opacity="1"/>
<defs>
  <clipPath id="clip171">
    <rect x="640" y="0" width="2241" height="1600"/>
  </clipPath>
</defs>
<path clip-path="url(#clip170)" d="M364.733 1495.09 L3152.76 1495.09 L3152.76 47.2441 L364.733 47.2441  Z" fill="#ffffff" fill-rule="evenodd" fill-opacity="1"/>
<defs>
  <clipPath id="clip172">
    <rect x="364" y="47" width="2789" height="1449"/>
  </clipPath>
</defs>
<polyline clip-path="url(#clip172)" style="stroke:#000000; stroke-linecap:round; stroke-linejoin:round; stroke-width:2; stroke-opacity:0.1; fill:none" points="735.885,1495.09 735.885,47.2441 "/>
<polyline clip-path="url(#clip172)" style="stroke:#000000; stroke-linecap:round; stroke-linejoin:round; stroke-width:2; stroke-opacity:0.1; fill:none" points="1758.74,1495.09 1758.74,47.2441 "/>
<polyline clip-path="url(#clip172)" style="stroke:#000000; stroke-linecap:round; stroke-linejoin:round; stroke-width:2; stroke-opacity:0.1; fill:none" points="2781.6,1495.09 2781.6,47.2441 "/>
<polyline clip-path="url(#clip172)" style="stroke:#000000; stroke-linecap:round; stroke-linejoin:round; stroke-width:2; stroke-opacity:0.1; fill:none" points="364.733,1324.08 3152.76,1324.08 "/>
<polyline clip-path="url(#clip172)" style="stroke:#000000; stroke-linecap:round; stroke-linejoin:round; stroke-width:2; stroke-opacity:0.1; fill:none" points="364.733,1085.17 3152.76,1085.17 "/>
<polyline clip-path="url(#clip172)" style="stroke:#000000; stroke-linecap:round; stroke-linejoin:round; stroke-width:2; stroke-opacity:0.1; fill:none" points="364.733,846.257 3152.76,846.257 "/>
<polyline clip-path="url(#clip172)" style="stroke:#000000; stroke-linecap:round; stroke-linejoin:round; stroke-width:2; stroke-opacity:0.1; fill:none" points="364.733,607.343 3152.76,607.343 "/>
<polyline clip-path="url(#clip172)" style="stroke:#000000; stroke-linecap:round; stroke-linejoin:round; stroke-width:2; stroke-opacity:0.1; fill:none" points="364.733,368.429 3152.76,368.429 "/>
<polyline clip-path="url(#clip172)" style="stroke:#000000; stroke-linecap:round; stroke-linejoin:round; stroke-width:2; stroke-opacity:0.1; fill:none" points="364.733,129.516 3152.76,129.516 "/>
<polyline clip-path="url(#clip170)" style="stroke:#000000; stroke-linecap:round; stroke-linejoin:round; stroke-width:4; stroke-opacity:1; fill:none" points="364.733,1495.09 3152.76,1495.09 "/>
<polyline clip-path="url(#clip170)" style="stroke:#000000; stroke-linecap:round; stroke-linejoin:round; stroke-width:4; stroke-opacity:1; fill:none" points="735.885,1495.09 735.885,1476.19 "/>
<polyline clip-path="url(#clip170)" style="stroke:#000000; stroke-linecap:round; stroke-linejoin:round; stroke-width:4; stroke-opacity:1; fill:none" points="1758.74,1495.09 1758.74,1476.19 "/>
<polyline clip-path="url(#clip170)" style="stroke:#000000; stroke-linecap:round; stroke-linejoin:round; stroke-width:4; stroke-opacity:1; fill:none" points="2781.6,1495.09 2781.6,1476.19 "/>
<path clip-path="url(#clip170)" d="M545.619 1547.68 Q547.124 1548.19 548.536 1549.86 Q549.971 1551.53 551.406 1554.44 L556.152 1563.89 L551.129 1563.89 L546.707 1555.02 Q544.994 1551.55 543.374 1550.42 Q541.777 1549.28 538.999 1549.28 L533.906 1549.28 L533.906 1563.89 L529.231 1563.89 L529.231 1529.33 L539.786 1529.33 Q545.712 1529.33 548.629 1531.8 Q551.545 1534.28 551.545 1539.28 Q551.545 1542.55 550.017 1544.7 Q548.513 1546.85 545.619 1547.68 M533.906 1533.17 L533.906 1545.44 L539.786 1545.44 Q543.166 1545.44 544.879 1543.89 Q546.615 1542.31 546.615 1539.28 Q546.615 1536.25 544.879 1534.72 Q543.166 1533.17 539.786 1533.17 L533.906 1533.17 Z" fill="#000000" fill-rule="nonzero" fill-opacity="1" /><path clip-path="url(#clip170)" d="M562.17 1529.33 L582.031 1529.33 L582.031 1533.26 L566.846 1533.26 L566.846 1543.45 L580.55 1543.45 L580.55 1547.38 L566.846 1547.38 L566.846 1563.89 L562.17 1563.89 L562.17 1529.33 Z" fill="#000000" fill-rule="nonzero" fill-opacity="1" /><path clip-path="url(#clip170)" d="M589.439 1529.33 L594.114 1529.33 L594.114 1559.95 L610.943 1559.95 L610.943 1563.89 L589.439 1563.89 L589.439 1529.33 Z" fill="#000000" fill-rule="nonzero" fill-opacity="1" /><path clip-path="url(#clip170)" d="M612.957 1529.33 L617.656 1529.33 L617.656 1550.32 Q617.656 1555.88 619.67 1558.33 Q621.684 1560.76 626.198 1560.76 Q630.688 1560.76 632.702 1558.33 Q634.716 1555.88 634.716 1550.32 L634.716 1529.33 L639.415 1529.33 L639.415 1550.9 Q639.415 1557.66 636.059 1561.11 Q632.725 1564.56 626.198 1564.56 Q619.647 1564.56 616.29 1561.11 Q612.957 1557.66 612.957 1550.9 L612.957 1529.33 Z" fill="#000000" fill-rule="nonzero" fill-opacity="1" /><path clip-path="url(#clip170)" d="M648.188 1529.33 L668.049 1529.33 L668.049 1533.26 L652.864 1533.26 L652.864 1543.45 L666.568 1543.45 L666.568 1547.38 L652.864 1547.38 L652.864 1563.89 L648.188 1563.89 L648.188 1529.33 Z" fill="#000000" fill-rule="nonzero" fill-opacity="1" /><path clip-path="url(#clip170)" d="M682.702 1550.86 Q677.54 1550.86 675.549 1552.04 Q673.558 1553.22 673.558 1556.06 Q673.558 1558.33 675.04 1559.67 Q676.545 1560.99 679.114 1560.99 Q682.656 1560.99 684.785 1558.49 Q686.938 1555.97 686.938 1551.8 L686.938 1550.86 L682.702 1550.86 M691.197 1549.1 L691.197 1563.89 L686.938 1563.89 L686.938 1559.95 Q685.48 1562.31 683.304 1563.45 Q681.128 1564.56 677.98 1564.56 Q673.998 1564.56 671.637 1562.34 Q669.299 1560.09 669.299 1556.34 Q669.299 1551.97 672.216 1549.74 Q675.156 1547.52 680.966 1547.52 L686.938 1547.52 L686.938 1547.11 Q686.938 1544.17 684.994 1542.57 Q683.072 1540.95 679.577 1540.95 Q677.355 1540.95 675.248 1541.48 Q673.142 1542.01 671.197 1543.08 L671.197 1539.14 Q673.535 1538.24 675.734 1537.8 Q677.933 1537.34 680.017 1537.34 Q685.642 1537.34 688.42 1540.25 Q691.197 1543.17 691.197 1549.1 Z" fill="#000000" fill-rule="nonzero" fill-opacity="1" /><path clip-path="url(#clip170)" d="M718.628 1538.96 L718.628 1542.94 Q716.822 1541.94 714.993 1541.46 Q713.188 1540.95 711.336 1540.95 Q707.193 1540.95 704.901 1543.59 Q702.609 1546.2 702.609 1550.95 Q702.609 1555.69 704.901 1558.33 Q707.193 1560.95 711.336 1560.95 Q713.188 1560.95 714.993 1560.46 Q716.822 1559.95 718.628 1558.96 L718.628 1562.89 Q716.845 1563.73 714.924 1564.14 Q713.026 1564.56 710.873 1564.56 Q705.017 1564.56 701.568 1560.88 Q698.119 1557.2 698.119 1550.95 Q698.119 1544.61 701.591 1540.97 Q705.086 1537.34 711.151 1537.34 Q713.118 1537.34 714.993 1537.75 Q716.868 1538.15 718.628 1538.96 Z" fill="#000000" fill-rule="nonzero" fill-opacity="1" /><path clip-path="url(#clip170)" d="M730.248 1530.6 L730.248 1537.96 L739.021 1537.96 L739.021 1541.27 L730.248 1541.27 L730.248 1555.35 Q730.248 1558.52 731.104 1559.42 Q731.984 1560.32 734.646 1560.32 L739.021 1560.32 L739.021 1563.89 L734.646 1563.89 Q729.716 1563.89 727.841 1562.06 Q725.966 1560.21 725.966 1555.35 L725.966 1541.27 L722.841 1541.27 L722.841 1537.96 L725.966 1537.96 L725.966 1530.6 L730.248 1530.6 Z" fill="#000000" fill-rule="nonzero" fill-opacity="1" /><path clip-path="url(#clip170)" d="M754.669 1540.95 Q751.243 1540.95 749.253 1543.63 Q747.262 1546.3 747.262 1550.95 Q747.262 1555.6 749.229 1558.29 Q751.22 1560.95 754.669 1560.95 Q758.072 1560.95 760.063 1558.26 Q762.053 1555.58 762.053 1550.95 Q762.053 1546.34 760.063 1543.66 Q758.072 1540.95 754.669 1540.95 M754.669 1537.34 Q760.225 1537.34 763.396 1540.95 Q766.567 1544.56 766.567 1550.95 Q766.567 1557.31 763.396 1560.95 Q760.225 1564.56 754.669 1564.56 Q749.09 1564.56 745.919 1560.95 Q742.771 1557.31 742.771 1550.95 Q742.771 1544.56 745.919 1540.95 Q749.09 1537.34 754.669 1537.34 Z" fill="#000000" fill-rule="nonzero" fill-opacity="1" /><path clip-path="url(#clip170)" d="M788.65 1541.94 Q787.933 1541.53 787.076 1541.34 Q786.243 1541.13 785.225 1541.13 Q781.613 1541.13 779.669 1543.49 Q777.748 1545.83 777.748 1550.23 L777.748 1563.89 L773.465 1563.89 L773.465 1537.96 L777.748 1537.96 L777.748 1541.99 Q779.09 1539.63 781.243 1538.49 Q783.396 1537.34 786.475 1537.34 Q786.914 1537.34 787.447 1537.41 Q787.979 1537.45 788.627 1537.57 L788.65 1541.94 Z" fill="#000000" fill-rule="nonzero" fill-opacity="1" /><path clip-path="url(#clip170)" d="M793.118 1537.96 L797.377 1537.96 L797.377 1563.89 L793.118 1563.89 L793.118 1537.96 M793.118 1527.87 L797.377 1527.87 L797.377 1533.26 L793.118 1533.26 L793.118 1527.87 Z" fill="#000000" fill-rule="nonzero" fill-opacity="1" /><path clip-path="url(#clip170)" d="M804.437 1537.96 L824.669 1537.96 L824.669 1541.85 L808.65 1560.49 L824.669 1560.49 L824.669 1563.89 L803.859 1563.89 L803.859 1560 L819.877 1541.36 L804.437 1541.36 L804.437 1537.96 Z" fill="#000000" fill-rule="nonzero" fill-opacity="1" /><path clip-path="url(#clip170)" d="M842.956 1550.86 Q837.794 1550.86 835.803 1552.04 Q833.812 1553.22 833.812 1556.06 Q833.812 1558.33 835.294 1559.67 Q836.798 1560.99 839.368 1560.99 Q842.909 1560.99 845.039 1558.49 Q847.192 1555.97 847.192 1551.8 L847.192 1550.86 L842.956 1550.86 M851.451 1549.1 L851.451 1563.89 L847.192 1563.89 L847.192 1559.95 Q845.733 1562.31 843.558 1563.45 Q841.382 1564.56 838.234 1564.56 Q834.252 1564.56 831.891 1562.34 Q829.553 1560.09 829.553 1556.34 Q829.553 1551.97 832.47 1549.74 Q835.409 1547.52 841.22 1547.52 L847.192 1547.52 L847.192 1547.11 Q847.192 1544.17 845.247 1542.57 Q843.326 1540.95 839.831 1540.95 Q837.609 1540.95 835.502 1541.48 Q833.396 1542.01 831.451 1543.08 L831.451 1539.14 Q833.789 1538.24 835.988 1537.8 Q838.187 1537.34 840.271 1537.34 Q845.896 1537.34 848.673 1540.25 Q851.451 1543.17 851.451 1549.1 Z" fill="#000000" fill-rule="nonzero" fill-opacity="1" /><path clip-path="url(#clip170)" d="M864.437 1530.6 L864.437 1537.96 L873.21 1537.96 L873.21 1541.27 L864.437 1541.27 L864.437 1555.35 Q864.437 1558.52 865.294 1559.42 Q866.173 1560.32 868.835 1560.32 L873.21 1560.32 L873.21 1563.89 L868.835 1563.89 Q863.905 1563.89 862.03 1562.06 Q860.155 1560.21 860.155 1555.35 L860.155 1541.27 L857.03 1541.27 L857.03 1537.96 L860.155 1537.96 L860.155 1530.6 L864.437 1530.6 Z" fill="#000000" fill-rule="nonzero" fill-opacity="1" /><path clip-path="url(#clip170)" d="M878.812 1537.96 L883.071 1537.96 L883.071 1563.89 L878.812 1563.89 L878.812 1537.96 M878.812 1527.87 L883.071 1527.87 L883.071 1533.26 L878.812 1533.26 L878.812 1527.87 Z" fill="#000000" fill-rule="nonzero" fill-opacity="1" /><path clip-path="url(#clip170)" d="M902.029 1540.95 Q898.604 1540.95 896.613 1543.63 Q894.622 1546.3 894.622 1550.95 Q894.622 1555.6 896.59 1558.29 Q898.58 1560.95 902.029 1560.95 Q905.432 1560.95 907.423 1558.26 Q909.414 1555.58 909.414 1550.95 Q909.414 1546.34 907.423 1543.66 Q905.432 1540.95 902.029 1540.95 M902.029 1537.34 Q907.585 1537.34 910.756 1540.95 Q913.928 1544.56 913.928 1550.95 Q913.928 1557.31 910.756 1560.95 Q907.585 1564.56 902.029 1564.56 Q896.451 1564.56 893.28 1560.95 Q890.131 1557.31 890.131 1550.95 Q890.131 1544.56 893.28 1540.95 Q896.451 1537.34 902.029 1537.34 Z" fill="#000000" fill-rule="nonzero" fill-opacity="1" /><path clip-path="url(#clip170)" d="M942.539 1548.24 L942.539 1563.89 L938.279 1563.89 L938.279 1548.38 Q938.279 1544.7 936.844 1542.87 Q935.409 1541.04 932.539 1541.04 Q929.09 1541.04 927.099 1543.24 Q925.108 1545.44 925.108 1549.24 L925.108 1563.89 L920.826 1563.89 L920.826 1537.96 L925.108 1537.96 L925.108 1541.99 Q926.636 1539.65 928.696 1538.49 Q930.779 1537.34 933.488 1537.34 Q937.955 1537.34 940.247 1540.11 Q942.539 1542.87 942.539 1548.24 Z" fill="#000000" fill-rule="nonzero" fill-opacity="1" /><path clip-path="url(#clip170)" d="M1582.19 1529.33 L1586.87 1529.33 L1586.87 1559.95 L1603.7 1559.95 L1603.7 1563.89 L1582.19 1563.89 L1582.19 1529.33 Z" fill="#000000" fill-rule="nonzero" fill-opacity="1" /><path clip-path="url(#clip170)" d="M1605.71 1529.33 L1610.41 1529.33 L1610.41 1550.32 Q1610.41 1555.88 1612.43 1558.33 Q1614.44 1560.76 1618.95 1560.76 Q1623.44 1560.76 1625.46 1558.33 Q1627.47 1555.88 1627.47 1550.32 L1627.47 1529.33 L1632.17 1529.33 L1632.17 1550.9 Q1632.17 1557.66 1628.81 1561.11 Q1625.48 1564.56 1618.95 1564.56 Q1612.4 1564.56 1609.05 1561.11 Q1605.71 1557.66 1605.71 1550.9 L1605.71 1529.33 Z" fill="#000000" fill-rule="nonzero" fill-opacity="1" /><path clip-path="url(#clip170)" d="M1640.94 1529.33 L1660.8 1529.33 L1660.8 1533.26 L1645.62 1533.26 L1645.62 1543.45 L1659.32 1543.45 L1659.32 1547.38 L1645.62 1547.38 L1645.62 1563.89 L1640.94 1563.89 L1640.94 1529.33 Z" fill="#000000" fill-rule="nonzero" fill-opacity="1" /><path clip-path="url(#clip170)" d="M1675.46 1550.86 Q1670.3 1550.86 1668.3 1552.04 Q1666.31 1553.22 1666.31 1556.06 Q1666.31 1558.33 1667.8 1559.67 Q1669.3 1560.99 1671.87 1560.99 Q1675.41 1560.99 1677.54 1558.49 Q1679.69 1555.97 1679.69 1551.8 L1679.69 1550.86 L1675.46 1550.86 M1683.95 1549.1 L1683.95 1563.89 L1679.69 1563.89 L1679.69 1559.95 Q1678.24 1562.31 1676.06 1563.45 Q1673.88 1564.56 1670.74 1564.56 Q1666.75 1564.56 1664.39 1562.34 Q1662.05 1560.09 1662.05 1556.34 Q1662.05 1551.97 1664.97 1549.74 Q1667.91 1547.52 1673.72 1547.52 L1679.69 1547.52 L1679.69 1547.11 Q1679.69 1544.17 1677.75 1542.57 Q1675.83 1540.95 1672.33 1540.95 Q1670.11 1540.95 1668 1541.48 Q1665.9 1542.01 1663.95 1543.08 L1663.95 1539.14 Q1666.29 1538.24 1668.49 1537.8 Q1670.69 1537.34 1672.77 1537.34 Q1678.4 1537.34 1681.18 1540.25 Q1683.95 1543.17 1683.95 1549.1 Z" fill="#000000" fill-rule="nonzero" fill-opacity="1" /><path clip-path="url(#clip170)" d="M1711.38 1538.96 L1711.38 1542.94 Q1709.58 1541.94 1707.75 1541.46 Q1705.94 1540.95 1704.09 1540.95 Q1699.95 1540.95 1697.66 1543.59 Q1695.36 1546.2 1695.36 1550.95 Q1695.36 1555.69 1697.66 1558.33 Q1699.95 1560.95 1704.09 1560.95 Q1705.94 1560.95 1707.75 1560.46 Q1709.58 1559.95 1711.38 1558.96 L1711.38 1562.89 Q1709.6 1563.73 1707.68 1564.14 Q1705.78 1564.56 1703.63 1564.56 Q1697.77 1564.56 1694.32 1560.88 Q1690.87 1557.2 1690.87 1550.95 Q1690.87 1544.61 1694.35 1540.97 Q1697.84 1537.34 1703.91 1537.34 Q1705.87 1537.34 1707.75 1537.75 Q1709.62 1538.15 1711.38 1538.96 Z" fill="#000000" fill-rule="nonzero" fill-opacity="1" /><path clip-path="url(#clip170)" d="M1723 1530.6 L1723 1537.96 L1731.78 1537.96 L1731.78 1541.27 L1723 1541.27 L1723 1555.35 Q1723 1558.52 1723.86 1559.42 Q1724.74 1560.32 1727.4 1560.32 L1731.78 1560.32 L1731.78 1563.89 L1727.4 1563.89 Q1722.47 1563.89 1720.6 1562.06 Q1718.72 1560.21 1718.72 1555.35 L1718.72 1541.27 L1715.6 1541.27 L1715.6 1537.96 L1718.72 1537.96 L1718.72 1530.6 L1723 1530.6 Z" fill="#000000" fill-rule="nonzero" fill-opacity="1" /><path clip-path="url(#clip170)" d="M1747.42 1540.95 Q1744 1540.95 1742.01 1543.63 Q1740.02 1546.3 1740.02 1550.95 Q1740.02 1555.6 1741.99 1558.29 Q1743.98 1560.95 1747.42 1560.95 Q1750.83 1560.95 1752.82 1558.26 Q1754.81 1555.58 1754.81 1550.95 Q1754.81 1546.34 1752.82 1543.66 Q1750.83 1540.95 1747.42 1540.95 M1747.42 1537.34 Q1752.98 1537.34 1756.15 1540.95 Q1759.32 1544.56 1759.32 1550.95 Q1759.32 1557.31 1756.15 1560.95 Q1752.98 1564.56 1747.42 1564.56 Q1741.85 1564.56 1738.67 1560.95 Q1735.53 1557.31 1735.53 1550.95 Q1735.53 1544.56 1738.67 1540.95 Q1741.85 1537.34 1747.42 1537.34 Z" fill="#000000" fill-rule="nonzero" fill-opacity="1" /><path clip-path="url(#clip170)" d="M1781.41 1541.94 Q1780.69 1541.53 1779.83 1541.34 Q1779 1541.13 1777.98 1541.13 Q1774.37 1541.13 1772.42 1543.49 Q1770.5 1545.83 1770.5 1550.23 L1770.5 1563.89 L1766.22 1563.89 L1766.22 1537.96 L1770.5 1537.96 L1770.5 1541.99 Q1771.85 1539.63 1774 1538.49 Q1776.15 1537.34 1779.23 1537.34 Q1779.67 1537.34 1780.2 1537.41 Q1780.73 1537.45 1781.38 1537.57 L1781.41 1541.94 Z" fill="#000000" fill-rule="nonzero" fill-opacity="1" /><path clip-path="url(#clip170)" d="M1785.87 1537.96 L1790.13 1537.96 L1790.13 1563.89 L1785.87 1563.89 L1785.87 1537.96 M1785.87 1527.87 L1790.13 1527.87 L1790.13 1533.26 L1785.87 1533.26 L1785.87 1527.87 Z" fill="#000000" fill-rule="nonzero" fill-opacity="1" /><path clip-path="url(#clip170)" d="M1797.19 1537.96 L1817.42 1537.96 L1817.42 1541.85 L1801.41 1560.49 L1817.42 1560.49 L1817.42 1563.89 L1796.61 1563.89 L1796.61 1560 L1812.63 1541.36 L1797.19 1541.36 L1797.19 1537.96 Z" fill="#000000" fill-rule="nonzero" fill-opacity="1" /><path clip-path="url(#clip170)" d="M1835.71 1550.86 Q1830.55 1550.86 1828.56 1552.04 Q1826.57 1553.22 1826.57 1556.06 Q1826.57 1558.33 1828.05 1559.67 Q1829.55 1560.99 1832.12 1560.99 Q1835.67 1560.99 1837.79 1558.49 Q1839.95 1555.97 1839.95 1551.8 L1839.95 1550.86 L1835.71 1550.86 M1844.21 1549.1 L1844.21 1563.89 L1839.95 1563.89 L1839.95 1559.95 Q1838.49 1562.31 1836.31 1563.45 Q1834.14 1564.56 1830.99 1564.56 Q1827.01 1564.56 1824.65 1562.34 Q1822.31 1560.09 1822.31 1556.34 Q1822.31 1551.97 1825.23 1549.74 Q1828.17 1547.52 1833.98 1547.52 L1839.95 1547.52 L1839.95 1547.11 Q1839.95 1544.17 1838 1542.57 Q1836.08 1540.95 1832.59 1540.95 Q1830.36 1540.95 1828.26 1541.48 Q1826.15 1542.01 1824.21 1543.08 L1824.21 1539.14 Q1826.54 1538.24 1828.74 1537.8 Q1830.94 1537.34 1833.03 1537.34 Q1838.65 1537.34 1841.43 1540.25 Q1844.21 1543.17 1844.21 1549.1 Z" fill="#000000" fill-rule="nonzero" fill-opacity="1" /><path clip-path="url(#clip170)" d="M1857.19 1530.6 L1857.19 1537.96 L1865.97 1537.96 L1865.97 1541.27 L1857.19 1541.27 L1857.19 1555.35 Q1857.19 1558.52 1858.05 1559.42 Q1858.93 1560.32 1861.59 1560.32 L1865.97 1560.32 L1865.97 1563.89 L1861.59 1563.89 Q1856.66 1563.89 1854.79 1562.06 Q1852.91 1560.21 1852.91 1555.35 L1852.91 1541.27 L1849.79 1541.27 L1849.79 1537.96 L1852.91 1537.96 L1852.91 1530.6 L1857.19 1530.6 Z" fill="#000000" fill-rule="nonzero" fill-opacity="1" /><path clip-path="url(#clip170)" d="M1871.57 1537.96 L1875.83 1537.96 L1875.83 1563.89 L1871.57 1563.89 L1871.57 1537.96 M1871.57 1527.87 L1875.83 1527.87 L1875.83 1533.26 L1871.57 1533.26 L1871.57 1527.87 Z" fill="#000000" fill-rule="nonzero" fill-opacity="1" /><path clip-path="url(#clip170)" d="M1894.79 1540.95 Q1891.36 1540.95 1889.37 1543.63 Q1887.38 1546.3 1887.38 1550.95 Q1887.38 1555.6 1889.35 1558.29 Q1891.34 1560.95 1894.79 1560.95 Q1898.19 1560.95 1900.18 1558.26 Q1902.17 1555.58 1902.17 1550.95 Q1902.17 1546.34 1900.18 1543.66 Q1898.19 1540.95 1894.79 1540.95 M1894.79 1537.34 Q1900.34 1537.34 1903.51 1540.95 Q1906.68 1544.56 1906.68 1550.95 Q1906.68 1557.31 1903.51 1560.95 Q1900.34 1564.56 1894.79 1564.56 Q1889.21 1564.56 1886.04 1560.95 Q1882.89 1557.31 1882.89 1550.95 Q1882.89 1544.56 1886.04 1540.95 Q1889.21 1537.34 1894.79 1537.34 Z" fill="#000000" fill-rule="nonzero" fill-opacity="1" /><path clip-path="url(#clip170)" d="M1935.29 1548.24 L1935.29 1563.89 L1931.03 1563.89 L1931.03 1548.38 Q1931.03 1544.7 1929.6 1542.87 Q1928.16 1541.04 1925.29 1541.04 Q1921.85 1541.04 1919.85 1543.24 Q1917.86 1545.44 1917.86 1549.24 L1917.86 1563.89 L1913.58 1563.89 L1913.58 1537.96 L1917.86 1537.96 L1917.86 1541.99 Q1919.39 1539.65 1921.45 1538.49 Q1923.54 1537.34 1926.24 1537.34 Q1930.71 1537.34 1933 1540.11 Q1935.29 1542.87 1935.29 1548.24 Z" fill="#000000" fill-rule="nonzero" fill-opacity="1" /><path clip-path="url(#clip170)" d="M2689.43 1529.33 L2694.1 1529.33 L2694.1 1543.93 L2709.61 1529.33 L2715.63 1529.33 L2698.48 1545.44 L2716.86 1563.89 L2710.7 1563.89 L2694.1 1547.24 L2694.1 1563.89 L2689.43 1563.89 L2689.43 1529.33 Z" fill="#000000" fill-rule="nonzero" fill-opacity="1" /><path clip-path="url(#clip170)" d="M2735.35 1541.94 Q2734.64 1541.53 2733.78 1541.34 Q2732.95 1541.13 2731.93 1541.13 Q2728.32 1541.13 2726.37 1543.49 Q2724.45 1545.83 2724.45 1550.23 L2724.45 1563.89 L2720.17 1563.89 L2720.17 1537.96 L2724.45 1537.96 L2724.45 1541.99 Q2725.79 1539.63 2727.95 1538.49 Q2730.1 1537.34 2733.18 1537.34 Q2733.62 1537.34 2734.15 1537.41 Q2734.68 1537.45 2735.33 1537.57 L2735.35 1541.94 Z" fill="#000000" fill-rule="nonzero" fill-opacity="1" /><path clip-path="url(#clip170)" d="M2750.61 1566.3 Q2748.8 1570.92 2747.09 1572.34 Q2745.38 1573.75 2742.51 1573.75 L2739.1 1573.75 L2739.1 1570.18 L2741.6 1570.18 Q2743.36 1570.18 2744.34 1569.35 Q2745.31 1568.52 2746.49 1565.42 L2747.25 1563.47 L2736.77 1537.96 L2741.28 1537.96 L2749.38 1558.24 L2757.48 1537.96 L2762 1537.96 L2750.61 1566.3 Z" fill="#000000" fill-rule="nonzero" fill-opacity="1" /><path clip-path="url(#clip170)" d="M2767.88 1527.87 L2772.14 1527.87 L2772.14 1563.89 L2767.88 1563.89 L2767.88 1527.87 Z" fill="#000000" fill-rule="nonzero" fill-opacity="1" /><path clip-path="url(#clip170)" d="M2791.09 1540.95 Q2787.67 1540.95 2785.68 1543.63 Q2783.69 1546.3 2783.69 1550.95 Q2783.69 1555.6 2785.65 1558.29 Q2787.65 1560.95 2791.09 1560.95 Q2794.5 1560.95 2796.49 1558.26 Q2798.48 1555.58 2798.48 1550.95 Q2798.48 1546.34 2796.49 1543.66 Q2794.5 1540.95 2791.09 1540.95 M2791.09 1537.34 Q2796.65 1537.34 2799.82 1540.95 Q2802.99 1544.56 2802.99 1550.95 Q2802.99 1557.31 2799.82 1560.95 Q2796.65 1564.56 2791.09 1564.56 Q2785.52 1564.56 2782.34 1560.95 Q2779.2 1557.31 2779.2 1550.95 Q2779.2 1544.56 2782.34 1540.95 Q2785.52 1537.34 2791.09 1537.34 Z" fill="#000000" fill-rule="nonzero" fill-opacity="1" /><path clip-path="url(#clip170)" d="M2807 1537.96 L2811.51 1537.96 L2819.61 1559.72 L2827.71 1537.96 L2832.23 1537.96 L2822.51 1563.89 L2816.72 1563.89 L2807 1537.96 Z" fill="#000000" fill-rule="nonzero" fill-opacity="1" /><path clip-path="url(#clip170)" d="M2838.29 1529.33 L2842.97 1529.33 L2842.97 1561.48 Q2842.97 1567.73 2840.59 1570.55 Q2838.22 1573.38 2832.97 1573.38 L2831.19 1573.38 L2831.19 1569.44 L2832.65 1569.44 Q2835.75 1569.44 2837.02 1567.71 Q2838.29 1565.97 2838.29 1561.48 L2838.29 1529.33 Z" fill="#000000" fill-rule="nonzero" fill-opacity="1" /><path clip-path="url(#clip170)" d="M2852.27 1529.33 L2856.95 1529.33 L2856.95 1559.95 L2873.78 1559.95 L2873.78 1563.89 L2852.27 1563.89 L2852.27 1529.33 Z" fill="#000000" fill-rule="nonzero" fill-opacity="1" /><polyline clip-path="url(#clip170)" style="stroke:#000000; stroke-linecap:round; stroke-linejoin:round; stroke-width:4; stroke-opacity:1; fill:none" points="364.733,1495.09 364.733,47.2441 "/>
<polyline clip-path="url(#clip170)" style="stroke:#000000; stroke-linecap:round; stroke-linejoin:round; stroke-width:4; stroke-opacity:1; fill:none" points="364.733,1324.08 383.63,1324.08 "/>
<polyline clip-path="url(#clip170)" style="stroke:#000000; stroke-linecap:round; stroke-linejoin:round; stroke-width:4; stroke-opacity:1; fill:none" points="364.733,1085.17 383.63,1085.17 "/>
<polyline clip-path="url(#clip170)" style="stroke:#000000; stroke-linecap:round; stroke-linejoin:round; stroke-width:4; stroke-opacity:1; fill:none" points="364.733,846.257 383.63,846.257 "/>
<polyline clip-path="url(#clip170)" style="stroke:#000000; stroke-linecap:round; stroke-linejoin:round; stroke-width:4; stroke-opacity:1; fill:none" points="364.733,607.343 383.63,607.343 "/>
<polyline clip-path="url(#clip170)" style="stroke:#000000; stroke-linecap:round; stroke-linejoin:round; stroke-width:4; stroke-opacity:1; fill:none" points="364.733,368.429 383.63,368.429 "/>
<polyline clip-path="url(#clip170)" style="stroke:#000000; stroke-linecap:round; stroke-linejoin:round; stroke-width:4; stroke-opacity:1; fill:none" points="364.733,129.516 383.63,129.516 "/>
<path clip-path="url(#clip170)" d="M100.788 1343.88 L108.426 1343.88 L108.426 1317.51 L100.116 1319.18 L100.116 1314.92 L108.38 1313.25 L113.056 1313.25 L113.056 1343.88 L120.695 1343.88 L120.695 1347.81 L100.788 1347.81 L100.788 1343.88 Z" fill="#000000" fill-rule="nonzero" fill-opacity="1" /><path clip-path="url(#clip170)" d="M130.139 1341.93 L135.023 1341.93 L135.023 1347.81 L130.139 1347.81 L130.139 1341.93 Z" fill="#000000" fill-rule="nonzero" fill-opacity="1" /><path clip-path="url(#clip170)" d="M155.209 1316.33 Q151.597 1316.33 149.769 1319.9 Q147.963 1323.44 147.963 1330.57 Q147.963 1337.67 149.769 1341.24 Q151.597 1344.78 155.209 1344.78 Q158.843 1344.78 160.648 1341.24 Q162.477 1337.67 162.477 1330.57 Q162.477 1323.44 160.648 1319.9 Q158.843 1316.33 155.209 1316.33 M155.209 1312.63 Q161.019 1312.63 164.074 1317.23 Q167.153 1321.82 167.153 1330.57 Q167.153 1339.29 164.074 1343.9 Q161.019 1348.48 155.209 1348.48 Q149.398 1348.48 146.32 1343.9 Q143.264 1339.29 143.264 1330.57 Q143.264 1321.82 146.32 1317.23 Q149.398 1312.63 155.209 1312.63 Z" fill="#000000" fill-rule="nonzero" fill-opacity="1" /><path clip-path="url(#clip170)" d="M185.37 1316.33 Q181.759 1316.33 179.931 1319.9 Q178.125 1323.44 178.125 1330.57 Q178.125 1337.67 179.931 1341.24 Q181.759 1344.78 185.37 1344.78 Q189.005 1344.78 190.81 1341.24 Q192.639 1337.67 192.639 1330.57 Q192.639 1323.44 190.81 1319.9 Q189.005 1316.33 185.37 1316.33 M185.37 1312.63 Q191.181 1312.63 194.236 1317.23 Q197.315 1321.82 197.315 1330.57 Q197.315 1339.29 194.236 1343.9 Q191.181 1348.48 185.37 1348.48 Q179.56 1348.48 176.482 1343.9 Q173.426 1339.29 173.426 1330.57 Q173.426 1321.82 176.482 1317.23 Q179.56 1312.63 185.37 1312.63 Z" fill="#000000" fill-rule="nonzero" fill-opacity="1" /><path clip-path="url(#clip170)" d="M233.704 1322.35 L223.125 1332.97 L233.704 1343.55 L230.949 1346.35 L220.324 1335.73 L209.699 1346.35 L206.968 1343.55 L217.523 1332.97 L206.968 1322.35 L209.699 1319.55 L220.324 1330.17 L230.949 1319.55 L233.704 1322.35 Z" fill="#000000" fill-rule="nonzero" fill-opacity="1" /><path clip-path="url(#clip170)" d="M246.065 1343.88 L253.703 1343.88 L253.703 1317.51 L245.393 1319.18 L245.393 1314.92 L253.657 1313.25 L258.333 1313.25 L258.333 1343.88 L265.972 1343.88 L265.972 1347.81 L246.065 1347.81 L246.065 1343.88 Z" fill="#000000" fill-rule="nonzero" fill-opacity="1" /><path clip-path="url(#clip170)" d="M285.416 1316.33 Q281.805 1316.33 279.976 1319.9 Q278.171 1323.44 278.171 1330.57 Q278.171 1337.67 279.976 1341.24 Q281.805 1344.78 285.416 1344.78 Q289.05 1344.78 290.856 1341.24 Q292.685 1337.67 292.685 1330.57 Q292.685 1323.44 290.856 1319.9 Q289.05 1316.33 285.416 1316.33 M285.416 1312.63 Q291.226 1312.63 294.282 1317.23 Q297.361 1321.82 297.361 1330.57 Q297.361 1339.29 294.282 1343.9 Q291.226 1348.48 285.416 1348.48 Q279.606 1348.48 276.527 1343.9 Q273.472 1339.29 273.472 1330.57 Q273.472 1321.82 276.527 1317.23 Q279.606 1312.63 285.416 1312.63 Z" fill="#000000" fill-rule="nonzero" fill-opacity="1" /><path clip-path="url(#clip170)" d="M299.166 1319.82 L299.166 1316.36 Q300.596 1317.03 302.063 1317.39 Q303.53 1317.75 304.94 1317.75 Q308.702 1317.75 310.676 1315.23 Q312.67 1312.69 312.952 1307.54 Q311.861 1309.15 310.187 1310.02 Q308.514 1310.88 306.482 1310.88 Q302.269 1310.88 299.806 1308.35 Q297.361 1305.79 297.361 1301.37 Q297.361 1297.04 299.918 1294.43 Q302.476 1291.81 306.727 1291.81 Q311.598 1291.81 314.156 1295.56 Q316.733 1299.28 316.733 1306.39 Q316.733 1313.03 313.573 1317 Q310.432 1320.95 305.109 1320.95 Q303.68 1320.95 302.213 1320.66 Q300.746 1320.38 299.166 1319.82 M306.727 1307.91 Q309.285 1307.91 310.771 1306.16 Q312.275 1304.41 312.275 1301.37 Q312.275 1298.34 310.771 1296.59 Q309.285 1294.82 306.727 1294.82 Q304.169 1294.82 302.664 1296.59 Q301.179 1298.34 301.179 1301.37 Q301.179 1304.41 302.664 1306.16 Q304.169 1307.91 306.727 1307.91 Z" fill="#000000" fill-rule="nonzero" fill-opacity="1" /><path clip-path="url(#clip170)" d="M100.788 1104.96 L108.426 1104.96 L108.426 1078.6 L100.116 1080.26 L100.116 1076 L108.38 1074.34 L113.056 1074.34 L113.056 1104.96 L120.695 1104.96 L120.695 1108.9 L100.788 1108.9 L100.788 1104.96 Z" fill="#000000" fill-rule="nonzero" fill-opacity="1" /><path clip-path="url(#clip170)" d="M130.139 1103.02 L135.023 1103.02 L135.023 1108.9 L130.139 1108.9 L130.139 1103.02 Z" fill="#000000" fill-rule="nonzero" fill-opacity="1" /><path clip-path="url(#clip170)" d="M145.255 1074.34 L163.611 1074.34 L163.611 1078.27 L149.537 1078.27 L149.537 1086.75 Q150.556 1086.4 151.574 1086.24 Q152.593 1086.05 153.611 1086.05 Q159.398 1086.05 162.778 1089.22 Q166.158 1092.39 166.158 1097.81 Q166.158 1103.39 162.685 1106.49 Q159.213 1109.57 152.894 1109.57 Q150.718 1109.57 148.449 1109.2 Q146.204 1108.83 143.797 1108.09 L143.797 1103.39 Q145.88 1104.52 148.102 1105.08 Q150.324 1105.63 152.801 1105.63 Q156.806 1105.63 159.144 1103.53 Q161.482 1101.42 161.482 1097.81 Q161.482 1094.2 159.144 1092.09 Q156.806 1089.99 152.801 1089.99 Q150.926 1089.99 149.051 1090.4 Q147.199 1090.82 145.255 1091.7 L145.255 1074.34 Z" fill="#000000" fill-rule="nonzero" fill-opacity="1" /><path clip-path="url(#clip170)" d="M185.37 1077.42 Q181.759 1077.42 179.931 1080.98 Q178.125 1084.52 178.125 1091.65 Q178.125 1098.76 179.931 1102.32 Q181.759 1105.87 185.37 1105.87 Q189.005 1105.87 190.81 1102.32 Q192.639 1098.76 192.639 1091.65 Q192.639 1084.52 190.81 1080.98 Q189.005 1077.42 185.37 1077.42 M185.37 1073.71 Q191.181 1073.71 194.236 1078.32 Q197.315 1082.9 197.315 1091.65 Q197.315 1100.38 194.236 1104.99 Q191.181 1109.57 185.37 1109.57 Q179.56 1109.57 176.482 1104.99 Q173.426 1100.38 173.426 1091.65 Q173.426 1082.9 176.482 1078.32 Q179.56 1073.71 185.37 1073.71 Z" fill="#000000" fill-rule="nonzero" fill-opacity="1" /><path clip-path="url(#clip170)" d="M233.704 1083.44 L223.125 1094.06 L233.704 1104.64 L230.949 1107.44 L220.324 1096.81 L209.699 1107.44 L206.968 1104.64 L217.523 1094.06 L206.968 1083.44 L209.699 1080.63 L220.324 1091.26 L230.949 1080.63 L233.704 1083.44 Z" fill="#000000" fill-rule="nonzero" fill-opacity="1" /><path clip-path="url(#clip170)" d="M246.065 1104.96 L253.703 1104.96 L253.703 1078.6 L245.393 1080.26 L245.393 1076 L253.657 1074.34 L258.333 1074.34 L258.333 1104.96 L265.972 1104.96 L265.972 1108.9 L246.065 1108.9 L246.065 1104.96 Z" fill="#000000" fill-rule="nonzero" fill-opacity="1" /><path clip-path="url(#clip170)" d="M285.416 1077.42 Q281.805 1077.42 279.976 1080.98 Q278.171 1084.52 278.171 1091.65 Q278.171 1098.76 279.976 1102.32 Q281.805 1105.87 285.416 1105.87 Q289.05 1105.87 290.856 1102.32 Q292.685 1098.76 292.685 1091.65 Q292.685 1084.52 290.856 1080.98 Q289.05 1077.42 285.416 1077.42 M285.416 1073.71 Q291.226 1073.71 294.282 1078.32 Q297.361 1082.9 297.361 1091.65 Q297.361 1100.38 294.282 1104.99 Q291.226 1109.57 285.416 1109.57 Q279.606 1109.57 276.527 1104.99 Q273.472 1100.38 273.472 1091.65 Q273.472 1082.9 276.527 1078.32 Q279.606 1073.71 285.416 1073.71 Z" fill="#000000" fill-rule="nonzero" fill-opacity="1" /><path clip-path="url(#clip170)" d="M299.166 1080.9 L299.166 1077.44 Q300.596 1078.12 302.063 1078.48 Q303.53 1078.84 304.94 1078.84 Q308.702 1078.84 310.676 1076.32 Q312.67 1073.78 312.952 1068.62 Q311.861 1070.24 310.187 1071.11 Q308.514 1071.97 306.482 1071.97 Q302.269 1071.97 299.806 1069.43 Q297.361 1066.87 297.361 1062.45 Q297.361 1058.13 299.918 1055.51 Q302.476 1052.9 306.727 1052.9 Q311.598 1052.9 314.156 1056.64 Q316.733 1060.37 316.733 1067.48 Q316.733 1074.11 313.573 1078.08 Q310.432 1082.03 305.109 1082.03 Q303.68 1082.03 302.213 1081.75 Q300.746 1081.47 299.166 1080.9 M306.727 1069 Q309.285 1069 310.771 1067.25 Q312.275 1065.5 312.275 1062.45 Q312.275 1059.43 310.771 1057.68 Q309.285 1055.91 306.727 1055.91 Q304.169 1055.91 302.664 1057.68 Q301.179 1059.43 301.179 1062.45 Q301.179 1065.5 302.664 1067.25 Q304.169 1069 306.727 1069 Z" fill="#000000" fill-rule="nonzero" fill-opacity="1" /><path clip-path="url(#clip170)" d="M104.005 866.049 L120.324 866.049 L120.324 869.984 L98.3802 869.984 L98.3802 866.049 Q101.042 863.294 105.625 858.665 Q110.232 854.012 111.412 852.669 Q113.658 850.146 114.537 848.41 Q115.44 846.651 115.44 844.961 Q115.44 842.207 113.496 840.47 Q111.575 838.734 108.473 838.734 Q106.274 838.734 103.82 839.498 Q101.389 840.262 98.6116 841.813 L98.6116 837.091 Q101.436 835.957 103.889 835.378 Q106.343 834.799 108.38 834.799 Q113.75 834.799 116.945 837.484 Q120.139 840.17 120.139 844.66 Q120.139 846.79 119.329 848.711 Q118.542 850.609 116.436 853.202 Q115.857 853.873 112.755 857.091 Q109.653 860.285 104.005 866.049 Z" fill="#000000" fill-rule="nonzero" fill-opacity="1" /><path clip-path="url(#clip170)" d="M130.139 864.105 L135.023 864.105 L135.023 869.984 L130.139 869.984 L130.139 864.105 Z" fill="#000000" fill-rule="nonzero" fill-opacity="1" /><path clip-path="url(#clip170)" d="M155.209 838.503 Q151.597 838.503 149.769 842.068 Q147.963 845.609 147.963 852.739 Q147.963 859.845 149.769 863.41 Q151.597 866.952 155.209 866.952 Q158.843 866.952 160.648 863.41 Q162.477 859.845 162.477 852.739 Q162.477 845.609 160.648 842.068 Q158.843 838.503 155.209 838.503 M155.209 834.799 Q161.019 834.799 164.074 839.406 Q167.153 843.989 167.153 852.739 Q167.153 861.466 164.074 866.072 Q161.019 870.656 155.209 870.656 Q149.398 870.656 146.32 866.072 Q143.264 861.466 143.264 852.739 Q143.264 843.989 146.32 839.406 Q149.398 834.799 155.209 834.799 Z" fill="#000000" fill-rule="nonzero" fill-opacity="1" /><path clip-path="url(#clip170)" d="M185.37 838.503 Q181.759 838.503 179.931 842.068 Q178.125 845.609 178.125 852.739 Q178.125 859.845 179.931 863.41 Q181.759 866.952 185.37 866.952 Q189.005 866.952 190.81 863.41 Q192.639 859.845 192.639 852.739 Q192.639 845.609 190.81 842.068 Q189.005 838.503 185.37 838.503 M185.37 834.799 Q191.181 834.799 194.236 839.406 Q197.315 843.989 197.315 852.739 Q197.315 861.466 194.236 866.072 Q191.181 870.656 185.37 870.656 Q179.56 870.656 176.482 866.072 Q173.426 861.466 173.426 852.739 Q173.426 843.989 176.482 839.406 Q179.56 834.799 185.37 834.799 Z" fill="#000000" fill-rule="nonzero" fill-opacity="1" /><path clip-path="url(#clip170)" d="M233.704 844.521 L223.125 855.146 L233.704 865.725 L230.949 868.526 L220.324 857.901 L209.699 868.526 L206.968 865.725 L217.523 855.146 L206.968 844.521 L209.699 841.72 L220.324 852.345 L230.949 841.72 L233.704 844.521 Z" fill="#000000" fill-rule="nonzero" fill-opacity="1" /><path clip-path="url(#clip170)" d="M246.065 866.049 L253.703 866.049 L253.703 839.683 L245.393 841.35 L245.393 837.091 L253.657 835.424 L258.333 835.424 L258.333 866.049 L265.972 866.049 L265.972 869.984 L246.065 869.984 L246.065 866.049 Z" fill="#000000" fill-rule="nonzero" fill-opacity="1" /><path clip-path="url(#clip170)" d="M285.416 838.503 Q281.805 838.503 279.976 842.068 Q278.171 845.609 278.171 852.739 Q278.171 859.845 279.976 863.41 Q281.805 866.952 285.416 866.952 Q289.05 866.952 290.856 863.41 Q292.685 859.845 292.685 852.739 Q292.685 845.609 290.856 842.068 Q289.05 838.503 285.416 838.503 M285.416 834.799 Q291.226 834.799 294.282 839.406 Q297.361 843.989 297.361 852.739 Q297.361 861.466 294.282 866.072 Q291.226 870.656 285.416 870.656 Q279.606 870.656 276.527 866.072 Q273.472 861.466 273.472 852.739 Q273.472 843.989 276.527 839.406 Q279.606 834.799 285.416 834.799 Z" fill="#000000" fill-rule="nonzero" fill-opacity="1" /><path clip-path="url(#clip170)" d="M299.166 841.991 L299.166 838.53 Q300.596 839.207 302.063 839.565 Q303.53 839.922 304.94 839.922 Q308.702 839.922 310.676 837.402 Q312.67 834.863 312.952 829.709 Q311.861 831.327 310.187 832.192 Q308.514 833.057 306.482 833.057 Q302.269 833.057 299.806 830.518 Q297.361 827.96 297.361 823.54 Q297.361 819.215 299.918 816.6 Q302.476 813.986 306.727 813.986 Q311.598 813.986 314.156 817.729 Q316.733 821.453 316.733 828.562 Q316.733 835.201 313.573 839.17 Q310.432 843.119 305.109 843.119 Q303.68 843.119 302.213 842.837 Q300.746 842.555 299.166 841.991 M306.727 830.085 Q309.285 830.085 310.771 828.336 Q312.275 826.587 312.275 823.54 Q312.275 820.512 310.771 818.763 Q309.285 816.995 306.727 816.995 Q304.169 816.995 302.664 818.763 Q301.179 820.512 301.179 823.54 Q301.179 826.587 302.664 828.336 Q304.169 830.085 306.727 830.085 Z" fill="#000000" fill-rule="nonzero" fill-opacity="1" /><path clip-path="url(#clip170)" d="M104.005 627.135 L120.324 627.135 L120.324 631.071 L98.3802 631.071 L98.3802 627.135 Q101.042 624.381 105.625 619.751 Q110.232 615.098 111.412 613.756 Q113.658 611.233 114.537 609.497 Q115.44 607.737 115.44 606.048 Q115.44 603.293 113.496 601.557 Q111.575 599.821 108.473 599.821 Q106.274 599.821 103.82 600.585 Q101.389 601.348 98.6116 602.899 L98.6116 598.177 Q101.436 597.043 103.889 596.464 Q106.343 595.886 108.38 595.886 Q113.75 595.886 116.945 598.571 Q120.139 601.256 120.139 605.747 Q120.139 607.876 119.329 609.797 Q118.542 611.696 116.436 614.288 Q115.857 614.96 112.755 618.177 Q109.653 621.372 104.005 627.135 Z" fill="#000000" fill-rule="nonzero" fill-opacity="1" /><path clip-path="url(#clip170)" d="M130.139 625.191 L135.023 625.191 L135.023 631.071 L130.139 631.071 L130.139 625.191 Z" fill="#000000" fill-rule="nonzero" fill-opacity="1" /><path clip-path="url(#clip170)" d="M145.255 596.511 L163.611 596.511 L163.611 600.446 L149.537 600.446 L149.537 608.918 Q150.556 608.571 151.574 608.409 Q152.593 608.223 153.611 608.223 Q159.398 608.223 162.778 611.395 Q166.158 614.566 166.158 619.983 Q166.158 625.561 162.685 628.663 Q159.213 631.742 152.894 631.742 Q150.718 631.742 148.449 631.371 Q146.204 631.001 143.797 630.26 L143.797 625.561 Q145.88 626.696 148.102 627.251 Q150.324 627.807 152.801 627.807 Q156.806 627.807 159.144 625.7 Q161.482 623.594 161.482 619.983 Q161.482 616.372 159.144 614.265 Q156.806 612.159 152.801 612.159 Q150.926 612.159 149.051 612.575 Q147.199 612.992 145.255 613.872 L145.255 596.511 Z" fill="#000000" fill-rule="nonzero" fill-opacity="1" /><path clip-path="url(#clip170)" d="M185.37 599.589 Q181.759 599.589 179.931 603.154 Q178.125 606.696 178.125 613.825 Q178.125 620.932 179.931 624.496 Q181.759 628.038 185.37 628.038 Q189.005 628.038 190.81 624.496 Q192.639 620.932 192.639 613.825 Q192.639 606.696 190.81 603.154 Q189.005 599.589 185.37 599.589 M185.37 595.886 Q191.181 595.886 194.236 600.492 Q197.315 605.075 197.315 613.825 Q197.315 622.552 194.236 627.159 Q191.181 631.742 185.37 631.742 Q179.56 631.742 176.482 627.159 Q173.426 622.552 173.426 613.825 Q173.426 605.075 176.482 600.492 Q179.56 595.886 185.37 595.886 Z" fill="#000000" fill-rule="nonzero" fill-opacity="1" /><path clip-path="url(#clip170)" d="M233.704 605.608 L223.125 616.233 L233.704 626.811 L230.949 629.612 L220.324 618.987 L209.699 629.612 L206.968 626.811 L217.523 616.233 L206.968 605.608 L209.699 602.807 L220.324 613.432 L230.949 602.807 L233.704 605.608 Z" fill="#000000" fill-rule="nonzero" fill-opacity="1" /><path clip-path="url(#clip170)" d="M246.065 627.135 L253.703 627.135 L253.703 600.77 L245.393 602.436 L245.393 598.177 L253.657 596.511 L258.333 596.511 L258.333 627.135 L265.972 627.135 L265.972 631.071 L246.065 631.071 L246.065 627.135 Z" fill="#000000" fill-rule="nonzero" fill-opacity="1" /><path clip-path="url(#clip170)" d="M285.416 599.589 Q281.805 599.589 279.976 603.154 Q278.171 606.696 278.171 613.825 Q278.171 620.932 279.976 624.496 Q281.805 628.038 285.416 628.038 Q289.05 628.038 290.856 624.496 Q292.685 620.932 292.685 613.825 Q292.685 606.696 290.856 603.154 Q289.05 599.589 285.416 599.589 M285.416 595.886 Q291.226 595.886 294.282 600.492 Q297.361 605.075 297.361 613.825 Q297.361 622.552 294.282 627.159 Q291.226 631.742 285.416 631.742 Q279.606 631.742 276.527 627.159 Q273.472 622.552 273.472 613.825 Q273.472 605.075 276.527 600.492 Q279.606 595.886 285.416 595.886 Z" fill="#000000" fill-rule="nonzero" fill-opacity="1" /><path clip-path="url(#clip170)" d="M299.166 603.077 L299.166 599.616 Q300.596 600.294 302.063 600.651 Q303.53 601.008 304.94 601.008 Q308.702 601.008 310.676 598.488 Q312.67 595.949 312.952 590.796 Q311.861 592.413 310.187 593.278 Q308.514 594.143 306.482 594.143 Q302.269 594.143 299.806 591.604 Q297.361 589.046 297.361 584.627 Q297.361 580.301 299.918 577.687 Q302.476 575.072 306.727 575.072 Q311.598 575.072 314.156 578.815 Q316.733 582.539 316.733 589.648 Q316.733 596.287 313.573 600.256 Q310.432 604.206 305.109 604.206 Q303.68 604.206 302.213 603.923 Q300.746 603.641 299.166 603.077 M306.727 591.172 Q309.285 591.172 310.771 589.423 Q312.275 587.674 312.275 584.627 Q312.275 581.599 310.771 579.849 Q309.285 578.082 306.727 578.082 Q304.169 578.082 302.664 579.849 Q301.179 581.599 301.179 584.627 Q301.179 587.674 302.664 589.423 Q304.169 591.172 306.727 591.172 Z" fill="#000000" fill-rule="nonzero" fill-opacity="1" /><path clip-path="url(#clip170)" d="M114.144 373.523 Q117.5 374.24 119.375 376.509 Q121.274 378.777 121.274 382.111 Q121.274 387.226 117.755 390.027 Q114.237 392.828 107.755 392.828 Q105.579 392.828 103.264 392.388 Q100.973 391.972 98.519 391.115 L98.519 386.601 Q100.463 387.736 102.778 388.314 Q105.093 388.893 107.616 388.893 Q112.014 388.893 114.306 387.157 Q116.621 385.421 116.621 382.111 Q116.621 379.055 114.468 377.342 Q112.338 375.606 108.519 375.606 L104.491 375.606 L104.491 371.763 L108.704 371.763 Q112.153 371.763 113.982 370.398 Q115.811 369.009 115.811 366.416 Q115.811 363.754 113.912 362.342 Q112.037 360.907 108.519 360.907 Q106.598 360.907 104.399 361.324 Q102.2 361.74 99.5607 362.62 L99.5607 358.453 Q102.223 357.713 104.538 357.342 Q106.875 356.972 108.936 356.972 Q114.26 356.972 117.362 359.402 Q120.463 361.81 120.463 365.93 Q120.463 368.8 118.82 370.791 Q117.176 372.759 114.144 373.523 Z" fill="#000000" fill-rule="nonzero" fill-opacity="1" /><path clip-path="url(#clip170)" d="M130.139 386.277 L135.023 386.277 L135.023 392.157 L130.139 392.157 L130.139 386.277 Z" fill="#000000" fill-rule="nonzero" fill-opacity="1" /><path clip-path="url(#clip170)" d="M155.209 360.676 Q151.597 360.676 149.769 364.24 Q147.963 367.782 147.963 374.912 Q147.963 382.018 149.769 385.583 Q151.597 389.124 155.209 389.124 Q158.843 389.124 160.648 385.583 Q162.477 382.018 162.477 374.912 Q162.477 367.782 160.648 364.24 Q158.843 360.676 155.209 360.676 M155.209 356.972 Q161.019 356.972 164.074 361.578 Q167.153 366.162 167.153 374.912 Q167.153 383.638 164.074 388.245 Q161.019 392.828 155.209 392.828 Q149.398 392.828 146.32 388.245 Q143.264 383.638 143.264 374.912 Q143.264 366.162 146.32 361.578 Q149.398 356.972 155.209 356.972 Z" fill="#000000" fill-rule="nonzero" fill-opacity="1" /><path clip-path="url(#clip170)" d="M185.37 360.676 Q181.759 360.676 179.931 364.24 Q178.125 367.782 178.125 374.912 Q178.125 382.018 179.931 385.583 Q181.759 389.124 185.37 389.124 Q189.005 389.124 190.81 385.583 Q192.639 382.018 192.639 374.912 Q192.639 367.782 190.81 364.24 Q189.005 360.676 185.37 360.676 M185.37 356.972 Q191.181 356.972 194.236 361.578 Q197.315 366.162 197.315 374.912 Q197.315 383.638 194.236 388.245 Q191.181 392.828 185.37 392.828 Q179.56 392.828 176.482 388.245 Q173.426 383.638 173.426 374.912 Q173.426 366.162 176.482 361.578 Q179.56 356.972 185.37 356.972 Z" fill="#000000" fill-rule="nonzero" fill-opacity="1" /><path clip-path="url(#clip170)" d="M233.704 366.694 L223.125 377.319 L233.704 387.898 L230.949 390.699 L220.324 380.074 L209.699 390.699 L206.968 387.898 L217.523 377.319 L206.968 366.694 L209.699 363.893 L220.324 374.518 L230.949 363.893 L233.704 366.694 Z" fill="#000000" fill-rule="nonzero" fill-opacity="1" /><path clip-path="url(#clip170)" d="M246.065 388.222 L253.703 388.222 L253.703 361.856 L245.393 363.523 L245.393 359.264 L253.657 357.597 L258.333 357.597 L258.333 388.222 L265.972 388.222 L265.972 392.157 L246.065 392.157 L246.065 388.222 Z" fill="#000000" fill-rule="nonzero" fill-opacity="1" /><path clip-path="url(#clip170)" d="M285.416 360.676 Q281.805 360.676 279.976 364.24 Q278.171 367.782 278.171 374.912 Q278.171 382.018 279.976 385.583 Q281.805 389.124 285.416 389.124 Q289.05 389.124 290.856 385.583 Q292.685 382.018 292.685 374.912 Q292.685 367.782 290.856 364.24 Q289.05 360.676 285.416 360.676 M285.416 356.972 Q291.226 356.972 294.282 361.578 Q297.361 366.162 297.361 374.912 Q297.361 383.638 294.282 388.245 Q291.226 392.828 285.416 392.828 Q279.606 392.828 276.527 388.245 Q273.472 383.638 273.472 374.912 Q273.472 366.162 276.527 361.578 Q279.606 356.972 285.416 356.972 Z" fill="#000000" fill-rule="nonzero" fill-opacity="1" /><path clip-path="url(#clip170)" d="M299.166 364.163 L299.166 360.703 Q300.596 361.38 302.063 361.737 Q303.53 362.095 304.94 362.095 Q308.702 362.095 310.676 359.574 Q312.67 357.035 312.952 351.882 Q311.861 353.499 310.187 354.365 Q308.514 355.23 306.482 355.23 Q302.269 355.23 299.806 352.691 Q297.361 350.133 297.361 345.713 Q297.361 341.387 299.918 338.773 Q302.476 336.159 306.727 336.159 Q311.598 336.159 314.156 339.901 Q316.733 343.625 316.733 350.735 Q316.733 357.374 313.573 361.342 Q310.432 365.292 305.109 365.292 Q303.68 365.292 302.213 365.01 Q300.746 364.728 299.166 364.163 M306.727 352.258 Q309.285 352.258 310.771 350.509 Q312.275 348.76 312.275 345.713 Q312.275 342.685 310.771 340.936 Q309.285 339.168 306.727 339.168 Q304.169 339.168 302.664 340.936 Q301.179 342.685 301.179 345.713 Q301.179 348.76 302.664 350.509 Q304.169 352.258 306.727 352.258 Z" fill="#000000" fill-rule="nonzero" fill-opacity="1" /><path clip-path="url(#clip170)" d="M114.144 134.609 Q117.5 135.327 119.375 137.595 Q121.274 139.864 121.274 143.197 Q121.274 148.313 117.755 151.114 Q114.237 153.914 107.755 153.914 Q105.579 153.914 103.264 153.475 Q100.973 153.058 98.519 152.202 L98.519 147.688 Q100.463 148.822 102.778 149.401 Q105.093 149.979 107.616 149.979 Q112.014 149.979 114.306 148.243 Q116.621 146.507 116.621 143.197 Q116.621 140.141 114.468 138.428 Q112.338 136.692 108.519 136.692 L104.491 136.692 L104.491 132.85 L108.704 132.85 Q112.153 132.85 113.982 131.484 Q115.811 130.095 115.811 127.503 Q115.811 124.841 113.912 123.429 Q112.037 121.993 108.519 121.993 Q106.598 121.993 104.399 122.41 Q102.2 122.827 99.5607 123.706 L99.5607 119.54 Q102.223 118.799 104.538 118.429 Q106.875 118.058 108.936 118.058 Q114.26 118.058 117.362 120.489 Q120.463 122.896 120.463 127.016 Q120.463 129.887 118.82 131.878 Q117.176 133.845 114.144 134.609 Z" fill="#000000" fill-rule="nonzero" fill-opacity="1" /><path clip-path="url(#clip170)" d="M130.139 147.364 L135.023 147.364 L135.023 153.243 L130.139 153.243 L130.139 147.364 Z" fill="#000000" fill-rule="nonzero" fill-opacity="1" /><path clip-path="url(#clip170)" d="M145.255 118.683 L163.611 118.683 L163.611 122.618 L149.537 122.618 L149.537 131.091 Q150.556 130.743 151.574 130.581 Q152.593 130.396 153.611 130.396 Q159.398 130.396 162.778 133.567 Q166.158 136.739 166.158 142.155 Q166.158 147.734 162.685 150.836 Q159.213 153.914 152.894 153.914 Q150.718 153.914 148.449 153.544 Q146.204 153.174 143.797 152.433 L143.797 147.734 Q145.88 148.868 148.102 149.424 Q150.324 149.979 152.801 149.979 Q156.806 149.979 159.144 147.873 Q161.482 145.766 161.482 142.155 Q161.482 138.544 159.144 136.438 Q156.806 134.331 152.801 134.331 Q150.926 134.331 149.051 134.748 Q147.199 135.165 145.255 136.044 L145.255 118.683 Z" fill="#000000" fill-rule="nonzero" fill-opacity="1" /><path clip-path="url(#clip170)" d="M185.37 121.762 Q181.759 121.762 179.931 125.327 Q178.125 128.868 178.125 135.998 Q178.125 143.104 179.931 146.669 Q181.759 150.211 185.37 150.211 Q189.005 150.211 190.81 146.669 Q192.639 143.104 192.639 135.998 Q192.639 128.868 190.81 125.327 Q189.005 121.762 185.37 121.762 M185.37 118.058 Q191.181 118.058 194.236 122.665 Q197.315 127.248 197.315 135.998 Q197.315 144.725 194.236 149.331 Q191.181 153.914 185.37 153.914 Q179.56 153.914 176.482 149.331 Q173.426 144.725 173.426 135.998 Q173.426 127.248 176.482 122.665 Q179.56 118.058 185.37 118.058 Z" fill="#000000" fill-rule="nonzero" fill-opacity="1" /><path clip-path="url(#clip170)" d="M233.704 127.78 L223.125 138.405 L233.704 148.984 L230.949 151.785 L220.324 141.16 L209.699 151.785 L206.968 148.984 L217.523 138.405 L206.968 127.78 L209.699 124.979 L220.324 135.604 L230.949 124.979 L233.704 127.78 Z" fill="#000000" fill-rule="nonzero" fill-opacity="1" /><path clip-path="url(#clip170)" d="M246.065 149.308 L253.703 149.308 L253.703 122.942 L245.393 124.609 L245.393 120.35 L253.657 118.683 L258.333 118.683 L258.333 149.308 L265.972 149.308 L265.972 153.243 L246.065 153.243 L246.065 149.308 Z" fill="#000000" fill-rule="nonzero" fill-opacity="1" /><path clip-path="url(#clip170)" d="M285.416 121.762 Q281.805 121.762 279.976 125.327 Q278.171 128.868 278.171 135.998 Q278.171 143.104 279.976 146.669 Q281.805 150.211 285.416 150.211 Q289.05 150.211 290.856 146.669 Q292.685 143.104 292.685 135.998 Q292.685 128.868 290.856 125.327 Q289.05 121.762 285.416 121.762 M285.416 118.058 Q291.226 118.058 294.282 122.665 Q297.361 127.248 297.361 135.998 Q297.361 144.725 294.282 149.331 Q291.226 153.914 285.416 153.914 Q279.606 153.914 276.527 149.331 Q273.472 144.725 273.472 135.998 Q273.472 127.248 276.527 122.665 Q279.606 118.058 285.416 118.058 Z" fill="#000000" fill-rule="nonzero" fill-opacity="1" /><path clip-path="url(#clip170)" d="M299.166 125.25 L299.166 121.789 Q300.596 122.466 302.063 122.824 Q303.53 123.181 304.94 123.181 Q308.702 123.181 310.676 120.661 Q312.67 118.122 312.952 112.968 Q311.861 114.586 310.187 115.451 Q308.514 116.316 306.482 116.316 Q302.269 116.316 299.806 113.777 Q297.361 111.219 297.361 106.799 Q297.361 102.474 299.918 99.8592 Q302.476 97.245 306.727 97.245 Q311.598 97.245 314.156 100.988 Q316.733 104.712 316.733 111.821 Q316.733 118.46 313.573 122.429 Q310.432 126.378 305.109 126.378 Q303.68 126.378 302.213 126.096 Q300.746 125.814 299.166 125.25 M306.727 113.344 Q309.285 113.344 310.771 111.595 Q312.275 109.846 312.275 106.799 Q312.275 103.771 310.771 102.022 Q309.285 100.254 306.727 100.254 Q304.169 100.254 302.664 102.022 Q301.179 103.771 301.179 106.799 Q301.179 109.846 302.664 111.595 Q304.169 113.344 306.727 113.344 Z" fill="#000000" fill-rule="nonzero" fill-opacity="1" /><path clip-path="url(#clip170)" d="M-9.64527 840.632 L0.4762 840.632 L0.4762 828.569 L5.02768 828.569 L5.02768 840.632 L24.3794 840.632 Q28.7399 840.632 29.9813 839.454 Q31.2226 838.245 31.2226 834.584 L31.2226 828.569 L36.1242 828.569 L36.1242 834.584 Q36.1242 841.364 33.6097 843.942 Q31.0634 846.52 24.3794 846.52 L5.02768 846.52 L5.02768 850.817 L0.4762 850.817 L0.4762 846.52 L-9.64527 846.52 L-9.64527 840.632 Z" fill="#000000" fill-rule="nonzero" fill-opacity="1" /><path clip-path="url(#clip170)" d="M-11.3958 789.738 L-11.3958 784.327 L42.1716 800.878 L42.1716 806.289 L-11.3958 789.738 Z" fill="#000000" fill-rule="nonzero" fill-opacity="1" /><path clip-path="url(#clip170)" d="M14.6081 727.831 L36.1242 727.831 L36.1242 733.688 L14.799 733.688 Q9.7383 733.688 7.22385 735.661 Q4.7094 737.635 4.7094 741.581 Q4.7094 746.324 7.73311 749.061 Q10.7568 751.798 15.9767 751.798 L36.1242 751.798 L36.1242 757.687 L0.4762 757.687 L0.4762 751.798 L6.01437 751.798 Q2.79968 749.698 1.20826 746.865 Q-0.38317 744 -0.38317 740.276 Q-0.38317 734.133 3.43625 730.982 Q7.22385 727.831 14.6081 727.831 Z" fill="#000000" fill-rule="nonzero" fill-opacity="1" /><path clip-path="url(#clip170)" d="M1.52654 693.425 L7.06471 693.425 Q5.79157 695.907 5.15499 698.581 Q4.51842 701.255 4.51842 704.119 Q4.51842 708.48 5.85522 710.676 Q7.19202 712.84 9.86562 712.84 Q11.9026 712.84 13.0803 711.281 Q14.2261 709.721 15.2765 705.01 L15.7221 703.005 Q17.0589 696.767 19.5097 694.157 Q21.9286 691.515 26.2891 691.515 Q31.2544 691.515 34.1508 695.462 Q37.0472 699.377 37.0472 706.252 Q37.0472 709.116 36.4743 712.235 Q35.9332 715.323 34.8192 718.76 L28.7718 718.76 Q30.4587 715.514 31.318 712.363 Q32.1456 709.212 32.1456 706.124 Q32.1456 701.987 30.7451 699.759 Q29.3129 697.531 26.7347 697.531 Q24.3476 697.531 23.0745 699.154 Q21.8013 700.745 20.6237 706.188 L20.1462 708.225 Q19.0004 713.668 16.6451 716.087 Q14.258 718.506 10.1202 718.506 Q5.09134 718.506 2.35408 714.941 Q-0.38317 711.376 -0.38317 704.819 Q-0.38317 701.573 0.0942579 698.708 Q0.571686 695.844 1.52654 693.425 Z" fill="#000000" fill-rule="nonzero" fill-opacity="1" /><path clip-path="url(#clip172)" d="M965.37 1454.11 L969.955 1453.96 L973.96 1453.81 L977.366 1453.66 L980.161 1453.51 L982.34 1453.36 L983.907 1453.21 L984.872 1453.06 L985.254 1452.91 L985.078 1452.76 L984.378 1452.61 L983.193 1452.46 L981.568 1452.31 L979.555 1452.16 L977.211 1452.01 L974.594 1451.86 L971.768 1451.71 L968.798 1451.56 L965.75 1451.41 L962.691 1451.26 L959.686 1451.12 L956.798 1450.97 L954.089 1450.82 L951.617 1450.67 L949.435 1450.52 L947.591 1450.37 L946.128 1450.22 L945.082 1450.07 L944.484 1449.92 L944.356 1449.77 L944.714 1449.62 L945.565 1449.47 L946.912 1449.32 L948.746 1449.17 L951.053 1449.02 L953.813 1448.87 L956.997 1448.72 L960.57 1448.57 L964.492 1448.42 L968.716 1448.27 L973.191 1448.12 L977.86 1447.97 L982.665 1447.82 L987.542 1447.67 L992.426 1447.52 L997.25 1447.37 L1001.95 1447.22 L1006.45 1447.07 L1010.69 1446.92 L1014.61 1446.77 L1018.14 1446.62 L1021.21 1446.47 L1023.79 1446.32 L1025.81 1446.17 L1027.23 1446.02 L1028.02 1445.87 L1028.13 1445.72 L1027.55 1445.57 L1026.25 1445.42 L1024.22 1445.27 L1021.47 1445.12 L1017.99 1444.97 L1013.8 1444.82 L1008.91 1444.67 L462.855 1444.67 L457.971 1444.82 L453.779 1444.97 L450.3 1445.12 L447.546 1445.27 L445.521 1445.42 L444.223 1445.57 L443.639 1445.72 L443.752 1445.87 L444.536 1446.02 L445.958 1446.17 L447.98 1446.32 L450.555 1446.47 L453.634 1446.62 L457.161 1446.77 L461.076 1446.92 L465.318 1447.07 L469.821 1447.22 L474.519 1447.37 L479.343 1447.52 L484.227 1447.67 L489.104 1447.82 L493.909 1447.97 L498.578 1448.12 L503.053 1448.27 L507.277 1448.42 L511.199 1448.57 L514.772 1448.72 L517.956 1448.87 L520.716 1449.02 L523.023 1449.17 L524.857 1449.32 L526.204 1449.47 L527.055 1449.62 L527.413 1449.77 L527.285 1449.92 L526.687 1450.07 L525.641 1450.22 L524.178 1450.37 L522.334 1450.52 L520.152 1450.67 L517.68 1450.82 L514.971 1450.97 L512.083 1451.12 L509.078 1451.26 L506.019 1451.41 L502.971 1451.56 L500.001 1451.71 L497.175 1451.86 L494.558 1452.01 L492.214 1452.16 L490.201 1452.31 L488.576 1452.46 L487.391 1452.61 L486.691 1452.76 L486.515 1452.91 L486.897 1453.06 L487.862 1453.21 L489.429 1453.36 L491.608 1453.51 L494.403 1453.66 L497.809 1453.81 L501.814 1453.96 L506.399 1454.11 L965.37 1454.11  Z" fill="#009af9" fill-rule="evenodd" fill-opacity="1"/>
<polyline clip-path="url(#clip172)" style="stroke:#000000; stroke-linecap:round; stroke-linejoin:round; stroke-width:4; stroke-opacity:1; fill:none" points="965.37,1454.11 969.955,1453.96 973.96,1453.81 977.366,1453.66 980.161,1453.51 982.34,1453.36 983.907,1453.21 984.872,1453.06 985.254,1452.91 985.078,1452.76 984.378,1452.61 983.193,1452.46 981.568,1452.31 979.555,1452.16 977.211,1452.01 974.594,1451.86 971.768,1451.71 968.798,1451.56 965.75,1451.41 962.691,1451.26 959.686,1451.12 956.798,1450.97 954.089,1450.82 951.617,1450.67 949.435,1450.52 947.591,1450.37 946.128,1450.22 945.082,1450.07 944.484,1449.92 944.356,1449.77 944.714,1449.62 945.565,1449.47 946.912,1449.32 948.746,1449.17 951.053,1449.02 953.813,1448.87 956.997,1448.72 960.57,1448.57 964.492,1448.42 968.716,1448.27 973.191,1448.12 977.86,1447.97 982.665,1447.82 987.542,1447.67 992.426,1447.52 997.25,1447.37 1001.95,1447.22 1006.45,1447.07 1010.69,1446.92 1014.61,1446.77 1018.14,1446.62 1021.21,1446.47 1023.79,1446.32 1025.81,1446.17 1027.23,1446.02 1028.02,1445.87 1028.13,1445.72 1027.55,1445.57 1026.25,1445.42 1024.22,1445.27 1021.47,1445.12 1017.99,1444.97 1013.8,1444.82 1008.91,1444.67 462.855,1444.67 457.971,1444.82 453.779,1444.97 450.3,1445.12 447.546,1445.27 445.521,1445.42 444.223,1445.57 443.639,1445.72 443.752,1445.87 444.536,1446.02 445.958,1446.17 447.98,1446.32 450.555,1446.47 453.634,1446.62 457.161,1446.77 461.076,1446.92 465.318,1447.07 469.821,1447.22 474.519,1447.37 479.343,1447.52 484.227,1447.67 489.104,1447.82 493.909,1447.97 498.578,1448.12 503.053,1448.27 507.277,1448.42 511.199,1448.57 514.772,1448.72 517.956,1448.87 520.716,1449.02 523.023,1449.17 524.857,1449.32 526.204,1449.47 527.055,1449.62 527.413,1449.77 527.285,1449.92 526.687,1450.07 525.641,1450.22 524.178,1450.37 522.334,1450.52 520.152,1450.67 517.68,1450.82 514.971,1450.97 512.083,1451.12 509.078,1451.26 506.019,1451.41 502.971,1451.56 500.001,1451.71 497.175,1451.86 494.558,1452.01 492.214,1452.16 490.201,1452.31 488.576,1452.46 487.391,1452.61 486.691,1452.76 486.515,1452.91 486.897,1453.06 487.862,1453.21 489.429,1453.36 491.608,1453.51 494.403,1453.66 497.809,1453.81 501.814,1453.96 506.399,1454.11 965.37,1454.11 "/>
<path clip-path="url(#clip172)" d="M2036.43 1438.42 L2041.2 1438.2 L2045.07 1437.99 L2048.01 1437.78 L2049.98 1437.56 L2050.98 1437.35 L2050.99 1437.13 L2050.03 1436.92 L2048.11 1436.7 L2045.26 1436.49 L2041.51 1436.28 L2036.9 1436.06 L2031.5 1435.85 L2025.35 1435.63 L2018.53 1435.42 L2011.11 1435.2 L2003.17 1434.99 L1994.79 1434.78 L1986.04 1434.56 L1977.02 1434.35 L1967.82 1434.13 L1958.5 1433.92 L1949.17 1433.7 L1939.89 1433.49 L1930.75 1433.28 L1921.81 1433.06 L1913.15 1432.85 L1904.82 1432.63 L1896.88 1432.42 L1889.38 1432.2 L1882.36 1431.99 L1875.85 1431.77 L1869.89 1431.56 L1864.49 1431.35 L1859.66 1431.13 L1855.41 1430.92 L1851.75 1430.7 L1848.65 1430.49 L1846.12 1430.27 L1844.13 1430.06 L1842.66 1429.85 L1841.68 1429.63 L1841.16 1429.42 L1841.06 1429.2 L1841.35 1428.99 L1841.99 1428.77 L1842.93 1428.56 L1844.13 1428.35 L1845.54 1428.13 L1847.14 1427.92 L1848.86 1427.7 L1850.68 1427.49 L1852.55 1427.27 L1854.42 1427.06 L1856.28 1426.85 L1858.07 1426.63 L1859.77 1426.42 L1861.34 1426.2 L1862.77 1425.99 L1864.02 1425.77 L1865.08 1425.56 L1865.92 1425.35 L1866.53 1425.13 L1866.9 1424.92 L1867.01 1424.7 L1866.86 1424.49 L1866.45 1424.27 L1865.77 1424.06 L1864.82 1423.84 L1863.61 1423.63 L1862.14 1423.42 L1860.41 1423.2 L1858.44 1422.99 L1856.24 1422.77 L1661.25 1422.77 L1659.05 1422.99 L1657.08 1423.2 L1655.35 1423.42 L1653.88 1423.63 L1652.67 1423.84 L1651.72 1424.06 L1651.04 1424.27 L1650.62 1424.49 L1650.48 1424.7 L1650.59 1424.92 L1650.96 1425.13 L1651.57 1425.35 L1652.41 1425.56 L1653.47 1425.77 L1654.72 1425.99 L1656.15 1426.2 L1657.72 1426.42 L1659.42 1426.63 L1661.21 1426.85 L1663.06 1427.06 L1664.94 1427.27 L1666.81 1427.49 L1668.62 1427.7 L1670.35 1427.92 L1671.94 1428.13 L1673.36 1428.35 L1674.56 1428.56 L1675.5 1428.77 L1676.14 1428.99 L1676.42 1429.2 L1676.33 1429.42 L1675.81 1429.63 L1674.83 1429.85 L1673.36 1430.06 L1671.37 1430.27 L1668.83 1430.49 L1665.74 1430.7 L1662.08 1430.92 L1657.83 1431.13 L1653 1431.35 L1647.6 1431.56 L1641.63 1431.77 L1635.13 1431.99 L1628.11 1432.2 L1620.61 1432.42 L1612.67 1432.63 L1604.34 1432.85 L1595.68 1433.06 L1586.74 1433.28 L1577.6 1433.49 L1568.32 1433.7 L1558.99 1433.92 L1549.67 1434.13 L1540.47 1434.35 L1531.45 1434.56 L1522.7 1434.78 L1514.32 1434.99 L1506.38 1435.2 L1498.96 1435.42 L1492.14 1435.63 L1485.99 1435.85 L1480.59 1436.06 L1475.98 1436.28 L1472.23 1436.49 L1469.38 1436.7 L1467.46 1436.92 L1466.5 1437.13 L1466.51 1437.35 L1467.51 1437.56 L1469.48 1437.78 L1472.42 1437.99 L1476.29 1438.2 L1481.06 1438.42 L2036.43 1438.42  Z" fill="#e26f46" fill-rule="evenodd" fill-opacity="1"/>
<polyline clip-path="url(#clip172)" style="stroke:#000000; stroke-linecap:round; stroke-linejoin:round; stroke-width:4; stroke-opacity:1; fill:none" points="2036.43,1438.42 2041.2,1438.2 2045.07,1437.99 2048.01,1437.78 2049.98,1437.56 2050.98,1437.35 2050.99,1437.13 2050.03,1436.92 2048.11,1436.7 2045.26,1436.49 2041.51,1436.28 2036.9,1436.06 2031.5,1435.85 2025.35,1435.63 2018.53,1435.42 2011.11,1435.2 2003.17,1434.99 1994.79,1434.78 1986.04,1434.56 1977.02,1434.35 1967.82,1434.13 1958.5,1433.92 1949.17,1433.7 1939.89,1433.49 1930.75,1433.28 1921.81,1433.06 1913.15,1432.85 1904.82,1432.63 1896.88,1432.42 1889.38,1432.2 1882.36,1431.99 1875.85,1431.77 1869.89,1431.56 1864.49,1431.35 1859.66,1431.13 1855.41,1430.92 1851.75,1430.7 1848.65,1430.49 1846.12,1430.27 1844.13,1430.06 1842.66,1429.85 1841.68,1429.63 1841.16,1429.42 1841.06,1429.2 1841.35,1428.99 1841.99,1428.77 1842.93,1428.56 1844.13,1428.35 1845.54,1428.13 1847.14,1427.92 1848.86,1427.7 1850.68,1427.49 1852.55,1427.27 1854.42,1427.06 1856.28,1426.85 1858.07,1426.63 1859.77,1426.42 1861.34,1426.2 1862.77,1425.99 1864.02,1425.77 1865.08,1425.56 1865.92,1425.35 1866.53,1425.13 1866.9,1424.92 1867.01,1424.7 1866.86,1424.49 1866.45,1424.27 1865.77,1424.06 1864.82,1423.84 1863.61,1423.63 1862.14,1423.42 1860.41,1423.2 1858.44,1422.99 1856.24,1422.77 1661.25,1422.77 1659.05,1422.99 1657.08,1423.2 1655.35,1423.42 1653.88,1423.63 1652.67,1423.84 1651.72,1424.06 1651.04,1424.27 1650.62,1424.49 1650.48,1424.7 1650.59,1424.92 1650.96,1425.13 1651.57,1425.35 1652.41,1425.56 1653.47,1425.77 1654.72,1425.99 1656.15,1426.2 1657.72,1426.42 1659.42,1426.63 1661.21,1426.85 1663.06,1427.06 1664.94,1427.27 1666.81,1427.49 1668.62,1427.7 1670.35,1427.92 1671.94,1428.13 1673.36,1428.35 1674.56,1428.56 1675.5,1428.77 1676.14,1428.99 1676.42,1429.2 1676.33,1429.42 1675.81,1429.63 1674.83,1429.85 1673.36,1430.06 1671.37,1430.27 1668.83,1430.49 1665.74,1430.7 1662.08,1430.92 1657.83,1431.13 1653,1431.35 1647.6,1431.56 1641.63,1431.77 1635.13,1431.99 1628.11,1432.2 1620.61,1432.42 1612.67,1432.63 1604.34,1432.85 1595.68,1433.06 1586.74,1433.28 1577.6,1433.49 1568.32,1433.7 1558.99,1433.92 1549.67,1434.13 1540.47,1434.35 1531.45,1434.56 1522.7,1434.78 1514.32,1434.99 1506.38,1435.2 1498.96,1435.42 1492.14,1435.63 1485.99,1435.85 1480.59,1436.06 1475.98,1436.28 1472.23,1436.49 1469.38,1436.7 1467.46,1436.92 1466.5,1437.13 1466.51,1437.35 1467.51,1437.56 1469.48,1437.78 1472.42,1437.99 1476.29,1438.2 1481.06,1438.42 2036.43,1438.42 "/>
<path clip-path="url(#clip172)" d="M3073.85 104.927 L3073.27 104.644 L3071.78 104.361 L3069.4 104.077 L3066.16 103.794 L3062.11 103.511 L3057.29 103.228 L3051.76 102.945 L3045.59 102.662 L3038.86 102.378 L3031.65 102.095 L3024.03 101.812 L3016.1 101.529 L3007.95 101.246 L2999.67 100.963 L2991.36 100.68 L2983.1 100.396 L2974.99 100.113 L2967.12 99.8301 L2959.57 99.547 L2952.43 99.2638 L2945.77 98.9807 L2939.66 98.6975 L2934.17 98.4143 L2929.35 98.1312 L2925.25 97.848 L2921.93 97.5649 L2919.4 97.2817 L2917.7 96.9986 L2916.85 96.7154 L2916.85 96.4323 L2917.7 96.1491 L2919.4 95.866 L2921.93 95.5828 L2925.25 95.2997 L2929.35 95.0165 L2934.17 94.7333 L2939.66 94.4502 L2945.77 94.167 L2952.43 93.8839 L2959.57 93.6007 L2967.12 93.3176 L2974.99 93.0344 L2983.1 92.7513 L2991.36 92.4681 L2999.67 92.185 L3007.95 91.9018 L3016.1 91.6187 L3024.03 91.3355 L3031.65 91.0523 L3038.86 90.7692 L3045.59 90.486 L3051.76 90.2029 L3057.29 89.9197 L3062.11 89.6366 L3066.16 89.3534 L3069.4 89.0703 L3071.78 88.7871 L3073.27 88.504 L3073.85 88.2208 L2489.36 88.2208 L2489.93 88.504 L2491.42 88.7871 L2493.81 89.0703 L2497.05 89.3534 L2501.1 89.6366 L2505.92 89.9197 L2511.45 90.2029 L2517.61 90.486 L2524.34 90.7692 L2531.56 91.0523 L2539.18 91.3355 L2547.11 91.6187 L2555.26 91.9018 L2563.54 92.185 L2571.85 92.4681 L2580.11 92.7513 L2588.22 93.0344 L2596.09 93.3176 L2603.64 93.6007 L2610.78 93.8839 L2617.44 94.167 L2623.55 94.4502 L2629.04 94.7333 L2633.86 95.0165 L2637.95 95.2997 L2641.28 95.5828 L2643.81 95.866 L2645.5 96.1491 L2646.36 96.4323 L2646.36 96.7154 L2645.5 96.9986 L2643.81 97.2817 L2641.28 97.5649 L2637.95 97.848 L2633.86 98.1312 L2629.04 98.4143 L2623.55 98.6975 L2617.44 98.9807 L2610.78 99.2638 L2603.64 99.547 L2596.09 99.8301 L2588.22 100.113 L2580.11 100.396 L2571.85 100.68 L2563.54 100.963 L2555.26 101.246 L2547.11 101.529 L2539.18 101.812 L2531.56 102.095 L2524.34 102.378 L2517.61 102.662 L2511.45 102.945 L2505.92 103.228 L2501.1 103.511 L2497.05 103.794 L2493.81 104.077 L2491.42 104.361 L2489.93 104.644 L2489.36 104.927 L3073.85 104.927  Z" fill="#3da44d" fill-rule="evenodd" fill-opacity="1"/>
<polyline clip-path="url(#clip172)" style="stroke:#000000; stroke-linecap:round; stroke-linejoin:round; stroke-width:4; stroke-opacity:1; fill:none" points="3073.85,104.927 3073.27,104.644 3071.78,104.361 3069.4,104.077 3066.16,103.794 3062.11,103.511 3057.29,103.228 3051.76,102.945 3045.59,102.662 3038.86,102.378 3031.65,102.095 3024.03,101.812 3016.1,101.529 3007.95,101.246 2999.67,100.963 2991.36,100.68 2983.1,100.396 2974.99,100.113 2967.12,99.8301 2959.57,99.547 2952.43,99.2638 2945.77,98.9807 2939.66,98.6975 2934.17,98.4143 2929.35,98.1312 2925.25,97.848 2921.93,97.5649 2919.4,97.2817 2917.7,96.9986 2916.85,96.7154 2916.85,96.4323 2917.7,96.1491 2919.4,95.866 2921.93,95.5828 2925.25,95.2997 2929.35,95.0165 2934.17,94.7333 2939.66,94.4502 2945.77,94.167 2952.43,93.8839 2959.57,93.6007 2967.12,93.3176 2974.99,93.0344 2983.1,92.7513 2991.36,92.4681 2999.67,92.185 3007.95,91.9018 3016.1,91.6187 3024.03,91.3355 3031.65,91.0523 3038.86,90.7692 3045.59,90.486 3051.76,90.2029 3057.29,89.9197 3062.11,89.6366 3066.16,89.3534 3069.4,89.0703 3071.78,88.7871 3073.27,88.504 3073.85,88.2208 2489.36,88.2208 2489.93,88.504 2491.42,88.7871 2493.81,89.0703 2497.05,89.3534 2501.1,89.6366 2505.92,89.9197 2511.45,90.2029 2517.61,90.486 2524.34,90.7692 2531.56,91.0523 2539.18,91.3355 2547.11,91.6187 2555.26,91.9018 2563.54,92.185 2571.85,92.4681 2580.11,92.7513 2588.22,93.0344 2596.09,93.3176 2603.64,93.6007 2610.78,93.8839 2617.44,94.167 2623.55,94.4502 2629.04,94.7333 2633.86,95.0165 2637.95,95.2997 2641.28,95.5828 2643.81,95.866 2645.5,96.1491 2646.36,96.4323 2646.36,96.7154 2645.5,96.9986 2643.81,97.2817 2641.28,97.5649 2637.95,97.848 2633.86,98.1312 2629.04,98.4143 2623.55,98.6975 2617.44,98.9807 2610.78,99.2638 2603.64,99.547 2596.09,99.8301 2588.22,100.113 2580.11,100.396 2571.85,100.68 2563.54,100.963 2555.26,101.246 2547.11,101.529 2539.18,101.812 2531.56,102.095 2524.34,102.378 2517.61,102.662 2511.45,102.945 2505.92,103.228 2501.1,103.511 2497.05,103.794 2493.81,104.077 2491.42,104.361 2489.93,104.644 2489.36,104.927 3073.85,104.927 "/>
</svg>
