<?xml version="1.0" encoding="utf-8"?>
<svg xmlns="http://www.w3.org/2000/svg" xmlns:xlink="http://www.w3.org/1999/xlink" width="800" height="400" viewBox="0 0 3200 1600">
<defs>
  <clipPath id="clip230">
    <rect x="0" y="0" width="3200" height="1600"/>
  </clipPath>
</defs>
<path clip-path="url(#clip230)" d="M0 1600 L3200 1600 L3200 0 L0 0  Z" fill="#ffffff" fill-rule="evenodd" fill-opacity="1"/>
<defs>
  <clipPath id="clip231">
    <rect x="365" y="47" width="2788" height="1449"/>
  </clipPath>
</defs>
<path clip-path="url(#clip230)" d="M365.777 1495.09 L3152.76 1495.09 L3152.76 47.2441 L365.777 47.2441  Z" fill="#ffffff" fill-rule="evenodd" fill-opacity="1"/>
<polyline clip-path="url(#clip231)" style="stroke:#000000; stroke-linecap:round; stroke-linejoin:round; stroke-width:2; stroke-opacity:0.1; fill:none" points="736.79,1495.09 736.79,47.2441 "/>
<polyline clip-path="url(#clip231)" style="stroke:#000000; stroke-linecap:round; stroke-linejoin:round; stroke-width:2; stroke-opacity:0.1; fill:none" points="1759.27,1495.09 1759.27,47.2441 "/>
<polyline clip-path="url(#clip231)" style="stroke:#000000; stroke-linecap:round; stroke-linejoin:round; stroke-width:2; stroke-opacity:0.1; fill:none" points="2781.74,1495.09 2781.74,47.2441 "/>
<polyline clip-path="url(#clip231)" style="stroke:#000000; stroke-linecap:round; stroke-linejoin:round; stroke-width:2; stroke-opacity:0.1; fill:none" points="365.777,1444.9 3152.76,1444.9 "/>
<polyline clip-path="url(#clip231)" style="stroke:#000000; stroke-linecap:round; stroke-linejoin:round; stroke-width:2; stroke-opacity:0.1; fill:none" points="365.777,1236.25 3152.76,1236.25 "/>
<polyline clip-path="url(#clip231)" style="stroke:#000000; stroke-linecap:round; stroke-linejoin:round; stroke-width:2; stroke-opacity:0.1; fill:none" points="365.777,1027.6 3152.76,1027.6 "/>
<polyline clip-path="url(#clip231)" style="stroke:#000000; stroke-linecap:round; stroke-linejoin:round; stroke-width:2; stroke-opacity:0.1; fill:none" points="365.777,818.955 3152.76,818.955 "/>
<polyline clip-path="url(#clip231)" style="stroke:#000000; stroke-linecap:round; stroke-linejoin:round; stroke-width:2; stroke-opacity:0.1; fill:none" points="365.777,610.309 3152.76,610.309 "/>
<polyline clip-path="url(#clip231)" style="stroke:#000000; stroke-linecap:round; stroke-linejoin:round; stroke-width:2; stroke-opacity:0.1; fill:none" points="365.777,401.662 3152.76,401.662 "/>
<polyline clip-path="url(#clip231)" style="stroke:#000000; stroke-linecap:round; stroke-linejoin:round; stroke-width:2; stroke-opacity:0.1; fill:none" points="365.777,193.015 3152.76,193.015 "/>
<polyline clip-path="url(#clip230)" style="stroke:#000000; stroke-linecap:round; stroke-linejoin:round; stroke-width:4; stroke-opacity:1; fill:none" points="365.777,1495.09 3152.76,1495.09 "/>
<polyline clip-path="url(#clip230)" style="stroke:#000000; stroke-linecap:round; stroke-linejoin:round; stroke-width:4; stroke-opacity:1; fill:none" points="736.79,1495.09 736.79,1476.19 "/>
<polyline clip-path="url(#clip230)" style="stroke:#000000; stroke-linecap:round; stroke-linejoin:round; stroke-width:4; stroke-opacity:1; fill:none" points="1759.27,1495.09 1759.27,1476.19 "/>
<polyline clip-path="url(#clip230)" style="stroke:#000000; stroke-linecap:round; stroke-linejoin:round; stroke-width:4; stroke-opacity:1; fill:none" points="2781.74,1495.09 2781.74,1476.19 "/>
<path clip-path="url(#clip230)" d="M652.751 1538.73 L652.751 1542.75 Q650.946 1541.83 649.001 1541.36 Q647.057 1540.9 644.973 1540.9 Q641.802 1540.9 640.205 1541.87 Q638.631 1542.85 638.631 1544.79 Q638.631 1546.27 639.765 1547.13 Q640.899 1547.96 644.325 1548.73 L645.784 1549.05 Q650.321 1550.02 652.219 1551.8 Q654.14 1553.56 654.14 1556.74 Q654.14 1560.35 651.27 1562.45 Q648.422 1564.56 643.422 1564.56 Q641.339 1564.56 639.071 1564.14 Q636.825 1563.75 634.325 1562.94 L634.325 1558.54 Q636.686 1559.77 638.978 1560.39 Q641.27 1560.99 643.515 1560.99 Q646.524 1560.99 648.145 1559.98 Q649.765 1558.93 649.765 1557.06 Q649.765 1555.32 648.584 1554.4 Q647.427 1553.47 643.469 1552.61 L641.987 1552.27 Q638.029 1551.43 636.27 1549.72 Q634.51 1547.99 634.51 1544.98 Q634.51 1541.32 637.103 1539.33 Q639.696 1537.34 644.464 1537.34 Q646.825 1537.34 648.909 1537.68 Q650.992 1538.03 652.751 1538.73 Z" fill="#000000" fill-rule="nonzero" fill-opacity="1" /><path clip-path="url(#clip230)" d="M671.709 1566.3 Q669.904 1570.92 668.191 1572.34 Q666.478 1573.75 663.608 1573.75 L660.205 1573.75 L660.205 1570.18 L662.705 1570.18 Q664.464 1570.18 665.436 1569.35 Q666.408 1568.52 667.589 1565.42 L668.353 1563.47 L657.867 1537.96 L662.381 1537.96 L670.483 1558.24 L678.584 1537.96 L683.098 1537.96 L671.709 1566.3 Z" fill="#000000" fill-rule="nonzero" fill-opacity="1" /><path clip-path="url(#clip230)" d="M709.163 1542.94 Q710.76 1540.07 712.982 1538.7 Q715.204 1537.34 718.214 1537.34 Q722.265 1537.34 724.464 1540.18 Q726.663 1543.01 726.663 1548.24 L726.663 1563.89 L722.38 1563.89 L722.38 1548.38 Q722.38 1544.65 721.061 1542.85 Q719.742 1541.04 717.033 1541.04 Q713.723 1541.04 711.802 1543.24 Q709.88 1545.44 709.88 1549.24 L709.88 1563.89 L705.598 1563.89 L705.598 1548.38 Q705.598 1544.63 704.279 1542.85 Q702.959 1541.04 700.205 1541.04 Q696.941 1541.04 695.019 1543.26 Q693.098 1545.46 693.098 1549.24 L693.098 1563.89 L688.816 1563.89 L688.816 1537.96 L693.098 1537.96 L693.098 1541.99 Q694.556 1539.61 696.593 1538.47 Q698.631 1537.34 701.431 1537.34 Q704.255 1537.34 706.223 1538.77 Q708.214 1540.21 709.163 1542.94 Z" fill="#000000" fill-rule="nonzero" fill-opacity="1" /><path clip-path="url(#clip230)" d="M753.769 1550.95 Q753.769 1546.25 751.825 1543.59 Q749.903 1540.9 746.524 1540.9 Q743.144 1540.9 741.2 1543.59 Q739.278 1546.25 739.278 1550.95 Q739.278 1555.65 741.2 1558.33 Q743.144 1560.99 746.524 1560.99 Q749.903 1560.99 751.825 1558.33 Q753.769 1555.65 753.769 1550.95 M739.278 1541.9 Q740.621 1539.58 742.658 1538.47 Q744.718 1537.34 747.565 1537.34 Q752.288 1537.34 755.227 1541.09 Q758.19 1544.84 758.19 1550.95 Q758.19 1557.06 755.227 1560.81 Q752.288 1564.56 747.565 1564.56 Q744.718 1564.56 742.658 1563.45 Q740.621 1562.31 739.278 1560 L739.278 1563.89 L734.996 1563.89 L734.996 1527.87 L739.278 1527.87 L739.278 1541.9 Z" fill="#000000" fill-rule="nonzero" fill-opacity="1" /><path clip-path="url(#clip230)" d="M775.297 1540.95 Q771.871 1540.95 769.88 1543.63 Q767.889 1546.3 767.889 1550.95 Q767.889 1555.6 769.857 1558.29 Q771.848 1560.95 775.297 1560.95 Q778.7 1560.95 780.69 1558.26 Q782.681 1555.58 782.681 1550.95 Q782.681 1546.34 780.69 1543.66 Q778.7 1540.95 775.297 1540.95 M775.297 1537.34 Q780.852 1537.34 784.024 1540.95 Q787.195 1544.56 787.195 1550.95 Q787.195 1557.31 784.024 1560.95 Q780.852 1564.56 775.297 1564.56 Q769.718 1564.56 766.547 1560.95 Q763.399 1557.31 763.399 1550.95 Q763.399 1544.56 766.547 1540.95 Q769.718 1537.34 775.297 1537.34 Z" fill="#000000" fill-rule="nonzero" fill-opacity="1" /><path clip-path="url(#clip230)" d="M794.255 1527.87 L798.514 1527.87 L798.514 1563.89 L794.255 1563.89 L794.255 1527.87 Z" fill="#000000" fill-rule="nonzero" fill-opacity="1" /><path clip-path="url(#clip230)" d="M807.426 1537.96 L811.685 1537.96 L811.685 1563.89 L807.426 1563.89 L807.426 1537.96 M807.426 1527.87 L811.685 1527.87 L811.685 1533.26 L807.426 1533.26 L807.426 1527.87 Z" fill="#000000" fill-rule="nonzero" fill-opacity="1" /><path clip-path="url(#clip230)" d="M839.255 1538.96 L839.255 1542.94 Q837.449 1541.94 835.621 1541.46 Q833.815 1540.95 831.963 1540.95 Q827.82 1540.95 825.528 1543.59 Q823.236 1546.2 823.236 1550.95 Q823.236 1555.69 825.528 1558.33 Q827.82 1560.95 831.963 1560.95 Q833.815 1560.95 835.621 1560.46 Q837.449 1559.95 839.255 1558.96 L839.255 1562.89 Q837.472 1563.73 835.551 1564.14 Q833.653 1564.56 831.5 1564.56 Q825.644 1564.56 822.195 1560.88 Q818.746 1557.2 818.746 1550.95 Q818.746 1544.61 822.218 1540.97 Q825.713 1537.34 831.778 1537.34 Q833.746 1537.34 835.621 1537.75 Q837.496 1538.15 839.255 1538.96 Z" fill="#000000" fill-rule="nonzero" fill-opacity="1" /><path clip-path="url(#clip230)" d="M1669.59 1527.87 L1669.59 1531.41 L1665.52 1531.41 Q1663.23 1531.41 1662.32 1532.34 Q1661.44 1533.26 1661.44 1535.67 L1661.44 1537.96 L1668.46 1537.96 L1668.46 1541.27 L1661.44 1541.27 L1661.44 1563.89 L1657.16 1563.89 L1657.16 1541.27 L1653.09 1541.27 L1653.09 1537.96 L1657.16 1537.96 L1657.16 1536.16 Q1657.16 1531.83 1659.17 1529.86 Q1661.19 1527.87 1665.56 1527.87 L1669.59 1527.87 Z" fill="#000000" fill-rule="nonzero" fill-opacity="1" /><path clip-path="url(#clip230)" d="M1673.16 1537.96 L1677.42 1537.96 L1677.42 1563.89 L1673.16 1563.89 L1673.16 1537.96 M1673.16 1527.87 L1677.42 1527.87 L1677.42 1533.26 L1673.16 1533.26 L1673.16 1527.87 Z" fill="#000000" fill-rule="nonzero" fill-opacity="1" /><path clip-path="url(#clip230)" d="M1707.88 1548.24 L1707.88 1563.89 L1703.62 1563.89 L1703.62 1548.38 Q1703.62 1544.7 1702.18 1542.87 Q1700.75 1541.04 1697.88 1541.04 Q1694.43 1541.04 1692.44 1543.24 Q1690.45 1545.44 1690.45 1549.24 L1690.45 1563.89 L1686.17 1563.89 L1686.17 1537.96 L1690.45 1537.96 L1690.45 1541.99 Q1691.98 1539.65 1694.04 1538.49 Q1696.12 1537.34 1698.83 1537.34 Q1703.29 1537.34 1705.59 1540.11 Q1707.88 1542.87 1707.88 1548.24 Z" fill="#000000" fill-rule="nonzero" fill-opacity="1" /><path clip-path="url(#clip230)" d="M1716.37 1537.96 L1720.63 1537.96 L1720.63 1563.89 L1716.37 1563.89 L1716.37 1537.96 M1716.37 1527.87 L1720.63 1527.87 L1720.63 1533.26 L1716.37 1533.26 L1716.37 1527.87 Z" fill="#000000" fill-rule="nonzero" fill-opacity="1" /><path clip-path="url(#clip230)" d="M1733.76 1530.6 L1733.76 1537.96 L1742.53 1537.96 L1742.53 1541.27 L1733.76 1541.27 L1733.76 1555.35 Q1733.76 1558.52 1734.61 1559.42 Q1735.49 1560.32 1738.16 1560.32 L1742.53 1560.32 L1742.53 1563.89 L1738.16 1563.89 Q1733.22 1563.89 1731.35 1562.06 Q1729.48 1560.21 1729.48 1555.35 L1729.48 1541.27 L1726.35 1541.27 L1726.35 1537.96 L1729.48 1537.96 L1729.48 1530.6 L1733.76 1530.6 Z" fill="#000000" fill-rule="nonzero" fill-opacity="1" /><path clip-path="url(#clip230)" d="M1770.31 1549.86 L1770.31 1551.94 L1750.72 1551.94 Q1751 1556.34 1753.36 1558.66 Q1755.75 1560.95 1759.98 1560.95 Q1762.44 1560.95 1764.73 1560.35 Q1767.04 1559.74 1769.31 1558.54 L1769.31 1562.57 Q1767.02 1563.54 1764.61 1564.05 Q1762.21 1564.56 1759.73 1564.56 Q1753.53 1564.56 1749.89 1560.95 Q1746.28 1557.34 1746.28 1551.18 Q1746.28 1544.81 1749.71 1541.09 Q1753.16 1537.34 1758.99 1537.34 Q1764.22 1537.34 1767.25 1540.72 Q1770.31 1544.07 1770.31 1549.86 M1766.05 1548.61 Q1766 1545.11 1764.08 1543.03 Q1762.18 1540.95 1759.04 1540.95 Q1755.47 1540.95 1753.32 1542.96 Q1751.19 1544.98 1750.86 1548.63 L1766.05 1548.61 Z" fill="#000000" fill-rule="nonzero" fill-opacity="1" /><path clip-path="url(#clip230)" d="M1809.43 1541.9 L1809.43 1527.87 L1813.69 1527.87 L1813.69 1563.89 L1809.43 1563.89 L1809.43 1560 Q1808.09 1562.31 1806.03 1563.45 Q1803.99 1564.56 1801.12 1564.56 Q1796.42 1564.56 1793.46 1560.81 Q1790.52 1557.06 1790.52 1550.95 Q1790.52 1544.84 1793.46 1541.09 Q1796.42 1537.34 1801.12 1537.34 Q1803.99 1537.34 1806.03 1538.47 Q1808.09 1539.58 1809.43 1541.9 M1794.91 1550.95 Q1794.91 1555.65 1796.84 1558.33 Q1798.78 1560.99 1802.16 1560.99 Q1805.54 1560.99 1807.48 1558.33 Q1809.43 1555.65 1809.43 1550.95 Q1809.43 1546.25 1807.48 1543.59 Q1805.54 1540.9 1802.16 1540.9 Q1798.78 1540.9 1796.84 1543.59 Q1794.91 1546.25 1794.91 1550.95 Z" fill="#000000" fill-rule="nonzero" fill-opacity="1" /><path clip-path="url(#clip230)" d="M1822.46 1537.96 L1826.72 1537.96 L1826.72 1563.89 L1822.46 1563.89 L1822.46 1537.96 M1822.46 1527.87 L1826.72 1527.87 L1826.72 1533.26 L1822.46 1533.26 L1822.46 1527.87 Z" fill="#000000" fill-rule="nonzero" fill-opacity="1" /><path clip-path="url(#clip230)" d="M1848.76 1527.87 L1848.76 1531.41 L1844.68 1531.41 Q1842.39 1531.41 1841.49 1532.34 Q1840.61 1533.26 1840.61 1535.67 L1840.61 1537.96 L1847.62 1537.96 L1847.62 1541.27 L1840.61 1541.27 L1840.61 1563.89 L1836.33 1563.89 L1836.33 1541.27 L1832.25 1541.27 L1832.25 1537.96 L1836.33 1537.96 L1836.33 1536.16 Q1836.33 1531.83 1838.34 1529.86 Q1840.35 1527.87 1844.73 1527.87 L1848.76 1527.87 Z" fill="#000000" fill-rule="nonzero" fill-opacity="1" /><path clip-path="url(#clip230)" d="M1865.45 1527.87 L1865.45 1531.41 L1861.37 1531.41 Q1859.08 1531.41 1858.18 1532.34 Q1857.3 1533.26 1857.3 1535.67 L1857.3 1537.96 L1864.31 1537.96 L1864.31 1541.27 L1857.3 1541.27 L1857.3 1563.89 L1853.02 1563.89 L1853.02 1541.27 L1848.94 1541.27 L1848.94 1537.96 L1853.02 1537.96 L1853.02 1536.16 Q1853.02 1531.83 1855.03 1529.86 Q1857.04 1527.87 1861.42 1527.87 L1865.45 1527.87 Z" fill="#000000" fill-rule="nonzero" fill-opacity="1" /><path clip-path="url(#clip230)" d="M2661.6 1527.87 L2661.6 1531.41 L2657.53 1531.41 Q2655.24 1531.41 2654.34 1532.34 Q2653.46 1533.26 2653.46 1535.67 L2653.46 1537.96 L2660.47 1537.96 L2660.47 1541.27 L2653.46 1541.27 L2653.46 1563.89 L2649.17 1563.89 L2649.17 1541.27 L2645.1 1541.27 L2645.1 1537.96 L2649.17 1537.96 L2649.17 1536.16 Q2649.17 1531.83 2651.19 1529.86 Q2653.2 1527.87 2657.58 1527.87 L2661.6 1527.87 Z" fill="#000000" fill-rule="nonzero" fill-opacity="1" /><path clip-path="url(#clip230)" d="M2675.22 1540.95 Q2671.79 1540.95 2669.8 1543.63 Q2667.81 1546.3 2667.81 1550.95 Q2667.81 1555.6 2669.78 1558.29 Q2671.77 1560.95 2675.22 1560.95 Q2678.62 1560.95 2680.61 1558.26 Q2682.6 1555.58 2682.6 1550.95 Q2682.6 1546.34 2680.61 1543.66 Q2678.62 1540.95 2675.22 1540.95 M2675.22 1537.34 Q2680.77 1537.34 2683.94 1540.95 Q2687.11 1544.56 2687.11 1550.95 Q2687.11 1557.31 2683.94 1560.95 Q2680.77 1564.56 2675.22 1564.56 Q2669.64 1564.56 2666.47 1560.95 Q2663.32 1557.31 2663.32 1550.95 Q2663.32 1544.56 2666.47 1540.95 Q2669.64 1537.34 2675.22 1537.34 Z" fill="#000000" fill-rule="nonzero" fill-opacity="1" /><path clip-path="url(#clip230)" d="M2709.2 1541.94 Q2708.48 1541.53 2707.62 1541.34 Q2706.79 1541.13 2705.77 1541.13 Q2702.16 1541.13 2700.22 1543.49 Q2698.29 1545.83 2698.29 1550.23 L2698.29 1563.89 L2694.01 1563.89 L2694.01 1537.96 L2698.29 1537.96 L2698.29 1541.99 Q2699.64 1539.63 2701.79 1538.49 Q2703.94 1537.34 2707.02 1537.34 Q2707.46 1537.34 2707.99 1537.41 Q2708.53 1537.45 2709.17 1537.57 L2709.2 1541.94 Z" fill="#000000" fill-rule="nonzero" fill-opacity="1" /><path clip-path="url(#clip230)" d="M2711.19 1537.96 L2715.45 1537.96 L2720.77 1558.19 L2726.07 1537.96 L2731.1 1537.96 L2736.42 1558.19 L2741.72 1537.96 L2745.98 1537.96 L2739.2 1563.89 L2734.17 1563.89 L2728.6 1542.64 L2722.99 1563.89 L2717.97 1563.89 L2711.19 1537.96 Z" fill="#000000" fill-rule="nonzero" fill-opacity="1" /><path clip-path="url(#clip230)" d="M2764.22 1550.86 Q2759.06 1550.86 2757.07 1552.04 Q2755.08 1553.22 2755.08 1556.06 Q2755.08 1558.33 2756.56 1559.67 Q2758.06 1560.99 2760.63 1560.99 Q2764.17 1560.99 2766.3 1558.49 Q2768.46 1555.97 2768.46 1551.8 L2768.46 1550.86 L2764.22 1550.86 M2772.72 1549.1 L2772.72 1563.89 L2768.46 1563.89 L2768.46 1559.95 Q2767 1562.31 2764.82 1563.45 Q2762.65 1564.56 2759.5 1564.56 Q2755.52 1564.56 2753.16 1562.34 Q2750.82 1560.09 2750.82 1556.34 Q2750.82 1551.97 2753.73 1549.74 Q2756.67 1547.52 2762.48 1547.52 L2768.46 1547.52 L2768.46 1547.11 Q2768.46 1544.17 2766.51 1542.57 Q2764.59 1540.95 2761.09 1540.95 Q2758.87 1540.95 2756.77 1541.48 Q2754.66 1542.01 2752.72 1543.08 L2752.72 1539.14 Q2755.05 1538.24 2757.25 1537.8 Q2759.45 1537.34 2761.53 1537.34 Q2767.16 1537.34 2769.94 1540.25 Q2772.72 1543.17 2772.72 1549.1 Z" fill="#000000" fill-rule="nonzero" fill-opacity="1" /><path clip-path="url(#clip230)" d="M2796.51 1541.94 Q2795.79 1541.53 2794.94 1541.34 Q2794.1 1541.13 2793.09 1541.13 Q2789.47 1541.13 2787.53 1543.49 Q2785.61 1545.83 2785.61 1550.23 L2785.61 1563.89 L2781.33 1563.89 L2781.33 1537.96 L2785.61 1537.96 L2785.61 1541.99 Q2786.95 1539.63 2789.1 1538.49 Q2791.26 1537.34 2794.34 1537.34 Q2794.78 1537.34 2795.31 1537.41 Q2795.84 1537.45 2796.49 1537.57 L2796.51 1541.94 Z" fill="#000000" fill-rule="nonzero" fill-opacity="1" /><path clip-path="url(#clip230)" d="M2817.21 1541.9 L2817.21 1527.87 L2821.47 1527.87 L2821.47 1563.89 L2817.21 1563.89 L2817.21 1560 Q2815.86 1562.31 2813.8 1563.45 Q2811.77 1564.56 2808.9 1564.56 Q2804.2 1564.56 2801.23 1560.81 Q2798.29 1557.06 2798.29 1550.95 Q2798.29 1544.84 2801.23 1541.09 Q2804.2 1537.34 2808.9 1537.34 Q2811.77 1537.34 2813.8 1538.47 Q2815.86 1539.58 2817.21 1541.9 M2802.69 1550.95 Q2802.69 1555.65 2804.61 1558.33 Q2806.56 1560.99 2809.94 1560.99 Q2813.32 1560.99 2815.26 1558.33 Q2817.21 1555.65 2817.21 1550.95 Q2817.21 1546.25 2815.26 1543.59 Q2813.32 1540.9 2809.94 1540.9 Q2806.56 1540.9 2804.61 1543.59 Q2802.69 1546.25 2802.69 1550.95 Z" fill="#000000" fill-rule="nonzero" fill-opacity="1" /><path clip-path="url(#clip230)" d="M2862.37 1541.9 L2862.37 1527.87 L2866.63 1527.87 L2866.63 1563.89 L2862.37 1563.89 L2862.37 1560 Q2861.02 1562.31 2858.96 1563.45 Q2856.93 1564.56 2854.06 1564.56 Q2849.36 1564.56 2846.4 1560.81 Q2843.46 1557.06 2843.46 1550.95 Q2843.46 1544.84 2846.4 1541.09 Q2849.36 1537.34 2854.06 1537.34 Q2856.93 1537.34 2858.96 1538.47 Q2861.02 1539.58 2862.37 1541.9 M2847.85 1550.95 Q2847.85 1555.65 2849.78 1558.33 Q2851.72 1560.99 2855.1 1560.99 Q2858.48 1560.99 2860.42 1558.33 Q2862.37 1555.65 2862.37 1550.95 Q2862.37 1546.25 2860.42 1543.59 Q2858.48 1540.9 2855.1 1540.9 Q2851.72 1540.9 2849.78 1543.59 Q2847.85 1546.25 2847.85 1550.95 Z" fill="#000000" fill-rule="nonzero" fill-opacity="1" /><path clip-path="url(#clip230)" d="M2875.4 1537.96 L2879.66 1537.96 L2879.66 1563.89 L2875.4 1563.89 L2875.4 1537.96 M2875.4 1527.87 L2879.66 1527.87 L2879.66 1533.26 L2875.4 1533.26 L2875.4 1527.87 Z" fill="#000000" fill-rule="nonzero" fill-opacity="1" /><path clip-path="url(#clip230)" d="M2901.7 1527.87 L2901.7 1531.41 L2897.62 1531.41 Q2895.33 1531.41 2894.43 1532.34 Q2893.55 1533.26 2893.55 1535.67 L2893.55 1537.96 L2900.56 1537.96 L2900.56 1541.27 L2893.55 1541.27 L2893.55 1563.89 L2889.27 1563.89 L2889.27 1541.27 L2885.19 1541.27 L2885.19 1537.96 L2889.27 1537.96 L2889.27 1536.16 Q2889.27 1531.83 2891.28 1529.86 Q2893.29 1527.87 2897.67 1527.87 L2901.7 1527.87 Z" fill="#000000" fill-rule="nonzero" fill-opacity="1" /><path clip-path="url(#clip230)" d="M2918.39 1527.87 L2918.39 1531.41 L2914.31 1531.41 Q2912.02 1531.41 2911.12 1532.34 Q2910.24 1533.26 2910.24 1535.67 L2910.24 1537.96 L2917.25 1537.96 L2917.25 1541.27 L2910.24 1541.27 L2910.24 1563.89 L2905.96 1563.89 L2905.96 1541.27 L2901.88 1541.27 L2901.88 1537.96 L2905.96 1537.96 L2905.96 1536.16 Q2905.96 1531.83 2907.97 1529.86 Q2909.98 1527.87 2914.36 1527.87 L2918.39 1527.87 Z" fill="#000000" fill-rule="nonzero" fill-opacity="1" /><polyline clip-path="url(#clip230)" style="stroke:#000000; stroke-linecap:round; stroke-linejoin:round; stroke-width:4; stroke-opacity:1; fill:none" points="365.777,1495.09 365.777,47.2441 "/>
<polyline clip-path="url(#clip230)" style="stroke:#000000; stroke-linecap:round; stroke-linejoin:round; stroke-width:4; stroke-opacity:1; fill:none" points="365.777,1444.9 384.675,1444.9 "/>
<polyline clip-path="url(#clip230)" style="stroke:#000000; stroke-linecap:round; stroke-linejoin:round; stroke-width:4; stroke-opacity:1; fill:none" points="365.777,1236.25 384.675,1236.25 "/>
<polyline clip-path="url(#clip230)" style="stroke:#000000; stroke-linecap:round; stroke-linejoin:round; stroke-width:4; stroke-opacity:1; fill:none" points="365.777,1027.6 384.675,1027.6 "/>
<polyline clip-path="url(#clip230)" style="stroke:#000000; stroke-linecap:round; stroke-linejoin:round; stroke-width:4; stroke-opacity:1; fill:none" points="365.777,818.955 384.675,818.955 "/>
<polyline clip-path="url(#clip230)" style="stroke:#000000; stroke-linecap:round; stroke-linejoin:round; stroke-width:4; stroke-opacity:1; fill:none" points="365.777,610.309 384.675,610.309 "/>
<polyline clip-path="url(#clip230)" style="stroke:#000000; stroke-linecap:round; stroke-linejoin:round; stroke-width:4; stroke-opacity:1; fill:none" points="365.777,401.662 384.675,401.662 "/>
<polyline clip-path="url(#clip230)" style="stroke:#000000; stroke-linecap:round; stroke-linejoin:round; stroke-width:4; stroke-opacity:1; fill:none" points="365.777,193.015 384.675,193.015 "/>
<path clip-path="url(#clip230)" d="M105.163 1464.69 L121.482 1464.69 L121.482 1468.62 L99.5376 1468.62 L99.5376 1464.69 Q102.2 1461.93 106.783 1457.3 Q111.389 1452.65 112.57 1451.31 Q114.815 1448.79 115.695 1447.05 Q116.598 1445.29 116.598 1443.6 Q116.598 1440.85 114.653 1439.11 Q112.732 1437.37 109.63 1437.37 Q107.431 1437.37 104.977 1438.14 Q102.547 1438.9 99.769 1440.45 L99.769 1435.73 Q102.593 1434.6 105.047 1434.02 Q107.5 1433.44 109.538 1433.44 Q114.908 1433.44 118.102 1436.12 Q121.297 1438.81 121.297 1443.3 Q121.297 1445.43 120.487 1447.35 Q119.699 1449.25 117.593 1451.84 Q117.014 1452.51 113.912 1455.73 Q110.811 1458.92 105.163 1464.69 Z" fill="#000000" fill-rule="nonzero" fill-opacity="1" /><path clip-path="url(#clip230)" d="M131.297 1462.74 L136.181 1462.74 L136.181 1468.62 L131.297 1468.62 L131.297 1462.74 Z" fill="#000000" fill-rule="nonzero" fill-opacity="1" /><path clip-path="url(#clip230)" d="M156.366 1437.14 Q152.755 1437.14 150.926 1440.71 Q149.121 1444.25 149.121 1451.38 Q149.121 1458.48 150.926 1462.05 Q152.755 1465.59 156.366 1465.59 Q160 1465.59 161.806 1462.05 Q163.634 1458.48 163.634 1451.38 Q163.634 1444.25 161.806 1440.71 Q160 1437.14 156.366 1437.14 M156.366 1433.44 Q162.176 1433.44 165.232 1438.04 Q168.31 1442.63 168.31 1451.38 Q168.31 1460.11 165.232 1464.71 Q162.176 1469.29 156.366 1469.29 Q150.556 1469.29 147.477 1464.71 Q144.422 1460.11 144.422 1451.38 Q144.422 1442.63 147.477 1438.04 Q150.556 1433.44 156.366 1433.44 Z" fill="#000000" fill-rule="nonzero" fill-opacity="1" /><path clip-path="url(#clip230)" d="M186.528 1437.14 Q182.917 1437.14 181.088 1440.71 Q179.283 1444.25 179.283 1451.38 Q179.283 1458.48 181.088 1462.05 Q182.917 1465.59 186.528 1465.59 Q190.162 1465.59 191.968 1462.05 Q193.796 1458.48 193.796 1451.38 Q193.796 1444.25 191.968 1440.71 Q190.162 1437.14 186.528 1437.14 M186.528 1433.44 Q192.338 1433.44 195.394 1438.04 Q198.472 1442.63 198.472 1451.38 Q198.472 1460.11 195.394 1464.71 Q192.338 1469.29 186.528 1469.29 Q180.718 1469.29 177.639 1464.71 Q174.583 1460.11 174.583 1451.38 Q174.583 1442.63 177.639 1438.04 Q180.718 1433.44 186.528 1433.44 Z" fill="#000000" fill-rule="nonzero" fill-opacity="1" /><path clip-path="url(#clip230)" d="M234.861 1443.16 L224.282 1453.79 L234.861 1464.36 L232.106 1467.17 L221.481 1456.54 L210.856 1467.17 L208.125 1464.36 L218.68 1453.79 L208.125 1443.16 L210.856 1440.36 L221.481 1450.98 L232.106 1440.36 L234.861 1443.16 Z" fill="#000000" fill-rule="nonzero" fill-opacity="1" /><path clip-path="url(#clip230)" d="M247.222 1464.69 L254.861 1464.69 L254.861 1438.32 L246.551 1439.99 L246.551 1435.73 L254.815 1434.06 L259.49 1434.06 L259.49 1464.69 L267.129 1464.69 L267.129 1468.62 L247.222 1468.62 L247.222 1464.69 Z" fill="#000000" fill-rule="nonzero" fill-opacity="1" /><path clip-path="url(#clip230)" d="M286.574 1437.14 Q282.963 1437.14 281.134 1440.71 Q279.328 1444.25 279.328 1451.38 Q279.328 1458.48 281.134 1462.05 Q282.963 1465.59 286.574 1465.59 Q290.208 1465.59 292.013 1462.05 Q293.842 1458.48 293.842 1451.38 Q293.842 1444.25 292.013 1440.71 Q290.208 1437.14 286.574 1437.14 M286.574 1433.44 Q292.384 1433.44 295.439 1438.04 Q298.518 1442.63 298.518 1451.38 Q298.518 1460.11 295.439 1464.71 Q292.384 1469.29 286.574 1469.29 Q280.763 1469.29 277.685 1464.71 Q274.629 1460.11 274.629 1451.38 Q274.629 1442.63 277.685 1438.04 Q280.763 1433.44 286.574 1433.44 Z" fill="#000000" fill-rule="nonzero" fill-opacity="1" /><path clip-path="url(#clip230)" d="M308.148 1427.88 Q305.439 1427.88 303.878 1429.33 Q302.336 1430.77 302.336 1433.31 Q302.336 1435.85 303.878 1437.3 Q305.439 1438.75 308.148 1438.75 Q310.856 1438.75 312.417 1437.3 Q313.978 1435.83 313.978 1433.31 Q313.978 1430.77 312.417 1429.33 Q310.875 1427.88 308.148 1427.88 M304.348 1426.26 Q301.903 1425.66 300.53 1423.99 Q299.176 1422.31 299.176 1419.9 Q299.176 1416.54 301.565 1414.58 Q303.972 1412.63 308.148 1412.63 Q312.342 1412.63 314.73 1414.58 Q317.119 1416.54 317.119 1419.9 Q317.119 1422.31 315.746 1423.99 Q314.392 1425.66 311.966 1426.26 Q314.711 1426.9 316.235 1428.76 Q317.777 1430.62 317.777 1433.31 Q317.777 1437.4 315.276 1439.58 Q312.793 1441.76 308.148 1441.76 Q303.502 1441.76 301.001 1439.58 Q298.518 1437.4 298.518 1433.31 Q298.518 1430.62 300.06 1428.76 Q301.602 1426.9 304.348 1426.26 M302.957 1420.26 Q302.957 1422.44 304.311 1423.67 Q305.684 1424.89 308.148 1424.89 Q310.593 1424.89 311.966 1423.67 Q313.357 1422.44 313.357 1420.26 Q313.357 1418.08 311.966 1416.86 Q310.593 1415.63 308.148 1415.63 Q305.684 1415.63 304.311 1416.86 Q302.957 1418.08 302.957 1420.26 Z" fill="#000000" fill-rule="nonzero" fill-opacity="1" /><path clip-path="url(#clip230)" d="M113.982 1229.49 L102.176 1247.94 L113.982 1247.94 L113.982 1229.49 M112.755 1225.42 L118.635 1225.42 L118.635 1247.94 L123.565 1247.94 L123.565 1251.83 L118.635 1251.83 L118.635 1259.98 L113.982 1259.98 L113.982 1251.83 L98.3802 1251.83 L98.3802 1247.31 L112.755 1225.42 Z" fill="#000000" fill-rule="nonzero" fill-opacity="1" /><path clip-path="url(#clip230)" d="M131.297 1254.1 L136.181 1254.1 L136.181 1259.98 L131.297 1259.98 L131.297 1254.1 Z" fill="#000000" fill-rule="nonzero" fill-opacity="1" /><path clip-path="url(#clip230)" d="M156.366 1228.5 Q152.755 1228.5 150.926 1232.06 Q149.121 1235.6 149.121 1242.73 Q149.121 1249.84 150.926 1253.4 Q152.755 1256.94 156.366 1256.94 Q160 1256.94 161.806 1253.4 Q163.634 1249.84 163.634 1242.73 Q163.634 1235.6 161.806 1232.06 Q160 1228.5 156.366 1228.5 M156.366 1224.79 Q162.176 1224.79 165.232 1229.4 Q168.31 1233.98 168.31 1242.73 Q168.31 1251.46 165.232 1256.06 Q162.176 1260.65 156.366 1260.65 Q150.556 1260.65 147.477 1256.06 Q144.422 1251.46 144.422 1242.73 Q144.422 1233.98 147.477 1229.4 Q150.556 1224.79 156.366 1224.79 Z" fill="#000000" fill-rule="nonzero" fill-opacity="1" /><path clip-path="url(#clip230)" d="M186.528 1228.5 Q182.917 1228.5 181.088 1232.06 Q179.283 1235.6 179.283 1242.73 Q179.283 1249.84 181.088 1253.4 Q182.917 1256.94 186.528 1256.94 Q190.162 1256.94 191.968 1253.4 Q193.796 1249.84 193.796 1242.73 Q193.796 1235.6 191.968 1232.06 Q190.162 1228.5 186.528 1228.5 M186.528 1224.79 Q192.338 1224.79 195.394 1229.4 Q198.472 1233.98 198.472 1242.73 Q198.472 1251.46 195.394 1256.06 Q192.338 1260.65 186.528 1260.65 Q180.718 1260.65 177.639 1256.06 Q174.583 1251.46 174.583 1242.73 Q174.583 1233.98 177.639 1229.4 Q180.718 1224.79 186.528 1224.79 Z" fill="#000000" fill-rule="nonzero" fill-opacity="1" /><path clip-path="url(#clip230)" d="M234.861 1234.51 L224.282 1245.14 L234.861 1255.72 L232.106 1258.52 L221.481 1247.89 L210.856 1258.52 L208.125 1255.72 L218.68 1245.14 L208.125 1234.51 L210.856 1231.71 L221.481 1242.34 L232.106 1231.71 L234.861 1234.51 Z" fill="#000000" fill-rule="nonzero" fill-opacity="1" /><path clip-path="url(#clip230)" d="M247.222 1256.04 L254.861 1256.04 L254.861 1229.68 L246.551 1231.34 L246.551 1227.08 L254.815 1225.42 L259.49 1225.42 L259.49 1256.04 L267.129 1256.04 L267.129 1259.98 L247.222 1259.98 L247.222 1256.04 Z" fill="#000000" fill-rule="nonzero" fill-opacity="1" /><path clip-path="url(#clip230)" d="M286.574 1228.5 Q282.963 1228.5 281.134 1232.06 Q279.328 1235.6 279.328 1242.73 Q279.328 1249.84 281.134 1253.4 Q282.963 1256.94 286.574 1256.94 Q290.208 1256.94 292.013 1253.4 Q293.842 1249.84 293.842 1242.73 Q293.842 1235.6 292.013 1232.06 Q290.208 1228.5 286.574 1228.5 M286.574 1224.79 Q292.384 1224.79 295.439 1229.4 Q298.518 1233.98 298.518 1242.73 Q298.518 1251.46 295.439 1256.06 Q292.384 1260.65 286.574 1260.65 Q280.763 1260.65 277.685 1256.06 Q274.629 1251.46 274.629 1242.73 Q274.629 1233.98 277.685 1229.4 Q280.763 1224.79 286.574 1224.79 Z" fill="#000000" fill-rule="nonzero" fill-opacity="1" /><path clip-path="url(#clip230)" d="M308.148 1219.23 Q305.439 1219.23 303.878 1220.68 Q302.336 1222.13 302.336 1224.67 Q302.336 1227.21 303.878 1228.65 Q305.439 1230.1 308.148 1230.1 Q310.856 1230.1 312.417 1228.65 Q313.978 1227.19 313.978 1224.67 Q313.978 1222.13 312.417 1220.68 Q310.875 1219.23 308.148 1219.23 M304.348 1217.61 Q301.903 1217.01 300.53 1215.34 Q299.176 1213.66 299.176 1211.26 Q299.176 1207.89 301.565 1205.93 Q303.972 1203.98 308.148 1203.98 Q312.342 1203.98 314.73 1205.93 Q317.119 1207.89 317.119 1211.26 Q317.119 1213.66 315.746 1215.34 Q314.392 1217.01 311.966 1217.61 Q314.711 1218.25 316.235 1220.12 Q317.777 1221.98 317.777 1224.67 Q317.777 1228.75 315.276 1230.93 Q312.793 1233.11 308.148 1233.11 Q303.502 1233.11 301.001 1230.93 Q298.518 1228.75 298.518 1224.67 Q298.518 1221.98 300.06 1220.12 Q301.602 1218.25 304.348 1217.61 M302.957 1211.61 Q302.957 1213.8 304.311 1215.02 Q305.684 1216.24 308.148 1216.24 Q310.593 1216.24 311.966 1215.02 Q313.357 1213.8 313.357 1211.61 Q313.357 1209.43 311.966 1208.21 Q310.593 1206.99 308.148 1206.99 Q305.684 1206.99 304.311 1208.21 Q302.957 1209.43 302.957 1211.61 Z" fill="#000000" fill-rule="nonzero" fill-opacity="1" /><path clip-path="url(#clip230)" d="M111.713 1032.19 Q108.565 1032.19 106.713 1034.34 Q104.885 1036.49 104.885 1040.24 Q104.885 1043.97 106.713 1046.14 Q108.565 1048.3 111.713 1048.3 Q114.862 1048.3 116.69 1046.14 Q118.542 1043.97 118.542 1040.24 Q118.542 1036.49 116.69 1034.34 Q114.862 1032.19 111.713 1032.19 M120.996 1017.53 L120.996 1021.79 Q119.237 1020.96 117.431 1020.52 Q115.649 1020.08 113.889 1020.08 Q109.26 1020.08 106.806 1023.21 Q104.375 1026.33 104.028 1032.65 Q105.394 1030.64 107.454 1029.57 Q109.514 1028.48 111.991 1028.48 Q117.2 1028.48 120.209 1031.65 Q123.241 1034.8 123.241 1040.24 Q123.241 1045.57 120.093 1048.78 Q116.945 1052 111.713 1052 Q105.718 1052 102.547 1047.42 Q99.3755 1042.81 99.3755 1034.08 Q99.3755 1025.89 103.264 1021.03 Q107.153 1016.14 113.704 1016.14 Q115.463 1016.14 117.246 1016.49 Q119.051 1016.84 120.996 1017.53 Z" fill="#000000" fill-rule="nonzero" fill-opacity="1" /><path clip-path="url(#clip230)" d="M131.297 1045.45 L136.181 1045.45 L136.181 1051.33 L131.297 1051.33 L131.297 1045.45 Z" fill="#000000" fill-rule="nonzero" fill-opacity="1" /><path clip-path="url(#clip230)" d="M156.366 1019.85 Q152.755 1019.85 150.926 1023.41 Q149.121 1026.95 149.121 1034.08 Q149.121 1041.19 150.926 1044.76 Q152.755 1048.3 156.366 1048.3 Q160 1048.3 161.806 1044.76 Q163.634 1041.19 163.634 1034.08 Q163.634 1026.95 161.806 1023.41 Q160 1019.85 156.366 1019.85 M156.366 1016.14 Q162.176 1016.14 165.232 1020.75 Q168.31 1025.33 168.31 1034.08 Q168.31 1042.81 165.232 1047.42 Q162.176 1052 156.366 1052 Q150.556 1052 147.477 1047.42 Q144.422 1042.81 144.422 1034.08 Q144.422 1025.33 147.477 1020.75 Q150.556 1016.14 156.366 1016.14 Z" fill="#000000" fill-rule="nonzero" fill-opacity="1" /><path clip-path="url(#clip230)" d="M186.528 1019.85 Q182.917 1019.85 181.088 1023.41 Q179.283 1026.95 179.283 1034.08 Q179.283 1041.19 181.088 1044.76 Q182.917 1048.3 186.528 1048.3 Q190.162 1048.3 191.968 1044.76 Q193.796 1041.19 193.796 1034.08 Q193.796 1026.95 191.968 1023.41 Q190.162 1019.85 186.528 1019.85 M186.528 1016.14 Q192.338 1016.14 195.394 1020.75 Q198.472 1025.33 198.472 1034.08 Q198.472 1042.81 195.394 1047.42 Q192.338 1052 186.528 1052 Q180.718 1052 177.639 1047.42 Q174.583 1042.81 174.583 1034.08 Q174.583 1025.33 177.639 1020.75 Q180.718 1016.14 186.528 1016.14 Z" fill="#000000" fill-rule="nonzero" fill-opacity="1" /><path clip-path="url(#clip230)" d="M234.861 1025.87 L224.282 1036.49 L234.861 1047.07 L232.106 1049.87 L221.481 1039.25 L210.856 1049.87 L208.125 1047.07 L218.68 1036.49 L208.125 1025.87 L210.856 1023.07 L221.481 1033.69 L232.106 1023.07 L234.861 1025.87 Z" fill="#000000" fill-rule="nonzero" fill-opacity="1" /><path clip-path="url(#clip230)" d="M247.222 1047.39 L254.861 1047.39 L254.861 1021.03 L246.551 1022.7 L246.551 1018.44 L254.815 1016.77 L259.49 1016.77 L259.49 1047.39 L267.129 1047.39 L267.129 1051.33 L247.222 1051.33 L247.222 1047.39 Z" fill="#000000" fill-rule="nonzero" fill-opacity="1" /><path clip-path="url(#clip230)" d="M286.574 1019.85 Q282.963 1019.85 281.134 1023.41 Q279.328 1026.95 279.328 1034.08 Q279.328 1041.19 281.134 1044.76 Q282.963 1048.3 286.574 1048.3 Q290.208 1048.3 292.013 1044.76 Q293.842 1041.19 293.842 1034.08 Q293.842 1026.95 292.013 1023.41 Q290.208 1019.85 286.574 1019.85 M286.574 1016.14 Q292.384 1016.14 295.439 1020.75 Q298.518 1025.33 298.518 1034.08 Q298.518 1042.81 295.439 1047.42 Q292.384 1052 286.574 1052 Q280.763 1052 277.685 1047.42 Q274.629 1042.81 274.629 1034.08 Q274.629 1025.33 277.685 1020.75 Q280.763 1016.14 286.574 1016.14 Z" fill="#000000" fill-rule="nonzero" fill-opacity="1" /><path clip-path="url(#clip230)" d="M308.148 1010.58 Q305.439 1010.58 303.878 1012.03 Q302.336 1013.48 302.336 1016.02 Q302.336 1018.56 303.878 1020.01 Q305.439 1021.46 308.148 1021.46 Q310.856 1021.46 312.417 1020.01 Q313.978 1018.54 313.978 1016.02 Q313.978 1013.48 312.417 1012.03 Q310.875 1010.58 308.148 1010.58 M304.348 1008.97 Q301.903 1008.37 300.53 1006.69 Q299.176 1005.02 299.176 1002.61 Q299.176 999.244 301.565 997.288 Q303.972 995.332 308.148 995.332 Q312.342 995.332 314.73 997.288 Q317.119 999.244 317.119 1002.61 Q317.119 1005.02 315.746 1006.69 Q314.392 1008.37 311.966 1008.97 Q314.711 1009.61 316.235 1011.47 Q317.777 1013.33 317.777 1016.02 Q317.777 1020.1 315.276 1022.28 Q312.793 1024.46 308.148 1024.46 Q303.502 1024.46 301.001 1022.28 Q298.518 1020.1 298.518 1016.02 Q298.518 1013.33 300.06 1011.47 Q301.602 1009.61 304.348 1008.97 M302.957 1002.97 Q302.957 1005.15 304.311 1006.37 Q305.684 1007.59 308.148 1007.59 Q310.593 1007.59 311.966 1006.37 Q313.357 1005.15 313.357 1002.97 Q313.357 1000.79 311.966 999.563 Q310.593 998.341 308.148 998.341 Q305.684 998.341 304.311 999.563 Q302.957 1000.79 302.957 1002.97 Z" fill="#000000" fill-rule="nonzero" fill-opacity="1" /><path clip-path="url(#clip230)" d="M111.135 826.271 Q107.801 826.271 105.88 828.053 Q103.982 829.836 103.982 832.961 Q103.982 836.086 105.88 837.868 Q107.801 839.651 111.135 839.651 Q114.468 839.651 116.389 837.868 Q118.311 836.063 118.311 832.961 Q118.311 829.836 116.389 828.053 Q114.491 826.271 111.135 826.271 M106.459 824.28 Q103.45 823.54 101.76 821.479 Q100.093 819.419 100.093 816.456 Q100.093 812.313 103.033 809.905 Q105.996 807.498 111.135 807.498 Q116.297 807.498 119.237 809.905 Q122.176 812.313 122.176 816.456 Q122.176 819.419 120.487 821.479 Q118.82 823.54 115.834 824.28 Q119.213 825.067 121.088 827.359 Q122.987 829.651 122.987 832.961 Q122.987 837.984 119.908 840.669 Q116.852 843.354 111.135 843.354 Q105.417 843.354 102.338 840.669 Q99.2829 837.984 99.2829 832.961 Q99.2829 829.651 101.181 827.359 Q103.079 825.067 106.459 824.28 M104.746 816.896 Q104.746 819.581 106.413 821.086 Q108.102 822.591 111.135 822.591 Q114.144 822.591 115.834 821.086 Q117.547 819.581 117.547 816.896 Q117.547 814.211 115.834 812.706 Q114.144 811.202 111.135 811.202 Q108.102 811.202 106.413 812.706 Q104.746 814.211 104.746 816.896 Z" fill="#000000" fill-rule="nonzero" fill-opacity="1" /><path clip-path="url(#clip230)" d="M131.297 836.803 L136.181 836.803 L136.181 842.683 L131.297 842.683 L131.297 836.803 Z" fill="#000000" fill-rule="nonzero" fill-opacity="1" /><path clip-path="url(#clip230)" d="M156.366 811.202 Q152.755 811.202 150.926 814.767 Q149.121 818.308 149.121 825.438 Q149.121 832.544 150.926 836.109 Q152.755 839.651 156.366 839.651 Q160 839.651 161.806 836.109 Q163.634 832.544 163.634 825.438 Q163.634 818.308 161.806 814.767 Q160 811.202 156.366 811.202 M156.366 807.498 Q162.176 807.498 165.232 812.105 Q168.31 816.688 168.31 825.438 Q168.31 834.165 165.232 838.771 Q162.176 843.354 156.366 843.354 Q150.556 843.354 147.477 838.771 Q144.422 834.165 144.422 825.438 Q144.422 816.688 147.477 812.105 Q150.556 807.498 156.366 807.498 Z" fill="#000000" fill-rule="nonzero" fill-opacity="1" /><path clip-path="url(#clip230)" d="M186.528 811.202 Q182.917 811.202 181.088 814.767 Q179.283 818.308 179.283 825.438 Q179.283 832.544 181.088 836.109 Q182.917 839.651 186.528 839.651 Q190.162 839.651 191.968 836.109 Q193.796 832.544 193.796 825.438 Q193.796 818.308 191.968 814.767 Q190.162 811.202 186.528 811.202 M186.528 807.498 Q192.338 807.498 195.394 812.105 Q198.472 816.688 198.472 825.438 Q198.472 834.165 195.394 838.771 Q192.338 843.354 186.528 843.354 Q180.718 843.354 177.639 838.771 Q174.583 834.165 174.583 825.438 Q174.583 816.688 177.639 812.105 Q180.718 807.498 186.528 807.498 Z" fill="#000000" fill-rule="nonzero" fill-opacity="1" /><path clip-path="url(#clip230)" d="M234.861 817.22 L224.282 827.845 L234.861 838.424 L232.106 841.225 L221.481 830.6 L210.856 841.225 L208.125 838.424 L218.68 827.845 L208.125 817.22 L210.856 814.419 L221.481 825.044 L232.106 814.419 L234.861 817.22 Z" fill="#000000" fill-rule="nonzero" fill-opacity="1" /><path clip-path="url(#clip230)" d="M247.222 838.748 L254.861 838.748 L254.861 812.382 L246.551 814.049 L246.551 809.79 L254.815 808.123 L259.49 808.123 L259.49 838.748 L267.129 838.748 L267.129 842.683 L247.222 842.683 L247.222 838.748 Z" fill="#000000" fill-rule="nonzero" fill-opacity="1" /><path clip-path="url(#clip230)" d="M286.574 811.202 Q282.963 811.202 281.134 814.767 Q279.328 818.308 279.328 825.438 Q279.328 832.544 281.134 836.109 Q282.963 839.651 286.574 839.651 Q290.208 839.651 292.013 836.109 Q293.842 832.544 293.842 825.438 Q293.842 818.308 292.013 814.767 Q290.208 811.202 286.574 811.202 M286.574 807.498 Q292.384 807.498 295.439 812.105 Q298.518 816.688 298.518 825.438 Q298.518 834.165 295.439 838.771 Q292.384 843.354 286.574 843.354 Q280.763 843.354 277.685 838.771 Q274.629 834.165 274.629 825.438 Q274.629 816.688 277.685 812.105 Q280.763 807.498 286.574 807.498 Z" fill="#000000" fill-rule="nonzero" fill-opacity="1" /><path clip-path="url(#clip230)" d="M308.148 801.938 Q305.439 801.938 303.878 803.386 Q302.336 804.834 302.336 807.373 Q302.336 809.912 303.878 811.361 Q305.439 812.809 308.148 812.809 Q310.856 812.809 312.417 811.361 Q313.978 809.894 313.978 807.373 Q313.978 804.834 312.417 803.386 Q310.875 801.938 308.148 801.938 M304.348 800.32 Q301.903 799.719 300.53 798.045 Q299.176 796.371 299.176 793.963 Q299.176 790.597 301.565 788.641 Q303.972 786.685 308.148 786.685 Q312.342 786.685 314.73 788.641 Q317.119 790.597 317.119 793.963 Q317.119 796.371 315.746 798.045 Q314.392 799.719 311.966 800.32 Q314.711 800.96 316.235 802.822 Q317.777 804.684 317.777 807.373 Q317.777 811.455 315.276 813.636 Q312.793 815.818 308.148 815.818 Q303.502 815.818 301.001 813.636 Q298.518 811.455 298.518 807.373 Q298.518 804.684 300.06 802.822 Q301.602 800.96 304.348 800.32 M302.957 794.321 Q302.957 796.502 304.311 797.725 Q305.684 798.948 308.148 798.948 Q310.593 798.948 311.966 797.725 Q313.357 796.502 313.357 794.321 Q313.357 792.139 311.966 790.917 Q310.593 789.694 308.148 789.694 Q305.684 789.694 304.311 790.917 Q302.957 792.139 302.957 794.321 Z" fill="#000000" fill-rule="nonzero" fill-opacity="1" /><path clip-path="url(#clip230)" d="M101.832 630.101 L109.471 630.101 L109.471 603.735 L101.161 605.402 L101.161 601.143 L109.425 599.476 L114.101 599.476 L114.101 630.101 L121.739 630.101 L121.739 634.036 L101.832 634.036 L101.832 630.101 Z" fill="#000000" fill-rule="nonzero" fill-opacity="1" /><path clip-path="url(#clip230)" d="M131.184 628.157 L136.068 628.157 L136.068 634.036 L131.184 634.036 L131.184 628.157 Z" fill="#000000" fill-rule="nonzero" fill-opacity="1" /><path clip-path="url(#clip230)" d="M156.253 602.555 Q152.642 602.555 150.813 606.12 Q149.008 609.661 149.008 616.791 Q149.008 623.897 150.813 627.462 Q152.642 631.004 156.253 631.004 Q159.887 631.004 161.693 627.462 Q163.522 623.897 163.522 616.791 Q163.522 609.661 161.693 606.12 Q159.887 602.555 156.253 602.555 M156.253 598.851 Q162.063 598.851 165.119 603.458 Q168.197 608.041 168.197 616.791 Q168.197 625.518 165.119 630.124 Q162.063 634.708 156.253 634.708 Q150.443 634.708 147.364 630.124 Q144.309 625.518 144.309 616.791 Q144.309 608.041 147.364 603.458 Q150.443 598.851 156.253 598.851 Z" fill="#000000" fill-rule="nonzero" fill-opacity="1" /><path clip-path="url(#clip230)" d="M186.415 602.555 Q182.804 602.555 180.975 606.12 Q179.17 609.661 179.17 616.791 Q179.17 623.897 180.975 627.462 Q182.804 631.004 186.415 631.004 Q190.049 631.004 191.855 627.462 Q193.683 623.897 193.683 616.791 Q193.683 609.661 191.855 606.12 Q190.049 602.555 186.415 602.555 M186.415 598.851 Q192.225 598.851 195.281 603.458 Q198.359 608.041 198.359 616.791 Q198.359 625.518 195.281 630.124 Q192.225 634.708 186.415 634.708 Q180.605 634.708 177.526 630.124 Q174.471 625.518 174.471 616.791 Q174.471 608.041 177.526 603.458 Q180.605 598.851 186.415 598.851 Z" fill="#000000" fill-rule="nonzero" fill-opacity="1" /><path clip-path="url(#clip230)" d="M234.748 608.573 L224.169 619.198 L234.748 629.777 L231.993 632.578 L221.369 621.953 L210.744 632.578 L208.012 629.777 L218.568 619.198 L208.012 608.573 L210.744 605.772 L221.369 616.397 L231.993 605.772 L234.748 608.573 Z" fill="#000000" fill-rule="nonzero" fill-opacity="1" /><path clip-path="url(#clip230)" d="M247.109 630.101 L254.748 630.101 L254.748 603.735 L246.438 605.402 L246.438 601.143 L254.702 599.476 L259.378 599.476 L259.378 630.101 L267.016 630.101 L267.016 634.036 L247.109 634.036 L247.109 630.101 Z" fill="#000000" fill-rule="nonzero" fill-opacity="1" /><path clip-path="url(#clip230)" d="M286.461 602.555 Q282.85 602.555 281.021 606.12 Q279.215 609.661 279.215 616.791 Q279.215 623.897 281.021 627.462 Q282.85 631.004 286.461 631.004 Q290.095 631.004 291.901 627.462 Q293.729 623.897 293.729 616.791 Q293.729 609.661 291.901 606.12 Q290.095 602.555 286.461 602.555 M286.461 598.851 Q292.271 598.851 295.326 603.458 Q298.405 608.041 298.405 616.791 Q298.405 625.518 295.326 630.124 Q292.271 634.708 286.461 634.708 Q280.651 634.708 277.572 630.124 Q274.516 625.518 274.516 616.791 Q274.516 608.041 277.572 603.458 Q280.651 598.851 286.461 598.851 Z" fill="#000000" fill-rule="nonzero" fill-opacity="1" /><path clip-path="url(#clip230)" d="M300.211 606.043 L300.211 602.582 Q301.64 603.259 303.107 603.617 Q304.574 603.974 305.985 603.974 Q309.746 603.974 311.721 601.454 Q313.715 598.915 313.997 593.761 Q312.906 595.379 311.232 596.244 Q309.558 597.109 307.527 597.109 Q303.314 597.109 300.85 594.57 Q298.405 592.012 298.405 587.592 Q298.405 583.267 300.963 580.652 Q303.521 578.038 307.771 578.038 Q312.643 578.038 315.2 581.781 Q317.777 585.505 317.777 592.614 Q317.777 599.253 314.617 603.222 Q311.477 607.171 306.154 607.171 Q304.725 607.171 303.258 606.889 Q301.791 606.607 300.211 606.043 M307.771 594.137 Q310.329 594.137 311.815 592.388 Q313.32 590.639 313.32 587.592 Q313.32 584.564 311.815 582.815 Q310.329 581.047 307.771 581.047 Q305.214 581.047 303.709 582.815 Q302.223 584.564 302.223 587.592 Q302.223 590.639 303.709 592.388 Q305.214 594.137 307.771 594.137 Z" fill="#000000" fill-rule="nonzero" fill-opacity="1" /><path clip-path="url(#clip230)" d="M101.832 421.454 L109.471 421.454 L109.471 395.089 L101.161 396.755 L101.161 392.496 L109.425 390.829 L114.101 390.829 L114.101 421.454 L121.739 421.454 L121.739 425.389 L101.832 425.389 L101.832 421.454 Z" fill="#000000" fill-rule="nonzero" fill-opacity="1" /><path clip-path="url(#clip230)" d="M131.184 419.51 L136.068 419.51 L136.068 425.389 L131.184 425.389 L131.184 419.51 Z" fill="#000000" fill-rule="nonzero" fill-opacity="1" /><path clip-path="url(#clip230)" d="M150.281 421.454 L166.6 421.454 L166.6 425.389 L144.656 425.389 L144.656 421.454 Q147.318 418.7 151.901 414.07 Q156.508 409.417 157.688 408.075 Q159.934 405.552 160.813 403.815 Q161.716 402.056 161.716 400.366 Q161.716 397.612 159.772 395.876 Q157.85 394.14 154.748 394.14 Q152.549 394.14 150.096 394.903 Q147.665 395.667 144.887 397.218 L144.887 392.496 Q147.711 391.362 150.165 390.783 Q152.619 390.204 154.656 390.204 Q160.026 390.204 163.221 392.89 Q166.415 395.575 166.415 400.065 Q166.415 402.195 165.605 404.116 Q164.818 406.015 162.711 408.607 Q162.133 409.278 159.031 412.496 Q155.929 415.69 150.281 421.454 Z" fill="#000000" fill-rule="nonzero" fill-opacity="1" /><path clip-path="url(#clip230)" d="M186.415 393.908 Q182.804 393.908 180.975 397.473 Q179.17 401.015 179.17 408.144 Q179.17 415.251 180.975 418.815 Q182.804 422.357 186.415 422.357 Q190.049 422.357 191.855 418.815 Q193.683 415.251 193.683 408.144 Q193.683 401.015 191.855 397.473 Q190.049 393.908 186.415 393.908 M186.415 390.204 Q192.225 390.204 195.281 394.811 Q198.359 399.394 198.359 408.144 Q198.359 416.871 195.281 421.477 Q192.225 426.061 186.415 426.061 Q180.605 426.061 177.526 421.477 Q174.471 416.871 174.471 408.144 Q174.471 399.394 177.526 394.811 Q180.605 390.204 186.415 390.204 Z" fill="#000000" fill-rule="nonzero" fill-opacity="1" /><path clip-path="url(#clip230)" d="M234.748 399.927 L224.169 410.552 L234.748 421.13 L231.993 423.931 L221.369 413.306 L210.744 423.931 L208.012 421.13 L218.568 410.552 L208.012 399.927 L210.744 397.126 L221.369 407.751 L231.993 397.126 L234.748 399.927 Z" fill="#000000" fill-rule="nonzero" fill-opacity="1" /><path clip-path="url(#clip230)" d="M247.109 421.454 L254.748 421.454 L254.748 395.089 L246.438 396.755 L246.438 392.496 L254.702 390.829 L259.378 390.829 L259.378 421.454 L267.016 421.454 L267.016 425.389 L247.109 425.389 L247.109 421.454 Z" fill="#000000" fill-rule="nonzero" fill-opacity="1" /><path clip-path="url(#clip230)" d="M286.461 393.908 Q282.85 393.908 281.021 397.473 Q279.215 401.015 279.215 408.144 Q279.215 415.251 281.021 418.815 Q282.85 422.357 286.461 422.357 Q290.095 422.357 291.901 418.815 Q293.729 415.251 293.729 408.144 Q293.729 401.015 291.901 397.473 Q290.095 393.908 286.461 393.908 M286.461 390.204 Q292.271 390.204 295.326 394.811 Q298.405 399.394 298.405 408.144 Q298.405 416.871 295.326 421.477 Q292.271 426.061 286.461 426.061 Q280.651 426.061 277.572 421.477 Q274.516 416.871 274.516 408.144 Q274.516 399.394 277.572 394.811 Q280.651 390.204 286.461 390.204 Z" fill="#000000" fill-rule="nonzero" fill-opacity="1" /><path clip-path="url(#clip230)" d="M300.211 397.396 L300.211 393.935 Q301.64 394.612 303.107 394.97 Q304.574 395.327 305.985 395.327 Q309.746 395.327 311.721 392.807 Q313.715 390.268 313.997 385.114 Q312.906 386.732 311.232 387.597 Q309.558 388.462 307.527 388.462 Q303.314 388.462 300.85 385.923 Q298.405 383.365 298.405 378.946 Q298.405 374.62 300.963 372.005 Q303.521 369.391 307.771 369.391 Q312.643 369.391 315.2 373.134 Q317.777 376.858 317.777 383.967 Q317.777 390.606 314.617 394.575 Q311.477 398.524 306.154 398.524 Q304.725 398.524 303.258 398.242 Q301.791 397.96 300.211 397.396 M307.771 385.491 Q310.329 385.491 311.815 383.742 Q313.32 381.992 313.32 378.946 Q313.32 375.917 311.815 374.168 Q310.329 372.4 307.771 372.4 Q305.214 372.4 303.709 374.168 Q302.223 375.917 302.223 378.946 Q302.223 381.992 303.709 383.742 Q305.214 385.491 307.771 385.491 Z" fill="#000000" fill-rule="nonzero" fill-opacity="1" /><path clip-path="url(#clip230)" d="M101.832 212.807 L109.471 212.807 L109.471 186.442 L101.161 188.108 L101.161 183.849 L109.425 182.183 L114.101 182.183 L114.101 212.807 L121.739 212.807 L121.739 216.743 L101.832 216.743 L101.832 212.807 Z" fill="#000000" fill-rule="nonzero" fill-opacity="1" /><path clip-path="url(#clip230)" d="M131.184 210.863 L136.068 210.863 L136.068 216.743 L131.184 216.743 L131.184 210.863 Z" fill="#000000" fill-rule="nonzero" fill-opacity="1" /><path clip-path="url(#clip230)" d="M159.1 186.257 L147.295 204.706 L159.1 204.706 L159.1 186.257 M157.873 182.183 L163.753 182.183 L163.753 204.706 L168.684 204.706 L168.684 208.594 L163.753 208.594 L163.753 216.743 L159.1 216.743 L159.1 208.594 L143.499 208.594 L143.499 204.081 L157.873 182.183 Z" fill="#000000" fill-rule="nonzero" fill-opacity="1" /><path clip-path="url(#clip230)" d="M186.415 185.261 Q182.804 185.261 180.975 188.826 Q179.17 192.368 179.17 199.497 Q179.17 206.604 180.975 210.169 Q182.804 213.71 186.415 213.71 Q190.049 213.71 191.855 210.169 Q193.683 206.604 193.683 199.497 Q193.683 192.368 191.855 188.826 Q190.049 185.261 186.415 185.261 M186.415 181.558 Q192.225 181.558 195.281 186.164 Q198.359 190.747 198.359 199.497 Q198.359 208.224 195.281 212.831 Q192.225 217.414 186.415 217.414 Q180.605 217.414 177.526 212.831 Q174.471 208.224 174.471 199.497 Q174.471 190.747 177.526 186.164 Q180.605 181.558 186.415 181.558 Z" fill="#000000" fill-rule="nonzero" fill-opacity="1" /><path clip-path="url(#clip230)" d="M234.748 191.28 L224.169 201.905 L234.748 212.483 L231.993 215.284 L221.369 204.659 L210.744 215.284 L208.012 212.483 L218.568 201.905 L208.012 191.28 L210.744 188.479 L221.369 199.104 L231.993 188.479 L234.748 191.28 Z" fill="#000000" fill-rule="nonzero" fill-opacity="1" /><path clip-path="url(#clip230)" d="M247.109 212.807 L254.748 212.807 L254.748 186.442 L246.438 188.108 L246.438 183.849 L254.702 182.183 L259.378 182.183 L259.378 212.807 L267.016 212.807 L267.016 216.743 L247.109 216.743 L247.109 212.807 Z" fill="#000000" fill-rule="nonzero" fill-opacity="1" /><path clip-path="url(#clip230)" d="M286.461 185.261 Q282.85 185.261 281.021 188.826 Q279.215 192.368 279.215 199.497 Q279.215 206.604 281.021 210.169 Q282.85 213.71 286.461 213.71 Q290.095 213.71 291.901 210.169 Q293.729 206.604 293.729 199.497 Q293.729 192.368 291.901 188.826 Q290.095 185.261 286.461 185.261 M286.461 181.558 Q292.271 181.558 295.326 186.164 Q298.405 190.747 298.405 199.497 Q298.405 208.224 295.326 212.831 Q292.271 217.414 286.461 217.414 Q280.651 217.414 277.572 212.831 Q274.516 208.224 274.516 199.497 Q274.516 190.747 277.572 186.164 Q280.651 181.558 286.461 181.558 Z" fill="#000000" fill-rule="nonzero" fill-opacity="1" /><path clip-path="url(#clip230)" d="M300.211 188.749 L300.211 185.289 Q301.64 185.966 303.107 186.323 Q304.574 186.68 305.985 186.68 Q309.746 186.68 311.721 184.16 Q313.715 181.621 313.997 176.468 Q312.906 178.085 311.232 178.95 Q309.558 179.815 307.527 179.815 Q303.314 179.815 300.85 177.276 Q298.405 174.719 298.405 170.299 Q298.405 165.973 300.963 163.359 Q303.521 160.744 307.771 160.744 Q312.643 160.744 315.2 164.487 Q317.777 168.211 317.777 175.32 Q317.777 181.96 314.617 185.928 Q311.477 189.878 306.154 189.878 Q304.725 189.878 303.258 189.595 Q301.791 189.313 300.211 188.749 M307.771 176.844 Q310.329 176.844 311.815 175.095 Q313.32 173.346 313.32 170.299 Q313.32 167.271 311.815 165.522 Q310.329 163.754 307.771 163.754 Q305.214 163.754 303.709 165.522 Q302.223 167.271 302.223 170.299 Q302.223 173.346 303.709 175.095 Q305.214 176.844 307.771 176.844 Z" fill="#000000" fill-rule="nonzero" fill-opacity="1" /><path clip-path="url(#clip230)" d="M-9.64527 840.632 L0.4762 840.632 L0.4762 828.569 L5.02768 828.569 L5.02768 840.632 L24.3794 840.632 Q28.7399 840.632 29.9813 839.454 Q31.2226 838.245 31.2226 834.584 L31.2226 828.569 L36.1242 828.569 L36.1242 834.584 Q36.1242 841.364 33.6097 843.942 Q31.0634 846.52 24.3794 846.52 L5.02768 846.52 L5.02768 850.817 L0.4762 850.817 L0.4762 846.52 L-9.64527 846.52 L-9.64527 840.632 Z" fill="#000000" fill-rule="nonzero" fill-opacity="1" /><path clip-path="url(#clip230)" d="M-11.3958 789.738 L-11.3958 784.327 L42.1716 800.878 L42.1716 806.289 L-11.3958 789.738 Z" fill="#000000" fill-rule="nonzero" fill-opacity="1" /><path clip-path="url(#clip230)" d="M14.6081 727.831 L36.1242 727.831 L36.1242 733.688 L14.799 733.688 Q9.7383 733.688 7.22385 735.661 Q4.7094 737.635 4.7094 741.581 Q4.7094 746.324 7.73311 749.061 Q10.7568 751.798 15.9767 751.798 L36.1242 751.798 L36.1242 757.687 L0.4762 757.687 L0.4762 751.798 L6.01437 751.798 Q2.79968 749.698 1.20826 746.865 Q-0.38317 744 -0.38317 740.276 Q-0.38317 734.133 3.43625 730.982 Q7.22385 727.831 14.6081 727.831 Z" fill="#000000" fill-rule="nonzero" fill-opacity="1" /><path clip-path="url(#clip230)" d="M1.52654 693.425 L7.06471 693.425 Q5.79157 695.907 5.15499 698.581 Q4.51842 701.255 4.51842 704.119 Q4.51842 708.48 5.85522 710.676 Q7.19202 712.84 9.86562 712.84 Q11.9026 712.84 13.0803 711.281 Q14.2261 709.721 15.2765 705.01 L15.7221 703.005 Q17.0589 696.767 19.5097 694.157 Q21.9286 691.515 26.2891 691.515 Q31.2544 691.515 34.1508 695.462 Q37.0472 699.377 37.0472 706.252 Q37.0472 709.116 36.4743 712.235 Q35.9332 715.323 34.8192 718.76 L28.7718 718.76 Q30.4587 715.514 31.318 712.363 Q32.1456 709.212 32.1456 706.124 Q32.1456 701.987 30.7451 699.759 Q29.3129 697.531 26.7347 697.531 Q24.3476 697.531 23.0745 699.154 Q21.8013 700.745 20.6237 706.188 L20.1462 708.225 Q19.0004 713.668 16.6451 716.087 Q14.258 718.506 10.1202 718.506 Q5.09134 718.506 2.35408 714.941 Q-0.38317 711.376 -0.38317 704.819 Q-0.38317 701.573 0.0942579 698.708 Q0.571686 695.844 1.52654 693.425 Z" fill="#000000" fill-rule="nonzero" fill-opacity="1" /><path clip-path="url(#clip231)" d="M1006.79 1454.11 L1011.03 1453.92 L1014.72 1453.73 L1017.88 1453.54 L1020.55 1453.35 L1022.77 1453.16 L1024.57 1452.97 L1025.99 1452.77 L1027.09 1452.58 L1027.89 1452.39 L1028.44 1452.2 L1028.77 1452.01 L1028.93 1451.82 L1028.92 1451.63 L1028.77 1451.44 L1028.49 1451.25 L1028.08 1451.06 L1027.54 1450.86 L1026.85 1450.67 L1026 1450.48 L1024.95 1450.29 L1023.69 1450.1 L1022.16 1449.91 L1020.35 1449.72 L1018.22 1449.53 L1015.72 1449.34 L1012.82 1449.15 L1009.5 1448.95 L1005.74 1448.76 L1001.5 1448.57 L996.794 1448.38 L991.61 1448.19 L985.957 1448 L979.853 1447.81 L973.324 1447.62 L966.406 1447.43 L959.141 1447.24 L951.583 1447.04 L943.79 1446.85 L935.827 1446.66 L927.761 1446.47 L919.667 1446.28 L911.618 1446.09 L903.688 1445.9 L895.951 1445.71 L888.478 1445.52 L881.335 1445.33 L874.585 1445.13 L868.283 1444.94 L862.477 1444.75 L857.209 1444.56 L852.51 1444.37 L848.403 1444.18 L844.901 1443.99 L842.008 1443.8 L839.718 1443.61 L838.016 1443.42 L836.879 1443.22 L836.275 1443.03 L836.163 1442.84 L836.498 1442.65 L837.227 1442.46 L838.292 1442.27 L839.633 1442.08 L841.184 1441.89 L842.88 1441.7 L844.655 1441.51 L846.443 1441.31 L848.18 1441.12 L849.804 1440.93 L851.259 1440.74 L852.491 1440.55 L853.454 1440.36 L854.104 1440.17 L854.409 1439.98 L854.341 1439.79 L619.239 1439.79 L619.171 1439.98 L619.476 1440.17 L620.127 1440.36 L621.089 1440.55 L622.321 1440.74 L623.776 1440.93 L625.4 1441.12 L627.137 1441.31 L628.925 1441.51 L630.7 1441.7 L632.396 1441.89 L633.947 1442.08 L635.288 1442.27 L636.353 1442.46 L637.082 1442.65 L637.417 1442.84 L637.305 1443.03 L636.701 1443.22 L635.564 1443.42 L633.862 1443.61 L631.572 1443.8 L628.679 1443.99 L625.177 1444.18 L621.07 1444.37 L616.371 1444.56 L611.103 1444.75 L605.297 1444.94 L598.995 1445.13 L592.245 1445.33 L585.102 1445.52 L577.629 1445.71 L569.892 1445.9 L561.962 1446.09 L553.913 1446.28 L545.819 1446.47 L537.754 1446.66 L529.79 1446.85 L521.997 1447.04 L514.439 1447.24 L507.175 1447.43 L500.256 1447.62 L493.727 1447.81 L487.623 1448 L481.97 1448.19 L476.786 1448.38 L472.078 1448.57 L467.845 1448.76 L464.077 1448.95 L460.757 1449.15 L457.862 1449.34 L455.363 1449.53 L453.225 1449.72 L451.415 1449.91 L449.895 1450.1 L448.629 1450.29 L447.585 1450.48 L446.73 1450.67 L446.042 1450.86 L445.499 1451.06 L445.091 1451.25 L444.81 1451.44 L444.661 1451.63 L444.654 1451.82 L444.806 1452.01 L445.142 1452.2 L445.693 1452.39 L446.495 1452.58 L447.587 1452.77 L449.011 1452.97 L450.81 1453.16 L453.026 1453.35 L455.699 1453.54 L458.864 1453.73 L462.552 1453.92 L466.787 1454.11 L1006.79 1454.11  Z" fill="#009af9" fill-rule="evenodd" fill-opacity="1"/>
<polyline clip-path="url(#clip231)" style="stroke:#000000; stroke-linecap:round; stroke-linejoin:round; stroke-width:4; stroke-opacity:1; fill:none" points="1006.79,1454.11 1011.03,1453.92 1014.72,1453.73 1017.88,1453.54 1020.55,1453.35 1022.77,1453.16 1024.57,1452.97 1025.99,1452.77 1027.09,1452.58 1027.89,1452.39 1028.44,1452.2 1028.77,1452.01 1028.93,1451.82 1028.92,1451.63 1028.77,1451.44 1028.49,1451.25 1028.08,1451.06 1027.54,1450.86 1026.85,1450.67 1026,1450.48 1024.95,1450.29 1023.69,1450.1 1022.16,1449.91 1020.35,1449.72 1018.22,1449.53 1015.72,1449.34 1012.82,1449.15 1009.5,1448.95 1005.74,1448.76 1001.5,1448.57 996.794,1448.38 991.61,1448.19 985.957,1448 979.853,1447.81 973.324,1447.62 966.406,1447.43 959.141,1447.24 951.583,1447.04 943.79,1446.85 935.827,1446.66 927.761,1446.47 919.667,1446.28 911.618,1446.09 903.688,1445.9 895.951,1445.71 888.478,1445.52 881.335,1445.33 874.585,1445.13 868.283,1444.94 862.477,1444.75 857.209,1444.56 852.51,1444.37 848.403,1444.18 844.901,1443.99 842.008,1443.8 839.718,1443.61 838.016,1443.42 836.879,1443.22 836.275,1443.03 836.163,1442.84 836.498,1442.65 837.227,1442.46 838.292,1442.27 839.633,1442.08 841.184,1441.89 842.88,1441.7 844.655,1441.51 846.443,1441.31 848.18,1441.12 849.804,1440.93 851.259,1440.74 852.491,1440.55 853.454,1440.36 854.104,1440.17 854.409,1439.98 854.341,1439.79 619.239,1439.79 619.171,1439.98 619.476,1440.17 620.127,1440.36 621.089,1440.55 622.321,1440.74 623.776,1440.93 625.4,1441.12 627.137,1441.31 628.925,1441.51 630.7,1441.7 632.396,1441.89 633.947,1442.08 635.288,1442.27 636.353,1442.46 637.082,1442.65 637.417,1442.84 637.305,1443.03 636.701,1443.22 635.564,1443.42 633.862,1443.61 631.572,1443.8 628.679,1443.99 625.177,1444.18 621.07,1444.37 616.371,1444.56 611.103,1444.75 605.297,1444.94 598.995,1445.13 592.245,1445.33 585.102,1445.52 577.629,1445.71 569.892,1445.9 561.962,1446.09 553.913,1446.28 545.819,1446.47 537.754,1446.66 529.79,1446.85 521.997,1447.04 514.439,1447.24 507.175,1447.43 500.256,1447.62 493.727,1447.81 487.623,1448 481.97,1448.19 476.786,1448.38 472.078,1448.57 467.845,1448.76 464.077,1448.95 460.757,1449.15 457.862,1449.34 455.363,1449.53 453.225,1449.72 451.415,1449.91 449.895,1450.1 448.629,1450.29 447.585,1450.48 446.73,1450.67 446.042,1450.86 445.499,1451.06 445.091,1451.25 444.81,1451.44 444.661,1451.63 444.654,1451.82 444.806,1452.01 445.142,1452.2 445.693,1452.39 446.495,1452.58 447.587,1452.77 449.011,1452.97 450.81,1453.16 453.026,1453.35 455.699,1453.54 458.864,1453.73 462.552,1453.92 466.787,1454.11 1006.79,1454.11 "/>
<path clip-path="url(#clip231)" d="M1982.96 364.926 L1988.27 363.886 L1993.06 362.846 L1997.31 361.806 L2001.04 360.767 L2004.23 359.727 L2006.89 358.687 L2009.06 357.647 L2010.76 356.607 L2012.02 355.567 L2012.9 354.527 L2013.42 353.487 L2013.67 352.447 L2013.68 351.408 L2013.53 350.368 L2013.27 349.328 L2012.97 348.288 L2012.7 347.248 L2012.5 346.208 L2012.45 345.168 L2012.57 344.128 L2012.93 343.088 L2013.55 342.049 L2014.45 341.009 L2015.66 339.969 L2017.17 338.929 L2018.98 337.889 L2021.06 336.849 L2023.41 335.809 L2025.96 334.769 L2028.69 333.729 L2031.53 332.69 L2034.42 331.65 L2037.29 330.61 L2040.07 329.57 L2042.7 328.53 L2045.1 327.49 L2047.2 326.45 L2048.93 325.41 L2050.24 324.37 L2051.08 323.331 L2051.4 322.291 L2051.17 321.251 L2050.38 320.211 L2049 319.171 L2047.04 318.131 L2044.51 317.091 L2041.44 316.051 L2037.87 315.011 L2033.83 313.972 L2029.38 312.932 L2024.57 311.892 L2019.47 310.852 L2014.14 309.812 L2008.65 308.772 L2003.07 307.732 L1997.45 306.692 L1991.86 305.653 L1986.35 304.613 L1980.97 303.573 L1975.74 302.533 L1970.71 301.493 L1965.9 300.453 L1961.31 299.413 L1956.94 298.373 L1952.8 297.333 L1948.86 296.294 L1945.1 295.254 L1941.5 294.214 L1938.03 293.174 L1934.63 292.134 L1931.29 291.094 L1927.95 290.054 L1924.58 289.014 L1921.15 287.974 L1917.61 286.935 L1600.92 286.935 L1597.38 287.974 L1593.95 289.014 L1590.58 290.054 L1587.24 291.094 L1583.9 292.134 L1580.51 293.174 L1577.03 294.214 L1573.43 295.254 L1569.67 296.294 L1565.73 297.333 L1561.59 298.373 L1557.22 299.413 L1552.63 300.453 L1547.82 301.493 L1542.79 302.533 L1537.57 303.573 L1532.18 304.613 L1526.67 305.653 L1521.08 306.692 L1515.46 307.732 L1509.88 308.772 L1504.39 309.812 L1499.06 310.852 L1493.96 311.892 L1489.16 312.932 L1484.7 313.972 L1480.66 315.011 L1477.09 316.051 L1474.02 317.091 L1471.5 318.131 L1469.54 319.171 L1468.16 320.211 L1467.36 321.251 L1467.13 322.291 L1467.45 323.331 L1468.29 324.37 L1469.6 325.41 L1471.34 326.45 L1473.44 327.49 L1475.83 328.53 L1478.46 329.57 L1481.25 330.61 L1484.12 331.65 L1487.01 332.69 L1489.84 333.729 L1492.57 334.769 L1495.13 335.809 L1497.47 336.849 L1499.56 337.889 L1501.37 338.929 L1502.88 339.969 L1504.08 341.009 L1504.99 342.049 L1505.6 343.088 L1505.96 344.128 L1506.09 345.168 L1506.03 346.208 L1505.84 347.248 L1505.56 348.288 L1505.26 349.328 L1505.01 350.368 L1504.85 351.408 L1504.87 352.447 L1505.11 353.487 L1505.64 354.527 L1506.51 355.567 L1507.77 356.607 L1509.47 357.647 L1511.64 358.687 L1514.31 359.727 L1517.5 360.767 L1521.22 361.806 L1525.48 362.846 L1530.27 363.886 L1535.57 364.926 L1982.96 364.926  Z" fill="#e26f46" fill-rule="evenodd" fill-opacity="1"/>
<polyline clip-path="url(#clip231)" style="stroke:#000000; stroke-linecap:round; stroke-linejoin:round; stroke-width:4; stroke-opacity:1; fill:none" points="1982.96,364.926 1988.27,363.886 1993.06,362.846 1997.31,361.806 2001.04,360.767 2004.23,359.727 2006.89,358.687 2009.06,357.647 2010.76,356.607 2012.02,355.567 2012.9,354.527 2013.42,353.487 2013.67,352.447 2013.68,351.408 2013.53,350.368 2013.27,349.328 2012.97,348.288 2012.7,347.248 2012.5,346.208 2012.45,345.168 2012.57,344.128 2012.93,343.088 2013.55,342.049 2014.45,341.009 2015.66,339.969 2017.17,338.929 2018.98,337.889 2021.06,336.849 2023.41,335.809 2025.96,334.769 2028.69,333.729 2031.53,332.69 2034.42,331.65 2037.29,330.61 2040.07,329.57 2042.7,328.53 2045.1,327.49 2047.2,326.45 2048.93,325.41 2050.24,324.37 2051.08,323.331 2051.4,322.291 2051.17,321.251 2050.38,320.211 2049,319.171 2047.04,318.131 2044.51,317.091 2041.44,316.051 2037.87,315.011 2033.83,313.972 2029.38,312.932 2024.57,311.892 2019.47,310.852 2014.14,309.812 2008.65,308.772 2003.07,307.732 1997.45,306.692 1991.86,305.653 1986.35,304.613 1980.97,303.573 1975.74,302.533 1970.71,301.493 1965.9,300.453 1961.31,299.413 1956.94,298.373 1952.8,297.333 1948.86,296.294 1945.1,295.254 1941.5,294.214 1938.03,293.174 1934.63,292.134 1931.29,291.094 1927.95,290.054 1924.58,289.014 1921.15,287.974 1917.61,286.935 1600.92,286.935 1597.38,287.974 1593.95,289.014 1590.58,290.054 1587.24,291.094 1583.9,292.134 1580.51,293.174 1577.03,294.214 1573.43,295.254 1569.67,296.294 1565.73,297.333 1561.59,298.373 1557.22,299.413 1552.63,300.453 1547.82,301.493 1542.79,302.533 1537.57,303.573 1532.18,304.613 1526.67,305.653 1521.08,306.692 1515.46,307.732 1509.88,308.772 1504.39,309.812 1499.06,310.852 1493.96,311.892 1489.16,312.932 1484.7,313.972 1480.66,315.011 1477.09,316.051 1474.02,317.091 1471.5,318.131 1469.54,319.171 1468.16,320.211 1467.36,321.251 1467.13,322.291 1467.45,323.331 1468.29,324.37 1469.6,325.41 1471.34,326.45 1473.44,327.49 1475.83,328.53 1478.46,329.57 1481.25,330.61 1484.12,331.65 1487.01,332.69 1489.84,333.729 1492.57,334.769 1495.13,335.809 1497.47,336.849 1499.56,337.889 1501.37,338.929 1502.88,339.969 1504.08,341.009 1504.99,342.049 1505.6,343.088 1505.96,344.128 1506.09,345.168 1506.03,346.208 1505.84,347.248 1505.56,348.288 1505.26,349.328 1505.01,350.368 1504.85,351.408 1504.87,352.447 1505.11,353.487 1505.64,354.527 1506.51,355.567 1507.77,356.607 1509.47,357.647 1511.64,358.687 1514.31,359.727 1517.5,360.767 1521.22,361.806 1525.48,362.846 1530.27,363.886 1535.57,364.926 1982.96,364.926 "/>
<path clip-path="url(#clip231)" d="M3038.52 131.728 L3044.68 130.964 L3050.31 130.201 L3055.4 129.438 L3059.9 128.674 L3063.8 127.911 L3067.07 127.148 L3069.71 126.385 L3071.71 125.621 L3073.06 124.858 L3073.78 124.095 L3073.88 123.332 L3073.37 122.568 L3072.29 121.805 L3070.66 121.042 L3068.51 120.278 L3065.9 119.515 L3062.86 118.752 L3059.44 117.989 L3055.71 117.225 L3051.71 116.462 L3047.51 115.699 L3043.17 114.935 L3038.74 114.172 L3034.29 113.409 L3029.87 112.646 L3025.55 111.882 L3021.37 111.119 L3017.39 110.356 L3013.66 109.593 L3010.21 108.829 L3007.08 108.066 L3004.31 107.303 L3001.91 106.539 L2999.9 105.776 L2998.29 105.013 L2997.08 104.25 L2996.27 103.486 L2995.84 102.723 L2995.76 101.96 L2996.03 101.197 L2996.59 100.433 L2997.41 99.67 L2998.45 98.9067 L2999.66 98.1434 L3000.98 97.3801 L3002.36 96.6168 L3003.75 95.8536 L3005.09 95.0903 L3006.32 94.327 L3007.38 93.5637 L3008.22 92.8005 L3008.79 92.0372 L3009.04 91.2739 L3008.92 90.5106 L3008.41 89.7474 L3007.47 88.9841 L3006.07 88.2208 L2557.42 88.2208 L2556.02 88.9841 L2555.07 89.7474 L2554.56 90.5106 L2554.45 91.2739 L2554.7 92.0372 L2555.27 92.8005 L2556.11 93.5637 L2557.17 94.327 L2558.4 95.0903 L2559.73 95.8536 L2561.12 96.6168 L2562.51 97.3801 L2563.83 98.1434 L2565.04 98.9067 L2566.08 99.67 L2566.9 100.433 L2567.46 101.197 L2567.72 101.96 L2567.65 102.723 L2567.22 103.486 L2566.4 104.25 L2565.19 105.013 L2563.58 105.776 L2561.58 106.539 L2559.18 107.303 L2556.4 108.066 L2553.28 108.829 L2549.83 109.593 L2546.1 110.356 L2542.12 111.119 L2537.94 111.882 L2533.62 112.646 L2529.2 113.409 L2524.75 114.172 L2520.32 114.935 L2515.97 115.699 L2511.77 116.462 L2507.78 117.225 L2504.04 117.989 L2500.63 118.752 L2497.59 119.515 L2494.98 120.278 L2492.83 121.042 L2491.2 121.805 L2490.11 122.568 L2489.61 123.332 L2489.7 124.095 L2490.43 124.858 L2491.78 125.621 L2493.78 126.385 L2496.42 127.148 L2499.69 127.911 L2503.59 128.674 L2508.09 129.438 L2513.17 130.201 L2518.81 130.964 L2524.97 131.728 L3038.52 131.728  Z" fill="#3da44d" fill-rule="evenodd" fill-opacity="1"/>
<polyline clip-path="url(#clip231)" style="stroke:#000000; stroke-linecap:round; stroke-linejoin:round; stroke-width:4; stroke-opacity:1; fill:none" points="3038.52,131.728 3044.68,130.964 3050.31,130.201 3055.4,129.438 3059.9,128.674 3063.8,127.911 3067.07,127.148 3069.71,126.385 3071.71,125.621 3073.06,124.858 3073.78,124.095 3073.88,123.332 3073.37,122.568 3072.29,121.805 3070.66,121.042 3068.51,120.278 3065.9,119.515 3062.86,118.752 3059.44,117.989 3055.71,117.225 3051.71,116.462 3047.51,115.699 3043.17,114.935 3038.74,114.172 3034.29,113.409 3029.87,112.646 3025.55,111.882 3021.37,111.119 3017.39,110.356 3013.66,109.593 3010.21,108.829 3007.08,108.066 3004.31,107.303 3001.91,106.539 2999.9,105.776 2998.29,105.013 2997.08,104.25 2996.27,103.486 2995.84,102.723 2995.76,101.96 2996.03,101.197 2996.59,100.433 2997.41,99.67 2998.45,98.9067 2999.66,98.1434 3000.98,97.3801 3002.36,96.6168 3003.75,95.8536 3005.09,95.0903 3006.32,94.327 3007.38,93.5637 3008.22,92.8005 3008.79,92.0372 3009.04,91.2739 3008.92,90.5106 3008.41,89.7474 3007.47,88.9841 3006.07,88.2208 2557.42,88.2208 2556.02,88.9841 2555.07,89.7474 2554.56,90.5106 2554.45,91.2739 2554.7,92.0372 2555.27,92.8005 2556.11,93.5637 2557.17,94.327 2558.4,95.0903 2559.73,95.8536 2561.12,96.6168 2562.51,97.3801 2563.83,98.1434 2565.04,98.9067 2566.08,99.67 2566.9,100.433 2567.46,101.197 2567.72,101.96 2567.65,102.723 2567.22,103.486 2566.4,104.25 2565.19,105.013 2563.58,105.776 2561.58,106.539 2559.18,107.303 2556.4,108.066 2553.28,108.829 2549.83,109.593 2546.1,110.356 2542.12,111.119 2537.94,111.882 2533.62,112.646 2529.2,113.409 2524.75,114.172 2520.32,114.935 2515.97,115.699 2511.77,116.462 2507.78,117.225 2504.04,117.989 2500.63,118.752 2497.59,119.515 2494.98,120.278 2492.83,121.042 2491.2,121.805 2490.11,122.568 2489.61,123.332 2489.7,124.095 2490.43,124.858 2491.78,125.621 2493.78,126.385 2496.42,127.148 2499.69,127.911 2503.59,128.674 2508.09,129.438 2513.17,130.201 2518.81,130.964 2524.97,131.728 3038.52,131.728 "/>
</svg>
