<?xml version="1.0" encoding="utf-8"?>
<svg xmlns="http://www.w3.org/2000/svg" xmlns:xlink="http://www.w3.org/1999/xlink" width="800" height="400" viewBox="0 0 3200 1600">
<defs>
  <clipPath id="clip000">
    <rect x="0" y="0" width="3200" height="1600"/>
  </clipPath>
</defs>
<path clip-path="url(#clip000)" d="M0 1600 L3200 1600 L3200 0 L0 0  Z" fill="#ffffff" fill-rule="evenodd" fill-opacity="1"/>
<defs>
  <clipPath id="clip001">
    <rect x="364" y="47" width="2789" height="1449"/>
  </clipPath>
</defs>
<path clip-path="url(#clip000)" d="M364.733 1495.09 L3152.76 1495.09 L3152.76 47.2441 L364.733 47.2441  Z" fill="#ffffff" fill-rule="evenodd" fill-opacity="1"/>
<polyline clip-path="url(#clip001)" style="stroke:#000000; stroke-linecap:round; stroke-linejoin:round; stroke-width:2; stroke-opacity:0.1; fill:none" points="735.885,1495.09 735.885,47.2441 "/>
<polyline clip-path="url(#clip001)" style="stroke:#000000; stroke-linecap:round; stroke-linejoin:round; stroke-width:2; stroke-opacity:0.1; fill:none" points="1758.74,1495.09 1758.74,47.2441 "/>
<polyline clip-path="url(#clip001)" style="stroke:#000000; stroke-linecap:round; stroke-linejoin:round; stroke-width:2; stroke-opacity:0.1; fill:none" points="2781.6,1495.09 2781.6,47.2441 "/>
<polyline clip-path="url(#clip001)" style="stroke:#000000; stroke-linecap:round; stroke-linejoin:round; stroke-width:2; stroke-opacity:0.1; fill:none" points="364.733,1390.96 3152.76,1390.96 "/>
<polyline clip-path="url(#clip001)" style="stroke:#000000; stroke-linecap:round; stroke-linejoin:round; stroke-width:2; stroke-opacity:0.1; fill:none" points="364.733,1155.38 3152.76,1155.38 "/>
<polyline clip-path="url(#clip001)" style="stroke:#000000; stroke-linecap:round; stroke-linejoin:round; stroke-width:2; stroke-opacity:0.1; fill:none" points="364.733,919.8 3152.76,919.8 "/>
<polyline clip-path="url(#clip001)" style="stroke:#000000; stroke-linecap:round; stroke-linejoin:round; stroke-width:2; stroke-opacity:0.1; fill:none" points="364.733,684.218 3152.76,684.218 "/>
<polyline clip-path="url(#clip001)" style="stroke:#000000; stroke-linecap:round; stroke-linejoin:round; stroke-width:2; stroke-opacity:0.1; fill:none" points="364.733,448.635 3152.76,448.635 "/>
<polyline clip-path="url(#clip001)" style="stroke:#000000; stroke-linecap:round; stroke-linejoin:round; stroke-width:2; stroke-opacity:0.1; fill:none" points="364.733,213.053 3152.76,213.053 "/>
<polyline clip-path="url(#clip000)" style="stroke:#000000; stroke-linecap:round; stroke-linejoin:round; stroke-width:4; stroke-opacity:1; fill:none" points="364.733,1495.09 3152.76,1495.09 "/>
<polyline clip-path="url(#clip000)" style="stroke:#000000; stroke-linecap:round; stroke-linejoin:round; stroke-width:4; stroke-opacity:1; fill:none" points="735.885,1495.09 735.885,1476.19 "/>
<polyline clip-path="url(#clip000)" style="stroke:#000000; stroke-linecap:round; stroke-linejoin:round; stroke-width:4; stroke-opacity:1; fill:none" points="1758.74,1495.09 1758.74,1476.19 "/>
<polyline clip-path="url(#clip000)" style="stroke:#000000; stroke-linecap:round; stroke-linejoin:round; stroke-width:4; stroke-opacity:1; fill:none" points="2781.6,1495.09 2781.6,1476.19 "/>
<path clip-path="url(#clip000)" d="M651.846 1538.73 L651.846 1542.75 Q650.04 1541.83 648.096 1541.36 Q646.151 1540.9 644.068 1540.9 Q640.897 1540.9 639.299 1541.87 Q637.725 1542.85 637.725 1544.79 Q637.725 1546.27 638.86 1547.13 Q639.994 1547.96 643.42 1548.73 L644.878 1549.05 Q649.415 1550.02 651.313 1551.8 Q653.235 1553.56 653.235 1556.74 Q653.235 1560.35 650.364 1562.45 Q647.517 1564.56 642.517 1564.56 Q640.434 1564.56 638.165 1564.14 Q635.92 1563.75 633.42 1562.94 L633.42 1558.54 Q635.781 1559.77 638.073 1560.39 Q640.364 1560.99 642.61 1560.99 Q645.619 1560.99 647.239 1559.98 Q648.86 1558.93 648.86 1557.06 Q648.86 1555.32 647.679 1554.4 Q646.522 1553.47 642.563 1552.61 L641.082 1552.27 Q637.123 1551.43 635.364 1549.72 Q633.605 1547.99 633.605 1544.98 Q633.605 1541.32 636.198 1539.33 Q638.79 1537.34 643.559 1537.34 Q645.92 1537.34 648.003 1537.68 Q650.086 1538.03 651.846 1538.73 Z" fill="#000000" fill-rule="nonzero" fill-opacity="1" /><path clip-path="url(#clip000)" d="M670.804 1566.3 Q668.998 1570.92 667.285 1572.34 Q665.572 1573.75 662.702 1573.75 L659.299 1573.75 L659.299 1570.18 L661.799 1570.18 Q663.559 1570.18 664.531 1569.35 Q665.503 1568.52 666.684 1565.42 L667.447 1563.47 L656.961 1537.96 L661.475 1537.96 L669.577 1558.24 L677.679 1537.96 L682.193 1537.96 L670.804 1566.3 Z" fill="#000000" fill-rule="nonzero" fill-opacity="1" /><path clip-path="url(#clip000)" d="M708.257 1542.94 Q709.855 1540.07 712.077 1538.7 Q714.299 1537.34 717.308 1537.34 Q721.359 1537.34 723.558 1540.18 Q725.757 1543.01 725.757 1548.24 L725.757 1563.89 L721.475 1563.89 L721.475 1548.38 Q721.475 1544.65 720.155 1542.85 Q718.836 1541.04 716.128 1541.04 Q712.818 1541.04 710.896 1543.24 Q708.975 1545.44 708.975 1549.24 L708.975 1563.89 L704.693 1563.89 L704.693 1548.38 Q704.693 1544.63 703.373 1542.85 Q702.054 1541.04 699.299 1541.04 Q696.035 1541.04 694.114 1543.26 Q692.193 1545.46 692.193 1549.24 L692.193 1563.89 L687.91 1563.89 L687.91 1537.96 L692.193 1537.96 L692.193 1541.99 Q693.651 1539.61 695.688 1538.47 Q697.725 1537.34 700.526 1537.34 Q703.35 1537.34 705.318 1538.77 Q707.308 1540.21 708.257 1542.94 Z" fill="#000000" fill-rule="nonzero" fill-opacity="1" /><path clip-path="url(#clip000)" d="M752.864 1550.95 Q752.864 1546.25 750.919 1543.59 Q748.998 1540.9 745.618 1540.9 Q742.239 1540.9 740.294 1543.59 Q738.373 1546.25 738.373 1550.95 Q738.373 1555.65 740.294 1558.33 Q742.239 1560.99 745.618 1560.99 Q748.998 1560.99 750.919 1558.33 Q752.864 1555.65 752.864 1550.95 M738.373 1541.9 Q739.716 1539.58 741.753 1538.47 Q743.813 1537.34 746.66 1537.34 Q751.382 1537.34 754.322 1541.09 Q757.285 1544.84 757.285 1550.95 Q757.285 1557.06 754.322 1560.81 Q751.382 1564.56 746.66 1564.56 Q743.813 1564.56 741.753 1563.45 Q739.716 1562.31 738.373 1560 L738.373 1563.89 L734.091 1563.89 L734.091 1527.87 L738.373 1527.87 L738.373 1541.9 Z" fill="#000000" fill-rule="nonzero" fill-opacity="1" /><path clip-path="url(#clip000)" d="M774.391 1540.95 Q770.965 1540.95 768.975 1543.63 Q766.984 1546.3 766.984 1550.95 Q766.984 1555.6 768.951 1558.29 Q770.942 1560.95 774.391 1560.95 Q777.794 1560.95 779.785 1558.26 Q781.775 1555.58 781.775 1550.95 Q781.775 1546.34 779.785 1543.66 Q777.794 1540.95 774.391 1540.95 M774.391 1537.34 Q779.947 1537.34 783.118 1540.95 Q786.289 1544.56 786.289 1550.95 Q786.289 1557.31 783.118 1560.95 Q779.947 1564.56 774.391 1564.56 Q768.813 1564.56 765.641 1560.95 Q762.493 1557.31 762.493 1550.95 Q762.493 1544.56 765.641 1540.95 Q768.813 1537.34 774.391 1537.34 Z" fill="#000000" fill-rule="nonzero" fill-opacity="1" /><path clip-path="url(#clip000)" d="M793.349 1527.87 L797.609 1527.87 L797.609 1563.89 L793.349 1563.89 L793.349 1527.87 Z" fill="#000000" fill-rule="nonzero" fill-opacity="1" /><path clip-path="url(#clip000)" d="M806.521 1537.96 L810.78 1537.96 L810.78 1563.89 L806.521 1563.89 L806.521 1537.96 M806.521 1527.87 L810.78 1527.87 L810.78 1533.26 L806.521 1533.26 L806.521 1527.87 Z" fill="#000000" fill-rule="nonzero" fill-opacity="1" /><path clip-path="url(#clip000)" d="M838.349 1538.96 L838.349 1542.94 Q836.544 1541.94 834.715 1541.46 Q832.909 1540.95 831.058 1540.95 Q826.914 1540.95 824.622 1543.59 Q822.331 1546.2 822.331 1550.95 Q822.331 1555.69 824.622 1558.33 Q826.914 1560.95 831.058 1560.95 Q832.909 1560.95 834.715 1560.46 Q836.544 1559.95 838.349 1558.96 L838.349 1562.89 Q836.567 1563.73 834.646 1564.14 Q832.747 1564.56 830.595 1564.56 Q824.738 1564.56 821.289 1560.88 Q817.84 1557.2 817.84 1550.95 Q817.84 1544.61 821.312 1540.97 Q824.808 1537.34 830.872 1537.34 Q832.84 1537.34 834.715 1537.75 Q836.59 1538.15 838.349 1538.96 Z" fill="#000000" fill-rule="nonzero" fill-opacity="1" /><path clip-path="url(#clip000)" d="M1669.07 1527.87 L1669.07 1531.41 L1664.99 1531.41 Q1662.7 1531.41 1661.8 1532.34 Q1660.92 1533.26 1660.92 1535.67 L1660.92 1537.96 L1667.93 1537.96 L1667.93 1541.27 L1660.92 1541.27 L1660.92 1563.89 L1656.64 1563.89 L1656.64 1541.27 L1652.56 1541.27 L1652.56 1537.96 L1656.64 1537.96 L1656.64 1536.16 Q1656.64 1531.83 1658.65 1529.86 Q1660.67 1527.87 1665.04 1527.87 L1669.07 1527.87 Z" fill="#000000" fill-rule="nonzero" fill-opacity="1" /><path clip-path="url(#clip000)" d="M1672.63 1537.96 L1676.89 1537.96 L1676.89 1563.89 L1672.63 1563.89 L1672.63 1537.96 M1672.63 1527.87 L1676.89 1527.87 L1676.89 1533.26 L1672.63 1533.26 L1672.63 1527.87 Z" fill="#000000" fill-rule="nonzero" fill-opacity="1" /><path clip-path="url(#clip000)" d="M1707.36 1548.24 L1707.36 1563.89 L1703.1 1563.89 L1703.1 1548.38 Q1703.1 1544.7 1701.66 1542.87 Q1700.23 1541.04 1697.36 1541.04 Q1693.91 1541.04 1691.92 1543.24 Q1689.93 1545.44 1689.93 1549.24 L1689.93 1563.89 L1685.64 1563.89 L1685.64 1537.96 L1689.93 1537.96 L1689.93 1541.99 Q1691.45 1539.65 1693.51 1538.49 Q1695.6 1537.34 1698.3 1537.34 Q1702.77 1537.34 1705.06 1540.11 Q1707.36 1542.87 1707.36 1548.24 Z" fill="#000000" fill-rule="nonzero" fill-opacity="1" /><path clip-path="url(#clip000)" d="M1715.85 1537.96 L1720.11 1537.96 L1720.11 1563.89 L1715.85 1563.89 L1715.85 1537.96 M1715.85 1527.87 L1720.11 1527.87 L1720.11 1533.26 L1715.85 1533.26 L1715.85 1527.87 Z" fill="#000000" fill-rule="nonzero" fill-opacity="1" /><path clip-path="url(#clip000)" d="M1733.24 1530.6 L1733.24 1537.96 L1742.01 1537.96 L1742.01 1541.27 L1733.24 1541.27 L1733.24 1555.35 Q1733.24 1558.52 1734.09 1559.42 Q1734.97 1560.32 1737.63 1560.32 L1742.01 1560.32 L1742.01 1563.89 L1737.63 1563.89 Q1732.7 1563.89 1730.83 1562.06 Q1728.95 1560.21 1728.95 1555.35 L1728.95 1541.27 L1725.83 1541.27 L1725.83 1537.96 L1728.95 1537.96 L1728.95 1530.6 L1733.24 1530.6 Z" fill="#000000" fill-rule="nonzero" fill-opacity="1" /><path clip-path="url(#clip000)" d="M1769.79 1549.86 L1769.79 1551.94 L1750.2 1551.94 Q1750.48 1556.34 1752.84 1558.66 Q1755.23 1560.95 1759.46 1560.95 Q1761.92 1560.95 1764.21 1560.35 Q1766.52 1559.74 1768.79 1558.54 L1768.79 1562.57 Q1766.5 1563.54 1764.09 1564.05 Q1761.68 1564.56 1759.21 1564.56 Q1753 1564.56 1749.37 1560.95 Q1745.76 1557.34 1745.76 1551.18 Q1745.76 1544.81 1749.18 1541.09 Q1752.63 1537.34 1758.47 1537.34 Q1763.7 1537.34 1766.73 1540.72 Q1769.79 1544.07 1769.79 1549.86 M1765.53 1548.61 Q1765.48 1545.11 1763.56 1543.03 Q1761.66 1540.95 1758.51 1540.95 Q1754.95 1540.95 1752.8 1542.96 Q1750.67 1544.98 1750.34 1548.63 L1765.53 1548.61 Z" fill="#000000" fill-rule="nonzero" fill-opacity="1" /><path clip-path="url(#clip000)" d="M1808.91 1541.9 L1808.91 1527.87 L1813.17 1527.87 L1813.17 1563.89 L1808.91 1563.89 L1808.91 1560 Q1807.56 1562.31 1805.5 1563.45 Q1803.47 1564.56 1800.6 1564.56 Q1795.9 1564.56 1792.93 1560.81 Q1789.99 1557.06 1789.99 1550.95 Q1789.99 1544.84 1792.93 1541.09 Q1795.9 1537.34 1800.6 1537.34 Q1803.47 1537.34 1805.5 1538.47 Q1807.56 1539.58 1808.91 1541.9 M1794.39 1550.95 Q1794.39 1555.65 1796.31 1558.33 Q1798.26 1560.99 1801.64 1560.99 Q1805.02 1560.99 1806.96 1558.33 Q1808.91 1555.65 1808.91 1550.95 Q1808.91 1546.25 1806.96 1543.59 Q1805.02 1540.9 1801.64 1540.9 Q1798.26 1540.9 1796.31 1543.59 Q1794.39 1546.25 1794.39 1550.95 Z" fill="#000000" fill-rule="nonzero" fill-opacity="1" /><path clip-path="url(#clip000)" d="M1821.94 1537.96 L1826.2 1537.96 L1826.2 1563.89 L1821.94 1563.89 L1821.94 1537.96 M1821.94 1527.87 L1826.2 1527.87 L1826.2 1533.26 L1821.94 1533.26 L1821.94 1527.87 Z" fill="#000000" fill-rule="nonzero" fill-opacity="1" /><path clip-path="url(#clip000)" d="M1848.23 1527.87 L1848.23 1531.41 L1844.16 1531.41 Q1841.87 1531.41 1840.97 1532.34 Q1840.09 1533.26 1840.09 1535.67 L1840.09 1537.96 L1847.1 1537.96 L1847.1 1541.27 L1840.09 1541.27 L1840.09 1563.89 L1835.8 1563.89 L1835.8 1541.27 L1831.73 1541.27 L1831.73 1537.96 L1835.8 1537.96 L1835.8 1536.16 Q1835.8 1531.83 1837.82 1529.86 Q1839.83 1527.87 1844.21 1527.87 L1848.23 1527.87 Z" fill="#000000" fill-rule="nonzero" fill-opacity="1" /><path clip-path="url(#clip000)" d="M1864.92 1527.87 L1864.92 1531.41 L1860.85 1531.41 Q1858.56 1531.41 1857.66 1532.34 Q1856.78 1533.26 1856.78 1535.67 L1856.78 1537.96 L1863.79 1537.96 L1863.79 1541.27 L1856.78 1541.27 L1856.78 1563.89 L1852.49 1563.89 L1852.49 1541.27 L1848.42 1541.27 L1848.42 1537.96 L1852.49 1537.96 L1852.49 1536.16 Q1852.49 1531.83 1854.51 1529.86 Q1856.52 1527.87 1860.9 1527.87 L1864.92 1527.87 Z" fill="#000000" fill-rule="nonzero" fill-opacity="1" /><path clip-path="url(#clip000)" d="M2661.47 1527.87 L2661.47 1531.41 L2657.39 1531.41 Q2655.1 1531.41 2654.2 1532.34 Q2653.32 1533.26 2653.32 1535.67 L2653.32 1537.96 L2660.33 1537.96 L2660.33 1541.27 L2653.32 1541.27 L2653.32 1563.89 L2649.04 1563.89 L2649.04 1541.27 L2644.96 1541.27 L2644.96 1537.96 L2649.04 1537.96 L2649.04 1536.16 Q2649.04 1531.83 2651.05 1529.86 Q2653.06 1527.87 2657.44 1527.87 L2661.47 1527.87 Z" fill="#000000" fill-rule="nonzero" fill-opacity="1" /><path clip-path="url(#clip000)" d="M2675.08 1540.95 Q2671.65 1540.95 2669.66 1543.63 Q2667.67 1546.3 2667.67 1550.95 Q2667.67 1555.6 2669.64 1558.29 Q2671.63 1560.95 2675.08 1560.95 Q2678.48 1560.95 2680.47 1558.26 Q2682.46 1555.58 2682.46 1550.95 Q2682.46 1546.34 2680.47 1543.66 Q2678.48 1540.95 2675.08 1540.95 M2675.08 1537.34 Q2680.63 1537.34 2683.8 1540.95 Q2686.97 1544.56 2686.97 1550.95 Q2686.97 1557.31 2683.8 1560.95 Q2680.63 1564.56 2675.08 1564.56 Q2669.5 1564.56 2666.33 1560.95 Q2663.18 1557.31 2663.18 1550.95 Q2663.18 1544.56 2666.33 1540.95 Q2669.5 1537.34 2675.08 1537.34 Z" fill="#000000" fill-rule="nonzero" fill-opacity="1" /><path clip-path="url(#clip000)" d="M2709.06 1541.94 Q2708.34 1541.53 2707.48 1541.34 Q2706.65 1541.13 2705.63 1541.13 Q2702.02 1541.13 2700.08 1543.49 Q2698.16 1545.83 2698.16 1550.23 L2698.16 1563.89 L2693.87 1563.89 L2693.87 1537.96 L2698.16 1537.96 L2698.16 1541.99 Q2699.5 1539.63 2701.65 1538.49 Q2703.8 1537.34 2706.88 1537.34 Q2707.32 1537.34 2707.85 1537.41 Q2708.39 1537.45 2709.03 1537.57 L2709.06 1541.94 Z" fill="#000000" fill-rule="nonzero" fill-opacity="1" /><path clip-path="url(#clip000)" d="M2711.05 1537.96 L2715.31 1537.96 L2720.63 1558.19 L2725.93 1537.96 L2730.96 1537.96 L2736.28 1558.19 L2741.58 1537.96 L2745.84 1537.96 L2739.06 1563.89 L2734.03 1563.89 L2728.46 1542.64 L2722.85 1563.89 L2717.83 1563.89 L2711.05 1537.96 Z" fill="#000000" fill-rule="nonzero" fill-opacity="1" /><path clip-path="url(#clip000)" d="M2764.08 1550.86 Q2758.92 1550.86 2756.93 1552.04 Q2754.94 1553.22 2754.94 1556.06 Q2754.94 1558.33 2756.42 1559.67 Q2757.92 1560.99 2760.49 1560.99 Q2764.03 1560.99 2766.16 1558.49 Q2768.32 1555.97 2768.32 1551.8 L2768.32 1550.86 L2764.08 1550.86 M2772.58 1549.1 L2772.58 1563.89 L2768.32 1563.89 L2768.32 1559.95 Q2766.86 1562.31 2764.68 1563.45 Q2762.51 1564.56 2759.36 1564.56 Q2755.38 1564.56 2753.02 1562.34 Q2750.68 1560.09 2750.68 1556.34 Q2750.68 1551.97 2753.59 1549.74 Q2756.53 1547.52 2762.34 1547.52 L2768.32 1547.52 L2768.32 1547.11 Q2768.32 1544.17 2766.37 1542.57 Q2764.45 1540.95 2760.96 1540.95 Q2758.73 1540.95 2756.63 1541.48 Q2754.52 1542.01 2752.58 1543.08 L2752.58 1539.14 Q2754.91 1538.24 2757.11 1537.8 Q2759.31 1537.34 2761.4 1537.34 Q2767.02 1537.34 2769.8 1540.25 Q2772.58 1543.17 2772.58 1549.1 Z" fill="#000000" fill-rule="nonzero" fill-opacity="1" /><path clip-path="url(#clip000)" d="M2796.37 1541.94 Q2795.65 1541.53 2794.8 1541.34 Q2793.96 1541.13 2792.95 1541.13 Q2789.34 1541.13 2787.39 1543.49 Q2785.47 1545.83 2785.47 1550.23 L2785.47 1563.89 L2781.19 1563.89 L2781.19 1537.96 L2785.47 1537.96 L2785.47 1541.99 Q2786.81 1539.63 2788.97 1538.49 Q2791.12 1537.34 2794.2 1537.34 Q2794.64 1537.34 2795.17 1537.41 Q2795.7 1537.45 2796.35 1537.57 L2796.37 1541.94 Z" fill="#000000" fill-rule="nonzero" fill-opacity="1" /><path clip-path="url(#clip000)" d="M2817.07 1541.9 L2817.07 1527.87 L2821.33 1527.87 L2821.33 1563.89 L2817.07 1563.89 L2817.07 1560 Q2815.72 1562.31 2813.66 1563.45 Q2811.63 1564.56 2808.76 1564.56 Q2804.06 1564.56 2801.09 1560.81 Q2798.15 1557.06 2798.15 1550.95 Q2798.15 1544.84 2801.09 1541.09 Q2804.06 1537.34 2808.76 1537.34 Q2811.63 1537.34 2813.66 1538.47 Q2815.72 1539.58 2817.07 1541.9 M2802.55 1550.95 Q2802.55 1555.65 2804.47 1558.33 Q2806.42 1560.99 2809.8 1560.99 Q2813.18 1560.99 2815.12 1558.33 Q2817.07 1555.65 2817.07 1550.95 Q2817.07 1546.25 2815.12 1543.59 Q2813.18 1540.9 2809.8 1540.9 Q2806.42 1540.9 2804.47 1543.59 Q2802.55 1546.25 2802.55 1550.95 Z" fill="#000000" fill-rule="nonzero" fill-opacity="1" /><path clip-path="url(#clip000)" d="M2862.23 1541.9 L2862.23 1527.87 L2866.49 1527.87 L2866.49 1563.89 L2862.23 1563.89 L2862.23 1560 Q2860.89 1562.31 2858.83 1563.45 Q2856.79 1564.56 2853.92 1564.56 Q2849.22 1564.56 2846.26 1560.81 Q2843.32 1557.06 2843.32 1550.95 Q2843.32 1544.84 2846.26 1541.09 Q2849.22 1537.34 2853.92 1537.34 Q2856.79 1537.34 2858.83 1538.47 Q2860.89 1539.58 2862.23 1541.9 M2847.71 1550.95 Q2847.71 1555.65 2849.64 1558.33 Q2851.58 1560.99 2854.96 1560.99 Q2858.34 1560.99 2860.28 1558.33 Q2862.23 1555.65 2862.23 1550.95 Q2862.23 1546.25 2860.28 1543.59 Q2858.34 1540.9 2854.96 1540.9 Q2851.58 1540.9 2849.64 1543.59 Q2847.71 1546.25 2847.71 1550.95 Z" fill="#000000" fill-rule="nonzero" fill-opacity="1" /><path clip-path="url(#clip000)" d="M2875.26 1537.96 L2879.52 1537.96 L2879.52 1563.89 L2875.26 1563.89 L2875.26 1537.96 M2875.26 1527.87 L2879.52 1527.87 L2879.52 1533.26 L2875.26 1533.26 L2875.26 1527.87 Z" fill="#000000" fill-rule="nonzero" fill-opacity="1" /><path clip-path="url(#clip000)" d="M2901.56 1527.87 L2901.56 1531.41 L2897.48 1531.41 Q2895.19 1531.41 2894.29 1532.34 Q2893.41 1533.26 2893.41 1535.67 L2893.41 1537.96 L2900.42 1537.96 L2900.42 1541.27 L2893.41 1541.27 L2893.41 1563.89 L2889.13 1563.89 L2889.13 1541.27 L2885.05 1541.27 L2885.05 1537.96 L2889.13 1537.96 L2889.13 1536.16 Q2889.13 1531.83 2891.14 1529.86 Q2893.15 1527.87 2897.53 1527.87 L2901.56 1527.87 Z" fill="#000000" fill-rule="nonzero" fill-opacity="1" /><path clip-path="url(#clip000)" d="M2918.25 1527.87 L2918.25 1531.41 L2914.17 1531.41 Q2911.88 1531.41 2910.98 1532.34 Q2910.1 1533.26 2910.1 1535.67 L2910.1 1537.96 L2917.11 1537.96 L2917.11 1541.27 L2910.1 1541.27 L2910.1 1563.89 L2905.82 1563.89 L2905.82 1541.27 L2901.74 1541.27 L2901.74 1537.96 L2905.82 1537.96 L2905.82 1536.16 Q2905.82 1531.83 2907.83 1529.86 Q2909.84 1527.87 2914.22 1527.87 L2918.25 1527.87 Z" fill="#000000" fill-rule="nonzero" fill-opacity="1" /><polyline clip-path="url(#clip000)" style="stroke:#000000; stroke-linecap:round; stroke-linejoin:round; stroke-width:4; stroke-opacity:1; fill:none" points="364.733,1495.09 364.733,47.2441 "/>
<polyline clip-path="url(#clip000)" style="stroke:#000000; stroke-linecap:round; stroke-linejoin:round; stroke-width:4; stroke-opacity:1; fill:none" points="364.733,1390.96 383.63,1390.96 "/>
<polyline clip-path="url(#clip000)" style="stroke:#000000; stroke-linecap:round; stroke-linejoin:round; stroke-width:4; stroke-opacity:1; fill:none" points="364.733,1155.38 383.63,1155.38 "/>
<polyline clip-path="url(#clip000)" style="stroke:#000000; stroke-linecap:round; stroke-linejoin:round; stroke-width:4; stroke-opacity:1; fill:none" points="364.733,919.8 383.63,919.8 "/>
<polyline clip-path="url(#clip000)" style="stroke:#000000; stroke-linecap:round; stroke-linejoin:round; stroke-width:4; stroke-opacity:1; fill:none" points="364.733,684.218 383.63,684.218 "/>
<polyline clip-path="url(#clip000)" style="stroke:#000000; stroke-linecap:round; stroke-linejoin:round; stroke-width:4; stroke-opacity:1; fill:none" points="364.733,448.635 383.63,448.635 "/>
<polyline clip-path="url(#clip000)" style="stroke:#000000; stroke-linecap:round; stroke-linejoin:round; stroke-width:4; stroke-opacity:1; fill:none" points="364.733,213.053 383.63,213.053 "/>
<path clip-path="url(#clip000)" d="M100.137 1380.13 L118.493 1380.13 L118.493 1384.07 L104.419 1384.07 L104.419 1392.54 Q105.437 1392.19 106.456 1392.03 Q107.474 1391.84 108.493 1391.84 Q114.28 1391.84 117.66 1395.02 Q121.039 1398.19 121.039 1403.6 Q121.039 1409.18 117.567 1412.28 Q114.095 1415.36 107.775 1415.36 Q105.599 1415.36 103.331 1414.99 Q101.086 1414.62 98.6782 1413.88 L98.6782 1409.18 Q100.762 1410.32 102.984 1410.87 Q105.206 1411.43 107.683 1411.43 Q111.687 1411.43 114.025 1409.32 Q116.363 1407.21 116.363 1403.6 Q116.363 1399.99 114.025 1397.89 Q111.687 1395.78 107.683 1395.78 Q105.808 1395.78 103.933 1396.2 Q102.081 1396.61 100.137 1397.49 L100.137 1380.13 Z" fill="#000000" fill-rule="nonzero" fill-opacity="1" /><path clip-path="url(#clip000)" d="M130.252 1408.81 L135.136 1408.81 L135.136 1414.69 L130.252 1414.69 L130.252 1408.81 Z" fill="#000000" fill-rule="nonzero" fill-opacity="1" /><path clip-path="url(#clip000)" d="M155.321 1383.21 Q151.71 1383.21 149.882 1386.78 Q148.076 1390.32 148.076 1397.45 Q148.076 1404.55 149.882 1408.12 Q151.71 1411.66 155.321 1411.66 Q158.956 1411.66 160.761 1408.12 Q162.59 1404.55 162.59 1397.45 Q162.59 1390.32 160.761 1386.78 Q158.956 1383.21 155.321 1383.21 M155.321 1379.51 Q161.132 1379.51 164.187 1384.11 Q167.266 1388.7 167.266 1397.45 Q167.266 1406.17 164.187 1410.78 Q161.132 1415.36 155.321 1415.36 Q149.511 1415.36 146.433 1410.78 Q143.377 1406.17 143.377 1397.45 Q143.377 1388.7 146.433 1384.11 Q149.511 1379.51 155.321 1379.51 Z" fill="#000000" fill-rule="nonzero" fill-opacity="1" /><path clip-path="url(#clip000)" d="M185.483 1383.21 Q181.872 1383.21 180.043 1386.78 Q178.238 1390.32 178.238 1397.45 Q178.238 1404.55 180.043 1408.12 Q181.872 1411.66 185.483 1411.66 Q189.118 1411.66 190.923 1408.12 Q192.752 1404.55 192.752 1397.45 Q192.752 1390.32 190.923 1386.78 Q189.118 1383.21 185.483 1383.21 M185.483 1379.51 Q191.293 1379.51 194.349 1384.11 Q197.428 1388.7 197.428 1397.45 Q197.428 1406.17 194.349 1410.78 Q191.293 1415.36 185.483 1415.36 Q179.673 1415.36 176.594 1410.78 Q173.539 1406.17 173.539 1397.45 Q173.539 1388.7 176.594 1384.11 Q179.673 1379.51 185.483 1379.51 Z" fill="#000000" fill-rule="nonzero" fill-opacity="1" /><path clip-path="url(#clip000)" d="M233.816 1389.23 L223.238 1399.85 L233.816 1410.43 L231.062 1413.23 L220.437 1402.61 L209.812 1413.23 L207.08 1410.43 L217.636 1399.85 L207.08 1389.23 L209.812 1386.43 L220.437 1397.05 L231.062 1386.43 L233.816 1389.23 Z" fill="#000000" fill-rule="nonzero" fill-opacity="1" /><path clip-path="url(#clip000)" d="M246.177 1410.76 L253.816 1410.76 L253.816 1384.39 L245.506 1386.06 L245.506 1381.8 L253.77 1380.13 L258.446 1380.13 L258.446 1410.76 L266.085 1410.76 L266.085 1414.69 L246.177 1414.69 L246.177 1410.76 Z" fill="#000000" fill-rule="nonzero" fill-opacity="1" /><path clip-path="url(#clip000)" d="M285.529 1383.21 Q281.918 1383.21 280.089 1386.78 Q278.284 1390.32 278.284 1397.45 Q278.284 1404.55 280.089 1408.12 Q281.918 1411.66 285.529 1411.66 Q289.163 1411.66 290.969 1408.12 Q292.798 1404.55 292.798 1397.45 Q292.798 1390.32 290.969 1386.78 Q289.163 1383.21 285.529 1383.21 M285.529 1379.51 Q291.339 1379.51 294.395 1384.11 Q297.473 1388.7 297.473 1397.45 Q297.473 1406.17 294.395 1410.78 Q291.339 1415.36 285.529 1415.36 Q279.719 1415.36 276.64 1410.78 Q273.585 1406.17 273.585 1397.45 Q273.585 1388.7 276.64 1384.11 Q279.719 1379.51 285.529 1379.51 Z" fill="#000000" fill-rule="nonzero" fill-opacity="1" /><path clip-path="url(#clip000)" d="M307.103 1373.95 Q304.395 1373.95 302.834 1375.39 Q301.291 1376.84 301.291 1379.38 Q301.291 1381.92 302.834 1383.37 Q304.395 1384.82 307.103 1384.82 Q309.811 1384.82 311.372 1383.37 Q312.933 1381.9 312.933 1379.38 Q312.933 1376.84 311.372 1375.39 Q309.83 1373.95 307.103 1373.95 M303.304 1372.33 Q300.859 1371.73 299.486 1370.05 Q298.132 1368.38 298.132 1365.97 Q298.132 1362.61 300.52 1360.65 Q302.928 1358.69 307.103 1358.69 Q311.297 1358.69 313.686 1360.65 Q316.074 1362.61 316.074 1365.97 Q316.074 1368.38 314.701 1370.05 Q313.347 1371.73 310.921 1372.33 Q313.667 1372.97 315.19 1374.83 Q316.733 1376.69 316.733 1379.38 Q316.733 1383.46 314.231 1385.65 Q311.749 1387.83 307.103 1387.83 Q302.457 1387.83 299.956 1385.65 Q297.473 1383.46 297.473 1379.38 Q297.473 1376.69 299.016 1374.83 Q300.558 1372.97 303.304 1372.33 M301.912 1366.33 Q301.912 1368.51 303.266 1369.73 Q304.639 1370.96 307.103 1370.96 Q309.548 1370.96 310.921 1369.73 Q312.313 1368.51 312.313 1366.33 Q312.313 1364.15 310.921 1362.93 Q309.548 1361.7 307.103 1361.7 Q304.639 1361.7 303.266 1362.93 Q301.912 1364.15 301.912 1366.33 Z" fill="#000000" fill-rule="nonzero" fill-opacity="1" /><path clip-path="url(#clip000)" d="M100.788 1175.17 L108.426 1175.17 L108.426 1148.81 L100.116 1150.48 L100.116 1146.22 L108.38 1144.55 L113.056 1144.55 L113.056 1175.17 L120.695 1175.17 L120.695 1179.11 L100.788 1179.11 L100.788 1175.17 Z" fill="#000000" fill-rule="nonzero" fill-opacity="1" /><path clip-path="url(#clip000)" d="M130.139 1173.23 L135.023 1173.23 L135.023 1179.11 L130.139 1179.11 L130.139 1173.23 Z" fill="#000000" fill-rule="nonzero" fill-opacity="1" /><path clip-path="url(#clip000)" d="M155.209 1147.63 Q151.597 1147.63 149.769 1151.19 Q147.963 1154.73 147.963 1161.86 Q147.963 1168.97 149.769 1172.54 Q151.597 1176.08 155.209 1176.08 Q158.843 1176.08 160.648 1172.54 Q162.477 1168.97 162.477 1161.86 Q162.477 1154.73 160.648 1151.19 Q158.843 1147.63 155.209 1147.63 M155.209 1143.92 Q161.019 1143.92 164.074 1148.53 Q167.153 1153.11 167.153 1161.86 Q167.153 1170.59 164.074 1175.2 Q161.019 1179.78 155.209 1179.78 Q149.398 1179.78 146.32 1175.2 Q143.264 1170.59 143.264 1161.86 Q143.264 1153.11 146.32 1148.53 Q149.398 1143.92 155.209 1143.92 Z" fill="#000000" fill-rule="nonzero" fill-opacity="1" /><path clip-path="url(#clip000)" d="M185.37 1147.63 Q181.759 1147.63 179.931 1151.19 Q178.125 1154.73 178.125 1161.86 Q178.125 1168.97 179.931 1172.54 Q181.759 1176.08 185.37 1176.08 Q189.005 1176.08 190.81 1172.54 Q192.639 1168.97 192.639 1161.86 Q192.639 1154.73 190.81 1151.19 Q189.005 1147.63 185.37 1147.63 M185.37 1143.92 Q191.181 1143.92 194.236 1148.53 Q197.315 1153.11 197.315 1161.86 Q197.315 1170.59 194.236 1175.2 Q191.181 1179.78 185.37 1179.78 Q179.56 1179.78 176.482 1175.2 Q173.426 1170.59 173.426 1161.86 Q173.426 1153.11 176.482 1148.53 Q179.56 1143.92 185.37 1143.92 Z" fill="#000000" fill-rule="nonzero" fill-opacity="1" /><path clip-path="url(#clip000)" d="M233.704 1153.65 L223.125 1164.27 L233.704 1174.85 L230.949 1177.65 L220.324 1167.03 L209.699 1177.65 L206.968 1174.85 L217.523 1164.27 L206.968 1153.65 L209.699 1150.85 L220.324 1161.47 L230.949 1150.85 L233.704 1153.65 Z" fill="#000000" fill-rule="nonzero" fill-opacity="1" /><path clip-path="url(#clip000)" d="M246.065 1175.17 L253.703 1175.17 L253.703 1148.81 L245.393 1150.48 L245.393 1146.22 L253.657 1144.55 L258.333 1144.55 L258.333 1175.17 L265.972 1175.17 L265.972 1179.11 L246.065 1179.11 L246.065 1175.17 Z" fill="#000000" fill-rule="nonzero" fill-opacity="1" /><path clip-path="url(#clip000)" d="M285.416 1147.63 Q281.805 1147.63 279.976 1151.19 Q278.171 1154.73 278.171 1161.86 Q278.171 1168.97 279.976 1172.54 Q281.805 1176.08 285.416 1176.08 Q289.05 1176.08 290.856 1172.54 Q292.685 1168.97 292.685 1161.86 Q292.685 1154.73 290.856 1151.19 Q289.05 1147.63 285.416 1147.63 M285.416 1143.92 Q291.226 1143.92 294.282 1148.53 Q297.361 1153.11 297.361 1161.86 Q297.361 1170.59 294.282 1175.2 Q291.226 1179.78 285.416 1179.78 Q279.606 1179.78 276.527 1175.2 Q273.472 1170.59 273.472 1161.86 Q273.472 1153.11 276.527 1148.53 Q279.606 1143.92 285.416 1143.92 Z" fill="#000000" fill-rule="nonzero" fill-opacity="1" /><path clip-path="url(#clip000)" d="M299.166 1151.12 L299.166 1147.66 Q300.596 1148.33 302.063 1148.69 Q303.53 1149.05 304.94 1149.05 Q308.702 1149.05 310.676 1146.53 Q312.67 1143.99 312.952 1138.83 Q311.861 1140.45 310.187 1141.32 Q308.514 1142.18 306.482 1142.18 Q302.269 1142.18 299.806 1139.64 Q297.361 1137.09 297.361 1132.67 Q297.361 1128.34 299.918 1125.73 Q302.476 1123.11 306.727 1123.11 Q311.598 1123.11 314.156 1126.85 Q316.733 1130.58 316.733 1137.69 Q316.733 1144.33 313.573 1148.29 Q310.432 1152.24 305.109 1152.24 Q303.68 1152.24 302.213 1151.96 Q300.746 1151.68 299.166 1151.12 M306.727 1139.21 Q309.285 1139.21 310.771 1137.46 Q312.275 1135.71 312.275 1132.67 Q312.275 1129.64 310.771 1127.89 Q309.285 1126.12 306.727 1126.12 Q304.169 1126.12 302.664 1127.89 Q301.179 1129.64 301.179 1132.67 Q301.179 1135.71 302.664 1137.46 Q304.169 1139.21 306.727 1139.21 Z" fill="#000000" fill-rule="nonzero" fill-opacity="1" /><path clip-path="url(#clip000)" d="M100.788 939.592 L108.426 939.592 L108.426 913.227 L100.116 914.893 L100.116 910.634 L108.38 908.967 L113.056 908.967 L113.056 939.592 L120.695 939.592 L120.695 943.527 L100.788 943.527 L100.788 939.592 Z" fill="#000000" fill-rule="nonzero" fill-opacity="1" /><path clip-path="url(#clip000)" d="M130.139 937.648 L135.023 937.648 L135.023 943.527 L130.139 943.527 L130.139 937.648 Z" fill="#000000" fill-rule="nonzero" fill-opacity="1" /><path clip-path="url(#clip000)" d="M145.255 908.967 L163.611 908.967 L163.611 912.903 L149.537 912.903 L149.537 921.375 Q150.556 921.027 151.574 920.865 Q152.593 920.68 153.611 920.68 Q159.398 920.68 162.778 923.852 Q166.158 927.023 166.158 932.439 Q166.158 938.018 162.685 941.12 Q159.213 944.199 152.894 944.199 Q150.718 944.199 148.449 943.828 Q146.204 943.458 143.797 942.717 L143.797 938.018 Q145.88 939.152 148.102 939.708 Q150.324 940.263 152.801 940.263 Q156.806 940.263 159.144 938.157 Q161.482 936.051 161.482 932.439 Q161.482 928.828 159.144 926.722 Q156.806 924.615 152.801 924.615 Q150.926 924.615 149.051 925.032 Q147.199 925.449 145.255 926.328 L145.255 908.967 Z" fill="#000000" fill-rule="nonzero" fill-opacity="1" /><path clip-path="url(#clip000)" d="M185.37 912.046 Q181.759 912.046 179.931 915.611 Q178.125 919.153 178.125 926.282 Q178.125 933.389 179.931 936.953 Q181.759 940.495 185.37 940.495 Q189.005 940.495 190.81 936.953 Q192.639 933.389 192.639 926.282 Q192.639 919.153 190.81 915.611 Q189.005 912.046 185.37 912.046 M185.37 908.342 Q191.181 908.342 194.236 912.949 Q197.315 917.532 197.315 926.282 Q197.315 935.009 194.236 939.615 Q191.181 944.199 185.37 944.199 Q179.56 944.199 176.482 939.615 Q173.426 935.009 173.426 926.282 Q173.426 917.532 176.482 912.949 Q179.56 908.342 185.37 908.342 Z" fill="#000000" fill-rule="nonzero" fill-opacity="1" /><path clip-path="url(#clip000)" d="M233.704 918.065 L223.125 928.689 L233.704 939.268 L230.949 942.069 L220.324 931.444 L209.699 942.069 L206.968 939.268 L217.523 928.689 L206.968 918.065 L209.699 915.264 L220.324 925.889 L230.949 915.264 L233.704 918.065 Z" fill="#000000" fill-rule="nonzero" fill-opacity="1" /><path clip-path="url(#clip000)" d="M246.065 939.592 L253.703 939.592 L253.703 913.227 L245.393 914.893 L245.393 910.634 L253.657 908.967 L258.333 908.967 L258.333 939.592 L265.972 939.592 L265.972 943.527 L246.065 943.527 L246.065 939.592 Z" fill="#000000" fill-rule="nonzero" fill-opacity="1" /><path clip-path="url(#clip000)" d="M285.416 912.046 Q281.805 912.046 279.976 915.611 Q278.171 919.153 278.171 926.282 Q278.171 933.389 279.976 936.953 Q281.805 940.495 285.416 940.495 Q289.05 940.495 290.856 936.953 Q292.685 933.389 292.685 926.282 Q292.685 919.153 290.856 915.611 Q289.05 912.046 285.416 912.046 M285.416 908.342 Q291.226 908.342 294.282 912.949 Q297.361 917.532 297.361 926.282 Q297.361 935.009 294.282 939.615 Q291.226 944.199 285.416 944.199 Q279.606 944.199 276.527 939.615 Q273.472 935.009 273.472 926.282 Q273.472 917.532 276.527 912.949 Q279.606 908.342 285.416 908.342 Z" fill="#000000" fill-rule="nonzero" fill-opacity="1" /><path clip-path="url(#clip000)" d="M299.166 915.534 L299.166 912.073 Q300.596 912.75 302.063 913.108 Q303.53 913.465 304.94 913.465 Q308.702 913.465 310.676 910.945 Q312.67 908.406 312.952 903.252 Q311.861 904.87 310.187 905.735 Q308.514 906.6 306.482 906.6 Q302.269 906.6 299.806 904.061 Q297.361 901.503 297.361 897.084 Q297.361 892.758 299.918 890.143 Q302.476 887.529 306.727 887.529 Q311.598 887.529 314.156 891.272 Q316.733 894.996 316.733 902.105 Q316.733 908.744 313.573 912.713 Q310.432 916.662 305.109 916.662 Q303.68 916.662 302.213 916.38 Q300.746 916.098 299.166 915.534 M306.727 903.629 Q309.285 903.629 310.771 901.879 Q312.275 900.13 312.275 897.084 Q312.275 894.055 310.771 892.306 Q309.285 890.538 306.727 890.538 Q304.169 890.538 302.664 892.306 Q301.179 894.055 301.179 897.084 Q301.179 900.13 302.664 901.879 Q304.169 903.629 306.727 903.629 Z" fill="#000000" fill-rule="nonzero" fill-opacity="1" /><path clip-path="url(#clip000)" d="M104.005 704.01 L120.324 704.01 L120.324 707.945 L98.3802 707.945 L98.3802 704.01 Q101.042 701.255 105.625 696.626 Q110.232 691.973 111.412 690.63 Q113.658 688.107 114.537 686.371 Q115.44 684.612 115.44 682.922 Q115.44 680.168 113.496 678.431 Q111.575 676.695 108.473 676.695 Q106.274 676.695 103.82 677.459 Q101.389 678.223 98.6116 679.774 L98.6116 675.052 Q101.436 673.918 103.889 673.339 Q106.343 672.76 108.38 672.76 Q113.75 672.76 116.945 675.445 Q120.139 678.131 120.139 682.621 Q120.139 684.751 119.329 686.672 Q118.542 688.57 116.436 691.163 Q115.857 691.834 112.755 695.052 Q109.653 698.246 104.005 704.01 Z" fill="#000000" fill-rule="nonzero" fill-opacity="1" /><path clip-path="url(#clip000)" d="M130.139 702.066 L135.023 702.066 L135.023 707.945 L130.139 707.945 L130.139 702.066 Z" fill="#000000" fill-rule="nonzero" fill-opacity="1" /><path clip-path="url(#clip000)" d="M155.209 676.464 Q151.597 676.464 149.769 680.029 Q147.963 683.57 147.963 690.7 Q147.963 697.806 149.769 701.371 Q151.597 704.913 155.209 704.913 Q158.843 704.913 160.648 701.371 Q162.477 697.806 162.477 690.7 Q162.477 683.57 160.648 680.029 Q158.843 676.464 155.209 676.464 M155.209 672.76 Q161.019 672.76 164.074 677.367 Q167.153 681.95 167.153 690.7 Q167.153 699.427 164.074 704.033 Q161.019 708.617 155.209 708.617 Q149.398 708.617 146.32 704.033 Q143.264 699.427 143.264 690.7 Q143.264 681.95 146.32 677.367 Q149.398 672.76 155.209 672.76 Z" fill="#000000" fill-rule="nonzero" fill-opacity="1" /><path clip-path="url(#clip000)" d="M185.37 676.464 Q181.759 676.464 179.931 680.029 Q178.125 683.57 178.125 690.7 Q178.125 697.806 179.931 701.371 Q181.759 704.913 185.37 704.913 Q189.005 704.913 190.81 701.371 Q192.639 697.806 192.639 690.7 Q192.639 683.57 190.81 680.029 Q189.005 676.464 185.37 676.464 M185.37 672.76 Q191.181 672.76 194.236 677.367 Q197.315 681.95 197.315 690.7 Q197.315 699.427 194.236 704.033 Q191.181 708.617 185.37 708.617 Q179.56 708.617 176.482 704.033 Q173.426 699.427 173.426 690.7 Q173.426 681.95 176.482 677.367 Q179.56 672.76 185.37 672.76 Z" fill="#000000" fill-rule="nonzero" fill-opacity="1" /><path clip-path="url(#clip000)" d="M233.704 682.482 L223.125 693.107 L233.704 703.686 L230.949 706.487 L220.324 695.862 L209.699 706.487 L206.968 703.686 L217.523 693.107 L206.968 682.482 L209.699 679.681 L220.324 690.306 L230.949 679.681 L233.704 682.482 Z" fill="#000000" fill-rule="nonzero" fill-opacity="1" /><path clip-path="url(#clip000)" d="M246.065 704.01 L253.703 704.01 L253.703 677.644 L245.393 679.311 L245.393 675.052 L253.657 673.385 L258.333 673.385 L258.333 704.01 L265.972 704.01 L265.972 707.945 L246.065 707.945 L246.065 704.01 Z" fill="#000000" fill-rule="nonzero" fill-opacity="1" /><path clip-path="url(#clip000)" d="M285.416 676.464 Q281.805 676.464 279.976 680.029 Q278.171 683.57 278.171 690.7 Q278.171 697.806 279.976 701.371 Q281.805 704.913 285.416 704.913 Q289.05 704.913 290.856 701.371 Q292.685 697.806 292.685 690.7 Q292.685 683.57 290.856 680.029 Q289.05 676.464 285.416 676.464 M285.416 672.76 Q291.226 672.76 294.282 677.367 Q297.361 681.95 297.361 690.7 Q297.361 699.427 294.282 704.033 Q291.226 708.617 285.416 708.617 Q279.606 708.617 276.527 704.033 Q273.472 699.427 273.472 690.7 Q273.472 681.95 276.527 677.367 Q279.606 672.76 285.416 672.76 Z" fill="#000000" fill-rule="nonzero" fill-opacity="1" /><path clip-path="url(#clip000)" d="M299.166 679.952 L299.166 676.491 Q300.596 677.168 302.063 677.526 Q303.53 677.883 304.94 677.883 Q308.702 677.883 310.676 675.363 Q312.67 672.824 312.952 667.67 Q311.861 669.288 310.187 670.153 Q308.514 671.018 306.482 671.018 Q302.269 671.018 299.806 668.479 Q297.361 665.921 297.361 661.501 Q297.361 657.176 299.918 654.561 Q302.476 651.947 306.727 651.947 Q311.598 651.947 314.156 655.69 Q316.733 659.414 316.733 666.523 Q316.733 673.162 313.573 677.131 Q310.432 681.08 305.109 681.08 Q303.68 681.08 302.213 680.798 Q300.746 680.516 299.166 679.952 M306.727 668.046 Q309.285 668.046 310.771 666.297 Q312.275 664.548 312.275 661.501 Q312.275 658.473 310.771 656.724 Q309.285 654.956 306.727 654.956 Q304.169 654.956 302.664 656.724 Q301.179 658.473 301.179 661.501 Q301.179 664.548 302.664 666.297 Q304.169 668.046 306.727 668.046 Z" fill="#000000" fill-rule="nonzero" fill-opacity="1" /><path clip-path="url(#clip000)" d="M104.005 468.428 L120.324 468.428 L120.324 472.363 L98.3802 472.363 L98.3802 468.428 Q101.042 465.673 105.625 461.044 Q110.232 456.391 111.412 455.048 Q113.658 452.525 114.537 450.789 Q115.44 449.03 115.44 447.34 Q115.44 444.585 113.496 442.849 Q111.575 441.113 108.473 441.113 Q106.274 441.113 103.82 441.877 Q101.389 442.641 98.6116 444.192 L98.6116 439.47 Q101.436 438.335 103.889 437.757 Q106.343 437.178 108.38 437.178 Q113.75 437.178 116.945 439.863 Q120.139 442.548 120.139 447.039 Q120.139 449.169 119.329 451.09 Q118.542 452.988 116.436 455.581 Q115.857 456.252 112.755 459.47 Q109.653 462.664 104.005 468.428 Z" fill="#000000" fill-rule="nonzero" fill-opacity="1" /><path clip-path="url(#clip000)" d="M130.139 466.483 L135.023 466.483 L135.023 472.363 L130.139 472.363 L130.139 466.483 Z" fill="#000000" fill-rule="nonzero" fill-opacity="1" /><path clip-path="url(#clip000)" d="M145.255 437.803 L163.611 437.803 L163.611 441.738 L149.537 441.738 L149.537 450.21 Q150.556 449.863 151.574 449.701 Q152.593 449.516 153.611 449.516 Q159.398 449.516 162.778 452.687 Q166.158 455.859 166.158 461.275 Q166.158 466.854 162.685 469.956 Q159.213 473.034 152.894 473.034 Q150.718 473.034 148.449 472.664 Q146.204 472.294 143.797 471.553 L143.797 466.854 Q145.88 467.988 148.102 468.544 Q150.324 469.099 152.801 469.099 Q156.806 469.099 159.144 466.993 Q161.482 464.886 161.482 461.275 Q161.482 457.664 159.144 455.558 Q156.806 453.451 152.801 453.451 Q150.926 453.451 149.051 453.868 Q147.199 454.284 145.255 455.164 L145.255 437.803 Z" fill="#000000" fill-rule="nonzero" fill-opacity="1" /><path clip-path="url(#clip000)" d="M185.37 440.882 Q181.759 440.882 179.931 444.447 Q178.125 447.988 178.125 455.118 Q178.125 462.224 179.931 465.789 Q181.759 469.331 185.37 469.331 Q189.005 469.331 190.81 465.789 Q192.639 462.224 192.639 455.118 Q192.639 447.988 190.81 444.447 Q189.005 440.882 185.37 440.882 M185.37 437.178 Q191.181 437.178 194.236 441.785 Q197.315 446.368 197.315 455.118 Q197.315 463.845 194.236 468.451 Q191.181 473.034 185.37 473.034 Q179.56 473.034 176.482 468.451 Q173.426 463.845 173.426 455.118 Q173.426 446.368 176.482 441.785 Q179.56 437.178 185.37 437.178 Z" fill="#000000" fill-rule="nonzero" fill-opacity="1" /><path clip-path="url(#clip000)" d="M233.704 446.9 L223.125 457.525 L233.704 468.104 L230.949 470.905 L220.324 460.28 L209.699 470.905 L206.968 468.104 L217.523 457.525 L206.968 446.9 L209.699 444.099 L220.324 454.724 L230.949 444.099 L233.704 446.9 Z" fill="#000000" fill-rule="nonzero" fill-opacity="1" /><path clip-path="url(#clip000)" d="M246.065 468.428 L253.703 468.428 L253.703 442.062 L245.393 443.729 L245.393 439.47 L253.657 437.803 L258.333 437.803 L258.333 468.428 L265.972 468.428 L265.972 472.363 L246.065 472.363 L246.065 468.428 Z" fill="#000000" fill-rule="nonzero" fill-opacity="1" /><path clip-path="url(#clip000)" d="M285.416 440.882 Q281.805 440.882 279.976 444.447 Q278.171 447.988 278.171 455.118 Q278.171 462.224 279.976 465.789 Q281.805 469.331 285.416 469.331 Q289.05 469.331 290.856 465.789 Q292.685 462.224 292.685 455.118 Q292.685 447.988 290.856 444.447 Q289.05 440.882 285.416 440.882 M285.416 437.178 Q291.226 437.178 294.282 441.785 Q297.361 446.368 297.361 455.118 Q297.361 463.845 294.282 468.451 Q291.226 473.034 285.416 473.034 Q279.606 473.034 276.527 468.451 Q273.472 463.845 273.472 455.118 Q273.472 446.368 276.527 441.785 Q279.606 437.178 285.416 437.178 Z" fill="#000000" fill-rule="nonzero" fill-opacity="1" /><path clip-path="url(#clip000)" d="M299.166 444.37 L299.166 440.909 Q300.596 441.586 302.063 441.943 Q303.53 442.301 304.94 442.301 Q308.702 442.301 310.676 439.781 Q312.67 437.241 312.952 432.088 Q311.861 433.706 310.187 434.571 Q308.514 435.436 306.482 435.436 Q302.269 435.436 299.806 432.897 Q297.361 430.339 297.361 425.919 Q297.361 421.593 299.918 418.979 Q302.476 416.365 306.727 416.365 Q311.598 416.365 314.156 420.108 Q316.733 423.832 316.733 430.941 Q316.733 437.58 313.573 441.548 Q310.432 445.498 305.109 445.498 Q303.68 445.498 302.213 445.216 Q300.746 444.934 299.166 444.37 M306.727 432.464 Q309.285 432.464 310.771 430.715 Q312.275 428.966 312.275 425.919 Q312.275 422.891 310.771 421.142 Q309.285 419.374 306.727 419.374 Q304.169 419.374 302.664 421.142 Q301.179 422.891 301.179 425.919 Q301.179 428.966 302.664 430.715 Q304.169 432.464 306.727 432.464 Z" fill="#000000" fill-rule="nonzero" fill-opacity="1" /><path clip-path="url(#clip000)" d="M114.144 218.147 Q117.5 218.864 119.375 221.133 Q121.274 223.401 121.274 226.735 Q121.274 231.85 117.755 234.651 Q114.237 237.452 107.755 237.452 Q105.579 237.452 103.264 237.012 Q100.973 236.596 98.519 235.739 L98.519 231.225 Q100.463 232.36 102.778 232.938 Q105.093 233.517 107.616 233.517 Q112.014 233.517 114.306 231.781 Q116.621 230.045 116.621 226.735 Q116.621 223.679 114.468 221.966 Q112.338 220.23 108.519 220.23 L104.491 220.23 L104.491 216.387 L108.704 216.387 Q112.153 216.387 113.982 215.022 Q115.811 213.633 115.811 211.04 Q115.811 208.378 113.912 206.966 Q112.037 205.531 108.519 205.531 Q106.598 205.531 104.399 205.948 Q102.2 206.364 99.5607 207.244 L99.5607 203.077 Q102.223 202.337 104.538 201.966 Q106.875 201.596 108.936 201.596 Q114.26 201.596 117.362 204.026 Q120.463 206.434 120.463 210.554 Q120.463 213.425 118.82 215.415 Q117.176 217.383 114.144 218.147 Z" fill="#000000" fill-rule="nonzero" fill-opacity="1" /><path clip-path="url(#clip000)" d="M130.139 230.901 L135.023 230.901 L135.023 236.781 L130.139 236.781 L130.139 230.901 Z" fill="#000000" fill-rule="nonzero" fill-opacity="1" /><path clip-path="url(#clip000)" d="M155.209 205.3 Q151.597 205.3 149.769 208.864 Q147.963 212.406 147.963 219.536 Q147.963 226.642 149.769 230.207 Q151.597 233.748 155.209 233.748 Q158.843 233.748 160.648 230.207 Q162.477 226.642 162.477 219.536 Q162.477 212.406 160.648 208.864 Q158.843 205.3 155.209 205.3 M155.209 201.596 Q161.019 201.596 164.074 206.202 Q167.153 210.786 167.153 219.536 Q167.153 228.262 164.074 232.869 Q161.019 237.452 155.209 237.452 Q149.398 237.452 146.32 232.869 Q143.264 228.262 143.264 219.536 Q143.264 210.786 146.32 206.202 Q149.398 201.596 155.209 201.596 Z" fill="#000000" fill-rule="nonzero" fill-opacity="1" /><path clip-path="url(#clip000)" d="M185.37 205.3 Q181.759 205.3 179.931 208.864 Q178.125 212.406 178.125 219.536 Q178.125 226.642 179.931 230.207 Q181.759 233.748 185.37 233.748 Q189.005 233.748 190.81 230.207 Q192.639 226.642 192.639 219.536 Q192.639 212.406 190.81 208.864 Q189.005 205.3 185.37 205.3 M185.37 201.596 Q191.181 201.596 194.236 206.202 Q197.315 210.786 197.315 219.536 Q197.315 228.262 194.236 232.869 Q191.181 237.452 185.37 237.452 Q179.56 237.452 176.482 232.869 Q173.426 228.262 173.426 219.536 Q173.426 210.786 176.482 206.202 Q179.56 201.596 185.37 201.596 Z" fill="#000000" fill-rule="nonzero" fill-opacity="1" /><path clip-path="url(#clip000)" d="M233.704 211.318 L223.125 221.943 L233.704 232.522 L230.949 235.323 L220.324 224.698 L209.699 235.323 L206.968 232.522 L217.523 221.943 L206.968 211.318 L209.699 208.517 L220.324 219.142 L230.949 208.517 L233.704 211.318 Z" fill="#000000" fill-rule="nonzero" fill-opacity="1" /><path clip-path="url(#clip000)" d="M246.065 232.846 L253.703 232.846 L253.703 206.48 L245.393 208.147 L245.393 203.888 L253.657 202.221 L258.333 202.221 L258.333 232.846 L265.972 232.846 L265.972 236.781 L246.065 236.781 L246.065 232.846 Z" fill="#000000" fill-rule="nonzero" fill-opacity="1" /><path clip-path="url(#clip000)" d="M285.416 205.3 Q281.805 205.3 279.976 208.864 Q278.171 212.406 278.171 219.536 Q278.171 226.642 279.976 230.207 Q281.805 233.748 285.416 233.748 Q289.05 233.748 290.856 230.207 Q292.685 226.642 292.685 219.536 Q292.685 212.406 290.856 208.864 Q289.05 205.3 285.416 205.3 M285.416 201.596 Q291.226 201.596 294.282 206.202 Q297.361 210.786 297.361 219.536 Q297.361 228.262 294.282 232.869 Q291.226 237.452 285.416 237.452 Q279.606 237.452 276.527 232.869 Q273.472 228.262 273.472 219.536 Q273.472 210.786 276.527 206.202 Q279.606 201.596 285.416 201.596 Z" fill="#000000" fill-rule="nonzero" fill-opacity="1" /><path clip-path="url(#clip000)" d="M299.166 208.787 L299.166 205.327 Q300.596 206.004 302.063 206.361 Q303.53 206.719 304.94 206.719 Q308.702 206.719 310.676 204.198 Q312.67 201.659 312.952 196.506 Q311.861 198.123 310.187 198.989 Q308.514 199.854 306.482 199.854 Q302.269 199.854 299.806 197.315 Q297.361 194.757 297.361 190.337 Q297.361 186.011 299.918 183.397 Q302.476 180.783 306.727 180.783 Q311.598 180.783 314.156 184.525 Q316.733 188.249 316.733 195.359 Q316.733 201.998 313.573 205.966 Q310.432 209.916 305.109 209.916 Q303.68 209.916 302.213 209.634 Q300.746 209.352 299.166 208.787 M306.727 196.882 Q309.285 196.882 310.771 195.133 Q312.275 193.384 312.275 190.337 Q312.275 187.309 310.771 185.56 Q309.285 183.792 306.727 183.792 Q304.169 183.792 302.664 185.56 Q301.179 187.309 301.179 190.337 Q301.179 193.384 302.664 195.133 Q304.169 196.882 306.727 196.882 Z" fill="#000000" fill-rule="nonzero" fill-opacity="1" /><path clip-path="url(#clip000)" d="M-9.64527 840.632 L0.4762 840.632 L0.4762 828.569 L5.02768 828.569 L5.02768 840.632 L24.3794 840.632 Q28.7399 840.632 29.9813 839.454 Q31.2226 838.245 31.2226 834.584 L31.2226 828.569 L36.1242 828.569 L36.1242 834.584 Q36.1242 841.364 33.6097 843.942 Q31.0634 846.52 24.3794 846.52 L5.02768 846.52 L5.02768 850.817 L0.4762 850.817 L0.4762 846.52 L-9.64527 846.52 L-9.64527 840.632 Z" fill="#000000" fill-rule="nonzero" fill-opacity="1" /><path clip-path="url(#clip000)" d="M-11.3958 789.738 L-11.3958 784.327 L42.1716 800.878 L42.1716 806.289 L-11.3958 789.738 Z" fill="#000000" fill-rule="nonzero" fill-opacity="1" /><path clip-path="url(#clip000)" d="M14.6081 727.831 L36.1242 727.831 L36.1242 733.688 L14.799 733.688 Q9.7383 733.688 7.22385 735.661 Q4.7094 737.635 4.7094 741.581 Q4.7094 746.324 7.73311 749.061 Q10.7568 751.798 15.9767 751.798 L36.1242 751.798 L36.1242 757.687 L0.4762 757.687 L0.4762 751.798 L6.01437 751.798 Q2.79968 749.698 1.20826 746.865 Q-0.38317 744 -0.38317 740.276 Q-0.38317 734.133 3.43625 730.982 Q7.22385 727.831 14.6081 727.831 Z" fill="#000000" fill-rule="nonzero" fill-opacity="1" /><path clip-path="url(#clip000)" d="M1.52654 693.425 L7.06471 693.425 Q5.79157 695.907 5.15499 698.581 Q4.51842 701.255 4.51842 704.119 Q4.51842 708.48 5.85522 710.676 Q7.19202 712.84 9.86562 712.84 Q11.9026 712.84 13.0803 711.281 Q14.2261 709.721 15.2765 705.01 L15.7221 703.005 Q17.0589 696.767 19.5097 694.157 Q21.9286 691.515 26.2891 691.515 Q31.2544 691.515 34.1508 695.462 Q37.0472 699.377 37.0472 706.252 Q37.0472 709.116 36.4743 712.235 Q35.9332 715.323 34.8192 718.76 L28.7718 718.76 Q30.4587 715.514 31.318 712.363 Q32.1456 709.212 32.1456 706.124 Q32.1456 701.987 30.7451 699.759 Q29.3129 697.531 26.7347 697.531 Q24.3476 697.531 23.0745 699.154 Q21.8013 700.745 20.6237 706.188 L20.1462 708.225 Q19.0004 713.668 16.6451 716.087 Q14.258 718.506 10.1202 718.506 Q5.09134 718.506 2.35408 714.941 Q-0.38317 711.376 -0.38317 704.819 Q-0.38317 701.573 0.0942579 698.708 Q0.571686 695.844 1.52654 693.425 Z" fill="#000000" fill-rule="nonzero" fill-opacity="1" /><path clip-path="url(#clip001)" d="M933.752 1454.11 L937.395 1453.9 L940.621 1453.69 L943.427 1453.48 L945.814 1453.27 L947.786 1453.06 L949.356 1452.85 L950.542 1452.64 L951.367 1452.43 L951.857 1452.22 L952.046 1452.01 L951.971 1451.8 L951.672 1451.59 L951.194 1451.38 L950.583 1451.17 L949.887 1450.96 L949.155 1450.75 L948.437 1450.54 L947.781 1450.33 L947.236 1450.12 L946.847 1449.9 L946.656 1449.69 L946.702 1449.48 L947.02 1449.27 L947.638 1449.06 L948.582 1448.85 L949.87 1448.64 L951.512 1448.43 L953.516 1448.22 L955.879 1448.01 L958.593 1447.8 L961.643 1447.59 L965.008 1447.38 L968.661 1447.17 L972.566 1446.96 L976.686 1446.75 L980.974 1446.54 L985.384 1446.33 L989.861 1446.12 L994.35 1445.91 L998.793 1445.7 L1003.13 1445.49 L1007.3 1445.28 L1011.25 1445.07 L1014.91 1444.86 L1018.22 1444.65 L1021.14 1444.44 L1023.61 1444.23 L1025.59 1444.02 L1027.02 1443.81 L1027.88 1443.6 L1028.13 1443.38 L1027.74 1443.17 L1026.71 1442.96 L1025 1442.75 L1022.62 1442.54 L1019.57 1442.33 L1015.86 1442.12 L1011.5 1441.91 L1006.51 1441.7 L465.261 1441.7 L460.272 1441.91 L455.91 1442.12 L452.197 1442.33 L449.148 1442.54 L446.77 1442.75 L445.064 1442.96 L444.025 1443.17 L443.639 1443.38 L443.888 1443.6 L444.746 1443.81 L446.18 1444.02 L448.154 1444.23 L450.625 1444.44 L453.545 1444.65 L456.862 1444.86 L460.522 1445.07 L464.467 1445.28 L468.639 1445.49 L472.976 1445.7 L477.419 1445.91 L481.908 1446.12 L486.385 1446.33 L490.795 1446.54 L495.084 1446.75 L499.203 1446.96 L503.108 1447.17 L506.761 1447.38 L510.126 1447.59 L513.176 1447.8 L515.89 1448.01 L518.253 1448.22 L520.257 1448.43 L521.899 1448.64 L523.187 1448.85 L524.131 1449.06 L524.749 1449.27 L525.067 1449.48 L525.113 1449.69 L524.922 1449.9 L524.533 1450.12 L523.988 1450.33 L523.332 1450.54 L522.614 1450.75 L521.882 1450.96 L521.186 1451.17 L520.575 1451.38 L520.097 1451.59 L519.798 1451.8 L519.723 1452.01 L519.912 1452.22 L520.402 1452.43 L521.227 1452.64 L522.413 1452.85 L523.983 1453.06 L525.956 1453.27 L528.342 1453.48 L531.148 1453.69 L534.375 1453.9 L538.017 1454.11 L933.752 1454.11  Z" fill="#009af9" fill-rule="evenodd" fill-opacity="1"/>
<polyline clip-path="url(#clip001)" style="stroke:#000000; stroke-linecap:round; stroke-linejoin:round; stroke-width:4; stroke-opacity:1; fill:none" points="933.752,1454.11 937.395,1453.9 940.621,1453.69 943.427,1453.48 945.814,1453.27 947.786,1453.06 949.356,1452.85 950.542,1452.64 951.367,1452.43 951.857,1452.22 952.046,1452.01 951.971,1451.8 951.672,1451.59 951.194,1451.38 950.583,1451.17 949.887,1450.96 949.155,1450.75 948.437,1450.54 947.781,1450.33 947.236,1450.12 946.847,1449.9 946.656,1449.69 946.702,1449.48 947.02,1449.27 947.638,1449.06 948.582,1448.85 949.87,1448.64 951.512,1448.43 953.516,1448.22 955.879,1448.01 958.593,1447.8 961.643,1447.59 965.008,1447.38 968.661,1447.17 972.566,1446.96 976.686,1446.75 980.974,1446.54 985.384,1446.33 989.861,1446.12 994.35,1445.91 998.793,1445.7 1003.13,1445.49 1007.3,1445.28 1011.25,1445.07 1014.91,1444.86 1018.22,1444.65 1021.14,1444.44 1023.61,1444.23 1025.59,1444.02 1027.02,1443.81 1027.88,1443.6 1028.13,1443.38 1027.74,1443.17 1026.71,1442.96 1025,1442.75 1022.62,1442.54 1019.57,1442.33 1015.86,1442.12 1011.5,1441.91 1006.51,1441.7 465.261,1441.7 460.272,1441.91 455.91,1442.12 452.197,1442.33 449.148,1442.54 446.77,1442.75 445.064,1442.96 444.025,1443.17 443.639,1443.38 443.888,1443.6 444.746,1443.81 446.18,1444.02 448.154,1444.23 450.625,1444.44 453.545,1444.65 456.862,1444.86 460.522,1445.07 464.467,1445.28 468.639,1445.49 472.976,1445.7 477.419,1445.91 481.908,1446.12 486.385,1446.33 490.795,1446.54 495.084,1446.75 499.203,1446.96 503.108,1447.17 506.761,1447.38 510.126,1447.59 513.176,1447.8 515.89,1448.01 518.253,1448.22 520.257,1448.43 521.899,1448.64 523.187,1448.85 524.131,1449.06 524.749,1449.27 525.067,1449.48 525.113,1449.69 524.922,1449.9 524.533,1450.12 523.988,1450.33 523.332,1450.54 522.614,1450.75 521.882,1450.96 521.186,1451.17 520.575,1451.38 520.097,1451.59 519.798,1451.8 519.723,1452.01 519.912,1452.22 520.402,1452.43 521.227,1452.64 522.413,1452.85 523.983,1453.06 525.956,1453.27 528.342,1453.48 531.148,1453.69 534.375,1453.9 538.017,1454.11 933.752,1454.11 "/>
<path clip-path="url(#clip001)" d="M2046.99 450.545 L2049.69 449.228 L2050.99 447.911 L2050.92 446.593 L2049.53 445.276 L2046.89 443.959 L2043.09 442.642 L2038.25 441.325 L2032.48 440.007 L2025.91 438.69 L2018.7 437.373 L2010.96 436.056 L2002.85 434.739 L1994.48 433.422 L1985.97 432.104 L1977.44 430.787 L1968.97 429.47 L1960.63 428.153 L1952.49 426.836 L1944.58 425.518 L1936.93 424.201 L1929.54 422.884 L1922.42 421.567 L1915.55 420.25 L1908.91 418.932 L1902.47 417.615 L1896.21 416.298 L1890.09 414.981 L1884.08 413.664 L1878.15 412.347 L1872.29 411.029 L1866.47 409.712 L1860.69 408.395 L1854.95 407.078 L1849.23 405.761 L1843.57 404.443 L1837.96 403.126 L1832.42 401.809 L1826.99 400.492 L1821.68 399.175 L1816.52 397.857 L1811.53 396.54 L1806.74 395.223 L1802.16 393.906 L1797.83 392.589 L1793.74 391.272 L1789.93 389.954 L1786.39 388.637 L1783.14 387.32 L1780.16 386.003 L1777.47 384.686 L1775.06 383.368 L1772.92 382.051 L1771.04 380.734 L1769.41 379.417 L1768.03 378.1 L1766.89 376.782 L1765.98 375.465 L1765.28 374.148 L1764.79 372.831 L1764.51 371.514 L1764.44 370.197 L1764.57 368.879 L1764.9 367.562 L1765.44 366.245 L1766.19 364.928 L1767.16 363.611 L1768.35 362.293 L1769.78 360.976 L1771.45 359.659 L1773.36 358.342 L1775.53 357.025 L1777.96 355.707 L1780.65 354.39 L1783.59 353.073 L1786.79 351.756 L1790.23 350.439 L1793.89 349.122 L1797.75 347.804 L1801.79 346.487 L1805.97 345.17 L1810.25 343.853 L1814.59 342.536 L1818.94 341.218 L1823.24 339.901 L1827.44 338.584 L1831.49 337.267 L1835.31 335.95 L1838.86 334.633 L1842.08 333.315 L1844.92 331.998 L1847.32 330.681 L1849.25 329.364 L1850.67 328.047 L1851.57 326.729 L1851.92 325.412 L1665.57 325.412 L1665.92 326.729 L1666.81 328.047 L1668.24 329.364 L1670.17 330.681 L1672.57 331.998 L1675.41 333.315 L1678.62 334.633 L1682.17 335.95 L1686 337.267 L1690.04 338.584 L1694.25 339.901 L1698.55 341.218 L1702.9 342.536 L1707.24 343.853 L1711.52 345.17 L1715.7 346.487 L1719.74 347.804 L1723.6 349.122 L1727.26 350.439 L1730.7 351.756 L1733.9 353.073 L1736.84 354.39 L1739.53 355.707 L1741.96 357.025 L1744.13 358.342 L1746.04 359.659 L1747.71 360.976 L1749.14 362.293 L1750.33 363.611 L1751.3 364.928 L1752.05 366.245 L1752.59 367.562 L1752.92 368.879 L1753.05 370.197 L1752.98 371.514 L1752.7 372.831 L1752.21 374.148 L1751.51 375.465 L1750.6 376.782 L1749.45 378.1 L1748.08 379.417 L1746.45 380.734 L1744.57 382.051 L1742.43 383.368 L1740.02 384.686 L1737.33 386.003 L1734.35 387.32 L1731.1 388.637 L1727.56 389.954 L1723.74 391.272 L1719.66 392.589 L1715.33 393.906 L1710.75 395.223 L1705.96 396.54 L1700.97 397.857 L1695.81 399.175 L1690.5 400.492 L1685.06 401.809 L1679.53 403.126 L1673.92 404.443 L1668.26 405.761 L1662.54 407.078 L1656.8 408.395 L1651.02 409.712 L1645.2 411.029 L1639.34 412.347 L1633.41 413.664 L1627.4 414.981 L1621.28 416.298 L1615.02 417.615 L1608.58 418.932 L1601.94 420.25 L1595.07 421.567 L1587.95 422.884 L1580.56 424.201 L1572.91 425.518 L1565 426.836 L1556.85 428.153 L1548.52 429.47 L1540.05 430.787 L1531.51 432.104 L1523.01 433.422 L1514.64 434.739 L1506.53 436.056 L1498.79 437.373 L1491.57 438.69 L1485.01 440.007 L1479.24 441.325 L1474.39 442.642 L1470.6 443.959 L1467.96 445.276 L1466.57 446.593 L1466.5 447.911 L1467.8 449.228 L1470.5 450.545 L2046.99 450.545  Z" fill="#e26f46" fill-rule="evenodd" fill-opacity="1"/>
<polyline clip-path="url(#clip001)" style="stroke:#000000; stroke-linecap:round; stroke-linejoin:round; stroke-width:4; stroke-opacity:1; fill:none" points="2046.99,450.545 2049.69,449.228 2050.99,447.911 2050.92,446.593 2049.53,445.276 2046.89,443.959 2043.09,442.642 2038.25,441.325 2032.48,440.007 2025.91,438.69 2018.7,437.373 2010.96,436.056 2002.85,434.739 1994.48,433.422 1985.97,432.104 1977.44,430.787 1968.97,429.47 1960.63,428.153 1952.49,426.836 1944.58,425.518 1936.93,424.201 1929.54,422.884 1922.42,421.567 1915.55,420.25 1908.91,418.932 1902.47,417.615 1896.21,416.298 1890.09,414.981 1884.08,413.664 1878.15,412.347 1872.29,411.029 1866.47,409.712 1860.69,408.395 1854.95,407.078 1849.23,405.761 1843.57,404.443 1837.96,403.126 1832.42,401.809 1826.99,400.492 1821.68,399.175 1816.52,397.857 1811.53,396.54 1806.74,395.223 1802.16,393.906 1797.83,392.589 1793.74,391.272 1789.93,389.954 1786.39,388.637 1783.14,387.32 1780.16,386.003 1777.47,384.686 1775.06,383.368 1772.92,382.051 1771.04,380.734 1769.41,379.417 1768.03,378.1 1766.89,376.782 1765.98,375.465 1765.28,374.148 1764.79,372.831 1764.51,371.514 1764.44,370.197 1764.57,368.879 1764.9,367.562 1765.44,366.245 1766.19,364.928 1767.16,363.611 1768.35,362.293 1769.78,360.976 1771.45,359.659 1773.36,358.342 1775.53,357.025 1777.96,355.707 1780.65,354.39 1783.59,353.073 1786.79,351.756 1790.23,350.439 1793.89,349.122 1797.75,347.804 1801.79,346.487 1805.97,345.17 1810.25,343.853 1814.59,342.536 1818.94,341.218 1823.24,339.901 1827.44,338.584 1831.49,337.267 1835.31,335.95 1838.86,334.633 1842.08,333.315 1844.92,331.998 1847.32,330.681 1849.25,329.364 1850.67,328.047 1851.57,326.729 1851.92,325.412 1665.57,325.412 1665.92,326.729 1666.81,328.047 1668.24,329.364 1670.17,330.681 1672.57,331.998 1675.41,333.315 1678.62,334.633 1682.17,335.95 1686,337.267 1690.04,338.584 1694.25,339.901 1698.55,341.218 1702.9,342.536 1707.24,343.853 1711.52,345.17 1715.7,346.487 1719.74,347.804 1723.6,349.122 1727.26,350.439 1730.7,351.756 1733.9,353.073 1736.84,354.39 1739.53,355.707 1741.96,357.025 1744.13,358.342 1746.04,359.659 1747.71,360.976 1749.14,362.293 1750.33,363.611 1751.3,364.928 1752.05,366.245 1752.59,367.562 1752.92,368.879 1753.05,370.197 1752.98,371.514 1752.7,372.831 1752.21,374.148 1751.51,375.465 1750.6,376.782 1749.45,378.1 1748.08,379.417 1746.45,380.734 1744.57,382.051 1742.43,383.368 1740.02,384.686 1737.33,386.003 1734.35,387.32 1731.1,388.637 1727.56,389.954 1723.74,391.272 1719.66,392.589 1715.33,393.906 1710.75,395.223 1705.96,396.54 1700.97,397.857 1695.81,399.175 1690.5,400.492 1685.06,401.809 1679.53,403.126 1673.92,404.443 1668.26,405.761 1662.54,407.078 1656.8,408.395 1651.02,409.712 1645.2,411.029 1639.34,412.347 1633.41,413.664 1627.4,414.981 1621.28,416.298 1615.02,417.615 1608.58,418.932 1601.94,420.25 1595.07,421.567 1587.95,422.884 1580.56,424.201 1572.91,425.518 1565,426.836 1556.85,428.153 1548.52,429.47 1540.05,430.787 1531.51,432.104 1523.01,433.422 1514.64,434.739 1506.53,436.056 1498.79,437.373 1491.57,438.69 1485.01,440.007 1479.24,441.325 1474.39,442.642 1470.6,443.959 1467.96,445.276 1466.57,446.593 1466.5,447.911 1467.8,449.228 1470.5,450.545 2046.99,450.545 "/>
<path clip-path="url(#clip001)" d="M3052.18 170.121 L3057.56 168.861 L3062.2 167.601 L3066.09 166.341 L3069.21 165.081 L3071.54 163.821 L3073.09 162.561 L3073.85 161.301 L3073.85 160.041 L3073.11 158.781 L3071.65 157.521 L3069.53 156.261 L3066.77 155.001 L3063.44 153.741 L3059.6 152.481 L3055.29 151.221 L3050.58 149.961 L3045.55 148.701 L3040.24 147.441 L3034.73 146.181 L3029.08 144.921 L3023.35 143.661 L3017.6 142.401 L3011.88 141.141 L3006.24 139.881 L3000.73 138.621 L2995.39 137.361 L2990.24 136.101 L2985.32 134.841 L2980.64 133.581 L2976.23 132.321 L2972.1 131.061 L2968.24 129.801 L2964.67 128.541 L2961.38 127.281 L2958.35 126.021 L2955.59 124.761 L2953.08 123.501 L2950.8 122.241 L2948.73 120.981 L2946.87 119.721 L2945.18 118.461 L2943.65 117.201 L2942.27 115.941 L2941 114.681 L2939.84 113.421 L2938.76 112.161 L2937.74 110.901 L2936.76 109.641 L2935.81 108.381 L2934.86 107.121 L2933.91 105.861 L2932.93 104.601 L2931.9 103.341 L2930.82 102.081 L2929.66 100.821 L2928.42 99.5609 L2927.06 98.3008 L2925.59 97.0408 L2923.99 95.7808 L2922.25 94.5208 L2920.35 93.2608 L2918.29 92.0008 L2916.05 90.7408 L2913.65 89.4808 L2911.06 88.2208 L2652.15 88.2208 L2649.56 89.4808 L2647.15 90.7408 L2644.92 92.0008 L2642.86 93.2608 L2640.96 94.5208 L2639.22 95.7808 L2637.62 97.0408 L2636.15 98.3008 L2634.79 99.5609 L2633.54 100.821 L2632.39 102.081 L2631.3 103.341 L2630.28 104.601 L2629.3 105.861 L2628.35 107.121 L2627.4 108.381 L2626.45 109.641 L2625.47 110.901 L2624.45 112.161 L2623.37 113.421 L2622.2 114.681 L2620.94 115.941 L2619.55 117.201 L2618.03 118.461 L2616.34 119.721 L2614.48 120.981 L2612.41 122.241 L2610.13 123.501 L2607.62 124.761 L2604.86 126.021 L2601.83 127.281 L2598.54 128.541 L2594.96 129.801 L2591.11 131.061 L2586.97 132.321 L2582.56 133.581 L2577.89 134.841 L2572.97 136.101 L2567.82 137.361 L2562.48 138.621 L2556.96 139.881 L2551.33 141.141 L2545.61 142.401 L2539.86 143.661 L2534.13 144.921 L2528.48 146.181 L2522.97 147.441 L2517.66 148.701 L2512.62 149.961 L2507.92 151.221 L2503.61 152.481 L2499.76 153.741 L2496.44 155.001 L2493.68 156.261 L2491.56 157.521 L2490.1 158.781 L2489.36 160.041 L2489.36 161.301 L2490.12 162.561 L2491.67 163.821 L2494 165.081 L2497.12 166.341 L2501.01 167.601 L2505.65 168.861 L2511.02 170.121 L3052.18 170.121  Z" fill="#3da44d" fill-rule="evenodd" fill-opacity="1"/>
<polyline clip-path="url(#clip001)" style="stroke:#000000; stroke-linecap:round; stroke-linejoin:round; stroke-width:4; stroke-opacity:1; fill:none" points="3052.18,170.121 3057.56,168.861 3062.2,167.601 3066.09,166.341 3069.21,165.081 3071.54,163.821 3073.09,162.561 3073.85,161.301 3073.85,160.041 3073.11,158.781 3071.65,157.521 3069.53,156.261 3066.77,155.001 3063.44,153.741 3059.6,152.481 3055.29,151.221 3050.58,149.961 3045.55,148.701 3040.24,147.441 3034.73,146.181 3029.08,144.921 3023.35,143.661 3017.6,142.401 3011.88,141.141 3006.24,139.881 3000.73,138.621 2995.39,137.361 2990.24,136.101 2985.32,134.841 2980.64,133.581 2976.23,132.321 2972.1,131.061 2968.24,129.801 2964.67,128.541 2961.38,127.281 2958.35,126.021 2955.59,124.761 2953.08,123.501 2950.8,122.241 2948.73,120.981 2946.87,119.721 2945.18,118.461 2943.65,117.201 2942.27,115.941 2941,114.681 2939.84,113.421 2938.76,112.161 2937.74,110.901 2936.76,109.641 2935.81,108.381 2934.86,107.121 2933.91,105.861 2932.93,104.601 2931.9,103.341 2930.82,102.081 2929.66,100.821 2928.42,99.5609 2927.06,98.3008 2925.59,97.0408 2923.99,95.7808 2922.25,94.5208 2920.35,93.2608 2918.29,92.0008 2916.05,90.7408 2913.65,89.4808 2911.06,88.2208 2652.15,88.2208 2649.56,89.4808 2647.15,90.7408 2644.92,92.0008 2642.86,93.2608 2640.96,94.5208 2639.22,95.7808 2637.62,97.0408 2636.15,98.3008 2634.79,99.5609 2633.54,100.821 2632.39,102.081 2631.3,103.341 2630.28,104.601 2629.3,105.861 2628.35,107.121 2627.4,108.381 2626.45,109.641 2625.47,110.901 2624.45,112.161 2623.37,113.421 2622.2,114.681 2620.94,115.941 2619.55,117.201 2618.03,118.461 2616.34,119.721 2614.48,120.981 2612.41,122.241 2610.13,123.501 2607.62,124.761 2604.86,126.021 2601.83,127.281 2598.54,128.541 2594.96,129.801 2591.11,131.061 2586.97,132.321 2582.56,133.581 2577.89,134.841 2572.97,136.101 2567.82,137.361 2562.48,138.621 2556.96,139.881 2551.33,141.141 2545.61,142.401 2539.86,143.661 2534.13,144.921 2528.48,146.181 2522.97,147.441 2517.66,148.701 2512.62,149.961 2507.92,151.221 2503.61,152.481 2499.76,153.741 2496.44,155.001 2493.68,156.261 2491.56,157.521 2490.1,158.781 2489.36,160.041 2489.36,161.301 2490.12,162.561 2491.67,163.821 2494,165.081 2497.12,166.341 2501.01,167.601 2505.65,168.861 2511.02,170.121 3052.18,170.121 "/>
</svg>
