<?xml version="1.0" encoding="utf-8"?>
<svg xmlns="http://www.w3.org/2000/svg" xmlns:xlink="http://www.w3.org/1999/xlink" width="600" height="400" viewBox="0 0 2400 1600">
<defs>
  <clipPath id="clip540">
    <rect x="0" y="0" width="2400" height="1600"/>
  </clipPath>
</defs>
<path clip-path="url(#clip540)" d="M0 1600 L2400 1600 L2400 0 L0 0  Z" fill="#ffffff" fill-rule="evenodd" fill-opacity="1"/>
<defs>
  <clipPath id="clip541">
    <rect x="184" y="47" width="2169" height="1377"/>
  </clipPath>
</defs>
<path clip-path="url(#clip540)" d="M184.677 1423.18 L2352.76 1423.18 L2352.76 47.2441 L184.677 47.2441  Z" fill="#ffffff" fill-rule="evenodd" fill-opacity="1"/>
<polyline clip-path="url(#clip541)" style="stroke:#000000; stroke-linecap:round; stroke-linejoin:round; stroke-width:2; stroke-opacity:0.1; fill:none" points="246.038,1423.18 246.038,47.2441 "/>
<polyline clip-path="url(#clip541)" style="stroke:#000000; stroke-linecap:round; stroke-linejoin:round; stroke-width:2; stroke-opacity:0.1; fill:none" points="927.823,1423.18 927.823,47.2441 "/>
<polyline clip-path="url(#clip541)" style="stroke:#000000; stroke-linecap:round; stroke-linejoin:round; stroke-width:2; stroke-opacity:0.1; fill:none" points="1609.61,1423.18 1609.61,47.2441 "/>
<polyline clip-path="url(#clip541)" style="stroke:#000000; stroke-linecap:round; stroke-linejoin:round; stroke-width:2; stroke-opacity:0.1; fill:none" points="2291.4,1423.18 2291.4,47.2441 "/>
<polyline clip-path="url(#clip541)" style="stroke:#000000; stroke-linecap:round; stroke-linejoin:round; stroke-width:2; stroke-opacity:0.1; fill:none" points="184.677,1383.49 2352.76,1383.49 "/>
<polyline clip-path="url(#clip541)" style="stroke:#000000; stroke-linecap:round; stroke-linejoin:round; stroke-width:2; stroke-opacity:0.1; fill:none" points="184.677,1096.67 2352.76,1096.67 "/>
<polyline clip-path="url(#clip541)" style="stroke:#000000; stroke-linecap:round; stroke-linejoin:round; stroke-width:2; stroke-opacity:0.1; fill:none" points="184.677,809.853 2352.76,809.853 "/>
<polyline clip-path="url(#clip541)" style="stroke:#000000; stroke-linecap:round; stroke-linejoin:round; stroke-width:2; stroke-opacity:0.1; fill:none" points="184.677,523.037 2352.76,523.037 "/>
<polyline clip-path="url(#clip541)" style="stroke:#000000; stroke-linecap:round; stroke-linejoin:round; stroke-width:2; stroke-opacity:0.1; fill:none" points="184.677,236.221 2352.76,236.221 "/>
<polyline clip-path="url(#clip540)" style="stroke:#000000; stroke-linecap:round; stroke-linejoin:round; stroke-width:4; stroke-opacity:1; fill:none" points="184.677,1423.18 2352.76,1423.18 "/>
<polyline clip-path="url(#clip540)" style="stroke:#000000; stroke-linecap:round; stroke-linejoin:round; stroke-width:4; stroke-opacity:1; fill:none" points="246.038,1423.18 246.038,1404.28 "/>
<polyline clip-path="url(#clip540)" style="stroke:#000000; stroke-linecap:round; stroke-linejoin:round; stroke-width:4; stroke-opacity:1; fill:none" points="927.823,1423.18 927.823,1404.28 "/>
<polyline clip-path="url(#clip540)" style="stroke:#000000; stroke-linecap:round; stroke-linejoin:round; stroke-width:4; stroke-opacity:1; fill:none" points="1609.61,1423.18 1609.61,1404.28 "/>
<polyline clip-path="url(#clip540)" style="stroke:#000000; stroke-linecap:round; stroke-linejoin:round; stroke-width:4; stroke-opacity:1; fill:none" points="2291.4,1423.18 2291.4,1404.28 "/>
<path clip-path="url(#clip540)" d="M215.505 1468.75 L245.181 1468.75 L245.181 1472.69 L215.505 1472.69 L215.505 1468.75 Z" fill="#000000" fill-rule="nonzero" fill-opacity="1" /><path clip-path="url(#clip540)" d="M269.44 1466.95 Q272.797 1467.66 274.672 1469.93 Q276.57 1472.2 276.57 1475.53 Q276.57 1480.65 273.051 1483.45 Q269.533 1486.25 263.051 1486.25 Q260.875 1486.25 258.561 1485.81 Q256.269 1485.39 253.815 1484.54 L253.815 1480.02 Q255.76 1481.16 258.074 1481.74 Q260.389 1482.32 262.912 1482.32 Q267.311 1482.32 269.602 1480.58 Q271.917 1478.84 271.917 1475.53 Q271.917 1472.48 269.764 1470.77 Q267.635 1469.03 263.815 1469.03 L259.787 1469.03 L259.787 1465.19 L264 1465.19 Q267.449 1465.19 269.278 1463.82 Q271.107 1462.43 271.107 1459.84 Q271.107 1457.18 269.209 1455.77 Q267.334 1454.33 263.815 1454.33 Q261.894 1454.33 259.695 1454.75 Q257.496 1455.16 254.857 1456.04 L254.857 1451.88 Q257.519 1451.14 259.834 1450.77 Q262.172 1450.39 264.232 1450.39 Q269.556 1450.39 272.658 1452.83 Q275.76 1455.23 275.76 1459.35 Q275.76 1462.22 274.116 1464.21 Q272.473 1466.18 269.44 1466.95 Z" fill="#000000" fill-rule="nonzero" fill-opacity="1" /><path clip-path="url(#clip540)" d="M897.766 1468.75 L927.441 1468.75 L927.441 1472.69 L897.766 1472.69 L897.766 1468.75 Z" fill="#000000" fill-rule="nonzero" fill-opacity="1" /><path clip-path="url(#clip540)" d="M941.562 1481.64 L957.881 1481.64 L957.881 1485.58 L935.937 1485.58 L935.937 1481.64 Q938.599 1478.89 943.182 1474.26 Q947.789 1469.61 948.969 1468.27 Q951.214 1465.74 952.094 1464.01 Q952.997 1462.25 952.997 1460.56 Q952.997 1457.8 951.052 1456.07 Q949.131 1454.33 946.029 1454.33 Q943.83 1454.33 941.377 1455.09 Q938.946 1455.86 936.168 1457.41 L936.168 1452.69 Q938.992 1451.55 941.446 1450.97 Q943.9 1450.39 945.937 1450.39 Q951.307 1450.39 954.502 1453.08 Q957.696 1455.77 957.696 1460.26 Q957.696 1462.39 956.886 1464.31 Q956.099 1466.2 953.992 1468.8 Q953.414 1469.47 950.312 1472.69 Q947.21 1475.88 941.562 1481.64 Z" fill="#000000" fill-rule="nonzero" fill-opacity="1" /><path clip-path="url(#clip540)" d="M1579.37 1468.75 L1609.04 1468.75 L1609.04 1472.69 L1579.37 1472.69 L1579.37 1468.75 Z" fill="#000000" fill-rule="nonzero" fill-opacity="1" /><path clip-path="url(#clip540)" d="M1619.94 1481.64 L1627.58 1481.64 L1627.58 1455.28 L1619.27 1456.95 L1619.27 1452.69 L1627.54 1451.02 L1632.21 1451.02 L1632.21 1481.64 L1639.85 1481.64 L1639.85 1485.58 L1619.94 1485.58 L1619.94 1481.64 Z" fill="#000000" fill-rule="nonzero" fill-opacity="1" /><path clip-path="url(#clip540)" d="M2291.4 1454.1 Q2287.78 1454.1 2285.96 1457.66 Q2284.15 1461.2 2284.15 1468.33 Q2284.15 1475.44 2285.96 1479.01 Q2287.78 1482.55 2291.4 1482.55 Q2295.03 1482.55 2296.83 1479.01 Q2298.66 1475.44 2298.66 1468.33 Q2298.66 1461.2 2296.83 1457.66 Q2295.03 1454.1 2291.4 1454.1 M2291.4 1450.39 Q2297.21 1450.39 2300.26 1455 Q2303.34 1459.58 2303.34 1468.33 Q2303.34 1477.06 2300.26 1481.67 Q2297.21 1486.25 2291.4 1486.25 Q2285.59 1486.25 2282.51 1481.67 Q2279.45 1477.06 2279.45 1468.33 Q2279.45 1459.58 2282.51 1455 Q2285.59 1450.39 2291.4 1450.39 Z" fill="#000000" fill-rule="nonzero" fill-opacity="1" /><path clip-path="url(#clip540)" d="M1199.44 1518.52 L1205.3 1518.52 L1205.3 1568.04 L1199.44 1568.04 L1199.44 1518.52 Z" fill="#000000" fill-rule="nonzero" fill-opacity="1" /><path clip-path="url(#clip540)" d="M1241.01 1549.81 Q1241.01 1543.44 1238.37 1539.94 Q1235.76 1536.44 1231.02 1536.44 Q1226.3 1536.44 1223.66 1539.94 Q1221.05 1543.44 1221.05 1549.81 Q1221.05 1556.14 1223.66 1559.64 Q1226.3 1563.14 1231.02 1563.14 Q1235.76 1563.14 1238.37 1559.64 Q1241.01 1556.14 1241.01 1549.81 M1246.87 1563.62 Q1246.87 1572.72 1242.82 1577.15 Q1238.78 1581.6 1230.44 1581.6 Q1227.36 1581.6 1224.62 1581.13 Q1221.88 1580.68 1219.3 1579.72 L1219.3 1574.03 Q1221.88 1575.43 1224.4 1576.1 Q1226.91 1576.76 1229.52 1576.76 Q1235.28 1576.76 1238.15 1573.74 Q1241.01 1570.75 1241.01 1564.67 L1241.01 1561.77 Q1239.2 1564.92 1236.36 1566.48 Q1233.53 1568.04 1229.58 1568.04 Q1223.03 1568.04 1219.02 1563.05 Q1215.01 1558.05 1215.01 1549.81 Q1215.01 1541.53 1219.02 1536.53 Q1223.03 1531.54 1229.58 1531.54 Q1233.53 1531.54 1236.36 1533.1 Q1239.2 1534.66 1241.01 1537.81 L1241.01 1532.4 L1246.87 1532.4 L1246.87 1563.62 Z" fill="#000000" fill-rule="nonzero" fill-opacity="1" /><path clip-path="url(#clip540)" d="M1273 1518.58 Q1268.73 1525.9 1266.66 1533.06 Q1264.59 1540.23 1264.59 1547.58 Q1264.59 1554.93 1266.66 1562.16 Q1268.76 1569.35 1273 1576.64 L1267.9 1576.64 Q1263.13 1569.16 1260.74 1561.93 Q1258.39 1554.71 1258.39 1547.58 Q1258.39 1540.48 1260.74 1533.29 Q1263.1 1526.09 1267.9 1518.58 L1273 1518.58 Z" fill="#000000" fill-rule="nonzero" fill-opacity="1" /><path clip-path="url(#clip540)" d="M1300.56 1550.12 Q1293.46 1550.12 1290.73 1551.75 Q1287.99 1553.37 1287.99 1557.29 Q1287.99 1560.4 1290.03 1562.25 Q1292.09 1564.07 1295.63 1564.07 Q1300.5 1564.07 1303.43 1560.63 Q1306.39 1557.16 1306.39 1551.43 L1306.39 1550.12 L1300.56 1550.12 M1312.24 1547.71 L1312.24 1568.04 L1306.39 1568.04 L1306.39 1562.63 Q1304.38 1565.88 1301.39 1567.44 Q1298.4 1568.97 1294.07 1568.97 Q1288.59 1568.97 1285.35 1565.91 Q1282.13 1562.82 1282.13 1557.67 Q1282.13 1551.65 1286.14 1548.6 Q1290.18 1545.54 1298.17 1545.54 L1306.39 1545.54 L1306.39 1544.97 Q1306.39 1540.93 1303.71 1538.73 Q1301.07 1536.5 1296.26 1536.5 Q1293.21 1536.5 1290.31 1537.23 Q1287.42 1537.97 1284.74 1539.43 L1284.74 1534.02 Q1287.96 1532.78 1290.98 1532.17 Q1294 1531.54 1296.87 1531.54 Q1304.6 1531.54 1308.42 1535.55 Q1312.24 1539.56 1312.24 1547.71 Z" fill="#000000" fill-rule="nonzero" fill-opacity="1" /><path clip-path="url(#clip540)" d="M1323.38 1518.58 L1328.47 1518.58 Q1333.25 1526.09 1335.6 1533.29 Q1337.99 1540.48 1337.99 1547.58 Q1337.99 1554.71 1335.6 1561.93 Q1333.25 1569.16 1328.47 1576.64 L1323.38 1576.64 Q1327.62 1569.35 1329.68 1562.16 Q1331.78 1554.93 1331.78 1547.58 Q1331.78 1540.23 1329.68 1533.06 Q1327.62 1525.9 1323.38 1518.58 Z" fill="#000000" fill-rule="nonzero" fill-opacity="1" /><polyline clip-path="url(#clip540)" style="stroke:#000000; stroke-linecap:round; stroke-linejoin:round; stroke-width:4; stroke-opacity:1; fill:none" points="184.677,1423.18 184.677,47.2441 "/>
<polyline clip-path="url(#clip540)" style="stroke:#000000; stroke-linecap:round; stroke-linejoin:round; stroke-width:4; stroke-opacity:1; fill:none" points="184.677,1383.49 203.574,1383.49 "/>
<polyline clip-path="url(#clip540)" style="stroke:#000000; stroke-linecap:round; stroke-linejoin:round; stroke-width:4; stroke-opacity:1; fill:none" points="184.677,1096.67 203.574,1096.67 "/>
<polyline clip-path="url(#clip540)" style="stroke:#000000; stroke-linecap:round; stroke-linejoin:round; stroke-width:4; stroke-opacity:1; fill:none" points="184.677,809.853 203.574,809.853 "/>
<polyline clip-path="url(#clip540)" style="stroke:#000000; stroke-linecap:round; stroke-linejoin:round; stroke-width:4; stroke-opacity:1; fill:none" points="184.677,523.037 203.574,523.037 "/>
<polyline clip-path="url(#clip540)" style="stroke:#000000; stroke-linecap:round; stroke-linejoin:round; stroke-width:4; stroke-opacity:1; fill:none" points="184.677,236.221 203.574,236.221 "/>
<path clip-path="url(#clip540)" d="M52.1495 1396.83 L59.7884 1396.83 L59.7884 1370.46 L51.4782 1372.13 L51.4782 1367.87 L59.7421 1366.21 L64.418 1366.21 L64.418 1396.83 L72.0568 1396.83 L72.0568 1400.77 L52.1495 1400.77 L52.1495 1396.83 Z" fill="#000000" fill-rule="nonzero" fill-opacity="1" /><path clip-path="url(#clip540)" d="M81.5012 1394.89 L86.3855 1394.89 L86.3855 1400.77 L81.5012 1400.77 L81.5012 1394.89 Z" fill="#000000" fill-rule="nonzero" fill-opacity="1" /><path clip-path="url(#clip540)" d="M106.571 1369.28 Q102.959 1369.28 101.131 1372.85 Q99.3252 1376.39 99.3252 1383.52 Q99.3252 1390.63 101.131 1394.19 Q102.959 1397.73 106.571 1397.73 Q110.205 1397.73 112.01 1394.19 Q113.839 1390.63 113.839 1383.52 Q113.839 1376.39 112.01 1372.85 Q110.205 1369.28 106.571 1369.28 M106.571 1365.58 Q112.381 1365.58 115.436 1370.19 Q118.515 1374.77 118.515 1383.52 Q118.515 1392.25 115.436 1396.85 Q112.381 1401.44 106.571 1401.44 Q100.76 1401.44 97.6817 1396.85 Q94.6262 1392.25 94.6262 1383.52 Q94.6262 1374.77 97.6817 1370.19 Q100.76 1365.58 106.571 1365.58 Z" fill="#000000" fill-rule="nonzero" fill-opacity="1" /><path clip-path="url(#clip540)" d="M136.732 1369.28 Q133.121 1369.28 131.293 1372.85 Q129.487 1376.39 129.487 1383.52 Q129.487 1390.63 131.293 1394.19 Q133.121 1397.73 136.732 1397.73 Q140.367 1397.73 142.172 1394.19 Q144.001 1390.63 144.001 1383.52 Q144.001 1376.39 142.172 1372.85 Q140.367 1369.28 136.732 1369.28 M136.732 1365.58 Q142.543 1365.58 145.598 1370.19 Q148.677 1374.77 148.677 1383.52 Q148.677 1392.25 145.598 1396.85 Q142.543 1401.44 136.732 1401.44 Q130.922 1401.44 127.844 1396.85 Q124.788 1392.25 124.788 1383.52 Q124.788 1374.77 127.844 1370.19 Q130.922 1365.58 136.732 1365.58 Z" fill="#000000" fill-rule="nonzero" fill-opacity="1" /><path clip-path="url(#clip540)" d="M53.7467 1110.01 L61.3856 1110.01 L61.3856 1083.65 L53.0754 1085.31 L53.0754 1081.06 L61.3393 1079.39 L66.0152 1079.39 L66.0152 1110.01 L73.654 1110.01 L73.654 1113.95 L53.7467 1113.95 L53.7467 1110.01 Z" fill="#000000" fill-rule="nonzero" fill-opacity="1" /><path clip-path="url(#clip540)" d="M83.0984 1108.07 L87.9827 1108.07 L87.9827 1113.95 L83.0984 1113.95 L83.0984 1108.07 Z" fill="#000000" fill-rule="nonzero" fill-opacity="1" /><path clip-path="url(#clip540)" d="M108.168 1082.47 Q104.557 1082.47 102.728 1086.03 Q100.922 1089.57 100.922 1096.7 Q100.922 1103.81 102.728 1107.38 Q104.557 1110.92 108.168 1110.92 Q111.802 1110.92 113.608 1107.38 Q115.436 1103.81 115.436 1096.7 Q115.436 1089.57 113.608 1086.03 Q111.802 1082.47 108.168 1082.47 M108.168 1078.76 Q113.978 1078.76 117.033 1083.37 Q120.112 1087.95 120.112 1096.7 Q120.112 1105.43 117.033 1110.04 Q113.978 1114.62 108.168 1114.62 Q102.358 1114.62 99.2789 1110.04 Q96.2234 1105.43 96.2234 1096.7 Q96.2234 1087.95 99.2789 1083.37 Q102.358 1078.76 108.168 1078.76 Z" fill="#000000" fill-rule="nonzero" fill-opacity="1" /><path clip-path="url(#clip540)" d="M132.357 1110.01 L148.677 1110.01 L148.677 1113.95 L126.732 1113.95 L126.732 1110.01 Q129.394 1107.26 133.978 1102.63 Q138.584 1097.98 139.765 1096.63 Q142.01 1094.11 142.89 1092.38 Q143.793 1090.62 143.793 1088.93 Q143.793 1086.17 141.848 1084.44 Q139.927 1082.7 136.825 1082.7 Q134.626 1082.7 132.172 1083.46 Q129.742 1084.23 126.964 1085.78 L126.964 1081.06 Q129.788 1079.92 132.242 1079.34 Q134.695 1078.76 136.732 1078.76 Q142.103 1078.76 145.297 1081.45 Q148.492 1084.13 148.492 1088.63 Q148.492 1090.75 147.681 1092.68 Q146.894 1094.57 144.788 1097.17 Q144.209 1097.84 141.107 1101.06 Q138.006 1104.25 132.357 1110.01 Z" fill="#000000" fill-rule="nonzero" fill-opacity="1" /><path clip-path="url(#clip540)" d="M51.6634 823.198 L59.3023 823.198 L59.3023 796.832 L50.9921 798.499 L50.9921 794.24 L59.256 792.573 L63.9319 792.573 L63.9319 823.198 L71.5707 823.198 L71.5707 827.133 L51.6634 827.133 L51.6634 823.198 Z" fill="#000000" fill-rule="nonzero" fill-opacity="1" /><path clip-path="url(#clip540)" d="M81.0151 821.253 L85.8993 821.253 L85.8993 827.133 L81.0151 827.133 L81.0151 821.253 Z" fill="#000000" fill-rule="nonzero" fill-opacity="1" /><path clip-path="url(#clip540)" d="M106.084 795.652 Q102.473 795.652 100.645 799.217 Q98.8391 802.758 98.8391 809.888 Q98.8391 816.994 100.645 820.559 Q102.473 824.101 106.084 824.101 Q109.719 824.101 111.524 820.559 Q113.353 816.994 113.353 809.888 Q113.353 802.758 111.524 799.217 Q109.719 795.652 106.084 795.652 M106.084 791.948 Q111.895 791.948 114.95 796.554 Q118.029 801.138 118.029 809.888 Q118.029 818.615 114.95 823.221 Q111.895 827.804 106.084 827.804 Q100.274 827.804 97.1956 823.221 Q94.14 818.615 94.14 809.888 Q94.14 801.138 97.1956 796.554 Q100.274 791.948 106.084 791.948 Z" fill="#000000" fill-rule="nonzero" fill-opacity="1" /><path clip-path="url(#clip540)" d="M139.094 796.647 L127.288 815.096 L139.094 815.096 L139.094 796.647 M137.867 792.573 L143.746 792.573 L143.746 815.096 L148.677 815.096 L148.677 818.985 L143.746 818.985 L143.746 827.133 L139.094 827.133 L139.094 818.985 L123.492 818.985 L123.492 814.471 L137.867 792.573 Z" fill="#000000" fill-rule="nonzero" fill-opacity="1" /><path clip-path="url(#clip540)" d="M51.9875 536.382 L59.6263 536.382 L59.6263 510.016 L51.3162 511.683 L51.3162 507.424 L59.58 505.757 L64.2559 505.757 L64.2559 536.382 L71.8948 536.382 L71.8948 540.317 L51.9875 540.317 L51.9875 536.382 Z" fill="#000000" fill-rule="nonzero" fill-opacity="1" /><path clip-path="url(#clip540)" d="M81.3392 534.437 L86.2234 534.437 L86.2234 540.317 L81.3392 540.317 L81.3392 534.437 Z" fill="#000000" fill-rule="nonzero" fill-opacity="1" /><path clip-path="url(#clip540)" d="M106.408 508.836 Q102.797 508.836 100.969 512.4 Q99.1632 515.942 99.1632 523.072 Q99.1632 530.178 100.969 533.743 Q102.797 537.285 106.408 537.285 Q110.043 537.285 111.848 533.743 Q113.677 530.178 113.677 523.072 Q113.677 515.942 111.848 512.4 Q110.043 508.836 106.408 508.836 M106.408 505.132 Q112.219 505.132 115.274 509.738 Q118.353 514.322 118.353 523.072 Q118.353 531.799 115.274 536.405 Q112.219 540.988 106.408 540.988 Q100.598 540.988 97.5197 536.405 Q94.4641 531.799 94.4641 523.072 Q94.4641 514.322 97.5197 509.738 Q100.598 505.132 106.408 505.132 Z" fill="#000000" fill-rule="nonzero" fill-opacity="1" /><path clip-path="url(#clip540)" d="M137.149 521.174 Q134.001 521.174 132.149 523.326 Q130.32 525.479 130.32 529.229 Q130.32 532.956 132.149 535.132 Q134.001 537.285 137.149 537.285 Q140.297 537.285 142.126 535.132 Q143.978 532.956 143.978 529.229 Q143.978 525.479 142.126 523.326 Q140.297 521.174 137.149 521.174 M146.431 506.521 L146.431 510.78 Q144.672 509.947 142.867 509.507 Q141.084 509.067 139.325 509.067 Q134.695 509.067 132.242 512.192 Q129.811 515.317 129.464 521.637 Q130.83 519.623 132.89 518.558 Q134.95 517.47 137.427 517.47 Q142.635 517.47 145.644 520.641 Q148.677 523.789 148.677 529.229 Q148.677 534.553 145.529 537.771 Q142.381 540.988 137.149 540.988 Q131.154 540.988 127.982 536.405 Q124.811 531.799 124.811 523.072 Q124.811 514.877 128.7 510.016 Q132.589 505.132 139.14 505.132 Q140.899 505.132 142.681 505.479 Q144.487 505.826 146.431 506.521 Z" fill="#000000" fill-rule="nonzero" fill-opacity="1" /><path clip-path="url(#clip540)" d="M52.2421 249.566 L59.881 249.566 L59.881 223.2 L51.5708 224.867 L51.5708 220.608 L59.8347 218.941 L64.5106 218.941 L64.5106 249.566 L72.1494 249.566 L72.1494 253.501 L52.2421 253.501 L52.2421 249.566 Z" fill="#000000" fill-rule="nonzero" fill-opacity="1" /><path clip-path="url(#clip540)" d="M81.5938 247.621 L86.478 247.621 L86.478 253.501 L81.5938 253.501 L81.5938 247.621 Z" fill="#000000" fill-rule="nonzero" fill-opacity="1" /><path clip-path="url(#clip540)" d="M106.663 222.02 Q103.052 222.02 101.223 225.584 Q99.4178 229.126 99.4178 236.256 Q99.4178 243.362 101.223 246.927 Q103.052 250.469 106.663 250.469 Q110.297 250.469 112.103 246.927 Q113.932 243.362 113.932 236.256 Q113.932 229.126 112.103 225.584 Q110.297 222.02 106.663 222.02 M106.663 218.316 Q112.473 218.316 115.529 222.922 Q118.608 227.506 118.608 236.256 Q118.608 244.983 115.529 249.589 Q112.473 254.172 106.663 254.172 Q100.853 254.172 97.7743 249.589 Q94.7187 244.983 94.7187 236.256 Q94.7187 227.506 97.7743 222.922 Q100.853 218.316 106.663 218.316 Z" fill="#000000" fill-rule="nonzero" fill-opacity="1" /><path clip-path="url(#clip540)" d="M136.825 237.089 Q133.492 237.089 131.57 238.871 Q129.672 240.654 129.672 243.779 Q129.672 246.904 131.57 248.686 Q133.492 250.469 136.825 250.469 Q140.158 250.469 142.08 248.686 Q144.001 246.881 144.001 243.779 Q144.001 240.654 142.08 238.871 Q140.181 237.089 136.825 237.089 M132.149 235.098 Q129.14 234.358 127.45 232.297 Q125.783 230.237 125.783 227.274 Q125.783 223.131 128.723 220.723 Q131.686 218.316 136.825 218.316 Q141.987 218.316 144.927 220.723 Q147.867 223.131 147.867 227.274 Q147.867 230.237 146.177 232.297 Q144.51 234.358 141.524 235.098 Q144.904 235.885 146.779 238.177 Q148.677 240.469 148.677 243.779 Q148.677 248.802 145.598 251.487 Q142.543 254.172 136.825 254.172 Q131.107 254.172 128.029 251.487 Q124.973 248.802 124.973 243.779 Q124.973 240.469 126.871 238.177 Q128.769 235.885 132.149 235.098 M130.436 227.714 Q130.436 230.399 132.103 231.904 Q133.793 233.408 136.825 233.408 Q139.834 233.408 141.524 231.904 Q143.237 230.399 143.237 227.714 Q143.237 225.029 141.524 223.524 Q139.834 222.02 136.825 222.02 Q133.793 222.02 132.103 223.524 Q130.436 225.029 130.436 227.714 Z" fill="#000000" fill-rule="nonzero" fill-opacity="1" /><polyline clip-path="url(#clip541)" style="stroke:#009af9; stroke-linecap:round; stroke-linejoin:round; stroke-width:4; stroke-opacity:1; fill:none" points="246.038,1383.48 250.136,1383.48 254.235,1383.48 258.334,1383.48 262.433,1383.48 266.532,1383.48 270.631,1383.48 274.73,1383.48 278.829,1383.48 282.928,1383.48 287.027,1383.48 291.126,1383.48 295.224,1383.48 299.323,1383.48 303.422,1383.48 307.521,1383.48 311.62,1383.48 315.719,1383.48 319.818,1383.48 323.917,1383.47 328.016,1383.47 332.115,1383.47 336.214,1383.47 340.313,1383.47 344.411,1383.47 348.51,1383.47 352.609,1383.47 356.708,1383.47 360.807,1383.47 364.906,1383.47 369.005,1383.47 373.104,1383.47 377.203,1383.47 381.302,1383.47 385.401,1383.47 389.499,1383.47 393.598,1383.47 397.697,1383.47 401.796,1383.47 405.895,1383.47 409.994,1383.46 414.093,1383.46 418.192,1383.46 422.291,1383.46 426.39,1383.46 430.489,1383.46 434.588,1383.46 438.686,1383.46 442.785,1383.46 446.884,1383.46 450.983,1383.46 455.082,1383.46 459.181,1383.46 463.28,1383.45 467.379,1383.45 471.478,1383.45 475.577,1383.45 479.676,1383.45 483.774,1383.45 487.873,1383.45 491.972,1383.45 496.071,1383.45 500.17,1383.44 504.269,1383.44 508.368,1383.44 512.467,1383.44 516.566,1383.44 520.665,1383.44 524.764,1383.44 528.863,1383.44 532.961,1383.43 537.06,1383.43 541.159,1383.43 545.258,1383.43 549.357,1383.43 553.456,1383.42 557.555,1383.42 561.654,1383.42 565.753,1383.42 569.852,1383.42 573.951,1383.41 578.049,1383.41 582.148,1383.41 586.247,1383.41 590.346,1383.41 594.445,1383.4 598.544,1383.4 602.643,1383.4 606.742,1383.4 610.841,1383.39 614.94,1383.39 619.039,1383.39 623.138,1383.38 627.236,1383.38 631.335,1383.38 635.434,1383.37 639.533,1383.37 643.632,1383.37 647.731,1383.36 651.83,1383.36 655.929,1383.36 660.028,1383.35 664.127,1383.35 668.226,1383.34 672.324,1383.34 676.423,1383.33 680.522,1383.33 684.621,1383.33 688.72,1383.32 692.819,1383.32 696.918,1383.31 701.017,1383.31 705.116,1383.3 709.215,1383.29 713.314,1383.29 717.413,1383.28 721.511,1383.28 725.61,1383.27 729.709,1383.26 733.808,1383.26 737.907,1383.25 742.006,1383.24 746.105,1383.23 750.204,1383.23 754.303,1383.22 758.402,1383.21 762.501,1383.2 766.599,1383.19 770.698,1383.19 774.797,1383.18 778.896,1383.17 782.995,1383.16 787.094,1383.15 791.193,1383.14 795.292,1383.13 799.391,1383.12 803.49,1383.1 807.589,1383.09 811.688,1383.08 815.786,1383.07 819.885,1383.06 823.984,1383.04 828.083,1383.03 832.182,1383.02 836.281,1383 840.38,1382.99 844.479,1382.97 848.578,1382.96 852.677,1382.94 856.776,1382.93 860.874,1382.91 864.973,1382.89 869.072,1382.87 873.171,1382.86 877.27,1382.84 881.369,1382.82 885.468,1382.8 889.567,1382.78 893.666,1382.76 897.765,1382.73 901.864,1382.71 905.963,1382.69 910.061,1382.66 914.16,1382.64 918.259,1382.61 922.358,1382.59 926.457,1382.56 930.556,1382.53 934.655,1382.51 938.754,1382.48 942.853,1382.45 946.952,1382.42 951.051,1382.38 955.149,1382.35 959.248,1382.32 963.347,1382.28 967.446,1382.25 971.545,1382.21 975.644,1382.17 979.743,1382.13 983.842,1382.09 987.941,1382.05 992.04,1382.01 996.139,1381.97 1000.24,1381.92 1004.34,1381.87 1008.44,1381.83 1012.53,1381.78 1016.63,1381.73 1020.73,1381.67 1024.83,1381.62 1028.93,1381.57 1033.03,1381.51 1037.13,1381.45 1041.23,1381.39 1045.33,1381.33 1049.42,1381.26 1053.52,1381.2 1057.62,1381.13 1061.72,1381.06 1065.82,1380.99 1069.92,1380.92 1074.02,1380.84 1078.12,1380.76 1082.22,1380.68 1086.31,1380.6 1090.41,1380.51 1094.51,1380.43 1098.61,1380.34 1102.71,1380.24 1106.81,1380.15 1110.91,1380.05 1115.01,1379.95 1119.11,1379.85 1123.2,1379.74 1127.3,1379.63 1131.4,1379.52 1135.5,1379.4 1139.6,1379.28 1143.7,1379.16 1147.8,1379.03 1151.9,1378.9 1156,1378.76 1160.1,1378.62 1164.19,1378.48 1168.29,1378.34 1172.39,1378.19 1176.49,1378.03 1180.59,1377.87 1184.69,1377.71 1188.79,1377.54 1192.89,1377.36 1196.99,1377.18 1201.08,1377 1205.18,1376.81 1209.28,1376.62 1213.38,1376.42 1217.48,1376.21 1221.58,1376 1225.68,1375.78 1229.78,1375.55 1233.88,1375.32 1237.97,1375.08 1242.07,1374.84 1246.17,1374.59 1250.27,1374.33 1254.37,1374.06 1258.47,1373.79 1262.57,1373.51 1266.67,1373.22 1270.77,1372.92 1274.86,1372.61 1278.96,1372.3 1283.06,1371.97 1287.16,1371.64 1291.26,1371.29 1295.36,1370.94 1299.46,1370.58 1303.56,1370.2 1307.66,1369.82 1311.75,1369.42 1315.85,1369.02 1319.95,1368.6 1324.05,1368.17 1328.15,1367.73 1332.25,1367.27 1336.35,1366.8 1340.45,1366.32 1344.55,1365.83 1348.65,1365.32 1352.74,1364.79 1356.84,1364.26 1360.94,1363.7 1365.04,1363.13 1369.14,1362.55 1373.24,1361.95 1377.34,1361.33 1381.44,1360.69 1385.54,1360.04 1389.63,1359.36 1393.73,1358.67 1397.83,1357.96 1401.93,1357.23 1406.03,1356.48 1410.13,1355.7 1414.23,1354.91 1418.33,1354.09 1422.43,1353.25 1426.52,1352.39 1430.62,1351.5 1434.72,1350.59 1438.82,1349.65 1442.92,1348.69 1447.02,1347.7 1451.12,1346.68 1455.22,1345.63 1459.32,1344.56 1463.41,1343.45 1467.51,1342.32 1471.61,1341.15 1475.71,1339.95 1479.81,1338.71 1483.91,1337.45 1488.01,1336.14 1492.11,1334.81 1496.21,1333.43 1500.3,1332.02 1504.4,1330.57 1508.5,1329.08 1512.6,1327.54 1516.7,1325.97 1520.8,1324.35 1524.9,1322.69 1529,1320.99 1533.1,1319.23 1537.2,1317.43 1541.29,1315.58 1545.39,1313.68 1549.49,1311.73 1553.59,1309.73 1557.69,1307.67 1561.79,1305.56 1565.89,1303.39 1569.99,1301.16 1574.09,1298.88 1578.18,1296.53 1582.28,1294.12 1586.38,1291.64 1590.48,1289.1 1594.58,1286.49 1598.68,1283.81 1602.78,1281.07 1606.88,1278.25 1610.98,1275.35 1615.07,1272.38 1619.17,1269.33 1623.27,1266.2 1627.37,1262.99 1631.47,1259.7 1635.57,1256.32 1639.67,1252.85 1643.77,1249.3 1647.87,1245.65 1651.96,1241.91 1656.06,1238.07 1660.16,1234.14 1664.26,1230.11 1668.36,1225.97 1672.46,1221.73 1676.56,1217.38 1680.66,1212.92 1684.76,1208.35 1688.85,1203.67 1692.95,1198.87 1697.05,1193.95 1701.15,1188.91 1705.25,1183.75 1709.35,1178.46 1713.45,1173.04 1717.55,1167.49 1721.65,1161.81 1725.75,1155.99 1729.84,1150.03 1733.94,1143.93 1738.04,1137.69 1742.14,1131.29 1746.24,1124.75 1750.34,1118.06 1754.44,1111.21 1758.54,1104.2 1762.64,1097.03 1766.73,1089.7 1770.83,1082.21 1774.93,1074.55 1779.03,1066.71 1783.13,1058.71 1787.23,1050.52 1791.33,1042.17 1795.43,1033.63 1799.53,1024.9 1803.62,1016 1807.72,1006.9 1811.82,997.621 1815.92,988.148 1820.02,978.482 1824.12,968.622 1828.22,958.566 1832.32,948.313 1836.42,937.861 1840.51,927.209 1844.61,916.356 1848.71,905.302 1852.81,894.045 1856.91,882.586 1861.01,870.923 1865.11,859.058 1869.21,846.991 1873.31,834.722 1877.4,822.252 1881.5,809.582 1885.6,796.714 1889.7,783.65 1893.8,770.392 1897.9,756.943 1902,743.306 1906.1,729.485 1910.2,715.483 1914.3,701.305 1918.39,686.957 1922.49,672.442 1926.59,657.769 1930.69,642.943 1934.79,627.972 1938.89,612.864 1942.99,597.627 1947.09,582.27 1951.19,566.805 1955.28,551.241 1959.38,535.591 1963.48,519.866 1967.58,504.08 1971.68,488.247 1975.78,472.382 1979.88,456.5 1983.98,440.62 1988.08,424.758 1992.17,408.933 1996.27,393.165 2000.37,377.475 2004.47,361.884 2008.57,346.416 2012.67,331.094 2016.77,315.943 2020.87,300.989 2024.97,286.26 2029.06,271.784 2033.16,257.589 2037.26,243.706 2041.36,230.167 2045.46,217.003 2049.56,204.249 2053.66,191.938 2057.76,180.105 2061.86,168.788 2065.95,158.022 2070.05,147.845 2074.15,138.296 2078.25,129.415 2082.35,121.24 2086.45,113.813 2090.55,107.173 2094.65,101.362 2098.75,96.4208 2102.85,92.3914 2106.94,89.3148 2111.04,87.2325 2115.14,86.1857 2119.24,86.2151 2123.34,87.3611 2127.44,89.6635 2131.54,93.1613 2135.64,97.8928 2139.74,103.895 2143.83,111.204 2147.93,119.855 2152.03,129.881 2156.13,141.314 2160.23,154.184 2164.33,168.519 2168.43,184.345 2172.53,201.688 2176.63,220.568 2180.72,241.007 2184.82,263.021 2188.92,286.626 2193.02,311.833 2197.12,338.653 2201.22,367.093 2205.32,397.158 2209.42,428.849 2213.52,462.165 2217.61,497.103 2221.71,533.656 2225.81,571.814 2229.91,611.566 2234.01,652.898 2238.11,695.791 2242.21,740.226 2246.31,786.182 2250.41,833.632 2254.5,882.552 2258.6,932.91 2262.7,984.676 2266.8,1037.82 2270.9,1092.3 2275,1148.09 2279.1,1205.14 2283.2,1263.42 2287.3,1322.88 2291.4,1383.49 "/>
<polyline clip-path="url(#clip541)" style="stroke:#e26f46; stroke-linecap:round; stroke-linejoin:round; stroke-width:4; stroke-opacity:1; fill:none" points="246.038,1383.7 250.136,1383.68 254.235,1383.65 258.334,1383.63 262.433,1383.61 266.532,1383.6 270.631,1383.58 274.73,1383.54 278.829,1383.55 282.928,1383.6 287.027,1383.68 291.126,1383.77 295.224,1383.87 299.323,1383.97 303.422,1384.07 307.521,1384.15 311.62,1384.21 315.719,1384.24 319.818,1384.24 323.917,1384.2 328.016,1384.12 332.115,1384.01 336.214,1383.9 340.313,1383.81 344.411,1383.74 348.51,1383.69 352.609,1383.68 356.708,1383.67 360.807,1383.66 364.906,1383.65 369.005,1383.64 373.104,1383.63 377.203,1383.63 381.302,1383.63 385.401,1383.63 389.499,1383.63 393.598,1383.62 397.697,1383.62 401.796,1383.61 405.895,1383.6 409.994,1383.59 414.093,1383.57 418.192,1383.56 422.291,1383.55 426.39,1383.54 430.489,1383.53 434.588,1383.52 438.686,1383.52 442.785,1383.52 446.884,1383.52 450.983,1383.52 455.082,1383.53 459.181,1383.53 463.28,1383.53 467.379,1383.52 471.478,1383.52 475.577,1383.52 479.676,1383.51 483.774,1383.51 487.873,1383.51 491.972,1383.51 496.071,1383.5 500.17,1383.5 504.269,1383.5 508.368,1383.49 512.467,1383.49 516.566,1383.49 520.665,1383.48 524.764,1383.48 528.863,1383.48 532.961,1383.48 537.06,1383.47 541.159,1383.47 545.258,1383.48 549.357,1383.48 553.456,1383.48 557.555,1383.48 561.654,1383.48 565.753,1383.49 569.852,1383.49 573.951,1383.49 578.049,1383.49 582.148,1383.48 586.247,1383.48 590.346,1383.47 594.445,1383.47 598.544,1383.46 602.643,1383.45 606.742,1383.45 610.841,1383.44 614.94,1383.43 619.039,1383.43 623.138,1383.42 627.236,1383.42 631.335,1383.42 635.434,1383.42 639.533,1383.42 643.632,1383.42 647.731,1383.42 651.83,1383.42 655.929,1383.42 660.028,1383.43 664.127,1383.43 668.226,1383.43 672.324,1383.43 676.423,1383.43 680.522,1383.43 684.621,1383.43 688.72,1383.43 692.819,1383.42 696.918,1383.42 701.017,1383.42 705.116,1383.41 709.215,1383.41 713.314,1383.41 717.413,1383.4 721.511,1383.4 725.61,1383.4 729.709,1383.4 733.808,1383.39 737.907,1383.39 742.006,1383.39 746.105,1383.39 750.204,1383.38 754.303,1383.38 758.402,1383.38 762.501,1383.37 766.599,1383.37 770.698,1383.37 774.797,1383.37 778.896,1383.36 782.995,1383.36 787.094,1383.36 791.193,1383.35 795.292,1383.35 799.391,1383.34 803.49,1383.34 807.589,1383.33 811.688,1383.32 815.786,1383.32 819.885,1383.31 823.984,1383.3 828.083,1383.3 832.182,1383.29 836.281,1383.28 840.38,1383.28 844.479,1383.27 848.578,1383.27 852.677,1383.26 856.776,1383.26 860.874,1383.26 864.973,1383.25 869.072,1383.24 873.171,1383.24 877.27,1383.23 881.369,1383.22 885.468,1383.21 889.567,1383.2 893.666,1383.19 897.765,1383.17 901.864,1383.16 905.963,1383.15 910.061,1383.14 914.16,1383.13 918.259,1383.12 922.358,1383.11 926.457,1383.1 930.556,1383.09 934.655,1383.09 938.754,1383.08 942.853,1383.07 946.952,1383.06 951.051,1383.04 955.149,1383.03 959.248,1383.01 963.347,1383 967.446,1382.98 971.545,1382.96 975.644,1382.94 979.743,1382.92 983.842,1382.9 987.941,1382.88 992.04,1382.86 996.139,1382.84 1000.24,1382.83 1004.34,1382.81 1008.44,1382.79 1012.53,1382.77 1016.63,1382.75 1020.73,1382.73 1024.83,1382.71 1028.93,1382.69 1033.03,1382.67 1037.13,1382.64 1041.23,1382.61 1045.33,1382.58 1049.42,1382.55 1053.52,1382.52 1057.62,1382.49 1061.72,1382.46 1065.82,1382.42 1069.92,1382.39 1074.02,1382.36 1078.12,1382.33 1082.22,1382.3 1086.31,1382.26 1090.41,1382.23 1094.51,1382.19 1098.61,1382.16 1102.71,1382.12 1106.81,1382.08 1110.91,1382.04 1115.01,1381.99 1119.11,1381.94 1123.2,1381.89 1127.3,1381.84 1131.4,1381.79 1135.5,1381.74 1139.6,1381.68 1143.7,1381.63 1147.8,1381.57 1151.9,1381.51 1156,1381.46 1160.1,1381.4 1164.19,1381.34 1168.29,1381.28 1172.39,1381.21 1176.49,1381.15 1180.59,1381.08 1184.69,1381.01 1188.79,1380.93 1192.89,1380.85 1196.99,1380.77 1201.08,1380.69 1205.18,1380.6 1209.28,1380.51 1213.38,1380.42 1217.48,1380.33 1221.58,1380.23 1225.68,1380.14 1229.78,1380.04 1233.88,1379.94 1237.97,1379.83 1242.07,1379.73 1246.17,1379.62 1250.27,1379.51 1254.37,1379.39 1258.47,1379.27 1262.57,1379.14 1266.67,1379.01 1270.77,1378.88 1274.86,1378.74 1278.96,1378.6 1283.06,1378.45 1287.16,1378.3 1291.26,1378.14 1295.36,1377.98 1299.46,1377.82 1303.56,1377.65 1307.66,1377.48 1311.75,1377.3 1315.85,1377.12 1319.95,1376.94 1324.05,1376.75 1328.15,1376.55 1332.25,1376.35 1336.35,1376.14 1340.45,1375.92 1344.55,1375.7 1348.65,1375.47 1352.74,1375.23 1356.84,1374.98 1360.94,1374.73 1365.04,1374.47 1369.14,1374.21 1373.24,1373.93 1377.34,1373.65 1381.44,1373.36 1385.54,1373.07 1389.63,1372.76 1393.73,1372.45 1397.83,1372.13 1401.93,1371.8 1406.03,1371.46 1410.13,1371.11 1414.23,1370.74 1418.33,1370.37 1422.43,1369.99 1426.52,1369.59 1430.62,1369.18 1434.72,1368.77 1438.82,1368.34 1442.92,1367.89 1447.02,1367.44 1451.12,1366.97 1455.22,1366.49 1459.32,1366 1463.41,1365.49 1467.51,1364.97 1471.61,1364.43 1475.71,1363.88 1479.81,1363.31 1483.91,1362.73 1488.01,1362.13 1492.11,1361.51 1496.21,1360.87 1500.3,1360.22 1504.4,1359.54 1508.5,1358.85 1512.6,1358.14 1516.7,1357.41 1520.8,1356.66 1524.9,1355.88 1529,1355.09 1533.1,1354.27 1537.2,1353.44 1541.29,1352.57 1545.39,1351.69 1549.49,1350.78 1553.59,1349.84 1557.69,1348.88 1561.79,1347.88 1565.89,1346.87 1569.99,1345.82 1574.09,1344.74 1578.18,1343.64 1582.28,1342.5 1586.38,1341.33 1590.48,1340.13 1594.58,1338.9 1598.68,1337.63 1602.78,1336.33 1606.88,1335 1610.98,1333.63 1615.07,1332.22 1619.17,1330.77 1623.27,1329.28 1627.37,1327.75 1631.47,1326.18 1635.57,1324.57 1639.67,1322.91 1643.77,1321.21 1647.87,1319.46 1651.96,1317.66 1656.06,1315.82 1660.16,1313.92 1664.26,1311.98 1668.36,1309.98 1672.46,1307.92 1676.56,1305.82 1680.66,1303.65 1684.76,1301.43 1688.85,1299.16 1692.95,1296.82 1697.05,1294.42 1701.15,1291.95 1705.25,1289.42 1709.35,1286.83 1713.45,1284.17 1717.55,1281.44 1721.65,1278.64 1725.75,1275.76 1729.84,1272.81 1733.94,1269.79 1738.04,1266.69 1742.14,1263.51 1746.24,1260.25 1750.34,1256.9 1754.44,1253.48 1758.54,1249.96 1762.64,1246.36 1766.73,1242.66 1770.83,1238.88 1774.93,1235 1779.03,1231.03 1783.13,1226.95 1787.23,1222.78 1791.33,1218.51 1795.43,1214.13 1799.53,1209.65 1803.62,1205.06 1807.72,1200.36 1811.82,1195.55 1815.92,1190.63 1820.02,1185.59 1824.12,1180.43 1828.22,1175.15 1832.32,1169.75 1836.42,1164.23 1840.51,1158.58 1844.61,1152.8 1848.71,1146.9 1852.81,1140.86 1856.91,1134.69 1861.01,1128.38 1865.11,1121.94 1869.21,1115.36 1873.31,1108.63 1877.4,1101.77 1881.5,1094.76 1885.6,1087.6 1889.7,1080.3 1893.8,1072.85 1897.9,1065.25 1902,1057.5 1906.1,1049.6 1910.2,1041.54 1914.3,1033.33 1918.39,1024.97 1922.49,1016.45 1926.59,1007.77 1930.69,998.936 1934.79,989.945 1938.89,980.798 1942.99,971.494 1947.09,962.035 1951.19,952.421 1955.28,942.653 1959.38,932.731 1963.48,922.657 1967.58,912.431 1971.68,902.054 1975.78,891.529 1979.88,880.857 1983.98,870.042 1988.08,859.087 1992.17,847.995 1996.27,836.771 2000.37,825.417 2004.47,813.939 2008.57,802.34 2012.67,790.625 2016.77,778.799 2020.87,766.866 2024.97,754.833 2029.06,742.707 2033.16,730.496 2037.26,718.207 2041.36,705.848 2045.46,693.428 2049.56,680.954 2053.66,668.436 2057.76,655.882 2061.86,643.303 2065.95,630.708 2070.05,618.109 2074.15,605.518 2078.25,592.947 2082.35,580.411 2086.45,567.921 2090.55,555.491 2094.65,543.134 2098.75,530.863 2102.85,518.691 2106.94,506.632 2111.04,494.701 2115.14,482.914 2119.24,471.29 2123.34,459.846 2127.44,448.598 2131.54,437.563 2135.64,426.758 2139.74,416.2 2143.83,405.905 2147.93,395.889 2152.03,386.168 2156.13,376.76 2160.23,367.681 2164.33,358.951 2168.43,350.586 2172.53,342.606 2176.63,335.028 2180.72,327.868 2184.82,321.142 2188.92,314.866 2193.02,309.055 2197.12,303.724 2201.22,298.887 2205.32,294.559 2209.42,290.753 2213.52,287.482 2217.61,284.761 2221.71,282.601 2225.81,281.014 2229.91,280.011 2234.01,279.602 2238.11,279.795 2242.21,280.599 2246.31,282.019 2250.41,284.063 2254.5,286.737 2258.6,290.045 2262.7,293.993 2266.8,298.584 2270.9,303.821 2275,309.706 2279.1,316.238 2283.2,323.418 2287.3,331.245 2291.4,339.718 "/>
<path clip-path="url(#clip540)" d="M256.946 248.629 L627.249 248.629 L627.249 93.1086 L256.946 93.1086  Z" fill="#ffffff" fill-rule="evenodd" fill-opacity="1"/>
<polyline clip-path="url(#clip540)" style="stroke:#000000; stroke-linecap:round; stroke-linejoin:round; stroke-width:4; stroke-opacity:1; fill:none" points="256.946,248.629 627.249,248.629 627.249,93.1086 256.946,93.1086 256.946,248.629 "/>
<polyline clip-path="url(#clip540)" style="stroke:#009af9; stroke-linecap:round; stroke-linejoin:round; stroke-width:4; stroke-opacity:1; fill:none" points="281.036,144.949 425.574,144.949 "/>
<path clip-path="url(#clip540)" d="M449.664 127.669 L454.34 127.669 L454.34 141.835 L471.331 141.835 L471.331 127.669 L476.007 127.669 L476.007 162.229 L471.331 162.229 L471.331 145.77 L454.34 145.77 L454.34 162.229 L449.664 162.229 L449.664 127.669 Z" fill="#000000" fill-rule="nonzero" fill-opacity="1" /><path clip-path="url(#clip540)" d="M486.863 159.59 L496.678 159.59 L496.678 162.229 L482.835 162.229 L482.835 159.682 Q483.622 158.965 485.081 157.668 Q493.044 150.608 493.044 148.432 Q493.044 146.905 491.84 145.979 Q490.636 145.03 488.669 145.03 Q487.465 145.03 486.053 145.446 Q484.641 145.84 482.974 146.65 L482.974 143.803 Q484.757 143.155 486.284 142.831 Q487.835 142.507 489.155 142.507 Q492.511 142.507 494.525 144.034 Q496.539 145.562 496.539 148.062 Q496.539 151.28 488.877 157.854 Q487.581 158.965 486.863 159.59 Z" fill="#000000" fill-rule="nonzero" fill-opacity="1" /><path clip-path="url(#clip540)" d="M526.77 127.669 L530.705 127.669 L518.668 166.627 L514.733 166.627 L526.77 127.669 Z" fill="#000000" fill-rule="nonzero" fill-opacity="1" /><path clip-path="url(#clip540)" d="M550.428 127.669 L555.103 127.669 L555.103 141.835 L572.094 141.835 L572.094 127.669 L576.77 127.669 L576.77 162.229 L572.094 162.229 L572.094 145.77 L555.103 145.77 L555.103 162.229 L550.428 162.229 L550.428 127.669 Z" fill="#000000" fill-rule="nonzero" fill-opacity="1" /><path clip-path="url(#clip540)" d="M585.034 159.682 L589.756 159.682 L589.756 145.539 L584.594 146.488 L584.594 143.803 L589.918 142.9 L593.089 142.9 L593.089 159.682 L597.835 159.682 L597.835 162.229 L585.034 162.229 L585.034 159.682 Z" fill="#000000" fill-rule="nonzero" fill-opacity="1" /><polyline clip-path="url(#clip540)" style="stroke:#e26f46; stroke-linecap:round; stroke-linejoin:round; stroke-width:4; stroke-opacity:1; fill:none" points="281.036,196.789 425.574,196.789 "/>
<path clip-path="url(#clip540)" d="M463.345 214.069 Q463.368 210.967 463.345 206.893 Q458.391 206.893 454.039 202.032 Q449.78 197.309 449.664 188.976 L449.664 179.509 L454.595 179.509 L454.595 188.976 Q454.595 195.504 457.604 199.3 Q460.15 202.541 463.345 202.865 L463.345 179.509 L468.021 179.509 L468.021 202.865 Q471.215 202.541 473.761 199.3 Q476.771 195.504 476.771 188.976 L476.771 179.509 L481.701 179.509 L481.701 188.976 Q481.585 197.309 477.326 202.032 Q472.974 206.893 468.021 206.893 Q467.997 208.559 468.021 214.069 L463.345 214.069 Z" fill="#000000" fill-rule="nonzero" fill-opacity="1" /><path clip-path="url(#clip540)" d="M490.52 211.43 L500.335 211.43 L500.335 214.069 L486.493 214.069 L486.493 211.522 Q487.28 210.805 488.738 209.508 Q496.701 202.448 496.701 200.272 Q496.701 198.745 495.497 197.819 Q494.294 196.87 492.326 196.87 Q491.122 196.87 489.71 197.286 Q488.298 197.68 486.632 198.49 L486.632 195.643 Q488.414 194.995 489.942 194.671 Q491.493 194.347 492.812 194.347 Q496.169 194.347 498.182 195.874 Q500.196 197.402 500.196 199.902 Q500.196 203.12 492.534 209.694 Q491.238 210.805 490.52 211.43 Z" fill="#000000" fill-rule="nonzero" fill-opacity="1" /><path clip-path="url(#clip540)" d="M530.428 179.509 L534.363 179.509 L522.326 218.467 L518.391 218.467 L530.428 179.509 Z" fill="#000000" fill-rule="nonzero" fill-opacity="1" /><path clip-path="url(#clip540)" d="M565.775 214.069 Q565.798 210.967 565.775 206.893 Q560.821 206.893 556.469 202.032 Q552.21 197.309 552.094 188.976 L552.094 179.509 L557.025 179.509 L557.025 188.976 Q557.025 195.504 560.034 199.3 Q562.58 202.541 565.775 202.865 L565.775 179.509 L570.451 179.509 L570.451 202.865 Q573.645 202.541 576.191 199.3 Q579.201 195.504 579.201 188.976 L579.201 179.509 L584.131 179.509 L584.131 188.976 Q584.015 197.309 579.756 202.032 Q575.404 206.893 570.451 206.893 Q570.427 208.559 570.451 214.069 L565.775 214.069 Z" fill="#000000" fill-rule="nonzero" fill-opacity="1" /><path clip-path="url(#clip540)" d="M590.358 211.522 L595.08 211.522 L595.08 197.379 L589.918 198.328 L589.918 195.643 L595.242 194.74 L598.413 194.74 L598.413 211.522 L603.159 211.522 L603.159 214.069 L590.358 214.069 L590.358 211.522 Z" fill="#000000" fill-rule="nonzero" fill-opacity="1" /></svg>
