<?xml version="1.0" encoding="utf-8"?>
<svg xmlns="http://www.w3.org/2000/svg" xmlns:xlink="http://www.w3.org/1999/xlink" width="600" height="400" viewBox="0 0 2400 1600">
<defs>
  <clipPath id="clip330">
    <rect x="0" y="0" width="2400" height="1600"/>
  </clipPath>
</defs>
<path clip-path="url(#clip330)" d="M0 1600 L2400 1600 L2400 0 L0 0  Z" fill="#ffffff" fill-rule="evenodd" fill-opacity="1"/>
<defs>
  <clipPath id="clip331">
    <rect x="480" y="0" width="1681" height="1600"/>
  </clipPath>
</defs>
<path clip-path="url(#clip330)" d="M220.19 1423.18 L2352.76 1423.18 L2352.76 47.2441 L220.19 47.2441  Z" fill="#ffffff" fill-rule="evenodd" fill-opacity="1"/>
<defs>
  <clipPath id="clip332">
    <rect x="220" y="47" width="2134" height="1377"/>
  </clipPath>
</defs>
<polyline clip-path="url(#clip332)" style="stroke:#000000; stroke-linecap:round; stroke-linejoin:round; stroke-width:2; stroke-opacity:0.1; fill:none" points="280.546,1423.18 280.546,47.2441 "/>
<polyline clip-path="url(#clip332)" style="stroke:#000000; stroke-linecap:round; stroke-linejoin:round; stroke-width:2; stroke-opacity:0.1; fill:none" points="951.164,1423.18 951.164,47.2441 "/>
<polyline clip-path="url(#clip332)" style="stroke:#000000; stroke-linecap:round; stroke-linejoin:round; stroke-width:2; stroke-opacity:0.1; fill:none" points="1621.78,1423.18 1621.78,47.2441 "/>
<polyline clip-path="url(#clip332)" style="stroke:#000000; stroke-linecap:round; stroke-linejoin:round; stroke-width:2; stroke-opacity:0.1; fill:none" points="2292.4,1423.18 2292.4,47.2441 "/>
<polyline clip-path="url(#clip332)" style="stroke:#000000; stroke-linecap:round; stroke-linejoin:round; stroke-width:2; stroke-opacity:0.1; fill:none" points="220.19,1353.35 2352.76,1353.35 "/>
<polyline clip-path="url(#clip332)" style="stroke:#000000; stroke-linecap:round; stroke-linejoin:round; stroke-width:2; stroke-opacity:0.1; fill:none" points="220.19,1129.58 2352.76,1129.58 "/>
<polyline clip-path="url(#clip332)" style="stroke:#000000; stroke-linecap:round; stroke-linejoin:round; stroke-width:2; stroke-opacity:0.1; fill:none" points="220.19,905.81 2352.76,905.81 "/>
<polyline clip-path="url(#clip332)" style="stroke:#000000; stroke-linecap:round; stroke-linejoin:round; stroke-width:2; stroke-opacity:0.1; fill:none" points="220.19,682.04 2352.76,682.04 "/>
<polyline clip-path="url(#clip332)" style="stroke:#000000; stroke-linecap:round; stroke-linejoin:round; stroke-width:2; stroke-opacity:0.1; fill:none" points="220.19,458.27 2352.76,458.27 "/>
<polyline clip-path="url(#clip332)" style="stroke:#000000; stroke-linecap:round; stroke-linejoin:round; stroke-width:2; stroke-opacity:0.1; fill:none" points="220.19,234.5 2352.76,234.5 "/>
<polyline clip-path="url(#clip330)" style="stroke:#000000; stroke-linecap:round; stroke-linejoin:round; stroke-width:4; stroke-opacity:1; fill:none" points="220.19,1423.18 2352.76,1423.18 "/>
<polyline clip-path="url(#clip330)" style="stroke:#000000; stroke-linecap:round; stroke-linejoin:round; stroke-width:4; stroke-opacity:1; fill:none" points="280.546,1423.18 280.546,1404.28 "/>
<polyline clip-path="url(#clip330)" style="stroke:#000000; stroke-linecap:round; stroke-linejoin:round; stroke-width:4; stroke-opacity:1; fill:none" points="951.164,1423.18 951.164,1404.28 "/>
<polyline clip-path="url(#clip330)" style="stroke:#000000; stroke-linecap:round; stroke-linejoin:round; stroke-width:4; stroke-opacity:1; fill:none" points="1621.78,1423.18 1621.78,1404.28 "/>
<polyline clip-path="url(#clip330)" style="stroke:#000000; stroke-linecap:round; stroke-linejoin:round; stroke-width:4; stroke-opacity:1; fill:none" points="2292.4,1423.18 2292.4,1404.28 "/>
<path clip-path="url(#clip330)" d="M250.014 1468.75 L279.689 1468.75 L279.689 1472.69 L250.014 1472.69 L250.014 1468.75 Z" fill="#000000" fill-rule="nonzero" fill-opacity="1" /><path clip-path="url(#clip330)" d="M303.949 1466.95 Q307.305 1467.66 309.18 1469.93 Q311.078 1472.2 311.078 1475.53 Q311.078 1480.65 307.56 1483.45 Q304.041 1486.25 297.56 1486.25 Q295.384 1486.25 293.069 1485.81 Q290.777 1485.39 288.324 1484.54 L288.324 1480.02 Q290.268 1481.16 292.583 1481.74 Q294.898 1482.32 297.421 1482.32 Q301.819 1482.32 304.111 1480.58 Q306.425 1478.84 306.425 1475.53 Q306.425 1472.48 304.273 1470.77 Q302.143 1469.03 298.324 1469.03 L294.296 1469.03 L294.296 1465.19 L298.509 1465.19 Q301.958 1465.19 303.787 1463.82 Q305.615 1462.43 305.615 1459.84 Q305.615 1457.18 303.717 1455.77 Q301.842 1454.33 298.324 1454.33 Q296.402 1454.33 294.203 1454.75 Q292.004 1455.16 289.365 1456.04 L289.365 1451.88 Q292.027 1451.14 294.342 1450.77 Q296.68 1450.39 298.74 1450.39 Q304.064 1450.39 307.166 1452.83 Q310.268 1455.23 310.268 1459.35 Q310.268 1462.22 308.625 1464.21 Q306.981 1466.18 303.949 1466.95 Z" fill="#000000" fill-rule="nonzero" fill-opacity="1" /><path clip-path="url(#clip330)" d="M921.106 1468.75 L950.782 1468.75 L950.782 1472.69 L921.106 1472.69 L921.106 1468.75 Z" fill="#000000" fill-rule="nonzero" fill-opacity="1" /><path clip-path="url(#clip330)" d="M964.902 1481.64 L981.222 1481.64 L981.222 1485.58 L959.277 1485.58 L959.277 1481.64 Q961.939 1478.89 966.523 1474.26 Q971.129 1469.61 972.31 1468.27 Q974.555 1465.74 975.435 1464.01 Q976.338 1462.25 976.338 1460.56 Q976.338 1457.8 974.393 1456.07 Q972.472 1454.33 969.37 1454.33 Q967.171 1454.33 964.717 1455.09 Q962.287 1455.86 959.509 1457.41 L959.509 1452.69 Q962.333 1451.55 964.787 1450.97 Q967.24 1450.39 969.277 1450.39 Q974.648 1450.39 977.842 1453.08 Q981.037 1455.77 981.037 1460.26 Q981.037 1462.39 980.226 1464.31 Q979.439 1466.2 977.333 1468.8 Q976.754 1469.47 973.652 1472.69 Q970.551 1475.88 964.902 1481.64 Z" fill="#000000" fill-rule="nonzero" fill-opacity="1" /><path clip-path="url(#clip330)" d="M1591.54 1468.75 L1621.22 1468.75 L1621.22 1472.69 L1591.54 1472.69 L1591.54 1468.75 Z" fill="#000000" fill-rule="nonzero" fill-opacity="1" /><path clip-path="url(#clip330)" d="M1632.12 1481.64 L1639.76 1481.64 L1639.76 1455.28 L1631.45 1456.95 L1631.45 1452.69 L1639.71 1451.02 L1644.39 1451.02 L1644.39 1481.64 L1652.03 1481.64 L1652.03 1485.58 L1632.12 1485.58 L1632.12 1481.64 Z" fill="#000000" fill-rule="nonzero" fill-opacity="1" /><path clip-path="url(#clip330)" d="M2292.4 1454.1 Q2288.79 1454.1 2286.96 1457.66 Q2285.15 1461.2 2285.15 1468.33 Q2285.15 1475.44 2286.96 1479.01 Q2288.79 1482.55 2292.4 1482.55 Q2296.03 1482.55 2297.84 1479.01 Q2299.67 1475.44 2299.67 1468.33 Q2299.67 1461.2 2297.84 1457.66 Q2296.03 1454.1 2292.4 1454.1 M2292.4 1450.39 Q2298.21 1450.39 2301.27 1455 Q2304.34 1459.58 2304.34 1468.33 Q2304.34 1477.06 2301.27 1481.67 Q2298.21 1486.25 2292.4 1486.25 Q2286.59 1486.25 2283.51 1481.67 Q2280.46 1477.06 2280.46 1468.33 Q2280.46 1459.58 2283.51 1455 Q2286.59 1450.39 2292.4 1450.39 Z" fill="#000000" fill-rule="nonzero" fill-opacity="1" /><path clip-path="url(#clip330)" d="M1110.32 1518.52 L1116.17 1518.52 L1116.17 1568.04 L1110.32 1568.04 L1110.32 1518.52 Z" fill="#000000" fill-rule="nonzero" fill-opacity="1" /><path clip-path="url(#clip330)" d="M1151.89 1549.81 Q1151.89 1543.44 1149.24 1539.94 Q1146.63 1536.44 1141.89 1536.44 Q1137.18 1536.44 1134.54 1539.94 Q1131.93 1543.44 1131.93 1549.81 Q1131.93 1556.14 1134.54 1559.64 Q1137.18 1563.14 1141.89 1563.14 Q1146.63 1563.14 1149.24 1559.64 Q1151.89 1556.14 1151.89 1549.81 M1157.74 1563.62 Q1157.74 1572.72 1153.7 1577.15 Q1149.66 1581.6 1141.32 1581.6 Q1138.23 1581.6 1135.49 1581.13 Q1132.76 1580.68 1130.18 1579.72 L1130.18 1574.03 Q1132.76 1575.43 1135.27 1576.1 Q1137.79 1576.76 1140.4 1576.76 Q1146.16 1576.76 1149.02 1573.74 Q1151.89 1570.75 1151.89 1564.67 L1151.89 1561.77 Q1150.07 1564.92 1147.24 1566.48 Q1144.41 1568.04 1140.46 1568.04 Q1133.9 1568.04 1129.89 1563.05 Q1125.88 1558.05 1125.88 1549.81 Q1125.88 1541.53 1129.89 1536.53 Q1133.9 1531.54 1140.46 1531.54 Q1144.41 1531.54 1147.24 1533.1 Q1150.07 1534.66 1151.89 1537.81 L1151.89 1532.4 L1157.74 1532.4 L1157.74 1563.62 Z" fill="#000000" fill-rule="nonzero" fill-opacity="1" /><path clip-path="url(#clip330)" d="M1183.87 1518.58 Q1179.61 1525.9 1177.54 1533.06 Q1175.47 1540.23 1175.47 1547.58 Q1175.47 1554.93 1177.54 1562.16 Q1179.64 1569.35 1183.87 1576.64 L1178.78 1576.64 Q1174.01 1569.16 1171.62 1561.93 Q1169.26 1554.71 1169.26 1547.58 Q1169.26 1540.48 1171.62 1533.29 Q1173.98 1526.09 1178.78 1518.58 L1183.87 1518.58 Z" fill="#000000" fill-rule="nonzero" fill-opacity="1" /><path clip-path="url(#clip330)" d="M1195.01 1518.52 L1200.9 1518.52 L1200.9 1547.77 L1218.38 1532.4 L1225.86 1532.4 L1206.95 1549.07 L1226.65 1568.04 L1219.01 1568.04 L1200.9 1550.63 L1200.9 1568.04 L1195.01 1568.04 L1195.01 1518.52 Z" fill="#000000" fill-rule="nonzero" fill-opacity="1" /><path clip-path="url(#clip330)" d="M1243.39 1520.52 L1248.8 1520.52 L1232.25 1574.09 L1226.84 1574.09 L1243.39 1520.52 Z" fill="#000000" fill-rule="nonzero" fill-opacity="1" /><path clip-path="url(#clip330)" d="M1255.2 1520.52 L1264.78 1520.52 L1276.91 1552.86 L1289.1 1520.52 L1298.68 1520.52 L1298.68 1568.04 L1292.41 1568.04 L1292.41 1526.32 L1280.16 1558.91 L1273.69 1558.91 L1261.44 1526.32 L1261.44 1568.04 L1255.2 1568.04 L1255.2 1520.52 Z" fill="#000000" fill-rule="nonzero" fill-opacity="1" /><path clip-path="url(#clip330)" d="M1316.85 1562.7 L1316.85 1581.6 L1310.97 1581.6 L1310.97 1532.4 L1316.85 1532.4 L1316.85 1537.81 Q1318.7 1534.62 1321.5 1533.1 Q1324.33 1531.54 1328.25 1531.54 Q1334.74 1531.54 1338.78 1536.69 Q1342.86 1541.85 1342.86 1550.25 Q1342.86 1558.65 1338.78 1563.81 Q1334.74 1568.97 1328.25 1568.97 Q1324.33 1568.97 1321.5 1567.44 Q1318.7 1565.88 1316.85 1562.7 M1336.78 1550.25 Q1336.78 1543.79 1334.1 1540.13 Q1331.46 1536.44 1326.82 1536.44 Q1322.17 1536.44 1319.5 1540.13 Q1316.85 1543.79 1316.85 1550.25 Q1316.85 1556.71 1319.5 1560.4 Q1322.17 1564.07 1326.82 1564.07 Q1331.46 1564.07 1334.1 1560.4 Q1336.78 1556.71 1336.78 1550.25 Z" fill="#000000" fill-rule="nonzero" fill-opacity="1" /><path clip-path="url(#clip330)" d="M1378.22 1533.76 L1378.22 1539.24 Q1375.74 1537.87 1373.22 1537.2 Q1370.74 1536.5 1368.19 1536.5 Q1362.5 1536.5 1359.34 1540.13 Q1356.19 1543.73 1356.19 1550.25 Q1356.19 1556.78 1359.34 1560.4 Q1362.5 1564 1368.19 1564 Q1370.74 1564 1373.22 1563.33 Q1375.74 1562.63 1378.22 1561.26 L1378.22 1566.68 Q1375.77 1567.82 1373.13 1568.39 Q1370.52 1568.97 1367.56 1568.97 Q1359.5 1568.97 1354.76 1563.91 Q1350.02 1558.85 1350.02 1550.25 Q1350.02 1541.53 1354.79 1536.53 Q1359.6 1531.54 1367.94 1531.54 Q1370.64 1531.54 1373.22 1532.11 Q1375.8 1532.65 1378.22 1533.76 Z" fill="#000000" fill-rule="nonzero" fill-opacity="1" /><path clip-path="url(#clip330)" d="M1386.62 1533.83 L1412.31 1533.83 L1412.31 1536.85 L1386.62 1536.85 L1386.62 1533.83 Z" fill="#000000" fill-rule="nonzero" fill-opacity="1" /><path clip-path="url(#clip330)" d="M1421.63 1543.28 L1428.13 1543.28 L1428.13 1523.83 L1421.03 1525.14 L1421.03 1521.45 L1428.35 1520.21 L1432.71 1520.21 L1432.71 1543.28 L1439.23 1543.28 L1439.23 1546.78 L1421.63 1546.78 L1421.63 1543.28 Z" fill="#000000" fill-rule="nonzero" fill-opacity="1" /><path clip-path="url(#clip330)" d="M1448.02 1518.58 L1453.11 1518.58 Q1457.89 1526.09 1460.24 1533.29 Q1462.63 1540.48 1462.63 1547.58 Q1462.63 1554.71 1460.24 1561.93 Q1457.89 1569.16 1453.11 1576.64 L1448.02 1576.64 Q1452.25 1569.35 1454.32 1562.16 Q1456.42 1554.93 1456.42 1547.58 Q1456.42 1540.23 1454.32 1533.06 Q1452.25 1525.9 1448.02 1518.58 Z" fill="#000000" fill-rule="nonzero" fill-opacity="1" /><polyline clip-path="url(#clip330)" style="stroke:#000000; stroke-linecap:round; stroke-linejoin:round; stroke-width:4; stroke-opacity:1; fill:none" points="220.19,1423.18 220.19,47.2441 "/>
<polyline clip-path="url(#clip330)" style="stroke:#000000; stroke-linecap:round; stroke-linejoin:round; stroke-width:4; stroke-opacity:1; fill:none" points="220.19,1353.35 239.088,1353.35 "/>
<polyline clip-path="url(#clip330)" style="stroke:#000000; stroke-linecap:round; stroke-linejoin:round; stroke-width:4; stroke-opacity:1; fill:none" points="220.19,1129.58 239.088,1129.58 "/>
<polyline clip-path="url(#clip330)" style="stroke:#000000; stroke-linecap:round; stroke-linejoin:round; stroke-width:4; stroke-opacity:1; fill:none" points="220.19,905.81 239.088,905.81 "/>
<polyline clip-path="url(#clip330)" style="stroke:#000000; stroke-linecap:round; stroke-linejoin:round; stroke-width:4; stroke-opacity:1; fill:none" points="220.19,682.04 239.088,682.04 "/>
<polyline clip-path="url(#clip330)" style="stroke:#000000; stroke-linecap:round; stroke-linejoin:round; stroke-width:4; stroke-opacity:1; fill:none" points="220.19,458.27 239.088,458.27 "/>
<polyline clip-path="url(#clip330)" style="stroke:#000000; stroke-linecap:round; stroke-linejoin:round; stroke-width:4; stroke-opacity:1; fill:none" points="220.19,234.5 239.088,234.5 "/>
<path clip-path="url(#clip330)" d="M121.043 1366.7 L137.362 1366.7 L137.362 1370.63 L115.418 1370.63 L115.418 1366.7 Q118.08 1363.94 122.663 1359.31 Q127.269 1354.66 128.45 1353.32 Q130.695 1350.79 131.575 1349.06 Q132.478 1347.3 132.478 1345.61 Q132.478 1342.85 130.533 1341.12 Q128.612 1339.38 125.51 1339.38 Q123.311 1339.38 120.857 1340.14 Q118.427 1340.91 115.649 1342.46 L115.649 1337.74 Q118.473 1336.6 120.927 1336.02 Q123.38 1335.45 125.418 1335.45 Q130.788 1335.45 133.982 1338.13 Q137.177 1340.82 137.177 1345.31 Q137.177 1347.44 136.367 1349.36 Q135.579 1351.26 133.473 1353.85 Q132.894 1354.52 129.792 1357.74 Q126.691 1360.93 121.043 1366.7 Z" fill="#000000" fill-rule="nonzero" fill-opacity="1" /><path clip-path="url(#clip330)" d="M147.177 1364.75 L152.061 1364.75 L152.061 1370.63 L147.177 1370.63 L147.177 1364.75 Z" fill="#000000" fill-rule="nonzero" fill-opacity="1" /><path clip-path="url(#clip330)" d="M172.246 1339.15 Q168.635 1339.15 166.806 1342.71 Q165.001 1346.26 165.001 1353.38 Q165.001 1360.49 166.806 1364.06 Q168.635 1367.6 172.246 1367.6 Q175.88 1367.6 177.686 1364.06 Q179.514 1360.49 179.514 1353.38 Q179.514 1346.26 177.686 1342.71 Q175.88 1339.15 172.246 1339.15 M172.246 1335.45 Q178.056 1335.45 181.112 1340.05 Q184.19 1344.63 184.19 1353.38 Q184.19 1362.11 181.112 1366.72 Q178.056 1371.3 172.246 1371.3 Q166.436 1371.3 163.357 1366.72 Q160.302 1362.11 160.302 1353.38 Q160.302 1344.63 163.357 1340.05 Q166.436 1335.45 172.246 1335.45 Z" fill="#000000" fill-rule="nonzero" fill-opacity="1" /><path clip-path="url(#clip330)" d="M122.038 1142.92 L138.357 1142.92 L138.357 1146.86 L116.413 1146.86 L116.413 1142.92 Q119.075 1140.17 123.658 1135.54 Q128.265 1130.89 129.445 1129.55 Q131.691 1127.02 132.57 1125.29 Q133.473 1123.53 133.473 1121.84 Q133.473 1119.08 131.529 1117.35 Q129.607 1115.61 126.505 1115.61 Q124.306 1115.61 121.853 1116.37 Q119.422 1117.14 116.644 1118.69 L116.644 1113.97 Q119.468 1112.83 121.922 1112.25 Q124.376 1111.68 126.413 1111.68 Q131.783 1111.68 134.978 1114.36 Q138.172 1117.05 138.172 1121.54 Q138.172 1123.67 137.362 1125.59 Q136.575 1127.49 134.468 1130.08 Q133.89 1130.75 130.788 1133.97 Q127.686 1137.16 122.038 1142.92 Z" fill="#000000" fill-rule="nonzero" fill-opacity="1" /><path clip-path="url(#clip330)" d="M148.172 1140.98 L153.056 1140.98 L153.056 1146.86 L148.172 1146.86 L148.172 1140.98 Z" fill="#000000" fill-rule="nonzero" fill-opacity="1" /><path clip-path="url(#clip330)" d="M163.288 1112.3 L181.644 1112.3 L181.644 1116.24 L167.57 1116.24 L167.57 1124.71 Q168.589 1124.36 169.607 1124.2 Q170.626 1124.01 171.644 1124.01 Q177.431 1124.01 180.811 1127.18 Q184.19 1130.36 184.19 1135.77 Q184.19 1141.35 180.718 1144.45 Q177.246 1147.53 170.927 1147.53 Q168.751 1147.53 166.482 1147.16 Q164.237 1146.79 161.829 1146.05 L161.829 1141.35 Q163.913 1142.49 166.135 1143.04 Q168.357 1143.6 170.834 1143.6 Q174.839 1143.6 177.176 1141.49 Q179.514 1139.38 179.514 1135.77 Q179.514 1132.16 177.176 1130.05 Q174.839 1127.95 170.834 1127.95 Q168.959 1127.95 167.084 1128.36 Q165.232 1128.78 163.288 1129.66 L163.288 1112.3 Z" fill="#000000" fill-rule="nonzero" fill-opacity="1" /><path clip-path="url(#clip330)" d="M131.181 904.456 Q134.538 905.173 136.413 907.442 Q138.311 909.71 138.311 913.044 Q138.311 918.159 134.792 920.96 Q131.274 923.761 124.793 923.761 Q122.617 923.761 120.302 923.321 Q118.01 922.905 115.556 922.048 L115.556 917.534 Q117.501 918.669 119.816 919.247 Q122.13 919.826 124.654 919.826 Q129.052 919.826 131.343 918.09 Q133.658 916.354 133.658 913.044 Q133.658 909.988 131.505 908.275 Q129.376 906.539 125.556 906.539 L121.529 906.539 L121.529 902.697 L125.742 902.697 Q129.191 902.697 131.019 901.331 Q132.848 899.942 132.848 897.349 Q132.848 894.687 130.95 893.275 Q129.075 891.84 125.556 891.84 Q123.635 891.84 121.436 892.257 Q119.237 892.673 116.598 893.553 L116.598 889.386 Q119.26 888.646 121.575 888.275 Q123.913 887.905 125.973 887.905 Q131.297 887.905 134.399 890.336 Q137.501 892.743 137.501 896.863 Q137.501 899.734 135.857 901.724 Q134.214 903.692 131.181 904.456 Z" fill="#000000" fill-rule="nonzero" fill-opacity="1" /><path clip-path="url(#clip330)" d="M147.177 917.21 L152.061 917.21 L152.061 923.09 L147.177 923.09 L147.177 917.21 Z" fill="#000000" fill-rule="nonzero" fill-opacity="1" /><path clip-path="url(#clip330)" d="M172.246 891.609 Q168.635 891.609 166.806 895.173 Q165.001 898.715 165.001 905.845 Q165.001 912.951 166.806 916.516 Q168.635 920.058 172.246 920.058 Q175.88 920.058 177.686 916.516 Q179.514 912.951 179.514 905.845 Q179.514 898.715 177.686 895.173 Q175.88 891.609 172.246 891.609 M172.246 887.905 Q178.056 887.905 181.112 892.511 Q184.19 897.095 184.19 905.845 Q184.19 914.572 181.112 919.178 Q178.056 923.761 172.246 923.761 Q166.436 923.761 163.357 919.178 Q160.302 914.572 160.302 905.845 Q160.302 897.095 163.357 892.511 Q166.436 887.905 172.246 887.905 Z" fill="#000000" fill-rule="nonzero" fill-opacity="1" /><path clip-path="url(#clip330)" d="M132.177 680.686 Q135.533 681.403 137.408 683.672 Q139.306 685.94 139.306 689.274 Q139.306 694.389 135.788 697.19 Q132.269 699.991 125.788 699.991 Q123.612 699.991 121.297 699.551 Q119.006 699.135 116.552 698.278 L116.552 693.764 Q118.496 694.899 120.811 695.477 Q123.126 696.056 125.649 696.056 Q130.047 696.056 132.339 694.32 Q134.654 692.584 134.654 689.274 Q134.654 686.218 132.501 684.505 Q130.371 682.769 126.552 682.769 L122.524 682.769 L122.524 678.926 L126.737 678.926 Q130.186 678.926 132.015 677.561 Q133.843 676.172 133.843 673.579 Q133.843 670.917 131.945 669.505 Q130.07 668.07 126.552 668.07 Q124.63 668.07 122.431 668.487 Q120.232 668.903 117.593 669.783 L117.593 665.616 Q120.255 664.876 122.57 664.505 Q124.908 664.135 126.968 664.135 Q132.292 664.135 135.394 666.565 Q138.496 668.973 138.496 673.093 Q138.496 675.963 136.853 677.954 Q135.209 679.922 132.177 680.686 Z" fill="#000000" fill-rule="nonzero" fill-opacity="1" /><path clip-path="url(#clip330)" d="M148.172 693.44 L153.056 693.44 L153.056 699.32 L148.172 699.32 L148.172 693.44 Z" fill="#000000" fill-rule="nonzero" fill-opacity="1" /><path clip-path="url(#clip330)" d="M163.288 664.76 L181.644 664.76 L181.644 668.695 L167.57 668.695 L167.57 677.167 Q168.589 676.82 169.607 676.658 Q170.626 676.473 171.644 676.473 Q177.431 676.473 180.811 679.644 Q184.19 682.815 184.19 688.232 Q184.19 693.811 180.718 696.912 Q177.246 699.991 170.927 699.991 Q168.751 699.991 166.482 699.621 Q164.237 699.25 161.829 698.51 L161.829 693.811 Q163.913 694.945 166.135 695.5 Q168.357 696.056 170.834 696.056 Q174.839 696.056 177.176 693.95 Q179.514 691.843 179.514 688.232 Q179.514 684.621 177.176 682.514 Q174.839 680.408 170.834 680.408 Q168.959 680.408 167.084 680.825 Q165.232 681.241 163.288 682.121 L163.288 664.76 Z" fill="#000000" fill-rule="nonzero" fill-opacity="1" /><path clip-path="url(#clip330)" d="M129.862 445.064 L118.056 463.513 L129.862 463.513 L129.862 445.064 M128.635 440.99 L134.515 440.99 L134.515 463.513 L139.445 463.513 L139.445 467.402 L134.515 467.402 L134.515 475.55 L129.862 475.55 L129.862 467.402 L114.26 467.402 L114.26 462.888 L128.635 440.99 Z" fill="#000000" fill-rule="nonzero" fill-opacity="1" /><path clip-path="url(#clip330)" d="M147.177 469.67 L152.061 469.67 L152.061 475.55 L147.177 475.55 L147.177 469.67 Z" fill="#000000" fill-rule="nonzero" fill-opacity="1" /><path clip-path="url(#clip330)" d="M172.246 444.068 Q168.635 444.068 166.806 447.633 Q165.001 451.175 165.001 458.304 Q165.001 465.411 166.806 468.976 Q168.635 472.517 172.246 472.517 Q175.88 472.517 177.686 468.976 Q179.514 465.411 179.514 458.304 Q179.514 451.175 177.686 447.633 Q175.88 444.068 172.246 444.068 M172.246 440.365 Q178.056 440.365 181.112 444.971 Q184.19 449.555 184.19 458.304 Q184.19 467.031 181.112 471.638 Q178.056 476.221 172.246 476.221 Q166.436 476.221 163.357 471.638 Q160.302 467.031 160.302 458.304 Q160.302 449.555 163.357 444.971 Q166.436 440.365 172.246 440.365 Z" fill="#000000" fill-rule="nonzero" fill-opacity="1" /><path clip-path="url(#clip330)" d="M130.857 221.294 L119.052 239.743 L130.857 239.743 L130.857 221.294 M129.63 217.22 L135.51 217.22 L135.51 239.743 L140.441 239.743 L140.441 243.632 L135.51 243.632 L135.51 251.78 L130.857 251.78 L130.857 243.632 L115.256 243.632 L115.256 239.118 L129.63 217.22 Z" fill="#000000" fill-rule="nonzero" fill-opacity="1" /><path clip-path="url(#clip330)" d="M148.172 245.9 L153.056 245.9 L153.056 251.78 L148.172 251.78 L148.172 245.9 Z" fill="#000000" fill-rule="nonzero" fill-opacity="1" /><path clip-path="url(#clip330)" d="M163.288 217.22 L181.644 217.22 L181.644 221.155 L167.57 221.155 L167.57 229.627 Q168.589 229.28 169.607 229.118 Q170.626 228.933 171.644 228.933 Q177.431 228.933 180.811 232.104 Q184.19 235.275 184.19 240.692 Q184.19 246.27 180.718 249.372 Q177.246 252.451 170.927 252.451 Q168.751 252.451 166.482 252.081 Q164.237 251.71 161.829 250.969 L161.829 246.27 Q163.913 247.405 166.135 247.96 Q168.357 248.516 170.834 248.516 Q174.839 248.516 177.176 246.409 Q179.514 244.303 179.514 240.692 Q179.514 237.081 177.176 234.974 Q174.839 232.868 170.834 232.868 Q168.959 232.868 167.084 233.284 Q165.232 233.701 163.288 234.581 L163.288 217.22 Z" fill="#000000" fill-rule="nonzero" fill-opacity="1" /><path clip-path="url(#clip330)" d="M14.479 894.943 L14.479 889.087 L64.0042 889.087 L64.0042 894.943 L14.479 894.943 Z" fill="#000000" fill-rule="nonzero" fill-opacity="1" /><path clip-path="url(#clip330)" d="M45.7664 853.375 Q39.4007 853.375 35.8996 856.017 Q32.3984 858.627 32.3984 863.37 Q32.3984 868.08 35.8996 870.722 Q39.4007 873.332 45.7664 873.332 Q52.1003 873.332 55.6014 870.722 Q59.1026 868.08 59.1026 863.37 Q59.1026 858.627 55.6014 856.017 Q52.1003 853.375 45.7664 853.375 M59.58 847.519 Q68.683 847.519 73.1071 851.561 Q77.5631 855.603 77.5631 863.942 Q77.5631 867.03 77.0857 869.767 Q76.6401 872.504 75.6852 875.082 L69.9879 875.082 Q71.3884 872.504 72.0568 869.99 Q72.7252 867.475 72.7252 864.865 Q72.7252 859.105 69.7015 856.24 Q66.7096 853.375 60.6303 853.375 L57.7339 853.375 Q60.885 855.19 62.4446 858.022 Q64.0042 860.855 64.0042 864.802 Q64.0042 871.359 59.0071 875.369 Q54.01 879.379 45.7664 879.379 Q37.491 879.379 32.4939 875.369 Q27.4968 871.359 27.4968 864.802 Q27.4968 860.855 29.0564 858.022 Q30.616 855.19 33.7671 853.375 L28.3562 853.375 L28.3562 847.519 L59.58 847.519 Z" fill="#000000" fill-rule="nonzero" fill-opacity="1" /><path clip-path="url(#clip330)" d="M14.5426 821.388 Q21.8632 825.653 29.0246 827.722 Q36.186 829.79 43.5384 829.79 Q50.8908 829.79 58.1159 827.722 Q65.3091 825.621 72.5979 821.388 L72.5979 826.48 Q65.1182 831.255 57.8931 833.642 Q50.668 835.997 43.5384 835.997 Q36.4406 835.997 29.2474 833.642 Q22.0542 831.286 14.5426 826.48 L14.5426 821.388 Z" fill="#000000" fill-rule="nonzero" fill-opacity="1" /><path clip-path="url(#clip330)" d="M21.7677 803.341 L39.6235 803.341 L39.6235 795.256 Q39.6235 790.769 37.3 788.318 Q34.9765 785.867 30.6797 785.867 Q26.4147 785.867 24.0912 788.318 Q21.7677 790.769 21.7677 795.256 L21.7677 803.341 M16.4842 809.77 L16.4842 795.256 Q16.4842 787.268 20.1126 783.193 Q23.7092 779.088 30.6797 779.088 Q37.7138 779.088 41.3104 783.193 Q44.907 787.268 44.907 795.256 L44.907 803.341 L64.0042 803.341 L64.0042 809.77 L16.4842 809.77 Z" fill="#000000" fill-rule="nonzero" fill-opacity="1" /><path clip-path="url(#clip330)" d="M16.4842 760.309 L16.4842 754.898 L70.0516 771.449 L70.0516 776.86 L16.4842 760.309 Z" fill="#000000" fill-rule="nonzero" fill-opacity="1" /><path clip-path="url(#clip330)" d="M16.4842 748.5 L16.4842 738.92 L48.8219 726.793 L16.4842 714.603 L16.4842 705.023 L64.0042 705.023 L64.0042 711.293 L22.277 711.293 L54.8694 723.547 L54.8694 730.008 L22.277 742.262 L64.0042 742.262 L64.0042 748.5 L16.4842 748.5 Z" fill="#000000" fill-rule="nonzero" fill-opacity="1" /><path clip-path="url(#clip330)" d="M58.657 686.849 L77.5631 686.849 L77.5631 692.737 L28.3562 692.737 L28.3562 686.849 L33.7671 686.849 Q30.5842 685.002 29.0564 682.202 Q27.4968 679.369 27.4968 675.454 Q27.4968 668.961 32.6531 664.919 Q37.8093 660.845 46.212 660.845 Q54.6147 660.845 59.771 664.919 Q64.9272 668.961 64.9272 675.454 Q64.9272 679.369 63.3994 682.202 Q61.8398 685.002 58.657 686.849 M46.212 666.924 Q39.7508 666.924 36.0905 669.597 Q32.3984 672.239 32.3984 676.886 Q32.3984 681.533 36.0905 684.207 Q39.7508 686.849 46.212 686.849 Q52.6732 686.849 56.3653 684.207 Q60.0256 681.533 60.0256 676.886 Q60.0256 672.239 56.3653 669.597 Q52.6732 666.924 46.212 666.924 Z" fill="#000000" fill-rule="nonzero" fill-opacity="1" /><path clip-path="url(#clip330)" d="M29.7248 625.483 L35.1993 625.483 Q33.8307 627.966 33.1623 630.48 Q32.4621 632.963 32.4621 635.509 Q32.4621 641.206 36.0905 644.357 Q39.6872 647.508 46.212 647.508 Q52.7369 647.508 56.3653 644.357 Q59.9619 641.206 59.9619 635.509 Q59.9619 632.963 59.2935 630.48 Q58.5933 627.966 57.2247 625.483 L62.6355 625.483 Q63.7814 627.934 64.3543 630.576 Q64.9272 633.186 64.9272 636.146 Q64.9272 644.198 59.8664 648.941 Q54.8057 653.683 46.212 653.683 Q37.491 653.683 32.4939 648.909 Q27.4968 644.103 27.4968 635.764 Q27.4968 633.058 28.0697 630.48 Q28.6108 627.902 29.7248 625.483 Z" fill="#000000" fill-rule="nonzero" fill-opacity="1" /><path clip-path="url(#clip330)" d="M28.3562 604.763 Q28.9291 601.835 30.6797 600.243 Q32.3984 598.62 35.0084 598.62 Q38.9551 598.62 41.0876 601.644 Q43.2201 604.667 43.2201 610.301 Q43.2201 612.115 42.9018 614.12 Q42.5517 616.094 41.9152 618.322 L38.0639 618.322 Q38.9233 616.667 39.337 614.789 Q39.7508 612.879 39.7508 610.746 Q39.7508 607.277 38.5095 605.367 Q37.2364 603.458 35.0084 603.458 Q32.6531 603.458 31.4436 605.24 Q30.2341 606.991 30.2341 610.428 L30.2341 613.165 L26.7966 613.165 L26.7966 610.174 Q26.7966 607.182 25.8099 605.654 Q24.7914 604.094 22.8817 604.094 Q21.0356 604.094 20.0808 605.686 Q19.0941 607.277 19.0941 610.301 Q19.0941 611.574 19.3806 613.197 Q19.667 614.821 20.3991 617.399 L16.7388 617.399 Q16.1977 615.075 15.9112 613.038 Q15.6248 611.001 15.6248 609.251 Q15.6248 604.667 17.5027 601.994 Q19.3806 599.288 22.5316 599.288 Q24.7277 599.288 26.2555 600.721 Q27.7833 602.153 28.3562 604.763 Z" fill="#000000" fill-rule="nonzero" fill-opacity="1" /><path clip-path="url(#clip330)" d="M14.5426 590.09 L14.5426 584.997 Q22.0542 580.223 29.2474 577.868 Q36.4406 575.48 43.5384 575.48 Q50.668 575.48 57.8931 577.868 Q65.1182 580.223 72.5979 584.997 L72.5979 590.09 Q65.3091 585.857 58.1159 583.788 Q50.8908 581.687 43.5384 581.687 Q36.186 581.687 29.0246 583.788 Q21.8632 585.857 14.5426 590.09 Z" fill="#000000" fill-rule="nonzero" fill-opacity="1" /><polyline clip-path="url(#clip332)" style="stroke:#009af9; stroke-linecap:round; stroke-linejoin:round; stroke-width:4; stroke-opacity:1; fill:none" points="280.546,377.678 300.868,365.583 321.189,353.579 341.511,341.656 361.833,329.824 382.155,318.104 402.477,306.507 422.798,295.026 443.12,283.683 463.442,272.481 483.764,261.441 504.085,250.567 524.407,239.873 544.729,229.37 565.051,219.078 585.372,209.002 605.694,199.162 626.016,189.574 646.338,180.254 666.659,171.216 686.981,162.483 707.303,154.074 727.625,146.01 747.946,138.311 768.268,131.005 788.59,124.119 808.912,117.682 829.234,111.723 849.555,106.272 869.877,101.374 890.199,97.0688 910.521,93.409 930.842,90.4295 951.164,88.1869 971.486,86.7513 991.808,86.1857 1012.13,86.5469 1032.45,87.924 1052.77,90.3849 1073.09,93.9971 1093.42,98.8415 1113.74,104.982 1134.06,112.444 1154.38,121.238 1174.7,131.333 1195.03,142.637 1215.35,154.985 1235.67,168.109 1255.99,181.66 1276.31,195.226 1296.63,208.323 1316.96,220.557 1337.28,231.676 1357.6,241.725 1377.92,251.155 1398.24,260.867 1418.56,272.076 1438.89,286.124 1459.21,304.055 1479.53,326.104 1499.85,351.179 1520.17,376.665 1540.5,399.181 1560.82,416.356 1581.14,429.227 1601.46,442.557 1621.78,461.878 1642.1,489.262 1662.43,520.011 1682.75,545.344 1703.07,562.284 1723.39,579.391 1743.71,605.758 1764.03,637.214 1784.36,661.612 1804.68,681.337 1825,708.329 1845.32,738.259 1865.64,762.054 1885.97,788.354 1906.29,817.6 1926.61,843.4 1946.93,871.959 1967.25,900.007 1987.57,928.236 2007.9,957.142 2028.22,985.955 2048.54,1015.25 2068.86,1044.82 2089.18,1074.5 2109.5,1104.53 2129.83,1134.79 2150.15,1165.26 2170.47,1195.92 2190.79,1226.85 2211.11,1257.93 2231.43,1289.2 2251.76,1320.71 2272.08,1352.39 2292.4,1384.24 "/>
</svg>
