<?xml version="1.0" encoding="utf-8"?>
<svg xmlns="http://www.w3.org/2000/svg" xmlns:xlink="http://www.w3.org/1999/xlink" width="600" height="400" viewBox="0 0 2400 1600">
<defs>
  <clipPath id="clip180">
    <rect x="0" y="0" width="2400" height="1600"/>
  </clipPath>
</defs>
<path clip-path="url(#clip180)" d="M0 1600 L2400 1600 L2400 0 L0 0  Z" fill="#ffffff" fill-rule="evenodd" fill-opacity="1"/>
<defs>
  <clipPath id="clip181">
    <rect x="394" y="47" width="1959" height="1377"/>
  </clipPath>
</defs>
<path clip-path="url(#clip180)" d="M394.884 1423.18 L2352.76 1423.18 L2352.76 47.2441 L394.884 47.2441  Z" fill="#ffffff" fill-rule="evenodd" fill-opacity="1"/>
<polyline clip-path="url(#clip181)" style="stroke:#000000; stroke-linecap:round; stroke-linejoin:round; stroke-width:2; stroke-opacity:0.1; fill:none" points="758.137,1423.18 758.137,47.2441 "/>
<polyline clip-path="url(#clip181)" style="stroke:#000000; stroke-linecap:round; stroke-linejoin:round; stroke-width:2; stroke-opacity:0.1; fill:none" points="1142.94,1423.18 1142.94,47.2441 "/>
<polyline clip-path="url(#clip181)" style="stroke:#000000; stroke-linecap:round; stroke-linejoin:round; stroke-width:2; stroke-opacity:0.1; fill:none" points="1527.74,1423.18 1527.74,47.2441 "/>
<polyline clip-path="url(#clip181)" style="stroke:#000000; stroke-linecap:round; stroke-linejoin:round; stroke-width:2; stroke-opacity:0.1; fill:none" points="1912.54,1423.18 1912.54,47.2441 "/>
<polyline clip-path="url(#clip181)" style="stroke:#000000; stroke-linecap:round; stroke-linejoin:round; stroke-width:2; stroke-opacity:0.1; fill:none" points="2297.34,1423.18 2297.34,47.2441 "/>
<polyline clip-path="url(#clip181)" style="stroke:#000000; stroke-linecap:round; stroke-linejoin:round; stroke-width:2; stroke-opacity:0.1; fill:none" points="394.884,1273.93 2352.76,1273.93 "/>
<polyline clip-path="url(#clip181)" style="stroke:#000000; stroke-linecap:round; stroke-linejoin:round; stroke-width:2; stroke-opacity:0.1; fill:none" points="394.884,1096.93 2352.76,1096.93 "/>
<polyline clip-path="url(#clip181)" style="stroke:#000000; stroke-linecap:round; stroke-linejoin:round; stroke-width:2; stroke-opacity:0.1; fill:none" points="394.884,919.93 2352.76,919.93 "/>
<polyline clip-path="url(#clip181)" style="stroke:#000000; stroke-linecap:round; stroke-linejoin:round; stroke-width:2; stroke-opacity:0.1; fill:none" points="394.884,742.93 2352.76,742.93 "/>
<polyline clip-path="url(#clip181)" style="stroke:#000000; stroke-linecap:round; stroke-linejoin:round; stroke-width:2; stroke-opacity:0.1; fill:none" points="394.884,565.929 2352.76,565.929 "/>
<polyline clip-path="url(#clip181)" style="stroke:#000000; stroke-linecap:round; stroke-linejoin:round; stroke-width:2; stroke-opacity:0.1; fill:none" points="394.884,388.929 2352.76,388.929 "/>
<polyline clip-path="url(#clip181)" style="stroke:#000000; stroke-linecap:round; stroke-linejoin:round; stroke-width:2; stroke-opacity:0.1; fill:none" points="394.884,211.929 2352.76,211.929 "/>
<polyline clip-path="url(#clip180)" style="stroke:#000000; stroke-linecap:round; stroke-linejoin:round; stroke-width:4; stroke-opacity:1; fill:none" points="394.884,1423.18 2352.76,1423.18 "/>
<polyline clip-path="url(#clip180)" style="stroke:#000000; stroke-linecap:round; stroke-linejoin:round; stroke-width:4; stroke-opacity:1; fill:none" points="758.137,1423.18 758.137,1404.28 "/>
<polyline clip-path="url(#clip180)" style="stroke:#000000; stroke-linecap:round; stroke-linejoin:round; stroke-width:4; stroke-opacity:1; fill:none" points="1142.94,1423.18 1142.94,1404.28 "/>
<polyline clip-path="url(#clip180)" style="stroke:#000000; stroke-linecap:round; stroke-linejoin:round; stroke-width:4; stroke-opacity:1; fill:none" points="1527.74,1423.18 1527.74,1404.28 "/>
<polyline clip-path="url(#clip180)" style="stroke:#000000; stroke-linecap:round; stroke-linejoin:round; stroke-width:4; stroke-opacity:1; fill:none" points="1912.54,1423.18 1912.54,1404.28 "/>
<polyline clip-path="url(#clip180)" style="stroke:#000000; stroke-linecap:round; stroke-linejoin:round; stroke-width:4; stroke-opacity:1; fill:none" points="2297.34,1423.18 2297.34,1404.28 "/>
<path clip-path="url(#clip180)" d="M721.829 1481.64 L738.149 1481.64 L738.149 1485.58 L716.204 1485.58 L716.204 1481.64 Q718.866 1478.89 723.45 1474.26 Q728.056 1469.61 729.237 1468.27 Q731.482 1465.74 732.362 1464.01 Q733.265 1462.25 733.265 1460.56 Q733.265 1457.8 731.32 1456.07 Q729.399 1454.33 726.297 1454.33 Q724.098 1454.33 721.644 1455.09 Q719.214 1455.86 716.436 1457.41 L716.436 1452.69 Q719.26 1451.55 721.714 1450.97 Q724.167 1450.39 726.204 1450.39 Q731.575 1450.39 734.769 1453.08 Q737.964 1455.77 737.964 1460.26 Q737.964 1462.39 737.153 1464.31 Q736.366 1466.2 734.26 1468.8 Q733.681 1469.47 730.579 1472.69 Q727.478 1475.88 721.829 1481.64 Z" fill="#000000" fill-rule="nonzero" fill-opacity="1" /><path clip-path="url(#clip180)" d="M757.963 1454.1 Q754.352 1454.1 752.524 1457.66 Q750.718 1461.2 750.718 1468.33 Q750.718 1475.44 752.524 1479.01 Q754.352 1482.55 757.963 1482.55 Q761.598 1482.55 763.403 1479.01 Q765.232 1475.44 765.232 1468.33 Q765.232 1461.2 763.403 1457.66 Q761.598 1454.1 757.963 1454.1 M757.963 1450.39 Q763.774 1450.39 766.829 1455 Q769.908 1459.58 769.908 1468.33 Q769.908 1477.06 766.829 1481.67 Q763.774 1486.25 757.963 1486.25 Q752.153 1486.25 749.075 1481.67 Q746.019 1477.06 746.019 1468.33 Q746.019 1459.58 749.075 1455 Q752.153 1450.39 757.963 1450.39 Z" fill="#000000" fill-rule="nonzero" fill-opacity="1" /><path clip-path="url(#clip180)" d="M788.125 1454.1 Q784.514 1454.1 782.686 1457.66 Q780.88 1461.2 780.88 1468.33 Q780.88 1475.44 782.686 1479.01 Q784.514 1482.55 788.125 1482.55 Q791.76 1482.55 793.565 1479.01 Q795.394 1475.44 795.394 1468.33 Q795.394 1461.2 793.565 1457.66 Q791.76 1454.1 788.125 1454.1 M788.125 1450.39 Q793.935 1450.39 796.991 1455 Q800.07 1459.58 800.07 1468.33 Q800.07 1477.06 796.991 1481.67 Q793.935 1486.25 788.125 1486.25 Q782.315 1486.25 779.236 1481.67 Q776.181 1477.06 776.181 1468.33 Q776.181 1459.58 779.236 1455 Q782.315 1450.39 788.125 1450.39 Z" fill="#000000" fill-rule="nonzero" fill-opacity="1" /><path clip-path="url(#clip180)" d="M1116.03 1455.09 L1104.22 1473.54 L1116.03 1473.54 L1116.03 1455.09 M1114.8 1451.02 L1120.68 1451.02 L1120.68 1473.54 L1125.61 1473.54 L1125.61 1477.43 L1120.68 1477.43 L1120.68 1485.58 L1116.03 1485.58 L1116.03 1477.43 L1100.43 1477.43 L1100.43 1472.92 L1114.8 1451.02 Z" fill="#000000" fill-rule="nonzero" fill-opacity="1" /><path clip-path="url(#clip180)" d="M1143.34 1454.1 Q1139.73 1454.1 1137.9 1457.66 Q1136.1 1461.2 1136.1 1468.33 Q1136.1 1475.44 1137.9 1479.01 Q1139.73 1482.55 1143.34 1482.55 Q1146.98 1482.55 1148.78 1479.01 Q1150.61 1475.44 1150.61 1468.33 Q1150.61 1461.2 1148.78 1457.66 Q1146.98 1454.1 1143.34 1454.1 M1143.34 1450.39 Q1149.15 1450.39 1152.21 1455 Q1155.29 1459.58 1155.29 1468.33 Q1155.29 1477.06 1152.21 1481.67 Q1149.15 1486.25 1143.34 1486.25 Q1137.53 1486.25 1134.46 1481.67 Q1131.4 1477.06 1131.4 1468.33 Q1131.4 1459.58 1134.46 1455 Q1137.53 1450.39 1143.34 1450.39 Z" fill="#000000" fill-rule="nonzero" fill-opacity="1" /><path clip-path="url(#clip180)" d="M1173.51 1454.1 Q1169.89 1454.1 1168.07 1457.66 Q1166.26 1461.2 1166.26 1468.33 Q1166.26 1475.44 1168.07 1479.01 Q1169.89 1482.55 1173.51 1482.55 Q1177.14 1482.55 1178.95 1479.01 Q1180.77 1475.44 1180.77 1468.33 Q1180.77 1461.2 1178.95 1457.66 Q1177.14 1454.1 1173.51 1454.1 M1173.51 1450.39 Q1179.32 1450.39 1182.37 1455 Q1185.45 1459.58 1185.45 1468.33 Q1185.45 1477.06 1182.37 1481.67 Q1179.32 1486.25 1173.51 1486.25 Q1167.7 1486.25 1164.62 1481.67 Q1161.56 1477.06 1161.56 1468.33 Q1161.56 1459.58 1164.62 1455 Q1167.7 1450.39 1173.51 1450.39 Z" fill="#000000" fill-rule="nonzero" fill-opacity="1" /><path clip-path="url(#clip180)" d="M1498.06 1466.44 Q1494.92 1466.44 1493.07 1468.59 Q1491.24 1470.74 1491.24 1474.49 Q1491.24 1478.22 1493.07 1480.39 Q1494.92 1482.55 1498.06 1482.55 Q1501.21 1482.55 1503.04 1480.39 Q1504.89 1478.22 1504.89 1474.49 Q1504.89 1470.74 1503.04 1468.59 Q1501.21 1466.44 1498.06 1466.44 M1507.35 1451.78 L1507.35 1456.04 Q1505.59 1455.21 1503.78 1454.77 Q1502 1454.33 1500.24 1454.33 Q1495.61 1454.33 1493.16 1457.45 Q1490.73 1460.58 1490.38 1466.9 Q1491.75 1464.89 1493.81 1463.82 Q1495.87 1462.73 1498.34 1462.73 Q1503.55 1462.73 1506.56 1465.9 Q1509.59 1469.05 1509.59 1474.49 Q1509.59 1479.82 1506.44 1483.03 Q1503.3 1486.25 1498.06 1486.25 Q1492.07 1486.25 1488.9 1481.67 Q1485.73 1477.06 1485.73 1468.33 Q1485.73 1460.14 1489.62 1455.28 Q1493.5 1450.39 1500.06 1450.39 Q1501.81 1450.39 1503.6 1450.74 Q1505.4 1451.09 1507.35 1451.78 Z" fill="#000000" fill-rule="nonzero" fill-opacity="1" /><path clip-path="url(#clip180)" d="M1527.65 1454.1 Q1524.04 1454.1 1522.21 1457.66 Q1520.4 1461.2 1520.4 1468.33 Q1520.4 1475.44 1522.21 1479.01 Q1524.04 1482.55 1527.65 1482.55 Q1531.28 1482.55 1533.09 1479.01 Q1534.92 1475.44 1534.92 1468.33 Q1534.92 1461.2 1533.09 1457.66 Q1531.28 1454.1 1527.65 1454.1 M1527.65 1450.39 Q1533.46 1450.39 1536.51 1455 Q1539.59 1459.58 1539.59 1468.33 Q1539.59 1477.06 1536.51 1481.67 Q1533.46 1486.25 1527.65 1486.25 Q1521.84 1486.25 1518.76 1481.67 Q1515.7 1477.06 1515.7 1468.33 Q1515.7 1459.58 1518.76 1455 Q1521.84 1450.39 1527.65 1450.39 Z" fill="#000000" fill-rule="nonzero" fill-opacity="1" /><path clip-path="url(#clip180)" d="M1557.81 1454.1 Q1554.2 1454.1 1552.37 1457.66 Q1550.56 1461.2 1550.56 1468.33 Q1550.56 1475.44 1552.37 1479.01 Q1554.2 1482.55 1557.81 1482.55 Q1561.44 1482.55 1563.25 1479.01 Q1565.08 1475.44 1565.08 1468.33 Q1565.08 1461.2 1563.25 1457.66 Q1561.44 1454.1 1557.81 1454.1 M1557.81 1450.39 Q1563.62 1450.39 1566.68 1455 Q1569.75 1459.58 1569.75 1468.33 Q1569.75 1477.06 1566.68 1481.67 Q1563.62 1486.25 1557.81 1486.25 Q1552 1486.25 1548.92 1481.67 Q1545.87 1477.06 1545.87 1468.33 Q1545.87 1459.58 1548.92 1455 Q1552 1450.39 1557.81 1450.39 Z" fill="#000000" fill-rule="nonzero" fill-opacity="1" /><path clip-path="url(#clip180)" d="M1882.33 1469.17 Q1879 1469.17 1877.08 1470.95 Q1875.18 1472.73 1875.18 1475.86 Q1875.18 1478.98 1877.08 1480.77 Q1879 1482.55 1882.33 1482.55 Q1885.67 1482.55 1887.59 1480.77 Q1889.51 1478.96 1889.51 1475.86 Q1889.51 1472.73 1887.59 1470.95 Q1885.69 1469.17 1882.33 1469.17 M1877.66 1467.18 Q1874.65 1466.44 1872.96 1464.38 Q1871.29 1462.32 1871.29 1459.35 Q1871.29 1455.21 1874.23 1452.8 Q1877.2 1450.39 1882.33 1450.39 Q1887.5 1450.39 1890.44 1452.8 Q1893.38 1455.21 1893.38 1459.35 Q1893.38 1462.32 1891.69 1464.38 Q1890.02 1466.44 1887.03 1467.18 Q1890.41 1467.96 1892.29 1470.26 Q1894.19 1472.55 1894.19 1475.86 Q1894.19 1480.88 1891.11 1483.57 Q1888.05 1486.25 1882.33 1486.25 Q1876.62 1486.25 1873.54 1483.57 Q1870.48 1480.88 1870.48 1475.86 Q1870.48 1472.55 1872.38 1470.26 Q1874.28 1467.96 1877.66 1467.18 M1875.95 1459.79 Q1875.95 1462.48 1877.61 1463.98 Q1879.3 1465.49 1882.33 1465.49 Q1885.34 1465.49 1887.03 1463.98 Q1888.75 1462.48 1888.75 1459.79 Q1888.75 1457.11 1887.03 1455.6 Q1885.34 1454.1 1882.33 1454.1 Q1879.3 1454.1 1877.61 1455.6 Q1875.95 1457.11 1875.95 1459.79 Z" fill="#000000" fill-rule="nonzero" fill-opacity="1" /><path clip-path="url(#clip180)" d="M1912.5 1454.1 Q1908.89 1454.1 1907.06 1457.66 Q1905.25 1461.2 1905.25 1468.33 Q1905.25 1475.44 1907.06 1479.01 Q1908.89 1482.55 1912.5 1482.55 Q1916.13 1482.55 1917.94 1479.01 Q1919.76 1475.44 1919.76 1468.33 Q1919.76 1461.2 1917.94 1457.66 Q1916.13 1454.1 1912.5 1454.1 M1912.5 1450.39 Q1918.31 1450.39 1921.36 1455 Q1924.44 1459.58 1924.44 1468.33 Q1924.44 1477.06 1921.36 1481.67 Q1918.31 1486.25 1912.5 1486.25 Q1906.69 1486.25 1903.61 1481.67 Q1900.55 1477.06 1900.55 1468.33 Q1900.55 1459.58 1903.61 1455 Q1906.69 1450.39 1912.5 1450.39 Z" fill="#000000" fill-rule="nonzero" fill-opacity="1" /><path clip-path="url(#clip180)" d="M1942.66 1454.1 Q1939.05 1454.1 1937.22 1457.66 Q1935.41 1461.2 1935.41 1468.33 Q1935.41 1475.44 1937.22 1479.01 Q1939.05 1482.55 1942.66 1482.55 Q1946.29 1482.55 1948.1 1479.01 Q1949.93 1475.44 1949.93 1468.33 Q1949.93 1461.2 1948.1 1457.66 Q1946.29 1454.1 1942.66 1454.1 M1942.66 1450.39 Q1948.47 1450.39 1951.52 1455 Q1954.6 1459.58 1954.6 1468.33 Q1954.6 1477.06 1951.52 1481.67 Q1948.47 1486.25 1942.66 1486.25 Q1936.85 1486.25 1933.77 1481.67 Q1930.71 1477.06 1930.71 1468.33 Q1930.71 1459.58 1933.77 1455 Q1936.85 1450.39 1942.66 1450.39 Z" fill="#000000" fill-rule="nonzero" fill-opacity="1" /><path clip-path="url(#clip180)" d="M2241.87 1481.64 L2249.51 1481.64 L2249.51 1455.28 L2241.2 1456.95 L2241.2 1452.69 L2249.46 1451.02 L2254.14 1451.02 L2254.14 1481.64 L2261.78 1481.64 L2261.78 1485.58 L2241.87 1485.58 L2241.87 1481.64 Z" fill="#000000" fill-rule="nonzero" fill-opacity="1" /><path clip-path="url(#clip180)" d="M2281.22 1454.1 Q2277.61 1454.1 2275.78 1457.66 Q2273.98 1461.2 2273.98 1468.33 Q2273.98 1475.44 2275.78 1479.01 Q2277.61 1482.55 2281.22 1482.55 Q2284.86 1482.55 2286.66 1479.01 Q2288.49 1475.44 2288.49 1468.33 Q2288.49 1461.2 2286.66 1457.66 Q2284.86 1454.1 2281.22 1454.1 M2281.22 1450.39 Q2287.03 1450.39 2290.09 1455 Q2293.17 1459.58 2293.17 1468.33 Q2293.17 1477.06 2290.09 1481.67 Q2287.03 1486.25 2281.22 1486.25 Q2275.41 1486.25 2272.33 1481.67 Q2269.28 1477.06 2269.28 1468.33 Q2269.28 1459.58 2272.33 1455 Q2275.41 1450.39 2281.22 1450.39 Z" fill="#000000" fill-rule="nonzero" fill-opacity="1" /><path clip-path="url(#clip180)" d="M2311.38 1454.1 Q2307.77 1454.1 2305.94 1457.66 Q2304.14 1461.2 2304.14 1468.33 Q2304.14 1475.44 2305.94 1479.01 Q2307.77 1482.55 2311.38 1482.55 Q2315.02 1482.55 2316.82 1479.01 Q2318.65 1475.44 2318.65 1468.33 Q2318.65 1461.2 2316.82 1457.66 Q2315.02 1454.1 2311.38 1454.1 M2311.38 1450.39 Q2317.19 1450.39 2320.25 1455 Q2323.33 1459.58 2323.33 1468.33 Q2323.33 1477.06 2320.25 1481.67 Q2317.19 1486.25 2311.38 1486.25 Q2305.57 1486.25 2302.49 1481.67 Q2299.44 1477.06 2299.44 1468.33 Q2299.44 1459.58 2302.49 1455 Q2305.57 1450.39 2311.38 1450.39 Z" fill="#000000" fill-rule="nonzero" fill-opacity="1" /><path clip-path="url(#clip180)" d="M2341.55 1454.1 Q2337.93 1454.1 2336.11 1457.66 Q2334.3 1461.2 2334.3 1468.33 Q2334.3 1475.44 2336.11 1479.01 Q2337.93 1482.55 2341.55 1482.55 Q2345.18 1482.55 2346.99 1479.01 Q2348.81 1475.44 2348.81 1468.33 Q2348.81 1461.2 2346.99 1457.66 Q2345.18 1454.1 2341.55 1454.1 M2341.55 1450.39 Q2347.36 1450.39 2350.41 1455 Q2353.49 1459.58 2353.49 1468.33 Q2353.49 1477.06 2350.41 1481.67 Q2347.36 1486.25 2341.55 1486.25 Q2335.74 1486.25 2332.66 1481.67 Q2329.6 1477.06 2329.6 1468.33 Q2329.6 1459.58 2332.66 1455 Q2335.74 1450.39 2341.55 1450.39 Z" fill="#000000" fill-rule="nonzero" fill-opacity="1" /><path clip-path="url(#clip180)" d="M1370.89 1518.52 L1376.75 1518.52 L1376.75 1568.04 L1370.89 1568.04 L1370.89 1518.52 Z" fill="#000000" fill-rule="nonzero" fill-opacity="1" /><polyline clip-path="url(#clip180)" style="stroke:#000000; stroke-linecap:round; stroke-linejoin:round; stroke-width:4; stroke-opacity:1; fill:none" points="394.884,1423.18 394.884,47.2441 "/>
<polyline clip-path="url(#clip180)" style="stroke:#000000; stroke-linecap:round; stroke-linejoin:round; stroke-width:4; stroke-opacity:1; fill:none" points="394.884,1273.93 413.782,1273.93 "/>
<polyline clip-path="url(#clip180)" style="stroke:#000000; stroke-linecap:round; stroke-linejoin:round; stroke-width:4; stroke-opacity:1; fill:none" points="394.884,1096.93 413.782,1096.93 "/>
<polyline clip-path="url(#clip180)" style="stroke:#000000; stroke-linecap:round; stroke-linejoin:round; stroke-width:4; stroke-opacity:1; fill:none" points="394.884,919.93 413.782,919.93 "/>
<polyline clip-path="url(#clip180)" style="stroke:#000000; stroke-linecap:round; stroke-linejoin:round; stroke-width:4; stroke-opacity:1; fill:none" points="394.884,742.93 413.782,742.93 "/>
<polyline clip-path="url(#clip180)" style="stroke:#000000; stroke-linecap:round; stroke-linejoin:round; stroke-width:4; stroke-opacity:1; fill:none" points="394.884,565.929 413.782,565.929 "/>
<polyline clip-path="url(#clip180)" style="stroke:#000000; stroke-linecap:round; stroke-linejoin:round; stroke-width:4; stroke-opacity:1; fill:none" points="394.884,388.929 413.782,388.929 "/>
<polyline clip-path="url(#clip180)" style="stroke:#000000; stroke-linecap:round; stroke-linejoin:round; stroke-width:4; stroke-opacity:1; fill:none" points="394.884,211.929 413.782,211.929 "/>
<path clip-path="url(#clip180)" d="M121.043 1293.72 L137.362 1293.72 L137.362 1297.66 L115.418 1297.66 L115.418 1293.72 Q118.08 1290.97 122.663 1286.34 Q127.269 1281.69 128.45 1280.34 Q130.695 1277.82 131.575 1276.08 Q132.478 1274.32 132.478 1272.63 Q132.478 1269.88 130.533 1268.14 Q128.612 1266.41 125.51 1266.41 Q123.311 1266.41 120.857 1267.17 Q118.427 1267.94 115.649 1269.49 L115.649 1264.76 Q118.473 1263.63 120.927 1263.05 Q123.38 1262.47 125.418 1262.47 Q130.788 1262.47 133.982 1265.16 Q137.177 1267.84 137.177 1272.33 Q137.177 1274.46 136.367 1276.38 Q135.579 1278.28 133.473 1280.88 Q132.894 1281.55 129.792 1284.76 Q126.691 1287.96 121.043 1293.72 Z" fill="#000000" fill-rule="nonzero" fill-opacity="1" /><path clip-path="url(#clip180)" d="M147.177 1291.78 L152.061 1291.78 L152.061 1297.66 L147.177 1297.66 L147.177 1291.78 Z" fill="#000000" fill-rule="nonzero" fill-opacity="1" /><path clip-path="url(#clip180)" d="M172.246 1266.18 Q168.635 1266.18 166.806 1269.74 Q165.001 1273.28 165.001 1280.41 Q165.001 1287.52 166.806 1291.08 Q168.635 1294.63 172.246 1294.63 Q175.88 1294.63 177.686 1291.08 Q179.514 1287.52 179.514 1280.41 Q179.514 1273.28 177.686 1269.74 Q175.88 1266.18 172.246 1266.18 M172.246 1262.47 Q178.056 1262.47 181.112 1267.08 Q184.19 1271.66 184.19 1280.41 Q184.19 1289.14 181.112 1293.75 Q178.056 1298.33 172.246 1298.33 Q166.436 1298.33 163.357 1293.75 Q160.302 1289.14 160.302 1280.41 Q160.302 1271.66 163.357 1267.08 Q166.436 1262.47 172.246 1262.47 Z" fill="#000000" fill-rule="nonzero" fill-opacity="1" /><path clip-path="url(#clip180)" d="M220.579 1272.19 L210 1282.82 L220.579 1293.4 L217.824 1296.2 L207.199 1285.57 L196.575 1296.2 L193.843 1293.4 L204.399 1282.82 L193.843 1272.19 L196.575 1269.39 L207.199 1280.02 L217.824 1269.39 L220.579 1272.19 Z" fill="#000000" fill-rule="nonzero" fill-opacity="1" /><path clip-path="url(#clip180)" d="M232.94 1293.72 L240.579 1293.72 L240.579 1267.36 L232.269 1269.02 L232.269 1264.76 L240.533 1263.1 L245.209 1263.1 L245.209 1293.72 L252.847 1293.72 L252.847 1297.66 L232.94 1297.66 L232.94 1293.72 Z" fill="#000000" fill-rule="nonzero" fill-opacity="1" /><path clip-path="url(#clip180)" d="M272.292 1266.18 Q268.681 1266.18 266.852 1269.74 Q265.046 1273.28 265.046 1280.41 Q265.046 1287.52 266.852 1291.08 Q268.681 1294.63 272.292 1294.63 Q275.926 1294.63 277.732 1291.08 Q279.56 1287.52 279.56 1280.41 Q279.56 1273.28 277.732 1269.74 Q275.926 1266.18 272.292 1266.18 M272.292 1262.47 Q278.102 1262.47 281.157 1267.08 Q284.236 1271.66 284.236 1280.41 Q284.236 1289.14 281.157 1293.75 Q278.102 1298.33 272.292 1298.33 Q266.482 1298.33 263.403 1293.75 Q260.347 1289.14 260.347 1280.41 Q260.347 1271.66 263.403 1267.08 Q266.482 1262.47 272.292 1262.47 Z" fill="#000000" fill-rule="nonzero" fill-opacity="1" /><path clip-path="url(#clip180)" d="M284.236 1256.57 L308.348 1256.57 L308.348 1259.77 L284.236 1259.77 L284.236 1256.57 Z" fill="#000000" fill-rule="nonzero" fill-opacity="1" /><path clip-path="url(#clip180)" d="M317.206 1267.05 L323.413 1267.05 L323.413 1245.63 L316.661 1246.98 L316.661 1243.52 L323.375 1242.17 L327.174 1242.17 L327.174 1267.05 L333.381 1267.05 L333.381 1270.25 L317.206 1270.25 L317.206 1267.05 Z" fill="#000000" fill-rule="nonzero" fill-opacity="1" /><path clip-path="url(#clip180)" d="M349.179 1244.67 Q346.245 1244.67 344.76 1247.57 Q343.292 1250.44 343.292 1256.24 Q343.292 1262.01 344.76 1264.91 Q346.245 1267.78 349.179 1267.78 Q352.132 1267.78 353.599 1264.91 Q355.085 1262.01 355.085 1256.24 Q355.085 1250.44 353.599 1247.57 Q352.132 1244.67 349.179 1244.67 M349.179 1241.66 Q353.9 1241.66 356.383 1245.4 Q358.884 1249.13 358.884 1256.24 Q358.884 1263.33 356.383 1267.07 Q353.9 1270.79 349.179 1270.79 Q344.459 1270.79 341.957 1267.07 Q339.475 1263.33 339.475 1256.24 Q339.475 1249.13 341.957 1245.4 Q344.459 1241.66 349.179 1241.66 Z" fill="#000000" fill-rule="nonzero" fill-opacity="1" /><path clip-path="url(#clip180)" d="M131.181 1102.02 Q134.538 1102.74 136.413 1105.01 Q138.311 1107.28 138.311 1110.61 Q138.311 1115.73 134.792 1118.53 Q131.274 1121.33 124.793 1121.33 Q122.617 1121.33 120.302 1120.89 Q118.01 1120.47 115.556 1119.62 L115.556 1115.1 Q117.501 1116.24 119.816 1116.81 Q122.13 1117.39 124.654 1117.39 Q129.052 1117.39 131.343 1115.66 Q133.658 1113.92 133.658 1110.61 Q133.658 1107.56 131.505 1105.84 Q129.376 1104.11 125.556 1104.11 L121.529 1104.11 L121.529 1100.26 L125.742 1100.26 Q129.191 1100.26 131.019 1098.9 Q132.848 1097.51 132.848 1094.92 Q132.848 1092.25 130.95 1090.84 Q129.075 1089.41 125.556 1089.41 Q123.635 1089.41 121.436 1089.82 Q119.237 1090.24 116.598 1091.12 L116.598 1086.95 Q119.26 1086.21 121.575 1085.84 Q123.913 1085.47 125.973 1085.47 Q131.297 1085.47 134.399 1087.9 Q137.501 1090.31 137.501 1094.43 Q137.501 1097.3 135.857 1099.29 Q134.214 1101.26 131.181 1102.02 Z" fill="#000000" fill-rule="nonzero" fill-opacity="1" /><path clip-path="url(#clip180)" d="M147.177 1114.78 L152.061 1114.78 L152.061 1120.66 L147.177 1120.66 L147.177 1114.78 Z" fill="#000000" fill-rule="nonzero" fill-opacity="1" /><path clip-path="url(#clip180)" d="M172.246 1089.18 Q168.635 1089.18 166.806 1092.74 Q165.001 1096.28 165.001 1103.41 Q165.001 1110.52 166.806 1114.08 Q168.635 1117.63 172.246 1117.63 Q175.88 1117.63 177.686 1114.08 Q179.514 1110.52 179.514 1103.41 Q179.514 1096.28 177.686 1092.74 Q175.88 1089.18 172.246 1089.18 M172.246 1085.47 Q178.056 1085.47 181.112 1090.08 Q184.19 1094.66 184.19 1103.41 Q184.19 1112.14 181.112 1116.75 Q178.056 1121.33 172.246 1121.33 Q166.436 1121.33 163.357 1116.75 Q160.302 1112.14 160.302 1103.41 Q160.302 1094.66 163.357 1090.08 Q166.436 1085.47 172.246 1085.47 Z" fill="#000000" fill-rule="nonzero" fill-opacity="1" /><path clip-path="url(#clip180)" d="M220.579 1095.19 L210 1105.82 L220.579 1116.4 L217.824 1119.2 L207.199 1108.57 L196.575 1119.2 L193.843 1116.4 L204.399 1105.82 L193.843 1095.19 L196.575 1092.39 L207.199 1103.02 L217.824 1092.39 L220.579 1095.19 Z" fill="#000000" fill-rule="nonzero" fill-opacity="1" /><path clip-path="url(#clip180)" d="M232.94 1116.72 L240.579 1116.72 L240.579 1090.36 L232.269 1092.02 L232.269 1087.76 L240.533 1086.1 L245.209 1086.1 L245.209 1116.72 L252.847 1116.72 L252.847 1120.66 L232.94 1120.66 L232.94 1116.72 Z" fill="#000000" fill-rule="nonzero" fill-opacity="1" /><path clip-path="url(#clip180)" d="M272.292 1089.18 Q268.681 1089.18 266.852 1092.74 Q265.046 1096.28 265.046 1103.41 Q265.046 1110.52 266.852 1114.08 Q268.681 1117.63 272.292 1117.63 Q275.926 1117.63 277.732 1114.08 Q279.56 1110.52 279.56 1103.41 Q279.56 1096.28 277.732 1092.74 Q275.926 1089.18 272.292 1089.18 M272.292 1085.47 Q278.102 1085.47 281.157 1090.08 Q284.236 1094.66 284.236 1103.41 Q284.236 1112.14 281.157 1116.75 Q278.102 1121.33 272.292 1121.33 Q266.482 1121.33 263.403 1116.75 Q260.347 1112.14 260.347 1103.41 Q260.347 1094.66 263.403 1090.08 Q266.482 1085.47 272.292 1085.47 Z" fill="#000000" fill-rule="nonzero" fill-opacity="1" /><path clip-path="url(#clip180)" d="M284.236 1079.57 L308.348 1079.57 L308.348 1082.77 L284.236 1082.77 L284.236 1079.57 Z" fill="#000000" fill-rule="nonzero" fill-opacity="1" /><path clip-path="url(#clip180)" d="M317.206 1090.05 L323.413 1090.05 L323.413 1068.63 L316.661 1069.98 L316.661 1066.52 L323.375 1065.17 L327.174 1065.17 L327.174 1090.05 L333.381 1090.05 L333.381 1093.25 L317.206 1093.25 L317.206 1090.05 Z" fill="#000000" fill-rule="nonzero" fill-opacity="1" /><path clip-path="url(#clip180)" d="M349.179 1067.67 Q346.245 1067.67 344.76 1070.56 Q343.292 1073.44 343.292 1079.24 Q343.292 1085.01 344.76 1087.91 Q346.245 1090.78 349.179 1090.78 Q352.132 1090.78 353.599 1087.91 Q355.085 1085.01 355.085 1079.24 Q355.085 1073.44 353.599 1070.56 Q352.132 1067.67 349.179 1067.67 M349.179 1064.66 Q353.9 1064.66 356.383 1068.4 Q358.884 1072.13 358.884 1079.24 Q358.884 1086.33 356.383 1090.07 Q353.9 1093.79 349.179 1093.79 Q344.459 1093.79 341.957 1090.07 Q339.475 1086.33 339.475 1079.24 Q339.475 1072.13 341.957 1068.4 Q344.459 1064.66 349.179 1064.66 Z" fill="#000000" fill-rule="nonzero" fill-opacity="1" /><path clip-path="url(#clip180)" d="M129.862 913.171 L118.056 931.62 L129.862 931.62 L129.862 913.171 M128.635 909.097 L134.515 909.097 L134.515 931.62 L139.445 931.62 L139.445 935.509 L134.515 935.509 L134.515 943.657 L129.862 943.657 L129.862 935.509 L114.26 935.509 L114.26 930.995 L128.635 909.097 Z" fill="#000000" fill-rule="nonzero" fill-opacity="1" /><path clip-path="url(#clip180)" d="M147.177 937.778 L152.061 937.778 L152.061 943.657 L147.177 943.657 L147.177 937.778 Z" fill="#000000" fill-rule="nonzero" fill-opacity="1" /><path clip-path="url(#clip180)" d="M172.246 912.176 Q168.635 912.176 166.806 915.741 Q165.001 919.283 165.001 926.412 Q165.001 933.519 166.806 937.083 Q168.635 940.625 172.246 940.625 Q175.88 940.625 177.686 937.083 Q179.514 933.519 179.514 926.412 Q179.514 919.283 177.686 915.741 Q175.88 912.176 172.246 912.176 M172.246 908.472 Q178.056 908.472 181.112 913.079 Q184.19 917.662 184.19 926.412 Q184.19 935.139 181.112 939.745 Q178.056 944.329 172.246 944.329 Q166.436 944.329 163.357 939.745 Q160.302 935.139 160.302 926.412 Q160.302 917.662 163.357 913.079 Q166.436 908.472 172.246 908.472 Z" fill="#000000" fill-rule="nonzero" fill-opacity="1" /><path clip-path="url(#clip180)" d="M220.579 918.195 L210 928.82 L220.579 939.398 L217.824 942.199 L207.199 931.574 L196.575 942.199 L193.843 939.398 L204.399 928.82 L193.843 918.195 L196.575 915.394 L207.199 926.019 L217.824 915.394 L220.579 918.195 Z" fill="#000000" fill-rule="nonzero" fill-opacity="1" /><path clip-path="url(#clip180)" d="M232.94 939.722 L240.579 939.722 L240.579 913.357 L232.269 915.023 L232.269 910.764 L240.533 909.097 L245.209 909.097 L245.209 939.722 L252.847 939.722 L252.847 943.657 L232.94 943.657 L232.94 939.722 Z" fill="#000000" fill-rule="nonzero" fill-opacity="1" /><path clip-path="url(#clip180)" d="M272.292 912.176 Q268.681 912.176 266.852 915.741 Q265.046 919.283 265.046 926.412 Q265.046 933.519 266.852 937.083 Q268.681 940.625 272.292 940.625 Q275.926 940.625 277.732 937.083 Q279.56 933.519 279.56 926.412 Q279.56 919.283 277.732 915.741 Q275.926 912.176 272.292 912.176 M272.292 908.472 Q278.102 908.472 281.157 913.079 Q284.236 917.662 284.236 926.412 Q284.236 935.139 281.157 939.745 Q278.102 944.329 272.292 944.329 Q266.482 944.329 263.403 939.745 Q260.347 935.139 260.347 926.412 Q260.347 917.662 263.403 913.079 Q266.482 908.472 272.292 908.472 Z" fill="#000000" fill-rule="nonzero" fill-opacity="1" /><path clip-path="url(#clip180)" d="M284.236 902.574 L308.348 902.574 L308.348 905.771 L284.236 905.771 L284.236 902.574 Z" fill="#000000" fill-rule="nonzero" fill-opacity="1" /><path clip-path="url(#clip180)" d="M317.206 913.05 L323.413 913.05 L323.413 891.628 L316.661 892.982 L316.661 889.521 L323.375 888.167 L327.174 888.167 L327.174 913.05 L333.381 913.05 L333.381 916.247 L317.206 916.247 L317.206 913.05 Z" fill="#000000" fill-rule="nonzero" fill-opacity="1" /><path clip-path="url(#clip180)" d="M349.179 890.668 Q346.245 890.668 344.76 893.565 Q343.292 896.442 343.292 902.235 Q343.292 908.009 344.76 910.906 Q346.245 913.783 349.179 913.783 Q352.132 913.783 353.599 910.906 Q355.085 908.009 355.085 902.235 Q355.085 896.442 353.599 893.565 Q352.132 890.668 349.179 890.668 M349.179 887.659 Q353.9 887.659 356.383 891.402 Q358.884 895.126 358.884 902.235 Q358.884 909.326 356.383 913.068 Q353.9 916.792 349.179 916.792 Q344.459 916.792 341.957 913.068 Q339.475 909.326 339.475 902.235 Q339.475 895.126 341.957 891.402 Q344.459 887.659 349.179 887.659 Z" fill="#000000" fill-rule="nonzero" fill-opacity="1" /><path clip-path="url(#clip180)" d="M117.061 732.097 L135.417 732.097 L135.417 736.032 L121.343 736.032 L121.343 744.505 Q122.362 744.157 123.38 743.995 Q124.399 743.81 125.418 743.81 Q131.205 743.81 134.584 746.981 Q137.964 750.153 137.964 755.569 Q137.964 761.148 134.492 764.25 Q131.019 767.329 124.7 767.329 Q122.524 767.329 120.255 766.958 Q118.01 766.588 115.603 765.847 L115.603 761.148 Q117.686 762.282 119.908 762.838 Q122.13 763.393 124.607 763.393 Q128.612 763.393 130.95 761.287 Q133.288 759.18 133.288 755.569 Q133.288 751.958 130.95 749.852 Q128.612 747.745 124.607 747.745 Q122.732 747.745 120.857 748.162 Q119.006 748.579 117.061 749.458 L117.061 732.097 Z" fill="#000000" fill-rule="nonzero" fill-opacity="1" /><path clip-path="url(#clip180)" d="M147.177 760.778 L152.061 760.778 L152.061 766.657 L147.177 766.657 L147.177 760.778 Z" fill="#000000" fill-rule="nonzero" fill-opacity="1" /><path clip-path="url(#clip180)" d="M172.246 735.176 Q168.635 735.176 166.806 738.741 Q165.001 742.282 165.001 749.412 Q165.001 756.518 166.806 760.083 Q168.635 763.625 172.246 763.625 Q175.88 763.625 177.686 760.083 Q179.514 756.518 179.514 749.412 Q179.514 742.282 177.686 738.741 Q175.88 735.176 172.246 735.176 M172.246 731.472 Q178.056 731.472 181.112 736.079 Q184.19 740.662 184.19 749.412 Q184.19 758.139 181.112 762.745 Q178.056 767.329 172.246 767.329 Q166.436 767.329 163.357 762.745 Q160.302 758.139 160.302 749.412 Q160.302 740.662 163.357 736.079 Q166.436 731.472 172.246 731.472 Z" fill="#000000" fill-rule="nonzero" fill-opacity="1" /><path clip-path="url(#clip180)" d="M220.579 741.194 L210 751.819 L220.579 762.398 L217.824 765.199 L207.199 754.574 L196.575 765.199 L193.843 762.398 L204.399 751.819 L193.843 741.194 L196.575 738.393 L207.199 749.018 L217.824 738.393 L220.579 741.194 Z" fill="#000000" fill-rule="nonzero" fill-opacity="1" /><path clip-path="url(#clip180)" d="M232.94 762.722 L240.579 762.722 L240.579 736.356 L232.269 738.023 L232.269 733.764 L240.533 732.097 L245.209 732.097 L245.209 762.722 L252.847 762.722 L252.847 766.657 L232.94 766.657 L232.94 762.722 Z" fill="#000000" fill-rule="nonzero" fill-opacity="1" /><path clip-path="url(#clip180)" d="M272.292 735.176 Q268.681 735.176 266.852 738.741 Q265.046 742.282 265.046 749.412 Q265.046 756.518 266.852 760.083 Q268.681 763.625 272.292 763.625 Q275.926 763.625 277.732 760.083 Q279.56 756.518 279.56 749.412 Q279.56 742.282 277.732 738.741 Q275.926 735.176 272.292 735.176 M272.292 731.472 Q278.102 731.472 281.157 736.079 Q284.236 740.662 284.236 749.412 Q284.236 758.139 281.157 762.745 Q278.102 767.329 272.292 767.329 Q266.482 767.329 263.403 762.745 Q260.347 758.139 260.347 749.412 Q260.347 740.662 263.403 736.079 Q266.482 731.472 272.292 731.472 Z" fill="#000000" fill-rule="nonzero" fill-opacity="1" /><path clip-path="url(#clip180)" d="M284.236 725.574 L308.348 725.574 L308.348 728.771 L284.236 728.771 L284.236 725.574 Z" fill="#000000" fill-rule="nonzero" fill-opacity="1" /><path clip-path="url(#clip180)" d="M317.206 736.049 L323.413 736.049 L323.413 714.627 L316.661 715.982 L316.661 712.521 L323.375 711.167 L327.174 711.167 L327.174 736.049 L333.381 736.049 L333.381 739.247 L317.206 739.247 L317.206 736.049 Z" fill="#000000" fill-rule="nonzero" fill-opacity="1" /><path clip-path="url(#clip180)" d="M349.179 713.668 Q346.245 713.668 344.76 716.565 Q343.292 719.442 343.292 725.235 Q343.292 731.009 344.76 733.905 Q346.245 736.783 349.179 736.783 Q352.132 736.783 353.599 733.905 Q355.085 731.009 355.085 725.235 Q355.085 719.442 353.599 716.565 Q352.132 713.668 349.179 713.668 M349.179 710.659 Q353.9 710.659 356.383 714.402 Q358.884 718.126 358.884 725.235 Q358.884 732.326 356.383 736.068 Q353.9 739.792 349.179 739.792 Q344.459 739.792 341.957 736.068 Q339.475 732.326 339.475 725.235 Q339.475 718.126 341.957 714.402 Q344.459 710.659 349.179 710.659 Z" fill="#000000" fill-rule="nonzero" fill-opacity="1" /><path clip-path="url(#clip180)" d="M127.593 570.514 Q124.445 570.514 122.593 572.666 Q120.765 574.819 120.765 578.569 Q120.765 582.296 122.593 584.472 Q124.445 586.625 127.593 586.625 Q130.742 586.625 132.57 584.472 Q134.422 582.296 134.422 578.569 Q134.422 574.819 132.57 572.666 Q130.742 570.514 127.593 570.514 M136.876 555.861 L136.876 560.12 Q135.117 559.287 133.311 558.847 Q131.529 558.407 129.769 558.407 Q125.14 558.407 122.686 561.532 Q120.255 564.657 119.908 570.977 Q121.274 568.963 123.334 567.898 Q125.394 566.81 127.871 566.81 Q133.08 566.81 136.089 569.981 Q139.121 573.129 139.121 578.569 Q139.121 583.893 135.973 587.111 Q132.825 590.328 127.593 590.328 Q121.598 590.328 118.427 585.745 Q115.256 581.139 115.256 572.412 Q115.256 564.217 119.144 559.356 Q123.033 554.472 129.584 554.472 Q131.343 554.472 133.126 554.819 Q134.931 555.166 136.876 555.861 Z" fill="#000000" fill-rule="nonzero" fill-opacity="1" /><path clip-path="url(#clip180)" d="M147.177 583.777 L152.061 583.777 L152.061 589.657 L147.177 589.657 L147.177 583.777 Z" fill="#000000" fill-rule="nonzero" fill-opacity="1" /><path clip-path="url(#clip180)" d="M172.246 558.176 Q168.635 558.176 166.806 561.741 Q165.001 565.282 165.001 572.412 Q165.001 579.518 166.806 583.083 Q168.635 586.625 172.246 586.625 Q175.88 586.625 177.686 583.083 Q179.514 579.518 179.514 572.412 Q179.514 565.282 177.686 561.741 Q175.88 558.176 172.246 558.176 M172.246 554.472 Q178.056 554.472 181.112 559.078 Q184.19 563.662 184.19 572.412 Q184.19 581.139 181.112 585.745 Q178.056 590.328 172.246 590.328 Q166.436 590.328 163.357 585.745 Q160.302 581.139 160.302 572.412 Q160.302 563.662 163.357 559.078 Q166.436 554.472 172.246 554.472 Z" fill="#000000" fill-rule="nonzero" fill-opacity="1" /><path clip-path="url(#clip180)" d="M220.579 564.194 L210 574.819 L220.579 585.398 L217.824 588.199 L207.199 577.574 L196.575 588.199 L193.843 585.398 L204.399 574.819 L193.843 564.194 L196.575 561.393 L207.199 572.018 L217.824 561.393 L220.579 564.194 Z" fill="#000000" fill-rule="nonzero" fill-opacity="1" /><path clip-path="url(#clip180)" d="M232.94 585.722 L240.579 585.722 L240.579 559.356 L232.269 561.023 L232.269 556.764 L240.533 555.097 L245.209 555.097 L245.209 585.722 L252.847 585.722 L252.847 589.657 L232.94 589.657 L232.94 585.722 Z" fill="#000000" fill-rule="nonzero" fill-opacity="1" /><path clip-path="url(#clip180)" d="M272.292 558.176 Q268.681 558.176 266.852 561.741 Q265.046 565.282 265.046 572.412 Q265.046 579.518 266.852 583.083 Q268.681 586.625 272.292 586.625 Q275.926 586.625 277.732 583.083 Q279.56 579.518 279.56 572.412 Q279.56 565.282 277.732 561.741 Q275.926 558.176 272.292 558.176 M272.292 554.472 Q278.102 554.472 281.157 559.078 Q284.236 563.662 284.236 572.412 Q284.236 581.139 281.157 585.745 Q278.102 590.328 272.292 590.328 Q266.482 590.328 263.403 585.745 Q260.347 581.139 260.347 572.412 Q260.347 563.662 263.403 559.078 Q266.482 554.472 272.292 554.472 Z" fill="#000000" fill-rule="nonzero" fill-opacity="1" /><path clip-path="url(#clip180)" d="M284.236 548.573 L308.348 548.573 L308.348 551.771 L284.236 551.771 L284.236 548.573 Z" fill="#000000" fill-rule="nonzero" fill-opacity="1" /><path clip-path="url(#clip180)" d="M317.206 559.049 L323.413 559.049 L323.413 537.627 L316.661 538.981 L316.661 535.521 L323.375 534.167 L327.174 534.167 L327.174 559.049 L333.381 559.049 L333.381 562.247 L317.206 562.247 L317.206 559.049 Z" fill="#000000" fill-rule="nonzero" fill-opacity="1" /><path clip-path="url(#clip180)" d="M349.179 536.668 Q346.245 536.668 344.76 539.564 Q343.292 542.442 343.292 548.235 Q343.292 554.009 344.76 556.905 Q346.245 559.783 349.179 559.783 Q352.132 559.783 353.599 556.905 Q355.085 554.009 355.085 548.235 Q355.085 542.442 353.599 539.564 Q352.132 536.668 349.179 536.668 M349.179 533.659 Q353.9 533.659 356.383 537.402 Q358.884 541.126 358.884 548.235 Q358.884 555.325 356.383 559.068 Q353.9 562.792 349.179 562.792 Q344.459 562.792 341.957 559.068 Q339.475 555.325 339.475 548.235 Q339.475 541.126 341.957 537.402 Q344.459 533.659 349.179 533.659 Z" fill="#000000" fill-rule="nonzero" fill-opacity="1" /><path clip-path="url(#clip180)" d="M115.834 378.097 L138.056 378.097 L138.056 380.088 L125.51 412.657 L120.626 412.657 L132.431 382.032 L115.834 382.032 L115.834 378.097 Z" fill="#000000" fill-rule="nonzero" fill-opacity="1" /><path clip-path="url(#clip180)" d="M147.177 406.777 L152.061 406.777 L152.061 412.657 L147.177 412.657 L147.177 406.777 Z" fill="#000000" fill-rule="nonzero" fill-opacity="1" /><path clip-path="url(#clip180)" d="M172.246 381.176 Q168.635 381.176 166.806 384.74 Q165.001 388.282 165.001 395.412 Q165.001 402.518 166.806 406.083 Q168.635 409.624 172.246 409.624 Q175.88 409.624 177.686 406.083 Q179.514 402.518 179.514 395.412 Q179.514 388.282 177.686 384.74 Q175.88 381.176 172.246 381.176 M172.246 377.472 Q178.056 377.472 181.112 382.078 Q184.19 386.662 184.19 395.412 Q184.19 404.138 181.112 408.745 Q178.056 413.328 172.246 413.328 Q166.436 413.328 163.357 408.745 Q160.302 404.138 160.302 395.412 Q160.302 386.662 163.357 382.078 Q166.436 377.472 172.246 377.472 Z" fill="#000000" fill-rule="nonzero" fill-opacity="1" /><path clip-path="url(#clip180)" d="M220.579 387.194 L210 397.819 L220.579 408.398 L217.824 411.199 L207.199 400.574 L196.575 411.199 L193.843 408.398 L204.399 397.819 L193.843 387.194 L196.575 384.393 L207.199 395.018 L217.824 384.393 L220.579 387.194 Z" fill="#000000" fill-rule="nonzero" fill-opacity="1" /><path clip-path="url(#clip180)" d="M232.94 408.722 L240.579 408.722 L240.579 382.356 L232.269 384.023 L232.269 379.764 L240.533 378.097 L245.209 378.097 L245.209 408.722 L252.847 408.722 L252.847 412.657 L232.94 412.657 L232.94 408.722 Z" fill="#000000" fill-rule="nonzero" fill-opacity="1" /><path clip-path="url(#clip180)" d="M272.292 381.176 Q268.681 381.176 266.852 384.74 Q265.046 388.282 265.046 395.412 Q265.046 402.518 266.852 406.083 Q268.681 409.624 272.292 409.624 Q275.926 409.624 277.732 406.083 Q279.56 402.518 279.56 395.412 Q279.56 388.282 277.732 384.74 Q275.926 381.176 272.292 381.176 M272.292 377.472 Q278.102 377.472 281.157 382.078 Q284.236 386.662 284.236 395.412 Q284.236 404.138 281.157 408.745 Q278.102 413.328 272.292 413.328 Q266.482 413.328 263.403 408.745 Q260.347 404.138 260.347 395.412 Q260.347 386.662 263.403 382.078 Q266.482 377.472 272.292 377.472 Z" fill="#000000" fill-rule="nonzero" fill-opacity="1" /><path clip-path="url(#clip180)" d="M284.236 371.573 L308.348 371.573 L308.348 374.771 L284.236 374.771 L284.236 371.573 Z" fill="#000000" fill-rule="nonzero" fill-opacity="1" /><path clip-path="url(#clip180)" d="M317.206 382.049 L323.413 382.049 L323.413 360.627 L316.661 361.981 L316.661 358.521 L323.375 357.166 L327.174 357.166 L327.174 382.049 L333.381 382.049 L333.381 385.246 L317.206 385.246 L317.206 382.049 Z" fill="#000000" fill-rule="nonzero" fill-opacity="1" /><path clip-path="url(#clip180)" d="M349.179 359.668 Q346.245 359.668 344.76 362.564 Q343.292 365.442 343.292 371.235 Q343.292 377.009 344.76 379.905 Q346.245 382.783 349.179 382.783 Q352.132 382.783 353.599 379.905 Q355.085 377.009 355.085 371.235 Q355.085 365.442 353.599 362.564 Q352.132 359.668 349.179 359.668 M349.179 356.659 Q353.9 356.659 356.383 360.401 Q358.884 364.125 358.884 371.235 Q358.884 378.325 356.383 382.068 Q353.9 385.792 349.179 385.792 Q344.459 385.792 341.957 382.068 Q339.475 378.325 339.475 371.235 Q339.475 364.125 341.957 360.401 Q344.459 356.659 349.179 356.659 Z" fill="#000000" fill-rule="nonzero" fill-opacity="1" /><path clip-path="url(#clip180)" d="M127.015 219.245 Q123.681 219.245 121.76 221.027 Q119.862 222.81 119.862 225.935 Q119.862 229.059 121.76 230.842 Q123.681 232.624 127.015 232.624 Q130.348 232.624 132.269 230.842 Q134.191 229.036 134.191 225.935 Q134.191 222.81 132.269 221.027 Q130.371 219.245 127.015 219.245 M122.339 217.254 Q119.33 216.513 117.64 214.453 Q115.973 212.393 115.973 209.43 Q115.973 205.286 118.913 202.879 Q121.876 200.472 127.015 200.472 Q132.177 200.472 135.117 202.879 Q138.056 205.286 138.056 209.43 Q138.056 212.393 136.367 214.453 Q134.7 216.513 131.714 217.254 Q135.093 218.041 136.968 220.333 Q138.867 222.624 138.867 225.935 Q138.867 230.958 135.788 233.643 Q132.732 236.328 127.015 236.328 Q121.297 236.328 118.218 233.643 Q115.163 230.958 115.163 225.935 Q115.163 222.624 117.061 220.333 Q118.959 218.041 122.339 217.254 M120.626 209.87 Q120.626 212.555 122.293 214.06 Q123.982 215.564 127.015 215.564 Q130.024 215.564 131.714 214.06 Q133.427 212.555 133.427 209.87 Q133.427 207.185 131.714 205.68 Q130.024 204.175 127.015 204.175 Q123.982 204.175 122.293 205.68 Q120.626 207.185 120.626 209.87 Z" fill="#000000" fill-rule="nonzero" fill-opacity="1" /><path clip-path="url(#clip180)" d="M147.177 229.777 L152.061 229.777 L152.061 235.657 L147.177 235.657 L147.177 229.777 Z" fill="#000000" fill-rule="nonzero" fill-opacity="1" /><path clip-path="url(#clip180)" d="M172.246 204.175 Q168.635 204.175 166.806 207.74 Q165.001 211.282 165.001 218.411 Q165.001 225.518 166.806 229.083 Q168.635 232.624 172.246 232.624 Q175.88 232.624 177.686 229.083 Q179.514 225.518 179.514 218.411 Q179.514 211.282 177.686 207.74 Q175.88 204.175 172.246 204.175 M172.246 200.472 Q178.056 200.472 181.112 205.078 Q184.19 209.661 184.19 218.411 Q184.19 227.138 181.112 231.745 Q178.056 236.328 172.246 236.328 Q166.436 236.328 163.357 231.745 Q160.302 227.138 160.302 218.411 Q160.302 209.661 163.357 205.078 Q166.436 200.472 172.246 200.472 Z" fill="#000000" fill-rule="nonzero" fill-opacity="1" /><path clip-path="url(#clip180)" d="M220.579 210.194 L210 220.819 L220.579 231.397 L217.824 234.198 L207.199 223.573 L196.575 234.198 L193.843 231.397 L204.399 220.819 L193.843 210.194 L196.575 207.393 L207.199 218.018 L217.824 207.393 L220.579 210.194 Z" fill="#000000" fill-rule="nonzero" fill-opacity="1" /><path clip-path="url(#clip180)" d="M232.94 231.722 L240.579 231.722 L240.579 205.356 L232.269 207.023 L232.269 202.763 L240.533 201.097 L245.209 201.097 L245.209 231.722 L252.847 231.722 L252.847 235.657 L232.94 235.657 L232.94 231.722 Z" fill="#000000" fill-rule="nonzero" fill-opacity="1" /><path clip-path="url(#clip180)" d="M272.292 204.175 Q268.681 204.175 266.852 207.74 Q265.046 211.282 265.046 218.411 Q265.046 225.518 266.852 229.083 Q268.681 232.624 272.292 232.624 Q275.926 232.624 277.732 229.083 Q279.56 225.518 279.56 218.411 Q279.56 211.282 277.732 207.74 Q275.926 204.175 272.292 204.175 M272.292 200.472 Q278.102 200.472 281.157 205.078 Q284.236 209.661 284.236 218.411 Q284.236 227.138 281.157 231.745 Q278.102 236.328 272.292 236.328 Q266.482 236.328 263.403 231.745 Q260.347 227.138 260.347 218.411 Q260.347 209.661 263.403 205.078 Q266.482 200.472 272.292 200.472 Z" fill="#000000" fill-rule="nonzero" fill-opacity="1" /><path clip-path="url(#clip180)" d="M284.236 194.573 L308.348 194.573 L308.348 197.77 L284.236 197.77 L284.236 194.573 Z" fill="#000000" fill-rule="nonzero" fill-opacity="1" /><path clip-path="url(#clip180)" d="M317.206 205.049 L323.413 205.049 L323.413 183.627 L316.661 184.981 L316.661 181.52 L323.375 180.166 L327.174 180.166 L327.174 205.049 L333.381 205.049 L333.381 208.246 L317.206 208.246 L317.206 205.049 Z" fill="#000000" fill-rule="nonzero" fill-opacity="1" /><path clip-path="url(#clip180)" d="M349.179 182.668 Q346.245 182.668 344.76 185.564 Q343.292 188.442 343.292 194.234 Q343.292 200.008 344.76 202.905 Q346.245 205.782 349.179 205.782 Q352.132 205.782 353.599 202.905 Q355.085 200.008 355.085 194.234 Q355.085 188.442 353.599 185.564 Q352.132 182.668 349.179 182.668 M349.179 179.658 Q353.9 179.658 356.383 183.401 Q358.884 187.125 358.884 194.234 Q358.884 201.325 356.383 205.068 Q353.9 208.792 349.179 208.792 Q344.459 208.792 341.957 205.068 Q339.475 201.325 339.475 194.234 Q339.475 187.125 341.957 183.401 Q344.459 179.658 349.179 179.658 Z" fill="#000000" fill-rule="nonzero" fill-opacity="1" /><path clip-path="url(#clip180)" d="M14.479 902.328 L14.479 896.471 L64.0042 896.471 L64.0042 902.328 L14.479 902.328 Z" fill="#000000" fill-rule="nonzero" fill-opacity="1" /><path clip-path="url(#clip180)" d="M14.5426 870.149 Q21.8632 874.414 29.0246 876.483 Q36.186 878.552 43.5384 878.552 Q50.8908 878.552 58.1159 876.483 Q65.3091 874.382 72.5979 870.149 L72.5979 875.242 Q65.1182 880.016 57.8931 882.403 Q50.668 884.758 43.5384 884.758 Q36.4406 884.758 29.2474 882.403 Q22.0542 880.048 14.5426 875.242 L14.5426 870.149 Z" fill="#000000" fill-rule="nonzero" fill-opacity="1" /><path clip-path="url(#clip180)" d="M14.479 858.786 L14.479 852.93 L64.0042 852.93 L64.0042 858.786 L14.479 858.786 Z" fill="#000000" fill-rule="nonzero" fill-opacity="1" /><path clip-path="url(#clip180)" d="M23.1363 816.836 L40.8648 816.836 L40.8648 799.108 L46.2757 799.108 L46.2757 816.836 L64.0042 816.836 L64.0042 822.183 L46.2757 822.183 L46.2757 839.912 L40.8648 839.912 L40.8648 822.183 L23.1363 822.183 L23.1363 816.836 Z" fill="#000000" fill-rule="nonzero" fill-opacity="1" /><path clip-path="url(#clip180)" d="M58.5933 784.117 L58.5933 773.613 L22.3406 773.613 L24.6323 785.04 L18.7758 785.04 L16.4842 773.677 L16.4842 767.247 L58.5933 767.247 L58.5933 756.744 L64.0042 756.744 L64.0042 784.117 L58.5933 784.117 Z" fill="#000000" fill-rule="nonzero" fill-opacity="1" /><path clip-path="url(#clip180)" d="M14.5426 745.508 L14.5426 740.416 Q22.0542 735.642 29.2474 733.286 Q36.4406 730.899 43.5384 730.899 Q50.668 730.899 57.8931 733.286 Q65.1182 735.642 72.5979 740.416 L72.5979 745.508 Q65.3091 741.275 58.1159 739.206 Q50.8908 737.106 43.5384 737.106 Q36.186 737.106 29.0246 739.206 Q21.8632 741.275 14.5426 745.508 Z" fill="#000000" fill-rule="nonzero" fill-opacity="1" /><path clip-path="url(#clip180)" d="M20.1444 683.316 L26.9239 683.316 Q23.9002 686.562 22.4043 690.254 Q20.9083 693.914 20.9083 698.052 Q20.9083 706.2 25.9054 710.529 Q30.8707 714.858 40.2919 714.858 Q49.6813 714.858 54.6784 710.529 Q59.6436 706.2 59.6436 698.052 Q59.6436 693.914 58.1477 690.254 Q56.6518 686.562 53.6281 683.316 L60.3439 683.316 Q62.6355 686.689 63.7814 690.477 Q64.9272 694.233 64.9272 698.434 Q64.9272 709.224 58.3387 715.431 Q51.7183 721.637 40.2919 721.637 Q28.8336 721.637 22.2451 715.431 Q15.6248 709.224 15.6248 698.434 Q15.6248 694.169 16.7706 690.413 Q17.8846 686.626 20.1444 683.316 Z" fill="#000000" fill-rule="nonzero" fill-opacity="1" /><path clip-path="url(#clip180)" d="M36.2815 675.899 L36.2815 672.207 L64.0042 672.207 L64.0042 675.899 L36.2815 675.899 Z" fill="#000000" fill-rule="nonzero" fill-opacity="1" /><path clip-path="url(#clip180)" d="M16.4842 652.41 L16.4842 646.999 L70.0516 663.55 L70.0516 668.961 L16.4842 652.41 Z" fill="#000000" fill-rule="nonzero" fill-opacity="1" /><path clip-path="url(#clip180)" d="M58.5933 634.491 L58.5933 612.051 L64.0042 612.051 L64.0042 642.225 L58.5933 642.225 Q54.8057 638.565 48.44 632.263 Q42.0425 625.929 40.1964 624.305 Q36.7271 621.218 34.34 620.009 Q31.921 618.767 29.5975 618.767 Q25.8099 618.767 23.4228 621.441 Q21.0356 624.083 21.0356 628.348 Q21.0356 631.371 22.086 634.745 Q23.1363 638.087 25.2688 641.907 L18.7758 641.907 Q17.2162 638.024 16.4205 634.65 Q15.6248 631.276 15.6248 628.475 Q15.6248 621.091 19.3169 616.698 Q23.009 612.306 29.1837 612.306 Q32.112 612.306 34.7537 613.42 Q37.3637 614.502 40.9285 617.399 Q41.8515 618.194 46.2757 622.459 Q50.668 626.724 58.5933 634.491 Z" fill="#000000" fill-rule="nonzero" fill-opacity="1" /><path clip-path="url(#clip180)" d="M28.3562 603.171 L28.3562 569.019 L34.2127 569.019 L34.2127 573.507 L56.1107 573.507 Q58.4023 573.507 59.4208 572.743 Q60.4075 571.948 60.4075 570.197 Q60.4075 569.72 60.3439 569.019 Q60.2484 568.319 60.2166 568.096 L64.4498 568.096 Q64.8635 569.21 65.0545 570.388 Q65.2455 571.566 65.2455 572.743 Q65.2455 576.563 63.1766 578.027 Q61.0759 579.491 55.4741 579.491 L34.2127 579.491 L34.2127 592.636 L64.0042 592.636 L64.0042 598.62 L34.2127 598.62 L34.2127 603.171 L28.3562 603.171 Z" fill="#000000" fill-rule="nonzero" fill-opacity="1" /><path clip-path="url(#clip181)" d="M450.296 1384.24 L452.22 1372.58 L454.144 1363.11 L456.068 1355.36 L457.992 1348.94 L459.916 1343.53 L461.84 1338.88 L463.764 1334.79 L465.688 1331.09 L467.612 1327.64 L469.536 1324.34 L471.46 1321.1 L473.384 1317.84 L475.308 1314.53 L477.232 1311.1 L479.156 1307.55 L481.08 1303.83 L483.004 1299.93 L484.928 1295.85 L486.852 1291.57 L488.776 1287.09 L490.7 1282.41 L492.624 1277.55 L494.548 1272.51 L496.472 1267.32 L498.396 1261.99 L500.32 1256.53 L502.244 1250.95 L504.168 1245.27 L506.092 1239.49 L508.016 1233.62 L509.94 1227.68 L511.864 1221.67 L513.788 1215.6 L515.712 1209.48 L517.636 1203.31 L519.56 1197.1 L521.484 1190.87 L523.408 1184.6 L525.332 1178.32 L527.256 1172.01 L529.18 1165.7 L531.104 1159.37 L533.028 1153 L534.952 1146.61 L536.876 1140.18 L538.8 1133.7 L540.724 1127.18 L542.648 1120.62 L544.572 1114 L546.496 1107.34 L548.42 1100.63 L550.344 1093.87 L552.268 1087.07 L554.192 1080.21 L556.116 1073.31 L558.04 1066.37 L559.964 1059.38 L561.888 1052.35 L563.812 1045.27 L565.736 1038.16 L567.66 1031.02 L569.584 1023.83 L571.508 1016.61 L573.432 1009.35 L575.356 1002.04 L577.28 994.706 L579.204 987.33 L581.128 979.917 L583.052 972.467 L584.976 964.982 L586.9 957.462 L588.824 949.91 L590.748 942.326 L592.672 934.711 L594.596 927.067 L596.52 919.396 L598.444 911.699 L600.368 903.977 L602.292 896.232 L604.216 888.466 L606.14 880.679 L608.064 872.874 L609.988 865.053 L611.912 857.216 L613.836 849.366 L615.76 841.503 L617.684 833.63 L619.608 825.747 L621.532 817.857 L623.456 809.961 L625.38 802.06 L627.304 794.155 L629.228 786.247 L631.152 778.339 L633.076 770.431 L635 762.525 L636.924 754.621 L638.849 746.721 L640.773 738.826 L642.697 730.937 L644.621 723.055 L646.545 715.184 L648.469 707.325 L650.393 699.483 L652.317 691.66 L654.241 683.858 L656.165 676.079 L658.089 668.327 L660.013 660.601 L661.937 652.906 L663.861 645.241 L665.785 637.609 L667.709 630.012 L669.633 622.45 L671.557 614.924 L673.481 607.437 L675.405 599.989 L677.329 592.58 L679.253 585.212 L681.177 577.886 L683.101 570.603 L685.025 563.366 L686.949 556.179 L688.873 549.044 L690.797 541.965 L692.721 534.944 L694.645 527.984 L696.569 521.087 L698.493 514.256 L700.417 507.491 L702.341 500.795 L704.265 494.17 L706.189 487.616 L708.113 481.135 L710.037 474.728 L711.961 468.396 L713.885 462.14 L715.809 455.96 L717.733 449.858 L719.657 443.833 L721.581 437.887 L723.505 432.023 L725.429 426.243 L727.353 420.551 L729.277 414.949 L731.201 409.439 L733.125 404.024 L735.049 398.706 L736.973 393.485 L738.897 388.365 L740.821 383.346 L742.745 378.43 L744.669 373.617 L746.593 368.909 L748.517 364.306 L750.441 359.809 L752.365 355.418 L754.289 351.134 L756.213 346.958 L758.137 342.889 L760.061 338.929 L761.985 335.078 L763.909 331.34 L765.833 327.715 L767.757 324.207 L769.681 320.817 L771.605 317.546 L773.529 314.396 L775.453 311.367 L777.377 308.46 L779.301 305.677 L781.225 303.018 L783.149 300.484 L785.073 298.075 L786.997 295.791 L788.921 293.633 L790.845 291.601 L792.769 289.695 L794.693 287.914 L796.617 286.259 L798.541 284.729 L800.465 283.327 L802.389 282.051 L804.313 280.905 L806.237 279.888 L808.161 279 L810.085 278.243 L812.009 277.617 L813.933 277.123 L815.857 276.759 L817.781 276.527 L819.705 276.427 L821.629 276.458 L823.553 276.621 L825.477 276.915 L827.401 277.339 L829.325 277.894 L831.249 278.579 L833.173 279.393 L835.097 280.337 L837.021 281.409 L838.945 282.609 L840.869 283.937 L842.793 285.394 L844.717 286.978 L846.641 288.688 L848.566 290.526 L850.49 292.49 L852.414 294.579 L854.338 296.794 L856.262 299.133 L858.186 301.596 L860.11 304.182 L862.034 306.89 L863.958 309.72 L865.882 312.67 L867.806 315.74 L869.73 318.93 L871.654 322.237 L873.578 325.661 L875.502 329.201 L877.426 332.857 L879.35 336.626 L881.274 340.507 L883.198 344.499 L885.122 348.601 L887.046 352.811 L888.97 357.129 L890.894 361.552 L892.818 366.08 L894.742 370.711 L896.666 375.444 L898.59 380.277 L900.514 385.21 L902.438 390.241 L904.362 395.369 L906.286 400.592 L908.21 405.91 L910.134 411.32 L912.058 416.822 L913.982 422.414 L915.906 428.095 L917.83 433.862 L919.754 439.713 L921.678 445.646 L923.602 451.659 L925.526 457.751 L927.45 463.919 L929.374 470.161 L931.298 476.476 L933.222 482.862 L935.146 489.318 L937.07 495.841 L938.994 502.429 L940.918 509.082 L942.842 515.798 L944.766 522.574 L946.69 529.41 L948.614 536.304 L950.538 543.255 L952.462 550.261 L954.386 557.319 L956.31 564.427 L958.234 571.582 L960.158 578.783 L962.082 586.026 L964.006 593.31 L965.93 600.633 L967.854 607.992 L969.778 615.384 L971.702 622.81 L973.626 630.265 L975.55 637.749 L977.474 645.259 L979.398 652.794 L981.322 660.352 L983.246 667.931 L985.17 675.531 L987.094 683.148 L989.018 690.782 L990.942 698.431 L992.866 706.092 L994.79 713.764 L996.714 721.442 L998.638 729.126 L1000.56 736.813 L1002.49 744.5 L1004.41 752.186 L1006.33 759.867 L1008.26 767.543 L1010.18 775.211 L1012.11 782.87 L1014.03 790.517 L1015.95 798.151 L1017.88 805.77 L1019.8 813.373 L1021.73 820.957 L1023.65 828.522 L1025.57 836.066 L1027.5 843.587 L1029.42 851.084 L1031.35 858.555 L1033.27 865.998 L1035.19 873.41 L1037.12 880.789 L1039.04 888.133 L1040.97 895.442 L1042.89 902.711 L1044.81 909.94 L1046.74 917.128 L1048.66 924.272 L1050.59 931.37 L1052.51 938.422 L1054.43 945.426 L1056.36 952.38 L1058.28 959.283 L1060.21 966.134 L1062.13 972.932 L1064.05 979.675 L1065.98 986.362 L1067.9 992.992 L1069.83 999.563 L1071.75 1006.07 L1073.67 1012.52 L1075.6 1018.91 L1077.52 1025.23 L1079.45 1031.49 L1081.37 1037.67 L1083.29 1043.79 L1085.22 1049.84 L1087.14 1055.82 L1089.07 1061.73 L1090.99 1067.56 L1092.91 1073.32 L1094.84 1079 L1096.76 1084.61 L1098.69 1090.14 L1100.61 1095.6 L1102.53 1100.97 L1104.46 1106.26 L1106.38 1111.48 L1108.31 1116.61 L1110.23 1121.67 L1112.15 1126.64 L1114.08 1131.52 L1116 1136.33 L1117.93 1141.04 L1119.85 1145.68 L1121.77 1150.22 L1123.7 1154.68 L1125.62 1159.06 L1127.55 1163.34 L1129.47 1167.54 L1131.39 1171.65 L1133.32 1175.67 L1135.24 1179.6 L1137.17 1183.44 L1139.09 1187.19 L1141.01 1190.85 L1142.94 1194.43 L1144.86 1197.91 L1146.79 1201.29 L1148.71 1204.59 L1150.63 1207.8 L1152.56 1210.92 L1154.48 1213.94 L1156.41 1216.88 L1158.33 1219.72 L1160.25 1222.48 L1162.18 1225.14 L1164.1 1227.71 L1166.03 1230.19 L1167.95 1232.58 L1169.88 1234.89 L1171.8 1237.1 L1173.72 1239.22 L1175.65 1241.25 L1177.57 1243.19 L1179.5 1245.05 L1181.42 1246.81 L1183.34 1248.49 L1185.27 1250.07 L1187.19 1251.57 L1189.12 1252.99 L1191.04 1254.32 L1192.96 1255.56 L1194.89 1256.71 L1196.81 1257.79 L1198.74 1258.78 L1200.66 1259.68 L1202.58 1260.51 L1204.51 1261.25 L1206.43 1261.92 L1208.36 1262.5 L1210.28 1263 L1212.2 1263.43 L1214.13 1263.77 L1216.05 1264.04 L1217.98 1264.23 L1219.9 1264.35 L1221.82 1264.39 L1223.75 1264.36 L1225.67 1264.25 L1227.6 1264.07 L1229.52 1263.82 L1231.44 1263.5 L1233.37 1263.11 L1235.29 1262.66 L1237.22 1262.14 L1239.14 1261.55 L1241.06 1260.9 L1242.99 1260.19 L1244.91 1259.42 L1246.84 1258.58 L1248.76 1257.69 L1250.68 1256.73 L1252.61 1255.72 L1254.53 1254.65 L1256.46 1253.53 L1258.38 1252.35 L1260.3 1251.12 L1262.23 1249.83 L1264.15 1248.5 L1266.08 1247.11 L1268 1245.68 L1269.92 1244.2 L1271.85 1242.68 L1273.77 1241.11 L1275.7 1239.5 L1277.62 1237.85 L1279.54 1236.16 L1281.47 1234.43 L1283.39 1232.66 L1285.32 1230.86 L1287.24 1229.02 L1289.16 1227.15 L1291.09 1225.25 L1293.01 1223.32 L1294.94 1221.36 L1296.86 1219.37 L1298.78 1217.35 L1300.71 1215.3 L1302.63 1213.23 L1304.56 1211.14 L1306.48 1209.02 L1308.4 1206.89 L1310.33 1204.73 L1312.25 1202.56 L1314.18 1200.38 L1316.1 1198.17 L1318.02 1195.96 L1319.95 1193.74 L1321.87 1191.5 L1323.8 1189.25 L1325.72 1187 L1327.64 1184.74 L1329.57 1182.47 L1331.49 1180.2 L1333.42 1177.93 L1335.34 1175.65 L1337.26 1173.38 L1339.19 1171.1 L1341.11 1168.82 L1343.04 1166.55 L1344.96 1164.28 L1346.88 1162.02 L1348.81 1159.76 L1350.73 1157.51 L1352.66 1155.27 L1354.58 1153.04 L1356.5 1150.82 L1358.43 1148.62 L1360.35 1146.43 L1362.28 1144.25 L1364.2 1142.09 L1366.12 1139.95 L1368.05 1137.82 L1369.97 1135.72 L1371.9 1133.63 L1373.82 1131.56 L1375.74 1129.52 L1377.67 1127.5 L1379.59 1125.5 L1381.52 1123.53 L1383.44 1121.58 L1385.36 1119.66 L1387.29 1117.76 L1389.21 1115.9 L1391.14 1114.06 L1393.06 1112.26 L1394.98 1110.48 L1396.91 1108.74 L1398.83 1107.03 L1400.76 1105.35 L1402.68 1103.71 L1404.6 1102.1 L1406.53 1100.53 L1408.45 1098.99 L1410.38 1097.49 L1412.3 1096.03 L1414.22 1094.6 L1416.15 1093.21 L1418.07 1091.87 L1420 1090.56 L1421.92 1089.29 L1423.84 1088.07 L1425.77 1086.88 L1427.69 1085.74 L1429.62 1084.63 L1431.54 1083.57 L1433.46 1082.55 L1435.39 1081.58 L1437.31 1080.65 L1439.24 1079.76 L1441.16 1078.92 L1443.08 1078.12 L1445.01 1077.37 L1446.93 1076.66 L1448.86 1076 L1450.78 1075.38 L1452.7 1074.81 L1454.63 1074.28 L1456.55 1073.8 L1458.48 1073.37 L1460.4 1072.98 L1462.32 1072.64 L1464.25 1072.35 L1466.17 1072.1 L1468.1 1071.9 L1470.02 1071.74 L1471.94 1071.63 L1473.87 1071.57 L1475.79 1071.55 L1477.72 1071.57 L1479.64 1071.64 L1481.56 1071.76 L1483.49 1071.93 L1485.41 1072.14 L1487.34 1072.39 L1489.26 1072.69 L1491.18 1073.04 L1493.11 1073.43 L1495.03 1073.86 L1496.96 1074.34 L1498.88 1074.86 L1500.8 1075.43 L1502.73 1076.03 L1504.65 1076.68 L1506.58 1077.38 L1508.5 1078.11 L1510.42 1078.88 L1512.35 1079.7 L1514.27 1080.55 L1516.2 1081.45 L1518.12 1082.38 L1520.04 1083.35 L1521.97 1084.36 L1523.89 1085.41 L1525.82 1086.49 L1527.74 1087.62 L1529.66 1088.78 L1531.59 1089.97 L1533.51 1091.2 L1535.44 1092.47 L1537.36 1093.77 L1539.28 1095.1 L1541.21 1096.46 L1543.13 1097.86 L1545.06 1099.29 L1546.98 1100.74 L1548.9 1102.23 L1550.83 1103.74 L1552.75 1105.28 L1554.68 1106.85 L1556.6 1108.44 L1558.52 1110.06 L1560.45 1111.71 L1562.37 1113.38 L1564.3 1115.07 L1566.22 1116.79 L1568.14 1118.53 L1570.07 1120.29 L1571.99 1122.07 L1573.92 1123.87 L1575.84 1125.69 L1577.76 1127.53 L1579.69 1129.39 L1581.61 1131.26 L1583.54 1133.14 L1585.46 1135.04 L1587.39 1136.95 L1589.31 1138.88 L1591.23 1140.81 L1593.16 1142.76 L1595.08 1144.72 L1597.01 1146.69 L1598.93 1148.66 L1600.85 1150.64 L1602.78 1152.63 L1604.7 1154.63 L1606.63 1156.63 L1608.55 1158.63 L1610.47 1160.64 L1612.4 1162.65 L1614.32 1164.66 L1616.25 1166.68 L1618.17 1168.69 L1620.09 1170.7 L1622.02 1172.71 L1623.94 1174.71 L1625.87 1176.71 L1627.79 1178.71 L1629.71 1180.7 L1631.64 1182.68 L1633.56 1184.66 L1635.49 1186.63 L1637.41 1188.59 L1639.33 1190.54 L1641.26 1192.48 L1643.18 1194.41 L1645.11 1196.33 L1647.03 1198.23 L1648.95 1200.12 L1650.88 1202 L1652.8 1203.86 L1654.73 1205.7 L1656.65 1207.53 L1658.57 1209.34 L1660.5 1211.14 L1662.42 1212.91 L1664.35 1214.67 L1666.27 1216.4 L1668.19 1218.11 L1670.12 1219.8 L1672.04 1221.47 L1673.97 1223.12 L1675.89 1224.74 L1677.81 1226.34 L1679.74 1227.91 L1681.66 1229.46 L1683.59 1230.98 L1685.51 1232.47 L1687.43 1233.94 L1689.36 1235.38 L1691.28 1236.79 L1693.21 1238.17 L1695.13 1239.52 L1697.05 1240.84 L1698.98 1242.14 L1700.9 1243.4 L1702.83 1244.63 L1704.75 1245.82 L1706.67 1246.99 L1708.6 1248.12 L1710.52 1249.22 L1712.45 1250.29 L1714.37 1251.32 L1716.29 1252.32 L1718.22 1253.28 L1720.14 1254.21 L1722.07 1255.1 L1723.99 1255.96 L1725.91 1256.78 L1727.84 1257.56 L1729.76 1258.31 L1731.69 1259.02 L1733.61 1259.69 L1735.53 1260.33 L1737.46 1260.93 L1739.38 1261.49 L1741.31 1262.02 L1743.23 1262.51 L1745.15 1262.96 L1747.08 1263.37 L1749 1263.75 L1750.93 1264.08 L1752.85 1264.38 L1754.77 1264.64 L1756.7 1264.86 L1758.62 1265.04 L1760.55 1265.19 L1762.47 1265.29 L1764.39 1265.36 L1766.32 1265.39 L1768.24 1265.38 L1770.17 1265.33 L1772.09 1265.24 L1774.01 1265.12 L1775.94 1264.96 L1777.86 1264.76 L1779.79 1264.53 L1781.71 1264.26 L1783.63 1263.95 L1785.56 1263.6 L1787.48 1263.22 L1789.41 1262.8 L1791.33 1262.35 L1793.25 1261.86 L1795.18 1261.33 L1797.1 1260.77 L1799.03 1260.17 L1800.95 1259.54 L1802.87 1258.87 L1804.8 1258.17 L1806.72 1257.43 L1808.65 1256.67 L1810.57 1255.86 L1812.49 1255.03 L1814.42 1254.17 L1816.34 1253.27 L1818.27 1252.34 L1820.19 1251.39 L1822.11 1250.4 L1824.04 1249.38 L1825.96 1248.34 L1827.89 1247.26 L1829.81 1246.16 L1831.73 1245.03 L1833.66 1243.87 L1835.58 1242.68 L1837.51 1241.47 L1839.43 1240.23 L1841.35 1238.97 L1843.28 1237.68 L1845.2 1236.37 L1847.13 1235.03 L1849.05 1233.67 L1850.97 1232.29 L1852.9 1230.89 L1854.82 1229.47 L1856.75 1228.03 L1858.67 1226.57 L1860.59 1225.09 L1862.52 1223.59 L1864.44 1222.08 L1866.37 1220.55 L1868.29 1219 L1870.21 1217.44 L1872.14 1215.86 L1874.06 1214.27 L1875.99 1212.67 L1877.91 1211.05 L1879.83 1209.42 L1881.76 1207.78 L1883.68 1206.12 L1885.61 1204.46 L1887.53 1202.79 L1889.45 1201.11 L1891.38 1199.42 L1893.3 1197.73 L1895.23 1196.03 L1897.15 1194.33 L1899.07 1192.62 L1901 1190.91 L1902.92 1189.19 L1904.85 1187.47 L1906.77 1185.76 L1908.69 1184.04 L1910.62 1182.31 L1912.54 1180.59 L1914.47 1178.88 L1916.39 1177.16 L1918.31 1175.44 L1920.24 1173.73 L1922.16 1172.03 L1924.09 1170.33 L1926.01 1168.63 L1927.93 1166.94 L1929.86 1165.26 L1931.78 1163.59 L1933.71 1161.92 L1935.63 1160.27 L1937.55 1158.62 L1939.48 1156.99 L1941.4 1155.36 L1943.33 1153.75 L1945.25 1152.16 L1947.17 1150.57 L1949.1 1149.01 L1951.02 1147.45 L1952.95 1145.91 L1954.87 1144.39 L1956.79 1142.88 L1958.72 1141.4 L1960.64 1139.93 L1962.57 1138.48 L1964.49 1137.05 L1966.41 1135.64 L1968.34 1134.25 L1970.26 1132.88 L1972.19 1131.53 L1974.11 1130.21 L1976.03 1128.91 L1977.96 1127.63 L1979.88 1126.38 L1981.81 1125.15 L1983.73 1123.95 L1985.65 1122.77 L1987.58 1121.62 L1989.5 1120.5 L1991.43 1119.41 L1993.35 1118.34 L1995.27 1117.3 L1997.2 1116.3 L1999.12 1115.32 L2001.05 1114.37 L2002.97 1113.45 L2004.9 1112.56 L2006.82 1111.7 L2008.74 1110.88 L2010.67 1110.09 L2012.59 1109.33 L2014.52 1108.6 L2016.44 1107.9 L2018.36 1107.24 L2020.29 1106.61 L2022.21 1106.02 L2024.14 1105.46 L2026.06 1104.94 L2027.98 1104.45 L2029.91 1104 L2031.83 1103.58 L2033.76 1103.2 L2035.68 1102.86 L2037.6 1102.55 L2039.53 1102.28 L2041.45 1102.05 L2043.38 1101.85 L2045.3 1101.69 L2047.22 1101.57 L2049.15 1101.48 L2051.07 1101.43 L2053 1101.42 L2054.92 1101.45 L2056.84 1101.52 L2058.77 1101.62 L2060.69 1101.76 L2062.62 1101.94 L2064.54 1102.16 L2066.46 1102.42 L2068.39 1102.71 L2070.31 1103.05 L2072.24 1103.42 L2074.16 1103.83 L2076.08 1104.28 L2078.01 1104.77 L2079.93 1105.3 L2081.86 1105.86 L2083.78 1106.46 L2085.7 1107.1 L2087.63 1107.78 L2089.55 1108.49 L2091.48 1109.25 L2093.4 1110.04 L2095.32 1110.86 L2097.25 1111.73 L2099.17 1112.63 L2101.1 1113.57 L2103.02 1114.54 L2104.94 1115.55 L2106.87 1116.6 L2108.79 1117.68 L2110.72 1118.8 L2112.64 1119.96 L2114.56 1121.15 L2116.49 1122.37 L2118.41 1123.63 L2120.34 1124.93 L2122.26 1126.26 L2124.18 1127.62 L2126.11 1129.01 L2128.03 1130.44 L2129.96 1131.89 L2131.88 1133.39 L2133.8 1134.91 L2135.73 1136.46 L2137.65 1138.05 L2139.58 1139.66 L2141.5 1141.31 L2143.42 1142.98 L2145.35 1144.69 L2147.27 1146.43 L2149.2 1148.19 L2151.12 1149.98 L2153.04 1151.8 L2154.97 1153.65 L2156.89 1155.52 L2158.82 1157.42 L2160.74 1159.34 L2162.66 1161.29 L2164.59 1163.26 L2166.51 1165.26 L2168.44 1167.28 L2170.36 1169.32 L2172.28 1171.39 L2174.21 1173.48 L2176.13 1175.58 L2178.06 1177.71 L2179.98 1179.86 L2181.9 1182.03 L2183.83 1184.22 L2185.75 1186.43 L2187.68 1188.65 L2189.6 1190.9 L2191.52 1193.16 L2193.45 1195.43 L2195.37 1197.72 L2197.3 1200.03 L2199.22 1202.35 L2201.14 1204.69 L2203.07 1207.04 L2204.99 1209.4 L2206.92 1211.77 L2208.84 1214.15 L2210.76 1216.55 L2212.69 1218.95 L2214.61 1221.37 L2216.54 1223.79 L2218.46 1226.23 L2220.38 1228.67 L2222.31 1231.12 L2224.23 1233.57 L2226.16 1236.03 L2228.08 1238.5 L2230 1240.97 L2231.93 1243.45 L2233.85 1245.93 L2235.78 1248.41 L2237.7 1250.89 L2239.62 1253.38 L2241.55 1255.86 L2243.47 1258.35 L2245.4 1260.83 L2247.32 1263.31 L2249.24 1265.79 L2251.17 1268.27 L2253.09 1270.74 L2255.02 1273.21 L2256.94 1275.67 L2258.86 1278.13 L2260.79 1280.58 L2262.71 1283.03 L2264.64 1285.47 L2266.56 1287.9 L2268.48 1290.33 L2270.41 1292.74 L2272.33 1295.15 L2274.26 1297.55 L2276.18 1299.94 L2278.1 1302.33 L2280.03 1304.7 L2281.95 1307.07 L2283.88 1309.42 L2285.8 1311.77 L2287.72 1314.1 L2289.65 1316.43 L2291.57 1318.74 L2293.5 1321.04 L2295.42 1323.34 L2297.34 1325.62 L2297.34 1305.88 L2295.42 1303.44 L2293.5 1300.99 L2291.57 1298.52 L2289.65 1296.05 L2287.72 1293.56 L2285.8 1291.06 L2283.88 1288.55 L2281.95 1286.03 L2280.03 1283.5 L2278.1 1280.96 L2276.18 1278.41 L2274.26 1275.85 L2272.33 1273.28 L2270.41 1270.7 L2268.48 1268.11 L2266.56 1265.51 L2264.64 1262.91 L2262.71 1260.3 L2260.79 1257.68 L2258.86 1255.05 L2256.94 1252.42 L2255.02 1249.78 L2253.09 1247.14 L2251.17 1244.49 L2249.24 1241.83 L2247.32 1239.18 L2245.4 1236.52 L2243.47 1233.86 L2241.55 1231.2 L2239.62 1228.53 L2237.7 1225.87 L2235.78 1223.21 L2233.85 1220.55 L2231.93 1217.89 L2230 1215.24 L2228.08 1212.59 L2226.16 1209.94 L2224.23 1207.3 L2222.31 1204.67 L2220.38 1202.04 L2218.46 1199.42 L2216.54 1196.81 L2214.61 1194.21 L2212.69 1191.62 L2210.76 1189.04 L2208.84 1186.47 L2206.92 1183.91 L2204.99 1181.37 L2203.07 1178.83 L2201.14 1176.31 L2199.22 1173.8 L2197.3 1171.31 L2195.37 1168.83 L2193.45 1166.37 L2191.52 1163.93 L2189.6 1161.5 L2187.68 1159.09 L2185.75 1156.7 L2183.83 1154.33 L2181.9 1151.97 L2179.98 1149.64 L2178.06 1147.33 L2176.13 1145.04 L2174.21 1142.77 L2172.28 1140.53 L2170.36 1138.3 L2168.44 1136.11 L2166.51 1133.93 L2164.59 1131.78 L2162.66 1129.66 L2160.74 1127.56 L2158.82 1125.49 L2156.89 1123.44 L2154.97 1121.42 L2153.04 1119.43 L2151.12 1117.47 L2149.2 1115.54 L2147.27 1113.64 L2145.35 1111.77 L2143.42 1109.93 L2141.5 1108.12 L2139.58 1106.34 L2137.65 1104.6 L2135.73 1102.88 L2133.8 1101.21 L2131.88 1099.56 L2129.96 1097.95 L2128.03 1096.37 L2126.11 1094.83 L2124.18 1093.32 L2122.26 1091.84 L2120.34 1090.41 L2118.41 1089 L2116.49 1087.64 L2114.56 1086.31 L2112.64 1085.02 L2110.72 1083.76 L2108.79 1082.54 L2106.87 1081.37 L2104.94 1080.23 L2103.02 1079.12 L2101.1 1078.06 L2099.17 1077.04 L2097.25 1076.06 L2095.32 1075.11 L2093.4 1074.21 L2091.48 1073.34 L2089.55 1072.52 L2087.63 1071.73 L2085.7 1070.99 L2083.78 1070.28 L2081.86 1069.62 L2079.93 1068.99 L2078.01 1068.41 L2076.08 1067.86 L2074.16 1067.36 L2072.24 1066.9 L2070.31 1066.48 L2068.39 1066.1 L2066.46 1065.76 L2064.54 1065.46 L2062.62 1065.21 L2060.69 1064.99 L2058.77 1064.82 L2056.84 1064.69 L2054.92 1064.6 L2053 1064.55 L2051.07 1064.54 L2049.15 1064.56 L2047.22 1064.63 L2045.3 1064.74 L2043.38 1064.89 L2041.45 1065.08 L2039.53 1065.31 L2037.6 1065.58 L2035.68 1065.89 L2033.76 1066.23 L2031.83 1066.62 L2029.91 1067.04 L2027.98 1067.5 L2026.06 1068 L2024.14 1068.54 L2022.21 1069.12 L2020.29 1069.73 L2018.36 1070.38 L2016.44 1071.06 L2014.52 1071.78 L2012.59 1072.54 L2010.67 1073.33 L2008.74 1074.16 L2006.82 1075.02 L2004.9 1075.92 L2002.97 1076.85 L2001.05 1077.81 L1999.12 1078.8 L1997.2 1079.83 L1995.27 1080.89 L1993.35 1081.98 L1991.43 1083.1 L1989.5 1084.25 L1987.58 1085.43 L1985.65 1086.63 L1983.73 1087.87 L1981.81 1089.14 L1979.88 1090.43 L1977.96 1091.75 L1976.03 1093.1 L1974.11 1094.47 L1972.19 1095.86 L1970.26 1097.28 L1968.34 1098.73 L1966.41 1100.2 L1964.49 1101.69 L1962.57 1103.2 L1960.64 1104.73 L1958.72 1106.29 L1956.79 1107.86 L1954.87 1109.45 L1952.95 1111.06 L1951.02 1112.69 L1949.1 1114.33 L1947.17 1116 L1945.25 1117.67 L1943.33 1119.36 L1941.4 1121.07 L1939.48 1122.79 L1937.55 1124.52 L1935.63 1126.26 L1933.71 1128.01 L1931.78 1129.78 L1929.86 1131.55 L1927.93 1133.33 L1926.01 1135.12 L1924.09 1136.92 L1922.16 1138.73 L1920.24 1140.54 L1918.31 1142.35 L1916.39 1144.17 L1914.47 1145.99 L1912.54 1147.81 L1910.62 1149.64 L1908.69 1151.46 L1906.77 1153.29 L1904.85 1155.11 L1902.92 1156.94 L1901 1158.76 L1899.07 1160.57 L1897.15 1162.39 L1895.23 1164.2 L1893.3 1166 L1891.38 1167.8 L1889.45 1169.59 L1887.53 1171.37 L1885.61 1173.14 L1883.68 1174.91 L1881.76 1176.66 L1879.83 1178.41 L1877.91 1180.14 L1875.99 1181.85 L1874.06 1183.56 L1872.14 1185.25 L1870.21 1186.92 L1868.29 1188.58 L1866.37 1190.22 L1864.44 1191.85 L1862.52 1193.45 L1860.59 1195.04 L1858.67 1196.61 L1856.75 1198.16 L1854.82 1199.69 L1852.9 1201.2 L1850.97 1202.68 L1849.05 1204.14 L1847.13 1205.58 L1845.2 1207 L1843.28 1208.39 L1841.35 1209.76 L1839.43 1211.09 L1837.51 1212.41 L1835.58 1213.69 L1833.66 1214.95 L1831.73 1216.17 L1829.81 1217.37 L1827.89 1218.54 L1825.96 1219.67 L1824.04 1220.78 L1822.11 1221.85 L1820.19 1222.89 L1818.27 1223.9 L1816.34 1224.88 L1814.42 1225.83 L1812.49 1226.74 L1810.57 1227.61 L1808.65 1228.46 L1806.72 1229.26 L1804.8 1230.03 L1802.87 1230.77 L1800.95 1231.47 L1799.03 1232.13 L1797.1 1232.75 L1795.18 1233.34 L1793.25 1233.89 L1791.33 1234.39 L1789.41 1234.86 L1787.48 1235.29 L1785.56 1235.69 L1783.63 1236.04 L1781.71 1236.35 L1779.79 1236.62 L1777.86 1236.86 L1775.94 1237.05 L1774.01 1237.2 L1772.09 1237.32 L1770.17 1237.39 L1768.24 1237.42 L1766.32 1237.41 L1764.39 1237.36 L1762.47 1237.27 L1760.55 1237.13 L1758.62 1236.96 L1756.7 1236.74 L1754.77 1236.48 L1752.85 1236.18 L1750.93 1235.84 L1749 1235.46 L1747.08 1235.03 L1745.15 1234.57 L1743.23 1234.06 L1741.31 1233.52 L1739.38 1232.93 L1737.46 1232.3 L1735.53 1231.63 L1733.61 1230.92 L1731.69 1230.18 L1729.76 1229.39 L1727.84 1228.56 L1725.91 1227.69 L1723.99 1226.79 L1722.07 1225.84 L1720.14 1224.86 L1718.22 1223.84 L1716.29 1222.77 L1714.37 1221.68 L1712.45 1220.54 L1710.52 1219.37 L1708.6 1218.16 L1706.67 1216.92 L1704.75 1215.64 L1702.83 1214.32 L1700.9 1212.97 L1698.98 1211.59 L1697.05 1210.17 L1695.13 1208.72 L1693.21 1207.24 L1691.28 1205.72 L1689.36 1204.18 L1687.43 1202.6 L1685.51 1200.99 L1683.59 1199.35 L1681.66 1197.69 L1679.74 1195.99 L1677.81 1194.27 L1675.89 1192.52 L1673.97 1190.74 L1672.04 1188.94 L1670.12 1187.12 L1668.19 1185.26 L1666.27 1183.39 L1664.35 1181.49 L1662.42 1179.57 L1660.5 1177.63 L1658.57 1175.66 L1656.65 1173.68 L1654.73 1171.68 L1652.8 1169.66 L1650.88 1167.62 L1648.95 1165.56 L1647.03 1163.49 L1645.11 1161.4 L1643.18 1159.31 L1641.26 1157.19 L1639.33 1155.07 L1637.41 1152.93 L1635.49 1150.78 L1633.56 1148.63 L1631.64 1146.46 L1629.71 1144.29 L1627.79 1142.1 L1625.87 1139.91 L1623.94 1137.72 L1622.02 1135.52 L1620.09 1133.32 L1618.17 1131.11 L1616.25 1128.91 L1614.32 1126.7 L1612.4 1124.49 L1610.47 1122.29 L1608.55 1120.08 L1606.63 1117.88 L1604.7 1115.68 L1602.78 1113.49 L1600.85 1111.31 L1598.93 1109.13 L1597.01 1106.96 L1595.08 1104.8 L1593.16 1102.65 L1591.23 1100.51 L1589.31 1098.38 L1587.39 1096.26 L1585.46 1094.15 L1583.54 1092.06 L1581.61 1089.99 L1579.69 1087.93 L1577.76 1085.88 L1575.84 1083.86 L1573.92 1081.85 L1571.99 1079.86 L1570.07 1077.9 L1568.14 1075.96 L1566.22 1074.03 L1564.3 1072.14 L1562.37 1070.27 L1560.45 1068.42 L1558.52 1066.6 L1556.6 1064.81 L1554.68 1063.04 L1552.75 1061.3 L1550.83 1059.59 L1548.9 1057.92 L1546.98 1056.27 L1545.06 1054.65 L1543.13 1053.07 L1541.21 1051.52 L1539.28 1050 L1537.36 1048.51 L1535.44 1047.07 L1533.51 1045.65 L1531.59 1044.28 L1529.66 1042.94 L1527.74 1041.64 L1525.82 1040.38 L1523.89 1039.17 L1521.97 1037.99 L1520.04 1036.85 L1518.12 1035.76 L1516.2 1034.7 L1514.27 1033.69 L1512.35 1032.72 L1510.42 1031.8 L1508.5 1030.91 L1506.58 1030.08 L1504.65 1029.28 L1502.73 1028.54 L1500.8 1027.83 L1498.88 1027.18 L1496.96 1026.57 L1495.03 1026 L1493.11 1025.49 L1491.18 1025.02 L1489.26 1024.6 L1487.34 1024.23 L1485.41 1023.91 L1483.49 1023.64 L1481.56 1023.42 L1479.64 1023.25 L1477.72 1023.13 L1475.79 1023.05 L1473.87 1023.03 L1471.94 1023.06 L1470.02 1023.13 L1468.1 1023.26 L1466.17 1023.44 L1464.25 1023.66 L1462.32 1023.94 L1460.4 1024.26 L1458.48 1024.64 L1456.55 1025.06 L1454.63 1025.54 L1452.7 1026.07 L1450.78 1026.64 L1448.86 1027.27 L1446.93 1027.94 L1445.01 1028.67 L1443.08 1029.44 L1441.16 1030.27 L1439.24 1031.14 L1437.31 1032.06 L1435.39 1033.03 L1433.46 1034.04 L1431.54 1035.1 L1429.62 1036.21 L1427.69 1037.37 L1425.77 1038.57 L1423.84 1039.81 L1421.92 1041.11 L1420 1042.44 L1418.07 1043.82 L1416.15 1045.24 L1414.22 1046.7 L1412.3 1048.21 L1410.38 1049.76 L1408.45 1051.35 L1406.53 1052.98 L1404.6 1054.65 L1402.68 1056.35 L1400.76 1058.1 L1398.83 1059.88 L1396.91 1061.7 L1394.98 1063.56 L1393.06 1065.45 L1391.14 1067.37 L1389.21 1069.33 L1387.29 1071.32 L1385.36 1073.34 L1383.44 1075.39 L1381.52 1077.47 L1379.59 1079.57 L1377.67 1081.71 L1375.74 1083.87 L1373.82 1086.06 L1371.9 1088.27 L1369.97 1090.5 L1368.05 1092.75 L1366.12 1095.03 L1364.2 1097.32 L1362.28 1099.64 L1360.35 1101.97 L1358.43 1104.32 L1356.5 1106.68 L1354.58 1109.06 L1352.66 1111.45 L1350.73 1113.85 L1348.81 1116.26 L1346.88 1118.69 L1344.96 1121.12 L1343.04 1123.55 L1341.11 1125.99 L1339.19 1128.44 L1337.26 1130.88 L1335.34 1133.33 L1333.42 1135.77 L1331.49 1138.22 L1329.57 1140.66 L1327.64 1143.09 L1325.72 1145.52 L1323.8 1147.94 L1321.87 1150.36 L1319.95 1152.76 L1318.02 1155.15 L1316.1 1157.53 L1314.18 1159.9 L1312.25 1162.25 L1310.33 1164.58 L1308.4 1166.89 L1306.48 1169.19 L1304.56 1171.46 L1302.63 1173.71 L1300.71 1175.94 L1298.78 1178.14 L1296.86 1180.31 L1294.94 1182.45 L1293.01 1184.55 L1291.09 1186.63 L1289.16 1188.67 L1287.24 1190.68 L1285.32 1192.65 L1283.39 1194.58 L1281.47 1196.48 L1279.54 1198.33 L1277.62 1200.14 L1275.7 1201.91 L1273.77 1203.64 L1271.85 1205.31 L1269.92 1206.94 L1268 1208.52 L1266.08 1210.06 L1264.15 1211.53 L1262.23 1212.96 L1260.3 1214.33 L1258.38 1215.64 L1256.46 1216.89 L1254.53 1218.08 L1252.61 1219.21 L1250.68 1220.28 L1248.76 1221.29 L1246.84 1222.23 L1244.91 1223.1 L1242.99 1223.91 L1241.06 1224.65 L1239.14 1225.32 L1237.22 1225.92 L1235.29 1226.45 L1233.37 1226.91 L1231.44 1227.3 L1229.52 1227.6 L1227.6 1227.84 L1225.67 1227.99 L1223.75 1228.06 L1221.82 1228.06 L1219.9 1227.97 L1217.98 1227.8 L1216.05 1227.54 L1214.13 1227.2 L1212.2 1226.78 L1210.28 1226.27 L1208.36 1225.67 L1206.43 1224.98 L1204.51 1224.21 L1202.58 1223.34 L1200.66 1222.39 L1198.74 1221.35 L1196.81 1220.21 L1194.89 1218.98 L1192.96 1217.66 L1191.04 1216.24 L1189.12 1214.74 L1187.19 1213.13 L1185.27 1211.43 L1183.34 1209.63 L1181.42 1207.73 L1179.5 1205.74 L1177.57 1203.65 L1175.65 1201.45 L1173.72 1199.16 L1171.8 1196.77 L1169.88 1194.28 L1167.95 1191.69 L1166.03 1189 L1164.1 1186.21 L1162.18 1183.31 L1160.25 1180.32 L1158.33 1177.23 L1156.41 1174.03 L1154.48 1170.73 L1152.56 1167.34 L1150.63 1163.84 L1148.71 1160.24 L1146.79 1156.53 L1144.86 1152.73 L1142.94 1148.82 L1141.01 1144.82 L1139.09 1140.71 L1137.17 1136.5 L1135.24 1132.19 L1133.32 1127.78 L1131.39 1123.27 L1129.47 1118.66 L1127.55 1113.95 L1125.62 1109.14 L1123.7 1104.23 L1121.77 1099.23 L1119.85 1094.13 L1117.93 1088.93 L1116 1083.63 L1114.08 1078.24 L1112.15 1072.76 L1110.23 1067.18 L1108.31 1061.51 L1106.38 1055.74 L1104.46 1049.89 L1102.53 1043.94 L1100.61 1037.91 L1098.69 1031.78 L1096.76 1025.57 L1094.84 1019.27 L1092.91 1012.88 L1090.99 1006.41 L1089.07 999.849 L1087.14 993.209 L1085.22 986.486 L1083.29 979.682 L1081.37 972.799 L1079.45 965.837 L1077.52 958.797 L1075.6 951.682 L1073.67 944.493 L1071.75 937.231 L1069.83 929.897 L1067.9 922.495 L1065.98 915.024 L1064.05 907.488 L1062.13 899.887 L1060.21 892.222 L1058.28 884.496 L1056.36 876.708 L1054.43 868.861 L1052.51 860.956 L1050.59 852.995 L1048.66 844.979 L1046.74 836.909 L1044.81 828.788 L1042.89 820.618 L1040.97 812.399 L1039.04 804.135 L1037.12 795.827 L1035.19 787.477 L1033.27 779.087 L1031.35 770.66 L1029.42 762.199 L1027.5 753.705 L1025.57 745.18 L1023.65 736.627 L1021.73 728.048 L1019.8 719.443 L1017.88 710.814 L1015.95 702.164 L1014.03 693.493 L1012.11 684.804 L1010.18 676.099 L1008.26 667.38 L1006.33 658.648 L1004.41 649.906 L1002.49 641.157 L1000.56 632.401 L998.638 623.643 L996.714 614.884 L994.79 606.127 L992.866 597.374 L990.942 588.629 L989.018 579.893 L987.094 571.171 L985.17 562.463 L983.246 553.772 L981.322 545.098 L979.398 536.445 L977.474 527.814 L975.55 519.206 L973.626 510.624 L971.702 502.07 L969.778 493.545 L967.854 485.053 L965.93 476.594 L964.006 468.173 L962.082 459.79 L960.158 451.448 L958.234 443.15 L956.31 434.899 L954.386 426.697 L952.462 418.546 L950.538 410.451 L948.614 402.413 L946.69 394.433 L944.766 386.515 L942.842 378.66 L940.918 370.868 L938.994 363.143 L937.07 355.486 L935.146 347.898 L933.222 340.382 L931.298 332.94 L929.374 325.573 L927.45 318.283 L925.526 311.073 L923.602 303.945 L921.678 296.9 L919.754 289.942 L917.83 283.071 L915.906 276.291 L913.982 269.604 L912.058 263.012 L910.134 256.518 L908.21 250.122 L906.286 243.827 L904.362 237.634 L902.438 231.545 L900.514 225.56 L898.59 219.682 L896.666 213.912 L894.742 208.251 L892.818 202.701 L890.894 197.263 L888.97 191.939 L887.046 186.731 L885.122 181.639 L883.198 176.666 L881.274 171.813 L879.35 167.082 L877.426 162.473 L875.502 157.989 L873.578 153.631 L871.654 149.4 L869.73 145.298 L867.806 141.326 L865.882 137.484 L863.958 133.775 L862.034 130.198 L860.11 126.756 L858.186 123.448 L856.262 120.276 L854.338 117.241 L852.414 114.343 L850.49 111.584 L848.566 108.963 L846.641 106.483 L844.717 104.142 L842.793 101.943 L840.869 99.8854 L838.945 97.9696 L837.021 96.1961 L835.097 94.5651 L833.173 93.0771 L831.249 91.7326 L829.325 90.5324 L827.401 89.4771 L825.477 88.5673 L823.553 87.8034 L821.629 87.1859 L819.705 86.7152 L817.781 86.3915 L815.857 86.215 L813.933 86.1857 L812.009 86.3036 L810.085 86.5686 L808.161 86.9805 L806.237 87.5388 L804.313 88.2431 L802.389 89.0927 L800.465 90.0869 L798.541 91.2247 L796.617 92.505 L794.693 93.9269 L792.769 95.4904 L790.845 97.1959 L788.921 99.0434 L786.997 101.033 L785.073 103.165 L783.149 105.438 L781.225 107.854 L779.301 110.411 L777.377 113.108 L775.453 115.946 L773.529 118.922 L771.605 122.037 L769.681 125.29 L767.757 128.677 L765.833 132.2 L763.909 135.854 L761.985 139.639 L760.061 143.552 L758.137 147.591 L756.213 151.754 L754.289 156.04 L752.365 160.449 L750.441 164.98 L748.517 169.634 L746.593 174.41 L744.669 179.307 L742.745 184.324 L740.821 189.461 L738.897 194.716 L736.973 200.088 L735.049 205.576 L733.125 211.178 L731.201 216.891 L729.277 222.715 L727.353 228.646 L725.429 234.681 L723.505 240.819 L721.581 247.056 L719.657 253.388 L717.733 259.812 L715.809 266.327 L713.885 272.933 L711.961 279.629 L710.037 286.414 L708.113 293.287 L706.189 300.248 L704.265 307.295 L702.341 314.427 L700.417 321.643 L698.493 328.94 L696.569 336.317 L694.645 343.772 L692.721 351.303 L690.797 358.906 L688.873 366.58 L686.949 374.321 L685.025 382.126 L683.101 389.991 L681.177 397.913 L679.253 405.887 L677.329 413.912 L675.405 421.988 L673.481 430.114 L671.557 438.288 L669.633 446.509 L667.709 454.777 L665.785 463.089 L663.861 471.445 L661.937 479.842 L660.013 488.28 L658.089 496.755 L656.165 505.267 L654.241 513.812 L652.317 522.388 L650.393 530.994 L648.469 539.625 L646.545 548.279 L644.621 556.952 L642.697 565.642 L640.773 574.345 L638.849 583.058 L636.924 591.782 L635 600.514 L633.076 609.254 L631.152 618 L629.228 626.75 L627.304 635.504 L625.38 644.26 L623.456 653.016 L621.532 661.771 L619.608 670.523 L617.684 679.271 L615.76 688.012 L613.836 696.746 L611.912 705.47 L609.988 714.183 L608.064 722.883 L606.14 731.567 L604.216 740.235 L602.292 748.884 L600.368 757.513 L598.444 766.119 L596.52 774.702 L594.596 783.258 L592.672 791.786 L590.748 800.285 L588.824 808.753 L586.9 817.188 L584.976 825.588 L583.052 833.953 L581.128 842.28 L579.204 850.57 L577.28 858.82 L575.356 867.029 L573.432 875.198 L571.508 883.326 L569.584 891.413 L567.66 899.459 L565.736 907.466 L563.812 915.433 L561.888 923.358 L559.964 931.24 L558.04 939.077 L556.116 946.866 L554.192 954.606 L552.268 962.294 L550.344 969.931 L548.42 977.513 L546.496 985.042 L544.572 992.516 L542.648 999.935 L540.724 1007.3 L538.8 1014.62 L536.876 1021.88 L534.952 1029.1 L533.028 1036.28 L531.104 1043.43 L529.18 1050.54 L527.256 1057.64 L525.332 1064.72 L523.408 1071.8 L521.484 1078.85 L519.56 1085.87 L517.636 1092.86 L515.712 1099.81 L513.788 1106.71 L511.864 1113.54 L509.94 1120.31 L508.016 1127 L506.092 1133.6 L504.168 1140.09 L502.244 1146.47 L500.32 1152.71 L498.396 1158.81 L496.472 1164.75 L494.548 1170.51 L492.624 1176.07 L490.7 1181.41 L488.776 1186.52 L486.852 1191.36 L484.928 1195.95 L483.004 1200.28 L481.08 1204.36 L479.156 1208.2 L477.232 1211.82 L475.308 1215.26 L473.384 1218.54 L471.46 1221.74 L469.536 1224.9 L467.612 1228.14 L465.688 1231.55 L463.764 1235.29 L461.84 1239.54 L459.916 1244.53 L457.992 1250.54 L456.068 1257.93 L454.144 1267.15 L452.22 1278.74 L450.296 1293.38  Z" fill="#009af9" fill-rule="evenodd" fill-opacity="0.5"/>
<polyline clip-path="url(#clip181)" style="stroke:#009af9; stroke-linecap:round; stroke-linejoin:round; stroke-width:4; stroke-opacity:1; fill:none" points="450.296,1338.81 452.22,1325.66 454.144,1315.13 456.068,1306.65 457.992,1299.74 459.916,1294.03 461.84,1289.21 463.764,1285.04 465.688,1281.32 467.612,1277.89 469.536,1274.62 471.46,1271.42 473.384,1268.19 475.308,1264.89 477.232,1261.46 479.156,1257.87 481.08,1254.09 483.004,1250.11 484.928,1245.9 486.852,1241.47 488.776,1236.8 490.7,1231.91 492.624,1226.81 494.548,1221.51 496.472,1216.04 498.396,1210.4 500.32,1204.62 502.244,1198.71 504.168,1192.68 506.092,1186.54 508.016,1180.31 509.94,1174 511.864,1167.61 513.788,1161.15 515.712,1154.64 517.636,1148.08 519.56,1141.49 521.484,1134.86 523.408,1128.2 525.332,1121.52 527.256,1114.83 529.18,1108.12 531.104,1101.4 533.028,1094.64 534.952,1087.86 536.876,1081.03 538.8,1074.16 540.724,1067.24 542.648,1060.28 544.572,1053.26 546.496,1046.19 548.42,1039.07 550.344,1031.9 552.268,1024.68 554.192,1017.41 556.116,1010.09 558.04,1002.72 559.964,995.309 561.888,987.852 563.812,980.353 565.736,972.814 567.66,965.237 569.584,957.622 571.508,949.967 573.432,942.272 575.356,934.537 577.28,926.763 579.204,918.95 581.128,911.098 583.052,903.21 584.976,895.285 586.9,887.325 588.824,879.331 590.748,871.305 592.672,863.249 594.596,855.163 596.52,847.049 598.444,838.909 600.368,830.745 602.292,822.558 604.216,814.35 606.14,806.123 608.064,797.878 609.988,789.618 611.912,781.343 613.836,773.056 615.76,764.758 617.684,756.45 619.608,748.135 621.532,739.814 623.456,731.489 625.38,723.16 627.304,714.829 629.228,706.499 631.152,698.17 633.076,689.843 635,681.52 636.924,673.202 638.849,664.89 640.773,656.585 642.697,648.289 644.621,640.004 646.545,631.731 648.469,623.475 650.393,615.238 652.317,607.024 654.241,598.835 656.165,590.673 658.089,582.541 660.013,574.441 661.937,566.374 663.861,558.343 665.785,550.349 667.709,542.394 669.633,534.479 671.557,526.606 673.481,518.775 675.405,510.988 677.329,503.246 679.253,495.55 681.177,487.9 683.101,480.297 685.025,472.746 686.949,465.25 688.873,457.812 690.797,450.435 692.721,443.123 694.645,435.878 696.569,428.702 698.493,421.598 700.417,414.567 702.341,407.611 704.265,400.733 706.189,393.932 708.113,387.211 710.037,380.571 711.961,374.012 713.885,367.536 715.809,361.144 717.733,354.835 719.657,348.611 721.581,342.472 723.505,336.421 725.429,330.462 727.353,324.598 729.277,318.832 731.201,313.165 733.125,307.601 735.049,302.141 736.973,296.787 738.897,291.541 740.821,286.404 742.745,281.377 744.669,276.462 746.593,271.659 748.517,266.97 750.441,262.394 752.365,257.933 754.289,253.587 756.213,249.356 758.137,245.24 760.061,241.24 761.985,237.358 763.909,233.597 765.833,229.957 767.757,226.442 769.681,223.053 771.605,219.792 773.529,216.659 775.453,213.656 777.377,210.784 779.301,208.044 781.225,205.436 783.149,202.961 785.073,200.62 786.997,198.412 788.921,196.338 790.845,194.398 792.769,192.592 794.693,190.92 796.617,189.382 798.541,187.977 800.465,186.707 802.389,185.572 804.313,184.574 806.237,183.713 808.161,182.99 810.085,182.406 812.009,181.96 813.933,181.654 815.857,181.487 817.781,181.459 819.705,181.571 821.629,181.822 823.553,182.212 825.477,182.741 827.401,183.408 829.325,184.213 831.249,185.156 833.173,186.235 835.097,187.451 837.021,188.802 838.945,190.289 840.869,191.911 842.793,193.668 844.717,195.56 846.641,197.586 848.566,199.745 850.49,202.037 852.414,204.461 854.338,207.017 856.262,209.705 858.186,212.522 860.11,215.469 862.034,218.544 863.958,221.747 865.882,225.077 867.806,228.533 869.73,232.114 871.654,235.818 873.578,239.646 875.502,243.595 877.426,247.665 879.35,251.854 881.274,256.16 883.198,260.583 885.122,265.12 887.046,269.771 888.97,274.534 890.894,279.408 892.818,284.39 894.742,289.481 896.666,294.678 898.59,299.98 900.514,305.385 902.438,310.893 904.362,316.502 906.286,322.21 908.21,328.016 910.134,333.919 912.058,339.917 913.982,346.009 915.906,352.193 917.83,358.466 919.754,364.827 921.678,371.273 923.602,377.802 925.526,384.412 927.45,391.101 929.374,397.867 931.298,404.708 933.222,411.622 935.146,418.608 937.07,425.663 938.994,432.786 940.918,439.975 942.842,447.229 944.766,454.545 946.69,461.922 948.614,469.358 950.538,476.853 952.462,484.404 954.386,492.008 956.31,499.663 958.234,507.366 960.158,515.116 962.082,522.908 964.006,530.742 965.93,538.614 967.854,546.522 969.778,554.465 971.702,562.44 973.626,570.444 975.55,578.477 977.474,586.536 979.398,594.62 981.322,602.725 983.246,610.852 985.17,618.997 987.094,627.159 989.018,635.338 990.942,643.53 992.866,651.733 994.79,659.945 996.714,668.163 998.638,676.385 1000.56,684.607 1002.49,692.828 1004.41,701.046 1006.33,709.258 1008.26,717.461 1010.18,725.655 1012.11,733.837 1014.03,742.005 1015.95,750.157 1017.88,758.292 1019.8,766.408 1021.73,774.503 1023.65,782.575 1025.57,790.623 1027.5,798.646 1029.42,806.641 1031.35,814.608 1033.27,822.542 1035.19,830.443 1037.12,838.308 1039.04,846.134 1040.97,853.92 1042.89,861.664 1044.81,869.364 1046.74,877.019 1048.66,884.625 1050.59,892.183 1052.51,899.689 1054.43,907.144 1056.36,914.544 1058.28,921.889 1060.21,929.178 1062.13,936.409 1064.05,943.581 1065.98,950.693 1067.9,957.743 1069.83,964.73 1071.75,971.652 1073.67,978.508 1075.6,985.296 1077.52,992.014 1079.45,998.662 1081.37,1005.24 1083.29,1011.74 1085.22,1018.16 1087.14,1024.52 1089.07,1030.79 1090.99,1036.98 1092.91,1043.1 1094.84,1049.13 1096.76,1055.09 1098.69,1060.96 1100.61,1066.75 1102.53,1072.46 1104.46,1078.08 1106.38,1083.61 1108.31,1089.06 1110.23,1094.42 1112.15,1099.7 1114.08,1104.88 1116,1109.98 1117.93,1114.99 1119.85,1119.9 1121.77,1124.73 1123.7,1129.46 1125.62,1134.1 1127.55,1138.65 1129.47,1143.1 1131.39,1147.46 1133.32,1151.72 1135.24,1155.9 1137.17,1159.97 1139.09,1163.95 1141.01,1167.84 1142.94,1171.62 1144.86,1175.32 1146.79,1178.91 1148.71,1182.41 1150.63,1185.82 1152.56,1189.13 1154.48,1192.34 1156.41,1195.45 1158.33,1198.47 1160.25,1201.4 1162.18,1204.23 1164.1,1206.96 1166.03,1209.6 1167.95,1212.14 1169.88,1214.58 1171.8,1216.93 1173.72,1219.19 1175.65,1221.35 1177.57,1223.42 1179.5,1225.39 1181.42,1227.27 1183.34,1229.06 1185.27,1230.75 1187.19,1232.35 1189.12,1233.86 1191.04,1235.28 1192.96,1236.61 1194.89,1237.85 1196.81,1239 1198.74,1240.06 1200.66,1241.04 1202.58,1241.93 1204.51,1242.73 1206.43,1243.45 1208.36,1244.08 1210.28,1244.63 1212.2,1245.1 1214.13,1245.49 1216.05,1245.79 1217.98,1246.02 1219.9,1246.16 1221.82,1246.22 1223.75,1246.21 1225.67,1246.12 1227.6,1245.95 1229.52,1245.71 1231.44,1245.4 1233.37,1245.01 1235.29,1244.56 1237.22,1244.03 1239.14,1243.44 1241.06,1242.78 1242.99,1242.05 1244.91,1241.26 1246.84,1240.4 1248.76,1239.49 1250.68,1238.51 1252.61,1237.47 1254.53,1236.37 1256.46,1235.21 1258.38,1233.99 1260.3,1232.72 1262.23,1231.4 1264.15,1230.02 1266.08,1228.58 1268,1227.1 1269.92,1225.57 1271.85,1224 1273.77,1222.37 1275.7,1220.7 1277.62,1219 1279.54,1217.24 1281.47,1215.45 1283.39,1213.62 1285.32,1211.76 1287.24,1209.85 1289.16,1207.91 1291.09,1205.94 1293.01,1203.94 1294.94,1201.9 1296.86,1199.84 1298.78,1197.74 1300.71,1195.62 1302.63,1193.47 1304.56,1191.3 1306.48,1189.11 1308.4,1186.89 1310.33,1184.66 1312.25,1182.4 1314.18,1180.14 1316.1,1177.85 1318.02,1175.56 1319.95,1173.25 1321.87,1170.93 1323.8,1168.6 1325.72,1166.26 1327.64,1163.92 1329.57,1161.57 1331.49,1159.21 1333.42,1156.85 1335.34,1154.49 1337.26,1152.13 1339.19,1149.77 1341.11,1147.41 1343.04,1145.05 1344.96,1142.7 1346.88,1140.35 1348.81,1138.01 1350.73,1135.68 1352.66,1133.36 1354.58,1131.05 1356.5,1128.75 1358.43,1126.47 1360.35,1124.2 1362.28,1121.95 1364.2,1119.71 1366.12,1117.49 1368.05,1115.29 1369.97,1113.11 1371.9,1110.95 1373.82,1108.81 1375.74,1106.69 1377.67,1104.6 1379.59,1102.54 1381.52,1100.5 1383.44,1098.48 1385.36,1096.5 1387.29,1094.54 1389.21,1092.61 1391.14,1090.72 1393.06,1088.85 1394.98,1087.02 1396.91,1085.22 1398.83,1083.46 1400.76,1081.73 1402.68,1080.03 1404.6,1078.37 1406.53,1076.75 1408.45,1075.17 1410.38,1073.62 1412.3,1072.12 1414.22,1070.65 1416.15,1069.23 1418.07,1067.84 1420,1066.5 1421.92,1065.2 1423.84,1063.94 1425.77,1062.72 1427.69,1061.55 1429.62,1060.42 1431.54,1059.34 1433.46,1058.3 1435.39,1057.3 1437.31,1056.35 1439.24,1055.45 1441.16,1054.59 1443.08,1053.78 1445.01,1053.02 1446.93,1052.3 1448.86,1051.63 1450.78,1051.01 1452.7,1050.44 1454.63,1049.91 1456.55,1049.43 1458.48,1049.01 1460.4,1048.62 1462.32,1048.29 1464.25,1048.01 1466.17,1047.77 1468.1,1047.58 1470.02,1047.44 1471.94,1047.34 1473.87,1047.3 1475.79,1047.3 1477.72,1047.35 1479.64,1047.45 1481.56,1047.59 1483.49,1047.79 1485.41,1048.03 1487.34,1048.31 1489.26,1048.65 1491.18,1049.03 1493.11,1049.46 1495.03,1049.93 1496.96,1050.45 1498.88,1051.02 1500.8,1051.63 1502.73,1052.29 1504.65,1052.98 1506.58,1053.73 1508.5,1054.51 1510.42,1055.34 1512.35,1056.21 1514.27,1057.12 1516.2,1058.07 1518.12,1059.07 1520.04,1060.1 1521.97,1061.17 1523.89,1062.29 1525.82,1063.44 1527.74,1064.63 1529.66,1065.86 1531.59,1067.13 1533.51,1068.43 1535.44,1069.77 1537.36,1071.14 1539.28,1072.55 1541.21,1073.99 1543.13,1075.46 1545.06,1076.97 1546.98,1078.5 1548.9,1080.07 1550.83,1081.67 1552.75,1083.29 1554.68,1084.94 1556.6,1086.62 1558.52,1088.33 1560.45,1090.06 1562.37,1091.82 1564.3,1093.61 1566.22,1095.41 1568.14,1097.24 1570.07,1099.09 1571.99,1100.97 1573.92,1102.86 1575.84,1104.78 1577.76,1106.71 1579.69,1108.66 1581.61,1110.62 1583.54,1112.6 1585.46,1114.6 1587.39,1116.61 1589.31,1118.63 1591.23,1120.66 1593.16,1122.7 1595.08,1124.76 1597.01,1126.82 1598.93,1128.9 1600.85,1130.98 1602.78,1133.06 1604.7,1135.16 1606.63,1137.25 1608.55,1139.36 1610.47,1141.46 1612.4,1143.57 1614.32,1145.68 1616.25,1147.79 1618.17,1149.9 1620.09,1152.01 1622.02,1154.11 1623.94,1156.22 1625.87,1158.31 1627.79,1160.41 1629.71,1162.49 1631.64,1164.57 1633.56,1166.64 1635.49,1168.71 1637.41,1170.76 1639.33,1172.8 1641.26,1174.84 1643.18,1176.86 1645.11,1178.86 1647.03,1180.86 1648.95,1182.84 1650.88,1184.81 1652.8,1186.76 1654.73,1188.69 1656.65,1190.61 1658.57,1192.5 1660.5,1194.38 1662.42,1196.24 1664.35,1198.08 1666.27,1199.89 1668.19,1201.69 1670.12,1203.46 1672.04,1205.21 1673.97,1206.93 1675.89,1208.63 1677.81,1210.3 1679.74,1211.95 1681.66,1213.57 1683.59,1215.17 1685.51,1216.73 1687.43,1218.27 1689.36,1219.78 1691.28,1221.25 1693.21,1222.7 1695.13,1224.12 1697.05,1225.51 1698.98,1226.86 1700.9,1228.18 1702.83,1229.47 1704.75,1230.73 1706.67,1231.95 1708.6,1233.14 1710.52,1234.3 1712.45,1235.41 1714.37,1236.5 1716.29,1237.55 1718.22,1238.56 1720.14,1239.53 1722.07,1240.47 1723.99,1241.37 1725.91,1242.23 1727.84,1243.06 1729.76,1243.85 1731.69,1244.6 1733.61,1245.31 1735.53,1245.98 1737.46,1246.62 1739.38,1247.21 1741.31,1247.77 1743.23,1248.29 1745.15,1248.76 1747.08,1249.2 1749,1249.6 1750.93,1249.96 1752.85,1250.28 1754.77,1250.56 1756.7,1250.8 1758.62,1251 1760.55,1251.16 1762.47,1251.28 1764.39,1251.36 1766.32,1251.4 1768.24,1251.4 1770.17,1251.36 1772.09,1251.28 1774.01,1251.16 1775.94,1251.01 1777.86,1250.81 1779.79,1250.58 1781.71,1250.3 1783.63,1249.99 1785.56,1249.64 1787.48,1249.26 1789.41,1248.83 1791.33,1248.37 1793.25,1247.87 1795.18,1247.33 1797.1,1246.76 1799.03,1246.15 1800.95,1245.5 1802.87,1244.82 1804.8,1244.1 1806.72,1243.35 1808.65,1242.56 1810.57,1241.74 1812.49,1240.88 1814.42,1240 1816.34,1239.08 1818.27,1238.12 1820.19,1237.14 1822.11,1236.12 1824.04,1235.08 1825.96,1234 1827.89,1232.9 1829.81,1231.76 1831.73,1230.6 1833.66,1229.41 1835.58,1228.19 1837.51,1226.94 1839.43,1225.66 1841.35,1224.36 1843.28,1223.03 1845.2,1221.68 1847.13,1220.31 1849.05,1218.91 1850.97,1217.49 1852.9,1216.04 1854.82,1214.58 1856.75,1213.1 1858.67,1211.59 1860.59,1210.07 1862.52,1208.52 1864.44,1206.96 1866.37,1205.39 1868.29,1203.79 1870.21,1202.18 1872.14,1200.56 1874.06,1198.92 1875.99,1197.26 1877.91,1195.59 1879.83,1193.91 1881.76,1192.22 1883.68,1190.52 1885.61,1188.8 1887.53,1187.08 1889.45,1185.35 1891.38,1183.61 1893.3,1181.87 1895.23,1180.11 1897.15,1178.36 1899.07,1176.6 1901,1174.83 1902.92,1173.06 1904.85,1171.29 1906.77,1169.52 1908.69,1167.75 1910.62,1165.98 1912.54,1164.2 1914.47,1162.43 1916.39,1160.66 1918.31,1158.9 1920.24,1157.14 1922.16,1155.38 1924.09,1153.62 1926.01,1151.88 1927.93,1150.14 1929.86,1148.41 1931.78,1146.68 1933.71,1144.97 1935.63,1143.26 1937.55,1141.57 1939.48,1139.89 1941.4,1138.22 1943.33,1136.56 1945.25,1134.91 1947.17,1133.28 1949.1,1131.67 1951.02,1130.07 1952.95,1128.49 1954.87,1126.92 1956.79,1125.37 1958.72,1123.84 1960.64,1122.33 1962.57,1120.84 1964.49,1119.37 1966.41,1117.92 1968.34,1116.49 1970.26,1115.08 1972.19,1113.7 1974.11,1112.34 1976.03,1111 1977.96,1109.69 1979.88,1108.4 1981.81,1107.14 1983.73,1105.91 1985.65,1104.7 1987.58,1103.52 1989.5,1102.37 1991.43,1101.25 1993.35,1100.16 1995.27,1099.1 1997.2,1098.06 1999.12,1097.06 2001.05,1096.09 2002.97,1095.15 2004.9,1094.24 2006.82,1093.36 2008.74,1092.52 2010.67,1091.71 2012.59,1090.93 2014.52,1090.19 2016.44,1089.48 2018.36,1088.81 2020.29,1088.17 2022.21,1087.57 2024.14,1087 2026.06,1086.47 2027.98,1085.98 2029.91,1085.52 2031.83,1085.1 2033.76,1084.72 2035.68,1084.37 2037.6,1084.07 2039.53,1083.8 2041.45,1083.56 2043.38,1083.37 2045.3,1083.22 2047.22,1083.1 2049.15,1083.02 2051.07,1082.98 2053,1082.98 2054.92,1083.02 2056.84,1083.1 2058.77,1083.22 2060.69,1083.38 2062.62,1083.58 2064.54,1083.81 2066.46,1084.09 2068.39,1084.41 2070.31,1084.76 2072.24,1085.16 2074.16,1085.6 2076.08,1086.07 2078.01,1086.59 2079.93,1087.14 2081.86,1087.74 2083.78,1088.37 2085.7,1089.04 2087.63,1089.75 2089.55,1090.5 2091.48,1091.29 2093.4,1092.12 2095.32,1092.99 2097.25,1093.89 2099.17,1094.83 2101.1,1095.81 2103.02,1096.83 2104.94,1097.89 2106.87,1098.98 2108.79,1100.11 2110.72,1101.28 2112.64,1102.49 2114.56,1103.73 2116.49,1105.01 2118.41,1106.32 2120.34,1107.67 2122.26,1109.05 2124.18,1110.47 2126.11,1111.92 2128.03,1113.4 2129.96,1114.92 2131.88,1116.47 2133.8,1118.06 2135.73,1119.67 2137.65,1121.32 2139.58,1123 2141.5,1124.71 2143.42,1126.46 2145.35,1128.23 2147.27,1130.03 2149.2,1131.87 2151.12,1133.73 2153.04,1135.62 2154.97,1137.54 2156.89,1139.48 2158.82,1141.45 2160.74,1143.45 2162.66,1145.47 2164.59,1147.52 2166.51,1149.6 2168.44,1151.69 2170.36,1153.81 2172.28,1155.96 2174.21,1158.12 2176.13,1160.31 2178.06,1162.52 2179.98,1164.75 2181.9,1167 2183.83,1169.27 2185.75,1171.56 2187.68,1173.87 2189.6,1176.2 2191.52,1178.54 2193.45,1180.9 2195.37,1183.28 2197.3,1185.67 2199.22,1188.08 2201.14,1190.5 2203.07,1192.93 2204.99,1195.38 2206.92,1197.84 2208.84,1200.31 2210.76,1202.79 2212.69,1205.29 2214.61,1207.79 2216.54,1210.3 2218.46,1212.83 2220.38,1215.36 2222.31,1217.89 2224.23,1220.44 2226.16,1222.99 2228.08,1225.54 2230,1228.11 2231.93,1230.67 2233.85,1233.24 2235.78,1235.81 2237.7,1238.38 2239.62,1240.96 2241.55,1243.53 2243.47,1246.1 2245.4,1248.67 2247.32,1251.25 2249.24,1253.81 2251.17,1256.38 2253.09,1258.94 2255.02,1261.49 2256.94,1264.05 2258.86,1266.59 2260.79,1269.13 2262.71,1271.66 2264.64,1274.19 2266.56,1276.71 2268.48,1279.22 2270.41,1281.72 2272.33,1284.21 2274.26,1286.7 2276.18,1289.18 2278.1,1291.64 2280.03,1294.1 2281.95,1296.55 2283.88,1298.99 2285.8,1301.41 2287.72,1303.83 2289.65,1306.24 2291.57,1308.63 2293.5,1311.01 2295.42,1313.39 2297.34,1315.75 "/>
<path clip-path="url(#clip180)" d="M1907.68 196.789 L2287.49 196.789 L2287.49 93.1086 L1907.68 93.1086  Z" fill="#ffffff" fill-rule="evenodd" fill-opacity="1"/>
<polyline clip-path="url(#clip180)" style="stroke:#000000; stroke-linecap:round; stroke-linejoin:round; stroke-width:4; stroke-opacity:1; fill:none" points="1907.68,196.789 2287.49,196.789 2287.49,93.1086 1907.68,93.1086 1907.68,196.789 "/>
<polyline clip-path="url(#clip180)" style="stroke:#009af9; stroke-linecap:round; stroke-linejoin:round; stroke-width:4; stroke-opacity:1; fill:none" points="1929.43,144.949 2059.96,144.949 "/>
<path clip-path="url(#clip180)" d="M2086.39 131.511 L2086.39 158.386 L2092.04 158.386 Q2099.19 158.386 2102.5 155.145 Q2105.83 151.905 2105.83 144.914 Q2105.83 137.969 2102.5 134.752 Q2099.19 131.511 2092.04 131.511 L2086.39 131.511 M2081.71 127.669 L2091.32 127.669 Q2101.37 127.669 2106.06 131.858 Q2110.76 136.025 2110.76 144.914 Q2110.76 153.849 2106.04 158.039 Q2101.32 162.229 2091.32 162.229 L2081.71 162.229 L2081.71 127.669 Z" fill="#000000" fill-rule="nonzero" fill-opacity="1" /><path clip-path="url(#clip180)" d="M2116.39 142.067 L2119.07 142.067 L2119.07 162.229 L2116.39 162.229 L2116.39 142.067 Z" fill="#000000" fill-rule="nonzero" fill-opacity="1" /><path clip-path="url(#clip180)" d="M2158.31 132.507 L2158.31 141.465 L2171.2 141.465 L2171.2 145.4 L2158.31 145.4 L2158.31 154.358 L2154.42 154.358 L2154.42 145.4 L2141.53 145.4 L2141.53 141.465 L2154.42 141.465 L2154.42 132.507 L2158.31 132.507 M2141.53 158.293 L2171.2 158.293 L2171.2 162.229 L2141.53 162.229 L2141.53 158.293 Z" fill="#000000" fill-rule="nonzero" fill-opacity="1" /><path clip-path="url(#clip180)" d="M2207.5 132.275 L2198.01 158.34 L2217.01 158.34 L2207.5 132.275 M2191.67 162.229 L2204.86 127.669 L2210.16 127.669 L2223.33 162.229 L2191.67 162.229 Z" fill="#000000" fill-rule="nonzero" fill-opacity="1" /><path clip-path="url(#clip180)" d="M2233.05 131.511 L2233.05 158.386 L2238.7 158.386 Q2245.86 158.386 2249.17 155.145 Q2252.5 151.905 2252.5 144.914 Q2252.5 137.969 2249.17 134.752 Q2245.86 131.511 2238.7 131.511 L2233.05 131.511 M2228.38 127.669 L2237.98 127.669 Q2248.03 127.669 2252.73 131.858 Q2257.43 136.025 2257.43 144.914 Q2257.43 153.849 2252.71 158.039 Q2247.98 162.229 2237.98 162.229 L2228.38 162.229 L2228.38 127.669 Z" fill="#000000" fill-rule="nonzero" fill-opacity="1" /><path clip-path="url(#clip180)" d="M2263.05 142.067 L2265.74 142.067 L2265.74 162.229 L2263.05 162.229 L2263.05 142.067 Z" fill="#000000" fill-rule="nonzero" fill-opacity="1" /></svg>
